<?xml version="1.0" encoding="utf-8"?>
<!-- Generator: Adobe Illustrator 24.1.1, SVG Export Plug-In . SVG Version: 6.00 Build 0)  -->
<svg version="1.1" id="Layer_1" xmlns="http://www.w3.org/2000/svg" xmlns:xlink="http://www.w3.org/1999/xlink" x="0px" y="0px"
	 viewBox="0 0 2000 2000" style="enable-background:new 0 0 2000 2000;" xml:space="preserve">
<g>
	<path d="M1277.87,1191.69c23.67-14.23,34.69-33.53,37.07-37.88c7.86-14.35,10.33-27.98,11.19-36.91
		c-5.12,4.82-9.68,8.46-13.47,12.79c-15.41,17.57-34.29,29.7-56.38,36.99c-6.2,2.04-12.35,4.39-18.7,5.78
		c-2,0.43-5.89-1.21-6.7-2.94c-4.54-9.68-7.61-20.12-12.77-29.43c-3.63-6.55-3.61-12.41-2.91-19.37
		c1.29-12.89,3.63-25.14-4.57-38.23c-9.29-14.85-15.48-31.97-18.41-49.85c-3.25-19.8-4.86-39.37-0.47-59.3
		c3.52-15.95,0.07-32.3-8.5-45.04c-9.13-13.57-11.9-29.44-20.27-42.96c-1.6-2.59-1.06-6.63-1.14-10.01
		c-0.13-5.66-0.07-11.33,0.1-16.99c0.24-7.62-2.28-14.24-7.14-19.97c-3.33-3.93-7.64-7.24-10.07-11.63
		c-1.84-3.31-2.62-8.19-1.71-11.84c1.96-7.89,0.49-12.28-5.51-18.06c-13.24-12.78-25.96-26.11-38.78-39.32
		c-5.39-5.55-11.02-9.99-18.87-12.27c-14.45-4.2-20.89-9.78-29.87-13.7c-21.67-9.45-20.65-15.13-48.72-31.39
		c-7.63-4.42-17.52-9.33-37.47-18.78c-16.54-7.83-33.63-14.06-44.31-31.09c-4.32-6.89-6.19-12.91-5.9-20.49
		c0.98-25.34,1.61-50.65-2.49-75.87c-3.73-22.93-6.25-46.07-10.42-68.91c-7.19-39.35-10.44-59.94-17.71-87.46
		c-6.99-26.43-14.47-48.26-20.45-64.23c14.39,89.44,6.51,113.81-4.37,118.2c-7.19,2.9-13.58-3.79-34.41-3.72
		c-24.21,0.08-32.43,9.15-41,6.26c-11.14-3.77-20.77-27.01-12.42-115.23c-12.51,34.8-17.68,63.69-20.09,83.62
		c-2.1,17.39-1.32,22.96-4.5,78.56c-1.24,21.65-4.07,43.29-3.85,64.91c0.36,36.66,2.38,73.3,4.15,109.93
		c0.37,7.8,2.09,15.67,4.25,23.2c1.15,4.03,1.21,6.63-1.82,9.61c-9.78,9.61-19.36,19.42-29.04,29.14
		c-8.56,8.59-17.21,17.1-25.72,25.75c-7.26,7.4-14.23,15.08-21.59,22.37c-3.89,3.85-7.94,7.8-12.61,10.5
		c-4.81,2.77-10.42,4.19-15.75,6.02c-18.07,6.22-37.96,8.71-51.07,25.08c-0.25,0.31-0.89,0.28-1.21,0.57
		c-10.16,9.42-24.96,14.16-29.14,29.65c-2.08,7.69-5.2,15.09-7.54,22.71c-0.96,3.11-0.55,6.68-1.72,9.66
		c-2.52,6.43-7.12,12.37-8.25,18.96c-2.16,12.63-4.8,25.88,4.84,37.25c0.64,0.76,0.53,2.17,0.72,3.28
		c1.66,9.58,2.76,19.31,5.14,28.71c1.79,7.05,5.37,13.63,7.82,20.54c0.69,1.94,1.11,4.9,0.12,6.36c-5.59,8.32-4.75,17.55-4.76,26.77
		c-0.01,10.38,0.37,20.82-0.64,31.11c-2.12,21.62-8.98,41.24-26.71,55.5c-1.17,0.94-2.06,2.47-2.61,3.9
		c-5.19,13.4-10.56,26.74-15.32,40.3c-4.17,11.89-8.15,23.91-11.18,36.12c-1.88,7.58-3.57,15.68-0.24,24.18
		c12.57-5.69,24.56-10.8,36.25-16.52c7.88-3.85,15.47-9.31,17.52-18.06c3.04-12.99,9.78-25.33,7.97-39.32
		c-0.11-0.86,0.11-1.85,0.45-2.67c2.94-7.27,5.46-14.46,5.13-22.68c-0.13-3.13,3.13-6.95,5.76-9.51c4-3.89,8.66-7.15,13.28-10.33
		c3.67-2.53,7.48-5.94,11.59-6.57c27.72-4.26,45.57,0.29,62.71,22.77c4.52,5.93,3,16.89,16.38,16.94
		c-5.09,5.46-8.58,9.13-11.97,12.88c-1.58,1.75-3.31,3.48-4.39,5.53c-5.33,10.15-10.47,20.39-15.64,30.63
		c-2.62,5.18-4.81,10.61-7.84,15.54c-3.27,5.32-7.13,10.3-11.04,15.19c-2.68,3.36-5.88,6.3-8.85,9.43
		c-0.66-0.32-1.32-0.63-1.98-0.95c0.52,2.17,1.04,4.34,1.64,6.84c-11.52,4.93-22.12,0.58-32.32-6.31c-2.39,4.5-4.38,7.78-5.93,11.26
		c-1.73,3.88,1.87,13.44,6.31,16.02c4.88,2.84,9.03,0.4,11.6-3.65c4.09-6.44,10-4.58,15.01-3.21c2.86,0.79,4.81,4.88,7.89,8.27
		c1.71-2.87,2.81-5.6,4.7-7.58c1.25-1.3,4.23-2.66,5.42-2.04c12.55,6.56,25.04,13.29,37.22,20.52c3.07,1.82,5.27,5.36,7.38,8.45
		c2.37,3.45,4.5,7.15,6.17,10.99c3.98,9.2,7.77,18.49,11.36,27.85c1.74,4.54,3.04,9.27,4.27,13.97
		c3.11,11.88,3.65,24.57,14.34,33.55c4.35,3.66,6.21,2.63,8.24-1.08c4.17-7.65,7.93-15.52,12.02-23.21
		c1.72-3.23,3.88-6.22,5.28-8.45c0.24-3.03-0.5-6.75,0.77-7.65c4.68-3.31,1.4-6.22,0.43-9.37c-1.65-5.32-5.03-10.88-4.43-15.96
		c1.93-16.24,4.15-32.66,8.73-48.28c2.08-7.05,0.79-11.71-1.71-18.12c-7.73,3.89-15.38-2.69-23.48,1.43
		c-5.78,2.94-10.78-1.09-11.88-7.58c-0.64-3.81,0.83-4.94,4.6-5.62c7.66-1.37,15.2-3.53,22.74-5.52c7.96-2.1,15.84-4.56,23.85-6.43
		c1.59-0.37,4.05,0.78,5.4,2.01c5.65,5.18,3.75,15.65-3.24,18.89c-3.8,1.76-7.61,3.49-11.49,5.26c2.17,10.42,4.09,11.8,15.06,10.86
		c2.01-0.17,4.07-0.13,6.09,0.06c5.09,0.48,7.9,3.59,7.97,8.49c0.19,11.79,8.25,19.78,14.01,28.67c3.77,5.82,7.19,19.59,3.67,25.45
		c-4.04,6.71-8.35,13.27-12.62,19.84c-3.06,4.71-2.64,18.03,0.81,22.22c5.86,7.14,6.24,14.03,1.83,21.6
		c-7.67,13.16-15.09,26.47-22.54,39.76c-0.71,1.25-0.93,2.77-1.46,4.43c18.73-1.95,36.88-4.21,55.1-5.66
		c23.76-1.9,40.65,10.08,54.05,28.31c2.37,3.21,4.41,6.66,7.63,11.58h-16.58v147.96h28.55v-116.97
		c5.38,21.62,10.41,41.19,15.09,60.84c3.5,14.73,6.61,29.56,9.81,44.36c2.45,11.38,3.57,12.38,14.78,12.38
		c3.39,0,6.82,0.26,10.17-0.13c1.44-0.16,3.48-1.36,3.96-2.59c1.98-5.17,3.69-10.48,5.12-15.84c5.06-18.88,10.05-37.78,14.89-56.72
		c3.57-13.93,6.87-27.92,10.29-41.88c0.44,0.06,0.88,0.12,1.32,0.17v116.61h33.63v-7.67c0-24.69-0.01-49.38-0.01-74.07
		c0-18.8-0.01-37.6,0.01-56.4c0-2.94-0.43-6.15,4.14-6.14c18.97,0.04,37.93,0.02,57.82,0.02c-0.89,3.44-1.43,6.27-2.34,8.97
		c-7.26,21.5-14.65,42.97-21.88,64.48c-4.51,13.41-8.96,26.84-13.21,40.33c-3.15,10-5.94,20.12-9.03,30.65h31.27
		c2.02-8.4,4.15-16.7,5.96-25.07c0.74-3.42,2.01-4.84,5.84-4.73c11.31,0.32,22.64,0.23,33.96,0.07c3.81-0.05,6.25,0.55,7.39,4.92
		c2.14,8.2,5.01,16.21,7.69,24.68h34.57c-15-48.37-29.77-96.04-44.69-144.17h59.85v144.17h27.15v-100.83
		c8.37,13.92,15.48,28.09,22.01,42.52c8.19,18.06,15.86,36.35,23.9,54.48c0.72,1.64,2.42,3.99,3.74,4.03
		c9.86,0.34,19.73,0.19,29.44,0.19c0.34-1.62,0.59-2.28,0.59-2.93c0.06-47.57,0.12-95.14,0.02-142.71c0-1.88-1.18-4.2-2.55-5.57
		c-14.74-14.76-29.81-29.2-44.4-44.1c-5.94-6.07-11.34-12.77-16.29-19.68c-5.6-7.83-10.26-16.32-15.59-24.35
		c-6.02-9.06-5.28-9.38,4.71-13.15c0.5-0.19,15.29-6.74,44.83-20.03c11.84-5.33,26.5-18.33,37.45-52.75
		c-7.03,3.71-12.6,8.51-18.56,12.78c-8.16,5.85-16.17,12.18-25.07,16.63c-7.55,3.77-16.21,5.39-24.49,7.54
		c-7.2,1.87-14.5,3.58-21.87,4.56c-6.71,0.89-7.8-1.11-4.91-7.04c2.08-4.26,3.87-8.69,6.18-12.81c1-1.8,2.78-3.88,4.6-4.38
		c12.03-3.3,44.07-16.56,62.19-26.08c26.06-13.68,38.04-38.49,40.84-44.29c4.78-9.89,7.03-18.83,8.19-25
		c-23.27,30.25-55.83,42.59-92.39,50.77c0.26-6.22,1.61-15.46,7.54-23.77C1235.15,1202.15,1251.92,1207.3,1277.87,1191.69z
		 M876.33,608.82c-4.05,8.04-15.73,10.41-25.61,4.69C858.97,612,867.22,610.49,876.33,608.82z M805.98,616.21
		c-6.91,6.67-20.45,4.96-27.16-3.42C788.35,613.99,796.85,615.06,805.98,616.21z M896.46,865.06c-6.44-8.69-15.65-9.44-25.06-7.81
		c-12.75,2.21-23.8,8.79-32.98,17.46c-4.53,4.28-6.43,11.36-9.71,17.55c-8.74-10.79-20.05-14.93-33.41-9.92
		c-12.46,4.68-19.53,15.34-25.58,26.84c-6-7.03-11.89-5.82-18.93,2.61c-1.09,1.3-4.65,2.42-5.54,1.71
		c-11.09-8.83-11.01-8.92-22.6-3.91c-2.2-3.77-4.33-7.69-6.71-11.46c-8.75-13.86-19.51-15.55-30.73-5.57
		c-2.82,2.51-5.8,4.85-9.39,7.84c-0.37-3.05,0.01-5.94-1.12-8.01c-2.06-3.79-4.38-8.93-7.76-10.08c-3.24-1.11-8.2,1.66-11.97,3.58
		c-3.28,1.68-5.94,4.57-9.4,6.34c12.24-28.2,30.32-50.26,62.07-58.23c0.1,0.33,0.52,0.94,0.38,1.37
		c-4.63,14.84,1.39,18.85,16.53,25.83c5,2.3,10.92,2.66,16.44,3.81c5.52,1.14,9.95,0.43,10.67-6.53c0.12-1.22,1.08-2.36,1.73-3.69
		c4.73,7,9.52,6.95,13.68,0.17c1.37,9.79,1.38,9.81,10.88,6.45c17.12-6.05,33.13-14.27,47.41-25.48c4.78-3.76,8.46-8.9,12.9-13.13
		c1.39-1.32,3.67-2.53,5.49-2.46c13.02,0.55,24.71,5.12,34.82,13.23c13.74,11.02,21.98,25.7,26.23,42.82
		C902.02,872.62,899.25,868.83,896.46,865.06z M934.2,1538.08c-2.09-6-4.01-10.23-5.05-14.67c-3.64-15.6-6.76-31.33-10.52-46.91
		c-1.99-8.22-4.89-16.22-7.76-25.54h47.4C950.37,1479.56,942.61,1507.64,934.2,1538.08z M1069.75,1539.59
		c5.07-19.12,9.96-37.57,14.86-56.03c0.51,0.03,1.02,0.07,1.53,0.1c5.09,18.46,10.18,36.91,15.42,55.93H1069.75z M1242.24,1449.98
		c1.29,0.05,3.44,4.11,3.46,6.34c0.27,22.58,0.17,45.17,0.17,67.76c0,3.58,0,7.16-1.32,11.51c-1.25-1.67-2.88-3.17-3.69-5.03
		c-8.51-19.56-16.8-39.22-25.36-58.76c-3.09-7.06-6.75-13.87-10.79-22.11C1218.45,1449.69,1230.36,1449.49,1242.24,1449.98z"/>
	<path d="M612.2,1550.17c-1.02-8.58-3.47-16.36-10.66-21.73c-4.6-3.43-9.51-6.46-14.04-9.51c4.17-2.96,8.99-5.31,12.37-8.99
		c8.57-9.32,11.29-21.12,7.32-32.7c-2.72-7.91-8.01-16.04-14.42-21.34c-9.51-7.87-21.57-10.51-34.38-9.25
		c-8.29,0.82-16.85-0.75-25.07,0.36c-9.96,1.36-15.17-3.56-20.38-10.79c-6.62-9.16-14.2-17.63-21.37-26.4
		c-1.01,0.55-2.02,1.1-3.02,1.64c2.18,5.69,3.22,12.28,6.81,16.86c5.52,7.03,6.31,14.53,6.31,22.73
		c-0.03,45.51,0.05,91.03,0.04,136.54c0,3.86-0.11,7.41,5.34,7.27c23.94-0.59,47.95-0.21,71.81-1.91
		C600.85,1591.39,614.84,1572.13,612.2,1550.17z M536.52,1472.21c8.71,0.64,17,0.71,25.11,2c7.14,1.13,10.51,6.73,10.62,15.09
		c0.12,9.42-3.14,15.46-10.33,16.76c-8.09,1.47-16.39,1.84-25.4,2.78V1472.21z M576.2,1553.25c-1.01,9.47-6.42,15.24-15.21,16.17
		c-1.35,0.14-2.71,0.17-4.07,0.17c-6.53,0.02-13.07,0.01-20.47,0.01v-38.78c10.11,0.82,20.01,0.88,29.61,2.62
		C573.72,1534.83,577.27,1543.11,576.2,1553.25z"/>
	<path d="M745.66,1586.85c-2.93-8.93-6.08-17.79-8.91-26.76c-4.53-14.32-8.83-28.72-13.29-43.07
		c-6.73-21.66-13.41-43.34-20.43-64.91c-0.71-2.2-3.47-5.07-5.51-5.28c-7.4-0.74-14.91-0.71-22.35-0.44
		c-2.05,0.08-4.71,1.53-5.9,3.21c-2.17,3.04-3.83,6.59-5.01,10.16c-5.78,17.48-11.38,35.02-16.97,52.56
		c-8.6,27.01-17.15,54.04-26.17,82.5c10.49,0,19.7,0.19,28.88-0.2c1.4-0.06,3.41-2.59,3.9-4.33c1.95-6.94,3.14-14.1,5.25-20.99
		c0.55-1.81,3.33-4.11,5.15-4.16c11.98-0.38,23.97-0.38,35.94,0c1.86,0.06,4.54,2.39,5.27,4.28c1.67,4.39,1.97,9.3,3.61,13.71
		c1.52,4.08,3.69,10.81,6.22,11.12c10.39,1.27,21.01,0.53,32.33,0.53C746.86,1591.53,746.41,1589.14,745.66,1586.85z
		 M667.29,1539.61c4.71-19.47,9.28-38.34,13.85-57.22c0.69,0.09,1.38,0.17,2.08,0.25c4.85,18.76,9.71,37.51,14.75,56.97H667.29z"/>
	<polygon points="845.66,1446.89 845.66,1476.66 812.45,1476.66 812.45,1594.44 778.19,1594.44 778.19,1476.87 747.39,1476.87 
		747.39,1446.89 	"/>
	<path d="M755.33,1221.76c-0.51,1.07-4.16,1.84-5.41,1.11c-3.81-2.21-3.73-8.51-0.1-13.11
		C755.33,1212.44,757.99,1216.22,755.33,1221.76z"/>
	<path d="M762.83,1221.04c-5.59-3.9-6.39-7.31-2.87-13.68C765.92,1212.49,766.5,1215.66,762.83,1221.04z"/>
</g>
<path d="M1402.01,1027.61L1402.01,1027.61z"/>
</svg>
