<?xml version="1.0" encoding="utf-8"?>
<!-- Generator: Adobe Illustrator 24.1.2, SVG Export Plug-In . SVG Version: 6.00 Build 0)  -->
<svg version="1.1" id="Garden_Fairy" xmlns="http://www.w3.org/2000/svg" xmlns:xlink="http://www.w3.org/1999/xlink" x="0px"
	 y="0px" viewBox="0 0 720 864" style="enable-background:new 0 0 720 864;" xml:space="preserve">
<g>
	<path id="Fairy" d="M703,326.3c0,0,3.2-3.8,5.8-8.2c4.4-7.4,1.1-22-13.4-27.6c-25.6-7.5-27.5,15.8-30.6,14.2c-3.7-2-5.3-4.1-5,3.7
		c0.2,2,0.4,2.9,1,3.7c-4.7-1-3.2-5.1-4-7.9c-0.7-2.1,4.5-13.7,3.3-15c-2.4-2.5-5.7,13.9-10.9,10.7c-2.9-1.8-5.4-12.1-7-11.5
		c-1.3,0.5,1.1,11.5,1.5,13.3c0.5,2-1.5,14.8,2.5,17.2c0,0-47.2,6-97,116.5c-1.1,4.2,1,7.8,1.4,8.7c8.4,17.5,29.7,32.9,30.3,33.5
		c-0.8-0.8-15.8,9.1-16.6,10.4c-0.7,1.1-1.5,2.6-1.2,3.9c0.1,0.6,2.2,3.5,2.7,3.1c-12.7,15.2-16.8,21.5-22.4,29.3
		c-0.6-0.7-14.8-18.2-24.9-28.2c26.9-70.1,13.6-118,12.1-112.2c-1.4,5.8,1.1,22-8.4,45.2c-7,17.7-21,53.7-21.2,54.1
		c-2.4-1.5-19.6-12.1-27.3-15.6c-0.8-0.4-1.7-4.7-2.1-5.7c-1.9-5.6-17.1-13-18.5-14.6c-0.2-0.3,15.3,2.2,18.3,0.7
		c-5.8-11.4-11.9-22.1-12.7-35.2c-0.9-15.5-5.9-32.9-19-42.4c-8.2-5.9-17.9-9.2-26.7-14c-32.3-21.3-41.8-42.2-44.9-50.4
		c14.8,16.2,45.5,39.9,71.1,50.7c42.2,16,86.8,11.9,86.9,11.6c12.5-2.2-3.7-8.7-8.7-14.9c15.6-10,24.3-10.8,27.5-25.9
		c9.9-5.4,21.7,0.3,31.3-7.2c4.5-3.5,7.6-8.2,11.8-12c2.7-2.4,13.4-4.5,12.6-8.4c-1.1-3.3-13.6-0.9-17.2,0
		c-27.8,5.4-57.7-12.8-58.5-12.7c0.8-0.1,22.1,6.4,38.6-7.3c4.1-3-2.7-3.9-7-4.7c-11.2-1.1-13.4-10.5-13.1-10.7
		c13.4,1.5,23.5,0.3,33.5-4.6c8.1-4,6.9-15.5,5.5-23.1c-1.1-8.7,8.1-13.6,12.3-15.7c6.6-3.4,22.8-17.2,18.6-18
		c-4.2-0.7-19.3,8.5-41.1,9c-47.3,0-61.7-21.2-119.2-10.2c5.1-1.2,15.4-7.1,19.6-11.5c7.5-7.8,7.8-15.7,13.9-19.1
		c6.3-3.7,6.1-12.2,7.1-15.6c1.9-8-5.5-1.9-11.3,0.7c-3.7,1.8-13.6-0.7-17-3.9c-2.3-2.6,0.2-6.6,11-14.4c5.7-4,14-5.3,13-19.7
		c-0.4-11.3,8.9-16.5,9.1-16.6c3.9-2.5,5.7-5.3,2.5-5.5c-10,0.2-17.3,2.2-20.6,6.6c-6.3,8.4-11.6,2.7-11.7,2.8
		c4.7-4.8,3.9-11.9,4.9-13.1c3.7-4.3,10.2-8.7,9.3-28.4c4-6.3,11.1-22.1,9.7-22.9c-4.6-2.9-10.3,12.1-23.8,22.4
		c-9.3,9-18.1-0.1-42.6,31.5c0-3,1.1-6.6,3-9c3.2-5.7,1.6-10.1,1.8-10.4c1.1-2.1-2.1-8.7-0.2-14.5c-1.2-0.8-2.4-0.7-3.6,0.4
		c-1.2,1.1-6.1,7.1-12,3.2c0.3-1.9,4.9-2.9,7.8-15.6c0.2-2.3,1.2-4.2,2.9-5.8c1.3-1.2,2.6-2.4,3.9-3.6c2.9-2.7,3.8-14.5,2.5-14.8
		c-1.2-0.2-2.7,7.3-8.5,8.6c-2.8,0.5-6.3,1.8-8.5,4.6c-6.7,8.8-4,15.6-10.2,15.6c-2.5-0.2-6.1,2-10.1,5.9c-1.1-0.5-0.2-8.4,6.9-17.7
		c2.9-3.2,1.9-8.6-1.2-11.5c-0.7-12.5,4.3-18.2,2.6-27.5c-1-3-3.3,8.1-13.4,18.4c-19.1,21.5-37.8,51.7-43.7,64
		c-12.8,28.4-9.4,52.5-9.4,53.3c-1-0.7-7.3-12.1-33.8-13.7c-22-1.2-33.4,21.6-34,23.2c-0.4,1.1-1.1,1.7-2.1,2.2
		c-4.4,2.2-8,5.3-10.9,9.3c-4.3,5.7-5.5,11.7-5.2,18.8c0.1,3.1,1.5,6.2,1.1,9.2c-0.7,5.9-3,10.9-8.7,13.5c-1.1,0.5-1.2,1.2-0.8,2.2
		c1,3.9,5.2,4.5,6.3,5.4c1.6,1.3,1.6,2.9,0.3,4.4c-1.3,1.5-1.3,2.5,0,3.9c0.4,0.4,0.9,0.8,1.4,1.3c-0.5,2.1-0.2,3.7,2,4.7
		c2.3,1.1,1.4,2.5,0.7,4.4c-0.8,2.2-1.1,4.3,0.4,6.3c3.1,4.5,9,3.3,13.6,2.5c2-0.3,4.3-1.1,5,1.4c1.7,5.8-5.2,9.5-10.1,8.7
		c-3.9-0.6-5.2-3.4-6.7-6.6c-1,0.8-1,1.7-1,2.4c0.1,6.5,4.4,10.3,9.6,10.4c1.8,0,3.5-0.4,5.3-0.6c-6.4,3.5-13.9,2.2-20.7,0.9
		c-8.2-2.1-15.7-2.3-17.8,0.7c11.4-1.7,17.3,5.5,33.5,4.7c-5.3,2.4-16.1,2.4-21.6,4c-5.4,1.6-12,5.8-11.3,12.3
		c0.2,1.7,0.9,3.6,2.3,4.7c2.2,1.5,4-0.3,3.9-0.3c-2.5,0-4.7-2.9-3.2-5.6c1.2-2.3,4.1-3.5,6.4-4.3c6.4-2.2,13.6-2.5,20.2-1.4
		c7.3,1.2,14.3-0.4,14.5-0.4c-3.3,3-17,14.2-21,17.9c-7.5,6.4-34,17.5-40.5,21.2c-2.9,1.7-5.4,1.1-8.3-0.4
		c-16.1-9.1-55.5-26.2-68.6-31.8c-0.8-0.3-1.7-0.8-2.2-1.5c-6.3-9-19.6-10.7-24.1-21.1c-0.3-0.6-0.7-1.1-1.3-2.2
		c-2.3,1.3-0.6,9.4,1,12.5c0.3,0.5,0.5,1,1,2c-1.3-0.3-2.3-0.3-2.9-0.8c-2-1.3-4-2.8-5.9-4.3c-0.4-0.3-0.6-1.2-0.6-1.8
		c0.1-3.7,0.6-12.9-3.4-14.2c-0.8,5.3-1.6,10.5-2.4,15.9c-1.3-0.7-1.4-1.7-1.6-2.7c-0.9-4.8-3.6-10.8-9.2-11.3
		c0.9,2.3,3.8,8.9,3.7,12.2c-3.7-5.7-5.2-6.8-8.1-6c0.1,0.4,4,9.8,4.7,14.2c0.8,4.5,0.7,7.7,2.1,9.1c2.5,2.2,5.1,4.4,7.3,6.9
		c3.1,3.5,22,6.5,27,6.4c3.9-0.1,7.4,0.9,10.6,3c8.5,5.7,39.3,34.1,77.1,45c0.8,0.2,1.7,0.4,2.4,0.2c35.9-2.8,69.4-27.9,70.1-28.3
		c-0.4,1.6-12.1,35.5-15,58.1c-0.4,1.6-1.2,2.6-2.6,3.5c-20.5,12.5-45.5,46.7-64.3,59.3c-14.2,9.9-25.1,12.9-29.6,15.6
		c-5.1,3.1-8.4,8.2-12.7,12.2c-2.9,2.7-6.2,4.3-9.3,6.5c1.2,2.5,2.3,2.2,3.5,2.5c-10.4,6.8-13.6,8.9-22.9,17.2
		c-0.4-0.5-49.4-47.6-74.6-56.1c-10.1-3.1-24,3.3-27.9,11.8c-12.6,25.6-15.9,68.5-16.8,89c-0.6,13.1-2.5,78.9,11.8,89.3
		c11.4,6.5,35.1-1.5,35.9-1.8C70.6,649.9,88.3,676,87.6,699c-0.9-0.7-6.7-4.9-9-6.2c-5.3-3-11.6,0-15.3,4.2
		c-3.8,4.4-14.3,42-8.1,63.2c3.8,8,12.2,8.7,20.1,8.4c1.5-0.1,6-1.1,7.2,0.1c3.4,2.5,5.3,4.9,6.1,8.5c-0.3,8.9,0.2,7.8,3.9,5.3
		c0.3,0.6,17.4,34.7,16.1,33.8c-4.4-3.2-8-7.2-11.7-11.3c-3.8-4.2-7.3-8.7-11.5-12.5c-11.1-10.2-22.9-11.8-23.7-11.5
		c-0.8,0.3-0.9,1.1-0.2,1.7c19,6,50.7,61.7,57.1,70.6c1.6,2.2,8.9,9.7,10.9,9.7c17.8,0,424.7-0.3,460.9-0.1
		c26.7-33.4,61.3-49.3,61.9-51.8c0.6-2.5-12.6-1.1-34.1,12.3c6.5-3.9,32.2-53.9,52.1-70.2c8.6-8.1,16.7-9.5,17.4-10.6
		c1.4-1.6,0.4-2.2-0.9-2.1c-28.5,7.2-48.5,35.9-57.5,45.9c-20.5,21.4-45.4,34.6-44.7,34.7c39.8-50.5,45.5-93.2,44.4-93.3
		c0,0,7.5,1.4,7.8,0.6c0.6-1.7-2.4-5.5-3.7-8c-3.3-5.7-3.5-9.7-3.5-9.7c16.2-5.2,44.2-24.7,39.4-37.2c-4.3-16.3-13.5-32.9-13.8-33.6
		c4.7-4.9,21.7-54.9,19.4-57.1s-11.5,27.9-27.6,42.5c-8.8-14.6-17.8-29.1-28.3-42.8c18.8-40.8,15.2-61.9,14.6-62.8
		c-1.1-1.5-8.6,37.3-25.8,53.1c-12.4-6.9-35.8-4.9-44.2,14.9c-5,11.8-8.1,41.9-7.6,37.5c0.4-3.2-24.5,30.7-33.4,68.2
		c-0.1-0.6-3.7-34.2,13-84.1c28-15.7,32.3-31.9,33.3-41.2c0-5.7-1.1-9.5-6.9-20.2c7.4-13.4,13.8-24.6,26.8-37.6
		c1.2,0.7,6.6,3.5,8,2.5c1.2-0.9,7.7-18.3,8.3-18c0.5,0.3,38.2,18.6,52.3,16c1.3-0.2,7.8-0.8,10.3-5
		c65.3-145.1,35.6-171.8,35.5-172.3c0.2,0.8,7.4,0.5,6.7-4.7C705.6,329.3,704.5,328.3,703,326.3z M35.1,550.8
		c-3.6,0-6.2-2.5-6.2-6.1c0-3.7,2.5-6.2,6.1-6.2c3.6,0,6.2,2.5,6.3,6.1C41.3,548.1,38.7,550.8,35.1,550.8z M41,504.8
		c-3.3,0.2-6.6-3-6.1-6.2c0-3.7,2.5-6.1,6.1-6.3c3-0.2,6.3,2.8,6.3,6.2C47.2,502,44.6,504.6,41,504.8z M75.2,736.4
		c-3.5,0-6.2-2.8-6.2-6.3c0-3.5,2.8-6.2,6.3-6.1c3.5,0,6.3,2.8,6.2,6.3C81.5,733.8,78.7,736.4,75.2,736.4z M455.9,706.2
		c3.5,0,6.2,2.8,6.1,6.3c-0.1,3.8-3.4,6.4-6.3,6c-3.6,0-6.2-2.6-6.1-6.2C449.7,708.8,452.4,706.2,455.9,706.2z M437.4,603.6
		c2.8,0.1,4.8,2.2,4.8,5.1c0,2.8-2.2,4.9-5,4.9c-2.8,0-4.9-2.2-4.9-5C432.3,605.6,434.5,603.5,437.4,603.6z M368.9,696.9
		c-5.3,4.9-14.8,17.4-14.8,17.4s4.2-20.9,6.7-26.3C364.8,692.1,364.5,693.2,368.9,696.9z M355.6,551.9c11,0,10.9,17,0,17
		C344.7,568.9,344.7,551.9,355.6,551.9z M357.6,264.4c0.8-3.1,29,0.6,23.4,10.3S356.7,267.4,357.6,264.4z M397.5,180.2
		c0.6-1.1,11.1-10.4,18.5,0.4c12.5,15.1-22.3,58.4-31.5,58.5c0,0,0,0,0,0C390.1,229.8,416,189.4,397.5,180.2z M409.4,225.8
		c3.4,0.1,6.2,3,6.2,6.4c0,3.5-2.8,6.3-6.3,6.3c-3.5,0-6.5-2.9-6.4-6.4C402.9,228.7,405.9,225.7,409.4,225.8z M386.4,218
		c-4.5,10-19.2,33.7-22.5,34.5c0-0.1,5.4-3.6-0.1-0.2c0.7-5.3,10.3-24.6,16-38.7c3.7-9.7,8-26.2,13.8-22.6S390.1,211.7,386.4,218z
		 M389.2,276.2c3.3-7.1-2.9-12.6-7.3-15.7c8.1-1.1,31,12.6,24.3,26.2c-6.7,13.7-27.9,5.9-33.8-1.7
		C378.8,285,385.9,283.3,389.2,276.2z M400.3,316.5c-1.9,0-3.2-1.4-3.2-3.3c0-2.1,1.1-3.2,3.2-3.2c2.1,0,3.3,1.1,3.3,3.1
		C403.7,315.2,402.4,316.5,400.3,316.5z M416.6,328.8c-3.5-0.1-6.2-2.8-6.2-6.3c0-3.6,2.9-6.4,6.4-6.4c3.5,0.1,6.2,2.9,6.2,6.3
		C423,326,420.1,328.8,416.6,328.8z M432.4,300.4c-7,12-34.5,6.1-43.6-1.3c3.8-0.6,19.1,0.6,24-11.4c4.9-12-11.3-25.8-11.3-25.8
		s8.4,2.3,12.3,4.1C425.3,271.3,440.3,286.8,432.4,300.4z M455,293.9c-3.5,0.1-6.4-2.8-6.5-6.3c0-3.5,2.8-6.4,6.3-6.4
		c3.5,0,6.4,2.9,6.4,6.4C461.2,291,458.4,293.8,455,293.9z M467.4,339.2c-3,0-5.5-2.5-5.5-5.5c0-3.2,2.4-5.7,5.6-5.7
		c3,0,5.5,2.4,5.5,5.5C473,336.7,470.5,339.2,467.4,339.2z M482.5,316.9c-11,0-10.9-17,0-17C493.5,299.9,493.5,316.9,482.5,316.9z
		 M517.2,322.9c-2.7,0-4.7-1.9-4.7-4.6c0-2.6,1.9-4.6,4.6-4.7c2.6,0,4.6,1.9,4.7,4.6C521.8,320.9,519.9,322.9,517.2,322.9z
		 M554.3,306.9c0,0-15.4,0.8-31-5.7c-17.7-6.5-34-16.4-50.4-25.5c-30-18-57.1-22.7-57.1-22.7s24.7,0.2,37,3.2
		c18.5,4.4,34.6,13.9,50.4,24C527.2,297.3,554.3,306.9,554.3,306.9z M475.7,244.4c1,3.3,0,7.2-2.5,9.6c-2.3,2.2-9.7,1-11.6-1.5
		c8.2-10.7-16.2-19.4-22.9-17.1c6-5,14.7-6,19.4-5C465.1,231.9,473.3,236.6,475.7,244.4z M463.7,219.6c0-2.8,2.3-5,5.1-5
		c2.8,0,5,2.3,5,5.1c0,2.8-2.3,5.1-5.1,5C466,224.7,463.7,222.4,463.7,219.6z M453.8,250.5c-8.1-2-17.1-3.1-30.9-3.2
		c3.5-4.9,11.1-6.4,16.7-5.7C445.7,242.3,451.9,244.2,453.8,250.5z M436.8,160.6c-2.6,0.1-4.7-1.9-4.7-4.5c-0.1-2.6,1.9-4.7,4.5-4.8
		c2.5-0.1,4.6,1.9,4.7,4.5C441.6,158.2,439.5,160.5,436.8,160.6z M436,198.2c0.5,3.3-3,6.8-6.7,6.9c-4.1,0.1-7.1-3.7-7-6.9
		c0.2-4,3-6.9,6.9-6.9C433.2,191.4,436,194.3,436,198.2z M507.5,252c-11,0-10.9-17,0-17C518.5,235,518.5,252,507.5,252z M519,263.9
		c3.3,0,5.6,2.4,5.6,5.7c0,3.3-2.4,5.6-5.7,5.5c-3.1-0.1-5.4-2.5-5.4-5.7C513.5,266.2,515.9,263.9,519,263.9z M547,244.7
		c-2.7,0-4.7-1.8-4.7-4.5c0-2.6,1.9-4.7,4.5-4.7c2.6,0,4.7,1.9,4.7,4.5C551.6,242.7,549.7,244.7,547,244.7z M472.5,205
		c16.7-2.2,34.3,1.3,50.2,6.4c20.8,6.7,50.2,6.7,50.2,6.7s-6.2,4.2-26.3,4c-16.8-0.2-33-6-49.3-9.7c-22.4-5.1-46.7,1.2-49.9,0.5
		c0,0,0-0.1,0-0.1S456.4,207.1,472.5,205z M467.3,131.2c0,3.3-2.4,5.7-5.6,5.6c-3.1,0-5.5-2.4-5.5-5.5c0-3.2,2.5-5.7,5.6-5.7
		C464.9,125.7,467.3,128.1,467.3,131.2z M452.9,93.5c3.1,0,5.7,2.5,5.7,5.6c0,3.2-2.5,5.6-5.6,5.6c-3,0-5.8-2.6-5.4-5.7
		C447.5,95.9,449.9,93.6,452.9,93.5z M411.7,84.7c2.6,0,4.5,2,4.5,4.6c0,2.6-2,4.6-4.6,4.6c-2.6,0-4.7-2-4.7-4.6
		C406.9,86.7,408.9,84.6,411.7,84.7z M398.9,141.3c16.8-28.5,38.2-48,50.8-58.9c-2.8,5.8-16.8,26.6-44.7,68.1
		c-24.6,34.1-45.2,86-49,89.8C355.7,237.2,374.1,178.4,398.9,141.3z M361.8,140.1c4.8-0.6,4.2,17.8,4.2,21c0,4.1-2.4,25.3-2.4,25.3
		s-3.6-21.5-3.8-25C359.7,155.1,357,140.8,361.8,140.1z M357,129.3c0.3-2.7,4.8-7.3,10.2-7.1c5.4,0.2,22,13,4.7,43.9
		C373.4,152.7,372.4,125.8,357,129.3z M393.6,121.1c0.5,3.7-3.4,6.9-6.7,6.9c-3.3,0-6.9-2.8-6.9-6.7c0-4,3-7,6.9-7
		C390.8,114.2,394.1,117.7,393.6,121.1z M383.8,48.2c2.6,0.1,4.6,2.2,4.5,4.8c-0.1,2.5-2.3,4.6-4.7,4.6c-2.6-0.1-4.7-2.3-4.6-4.9
		C379.1,50.1,381.2,48.1,383.8,48.2z M376.2,99.7c0,3.9-3,6.8-6.9,6.7c-3.8,0-6.8-3-6.8-6.8c0-4,3.5-6.9,7-6.9
		C372.7,92.8,376.5,95.9,376.2,99.7z M372.3,53.6c-14,34.6-24.2,69.4-22.9,97.1C330.4,119.8,364,62.2,372.3,53.6z M210.9,576.7
		c12.2,0,12.2,18.9,0,18.9C198.7,595.6,198.8,576.7,210.9,576.7z M132,537.6c2.6,0,4.6,2,4.6,4.6c0,2.7-1.9,4.6-4.5,4.6
		c-2.8,0-4.6-1.8-4.7-4.4C127.3,539.6,129.3,537.6,132,537.6z M83.6,486.4c3.5,0.1,6.3,2.9,6.1,6.3c-0.2,4-3.5,6.4-6.4,6
		c-3.5,0-6.2-2.8-6.2-6.3C77.4,489,80.2,486.4,83.6,486.4z M115.3,787.9c-0.7-0.4-4.5-4.2-7.6-11.6c1.1-0.3,2.4-1.4,3.1-3.1
		c-2.2-1.3-3.6-2.1-4.3-2.9c-4.5-5.6-2.7-8.4-2.7-8.4c4.2-1.6,13.2-7.2,13.9-7.3C117.1,760.3,114.9,782,115.3,787.9z M144.8,811
		c0,0-12.2-41.5-13.9-57.5c-4.5-0.8-1.3,26.8-0.8,31.7c1,8.9,3.3,17,5.4,25.7c-19.4-15.2-10.6-58.7-9.9-80.6
		c0.4-13.4-4.5-40.1-12.4-42.8c4,13.4,6.5,39.1,5.1,46.4c-3.4-6-9.8-14.4-17.8-22.5c4.4-43.8-29.9-90.5-36.7-99.4
		c6.1-2.2,9.9-3.3,14.5-6.2c6,13.8,9.6,27,11.7,41.4c3.3,0.5,6.6-1.9,9.6-5.7C154.4,740.4,144.8,811,144.8,811z M168.3,680.6
		c0-3.5,2.6-6.2,6.2-6.3c3.6,0,6.2,2.5,6.2,6.1c0.4,3.3-2.6,6.3-6.1,6.3C171.1,686.8,168.3,684.1,168.3,680.6z M180.8,804.4
		c0,0-3.2-28.3-7.3-52.6c4.3,1.7,13.3-0.2,13,0.4c-1.7,3.9-5.5,9.5-5.6,12.3c-0.1,3.4,2.4-0.1,4.3,1.9
		C189.2,770.3,180.8,804.4,180.8,804.4z M183.9,715.2c-3.5-0.1-6.1-2.8-6.1-6.3c0-3.5,2.7-6.2,6.2-6.2c3.5,0,6.2,2.7,6.2,6.2
		C190.3,712.5,187.5,715.2,183.9,715.2z M208.6,689.1c-3.5-0.1-6-2.8-6-6.4c0-3.6,2.6-6,6.3-6c3.6,0,6.1,2.7,6,6.3
		C214.9,686.6,212.2,689.2,208.6,689.1z M216.7,770c0,0-2-5.2-2.6-8.9c2.4-0.4,5.7,0.1,6.3-1.5c-3.3-4.3-7-6.4-7.8-10.6
		c9-1.5,24-6.5,24-6.5C226.8,762.4,216.7,770,216.7,770z M258,677.6c3-0.1,7.4-1.5,14.9-3c0.9,1.6-21.6,42.8-21.6,42.8
		s-7-12.2-9.3-19.2c-2-6.1,0.9-16,2.1-22.2c3.2-17.7,17.3-44.9,13.9-43.2c-13,11.2-19.4,31.1-24.8,46.6
		c-12.4-19.9-33.5-57.3-55.7-57.8c-22.4-0.1-25.4,16.9-29.9,35.2c-6.3-13.8-10.8-19.8-17.8-31c4.4,0.3,9.7-2.2,14.5-4.1
		c-1.7-6.5-14.8-9.8-17.1-17.1c10,4,89.3,20.8,152.3,25.5c-0.2,10.6-10.9,31.5-24.2,40.7C249.1,674.5,251.4,677.7,258,677.6z
		 M258.1,572.5c0-2.4,2-4.3,4.4-4.2c2.5,0,4.2,1.8,4.2,4.4c0,2.5-1.9,4.3-4.4,4.2C260,576.9,258.1,574.9,258.1,572.5z M310.8,399.7
		c-4.1,1-3,2.8-1.8,6.5c-9.7,3.7-18.2,7.1-35.9,16.5c-5.9,3.1-11,6.7-17.8,7.4c-5.6,0.6-20.9,1.5-20.9,1.5s43.9-29.4,54.7-38.9
		c9.2-7.1,8.4-21.6,14.8-35.9c3.3,2.3,6.1,4.7,10.2,5.2c4.4,0.5,8.2-2.8,11.8-0.7c3.5,2.1,6.3,5.2,9.9,7.1c3.8,2.1,7.8,3.8,11.6,5.8
		c3.3,1.7,7.7,2.8,6.9,7.2c-4.1,14-22.1,15.9-30.6,16.9C319.6,399,314.9,398.8,310.8,399.7z M358.2,739.3c2.6,4.3,5,9.7,6.5,14.5
		c0.7,2.2,1.1,3,0.8,3.7c-0.2,0.6-23.9,27.7-23.9,27.7S342.1,760,358.2,739.3z M371.4,786.5c-5.4,4.1-18.2,13.3-18.2,13.3
		s10.2-27.2,17.2-32.3c2.1,2.8,3.2,7.4,4.3,10.8C376.1,783.2,375.4,783.3,371.4,786.5z M384.7,773.4l-6.6-15.1c0,0,6-9.3,5.9-9.3
		c-4.1-1.4-9.8,2.7-9.8,2.7S362.8,735,364,730.3c1.1-4.3,32.1-41.9,52.2-52.6c-1.8,13.8,2,19.8,1.1,21.2c-0.9,1.4-20.5,17.5-28.6,25
		c-8.2,7.6-13.8,14.3-3.5,22.6c2.7,2.2,10.8,5.8,12.2,8.9c0.7,4.4-4.5,3.6-8.1,7.7C394,768.9,384.7,773.4,384.7,773.4z M420.8,797.6
		c-3.2,9.7-9.2,20-17.5,26.2c-0.1-0.1-0.1-0.2-0.1-0.4c-3.4-9.1,3-25.1,6.4-33.3c1.6-3.9,3.4-8.3,5.5-11.8c1.6-2.7,1.7,1.8,3,2.6
		c1.5,1,2.4-6.8,2-11.3C428.8,771.4,422.8,791.7,420.8,797.6z M425,724.5c-3.5,0-6.2-2.8-6.2-6.3c0.1-3.4,2.9-6.1,6.4-6.1
		c3.5,0,6.3,2.9,6.2,6.3C431.2,722.5,427.7,724.9,425,724.5z M425.8,692c0,0-3.5-12.1,0.4-25.8c8.1-7.5,19.5-24.3,16.2-22
		c-7,5.3-11.9,9.5-16.8,11.9c-0.2-2.7,0.5-6.6-0.6-8.8c-2.9,4.1-5,10-7,15.6c0,0-6.1,4-10,6c-8.5,4.5-18.6,12.2-27.7,18.4
		c-4.4-5.2-1.5-36.8,5.2-47.3c9.6,0.4,35.7,2.6,62.6-0.9c-4.5,18.8-7.6,31.3-9.2,41.6C433.8,685.5,425.8,692,425.8,692z
		 M445.1,748.2c-3.5-0.1-6.2-2.8-6.2-6.2c0-3.3,3-6.2,6.3-6.2c3.1,0,6.5,3,6.1,6.3C451.7,745.2,448.6,748.3,445.1,748.2z
		 M466.8,767.3c-4,5.2-14.9,17.1-14.9,17.1s11.4-24.8,14.8-36.5c2.4,2.3,3.1,5.2,3.3,10.1C470.4,761.4,469.5,763.9,466.8,767.3z
		 M477,732.6c0,0-2.6-3.5-3.1-4.3c3.6-18.5,9.7-56.1,5.6-59.6c-4.2-3.6-7.4-2.8-12.3-0.8c1.4-13.4,1.9-19.3,4.7-29.3
		c1.6-5.5,3.7-7.1,9-9.1c4.2-1.6,8.5-1.4,15.9-5.2C480.9,664.5,477,732.6,477,732.6z M643.5,660c2.5,0,4.3,1.8,4.3,4.3
		c0,2.5-1.8,4.3-4.2,4.4c-2.4,0-4.3-1.8-4.4-4.3C639.2,661.9,641.1,660,643.5,660z M602.1,717.2c0.2,6.7-9,11.6-8.3,13
		c0.7,1.4,9.5-0.8,9.6-0.8c-1.5,15.3-17.2,38.5-24.6,43.2c-0.9-12.4,8.3-36.9,15.9-53.9C594.7,718.8,597.6,718.7,602.1,717.2z
		 M585.9,662.6c3.6,0,6.2,2.6,6.2,6.2c0,3.5-2.7,6.2-6.2,6.2c-3.5,0-6.2-2.7-6.2-6.2C579.6,665,582.9,662.2,585.9,662.6z
		 M556.8,666.1c1.2,6.9,2.2,11.9,1.5,18.9c0,0.3-15.9,12-17.3,12.6C547.1,685.8,550.9,674.5,556.8,666.1z M558.3,696.5
		c1,5.7-0.1,10.5,3.6,15.4c3.3,4.4,10.4,4.8,15.4,5.9c-9.9,19.2-20.4,54.3-20.4,54.3c-5.3-15.3,3.6-63-1.4-55.9
		c-16.9,32.3-11.4,87.9-11.4,87.9s-7.6-18.4-9.4-26.1C526.7,735.2,551.8,704.3,558.3,696.5z M509.1,523.2c2.1,0.1,3.5,1.6,3.5,3.7
		c0,2.1-1.5,3.7-3.5,3.7c-2.1,0-3.8-1.6-3.8-3.7C505.4,524.7,507,523.1,509.1,523.2z M511.6,587.4c-11,0-10.9-17,0-17
		C522.5,570.4,522.5,587.4,511.6,587.4z M624.7,483.7c-6.3,0-6.3-9.8,0-9.8C631.1,473.9,631.1,483.7,624.7,483.7z M638.3,464.9
		c-7.7,0-7.7-11.9,0-11.9C645.9,453,645.9,464.9,638.3,464.9z M653.6,480.1c-6.3,0-6.3-9.8,0-9.8
		C659.9,470.3,659.9,480.1,653.6,480.1z"/>
	<path id="Moth" d="M116.8,141.9C116.8,141.9,116.8,141.9,116.8,141.9c5.2,5.9,0.5,15.9-2.2,22c-4.2,9.7-10.4,18.8-18.3,25.8
		c-4.3,3.9-8.8,5.5-14.3,7c0.5,2.9,1.5,4.4,3.5,11.3c4.1,14.3-0.3,25.6-0.5,30.3c0.1,6-4.7,0.5-13.5-11.7
		C66,216.4,67,207.1,67.1,197c-2.1,2.9-5.8,20.1-11.2,17.2s5-16.4,5.3-19.4c-10,7.3-25.7,22.1-48.4,20.2c-7-1.5,0.9-5.4,3.8-7.1
		c5.3-3.1,7.8-7.3,11-12.4c3.4-5.4,6.9-7.9,12.5-10.6c3-1.4,4.9-1.8,3.3-5.1c-1.2-2.6-2.9-5-4.2-7.7c-2.8-5.7-4.1-12.2-4.6-18.5
		c-0.6-7.4,0.7-14.3,2.4-21.5c1.2-5.1,1.3-13.1,5.5-16.9c5.8,4.4,7.9,13.6,10.6,20c4.6,10.8,16,40.3,16,40.3s3.2-3.3,1.9-12.1
		c-0.1-5.3,1.8-14.7,5.8-14.3c5.4,0.6-3.9,21.6-1.9,22.5c1.9,0.9,11.3-20.1,13.9-18.8c3.5,1.9-1.7,10.6-3.5,13.6
		c-2.3,3.6-7.4,5-8.5,11.2c0.1,0.4,24-20.6,28.3-25.2C108.3,148.7,111.8,143.9,116.8,141.9z"/>
	<path id="Moon__x26__Stars" d="M524.2,48.9c3.5-19.4,21.2-43.5,51.9-47.3c26.8-3.4,52.9,11.5,63.7,36.7
		c10.9,25.6,3.3,55.3-18.5,72.4c-22,17.3-50.3,15.6-67.1,5.2c26.5,6.5,49.7-9.8,56.5-31.3c6.8-21.4-2.4-44.7-22-55.4
		c-11.6-6.3-23.8-7.6-36.4-3.7C539.7,29.3,530.6,37.4,524.2,48.9z M522,126.7c-0.5,1.1-1.1,1.7-2.4,1.8c-1.8,0.1-10.1,1.5-12.8,1.9
		c0.8,0.8,6.7,6.8,9.2,9.1c0.9,0.8,1.1,1.7,0.9,2.9c-0.6,3-1.9,11.3-2.1,12.6c1-0.4,8.1-4,10.9-5.7c1.3-0.8,2.4-0.9,3.8-0.1
		c2.9,1.6,10.1,5.3,11,5.7c-0.1-0.9-1.3-9.1-2-12.5c-0.3-1.3,0-2.1,1-3c2.7-2.5,8.5-8.5,8.9-9.1c-4.3-0.6-8.3-1.3-12.3-1.8
		c-1.4-0.2-2.2-0.7-2.8-2c-1.7-3.7-3.6-7.3-5.6-11.4C527.3,116.2,523.5,123.5,522,126.7z M297.7,40.5c-1.5-0.2-2.3-0.8-2.9-2.1
		c-1.6-3.4-5.8-11.5-6.4-12.4c-0.4,0.7-4.5,8.5-6.2,12.1c-0.6,0.9-1.3,1.5-2.2,2c-3.5,1.8-13.7,2.5-14.7,2.7c0.8,0.8,6.5,6.7,9,8.9
		c1.7,1.5,2.4,3,1.8,5.3c-0.8,3.5-1.9,11.9-1.9,12.9c4.2-2.2,8.2-4.2,12-6.3c1.5-0.8,2.7-0.8,4.2,0c3.3,1.9,11.3,5.7,12.4,6.1
		c-0.7-4.4-1.3-8.3-2.1-12.2c-0.5-2.4-0.1-4.2,1.9-6c3-2.7,5.7-5.8,8.9-9.1C306.6,41.8,302.1,41,297.7,40.5z M177.8,169.6
		c-0.6,1.2-1.5,1.7-2.7,1.9c-2.9,0.4-9.4,1.4-10.8,1.7c0.8,0.8,5.7,5.8,7.8,7.7c1,0.9,1.3,1.8,1,3.2c-0.5,2.8-1.6,9.4-1.8,11
		c2.1-1.1,8.2-4.2,9.9-5.2c0.9-0.5,1.8-0.5,2.9,0.1c3.4,1.7,6.6,3.2,9.7,4.9c0.2-0.4-0.8-6.8-1.3-9.5c-0.6-3.9-0.7-3,2.2-5.7
		c2-2,4.3-4.1,6.6-6.4c-1.1-0.3-7.3-1.2-10.2-1.7c-2-0.3-2.8-0.9-3.7-2.7c-1.6-3.2-2.9-5.9-4.7-9.4
		C180.9,163.3,179.3,166.4,177.8,169.6z"/>
</g>
</svg>
