<?xml version="1.0" encoding="utf-8"?>
<!-- Generator: Adobe Illustrator 25.4.1, SVG Export Plug-In . SVG Version: 6.00 Build 0)  -->
<svg version="1.1" id="Layer_1" xmlns="http://www.w3.org/2000/svg" xmlns:xlink="http://www.w3.org/1999/xlink" x="0px" y="0px"
	 viewBox="0 0 2310.54 1882.68" style="enable-background:new 0 0 2310.54 1882.68;" xml:space="preserve">
<style type="text/css">
	.st0{fill:#00B2AF;stroke:#000000;stroke-miterlimit:10;}
	.st1{fill:#FFFFFF;stroke:#000000;stroke-miterlimit:10;}
	.st2{fill:none;stroke:#E31E26;stroke-miterlimit:10;}
	.st3{fill:#F9E548;stroke:#000000;stroke-miterlimit:10;}
	.st4{fill:#FBA919;stroke:#000000;stroke-miterlimit:10;}
</style>
<g id="_x35_.25x7.75_dots">
	<path class="st0" d="M1563.94,419.45v556.21l-36,14.22l-195.92-144.55c-99.43-73.36-99.5-221.99-0.15-295.46l196.08-144.99
		L1563.94,419.45z"/>
	<path class="st0" d="M1979.83,1039.96l-91.59,272.36c-34.03,101.2-176.24,101.2-210.27,0l-91.59-272.36l14.62-36h364.6
		L1979.83,1039.96z"/>
	<path class="st0" d="M1585.72,402.87v585h396v-585H1585.72z"/>
	<path class="st0" d="M1890.81,76.4c-34.03-101.2-176.24-101.2-210.27,0l-91.59,272.36v36h393.46v-36L1890.81,76.4z M1932.3,284.77
		c2.59,0,4.77,2.02,4.96,4.65c0.19,2.76-1.88,5.15-4.61,5.34s-5.11-1.88-5.31-4.64c-0.19-2.75,1.87-5.14,4.61-5.34
		C1932.08,284.77,1932.2,284.77,1932.3,284.77z M1934.91,310.08c-0.74,2.66-3.48,4.22-6.12,3.48s-4.18-3.5-3.45-6.16
		c0.61-2.21,2.6-3.66,4.78-3.66c0.44,0,0.88,0.06,1.33,0.18C1934.09,304.67,1935.64,307.42,1934.91,310.08z M1924.02,267.41
		c0.82-0.51,1.72-0.75,2.61-0.75c1.66,0,3.29,0.84,4.22,2.37c1.45,2.34,0.73,5.43-1.6,6.88c-2.34,1.46-5.4,0.73-6.85-1.62
		C1920.97,271.95,1921.68,268.87,1924.02,267.41z M1919.56,323.01c0.92-0.93,2.21-1.47,3.52-1.47c1.3,0,2.58,0.54,3.51,1.47
		c0.23,0.23,0.44,0.48,0.62,0.76c0.18,0.27,0.34,0.56,0.46,0.86c0.13,0.3,0.22,0.62,0.29,0.93c0.06,0.33,0.09,0.66,0.09,0.98
		c0,1.32-0.53,2.61-1.45,3.54c-0.23,0.23-0.49,0.44-0.75,0.62c-0.27,0.18-0.56,0.33-0.85,0.46c-0.3,0.12-0.62,0.22-0.93,0.28
		c-0.64,0.13-1.3,0.13-1.94,0c-0.32-0.06-0.64-0.16-0.93-0.28c-0.3-0.13-0.59-0.28-0.85-0.46c-0.27-0.18-0.53-0.39-0.76-0.62
		c-0.92-0.93-1.45-2.22-1.45-3.54c0-0.32,0.03-0.65,0.09-0.98c0.07-0.31,0.16-0.63,0.29-0.93c0.12-0.3,0.28-0.59,0.46-0.86
		C1919.12,323.49,1919.33,323.24,1919.56,323.01z M1910.1,254.25c0.98-1.11,2.34-1.67,3.71-1.67c1.18,0,2.36,0.42,3.31,1.28
		c2.05,1.84,2.23,5,0.39,7.06c-1.83,2.05-4.97,2.23-7.02,0.39C1908.45,259.46,1908.27,256.3,1910.1,254.25z M1904.77,240.82
		C1904.77,240.83,1904.77,240.83,1904.77,240.82c1.58,2.26,1.04,5.38-1.19,6.97c-2.25,1.59-5.35,1.05-6.92-1.21
		c-1.58-2.25-1.04-5.37,1.2-6.96c0.86-0.62,1.87-0.92,2.85-0.92C1902.27,238.7,1903.81,239.44,1904.77,240.82z M1894.1,231.18
		c-2.66,0.67-5.36-0.97-6.02-3.65c-0.67-2.68,0.96-5.39,3.63-6.05c0.4-0.1,0.8-0.15,1.2-0.15c2.22,0,4.25,1.52,4.81,3.79
		C1898.38,227.8,1896.76,230.52,1894.1,231.18z M1889.63,187.35c0.06-0.32,0.16-0.64,0.28-0.94c0.13-0.3,0.28-0.59,0.46-0.86
		c0.19-0.28,0.4-0.53,0.63-0.76c0.91-0.93,2.2-1.47,3.51-1.47c0.33,0,0.66,0.04,0.97,0.1c0.32,0.07,0.63,0.16,0.92,0.29
		c0.3,0.12,0.59,0.28,0.86,0.46c0.27,0.18,0.52,0.39,0.75,0.62s0.44,0.48,0.62,0.76c0.18,0.27,0.33,0.56,0.46,0.86
		c0.12,0.3,0.22,0.62,0.28,0.94c0.07,0.32,0.1,0.65,0.1,0.97c0,0.33-0.03,0.66-0.1,0.98c-0.06,0.32-0.16,0.63-0.28,0.94
		c-0.13,0.3-0.28,0.59-0.46,0.86c-0.18,0.27-0.39,0.53-0.62,0.76c-0.24,0.23-0.49,0.44-0.75,0.62c-0.28,0.18-0.57,0.34-0.86,0.46
		c-0.3,0.13-0.61,0.22-0.92,0.29c-1.62,0.33-3.33-0.21-4.49-1.37c-0.23-0.23-0.44-0.49-0.62-0.76c-0.18-0.27-0.33-0.56-0.46-0.86
		c-0.12-0.31-0.22-0.62-0.28-0.94c-0.07-0.32-0.1-0.65-0.1-0.98C1889.53,188,1889.56,187.67,1889.63,187.35z M1891.28,202.28
		c0.1,0,0.2,0,0.29,0.01c2.74,0.16,4.83,2.52,4.68,5.28c-0.16,2.75-2.51,4.86-5.25,4.7c-2.74-0.15-4.84-2.52-4.68-5.28
		C1886.48,204.33,1888.67,202.28,1891.28,202.28z M1876.9,171.97c0.95-0.86,2.14-1.28,3.33-1.28c1.35,0,2.71,0.56,3.69,1.65
		c1.84,2.06,1.68,5.22-0.37,7.06c-2.04,1.85-5.18,1.69-7.02-0.36C1874.7,176.98,1874.87,173.82,1876.9,171.97z M1874.28,157.76
		L1874.28,157.76c1.13,2.52,0.02,5.48-2.47,6.61c-2.5,1.14-5.45,0.02-6.58-2.49c-1.12-2.52-0.02-5.48,2.48-6.62
		c0.67-0.3,1.36-0.44,2.04-0.44C1871.65,154.82,1873.45,155.91,1874.28,157.76z M1864.9,136.37c0.1,0,0.2-0.01,0.3-0.01
		c2.6,0,4.79,2.05,4.95,4.71c0.16,2.76-1.93,5.12-4.67,5.28c-2.73,0.17-5.09-1.94-5.25-4.69
		C1860.07,138.9,1862.16,136.54,1864.9,136.37z M1861.82,121.55c0.4-2.46,2.5-4.21,4.9-4.21c0.27,0,0.53,0.02,0.79,0.07
		c2.71,0.44,4.56,3,4.12,5.73c-0.44,2.73-2.99,4.58-5.69,4.14C1863.23,126.84,1861.38,124.28,1861.82,121.55z M1868.03,98.33
		c2.5,0,4.65,1.89,4.93,4.46c0.3,2.74-1.67,5.21-4.4,5.51c-2.72,0.3-5.18-1.69-5.47-4.43c-0.3-2.75,1.68-5.22,4.4-5.51
		C1867.67,98.34,1867.85,98.33,1868.03,98.33z M1858.68,81.44c0.85-0.58,1.82-0.86,2.77-0.86c1.6,0,3.16,0.77,4.12,2.2
		c1.54,2.29,0.94,5.39-1.33,6.94c-2.28,1.55-5.36,0.95-6.89-1.34C1855.81,86.09,1856.4,82.98,1858.68,81.44z M1844,69.27
		c0.97-1.37,2.5-2.1,4.05-2.1c1,0,2.01,0.3,2.88,0.92c2.24,1.61,2.75,4.73,1.16,6.98c-1.59,2.25-4.69,2.77-6.92,1.17
		C1842.94,74.64,1842.42,71.52,1844,69.27z M1826.58,61.96c0.06-0.32,0.16-0.63,0.28-0.93c0.13-0.31,0.28-0.6,0.46-0.87
		c0.18-0.27,0.39-0.53,0.63-0.76c0.22-0.23,0.48-0.44,0.75-0.62s0.57-0.33,0.86-0.46c0.3-0.12,0.61-0.22,0.92-0.28
		c0.32-0.07,0.65-0.1,0.97-0.1s0.65,0.03,0.97,0.1c0.32,0.06,0.63,0.16,0.92,0.28c0.3,0.13,0.59,0.28,0.85,0.46
		c0.28,0.18,0.53,0.39,0.76,0.62s0.44,0.49,0.63,0.76c0.18,0.27,0.33,0.56,0.46,0.87c0.12,0.3,0.22,0.61,0.28,0.93
		c0.07,0.32,0.1,0.65,0.1,0.98c0,0.32-0.03,0.65-0.1,0.97c-0.06,0.32-0.16,0.64-0.28,0.94c-0.13,0.3-0.28,0.59-0.46,0.86
		c-0.19,0.28-0.39,0.53-0.62,0.76s-0.49,0.44-0.75,0.63c-0.28,0.18-0.57,0.33-0.86,0.46c-0.3,0.12-0.61,0.22-0.92,0.28
		c-0.65,0.13-1.3,0.13-1.95,0c-0.32-0.06-0.63-0.16-0.92-0.28c-0.31-0.13-0.6-0.28-0.86-0.46c-0.27-0.19-0.53-0.4-0.75-0.63
		c-0.23-0.23-0.44-0.48-0.62-0.76c-0.18-0.27-0.33-0.56-0.46-0.86c-0.12-0.3-0.22-0.62-0.28-0.94c-0.07-0.32-0.1-0.65-0.1-0.97
		C1826.48,62.61,1826.51,62.28,1826.58,61.96z M1808.66,49.8c0.92-0.76,2.04-1.14,3.14-1.14c1.44,0,2.87,0.63,3.85,1.84
		c1.74,2.14,1.42,5.29-0.71,7.03c-2.12,1.75-5.25,1.44-6.99-0.7C1806.23,54.69,1806.54,51.54,1808.66,49.8z M1796.08,34.32
		c0.92-0.76,2.04-1.14,3.14-1.14c1.44,0,2.87,0.63,3.85,1.84c1.74,2.13,1.43,5.29-0.7,7.04c-2.13,1.74-5.26,1.43-6.99-0.71
		C1793.65,39.21,1793.96,36.06,1796.08,34.32z M1781.7,22.22c0.01-0.12,0.05-0.24,0.07-0.36c0.03-0.2,0.06-0.39,0.12-0.58
		c0.04-0.14,0.11-0.26,0.16-0.4c0.07-0.17,0.12-0.34,0.2-0.5c0.15-0.29,0.34-0.57,0.55-0.83l0,0c0.2-0.24,0.42-0.46,0.65-0.65
		c0.02-0.02,0.03-0.04,0.06-0.06c0.01-0.01,0.03-0.02,0.04-0.03c0.2-0.16,0.41-0.31,0.63-0.43c0.05-0.03,0.1-0.05,0.15-0.08
		c0.19-0.1,0.39-0.19,0.59-0.27c0.04-0.02,0.08-0.03,0.12-0.05c0.22-0.08,0.45-0.13,0.69-0.18c0.07-0.01,0.13-0.02,0.2-0.03
		c0.23-0.03,0.47-0.06,0.7-0.06c0.01,0,0.01,0,0.02,0l0,0l0,0c0.01,0,0.01,0,0.02,0c0.24,0,0.47,0.02,0.7,0.06
		c0.07,0.01,0.13,0.02,0.2,0.03c0.23,0.04,0.46,0.1,0.69,0.18c0.04,0.01,0.08,0.03,0.11,0.05c0.21,0.08,0.41,0.17,0.61,0.28
		c0.04,0.02,0.09,0.04,0.13,0.07c0.23,0.13,0.45,0.28,0.66,0.46c0.01,0.01,0.02,0.01,0.02,0.02c0.01,0.01,0.02,0.02,0.03,0.03
		c0.23,0.19,0.45,0.41,0.65,0.65c0.44,0.53,0.75,1.13,0.94,1.77c0.01,0.03,0.01,0.05,0.02,0.08c0.08,0.28,0.14,0.57,0.16,0.86
		c0.02,0.16,0,0.32,0,0.47s0.01,0.32,0,0.47c-0.03,0.29-0.09,0.58-0.16,0.86c-0.01,0.03-0.01,0.05-0.02,0.08
		c-0.27,0.93-0.81,1.8-1.62,2.45l0,0c-0.52,0.43-1.11,0.74-1.74,0.93c-0.1,0.03-0.19,0.04-0.29,0.06c-0.21,0.05-0.43,0.1-0.64,0.12
		c-0.16,0.02-0.32,0-0.48,0c-0.16,0-0.32,0.01-0.47,0c-0.26-0.02-0.51-0.08-0.76-0.15c-0.06-0.02-0.12-0.02-0.18-0.03
		c-0.93-0.27-1.78-0.82-2.44-1.63c-0.38-0.47-0.65-1-0.84-1.55c-0.02-0.06-0.06-0.12-0.07-0.18c-0.06-0.2-0.09-0.41-0.12-0.62
		c-0.02-0.11-0.05-0.22-0.06-0.33c-0.02-0.16,0-0.32,0-0.48C1781.7,22.55,1781.69,22.39,1781.7,22.22z M1770.22,35.02
		c0.98-1.21,2.4-1.84,3.85-1.84c1.1,0,2.22,0.38,3.14,1.13c2.13,1.75,2.44,4.9,0.71,7.04c-1.74,2.14-4.87,2.45-6.99,0.7
		C1768.79,40.31,1768.48,37.16,1770.22,35.02z M1757.63,50.5c0.98-1.21,2.41-1.84,3.85-1.84c1.1,0,2.22,0.37,3.14,1.13
		c2.13,1.75,2.43,4.9,0.7,7.04c-1.74,2.14-4.87,2.45-6.99,0.7C1756.21,55.79,1755.9,52.64,1757.63,50.5z M1735.04,61.96
		c0.06-0.32,0.16-0.63,0.28-0.94c0.13-0.3,0.28-0.59,0.46-0.86c0.18-0.27,0.39-0.53,0.62-0.76s0.49-0.44,0.75-0.62
		c0.28-0.18,0.57-0.33,0.86-0.46c0.3-0.12,0.61-0.22,0.92-0.28c0.33-0.07,0.65-0.1,0.97-0.1c1.31,0,2.58,0.53,3.51,1.46
		c0.24,0.23,0.44,0.49,0.63,0.76c0.18,0.27,0.33,0.56,0.46,0.86c0.12,0.31,0.22,0.62,0.28,0.94c0.07,0.32,0.1,0.65,0.1,0.98
		c0,1.32-0.53,2.6-1.46,3.53c-1.15,1.16-2.86,1.7-4.48,1.37c-0.32-0.06-0.63-0.16-0.92-0.28c-0.3-0.13-0.59-0.29-0.86-0.47
		c-0.27-0.18-0.53-0.39-0.75-0.62c-0.92-0.93-1.45-2.21-1.45-3.53C1734.94,62.61,1734.97,62.28,1735.04,61.96z M1720.38,68.12
		c0.87-0.63,1.88-0.93,2.87-0.93c1.56,0,3.09,0.73,4.05,2.1c1.59,2.25,1.07,5.37-1.16,6.97c-2.24,1.61-5.33,1.08-6.92-1.17
		C1717.62,72.84,1718.15,69.72,1720.38,68.12z M1705.76,82.81c0.95-1.43,2.52-2.2,4.11-2.2c0.96,0,1.93,0.28,2.78,0.86
		c2.26,1.54,2.87,4.65,1.33,6.94c-1.53,2.29-4.62,2.89-6.9,1.34C1704.81,88.21,1704.22,85.1,1705.76,82.81z M1706.16,136.4
		c0.1,0,0.2,0,0.3,0.01c2.74,0.16,4.83,2.53,4.66,5.29c-0.16,2.75-2.51,4.85-5.25,4.69s-4.83-2.53-4.67-5.29
		C1701.36,138.45,1703.54,136.4,1706.16,136.4z M1699.72,123.17c-0.44-2.72,1.41-5.29,4.11-5.73c0.27-0.04,0.54-0.06,0.81-0.06
		c2.39,0,4.5,1.75,4.9,4.2c0.44,2.73-1.41,5.3-4.11,5.73C1702.71,127.76,1700.15,125.9,1699.72,123.17z M1698.39,102.82
		c0.27-2.56,2.42-4.46,4.93-4.46c0.18,0,0.36,0.01,0.55,0.03c2.72,0.3,4.7,2.77,4.4,5.51c-0.3,2.75-2.74,4.73-5.47,4.43
		C1700.05,108.04,1698.09,105.57,1698.39,102.82z M1697.05,157.79c0.83-1.85,2.64-2.94,4.53-2.94c0.69,0,1.38,0.14,2.05,0.45
		c2.49,1.14,3.61,4.1,2.47,6.62c-1.13,2.51-4.07,3.63-6.58,2.49C1697.03,163.27,1695.92,160.3,1697.05,157.79z M1687.41,172.37
		c0.98-1.1,2.33-1.65,3.7-1.65c1.18,0,2.37,0.42,3.33,1.28c2.04,1.85,2.2,5.01,0.36,7.06c-1.84,2.06-4.98,2.22-7.01,0.37
		C1685.74,177.58,1685.57,174.42,1687.41,172.37z M1685.02,206.92c0.16,2.76-1.94,5.12-4.67,5.28c-2.74,0.16-5.09-1.95-5.25-4.7
		c-0.16-2.76,1.93-5.13,4.67-5.28c0.1-0.01,0.2-0.01,0.29-0.01C1682.68,202.21,1684.87,204.26,1685.02,206.92z M1683.29,227.46
		c-0.67,2.68-3.36,4.31-6.02,3.65c-2.66-0.66-4.28-3.37-3.63-6.05c0.56-2.28,2.58-3.8,4.82-3.8c0.4,0,0.79,0.05,1.19,0.14
		C1682.32,222.07,1683.95,224.78,1683.29,227.46z M1671.99,187.35c0.06-0.32,0.16-0.64,0.28-0.94c0.13-0.3,0.28-0.59,0.46-0.86
		c0.18-0.28,0.39-0.53,0.62-0.76s0.49-0.44,0.75-0.62c0.27-0.18,0.56-0.34,0.86-0.46c0.3-0.13,0.61-0.22,0.92-0.29
		c0.32-0.06,0.65-0.1,0.97-0.1c0.32,0,0.65,0.04,0.97,0.1c0.31,0.07,0.63,0.16,0.92,0.29c0.3,0.12,0.59,0.28,0.85,0.46
		c0.28,0.18,0.53,0.39,0.76,0.62s0.44,0.48,0.63,0.76c0.18,0.27,0.33,0.56,0.45,0.86c0.13,0.3,0.23,0.62,0.29,0.94
		c0.06,0.32,0.1,0.65,0.1,0.97c0,1.32-0.54,2.61-1.46,3.54c-0.23,0.23-0.48,0.44-0.76,0.62c-0.27,0.18-0.56,0.33-0.85,0.46
		c-0.3,0.13-0.62,0.22-0.92,0.29c-0.65,0.13-1.31,0.13-1.95,0c-0.32-0.07-0.63-0.16-0.92-0.29c-0.31-0.13-0.6-0.28-0.86-0.46
		c-0.27-0.18-0.53-0.39-0.75-0.62c-0.92-0.93-1.45-2.22-1.45-3.54C1671.89,188,1671.92,187.67,1671.99,187.35z M1666.61,240.77
		c0.97-1.39,2.51-2.13,4.07-2.13c0.98,0,1.98,0.3,2.85,0.91c2.25,1.59,2.78,4.71,1.21,6.97c-1.58,2.26-4.68,2.8-6.92,1.21
		C1665.58,246.15,1665.04,243.03,1666.61,240.77z M1654.29,253.81c0.94-0.86,2.14-1.28,3.31-1.28c1.36,0,2.72,0.56,3.71,1.67
		c1.83,2.05,1.66,5.21-0.39,7.06c-2.05,1.84-5.19,1.66-7.02-0.39C1652.07,258.81,1652.24,255.65,1654.29,253.81z M1651.04,322.39
		c0.27,0.18,0.53,0.39,0.76,0.62c0.23,0.23,0.44,0.48,0.62,0.76c0.18,0.27,0.34,0.56,0.46,0.86c0.13,0.3,0.22,0.62,0.29,0.94
		c0.06,0.32,0.1,0.65,0.1,0.97c0,0.33-0.04,0.66-0.1,0.98c-0.07,0.32-0.16,0.63-0.29,0.93c-0.12,0.31-0.28,0.6-0.46,0.87
		c-0.18,0.27-0.39,0.53-0.62,0.76s-0.49,0.44-0.76,0.62c-0.27,0.18-0.56,0.33-0.85,0.46c-0.31,0.12-0.62,0.22-0.93,0.28
		c-1.62,0.33-3.33-0.2-4.48-1.36c-0.23-0.23-0.44-0.49-0.62-0.76c-0.18-0.27-0.34-0.56-0.46-0.87c-0.13-0.3-0.22-0.61-0.29-0.93
		c-0.06-0.32-0.1-0.65-0.1-0.98c0-0.32,0.04-0.65,0.1-0.97c0.07-0.32,0.16-0.64,0.29-0.94c0.12-0.3,0.28-0.59,0.46-0.86
		c0.18-0.28,0.39-0.53,0.62-0.76c0.23-0.23,0.48-0.44,0.75-0.62c0.27-0.19,0.56-0.34,0.85-0.47c0.3-0.12,0.62-0.22,0.93-0.28
		c0.32-0.07,0.65-0.1,0.96-0.1c0.33,0,0.65,0.03,0.97,0.1c0.32,0.06,0.63,0.16,0.93,0.28
		C1650.48,322.05,1650.77,322.2,1651.04,322.39z M1642.54,313.49c-2.64,0.74-5.39-0.82-6.11-3.48c-0.73-2.66,0.82-5.42,3.46-6.16
		c0.44-0.12,0.88-0.18,1.33-0.18c2.18,0,4.17,1.45,4.78,3.66v0.01C1646.73,310,1645.18,312.75,1642.54,313.49z M1640.54,268.96
		c0.94-1.53,2.56-2.36,4.22-2.36c0.89,0,1.81,0.24,2.62,0.75c2.32,1.46,3.04,4.55,1.59,6.89c-1.45,2.35-4.51,3.06-6.85,1.6
		C1639.8,274.38,1639.09,271.3,1640.54,268.96z M1639.05,284.7c0.12,0,0.24,0,0.36,0.01c2.73,0.2,4.79,2.59,4.6,5.35
		c-0.2,2.75-2.57,4.83-5.32,4.63c-2.73-0.2-4.79-2.59-4.6-5.35C1634.28,286.71,1636.47,284.7,1639.05,284.7z"/>
	<path class="st1" d="M1433.57,20.02c18.87,12.72,32.91,31.45,40.6,54.18l89.77,265.23H1183l89.77-265.24
		c7.69-22.72,21.73-41.46,40.6-54.18c17.53-11.8,38.31-18.05,60.1-18.05S1416.04,8.21,1433.57,20.02z"/>
	<path class="st0" d="M2039.49,401.73l196.08,144.99c99.35,73.46,99.27,222.1-0.15,295.46l-195.93,144.55l-36-14.22V416.3
		L2039.49,401.73z"/>
	<path class="st2" d="M2039.49,401.73v585"/>
	<path class="st2" d="M1979.83,1039.96h-393.45"/>
	<path class="st2" d="M1527.94,404.88v585"/>
	<path class="st2" d="M1588.95,348.76h393.46"/>
</g>
<g id="_x35_.25x7.75_filigree">
	<path class="st3" d="M933.07,707.93v-396L756.13,72.38c-57.43-77.75-173.7-77.75-231.12,0L348.07,311.93v396H933.07z
		 M683.93,129.49c3.74,0,6.77,3.03,6.77,6.77c0,3.73-3.03,6.76-6.77,6.76c-3.73,0-6.76-3.03-6.76-6.76
		C677.17,132.52,680.2,129.49,683.93,129.49z M669.91,130.94c0,4.48-3.63,8.12-8.11,8.12s-8.12-3.64-8.12-8.12
		c0-4.48,3.64-8.12,8.12-8.12S669.91,126.46,669.91,130.94z M605.56,119.5c3.15,0,5.71,2.56,5.71,5.72c0,3.16-2.56,5.72-5.71,5.72
		c-3.16,0-5.72-2.56-5.72-5.72C599.84,122.06,602.4,119.5,605.56,119.5z M596.43,102.68c2.68,0,4.85,2.17,4.85,4.85
		s-2.17,4.85-4.85,4.85s-4.85-2.17-4.85-4.85S593.75,102.68,596.43,102.68z M563.39,202.42c-6.64-0.53-13.13-3.2-18.05-7.7
		c-9.93-9.06-12.9-26.7-0.46-35.14c5.65-3.84,13.42-4.28,19.47-1.11c4.31,2.27,7.72,6.32,8.92,11.05c1.2,4.72,0.06,10.04-3.19,13.68
		c-3.25,3.63-8.59,5.35-13.28,4.03c-2.63-0.74-5.07-2.48-6.2-4.97s-0.7-5.74,1.37-7.53s5.7-1.56,7.22,0.71
		c1.53,2.27-0.06,6.02-2.8,6.16c0.06,0.09,0.13,0.18,0.19,0.26c1.83,2.44,5.39,3.31,8.28,2.27c2.98-1.07,5.15-3.91,5.8-7.01
		c0.66-3.11-0.07-6.4-1.59-9.18c-2.95-5.38-9.1-8.93-15.21-8.46c-6.12,0.48-11.77,5.16-13.05,11.15
		c-1.06,4.96,0.74,10.15,3.48,14.42c3.67,5.71,9.27,10.38,15.88,11.92c5.86,1.35,12.14,0.16,17.43-2.69s9.64-7.26,12.99-12.25
		c3.69-5.48,6.23-11.64,9.44-17.41s7.28-11.35,13.04-14.58c3.87-2.19,8.19-3.14,12.64-3.5c-1.03-0.46-2.08-0.88-3.18-1.2
		c-3.73-1.08-7.69-1.52-11.52-0.85c-7.79,1.36-14.24,6.4-22.25,7.19c-6.32,0.63-12.99-0.51-18.44-3.85
		c-6.16-3.77-10.25-10.48-10.23-17.78c0-3.59,1.22-7.26,3.75-9.8c3.39-3.4,8.99-4.32,13.31-2.23c4.01,1.93,6.93,6.31,6.52,10.84
		c-0.08,0.86-0.34,3.78-2.73,5.55c-0.19,0.14-3.49,2.5-6.39,0.71c-1.61-1-2.72-3.04-2.32-5.17c0.33-1.78,1.67-3.38,3.29-3.78
		c2.35-0.58,4.85,1.03,4.85,1.03s-0.38-3.98-2.78-6.05c-4.08-3.52-10.35-2.8-13.43,1.65c-1.68,2.43-2.17,5.59-1.53,8.47
		c1.85,8.32,10.4,11.26,17.98,11.39c7.41,0.13,13.55-2.92,20.59-4.68c6.55-1.64,15.47-1.98,21.55,1.41
		c2.72,1.52,6.08,4.05,8.22,6.96c1.59,2.39,1.6,2.74,1.81,3.42c-1.13-0.42-2.22-0.92-3.31-1.45c-7.02,1.79-13.74,4.6-19.08,9.41
		c-6.28,5.68-10,13.56-13.92,21.07c-3.91,7.51-8.45,15.14-15.64,19.6C575.67,201.6,569.44,202.9,563.39,202.42z M611.27,187.2
		c0,2.68-2.17,4.85-4.85,4.85s-4.85-2.17-4.85-4.85c0-2.68,2.17-4.85,4.85-4.85S611.27,184.52,611.27,187.2z M628.94,246.79
		c-6.82,8.75-17.75,13.83-28.88,12.55c-5.48-0.63-10.86-3.12-14.3-7.42c-4.61-5.74-5.04-14.44-1.12-20.68
		c3.63-5.78,10.82-9.48,17.66-8.08c1.3,0.27,5.7,1.17,8,5.12c0.17,0.31,3.21,5.75-0.03,9.87c-1.8,2.28-5.1,3.62-8.28,2.65
		c-2.66-0.81-4.87-3.12-5.2-5.66c-0.48-3.69,2.41-7.23,2.41-7.23s-6.14-0.1-9.71,3.2c-6.07,5.62-6.04,15.31,0.22,20.77
		c3.41,2.98,8.14,4.27,12.65,3.79c13.01-1.39,18.95-13.93,20.46-25.47c1.47-11.27-2.12-21.17-3.6-32.2
		c-1.38-10.28-0.36-23.94,5.86-32.64c3.83-5.35,10.81-12.24,17.55-13.51c-2.58,5.11-6.28,9.5-8.52,14.88
		c-2.29,5.5-3.65,11.47-3.28,17.42c0.74,12.12,7.32,22.82,7.15,35.18C637.85,229.07,634.97,239.04,628.94,246.79z M642.94,182.35
		c-2.68,0-4.85-2.17-4.85-4.85s2.17-4.85,4.85-4.85s4.85,2.17,4.85,4.85S645.62,182.35,642.94,182.35z M724.92,205.45
		c-1.79,11.54-10.61,21.56-21.66,25.37c-11.04,3.81-23.84,1.54-33.28-5.34c-9.45-6.88-15.46-18.06-16.64-29.68
		c-1.29-12.81,2.9-25.94,0.03-38.48c-1.52-6.63-5.03-12.79-9.97-17.48c-5.73-5.45-13.17-8.82-19.02-14.15
		c-9.41-8.58-13.89-22.22-11.4-34.71c1.31-6.62,4.69-13.09,10.34-16.77c7.44-4.85,17.48-3.77,24.8,0.75
		c6.29,3.88,11.04,11.37,11.53,18.81c0.45,6.9-3.3,14.24-9.74,16.75c-6.45,2.51-14.96-1.25-16.37-8.02
		c-0.68-3.24,0.38-6.92,3.02-8.92c2.63-2.01,6.8-1.92,9.03,0.53c1.94,2.14,1.98,5.75,0.09,7.93c-1.9,2.18-5.47,2.65-7.86,1.03
		c2.05,4.1,7.63,5.76,11.85,3.96s6.84-6.46,6.83-11.05c-0.02-4.59-2.4-8.97-5.81-12.04c-7.08-6.37-19.55-6.44-25.49,1.01
		c-2.25,2.82-3.43,6.37-4.05,9.93c-1.24,7.19-0.29,14.85,3.29,21.2c7.74,13.73,25.76,19,33.71,32.61
		c10.62,18.18-0.87,43.42,9.94,61.48c4.23,7.06,11.58,12.04,19.58,13.99c11.37,2.77,25.23-1.66,29.72-12.47
		c2.78-6.67,1.43-14.76-3.01-20.45c-4.44-5.7-11.7-8.95-18.93-8.94c-5.41,0.01-11.14,2.02-14.15,6.52
		c-2.61,3.89-2.73,9.19-0.75,13.44c1.96,4.23,5.8,7.44,10.14,9.15c0.02,0.01,0.05,0.02,0.07,0.03c-1.89-3.89,0.05-9.17,4.01-10.93
		c3.96-1.75,9.17,0.37,10.79,4.39c1.85,4.63-1.23,10.24-5.82,12.2c-4.59,1.96-10.04,0.85-14.31-1.72
		c-6.92-4.15-11.38-12.13-11.29-20.2s4.72-15.94,11.73-19.95c7.58-4.33,17.46-3.96,25.05,0.38
		C721.07,181.4,726.72,193.9,724.92,205.45z M742.19,147.18c-7.96,19.13-31.83,22.52-49.88,18.69c-5.91-1.25-11.72-3.28-16.73-6.64
		s-9.19-8.15-11.15-13.86c5.03,5.69,11.82,9.68,19.08,11.91c7.25,2.22,14.97,2.74,22.53,2.13c8.69-0.7,17.78-3.19,23.65-9.64
		c3.26-3.58,5.3-8.19,6-12.98c0.67-4.52,0.13-9.29-1.99-13.33c-2.13-4.05-5.94-7.28-10.41-8.25c-4.46-0.96-9.5,0.57-12.32,4.16
		c-3.21,4.08-3.09,10.19-0.39,14.63c1.98,3.25,5.51,5.81,9.31,5.65c3.73-0.16,7.27-3.63,6.76-7.29c-0.01-0.08-0.02-0.15-0.03-0.22
		c-1.36,2.44-5.46,2.31-6.95-0.05c-1.48-2.36-0.23-5.83,2.27-7.06c2.5-1.22,5.73-0.34,7.6,1.72c1.88,2.06,2.51,5.06,2.08,7.82
		c-0.83,5.29-5.46,9.64-10.74,10.55c-5.29,0.91-10.89-1.45-14.29-5.59c-3.4-4.15-4.64-9.86-3.71-15.14
		c0.69-3.88,2.52-7.59,5.35-10.33c5.27-5.1,13.69-6.27,20.5-3.55c6.81,2.71,11.94,8.88,14.24,15.84
		C745.2,133.09,744.91,140.62,742.19,147.18z"/>
	<path class="st1" d="M264.95,286.38c-41.45,0-79.35-19.12-103.98-52.46L0.99,17.32h527.92l-159.98,216.6
		C344.3,267.26,306.4,286.38,264.95,286.38z"/>
	<path class="st3" d="M298.85,314.2L59.3,432.78c-77.75,38.48-77.75,116.41,0,154.89l239.55,118.59l36-12.03V326.42L298.85,314.2z"
		/>
	<path class="st3" d="M360.34,726.82l-12.27,36l176.73,239.54c57.35,77.75,173.49,77.75,230.85,0l176.74-239.54l-12.35-36H360.34z"
		/>
	<path class="st3" d="M988.71,314.2l239.55,118.58c77.75,38.48,77.75,116.41,0,154.89L988.71,706.26l-36-12.03V326.42L988.71,314.2z
		"/>
	<path class="st2" d="M988.71,314.2v392.06"/>
	<path class="st2" d="M348.07,762.82h584.32"/>
	<path class="st2" d="M298.85,314.2v392.06"/>
	<path class="st2" d="M348.07,311.93h585"/>
</g>
<g id="_x35_.25x7.75_simple">
	<path class="st4" d="M705.81,1560.79h585v-396l-144.55-195.92c-73.36-99.43-221.99-99.5-295.46-0.15l-144.99,196.07V1560.79z"/>
	<path class="st4" d="M666.89,1167.74l-300.78,137.65c-41.68,19.06-41.68,98.7,0,117.75l300.78,137.65l26.24-12.27V1180.2
		L666.89,1167.74z"/>
	<path class="st2" d="M705.55,1164.79"/>
	<path class="st2" d="M666.89,1167.74v393.05"/>
	<path class="st2" d="M705.81,1164.79h585"/>
	<path class="st4" d="M1336.33,1164.79l300.78,137.65c41.68,19.06,41.68,98.7,0,117.75l-300.78,137.65l-26.24-12.27v-368.32
		L1336.33,1164.79z"/>
	<path class="st2" d="M1336.33,1557.84v-393.05"/>
	<path class="st4" d="M1290.81,1611.64l-144.55,195.92c-73.36,99.43-221.99,99.5-295.46,0.15l-144.99-196.07l12.46-35.69h560.56
		L1290.81,1611.64z"/>
	<path class="st2" d="M705.81,1611.64h585"/>
</g>
</svg>
