<?xml version="1.0" encoding="utf-8"?>
<!-- Generator: Adobe Illustrator 25.4.1, SVG Export Plug-In . SVG Version: 6.00 Build 0)  -->
<svg version="1.1" id="Layer_1" xmlns="http://www.w3.org/2000/svg" xmlns:xlink="http://www.w3.org/1999/xlink" x="0px" y="0px"
	 viewBox="0 0 2332 2181.5" style="enable-background:new 0 0 2332 2181.5;" xml:space="preserve">
<style type="text/css">
	.st0{fill:#FBAA1B;stroke:#010101;stroke-miterlimit:10;}
	.st1{fill:none;stroke:#E32228;stroke-miterlimit:10;}
	.st2{fill:#00B2AF;stroke:#010101;stroke-miterlimit:10;}
	.st3{fill:none;stroke:#E31E26;stroke-miterlimit:10;}
	.st4{fill:#00B2AF;stroke:#000000;stroke-miterlimit:10;}
	.st5{fill:#F4B8C5;stroke:#010101;stroke-miterlimit:10;}
	.st6{fill:none;stroke:#E40020;stroke-miterlimit:10;}
</style>
<g id="_x35_.875x9.25_simple_00000078765963285507930120000014823288369533732017_">
	<path class="st0" d="M492,1829.4h683.9v-428.3l-169-211.9c-85.8-107.5-259.5-107.6-345.4-0.2L492,1401.1V1829.4z"/>
	<path class="st1" d="M494.1,1398.2"/>
	<path class="st1" d="M492,1398.3h683.9"/>
	<path class="st0" d="M1174.2,1889.2L1006,2100.6c-85.3,107.2-258.2,107.3-343.7,0.2l-168.7-211.5l14.5-38.5h652.1L1174.2,1889.2z"
		/>
	<path class="st1" d="M493.7,1889.2h680.5"/>
	<path class="st0" d="M474.3,1411.9v401.7L446,1827l-324.4-150.1c-45-20.8-45-107.6,0-128.4L446,1398.3L474.3,1411.9z"/>
	<path class="st1" d="M446,1398.3V1827"/>
	<path class="st0" d="M1218.2,1398.3l324.4,150.1c44.9,20.8,44.9,107.6,0,128.4L1218.2,1827l-28.3-13.4v-401.7L1218.2,1398.3z"/>
	<path class="st1" d="M1218.2,1827v-428.7"/>
</g>
<g id="_x35_.875x9.25_fancy">
	<path class="st2" d="M929.9,703.2l0.4-425.6l-12.8-135.5c1.4-3.6,8.3-8.9,2.2-28.4c-4.4-14.2-21-17.2-21-17.2s5.1-24.5-10.3-38.8
		c-15.6-14.6-42.6-9.2-42.6-9.2s-3.3-14.4-18-21.4c-14.4-6.9-34.2,0.9-34.2,0.9s-14-11.6-36.9-11.6c-27.8,0-67.4,20.1-109,19.6
		c-24.5,0-37.5-16.1-59.5-35.3c-21.9,19.2-35.3,35.2-59.5,35.3c-41.6,0.5-81.2-19.6-109-19.6c-23,0-36.9,11.6-36.9,11.6
		s-19.8-7.8-34.2-0.9c-14.8,7-18,21.4-18,21.4s-27-5.5-42.6,9.2c-15.4,14.4-10.3,38.8-10.3,38.8s-16.6,3-21,17.2
		c-6,19.5,0.8,24.8,2.2,28.4L246,277.6l0.4,425.6H929.9z"/>
	<path class="st1" d="M246.4,273.5h683.9"/>
	<path class="st2" d="M144.8,273.5c-57.1,0-144.2,50-144.2,106.6v319h144.6h0.1h60.2c17.5,0,31.7-14.2,31.7-31.7V380.1
		C237.1,323.5,181.1,273.5,144.8,273.5z"/>
	<path class="st3" d="M145.2,699.1V273.8"/>
	<path class="st2" d="M1046.3,273.5c57.1,0,144.2,50,144.2,106.6v319h-144.6h-0.1h-60.4c-17.4,0-31.5-14.1-31.5-31.5V380.1
		C953.9,323.5,1010,273.5,1046.3,273.5z"/>
	<path class="st3" d="M1045.9,273.8v425.3"/>
	<path class="st4" d="M935.7,811.7l-10.8-62.8c-2.1-12.1-12.6-21-24.9-21H287.5c-12.3,0-22.9,8.9-24.9,21.1l-10.4,62.7l12.4,163
		c-1.4,4.4-8.3,10.8-2.2,34.4c4.4,17.1,21,20.8,21,20.8s-5.1,29.6,10.3,47c15.6,17.7,42.6,11.1,42.6,11.1h515.4
		c0,0,27,6.6,42.6-11.1c15.4-17.4,10.3-47,10.3-47s16.6-3.7,21-20.8c6-23.6-0.8-30-2.2-34.4L935.7,811.7z"/>
	<path class="st1" d="M252.2,811.7h683.5"/>
</g>
<g>
	<g>
		<path class="st5" d="M1446.9,583.8l0,424.8l663.7,0l0-424.8H1446.9z"/>
	</g>
	<path class="st5" d="M2302.1,603.2l-114.4-19.4l-44.6,19.4c-6.6,2.9-11.4,17.6-11.4,34.8v316.3c0,17.2,4.8,31.9,11.4,34.8
		l44.6,19.4l114.4-19.4c17-2.9,29.4-17.6,29.4-34.8V638C2331.5,620.8,2319.1,606.1,2302.1,603.2z"/>
	<path class="st6" d="M2187.7,583.8v424.8"/>
	<path class="st5" d="M1255.3,603.2l114.4-19.4l44.6,19.4c6.6,2.9,11.4,17.6,11.4,34.8v316.3c0,17.2-4.8,31.9-11.4,34.8l-44.6,19.4
		l-114.4-19.4c-17-2.9-29.4-17.6-29.4-34.8V638C1225.9,620.8,1238.3,606.1,1255.3,603.2z"/>
	<path class="st6" d="M1369.7,1008.6V583.8"/>
	<path class="st5" d="M2057.2,1042.1c-7.1-11-19.3-17.7-32.4-17.7h-489.8c-12.8,0-24.9,6.4-32,17.1l-56.1,83.6l23.7,339.5
		c1.1,15.5,16,27.6,34.1,27.6h16.1H2026h25.5c18,0,33-12,34.1-27.5l24.9-339.6L2057.2,1042.1z M1771.1,1400.1c-1,1.9-2.3,4-3.8,5.7
		c-7.3,8.6-16.4,14.3-27.6,16.2c-12.1,2.1-23.3-0.2-33.9-6.1c-6.9-3.8-12.6-9-16.9-15.6c-0.6-0.9-1.2-1.9-1.8-2.8
		c-0.7-1.5-1.5-3.1-2.2-4.6c0-0.2-0.1-0.4-0.1-0.6c-1.7-4.3-2.8-8.9-2.9-13.5c-0.2-11.1,2.3-21.5,7.2-31.4
		c4.2-8.4,10-15.6,16.6-22.2c7.2-7.3,15.2-13.7,23.3-20c7.9-6.2,15.9-12.4,23.5-19c8.2-7.2,12.2-11,18.7-19.8v0 M1787.6,1266.2
		c6.5,8.8,10,12.6,18.2,19.9c7.6,6.6,15.6,12.8,23.5,19c8.1,6.3,16.1,12.7,23.3,20c6.6,6.6,12.4,13.8,16.6,22.2
		c5,9.9,7.4,20.4,7.2,31.4c-0.1,4.7-1.1,9.2-2.9,13.5c-0.1,0.2-0.1,0.4-0.1,0.6c-0.7,1.5-1.5,3.1-2.2,4.6c-0.6,0.9-1.2,1.9-1.8,2.8
		c-4.4,6.5-10.1,11.7-16.9,15.6c-10.6,5.9-21.9,8.2-33.9,6.1c-11.2-1.9-20.3-7.6-27.6-16.2c-1.2-1.4-2.9-3.8-3.3-5.8"/>
	<path class="st5" d="M2078.6,102.1c-1.7-15.3-16.7-27-32.8-27h-531.4c-19.7,0-34.7,11.7-36.4,27l-31.1,360l56.1,83.6
		c7.2,10.7,19.2,17.1,32,17.1h489.8c13.1,0,25.3-6.7,32.4-17.7l53.4-83L2078.6,102.1z M1767.9,157.8c0-5,5-9.1,11.2-9.1h2.6
		c6.1,0,11.2,4.1,11.2,9.1v159.8c0,5-5,9.1-11.2,9.1h-2.6c-6.1,0-11.2-4.1-11.2-9.1V157.8z"/>
	<path class="st6" d="M1446.8,1125.1H2110"/>
	<path class="st6" d="M1446.9,462.1l663.7,0.1"/>
	<path class="st6" d="M1771.1,1266.2v133.9 M1787.6,1266.2v133.9"/>
</g>
</svg>
