<?xml version="1.0" encoding="utf-8"?>
<!-- Generator: Adobe Illustrator 25.4.1, SVG Export Plug-In . SVG Version: 6.00 Build 0)  -->
<svg version="1.1" id="Layer_1" xmlns="http://www.w3.org/2000/svg" xmlns:xlink="http://www.w3.org/1999/xlink" x="0px" y="0px"
	 viewBox="0 0 2116.65 2313.25" style="enable-background:new 0 0 2116.65 2313.25;" xml:space="preserve">
<style type="text/css">
	.st0{fill:#FBA919;stroke:#000000;stroke-miterlimit:10;}
	.st1{fill:none;stroke:#E31E26;stroke-miterlimit:10;}
	.st2{fill:#F9E547;stroke:#000000;stroke-miterlimit:10;}
	.st3{fill:#FFFFFF;stroke:#000000;stroke-miterlimit:10;}
	.st4{fill:#00B2AF;stroke:#000000;stroke-miterlimit:10;}
	.st5{fill:#72BF44;stroke:#000000;stroke-miterlimit:10;}
	.st6{fill:#F2B6C1;stroke:#000000;stroke-miterlimit:10;}
	.st7{fill:#64D400;stroke:#000000;stroke-miterlimit:10;}
	.st8{fill:none;stroke:#ED1C24;stroke-miterlimit:10;}
	.st9{fill:none;stroke:#E40020;stroke-miterlimit:10;}
</style>
<g id="_x34_x6_insert_flap">
	<path class="st0" d="M1308.87,1510.04l-157.54,304.7h-450l-158.47-304.7l158.48-307.3v-114.43h130.98V986.74h188.04v101.57h130.98
		v114.43l0,0L1308.87,1510.04z M792.8,1685.52h266.12"/>
	<path class="st1" d="M542.86,1510.04h766.01 M701.33,1202.74v612 M1151.33,1202.74v612 M701.33,1202.74h450"/>
</g>
<g id="_x34_x6_circles">
	<path class="st2" d="M549.91,1807.83h-28.89l-21-200.94c-1.54-14.48-13.75-25.46-28.31-25.46H119.82
		c-14.59,0-26.82,11.03-28.32,25.54l-20.47,200.86H42.38c-14,0-25.35,11.35-25.35,25.35v250.81c0,14,11.35,25.35,25.35,25.35h28.65
		l20.23,178.15c1.64,14.39,13.82,25.26,28.31,25.26h352.4c14.45,0,26.61-10.82,28.3-25.17l20.76-178.24h28.89
		c13.87,0,25.11-11.24,25.11-25.11v-251.29C575.02,1819.07,563.78,1807.83,549.91,1807.83z M493.58,1751.67
		c-1.06,0.33-2.14,0.61-3.25,0.81c-1.66-11.18-8.39-20.72-17.77-26.22c7.69-4.51,13.6-11.75,16.39-20.37L493.58,1751.67z
		 M124.77,1694.64c5.43-3.18,9.98-7.73,13.16-13.16c3.18,5.43,7.73,9.98,13.16,13.16c-5.43,3.18-9.98,7.73-13.16,13.16
		C134.75,1702.37,130.2,1697.82,124.77,1694.64z M132.34,1720.67c-10.2-2.19-18.25-10.24-20.44-20.44
		C122.1,1702.42,130.15,1710.47,132.34,1720.67z M111.9,1689.05c2.19-10.2,10.24-18.25,20.44-20.44
		C130.15,1678.81,122.1,1686.86,111.9,1689.05z M182.71,1663.02c-5.43,3.18-9.98,7.73-13.16,13.16c-3.18-5.43-7.73-9.98-13.16-13.16
		c5.43-3.18,9.98-7.73,13.16-13.16C172.73,1655.29,177.28,1659.84,182.71,1663.02z M175.14,1636.99
		c10.2,2.19,18.25,10.24,20.44,20.44C185.38,1655.24,177.33,1647.19,175.14,1636.99z M195.57,1668.61
		c-2.19,10.2-10.24,18.25-20.44,20.44C177.33,1678.85,185.38,1670.8,195.57,1668.61z M143.52,1657.43
		c2.19-10.2,10.24-18.25,20.44-20.44C161.77,1647.19,153.72,1655.24,143.52,1657.43z M163.96,1689.05
		c-10.2-2.19-18.25-10.24-20.44-20.44C153.72,1670.8,161.77,1678.85,163.96,1689.05z M163.96,1700.23
		c-2.19,10.2-10.24,18.25-20.44,20.44C145.71,1710.47,153.76,1702.42,163.96,1700.23z M163.96,1752.28
		c-10.2-2.19-18.25-10.24-20.44-20.44C153.72,1734.03,161.77,1742.08,163.96,1752.28z M156.39,1726.26
		c5.43-3.18,9.98-7.73,13.16-13.16c3.18,5.43,7.73,9.98,13.16,13.16c-5.43,3.18-9.98,7.73-13.16,13.16
		C166.36,1733.99,161.82,1729.44,156.39,1726.26z M195.57,1731.85c-2.19,10.2-10.24,18.25-20.44,20.44
		C177.33,1742.08,185.38,1734.03,195.57,1731.85z M175.14,1700.23c10.2,2.19,18.25,10.24,20.44,20.44
		C185.38,1718.48,177.33,1710.43,175.14,1700.23z M188,1694.64c5.43-3.18,9.98-7.73,13.16-13.16c3.18,5.43,7.73,9.98,13.16,13.16
		c-5.43,3.18-9.98,7.73-13.16,13.16C197.98,1702.37,193.44,1697.82,188,1694.64z M245.95,1663.02c-5.43,3.18-9.98,7.73-13.16,13.16
		c-3.18-5.43-7.73-9.98-13.16-13.16c5.43-3.18,9.98-7.73,13.16-13.16C235.97,1655.29,240.51,1659.84,245.95,1663.02z
		 M238.37,1636.99c10.2,2.19,18.25,10.24,20.44,20.44C248.61,1655.24,240.56,1647.19,238.37,1636.99z M258.81,1668.61
		c-2.19,10.2-10.24,18.25-20.44,20.44C240.56,1678.85,248.61,1670.8,258.81,1668.61z M206.76,1657.43
		c2.19-10.2,10.24-18.25,20.44-20.44C225,1647.19,216.96,1655.24,206.76,1657.43z M227.19,1689.05
		c-10.2-2.19-18.25-10.24-20.44-20.44C216.96,1670.8,225,1678.85,227.19,1689.05z M227.19,1700.23
		c-2.19,10.2-10.24,18.25-20.44,20.44C208.94,1710.47,216.99,1702.42,227.19,1700.23z M227.19,1752.28
		c-10.2-2.19-18.25-10.24-20.44-20.44C216.96,1734.03,225,1742.08,227.19,1752.28z M219.62,1726.26c5.43-3.18,9.98-7.73,13.16-13.16
		c3.18,5.43,7.73,9.98,13.16,13.16c-5.43,3.18-9.98,7.73-13.16,13.16C229.6,1733.99,225.05,1729.44,219.62,1726.26z M258.81,1731.85
		c-2.19,10.2-10.24,18.25-20.44,20.44C240.56,1742.08,248.61,1734.03,258.81,1731.85z M238.37,1700.23
		c10.2,2.19,18.25,10.24,20.44,20.44C248.61,1718.48,240.56,1710.43,238.37,1700.23z M251.24,1694.64
		c5.43-3.18,9.98-7.73,13.16-13.16c3.18,5.43,7.73,9.98,13.16,13.16c-5.43,3.18-9.98,7.73-13.16,13.16
		C261.22,1702.37,256.67,1697.82,251.24,1694.64z M309.18,1663.02c-5.43,3.18-9.98,7.73-13.16,13.16
		c-3.18-5.43-7.73-9.98-13.16-13.16c5.43-3.18,9.98-7.73,13.16-13.16C299.2,1655.29,303.75,1659.84,309.18,1663.02z M301.61,1636.99
		c10.2,2.19,18.25,10.24,20.44,20.44C311.85,1655.24,303.8,1647.19,301.61,1636.99z M322.05,1668.61
		c-2.19,10.2-10.24,18.25-20.44,20.44C303.8,1678.85,311.85,1670.8,322.05,1668.61z M269.99,1657.43
		c2.19-10.2,10.24-18.25,20.44-20.44C288.24,1647.19,280.19,1655.24,269.99,1657.43z M290.43,1689.05
		c-10.2-2.19-18.25-10.24-20.44-20.44C280.19,1670.8,288.24,1678.85,290.43,1689.05z M290.43,1700.23
		c-2.19,10.2-10.24,18.25-20.44,20.44C272.18,1710.47,280.23,1702.42,290.43,1700.23z M290.43,1752.28
		c-10.2-2.19-18.25-10.24-20.44-20.44C280.19,1734.03,288.24,1742.08,290.43,1752.28z M282.86,1726.26
		c5.43-3.18,9.98-7.73,13.16-13.16c3.18,5.43,7.73,9.98,13.16,13.16c-5.43,3.18-9.98,7.73-13.16,13.16
		C292.84,1733.99,288.29,1729.44,282.86,1726.26z M322.05,1731.85c-2.19,10.2-10.24,18.25-20.44,20.44
		C303.8,1742.08,311.85,1734.03,322.05,1731.85z M301.61,1700.23c10.2,2.19,18.25,10.24,20.44,20.44
		C311.85,1718.48,303.8,1710.43,301.61,1700.23z M314.48,1694.64c5.43-3.18,9.98-7.73,13.16-13.16c3.18,5.43,7.73,9.98,13.16,13.16
		c-5.43,3.18-9.98,7.73-13.16,13.16C324.45,1702.37,319.91,1697.82,314.48,1694.64z M372.42,1663.02
		c-5.43,3.18-9.98,7.73-13.16,13.16c-3.18-5.43-7.73-9.98-13.16-13.16c5.43-3.18,9.98-7.73,13.16-13.16
		C362.44,1655.29,366.99,1659.84,372.42,1663.02z M364.85,1636.99c10.2,2.19,18.25,10.24,20.44,20.44
		C375.08,1655.24,367.04,1647.19,364.85,1636.99z M385.28,1668.61c-2.19,10.2-10.24,18.25-20.44,20.44
		C367.04,1678.85,375.08,1670.8,385.28,1668.61z M333.23,1657.43c2.19-10.2,10.24-18.25,20.44-20.44
		C351.48,1647.19,343.43,1655.24,333.23,1657.43z M353.67,1689.05c-10.2-2.19-18.25-10.24-20.44-20.44
		C343.43,1670.8,351.48,1678.85,353.67,1689.05z M353.67,1700.23c-2.19,10.2-10.24,18.25-20.44,20.44
		C335.42,1710.47,343.47,1702.42,353.67,1700.23z M353.67,1752.28c-10.2-2.19-18.25-10.24-20.44-20.44
		C343.43,1734.03,351.48,1742.08,353.67,1752.28z M346.09,1726.26c5.43-3.18,9.98-7.73,13.16-13.16c3.18,5.43,7.73,9.98,13.16,13.16
		c-5.43,3.18-9.98,7.73-13.16,13.16C356.07,1733.99,351.53,1729.44,346.09,1726.26z M385.28,1731.85
		c-2.19,10.2-10.24,18.25-20.44,20.44C367.04,1742.08,375.08,1734.03,385.28,1731.85z M364.85,1700.23
		c10.2,2.19,18.25,10.24,20.44,20.44C375.08,1718.48,367.04,1710.43,364.85,1700.23z M377.71,1694.64
		c5.43-3.18,9.98-7.73,13.16-13.16c3.18,5.43,7.73,9.98,13.16,13.16c-5.43,3.18-9.98,7.73-13.16,13.16
		C387.69,1702.37,383.14,1697.82,377.71,1694.64z M435.65,1663.02c-5.43,3.18-9.98,7.73-13.16,13.16
		c-3.18-5.43-7.73-9.98-13.16-13.16c5.43-3.18,9.98-7.73,13.16-13.16C425.68,1655.29,430.22,1659.84,435.65,1663.02z
		 M428.08,1636.99c10.2,2.19,18.25,10.24,20.44,20.44C438.32,1655.24,430.27,1647.19,428.08,1636.99z M448.52,1668.61
		c-2.19,10.2-10.24,18.25-20.44,20.44C430.27,1678.85,438.32,1670.8,448.52,1668.61z M396.47,1657.43
		c2.19-10.2,10.24-18.25,20.44-20.44C414.71,1647.19,406.66,1655.24,396.47,1657.43z M416.9,1689.05
		c-10.2-2.19-18.25-10.24-20.44-20.44C406.66,1670.8,414.71,1678.85,416.9,1689.05z M416.9,1700.23
		c-2.19,10.2-10.24,18.25-20.44,20.44C398.65,1710.47,406.7,1702.42,416.9,1700.23z M416.9,1752.28
		c-10.2-2.19-18.25-10.24-20.44-20.44C406.66,1734.03,414.71,1742.08,416.9,1752.28z M409.33,1726.26
		c5.43-3.18,9.98-7.73,13.16-13.16c3.18,5.43,7.73,9.98,13.16,13.16c-5.43,3.18-9.98,7.73-13.16,13.16
		C419.31,1733.99,414.76,1729.44,409.33,1726.26z M448.52,1731.85c-2.19,10.2-10.24,18.25-20.44,20.44
		C430.27,1742.08,438.32,1734.03,448.52,1731.85z M428.08,1700.23c10.2,2.19,18.25,10.24,20.44,20.44
		C438.32,1718.48,430.27,1710.43,428.08,1700.23z M440.95,1694.64c5.43-3.18,9.98-7.73,13.16-13.16c3.18,5.43,7.73,9.98,13.16,13.16
		c-5.43,3.18-9.98,7.73-13.16,13.16C450.93,1702.37,446.38,1697.82,440.95,1694.64z M459.7,1668.61
		c10.2,2.19,18.25,10.24,20.44,20.44C469.94,1686.86,461.89,1678.81,459.7,1668.61z M480.14,1700.23
		c-2.19,10.2-10.24,18.25-20.44,20.44C461.89,1710.47,469.94,1702.42,480.14,1700.23z M480.14,1752.28
		c-10.2-2.19-18.25-10.24-20.44-20.44C469.9,1734.03,477.95,1742.08,480.14,1752.28z M486.01,1676.69
		c-3.2-5.66-7.84-10.39-13.44-13.67c4.33-2.54,8.09-5.95,11.05-9.98L486.01,1676.69z M459.7,1657.43
		c2.19-10.2,10.24-18.25,20.44-20.44C477.95,1647.19,469.9,1655.24,459.7,1657.43z M480.14,1625.81
		c-10.2-2.19-18.25-10.24-20.44-20.44C469.9,1607.56,477.95,1615.61,480.14,1625.81z M467.27,1631.4
		c-5.43,3.18-9.98,7.73-13.16,13.16c-3.18-5.43-7.73-9.98-13.16-13.16c5.43-3.18,9.98-7.73,13.16-13.16
		C457.29,1623.67,461.84,1628.22,467.27,1631.4z M448.52,1605.37c-2.19,10.2-10.24,18.25-20.44,20.44
		C430.27,1615.61,438.32,1607.56,448.52,1605.37z M431,1603.04c-3.39,2.77-6.28,6.12-8.51,9.91c-2.22-3.79-5.12-7.14-8.51-9.91H431z
		 M416.9,1625.81c-10.2-2.19-18.25-10.24-20.44-20.44C406.66,1607.56,414.71,1615.61,416.9,1625.81z M404.04,1631.4
		c-5.43,3.18-9.98,7.73-13.16,13.16c-3.18-5.43-7.73-9.98-13.16-13.16c5.43-3.18,9.98-7.73,13.16-13.16
		C394.06,1623.67,398.6,1628.22,404.04,1631.4z M385.28,1605.37c-2.19,10.2-10.24,18.25-20.44,20.44
		C367.04,1615.61,375.08,1607.56,385.28,1605.37z M367.76,1603.04c-3.39,2.77-6.28,6.12-8.51,9.91c-2.22-3.79-5.12-7.14-8.51-9.91
		H367.76z M353.67,1625.81c-10.2-2.19-18.25-10.24-20.44-20.44C343.43,1607.56,351.48,1615.61,353.67,1625.81z M340.8,1631.4
		c-5.43,3.18-9.98,7.73-13.16,13.16c-3.18-5.43-7.73-9.98-13.16-13.16c5.43-3.18,9.98-7.73,13.16-13.16
		C330.82,1623.67,335.37,1628.22,340.8,1631.4z M322.05,1605.37c-2.19,10.2-10.24,18.25-20.44,20.44
		C303.8,1615.61,311.85,1607.56,322.05,1605.37z M304.53,1603.04c-3.39,2.77-6.28,6.12-8.51,9.91c-2.22-3.79-5.12-7.14-8.51-9.91
		H304.53z M290.43,1625.81c-10.2-2.19-18.25-10.24-20.44-20.44C280.19,1607.56,288.24,1615.61,290.43,1625.81z M277.56,1631.4
		c-5.43,3.18-9.98,7.73-13.16,13.16c-3.18-5.43-7.73-9.98-13.16-13.16c5.43-3.18,9.98-7.73,13.16-13.16
		C267.59,1623.67,272.13,1628.22,277.56,1631.4z M258.81,1605.37c-2.19,10.2-10.24,18.25-20.44,20.44
		C240.56,1615.61,248.61,1607.56,258.81,1605.37z M241.29,1603.04c-3.39,2.77-6.28,6.12-8.51,9.91c-2.22-3.79-5.12-7.14-8.51-9.91
		H241.29z M227.19,1625.81c-10.2-2.19-18.25-10.24-20.44-20.44C216.96,1607.56,225,1615.61,227.19,1625.81z M214.33,1631.4
		c-5.43,3.18-9.98,7.73-13.16,13.16c-3.18-5.43-7.73-9.98-13.16-13.16c5.43-3.18,9.98-7.73,13.16-13.16
		C204.35,1623.67,208.89,1628.22,214.33,1631.4z M195.57,1605.37c-2.19,10.2-10.24,18.25-20.44,20.44
		C177.33,1615.61,185.38,1607.56,195.57,1605.37z M178.05,1603.04c-3.39,2.77-6.28,6.12-8.51,9.91c-2.22-3.79-5.12-7.14-8.51-9.91
		H178.05z M163.96,1625.81c-10.2-2.19-18.25-10.24-20.44-20.44C153.72,1607.56,161.77,1615.61,163.96,1625.81z M151.09,1631.4
		c-5.43,3.18-9.98,7.73-13.16,13.16c-3.18-5.43-7.73-9.98-13.16-13.16c5.43-3.18,9.98-7.73,13.16-13.16
		C141.11,1623.67,145.66,1628.22,151.09,1631.4z M132.34,1605.37c-2.19,10.2-10.24,18.25-20.44,20.44
		C114.09,1615.61,122.14,1607.56,132.34,1605.37z M132.34,1657.43c-10.2-2.19-18.25-10.24-20.44-20.44
		C122.1,1639.18,130.15,1647.23,132.34,1657.43z M108.47,1653.11c2.95,4,6.69,7.39,11,9.91c-5.57,3.26-10.19,7.96-13.38,13.57
		L108.47,1653.11z M103.11,1705.97c2.8,8.59,8.7,15.79,16.36,20.28c-9.38,5.5-16.11,15.04-17.77,26.22
		c-1.11-0.19-2.18-0.48-3.23-0.8L103.11,1705.97z M132.34,1731.85c-2.19,10.2-10.24,18.25-20.44,20.44
		C114.09,1742.08,122.14,1734.03,132.34,1731.85z M94.97,1786.24l2.21-21.75c1.46-0.53,2.97-0.94,4.53-1.22
		c1.37,9.22,6.19,17.32,13.1,22.97H94.97z M111.9,1763.47c10.2,2.19,18.25,10.24,20.44,20.44
		C122.14,1781.71,114.09,1773.66,111.9,1763.47z M124.77,1757.87c5.43-3.18,9.98-7.73,13.16-13.16c3.18,5.43,7.73,9.98,13.16,13.16
		c-5.43,3.18-9.98,7.73-13.16,13.16C134.75,1765.6,130.2,1761.06,124.77,1757.87z M143.52,1783.9c2.19-10.2,10.24-18.25,20.44-20.44
		C161.77,1773.66,153.72,1781.71,143.52,1783.9z M161.04,1786.24c3.39-2.77,6.28-6.12,8.51-9.91c2.22,3.79,5.12,7.14,8.51,9.91
		H161.04z M175.14,1763.47c10.2,2.19,18.25,10.24,20.44,20.44C185.38,1781.71,177.33,1773.66,175.14,1763.47z M188,1757.87
		c5.43-3.18,9.98-7.73,13.16-13.16c3.18,5.43,7.73,9.98,13.16,13.16c-5.43,3.18-9.98,7.73-13.16,13.16
		C197.98,1765.6,193.44,1761.06,188,1757.87z M206.76,1783.9c2.19-10.2,10.24-18.25,20.44-20.44
		C225,1773.66,216.96,1781.71,206.76,1783.9z M224.28,1786.24c3.39-2.77,6.28-6.12,8.51-9.91c2.22,3.79,5.12,7.14,8.51,9.91H224.28z
		 M238.37,1763.47c10.2,2.19,18.25,10.24,20.44,20.44C248.61,1781.71,240.56,1773.66,238.37,1763.47z M251.24,1757.87
		c5.43-3.18,9.98-7.73,13.16-13.16c3.18,5.43,7.73,9.98,13.16,13.16c-5.43,3.18-9.98,7.73-13.16,13.16
		C261.22,1765.6,256.67,1761.06,251.24,1757.87z M269.99,1783.9c2.19-10.2,10.24-18.25,20.44-20.44
		C288.24,1773.66,280.19,1781.71,269.99,1783.9z M287.51,1786.24c3.39-2.77,6.28-6.12,8.51-9.91c2.22,3.79,5.12,7.14,8.51,9.91
		H287.51z M301.61,1763.47c10.2,2.19,18.25,10.24,20.44,20.44C311.85,1781.71,303.8,1773.66,301.61,1763.47z M314.48,1757.87
		c5.43-3.18,9.98-7.73,13.16-13.16c3.18,5.43,7.73,9.98,13.16,13.16c-5.43,3.18-9.98,7.73-13.16,13.16
		C324.45,1765.6,319.91,1761.06,314.48,1757.87z M333.23,1783.9c2.19-10.2,10.24-18.25,20.44-20.44
		C351.48,1773.66,343.43,1781.71,333.23,1783.9z M350.75,1786.24c3.39-2.77,6.28-6.12,8.51-9.91c2.22,3.79,5.12,7.14,8.51,9.91
		H350.75z M364.85,1763.47c10.2,2.19,18.25,10.24,20.44,20.44C375.08,1781.71,367.04,1773.66,364.85,1763.47z M377.71,1757.87
		c5.43-3.18,9.98-7.73,13.16-13.16c3.18,5.43,7.73,9.98,13.16,13.16c-5.43,3.18-9.98,7.73-13.16,13.16
		C387.69,1765.6,383.14,1761.06,377.71,1757.87z M396.47,1783.9c2.19-10.2,10.24-18.25,20.44-20.44
		C414.71,1773.66,406.66,1781.71,396.47,1783.9z M413.99,1786.24c3.39-2.77,6.28-6.12,8.51-9.91c2.22,3.79,5.12,7.14,8.51,9.91
		H413.99z M428.08,1763.47c10.2,2.19,18.25,10.24,20.44,20.44C438.32,1781.71,430.27,1773.66,428.08,1763.47z M440.95,1757.87
		c5.43-3.18,9.98-7.73,13.16-13.16c3.18,5.43,7.73,9.98,13.16,13.16c-5.43,3.18-9.98,7.73-13.16,13.16
		C450.93,1765.6,446.38,1761.06,440.95,1757.87z M459.7,1783.9c2.19-10.2,10.24-18.25,20.44-20.44
		C477.95,1773.66,469.9,1781.71,459.7,1783.9z M477.23,1786.24c6.91-5.64,11.73-13.75,13.1-22.97c1.57,0.27,3.08,0.69,4.54,1.22
		l2.2,21.74h-19.84V1786.24z"/>
	<path class="st1" d="M71.01,1805.69h450.27 M70.76,2110.85h450.52 M70.76,1805.69v305.16 M521.28,1805.69l-0.52,305.16"/>
	<path class="st3" d="M619.78,2088.45l17.6-183.13c1.42-14.74,13.17-25.95,27.21-25.95h345.49c13.9,0,25.55,11.11,26.95,25.71
		l17.55,183.37H619.78L619.78,2088.45z"/>
</g>
<g id="_x34_x6_jagged">
	<path class="st4" d="M572.82,1021.24h-50.31l-23.7-224.65l-7.62-23.58c-0.78-2.4-3.01-4.03-5.53-4.03h-0.56
		c-2.52,0-4.75,1.62-5.52,4.02l-7.65,23.58L464.31,773c-0.78-2.4-3.01-4.03-5.53-4.03h-0.56c-2.52,0-4.75,1.62-5.52,4.02
		l-7.65,23.58l-7.62-23.58c-0.78-2.4-3.01-4.03-5.53-4.03h-0.55c-2.52,0-4.75,1.62-5.52,4.02l-7.65,23.58l-7.62-23.58
		c-0.78-2.4-3.01-4.03-5.53-4.03h-0.56c-2.52,0-4.75,1.62-5.52,4.02l-7.65,23.58l-7.62-23.58c-0.78-2.4-3.01-4.03-5.53-4.03h-0.56
		c-2.52,0-4.75,1.62-5.52,4.02l-7.65,23.58l-7.62-23.58c-0.78-2.4-3.01-4.03-5.53-4.03h-0.56c-2.52,0-4.75,1.62-5.52,4.02
		l-7.65,23.58l-7.62-23.58c-0.78-2.4-3.01-4.03-5.53-4.03h-0.56c-2.52,0-4.75,1.62-5.52,4.02l-7.65,23.58l-7.62-23.58
		c-0.78-2.4-3.01-4.03-5.53-4.03h-0.56c-2.52,0-4.75,1.62-5.52,4.02l-7.65,23.58l-7.62-23.58c-0.78-2.4-3.01-4.03-5.53-4.03h-0.56
		c-2.52,0-4.75,1.62-5.52,4.02l-7.65,23.58l-7.62-23.58c-0.78-2.4-3.01-4.03-5.53-4.03h-0.56c-2.52,0-4.75,1.62-5.52,4.02
		l-7.65,23.58l-7.62-23.58c-0.78-2.4-3.01-4.03-5.53-4.03h-0.56c-2.52,0-4.75,1.62-5.52,4.02l-7.65,23.58l-7.62-23.58
		c-0.78-2.4-3.01-4.03-5.53-4.03h-0.56c-2.52,0-4.75,1.62-5.52,4.02l-7.65,23.58l-7.62-23.58c-0.78-2.4-3.01-4.03-5.53-4.03h-0.56
		c-2.52,0-4.75,1.62-5.52,4.02l-7.65,23.58l-7.62-23.58c-0.78-2.4-3.01-4.03-5.53-4.03h-0.56c-2.52,0-4.75,1.62-5.52,4.02
		l-7.65,23.58l-7.62-23.58c-0.78-2.4-3.01-4.03-5.53-4.03h-0.56c-2.52,0-4.75,1.62-5.52,4.02l-7.65,23.58l-23.12,224.8H22.35
		c-12.07,0-21.85,9.78-21.85,21.85v258.82c0,12.07,9.78,21.85,21.85,21.85H72.5l20.19,178.4c1.67,14.59,14.01,25.6,28.69,25.6
		h351.71c14.65,0,26.98-10.97,28.68-25.52l20.72-178.48l0,0h50.31c11.98,0,21.69-9.71,21.69-21.69v-259.14
		C594.51,1030.95,584.8,1021.24,572.82,1021.24z"/>
	<path class="st1" d="M72.51,1019.67H523.3 M72.51,1325.67h450 M72.51,1019.67v306 M522.51,1019.67v306"/>
</g>
<g id="_x34_x6_dots">
	<path class="st3" d="M587.08,223.29l19.66-192.93c1.12-10.87,10.22-19.07,21.16-19.07h351.89c10.9,0,20,8.18,21.15,19.02
		l20.17,192.98H587.08z"/>
	<path class="st5" d="M542.05,231.81h-28.89l-21-200.94c-1.54-14.48-13.75-25.46-28.31-25.46H111.96
		c-14.59,0-26.82,11.03-28.32,25.54L63.17,231.81H34.52c-14,0-25.35,11.35-25.35,25.35v250.81c0,14,11.35,25.35,25.35,25.35h28.65
		L83.4,711.47c1.64,14.39,13.82,25.26,28.31,25.26h352.4c14.45,0,26.61-10.82,28.3-25.17l20.76-178.24h28.89
		c13.87,0,25.11-11.24,25.11-25.11V256.92C567.16,243.05,555.92,231.81,542.05,231.81z M109.62,167.86c-5.24,0-9.48-4.24-9.48-9.48
		s4.24-9.48,9.48-9.48s9.48,4.24,9.48,9.48C119.1,163.61,114.85,167.86,109.62,167.86z M109.62,85.68c-5.24,0-9.48-4.24-9.48-9.48
		c0-5.24,4.24-9.48,9.48-9.48s9.48,4.24,9.48,9.48C119.1,81.43,114.85,85.68,109.62,85.68z M135.09,208.95
		c-5.24,0-9.48-4.24-9.48-9.48s4.24-9.48,9.48-9.48s9.48,4.24,9.48,9.48C144.57,204.69,140.32,208.95,135.09,208.95z M135.09,126.77
		c-5.24,0-9.48-4.24-9.48-9.48s4.24-9.48,9.48-9.48s9.48,4.24,9.48,9.48C144.57,122.52,140.32,126.77,135.09,126.77z M135.1,44.59
		c-5.24,0-9.48-4.24-9.48-9.48s4.24-9.48,9.48-9.48s9.48,4.24,9.48,9.48C144.58,40.34,140.32,44.59,135.1,44.59z M160.6,167.86
		c-5.24,0-9.48-4.24-9.48-9.48s4.24-9.48,9.48-9.48s9.48,4.24,9.48,9.48C170.08,163.61,165.82,167.86,160.6,167.86z M160.6,85.68
		c-5.24,0-9.48-4.24-9.48-9.48c0-5.24,4.24-9.48,9.48-9.48s9.48,4.24,9.48,9.48C170.08,81.43,165.82,85.68,160.6,85.68z
		 M186.07,208.95c-5.24,0-9.48-4.24-9.48-9.48s4.24-9.48,9.48-9.48s9.48,4.24,9.48,9.48C195.55,204.69,191.3,208.95,186.07,208.95z
		 M186.07,126.77c-5.24,0-9.48-4.24-9.48-9.48s4.24-9.48,9.48-9.48s9.48,4.24,9.48,9.48C195.55,122.52,191.3,126.77,186.07,126.77z
		 M186.08,44.59c-5.24,0-9.48-4.24-9.48-9.48s4.24-9.48,9.48-9.48s9.48,4.24,9.48,9.48C195.56,40.34,191.3,44.59,186.08,44.59z
		 M211.58,167.86c-5.24,0-9.48-4.24-9.48-9.48s4.24-9.48,9.48-9.48s9.48,4.24,9.48,9.48C221.06,163.61,216.8,167.86,211.58,167.86z
		 M211.58,85.68c-5.24,0-9.48-4.24-9.48-9.48c0-5.24,4.24-9.48,9.48-9.48s9.48,4.24,9.48,9.48
		C221.06,81.43,216.8,85.68,211.58,85.68z M237.04,208.95c-5.24,0-9.48-4.24-9.48-9.48s4.24-9.48,9.48-9.48s9.48,4.24,9.48,9.48
		C246.52,204.69,242.27,208.95,237.04,208.95z M237.04,126.77c-5.24,0-9.48-4.24-9.48-9.48s4.24-9.48,9.48-9.48s9.48,4.24,9.48,9.48
		C246.52,122.52,242.27,126.77,237.04,126.77z M237.04,44.59c-5.24,0-9.48-4.24-9.48-9.48s4.24-9.48,9.48-9.48s9.48,4.24,9.48,9.48
		C246.52,40.34,242.28,44.59,237.04,44.59z M262.55,167.86c-5.24,0-9.48-4.24-9.48-9.48s4.24-9.48,9.48-9.48s9.48,4.24,9.48,9.48
		C272.02,163.61,267.79,167.86,262.55,167.86z M262.55,85.68c-5.24,0-9.48-4.24-9.48-9.48c0-5.24,4.24-9.48,9.48-9.48
		s9.48,4.24,9.48,9.48C272.02,81.43,267.79,85.68,262.55,85.68z M288.02,208.95c-5.24,0-9.48-4.24-9.48-9.48s4.24-9.48,9.48-9.48
		s9.48,4.24,9.48,9.48C297.49,204.69,293.26,208.95,288.02,208.95z M288.02,126.77c-5.24,0-9.48-4.24-9.48-9.48s4.24-9.48,9.48-9.48
		s9.48,4.24,9.48,9.48C297.49,122.52,293.26,126.77,288.02,126.77z M288.02,44.59c-5.24,0-9.48-4.24-9.48-9.48s4.24-9.48,9.48-9.48
		s9.48,4.24,9.48,9.48C297.51,40.34,293.27,44.59,288.02,44.59z M313.52,167.86c-5.24,0-9.48-4.24-9.48-9.48s4.24-9.48,9.48-9.48
		s9.48,4.24,9.48,9.48C323.01,163.61,318.77,167.86,313.52,167.86z M313.52,85.68c-5.24,0-9.48-4.24-9.48-9.48
		c0-5.24,4.24-9.48,9.48-9.48s9.48,4.24,9.48,9.48C323.01,81.43,318.77,85.68,313.52,85.68z M338.99,208.95
		c-5.24,0-9.48-4.24-9.48-9.48s4.24-9.48,9.48-9.48s9.48,4.24,9.48,9.48C348.48,204.69,344.24,208.95,338.99,208.95z M338.99,126.77
		c-5.24,0-9.48-4.24-9.48-9.48s4.24-9.48,9.48-9.48s9.48,4.24,9.48,9.48C348.48,122.52,344.24,126.77,338.99,126.77z M339.01,44.59
		c-5.24,0-9.48-4.24-9.48-9.48s4.24-9.48,9.48-9.48s9.48,4.24,9.48,9.48C348.49,40.34,344.24,44.59,339.01,44.59z M364.51,167.86
		c-5.24,0-9.48-4.24-9.48-9.48s4.24-9.48,9.48-9.48s9.48,4.24,9.48,9.48C373.99,163.61,369.74,167.86,364.51,167.86z M364.51,85.68
		c-5.24,0-9.48-4.24-9.48-9.48c0-5.24,4.24-9.48,9.48-9.48s9.48,4.24,9.48,9.48C373.99,81.43,369.74,85.68,364.51,85.68z
		 M389.98,208.95c-5.24,0-9.48-4.24-9.48-9.48s4.24-9.48,9.48-9.48s9.48,4.24,9.48,9.48C399.46,204.69,395.21,208.95,389.98,208.95z
		 M389.98,126.77c-5.24,0-9.48-4.24-9.48-9.48s4.24-9.48,9.48-9.48s9.48,4.24,9.48,9.48C399.46,122.52,395.21,126.77,389.98,126.77z
		 M389.99,44.59c-5.24,0-9.48-4.24-9.48-9.48s4.24-9.48,9.48-9.48s9.48,4.24,9.48,9.48C399.46,40.34,395.23,44.59,389.99,44.59z
		 M415.49,167.86c-5.24,0-9.48-4.24-9.48-9.48s4.24-9.48,9.48-9.48s9.48,4.24,9.48,9.48C424.96,163.61,420.73,167.86,415.49,167.86z
		 M415.49,85.68c-5.24,0-9.48-4.24-9.48-9.48c0-5.24,4.24-9.48,9.48-9.48s9.48,4.24,9.48,9.48
		C424.96,81.43,420.73,85.68,415.49,85.68z M440.96,208.95c-5.24,0-9.48-4.24-9.48-9.48s4.24-9.48,9.48-9.48
		c5.24,0,9.48,4.24,9.48,9.48C450.43,204.69,446.2,208.95,440.96,208.95z M440.96,126.77c-5.24,0-9.48-4.24-9.48-9.48
		s4.24-9.48,9.48-9.48c5.24,0,9.48,4.24,9.48,9.48C450.43,122.52,446.2,126.77,440.96,126.77z M440.96,44.59
		c-5.24,0-9.48-4.24-9.48-9.48s4.24-9.48,9.48-9.48c5.24,0,9.48,4.24,9.48,9.48C450.45,40.34,446.2,44.59,440.96,44.59z
		 M466.46,167.86c-5.24,0-9.48-4.24-9.48-9.48s4.24-9.48,9.48-9.48c5.24,0,9.48,4.24,9.48,9.48
		C475.95,163.61,471.7,167.86,466.46,167.86z M466.46,85.68c-5.24,0-9.48-4.24-9.48-9.48c0-5.24,4.24-9.48,9.48-9.48
		c5.24,0,9.48,4.24,9.48,9.48C475.95,81.43,471.7,85.68,466.46,85.68z"/>
	<path class="st1" d="M62.9,232.15l450.52-3.32 M62.9,534.83h450.52 M62.9,232.15v302.68 M513.42,228.83l-0.52,306"/>
</g>
<g id="_x34_x6_hearts">
	<path class="st6" d="M1978.99,225.51l-21-199.55c-1.54-14.48-13.75-25.46-28.31-25.46h-351.89c-14.59,0-26.82,11.03-28.32,25.54
		L1529,225.51h-28.65c-14,0-25.35,11.35-25.35,25.35v251.82c0,14,11.35,25.35,25.35,25.35H1529l20.23,178.53
		c1.64,14.39,13.82,25.26,28.31,25.26h352.4c14.45,0,26.61-10.82,28.3-25.17L1979,528.04h28.89c13.87,0,25.11-11.24,25.11-25.11
		V250.62c0-13.87-11.24-25.11-25.11-25.11H1978.99L1978.99,225.51z M1946.97,194.78h-14.03c0.98-0.41,1.9-0.94,2.78-1.6
		c2.26-1.7,3.77-4.03,4.5-6.91c1.99,0.79,3.98,1.08,5.95,0.87L1946.97,194.78z M1945.63,182.17c-1.22,0.13-2.46-0.08-3.75-0.62
		c-0.71-0.3-1.41-0.71-2.14-1.24c-0.03-0.02-0.12-0.09-0.16-0.11c-0.75-0.5-1.74-0.56-2.54-0.15s-1.34,1.21-1.38,2.12
		c-0.01,0.12-0.01,0.2,0,0.29c0,0.84-0.08,1.65-0.25,2.4c-0.43,1.87-1.32,3.28-2.71,4.33c-1.54,1.17-3.3,1.68-5.41,1.6
		c-1.31-0.06-2.49-0.39-3.6-1.01l-0.47-0.27l-0.55-0.42c-0.05-0.05-0.11-0.11-0.17-0.16c-0.55-0.49-0.98-1.01-1.29-1.59
		c-0.92-1.73-1.38-3.54-1.4-5.55c-0.02-1.54,0.26-3.19,0.86-5.07c0.61-1.93,1.46-3.84,2.34-5.79l0.42-0.91
		c0.76-1.65,1.54-3.36,2.23-5.11c0.6-1.52,1.08-2.94,1.44-4.32c1.33,0.51,2.77,0.96,4.34,1.36c1.82,0.47,3.65,0.83,5.43,1.19l1,0.2
		c2.04,0.41,4.03,0.84,5.91,1.45L1945.63,182.17z M1682.44,64.95c-0.1-0.3-0.23-0.6-0.35-0.9c0.02,0.02,0.04,0.05,0.07,0.08
		l0.89,0.85c0.07,0.07,0.15,0.14,0.23,0.2l0.68,0.51c1.83,1.34,3.92,2.21,6.2,2.58c3.55,0.57,6.85-0.01,9.81-1.73
		c2.78-1.62,4.78-4.08,5.94-7.29c0.01-0.01,0.01-0.03,0.02-0.04c0.01,0.01,0.03,0.02,0.04,0.02c2.97,1.69,6.08,2.25,9.26,1.68
		c0.55-0.1,1.09-0.24,1.62-0.4c-2.81,3.12-4.99,6.23-6.59,9.44c-1.98,3.97-3.17,8.13-3.57,12.41c-0.98-2.62-1.64-4.94-2.02-7.19
		l-0.08-0.5c-0.13-0.78-0.62-1.46-1.33-1.82c-0.36-0.18-0.75-0.27-1.14-0.27c-0.38,0-0.76,0.09-1.11,0.26l-0.46,0.23
		c-2.29,1.13-4.83,2.04-8,2.85c-2.27,0.58-4.63,1.05-6.92,1.51l-1.29,0.26c-1.04,0.21-2.06,0.43-3.09,0.65l0.39-0.59
		c0.09-0.14,0.17-0.29,0.24-0.45c0.66-1.2,1.1-2.44,1.3-3.71C1683.65,70.69,1683.4,67.78,1682.44,64.95z M1824.73,73.75
		c0.2,1.26,0.64,2.51,1.3,3.71c0.06,0.16,0.14,0.31,0.24,0.45l0.39,0.59c-1.02-0.23-2.05-0.44-3.09-0.65l-1.3-0.26
		c-2.28-0.46-4.64-0.93-6.9-1.51c-3.16-0.81-5.71-1.72-8-2.85l-0.45-0.23c-0.35-0.18-0.73-0.26-1.12-0.26s-0.78,0.09-1.14,0.27
		c-0.71,0.36-1.2,1.03-1.33,1.82l-0.08,0.51c-0.38,2.23-1.03,4.54-2,7.13c-0.38-4.38-1.57-8.64-3.59-12.69
		c-1.52-3.05-3.56-6.01-6.17-8.98c0.4,0.11,0.8,0.2,1.21,0.27c3.17,0.58,6.29,0.01,9.25-1.68c0.01-0.01,0.03-0.02,0.04-0.02
		c0,0.01,0.01,0.03,0.01,0.04c1.16,3.22,3.16,5.67,5.94,7.29c2.96,1.73,6.26,2.31,9.81,1.73c2.29-0.37,4.37-1.24,6.2-2.58l0.68-0.5
		c0.08-0.06,0.16-0.13,0.24-0.2l0.88-0.85c0.03-0.02,0.04-0.06,0.07-0.08c-0.12,0.3-0.25,0.6-0.35,0.9
		C1824.52,67.95,1824.27,70.86,1824.73,73.75z M1940.15,142.48c0,0.04,0,0.09,0,0.14l-0.15,0.77c-0.22,0.8-0.6,1.49-1.18,2.13
		c-0.93,1.02-1.98,1.6-3.23,1.78c-1.11,0.16-2.14-0.07-3.21-0.74c-0.44-0.27-0.86-0.61-1.29-1.04c-0.04-0.04-0.12-0.11-0.16-0.15
		c-0.67-0.6-1.63-0.8-2.48-0.51c-0.85,0.29-1.49,1.01-1.66,1.9c-0.01,0.05-0.03,0.19-0.04,0.24c-0.08,0.54-0.22,1.06-0.41,1.54
		c-0.46,1.16-1.17,1.97-2.15,2.5c-1.11,0.6-2.31,0.75-3.66,0.48c-0.84-0.17-1.57-0.5-2.21-1.01l-0.28-0.22l-0.29-0.3
		c-0.03-0.04-0.07-0.09-0.11-0.13c-0.3-0.35-0.51-0.71-0.64-1.09c-0.44-1.25-0.55-2.52-0.36-3.87c0.15-1.05,0.52-2.15,1.13-3.38
		c0.64-1.3,1.46-2.57,2.31-3.86l0.4-0.6c0.74-1.12,1.51-2.29,2.22-3.5c0.48-0.82,0.9-1.61,1.27-2.38c0.75,0.4,1.56,0.79,2.43,1.16
		c1.29,0.55,2.59,1.03,3.85,1.49l0.68,0.25c1.45,0.54,2.86,1.07,4.15,1.74c1.24,0.64,2.16,1.29,2.92,2.05
		c0.96,0.97,1.61,2.06,2,3.32l0,0C1940.13,141.59,1940.17,142.01,1940.15,142.48z M1876.03,168.79c0.32-2.46,0.22-4.85-0.29-7.09
		l0,0c-0.2-0.89-0.46-1.77-0.73-2.64c1.56,0.82,3.24,1.34,5.03,1.52c1.84,0.18,3.63-0.03,5.36-0.61c-0.59,0.93-1.27,1.9-2.07,2.92
		c-1.1,1.41-2.25,2.74-3.48,4.15l-0.66,0.76c-1.44,1.66-2.82,3.31-4.07,5.11c0.05-0.15,0.11-0.3,0.16-0.46l0.16-0.46
		c0.03-0.1,0.06-0.2,0.08-0.3l0.48-2.28c0.04-0.18,0.06-0.36,0.05-0.54C1876.03,168.87,1876.03,168.83,1876.03,168.79z
		 M1880.53,155.61c-2.13-0.21-3.96-1.11-5.6-2.76c-1.03-1.03-1.73-2.19-2.17-3.53l-0.18-0.58l-0.14-0.76c0-0.07-0.01-0.14-0.01-0.21
		c-0.09-0.86-0.04-1.61,0.14-2.32c0.53-2.05,1.54-3.91,3-5.52c1.13-1.25,2.58-2.37,4.45-3.44c1.91-1.09,3.99-1.99,6.13-2.89
		l0.99-0.41c1.81-0.76,3.69-1.54,5.52-2.42c1.66-0.8,3.15-1.62,4.49-2.48c0.7,1.43,1.54,2.91,2.54,4.45
		c1.1,1.71,2.29,3.35,3.45,4.94l0.63,0.87c1.36,1.88,2.67,3.73,3.73,5.66c1.04,1.88,1.7,3.6,2.01,5.25c0.41,2.14,0.3,4.25-0.31,6.28
		c-0.21,0.71-0.57,1.38-1.08,2.04c-0.04,0.06-0.09,0.12-0.13,0.18l-0.56,0.62l-0.41,0.36c-1.07,0.93-2.28,1.54-3.69,1.89
		c-2.25,0.55-4.28,0.37-6.21-0.56c-1.74-0.84-3.02-2.18-3.89-4.12c-0.35-0.78-0.62-1.63-0.8-2.6c-0.01-0.04-0.03-0.16-0.04-0.2
		c-0.22-0.87-0.9-1.59-1.76-1.83c-0.87-0.24-1.81-0.02-2.44,0.61c-0.08,0.08-0.13,0.13-0.17,0.18c-0.66,0.73-1.33,1.32-2.03,1.79
		C1884.24,155.31,1882.46,155.8,1880.53,155.61z M1847.93,96.79c0-0.17-0.02-0.34-0.06-0.51c0-0.01,0-0.02-0.01-0.02
		c-0.17-1.61-0.59-3.12-1.25-4.47c-1.42-2.92-3.45-5.42-6.03-7.46c0.66-0.11,1.31-0.26,1.96-0.47c2.94-0.95,5.31-2.82,7.07-5.58
		c2.09,1.86,4.45,2.98,7.03,3.32l-0.16,0.5c-0.87,2.78-2.13,5.58-3.95,8.81c-1.3,2.31-2.76,4.6-4.17,6.83l-0.41,0.64
		c0-0.04,0.01-0.09,0.01-0.13L1847.93,96.79z M1844.65,117.58c0.31-2.4,1.1-4.92,2.41-7.69c1.33-2.8,2.99-5.48,4.72-8.21l0.8-1.25
		c1.45-2.28,2.95-4.63,4.31-7.06c1.44-2.55,2.59-4.95,3.48-7.25c2.13,1.26,4.52,2.42,7.23,3.53c2.58,1.06,5.21,1.97,7.77,2.86
		l1.4,0.49c3.05,1.07,6.03,2.14,8.8,3.51c2.75,1.36,4.93,2.84,6.67,4.54c2.26,2.21,3.89,4.81,4.84,7.74l0,0
		c0.35,1.08,0.5,2.23,0.44,3.51c0,0.1,0,0.2,0,0.3l-0.19,1.4c-0.05,0.23-0.11,0.45-0.17,0.67c-0.51,2.01-1.49,3.84-2.9,5.44
		c-2.26,2.57-4.89,4.07-8.04,4.58c-2.86,0.46-5.58-0.1-8.3-1.71c-1.08-0.64-2.1-1.44-3.14-2.44c-0.07-0.06-0.12-0.11-0.2-0.18
		c-0.68-0.59-1.64-0.78-2.48-0.49c-0.85,0.3-1.49,1.01-1.65,1.89c-0.03,0.13-0.04,0.2-0.05,0.27c-0.19,1.46-0.5,2.72-0.95,3.89
		c-1.13,2.96-2.91,5.08-5.44,6.49c-2.78,1.55-5.77,2.01-9.15,1.4c-2.1-0.38-4-1.21-5.64-2.47c-0.2-0.15-0.4-0.31-0.59-0.46
		l-0.12-0.09l-0.85-0.85c-0.06-0.08-0.12-0.17-0.19-0.25c-0.83-0.96-1.43-1.95-1.82-3.01
		C1844.58,123.77,1844.24,120.71,1844.65,117.58z M1870.95,77.46c0,0.18,0.02,0.35,0.06,0.52l0.29,1.29c0.02,0.1,0.05,0.2,0.08,0.29
		l0.31,0.86c0.84,2.27,2.19,4.26,4,5.93c0.71,0.65,1.45,1.23,2.22,1.73l-0.9-0.32c-2.49-0.87-5.06-1.76-7.51-2.76
		c-2.93-1.2-5.34-2.41-7.49-3.76c1.78-0.48,3.47-1.32,5.06-2.53c1.63-1.25,2.91-2.79,3.84-4.56
		C1870.78,75.23,1870.79,76.33,1870.95,77.46z M1895.73,97.46c-2.12-2.07-4.72-3.85-7.95-5.45c-1.15-0.57-2.33-1.07-3.51-1.56
		c0.38,0.05,0.77,0.09,1.17,0.11c3.42,0.19,6.63-0.82,9.55-3c0.08-0.06,0.15-0.11,0.23-0.17c0.04,0.09,0.08,0.17,0.13,0.25
		c1.65,3.24,4.09,5.57,7.24,6.91c3.35,1.43,6.92,1.6,10.6,0.52c0.28-0.08,0.55-0.2,0.82-0.29c-0.45,0.44-0.92,0.88-1.43,1.35
		c-1.24,1.1-2.52,2.12-3.88,3.21l-0.74,0.59c-1.71,1.36-3.37,2.72-4.91,4.29c-0.6,0.61-1.12,1.22-1.61,1.83
		C1900.17,102.83,1898.27,99.94,1895.73,97.46z M1903.69,126.65c2.72,1.53,5.58,2.04,8.51,1.51c2.63-0.47,4.9-1.77,6.75-3.85
		c0.57,0.64,1.19,1.19,1.84,1.68c-0.17,0.22-0.32,0.46-0.41,0.73l-0.09,0.27c-0.42,1.26-1.03,2.55-1.9,4.05
		c-0.64,1.09-1.34,2.15-2.08,3.27l-0.4,0.61c-0.94,1.43-1.85,2.84-2.62,4.39c-0.51,1.02-0.88,2-1.16,2.95
		c-0.08-0.15-0.15-0.3-0.23-0.46c-1.2-2.18-2.6-4.16-4.06-6.17l-0.64-0.88c-1.11-1.54-2.27-3.12-3.29-4.72
		c-1.27-1.96-2.19-3.7-2.91-5.42C1901.8,125.39,1902.69,126.08,1903.69,126.65z M1866.46,136.76c3.55-1.98,6.14-5.03,7.68-9.07
		c0.12-0.33,0.24-0.66,0.35-0.99c0.29,0.2,0.59,0.38,0.89,0.56c2.31,1.38,4.71,2.2,7.15,2.47c-1.69,0.73-3.35,1.5-4.96,2.43
		c-2.33,1.33-4.19,2.78-5.68,4.42c-2.01,2.22-3.4,4.78-4.14,7.62c-0.17,0.65-0.27,1.32-0.32,2.01c-2.43-2.59-5.4-4.95-9.01-7.19
		C1861.26,138.9,1863.95,138.16,1866.46,136.76z M1910.32,162.73c0.15-0.13,0.31-0.27,0.46-0.41l0.15-0.13
		c0.08-0.07,0.15-0.14,0.21-0.21l0.78-0.88c0.11-0.13,0.21-0.27,0.3-0.42c0.82-1.1,1.42-2.28,1.79-3.49l0,0
		c0.32-1.05,0.54-2.12,0.66-3.2c0.03,0.03,0.07,0.07,0.1,0.09l0.44,0.35c1.26,1,2.72,1.67,4.33,1.99c1.13,0.23,2.24,0.27,3.3,0.16
		c-0.01,0.03-0.02,0.05-0.02,0.07l-0.06,0.39c-0.32,1.87-0.88,3.79-1.76,6.04c-0.64,1.63-1.36,3.2-2.12,4.86l-0.42,0.92
		c-0.95,2.09-1.87,4.16-2.56,6.36c-0.13,0.4-0.22,0.78-0.33,1.17c-0.59-1.68-1.44-3.25-2.54-4.72c-1.27-1.68-2.9-3.2-4.99-4.65
		c-0.84-0.58-1.69-1.11-2.56-1.62C1907.28,164.84,1908.91,163.96,1910.32,162.73z M1926.59,123.19c-1.6-0.28-2.94-1.07-4.09-2.44
		c-0.47-0.55-0.88-1.19-1.26-1.94l-0.12-0.22c-0.45-0.78-1.29-1.27-2.18-1.24c-0.9,0.01-1.72,0.5-2.16,1.28
		c-0.05,0.09-0.08,0.15-0.12,0.21c-0.37,0.74-0.78,1.38-1.24,1.94c-1.15,1.37-2.48,2.18-4.08,2.46c-1.78,0.32-3.47,0.01-5.18-0.95
		c-1.07-0.6-1.91-1.37-2.57-2.36l-0.56-1c-0.02-0.07-0.05-0.14-0.08-0.21c-0.25-0.63-0.39-1.24-0.4-1.85
		c-0.04-1.84,0.35-3.55,1.18-5.24c0.64-1.3,1.58-2.57,2.88-3.89c1.35-1.38,2.88-2.62,4.46-3.89l0.74-0.59
		c1.35-1.08,2.75-2.19,4.09-3.38c1.12-1,2.11-1.97,2.99-2.94c0.89,0.97,1.88,1.94,3.01,2.92c1.34,1.18,2.74,2.28,4.1,3.34l0.76,0.6
		c1.59,1.26,3.13,2.5,4.48,3.86c1.3,1.32,2.25,2.58,2.9,3.88c0.85,1.68,1.24,3.4,1.21,5.23l0,0c-0.01,0.61-0.14,1.22-0.4,1.88
		c-0.02,0.05-0.04,0.11-0.06,0.17l-0.29,0.61l-0.26,0.4c-0.65,1-1.49,1.78-2.56,2.38C1930.06,123.17,1928.37,123.49,1926.59,123.19z
		 M1918.31,84.03c-0.21,0.84-0.59,1.65-1.16,2.46c-0.05,0.06-0.09,0.14-0.13,0.21l-0.64,0.77l-0.45,0.43
		c-1.17,1.11-2.58,1.91-4.18,2.38c-2.57,0.76-4.94,0.65-7.23-0.33c-2.07-0.88-3.62-2.38-4.74-4.58c-0.45-0.88-0.79-1.84-1.06-2.95
		l-0.06-0.24c-0.26-0.86-0.96-1.54-1.84-1.74s-1.8,0.07-2.41,0.74c-0.08,0.09-0.13,0.15-0.18,0.2c-0.72,0.87-1.46,1.58-2.25,2.17
		c-1.98,1.48-4.04,2.13-6.28,2.01c-2.48-0.14-4.65-1.08-6.63-2.9c-1.23-1.13-2.13-2.47-2.7-3.98l-0.24-0.66l-0.2-0.89
		c-0.01-0.09-0.01-0.18-0.03-0.27c-0.15-0.96-0.13-1.85,0.05-2.7c0.51-2.38,1.57-4.57,3.17-6.5c1.23-1.49,2.83-2.85,4.91-4.16
		c2.12-1.34,4.42-2.46,6.79-3.58l1.08-0.51c2-0.94,4.07-1.92,6.08-3c1.94-1.04,3.65-2.1,5.18-3.2c0.89,1.66,1.95,3.37,3.23,5.16
		c1.33,1.86,2.75,3.66,4.14,5.39l0.74,0.93c1.63,2.06,3.2,4.08,4.51,6.21c1.28,2.09,2.12,4.02,2.56,5.9
		C1918.92,79.24,1918.91,81.67,1918.31,84.03z M1881.36,59.3c-2.52,1.6-4.52,3.3-6.09,5.2c-1.2,1.45-2.17,3.03-2.91,4.7
		c0.05-0.7,0.04-1.38-0.04-2.05c-0.35-2.91-1.38-5.64-3.07-8.11c-1.07-1.56-2.44-3.01-4.14-4.42c0.56,0.13,1.13,0.21,1.72,0.25
		c2.13,0.13,4.15-0.4,6-1.57c1.12,1.89,2.68,3.27,4.64,4.12c1.86,0.8,3.81,1.05,5.81,0.75C1882.64,58.51,1882,58.89,1881.36,59.3z
		 M1865.13,61.86c1.23,1.8,1.98,3.77,2.23,5.88l0,0c0.09,0.73,0.03,1.49-0.17,2.31c-0.02,0.08-0.04,0.15-0.05,0.23l-0.25,0.75
		l-0.25,0.53c-0.61,1.27-1.47,2.32-2.62,3.2c-1.84,1.4-3.76,2.05-5.92,1.97c-1.93-0.07-3.64-0.79-5.21-2.21
		c-0.63-0.57-1.21-1.24-1.78-2.06c-0.03-0.04-0.1-0.14-0.13-0.18c-0.55-0.71-1.45-1.09-2.34-0.96c-0.89,0.12-1.65,0.69-1.99,1.53
		l-0.08,0.21c-0.33,0.97-0.7,1.77-1.16,2.49c-1.13,1.8-2.58,2.96-4.41,3.55c-2.04,0.66-4.08,0.56-6.23-0.29
		c-1.35-0.54-2.46-1.31-3.4-2.37l-0.4-0.46l-0.43-0.64c-0.03-0.06-0.06-0.13-0.1-0.2c-0.42-0.74-0.68-1.45-0.79-2.18
		c-0.33-2.09-0.15-4.2,0.54-6.26c0.54-1.6,1.42-3.21,2.7-4.93c1.32-1.77,2.86-3.42,4.46-5.1l0.74-0.77
		c1.36-1.42,2.77-2.89,4.09-4.43c1.2-1.4,2.23-2.75,3.12-4.07c1.21,1.03,2.58,2.05,4.11,3.07c1.69,1.12,3.43,2.14,5.12,3.14
		l0.95,0.56c2,1.18,3.94,2.35,5.69,3.69C1862.89,59.15,1864.18,60.47,1865.13,61.86z M1830.69,84.75c2.55,0.85,4.62,1.87,6.32,3.13
		c2.21,1.63,3.93,3.69,5.1,6.1l0,0c0.42,0.87,0.68,1.83,0.78,2.92c0.01,0.09,0.02,0.18,0.04,0.26l0.02,1.03l-0.08,0.77
		c-0.2,1.78-0.82,3.46-1.83,5c-1.64,2.47-3.71,4.07-6.34,4.88c-2.39,0.73-4.77,0.57-7.29-0.49c-1-0.42-1.98-0.99-2.99-1.73
		c-0.05-0.04-0.12-0.08-0.21-0.14c-0.75-0.49-1.73-0.55-2.52-0.14c-0.8,0.41-1.33,1.21-1.37,2.1c-0.01,0.13-0.01,0.2-0.01,0.26
		c0.01,1.27-0.11,2.4-0.35,3.46c-0.62,2.66-1.89,4.69-3.88,6.19c-2.2,1.66-4.72,2.4-7.67,2.28c-1.84-0.08-3.57-0.56-5.12-1.44
		l-0.68-0.39l-0.82-0.62c-0.06-0.06-0.12-0.12-0.19-0.18c-0.83-0.73-1.46-1.5-1.92-2.35c-1.27-2.37-1.92-4.96-1.95-7.71
		c-0.02-2.12,0.36-4.39,1.17-6.95c0.82-2.61,1.95-5.15,3.14-7.75l0.55-1.2c1-2.18,2.02-4.43,2.93-6.72c0.91-2.3,1.6-4.45,2.11-6.5
		c1.95,0.79,4.1,1.49,6.5,2.1c2.39,0.61,4.82,1.1,7.16,1.57l1.29,0.26C1825.38,83.31,1828.1,83.89,1830.69,84.75z M1840.96,128.39
		c0.32,0.86,0.74,1.7,1.24,2.51c-3.09-1.4-6.24-2.85-9.25-4.41c-4.39-2.28-7.91-4.5-11.01-6.94c1.37-1.77,2.34-3.86,2.89-6.25
		c0.04-0.19,0.08-0.37,0.12-0.56c0.17,0.08,0.35,0.16,0.52,0.23c3.59,1.51,7.19,1.74,10.7,0.66c1.82-0.56,3.48-1.41,4.96-2.52
		c-0.72,2.01-1.21,3.94-1.45,5.84C1839.18,120.88,1839.61,124.74,1840.96,128.39z M1802.84,127.72c-0.36-1.29-0.78-2.55-1.24-3.79
		c2.04,1.02,4.25,1.61,6.59,1.7c2.01,0.09,3.91-0.14,5.7-0.66c-1.26,2.36-2.76,4.78-4.56,7.4c-2.04,2.96-4.28,5.88-6.47,8.72
		c0.57-1.73,0.91-3.55,0.99-5.43C1803.97,133.2,1803.64,130.6,1802.84,127.72z M1798.02,129.06c0.66,2.36,0.93,4.45,0.84,6.38
		c-0.11,2.5-0.79,4.83-2.02,6.94c-0.44,0.75-1.02,1.42-1.79,2.04c-0.06,0.05-0.13,0.11-0.19,0.17l-0.85,0.58l-0.52,0.28
		c-1.45,0.75-2.98,1.13-4.67,1.14c-0.03,0-0.06,0-0.09,0c-2.64,0-4.86-0.75-6.77-2.3c-1.75-1.42-2.83-3.29-3.3-5.71
		c-0.19-0.97-0.26-1.99-0.21-3.13c0-0.05,0-0.17,0-0.22c-0.01-0.9-0.5-1.75-1.29-2.19s-1.75-0.44-2.51,0.02
		c-0.1,0.06-0.16,0.1-0.22,0.14c-0.95,0.65-1.85,1.13-2.77,1.48c-2.31,0.88-4.46,0.95-6.59,0.21c-2.35-0.81-4.17-2.32-5.57-4.61
		c-0.87-1.42-1.37-2.96-1.5-4.57l-0.05-0.7l0.05-0.91c0.02-0.08,0.03-0.16,0.04-0.24c0.13-0.99,0.39-1.84,0.79-2.61
		c1.14-2.15,2.77-3.96,4.83-5.38c1.59-1.09,3.51-1.96,5.86-2.65c2.4-0.7,4.92-1.15,7.51-1.57l1.2-0.2c2.18-0.35,4.43-0.72,6.65-1.21
		c2.15-0.47,4.09-1.02,5.86-1.65c0.39,1.84,0.95,3.78,1.68,5.85c0.76,2.14,1.63,4.24,2.47,6.27l0.48,1.15
		C1796.4,124.27,1797.35,126.64,1798.02,129.06z M1771.68,146.73c-0.05-0.09-0.11-0.18-0.16-0.28c-0.78-1.52-1.85-2.98-3.29-4.44
		c-0.6-0.62-1.23-1.19-1.87-1.75c2.32,0.28,4.69-0.02,7.08-0.92c0.09-0.03,0.18-0.07,0.26-0.1c0.02,0.09,0.03,0.19,0.05,0.28
		c0.7,3.57,2.4,6.48,5.06,8.64c2.83,2.3,6.22,3.46,10.04,3.42c2.47-0.02,4.8-0.59,6.94-1.7l0.77-0.41
		c-1.29,1.83-2.53,3.68-3.67,5.62c-2.57,4.35-4.26,8.43-5.15,12.47c-0.29,1.32-0.5,2.64-0.64,3.95c-0.03-0.03-0.05-0.06-0.08-0.1
		c-1.26-1.29-2.81-2.4-4.73-3.39c-1.76-0.92-3.56-1.61-5.4-2.3l-0.79-0.29c-1.46-0.54-2.83-1.05-4.19-1.64s-2.5-1.18-3.52-1.8
		c1.27-0.85,2.35-1.9,3.18-3.17l0.35-0.54c0.06-0.09,0.11-0.18,0.15-0.27l0.39-0.82c0.07-0.15,0.13-0.3,0.17-0.46
		c0.4-1.06,0.6-2.11,0.62-3.15C1773.29,151.19,1772.76,148.89,1771.68,146.73z M1760.72,158.79c-1.35-0.24-2.48-0.92-3.45-2.09
		c-0.19-0.23-0.37-0.47-0.54-0.74c-0.13-0.21-0.27-0.44-0.39-0.68c-0.02-0.04-0.05-0.08-0.07-0.13c-0.03-0.05-0.06-0.12-0.08-0.15
		c0,0,0,0,0-0.01c-0.02-0.05-0.06-0.11-0.07-0.14c-0.44-0.78-1.27-1.28-2.17-1.28h-0.01c-0.89,0-1.72,0.46-2.17,1.23
		c-0.03,0.04-0.1,0.17-0.12,0.22c-0.32,0.64-0.68,1.18-1.08,1.66c-0.98,1.16-2.11,1.83-3.46,2.07c-1.51,0.26-2.95-0.01-4.4-0.84
		c-0.91-0.52-1.62-1.18-2.17-2.02l-0.23-0.36l-0.23-0.48c-0.01-0.04-0.03-0.08-0.04-0.12c-0.16-0.46-0.27-0.91-0.28-1.36
		c-0.04-1.58,0.3-3.06,1.02-4.52c0.55-1.12,1.37-2.23,2.5-3.38c1.18-1.2,2.53-2.31,3.93-3.43l0.64-0.51
		c1.21-0.96,2.45-1.95,3.65-3.02c0.92-0.81,1.73-1.61,2.47-2.41c0.74,0.79,1.56,1.58,2.48,2.39c1.2,1.06,2.46,2.04,3.67,2.99
		l0.65,0.51c1.4,1.11,2.76,2.2,3.95,3.4c1.11,1.12,1.92,2.19,2.48,3.29c0.72,1.46,1.05,2.93,1.02,4.52
		c-0.01,0.51-0.12,1.02-0.34,1.56c-0.02,0.05-0.04,0.1-0.06,0.16l-0.25,0.5l-0.23,0.35c-0.56,0.84-1.27,1.49-2.18,2
		C1763.67,158.8,1762.23,159.07,1760.72,158.79z M1762.58,163.99c-0.45,1.06-1.01,2.16-1.73,3.38c-0.75,1.27-1.57,2.49-2.43,3.79
		l-0.47,0.71c-1.09,1.64-2.14,3.25-3.02,5.03c-0.37,0.75-0.68,1.47-0.94,2.18c-0.28-0.77-0.6-1.54-1-2.35
		c-0.89-1.78-1.94-3.39-3.02-5.03l-0.47-0.71c-0.86-1.29-1.68-2.51-2.43-3.79c-0.67-1.13-1.2-2.17-1.63-3.16
		c0.87,0.05,1.75,0,2.64-0.15c2.3-0.41,4.29-1.51,5.94-3.28c1.66,1.75,3.66,2.84,5.96,3.24
		C1760.85,164,1761.72,164.04,1762.58,163.99z M1735.09,156c0.08,0.28,0.17,0.56,0.28,0.85c0.04,0.15,0.1,0.3,0.16,0.44l0.4,0.82
		c0.04,0.09,0.1,0.18,0.15,0.27l0.35,0.54c0.78,1.18,1.77,2.17,2.93,2.98c-0.98,0.6-2.08,1.16-3.38,1.72
		c-1.35,0.59-2.73,1.1-4.18,1.64l-0.8,0.3c-1.84,0.69-3.64,1.38-5.4,2.3c-1.92,1-3.47,2.11-4.73,3.39c-0.03,0.03-0.05,0.07-0.08,0.1
		c-0.14-1.31-0.35-2.63-0.64-3.95c-0.89-4.04-2.58-8.12-5.15-12.47c-1.14-1.93-2.38-3.79-3.67-5.61l0.77,0.41
		c2.14,1.11,4.48,1.69,6.94,1.7c3.8,0.02,7.21-1.13,10.04-3.42c2.66-2.16,4.36-5.06,5.06-8.64c0.02-0.09,0.04-0.19,0.05-0.28
		c0.09,0.04,0.18,0.07,0.26,0.1c2.43,0.92,4.84,1.22,7.2,0.91c-0.68,0.58-1.35,1.19-1.99,1.84c-1.51,1.53-2.64,3.04-3.44,4.64
		c-1.08,2.16-1.62,4.46-1.58,6.83C1734.67,154.27,1734.82,155.14,1735.09,156z M1760.86,111.74c-2.73,1.88-4.89,4.28-6.42,7.15
		c-0.16,0.31-0.31,0.63-0.45,0.95c-0.15-0.38-0.32-0.76-0.51-1.12c-1.53-2.87-3.69-5.28-6.42-7.15c-1.74-1.2-3.77-2.15-6.11-2.94
		c2.9-1,5.55-2.55,7.95-4.64c1.12-0.96,2.19-2.04,3.2-3.24c0.64-0.76,1.24-1.56,1.81-2.4c0.61,0.91,1.25,1.76,1.93,2.57
		c3.19,3.8,7,6.4,11.31,7.82C1764.72,109.54,1762.64,110.51,1760.86,111.74z M1744.23,115.69c2.06,1.41,3.69,3.22,4.83,5.38
		c0.41,0.77,0.67,1.62,0.79,2.6c0.01,0.08,0.03,0.16,0.04,0.24l0.05,0.92l-0.05,0.7c-0.12,1.61-0.63,3.15-1.5,4.57
		c-1.4,2.29-3.22,3.8-5.57,4.61c-2.13,0.74-4.28,0.67-6.59-0.21c-0.92-0.35-1.83-0.83-2.77-1.47c-0.04-0.02-0.15-0.1-0.19-0.12
		c-0.77-0.47-1.75-0.5-2.54-0.06c-0.79,0.44-1.3,1.25-1.3,2.15c0,0.12,0,0.19,0,0.25c0.05,1.15-0.02,2.18-0.21,3.14
		c-0.47,2.42-1.55,4.29-3.3,5.71c-1.93,1.57-4.15,2.35-6.86,2.3c-1.67-0.01-3.24-0.39-4.67-1.14l-0.62-0.33l-0.75-0.52
		c-0.06-0.06-0.12-0.11-0.18-0.16c-0.77-0.63-1.36-1.3-1.79-2.05c-1.23-2.11-1.9-4.44-2.02-6.94c-0.09-1.93,0.19-4.01,0.84-6.38
		c0.67-2.41,1.62-4.78,2.62-7.21l0.47-1.13c0.85-2.04,1.72-4.14,2.48-6.29c0.73-2.07,1.29-4.01,1.69-5.85
		c1.77,0.64,3.71,1.18,5.86,1.65c2.23,0.49,4.48,0.85,6.65,1.21l1.2,0.2c2.59,0.43,5.11,0.87,7.51,1.57
		C1740.72,113.74,1742.64,114.6,1744.23,115.69z M1685.33,82.58l1.28-0.26c2.35-0.47,4.78-0.95,7.18-1.57s4.55-1.31,6.5-2.1
		c0.5,2.05,1.2,4.2,2.1,6.5c0.91,2.3,1.94,4.55,2.94,6.73l0.54,1.19c1.18,2.6,2.31,5.15,3.13,7.75c0.81,2.56,1.19,4.84,1.17,6.95
		c-0.03,2.75-0.68,5.34-1.95,7.71c-0.46,0.86-1.08,1.62-1.91,2.35c-0.07,0.06-0.13,0.12-0.19,0.19l-0.94,0.69l-0.55,0.32
		c-1.56,0.88-3.28,1.37-5.12,1.44c-2.96,0.12-5.47-0.62-7.67-2.28c-2-1.51-3.27-3.53-3.88-6.19c-0.24-1.06-0.36-2.18-0.35-3.44
		c0-0.06,0-0.14-0.01-0.24c-0.04-0.9-0.57-1.73-1.37-2.14c-0.81-0.4-1.77-0.37-2.52,0.13c-0.1,0.07-0.16,0.11-0.21,0.15
		c-1.01,0.74-1.99,1.31-2.99,1.73c-2.52,1.06-4.9,1.22-7.29,0.49c-2.63-0.81-4.71-2.4-6.34-4.88c-1.02-1.54-1.63-3.22-1.83-5
		l-0.08-0.78l0.02-1.02c0.02-0.09,0.03-0.18,0.04-0.27c0.1-1.09,0.36-2.04,0.78-2.92c1.17-2.41,2.89-4.46,5.1-6.1
		c1.7-1.26,3.77-2.28,6.32-3.13C1679.81,83.72,1682.53,83.14,1685.33,82.58z M1704.05,135.49c0.09,1.88,0.42,3.7,0.99,5.43
		c-2.19-2.84-4.43-5.75-6.47-8.72c-1.8-2.62-3.3-5.05-4.56-7.4c1.79,0.52,3.69,0.75,5.7,0.66c2.34-0.1,4.55-0.69,6.6-1.7
		c-0.46,1.24-0.88,2.5-1.24,3.79C1704.27,130.43,1703.94,133.03,1704.05,135.49z M1668.23,116.78c-0.24-1.9-0.72-3.83-1.45-5.84
		c1.48,1.11,3.14,1.96,4.96,2.52c3.51,1.08,7.11,0.86,10.7-0.66c0.18-0.07,0.35-0.15,0.52-0.23c0.04,0.19,0.08,0.37,0.12,0.56
		c0.55,2.39,1.52,4.48,2.89,6.25c-3.09,2.43-6.62,4.66-11.01,6.94c-3.01,1.57-6.16,3.01-9.25,4.41c0.5-0.81,0.92-1.65,1.24-2.51
		C1668.3,124.57,1668.73,120.72,1668.23,116.78z M1631.88,168.63v0.09c0,0.18,0.02,0.36,0.05,0.54l0.48,2.29
		c0.02,0.1,0.05,0.2,0.08,0.3l0.16,0.48c0.05,0.14,0.1,0.29,0.15,0.43c-1.25-1.81-2.64-3.46-4.07-5.11l-0.68-0.79
		c-1.22-1.4-2.37-2.73-3.46-4.13c-0.8-1.03-1.48-1.99-2.07-2.92c1.72,0.58,3.51,0.79,5.35,0.61c1.8-0.18,3.47-0.7,5.03-1.52
		c-0.27,0.87-0.53,1.74-0.73,2.64C1631.66,163.78,1631.56,166.16,1631.88,168.63z M1627.38,155.44c-1.92,0.2-3.71-0.29-5.47-1.49
		c-0.71-0.48-1.37-1.07-2.04-1.8c-0.03-0.03-0.13-0.13-0.16-0.17c-0.64-0.63-1.59-0.88-2.46-0.63s-1.54,0.94-1.75,1.82l-0.05,0.21
		c-0.19,0.98-0.45,1.83-0.81,2.61c-0.88,1.93-2.15,3.28-3.89,4.12c-1.93,0.93-3.96,1.11-6.21,0.56c-1.41-0.35-2.62-0.96-3.69-1.88
		l-0.45-0.4l-0.51-0.58c-0.04-0.06-0.08-0.12-0.13-0.18c-0.51-0.67-0.87-1.34-1.08-2.05c-0.61-2.03-0.72-4.14-0.31-6.28
		c0.31-1.65,0.97-3.37,2.01-5.25c1.07-1.93,2.37-3.78,3.73-5.66l0.64-0.88c1.15-1.59,2.34-3.23,3.44-4.93
		c1-1.55,1.84-3.02,2.54-4.45c1.34,0.86,2.83,1.68,4.49,2.48c1.83,0.88,3.7,1.66,5.51,2.42l1,0.42c2.14,0.9,4.22,1.79,6.13,2.89
		c1.87,1.07,3.32,2.19,4.45,3.44c1.46,1.61,2.47,3.47,3,5.52c0.19,0.72,0.23,1.47,0.14,2.31c-0.01,0.08-0.01,0.15-0.01,0.22
		l-0.15,0.82l-0.16,0.52c-0.43,1.35-1.14,2.5-2.17,3.53C1631.34,154.33,1629.51,155.23,1627.38,155.44z M1606.9,124.44
		c-0.71,1.71-1.63,3.45-2.91,5.42c-1.03,1.59-2.18,3.17-3.29,4.71l-0.65,0.89c-1.45,2.01-2.86,3.99-4.06,6.17
		c-0.09,0.15-0.15,0.3-0.23,0.46c-0.28-0.96-0.66-1.94-1.16-2.95c-0.77-1.55-1.68-2.96-2.62-4.39l-0.41-0.62
		c-0.74-1.11-1.43-2.16-2.07-3.26c-0.88-1.5-1.48-2.78-1.91-4.06l-0.09-0.27c-0.09-0.27-0.24-0.51-0.41-0.73
		c0.65-0.49,1.27-1.04,1.84-1.68c1.86,2.09,4.12,3.38,6.75,3.85c2.93,0.52,5.79,0.02,8.51-1.51
		C1605.22,125.92,1606.11,125.23,1606.9,124.44z M1606.5,105.89c-0.49-0.61-1.01-1.22-1.61-1.83c-1.54-1.57-3.2-2.93-4.91-4.3
		l-0.74-0.59c-1.36-1.08-2.65-2.11-3.89-3.21c-0.52-0.46-0.99-0.91-1.43-1.35c0.27,0.1,0.54,0.21,0.82,0.29
		c3.68,1.08,7.25,0.9,10.6-0.52c3.15-1.34,5.59-3.67,7.24-6.91c0.04-0.08,0.08-0.17,0.13-0.25c0.08,0.06,0.15,0.12,0.23,0.17
		c2.91,2.18,6.12,3.18,9.55,3c0.39-0.02,0.78-0.06,1.16-0.11c-1.18,0.48-2.35,0.99-3.51,1.56c-3.23,1.6-5.83,3.38-7.95,5.45
		C1609.64,99.77,1607.74,102.66,1606.5,105.89z M1630.35,131.99c-1.62-0.92-3.27-1.7-4.96-2.43c2.44-0.27,4.83-1.1,7.15-2.47
		c0.3-0.18,0.6-0.36,0.89-0.56c0.11,0.33,0.22,0.66,0.35,0.99c1.54,4.04,4.13,7.09,7.68,9.07c2.51,1.4,5.2,2.14,8.04,2.26
		c-3.61,2.24-6.58,4.6-9.01,7.19c-0.05-0.69-0.15-1.36-0.32-2.01c-0.74-2.84-2.13-5.4-4.14-7.62
		C1634.54,134.76,1632.68,133.32,1630.35,131.99z M1643.89,132.23c-2.53-1.41-4.31-3.54-5.44-6.49c-0.45-1.17-0.76-2.44-0.94-3.86
		c-0.01-0.07-0.02-0.14-0.04-0.23c-0.16-0.89-0.8-1.65-1.65-1.95c-0.85-0.29-1.8-0.14-2.48,0.46c-0.11,0.1-0.17,0.15-0.22,0.21
		c-1.02,0.99-2.05,1.79-3.12,2.43c-2.72,1.62-5.44,2.18-8.3,1.71c-3.15-0.51-5.78-2.01-8.04-4.58c-1.41-1.6-2.38-3.43-2.9-5.44
		l-0.21-0.88l-0.14-1.2c0.01-0.1,0.01-0.21,0-0.31c-0.06-1.27,0.09-2.41,0.44-3.49l0,0c0.96-2.93,2.58-5.53,4.84-7.74
		c1.73-1.7,3.91-3.18,6.67-4.54c2.78-1.37,5.75-2.44,8.8-3.51l1.4-0.49c2.55-0.89,5.19-1.8,7.77-2.86c2.71-1.11,5.1-2.27,7.23-3.53
		c0.89,2.31,2.04,4.7,3.48,7.25c1.36,2.42,2.86,4.77,4.31,7.05l0.8,1.26c1.73,2.73,3.4,5.42,4.72,8.21c1.32,2.77,2.1,5.29,2.41,7.69
		c0.4,3.13,0.06,6.19-1,9.08c-0.39,1.07-0.99,2.05-1.83,3.02c-0.06,0.07-0.13,0.15-0.18,0.23l-1.01,0.97l-0.56,0.43
		c-1.65,1.26-3.55,2.09-5.65,2.47C1649.67,134.23,1646.67,133.78,1643.89,132.23z M1637,74c0.93,1.77,2.21,3.31,3.84,4.56
		c1.59,1.21,3.28,2.05,5.06,2.53c-2.14,1.35-4.56,2.56-7.49,3.76c-2.45,1-5.02,1.9-7.51,2.76l-0.9,0.31c0.77-0.5,1.5-1.08,2.21-1.73
		c1.82-1.67,3.16-3.66,4-5.92l0.31-0.86c0.03-0.1,0.06-0.2,0.09-0.3l0.29-1.29c0.04-0.17,0.06-0.35,0.06-0.53
		C1637.12,76.16,1637.13,75.06,1637,74z M1661.3,91.62c-0.66,1.36-1.08,2.86-1.25,4.47c-0.04,0.18-0.07,0.36-0.07,0.54l-0.03,1.44
		c0,0.05,0,0.09,0.01,0.14l-0.41-0.65c-1.41-2.22-2.87-4.51-4.17-6.82c-1.82-3.23-3.07-6.03-3.95-8.81l-0.15-0.49
		c2.58-0.35,4.93-1.46,7.03-3.32c1.75,2.75,4.13,4.63,7.07,5.58c0.65,0.21,1.31,0.36,1.96,0.47
		C1664.75,86.2,1662.72,88.7,1661.3,91.62z M1678.25,72.8c-0.12,0.73-0.37,1.44-0.79,2.17c-0.04,0.06-0.07,0.13-0.1,0.2l-0.52,0.75
		l-0.31,0.35c-0.93,1.06-2.04,1.83-3.4,2.37c-2.15,0.85-4.19,0.94-6.23,0.29c-1.84-0.59-3.28-1.76-4.41-3.55
		c-0.45-0.72-0.83-1.53-1.15-2.47c-0.01-0.04-0.05-0.15-0.07-0.19c-0.33-0.84-1.1-1.45-1.99-1.58c-0.89-0.12-1.79,0.22-2.34,0.93
		c-0.07,0.09-0.11,0.14-0.15,0.2c-0.57,0.82-1.15,1.5-1.78,2.07c-1.58,1.42-3.28,2.15-5.22,2.22c-2.14,0.08-4.08-0.57-5.92-1.97
		c-1.16-0.88-2.02-1.93-2.62-3.2l-0.26-0.55l-0.24-0.73c-0.01-0.07-0.03-0.14-0.04-0.22c-0.2-0.82-0.26-1.58-0.17-2.31l0,0
		c0.25-2.1,1-4.08,2.23-5.88c0.95-1.39,2.24-2.7,3.94-4.01c1.76-1.35,3.69-2.52,5.69-3.69l0.94-0.55c1.69-0.99,3.44-2.02,5.13-3.14
		c1.54-1.02,2.9-2.03,4.11-3.07c0.89,1.32,1.92,2.67,3.12,4.07c1.32,1.54,2.72,3,4.08,4.42l0.75,0.78c1.6,1.68,3.15,3.33,4.46,5.1
		c1.28,1.72,2.17,3.34,2.7,4.93C1678.4,68.6,1678.58,70.71,1678.25,72.8z M1638.65,58.87c-1.69,2.47-2.72,5.19-3.07,8.11
		c-0.08,0.67-0.09,1.35-0.04,2.04c-0.74-1.67-1.71-3.24-2.91-4.69c-1.57-1.9-3.56-3.6-6.09-5.2c-0.63-0.4-1.28-0.78-1.93-1.14
		c2.01,0.3,3.96,0.06,5.81-0.75c1.96-0.85,3.52-2.23,4.64-4.12c1.85,1.17,3.87,1.7,6,1.57c0.59-0.04,1.16-0.12,1.72-0.25
		C1641.1,55.85,1639.72,57.3,1638.65,58.87z M1628.78,67.51c1.59,1.93,2.66,4.11,3.16,6.5c0.18,0.85,0.2,1.74,0.05,2.72
		c-0.01,0.08-0.02,0.16-0.03,0.25l-0.25,1.02l-0.19,0.53c-0.56,1.52-1.47,2.86-2.7,3.98c-1.98,1.81-4.14,2.76-6.63,2.9
		c-2.25,0.12-4.3-0.54-6.28-2.01c-0.79-0.59-1.53-1.3-2.26-2.18c-0.03-0.03-0.12-0.14-0.15-0.17c-0.61-0.66-1.55-0.96-2.43-0.75
		s-1.59,0.86-1.84,1.73c-0.03,0.11-0.05,0.17-0.06,0.24c-0.27,1.11-0.61,2.07-1.06,2.95c-1.12,2.2-2.67,3.7-4.74,4.58
		c-2.29,0.98-4.65,1.08-7.23,0.33c-1.6-0.47-3-1.27-4.18-2.38l-0.51-0.49l-0.57-0.71c-0.04-0.07-0.09-0.14-0.14-0.21
		c-0.56-0.81-0.94-1.61-1.16-2.46c-0.6-2.36-0.61-4.79-0.03-7.23c0.45-1.88,1.28-3.8,2.56-5.9c1.31-2.13,2.88-4.15,4.51-6.21
		l0.76-0.95c1.37-1.73,2.79-3.51,4.12-5.36c1.28-1.79,2.34-3.5,3.23-5.16c1.53,1.1,3.24,2.16,5.18,3.2c2,1.08,4.05,2.05,6.04,2.98
		l1.12,0.53c2.37,1.12,4.68,2.24,6.79,3.58C1625.95,64.66,1627.55,66.02,1628.78,67.51z M1592.03,99.7c1.34,1.19,2.74,2.31,4.1,3.39
		l0.73,0.58c1.58,1.27,3.12,2.52,4.46,3.89c1.3,1.33,2.24,2.6,2.88,3.89c0.84,1.69,1.22,3.41,1.18,5.24
		c-0.01,0.61-0.15,1.22-0.41,1.88c-0.02,0.05-0.04,0.11-0.06,0.17l-0.33,0.66l-0.23,0.35c-0.66,0.99-1.5,1.76-2.57,2.36
		c-1.71,0.96-3.4,1.27-5.18,0.95c-1.6-0.29-2.93-1.09-4.08-2.46c-0.46-0.56-0.87-1.19-1.25-1.95c-0.02-0.04-0.08-0.14-0.1-0.18
		c-0.44-0.78-1.28-1.28-2.18-1.28s-1.74,0.46-2.18,1.24c-0.06,0.1-0.09,0.17-0.13,0.23c-0.37,0.73-0.78,1.36-1.25,1.92
		c-1.16,1.37-2.5,2.16-4.09,2.44c-1.78,0.31-3.48-0.01-5.18-0.98c-1.07-0.61-1.9-1.39-2.56-2.38l-0.55-1
		c-0.02-0.06-0.04-0.12-0.06-0.18c-0.26-0.66-0.39-1.28-0.4-1.89c-0.03-1.84,0.37-3.55,1.21-5.23c0.65-1.29,1.6-2.56,2.9-3.88
		c1.35-1.37,2.89-2.6,4.48-3.86l0.73-0.58c1.36-1.07,2.77-2.18,4.12-3.36c1.13-0.99,2.13-1.96,3.01-2.92
		C1589.92,97.73,1590.91,98.71,1592.03,99.7z M1581.51,132.18c0.87-0.38,1.68-0.76,2.43-1.16c0.37,0.77,0.79,1.56,1.27,2.38
		c0.71,1.21,1.47,2.37,2.21,3.49l0.4,0.61c0.85,1.29,1.67,2.56,2.31,3.86c0.62,1.25,0.98,2.32,1.13,3.38
		c0.2,1.35,0.08,2.61-0.36,3.87c-0.13,0.38-0.35,0.74-0.65,1.1c-0.03,0.03-0.06,0.07-0.09,0.11l-0.57,0.53
		c-0.65,0.52-1.38,0.85-2.22,1.02c-1.35,0.27-2.55,0.11-3.66-0.48c-0.98-0.53-1.69-1.34-2.15-2.5c-0.19-0.48-0.33-1-0.42-1.6
		c-0.01-0.04-0.02-0.14-0.03-0.19c-0.18-0.88-0.83-1.62-1.69-1.89s-1.8-0.08-2.47,0.53c-0.01,0.01-0.09,0.08-0.1,0.1
		c-0.46,0.46-0.88,0.8-1.32,1.07c-1.06,0.66-2.11,0.9-3.21,0.74c-1.25-0.18-2.3-0.76-3.23-1.78c-0.58-0.63-0.96-1.33-1.18-2.13
		l-0.15-0.76c0-0.05,0-0.09,0-0.14c-0.03-0.48,0.01-0.9,0.13-1.28c0.39-1.27,1.05-2.36,2-3.33c0.75-0.76,1.68-1.41,2.92-2.05
		c1.29-0.66,2.7-1.2,4.15-1.74l0.69-0.26C1578.92,133.21,1580.22,132.74,1581.51,132.18z M1588.36,156.26
		c1.61-0.32,3.07-0.99,4.34-1.99l0.44-0.35c0.04-0.03,0.07-0.06,0.1-0.09c0.12,1.08,0.34,2.15,0.66,3.2c0.37,1.22,0.97,2.4,1.79,3.5
		c0.08,0.15,0.18,0.29,0.3,0.41l0.78,0.88c0.07,0.08,0.14,0.15,0.22,0.22l0.61,0.54c1.42,1.23,3.05,2.11,4.84,2.68
		c-0.87,0.51-1.72,1.04-2.56,1.62c-2.09,1.45-3.72,2.97-4.99,4.65c-1.11,1.46-1.95,3.04-2.54,4.72c-0.1-0.39-0.2-0.77-0.33-1.17
		c-0.69-2.2-1.61-4.26-2.56-6.36l-0.42-0.92c-0.76-1.66-1.48-3.24-2.12-4.86c-0.89-2.26-1.45-4.18-1.77-6.04l-0.06-0.38
		c0-0.03-0.02-0.05-0.02-0.08C1586.13,156.53,1587.23,156.49,1588.36,156.26z M1588.81,192.42c0.95-0.85,1.72-1.83,2.29-2.89
		c0.65-1.22,1.15-2.5,1.48-3.83c0.81,1.77,1.97,3.32,3.49,4.6c2.53,2.13,5.4,3.23,8.54,3.26c2.87,0.04,5.55-0.9,7.93-2.78
		c0.96,1.64,2.16,2.97,3.58,3.99h-31.23c0.61-0.23,1.21-0.49,1.78-0.81l0.66-0.38c0.09-0.05,0.17-0.11,0.25-0.17l0.87-0.66
		C1588.58,192.66,1588.71,192.54,1588.81,192.42z M1615.82,185.78c-0.01-0.05-0.05-0.17-0.07-0.22c-0.3-0.85-1.04-1.49-1.92-1.65
		c-0.89-0.16-1.8,0.16-2.37,0.85c-0.07,0.08-0.11,0.13-0.14,0.18c-0.55,0.73-1.12,1.33-1.74,1.83c-1.52,1.24-3.11,1.84-4.9,1.81
		c-1.98-0.02-3.74-0.71-5.38-2.09c-1.03-0.87-1.77-1.87-2.28-3.07l-0.21-0.52l-0.19-0.68c-0.01-0.07-0.02-0.14-0.03-0.2
		c-0.15-0.77-0.17-1.46-0.06-2.13l0,0c0.33-1.94,1.11-3.74,2.33-5.36c0.96-1.27,2.18-2.4,3.85-3.56c1.7-1.18,3.57-2.19,5.49-3.2
		l0.89-0.47c1.64-0.86,3.34-1.75,4.99-2.73c1.44-0.86,2.73-1.72,3.88-2.6c0.76,1.25,1.64,2.52,2.67,3.84
		c1.17,1.51,2.42,2.95,3.63,4.34l0.68,0.78c1.42,1.65,2.8,3.26,3.95,4.98c1.12,1.66,1.87,3.21,2.3,4.71
		c0.55,1.95,0.63,3.91,0.23,5.84c-0.14,0.66-0.41,1.3-0.82,1.96c-0.03,0.05-0.06,0.11-0.1,0.17l-0.47,0.63l-0.34,0.36
		c-0.91,0.94-1.97,1.6-3.24,2.04c-2.03,0.69-3.92,0.69-5.77-0.01c-1.67-0.63-2.95-1.76-3.91-3.47
		C1616.39,187.42,1616.08,186.66,1615.82,185.78z M1633.28,193.04l0.53-0.56c0.07-0.07,0.14-0.15,0.2-0.23l0.66-0.89
		c0.1-0.13,0.19-0.28,0.26-0.43c0.68-1.11,1.15-2.27,1.4-3.46c0.57-2.73,0.46-5.49-0.31-8.22c-0.01-0.04-0.03-0.08-0.04-0.12
		c0.99,1.43,2.13,2.77,3.43,4.01c4.57,4.33,9.9,6.74,15.85,7.16c5.56,0.39,10.82-1.18,15.64-4.67c0.79-0.57,1.55-1.18,2.29-1.85
		c0.34,0.94,0.72,1.84,1.15,2.71c1.65,3.36,3.81,6.13,6.45,8.29h-49.6C1631.94,194.27,1632.64,193.7,1633.28,193.04z
		 M1678.82,184.29c-0.83-1.69-1.46-3.54-1.93-5.64c-0.02-0.08-0.04-0.18-0.08-0.3c-0.25-0.87-0.95-1.57-1.82-1.79
		c-0.88-0.21-1.81,0.02-2.42,0.67c-0.13,0.14-0.19,0.2-0.25,0.27c-1.41,1.64-2.83,2.97-4.36,4.08c-3.89,2.82-7.93,4.04-12.36,3.73
		c-4.83-0.34-9-2.24-12.76-5.8c-2.35-2.23-4.07-4.86-5.12-7.83c-0.11-0.32-0.22-0.64-0.33-0.96l-0.12-0.35l-0.39-1.86
		c0-0.13-0.01-0.27-0.03-0.4c-0.26-1.93-0.2-3.76,0.19-5.46c1.03-4.48,3.1-8.58,6.16-12.16c2.34-2.74,5.35-5.21,9.21-7.57
		c3.85-2.35,7.99-4.29,12.25-6.22l1.96-0.89c3.51-1.59,7.14-3.23,10.65-5.06c4.15-2.15,7.7-4.35,10.79-6.67
		c1.64,3.5,3.75,7.11,6.4,10.96c2.25,3.26,4.69,6.42,7.04,9.48l1.31,1.69c2.85,3.71,5.6,7.36,7.89,11.24
		c2.3,3.89,3.79,7.49,4.57,11.01c1.02,4.6,0.93,9.19-0.27,13.63c-0.45,1.68-1.26,3.33-2.4,4.91c-0.08,0.11-0.15,0.23-0.21,0.34
		l-1.44,1.67c-0.26,0.24-0.52,0.49-0.78,0.73c-2.32,2.13-5.08,3.64-8.2,4.51c-0.82,0.23-1.63,0.39-2.43,0.53h-7.03
		c-1.53-0.28-3.04-0.74-4.53-1.4C1683.93,191.58,1680.94,188.6,1678.82,184.29z M1713.55,193.42c0.28-0.26,0.56-0.52,0.83-0.78
		l0.33-0.31c0.07-0.07,0.14-0.14,0.21-0.22l1.5-1.79c0.12-0.14,0.22-0.29,0.3-0.45c0.01-0.01,0.02-0.05,0.04-0.08
		c0.83-1.17,1.51-2.38,2.06-3.63c0.32,0.46,0.65,0.91,1.04,1.34c1.93,2.1,4.28,3.36,6.97,3.74c2.33,0.33,4.59-0.1,6.73-1.28
		c0.99,2.11,2.49,3.72,4.43,4.82h-26.06C1712.48,194.35,1713.03,193.9,1713.55,193.42z M1737.92,187.45
		c-0.24-0.58-0.4-1.22-0.52-1.94c-0.01-0.04-0.03-0.16-0.04-0.21c-0.18-0.88-0.83-1.61-1.69-1.88s-1.8-0.08-2.46,0.53
		c-0.03,0.03-0.14,0.13-0.17,0.16c-0.51,0.51-1.02,0.93-1.55,1.26c-1.3,0.81-2.61,1.11-3.98,0.92c-1.54-0.22-2.84-0.93-3.98-2.17
		c-0.71-0.78-1.19-1.63-1.47-2.62l-0.11-0.42l-0.07-0.53c0-0.06,0-0.11-0.01-0.17c-0.04-0.6,0.01-1.13,0.16-1.62
		c0.46-1.53,1.25-2.84,2.4-4.02c0.9-0.91,2-1.7,3.46-2.46c1.51-0.79,3.15-1.42,4.84-2.05l0.79-0.29c1.45-0.54,2.95-1.1,4.43-1.74
		c1.14-0.5,2.18-1.01,3.14-1.54c0.46,1,1.01,2.02,1.64,3.09c0.82,1.39,1.71,2.72,2.57,4.01l0.46,0.7c1,1.5,1.96,2.98,2.72,4.5
		c0.74,1.48,1.17,2.76,1.36,4.02c0.24,1.63,0.11,3.15-0.42,4.66c-0.17,0.49-0.44,0.95-0.82,1.4c-0.03,0.04-0.07,0.08-0.1,0.13
		l-0.72,0.67c-0.8,0.64-1.69,1.05-2.72,1.26c-1.66,0.34-3.13,0.15-4.5-0.58C1739.38,189.88,1738.5,188.87,1737.92,187.45z
		 M1750.94,193.76l0.5-0.41c0.08-0.06,0.16-0.13,0.23-0.21l0.64-0.67c0.11-0.11,0.21-0.24,0.29-0.37c0.55-0.68,0.99-1.41,1.32-2.17
		c0.34,0.82,0.8,1.6,1.39,2.33c0.09,0.13,0.18,0.26,0.29,0.37l0.64,0.67c0.07,0.07,0.15,0.14,0.22,0.21l0.5,0.41
		c0.39,0.31,0.81,0.59,1.24,0.85h-8.81C1749.93,194.48,1750.46,194.15,1750.94,193.76z M1758.04,183.15
		c0.19-1.27,0.62-2.55,1.36-4.02c0.76-1.52,1.72-3,2.72-4.5l0.46-0.7c0.86-1.29,1.75-2.63,2.57-4.01c0.63-1.07,1.18-2.09,1.64-3.09
		c0.96,0.53,2,1.04,3.14,1.54c1.48,0.64,2.98,1.2,4.44,1.74l0.78,0.29c1.69,0.63,3.33,1.26,4.84,2.05c1.47,0.76,2.57,1.54,3.47,2.46
		c1.15,1.17,1.94,2.49,2.4,4.02l0,0c0.15,0.49,0.2,1.02,0.16,1.62c0,0.05,0,0.1,0,0.16l-0.08,0.56l-0.11,0.42
		c-0.27,0.98-0.75,1.83-1.47,2.61c-1.14,1.24-2.45,1.95-3.98,2.17c-1.37,0.19-2.67-0.11-3.98-0.92c-0.53-0.33-1.04-0.75-1.56-1.27
		c-0.03-0.03-0.14-0.13-0.17-0.16c-0.66-0.6-1.6-0.81-2.46-0.53c-0.85,0.28-1.49,0.99-1.67,1.87c0,0.02-0.03,0.14-0.03,0.16
		c-0.12,0.79-0.29,1.42-0.53,2c-0.58,1.42-1.46,2.43-2.68,3.08c-1.37,0.73-2.84,0.92-4.5,0.58c-1.04-0.21-1.93-0.62-2.72-1.26
		l-0.34-0.27l-0.37-0.39c-0.04-0.05-0.07-0.1-0.11-0.14c-0.38-0.45-0.64-0.91-0.81-1.4C1757.93,186.3,1757.79,184.77,1758.04,183.15
		z M1774.35,190.12c2.13,1.18,4.39,1.61,6.73,1.28c2.69-0.38,5.04-1.64,6.97-3.74c0.39-0.42,0.73-0.87,1.04-1.33
		c0.56,1.24,1.23,2.46,2.07,3.63l0.05,0.09c0.08,0.16,0.18,0.3,0.29,0.44l1.5,1.79c0.07,0.08,0.14,0.15,0.21,0.22l0.36,0.34
		c0.27,0.25,0.53,0.5,0.8,0.75c0.45,0.42,0.92,0.81,1.4,1.18h-25.59C1771.99,193.68,1773.4,192.13,1774.35,190.12z M1795.52,187.51
		c-0.06-0.11-0.13-0.23-0.21-0.33c-1.15-1.59-1.95-3.24-2.41-4.92c-1.2-4.44-1.29-9.03-0.27-13.63c0.78-3.51,2.27-7.11,4.57-11.01
		c2.29-3.88,5.04-7.53,7.89-11.24l1.32-1.71c2.35-3.05,4.79-6.2,7.03-9.46c2.65-3.85,4.76-7.45,6.4-10.96
		c3.1,2.32,6.65,4.52,10.79,6.67c3.52,1.83,7.15,3.47,10.67,5.06l1.95,0.88c4.26,1.94,8.4,3.87,12.25,6.22
		c3.86,2.36,6.87,4.84,9.2,7.57c3.06,3.58,5.13,7.67,6.16,12.16c0.39,1.7,0.45,3.54,0.19,5.46c-0.02,0.14-0.03,0.27-0.03,0.41
		l-0.5,2.18c-0.11,0.33-0.22,0.66-0.34,0.98c-1.05,2.96-2.77,5.6-5.12,7.83c-3.76,3.56-7.93,5.46-12.76,5.8
		c-4.42,0.31-8.46-0.91-12.36-3.73c-1.52-1.1-2.95-2.44-4.36-4.07c-0.05-0.06-0.12-0.13-0.2-0.22c-0.62-0.65-1.58-0.95-2.45-0.73
		s-1.59,0.86-1.83,1.72c-0.05,0.18-0.07,0.26-0.09,0.35c-0.48,2.12-1.11,3.96-1.94,5.66c-2.12,4.32-5.11,7.29-9.16,9.09
		c-1.22,0.54-2.46,0.94-3.71,1.23h-8.76c-0.51-0.11-1.01-0.22-1.53-0.36c-3.12-0.86-5.88-2.38-8.2-4.51
		c-0.25-0.23-0.5-0.47-0.75-0.7l-0.25-0.24L1795.52,187.51z M1833.58,186.65c0.43-0.87,0.81-1.77,1.15-2.71
		c0.74,0.67,1.5,1.28,2.29,1.85c4.82,3.49,10.08,5.06,15.64,4.67c5.95-0.42,11.28-2.83,15.85-7.16c1.3-1.23,2.44-2.58,3.43-4.01
		c-0.01,0.04-0.03,0.08-0.04,0.12c-0.77,2.73-0.88,5.5-0.31,8.22c0.25,1.19,0.72,2.36,1.4,3.47c0.07,0.15,0.16,0.29,0.25,0.43
		l0.66,0.89c0.06,0.08,0.13,0.16,0.2,0.23l0.53,0.56c0.57,0.59,1.2,1.1,1.87,1.57h-49.18
		C1829.88,192.64,1831.97,189.93,1833.58,186.65z M1876.48,186.62c-0.41-1.96-0.33-3.86,0.23-5.84c0.43-1.51,1.18-3.05,2.3-4.71
		c1.15-1.72,2.53-3.34,3.95-4.98l0.66-0.75c1.22-1.4,2.47-2.85,3.65-4.36c1.03-1.32,1.92-2.59,2.67-3.84
		c1.16,0.88,2.44,1.75,3.88,2.6c1.65,0.98,3.34,1.87,4.98,2.73l0.9,0.47c1.93,1.02,3.8,2.03,5.49,3.2c1.65,1.14,2.91,2.31,3.86,3.56
		c1.24,1.63,2,3.39,2.33,5.36c0.11,0.67,0.09,1.36-0.05,2.12c-0.01,0.05-0.02,0.12-0.03,0.19l-0.19,0.7l-0.21,0.52
		c-0.5,1.2-1.25,2.21-2.28,3.07c-1.64,1.38-3.4,2.06-5.38,2.09c-0.03,0-0.06,0-0.09,0c-1.75,0-3.32-0.59-4.81-1.81
		c-0.61-0.5-1.18-1.1-1.74-1.83c-0.03-0.04-0.12-0.15-0.15-0.18c-0.58-0.68-1.5-1.01-2.38-0.84s-1.61,0.79-1.9,1.65
		c-0.04,0.11-0.06,0.18-0.08,0.25c-0.24,0.85-0.56,1.62-0.95,2.31c-0.96,1.71-2.24,2.84-3.91,3.47c-1.85,0.7-3.74,0.7-5.77,0.01
		c-1.27-0.43-2.33-1.1-3.24-2.03l-0.38-0.4l-0.42-0.57c-0.04-0.07-0.08-0.14-0.12-0.2C1876.89,187.92,1876.62,187.28,1876.48,186.62
		z M1895.36,190.96c2.38,1.88,5.08,2.79,7.93,2.78c3.14-0.04,6.01-1.14,8.54-3.26c1.52-1.28,2.69-2.83,3.49-4.6
		c0.33,1.33,0.83,2.61,1.48,3.83c0.56,1.05,1.33,2.02,2.29,2.89c0.11,0.12,0.23,0.24,0.37,0.34l0.87,0.66
		c0.08,0.06,0.17,0.12,0.26,0.17l0.66,0.38c0.43,0.24,0.87,0.46,1.32,0.65h-30.56C1893.32,193.78,1894.45,192.51,1895.36,190.96z
		 M1943.21,159.43c-1.44-0.38-2.89-0.69-4.36-0.98l-1-0.2c-1.79-0.36-3.48-0.69-5.17-1.13c-2.22-0.57-4.02-1.21-5.65-1.98
		c1.51-0.93,2.71-2.21,3.54-3.85c1.82,0.92,3.74,1.24,5.71,0.96c2.24-0.32,4.2-1.33,5.84-2.98L1943.21,159.43z M1938.89,121.96
		c0.05-0.08,0.1-0.17,0.15-0.26l0.14-0.28l1.27,11.95c-0.88-0.72-1.89-1.37-3.06-1.97c-1.55-0.8-3.11-1.39-4.71-1.98l-0.69-0.25
		c-0.87-0.32-1.71-0.64-2.53-0.96c1.63-0.21,3.23-0.75,4.79-1.64c1.75-1,3.18-2.34,4.26-3.98L1938.89,121.96z M1937.72,107.77
		c-0.79-1.23-1.75-2.44-2.95-3.64c-1.55-1.56-3.22-2.91-4.94-4.26l-0.76-0.6c-1.36-1.07-2.65-2.08-3.89-3.17
		c-1.72-1.51-3.03-2.89-4.1-4.32l-0.22-0.29c-0.21-0.28-0.47-0.49-0.76-0.66c0.05-0.05,0.09-0.1,0.14-0.15l0.83-1.03
		c0.11-0.14,0.21-0.29,0.29-0.44c0.85-1.26,1.45-2.58,1.8-3.94c0.8-3.15,0.81-6.38,0.05-9.61c-0.57-2.4-1.61-4.8-3.17-7.35
		c-1.45-2.37-3.12-4.52-4.85-6.71l-0.75-0.94c-0.89-1.11-1.78-2.25-2.65-3.4c0.73,0.32,1.49,0.56,2.29,0.72
		c2.71,0.54,5.25,0.18,7.57-1.07c1.98-1.06,3.48-2.66,4.47-4.75c1.86,0.99,3.81,1.39,5.82,1.22L1937.72,107.77z M1914.82,36.63
		c0.82-1.24,1.66-2.52,2.44-3.86c0.58-0.99,1.08-1.94,1.51-2.87c0.9,0.49,1.87,0.96,2.92,1.41c1.41,0.61,2.85,1.13,4.23,1.64
		l0.78,0.29c1.11,0.41,2.18,0.84,3.23,1.29l1.47,13.87c-1.14,0.08-2.24-0.19-3.34-0.87c-0.5-0.31-0.99-0.7-1.48-1.19
		c-0.03-0.03-0.1-0.09-0.13-0.12c-0.67-0.61-1.63-0.82-2.49-0.54c-0.86,0.29-1.51,1-1.68,1.88c-0.01,0.03-0.03,0.16-0.03,0.19
		c-0.1,0.7-0.26,1.3-0.48,1.85c-0.54,1.34-1.36,2.29-2.5,2.91c-1.29,0.69-2.67,0.88-4.23,0.57c-0.98-0.19-1.82-0.58-2.57-1.17
		l-0.67-0.61c-0.04-0.05-0.08-0.1-0.13-0.16c-0.34-0.4-0.59-0.83-0.75-1.28c-0.5-1.43-0.64-2.87-0.42-4.41
		c0.17-1.19,0.59-2.44,1.27-3.83c0.72-1.46,1.63-2.87,2.58-4.31L1914.82,36.63z M1913.48,29.3c-0.17,0.31-0.34,0.63-0.53,0.95
		c-0.71,1.22-1.48,2.39-2.3,3.63l-0.45,0.68c-1.03,1.57-2.03,3.12-2.88,4.84c-0.92,1.87-1.49,3.61-1.74,5.33
		c-0.12,0.85-0.15,1.7-0.12,2.54c-0.25-0.17-0.52-0.31-0.82-0.38c-0.19-0.04-0.38-0.06-0.57-0.06c-0.59,0-1.17,0.21-1.62,0.6
		l-0.36,0.31c-1.79,1.51-3.85,2.88-6.48,4.3c-1.89,1.02-3.9,1.97-5.84,2.88L1889.6,55l0.03-0.03c0.07-0.07,0.14-0.15,0.21-0.23
		l0.54-0.66c0.1-0.12,0.18-0.25,0.26-0.38c0.59-0.88,1.02-1.8,1.27-2.75l0,0c0.56-2.15,0.58-4.36,0.07-6.57
		c-0.38-1.63-1.07-3.26-2.1-4.98c-0.95-1.57-2.03-2.97-3.14-4.4l-0.47-0.6c-0.88-1.12-1.71-2.18-2.49-3.28
		c-0.45-0.63-0.83-1.23-1.18-1.81L1913.48,29.3L1913.48,29.3z M1878.06,31.46c0.47,0.82,1.01,1.66,1.62,2.53
		c0.85,1.22,1.77,2.38,2.65,3.5l0.47,0.6c1.01,1.29,1.99,2.57,2.79,3.9c0.77,1.28,1.25,2.4,1.51,3.52c0.33,1.43,0.32,2.8-0.04,4.19
		c-0.11,0.43-0.31,0.85-0.61,1.28c-0.03,0.04-0.05,0.08-0.08,0.12l-0.58,0.64c-0.65,0.61-1.41,1.04-2.31,1.29
		c-1.44,0.41-2.75,0.35-4.01-0.2c-1.12-0.48-1.96-1.31-2.57-2.52c-0.25-0.5-0.45-1.05-0.6-1.69c-0.01-0.04-0.03-0.13-0.05-0.17
		c-0.25-0.86-0.95-1.55-1.83-1.75c-0.88-0.21-1.8,0.05-2.41,0.71c-0.03,0.03-0.11,0.12-0.14,0.15c-0.43,0.51-0.85,0.92-1.3,1.25
		c-1.09,0.81-2.22,1.16-3.43,1.09c-1.37-0.08-2.57-0.62-3.67-1.64c-0.68-0.64-1.17-1.36-1.47-2.2l-0.12-0.4l-0.1-0.46
		c0-0.05-0.01-0.09-0.02-0.14c-0.08-0.53-0.07-0.99,0.03-1.43c0.31-1.4,0.91-2.63,1.86-3.76c0.74-0.88,1.67-1.66,2.94-2.45
		c1.31-0.82,2.76-1.51,4.26-2.21l0.71-0.33c1.29-0.6,2.62-1.22,3.92-1.91C1876.41,32.48,1877.27,31.97,1878.06,31.46z M1871.67,29.3
		c-0.72,0.35-1.46,0.7-2.22,1.05l-0.72,0.34c-1.64,0.76-3.24,1.53-4.79,2.5c-1.7,1.06-3.05,2.2-4.12,3.49
		c-1.46,1.74-2.43,3.72-2.91,5.9c-0.21,0.97-0.25,1.99-0.12,3.03c0,0.15,0.02,0.31,0.06,0.46l0.18,0.83c0.02,0.1,0.05,0.2,0.08,0.29
		l0.2,0.56c0.32,0.88,0.76,1.69,1.29,2.44c-0.18-0.11-0.37-0.22-0.55-0.33l-0.95-0.56c-1.63-0.96-3.32-1.95-4.89-2.99
		c-2.2-1.46-3.9-2.82-5.34-4.29l-0.29-0.3c-0.47-0.48-1.12-0.75-1.79-0.75c-0.11,0-0.23,0.01-0.34,0.02
		c-0.79,0.11-1.47,0.58-1.85,1.28l-0.2,0.37c-0.99,1.8-2.25,3.58-3.97,5.58c-1.24,1.44-2.6,2.86-3.91,4.23l-0.74,0.78
		c-1.71,1.79-3.37,3.57-4.86,5.57c-0.08,0.11-0.15,0.21-0.22,0.32c0.75-2.44,0.99-4.99,0.71-7.59c-0.25-2.29-0.93-4.64-2.07-7.19
		c-1.07-2.36-2.36-4.54-3.7-6.75l-0.58-0.95c-1.04-1.7-2.11-3.46-3.05-5.21c-0.4-0.74-0.74-1.44-1.07-2.12L1871.67,29.3
		L1871.67,29.3z M1802.34,33.15c1.95-0.64,3.97-1.29,5.94-2.06c1.48-0.57,2.83-1.17,4.08-1.8h1.09c0.58,1.44,1.28,2.92,2.12,4.49
		c1.01,1.87,2.11,3.69,3.18,5.44l0.57,0.94c1.26,2.07,2.47,4.11,3.42,6.21c0.93,2.06,1.47,3.91,1.66,5.67
		c0.25,2.28-0.04,4.48-0.85,6.56c-0.29,0.73-0.72,1.41-1.31,2.07c-0.05,0.06-0.1,0.12-0.15,0.18l-0.72,0.66l-0.39,0.29
		c-1.2,0.88-2.52,1.43-4.04,1.67c-2.42,0.39-4.54,0.03-6.49-1.12c-1.77-1.03-3-2.56-3.76-4.67c-0.3-0.85-0.51-1.76-0.62-2.8
		c-0.01-0.06-0.02-0.14-0.04-0.25c-0.15-0.89-0.77-1.63-1.62-1.94c-0.85-0.31-1.79-0.14-2.48,0.44c-0.09,0.08-0.14,0.12-0.19,0.17
		c-0.75,0.7-1.5,1.27-2.28,1.71c-1.95,1.11-3.88,1.47-5.89,1.1c-2.23-0.4-4.08-1.51-5.66-3.37c-0.99-1.17-1.64-2.45-1.98-3.9
		l-0.14-0.62l-0.08-0.82c0-0.07,0.01-0.14,0-0.22c-0.02-0.91,0.09-1.7,0.35-2.45c0.73-2.11,1.95-3.97,3.62-5.54
		c1.29-1.21,2.91-2.27,4.95-3.23c2.09-0.98,4.33-1.74,6.64-2.5L1802.34,33.15z M1798.09,29.3c-1.89,0.64-3.75,1.32-5.57,2.18
		c-2.53,1.19-4.57,2.53-6.25,4.11c-2.26,2.13-3.92,4.66-4.92,7.54c-0.44,1.25-0.65,2.6-0.63,4.02c-0.02,0.17-0.02,0.34,0,0.51
		l0.12,1.22c0.01,0.1,0.03,0.2,0.05,0.31l0.19,0.83c0.11,0.49,0.26,0.96,0.43,1.43c-1.19-0.98-2.39-1.95-3.61-2.91l-1.77-1.4
		c-3.13-2.47-6.36-5.03-9.38-7.7c-4-3.53-7.09-6.77-9.67-10.14C1757.08,29.3,1798.09,29.3,1798.09,29.3z M1763.26,43.35
		c3.12,2.75,6.4,5.35,9.58,7.87l1.76,1.4c3.85,3.06,7.59,6.09,10.91,9.46c3.34,3.39,5.79,6.69,7.48,10.09
		c2.21,4.45,3.29,9.17,3.2,14.02c-0.04,1.85-0.44,3.75-1.2,5.66c-0.05,0.13-0.09,0.26-0.13,0.4l-1.1,2.15
		c-0.19,0.29-0.38,0.59-0.57,0.88c-0.91,1.37-1.96,2.61-3.15,3.72c-0.07,0.06-0.14,0.12-0.2,0.18c-0.39,0.35-0.81,0.68-1.23,1.01
		c-0.78,0.6-1.61,1.15-2.49,1.65c-4.77,2.69-9.53,3.57-14.57,2.68c-4.62-0.81-8.45-3.1-11.72-6.98c-1.28-1.52-2.4-3.25-3.42-5.29
		c-0.04-0.09-0.09-0.16-0.14-0.26c-0.44-0.78-1.3-1.31-2.2-1.31l0,0c-0.71,0-1.38,0.28-1.85,0.78c-0.21,0.18-0.39,0.38-0.53,0.62
		c-0.1,0.17-0.14,0.24-0.18,0.32c-1.03,2.04-2.14,3.77-3.43,5.3c-0.77,0.92-1.58,1.73-2.41,2.47c-2.67,2.31-5.68,3.74-9.13,4.34
		c-5.04,0.89-9.8,0.01-14.57-2.68c-2.98-1.68-5.42-3.94-7.25-6.72c-0.19-0.29-0.38-0.59-0.57-0.88l-0.22-0.34l-0.88-1.81
		c-0.03-0.14-0.08-0.27-0.13-0.4c-0.77-1.91-1.17-3.82-1.21-5.66c-0.09-4.85,0.98-9.57,3.2-14.02c1.69-3.4,4.14-6.7,7.48-10.09
		c0.81-0.82,1.64-1.62,2.49-2.4c2.61-2.38,5.39-4.63,8.24-6.9l1.76-1.39c3.18-2.52,6.47-5.12,9.58-7.87
		c0.5-0.44,0.99-0.88,1.47-1.32c3.08-2.81,5.71-5.55,7.95-8.3C1756.46,36.91,1759.55,40.08,1763.26,43.35z M1750.96,29.3
		c-2.25,2.95-4.88,5.81-8.18,8.84c-0.47,0.43-0.94,0.86-1.44,1.3c-3.02,2.67-6.25,5.22-9.38,7.7l-1.76,1.4
		c-1.34,1.06-2.66,2.13-3.97,3.21c0.24-0.62,0.45-1.24,0.6-1.89l0.19-0.83c0.02-0.1,0.04-0.2,0.05-0.31l0.12-1.22
		c0.02-0.17,0.02-0.34,0-0.51c0.02-1.42-0.19-2.77-0.63-4.02c-1-2.88-2.65-5.41-4.91-7.54c-1.68-1.58-3.72-2.92-6.25-4.11
		c-1.66-0.78-3.36-1.42-5.09-2.01L1750.96,29.3L1750.96,29.3z M1692.34,33.62c0.81-1.51,1.49-2.94,2.05-4.32h1.48
		c1.16,0.57,2.4,1.11,3.75,1.63c1.97,0.76,3.99,1.42,5.93,2.06l1.07,0.35c2.31,0.76,4.55,1.52,6.64,2.5
		c2.04,0.96,3.66,2.01,4.95,3.23c1.67,1.57,2.88,3.43,3.62,5.54c0.26,0.74,0.37,1.54,0.35,2.43c0,0.08,0,0.15,0,0.23l-0.11,0.96
		l-0.11,0.49c-0.34,1.45-0.99,2.73-1.98,3.9c-1.58,1.87-3.43,2.97-5.66,3.37c-2.01,0.37-3.94,0.01-5.89-1.1
		c-0.78-0.44-1.53-1.01-2.29-1.72c-0.03-0.03-0.12-0.11-0.16-0.14c-0.69-0.58-1.66-0.76-2.51-0.44c-0.85,0.32-1.47,1.05-1.61,1.94
		c-0.02,0.11-0.03,0.18-0.03,0.24c-0.11,1.03-0.32,1.94-0.62,2.79c-0.76,2.11-1.99,3.64-3.76,4.67c-1.96,1.14-4.08,1.5-6.49,1.12
		c-1.52-0.25-2.84-0.79-4.04-1.67l-0.51-0.38l-0.59-0.57c-0.04-0.06-0.09-0.12-0.14-0.17c-0.6-0.67-1.03-1.35-1.32-2.08
		c-0.81-2.08-1.1-4.29-0.85-6.56c0.19-1.76,0.73-3.61,1.66-5.67c0.95-2.11,2.16-4.14,3.42-6.22l0.59-0.97
		C1690.23,37.29,1691.33,35.48,1692.34,33.62z M1688.92,29.3c-0.3,0.63-0.63,1.28-0.99,1.96c-0.94,1.74-2,3.49-3.03,5.18l-0.6,0.98
		c-1.34,2.21-2.63,4.39-3.7,6.75c-1.15,2.54-1.83,4.9-2.08,7.19c-0.28,2.61-0.04,5.16,0.71,7.59c-0.08-0.11-0.14-0.21-0.23-0.32
		c-1.49-2-3.14-3.77-4.86-5.57l-0.76-0.79c-1.31-1.37-2.66-2.78-3.9-4.22c-1.72-2-2.98-3.78-3.97-5.59l-0.2-0.36
		c-0.38-0.7-1.07-1.17-1.85-1.28c-0.11-0.02-0.23-0.02-0.34-0.02c-0.67,0-1.31,0.27-1.79,0.75l-0.3,0.3
		c-1.44,1.47-3.14,2.83-5.34,4.29c-1.58,1.05-3.27,2.04-4.9,3l-0.94,0.56c-0.18,0.11-0.37,0.22-0.55,0.33
		c0.53-0.75,0.97-1.57,1.29-2.44l0.2-0.56c0.04-0.1,0.06-0.2,0.09-0.3l0.18-0.82c0.03-0.15,0.05-0.31,0.06-0.46
		c0.13-1.05,0.09-2.07-0.12-3.03c-0.48-2.17-1.45-4.16-2.91-5.9c-1.07-1.28-2.42-2.42-4.12-3.49c-1.56-0.97-3.16-1.74-4.79-2.5
		l-0.71-0.33c-0.65-0.3-1.28-0.59-1.9-0.89h52.35V29.3L1688.92,29.3z M1628.23,33.82c0.61-0.87,1.15-1.71,1.62-2.53
		c0.79,0.52,1.65,1.02,2.59,1.52c1.31,0.7,2.64,1.31,3.93,1.91l0.7,0.33c1.49,0.69,2.94,1.39,4.26,2.21
		c1.27,0.79,2.2,1.57,2.94,2.45c0.94,1.13,1.55,2.36,1.86,3.76c0.1,0.44,0.1,0.9,0.03,1.41c-0.01,0.04-0.01,0.1-0.02,0.15
		l-0.23,0.83c-0.31,0.85-0.79,1.57-1.48,2.21c-1.1,1.02-2.3,1.56-3.67,1.64c-1.21,0.07-2.34-0.28-3.43-1.09
		c-0.45-0.33-0.87-0.74-1.3-1.24c-0.03-0.03-0.09-0.11-0.12-0.14c-0.62-0.66-1.55-0.94-2.43-0.73c-0.88,0.21-1.58,0.87-1.83,1.73
		c-0.01,0.04-0.04,0.16-0.05,0.19c-0.15,0.64-0.34,1.19-0.6,1.7c-0.61,1.21-1.45,2.04-2.57,2.52c-1.26,0.54-2.57,0.61-4.01,0.2
		c-0.9-0.26-1.66-0.68-2.31-1.3l-0.28-0.27l-0.29-0.36c-0.03-0.05-0.06-0.1-0.1-0.14c-0.29-0.42-0.5-0.83-0.61-1.27
		c-0.36-1.39-0.37-2.76-0.04-4.19c0.26-1.12,0.74-2.24,1.51-3.52c0.8-1.32,1.78-2.6,2.8-3.9l0.47-0.6
		C1626.47,36.19,1627.38,35.03,1628.23,33.82z M1625.21,29.3c-0.32,0.53-0.67,1.07-1.07,1.64c-0.78,1.1-1.61,2.16-2.48,3.27
		l-0.48,0.61c-1.12,1.42-2.2,2.83-3.14,4.4c-1.04,1.72-1.73,3.35-2.1,4.98c-0.51,2.21-0.49,4.42,0.07,6.57l0,0
		c0.25,0.96,0.67,1.88,1.26,2.75c0.07,0.14,0.16,0.27,0.26,0.39l0.54,0.66c0.07,0.08,0.14,0.16,0.21,0.23l0.03,0.03l-0.21-0.1
		c-1.93-0.91-3.92-1.85-5.8-2.86c-2.63-1.42-4.69-2.79-6.48-4.3l-0.36-0.3c-0.46-0.39-1.03-0.6-1.62-0.6
		c-0.19,0-0.38,0.02-0.57,0.06c-0.27,0.06-0.51,0.18-0.74,0.32c0.01-0.77-0.02-1.54-0.13-2.32c-0.25-1.72-0.82-3.46-1.74-5.33
		c-0.84-1.71-1.84-3.26-2.88-4.84l-0.45-0.69c-0.82-1.24-1.59-2.4-2.3-3.62c-0.19-0.33-0.36-0.64-0.53-0.95
		C1594.5,29.3,1625.21,29.3,1625.21,29.3z M1577.51,34.77c1.2-0.56,2.46-1.06,3.76-1.54l0.75-0.28c1.4-0.51,2.84-1.04,4.26-1.65
		c1.06-0.45,2.03-0.92,2.92-1.41c0.43,0.92,0.93,1.88,1.51,2.87c0.78,1.33,1.62,2.61,2.44,3.85l0.45,0.68
		c0.95,1.44,1.86,2.85,2.57,4.31c0.7,1.41,1.1,2.62,1.28,3.83c0.22,1.54,0.09,2.98-0.42,4.41c-0.16,0.45-0.41,0.88-0.77,1.31
		c-0.03,0.04-0.06,0.08-0.1,0.12l-0.67,0.62c-0.75,0.59-1.59,0.98-2.57,1.17c-1.56,0.31-2.95,0.12-4.23-0.57
		c-1.15-0.62-1.96-1.57-2.5-2.91c-0.22-0.55-0.38-1.15-0.48-1.84c-0.01-0.05-0.02-0.15-0.03-0.19c-0.18-0.88-0.82-1.61-1.68-1.89
		c-0.85-0.28-1.79-0.1-2.46,0.5c-0.04,0.04-0.15,0.14-0.18,0.17c-0.47,0.47-0.95,0.86-1.46,1.17c-1.23,0.76-2.45,1.03-3.74,0.85
		c-0.02,0-0.04-0.01-0.07-0.02L1577.51,34.77z M1575.59,53.34c2.17,0.29,4.28-0.1,6.28-1.17c0.99,2.09,2.49,3.68,4.47,4.75
		c2.32,1.24,4.86,1.6,7.57,1.07c0.7-0.14,1.37-0.36,2.01-0.61c-0.8,1.05-1.62,2.09-2.43,3.1l-0.76,0.96
		c-1.73,2.18-3.4,4.33-4.86,6.71c-1.56,2.55-2.6,4.96-3.16,7.35c-0.77,3.22-0.75,6.46,0.05,9.61c0.35,1.36,0.95,2.69,1.8,3.94
		c0.08,0.16,0.18,0.3,0.29,0.44l0.83,1.03c0.04,0.05,0.09,0.1,0.14,0.15c-0.29,0.17-0.56,0.38-0.76,0.66l-0.22,0.3
		c-1.07,1.43-2.37,2.8-4.09,4.31c-1.25,1.1-2.54,2.11-3.91,3.19l-0.74,0.58c-1.72,1.35-3.38,2.7-4.94,4.26
		c-1.34,1.35-2.4,2.7-3.22,4.09L1575.59,53.34z M1568.58,120.92l0.29,0.61c0.04,0.09,0.09,0.18,0.15,0.27l0.39,0.61
		c1.08,1.65,2.51,2.98,4.26,3.98c1.55,0.88,3.15,1.42,4.79,1.64c-0.82,0.33-1.65,0.64-2.52,0.96l-0.7,0.26
		c-1.6,0.59-3.17,1.19-4.71,1.98c-1.24,0.64-2.31,1.34-3.23,2.11L1568.58,120.92z M1565.68,148.99c1.66,1.71,3.66,2.76,5.94,3.09
		c1.98,0.28,3.9-0.04,5.72-0.96c0.83,1.64,2.03,2.92,3.54,3.85c-1.62,0.78-3.42,1.41-5.65,1.98c-1.7,0.44-3.4,0.77-5.19,1.13
		l-0.98,0.2c-1.5,0.3-2.98,0.62-4.45,1.01L1565.68,148.99z M1564.05,164.65c1.9-0.63,3.92-1.06,5.99-1.47l0.97-0.19
		c1.79-0.36,3.63-0.73,5.46-1.19c1.58-0.41,3.02-0.86,4.34-1.36c0.37,1.37,0.85,2.8,1.44,4.32c0.69,1.75,1.47,3.46,2.23,5.11
		l0.42,0.91c0.89,1.95,1.73,3.86,2.34,5.79c0.59,1.87,0.87,3.53,0.86,5.07c-0.02,1.98-0.49,3.85-1.4,5.55
		c-0.31,0.58-0.74,1.11-1.31,1.6c-0.04,0.04-0.09,0.08-0.14,0.13l-0.6,0.45l-0.43,0.25c-1.11,0.63-2.29,0.96-3.6,1.01
		c-2.09,0.08-3.86-0.44-5.41-1.6c-1.39-1.05-2.27-2.47-2.71-4.33c-0.17-0.75-0.26-1.56-0.25-2.46c0-0.05,0-0.19-0.01-0.23
		c-0.04-0.9-0.57-1.72-1.37-2.12c-0.8-0.4-1.76-0.36-2.51,0.14c-0.1,0.06-0.16,0.11-0.22,0.15c-0.7,0.51-1.4,0.92-2.11,1.22
		c-1.3,0.55-2.55,0.75-3.78,0.62L1564.05,164.65z M1561.74,186.97c1.97,0.21,3.97-0.07,5.96-0.87c0.73,2.88,2.24,5.2,4.5,6.91
		c1,0.75,2.07,1.34,3.2,1.76h-14.47L1561.74,186.97z"/>
	<path class="st3" d="M1081.66,214.62l20.29-192.14c1.2-11.34,10.93-19.95,22.55-19.95h348.56c11.59,0,21.33,8.58,22.54,19.89
		l20.82,192.22L1081.66,214.62z"/>
	<path class="st1" d="M1528.99,223.58h450.52 M1528.99,529.58h450.52 M1528.99,223.58v306 M1979.51,223.58l-0.52,306"/>
</g>
<g id="_x34_x6_simple">
	<path class="st7" d="M1326.99,621.31L1179.6,754.49c-3.69,4.23-17.08,6.8-17.08,6.8v33.42c0,7.42-3.79,14.32-10.05,18.29
		L956.66,937.32c-11.68,7.42-26.6,7.42-38.28,0L722.52,812.97c-6.23-3.95-10-10.82-10-18.19V761.3c0,0-13.39-2.57-17.08-6.8
		L548.06,621.31c-6.93-7.94-6.93-18.09,0-26.03l147.29-133.15c3.71-4.26,17.17-6.84,17.17-6.84v-38.05c0-8.38,3.77-16.18,10-20.68
		l195.86-141.33c11.68-8.43,26.6-8.43,38.28,0l195.8,141.29c6.26,4.52,10.05,12.36,10.05,20.79v37.98c0,0,13.46,2.58,17.17,6.84
		l147.29,133.15C1333.92,603.22,1333.92,613.36,1326.99,621.31z"/>
	<path class="st8" d="M712.52,455.29h450 M712.52,761.29h450 M712.52,455.29v306 M1162.52,455.29v306"/>
</g>
<g id="_x34_x6_filigee">
	<path class="st2" d="M2116.15,1361.54v-259.38c0-12.05-9.81-21.81-21.89-21.81h-40.13l-0.32-26.63c0,0-33.18-10.52-29.51-13.27
		c13.17-9.92,18.83-27.93,13.48-42.73c-2.3-6.41-6.44-11.75-11.64-15.56c8.88-1.07,17-6.72,20.83-14.8
		c4.59-8.24,3.68-18.46-1.53-25.95c-8.73-12.66-24.96-13.74-34.92-13.13c2.76-2.45,4.9-5.35,6.44-8.85c3.98-9,2.76-20.15-3.06-28.85
		c-5.06-7.63-13.63-13.43-23.58-16.03c-8.43-2.14-17.61-2.14-27.72,0c-4.29,0.92-8.57,2.14-12.71,3.66
		c4.75-6.86,5.06-16.79,0.16-23.96c-5.51-8.09-16.23-12.05-26.34-9.62c-8.43,1.98-14.7,7.17-18.53,14.95
		c-0.92-4.12-2.15-8.24-3.98-12.21c-3.37-7.02-8.43-12.97-14.7-17.4c-0.31-0.31-0.77-0.45-1.22-0.76
		c-13.02-8.55-33.69-11.29-46.41,0.61c-0.31,0.31-0.77,0.76-1.07,1.07c-0.91-0.91-1.84-1.81-2.78-2.7c-0.66-0.62-1.33-1.24-2-1.85
		c-0.35-0.32-0.71-0.64-1.05-0.96c-0.43-0.4-1-0.65-1.56-0.81c-0.59-0.17-1.21-0.23-1.82-0.26c-0.61-0.03-1.25-0.02-1.84,0.16
		c-0.56,0.18-1.09,0.5-1.5,0.92c-0.31,0.31-2.6,2.14-5.82,5.49c-0.31-0.31-0.77-0.76-1.07-1.07c-12.71-11.9-33.39-9.31-46.41-0.76
		c-0.46,0.31-0.77,0.45-1.22,0.76c-6.28,4.43-11.33,10.53-14.7,17.4c-1.84,3.96-3.06,8.09-3.98,12.21
		c-3.83-7.78-10.11-12.97-18.53-14.95c-10.11-2.45-20.83,1.53-26.34,9.62c-4.9,7.17-4.59,17.25,0.16,23.96
		c-4.14-1.53-8.43-2.75-12.71-3.66c-9.95-2.14-19.3-2.14-27.72,0c-9.95,2.59-18.53,8.39-23.58,16.03
		c-5.82,8.85-7.05,19.84-3.06,28.85c1.53,3.35,3.68,6.41,6.44,8.85c-9.95-0.76-26.18,0.45-34.92,13.13
		c-5.2,7.48-6.13,17.85-2.15,26.1c3.83,8.09,11.94,13.89,20.83,14.8c-5.2,3.96-9.34,9.31-11.64,15.56
		c-5.36,14.8,0.31,32.81,13.48,42.73c3.83,2.9-27.88,13.27-27.88,13.27l0.32,26.63h-0.32h-40.61c-11.88,0-21.51,9.59-21.51,21.42
		v260.15c0,11.83,9.63,21.42,21.51,21.42h40.87c1.37,5.14,37.97,143.12,41.8,152.1c1.45,3.38,56.5,51.59,60.63,50.06
		c-4.75,6.72-5.06,16.79-0.16,23.96c5.51,8.09,16.23,12.06,26.34,9.62c8.43-1.98,14.71-7.17,18.53-14.95
		c0.92,4.12,2.15,8.25,3.98,12.21c3.37,6.87,8.42,12.97,14.7,17.4c0.46,0.31,0.77,0.45,1.22,0.76c13.02,8.55,33.7,11.14,46.41-0.76
		c0.3-0.31,0.76-0.76,1.07-1.07c3.21,3.35,5.51,5.18,5.82,5.49c0.92,0.92,2.15,1.23,3.37,1.07c1.22,0,2.45-0.31,3.37-1.07
		c0.3-0.3,2.6-2.28,5.82-5.49c0.3,0.31,0.76,0.76,1.07,1.07c12.72,11.9,33.39,9.15,46.41,0.61c0.46-0.31,0.91-0.45,1.22-0.76
		c6.27-4.43,11.33-10.38,14.7-17.4c1.84-3.97,3.06-8.09,3.98-12.21c3.83,7.78,10.11,12.97,18.53,14.95
		c10.11,2.44,20.83-1.53,26.34-9.62c4.9-7.17,4.59-17.1-0.16-23.96c4.14,1.53,59.21-46.67,60.63-50.06
		c3.76-9,42.36-146.78,43.8-151.92l0,0h40.13C2106.34,1383.35,2116.15,1373.59,2116.15,1361.54z M1704.67,935
		c1.84,0,3.52-0.92,4.59-2.14c0.46,0.61,0.92,1.37,0.92,2.14c0.31,1.98-0.77,4.43-2.6,5.95c-1.84,1.53-4.75,2.29-7.66,2.14
		c-2.6-0.15-4.9-0.92-6.44-2.29c-1.22-1.07-2.3-2.75-2.91-4.73c-1.22-3.82-1.22-7.94,0.31-11.45c4.29-10.23,19.76-11.14,24.35-11.29
		c7.66-0.15,15.93,1.22,23.89,3.66c0.31,0.15,0.77,0.31,1.07,0.31c-0.31,0-0.61,0.15-0.92,0.15c-9.02,2.42-16.07,7.61-20.35,14.94
		c-0.77-3.05-2.6-5.8-5.06-7.63c-3.73-2.78-10.46-4.73-13.83-0.36c-1.85,2.4-1.75,6.31,0.26,8.6
		C1701.39,934.27,1703,935,1704.67,935z M1699.31,952.09c0.46,0,0.92,0,1.38,0c4.75,0,9.18-1.53,12.71-4.27
		c0.31-0.31,0.61-0.61,0.92-0.76c-0.91,9.46,1.84,18.76,7.5,26.09c-6.44-3.96-13.48-9.76-20.52-15.56
		c-2.76-2.29-5.51-4.58-8.43-6.86C1694.71,951.48,1697.01,951.94,1699.31,952.09z M1721.23,988.57c0.77,0.15,1.38,0.15,2.15,0.15
		l-0.16,0.15c-5.36,4.88-10.56,10.07-15.47,15.26c-0.02-4.59-2.62-9.78-7.52-11.45c-2.45-0.76-5.06,0.45-5.82,2.9
		c-0.77,2.45,0.46,5.04,2.91,5.8c0.61,0.15,1.38,1.83,1.22,2.9c-0.31,1.37-1.53,2.75-3.06,3.05c-1.69,0.45-3.68,0-5.2-1.07
		c-1.53-1.22-2.76-3.21-3.37-5.35c-0.92-3.96,0.46-8.39,3.52-11.14c4.44-3.96,11.33-4.12,16.39-3.51c2.45,0.31,4.9,0.61,7.5,1.07
		C1716.48,987.96,1718.77,988.27,1721.23,988.57z M1809.88,984.29c-9.18-2.45-19.3-3.66-30.93-3.66c-3.06,0-6.28,0.15-9.65,0.31
		l-2.3,0.15c-4.9,0.31-9.65,0.45-14.4-0.15c-0.76-0.15-1.37-0.31-2.14-0.45c8.43-4.73,16.69-7.63,24.96-8.55
		c14.24-1.68,28.17,3.51,37.82,13.27C1812.03,984.75,1811.1,984.6,1809.88,984.29z M1818.45,996.5c-2.29,0.31-4.58,0.31-7.19,0.31
		c-1.38,0-2.6,0-3.98,0c-3.83,0-7.81,0.15-11.64,0c-10.87-0.45-19.91-2.29-27.87-5.8c-0.77-0.31-1.53-0.61-2.3-0.92
		c0.61,0,1.22,0,1.99-0.15l2.3-0.15c15.16-0.76,27.11,0.31,37.82,3.05C1811.1,993.75,1815.24,995.12,1818.45,996.5z M1752.92,997.1
		c3.52-0.61,7.5,0.92,11.03,2.45c9.04,3.96,19.14,6.1,31.24,6.56c0.61,0,1.22,0,1.69,0c-5.07,2.45-9.81,5.2-13.64,7.95
		c-3.98,2.75-7.66,5.65-11.33,8.39c1.07-3.51,1.07-7.33-0.46-10.53c-2.76-6.1-9.34-8.55-16.39-5.95c-2.45,0.92-3.68,3.51-2.76,5.8
		c0.92,2.45,3.52,3.66,5.82,2.75c2.45-0.92,4.14-0.45,4.9,1.22c0.77,1.83,0.31,4.58-1.22,6.25c-1.53,1.67-4.14,2.59-6.89,2.29
		c-4.14-0.31-8.27-3.35-10.11-7.48c-1.99-4.27-1.69-9.76,0.61-13.89C1747.25,999.69,1750.01,997.55,1752.92,997.1z M1732.39,1039.66
		c1.27-0.8,2.36-1.94,3.28-3.13c1.94-2.49,3.13-5.51,3.62-8.61c0.16-0.92,0.16-1.83,0.16-2.75c3.68,4.58,9.18,7.78,14.85,8.24
		c0.61,0,1.07,0,1.69,0c0.61,0,1.22,0,1.84-0.15c-2.31,1.7-4.76,3.37-7.21,4.9c-7.19,4.43-20.98,10.99-32.47,5.65
		c-5.36-2.59-9.18-7.63-9.95-12.97c-0.77-5.49,1.99-11.14,6.58-13.58c4.44-2.45,10.72-1.37,13.79,2.45
		c1.38,1.83,1.99,4.43,1.69,7.02c0,0.45-0.16,0.92-0.31,1.37c-0.46-0.15-1.07-0.31-1.53-0.31c-1.97,0-3.81,1.02-4.89,2.65
		c-1.27,1.93-1.31,4.88-0.3,6.92c0.94,1.9,2.94,3.21,5.06,3.39C1729.82,1040.87,1731.19,1040.42,1732.39,1039.66z M1737.45,998.34
		c-2.46,4.26-3.38,9.46-3.07,14.34c-4.29-4.43-10.56-6.41-16.69-5.8c3.68-3.82,7.5-7.63,11.49-11.14c3.68-3.35,7.35-6.25,11.03-9
		c2.45,1.07,4.9,1.83,7.5,2.29C1743.58,990.86,1739.91,994.07,1737.45,998.34z M1829.34,906.61c-2.76-4.73-6.13-12.21-6.13-20.45
		c0-7.78,3.06-14.95,5.67-19.69c2.6,4.73,5.67,11.9,5.67,19.69c0,3.51-0.61,7.78-1.38,12.21
		C1831.94,901.57,1830.56,904.48,1829.34,906.61z M1943.58,947.05c0.31,0.31,0.61,0.61,0.92,0.76c3.37,2.75,7.81,4.27,12.71,4.27
		c0.46,0,0.92,0,1.38,0c2.3-0.15,4.59-0.61,6.58-1.37c-2.91,2.29-5.67,4.58-8.43,6.86c-7.19,5.8-14.24,11.6-20.68,15.56
		C1941.59,965.82,1944.34,956.51,1943.58,947.05z M1964.25,940.62c-1.53,1.37-3.83,2.14-6.44,2.29c-2.91,0.15-5.82-0.61-7.66-2.14
		c-1.84-1.53-2.91-3.82-2.6-5.95c0.16-0.76,0.46-1.53,0.92-2.14c1.07,1.37,2.76,2.14,4.59,2.14c1.85,0,3.63-0.9,4.71-2.4
		c1.46-2.01,1.37-4.89,0.38-7.09c-0.88-1.94-2.58-3.14-4.67-3.5c-2.77-0.48-5.81,0.33-8.18,1.78c-0.49,0.3-0.97,0.64-1.42,1
		c-2.6,1.83-4.29,4.58-5.06,7.63c-4.44-7.33-11.49-12.52-20.37-14.95c-0.31,0-0.61-0.15-0.92-0.15c0.31-0.15,0.77-0.31,1.07-0.31
		c7.96-2.45,16.23-3.82,23.89-3.66c4.59,0,20.06,1.07,24.35,11.29c1.53,3.51,1.53,7.63,0.31,11.45
		C1966.55,937.88,1965.47,939.56,1964.25,940.62z M1936.69,988.7c2.3-0.31,4.59-0.76,6.89-1.07c2.6-0.45,5.06-0.92,7.5-1.07
		c5.06-0.61,12.1-0.31,16.39,3.51c3.06,2.75,4.44,7.17,3.52,11.14c-0.46,2.29-1.69,4.12-3.37,5.35c-1.53,1.07-3.52,1.53-5.2,1.07
		c-1.54-0.45-2.77-1.82-3.08-3.19c-0.16-1.22,0.46-2.75,1.22-2.9c2.45-0.76,3.68-3.35,2.91-5.8c-0.77-2.45-3.37-3.66-5.82-2.9
		c-5.06,1.68-7.66,6.86-7.5,11.45c-4.9-5.19-10.11-10.38-15.47-15.26l-0.16-0.15C1935.31,988.86,1935.92,988.7,1936.69,988.7z
		 M1929.5,1027.79c-0.61,0-1.07,0.15-1.53,0.31c-0.16-0.45-0.31-0.92-0.31-1.37c-0.31-2.59,0.31-5.19,1.69-7.02
		c2.91-3.82,9.18-4.88,13.79-2.45c4.43,2.44,7.19,8.24,6.57,13.57c-0.77,5.35-4.59,10.38-9.95,12.97
		c-11.49,5.49-25.27-1.22-32.47-5.65c-2.45-1.53-4.9-3.21-7.19-4.88c0.61,0,1.22,0.15,1.84,0.15c0.61,0,1.07,0,1.69,0
		c5.82-0.45,11.18-3.51,14.85-8.24c0,0.92,0,1.83,0.16,2.75c0.61,4.88,2.92,9.63,6.89,11.75c5.7,3.05,9.93-1.53,9.95-5.95
		C1935.31,1030.39,1932.71,1027.79,1929.5,1027.79z M1939.91,1006.87c-6.13-0.61-12.41,1.37-16.69,5.8
		c0.46-4.87-0.62-9.91-3.07-14.34c-2.45-4.27-6.13-7.48-10.26-9.31c2.45-0.61,5.06-1.37,7.5-2.29c3.68,2.59,7.35,5.65,11.03,9
		C1932.4,999.24,1936.23,1003.06,1939.91,1006.87z M1912.19,1002.9c2.3,4.12,2.6,9.62,0.61,13.89c-1.84,4.12-5.97,7.17-10.11,7.48
		c-2.76,0.31-5.2-0.61-6.89-2.29c-1.53-1.68-2.15-4.43-1.23-6.26c0.77-1.68,2.45-2.14,4.9-1.22c2.45,0.92,5.06-0.31,5.82-2.75
		c0.92-2.45-0.31-5.04-2.76-5.8c-7.05-2.59-13.63-0.15-16.39,5.95c-1.53,3.21-1.53,7.02-0.46,10.53c-3.68-2.9-7.5-5.8-11.33-8.39
		c-3.83-2.59-8.57-5.35-13.63-7.94c0.61,0,1.22,0,1.69,0c11.94-0.45,22.2-2.59,31.24-6.56c3.52-1.53,7.66-3.05,11.03-2.45
		C1907.74,997.56,1910.5,999.7,1912.19,1002.9z M1905.29,980.78c-4.75,0.76-9.49,0.45-14.4,0.15l-2.3-0.15
		c-16.08-0.76-29.1,0.31-40.74,3.35c-1.07,0.31-2.15,0.61-3.21,0.92c9.81-9.76,23.58-14.95,37.82-13.27
		c8.12,0.92,16.39,3.81,24.97,8.55C1906.67,980.48,1906.06,980.63,1905.29,980.78z M1850.17,993.13c10.72-2.9,22.82-3.82,37.82-3.05
		l2.3,0.15c0.61,0,1.22,0,1.99,0.15c-0.77,0.31-1.53,0.61-2.3,0.92c-7.96,3.51-17,5.35-27.87,5.8c-3.83,0.15-7.81,0.15-11.64,0
		c-1.38,0-2.76,0-3.98,0c-2.45,0-4.9,0-7.19-0.15C1842.66,995.42,1846.64,994.05,1850.17,993.13z M2029.81,1001.08
		c3.97,10.99-0.62,24.87-10.43,32.36c-7.5,5.65-17.92,7.78-28.03,5.8c-9.04-1.83-15.31-8.24-22.2-15.11
		c-0.92-0.92-1.84-1.83-2.76-2.9c-1.38-1.37-2.91-2.9-4.29-4.43c0.61,0,1.07,0.15,1.69,0.15c3.21,0,6.58-1.07,9.34-3.05
		c2.15-1.53,3.83-3.66,5.06-6.1c1.38,5.49,4.44,10.38,9.04,13.43c6.13,4.27,13.63,5.35,19.91,3.21c5.67-1.98,9.9-6.34,11.49-12.52
		c1.08-4.19-2.3-8.14-7.04-7.63c-3.19,0.35-5.82,2.59-5.82,5.8c0,1.37,0.61,2.75,1.38,3.82c-0.92,0.92-1.99,1.53-3.06,1.98
		c-3.52,1.22-7.96,0.45-11.64-2.14c-4.9-3.35-7.05-10.38-5.06-16.48c1.99-5.95,7.5-10.68,14.09-12.36
		C2012.81,982.31,2025.67,989.79,2029.81,1001.08z M2037.61,946.44c3.68,5.04,4.29,11.75,1.69,17.09
		c-2.45,5.35-8.12,9.15-14.09,9.76c-4.59,0.31-9.04-1.22-11.64-4.43c-2.45-3.05-2.91-7.63-0.92-10.53c0.92-1.37,2.91-2.45,4.9-2.9
		c0.46,2.75,2.92,4.55,5.67,4.73c6.68,0.43,8.51-7.58,4.59-11.29c-2.69-2.55-7.05-3.21-11.33-2.59c-4.75,0.76-9.04,3.21-11.49,6.72
		c-4.29,6.25-3.83,15.26,1.38,21.52c0.16,0.15,0.31,0.45,0.61,0.61c-2.6,0-5.06,0.15-7.66,0.76c-9.04,2.14-16.54,8.39-20.06,16.33
		c-1.07-3.51-3.06-6.72-5.97-9.31c-5.51-4.88-13.63-6.86-23.58-5.8c-1.38,0.15-2.91,0.31-4.29,0.61
		c5.36-3.82,10.87-8.39,16.69-13.27c13.93-11.6,29.71-24.57,44.41-26.71C2011.88,936.98,2029.8,935.3,2037.61,946.44z
		 M1976.96,926.6c3.06,3.82,7.35,6.56,12.25,7.78c-5.51,2.75-11.03,6.41-16.39,10.38c1.22-1.68,2.3-3.66,3.06-5.8
		C1977.27,934.84,1977.57,930.57,1976.96,926.6z M1964.56,883.57c8.57-1.83,16.54-1.98,23.43-0.15c7.66,1.98,14.4,6.41,18.22,12.21
		c4.14,6.1,4.9,14.04,2.3,20.15c-2.76,6.25-9.65,10.53-15.93,9.76c-6.28-0.76-11.64-6.72-11.18-12.66c0.31-3.05,2.15-5.95,4.59-6.72
		c0.16,0,0.46-0.15,0.77-0.15c-0.31,0.76-0.61,1.53-0.61,2.45c0,4.42,4.4,6.61,8.29,5.36c1.41-0.45,2.75-1.23,3.68-2.38
		c3.12-3.83-0.05-9.9-3.56-12.29c-3.21-2.14-7.35-2.9-11.03-1.83c-5.97,1.83-10.56,7.78-11.18,14.8c-0.16,1.07,0,2.29,0.16,3.35
		c-5.82-7.17-16.39-11.45-29.55-11.6c-8.27,0-17.15,1.22-25.57,3.82C1930.26,897.6,1946.79,887.53,1964.56,883.57z M1910.19,879.9
		c0.16-8.39,2.3-23.05,15.78-26.25c6.28-1.53,13.17,0.92,16.54,5.8s2.45,12.36-1.99,15.72c-1.69,1.22-3.83,1.98-6.28,1.83
		c-2.76-0.15-5.51-1.53-7.05-3.35c-0.16-0.15-0.31-0.31-0.31-0.61c1.84-0.92,3.06-2.9,3.06-5.04c0-2.15-1.23-4.17-3.15-5.16
		c-4.24-2.18-9.36,1.12-10.14,5.56c-0.59,3.4,0.73,7.16,2.64,9.94c0.22,0.32,0.45,0.64,0.7,0.95c3.06,3.82,7.96,6.25,13.02,6.72
		c-9.95,5.49-18.99,12.05-26.65,18.31C1908.35,896.23,1910.04,886.92,1910.19,879.9z M1916.02,926.29
		c10.11,2.75,16.69,10.07,18.22,20.15c1.53,11.14-3.83,22.58-13.48,28.38c-0.77,0.45-1.53,0.92-2.45,1.37
		c-11.64-7.63-23.28-12.21-34.77-13.58c-17.15-1.98-33.69,4.27-45.48,15.87c2.59-4.73,5.65-8.69,8.11-11.59
		c6.58-7.33,14.55-13.74,22.51-19.84l3.37-2.59c4.29-3.35,8.73-7.02,13.02-10.99c-1.53,5.35-1.07,11.14,1.69,16.33
		c4.14,7.48,11.49,11.29,18.99,9.76c3.99-0.81,7.92-2.81,10.38-6.13c2.58-3.49,3.8-10.75-0.6-13.44
		c-3.85-2.35-10.09,0.34-10.09,5.07c0,1.53,0.61,2.9,1.69,3.96c-0.92,0.76-1.99,1.22-3.21,1.53c-5.2,1.07-8.27-3.66-9.04-5.19
		c-3.37-6.25-0.77-14.19,5.97-17.85C1905.15,925.38,1910.66,924.77,1916.02,926.29z M1890.47,913.93
		c-6.44,9.31-15.31,16.79-24.05,23.5l-3.37,2.59c-8.12,6.41-16.54,12.97-23.74,21.06c-1.69,1.98-3.68,4.43-5.67,7.17
		c-0.03-2.44-0.17-4.73-0.33-7.16c0.77-15.72,2.91-31.44,7.66-40.59c2.15-4.12,3.98-6.72,6.13-8.85c2.45-2.45,5.36-3.82,8.12-4.12
		c4.59-0.45,9.34,2.75,10.56,7.17c1.22,4.27-1.07,9.76-5.2,11.75c-2.15,1.07-4.44,1.07-5.97,0.31c-1.38-0.76-2.15-2.29-1.84-3.51
		c0.16-0.31,0.46-0.76,1.07-0.92c0.31-0.15,0.61-0.15,0.61-0.15c2.15,1.37,5.06,0.61,6.28-1.53c1.38-2.14,0.61-5.04-1.53-6.25
		c-2.6-1.53-5.67-1.83-8.73-0.61c-3.21,1.22-5.67,3.66-6.58,6.72c-1.69,5.35,1.07,11.45,6.28,14.35c4.29,2.29,9.65,2.14,14.4-0.15
		c8.12-3.96,12.41-13.89,9.95-22.44c-2.45-8.7-11.49-14.65-20.37-13.74c-1.07,0.15-2.15,0.31-3.21,0.61
		c1.99-3.66,3.83-7.63,5.06-11.9c3.37,5.04,9.04,8.55,15.01,8.55h0.16c5.36,0,10.26-2.45,13.17-6.72c1.53-2.24,2.42-4.84,2.45-7.55
		c0.03-2.55-0.45-5.5-2.35-7.35c-1.56-1.52-3.76-2.14-5.91-1.88c-3.19,0.39-5.82,2.59-5.82,5.8c0,2.59,1.84,4.88,4.29,5.49
		c-0.16,0.15-0.16,0.31-0.16,0.45c-1.07,1.68-3.21,2.59-5.51,2.59c-3.83,0-7.5-3.05-8.57-7.02c-1.07-3.96,0.46-8.55,3.83-11.6
		c3.21-2.9,8.12-4.27,12.86-3.66c9.04,1.22,17,9.62,18.83,19.84C1899.96,893.48,1897.05,904.32,1890.47,913.93z M1848.48,844.04
		c6.28-2.14,11.33-2.14,16.08,0s8.42,6.25,10.11,11.15c-5.36,0.45-10.56,2.59-14.4,6.1c-1.22,1.07-2.15,2.14-3.06,3.35
		C1855.67,856.86,1852.31,849.98,1848.48,844.04z M1880.33,836.86c0.31,0.15,0.61,0.45,0.92,0.61c5.06,3.51,9.04,8.24,11.64,13.89
		c1.69,3.66,2.76,7.63,3.68,11.75c-3.52-3.21-7.66-5.65-12.1-6.86c-1.84-8.85-7.81-16.64-16.23-20.45
		c-7.35-3.35-14.55-2.75-20.68-1.07C1856.9,828.47,1870.99,830.61,1880.33,836.86z M1828.87,835.65c6.28,6.25,19.3,21.21,19.3,38.16
		c0,5.95-1.53,11.45-3.98,16.64c0.16-1.37,0.31-2.75,0.31-4.27c0-17.25-11.18-30.98-11.8-31.59c-0.92-1.07-2.15-1.68-3.52-1.68
		c-0.16,0-0.31,0-0.46,0c-0.16,0-0.31,0-0.46,0c-1.38,0-2.6,0.61-3.52,1.68c-0.46,0.61-11.8,14.35-11.8,31.59
		c0,1.37,0.16,2.75,0.16,4.12c-2.3-5.04-3.83-10.68-3.83-16.64C1809.58,856.86,1822.6,841.9,1828.87,835.65z M1764.86,851.36
		c2.6-5.65,6.58-10.38,11.64-13.89c0.31-0.15,0.61-0.45,0.92-0.61c9.34-6.1,23.43-8.24,32.62-2.14c-6.13-1.83-13.32-2.29-20.68,1.07
		c-8.27,3.82-14.4,11.6-16.23,20.45c-4.44,1.22-8.57,3.66-12.1,6.86C1761.95,858.99,1763.17,854.87,1764.86,851.36z M1809.27,844.05
		c-3.83,5.95-7.19,12.81-8.88,20.59c-0.92-1.22-1.84-2.45-3.06-3.35c-3.83-3.51-9.04-5.65-14.4-6.1c1.84-4.88,5.51-9,10.11-11.14
		C1797.94,841.91,1802.99,841.91,1809.27,844.05z M1759.49,884.18c1.84-10.38,9.81-18.62,18.83-19.84
		c4.75-0.61,9.65,0.76,12.86,3.66c3.37,3.05,4.9,7.63,3.83,11.6c-1.07,3.96-4.75,7.02-8.57,7.02c-2.45,0-4.44-0.92-5.67-2.59
		c-0.16-0.15-0.16-0.31-0.16-0.45c2.45-0.61,4.29-2.9,4.29-5.49c0-1.69-0.76-3.33-2.08-4.4c-1.48-1.21-3.75-1.59-5.63-1.38
		c-3.27,0.36-5.33,2.75-6.03,5.84c-0.84,3.71-0.02,7.8,2.11,10.93c2.91,4.27,7.81,6.72,13.32,6.72c5.97,0,11.64-3.51,15.01-8.55
		c1.22,4.27,3.06,8.24,5.06,11.9c-1.07-0.31-2.15-0.45-3.21-0.61c-9.04-0.92-17.92,5.04-20.37,13.74
		c-2.45,8.7,1.84,18.46,9.95,22.44c4.75,2.29,10.11,2.45,14.4,0.15c5.2-2.75,7.96-9,6.28-14.35c-0.92-3.05-3.37-5.65-6.58-6.72
		c-2.91-1.07-6.13-0.92-8.73,0.61c-2.15,1.37-2.91,4.12-1.53,6.25c1.38,2.14,4.14,2.9,6.28,1.53c0,0,0.31,0,0.61,0.15
		c0.61,0.15,0.92,0.61,1.07,0.92c0.31,1.07-0.46,2.75-1.84,3.51c-1.53,0.92-3.98,0.76-5.97-0.31c-4.14-1.98-6.44-7.33-5.2-11.75
		c1.22-4.27,6.13-7.63,10.56-7.17c2.76,0.31,5.67,1.83,8.12,4.12c2.15,2.14,3.98,4.88,6.13,8.85c4.75,9.15,6.74,24.87,7.66,40.59
		c-0.16,2.43-0.16,4.72-0.31,7.16c-1.99-2.9-3.98-5.35-5.67-7.17c-7.05-8.09-15.47-14.65-23.74-21.06l-3.37-2.59
		c-8.57-6.86-17.61-14.19-24.05-23.5C1760.72,904.32,1757.81,893.49,1759.49,884.18z M1756.9,927.67c6.58,3.66,9.34,11.6,5.97,17.85
		c-0.77,1.53-3.83,6.25-9.04,5.19c-1.22-0.31-2.3-0.76-3.21-1.53c1.07-1.07,1.69-2.45,1.69-3.96c0-4.08-3.92-6.15-7.64-5.75
		c-1.74,0.19-3.45,1.05-4.43,2.49c-0.71,1.05-1.01,2.34-1.04,3.61c-0.17,7.06,6.28,12.82,12.8,14.15c7.5,1.53,14.85-2.29,18.99-9.76
		c2.76-5.19,3.21-10.99,1.69-16.33c4.29,3.96,8.88,7.63,13.02,10.99l3.37,2.59c7.81,6.1,15.93,12.52,22.51,19.84
		c2.45,2.75,5.51,6.72,8.12,11.6c-11.65-11.75-28.34-18.02-45.49-15.88c-11.49,1.37-23.13,5.95-34.77,13.58
		c-0.77-0.45-1.53-0.92-2.45-1.37c-9.65-5.8-15.16-17.25-13.48-28.38c1.53-10.23,8.12-17.55,18.22-20.15
		C1747.09,924.77,1752.61,925.38,1756.9,927.67z M1715.24,859.46c3.37-4.88,10.26-7.33,16.54-5.8
		c13.48,3.21,15.78,17.85,15.78,26.25c0.16,7.02,1.69,16.33,3.52,24.57c-7.66-6.25-16.69-12.82-26.65-18.31
		c5.2-0.45,9.95-2.9,13.02-6.72c2.76-3.51,4.05-7.83,3.06-12.05c-0.68-2.92-3.34-5.56-7.19-5.19c-3.2,0.31-5.82,2.59-5.82,5.8
		c0,2.29,1.22,4.12,3.06,5.04c-0.16,0.15-0.16,0.45-0.31,0.61c-1.53,1.98-4.29,3.21-7.05,3.35c-2.3,0.15-4.59-0.61-6.28-1.83
		C1712.79,871.81,1711.87,864.49,1715.24,859.46z M1651.53,895.62c3.83-5.8,10.42-10.23,18.22-12.21
		c6.89-1.83,14.85-1.68,23.43,0.15c17.77,3.82,34.3,13.89,47.47,24.11c-8.57-2.59-17.46-3.96-25.57-3.82
		c-13.17,0.15-23.74,4.43-29.55,11.6c0.16-1.07,0.16-2.29,0.16-3.35c-0.46-6.86-5.06-12.97-11.18-14.8
		c-3.68-1.07-7.96-0.45-11.03,1.83c-4.48,3.34-7.75,12.15-0.76,14.81c3.88,1.47,9.18-1.04,9.18-5.5c0-0.92-0.61-2.45-0.61-2.45
		s0.46,0,0.77,0.15c2.3,0.76,4.29,3.51,4.59,6.72c0.46,5.95-4.9,11.9-11.18,12.66c-6.28,0.76-13.17-3.51-15.93-9.76
		C1646.63,909.67,1647.4,901.88,1651.53,895.62z M1681.85,938.81c0.77,2.14,1.84,4.12,3.06,5.8c-5.36-3.96-10.72-7.48-16.39-10.38
		c4.9-1.07,9.18-3.96,12.25-7.78C1680.17,930.57,1680.48,934.84,1681.85,938.81z M1618.46,963.53c-2.45-5.35-1.99-12.21,1.38-16.94
		c7.81-11.14,25.73-9.46,31.09-8.7c14.55,2.14,30.48,15.26,44.42,26.71c5.82,4.88,11.33,9.46,16.69,13.27
		c-1.38-0.15-2.76-0.45-4.29-0.61c-9.95-1.07-18.07,0.92-23.58,5.8c-2.76,2.45-4.9,5.8-5.97,9.31
		c-3.37-7.94-11.03-14.19-20.06-16.33c-2.6-0.61-5.06-0.76-7.66-0.76c0.16-0.15,0.31-0.31,0.61-0.61c5.2-6.25,5.67-15.26,1.38-21.52
		c-3.56-5.19-10.46-7.67-16.6-6.75c-1.83,0.27-3.63,0.85-5.16,1.91c-1.2,0.83-2.21,1.98-2.74,3.34c-0.8,2.04-0.43,4.5,0.95,6.21
		c3.02,3.76,10.08,2.83,11-2.26c2.15,0.45,3.98,1.53,4.9,2.9c1.99,2.9,1.53,7.48-0.92,10.53c-2.6,3.05-7.05,4.73-11.64,4.43
		C1626.57,972.84,1620.9,968.88,1618.46,963.53z M1627.94,1001.08c3.98-11.29,17-18.62,28.17-16.03
		c6.74,1.53,12.25,6.41,14.09,12.36c1.99,6.1-0.16,13.13-5.06,16.48c-3.68,2.45-8.12,3.35-11.64,2.14c-1.22-0.45-2.3-1.07-3.06-1.98
		c0.92-1.07,1.38-2.29,1.38-3.82c0-6.35-8.91-7.59-11.97-2.69c-2.04,3.27-0.44,7.26,1.6,10.11c2.23,3.12,5.38,5.6,9,6.92
		c6.28,2.29,13.79,1.07,19.91-3.21c4.59-3.21,7.66-8.09,9.04-13.43c1.22,2.45,3.06,4.43,5.06,6.1c2.76,1.98,5.97,3.05,9.34,3.05
		c0.61,0,1.07,0,1.69-0.15c-1.39,1.54-2.92,2.91-4.3,4.44c-0.92,0.92-1.84,1.83-2.76,2.9c-6.74,6.86-13.17,13.43-22.2,15.11
		c-9.95,1.98-20.52-0.15-28.03-5.8C1628.55,1025.96,1624.12,1012.07,1627.94,1001.08z"/>
	<path class="st3" d="M1142.52,1071.06l-0.25-21.34c27.17-9.08,27.76-12.6,28.05-14.31c0.24-1.4-0.32-2.77-1.49-3.65
		c-12.1-9.15-17.31-25.65-12.41-39.25c2.02-5.52,5.69-10.43,10.58-14.17l6.19-4.73l-7.76-0.8c-7.75-0.8-14.93-5.92-18.29-13.05
		c-3.46-7.18-2.7-16.44,1.88-23.04c6.81-9.91,18.81-11.98,27.67-11.98c1.45,0,2.92,0.06,4.38,0.17l9.15,0.7l-6.85-6.09
		c-2.34-2.08-4.24-4.71-5.66-7.83c-3.5-7.94-2.43-17.87,2.82-25.89c4.59-6.96,12.5-12.33,21.72-14.74c3.91-1,8.11-1.5,12.47-1.5
		c4.4,0,9.02,0.52,13.75,1.53c4.26,0.92,8.38,2.11,12.25,3.54l9.34,3.46l-5.73-8.14c-4.14-5.88-4.2-14.49-0.13-20.46
		c3.77-5.55,10.56-8.99,17.72-8.99c1.78,0,3.55,0.21,5.27,0.63c7.44,1.76,12.97,6.24,16.44,13.32l3.88,7.92l1.92-8.6
		c1-4.49,2.23-8.28,3.76-11.6c3.18-6.52,7.91-12.13,13.64-16.18c0.12-0.08,0.26-0.16,0.41-0.25c0.24-0.14,0.48-0.29,0.77-0.48
		c6.52-4.31,14.78-6.79,22.63-6.79c5.51,0,13.4,1.25,19.75,7.19c0.31,0.32,0.74,0.75,1.05,1.05l2.24,2.24l2.19-2.29
		c0.91-0.95,1.85-1.89,2.81-2.79c0.64-0.6,1.29-1.19,1.94-1.77c0.28-0.24,0.55-0.47,0.82-0.73c0.15-0.15,0.33-0.29,0.53-0.34
		c0.17-0.04,1.23-0.06,1.55,0c0.47,0.09,0.72,0.45,1.06,0.76c0.9,0.81,2.76,2.5,5.17,4.92l2.22,2.22l2.19-2.25
		c0.28-0.29,0.7-0.71,1-1.01c6.3-5.89,14.12-7.13,19.58-7.13c7.88,0,16.21,2.51,22.85,6.88c0.24,0.17,0.52,0.32,0.79,0.46
		c0.03,0.02,0.06,0.03,0.09,0.05l0.05,0.05l0.21,0.15c5.83,4.13,10.56,9.74,13.66,16.22c1.51,3.28,2.74,7.08,3.74,11.56l1.92,8.59
		l3.88-7.9c3.48-7.09,9.01-11.57,16.42-13.32c1.73-0.42,3.51-0.63,5.28-0.63c7.17,0,13.96,3.44,17.72,8.98
		c4.03,5.91,3.97,14.53-0.14,20.49l-5.55,8.05l9.17-3.4c3.89-1.44,8.01-2.63,12.25-3.54c4.8-1.02,9.45-1.53,13.8-1.53
		c4.32,0,8.5,0.51,12.43,1.51c9.18,2.41,17.1,7.78,21.7,14.75c5.28,7.93,6.35,17.86,2.8,25.92c-1.33,3.05-3.18,5.6-5.65,7.8
		l-6.68,5.94l8.92-0.55c1.35-0.08,2.7-0.12,4-0.12c9.08,0,21.32,2.07,28.09,11.93c4.73,6.81,5.26,15.72,1.38,22.71l-0.05,0.09
		l-0.04,0.09c-3.3,6.98-10.5,12.11-18.35,13.06l-7.75,0.94l6.29,4.62c4.86,3.57,8.5,8.45,10.53,14.13
		c4.91,13.61-0.3,30.12-12.39,39.25c-1.15,0.86-1.69,2.2-1.46,3.58c0.29,1.67,0.87,5.11,29.69,14.43l0.25,21.3h-442.07V1071.06z"/>
	<path class="st9" d="M1604.69,1079.12h449.41 M1604.39,1385.12h449.72 M1604.69,1079.12v306 M2054.1,1079.12l0.01,306"/>
</g>
</svg>
