<?xml version="1.0" encoding="utf-8"?>
<!-- Generator: Adobe Illustrator 23.0.3, SVG Export Plug-In . SVG Version: 6.00 Build 0)  -->
<svg version="1.1" xmlns="http://www.w3.org/2000/svg" xmlns:xlink="http://www.w3.org/1999/xlink" x="0px" y="0px"
	 viewBox="0 0 612 792" style="enable-background:new 0 0 612 792;" xml:space="preserve">
<style type="text/css">
	.st0{fill:#084BC1;stroke:#000000;stroke-miterlimit:10;}
	.st1{fill:none;stroke:#000000;stroke-miterlimit:10;stroke-dasharray:5.989,2.9944;}
	.st2{fill:#073577;stroke:#000000;stroke-miterlimit:10;}
	.st3{fill:none;stroke:#000000;stroke-width:0.998;stroke-miterlimit:10;stroke-dasharray:5.9887,2.9944;}
	.st4{fill:none;stroke:#000000;stroke-width:0.998;stroke-miterlimit:10;stroke-dasharray:5.989,2.9944;}
	.st5{fill:#84BEF7;stroke:#000000;stroke-miterlimit:10;}
	.st6{fill:none;stroke:#000000;stroke-miterlimit:10;stroke-dasharray:6,3;}
	.st7{fill-rule:evenodd;clip-rule:evenodd;fill:#084BC1;stroke:#000000;stroke-width:0.7843;stroke-miterlimit:10;}
	.st8{fill:#410670;stroke:#000000;stroke-miterlimit:10;}
</style>
<g id="BODY_Cut_and_Score">
	<path id="BODY_CUT" class="st0" d="M441.8,166.5c-10.2-18.2-21.4-27.2-35.8-34.2c-14.4-6.9-27.2-21.9-34.7-28.9
		c-7.5-6.9-15.6-13.6-22-16s-19.4-3.7-19.4-3.7s-16.5-1.5-29.1,11.2c-8.6,8.6-13.8,19.4-13.8,27.4c0-8.3-5.2-18.8-13.8-27.4
		C260.5,82.3,244,83.8,244,83.8s-12.4,1-19.4,3.7s-14.5,9.1-22,16c-7.5,6.9-20.3,21.9-34.7,28.9c-14.4,6.9-25.6,16-35.8,34.2
		c-10.2,18.2-8.5,40.1-2.1,71.1c6.4,31,60.9,88.2,73.7,99.9c12.8,11.8,34.7,24,34.7,24s-4.5,9.8-4.3,15c0.5,7.8,8.4,10.5,8.4,10.5
		s-0.6,8.8,0.2,11.4c1,3.4,7.1,4.1,7.1,4.1s0.3,9.5,3,14.1c1.8,3,9.6,4.3,9.6,4.3s-1.8,3.4,3,8.7s11.2,3.1,13.3,6.8
		c4.1,6.9,4.9,10.7,8.4,10.8c3.5,0.2,3.9-3.4,8.1-10.5c2.1-3.5,7-2.3,12.4-6.6c5.3-4.3,4.6-9.2,4.6-9.2s6.8-1,8.9-4.9
		c2.3-4.3,1.6-13.4,1.6-13.4s6.6-1.4,8-5.9c1-3.3,0.7-10.2,0.7-10.2s6.4-5.2,6.8-11.2c0.3-5.1-2.9-13.9-2.9-13.9s21.9-12.3,34.7-24
		c12.8-11.8,67.3-68.9,73.7-99.9C450.3,206.6,451.9,184.7,441.8,166.5z M286.9,341.4l-0.2-0.5c-0.3-0.7-0.7-1.6-1.2-2.8l0.5-0.2
		c0.4,0.9,0.7,1.6,1,2.2c0.3-0.6,0.6-1.4,1-2.2l0.5,0.2c-0.5,1.1-0.9,2.1-1.2,2.8L286.9,341.4z M284.3,335.3
		c-0.7-1.6-1.5-3.5-2.3-5.7l0.5-0.2c0.9,2.1,1.7,4,2.3,5.7L284.3,335.3z M280.8,326.8c-0.7-1.8-1.5-3.7-2.3-5.7l0.5-0.2
		c0.8,2,1.6,3.9,2.3,5.7L280.8,326.8z M277.4,318.3c-0.7-1.8-1.5-3.7-2.2-5.7l0.5-0.2c0.8,2,1.5,3.9,2.2,5.7L277.4,318.3z
		 M274.1,309.8c-0.7-1.9-1.4-3.8-2.2-5.7l0.5-0.2c0.7,1.9,1.4,3.9,2.2,5.7L274.1,309.8z M270.9,301.2c-0.7-1.9-1.4-3.8-2.1-5.8
		l0.5-0.2c0.7,1.9,1.4,3.9,2.1,5.8L270.9,301.2z M267.8,292.5c-0.7-1.9-1.3-3.9-2-5.8l0.5-0.2c0.7,1.9,1.3,3.9,2,5.8L267.8,292.5z
		 M264.8,283.8c-0.6-2-1.3-3.9-1.9-5.8l0.5-0.2c0.6,1.9,1.2,3.9,1.9,5.8L264.8,283.8z M262,275.1c-0.6-2-1.2-4-1.8-5.9l0.5-0.1
		c0.5,1.9,1.1,3.8,1.8,5.9L262,275.1z M259.4,266.3c-0.6-2.1-1.1-4.1-1.6-5.9l0.5-0.1c0.5,1.9,1,3.9,1.6,5.9L259.4,266.3z
		 M257.1,257.4c-0.3-1.2-0.5-2.4-0.8-3.6c-0.2-0.8-0.3-1.6-0.5-2.4l0.5-0.1c0.1,0.8,0.3,1.6,0.4,2.4c0.2,1.1,0.5,2.3,0.8,3.6
		L257.1,257.4z M255.5,248.4c-0.3-2-0.4-4-0.6-6.1l0.5,0c0.1,2.1,0.3,4.1,0.6,6.1L255.5,248.4z M254.8,239.2c0-0.9,0-1.7,0-2.6
		c0-1.2,0-2.3,0.1-3.5l0.5,0c0,1.2-0.1,2.3-0.1,3.5c0,0.9,0,1.7,0,2.6L254.8,239.2z M255.4,230l-0.5,0c0.1-2,0.3-4.1,0.5-6.1
		l0.5,0.1C255.7,226,255.5,228,255.4,230z M256.3,220.9l-0.5-0.1c0.3-2,0.6-4,1-6l0.5,0.1C256.9,216.9,256.6,218.9,256.3,220.9z
		 M257.9,211.9l-0.5-0.1c0.4-2,0.9-4,1.4-6l0.5,0.1C258.8,208,258.3,210,257.9,211.9z M260.1,203l-0.5-0.1c0.5-2,1.1-3.9,1.8-5.9
		l0.5,0.2C261.2,199.1,260.6,201.1,260.1,203z M262.8,194.3l-0.5-0.2c0.7-1.9,1.4-3.9,2.1-5.7l0.5,0.2
		C264.2,190.5,263.5,192.4,262.8,194.3z M266.1,185.8l-0.5-0.2c0.8-1.9,1.6-3.8,2.5-5.6l0.5,0.2C267.7,182,266.9,183.9,266.1,185.8z
		 M269.9,177.4l-0.4-0.2c0.9-1.8,1.9-3.7,2.9-5.4l0.4,0.2C271.8,173.8,270.8,175.6,269.9,177.4z M274.3,169.4l-0.4-0.3
		c0.7-1.2,1.5-2.5,2.3-3.7l1-1.5l0.4,0.3l-1,1.5C275.8,166.9,275.1,168.2,274.3,169.4z M279.2,161.7l-0.4-0.3
		c1.4-2.2,2.4-3.8,3.2-5.2l0.4,0.2C281.6,157.9,280.6,159.4,279.2,161.7z M283.8,153.7l-0.4-0.2c1-2,1.7-3.8,2.2-5.6l0.5,0.1
		C285.5,149.9,284.8,151.8,283.8,153.7z M286.8,145.1l-0.5-0.1c0.2-0.9,0.3-1.9,0.4-2.9l0.2-2.4l0.2,2.4c0.1,1,0.2,2,0.4,2.9
		l-0.5,0.1c-0.1-0.3-0.1-0.7-0.2-1.1C286.9,144.4,286.8,144.7,286.8,145.1z M289.5,335.4l-0.5-0.2c0.7-1.6,1.5-3.5,2.3-5.7l0.5,0.2
		C291,331.8,290.2,333.7,289.5,335.4z M293,326.9l-0.5-0.2c0.7-1.8,1.5-3.7,2.3-5.7l0.5,0.2C294.5,323.2,293.8,325.1,293,326.9z
		 M296.4,318.4l-0.5-0.2c0.7-1.8,1.5-3.7,2.2-5.7l0.5,0.2C297.9,314.6,297.1,316.5,296.4,318.4z M299.7,309.8l-0.5-0.2
		c0.7-1.9,1.4-3.8,2.2-5.7l0.5,0.2C301.2,306,300.4,307.9,299.7,309.8z M302.9,301.2l-0.5-0.2c0.7-1.9,1.4-3.8,2.1-5.8l0.5,0.2
		C304.3,297.4,303.6,299.3,302.9,301.2z M306,292.6l-0.5-0.2c0.7-1.9,1.3-3.9,2-5.8l0.5,0.2C307.4,288.7,306.7,290.6,306,292.6z
		 M309,283.9l-0.5-0.2c0.6-1.9,1.3-3.9,1.9-5.8l0.5,0.2C310.3,280,309.7,281.9,309,283.9z M311.8,275.2l-0.5-0.1
		c0.6-2,1.2-4,1.8-5.9l0.5,0.1C313.1,271.1,312.5,273.1,311.8,275.2z M314.4,266.3l-0.5-0.1c0.6-2.1,1.1-4,1.6-5.9l0.5,0.1
		C315.5,262.3,315,264.3,314.4,266.3z M316.7,257.4l-0.5-0.1c0.3-1.2,0.5-2.4,0.8-3.6c0.2-0.8,0.3-1.6,0.4-2.4l0.5,0.1
		c-0.1,0.8-0.3,1.6-0.4,2.4C317.3,255,317,256.2,316.7,257.4z M318.4,248.4l-0.5-0.1c0.3-2,0.4-4,0.6-6.1l0.5,0
		C318.9,244.4,318.7,246.4,318.4,248.4z M319.1,239.2l-0.5,0c0-0.9,0-1.8,0-2.7c0-1.1,0-2.3-0.1-3.4l0.5,0c0,1.2,0.1,2.3,0.1,3.4
		C319.1,237.5,319.1,238.4,319.1,239.2z M318.4,230.1c-0.1-2-0.3-4-0.5-6.1l0.5-0.1c0.2,2.1,0.4,4.1,0.5,6.1L318.4,230.1z
		 M317.5,221c-0.3-2-0.6-4-1-6l0.5-0.1c0.4,2,0.7,4.1,1,6L317.5,221z M316,212c-0.4-2-0.9-4-1.4-5.9l0.5-0.1c0.5,2,1,4,1.4,6
		L316,212z M313.8,203.1c-0.5-2-1.1-3.9-1.8-5.8l0.5-0.2c0.6,1.9,1.2,3.9,1.8,5.9L313.8,203.1z M311.1,194.3
		c-0.7-1.9-1.4-3.8-2.1-5.7l0.5-0.2c0.8,1.9,1.5,3.8,2.1,5.7L311.1,194.3z M307.8,185.8c-0.8-1.9-1.6-3.8-2.5-5.6l0.5-0.2
		c0.9,1.8,1.7,3.7,2.5,5.6L307.8,185.8z M304,177.5c-0.9-1.8-1.9-3.6-2.9-5.4l0.4-0.2c1,1.8,1.9,3.6,2.9,5.4L304,177.5z
		 M299.6,169.5c-0.7-1.3-1.5-2.5-2.3-3.7l-0.9-1.5l0.4-0.3l0.9,1.5c0.8,1.2,1.6,2.5,2.3,3.7L299.6,169.5z M294.7,161.7
		c-1.4-2.2-2.4-3.8-3.2-5.2l0.4-0.2c0.8,1.4,1.8,3,3.2,5.2L294.7,161.7z M290.1,153.8c-1-2-1.7-3.8-2.2-5.7l0.5-0.1
		c0.5,1.9,1.2,3.7,2.2,5.6L290.1,153.8z"/>
	<path id="BODY_SCORE" class="st1" d="M239.2,362.3h94.7 M287.1,341.8l47.8,20 M238.7,361.3l47.6-20"/>
</g>
<g id="TAIL_Cut_and_Score">
	<path id="TAIL_CUT" class="st2" d="M287.1,341.5l-48.6,20.8l-91.1,120.7c0,0,2.2,19.3,15.9,3.9c0.6,0-8.1,29.9-2.5,33.1
		c5.6,3.2,16.4-9.3,16.4-9.3s-2.5,22.4,4.2,25.1c6.7,2.7,14.6-6.6,14.6-6.6s-0.9,33,4.5,36c10.2,5.7,21.9-9.3,21.9-9.3
		s-0.1,34.4,8.4,38.4c10.8,5.1,22.6-8.1,22.6-8.1s1.2,35.6,12.2,38.7s21.5-12.8,21.5-12.8s13.7,17.1,26.5,11.7
		c10.5-4.5,12.5-37.6,12.5-37.6s17.2,15.5,24,7.5c6.8-8,9.5-38.5,9.5-38.5s18.3,18.5,23.4,8.5c5.1-9.9,2.4-34.8,2.4-34.8
		s11,12.6,17.2,5.6c6.1-6.8,1.9-25.2,1.9-25.2s9.9,16.2,16.8,9.4c6.1-6-2.4-34.9,0.1-32.4c17.5,13.2,15-3.6,15-3.6L335.9,361.6
		L287.1,341.5z"/>
	<path id="TAIL_SCORE" class="st3" d="M163.4,487.9L241.8,361 M160.4,501.4l81.6-140 M254.2,361.8l-77,149.4 M177.2,524.3
		l77.3-162.2 M195.7,530L266,361.8 M195.7,544.5l71.6-183 M222.1,557.3L274,361.8 M223.8,578.3l51.7-217 M253.8,587.5l28.5-225.9
		 M283.3,361.8l-27.1,248 M287.1,361.6l-0.2,250.8 M292.1,361.6l29.7,247.2 M326.1,586.4l-32.9-224.6 M356.7,575.1l-52.5-213.2
		 M304.2,361.8l55.7,194.4 M386.6,549.5l-74.4-188 M384.9,529.7l-72.2-167.8 M406.2,525.7l-82.5-163.6 M324.2,361.6l79.9,147.9
		 M334.3,361.2l88.2,139 M420.8,487.4l-85.5-125.6 M238.2,361.8h96.7"/>
</g>
<g id="BEAK_Cut_and_Score">
	<path id="BEAK_CUT_2_" class="st0" d="M510.2,67.8c0,0-13.9-42.5-22.1-39.2c-0.7,0.3-1.1,1.4-1.4,2.9c-0.3-1.5-0.7-2.6-1.4-2.9
		c-8.5-3.9-22.1,39.2-22.1,39.2c0.4,0.3,20.2,7.8,20.2,7.8h6.7C490,75.6,509.8,68.1,510.2,67.8z"/>
	<line id="BEAK_SCORE" class="st4" x1="486.8" y1="76.2" x2="486.8" y2="29.7"/>
</g>
<g id="TAILUPPER_Cut_and_Score">
	<path id="TAILUPPER_CUT" class="st5" d="M287.3,341.5c0,0-27,11-49.2,20.6c-6.1,11.4-21.1,55.4-16.1,59c5,3.6,10,0.4,10,0.4
		s-3.6,27.4,2.5,28.1c4.5,0.5,10.3-6.8,10.3-6.8s1.4,28.5,6.8,29.6c5.3,1.1,6.8-5,6.8-5s0.9,29.7,7.1,31.3c5.3,1.4,8.9-2.1,8.9-2.1
		s1.4,11,6.8,11c3.6,0,5.3-5.3,5.3-5.3s4.3,5.3,7.1,4.9c4.6-0.6,7.5-11.4,7.5-11.4s3.6,3.9,9.3,2.8c7-1.3,6.4-32.1,6.4-32.1
		s4.6,6.8,9.6,5c3.2-1.1,5-28.1,5-28.1s4.6,7.8,11.4,5.7c4.5-1.4,1.4-26.4,1.4-26.4s3.5,1.5,7.8-0.7c11-5.7-10.7-49.9-16.4-60.9
		C315.4,353.3,287.3,341.5,287.3,341.5z"/>
	<line id="TAILUPPER_SCORE" class="st3" x1="238.2" y1="361.8" x2="334.9" y2="361.8"/>
</g>
<g id="TAILUNDER_Cut_and_Score">
	<path id="TAILUNDER_CUT" class="st5" d="M287.3,341.5c0,0-27,11-49.2,20.6c-6.1,11.4-21.1,55.4-16.1,59c5,3.6,10,0.4,10,0.4
		s-3.6,27.4,2.5,28.1c4.5,0.5,10.3-6.8,10.3-6.8s1.4,28.5,6.8,29.6c5.3,1.1,6.8-5,6.8-5s0.9,29.7,7.1,31.3c5.3,1.4,8.9-2.1,8.9-2.1
		s1.4,11,6.8,11c3.6,0,5.3-5.3,5.3-5.3s4.3,5.3,7.1,4.9c4.6-0.6,7.5-11.4,7.5-11.4s3.6,3.9,9.3,2.8c7-1.3,6.4-32.1,6.4-32.1
		s4.6,6.8,9.6,5c3.2-1.1,5-28.1,5-28.1s4.6,7.8,11.4,5.7c4.5-1.4,1.4-26.4,1.4-26.4s3.5,1.5,7.8-0.7c11-5.7-10.7-49.9-16.4-60.9
		C315.4,353.3,287.3,341.5,287.3,341.5z"/>
	<line id="TAILUNDER_SCORE" class="st3" x1="238.2" y1="361.8" x2="334.9" y2="361.8"/>
</g>
<g id="WING_Cut_and_Score">
	<path id="WING_CUT" class="st0" d="M452.9,228.3c0,0,18.5,2.3,29.7,3.7c1.4,11.4-37.6,19.1-37.6,19.1s16.5,4.1,28,6.8
		c-2.1,14.2-50.8,16.6-50.8,16.6s28.3,8,40.3,12.8c-4.3,11.8-47,8.8-47,8.8s27,10.7,35.5,15.8c-2.1,10-41.3,6.2-41.3,6.2
		s22.4,7.7,36.8,15.9c-20.6,20.6-58.9-3.5-58.9-3.5s38,27.5,42.6,33.7c-15.8,15.2-57.2-10.2-57.2-10.2s28.3,27.2,31.5,33.7
		c-12.3,9.4-48.3-19.8-48.3-19.8s19.9,20.6,25.6,30.5c-37.9-7.9-65.6-74.6-80.1-101.3c-7.9,1.5-21.4,1.9-30.1,0.2
		c-14.6,26.8-43.3,93.2-81,101.1c5.6-9.9,25.6-30.5,25.6-30.5s-36,29.1-48.3,19.8c3.2-6.4,31.5-33.7,31.5-33.7s-41.4,25.4-57.2,10.2
		c4.5-6.1,42.6-33.7,42.6-33.7s-38.3,24-58.9,3.5c14.4-8.3,36.8-15.9,36.8-15.9s-39.2,3.7-41.3-6.2c8.5-5.1,35.5-15.8,35.5-15.8
		s-42.7,2.9-47-8.8c12-4.8,40.3-12.8,40.3-12.8s-48.6-2.3-50.8-16.6c11.5-2.7,28-6.8,28-6.8s-39-7.7-37.6-19.1
		c11.2-1.3,29.7-3.7,29.7-3.7s-30.9-7.6-30.5-18.3c9.4-0.5,26.6-1.3,26.6-1.3s-35.7-15-28-26.7c7.7,0.5,25.5,2.1,25.5,2.1
		s-26-13.9-16.9-27.5c6.9,2.4,20.8,6.1,20.8,6.1s-23.5-19.5-13.9-35.8c7.8,2,24.6,15.1,24.6,15.1s-24.3-25.3-16-37.3
		c6.9,2.7,20.8,8.5,20.8,8.5s-23-15.5-15.5-35.3c3.7,0.3,15.6,11.1,23.9,17c38.2,27.3,94.7,66.6,108.1,83.2
		c14.7,18.2,13.4,16.6,13.4,16.6s10.4,2.9,23.8,2.9s23.8-2.9,23.8-2.9s-0.6,1.7,14.2-16.6c13.4-16.6,69.1-55.9,107.3-83.2
		c8.3-5.9,20.2-16.7,23.9-17c7.5,19.8-15.5,35.3-15.5,35.3s13.9-5.9,20.8-8.5c8.3,12-16,37.3-16,37.3s16.7-13.2,24.6-15.1
		c9.6,16.3-13.9,35.8-13.9,35.8s13.9-3.7,20.8-6.1c9.1,13.6-16.9,27.5-16.9,27.5s17.7-1.6,25.5-2.1c7.7,11.8-28,26.7-28,26.7
		s17.3,0.8,26.6,1.3C483.8,220.8,452.9,228.3,452.9,228.3z M271.1,300.6c0,0-0.3-1-0.9-2.9l-0.5,0.2c0.6,1.8,0.9,2.9,0.9,2.9
		L271.1,300.6z M268.8,295c-0.5-1.7-1.1-3.6-1.8-5.9l0.5-0.1c0.7,2.2,1.3,4.2,1.8,5.9L268.8,295z M266,286.2
		c-0.6-1.8-1.2-3.8-1.8-5.9l0.5-0.1c0.6,2.1,1.2,4,1.8,5.9L266,286.2z M263.3,277.3c-0.6-1.9-1.2-3.9-1.8-5.9l0.5-0.1
		c0.6,2,1.2,4,1.8,5.9L263.3,277.3z M260.6,268.5c-0.6-1.9-1.2-3.9-1.8-5.9l0.5-0.1c0.6,2,1.2,3.9,1.8,5.9L260.6,268.5z M258,259.7
		c-0.3-1-0.6-2.1-0.9-3.1c-0.3-0.9-0.5-1.8-0.7-2.8l0.5-0.1c0.2,0.9,0.5,1.9,0.7,2.8c0.3,1,0.6,2.1,0.9,3.1L258,259.7z M255.7,250.7
		c-0.4-2-0.7-4-0.9-6.1l0.5,0c0.2,2.1,0.5,4.1,0.9,6.1L255.7,250.7z M254.6,241.6c-0.1-1.7-0.2-3.5-0.2-5.3c0-0.3,0-0.6,0-0.9l0.5,0
		c0,0.3,0,0.6,0,0.9c0,1.8,0.1,3.5,0.2,5.2L254.6,241.6z M255,232.4l-0.5,0c0.1-2,0.2-4.1,0.4-6.1l0.5,0
		C255.2,228.3,255.1,230.4,255,232.4z M255.8,223.2l-0.5-0.1c0.2-2,0.6-4,0.9-6.1l0.5,0.1C256.3,219.2,256,221.2,255.8,223.2z
		 M257.2,214.1l-0.5-0.1c0.4-2,0.8-4,1.3-6l0.5,0.1C258.1,210.1,257.6,212.1,257.2,214.1z M259.3,205.2l-0.5-0.1
		c0.5-2,1.1-4,1.7-5.9l0.5,0.1C260.4,201.2,259.8,203.2,259.3,205.2z M262.9,193.5l-0.5-0.2c0,0-0.4,1-1,2.8l0.5,0.2
		C262.5,194.6,262.9,193.5,262.9,193.5z M304.1,297.9l-0.5-0.2c-0.6,1.8-0.9,2.9-0.9,2.9l0.5,0.2
		C303.2,300.7,303.5,299.7,304.1,297.9z M305,295l-0.5-0.2c0.5-1.7,1.1-3.6,1.8-5.9l0.5,0.1C306.2,291.3,305.6,293.3,305,295z
		 M307.8,286.2l-0.5-0.1c0.6-1.8,1.2-3.8,1.8-5.9l0.5,0.1C309,282.3,308.4,284.3,307.8,286.2z M310.5,277.3l-0.5-0.1
		c0.6-1.9,1.2-3.9,1.8-5.9l0.5,0.1C311.7,273.5,311.1,275.4,310.5,277.3z M313.2,268.5l-0.5-0.1c0.6-1.9,1.2-3.9,1.8-5.9l0.5,0.1
		C314.4,264.6,313.8,266.6,313.2,268.5z M315.8,259.7l-0.5-0.1c0.3-1,0.6-2.1,0.9-3.1c0.3-0.9,0.5-1.8,0.7-2.8l0.5,0.1
		c-0.2,1-0.5,1.9-0.7,2.8C316.4,257.6,316.1,258.6,315.8,259.7z M318.1,250.8l-0.5-0.1c0.4-1.9,0.7-4,0.9-6.1l0.5,0
		C318.8,246.7,318.5,248.8,318.1,250.8z M319.2,241.6l-0.5,0c0.1-1.7,0.2-3.5,0.2-5.2c0-0.3,0-0.6,0-0.9l0.5,0c0,0.3,0,0.6,0,0.9
		C319.4,238.1,319.3,239.9,319.2,241.6z M318.8,232.4c-0.1-2-0.2-4-0.4-6.1l0.5,0c0.2,2.1,0.3,4.2,0.4,6.1L318.8,232.4z M318,223.2
		c-0.2-2-0.5-4-0.9-6.1l0.5-0.1c0.4,2,0.7,4.1,0.9,6.1L318,223.2z M316.6,214.1c-0.4-2-0.8-4-1.3-6l0.5-0.1c0.5,2,0.9,4,1.3,6
		L316.6,214.1z M314.5,205.2c-0.5-2-1.1-4-1.7-5.9l0.5-0.1c0.6,1.9,1.2,3.9,1.7,5.9L314.5,205.2z M312.4,196.2c-0.6-1.8-1-2.8-1-2.8
		l-0.5,0.2c0,0,0.4,1,1,2.8L312.4,196.2z"/>
	<path id="WING_SCORE" class="st6" d="M439.7,112.9l-124,89.8 M444.7,141.4l-128.2,68.4 M453.6,163.2l-136.1,52.7 M457.1,184.2
		l-138.2,39.9 M455.4,209.1l-136.1,22.8 M443.6,251.1l-124.7-9.3 M452.2,228l-132.5,8.9 M420.1,274.3l-102.9-21 M413,295.7
		l-98.7-32.1 M407.3,317l-94.7-46.3 M355.6,368L305,295 M369.9,351.6l-62.7-64.8 M387.3,330.6l-77.7-52 M257.7,203.1l-124-89.8
		 M257,210.2l-128.2-68.4 M256,216.2l-136.1-52.7 M254.5,224.4l-138.2-39.9 M118.1,209.5l136.1,22.8 M254.5,242.2l-124.7,9.3
		 M121.3,228.3l132.5,8.9 M256.3,253.6l-102.9,21 M259.2,264L160.5,296 M260.9,271.1l-94.7,46.3 M216.7,367.6l51.7-72.3
		 M203.2,352.3l63.1-65.2 M263.8,278.9l-77.7,52"/>
</g>
<g id="Color_Layers_CUT">
	<path id="CREST" class="st7" d="M333,62.6c0,0-7.9-9.4-16.1-19.4c-7.2-8.7-14.3-22.1-16.9-25.1c-1.8,0.3-3.5,3.2-0.6,12.9
		c2.8,9.7,6,11.6,5,12.6c-1,0.9-6.5-5.3-10.8-11c-4.3-5.7-1.7,12,4.5,16.8s0.5,6.4-4.4,3.7c-4.8-2.7,3.5,7.9,8.1,9.2
		S333,62.6,333,62.6z"/>
	<path id="CROWN_2" class="st5" d="M371.2,103.5c2.5,2.6,14.3,15.5,26.4,24.8c16.7,9.6,27.8,22.1,24.6,29.2
		c-3.2,7.1-9.3,8.5-9.3,8.5s7.2,7.7,1.4,19.2c-4.3,8.5-14.6,10.7-14.6,10.7s4.3,14.4-0.5,22.4s-20.1,12.1-20.1,12.1
		s2,22.6-18.2,25.6c-24.7,3.7-44.5-39.4-44.5-39.4s-1.2-11.6-5-22.3c-3.7-10.7-12.4-27.2-16.7-33.5c-4.3-6.3-5-8.5-7.1-16.7
		c-0.8-10.1-0.7-20.9-0.3-29.8c12.1-24.6,30.1-30,39.5-31.1C340.1,81.9,351.7,86.9,371.2,103.5z M203,103.5
		c-2.5,2.6-14.3,15.5-26.4,24.8c-16.7,9.6-27.8,22.1-24.6,29.2s9.3,8.5,9.3,8.5s-7.2,7.7-1.4,19.2c4.3,8.5,14.6,10.7,14.6,10.7
		s-4.3,14.4,0.5,22.4s20.1,12.1,20.1,12.1s-2,22.6,18.2,25.6c24.7,3.7,44.5-39.4,44.5-39.4s1.2-11.6,5-22.3
		c3.7-10.7,12.4-27.2,16.7-33.5c4.3-6.3,5-8.5,7.1-16.7c0.1-9.8,0.1-24.1,0.3-29.8c-12.1-24.6-30.1-30-39.5-31.1
		C234.1,81.9,222.5,86.9,203,103.5z M318.8,117.1c0-2.7,2.2-4.8,4.8-4.8s4.8,2.2,4.8,4.8s-2.2,4.8-4.8,4.8S318.8,119.8,318.8,117.1z
		 M255.4,117.1c0-2.7-2.2-4.8-4.8-4.8s-4.8,2.2-4.8,4.8s2.2,4.8,4.8,4.8S255.4,119.8,255.4,117.1z"/>
	<path id="CROWN_1" class="st2" d="M371.2,103.5c3.3,3,15,15.1,14.4,25.9c0.5,5.9-4.3,14.2-4.3,14.2s13.2,13.4,6.8,24.6
		c-2.8,5-10.7,10-10.7,10s9.1,14.1,4.3,22.1s-14.2,12.5-14.2,12.5s6.9,13.7-3.2,18.7c-26,12.9-48.5-16.6-48.5-16.6
		s-0.5-9.6-4.3-20.3c-3.7-10.7-12.4-27.2-16.7-33.5c-4.3-6.3-5-8.5-7.1-16.7c-0.7-10.1-0.4-22.5-0.3-29.8
		c12.1-24.6,30.1-30,39.5-31.1C340.1,81.9,351.7,86.9,371.2,103.5z M203,103.5c-3.3,3-15,15.1-14.4,25.9c-0.5,5.9,4.3,14.2,4.3,14.2
		s-13.2,13.4-6.8,24.6c2.8,5,10.7,10,10.7,10s-9.1,14.1-4.3,22.1s14.2,12.5,14.2,12.5s-6.9,13.7,3.2,18.7
		c26,12.9,48.5-16.6,48.5-16.6s0.5-9.6,4.3-20.3c3.7-10.7,12.4-27.2,16.7-33.5c4.3-6.3,5-8.5,7.1-16.7c0.5-9.8,0.3-22.8,0.3-29.8
		c-12.1-24.6-30.1-30-39.5-31.1C234.1,81.9,222.5,86.9,203,103.5z M315.6,148.6c-22.7-27.5,8.7-53.2,12.3-50.8
		C356,116.9,331.9,145.7,315.6,148.6z M258.7,148.6c22.7-27.5-8.7-53.2-12.3-50.8C218.3,116.9,242.3,145.7,258.7,148.6z"/>
	<path id="WING_2_UPPER_CUT" class="st8" d="M444.7,114.4c0,5-5.7,11-5.7,11s5,1.1,2.5,7.8c-2.7,7.4-24.2,28.5-24.2,28.5
		s5.9,3,2.5,9.3c-3.2,5.8-45.2,35.3-45.2,35.3s3,8.9-8.7,16.7c-11.4,7.6-61.8,39.4-79,39.4S219,230.6,207.6,223
		c-11.8-7.8-8.7-16.7-8.7-16.7s-42.1-29.4-45.2-35.3c-3.4-6.2,2.5-9.3,2.5-9.3s-21.5-21.1-24.2-28.5c-2.5-6.8,2.5-7.8,2.5-7.8
		s-5.7-6.1-5.7-11c0-5,2.5-5.3,2.5-5.3s-6.1-2.8-5.3-10.3c0.7-7.5,4.5-13.2,4.5-13.2l106.3,79.8l26,28.5c0,0,7.5-2.3,23.3-2.3
		s24.8,2.3,24.8,2.3l26-28.5l106.3-79.8c0,0,3.7,5.7,4.5,13.2c0.7,7.5-5.3,10.3-5.3,10.3S444.7,109.4,444.7,114.4z M255.7,250.7
		c-0.4-2-0.7-4-0.9-6.1l0.5,0c0.2,2.1,0.5,4.1,0.9,6.1L255.7,250.7z M254.6,241.6c-0.1-1.7-0.2-3.5-0.2-5.3c0-0.3,0-0.6,0-0.9l0.5,0
		c0,0.3,0,0.6,0,0.9c0,1.8,0.1,3.5,0.2,5.2L254.6,241.6z M255,232.4l-0.5,0c0.1-2,0.2-4.1,0.4-6.1l0.5,0
		C255.2,228.3,255.1,230.4,255,232.4z M255.8,223.2l-0.5-0.1c0.2-2,0.6-4,0.9-6.1l0.5,0.1C256.3,219.2,256,221.2,255.8,223.2z
		 M257.2,214.1l-0.5-0.1c0.4-2,0.8-4,1.3-6l0.5,0.1C258.1,210.1,257.6,212.1,257.2,214.1z M259.3,205.2l-0.5-0.1
		c0.5-2,1.1-4,1.7-5.9l0.5,0.1C260.4,201.2,259.8,203.2,259.3,205.2z M262.9,193.5l-0.5-0.2c0,0-0.4,1-1,2.8l0.5,0.2
		C262.5,194.6,262.9,193.5,262.9,193.5z M318.1,250.8l-0.5-0.1c0.4-1.9,0.7-4,0.9-6.1l0.5,0C318.8,246.7,318.5,248.8,318.1,250.8z
		 M319.2,241.6l-0.5,0c0.1-1.7,0.2-3.5,0.2-5.2c0-0.3,0-0.6,0-0.9l0.5,0c0,0.3,0,0.6,0,0.9C319.4,238.1,319.3,239.9,319.2,241.6z
		 M318.8,232.4c-0.1-2-0.2-4-0.4-6.1l0.5,0c0.2,2.1,0.3,4.2,0.4,6.1L318.8,232.4z M318,223.2c-0.2-2-0.5-4-0.9-6.1l0.5-0.1
		c0.4,2,0.7,4.1,0.9,6.1L318,223.2z M316.6,214.1c-0.4-2-0.8-4-1.3-6l0.5-0.1c0.5,2,0.9,4,1.3,6L316.6,214.1z M314.5,205.2
		c-0.5-2-1.1-4-1.7-5.9l0.5-0.1c0.6,1.9,1.2,3.9,1.7,5.9L314.5,205.2z M312.4,196.2c-0.6-1.8-1-2.8-1-2.8l-0.5,0.2c0,0,0.4,1,1,2.8
		L312.4,196.2z"/>
	<path id="WING_2_UNDER_CUT" class="st8" d="M444.7,114.4c0,5-5.7,11-5.7,11s5,1.1,2.5,7.8c-2.7,7.4-24.2,28.5-24.2,28.5
		s5.9,3,2.5,9.3c-3.2,5.8-45.2,35.3-45.2,35.3s3,8.9-8.7,16.7c-11.4,7.6-61.8,39.4-79,39.4S219,230.6,207.6,223
		c-11.8-7.8-8.7-16.7-8.7-16.7s-42.1-29.4-45.2-35.3c-3.4-6.2,2.5-9.3,2.5-9.3s-21.5-21.1-24.2-28.5c-2.5-6.8,2.5-7.8,2.5-7.8
		s-5.7-6.1-5.7-11c0-5,2.5-5.3,2.5-5.3s-6.1-2.8-5.3-10.3c0.7-7.5,4.5-13.2,4.5-13.2l106.3,79.8l26,28.5c0,0,7.5-2.3,23.3-2.3
		s24.8,2.3,24.8,2.3l26-28.5l106.3-79.8c0,0,3.7,5.7,4.5,13.2c0.7,7.5-5.3,10.3-5.3,10.3S444.7,109.4,444.7,114.4z M255.7,250.7
		c-0.4-2-0.7-4-0.9-6.1l0.5,0c0.2,2.1,0.5,4.1,0.9,6.1L255.7,250.7z M254.6,241.6c-0.1-1.7-0.2-3.5-0.2-5.3c0-0.3,0-0.6,0-0.9l0.5,0
		c0,0.3,0,0.6,0,0.9c0,1.8,0.1,3.5,0.2,5.2L254.6,241.6z M255,232.4l-0.5,0c0.1-2,0.2-4.1,0.4-6.1l0.5,0
		C255.2,228.3,255.1,230.4,255,232.4z M255.8,223.2l-0.5-0.1c0.2-2,0.6-4,0.9-6.1l0.5,0.1C256.3,219.2,256,221.2,255.8,223.2z
		 M257.2,214.1l-0.5-0.1c0.4-2,0.8-4,1.3-6l0.5,0.1C258.1,210.1,257.6,212.1,257.2,214.1z M259.3,205.2l-0.5-0.1
		c0.5-2,1.1-4,1.7-5.9l0.5,0.1C260.4,201.2,259.8,203.2,259.3,205.2z M262.9,193.5l-0.5-0.2c0,0-0.4,1-1,2.8l0.5,0.2
		C262.5,194.6,262.9,193.5,262.9,193.5z M318.1,250.8l-0.5-0.1c0.4-1.9,0.7-4,0.9-6.1l0.5,0C318.8,246.7,318.5,248.8,318.1,250.8z
		 M319.2,241.6l-0.5,0c0.1-1.7,0.2-3.5,0.2-5.2c0-0.3,0-0.6,0-0.9l0.5,0c0,0.3,0,0.6,0,0.9C319.4,238.1,319.3,239.9,319.2,241.6z
		 M318.8,232.4c-0.1-2-0.2-4-0.4-6.1l0.5,0c0.2,2.1,0.3,4.2,0.4,6.1L318.8,232.4z M318,223.2c-0.2-2-0.5-4-0.9-6.1l0.5-0.1
		c0.4,2,0.7,4.1,0.9,6.1L318,223.2z M316.6,214.1c-0.4-2-0.8-4-1.3-6l0.5-0.1c0.5,2,0.9,4,1.3,6L316.6,214.1z M314.5,205.2
		c-0.5-2-1.1-4-1.7-5.9l0.5-0.1c0.6,1.9,1.2,3.9,1.7,5.9L314.5,205.2z M312.4,196.2c-0.6-1.8-1-2.8-1-2.8l-0.5,0.2c0,0,0.4,1,1,2.8
		L312.4,196.2z"/>
	<path id="WING_1_CUT" class="st5" d="M351,182.4c-0.7,5-5.7,9.3-6.8,13.2s0.7,10.7,0,15.7c-0.7,5-5.3,12.5-7.1,15.3
		c-1.8,2.8,0,6.4-0.4,21.7s-17.1,43.1-25.6,49.2c-8,5.7-41.5,5.7-49.5,0c-8.5-6.1-25.3-33.8-25.6-49.2s1.4-18.9-0.4-21.7
		c-1.8-2.8-6.4-10.3-7.1-15.3c-0.7-5,1.1-11.8,0-15.7c-1.1-3.9-6.1-8.2-6.8-13.2c-0.7-5,1.8-8.2,0-11c-1.8-2.8-5.3-11.4-1.8-14.2
		c11-3.6,42,36.7,42,36.7s5.4-2.5,23.2-2.5s25.6,2.5,25.6,2.5s31-40.2,42-36.7c3.6,2.8,0,11.4-1.8,14.2
		C349.2,174.2,351.7,177.4,351,182.4z M271.1,300.6c0,0-0.3-1-0.9-2.9l-0.5,0.2c0.6,1.8,0.9,2.9,0.9,2.9L271.1,300.6z M268.8,295
		c-0.5-1.7-1.1-3.6-1.8-5.9l0.5-0.1c0.7,2.2,1.3,4.2,1.8,5.9L268.8,295z M266,286.2c-0.6-1.8-1.2-3.8-1.8-5.9l0.5-0.1
		c0.6,2.1,1.2,4,1.8,5.9L266,286.2z M263.3,277.3c-0.6-1.9-1.2-3.9-1.8-5.9l0.5-0.1c0.6,2,1.2,4,1.8,5.9L263.3,277.3z M260.6,268.5
		c-0.6-1.9-1.2-3.9-1.8-5.9l0.5-0.1c0.6,2,1.2,3.9,1.8,5.9L260.6,268.5z M258,259.7c-0.3-1-0.6-2.1-0.9-3.1
		c-0.3-0.9-0.5-1.8-0.7-2.8l0.5-0.1c0.2,0.9,0.5,1.9,0.7,2.8c0.3,1,0.6,2.1,0.9,3.1L258,259.7z M255.7,250.7c-0.4-2-0.7-4-0.9-6.1
		l0.5,0c0.2,2.1,0.5,4.1,0.9,6.1L255.7,250.7z M254.6,241.6c-0.1-1.7-0.2-3.5-0.2-5.3c0-0.3,0-0.6,0-0.9l0.5,0c0,0.3,0,0.6,0,0.9
		c0,1.8,0.1,3.5,0.2,5.2L254.6,241.6z M255,232.4l-0.5,0c0.1-2,0.2-4.1,0.4-6.1l0.5,0C255.2,228.3,255.1,230.4,255,232.4z
		 M255.8,223.2l-0.5-0.1c0.2-2,0.6-4,0.9-6.1l0.5,0.1C256.3,219.2,256,221.2,255.8,223.2z M257.2,214.1l-0.5-0.1c0.4-2,0.8-4,1.3-6
		l0.5,0.1C258.1,210.1,257.6,212.1,257.2,214.1z M259.3,205.2l-0.5-0.1c0.5-2,1.1-4,1.7-5.9l0.5,0.1
		C260.4,201.2,259.8,203.2,259.3,205.2z M262.9,193.5l-0.5-0.2c0,0-0.4,1-1,2.8l0.5,0.2C262.5,194.6,262.9,193.5,262.9,193.5z
		 M304.1,297.9l-0.5-0.2c-0.6,1.8-0.9,2.9-0.9,2.9l0.5,0.2C303.2,300.7,303.5,299.7,304.1,297.9z M305,295l-0.5-0.2
		c0.5-1.7,1.1-3.6,1.8-5.9l0.5,0.1C306.2,291.3,305.6,293.3,305,295z M307.8,286.2l-0.5-0.1c0.6-1.8,1.2-3.8,1.8-5.9l0.5,0.1
		C309,282.3,308.4,284.3,307.8,286.2z M310.5,277.3l-0.5-0.1c0.6-1.9,1.2-3.9,1.8-5.9l0.5,0.1C311.7,273.5,311.1,275.4,310.5,277.3z
		 M313.2,268.5l-0.5-0.1c0.6-1.9,1.2-3.9,1.8-5.9l0.5,0.1C314.4,264.6,313.8,266.6,313.2,268.5z M315.8,259.7l-0.5-0.1
		c0.3-1,0.6-2.1,0.9-3.1c0.3-0.9,0.5-1.8,0.7-2.8l0.5,0.1c-0.2,1-0.5,1.9-0.7,2.8C316.4,257.6,316.1,258.6,315.8,259.7z
		 M318.1,250.8l-0.5-0.1c0.4-1.9,0.7-4,0.9-6.1l0.5,0C318.8,246.7,318.5,248.8,318.1,250.8z M319.2,241.6l-0.5,0
		c0.1-1.7,0.2-3.5,0.2-5.2c0-0.3,0-0.6,0-0.9l0.5,0c0,0.3,0,0.6,0,0.9C319.4,238.1,319.3,239.9,319.2,241.6z M318.8,232.4
		c-0.1-2-0.2-4-0.4-6.1l0.5,0c0.2,2.1,0.3,4.2,0.4,6.1L318.8,232.4z M318,223.2c-0.2-2-0.5-4-0.9-6.1l0.5-0.1c0.4,2,0.7,4.1,0.9,6.1
		L318,223.2z M316.6,214.1c-0.4-2-0.8-4-1.3-6l0.5-0.1c0.5,2,0.9,4,1.3,6L316.6,214.1z M314.5,205.2c-0.5-2-1.1-4-1.7-5.9l0.5-0.1
		c0.6,1.9,1.2,3.9,1.7,5.9L314.5,205.2z M312.4,196.2c-0.6-1.8-1-2.8-1-2.8l-0.5,0.2c0,0,0.4,1,1,2.8L312.4,196.2z"/>
	<path id="BACK_3" class="st2" d="M319.4,238.7c0.2-14.9-6.4-40.1-6.4-40.1c-6.5-21-25.6-51-25.6-51s-25.1,41.4-28.6,56.6
		c-1.1,4-3.7,18.7-3.9,36.7c-0.1,13,17.4,63.4,17.4,63.4s-0.7,4.7,1,7.4c0.7,1.1,1.5,0.3,2,1.7c0.4,1.2-0.7,3.5,0.4,4.7
		c0.5,0.6,1.6,0.2,1.9,0.9c0.4,1,0.1,4.7,1.2,5.5c0.9,0.7,1.3,0.1,1.7,1.1c0.4,1,0.2,4.4,0.5,5.3c0.5,1.3,1.7,0.9,2.3,2
		c1.8,3.2,2.4,8.2,3.9,8.1c1.6,0,2.5-6.2,4.4-9.6c0.3-0.5,1.4-1.3,1.9-1.7c1.1-1.1-0.3-6,0.1-5.2c0.1,0.3,2.1-1.1,2.4-1.5
		c1.1-1.2-0.2-3.6,0.1-4.5c0.4-1.1,1.5-0.6,2.3-1.5c1.2-1.5,0.2-3.9,0.5-4.8c0.8-2.6,2-1.3,2.8-2.4c1.2-1.7,0.7-6.9,0.7-6.9
		S319.2,254.3,319.4,238.7z"/>
	<path id="BACK_2_1_" class="st0" d="M318.7,228c-0.1-1.6-0.5-4.1-1.1-6.9c-3.1-24.9-12.4-40.9-12.4-40.9s-1.4-5.1-2.6-6.8
		c-0.8-1.1-1-0.8-1.8-3.4c-0.3-0.9-0.3-2.3-1.5-3.8c-0.7-0.9-1.9-0.4-2.3-1.5c-0.4-1-0.1-2.3-1.1-3.5c-0.3-0.4-2.3-1.7-2.4-1.5
		c-0.4,0.8,0.9-4.1-0.1-5.2c-0.5-0.5-1.6-1.2-1.9-1.7c-1.9-3.4-2.8-9.6-4.4-9.6c-1.5,0-2.1,5-3.9,8.1c-0.6,1.1-1.7,0.7-2.3,2
		c-0.4,0.9-0.1,4.4-0.5,5.3c-0.4,1-0.8,0.4-1.7,1.1c-1.1,0.8-0.8,4.4-1.2,5.5c-0.3,0.8-1.3,0.3-1.9,0.9c-1.1,1.2-1,3.5-1.4,4.7
		c-0.5,1.5-1.3,0.6-2,1.7c-1.7,2.7-3.8,8.8-3.8,8.8s-4,7.6-7.7,19c0,0,0,0,0,0c0,0,0,0.2-0.1,0.6c-2.3,7.3-4.5,16-5.5,25.4
		c-0.2,1-0.3,2-0.5,2.9c-0.5,3.4-0.3,8.5,0.2,13.7c0,0.2,0,0.3,0,0.5c0,0.3,0.1,0.6,0.1,0.9c0.9,8.3,2.3,16.3,2.3,16.3
		s4.7,21,9.5,21c4.8,0,5.2-7.4,5.2-7.4s4.7,25.9,15,25.9s14.8-25.4,14.8-25.4s0.3,7.1,5.7,7.1c5.3,0,8.5-21,8.5-21
		s2.3-12.8,2.5-15.8c0.2-3.6,0.3-7,0.2-10.4C318.7,231.7,318.8,229.4,318.7,228z"/>
	<path id="BACK1" class="st5" d="M318.9,235c0.3-4,0-10.6-0.5-14.6c-0.2-1.9-1.9-8.2-3.6-14.2c-0.8-3.2-1.6-6.2-2.5-8.9
		c-0.7-2.4-1.1-3.9-1.1-3.9c-0.1,0-0.1,0-0.2-0.1c-3-8.4-5.8-13.2-5.8-13.2s-1.4-5.1-2.6-6.8c-0.8-1.1-1-0.8-1.8-3.4
		c-0.3-0.9-0.3-2.3-1.5-3.8c-0.7-0.9-1.9-0.4-2.3-1.5c-0.4-1-0.1-2.3-1.1-3.5c-0.3-0.4-2.3-1.7-2.4-1.5c-0.4,0.8,0.9-4.1-0.1-5.2
		c-0.5-0.5-1.6-1.2-1.9-1.7c-1.9-3.4-2.8-9.6-4.4-9.6c-1.5,0-2.1,5-3.9,8.1c-0.6,1.1-1.7,0.7-2.3,2c-0.4,0.9-0.1,4.4-0.5,5.3
		c-0.4,1-0.8,0.4-1.7,1.1c-1.1,0.8-0.8,4.4-1.2,5.5c-0.3,0.8-1.3,0.3-1.9,0.9c-1.1,1.2-1,3.5-1.4,4.7c-0.5,1.5-1.3,0.6-2,1.7
		c-1.7,2.7-3.8,8.8-3.8,8.8s-2.3,4.3-5,11.2c-0.5,0.1-0.8,0.1-0.8,0.1s-5.2,19.1-6.5,24.7c-1.3,5.6-1.5,18-1.5,18s0.3,5.9,3.6,6.1
		c3.3,0.3,3.4-4.8,3.4-4.8s0.7,12.8,5.5,12.8s5.2-8.8,5.2-8.8s1.6,12.8,7.7,12.3c6.1-0.5,7.3-12.6,7.3-12.6s2,12.3,7.4,12
		c5.3-0.3,7.4-11.4,7.4-11.4s0.3,8.6,5.7,8.6c4.9,0,5.4-10.9,5.5-12.6c0,1,0.2,4.8,3.1,4.5C319.6,241.2,318.8,236.7,318.9,235z"/>
</g>
</svg>
