<?xml version="1.0" encoding="UTF-8" standalone="no"?>
<!-- Created with Inkscape (http://www.inkscape.org/) -->

<svg
   xmlns:dc="http://purl.org/dc/elements/1.1/"
   xmlns:cc="http://creativecommons.org/ns#"
   xmlns:rdf="http://www.w3.org/1999/02/22-rdf-syntax-ns#"
   xmlns:svg="http://www.w3.org/2000/svg"
   xmlns="http://www.w3.org/2000/svg"
   xmlns:sodipodi="http://sodipodi.sourceforge.net/DTD/sodipodi-0.dtd"
   xmlns:inkscape="http://www.inkscape.org/namespaces/inkscape"
   id="svg2"
   version="1.1"
   inkscape:version="0.48.2 r9819"
   width="620.13477"
   height="695.74707"
   sodipodi:docname="CreepingTentacles.png">
  <metadata
     id="metadata8">
    <rdf:RDF>
      <cc:Work
         rdf:about="">
        <dc:format>image/svg+xml</dc:format>
        <dc:type
           rdf:resource="http://purl.org/dc/dcmitype/StillImage" />
        <dc:title></dc:title>
      </cc:Work>
    </rdf:RDF>
  </metadata>
  <defs
     id="defs6" />
  <sodipodi:namedview
     pagecolor="#ffffff"
     bordercolor="#666666"
     borderopacity="1"
     objecttolerance="10"
     gridtolerance="10"
     guidetolerance="10"
     inkscape:pageopacity="0"
     inkscape:pageshadow="2"
     inkscape:window-width="1920"
     inkscape:window-height="1176"
     id="namedview4"
     showgrid="false"
     fit-margin-top="0"
     fit-margin-left="0"
     fit-margin-right="0"
     fit-margin-bottom="0"
     inkscape:zoom="1"
     inkscape:cx="-274.36522"
     inkscape:cy="349"
     inkscape:window-x="0"
     inkscape:window-y="24"
     inkscape:window-maximized="1"
     inkscape:current-layer="svg2" />
  <path
     style="fill:#000000"
     d="m 476.83838,692.74708 c -0.4252,-1.65 -1.218,-4.41144 -1.762,-6.13653 -0.5439,-1.72509 -2.07,-8.34969 -3.3913,-14.72134 l -2.4023,-11.58482 0.4669,-12.27865 c 0.9357,-24.60886 2.4453,-47.54861 3.8984,-59.24065 l 1.4867,-11.962 -0.03,-7.538 c -0.016,-4.14591 -0.7345,-15.18801 -1.596,-24.53801 l -1.5662,-17 -0.8323,-36.5 c -1.2815,-56.19226 -1.7827,-62.24126 -9.322,-112.5 -0.7307,-4.87071 0.3684,33.74659 1.4047,49.35454 0.5241,7.895 1.2085,14.76797 1.5208,15.27326 l 0.5678,0.91871 -0.095,11.22675 c -0.1403,16.48678 -2.0423,36.95497 -3.8832,41.78884 -0.5366,1.40916 -1.7039,8.38416 -2.5939,15.5 -0.8901,7.11585 -2.0706,16.05524 -2.6235,19.86532 -0.5528,3.81008 -1.4892,12.58508 -2.0809,19.5 l -1.0758,12.57258 2.7277,20.5 c 1.5003,11.275 3.1106,23.3656 3.5785,26.86801 l 0.8508,6.36801 0.8922,1.13199 c 0.4907,0.62259 1.603,3.38199 2.4717,6.13199 l 1.5795,5 0,5.25 0,5.25 -0.9427,0 -0.9428,0 -0.074,-3.75 -0.074,-3.75 -1.7606,-3.9908 -1.7606,-3.9908 -0.6013,6.9908 -0.6014,6.9908 -3.9295,12.54183 c -4.6597,14.87243 -6.9568,24.9918 -7.7653,34.20817 l -0.5921,6.75 -0.9204,0 -0.9204,0 0.01,-8.75 0.01,-8.75 1.0852,-4 c 0.5969,-2.2 3.4069,-10.075 6.2445,-17.5 l 5.1591,-13.5 -0.078,-16.5 -0.078,-16.5 -2.6727,-12.8332 -2.6728,-12.8332 -1.081,-11.84539 -1.0809,-11.8454 1.0566,-10.49809 1.0565,-10.49809 4.4758,-23.32332 4.4758,-23.32331 1.2523,-11.27486 1.2523,-11.27487 -1.7341,-32.22513 c -0.9538,-17.72383 -2.2361,-39.41063 -2.8496,-48.1929 l -1.1154,-15.96777 -1.2823,-1.28223 c -0.7232,-0.70523 -1.8127,-1.28224 -2.4391,-1.28224 l -1.1388,0 0.5307,1.75 c 0.2919,0.9625 1.037,4 1.6557,6.75 l 1.125,5 -0.2255,16.5 c -0.1241,9.075 -0.2339,20.64576 -0.244,25.71279 l -0.019,9.21279 -0.7399,-0.45729 -0.7399,-0.45729 -1.2658,-8.5082 -1.2659,-8.50821 1.3105,-9.90134 1.3105,-9.90135 -0.6611,-4.82315 c -0.3636,-2.65274 -1.3967,-7.44489 -2.2958,-10.64923 l -1.6347,-5.82607 -0.8807,0.8807 -0.8807,0.88071 -0.057,5.92257 c -0.031,3.25741 -0.512,8.33934 -1.0685,11.29317 l -1.0117,5.37061 -2.9709,6.62157 -2.9709,6.62157 -0.1832,18.50783 -0.1831,18.50782 1.8896,7.38007 1.8896,7.38007 -0.5727,8.83912 -0.5726,8.83912 -0.8917,1.59336 -0.8917,1.59336 0.075,-12.81255 0.075,-12.81255 -1.8523,-7.5 -1.8522,-7.5 -0.4762,-12 -0.4763,-12 1.5419,-4.95334 c 0.8479,-2.72433 1.3766,-5.11846 1.1748,-5.32027 -0.2018,-0.20182 -1.6994,1.57718 -3.328,3.95333 l -2.9612,4.32028 -0.6604,8.5 c -0.3632,4.675 -1.0559,15.025 -1.5393,23 l -0.8788,14.5 -1.9983,7.31329 -1.9983,7.31328 -1.658,1.83206 -1.658,1.83207 -2.9397,0.43145 -2.9397,0.43146 0.015,-1.5768 c 0.01,-0.86725 0.4022,-2.18747 0.8752,-2.93382 l 0.8598,-1.35701 1.9837,0.62959 1.9836,0.62959 1.0392,-1.27258 c 0.5715,-0.69992 1.7724,-3.74758 2.6687,-6.77258 l 1.6295,-5.5 0.486,-22 c 0.2673,-12.1 0.7106,-23.38408 0.9851,-25.07573 l 0.4991,-3.07573 5.9006,-6.03008 5.9006,-6.03009 1.2034,-3.89418 1.2035,-3.89419 0.491,-13.53815 0.491,-13.53815 -7.4864,-0.96185 -7.4864,-0.96185 -1.7836,5.25 -1.7837,5.25 -0.9654,0 -0.9654,0 0.6273,-3.75 c 0.345,-2.0625 0.89,-4.70539 1.2112,-5.87309 l 0.584,-2.12308 -3.2327,-1.12692 c -1.7779,-0.6198 -3.4103,-1.12691 -3.6274,-1.12691 -0.2172,0 -0.1603,2.91368 0.1263,6.47485 l 0.5211,6.47485 -0.8445,2.27515 -0.8444,2.27515 -0.5909,-4 c -0.3251,-2.2 -0.8785,-6.37357 -1.2299,-9.27459 l -0.6389,-5.2746 -2.8532,-1.4754 c -1.5687,-0.81148 -3.0482,-1.47541 -3.2872,-1.47541 -0.239,0 -0.9684,3.65073 -1.6209,8.11273 l -1.1862,8.11272 0.6943,18.63728 0.6944,18.63727 1.3623,4 1.3623,4 0.035,3.5 c 0.034,3.39391 1.1637,10.34902 4.5502,28 l 1.6308,8.5 -0.5398,5.43205 -0.5397,5.43205 -2.1964,2.97075 -2.1964,2.97074 0.5435,16.09721 0.5435,16.0972 3.6136,13.92729 3.6135,13.92729 0.042,15.07271 c 0.023,8.28999 0.2117,38.47271 0.4192,67.07271 0.2075,28.6 0.3736,56.725 0.3692,62.5 l -0.01,10.5 -0.7777,0.80227 -0.7776,0.80226 -1.1694,-5.80226 -1.1694,-5.80227 -0.3186,-68.5 -0.3187,-68.5 -1.3598,-6.25 -1.3598,-6.25 -0.9069,0 -0.9069,0 0.7108,1.75 c 1.054,2.59525 2.0779,14.62253 2.036,23.91861 l -0.037,8.16861 -0.748,0.74806 -0.7481,0.74805 -0.75,-0.74605 -0.75,-0.74605 -0.5,-12.87222 -0.5,-12.87221 -1.25,-1.2484 -1.25,-1.2484 -0.2039,22.95 c -0.192,21.60428 -0.1758,27.42988 0.1484,53.45 l 0.1308,10.5 -2.0385,6.5 -2.0385,6.5 0.62,-10 0.62,-10 -0.1337,-43.5 -0.1338,-43.5 1.4255,-6 1.4255,-6 0.6062,-11 0.6061,-11 -1.0209,-13 -1.0208,-13 -0.014,-22 -0.014,-22 -1.1332,-7.99522 -1.1332,-7.99521 -0.7771,1.99521 -0.7771,1.99522 0.4914,33.28641 0.4913,33.28641 -1.1069,5.33208 -1.107,5.33209 -1.3746,1.87993 -1.3747,1.87994 -0.7791,-0.7792 -0.7792,-0.77919 1.846,-3.12504 1.846,-3.12503 -0.8707,-15.5942 c -1.174,-21.02641 -1.0999,-33.16205 0.3362,-55.0942 1.9093,-29.15804 2.395,-38.74613 2.5329,-50 l 0.1287,-10.5 -1.4084,-2.5 -1.4084,-2.5 -1.2276,7.5 -1.2276,7.5 -0.076,20.19098 -0.076,20.19099 -1,0.61803 -1,0.61803 -0.062,-2.80901 c -0.034,-1.54496 -0.3432,-8.65902 -0.6867,-15.80902 -0.3436,-7.15 -0.5141,-18.93182 -0.3789,-26.18182 l 0.2457,-13.18182 -3.6976,-4.0928 -3.6976,-4.0928 -1.42982,2.04135 -1.42981,2.04135 -1.04179,-0.64386 -1.04179,-0.64386 0.54832,-3.37891 0.54832,-3.37892 -2.75351,-3.0147 -2.75351,-3.01471 -1.36299,10.77075 -1.36299,10.77075 0.0856,6.5485 0.0856,6.54849 1.05818,3.95151 1.05817,3.9515 0.53691,10.5 c 0.29529,5.775 0.93104,16.125 1.41278,23 l 0.87587,12.5 -0.45599,30.5 c -0.2508,16.775 -0.50946,33.425 -0.5748,37 l -0.1188,6.5 2.31256,14.5 2.31256,14.5 0.18767,22.52769 0.18768,22.52769 0.74074,1.19856 c 0.40742,0.6592 1.4894,5.14674 2.40441,9.97231 l 1.66366,8.77375 0.20865,20.5 0.20865,20.5 1.33335,11.5 1.33332,11.5 0,17.91465 0,17.91465 -1.24996,0.41868 -1.25,0.41869 0,-10.39968 0,-10.39967 -0.94927,-5.43366 c -0.52034,-2.98851 -1.51795,-11.95866 -2.21516,-19.93366 -1.17322,-13.42 -1.30267,-18.45024 -0.8855,-34.41005 l 0.15448,-5.91004 -0.99558,-4.58996 c -1.56061,-7.19495 -3.08593,-23.8568 -4.1278,-45.08995 -1.22297,-24.92412 -2.72859,-42.35481 -4.09767,-47.43918 l -1.07903,-4.00723 -0.10351,-8.52679 c -0.0569,-4.68974 0.26705,-11.9018 0.71996,-16.0268 l 0.82348,-7.5 -1.0957,-7 -1.09569,-7 1.11483,-12.5 1.11483,-12.5 -1.22739,-9 c -1.61065,-11.81024 -1.84913,-15.55114 -1.96028,-30.75 l -0.0932,-12.75 -0.89366,0 -0.89366,0 -2.66351,6.65334 -2.66352,6.65333 -0.87553,6.09667 c -0.48154,3.35316 -1.63155,8.57166 -2.55556,11.59666 -0.92402,3.025 -2.47724,8.875 -3.4516,13 -0.97437,4.125 -2.3101,8.85 -2.96829,10.5 -0.6582,1.65 -1.83464,6.6 -2.61433,11 l -1.41761,8 -0.007,6.5 -0.007,6.5 3.91258,17.5 c 2.15192,9.625 4.36724,19.525 4.92293,22 0.5557,2.475 1.72783,7.35704 2.60474,10.84898 l 1.59438,6.34898 0.48891,33.15102 c 0.26891,18.23306 0.73621,35.85102 1.03845,39.15102 1.44928,15.82385 1.78444,20.40923 1.86386,25.5 l 0.0858,5.5 -0.99219,0.5 -0.99219,0.5 -1.13739,-7 c -0.62557,-3.85 -1.95676,-13.975 -2.95822,-22.5 l -1.82083,-15.5 0.19717,-8.5 c 0.10845,-4.675 0.47055,-15.475 0.80467,-24 l 0.6075,-15.5 -1.65576,-7.5 c -0.91066,-4.125 -2.32279,-12.45 -3.13805,-18.5 -2.43685,-18.0836 -2.96875,-20.77496 -5.13838,-26 l -2.0762,-5 -1.24022,-8.61514 -1.24023,-8.61515 0.50444,-7.38485 0.50444,-7.38486 1.49673,-5 c 0.8232,-2.75 2.72892,-10.175 4.23494,-16.5 1.50602,-6.325 5.18627,-18.86979 8.17835,-27.87731 2.99208,-9.00751 5.26165,-16.55579 5.0435,-16.77394 -0.21815,-0.21815 -1.38461,2.42663 -2.59213,5.8773 -4.69046,13.4037 -5.3726,14.96222 -8.4323,19.26576 -1.73671,2.44272 -5.05301,7.10643 -7.36957,10.3638 l -4.21192,5.9225 -2.03758,5.36095 -2.03757,5.36094 -5.1e-4,5.69098 -5e-4,5.69099 -1,0.61803 -1,0.61803 -0.0466,-6.30901 -0.0466,-6.30902 -2.59701,4.99478 -2.597,4.99477 -0.97265,13.50523 -0.97266,13.50522 1.11622,6.1153 c 0.61392,3.36341 1.11622,6.85091 1.11622,7.75 l 0,1.6347 -0.84831,0 -0.84831,0 -1.74783,-4.25 -1.74783,-4.25 -0.52756,-9.54231 -0.52755,-9.54231 2.12003,-8.45769 2.12003,-8.45769 5.00834,-10.14634 5.00834,-10.14634 4.25515,-5.85366 c 6.14128,-8.44833 14.30129,-22.26171 15.65886,-26.50754 l 1.1683,-3.65389 -2.04583,-8.01273 -2.04583,-8.01273 0.008,-8.33338 0.008,-8.33339 1.05357,-6.49398 1.05358,-6.49398 1.89147,-4.27599 1.89148,-4.27599 0.57828,-6.23003 0.57829,-6.23003 -2.17695,5.5 c -1.19732,3.025 -3.46122,7.38108 -5.03089,9.68018 -1.56967,2.29909 -2.85394,4.38481 -2.85394,4.63493 0,0.25012 -1.99907,3.96221 -4.44239,8.24908 l -4.44238,7.79431 -0.64463,3.81551 -0.64462,3.81551 -0.91299,0.56426 -0.91299,0.56425 0,-1.65511 c 0,-2.40737 3.002,-12.4701 4.76219,-15.96292 0.83151,-1.65 2.84496,-4.69629 4.47432,-6.76953 l 2.96248,-3.76953 -0.55626,-1.44958 -0.55626,-1.44959 1.95677,-5.68744 c 1.07622,-3.12809 1.92005,-6.62948 1.87519,-7.78088 l -0.0816,-2.09345 -1.51653,3.48341 c -0.8341,1.91588 -2.43264,4.76996 -3.55231,6.34239 l -2.03577,2.85898 -0.76621,-1.23974 -0.76621,-1.23975 3.09393,-5.02828 3.09393,-5.02827 0.0341,-5.57437 c 0.0188,-3.0659 -0.11004,-7.59937 -0.28623,-10.07437 l -0.32034,-4.5 1.07136,-7.30094 1.07136,-7.30094 1.52103,-2.17157 1.52102,-2.17156 0,-1.9025 0,-1.90249 -2.88321,0.57664 -2.8832,0.57664 -3.43215,-0.94766 -3.43214,-0.94766 -4.18465,-3.5819 -4.18465,-3.58191 0,-2.72207 0,-2.72208 -1.2,-1.2 c -0.66,-0.66 -1.53206,-1.2 -1.93792,-1.2 -0.40585,0 -2.48754,3.49565 -4.62597,7.76811 -2.13844,4.27246 -5.95612,10.90996 -8.48374,14.75 -2.52762,3.84004 -6.24941,10.58189 -8.27064,14.98189 -2.02122,4.4 -4.37622,8.7875 -5.23333,9.75 l -1.55838,1.75 -1.79955,0 -1.79956,0 -2.5,2.5 -2.5,2.5 -5.87598,0 -5.87597,0 -4.91948,-2.49581 -4.91948,-2.49582 -2.2152,-0.004 -2.21521,-0.004 -3.2979,-2.8956 -3.29791,-2.8956 -8.48689,-2.54571 c -4.66894,-1.40051 -11.41304,-3.06723 -14.98804,-3.7042 -8.18242,-1.45788 -25.76221,-6.9818 -37.49154,-11.78058 l -8.99154,-3.67868 -8.21474,-8.11611 -8.21473,-8.11611 -5.29372,-2.05905 c -2.91155,-1.13248 -7.09373,-2.59019 -9.29373,-3.23936 -6.86528,-2.02576 -33.33901,-12.90651 -44.30258,-18.20842 l -10.47468,-5.06549 -3.11137,-2.66148 c -1.71125,-1.46381 -4.58728,-3.68548 -6.39116,-4.93704 l -3.27979,-2.27555 -4.94449,-7.1607 c -2.71947,-3.93838 -6.49014,-9.41069 -8.37927,-12.16069 -1.88913,-2.75 -4.08336,-5.675 -4.87608,-6.5 -0.79272,-0.825 -2.74614,-3.67726 -4.34094,-6.33837 -1.5948,-2.6611 -3.67346,-6.0361 -4.61923,-7.5 -0.94577,-1.46389 -2.47155,-4.01163 -3.39063,-5.66163 -0.91907,-1.65 -2.89062,-4.8 -4.38123,-7 -3.0692,-4.52986 -10.50558,-18.32026 -19.41276,-36 -3.32512,-6.6 -6.29669,-12.225 -6.60348,-12.5 -0.30679,-0.275 -1.16996,-2.975 -1.91815,-6 -0.7482,-3.025 -2.3708,-7.75 -3.6058,-10.5 -1.23499,-2.75 -2.60769,-6.575003 -3.05044,-8.500003 -1.02979,-4.477318 -0.89917,-4.051559 -2.21344,-7.214421 -0.62036,-1.492931 -1.88423,-5.317931 -2.80859,-8.5 -0.92437,-3.182068 -2.24743,-6.685579 -2.94012,-7.785579 -0.6927,-1.1 -1.58399,-3.575 -1.98065,-5.5 C 19.06076,64.582106 3.72248,12.070012 0.551,1.9970772 l -0.551,-1.75 1.95076,0 1.95076,0 0.63306,2.25 0.63307,2.25 L 6.58543,2.8959134 8.00321,1.0447497 9.01963,4.8959134 C 21.58548,52.507106 26.32148,69.710953 27.48765,71.982213 c 0.78078,1.520675 2.8558,8.160938 4.61116,14.756139 1.75536,6.595202 3.52777,12.445205 3.93868,13.000005 0.41092,0.554793 1.3017,2.947013 1.97952,5.316033 l 1.2324,4.30732 1.69268,1.73056 1.69269,1.73057 1.85302,5.38638 c 1.91477,5.56591 14.07871,30.85998 17.81153,37.03786 8.95967,14.82842 11.96751,19.54548 15.94125,25 2.20379,3.025 6.66833,9.325 9.92121,14 3.25288,4.675 8.62753,11.6176 11.94366,15.42801 3.31613,3.8104 6.02933,7.1854 6.02933,7.5 l 0,0.57199 5.75997,0 5.75997,0 7.49003,3.92192 c 4.11952,2.15705 9.06503,4.81383 10.99003,5.90396 1.925,1.09013 5.075,2.79796 7,3.7952 5.06016,2.62137 19.88111,8.09338 20.87529,7.70732 l 0.84567,-0.3284 -9.39961,-13 -9.39961,-13 -8.46087,-16.86159 c -4.65348,-9.27387 -8.46087,-17.46065 -8.46087,-18.19284 0,-0.73219 -0.8736,-2.81947 -1.94134,-4.63841 -1.06774,-1.81894 -3.31725,-7.13216 -4.99892,-11.80716 -1.68167,-4.675 -3.50806,-9.28139 -4.05866,-10.23643 -0.55059,-0.95504 -1.00108,-2.41754 -1.00108,-3.25 l 0,-1.51357 -0.86311,0 -0.86311,0 -1.63357,-5.25 C 112.46082,136.77357 83.27856,15.537699 80.67785,3.4970772 l -0.70198,-3.25 1.99659,0 1.99659,0 1.04109,4.75 c 0.5726,2.6125 8.02311,33.4012238 16.5567,68.4193858 l 15.5156,63.669387 1.96867,4.33062 c 1.08277,2.38183 3.18135,7.70561 4.66352,11.83061 3.11403,8.66662 11.23444,26.8857 18.7116,41.98162 l 5.19164,10.48161 7.00846,10.13126 c 10.41555,15.05648 13.6204,19.38451 17.72039,23.93069 l 3.71193,4.11589 3.28807,1.09088 c 11.407,3.7845 25.06638,8.80957 29.74753,10.94365 l 5.45946,2.48891 4.78548,4.00663 4.78548,4.00663 4.89373,-3.01114 c 2.69155,-1.65613 6.5824,-3.47741 8.64632,-4.04729 l 3.75259,-1.03614 2.35874,-2.21591 2.35873,-2.21592 0,-1.27599 c 0,-0.7018 -0.58844,-1.63586 -1.30764,-2.07569 l -1.30764,-0.79969 -2.08593,-6 c -2.67983,-7.70827 -3.2381,-10.22769 -4.30554,-19.43066 -1.52544,-13.15154 -3.94301,-32.31038 -4.99307,-39.56934 -0.55694,-3.85 -1.71174,-14.425 -2.56624,-23.5 -0.85449,-9.075 -1.90512,-19.70368 -2.33472,-23.61929 l -0.7811,-7.11929 -3.3482,-4.88071 c -7.97252,-11.62162 -10.91731,-16.20992 -13.72223,-21.38071 -1.64092,-3.025 -5.46122,-10.000003 -8.48954,-15.500003 -3.02833,-5.5 -7.46127,-14.05 -9.85097,-19 -2.38971,-4.95 -4.69643,-9.15 -5.12605,-9.333333 -0.42962,-0.183334 -0.78113,-1.001906 -0.78113,-1.819049 0,-1.330078 -13.0787,-41.911226 -15.09829,-46.847618 -0.45003,-1.1 -1.3166,-3.9579238 -1.9257,-6.3509416 L 167.00333,1.0451936 167.52593,0.5225968 168.04852,0 l 1.54313,0.5921538 1.54313,0.5921538 0,1.4649392 c 0,0.8057166 1.32718,3.6323398 2.94928,6.2813844 l 2.94929,4.8164458 2.12139,8.5 c 1.16676,4.675 3.49813,12.55 5.18082,17.5 l 3.05943,9 1.70318,2 c 0.93675,1.1 2.52355,4.25 3.52622,7 2.56015,7.021687 14.22191,31.008095 17.98873,37 1.72879,2.75 3.45641,5.675003 3.83916,6.500003 2.70371,5.82781 23.66841,35.58882 31.48861,44.70052 l 7.55224,8.79948 6.90402,1.2884 6.90401,1.2884 5.2561,2.96636 c 4.99016,2.81627 18.3104,7.95684 20.61776,7.95684 l 1.07779,0 -0.58714,-0.95002 c -1.05556,-1.70792 -4.66467,-16.41091 -5.5353,-22.54998 -0.468,-3.3 -1.84476,-10.275 -3.05947,-15.5 -1.21471,-5.225 -2.53491,-12.875 -2.93377,-17 l -0.72521,-7.5 -9.63857,-51.598965 c -5.30121,-28.379429 -9.63857,-51.8919283 -9.63857,-52.2499994 0,-0.3580711 0.66643,-0.6510384 1.48095,-0.6510384 l 1.48095,0 0.53789,2.25 c 0.29585,1.2375 5.0394,26.5499998 10.54123,56.2499998 5.50183,29.7 10.63863,56.475003 11.41512,59.500003 0.77649,3.025 1.9389,8.425 2.58314,12 0.64423,3.575 1.79399,8.3 2.55502,10.5 0.76104,2.2 2.3107,8.5 3.44369,14 1.13299,5.5 2.55236,11.26122 3.15415,12.80271 l 1.09416,2.8027 3.81701,1.9473 c 2.09936,1.07101 4.55012,1.94729 5.44615,1.94729 0.89602,0 6.5152,2.42375 12.48706,5.38611 5.97186,2.96236 11.05718,5.18685 11.30072,4.94331 0.24354,-0.24354 -0.50027,-2.67497 -1.6529,-5.40319 l -2.09571,-4.96039 2.95568,-5.63577 2.95569,-5.63578 9.28949,-9.27636 9.2895,-9.27637 3.08542,-0.67767 3.08543,-0.67767 0.80206,1.29775 0.80206,1.29776 -1.34802,2.60677 c -0.7414,1.43373 -3.4397,4.61034 -5.9962,7.05914 l -4.6482,4.45236 -2.55226,4.29517 -2.55227,4.29517 0.70657,0.70483 0.70656,0.70483 2.41738,-3 c 1.32956,-1.65 4.3189,-4.9125 6.64299,-7.25 l 4.22561,-4.25 2.80712,0 2.80713,0 2.52242,1.65275 2.52242,1.65276 2.00239,3.92501 2.00239,3.925 3.95894,-0.66886 3.95894,-0.66885 4.23107,2.1807 c 5.51346,2.84165 9.44396,6.58698 11.87636,11.31692 l 1.9621,3.81543 1.1963,-0.50045 c 0.658,-0.27525 2.8838,-1.05093 4.9463,-1.72372 l 3.75,-1.22327 0,-3.65315 0,-3.65315 1.7695,-1.93856 1.7696,-1.93856 0.1295,-2.5 c 1.0174,-19.6366 2.5805,-43.34046 3.3226,-50.38381 l 0.9359,-8.88381 -0.7135,-1.61619 -0.7136,-1.61619 0.2765,-51.250003 0.2765,-51.2499998 3.053,0 3.0529,0 -0.7326,3.25 -0.7326,3.25 0.07,80.8670318 0.07,80.867031 1.083,1.08297 1.0829,1.08297 0,7.10383 0,7.10384 3.25,3.04975 3.25,3.04975 4.7061,2.21435 4.706,2.21434 2.9606,3.37196 c 1.6284,1.85458 3.3968,4.15131 3.9299,5.10385 l 0.9692,1.73189 7.3641,-1.92178 7.3641,-1.92178 3.3424,-6.5 c 1.8383,-3.575 5.1911,-10.55 7.4508,-15.5 2.2596,-4.95 5.143,-10.27203 6.4076,-11.82673 l 2.2992,-2.82672 -0.02,-4.67328 c -0.019,-4.45656 -1.2175,-13.8184 -2.4542,-19.17327 -0.3176,-1.375 -1.6742,-9.7 -3.0146,-18.5 -2.212,-14.52177 -18.8027,-113.3574338 -20.0815,-119.6313819 l -0.5364,-2.6313791 3.8418,-0.05302 3.8417,-0.05302 7.1984,54.117205 7.1984,54.117206 0.9507,0.58755 c 1.6202,1.00136 2.7814,5.19275 4.0158,14.49533 0.653,4.92167 1.4715,9.40833 1.8189,9.97035 0.3473,0.56202 1.1935,4.6352 1.8805,9.05151 2.4386,15.67749 4.4146,26.06096 5.3977,28.36351 l 0.9964,2.33386 -2.7636,5.16614 c -1.52,2.84138 -4.9025,8.54114 -7.5166,12.66614 -2.6142,4.125 -4.7531,7.8375 -4.7532,8.25 l 2e-4,0.75 12.3857,0 12.3857,0 2.8643,-1.49384 2.8643,-1.49384 5.6008,-0.006 5.6008,-0.006 3.0547,1.0649 3.0548,1.06491 1.2797,3.08929 c 0.7038,1.69911 3.1723,5.85359 5.4857,9.23219 l 4.2062,6.14289 1.7404,6.20291 1.7405,6.20291 0.7648,0 c 0.4207,0 2.4989,-2.10045 4.6182,-4.66766 2.1194,-2.56721 4.9098,-5.82971 6.201,-7.25 11.6126,-12.7741 17.918,-20.87574 21.2225,-27.2686 l 1.9055,-3.68626 2.8767,-1.69928 2.8766,-1.69928 1.8856,-3.11446 c 3.2253,-5.32755 4.3853,-13.81148 6.4419,-47.11446 l 1.1732,-19 0.237,-29.000003 0.237,-29 0.8982,-4 0.8982,-4 3.3573,-5.809331 c 1.8466,-3.195131 3.1732,-5.993538 2.948,-6.218682 -0.2251,-0.225144 -1.7359,2.049982 -3.3573,5.055834 l -2.948,5.464866 -1.25,0.0035 -1.25,0.0035 0,-1.09973 c 0,-0.604852 4.0391,-7.71787 8.9758,-15.806706 4.9366,-8.088836 10.5753,-18.168957 12.5302,-22.4002688 l 3.5546,-7.693295 2.4697,0 c 1.3583,0 2.4697,0.2353385 2.4697,0.5229744 0,0.2876359 -2.007,4.0001359 -4.4599,8.2499996 l -4.4599,7.7270258 -6.0401,14.181858 -6.0401,14.181857 0,3.495783 c 0,1.922681 -0.4186,6.790845 -0.9302,10.818143 l -0.9302,7.322359 -0.5917,32.5 c -0.8927,49.024003 -1.5151,73.395223 -2.1676,84.874043 l -0.5897,10.37403 -3.6453,4.08787 c -2.0049,2.24832 -11.3572,11.98001 -20.7829,21.62596 -9.4256,9.64596 -18.9969,19.5631 -21.2695,22.0381 l -4.1319,4.5 0.5856,2 c 1.0306,3.52022 3.3016,21.3457 2.9563,23.20558 -0.1832,0.98693 -0.8894,4.36624 -1.5693,7.50958 l -1.2363,5.71516 1.0073,1.28484 c 0.5541,0.70666 2.3945,3.84964 4.0899,6.98439 l 3.0825,5.69956 2.4626,11.30044 2.4626,11.30045 0.5641,8 0.5641,8 -1.4652,-3.36481 -1.4652,-3.36481 0,-5.38519 0,-5.38519 -0.8516,0 -0.8516,0 -1.6079,6.25 c -0.8844,3.4375 -1.836,7.15 -2.1147,8.25 l -0.5068,2 0.3615,-4.17842 0.3616,-4.17841 -1.5077,0.57855 -1.5077,0.57854 0.688,-3.13235 0.688,-3.13235 -1.22,-7.76778 -1.22,-7.76778 -1.4699,-2.92141 -1.4698,-2.92141 -1.0025,1.79139 -1.0026,1.79138 -0.8039,-1.30079 -0.8039,-1.30079 -0.693,3.69376 -0.6929,3.69376 1.8637,5.8908 1.8637,5.8908 0.6403,-0.395 0.6404,-0.39499 0.6873,3.74125 0.6874,3.74125 6.8808,14.1078 c 8.7013,17.84021 10.4566,22.32838 12.3864,31.67141 l 1.5606,7.55497 -0.4652,2.83291 c -0.2559,1.5581 -0.6762,5.69452 -0.9341,9.19203 -0.2578,3.49752 -0.655,6.54532 -0.8826,6.77289 -0.2276,0.22758 -0.7225,-4.65903 -1.0998,-10.85912 -0.3773,-6.20009 -1.1797,-14.19789 -1.783,-17.77289 l -1.097,-6.5 -3.3608,-7.662 c -1.8484,-4.2141 -3.3607,-8.01912 -3.3607,-8.45559 0,-0.68707 -6.8902,-16.162 -7.7024,-17.29908 -0.1637,-0.22916 -0.561,-0.15321 -0.883,0.16879 l -0.5855,0.58546 1.5502,3.33121 c 2.1088,4.53145 6.1613,17.75777 8.1594,26.62986 l 1.6437,7.29864 0.1155,8.70136 c 0.063,4.78574 -0.2548,12.75135 -0.7073,17.70135 l -0.8228,9 2.2075,10.5 c 1.2141,5.775 3.0976,13.65 4.1856,17.5 l 1.9782,7 8.6804,17.30254 c 4.7743,9.5164 9.6744,19.1914 10.8893,21.5 l 2.2088,4.19746 0.041,2.95 0.041,2.95 -1.0469,-1.04683 c -0.5757,-0.57576 -2.3808,-4.32492 -4.0113,-8.33146 l -2.9645,-7.28463 -3.5895,-4.88985 -3.5895,-4.88984 -4.5321,-10.72869 c -4.7244,-11.18377 -6.598,-16.57494 -10.2091,-29.37466 l -2.157,-7.64596 -0.966,-9.33634 -0.9659,-9.33633 0.9892,-7.51771 c 0.544,-4.13473 1.0878,-11.7927 1.2085,-17.0177 l 0.2193,-9.5 -3.317,-10 c -1.8244,-5.5 -3.7111,-10.4275 -4.1927,-10.95 l -0.8751,-0.95 0,2.97164 0,2.97164 2.0761,6.97836 c 1.1418,3.8381 2.3101,8.16257 2.5961,9.60994 l 0.52,2.63158 -1.1031,0.6818 -1.1032,0.6818 -0.357,-1.31338 c -0.1964,-0.72236 -1.2884,-4.46338 -2.4268,-8.31338 -2.2248,-7.52445 -3.6986,-17.01031 -4.723,-30.40009 l -0.6427,-8.4001 -0.9959,-2.5999 -0.9958,-2.59991 -1.5018,3.5 -1.5018,3.5 1.1694,5.5 c 2.0443,9.61492 2.8811,14.35364 3.5315,20 0.3485,3.025 1.2429,7.75 1.9876,10.5 l 1.3541,5 2.1557,21 2.1556,21 -0.5994,5.19201 -0.5994,5.19201 1.5625,6.30799 c 1.9349,7.811 3.406,22.26035 4.0022,39.30799 l 0.4546,13 1.0868,3 1.0869,3 0.3646,11.52538 0.3646,11.52538 1.526,6.47462 c 0.8393,3.56104 1.5327,8.20536 1.5408,10.32071 l 0.015,3.8461 1.5741,5.41452 1.574,5.41453 -1.086,3.29067 -1.086,3.29067 1.3445,4.46755 1.3446,4.46755 0.2345,7.23116 0.2345,7.23116 -0.9458,0 -0.9457,0 -1.0347,-2.75 -1.0346,-2.75 -1.0639,-12 c -0.5851,-6.6 -1.2846,-15.6 -1.5543,-20 l -0.4903,-8 -1.9533,-5.5 -1.9532,-5.5 -0.6061,-13.5 c -1.2915,-28.76797 -1.6594,-33.80422 -3.1407,-43 l -1.5302,-9.5 -0.052,-6.5 -0.052,-6.5 -1.261,-3.5 c -0.6936,-1.925 -1.7603,-5.75 -2.3704,-8.5 l -1.1094,-5 -0.4448,-13.5 -0.4448,-13.5 -1.0779,-4.5 c -0.5928,-2.475 -1.9565,-8.12566 -3.0304,-12.55702 l -1.9527,-8.05702 0.5901,-2.25674 0.5902,-2.25674 -1.1654,-8.68624 c -0.6409,-4.77743 -1.2488,-10.82374 -1.3508,-13.43624 -0.102,-2.6125 -0.2507,-4.75 -0.3304,-4.75 -0.08,0 -2.5131,3.18463 -5.4075,7.07695 l -5.2625,7.07696 1.6263,10.17304 c 2.4881,15.56423 4.4251,30.89449 5.6446,44.67305 0.6085,6.875 1.7527,16.3895 2.5427,21.14333 0.79,4.75384 1.4364,10.43614 1.4364,12.62734 0,2.1912 0.6382,7.0767 1.4183,10.85666 0.78,3.77997 2.1756,11.59767 3.1012,17.37267 0.9256,5.775 2.3065,13.65 3.0686,17.5 2.2333,11.28118 4.2498,28.76681 5.4203,47 0.6002,9.35 1.3482,17.675 1.6623,18.5 0.314,0.825 0.9243,4.875 1.3562,9 0.4319,4.125 1.4793,13.575 2.3276,21 0.8482,7.425 2.0402,22.26155 2.6489,32.97012 0.6087,10.70857 1.5452,22.63357 2.0812,26.5 0.5359,3.86643 1.4095,13.32988 1.9413,21.02988 l 0.967,14 2.5582,8.5 c 1.407,4.675 2.8111,9.2875 3.1202,10.25 l 0.5619,1.75 -0.8666,-0.007 -0.8666,-0.007 -1.8563,-5.74276 c -1.021,-3.15852 -2.4431,-7.09276 -3.1604,-8.74276 -0.7172,-1.65 -1.4799,-3.63163 -1.6949,-4.40362 l -0.3908,-1.40362 -2.8965,8.71679 c -1.5931,4.79423 -3.3105,8.97262 -3.8164,9.28531 l -0.9199,0.56853 0.4833,-3.8817 c 0.2658,-2.13493 1.4943,-7.66778 2.7301,-12.29522 l 2.2468,-8.41352 -1.1756,-17.08648 c -0.6466,-9.39804 -1.3708,-23.38695 -1.6093,-31.08695 -0.88,-28.41144 -3.9733,-59.99216 -7.1468,-72.96411 -1.5162,-6.19729 -2.4897,-14.33661 -4.2504,-35.53589 l -1.0382,-12.5 -2.4489,-14.5 c -1.3469,-7.975 -3.3522,-19.45 -4.4563,-25.5 -2.5979,-14.23534 -5.5464,-35.14934 -7.613,-54 -0.9045,-8.25 -2.5174,-19.5394 -3.5843,-25.08757 -1.0669,-5.54816 -2.2239,-13.77074 -2.571,-18.27241 l -0.6312,-8.18484 -2.1,1.49276 c -1.1551,0.82101 -4.4626,3.10515 -7.3501,5.07586 l -5.25,3.58311 0,3.00556 0,3.00556 -1,-0.61803 -1,-0.61803 0,-1.94099 c 0,-2.31312 0.086,-2.30109 -4.0425,-0.56515 l -3.2721,1.37583 0.2219,7.6 0.2219,7.60001 1.4963,2.99953 1.4964,2.99953 2.6515,2.0857 2.6516,2.0857 1.7307,-0.45259 1.7307,-0.45258 1.4699,1.64152 c 1.5702,1.75342 4.5705,9.58056 7.7124,20.11988 l 1.9313,6.47836 -0.015,9.02164 -0.015,9.02164 -0.9698,1.5 c -0.5332,0.825 -1.0047,1.275 -1.0479,1 -0.043,-0.275 -0.2583,-4.55 -0.4781,-9.5 -0.2198,-4.95 -0.5396,-10.8563 -0.7107,-13.12511 l -0.3111,-4.1251 -1.1106,-1.3749 c -0.6109,-0.75619 -1.4393,-2.90997 -1.841,-4.78619 l -0.7304,-3.4113 -3.1079,-2.8387 c -1.7094,-1.56128 -3.6338,-2.8387 -4.2765,-2.8387 l -1.1685,0 -4.9966,-4.9704 -4.9966,-4.97041 -1.2251,-6.27959 c -0.6738,-3.45378 -1.4473,-7.7322 -1.7189,-9.50761 l -0.4938,-3.228 -1.6431,0.87939 -1.6432,0.87939 0.1166,29.84862 0.1166,29.84861 1.2465,7 1.2466,7 2.2272,4.5 c 1.225,2.475 3.8854,6.975 5.9121,10 2.0267,3.025 5.3113,7.93897 7.2991,10.91993 l 3.6142,5.41993 3.9667,13.08007 3.9667,13.08007 -1.2017,9.5 c -0.6609,5.225 -1.5855,12.425 -2.0547,16 -1.1944,9.0994 -1.1433,22.13125 0.1489,38.00184 l 1.1048,13.56893 -3.2371,8.19185 -3.2371,8.19186 -0.8066,-0.49846 -0.8065,-0.49845 2.0261,-5.72879 2.0261,-5.72878 -0.5017,-10.5 -0.5016,-10.5 0.8408,-4.5 0.8409,-4.5 -1.0176,-14.5 -1.0175,-14.5 1.6877,-7.5 1.6877,-7.5 -1.4975,-8 c -2.3478,-12.54175 -4.3325,-20.56187 -6.4864,-26.21 l -1.9867,-5.21 -5.5076,-7.85988 -5.5076,-7.85988 -3.1831,-6.80829 -3.1831,-6.80829 -0.7117,-33.32959 -0.7117,-33.3296 -0.5702,-0.57021 -0.5702,-0.57022 -2.7058,1.02876 -2.7059,1.02875 0.6417,2.0217 0.6416,2.02169 -0.6539,2.97753 -0.654,2.97753 -0.9879,0 -0.988,0 0.6228,-1.96223 0.6228,-1.96222 -1.0906,-2.03778 -1.0906,-2.03777 -1.4058,0 c -0.7732,0 -1.7033,0.48149 -2.0671,1.06999 l -0.6612,1.06999 2.7108,10.18001 c 1.4909,5.599 3.3375,11.75501 4.1034,13.68001 l 1.3926,3.5 1.0612,18.5 c 0.5836,10.175 1.2746,20.525 1.5354,23 l 0.4743,4.5 -1.5958,-2.5 -1.5957,-2.5 0.5492,4.81726 0.5493,4.81726 2.8811,6.85727 2.8811,6.85727 3.8375,4.82547 c 2.1106,2.65401 5.126,6.14812 6.7009,7.76468 5.5427,5.68921 7.3218,12.18751 8.3668,30.56079 l 0.5972,10.5 -1.6828,14 -1.6828,14 -3.4699,10.24424 c -3.5416,10.45567 -6.8944,17.25576 -8.5081,17.25576 -1.2015,0 -1.2473,0.19667 1.567,-6.72949 1.3575,-3.34086 3.8184,-10.95595 5.4685,-16.9224 l 3.0003,-10.84811 0.9247,-10 c 0.5086,-5.5 0.9939,-15.55782 1.0784,-22.35071 l 0.1537,-12.35071 -1.6952,-5.14929 -1.6953,-5.14929 -4.3981,-6.19216 -4.3982,-6.19216 -5.585,-5.10441 -5.5851,-5.10441 -1.8684,-3.66487 -1.8685,-3.66487 0,2.46144 c 0.001,1.35379 1.0998,8.98644 2.4414,16.96144 l 2.4392,14.5 1.0177,16 c 0.5598,8.8 1.275,26.575 1.5894,39.5 l 0.5717,23.5 -0.979,9.5 c -0.5385,5.225 -1.2518,13.55 -1.5852,18.5 -0.3334,4.95 -1.0117,10.575 -1.5075,12.5 -0.4957,1.925 -1.3537,6.425 -1.9066,10 l -1.0053,6.5 -0.1758,19.5 -0.1758,19.5 1.2251,6.5 c 0.6738,3.575 2.1063,8.65715 3.1834,11.29367 l 1.9583,4.79367 -0.3083,6.20633 -0.3084,6.20633 -0.7729,-3 z m -65.6778,-164.50678 -0.8211,-3.49322 -0.1023,2.16821 c -0.1029,2.17891 0.8847,5.67799 1.4446,5.11814 0.1649,-0.16495 -0.07,-1.87186 -0.5212,-3.79313 z m 68.9742,-67.36879 c 0,-0.20656 -1.1622,-3.00343 -2.5826,-6.21526 l -2.5826,-5.83968 -0.8937,-11.53475 c -0.4916,-6.34411 -0.9578,-12.88474 -1.0362,-14.53474 l -0.1425,-3 -1.2852,5 -1.2852,5 -0.084,6.5 -0.084,6.5 1.3438,5.04613 c 1.4799,5.55679 3.091,9.03853 5.4159,11.70387 1.3674,1.56752 3.2166,2.35769 3.2166,1.37443 z m -19.3129,-52.38609 -0.4551,-1.73834 0.02,4 0.02,4 0.4349,-2.26166 c 0.2392,-1.24391 0.2301,-3.04391 -0.02,-4 z m 0.03,-8.97459 -0.4179,-2.76375 -0.014,5 -0.014,5 0.4315,-2.23625 c 0.2374,-1.22994 0.2435,-3.47994 0.014,-5 z m 5.3738,-8.85072 c -0.5998,-5.08965 -1.0909,-10.46981 -1.0909,-11.95591 l 0,-2.70201 1.4869,1.23399 1.4868,1.23399 -1.0968,-3.14629 -1.0968,-3.14628 0.4713,-2.46526 0.4713,-2.46526 -0.6114,0.0153 c -0.3362,0.008 -1.2417,0.41444 -2.0122,0.90226 l -1.4008,0.88694 0.6772,9.34774 c 0.3724,5.14126 1.2191,13.17275 1.8815,17.84775 l 1.2043,8.5 0.3607,-2.41653 c 0.1984,-1.32909 -0.1304,-6.58079 -0.7306,-11.67044 z m -5.8683,-11.66415 0.2769,-10.75113 -1.4008,0.001 -1.4008,10e-4 0.6456,9.75 c 0.3551,5.3625 0.72,11.55 0.8109,13.75 l 0.1652,4 0.313,-3 c 0.1722,-1.65 0.4377,-7.83801 0.59,-13.75112 z m -94.3903,-7.3695 1.16996,-4.12062 0.56641,-13.37938 0.56642,-13.37938 -0.89862,-4.5 -0.89861,-4.5 -1.79745,5.5 -1.79744,5.5 -0.33419,12.5 c -0.1838,6.875 -0.0781,14.6795 0.23494,17.34333 l 0.56913,4.84332 0.72475,-0.84332 c 0.39861,-0.46383 1.25122,-2.69761 1.8947,-4.96395 z m 10.06752,-35.72165 0.0997,-4.84227 -2.12159,-2.65773 -2.12158,-2.65773 0.68405,8 c 0.37622,4.4 0.96033,8.9 1.29801,10 l 0.61397,2 0.72389,-2.5 c 0.39814,-1.375 0.76875,-4.67902 0.82357,-7.34227 z m -79.40243,-42.91405 c 1.09884,-1.78403 2.50444,-4.33708 3.12355,-5.67346 l 1.12567,-2.42979 -5.69687,-2.69419 -5.69688,-2.6942 -2.92668,-3.46635 -2.92668,-3.46635 -9.87606,-4.82634 c -5.43184,-2.65448 -10.38184,-4.82619 -11,-4.82602 -1.15498,3.2e-4 -17.07124,11.62971 -18.02189,13.1679 l -0.53007,0.85768 7.11995,1.2724 7.11996,1.27241 9.86708,3.3229 9.86709,3.3229 5.85122,3.55443 c 3.21816,1.95493 6.4129,4.23122 7.09941,5.05841 0.68651,0.8272 1.7556,1.50114 2.37575,1.49767 l 1.12756,-0.006 1.99789,-3.24367 z m 13.86702,-30.99368 c 1.96408,-5.0875 4.51444,-12.32243 5.66747,-16.07762 l 2.09643,-6.82761 -1.45961,-2.17239 c -0.80278,-1.19481 -2.51915,-3.26562 -3.81415,-4.60181 -1.295,-1.33619 -3.0641,-3.47834 -3.93132,-4.76034 l -1.57677,-2.33091 -3.87982,3.26034 c -5.03239,4.22888 -14.82376,12.93155 -15.46664,13.7469 -0.275,0.34878 -3.5375,2.78399 -7.25,5.41157 -3.7125,2.62758 -6.75,5.11419 -6.75,5.5258 0,0.41161 6.02849,3.77278 13.39665,7.46928 l 13.39665,6.72091 1.75834,1.94294 c 0.96708,1.06862 2.3171,1.94294 3.00003,1.94294 l 1.24169,0 3.57105,-9.25 z m 45.01161,-16 c 0.96947,-3.9875 2.63486,-11.28411 3.70086,-16.21469 l 1.93818,-8.96469 -1.75753,-1.75441 -1.75753,-1.75442 -2.42851,-0.28089 -2.42851,-0.2809 -1.19696,4 c -0.65832,2.2 -3.053,8.10943 -5.32149,13.13208 -2.26849,5.02264 -4.12453,9.45893 -4.12453,9.85842 0,1.08657 9.3354,9.48651 10.55667,9.49883 l 1.05666,0.0107 1.76269,-7.25 z m 18.58355,4.79872 c 0.66245,-0.79821 5.47338,-3.54174 10.69095,-6.09674 l 9.48648,-4.64546 0.5182,-1.35027 0.5181,-1.35027 -1.8367,-2.52157 -1.8366,-2.52156 -3.21505,-0.0314 -3.21506,-0.0314 -4.62976,-1.57185 c -2.54637,-0.86451 -4.75212,-1.42701 -4.90165,-1.25 -0.14954,0.17702 -1.38796,5.15326 -2.75204,11.05832 l -2.48016,10.73648 0.51353,0.51352 c 0.875,0.87501 1.88587,0.57308 3.13976,-0.93775 z M 270.76616,233.43281 c 5.97774,-5.39785 15.52426,-14.34373 21.21449,-19.87973 l 10.34586,-10.06545 -1.24106,-5.87027 c -0.68258,-3.22866 -1.25072,-6.37984 -1.26253,-7.00265 l -0.0215,-1.13236 -9.58334,-3.99731 c -5.27083,-2.19852 -14.00925,-5.68784 -19.41871,-7.75404 l -9.83538,-3.75673 -2.91462,-2.45249 -2.91462,-2.45249 0,-1.27822 0,-1.27822 -3.96224,-2.62208 -3.96223,-2.62209 -5.02173,-7.44187 c -2.76195,-4.09303 -5.43094,-7.69478 -5.93109,-8.00389 l -0.90936,-0.56202 -0.4519,2.24309 c -0.64226,3.18801 -0.17063,10.30433 1.67299,25.24309 4.06967,32.9764 7.88153,53.5942 11.80698,63.86228 l 1.09424,2.86229 4.08217,1.81708 c 2.24519,0.99939 4.59129,1.84886 5.21355,1.88771 l 1.13138,0.0706 10.86862,-9.81427 z m 55.93363,-18.51269 c 0.92104,-2.84517 2.36688,-6.67749 3.21298,-8.51626 l 1.53837,-3.34323 -1.36586,-0.84414 -1.36586,-0.84415 -3.54232,4.16493 c -1.94828,2.29072 -4.29576,4.92847 -5.21663,5.86168 -0.92086,0.93321 -2.15452,2.59404 -2.74145,3.69073 l -1.06715,1.99399 3.10334,2.61129 3.10334,2.61129 1.33331,-1.10654 1.33331,-1.10655 1.67462,-5.17304 z m -16.13025,-17.60095 1.74473,-1.92791 -3.08974,-1.59777 -3.08975,-1.59777 0.0136,1.27568 c 0.0245,2.28471 1.20187,5.77568 1.94799,5.77568 0.40061,0 1.51352,-0.86756 2.47312,-1.92791 z m 151.16944,-186.80126 -0.6042,-0.6041658 0.079,1.9166658 0.079,1.916667 0.5252,-1.3125 0.5252,-1.3125 -0.6041,-0.604167 z m -0.9419,-6.5208328 -0.5044,-1.25 0,2.5 0,2.5 0.5044,-1.25 0.5044,-1.25 -0.5044,-1.25 z"
     id="path2991"
     inkscape:connector-curvature="0" />
</svg>
