<?xml version="1.0" encoding="UTF-8" standalone="no"?>
<!-- Created with Inkscape (http://www.inkscape.org/) -->

<svg
   xmlns:dc="http://purl.org/dc/elements/1.1/"
   xmlns:cc="http://creativecommons.org/ns#"
   xmlns:rdf="http://www.w3.org/1999/02/22-rdf-syntax-ns#"
   xmlns:svg="http://www.w3.org/2000/svg"
   xmlns="http://www.w3.org/2000/svg"
   xmlns:sodipodi="http://sodipodi.sourceforge.net/DTD/sodipodi-0.dtd"
   xmlns:inkscape="http://www.inkscape.org/namespaces/inkscape"
   id="svg2"
   version="1.1"
   inkscape:version="0.48.2 r9819"
   width="1244"
   height="1860"
   sodipodi:docname="DeadWyrm.png">
  <metadata
     id="metadata8">
    <rdf:RDF>
      <cc:Work
         rdf:about="">
        <dc:format>image/svg+xml</dc:format>
        <dc:type
           rdf:resource="http://purl.org/dc/dcmitype/StillImage" />
        <dc:title></dc:title>
      </cc:Work>
    </rdf:RDF>
  </metadata>
  <defs
     id="defs6" />
  <sodipodi:namedview
     pagecolor="#ffffff"
     bordercolor="#666666"
     borderopacity="1"
     objecttolerance="10"
     gridtolerance="10"
     guidetolerance="10"
     inkscape:pageopacity="0"
     inkscape:pageshadow="2"
     inkscape:window-width="1920"
     inkscape:window-height="1176"
     id="namedview4"
     showgrid="false"
     inkscape:zoom="0.50752688"
     inkscape:cx="622"
     inkscape:cy="930"
     inkscape:window-x="0"
     inkscape:window-y="24"
     inkscape:window-maximized="1"
     inkscape:current-layer="svg2" />
  <path
     style="fill:#000000"
     d="m 229.88776,1838.4951 c -0.2396,-0.2396 -3.7998,-0.5225 -7.9117,-0.6287 -14.8858,-0.3847 -45.5239,-3.0144 -52.42,-4.4992 -3.8808,-0.8357 -9.7561,-1.9903 -13.0561,-2.5658 -16.7803,-2.9266 -55.01242,-19.3485 -64.785163,-27.8273 -2.31814,-2.0112 -7.62833,-5.9966 -11.80043,-8.8563 -8.80788,-6.0374 -28.63612,-24.5393 -34.64395,-32.3266 -4.09748,-5.3111 -18.96694,-34.1071 -21.09411,-40.8505 -2.54939,-8.082 -4.22167,-19.3569 -4.82036,-32.5 -0.53792,-11.8091 -0.28715,-16.1909 1.60239,-28 1.23206,-7.7 2.83381,-15.8 3.55944,-18 0.72564,-2.2 2.30411,-7.375 3.50772,-11.5 2.965,-10.1616 12.54863,-31.3632 16.95085,-37.5 1.97273,-2.75 4.32704,-6.125 5.2318,-7.5 3.23863,-4.9219 22.63873,-25.2315 28.01275,-29.326 3.01306,-2.2957 8.13347,-6.2387 11.37869,-8.7622 9.02007,-7.0142 32.630173,-21.7099 52.900373,-32.9269 3.3,-1.8262 8.2594,-4.5728 11.0209,-6.1036 2.7615,-1.5308 11.9865,-5.5455 20.5,-8.9216 8.5135,-3.3761 17.4761,-7.0479 19.9168,-8.1595 2.4407,-1.1116 8.2907,-2.9136 13,-4.0043 4.7093,-1.0907 12.6123,-3.0129 17.5623,-4.2715 14.5997,-3.7122 27.5194,-6.4966 35,-7.5431 3.85,-0.5386 10.825,-1.6672 15.5,-2.508 17.0751,-3.0708 20.1208,-3.007 74,1.5517 6.875,0.5816 15.3405,1.714 18.8121,2.5163 3.4716,0.8023 7.5216,1.4573 9,1.4555 1.4784,0 5.8379,0.8632 9.6879,1.922 6.3861,1.7564 29.8282,5.6076 58,9.5288 20.272,2.8216 45.4112,3.8593 77.4053,3.1952 35.9899,-0.747 44.0383,-1.1827 50.0947,-2.712 8.4292,-2.1285 14,-4.0899 14,-4.9294 0,-0.4608 0.256,-1.5048 0.5688,-2.32 0.3856,-1.0048 -1.4662,-2.9251 -5.75,-5.9623 -7.3874,-5.2378 -22.3253,-10.5916 -36.8188,-13.1961 -5.225,-0.939 -12.65,-2.307 -16.5,-3.0402 -3.85,-0.7331 -10.6,-1.8457 -15,-2.4724 -14.9737,-2.1328 -35.6288,-9.3727 -41.4797,-14.5392 -1.9361,-1.7096 -5.2003,-4.1222 -7.2537,-5.3612 -4.8228,-2.9099 -14.0941,-14.0771 -17.5263,-21.11 -2.341,-4.7969 -2.6715,-6.6506 -2.5856,-14.5 0.1931,-17.6413 3.5435,-26.5451 13.836,-36.7705 4.8075,-4.776 8.4094,-7.1181 18.0093,-11.7099 16.0704,-7.6867 23.4139,-9.4736 43.5258,-10.591 13.0475,-0.7249 23.0204,0.068 45.9742,3.6556 22.0077,3.4396 23.621,3.8288 57.5,13.8726 18.8355,5.584 34.2959,10.893 44.0725,15.1343 6.0899,2.6419 14.2962,5.6968 18.2363,6.7887 3.94,1.0918 7.545,2.2208 8.011,2.5088 1.6844,1.041 24.9611,6.4074 37.1802,8.5717 6.875,1.2178 15.425,2.8976 19,3.7329 5.3646,1.2535 25.6662,3.0245 37.2814,3.2523 4.5803,0.09 4.343,-2.4572 -0.7573,-8.1299 -2.5747,-2.8638 -9.0334,-11.7841 -14.3527,-19.823 -11.6132,-17.551 -11.7126,-17.7057 -13.798,-21.4926 -0.9087,-1.65 -5.2475,-8.625 -9.6418,-15.5 -10.961,-17.1485 -27.5081,-50.4718 -33.7663,-68 -2.8474,-7.975 -7.1123,-19.225 -9.4775,-25 -2.3652,-5.775 -5.0536,-13.2 -5.9742,-16.5 -0.9206,-3.3 -4.2994,-14.1134 -7.5085,-24.0298 -8.5532,-26.4305 -15.9515,-54.2833 -22.0387,-82.9702 -3.4006,-16.0257 -7.1013,-28.3319 -15.4874,-51.5 -2.8867,-7.975 -6.2556,-17.875 -7.4864,-22 -1.2309,-4.125 -4.383,-13.125 -7.0047,-20 -5.51,-14.4492 -8.9879,-25.2431 -8.9879,-27.89502 0,-1.0192 -1.1804,-3.9651 -2.6232,-6.5465 -1.5737,-2.8158 -2.9662,-7.3668 -3.4807,-11.376 -1.7411,-13.56855 -4.6343,-26.08929 -8.9386,-38.6825 -3.9502,-11.55753 -4.9048,-17.97637 -5.428,-36.5 -0.6051,-21.42322 -2.0608,-39.77322 -3.4363,-43.3151 -0.6012,-1.5483 -1.1128,-8.5233 -1.1367,-15.5 -0.024,-6.97669 -0.4927,-14.7099 -1.0417,-17.1849 -2.2543,-10.16392 -3.9337,-31.21607 -2.82,-35.35196 0.5974,-2.21844 1.2463,-8.12266 1.4421,-13.12049 0.1958,-4.99783 0.8465,-11.27586 1.446,-13.95118 0.8607,-3.84031 0.7625,-6.47048 -0.4663,-12.49496 -1.2424,-6.09171 -1.5146,-13.87813 -1.3496,-38.60608 0.1148,-17.19173 -0.2978,-36.31517 -0.9271,-42.97533 -0.6237,-6.6 -1.3867,-25.5 -1.6957,-42 -0.6575,-35.11684 -0.8531,-37.59372 -3.6158,-45.79038 -1.9018,-5.64251 -2.1324,-9.07206 -2.5248,-37.55191 -0.2701,-19.59743 -0.8347,-32.09486 -1.5068,-33.35059 -0.6907,-1.29056 -1.2329,-15.9996 -1.5173,-41.15771 -0.2434,-21.53217 -0.875,-41.84941 -1.4035,-45.14941 -0.5285,-3.3 -0.9642,-11.08402 -0.9684,-17.29782 0,-6.2138 -0.7343,-17.4638 -1.6226,-25 -1.2188,-10.34019 -1.4231,-16.89188 -0.8325,-26.70218 0.972,-16.14393 0.9646,-16.86772 -0.3473,-34 -1.5495,-20.23658 -0.8858,-51.12469 1.1819,-55 0.8803,-1.65 1.6034,-3.70217 1.6068,-4.56039 0,-0.85821 1.1311,-4.43104 2.5061,-7.93961 1.375,-3.50857 2.5,-8.08479 2.5,-10.16938 0,-4.70105 2.5627,-11.52049 5.5733,-14.83062 2.8579,-3.14238 6.4256,-12.45648 6.4262,-16.77713 5e-4,-3.01318 -6.2503,-16.6418 -8.1796,-17.83421 -1.7672,-1.09216 -0.8008,-9.53794 1.5791,-13.8007 1.5852,-2.83934 2.0992,-4.77031 1.5153,-5.69245 -0.486,-0.76753 -0.8905,-3.46549 -0.8989,-5.99547 -0.018,-5.51719 0.641,-6.54406 16.4533,-25.6218 7.7724,-9.37755 11.1936,-12.43892 15.9007,-14.22858 2.0352,-0.77378 2.6306,-1.68021 2.6306,-4.00467 0,-5.0149 3.0687,-11.20768 8.9295,-18.02006 10.3506,-12.031304 11.4838,-13.131554 20.2397,-19.650874 7.6726,-5.71274 9.3258,-6.52996 13.5355,-6.69082 2.6374,-0.10078 5.9425,0.14016 7.3446,0.53543 2.1586,0.60854 3.691,-0.2381 10,-5.52492 4.0979,-3.43397 9.4757,-8.19538 11.9507,-10.5809 4.6841,-4.514735 11.0611,-9.724964 14.5,-11.846956 1.1,-0.678759 4.025,-2.434909 6.5,-3.902554 2.475,-1.467646 8.1,-6.125776 12.5,-10.3514 13.0462,-12.529101 22.9947,-19.011938 29.1757,-19.011938 1.883,0 4.6388,-0.614313 6.124,-1.36514 4.3442,-2.196172 15.8479,-3.939272 21.2597,-3.221372 11.7026,1.552399 35.3159,11.33056 39.7118,16.444438 5.6494,6.572182 11.2288,14.089779 11.2288,15.129438 0,0.626602 3.2783,4.598283 7.2851,8.825956 4.0068,4.227674 9.5127,11.061678 12.2354,15.186678 2.7226,4.125 7.3818,9.975 10.3538,13 2.9719,3.025 6.5606,7.075 7.9748,9 1.4142,1.925 4.6682,5.773704 7.2311,8.552664 5.555,6.02334 6.6115,8.73454 4.7993,12.3165 -2.0124,3.97753 -11.2939,16.23571 -14.8639,19.63084 -8.3723,7.96215 -11.0847,22.39133 -7.0725,37.62337 4.1892,15.90425 4.3183,16.20529 8.8313,20.59143 5.6133,5.45544 9.2194,10.75091 9.2476,13.57961 0.043,4.36582 3.7397,10.53007 7.8822,13.14508 7.0791,4.46885 11.4235,3.05228 19.1258,-6.23634 7.8548,-9.47255 19.6088,-14.44637 29.0162,-12.27843 2.4496,0.56451 5.8099,1.03739 7.4672,1.05083 1.7675,0.0143 5.2079,1.50232 8.3214,3.59911 4.9697,3.34676 5.702,3.54546 11.4867,3.11668 3.3982,-0.25189 8.0923,-1.0321 10.4314,-1.73379 4.8452,-1.45353 10.3622,-0.21666 15.74714,3.53038 3.75,2.60936 9.3715,4.81203 12,4.7019 9.4583,-0.39628 19.523,-4.585 25.9462,-10.79824 2.3842,-2.30621 10.2361,-3.92271 13.8169,-2.84451 1.2303,0.37045 3.667,2.03081 5.415,3.68969 3.7143,3.5251 5.6534,3.35327 12.2646,-1.08682 2.8141,-1.89003 4.7533,-4.13359 5.533,-6.40162 1.1936,-3.47182 2.5879,-5.85798 11.8886,-20.34489 2.6753,-4.16718 6.8578,-11.38742 9.2944,-16.04497 2.4365,-4.65756 6.2378,-11.42179 8.4473,-15.03164 2.2095,-3.60985 3.7812,-7.17828 3.4928,-7.92984 -0.2884,-0.75157 0.3589,-1.83918 1.4384,-2.41692 1.0796,-0.57774 1.9628,-1.9346 1.9628,-3.01525 0,-1.08065 0.4056,-1.96482 0.9012,-1.96482 0.9831,0 5.0988,-6.51975 5.0988,-8.07703 0,-0.52949 1.2106,-2.86627 2.6903,-5.19284 1.4796,-2.32657 4.004,-6.70513 5.6098,-9.73013 1.6058,-3.025 3.7702,-6.429 4.8097,-7.56445 1.0396,-1.13545 1.8902,-2.41188 1.8902,-2.83652 0,-0.776344 5.9669,-9.665394 7.1147,-10.599034 0.3381,-0.275 0.9333,-3.09014 1.3227,-6.25587 0.5601,-4.55363 1.3795,-6.46792 3.9231,-9.16488 5.9305,-6.288222 15.7953,-5.68307 22.5004,1.3803 1.8485,1.94725 4.8633,5.11545 6.6995,7.04045 1.8362,1.925 3.612,4.64546 3.9462,6.04545 0.7279,3.04953 6.362,7.76968 10.79,9.0396 5.0951,1.46128 19.3124,1.10518 23.3576,-0.58505 6.6943,-2.79705 11.5627,-0.85744 8.4986,3.385924 -0.641,0.88775 -1.4589,2.28908 -1.8174,3.11408 -0.3586,0.825 -2.0885,3.525 -3.8444,6 -1.7558,2.475 -4.8515,7.9875 -6.8793,12.25 -2.0278,4.2625 -4.1199,7.75 -4.6493,7.75 -0.5293,0 -0.9624,0.69337 -0.9624,1.54082 0,2.21706 -7.8202,16.65261 -10.0867,18.61947 -1.0523,0.91316 -1.9133,2.08315 -1.9133,2.59996 0,0.51682 -1.35,2.80329 -3,5.08105 -1.65,2.27776 -3,5.21518 -3,6.5276 0,1.31241 -0.675,2.94641 -1.5,3.6311 -0.825,0.68469 -1.5,2.07396 -1.5,3.08726 0,1.01331 -0.8985,2.32325 -1.9967,2.91099 -1.0982,0.58774 -2.8779,2.79577 -3.9548,4.90673 -1.8784,3.68192 -4.844,5.54784 -6.7109,4.22245 -1.8344,-1.3023 -4.0593,-5.86858 -6.3071,-12.94443 -2.0182,-6.35329 -3.0278,-7.93378 -7.6648,-12 -2.9373,-2.57565 -5.3539,-5.133 -5.3704,-5.683 -0.016,-0.55 -1.0879,-2.00275 -2.381,-3.22834 l -2.3512,-2.22834 -5.6315,5.9041 c -3.0974,3.24726 -5.6316,6.33937 -5.6316,6.87135 0,1.60657 -2.4023,2.02198 -6.9179,1.19624 -4.1766,-0.76374 -4.315,-0.70188 -5.6665,2.53268 -0.7619,1.82355 -1.8477,3.60135 -2.4129,3.95065 -1.15,0.71074 -8.9919,16.31618 -9.0219,17.95359 -0.011,0.57644 -1.5855,2.84315 -3.5,5.03714 -1.9144,2.19399 -3.4808,4.26961 -3.4808,4.6125 0,0.34288 -1.35,2.32217 -3,4.39843 -1.65,2.07626 -3,4.44609 -3,5.2663 0,0.82022 1.575,3.23464 3.5,5.36538 3.852,4.26369 4.5852,8.84944 1.9682,12.30945 -0.8075,1.06762 -1.4682,3.12876 -1.4682,4.58031 0,1.66686 -1.4626,4.26749 -3.9699,7.05887 -2.1835,2.43083 -4.24,5.6379 -4.5701,7.12683 -0.8628,3.89248 -4.0675,10.22226 -5.9782,11.80797 -0.9008,0.7476 -2.711,3.47702 -4.0226,6.06539 -2.0182,3.98273 -3.1096,4.95311 -7.1001,6.31282 -2.5935,0.88367 -5.488,1.60668 -6.4323,1.60668 -1.6112,0 -10.9268,7.9561 -10.9268,9.33213 0,0.34795 -1.8,3.5735 -4,7.16787 -2.2,3.59437 -4,6.8609 -4,7.25895 0,0.81162 -7.0891,11.45519 -8.1615,12.25373 -0.3787,0.28198 -4.1455,7.25698 -8.3706,15.5 -4.2251,8.24303 -8.3089,15.69775 -9.075,16.56606 -0.7661,0.86831 -1.3929,1.96373 -1.3929,2.43428 0,0.47054 -0.9485,2.81494 -2.1078,5.20976 -1.2649,2.61274 -1.9084,5.43871 -1.6092,7.06573 0.2743,1.49132 1.2043,6.08649 2.0667,10.21149 0.974,4.65875 1.9672,17.91792 2.6218,35 1.1402,29.75588 2.1395,41.20879 3.7711,43.21663 3.3118,4.07574 2.9329,28.87856 -0.6077,39.77677 -0.8221,2.53058 -1.1349,38.29103 -1.1349,129.75 0,116.80405 -0.3373,133.98276 -2.435,124.0066 -0.8276,-3.9359 -2.1837,-70.6653 -2.9267,-144.01174 -0.2903,-28.65475 -0.7539,-41.1726 -1.5609,-42.14501 -0.7571,-0.91223 -1.3605,-9.93375 -1.772,-26.49261 l -0.6239,-25.10933 -3.5908,-0.96445 c -1.9749,-0.53044 -6.2907,-1.57144 -9.5907,-2.31331 -4.9087,-1.10355 -6.36374,-1.92066 -8.00004,-4.49269 -1.1,-1.7291 -2.3259,-3.16115 -2.7243,-3.18234 -0.3984,-0.0212 -1.4527,1.37002 -2.3429,3.09157 -1.3724,2.65386 -1.5154,5.27836 -0.9401,17.25 0.9299,19.34959 0.9413,44.35415 0.025,54.80116 -0.5159,5.88275 -0.387,9.75108 0.3998,12 0.6387,1.82531 1.4327,7.42597 1.7646,12.4459 0.4977,7.52981 0.3158,9.5376 -1.0394,11.4725 -1.2371,1.76617 -1.6515,4.69821 -1.6782,11.87286 -0.024,6.36827 -0.5093,10.35647 -1.4646,12.02749 -0.8589,1.50255 -1.4432,5.34389 -1.4645,9.62788 -0.02,3.99234 -0.6953,8.70711 -1.5355,10.71788 -0.825,1.9745 -1.5,5.4268 -1.5,7.67178 0,4.05134 -1.8941,8.94387 -4.706,12.15561 -1.2345,1.40999 -1.3912,5.89251 -0.9965,28.5 0.2576,14.75477 0.956,30.65185 1.5519,35.32685 0.5958,4.675 1.3197,10.44742 1.6085,12.82759 l 0.5251,4.32759 -2.9547,-0.64896 -2.9547,-0.64897 0.5667,14.82138 c 0.6163,16.11998 -0.8879,40.96897 -2.5825,42.66364 -0.7437,0.74364 -1.0688,0.18173 -1.0949,-1.89227 -0.02,-1.6225 -0.01,-27.65549 0.024,-57.85108 0.034,-30.1956 -0.239,-58.8831 -0.6064,-63.75 -0.6262,-8.29673 -0.8076,-8.84892 -2.9057,-8.84892 -1.4093,0 -3.3,1.38842 -5.1066,3.75 l -2.8687,3.75 -0.2811,42.25 c -0.2573,38.66182 -0.6487,44.59958 -2.7189,41.25 -0.3399,-0.55 -1.2664,-1 -2.059,-1 -1.6962,0 -2.0712,7.49248 -0.4258,8.50936 2.2406,1.38475 4.167,8.48286 4.7157,17.37563 0.472,7.64916 0.3277,9.30121 -0.7799,8.93198 -0.7475,-0.24915 -1.74,-1.9974 -2.2057,-3.88499 -0.4656,-1.88759 -1.7463,-4.19736 -2.846,-5.13283 -1.1088,-0.94321 -2.8986,-4.94576 -4.0181,-8.98541 -1.1102,-4.00651 -2.2372,-7.50309 -2.5043,-7.77019 -1.6225,-1.62253 -2.2288,4.24022 -1.753,16.95013 0.3566,9.52562 0.1613,15.49854 -0.5688,17.39617 -0.8829,2.29477 -0.8132,3.22143 0.3384,4.5 0.7977,0.88558 1.9706,5.42244 2.6065,10.08191 0.6359,4.65947 1.3694,8.8168 1.63,9.23851 0.2606,0.42171 0.3783,10.55941 0.2616,22.52824 -0.2651,27.16852 -0.2501,29.29796 0.2237,31.76149 0.2608,1.35564 -0.1563,2.00411 -1.2947,2.01275 -0.9237,0.007 -1.9725,0.30588 -2.3308,0.66415 -0.3582,0.35826 -0.7275,11.7899 -0.8206,25.40365 -0.1232,18.02725 -0.4904,24.8594 -1.3515,25.14662 -2.4376,0.81308 -3.2835,-3.86033 -3.3267,-18.37864 -0.024,-8.16669 0.015,-17.09853 0.088,-19.84853 0.073,-2.75 -0.5941,-8.59032 -1.4819,-12.9785 -1.4188,-7.01356 -2.2964,-20.96872 -4.1205,-65.5215 -0.2364,-5.775 -1.1154,-16.44098 -1.9532,-23.70218 -0.8379,-7.2612 -1.5235,-19.08783 -1.5235,-26.28139 0,-11.14662 -0.2399,-13.17127 -1.6237,-13.70231 -0.9772,-0.37497 -1.9925,0.0357 -2.5497,1.03139 -1.0917,1.95075 -3.4287,2.18437 -4.0463,0.40449 -0.2385,-0.6875 0.01,-5.90552 0.5447,-11.5956 0.7742,-8.18756 0.6647,-12.15087 -0.525,-19 -0.9288,-5.34712 -1.4421,-13.95705 -1.3432,-22.53021 0.1333,-11.55644 -0.1151,-14.21569 -1.4864,-15.90911 -3.3287,-4.11083 -3.9697,-1.36186 -3.9857,17.09394 -0.015,17.64086 -0.5833,21.60773 -2.719,18.98831 -2.3485,-2.8804 -3.2548,-10.10521 -3.2601,-25.98831 -0.01,-15.37909 -0.9179,-21.27857 -2.3868,-15.42603 -0.9748,3.88383 0.4048,86.79247 1.4775,88.79694 0.6468,1.20842 0.6126,2.4955 -0.1015,3.8299 -0.6762,1.26348 -0.8105,4.32713 -0.3617,8.25 0.3927,3.4321 1.0453,20.41517 1.4503,37.74017 0.405,17.325 0.9989,33.525 1.3198,36 1.3661,10.53524 1.7633,26.23355 0.6909,27.30593 -1.9837,1.98375 -3.4343,-0.97752 -3.6892,-7.53147 -0.3612,-9.2869 -1.3658,-15.88737 -2.9486,-19.3739 -1.1333,-2.49615 -1.4298,-11.44718 -1.5231,-45.98654 -0.064,-23.5879 -0.5211,-43.64417 -1.0164,-44.56949 -0.4952,-0.92531 -1.0165,-27.48137 -1.1586,-59.01346 -0.2259,-50.17953 -0.4453,-57.33107 -1.7582,-57.33107 -2.6455,0 -3.0914,19.8382 -3.5625,158.5 -0.2495,73.425 -0.6897,134.13775 -0.9783,134.91722 -1.8487,4.99326 -2.4748,-5.23857 -3.0561,-49.94403 -0.3538,-27.21026 -0.578,-51.56734 -0.4982,-54.12686 0.1349,-4.33085 -1.1061,-6.9845 -3.7446,-8.00704 -0.4859,-0.1883 -0.5977,-7.23731 -0.2513,-15.83929 0.3433,-8.525 0.4666,-18.01791 0.274,-21.09535 -0.3269,-5.22407 -0.5027,-5.56619 -2.6493,-5.15583 -1.2646,0.24174 -2.623,-0.0844 -3.0188,-0.7248 -0.3958,-0.64038 -0.9593,-19.47025 -1.2522,-41.84417 -0.2929,-22.37392 -0.8547,-40.90485 -1.2484,-41.17985 -0.3938,-0.275 -1.0139,-9.725 -1.3781,-21 -0.5334,-16.51082 -0.9958,-21.13243 -2.3766,-23.75 -0.9429,-1.7875 -2.0132,-3.25 -2.3786,-3.25 -1.901,0 -1.9312,1.03447 -2.2491,77 -0.2109,50.37896 1.478,173.98435 2.4593,180 1.1138,6.82758 1.1893,22.70864 0.1111,23.375 -1.1243,0.69488 -2.707,-0.50287 -4.0595,-3.07232 -1.6235,-3.08409 -1.8442,-13.4228 -2.6109,-122.30268 -0.6141,-87.21098 -0.8408,-96.85987 -2.3557,-100.23853 -4.176,-9.31404 -4.217,-8.45519 -4.1495,86.85975 0.035,49.84167 -0.1513,90.83673 -0.4147,91.10013 -1.5216,1.52166 -2.612,-1.70147 -2.612,-7.72135 0,-3.78508 -0.4113,-7.13618 -0.914,-7.44689 -0.533,-0.3294 -0.9771,-25.68126 -1.0652,-60.80901 -0.1288,-51.36768 -0.3459,-75.31348 -0.9154,-100.9941 -0.076,-3.44152 -0.5061,-4.75 -1.56,-4.75 -1.6068,0 -3.1874,-6.15215 -2.0524,-7.98853 1.0288,-1.66473 -2.6399,-13.01147 -4.207,-13.01147 -2.8137,0 -3.2967,-5.32242 -2.8434,-31.33279 0.2651,-15.21676 0.039,-28.46885 -0.5396,-31.66721 -1.1711,-6.46984 -2.5095,-13.34397 -3.3868,-17.39464 -0.3448,-1.59206 -0.9765,-2.49206 -1.4038,-2 -1.0889,1.25378 -4.1124,11.2227 -4.1124,13.55913 0,1.06416 -0.7099,3.30778 -1.5777,4.98584 -2.2523,4.35554 -2.218,75.94249 0.041,85.25756 4.7439,19.56253 4.7401,19.5272 2.5154,23.12678 -1.1248,1.81989 -2.7013,6.60659 -3.5035,10.63711 -2.4274,12.19608 -3.1488,14.59379 -5.7314,19.04968 -2.1866,3.77271 -3.3589,8.08013 -7.9422,29.18231 -0.5935,2.73236 -1.132,17.7877 -1.2162,34 l -0.151,29.09623 -4.9007,11 -4.9006,11 -0.3008,27 c -0.3259,29.25082 -1.4264,43.08797 -3.8973,49.00169 -1.2223,2.9254 -1.4228,5.4989 -0.887,11.38887 0.3807,4.18519 1.1288,8.15452 1.6625,8.82074 0.6301,0.7866 0.6006,2.36437 -0.084,4.5 -1.3788,4.3 -1.7308,36.55652 -0.4338,39.73722 0.5569,1.3655 0.6591,3.7981 0.2311,5.5 -1.7193,6.8368 -2.9605,18.4681 -2.3668,22.1807 0.3478,2.1751 0.1556,5.7359 -0.4271,7.9128 -2.1052,7.8651 -3.2783,54.118 -1.8376,72.458 1.8539,23.6003 3.0782,34.6595 4.7605,43 1.0539,5.225 2.3529,12.425 2.8867,16 1.5977,10.7 5.9599,30.6925 8.0278,36.7926 1.0642,3.1391 2.8235,9.0824 3.9097,13.2074 1.0861,4.125 3.867,12.675 6.1797,19 2.3127,6.325 5.0833,13.975 6.1568,17 2.0822,5.8668 10.3354,25.2402 19.8092,46.5 3.1862,7.15 8.5312,19.975 11.8776,28.5 3.3465,8.525 9.1255,21.575 12.8423,29 l 6.7577,13.5 8.5,-2.8008 c 8.5713,-2.8243 14.9213,-4.8145 33.8396,-10.606 42.2054,-12.9203 85.83694,-16.455 112.36744,-9.103 11.1012,3.0763 17.0291,6.3247 24.6346,13.4993 7.841,7.3968 9.8177,11.6481 8.6446,18.5918 -0.9836,5.8218 -7.8706,14.167 -14.7618,17.8873 -8.6749,4.6833 -9.1253,3.1936 -2.4978,-8.2626 3.2866,-5.6812 3.5101,-9.4996 0.7606,-12.995 -3.2645,-4.1502 -9.6616,-5.4838 -29.9873,-6.2515 -37.51824,-1.4172 -51.45364,-0.5785 -66.18954,3.9837 -14.8144,4.5865 -24.8196,8.04 -29.4985,10.1818 -2.8534,1.3063 -5.6938,2.375 -6.3119,2.375 -0.6181,0 -3.4585,1.0635 -6.3119,2.3632 -12.4794,5.6846 -14.7202,6.6368 -15.6182,6.6368 -2.9844,0 -1.3711,5.5341 3.644,12.5 1.5839,2.2 3.5101,5.575 4.2804,7.5 0.7703,1.925 3.5033,7.1 6.0733,11.5 2.5701,4.4 5.0097,9.125 5.4214,10.5 0.4117,1.375 3.3512,8.575 6.5321,16 9.4923,22.1567 10.3252,25.5935 14.0573,58 0.5383,4.675 1.6439,13.9 2.4567,20.5 2.862,23.239 3.6088,46.847 1.9815,62.6381 -1.5946,15.474 -4.439,30.854 -7.017,37.9419 -0.8841,2.431 -3.6423,10.495 -6.1291,17.92 -6.5642,19.5989 -11.0854,26.8138 -26.4012,42.1307 -13.9226,13.9235 -31.0743,24.47 -50.9693,31.3407 -3.575,1.2346 -8.75,3.153 -11.5,4.2632 -7.1911,2.9029 -17.3619,6.0633 -22,6.8361 -2.2,0.3666 -5.35,1.2314 -7,1.9219 -1.65,0.6905 -5.925,2.0316 -9.5,2.9801 -3.575,0.9486 -9.7184,2.8044 -13.6519,4.124 -3.9336,1.3197 -10.6836,3.0811 -15,3.9144 -8.6681,1.6731 -41.5939,3.5186 -53.3481,2.9901 -4.125,-0.1855 -13.8,-0.617 -21.5,-0.959 -7.7,-0.342 -19.175,-1.2585 -25.5,-2.0365 -6.325,-0.7781 -18.475,-2.1403 -27,-3.0272 -8.525,-0.8869 -24.95,-2.6817 -36.5,-3.9885 -34.9272,-3.9517 -50.3019,-4.8254 -73,-4.1483 -29.3931,0.8768 -38.6,2.4805 -56,9.7545 -1.1,0.4598 -8.525,3.3687 -16.5,6.464 -7.975,3.0954 -16.4806,6.7696 -18.9014,8.1648 -5.5382,3.192 -39.8859,17.3393 -58.0986,23.9299 -5.225,1.8908 -10.85,4.1895 -12.5,5.1083 -7.9943,4.4517 -49.0975,18.5745 -75,25.7695 -7.15,1.9861 -18.1551,5.2089 -24.4557,7.1617 -6.3006,1.9528 -14.4006,3.9562 -18,4.4521 -7.3965,1.019 -31.4906,2.0739 -32.1566,1.4079 z m 5.6122,-93.5913 c 2.75,-0.5783 9.05,-1.4383 14,-1.9112 14.6764,-1.4021 26.0525,-3.8515 39.4107,-8.4853 30.4008,-10.5458 45.4057,-16.9341 69.0893,-29.4149 10.8066,-5.6949 20.2376,-10.296 51.5,-25.1256 12.0142,-5.6991 29.8308,-12.4592 52,-19.7304 7.7,-2.5255 17.6,-5.8268 22,-7.3362 11.5855,-3.9744 24.4377,-6.7237 37,-7.9148 13.9608,-1.3238 39.1838,-1.3379 47,-0.026 14.2089,2.3842 27.2441,3.9816 32.4905,3.9816 3.1032,0 8.0874,0.451 11.0759,1.0022 2.9885,0.5512 10.8336,1.678 17.4336,2.504 6.6,0.8259 15.6,2.1654 20,2.9765 17.2318,3.1768 41.6104,6.5626 54,7.4999 22.0444,1.6676 51.3879,-0.2853 66,-4.3925 9.8314,-2.7634 27.2076,-9.3804 31.1223,-11.8516 2.1914,-1.3834 7.1103,-4.1007 10.931,-6.0384 3.8207,-1.9378 10.3217,-6.0186 14.4467,-9.0685 17.6012,-13.014 16.1802,-11.484 20.1952,-21.7434 4.6378,-11.8506 5.953,-19.9479 5.9105,-36.3882 -0.056,-21.5099 -2.597,-38.2016 -9.6678,-63.5 -3.2337,-11.5696 -9.9506,-28.0195 -16.5951,-40.6419 -2.8541,-5.422 -6.3674,-12.7831 -7.8073,-16.3581 -1.4398,-3.575 -3.8655,-8.9041 -5.3903,-11.8424 -2.352,-4.5322 -3.1103,-5.2577 -4.9996,-4.7835 -5.8271,1.4625 -22.4876,2.6071 -46.6456,3.2045 -24.0275,0.5941 -27.7757,0.4578 -40.1731,-1.4617 -7.5203,-1.1643 -15.2043,-2.1169 -17.0757,-2.1169 -1.8714,0 -6.6225,-1.125 -10.558,-2.5 -3.9356,-1.375 -9.0765,-2.4817 -11.4244,-2.4594 l -4.2688,0.041 3.0973,2.7093 c 4.8154,4.2124 10.3717,13.8011 11.9168,20.5653 3.153,13.8038 3.5114,21.7167 1.433,31.6457 -5.9378,28.3671 -27.2074,58.3834 -49.4498,69.7849 -9.3075,4.771 -12.916,6.0495 -28.4973,10.0966 -18.5298,4.813 -26.6548,5.3286 -86,5.4579 -47.2604,0.103 -55.7619,-0.1071 -64,-1.5814 -5.225,-0.9351 -14.675,-2.4218 -21,-3.3039 -20.712,-2.8883 -31.3353,-4.5449 -32.0745,-5.0018 -0.8399,-0.5191 -21.5927,-3.1351 -36.9255,-4.6547 -28.1046,-2.7853 -95.6656,-1.7852 -115,1.7023 -4.125,0.7441 -11.1,1.8879 -15.5,2.5417 -9.596,1.4259 -31.7364,7.8419 -43.5,12.6057 -12.7754,5.1736 -26.2414,11.5723 -28.5644,13.573 -1.1355,0.978 -2.3435,1.7781 -2.6845,1.7781 -1.6336,0 -19.0118,12.4967 -24.9511,17.9424 -6.6989,6.1422 -19.0808,23.6428 -30.4638,43.0576 -8.26769,14.1013 -9.66147,18.1695 -10.10697,29.5 -0.35068,8.919 -0.13022,10.5945 2.03942,15.5 1.33794,3.025 3.40177,8.7262 4.5863,12.6694 1.84084,6.1279 2.77035,7.6419 6.39935,10.4225 2.3352,1.7893 5.8207,4.713 7.7457,6.4972 3.2337,2.997 18.8067,10.6426 27,13.2556 6.4231,2.0484 26.2926,6.5403 38,8.5907 4.4292,0.7757 40.3342,-0.3862 45.5,-1.4723 z m 656.1623,-968.21312 c -0.2774,-0.6875 -0.5044,-0.125 -0.5044,1.25 0,1.375 0.227,1.9375 0.5044,1.25 0.2774,-0.6875 0.2774,-1.8125 0,-2.5 z m 1.0289,-81.49145 c 0.1745,-44.94742 -0.3559,-56.20894 -2.2396,-47.54945 -0.3339,1.535 -1.1346,3.87853 -1.7794,5.20787 -0.8497,1.75206 -1.119,14.11932 -0.9789,44.95601 0.1064,23.39648 0.4599,43.60124 0.7858,44.89948 0.3861,1.53861 1.1893,2.24535 2.3067,2.02991 1.5882,-0.30622 1.7283,-3.94927 1.9054,-49.54382 z M 1017.85,305.19068 c 3.1021,-6.96132 9.1794,-18.05616 12.901,-23.55225 1.7881,-2.64061 3.9873,-6.24035 4.8871,-7.99943 0.8997,-1.75908 2.9243,-4.83808 4.4989,-6.84222 4.7409,-6.03398 3.6713,-9.089 -3.637,-10.38823 -2.2,-0.39111 -6.191,-1.63482 -8.869,-2.76382 -4.2517,-1.79249 -5.2659,-1.8894 -8,-0.76448 -1.722,0.70852 -4.256,1.34947 -5.631,1.42432 l -2.5,0.13611 -0.1234,24.5 c -0.092,18.25117 0.2138,25.32893 1.1989,27.75 0.7274,1.7875 1.7354,3.25 2.2401,3.25 0.5048,0 1.8702,-2.1375 3.0344,-4.75 z"
     id="path2987"
     inkscape:connector-curvature="0" />
</svg>
