<?xml version="1.0" encoding="UTF-8" standalone="no"?>
<!-- Created with Inkscape (http://www.inkscape.org/) -->

<svg
   xmlns:dc="http://purl.org/dc/elements/1.1/"
   xmlns:cc="http://creativecommons.org/ns#"
   xmlns:rdf="http://www.w3.org/1999/02/22-rdf-syntax-ns#"
   xmlns:svg="http://www.w3.org/2000/svg"
   xmlns="http://www.w3.org/2000/svg"
   xmlns:sodipodi="http://sodipodi.sourceforge.net/DTD/sodipodi-0.dtd"
   xmlns:inkscape="http://www.inkscape.org/namespaces/inkscape"
   id="svg2"
   version="1.1"
   inkscape:version="0.48.2 r9819"
   width="912.5683"
   height="1339.0536"
   sodipodi:docname="FourHornsb.png">
  <metadata
     id="metadata8">
    <rdf:RDF>
      <cc:Work
         rdf:about="">
        <dc:format>image/svg+xml</dc:format>
        <dc:type
           rdf:resource="http://purl.org/dc/dcmitype/StillImage" />
        <dc:title></dc:title>
      </cc:Work>
    </rdf:RDF>
  </metadata>
  <defs
     id="defs6" />
  <sodipodi:namedview
     pagecolor="#ffffff"
     bordercolor="#666666"
     borderopacity="1"
     objecttolerance="10"
     gridtolerance="10"
     guidetolerance="10"
     inkscape:pageopacity="0"
     inkscape:pageshadow="2"
     inkscape:window-width="1600"
     inkscape:window-height="876"
     id="namedview4"
     showgrid="false"
     fit-margin-top="0"
     fit-margin-left="0"
     fit-margin-right="0"
     fit-margin-bottom="0"
     inkscape:zoom="1"
     inkscape:cx="-178.43171"
     inkscape:cy="823.6175"
     inkscape:window-x="0"
     inkscape:window-y="24"
     inkscape:window-maximized="1"
     inkscape:current-layer="svg2" />
  <path
     style="fill:#000000"
     d="m 646.72179,1338.4466 c -6.333,-1.3192 -10.347,-4.0254 -12.954,-8.7335 -3.5935,-6.4897 -2.1106,-10.3035 11.1856,-28.7689 8.578,-11.9128 13.2133,-15.7594 25.9995,-21.5755 l 10.1154,-4.6013 19.6423,-22.3787 c 17.939,-20.438 19.7443,-22.8343 20.8183,-27.6333 0.6468,-2.8901 2.2888,-8.0741 3.6489,-11.5201 1.7891,-4.5327 2.866,-10.2754 3.8941,-20.7654 0.7815,-7.975 1.8772,-16.3 2.4348,-18.5 0.5577,-2.2 1.0246,-7.0013 1.0377,-10.6696 l 0.024,-6.6697 -5.25,-1.726 c -7.0039,-2.3026 -15.9827,-10.0372 -17.5541,-15.1215 -1.0886,-3.5224 -0.786,-4.9954 3.9682,-19.3132 2.8307,-8.525 6.1941,-16.8824 7.4743,-18.572 1.2801,-1.6897 4.7539,-4.7432 7.7195,-6.7857 4.4684,-3.0774 5.4972,-4.3499 6.0061,-7.4279 0.3377,-2.0429 0.619,-17.5262 0.625,-34.4072 0.01,-28.4185 -0.1307,-30.9379 -1.9017,-34 -1.052,-1.819 -3.3117,-8.3971 -5.0215,-14.6182 -1.7629,-6.41408 -5.2705,-15.61888 -8.1022,-21.26168 -10.3564,-20.63752 -16.4096,-41.30189 -14.8578,-50.72207 1.2103,-7.34759 1.0225,-12.64759 -0.5231,-14.76126 -1.3826,-1.8909 -1.5721,-1.85906 -7.75,1.30225 -3.4829,1.78229 -11.9577,4.62392 -18.8327,6.31473 -8.886,2.18539 -14.3792,4.17776 -19,6.89122 -3.575,2.09936 -12.575,6.29684 -20,9.32775 -7.425,3.0309 -16.425,6.90748 -20,8.61462 -9.9498,4.75126 -11.5642,4.46612 -23.2212,-4.10132 -4.3385,-3.18867 -7.5083,-4.82525 -8.9414,-4.61654 -1.4096,0.20527 -4.058,2.87905 -7.2539,7.32332 -2.7684,3.85 -13.8033,15.64948 -24.5218,26.22107 l -19.4883,19.22103 2.1669,4.4602 c 3.4475,7.09598 4.6195,19.59048 3.9019,41.59768 -0.8011,24.5691 -1.8863,33.8825 -5.1523,44.2215 l -2.5981,8.2243 2.5395,1.8498 c 3.3299,2.4257 6.4992,9.7459 7.2247,16.687 0.7418,7.0968 -0.9575,15.2263 -5.0843,24.3238 -2.2759,5.0173 -3.4701,9.4614 -3.9473,14.6895 -0.7752,8.4954 -3.5265,13.7542 -8.9144,17.0394 -4.0694,2.4812 -6.7932,2.473 -11.71,-0.035 -2.1561,-1.1 -4.5615,-2 -5.3451,-2 -1.9376,0 -2.9055,1.617 -15.005,25.0698 -9.8747,19.1404 -10.5828,20.9079 -11.2163,27.9967 -0.9,10.0716 0.8478,19.8365 5.6731,31.6957 3.4404,8.4554 3.8933,10.5317 3.8933,17.8474 0,10.3065 -0.7116,11.2096 -14.5,18.402 l -10,5.2163 -35.5,0.7801 c -20.0544,0.4407 -37.0228,1.248 -39,1.8555 -6.8869,2.1161 -23.9701,4.1136 -53.56961,6.2638 l -30.06965,2.1844 -5.90323,-2.7025 c -10.15798,-4.6505 -12.40546,-8.0292 -10.37263,-15.5935 1.61438,-6.0073 4.12252,-8.5789 9.7474,-9.994 2.56727,-0.6459 8.49276,-3.1693 13.16776,-5.6075 4.675,-2.4382 13,-6.0553 18.5,-8.0379 19.83369,-7.1495 72.20936,-34.3277 81.25446,-42.1636 5.7931,-5.0187 5.9441,-5.2841 9.0494,-15.9083 9.041,-30.9324 9.1905,-31.9478 9.1934,-62.4444 l 0,-27.6399 -7,-12.6499 c -7.3295,-13.2455 -8.0078,-15.9137 -5.5444,-21.8095 1.219,-2.9175 2.4438,-3.8532 7.5376,-5.7581 3.4961,-1.3075 6.5574,-3.1629 7.2002,-4.3638 0.8136,-1.5204 0.8761,-12.9884 0.2294,-42.114 -1.3412,-60.40597 -1.5333,-55.74516 2.6596,-64.52478 1.9701,-4.125 6.8061,-11.775 10.7467,-17 3.9407,-5.225 7.1663,-10.5125 7.1679,-11.75 0,-2.31632 -1.4029,-3.02019 -2.497,-1.25 -0.8029,1.29915 -2.5,1.29173 -2.5,-0.0109 0,-0.55601 2.25,-4.60109 5,-8.98906 6.457,-10.30291 6.429,-11.25607 -0.25,-8.50646 -3.7804,1.55632 -1.4527,-1.91698 6,-8.95311 7.4191,-7.00435 7.6775,-7.39722 6.0506,-9.20143 -1.171,-1.29871 -1.409,-2.34395 -0.7653,-3.36184 1.7883,-2.82888 1.0462,-3.9775 -2.57,-3.9775 l -3.5345,0 0.6928,-5.25 c 1.1129,-8.43384 5.5442,-17.17113 10.3076,-20.32334 4.6704,-3.08883 5.1444,-4.42666 1.5714,-4.42666 -1.8222,0 -2.5,-0.5351 -2.5,-1.97357 0,-3.27406 6.3207,-15.21429 12.419,-23.46051 6.9088,-9.34207 7.9485,-13.34511 4.2263,-16.27294 l -2.5658,-2.0183 5.398,-7.89009 c 2.9689,-4.33955 8.2926,-11.26906 11.8305,-15.39891 5.0819,-5.93222 6.9322,-9.0374 8.8123,-14.78882 2.2086,-6.75662 2.865,-7.67551 9.1297,-12.78153 3.7125,-3.02584 6.75,-5.84613 6.75,-6.2673 0,-0.42117 -0.6607,-1.63928 -1.4682,-2.7069 -1.9158,-2.53293 -1.933,-6.34996 -0.032,-7.0795 2.7754,-1.06501 1.6238,-4.00207 -2.2549,-5.75113 -2.7899,-1.25806 -4.2035,-2.77761 -5.5,-5.91238 -0.9598,-2.32052 -1.7451,-5.15856 -1.7451,-6.30675 0,-1.46718 -1.1851,-2.62203 -3.9875,-3.88574 -5.0534,-2.27877 -7.2884,-6.11703 -8.92,-15.31851 -0.8273,-4.66599 -2.0973,-8.24371 -3.5087,-9.88457 l -2.2121,-2.57169 -1.3025,12.86296 c -0.7165,7.07462 -1.655,13.77268 -2.0857,14.88457 -0.7465,1.92688 -0.8183,1.93447 -1.5324,0.16196 -1.0027,-2.48878 -1.0132,-5.5812 -0.052,-15.38208 0.6981,-7.12106 0.59,-8.32538 -0.7954,-8.85699 -0.8818,-0.33839 -1.6033,-1.43782 -1.6033,-2.44317 0,-1.00535 -0.5132,-3.09471 -1.1405,-4.64301 -1.1116,-2.74398 -1.1992,-2.6275 -3.4654,4.6102 l -2.325,7.4253 2.1433,3.81352 c 3.8125,6.78349 -0.041,6.08567 -4.2811,-0.77528 -2.0209,-3.26993 -2.0363,-3.55649 -0.4487,-8.33653 2.0063,-6.04031 1.7073,-12.40511 -0.6033,-12.84242 -2.206,-0.41751 -2.8493,2.53085 -2.8656,13.13373 -0.012,7.99653 -0.2053,8.89372 -2.0137,9.36663 -1.5334,0.40101 -2.0032,1.37059 -2.0136,4.15638 -0.017,4.61078 -0.979,8.256 -2.0098,7.61887 -0.4379,-0.2706 -1.3112,-3.52803 -1.9408,-7.23875 -0.8899,-5.24505 -0.8462,-9.69329 0.1964,-19.9848 1.2143,-11.98685 1.1836,-13.64087 -0.3253,-17.5 -0.9165,-2.34407 -2.058,-4.26195 -2.5366,-4.26195 -0.4787,0 -1.1181,3.49425 -1.421,7.76499 -0.3464,4.88467 -1.0994,8.31373 -2.03,9.24433 -1.3058,1.3058 -1.4759,0.1602 -1.4493,-9.76499 0.038,-14.16215 -0.6695,-17.40831 -5.0401,-23.13236 -5.7475,-7.52727 -6.7252,-5.96234 -2.8265,4.52411 1.8681,5.02484 3.3757,10.76234 3.35,12.75 l -0.047,3.61392 -2.4283,-4.66294 c -1.9421,-3.72926 -2.8339,-4.5569 -4.4535,-4.13337 -1.2364,0.32334 -2.025,0.0424 -2.025,-0.72136 0,-2.57052 -8.9737,-20.11665 -9.9726,-19.49929 -0.6019,0.37203 -1.0274,5.1659 -1.0274,11.57598 0,9.05865 -0.2581,10.94098 -1.5,10.94098 -0.9384,0 -1.5,-0.94801 -1.5,-2.53212 0,-1.39266 -0.675,-4.14762 -1.5,-6.12212 -1.9417,-4.64724 -1.9058,-12.66674 0.096,-21.46884 0.8779,-3.85983 1.3298,-7.28427 1.0042,-7.60984 -1.5595,-1.55958 -5.7805,2.22998 -9.1047,8.17423 -4.8556,8.6826 -7.5863,8.8066 -3.9823,0.18081 0.8324,-1.99216 1.1433,-3.62212 0.6908,-3.62212 -0.4525,0 -2.8771,2.37958 -5.388,5.28795 -3.1515,3.65036 -5.7365,8.28393 -8.3473,14.96225 -3.8872,9.94341 -5.4689,11.38028 -5.4689,4.96828 0,-3.42772 -0.09,-3.53468 -1.4019,-1.6619 -0.7711,1.10088 -1.9135,3.901 -2.5386,6.22251 -0.799,2.96716 -1.6686,4.22091 -2.9277,4.22091 -1.683,0 -1.7066,-0.40783 -0.3909,-6.75 1.6957,-8.17442 2.1382,-20.56046 0.7591,-21.25 -0.55,-0.275 -1.1345,0.625 -1.299,2 -0.5354,4.4758 -1.0821,5.34356 -2.5822,4.09857 -0.8292,-0.68814 -1.5463,-4.0671 -1.8424,-8.68112 -0.3178,-4.95254 -1.0186,-8.08823 -2.0346,-9.10427 -1.9086,-1.9086 -3.7368,-0.9372 -3.7563,1.99584 -0.01,1.20504 -0.6384,3.99098 -1.4009,6.19098 -0.7625,2.2 -1.7184,7.15 -2.1241,11 -0.4945,4.69204 -1.645,8.64854 -3.4895,12 -1.5135,2.75 -3.5315,7.475 -4.4843,10.5 -3.6912,11.71812 -5.1253,8.53656 -2.3884,-5.29836 1.9356,-9.78361 1.9787,-11.01385 0.6184,-17.6251 -1.2449,-6.05048 -1.2634,-8.03442 -0.1246,-13.34194 1.8506,-8.62505 1.8386,-16.7346 -0.025,-16.7346 -0.788,0 -1.7039,0.85472 -2.0355,1.89937 -0.3315,1.04465 -2.8838,5.65715 -5.6717,10.25 -2.7879,4.59285 -7.7443,13.75063 -11.01418,20.35063 -3.26991,6.6 -6.37296,12.15 -6.89567,12.33333 -2.37342,0.83245 -0.53447,-6.6526 3.79962,-15.46555 3.29123,-6.69241 4.36611,-9.79315 3.5,-10.09656 -1.91353,-0.67033 -1.55189,-1.72253 2.34805,-6.83173 3.13028,-4.10091 3.45528,-5.02699 2.49998,-7.12364 -1.654,-3.63023 -1.3997,-4.60343 2.3469,-8.9805 3.7732,-4.4081 5.3593,-11.23469 4.1313,-17.78058 -0.7929,-4.22656 -2.2381,-4.57418 -3.644,-0.87647 -0.5601,1.47306 -3.0717,6.9567 -5.5815,12.18587 -3.49623,7.28453 -4.77126,9.13577 -5.45307,7.91745 -0.61512,-1.09916 0.34394,-4.66541 3.10623,-11.55046 2.19789,-5.47819 3.99614,-10.98053 3.99614,-12.22742 0,-4.01201 -6.47692,-2.03703 -21.20912,6.4672 -11.42143,6.59307 -14.8381,9.20312 -24.29088,18.55629 l -11,10.88408 -6.90465,1.08824 c -5.19122,0.81819 -9.21594,2.38017 -16.21852,6.29435 -8.53622,4.77142 -9.45487,5.58182 -11.00254,9.7061 -1.83273,4.88391 -6.12051,10.42887 -5.02628,6.5 2.4197,-8.68807 2.40246,-8.70157 -6.94146,-5.4353 -4.75667,1.66275 -7.2693,1.94387 -12.90655,1.44402 -6.01572,-0.5334 -7.95233,-0.26128 -13.77283,1.9353 -3.72505,1.40579 -8.67505,2.57002 -11,2.58719 -2.68193,0.0198 -5.67504,0.9206 -8.18796,2.46422 -3.5948,2.2082 -4.11844,2.29035 -5.66681,0.88909 -1.21279,-1.09756 -2.23603,-1.2718 -3.53921,-0.60267 -1.06228,0.54543 -4.35638,0.61443 -7.83319,0.16409 -3.3,-0.42745 -20.07149,-0.81515 -37.26998,-0.86156 l -31.26928,-0.0844 -9.21553,4.62832 -9.21553,4.62831 -14.764492,-0.47391 -14.76449,-0.47392 0,3.32537 c 0,1.82894 -0.74508,5.18749 -1.65573,7.46342 -1.44001,3.59896 -1.52113,5.67611 -0.62261,15.94368 0.77422,8.84706 1.52204,12.51396 2.98407,14.63217 1.25288,1.81519 2.37623,6.13288 3.13953,12.06699 0.66012,5.13203 2.72132,13.57963 4.63595,19 1.89605,5.36776 5.31368,17.85957 7.59474,27.75957 2.28106,9.9 4.96934,20.7 5.97396,24 1.00462,3.3 2.563402,12.525 3.463952,20.5 1.73184,15.33648 2.98812,22.19462 6.93076,37.83538 1.33991,5.31554 2.97143,12.81462 3.6256,16.66462 0.65418,3.85 2.26211,9.13462 3.57319,11.7436 2.95492,5.8801 6.34023,19.69465 6.34958,25.91095 0.005,3.17076 1.31468,7.79311 4.10908,14.5 2.25613,5.415 5.60534,13.44545 7.44267,17.84545 4.3623,10.44671 8.28553,24.07407 9.71641,33.75 0.63034,4.2625 1.45275,7.75 1.82758,7.75 0.37483,0 3.09838,1.9897 6.05233,4.4216 4.22127,3.4751 6.86782,4.762 12.36488,6.0121 3.84673,0.8748 9.80656,2.5683 13.24406,3.7633 l 6.25,2.1729 0,4.6335 c 0,2.54848 -0.64321,6.85278 -1.42935,9.56508 -0.9597,3.3111 -1.65894,13.1474 -2.12808,29.9362 l -0.69873,25.0048 5.01972,10.9952 c 4.92715,10.7925 5.03904,11.2541 6.06705,25.0295 0.57603,7.7189 1.76142,17.174 2.63421,21.0113 1.49564,6.5758 1.85036,7.1437 6.16872,9.8757 6.13195,3.8794 11.09749,9.4049 13.91306,15.482 1.27499,2.7519 4.09807,7.387 6.27351,10.3001 2.17545,2.9132 6.43309,9.6173 9.46142,14.8981 3.02834,5.2808 9.60739,15.4058 14.62012,22.5 8.36485,11.8383 21.78355,36.7219 23.40302,43.3986 1.06561,4.3932 2.78531,29.1411 2.16155,31.1064 -1.01254,3.1903 -3.07462,2.1149 -4.51872,-2.3564 -4.63844,-14.3619 -9.52205,-16.9316 -36.79903,-19.3634 -5.97554,-0.5327 -6.5287,-0.3981 -9.34449,2.2736 -1.64613,1.5619 -4.26546,5.3148 -5.82074,8.3398 -1.70604,3.3182 -4.02605,6.1628 -5.84852,7.1708 -1.73342,0.9587 -4.06513,3.7318 -5.47144,6.507 -1.62647,3.2097 -4.54596,6.4633 -8.68066,9.6742 -5.94598,4.6175 -6.44085,4.8082 -10.85629,4.1833 -2.54448,-0.36 -7.235,-1.368 -10.42337,-2.2399 -7.68525,-2.1017 -26.98913,-1.3278 -34.00177,1.3632 -4.39429,1.6862 -5.86946,3.2697 -17.5,18.7855 -6.98565,9.3193 -13.26369,17.1193 -13.95119,17.3334 -2.5548,0.7954 -1.16377,-5.8721 3.74873,-17.9686 2.74931,-6.7699 4.99931,-12.6464 5,-13.0589 0.003,-1.996 -3.03649,-0.062 -11.86872,7.5491 -5.296512,4.5645 -11.655012,9.8397 -14.130012,11.7227 -2.475,1.883 -8.1,6.4002 -12.5,10.0382 -8.1381,6.7287 -10.9658,8.3882 -12.58657,7.3865 -1.86846,-1.1548 2.30033,-6.2784 14.16056,-17.404 6.71773,-6.3016 17.54925,-17.8366 24.070042,-25.6334 l 11.85597,-14.1759 0,-7.1365 c 0,-5.8895 0.43683,-7.8284 2.5,-11.0967 1.375,-2.1781 2.5,-4.2443 2.5,-4.5914 0,-1.2302 -7.5653,0.828 -32.383832,8.81 -13.81389,4.4428 -27.98735,8.8989 -31.49658,9.9025 -6.36784,1.821 -6.37685,1.8206 -4.5749,-0.1705 0.99303,-1.0973 6.33921,-5.0929 11.88041,-8.8792 12.96541,-8.8592 23.09353,-17.6894 26.1301,-22.7815 1.32175,-2.2165 3.7131,-4.5726 5.31412,-5.2358 2.94648,-1.2204 21.130682,-19.0231 21.130682,-20.6873 0,-0.4964 -1.12968,-2.565 -2.5104,-4.5969 -3.01916,-4.4431 -4.36311,-7.8086 -5.46538,-13.6865 -0.75965,-4.0508 -0.54651,-4.8261 2.57377,-9.3622 3.64308,-5.2961 4.33553,-8.0669 1.88546,-7.5445 -0.83411,0.1778 -11.902082,8.8733 -24.595502,19.3233 -18.7687,15.4515 -24.84923,21.1094 -32.55784,30.2945 -8.74613,10.4213 -16.64163,17.1373 -20.20511,17.1865 -5.72531,0.079 10.1481,-23.6775 36.73658,-54.981 9.05885,-10.6653 12.07839,-15.4767 10.60623,-16.9002 -0.74017,-0.7157 -28.03178,-5.0998 -31.74701,-5.0998 -0.39644,0 -0.7208,-0.675 -0.7208,-1.5 0,-0.825 0.1125,-1.5017 0.25,-1.5038 0.1375,0 5.875,-1.1166 12.75,-2.4766 6.875,-1.3601 15.94911,-2.4834 20.16468,-2.4962 l 7.66468,-0.023 0.66147,-7.75 c 0.93011,-10.8975 2.0058,-13.7032 8.65007,-22.5615 3.222512,-4.2964 5.859102,-8.1979 5.859102,-8.6702 0,-1.3282 -11.787682,-11.5907 -18.718332,-16.2963 -5.95598,-4.0439 -7.36609,-5.9338 -5.35487,-7.1768 0.50975,-0.315 6.55623,0.8622 13.43662,2.6161 10.404412,2.6521 12.772942,2.9704 14.073202,1.8913 2.10846,-1.7499 2.00076,-3.3364 -1.32733,-19.5526 -4.09459,-19.9511 -6.054132,-24.6144 -11.926492,-28.3827 -4.52601,-2.9043 -4.86799,-3.4595 -7.90159,-12.8265 -1.74396,-5.3849 -3.88273,-12.6023 -4.75283,-16.0386 -1.45134,-5.7318 -1.44786,-6.5072 0.0421,-9.3885 2.16576,-4.1881 1.21214,-8.46098 -2.81582,-12.61678 -2.85133,-2.9418 -3.28416,-4.1628 -3.90935,-11.0275 -0.38666,-4.24567 -0.73504,-11.59551 -0.77417,-16.33297 -0.0391,-4.7375 -1.37567,-15.9874 -2.9701,-25 -1.59443,-9.01294 -3.19674,-21.11183 -3.56071,-26.88683 -1.87311,-29.72044 -10.0139,-71.35494 -17.99052,-92.00906 -1.92574,-4.98635 -4.21391,-13.17311 -5.08484,-18.19278 -0.87093,-5.01968 -2.23184,-10.38042 -3.02424,-11.91276 -0.85994,-1.66296 -1.44073,-5.66649 -1.44073,-9.93137 0,-5.54648 -0.44829,-7.77485 -2.00345,-9.95888 -1.1019,-1.54747 -1.72835,-3.53049 -1.39211,-4.40671 0.37851,-0.9864 -0.26387,-2.30183 -1.68673,-3.45399 l -2.29806,-1.86086 2.18027,-5.24633 2.18028,-5.24632 -1.9901,-2.79484 c -1.09456,-1.53716 -1.9901,-3.5544 -1.9901,-4.48274 0,-0.92835 -0.83538,-2.74992 -1.8564,-4.04794 -1.61931,-2.0586 -1.73058,-3.0904 -0.8712,-8.07845 0.81562,-4.73408 0.66812,-6.67881 -0.85692,-11.2977 -1.01316,-3.0686 -2.08363,-8.69427 -2.3788,-12.50149 l -0.53668,-6.92221 -5.16221,-1.43144 c -6.30819,-1.7492 -9.29188,-4.82346 -12.3492695,-12.72413 -1.27703,-3.3 -3.53683,-8.475 -5.02178,-11.5 -3.72520003,-7.58864 -4.48703003,-13.65919 -2.37624,-18.93458 1.31274,-3.28085 1.43541,-4.71313 0.56694,-6.61922 -1.20610003,-2.6471 -0.5707,-7.39316 2.43911,-18.21886 l 1.74139,-6.26344 10.4189295,-7.09206 c 6.06094,-4.12563 11.53242,-8.70572 13.08103,-10.94994 1.46415,-2.12183 3.45203,-4.12837 4.4175,-4.45899 0.96546,-0.33061 3.1264,-1.75474 4.80209,-3.16474 3.01433,-2.53639 3.17059,-2.556 14.70956,-1.84542 6.7062,0.41297 12.82539,1.31937 14.39825,2.13273 1.7681,0.91432 5.94256,1.41452 11.80502,1.41452 8.77339,0 9.36635,0.14902 18.15312,4.562 l 9.083492,4.562 19.64653,-6.0046 c 10.8056,-3.30253 20.94278,-6.31895 22.52708,-6.70317 1.58429,-0.38421 3.07001,-1.42254 3.3016,-2.3074 0.34491,-1.31782 2.04229,-1.62651 9.38389,-1.70658 9.65863,-0.10535 11.52912,-0.76268 8.49127,-2.98401 -1.75971,-1.28673 -1.42319,-1.41824 3.62913,-1.41824 3.72999,0 5.97972,-0.49528 6.81357,-1.5 0.68469,-0.825 0.85229,-1.53134 0.37244,-1.56965 -0.47984,-0.0383 1.26506,-0.72693 3.87756,-1.53026 4.90134,-1.50715 6.05499,-3.05112 3,-4.015 -5.73216,-1.80856 -5.88716,-2.09502 -1.75,-3.23418 2.2,-0.60577 10.74697,-4.48754 18.99326,-8.62616 8.24629,-4.13861 15.69779,-7.52475 16.55887,-7.52475 0.86109,0 2.43912,-0.70236 3.50674,-1.5608 1.78836,-1.43797 1.37054,-1.51191 -5.30887,-0.93945 -9.17646,0.78646 -9.4223,-0.61379 -0.62194,-3.54237 6.37954,-2.12297 6.76386,-2.14158 10.25,-0.4962 l 3.62194,1.70948 -3.41516,-3.55334 c -2.89211,-3.00913 -3.15895,-3.65165 -1.74228,-4.19528 0.92009,-0.35307 2.68191,0.0794 3.91516,0.96111 1.23325,0.88167 3.14228,2.25511 4.24228,3.05208 1.63531,1.18482 2.91172,1.24538 7,0.33215 l 5,-1.1169 -4.50201,-1.31332 c -4.87046,-1.42081 -9.38884,-6.12753 -4.83833,-5.04 1.28719,0.30762 4.47784,0.8677 7.09034,1.24462 4.40332,0.63529 4.75,0.52876 4.75,-1.45962 0,-2.42316 2.60511,-3.87705 4.16032,-2.32184 0.70117,0.70117 0.50968,1.81369 -0.60499,3.51489 -1.56495,2.38842 -1.5384,2.51093 0.6569,3.03109 1.25827,0.29815 5.39986,0.86161 9.20352,1.25214 l 6.91576,0.71006 16.58424,-16.9635 c 9.12134,-9.32992 20.53822,-20.01554 25.37085,-23.74583 5.41933,-4.18315 9.48717,-8.17668 10.61468,-10.42075 2.44724,-4.87076 4.42989,-11.14058 3.74078,-11.82969 -0.30649,-0.30649 -2.79476,1.05022 -5.52949,3.01493 l -4.97222,3.57218 1.04544,-2.99896 c 0.575,-1.64944 0.83897,-3.20546 0.5866,-3.45783 -0.25237,-0.25237 -2.5423,1.13198 -5.08873,3.07632 -3.55891,2.71743 -5.04089,3.31795 -6.40676,2.59609 -0.9773,-0.51649 -4.30965,-1.44789 -7.40524,-2.06976 -5.21436,-1.04751 -6.13379,-0.9305 -12.5,1.59081 -3.77941,1.49682 -7.77166,3.27401 -8.87166,3.94932 -1.1,0.67531 -4.46411,1.55186 -7.47579,1.9479 -3.01169,0.39603 -6.38669,1.28402 -7.5,1.97332 -1.11332,0.68929 -3.50109,1.52471 -5.30617,1.8565 -1.80508,0.33178 -4.28008,1.72779 -5.5,3.10225 -3.46876,3.90818 -17.81329,13.74855 -20.65223,14.16746 -10.86473,1.60319 -12.77321,1.56166 -16.62086,-0.36166 -2.16972,-1.08459 -6.86995,-2.82546 -10.44495,-3.86861 -8.37444,-2.44357 -17,-10.1337 -17,-15.15637 0,-1.7293 -0.47726,-5.36955 -1.06057,-8.08945 -1.3084,-6.10083 -0.15312,-10.3378 5.9041,-21.65317 5.78349,-10.80404 9.7866,-17.7742 10.96602,-19.09388 2.96858,-3.32159 4.13528,-7.26593 3.06086,-10.34801 -0.59847,-1.71677 -0.89207,-4.45715 -0.65246,-6.08975 0.23962,-1.6326 0.006,-2.96836 -0.51895,-2.96836 -0.55466,0 -0.68493,-1.6865 -0.31095,-4.0253 0.48095,-3.00767 0.28334,-4.16357 -0.78166,-4.57225 -1.09859,-0.42157 -1.21685,-1.2739 -0.51586,-3.7181 1.21872,-4.24943 1.16212,-4.68435 -0.60958,-4.68435 -1.88573,0 -1.1195,-4.00814 1.64751,-8.61803 1.02935,-1.71492 1.87154,-3.88384 1.87154,-4.81983 0,-1.93947 5.42324,-10.20322 7.05245,-10.74629 0.59211,-0.19737 1.33522,-2.37418 1.65135,-4.83735 0.31613,-2.46318 1.39329,-6.1112 2.39368,-8.10671 2.2643,-4.51666 10.53883,-11.94858 12.47574,-11.20532 0.9336,0.35826 1.42678,-0.12318 1.42678,-1.39281 0,-1.83504 0.87478,-2.22643 5.25,-2.34895 2.56751,-0.0719 2.13285,-1.6118 -0.65226,-2.31082 -2.94781,-0.73986 -8.29025,-8.02247 -13.46023,-18.3485 -2.13837,-4.27096 -4.61632,-9.11539 -5.50657,-10.76539 -1.66253,-3.08139 -2.05012,-7.3352 -1.01875,-11.1808 0.81886,-3.05323 3.05349,-1.89484 5.46557,2.83322 2.3526,4.61148 11.48702,13.98773 18.17845,18.65972 l 4.74379,3.31213 0,-5.24653 c 0,-2.88559 0.7649,-7.97605 1.69979,-11.31214 1.76581,-6.30123 6.80354,-14.5656 8.87877,-14.5656 0.65646,0 1.94094,-1.575 2.85442,-3.5 0.91347,-1.925 2.26299,-3.5 2.99893,-3.5 0.73594,0 2.08563,-1.14092 2.99932,-2.53539 1.46303,-2.23286 8.0605,-18.44326 9.14287,-22.46461 0.22205,-0.825 1.92162,-5.83836 3.77682,-11.14079 1.8552,-5.30244 3.35778,-10.92744 3.33906,-12.5 -0.13025,-10.94234 1.66675,-20.43884 5.09919,-26.94738 0.55454,-1.05151 2.43269,-5.28683 4.17367,-9.41183 1.74098,-4.125 3.57703,-8.26613 4.0801,-9.20251 0.50308,-0.93638 3.0105,-5.66138 5.57204,-10.5 2.56154,-4.83862 6.10641,-11.04749 7.87749,-13.79749 1.77108,-2.75 4.90988,-7.79 6.97511,-11.2 2.06524,-3.41 5.34326,-8.05557 7.28451,-10.32348 3.17084,-3.7044 3.6853,-3.9677 5.06224,-2.59076 1.33464,1.33463 1.35778,2.08717 0.17906,5.82347 -0.74451,2.35992 -1.63697,4.74077 -1.98326,5.29077 -0.55679,0.88433 -4.10816,11.52424 -7.17622,21.5 -0.59204,1.925 -2.12118,5.81969 -3.3981,8.65487 -2.95253,6.55558 -7.70385,23.28629 -9.82086,34.58196 -1.18404,6.31764 -1.51019,12.20039 -1.17788,21.24543 0.25276,6.87973 0.003,15.09816 -0.555,18.26317 -0.55801,3.16501 -1.23558,7.32957 -1.50571,9.25457 -0.27013,1.925 -1.15818,5.24123 -1.97343,7.36939 -2.79843,7.30512 -4.53429,18.8505 -3.28976,21.88061 0.62121,1.5125 1.45513,2.75 1.85316,2.75 1.10539,0 4.03367,-3.50548 4.03367,-4.82874 0,-0.64419 0.3752,-1.17126 0.83378,-1.17126 0.45858,0 2.51168,-2.43623 4.56244,-5.41384 3.48341,-5.05776 19.71109,-22.58616 20.91011,-22.58616 1.17553,0 19.05634,-17.77707 22.29867,-22.1693 1.89577,-2.56811 5.28306,-8.19311 7.5273,-12.5 5.4937,-10.54278 12.6258,-22.16819 15.8469,-25.8307 1.4512,-1.65 3.7983,-4.575 5.2159,-6.5 1.4175,-1.925 5.216,-6.27152 8.4411,-9.65893 3.2251,-3.38742 7.5763,-8.33742 9.6693,-11 2.093,-2.66259 15.7128,-17.02571 30.2663,-31.91805 14.5535,-14.89234 27.6438,-28.50484 29.0896,-30.25 2.5779,-3.1118 5.6417,-4.10962 6.8107,-2.21814 0.5504,0.8906 -5.208,13.75631 -9.2022,20.55996 -3.1271,5.32671 -10.3763,15.7321 -17.6689,25.36174 -11.2903,14.90845 -12.3963,16.39667 -15.3254,20.62342 -1.5247,2.2 -3.3502,4.60945 -4.0567,5.35433 -0.7066,0.74488 -2.1444,3.03958 -3.1953,5.09933 -1.0508,2.05975 -3.4214,5.7253 -5.2681,8.14567 -1.8467,2.42037 -3.9727,6.65067 -4.7244,9.40067 -0.7517,2.75 -2.3853,7.25 -3.6303,10 -1.245,2.75 -3.7187,8.6 -5.4971,13 -3.0307,7.49849 -7.1376,14.591 -10.2525,17.70594 -4.7276,4.72758 -13.707,19.1018 -14.6394,23.4347 -1.6558,7.69442 -5.7072,14.43647 -11.4832,19.10936 -2.88932,2.3375 -5.65273,4.25215 -6.14094,4.25478 -2.72624,0.0147 -19.38766,19.81453 -19.38766,23.03963 0,0.52557 0.6436,0.95559 1.43023,0.95559 0.78663,0 4.27413,1.2953 7.75,2.87845 3.47587,1.58314 8.83727,3.80064 11.91421,4.92776 3.07696,1.12712 8.57566,3.45788 12.21936,5.17946 3.6438,1.72158 8.3263,3.36736 10.4056,3.65729 4.5534,0.63491 17.1856,5.00224 19.2806,6.66588 0.825,0.65514 3.075,3.40414 5,6.10889 4.3133,6.06049 16.5218,18.2258 20.268,20.19627 2.1972,1.15574 2.8379,1.19099 3.1074,0.17097 0.1867,-0.70673 1.8048,-5.55997 3.5958,-10.78497 4.7104,-13.74257 5.8885,-19.87343 6.3409,-33 0.2135,-6.19555 -0.1724,-9.72 -1.4236,-13 -1.9029,-4.98883 -0.6824,-4.69296 -14.0047,-3.39501 -8.762,0.85366 -15.284,-1.29197 -21.3532,-7.02494 -2.4918,-2.35374 -4.5306,-4.78367 -4.5306,-5.39985 0,-0.61618 -1.3281,-2.10225 -2.9514,-3.30238 -3.3743,-2.49474 -4.0503,-3.85062 -4.6042,-9.23492 -0.4635,-4.50565 0.7589,-7.40493 14.606,-34.6429 3.1753,-6.24597 12.7085,-15.82356 23.3691,-23.47778 9.6648,-6.93925 18.3764,-14.01567 22.6277,-18.38038 1.951,-2.00301 5.6991,-5.21684 8.3291,-7.14184 5.3584,-3.92199 5.7094,-4.27385 12.0712,-12.10123 4.0975,-5.04146 4.5525,-6.11929 4.5525,-10.78518 0,-2.91422 0.654,-6.18213 1.4938,-7.46373 2.0436,-3.11897 2.9078,-10.5601 1.6151,-13.90718 -0.5857,-1.51653 -1.4123,-2.70074 -1.8369,-2.63158 -2.9869,0.48652 -3.2131,-0.31723 -1.1152,-3.9623 1.2917,-2.24452 3.4944,-4.34661 5.2798,-5.0387 2.6162,-1.01416 2.8444,-1.36598 1.5634,-2.41021 -0.825,-0.67249 -2.4655,-2.59829 -3.6456,-4.27955 -2.0265,-2.88722 -2.0552,-3.20568 -0.5184,-5.7386 0.895,-1.47496 2.1715,-2.68174 2.8366,-2.68174 2.5675,0 2.3442,-2.19099 -0.6026,-5.91164 -1.6885,-2.13189 -3.0538,-4.48641 -3.034,-5.23226 0.056,-2.10348 4.1149,-6.44062 7.7504,-8.28124 l 3.2864,-1.66387 -1.8737,-2.7055 c -3.8446,-5.55138 -3.2049,-7.08292 5.0509,-12.09293 4.3338,-2.62998 4.3981,-2.88785 1.8198,-7.3054 -1.9083,-3.26956 -1.908,-3.3523 0.02,-7.27746 2.4453,-4.97749 3.2134,-5.738258 6.0932,-6.035418 1.2742,-0.13147 2.6542,-0.29646 3.0667,-0.36666 0.4125,-0.0702 0.75,-1.27497 0.75,-2.67728 0,-1.40231 0.6718,-3.84881 1.4929,-5.43665 0.8211,-1.58785 1.2184,-3.60251 0.8828,-4.47703 -0.8003,-2.08564 3.8933,-6.44046 7.7792,-7.21764 2.2695,-0.4539 2.7823,-0.96527 2.2111,-2.20498 -1.2258,-2.66099 -0.6051,-8.19239 1.1353,-10.11545 0.8962,-0.9903 3.1406,-2.08404 4.9877,-2.43055 3.3916,-0.63626 9.511,-6.37207 9.511,-8.91478 0,-2.3738 5.7301,-5.65326 9.8777,-5.65326 5.51,0 7.1223,-0.82731 7.1223,-3.65474 0,-3.43501 5.0394,-7.98066 8.2679,-7.45773 2.2251,0.36043 7.8592,-3.09149 8.7135,-5.3387 1.2989,-3.41637 6.6667,-6.5405 11.2456,-6.54509 2.834,-0.003 4.1058,-0.58207 5.3085,-2.41759 2.216,-3.38199 7.9245,-5.868 12.3013,-5.35704 3.1101,0.36309 4.0883,-0.0676 6.8825,-3.03029 2.7059,-2.86907 3.752,-3.35455 6.1817,-2.86862 1.9354,0.38707 3.3337,0.0919 4.1342,-0.87264 0.6653,-0.80166 1.6521,-1.45756 2.1929,-1.45756 0.5408,0 2.3784,-1.1740001 4.0837,-2.6089001 2.907,-2.44606 3.5305,-2.56652 9.991,-1.92992 6.2043,0.61135 7.4327,0.41369 12.3351,-1.98484 5.5228,-2.70205 9.9343,-2.93919 17.6471,-0.94858 2.0395,0.52636 3.3298,0.22578 4.82,-1.12274 1.6941,-1.53319 3.7633,-1.84684 12.3584,-1.87327 8.7447,-0.0269 10.6429,0.25707 12.4118,1.85668 1.6437,1.48646 3.0096,1.76215 6.4166,1.29516 2.7147,-0.37209 5.2641,-0.10782 6.8383,0.70885 1.3804,0.71617 4.9112,1.62069 7.8462,2.01003 2.9351,0.38935 6.6622,1.39347 8.2826,2.23139 3.6538,1.88948 10.7105,4.1142001 17.0719,5.3821401 2.6569,0.52958 6.0699,1.84518 7.5843,2.92354 1.5144,1.07837 6.0166,2.83584 10.0048,3.90548 4.4266,1.18722 8.2892,2.93697 9.9157,4.4918 1.4654,1.40084 4.5371,2.96635 6.8259,3.47891 4.5466,1.01814 17.8913,8.91653 22.1591,13.11539 1.4737,1.44989 5.4919,4.78482 8.9294,7.41097 3.4375,2.62614 6.25,5.19503 6.25,5.70864 0,0.51361 1.3638,2.14894 3.0306,3.63407 1.6668,1.48513 4.5531,4.9761 6.414,7.75771 1.8609,2.78162 5.1989,6.81358 7.4177,8.95991 4.5391,4.39085 13.1045,20.64772 13.7502,26.097578 0.1303,1.1 0.9431,3.35 1.8061,5 0.863,1.65 1.5718,3.9225 1.5752,5.05 0,1.1275 0.4637,2.50749 1.0228,3.06664 0.5592,0.55915 1.4167,3.91165 1.9057,7.45 0.489,3.53835 1.5867,8.23336 2.4395,10.43336 0.8527,2.2 1.5768,5.575 1.6091,7.5 0.032,1.925 0.7394,6.38783 1.5713,9.9174 0.832,3.52957 1.4519,8.92957 1.3776,12 -0.2621,10.82654 0.1029,19.67546 0.9327,22.61242 0.5113,1.80992 0.3639,5.50931 -0.3776,9.47018 -0.6691,3.575 -1.747,10.1 -2.3953,14.5 -0.6483,4.4 -1.792,9.35 -2.5416,11 -0.7496,1.65 -1.944,4.97203 -2.6542,7.38229 -0.7102,2.41026 -1.77,4.88526 -2.3552,5.5 -0.5852,0.61474 -1.8898,3.14271 -2.899,5.61771 -1.0092,2.475 -2.2631,5.32051 -2.7865,6.32336 -2.7156,5.20312 -4.8771,9.63841 -6.7201,13.78949 -3.3358,7.51335 -26.0463,36.32622 -35.123,44.56071 -8.9055,8.07918 -14.7546,10.78701 -25.6118,11.85684 -6.9023,0.68014 -7.0421,0.64677 -8.8504,-2.11299 l -1.8372,-2.80405 3.3997,-2.91514 c 1.8698,-1.60333 5.7498,-4.44727 8.6223,-6.31986 9.3435,-6.09126 26.166,-24.78657 28.4965,-31.669 0.5978,-1.76515 1.8227,-4.33436 2.7221,-5.70936 6.3435,-9.69753 17.0268,-38.02427 17.7259,-47 0.2356,-3.025 0.8544,-7.075 1.3751,-9 1.4555,-5.38138 1.1312,-24.62779 -0.556,-33 -0.8314,-4.125 -1.9183,-9.75 -2.4154,-12.5 -1.2378,-6.8473 -4.2548,-15.9715 -7.1875,-21.73643 -0.4858,-0.95504 -0.8973,-2.53004 -0.9145,-3.5 -0.017,-0.96996 -1.1399,-3.56357 -2.4949,-5.76357 -1.355,-2.2 -2.466,-4.61255 -2.4688,-5.36122 0,-0.74867 -1.9176,-3.64514 -4.2551,-6.43659 -2.3375,-2.79146 -4.7,-5.96837 -5.25,-7.05981 -0.55,-1.09144 -1.5293,-2.15892 -2.1762,-2.37216 -0.7523,-0.24797 -0.4836,1.43523 0.7455,4.67 3.0177,7.942 4.5474,15.71542 5.6202,28.55978 0.2756,3.3 0.9301,6.52244 1.4544,7.16097 0.6049,0.73673 0.6023,1.37786 -0.01,1.75451 -0.5547,0.34281 -0.8983,6.82242 -0.8133,15.33903 0.1304,13.08194 -0.09,15.25317 -1.9567,19.24549 -1.157,2.475 -2.4021,6.46853 -2.7669,8.87451 -0.3649,2.40598 -1.5065,6.23098 -2.537,8.5 -1.0305,2.26902 -2.1233,5.47549 -2.4283,7.12549 -1.2674,6.85509 -2.5461,10.59773 -5.8496,17.12062 -7.9558,15.70934 -9.9148,19.24221 -11.3138,20.40329 -0.8091,0.67154 -1.4712,1.76713 -1.4712,2.43465 0,0.66752 -2.25,4.01722 -5,7.44379 -2.75,3.42656 -5,6.69935 -5,7.27287 0,2.55067 -26.3128,25.82478 -29.1968,25.82478 -0.5388,0 -1.7268,0.83452 -2.64,1.85449 -4.4174,4.93408 -25.0322,8.41467 -28.0809,4.74116 -2.4886,-2.99859 1.7074,-8.59565 6.4439,-8.59565 0.6186,0 3.3399,-1.575 6.0475,-3.5 2.7075,-1.925 5.6889,-3.5 6.6253,-3.5 0.9364,0 4.0864,-2.25 7,-5 2.9137,-2.75 5.8409,-5 6.5049,-5 1.4126,0 8.299,-8.71806 8.299,-10.5063 0,-0.67028 1.3252,-2.88629 2.945,-4.92446 1.6197,-2.03818 3.4712,-5.36256 4.1143,-7.38751 0.6432,-2.02495 2.468,-5.74613 4.0551,-8.26928 1.5871,-2.52315 2.8856,-5.18067 2.8856,-5.90561 0,-0.72493 1.0704,-2.72144 2.3787,-4.43668 4.5087,-5.91127 8.8083,-22.72081 8.6382,-33.77149 -0.084,-5.43456 0.3738,-8.65346 1.5542,-10.93619 1.248,-2.41328 1.545,-4.82732 1.1695,-9.5049 -0.3145,-3.91827 -0.1105,-6.40093 0.5438,-6.61904 0.7207,-0.24023 0.6988,-1.34795 -0.07,-3.55382 -0.6145,-1.76263 -1.3969,-6.01278 -1.7388,-9.44476 -1.1538,-11.58369 -11.5909,-40.31012 -16.6438,-45.80931 -1.2824,-1.39571 -3.0066,-3.85559 -3.8316,-5.4664 -2.05,-4.00256 -25.4633,-27.005538 -32.6604,-32.088108 -7.9096,-5.58562 -13.9029,-8.49901 -17.6863,-8.59743 -1.7343,-0.0451 -4.095,-0.69408 -5.2458,-1.44215 -1.1509,-0.74808 -3.6259,-1.36451 -5.5,-1.36986 -1.8742,-0.005 -5.332,-0.16245 -7.684,-0.3491 -2.3521,-0.18665 -5.9521,-0.007 -8,0.39895 -6.9528,1.37863 -13.7139,3.19475 -16.7236,4.49216 -1.65,0.71128 -5.025,2.04692 -7.5,2.96807 -5.0564,1.88191 -13.2307,6.74003 -17,10.10331 -1.375,1.2269 -7,4.79186 -12.5,7.92212 -5.5,3.13027 -10.825,6.77284 -11.8334,8.09459 -1.0083,1.32176 -2.4394,2.4032 -3.1801,2.4032 -0.7407,0 -2.2182,2.3625 -3.2834,5.249998 -1.5823,4.28894 -2.7287,5.69504 -6.2625,7.68115 -5.4544,3.06549 -17.8937,15.94617 -20.1403,20.85498 -0.9349,2.04263 -1.4503,4.71959 -1.1454,5.94881 0.3827,1.54263 -0.49,3.71098 -2.8171,7 -3.653,5.16285 -5.2043,8.30643 -7.5332,15.26506 -0.8283,2.475 -2.4375,5.51073 -3.5759,6.74606 -1.1384,1.23533 -1.7839,2.532 -1.4344,2.88148 0.3494,0.34948 0.2192,1.41299 -0.2894,2.36336 -0.5086,0.95036 -0.663,3.3407 -0.3431,5.31186 0.5704,3.51541 0.627,3.55414 2.9599,2.02558 1.3081,-0.8571 2.3783,-2.10316 2.3783,-2.76904 0,-0.66587 1.186,-2.30161 2.6356,-3.63499 1.4495,-1.33337 3.8891,-4.13038 5.4212,-6.21559 2.8427,-3.86907 11.9837,-11.70872 13.6523,-11.70872 1.6959,0 5.3994,10.71172 5.4111,15.65063 0.01,2.66715 -0.4866,8.22437 -1.0954,12.34937 -0.6087,4.125 -1.287,8.85 -1.5074,10.5 -1.1122,8.32815 -3.6547,17.10888 -5.9647,20.59964 l -2.5809,3.90036 2.7545,4.25 c 1.515,2.3375 3.2735,4.58306 3.9078,4.99013 0.6343,0.40707 3.0437,2.31957 5.3543,4.25 2.444,2.0419 5.2917,3.50987 6.8088,3.50987 1.5213,0 3.8775,1.21855 5.6554,2.92476 3.2234,3.09352 13.1351,5.81287 13.8097,3.78884 0.2097,-0.62908 1.1888,-0.54264 2.6379,0.2329 1.2675,0.67831 3.2068,0.99734 4.3096,0.70895 2.4321,-0.63602 7.1239,0.99594 6.37,2.21571 -0.2974,0.4812 2.1809,1.18283 5.5074,1.55917 3.3264,0.37634 6.6927,0.93162 7.4805,1.23395 2.3902,0.91719 1.6053,2.33314 -1.3175,2.37679 -2.1906,0.0327 -1.5296,0.55922 3.25,2.58853 7.4386,3.15826 9.6615,5.03375 7.529,6.35219 -0.8091,0.50021 -1.2591,1.04643 -1,1.21384 0.259,0.1674 3.171,1.70352 6.471,3.4136 3.9451,2.04435 5.9505,3.68265 5.8555,4.78351 -0.085,0.98756 1.3504,2.47161 3.5,3.61825 6.3724,3.399 7.8528,5.5632 10.1488,14.83566 0.4558,1.84066 1.7136,4.31566 2.7952,5.5 3.3645,3.68409 5.2005,8.36442 5.2005,13.25707 0,4.27433 0.4574,5.18669 5.0181,10.0089 2.7599,2.91822 5.8484,7.24308 6.8633,9.61079 1.015,2.3677 2.5123,4.85845 3.3275,5.535 0.8152,0.67655 2.295,3.03267 3.2885,5.23584 1.1015,2.44268 2.4839,4.00575 3.5426,4.00575 3.3275,0 19.5271,5.14954 28.96,9.20578 5.225,2.24681 11.4819,4.46903 13.9042,4.93827 2.4223,0.46923 9.3973,3.62173 15.5,7.00553 9.1881,5.09462 13.073,8.06372 22.5958,17.26942 6.325,6.11437 15.1,13.86335 19.5,17.21997 10.4096,7.94112 18.9328,15.57816 29.8483,26.74503 7.0007,7.16193 8.9476,9.78951 9.3244,12.58401 0.7608,5.64191 3.409,11.03199 5.4202,11.03199 0.984,0 2.0656,0.44744 2.4036,0.99432 0.338,0.54688 5.1271,4.21613 10.6425,8.15389 7.5246,5.37223 13.7524,11.19257 24.9468,23.31451 16.4931,17.85965 19.9142,22.09483 19.9142,24.65269 0,0.94977 2.25,5.62284 5,10.38459 l 5,8.65773 0,10.79283 0,10.79283 -5.1364,7.86814 c -2.825,4.32748 -5.9206,10.12271 -6.8791,12.8783 -0.9584,2.7556 -3.8773,9.8636 -6.4863,15.79557 -4.6565,10.58746 -4.9444,10.97286 -15.6837,21 -11.9878,11.19288 -25.4434,20.05802 -32.7518,21.57839 -2.5095,0.52204 -7.0871,1.46006 -10.1725,2.08448 -3.3081,0.66951 -7.3396,2.40737 -9.8256,4.23559 l -4.2157,3.10027 4.9141,5.10793 c 10.9231,11.35398 15.2246,18.32374 17.1918,27.85602 0.6524,3.16145 4.3045,12.50522 8.1157,20.76394 l 6.9295,15.01584 0,30.52591 c 0,29.20961 0.092,30.70662 2.1381,34.71689 3.7681,7.38615 6.8342,17.838 7.9671,27.1584 0.7028,5.78219 2.0929,11.25563 3.8343,15.0967 2.3325,5.14524 2.8324,7.90903 3.4207,18.91381 0.3789,7.08843 1.8182,19.00184 3.1983,26.47424 2.8082,15.20485 4.1503,28.08619 2.9261,28.08619 -0.4448,0 -3.2079,-0.75624 -6.1401,-1.68053 -5.1729,-1.63061 -5.3983,-1.62056 -7.5879,0.33823 -3.5478,3.17384 -8.7103,5.92562 -15.7566,8.39872 -7.7107,2.70629 -9,3.57529 -9,6.06602 0,2.8126 -1.5015,2.33436 -8.6208,-2.7459 l -6.4792,-4.62346 -6.7763,2.13863 c -3.7269,1.17625 -8.2315,3.2123 -10.0102,4.52457 -3.1427,2.31863 -3.1778,2.42528 -1.2424,3.78084 1.6158,1.13181 2.1245,3.03498 2.697,10.08999 0.4346,5.35615 1.229,9.1295 2.0687,9.82642 0.9361,0.77688 1.3632,3.55652 1.3632,8.87141 0,7.0945 0.2502,8.0549 3,11.51506 1.65,2.07626 3,4.80144 3,6.05597 0,1.90766 1.0229,2.62415 6.25,4.37783 3.4375,1.15327 6.925,2.57631 7.75,3.1623 1.514,1.07542 -0.4051,0.93986 -10.25,-0.724 -2.3011,-0.38891 -3.75,-0.23881 -3.75,0.38848 0,1.20605 7.1696,4.23942 10.0202,4.23942 1.0889,0 1.9798,0.51507 1.9798,1.1446 0,0.80554 -1.9455,0.96294 -6.5673,0.53135 -5.8532,-0.54658 -6.5328,-0.42638 -6.25,1.10539 0.2972,1.60959 6.4836,5.26272 13.3173,7.86396 2.8386,1.0805 2.6906,1.14766 -2.75,1.24832 -5.7165,0.10576 -6.739,0.71737 -4.6657,2.79072 0.5964,0.59639 1.3339,3.83639 1.6389,7.2 l 0.5546,6.11566 10.1111,0.015 c 6.8976,0.01 9.6344,0.3234 8.6111,0.9847 -0.825,0.5332 -4.2,0.9832 -7.5,1 -6.9161,0.035 -9.7917,1.1778 -6.9571,2.7641 1.6517,0.9243 1.6237,1.0482 -0.38,1.6842 -2.4632,0.7818 -2.923,2.5517 -0.6629,2.5517 1.0394,0 1.5,1.0447 1.5,3.4022 0,2.928 0.453,3.5677 3.25,4.59008 3.1838,1.1637 3.2041,1.2095 1,2.2506 -2.7637,1.3054 -2.7716,1.8241 -0.1465,9.5975 1.8611,5.511 2.3508,6.158 4.25,5.6148 6.2159,-1.7777 6.2285,-1.7668 2.5052,2.1825 -4.4842,4.7564 -5.3367,7.384 -3.8535,11.878 1.4183,4.2974 3.0769,4.3794 8.1009,0.4003 6.3436,-5.0242 4.4342,-1.7484 -2.6061,4.471 -3.575,3.1582 -6.5,6.1631 -6.5,6.6776 0,1.4728 5.4116,1.0914 7.5589,-0.5328 1.0676,-0.8075 2.5036,-1.4825 3.1911,-1.5 2.6706,-0.068 1.0296,2.1878 -3.7557,5.1625 -3.8838,2.4143 -5.2645,3.9754 -6.1602,6.9652 -2.0896,6.9745 1.193,6.389 7.0307,-1.2541 3.3696,-4.4117 6.1352,-6.1332 6.1352,-3.8189 0,0.6782 -3.375,7.6579 -7.5,15.5103 -4.125,7.8524 -7.5,14.7458 -7.5,15.3187 0,0.6957 0.8317,0.6627 2.5042,-0.099 1.3774,-0.6275 2.7996,-0.8456 3.1606,-0.4847 0.8808,0.8809 -2.6238,4.6686 -4.3198,4.6686 -0.7397,0 -2.3106,0.9656 -3.4907,2.1457 l -2.1457,2.1457 2.8555,1.4962 2.8556,1.4962 -5.7098,5.3147 c -3.1405,2.9231 -5.7099,5.7296 -5.7099,6.2368 0,0.5071 1.4625,1.4868 3.25,2.177 7.0215,2.7112 17.4926,9.2819 19.0835,11.975 2.9999,5.0785 2.1693,8.3055 -4.8335,18.7774 -3.575,5.346 -6.5,10.6662 -6.5,11.8227 0,4.3319 -8.7085,8.7146 -19.812,9.9708 -3.3846,0.383 -6.8323,1.2015 -7.6618,1.819 -1.1196,0.8336 -1.6781,4.1439 -2.1684,12.8534 -0.5552,9.8614 -0.9348,11.8177 -2.3821,12.2771 -1.1924,0.3785 -1.8845,1.9905 -2.2511,5.2436 -0.4414,3.9159 -0.1991,4.9285 1.4572,6.0886 1.4275,0.9998 1.6815,1.6968 0.9025,2.4758 -0.5964,0.5964 -1.0843,3.7373 -1.0843,6.9799 0,4.3771 -0.5382,6.6516 -2.0897,8.8303 -3.234,4.5418 -1.9077,10.9012 4.6242,22.1712 4.2297,7.2979 5.6579,10.9335 6.8997,17.5634 2.4075,12.8545 2.269,13.671 -3.2222,18.9962 -2.6334,2.5538 -8.8838,9.4081 -13.8897,15.2318 -11.1301,12.9484 -24.5179,24.4805 -33.839,29.1488 -20.3801,10.207 -36.8127,14.1657 -65.4833,15.7753 -7.425,0.4168 -19.8,1.9804 -27.5,3.4746 -17.0241,3.3035 -20.7492,3.6555 -26.3465,2.4895 z m 197.5419,-273.4641 c 0.9147,-1.9181 1.3556,-3.7949 0.9799,-4.1707 -1.0308,-1.0308 -5.6753,3.7423 -5.6753,5.8324 0,3.0704 2.934,2.032 4.6954,-1.6617 z M 496.55299,690.71992 c 0.016,-2.28865 -1.3858,-3.02805 -2.4563,-1.29599 -0.3243,0.52471 -0.2913,2.14247 0.073,3.59502 0.4885,1.94642 0.8871,2.28727 1.5153,1.29599 0.4688,-0.73976 0.8593,-2.35752 0.8677,-3.59502 z m -91.5104,-37.20034 c 0.8391,-1.62269 1.5257,-3.74781 1.5257,-4.72251 0,-1.59311 -0.1309,-1.57287 -1.2954,0.20034 -2.2414,3.41302 -3.713,7.47251 -2.7088,7.47251 0.524,0 1.6394,-1.32765 2.4785,-2.95034 z m 42.1806,-4.50653 c -0.3257,-0.84872 -1.0721,-1.54313 -1.6587,-1.54313 -0.7396,0 -0.7243,0.63946 0.05,2.08565 1.2413,2.31939 2.5394,1.88174 1.6091,-0.54252 z m -54.7184,-20.11067 c -3.1239,-3.32535 -3.6631,-2.26168 -0.8536,1.68397 1.3537,1.90107 2.472,2.71879 2.7163,1.98609 0.2283,-0.68501 -0.6099,-2.33654 -1.8627,-3.67006 z m -27.1087,-6.77692 c 0.3004,-1.55997 0.051,-1.66095 -1.7385,-0.70333 -2.5293,1.35362 -2.7712,3.32576 -0.3508,2.85963 0.9562,-0.18414 1.8964,-1.15448 2.0893,-2.1563 z m 10.1404,-10.52798 c -0.031,-2.52625 -0.088,-2.55272 -1.5,-0.68643 -0.8075,1.06762 -1.4682,2.81022 -1.4682,3.87244 0,1.60335 0.2547,1.71991 1.5,0.68643 0.825,-0.68469 1.4857,-2.42729 1.4682,-3.87244 z m 399.8059,-57.4106 c 5.0115,-3.13651 7.6651,-5.86759 13.1867,-13.57182 3.8019,-5.30483 6.5329,-9.78118 6.069,-9.94745 -0.464,-0.16627 -2.4544,0.37072 -4.4231,1.1933 -1.9688,0.82259 -7.1179,2.01298 -11.4425,2.64533 -6.5146,0.95256 -9.6119,0.87164 -18.0628,-0.4719 -5.6099,-0.89189 -10.5778,-1.388 -11.0398,-1.10247 -0.462,0.28554 -1.1305,1.67641 -1.4855,3.09083 -0.563,2.2432 0.2953,3.45018 6.7192,9.44947 4.0506,3.78278 8.4391,8.44581 9.7523,10.36229 1.3132,1.91648 2.8522,3.21329 3.42,2.8818 0.5678,-0.33149 3.8557,-2.36971 7.3065,-4.52938 z M 208.56829,442.4109 c 0,-0.58246 -0.45,-0.7809 -1,-0.44098 -0.55,0.33992 -1,0.81648 -1,1.05902 0,0.24254 0.45,0.44098 1,0.44098 0.55,0 1,-0.47656 1,-1.05902 z m 273.7517,-42.79597 c 3.8589,-2.2537 7.2619,-4.73801 7.5622,-5.52067 0.3004,-0.78266 2.2651,-1.97331 4.3661,-2.64589 2.101,-0.67257 6.1378,-2.94868 8.9706,-5.05801 4.6763,-3.482 5.2033,-4.27647 5.7232,-8.6278 0.3149,-2.63595 0.8615,-7.01329 1.2147,-9.72741 0.3774,-2.89978 0.1132,-7.14006 -0.6406,-10.28249 -0.978,-4.07666 -1.0054,-5.62522 -0.1154,-6.51523 1.8556,-1.85563 1.3601,-3.4332 -1.0513,-3.34691 -1.4803,0.053 -2.3253,-0.58623 -2.5389,-1.9206 -0.9298,-5.80863 -1.2208,-6.31837 -3.2972,-5.77539 -1.5294,0.39995 -2.2113,-0.0267 -2.6356,-1.64909 -0.3148,-1.20375 -1.0757,-2.00373 -1.6909,-1.77773 -0.6152,0.22599 -3.5936,1.22337 -6.6186,2.2164 -10.2891,3.37764 -13.4651,7.24687 -14.5355,17.70786 -0.3427,3.34977 -1.2397,7.03267 -1.9933,8.18422 -0.7536,1.15155 -1.6793,4.11873 -2.0572,6.59373 -0.3779,2.475 -1.0754,4.99585 -1.55,5.60189 -0.4747,0.60604 -1.9398,3.98104 -3.2558,7.5 -4.1706,11.15227 -6.0375,14.69537 -8.5448,16.21672 l -2.441,1.48112 3.1783,1.93284 c 2.8757,1.74885 3.7378,1.81753 9.0566,0.72147 3.2613,-0.67209 9.0018,-3.0356 12.8944,-5.30903 z m 146.2483,-151.14501 c 0,-0.55 -0.45,-1 -1,-1 -0.55,0 -1,0.45 -1,1 0,0.55 0.45,1 1,1 0.55,0 1,-0.45 1,-1 z"
     id="path2987"
     inkscape:connector-curvature="0" />
</svg>
