<?xml version="1.0" encoding="UTF-8" standalone="no"?>
<!-- Created with Inkscape (http://www.inkscape.org/) -->

<svg
   xmlns:dc="http://purl.org/dc/elements/1.1/"
   xmlns:cc="http://creativecommons.org/ns#"
   xmlns:rdf="http://www.w3.org/1999/02/22-rdf-syntax-ns#"
   xmlns:svg="http://www.w3.org/2000/svg"
   xmlns="http://www.w3.org/2000/svg"
   xmlns:sodipodi="http://sodipodi.sourceforge.net/DTD/sodipodi-0.dtd"
   xmlns:inkscape="http://www.inkscape.org/namespaces/inkscape"
   id="svg2"
   version="1.1"
   inkscape:version="0.48.2 r9819"
   width="694.54266"
   height="344.49289"
   sodipodi:docname="HeadFly.png">
  <metadata
     id="metadata8">
    <rdf:RDF>
      <cc:Work
         rdf:about="">
        <dc:format>image/svg+xml</dc:format>
        <dc:type
           rdf:resource="http://purl.org/dc/dcmitype/StillImage" />
        <dc:title></dc:title>
      </cc:Work>
    </rdf:RDF>
  </metadata>
  <defs
     id="defs6" />
  <sodipodi:namedview
     pagecolor="#ffffff"
     bordercolor="#666666"
     borderopacity="1"
     objecttolerance="10"
     gridtolerance="10"
     guidetolerance="10"
     inkscape:pageopacity="0"
     inkscape:pageshadow="2"
     inkscape:window-width="1920"
     inkscape:window-height="1176"
     id="namedview4"
     showgrid="false"
     fit-margin-top="0"
     fit-margin-left="0"
     fit-margin-right="0"
     fit-margin-bottom="0"
     inkscape:zoom="1"
     inkscape:cx="349.54269"
     inkscape:cy="172.26969"
     inkscape:window-x="0"
     inkscape:window-y="24"
     inkscape:window-maximized="1"
     inkscape:current-layer="svg2" />
  <path
     style="fill:#000000"
     d="m 126.65002,341.92376 c -0.75623,-1.41302 -1.12467,-3.52623 -0.81877,-4.69601 0.80629,-3.08327 -2.24056,-3.96248 -4.08824,-1.17972 -1.73414,2.61176 -4.21713,2.86568 -4.15772,0.42518 0.0234,-0.9625 2.23891,-3.44315 4.9233,-5.51256 3.19225,-2.46091 5.10628,-4.78959 5.53276,-6.73134 0.37957,-1.72817 2.50106,-4.59635 5.0767,-6.86352 2.50747,-2.20717 4.42464,-4.77649 4.42464,-5.92976 0,-2.35594 5.32638,-7.21282 7.91006,-7.21282 2.54054,0 3.16273,-0.99547 1.99082,-3.1852 -0.85674,-1.60085 -0.33574,-2.61524 3.11623,-6.0672 2.27973,-2.27973 4.97422,-5.74306 5.98775,-7.69628 1.01353,-1.95323 3.4339,-5.16729 5.37861,-7.14236 3.43362,-3.48723 3.56897,-3.92084 4.68227,-15 0.63054,-6.27493 1.71465,-12.98396 2.40913,-14.90896 0.69449,-1.925 1.82709,-5.3 2.5169,-7.5 0.6898,-2.2 1.9439,-4.78784 2.78689,-5.75076 1.00161,-1.14413 1.66414,-4.422 1.91203,-9.45995 0.2193,-4.45679 0.94074,-8.35892 1.71002,-9.24924 0.73187,-0.84703 1.62468,-2.77755 1.98403,-4.29005 0.35935,-1.5125 1.09479,-2.75 1.63431,-2.75 0.55267,0 0.98095,-3.22268 0.98095,-7.38131 0,-7.26063 0.0572,-7.42496 3.5,-10.05089 3.0104,-2.29615 3.50307,-3.25698 3.52196,-6.86869 0.0331,-6.32292 3.09209,-11.9895 8.83518,-16.36643 2.76593,-2.10797 5.05459,-4.1201 5.08591,-4.47139 0.0313,-0.35129 -1.51805,-0.93418 -3.44305,-1.29531 -2.8148,-0.52806 -3.5,-1.11433 -3.5,-2.99466 0,-1.49705 -0.7194,-2.52619 -2,-2.86107 -1.30887,-0.34228 -2,-1.36401 -2,-2.95672 0,-2.09952 -1.30453,-1.16267 -9.5,6.82241 -5.225,5.09086 -9.5,10.00409 -9.5,10.91828 0,0.91419 -1.79009,3.33139 -3.97797,5.37157 -2.18789,2.04017 -4.48286,5.15769 -5.09993,6.92783 -0.71675,2.05607 -1.98876,3.43599 -3.52203,3.82082 -1.82233,0.45737 -2.40007,1.27996 -2.40007,3.41724 0,3.10761 -4.00166,8.51668 -7.00615,9.47027 -2.39591,0.76043 -5.99385,-1.07651 -5.99385,-3.06019 0,-1.2771 -0.35413,-1.25583 -2.5,0.1502 -1.44737,0.94835 -2.5,2.59071 -2.5,3.90061 0,2.78937 -0.87675,3.46881 -8.81591,6.83193 -7.13141,3.02095 -11.18409,3.4469 -11.18409,1.1755 0,-0.825 0.8449,-1.5 1.87756,-1.5 4.20961,0 4.71135,-4.24674 0.62244,-5.26832 -1.21768,-0.30422 -0.59925,-0.54505 1.58102,-0.61568 2.8358,-0.0919 3.87598,-0.68828 4.99841,-2.866 0.77956,-1.5125 1.84251,-3.05527 2.36212,-3.42839 0.57955,-0.41615 0.48353,-1.69063 -0.24841,-3.29705 -2.14557,-4.70902 -1.48827,-7.04803 2.81954,-10.03335 2.20697,-1.52943 6.30812,-5.87717 9.11367,-9.66165 2.80555,-3.78448 5.94985,-7.33516 6.98733,-7.8904 1.03747,-0.55524 1.88632,-1.71623 1.88632,-2.57999 0,-0.86375 1.16876,-2.95945 2.59725,-4.65712 2.45259,-2.91473 2.49764,-3.15949 0.80887,-4.39435 -2.21247,-1.6178 -5.40612,-1.70765 -5.40612,-0.15209 0,0.63558 -1.125,2.63056 -2.5,4.43328 -1.375,1.80272 -2.5,3.71584 -2.5,4.25138 0,0.53554 -2.8125,4.28605 -6.25,8.33447 -3.4375,4.04841 -7.94371,9.67151 -10.0138,12.49578 -2.71306,3.70149 -4.27249,5.002 -5.58598,4.65851 -1.40476,-0.36735 -2.20337,0.52162 -3.4862,3.88066 -0.91521,2.39645 -1.66402,4.84394 -1.66402,5.43888 0,0.59494 -0.83594,2.1549 -1.85764,3.46657 -1.02171,1.31167 -2.47687,4.18486 -3.23369,6.38486 -0.75682,2.2 -2.14335,5.125 -3.08116,6.5 -0.93782,1.375 -2.22168,4.525 -2.85301,7 -1.3505,5.29425 -5.11441,9.65218 -9.090851,10.52556 -1.5594,0.3425 -5.20866,1.93121 -8.10946,3.53047 -3.18008,1.75322 -6.78284,2.91493 -9.07385,2.92585 -4.1484,0.0198 -8.89572,2.05815 -12.52175,5.37649 -1.58618,1.45159 -3.80318,2.17946 -7,2.2982 -5.68049,0.21099 -15.2439,3.65312 -17.70488,6.37248 -1.68081,1.85728 -1.91804,1.87881 -3.63006,0.32946 -1.7094,-1.54699 -2.26853,-1.51821 -8.37293,0.43096 -6.22564,1.98787 -6.75432,2.00965 -10.95838,0.45152 -4.157,-1.54069 -4.53327,-1.53203 -6.3887,0.14711 -1.89829,1.71794 -2.08333,1.70158 -4.9804598,-0.44036 -2.21759,-1.63954 -3.80536,-2.0653 -6.03728,-1.61892 -3.97157996,0.79432 -4.74118,-0.69666 -2.11033,-4.08848 3.60597,-4.64898 6.27521,-5.20212 13.8501198,-2.87012 9.90358,3.0489 15.95836,2.68405 27.16462,-1.63689 5.21933,-2.01248 12.02947,-4.05016 15.13365,-4.52818 3.97741,-0.61248 6.84338,-1.81908 9.70594,-4.08627 2.88832,-2.28759 6.71856,-3.88869 13.25615,-5.54129 9.39082,-2.37385 12.81959,-4.72534 12.87171,-8.82759 0.01223,-0.9625 0.47224,-1.75 1.02224,-1.75 0.55,0 1,-1.10285 1,-2.45078 0,-1.34793 0.4932,-4.75049 1.096,-7.56125 0.87054,-4.05921 1.62466,-5.31147 3.665961,-6.08757 3.54188,-1.34662 6.57329,-4.96515 5.25987,-6.27857 -1.577,-1.577 -1.21882,-4.10168 0.97817,-6.8947 2.09075,-2.65795 2.71697,-5.28828 1.0075,-4.23176 -3.54727,2.19233 7.7307,-12.24585 19.4925,-24.95451 18.4374,-19.92167 16.84981,-17.57734 15.38244,-22.71453 -0.67966,-2.37948 -1.18856,-4.56694 -1.13087,-4.86101 0.0577,-0.29408 -2.85718,-1.597 -6.47749,-2.89538 -4.81672,-1.72747 -7.94929,-3.71253 -11.67823,-7.40033 -2.80272,-2.77179 -7.09348,-6.74057 -9.53504,-8.81951 -4.25009,-3.61888 -4.67605,-3.75645 -10,-3.22975 -3.716671,0.36769 -7.550591,-0.0128 -11.560811,-1.14746 -3.3,-0.93367 -7.18582,-1.91552 -8.63516,-2.18188 -3.70961,-0.68176 -6.86484,1.26895 -6.86484,4.24417 0,1.35565 -0.36,2.46482 -0.8,2.46482 -1.40258,0 -3.2,-2.33936 -3.2,-4.16482 0,-0.97065 -0.88111,-2.23637 -1.95801,-2.81271 -1.57202,-0.84132 -2.16272,-0.66539 -2.99642,0.89238 -1.17258,2.19099 -0.55888,4.47284 2.15333,8.00647 1.176,1.53217 1.50901,2.77077 0.90682,3.37295 -1.5812,1.58121 -6.72915,-2.89587 -8.54335,-7.43 -1.96039,-4.89948 -3.43909,-4.20229 -4.27296,2.01465 -0.66613,4.96639 -2.85879,5.47107 -3.78461,0.87108 -1.56599,-7.78074 -2.88038,-8.83967 -4.65465,-3.75 -1.63775,4.69807 -3.85015,3.83778 -3.85015,-1.49712 0,-3.76798 0.59021,-5.15041 3.64024,-8.52643 2.00213,-2.21612 3.43905,-4.23049 3.19315,-4.47639 -0.24589,-0.2459 -2.08513,0.666 -4.08718,2.02643 -3.99099,2.71194 -4.74621,2.95285 -4.74621,1.51398 0,-1.88503 5.61578,-6.188276 12.63091,-9.678785 4.10157,-2.040813 7.68086,-4.575718 8.42547,-5.967031 1.16203,-2.171278 1.02066,-2.7048 -1.38091,-5.211502 -1.47151,-1.535924 -2.67547,-3.099427 -2.67547,-3.474451 0,-0.375023 1.575,-1.339938 3.5,-2.144254 3.80962,-1.591763 4.29098,-2.663098 2.03704,-4.53371 -1.28036,-1.062598 -1.26559,-1.515388 0.11829,-3.627451 2.49976,-3.815129 0.4687,-5.374791 -6.11449,-4.695345 -6.81162,0.703021 -12.2752,-0.318068 -13.38207,-2.500974 -0.48183,-0.950237 -0.48782,-3.096529 -0.0135,-4.84142 1.08915,-4.006742 11.1247,-10.269323 22.80847,-14.233392 6.71265,-2.277468 7.91961,-2.992378 6.72531,-3.983561 -0.93859,-0.778961 -2.91581,-0.974462 -5.56729,-0.550475 -3.21279,0.513746 -4.11176,0.34339 -4.11176,-0.779181 0,-2.856222 2.62662,-4.886745 9.36296,-7.238099 4.08085,-1.42444 8.33735,-3.779616 10.5,-5.809789 7.27115,-6.82573 17.661641,-11.3138573 28.221721,-12.1902483 10.89377,-0.904084 16.76927,-4.635214 9.45884,-6.006661 -4.19886,-0.78771 -4.70707,-2.51931599 -0.79352,-2.70371699 8.70666,-0.410244 19.43661,0.561152 24.92568,2.25655399 9.28761,2.86865 36.20206,16.1873703 40.93636,20.2575153 5.48337,4.714131 7.05025,8.544229 5.48909,13.417559 -1.02084,3.186645 -0.89335,4.458415 0.92205,9.197948 1.15867,3.025 3.22764,8.875 4.59769,13 1.37006,4.125 3.29334,8.315 4.27396,9.311111 1.71844,1.745581 1.9118,1.682262 5.34406,-1.75 1.95861,-1.958611 4.61861,-3.62406 5.91111,-3.700998 1.2925,-0.07694 3.925,-0.240091 5.85,-0.362563 1.925,-0.122472 5.65323,-0.959524 8.28495,-1.860114 5.43911,-1.861294 19.16408,-2.195936 24.88571,-0.606762 2.71734,0.754738 5.57417,0.637367 11,-0.451928 12.57299,-2.524169 24.42571,-2.945652 32.82934,-1.167412 4.125,0.872866 10.3166,1.587398 13.7591,1.587848 5.58688,7.3e-4 6.59556,0.322357 9.3919,2.994682 l 3.13279,2.993865 3.1081,-1.905416 c 1.70946,-1.047979 5.80811,-2.653035 9.10811,-3.566793 3.3,-0.913757 11.4,-3.386463 18,-5.494902 28.05389,-8.96211 53.7599,-16.663051 72.5,-21.719339 3.025,-0.81618 9.2455,-1.44933 13.8233,-1.406999 7.8404,0.0725 8.7397,-0.148466 15.5,-3.808438 15.4183,-8.347353 41.1492,-14.290145 86.6767,-20.0188453 12.1838,-1.533074 25.5716,-1.317956 34.643,0.556645 9.1982,1.900795 35.0925,12.1128153 43.6692,17.2218963 7.117,4.239567 16.2216,12.352269 18.2375,16.250564 2.3902,4.622062 1.8396,10.904749 -1.3984,15.958117 -1.5668,2.44518 -3.7148,5.210726 -4.7733,6.145659 -1.5814,1.39665 -27.1062,14.107981 -32.378,16.124176 -0.825,0.315522 5.25,0.536642 13.5,0.491378 11.1558,-0.06121 16.1533,0.316554 19.5,1.474006 2.475,0.855967 8.55,2.767411 13.5,4.247653 22.0629,6.59767 46.5,20.441109 46.5,26.341929 0,1.88377 -5.1382,7.18147 -8.7795,9.05196 -2.6176,1.34464 -26.6761,4.06444 -35.9771,4.06718 -7.0796,0.002 -25.5762,2.57793 -28.0874,3.91146 -0.9108,0.48367 -5.256,1.58723 -9.656,2.45235 -4.4,0.86511 -15.875,3.65674 -25.5,6.20361 l -17.5,4.63068 -17,-0.60254 c -16.8865,-0.59852 -25.3273,-1.44694 -41.3635,-4.15767 -4.6,-0.77756 -8.7625,-1.16721 -9.25,-0.86588 -1.8559,1.14697 -0.7617,3.23827 2.3635,4.5174 1.7875,0.73162 7.8204,5.76488 13.4063,11.18503 8.5437,8.29001 10.793,11.15467 14.1658,18.0411 8.8336,18.03583 11.1779,23.77487 11.1779,27.364 0,2.03605 0.5181,6.2102 1.1513,9.27588 1.036,5.01582 0.9359,6.06098 -1,10.43732 -1.1832,2.67483 -2.1513,5.7492 -2.1513,6.83193 0,3.09412 -3.1164,7.58274 -6.1318,8.83175 -2.8535,1.18196 -9.1648,-0.1075 -10.4133,-2.12754 -0.3151,-0.50987 -1.5589,-0.9274 -2.7639,-0.92783 -3.7284,-0.001 -14.3769,-5.65537 -16.7847,-8.91215 -1.7699,-2.39391 -3.0439,-3.08706 -5.6738,-3.08706 -3.3031,0 -3.3732,0.0846 -2.6915,3.25 0.3849,1.7875 1.3207,4.46515 2.0794,5.95034 0.7588,1.48519 1.3796,3.3389 1.3796,4.11937 0,0.78047 1.724,3.61532 3.8312,6.29966 2.1071,2.68435 4.8298,6.982 6.0503,9.55033 1.2206,2.56834 3.659,5.78251 5.4188,7.1426 6.2031,4.79412 12.6093,11.59014 14.5958,15.484 l 2.0092,3.93832 9.2138,0.72079 c 5.1759,0.4049 13.4139,1.96848 18.7974,3.56775 5.2709,1.56584 11.8335,2.98869 14.5835,3.16191 4.0514,0.25518 4.9734,0.64856 4.8597,2.07341 -0.1376,1.72415 2.8152,3.10807 5.756,2.69773 3.0751,-0.42911 4.8843,0.11942 4.8843,1.48092 0,1.03644 0.9061,1.32604 3.25,1.0387 1.7875,-0.21913 5.8658,-0.61125 9.063,-0.87137 l 5.8129,-0.47295 -0.3129,2.68425 c -0.3041,2.60831 -0.1291,2.70444 6.187,3.39831 3.575,0.39274 8.075,1.36375 10,2.1578 1.925,0.79405 6.8414,1.99018 10.9253,2.65807 4.0838,0.66788 10.4879,2.28437 14.2312,3.5922 7.4118,2.58955 11.8209,3.00048 13.5578,1.2636 0.6128,-0.61284 3.4763,-1.14989 6.3632,-1.19344 4.8956,-0.0738 5.475,0.18227 8.6058,3.80407 3.4972,4.04568 3.7792,5.78478 1.0246,6.3191 -1.0674,0.20705 -2.1384,-0.90995 -3.1161,-3.25 -1.3672,-3.27214 -1.8299,-3.56547 -5.6241,-3.56547 -5.3043,0 -4.8723,1.75526 1.1414,4.63804 5.6078,2.68819 7.1201,4.502 6.7132,8.05149 -0.3788,3.30349 -2.0917,3.40547 -2.8555,0.17001 -0.3108,-1.31677 -2.6041,-3.52667 -5.5,-5.2999 -4.7554,-2.91194 -5.4457,-3.0418 -16.2169,-3.05053 -6.1876,-0.005 -11.2501,-0.30188 -11.25,-0.65972 10e-5,-0.35783 -2.3624,-1.12076 -5.2499,-1.6954 -2.8875,-0.57464 -7.95,-1.73962 -11.25,-2.58884 -13.3196,-3.42767 -14.9526,-3.70738 -15.314,-2.62302 -0.4972,1.4915 -4.1843,1.32258 -4.1938,-0.19213 -0.012,-1.87944 -4.8447,-3.75 -9.6889,-3.75 -2.6495,0 -6.6961,-1.11734 -10.5506,-2.91319 -3.439,-1.60226 -8.2777,-3.14716 -10.7527,-3.43312 -13.0035,-1.5024 -39.8803,-6.56093 -43.7839,-8.24063 -1.8062,-0.77718 -4.7886,-1.41306 -6.6276,-1.41306 -1.8511,0 -3.9389,-0.71733 -4.6773,-1.60697 -1.0054,-1.21147 -2.3785,-1.46377 -5.5789,-1.0251 -2.3564,0.32299 -4.5134,0.14812 -4.8478,-0.39302 -0.3314,-0.5362 -1.4062,-0.97491 -2.3885,-0.97491 -2.43,0 -4.4087,-2.55104 -6.5928,-8.5 -1.0096,-2.75 -2.8585,-6.575 -4.1086,-8.5 -1.2501,-1.925 -2.577,-4.74937 -2.9488,-6.27638 -0.8026,-3.29687 -3.1064,-4.72333 -7.6301,-4.72441 -3.6456,-8.7e-4 -14.3477,-4.6741 -17.172,-7.49839 -2.5227,-2.52272 -8.0528,-6.1785 -10.5406,-6.96809 -1.1567,-0.36713 -2.1031,-1.26043 -2.1031,-1.98511 0,-0.72468 -1.0741,-2.02137 -2.3869,-2.88154 -1.3128,-0.86017 -3.4297,-3.27443 -4.7043,-5.36501 -1.2745,-2.09059 -3.1254,-4.38909 -4.1131,-5.10777 -3.1685,-2.30566 -1.7291,-8.1933 2.0031,-8.1933 0.7693,0 2.6599,-1.35 4.2012,-3 3.2604,-3.49024 2.9294,-3.62261 -2.5,-1 -2.2,1.06268 -4.3525,1.94741 -4.7833,1.96607 -0.4309,0.0187 -2.3584,1.60893 -4.2834,3.53393 -4.3354,4.33544 -9.3361,4.7338 -14.5981,1.16291 -3.4561,-2.34536 -10.7589,-3.73361 -21.48566,-4.08438 -2.83276,-0.0926 -5.78842,-0.69788 -6.56815,-1.345 -1.09426,-0.90815 -1.85842,-0.87239 -3.34954,0.15674 -1.06252,0.73333 -5.45327,2.18301 -9.75723,3.22153 l -7.82537,1.8882 0.66977,4.5 c 0.36837,2.475 0.621,7.875 0.56139,12 -0.0799,5.53094 0.44963,8.8753 2.01704,12.73841 2.37804,5.861 2.07857,7.95188 -1.20797,8.43403 -1.36746,0.20061 -2.57344,1.35522 -3.11168,2.97915 -0.72152,2.17689 -0.27363,3.60909 2.50183,8 1.85939,2.94163 3.67059,6.14266 4.02491,7.11342 0.35431,0.97075 1.66824,2.16717 2.91983,2.6587 2.98968,1.17412 4.49703,3.07393 12.29531,15.49651 l 6.54691,10.42917 6.86631,2.69391 c 4.2543,1.66911 7.6391,3.73912 8.8977,5.44145 1.6,2.16415 3.0545,2.84635 6.8504,3.21295 2.6504,0.25599 6.394,1.15021 8.319,1.98717 12.6433,5.49708 13.389,5.67722 23.7735,5.74292 10.7177,0.0678 16.0312,1.42947 19.1152,4.89855 0.8862,0.99687 2.3988,2.10462 3.3613,2.46169 1.9301,0.716 2.4229,3.71197 0.6106,3.71197 -0.6267,0 -3.3334,-1.35 -6.015,-3 -2.6816,-1.65 -5.3189,-3 -5.8606,-3 -1.7963,0 -1.02,1.91119 1.265,3.11452 4.0665,2.14148 5.1797,5.88548 1.75,5.88548 -1.1,0 -2,-0.45 -2,-1 0,-0.55 -0.7629,-1 -1.6953,-1 -0.9324,0 -2.8449,-1.04925 -4.25,-2.33166 -1.4051,-1.28241 -5.4482,-3.1068 -8.9846,-4.05421 -5.7875,-1.55046 -6.5168,-1.56728 -7.2997,-0.16835 -1.2649,2.26028 -2.3444,2.01362 -12.281,-2.80613 -12.3865,-6.00813 -13.2644,-6.23374 -13.6642,-3.51148 -0.4072,2.77389 -2.8252,3.74054 -2.8252,1.12948 0,-2.26104 -3.043,-5.11827 -8.3175,-7.8097 -2.0996,-1.07137 -4.62376,-2.69402 -5.6093,-3.60587 -0.98555,-0.91186 -3.5427,-2.55148 -5.68256,-3.64359 -4.5153,-2.30448 -5.86826,-3.68679 -11.0656,-11.3057 -5.36396,-7.86315 -9.61821,-12.47591 -13.22778,-14.3425 -2.04265,-1.05629 -3.10247,-2.35903 -3.11257,-3.82597 -0.0222,-3.21803 -1.51507,-5.11851 -3.44044,-4.37967 -1.77019,0.67928 -6.54425,-3.61289 -6.54425,-5.88368 0,-0.68585 -0.73696,-1.52979 -1.63769,-1.87543 -1.36712,-0.52462 -1.52766,-1.57487 -0.97171,-6.35699 2.1585,-18.56672 1.72847,-33.86189 -0.98127,-34.90172 -0.78721,-0.30208 -3.50959,0.80269 -6.04974,2.45504 l -4.61846,3.00427 -5.62057,-4.265 c -3.09131,-2.34575 -7.09897,-4.58688 -8.90592,-4.98029 -3.09956,-0.67484 -3.27208,-0.94041 -3.0505,-4.69576 0.30142,-5.10853 -2.0458,-7.01369 -3.74152,-3.03686 -2.34858,5.50789 -14.46725,13.19177 -20.80547,13.19177 -4.67824,0 -7.03233,-1.82845 -10.05801,-7.81219 -1.0785,-2.13289 -2.27731,-3.19704 -3.36698,-2.9888 -1.38701,0.26507 -1.81072,2.00723 -2.34961,9.66086 -0.59022,8.38273 -0.94064,9.63307 -3.42709,12.22837 -1.52331,1.59 -2.46338,3.19717 -2.08905,3.5715 0.37433,0.37434 0.0752,1.61653 -0.66471,2.76043 -0.73993,1.14391 -1.65811,3.3493 -2.04039,4.90087 -0.95298,3.8678 -3.1636,2.79756 -2.94876,-1.4276 0.15188,-2.98683 0.0188,-3.18375 -1.11024,-1.64344 -1.53972,2.1005 -4.56231,2.32138 -4.56231,0.33341 0,-0.77913 1.20814,-2.29667 2.68476,-3.37231 2.32416,-1.69303 2.71598,-2.74518 2.91717,-7.83341 0.12782,-3.23273 0.40178,-9.13595 0.6088,-13.11827 l 0.37641,-7.24057 -3.21358,-1.06058 c -1.76747,-0.58332 -3.75467,-1.71256 -4.41601,-2.50942 -0.66134,-0.79687 -2.04734,-1.44885 -3.07999,-1.44885 -2.49599,0 -2.42964,2.94998 0.16528,7.34804 2.60426,4.41388 1.82068,8.05164 -2.08259,9.66842 -2.47092,1.0235 -3.27238,0.89748 -5.81736,-0.91471 -1.6234,-1.15596 -4.23216,-2.10853 -5.79726,-2.11681 -3.23115,-0.0171 -9.43916,-1.99731 -11.47946,-3.66168 -0.75139,-0.61295 -3.05367,-1.81347 -5.11617,-2.66783 -2.0625,-0.85436 -3.75,-1.97161 -3.75,-2.48279 0,-0.51118 -2.5875,-2.89346 -5.75,-5.29395 -8.39829,-6.3747 -17.25,-15.46058 -17.25,-17.70634 0,-1.07293 -0.87287,-3.01313 -1.93971,-4.31157 l -1.9397,-2.36078 -2.96426,3.5 c -1.63035,1.925 -3.22697,5.11981 -3.54806,7.09959 -0.32109,1.97977 -1.48931,4.75075 -2.59604,6.15773 -1.41511,1.79903 -2.01223,4.06206 -2.01223,7.62624 0,3.30484 -0.69453,6.20723 -1.99626,8.34227 -1.09795,1.80079 -1.99795,4.48511 -2,5.96515 -0.002,1.48004 -0.45374,2.9691 -1.00374,3.30902 -0.55,0.33992 -1.01595,2.27898 -1.03544,4.30902 -0.0195,2.03004 -0.67854,4.81598 -1.46456,6.19098 -0.78602,1.375 -1.44508,4.67155 -1.46456,7.32567 -0.028,3.81181 -0.54174,5.27664 -2.44531,6.9722 l -2.40988,2.14653 2.0107,2.82377 2.0107,2.82377 -2.10082,8.23642 c -1.15546,4.53004 -2.10083,11.23279 -2.10083,14.89502 0,3.66222 -0.45,6.9367 -1,7.27662 -0.60393,0.37325 -1,-0.98962 -1,-3.44098 0,-2.97832 -0.40772,-4.05902 -1.53138,-4.05902 -0.84227,0 -1.8018,-0.70467 -2.1323,-1.56594 -0.44946,-1.17127 -1.32258,-0.47818 -3.46433,2.75 -1.57489,2.37377 -2.86535,4.6524 -2.86771,5.06363 -0.009,1.52913 -7.18347,10.67601 -8.81308,11.2356 -0.93016,0.3194 -2.93371,2.37937 -4.45233,4.57771 -1.51862,2.19833 -3.87253,4.41952 -5.2309,4.93597 -1.66216,0.63195 -2.27418,1.44869 -1.87164,2.4977 0.35363,0.92154 -0.36954,2.51226 -1.7691,3.89142 -1.30198,1.283 -3.49223,4.28028 -4.86723,6.66064 -1.375,2.38035 -3.175,5.04385 -4,5.91889 -6.32033,6.70364 -9.88123,12.02897 -10.65301,15.93158 l -0.8647,4.37249 -1.37496,-2.56914 z m 361.89267,-95.66662 c 0,-1.24212 -2.316,-6.54361 -7.1477,-16.36171 -2.1188,-4.30527 -3.8523,-9.19092 -3.8523,-10.85699 0,-2.50419 -0.3033,-2.89914 -1.75,-2.27872 -4.3164,1.85107 -15.598,2.66875 -19.4197,1.4075 -2.1121,-0.69708 -4.1177,-0.98997 -4.4568,-0.65088 -1.1308,1.13085 4.7101,9.75458 8.4658,12.49903 4.4022,3.21695 7.158,5.59181 11.4887,9.90053 4.9513,4.9261 16.672,9.38411 16.672,6.34124 z"
     id="path2987"
     inkscape:connector-curvature="0" />
</svg>
