<?xml version="1.0" encoding="UTF-8" standalone="no"?>
<!-- Created with Inkscape (http://www.inkscape.org/) -->

<svg
   xmlns:dc="http://purl.org/dc/elements/1.1/"
   xmlns:cc="http://creativecommons.org/ns#"
   xmlns:rdf="http://www.w3.org/1999/02/22-rdf-syntax-ns#"
   xmlns:svg="http://www.w3.org/2000/svg"
   xmlns="http://www.w3.org/2000/svg"
   xmlns:sodipodi="http://sodipodi.sourceforge.net/DTD/sodipodi-0.dtd"
   xmlns:inkscape="http://www.inkscape.org/namespaces/inkscape"
   id="svg2"
   version="1.1"
   inkscape:version="0.48.2 r9819"
   width="926.63477"
   height="583"
   sodipodi:docname="Hippohydra.png">
  <metadata
     id="metadata8">
    <rdf:RDF>
      <cc:Work
         rdf:about="">
        <dc:format>image/svg+xml</dc:format>
        <dc:type
           rdf:resource="http://purl.org/dc/dcmitype/StillImage" />
        <dc:title></dc:title>
      </cc:Work>
    </rdf:RDF>
  </metadata>
  <defs
     id="defs6" />
  <sodipodi:namedview
     pagecolor="#ffffff"
     bordercolor="#666666"
     borderopacity="1"
     objecttolerance="10"
     gridtolerance="10"
     guidetolerance="10"
     inkscape:pageopacity="0"
     inkscape:pageshadow="2"
     inkscape:window-width="1920"
     inkscape:window-height="1176"
     id="namedview4"
     showgrid="false"
     fit-margin-top="0"
     fit-margin-left="0"
     fit-margin-right="0"
     fit-margin-bottom="0"
     inkscape:zoom="1"
     inkscape:cx="428.58165"
     inkscape:cy="287.5"
     inkscape:window-x="0"
     inkscape:window-y="24"
     inkscape:window-maximized="1"
     inkscape:current-layer="svg2" />
  <path
     style="fill:#000000"
     d="M 59.12844,578.37288 C 56.96583,573.48393 56.40105,566.53867 58.08165,565.5 c 1.5349,-0.94862 1.18761,-5.78713 -0.5984,-8.33703 -0.87913,-1.25512 -3.91663,-3.39618 -6.75,-4.75791 -9.26053,-4.45063 -10.20627,-7.74479 -7.21113,-25.11768 2.55062,-14.79446 3.73159,-23.51476 4.03405,-29.78738 0.29386,-6.09428 1.43738,-36.98877 1.94433,-52.5297 0.35105,-10.7619 1.49032,-13.15758 11.90639,-25.03692 9.6885,-11.04957 20.40898,-25.54869 24.55068,-33.20404 l 2.92792,-5.41185 0.0529,-30.90874 c 0.0316,-18.43652 0.47467,-32.3184 1.09808,-34.40215 0.57482,-1.92137 1.03448,-4.84637 1.02147,-6.5 -0.013,-1.65363 0.87097,-7.9566 1.96441,-14.0066 1.09344,-6.05 2.41359,-14.03678 2.93368,-17.74839 1.21215,-8.65069 3.76128,-13.8185 11.16691,-22.63854 5.56747,-6.63082 5.80436,-7.11307 3.49404,-7.11307 -3.7463,0 -12.50441,4.29289 -17.33225,8.4956 -2.55336,2.22274 -5.69846,6.52366 -7.75107,10.5996 -4.54137,9.01797 -11.99746,31.84858 -12.84045,39.31756 -0.36703,3.25202 -1.72552,9.10202 -3.01885,13 -2.77948,8.37709 -7.58755,28.46247 -7.60496,31.76924 -0.0197,3.73983 -6.22371,16.88561 -10.77389,22.82897 -8.50008,11.10265 -11.7889,14.94795 -15.05844,17.60644 -1.83949,1.49571 -3.63949,3.46768 -4,4.38215 -1.84857,4.68916 -20.27067,17.00371 -25.43051,16.99942 -0.67372,-5.6e-4 -2.48082,-2.23704 -4.01576,-4.96996 L 0,403.06007 1.08889,390.28003 c 1.64348,-19.2891 3.40754,-28.59525 7.92069,-41.78486 3.47398,-10.15263 11.35446,-27.53041 14.05571,-30.99517 0.4288,-0.55 3.10263,-5.59398 5.94185,-11.20885 2.83921,-5.61486 7.59665,-13.80448 10.57208,-18.19915 2.97542,-4.39467 6.29872,-9.70069 7.38509,-11.79116 2.30702,-4.43931 22.90445,-26.01621 28.34217,-29.68994 2.04869,-1.38409 6.80156,-3.86689 10.56195,-5.51733 6.17149,-2.70869 11.30194,-4.08638 36.21318,-9.72442 4.125,-0.93359 11.11085,-2.92504 15.5241,-4.42544 7.7022,-2.61856 27.16398,-7.4578 40.16237,-9.98651 7.01917,-1.36552 11.85278,-0.94397 30.81353,2.68727 23.04669,4.41375 27.37541,5.33772 31.72626,6.77199 25.00322,8.24236 41.19732,11.65301 62.77374,13.22083 11.33235,0.82345 30.24914,-2.85413 45.53345,-8.85206 14.43548,-5.66482 35.46659,-16.55475 35.46659,-18.36462 0,-0.78133 -0.45715,-1.42061 -1.01588,-1.42061 -0.55874,0 -0.91504,-1.32353 -0.79178,-2.94117 0.12742,-1.67223 -0.53067,-3.7752 -1.52533,-4.87429 -1.67544,-1.85134 -1.64194,-2.06088 0.79177,-4.95318 1.39767,-1.66104 2.54122,-3.74261 2.54122,-4.62572 0,-0.8831 0.47656,-1.60564 1.05902,-1.60564 0.58246,0 0.77401,-0.46115 0.42567,-1.02478 -0.34834,-0.56362 -0.2624,-0.96033 0.19098,-0.88158 3.07057,0.53341 5.48333,-3.43491 2.73068,-4.4912 -0.75495,-0.2897 -1.10707,-1.21877 -0.7825,-2.06459 0.45576,-1.1877 -0.17422,-1.55583 -2.76686,-1.6168 -1.84635,-0.0434 -2.79449,-0.30592 -2.10699,-0.58333 0.6875,-0.27741 1.25,-1.12292 1.25,-1.8789 0,-0.75598 2.1375,-2.61579 4.75,-4.1329 2.6125,-1.51711 5.34464,-3.33608 6.07143,-4.04215 0.72678,-0.70607 1.65225,-1.28377 2.05659,-1.28377 0.40434,0 2.8766,-1.9942 5.49391,-4.43156 4.37642,-4.07551 4.77358,-4.83814 4.94341,-9.49218 0.14885,-4.07922 0.52404,-5.06214 1.93466,-5.06844 0.9625,-0.004 1.75,-0.45782 1.75,-1.00782 0,-0.55 -0.45,-1 -1,-1 -1.51425,0 -1.19667,-2.59189 0.48899,-3.99086 0.81894,-0.67967 1.25948,-1.60711 0.97897,-2.06099 -0.28051,-0.45387 0.28694,-1.2892 1.26101,-1.85628 0.97407,-0.56708 1.32103,-1.04305 0.77103,-1.05772 -0.55,-0.0147 -2.4625,0.86503 -4.25,1.95489 -2.31345,1.41054 -3.25,1.60746 -3.25,0.68335 0,-2.15449 5.35836,-6.59406 8.78618,-7.27963 1.7676,-0.35352 3.21382,-1.1958 3.21382,-1.87174 0,-0.67593 1.15883,-2.47938 2.57518,-4.00764 2.78227,-3.00212 4.8689,-7.25839 4.54135,-9.26338 -0.11231,-0.6875 0.55341,-1.25 1.47939,-1.25 0.92598,0 2.23345,-0.75197 2.90549,-1.67104 1.42711,-1.95169 0.81676,-5.32896 -0.96305,-5.32896 -1.38945,0 -4.53849,-3.17723 -4.53811,-4.57874 1.4e-4,-0.50669 2.08169,-0.96575 4.62567,-1.02012 3.1843,-0.0681 4.91331,-0.6133 5.54944,-1.75 0.50821,-0.90813 1.57666,-1.65114 2.37433,-1.65114 0.79767,0 1.45031,-0.675 1.45031,-1.5 0,-0.825 -0.45,-1.5 -1,-1.5 -0.55,0 -1,-0.675 -1,-1.5 0,-0.83333 0.88889,-1.5 2,-1.5 2.21473,0 2.70684,-1.54153 0.75,-2.34937 -0.76059,-0.31399 -0.37812,-0.78144 0.97685,-1.19391 2.21303,-0.67367 2.54433,-2.62763 0.89408,-5.27325 -0.98066,-1.57217 -1.12764,-1.42096 3.87907,-3.99055 2.2,-1.1291 6.85672,-4.86562 10.34828,-8.30337 3.49155,-3.43774 8.89155,-8.32329 12,-10.85678 6.49037,-5.28985 10.2767,-8.6142 17.36575,-15.24689 2.77116,-2.59276 6.66916,-5.25112 8.66222,-5.907465 4.09949,-1.350022 6.48957,-3.868664 5.05643,-5.328415 -1.33266,-1.357413 -1.14508,-3.619124 0.57348,-6.914307 0.82161,-1.575369 1.49384,-3.712869 1.49384,-4.75 0,-2.40319 1.22484,-2.399717 3.40529,0.0097 2.06095,2.277324 7.40531,3.239879 9.77431,1.760417 1.29933,-0.811444 2.15991,-0.658492 3.5932,0.638623 2.51103,2.272452 3.8723,2.151422 6.61155,-0.587834 C 525.68173,26.490834 532.04417,24 535.48816,24 c 0.92096,0 3.02357,-0.99743 4.67247,-2.216512 2.56423,-1.895816 3.29312,-2.032194 5.03782,-0.942589 1.6582,1.035548 2.3362,1.029282 3.6232,-0.03349 0.8708,-0.719076 2.298,-1.353284 3.1716,-1.409351 0.8736,-0.05607 2.5484,-0.168567 3.7218,-0.25 1.2457,-0.08645 2.3604,-1.016437 2.6791,-2.235034 0.3558,-1.360693 1.1794,-1.959669 2.3666,-1.721162 1.8613,0.373938 5.3209,-3.02135 5.3209,-5.222036 0,-0.939543 0.3398,-0.932708 1.5,0.03017 1.2864,1.067603 1.5,0.729013 1.5,-2.377555 0,-5.43696 1.7854,-4.364157 3.6002,2.163269 1.2266,4.411835 2.0527,5.785715 3.4788,5.785715 1.7453,0 1.765,-0.16059 0.2945,-2.40492 -1.0329,-1.576353 -1.3634,-3.467007 -0.9593,-5.487639 C 576.17345,4.290996 579.67165,0 581.75595,0 c 1.5081,0 1.7829,1.59942 0.4196,2.441979 C 581.18355,3.055053 581.89565,7 582.99825,7 c 0.3759,0 1.2234,-0.54 1.8834,-1.2 0.9333,-0.933333 1.2,-0.748148 1.2,0.833333 0,2.761017 0.9233,3.478066 3.0281,2.351614 1.4416,-0.771519 1.8907,-0.444505 2.45,1.783975 0.5927,2.361435 0.8422,2.5156 1.8534,1.145514 1.4982,-2.029888 6.3307,-3.270069 7.2084,-1.849933 0.3643,0.589515 1.2371,0.851331 1.9394,0.581816 0.7023,-0.269516 1.7479,-0.01914 2.3234,0.5564 0.698,0.697928 4.3187,0.779275 10.8719,0.244258 5.404,-0.441194 10.2754,-0.676454 10.8254,-0.522801 0.55,0.153653 4.58,0.480208 8.9555,0.725678 4.3755,0.24547 8.4798,0.881472 9.1206,1.413338 1.0787,0.895242 5.4616,0.641097 11.3629,-0.658886 1.3415,-0.295507 3.6447,-1.395798 5.1183,-2.445092 2.6392,-1.879282 2.7056,-1.878733 4.439,0.03674 1.6423,1.814702 1.6514,2.163539 0.1354,5.224297 -2.2005,4.442906 -4.6276,7.158658 -9.1263,10.211516 -2.0815,1.412531 -3.6092,2.567623 -3.3949,2.566871 2.649,-0.0093 35.712,-6.603688 38.8895,-7.75651 0.825,-0.299313 2.0832,-0.664459 2.796,-0.811436 0.7129,-0.146977 3.0826,-1.15113 5.2661,-2.23145 3.3891,-1.676781 4.0889,-1.751779 4.7825,-0.512498 1.1047,1.974062 4.8233,2.24094 12.3409,0.88569 5.7286,-1.032749 9.6313,-1.205529 15.3145,-0.678 4.8415,0.449403 -3.5422,2.994142 -13.5318,4.107369 -5.7575,0.641606 -15.3844,2.028677 -21.3931,3.082379 C 691.64805,25.13788 685.20595,26 683.34105,26 c -1.865,0 -4.2274,0.447693 -5.2498,0.994873 -1.0224,0.54718 -5.3404,1.512672 -9.5955,2.145538 -6.8561,1.019723 -7.5273,1.303623 -5.8983,2.494795 3.2557,2.380656 4.9964,1.911085 -30.5158,8.232035 -9.625,1.713189 -19.975,3.638528 -23,4.278531 -3.025,0.640003 -13.375,1.284558 -23,1.432338 -14.1804,0.21772 -19.8455,0.75658 -29.865,2.84071 -16.06821,3.3423 -20.79881,4.78943 -29.47127,9.01545 -14.66485,7.14608 -23.24879,15.18938 -40.53568,37.98266 -2.95457,3.89569 -7.6642,9.44557 -10.46584,12.33307 -5.54264,5.71251 -5.62459,6.47892 -0.32076,3 1.88665,-1.2375 4.71914,-3.02461 6.29441,-3.97135 1.57528,-0.94675 3.53914,-2.13408 4.36414,-2.63851 1.91997,-1.17394 11.88219,-5.71048 14.5,-6.60294 1.90035,-0.64785 1.87544,-0.74921 -0.5,-2.03417 l -2.5,-1.35234 2.75,-1.05059 c 1.5125,-0.57783 2.75,-1.45376 2.75,-1.94652 0,-0.49276 2.32784,-1.20472 5.17297,-1.58214 6.08725,-0.8075 8.82703,-2.08214 8.82703,-4.10662 0,-0.80565 0.45,-1.46482 1,-1.46482 0.55,0 0.8875,-0.51941 0.75,-1.15424 -0.1375,-0.63483 2.11385,-2.09733 5.00299,-3.25 2.88915,-1.15267 5.93054,-3.07738 6.75865,-4.27715 2.01606,-2.92086 10.40879,-5.90888 18.98836,-6.76031 3.85,-0.38207 10.2256,-1.78899 14.168,-3.12649 7.7401,-2.62591 15.5579,-3.09578 24.2095,-1.45504 4.4492,0.84377 5.5912,0.70811 8.3865,-0.99626 4.7617,-2.9033 8.5341,-2.6332 9.3632,0.67042 0.3742,1.49081 0.1532,3.47112 -0.5051,4.52512 -1.0641,1.70395 -0.9184,1.81374 1.6037,1.20873 1.5258,-0.36601 3.9894,-1.27731 5.4745,-2.02512 1.4852,-0.74781 3.2073,-1.35966 3.8268,-1.35966 1.7959,0 -4.1824,4.49623 -8.0271,6.03715 -1.925,0.77152 -5.75,3.67492 -8.5,6.45202 -6.4225,6.48575 -15.2721,10.75503 -37.5,18.09093 -27.825,9.18312 -46.71924,16.73617 -55.23013,22.07849 -2.05157,1.28777 -4.01628,2.34141 -4.36602,2.34141 -0.34974,0 -2.75685,1.55693 -5.34914,3.45984 -2.59228,1.90291 -5.80257,3.88314 -7.13397,4.40052 -7.09212,2.75594 -17.83268,14.32077 -16.50745,17.77428 0.58817,1.53275 4.78001,1.21661 8.55389,-0.64512 0.84305,-0.4159 2.84121,-1.37118 4.44035,-2.12285 1.59915,-0.75167 3.11413,-2.15417 3.36664,-3.11667 0.2525,-0.9625 0.85661,-1.75 1.34246,-1.75 0.48585,0 0.77087,-0.53807 0.63337,-1.19571 -0.1375,-0.65764 2.22569,-2.12014 5.25154,-3.25 7.05897,-2.63584 7.99846,-3.28147 7.99846,-5.49668 0,-2.38892 2.50476,-2.95682 10.63399,-2.41101 8.60542,0.57778 10.27551,0.0159 7.86601,-2.6466 -1.99087,-2.19989 -2.38538,-1.92708 6.4315,-4.4474 6.15215,-1.7586 20.2217,-2.07615 23.1258,-0.52195 1.0592,0.56685 5.5515,1.31025 9.983,1.65198 7.3862,0.56958 8.3239,0.42743 11.2585,-1.70669 1.7607,-1.28041 3.5611,-2.9238 4.0009,-3.65198 0.4398,-0.72818 1.5498,-1.32396 2.4666,-1.32396 2.9689,0 10.2337,-3.23454 10.2337,-4.5564 0,-0.70658 1.2855,-1.56704 2.8567,-1.91213 2.6651,-0.58536 4.098,-2.36058 5.5645,-6.89409 0.4593,-1.42011 0.9185,-1.60035 1.9326,-0.75868 1.7875,1.48345 2.8057,0.28785 1.6284,-1.91203 -0.7797,-1.45688 -0.6064,-1.68117 0.9787,-1.26664 1.2112,0.31674 2.8559,-0.42593 4.4306,-2.00065 1.7872,-1.78714 3.5129,-2.47579 6.0258,-2.40456 3.7541,0.10641 5.7356,-0.95208 3.9296,-2.09919 -1.3337,-0.84715 0.072,-5.19563 1.6799,-5.19563 0.6002,0 0.8503,-0.38986 0.5558,-0.86635 -0.6902,-1.11669 2.3583,-3.82341 4.8208,-4.28041 1.8159,-0.337 6.3397,-7.16698 8.7195,-13.1645 0.693,-1.74646 1.6385,-2.61056 2.4963,-2.28138 0.9833,0.37734 1.3808,-0.32469 1.3808,-2.43874 0,-3.34705 1.1498,-3.6605 5.3643,-1.46246 3.5354,1.84382 3.6357,1.84365 3.6357,-0.006 0,-1.81473 1.0634,-1.88387 4.5489,-0.29577 2.2208,1.01186 2.7869,0.94704 3.544,-0.40574 0.5394,-0.96384 3.0092,-1.92331 6.154,-2.39071 5.9002,-0.8769 5.4585,-0.87921 8.5031,0.0444 1.5603,0.47333 2.25,0.26821 2.25,-0.66911 0,-1.59665 7.8169,-4.78167 13.5,-5.50059 2.2,-0.27831 4.7994,-0.92791 5.7764,-1.44356 1.3066,-0.68962 2.6204,-0.33654 4.9681,1.33512 3.7994,2.70543 5.7122,3.10673 7.5477,1.58345 1.6428,-1.36341 3.1688,0.52815 3.1925,3.9573 0.019,2.79111 2.7931,4.30716 7.6996,4.20834 4.7288,-0.0952 11.7988,-2.15412 11.8649,-3.45519 0.027,-0.53238 0.4017,-2.00206 0.8326,-3.26595 0.4806,-1.40969 0.3317,-2.84234 -0.3853,-3.7062 -1.6549,-1.99407 -0.4847,-3.31361 3.622,-4.08402 2.842,-0.53317 3.4502,-1.04113 3.0551,-2.551824 -0.6308,-2.41241 2.4837,-4.297235 4.2355,-2.563164 0.9485,0.938945 1.4323,0.818853 2.2029,-0.546804 0.543,-0.962638 1.64,-1.750138 2.4377,-1.750138 0.8803,0 1.4503,-0.982513 1.4503,-2.5 0,-1.375 0.45,-2.5 1,-2.5 0.55,0 1,0.374796 1,0.832881 0,1.320285 4.0732,0.666683 4.979,-0.798952 1.3232,-2.140917 3.6783,-0.482723 5.6448,3.974365 1.6381,3.712933 2.1216,4.092631 4.584,3.600141 2.0825,-0.416494 3.0133,-0.06377 3.8227,1.448512 0.5884,1.099488 1.5402,1.708389 2.115,1.353113 0.9428,-0.582688 2.9348,0.08368 8.0909,2.70661 2.3973,1.21948 2.7636,1.12355 2.7636,-0.72366 0,-0.98099 0.5558,-1.393694 1.4269,-1.05944 1.9622,0.75297 4.1146,-2.109276 3.7394,-4.972595 -0.3493,-2.664922 2.2358,-3.361454 3.1953,-0.860975 0.8401,2.189186 2.3037,1.833842 3.0891,-0.75 0.4143,-1.363112 0.8873,-1.757284 1.1999,-1 0.6764,1.638411 2.3494,1.611512 2.3494,-0.03777 0,-0.708276 1.3223,-2.845776 2.9385,-4.75 2.924,-3.445112 2.946,-3.451806 4.4573,-1.354142 1.761,2.444219 9.4583,4.8904 12.4252,3.948718 1.3861,-0.439923 2.3517,-0.07513 3.0425,1.149367 0.8106,1.436875 1.2631,1.545092 2.2742,0.543831 1.9238,-1.905069 2.8623,-1.505503 2.8623,1.218611 0,1.756891 0.4222,2.30659 1.4645,1.906632 0.8055,-0.309091 2.718,0.311585 4.25,1.379281 3.8903,2.711218 5.8938,3.042493 13.1946,2.181666 4.514,-0.532248 7.7311,-0.343456 10.987,0.644768 6.3034,1.913228 10.1182,1.770498 15.6113,-0.584148 2.5703,-1.101752 5.0826,-1.750194 5.5829,-1.440983 0.5004,0.309212 0.9097,2.070643 0.9097,3.914289 0,2.44525 -0.7589,3.99071 -2.8054,5.71268 -1.543,1.29833 -3.1148,3.16685 -3.4929,4.15228 -0.3782,0.98543 -1.1115,1.5297 -1.6296,1.20949 -0.5181,-0.32021 -3.1088,-0.0853 -5.757,0.52205 -2.6483,0.60734 -11.1151,1.72025 -18.8151,2.47313 l -14,1.36887 12.5,-0.43751 c 12.0159,-0.42058 34.964,-3.37593 41.7652,-5.37869 7.4254,-2.18661 15.1216,-2.61062 38.2348,-2.10647 l 5.5,0.11997 -4.9458,1.39338 c -2.7202,0.76637 -8.4073,1.37069 -12.6378,1.34295 -8.1962,-0.0538 -13.9164,0.81241 -13.9164,2.10724 0,0.43483 2.0443,1.36296 4.5429,2.06252 4.706,1.31759 13.9469,6.83156 13.0134,7.765 -0.2919,0.29195 -3.7354,-0.9463 -7.6522,-2.75166 -6.4042,-2.95185 -8.2684,-3.32796 -18.5077,-3.7339 -10.8701,-0.43094 -11.7249,-0.31469 -18.8557,2.56451 -4.3333,1.74966 -10.3185,3.27614 -14.2551,3.63569 -3.7321,0.34088 -8.5856,0.80246 -10.7856,1.02573 -31.2711,3.17366 -34.2559,3.34107 -41.5,2.32756 -4.125,-0.57712 -10.2,-0.73801 -13.5,-0.35754 -8.3157,0.95875 -11.3744,0.89007 -16,-0.3593 -5.6486,-1.52568 -15.1103,-1.38252 -18.2997,0.27689 -1.4851,0.77274 -3.8253,2.61186 -5.2003,4.08694 -3.3989,3.64624 -13.9019,9.39943 -20.186,11.05713 -6.8995,1.82005 -15.7061,1.12511 -24.814,-1.95809 -8.4568,-2.86279 -15.6542,-3.22954 -24.1474,-1.23047 -7.6114,1.7915 -12.9286,5.13228 -21.8526,13.72986 -4.125,3.97412 -10.7242,9.65527 -14.6649,12.62479 -10.099,7.61005 -10.5749,9.56278 -2.6081,10.7022 6.4741,0.92593 10.5628,0.73177 11.3481,-0.53888 0.3595,-0.58171 1.9525,-0.92142 3.5399,-0.75491 1.5874,0.16651 3.3608,0.009 3.9408,-0.34903 0.58,-0.35848 2.8298,-0.2433 4.9994,0.25595 3.0886,0.71071 4.1858,0.58887 5.055,-0.56138 1.4286,-1.89034 3.8066,-1.87671 5.3898,0.0309 1.2921,1.55683 5,2.08953 5,0.71832 0,-0.42993 2.1375,-1.39534 4.75,-2.14536 2.6125,-0.75002 5.2705,-1.76848 5.9066,-2.26323 0.6361,-0.49475 6.6044,-1.11156 13.2628,-1.37068 6.6584,-0.25912 14.5404,-1.10517 17.5156,-1.88011 2.9752,-0.77494 6.682,-1.23896 8.2372,-1.03115 1.5553,0.2078 5.442,0.61402 8.6372,0.90269 3.1951,0.28868 6.1852,0.75719 6.6447,1.04114 0.4594,0.28395 4.0253,0.72506 7.9242,0.98023 5.2523,0.34376 7.8697,1.04132 10.1032,2.6926 2.4115,1.78291 4.3011,2.21655 9.4473,2.16813 6.1986,-0.0583 6.4773,0.0466 7.6506,2.87919 1.5693,3.78856 0.6214,4.75189 -8.5794,8.71861 l -7,3.01792 7.5,0.15479 c 4.125,0.0851 8.4,0.19806 9.5,0.25096 6.7259,0.32342 29.38,-1.8038 32.3282,-3.03561 4.7287,-1.97577 17.1718,-4.28172 17.1718,-3.18226 0,0.4861 -0.6908,0.88382 -1.5352,0.88382 -1.245,0 -4.957,1.87286 -7.4358,3.75171 -0.2591,0.19637 0.1909,0.78486 1,1.30775 1.4792,0.95599 7.2957,0.54856 16.3575,-1.14579 6.1205,-1.14441 7.6135,-1.14785 7.6135,-0.0176 0,2.72547 -29.5464,4.97962 -69.25,5.28321 -3.1625,0.0242 -5.75,0.44373 -5.75,0.93232 0,0.4886 0.7125,0.88836 1.5833,0.88836 0.8709,0 1.3943,0.5625 1.1632,1.25 -0.3028,0.90095 -3.7467,1.27011 -12.3333,1.322 -6.5523,0.0396 -14.6132,0.57849 -17.9132,1.19752 -11.1083,2.08374 -55.8721,3.35463 -58.6077,1.66393 -1.9389,-1.19832 -32.844,-0.56042 -44.6444,0.92148 -6.1887,0.77718 -16.3137,1.47105 -22.5,1.54193 -7.3416,0.0841 -14.0262,0.80566 -19.2479,2.07762 -4.4,1.07181 -9.6889,2.21168 -11.7532,2.53305 -3.852,0.59968 -19.1984,11.57693 -34.2468,24.49676 -3.85,3.30541 -8.20813,7.01916 -9.68474,8.25278 -3.59183,3.00075 -3.47249,4.51661 0.43474,5.52213 2.6138,0.67265 3.3159,1.41234 3.5868,3.77859 0.1852,1.61822 0.9934,3.31365 1.7959,3.76764 1.6928,0.95754 1.6596,9.40687 -0.055,13.96956 -1.3705,3.64745 0.9195,5.46995 3.7053,2.94881 1.544,-1.39729 2.1524,-1.45292 3.9069,-0.35724 1.413,0.88241 2.2864,0.96063 2.7291,0.2444 0.3581,-0.57936 2.4353,-1.79593 4.616,-2.70349 2.1807,-0.90755 6.5446,-4.28947 9.6975,-7.51537 3.153,-3.22589 6.8655,-6.14958 8.25,-6.49709 1.3846,-0.3475 2.5174,-1.25804 2.5174,-2.02342 0,-0.80908 1.0228,-1.39159 2.4433,-1.39159 2.9139,0 5.5428,-3.33713 4.8166,-6.11416 -0.2854,-1.09163 0.3039,-3.80958 1.3096,-6.03991 2.4922,-5.52672 9.8441,-9.05803 17.075,-8.20163 2.7004,0.31982 8.0476,0.0311 11.8827,-0.6416 6.8886,-1.20831 7.988,-1.26876 18.149,-0.99785 3.4887,0.093 6.071,-0.4483 7.9209,-1.66041 2.0234,-1.3258 4.2767,-1.7225 8.5742,-1.50952 l 5.8294,0.2889 6.4997,-6.66164 c 3.5748,-3.6639 6.4996,-7.06676 6.4996,-7.56191 0,-1.46371 2.0144,-1.02639 2.6271,0.57033 0.3104,0.80883 -0.385,2.67753 -1.5454,4.15266 -1.1603,1.47514 -1.9354,2.85636 -1.7224,3.06939 0.2131,0.21302 3.7069,-0.92799 7.7641,-2.53558 13.9529,-5.5286 28.3766,-7.64162 28.3766,-4.15703 0,0.89156 -0.731,1.37596 -1.8021,1.19419 -4.8494,-0.8229 -43.8601,13.92768 -48.9022,18.49073 -2.1884,1.98049 -2.3075,3.31508 -0.2957,3.31508 2.8263,0 1.7701,5.49863 -1.7096,8.90071 -4.3966,4.29847 -18.0305,13.3533 -26.4434,17.56207 -6.3425,3.17305 -9.6089,4.18297 -24.847,7.68235 -6.2146,1.42717 -11.585,3.90831 -10.8908,5.0316 0.288,0.46593 3.6198,0.66403 7.4041,0.44023 5.7603,-0.34068 6.9517,-0.1391 7.3176,1.23806 0.2796,1.05237 0.4789,0.79239 0.5531,-0.72165 0.094,-1.92593 0.5253,-2.2596 2.314,-1.79185 1.2088,0.31613 2.7438,0.12176 3.4109,-0.43193 0.8144,-0.67588 1.4182,-0.67468 1.8375,0.004 0.3924,0.635 1.4928,0.6802 2.9618,0.12167 1.9502,-0.74146 2.5206,-0.48664 3.4432,1.53821 1.2997,2.85265 2.6777,3.0074 7.1063,0.79809 2.5591,-1.27664 3.4326,-1.35772 4.0399,-0.375 1.2691,2.05336 4.7952,1.44582 19.0024,-3.27409 7.425,-2.46672 16.65,-5.47068 20.5,-6.67547 3.85,-1.20479 9.2982,-3.47569 12.107,-5.04645 2.8089,-1.57076 6.7574,-3.16553 8.7745,-3.54394 2.0171,-0.3784 4.2189,-1.453 4.893,-2.38798 0.674,-0.93499 2.0054,-1.99081 2.9586,-2.34627 0.9665,-0.36038 1.494,-1.26953 1.1926,-2.0551 -0.9029,-2.35276 2.2765,-2.73232 13.7913,-1.64644 8.0058,0.75498 11.3741,0.7339 12.3515,-0.0773 0.7391,-0.61344 1.7011,-0.90445 2.1377,-0.64667 1.3727,0.81045 5.2938,-1.16589 5.2938,-2.6682 0,-1.17834 0.9369,-1.08017 5.219,0.5469 6.1622,2.34111 22.781,3.78029 22.781,1.97247 0,-0.63141 0.4989,-1.14802 1.1087,-1.14802 0.6098,0 3.6354,-2.52673 6.7237,-5.61496 6.6414,-6.64141 8.2651,-7.37655 13.6222,-6.16752 2.225,0.50215 6.5204,0.66089 9.5454,0.35275 14.0453,-1.43071 18.853,-1.53208 23.98,-0.50559 14.4203,2.88714 20.015,4.44181 26.02,7.23051 3.575,1.66023 8.7035,3.28549 11.3966,3.6117 6.4474,0.78096 7.7091,2.73161 4.5952,7.10465 l -2.3319,3.27485 3.42,-0.5982 c 1.8811,-0.32901 8.1451,-1.09804 13.9201,-1.70895 5.775,-0.61091 14.6057,-1.75616 19.6239,-2.54499 16.0082,-2.51646 27.0102,-1.55252 29.0533,2.5455 1.608,3.22519 1.0773,3.56074 -2.2172,1.40207 -1.9869,-1.30186 -5.1567,-1.85658 -11.8368,-2.07146 -9.635,-0.30993 -9.4654,0.0773 1.3768,3.14291 3.025,0.85531 6.8347,2.62338 8.466,3.92905 2.6939,2.15607 2.8564,2.61458 1.7715,4.99581 -1.2193,2.67603 -3.8969,3.78271 -2.9063,1.20119 0.8455,-2.20334 -3.6433,-6.30408 -8.47,-7.73775 -7.8357,-2.32745 -50.8559,-0.50602 -54.47,2.30621 -3.8869,3.02441 -22.1668,7.1172 -37.3912,8.3717 -4.125,0.33991 -9.3,0.79874 -11.5,1.01963 -7.4997,0.753 -15.9871,1.45047 -30.5,2.5064 -18.4256,1.3406 -24.0618,1.79221 -31.5,2.52397 -11.1242,1.09439 -38.9783,7.55273 -40.95,9.49479 -0.5225,0.51465 -2.5475,0.96736 -4.5,1.00602 -2.8945,0.0573 -3.1807,0.22897 -1.55,0.92971 1.1,0.47269 3.4144,0.89106 5.143,0.92971 1.9196,0.0429 3.3838,0.69766 3.7615,1.6821 0.454,1.18305 1.48,1.47913 3.857,1.11304 2.1006,-0.32352 3.8548,0.0443 4.9926,1.04685 1.3995,1.23321 2.2521,1.31867 4.2184,0.4228 2.0829,-0.94906 2.6783,-0.81734 3.8469,0.85119 1.0578,1.51017 2.8863,2.0832 7.7816,2.43868 3.5195,0.25557 7.974,0.72659 9.899,1.04671 10.8581,1.80565 13.7717,1.69757 16.9166,-0.62752 3.4874,-2.5784 2.9003,-2.64322 30.0834,3.32174 7.425,1.62932 18.45,4.02037 24.5,5.31345 23.08,4.93293 35.1641,10.54627 31.6969,14.72398 -0.8061,0.97132 1.6955,1.25378 11.6381,1.3141 12.3196,0.0747 14.611,0.44403 30.165,4.86157 3.025,0.85914 6.7771,1.29251 8.3381,0.96304 2.6329,-0.55574 2.7568,-0.44736 1.7148,1.49976 -1.368,2.55602 -5.757,2.74265 -14.5529,0.6188 -8.0269,-1.93817 -9.0943,-1.94101 -7.5,-0.02 1.6558,1.99517 0.6227,1.93549 -8.2388,-0.4759 -6.786,-1.84659 -15.4662,-2.59217 -25.536,-2.19339 -3.5211,0.13945 -4.4367,0.59544 -5.1938,2.58674 -0.7245,1.90547 -2.0429,2.64063 -6.2253,3.4713 -17.8366,3.54252 -39.418,3.36138 -54.6867,-0.459 -5.8406,-1.46141 -13.5444,-3.68433 -17.1194,-4.93982 -7.418,-2.6051 -13.4895,-4.01073 -23.5,-5.44053 -6.8423,-0.97729 -11.1478,-1.83112 -30.5,-6.04856 -23.8453,-5.19662 -31.183,-6.06187 -38.7255,-4.56637 -1.224,0.24269 -6.624,0.72463 -12,1.07097 -12.6018,0.81185 -16.0064,1.28071 -18.3301,2.52429 -1.0436,0.55853 -5.8455,2.07615 -10.6709,3.37251 -4.8254,1.29635 -11.9235,3.54545 -15.7735,4.99799 -3.85,1.45254 -15.775,5.06491 -26.5,8.02747 -17.7927,4.91488 -35.8511,10.76699 -43.5,14.09691 -1.74931,0.76155 -15.64311,2.25297 -33.32661,3.57741 l -30.32662,2.27137 -4.01377,7.31331 C 469.70697,304.70901 467.5852,308 467.1995,308 c -0.38571,0 -0.73668,4.6125 -0.77995,10.25 -0.0801,10.43948 -1.68083,19.15811 -4.94266,26.92141 -2.74719,6.53845 -14.16472,28.69598 -16.41555,31.85697 -1.08888,1.5292 -1.97979,2.9886 -1.97979,3.2431 0,0.25451 1.75236,1.6224 3.89413,3.03976 2.14177,1.41736 9.90427,8.48233 17.25,15.69993 7.34573,7.2176 16.65663,15.45524 20.69088,18.30587 21.13964,14.93738 23.98264,21.60213 20.34027,47.68296 -0.97727,6.99761 0.61255,27.28343 2.86983,36.61854 1.67657,6.93352 0.88414,9.21718 -5.42178,15.62466 -4.37435,4.4448 -5.61078,6.47104 -6.51149,10.67093 -0.61151,2.85137 -1.11184,6.30509 -1.11184,7.67493 0,2.80607 -3.11157,9.36487 -6.64429,14.00533 -1.29564,1.70192 -2.35571,3.45473 -2.35571,3.89514 0,1.91365 -5.64418,9.50706 -7.0678,9.50868 -1.02546,10e-4 -2.73321,-2.85213 -4.9367,-8.24821 -1.85289,-4.5375 -4.63488,-11.02279 -6.18219,-14.41174 -1.54722,-3.38896 -2.81321,-7.02046 -2.81321,-8.07001 0,-1.04954 1.64128,-3.82572 3.6473,-6.1693 3.39534,-3.96669 3.96525,-4.24653 8.25,-4.05095 6.90678,0.31527 7.0848,0.23908 8.74907,-3.74408 1.25889,-3.01294 1.3282,-4.35294 0.37499,-7.25 -0.8502,-2.58401 -0.87622,-4.3222 -0.0953,-6.36902 1.32105,-3.4627 1.35728,-27.52711 0.0565,-37.5464 -1.59916,-12.31788 -3.14473,-14.12174 -20.48254,-23.90563 -8.25,-4.65555 -20.03782,-10.85891 -26.19515,-13.78524 -6.15733,-2.92634 -13.57632,-6.92419 -16.48665,-8.88412 C 419.98952,418.60358 417.06967,417 416.4113,417 c -1.91147,0 -15.84908,20.08309 -20.85514,30.05076 -2.51677,5.01118 -5.73392,12.33729 -7.14922,16.28024 -3.1004,8.63753 -6.1656,14.8504 -10.48218,21.24636 -3.94294,5.84233 -16.73857,33.36861 -19.89836,42.80585 -2.09257,6.2498 -2.20699,7.56111 -1.24335,14.25005 1.18305,8.21196 4.1383,13.15958 9.88584,16.55072 1.81975,1.07367 4.96536,4.50901 6.99026,7.63408 2.02489,3.12507 4.81517,7.37759 6.20061,9.45005 1.38545,2.07247 2.28815,3.99897 2.006,4.28112 -0.28215,0.28215 -7.95195,0.79265 -17.04399,1.13444 l -16.53098,0.62144 -1.60457,-3.10289 c -2.05601,-3.9759 -2.04377,-8.65013 0.0319,-12.1639 1.17511,-1.9893 1.4385,-3.82535 0.93431,-6.51292 -0.73708,-3.92898 -4.73865,-8.50982 -7.46676,-8.54764 -0.88219,-0.0122 -2.65879,-0.83358 -3.948,-1.82522 -3.85861,-2.96798 -3.20461,-7.24092 3.55544,-23.22967 12.04098,-28.47913 16.03835,-42.65309 16.05493,-56.92801 0.007,-5.60436 0.78073,-9.90984 3.05697,-17 8.57703,-26.71627 15.3125,-51.22693 15.8549,-57.69664 0.75101,-8.9581 0.71929,-8.97765 -16.85455,-10.38686 -7.2933,-0.58483 -13.68569,-1.32609 -14.20533,-1.64724 -0.51963,-0.32115 -14.03384,-0.69338 -30.03157,-0.82718 -44.21021,-0.36976 -52.66626,-1.32511 -69.31621,-7.83122 C 239.27708,371.62258 234.56833,370 233.88832,370 c -0.68001,0 -5.00139,-1.8394 -9.60306,-4.08755 -9.23991,-4.51417 -10.14663,-4.4762 -17.84402,0.7474 -3.28491,2.2292 -3.60525,2.26435 -7.14747,0.78431 -3.57652,-1.49436 -3.77417,-1.46758 -5.55699,0.75318 -1.01672,1.26646 -4.16328,4.94131 -6.99237,8.16633 -2.82909,3.22501 -6.35547,8.07937 -7.8364,10.78747 -1.48093,2.70809 -4.86833,7.94444 -7.52756,11.63633 -2.65923,3.69189 -5.81033,8.11758 -7.00244,9.83487 -3.82612,5.5117 -9.19142,16.82422 -11.35946,23.95097 -1.15895,3.80968 -3.89234,10.21077 -6.07421,14.22464 -5.77839,10.63023 -6.13933,10.01021 17.13731,29.43899 16.35106,13.64807 26.98437,21.27868 33.11401,23.76306 2.03549,0.825 5.54255,3.15457 7.79345,5.17683 3.59529,3.23009 4.09179,4.2021 4.08638,8 -0.003,2.37774 -0.7135,5.67317 -1.57804,7.32317 -0.98587,1.88159 -1.93527,7.84644 -2.54666,16 -0.53613,7.15 -1.85102,17.15465 -2.92196,22.23255 -1.07095,5.07791 -1.94718,9.46541 -1.94718,9.75 0,0.2846 -0.7875,0.50251 -1.75,0.48426 -0.9625,-0.0183 -7.10509,-5.09864 -13.65021,-11.28973 l -11.9002,-11.25655 1.67694,-5.04878 c 1.87193,-5.63587 5.71996,-9.88216 9.88929,-10.9128 3.35584,-0.82956 6.73418,-4.87709 6.73418,-8.06813 0,-1.60708 -0.97497,-2.84364 -3.11437,-3.94996 -1.7129,-0.88578 -6.7754,-4.84824 -11.25,-8.80547 -14.92283,-13.1974 -34.24457,-26.79991 -49.13563,-34.59148 -9.61573,-5.03131 -13.92176,-8.96295 -16.11969,-14.71815 -1.41282,-3.69942 -1.47496,-5.18756 -0.44116,-10.56582 1.16061,-6.03804 5.51219,-19.80922 8.57855,-27.14806 2.51326,-6.01508 1.90089,-7.26619 -1.7677,-3.61155 -1.7875,1.78071 -8.95271,7.91292 -15.92268,13.62713 -13.69507,11.22767 -18.08729,16.02363 -20.22589,22.08506 -0.75547,2.14124 -2.71456,6.56938 -4.35353,9.84032 -4.94647,9.87183 -6.94233,17.19951 -9.11008,33.44716 -2.37588,17.80761 -3.10782,43.35064 -1.33651,46.6412 0.63393,1.17766 4.69472,5.07167 9.02398,8.65335 8.06321,6.67085 11.5154,11.41732 14.6958,20.20545 0.99521,2.75 2.1851,5.4275 2.64419,5.95 0.4591,0.5225 0.83472,1.535 0.83472,2.25 0,1.01399 -3.61981,1.3 -16.45321,1.3 l -16.4532,0 -2.0468,-4.62712 z M 497.53689,240.34445 c 0.81439,0.31251 1.73453,0.15751 2.04476,-0.34445 0.31023,-0.50196 1.18399,-0.67476 1.94168,-0.384 0.81048,0.311 1.64842,-0.32452 2.03537,-1.54368 0.45467,-1.43254 1.50409,-2.07232 3.39921,-2.07232 1.50781,0 3.61499,-0.64854 4.68261,-1.4412 1.06762,-0.79266 2.89264,-1.20918 4.05559,-0.92561 1.34971,0.32911 2.33056,-0.0475 2.71195,-1.04141 0.43107,-1.12335 1.40985,-1.39453 3.51425,-0.97365 3.89455,0.77891 4.58437,-0.67792 3.15073,-6.654 -2.33771,-9.7447 -7.39987,-12.52167 -13.15067,-7.21413 -7.45046,6.87619 -23.58389,28.42811 -17.50798,23.38812 0.90298,-0.74903 2.30811,-1.10618 3.1225,-0.79367 z"
     id="path2987"
     inkscape:connector-curvature="0" />
</svg>
