<?xml version="1.0" encoding="UTF-8" standalone="no"?>
<!-- Created with Inkscape (http://www.inkscape.org/) -->

<svg
   xmlns:dc="http://purl.org/dc/elements/1.1/"
   xmlns:cc="http://creativecommons.org/ns#"
   xmlns:rdf="http://www.w3.org/1999/02/22-rdf-syntax-ns#"
   xmlns:svg="http://www.w3.org/2000/svg"
   xmlns="http://www.w3.org/2000/svg"
   xmlns:sodipodi="http://sodipodi.sourceforge.net/DTD/sodipodi-0.dtd"
   xmlns:inkscape="http://www.inkscape.org/namespaces/inkscape"
   id="svg2"
   version="1.1"
   inkscape:version="0.48.2 r9819"
   width="969.84857"
   height="945.71356"
   sodipodi:docname="M - CreatureX.png">
  <metadata
     id="metadata8">
    <rdf:RDF>
      <cc:Work
         rdf:about="">
        <dc:format>image/svg+xml</dc:format>
        <dc:type
           rdf:resource="http://purl.org/dc/dcmitype/StillImage" />
        <dc:title></dc:title>
      </cc:Work>
    </rdf:RDF>
  </metadata>
  <defs
     id="defs6" />
  <sodipodi:namedview
     pagecolor="#ffffff"
     bordercolor="#666666"
     borderopacity="1"
     objecttolerance="10"
     gridtolerance="10"
     guidetolerance="10"
     inkscape:pageopacity="0"
     inkscape:pageshadow="2"
     inkscape:window-width="1920"
     inkscape:window-height="1176"
     id="namedview4"
     showgrid="false"
     fit-margin-top="0"
     fit-margin-left="0"
     fit-margin-right="0"
     fit-margin-bottom="0"
     inkscape:zoom="1"
     inkscape:cx="478.4688"
     inkscape:cy="473.98641"
     inkscape:window-x="0"
     inkscape:window-y="24"
     inkscape:window-maximized="1"
     inkscape:current-layer="svg2" />
  <path
     style="fill:#000000"
     d="m 386.78542,943.97715 c -0.34134,-0.9625 -1.22494,-2.45791 -1.96355,-3.32314 -0.73861,-0.86523 -1.56499,-3.76764 -1.83639,-6.44979 -0.98292,-9.71391 -3.87389,-15.5239 -10.5793,-21.26118 -4.17203,-3.56968 -4.63987,-3.71671 -11.89015,-3.73675 -4.15097,-0.0115 -9.63836,-0.65491 -12.19419,-1.42985 -3.94238,-1.19535 -5.76183,-1.20571 -12,-0.0683 -9.87483,1.80046 -11.7774,2.9096 -15.73155,9.17098 -2.84247,4.50105 -4.45906,5.86534 -10.18908,8.59895 -3.74582,1.787 -7.06299,3.2491 -7.37149,3.2491 -1.49495,0 1.12149,-12.94893 3.48277,-17.23643 0.52597,-0.95504 0.95631,-3.25002 0.95631,-5.09996 0,-3.75195 4.12287,-10.20365 8.24756,-12.90625 1.39747,-0.91565 5.40096,-2.6243 8.89664,-3.79698 3.49569,-1.17269 7.0308,-2.71528 7.8558,-3.42799 2.18548,-1.88801 5.64359,-2.75767 12.09681,-3.04217 6.62357,-0.292 7.90319,-0.87312 7.90319,-3.58908 0,-1.08945 0.90308,-3.75099 2.00683,-5.91453 3.35906,-6.58429 2.88546,-14.55096 -1.66374,-27.98661 -4.51548,-13.33609 -7.00016,-19.88346 -8.01472,-21.11955 -1.8607,-2.26699 -8.00564,-15.99669 -9.64757,-21.55567 -1.05503,-3.57194 -1.31267,-6.82483 -0.83162,-10.5 1.33283,-10.18291 -1.5372,-18.98845 -5.19859,-15.94976 -1.01181,0.83973 -1.28929,2.39977 -0.91852,5.1641 0.49511,3.69133 0.36272,3.96088 -1.94541,3.96088 -2.71903,0 -5.17311,-2.26291 -6.23577,-5.75 -0.37711,-1.2375 -1.36747,-2.25 -2.20079,-2.25 -1.18654,0 -1.44301,1.0241 -1.18261,4.72216 0.2731,3.87844 0.0159,4.78567 -1.43942,5.07755 -1.28814,0.25835 -2.31977,-0.88311 -3.77847,-4.18074 -1.1036,-2.49487 -2.44691,-4.80829 -2.98514,-5.14093 -1.88065,-1.16231 -2.23413,2.73323 -0.56553,6.23234 l 1.68267,3.5286 -3.08723,-0.45311 c -1.69798,-0.24921 -5.20384,0.0939 -7.7908,0.76243 -3.74535,0.9679 -5.21288,0.95697 -7.20357,-0.0537 -1.375,-0.69806 -3.625,-1.76666 -5,-2.37466 -1.375,-0.608 -3.26116,-1.6523 -4.19146,-2.32067 -1.36937,-0.98382 -2.05085,-0.88999 -3.57874,0.49274 -1.03801,0.93938 -2.53922,1.70796 -3.33603,1.70796 -2.48615,0 -5.86314,-2.99092 -7.32363,-6.48638 -2.23084,-5.33913 -7.57014,-7.12807 -7.57014,-2.53638 0,3.17274 -1.13528,5.02277 -3.08224,5.02277 -1.61007,0 -1.72835,0.36799 -0.85585,2.66284 1.30237,3.42549 -0.22678,5.26799 -2.69294,3.24478 -1.54435,-1.26697 -1.65789,-1.18289 -1.13626,0.84138 0.31874,1.23696 0.15206,2.5132 -0.37039,2.83609 -1.76179,1.08885 -3.53182,-1.53041 -4.76845,-7.05622 -0.67632,-3.02212 -1.71474,-5.79456 -2.30761,-6.16097 -0.73545,-0.45453 -0.84249,0.25494 -0.3369,2.23295 0.40758,1.59453 0.94992,5.44358 1.20521,8.55344 0.50605,6.16467 -0.8194,8.32403 -3.1893,5.19585 -1.3141,-1.73456 -1.40365,-1.68203 -1.43347,0.84084 -0.0697,5.89479 -3.15149,4.2497 -5.04115,-2.69098 -0.74871,-2.75 -2.10356,-6.23432 -3.01078,-7.74293 l -1.64948,-2.74292 -1.32898,2.48321 c -1.14908,2.14708 -1.0969,2.73965 0.38552,4.3777 1.3225,1.46134 1.64573,3.34674 1.41378,8.24637 l -0.30071,6.35188 -4,0.68216 c -3.10683,0.52983 -4.28629,0.31285 -5.28214,-0.97175 -1.16178,-1.49863 -1.33823,-1.43942 -1.87958,0.63069 -0.5287,2.02174 -1.12538,2.25013 -5.18625,1.98509 -4.15268,-0.27103 -4.85961,-0.70364 -7.43794,-4.55161 -2.34214,-3.49548 -3.262,-4.14848 -5.16949,-3.66973 -2.72736,0.68452 -6.18571,-3.25194 -9.56139,-10.88321 -1.14224,-2.58222 -2.22153,-4.69495 -2.39843,-4.69495 -0.17689,0 -2.34662,2.025 -4.82162,4.5 -2.475,2.475 -5.23421,4.5 -6.13158,4.5 -2.13374,0 -2.16382,-4.25807 -0.0528,-7.47984 3.38448,-5.16537 3.41633,-19.35185 0.0409,-18.22672 -0.56964,0.18988 -1.87031,2.78903 -2.89039,5.7759 -2.17529,6.36942 -6.08702,10.97292 -7.837,9.22294 -1.72817,-1.72817 -1.1673,-13.84282 1.02593,-22.15989 1.38265,-5.24319 1.67455,-8.07332 1.01233,-9.8151 -0.51181,-1.34612 -0.93055,-3.68704 -0.93055,-5.20205 0,-1.69188 -0.96448,-3.59317 -2.5,-4.92829 -1.375,-1.19555 -2.5,-2.81904 -2.5,-3.60776 0,-0.78871 -1.22715,-2.39931 -2.727,-3.57909 -1.49985,-1.17978 -4.10516,-4.02494 -5.78957,-6.32258 -1.68442,-2.29764 -7.31977,-8.47803 -12.523,-13.73421 -5.20324,-5.25619 -10.54487,-11.55619 -11.87031,-14 -1.32543,-2.44382 -3.13612,-5.80127 -4.02376,-7.461 -1.46048,-2.73086 -1.8391,-2.9054 -3.98339,-1.83636 -1.30322,0.64973 -2.86753,0.97271 -3.47624,0.71773 -1.29239,-0.54137 -6.60673,-7.9856 -6.60673,-9.25458 0,-0.47532 -0.65198,-1.40531 -1.44885,-2.06665 -0.79686,-0.66134 -1.9802,-2.85394 -2.62963,-4.87244 -0.76105,-2.36543 -3.50742,-5.81928 -7.72603,-9.7163 -7.112033,-6.56986 -6.432613,-4.88201 -8.837133,-21.95371 -0.31865,-2.26235 -1.63466,-5.14087 -3.02941,-6.62625 -2.00498,-2.13526 -2.34668,-3.26234 -1.82771,-6.02868 0.53965,-2.8766 0.18736,-3.86163 -2.27956,-6.37375 -1.60483,-1.63422 -3.77373,-3.4719 -4.81977,-4.08372 -1.04605,-0.61183 -1.91023,-1.74515 -1.9204,-2.5185 -0.0204,-1.55229 -4.46168,-6.3691 -5.87252,-6.3691 -0.49006,0 -1.39006,-0.89315 -2,-1.98478 -0.60995,-1.09163 -1.93652,-2.60769 -2.94795,-3.36902 -1.42046,-1.06921 -1.69462,-2.15367 -1.20469,-4.76522 0.5292,-2.8209 0.33687,-3.38137 -1.16104,-3.38333 -0.98742,-10e-4 -3.35138,-1.33225 -5.25325,-2.95769 -1.90186,-1.62545 -4.37686,-3.08689 -5.5,-3.24766 -1.12313,-0.16076 -2.48642,-1.30514 -3.02952,-2.54307 -0.82025,-1.86963 -1.52276,-2.15034 -4.14867,-1.65771 -2.21325,0.4152 -3.41649,0.1528 -4.01254,-0.87508 -0.46823,-0.80747 -2.29315,-2.6716 -4.05538,-4.14251 l -3.20405,-2.67439 -2.05811,4.03423 c -2.83161,5.5504 -8.28475,6.91358 -13.63443,3.40833 -1.95615,-1.28172 -2.61275,-1.28735 -5.07316,-0.0435 -1.55441,0.78582 -4.92402,1.44885 -7.4880198,1.4734 -3.69126,0.0353 -5.14183,-0.4663 -6.96738,-2.40951 -2.16305003,-2.30248 -2.30757003,-3.27031 -2.33818003,-15.65833 -0.0263,-10.65791 0.30484,-13.86051 1.71738003,-16.6078 0.9625,-1.872 1.75,-4.06756 1.75,-4.87901 0,-2.45235 5.02658,-15.58924 6.6522798,-17.38561 1.7419,-1.92479 13.69582,-7.96249 20.34772,-10.27726 3.9596,-1.37788 9.13787,-2.369 22,-4.21077 9.53614,-1.36552 33.77686,-2.43881 43.97119,-1.94689 11.409733,0.55058 11.486153,0.5392 14.265923,-2.12398 2.66769,-2.55582 2.98719,-2.62018 7.02881,-1.41592 2.32874,0.69388 5.15917,1.49568 6.28983,1.78178 1.90739,0.48265 10.8299,-4.13864 14.26568,-7.3887 1.59655,-1.51025 2.84773,-1.59433 3.68024,-0.2473 0.40711,0.65872 1.34422,0.61496 2.73161,-0.12755 1.16155,-0.62164 4.60035,-1.07289 7.64178,-1.00277 4.95251,0.11417 5.87512,-0.20715 8.83661,-3.07754 2.95304,-2.8622 3.46868,-3.04306 4.82087,-1.69087 0.83278,0.83278 1.70417,3.01559 1.93641,4.8507 0.62201,4.91482 1.732,5.45996 6.11022,3.00086 5.24067,-2.9435 11.43077,-2.27551 15.56999,1.6802 2.34708,2.24303 2.90289,3.51181 2.56261,5.84981 -0.23899,1.64205 -0.11989,3.66705 0.26466,4.5 1.20167,2.60289 3.76883,7.28468 7.44992,13.58663 3.846,6.58425 3.89084,6.92243 3.20961,24.20729 -0.29482,7.4806 -0.93116,12.02732 -1.88938,13.5 -4.99976,7.684 -5.38454,39.13464 -0.66301,54.1914 1.03984,3.31603 1.89643,7.33666 1.90353,8.93475 0.024,5.40053 14.91096,21.94114 23.5089,26.12025 4.35576,2.11715 6.10513,2.38643 13.504,2.07868 4.675,-0.19445 9.24033,-0.66506 10.14519,-1.04581 0.90485,-0.38075 3.5267,-0.18563 5.82632,0.4336 3.09513,0.83343 4.53293,0.83391 5.5355,0.002 1.8164,-1.50748 6.56478,-1.56132 9.28541,-0.10528 2.35057,1.25798 5.63606,0.18331 7.70758,-2.52112 1.11852,-1.46026 18.8853,-10.34994 20.78436,-10.39954 0.6686,-0.0175 2.76898,-1.59246 4.6675,-3.5 1.89853,-1.90754 4.43262,-3.46825 5.63131,-3.46825 1.32352,0 3.24815,-1.40113 4.90064,-3.56766 1.61276,-2.11444 3.28949,-3.34958 4.11637,-3.03227 0.76736,0.29446 3.37603,-0.80147 5.79706,-2.4354 3.98994,-2.69277 4.44252,-3.41499 4.83639,-7.71772 0.5579,-6.09474 -3.38687,-17.45387 -9.72127,-27.99275 -2.521,-4.19434 -4.35346,-8.2259 -4.07213,-8.95904 1.35703,-3.53636 -3.30944,-10.50864 -15.94023,-23.81668 -7.20276,-7.58896 -13.41104,-15.02823 -13.92173,-16.68216 -0.50696,-1.64181 -2.49554,-4.18014 -4.41908,-5.64072 -7.14156,-5.42272 -13.40964,-11.71972 -15.01028,-15.07953 -1.34974,-2.83315 -2.49449,-3.67541 -6.30934,-4.64214 -2.56324,-0.64956 -6.61324,-2.54379 -9,-4.20941 -2.38676,-1.66562 -5.95726,-3.30482 -7.93443,-3.64267 -3.31333,-0.56616 -8.95303,-3.23917 -27.29729,-12.93792 -3.79069,-2.0043 -7.46105,-3.64407 -8.15637,-3.64407 -0.69532,0 -4.79385,-2.32613 -9.10785,-5.16917 -4.314,-2.84305 -9.48618,-6.2481 -11.49374,-7.56678 -2.00756,-1.31868 -4.93256,-3.70506 -6.5,-5.30305 -1.56744,-1.59799 -3.42154,-2.91794 -4.12022,-2.93322 -2.07006,-0.0453 -21.21559,-17.99425 -24.60486,-23.06713 -10.31631,-15.4409 -12.37434,-18.88404 -13.61398,-22.77659 -2.93777,-9.22481 -10.77245,-19.21688 -22.40346,-28.57257 -5.00905,-4.02916 -12.69747,-11.10254 -17.085383,-15.71862 -4.3879,-4.61608 -11.23789,-11.54287 -15.22218,-15.39287 -6.41515,-6.19892 -7.65657,-8.02996 -10.84779,-16 -1.98198,-4.95 -4.43079,-10.35 -5.44179,-12 -2.77993,-4.53696 -6.11604,-14.2795 -7.19098,-21 -2.13594,-13.35388 -2.44614,-16.5 -1.62687,-16.5 0.47169,0 1.13303,1.37704 1.46964,3.0601 0.33661,1.68305 1.80373,4.27055 3.26027,5.75 1.45654,1.47944 3.64002,4.10254 4.85217,5.82909 3.10298,4.41978 9.28094,10.4446 10.15571,9.90397 1.04945,-0.6486 13.06983,11.08003 13.06983,12.75261 0,1.38851 3.05106,4.70423 4.32874,4.70423 2.6985,0 -2.22903,-8.54402 -7.78574,-13.5 -4.32938,-3.86133 -10.1699,-15.04589 -15.41827,-29.52593 -2.28737,-6.31074 -4.59189,-12.37407 -5.12116,-13.47407 -1.83777,-3.81954 -3.18063,-8.02749 -4.14859,-13 -3.55363,-18.25519 -4.10643,-23.40631 -4.34636,-40.5 -0.14282,-10.175 -0.6041,-21.09995 -1.02508,-24.27766 -0.5492,-4.14564 -0.3202,-7.5353 0.81068,-12 0.86685,-3.42229 1.8033,-10.08801 2.08099,-14.81271 0.2777,-4.7247 1.15144,-10.1247 1.94166,-12 0.79022,-1.8753 2.08674,-5.40781 2.88115,-7.85003 1.86365,-5.72929 3.89582,-6.61238 3.16541,-1.37554 -0.29273,2.09877 -0.94426,5.12059 -1.44783,6.71516 -1.20407,3.81266 -1.16221,6.60078 0.0991,6.60078 1.35702,0 4.97686,-6.0347 4.98156,-8.30486 0.002,-0.99268 0.84742,-3.69268 1.87858,-6 1.15765,-2.59037 2.13544,-7.90272 2.55609,-13.88735 0.61348,-8.72791 2.7895,-22.51867 5.49227,-34.80779 0.54433,-2.475 1.0093,-4.8375 1.03325,-5.25 0.0239,-0.4125 0.89347,-0.75 1.93226,-0.75 1.37091,0 2.0708,-0.97066 2.55292,-3.54055 1.05458,-5.62138 4.41629,-12.6758 5.80853,-12.18899 0.68741,0.24037 1.10718,1.22329 0.93281,2.18427 -0.23916,1.31813 0.68183,0.94455 3.75,-1.52111 2.23687,-1.79759 4.067033,-3.60851 4.067033,-4.02426 0,-1.46237 5.19435,-6.90936 6.58889,-6.90936 3.80786,0 -0.99497,21.53649 -8.201833,36.77803 -2.41288,5.10292 -4.38706,9.94042 -4.38706,10.75 0,2.75665 1.92884,1.48041 6.087753,-4.02803 2.2839,-3.025 4.54848,-5.5 5.0324,-5.5 1.58165,0 0.92689,5.12763 -1.52146,11.91501 -2.13353,5.91465 -2.83635,9.46217 -4.0782,20.58499 -0.53657,4.80588 0.53411,8.63613 2.31803,8.29258 1.19769,-0.23065 1.99075,-3.14421 3.34731,-12.29742 1.97078,-13.2975 6.18157,-28.38645 8.40457,-30.11689 0.79256,-0.61695 2.38655,-4.89195 3.5422,-9.5 1.98114,-7.89958 8.73738,-24.12019 13.27671,-31.875154 1.1278,-1.926714 4.64707,-7.436065 7.82061,-12.243002 3.17355,-4.806938 5.77008,-9.146293 5.77008,-9.643011 0,-1.14085 2.49353,-2.117103 5.40747,-2.117103 2.49306,0 6.01143,-3.339538 7.01632,-6.659695 1.04045,-3.437653 3.08495,-4.490565 9.28043,-4.779397 6.7302,-0.313761 10.29578,0.723924 10.29578,2.996369 0,2.516647 -4.96046,16.344691 -8.13021,22.664206 -1.57839,3.146816 -2.86979,6.785568 -2.86979,8.086115 0,1.340208 -2.16614,5.063692 -5,8.594752 -2.75,3.42656 -5,6.81462 -5,7.52902 0,0.7144 -0.9094,2.45503 -2.02089,3.86806 -1.21169,1.54041 -1.92851,3.78158 -1.79017,5.59706 0.15018,1.97095 -0.52836,3.83591 -1.94384,5.34261 -1.46117,1.55534 -1.98383,3.044 -1.59319,4.5378 0.78699,3.00944 2.16473,2.80186 2.98066,-0.44908 0.62645,-2.49599 3.75723,-8.35717 9.5228,-17.82782 1.33932,-2.2 3.31477,-5.45966 4.38988,-7.24368 2.08072,-3.45271 6.30731,-4.74698 4.91905,-1.50632 -0.74589,1.74114 -1.39758,7.00295 -1.84286,14.87945 -0.12839,2.2712 -0.99574,5.29286 -1.92744,6.71482 -0.9317,1.42195 -1.694,3.8762 -1.694,5.45388 0,1.57768 -0.3084,3.17692 -0.68534,3.55385 -1.26506,1.26506 -3.2844,8.11819 -3.2996,11.198 -0.008,1.6775 -0.56629,3.60123 -1.24002,4.27496 -0.96661,0.96661 -0.96323,1.64405 0.016,3.21208 1.32029,2.11412 0.81739,5.57188 -1.43932,9.89631 -1.73803,3.33048 -1.80789,9.3852 -0.10174,8.81712 0.6875,-0.22891 1.38784,-1.27891 1.5563,-2.33334 0.4083,-2.55548 6.36205,-14.65245 7.83393,-15.91713 0.64011,-0.55 2.37316,-3.6035 3.85124,-6.78555 2.67779,-5.76485 6.48077,-9.46767 8.46455,-8.24163 1.44186,0.89112 1.30653,3.69461 -0.29227,6.05467 -2.93857,4.33777 -4.83359,16.52479 -5.25661,33.80548 -0.23112,9.44187 -0.48218,17.61703 -0.55791,18.16703 -0.32229,2.34072 3.24556,8.60096 5.35634,9.39838 3.01956,1.14074 3.79443,0.56355 3.79443,-2.82641 0,-4.25813 2.83438,-19.61436 4.15551,-22.51394 0.64104,-1.40692 1.50033,-2.55803 1.90955,-2.55803 1.58304,0 7.09412,11.28293 6.53579,13.38087 -0.31018,1.16552 -0.12508,7.06913 0.41133,13.11913 0.53641,6.05 1.16741,13.25 1.40221,16 0.79676,9.33162 1.84637,15.54312 2.71742,16.08146 0.4775,0.29512 0.86819,1.88232 0.86819,3.52712 0,2.07407 1.09062,4.11353 3.55877,6.6549 4.46231,4.5947 5.40444,3.52081 5.42592,-6.18474 0.0113,-5.11204 0.46254,-7.41544 1.7262,-8.81177 0.94098,-1.03978 1.95348,-4.00021 2.25,-6.57874 0.48451,-4.2134 0.81763,-4.72028 3.28911,-5.00465 2.71762,-0.3127 2.75,-0.24878 2.75,5.429 0,3.15998 0.49068,7.35237 1.0904,9.31642 0.59972,1.96405 1.54998,5.146 2.11168,7.071 0.5617,1.925 1.98352,4.27749 3.15959,5.22776 1.17608,0.95027 1.57583,1.73777 0.88833,1.75 -0.6875,0.0122 -1.25,0.52734 -1.25,1.14468 0,0.7618 0.49557,0.71116 1.54238,-0.15761 2.15681,-1.78999 3.48293,-0.1508 3.94284,4.87366 0.20799,2.2723 0.72203,4.68783 1.14231,5.36786 0.42028,0.68003 0.67423,2.41642 0.56434,3.85864 -0.11631,1.52641 1.04793,4.46364 2.78596,7.02862 1.64218,2.42351 2.99396,5.00189 3.00397,5.72971 0.01,0.72783 0.8057,1.17381 1.7682,0.99106 1.23935,-0.23531 1.8959,-1.57875 2.25,-4.60401 l 0.5,-4.27175 6.3175,5.78069 c 3.98012,3.64193 6.37334,6.64084 6.46844,8.10551 0.1237,1.90519 0.59548,2.23984 2.61375,1.85402 5.02631,-0.96084 9.16668,3.2439 10.65552,10.82116 0.21614,1.1 2.09213,3.57341 4.16888,5.49647 l 3.77591,3.49646 0.5016,-3.49646 0.50161,-3.49647 4.38726,5.5 c 3.97451,4.98254 10.10955,16.38496 10.10955,18.7893 0,0.5312 0.6705,1.52228 1.49,2.2024 1.23023,1.021 1.63452,0.8459 2.31896,-1.00431 0.81886,-2.2136 0.8586,-2.20235 3.26,0.92262 1.33707,1.73994 3.66854,4.66889 5.18104,6.50877 1.5125,1.83989 2.75,3.82598 2.75,4.41354 0,0.58757 0.57378,1.42816 1.27507,1.86799 1.90187,1.19279 11.72493,16.13021 11.72493,17.82948 0,2.01125 1.67601,1.85132 2.93201,-0.27979 1.34492,-2.28196 2.15268,-1.11117 5.69192,8.25 3.37221,8.91936 5.69493,13.81523 9.35432,19.71722 3.35596,5.4126 6.02175,13.6092 6.02175,18.51526 0,2.53761 0.83913,4.15928 3.39886,6.5685 3.99973,3.76456 6.15741,7.76045 7.1458,13.23358 0.39387,2.18099 1.05312,4.41544 1.46501,4.96544 0.41189,0.55 1.51491,3.7 2.45116,7 1.41415,4.98442 2.56591,6.76168 6.80458,10.5 12.13387,10.70153 16.38553,15.67065 17.67409,20.6566 2.3307,9.01832 4.74691,13.8084 7.23508,14.3434 1.27898,0.275 3.05312,0.95 3.94254,1.5 2.83601,1.75374 11.03222,15.63895 13.07728,22.15425 2.64073,8.41297 5.15514,11.53223 8.9838,11.14483 2.88126,-0.29154 3.09293,0.01 8.39129,11.93972 3.43072,7.72478 5.77023,14.6026 6.34309,18.64777 0.93386,6.59421 2.47271,10.61343 4.06359,10.61343 1.5792,0 2.15763,-1.87231 2.55532,-8.27131 0.21291,-3.42578 0.8355,-10.2414 1.38354,-15.14582 0.54803,-4.90441 0.7611,-9.29789 0.47347,-9.76328 -0.28762,-0.46538 0.61079,-3.32258 1.99648,-6.34931 1.38568,-3.02674 2.81111,-8.30827 3.1676,-11.73672 0.40171,-3.86328 1.76717,-8.43594 3.59098,-12.02557 1.61855,-3.18561 4.00862,-9.99359 5.31129,-15.12884 2.78961,-10.99699 4.52726,-14.68219 7.99404,-16.9537 2.01303,-1.31899 2.55111,-2.49419 2.55111,-5.57178 0,-4.04876 2.51698,-7.9863 8.21773,-12.85574 1.49476,-1.27678 4.15555,-5.24202 5.91287,-8.81165 1.75732,-3.56963 4.05994,-6.95307 5.11692,-7.51875 1.05699,-0.56568 2.56744,-2.57376 3.35657,-4.4624 2.27971,-5.45612 9.88616,-14.80618 17.91152,-22.01735 4.07123,-3.6582 9.71264,-10.07948 12.53646,-14.26952 2.82383,-4.19004 6.21159,-8.19214 7.52837,-8.89354 1.31678,-0.7014 2.68267,-2.5014 3.03531,-4 0.35264,-1.4986 1.42515,-4.07472 2.38336,-5.72472 0.95821,-1.65 3.66537,-6.56872 6.01592,-10.93048 2.35054,-4.36177 5.78374,-9.90874 7.62934,-12.3266 1.8456,-2.41786 3.35563,-4.98065 3.35563,-5.69509 0,-0.71443 1.04977,-3.71746 2.33283,-6.6734 1.28306,-2.95594 3.10979,-9.41631 4.05941,-14.35639 1.16306,-6.05043 2.64655,-10.37087 4.54529,-13.23745 1.5503,-2.34051 3.34452,-6.34363 3.98717,-8.89582 0.64265,-2.55219 2.21671,-6.04534 3.49792,-7.76255 1.28122,-1.71722 3.97362,-6.72222 5.98312,-11.12222 2.00951,-4.4 4.07006,-8.675 4.57896,-9.5 0.509,-0.825 2.3598,-3.96942 4.113,-6.98761 3.9081,-6.72802 14.1383,-16.75778 23.0869,-22.63463 3.6765,-2.41449 6.9721,-5.29623 7.3237,-6.40387 0.3515,-1.10765 2.0851,-3.9174 3.8523,-6.24389 3.4519,-4.54425 12.6042,-19.3365 12.6935,-20.51547 0.03,-0.39299 1.8144,-3.18953 3.966,-6.21453 2.1515,-3.025 5.1401,-7.3 6.6413,-9.5 1.5011,-2.2 3.4961,-4.9 4.4332,-6 0.9372,-1.1 2.4461,-4.21752 3.3532,-6.92783 0.9071,-2.7103 2.2883,-6.0853 3.0693,-7.5 2.0804,-3.76818 4.4829,-10.09275 4.4829,-11.80133 0,-0.8167 1.3318,-4.27542 2.9595,-7.68604 1.6278,-3.41063 4.4963,-10.22496 6.3746,-15.14297 1.8782,-4.91801 4.342,-10.96683 5.4751,-13.44183 3.021,-6.5991 5.8255,-16.49278 7.1479,-25.217076 1.1366,-7.497987 1.0961,-7.829326 -1.7675,-14.478262 -1.6119,-3.742564 -3.4876,-10.390702 -4.1682,-14.77364 -0.6806,-4.382938 -1.7041,-9.107938 -2.2744,-10.5 -1.0852,-2.648529 -2.4854,-9.551877 -3.4082,-16.803012 -0.4874,-3.829955 -0.163,-4.736555 3.1353,-8.76171 3.8131,-4.65343399 5.5259,-4.98549299 5.5259,-1.071328 0,1.398861 1.574,3.68994 4.0815,5.940983 2.2448,2.015225 4.2698,3.664045 4.5,3.664045 1.3325,0 0.054,-2.956322 -2.0815,-4.813051 -4.0285,-3.502716 -3.1118,-4.994075 2.195,-3.571051 3.3903,0.909119 10.7268,16.420787 10.8234,22.884102 0.088,5.857076 2.0785,13.366609 4.1095,15.5 2.0352,2.137857 6.1575,8.137783 7.2424,10.541097 0.5067,1.122604 1.6432,2.640204 2.5255,3.372445 0.8823,0.732241 1.6042,1.937124 1.6042,2.677518 0,0.82123 0.6218,1.107565 1.5946,0.734284 1.3228,-0.507628 1.5358,0.05148 1.25,3.281385 l -0.3446,3.893271 4.2472,0.189467 c 5.03,0.224388 5.5275,-0.436021 7.2989,-9.689467 0.6844,-3.575 1.8446,-7.697112 2.5784,-9.160249 1.0329,-2.059725 1.0816,-3.384448 0.2157,-5.86837 -0.6919,-1.984659 -0.8833,-6.25649 -0.502,-11.201449 0.339,-4.396329 0.118,-11.344706 -0.4913,-15.440836 -1.0946,-7.359689 -1.0766,-7.479885 1.5227,-10.193022 1.4467,-1.510031 2.6304,-3.481831 2.6304,-4.381776 0,-4.810128 4.5489,-2.06333099 5.6731,3.425659 0.3019,1.473976 1.6239,3.689918 2.9379,4.924314 1.4983,1.407581 2.3972,3.391082 2.411,5.320043 0.036,5.092953 4.8981,14.268857 6.2744,11.841998 0.4063,-0.71659 -1.6079,-9.304197 -4.453,-18.984798 -1.4402,-4.9004 -0.5671,-6.505182 2.0272,-3.725958 2.4591,2.634416 4.668,9.163532 6.7474,19.944444 0.9548,4.95 2.3377,9.45 3.0732,10 0.9648,0.72157 1.3604,4.062733 1.4208,12 0.071,9.285166 -0.304,12.107804 -2.403,18.106136 -1.3677,3.908375 -2.2721,8.228472 -2.0099,9.600216 0.2883,1.507952 -0.5227,4.431388 -2.051,7.393868 -3.5423,6.86625 -6.6452,15.44228 -6.6573,18.39978 -0.01,1.375 -1.6209,4.525 -3.5896,7 -2.9412,3.69767 -6.4012,9.97964 -6.4012,11.62212 0,0.20784 1.1447,0.37788 2.5438,0.37788 1.6225,0 2.4374,-0.49272 2.25,-1.3604 -0.1616,-0.74822 1.2002,-3.67219 3.0262,-6.49772 2.8256,-4.37236 3.5976,-4.98876 5.1843,-4.1396 2.5272,1.35251 2.6829,1.30177 3.3049,-1.07649 0.2983,-1.14082 1.4609,-2.31441 2.5835,-2.60797 1.1226,-0.29357 2.3342,-1.49767 2.6924,-2.67579 0.915,-3.00941 9.5896,-16.64203 10.5894,-16.64203 0.454,0 0.8255,-0.675 0.8255,-1.5 0,-0.825 0.45,-1.5 1,-1.5 0.55,0 1,-0.6199 1,-1.37755 0,-0.75766 0.6451,-1.912947 1.4336,-2.567308 0.7884,-0.654361 3.5466,-5.546961 6.1294,-10.872445 2.5827,-5.325483 6.2551,-12.043352 8.1609,-14.928596 1.9058,-2.885245 4.2919,-7.385245 5.3024,-10 2.329,-6.02639 8.1598,-19.162196 9.6077,-21.644499 1.4103,-2.417842 3.0309,-1.411637 3.8685,2.401866 0.361,1.643692 1.2957,2.988532 2.077,2.988532 1.0742,0 1.4242,1.523667 1.4358,6.25 0.019,7.899132 1.4214,10.660139 3.0468,6 0.6235,-1.7875 1.4914,-3.25 1.9287,-3.25 2.4913,0 2.6935,9.579287 0.275,13.027494 -0.9538,1.359878 -1.794,3.822506 -1.8672,5.472506 -0.073,1.65 -0.6886,5.475 -1.3676,8.5 -0.679,3.025 -1.4549,8.425 -1.7243,12 -0.3103,4.118586 -1.0057,6.79298 -1.8982,7.29969 -0.7747,0.43983 -1.4085,1.1841 -1.4085,1.65393 0,0.46984 -1.6034,3.69099 -3.5632,7.15813 -2.3705,4.19385 -4.1162,9.16311 -5.2156,14.84606 -1.1221,5.8003 -2.5924,9.94104 -4.5806,12.90021 -1.6105,2.39691 -3.0738,5.60974 -3.252,7.13961 -0.2649,2.27504 0.1205,2.86653 2.116,3.248 4.0465,0.77354 8.1451,-2.62584 12.0127,-9.96342 1.9661,-3.73022 5.8001,-9.93221 8.5199,-13.78221 2.7197,-3.85 4.949,-8.03424 4.9539,-9.29831 0.01,-1.26407 0.9089,-4.16109 2.0089,-6.43783 1.1,-2.27673 2,-5.15344 2,-6.39267 0,-1.23924 0.4114,-2.50739 0.9142,-2.81813 0.5027,-0.31074 3.4656,-5.713591 6.584,-12.006339 3.1185,-6.292749 6.2862,-11.952841 7.0395,-12.577983 1.0424,-0.865153 2.0725,-0.721362 4.3128,0.602045 2.9216,1.7258 3.8047,4.121676 4.766,12.929217 0.18,1.65 0.7162,4.35 1.1916,6 0.4967,1.724501 0.478,4.420441 -0.044,6.34091 -0.4996,1.8375 -0.6455,4.02573 -0.3243,4.86274 0.3212,0.83701 -0.2944,2.94312 -1.368,4.68025 -1.1607,1.87796 -2.0507,5.32168 -2.1955,8.49446 -0.2015,4.41546 0.1205,5.61947 1.8661,6.97885 1.1602,0.90353 2.4109,3.21779 2.7793,5.14279 1.386,7.24276 2.3946,15.83522 3.0704,26.15799 0.6518,9.95499 0.5564,10.83785 -1.4471,13.38486 -1.1797,1.49978 -2.145,3.58179 -2.145,4.6267 0,2.346 -8.235,17.07396 -12.2063,21.83045 -1.6072,1.925 -4.0641,4.85 -5.4598,6.5 -4.6416,5.48735 -13.2939,16.93867 -16.358,21.64991 -3.4073,5.2388 -15.7701,17.17521 -20.117,19.42309 -1.5724,0.8131 -2.8589,2.13055 -2.8589,2.92768 0,1.51176 1.7699,1.42595 10.5,-0.50908 2.2,-0.48763 6.475,-1.14371 9.5,-1.45796 4.9323,-0.51238 11.7103,-2.76337 22,-7.30633 4.7445,-2.09467 10.7501,-6.13119 14.0872,-9.46834 1.559,-1.55903 3.4418,-2.53967 4.3346,-2.25762 0.868,0.27426 2.2385,0.70388 3.0456,0.95473 1.2689,0.39441 1.2809,0.90213 0.089,3.7552 -1.0561,2.52742 -1.2529,6.86268 -0.8417,18.53348 0.6023,17.09525 0.1758,19.06413 -5.6414,26.04022 -5.5761,6.68696 -13.4953,14.6645 -14.3231,14.42867 -0.4125,-0.11751 -0.75,0.75609 -0.75,1.94134 0,2.11207 0.041,2.11789 2.0585,0.29204 2.6211,-2.37203 5.2985,-0.95464 5.7726,3.05585 0.5149,4.35645 -9.7897,13.48999 -21.5811,19.12847 -5.0875,2.43277 -9.25,4.87506 -9.25,5.42732 0,2.2587 3.317,1.98254 9.235,-0.76886 3.4457,-1.60198 9.64,-3.96341 13.765,-5.24762 5.2167,-1.6241 8.6416,-3.41765 11.25,-5.89151 3.257,-3.08898 3.75,-3.29081 3.75,-1.53513 0,4.0893 -3.1148,12.32689 -6.5485,17.31859 -3.5509,5.16205 -3.8755,8.66448 -0.5217,5.6294 1.0481,-0.94853 3.0805,-1.44829 5.1507,-1.26653 l 3.4195,0.30023 -0.2568,4.84437 c -0.2935,5.53584 -2.384,9.37204 -8.1803,15.01134 -4.6267,4.50144 -4.9328,5.72554 -1.9302,7.71919 3.2831,2.1799 1.6718,5.29482 -7.2584,14.0316 -4.3309,4.23705 -7.8743,7.94955 -7.8743,8.25 0,0.30044 1.7734,0.54626 3.941,0.54626 4.5404,0 6.2328,1.63022 2.9523,2.84378 -1.7094,0.63232 -1.9173,1.02339 -0.8836,1.66223 0.9032,0.55823 1.8298,0.11522 2.7929,-1.33532 1.5418,-2.32202 3.6718,-2.83008 4.7244,-1.12689 0.3549,0.5741 0.1139,1.68397 -0.5355,2.46638 -0.6493,0.78242 -0.9748,2.00021 -0.7233,2.7062 1.014,2.84594 -6.2591,11.77967 -9.595,11.78576 -1.5218,0.003 -12.6598,5.80187 -14.8996,7.75768 -2.5589,2.23437 -1.081,3.52585 3.0909,2.70099 1.9995,-0.39534 4.6877,-0.85049 5.9738,-1.01144 1.286,-0.16096 2.5946,-0.549 2.908,-0.86233 0.3133,-0.31333 1.1642,-0.0763 1.8908,0.52674 0.9403,0.78039 2.1919,0.79289 4.342,0.0433 3.5904,-1.25164 3.6003,-1.18993 0.937,5.84287 -2.216,5.8517 -4.4649,9 -6.4289,9 -0.6616,0 -5.2043,3.05467 -10.095,6.78816 -12.7506,9.73357 -20.8921,12.43508 -37.1422,12.32448 -11.9595,-0.0814 -13.1586,1.09851 -5.6113,5.52154 5.9464,3.48483 7.9857,5.42369 14.0581,13.36582 7.4896,9.79558 7.4756,9.75129 6.9874,22.08785 -0.2393,6.04797 -0.6036,11.10071 -0.8096,11.2283 -0.2061,0.1276 -2.5021,2.13366 -5.1023,4.45792 -3.8516,3.44288 -5.453,4.22598 -8.6416,4.22598 -3.4339,0 -3.9985,-0.33665 -4.6028,-2.74441 -0.7831,-3.12012 -2.3104,-5.25559 -3.7588,-5.25559 -0.5887,0 -0.6873,1.10828 -0.2448,2.75 2.5421,9.43192 -1.375,20.43163 -10.4018,29.2097 -4.4848,4.36123 -6.0161,6.65852 -7.037,10.55725 -0.7177,2.74068 -2.1555,6.89065 -3.1952,9.22215 -1.0397,2.33151 -1.8904,5.12482 -1.8904,6.20737 0,1.09125 -1.6322,3.21261 -3.6632,4.7609 -2.0147,1.53595 -5.0931,4.29607 -6.8407,6.13361 -3.0263,3.18189 -3.3616,3.29016 -7.0425,2.27381 -4.7635,-1.31527 -5.4172,-0.53565 -5.4383,6.48599 -0.018,5.95871 -1.4703,10.70756 -4.5568,14.89922 -1.215,1.65 -3.0109,4.72851 -3.991,6.84114 -1.2231,2.63655 -2.9086,4.32101 -5.3747,5.37133 -6.0949,2.59585 -6.5839,2.94368 -6.8817,4.89471 -0.7861,5.14953 -1.5854,6.64118 -6.3552,11.86016 -6.0271,6.59455 -9.8058,8.83433 -13.3876,7.93536 -1.6101,-0.40411 -3.1786,-0.0996 -4.2586,0.82678 -0.9403,0.80659 -2.4341,1.7216 -3.3196,2.03336 -1.0477,0.36893 -1.8398,2.30028 -2.2684,5.53151 -0.7093,5.34667 -3.9477,11.05583 -7.1988,12.69108 -1.1095,0.55801 -3.4063,2.57255 -5.1042,4.47676 -2.5557,2.86622 -3.6964,3.42114 -6.6272,3.22377 -2.9244,-0.19695 -3.6576,0.15744 -4.2158,2.03781 -0.7679,2.5865 -5.1097,9.32627 -7.7257,11.99258 -0.9625,0.98101 -1.75,2.57115 -1.75,3.53365 0,0.9625 -1.5255,2.96712 -3.3899,4.45472 -3.0535,2.43645 -3.6978,2.58845 -6.4955,1.53244 -2.9222,-1.10303 -3.2844,-0.96746 -6.1309,2.29528 -1.6638,1.90716 -4.3141,5.64419 -5.8895,8.30452 l -2.8643,4.83696 2.8724,5.66304 c 1.5798,3.11467 2.8781,6.96946 2.885,8.5662 0.01,1.59673 1.3627,5.76043 3.0127,9.25267 1.65,3.49223 3,6.72856 3,7.19185 0,0.46329 0.8984,1.6554 1.9965,2.64912 1.4492,1.31158 1.7095,2.1525 0.9496,3.06815 -0.7697,0.92745 0.039,2.6742 3.0532,6.59821 3.8189,4.97088 13.9853,24.07306 14.0131,26.32982 0.01,0.55386 1.5386,1.99532 3.4039,3.20323 1.8852,1.2208 4.1827,3.98934 5.1728,6.23357 1.3598,3.08211 2.6247,4.31127 5.3461,5.19505 6.3635,2.0666 20.486,9.97117 23.6086,13.21412 1.7272,1.79378 5.62,4.07184 9,5.26674 3.2759,1.15813 11.1312,4.02616 17.4562,6.3734 6.325,2.34724 11.95,4.42765 12.5,4.62313 3.6904,1.31168 9.2377,5.5288 10.5,7.98234 1.9781,3.84468 2.5257,4.16591 8.4522,4.9582 7.1567,0.95676 25.7891,5.12034 31.3253,6.99992 5.5587,1.88725 7.1234,3.06649 8.3502,6.29324 1.0556,2.77626 2.1275,2.71087 14.8723,-0.90724 10.8674,-3.08514 14.5217,-3.87901 23.8312,-5.17726 7.9579,-1.10975 8.5277,-1.0576 12.7151,1.16379 2.411,1.27909 4.962,2.09455 5.6687,1.81215 0.7068,-0.2824 4.1491,-5.56199 7.6496,-11.73241 7.6562,-13.49569 13.8466,-21.99258 16.0294,-22.00154 0.8833,-0.004 2.8816,-0.84763 4.4407,-1.87558 2.3226,-1.53131 3.497,-1.69389 6.5,-0.89983 7.2225,1.90973 8.1461,1.6346 10.7506,-3.20253 2.773,-5.15002 2.922,-8.46103 0.9907,-22.01547 -0.7445,-5.225 -1.1578,-9.8282 -0.9186,-10.22933 0.2393,-0.40114 -0.068,-1.66881 -0.6822,-2.81706 -0.8585,-1.60413 -0.7902,-2.59337 0.2949,-4.27067 0.835,-1.29057 1.2328,-3.67565 0.9732,-5.83448 -0.3656,-3.04036 -0.088,-3.76308 1.6608,-4.31801 1.6104,-0.51113 1.9624,-1.21422 1.5101,-3.0163 -0.4355,-1.73537 -0.044,-2.64199 1.498,-3.46717 1.3442,-0.7194 2.0878,-2.10205 2.0878,-3.88216 0,-3.15076 1.6068,-5.16482 4.1205,-5.16482 1.0987,0 1.9588,-1.0844 2.3795,-3 0.6948,-3.16322 2.2943,-3.71564 5.6141,-1.93891 1.6194,0.86663 2.587,0.54593 5.28,-1.75 1.8135,-1.5461 4.1542,-3.3209 5.2016,-3.94401 1.8477,-1.09921 1.8374,-1.20525 -0.3457,-3.56445 -1.2375,-1.33734 -2.25,-3.13493 -2.25,-3.99464 0,-0.8597 -0.675,-2.1233 -1.5,-2.80799 -0.825,-0.68469 -1.5,-1.79504 -1.5,-2.46746 0,-0.67241 -0.9,-2.03705 -2,-3.03254 -1.1,-0.99549 -2,-2.64023 -2,-3.65499 0,-1.01475 -0.923,-2.76803 -2.0511,-3.89616 -1.2762,-1.27612 -1.8276,-2.75573 -1.4594,-3.91585 0.3255,-1.02558 0.1117,-2.16142 -0.4751,-2.52409 -0.5868,-0.36267 -1.0552,-2.08804 -1.0409,-3.83416 0.014,-1.74611 -0.087,-7.15523 -0.2238,-12.02027 -0.1373,-4.86503 0.1243,-9.07663 0.5813,-9.35909 0.4571,-0.28247 0.5516,-1.62692 0.2101,-2.98766 -0.4924,-1.96186 -0.1827,-2.58869 1.4957,-3.0276 1.1642,-0.30444 2.5178,-1.60862 3.0081,-2.89819 0.7382,-1.94152 1.3917,-2.24461 3.8011,-1.76274 2.9316,0.58633 7.154,-0.93342 7.154,-2.57493 0,-0.48695 -1.4625,-1.19807 -3.25,-1.58028 -1.7875,-0.3822 -4.375,-1.28572 -5.75,-2.00781 -3.7377,-1.9629 -11.5816,-3.5721 -20,-4.10305 -4.9999,-0.31535 -7.8812,-0.9683 -8.6437,-1.95882 -0.7788,-1.0118 -1.9946,-1.2722 -3.8112,-0.81626 -2.179,0.54688 -2.7693,0.28052 -3.223,-1.45427 -0.3719,-1.42232 -1.3496,-2.12378 -2.9602,-2.12378 -1.5947,0 -2.7885,-0.84217 -3.5438,-2.5 -0.6265,-1.375 -1.528,-2.5 -2.0034,-2.5 -0.4753,0 -1.2919,-1.125 -1.8147,-2.5 -0.5228,-1.375 -1.4116,-2.5 -1.9752,-2.5 -0.5637,0 -1.0248,-0.85186 -1.0248,-1.89301 0,-1.04116 -0.675,-2.15203 -1.5,-2.46862 -2.2611,-0.86768 -1.912,-6.36415 0.5,-7.87044 2.914,-1.8198 2.4782,-2.98601 -2.0908,-5.59563 -2.2415,-1.28023 -5.8211,-3.90477 -7.9546,-5.83231 -3.9995,-3.61332 -5.9546,-3.69249 -5.9546,-0.24113 0,2.74377 -3.4083,9.15761 -7.1016,13.36404 l -3.0892,3.5185 3.5254,3.42371 c 5.3703,5.21523 9.2345,14.80933 8.4981,21.099 -0.5344,4.56427 -2.3744,3.96958 -5.6442,-1.82417 -5.4415,-9.64172 -15.3449,-15.7414 -22.9478,-14.13392 -1.5074,0.31871 -3.7644,0.78763 -5.0156,1.04204 -2.5186,0.5121 -6.4512,4.22892 -16.3232,15.4273 -7.4655,8.46861 -12.7008,11.58025 -22.0048,13.07861 -5.7652,0.92846 -6.5512,0.81354 -11.4753,-1.67784 -6.2035,-3.13868 -7.5146,-5.57604 -7.8594,-14.611 -0.1323,-3.46782 -0.9656,-7.99395 -1.8517,-10.05807 -2.2188,-5.16859 -2.7084,-24.89779 -0.7382,-29.74923 1.5866,-3.90671 10.0128,-14.82181 15.1654,-19.64481 1.8492,-1.73085 6.4478,-5.46182 10.2193,-8.29106 6.229,-4.67279 10.2637,-6.83181 29.1428,-15.59436 11.5099,-5.34223 33.5575,-9.4779 41.2018,-7.72862 3.2546,0.74476 5.4502,0.75331 7.2353,0.0282 5.0041,-2.03264 11.234,-2.51993 15.5625,-1.21726 5.8222,1.75225 16.6146,7.15952 23.1806,11.6141 2.2991,1.5598 4.4355,2.83599 4.7477,2.83599 0.7427,0 8.7929,5.65986 20.3918,14.33686 15.3979,11.51909 31.8716,30.94286 32.9289,38.82573 0.3475,2.59079 1.7282,5.20021 4.1577,7.85811 2.0006,2.18862 3.9771,3.9793 4.3922,3.9793 1.6781,0 7.3347,6.16885 9.3544,10.2014 5.6692,11.31954 6.4238,14.00795 8.2987,29.56428 1.2157,10.08682 -0.3178,37.67058 -2.5922,46.62564 -0.8533,3.35978 -2.1262,8.62501 -2.8288,11.70053 -0.7025,3.07552 -1.9632,6.67552 -2.8015,8 -0.8383,1.32448 -2.0165,6.68315 -2.6183,11.90815 -1.9756,17.15541 -7.669,32.21344 -18.4769,48.86835 -7.4554,11.4888 -15.7892,20.09804 -22.6344,23.3824 -2.9472,1.41412 -5.1646,3.3078 -5.9722,5.10026 -0.7064,1.56806 -3.0244,4.04306 -5.151,5.5 -3.5333,2.42061 -3.8196,2.95333 -3.3208,6.17893 0.4381,2.83247 -0.024,4.31439 -2.3407,7.5 -7.1124,9.78202 -19.3237,20.08155 -35.2148,29.70184 -10.6178,6.42789 -14.2433,7.78074 -24.9863,9.32353 -5.8508,0.84024 -9.6457,1.85715 -9.9024,2.65351 -1.3846,4.29582 -13.655,12.28975 -24.277,15.81592 -3.4839,1.15654 -9.0343,3.16706 -12.3343,4.46783 -3.3,1.30077 -11.0622,3.76888 -17.2494,5.48468 l -11.2494,3.11965 -4.4308,-3.04845 c -2.437,-1.67666 -4.7452,-3.04846 -5.1295,-3.04846 -0.3842,0 -2.4273,1.5618 -4.5402,3.47067 -5.5481,5.01232 -14.7771,9.343 -22.8672,10.73029 -13.2765,2.27668 -27.8322,-2.25552 -38.1054,-11.86489 l -4.8188,-4.50742 -4.3047,2.95115 c -6.0558,4.15165 -13.3936,7.72683 -19.6975,9.59719 -12.8037,3.79881 -29.8184,2.96516 -41.5534,-2.03594 -4.0684,-1.73379 -9.1679,-2.86882 -15.549,-3.46082 -14.1149,-1.30948 -23.3742,-4.46391 -34.27172,-11.67557 -3.68174,-2.43646 -4.59228,-2.56772 -19.04982,-2.74629 -12.16619,-0.15026 -16.77294,-0.62666 -23.18326,-2.39743 -19.72959,-5.45007 -37.70038,-16.92464 -49.73301,-31.75511 l -5.23677,-6.45443 -2.10016,2.63385 c -1.15509,1.44862 -3.84421,6.09456 -5.97583,10.3243 -2.13162,4.22975 -3.97629,7.84839 -4.09927,8.04144 -0.12298,0.19304 -1.89062,-0.92051 -3.92809,-2.47457 l -3.70449,-2.82555 -3.86565,4.47457 c -2.1261,2.46101 -4.11896,5.26206 -4.42857,6.22456 -1.10562,3.43704 -1.94885,1.65396 -2.02963,-4.29178 -0.0924,-6.80296 -1.7237,-9.76259 -3.23007,-5.86035 -0.51001,1.32117 -1.54405,5.10213 -2.29787,8.40213 -1.57551,6.8971 -3.25371,7.82246 -3.62711,2 -0.45942,-7.16383 -1.25177,-10.20354 -3.26467,-12.52443 -1.08835,-1.25488 -1.97881,-3.13929 -1.97881,-4.1876 0,-1.0483 -0.36455,-1.6807 -0.81012,-1.40532 -1.45877,0.90157 -1.29213,9.0761 0.27561,13.51955 0.84398,2.39209 1.53451,5.81519 1.53451,7.6069 0,2.36904 0.52264,3.39431 1.91603,3.75869 1.11361,0.29122 2.93693,2.7481 4.35377,5.86663 4.57894,10.07843 9.2247,21.3648 9.0337,21.94643 -0.1049,0.31946 0.90883,4.14446 2.25275,8.5 3.1857,10.32465 3.22416,18.4743 0.0868,18.38754 -0.62865,-0.0174 -2.36974,-2.0529 -3.86909,-4.52337 -3.25419,-5.36195 -6.16587,-6.77035 -9.97426,-4.82463 -1.48519,0.75878 -3.58268,1.37961 -4.66111,1.37961 -2.67634,0 -7.46381,-5.79698 -6.51601,-7.89002 0.40098,-0.88549 0.92071,-5.57398 1.15495,-10.41887 0.55663,-11.51265 -0.45535,-12.90316 -8.7589,-12.03526 -4.46195,0.46636 -6.9767,0.12937 -11.40859,-1.52881 -7.06942,-2.64501 -9.64945,-2.67045 -12.88287,-0.12704 -1.39842,1.1 -2.95567,2 -3.46055,2 -0.50487,0 -1.94004,1.08796 -3.18925,2.41769 -2.00013,2.12903 -2.20103,3.10755 -1.68275,8.19577 0.49374,4.84726 1.30305,6.69814 5.02376,11.48936 5.49572,7.07696 11.58162,20.02139 11.58162,24.63364 0,1.90014 -0.84096,4.64927 -1.8688,6.10917 -1.02785,1.4599 -2.1997,3.77937 -2.60413,5.15437 -1.81695,6.17739 -5.84219,9.10821 -7.21045,5.25 z m 14.00977,-90.22605 c 2.43167,-2.88987 4.4049,-8.62599 3.3353,-9.69559 -1.05498,-1.05499 -2.66169,0.8458 -2.66169,3.14887 0,3.67082 -1.04187,5.52277 -3.10699,5.52277 -1.22634,0 -1.89301,0.70435 -1.89301,2 0,2.80842 1.40955,2.49042 4.32639,-0.97605 z m -1.97705,-5.55598 c -0.30983,-0.80738 -0.96517,-1.46797 -1.45633,-1.46797 -1.0261,0 -1.20654,2.35313 -0.25353,3.30615 1.06676,1.06675 2.31121,-0.27108 1.70986,-1.83818 z M 242.4688,787.72715 c 0,-1.65 -0.45,-3 -1,-3 -0.55,0 -1,1.35 -1,3 0,1.65 0.45,3 1,3 0.55,0 1,-1.35 1,-3 z m 463.5,-728 c -0.3399,-0.55 -0.8165,-1 -1.059,-1 -0.2426,0 -0.441,0.45 -0.441,1 0,0.55 0.4766,1 1.059,1 0.5825,0 0.7809,-0.45 0.441,-1 z"
     id="path2987"
     inkscape:connector-curvature="0" />
</svg>
