<?xml version="1.0" standalone="no"?>
<!DOCTYPE svg PUBLIC "-//W3C//DTD SVG 20010904//EN"
 "http://www.w3.org/TR/2001/REC-SVG-20010904/DTD/svg10.dtd">
<svg version="1.0" xmlns="http://www.w3.org/2000/svg"
 width="1350.000000pt" height="1254.000000pt" viewBox="0 0 1350.000000 1254.000000"
 preserveAspectRatio="xMidYMid meet">
<metadata>
Created by potrace 1.10, written by Peter Selinger 2001-2011
</metadata>
<g transform="translate(0.000000,1254.000000) scale(0.100000,-0.100000)"
fill="#000000" stroke="none">
<path d="M6150 12399 c-246 -25 -563 -70 -660 -94 -30 -7 -91 -21 -135 -30
-44 -9 -102 -23 -130 -30 -27 -8 -79 -21 -115 -30 -36 -9 -88 -23 -116 -31
-28 -8 -56 -14 -63 -14 -7 0 -27 -6 -44 -14 -33 -15 -78 -30 -182 -62 -33 -10
-71 -24 -85 -31 -14 -7 -30 -13 -37 -13 -7 0 -27 -6 -45 -14 -18 -8 -85 -35
-148 -61 -63 -25 -133 -54 -155 -65 -22 -10 -87 -40 -145 -66 -97 -44 -190
-91 -300 -152 -25 -13 -74 -40 -110 -60 -272 -145 -671 -422 -970 -671 -210
-176 -634 -613 -826 -851 -169 -210 -383 -523 -519 -760 -154 -267 -329 -638
-450 -955 -14 -38 -33 -86 -40 -105 -8 -19 -22 -62 -31 -95 -9 -33 -30 -100
-45 -149 -16 -49 -29 -94 -29 -100 0 -6 -13 -53 -29 -106 -29 -95 -46 -166
-75 -312 -40 -195 -46 -231 -61 -358 -9 -74 -23 -187 -31 -250 -24 -180 -31
-435 -23 -825 9 -450 34 -679 114 -1055 7 -36 21 -103 30 -150 9 -47 21 -98
27 -115 5 -16 21 -70 34 -120 27 -101 65 -226 101 -330 13 -38 35 -102 48
-140 13 -39 29 -84 35 -100 159 -392 303 -683 493 -1000 78 -130 239 -374 297
-449 25 -32 63 -82 84 -110 22 -28 82 -103 135 -166 407 -486 845 -883 1316
-1191 231 -151 290 -188 450 -274 22 -12 67 -37 100 -55 196 -107 436 -220
560 -262 33 -11 65 -24 70 -28 26 -21 485 -174 645 -216 36 -9 88 -23 115 -30
28 -7 91 -20 140 -29 50 -9 119 -23 155 -30 172 -37 239 -47 630 -92 189 -22
875 -25 1025 -5 50 7 142 17 205 22 162 14 387 47 510 75 30 7 96 20 145 30
50 9 117 23 150 32 33 9 84 22 113 29 120 32 169 46 202 58 19 7 62 21 95 31
33 9 77 23 98 31 20 8 54 20 75 28 20 8 55 21 77 29 22 9 83 32 135 52 241 92
669 306 910 455 8 5 35 21 60 36 44 26 210 136 280 185 125 87 403 305 485
379 433 396 641 623 935 1016 25 34 118 166 198 284 68 99 193 311 260 442 34
64 66 125 71 135 15 25 131 272 131 278 0 2 18 41 39 87 62 133 66 143 149
383 62 182 157 508 187 645 9 41 22 102 30 135 15 66 36 186 92 530 16 97 18
180 18 705 0 518 -2 607 -17 685 -9 50 -22 131 -28 180 -22 188 -76 459 -125
625 -7 25 -21 74 -30 110 -52 196 -183 592 -226 688 -16 35 -29 67 -29 71 0 8
-23 63 -72 171 -43 93 -186 376 -229 450 -12 19 -41 71 -66 115 -26 44 -61
103 -80 132 -18 28 -33 53 -33 55 0 7 -122 188 -200 298 -72 101 -191 257
-255 331 -16 19 -43 51 -60 71 -123 145 -183 210 -355 381 -308 306 -525 491
-799 678 -245 168 -393 262 -523 333 -27 14 -69 38 -95 52 -27 15 -93 49 -148
76 -55 27 -120 60 -145 73 -25 12 -105 49 -179 80 -74 31 -142 60 -150 65 -53
25 -125 53 -201 79 -166 57 -336 111 -390 125 -36 9 -87 23 -115 31 -88 24
-168 43 -255 60 -47 9 -114 23 -150 30 -187 40 -361 66 -608 90 -169 17 -937
19 -1092 4z m324 -699 c34 -12 33 -34 -4 -108 -16 -34 -30 -65 -30 -70 0 -6
-15 -43 -34 -83 -47 -103 -68 -150 -111 -254 -21 -49 -51 -118 -66 -153 -16
-34 -29 -66 -29 -71 0 -6 -20 -53 -45 -105 -25 -53 -45 -99 -45 -102 0 -6 -18
-48 -45 -109 -8 -16 -37 -86 -65 -155 -29 -69 -62 -147 -75 -175 -12 -27 -50
-117 -84 -200 -35 -82 -69 -163 -77 -180 -7 -16 -27 -61 -43 -100 -26 -63 -82
-193 -130 -300 -10 -22 -26 -60 -36 -85 -10 -25 -31 -73 -47 -108 -15 -34 -28
-66 -28 -71 0 -5 -16 -44 -36 -87 -43 -95 -38 -83 -120 -269 -36 -82 -79 -186
-95 -229 -16 -44 -33 -84 -39 -90 -5 -5 -10 -16 -10 -23 0 -26 -123 -280 -155
-318 -19 -24 -51 -47 -76 -56 -51 -20 -186 -37 -389 -49 -80 -5 -210 -14 -290
-20 -350 -24 -454 -31 -590 -36 -80 -2 -194 -11 -255 -19 -60 -8 -202 -19
-315 -25 -336 -17 -530 -29 -627 -40 -50 -5 -139 -10 -197 -10 -58 0 -127 -4
-153 -10 -26 -5 -129 -14 -228 -20 -99 -5 -216 -12 -260 -15 -63 -5 -84 -3
-99 10 -18 14 -19 19 -7 67 7 29 19 67 27 83 7 17 22 59 33 95 78 251 238 590
418 885 332 544 714 978 1269 1441 141 117 552 405 619 433 6 2 26 14 46 26
67 43 379 203 514 265 267 122 340 149 660 248 138 43 184 54 425 106 192 41
372 69 550 85 136 12 344 13 374 1z m806 -5 c96 -8 195 -19 220 -24 25 -5 90
-16 145 -26 130 -22 453 -98 580 -137 208 -63 323 -104 555 -198 335 -136 824
-414 1091 -619 25 -20 63 -49 85 -66 316 -242 610 -518 862 -808 342 -395 716
-1000 877 -1422 102 -265 146 -408 131 -422 -10 -10 -345 -4 -466 8 -52 6
-167 14 -255 19 -88 5 -259 16 -380 24 -121 9 -305 21 -410 26 -104 6 -242 17
-305 25 -63 8 -214 19 -335 25 -502 24 -595 30 -695 39 -58 6 -170 15 -250 21
-276 20 -303 27 -381 97 -49 45 -83 115 -269 553 -78 184 -155 363 -171 397
-16 35 -29 67 -29 73 0 5 -16 45 -36 87 -19 43 -39 87 -44 98 -4 11 -17 40
-29 65 -47 104 -131 304 -131 312 0 4 -12 32 -26 61 -14 28 -50 111 -81 182
-30 72 -73 171 -95 220 -54 121 -94 214 -163 375 -32 74 -70 163 -86 197 -16
35 -29 65 -29 67 0 3 -17 42 -39 88 -21 46 -62 139 -91 208 -29 69 -66 153
-81 188 -16 34 -29 66 -29 72 0 5 -16 43 -35 84 -38 82 -41 96 -23 114 16 16
197 15 418 -3z m-595 -1433 c18 -13 41 -55 80 -147 21 -50 48 -112 60 -140 73
-166 99 -223 130 -293 19 -43 35 -81 35 -86 0 -7 27 -68 81 -183 29 -62 38
-113 20 -113 -5 0 -47 16 -93 36 -111 48 -223 73 -331 74 -104 0 -186 -21
-307 -78 -47 -22 -88 -38 -92 -35 -19 11 -3 62 73 234 44 101 89 204 99 229
10 25 55 131 100 235 128 300 120 285 145 267z m138 -1141 c158 -55 266 -176
321 -361 35 -116 5 -241 -85 -365 -47 -64 -67 -81 -160 -138 l-76 -47 -142 0
-143 0 -71 42 c-83 48 -167 124 -190 170 -52 107 -52 109 -52 243 0 134 4 151
54 253 16 34 98 117 135 139 12 6 53 28 91 47 65 32 77 35 166 35 70 1 111 -4
152 -18z m667 -678 c0 -8 6 -27 14 -41 21 -39 76 -161 76 -169 0 -3 14 -35 30
-70 17 -34 30 -67 30 -72 0 -7 15 -41 111 -249 33 -72 34 -78 14 -86 -17 -6
-205 65 -380 144 -22 10 -71 30 -109 45 -133 53 -152 73 -123 126 26 48 253
395 276 422 15 18 17 18 38 -8 13 -14 23 -33 23 -42z m-1534 10 c16 -25 34
-51 39 -57 6 -6 41 -58 79 -116 38 -58 81 -123 95 -145 69 -104 67 -114 -30
-162 -101 -50 -198 -93 -208 -93 -5 0 -40 -14 -78 -31 -107 -49 -233 -99 -248
-99 -27 0 -24 18 26 129 27 62 65 149 84 194 111 271 184 427 200 427 6 0 24
-21 41 -47z m-4411 -820 c39 -36 187 -174 330 -306 291 -270 355 -329 400
-372 17 -16 51 -48 76 -69 24 -22 78 -71 119 -110 42 -39 100 -93 130 -121 77
-69 300 -276 324 -300 34 -33 164 -154 266 -245 52 -47 122 -111 155 -142 34
-32 69 -64 80 -72 38 -28 -7 -60 -145 -104 -246 -77 -397 -223 -450 -434 -40
-160 -44 -187 -44 -293 0 -242 96 -449 268 -578 61 -47 103 -69 187 -99 57
-20 82 -23 224 -23 124 0 174 4 218 18 204 62 239 69 256 52 15 -15 7 -69 -34
-230 -7 -27 -21 -93 -29 -145 -9 -52 -23 -117 -31 -145 -7 -27 -21 -88 -30
-135 -20 -103 -59 -287 -85 -405 -5 -22 -12 -56 -15 -75 -4 -19 -17 -81 -31
-137 -13 -56 -36 -162 -49 -235 -14 -73 -30 -146 -35 -163 -5 -16 -16 -66 -24
-110 -9 -44 -26 -127 -37 -185 -12 -58 -27 -134 -34 -170 -54 -288 -65 -324
-94 -328 -56 -8 -381 251 -647 516 -116 115 -263 278 -320 353 -10 14 -66 88
-124 165 -125 166 -210 289 -273 400 -15 27 -50 87 -77 134 -142 245 -329 651
-415 900 -35 101 -61 184 -81 250 -9 30 -22 71 -29 90 -19 52 -41 135 -60 225
-9 44 -20 94 -25 110 -4 17 -11 44 -13 60 -3 17 -12 68 -21 115 -33 183 -46
270 -61 405 -21 196 -46 620 -40 680 2 28 10 131 16 230 10 165 36 387 59 503
5 26 16 90 25 142 16 89 25 130 60 270 8 30 16 67 19 81 11 52 36 99 54 99 9
0 49 -30 87 -67z m10404 -5 c11 -35 37 -110 56 -167 45 -133 100 -367 117
-501 18 -146 18 -1013 0 -1160 -24 -192 -50 -344 -87 -510 -8 -36 -22 -99 -31
-140 -51 -237 -230 -777 -357 -1075 -65 -153 -265 -549 -345 -683 -34 -57 -62
-106 -62 -108 0 -4 -80 -122 -203 -299 -267 -383 -628 -746 -977 -979 -46 -31
-89 -56 -95 -56 -28 0 -48 56 -84 245 -12 61 -35 169 -50 240 -16 72 -36 171
-45 220 -10 50 -23 108 -31 130 -7 22 -21 85 -30 140 -17 95 -29 156 -60 290
-7 33 -21 98 -30 145 -18 90 -32 157 -90 426 -8 40 -15 81 -15 93 0 11 -6 38
-14 58 -7 21 -21 83 -31 138 -10 55 -30 152 -45 215 -28 120 -29 135 -3 144
13 5 112 -15 228 -46 22 -6 113 -13 203 -15 154 -4 167 -3 244 22 45 15 102
37 127 50 113 59 218 169 281 295 18 36 36 73 41 82 36 71 52 324 28 440 -20
93 -85 203 -174 293 -44 45 -101 96 -126 113 -57 38 -186 107 -219 117 -55 16
-150 66 -150 79 0 7 30 42 67 77 98 93 334 311 443 409 52 47 135 124 185 171
49 47 115 108 145 134 30 27 60 54 65 60 6 7 51 48 100 92 50 44 113 102 141
129 28 27 93 87 144 134 125 113 188 171 360 331 80 73 168 155 195 180 148
136 152 138 184 47z m-6652 -125 c2 -6 -22 -42 -54 -80 -142 -167 -214 -274
-315 -469 -95 -183 -144 -321 -174 -484 -43 -234 -53 -451 -32 -668 14 -147 8
-160 -49 -116 -20 15 -45 35 -53 44 -9 8 -43 39 -76 69 -32 30 -97 91 -144
135 -47 45 -131 122 -185 171 -55 50 -138 126 -185 170 -47 44 -182 168 -300
275 -117 107 -252 231 -299 276 -48 44 -151 141 -231 214 -288 264 -319 297
-291 314 5 3 60 8 123 11 62 3 176 10 253 15 77 6 221 15 320 21 99 5 234 14
300 19 191 16 396 30 585 40 96 5 200 14 230 19 30 6 142 13 248 16 106 3 203
10 215 15 30 12 110 8 114 -7z m2849 7 c16 -5 130 -14 254 -20 236 -11 568
-32 780 -50 69 -5 163 -12 210 -15 47 -3 114 -10 150 -15 36 -5 137 -11 225
-14 228 -8 646 -37 673 -47 12 -5 22 -15 22 -23 0 -12 -233 -231 -599 -565
-52 -47 -124 -113 -160 -146 -37 -34 -93 -86 -126 -115 -33 -30 -114 -107
-180 -171 -66 -64 -142 -136 -170 -160 -66 -58 -168 -152 -400 -366 -138 -126
-176 -156 -188 -144 -7 7 -6 50 3 128 22 198 23 291 5 429 -16 131 -44 281
-70 381 -60 230 -214 525 -382 735 -111 137 -134 169 -128 178 8 13 44 13 81
0z m-1295 -94 c24 -9 51 -16 59 -16 36 0 179 -97 257 -174 46 -44 83 -85 83
-90 0 -5 6 -17 14 -25 24 -27 76 -138 76 -163 0 -13 5 -29 10 -34 16 -16 23
-200 12 -264 -22 -118 -43 -174 -100 -265 -54 -86 -100 -135 -173 -185 -137
-94 -220 -123 -389 -137 -87 -7 -214 19 -310 64 -163 76 -328 267 -369 428 -6
22 -17 65 -26 95 -19 63 -14 175 9 237 8 21 17 51 21 68 37 165 240 379 420
440 139 47 306 56 406 21z m699 -45 c36 -27 58 -43 120 -85 58 -39 221 -208
282 -292 157 -219 258 -474 298 -749 12 -80 9 -364 -4 -435 -23 -119 -96 -330
-155 -445 -95 -184 -163 -278 -295 -410 -241 -240 -497 -383 -801 -446 -120
-25 -538 -28 -605 -4 -23 8 -54 15 -67 15 -14 0 -55 14 -93 30 -38 16 -76 30
-85 30 -27 0 -260 117 -355 178 -115 74 -323 284 -408 412 -82 123 -162 289
-201 415 -18 55 -37 115 -43 134 -31 98 -47 372 -28 501 32 229 85 391 187
576 92 165 280 385 441 515 111 89 127 80 62 -36 -76 -136 -130 -276 -150
-389 -17 -93 -18 -256 -2 -336 15 -75 67 -249 91 -300 25 -56 118 -179 200
-264 116 -119 192 -168 366 -234 157 -60 197 -67 370 -67 178 0 216 7 390 76
142 56 198 97 348 249 140 142 186 212 236 354 79 225 57 519 -56 766 -63 137
-77 165 -106 208 -49 74 -15 92 63 33z m-3828 -1868 c125 -68 214 -192 244
-341 15 -72 15 -85 0 -157 -21 -101 -59 -176 -121 -241 -60 -62 -115 -94 -215
-128 -89 -31 -154 -32 -236 -7 -105 33 -157 63 -222 127 -107 107 -146 236
-123 410 17 134 103 256 237 337 72 43 152 56 282 45 69 -6 95 -14 154 -45z
m6266 37 c49 -12 139 -66 190 -114 49 -45 88 -105 114 -172 31 -82 31 -261 -1
-347 -37 -105 -105 -180 -208 -231 -135 -68 -223 -80 -331 -46 -163 51 -235
107 -312 245 -73 131 -71 308 6 436 55 91 200 211 279 230 45 11 214 10 263
-1z m-5120 -290 c10 -11 25 -33 33 -48 110 -213 257 -407 439 -580 127 -119
249 -208 395 -287 39 -21 75 -41 80 -45 31 -20 250 -102 350 -131 17 -4 62
-17 100 -28 39 -12 103 -25 142 -31 40 -5 85 -17 99 -27 25 -16 25 -17 8 -30
-11 -8 -48 -29 -84 -47 -36 -18 -110 -56 -165 -86 -55 -29 -131 -70 -170 -90
-38 -20 -160 -85 -270 -145 -189 -102 -272 -146 -515 -272 -58 -31 -109 -59
-115 -63 -5 -4 -50 -29 -100 -55 -116 -62 -199 -106 -282 -152 -93 -51 -176
-95 -253 -136 -36 -19 -91 -48 -122 -66 -31 -17 -64 -31 -72 -31 -21 0 -20 40
4 170 21 110 26 134 60 290 12 52 25 118 30 147 5 28 13 68 19 90 5 21 14 56
20 78 6 22 15 70 21 105 17 106 38 213 48 250 25 84 42 162 42 188 0 16 6 51
14 78 17 62 39 164 61 274 24 125 45 221 56 255 4 17 13 59 19 95 18 114 38
214 49 243 6 16 11 43 11 61 0 50 17 59 48 26z m3672 -20 c4 -20 9 -40 13 -46
3 -6 11 -42 17 -80 12 -77 20 -118 60 -284 15 -63 35 -160 45 -215 9 -55 23
-127 31 -160 25 -114 43 -200 63 -300 46 -223 73 -355 92 -440 32 -145 38
-174 65 -305 14 -69 29 -141 34 -160 56 -245 69 -333 51 -344 -6 -4 -37 8 -69
27 -31 19 -111 63 -177 97 -66 35 -181 95 -255 135 -74 40 -180 96 -235 125
-192 101 -250 132 -280 150 -16 9 -68 38 -115 62 -47 25 -157 84 -245 130 -88
47 -214 114 -280 149 -143 75 -176 92 -235 126 -25 13 -97 52 -160 85 -63 33
-119 64 -125 69 -18 17 22 41 86 49 70 10 177 33 224 49 17 5 59 17 95 26 172
45 351 129 555 263 74 49 141 107 255 222 205 205 303 332 394 510 21 41 43
81 49 88 18 23 41 9 47 -28z m-1766 -2051 c179 -32 314 -164 370 -360 21 -72
20 -110 -2 -195 -29 -106 -60 -163 -127 -229 -146 -145 -366 -183 -539 -91
-83 44 -176 133 -214 205 -39 75 -51 150 -43 266 6 75 13 100 40 151 108 203
293 293 515 253z m-822 -394 c4 -71 9 -143 12 -160 17 -89 27 -134 40 -165 7
-19 22 -55 32 -80 22 -57 85 -153 133 -204 54 -57 148 -123 211 -147 162 -63
437 -64 593 -3 156 61 284 188 347 344 12 30 28 69 36 87 18 43 41 173 55 313
12 118 21 150 42 150 12 0 121 -54 217 -107 30 -17 100 -54 155 -83 327 -171
467 -246 570 -303 102 -56 160 -88 580 -307 66 -34 143 -75 170 -90 28 -15 77
-42 110 -60 88 -48 148 -80 260 -140 131 -70 135 -76 87 -118 -47 -43 -319
-222 -336 -222 -3 0 -37 -19 -78 -43 -108 -63 -446 -227 -467 -227 -5 0 -22
-6 -38 -14 -15 -8 -46 -21 -68 -29 -22 -9 -88 -34 -146 -56 -59 -22 -124 -45
-145 -50 -22 -5 -75 -19 -119 -31 -44 -12 -96 -26 -115 -30 -19 -5 -68 -16
-109 -25 -41 -9 -77 -18 -81 -20 -4 -2 -38 -11 -76 -19 -38 -8 -100 -23 -139
-31 -38 -9 -115 -20 -170 -25 -55 -4 -131 -16 -170 -25 -60 -15 -138 -18 -566
-22 -497 -5 -656 1 -822 31 -45 8 -134 22 -197 31 -63 9 -142 23 -175 30 -33
8 -121 28 -195 45 -74 17 -155 37 -180 44 -25 8 -74 22 -110 31 -129 35 -436
150 -594 223 -319 145 -763 406 -783 459 -10 25 -5 28 282 178 72 37 135 71
140 75 17 12 205 113 435 232 209 109 288 151 385 205 50 28 133 73 185 101
52 27 113 60 135 72 22 12 83 45 135 72 52 28 124 66 160 86 73 40 287 147
310 155 8 3 24 5 35 4 18 -2 21 -12 27 -132z"/>
</g>
</svg>
