  0
SECTION
  2
HEADER
  9
$ACADVER
  1
AC1024
  9
$ACADMAINTVER
 70
     6
  9
$DWGCODEPAGE
  3
UNDEFINED
  9
$INSBASE
 10
0.0
 20
0.0
 30
0.0
  9
$EXTMIN
 10
1.000000000000000E+20
 20
1.000000000000000E+20
 30
1.000000000000000E+20
  9
$EXTMAX
 10
-1.000000000000000E+20
 20
-1.000000000000000E+20
 30
-1.000000000000000E+20
  9
$LIMMIN
 10
0.0
 20
0.0
  9
$LIMMAX
 10
12.0
 20
9.0
  9
$ORTHOMODE
 70
     0
  9
$REGENMODE
 70
     1
  9
$FILLMODE
 70
     1
  9
$QTEXTMODE
 70
     0
  9
$MIRRTEXT
 70
     1
  9
$LTSCALE
 40
1.0
  9
$ATTMODE
 70
     1
  9
$TEXTSIZE
 40
0.2
  9
$TRACEWID
 40
0.05
  9
$TEXTSTYLE
  7
Standard
  9
$CLAYER
  8
0
  9
$CELTYPE
  6
ByLayer
  9
$CECOLOR
 62
   256
  9
$CELTSCALE
 40
1.0
  9
$DISPSILH
 70
     0
  9
$DIMSCALE
 40
1.0
  9
$DIMASZ
 40
0.18
  9
$DIMEXO
 40
0.0625
  9
$DIMDLI
 40
0.38
  9
$DIMRND
 40
0.0
  9
$DIMDLE
 40
0.0
  9
$DIMEXE
 40
0.18
  9
$DIMTP
 40
0.0
  9
$DIMTM
 40
0.0
  9
$DIMTXT
 40
0.18
  9
$DIMCEN
 40
0.09
  9
$DIMTSZ
 40
0.0
  9
$DIMTOL
 70
     0
  9
$DIMLIM
 70
     0
  9
$DIMTIH
 70
     1
  9
$DIMTOH
 70
     1
  9
$DIMSE1
 70
     0
  9
$DIMSE2
 70
     0
  9
$DIMTAD
 70
     0
  9
$DIMZIN
 70
     0
  9
$DIMBLK
  1

  9
$DIMASO
 70
     1
  9
$DIMSHO
 70
     1
  9
$DIMPOST
  1

  9
$DIMAPOST
  1

  9
$DIMALT
 70
     0
  9
$DIMALTD
 70
     2
  9
$DIMALTF
 40
25.4
  9
$DIMLFAC
 40
1.0
  9
$DIMTOFL
 70
     0
  9
$DIMTVP
 40
0.0
  9
$DIMTIX
 70
     0
  9
$DIMSOXD
 70
     0
  9
$DIMSAH
 70
     0
  9
$DIMBLK1
  1

  9
$DIMBLK2
  1

  9
$DIMSTYLE
  2
Standard
  9
$DIMCLRD
 70
     0
  9
$DIMCLRE
 70
     0
  9
$DIMCLRT
 70
     0
  9
$DIMTFAC
 40
1.0
  9
$DIMGAP
 40
0.09
  9
$DIMJUST
 70
     0
  9
$DIMSD1
 70
     0
  9
$DIMSD2
 70
     0
  9
$DIMTOLJ
 70
     1
  9
$DIMTZIN
 70
     0
  9
$DIMALTZ
 70
     0
  9
$DIMALTTZ
 70
     0
  9
$DIMUPT
 70
     0
  9
$DIMDEC
 70
     4
  9
$DIMTDEC
 70
     4
  9
$DIMALTU
 70
     2
  9
$DIMALTTD
 70
     2
  9
$DIMTXSTY
  7
Standard
  9
$DIMAUNIT
 70
     0
  9
$DIMADEC
 70
     0
  9
$DIMALTRND
 40
0.0
  9
$DIMAZIN
 70
     0
  9
$DIMDSEP
 70
    46
  9
$DIMATFIT
 70
     3
  9
$DIMFRAC
 70
     0
  9
$DIMLDRBLK
  1

  9
$DIMLUNIT
 70
     2
  9
$DIMLWD
 70
    -2
  9
$DIMLWE
 70
    -2
  9
$DIMTMOVE
 70
     0
  9
$DIMFXL
 40
1.0
  9
$DIMFXLON
 70
     0
  9
$DIMJOGANG
 40
0.7853981633974483
  9
$DIMTFILL
 70
     0
  9
$DIMTFILLCLR
 70
     0
  9
$DIMARCSYM
 70
     0
  9
$DIMLTYPE
  6

  9
$DIMLTEX1
  6

  9
$DIMLTEX2
  6

  9
$DIMTXTDIRECTION
 70
     0
  9
$LUNITS
 70
     2
  9
$LUPREC
 70
     4
  9
$SKETCHINC
 40
0.1
  9
$FILLETRAD
 40
0.5
  9
$AUNITS
 70
     0
  9
$AUPREC
 70
     0
  9
$MENU
  1
.
  9
$ELEVATION
 40
0.0
  9
$PELEVATION
 40
0.0
  9
$THICKNESS
 40
0.0
  9
$LIMCHECK
 70
     0
  9
$CHAMFERA
 40
0.5
  9
$CHAMFERB
 40
0.5
  9
$CHAMFERC
 40
1.0
  9
$CHAMFERD
 40
0.0
  9
$SKPOLY
 70
     0
  9
$TDCREATE
 40
2458356.764247685
  9
$TDUCREATE
 40
2458356.972581019
  9
$TDUPDATE
 40
2458356.764247685
  9
$TDUUPDATE
 40
2458356.972581019
  9
$TDINDWG
 40
0.0000000116
  9
$TDUSRTIMER
 40
0.0000000116
  9
$USRTIMER
 70
     1
  9
$ANGBASE
 50
0.0
  9
$ANGDIR
 70
     0
  9
$PDMODE
 70
     0
  9
$PDSIZE
 40
0.0
  9
$PLINEWID
 40
0.0
  9
$SPLFRAME
 70
     0
  9
$SPLINETYPE
 70
     6
  9
$SPLINESEGS
 70
     8
  9
$HANDSEED
  5
13A
  9
$SURFTAB1
 70
     6
  9
$SURFTAB2
 70
     6
  9
$SURFTYPE
 70
     6
  9
$SURFU
 70
     6
  9
$SURFV
 70
     6
  9
$UCSBASE
  2

  9
$UCSNAME
  2

  9
$UCSORG
 10
0.0
 20
0.0
 30
0.0
  9
$UCSXDIR
 10
1.0
 20
0.0
 30
0.0
  9
$UCSYDIR
 10
0.0
 20
1.0
 30
0.0
  9
$UCSORTHOREF
  2

  9
$UCSORTHOVIEW
 70
     0
  9
$UCSORGTOP
 10
0.0
 20
0.0
 30
0.0
  9
$UCSORGBOTTOM
 10
0.0
 20
0.0
 30
0.0
  9
$UCSORGLEFT
 10
0.0
 20
0.0
 30
0.0
  9
$UCSORGRIGHT
 10
0.0
 20
0.0
 30
0.0
  9
$UCSORGFRONT
 10
0.0
 20
0.0
 30
0.0
  9
$UCSORGBACK
 10
0.0
 20
0.0
 30
0.0
  9
$PUCSBASE
  2

  9
$PUCSNAME
  2

  9
$PUCSORG
 10
0.0
 20
0.0
 30
0.0
  9
$PUCSXDIR
 10
1.0
 20
0.0
 30
0.0
  9
$PUCSYDIR
 10
0.0
 20
1.0
 30
0.0
  9
$PUCSORTHOREF
  2

  9
$PUCSORTHOVIEW
 70
     0
  9
$PUCSORGTOP
 10
0.0
 20
0.0
 30
0.0
  9
$PUCSORGBOTTOM
 10
0.0
 20
0.0
 30
0.0
  9
$PUCSORGLEFT
 10
0.0
 20
0.0
 30
0.0
  9
$PUCSORGRIGHT
 10
0.0
 20
0.0
 30
0.0
  9
$PUCSORGFRONT
 10
0.0
 20
0.0
 30
0.0
  9
$PUCSORGBACK
 10
0.0
 20
0.0
 30
0.0
  9
$USERI1
 70
     0
  9
$USERI2
 70
     0
  9
$USERI3
 70
     0
  9
$USERI4
 70
     0
  9
$USERI5
 70
     0
  9
$USERR1
 40
0.0
  9
$USERR2
 40
0.0
  9
$USERR3
 40
0.0
  9
$USERR4
 40
0.0
  9
$USERR5
 40
0.0
  9
$WORLDVIEW
 70
     1
  9
$SHADEDGE
 70
     3
  9
$SHADEDIF
 70
    70
  9
$TILEMODE
 70
     1
  9
$MAXACTVP
 70
    64
  9
$PINSBASE
 10
0.0
 20
0.0
 30
0.0
  9
$PLIMCHECK
 70
     0
  9
$PEXTMIN
 10
1.000000000000000E+20
 20
1.000000000000000E+20
 30
1.000000000000000E+20
  9
$PEXTMAX
 10
-1.000000000000000E+20
 20
-1.000000000000000E+20
 30
-1.000000000000000E+20
  9
$PLIMMIN
 10
0.0
 20
0.0
  9
$PLIMMAX
 10
12.0
 20
9.0
  9
$UNITMODE
 70
     0
  9
$VISRETAIN
 70
     1
  9
$PLINEGEN
 70
     0
  9
$PSLTSCALE
 70
     1
  9
$TREEDEPTH
 70
  3020
  9
$CMLSTYLE
  2
Standard
  9
$CMLJUST
 70
     0
  9
$CMLSCALE
 40
1.0
  9
$PROXYGRAPHICS
 70
     1
  9
$MEASUREMENT
 70
     0
  9
$CELWEIGHT
370
    -1
  9
$ENDCAPS
280
     0
  9
$JOINSTYLE
280
     0
  9
$LWDISPLAY
290
     1
  9
$INSUNITS
 70
     1
  9
$HYPERLINKBASE
  1

  9
$STYLESHEET
  1

  9
$XEDIT
290
     1
  9
$CEPSNTYPE
380
     0
  9
$PSTYLEMODE
290
     1
  9
$FINGERPRINTGUID
  2
{79573AC5-27D9-5DD4-C3FD-2074C87E78C8}
  9
$VERSIONGUID
  2
{FAEB1C32-E019-11D5-929B-00C0DF256EC4}
  9
$EXTNAMES
290
     1
  9
$PSVPSCALE
 40
0.0
  9
$OLESTARTUP
290
     0
  9
$SORTENTS
280
   127
  9
$INDEXCTL
280
     0
  9
$HIDETEXT
280
     1
  9
$XCLIPFRAME
280
     2
  9
$HALOGAP
280
     0
  9
$OBSCOLOR
 70
   257
  9
$OBSLTYPE
280
     0
  9
$INTERSECTIONDISPLAY
280
     0
  9
$INTERSECTIONCOLOR
 70
   257
  9
$DIMASSOC
280
     2
  9
$PROJECTNAME
  1

  9
$CAMERADISPLAY
290
     0
  9
$LENSLENGTH
 40
50.0
  9
$CAMERAHEIGHT
 40
0.0
  9
$STEPSPERSEC
 40
2.0
  9
$STEPSIZE
 40
6.0
  9
$3DDWFPREC
 40
2.0
  9
$PSOLWIDTH
 40
0.25
  9
$PSOLHEIGHT
 40
4.0
  9
$LOFTANG1
 40
1.570796326794897
  9
$LOFTANG2
 40
1.570796326794897
  9
$LOFTMAG1
 40
0.0
  9
$LOFTMAG2
 40
0.0
  9
$LOFTPARAM
 70
     7
  9
$LOFTNORMALS
280
     1
  9
$LATITUDE
 40
37.795
  9
$LONGITUDE
 40
-122.394
  9
$NORTHDIRECTION
 40
0.0
  9
$TIMEZONE
 70
 -8000
  9
$LIGHTGLYPHDISPLAY
280
     1
  9
$TILEMODELIGHTSYNCH
280
     1
  9
$CMATERIAL
347
3C
  9
$SOLIDHIST
280
     1
  9
$SHOWHIST
280
     1
  9
$DWFFRAME
280
     2
  9
$DGNFRAME
280
     2
  9
$REALWORLDSCALE
290
     1
  9
$INTERFERECOLOR
 62
   256
  9
$CSHADOW
280
     0
  9
$SHADOWPLANELOCATION
 40
0.0
  0
ENDSEC
  0
SECTION
  2
CLASSES
  0
CLASS
  1
ACDBDICTIONARYWDFLT
  2
AcDbDictionaryWithDefault
  3
ObjectDBX Classes
 90
        0
 91
        4
280
     0
281
     0
  0
CLASS
  1
VISUALSTYLE
  2
AcDbVisualStyle
  3
ObjectDBX Classes
 90
     4095
 91
        4
280
     0
281
     0
  0
CLASS
  1
MATERIAL
  2
AcDbMaterial
  3
ObjectDBX Classes
 90
     1153
 91
        4
280
     0
281
     0
  0
CLASS
  1
SUN
  2
AcDbSun
  3
SCENEOE
 90
     1024
 91
        4
280
     0
281
     0
  0
ENDSEC
  0
SECTION
  2
TABLES
  0
TABLE
  2
VPORT
  5
8
330
0
100
AcDbSymbolTable
 70
     1
  0
VPORT
  5
29
330
8
100
AcDbSymbolTableRecord
100
AcDbViewportTableRecord
  2
*Active
 70
     0
 10
0.0
 20
0.0
 11
1.0
 21
1.0
 12
0.0
 22
0.0
 13
0.0
 23
0.0
 14
0.5
 24
0.5
 15
0.5
 25
0.5
 16
0.0
 26
0.0
 36
1.0
 17
4.25
 27
5.5
 37
0.0
 40
11.0
 41
0.7727272727272727
 42
50.0
 43
0.0
 44
0.0
 50
0.0
 51
0.0
 71
     0
 72
   100
 73
     1
 74
     3
 75
     0
 76
     0
 77
     0
 78
     0
281
     0
 65
     1
110
0.0
120
0.0
130
0.0
111
1.0
121
0.0
131
0.0
112
0.0
122
1.0
132
0.0
 79
     0
146
0.0
 60
     3
 61
     5
292
     1
282
     1
141
0.0
142
0.0
 63
   250
361
3F
  0
ENDTAB
  0
TABLE
  2
LTYPE
  5
5
330
0
100
AcDbSymbolTable
 70
     1
  0
LTYPE
  5
14
330
5
100
AcDbSymbolTableRecord
100
AcDbLinetypeTableRecord
  2
ByBlock
 70
     0
  3

 72
    65
 73
     0
 40
0.0
  0
LTYPE
  5
15
330
5
100
AcDbSymbolTableRecord
100
AcDbLinetypeTableRecord
  2
ByLayer
 70
     0
  3

 72
    65
 73
     0
 40
0.0
  0
LTYPE
  5
16
330
5
100
AcDbSymbolTableRecord
100
AcDbLinetypeTableRecord
  2
Continuous
 70
     0
  3
Solid line
 72
    65
 73
     0
 40
0.0
  0
ENDTAB
  0
TABLE
  2
LAYER
  5
2
330
0
100
AcDbSymbolTable
 70
     2
  0
LAYER
  5
10
330
2
100
AcDbSymbolTableRecord
100
AcDbLayerTableRecord
  2
0
 70
     0
 62
     7
  6
Continuous
370
    -3
390
F
347
3E
  0
LAYER
  5
40
330
2
100
AcDbSymbolTableRecord
100
AcDbLayerTableRecord
  2
Layer 1
 70
     0
 62
     7
  6
Continuous
370
    -3
390
F
347
3E
  0
ENDTAB
  0
TABLE
  2
STYLE
  5
3
330
0
100
AcDbSymbolTable
 70
     1
  0
STYLE
  5
11
330
3
100
AcDbSymbolTableRecord
100
AcDbTextStyleTableRecord
  2
Standard
 70
     0
 40
0.0
 41
1.0
 50
0.0
 71
     0
 42
0.2
  3
txt
  4

  0
ENDTAB
  0
TABLE
  2
VIEW
  5
6
330
0
100
AcDbSymbolTable
 70
     0
  0
ENDTAB
  0
TABLE
  2
UCS
  5
7
330
0
100
AcDbSymbolTable
 70
     0
  0
ENDTAB
  0
TABLE
  2
APPID
  5
9
330
0
100
AcDbSymbolTable
 70
     1
  0
APPID
  5
12
330
9
100
AcDbSymbolTableRecord
100
AcDbRegAppTableRecord
  2
ACAD
 70
     0
  0
ENDTAB
  0
TABLE
  2
DIMSTYLE
  5
A
330
0
100
AcDbSymbolTable
 70
     1
100
AcDbDimStyleTable
  0
DIMSTYLE
105
27
330
A
100
AcDbSymbolTableRecord
100
AcDbDimStyleTableRecord
  2
Standard
 70
     0
178
     0
340
11
  0
ENDTAB
  0
TABLE
  2
BLOCK_RECORD
  5
1
330
0
100
AcDbSymbolTable
 70
    10
  0
BLOCK_RECORD
  5
1F
330
1
100
AcDbSymbolTableRecord
100
AcDbBlockTableRecord
  2
*Model_Space
340
22
 70
     0
280
     1
281
     0
  0
BLOCK_RECORD
  5
1B
330
1
100
AcDbSymbolTableRecord
100
AcDbBlockTableRecord
  2
*Paper_Space
340
1E
 70
     0
280
     1
281
     0
  0
BLOCK_RECORD
  5
23
330
1
100
AcDbSymbolTableRecord
100
AcDbBlockTableRecord
  2
*Paper_Space0
340
26
 70
     0
280
     1
281
     0
  0
BLOCK_RECORD
  5
41
330
1
100
AcDbSymbolTableRecord
100
AcDbBlockTableRecord
  2
block 2
340
0
102
{BLKREFS
331
42
102
}
 70
     0
280
     1
281
     0
  0
BLOCK_RECORD
  5
9A
330
1
100
AcDbSymbolTableRecord
100
AcDbBlockTableRecord
  2
block 3
340
0
102
{BLKREFS
331
9B
102
}
 70
     0
280
     1
281
     0
  0
BLOCK_RECORD
  5
B9
330
1
100
AcDbSymbolTableRecord
100
AcDbBlockTableRecord
  2
block 4
340
0
102
{BLKREFS
331
BA
102
}
 70
     0
280
     1
281
     0
  0
BLOCK_RECORD
  5
F3
330
1
100
AcDbSymbolTableRecord
100
AcDbBlockTableRecord
  2
block 5
340
0
102
{BLKREFS
331
F4
102
}
 70
     0
280
     1
281
     0
  0
BLOCK_RECORD
  5
105
330
1
100
AcDbSymbolTableRecord
100
AcDbBlockTableRecord
  2
block 6
340
0
102
{BLKREFS
331
106
102
}
 70
     0
280
     1
281
     0
  0
BLOCK_RECORD
  5
10E
330
1
100
AcDbSymbolTableRecord
100
AcDbBlockTableRecord
  2
block 7
340
0
102
{BLKREFS
331
10F
102
}
 70
     0
280
     1
281
     0
  0
BLOCK_RECORD
  5
11C
330
1
100
AcDbSymbolTableRecord
100
AcDbBlockTableRecord
  2
block 8
340
0
102
{BLKREFS
331
11D
102
}
 70
     0
280
     1
281
     0
  0
BLOCK_RECORD
  5
126
330
1
100
AcDbSymbolTableRecord
100
AcDbBlockTableRecord
  2
block 9
340
0
102
{BLKREFS
331
127
102
}
 70
     0
280
     1
281
     0
  0
BLOCK_RECORD
  5
12E
330
1
100
AcDbSymbolTableRecord
100
AcDbBlockTableRecord
  2
block 10
340
0
102
{BLKREFS
331
12F
102
}
 70
     0
280
     1
281
     0
  0
ENDTAB
  0
ENDSEC
  0
SECTION
  2
BLOCKS
  0
BLOCK
  5
20
330
1F
100
AcDbEntity
  8
0
100
AcDbBlockBegin
  2
*Model_Space
 70
     0
 10
0.0
 20
0.0
 30
0.0
  3
*Model_Space
  1

  0
ENDBLK
  5
21
330
1F
100
AcDbEntity
  8
0
100
AcDbBlockEnd
  0
BLOCK
  5
1C
330
1B
100
AcDbEntity
 67
     1
  8
0
100
AcDbBlockBegin
  2
*Paper_Space
 70
     0
 10
0.0
 20
0.0
 30
0.0
  3
*Paper_Space
  1

  0
ENDBLK
  5
1D
330
1B
100
AcDbEntity
 67
     1
  8
0
100
AcDbBlockEnd
  0
BLOCK
  5
24
330
23
100
AcDbEntity
  8
0
100
AcDbBlockBegin
  2
*Paper_Space0
 70
     0
 10
0.0
 20
0.0
 30
0.0
  3
*Paper_Space0
  1

  0
ENDBLK
  5
25
330
23
100
AcDbEntity
  8
0
100
AcDbBlockEnd
  0
BLOCK
  5
43
330
41
100
AcDbEntity
  8
0
100
AcDbBlockBegin
  2
block 2
 70
     0
 10
0.0
 20
0.0
 30
0.0
  3
block 2
  1

  0
POLYLINE
  5
45
330
41
100
AcDbEntity
  8
Layer 1
 62
    44
420
 11501056
370
    35
100
AcDb2dPolyline
 66
     1
 10
0.0
 20
0.0
 30
0.0
  0
VERTEX
  5
46
330
45
100
AcDbEntity
  8
Layer 1
 62
    44
420
 11501056
370
    35
100
AcDbVertex
100
AcDb2dVertex
 10
1.351309219834901
 20
9.394444465637207
 30
0.0
  0
VERTEX
  5
47
330
45
100
AcDbEntity
  8
Layer 1
 62
    44
420
 11501056
370
    35
100
AcDbVertex
100
AcDb2dVertex
 10
1.11759783940109
 20
9.148611068725586
 30
0.0
  0
VERTEX
  5
48
330
45
100
AcDbEntity
  8
Layer 1
 62
    44
420
 11501056
370
    35
100
AcDbVertex
100
AcDb2dVertex
 10
1.164340115487852
 20
8.555555555555555
 30
0.0
  0
VERTEX
  5
49
330
45
100
AcDbEntity
  8
Layer 1
 62
    44
420
 11501056
370
    35
100
AcDbVertex
100
AcDb2dVertex
 10
1.429213013312847
 20
8.356944402058918
 30
0.0
  0
VERTEX
  5
4A
330
45
100
AcDbEntity
  8
Layer 1
 62
    44
420
 11501056
370
    35
100
AcDbVertex
100
AcDb2dVertex
 10
1.179920874183444
 20
8.125
 30
0.0
  0
VERTEX
  5
4B
330
45
100
AcDbEntity
  8
Layer 1
 62
    44
420
 11501056
370
    35
100
AcDbVertex
100
AcDb2dVertex
 10
1.159665840330465
 20
7.150000042385525
 30
0.0
  0
VERTEX
  5
4C
330
45
100
AcDbEntity
  8
Layer 1
 62
    44
420
 11501056
370
    35
100
AcDbVertex
100
AcDb2dVertex
 10
1.413632254617242
 20
6.899999830457899
 30
0.0
  0
VERTEX
  5
4D
330
45
100
AcDbEntity
  8
Layer 1
 62
    44
420
 11501056
370
    35
100
AcDbVertex
100
AcDb2dVertex
 10
0.1794548730647673
 20
7.591666539510091
 30
0.0
  0
VERTEX
  5
4E
330
45
100
AcDbEntity
  8
Layer 1
 62
    44
420
 11501056
370
    35
100
AcDbVertex
100
AcDb2dVertex
 10
-0.5138888888888888
 20
6.75
 30
0.0
  0
VERTEX
  5
4F
330
45
100
AcDbEntity
  8
Layer 1
 62
    44
420
 11501056
370
    35
100
AcDbVertex
100
AcDb2dVertex
 10
0.3899763369940956
 20
5.752777947319879
 30
0.0
  0
VERTEX
  5
50
330
45
100
AcDbEntity
  8
Layer 1
 62
    44
420
 11501056
370
    35
100
AcDbVertex
100
AcDb2dVertex
 10
1.26717298023262
 20
5.405555725097656
 30
0.0
  0
VERTEX
  5
51
330
45
100
AcDbEntity
  8
Layer 1
 62
    44
420
 11501056
370
    35
100
AcDbVertex
100
AcDb2dVertex
 10
1.828080293273779
 20
5.693055894639756
 30
0.0
  0
VERTEX
  5
52
330
45
100
AcDbEntity
  8
Layer 1
 62
    44
420
 11501056
370
    35
100
AcDbVertex
100
AcDb2dVertex
 10
1.527371602900227
 20
5.52638922797309
 30
0.0
  0
VERTEX
  5
53
330
45
100
AcDbEntity
  8
Layer 1
 62
    44
420
 11501056
370
    35
100
AcDbVertex
100
AcDb2dVertex
 10
1.491535810351668
 20
5.40138922797309
 30
0.0
  0
VERTEX
  5
54
330
45
100
AcDbEntity
  8
Layer 1
 62
    44
420
 11501056
370
    35
100
AcDbVertex
100
AcDb2dVertex
 10
1.670714535350928
 20
5.141666836208767
 30
0.0
  0
VERTEX
  5
55
330
45
100
AcDbEntity
  8
Layer 1
 62
    44
420
 11501056
370
    35
100
AcDbVertex
100
AcDb2dVertex
 10
1.343518602743592
 20
5.030555725097656
 30
0.0
  0
VERTEX
  5
56
330
45
100
AcDbEntity
  8
Layer 1
 62
    44
420
 11501056
370
    35
100
AcDbVertex
100
AcDb2dVertex
 10
1.164339877744346
 20
4.655555725097656
 30
0.0
  0
VERTEX
  5
57
330
45
100
AcDbEntity
  8
Layer 1
 62
    44
420
 11501056
370
    35
100
AcDbVertex
100
AcDb2dVertex
 10
1.273405188613449
 20
4.350000169542101
 30
0.0
  0
VERTEX
  5
58
330
45
100
AcDbEntity
  8
Layer 1
 62
    44
420
 11501056
370
    35
100
AcDbVertex
100
AcDb2dVertex
 10
1.039693808179638
 20
4.113889058430989
 30
0.0
  0
VERTEX
  5
59
330
45
100
AcDbEntity
  8
Layer 1
 62
    44
420
 11501056
370
    35
100
AcDbVertex
100
AcDb2dVertex
 10
1.063064946223019
 20
3.183333502875434
 30
0.0
  0
VERTEX
  5
5A
330
45
100
AcDbEntity
  8
Layer 1
 62
    44
420
 11501056
370
    35
100
AcDbVertex
100
AcDb2dVertex
 10
1.623972259264166
 20
2.7250001695421
 30
0.0
  0
VERTEX
  5
5B
330
45
100
AcDbEntity
  8
Layer 1
 62
    44
420
 11501056
370
    35
100
AcDbVertex
100
AcDb2dVertex
 10
2.577514643885428
 20
2.743055555555555
 30
0.0
  0
VERTEX
  5
5C
330
45
100
AcDbEntity
  8
Layer 1
 62
    44
420
 11501056
370
    35
100
AcDbVertex
100
AcDb2dVertex
 10
3.107260439535404
 20
3.1875
 30
0.0
  0
VERTEX
  5
5D
330
45
100
AcDbEntity
  8
Layer 1
 62
    44
420
 11501056
370
    35
100
AcDbVertex
100
AcDb2dVertex
 10
3.1337476817692
 20
4.108333163791232
 30
0.0
  0
VERTEX
  5
5E
330
45
100
AcDbEntity
  8
Layer 1
 62
    44
420
 11501056
370
    35
100
AcDbVertex
100
AcDb2dVertex
 10
2.889129817797172
 20
4.354166666666666
 30
0.0
  0
VERTEX
  5
5F
330
45
100
AcDbEntity
  8
Layer 1
 62
    44
420
 11501056
370
    35
100
AcDbVertex
100
AcDb2dVertex
 10
3.009101612204492
 20
4.659722222222222
 30
0.0
  0
VERTEX
  5
60
330
45
100
AcDbEntity
  8
Layer 1
 62
    44
420
 11501056
370
    35
100
AcDbVertex
100
AcDb2dVertex
 10
2.84238754171041
 20
5.024999830457899
 30
0.0
  0
VERTEX
  5
61
330
45
100
AcDbEntity
  8
Layer 1
 62
    44
420
 11501056
370
    35
100
AcDbVertex
100
AcDb2dVertex
 10
2.499610850407483
 20
5.140277438693576
 30
0.0
  0
VERTEX
  5
62
330
45
100
AcDbEntity
  8
Layer 1
 62
    44
420
 11501056
370
    35
100
AcDbVertex
100
AcDb2dVertex
 10
2.69125422991192
 20
5.413888719346788
 30
0.0
  0
VERTEX
  5
63
330
45
100
AcDbEntity
  8
Layer 1
 62
    44
420
 11501056
370
    35
100
AcDbVertex
100
AcDb2dVertex
 10
2.639837678667782
 20
5.538888719346788
 30
0.0
  0
VERTEX
  5
64
330
45
100
AcDbEntity
  8
Layer 1
 62
    44
420
 11501056
370
    35
100
AcDbVertex
100
AcDb2dVertex
 10
2.343803263451605
 20
5.691666497124566
 30
0.0
  0
VERTEX
  5
65
330
45
100
AcDbEntity
  8
Layer 1
 62
    44
420
 11501056
370
    35
100
AcDbVertex
100
AcDb2dVertex
 10
2.89380409295456
 20
5.413888719346788
 30
0.0
  0
VERTEX
  5
66
330
45
100
AcDbEntity
  8
Layer 1
 62
    44
420
 11501056
370
    35
100
AcDbVertex
100
AcDb2dVertex
 10
3.781907338603054
 20
5.737499660915798
 30
0.0
  0
VERTEX
  5
67
330
45
100
AcDbEntity
  8
Layer 1
 62
    44
420
 11501056
370
    35
100
AcDbVertex
100
AcDb2dVertex
 10
4.681944105360243
 20
6.727777269151475
 30
0.0
  0
VERTEX
  5
68
330
45
100
AcDbEntity
  8
Layer 1
 62
    44
420
 11501056
370
    35
100
AcDbVertex
100
AcDb2dVertex
 10
3.99950706468831
 20
7.566666073269314
 30
0.0
  0
VERTEX
  5
69
330
45
100
AcDbEntity
  8
Layer 1
 62
    44
420
 11501056
370
    35
100
AcDbVertex
100
AcDb2dVertex
 10
2.758251539851648
 20
6.913888295491536
 30
0.0
  0
VERTEX
  5
6A
330
45
100
AcDbEntity
  8
Layer 1
 62
    44
420
 11501056
370
    35
100
AcDbVertex
100
AcDb2dVertex
 10
3.007543678981038
 20
7.149999406602647
 30
0.0
  0
VERTEX
  5
6B
330
45
100
AcDbEntity
  8
Layer 1
 62
    44
420
 11501056
370
    35
100
AcDbVertex
100
AcDb2dVertex
 10
3.002869403823663
 20
8.119443893432617
 30
0.0
  0
VERTEX
  5
6C
330
45
100
AcDbEntity
  8
Layer 1
 62
    44
420
 11501056
370
    35
100
AcDbVertex
100
AcDb2dVertex
 10
2.727090022460465
 20
8.341666115654839
 30
0.0
  0
VERTEX
  5
6D
330
45
100
AcDbEntity
  8
Layer 1
 62
    44
420
 11501056
370
    35
100
AcDbVertex
100
AcDb2dVertex
 10
3.012217954138426
 20
8.55972162882487
 30
0.0
  0
VERTEX
  5
6E
330
45
100
AcDbEntity
  8
Layer 1
 62
    44
420
 11501056
370
    35
100
AcDbVertex
100
AcDb2dVertex
 10
3.058960230225175
 20
9.143054962158203
 30
0.0
  0
VERTEX
  5
6F
330
45
100
AcDbEntity
  8
Layer 1
 62
    44
420
 11501056
370
    35
100
AcDbVertex
100
AcDb2dVertex
 10
2.820574574633989
 20
9.397221671210394
 30
0.0
  0
VERTEX
  5
70
330
45
100
AcDbEntity
  8
Layer 1
 62
    44
420
 11501056
370
    35
100
AcDbVertex
100
AcDb2dVertex
 10
1.351309219834901
 20
9.394444465637207
 30
0.0
  0
SEQEND
  5
71
330
45
100
AcDbEntity
  8
Layer 1
 62
    44
420
 11501056
370
    35
  0
SPLINE
  5
72
330
41
100
AcDbEntity
  8
Layer 1
 62
    44
420
 11501056
370
    35
100
AcDbSpline
210
0.0
220
0.0
230
1.0
 70
    11
 71
     3
 72
    20
 73
    16
 74
     0
 42
0.0000000001
 43
0.0000000001
 12
1.0
 22
0.0
 32
0.0
 13
1.0
 23
0.0
 33
0.0
 40
0.0
 40
0.0
 40
0.0
 40
0.0
 40
1.0
 40
1.0
 40
1.0
 40
2.0
 40
2.0
 40
2.0
 40
3.0
 40
3.0
 40
3.0
 40
4.0
 40
4.0
 40
4.0
 40
5.0
 40
5.0
 40
5.0
 40
5.0
 10
2.172415155543654
 20
5.1875
 30
0.0
 10
2.234738190326008
 20
5.148611280653212
 30
0.0
 10
2.429497674020846
 20
5.131944444444444
 30
0.0
 10
2.429497674020846
 20
5.131944444444444
 30
0.0
 10
2.429497674020846
 20
5.131944444444444
 30
0.0
 10
1.74082818722459
 20
5.131944444444444
 30
0.0
 10
1.74082818722459
 20
5.131944444444444
 30
0.0
 10
1.74082818722459
 20
5.131944444444444
 30
0.0
 10
1.915332637066462
 20
5.148611280653212
 30
0.0
 10
1.990120326353993
 20
5.184722052680121
 30
0.0
 10
2.064908015641511
 20
5.220832824707031
 30
0.0
 10
2.083604878527518
 20
5.274999830457899
 30
0.0
 10
2.083604878527518
 20
5.274999830457899
 30
0.0
 10
2.083604878527518
 20
5.274999830457899
 30
0.0
 10
2.110092120761313
 20
5.2250001695421
 30
0.0
 10
2.172415155543654
 20
5.1875
 30
0.0
  0
HATCH
  5
73
330
41
100
AcDbEntity
  8
Layer 1
 62
   251
420
  6053216
100
AcDbHatch
 10
0.0
 20
0.0
 30
0.0
210
0.0
220
0.0
230
1.0
  2
SOLID
 70
     1
 71
     0
 91
        2
 92
        1
 93
       42
 72
     1
 10
1.351309219834901
 20
9.394444465637207
 11
1.11759783940109
 21
9.148611068725586
 72
     1
 10
1.11759783940109
 20
9.148611068725586
 11
1.164340115487852
 21
8.555555555555555
 72
     1
 10
1.164340115487852
 20
8.555555555555555
 11
1.429213013312847
 21
8.356944402058918
 72
     1
 10
1.429213013312847
 20
8.356944402058918
 11
1.179920874183444
 21
8.125
 72
     1
 10
1.179920874183444
 20
8.125
 11
1.159665840330465
 21
7.150000042385525
 72
     1
 10
1.159665840330465
 20
7.150000042385525
 11
1.413632254617242
 21
6.899999830457899
 72
     1
 10
1.413632254617242
 20
6.899999830457899
 11
0.1794548730647674
 21
7.591666539510091
 72
     1
 10
0.1794548730647673
 20
7.591666539510091
 11
-0.5138888888888888
 21
6.75
 72
     1
 10
-0.5138888888888888
 20
6.75
 11
0.3899763369940956
 21
5.752777947319879
 72
     1
 10
0.3899763369940956
 20
5.752777947319879
 11
1.26717298023262
 21
5.405555725097656
 72
     1
 10
1.26717298023262
 20
5.405555725097656
 11
1.828080293273779
 21
5.693055894639756
 72
     1
 10
1.828080293273779
 20
5.693055894639756
 11
1.527371602900227
 21
5.52638922797309
 72
     1
 10
1.527371602900227
 20
5.52638922797309
 11
1.491535810351668
 21
5.40138922797309
 72
     1
 10
1.491535810351668
 20
5.40138922797309
 11
1.670714535350928
 21
5.141666836208767
 72
     1
 10
1.670714535350928
 20
5.141666836208767
 11
1.343518602743592
 21
5.030555725097656
 72
     1
 10
1.343518602743592
 20
5.030555725097656
 11
1.164339877744346
 21
4.655555725097656
 72
     1
 10
1.164339877744346
 20
4.655555725097656
 11
1.273405188613449
 21
4.350000169542101
 72
     1
 10
1.273405188613449
 20
4.350000169542101
 11
1.039693808179638
 21
4.113889058430989
 72
     1
 10
1.039693808179638
 20
4.113889058430989
 11
1.063064946223019
 21
3.183333502875434
 72
     1
 10
1.063064946223019
 20
3.183333502875434
 11
1.623972259264166
 21
2.7250001695421
 72
     1
 10
1.623972259264166
 20
2.7250001695421
 11
2.577514643885428
 21
2.743055555555555
 72
     1
 10
2.577514643885428
 20
2.743055555555555
 11
3.107260439535404
 21
3.1875
 72
     1
 10
3.107260439535404
 20
3.1875
 11
3.1337476817692
 21
4.108333163791232
 72
     1
 10
3.1337476817692
 20
4.108333163791232
 11
2.889129817797172
 21
4.354166666666666
 72
     1
 10
2.889129817797172
 20
4.354166666666666
 11
3.009101612204492
 21
4.659722222222222
 72
     1
 10
3.009101612204492
 20
4.659722222222222
 11
2.84238754171041
 21
5.024999830457899
 72
     1
 10
2.84238754171041
 20
5.024999830457899
 11
2.499610850407483
 21
5.140277438693576
 72
     1
 10
2.499610850407483
 20
5.140277438693576
 11
2.69125422991192
 21
5.413888719346788
 72
     1
 10
2.69125422991192
 20
5.413888719346788
 11
2.639837678667782
 21
5.538888719346788
 72
     1
 10
2.639837678667782
 20
5.538888719346788
 11
2.343803263451605
 21
5.691666497124566
 72
     1
 10
2.343803263451605
 20
5.691666497124566
 11
2.89380409295456
 21
5.413888719346788
 72
     1
 10
2.89380409295456
 20
5.413888719346788
 11
3.781907338603054
 21
5.737499660915798
 72
     1
 10
3.781907338603054
 20
5.737499660915798
 11
4.681944105360243
 21
6.727777269151475
 72
     1
 10
4.681944105360243
 20
6.727777269151475
 11
3.99950706468831
 21
7.566666073269314
 72
     1
 10
3.99950706468831
 20
7.566666073269314
 11
2.758251539851648
 21
6.913888295491536
 72
     1
 10
2.758251539851648
 20
6.913888295491536
 11
3.007543678981038
 21
7.149999406602647
 72
     1
 10
3.007543678981038
 20
7.149999406602647
 11
3.002869403823663
 21
8.119443893432617
 72
     1
 10
3.002869403823663
 20
8.119443893432617
 11
2.727090022460465
 21
8.341666115654839
 72
     1
 10
2.727090022460465
 20
8.341666115654839
 11
3.012217954138426
 21
8.55972162882487
 72
     1
 10
3.012217954138426
 20
8.55972162882487
 11
3.058960230225175
 21
9.143054962158203
 72
     1
 10
3.058960230225175
 20
9.143054962158203
 11
2.820574574633989
 21
9.397221671210394
 72
     1
 10
2.820574574633989
 20
9.397221671210394
 11
1.351309219834901
 21
9.394444465637207
 97
        0
 92
        1
 93
        1
 72
     4
 94
        3
 73
     0
 74
     1
 95
       20
 96
       16
 40
0.0
 40
0.0
 40
0.0
 40
0.0
 40
1.0
 40
1.0
 40
1.0
 40
2.0
 40
2.0
 40
2.0
 40
3.0
 40
3.0
 40
3.0
 40
4.0
 40
4.0
 40
4.0
 40
5.0
 40
5.0
 40
5.0
 40
5.0
 10
2.172415155543654
 20
5.1875
 10
2.234738190326008
 20
5.148611280653212
 10
2.429497674020846
 20
5.131944444444444
 10
2.429497674020846
 20
5.131944444444444
 10
2.429497674020846
 20
5.131944444444444
 10
1.74082818722459
 20
5.131944444444444
 10
1.74082818722459
 20
5.131944444444444
 10
1.74082818722459
 20
5.131944444444444
 10
1.915332637066462
 20
5.148611280653212
 10
1.990120326353993
 20
5.184722052680121
 10
2.064908015641511
 20
5.220832824707031
 10
2.083604878527518
 20
5.274999830457899
 10
2.083604878527518
 20
5.274999830457899
 10
2.083604878527518
 20
5.274999830457899
 10
2.110092120761313
 20
5.2250001695421
 10
2.172415155543654
 20
5.1875
 97
        0
 97
        0
 75
     2
 76
     1
 98
        0
  0
POLYLINE
  5
74
330
41
100
AcDbEntity
  8
Layer 1
 62
   243
420
 16470906
370
    35
100
AcDb2dPolyline
 66
     1
 10
0.0
 20
0.0
 30
0.0
  0
VERTEX
  5
75
330
74
100
AcDbEntity
  8
Layer 1
 62
   243
420
 16470906
370
    35
100
AcDbVertex
100
AcDb2dVertex
 10
2.820574812377509
 20
9.400000042385525
 30
0.0
  0
VERTEX
  5
76
330
74
100
AcDbEntity
  8
Layer 1
 62
   243
420
 16470906
370
    35
100
AcDbVertex
100
AcDb2dVertex
 10
2.727090260203972
 20
8.34444448682997
 30
0.0
  0
VERTEX
  5
77
330
74
100
AcDbEntity
  8
Layer 1
 62
   243
420
 16470906
370
    35
100
AcDbVertex
100
AcDb2dVertex
 10
2.758251777595155
 20
6.916666666666666
 30
0.0
  0
VERTEX
  5
78
330
74
100
AcDbEntity
  8
Layer 1
 62
   243
420
 16470906
370
    35
100
AcDbVertex
100
AcDb2dVertex
 10
2.34224556797167
 20
5.694444444444444
 30
0.0
  0
VERTEX
  5
79
330
74
100
AcDbEntity
  8
Layer 1
 62
   243
420
 16470906
370
    35
100
AcDbVertex
100
AcDb2dVertex
 10
2.498053154927548
 20
5.143055386013454
 30
0.0
  0
VERTEX
  5
7A
330
74
100
AcDbEntity
  8
Layer 1
 62
   243
420
 16470906
370
    35
100
AcDbVertex
100
AcDb2dVertex
 10
2.887572122317225
 20
4.355555216471354
 30
0.0
  0
VERTEX
  5
7B
330
74
100
AcDbEntity
  8
Layer 1
 62
   243
420
 16470906
370
    35
100
AcDbVertex
100
AcDb2dVertex
 10
2.837713742040048
 20
2.969444274902344
 30
0.0
  0
VERTEX
  5
7C
330
74
100
AcDbEntity
  8
Layer 1
 62
   243
420
 16470906
370
    35
100
AcDbVertex
100
AcDb2dVertex
 10
1.334170527915868
 20
2.969444274902344
 30
0.0
  0
VERTEX
  5
7D
330
74
100
AcDbEntity
  8
Layer 1
 62
   243
420
 16470906
370
    35
100
AcDbVertex
100
AcDb2dVertex
 10
1.271847493133514
 20
4.351388719346788
 30
0.0
  0
VERTEX
  5
7E
330
74
100
AcDbEntity
  8
Layer 1
 62
   243
420
 16470906
370
    35
100
AcDbVertex
100
AcDb2dVertex
 10
1.669156839870993
 20
5.143055386013454
 30
0.0
  0
VERTEX
  5
7F
330
74
100
AcDbEntity
  8
Layer 1
 62
   243
420
 16470906
370
    35
100
AcDbVertex
100
AcDb2dVertex
 10
1.828080531017286
 20
5.694444444444444
 30
0.0
  0
VERTEX
  5
80
330
74
100
AcDbEntity
  8
Layer 1
 62
   243
420
 16470906
370
    35
100
AcDbVertex
100
AcDb2dVertex
 10
1.412074321393789
 20
6.902777777777778
 30
0.0
  0
VERTEX
  5
81
330
74
100
AcDbEntity
  8
Layer 1
 62
   243
420
 16470906
370
    35
100
AcDbVertex
100
AcDb2dVertex
 10
1.427655080089393
 20
8.358333375718859
 30
0.0
  0
VERTEX
  5
82
330
74
100
AcDbEntity
  8
Layer 1
 62
   243
420
 16470906
370
    35
100
AcDbVertex
100
AcDb2dVertex
 10
1.349751286611447
 20
9.395833333333332
 30
0.0
  0
SEQEND
  5
83
330
74
100
AcDbEntity
  8
Layer 1
 62
   243
420
 16470906
370
    35
  0
POLYLINE
  5
84
330
41
100
AcDbEntity
  8
Layer 1
 62
   243
420
 16470906
370
    35
100
AcDb2dPolyline
 66
     1
 10
0.0
 20
0.0
 30
0.0
  0
VERTEX
  5
85
330
84
100
AcDbEntity
  8
Layer 1
 62
   243
420
 16470906
370
    35
100
AcDbVertex
100
AcDb2dVertex
 10
1.264056876042206
 20
4.350000169542101
 30
0.0
  0
VERTEX
  5
86
330
84
100
AcDbEntity
  8
Layer 1
 62
   243
420
 16470906
370
    35
100
AcDbVertex
100
AcDb2dVertex
 10
2.887571884573718
 20
4.350000169542101
 30
0.0
  0
SEQEND
  5
87
330
84
100
AcDbEntity
  8
Layer 1
 62
   243
420
 16470906
370
    35
  0
POLYLINE
  5
88
330
41
100
AcDbEntity
  8
Layer 1
 62
   243
420
 16470906
370
    35
100
AcDb2dPolyline
 66
     1
 10
0.0
 20
0.0
 30
0.0
  0
VERTEX
  5
89
330
88
100
AcDbEntity
  8
Layer 1
 62
   243
420
 16470906
370
    35
100
AcDbVertex
100
AcDb2dVertex
 10
1.653575843431895
 20
5.141666836208767
 30
0.0
  0
VERTEX
  5
8A
330
88
100
AcDbEntity
  8
Layer 1
 62
   243
420
 16470906
370
    35
100
AcDbVertex
100
AcDb2dVertex
 10
2.518307951037008
 20
5.141666836208767
 30
0.0
  0
SEQEND
  5
8B
330
88
100
AcDbEntity
  8
Layer 1
 62
   243
420
 16470906
370
    35
  0
POLYLINE
  5
8C
330
41
100
AcDbEntity
  8
Layer 1
 62
   243
420
 16470906
370
    35
100
AcDb2dPolyline
 66
     1
 10
0.0
 20
0.0
 30
0.0
  0
VERTEX
  5
8D
330
8C
100
AcDbEntity
  8
Layer 1
 62
   243
420
 16470906
370
    35
100
AcDbVertex
100
AcDb2dVertex
 10
1.818731980702523
 20
5.691666497124566
 30
0.0
  0
VERTEX
  5
8E
330
8C
100
AcDbEntity
  8
Layer 1
 62
   243
420
 16470906
370
    35
100
AcDbVertex
100
AcDb2dVertex
 10
2.356268155700301
 20
5.691666497124566
 30
0.0
  0
SEQEND
  5
8F
330
8C
100
AcDbEntity
  8
Layer 1
 62
   243
420
 16470906
370
    35
  0
POLYLINE
  5
90
330
41
100
AcDbEntity
  8
Layer 1
 62
   243
420
 16470906
370
    35
100
AcDb2dPolyline
 66
     1
 10
0.0
 20
0.0
 30
0.0
  0
VERTEX
  5
91
330
90
100
AcDbEntity
  8
Layer 1
 62
   243
420
 16470906
370
    35
100
AcDbVertex
100
AcDb2dVertex
 10
1.429213013312847
 20
8.358333375718859
 30
0.0
  0
VERTEX
  5
92
330
90
100
AcDbEntity
  8
Layer 1
 62
   243
420
 16470906
370
    35
100
AcDbVertex
100
AcDb2dVertex
 10
2.730206364394399
 20
8.358333375718859
 30
0.0
  0
SEQEND
  5
93
330
90
100
AcDbEntity
  8
Layer 1
 62
   243
420
 16470906
370
    35
  0
POLYLINE
  5
94
330
41
100
AcDbEntity
  8
Layer 1
 62
   243
420
 16470906
370
    35
100
AcDb2dPolyline
 66
     1
 10
0.0
 20
0.0
 30
0.0
  0
VERTEX
  5
95
330
94
100
AcDbEntity
  8
Layer 1
 62
   243
420
 16470906
370
    35
100
AcDbVertex
100
AcDb2dVertex
 10
3.781907338603054
 20
5.738889058430989
 30
0.0
  0
VERTEX
  5
96
330
94
100
AcDbEntity
  8
Layer 1
 62
   243
420
 16470906
370
    35
100
AcDbVertex
100
AcDb2dVertex
 10
2.76136764404205
 20
6.9125001695421
 30
0.0
  0
VERTEX
  5
97
330
94
100
AcDbEntity
  8
Layer 1
 62
   243
420
 16470906
370
    35
100
AcDbVertex
100
AcDb2dVertex
 10
1.405841637525933
 20
6.9125001695421
 30
0.0
  0
VERTEX
  5
98
330
94
100
AcDbEntity
  8
Layer 1
 62
   243
420
 16470906
370
    35
100
AcDbVertex
100
AcDb2dVertex
 10
0.3899762181223423
 20
5.752777947319879
 30
0.0
  0
SEQEND
  5
99
330
94
100
AcDbEntity
  8
Layer 1
 62
   243
420
 16470906
370
    35
  0
ENDBLK
  5
44
330
41
100
AcDbEntity
  8
0
100
AcDbBlockEnd
  0
BLOCK
  5
9C
330
9A
100
AcDbEntity
  8
0
100
AcDbBlockBegin
  2
block 3
 70
     0
 10
0.0
 20
0.0
 30
0.0
  3
block 3
  1

  0
SPLINE
  5
9E
330
9A
100
AcDbEntity
  8
Layer 1
 62
     7
420
 16777215
370
    35
100
AcDbSpline
210
0.0
220
0.0
230
1.0
 70
    11
 71
     3
 72
   233
 73
   229
 74
     0
 42
0.0000000001
 43
0.0000000001
 12
1.0
 22
0.0
 32
0.0
 13
1.0
 23
0.0
 33
0.0
 40
0.0
 40
0.0
 40
0.0
 40
0.0
 40
1.0
 40
1.0
 40
1.0
 40
2.0
 40
2.0
 40
2.0
 40
3.0
 40
3.0
 40
3.0
 40
4.0
 40
4.0
 40
4.0
 40
5.0
 40
5.0
 40
5.0
 40
6.0
 40
6.0
 40
6.0
 40
7.0
 40
7.0
 40
7.0
 40
8.0
 40
8.0
 40
8.0
 40
9.0
 40
9.0
 40
9.0
 40
10.0
 40
10.0
 40
10.0
 40
11.0
 40
11.0
 40
11.0
 40
12.0
 40
12.0
 40
12.0
 40
13.0
 40
13.0
 40
13.0
 40
14.0
 40
14.0
 40
14.0
 40
15.0
 40
15.0
 40
15.0
 40
16.0
 40
16.0
 40
16.0
 40
17.0
 40
17.0
 40
17.0
 40
18.0
 40
18.0
 40
18.0
 40
19.0
 40
19.0
 40
19.0
 40
20.0
 40
20.0
 40
20.0
 40
21.0
 40
21.0
 40
21.0
 40
22.0
 40
22.0
 40
22.0
 40
23.0
 40
23.0
 40
23.0
 40
24.0
 40
24.0
 40
24.0
 40
25.0
 40
25.0
 40
25.0
 40
26.0
 40
26.0
 40
26.0
 40
27.0
 40
27.0
 40
27.0
 40
28.0
 40
28.0
 40
28.0
 40
29.0
 40
29.0
 40
29.0
 40
30.0
 40
30.0
 40
30.0
 40
31.0
 40
31.0
 40
31.0
 40
32.0
 40
32.0
 40
32.0
 40
33.0
 40
33.0
 40
33.0
 40
34.0
 40
34.0
 40
34.0
 40
35.0
 40
35.0
 40
35.0
 40
36.0
 40
36.0
 40
36.0
 40
37.0
 40
37.0
 40
37.0
 40
38.0
 40
38.0
 40
38.0
 40
39.0
 40
39.0
 40
39.0
 40
40.0
 40
40.0
 40
40.0
 40
41.0
 40
41.0
 40
41.0
 40
42.0
 40
42.0
 40
42.0
 40
43.0
 40
43.0
 40
43.0
 40
44.0
 40
44.0
 40
44.0
 40
45.0
 40
45.0
 40
45.0
 40
46.0
 40
46.0
 40
46.0
 40
47.0
 40
47.0
 40
47.0
 40
48.0
 40
48.0
 40
48.0
 40
49.0
 40
49.0
 40
49.0
 40
50.0
 40
50.0
 40
50.0
 40
51.0
 40
51.0
 40
51.0
 40
52.0
 40
52.0
 40
52.0
 40
53.0
 40
53.0
 40
53.0
 40
54.0
 40
54.0
 40
54.0
 40
55.0
 40
55.0
 40
55.0
 40
56.0
 40
56.0
 40
56.0
 40
57.0
 40
57.0
 40
57.0
 40
58.0
 40
58.0
 40
58.0
 40
59.0
 40
59.0
 40
59.0
 40
60.0
 40
60.0
 40
60.0
 40
61.0
 40
61.0
 40
61.0
 40
62.0
 40
62.0
 40
62.0
 40
63.0
 40
63.0
 40
63.0
 40
64.0
 40
64.0
 40
64.0
 40
65.0
 40
65.0
 40
65.0
 40
66.0
 40
66.0
 40
66.0
 40
67.0
 40
67.0
 40
67.0
 40
68.0
 40
68.0
 40
68.0
 40
69.0
 40
69.0
 40
69.0
 40
70.0
 40
70.0
 40
70.0
 40
71.0
 40
71.0
 40
71.0
 40
72.0
 40
72.0
 40
72.0
 40
73.0
 40
73.0
 40
73.0
 40
74.0
 40
74.0
 40
74.0
 40
75.0
 40
75.0
 40
75.0
 40
76.0
 40
76.0
 40
76.0
 40
76.0
 10
8.402777777777777
 20
1.368055555555556
 30
0.0
 10
8.402777777777777
 20
1.368055555555556
 30
0.0
 10
7.923611111111111
 20
2.423611111111111
 30
0.0
 10
7.923611111111111
 20
2.423611111111111
 30
0.0
 10
7.923611111111111
 20
2.423611111111111
 30
0.0
 10
7.601388719346788
 20
2.533333672417534
 30
0.0
 10
7.601388719346788
 20
2.533333672417534
 30
0.0
 10
7.601388719346788
 20
2.533333672417534
 30
0.0
 10
7.308333079020182
 20
2.666666666666667
 30
0.0
 10
7.308333079020182
 20
2.666666666666667
 30
0.0
 10
7.308333079020182
 20
2.666666666666667
 30
0.0
 10
6.086110856797959
 20
2.226388719346788
 30
0.0
 10
6.086110856797959
 20
2.226388719346788
 30
0.0
 10
6.086110856797959
 20
2.226388719346788
 30
0.0
 10
5.954166412353516
 20
1.931944105360243
 30
0.0
 10
5.954166412353516
 20
1.931944105360243
 30
0.0
 10
5.954166412353516
 20
1.931944105360243
 30
0.0
 10
5.627777523464626
 20
1.934722052680121
 30
0.0
 10
5.627777523464626
 20
1.934722052680121
 30
0.0
 10
5.627777523464626
 20
1.934722052680121
 30
0.0
 10
5.270832909478082
 20
1.587499830457899
 30
0.0
 10
5.270832909478082
 20
1.587499830457899
 30
0.0
 10
5.270832909478082
 20
1.587499830457899
 30
0.0
 10
5.273610856797959
 20
1.298611111111111
 30
0.0
 10
5.273610856797959
 20
1.298611111111111
 30
0.0
 10
5.273610856797959
 20
1.298611111111111
 30
0.0
 10
5.188888549804688
 20
2.209721883138021
 30
0.0
 10
5.188888549804688
 20
2.209721883138021
 30
0.0
 10
5.188888549804688
 20
2.215277777777778
 30
0.0
 10
5.187499576144748
 20
2.219444274902344
 30
0.0
 10
5.187499576144748
 20
2.224999321831597
 30
0.0
 10
5.187499576144748
 20
2.224999321831597
 30
0.0
 10
5.187499576144748
 20
3.938888973659939
 30
0.0
 10
5.187499576144748
 20
3.938888973659939
 30
0.0
 10
5.187499576144748
 20
3.948611365424262
 30
0.0
 10
5.188888549804688
 20
3.959722306993272
 30
0.0
 10
5.190277523464626
 20
3.969444698757595
 30
0.0
 10
5.190277523464626
 20
3.969444698757595
 30
0.0
 10
5.483333163791232
 20
5.365278032090928
 30
0.0
 10
5.483333163791232
 20
5.365278032090928
 30
0.0
 10
5.502777523464626
 20
5.456944783528646
 30
0.0
 10
5.431944105360243
 20
5.544444613986545
 30
0.0
 10
5.337499830457899
 20
5.544444613986545
 30
0.0
 10
5.337499830457899
 20
5.544444613986545
 30
0.0
 10
4.947221967909071
 20
5.544444613986545
 30
0.0
 10
4.947221967909071
 20
5.544444613986545
 30
0.0
 10
4.876388549804688
 20
5.544444613986545
 30
0.0
 10
4.815277523464626
 20
5.494444529215494
 30
0.0
 10
4.801388634575738
 20
5.42500008477105
 30
0.0
 10
4.801388634575738
 20
5.42500008477105
 30
0.0
 10
4.780555301242404
 20
5.322222391764322
 30
0.0
 10
4.780555301242404
 20
5.322222391764322
 30
0.0
 10
4.766666412353516
 20
5.252777947319879
 30
0.0
 10
4.705555386013454
 20
5.202777862548828
 30
0.0
 10
4.634721967909071
 20
5.202777862548828
 30
0.0
 10
4.634721967909071
 20
5.202777862548828
 30
0.0
 10
4.513888465033637
 20
5.202777862548828
 30
0.0
 10
4.513888465033637
 20
5.202777862548828
 30
0.0
 10
4.444444020589192
 20
5.202777862548828
 30
0.0
 10
4.384721967909071
 20
5.251388973659939
 30
0.0
 10
4.369444105360243
 20
5.319444444444444
 30
0.0
 10
4.369444105360243
 20
5.319444444444444
 30
0.0
 10
4.344444274902344
 20
5.427777608235677
 30
0.0
 10
4.344444274902344
 20
5.427777608235677
 30
0.0
 10
4.329166412353516
 20
5.495833079020182
 30
0.0
 10
4.269444359673394
 20
5.544444190131293
 30
0.0
 10
4.19999991522895
 20
5.544444190131293
 30
0.0
 10
4.19999991522895
 20
5.544444190131293
 30
0.0
 10
3.794444402058919
 20
5.544444190131293
 30
0.0
 10
3.794444402058919
 20
5.544444190131293
 30
0.0
 10
3.69999991522895
 20
5.544444190131293
 30
0.0
 10
3.629166709052192
 20
5.456944359673394
 30
0.0
 10
3.650000042385525
 20
5.363888634575738
 30
0.0
 10
3.650000042385525
 20
5.363888634575738
 30
0.0
 10
3.954166836208767
 20
3.969444274902344
 30
0.0
 10
3.954166836208767
 20
3.969444274902344
 30
0.0
 10
3.956944783528646
 20
3.959721883138021
 30
0.0
 10
3.956944783528646
 20
3.94861094156901
 30
0.0
 10
3.956944783528646
 20
3.9375
 30
0.0
 10
3.956944783528646
 20
3.9375
 30
0.0
 10
3.956944783528646
 20
2.231944613986545
 30
0.0
 10
3.956944783528646
 20
2.231944613986545
 30
0.0
 10
3.956944783528646
 20
2.227778116861979
 30
0.0
 10
3.956944783528646
 20
2.222222222222222
 30
0.0
 10
3.956944783528646
 20
2.218055725097656
 30
0.0
 10
3.956944783528646
 20
2.218055725097656
 30
0.0
 10
3.869444953070746
 20
1.277777777777778
 30
0.0
 10
3.869444953070746
 20
1.277777777777778
 30
0.0
 10
3.869444953070746
 20
1.277777777777778
 30
0.0
 10
3.873611450195312
 20
1.591666327582465
 30
0.0
 10
3.873611450195312
 20
1.591666327582465
 30
0.0
 10
3.873611450195312
 20
1.591666327582465
 30
0.0
 10
3.516667048136393
 20
1.938888549804688
 30
0.0
 10
3.516667048136393
 20
1.938888549804688
 30
0.0
 10
3.516667048136393
 20
1.938888549804688
 30
0.0
 10
3.190278159247504
 20
1.936110602484809
 30
0.0
 10
3.190278159247504
 20
1.936110602484809
 30
0.0
 10
3.190278159247504
 20
1.936110602484809
 30
0.0
 10
3.05833371480306
 20
2.230555216471354
 30
0.0
 10
3.05833371480306
 20
2.230555216471354
 30
0.0
 10
3.05833371480306
 20
2.230555216471354
 30
0.0
 10
1.836111492580838
 20
2.670833163791233
 30
0.0
 10
1.836111492580838
 20
2.670833163791233
 30
0.0
 10
1.836111492580838
 20
2.670833163791233
 30
0.0
 10
1.530555937025282
 20
2.531944274902344
 30
0.0
 10
1.530555937025282
 20
2.531944274902344
 30
0.0
 10
1.530555937025282
 20
2.531944274902344
 30
0.0
 10
1.530555937025282
 20
2.531944274902344
 30
0.0
 10
1.530555937025282
 20
2.531944274902344
 30
0.0
 10
1.530555937025282
 20
2.531944274902344
 30
0.0
 10
1.215278201633029
 20
2.424999660915799
 30
0.0
 10
1.215278201633029
 20
2.424999660915799
 30
0.0
 10
1.215278201633029
 20
2.424999660915799
 30
0.0
 10
0.7361115349663628
 20
1.369444105360243
 30
0.0
 10
0.7361115349663628
 20
1.369444105360243
 30
0.0
 10
0.7361115349663628
 20
1.369444105360243
 30
0.0
 10
0.8611115349663628
 20
1.049999660915799
 30
0.0
 10
0.8611115349663628
 20
1.049999660915799
 30
0.0
 10
0.8611115349663628
 20
1.049999660915799
 30
0.0
 10
0.8680559794108073
 20
1.066666497124566
 30
0.0
 10
0.8680559794108073
 20
1.066666497124566
 30
0.0
 10
0.8680559794108073
 20
1.066666497124566
 30
0.0
 10
1.623611556159125
 20
0.798611111111111
 30
0.0
 10
1.623611556159125
 20
0.798611111111111
 30
0.0
 10
1.690278265211317
 20
0.7749998304578992
 30
0.0
 10
1.763889312744141
 20
0.806944105360243
 30
0.0
 10
1.793055958218045
 20
0.8708335028754339
 30
0.0
 10
1.793055958218045
 20
0.8708335028754339
 30
0.0
 10
1.841667069329156
 20
0.9791666666666666
 30
0.0
 10
1.841667069329156
 20
0.9791666666666666
 30
0.0
 10
1.841667069329156
 20
0.9791666666666666
 30
0.0
 10
1.873611556159125
 20
1.048611111111111
 30
0.0
 10
1.873611556159125
 20
1.048611111111111
 30
0.0
 10
1.945833735995822
 20
0.994444105360243
 30
0.0
 10
2.018056021796332
 20
0.9402779473198785
 30
0.0
 10
2.090278201633029
 20
0.8861109415690104
 30
0.0
 10
2.251389397515191
 20
0.7638888888888888
 30
0.0
 10
2.454167048136393
 20
0.744444105360243
 30
0.0
 10
2.648611492580838
 20
0.7180557250976562
 30
0.0
 10
2.677778244018555
 20
0.7138892279730903
 30
0.0
 10
3.029166963365343
 20
0.6819449530707465
 30
0.0
 10
3.031944910685221
 20
0.6666666666666666
 30
0.0
 10
3.031944910685221
 20
0.6666666666666666
 30
0.0
 10
3.059722688462999
 20
0.4222225613064236
 30
0.0
 10
3.059722688462999
 20
0.4222225613064236
 30
0.0
 10
3.068056106567383
 20
0.3513895670572916
 30
0.0
 10
3.116667217678494
 20
0.2916666666666666
 30
0.0
 10
3.184722688462999
 20
0.2694447835286458
 30
0.0
 10
3.184722688462999
 20
0.2694447835286458
 30
0.0
 10
3.459722730848524
 20
0.1777784559461806
 30
0.0
 10
3.459722730848524
 20
0.1777784559461806
 30
0.0
 10
3.540278328789605
 20
0.1513892279730903
 30
0.0
 10
3.626389397515191
 20
0.1972232394748264
 30
0.0
 10
3.648611704508463
 20
0.2791671752929688
 30
0.0
 10
3.644444995456272
 20
0.1958338419596354
 30
0.0
 10
3.709722730848524
 20
0.122222900390625
 30
0.0
 10
3.797222773234049
 20
0.122222900390625
 30
0.0
 10
3.797222773234049
 20
0.122222900390625
 30
0.0
 10
4.209722730848524
 20
0.122222900390625
 30
0.0
 10
4.209722730848524
 20
0.122222900390625
 30
0.0
 10
4.279167175292969
 20
0.122222900390625
 30
0.0
 10
4.340278201633029
 20
0.1708340115017361
 30
0.0
 10
4.354167090521918
 20
0.2388899061414931
 30
0.0
 10
4.354167090521918
 20
0.2388899061414931
 30
0.0
 10
4.376389397515191
 20
0.3402786254882812
 30
0.0
 10
4.376389397515191
 20
0.3402786254882812
 30
0.0
 10
4.391667260064019
 20
0.4083345201280382
 30
0.0
 10
4.451389312744141
 20
0.4569456312391493
 30
0.0
 10
4.520833757188584
 20
0.4569456312391493
 30
0.0
 10
4.520833757188584
 20
0.4569456312391493
 30
0.0
 10
4.629166920979817
 20
0.4569456312391493
 30
0.0
 10
4.629166920979817
 20
0.4569456312391493
 30
0.0
 10
4.698611365424262
 20
0.4569456312391493
 30
0.0
 10
4.759722391764322
 20
0.4083345201280382
 30
0.0
 10
4.77500025431315
 20
0.3388900756835938
 30
0.0
 10
4.77500025431315
 20
0.3388900756835938
 30
0.0
 10
4.794444613986545
 20
0.2472237481011285
 30
0.0
 10
4.794444613986545
 20
0.2472237481011285
 30
0.0
 10
4.808333502875434
 20
0.1791678534613715
 30
0.0
 10
4.869444529215494
 20
0.1291681925455729
 30
0.0
 10
4.938888973659939
 20
0.1291681925455729
 30
0.0
 10
4.938888973659939
 20
0.1291681925455729
 30
0.0
 10
5.343055725097656
 20
0.1277796427408854
 30
0.0
 10
5.343055725097656
 20
0.1277796427408854
 30
0.0
 10
5.433333502875434
 20
0.1277796427408854
 30
0.0
 10
5.501388973659939
 20
0.2055570814344618
 30
0.0
 10
5.490278032090928
 20
0.2930577596028646
 30
0.0
 10
5.490278032090928
 20
0.2930577596028646
 30
0.0
 10
5.493055979410807
 20
0.2819468180338541
 30
0.0
 10
5.493055979410807
 20
0.2819468180338541
 30
0.0
 10
5.512500339084201
 20
0.1972249348958333
 30
0.0
 10
5.60138914320204
 20
0.1472244262695312
 30
0.0
 10
5.684722476535373
 20
0.1736136542426215
 30
0.0
 10
5.684722476535373
 20
0.1736136542426215
 30
0.0
 10
5.959722306993272
 20
0.2652799818250868
 30
0.0
 10
5.959722306993272
 20
0.2652799818250868
 30
0.0
 10
6.027777777777778
 20
0.2875018649631076
 30
0.0
 10
6.076388888888888
 20
0.3472247653537326
 30
0.0
 10
6.084722306993272
 20
0.4180577596028646
 30
0.0
 10
6.084722306993272
 20
0.4180577596028646
 30
0.0
 10
6.11250008477105
 20
0.6625018649631076
 30
0.0
 10
6.11250008477105
 20
0.6625018649631076
 30
0.0
 10
6.113889058430989
 20
0.677779303656684
 30
0.0
 10
6.466666751437717
 20
0.7097244262695312
 30
0.0
 10
6.495833502875434
 20
0.7138909233940972
 30
0.0
 10
6.690277947319878
 20
0.7402801513671875
 30
0.0
 10
6.893055809868706
 20
0.7597240871853298
 30
0.0
 10
7.054167005750868
 20
0.8819461398654513
 30
0.0
 10
7.12638939751519
 20
0.9361131456163194
 30
0.0
 10
7.198611365424262
 20
0.9902793036566839
 30
0.0
 10
7.270833757188584
 20
1.044446309407552
 30
0.0
 10
7.270833757188584
 20
1.044446309407552
 30
0.0
 10
7.302778032090928
 20
0.9750018649631076
 30
0.0
 10
7.302778032090928
 20
0.9750018649631076
 30
0.0
 10
7.302778032090928
 20
0.9750018649631076
 30
0.0
 10
7.35138914320204
 20
0.866668701171875
 30
0.0
 10
7.35138914320204
 20
0.866668701171875
 30
0.0
 10
7.380555894639756
 20
0.8027801513671875
 30
0.0
 10
7.454166836208767
 20
0.7708350287543403
 30
0.0
 10
7.520833333333333
 20
0.794446309407552
 30
0.0
 10
7.520833333333333
 20
0.794446309407552
 30
0.0
 10
8.27222188313802
 20
1.061113145616319
 30
0.0
 10
8.27222188313802
 20
1.061113145616319
 30
0.0
 10
8.27222188313802
 20
1.061113145616319
 30
0.0
 10
8.277777777777777
 20
1.050002204047309
 30
0.0
 10
8.277777777777777
 20
1.050002204047309
 30
0.0
 10
8.277777777777777
 20
1.050002204047309
 30
0.0
 10
8.402777777777777
 20
1.368055555555556
 30
0.0
 10
8.402777777777777
 20
1.368055555555556
 30
0.0
  0
POLYLINE
  5
9F
330
9A
100
AcDbEntity
  8
Layer 1
 62
   243
420
 16470906
370
    35
100
AcDb2dPolyline
 66
     1
 10
0.0
 20
0.0
 30
0.0
  0
VERTEX
  5
A0
330
9F
100
AcDbEntity
  8
Layer 1
 62
   243
420
 16470906
370
    35
100
AcDbVertex
100
AcDb2dVertex
 10
5.180555555555555
 20
2.215277777777778
 30
0.0
  0
VERTEX
  5
A1
330
9F
100
AcDbEntity
  8
Layer 1
 62
   243
420
 16470906
370
    35
100
AcDbVertex
100
AcDb2dVertex
 10
3.944444444444444
 20
2.215277777777778
 30
0.0
  0
SEQEND
  5
A2
330
9F
100
AcDbEntity
  8
Layer 1
 62
   243
420
 16470906
370
    35
  0
POLYLINE
  5
A3
330
9A
100
AcDbEntity
  8
Layer 1
 62
   243
420
 16470906
370
    35
100
AcDb2dPolyline
 66
     1
 10
0.0
 20
0.0
 30
0.0
  0
VERTEX
  5
A4
330
A3
100
AcDbEntity
  8
Layer 1
 62
   243
420
 16470906
370
    35
100
AcDbVertex
100
AcDb2dVertex
 10
3.944444444444444
 20
3.951388888888889
 30
0.0
  0
VERTEX
  5
A5
330
A3
100
AcDbEntity
  8
Layer 1
 62
   243
420
 16470906
370
    35
100
AcDbVertex
100
AcDb2dVertex
 10
5.1875
 20
3.951388888888889
 30
0.0
  0
SEQEND
  5
A6
330
A3
100
AcDbEntity
  8
Layer 1
 62
   243
420
 16470906
370
    35
  0
POLYLINE
  5
A7
330
9A
100
AcDbEntity
  8
Layer 1
 62
   243
420
 16470906
370
    35
100
AcDb2dPolyline
 66
     1
 10
0.0
 20
0.0
 30
0.0
  0
VERTEX
  5
A8
330
A7
100
AcDbEntity
  8
Layer 1
 62
   243
420
 16470906
370
    35
100
AcDbVertex
100
AcDb2dVertex
 10
0.8680555555555555
 20
1.0625
 30
0.0
  0
VERTEX
  5
A9
330
A7
100
AcDbEntity
  8
Layer 1
 62
   243
420
 16470906
370
    35
100
AcDbVertex
100
AcDb2dVertex
 10
1.513888888888889
 20
2.513888888888889
 30
0.0
  0
VERTEX
  5
AA
330
A7
100
AcDbEntity
  8
Layer 1
 62
   243
420
 16470906
370
    35
100
AcDbVertex
100
AcDb2dVertex
 10
3.1875
 20
1.930555555555555
 30
0.0
  0
VERTEX
  5
AB
330
A7
100
AcDbEntity
  8
Layer 1
 62
   243
420
 16470906
370
    35
100
AcDbVertex
100
AcDb2dVertex
 10
3.875
 20
1.277777777777778
 30
0.0
  0
VERTEX
  5
AC
330
A7
100
AcDbEntity
  8
Layer 1
 62
   243
420
 16470906
370
    35
100
AcDbVertex
100
AcDb2dVertex
 10
5.270833333333333
 20
1.277777777777778
 30
0.0
  0
VERTEX
  5
AD
330
A7
100
AcDbEntity
  8
Layer 1
 62
   243
420
 16470906
370
    35
100
AcDbVertex
100
AcDb2dVertex
 10
5.965277777777778
 20
1.9375
 30
0.0
  0
VERTEX
  5
AE
330
A7
100
AcDbEntity
  8
Layer 1
 62
   243
420
 16470906
370
    35
100
AcDbVertex
100
AcDb2dVertex
 10
7.611111111111111
 20
2.513888888888889
 30
0.0
  0
VERTEX
  5
AF
330
A7
100
AcDbEntity
  8
Layer 1
 62
   243
420
 16470906
370
    35
100
AcDbVertex
100
AcDb2dVertex
 10
8.270833333333332
 20
1.076388888888889
 30
0.0
  0
SEQEND
  5
B0
330
A7
100
AcDbEntity
  8
Layer 1
 62
   243
420
 16470906
370
    35
  0
POLYLINE
  5
B1
330
9A
100
AcDbEntity
  8
Layer 1
 62
   243
420
 16470906
370
    35
100
AcDb2dPolyline
 66
     1
 10
0.0
 20
0.0
 30
0.0
  0
VERTEX
  5
B2
330
B1
100
AcDbEntity
  8
Layer 1
 62
   243
420
 16470906
370
    35
100
AcDbVertex
100
AcDb2dVertex
 10
5.270833333333333
 20
1.277777777777778
 30
0.0
  0
VERTEX
  5
B3
330
B1
100
AcDbEntity
  8
Layer 1
 62
   243
420
 16470906
370
    35
100
AcDbVertex
100
AcDb2dVertex
 10
5.486111111111111
 20
0.2847222222222222
 30
0.0
  0
SEQEND
  5
B4
330
B1
100
AcDbEntity
  8
Layer 1
 62
   243
420
 16470906
370
    35
  0
POLYLINE
  5
B5
330
9A
100
AcDbEntity
  8
Layer 1
 62
   243
420
 16470906
370
    35
100
AcDb2dPolyline
 66
     1
 10
0.0
 20
0.0
 30
0.0
  0
VERTEX
  5
B6
330
B5
100
AcDbEntity
  8
Layer 1
 62
   243
420
 16470906
370
    35
100
AcDbVertex
100
AcDb2dVertex
 10
3.875
 20
1.277777777777778
 30
0.0
  0
VERTEX
  5
B7
330
B5
100
AcDbEntity
  8
Layer 1
 62
   243
420
 16470906
370
    35
100
AcDbVertex
100
AcDb2dVertex
 10
3.659722222222222
 20
0.3194444444444444
 30
0.0
  0
SEQEND
  5
B8
330
B5
100
AcDbEntity
  8
Layer 1
 62
   243
420
 16470906
370
    35
  0
ENDBLK
  5
9D
330
9A
100
AcDbEntity
  8
0
100
AcDbBlockEnd
  0
BLOCK
  5
BB
330
B9
100
AcDbEntity
  8
0
100
AcDbBlockBegin
  2
block 4
 70
     0
 10
0.0
 20
0.0
 30
0.0
  3
block 4
  1

  0
POLYLINE
  5
BD
330
B9
100
AcDbEntity
  8
Layer 1
 62
   243
420
 16470906
370
    35
100
AcDb2dPolyline
 66
     1
 10
0.0
 20
0.0
 30
0.0
  0
VERTEX
  5
BE
330
BD
100
AcDbEntity
  8
Layer 1
 62
   243
420
 16470906
370
    35
100
AcDbVertex
100
AcDb2dVertex
 10
8.415278116861979
 20
7.166666666666666
 30
0.0
  0
VERTEX
  5
BF
330
BD
100
AcDbEntity
  8
Layer 1
 62
   243
420
 16470906
370
    35
100
AcDbVertex
100
AcDb2dVertex
 10
8.415278116861979
 20
9.645833333333332
 30
0.0
  0
VERTEX
  5
C0
330
BD
100
AcDbEntity
  8
Layer 1
 62
   243
420
 16470906
370
    35
100
AcDbVertex
100
AcDb2dVertex
 10
8.415278116861979
 20
9.665277772479586
 30
0.0
  0
VERTEX
  5
C1
330
BD
100
AcDbEntity
  8
Layer 1
 62
   243
420
 16470906
370
    35
100
AcDbVertex
100
AcDb2dVertex
 10
8.355556064181858
 20
9.870833330684237
 30
0.0
  0
VERTEX
  5
C2
330
BD
100
AcDbEntity
  8
Layer 1
 62
   243
420
 16470906
370
    35
100
AcDbVertex
100
AcDb2dVertex
 10
7.458333333333333
 20
10.00416666931576
 30
0.0
  0
VERTEX
  5
C3
330
BD
100
AcDbEntity
  8
Layer 1
 62
   243
420
 16470906
370
    35
100
AcDbVertex
100
AcDb2dVertex
 10
7.333333333333333
 20
9.791666666666666
 30
0.0
  0
VERTEX
  5
C4
330
BD
100
AcDbEntity
  8
Layer 1
 62
   243
420
 16470906
370
    35
100
AcDbVertex
100
AcDb2dVertex
 10
7.143055386013454
 20
10.90833335452609
 30
0.0
  0
VERTEX
  5
C5
330
BD
100
AcDbEntity
  8
Layer 1
 62
   243
420
 16470906
370
    35
100
AcDbVertex
100
AcDb2dVertex
 10
5.720833248562283
 20
10.90833335452609
 30
0.0
  0
VERTEX
  5
C6
330
BD
100
AcDbEntity
  8
Layer 1
 62
   243
420
 16470906
370
    35
100
AcDbVertex
100
AcDb2dVertex
 10
5.520833333333333
 20
9.770833333333332
 30
0.0
  0
VERTEX
  5
C7
330
BD
100
AcDbEntity
  8
Layer 1
 62
   243
420
 16470906
370
    35
100
AcDbVertex
100
AcDb2dVertex
 10
5.398611280653212
 20
9.980555560853746
 30
0.0
  0
VERTEX
  5
C8
330
BD
100
AcDbEntity
  8
Layer 1
 62
   243
420
 16470906
370
    35
100
AcDbVertex
100
AcDb2dVertex
 10
4.563888973659939
 20
9.904166671964857
 30
0.0
  0
VERTEX
  5
C9
330
BD
100
AcDbEntity
  8
Layer 1
 62
   243
420
 16470906
370
    35
100
AcDbVertex
100
AcDb2dVertex
 10
4.451388888888888
 20
9.665277772479586
 30
0.0
  0
VERTEX
  5
CA
330
BD
100
AcDbEntity
  8
Layer 1
 62
   243
420
 16470906
370
    35
100
AcDbVertex
100
AcDb2dVertex
 10
4.445833418104383
 20
9.651388883590698
 30
0.0
  0
VERTEX
  5
CB
330
BD
100
AcDbEntity
  8
Layer 1
 62
   243
420
 16470906
370
    35
100
AcDbVertex
100
AcDb2dVertex
 10
4.458333333333333
 20
7.162499957614474
 30
0.0
  0
VERTEX
  5
CC
330
BD
100
AcDbEntity
  8
Layer 1
 62
   243
420
 16470906
370
    35
100
AcDbVertex
100
AcDb2dVertex
 10
4.458333333333333
 20
7.152777777777778
 30
0.0
  0
VERTEX
  5
CD
330
BD
100
AcDbEntity
  8
Layer 1
 62
   243
420
 16470906
370
    35
100
AcDbVertex
100
AcDb2dVertex
 10
4.529166751437717
 20
6.933333290947807
 30
0.0
  0
VERTEX
  5
CE
330
BD
100
AcDbEntity
  8
Layer 1
 62
   243
420
 16470906
370
    35
100
AcDbVertex
100
AcDb2dVertex
 10
5.40000025431315
 20
6.790277693006727
 30
0.0
  0
VERTEX
  5
CF
330
BD
100
AcDbEntity
  8
Layer 1
 62
   243
420
 16470906
370
    35
100
AcDbVertex
100
AcDb2dVertex
 10
5.522222306993272
 20
6.99861102634006
 30
0.0
  0
VERTEX
  5
D0
330
BD
100
AcDbEntity
  8
Layer 1
 62
   243
420
 16470906
370
    35
100
AcDbVertex
100
AcDb2dVertex
 10
5.718055725097656
 20
5.908333248562283
 30
0.0
  0
VERTEX
  5
D1
330
BD
100
AcDbEntity
  8
Layer 1
 62
   243
420
 16470906
370
    35
100
AcDbVertex
100
AcDb2dVertex
 10
7.140277862548828
 20
5.908333248562283
 30
0.0
  0
VERTEX
  5
D2
330
BD
100
AcDbEntity
  8
Layer 1
 62
   243
420
 16470906
370
    35
100
AcDbVertex
100
AcDb2dVertex
 10
7.336111280653212
 20
7.029166539510091
 30
0.0
  0
VERTEX
  5
D3
330
BD
100
AcDbEntity
  8
Layer 1
 62
   243
420
 16470906
370
    35
100
AcDbVertex
100
AcDb2dVertex
 10
7.46250025431315
 20
6.813888761732313
 30
0.0
  0
VERTEX
  5
D4
330
BD
100
AcDbEntity
  8
Layer 1
 62
   243
420
 16470906
370
    35
100
AcDbVertex
100
AcDb2dVertex
 10
8.354166666666666
 20
6.947222179836697
 30
0.0
  0
VERTEX
  5
D5
330
BD
100
AcDbEntity
  8
Layer 1
 62
   243
420
 16470906
370
    35
100
AcDbVertex
100
AcDb2dVertex
 10
8.415278116861979
 20
7.166666666666666
 30
0.0
  0
VERTEX
  5
D6
330
BD
100
AcDbEntity
  8
Layer 1
 62
   243
420
 16470906
370
    35
100
AcDbVertex
100
AcDb2dVertex
 10
8.415278116861979
 20
7.166666666666666
 30
0.0
  0
SEQEND
  5
D7
330
BD
100
AcDbEntity
  8
Layer 1
 62
   243
420
 16470906
370
    35
  0
POLYLINE
  5
D8
330
B9
100
AcDbEntity
  8
Layer 1
 62
   243
420
 16470906
370
    35
100
AcDb2dPolyline
 66
     1
 10
0.0
 20
0.0
 30
0.0
  0
VERTEX
  5
D9
330
D8
100
AcDbEntity
  8
Layer 1
 62
   243
420
 16470906
370
    35
100
AcDbVertex
100
AcDb2dVertex
 10
7.315277947319878
 20
7.115277820163302
 30
0.0
  0
VERTEX
  5
DA
330
D8
100
AcDbEntity
  8
Layer 1
 62
   243
420
 16470906
370
    35
100
AcDbVertex
100
AcDb2dVertex
 10
7.315277947319878
 20
7.063888973659939
 30
0.0
  0
VERTEX
  5
DB
330
D8
100
AcDbEntity
  8
Layer 1
 62
   243
420
 16470906
370
    35
100
AcDbVertex
100
AcDb2dVertex
 10
7.315277947319878
 20
7.063888973659939
 30
0.0
  0
VERTEX
  5
DC
330
D8
100
AcDbEntity
  8
Layer 1
 62
   243
420
 16470906
370
    35
100
AcDbVertex
100
AcDb2dVertex
 10
7.315277947319878
 20
7.115277820163302
 30
0.0
  0
SEQEND
  5
DD
330
D8
100
AcDbEntity
  8
Layer 1
 62
   243
420
 16470906
370
    35
  0
HATCH
  5
DE
330
B9
100
AcDbEntity
  8
Layer 1
 62
   243
420
 16470906
100
AcDbHatch
 10
0.0
 20
0.0
 30
0.0
210
0.0
220
0.0
230
1.0
  2
SOLID
 70
     1
 71
     0
 91
        1
 92
        1
 93
       23
 72
     1
 10
8.415278116861979
 20
7.166666666666666
 11
8.415278116861979
 21
9.645833333333332
 72
     1
 10
8.415278116861979
 20
9.645833333333332
 11
8.415278116861979
 21
9.665277772479586
 72
     1
 10
8.415278116861979
 20
9.665277772479586
 11
8.355556064181858
 21
9.870833330684237
 72
     1
 10
8.355556064181858
 20
9.870833330684237
 11
7.458333333333333
 21
10.00416666931576
 72
     1
 10
7.458333333333333
 20
10.00416666931576
 11
7.333333333333333
 21
9.791666666666666
 72
     1
 10
7.333333333333333
 20
9.791666666666666
 11
7.143055386013454
 21
10.90833335452609
 72
     1
 10
7.143055386013454
 20
10.90833335452609
 11
5.720833248562283
 21
10.90833335452609
 72
     1
 10
5.720833248562283
 20
10.90833335452609
 11
5.520833333333333
 21
9.770833333333332
 72
     1
 10
5.520833333333333
 20
9.770833333333332
 11
5.398611280653212
 21
9.980555560853746
 72
     1
 10
5.398611280653212
 20
9.980555560853746
 11
4.563888973659939
 21
9.904166671964857
 72
     1
 10
4.563888973659939
 20
9.904166671964857
 11
4.451388888888888
 21
9.665277772479586
 72
     1
 10
4.451388888888888
 20
9.665277772479586
 11
4.445833418104383
 21
9.651388883590698
 72
     1
 10
4.445833418104383
 20
9.651388883590698
 11
4.458333333333333
 21
7.162499957614474
 72
     1
 10
4.458333333333333
 20
7.162499957614474
 11
4.458333333333333
 21
7.152777777777778
 72
     1
 10
4.458333333333333
 20
7.152777777777778
 11
4.529166751437717
 21
6.933333290947807
 72
     1
 10
4.529166751437717
 20
6.933333290947807
 11
5.40000025431315
 21
6.790277693006727
 72
     1
 10
5.40000025431315
 20
6.790277693006727
 11
5.522222306993272
 21
6.99861102634006
 72
     1
 10
5.522222306993272
 20
6.99861102634006
 11
5.718055725097656
 21
5.908333248562283
 72
     1
 10
5.718055725097656
 20
5.908333248562283
 11
7.140277862548828
 21
5.908333248562283
 72
     1
 10
7.140277862548828
 20
5.908333248562283
 11
7.336111280653212
 21
7.029166539510091
 72
     1
 10
7.336111280653212
 20
7.029166539510091
 11
7.46250025431315
 21
6.813888761732313
 72
     1
 10
7.46250025431315
 20
6.813888761732313
 11
8.354166666666666
 21
6.947222179836697
 72
     1
 10
8.354166666666666
 20
6.947222179836697
 11
8.415278116861979
 21
7.166666666666666
 97
        0
 75
     2
 76
     1
 98
        0
  0
POLYLINE
  5
DF
330
B9
100
AcDbEntity
  8
Layer 1
 62
    14
420
 11468800
370
    35
100
AcDb2dPolyline
 66
     1
 10
0.0
 20
0.0
 30
0.0
  0
VERTEX
  5
E0
330
DF
100
AcDbEntity
  8
Layer 1
 62
    14
420
 11468800
370
    35
100
AcDbVertex
100
AcDb2dVertex
 10
4.458333333333333
 20
9.65555555290646
 30
0.0
  0
VERTEX
  5
E1
330
DF
100
AcDbEntity
  8
Layer 1
 62
    14
420
 11468800
370
    35
100
AcDbVertex
100
AcDb2dVertex
 10
5.530555725097656
 20
9.788888891537983
 30
0.0
  0
VERTEX
  5
E2
330
DF
100
AcDbEntity
  8
Layer 1
 62
    14
420
 11468800
370
    35
100
AcDbVertex
100
AcDb2dVertex
 10
7.340277777777778
 20
9.788888891537983
 30
0.0
  0
VERTEX
  5
E3
330
DF
100
AcDbEntity
  8
Layer 1
 62
    14
420
 11468800
370
    35
100
AcDbVertex
100
AcDb2dVertex
 10
8.409722222222221
 20
9.650000002649096
 30
0.0
  0
SEQEND
  5
E4
330
DF
100
AcDbEntity
  8
Layer 1
 62
    14
420
 11468800
370
    35
  0
POLYLINE
  5
E5
330
B9
100
AcDbEntity
  8
Layer 1
 62
    14
420
 11468800
370
    35
100
AcDb2dPolyline
 66
     1
 10
0.0
 20
0.0
 30
0.0
  0
VERTEX
  5
E6
330
E5
100
AcDbEntity
  8
Layer 1
 62
    14
420
 11468800
370
    35
100
AcDbVertex
100
AcDb2dVertex
 10
4.452777862548828
 20
7.14305559794108
 30
0.0
  0
VERTEX
  5
E7
330
E5
100
AcDbEntity
  8
Layer 1
 62
    14
420
 11468800
370
    35
100
AcDbVertex
100
AcDb2dVertex
 10
5.530555725097656
 20
6.994444529215494
 30
0.0
  0
VERTEX
  5
E8
330
E5
100
AcDbEntity
  8
Layer 1
 62
    14
420
 11468800
370
    35
100
AcDbVertex
100
AcDb2dVertex
 10
7.35138914320204
 20
6.994444529215494
 30
0.0
  0
VERTEX
  5
E9
330
E5
100
AcDbEntity
  8
Layer 1
 62
    14
420
 11468800
370
    35
100
AcDbVertex
100
AcDb2dVertex
 10
8.420834011501736
 20
7.158333460489908
 30
0.0
  0
SEQEND
  5
EA
330
E5
100
AcDbEntity
  8
Layer 1
 62
    14
420
 11468800
370
    35
  0
POLYLINE
  5
EB
330
B9
100
AcDbEntity
  8
Layer 1
 62
    14
420
 11468800
370
    35
100
AcDb2dPolyline
 66
     1
 10
0.0
 20
0.0
 30
0.0
  0
VERTEX
  5
EC
330
EB
100
AcDbEntity
  8
Layer 1
 62
    14
420
 11468800
370
    35
100
AcDbVertex
100
AcDb2dVertex
 10
5.530555725097656
 20
9.788888888226614
 30
0.0
  0
VERTEX
  5
ED
330
EB
100
AcDbEntity
  8
Layer 1
 62
    14
420
 11468800
370
    35
100
AcDbVertex
100
AcDb2dVertex
 10
5.530555725097656
 20
6.974999957614474
 30
0.0
  0
SEQEND
  5
EE
330
EB
100
AcDbEntity
  8
Layer 1
 62
    14
420
 11468800
370
    35
  0
POLYLINE
  5
EF
330
B9
100
AcDbEntity
  8
Layer 1
 62
    14
420
 11468800
370
    35
100
AcDb2dPolyline
 66
     1
 10
0.0
 20
0.0
 30
0.0
  0
VERTEX
  5
F0
330
EF
100
AcDbEntity
  8
Layer 1
 62
    14
420
 11468800
370
    35
100
AcDbVertex
100
AcDb2dVertex
 10
7.340277777777778
 20
9.788888888226614
 30
0.0
  0
VERTEX
  5
F1
330
EF
100
AcDbEntity
  8
Layer 1
 62
    14
420
 11468800
370
    35
100
AcDbVertex
100
AcDb2dVertex
 10
7.340277777777778
 20
6.974999957614474
 30
0.0
  0
SEQEND
  5
F2
330
EF
100
AcDbEntity
  8
Layer 1
 62
    14
420
 11468800
370
    35
  0
ENDBLK
  5
BC
330
B9
100
AcDbEntity
  8
0
100
AcDbBlockEnd
  0
BLOCK
  5
F5
330
F3
100
AcDbEntity
  8
0
100
AcDbBlockBegin
  2
block 5
 70
     0
 10
0.0
 20
0.0
 30
0.0
  3
block 5
  1

  0
SPLINE
  5
F7
330
F3
100
AcDbEntity
  8
Layer 1
 62
   251
420
  6053216
370
    35
100
AcDbSpline
210
0.0
220
0.0
230
1.0
 70
    11
 71
     3
 72
    53
 73
    49
 74
     0
 42
0.0000000001
 43
0.0000000001
 12
1.0
 22
0.0
 32
0.0
 13
1.0
 23
0.0
 33
0.0
 40
0.0
 40
0.0
 40
0.0
 40
0.0
 40
1.0
 40
1.0
 40
1.0
 40
2.0
 40
2.0
 40
2.0
 40
3.0
 40
3.0
 40
3.0
 40
4.0
 40
4.0
 40
4.0
 40
5.0
 40
5.0
 40
5.0
 40
6.0
 40
6.0
 40
6.0
 40
7.0
 40
7.0
 40
7.0
 40
8.0
 40
8.0
 40
8.0
 40
9.0
 40
9.0
 40
9.0
 40
10.0
 40
10.0
 40
10.0
 40
11.0
 40
11.0
 40
11.0
 40
12.0
 40
12.0
 40
12.0
 40
13.0
 40
13.0
 40
13.0
 40
14.0
 40
14.0
 40
14.0
 40
15.0
 40
15.0
 40
15.0
 40
16.0
 40
16.0
 40
16.0
 40
16.0
 10
7.933333926730685
 20
2.718054877387153
 30
0.0
 10
8.060317166180134
 20
2.792884477885511
 30
0.0
 10
8.1554625230795
 20
2.903442467742833
 30
0.0
 10
8.24862532031107
 20
3.015234841748704
 30
0.0
 10
8.336893357646659
 20
3.121153660588561
 30
0.0
 10
8.417781391452358
 20
3.258844982322064
 30
0.0
 10
8.439814814814806
 20
3.398148148148139
 30
0.0
 10
8.446518108890587
 20
3.44052915460361
 30
0.0
 10
8.413558504818411
 20
3.824922733793755
 30
0.0
 10
8.342592592592585
 20
3.833333333333333
 30
0.0
 10
8.296872878267473
 20
3.838751853241926
 30
0.0
 10
8.247962822498872
 20
3.823597416929412
 30
0.0
 10
8.208333333333332
 20
3.805555555555555
 30
0.0
 10
8.142880641716449
 20
3.775757332395667
 30
0.0
 10
8.116277728788544
 20
3.768125132273781
 30
0.0
 10
8.05182588655935
 20
3.737643029361227
 30
0.0
 10
7.860597837173978
 20
3.647202898009911
 30
0.0
 10
7.740740740740724
 20
3.523148148148139
 30
0.0
 10
7.634259259259251
 20
3.337962962962971
 30
0.0
 10
7.628303620006843
 20
3.327605329480548
 30
0.0
 10
7.569444868299696
 20
3.205554962158203
 30
0.0
 10
7.562500423855251
 20
3.205554962158203
 30
0.0
 10
7.562500423855251
 20
3.205554962158203
 30
0.0
 10
7.556944953070746
 20
3.204165988498264
 30
0.0
 10
7.561111450195312
 20
3.204165988498264
 30
0.0
 10
7.561111450195312
 20
3.204165988498264
 30
0.0
 10
7.562500423855251
 20
3.205554962158203
 30
0.0
 10
7.562500423855251
 20
3.205554962158203
 30
0.0
 10
7.562500423855251
 20
3.205554962158203
 30
0.0
 10
7.590278201633029
 20
3.111110687255859
 30
0.0
 10
7.590278201633029
 20
3.111110687255859
 30
0.0
 10
7.590278201633029
 20
3.111110687255859
 30
0.0
 10
7.811111450195312
 20
3.091666327582465
 30
0.0
 10
7.811111450195312
 20
3.091666327582465
 30
0.0
 10
7.811111450195312
 20
3.091666327582465
 30
0.0
 10
7.883333841959635
 20
3.168055216471354
 30
0.0
 10
7.883333841959635
 20
3.168055216471354
 30
0.0
 10
7.883333841959635
 20
3.168055216471354
 30
0.0
 10
7.886111789279513
 20
3.168055216471354
 30
0.0
 10
7.886111789279513
 20
3.168055216471354
 30
0.0
 10
7.886111789279513
 20
3.168055216471354
 30
0.0
 10
7.81388939751519
 20
3.081943935818142
 30
0.0
 10
7.81388939751519
 20
3.081943935818142
 30
0.0
 10
7.81388939751519
 20
3.081943935818142
 30
0.0
 10
7.847222646077474
 20
2.780554877387153
 30
0.0
 10
7.847222646077474
 20
2.780554877387153
 30
0.0
 10
7.847222646077474
 20
2.780554877387153
 30
0.0
 10
7.933333926730685
 20
2.718054877387153
 30
0.0
 10
7.933333926730685
 20
2.718054877387153
 30
0.0
  0
HATCH
  5
F8
330
F3
100
AcDbEntity
  8
Layer 1
 62
   251
420
  6053216
100
AcDbHatch
 10
0.0
 20
0.0
 30
0.0
210
0.0
220
0.0
230
1.0
  2
SOLID
 70
     1
 71
     0
 91
        1
 92
        1
 93
        2
 72
     4
 94
        3
 73
     0
 74
     0
 95
       53
 96
       49
 40
0.0
 40
0.0
 40
0.0
 40
0.0
 40
0.0138888888888889
 40
0.0138888888888889
 40
0.0138888888888889
 40
0.0277777777777778
 40
0.0277777777777778
 40
0.0277777777777778
 40
0.0416666666666667
 40
0.0416666666666667
 40
0.0416666666666667
 40
0.0555555555555556
 40
0.0555555555555556
 40
0.0555555555555556
 40
0.0694444444444444
 40
0.0694444444444444
 40
0.0694444444444444
 40
0.0833333333333333
 40
0.0833333333333333
 40
0.0833333333333333
 40
0.0972222222222222
 40
0.0972222222222222
 40
0.0972222222222222
 40
0.1111111111111111
 40
0.1111111111111111
 40
0.1111111111111111
 40
0.125
 40
0.125
 40
0.125
 40
0.1388888888888889
 40
0.1388888888888889
 40
0.1388888888888889
 40
0.1527777777777778
 40
0.1527777777777778
 40
0.1527777777777778
 40
0.1666666666666667
 40
0.1666666666666667
 40
0.1666666666666667
 40
0.1805555555555556
 40
0.1805555555555556
 40
0.1805555555555556
 40
0.1944444444444444
 40
0.1944444444444444
 40
0.1944444444444444
 40
0.2083333333333333
 40
0.2083333333333333
 40
0.2083333333333333
 40
0.2222222222222222
 40
0.2222222222222222
 40
0.2222222222222222
 40
0.2222222222222222
 10
7.933333926730685
 20
2.718054877387153
 10
8.060317166180134
 20
2.792884477885511
 10
8.1554625230795
 20
2.903442467742833
 10
8.24862532031107
 20
3.015234841748704
 10
8.336893357646659
 20
3.121153660588561
 10
8.417781391452358
 20
3.258844982322064
 10
8.439814814814806
 20
3.398148148148139
 10
8.446518108890587
 20
3.44052915460361
 10
8.413558504818411
 20
3.824922733793755
 10
8.342592592592585
 20
3.833333333333333
 10
8.296872878267473
 20
3.838751853241926
 10
8.247962822498872
 20
3.823597416929412
 10
8.208333333333332
 20
3.805555555555555
 10
8.142880641716449
 20
3.775757332395667
 10
8.116277728788544
 20
3.768125132273781
 10
8.05182588655935
 20
3.737643029361227
 10
7.860597837173978
 20
3.647202898009911
 10
7.740740740740724
 20
3.523148148148139
 10
7.634259259259251
 20
3.337962962962971
 10
7.628303620006843
 20
3.327605329480548
 10
7.569444868299696
 20
3.205554962158203
 10
7.562500423855251
 20
3.205554962158203
 10
7.562500423855251
 20
3.205554962158203
 10
7.556944953070746
 20
3.204165988498264
 10
7.561111450195312
 20
3.204165988498264
 10
7.561111450195312
 20
3.204165988498264
 10
7.562500423855251
 20
3.205554962158203
 10
7.562500423855251
 20
3.205554962158203
 10
7.562500423855251
 20
3.205554962158203
 10
7.590278201633029
 20
3.111110687255859
 10
7.590278201633029
 20
3.111110687255859
 10
7.590278201633029
 20
3.111110687255859
 10
7.811111450195312
 20
3.091666327582465
 10
7.811111450195312
 20
3.091666327582465
 10
7.811111450195312
 20
3.091666327582465
 10
7.883333841959635
 20
3.168055216471354
 10
7.883333841959635
 20
3.168055216471354
 10
7.883333841959635
 20
3.168055216471354
 10
7.886111789279513
 20
3.168055216471354
 10
7.886111789279513
 20
3.168055216471354
 10
7.886111789279513
 20
3.168055216471354
 10
7.81388939751519
 20
3.081943935818142
 10
7.81388939751519
 20
3.081943935818142
 10
7.81388939751519
 20
3.081943935818142
 10
7.847222646077474
 20
2.780554877387153
 10
7.847222646077474
 20
2.780554877387153
 10
7.847222646077474
 20
2.780554877387153
 10
7.933333926730685
 20
2.718054877387153
 10
7.933333926730685
 20
2.718054877387153
 97
        0
 72
     1
 10
7.933333926730685
 20
2.718054877387153
 11
7.933333926730685
 21
2.718054877387153
 97
        0
 75
     2
 76
     1
 98
        0
  0
SPLINE
  5
F9
330
F3
100
AcDbEntity
  8
Layer 1
 62
   251
420
  6053216
370
    35
100
AcDbSpline
210
0.0
220
0.0
230
1.0
 70
    11
 71
     3
 72
    53
 73
    49
 74
     0
 42
0.0000000001
 43
0.0000000001
 12
1.0
 22
0.0
 32
0.0
 13
1.0
 23
0.0
 33
0.0
 40
0.0
 40
0.0
 40
0.0
 40
0.0
 40
1.0
 40
1.0
 40
1.0
 40
2.0
 40
2.0
 40
2.0
 40
3.0
 40
3.0
 40
3.0
 40
4.0
 40
4.0
 40
4.0
 40
5.0
 40
5.0
 40
5.0
 40
6.0
 40
6.0
 40
6.0
 40
7.0
 40
7.0
 40
7.0
 40
8.0
 40
8.0
 40
8.0
 40
9.0
 40
9.0
 40
9.0
 40
10.0
 40
10.0
 40
10.0
 40
11.0
 40
11.0
 40
11.0
 40
12.0
 40
12.0
 40
12.0
 40
13.0
 40
13.0
 40
13.0
 40
14.0
 40
14.0
 40
14.0
 40
15.0
 40
15.0
 40
15.0
 40
16.0
 40
16.0
 40
16.0
 40
16.0
 10
8.029856481590336
 20
3.926388210717454
 30
0.0
 10
8.029856481590336
 20
3.926388210717454
 30
0.0
 10
8.115967762246353
 20
3.988888210713589
 30
0.0
 10
8.115967762246353
 20
3.988888210713589
 30
0.0
 10
8.115967762246353
 20
3.988888210713589
 30
0.0
 10
8.149301010822152
 20
4.290277269143088
 30
0.0
 10
8.149301010822152
 20
4.290277269143088
 30
0.0
 10
8.149301010822152
 20
4.290277269143088
 30
0.0
 10
8.077078619061695
 20
4.376388549799533
 30
0.0
 10
8.077078619061695
 20
4.376388549799533
 30
0.0
 10
8.077078619061695
 20
4.376388549799533
 30
0.0
 10
8.079856566381572
 20
4.376388549799407
 30
0.0
 10
8.079856566381572
 20
4.376388549799407
 30
0.0
 10
8.079856566381572
 20
4.376388549799407
 30
0.0
 10
8.152078958142486
 20
4.299999660907284
 30
0.0
 10
8.152078958142486
 20
4.299999660907284
 30
0.0
 10
8.152078958142486
 20
4.299999660907284
 30
0.0
 10
8.372912206705626
 20
4.319444020570775
 30
0.0
 10
8.372912206705626
 20
4.319444020570775
 30
0.0
 10
8.372912206705626
 20
4.319444020570775
 30
0.0
 10
8.400689984487649
 20
4.413888295471856
 30
0.0
 10
8.400689984487649
 20
4.413888295471856
 30
0.0
 10
8.400689984487649
 20
4.413888295471856
 30
0.0
 10
8.402078958147538
 20
4.412499321811866
 30
0.0
 10
8.402078958147538
 20
4.412499321811866
 30
0.0
 10
8.406245455272103
 20
4.412499321811664
 30
0.0
 10
8.400689984487649
 20
4.413888295471856
 30
0.0
 10
8.400689984487649
 20
4.413888295471856
 30
0.0
 10
8.393745540043204
 20
4.413888295472159
 30
0.0
 10
8.334886788341539
 20
4.535938662797157
 30
0.0
 10
8.328931149089588
 20
4.546296296279857
 30
0.0
 10
8.222449667616425
 20
4.731481481469801
 30
0.0
 10
8.102592571188755
 20
4.855536231336954
 30
0.0
 10
7.91136452180745
 20
4.94597636269686
 30
0.0
 10
7.84691267957962
 20
4.976458465612293
 30
0.0
 10
7.820309766652043
 20
4.984090665735392
 30
0.0
 10
7.754857075036498
 20
5.013888888898211
 30
0.0
 10
7.715227585871768
 20
5.031930750273836
 30
0.0
 10
7.666317530103848
 20
5.047085186588547
 30
0.0
 10
7.620597815778511
 20
5.041666666682001
 30
0.0
 10
7.549631903552305
 20
5.033256067145632
 30
0.0
 10
7.516672299462875
 20
4.648862487956952
 30
0.0
 10
7.523375593536734
 20
4.606481481501178
 30
0.0
 10
7.545409016892942
 20
4.467178315674118
 30
0.0
 10
7.626297050692452
 20
4.329486993936976
 30
0.0
 10
7.71456508802329
 20
4.223568175093154
 30
0.0
 10
7.807727885249833
 20
4.111775801083114
 30
0.0
 10
7.902873242144247
 20
4.001217811221522
 30
0.0
 10
8.029856481590336
 20
3.926388210717454
 30
0.0
  0
HATCH
  5
FA
330
F3
100
AcDbEntity
  8
Layer 1
 62
   251
420
  6053216
100
AcDbHatch
 10
0.0
 20
0.0
 30
0.0
210
0.0
220
0.0
230
1.0
  2
SOLID
 70
     1
 71
     0
 91
        1
 92
        1
 93
        2
 72
     4
 94
        3
 73
     0
 74
     0
 95
       53
 96
       49
 40
0.0
 40
0.0
 40
0.0
 40
0.0
 40
0.0138888888888889
 40
0.0138888888888889
 40
0.0138888888888889
 40
0.0277777777777778
 40
0.0277777777777778
 40
0.0277777777777778
 40
0.0416666666666667
 40
0.0416666666666667
 40
0.0416666666666667
 40
0.0555555555555556
 40
0.0555555555555556
 40
0.0555555555555556
 40
0.0694444444444444
 40
0.0694444444444444
 40
0.0694444444444444
 40
0.0833333333333333
 40
0.0833333333333333
 40
0.0833333333333333
 40
0.0972222222222222
 40
0.0972222222222222
 40
0.0972222222222222
 40
0.1111111111111111
 40
0.1111111111111111
 40
0.1111111111111111
 40
0.125
 40
0.125
 40
0.125
 40
0.1388888888888889
 40
0.1388888888888889
 40
0.1388888888888889
 40
0.1527777777777778
 40
0.1527777777777778
 40
0.1527777777777778
 40
0.1666666666666667
 40
0.1666666666666667
 40
0.1666666666666667
 40
0.1805555555555556
 40
0.1805555555555556
 40
0.1805555555555556
 40
0.1944444444444444
 40
0.1944444444444444
 40
0.1944444444444444
 40
0.2083333333333333
 40
0.2083333333333333
 40
0.2083333333333333
 40
0.2222222222222222
 40
0.2222222222222222
 40
0.2222222222222222
 40
0.2222222222222222
 10
8.029856481590336
 20
3.926388210717454
 10
8.029856481590336
 20
3.926388210717454
 10
8.115967762246353
 20
3.988888210713589
 10
8.115967762246353
 20
3.988888210713589
 10
8.115967762246353
 20
3.988888210713589
 10
8.149301010822152
 20
4.290277269143088
 10
8.149301010822152
 20
4.290277269143088
 10
8.149301010822152
 20
4.290277269143088
 10
8.077078619061695
 20
4.376388549799533
 10
8.077078619061695
 20
4.376388549799533
 10
8.077078619061695
 20
4.376388549799533
 10
8.079856566381572
 20
4.376388549799407
 10
8.079856566381572
 20
4.376388549799407
 10
8.079856566381572
 20
4.376388549799407
 10
8.152078958142486
 20
4.299999660907284
 10
8.152078958142486
 20
4.299999660907284
 10
8.152078958142486
 20
4.299999660907284
 10
8.372912206705626
 20
4.319444020570775
 10
8.372912206705626
 20
4.319444020570775
 10
8.372912206705626
 20
4.319444020570775
 10
8.400689984487649
 20
4.413888295471856
 10
8.400689984487649
 20
4.413888295471856
 10
8.400689984487649
 20
4.413888295471856
 10
8.402078958147538
 20
4.412499321811866
 10
8.402078958147538
 20
4.412499321811866
 10
8.406245455272103
 20
4.412499321811664
 10
8.400689984487649
 20
4.413888295471856
 10
8.400689984487649
 20
4.413888295471856
 10
8.393745540043204
 20
4.413888295472159
 10
8.334886788341539
 20
4.535938662797157
 10
8.328931149089588
 20
4.546296296279857
 10
8.222449667616425
 20
4.731481481469801
 10
8.102592571188755
 20
4.855536231336954
 10
7.91136452180745
 20
4.94597636269686
 10
7.84691267957962
 20
4.976458465612293
 10
7.820309766652043
 20
4.984090665735392
 10
7.754857075036498
 20
5.013888888898211
 10
7.715227585871768
 20
5.031930750273836
 10
7.666317530103848
 20
5.047085186588547
 10
7.620597815778511
 20
5.041666666682001
 10
7.549631903552305
 20
5.033256067145632
 10
7.516672299462875
 20
4.648862487956952
 10
7.523375593536734
 20
4.606481481501178
 10
7.545409016892942
 20
4.467178315674118
 10
7.626297050692452
 20
4.329486993936976
 10
7.71456508802329
 20
4.223568175093154
 10
7.807727885249833
 20
4.111775801083114
 10
7.902873242144247
 20
4.001217811221522
 10
8.029856481590336
 20
3.926388210717454
 97
        0
 72
     1
 10
8.029856481590336
 20
3.926388210717454
 11
8.029856481590336
 21
3.926388210717454
 97
        0
 75
     2
 76
     1
 98
        0
  0
POLYLINE
  5
FB
330
F3
100
AcDbEntity
  8
Layer 1
 62
   243
420
 16470906
370
    35
100
AcDb2dPolyline
 66
     1
 10
0.0
 20
0.0
 30
0.0
  0
VERTEX
  5
FC
330
FB
100
AcDbEntity
  8
Layer 1
 62
   243
420
 16470906
370
    35
100
AcDbVertex
100
AcDb2dVertex
 10
7.930555555555555
 20
2.718055725097656
 30
0.0
  0
VERTEX
  5
FD
330
FB
100
AcDbEntity
  8
Layer 1
 62
   243
420
 16470906
370
    35
100
AcDbVertex
100
AcDb2dVertex
 10
7.881944444444444
 20
3.166666666666667
 30
0.0
  0
VERTEX
  5
FE
330
FB
100
AcDbEntity
  8
Layer 1
 62
   243
420
 16470906
370
    35
100
AcDbVertex
100
AcDb2dVertex
 10
7.559722052680121
 20
3.201388888888889
 30
0.0
  0
SEQEND
  5
FF
330
FB
100
AcDbEntity
  8
Layer 1
 62
   243
420
 16470906
370
    35
  0
POLYLINE
  5
100
330
F3
100
AcDbEntity
  8
Layer 1
 62
   243
420
 16470906
370
    35
100
AcDb2dPolyline
 66
     1
 10
0.0
 20
0.0
 30
0.0
  0
VERTEX
  5
101
330
100
100
AcDbEntity
  8
Layer 1
 62
   243
420
 16470906
370
    35
100
AcDbVertex
100
AcDb2dVertex
 10
8.403468355662602
 20
4.409722222202415
 30
0.0
  0
VERTEX
  5
102
330
100
100
AcDbEntity
  8
Layer 1
 62
   243
420
 16470906
370
    35
100
AcDbVertex
100
AcDb2dVertex
 10
8.081245963896713
 20
4.374999999994669
 30
0.0
  0
VERTEX
  5
103
330
100
100
AcDbEntity
  8
Layer 1
 62
   243
420
 16470906
370
    35
100
AcDbVertex
100
AcDb2dVertex
 10
8.032634852765467
 20
3.926389058427831
 30
0.0
  0
SEQEND
  5
104
330
100
100
AcDbEntity
  8
Layer 1
 62
   243
420
 16470906
370
    35
  0
ENDBLK
  5
F6
330
F3
100
AcDbEntity
  8
0
100
AcDbBlockEnd
  0
BLOCK
  5
107
330
105
100
AcDbEntity
  8
0
100
AcDbBlockBegin
  2
block 6
 70
     0
 10
0.0
 20
0.0
 30
0.0
  3
block 6
  1

  0
SPLINE
  5
109
330
105
100
AcDbEntity
  8
Layer 1
 62
     7
420
 16777215
370
    35
100
AcDbSpline
210
0.0
220
0.0
230
1.0
 70
    11
 71
     3
 72
    80
 73
    76
 74
     0
 42
0.0000000001
 43
0.0000000001
 12
1.0
 22
0.0
 32
0.0
 13
1.0
 23
0.0
 33
0.0
 40
0.0
 40
0.0
 40
0.0
 40
0.0
 40
1.0
 40
1.0
 40
1.0
 40
2.0
 40
2.0
 40
2.0
 40
3.0
 40
3.0
 40
3.0
 40
4.0
 40
4.0
 40
4.0
 40
5.0
 40
5.0
 40
5.0
 40
6.0
 40
6.0
 40
6.0
 40
7.0
 40
7.0
 40
7.0
 40
8.0
 40
8.0
 40
8.0
 40
9.0
 40
9.0
 40
9.0
 40
10.0
 40
10.0
 40
10.0
 40
11.0
 40
11.0
 40
11.0
 40
12.0
 40
12.0
 40
12.0
 40
13.0
 40
13.0
 40
13.0
 40
14.0
 40
14.0
 40
14.0
 40
15.0
 40
15.0
 40
15.0
 40
16.0
 40
16.0
 40
16.0
 40
17.0
 40
17.0
 40
17.0
 40
18.0
 40
18.0
 40
18.0
 40
19.0
 40
19.0
 40
19.0
 40
20.0
 40
20.0
 40
20.0
 40
21.0
 40
21.0
 40
21.0
 40
22.0
 40
22.0
 40
22.0
 40
23.0
 40
23.0
 40
23.0
 40
24.0
 40
24.0
 40
24.0
 40
25.0
 40
25.0
 40
25.0
 40
25.0
 10
7.296506147030716
 20
4.193656228010392
 30
0.0
 10
7.170878127962093
 20
4.488880405096425
 30
0.0
 10
7.089220548152904
 20
4.407222825287262
 30
0.0
 10
6.963592529084281
 20
4.501443552049901
 30
0.0
 10
6.837964510015631
 20
4.595664278812541
 30
0.0
 10
6.687211347195418
 20
4.595664278812541
 30
0.0
 10
6.473644749918549
 20
4.620789422564131
 30
0.0
 10
6.260078152641679
 20
4.645915716471058
 30
0.0
 10
6.109324989821466
 20
4.551694989708418
 30
0.0
 10
6.008822114504406
 20
4.520287697402434
 30
0.0
 10
5.90832038934271
 20
4.488880405096425
 30
0.0
 10
5.732442082770906
 20
4.488880405096425
 30
0.0
 10
5.613095062101315
 20
4.319283096923678
 30
0.0
 10
5.49374919158711
 20
4.149685788750932
 30
0.0
 10
5.512593336939617
 20
3.841898464711423
 30
0.0
 10
5.531437482292151
 20
3.70370844884466
 30
0.0
 10
5.550281627644684
 20
3.565517282822561
 30
0.0
 10
5.65078335280638
 20
3.584361428175094
 30
0.0
 10
5.713597937418373
 20
3.515266995319381
 30
0.0
 10
5.776411371875029
 20
3.446171412308331
 30
0.0
 10
5.983696970752817
 20
3.465015557660864
 30
0.0
 10
5.983696970752817
 20
3.465015557660864
 30
0.0
 10
5.983696970752817
 20
3.465015557660864
 30
0.0
 10
6.09676184286799
 20
3.47757870461434
 30
0.0
 10
6.147013280526531
 20
3.496422849966873
 30
0.0
 10
6.163373090310111
 20
3.502557778635719
 30
0.0
 10
6.170353383165598
 20
3.507341274761277
 30
0.0
 10
6.173923465390595
 20
3.511029822987918
 30
0.0
 10
6.180544909775032
 20
3.514417030511317
 30
0.0
 10
6.186883415941893
 20
3.517941106522054
 30
0.0
 10
6.192666397071813
 20
3.52132716389009
 30
0.0
 10
6.195626896958124
 20
3.521464032377455
 30
0.0
 10
6.199073912560025
 20
3.521547993718438
 30
0.0
 10
6.203545716584105
 20
3.521547993718438
 30
0.0
 10
6.216465411697931
 20
3.521547993718438
 30
0.0
 10
6.223343340726741
 20
3.531481885528137
 30
0.0
 10
6.227678276263481
 20
3.547181506137374
 30
0.0
 10
6.244163452980855
 20
3.568436377116061
 30
0.0
 10
6.295636355627443
 20
3.635598548973702
 30
0.0
 10
6.316610588699278
 20
3.672301156538676
 30
0.0
 10
6.416170336624418
 20
3.846523239397861
 30
0.0
 10
6.682925868338998
 20
3.78085856981372
 30
0.0
 10
6.750025931807411
 20
3.640893864232667
 30
0.0
 10
6.790787437623672
 20
3.555869779696523
 30
0.0
 10
6.787073585979189
 20
3.358235134410809
 30
0.0
 10
6.714899037080158
 20
3.297044569161471
 30
0.0
 10
6.660152792290419
 20
3.25062889961517
 30
0.0
 10
6.591712797832264
 20
3.232405838154894
 30
0.0
 10
6.520873579301527
 20
3.240039419252576
 30
0.0
 10
6.487998688761309
 20
3.243581897749032
 30
0.0
 10
6.36989383587618
 20
3.307417820317141
 30
0.0
 10
6.354297729248982
 20
3.301699247887175
 30
0.0
 10
6.353708849706713
 20
3.301484168835587
 30
0.0
 10
6.16585742587904
 20
3.232604815031461
 30
0.0
 10
6.16585742587904
 20
3.232604815031461
 30
0.0
 10
6.16585742587904
 20
3.232604815031461
 30
0.0
 10
6.222389861936638
 20
2.547934583941418
 30
0.0
 10
6.222389861936638
 20
2.547934583941418
 30
0.0
 10
6.222389861936638
 20
2.547934583941418
 30
0.0
 10
6.429659358639456
 20
2.529091588744248
 30
0.0
 10
6.429675460814451
 20
2.529090438588885
 30
0.0
 10
6.45410936119707
 20
2.526868338441116
 30
0.0
 10
6.481161015169946
 20
2.536051178803316
 30
0.0
 10
6.508532412331785
 20
2.551007799052614
 30
0.0
 10
6.613280511067791
 20
2.580357463426758
 30
0.0
 10
6.797121343169111
 20
2.632727487251006
 30
0.0
 10
6.900779094627624
 20
2.667280454455623
 30
0.0
 10
7.051532257447863
 20
2.717530741958803
 30
0.0
 10
7.158314981008616
 20
2.843158761027452
 30
0.0
 10
7.27137985312379
 20
3.012756069200198
 30
0.0
 10
7.384444725238937
 20
3.182353377372944
 30
0.0
 10
7.434696162897479
 20
3.377075829297281
 30
0.0
 10
7.478665452001577
 20
3.546673137470028
 30
0.0
 10
7.522635891261062
 20
3.716270445642774
 30
0.0
 10
7.422133015944003
 20
3.898430900768997
 30
0.0
 10
7.296506147030716
 20
4.193656228010392
 30
0.0
  0
POLYLINE
  5
10A
330
105
100
AcDbEntity
  8
Layer 1
 62
   243
420
 16470906
370
    35
100
AcDb2dPolyline
 66
     1
 10
0.0
 20
0.0
 30
0.0
  0
VERTEX
  5
10B
330
10A
100
AcDbEntity
  8
Layer 1
 62
   243
420
 16470906
370
    35
100
AcDbVertex
100
AcDb2dVertex
 10
6.359951509593884
 20
3.293534295015004
 30
0.0
  0
VERTEX
  5
10C
330
10A
100
AcDbEntity
  8
Layer 1
 62
   243
420
 16470906
370
    35
100
AcDbVertex
100
AcDb2dVertex
 10
6.43909715010558
 20
2.488889058430989
 30
0.0
  0
SEQEND
  5
10D
330
10A
100
AcDbEntity
  8
Layer 1
 62
   243
420
 16470906
370
    35
  0
ENDBLK
  5
108
330
105
100
AcDbEntity
  8
0
100
AcDbBlockEnd
  0
BLOCK
  5
110
330
10E
100
AcDbEntity
  8
0
100
AcDbBlockBegin
  2
block 7
 70
     0
 10
0.0
 20
0.0
 30
0.0
  3
block 7
  1

  0
SPLINE
  5
112
330
10E
100
AcDbEntity
  8
Layer 1
370
     0
100
AcDbSpline
210
0.0
220
0.0
230
1.0
 70
    11
 71
     3
 72
    65
 73
    61
 74
     0
 42
0.0000000001
 43
0.0000000001
 12
1.0
 22
0.0
 32
0.0
 13
1.0
 23
0.0
 33
0.0
 40
0.0
 40
0.0
 40
0.0
 40
0.0
 40
1.0
 40
1.0
 40
1.0
 40
2.0
 40
2.0
 40
2.0
 40
3.0
 40
3.0
 40
3.0
 40
4.0
 40
4.0
 40
4.0
 40
5.0
 40
5.0
 40
5.0
 40
6.0
 40
6.0
 40
6.0
 40
7.0
 40
7.0
 40
7.0
 40
8.0
 40
8.0
 40
8.0
 40
9.0
 40
9.0
 40
9.0
 40
10.0
 40
10.0
 40
10.0
 40
11.0
 40
11.0
 40
11.0
 40
12.0
 40
12.0
 40
12.0
 40
13.0
 40
13.0
 40
13.0
 40
14.0
 40
14.0
 40
14.0
 40
15.0
 40
15.0
 40
15.0
 40
16.0
 40
16.0
 40
16.0
 40
17.0
 40
17.0
 40
17.0
 40
18.0
 40
18.0
 40
18.0
 40
19.0
 40
19.0
 40
19.0
 40
20.0
 40
20.0
 40
20.0
 40
20.0
 10
1.274117509479374
 20
5.405555771107603
 30
0.0
 10
1.264308633062658
 20
5.40025096431024
 30
0.0
 10
0.7451976618266877
 20
5.59368790229362
 30
0.0
 10
0.7314814814814731
 20
5.615740740740736
 30
0.0
 10
0.703069417469414
 20
5.661421582041826
 30
0.0
 10
1.026283959577704
 20
5.79739487236404
 30
0.0
 10
1.004629629629625
 20
5.847222222222222
 30
0.0
 10
0.9829752790303574
 20
5.897049619599506
 30
0.0
 10
0.995465528205159
 20
5.878442478100181
 30
0.0
 10
0.9872719815309665
 20
5.932161136414038
 30
0.0
 10
0.9628553287992139
 20
6.092261625560594
 30
0.0
 10
0.9831944538821314
 20
6.286971258022971
 30
0.0
 10
1.084065582800261
 20
6.419375829454856
 30
0.0
 10
1.177517195887946
 20
6.542023983235076
 30
0.0
 10
1.356366326868308
 20
6.60035897064693
 30
0.0
 10
1.50162781008305
 20
6.627636122452789
 30
0.0
 10
1.618329158223989
 20
6.649550261846772
 30
0.0
 10
1.71924691335889
 20
6.617624960940248
 30
0.0
 10
1.82407407407407
 20
6.555555555555555
 30
0.0
 10
1.945557618634287
 20
6.483623707707793
 30
0.0
 10
2.013888888888889
 20
6.42592592592593
 30
0.0
 10
2.101851851851848
 20
6.263888888888888
 30
0.0
 10
2.093252333854896
 20
6.276050050857204
 30
0.0
 10
2.315769923781279
 20
6.538509497200405
 30
0.0
 10
2.328703703703695
 20
6.55092592592593
 30
0.0
 10
2.444444444444444
 20
6.662037037037041
 30
0.0
 10
2.870370370370362
 20
6.666666666666666
 30
0.0
 10
3.068970716140471
 20
6.41069053623869
 30
0.0
 10
3.189582211258324
 20
6.255234292264478
 30
0.0
 10
3.266294577967541
 20
6.06586321338044
 30
0.0
 10
3.22560186795527
 20
5.876468145830055
 30
0.0
 10
3.214992871189856
 20
5.827090956195282
 30
0.0
 10
3.458333333333333
 20
5.672062087723677
 30
0.0
 10
3.458333333333333
 20
5.625
 30
0.0
 10
3.458333333333333
 20
5.615740740740748
 30
0.0
 10
2.898148148148139
 20
5.412037037037053
 30
0.0
 10
2.900748537399004
 20
5.413888719346788
 30
0.0
 10
2.900748537399004
 20
5.413888719346788
 30
0.0
 10
2.333333333333333
 20
5.694444444444444
 30
0.0
 10
2.333333333333333
 20
5.694444444444444
 30
0.0
 10
2.333333333333333
 20
5.694444444444444
 30
0.0
 10
2.476851851851848
 20
5.231481481481498
 30
0.0
 10
2.476851851851848
 20
5.231481481481498
 30
0.0
 10
2.476851851851848
 20
5.231481481481498
 30
0.0
 10
2.319444444444444
 20
5.168981481481498
 30
0.0
 10
2.222222222222222
 20
5.217592592592609
 30
0.0
 10
2.125
 20
5.26620370370372
 30
0.0
 10
2.078703703703695
 20
5.356481481481498
 30
0.0
 10
2.078703703703695
 20
5.356481481481498
 30
0.0
 10
2.078703703703695
 20
5.356481481481498
 30
0.0
 10
2.030092592592584
 20
5.256944444444444
 30
0.0
 10
1.939814814814806
 20
5.222222222222222
 30
0.0
 10
1.849537037037029
 20
5.1875
 30
0.0
 10
1.689814814814806
 20
5.240740740740724
 30
0.0
 10
1.689814814814806
 20
5.240740740740724
 30
0.0
 10
1.689814814814806
 20
5.240740740740724
 30
0.0
 10
1.833333333333333
 20
5.708333333333333
 30
0.0
 10
1.833333333333333
 20
5.708333333333333
 30
0.0
 10
1.833333333333333
 20
5.708333333333333
 30
0.0
 10
1.274659551783556
 20
5.405849250274817
 30
0.0
 10
1.274117509479374
 20
5.405555771107603
 30
0.0
  0
SPLINE
  5
113
330
10E
100
AcDbEntity
  8
Layer 1
370
     0
100
AcDbSpline
210
0.0
220
0.0
230
1.0
 70
    11
 71
     3
 72
    26
 73
    22
 74
     0
 42
0.0000000001
 43
0.0000000001
 12
1.0
 22
0.0
 32
0.0
 13
1.0
 23
0.0
 33
0.0
 40
0.0
 40
0.0
 40
0.0
 40
0.0
 40
1.0
 40
1.0
 40
1.0
 40
2.0
 40
2.0
 40
2.0
 40
3.0
 40
3.0
 40
3.0
 40
4.0
 40
4.0
 40
4.0
 40
5.0
 40
5.0
 40
5.0
 40
6.0
 40
6.0
 40
6.0
 40
7.0
 40
7.0
 40
7.0
 40
7.0
 10
1.634259259259251
 20
5.087962962962971
 30
0.0
 10
1.634259259259251
 20
5.087962962962971
 30
0.0
 10
1.407407407407403
 20
4.620370370370361
 30
0.0
 10
1.407407407407403
 20
4.620370370370361
 30
0.0
 10
1.407407407407403
 20
4.620370370370361
 30
0.0
 10
2.060185185185181
 20
4.370370370370361
 30
0.0
 10
2.060185185185181
 20
4.370370370370361
 30
0.0
 10
2.060185185185181
 20
4.370370370370361
 30
0.0
 10
2.754629629629625
 20
4.620370370370361
 30
0.0
 10
2.754629629629625
 20
4.620370370370361
 30
0.0
 10
2.754629629629625
 20
4.620370370370361
 30
0.0
 10
2.513896800884999
 20
5.097206550383791
 30
0.0
 10
2.513888889083912
 20
5.097222221835939
 30
0.0
 10
2.508529569168382
 20
5.107837772986082
 30
0.0
 10
2.305014941058794
 20
5.067996289555619
 30
0.0
 10
2.280688267642176
 20
5.064902379190395
 30
0.0
 10
2.195736012105878
 20
5.054097997536852
 30
0.0
 10
2.110142108407331
 20
5.045868809458676
 30
0.0
 10
2.024403002387897
 20
5.047948442775401
 30
0.0
 10
1.894685010033009
 20
5.051094800035267
 30
0.0
 10
1.763458978826103
 20
5.074362993993165
 30
0.0
 10
1.634259259259251
 20
5.087962962962971
 30
0.0
  0
SPLINE
  5
114
330
10E
100
AcDbEntity
  8
Layer 1
 62
     7
420
 16777215
370
    35
100
AcDbSpline
210
0.0
220
0.0
230
1.0
 70
    11
 71
     3
 72
    23
 73
    19
 74
     0
 42
0.0000000001
 43
0.0000000001
 12
1.0
 22
0.0
 32
0.0
 13
1.0
 23
0.0
 33
0.0
 40
0.0
 40
0.0
 40
0.0
 40
0.0
 40
1.0
 40
1.0
 40
1.0
 40
2.0
 40
2.0
 40
2.0
 40
3.0
 40
3.0
 40
3.0
 40
4.0
 40
4.0
 40
4.0
 40
5.0
 40
5.0
 40
5.0
 40
6.0
 40
6.0
 40
6.0
 40
6.0
 10
7.652777777777778
 20
3.189814814814806
 30
0.0
 10
7.652777777777778
 20
3.189814814814806
 30
0.0
 10
7.735184846100966
 20
3.5
 30
0.0
 10
8.004629629629612
 20
3.625
 30
0.0
 10
8.272685015643066
 20
3.75
 30
0.0
 10
8.300925925925917
 20
3.731481481481473
 30
0.0
 10
8.300925925925917
 20
3.731481481481473
 30
0.0
 10
8.300925925925917
 20
3.731481481481473
 30
0.0
 10
8.490740740740723
 20
3.5
 30
0.0
 10
8.254629629629612
 20
3.162037037037028
 30
0.0
 10
8.140052105432838
 20
2.998033914167131
 30
0.0
 10
7.925925925925917
 20
2.814814814814806
 30
0.0
 10
7.925925925925917
 20
2.814814814814806
 30
0.0
 10
7.925925925925917
 20
2.814814814814806
 30
0.0
 10
7.883333841959635
 20
3.162037037037028
 30
0.0
 10
7.883333841959635
 20
3.162037037037028
 30
0.0
 10
7.883333841959635
 20
3.162037037037028
 30
0.0
 10
7.652777777777778
 20
3.189814814814806
 30
0.0
 10
7.652777777777778
 20
3.189814814814806
 30
0.0
  0
SPLINE
  5
115
330
10E
100
AcDbEntity
  8
Layer 1
 62
     7
420
 16777215
370
    35
100
AcDbSpline
210
0.0
220
0.0
230
1.0
 70
    11
 71
     3
 72
    23
 73
    19
 74
     0
 42
0.0000000001
 43
0.0000000001
 12
1.0
 22
0.0
 32
0.0
 13
1.0
 23
0.0
 33
0.0
 40
0.0
 40
0.0
 40
0.0
 40
0.0
 40
1.0
 40
1.0
 40
1.0
 40
2.0
 40
2.0
 40
2.0
 40
3.0
 40
3.0
 40
3.0
 40
4.0
 40
4.0
 40
4.0
 40
5.0
 40
5.0
 40
5.0
 40
6.0
 40
6.0
 40
6.0
 40
6.0
 10
8.07985656638132
 20
4.370370370365082
 30
0.0
 10
8.07985656638132
 20
4.370370370365082
 30
0.0
 10
8.03726448239945
 20
4.023148148144779
 30
0.0
 10
8.03726448239945
 20
4.023148148144779
 30
0.0
 10
8.03726448239945
 20
4.023148148144779
 30
0.0
 10
7.823138302900739
 20
4.20636724750673
 30
0.0
 10
7.708560778711343
 20
4.370370370381756
 30
0.0
 10
7.47244966761539
 20
4.708333333355338
 30
0.0
 10
7.662264482440605
 20
4.939814814828272
 30
0.0
 10
7.662264482440605
 20
4.939814814828272
 30
0.0
 10
7.662264482440605
 20
4.939814814828272
 30
0.0
 10
7.690505392724289
 20
4.958333333345536
 30
0.0
 10
7.958560778732109
 20
4.83333333333351
 30
0.0
 10
8.228005562255147
 20
4.708333333321408
 30
0.0
 10
8.310412630564416
 20
4.398148148132527
 30
0.0
 10
8.310412630564416
 20
4.398148148132527
 30
0.0
 10
8.310412630564416
 20
4.398148148132527
 30
0.0
 10
8.07985656638132
 20
4.370370370365082
 30
0.0
 10
8.07985656638132
 20
4.370370370365082
 30
0.0
  0
SPLINE
  5
116
330
10E
100
AcDbEntity
  8
Layer 1
 62
    18
420
  4325376
370
    35
100
AcDbSpline
210
0.0
220
0.0
230
1.0
 70
    11
 71
     3
 72
    26
 73
    22
 74
     0
 42
0.0000000001
 43
0.0000000001
 12
1.0
 22
0.0
 32
0.0
 13
1.0
 23
0.0
 33
0.0
 40
0.0
 40
0.0
 40
0.0
 40
0.0
 40
1.0
 40
1.0
 40
1.0
 40
2.0
 40
2.0
 40
2.0
 40
3.0
 40
3.0
 40
3.0
 40
4.0
 40
4.0
 40
4.0
 40
5.0
 40
5.0
 40
5.0
 40
6.0
 40
6.0
 40
6.0
 40
7.0
 40
7.0
 40
7.0
 40
7.0
 10
5.215277777777778
 20
3.944444444444444
 30
0.0
 10
5.215277777777778
 20
4.273611280653212
 30
0.0
 10
4.909722222222222
 20
4.645833333333333
 30
0.0
 10
4.555555555555555
 20
4.645833333333333
 30
0.0
 10
4.201388888888888
 20
4.645833333333333
 30
0.0
 10
3.930555555555555
 20
4.273611280653212
 30
0.0
 10
3.930555555555555
 20
3.944444444444444
 30
0.0
 10
3.930555555555555
 20
3.929166581895616
 30
0.0
 10
3.931944529215495
 20
3.915277693006727
 30
0.0
 10
3.931944529215495
 20
3.901388804117838
 30
0.0
 10
3.931944529215495
 20
3.901388804117838
 30
0.0
 10
3.931944529215495
 20
2.236111111111111
 30
0.0
 10
3.931944529215495
 20
2.236111111111111
 30
0.0
 10
3.931944529215495
 20
2.236111111111111
 30
0.0
 10
5.222222222222222
 20
2.236111111111111
 30
0.0
 10
5.222222222222222
 20
2.236111111111111
 30
0.0
 10
5.222222222222222
 20
2.236111111111111
 30
0.0
 10
5.215277777777778
 20
3.791666666666667
 30
0.0
 10
5.215277777777778
 20
3.791666666666667
 30
0.0
 10
5.230555640326606
 20
3.843055725097656
 30
0.0
 10
5.215277777777778
 20
3.888888888888889
 30
0.0
 10
5.215277777777778
 20
3.944444444444444
 30
0.0
  0
HATCH
  5
117
330
10E
100
AcDbEntity
  8
Layer 1
 62
   251
420
  6053216
100
AcDbHatch
 10
0.0
 20
0.0
 30
0.0
210
0.0
220
0.0
230
1.0
  2
SOLID
 70
     1
 71
     0
 91
        1
 92
        1
 93
        1
 72
     4
 94
        3
 73
     0
 74
     1
 95
       26
 96
       22
 40
0.0
 40
0.0
 40
0.0
 40
0.0
 40
1.0
 40
1.0
 40
1.0
 40
2.0
 40
2.0
 40
2.0
 40
3.0
 40
3.0
 40
3.0
 40
4.0
 40
4.0
 40
4.0
 40
5.0
 40
5.0
 40
5.0
 40
6.0
 40
6.0
 40
6.0
 40
7.0
 40
7.0
 40
7.0
 40
7.0
 10
5.215277777777778
 20
3.944444444444444
 10
5.215277777777778
 20
4.273611280653212
 10
4.909722222222222
 20
4.645833333333333
 10
4.555555555555555
 20
4.645833333333333
 10
4.201388888888888
 20
4.645833333333333
 10
3.930555555555555
 20
4.273611280653212
 10
3.930555555555555
 20
3.944444444444444
 10
3.930555555555555
 20
3.929166581895616
 10
3.931944529215495
 20
3.915277693006727
 10
3.931944529215495
 20
3.901388804117838
 10
3.931944529215495
 20
3.901388804117838
 10
3.931944529215495
 20
2.236111111111111
 10
3.931944529215495
 20
2.236111111111111
 10
3.931944529215495
 20
2.236111111111111
 10
5.222222222222222
 20
2.236111111111111
 10
5.222222222222222
 20
2.236111111111111
 10
5.222222222222222
 20
2.236111111111111
 10
5.215277777777778
 20
3.791666666666667
 10
5.215277777777778
 20
3.791666666666667
 10
5.230555640326606
 20
3.843055725097656
 10
5.215277777777778
 20
3.888888888888889
 10
5.215277777777778
 20
3.944444444444444
 97
        0
 97
        0
 75
     2
 76
     1
 98
        0
  0
SPLINE
  5
118
330
10E
100
AcDbEntity
  8
Layer 1
 62
    18
420
  4325376
370
    35
100
AcDbSpline
210
0.0
220
0.0
230
1.0
 70
    11
 71
     3
 72
    20
 73
    16
 74
     0
 42
0.0000000001
 43
0.0000000001
 12
1.0
 22
0.0
 32
0.0
 13
1.0
 23
0.0
 33
0.0
 40
0.0
 40
0.0
 40
0.0
 40
0.0
 40
1.0
 40
1.0
 40
1.0
 40
2.0
 40
2.0
 40
2.0
 40
3.0
 40
3.0
 40
3.0
 40
4.0
 40
4.0
 40
4.0
 40
5.0
 40
5.0
 40
5.0
 40
5.0
 10
3.868055555555555
 20
1.284722222222222
 30
0.0
 10
3.868055555555555
 20
1.284722222222222
 30
0.0
 10
3.1875
 20
1.930555555555555
 30
0.0
 10
3.1875
 20
1.930555555555555
 30
0.0
 10
3.1875
 20
1.930555555555555
 30
0.0
 10
1.520833333333333
 20
2.520833333333333
 30
0.0
 10
1.520833333333333
 20
2.520833333333333
 30
0.0
 10
1.520833333333333
 20
1.686111450195312
 30
0.0
 10
2.198611153496636
 20
1.055555555555556
 30
0.0
 10
3.031944486829969
 20
1.055555555555556
 30
0.0
 10
3.344444486829969
 20
1.055555555555556
 30
0.0
 10
3.634722391764323
 20
1.149999830457899
 30
0.0
 10
3.875
 20
1.313888549804688
 30
0.0
 10
3.875
 20
1.313888549804688
 30
0.0
 10
3.868055555555555
 20
1.284722222222222
 30
0.0
 10
3.868055555555555
 20
1.284722222222222
 30
0.0
  0
HATCH
  5
119
330
10E
100
AcDbEntity
  8
Layer 1
 62
   251
420
  6053216
100
AcDbHatch
 10
0.0
 20
0.0
 30
0.0
210
0.0
220
0.0
230
1.0
  2
SOLID
 70
     1
 71
     0
 91
        1
 92
        1
 93
        1
 72
     4
 94
        3
 73
     0
 74
     1
 95
       20
 96
       16
 40
0.0
 40
0.0
 40
0.0
 40
0.0
 40
1.0
 40
1.0
 40
1.0
 40
2.0
 40
2.0
 40
2.0
 40
3.0
 40
3.0
 40
3.0
 40
4.0
 40
4.0
 40
4.0
 40
5.0
 40
5.0
 40
5.0
 40
5.0
 10
3.868055555555555
 20
1.284722222222222
 10
3.868055555555555
 20
1.284722222222222
 10
3.1875
 20
1.930555555555555
 10
3.1875
 20
1.930555555555555
 10
3.1875
 20
1.930555555555555
 10
1.520833333333333
 20
2.520833333333333
 10
1.520833333333333
 20
2.520833333333333
 10
1.520833333333333
 20
1.686111450195312
 10
2.198611153496636
 20
1.055555555555556
 10
3.031944486829969
 20
1.055555555555556
 10
3.344444486829969
 20
1.055555555555556
 10
3.634722391764323
 20
1.149999830457899
 10
3.875
 20
1.313888549804688
 10
3.875
 20
1.313888549804688
 10
3.868055555555555
 20
1.284722222222222
 10
3.868055555555555
 20
1.284722222222222
 97
        0
 97
        0
 75
     2
 76
     1
 98
        0
  0
SPLINE
  5
11A
330
10E
100
AcDbEntity
  8
Layer 1
 62
    18
420
  4325376
370
    35
100
AcDbSpline
210
0.0
220
0.0
230
1.0
 70
    11
 71
     3
 72
    20
 73
    16
 74
     0
 42
0.0000000001
 43
0.0000000001
 12
1.0
 22
0.0
 32
0.0
 13
1.0
 23
0.0
 33
0.0
 40
0.0
 40
0.0
 40
0.0
 40
0.0
 40
1.0
 40
1.0
 40
1.0
 40
2.0
 40
2.0
 40
2.0
 40
3.0
 40
3.0
 40
3.0
 40
4.0
 40
4.0
 40
4.0
 40
5.0
 40
5.0
 40
5.0
 40
5.0
 10
5.272222306993272
 20
1.284722222222222
 30
0.0
 10
5.272222306993272
 20
1.284722222222222
 30
0.0
 10
5.952777862548828
 20
1.930555555555555
 30
0.0
 10
5.952777862548828
 20
1.930555555555555
 30
0.0
 10
5.952777862548828
 20
1.930555555555555
 30
0.0
 10
7.619444105360243
 20
2.520833333333333
 30
0.0
 10
7.619444105360243
 20
2.520833333333333
 30
0.0
 10
7.619444105360243
 20
1.686111450195312
 30
0.0
 10
6.941666497124565
 20
1.055555555555556
 30
0.0
 10
6.108333163791232
 20
1.055555555555556
 30
0.0
 10
5.795833163791232
 20
1.055555555555556
 30
0.0
 10
5.505555470784505
 20
1.149999830457899
 30
0.0
 10
5.265277438693576
 20
1.313888549804688
 30
0.0
 10
5.265277438693576
 20
1.313888549804688
 30
0.0
 10
5.272222306993272
 20
1.284722222222222
 30
0.0
 10
5.272222306993272
 20
1.284722222222222
 30
0.0
  0
HATCH
  5
11B
330
10E
100
AcDbEntity
  8
Layer 1
 62
   251
420
  6053216
100
AcDbHatch
 10
0.0
 20
0.0
 30
0.0
210
0.0
220
0.0
230
1.0
  2
SOLID
 70
     1
 71
     0
 91
        1
 92
        1
 93
        1
 72
     4
 94
        3
 73
     0
 74
     1
 95
       20
 96
       16
 40
0.0
 40
0.0
 40
0.0
 40
0.0
 40
1.0
 40
1.0
 40
1.0
 40
2.0
 40
2.0
 40
2.0
 40
3.0
 40
3.0
 40
3.0
 40
4.0
 40
4.0
 40
4.0
 40
5.0
 40
5.0
 40
5.0
 40
5.0
 10
5.272222306993272
 20
1.284722222222222
 10
5.272222306993272
 20
1.284722222222222
 10
5.952777862548828
 20
1.930555555555555
 10
5.952777862548828
 20
1.930555555555555
 10
5.952777862548828
 20
1.930555555555555
 10
7.619444105360243
 20
2.520833333333333
 10
7.619444105360243
 20
2.520833333333333
 10
7.619444105360243
 20
1.686111450195312
 10
6.941666497124565
 20
1.055555555555556
 10
6.108333163791232
 20
1.055555555555556
 10
5.795833163791232
 20
1.055555555555556
 10
5.505555470784505
 20
1.149999830457899
 10
5.265277438693576
 20
1.313888549804688
 10
5.265277438693576
 20
1.313888549804688
 10
5.272222306993272
 20
1.284722222222222
 10
5.272222306993272
 20
1.284722222222222
 97
        0
 97
        0
 75
     2
 76
     1
 98
        0
  0
ENDBLK
  5
111
330
10E
100
AcDbEntity
  8
0
100
AcDbBlockEnd
  0
BLOCK
  5
11E
330
11C
100
AcDbEntity
  8
0
100
AcDbBlockBegin
  2
block 8
 70
     0
 10
0.0
 20
0.0
 30
0.0
  3
block 8
  1

  0
SPLINE
  5
120
330
11C
100
AcDbEntity
  8
Layer 1
 62
   243
420
 16470906
370
    35
100
AcDbSpline
210
0.0
220
0.0
230
1.0
 70
    11
 71
     3
 72
    20
 73
    16
 74
     0
 42
0.0000000001
 43
0.0000000001
 12
1.0
 22
0.0
 32
0.0
 13
1.0
 23
0.0
 33
0.0
 40
0.0
 40
0.0
 40
0.0
 40
0.0
 40
1.0
 40
1.0
 40
1.0
 40
2.0
 40
2.0
 40
2.0
 40
3.0
 40
3.0
 40
3.0
 40
4.0
 40
4.0
 40
4.0
 40
5.0
 40
5.0
 40
5.0
 40
5.0
 10
2.278009115191101
 20
4.965740910282849
 30
0.0
 10
2.278009115191101
 20
4.965740910282849
 30
0.0
 10
2.204629544858562
 20
4.749074158845133
 30
0.0
 10
2.204629544858562
 20
4.631018603289577
 30
0.0
 10
2.204629544858562
 20
4.512963047734021
 30
0.0
 10
2.230312469120513
 20
4.382407576949516
 30
0.0
 10
2.341604705489847
 20
4.382407576949516
 30
0.0
 10
2.452897128473081
 20
4.382407576949516
 30
0.0
 10
2.532391662999986
 20
4.425463217276122
 30
0.0
 10
2.516492718771827
 20
4.631018603289577
 30
0.0
 10
2.504262790383071
 20
4.790740825511799
 30
0.0
 10
2.456566144312483
 20
4.960185439498344
 30
0.0
 10
2.456566144312483
 20
4.960185439498344
 30
0.0
 10
2.456566144312483
 20
4.960185439498344
 30
0.0
 10
2.278009115191101
 20
4.965740910282849
 30
0.0
 10
2.278009115191101
 20
4.965740910282849
 30
0.0
  0
HATCH
  5
121
330
11C
100
AcDbEntity
  8
Layer 1
 62
   243
420
 16470906
100
AcDbHatch
 10
0.0
 20
0.0
 30
0.0
210
0.0
220
0.0
230
1.0
  2
SOLID
 70
     1
 71
     0
 91
        1
 92
        1
 93
        1
 72
     4
 94
        3
 73
     0
 74
     1
 95
       20
 96
       16
 40
0.0
 40
0.0
 40
0.0
 40
0.0
 40
1.0
 40
1.0
 40
1.0
 40
2.0
 40
2.0
 40
2.0
 40
3.0
 40
3.0
 40
3.0
 40
4.0
 40
4.0
 40
4.0
 40
5.0
 40
5.0
 40
5.0
 40
5.0
 10
2.278009115191101
 20
4.965740910282849
 10
2.278009115191101
 20
4.965740910282849
 10
2.204629544858562
 20
4.749074158845133
 10
2.204629544858562
 20
4.631018603289577
 10
2.204629544858562
 20
4.512963047734021
 10
2.230312469120513
 20
4.382407576949516
 10
2.341604705489847
 20
4.382407576949516
 10
2.452897128473081
 20
4.382407576949516
 10
2.532391662999986
 20
4.425463217276122
 10
2.516492718771827
 20
4.631018603289577
 10
2.504262790383071
 20
4.790740825511799
 10
2.456566144312483
 20
4.960185439498344
 10
2.456566144312483
 20
4.960185439498344
 10
2.456566144312483
 20
4.960185439498344
 10
2.278009115191101
 20
4.965740910282849
 10
2.278009115191101
 20
4.965740910282849
 97
        0
 97
        0
 75
     2
 76
     1
 98
        0
  0
SPLINE
  5
122
330
11C
100
AcDbEntity
  8
Layer 1
 62
     7
420
 16777215
370
    35
100
AcDbSpline
210
0.0
220
0.0
230
1.0
 70
    11
 71
     3
 72
    23
 73
    19
 74
     0
 42
0.0000000001
 43
0.0000000001
 12
1.0
 22
0.0
 32
0.0
 13
1.0
 23
0.0
 33
0.0
 40
0.0
 40
0.0
 40
0.0
 40
0.0
 40
1.0
 40
1.0
 40
1.0
 40
2.0
 40
2.0
 40
2.0
 40
3.0
 40
3.0
 40
3.0
 40
4.0
 40
4.0
 40
4.0
 40
5.0
 40
5.0
 40
5.0
 40
6.0
 40
6.0
 40
6.0
 40
6.0
 10
7.653317152103555
 20
2.835715569938884
 30
0.0
 10
7.653317152103555
 20
2.835715569938884
 30
0.0
 10
7.680528247755066
 20
3.074793239841811
 30
0.0
 10
7.949973031283712
 20
3.199793239841811
 30
0.0
 10
8.071332254584679
 20
3.244741100323633
 30
0.0
 10
8.102795756921953
 20
3.213277597986361
 30
0.0
 10
8.102795756921953
 20
3.213277597986361
 30
0.0
 10
8.102795756921953
 20
3.213277597986361
 30
0.0
 10
8.22415498022292
 20
3.05596008629992
 30
0.0
 10
8.05335311039193
 20
2.871673858324357
 30
0.0
 10
7.917357642026344
 20
2.724941905614085
 30
0.0
 10
7.80613987774182
 20
2.619965839626047
 30
0.0
 10
7.80613987774182
 20
2.619965839626047
 30
0.0
 10
7.80613987774182
 20
2.619965839626047
 30
0.0
 10
7.786111619737413
 20
2.814814814814806
 30
0.0
 10
7.786111619737413
 20
2.814814814814806
 30
0.0
 10
7.786111619737413
 20
2.814814814814806
 30
0.0
 10
7.653317152103555
 20
2.835715569938884
 30
0.0
 10
7.653317152103555
 20
2.835715569938884
 30
0.0
  0
HATCH
  5
123
330
11C
100
AcDbEntity
  8
Layer 1
 62
   243
420
 16470906
100
AcDbHatch
 10
0.0
 20
0.0
 30
0.0
210
0.0
220
0.0
230
1.0
  2
SOLID
 70
     1
 71
     0
 91
        1
 92
        1
 93
        1
 72
     4
 94
        3
 73
     0
 74
     1
 95
       23
 96
       19
 40
0.0
 40
0.0
 40
0.0
 40
0.0
 40
1.0
 40
1.0
 40
1.0
 40
2.0
 40
2.0
 40
2.0
 40
3.0
 40
3.0
 40
3.0
 40
4.0
 40
4.0
 40
4.0
 40
5.0
 40
5.0
 40
5.0
 40
6.0
 40
6.0
 40
6.0
 40
6.0
 10
7.653317152103555
 20
2.835715569938884
 10
7.653317152103555
 20
2.835715569938884
 10
7.680528247755066
 20
3.074793239841811
 10
7.949973031283712
 20
3.199793239841811
 10
8.071332254584679
 20
3.244741100323633
 10
8.102795756921953
 20
3.213277597986361
 10
8.102795756921953
 20
3.213277597986361
 10
8.102795756921953
 20
3.213277597986361
 10
8.22415498022292
 20
3.05596008629992
 10
8.05335311039193
 20
2.871673858324357
 10
7.917357642026344
 20
2.724941905614085
 10
7.80613987774182
 20
2.619965839626047
 10
7.80613987774182
 20
2.619965839626047
 10
7.80613987774182
 20
2.619965839626047
 10
7.786111619737413
 20
2.814814814814806
 10
7.786111619737413
 20
2.814814814814806
 10
7.786111619737413
 20
2.814814814814806
 10
7.653317152103555
 20
2.835715569938884
 10
7.653317152103555
 20
2.835715569938884
 97
        0
 97
        0
 75
     2
 76
     1
 98
        0
  0
SPLINE
  5
124
330
11C
100
AcDbEntity
  8
Layer 1
 62
     7
420
 16777215
370
    35
100
AcDbSpline
210
0.0
220
0.0
230
1.0
 70
    11
 71
     3
 72
    23
 73
    19
 74
     0
 42
0.0000000001
 43
0.0000000001
 12
1.0
 22
0.0
 32
0.0
 13
1.0
 23
0.0
 33
0.0
 40
0.0
 40
0.0
 40
0.0
 40
0.0
 40
1.0
 40
1.0
 40
1.0
 40
2.0
 40
2.0
 40
2.0
 40
3.0
 40
3.0
 40
3.0
 40
4.0
 40
4.0
 40
4.0
 40
5.0
 40
5.0
 40
5.0
 40
6.0
 40
6.0
 40
6.0
 40
6.0
 10
7.980348218792111
 20
4.023912261771279
 30
0.0
 10
7.980348218792111
 20
4.023912261771279
 30
0.0
 10
7.960319960778937
 20
3.829063286583404
 30
0.0
 10
7.960319960778937
 20
3.829063286583404
 30
0.0
 10
7.960319960778937
 20
3.829063286583404
 30
0.0
 10
7.849102196499138
 20
3.934039352576443
 30
0.0
 10
7.713106728140145
 20
4.08077130529283
 30
0.0
 10
7.542304858317417
 20
4.265057533276048
 30
0.0
 10
7.663664081625458
 20
4.422375044957056
 30
0.0
 10
7.663664081625458
 20
4.422375044957056
 30
0.0
 10
7.663664081625458
 20
4.422375044957056
 30
0.0
 10
7.695127583964146
 20
4.453838547292914
 30
0.0
 10
7.816486807263092
 20
4.408890686805636
 30
0.0
 10
8.08593159078613
 20
4.283890686793534
 30
0.0
 10
8.113142686426903
 20
4.044813016889394
 30
0.0
 10
8.113142686426903
 20
4.044813016889394
 30
0.0
 10
8.113142686426903
 20
4.044813016889394
 30
0.0
 10
7.980348218792111
 20
4.023912261771279
 30
0.0
 10
7.980348218792111
 20
4.023912261771279
 30
0.0
  0
HATCH
  5
125
330
11C
100
AcDbEntity
  8
Layer 1
 62
   243
420
 16470906
100
AcDbHatch
 10
0.0
 20
0.0
 30
0.0
210
0.0
220
0.0
230
1.0
  2
SOLID
 70
     1
 71
     0
 91
        1
 92
        1
 93
        1
 72
     4
 94
        3
 73
     0
 74
     1
 95
       23
 96
       19
 40
0.0
 40
0.0
 40
0.0
 40
0.0
 40
1.0
 40
1.0
 40
1.0
 40
2.0
 40
2.0
 40
2.0
 40
3.0
 40
3.0
 40
3.0
 40
4.0
 40
4.0
 40
4.0
 40
5.0
 40
5.0
 40
5.0
 40
6.0
 40
6.0
 40
6.0
 40
6.0
 10
7.980348218792111
 20
4.023912261771279
 10
7.980348218792111
 20
4.023912261771279
 10
7.960319960778937
 20
3.829063286583404
 10
7.960319960778937
 20
3.829063286583404
 10
7.960319960778937
 20
3.829063286583404
 10
7.849102196499138
 20
3.934039352576443
 10
7.713106728140145
 20
4.08077130529283
 10
7.542304858317417
 20
4.265057533276048
 10
7.663664081625458
 20
4.422375044957056
 10
7.663664081625458
 20
4.422375044957056
 10
7.663664081625458
 20
4.422375044957056
 10
7.695127583964146
 20
4.453838547292914
 10
7.816486807263092
 20
4.408890686805636
 10
8.08593159078613
 20
4.283890686793534
 10
8.113142686426903
 20
4.044813016889394
 10
8.113142686426903
 20
4.044813016889394
 10
8.113142686426903
 20
4.044813016889394
 10
7.980348218792111
 20
4.023912261771279
 10
7.980348218792111
 20
4.023912261771279
 97
        0
 97
        0
 75
     2
 76
     1
 98
        0
  0
ENDBLK
  5
11F
330
11C
100
AcDbEntity
  8
0
100
AcDbBlockEnd
  0
BLOCK
  5
128
330
126
100
AcDbEntity
  8
0
100
AcDbBlockBegin
  2
block 9
 70
     0
 10
0.0
 20
0.0
 30
0.0
  3
block 9
  1

  0
SPLINE
  5
12A
330
126
100
AcDbEntity
  8
Layer 1
370
     0
100
AcDbSpline
210
0.0
220
0.0
230
1.0
 70
    11
 71
     3
 72
    17
 73
    13
 74
     0
 42
0.0000000001
 43
0.0000000001
 12
1.0
 22
0.0
 32
0.0
 13
1.0
 23
0.0
 33
0.0
 40
0.0
 40
0.0
 40
0.0
 40
0.0
 40
1.0
 40
1.0
 40
1.0
 40
2.0
 40
2.0
 40
2.0
 40
3.0
 40
3.0
 40
3.0
 40
4.0
 40
4.0
 40
4.0
 40
4.0
 10
4.722222222222222
 20
0.9189814814814983
 30
0.0
 10
4.722222222222222
 20
0.8435537031523381
 30
0.0
 10
4.661075926477324
 20
0.7824074074074411
 30
0.0
 10
4.585648148148139
 20
0.7824074074074411
 30
0.0
 10
4.510220369818979
 20
0.7824074074074411
 30
0.0
 10
4.449074074074057
 20
0.8435537031523381
 30
0.0
 10
4.449074074074057
 20
0.9189814814814983
 30
0.0
 10
4.449074074074057
 20
0.9944092598106837
 30
0.0
 10
4.510220369818979
 20
1.055555555555581
 30
0.0
 10
4.585648148148139
 20
1.055555555555581
 30
0.0
 10
4.661075926477324
 20
1.055555555555581
 30
0.0
 10
4.722222222222222
 20
0.9944092598106837
 30
0.0
 10
4.722222222222222
 20
0.9189814814814983
 30
0.0
  0
HATCH
  5
12B
330
126
100
AcDbEntity
  8
Layer 1
 62
   253
420
 11382706
100
AcDbHatch
 10
0.0
 20
0.0
 30
0.0
210
0.0
220
0.0
230
1.0
  2
SOLID
 70
     1
 71
     0
 91
        1
 92
        1
 93
        1
 72
     4
 94
        3
 73
     0
 74
     1
 95
       17
 96
       13
 40
0.0
 40
0.0
 40
0.0
 40
0.0
 40
1.0
 40
1.0
 40
1.0
 40
2.0
 40
2.0
 40
2.0
 40
3.0
 40
3.0
 40
3.0
 40
4.0
 40
4.0
 40
4.0
 40
4.0
 10
4.722222222222222
 20
0.9189814814814983
 10
4.722222222222222
 20
0.8435537031523381
 10
4.661075926477324
 20
0.7824074074074411
 10
4.585648148148139
 20
0.7824074074074411
 10
4.510220369818979
 20
0.7824074074074411
 10
4.449074074074057
 20
0.8435537031523381
 10
4.449074074074057
 20
0.9189814814814983
 10
4.449074074074057
 20
0.9944092598106837
 10
4.510220369818979
 20
1.055555555555581
 10
4.585648148148139
 20
1.055555555555581
 10
4.661075926477324
 20
1.055555555555581
 10
4.722222222222222
 20
0.9944092598106837
 10
4.722222222222222
 20
0.9189814814814983
 97
        0
 97
        0
 75
     2
 76
     1
 98
        0
  0
SPLINE
  5
12C
330
126
100
AcDbEntity
  8
Layer 1
370
     0
100
AcDbSpline
210
0.0
220
0.0
230
1.0
 70
    11
 71
     3
 72
    77
 73
    73
 74
     0
 42
0.0000000001
 43
0.0000000001
 12
1.0
 22
0.0
 32
0.0
 13
1.0
 23
0.0
 33
0.0
 40
0.0
 40
0.0
 40
0.0
 40
0.0
 40
1.0
 40
1.0
 40
1.0
 40
2.0
 40
2.0
 40
2.0
 40
3.0
 40
3.0
 40
3.0
 40
4.0
 40
4.0
 40
4.0
 40
5.0
 40
5.0
 40
5.0
 40
6.0
 40
6.0
 40
6.0
 40
7.0
 40
7.0
 40
7.0
 40
8.0
 40
8.0
 40
8.0
 40
9.0
 40
9.0
 40
9.0
 40
10.0
 40
10.0
 40
10.0
 40
11.0
 40
11.0
 40
11.0
 40
12.0
 40
12.0
 40
12.0
 40
13.0
 40
13.0
 40
13.0
 40
14.0
 40
14.0
 40
14.0
 40
15.0
 40
15.0
 40
15.0
 40
16.0
 40
16.0
 40
16.0
 40
17.0
 40
17.0
 40
17.0
 40
18.0
 40
18.0
 40
18.0
 40
19.0
 40
19.0
 40
19.0
 40
20.0
 40
20.0
 40
20.0
 40
21.0
 40
21.0
 40
21.0
 40
22.0
 40
22.0
 40
22.0
 40
23.0
 40
23.0
 40
23.0
 40
24.0
 40
24.0
 40
24.0
 40
24.0
 10
6.157159593370225
 20
1.945966084798177
 30
0.0
 10
6.157159593370225
 20
1.945966084798177
 30
0.0
 10
6.153134663899739
 20
2.008362664116754
 30
0.0
 10
6.153134663899739
 20
2.008362664116754
 30
0.0
 10
6.153134663899739
 20
2.008362664116754
 30
0.0
 10
6.153856065538194
 20
2.008644104003906
 30
0.0
 10
6.153856065538194
 20
2.008644104003906
 30
0.0
 10
6.153856065538194
 20
2.008644104003906
 30
0.0
 10
6.152969360351562
 20
2.010920206705729
 30
0.0
 10
6.152969360351562
 20
2.010920206705729
 30
0.0
 10
6.152969360351562
 20
2.010920206705729
 30
0.0
 10
6.152777777777778
 20
2.013888888888889
 30
0.0
 10
6.152777777777778
 20
2.013888888888889
 30
0.0
 10
6.152777777777778
 20
2.013888888888889
 30
0.0
 10
6.151928371853298
 20
2.013592190212674
 30
0.0
 10
6.151928371853298
 20
2.013592190212674
 30
0.0
 10
6.151928371853298
 20
2.013592190212674
 30
0.0
 10
5.678204006618923
 20
3.229438781738281
 30
0.0
 10
5.678204006618923
 20
3.229438781738281
 30
0.0
 10
5.678204006618923
 20
3.229438781738281
 30
0.0
 10
5.471143934461805
 20
3.148763020833333
 30
0.0
 10
5.471143934461805
 20
3.148763020833333
 30
0.0
 10
5.471143934461805
 20
3.148763020833333
 30
0.0
 10
5.944026523166232
 20
1.935076395670573
 30
0.0
 10
5.944026523166232
 20
1.935076395670573
 30
0.0
 10
5.944026523166232
 20
1.935076395670573
 30
0.0
 10
5.272222730848524
 20
1.284722222222222
 30
0.0
 10
5.272222730848524
 20
1.284722222222222
 30
0.0
 10
5.272222730848524
 20
1.284722222222222
 30
0.0
 10
3.868055555555555
 20
1.284722222222222
 30
0.0
 10
3.868055555555555
 20
1.284722222222222
 30
0.0
 10
3.868055555555555
 20
1.284722222222222
 30
0.0
 10
3.19692145453559
 20
1.933106316460503
 30
0.0
 10
3.19692145453559
 20
1.933106316460503
 30
0.0
 10
3.19692145453559
 20
1.933106316460503
 30
0.0
 10
3.672375149197048
 20
3.153393215603298
 30
0.0
 10
3.672375149197048
 20
3.153393215603298
 30
0.0
 10
3.672375149197048
 20
3.153393215603298
 30
0.0
 10
3.465314229329427
 20
3.234068976508246
 30
0.0
 10
3.465314229329427
 20
3.234068976508246
 30
0.0
 10
3.465314229329427
 20
3.234068976508246
 30
0.0
 10
2.958846198187934
 20
2.007820129394531
 30
0.0
 10
2.958846198187934
 20
2.007820129394531
 30
0.0
 10
2.958846198187934
 20
2.007820129394531
 30
0.0
 10
2.953703986273871
 20
2.009259541829427
 30
0.0
 10
2.953703986273871
 20
2.009259541829427
 30
0.0
 10
2.953703986273871
 20
2.009259541829427
 30
0.0
 10
2.956598917643229
 20
2.00238037109375
 30
0.0
 10
2.956598917643229
 20
2.00238037109375
 30
0.0
 10
2.956598917643229
 20
2.00238037109375
 30
0.0
 10
2.953703986273871
 20
1.995370652940538
 30
0.0
 10
2.953703986273871
 20
1.995370652940538
 30
0.0
 10
2.953703986273871
 20
1.995370652940538
 30
0.0
 10
2.960261027018229
 20
1.993676927354601
 30
0.0
 10
2.960261027018229
 20
1.993676927354601
 30
0.0
 10
2.960261027018229
 20
1.993676927354601
 30
0.0
 10
3.00034671359592
 20
1.89842054578993
 30
0.0
 10
3.00034671359592
 20
1.89842054578993
 30
0.0
 10
3.006182352701823
 20
1.877021789550781
 30
0.0
 10
3.017621358235677
 20
1.857567681206597
 30
0.0
 10
3.033482869466146
 20
1.842063903808594
 30
0.0
 10
3.033482869466146
 20
1.842063903808594
 30
0.0
 10
3.828703986273871
 20
1.064815097384983
 30
0.0
 10
3.828703986273871
 20
1.064815097384983
 30
0.0
 10
3.828703986273871
 20
1.064815097384983
 30
0.0
 10
5.324073791503906
 20
1.064815097384983
 30
0.0
 10
5.324073791503906
 20
1.064815097384983
 30
0.0
 10
5.324073791503906
 20
1.064815097384983
 30
0.0
 10
6.107426113552517
 20
1.81787109375
 30
0.0
 10
6.107426113552517
 20
1.81787109375
 30
0.0
 10
6.142056783040364
 20
1.851163228352865
 30
0.0
 10
6.160252888997396
 20
1.898028055826823
 30
0.0
 10
6.157159593370225
 20
1.945966084798177
 30
0.0
  0
HATCH
  5
12D
330
126
100
AcDbEntity
  8
Layer 1
 62
    97
420
  2914118
100
AcDbHatch
 10
0.0
 20
0.0
 30
0.0
210
0.0
220
0.0
230
1.0
  2
SOLID
 70
     1
 71
     0
 91
        1
 92
        1
 93
        1
 72
     4
 94
        3
 73
     0
 74
     1
 95
       77
 96
       73
 40
0.0
 40
0.0
 40
0.0
 40
0.0
 40
1.0
 40
1.0
 40
1.0
 40
2.0
 40
2.0
 40
2.0
 40
3.0
 40
3.0
 40
3.0
 40
4.0
 40
4.0
 40
4.0
 40
5.0
 40
5.0
 40
5.0
 40
6.0
 40
6.0
 40
6.0
 40
7.0
 40
7.0
 40
7.0
 40
8.0
 40
8.0
 40
8.0
 40
9.0
 40
9.0
 40
9.0
 40
10.0
 40
10.0
 40
10.0
 40
11.0
 40
11.0
 40
11.0
 40
12.0
 40
12.0
 40
12.0
 40
13.0
 40
13.0
 40
13.0
 40
14.0
 40
14.0
 40
14.0
 40
15.0
 40
15.0
 40
15.0
 40
16.0
 40
16.0
 40
16.0
 40
17.0
 40
17.0
 40
17.0
 40
18.0
 40
18.0
 40
18.0
 40
19.0
 40
19.0
 40
19.0
 40
20.0
 40
20.0
 40
20.0
 40
21.0
 40
21.0
 40
21.0
 40
22.0
 40
22.0
 40
22.0
 40
23.0
 40
23.0
 40
23.0
 40
24.0
 40
24.0
 40
24.0
 40
24.0
 10
6.157159593370225
 20
1.945966084798177
 10
6.157159593370225
 20
1.945966084798177
 10
6.153134663899739
 20
2.008362664116754
 10
6.153134663899739
 20
2.008362664116754
 10
6.153134663899739
 20
2.008362664116754
 10
6.153856065538194
 20
2.008644104003906
 10
6.153856065538194
 20
2.008644104003906
 10
6.153856065538194
 20
2.008644104003906
 10
6.152969360351562
 20
2.010920206705729
 10
6.152969360351562
 20
2.010920206705729
 10
6.152969360351562
 20
2.010920206705729
 10
6.152777777777778
 20
2.013888888888889
 10
6.152777777777778
 20
2.013888888888889
 10
6.152777777777778
 20
2.013888888888889
 10
6.151928371853298
 20
2.013592190212674
 10
6.151928371853298
 20
2.013592190212674
 10
6.151928371853298
 20
2.013592190212674
 10
5.678204006618923
 20
3.229438781738281
 10
5.678204006618923
 20
3.229438781738281
 10
5.678204006618923
 20
3.229438781738281
 10
5.471143934461805
 20
3.148763020833333
 10
5.471143934461805
 20
3.148763020833333
 10
5.471143934461805
 20
3.148763020833333
 10
5.944026523166232
 20
1.935076395670573
 10
5.944026523166232
 20
1.935076395670573
 10
5.944026523166232
 20
1.935076395670573
 10
5.272222730848524
 20
1.284722222222222
 10
5.272222730848524
 20
1.284722222222222
 10
5.272222730848524
 20
1.284722222222222
 10
3.868055555555555
 20
1.284722222222222
 10
3.868055555555555
 20
1.284722222222222
 10
3.868055555555555
 20
1.284722222222222
 10
3.19692145453559
 20
1.933106316460503
 10
3.19692145453559
 20
1.933106316460503
 10
3.19692145453559
 20
1.933106316460503
 10
3.672375149197048
 20
3.153393215603298
 10
3.672375149197048
 20
3.153393215603298
 10
3.672375149197048
 20
3.153393215603298
 10
3.465314229329427
 20
3.234068976508246
 10
3.465314229329427
 20
3.234068976508246
 10
3.465314229329427
 20
3.234068976508246
 10
2.958846198187934
 20
2.007820129394531
 10
2.958846198187934
 20
2.007820129394531
 10
2.958846198187934
 20
2.007820129394531
 10
2.953703986273871
 20
2.009259541829427
 10
2.953703986273871
 20
2.009259541829427
 10
2.953703986273871
 20
2.009259541829427
 10
2.956598917643229
 20
2.00238037109375
 10
2.956598917643229
 20
2.00238037109375
 10
2.956598917643229
 20
2.00238037109375
 10
2.953703986273871
 20
1.995370652940538
 10
2.953703986273871
 20
1.995370652940538
 10
2.953703986273871
 20
1.995370652940538
 10
2.960261027018229
 20
1.993676927354601
 10
2.960261027018229
 20
1.993676927354601
 10
2.960261027018229
 20
1.993676927354601
 10
3.00034671359592
 20
1.89842054578993
 10
3.00034671359592
 20
1.89842054578993
 10
3.006182352701823
 20
1.877021789550781
 10
3.017621358235677
 20
1.857567681206597
 10
3.033482869466146
 20
1.842063903808594
 10
3.033482869466146
 20
1.842063903808594
 10
3.828703986273871
 20
1.064815097384983
 10
3.828703986273871
 20
1.064815097384983
 10
3.828703986273871
 20
1.064815097384983
 10
5.324073791503906
 20
1.064815097384983
 10
5.324073791503906
 20
1.064815097384983
 10
5.324073791503906
 20
1.064815097384983
 10
6.107426113552517
 20
1.81787109375
 10
6.107426113552517
 20
1.81787109375
 10
6.142056783040364
 20
1.851163228352865
 10
6.160252888997396
 20
1.898028055826823
 10
6.157159593370225
 20
1.945966084798177
 97
        0
 97
        0
 75
     2
 76
     1
 98
        0
  0
ENDBLK
  5
129
330
126
100
AcDbEntity
  8
0
100
AcDbBlockEnd
  0
BLOCK
  5
130
330
12E
100
AcDbEntity
  8
0
100
AcDbBlockBegin
  2
block 10
 70
     0
 10
0.0
 20
0.0
 30
0.0
  3
block 10
  1

  0
SPLINE
  5
132
330
12E
100
AcDbEntity
  8
Layer 1
370
     0
100
AcDbSpline
210
0.0
220
0.0
230
1.0
 70
    11
 71
     3
 72
    17
 73
    13
 74
     0
 42
0.0000000001
 43
0.0000000001
 12
1.0
 22
0.0
 32
0.0
 13
1.0
 23
0.0
 33
0.0
 40
0.0
 40
0.0
 40
0.0
 40
0.0
 40
1.0
 40
1.0
 40
1.0
 40
2.0
 40
2.0
 40
2.0
 40
3.0
 40
3.0
 40
3.0
 40
4.0
 40
4.0
 40
4.0
 40
4.0
 10
1.381944444444444
 20
6.38611094156901
 30
0.0
 10
1.480128394232856
 20
6.38611094156901
 30
0.0
 10
1.559722264607747
 20
6.306517283121744
 30
0.0
 10
1.559722264607747
 20
6.208333333333333
 30
0.0
 10
1.559722264607747
 20
6.110149383544922
 30
0.0
 10
1.480128394232856
 20
6.030555725097656
 30
0.0
 10
1.381944444444444
 20
6.030555725097656
 30
0.0
 10
1.283760494656033
 20
6.030555725097656
 30
0.0
 10
1.204166624281142
 20
6.110149383544922
 30
0.0
 10
1.204166624281142
 20
6.208333333333333
 30
0.0
 10
1.204166624281142
 20
6.306517283121744
 30
0.0
 10
1.283760494656033
 20
6.38611094156901
 30
0.0
 10
1.381944444444444
 20
6.38611094156901
 30
0.0
  0
HATCH
  5
133
330
12E
100
AcDbEntity
  8
Layer 1
 62
     7
420
 16777215
100
AcDbHatch
 10
0.0
 20
0.0
 30
0.0
210
0.0
220
0.0
230
1.0
  2
SOLID
 70
     1
 71
     0
 91
        1
 92
        1
 93
        1
 72
     4
 94
        3
 73
     0
 74
     1
 95
       17
 96
       13
 40
0.0
 40
0.0
 40
0.0
 40
0.0
 40
1.0
 40
1.0
 40
1.0
 40
2.0
 40
2.0
 40
2.0
 40
3.0
 40
3.0
 40
3.0
 40
4.0
 40
4.0
 40
4.0
 40
4.0
 10
1.381944444444444
 20
6.38611094156901
 10
1.480128394232856
 20
6.38611094156901
 10
1.559722264607747
 20
6.306517283121744
 10
1.559722264607747
 20
6.208333333333333
 10
1.559722264607747
 20
6.110149383544922
 10
1.480128394232856
 20
6.030555725097656
 10
1.381944444444444
 20
6.030555725097656
 10
1.283760494656033
 20
6.030555725097656
 10
1.204166624281142
 20
6.110149383544922
 10
1.204166624281142
 20
6.208333333333333
 10
1.204166624281142
 20
6.306517283121744
 10
1.283760494656033
 20
6.38611094156901
 10
1.381944444444444
 20
6.38611094156901
 97
        0
 97
        0
 75
     2
 76
     1
 98
        0
  0
SPLINE
  5
134
330
12E
100
AcDbEntity
  8
Layer 1
370
     0
100
AcDbSpline
210
0.0
220
0.0
230
1.0
 70
    11
 71
     3
 72
    17
 73
    13
 74
     0
 42
0.0000000001
 43
0.0000000001
 12
1.0
 22
0.0
 32
0.0
 13
1.0
 23
0.0
 33
0.0
 40
0.0
 40
0.0
 40
0.0
 40
0.0
 40
1.0
 40
1.0
 40
1.0
 40
2.0
 40
2.0
 40
2.0
 40
3.0
 40
3.0
 40
3.0
 40
4.0
 40
4.0
 40
4.0
 40
4.0
 10
2.798611111111111
 20
6.38611094156901
 30
0.0
 10
2.896795060899522
 20
6.38611094156901
 30
0.0
 10
2.976388931274414
 20
6.306517283121744
 30
0.0
 10
2.976388931274414
 20
6.208333333333333
 30
0.0
 10
2.976388931274414
 20
6.110149383544922
 30
0.0
 10
2.896795060899522
 20
6.030555725097656
 30
0.0
 10
2.798611111111111
 20
6.030555725097656
 30
0.0
 10
2.7004271613227
 20
6.030555725097656
 30
0.0
 10
2.620833290947808
 20
6.110149383544922
 30
0.0
 10
2.620833290947808
 20
6.208333333333333
 30
0.0
 10
2.620833290947808
 20
6.306517283121744
 30
0.0
 10
2.7004271613227
 20
6.38611094156901
 30
0.0
 10
2.798611111111111
 20
6.38611094156901
 30
0.0
  0
HATCH
  5
135
330
12E
100
AcDbEntity
  8
Layer 1
 62
     7
420
 16777215
100
AcDbHatch
 10
0.0
 20
0.0
 30
0.0
210
0.0
220
0.0
230
1.0
  2
SOLID
 70
     1
 71
     0
 91
        1
 92
        1
 93
        1
 72
     4
 94
        3
 73
     0
 74
     1
 95
       17
 96
       13
 40
0.0
 40
0.0
 40
0.0
 40
0.0
 40
1.0
 40
1.0
 40
1.0
 40
2.0
 40
2.0
 40
2.0
 40
3.0
 40
3.0
 40
3.0
 40
4.0
 40
4.0
 40
4.0
 40
4.0
 10
2.798611111111111
 20
6.38611094156901
 10
2.896795060899522
 20
6.38611094156901
 10
2.976388931274414
 20
6.306517283121744
 10
2.976388931274414
 20
6.208333333333333
 10
2.976388931274414
 20
6.110149383544922
 10
2.896795060899522
 20
6.030555725097656
 10
2.798611111111111
 20
6.030555725097656
 10
2.7004271613227
 20
6.030555725097656
 10
2.620833290947808
 20
6.110149383544922
 10
2.620833290947808
 20
6.208333333333333
 10
2.620833290947808
 20
6.306517283121744
 10
2.7004271613227
 20
6.38611094156901
 10
2.798611111111111
 20
6.38611094156901
 97
        0
 97
        0
 75
     2
 76
     1
 98
        0
  0
SPLINE
  5
136
330
12E
100
AcDbEntity
  8
Layer 1
370
     0
100
AcDbSpline
210
0.0
220
0.0
230
1.0
 70
    11
 71
     3
 72
    17
 73
    13
 74
     0
 42
0.0000000001
 43
0.0000000001
 12
1.0
 22
0.0
 32
0.0
 13
1.0
 23
0.0
 33
0.0
 40
0.0
 40
0.0
 40
0.0
 40
0.0
 40
1.0
 40
1.0
 40
1.0
 40
2.0
 40
2.0
 40
2.0
 40
3.0
 40
3.0
 40
3.0
 40
4.0
 40
4.0
 40
4.0
 40
4.0
 10
2.080555597941081
 20
5.961111280653212
 30
0.0
 10
2.080555597941081
 20
5.961111280653212
 30
0.0
 10
1.879166709052192
 20
5.977778116861979
 30
0.0
 10
1.895833333333333
 20
5.852778116861979
 30
0.0
 10
1.911111195882161
 20
5.736111534966363
 30
0.0
 10
1.962500042385525
 20
5.681944953070746
 30
0.0
 10
2.073611153496636
 20
5.681944953070746
 30
0.0
 10
2.184722264607747
 20
5.681944953070746
 30
0.0
 10
2.255555682712131
 20
5.768056233723958
 30
0.0
 10
2.261111153496636
 20
5.844445122612847
 30
0.0
 10
2.269444359673394
 20
5.9750001695421
 30
0.0
 10
2.080555597941081
 20
5.961111280653212
 30
0.0
 10
2.080555597941081
 20
5.961111280653212
 30
0.0
  0
HATCH
  5
137
330
12E
100
AcDbEntity
  8
Layer 1
 62
     7
420
 16777215
100
AcDbHatch
 10
0.0
 20
0.0
 30
0.0
210
0.0
220
0.0
230
1.0
  2
SOLID
 70
     1
 71
     0
 91
        1
 92
        1
 93
        1
 72
     4
 94
        3
 73
     0
 74
     1
 95
       17
 96
       13
 40
0.0
 40
0.0
 40
0.0
 40
0.0
 40
1.0
 40
1.0
 40
1.0
 40
2.0
 40
2.0
 40
2.0
 40
3.0
 40
3.0
 40
3.0
 40
4.0
 40
4.0
 40
4.0
 40
4.0
 10
2.080555597941081
 20
5.961111280653212
 10
2.080555597941081
 20
5.961111280653212
 10
1.879166709052192
 20
5.977778116861979
 10
1.895833333333333
 20
5.852778116861979
 10
1.911111195882161
 20
5.736111534966363
 10
1.962500042385525
 20
5.681944953070746
 10
2.073611153496636
 20
5.681944953070746
 10
2.184722264607747
 20
5.681944953070746
 10
2.255555682712131
 20
5.768056233723958
 10
2.261111153496636
 20
5.844445122612847
 10
2.269444359673394
 20
5.9750001695421
 10
2.080555597941081
 20
5.961111280653212
 10
2.080555597941081
 20
5.961111280653212
 97
        0
 97
        0
 75
     2
 76
     1
 98
        0
  0
ENDBLK
  5
131
330
12E
100
AcDbEntity
  8
0
100
AcDbBlockEnd
  0
ENDSEC
  0
SECTION
  2
ENTITIES
  0
INSERT
  5
42
330
1F
100
AcDbEntity
  8
Layer 1
100
AcDbBlockReference
  2
block 2
 10
0.0
 20
0.0
 30
0.0
  0
INSERT
  5
9B
330
1F
100
AcDbEntity
  8
Layer 1
100
AcDbBlockReference
  2
block 3
 10
0.0
 20
0.0
 30
0.0
  0
INSERT
  5
BA
330
1F
100
AcDbEntity
  8
Layer 1
100
AcDbBlockReference
  2
block 4
 10
0.0
 20
0.0
 30
0.0
  0
INSERT
  5
F4
330
1F
100
AcDbEntity
  8
Layer 1
100
AcDbBlockReference
  2
block 5
 10
0.0
 20
0.0
 30
0.0
  0
INSERT
  5
106
330
1F
100
AcDbEntity
  8
Layer 1
100
AcDbBlockReference
  2
block 6
 10
0.0
 20
0.0
 30
0.0
  0
INSERT
  5
10F
330
1F
100
AcDbEntity
  8
Layer 1
100
AcDbBlockReference
  2
block 7
 10
0.0
 20
0.0
 30
0.0
  0
INSERT
  5
11D
330
1F
100
AcDbEntity
  8
Layer 1
100
AcDbBlockReference
  2
block 8
 10
0.0
 20
0.0
 30
0.0
  0
INSERT
  5
127
330
1F
100
AcDbEntity
  8
Layer 1
100
AcDbBlockReference
  2
block 9
 10
0.0
 20
0.0
 30
0.0
  0
INSERT
  5
12F
330
1F
100
AcDbEntity
  8
Layer 1
100
AcDbBlockReference
  2
block 10
 10
0.0
 20
0.0
 30
0.0
  0
ENDSEC
  0
SECTION
  2
OBJECTS
  0
DICTIONARY
  5
C
330
0
100
AcDbDictionary
281
     1
  3
ACAD_GROUP
350
D
  3
ACAD_LAYOUT
350
1A
  3
ACAD_MATERIAL
350
3B
  3
ACAD_MLEADERSTYLE
350
139
  3
ACAD_MLINESTYLE
350
17
  3
ACAD_PLOTSETTINGS
350
19
  3
ACAD_PLOTSTYLENAME
350
E
  3
ACAD_TABLESTYLE
350
138
  3
ACAD_VISUALSTYLE
350
2A
  0
SUN
  5
3F
330
29
100
AcDbSun
 90
        1
290
     0
 63
     7
421
 16777215
 40
1.0
291
     1
 91
  2455826
 92
 54000000
292
     0
 70
     2
 71
   256
280
     1
  0
DICTIONARY
  5
D
102
{ACAD_REACTORS
330
C
102
}
330
C
100
AcDbDictionary
281
     1
  0
DICTIONARY
  5
1A
102
{ACAD_REACTORS
330
C
102
}
330
C
100
AcDbDictionary
281
     1
  3
Layout1
350
1E
  3
Layout2
350
26
  3
Model
350
22
  0
DICTIONARY
  5
3B
102
{ACAD_REACTORS
330
C
102
}
330
C
100
AcDbDictionary
281
     1
  3
ByBlock
350
3D
  3
ByLayer
350
3C
  3
Global
350
3E
  0
DICTIONARY
  5
139
102
{ACAD_REACTORS
330
C
102
}
330
C
100
AcDbDictionary
281
     1
  0
DICTIONARY
  5
17
102
{ACAD_REACTORS
330
C
102
}
330
C
100
AcDbDictionary
281
     1
  3
Standard
350
18
  0
DICTIONARY
  5
19
102
{ACAD_REACTORS
330
C
102
}
330
C
100
AcDbDictionary
281
     1
  0
ACDBDICTIONARYWDFLT
  5
E
102
{ACAD_REACTORS
330
C
102
}
330
C
100
AcDbDictionary
281
     1
  3
Normal
350
F
100
AcDbDictionaryWithDefault
340
F
  0
DICTIONARY
  5
138
102
{ACAD_REACTORS
330
C
102
}
330
C
100
AcDbDictionary
281
     1
  0
DICTIONARY
  5
2A
102
{ACAD_REACTORS
330
C
102
}
330
C
100
AcDbDictionary
281
     1
  3
2dWireframe
350
2F
  3
3D Hidden
350
31
  3
3dWireframe
350
30
  3
Basic
350
32
  3
Brighten
350
36
  3
ColorChange
350
3A
  3
Conceptual
350
34
  3
Dim
350
35
  3
Facepattern
350
39
  3
Flat
350
2B
  3
FlatWithEdges
350
2C
  3
Gouraud
350
2D
  3
GouraudWithEdges
350
2E
  3
Linepattern
350
38
  3
Realistic
350
33
  3
Thicken
350
37
  0
LAYOUT
  5
1E
102
{ACAD_REACTORS
330
1A
102
}
330
1A
100
AcDbPlotSettings
  1

  2
none_device
  4

  6

 40
0.0
 41
0.0
 42
0.0
 43
0.0
 44
0.0
 45
0.0
 46
0.0
 47
0.0
 48
0.0
 49
0.0
140
0.0
141
0.0
142
1.0
143
1.0
 70
   688
 72
     0
 73
     0
 74
     5
  7

 75
    16
 76
     0
 77
     2
 78
   300
147
1.0
148
0.0
149
0.0
100
AcDbLayout
  1
Layout1
 70
     1
 71
     1
 10
0.0
 20
0.0
 11
12.0
 21
9.0
 12
0.0
 22
0.0
 32
0.0
 14
1.000000000000000E+20
 24
1.000000000000000E+20
 34
1.000000000000000E+20
 15
-1.000000000000000E+20
 25
-1.000000000000000E+20
 35
-1.000000000000000E+20
146
0.0
 13
0.0
 23
0.0
 33
0.0
 16
1.0
 26
0.0
 36
0.0
 17
0.0
 27
1.0
 37
0.0
 76
     0
330
1B
  0
LAYOUT
  5
26
102
{ACAD_REACTORS
330
1A
102
}
330
1A
100
AcDbPlotSettings
  1

  2
none_device
  4

  6

 40
0.0
 41
0.0
 42
0.0
 43
0.0
 44
0.0
 45
0.0
 46
0.0
 47
0.0
 48
0.0
 49
0.0
140
0.0
141
0.0
142
1.0
143
1.0
 70
   688
 72
     0
 73
     0
 74
     5
  7

 75
    16
 76
     0
 77
     2
 78
   300
147
1.0
148
0.0
149
0.0
100
AcDbLayout
  1
Layout2
 70
     1
 71
     2
 10
0.0
 20
0.0
 11
0.0
 21
0.0
 12
0.0
 22
0.0
 32
0.0
 14
0.0
 24
0.0
 34
0.0
 15
0.0
 25
0.0
 35
0.0
146
0.0
 13
0.0
 23
0.0
 33
0.0
 16
1.0
 26
0.0
 36
0.0
 17
0.0
 27
1.0
 37
0.0
 76
     0
330
23
  0
LAYOUT
  5
22
102
{ACAD_REACTORS
330
1A
102
}
330
1A
100
AcDbPlotSettings
  1

  2
none_device
  4

  6

 40
0.0
 41
0.0
 42
0.0
 43
0.0
 44
0.0
 45
0.0
 46
0.0
 47
0.0
 48
0.0
 49
0.0
140
0.0
141
0.0
142
1.0
143
1.0
 70
  1712
 72
     0
 73
     0
 74
     0
  7

 75
     0
 76
     0
 77
     2
 78
   300
147
1.0
148
0.0
149
0.0
100
AcDbLayout
  1
Model
 70
     1
 71
     0
 10
0.0
 20
0.0
 11
12.0
 21
9.0
 12
0.0
 22
0.0
 32
0.0
 14
1.000000000000000E+20
 24
1.000000000000000E+20
 34
1.000000000000000E+20
 15
-1.000000000000000E+20
 25
-1.000000000000000E+20
 35
-1.000000000000000E+20
146
0.0
 13
0.0
 23
0.0
 33
0.0
 16
1.0
 26
0.0
 36
0.0
 17
0.0
 27
1.0
 37
0.0
 76
     0
330
1F
331
29
  0
MATERIAL
  5
3D
102
{ACAD_REACTORS
330
3B
102
}
330
3B
100
AcDbMaterial
  1
ByBlock
 72
     1
 94
      127
  0
MATERIAL
  5
3C
102
{ACAD_REACTORS
330
3B
102
}
330
3B
100
AcDbMaterial
  1
ByLayer
 72
     1
 94
      127
  0
MATERIAL
  5
3E
102
{ACAD_REACTORS
330
3B
102
}
330
3B
100
AcDbMaterial
  1
Global
 72
     1
 94
      127
  0
MLINESTYLE
  5
18
102
{ACAD_REACTORS
330
17
102
}
330
17
100
AcDbMlineStyle
  2
Standard
 70
     0
  3

 62
   256
 51
90.0
 52
90.0
 71
     2
 49
0.5
 62
   256
  6
BYLAYER
 49
-0.5
 62
   256
  6
BYLAYER
  0
ACDBPLACEHOLDER
  5
F
102
{ACAD_REACTORS
330
E
102
}
330
E
  0
VISUALSTYLE
  5
2F
102
{ACAD_REACTORS
330
2A
102
}
330
2A
100
AcDbVisualStyle
  2
2dWireframe
 70
     4
177
     2
291
     0
 71
     0
176
     1
 72
     2
176
     1
 73
     0
176
     1
 90
        0
176
     1
 40
-0.6
176
     1
 41
-30.0
176
     1
 62
     5
 63
     7
421
 16777215
176
     1
 74
     1
176
     1
 91
        4
176
     1
 64
     7
176
     1
 65
   257
176
     1
 75
     1
176
     1
175
     1
176
     1
 42
1.0
176
     1
 92
        0
176
     1
 66
   257
176
     1
 43
1.0
176
     1
 76
     1
176
     1
 77
     6
176
     1
 78
     2
176
     1
 67
     7
176
     1
 79
     5
176
     1
170
     0
176
     1
171
     0
176
     1
290
     0
176
     1
 93
        1
176
     1
 44
0.0
176
     1
173
     0
176
     1
  0
VISUALSTYLE
  5
31
102
{ACAD_REACTORS
330
2A
102
}
330
2A
100
AcDbVisualStyle
  2
3D Hidden
 70
     6
177
     2
291
     0
 71
     1
176
     1
 72
     2
176
     1
 73
     2
176
     1
 90
        0
176
     1
 40
-0.6
176
     1
 41
-30.0
176
     1
 62
     5
 63
     7
421
 16777215
176
     1
 74
     2
176
     1
 91
        2
176
     1
 64
     7
176
     1
 65
   257
176
     1
 75
     2
176
     1
175
     1
176
     1
 42
40.0
176
     1
 92
        0
176
     1
 66
   257
176
     1
 43
1.0
176
     1
 76
     1
176
     1
 77
     6
176
     1
 78
     2
176
     1
 67
     7
176
     1
 79
     3
176
     1
170
     0
176
     1
171
     0
176
     1
290
     0
176
     1
 93
        1
176
     1
 44
0.0
176
     1
173
     0
176
     1
  0
VISUALSTYLE
  5
30
102
{ACAD_REACTORS
330
2A
102
}
330
2A
100
AcDbVisualStyle
  2
3dWireframe
 70
     5
177
     2
291
     0
 71
     0
176
     1
 72
     2
176
     1
 73
     0
176
     1
 90
        0
176
     1
 40
-0.6
176
     1
 41
-30.0
176
     1
 62
     5
 63
     7
421
 16777215
176
     1
 74
     1
176
     1
 91
        4
176
     1
 64
     7
176
     1
 65
   257
176
     1
 75
     1
176
     1
175
     1
176
     1
 42
1.0
176
     1
 92
        0
176
     1
 66
   257
176
     1
 43
1.0
176
     1
 76
     1
176
     1
 77
     6
176
     1
 78
     2
176
     1
 67
     7
176
     1
 79
     5
176
     1
170
     0
176
     1
171
     0
176
     1
290
     0
176
     1
 93
        1
176
     1
 44
0.0
176
     1
173
     0
176
     1
  0
VISUALSTYLE
  5
32
102
{ACAD_REACTORS
330
2A
102
}
330
2A
100
AcDbVisualStyle
  2
Basic
 70
     7
177
     2
291
     1
 71
     1
176
     1
 72
     0
176
     1
 73
     1
176
     1
 90
        0
176
     1
 40
-0.6
176
     1
 41
-30.0
176
     1
 62
     5
 63
     7
421
 16777215
176
     1
 74
     0
176
     1
 91
        4
176
     1
 64
     7
176
     1
 65
   257
176
     1
 75
     1
176
     1
175
     1
176
     1
 42
1.0
176
     1
 92
        8
176
     1
 66
     7
176
     1
 43
1.0
176
     1
 76
     1
176
     1
 77
     6
176
     1
 78
     2
176
     1
 67
     7
176
     1
 79
     5
176
     1
170
     0
176
     1
171
     0
176
     1
290
     0
176
     1
 93
        1
176
     1
 44
0.0
176
     1
173
     0
176
     1
  0
VISUALSTYLE
  5
36
102
{ACAD_REACTORS
330
2A
102
}
330
2A
100
AcDbVisualStyle
  2
Brighten
 70
    12
177
     2
291
     1
 71
     2
176
     1
 72
     2
176
     1
 73
     0
176
     1
 90
        0
176
     1
 40
-0.6
176
     1
 41
-30.0
176
     1
 62
     5
 63
     7
421
 16777215
176
     1
 74
     1
176
     1
 91
        4
176
     1
 64
     7
176
     1
 65
   257
176
     1
 75
     1
176
     1
175
     1
176
     1
 42
1.0
176
     1
 92
        8
176
     1
 66
     7
176
     1
 43
1.0
176
     1
 76
     1
176
     1
 77
     6
176
     1
 78
     2
176
     1
 67
     7
176
     1
 79
     5
176
     1
170
     0
176
     1
171
     0
176
     1
290
     0
176
     1
 93
        1
176
     1
 44
50.0
176
     1
173
     0
176
     1
  0
VISUALSTYLE
  5
3A
102
{ACAD_REACTORS
330
2A
102
}
330
2A
100
AcDbVisualStyle
  2
ColorChange
 70
    16
177
     2
291
     1
 71
     2
176
     1
 72
     2
176
     1
 73
     3
176
     1
 90
        0
176
     1
 40
-0.6
176
     1
 41
-30.0
176
     1
 62
     5
 63
     8
421
  8421504
176
     1
 74
     1
176
     1
 91
        4
176
     1
 64
     7
176
     1
 65
   257
176
     1
 75
     1
176
     1
175
     1
176
     1
 42
1.0
176
     1
 92
        8
176
     1
 66
     8
424
  8421504
176
     1
 43
1.0
176
     1
 76
     1
176
     1
 77
     6
176
     1
 78
     2
176
     1
 67
     7
176
     1
 79
     5
176
     1
170
     0
176
     1
171
     0
176
     1
290
     0
176
     1
 93
        1
176
     1
 44
0.0
176
     1
173
     0
176
     1
  0
VISUALSTYLE
  5
34
102
{ACAD_REACTORS
330
2A
102
}
330
2A
100
AcDbVisualStyle
  2
Conceptual
 70
     9
177
     2
291
     0
 71
     3
176
     1
 72
     2
176
     1
 73
     0
176
     1
 90
        0
176
     1
 40
-0.6
176
     1
 41
-30.0
176
     1
 62
     5
 63
     7
421
 16777215
176
     1
 74
     2
176
     1
 91
        2
176
     1
 64
     7
176
     1
 65
   257
176
     1
 75
     1
176
     1
175
     1
176
     1
 42
40.0
176
     1
 92
        8
176
     1
 66
     7
176
     1
 43
1.0
176
     1
 76
     1
176
     1
 77
     6
176
     1
 78
     2
176
     1
 67
     7
176
     1
 79
     3
176
     1
170
     0
176
     1
171
     0
176
     1
290
     0
176
     1
 93
        1
176
     1
 44
0.0
176
     1
173
     0
176
     1
  0
VISUALSTYLE
  5
35
102
{ACAD_REACTORS
330
2A
102
}
330
2A
100
AcDbVisualStyle
  2
Dim
 70
    11
177
     2
291
     1
 71
     2
176
     1
 72
     2
176
     1
 73
     0
176
     1
 90
        0
176
     1
 40
-0.6
176
     1
 41
-30.0
176
     1
 62
     5
 63
     7
421
 16777215
176
     1
 74
     1
176
     1
 91
        4
176
     1
 64
     7
176
     1
 65
   257
176
     1
 75
     1
176
     1
175
     1
176
     1
 42
1.0
176
     1
 92
        8
176
     1
 66
     7
176
     1
 43
1.0
176
     1
 76
     1
176
     1
 77
     6
176
     1
 78
     2
176
     1
 67
     7
176
     1
 79
     5
176
     1
170
     0
176
     1
171
     0
176
     1
290
     0
176
     1
 93
        1
176
     1
 44
-50.0
176
     1
173
     0
176
     1
  0
VISUALSTYLE
  5
39
102
{ACAD_REACTORS
330
2A
102
}
330
2A
100
AcDbVisualStyle
  2
Facepattern
 70
    15
177
     2
291
     1
 71
     2
176
     1
 72
     2
176
     1
 73
     0
176
     1
 90
        0
176
     1
 40
-0.6
176
     1
 41
-30.0
176
     1
 62
     5
 63
     7
421
 16777215
176
     1
 74
     1
176
     1
 91
        4
176
     1
 64
     7
176
     1
 65
   257
176
     1
 75
     1
176
     1
175
     1
176
     1
 42
1.0
176
     1
 92
        8
176
     1
 66
     7
176
     1
 43
1.0
176
     1
 76
     1
176
     1
 77
     6
176
     1
 78
     2
176
     1
 67
     7
176
     1
 79
     5
176
     1
170
     0
176
     1
171
     0
176
     1
290
     0
176
     1
 93
        1
176
     1
 44
0.0
176
     1
173
     0
176
     1
  0
VISUALSTYLE
  5
2B
102
{ACAD_REACTORS
330
2A
102
}
330
2A
100
AcDbVisualStyle
  2
Flat
 70
     0
177
     2
291
     1
 71
     2
176
     1
 72
     1
176
     1
 73
     1
176
     1
 90
        2
176
     1
 40
-0.6
176
     1
 41
30.0
176
     1
 62
     5
 63
     7
421
 16777215
176
     1
 74
     0
176
     1
 91
        4
176
     1
 64
     7
176
     1
 65
   257
176
     1
 75
     1
176
     1
175
     1
176
     1
 42
1.0
176
     1
 92
        8
176
     1
 66
     7
176
     1
 43
1.0
176
     1
 76
     1
176
     1
 77
     6
176
     1
 78
     2
176
     1
 67
     7
176
     1
 79
     5
176
     1
170
     0
176
     1
171
     0
176
     1
290
     0
176
     1
 93
       13
176
     1
 44
0.0
176
     1
173
     0
176
     1
  0
VISUALSTYLE
  5
2C
102
{ACAD_REACTORS
330
2A
102
}
330
2A
100
AcDbVisualStyle
  2
FlatWithEdges
 70
     1
177
     2
291
     1
 71
     2
176
     1
 72
     1
176
     1
 73
     1
176
     1
 90
        2
176
     1
 40
-0.6
176
     1
 41
30.0
176
     1
 62
     5
 63
     7
421
 16777215
176
     1
 74
     1
176
     1
 91
        4
176
     1
 64
     7
176
     1
 65
   257
176
     1
 75
     1
176
     1
175
     1
176
     1
 42
1.0
176
     1
 92
        0
176
     1
 66
   257
176
     1
 43
1.0
176
     1
 76
     1
176
     1
 77
     6
176
     1
 78
     2
176
     1
 67
     7
176
     1
 79
     5
176
     1
170
     0
176
     1
171
     0
176
     1
290
     0
176
     1
 93
       13
176
     1
 44
0.0
176
     1
173
     0
176
     1
  0
VISUALSTYLE
  5
2D
102
{ACAD_REACTORS
330
2A
102
}
330
2A
100
AcDbVisualStyle
  2
Gouraud
 70
     2
177
     2
291
     1
 71
     2
176
     1
 72
     2
176
     1
 73
     1
176
     1
 90
        2
176
     1
 40
-0.6
176
     1
 41
30.0
176
     1
 62
     5
 63
     7
421
 16777215
176
     1
 74
     0
176
     1
 91
        4
176
     1
 64
     7
176
     1
 65
   257
176
     1
 75
     1
176
     1
175
     1
176
     1
 42
1.0
176
     1
 92
        0
176
     1
 66
     7
176
     1
 43
1.0
176
     1
 76
     1
176
     1
 77
     6
176
     1
 78
     2
176
     1
 67
     7
176
     1
 79
     5
176
     1
170
     0
176
     1
171
     0
176
     1
290
     0
176
     1
 93
       13
176
     1
 44
0.0
176
     1
173
     0
176
     1
  0
VISUALSTYLE
  5
2E
102
{ACAD_REACTORS
330
2A
102
}
330
2A
100
AcDbVisualStyle
  2
GouraudWithEdges
 70
     3
177
     2
291
     1
 71
     2
176
     1
 72
     2
176
     1
 73
     1
176
     1
 90
        2
176
     1
 40
-0.6
176
     1
 41
30.0
176
     1
 62
     5
 63
     7
421
 16777215
176
     1
 74
     1
176
     1
 91
        4
176
     1
 64
     7
176
     1
 65
   257
176
     1
 75
     1
176
     1
175
     1
176
     1
 42
1.0
176
     1
 92
        0
176
     1
 66
   257
176
     1
 43
1.0
176
     1
 76
     1
176
     1
 77
     6
176
     1
 78
     2
176
     1
 67
     7
176
     1
 79
     5
176
     1
170
     0
176
     1
171
     0
176
     1
290
     0
176
     1
 93
       13
176
     1
 44
0.0
176
     1
173
     0
176
     1
  0
VISUALSTYLE
  5
38
102
{ACAD_REACTORS
330
2A
102
}
330
2A
100
AcDbVisualStyle
  2
Linepattern
 70
    14
177
     2
291
     1
 71
     2
176
     1
 72
     2
176
     1
 73
     0
176
     1
 90
        0
176
     1
 40
-0.6
176
     1
 41
-30.0
176
     1
 62
     5
 63
     7
421
 16777215
176
     1
 74
     1
176
     1
 91
        4
176
     1
 64
     7
176
     1
 65
   257
176
     1
 75
     7
176
     1
175
     7
176
     1
 42
1.0
176
     1
 92
        8
176
     1
 66
     7
176
     1
 43
1.0
176
     1
 76
     1
176
     1
 77
     6
176
     1
 78
     2
176
     1
 67
     7
176
     1
 79
     5
176
     1
170
     0
176
     1
171
     0
176
     1
290
     0
176
     1
 93
        1
176
     1
 44
0.0
176
     1
173
     0
176
     1
  0
VISUALSTYLE
  5
33
102
{ACAD_REACTORS
330
2A
102
}
330
2A
100
AcDbVisualStyle
  2
Realistic
 70
     8
177
     2
291
     0
 71
     2
176
     1
 72
     2
176
     1
 73
     0
176
     1
 90
        0
176
     1
 40
-0.6
176
     1
 41
-30.0
176
     1
 62
     5
 63
     7
421
 16777215
176
     1
 74
     1
176
     1
 91
        0
176
     1
 64
     7
176
     1
 65
   257
176
     1
 75
     1
176
     1
175
     1
176
     1
 42
1.0
176
     1
 92
        8
176
     1
 66
     8
424
  7895160
176
     1
 43
1.0
176
     1
 76
     1
176
     1
 77
     6
176
     1
 78
     2
176
     1
 67
     7
176
     1
 79
     5
176
     1
170
     0
176
     1
171
     0
176
     1
290
     0
176
     1
 93
       13
176
     1
 44
0.0
176
     1
173
     0
176
     1
  0
VISUALSTYLE
  5
37
102
{ACAD_REACTORS
330
2A
102
}
330
2A
100
AcDbVisualStyle
  2
Thicken
 70
    13
177
     2
291
     1
 71
     2
176
     1
 72
     2
176
     1
 73
     0
176
     1
 90
        0
176
     1
 40
-0.6
176
     1
 41
-30.0
176
     1
 62
     5
 63
     7
421
 16777215
176
     1
 74
     1
176
     1
 91
        4
176
     1
 64
     7
176
     1
 65
   257
176
     1
 75
     1
176
     1
175
     1
176
     1
 42
1.0
176
     1
 92
       12
176
     1
 66
     7
176
     1
 43
1.0
176
     1
 76
     1
176
     1
 77
     6
176
     1
 78
     2
176
     1
 67
     7
176
     1
 79
     5
176
     1
170
     0
176
     1
171
     0
176
     1
290
     0
176
     1
 93
        1
176
     1
 44
0.0
176
     1
173
     0
176
     1
  0
ENDSEC
  0
EOF
