  0
SECTION
  2
HEADER
  9
$ACADVER
  1
AC1024
  9
$ACADMAINTVER
 70
     6
  9
$DWGCODEPAGE
  3
UNDEFINED
  9
$INSBASE
 10
0.0
 20
0.0
 30
0.0
  9
$EXTMIN
 10
1.000000000000000E+20
 20
1.000000000000000E+20
 30
1.000000000000000E+20
  9
$EXTMAX
 10
-1.000000000000000E+20
 20
-1.000000000000000E+20
 30
-1.000000000000000E+20
  9
$LIMMIN
 10
0.0
 20
0.0
  9
$LIMMAX
 10
12.0
 20
9.0
  9
$ORTHOMODE
 70
     0
  9
$REGENMODE
 70
     1
  9
$FILLMODE
 70
     1
  9
$QTEXTMODE
 70
     0
  9
$MIRRTEXT
 70
     1
  9
$LTSCALE
 40
1.0
  9
$ATTMODE
 70
     1
  9
$TEXTSIZE
 40
0.2
  9
$TRACEWID
 40
0.05
  9
$TEXTSTYLE
  7
Standard
  9
$CLAYER
  8
0
  9
$CELTYPE
  6
ByLayer
  9
$CECOLOR
 62
   256
  9
$CELTSCALE
 40
1.0
  9
$DISPSILH
 70
     0
  9
$DIMSCALE
 40
1.0
  9
$DIMASZ
 40
0.18
  9
$DIMEXO
 40
0.0625
  9
$DIMDLI
 40
0.38
  9
$DIMRND
 40
0.0
  9
$DIMDLE
 40
0.0
  9
$DIMEXE
 40
0.18
  9
$DIMTP
 40
0.0
  9
$DIMTM
 40
0.0
  9
$DIMTXT
 40
0.18
  9
$DIMCEN
 40
0.09
  9
$DIMTSZ
 40
0.0
  9
$DIMTOL
 70
     0
  9
$DIMLIM
 70
     0
  9
$DIMTIH
 70
     1
  9
$DIMTOH
 70
     1
  9
$DIMSE1
 70
     0
  9
$DIMSE2
 70
     0
  9
$DIMTAD
 70
     0
  9
$DIMZIN
 70
     0
  9
$DIMBLK
  1

  9
$DIMASO
 70
     1
  9
$DIMSHO
 70
     1
  9
$DIMPOST
  1

  9
$DIMAPOST
  1

  9
$DIMALT
 70
     0
  9
$DIMALTD
 70
     2
  9
$DIMALTF
 40
25.4
  9
$DIMLFAC
 40
1.0
  9
$DIMTOFL
 70
     0
  9
$DIMTVP
 40
0.0
  9
$DIMTIX
 70
     0
  9
$DIMSOXD
 70
     0
  9
$DIMSAH
 70
     0
  9
$DIMBLK1
  1

  9
$DIMBLK2
  1

  9
$DIMSTYLE
  2
Standard
  9
$DIMCLRD
 70
     0
  9
$DIMCLRE
 70
     0
  9
$DIMCLRT
 70
     0
  9
$DIMTFAC
 40
1.0
  9
$DIMGAP
 40
0.09
  9
$DIMJUST
 70
     0
  9
$DIMSD1
 70
     0
  9
$DIMSD2
 70
     0
  9
$DIMTOLJ
 70
     1
  9
$DIMTZIN
 70
     0
  9
$DIMALTZ
 70
     0
  9
$DIMALTTZ
 70
     0
  9
$DIMUPT
 70
     0
  9
$DIMDEC
 70
     4
  9
$DIMTDEC
 70
     4
  9
$DIMALTU
 70
     2
  9
$DIMALTTD
 70
     2
  9
$DIMTXSTY
  7
Standard
  9
$DIMAUNIT
 70
     0
  9
$DIMADEC
 70
     0
  9
$DIMALTRND
 40
0.0
  9
$DIMAZIN
 70
     0
  9
$DIMDSEP
 70
    46
  9
$DIMATFIT
 70
     3
  9
$DIMFRAC
 70
     0
  9
$DIMLDRBLK
  1

  9
$DIMLUNIT
 70
     2
  9
$DIMLWD
 70
    -2
  9
$DIMLWE
 70
    -2
  9
$DIMTMOVE
 70
     0
  9
$DIMFXL
 40
1.0
  9
$DIMFXLON
 70
     0
  9
$DIMJOGANG
 40
0.7853981633974483
  9
$DIMTFILL
 70
     0
  9
$DIMTFILLCLR
 70
     0
  9
$DIMARCSYM
 70
     0
  9
$DIMLTYPE
  6

  9
$DIMLTEX1
  6

  9
$DIMLTEX2
  6

  9
$DIMTXTDIRECTION
 70
     0
  9
$LUNITS
 70
     2
  9
$LUPREC
 70
     4
  9
$SKETCHINC
 40
0.1
  9
$FILLETRAD
 40
0.5
  9
$AUNITS
 70
     0
  9
$AUPREC
 70
     0
  9
$MENU
  1
.
  9
$ELEVATION
 40
0.0
  9
$PELEVATION
 40
0.0
  9
$THICKNESS
 40
0.0
  9
$LIMCHECK
 70
     0
  9
$CHAMFERA
 40
0.5
  9
$CHAMFERB
 40
0.5
  9
$CHAMFERC
 40
1.0
  9
$CHAMFERD
 40
0.0
  9
$SKPOLY
 70
     0
  9
$TDCREATE
 40
2458356.768078692
  9
$TDUCREATE
 40
2458356.976412037
  9
$TDUPDATE
 40
2458356.768078692
  9
$TDUUPDATE
 40
2458356.976412037
  9
$TDINDWG
 40
0.0000000116
  9
$TDUSRTIMER
 40
0.0000000116
  9
$USRTIMER
 70
     1
  9
$ANGBASE
 50
0.0
  9
$ANGDIR
 70
     0
  9
$PDMODE
 70
     0
  9
$PDSIZE
 40
0.0
  9
$PLINEWID
 40
0.0
  9
$SPLFRAME
 70
     0
  9
$SPLINETYPE
 70
     6
  9
$SPLINESEGS
 70
     8
  9
$HANDSEED
  5
137
  9
$SURFTAB1
 70
     6
  9
$SURFTAB2
 70
     6
  9
$SURFTYPE
 70
     6
  9
$SURFU
 70
     6
  9
$SURFV
 70
     6
  9
$UCSBASE
  2

  9
$UCSNAME
  2

  9
$UCSORG
 10
0.0
 20
0.0
 30
0.0
  9
$UCSXDIR
 10
1.0
 20
0.0
 30
0.0
  9
$UCSYDIR
 10
0.0
 20
1.0
 30
0.0
  9
$UCSORTHOREF
  2

  9
$UCSORTHOVIEW
 70
     0
  9
$UCSORGTOP
 10
0.0
 20
0.0
 30
0.0
  9
$UCSORGBOTTOM
 10
0.0
 20
0.0
 30
0.0
  9
$UCSORGLEFT
 10
0.0
 20
0.0
 30
0.0
  9
$UCSORGRIGHT
 10
0.0
 20
0.0
 30
0.0
  9
$UCSORGFRONT
 10
0.0
 20
0.0
 30
0.0
  9
$UCSORGBACK
 10
0.0
 20
0.0
 30
0.0
  9
$PUCSBASE
  2

  9
$PUCSNAME
  2

  9
$PUCSORG
 10
0.0
 20
0.0
 30
0.0
  9
$PUCSXDIR
 10
1.0
 20
0.0
 30
0.0
  9
$PUCSYDIR
 10
0.0
 20
1.0
 30
0.0
  9
$PUCSORTHOREF
  2

  9
$PUCSORTHOVIEW
 70
     0
  9
$PUCSORGTOP
 10
0.0
 20
0.0
 30
0.0
  9
$PUCSORGBOTTOM
 10
0.0
 20
0.0
 30
0.0
  9
$PUCSORGLEFT
 10
0.0
 20
0.0
 30
0.0
  9
$PUCSORGRIGHT
 10
0.0
 20
0.0
 30
0.0
  9
$PUCSORGFRONT
 10
0.0
 20
0.0
 30
0.0
  9
$PUCSORGBACK
 10
0.0
 20
0.0
 30
0.0
  9
$USERI1
 70
     0
  9
$USERI2
 70
     0
  9
$USERI3
 70
     0
  9
$USERI4
 70
     0
  9
$USERI5
 70
     0
  9
$USERR1
 40
0.0
  9
$USERR2
 40
0.0
  9
$USERR3
 40
0.0
  9
$USERR4
 40
0.0
  9
$USERR5
 40
0.0
  9
$WORLDVIEW
 70
     1
  9
$SHADEDGE
 70
     3
  9
$SHADEDIF
 70
    70
  9
$TILEMODE
 70
     1
  9
$MAXACTVP
 70
    64
  9
$PINSBASE
 10
0.0
 20
0.0
 30
0.0
  9
$PLIMCHECK
 70
     0
  9
$PEXTMIN
 10
1.000000000000000E+20
 20
1.000000000000000E+20
 30
1.000000000000000E+20
  9
$PEXTMAX
 10
-1.000000000000000E+20
 20
-1.000000000000000E+20
 30
-1.000000000000000E+20
  9
$PLIMMIN
 10
0.0
 20
0.0
  9
$PLIMMAX
 10
12.0
 20
9.0
  9
$UNITMODE
 70
     0
  9
$VISRETAIN
 70
     1
  9
$PLINEGEN
 70
     0
  9
$PSLTSCALE
 70
     1
  9
$TREEDEPTH
 70
  3020
  9
$CMLSTYLE
  2
Standard
  9
$CMLJUST
 70
     0
  9
$CMLSCALE
 40
1.0
  9
$PROXYGRAPHICS
 70
     1
  9
$MEASUREMENT
 70
     0
  9
$CELWEIGHT
370
    -1
  9
$ENDCAPS
280
     0
  9
$JOINSTYLE
280
     0
  9
$LWDISPLAY
290
     1
  9
$INSUNITS
 70
     1
  9
$HYPERLINKBASE
  1

  9
$STYLESHEET
  1

  9
$XEDIT
290
     1
  9
$CEPSNTYPE
380
     0
  9
$PSTYLEMODE
290
     1
  9
$FINGERPRINTGUID
  2
{226AF4BD-BC65-D2D4-FCBF-E89593D9CD21}
  9
$VERSIONGUID
  2
{FAEB1C32-E019-11D5-929B-00C0DF256EC4}
  9
$EXTNAMES
290
     1
  9
$PSVPSCALE
 40
0.0
  9
$OLESTARTUP
290
     0
  9
$SORTENTS
280
   127
  9
$INDEXCTL
280
     0
  9
$HIDETEXT
280
     1
  9
$XCLIPFRAME
280
     2
  9
$HALOGAP
280
     0
  9
$OBSCOLOR
 70
   257
  9
$OBSLTYPE
280
     0
  9
$INTERSECTIONDISPLAY
280
     0
  9
$INTERSECTIONCOLOR
 70
   257
  9
$DIMASSOC
280
     2
  9
$PROJECTNAME
  1

  9
$CAMERADISPLAY
290
     0
  9
$LENSLENGTH
 40
50.0
  9
$CAMERAHEIGHT
 40
0.0
  9
$STEPSPERSEC
 40
2.0
  9
$STEPSIZE
 40
6.0
  9
$3DDWFPREC
 40
2.0
  9
$PSOLWIDTH
 40
0.25
  9
$PSOLHEIGHT
 40
4.0
  9
$LOFTANG1
 40
1.570796326794897
  9
$LOFTANG2
 40
1.570796326794897
  9
$LOFTMAG1
 40
0.0
  9
$LOFTMAG2
 40
0.0
  9
$LOFTPARAM
 70
     7
  9
$LOFTNORMALS
280
     1
  9
$LATITUDE
 40
37.795
  9
$LONGITUDE
 40
-122.394
  9
$NORTHDIRECTION
 40
0.0
  9
$TIMEZONE
 70
 -8000
  9
$LIGHTGLYPHDISPLAY
280
     1
  9
$TILEMODELIGHTSYNCH
280
     1
  9
$CMATERIAL
347
3C
  9
$SOLIDHIST
280
     1
  9
$SHOWHIST
280
     1
  9
$DWFFRAME
280
     2
  9
$DGNFRAME
280
     2
  9
$REALWORLDSCALE
290
     1
  9
$INTERFERECOLOR
 62
   256
  9
$CSHADOW
280
     0
  9
$SHADOWPLANELOCATION
 40
0.0
  0
ENDSEC
  0
SECTION
  2
CLASSES
  0
CLASS
  1
ACDBDICTIONARYWDFLT
  2
AcDbDictionaryWithDefault
  3
ObjectDBX Classes
 90
        0
 91
        4
280
     0
281
     0
  0
CLASS
  1
VISUALSTYLE
  2
AcDbVisualStyle
  3
ObjectDBX Classes
 90
     4095
 91
        4
280
     0
281
     0
  0
CLASS
  1
MATERIAL
  2
AcDbMaterial
  3
ObjectDBX Classes
 90
     1153
 91
        4
280
     0
281
     0
  0
CLASS
  1
SUN
  2
AcDbSun
  3
SCENEOE
 90
     1024
 91
        4
280
     0
281
     0
  0
ENDSEC
  0
SECTION
  2
TABLES
  0
TABLE
  2
VPORT
  5
8
330
0
100
AcDbSymbolTable
 70
     1
  0
VPORT
  5
29
330
8
100
AcDbSymbolTableRecord
100
AcDbViewportTableRecord
  2
*Active
 70
     0
 10
0.0
 20
0.0
 11
1.0
 21
1.0
 12
0.0
 22
0.0
 13
0.0
 23
0.0
 14
0.5
 24
0.5
 15
0.5
 25
0.5
 16
0.0
 26
0.0
 36
1.0
 17
4.493472205268012
 27
5.379166497124566
 37
0.0
 40
10.75833299424913
 41
0.835347299190311
 42
50.0
 43
0.0
 44
0.0
 50
0.0
 51
0.0
 71
     0
 72
   100
 73
     1
 74
     3
 75
     0
 76
     0
 77
     0
 78
     0
281
     0
 65
     1
110
0.0
120
0.0
130
0.0
111
1.0
121
0.0
131
0.0
112
0.0
122
1.0
132
0.0
 79
     0
146
0.0
 60
     3
 61
     5
292
     1
282
     1
141
0.0
142
0.0
 63
   250
361
3F
  0
ENDTAB
  0
TABLE
  2
LTYPE
  5
5
330
0
100
AcDbSymbolTable
 70
     1
  0
LTYPE
  5
14
330
5
100
AcDbSymbolTableRecord
100
AcDbLinetypeTableRecord
  2
ByBlock
 70
     0
  3

 72
    65
 73
     0
 40
0.0
  0
LTYPE
  5
15
330
5
100
AcDbSymbolTableRecord
100
AcDbLinetypeTableRecord
  2
ByLayer
 70
     0
  3

 72
    65
 73
     0
 40
0.0
  0
LTYPE
  5
16
330
5
100
AcDbSymbolTableRecord
100
AcDbLinetypeTableRecord
  2
Continuous
 70
     0
  3
Solid line
 72
    65
 73
     0
 40
0.0
  0
ENDTAB
  0
TABLE
  2
LAYER
  5
2
330
0
100
AcDbSymbolTable
 70
     2
  0
LAYER
  5
10
330
2
100
AcDbSymbolTableRecord
100
AcDbLayerTableRecord
  2
0
 70
     0
 62
     7
  6
Continuous
370
    -3
390
F
347
3E
  0
LAYER
  5
40
330
2
100
AcDbSymbolTableRecord
100
AcDbLayerTableRecord
  2
Layer 1
 70
     0
 62
     7
  6
Continuous
370
    -3
390
F
347
3E
  0
ENDTAB
  0
TABLE
  2
STYLE
  5
3
330
0
100
AcDbSymbolTable
 70
     1
  0
STYLE
  5
11
330
3
100
AcDbSymbolTableRecord
100
AcDbTextStyleTableRecord
  2
Standard
 70
     0
 40
0.0
 41
1.0
 50
0.0
 71
     0
 42
0.2
  3
txt
  4

  0
ENDTAB
  0
TABLE
  2
VIEW
  5
6
330
0
100
AcDbSymbolTable
 70
     0
  0
ENDTAB
  0
TABLE
  2
UCS
  5
7
330
0
100
AcDbSymbolTable
 70
     0
  0
ENDTAB
  0
TABLE
  2
APPID
  5
9
330
0
100
AcDbSymbolTable
 70
     1
  0
APPID
  5
12
330
9
100
AcDbSymbolTableRecord
100
AcDbRegAppTableRecord
  2
ACAD
 70
     0
  0
ENDTAB
  0
TABLE
  2
DIMSTYLE
  5
A
330
0
100
AcDbSymbolTable
 70
     1
100
AcDbDimStyleTable
  0
DIMSTYLE
105
27
330
A
100
AcDbSymbolTableRecord
100
AcDbDimStyleTableRecord
  2
Standard
 70
     0
178
     0
340
11
  0
ENDTAB
  0
TABLE
  2
BLOCK_RECORD
  5
1
330
0
100
AcDbSymbolTable
 70
    10
  0
BLOCK_RECORD
  5
1F
330
1
100
AcDbSymbolTableRecord
100
AcDbBlockTableRecord
  2
*Model_Space
340
22
 70
     0
280
     1
281
     0
  0
BLOCK_RECORD
  5
1B
330
1
100
AcDbSymbolTableRecord
100
AcDbBlockTableRecord
  2
*Paper_Space
340
1E
 70
     0
280
     1
281
     0
  0
BLOCK_RECORD
  5
23
330
1
100
AcDbSymbolTableRecord
100
AcDbBlockTableRecord
  2
*Paper_Space0
340
26
 70
     0
280
     1
281
     0
  0
BLOCK_RECORD
  5
41
330
1
100
AcDbSymbolTableRecord
100
AcDbBlockTableRecord
  2
block 2
340
0
102
{BLKREFS
331
42
102
}
 70
     0
280
     1
281
     0
  0
BLOCK_RECORD
  5
45
330
1
100
AcDbSymbolTableRecord
100
AcDbBlockTableRecord
  2
block 3
340
0
102
{BLKREFS
331
46
102
}
 70
     0
280
     1
281
     0
  0
BLOCK_RECORD
  5
59
330
1
100
AcDbSymbolTableRecord
100
AcDbBlockTableRecord
  2
block 4
340
0
102
{BLKREFS
331
5A
102
}
 70
     0
280
     1
281
     0
  0
BLOCK_RECORD
  5
63
330
1
100
AcDbSymbolTableRecord
100
AcDbBlockTableRecord
  2
block 5
340
0
102
{BLKREFS
331
64
102
}
 70
     0
280
     1
281
     0
  0
BLOCK_RECORD
  5
BC
330
1
100
AcDbSymbolTableRecord
100
AcDbBlockTableRecord
  2
block 6
340
0
102
{BLKREFS
331
BD
102
}
 70
     0
280
     1
281
     0
  0
BLOCK_RECORD
  5
DB
330
1
100
AcDbSymbolTableRecord
100
AcDbBlockTableRecord
  2
block 7
340
0
102
{BLKREFS
331
DC
102
}
 70
     0
280
     1
281
     0
  0
BLOCK_RECORD
  5
114
330
1
100
AcDbSymbolTableRecord
100
AcDbBlockTableRecord
  2
block 8
340
0
102
{BLKREFS
331
115
102
}
 70
     0
280
     1
281
     0
  0
BLOCK_RECORD
  5
125
330
1
100
AcDbSymbolTableRecord
100
AcDbBlockTableRecord
  2
block 9
340
0
102
{BLKREFS
331
126
102
}
 70
     0
280
     1
281
     0
  0
BLOCK_RECORD
  5
12F
330
1
100
AcDbSymbolTableRecord
100
AcDbBlockTableRecord
  2
block 10
340
0
102
{BLKREFS
331
130
102
}
 70
     0
280
     1
281
     0
  0
ENDTAB
  0
ENDSEC
  0
SECTION
  2
BLOCKS
  0
BLOCK
  5
20
330
1F
100
AcDbEntity
  8
0
100
AcDbBlockBegin
  2
*Model_Space
 70
     0
 10
0.0
 20
0.0
 30
0.0
  3
*Model_Space
  1

  0
ENDBLK
  5
21
330
1F
100
AcDbEntity
  8
0
100
AcDbBlockEnd
  0
BLOCK
  5
1C
330
1B
100
AcDbEntity
 67
     1
  8
0
100
AcDbBlockBegin
  2
*Paper_Space
 70
     0
 10
0.0
 20
0.0
 30
0.0
  3
*Paper_Space
  1

  0
ENDBLK
  5
1D
330
1B
100
AcDbEntity
 67
     1
  8
0
100
AcDbBlockEnd
  0
BLOCK
  5
24
330
23
100
AcDbEntity
  8
0
100
AcDbBlockBegin
  2
*Paper_Space0
 70
     0
 10
0.0
 20
0.0
 30
0.0
  3
*Paper_Space0
  1

  0
ENDBLK
  5
25
330
23
100
AcDbEntity
  8
0
100
AcDbBlockEnd
  0
BLOCK
  5
43
330
41
100
AcDbEntity
  8
0
100
AcDbBlockBegin
  2
block 2
 70
     0
 10
0.0
 20
0.0
 30
0.0
  3
block 2
  1

  0
ENDBLK
  5
44
330
41
100
AcDbEntity
  8
0
100
AcDbBlockEnd
  0
BLOCK
  5
47
330
45
100
AcDbEntity
  8
0
100
AcDbBlockBegin
  2
block 3
 70
     0
 10
0.0
 20
0.0
 30
0.0
  3
block 3
  1

  0
SPLINE
  5
49
330
45
100
AcDbEntity
  8
Layer 1
370
     0
100
AcDbSpline
210
0.0
220
0.0
230
1.0
 70
    11
 71
     3
 72
    59
 73
    55
 74
     0
 42
0.0000000001
 43
0.0000000001
 12
1.0
 22
0.0
 32
0.0
 13
1.0
 23
0.0
 33
0.0
 40
0.0
 40
0.0
 40
0.0
 40
0.0
 40
1.0
 40
1.0
 40
1.0
 40
2.0
 40
2.0
 40
2.0
 40
3.0
 40
3.0
 40
3.0
 40
4.0
 40
4.0
 40
4.0
 40
5.0
 40
5.0
 40
5.0
 40
6.0
 40
6.0
 40
6.0
 40
7.0
 40
7.0
 40
7.0
 40
8.0
 40
8.0
 40
8.0
 40
9.0
 40
9.0
 40
9.0
 40
10.0
 40
10.0
 40
10.0
 40
11.0
 40
11.0
 40
11.0
 40
12.0
 40
12.0
 40
12.0
 40
13.0
 40
13.0
 40
13.0
 40
14.0
 40
14.0
 40
14.0
 40
15.0
 40
15.0
 40
15.0
 40
16.0
 40
16.0
 40
16.0
 40
17.0
 40
17.0
 40
17.0
 40
18.0
 40
18.0
 40
18.0
 40
18.0
 10
6.025833500756158
 20
4.34999965959125
 30
0.0
 10
6.107777860429551
 20
4.211110770702362
 30
0.0
 10
6.185555722978379
 20
4.061110940244463
 30
0.0
 10
6.28555589252048
 20
3.930555045604706
 30
0.0
 10
6.396667003631592
 20
3.784721712271372
 30
0.0
 10
6.531389395395914
 20
3.695832484298282
 30
0.0
 10
6.686944696638319
 20
3.602777606911129
 30
0.0
 10
6.686944696638319
 20
3.602777606911129
 30
0.0
 10
6.773055977291531
 20
3.665277606911129
 30
0.0
 10
6.773055977291531
 20
3.665277606911129
 30
0.0
 10
6.773055977291531
 20
3.665277606911129
 30
0.0
 10
6.806389225853813
 20
3.966666665342119
 30
0.0
 10
6.806389225853813
 20
3.966666665342119
 30
0.0
 10
6.806389225853813
 20
3.966666665342119
 30
0.0
 10
6.734166834089491
 20
4.052777945995331
 30
0.0
 10
6.734166834089491
 20
4.052777945995331
 30
0.0
 10
6.734166834089491
 20
4.052777945995331
 30
0.0
 10
6.736944781409369
 20
4.052777945995331
 30
0.0
 10
6.736944781409369
 20
4.052777945995331
 30
0.0
 10
6.736944781409369
 20
4.052777945995331
 30
0.0
 10
6.809167173173692
 20
3.976389057106442
 30
0.0
 10
6.809167173173692
 20
3.976389057106442
 30
0.0
 10
6.809167173173692
 20
3.976389057106442
 30
0.0
 10
7.030000421735975
 20
3.995833416779836
 30
0.0
 10
7.030000421735975
 20
3.995833416779836
 30
0.0
 10
7.030000421735975
 20
3.995833416779836
 30
0.0
 10
7.057778199513753
 20
4.090277691682179
 30
0.0
 10
7.057778199513753
 20
4.090277691682179
 30
0.0
 10
7.057778199513753
 20
4.090277691682179
 30
0.0
 10
7.059167173173692
 20
4.088888718022241
 30
0.0
 10
7.059167173173692
 20
4.088888718022241
 30
0.0
 10
7.064722643958198
 20
4.088888718022241
 30
0.0
 10
7.057778199513753
 20
4.090277691682179
 30
0.0
 10
7.057778199513753
 20
4.090277691682179
 30
0.0
 10
7.050833755069308
 20
4.088888718022241
 30
0.0
 10
6.998056146833632
 20
4.180555469459957
 30
0.0
 10
6.991111702389187
 20
4.19027786122428
 30
0.0
 10
6.964722898271348
 20
4.226389057106442
 30
0.0
 10
6.935556146833632
 20
4.261111279328664
 30
0.0
 10
6.906389395395914
 20
4.295833501550886
 30
0.0
 10
6.850176864200168
 20
4.361362371179792
 30
0.0
 10
6.785215960608588
 20
4.418845620420244
 30
0.0
 10
6.713333924611409
 20
4.466666665342118
 30
0.0
 10
6.621461179521348
 20
4.525218029816945
 30
0.0
 10
6.52427159415351
 20
4.574975669384003
 30
0.0
 10
6.423056231604682
 20
4.615277945995331
 30
0.0
 10
6.32583400938246
 20
4.654166665342118
 30
0.0
 10
6.213333924611409
 20
4.697222305668725
 30
0.0
 10
6.107778284284803
 20
4.698611279328664
 30
0.0
 10
6.03694486618042
 20
4.700000252988603
 30
0.0
 10
5.963333924611409
 20
4.688888887564341
 30
0.0
 10
5.892500506507026
 20
4.680555893315209
 30
0.0
 10
5.856388886769612
 20
4.67638854848014
 30
0.0
 10
6.011944611867269
 20
4.373610940244463
 30
0.0
 10
6.025833500756158
 20
4.34999965959125
 30
0.0
  0
SPLINE
  5
4A
330
45
100
AcDbEntity
  8
Layer 1
370
     0
100
AcDbSpline
210
0.0
220
0.0
230
1.0
 70
    11
 71
     3
 72
    14
 73
    10
 74
     0
 42
0.0000000001
 43
0.0000000001
 12
1.0
 22
0.0
 32
0.0
 13
1.0
 23
0.0
 33
0.0
 40
0.0
 40
0.0
 40
0.0
 40
0.0
 40
1.0
 40
1.0
 40
1.0
 40
2.0
 40
2.0
 40
2.0
 40
3.0
 40
3.0
 40
3.0
 40
3.0
 10
7.027222474416097
 20
4.087499744362301
 30
0.0
 10
7.027222474416097
 20
4.087499744362301
 30
0.0
 10
7.027222474416097
 20
4.087499744362301
 30
0.0
 10
7.027222474416097
 20
4.087499744362301
 30
0.0
 10
7.03143729103936
 20
4.087273829513125
 30
0.0
 10
7.035660160912407
 20
4.087743037276797
 30
0.0
 10
7.039722389645046
 20
4.088888718022241
 30
0.0
 10
7.039722389645046
 20
4.088888718022241
 30
0.0
 10
7.027222474416097
 20
4.087499744362301
 30
0.0
 10
7.027222474416097
 20
4.087499744362301
 30
0.0
  0
HATCH
  5
4B
330
45
100
AcDbEntity
  8
Layer 1
 62
    18
420
  4325376
100
AcDbHatch
 10
0.0
 20
0.0
 30
0.0
210
0.0
220
0.0
230
1.0
  2
SOLID
 70
     1
 71
     0
 91
        2
 92
        1
 93
        1
 72
     4
 94
        3
 73
     0
 74
     1
 95
       59
 96
       55
 40
0.0
 40
0.0
 40
0.0
 40
0.0
 40
1.0
 40
1.0
 40
1.0
 40
2.0
 40
2.0
 40
2.0
 40
3.0
 40
3.0
 40
3.0
 40
4.0
 40
4.0
 40
4.0
 40
5.0
 40
5.0
 40
5.0
 40
6.0
 40
6.0
 40
6.0
 40
7.0
 40
7.0
 40
7.0
 40
8.0
 40
8.0
 40
8.0
 40
9.0
 40
9.0
 40
9.0
 40
10.0
 40
10.0
 40
10.0
 40
11.0
 40
11.0
 40
11.0
 40
12.0
 40
12.0
 40
12.0
 40
13.0
 40
13.0
 40
13.0
 40
14.0
 40
14.0
 40
14.0
 40
15.0
 40
15.0
 40
15.0
 40
16.0
 40
16.0
 40
16.0
 40
17.0
 40
17.0
 40
17.0
 40
18.0
 40
18.0
 40
18.0
 40
18.0
 10
6.025833500756158
 20
4.34999965959125
 10
6.107777860429551
 20
4.211110770702362
 10
6.185555722978379
 20
4.061110940244463
 10
6.28555589252048
 20
3.930555045604706
 10
6.396667003631592
 20
3.784721712271372
 10
6.531389395395914
 20
3.695832484298282
 10
6.686944696638319
 20
3.602777606911129
 10
6.686944696638319
 20
3.602777606911129
 10
6.773055977291531
 20
3.665277606911129
 10
6.773055977291531
 20
3.665277606911129
 10
6.773055977291531
 20
3.665277606911129
 10
6.806389225853813
 20
3.966666665342119
 10
6.806389225853813
 20
3.966666665342119
 10
6.806389225853813
 20
3.966666665342119
 10
6.734166834089491
 20
4.052777945995331
 10
6.734166834089491
 20
4.052777945995331
 10
6.734166834089491
 20
4.052777945995331
 10
6.736944781409369
 20
4.052777945995331
 10
6.736944781409369
 20
4.052777945995331
 10
6.736944781409369
 20
4.052777945995331
 10
6.809167173173692
 20
3.976389057106442
 10
6.809167173173692
 20
3.976389057106442
 10
6.809167173173692
 20
3.976389057106442
 10
7.030000421735975
 20
3.995833416779836
 10
7.030000421735975
 20
3.995833416779836
 10
7.030000421735975
 20
3.995833416779836
 10
7.057778199513753
 20
4.090277691682179
 10
7.057778199513753
 20
4.090277691682179
 10
7.057778199513753
 20
4.090277691682179
 10
7.059167173173692
 20
4.088888718022241
 10
7.059167173173692
 20
4.088888718022241
 10
7.064722643958198
 20
4.088888718022241
 10
7.057778199513753
 20
4.090277691682179
 10
7.057778199513753
 20
4.090277691682179
 10
7.050833755069308
 20
4.088888718022241
 10
6.998056146833632
 20
4.180555469459957
 10
6.991111702389187
 20
4.19027786122428
 10
6.964722898271348
 20
4.226389057106442
 10
6.935556146833632
 20
4.261111279328664
 10
6.906389395395914
 20
4.295833501550886
 10
6.850176864200168
 20
4.361362371179792
 10
6.785215960608588
 20
4.418845620420244
 10
6.713333924611409
 20
4.466666665342118
 10
6.621461179521348
 20
4.525218029816945
 10
6.52427159415351
 20
4.574975669384003
 10
6.423056231604682
 20
4.615277945995331
 10
6.32583400938246
 20
4.654166665342118
 10
6.213333924611409
 20
4.697222305668725
 10
6.107778284284803
 20
4.698611279328664
 10
6.03694486618042
 20
4.700000252988603
 10
5.963333924611409
 20
4.688888887564341
 10
5.892500506507026
 20
4.680555893315209
 10
5.856388886769612
 20
4.67638854848014
 10
6.011944611867269
 20
4.373610940244463
 10
6.025833500756158
 20
4.34999965959125
 97
        0
 97
        0
 92
        1
 93
        1
 72
     4
 94
        3
 73
     0
 74
     1
 95
       14
 96
       10
 40
0.0
 40
0.0
 40
0.0
 40
0.0
 40
1.0
 40
1.0
 40
1.0
 40
2.0
 40
2.0
 40
2.0
 40
3.0
 40
3.0
 40
3.0
 40
3.0
 10
7.027222474416097
 20
4.087499744362301
 10
7.027222474416097
 20
4.087499744362301
 10
7.027222474416097
 20
4.087499744362301
 10
7.027222474416097
 20
4.087499744362301
 10
7.03143729103936
 20
4.087273829513125
 10
7.035660160912407
 20
4.087743037276797
 10
7.039722389645046
 20
4.088888718022241
 10
7.039722389645046
 20
4.088888718022241
 10
7.027222474416097
 20
4.087499744362301
 10
7.027222474416097
 20
4.087499744362301
 97
        0
 97
        0
 75
     2
 76
     1
 98
        0
  0
SPLINE
  5
4C
330
45
100
AcDbEntity
  8
Layer 1
370
     0
100
AcDbSpline
210
0.0
220
0.0
230
1.0
 70
    11
 71
     3
 72
    59
 73
    55
 74
     0
 42
0.0000000001
 43
0.0000000001
 12
1.0
 22
0.0
 32
0.0
 13
1.0
 23
0.0
 33
0.0
 40
0.0
 40
0.0
 40
0.0
 40
0.0
 40
1.0
 40
1.0
 40
1.0
 40
2.0
 40
2.0
 40
2.0
 40
3.0
 40
3.0
 40
3.0
 40
4.0
 40
4.0
 40
4.0
 40
5.0
 40
5.0
 40
5.0
 40
6.0
 40
6.0
 40
6.0
 40
7.0
 40
7.0
 40
7.0
 40
8.0
 40
8.0
 40
8.0
 40
9.0
 40
9.0
 40
9.0
 40
10.0
 40
10.0
 40
10.0
 40
11.0
 40
11.0
 40
11.0
 40
12.0
 40
12.0
 40
12.0
 40
13.0
 40
13.0
 40
13.0
 40
14.0
 40
14.0
 40
14.0
 40
15.0
 40
15.0
 40
15.0
 40
16.0
 40
16.0
 40
16.0
 40
17.0
 40
17.0
 40
17.0
 40
18.0
 40
18.0
 40
18.0
 40
18.0
 10
8.348055892520481
 20
4.680555045604706
 30
0.0
 10
8.277222898271349
 20
4.688888463709089
 30
0.0
 10
8.203611108991835
 20
4.6999994052781
 30
0.0
 10
8.132778114742703
 20
4.69861043161816
 30
0.0
 10
8.025833500756157
 20
4.697221457958221
 30
0.0
 10
7.914722389645046
 20
4.652777267826928
 30
0.0
 10
7.817500167422824
 20
4.615277098284827
 30
0.0
 10
7.716284381018744
 20
4.574974821673499
 30
0.0
 10
7.619095219506157
 20
4.525217182106442
 30
0.0
 10
7.527222474416097
 20
4.466665817631616
 30
0.0
 10
7.455340438418918
 20
4.418844772709741
 30
0.0
 10
7.390379534827338
 20
4.361361523469289
 30
0.0
 10
7.334167003631592
 20
4.295832653840383
 30
0.0
 10
7.303671889834933
 20
4.262517631053925
 30
0.0
 10
7.275371498531765
 20
4.227258384227753
 30
0.0
 10
7.249444696638319
 20
4.190277013513777
 30
0.0
 10
7.242500252193874
 20
4.180554621749454
 30
0.0
 10
7.189722643958198
 20
4.090276843971676
 30
0.0
 10
7.182778199513753
 20
4.090276843971676
 30
0.0
 10
7.182778199513753
 20
4.090276843971676
 30
0.0
 10
7.177222728729248
 20
4.088887870311737
 30
0.0
 10
7.181389225853813
 20
4.088887870311737
 30
0.0
 10
7.181389225853813
 20
4.088887870311737
 30
0.0
 10
7.182778199513753
 20
4.090276843971676
 30
0.0
 10
7.182778199513753
 20
4.090276843971676
 30
0.0
 10
7.182778199513753
 20
4.090276843971676
 30
0.0
 10
7.210555977291531
 20
3.995832569069332
 30
0.0
 10
7.210555977291531
 20
3.995832569069332
 30
0.0
 10
7.210555977291531
 20
3.995832569069332
 30
0.0
 10
7.431389225853813
 20
3.976388209395938
 30
0.0
 10
7.431389225853813
 20
3.976388209395938
 30
0.0
 10
7.431389225853813
 20
3.976388209395938
 30
0.0
 10
7.503611617618136
 20
4.052777098284827
 30
0.0
 10
7.503611617618136
 20
4.052777098284827
 30
0.0
 10
7.503611617618136
 20
4.052777098284827
 30
0.0
 10
7.506389564938015
 20
4.052777098284827
 30
0.0
 10
7.506389564938015
 20
4.052777098284827
 30
0.0
 10
7.506389564938015
 20
4.052777098284827
 30
0.0
 10
7.434167173173692
 20
3.966665817631615
 30
0.0
 10
7.434167173173692
 20
3.966665817631615
 30
0.0
 10
7.434167173173692
 20
3.966665817631615
 30
0.0
 10
7.467500421735975
 20
3.665276759200626
 30
0.0
 10
7.467500421735975
 20
3.665276759200626
 30
0.0
 10
7.467500421735975
 20
3.665276759200626
 30
0.0
 10
7.553611702389187
 20
3.602776759200626
 30
0.0
 10
7.553611702389187
 20
3.602776759200626
 30
0.0
 10
7.709167003631592
 20
3.694443086783091
 30
0.0
 10
7.843889395395914
 20
3.784721288416121
 30
0.0
 10
7.955000506507026
 20
3.930554621749454
 30
0.0
 10
8.055000676049126
 20
4.061110092533959
 30
0.0
 10
8.132778114742703
 20
4.209721373187171
 30
0.0
 10
8.214722898271349
 20
4.349999235735999
 30
0.0
 10
8.227222389645046
 20
4.373610940244463
 30
0.0
 10
8.38416666454739
 20
4.67638854848014
 30
0.0
 10
8.348055892520481
 20
4.680555045604706
 30
0.0
  0
SPLINE
  5
4D
330
45
100
AcDbEntity
  8
Layer 1
370
     0
100
AcDbSpline
210
0.0
220
0.0
230
1.0
 70
    11
 71
     3
 72
    14
 73
    10
 74
     0
 42
0.0000000001
 43
0.0000000001
 12
1.0
 22
0.0
 32
0.0
 13
1.0
 23
0.0
 33
0.0
 40
0.0
 40
0.0
 40
0.0
 40
0.0
 40
1.0
 40
1.0
 40
1.0
 40
2.0
 40
2.0
 40
2.0
 40
3.0
 40
3.0
 40
3.0
 40
3.0
 10
7.200833585527207
 20
4.088888294166988
 30
0.0
 10
7.205045859018961
 20
4.089043849044375
 30
0.0
 10
7.209258132510715
 20
4.088575488991207
 30
0.0
 10
7.213333500756157
 20
4.08749932050705
 30
0.0
 10
7.213333500756157
 20
4.08749932050705
 30
0.0
 10
7.213333500756157
 20
4.08749932050705
 30
0.0
 10
7.213333500756157
 20
4.08749932050705
 30
0.0
 10
7.213333500756157
 20
4.08749932050705
 30
0.0
 10
7.200833585527207
 20
4.088888294166988
 30
0.0
 10
7.200833585527207
 20
4.088888294166988
 30
0.0
  0
HATCH
  5
4E
330
45
100
AcDbEntity
  8
Layer 1
 62
    18
420
  4325376
100
AcDbHatch
 10
0.0
 20
0.0
 30
0.0
210
0.0
220
0.0
230
1.0
  2
SOLID
 70
     1
 71
     0
 91
        2
 92
        1
 93
        1
 72
     4
 94
        3
 73
     0
 74
     1
 95
       59
 96
       55
 40
0.0
 40
0.0
 40
0.0
 40
0.0
 40
1.0
 40
1.0
 40
1.0
 40
2.0
 40
2.0
 40
2.0
 40
3.0
 40
3.0
 40
3.0
 40
4.0
 40
4.0
 40
4.0
 40
5.0
 40
5.0
 40
5.0
 40
6.0
 40
6.0
 40
6.0
 40
7.0
 40
7.0
 40
7.0
 40
8.0
 40
8.0
 40
8.0
 40
9.0
 40
9.0
 40
9.0
 40
10.0
 40
10.0
 40
10.0
 40
11.0
 40
11.0
 40
11.0
 40
12.0
 40
12.0
 40
12.0
 40
13.0
 40
13.0
 40
13.0
 40
14.0
 40
14.0
 40
14.0
 40
15.0
 40
15.0
 40
15.0
 40
16.0
 40
16.0
 40
16.0
 40
17.0
 40
17.0
 40
17.0
 40
18.0
 40
18.0
 40
18.0
 40
18.0
 10
8.348055892520481
 20
4.680555045604706
 10
8.277222898271349
 20
4.688888463709089
 10
8.203611108991835
 20
4.6999994052781
 10
8.132778114742703
 20
4.69861043161816
 10
8.025833500756157
 20
4.697221457958221
 10
7.914722389645046
 20
4.652777267826928
 10
7.817500167422824
 20
4.615277098284827
 10
7.716284381018744
 20
4.574974821673499
 10
7.619095219506157
 20
4.525217182106442
 10
7.527222474416097
 20
4.466665817631616
 10
7.455340438418918
 20
4.418844772709741
 10
7.390379534827338
 20
4.361361523469289
 10
7.334167003631592
 20
4.295832653840383
 10
7.303671889834933
 20
4.262517631053925
 10
7.275371498531765
 20
4.227258384227753
 10
7.249444696638319
 20
4.190277013513777
 10
7.242500252193874
 20
4.180554621749454
 10
7.189722643958198
 20
4.090276843971676
 10
7.182778199513753
 20
4.090276843971676
 10
7.182778199513753
 20
4.090276843971676
 10
7.177222728729248
 20
4.088887870311737
 10
7.181389225853813
 20
4.088887870311737
 10
7.181389225853813
 20
4.088887870311737
 10
7.182778199513753
 20
4.090276843971676
 10
7.182778199513753
 20
4.090276843971676
 10
7.182778199513753
 20
4.090276843971676
 10
7.210555977291531
 20
3.995832569069332
 10
7.210555977291531
 20
3.995832569069332
 10
7.210555977291531
 20
3.995832569069332
 10
7.431389225853813
 20
3.976388209395938
 10
7.431389225853813
 20
3.976388209395938
 10
7.431389225853813
 20
3.976388209395938
 10
7.503611617618136
 20
4.052777098284827
 10
7.503611617618136
 20
4.052777098284827
 10
7.503611617618136
 20
4.052777098284827
 10
7.506389564938015
 20
4.052777098284827
 10
7.506389564938015
 20
4.052777098284827
 10
7.506389564938015
 20
4.052777098284827
 10
7.434167173173692
 20
3.966665817631615
 10
7.434167173173692
 20
3.966665817631615
 10
7.434167173173692
 20
3.966665817631615
 10
7.467500421735975
 20
3.665276759200626
 10
7.467500421735975
 20
3.665276759200626
 10
7.467500421735975
 20
3.665276759200626
 10
7.553611702389187
 20
3.602776759200626
 10
7.553611702389187
 20
3.602776759200626
 10
7.709167003631592
 20
3.694443086783091
 10
7.843889395395914
 20
3.784721288416121
 10
7.955000506507026
 20
3.930554621749454
 10
8.055000676049126
 20
4.061110092533959
 10
8.132778114742703
 20
4.209721373187171
 10
8.214722898271349
 20
4.349999235735999
 10
8.227222389645046
 20
4.373610940244463
 10
8.38416666454739
 20
4.67638854848014
 10
8.348055892520481
 20
4.680555045604706
 97
        0
 97
        0
 92
        1
 93
        1
 72
     4
 94
        3
 73
     0
 74
     1
 95
       14
 96
       10
 40
0.0
 40
0.0
 40
0.0
 40
0.0
 40
1.0
 40
1.0
 40
1.0
 40
2.0
 40
2.0
 40
2.0
 40
3.0
 40
3.0
 40
3.0
 40
3.0
 10
7.200833585527207
 20
4.088888294166988
 10
7.205045859018961
 20
4.089043849044375
 10
7.209258132510715
 20
4.088575488991207
 10
7.213333500756157
 20
4.08749932050705
 10
7.213333500756157
 20
4.08749932050705
 10
7.213333500756157
 20
4.08749932050705
 10
7.213333500756157
 20
4.08749932050705
 10
7.213333500756157
 20
4.08749932050705
 10
7.200833585527207
 20
4.088888294166988
 10
7.200833585527207
 20
4.088888294166988
 97
        0
 97
        0
 75
     2
 76
     1
 98
        0
  0
POLYLINE
  5
4F
330
45
100
AcDbEntity
  8
Layer 1
 62
   243
420
 16470906
370
    35
100
AcDb2dPolyline
 66
     1
 10
0.0
 20
0.0
 30
0.0
  0
VERTEX
  5
50
330
4F
100
AcDbEntity
  8
Layer 1
 62
   243
420
 16470906
370
    35
100
AcDbVertex
100
AcDb2dVertex
 10
6.689722273084852
 20
3.602777269151475
 30
0.0
  0
VERTEX
  5
51
330
4F
100
AcDbEntity
  8
Layer 1
 62
   243
420
 16470906
370
    35
100
AcDbVertex
100
AcDb2dVertex
 10
6.738333384195963
 20
4.051388634575738
 30
0.0
  0
VERTEX
  5
52
330
4F
100
AcDbEntity
  8
Layer 1
 62
   243
420
 16470906
370
    35
100
AcDbVertex
100
AcDb2dVertex
 10
7.059166802300346
 20
4.08611085679796
 30
0.0
  0
SEQEND
  5
53
330
4F
100
AcDbEntity
  8
Layer 1
 62
   243
420
 16470906
370
    35
  0
POLYLINE
  5
54
330
45
100
AcDbEntity
  8
Layer 1
 62
   243
420
 16470906
370
    35
100
AcDb2dPolyline
 66
     1
 10
0.0
 20
0.0
 30
0.0
  0
VERTEX
  5
55
330
54
100
AcDbEntity
  8
Layer 1
 62
   243
420
 16470906
370
    35
100
AcDbVertex
100
AcDb2dVertex
 10
7.550832960340712
 20
3.602777269151475
 30
0.0
  0
VERTEX
  5
56
330
54
100
AcDbEntity
  8
Layer 1
 62
   243
420
 16470906
370
    35
100
AcDbVertex
100
AcDb2dVertex
 10
7.5022218492296
 20
4.051388634575738
 30
0.0
  0
VERTEX
  5
57
330
54
100
AcDbEntity
  8
Layer 1
 62
   243
420
 16470906
370
    35
100
AcDbVertex
100
AcDb2dVertex
 10
7.180000305175781
 20
4.08611085679796
 30
0.0
  0
SEQEND
  5
58
330
54
100
AcDbEntity
  8
Layer 1
 62
   243
420
 16470906
370
    35
  0
ENDBLK
  5
48
330
45
100
AcDbEntity
  8
0
100
AcDbBlockEnd
  0
BLOCK
  5
5B
330
59
100
AcDbEntity
  8
0
100
AcDbBlockBegin
  2
block 4
 70
     0
 10
0.0
 20
0.0
 30
0.0
  3
block 4
  1

  0
POLYLINE
  5
5D
330
59
100
AcDbEntity
  8
Layer 1
 62
   243
420
 16470906
370
    35
100
AcDb2dPolyline
 66
     1
 10
0.0
 20
0.0
 30
0.0
  0
VERTEX
  5
5E
330
5D
100
AcDbEntity
  8
Layer 1
 62
   243
420
 16470906
370
    35
100
AcDbVertex
100
AcDb2dVertex
 10
6.411944495307075
 20
3.077777438693576
 30
0.0
  0
VERTEX
  5
5F
330
5D
100
AcDbEntity
  8
Layer 1
 62
   243
420
 16470906
370
    35
100
AcDbVertex
100
AcDb2dVertex
 10
6.470277574327256
 20
2.48472171359592
 30
0.0
  0
SEQEND
  5
60
330
5D
100
AcDbEntity
  8
Layer 1
 62
   243
420
 16470906
370
    35
  0
SPLINE
  5
61
330
59
100
AcDbEntity
  8
Layer 1
370
     0
100
AcDbSpline
210
0.0
220
0.0
230
1.0
 70
    11
 71
     3
 72
    50
 73
    46
 74
     0
 42
0.0000000001
 43
0.0000000001
 12
1.0
 22
0.0
 32
0.0
 13
1.0
 23
0.0
 33
0.0
 40
0.0
 40
0.0
 40
0.0
 40
0.0
 40
1.0
 40
1.0
 40
1.0
 40
2.0
 40
2.0
 40
2.0
 40
3.0
 40
3.0
 40
3.0
 40
4.0
 40
4.0
 40
4.0
 40
5.0
 40
5.0
 40
5.0
 40
6.0
 40
6.0
 40
6.0
 40
7.0
 40
7.0
 40
7.0
 40
8.0
 40
8.0
 40
8.0
 40
9.0
 40
9.0
 40
9.0
 40
10.0
 40
10.0
 40
10.0
 40
11.0
 40
11.0
 40
11.0
 40
12.0
 40
12.0
 40
12.0
 40
13.0
 40
13.0
 40
13.0
 40
14.0
 40
14.0
 40
14.0
 40
15.0
 40
15.0
 40
15.0
 40
15.0
 10
8.449444611867268
 20
3.61388854848014
 30
0.0
 10
8.43555572297838
 20
3.655555215146806
 30
0.0
 10
8.241111278533936
 20
3.606944104035695
 30
0.0
 10
8.150833500756157
 20
3.555555045604706
 30
0.0
 10
8.01055606206258
 20
3.474999659591251
 30
0.0
 10
7.880000167422824
 20
3.369443595409393
 30
0.0
 10
7.738333331214057
 20
3.288888209395938
 30
0.0
 10
7.578611108991835
 20
3.199998981422848
 30
0.0
 10
7.39666657977634
 20
3.148610770702362
 30
0.0
 10
7.225833415985107
 20
3.088887870311737
 30
0.0
 10
7.060555722978379
 20
3.031943764951494
 30
0.0
 10
6.904999997880723
 20
2.968054367436303
 30
0.0
 10
6.727222389645046
 20
2.998610092533959
 30
0.0
 10
6.620309988657633
 20
3.017756481965383
 30
0.0
 10
6.514937453799777
 20
3.044679767555661
 30
0.0
 10
6.411944442325168
 20
3.079166326257917
 30
0.0
 10
6.411944442325168
 20
3.079166326257917
 30
0.0
 10
6.411944442325168
 20
3.083332823382483
 30
0.0
 10
6.411944442325168
 20
3.083332823382483
 30
0.0
 10
6.411944442325168
 20
3.083332823382483
 30
0.0
 10
6.242499828338623
 20
3.034721712271372
 30
0.0
 10
6.242499828338623
 20
3.034721712271372
 30
0.0
 10
6.242499828338623
 20
3.034721712271372
 30
0.0
 10
6.284166495005289
 20
2.523610770702362
 30
0.0
 10
6.284166495005289
 20
2.523610770702362
 30
0.0
 10
6.284166495005289
 20
2.523610770702362
 30
0.0
 10
6.471666495005289
 20
2.490277098284827
 30
0.0
 10
6.471666495005289
 20
2.490277098284827
 30
0.0
 10
6.471666495005289
 20
2.490277098284827
 30
0.0
 10
6.471666495005289
 20
2.486110601160261
 30
0.0
 10
6.471666495005289
 20
2.486110601160261
 30
0.0
 10
6.471666495005289
 20
2.491666495800018
 30
0.0
 10
6.760555214352078
 20
2.580554876062605
 30
0.0
 10
6.789721965789795
 20
2.591665817631615
 30
0.0
 10
6.902222050560844
 20
2.631943934493595
 30
0.0
 10
7.014722135331895
 20
2.674999150964949
 30
0.0
 10
7.125833246443007
 20
2.719443764951494
 30
0.0
 10
7.33416657977634
 20
2.802777098284827
 30
0.0
 10
7.552222304873996
 20
2.870832992924584
 30
0.0
 10
7.750833670298258
 20
2.974999659591251
 30
0.0
 10
7.960555553436279
 20
3.086110770702362
 30
0.0
 10
8.14944495095147
 20
3.24999949004915
 30
0.0
 10
8.330000506507025
 20
3.402777267826928
 30
0.0
 10
8.46055555343628
 20
3.512499829133351
 30
0.0
 10
8.463333500756157
 20
3.572221881813473
 30
0.0
 10
8.449444611867268
 20
3.61388854848014
 30
0.0
  0
HATCH
  5
62
330
59
100
AcDbEntity
  8
Layer 1
 62
    18
420
  4325376
100
AcDbHatch
 10
0.0
 20
0.0
 30
0.0
210
0.0
220
0.0
230
1.0
  2
SOLID
 70
     1
 71
     0
 91
        1
 92
        1
 93
        1
 72
     4
 94
        3
 73
     0
 74
     1
 95
       50
 96
       46
 40
0.0
 40
0.0
 40
0.0
 40
0.0
 40
1.0
 40
1.0
 40
1.0
 40
2.0
 40
2.0
 40
2.0
 40
3.0
 40
3.0
 40
3.0
 40
4.0
 40
4.0
 40
4.0
 40
5.0
 40
5.0
 40
5.0
 40
6.0
 40
6.0
 40
6.0
 40
7.0
 40
7.0
 40
7.0
 40
8.0
 40
8.0
 40
8.0
 40
9.0
 40
9.0
 40
9.0
 40
10.0
 40
10.0
 40
10.0
 40
11.0
 40
11.0
 40
11.0
 40
12.0
 40
12.0
 40
12.0
 40
13.0
 40
13.0
 40
13.0
 40
14.0
 40
14.0
 40
14.0
 40
15.0
 40
15.0
 40
15.0
 40
15.0
 10
8.449444611867268
 20
3.61388854848014
 10
8.43555572297838
 20
3.655555215146806
 10
8.241111278533936
 20
3.606944104035695
 10
8.150833500756157
 20
3.555555045604706
 10
8.01055606206258
 20
3.474999659591251
 10
7.880000167422824
 20
3.369443595409393
 10
7.738333331214057
 20
3.288888209395938
 10
7.578611108991835
 20
3.199998981422848
 10
7.39666657977634
 20
3.148610770702362
 10
7.225833415985107
 20
3.088887870311737
 10
7.060555722978379
 20
3.031943764951494
 10
6.904999997880723
 20
2.968054367436303
 10
6.727222389645046
 20
2.998610092533959
 10
6.620309988657633
 20
3.017756481965383
 10
6.514937453799777
 20
3.044679767555661
 10
6.411944442325168
 20
3.079166326257917
 10
6.411944442325168
 20
3.079166326257917
 10
6.411944442325168
 20
3.083332823382483
 10
6.411944442325168
 20
3.083332823382483
 10
6.411944442325168
 20
3.083332823382483
 10
6.242499828338623
 20
3.034721712271372
 10
6.242499828338623
 20
3.034721712271372
 10
6.242499828338623
 20
3.034721712271372
 10
6.284166495005289
 20
2.523610770702362
 10
6.284166495005289
 20
2.523610770702362
 10
6.284166495005289
 20
2.523610770702362
 10
6.471666495005289
 20
2.490277098284827
 10
6.471666495005289
 20
2.490277098284827
 10
6.471666495005289
 20
2.490277098284827
 10
6.471666495005289
 20
2.486110601160261
 10
6.471666495005289
 20
2.486110601160261
 10
6.471666495005289
 20
2.491666495800018
 10
6.760555214352078
 20
2.580554876062605
 10
6.789721965789795
 20
2.591665817631615
 10
6.902222050560844
 20
2.631943934493595
 10
7.014722135331895
 20
2.674999150964949
 10
7.125833246443007
 20
2.719443764951494
 10
7.33416657977634
 20
2.802777098284827
 10
7.552222304873996
 20
2.870832992924584
 10
7.750833670298258
 20
2.974999659591251
 10
7.960555553436279
 20
3.086110770702362
 10
8.14944495095147
 20
3.24999949004915
 10
8.330000506507025
 20
3.402777267826928
 10
8.46055555343628
 20
3.512499829133351
 10
8.463333500756157
 20
3.572221881813473
 10
8.449444611867268
 20
3.61388854848014
 97
        0
 97
        0
 75
     2
 76
     1
 98
        0
  0
ENDBLK
  5
5C
330
59
100
AcDbEntity
  8
0
100
AcDbBlockEnd
  0
BLOCK
  5
65
330
63
100
AcDbEntity
  8
0
100
AcDbBlockBegin
  2
block 5
 70
     0
 10
0.0
 20
0.0
 30
0.0
  3
block 5
  1

  0
POLYLINE
  5
67
330
63
100
AcDbEntity
  8
Layer 1
 62
    18
420
  4325376
370
    35
100
AcDb2dPolyline
 66
     1
 10
0.0
 20
0.0
 30
0.0
  0
VERTEX
  5
68
330
67
100
AcDbEntity
  8
Layer 1
 62
    18
420
  4325376
370
    35
100
AcDbVertex
100
AcDb2dVertex
 10
1.874444484710693
 20
9.27916634745068
 30
0.0
  0
VERTEX
  5
69
330
67
100
AcDbEntity
  8
Layer 1
 62
    18
420
  4325376
370
    35
100
AcDbVertex
100
AcDb2dVertex
 10
1.641111108991835
 20
9.033332950539059
 30
0.0
  0
VERTEX
  5
6A
330
67
100
AcDbEntity
  8
Layer 1
 62
    18
420
  4325376
370
    35
100
AcDbVertex
100
AcDb2dVertex
 10
1.68833335240682
 20
8.440277437369028
 30
0.0
  0
VERTEX
  5
6B
330
67
100
AcDbEntity
  8
Layer 1
 62
    18
420
  4325376
370
    35
100
AcDbVertex
100
AcDb2dVertex
 10
1.953611108991835
 20
8.241666283872393
 30
0.0
  0
VERTEX
  5
6C
330
67
100
AcDbEntity
  8
Layer 1
 62
    18
420
  4325376
370
    35
100
AcDbVertex
100
AcDb2dVertex
 10
1.703611108991835
 20
8.009721881813473
 30
0.0
  0
VERTEX
  5
6D
330
67
100
AcDbEntity
  8
Layer 1
 62
    18
420
  4325376
370
    35
100
AcDbVertex
100
AcDb2dVertex
 10
1.682777775658501
 20
7.034721712271372
 30
0.0
  0
VERTEX
  5
6E
330
67
100
AcDbEntity
  8
Layer 1
 62
    18
420
  4325376
370
    35
100
AcDbVertex
100
AcDb2dVertex
 10
1.936944484710693
 20
6.784721712271372
 30
0.0
  0
VERTEX
  5
6F
330
67
100
AcDbEntity
  8
Layer 1
 62
    18
420
  4325376
370
    35
100
AcDbVertex
100
AcDb2dVertex
 10
0.7022222214274936
 20
7.47638863325119
 30
0.0
  0
VERTEX
  5
70
330
67
100
AcDbEntity
  8
Layer 1
 62
    18
420
  4325376
370
    35
100
AcDbVertex
100
AcDb2dVertex
 10
0.0091666645473904
 20
6.634721881813473
 30
0.0
  0
VERTEX
  5
71
330
67
100
AcDbEntity
  8
Layer 1
 62
    18
420
  4325376
370
    35
100
AcDbVertex
100
AcDb2dVertex
 10
0.9133333100212945
 20
5.637499829133351
 30
0.0
  0
VERTEX
  5
72
330
67
100
AcDbEntity
  8
Layer 1
 62
    18
420
  4325376
370
    35
100
AcDbVertex
100
AcDb2dVertex
 10
1.79111115137736
 20
5.290277606911129
 30
0.0
  0
VERTEX
  5
73
330
67
100
AcDbEntity
  8
Layer 1
 62
    18
420
  4325376
370
    35
100
AcDbVertex
100
AcDb2dVertex
 10
2.352222283681233
 20
5.57777777645323
 30
0.0
  0
VERTEX
  5
74
330
67
100
AcDbEntity
  8
Layer 1
 62
    18
420
  4325376
370
    35
100
AcDbVertex
100
AcDb2dVertex
 10
2.050833331214057
 20
5.411111109786563
 30
0.0
  0
VERTEX
  5
75
330
67
100
AcDbEntity
  8
Layer 1
 62
    18
420
  4325376
370
    35
100
AcDbVertex
100
AcDb2dVertex
 10
2.014722241295709
 20
5.286111109786563
 30
0.0
  0
VERTEX
  5
76
330
67
100
AcDbEntity
  8
Layer 1
 62
    18
420
  4325376
370
    35
100
AcDbVertex
100
AcDb2dVertex
 10
2.193888929155138
 20
5.026388718022241
 30
0.0
  0
VERTEX
  5
77
330
67
100
AcDbEntity
  8
Layer 1
 62
    18
420
  4325376
370
    35
100
AcDbVertex
100
AcDb2dVertex
 10
1.866111172570122
 20
4.915277606911129
 30
0.0
  0
VERTEX
  5
78
330
67
100
AcDbEntity
  8
Layer 1
 62
    18
420
  4325376
370
    35
100
AcDbVertex
100
AcDb2dVertex
 10
1.686944484710693
 20
4.540277606911129
 30
0.0
  0
VERTEX
  5
79
330
67
100
AcDbEntity
  8
Layer 1
 62
    18
420
  4325376
370
    35
100
AcDbVertex
100
AcDb2dVertex
 10
1.796666728125678
 20
4.234722051355574
 30
0.0
  0
VERTEX
  5
7A
330
67
100
AcDbEntity
  8
Layer 1
 62
    18
420
  4325376
370
    35
100
AcDbVertex
100
AcDb2dVertex
 10
1.563333458370632
 20
3.998610940244463
 30
0.0
  0
VERTEX
  5
7B
330
67
100
AcDbEntity
  8
Layer 1
 62
    18
420
  4325376
370
    35
100
AcDbVertex
100
AcDb2dVertex
 10
1.586944527096218
 20
3.068055384688907
 30
0.0
  0
VERTEX
  5
7C
330
67
100
AcDbEntity
  8
Layer 1
 62
    18
420
  4325376
370
    35
100
AcDbVertex
100
AcDb2dVertex
 10
2.148055659400092
 20
2.609722051355574
 30
0.0
  0
VERTEX
  5
7D
330
67
100
AcDbEntity
  8
Layer 1
 62
    18
420
  4325376
370
    35
100
AcDbVertex
100
AcDb2dVertex
 10
3.102222389645047
 20
2.627777437369029
 30
0.0
  0
VERTEX
  5
7E
330
67
100
AcDbEntity
  8
Layer 1
 62
    18
420
  4325376
370
    35
100
AcDbVertex
100
AcDb2dVertex
 10
3.631389141082764
 20
3.072221881813473
 30
0.0
  0
VERTEX
  5
7F
330
67
100
AcDbEntity
  8
Layer 1
 62
    18
420
  4325376
370
    35
100
AcDbVertex
100
AcDb2dVertex
 10
3.657777945200602
 20
3.993055045604706
 30
0.0
  0
VERTEX
  5
80
330
67
100
AcDbEntity
  8
Layer 1
 62
    18
420
  4325376
370
    35
100
AcDbVertex
100
AcDb2dVertex
 10
3.411944442325168
 20
4.23888854848014
 30
0.0
  0
VERTEX
  5
81
330
67
100
AcDbEntity
  8
Layer 1
 62
    18
420
  4325376
370
    35
100
AcDbVertex
100
AcDb2dVertex
 10
3.531388971540663
 20
4.544444104035695
 30
0.0
  0
VERTEX
  5
82
330
67
100
AcDbEntity
  8
Layer 1
 62
    18
420
  4325376
370
    35
100
AcDbVertex
100
AcDb2dVertex
 10
3.364722304873996
 20
4.909721712271372
 30
0.0
  0
VERTEX
  5
83
330
67
100
AcDbEntity
  8
Layer 1
 62
    18
420
  4325376
370
    35
100
AcDbVertex
100
AcDb2dVertex
 10
3.021666791703966
 20
5.02499932050705
 30
0.0
  0
VERTEX
  5
84
330
67
100
AcDbEntity
  8
Layer 1
 62
    18
420
  4325376
370
    35
100
AcDbVertex
100
AcDb2dVertex
 10
3.213333500756157
 20
5.298610601160261
 30
0.0
  0
VERTEX
  5
85
330
67
100
AcDbEntity
  8
Layer 1
 62
    18
420
  4325376
370
    35
100
AcDbVertex
100
AcDb2dVertex
 10
3.161944654252794
 20
5.423610601160261
 30
0.0
  0
VERTEX
  5
86
330
67
100
AcDbEntity
  8
Layer 1
 62
    18
420
  4325376
370
    35
100
AcDbVertex
100
AcDb2dVertex
 10
2.866111278533936
 20
5.576388378938039
 30
0.0
  0
VERTEX
  5
87
330
67
100
AcDbEntity
  8
Layer 1
 62
    18
420
  4325376
370
    35
100
AcDbVertex
100
AcDb2dVertex
 10
3.416111363304986
 20
5.298610601160261
 30
0.0
  0
VERTEX
  5
88
330
67
100
AcDbEntity
  8
Layer 1
 62
    18
420
  4325376
370
    35
100
AcDbVertex
100
AcDb2dVertex
 10
4.303611278533936
 20
5.622221542729272
 30
0.0
  0
VERTEX
  5
89
330
67
100
AcDbEntity
  8
Layer 1
 62
    18
420
  4325376
370
    35
100
AcDbVertex
100
AcDb2dVertex
 10
5.203611108991835
 20
6.6124995748202
 30
0.0
  0
VERTEX
  5
8A
330
67
100
AcDbEntity
  8
Layer 1
 62
    18
420
  4325376
370
    35
100
AcDbVertex
100
AcDb2dVertex
 10
4.523055553436279
 20
7.451388378938039
 30
0.0
  0
VERTEX
  5
8B
330
67
100
AcDbEntity
  8
Layer 1
 62
    18
420
  4325376
370
    35
100
AcDbVertex
100
AcDb2dVertex
 10
3.281388971540663
 20
6.798610601160261
 30
0.0
  0
VERTEX
  5
8C
330
67
100
AcDbEntity
  8
Layer 1
 62
    18
420
  4325376
370
    35
100
AcDbVertex
100
AcDb2dVertex
 10
3.529999997880723
 20
7.034721712271372
 30
0.0
  0
VERTEX
  5
8D
330
67
100
AcDbEntity
  8
Layer 1
 62
    18
420
  4325376
370
    35
100
AcDbVertex
100
AcDb2dVertex
 10
3.525833288828532
 20
8.004166199101341
 30
0.0
  0
VERTEX
  5
8E
330
67
100
AcDbEntity
  8
Layer 1
 62
    18
420
  4325376
370
    35
100
AcDbVertex
100
AcDb2dVertex
 10
3.249444484710693
 20
8.226388421323565
 30
0.0
  0
VERTEX
  5
8F
330
67
100
AcDbEntity
  8
Layer 1
 62
    18
420
  4325376
370
    35
100
AcDbVertex
100
AcDb2dVertex
 10
3.534166706932915
 20
8.444443934493595
 30
0.0
  0
VERTEX
  5
90
330
67
100
AcDbEntity
  8
Layer 1
 62
    18
420
  4325376
370
    35
100
AcDbVertex
100
AcDb2dVertex
 10
3.581388844384087
 20
9.027777267826927
 30
0.0
  0
VERTEX
  5
91
330
67
100
AcDbEntity
  8
Layer 1
 62
    18
420
  4325376
370
    35
100
AcDbVertex
100
AcDb2dVertex
 10
3.342499997880723
 20
9.281944082842932
 30
0.0
  0
VERTEX
  5
92
330
67
100
AcDbEntity
  8
Layer 1
 62
    18
420
  4325376
370
    35
100
AcDbVertex
100
AcDb2dVertex
 10
1.874444484710693
 20
9.27916634745068
 30
0.0
  0
SEQEND
  5
93
330
67
100
AcDbEntity
  8
Layer 1
 62
    18
420
  4325376
370
    35
  0
SPLINE
  5
94
330
63
100
AcDbEntity
  8
Layer 1
 62
    18
420
  4325376
370
    35
100
AcDbSpline
210
0.0
220
0.0
230
1.0
 70
    11
 71
     3
 72
    20
 73
    16
 74
     0
 42
0.0000000001
 43
0.0000000001
 12
1.0
 22
0.0
 32
0.0
 13
1.0
 23
0.0
 33
0.0
 40
0.0
 40
0.0
 40
0.0
 40
0.0
 40
1.0
 40
1.0
 40
1.0
 40
2.0
 40
2.0
 40
2.0
 40
3.0
 40
3.0
 40
3.0
 40
4.0
 40
4.0
 40
4.0
 40
5.0
 40
5.0
 40
5.0
 40
5.0
 10
2.695277690887451
 20
5.072221881813473
 30
0.0
 10
2.757777690887451
 20
5.033333162466684
 30
0.0
 10
2.952222135331895
 20
5.016666326257917
 30
0.0
 10
2.952222135331895
 20
5.016666326257917
 30
0.0
 10
2.952222135331895
 20
5.016666326257917
 30
0.0
 10
2.263333373599582
 20
5.016666326257917
 30
0.0
 10
2.263333373599582
 20
5.016666326257917
 30
0.0
 10
2.263333373599582
 20
5.016666326257917
 30
0.0
 10
2.438333458370633
 20
5.033333162466684
 30
0.0
 10
2.511944399939643
 20
5.069443934493594
 30
0.0
 10
2.585555341508653
 20
5.105554706520504
 30
0.0
 10
2.604999913109673
 20
5.159721712271372
 30
0.0
 10
2.604999913109673
 20
5.159721712271372
 30
0.0
 10
2.627650737762451
 20
5.123746150069766
 30
0.0
 10
2.658611880408393
 20
5.093737622102101
 30
0.0
 10
2.695277690887451
 20
5.072221881813473
 30
0.0
  0
HATCH
  5
95
330
63
100
AcDbEntity
  8
Layer 1
 62
    18
420
  4325376
100
AcDbHatch
 10
0.0
 20
0.0
 30
0.0
210
0.0
220
0.0
230
1.0
  2
SOLID
 70
     1
 71
     0
 91
        2
 92
        1
 93
       42
 72
     1
 10
1.874444484710693
 20
9.27916634745068
 11
1.641111108991835
 21
9.033332950539059
 72
     1
 10
1.641111108991835
 20
9.033332950539059
 11
1.68833335240682
 21
8.440277437369028
 72
     1
 10
1.68833335240682
 20
8.440277437369028
 11
1.953611108991835
 21
8.241666283872393
 72
     1
 10
1.953611108991835
 20
8.241666283872393
 11
1.703611108991835
 21
8.009721881813473
 72
     1
 10
1.703611108991835
 20
8.009721881813473
 11
1.682777775658501
 21
7.034721712271372
 72
     1
 10
1.682777775658501
 20
7.034721712271372
 11
1.936944484710693
 21
6.784721712271372
 72
     1
 10
1.936944484710693
 20
6.784721712271372
 11
0.7022222214274936
 21
7.47638863325119
 72
     1
 10
0.7022222214274936
 20
7.47638863325119
 11
0.0091666645473905
 21
6.634721881813473
 72
     1
 10
0.0091666645473904
 20
6.634721881813473
 11
0.9133333100212945
 21
5.637499829133351
 72
     1
 10
0.9133333100212945
 20
5.637499829133351
 11
1.79111115137736
 21
5.290277606911129
 72
     1
 10
1.79111115137736
 20
5.290277606911129
 11
2.352222283681233
 21
5.57777777645323
 72
     1
 10
2.352222283681233
 20
5.57777777645323
 11
2.050833331214057
 21
5.411111109786563
 72
     1
 10
2.050833331214057
 20
5.411111109786563
 11
2.014722241295709
 21
5.286111109786563
 72
     1
 10
2.014722241295709
 20
5.286111109786563
 11
2.193888929155138
 21
5.026388718022241
 72
     1
 10
2.193888929155138
 20
5.026388718022241
 11
1.866111172570122
 21
4.915277606911129
 72
     1
 10
1.866111172570122
 20
4.915277606911129
 11
1.686944484710693
 21
4.540277606911129
 72
     1
 10
1.686944484710693
 20
4.540277606911129
 11
1.796666728125678
 21
4.234722051355574
 72
     1
 10
1.796666728125678
 20
4.234722051355574
 11
1.563333458370632
 21
3.998610940244463
 72
     1
 10
1.563333458370632
 20
3.998610940244463
 11
1.586944527096218
 21
3.068055384688907
 72
     1
 10
1.586944527096218
 20
3.068055384688907
 11
2.148055659400092
 21
2.609722051355574
 72
     1
 10
2.148055659400092
 20
2.609722051355574
 11
3.102222389645047
 21
2.627777437369029
 72
     1
 10
3.102222389645047
 20
2.627777437369029
 11
3.631389141082764
 21
3.072221881813473
 72
     1
 10
3.631389141082764
 20
3.072221881813473
 11
3.657777945200602
 21
3.993055045604706
 72
     1
 10
3.657777945200602
 20
3.993055045604706
 11
3.411944442325168
 21
4.23888854848014
 72
     1
 10
3.411944442325168
 20
4.23888854848014
 11
3.531388971540663
 21
4.544444104035695
 72
     1
 10
3.531388971540663
 20
4.544444104035695
 11
3.364722304873996
 21
4.909721712271372
 72
     1
 10
3.364722304873996
 20
4.909721712271372
 11
3.021666791703966
 21
5.02499932050705
 72
     1
 10
3.021666791703966
 20
5.02499932050705
 11
3.213333500756157
 21
5.298610601160261
 72
     1
 10
3.213333500756157
 20
5.298610601160261
 11
3.161944654252794
 21
5.423610601160261
 72
     1
 10
3.161944654252794
 20
5.423610601160261
 11
2.866111278533936
 21
5.576388378938039
 72
     1
 10
2.866111278533936
 20
5.576388378938039
 11
3.416111363304986
 21
5.298610601160261
 72
     1
 10
3.416111363304986
 20
5.298610601160261
 11
4.303611278533936
 21
5.622221542729272
 72
     1
 10
4.303611278533936
 20
5.622221542729272
 11
5.203611108991835
 21
6.6124995748202
 72
     1
 10
5.203611108991835
 20
6.6124995748202
 11
4.523055553436279
 21
7.451388378938039
 72
     1
 10
4.523055553436279
 20
7.451388378938039
 11
3.281388971540663
 21
6.798610601160261
 72
     1
 10
3.281388971540663
 20
6.798610601160261
 11
3.529999997880723
 21
7.034721712271372
 72
     1
 10
3.529999997880723
 20
7.034721712271372
 11
3.525833288828532
 21
8.004166199101341
 72
     1
 10
3.525833288828532
 20
8.004166199101341
 11
3.249444484710693
 21
8.226388421323565
 72
     1
 10
3.249444484710693
 20
8.226388421323565
 11
3.534166706932915
 21
8.444443934493595
 72
     1
 10
3.534166706932915
 20
8.444443934493595
 11
3.581388844384087
 21
9.027777267826927
 72
     1
 10
3.581388844384087
 20
9.027777267826927
 11
3.342499997880723
 21
9.281944082842932
 72
     1
 10
3.342499997880723
 20
9.281944082842932
 11
1.874444484710693
 21
9.27916634745068
 97
        0
 92
        1
 93
        1
 72
     4
 94
        3
 73
     0
 74
     1
 95
       20
 96
       16
 40
0.0
 40
0.0
 40
0.0
 40
0.0
 40
1.0
 40
1.0
 40
1.0
 40
2.0
 40
2.0
 40
2.0
 40
3.0
 40
3.0
 40
3.0
 40
4.0
 40
4.0
 40
4.0
 40
5.0
 40
5.0
 40
5.0
 40
5.0
 10
2.695277690887451
 20
5.072221881813473
 10
2.757777690887451
 20
5.033333162466684
 10
2.952222135331895
 20
5.016666326257917
 10
2.952222135331895
 20
5.016666326257917
 10
2.952222135331895
 20
5.016666326257917
 10
2.263333373599582
 20
5.016666326257917
 10
2.263333373599582
 20
5.016666326257917
 10
2.263333373599582
 20
5.016666326257917
 10
2.438333458370633
 20
5.033333162466684
 10
2.511944399939643
 20
5.069443934493594
 10
2.585555341508653
 20
5.105554706520504
 10
2.604999913109673
 20
5.159721712271372
 10
2.604999913109673
 20
5.159721712271372
 10
2.627650737762451
 20
5.123746150069766
 10
2.658611880408393
 20
5.093737622102101
 10
2.695277690887451
 20
5.072221881813473
 97
        0
 97
        0
 75
     2
 76
     1
 98
        0
  0
POLYLINE
  5
96
330
63
100
AcDbEntity
  8
Layer 1
 62
   243
420
 16470906
370
    35
100
AcDb2dPolyline
 66
     1
 10
0.0
 20
0.0
 30
0.0
  0
VERTEX
  5
97
330
96
100
AcDbEntity
  8
Layer 1
 62
   243
420
 16470906
370
    35
100
AcDbVertex
100
AcDb2dVertex
 10
3.343888971540663
 20
9.284721924198998
 30
0.0
  0
VERTEX
  5
98
330
96
100
AcDbEntity
  8
Layer 1
 62
   243
420
 16470906
370
    35
100
AcDbVertex
100
AcDb2dVertex
 10
3.250833458370632
 20
8.229166368643442
 30
0.0
  0
VERTEX
  5
99
330
96
100
AcDbEntity
  8
Layer 1
 62
   243
420
 16470906
370
    35
100
AcDbVertex
100
AcDb2dVertex
 10
3.281388971540663
 20
6.80138854848014
 30
0.0
  0
VERTEX
  5
9A
330
96
100
AcDbEntity
  8
Layer 1
 62
   243
420
 16470906
370
    35
100
AcDbVertex
100
AcDb2dVertex
 10
2.864722304873996
 20
5.579166326257917
 30
0.0
  0
VERTEX
  5
9B
330
96
100
AcDbEntity
  8
Layer 1
 62
   243
420
 16470906
370
    35
100
AcDbVertex
100
AcDb2dVertex
 10
3.020277818044026
 20
5.027777267826928
 30
0.0
  0
VERTEX
  5
9C
330
96
100
AcDbEntity
  8
Layer 1
 62
   243
420
 16470906
370
    35
100
AcDbVertex
100
AcDb2dVertex
 10
3.409166706932915
 20
4.240277098284827
 30
0.0
  0
VERTEX
  5
9D
330
96
100
AcDbEntity
  8
Layer 1
 62
   243
420
 16470906
370
    35
100
AcDbVertex
100
AcDb2dVertex
 10
3.359166622161865
 20
2.854166156715817
 30
0.0
  0
VERTEX
  5
9E
330
96
100
AcDbEntity
  8
Layer 1
 62
   243
420
 16470906
370
    35
100
AcDbVertex
100
AcDb2dVertex
 10
1.857777754465739
 20
2.854166156715817
 30
0.0
  0
VERTEX
  5
9F
330
96
100
AcDbEntity
  8
Layer 1
 62
   243
420
 16470906
370
    35
100
AcDbVertex
100
AcDb2dVertex
 10
1.795277754465739
 20
4.236110601160261
 30
0.0
  0
VERTEX
  5
A0
330
96
100
AcDbEntity
  8
Layer 1
 62
   243
420
 16470906
370
    35
100
AcDbVertex
100
AcDb2dVertex
 10
2.192499955495198
 20
5.027777267826928
 30
0.0
  0
VERTEX
  5
A1
330
96
100
AcDbEntity
  8
Layer 1
 62
   243
420
 16470906
370
    35
100
AcDbVertex
100
AcDb2dVertex
 10
2.350833310021294
 20
5.579166326257917
 30
0.0
  0
VERTEX
  5
A2
330
96
100
AcDbEntity
  8
Layer 1
 62
   243
420
 16470906
370
    35
100
AcDbVertex
100
AcDb2dVertex
 10
1.934166643354628
 20
6.78749965959125
 30
0.0
  0
VERTEX
  5
A3
330
96
100
AcDbEntity
  8
Layer 1
 62
   243
420
 16470906
370
    35
100
AcDbVertex
100
AcDb2dVertex
 10
1.949444399939643
 20
8.243055257532331
 30
0.0
  0
VERTEX
  5
A4
330
96
100
AcDbEntity
  8
Layer 1
 62
   243
420
 16470906
370
    35
100
AcDbVertex
100
AcDb2dVertex
 10
1.871666643354628
 20
9.280555215146807
 30
0.0
  0
SEQEND
  5
A5
330
96
100
AcDbEntity
  8
Layer 1
 62
   243
420
 16470906
370
    35
  0
POLYLINE
  5
A6
330
63
100
AcDbEntity
  8
Layer 1
 62
   243
420
 16470906
370
    35
100
AcDb2dPolyline
 66
     1
 10
0.0
 20
0.0
 30
0.0
  0
VERTEX
  5
A7
330
A6
100
AcDbEntity
  8
Layer 1
 62
   243
420
 16470906
370
    35
100
AcDbVertex
100
AcDb2dVertex
 10
1.786944442325168
 20
4.234722051355574
 30
0.0
  0
VERTEX
  5
A8
330
A6
100
AcDbEntity
  8
Layer 1
 62
   243
420
 16470906
370
    35
100
AcDbVertex
100
AcDb2dVertex
 10
3.410555468665229
 20
4.234722051355574
 30
0.0
  0
SEQEND
  5
A9
330
A6
100
AcDbEntity
  8
Layer 1
 62
   243
420
 16470906
370
    35
  0
POLYLINE
  5
AA
330
63
100
AcDbEntity
  8
Layer 1
 62
   243
420
 16470906
370
    35
100
AcDb2dPolyline
 66
     1
 10
0.0
 20
0.0
 30
0.0
  0
VERTEX
  5
AB
330
AA
100
AcDbEntity
  8
Layer 1
 62
   243
420
 16470906
370
    35
100
AcDbVertex
100
AcDb2dVertex
 10
2.17722209294637
 20
5.026388718022241
 30
0.0
  0
VERTEX
  5
AC
330
AA
100
AcDbEntity
  8
Layer 1
 62
   243
420
 16470906
370
    35
100
AcDbVertex
100
AcDb2dVertex
 10
3.042499913109673
 20
5.026388718022241
 30
0.0
  0
SEQEND
  5
AD
330
AA
100
AcDbEntity
  8
Layer 1
 62
   243
420
 16470906
370
    35
  0
POLYLINE
  5
AE
330
63
100
AcDbEntity
  8
Layer 1
 62
   243
420
 16470906
370
    35
100
AcDb2dPolyline
 66
     1
 10
0.0
 20
0.0
 30
0.0
  0
VERTEX
  5
AF
330
AE
100
AcDbEntity
  8
Layer 1
 62
   243
420
 16470906
370
    35
100
AcDbVertex
100
AcDb2dVertex
 10
2.341111024220784
 20
5.57638880279329
 30
0.0
  0
VERTEX
  5
B0
330
AE
100
AcDbEntity
  8
Layer 1
 62
   243
420
 16470906
370
    35
100
AcDbVertex
100
AcDb2dVertex
 10
2.878610981835259
 20
5.57638880279329
 30
0.0
  0
SEQEND
  5
B1
330
AE
100
AcDbEntity
  8
Layer 1
 62
   243
420
 16470906
370
    35
  0
POLYLINE
  5
B2
330
63
100
AcDbEntity
  8
Layer 1
 62
   243
420
 16470906
370
    35
100
AcDb2dPolyline
 66
     1
 10
0.0
 20
0.0
 30
0.0
  0
VERTEX
  5
B3
330
B2
100
AcDbEntity
  8
Layer 1
 62
   243
420
 16470906
370
    35
100
AcDbVertex
100
AcDb2dVertex
 10
1.952222135331896
 20
8.243055469459957
 30
0.0
  0
VERTEX
  5
B4
330
B2
100
AcDbEntity
  8
Layer 1
 62
   243
420
 16470906
370
    35
100
AcDbVertex
100
AcDb2dVertex
 10
3.253610981835259
 20
8.243055469459957
 30
0.0
  0
SEQEND
  5
B5
330
B2
100
AcDbEntity
  8
Layer 1
 62
   243
420
 16470906
370
    35
  0
POLYLINE
  5
B6
330
63
100
AcDbEntity
  8
Layer 1
 62
   243
420
 16470906
370
    35
100
AcDb2dPolyline
 66
     1
 10
0.0
 20
0.0
 30
0.0
  0
VERTEX
  5
B7
330
B6
100
AcDbEntity
  8
Layer 1
 62
   243
420
 16470906
370
    35
100
AcDbVertex
100
AcDb2dVertex
 10
4.304999828338623
 20
5.623610940244462
 30
0.0
  0
VERTEX
  5
B8
330
B6
100
AcDbEntity
  8
Layer 1
 62
   243
420
 16470906
370
    35
100
AcDbVertex
100
AcDb2dVertex
 10
3.28416649500529
 20
6.797222051355574
 30
0.0
  0
VERTEX
  5
B9
330
B6
100
AcDbEntity
  8
Layer 1
 62
   243
420
 16470906
370
    35
100
AcDbVertex
100
AcDb2dVertex
 10
1.92861106660631
 20
6.797222051355574
 30
0.0
  0
VERTEX
  5
BA
330
B6
100
AcDbEntity
  8
Layer 1
 62
   243
420
 16470906
370
    35
100
AcDbVertex
100
AcDb2dVertex
 10
0.9133333365122477
 20
5.637499829133351
 30
0.0
  0
SEQEND
  5
BB
330
B6
100
AcDbEntity
  8
Layer 1
 62
   243
420
 16470906
370
    35
  0
ENDBLK
  5
66
330
63
100
AcDbEntity
  8
0
100
AcDbBlockEnd
  0
BLOCK
  5
BE
330
BC
100
AcDbEntity
  8
0
100
AcDbBlockBegin
  2
block 6
 70
     0
 10
0.0
 20
0.0
 30
0.0
  3
block 6
  1

  0
SPLINE
  5
C0
330
BC
100
AcDbEntity
  8
Layer 1
 62
     7
420
 16777215
370
    35
100
AcDbSpline
210
0.0
220
0.0
230
1.0
 70
    11
 71
     3
 72
   248
 73
   244
 74
     0
 42
0.0000000001
 43
0.0000000001
 12
1.0
 22
0.0
 32
0.0
 13
1.0
 23
0.0
 33
0.0
 40
0.0
 40
0.0
 40
0.0
 40
0.0
 40
1.0
 40
1.0
 40
1.0
 40
2.0
 40
2.0
 40
2.0
 40
3.0
 40
3.0
 40
3.0
 40
4.0
 40
4.0
 40
4.0
 40
5.0
 40
5.0
 40
5.0
 40
6.0
 40
6.0
 40
6.0
 40
7.0
 40
7.0
 40
7.0
 40
8.0
 40
8.0
 40
8.0
 40
9.0
 40
9.0
 40
9.0
 40
10.0
 40
10.0
 40
10.0
 40
11.0
 40
11.0
 40
11.0
 40
12.0
 40
12.0
 40
12.0
 40
13.0
 40
13.0
 40
13.0
 40
14.0
 40
14.0
 40
14.0
 40
15.0
 40
15.0
 40
15.0
 40
16.0
 40
16.0
 40
16.0
 40
17.0
 40
17.0
 40
17.0
 40
18.0
 40
18.0
 40
18.0
 40
19.0
 40
19.0
 40
19.0
 40
20.0
 40
20.0
 40
20.0
 40
21.0
 40
21.0
 40
21.0
 40
22.0
 40
22.0
 40
22.0
 40
23.0
 40
23.0
 40
23.0
 40
24.0
 40
24.0
 40
24.0
 40
25.0
 40
25.0
 40
25.0
 40
26.0
 40
26.0
 40
26.0
 40
27.0
 40
27.0
 40
27.0
 40
28.0
 40
28.0
 40
28.0
 40
29.0
 40
29.0
 40
29.0
 40
30.0
 40
30.0
 40
30.0
 40
31.0
 40
31.0
 40
31.0
 40
32.0
 40
32.0
 40
32.0
 40
33.0
 40
33.0
 40
33.0
 40
34.0
 40
34.0
 40
34.0
 40
35.0
 40
35.0
 40
35.0
 40
36.0
 40
36.0
 40
36.0
 40
37.0
 40
37.0
 40
37.0
 40
38.0
 40
38.0
 40
38.0
 40
39.0
 40
39.0
 40
39.0
 40
40.0
 40
40.0
 40
40.0
 40
41.0
 40
41.0
 40
41.0
 40
42.0
 40
42.0
 40
42.0
 40
43.0
 40
43.0
 40
43.0
 40
44.0
 40
44.0
 40
44.0
 40
45.0
 40
45.0
 40
45.0
 40
46.0
 40
46.0
 40
46.0
 40
47.0
 40
47.0
 40
47.0
 40
48.0
 40
48.0
 40
48.0
 40
49.0
 40
49.0
 40
49.0
 40
50.0
 40
50.0
 40
50.0
 40
51.0
 40
51.0
 40
51.0
 40
52.0
 40
52.0
 40
52.0
 40
53.0
 40
53.0
 40
53.0
 40
54.0
 40
54.0
 40
54.0
 40
55.0
 40
55.0
 40
55.0
 40
56.0
 40
56.0
 40
56.0
 40
57.0
 40
57.0
 40
57.0
 40
58.0
 40
58.0
 40
58.0
 40
59.0
 40
59.0
 40
59.0
 40
60.0
 40
60.0
 40
60.0
 40
61.0
 40
61.0
 40
61.0
 40
62.0
 40
62.0
 40
62.0
 40
63.0
 40
63.0
 40
63.0
 40
64.0
 40
64.0
 40
64.0
 40
65.0
 40
65.0
 40
65.0
 40
66.0
 40
66.0
 40
66.0
 40
67.0
 40
67.0
 40
67.0
 40
68.0
 40
68.0
 40
68.0
 40
69.0
 40
69.0
 40
69.0
 40
70.0
 40
70.0
 40
70.0
 40
71.0
 40
71.0
 40
71.0
 40
72.0
 40
72.0
 40
72.0
 40
73.0
 40
73.0
 40
73.0
 40
74.0
 40
74.0
 40
74.0
 40
75.0
 40
75.0
 40
75.0
 40
76.0
 40
76.0
 40
76.0
 40
77.0
 40
77.0
 40
77.0
 40
78.0
 40
78.0
 40
78.0
 40
79.0
 40
79.0
 40
79.0
 40
80.0
 40
80.0
 40
80.0
 40
81.0
 40
81.0
 40
81.0
 40
81.0
 10
8.689722220102945
 20
1.252777437369029
 30
0.0
 10
8.689722220102945
 20
1.252777437369029
 30
0.0
 10
8.21055555343628
 20
2.308332992924584
 30
0.0
 10
8.21055555343628
 20
2.308332992924584
 30
0.0
 10
8.21055555343628
 20
2.308332992924584
 30
0.0
 10
7.888333161671956
 20
2.418055554231008
 30
0.0
 10
7.888333161671956
 20
2.418055554231008
 30
0.0
 10
7.888333161671956
 20
2.418055554231008
 30
0.0
 10
7.595277945200602
 20
2.55138854848014
 30
0.0
 10
7.595277945200602
 20
2.55138854848014
 30
0.0
 10
7.595277945200602
 20
2.55138854848014
 30
0.0
 10
6.373055722978379
 20
2.111110601160261
 30
0.0
 10
6.373055722978379
 20
2.111110601160261
 30
0.0
 10
6.373055722978379
 20
2.111110601160261
 30
0.0
 10
6.241111278533936
 20
1.816665987173716
 30
0.0
 10
6.241111278533936
 20
1.816665987173716
 30
0.0
 10
6.241111278533936
 20
1.816665987173716
 30
0.0
 10
5.914722389645046
 20
1.819443934493595
 30
0.0
 10
5.914722389645046
 20
1.819443934493595
 30
0.0
 10
5.914722389645046
 20
1.819443934493595
 30
0.0
 10
5.557777775658502
 20
1.472221712271372
 30
0.0
 10
5.557777775658502
 20
1.472221712271372
 30
0.0
 10
5.557777775658502
 20
1.472221712271372
 30
0.0
 10
5.560555722978379
 20
1.183332992924584
 30
0.0
 10
5.560555722978379
 20
1.183332992924584
 30
0.0
 10
5.560555722978379
 20
1.183332992924584
 30
0.0
 10
5.475833415985107
 20
2.094443764951494
 30
0.0
 10
5.475833415985107
 20
2.094443764951494
 30
0.0
 10
5.475833415985107
 20
2.099999659591251
 30
0.0
 10
5.474444442325168
 20
2.104166156715817
 30
0.0
 10
5.474444442325168
 20
2.10972120364507
 30
0.0
 10
5.474444442325168
 20
2.10972120364507
 30
0.0
 10
5.474444442325168
 20
3.823610855473412
 30
0.0
 10
5.474444442325168
 20
3.823610855473412
 30
0.0
 10
5.474680529700385
 20
3.833846959802839
 30
0.0
 10
5.475608772701687
 20
3.844055513540904
 30
0.0
 10
5.477222389645046
 20
3.854166580571068
 30
0.0
 10
5.477222389645046
 20
3.854166580571068
 30
0.0
 10
5.770278029971652
 20
5.249999913904402
 30
0.0
 10
5.770278029971652
 20
5.249999913904402
 30
0.0
 10
5.786923249562581
 20
5.330604890982309
 30
0.0
 10
5.735073460472955
 20
5.409441967805226
 30
0.0
 10
5.654468483395046
 20
5.426087187396155
 30
0.0
 10
5.644590536753336
 20
5.428126778867509
 30
0.0
 10
5.634531180063883
 20
5.429158866405487
 30
0.0
 10
5.624444696638319
 20
5.429166495800018
 30
0.0
 10
5.624444696638319
 20
5.429166495800018
 30
0.0
 10
5.234166834089491
 20
5.429166495800018
 30
0.0
 10
5.234166834089491
 20
5.429166495800018
 30
0.0
 10
5.16331222322252
 20
5.429165648089515
 30
0.0
 10
5.102292749616835
 20
5.379188027646806
 30
0.0
 10
5.088333500756158
 20
5.309721966584523
 30
0.0
 10
5.088333500756158
 20
5.309721966584523
 30
0.0
 10
5.067500167422824
 20
5.206944273577796
 30
0.0
 10
5.067500167422824
 20
5.206944273577796
 30
0.0
 10
5.053540918562147
 20
5.137478212515513
 30
0.0
 10
4.992521444956461
 20
5.087500592072804
 30
0.0
 10
4.921666834089491
 20
5.087499744362301
 30
0.0
 10
4.921666834089491
 20
5.087499744362301
 30
0.0
 10
4.800833331214057
 20
5.087499744362301
 30
0.0
 10
4.800833331214057
 20
5.087499744362301
 30
0.0
 10
4.731307930416531
 20
5.087771859433915
 30
0.0
 10
4.671282397376166
 20
5.13625454240375
 30
0.0
 10
4.656388971540663
 20
5.204166326257917
 30
0.0
 10
4.656388971540663
 20
5.204166326257917
 30
0.0
 10
4.631389141082764
 20
5.31249949004915
 30
0.0
 10
4.631389141082764
 20
5.31249949004915
 30
0.0
 10
4.61649571524726
 20
5.380411273903317
 30
0.0
 10
4.556470182206895
 20
5.428893956873152
 30
0.0
 10
4.486944781409369
 20
5.429166071944766
 30
0.0
 10
4.486944781409369
 20
5.429166071944766
 30
0.0
 10
4.081388844384088
 20
5.429166071944766
 30
0.0
 10
4.081388844384088
 20
5.429166071944766
 30
0.0
 10
3.999619960784912
 20
5.429166071944766
 30
0.0
 10
3.933333237965901
 20
5.362879349125756
 30
0.0
 10
3.933333449893528
 20
5.281110465526581
 30
0.0
 10
3.933333449893528
 20
5.270177119308047
 30
0.0
 10
3.934544404347737
 20
5.259277257654402
 30
0.0
 10
3.936944484710693
 20
5.248610516389211
 30
0.0
 10
3.936944484710693
 20
5.248610516389211
 30
0.0
 10
4.241111278533936
 20
3.854166156715817
 30
0.0
 10
4.241111278533936
 20
3.854166156715817
 30
0.0
 10
4.243472152286105
 20
3.843691845734914
 30
0.0
 10
4.244406753116183
 20
3.832946691248152
 30
0.0
 10
4.243889225853814
 20
3.822221881813473
 30
0.0
 10
4.243889225853814
 20
3.822221881813473
 30
0.0
 10
4.243889225853814
 20
2.102777606911129
 30
0.0
 10
4.243889225853814
 20
2.102777606911129
 30
0.0
 10
4.243889225853814
 20
2.102777606911129
 30
0.0
 10
4.156388971540663
 20
1.162499659591251
 30
0.0
 10
4.156388971540663
 20
1.162499659591251
 30
0.0
 10
4.156388971540663
 20
1.162499659591251
 30
0.0
 10
4.160555468665229
 20
1.476388209395938
 30
0.0
 10
4.160555468665229
 20
1.476388209395938
 30
0.0
 10
4.160555468665229
 20
1.476388209395938
 30
0.0
 10
3.803611066606309
 20
1.82361043161816
 30
0.0
 10
3.803611066606309
 20
1.82361043161816
 30
0.0
 10
3.803611066606309
 20
1.82361043161816
 30
0.0
 10
3.477222177717421
 20
1.820832484298282
 30
0.0
 10
3.477222177717421
 20
1.820832484298282
 30
0.0
 10
3.477222177717421
 20
1.820832484298282
 30
0.0
 10
3.345277733272976
 20
2.115277098284827
 30
0.0
 10
3.345277733272976
 20
2.115277098284827
 30
0.0
 10
3.345277733272976
 20
2.115277098284827
 30
0.0
 10
2.123055511050754
 20
2.555555045604706
 30
0.0
 10
2.123055511050754
 20
2.555555045604706
 30
0.0
 10
2.123055511050754
 20
2.555555045604706
 30
0.0
 10
1.817499955495198
 20
2.416666156715817
 30
0.0
 10
1.817499955495198
 20
2.416666156715817
 30
0.0
 10
1.817499955495198
 20
2.416666156715817
 30
0.0
 10
1.817499955495198
 20
2.416666156715817
 30
0.0
 10
1.817499955495198
 20
2.416666156715817
 30
0.0
 10
1.817499955495198
 20
2.416666156715817
 30
0.0
 10
1.502222220102946
 20
2.309721542729271
 30
0.0
 10
1.502222220102946
 20
2.309721542729271
 30
0.0
 10
1.502222220102946
 20
2.309721542729271
 30
0.0
 10
1.023055553436279
 20
1.254165987173716
 30
0.0
 10
1.023055553436279
 20
1.254165987173716
 30
0.0
 10
1.023055553436279
 20
1.254165987173716
 30
0.0
 10
1.148055553436279
 20
0.9347215427292718
 30
0.0
 10
1.148055553436279
 20
0.9347215427292718
 30
0.0
 10
1.148055553436279
 20
0.9347215427292718
 30
0.0
 10
1.154999997880724
 20
0.9513883789380391
 30
0.0
 10
1.154999997880724
 20
0.9513883789380391
 30
0.0
 10
1.154999997880724
 20
0.9513883789380391
 30
0.0
 10
1.910555574629042
 20
0.6833329929245843
 30
0.0
 10
1.910555574629042
 20
0.6833329929245843
 30
0.0
 10
1.977213700612386
 20
0.6600133246845669
 30
0.0
 10
2.050661245981852
 20
0.6913184258672925
 30
0.0
 10
2.079999976687961
 20
0.7555553846889072
 30
0.0
 10
2.079999976687961
 20
0.7555553846889072
 30
0.0
 10
2.128611087799072
 20
0.8638885484801397
 30
0.0
 10
2.128611087799072
 20
0.8638885484801397
 30
0.0
 10
2.128611087799072
 20
0.8638885484801397
 30
0.0
 10
2.160555574629042
 20
0.9333329929245843
 30
0.0
 10
2.160555574629042
 20
0.9333329929245843
 30
0.0
 10
2.160555574629042
 20
0.9333329929245843
 30
0.0
 10
2.377222220102946
 20
0.7708328233824836
 30
0.0
 10
2.377222220102946
 20
0.7708328233824836
 30
0.0
 10
2.538333415985107
 20
0.6486107707023621
 30
0.0
 10
2.741111066606309
 20
0.6291659871737162
 30
0.0
 10
2.935555511050754
 20
0.6027776069111294
 30
0.0
 10
2.964722262488471
 20
0.5986111097865634
 30
0.0
 10
3.316110981835259
 20
0.5666668348842197
 30
0.0
 10
3.318888929155138
 20
0.5513885484801399
 30
0.0
 10
3.318888929155138
 20
0.5513885484801399
 30
0.0
 10
3.346666706932915
 20
0.3069444431198968
 30
0.0
 10
3.346666706932915
 20
0.3069444431198968
 30
0.0
 10
3.35495392481486
 20
0.2359910739792718
 30
0.0
 10
3.403759161631266
 20
0.1763402289814419
 30
0.0
 10
3.471666706932915
 20
0.154166665342119
 30
0.0
 10
3.471666706932915
 20
0.154166665342119
 30
0.0
 10
3.74666674931844
 20
0.0625003377596537
 30
0.0
 10
3.74666674931844
 20
0.0625003377596537
 30
0.0
 10
3.824068652258979
 20
0.0368587904506259
 30
0.0
 10
3.907602045271132
 20
0.0788179172409905
 30
0.0
 10
3.933244016435411
 20
0.1562198201815287
 30
0.0
 10
3.934083885616726
 20
0.1587553222974141
 30
0.0
 10
3.934854666392008
 20
0.1613120171758864
 30
0.0
 10
3.93555572297838
 20
0.1638890571064419
 30
0.0
 10
3.931106938256157
 20
0.0817806654506259
 30
0.0
 10
3.994062582651774
 20
0.0116114285257128
 30
0.0
 10
4.076171186235216
 20
0.0071626438034905
 30
0.0
 10
4.078833844926622
 20
0.0070185330179003
 30
0.0
 10
4.081500106387668
 20
0.0069456299146016
 30
0.0
 10
4.084166791703966
 20
0.0069447822040982
 30
0.0
 10
4.084166791703966
 20
0.0069447822040982
 30
0.0
 10
4.49666674931844
 20
0.0069447822040982
 30
0.0
 10
4.49666674931844
 20
0.0069447822040982
 30
0.0
 10
4.566359996795654
 20
0.0067421793937683
 30
0.0
 10
4.62664704852634
 20
0.0554355184237162
 30
0.0
 10
4.641111108991835
 20
0.1236117879549662
 30
0.0
 10
4.641111108991835
 20
0.1236117879549662
 30
0.0
 10
4.663333415985107
 20
0.2250005073017544
 30
0.0
 10
4.663333415985107
 20
0.2250005073017544
 30
0.0
 10
4.678226417965359
 20
0.292912291155921
 30
0.0
 10
4.738252374860975
 20
0.3413953979810079
 30
0.0
 10
4.807777775658502
 20
0.3416675130526224
 30
0.0
 10
4.807777775658502
 20
0.3416675130526224
 30
0.0
 10
4.916110939449734
 20
0.3416675130526224
 30
0.0
 10
4.916110939449734
 20
0.3416675130526224
 30
0.0
 10
4.986409028371175
 20
0.3414318495326572
 30
0.0
 10
5.047076278262668
 20
0.2923205892244974
 30
0.0
 10
5.061944272783067
 20
0.2236119574970669
 30
0.0
 10
5.061944272783067
 20
0.2236119574970669
 30
0.0
 10
5.081388632456461
 20
0.1319456299146016
 30
0.0
 10
5.081388632456461
 20
0.1319456299146016
 30
0.0
 10
5.095717059241401
 20
0.0634819865226746
 30
0.0
 10
5.155887126922607
 20
0.014304604795244
 30
0.0
 10
5.225832992129855
 20
0.0138900743590461
 30
0.0
 10
5.225832992129855
 20
0.0138900743590461
 30
0.0
 10
5.629999743567573
 20
0.0125015245543586
 30
0.0
 10
5.629999743567573
 20
0.0125015245543586
 30
0.0
 10
5.711228635576036
 20
0.0118004679679871
 30
0.0
 10
5.777645905812581
 20
0.0770809584193759
 30
0.0
 10
5.778346962398953
 20
0.1583102742830912
 30
0.0
 10
5.778403335147433
 20
0.164817300107744
 30
0.0
 10
5.778027375539144
 20
0.1713217828008864
 30
0.0
 10
5.777222050560845
 20
0.1777796414163378
 30
0.0
 10
5.777222050560845
 20
0.1777796414163378
 30
0.0
 10
5.779999997880723
 20
0.1666686998473273
 30
0.0
 10
5.779999997880723
 20
0.1666686998473273
 30
0.0
 10
5.799172242482503
 20
0.0859963297843933
 30
0.0
 10
5.880112489064534
 20
0.036140779654185
 30
0.0
 10
5.96078528298272
 20
0.0553126004007128
 30
0.0
 10
5.964449087778727
 20
0.0561840467982822
 30
0.0
 10
5.968078560299343
 20
0.0571919745869107
 30
0.0
 10
5.971666495005289
 20
0.0583355360560947
 30
0.0
 10
5.971666495005289
 20
0.0583355360560947
 30
0.0
 10
6.246666325463188
 20
0.15000186363856
 30
0.0
 10
6.246666325463188
 20
0.15000186363856
 30
0.0
 10
6.314573870764838
 20
0.1721754272778829
 30
0.0
 10
6.363379107581244
 20
0.2318262722757127
 30
0.0
 10
6.371666325463188
 20
0.3027796414163377
 30
0.0
 10
6.371666325463188
 20
0.3027796414163377
 30
0.0
 10
6.399444103240967
 20
0.5472237467765808
 30
0.0
 10
6.399444103240967
 20
0.5472237467765808
 30
0.0
 10
6.400833076900906
 20
0.5625011854701572
 30
0.0
 10
6.753610769907633
 20
0.5944463080830044
 30
0.0
 10
6.78277752134535
 20
0.5986128052075703
 30
0.0
 10
6.977221965789795
 20
0.6250020331806606
 30
0.0
 10
7.179999828338623
 20
0.644445968998803
 30
0.0
 10
7.341111024220784
 20
0.7666680216789246
 30
0.0
 10
7.341111024220784
 20
0.7666680216789246
 30
0.0
 10
7.557777775658501
 20
0.9291681912210252
 30
0.0
 10
7.557777775658501
 20
0.9291681912210252
 30
0.0
 10
7.557777775658501
 20
0.9291681912210252
 30
0.0
 10
7.589722050560844
 20
0.8597237467765808
 30
0.0
 10
7.589722050560844
 20
0.8597237467765808
 30
0.0
 10
7.589722050560844
 20
0.8597237467765808
 30
0.0
 10
7.638333161671956
 20
0.7513905829853481
 30
0.0
 10
7.638333161671956
 20
0.7513905829853481
 30
0.0
 10
7.667671998341878
 20
0.6871536241637336
 30
0.0
 10
7.741119755638969
 20
0.6558476752705044
 30
0.0
 10
7.807777775658501
 20
0.6791681912210252
 30
0.0
 10
7.807777775658501
 20
0.6791681912210252
 30
0.0
 10
8.559166325463188
 20
0.9458350274297925
 30
0.0
 10
8.559166325463188
 20
0.9458350274297925
 30
0.0
 10
8.559166325463188
 20
0.9458350274297925
 30
0.0
 10
8.564722220102945
 20
0.9347240858607822
 30
0.0
 10
8.564722220102945
 20
0.9347240858607822
 30
0.0
 10
8.564722220102945
 20
0.9347240858607822
 30
0.0
 10
8.689722220102945
 20
1.252777437369029
 30
0.0
 10
8.689722220102945
 20
1.252777437369029
 30
0.0
  0
POLYLINE
  5
C1
330
BC
100
AcDbEntity
  8
Layer 1
 62
   243
420
 16470906
370
    35
100
AcDb2dPolyline
 66
     1
 10
0.0
 20
0.0
 30
0.0
  0
VERTEX
  5
C2
330
C1
100
AcDbEntity
  8
Layer 1
 62
   243
420
 16470906
370
    35
100
AcDbVertex
100
AcDb2dVertex
 10
5.467499997880723
 20
2.099999659591251
 30
0.0
  0
VERTEX
  5
C3
330
C1
100
AcDbEntity
  8
Layer 1
 62
   243
420
 16470906
370
    35
100
AcDbVertex
100
AcDb2dVertex
 10
4.231388886769612
 20
2.099999659591251
 30
0.0
  0
SEQEND
  5
C4
330
C1
100
AcDbEntity
  8
Layer 1
 62
   243
420
 16470906
370
    35
  0
POLYLINE
  5
C5
330
BC
100
AcDbEntity
  8
Layer 1
 62
   243
420
 16470906
370
    35
100
AcDb2dPolyline
 66
     1
 10
0.0
 20
0.0
 30
0.0
  0
VERTEX
  5
C6
330
C5
100
AcDbEntity
  8
Layer 1
 62
   243
420
 16470906
370
    35
100
AcDbVertex
100
AcDb2dVertex
 10
4.231388886769612
 20
3.836110770702362
 30
0.0
  0
VERTEX
  5
C7
330
C5
100
AcDbEntity
  8
Layer 1
 62
   243
420
 16470906
370
    35
100
AcDbVertex
100
AcDb2dVertex
 10
5.474444442325168
 20
3.836110770702362
 30
0.0
  0
SEQEND
  5
C8
330
C5
100
AcDbEntity
  8
Layer 1
 62
   243
420
 16470906
370
    35
  0
POLYLINE
  5
C9
330
BC
100
AcDbEntity
  8
Layer 1
 62
   243
420
 16470906
370
    35
100
AcDb2dPolyline
 66
     1
 10
0.0
 20
0.0
 30
0.0
  0
VERTEX
  5
CA
330
C9
100
AcDbEntity
  8
Layer 1
 62
   243
420
 16470906
370
    35
100
AcDbVertex
100
AcDb2dVertex
 10
1.154999997880724
 20
0.9472218818134731
 30
0.0
  0
VERTEX
  5
CB
330
C9
100
AcDbEntity
  8
Layer 1
 62
   243
420
 16470906
370
    35
100
AcDbVertex
100
AcDb2dVertex
 10
1.800833331214057
 20
2.398610770702362
 30
0.0
  0
VERTEX
  5
CC
330
C9
100
AcDbEntity
  8
Layer 1
 62
   243
420
 16470906
370
    35
100
AcDbVertex
100
AcDb2dVertex
 10
3.474444442325168
 20
1.815277437369029
 30
0.0
  0
VERTEX
  5
CD
330
C9
100
AcDbEntity
  8
Layer 1
 62
   243
420
 16470906
370
    35
100
AcDbVertex
100
AcDb2dVertex
 10
4.161944442325168
 20
1.162499659591251
 30
0.0
  0
VERTEX
  5
CE
330
C9
100
AcDbEntity
  8
Layer 1
 62
   243
420
 16470906
370
    35
100
AcDbVertex
100
AcDb2dVertex
 10
5.557777775658502
 20
1.162499659591251
 30
0.0
  0
VERTEX
  5
CF
330
C9
100
AcDbEntity
  8
Layer 1
 62
   243
420
 16470906
370
    35
100
AcDbVertex
100
AcDb2dVertex
 10
6.252222220102945
 20
1.822221881813473
 30
0.0
  0
VERTEX
  5
D0
330
C9
100
AcDbEntity
  8
Layer 1
 62
   243
420
 16470906
370
    35
100
AcDbVertex
100
AcDb2dVertex
 10
7.898055553436279
 20
2.398610770702362
 30
0.0
  0
VERTEX
  5
D1
330
C9
100
AcDbEntity
  8
Layer 1
 62
   243
420
 16470906
370
    35
100
AcDbVertex
100
AcDb2dVertex
 10
8.5577777756585
 20
0.9611107707023621
 30
0.0
  0
SEQEND
  5
D2
330
C9
100
AcDbEntity
  8
Layer 1
 62
   243
420
 16470906
370
    35
  0
POLYLINE
  5
D3
330
BC
100
AcDbEntity
  8
Layer 1
 62
   243
420
 16470906
370
    35
100
AcDb2dPolyline
 66
     1
 10
0.0
 20
0.0
 30
0.0
  0
VERTEX
  5
D4
330
D3
100
AcDbEntity
  8
Layer 1
 62
   243
420
 16470906
370
    35
100
AcDbVertex
100
AcDb2dVertex
 10
5.557777775658502
 20
1.162499659591251
 30
0.0
  0
VERTEX
  5
D5
330
D3
100
AcDbEntity
  8
Layer 1
 62
   243
420
 16470906
370
    35
100
AcDbVertex
100
AcDb2dVertex
 10
5.773055553436279
 20
0.1694441040356954
 30
0.0
  0
SEQEND
  5
D6
330
D3
100
AcDbEntity
  8
Layer 1
 62
   243
420
 16470906
370
    35
  0
POLYLINE
  5
D7
330
BC
100
AcDbEntity
  8
Layer 1
 62
   243
420
 16470906
370
    35
100
AcDb2dPolyline
 66
     1
 10
0.0
 20
0.0
 30
0.0
  0
VERTEX
  5
D8
330
D7
100
AcDbEntity
  8
Layer 1
 62
   243
420
 16470906
370
    35
100
AcDbVertex
100
AcDb2dVertex
 10
4.161944442325168
 20
1.162499659591251
 30
0.0
  0
VERTEX
  5
D9
330
D7
100
AcDbEntity
  8
Layer 1
 62
   243
420
 16470906
370
    35
100
AcDbVertex
100
AcDb2dVertex
 10
3.94666666454739
 20
0.2041663262579176
 30
0.0
  0
SEQEND
  5
DA
330
D7
100
AcDbEntity
  8
Layer 1
 62
   243
420
 16470906
370
    35
  0
ENDBLK
  5
BF
330
BC
100
AcDbEntity
  8
0
100
AcDbBlockEnd
  0
BLOCK
  5
DD
330
DB
100
AcDbEntity
  8
0
100
AcDbBlockBegin
  2
block 7
 70
     0
 10
0.0
 20
0.0
 30
0.0
  3
block 7
  1

  0
POLYLINE
  5
DF
330
DB
100
AcDbEntity
  8
Layer 1
 62
   243
420
 16470906
370
    35
100
AcDb2dPolyline
 66
     1
 10
0.0
 20
0.0
 30
0.0
  0
VERTEX
  5
E0
330
DF
100
AcDbEntity
  8
Layer 1
 62
   243
420
 16470906
370
    35
100
AcDbVertex
100
AcDb2dVertex
 10
8.980000336964924
 20
7.009721881813473
 30
0.0
  0
VERTEX
  5
E1
330
DF
100
AcDbEntity
  8
Layer 1
 62
   243
420
 16470906
370
    35
100
AcDbVertex
100
AcDb2dVertex
 10
8.980000336964924
 20
9.508333014117346
 30
0.0
  0
VERTEX
  5
E2
330
DF
100
AcDbEntity
  8
Layer 1
 62
   243
420
 16470906
370
    35
100
AcDbVertex
100
AcDb2dVertex
 10
8.920278284284803
 20
9.713888612058428
 30
0.0
  0
VERTEX
  5
E3
330
DF
100
AcDbEntity
  8
Layer 1
 62
   243
420
 16470906
370
    35
100
AcDbVertex
100
AcDb2dVertex
 10
8.02305555343628
 20
9.847221924198998
 30
0.0
  0
VERTEX
  5
E4
330
DF
100
AcDbEntity
  8
Layer 1
 62
   243
420
 16470906
370
    35
100
AcDbVertex
100
AcDb2dVertex
 10
7.898055553436279
 20
9.634721881813473
 30
0.0
  0
VERTEX
  5
E5
330
DF
100
AcDbEntity
  8
Layer 1
 62
   243
420
 16470906
370
    35
100
AcDbVertex
100
AcDb2dVertex
 10
7.707777606116401
 20
10.75138854980469
 30
0.0
  0
VERTEX
  5
E6
330
DF
100
AcDbEntity
  8
Layer 1
 62
   243
420
 16470906
370
    35
100
AcDbVertex
100
AcDb2dVertex
 10
6.285555468665229
 20
10.75138854980469
 30
0.0
  0
VERTEX
  5
E7
330
DF
100
AcDbEntity
  8
Layer 1
 62
   243
420
 16470906
370
    35
100
AcDbVertex
100
AcDb2dVertex
 10
6.085555553436279
 20
9.613888548480139
 30
0.0
  0
VERTEX
  5
E8
330
DF
100
AcDbEntity
  8
Layer 1
 62
   243
420
 16470906
370
    35
100
AcDbVertex
100
AcDb2dVertex
 10
5.963333500756158
 20
9.8236107495096
 30
0.0
  0
VERTEX
  5
E9
330
DF
100
AcDbEntity
  8
Layer 1
 62
   243
420
 16470906
370
    35
100
AcDbVertex
100
AcDb2dVertex
 10
5.128611193762885
 20
9.74722186062071
 30
0.0
  0
VERTEX
  5
EA
330
DF
100
AcDbEntity
  8
Layer 1
 62
   243
420
 16470906
370
    35
100
AcDbVertex
100
AcDb2dVertex
 10
5.016111108991835
 20
9.508332908153534
 30
0.0
  0
VERTEX
  5
EB
330
DF
100
AcDbEntity
  8
Layer 1
 62
   243
420
 16470906
370
    35
100
AcDbVertex
100
AcDb2dVertex
 10
5.01055563820733
 20
9.494444019264645
 30
0.0
  0
VERTEX
  5
EC
330
DF
100
AcDbEntity
  8
Layer 1
 62
   243
420
 16470906
370
    35
100
AcDbVertex
100
AcDb2dVertex
 10
5.023055553436279
 20
7.005555384688907
 30
0.0
  0
VERTEX
  5
ED
330
DF
100
AcDbEntity
  8
Layer 1
 62
   243
420
 16470906
370
    35
100
AcDbVertex
100
AcDb2dVertex
 10
5.023055553436279
 20
6.995832992924583
 30
0.0
  0
VERTEX
  5
EE
330
DF
100
AcDbEntity
  8
Layer 1
 62
   243
420
 16470906
370
    35
100
AcDbVertex
100
AcDb2dVertex
 10
5.093888971540663
 20
6.77638871802224
 30
0.0
  0
VERTEX
  5
EF
330
DF
100
AcDbEntity
  8
Layer 1
 62
   243
420
 16470906
370
    35
100
AcDbVertex
100
AcDb2dVertex
 10
5.964722474416097
 20
6.633333332008785
 30
0.0
  0
VERTEX
  5
F0
330
DF
100
AcDbEntity
  8
Layer 1
 62
   243
420
 16470906
370
    35
100
AcDbVertex
100
AcDb2dVertex
 10
6.086944527096218
 20
6.841666665342118
 30
0.0
  0
VERTEX
  5
F1
330
DF
100
AcDbEntity
  8
Layer 1
 62
   243
420
 16470906
370
    35
100
AcDbVertex
100
AcDb2dVertex
 10
6.282777945200602
 20
5.751388887564341
 30
0.0
  0
VERTEX
  5
F2
330
DF
100
AcDbEntity
  8
Layer 1
 62
   243
420
 16470906
370
    35
100
AcDbVertex
100
AcDb2dVertex
 10
7.704999658796522
 20
5.751388887564341
 30
0.0
  0
VERTEX
  5
F3
330
DF
100
AcDbEntity
  8
Layer 1
 62
   243
420
 16470906
370
    35
100
AcDbVertex
100
AcDb2dVertex
 10
7.900832653045654
 20
6.872222390439775
 30
0.0
  0
VERTEX
  5
F4
330
DF
100
AcDbEntity
  8
Layer 1
 62
   243
420
 16470906
370
    35
100
AcDbVertex
100
AcDb2dVertex
 10
8.027221202850342
 20
6.656944612661997
 30
0.0
  0
VERTEX
  5
F5
330
DF
100
AcDbEntity
  8
Layer 1
 62
   243
420
 16470906
370
    35
100
AcDbVertex
100
AcDb2dVertex
 10
8.918888039059109
 20
6.79027803076638
 30
0.0
  0
VERTEX
  5
F6
330
DF
100
AcDbEntity
  8
Layer 1
 62
   243
420
 16470906
370
    35
100
AcDbVertex
100
AcDb2dVertex
 10
8.979999489254421
 20
7.009722305668724
 30
0.0
  0
VERTEX
  5
F7
330
DF
100
AcDbEntity
  8
Layer 1
 62
   243
420
 16470906
370
    35
100
AcDbVertex
100
AcDb2dVertex
 10
8.980000336964924
 20
7.009721881813473
 30
0.0
  0
SEQEND
  5
F8
330
DF
100
AcDbEntity
  8
Layer 1
 62
   243
420
 16470906
370
    35
  0
POLYLINE
  5
F9
330
DB
100
AcDbEntity
  8
Layer 1
 62
   243
420
 16470906
370
    35
100
AcDb2dPolyline
 66
     1
 10
0.0
 20
0.0
 30
0.0
  0
VERTEX
  5
FA
330
F9
100
AcDbEntity
  8
Layer 1
 62
   243
420
 16470906
370
    35
100
AcDbVertex
100
AcDb2dVertex
 10
7.880000167422824
 20
6.958332823382483
 30
0.0
  0
VERTEX
  5
FB
330
F9
100
AcDbEntity
  8
Layer 1
 62
   243
420
 16470906
370
    35
100
AcDbVertex
100
AcDb2dVertex
 10
7.880000167422824
 20
6.906943764951493
 30
0.0
  0
VERTEX
  5
FC
330
F9
100
AcDbEntity
  8
Layer 1
 62
   243
420
 16470906
370
    35
100
AcDbVertex
100
AcDb2dVertex
 10
7.880000167422824
 20
6.906943764951493
 30
0.0
  0
VERTEX
  5
FD
330
F9
100
AcDbEntity
  8
Layer 1
 62
   243
420
 16470906
370
    35
100
AcDbVertex
100
AcDb2dVertex
 10
7.880000167422824
 20
6.958332823382483
 30
0.0
  0
SEQEND
  5
FE
330
F9
100
AcDbEntity
  8
Layer 1
 62
   243
420
 16470906
370
    35
  0
HATCH
  5
FF
330
DB
100
AcDbEntity
  8
Layer 1
 62
    18
420
  4325376
100
AcDbHatch
 10
0.0
 20
0.0
 30
0.0
210
0.0
220
0.0
230
1.0
  2
SOLID
 70
     1
 71
     0
 91
        1
 92
        1
 93
       23
 72
     1
 10
8.980000336964924
 20
7.009721881813473
 11
8.980000336964924
 21
9.508333014117346
 72
     1
 10
8.980000336964924
 20
9.508333014117346
 11
8.920278284284803
 21
9.713888612058428
 72
     1
 10
8.920278284284803
 20
9.713888612058428
 11
8.02305555343628
 21
9.847221924198998
 72
     1
 10
8.02305555343628
 20
9.847221924198998
 11
7.898055553436279
 21
9.634721881813473
 72
     1
 10
7.898055553436279
 20
9.634721881813473
 11
7.707777606116401
 21
10.75138854980469
 72
     1
 10
7.707777606116401
 20
10.75138854980469
 11
6.285555468665229
 21
10.75138854980469
 72
     1
 10
6.285555468665229
 20
10.75138854980469
 11
6.085555553436279
 21
9.613888548480139
 72
     1
 10
6.085555553436279
 20
9.613888548480139
 11
5.963333500756158
 21
9.8236107495096
 72
     1
 10
5.963333500756158
 20
9.8236107495096
 11
5.128611193762885
 21
9.74722186062071
 72
     1
 10
5.128611193762885
 20
9.74722186062071
 11
5.016111108991835
 21
9.508332908153534
 72
     1
 10
5.016111108991835
 20
9.508332908153534
 11
5.01055563820733
 21
9.494444019264645
 72
     1
 10
5.01055563820733
 20
9.494444019264645
 11
5.023055553436279
 21
7.005555384688907
 72
     1
 10
5.023055553436279
 20
7.005555384688907
 11
5.023055553436279
 21
6.995832992924583
 72
     1
 10
5.023055553436279
 20
6.995832992924583
 11
5.093888971540663
 21
6.77638871802224
 72
     1
 10
5.093888971540663
 20
6.77638871802224
 11
5.964722474416097
 21
6.633333332008785
 72
     1
 10
5.964722474416097
 20
6.633333332008785
 11
6.086944527096218
 21
6.841666665342118
 72
     1
 10
6.086944527096218
 20
6.841666665342118
 11
6.282777945200602
 21
5.751388887564341
 72
     1
 10
6.282777945200602
 20
5.751388887564341
 11
7.704999658796522
 21
5.751388887564341
 72
     1
 10
7.704999658796522
 20
5.751388887564341
 11
7.900832653045654
 21
6.872222390439775
 72
     1
 10
7.900832653045654
 20
6.872222390439775
 11
8.027221202850342
 21
6.656944612661997
 72
     1
 10
8.027221202850342
 20
6.656944612661997
 11
8.918888039059109
 21
6.79027803076638
 72
     1
 10
8.918888039059109
 20
6.79027803076638
 11
8.979999489254421
 21
7.009722305668724
 72
     1
 10
8.979999489254421
 20
7.009722305668724
 11
8.980000336964924
 21
7.009721881813473
 97
        0
 75
     2
 76
     1
 98
        0
  0
POLYLINE
  5
100
330
DB
100
AcDbEntity
  8
Layer 1
 62
   243
420
 16470906
370
    35
100
AcDb2dPolyline
 66
     1
 10
0.0
 20
0.0
 30
0.0
  0
VERTEX
  5
101
330
100
100
AcDbEntity
  8
Layer 1
 62
   243
420
 16470906
370
    35
100
AcDbVertex
100
AcDb2dVertex
 10
5.023055553436279
 20
9.498610728316836
 30
0.0
  0
VERTEX
  5
102
330
100
100
AcDbEntity
  8
Layer 1
 62
   243
420
 16470906
370
    35
100
AcDbVertex
100
AcDb2dVertex
 10
6.095277945200602
 20
9.631944040457407
 30
0.0
  0
VERTEX
  5
103
330
100
100
AcDbEntity
  8
Layer 1
 62
   243
420
 16470906
370
    35
100
AcDbVertex
100
AcDb2dVertex
 10
7.904999997880723
 20
9.631944040457407
 30
0.0
  0
VERTEX
  5
104
330
100
100
AcDbEntity
  8
Layer 1
 62
   243
420
 16470906
370
    35
100
AcDbVertex
100
AcDb2dVertex
 10
8.974444442325167
 20
9.493055151568518
 30
0.0
  0
SEQEND
  5
105
330
100
100
AcDbEntity
  8
Layer 1
 62
   243
420
 16470906
370
    35
  0
POLYLINE
  5
106
330
DB
100
AcDbEntity
  8
Layer 1
 62
   243
420
 16470906
370
    35
100
AcDb2dPolyline
 66
     1
 10
0.0
 20
0.0
 30
0.0
  0
VERTEX
  5
107
330
106
100
AcDbEntity
  8
Layer 1
 62
   243
420
 16470906
370
    35
100
AcDbVertex
100
AcDb2dVertex
 10
5.017500082651773
 20
6.986110601160261
 30
0.0
  0
VERTEX
  5
108
330
106
100
AcDbEntity
  8
Layer 1
 62
   243
420
 16470906
370
    35
100
AcDbVertex
100
AcDb2dVertex
 10
6.095277945200602
 20
6.83749932050705
 30
0.0
  0
VERTEX
  5
109
330
106
100
AcDbEntity
  8
Layer 1
 62
   243
420
 16470906
370
    35
100
AcDbVertex
100
AcDb2dVertex
 10
7.916110939449734
 20
6.83749932050705
 30
0.0
  0
VERTEX
  5
10A
330
106
100
AcDbEntity
  8
Layer 1
 62
   243
420
 16470906
370
    35
100
AcDbVertex
100
AcDb2dVertex
 10
8.985555383894178
 20
7.001388039853837
 30
0.0
  0
SEQEND
  5
10B
330
106
100
AcDbEntity
  8
Layer 1
 62
   243
420
 16470906
370
    35
  0
POLYLINE
  5
10C
330
DB
100
AcDbEntity
  8
Layer 1
 62
   243
420
 16470906
370
    35
100
AcDb2dPolyline
 66
     1
 10
0.0
 20
0.0
 30
0.0
  0
VERTEX
  5
10D
330
10C
100
AcDbEntity
  8
Layer 1
 62
   243
420
 16470906
370
    35
100
AcDbVertex
100
AcDb2dVertex
 10
6.095277945200602
 20
9.63194414642122
 30
0.0
  0
VERTEX
  5
10E
330
10C
100
AcDbEntity
  8
Layer 1
 62
   243
420
 16470906
370
    35
100
AcDbVertex
100
AcDb2dVertex
 10
6.095277945200602
 20
6.818055384688907
 30
0.0
  0
SEQEND
  5
10F
330
10C
100
AcDbEntity
  8
Layer 1
 62
   243
420
 16470906
370
    35
  0
POLYLINE
  5
110
330
DB
100
AcDbEntity
  8
Layer 1
 62
   243
420
 16470906
370
    35
100
AcDb2dPolyline
 66
     1
 10
0.0
 20
0.0
 30
0.0
  0
VERTEX
  5
111
330
110
100
AcDbEntity
  8
Layer 1
 62
   243
420
 16470906
370
    35
100
AcDbVertex
100
AcDb2dVertex
 10
7.904999997880723
 20
9.63194414642122
 30
0.0
  0
VERTEX
  5
112
330
110
100
AcDbEntity
  8
Layer 1
 62
   243
420
 16470906
370
    35
100
AcDbVertex
100
AcDb2dVertex
 10
7.904999997880723
 20
6.818055384688907
 30
0.0
  0
SEQEND
  5
113
330
110
100
AcDbEntity
  8
Layer 1
 62
   243
420
 16470906
370
    35
  0
ENDBLK
  5
DE
330
DB
100
AcDbEntity
  8
0
100
AcDbBlockEnd
  0
BLOCK
  5
116
330
114
100
AcDbEntity
  8
0
100
AcDbBlockBegin
  2
block 8
 70
     0
 10
0.0
 20
0.0
 30
0.0
  3
block 8
  1

  0
SPLINE
  5
118
330
114
100
AcDbEntity
  8
Layer 1
 62
    18
420
  4325376
370
    35
100
AcDbSpline
210
0.0
220
0.0
230
1.0
 70
    11
 71
     3
 72
    26
 73
    22
 74
     0
 42
0.0000000001
 43
0.0000000001
 12
1.0
 22
0.0
 32
0.0
 13
1.0
 23
0.0
 33
0.0
 40
0.0
 40
0.0
 40
0.0
 40
0.0
 40
1.0
 40
1.0
 40
1.0
 40
2.0
 40
2.0
 40
2.0
 40
3.0
 40
3.0
 40
3.0
 40
4.0
 40
4.0
 40
4.0
 40
5.0
 40
5.0
 40
5.0
 40
6.0
 40
6.0
 40
6.0
 40
7.0
 40
7.0
 40
7.0
 40
7.0
 10
5.488333331214057
 20
3.829166326257917
 30
0.0
 10
5.488333331214057
 20
4.158333162466684
 30
0.0
 10
5.182777775658502
 20
4.530555215146806
 30
0.0
 10
4.828611108991835
 20
4.530555215146806
 30
0.0
 10
4.474444442325168
 20
4.530555215146806
 30
0.0
 10
4.203611108991835
 20
4.158333162466684
 30
0.0
 10
4.203611108991835
 20
3.829166326257917
 30
0.0
 10
4.203611108991835
 20
3.813888463709089
 30
0.0
 10
4.205000082651773
 20
3.7999995748202
 30
0.0
 10
4.205000082651773
 20
3.786110685931312
 30
0.0
 10
4.205000082651773
 20
3.786110685931312
 30
0.0
 10
4.205000082651773
 20
2.120832992924584
 30
0.0
 10
4.205000082651773
 20
2.120832992924584
 30
0.0
 10
4.205000082651773
 20
2.120832992924584
 30
0.0
 10
5.495277775658502
 20
2.120832992924584
 30
0.0
 10
5.495277775658502
 20
2.120832992924584
 30
0.0
 10
5.495277775658502
 20
2.120832992924584
 30
0.0
 10
5.488333331214057
 20
3.67638854848014
 30
0.0
 10
5.488333331214057
 20
3.67638854848014
 30
0.0
 10
5.503611193762885
 20
3.727777606911129
 30
0.0
 10
5.488333331214057
 20
3.773610770702362
 30
0.0
 10
5.488333331214057
 20
3.829166326257917
 30
0.0
  0
HATCH
  5
119
330
114
100
AcDbEntity
  8
Layer 1
 62
    18
420
  4325376
100
AcDbHatch
 10
0.0
 20
0.0
 30
0.0
210
0.0
220
0.0
230
1.0
  2
SOLID
 70
     1
 71
     0
 91
        1
 92
        1
 93
        1
 72
     4
 94
        3
 73
     0
 74
     1
 95
       26
 96
       22
 40
0.0
 40
0.0
 40
0.0
 40
0.0
 40
1.0
 40
1.0
 40
1.0
 40
2.0
 40
2.0
 40
2.0
 40
3.0
 40
3.0
 40
3.0
 40
4.0
 40
4.0
 40
4.0
 40
5.0
 40
5.0
 40
5.0
 40
6.0
 40
6.0
 40
6.0
 40
7.0
 40
7.0
 40
7.0
 40
7.0
 10
5.488333331214057
 20
3.829166326257917
 10
5.488333331214057
 20
4.158333162466684
 10
5.182777775658502
 20
4.530555215146806
 10
4.828611108991835
 20
4.530555215146806
 10
4.474444442325168
 20
4.530555215146806
 10
4.203611108991835
 20
4.158333162466684
 10
4.203611108991835
 20
3.829166326257917
 10
4.203611108991835
 20
3.813888463709089
 10
4.205000082651773
 20
3.7999995748202
 10
4.205000082651773
 20
3.786110685931312
 10
4.205000082651773
 20
3.786110685931312
 10
4.205000082651773
 20
2.120832992924584
 10
4.205000082651773
 20
2.120832992924584
 10
4.205000082651773
 20
2.120832992924584
 10
5.495277775658502
 20
2.120832992924584
 10
5.495277775658502
 20
2.120832992924584
 10
5.495277775658502
 20
2.120832992924584
 10
5.488333331214057
 20
3.67638854848014
 10
5.488333331214057
 20
3.67638854848014
 10
5.503611193762885
 20
3.727777606911129
 10
5.488333331214057
 20
3.773610770702362
 10
5.488333331214057
 20
3.829166326257917
 97
        0
 97
        0
 75
     2
 76
     1
 98
        0
  0
SPLINE
  5
11A
330
114
100
AcDbEntity
  8
Layer 1
 62
    18
420
  4325376
370
    35
100
AcDbSpline
210
0.0
220
0.0
230
1.0
 70
    11
 71
     3
 72
    20
 73
    16
 74
     0
 42
0.0000000001
 43
0.0000000001
 12
1.0
 22
0.0
 32
0.0
 13
1.0
 23
0.0
 33
0.0
 40
0.0
 40
0.0
 40
0.0
 40
0.0
 40
1.0
 40
1.0
 40
1.0
 40
2.0
 40
2.0
 40
2.0
 40
3.0
 40
3.0
 40
3.0
 40
4.0
 40
4.0
 40
4.0
 40
5.0
 40
5.0
 40
5.0
 40
5.0
 10
4.141111108991835
 20
1.169444104035695
 30
0.0
 10
4.141111108991835
 20
1.169444104035695
 30
0.0
 10
3.460555553436279
 20
1.815277437369029
 30
0.0
 10
3.460555553436279
 20
1.815277437369029
 30
0.0
 10
3.460555553436279
 20
1.815277437369029
 30
0.0
 10
1.793888886769613
 20
2.405555215146806
 30
0.0
 10
1.793888886769613
 20
2.405555215146806
 30
0.0
 10
1.793888886769613
 20
1.570833332008785
 30
0.0
 10
2.471666706932915
 20
0.9402774373690287
 30
0.0
 10
3.305000040266249
 20
0.9402774373690287
 30
0.0
 10
3.605645656585693
 20
0.9393619100252787
 30
0.0
 10
3.899535444047716
 20
1.029416739940643
 30
0.0
 10
4.148055553436279
 20
1.19861043161816
 30
0.0
 10
4.148055553436279
 20
1.19861043161816
 30
0.0
 10
4.141111108991835
 20
1.169444104035695
 30
0.0
 10
4.141111108991835
 20
1.169444104035695
 30
0.0
  0
HATCH
  5
11B
330
114
100
AcDbEntity
  8
Layer 1
 62
    18
420
  4325376
100
AcDbHatch
 10
0.0
 20
0.0
 30
0.0
210
0.0
220
0.0
230
1.0
  2
SOLID
 70
     1
 71
     0
 91
        1
 92
        1
 93
        1
 72
     4
 94
        3
 73
     0
 74
     1
 95
       20
 96
       16
 40
0.0
 40
0.0
 40
0.0
 40
0.0
 40
1.0
 40
1.0
 40
1.0
 40
2.0
 40
2.0
 40
2.0
 40
3.0
 40
3.0
 40
3.0
 40
4.0
 40
4.0
 40
4.0
 40
5.0
 40
5.0
 40
5.0
 40
5.0
 10
4.141111108991835
 20
1.169444104035695
 10
4.141111108991835
 20
1.169444104035695
 10
3.460555553436279
 20
1.815277437369029
 10
3.460555553436279
 20
1.815277437369029
 10
3.460555553436279
 20
1.815277437369029
 10
1.793888886769613
 20
2.405555215146806
 10
1.793888886769613
 20
2.405555215146806
 10
1.793888886769613
 20
1.570833332008785
 10
2.471666706932915
 20
0.9402774373690287
 10
3.305000040266249
 20
0.9402774373690287
 10
3.605645656585693
 20
0.9393619100252787
 10
3.899535444047716
 20
1.029416739940643
 10
4.148055553436279
 20
1.19861043161816
 10
4.148055553436279
 20
1.19861043161816
 10
4.141111108991835
 20
1.169444104035695
 10
4.141111108991835
 20
1.169444104035695
 97
        0
 97
        0
 75
     2
 76
     1
 98
        0
  0
SPLINE
  5
11C
330
114
100
AcDbEntity
  8
Layer 1
 62
    18
420
  4325376
370
    35
100
AcDbSpline
210
0.0
220
0.0
230
1.0
 70
    11
 71
     3
 72
    20
 73
    16
 74
     0
 42
0.0000000001
 43
0.0000000001
 12
1.0
 22
0.0
 32
0.0
 13
1.0
 23
0.0
 33
0.0
 40
0.0
 40
0.0
 40
0.0
 40
0.0
 40
1.0
 40
1.0
 40
1.0
 40
2.0
 40
2.0
 40
2.0
 40
3.0
 40
3.0
 40
3.0
 40
4.0
 40
4.0
 40
4.0
 40
5.0
 40
5.0
 40
5.0
 40
5.0
 10
5.545277860429551
 20
1.169444104035695
 30
0.0
 10
5.545277860429551
 20
1.169444104035695
 30
0.0
 10
6.225833415985107
 20
1.815277437369029
 30
0.0
 10
6.225833415985107
 20
1.815277437369029
 30
0.0
 10
6.225833415985107
 20
1.815277437369029
 30
0.0
 10
7.892499658796522
 20
2.405555215146806
 30
0.0
 10
7.892499658796522
 20
2.405555215146806
 30
0.0
 10
7.892499658796522
 20
1.570833332008785
 30
0.0
 10
7.214722050560844
 20
0.9402774373690287
 30
0.0
 10
6.381388717227511
 20
0.9402774373690287
 30
0.0
 10
6.080743100908067
 20
0.9393619100252787
 30
0.0
 10
5.786852889590793
 20
1.029416739940643
 30
0.0
 10
5.538332992129855
 20
1.19861043161816
 30
0.0
 10
5.538332992129855
 20
1.19861043161816
 30
0.0
 10
5.545277860429551
 20
1.169444104035695
 30
0.0
 10
5.545277860429551
 20
1.169444104035695
 30
0.0
  0
HATCH
  5
11D
330
114
100
AcDbEntity
  8
Layer 1
 62
    18
420
  4325376
100
AcDbHatch
 10
0.0
 20
0.0
 30
0.0
210
0.0
220
0.0
230
1.0
  2
SOLID
 70
     1
 71
     0
 91
        1
 92
        1
 93
        1
 72
     4
 94
        3
 73
     0
 74
     1
 95
       20
 96
       16
 40
0.0
 40
0.0
 40
0.0
 40
0.0
 40
1.0
 40
1.0
 40
1.0
 40
2.0
 40
2.0
 40
2.0
 40
3.0
 40
3.0
 40
3.0
 40
4.0
 40
4.0
 40
4.0
 40
5.0
 40
5.0
 40
5.0
 40
5.0
 10
5.545277860429551
 20
1.169444104035695
 10
5.545277860429551
 20
1.169444104035695
 10
6.225833415985107
 20
1.815277437369029
 10
6.225833415985107
 20
1.815277437369029
 10
6.225833415985107
 20
1.815277437369029
 10
7.892499658796522
 20
2.405555215146806
 10
7.892499658796522
 20
2.405555215146806
 10
7.892499658796522
 20
1.570833332008785
 10
7.214722050560844
 20
0.9402774373690287
 10
6.381388717227511
 20
0.9402774373690287
 10
6.080743100908067
 20
0.9393619100252787
 10
5.786852889590793
 20
1.029416739940643
 10
5.538332992129855
 20
1.19861043161816
 10
5.538332992129855
 20
1.19861043161816
 10
5.545277860429551
 20
1.169444104035695
 10
5.545277860429551
 20
1.169444104035695
 97
        0
 97
        0
 75
     2
 76
     1
 98
        0
  0
SPLINE
  5
11E
330
114
100
AcDbEntity
  8
Layer 1
370
     0
100
AcDbSpline
210
0.0
220
0.0
230
1.0
 70
    11
 71
     3
 72
    17
 73
    13
 74
     0
 42
0.0000000001
 43
0.0000000001
 12
1.0
 22
0.0
 32
0.0
 13
1.0
 23
0.0
 33
0.0
 40
0.0
 40
0.0
 40
0.0
 40
0.0
 40
1.0
 40
1.0
 40
1.0
 40
2.0
 40
2.0
 40
2.0
 40
3.0
 40
3.0
 40
3.0
 40
4.0
 40
4.0
 40
4.0
 40
4.0
 10
4.859166463216146
 20
0.940277099609375
 30
0.0
 10
4.9343384636773
 20
0.940277099609375
 30
0.0
 10
4.995277404785156
 20
0.8793385823567708
 30
0.0
 10
4.995277404785156
 20
0.8041661580403645
 30
0.0
 10
4.995277404785156
 20
0.7289937337239583
 30
0.0
 10
4.9343384636773
 20
0.6680552164713541
 30
0.0
 10
4.859166463216146
 20
0.6680552164713541
 30
0.0
 10
4.783994462754991
 20
0.6680552164713541
 30
0.0
 10
4.723055521647135
 20
0.7289937337239583
 30
0.0
 10
4.723055521647135
 20
0.8041661580403645
 30
0.0
 10
4.723055521647135
 20
0.8793385823567708
 30
0.0
 10
4.783994462754991
 20
0.940277099609375
 30
0.0
 10
4.859166463216146
 20
0.940277099609375
 30
0.0
  0
HATCH
  5
11F
330
114
100
AcDbEntity
  8
Layer 1
 62
    44
420
 11501056
100
AcDbHatch
 10
0.0
 20
0.0
 30
0.0
210
0.0
220
0.0
230
1.0
  2
SOLID
 70
     1
 71
     0
 91
        1
 92
        1
 93
        1
 72
     4
 94
        3
 73
     0
 74
     1
 95
       17
 96
       13
 40
0.0
 40
0.0
 40
0.0
 40
0.0
 40
1.0
 40
1.0
 40
1.0
 40
2.0
 40
2.0
 40
2.0
 40
3.0
 40
3.0
 40
3.0
 40
4.0
 40
4.0
 40
4.0
 40
4.0
 10
4.859166463216146
 20
0.940277099609375
 10
4.9343384636773
 20
0.940277099609375
 10
4.995277404785156
 20
0.8793385823567708
 10
4.995277404785156
 20
0.8041661580403645
 10
4.995277404785156
 20
0.7289937337239583
 10
4.9343384636773
 20
0.6680552164713541
 10
4.859166463216146
 20
0.6680552164713541
 10
4.783994462754991
 20
0.6680552164713541
 10
4.723055521647135
 20
0.7289937337239583
 10
4.723055521647135
 20
0.8041661580403645
 10
4.723055521647135
 20
0.8793385823567708
 10
4.783994462754991
 20
0.940277099609375
 10
4.859166463216146
 20
0.940277099609375
 97
        0
 97
        0
 75
     2
 76
     1
 98
        0
  0
SPLINE
  5
120
330
114
100
AcDbEntity
  8
Layer 1
370
     0
100
AcDbSpline
210
0.0
220
0.0
230
1.0
 70
    11
 71
     3
 72
    77
 73
    73
 74
     0
 42
0.0000000001
 43
0.0000000001
 12
1.0
 22
0.0
 32
0.0
 13
1.0
 23
0.0
 33
0.0
 40
0.0
 40
0.0
 40
0.0
 40
0.0
 40
1.0
 40
1.0
 40
1.0
 40
2.0
 40
2.0
 40
2.0
 40
3.0
 40
3.0
 40
3.0
 40
4.0
 40
4.0
 40
4.0
 40
5.0
 40
5.0
 40
5.0
 40
6.0
 40
6.0
 40
6.0
 40
7.0
 40
7.0
 40
7.0
 40
8.0
 40
8.0
 40
8.0
 40
9.0
 40
9.0
 40
9.0
 40
10.0
 40
10.0
 40
10.0
 40
11.0
 40
11.0
 40
11.0
 40
12.0
 40
12.0
 40
12.0
 40
13.0
 40
13.0
 40
13.0
 40
14.0
 40
14.0
 40
14.0
 40
15.0
 40
15.0
 40
15.0
 40
16.0
 40
16.0
 40
16.0
 40
17.0
 40
17.0
 40
17.0
 40
18.0
 40
18.0
 40
18.0
 40
19.0
 40
19.0
 40
19.0
 40
20.0
 40
20.0
 40
20.0
 40
21.0
 40
21.0
 40
21.0
 40
22.0
 40
22.0
 40
22.0
 40
23.0
 40
23.0
 40
23.0
 40
24.0
 40
24.0
 40
24.0
 40
24.0
 10
6.429999828338623
 20
1.830554876062605
 30
0.0
 10
6.429999828338623
 20
1.830554876062605
 30
0.0
 10
6.425833331214057
 20
1.893054876062605
 30
0.0
 10
6.425833331214057
 20
1.893054876062605
 30
0.0
 10
6.425833331214057
 20
1.893054876062605
 30
0.0
 10
6.427222304873996
 20
1.893054876062605
 30
0.0
 10
6.427222304873996
 20
1.893054876062605
 30
0.0
 10
6.427222304873996
 20
1.893054876062605
 30
0.0
 10
6.425833331214057
 20
1.895832823382483
 30
0.0
 10
6.425833331214057
 20
1.895832823382483
 30
0.0
 10
6.425833331214057
 20
1.895832823382483
 30
0.0
 10
6.425833331214057
 20
1.898610770702362
 30
0.0
 10
6.425833331214057
 20
1.898610770702362
 30
0.0
 10
6.425833331214057
 20
1.898610770702362
 30
0.0
 10
6.424444357554117
 20
1.898610770702362
 30
0.0
 10
6.424444357554117
 20
1.898610770702362
 30
0.0
 10
6.424444357554117
 20
1.898610770702362
 30
0.0
 10
5.950833161671956
 20
3.11388854848014
 30
0.0
 10
5.950833161671956
 20
3.11388854848014
 30
0.0
 10
5.950833161671956
 20
3.11388854848014
 30
0.0
 10
5.743888801998562
 20
3.033333162466685
 30
0.0
 10
5.743888801998562
 20
3.033333162466685
 30
0.0
 10
5.743888801998562
 20
3.033333162466685
 30
0.0
 10
6.216111024220784
 20
1.819443934493595
 30
0.0
 10
6.216111024220784
 20
1.819443934493595
 30
0.0
 10
6.216111024220784
 20
1.819443934493595
 30
0.0
 10
5.543888886769612
 20
1.169444104035695
 30
0.0
 10
5.543888886769612
 20
1.169444104035695
 30
0.0
 10
5.543888886769612
 20
1.169444104035695
 30
0.0
 10
4.141111108991835
 20
1.169444104035695
 30
0.0
 10
4.141111108991835
 20
1.169444104035695
 30
0.0
 10
4.141111108991835
 20
1.169444104035695
 30
0.0
 10
3.470277733272976
 20
1.818055384688907
 30
0.0
 10
3.470277733272976
 20
1.818055384688907
 30
0.0
 10
3.470277733272976
 20
1.818055384688907
 30
0.0
 10
3.945277690887451
 20
3.038889057106442
 30
0.0
 10
3.945277690887451
 20
3.038889057106442
 30
0.0
 10
3.945277690887451
 20
3.038889057106442
 30
0.0
 10
3.738333331214057
 20
3.119444443119896
 30
0.0
 10
3.738333331214057
 20
3.119444443119896
 30
0.0
 10
3.738333331214057
 20
3.119444443119896
 30
0.0
 10
3.231388886769612
 20
1.893054876062605
 30
0.0
 10
3.231388886769612
 20
1.893054876062605
 30
0.0
 10
3.231388886769612
 20
1.893054876062605
 30
0.0
 10
3.225833415985107
 20
1.894443425867292
 30
0.0
 10
3.225833415985107
 20
1.894443425867292
 30
0.0
 10
3.225833415985107
 20
1.894443425867292
 30
0.0
 10
3.22861115137736
 20
1.887498981422848
 30
0.0
 10
3.22861115137736
 20
1.887498981422848
 30
0.0
 10
3.22861115137736
 20
1.887498981422848
 30
0.0
 10
3.225833415985107
 20
1.880554536978404
 30
0.0
 10
3.225833415985107
 20
1.880554536978404
 30
0.0
 10
3.225833415985107
 20
1.880554536978404
 30
0.0
 10
3.232777860429552
 20
1.879165987173716
 30
0.0
 10
3.232777860429552
 20
1.879165987173716
 30
0.0
 10
3.232777860429552
 20
1.879165987173716
 30
0.0
 10
3.273055553436279
 20
1.783332314756181
 30
0.0
 10
3.273055553436279
 20
1.783332314756181
 30
0.0
 10
3.278922345903184
 20
1.761731803417206
 30
0.0
 10
3.290426201290554
 20
1.742079330815209
 30
0.0
 10
3.306388801998562
 20
1.726388209395938
 30
0.0
 10
3.306388801998562
 20
1.726388209395938
 30
0.0
 10
4.102222177717421
 20
0.9486104316181606
 30
0.0
 10
4.102222177717421
 20
0.9486104316181606
 30
0.0
 10
4.102222177717421
 20
0.9486104316181606
 30
0.0
 10
5.598055468665229
 20
0.9486104316181606
 30
0.0
 10
5.598055468665229
 20
0.9486104316181606
 30
0.0
 10
5.598055468665229
 20
0.9486104316181606
 30
0.0
 10
6.381388717227511
 20
1.701388378938039
 30
0.0
 10
6.381388717227511
 20
1.701388378938039
 30
0.0
 10
6.414773676130507
 20
1.73585883114073
 30
0.0
 10
6.432374265458848
 20
1.782627019617292
 30
0.0
 10
6.429999828338623
 20
1.830554876062605
 30
0.0
  0
HATCH
  5
121
330
114
100
AcDbEntity
  8
Layer 1
 62
    14
420
 11468800
100
AcDbHatch
 10
0.0
 20
0.0
 30
0.0
210
0.0
220
0.0
230
1.0
  2
SOLID
 70
     1
 71
     0
 91
        1
 92
        1
 93
        1
 72
     4
 94
        3
 73
     0
 74
     1
 95
       77
 96
       73
 40
0.0
 40
0.0
 40
0.0
 40
0.0
 40
1.0
 40
1.0
 40
1.0
 40
2.0
 40
2.0
 40
2.0
 40
3.0
 40
3.0
 40
3.0
 40
4.0
 40
4.0
 40
4.0
 40
5.0
 40
5.0
 40
5.0
 40
6.0
 40
6.0
 40
6.0
 40
7.0
 40
7.0
 40
7.0
 40
8.0
 40
8.0
 40
8.0
 40
9.0
 40
9.0
 40
9.0
 40
10.0
 40
10.0
 40
10.0
 40
11.0
 40
11.0
 40
11.0
 40
12.0
 40
12.0
 40
12.0
 40
13.0
 40
13.0
 40
13.0
 40
14.0
 40
14.0
 40
14.0
 40
15.0
 40
15.0
 40
15.0
 40
16.0
 40
16.0
 40
16.0
 40
17.0
 40
17.0
 40
17.0
 40
18.0
 40
18.0
 40
18.0
 40
19.0
 40
19.0
 40
19.0
 40
20.0
 40
20.0
 40
20.0
 40
21.0
 40
21.0
 40
21.0
 40
22.0
 40
22.0
 40
22.0
 40
23.0
 40
23.0
 40
23.0
 40
24.0
 40
24.0
 40
24.0
 40
24.0
 10
6.429999828338623
 20
1.830554876062605
 10
6.429999828338623
 20
1.830554876062605
 10
6.425833331214057
 20
1.893054876062605
 10
6.425833331214057
 20
1.893054876062605
 10
6.425833331214057
 20
1.893054876062605
 10
6.427222304873996
 20
1.893054876062605
 10
6.427222304873996
 20
1.893054876062605
 10
6.427222304873996
 20
1.893054876062605
 10
6.425833331214057
 20
1.895832823382483
 10
6.425833331214057
 20
1.895832823382483
 10
6.425833331214057
 20
1.895832823382483
 10
6.425833331214057
 20
1.898610770702362
 10
6.425833331214057
 20
1.898610770702362
 10
6.425833331214057
 20
1.898610770702362
 10
6.424444357554117
 20
1.898610770702362
 10
6.424444357554117
 20
1.898610770702362
 10
6.424444357554117
 20
1.898610770702362
 10
5.950833161671956
 20
3.11388854848014
 10
5.950833161671956
 20
3.11388854848014
 10
5.950833161671956
 20
3.11388854848014
 10
5.743888801998562
 20
3.033333162466685
 10
5.743888801998562
 20
3.033333162466685
 10
5.743888801998562
 20
3.033333162466685
 10
6.216111024220784
 20
1.819443934493595
 10
6.216111024220784
 20
1.819443934493595
 10
6.216111024220784
 20
1.819443934493595
 10
5.543888886769612
 20
1.169444104035695
 10
5.543888886769612
 20
1.169444104035695
 10
5.543888886769612
 20
1.169444104035695
 10
4.141111108991835
 20
1.169444104035695
 10
4.141111108991835
 20
1.169444104035695
 10
4.141111108991835
 20
1.169444104035695
 10
3.470277733272976
 20
1.818055384688907
 10
3.470277733272976
 20
1.818055384688907
 10
3.470277733272976
 20
1.818055384688907
 10
3.945277690887451
 20
3.038889057106442
 10
3.945277690887451
 20
3.038889057106442
 10
3.945277690887451
 20
3.038889057106442
 10
3.738333331214057
 20
3.119444443119896
 10
3.738333331214057
 20
3.119444443119896
 10
3.738333331214057
 20
3.119444443119896
 10
3.231388886769612
 20
1.893054876062605
 10
3.231388886769612
 20
1.893054876062605
 10
3.231388886769612
 20
1.893054876062605
 10
3.225833415985107
 20
1.894443425867292
 10
3.225833415985107
 20
1.894443425867292
 10
3.225833415985107
 20
1.894443425867292
 10
3.22861115137736
 20
1.887498981422848
 10
3.22861115137736
 20
1.887498981422848
 10
3.22861115137736
 20
1.887498981422848
 10
3.225833415985107
 20
1.880554536978404
 10
3.225833415985107
 20
1.880554536978404
 10
3.225833415985107
 20
1.880554536978404
 10
3.232777860429552
 20
1.879165987173716
 10
3.232777860429552
 20
1.879165987173716
 10
3.232777860429552
 20
1.879165987173716
 10
3.273055553436279
 20
1.783332314756181
 10
3.273055553436279
 20
1.783332314756181
 10
3.278922345903184
 20
1.761731803417206
 10
3.290426201290554
 20
1.742079330815209
 10
3.306388801998562
 20
1.726388209395938
 10
3.306388801998562
 20
1.726388209395938
 10
4.102222177717421
 20
0.9486104316181606
 10
4.102222177717421
 20
0.9486104316181606
 10
4.102222177717421
 20
0.9486104316181606
 10
5.598055468665229
 20
0.9486104316181606
 10
5.598055468665229
 20
0.9486104316181606
 10
5.598055468665229
 20
0.9486104316181606
 10
6.381388717227511
 20
1.701388378938039
 10
6.381388717227511
 20
1.701388378938039
 10
6.414773676130507
 20
1.73585883114073
 10
6.432374265458848
 20
1.782627019617292
 10
6.429999828338623
 20
1.830554876062605
 97
        0
 97
        0
 75
     2
 76
     1
 98
        0
  0
SPLINE
  5
122
330
114
100
AcDbEntity
  8
Layer 1
 62
     7
420
 16777215
370
    35
100
AcDbSpline
210
0.0
220
0.0
230
1.0
 70
    11
 71
     3
 72
    23
 73
    19
 74
     0
 42
0.0000000001
 43
0.0000000001
 12
1.0
 22
0.0
 32
0.0
 13
1.0
 23
0.0
 33
0.0
 40
0.0
 40
0.0
 40
0.0
 40
0.0
 40
1.0
 40
1.0
 40
1.0
 40
2.0
 40
2.0
 40
2.0
 40
3.0
 40
3.0
 40
3.0
 40
4.0
 40
4.0
 40
4.0
 40
5.0
 40
5.0
 40
5.0
 40
6.0
 40
6.0
 40
6.0
 40
6.0
 10
2.520277818044026
 20
5.609722051355574
 30
0.0
 10
2.520277818044026
 20
5.609722051355574
 30
0.0
 10
2.57166666454739
 20
5.758333332008785
 30
0.0
 10
2.561944484710693
 20
6.036111109786563
 30
0.0
 10
2.552222304873996
 20
6.313888887564341
 30
0.0
 10
2.339722262488471
 20
6.809722390439775
 30
0.0
 10
2.339722262488471
 20
6.809722390439775
 30
0.0
 10
2.339722262488471
 20
6.809722390439775
 30
0.0
 10
2.825833373599582
 20
6.809722390439775
 30
0.0
 10
2.825833373599582
 20
6.809722390439775
 30
0.0
 10
2.825833373599582
 20
6.809722390439775
 30
0.0
 10
2.659166706932915
 20
6.250000337759653
 30
0.0
 10
2.649444527096219
 20
6.045833501550886
 30
0.0
 10
2.639722347259521
 20
5.841666665342118
 30
0.0
 10
2.65361123614841
 20
5.605555554231008
 30
0.0
 10
2.65361123614841
 20
5.605555554231008
 30
0.0
 10
2.65361123614841
 20
5.605555554231008
 30
0.0
 10
2.520277818044026
 20
5.609722051355574
 30
0.0
 10
2.520277818044026
 20
5.609722051355574
 30
0.0
  0
SPLINE
  5
123
330
114
100
AcDbEntity
  8
Layer 1
 62
     7
420
 16777215
370
    35
100
AcDbSpline
210
0.0
220
0.0
230
1.0
 70
    11
 71
     3
 72
    23
 73
    19
 74
     0
 42
0.0000000001
 43
0.0000000001
 12
1.0
 22
0.0
 32
0.0
 13
1.0
 23
0.0
 33
0.0
 40
0.0
 40
0.0
 40
0.0
 40
0.0
 40
1.0
 40
1.0
 40
1.0
 40
2.0
 40
2.0
 40
2.0
 40
3.0
 40
3.0
 40
3.0
 40
4.0
 40
4.0
 40
4.0
 40
5.0
 40
5.0
 40
5.0
 40
6.0
 40
6.0
 40
6.0
 40
6.0
 10
7.356388886769612
 20
4.088888718022241
 30
0.0
 10
7.356388886769612
 20
4.088888718022241
 30
0.0
 10
7.416110939449734
 20
4.269444273577796
 30
0.0
 10
7.685555722978379
 20
4.394444273577796
 30
0.0
 10
7.955000506507026
 20
4.519444273577796
 30
0.0
 10
8.130000167422825
 20
4.543055554231008
 30
0.0
 10
8.130000167422825
 20
4.543055554231008
 30
0.0
 10
8.130000167422825
 20
4.543055554231008
 30
0.0
 10
7.995277775658501
 20
4.195833332008785
 30
0.0
 10
7.866111278533936
 20
4.043055554231008
 30
0.0
 10
7.736944781409369
 20
3.89027777645323
 30
0.0
 10
7.528611448076036
 20
3.797222051355574
 30
0.0
 10
7.528611448076036
 20
3.797222051355574
 30
0.0
 10
7.528611448076036
 20
3.797222051355574
 30
0.0
 10
7.503611193762885
 20
4.065277437369028
 30
0.0
 10
7.503611193762885
 20
4.065277437369028
 30
0.0
 10
7.503611193762885
 20
4.065277437369028
 30
0.0
 10
7.356388886769612
 20
4.088888718022241
 30
0.0
 10
7.356388886769612
 20
4.088888718022241
 30
0.0
  0
SPLINE
  5
124
330
114
100
AcDbEntity
  8
Layer 1
 62
     7
420
 16777215
370
    35
100
AcDbSpline
210
0.0
220
0.0
230
1.0
 70
    11
 71
     3
 72
    23
 73
    19
 74
     0
 42
0.0000000001
 43
0.0000000001
 12
1.0
 22
0.0
 32
0.0
 13
1.0
 23
0.0
 33
0.0
 40
0.0
 40
0.0
 40
0.0
 40
0.0
 40
1.0
 40
1.0
 40
1.0
 40
2.0
 40
2.0
 40
2.0
 40
3.0
 40
3.0
 40
3.0
 40
4.0
 40
4.0
 40
4.0
 40
5.0
 40
5.0
 40
5.0
 40
6.0
 40
6.0
 40
6.0
 40
6.0
 10
6.88416666454739
 20
4.088888718022241
 30
0.0
 10
6.88416666454739
 20
4.088888718022241
 30
0.0
 10
6.824444611867269
 20
4.269444273577796
 30
0.0
 10
6.554999828338623
 20
4.394444273577796
 30
0.0
 10
6.285555044809977
 20
4.519444273577796
 30
0.0
 10
6.110555383894178
 20
4.543055554231008
 30
0.0
 10
6.110555383894178
 20
4.543055554231008
 30
0.0
 10
6.110555383894178
 20
4.543055554231008
 30
0.0
 10
6.245277775658501
 20
4.195833332008785
 30
0.0
 10
6.374444272783067
 20
4.043055554231008
 30
0.0
 10
6.503610769907633
 20
3.89027777645323
 30
0.0
 10
6.711944103240967
 20
3.797222051355574
 30
0.0
 10
6.711944103240967
 20
3.797222051355574
 30
0.0
 10
6.711944103240967
 20
3.797222051355574
 30
0.0
 10
6.736943933698866
 20
4.065277437369028
 30
0.0
 10
6.736943933698866
 20
4.065277437369028
 30
0.0
 10
6.736943933698866
 20
4.065277437369028
 30
0.0
 10
6.88416666454739
 20
4.088888718022241
 30
0.0
 10
6.88416666454739
 20
4.088888718022241
 30
0.0
  0
INSERT
  5
126
330
114
100
AcDbEntity
  8
Layer 1
100
AcDbBlockReference
  2
block 9
 10
0.0
 20
0.0
 30
0.0
  0
INSERT
  5
130
330
114
100
AcDbEntity
  8
Layer 1
100
AcDbBlockReference
  2
block 10
 10
0.0
 20
0.0
 30
0.0
  0
ENDBLK
  5
117
330
114
100
AcDbEntity
  8
0
100
AcDbBlockEnd
  0
BLOCK
  5
127
330
125
100
AcDbEntity
  8
0
100
AcDbBlockBegin
  2
block 9
 70
     0
 10
0.0
 20
0.0
 30
0.0
  3
block 9
  1

  0
SPLINE
  5
129
330
125
100
AcDbEntity
  8
Layer 1
370
     0
100
AcDbSpline
210
0.0
220
0.0
230
1.0
 70
    11
 71
     3
 72
    17
 73
    13
 74
     0
 42
0.0000000001
 43
0.0000000001
 12
1.0
 22
0.0
 32
0.0
 13
1.0
 23
0.0
 33
0.0
 40
0.0
 40
0.0
 40
0.0
 40
0.0
 40
1.0
 40
1.0
 40
1.0
 40
2.0
 40
2.0
 40
2.0
 40
3.0
 40
3.0
 40
3.0
 40
4.0
 40
4.0
 40
4.0
 40
4.0
 10
1.90500005086263
 20
6.270832909478081
 30
0.0
 10
2.003184000651042
 20
6.270832909478081
 30
0.0
 10
2.082777871025933
 20
6.191239251030816
 30
0.0
 10
2.082777871025933
 20
6.093055301242404
 30
0.0
 10
2.082777871025933
 20
5.994871351453993
 30
0.0
 10
2.003184000651042
 20
5.915277693006727
 30
0.0
 10
1.90500005086263
 20
5.915277693006727
 30
0.0
 10
1.806816101074219
 20
5.915277693006727
 30
0.0
 10
1.727222230699327
 20
5.994871351453993
 30
0.0
 10
1.727222230699327
 20
6.093055301242404
 30
0.0
 10
1.727222230699327
 20
6.191239251030816
 30
0.0
 10
1.806816101074219
 20
6.270832909478081
 30
0.0
 10
1.90500005086263
 20
6.270832909478081
 30
0.0
  0
HATCH
  5
12A
330
125
100
AcDbEntity
  8
Layer 1
 62
     7
420
 16777215
100
AcDbHatch
 10
0.0
 20
0.0
 30
0.0
210
0.0
220
0.0
230
1.0
  2
SOLID
 70
     1
 71
     0
 91
        1
 92
        1
 93
        1
 72
     4
 94
        3
 73
     0
 74
     1
 95
       17
 96
       13
 40
0.0
 40
0.0
 40
0.0
 40
0.0
 40
1.0
 40
1.0
 40
1.0
 40
2.0
 40
2.0
 40
2.0
 40
3.0
 40
3.0
 40
3.0
 40
4.0
 40
4.0
 40
4.0
 40
4.0
 10
1.90500005086263
 20
6.270832909478081
 10
2.003184000651042
 20
6.270832909478081
 10
2.082777871025933
 20
6.191239251030816
 10
2.082777871025933
 20
6.093055301242404
 10
2.082777871025933
 20
5.994871351453993
 10
2.003184000651042
 20
5.915277693006727
 10
1.90500005086263
 20
5.915277693006727
 10
1.806816101074219
 20
5.915277693006727
 10
1.727222230699327
 20
5.994871351453993
 10
1.727222230699327
 20
6.093055301242404
 10
1.727222230699327
 20
6.191239251030816
 10
1.806816101074219
 20
6.270832909478081
 10
1.90500005086263
 20
6.270832909478081
 97
        0
 97
        0
 75
     2
 76
     1
 98
        0
  0
SPLINE
  5
12B
330
125
100
AcDbEntity
  8
Layer 1
370
     0
100
AcDbSpline
210
0.0
220
0.0
230
1.0
 70
    11
 71
     3
 72
    17
 73
    13
 74
     0
 42
0.0000000001
 43
0.0000000001
 12
1.0
 22
0.0
 32
0.0
 13
1.0
 23
0.0
 33
0.0
 40
0.0
 40
0.0
 40
0.0
 40
0.0
 40
1.0
 40
1.0
 40
1.0
 40
2.0
 40
2.0
 40
2.0
 40
3.0
 40
3.0
 40
3.0
 40
4.0
 40
4.0
 40
4.0
 40
4.0
 10
3.321666717529297
 20
6.270832909478081
 30
0.0
 10
3.419850667317708
 20
6.270832909478081
 30
0.0
 10
3.4994445376926
 20
6.191239251030816
 30
0.0
 10
3.4994445376926
 20
6.093055301242404
 30
0.0
 10
3.4994445376926
 20
5.994871351453993
 30
0.0
 10
3.419850667317708
 20
5.915277693006727
 30
0.0
 10
3.321666717529297
 20
5.915277693006727
 30
0.0
 10
3.223482767740885
 20
5.915277693006727
 30
0.0
 10
3.143888897365994
 20
5.994871351453993
 30
0.0
 10
3.143888897365994
 20
6.093055301242404
 30
0.0
 10
3.143888897365994
 20
6.191239251030816
 30
0.0
 10
3.223482767740885
 20
6.270832909478081
 30
0.0
 10
3.321666717529297
 20
6.270832909478081
 30
0.0
  0
HATCH
  5
12C
330
125
100
AcDbEntity
  8
Layer 1
 62
     7
420
 16777215
100
AcDbHatch
 10
0.0
 20
0.0
 30
0.0
210
0.0
220
0.0
230
1.0
  2
SOLID
 70
     1
 71
     0
 91
        1
 92
        1
 93
        1
 72
     4
 94
        3
 73
     0
 74
     1
 95
       17
 96
       13
 40
0.0
 40
0.0
 40
0.0
 40
0.0
 40
1.0
 40
1.0
 40
1.0
 40
2.0
 40
2.0
 40
2.0
 40
3.0
 40
3.0
 40
3.0
 40
4.0
 40
4.0
 40
4.0
 40
4.0
 10
3.321666717529297
 20
6.270832909478081
 10
3.419850667317708
 20
6.270832909478081
 10
3.4994445376926
 20
6.191239251030816
 10
3.4994445376926
 20
6.093055301242404
 10
3.4994445376926
 20
5.994871351453993
 10
3.419850667317708
 20
5.915277693006727
 10
3.321666717529297
 20
5.915277693006727
 10
3.223482767740885
 20
5.915277693006727
 10
3.143888897365994
 20
5.994871351453993
 10
3.143888897365994
 20
6.093055301242404
 10
3.143888897365994
 20
6.191239251030816
 10
3.223482767740885
 20
6.270832909478081
 10
3.321666717529297
 20
6.270832909478081
 97
        0
 97
        0
 75
     2
 76
     1
 98
        0
  0
SPLINE
  5
12D
330
125
100
AcDbEntity
  8
Layer 1
370
     0
100
AcDbSpline
210
0.0
220
0.0
230
1.0
 70
    11
 71
     3
 72
    17
 73
    13
 74
     0
 42
0.0000000001
 43
0.0000000001
 12
1.0
 22
0.0
 32
0.0
 13
1.0
 23
0.0
 33
0.0
 40
0.0
 40
0.0
 40
0.0
 40
0.0
 40
1.0
 40
1.0
 40
1.0
 40
2.0
 40
2.0
 40
2.0
 40
3.0
 40
3.0
 40
3.0
 40
4.0
 40
4.0
 40
4.0
 40
4.0
 10
2.60361115137736
 20
5.845833162466684
 30
0.0
 10
2.60361115137736
 20
5.845833162466684
 30
0.0
 10
2.402222262488471
 20
5.862499998675452
 30
0.0
 10
2.418888886769612
 20
5.737499998675452
 30
0.0
 10
2.43416674931844
 20
5.620833416779836
 30
0.0
 10
2.485555595821805
 20
5.566666834884219
 30
0.0
 10
2.596666706932915
 20
5.566666834884219
 30
0.0
 10
2.707777818044026
 20
5.566666834884219
 30
0.0
 10
2.77861123614841
 20
5.652778115537431
 30
0.0
 10
2.784166706932915
 20
5.72916700442632
 30
0.0
 10
2.792499913109673
 20
5.859722051355574
 30
0.0
 10
2.60361115137736
 20
5.845833162466684
 30
0.0
 10
2.60361115137736
 20
5.845833162466684
 30
0.0
  0
HATCH
  5
12E
330
125
100
AcDbEntity
  8
Layer 1
 62
     7
420
 16777215
100
AcDbHatch
 10
0.0
 20
0.0
 30
0.0
210
0.0
220
0.0
230
1.0
  2
SOLID
 70
     1
 71
     0
 91
        1
 92
        1
 93
        1
 72
     4
 94
        3
 73
     0
 74
     1
 95
       17
 96
       13
 40
0.0
 40
0.0
 40
0.0
 40
0.0
 40
1.0
 40
1.0
 40
1.0
 40
2.0
 40
2.0
 40
2.0
 40
3.0
 40
3.0
 40
3.0
 40
4.0
 40
4.0
 40
4.0
 40
4.0
 10
2.60361115137736
 20
5.845833162466684
 10
2.60361115137736
 20
5.845833162466684
 10
2.402222262488471
 20
5.862499998675452
 10
2.418888886769612
 20
5.737499998675452
 10
2.43416674931844
 20
5.620833416779836
 10
2.485555595821805
 20
5.566666834884219
 10
2.596666706932915
 20
5.566666834884219
 10
2.707777818044026
 20
5.566666834884219
 10
2.77861123614841
 20
5.652778115537431
 10
2.784166706932915
 20
5.72916700442632
 10
2.792499913109673
 20
5.859722051355574
 10
2.60361115137736
 20
5.845833162466684
 10
2.60361115137736
 20
5.845833162466684
 97
        0
 97
        0
 75
     2
 76
     1
 98
        0
  0
ENDBLK
  5
128
330
125
100
AcDbEntity
  8
0
100
AcDbBlockEnd
  0
BLOCK
  5
131
330
12F
100
AcDbEntity
  8
0
100
AcDbBlockBegin
  2
block 10
 70
     0
 10
0.0
 20
0.0
 30
0.0
  3
block 10
  1

  0
SPLINE
  5
133
330
12F
100
AcDbEntity
  8
Layer 1
 62
   243
420
 16470906
370
    35
100
AcDbSpline
210
0.0
220
0.0
230
1.0
 70
    11
 71
     3
 72
    20
 73
    16
 74
     0
 42
0.0000000001
 43
0.0000000001
 12
1.0
 22
0.0
 32
0.0
 13
1.0
 23
0.0
 33
0.0
 40
0.0
 40
0.0
 40
0.0
 40
0.0
 40
1.0
 40
1.0
 40
1.0
 40
2.0
 40
2.0
 40
2.0
 40
3.0
 40
3.0
 40
3.0
 40
4.0
 40
4.0
 40
4.0
 40
5.0
 40
5.0
 40
5.0
 40
5.0
 10
2.527222262488471
 20
5.030555215146806
 30
0.0
 10
2.527222262488471
 20
5.030555215146806
 30
0.0
 10
2.453611108991835
 20
4.813888463709089
 30
0.0
 10
2.453611108991835
 20
4.695832908153534
 30
0.0
 10
2.453611108991835
 20
4.577777352597978
 30
0.0
 10
2.47861115137736
 20
4.447221881813473
 30
0.0
 10
2.591111024220784
 20
4.447221881813473
 30
0.0
 10
2.703610897064209
 20
4.447221881813473
 30
0.0
 10
2.781388759613037
 20
4.490277522140079
 30
0.0
 10
2.766111108991835
 20
4.695832908153534
 30
0.0
 10
2.755380577511258
 20
4.807023280196719
 30
0.0
 10
2.735404067569309
 20
4.917126463519202
 30
0.0
 10
2.706388844384087
 20
5.024999744362301
 30
0.0
 10
2.706388844384087
 20
5.024999744362301
 30
0.0
 10
2.527222262488471
 20
5.030555215146806
 30
0.0
 10
2.527222262488471
 20
5.030555215146806
 30
0.0
  0
HATCH
  5
134
330
12F
100
AcDbEntity
  8
Layer 1
 62
   243
420
 16470906
100
AcDbHatch
 10
0.0
 20
0.0
 30
0.0
210
0.0
220
0.0
230
1.0
  2
SOLID
 70
     1
 71
     0
 91
        1
 92
        1
 93
        1
 72
     4
 94
        3
 73
     0
 74
     1
 95
       20
 96
       16
 40
0.0
 40
0.0
 40
0.0
 40
0.0
 40
1.0
 40
1.0
 40
1.0
 40
2.0
 40
2.0
 40
2.0
 40
3.0
 40
3.0
 40
3.0
 40
4.0
 40
4.0
 40
4.0
 40
5.0
 40
5.0
 40
5.0
 40
5.0
 10
2.527222262488471
 20
5.030555215146806
 10
2.527222262488471
 20
5.030555215146806
 10
2.453611108991835
 20
4.813888463709089
 10
2.453611108991835
 20
4.695832908153534
 10
2.453611108991835
 20
4.577777352597978
 10
2.47861115137736
 20
4.447221881813473
 10
2.591111024220784
 20
4.447221881813473
 10
2.703610897064209
 20
4.447221881813473
 10
2.781388759613037
 20
4.490277522140079
 10
2.766111108991835
 20
4.695832908153534
 10
2.755380577511258
 20
4.807023280196719
 10
2.735404067569309
 20
4.917126463519202
 10
2.706388844384087
 20
5.024999744362301
 10
2.706388844384087
 20
5.024999744362301
 10
2.527222262488471
 20
5.030555215146806
 10
2.527222262488471
 20
5.030555215146806
 97
        0
 97
        0
 75
     2
 76
     1
 98
        0
  0
ENDBLK
  5
132
330
12F
100
AcDbEntity
  8
0
100
AcDbBlockEnd
  0
ENDSEC
  0
SECTION
  2
ENTITIES
  0
INSERT
  5
42
330
1F
100
AcDbEntity
  8
Layer 1
100
AcDbBlockReference
  2
block 2
 10
0.0
 20
0.0
 30
0.0
  0
INSERT
  5
46
330
1F
100
AcDbEntity
  8
Layer 1
100
AcDbBlockReference
  2
block 3
 10
0.0
 20
0.0
 30
0.0
  0
INSERT
  5
5A
330
1F
100
AcDbEntity
  8
Layer 1
100
AcDbBlockReference
  2
block 4
 10
0.0
 20
0.0
 30
0.0
  0
INSERT
  5
64
330
1F
100
AcDbEntity
  8
Layer 1
100
AcDbBlockReference
  2
block 5
 10
0.0
 20
0.0
 30
0.0
  0
INSERT
  5
BD
330
1F
100
AcDbEntity
  8
Layer 1
100
AcDbBlockReference
  2
block 6
 10
0.0
 20
0.0
 30
0.0
  0
INSERT
  5
DC
330
1F
100
AcDbEntity
  8
Layer 1
100
AcDbBlockReference
  2
block 7
 10
0.0
 20
0.0
 30
0.0
  0
INSERT
  5
115
330
1F
100
AcDbEntity
  8
Layer 1
100
AcDbBlockReference
  2
block 8
 10
0.0
 20
0.0
 30
0.0
  0
ENDSEC
  0
SECTION
  2
OBJECTS
  0
DICTIONARY
  5
C
330
0
100
AcDbDictionary
281
     1
  3
ACAD_GROUP
350
D
  3
ACAD_LAYOUT
350
1A
  3
ACAD_MATERIAL
350
3B
  3
ACAD_MLEADERSTYLE
350
136
  3
ACAD_MLINESTYLE
350
17
  3
ACAD_PLOTSETTINGS
350
19
  3
ACAD_PLOTSTYLENAME
350
E
  3
ACAD_TABLESTYLE
350
135
  3
ACAD_VISUALSTYLE
350
2A
  0
SUN
  5
3F
330
29
100
AcDbSun
 90
        1
290
     0
 63
     7
421
 16777215
 40
1.0
291
     1
 91
  2455826
 92
 54000000
292
     0
 70
     2
 71
   256
280
     1
  0
DICTIONARY
  5
D
102
{ACAD_REACTORS
330
C
102
}
330
C
100
AcDbDictionary
281
     1
  0
DICTIONARY
  5
1A
102
{ACAD_REACTORS
330
C
102
}
330
C
100
AcDbDictionary
281
     1
  3
Layout1
350
1E
  3
Layout2
350
26
  3
Model
350
22
  0
DICTIONARY
  5
3B
102
{ACAD_REACTORS
330
C
102
}
330
C
100
AcDbDictionary
281
     1
  3
ByBlock
350
3D
  3
ByLayer
350
3C
  3
Global
350
3E
  0
DICTIONARY
  5
136
102
{ACAD_REACTORS
330
C
102
}
330
C
100
AcDbDictionary
281
     1
  0
DICTIONARY
  5
17
102
{ACAD_REACTORS
330
C
102
}
330
C
100
AcDbDictionary
281
     1
  3
Standard
350
18
  0
DICTIONARY
  5
19
102
{ACAD_REACTORS
330
C
102
}
330
C
100
AcDbDictionary
281
     1
  0
ACDBDICTIONARYWDFLT
  5
E
102
{ACAD_REACTORS
330
C
102
}
330
C
100
AcDbDictionary
281
     1
  3
Normal
350
F
100
AcDbDictionaryWithDefault
340
F
  0
DICTIONARY
  5
135
102
{ACAD_REACTORS
330
C
102
}
330
C
100
AcDbDictionary
281
     1
  0
DICTIONARY
  5
2A
102
{ACAD_REACTORS
330
C
102
}
330
C
100
AcDbDictionary
281
     1
  3
2dWireframe
350
2F
  3
3D Hidden
350
31
  3
3dWireframe
350
30
  3
Basic
350
32
  3
Brighten
350
36
  3
ColorChange
350
3A
  3
Conceptual
350
34
  3
Dim
350
35
  3
Facepattern
350
39
  3
Flat
350
2B
  3
FlatWithEdges
350
2C
  3
Gouraud
350
2D
  3
GouraudWithEdges
350
2E
  3
Linepattern
350
38
  3
Realistic
350
33
  3
Thicken
350
37
  0
LAYOUT
  5
1E
102
{ACAD_REACTORS
330
1A
102
}
330
1A
100
AcDbPlotSettings
  1

  2
none_device
  4

  6

 40
0.0
 41
0.0
 42
0.0
 43
0.0
 44
0.0
 45
0.0
 46
0.0
 47
0.0
 48
0.0
 49
0.0
140
0.0
141
0.0
142
1.0
143
1.0
 70
   688
 72
     0
 73
     0
 74
     5
  7

 75
    16
 76
     0
 77
     2
 78
   300
147
1.0
148
0.0
149
0.0
100
AcDbLayout
  1
Layout1
 70
     1
 71
     1
 10
0.0
 20
0.0
 11
12.0
 21
9.0
 12
0.0
 22
0.0
 32
0.0
 14
1.000000000000000E+20
 24
1.000000000000000E+20
 34
1.000000000000000E+20
 15
-1.000000000000000E+20
 25
-1.000000000000000E+20
 35
-1.000000000000000E+20
146
0.0
 13
0.0
 23
0.0
 33
0.0
 16
1.0
 26
0.0
 36
0.0
 17
0.0
 27
1.0
 37
0.0
 76
     0
330
1B
  0
LAYOUT
  5
26
102
{ACAD_REACTORS
330
1A
102
}
330
1A
100
AcDbPlotSettings
  1

  2
none_device
  4

  6

 40
0.0
 41
0.0
 42
0.0
 43
0.0
 44
0.0
 45
0.0
 46
0.0
 47
0.0
 48
0.0
 49
0.0
140
0.0
141
0.0
142
1.0
143
1.0
 70
   688
 72
     0
 73
     0
 74
     5
  7

 75
    16
 76
     0
 77
     2
 78
   300
147
1.0
148
0.0
149
0.0
100
AcDbLayout
  1
Layout2
 70
     1
 71
     2
 10
0.0
 20
0.0
 11
0.0
 21
0.0
 12
0.0
 22
0.0
 32
0.0
 14
0.0
 24
0.0
 34
0.0
 15
0.0
 25
0.0
 35
0.0
146
0.0
 13
0.0
 23
0.0
 33
0.0
 16
1.0
 26
0.0
 36
0.0
 17
0.0
 27
1.0
 37
0.0
 76
     0
330
23
  0
LAYOUT
  5
22
102
{ACAD_REACTORS
330
1A
102
}
330
1A
100
AcDbPlotSettings
  1

  2
none_device
  4

  6

 40
0.0
 41
0.0
 42
0.0
 43
0.0
 44
0.0
 45
0.0
 46
0.0
 47
0.0
 48
0.0
 49
0.0
140
0.0
141
0.0
142
1.0
143
1.0
 70
  1712
 72
     0
 73
     0
 74
     0
  7

 75
     0
 76
     0
 77
     2
 78
   300
147
1.0
148
0.0
149
0.0
100
AcDbLayout
  1
Model
 70
     1
 71
     0
 10
0.0
 20
0.0
 11
12.0
 21
9.0
 12
0.0
 22
0.0
 32
0.0
 14
1.000000000000000E+20
 24
1.000000000000000E+20
 34
1.000000000000000E+20
 15
-1.000000000000000E+20
 25
-1.000000000000000E+20
 35
-1.000000000000000E+20
146
0.0
 13
0.0
 23
0.0
 33
0.0
 16
1.0
 26
0.0
 36
0.0
 17
0.0
 27
1.0
 37
0.0
 76
     0
330
1F
331
29
  0
MATERIAL
  5
3D
102
{ACAD_REACTORS
330
3B
102
}
330
3B
100
AcDbMaterial
  1
ByBlock
 72
     1
 94
      127
  0
MATERIAL
  5
3C
102
{ACAD_REACTORS
330
3B
102
}
330
3B
100
AcDbMaterial
  1
ByLayer
 72
     1
 94
      127
  0
MATERIAL
  5
3E
102
{ACAD_REACTORS
330
3B
102
}
330
3B
100
AcDbMaterial
  1
Global
 72
     1
 94
      127
  0
MLINESTYLE
  5
18
102
{ACAD_REACTORS
330
17
102
}
330
17
100
AcDbMlineStyle
  2
Standard
 70
     0
  3

 62
   256
 51
90.0
 52
90.0
 71
     2
 49
0.5
 62
   256
  6
BYLAYER
 49
-0.5
 62
   256
  6
BYLAYER
  0
ACDBPLACEHOLDER
  5
F
102
{ACAD_REACTORS
330
E
102
}
330
E
  0
VISUALSTYLE
  5
2F
102
{ACAD_REACTORS
330
2A
102
}
330
2A
100
AcDbVisualStyle
  2
2dWireframe
 70
     4
177
     2
291
     0
 71
     0
176
     1
 72
     2
176
     1
 73
     0
176
     1
 90
        0
176
     1
 40
-0.6
176
     1
 41
-30.0
176
     1
 62
     5
 63
     7
421
 16777215
176
     1
 74
     1
176
     1
 91
        4
176
     1
 64
     7
176
     1
 65
   257
176
     1
 75
     1
176
     1
175
     1
176
     1
 42
1.0
176
     1
 92
        0
176
     1
 66
   257
176
     1
 43
1.0
176
     1
 76
     1
176
     1
 77
     6
176
     1
 78
     2
176
     1
 67
     7
176
     1
 79
     5
176
     1
170
     0
176
     1
171
     0
176
     1
290
     0
176
     1
 93
        1
176
     1
 44
0.0
176
     1
173
     0
176
     1
  0
VISUALSTYLE
  5
31
102
{ACAD_REACTORS
330
2A
102
}
330
2A
100
AcDbVisualStyle
  2
3D Hidden
 70
     6
177
     2
291
     0
 71
     1
176
     1
 72
     2
176
     1
 73
     2
176
     1
 90
        0
176
     1
 40
-0.6
176
     1
 41
-30.0
176
     1
 62
     5
 63
     7
421
 16777215
176
     1
 74
     2
176
     1
 91
        2
176
     1
 64
     7
176
     1
 65
   257
176
     1
 75
     2
176
     1
175
     1
176
     1
 42
40.0
176
     1
 92
        0
176
     1
 66
   257
176
     1
 43
1.0
176
     1
 76
     1
176
     1
 77
     6
176
     1
 78
     2
176
     1
 67
     7
176
     1
 79
     3
176
     1
170
     0
176
     1
171
     0
176
     1
290
     0
176
     1
 93
        1
176
     1
 44
0.0
176
     1
173
     0
176
     1
  0
VISUALSTYLE
  5
30
102
{ACAD_REACTORS
330
2A
102
}
330
2A
100
AcDbVisualStyle
  2
3dWireframe
 70
     5
177
     2
291
     0
 71
     0
176
     1
 72
     2
176
     1
 73
     0
176
     1
 90
        0
176
     1
 40
-0.6
176
     1
 41
-30.0
176
     1
 62
     5
 63
     7
421
 16777215
176
     1
 74
     1
176
     1
 91
        4
176
     1
 64
     7
176
     1
 65
   257
176
     1
 75
     1
176
     1
175
     1
176
     1
 42
1.0
176
     1
 92
        0
176
     1
 66
   257
176
     1
 43
1.0
176
     1
 76
     1
176
     1
 77
     6
176
     1
 78
     2
176
     1
 67
     7
176
     1
 79
     5
176
     1
170
     0
176
     1
171
     0
176
     1
290
     0
176
     1
 93
        1
176
     1
 44
0.0
176
     1
173
     0
176
     1
  0
VISUALSTYLE
  5
32
102
{ACAD_REACTORS
330
2A
102
}
330
2A
100
AcDbVisualStyle
  2
Basic
 70
     7
177
     2
291
     1
 71
     1
176
     1
 72
     0
176
     1
 73
     1
176
     1
 90
        0
176
     1
 40
-0.6
176
     1
 41
-30.0
176
     1
 62
     5
 63
     7
421
 16777215
176
     1
 74
     0
176
     1
 91
        4
176
     1
 64
     7
176
     1
 65
   257
176
     1
 75
     1
176
     1
175
     1
176
     1
 42
1.0
176
     1
 92
        8
176
     1
 66
     7
176
     1
 43
1.0
176
     1
 76
     1
176
     1
 77
     6
176
     1
 78
     2
176
     1
 67
     7
176
     1
 79
     5
176
     1
170
     0
176
     1
171
     0
176
     1
290
     0
176
     1
 93
        1
176
     1
 44
0.0
176
     1
173
     0
176
     1
  0
VISUALSTYLE
  5
36
102
{ACAD_REACTORS
330
2A
102
}
330
2A
100
AcDbVisualStyle
  2
Brighten
 70
    12
177
     2
291
     1
 71
     2
176
     1
 72
     2
176
     1
 73
     0
176
     1
 90
        0
176
     1
 40
-0.6
176
     1
 41
-30.0
176
     1
 62
     5
 63
     7
421
 16777215
176
     1
 74
     1
176
     1
 91
        4
176
     1
 64
     7
176
     1
 65
   257
176
     1
 75
     1
176
     1
175
     1
176
     1
 42
1.0
176
     1
 92
        8
176
     1
 66
     7
176
     1
 43
1.0
176
     1
 76
     1
176
     1
 77
     6
176
     1
 78
     2
176
     1
 67
     7
176
     1
 79
     5
176
     1
170
     0
176
     1
171
     0
176
     1
290
     0
176
     1
 93
        1
176
     1
 44
50.0
176
     1
173
     0
176
     1
  0
VISUALSTYLE
  5
3A
102
{ACAD_REACTORS
330
2A
102
}
330
2A
100
AcDbVisualStyle
  2
ColorChange
 70
    16
177
     2
291
     1
 71
     2
176
     1
 72
     2
176
     1
 73
     3
176
     1
 90
        0
176
     1
 40
-0.6
176
     1
 41
-30.0
176
     1
 62
     5
 63
     8
421
  8421504
176
     1
 74
     1
176
     1
 91
        4
176
     1
 64
     7
176
     1
 65
   257
176
     1
 75
     1
176
     1
175
     1
176
     1
 42
1.0
176
     1
 92
        8
176
     1
 66
     8
424
  8421504
176
     1
 43
1.0
176
     1
 76
     1
176
     1
 77
     6
176
     1
 78
     2
176
     1
 67
     7
176
     1
 79
     5
176
     1
170
     0
176
     1
171
     0
176
     1
290
     0
176
     1
 93
        1
176
     1
 44
0.0
176
     1
173
     0
176
     1
  0
VISUALSTYLE
  5
34
102
{ACAD_REACTORS
330
2A
102
}
330
2A
100
AcDbVisualStyle
  2
Conceptual
 70
     9
177
     2
291
     0
 71
     3
176
     1
 72
     2
176
     1
 73
     0
176
     1
 90
        0
176
     1
 40
-0.6
176
     1
 41
-30.0
176
     1
 62
     5
 63
     7
421
 16777215
176
     1
 74
     2
176
     1
 91
        2
176
     1
 64
     7
176
     1
 65
   257
176
     1
 75
     1
176
     1
175
     1
176
     1
 42
40.0
176
     1
 92
        8
176
     1
 66
     7
176
     1
 43
1.0
176
     1
 76
     1
176
     1
 77
     6
176
     1
 78
     2
176
     1
 67
     7
176
     1
 79
     3
176
     1
170
     0
176
     1
171
     0
176
     1
290
     0
176
     1
 93
        1
176
     1
 44
0.0
176
     1
173
     0
176
     1
  0
VISUALSTYLE
  5
35
102
{ACAD_REACTORS
330
2A
102
}
330
2A
100
AcDbVisualStyle
  2
Dim
 70
    11
177
     2
291
     1
 71
     2
176
     1
 72
     2
176
     1
 73
     0
176
     1
 90
        0
176
     1
 40
-0.6
176
     1
 41
-30.0
176
     1
 62
     5
 63
     7
421
 16777215
176
     1
 74
     1
176
     1
 91
        4
176
     1
 64
     7
176
     1
 65
   257
176
     1
 75
     1
176
     1
175
     1
176
     1
 42
1.0
176
     1
 92
        8
176
     1
 66
     7
176
     1
 43
1.0
176
     1
 76
     1
176
     1
 77
     6
176
     1
 78
     2
176
     1
 67
     7
176
     1
 79
     5
176
     1
170
     0
176
     1
171
     0
176
     1
290
     0
176
     1
 93
        1
176
     1
 44
-50.0
176
     1
173
     0
176
     1
  0
VISUALSTYLE
  5
39
102
{ACAD_REACTORS
330
2A
102
}
330
2A
100
AcDbVisualStyle
  2
Facepattern
 70
    15
177
     2
291
     1
 71
     2
176
     1
 72
     2
176
     1
 73
     0
176
     1
 90
        0
176
     1
 40
-0.6
176
     1
 41
-30.0
176
     1
 62
     5
 63
     7
421
 16777215
176
     1
 74
     1
176
     1
 91
        4
176
     1
 64
     7
176
     1
 65
   257
176
     1
 75
     1
176
     1
175
     1
176
     1
 42
1.0
176
     1
 92
        8
176
     1
 66
     7
176
     1
 43
1.0
176
     1
 76
     1
176
     1
 77
     6
176
     1
 78
     2
176
     1
 67
     7
176
     1
 79
     5
176
     1
170
     0
176
     1
171
     0
176
     1
290
     0
176
     1
 93
        1
176
     1
 44
0.0
176
     1
173
     0
176
     1
  0
VISUALSTYLE
  5
2B
102
{ACAD_REACTORS
330
2A
102
}
330
2A
100
AcDbVisualStyle
  2
Flat
 70
     0
177
     2
291
     1
 71
     2
176
     1
 72
     1
176
     1
 73
     1
176
     1
 90
        2
176
     1
 40
-0.6
176
     1
 41
30.0
176
     1
 62
     5
 63
     7
421
 16777215
176
     1
 74
     0
176
     1
 91
        4
176
     1
 64
     7
176
     1
 65
   257
176
     1
 75
     1
176
     1
175
     1
176
     1
 42
1.0
176
     1
 92
        8
176
     1
 66
     7
176
     1
 43
1.0
176
     1
 76
     1
176
     1
 77
     6
176
     1
 78
     2
176
     1
 67
     7
176
     1
 79
     5
176
     1
170
     0
176
     1
171
     0
176
     1
290
     0
176
     1
 93
       13
176
     1
 44
0.0
176
     1
173
     0
176
     1
  0
VISUALSTYLE
  5
2C
102
{ACAD_REACTORS
330
2A
102
}
330
2A
100
AcDbVisualStyle
  2
FlatWithEdges
 70
     1
177
     2
291
     1
 71
     2
176
     1
 72
     1
176
     1
 73
     1
176
     1
 90
        2
176
     1
 40
-0.6
176
     1
 41
30.0
176
     1
 62
     5
 63
     7
421
 16777215
176
     1
 74
     1
176
     1
 91
        4
176
     1
 64
     7
176
     1
 65
   257
176
     1
 75
     1
176
     1
175
     1
176
     1
 42
1.0
176
     1
 92
        0
176
     1
 66
   257
176
     1
 43
1.0
176
     1
 76
     1
176
     1
 77
     6
176
     1
 78
     2
176
     1
 67
     7
176
     1
 79
     5
176
     1
170
     0
176
     1
171
     0
176
     1
290
     0
176
     1
 93
       13
176
     1
 44
0.0
176
     1
173
     0
176
     1
  0
VISUALSTYLE
  5
2D
102
{ACAD_REACTORS
330
2A
102
}
330
2A
100
AcDbVisualStyle
  2
Gouraud
 70
     2
177
     2
291
     1
 71
     2
176
     1
 72
     2
176
     1
 73
     1
176
     1
 90
        2
176
     1
 40
-0.6
176
     1
 41
30.0
176
     1
 62
     5
 63
     7
421
 16777215
176
     1
 74
     0
176
     1
 91
        4
176
     1
 64
     7
176
     1
 65
   257
176
     1
 75
     1
176
     1
175
     1
176
     1
 42
1.0
176
     1
 92
        0
176
     1
 66
     7
176
     1
 43
1.0
176
     1
 76
     1
176
     1
 77
     6
176
     1
 78
     2
176
     1
 67
     7
176
     1
 79
     5
176
     1
170
     0
176
     1
171
     0
176
     1
290
     0
176
     1
 93
       13
176
     1
 44
0.0
176
     1
173
     0
176
     1
  0
VISUALSTYLE
  5
2E
102
{ACAD_REACTORS
330
2A
102
}
330
2A
100
AcDbVisualStyle
  2
GouraudWithEdges
 70
     3
177
     2
291
     1
 71
     2
176
     1
 72
     2
176
     1
 73
     1
176
     1
 90
        2
176
     1
 40
-0.6
176
     1
 41
30.0
176
     1
 62
     5
 63
     7
421
 16777215
176
     1
 74
     1
176
     1
 91
        4
176
     1
 64
     7
176
     1
 65
   257
176
     1
 75
     1
176
     1
175
     1
176
     1
 42
1.0
176
     1
 92
        0
176
     1
 66
   257
176
     1
 43
1.0
176
     1
 76
     1
176
     1
 77
     6
176
     1
 78
     2
176
     1
 67
     7
176
     1
 79
     5
176
     1
170
     0
176
     1
171
     0
176
     1
290
     0
176
     1
 93
       13
176
     1
 44
0.0
176
     1
173
     0
176
     1
  0
VISUALSTYLE
  5
38
102
{ACAD_REACTORS
330
2A
102
}
330
2A
100
AcDbVisualStyle
  2
Linepattern
 70
    14
177
     2
291
     1
 71
     2
176
     1
 72
     2
176
     1
 73
     0
176
     1
 90
        0
176
     1
 40
-0.6
176
     1
 41
-30.0
176
     1
 62
     5
 63
     7
421
 16777215
176
     1
 74
     1
176
     1
 91
        4
176
     1
 64
     7
176
     1
 65
   257
176
     1
 75
     7
176
     1
175
     7
176
     1
 42
1.0
176
     1
 92
        8
176
     1
 66
     7
176
     1
 43
1.0
176
     1
 76
     1
176
     1
 77
     6
176
     1
 78
     2
176
     1
 67
     7
176
     1
 79
     5
176
     1
170
     0
176
     1
171
     0
176
     1
290
     0
176
     1
 93
        1
176
     1
 44
0.0
176
     1
173
     0
176
     1
  0
VISUALSTYLE
  5
33
102
{ACAD_REACTORS
330
2A
102
}
330
2A
100
AcDbVisualStyle
  2
Realistic
 70
     8
177
     2
291
     0
 71
     2
176
     1
 72
     2
176
     1
 73
     0
176
     1
 90
        0
176
     1
 40
-0.6
176
     1
 41
-30.0
176
     1
 62
     5
 63
     7
421
 16777215
176
     1
 74
     1
176
     1
 91
        0
176
     1
 64
     7
176
     1
 65
   257
176
     1
 75
     1
176
     1
175
     1
176
     1
 42
1.0
176
     1
 92
        8
176
     1
 66
     8
424
  7895160
176
     1
 43
1.0
176
     1
 76
     1
176
     1
 77
     6
176
     1
 78
     2
176
     1
 67
     7
176
     1
 79
     5
176
     1
170
     0
176
     1
171
     0
176
     1
290
     0
176
     1
 93
       13
176
     1
 44
0.0
176
     1
173
     0
176
     1
  0
VISUALSTYLE
  5
37
102
{ACAD_REACTORS
330
2A
102
}
330
2A
100
AcDbVisualStyle
  2
Thicken
 70
    13
177
     2
291
     1
 71
     2
176
     1
 72
     2
176
     1
 73
     0
176
     1
 90
        0
176
     1
 40
-0.6
176
     1
 41
-30.0
176
     1
 62
     5
 63
     7
421
 16777215
176
     1
 74
     1
176
     1
 91
        4
176
     1
 64
     7
176
     1
 65
   257
176
     1
 75
     1
176
     1
175
     1
176
     1
 42
1.0
176
     1
 92
       12
176
     1
 66
     7
176
     1
 43
1.0
176
     1
 76
     1
176
     1
 77
     6
176
     1
 78
     2
176
     1
 67
     7
176
     1
 79
     5
176
     1
170
     0
176
     1
171
     0
176
     1
290
     0
176
     1
 93
        1
176
     1
 44
0.0
176
     1
173
     0
176
     1
  0
ENDSEC
  0
EOF
