<?xml version="1.0" encoding="utf-8"?>
<!-- Generator: Adobe Illustrator 22.1.0, SVG Export Plug-In . SVG Version: 6.00 Build 0)  -->
<svg version="1.1" xmlns="http://www.w3.org/2000/svg" xmlns:xlink="http://www.w3.org/1999/xlink" x="0px" y="0px"
	 viewBox="0 0 612 792" style="enable-background:new 0 0 612 792;" xml:space="preserve">
<style type="text/css">
	.st0{fill:#AF7E00;stroke:#000000;stroke-miterlimit:10;}
	.st1{fill:none;stroke:#FB537A;stroke-miterlimit:10;}
	.st2{fill:#AF7E00;stroke:#AF7E00;stroke-miterlimit:10;}
	.st3{fill:#AF7E00;}
	.st4{fill:#FB537A;stroke:#FB537A;stroke-miterlimit:10;}
	.st5{fill:none;stroke:#AF0000;stroke-miterlimit:10;}
	.st6{fill:#ADAFB2;}
	.st7{fill:#2C3FB0;}
</style>
<g id="Body">
	<path class="st0" d="M584,680.5l-34.5-76l-23.2-7.9l-21.1-9.6l-88,31.7l-9.5,21.2l-23.5-0.2l-25.7,25l0.2,20.8l-6.1-65.6
		c0-0.4-0.1-0.7-0.1-1.1V495.4c0-0.7,0.1-1.5,0.2-2.2l21.1-100.5c1.4-6.6-3.7-12.9-10.5-12.9h-28.1c-5.1,0-9.5,3.6-10.5,8.6
		l-1.5,7.4c-1,5-5.4,8.6-10.5,8.6H304c-5,0-9.3-3.5-10.4-8.4l-1.8-7.8c-1.1-4.9-5.4-8.4-10.4-8.4h-29.2c-6.8,0-11.9,6.3-10.4,13
		l21.9,100.4c0.2,0.7,0.2,1.5,0.2,2.3v122.8c0,0.3,0,0.7,0,1l-6.3,67.7l0.3-22.6l-25.7-25l-23.5,0.2l-9.5-21.2l-88-31.7l-22,10l0,0
		l-22.7,7.7l-34.5,76l9,23l0.5-1.2l54.4,19.3c4.8,1.7,10.1-0.6,12.2-5.2l3.5-7.8l2.3-5c5.2,3.9,10.4,7.8,15.6,11.7
		c11.6,8.8,26.2,10.2,40.2,12.1c2.1,0.3,27.4,2.6,27.6,3.7l2,17.6c0.6,5.1,4.1,9.4,9,11l19.8,6.6c5.8,1.9,12-1.4,13.6-7.3
		c-0.3,6,4.4,11.3,10.7,11.3h29.7c5,0,9.4-3.5,10.4-8.4l1.6-7.3c1.1-4.9,5.4-8.4,10.4-8.4h7.8c5,0,9.4,3.5,10.5,8.5l1.4,6.6
		c1,4.9,5.4,8.5,10.4,8.5l29.1,0.1c6.5,0,11.4-5.6,10.6-11.9l0.2,0.8c1.4,6.1,7.8,9.7,13.8,7.8l19.8-6.6c4.9-1.6,8.4-5.9,9-11
		l2-17.6c0.1-1.1,25.5-3.4,27.6-3.7c14-1.9,28.6-3.3,40.2-12.1c5.2-3.9,10.4-7.8,15.6-11.7l2.3,5l3.5,7.8c2.1,4.6,7.4,6.9,12.2,5.2
		l54.1-19.2l0.4,0.8L584,680.5z"/>
	<path class="st1" d="M352,619.5h-89 M263,494.5h89.5 M41.5,702.5L88,598l120.5,42l49.5,47h100.5l50-47.5L527,598l47.5,103.5
		 M358.5,687l15.5,71.5 M258,687l-15.5,69"/>
</g>
<g id="Head">
	<path class="st2" d="M104.3,90.6l-16.8,17.7l3.4,42.7l19.1,14.3L92,182l-1.5,70.2l18.3,18l-88.9-49.8L-30,281l65.1,71.8l63.2,25
		l40.4-20.7l-21.7,12l-2.6,9l12.9,18.7l-23.6,8l-12.9,27l7.9,22l-16.8,17l1.7,67l40.4,33l68.7-1.3l38.1-32l1.9-66.3L215,453.5
		l8.6-22l-12-26.3l-24.7-8.3l13.8-19.7l-3.7-9l-21.3-11l39.6,20l63.9-23.3l64.8-71.3l-49-60.4l-89.4,47l17.9-17l-0.3-69.8l-19.9-16
		l20.5-15.7l3.4-42L210,90.4L104.3,90.6z M163.4,393.5c4.5,2.8,18.5,4,18.5,4h-49.6c0,0,12.6-1.2,17.9-3.8c5.4-2.6,6.7-6.5,6.7-6.5
		S158.9,390.8,163.4,393.5z"/>
	<path class="st1" d="M210.1,90.2l-6.7,76l2.2,102.8l-30,88l11.2,39.7l28,56.7l-3.6,99.8H103.1l-4.5-99.5l28.6-57l11.4-39.7l-30-87
		l1.1-104.8l-5.6-74.7 M98,453.8h116.9 M126.1,396.8h62.3 M137.9,357.2h38.7 M109.9,165.2h93.7 M279.3,353.8l-73.5-84.5h-97.6
		l-73.1,83.5"/>
</g>
<g id="Tail">
	<path class="st3" d="M538,562l-0.3-1.7C537.9,561.4,538,562,538,562z M462,572.6l0.5,7.9C462.5,580.5,462.5,577.5,462,572.6z
		 M456.5,576.6l0.5,7.9C457,584.5,457,581.5,456.5,576.6z M532.2,564.3l0.3,1.7C532.5,566,532.4,565.4,532.2,564.3z M586,488
		c1-8.5-0.5-17.5-0.5-17.5l6.5,13l-7-26h-3.9c4.8-1.3,8.3-2.2,7.9-3.5c-1-3-25.5-9-40.3,0.7c-10.1,5.8-19.5,13.4-29.7,19.2
		c-11.5,6.4-24.6,10.1-36.9,14.4c-11.9,4.1-23.1,8.7-35.9,6.5c-7.7-1.3-17.8-2.9-25.2-5.3l0,0l-9.7,2.7l3,36.8l9.9,1.8
		c2.2,2.7,6.3,8.9,11.3,22.2c7.5,20,11,30.5,11,30.5l-6.4-36.9c0.3,0.8,0.6,1.6,0.9,2.4c7.5,20,11,30.5,11,30.5l-7.8-44.6
		c1.2,2.2,2.7,5.2,4.3,9.1c5.2,12.6,7.2,24.9,8,32.6l-2.3-36c5,12.4,7,24.5,7.8,32l-2.5-40.4c1.2,2.4,2.5,5.3,4,8.7
		c7.5,17,16.5,41.5,16.5,41.5l-8.2-39c6.8,16.1,13.7,35,13.7,35L473.8,523c2.7,3.4,5.8,8.4,8.7,15.4c7.5,18.5,13.5,41,13.5,41
		l-3.6-33.4c5.3,15.1,9.1,29.4,9.1,29.4l-5.1-46.6c0.3,0.8,0.7,1.7,1.1,2.6c10,24,19,41,19,41l-4.9-32.5
		c6.5,16.6,10.4,28.5,10.4,28.5l-7.2-47.4c1.8,3.6,3.9,7.6,6.2,11.9c7.3,13.7,10.3,26.7,11.2,31.3l-6.9-37.6
		c0.4,0.8,0.8,1.5,1.2,2.3c7.3,13.7,10.3,26.7,11.2,31.3l-7.7-42.1c0.2,0.4,0.4,0.9,0.6,1.3c9.5,22.5,19,38,19,38l-3.8-34.4
		c6.5,17.4,9.3,30.4,9.3,30.4l-3.5-32.1c0,0,0,0,0,0.1c9,15,21.5,25.5,21.5,25.5l-7.4-25.7c7.4,12.5,12.9,21.7,12.9,21.7l-10.8-37.7
		c1.8,3.4,3.4,6.5,4.8,8.7c2.5,4.3,1.9-3.1,0.2-13.7c2,3.8,3.8,7.3,5.3,9.7c2.5,4.2,1.9-3,0.2-13.4c2.6,3.2,5.1,5.7,6.8,5.9
		c2.5,0.2,0.1-8.9-2.9-18.3C584,488.7,585.6,491.2,586,488z"/>
	<line class="st1" x1="421" y1="489.1" x2="425.2" y2="531.8"/>
</g>
<g id="Box">
	<path class="st4" d="M604.9,275V96.5v-1.4l-4.3-14.8L536,70.7L527,86L513.3,5.6H410.9l-14.4,81.9l-8.8-15.1l-60.1,5.5l-8.1,17.2
		l-0.4,1l0.9,179.2v0.7l5.1,15.8l62.7,10.3l8.8-15l14.1,78.5h102.4l14.1-80.7l9.1,15.5l64.2-9.6L604.9,275L604.9,275z M525.7,278.7
		v3.7l0,0V278.7z"/>
	<path class="st5" d="M320,95.8l77.2-9.6h130.3l77,10 M319.6,276.7l77.6,10.7h131.1l77-11.8 M397.2,86.2v202.6 M527.5,86.2v202.6"/>
</g>
<g id="Earts">
	<path class="st3" d="M389.5,267l33,37.5c0,0,11.5-8.5,12.5-8.5c29.3,0,92.3-25.9,102-43c12.5-22,25-42,2.5-68.5s-63-9-89,11
		c-17.7,13.6-39.3,43.1-48.5,61.5C401.5,258,389.5,267,389.5,267z"/>
	<path class="st3" d="M555.4,413l-33,37.5c0,0-11.5-8.5-12.5-8.5c-29.3,0-92.3-25.9-102-43c-12.5-22-25-42-2.5-68.5s63-9,89,11
		c17.7,13.6,39.3,43.1,48.5,61.5C543.4,404,555.4,413,555.4,413z"/>
	<line class="st1" x1="435" y1="296" x2="402" y2="257"/>
	<line class="st1" x1="509.9" y1="442" x2="542.9" y2="403"/>
</g>
<g id="Layer_1">
	<g id="Pink_Parts">
		<path class="st4" d="M151.3,396.5c0,0-5.3,15.6-5.3,24.1s1.8,17.9,9.9,17.9s13.7-3.1,12.6-17.9c-0.9-11.5-4.3-23.7-4.3-23.7
			L151.3,396.5z"/>
	</g>
	<g id="Eyes__x26__Nose">
		<circle cx="106.5" cy="320" r="12.8"/>
		<circle cx="208.5" cy="320" r="12.8"/>
		<path d="M156.8,337.8c0,0-14.5-1.2-13.3,7.8c1.1,8.4,4.8,12.3,12.8,12.3s13.1-6.2,13.5-11.7C170.4,336.8,156.8,337.8,156.8,337.8z
			"/>
	</g>
	<g id="Collar">
		<circle class="st6" cx="309.2" cy="712.8" r="9.8"/>
		<path class="st7" d="M422.3,638.9l-0.3-4.5h0.1l-0.1-0.2V634h-0.1l-34.1-87.5l-14.9,5.8l34,87.4l-48.4,46.8h-101l-48.3-46.7
			l34.2-87.9l-14.9-5.8L192,634.4l-0.4-0.1l0.2,0.5l-0.2,0.5l0.5,0.1l2.9,6.9c0.4,1.5,1.2,2.9,2.4,4.1l57.3,56h107.7l56.4-54.2
			C421.2,645.7,422.5,642.3,422.3,638.9z"/>
	</g>
</g>
</svg>
