  0
SECTION
  2
HEADER
  9
$ACADVER
  1
AC1024
  9
$ACADMAINTVER
 70
     6
  9
$DWGCODEPAGE
  3
UNDEFINED
  9
$INSBASE
 10
0.0
 20
0.0
 30
0.0
  9
$EXTMIN
 10
1.000000000000000E+20
 20
1.000000000000000E+20
 30
1.000000000000000E+20
  9
$EXTMAX
 10
-1.000000000000000E+20
 20
-1.000000000000000E+20
 30
-1.000000000000000E+20
  9
$LIMMIN
 10
0.0
 20
0.0
  9
$LIMMAX
 10
12.0
 20
9.0
  9
$ORTHOMODE
 70
     0
  9
$REGENMODE
 70
     1
  9
$FILLMODE
 70
     1
  9
$QTEXTMODE
 70
     0
  9
$MIRRTEXT
 70
     1
  9
$LTSCALE
 40
1.0
  9
$ATTMODE
 70
     1
  9
$TEXTSIZE
 40
0.2
  9
$TRACEWID
 40
0.05
  9
$TEXTSTYLE
  7
Standard
  9
$CLAYER
  8
0
  9
$CELTYPE
  6
ByLayer
  9
$CECOLOR
 62
   256
  9
$CELTSCALE
 40
1.0
  9
$DISPSILH
 70
     0
  9
$DIMSCALE
 40
1.0
  9
$DIMASZ
 40
0.18
  9
$DIMEXO
 40
0.0625
  9
$DIMDLI
 40
0.38
  9
$DIMRND
 40
0.0
  9
$DIMDLE
 40
0.0
  9
$DIMEXE
 40
0.18
  9
$DIMTP
 40
0.0
  9
$DIMTM
 40
0.0
  9
$DIMTXT
 40
0.18
  9
$DIMCEN
 40
0.09
  9
$DIMTSZ
 40
0.0
  9
$DIMTOL
 70
     0
  9
$DIMLIM
 70
     0
  9
$DIMTIH
 70
     1
  9
$DIMTOH
 70
     1
  9
$DIMSE1
 70
     0
  9
$DIMSE2
 70
     0
  9
$DIMTAD
 70
     0
  9
$DIMZIN
 70
     0
  9
$DIMBLK
  1

  9
$DIMASO
 70
     1
  9
$DIMSHO
 70
     1
  9
$DIMPOST
  1

  9
$DIMAPOST
  1

  9
$DIMALT
 70
     0
  9
$DIMALTD
 70
     2
  9
$DIMALTF
 40
25.4
  9
$DIMLFAC
 40
1.0
  9
$DIMTOFL
 70
     0
  9
$DIMTVP
 40
0.0
  9
$DIMTIX
 70
     0
  9
$DIMSOXD
 70
     0
  9
$DIMSAH
 70
     0
  9
$DIMBLK1
  1

  9
$DIMBLK2
  1

  9
$DIMSTYLE
  2
Standard
  9
$DIMCLRD
 70
     0
  9
$DIMCLRE
 70
     0
  9
$DIMCLRT
 70
     0
  9
$DIMTFAC
 40
1.0
  9
$DIMGAP
 40
0.09
  9
$DIMJUST
 70
     0
  9
$DIMSD1
 70
     0
  9
$DIMSD2
 70
     0
  9
$DIMTOLJ
 70
     1
  9
$DIMTZIN
 70
     0
  9
$DIMALTZ
 70
     0
  9
$DIMALTTZ
 70
     0
  9
$DIMUPT
 70
     0
  9
$DIMDEC
 70
     4
  9
$DIMTDEC
 70
     4
  9
$DIMALTU
 70
     2
  9
$DIMALTTD
 70
     2
  9
$DIMTXSTY
  7
Standard
  9
$DIMAUNIT
 70
     0
  9
$DIMADEC
 70
     0
  9
$DIMALTRND
 40
0.0
  9
$DIMAZIN
 70
     0
  9
$DIMDSEP
 70
    46
  9
$DIMATFIT
 70
     3
  9
$DIMFRAC
 70
     0
  9
$DIMLDRBLK
  1

  9
$DIMLUNIT
 70
     2
  9
$DIMLWD
 70
    -2
  9
$DIMLWE
 70
    -2
  9
$DIMTMOVE
 70
     0
  9
$DIMFXL
 40
1.0
  9
$DIMFXLON
 70
     0
  9
$DIMJOGANG
 40
0.7853981633974483
  9
$DIMTFILL
 70
     0
  9
$DIMTFILLCLR
 70
     0
  9
$DIMARCSYM
 70
     0
  9
$DIMLTYPE
  6

  9
$DIMLTEX1
  6

  9
$DIMLTEX2
  6

  9
$DIMTXTDIRECTION
 70
     0
  9
$LUNITS
 70
     2
  9
$LUPREC
 70
     4
  9
$SKETCHINC
 40
0.1
  9
$FILLETRAD
 40
0.5
  9
$AUNITS
 70
     0
  9
$AUPREC
 70
     0
  9
$MENU
  1
.
  9
$ELEVATION
 40
0.0
  9
$PELEVATION
 40
0.0
  9
$THICKNESS
 40
0.0
  9
$LIMCHECK
 70
     0
  9
$CHAMFERA
 40
0.5
  9
$CHAMFERB
 40
0.5
  9
$CHAMFERC
 40
1.0
  9
$CHAMFERD
 40
0.0
  9
$SKPOLY
 70
     0
  9
$TDCREATE
 40
2458356.763171285
  9
$TDUCREATE
 40
2458356.97150463
  9
$TDUPDATE
 40
2458356.763171285
  9
$TDUUPDATE
 40
2458356.97150463
  9
$TDINDWG
 40
0.0000000116
  9
$TDUSRTIMER
 40
0.0000000116
  9
$USRTIMER
 70
     1
  9
$ANGBASE
 50
0.0
  9
$ANGDIR
 70
     0
  9
$PDMODE
 70
     0
  9
$PDSIZE
 40
0.0
  9
$PLINEWID
 40
0.0
  9
$SPLFRAME
 70
     0
  9
$SPLINETYPE
 70
     6
  9
$SPLINESEGS
 70
     8
  9
$HANDSEED
  5
11D
  9
$SURFTAB1
 70
     6
  9
$SURFTAB2
 70
     6
  9
$SURFTYPE
 70
     6
  9
$SURFU
 70
     6
  9
$SURFV
 70
     6
  9
$UCSBASE
  2

  9
$UCSNAME
  2

  9
$UCSORG
 10
0.0
 20
0.0
 30
0.0
  9
$UCSXDIR
 10
1.0
 20
0.0
 30
0.0
  9
$UCSYDIR
 10
0.0
 20
1.0
 30
0.0
  9
$UCSORTHOREF
  2

  9
$UCSORTHOVIEW
 70
     0
  9
$UCSORGTOP
 10
0.0
 20
0.0
 30
0.0
  9
$UCSORGBOTTOM
 10
0.0
 20
0.0
 30
0.0
  9
$UCSORGLEFT
 10
0.0
 20
0.0
 30
0.0
  9
$UCSORGRIGHT
 10
0.0
 20
0.0
 30
0.0
  9
$UCSORGFRONT
 10
0.0
 20
0.0
 30
0.0
  9
$UCSORGBACK
 10
0.0
 20
0.0
 30
0.0
  9
$PUCSBASE
  2

  9
$PUCSNAME
  2

  9
$PUCSORG
 10
0.0
 20
0.0
 30
0.0
  9
$PUCSXDIR
 10
1.0
 20
0.0
 30
0.0
  9
$PUCSYDIR
 10
0.0
 20
1.0
 30
0.0
  9
$PUCSORTHOREF
  2

  9
$PUCSORTHOVIEW
 70
     0
  9
$PUCSORGTOP
 10
0.0
 20
0.0
 30
0.0
  9
$PUCSORGBOTTOM
 10
0.0
 20
0.0
 30
0.0
  9
$PUCSORGLEFT
 10
0.0
 20
0.0
 30
0.0
  9
$PUCSORGRIGHT
 10
0.0
 20
0.0
 30
0.0
  9
$PUCSORGFRONT
 10
0.0
 20
0.0
 30
0.0
  9
$PUCSORGBACK
 10
0.0
 20
0.0
 30
0.0
  9
$USERI1
 70
     0
  9
$USERI2
 70
     0
  9
$USERI3
 70
     0
  9
$USERI4
 70
     0
  9
$USERI5
 70
     0
  9
$USERR1
 40
0.0
  9
$USERR2
 40
0.0
  9
$USERR3
 40
0.0
  9
$USERR4
 40
0.0
  9
$USERR5
 40
0.0
  9
$WORLDVIEW
 70
     1
  9
$SHADEDGE
 70
     3
  9
$SHADEDIF
 70
    70
  9
$TILEMODE
 70
     1
  9
$MAXACTVP
 70
    64
  9
$PINSBASE
 10
0.0
 20
0.0
 30
0.0
  9
$PLIMCHECK
 70
     0
  9
$PEXTMIN
 10
1.000000000000000E+20
 20
1.000000000000000E+20
 30
1.000000000000000E+20
  9
$PEXTMAX
 10
-1.000000000000000E+20
 20
-1.000000000000000E+20
 30
-1.000000000000000E+20
  9
$PLIMMIN
 10
0.0
 20
0.0
  9
$PLIMMAX
 10
12.0
 20
9.0
  9
$UNITMODE
 70
     0
  9
$VISRETAIN
 70
     1
  9
$PLINEGEN
 70
     0
  9
$PSLTSCALE
 70
     1
  9
$TREEDEPTH
 70
  3020
  9
$CMLSTYLE
  2
Standard
  9
$CMLJUST
 70
     0
  9
$CMLSCALE
 40
1.0
  9
$PROXYGRAPHICS
 70
     1
  9
$MEASUREMENT
 70
     0
  9
$CELWEIGHT
370
    -1
  9
$ENDCAPS
280
     0
  9
$JOINSTYLE
280
     0
  9
$LWDISPLAY
290
     1
  9
$INSUNITS
 70
     1
  9
$HYPERLINKBASE
  1

  9
$STYLESHEET
  1

  9
$XEDIT
290
     1
  9
$CEPSNTYPE
380
     0
  9
$PSTYLEMODE
290
     1
  9
$FINGERPRINTGUID
  2
{E39508AA-0457-D947-CEA0-7A2BD7463E33}
  9
$VERSIONGUID
  2
{FAEB1C32-E019-11D5-929B-00C0DF256EC4}
  9
$EXTNAMES
290
     1
  9
$PSVPSCALE
 40
0.0
  9
$OLESTARTUP
290
     0
  9
$SORTENTS
280
   127
  9
$INDEXCTL
280
     0
  9
$HIDETEXT
280
     1
  9
$XCLIPFRAME
280
     2
  9
$HALOGAP
280
     0
  9
$OBSCOLOR
 70
   257
  9
$OBSLTYPE
280
     0
  9
$INTERSECTIONDISPLAY
280
     0
  9
$INTERSECTIONCOLOR
 70
   257
  9
$DIMASSOC
280
     2
  9
$PROJECTNAME
  1

  9
$CAMERADISPLAY
290
     0
  9
$LENSLENGTH
 40
50.0
  9
$CAMERAHEIGHT
 40
0.0
  9
$STEPSPERSEC
 40
2.0
  9
$STEPSIZE
 40
6.0
  9
$3DDWFPREC
 40
2.0
  9
$PSOLWIDTH
 40
0.25
  9
$PSOLHEIGHT
 40
4.0
  9
$LOFTANG1
 40
1.570796326794897
  9
$LOFTANG2
 40
1.570796326794897
  9
$LOFTMAG1
 40
0.0
  9
$LOFTMAG2
 40
0.0
  9
$LOFTPARAM
 70
     7
  9
$LOFTNORMALS
280
     1
  9
$LATITUDE
 40
37.795
  9
$LONGITUDE
 40
-122.394
  9
$NORTHDIRECTION
 40
0.0
  9
$TIMEZONE
 70
 -8000
  9
$LIGHTGLYPHDISPLAY
280
     1
  9
$TILEMODELIGHTSYNCH
280
     1
  9
$CMATERIAL
347
3C
  9
$SOLIDHIST
280
     1
  9
$SHOWHIST
280
     1
  9
$DWFFRAME
280
     2
  9
$DGNFRAME
280
     2
  9
$REALWORLDSCALE
290
     1
  9
$INTERFERECOLOR
 62
   256
  9
$CSHADOW
280
     0
  9
$SHADOWPLANELOCATION
 40
0.0
  0
ENDSEC
  0
SECTION
  2
CLASSES
  0
CLASS
  1
ACDBDICTIONARYWDFLT
  2
AcDbDictionaryWithDefault
  3
ObjectDBX Classes
 90
        0
 91
        4
280
     0
281
     0
  0
CLASS
  1
VISUALSTYLE
  2
AcDbVisualStyle
  3
ObjectDBX Classes
 90
     4095
 91
        4
280
     0
281
     0
  0
CLASS
  1
MATERIAL
  2
AcDbMaterial
  3
ObjectDBX Classes
 90
     1153
 91
        4
280
     0
281
     0
  0
CLASS
  1
SUN
  2
AcDbSun
  3
SCENEOE
 90
     1024
 91
        4
280
     0
281
     0
  0
ENDSEC
  0
SECTION
  2
TABLES
  0
TABLE
  2
VPORT
  5
8
330
0
100
AcDbSymbolTable
 70
     1
  0
VPORT
  5
29
330
8
100
AcDbSymbolTableRecord
100
AcDbViewportTableRecord
  2
*Active
 70
     0
 10
0.0
 20
0.0
 11
1.0
 21
1.0
 12
0.0
 22
0.0
 13
0.0
 23
0.0
 14
0.5
 24
0.5
 15
0.5
 25
0.5
 16
0.0
 26
0.0
 36
1.0
 17
4.25
 27
5.5
 37
0.0
 40
11.0
 41
0.7727272727272727
 42
50.0
 43
0.0
 44
0.0
 50
0.0
 51
0.0
 71
     0
 72
   100
 73
     1
 74
     3
 75
     0
 76
     0
 77
     0
 78
     0
281
     0
 65
     1
110
0.0
120
0.0
130
0.0
111
1.0
121
0.0
131
0.0
112
0.0
122
1.0
132
0.0
 79
     0
146
0.0
 60
     3
 61
     5
292
     1
282
     1
141
0.0
142
0.0
 63
   250
361
3F
  0
ENDTAB
  0
TABLE
  2
LTYPE
  5
5
330
0
100
AcDbSymbolTable
 70
     1
  0
LTYPE
  5
14
330
5
100
AcDbSymbolTableRecord
100
AcDbLinetypeTableRecord
  2
ByBlock
 70
     0
  3

 72
    65
 73
     0
 40
0.0
  0
LTYPE
  5
15
330
5
100
AcDbSymbolTableRecord
100
AcDbLinetypeTableRecord
  2
ByLayer
 70
     0
  3

 72
    65
 73
     0
 40
0.0
  0
LTYPE
  5
16
330
5
100
AcDbSymbolTableRecord
100
AcDbLinetypeTableRecord
  2
Continuous
 70
     0
  3
Solid line
 72
    65
 73
     0
 40
0.0
  0
ENDTAB
  0
TABLE
  2
LAYER
  5
2
330
0
100
AcDbSymbolTable
 70
     7
  0
LAYER
  5
10
330
2
100
AcDbSymbolTableRecord
100
AcDbLayerTableRecord
  2
0
 70
     0
 62
     7
  6
Continuous
370
    -3
390
F
347
3E
  0
LAYER
  5
40
330
2
100
AcDbSymbolTableRecord
100
AcDbLayerTableRecord
  2
Body
 70
     0
 62
     7
  6
Continuous
370
    -3
390
F
347
3E
  0
LAYER
  5
5D
330
2
100
AcDbSymbolTableRecord
100
AcDbLayerTableRecord
  2
Head
 70
     0
 62
     7
  6
Continuous
370
    -3
390
F
347
3E
  0
LAYER
  5
B3
330
2
100
AcDbSymbolTableRecord
100
AcDbLayerTableRecord
  2
Tail
 70
     0
 62
     7
  6
Continuous
370
    -3
390
F
347
3E
  0
LAYER
  5
BE
330
2
100
AcDbSymbolTableRecord
100
AcDbLayerTableRecord
  2
Box
 70
     0
 62
     7
  6
Continuous
370
    -3
390
F
347
3E
  0
LAYER
  5
F5
330
2
100
AcDbSymbolTableRecord
100
AcDbLayerTableRecord
  2
Earts
 70
     0
 62
     7
  6
Continuous
370
    -3
390
F
347
3E
  0
LAYER
  5
102
330
2
100
AcDbSymbolTableRecord
100
AcDbLayerTableRecord
  2
Layer 1
 70
     0
 62
     7
  6
Continuous
370
    -3
390
F
347
3E
  0
ENDTAB
  0
TABLE
  2
STYLE
  5
3
330
0
100
AcDbSymbolTable
 70
     1
  0
STYLE
  5
11
330
3
100
AcDbSymbolTableRecord
100
AcDbTextStyleTableRecord
  2
Standard
 70
     0
 40
0.0
 41
1.0
 50
0.0
 71
     0
 42
0.2
  3
txt
  4

  0
ENDTAB
  0
TABLE
  2
VIEW
  5
6
330
0
100
AcDbSymbolTable
 70
     0
  0
ENDTAB
  0
TABLE
  2
UCS
  5
7
330
0
100
AcDbSymbolTable
 70
     0
  0
ENDTAB
  0
TABLE
  2
APPID
  5
9
330
0
100
AcDbSymbolTable
 70
     1
  0
APPID
  5
12
330
9
100
AcDbSymbolTableRecord
100
AcDbRegAppTableRecord
  2
ACAD
 70
     0
  0
ENDTAB
  0
TABLE
  2
DIMSTYLE
  5
A
330
0
100
AcDbSymbolTable
 70
     1
100
AcDbDimStyleTable
  0
DIMSTYLE
105
27
330
A
100
AcDbSymbolTableRecord
100
AcDbDimStyleTableRecord
  2
Standard
 70
     0
178
     0
340
11
  0
ENDTAB
  0
TABLE
  2
BLOCK_RECORD
  5
1
330
0
100
AcDbSymbolTable
 70
     4
  0
BLOCK_RECORD
  5
1F
330
1
100
AcDbSymbolTableRecord
100
AcDbBlockTableRecord
  2
*Model_Space
340
22
 70
     0
280
     1
281
     0
  0
BLOCK_RECORD
  5
1B
330
1
100
AcDbSymbolTableRecord
100
AcDbBlockTableRecord
  2
*Paper_Space
340
1E
 70
     0
280
     1
281
     0
  0
BLOCK_RECORD
  5
23
330
1
100
AcDbSymbolTableRecord
100
AcDbBlockTableRecord
  2
*Paper_Space0
340
26
 70
     0
280
     1
281
     0
  0
BLOCK_RECORD
  5
103
330
1
100
AcDbSymbolTableRecord
100
AcDbBlockTableRecord
  2
block 2
340
0
102
{BLKREFS
331
104
102
}
 70
     0
280
     1
281
     0
  0
BLOCK_RECORD
  5
109
330
1
100
AcDbSymbolTableRecord
100
AcDbBlockTableRecord
  2
block 3
340
0
102
{BLKREFS
331
10A
102
}
 70
     0
280
     1
281
     0
  0
BLOCK_RECORD
  5
113
330
1
100
AcDbSymbolTableRecord
100
AcDbBlockTableRecord
  2
block 4
340
0
102
{BLKREFS
331
114
102
}
 70
     0
280
     1
281
     0
  0
ENDTAB
  0
ENDSEC
  0
SECTION
  2
BLOCKS
  0
BLOCK
  5
20
330
1F
100
AcDbEntity
  8
0
100
AcDbBlockBegin
  2
*Model_Space
 70
     0
 10
0.0
 20
0.0
 30
0.0
  3
*Model_Space
  1

  0
ENDBLK
  5
21
330
1F
100
AcDbEntity
  8
0
100
AcDbBlockEnd
  0
BLOCK
  5
1C
330
1B
100
AcDbEntity
 67
     1
  8
0
100
AcDbBlockBegin
  2
*Paper_Space
 70
     0
 10
0.0
 20
0.0
 30
0.0
  3
*Paper_Space
  1

  0
ENDBLK
  5
1D
330
1B
100
AcDbEntity
 67
     1
  8
0
100
AcDbBlockEnd
  0
BLOCK
  5
24
330
23
100
AcDbEntity
  8
0
100
AcDbBlockBegin
  2
*Paper_Space0
 70
     0
 10
0.0
 20
0.0
 30
0.0
  3
*Paper_Space0
  1

  0
ENDBLK
  5
25
330
23
100
AcDbEntity
  8
0
100
AcDbBlockEnd
  0
BLOCK
  5
105
330
103
100
AcDbEntity
  8
0
100
AcDbBlockBegin
  2
block 2
 70
     0
 10
0.0
 20
0.0
 30
0.0
  3
block 2
  1

  0
SPLINE
  5
107
330
103
100
AcDbEntity
  8
Layer 1
 62
   243
420
 16470906
370
    35
100
AcDbSpline
210
0.0
220
0.0
230
1.0
 70
    11
 71
     3
 72
    20
 73
    16
 74
     0
 42
0.0000000001
 43
0.0000000001
 12
1.0
 22
0.0
 32
0.0
 13
1.0
 23
0.0
 33
0.0
 40
0.0
 40
0.0
 40
0.0
 40
0.0
 40
1.0
 40
1.0
 40
1.0
 40
2.0
 40
2.0
 40
2.0
 40
3.0
 40
3.0
 40
3.0
 40
4.0
 40
4.0
 40
4.0
 40
5.0
 40
5.0
 40
5.0
 40
5.0
 10
2.101388931274414
 20
5.493055555555555
 30
0.0
 10
2.101388931274414
 20
5.493055555555555
 30
0.0
 10
2.027777777777778
 20
5.276388804117838
 30
0.0
 10
2.027777777777778
 20
5.158333248562283
 30
0.0
 10
2.027777777777778
 20
5.040277693006727
 30
0.0
 10
2.052777820163303
 20
4.909722222222222
 30
0.0
 10
2.165277693006727
 20
4.909722222222222
 30
0.0
 10
2.277777565850152
 20
4.909722222222222
 30
0.0
 10
2.35555542839898
 20
4.952777862548828
 30
0.0
 10
2.340277777777778
 20
5.158333248562283
 30
0.0
 10
2.327777862548828
 20
5.318055470784505
 30
0.0
 10
2.28055551317003
 20
5.48750008477105
 30
0.0
 10
2.28055551317003
 20
5.48750008477105
 30
0.0
 10
2.28055551317003
 20
5.48750008477105
 30
0.0
 10
2.101388931274414
 20
5.493055555555555
 30
0.0
 10
2.101388931274414
 20
5.493055555555555
 30
0.0
  0
HATCH
  5
108
330
103
100
AcDbEntity
  8
Layer 1
 62
   243
420
 16470906
100
AcDbHatch
 10
0.0
 20
0.0
 30
0.0
210
0.0
220
0.0
230
1.0
  2
SOLID
 70
     1
 71
     0
 91
        1
 92
        1
 93
        1
 72
     4
 94
        3
 73
     0
 74
     1
 95
       20
 96
       16
 40
0.0
 40
0.0
 40
0.0
 40
0.0
 40
1.0
 40
1.0
 40
1.0
 40
2.0
 40
2.0
 40
2.0
 40
3.0
 40
3.0
 40
3.0
 40
4.0
 40
4.0
 40
4.0
 40
5.0
 40
5.0
 40
5.0
 40
5.0
 10
2.101388931274414
 20
5.493055555555555
 10
2.101388931274414
 20
5.493055555555555
 10
2.027777777777778
 20
5.276388804117838
 10
2.027777777777778
 20
5.158333248562283
 10
2.027777777777778
 20
5.040277693006727
 10
2.052777820163303
 20
4.909722222222222
 10
2.165277693006727
 20
4.909722222222222
 10
2.277777565850152
 20
4.909722222222222
 10
2.35555542839898
 20
4.952777862548828
 10
2.340277777777778
 20
5.158333248562283
 10
2.327777862548828
 20
5.318055470784505
 10
2.28055551317003
 20
5.48750008477105
 10
2.28055551317003
 20
5.48750008477105
 10
2.28055551317003
 20
5.48750008477105
 10
2.101388931274414
 20
5.493055555555555
 10
2.101388931274414
 20
5.493055555555555
 97
        0
 97
        0
 75
     2
 76
     1
 98
        0
  0
ENDBLK
  5
106
330
103
100
AcDbEntity
  8
0
100
AcDbBlockEnd
  0
BLOCK
  5
10B
330
109
100
AcDbEntity
  8
0
100
AcDbBlockBegin
  2
block 3
 70
     0
 10
0.0
 20
0.0
 30
0.0
  3
block 3
  1

  0
SPLINE
  5
10D
330
109
100
AcDbEntity
  8
Layer 1
370
     0
100
AcDbSpline
210
0.0
220
0.0
230
1.0
 70
    11
 71
     3
 72
    17
 73
    13
 74
     0
 42
0.0000000001
 43
0.0000000001
 12
1.0
 22
0.0
 32
0.0
 13
1.0
 23
0.0
 33
0.0
 40
0.0
 40
0.0
 40
0.0
 40
0.0
 40
1.0
 40
1.0
 40
1.0
 40
2.0
 40
2.0
 40
2.0
 40
3.0
 40
3.0
 40
3.0
 40
4.0
 40
4.0
 40
4.0
 40
4.0
 10
1.479166666666667
 20
6.733333163791232
 30
0.0
 10
1.577350616455078
 20
6.733333163791232
 30
0.0
 10
1.656944486829969
 20
6.653739505343967
 30
0.0
 10
1.656944486829969
 20
6.555555555555555
 30
0.0
 10
1.656944486829969
 20
6.457371605767143
 30
0.0
 10
1.577350616455078
 20
6.377777947319878
 30
0.0
 10
1.479166666666667
 20
6.377777947319878
 30
0.0
 10
1.380982716878255
 20
6.377777947319878
 30
0.0
 10
1.301388846503364
 20
6.457371605767143
 30
0.0
 10
1.301388846503364
 20
6.555555555555555
 30
0.0
 10
1.301388846503364
 20
6.653739505343967
 30
0.0
 10
1.380982716878255
 20
6.733333163791232
 30
0.0
 10
1.479166666666667
 20
6.733333163791232
 30
0.0
  0
HATCH
  5
10E
330
109
100
AcDbEntity
  8
Layer 1
 62
     7
420
 16777215
100
AcDbHatch
 10
0.0
 20
0.0
 30
0.0
210
0.0
220
0.0
230
1.0
  2
SOLID
 70
     1
 71
     0
 91
        1
 92
        1
 93
        1
 72
     4
 94
        3
 73
     0
 74
     1
 95
       17
 96
       13
 40
0.0
 40
0.0
 40
0.0
 40
0.0
 40
1.0
 40
1.0
 40
1.0
 40
2.0
 40
2.0
 40
2.0
 40
3.0
 40
3.0
 40
3.0
 40
4.0
 40
4.0
 40
4.0
 40
4.0
 10
1.479166666666667
 20
6.733333163791232
 10
1.577350616455078
 20
6.733333163791232
 10
1.656944486829969
 20
6.653739505343967
 10
1.656944486829969
 20
6.555555555555555
 10
1.656944486829969
 20
6.457371605767143
 10
1.577350616455078
 20
6.377777947319878
 10
1.479166666666667
 20
6.377777947319878
 10
1.380982716878255
 20
6.377777947319878
 10
1.301388846503364
 20
6.457371605767143
 10
1.301388846503364
 20
6.555555555555555
 10
1.301388846503364
 20
6.653739505343967
 10
1.380982716878255
 20
6.733333163791232
 10
1.479166666666667
 20
6.733333163791232
 97
        0
 97
        0
 75
     2
 76
     1
 98
        0
  0
SPLINE
  5
10F
330
109
100
AcDbEntity
  8
Layer 1
370
     0
100
AcDbSpline
210
0.0
220
0.0
230
1.0
 70
    11
 71
     3
 72
    17
 73
    13
 74
     0
 42
0.0000000001
 43
0.0000000001
 12
1.0
 22
0.0
 32
0.0
 13
1.0
 23
0.0
 33
0.0
 40
0.0
 40
0.0
 40
0.0
 40
0.0
 40
1.0
 40
1.0
 40
1.0
 40
2.0
 40
2.0
 40
2.0
 40
3.0
 40
3.0
 40
3.0
 40
4.0
 40
4.0
 40
4.0
 40
4.0
 10
2.895833333333333
 20
6.733333163791232
 30
0.0
 10
2.994017283121745
 20
6.733333163791232
 30
0.0
 10
3.073611153496636
 20
6.653739505343967
 30
0.0
 10
3.073611153496636
 20
6.555555555555555
 30
0.0
 10
3.073611153496636
 20
6.457371605767143
 30
0.0
 10
2.994017283121745
 20
6.377777947319878
 30
0.0
 10
2.895833333333333
 20
6.377777947319878
 30
0.0
 10
2.797649383544922
 20
6.377777947319878
 30
0.0
 10
2.71805551317003
 20
6.457371605767143
 30
0.0
 10
2.71805551317003
 20
6.555555555555555
 30
0.0
 10
2.71805551317003
 20
6.653739505343967
 30
0.0
 10
2.797649383544922
 20
6.733333163791232
 30
0.0
 10
2.895833333333333
 20
6.733333163791232
 30
0.0
  0
HATCH
  5
110
330
109
100
AcDbEntity
  8
Layer 1
 62
     7
420
 16777215
100
AcDbHatch
 10
0.0
 20
0.0
 30
0.0
210
0.0
220
0.0
230
1.0
  2
SOLID
 70
     1
 71
     0
 91
        1
 92
        1
 93
        1
 72
     4
 94
        3
 73
     0
 74
     1
 95
       17
 96
       13
 40
0.0
 40
0.0
 40
0.0
 40
0.0
 40
1.0
 40
1.0
 40
1.0
 40
2.0
 40
2.0
 40
2.0
 40
3.0
 40
3.0
 40
3.0
 40
4.0
 40
4.0
 40
4.0
 40
4.0
 10
2.895833333333333
 20
6.733333163791232
 10
2.994017283121745
 20
6.733333163791232
 10
3.073611153496636
 20
6.653739505343967
 10
3.073611153496636
 20
6.555555555555555
 10
3.073611153496636
 20
6.457371605767143
 10
2.994017283121745
 20
6.377777947319878
 10
2.895833333333333
 20
6.377777947319878
 10
2.797649383544922
 20
6.377777947319878
 10
2.71805551317003
 20
6.457371605767143
 10
2.71805551317003
 20
6.555555555555555
 10
2.71805551317003
 20
6.653739505343967
 10
2.797649383544922
 20
6.733333163791232
 10
2.895833333333333
 20
6.733333163791232
 97
        0
 97
        0
 75
     2
 76
     1
 98
        0
  0
SPLINE
  5
111
330
109
100
AcDbEntity
  8
Layer 1
370
     0
100
AcDbSpline
210
0.0
220
0.0
230
1.0
 70
    11
 71
     3
 72
    17
 73
    13
 74
     0
 42
0.0000000001
 43
0.0000000001
 12
1.0
 22
0.0
 32
0.0
 13
1.0
 23
0.0
 33
0.0
 40
0.0
 40
0.0
 40
0.0
 40
0.0
 40
1.0
 40
1.0
 40
1.0
 40
2.0
 40
2.0
 40
2.0
 40
3.0
 40
3.0
 40
3.0
 40
4.0
 40
4.0
 40
4.0
 40
4.0
 10
2.177777820163303
 20
6.308333502875434
 30
0.0
 10
2.177777820163303
 20
6.308333502875434
 30
0.0
 10
1.976388931274414
 20
6.325000339084201
 30
0.0
 10
1.993055555555555
 20
6.200000339084201
 30
0.0
 10
2.008333418104383
 20
6.083333757188584
 30
0.0
 10
2.059722264607747
 20
6.029167175292969
 30
0.0
 10
2.170833375718858
 20
6.029167175292969
 30
0.0
 10
2.281944486829969
 20
6.029167175292969
 30
0.0
 10
2.352777904934353
 20
6.11527845594618
 30
0.0
 10
2.358333375718858
 20
6.191667344835069
 30
0.0
 10
2.366666581895616
 20
6.322222391764322
 30
0.0
 10
2.177777820163303
 20
6.308333502875434
 30
0.0
 10
2.177777820163303
 20
6.308333502875434
 30
0.0
  0
HATCH
  5
112
330
109
100
AcDbEntity
  8
Layer 1
 62
     7
420
 16777215
100
AcDbHatch
 10
0.0
 20
0.0
 30
0.0
210
0.0
220
0.0
230
1.0
  2
SOLID
 70
     1
 71
     0
 91
        1
 92
        1
 93
        1
 72
     4
 94
        3
 73
     0
 74
     1
 95
       17
 96
       13
 40
0.0
 40
0.0
 40
0.0
 40
0.0
 40
1.0
 40
1.0
 40
1.0
 40
2.0
 40
2.0
 40
2.0
 40
3.0
 40
3.0
 40
3.0
 40
4.0
 40
4.0
 40
4.0
 40
4.0
 10
2.177777820163303
 20
6.308333502875434
 10
2.177777820163303
 20
6.308333502875434
 10
1.976388931274414
 20
6.325000339084201
 10
1.993055555555555
 20
6.200000339084201
 10
2.008333418104383
 20
6.083333757188584
 10
2.059722264607747
 20
6.029167175292969
 10
2.170833375718858
 20
6.029167175292969
 10
2.281944486829969
 20
6.029167175292969
 10
2.352777904934353
 20
6.11527845594618
 10
2.358333375718858
 20
6.191667344835069
 10
2.366666581895616
 20
6.322222391764322
 10
2.177777820163303
 20
6.308333502875434
 10
2.177777820163303
 20
6.308333502875434
 97
        0
 97
        0
 75
     2
 76
     1
 98
        0
  0
ENDBLK
  5
10C
330
109
100
AcDbEntity
  8
0
100
AcDbBlockEnd
  0
BLOCK
  5
115
330
113
100
AcDbEntity
  8
0
100
AcDbBlockBegin
  2
block 4
 70
     0
 10
0.0
 20
0.0
 30
0.0
  3
block 4
  1

  0
SPLINE
  5
117
330
113
100
AcDbEntity
  8
Layer 1
370
     0
100
AcDbSpline
210
0.0
220
0.0
230
1.0
 70
    11
 71
     3
 72
    17
 73
    13
 74
     0
 42
0.0000000001
 43
0.0000000001
 12
1.0
 22
0.0
 32
0.0
 13
1.0
 23
0.0
 33
0.0
 40
0.0
 40
0.0
 40
0.0
 40
0.0
 40
1.0
 40
1.0
 40
1.0
 40
2.0
 40
2.0
 40
2.0
 40
3.0
 40
3.0
 40
3.0
 40
4.0
 40
4.0
 40
4.0
 40
4.0
 10
4.294444613986545
 20
1.236111111111111
 30
0.0
 10
4.3696166144477
 20
1.236111111111111
 30
0.0
 10
4.430555555555555
 20
1.175172593858507
 30
0.0
 10
4.430555555555555
 20
1.100000169542101
 30
0.0
 10
4.430555555555555
 20
1.024827745225694
 30
0.0
 10
4.3696166144477
 20
0.9638892279730902
 30
0.0
 10
4.294444613986545
 20
0.9638892279730902
 30
0.0
 10
4.219272613525391
 20
0.9638892279730902
 30
0.0
 10
4.158333672417535
 20
1.024827745225694
 30
0.0
 10
4.158333672417535
 20
1.100000169542101
 30
0.0
 10
4.158333672417535
 20
1.175172593858507
 30
0.0
 10
4.219272613525391
 20
1.236111111111111
 30
0.0
 10
4.294444613986545
 20
1.236111111111111
 30
0.0
  0
HATCH
  5
118
330
113
100
AcDbEntity
  8
Layer 1
 62
   253
420
 11382706
100
AcDbHatch
 10
0.0
 20
0.0
 30
0.0
210
0.0
220
0.0
230
1.0
  2
SOLID
 70
     1
 71
     0
 91
        1
 92
        1
 93
        1
 72
     4
 94
        3
 73
     0
 74
     1
 95
       17
 96
       13
 40
0.0
 40
0.0
 40
0.0
 40
0.0
 40
1.0
 40
1.0
 40
1.0
 40
2.0
 40
2.0
 40
2.0
 40
3.0
 40
3.0
 40
3.0
 40
4.0
 40
4.0
 40
4.0
 40
4.0
 10
4.294444613986545
 20
1.236111111111111
 10
4.3696166144477
 20
1.236111111111111
 10
4.430555555555555
 20
1.175172593858507
 10
4.430555555555555
 20
1.100000169542101
 10
4.430555555555555
 20
1.024827745225694
 10
4.3696166144477
 20
0.9638892279730902
 10
4.294444613986545
 20
0.9638892279730902
 10
4.219272613525391
 20
0.9638892279730902
 10
4.158333672417535
 20
1.024827745225694
 10
4.158333672417535
 20
1.100000169542101
 10
4.158333672417535
 20
1.175172593858507
 10
4.219272613525391
 20
1.236111111111111
 10
4.294444613986545
 20
1.236111111111111
 97
        0
 97
        0
 75
     2
 76
     1
 98
        0
  0
SPLINE
  5
119
330
113
100
AcDbEntity
  8
Layer 1
370
     0
100
AcDbSpline
210
0.0
220
0.0
230
1.0
 70
    11
 71
     3
 72
    77
 73
    73
 74
     0
 42
0.0000000001
 43
0.0000000001
 12
1.0
 22
0.0
 32
0.0
 13
1.0
 23
0.0
 33
0.0
 40
0.0
 40
0.0
 40
0.0
 40
0.0
 40
1.0
 40
1.0
 40
1.0
 40
2.0
 40
2.0
 40
2.0
 40
3.0
 40
3.0
 40
3.0
 40
4.0
 40
4.0
 40
4.0
 40
5.0
 40
5.0
 40
5.0
 40
6.0
 40
6.0
 40
6.0
 40
7.0
 40
7.0
 40
7.0
 40
8.0
 40
8.0
 40
8.0
 40
9.0
 40
9.0
 40
9.0
 40
10.0
 40
10.0
 40
10.0
 40
11.0
 40
11.0
 40
11.0
 40
12.0
 40
12.0
 40
12.0
 40
13.0
 40
13.0
 40
13.0
 40
14.0
 40
14.0
 40
14.0
 40
15.0
 40
15.0
 40
15.0
 40
16.0
 40
16.0
 40
16.0
 40
17.0
 40
17.0
 40
17.0
 40
18.0
 40
18.0
 40
18.0
 40
19.0
 40
19.0
 40
19.0
 40
20.0
 40
20.0
 40
20.0
 40
21.0
 40
21.0
 40
21.0
 40
22.0
 40
22.0
 40
22.0
 40
23.0
 40
23.0
 40
23.0
 40
24.0
 40
24.0
 40
24.0
 40
24.0
 10
5.865277608235677
 20
2.126388549804688
 30
0.0
 10
5.865277608235677
 20
2.126388549804688
 30
0.0
 10
5.861111111111111
 20
2.188888549804688
 30
0.0
 10
5.861111111111111
 20
2.188888549804688
 30
0.0
 10
5.861111111111111
 20
2.188888549804688
 30
0.0
 10
5.86250008477105
 20
2.188888549804688
 30
0.0
 10
5.86250008477105
 20
2.188888549804688
 30
0.0
 10
5.86250008477105
 20
2.188888549804688
 30
0.0
 10
5.861111111111111
 20
2.191666497124566
 30
0.0
 10
5.861111111111111
 20
2.191666497124566
 30
0.0
 10
5.861111111111111
 20
2.191666497124566
 30
0.0
 10
5.861111111111111
 20
2.194444444444444
 30
0.0
 10
5.861111111111111
 20
2.194444444444444
 30
0.0
 10
5.861111111111111
 20
2.194444444444444
 30
0.0
 10
5.859722137451172
 20
2.194444444444444
 30
0.0
 10
5.859722137451172
 20
2.194444444444444
 30
0.0
 10
5.859722137451172
 20
2.194444444444444
 30
0.0
 10
5.38611094156901
 20
3.409722222222222
 30
0.0
 10
5.38611094156901
 20
3.409722222222222
 30
0.0
 10
5.38611094156901
 20
3.409722222222222
 30
0.0
 10
5.179166581895616
 20
3.329166836208767
 30
0.0
 10
5.179166581895616
 20
3.329166836208767
 30
0.0
 10
5.179166581895616
 20
3.329166836208767
 30
0.0
 10
5.651388804117838
 20
2.115277608235677
 30
0.0
 10
5.651388804117838
 20
2.115277608235677
 30
0.0
 10
5.651388804117838
 20
2.115277608235677
 30
0.0
 10
4.979166666666666
 20
1.465277777777778
 30
0.0
 10
4.979166666666666
 20
1.465277777777778
 30
0.0
 10
4.979166666666666
 20
1.465277777777778
 30
0.0
 10
3.576388888888889
 20
1.465277777777778
 30
0.0
 10
3.576388888888889
 20
1.465277777777778
 30
0.0
 10
3.576388888888889
 20
1.465277777777778
 30
0.0
 10
2.90555551317003
 20
2.113889058430989
 30
0.0
 10
2.90555551317003
 20
2.113889058430989
 30
0.0
 10
2.90555551317003
 20
2.113889058430989
 30
0.0
 10
3.380555470784505
 20
3.334722730848524
 30
0.0
 10
3.380555470784505
 20
3.334722730848524
 30
0.0
 10
3.380555470784505
 20
3.334722730848524
 30
0.0
 10
3.173611111111111
 20
3.415278116861979
 30
0.0
 10
3.173611111111111
 20
3.415278116861979
 30
0.0
 10
3.173611111111111
 20
3.415278116861979
 30
0.0
 10
2.666666666666667
 20
2.188888549804688
 30
0.0
 10
2.666666666666667
 20
2.188888549804688
 30
0.0
 10
2.666666666666667
 20
2.188888549804688
 30
0.0
 10
2.661111195882161
 20
2.190277099609375
 30
0.0
 10
2.661111195882161
 20
2.190277099609375
 30
0.0
 10
2.661111195882161
 20
2.190277099609375
 30
0.0
 10
2.663888931274414
 20
2.18333265516493
 30
0.0
 10
2.663888931274414
 20
2.18333265516493
 30
0.0
 10
2.663888931274414
 20
2.18333265516493
 30
0.0
 10
2.661111195882161
 20
2.176388210720486
 30
0.0
 10
2.661111195882161
 20
2.176388210720486
 30
0.0
 10
2.661111195882161
 20
2.176388210720486
 30
0.0
 10
2.668055640326606
 20
2.174999660915799
 30
0.0
 10
2.668055640326606
 20
2.174999660915799
 30
0.0
 10
2.668055640326606
 20
2.174999660915799
 30
0.0
 10
2.708333333333333
 20
2.079165988498264
 30
0.0
 10
2.708333333333333
 20
2.079165988498264
 30
0.0
 10
2.713888804117838
 20
2.05833265516493
 30
0.0
 10
2.724999957614475
 20
2.038887871636285
 30
0.0
 10
2.741666581895616
 20
2.022221883138021
 30
0.0
 10
2.741666581895616
 20
2.022221883138021
 30
0.0
 10
3.537499957614475
 20
1.244444105360243
 30
0.0
 10
3.537499957614475
 20
1.244444105360243
 30
0.0
 10
3.537499957614475
 20
1.244444105360243
 30
0.0
 10
5.033333248562283
 20
1.244444105360243
 30
0.0
 10
5.033333248562283
 20
1.244444105360243
 30
0.0
 10
5.033333248562283
 20
1.244444105360243
 30
0.0
 10
5.816666497124566
 20
1.997222052680121
 30
0.0
 10
5.816666497124566
 20
1.997222052680121
 30
0.0
 10
5.8500001695421
 20
2.031944274902344
 30
0.0
 10
5.868055555555555
 20
2.079166836208767
 30
0.0
 10
5.865277608235677
 20
2.126388549804688
 30
0.0
  0
HATCH
  5
11A
330
113
100
AcDbEntity
  8
Layer 1
 62
   177
420
  2899888
100
AcDbHatch
 10
0.0
 20
0.0
 30
0.0
210
0.0
220
0.0
230
1.0
  2
SOLID
 70
     1
 71
     0
 91
        1
 92
        1
 93
        1
 72
     4
 94
        3
 73
     0
 74
     1
 95
       77
 96
       73
 40
0.0
 40
0.0
 40
0.0
 40
0.0
 40
1.0
 40
1.0
 40
1.0
 40
2.0
 40
2.0
 40
2.0
 40
3.0
 40
3.0
 40
3.0
 40
4.0
 40
4.0
 40
4.0
 40
5.0
 40
5.0
 40
5.0
 40
6.0
 40
6.0
 40
6.0
 40
7.0
 40
7.0
 40
7.0
 40
8.0
 40
8.0
 40
8.0
 40
9.0
 40
9.0
 40
9.0
 40
10.0
 40
10.0
 40
10.0
 40
11.0
 40
11.0
 40
11.0
 40
12.0
 40
12.0
 40
12.0
 40
13.0
 40
13.0
 40
13.0
 40
14.0
 40
14.0
 40
14.0
 40
15.0
 40
15.0
 40
15.0
 40
16.0
 40
16.0
 40
16.0
 40
17.0
 40
17.0
 40
17.0
 40
18.0
 40
18.0
 40
18.0
 40
19.0
 40
19.0
 40
19.0
 40
20.0
 40
20.0
 40
20.0
 40
21.0
 40
21.0
 40
21.0
 40
22.0
 40
22.0
 40
22.0
 40
23.0
 40
23.0
 40
23.0
 40
24.0
 40
24.0
 40
24.0
 40
24.0
 10
5.865277608235677
 20
2.126388549804688
 10
5.865277608235677
 20
2.126388549804688
 10
5.861111111111111
 20
2.188888549804688
 10
5.861111111111111
 20
2.188888549804688
 10
5.861111111111111
 20
2.188888549804688
 10
5.86250008477105
 20
2.188888549804688
 10
5.86250008477105
 20
2.188888549804688
 10
5.86250008477105
 20
2.188888549804688
 10
5.861111111111111
 20
2.191666497124566
 10
5.861111111111111
 20
2.191666497124566
 10
5.861111111111111
 20
2.191666497124566
 10
5.861111111111111
 20
2.194444444444444
 10
5.861111111111111
 20
2.194444444444444
 10
5.861111111111111
 20
2.194444444444444
 10
5.859722137451172
 20
2.194444444444444
 10
5.859722137451172
 20
2.194444444444444
 10
5.859722137451172
 20
2.194444444444444
 10
5.38611094156901
 20
3.409722222222222
 10
5.38611094156901
 20
3.409722222222222
 10
5.38611094156901
 20
3.409722222222222
 10
5.179166581895616
 20
3.329166836208767
 10
5.179166581895616
 20
3.329166836208767
 10
5.179166581895616
 20
3.329166836208767
 10
5.651388804117838
 20
2.115277608235677
 10
5.651388804117838
 20
2.115277608235677
 10
5.651388804117838
 20
2.115277608235677
 10
4.979166666666666
 20
1.465277777777778
 10
4.979166666666666
 20
1.465277777777778
 10
4.979166666666666
 20
1.465277777777778
 10
3.576388888888889
 20
1.465277777777778
 10
3.576388888888889
 20
1.465277777777778
 10
3.576388888888889
 20
1.465277777777778
 10
2.90555551317003
 20
2.113889058430989
 10
2.90555551317003
 20
2.113889058430989
 10
2.90555551317003
 20
2.113889058430989
 10
3.380555470784505
 20
3.334722730848524
 10
3.380555470784505
 20
3.334722730848524
 10
3.380555470784505
 20
3.334722730848524
 10
3.173611111111111
 20
3.415278116861979
 10
3.173611111111111
 20
3.415278116861979
 10
3.173611111111111
 20
3.415278116861979
 10
2.666666666666667
 20
2.188888549804688
 10
2.666666666666667
 20
2.188888549804688
 10
2.666666666666667
 20
2.188888549804688
 10
2.661111195882161
 20
2.190277099609375
 10
2.661111195882161
 20
2.190277099609375
 10
2.661111195882161
 20
2.190277099609375
 10
2.663888931274414
 20
2.18333265516493
 10
2.663888931274414
 20
2.18333265516493
 10
2.663888931274414
 20
2.18333265516493
 10
2.661111195882161
 20
2.176388210720486
 10
2.661111195882161
 20
2.176388210720486
 10
2.661111195882161
 20
2.176388210720486
 10
2.668055640326606
 20
2.174999660915799
 10
2.668055640326606
 20
2.174999660915799
 10
2.668055640326606
 20
2.174999660915799
 10
2.708333333333333
 20
2.079165988498264
 10
2.708333333333333
 20
2.079165988498264
 10
2.713888804117838
 20
2.05833265516493
 10
2.724999957614475
 20
2.038887871636285
 10
2.741666581895616
 20
2.022221883138021
 10
2.741666581895616
 20
2.022221883138021
 10
3.537499957614475
 20
1.244444105360243
 10
3.537499957614475
 20
1.244444105360243
 10
3.537499957614475
 20
1.244444105360243
 10
5.033333248562283
 20
1.244444105360243
 10
5.033333248562283
 20
1.244444105360243
 10
5.033333248562283
 20
1.244444105360243
 10
5.816666497124566
 20
1.997222052680121
 10
5.816666497124566
 20
1.997222052680121
 10
5.8500001695421
 20
2.031944274902344
 10
5.868055555555555
 20
2.079166836208767
 10
5.865277608235677
 20
2.126388549804688
 97
        0
 97
        0
 75
     2
 76
     1
 98
        0
  0
ENDBLK
  5
116
330
113
100
AcDbEntity
  8
0
100
AcDbBlockEnd
  0
ENDSEC
  0
SECTION
  2
ENTITIES
  0
SPLINE
  5
41
330
1F
100
AcDbEntity
  8
Body
 62
     7
420
 16777215
370
    35
100
AcDbSpline
210
0.0
220
0.0
230
1.0
 70
    11
 71
     3
 72
   233
 73
   229
 74
     0
 42
0.0000000001
 43
0.0000000001
 12
1.0
 22
0.0
 32
0.0
 13
1.0
 23
0.0
 33
0.0
 40
0.0
 40
0.0
 40
0.0
 40
0.0
 40
1.0
 40
1.0
 40
1.0
 40
2.0
 40
2.0
 40
2.0
 40
3.0
 40
3.0
 40
3.0
 40
4.0
 40
4.0
 40
4.0
 40
5.0
 40
5.0
 40
5.0
 40
6.0
 40
6.0
 40
6.0
 40
7.0
 40
7.0
 40
7.0
 40
8.0
 40
8.0
 40
8.0
 40
9.0
 40
9.0
 40
9.0
 40
10.0
 40
10.0
 40
10.0
 40
11.0
 40
11.0
 40
11.0
 40
12.0
 40
12.0
 40
12.0
 40
13.0
 40
13.0
 40
13.0
 40
14.0
 40
14.0
 40
14.0
 40
15.0
 40
15.0
 40
15.0
 40
16.0
 40
16.0
 40
16.0
 40
17.0
 40
17.0
 40
17.0
 40
18.0
 40
18.0
 40
18.0
 40
19.0
 40
19.0
 40
19.0
 40
20.0
 40
20.0
 40
20.0
 40
21.0
 40
21.0
 40
21.0
 40
22.0
 40
22.0
 40
22.0
 40
23.0
 40
23.0
 40
23.0
 40
24.0
 40
24.0
 40
24.0
 40
25.0
 40
25.0
 40
25.0
 40
26.0
 40
26.0
 40
26.0
 40
27.0
 40
27.0
 40
27.0
 40
28.0
 40
28.0
 40
28.0
 40
29.0
 40
29.0
 40
29.0
 40
30.0
 40
30.0
 40
30.0
 40
31.0
 40
31.0
 40
31.0
 40
32.0
 40
32.0
 40
32.0
 40
33.0
 40
33.0
 40
33.0
 40
34.0
 40
34.0
 40
34.0
 40
35.0
 40
35.0
 40
35.0
 40
36.0
 40
36.0
 40
36.0
 40
37.0
 40
37.0
 40
37.0
 40
38.0
 40
38.0
 40
38.0
 40
39.0
 40
39.0
 40
39.0
 40
40.0
 40
40.0
 40
40.0
 40
41.0
 40
41.0
 40
41.0
 40
42.0
 40
42.0
 40
42.0
 40
43.0
 40
43.0
 40
43.0
 40
44.0
 40
44.0
 40
44.0
 40
45.0
 40
45.0
 40
45.0
 40
46.0
 40
46.0
 40
46.0
 40
47.0
 40
47.0
 40
47.0
 40
48.0
 40
48.0
 40
48.0
 40
49.0
 40
49.0
 40
49.0
 40
50.0
 40
50.0
 40
50.0
 40
51.0
 40
51.0
 40
51.0
 40
52.0
 40
52.0
 40
52.0
 40
53.0
 40
53.0
 40
53.0
 40
54.0
 40
54.0
 40
54.0
 40
55.0
 40
55.0
 40
55.0
 40
56.0
 40
56.0
 40
56.0
 40
57.0
 40
57.0
 40
57.0
 40
58.0
 40
58.0
 40
58.0
 40
59.0
 40
59.0
 40
59.0
 40
60.0
 40
60.0
 40
60.0
 40
61.0
 40
61.0
 40
61.0
 40
62.0
 40
62.0
 40
62.0
 40
63.0
 40
63.0
 40
63.0
 40
64.0
 40
64.0
 40
64.0
 40
65.0
 40
65.0
 40
65.0
 40
66.0
 40
66.0
 40
66.0
 40
67.0
 40
67.0
 40
67.0
 40
68.0
 40
68.0
 40
68.0
 40
69.0
 40
69.0
 40
69.0
 40
70.0
 40
70.0
 40
70.0
 40
71.0
 40
71.0
 40
71.0
 40
72.0
 40
72.0
 40
72.0
 40
73.0
 40
73.0
 40
73.0
 40
74.0
 40
74.0
 40
74.0
 40
75.0
 40
75.0
 40
75.0
 40
76.0
 40
76.0
 40
76.0
 40
76.0
 10
8.11111111111111
 20
1.548611111111111
 30
0.0
 10
8.11111111111111
 20
1.548611111111111
 30
0.0
 10
7.631944444444444
 20
2.604166666666667
 30
0.0
 10
7.631944444444444
 20
2.604166666666667
 30
0.0
 10
7.631944444444444
 20
2.604166666666667
 30
0.0
 10
7.309722052680121
 20
2.71388922797309
 30
0.0
 10
7.309722052680121
 20
2.71388922797309
 30
0.0
 10
7.309722052680121
 20
2.71388922797309
 30
0.0
 10
7.016666412353516
 20
2.847222222222222
 30
0.0
 10
7.016666412353516
 20
2.847222222222222
 30
0.0
 10
7.016666412353516
 20
2.847222222222222
 30
0.0
 10
5.794444190131293
 20
2.406944274902344
 30
0.0
 10
5.794444190131293
 20
2.406944274902344
 30
0.0
 10
5.794444190131293
 20
2.406944274902344
 30
0.0
 10
5.662499745686849
 20
2.112499660915799
 30
0.0
 10
5.662499745686849
 20
2.112499660915799
 30
0.0
 10
5.662499745686849
 20
2.112499660915799
 30
0.0
 10
5.336110856797959
 20
2.115277608235677
 30
0.0
 10
5.336110856797959
 20
2.115277608235677
 30
0.0
 10
5.336110856797959
 20
2.115277608235677
 30
0.0
 10
4.979166242811415
 20
1.768055386013455
 30
0.0
 10
4.979166242811415
 20
1.768055386013455
 30
0.0
 10
4.979166242811415
 20
1.768055386013455
 30
0.0
 10
4.981944190131293
 20
1.479166666666667
 30
0.0
 10
4.981944190131293
 20
1.479166666666667
 30
0.0
 10
4.981944190131293
 20
1.479166666666667
 30
0.0
 10
4.897221883138021
 20
2.390277438693576
 30
0.0
 10
4.897221883138021
 20
2.390277438693576
 30
0.0
 10
4.897221883138021
 20
2.395833333333333
 30
0.0
 10
4.895832909478082
 20
2.399999830457899
 30
0.0
 10
4.895832909478082
 20
2.405554877387153
 30
0.0
 10
4.895832909478082
 20
2.405554877387153
 30
0.0
 10
4.895832909478082
 20
4.119444529215494
 30
0.0
 10
4.895832909478082
 20
4.119444529215494
 30
0.0
 10
4.895832909478082
 20
4.129166920979817
 30
0.0
 10
4.897221883138021
 20
4.140277862548828
 30
0.0
 10
4.898610856797959
 20
4.15000025431315
 30
0.0
 10
4.898610856797959
 20
4.15000025431315
 30
0.0
 10
5.191666497124566
 20
5.545833587646484
 30
0.0
 10
5.191666497124566
 20
5.545833587646484
 30
0.0
 10
5.211110856797959
 20
5.637500339084201
 30
0.0
 10
5.140277438693576
 20
5.7250001695421
 30
0.0
 10
5.045833163791232
 20
5.7250001695421
 30
0.0
 10
5.045833163791232
 20
5.7250001695421
 30
0.0
 10
4.655555301242404
 20
5.7250001695421
 30
0.0
 10
4.655555301242404
 20
5.7250001695421
 30
0.0
 10
4.584721883138021
 20
5.7250001695421
 30
0.0
 10
4.523610856797959
 20
5.67500008477105
 30
0.0
 10
4.509721967909071
 20
5.605555640326606
 30
0.0
 10
4.509721967909071
 20
5.605555640326606
 30
0.0
 10
4.488888634575738
 20
5.502777947319879
 30
0.0
 10
4.488888634575738
 20
5.502777947319879
 30
0.0
 10
4.474999745686849
 20
5.433333502875434
 30
0.0
 10
4.413888719346788
 20
5.383333418104383
 30
0.0
 10
4.343055301242404
 20
5.383333418104383
 30
0.0
 10
4.343055301242404
 20
5.383333418104383
 30
0.0
 10
4.222222222222222
 20
5.383333418104383
 30
0.0
 10
4.222222222222222
 20
5.383333418104383
 30
0.0
 10
4.152777777777778
 20
5.383333418104383
 30
0.0
 10
4.093055725097656
 20
5.431944529215494
 30
0.0
 10
4.077777862548828
 20
5.5
 30
0.0
 10
4.077777862548828
 20
5.5
 30
0.0
 10
4.052778032090929
 20
5.608333163791232
 30
0.0
 10
4.052778032090929
 20
5.608333163791232
 30
0.0
 10
4.037500169542101
 20
5.676388634575738
 30
0.0
 10
3.977778116861979
 20
5.724999745686849
 30
0.0
 10
3.908333672417534
 20
5.724999745686849
 30
0.0
 10
3.908333672417534
 20
5.724999745686849
 30
0.0
 10
3.502778159247504
 20
5.724999745686849
 30
0.0
 10
3.502778159247504
 20
5.724999745686849
 30
0.0
 10
3.408333672417534
 20
5.724999745686849
 30
0.0
 10
3.337500466240777
 20
5.63749991522895
 30
0.0
 10
3.35833379957411
 20
5.544444190131293
 30
0.0
 10
3.35833379957411
 20
5.544444190131293
 30
0.0
 10
3.662500593397352
 20
4.149999830457899
 30
0.0
 10
3.662500593397352
 20
4.149999830457899
 30
0.0
 10
3.665278540717231
 20
4.140277438693576
 30
0.0
 10
3.665278540717231
 20
4.129166497124566
 30
0.0
 10
3.665278540717231
 20
4.118055555555555
 30
0.0
 10
3.665278540717231
 20
4.118055555555555
 30
0.0
 10
3.665278540717231
 20
2.4125001695421
 30
0.0
 10
3.665278540717231
 20
2.4125001695421
 30
0.0
 10
3.665278540717231
 20
2.408333672417534
 30
0.0
 10
3.665278540717231
 20
2.402777777777778
 30
0.0
 10
3.665278540717231
 20
2.398611280653212
 30
0.0
 10
3.665278540717231
 20
2.398611280653212
 30
0.0
 10
3.577778710259331
 20
1.458333333333333
 30
0.0
 10
3.577778710259331
 20
1.458333333333333
 30
0.0
 10
3.577778710259331
 20
1.458333333333333
 30
0.0
 10
3.581945207383897
 20
1.772221883138021
 30
0.0
 10
3.581945207383897
 20
1.772221883138021
 30
0.0
 10
3.581945207383897
 20
1.772221883138021
 30
0.0
 10
3.225000805324978
 20
2.119444105360243
 30
0.0
 10
3.225000805324978
 20
2.119444105360243
 30
0.0
 10
3.225000805324978
 20
2.119444105360243
 30
0.0
 10
2.898611916436089
 20
2.116666158040364
 30
0.0
 10
2.898611916436089
 20
2.116666158040364
 30
0.0
 10
2.898611916436089
 20
2.116666158040364
 30
0.0
 10
2.766667471991645
 20
2.411110772026909
 30
0.0
 10
2.766667471991645
 20
2.411110772026909
 30
0.0
 10
2.766667471991645
 20
2.411110772026909
 30
0.0
 10
1.544445249769423
 20
2.851388719346788
 30
0.0
 10
1.544445249769423
 20
2.851388719346788
 30
0.0
 10
1.544445249769423
 20
2.851388719346788
 30
0.0
 10
1.238889694213867
 20
2.712499830457899
 30
0.0
 10
1.238889694213867
 20
2.712499830457899
 30
0.0
 10
1.238889694213867
 20
2.712499830457899
 30
0.0
 10
1.238889694213867
 20
2.712499830457899
 30
0.0
 10
1.238889694213867
 20
2.712499830457899
 30
0.0
 10
1.238889694213867
 20
2.712499830457899
 30
0.0
 10
0.9236119588216145
 20
2.605555216471354
 30
0.0
 10
0.9236119588216145
 20
2.605555216471354
 30
0.0
 10
0.9236119588216145
 20
2.605555216471354
 30
0.0
 10
0.4444452921549479
 20
1.549999660915798
 30
0.0
 10
0.4444452921549479
 20
1.549999660915798
 30
0.0
 10
0.4444452921549479
 20
1.549999660915798
 30
0.0
 10
0.5694452921549479
 20
1.230555216471354
 30
0.0
 10
0.5694452921549479
 20
1.230555216471354
 30
0.0
 10
0.5694452921549479
 20
1.230555216471354
 30
0.0
 10
0.5763897365993923
 20
1.247222052680121
 30
0.0
 10
0.5763897365993923
 20
1.247222052680121
 30
0.0
 10
0.5763897365993923
 20
1.247222052680121
 30
0.0
 10
1.33194531334771
 20
0.9791666666666666
 30
0.0
 10
1.33194531334771
 20
0.9791666666666666
 30
0.0
 10
1.398612022399902
 20
0.9555553860134548
 30
0.0
 10
1.472223069932726
 20
0.9874996609157985
 30
0.0
 10
1.50138971540663
 20
1.05138905843099
 30
0.0
 10
1.50138971540663
 20
1.05138905843099
 30
0.0
 10
1.550000826517741
 20
1.159722222222222
 30
0.0
 10
1.550000826517741
 20
1.159722222222222
 30
0.0
 10
1.550000826517741
 20
1.159722222222222
 30
0.0
 10
1.58194531334771
 20
1.229166666666667
 30
0.0
 10
1.58194531334771
 20
1.229166666666667
 30
0.0
 10
1.654167493184407
 20
1.174999660915798
 30
0.0
 10
1.726389778984917
 20
1.120833502875434
 30
0.0
 10
1.798611958821615
 20
1.066666497124566
 30
0.0
 10
1.959723154703776
 20
0.9444444444444444
 30
0.0
 10
2.162500805324978
 20
0.9249996609157985
 30
0.0
 10
2.356945249769423
 20
0.8986112806532117
 30
0.0
 10
2.38611200120714
 20
0.8944447835286458
 30
0.0
 10
2.737500720553928
 20
0.862500508626302
 30
0.0
 10
2.740278667873806
 20
0.8472222222222222
 30
0.0
 10
2.740278667873806
 20
0.8472222222222222
 30
0.0
 10
2.768056445651584
 20
0.6027781168619791
 30
0.0
 10
2.768056445651584
 20
0.6027781168619791
 30
0.0
 10
2.776389863755968
 20
0.5319451226128472
 30
0.0
 10
2.825000974867079
 20
0.4722222222222222
 30
0.0
 10
2.893056445651584
 20
0.4500003390842013
 30
0.0
 10
2.893056445651584
 20
0.4500003390842013
 30
0.0
 10
3.168056488037109
 20
0.3583340115017361
 30
0.0
 10
3.168056488037109
 20
0.3583340115017361
 30
0.0
 10
3.24861208597819
 20
0.3319447835286458
 30
0.0
 10
3.334723154703776
 20
0.3777787950303819
 30
0.0
 10
3.356945461697048
 20
0.4597227308485243
 30
0.0
 10
3.352778752644856
 20
0.376389397515191
 30
0.0
 10
3.418056488037109
 20
0.3027784559461805
 30
0.0
 10
3.505556530422634
 20
0.3027784559461805
 30
0.0
 10
3.505556530422634
 20
0.3027784559461805
 30
0.0
 10
3.918056488037109
 20
0.3027784559461805
 30
0.0
 10
3.918056488037109
 20
0.3027784559461805
 30
0.0
 10
3.987500932481554
 20
0.3027784559461805
 30
0.0
 10
4.048611958821614
 20
0.3513895670572916
 30
0.0
 10
4.062500847710504
 20
0.4194454616970486
 30
0.0
 10
4.062500847710504
 20
0.4194454616970486
 30
0.0
 10
4.084723154703775
 20
0.5208341810438368
 30
0.0
 10
4.084723154703775
 20
0.5208341810438368
 30
0.0
 10
4.100001017252604
 20
0.5888900756835938
 30
0.0
 10
4.159723069932726
 20
0.6375011867947048
 30
0.0
 10
4.22916751437717
 20
0.6375011867947048
 30
0.0
 10
4.22916751437717
 20
0.6375011867947048
 30
0.0
 10
4.337500678168403
 20
0.6375011867947048
 30
0.0
 10
4.337500678168403
 20
0.6375011867947048
 30
0.0
 10
4.406945122612847
 20
0.6375011867947048
 30
0.0
 10
4.468056148952908
 20
0.5888900756835938
 30
0.0
 10
4.483334011501736
 20
0.5194456312391493
 30
0.0
 10
4.483334011501736
 20
0.5194456312391493
 30
0.0
 10
4.50277837117513
 20
0.427779303656684
 30
0.0
 10
4.50277837117513
 20
0.427779303656684
 30
0.0
 10
4.516667260064019
 20
0.3597234090169271
 30
0.0
 10
4.577778286404079
 20
0.3097237481011285
 30
0.0
 10
4.647222730848524
 20
0.3097237481011285
 30
0.0
 10
4.647222730848524
 20
0.3097237481011285
 30
0.0
 10
5.051389482286241
 20
0.308335198296441
 30
0.0
 10
5.051389482286241
 20
0.308335198296441
 30
0.0
 10
5.141667260064019
 20
0.308335198296441
 30
0.0
 10
5.209722730848524
 20
0.3861126369900174
 30
0.0
 10
5.198611789279513
 20
0.4736133151584201
 30
0.0
 10
5.198611789279513
 20
0.4736133151584201
 30
0.0
 10
5.201389736599392
 20
0.4625023735894097
 30
0.0
 10
5.201389736599392
 20
0.4625023735894097
 30
0.0
 10
5.220834096272786
 20
0.3777804904513889
 30
0.0
 10
5.309722900390625
 20
0.3277799818250868
 30
0.0
 10
5.393056233723958
 20
0.3541692097981771
 30
0.0
 10
5.393056233723958
 20
0.3541692097981771
 30
0.0
 10
5.668056064181857
 20
0.4458355373806424
 30
0.0
 10
5.668056064181857
 20
0.4458355373806424
 30
0.0
 10
5.736111534966363
 20
0.4680574205186632
 30
0.0
 10
5.784722646077474
 20
0.5277803209092882
 30
0.0
 10
5.793056064181857
 20
0.5986133151584201
 30
0.0
 10
5.793056064181857
 20
0.5986133151584201
 30
0.0
 10
5.820833841959635
 20
0.8430574205186632
 30
0.0
 10
5.820833841959635
 20
0.8430574205186632
 30
0.0
 10
5.822222815619575
 20
0.8583348592122395
 30
0.0
 10
6.175000508626302
 20
0.8902799818250867
 30
0.0
 10
6.204167260064019
 20
0.8944464789496527
 30
0.0
 10
6.398611704508463
 20
0.920835706922743
 30
0.0
 10
6.601389567057291
 20
0.9402796427408854
 30
0.0
 10
6.762500762939453
 20
1.062501695421007
 30
0.0
 10
6.834723154703775
 20
1.116668701171875
 30
0.0
 10
6.906945122612846
 20
1.17083485921224
 30
0.0
 10
6.97916751437717
 20
1.225001864963108
 30
0.0
 10
6.97916751437717
 20
1.225001864963108
 30
0.0
 10
7.011111789279513
 20
1.155557420518663
 30
0.0
 10
7.011111789279513
 20
1.155557420518663
 30
0.0
 10
7.011111789279513
 20
1.155557420518663
 30
0.0
 10
7.059722900390625
 20
1.047224256727431
 30
0.0
 10
7.059722900390625
 20
1.047224256727431
 30
0.0
 10
7.088889651828342
 20
0.983335706922743
 30
0.0
 10
7.162501017252604
 20
0.9513905843098958
 30
0.0
 10
7.22916751437717
 20
0.9750018649631076
 30
0.0
 10
7.22916751437717
 20
0.9750018649631076
 30
0.0
 10
7.980556064181857
 20
1.241668701171875
 30
0.0
 10
7.980556064181857
 20
1.241668701171875
 30
0.0
 10
7.980556064181857
 20
1.241668701171875
 30
0.0
 10
7.986111958821614
 20
1.230557759602865
 30
0.0
 10
7.986111958821614
 20
1.230557759602865
 30
0.0
 10
7.986111958821614
 20
1.230557759602865
 30
0.0
 10
8.11111111111111
 20
1.548611111111111
 30
0.0
 10
8.11111111111111
 20
1.548611111111111
 30
0.0
  0
HATCH
  5
42
330
1F
100
AcDbEntity
  8
Body
 62
    44
420
 11501056
100
AcDbHatch
 10
0.0
 20
0.0
 30
0.0
210
0.0
220
0.0
230
1.0
  2
SOLID
 70
     1
 71
     0
 91
        1
 92
        1
 93
        1
 72
     4
 94
        3
 73
     0
 74
     1
 95
      233
 96
      229
 40
0.0
 40
0.0
 40
0.0
 40
0.0
 40
1.0
 40
1.0
 40
1.0
 40
2.0
 40
2.0
 40
2.0
 40
3.0
 40
3.0
 40
3.0
 40
4.0
 40
4.0
 40
4.0
 40
5.0
 40
5.0
 40
5.0
 40
6.0
 40
6.0
 40
6.0
 40
7.0
 40
7.0
 40
7.0
 40
8.0
 40
8.0
 40
8.0
 40
9.0
 40
9.0
 40
9.0
 40
10.0
 40
10.0
 40
10.0
 40
11.0
 40
11.0
 40
11.0
 40
12.0
 40
12.0
 40
12.0
 40
13.0
 40
13.0
 40
13.0
 40
14.0
 40
14.0
 40
14.0
 40
15.0
 40
15.0
 40
15.0
 40
16.0
 40
16.0
 40
16.0
 40
17.0
 40
17.0
 40
17.0
 40
18.0
 40
18.0
 40
18.0
 40
19.0
 40
19.0
 40
19.0
 40
20.0
 40
20.0
 40
20.0
 40
21.0
 40
21.0
 40
21.0
 40
22.0
 40
22.0
 40
22.0
 40
23.0
 40
23.0
 40
23.0
 40
24.0
 40
24.0
 40
24.0
 40
25.0
 40
25.0
 40
25.0
 40
26.0
 40
26.0
 40
26.0
 40
27.0
 40
27.0
 40
27.0
 40
28.0
 40
28.0
 40
28.0
 40
29.0
 40
29.0
 40
29.0
 40
30.0
 40
30.0
 40
30.0
 40
31.0
 40
31.0
 40
31.0
 40
32.0
 40
32.0
 40
32.0
 40
33.0
 40
33.0
 40
33.0
 40
34.0
 40
34.0
 40
34.0
 40
35.0
 40
35.0
 40
35.0
 40
36.0
 40
36.0
 40
36.0
 40
37.0
 40
37.0
 40
37.0
 40
38.0
 40
38.0
 40
38.0
 40
39.0
 40
39.0
 40
39.0
 40
40.0
 40
40.0
 40
40.0
 40
41.0
 40
41.0
 40
41.0
 40
42.0
 40
42.0
 40
42.0
 40
43.0
 40
43.0
 40
43.0
 40
44.0
 40
44.0
 40
44.0
 40
45.0
 40
45.0
 40
45.0
 40
46.0
 40
46.0
 40
46.0
 40
47.0
 40
47.0
 40
47.0
 40
48.0
 40
48.0
 40
48.0
 40
49.0
 40
49.0
 40
49.0
 40
50.0
 40
50.0
 40
50.0
 40
51.0
 40
51.0
 40
51.0
 40
52.0
 40
52.0
 40
52.0
 40
53.0
 40
53.0
 40
53.0
 40
54.0
 40
54.0
 40
54.0
 40
55.0
 40
55.0
 40
55.0
 40
56.0
 40
56.0
 40
56.0
 40
57.0
 40
57.0
 40
57.0
 40
58.0
 40
58.0
 40
58.0
 40
59.0
 40
59.0
 40
59.0
 40
60.0
 40
60.0
 40
60.0
 40
61.0
 40
61.0
 40
61.0
 40
62.0
 40
62.0
 40
62.0
 40
63.0
 40
63.0
 40
63.0
 40
64.0
 40
64.0
 40
64.0
 40
65.0
 40
65.0
 40
65.0
 40
66.0
 40
66.0
 40
66.0
 40
67.0
 40
67.0
 40
67.0
 40
68.0
 40
68.0
 40
68.0
 40
69.0
 40
69.0
 40
69.0
 40
70.0
 40
70.0
 40
70.0
 40
71.0
 40
71.0
 40
71.0
 40
72.0
 40
72.0
 40
72.0
 40
73.0
 40
73.0
 40
73.0
 40
74.0
 40
74.0
 40
74.0
 40
75.0
 40
75.0
 40
75.0
 40
76.0
 40
76.0
 40
76.0
 40
76.0
 10
8.11111111111111
 20
1.548611111111111
 10
8.11111111111111
 20
1.548611111111111
 10
7.631944444444444
 20
2.604166666666667
 10
7.631944444444444
 20
2.604166666666667
 10
7.631944444444444
 20
2.604166666666667
 10
7.309722052680121
 20
2.71388922797309
 10
7.309722052680121
 20
2.71388922797309
 10
7.309722052680121
 20
2.71388922797309
 10
7.016666412353516
 20
2.847222222222222
 10
7.016666412353516
 20
2.847222222222222
 10
7.016666412353516
 20
2.847222222222222
 10
5.794444190131293
 20
2.406944274902344
 10
5.794444190131293
 20
2.406944274902344
 10
5.794444190131293
 20
2.406944274902344
 10
5.662499745686849
 20
2.112499660915799
 10
5.662499745686849
 20
2.112499660915799
 10
5.662499745686849
 20
2.112499660915799
 10
5.336110856797959
 20
2.115277608235677
 10
5.336110856797959
 20
2.115277608235677
 10
5.336110856797959
 20
2.115277608235677
 10
4.979166242811415
 20
1.768055386013455
 10
4.979166242811415
 20
1.768055386013455
 10
4.979166242811415
 20
1.768055386013455
 10
4.981944190131293
 20
1.479166666666667
 10
4.981944190131293
 20
1.479166666666667
 10
4.981944190131293
 20
1.479166666666667
 10
4.897221883138021
 20
2.390277438693576
 10
4.897221883138021
 20
2.390277438693576
 10
4.897221883138021
 20
2.395833333333333
 10
4.895832909478082
 20
2.399999830457899
 10
4.895832909478082
 20
2.405554877387153
 10
4.895832909478082
 20
2.405554877387153
 10
4.895832909478082
 20
4.119444529215494
 10
4.895832909478082
 20
4.119444529215494
 10
4.895832909478082
 20
4.129166920979817
 10
4.897221883138021
 20
4.140277862548828
 10
4.898610856797959
 20
4.15000025431315
 10
4.898610856797959
 20
4.15000025431315
 10
5.191666497124566
 20
5.545833587646484
 10
5.191666497124566
 20
5.545833587646484
 10
5.211110856797959
 20
5.637500339084201
 10
5.140277438693576
 20
5.7250001695421
 10
5.045833163791232
 20
5.7250001695421
 10
5.045833163791232
 20
5.7250001695421
 10
4.655555301242404
 20
5.7250001695421
 10
4.655555301242404
 20
5.7250001695421
 10
4.584721883138021
 20
5.7250001695421
 10
4.523610856797959
 20
5.67500008477105
 10
4.509721967909071
 20
5.605555640326606
 10
4.509721967909071
 20
5.605555640326606
 10
4.488888634575738
 20
5.502777947319879
 10
4.488888634575738
 20
5.502777947319879
 10
4.474999745686849
 20
5.433333502875434
 10
4.413888719346788
 20
5.383333418104383
 10
4.343055301242404
 20
5.383333418104383
 10
4.343055301242404
 20
5.383333418104383
 10
4.222222222222222
 20
5.383333418104383
 10
4.222222222222222
 20
5.383333418104383
 10
4.152777777777778
 20
5.383333418104383
 10
4.093055725097656
 20
5.431944529215494
 10
4.077777862548828
 20
5.5
 10
4.077777862548828
 20
5.5
 10
4.052778032090929
 20
5.608333163791232
 10
4.052778032090929
 20
5.608333163791232
 10
4.037500169542101
 20
5.676388634575738
 10
3.977778116861979
 20
5.724999745686849
 10
3.908333672417534
 20
5.724999745686849
 10
3.908333672417534
 20
5.724999745686849
 10
3.502778159247504
 20
5.724999745686849
 10
3.502778159247504
 20
5.724999745686849
 10
3.408333672417534
 20
5.724999745686849
 10
3.337500466240777
 20
5.63749991522895
 10
3.35833379957411
 20
5.544444190131293
 10
3.35833379957411
 20
5.544444190131293
 10
3.662500593397352
 20
4.149999830457899
 10
3.662500593397352
 20
4.149999830457899
 10
3.665278540717231
 20
4.140277438693576
 10
3.665278540717231
 20
4.129166497124566
 10
3.665278540717231
 20
4.118055555555555
 10
3.665278540717231
 20
4.118055555555555
 10
3.665278540717231
 20
2.4125001695421
 10
3.665278540717231
 20
2.4125001695421
 10
3.665278540717231
 20
2.408333672417534
 10
3.665278540717231
 20
2.402777777777778
 10
3.665278540717231
 20
2.398611280653212
 10
3.665278540717231
 20
2.398611280653212
 10
3.577778710259331
 20
1.458333333333333
 10
3.577778710259331
 20
1.458333333333333
 10
3.577778710259331
 20
1.458333333333333
 10
3.581945207383897
 20
1.772221883138021
 10
3.581945207383897
 20
1.772221883138021
 10
3.581945207383897
 20
1.772221883138021
 10
3.225000805324978
 20
2.119444105360243
 10
3.225000805324978
 20
2.119444105360243
 10
3.225000805324978
 20
2.119444105360243
 10
2.898611916436089
 20
2.116666158040364
 10
2.898611916436089
 20
2.116666158040364
 10
2.898611916436089
 20
2.116666158040364
 10
2.766667471991645
 20
2.411110772026909
 10
2.766667471991645
 20
2.411110772026909
 10
2.766667471991645
 20
2.411110772026909
 10
1.544445249769423
 20
2.851388719346788
 10
1.544445249769423
 20
2.851388719346788
 10
1.544445249769423
 20
2.851388719346788
 10
1.238889694213867
 20
2.712499830457899
 10
1.238889694213867
 20
2.712499830457899
 10
1.238889694213867
 20
2.712499830457899
 10
1.238889694213867
 20
2.712499830457899
 10
1.238889694213867
 20
2.712499830457899
 10
1.238889694213867
 20
2.712499830457899
 10
0.9236119588216145
 20
2.605555216471354
 10
0.9236119588216145
 20
2.605555216471354
 10
0.9236119588216145
 20
2.605555216471354
 10
0.4444452921549479
 20
1.549999660915798
 10
0.4444452921549479
 20
1.549999660915798
 10
0.4444452921549479
 20
1.549999660915798
 10
0.5694452921549479
 20
1.230555216471354
 10
0.5694452921549479
 20
1.230555216471354
 10
0.5694452921549479
 20
1.230555216471354
 10
0.5763897365993923
 20
1.247222052680121
 10
0.5763897365993923
 20
1.247222052680121
 10
0.5763897365993923
 20
1.247222052680121
 10
1.33194531334771
 20
0.9791666666666666
 10
1.33194531334771
 20
0.9791666666666666
 10
1.398612022399902
 20
0.9555553860134548
 10
1.472223069932726
 20
0.9874996609157985
 10
1.50138971540663
 20
1.05138905843099
 10
1.50138971540663
 20
1.05138905843099
 10
1.550000826517741
 20
1.159722222222222
 10
1.550000826517741
 20
1.159722222222222
 10
1.550000826517741
 20
1.159722222222222
 10
1.58194531334771
 20
1.229166666666667
 10
1.58194531334771
 20
1.229166666666667
 10
1.654167493184407
 20
1.174999660915798
 10
1.726389778984917
 20
1.120833502875434
 10
1.798611958821615
 20
1.066666497124566
 10
1.959723154703776
 20
0.9444444444444444
 10
2.162500805324978
 20
0.9249996609157985
 10
2.356945249769423
 20
0.8986112806532117
 10
2.38611200120714
 20
0.8944447835286458
 10
2.737500720553928
 20
0.862500508626302
 10
2.740278667873806
 20
0.8472222222222222
 10
2.740278667873806
 20
0.8472222222222222
 10
2.768056445651584
 20
0.6027781168619791
 10
2.768056445651584
 20
0.6027781168619791
 10
2.776389863755968
 20
0.5319451226128472
 10
2.825000974867079
 20
0.4722222222222222
 10
2.893056445651584
 20
0.4500003390842013
 10
2.893056445651584
 20
0.4500003390842013
 10
3.168056488037109
 20
0.3583340115017361
 10
3.168056488037109
 20
0.3583340115017361
 10
3.24861208597819
 20
0.3319447835286458
 10
3.334723154703776
 20
0.3777787950303819
 10
3.356945461697048
 20
0.4597227308485243
 10
3.352778752644856
 20
0.376389397515191
 10
3.418056488037109
 20
0.3027784559461805
 10
3.505556530422634
 20
0.3027784559461805
 10
3.505556530422634
 20
0.3027784559461805
 10
3.918056488037109
 20
0.3027784559461805
 10
3.918056488037109
 20
0.3027784559461805
 10
3.987500932481554
 20
0.3027784559461805
 10
4.048611958821614
 20
0.3513895670572916
 10
4.062500847710504
 20
0.4194454616970486
 10
4.062500847710504
 20
0.4194454616970486
 10
4.084723154703775
 20
0.5208341810438368
 10
4.084723154703775
 20
0.5208341810438368
 10
4.100001017252604
 20
0.5888900756835938
 10
4.159723069932726
 20
0.6375011867947048
 10
4.22916751437717
 20
0.6375011867947048
 10
4.22916751437717
 20
0.6375011867947048
 10
4.337500678168403
 20
0.6375011867947048
 10
4.337500678168403
 20
0.6375011867947048
 10
4.406945122612847
 20
0.6375011867947048
 10
4.468056148952908
 20
0.5888900756835938
 10
4.483334011501736
 20
0.5194456312391493
 10
4.483334011501736
 20
0.5194456312391493
 10
4.50277837117513
 20
0.427779303656684
 10
4.50277837117513
 20
0.427779303656684
 10
4.516667260064019
 20
0.3597234090169271
 10
4.577778286404079
 20
0.3097237481011285
 10
4.647222730848524
 20
0.3097237481011285
 10
4.647222730848524
 20
0.3097237481011285
 10
5.051389482286241
 20
0.308335198296441
 10
5.051389482286241
 20
0.308335198296441
 10
5.141667260064019
 20
0.308335198296441
 10
5.209722730848524
 20
0.3861126369900174
 10
5.198611789279513
 20
0.4736133151584201
 10
5.198611789279513
 20
0.4736133151584201
 10
5.201389736599392
 20
0.4625023735894097
 10
5.201389736599392
 20
0.4625023735894097
 10
5.220834096272786
 20
0.3777804904513889
 10
5.309722900390625
 20
0.3277799818250868
 10
5.393056233723958
 20
0.3541692097981771
 10
5.393056233723958
 20
0.3541692097981771
 10
5.668056064181857
 20
0.4458355373806424
 10
5.668056064181857
 20
0.4458355373806424
 10
5.736111534966363
 20
0.4680574205186632
 10
5.784722646077474
 20
0.5277803209092882
 10
5.793056064181857
 20
0.5986133151584201
 10
5.793056064181857
 20
0.5986133151584201
 10
5.820833841959635
 20
0.8430574205186632
 10
5.820833841959635
 20
0.8430574205186632
 10
5.822222815619575
 20
0.8583348592122395
 10
6.175000508626302
 20
0.8902799818250867
 10
6.204167260064019
 20
0.8944464789496527
 10
6.398611704508463
 20
0.920835706922743
 10
6.601389567057291
 20
0.9402796427408854
 10
6.762500762939453
 20
1.062501695421007
 10
6.834723154703775
 20
1.116668701171875
 10
6.906945122612846
 20
1.17083485921224
 10
6.97916751437717
 20
1.225001864963108
 10
6.97916751437717
 20
1.225001864963108
 10
7.011111789279513
 20
1.155557420518663
 10
7.011111789279513
 20
1.155557420518663
 10
7.011111789279513
 20
1.155557420518663
 10
7.059722900390625
 20
1.047224256727431
 10
7.059722900390625
 20
1.047224256727431
 10
7.088889651828342
 20
0.983335706922743
 10
7.162501017252604
 20
0.9513905843098958
 10
7.22916751437717
 20
0.9750018649631076
 10
7.22916751437717
 20
0.9750018649631076
 10
7.980556064181857
 20
1.241668701171875
 10
7.980556064181857
 20
1.241668701171875
 10
7.980556064181857
 20
1.241668701171875
 10
7.986111958821614
 20
1.230557759602865
 10
7.986111958821614
 20
1.230557759602865
 10
7.986111958821614
 20
1.230557759602865
 10
8.11111111111111
 20
1.548611111111111
 10
8.11111111111111
 20
1.548611111111111
 97
        0
 97
        0
 75
     2
 76
     1
 98
        0
  0
POLYLINE
  5
43
330
1F
100
AcDbEntity
  8
Body
 62
   243
420
 16470906
370
    35
100
AcDb2dPolyline
 66
     1
 10
0.0
 20
0.0
 30
0.0
  0
VERTEX
  5
44
330
43
100
AcDbEntity
  8
Body
 62
   243
420
 16470906
370
    35
100
AcDbVertex
100
AcDb2dVertex
 10
4.888888888888888
 20
2.395833333333333
 30
0.0
  0
VERTEX
  5
45
330
43
100
AcDbEntity
  8
Body
 62
   243
420
 16470906
370
    35
100
AcDbVertex
100
AcDb2dVertex
 10
3.652777777777778
 20
2.395833333333333
 30
0.0
  0
SEQEND
  5
46
330
43
100
AcDbEntity
  8
Body
 62
   243
420
 16470906
370
    35
  0
POLYLINE
  5
47
330
1F
100
AcDbEntity
  8
Body
 62
   243
420
 16470906
370
    35
100
AcDb2dPolyline
 66
     1
 10
0.0
 20
0.0
 30
0.0
  0
VERTEX
  5
48
330
47
100
AcDbEntity
  8
Body
 62
   243
420
 16470906
370
    35
100
AcDbVertex
100
AcDb2dVertex
 10
3.652777777777778
 20
4.131944444444445
 30
0.0
  0
VERTEX
  5
49
330
47
100
AcDbEntity
  8
Body
 62
   243
420
 16470906
370
    35
100
AcDbVertex
100
AcDb2dVertex
 10
4.895833333333333
 20
4.131944444444445
 30
0.0
  0
SEQEND
  5
4A
330
47
100
AcDbEntity
  8
Body
 62
   243
420
 16470906
370
    35
  0
POLYLINE
  5
4B
330
1F
100
AcDbEntity
  8
Body
 62
   243
420
 16470906
370
    35
100
AcDb2dPolyline
 66
     1
 10
0.0
 20
0.0
 30
0.0
  0
VERTEX
  5
4C
330
4B
100
AcDbEntity
  8
Body
 62
   243
420
 16470906
370
    35
100
AcDbVertex
100
AcDb2dVertex
 10
0.5763888888888888
 20
1.243055555555556
 30
0.0
  0
VERTEX
  5
4D
330
4B
100
AcDbEntity
  8
Body
 62
   243
420
 16470906
370
    35
100
AcDbVertex
100
AcDb2dVertex
 10
1.222222222222222
 20
2.694444444444444
 30
0.0
  0
VERTEX
  5
4E
330
4B
100
AcDbEntity
  8
Body
 62
   243
420
 16470906
370
    35
100
AcDbVertex
100
AcDb2dVertex
 10
2.895833333333333
 20
2.111111111111111
 30
0.0
  0
VERTEX
  5
4F
330
4B
100
AcDbEntity
  8
Body
 62
   243
420
 16470906
370
    35
100
AcDbVertex
100
AcDb2dVertex
 10
3.583333333333333
 20
1.458333333333333
 30
0.0
  0
VERTEX
  5
50
330
4B
100
AcDbEntity
  8
Body
 62
   243
420
 16470906
370
    35
100
AcDbVertex
100
AcDb2dVertex
 10
4.979166666666666
 20
1.458333333333333
 30
0.0
  0
VERTEX
  5
51
330
4B
100
AcDbEntity
  8
Body
 62
   243
420
 16470906
370
    35
100
AcDbVertex
100
AcDb2dVertex
 10
5.673611111111111
 20
2.118055555555555
 30
0.0
  0
VERTEX
  5
52
330
4B
100
AcDbEntity
  8
Body
 62
   243
420
 16470906
370
    35
100
AcDbVertex
100
AcDb2dVertex
 10
7.319444444444444
 20
2.694444444444444
 30
0.0
  0
VERTEX
  5
53
330
4B
100
AcDbEntity
  8
Body
 62
   243
420
 16470906
370
    35
100
AcDbVertex
100
AcDb2dVertex
 10
7.979166666666666
 20
1.256944444444444
 30
0.0
  0
SEQEND
  5
54
330
4B
100
AcDbEntity
  8
Body
 62
   243
420
 16470906
370
    35
  0
POLYLINE
  5
55
330
1F
100
AcDbEntity
  8
Body
 62
   243
420
 16470906
370
    35
100
AcDb2dPolyline
 66
     1
 10
0.0
 20
0.0
 30
0.0
  0
VERTEX
  5
56
330
55
100
AcDbEntity
  8
Body
 62
   243
420
 16470906
370
    35
100
AcDbVertex
100
AcDb2dVertex
 10
4.979166666666666
 20
1.458333333333333
 30
0.0
  0
VERTEX
  5
57
330
55
100
AcDbEntity
  8
Body
 62
   243
420
 16470906
370
    35
100
AcDbVertex
100
AcDb2dVertex
 10
5.194444444444444
 20
0.4652777777777777
 30
0.0
  0
SEQEND
  5
58
330
55
100
AcDbEntity
  8
Body
 62
   243
420
 16470906
370
    35
  0
POLYLINE
  5
59
330
1F
100
AcDbEntity
  8
Body
 62
   243
420
 16470906
370
    35
100
AcDb2dPolyline
 66
     1
 10
0.0
 20
0.0
 30
0.0
  0
VERTEX
  5
5A
330
59
100
AcDbEntity
  8
Body
 62
   243
420
 16470906
370
    35
100
AcDbVertex
100
AcDb2dVertex
 10
3.583333333333333
 20
1.458333333333333
 30
0.0
  0
VERTEX
  5
5B
330
59
100
AcDbEntity
  8
Body
 62
   243
420
 16470906
370
    35
100
AcDbVertex
100
AcDb2dVertex
 10
3.368055555555555
 20
0.5
 30
0.0
  0
SEQEND
  5
5C
330
59
100
AcDbEntity
  8
Body
 62
   243
420
 16470906
370
    35
  0
POLYLINE
  5
5E
330
1F
100
AcDbEntity
  8
Head
 62
    44
420
 11501056
370
    35
100
AcDb2dPolyline
 66
     1
 10
0.0
 20
0.0
 30
0.0
  0
VERTEX
  5
5F
330
5E
100
AcDbEntity
  8
Head
 62
    44
420
 11501056
370
    35
100
AcDbVertex
100
AcDb2dVertex
 10
1.448611153496636
 20
9.741666687859428
 30
0.0
  0
VERTEX
  5
60
330
5E
100
AcDbEntity
  8
Head
 62
    44
420
 11501056
370
    35
100
AcDbVertex
100
AcDb2dVertex
 10
1.215277777777778
 20
9.495833290947807
 30
0.0
  0
VERTEX
  5
61
330
5E
100
AcDbEntity
  8
Head
 62
    44
420
 11501056
370
    35
100
AcDbVertex
100
AcDb2dVertex
 10
1.262500021192763
 20
8.902777777777777
 30
0.0
  0
VERTEX
  5
62
330
5E
100
AcDbEntity
  8
Head
 62
    44
420
 11501056
370
    35
100
AcDbVertex
100
AcDb2dVertex
 10
1.527777777777778
 20
8.704166624281141
 30
0.0
  0
VERTEX
  5
63
330
5E
100
AcDbEntity
  8
Head
 62
    44
420
 11501056
370
    35
100
AcDbVertex
100
AcDb2dVertex
 10
1.277777777777778
 20
8.472222222222221
 30
0.0
  0
VERTEX
  5
64
330
5E
100
AcDbEntity
  8
Head
 62
    44
420
 11501056
370
    35
100
AcDbVertex
100
AcDb2dVertex
 10
1.256944444444444
 20
7.497222264607747
 30
0.0
  0
VERTEX
  5
65
330
5E
100
AcDbEntity
  8
Head
 62
    44
420
 11501056
370
    35
100
AcDbVertex
100
AcDb2dVertex
 10
1.511111153496636
 20
7.247222052680121
 30
0.0
  0
VERTEX
  5
66
330
5E
100
AcDbEntity
  8
Head
 62
    44
420
 11501056
370
    35
100
AcDbVertex
100
AcDb2dVertex
 10
0.2763889100816515
 20
7.938888761732313
 30
0.0
  0
VERTEX
  5
67
330
5E
100
AcDbEntity
  8
Head
 62
    44
420
 11501056
370
    35
100
AcDbVertex
100
AcDb2dVertex
 10
-0.4166666666666666
 20
7.097222222222221
 30
0.0
  0
VERTEX
  5
68
330
5E
100
AcDbEntity
  8
Head
 62
    44
420
 11501056
370
    35
100
AcDbVertex
100
AcDb2dVertex
 10
0.4874999788072374
 20
6.1000001695421
 30
0.0
  0
VERTEX
  5
69
330
5E
100
AcDbEntity
  8
Head
 62
    44
420
 11501056
370
    35
100
AcDbVertex
100
AcDb2dVertex
 10
1.365277820163303
 20
5.752777947319879
 30
0.0
  0
VERTEX
  5
6A
330
5E
100
AcDbEntity
  8
Head
 62
    44
420
 11501056
370
    35
100
AcDbVertex
100
AcDb2dVertex
 10
1.92638905843099
 20
6.040278116861979
 30
0.0
  0
VERTEX
  5
6B
330
5E
100
AcDbEntity
  8
Head
 62
    44
420
 11501056
370
    35
100
AcDbVertex
100
AcDb2dVertex
 10
1.625000211927626
 20
5.873611450195312
 30
0.0
  0
VERTEX
  5
6C
330
5E
100
AcDbEntity
  8
Head
 62
    44
420
 11501056
370
    35
100
AcDbVertex
100
AcDb2dVertex
 10
1.588889122009277
 20
5.748611450195312
 30
0.0
  0
VERTEX
  5
6D
330
5E
100
AcDbEntity
  8
Head
 62
    44
420
 11501056
370
    35
100
AcDbVertex
100
AcDb2dVertex
 10
1.768055809868706
 20
5.488889058430989
 30
0.0
  0
VERTEX
  5
6E
330
5E
100
AcDbEntity
  8
Head
 62
    44
420
 11501056
370
    35
100
AcDbVertex
100
AcDb2dVertex
 10
1.440278053283691
 20
5.377777947319879
 30
0.0
  0
VERTEX
  5
6F
330
5E
100
AcDbEntity
  8
Head
 62
    44
420
 11501056
370
    35
100
AcDbVertex
100
AcDb2dVertex
 10
1.261111365424262
 20
5.002777947319879
 30
0.0
  0
VERTEX
  5
70
330
5E
100
AcDbEntity
  8
Head
 62
    44
420
 11501056
370
    35
100
AcDbVertex
100
AcDb2dVertex
 10
1.370833608839247
 20
4.697222391764322
 30
0.0
  0
VERTEX
  5
71
330
5E
100
AcDbEntity
  8
Head
 62
    44
420
 11501056
370
    35
100
AcDbVertex
100
AcDb2dVertex
 10
1.137500339084201
 20
4.461111280653212
 30
0.0
  0
VERTEX
  5
72
330
5E
100
AcDbEntity
  8
Head
 62
    44
420
 11501056
370
    35
100
AcDbVertex
100
AcDb2dVertex
 10
1.161111407809787
 20
3.530555725097656
 30
0.0
  0
VERTEX
  5
73
330
5E
100
AcDbEntity
  8
Head
 62
    44
420
 11501056
370
    35
100
AcDbVertex
100
AcDb2dVertex
 10
1.722222540113661
 20
3.072222391764323
 30
0.0
  0
VERTEX
  5
74
330
5E
100
AcDbEntity
  8
Head
 62
    44
420
 11501056
370
    35
100
AcDbVertex
100
AcDb2dVertex
 10
2.676389058430989
 20
3.090277777777778
 30
0.0
  0
VERTEX
  5
75
330
5E
100
AcDbEntity
  8
Head
 62
    44
420
 11501056
370
    35
100
AcDbVertex
100
AcDb2dVertex
 10
3.205555809868706
 20
3.534722222222222
 30
0.0
  0
VERTEX
  5
76
330
5E
100
AcDbEntity
  8
Head
 62
    44
420
 11501056
370
    35
100
AcDbVertex
100
AcDb2dVertex
 10
3.231944613986545
 20
4.455555386013454
 30
0.0
  0
VERTEX
  5
77
330
5E
100
AcDbEntity
  8
Head
 62
    44
420
 11501056
370
    35
100
AcDbVertex
100
AcDb2dVertex
 10
2.986111111111111
 20
4.701388888888888
 30
0.0
  0
VERTEX
  5
78
330
5E
100
AcDbEntity
  8
Head
 62
    44
420
 11501056
370
    35
100
AcDbVertex
100
AcDb2dVertex
 10
3.105555640326606
 20
5.006944444444444
 30
0.0
  0
VERTEX
  5
79
330
5E
100
AcDbEntity
  8
Head
 62
    44
420
 11501056
370
    35
100
AcDbVertex
100
AcDb2dVertex
 10
2.938888973659939
 20
5.372222052680121
 30
0.0
  0
VERTEX
  5
7A
330
5E
100
AcDbEntity
  8
Head
 62
    44
420
 11501056
370
    35
100
AcDbVertex
100
AcDb2dVertex
 10
2.595833460489909
 20
5.487499660915798
 30
0.0
  0
VERTEX
  5
7B
330
5E
100
AcDbEntity
  8
Head
 62
    44
420
 11501056
370
    35
100
AcDbVertex
100
AcDb2dVertex
 10
2.7875001695421
 20
5.76111094156901
 30
0.0
  0
VERTEX
  5
7C
330
5E
100
AcDbEntity
  8
Head
 62
    44
420
 11501056
370
    35
100
AcDbVertex
100
AcDb2dVertex
 10
2.736111323038737
 20
5.88611094156901
 30
0.0
  0
VERTEX
  5
7D
330
5E
100
AcDbEntity
  8
Head
 62
    44
420
 11501056
370
    35
100
AcDbVertex
100
AcDb2dVertex
 10
2.440277947319878
 20
6.038888719346788
 30
0.0
  0
VERTEX
  5
7E
330
5E
100
AcDbEntity
  8
Head
 62
    44
420
 11501056
370
    35
100
AcDbVertex
100
AcDb2dVertex
 10
2.990278032090929
 20
5.76111094156901
 30
0.0
  0
VERTEX
  5
7F
330
5E
100
AcDbEntity
  8
Head
 62
    44
420
 11501056
370
    35
100
AcDbVertex
100
AcDb2dVertex
 10
3.877777947319878
 20
6.084721883138021
 30
0.0
  0
VERTEX
  5
80
330
5E
100
AcDbEntity
  8
Head
 62
    44
420
 11501056
370
    35
100
AcDbVertex
100
AcDb2dVertex
 10
4.777777777777778
 20
7.074999491373697
 30
0.0
  0
VERTEX
  5
81
330
5E
100
AcDbEntity
  8
Head
 62
    44
420
 11501056
370
    35
100
AcDbVertex
100
AcDb2dVertex
 10
4.097222222222222
 20
7.913888931274414
 30
0.0
  0
VERTEX
  5
82
330
5E
100
AcDbEntity
  8
Head
 62
    44
420
 11501056
370
    35
100
AcDbVertex
100
AcDb2dVertex
 10
2.855555640326606
 20
7.26111094156901
 30
0.0
  0
VERTEX
  5
83
330
5E
100
AcDbEntity
  8
Head
 62
    44
420
 11501056
370
    35
100
AcDbVertex
100
AcDb2dVertex
 10
3.104166666666667
 20
7.497222052680121
 30
0.0
  0
VERTEX
  5
84
330
5E
100
AcDbEntity
  8
Head
 62
    44
420
 11501056
370
    35
100
AcDbVertex
100
AcDb2dVertex
 10
3.099999957614475
 20
8.46666653951009
 30
0.0
  0
VERTEX
  5
85
330
5E
100
AcDbEntity
  8
Head
 62
    44
420
 11501056
370
    35
100
AcDbVertex
100
AcDb2dVertex
 10
2.823611153496636
 20
8.688888761732313
 30
0.0
  0
VERTEX
  5
86
330
5E
100
AcDbEntity
  8
Head
 62
    44
420
 11501056
370
    35
100
AcDbVertex
100
AcDb2dVertex
 10
3.108333375718858
 20
8.906944274902344
 30
0.0
  0
VERTEX
  5
87
330
5E
100
AcDbEntity
  8
Head
 62
    44
420
 11501056
370
    35
100
AcDbVertex
100
AcDb2dVertex
 10
3.15555551317003
 20
9.490277608235676
 30
0.0
  0
VERTEX
  5
88
330
5E
100
AcDbEntity
  8
Head
 62
    44
420
 11501056
370
    35
100
AcDbVertex
100
AcDb2dVertex
 10
2.916666666666667
 20
9.744444317287869
 30
0.0
  0
VERTEX
  5
89
330
5E
100
AcDbEntity
  8
Head
 62
    44
420
 11501056
370
    35
100
AcDbVertex
100
AcDb2dVertex
 10
1.448611153496636
 20
9.741666687859428
 30
0.0
  0
SEQEND
  5
8A
330
5E
100
AcDbEntity
  8
Head
 62
    44
420
 11501056
370
    35
  0
SPLINE
  5
8B
330
1F
100
AcDbEntity
  8
Head
 62
    44
420
 11501056
370
    35
100
AcDbSpline
210
0.0
220
0.0
230
1.0
 70
    11
 71
     3
 72
    20
 73
    16
 74
     0
 42
0.0000000001
 43
0.0000000001
 12
1.0
 22
0.0
 32
0.0
 13
1.0
 23
0.0
 33
0.0
 40
0.0
 40
0.0
 40
0.0
 40
0.0
 40
1.0
 40
1.0
 40
1.0
 40
2.0
 40
2.0
 40
2.0
 40
3.0
 40
3.0
 40
3.0
 40
4.0
 40
4.0
 40
4.0
 40
5.0
 40
5.0
 40
5.0
 40
5.0
 10
2.269444359673394
 20
5.534722222222222
 30
0.0
 10
2.331944359673394
 20
5.495833502875434
 30
0.0
 10
2.526388804117838
 20
5.479166666666666
 30
0.0
 10
2.526388804117838
 20
5.479166666666666
 30
0.0
 10
2.526388804117838
 20
5.479166666666666
 30
0.0
 10
1.837499830457899
 20
5.479166666666666
 30
0.0
 10
1.837499830457899
 20
5.479166666666666
 30
0.0
 10
1.837499830457899
 20
5.479166666666666
 30
0.0
 10
2.01249991522895
 20
5.495833502875434
 30
0.0
 10
2.08611085679796
 20
5.531944274902344
 30
0.0
 10
2.16111077202691
 20
5.568055470784505
 30
0.0
 10
2.17916636996799
 20
5.622222052680121
 30
0.0
 10
2.17916636996799
 20
5.622222052680121
 30
0.0
 10
2.17916636996799
 20
5.622222052680121
 30
0.0
 10
2.206944359673394
 20
5.572222391764322
 30
0.0
 10
2.269444359673394
 20
5.534722222222222
 30
0.0
  0
HATCH
  5
8C
330
1F
100
AcDbEntity
  8
Head
 62
    44
420
 11501056
100
AcDbHatch
 10
0.0
 20
0.0
 30
0.0
210
0.0
220
0.0
230
1.0
  2
SOLID
 70
     1
 71
     0
 91
        2
 92
        1
 93
       42
 72
     1
 10
1.448611153496636
 20
9.741666687859428
 11
1.215277777777778
 21
9.495833290947807
 72
     1
 10
1.215277777777778
 20
9.495833290947807
 11
1.262500021192763
 21
8.902777777777777
 72
     1
 10
1.262500021192763
 20
8.902777777777777
 11
1.527777777777778
 21
8.704166624281141
 72
     1
 10
1.527777777777778
 20
8.704166624281141
 11
1.277777777777778
 21
8.472222222222221
 72
     1
 10
1.277777777777778
 20
8.472222222222221
 11
1.256944444444444
 21
7.497222264607747
 72
     1
 10
1.256944444444444
 20
7.497222264607747
 11
1.511111153496636
 21
7.247222052680121
 72
     1
 10
1.511111153496636
 20
7.247222052680121
 11
0.2763889100816515
 21
7.938888761732313
 72
     1
 10
0.2763889100816515
 20
7.938888761732313
 11
-0.4166666666666666
 21
7.097222222222221
 72
     1
 10
-0.4166666666666666
 20
7.097222222222221
 11
0.4874999788072374
 21
6.1000001695421
 72
     1
 10
0.4874999788072374
 20
6.1000001695421
 11
1.365277820163303
 21
5.752777947319879
 72
     1
 10
1.365277820163303
 20
5.752777947319879
 11
1.92638905843099
 21
6.040278116861979
 72
     1
 10
1.92638905843099
 20
6.040278116861979
 11
1.625000211927626
 21
5.873611450195312
 72
     1
 10
1.625000211927626
 20
5.873611450195312
 11
1.588889122009277
 21
5.748611450195312
 72
     1
 10
1.588889122009277
 20
5.748611450195312
 11
1.768055809868706
 21
5.488889058430989
 72
     1
 10
1.768055809868706
 20
5.488889058430989
 11
1.440278053283691
 21
5.377777947319879
 72
     1
 10
1.440278053283691
 20
5.377777947319879
 11
1.261111365424262
 21
5.002777947319879
 72
     1
 10
1.261111365424262
 20
5.002777947319879
 11
1.370833608839247
 21
4.697222391764322
 72
     1
 10
1.370833608839247
 20
4.697222391764322
 11
1.137500339084201
 21
4.461111280653212
 72
     1
 10
1.137500339084201
 20
4.461111280653212
 11
1.161111407809787
 21
3.530555725097656
 72
     1
 10
1.161111407809787
 20
3.530555725097656
 11
1.722222540113661
 21
3.072222391764323
 72
     1
 10
1.722222540113661
 20
3.072222391764323
 11
2.676389058430989
 21
3.090277777777778
 72
     1
 10
2.676389058430989
 20
3.090277777777778
 11
3.205555809868706
 21
3.534722222222222
 72
     1
 10
3.205555809868706
 20
3.534722222222222
 11
3.231944613986545
 21
4.455555386013454
 72
     1
 10
3.231944613986545
 20
4.455555386013454
 11
2.986111111111111
 21
4.701388888888888
 72
     1
 10
2.986111111111111
 20
4.701388888888888
 11
3.105555640326606
 21
5.006944444444444
 72
     1
 10
3.105555640326606
 20
5.006944444444444
 11
2.938888973659939
 21
5.372222052680121
 72
     1
 10
2.938888973659939
 20
5.372222052680121
 11
2.595833460489909
 21
5.487499660915798
 72
     1
 10
2.595833460489909
 20
5.487499660915798
 11
2.7875001695421
 21
5.76111094156901
 72
     1
 10
2.7875001695421
 20
5.76111094156901
 11
2.736111323038737
 21
5.88611094156901
 72
     1
 10
2.736111323038737
 20
5.88611094156901
 11
2.440277947319878
 21
6.038888719346788
 72
     1
 10
2.440277947319878
 20
6.038888719346788
 11
2.990278032090929
 21
5.76111094156901
 72
     1
 10
2.990278032090929
 20
5.76111094156901
 11
3.877777947319878
 21
6.084721883138021
 72
     1
 10
3.877777947319878
 20
6.084721883138021
 11
4.777777777777778
 21
7.074999491373697
 72
     1
 10
4.777777777777778
 20
7.074999491373697
 11
4.097222222222222
 21
7.913888931274414
 72
     1
 10
4.097222222222222
 20
7.913888931274414
 11
2.855555640326606
 21
7.26111094156901
 72
     1
 10
2.855555640326606
 20
7.26111094156901
 11
3.104166666666667
 21
7.497222052680121
 72
     1
 10
3.104166666666667
 20
7.497222052680121
 11
3.099999957614475
 21
8.46666653951009
 72
     1
 10
3.099999957614475
 20
8.46666653951009
 11
2.823611153496636
 21
8.688888761732313
 72
     1
 10
2.823611153496636
 20
8.688888761732313
 11
3.108333375718858
 21
8.906944274902344
 72
     1
 10
3.108333375718858
 20
8.906944274902344
 11
3.15555551317003
 21
9.490277608235676
 72
     1
 10
3.15555551317003
 20
9.490277608235676
 11
2.916666666666667
 21
9.744444317287869
 72
     1
 10
2.916666666666667
 20
9.744444317287869
 11
1.448611153496636
 21
9.741666687859428
 97
        0
 92
        1
 93
        1
 72
     4
 94
        3
 73
     0
 74
     1
 95
       20
 96
       16
 40
0.0
 40
0.0
 40
0.0
 40
0.0
 40
1.0
 40
1.0
 40
1.0
 40
2.0
 40
2.0
 40
2.0
 40
3.0
 40
3.0
 40
3.0
 40
4.0
 40
4.0
 40
4.0
 40
5.0
 40
5.0
 40
5.0
 40
5.0
 10
2.269444359673394
 20
5.534722222222222
 10
2.331944359673394
 20
5.495833502875434
 10
2.526388804117838
 20
5.479166666666666
 10
2.526388804117838
 20
5.479166666666666
 10
2.526388804117838
 20
5.479166666666666
 10
1.837499830457899
 20
5.479166666666666
 10
1.837499830457899
 20
5.479166666666666
 10
1.837499830457899
 20
5.479166666666666
 10
2.01249991522895
 20
5.495833502875434
 10
2.08611085679796
 20
5.531944274902344
 10
2.16111077202691
 20
5.568055470784505
 10
2.17916636996799
 20
5.622222052680121
 10
2.17916636996799
 20
5.622222052680121
 10
2.17916636996799
 20
5.622222052680121
 10
2.206944359673394
 20
5.572222391764322
 10
2.269444359673394
 20
5.534722222222222
 97
        0
 97
        0
 75
     2
 76
     1
 98
        0
  0
POLYLINE
  5
8D
330
1F
100
AcDbEntity
  8
Head
 62
   243
420
 16470906
370
    35
100
AcDb2dPolyline
 66
     1
 10
0.0
 20
0.0
 30
0.0
  0
VERTEX
  5
8E
330
8D
100
AcDbEntity
  8
Head
 62
   243
420
 16470906
370
    35
100
AcDbVertex
100
AcDb2dVertex
 10
2.918055640326606
 20
9.747222264607746
 30
0.0
  0
VERTEX
  5
8F
330
8D
100
AcDbEntity
  8
Head
 62
   243
420
 16470906
370
    35
100
AcDbVertex
100
AcDb2dVertex
 10
2.825000127156575
 20
8.69166670905219
 30
0.0
  0
VERTEX
  5
90
330
8D
100
AcDbEntity
  8
Head
 62
   243
420
 16470906
370
    35
100
AcDbVertex
100
AcDb2dVertex
 10
2.855555640326606
 20
7.263888888888888
 30
0.0
  0
VERTEX
  5
91
330
8D
100
AcDbEntity
  8
Head
 62
   243
420
 16470906
370
    35
100
AcDbVertex
100
AcDb2dVertex
 10
2.438888973659939
 20
6.041666666666666
 30
0.0
  0
VERTEX
  5
92
330
8D
100
AcDbEntity
  8
Head
 62
   243
420
 16470906
370
    35
100
AcDbVertex
100
AcDb2dVertex
 10
2.594444486829969
 20
5.490277608235677
 30
0.0
  0
VERTEX
  5
93
330
8D
100
AcDbEntity
  8
Head
 62
   243
420
 16470906
370
    35
100
AcDbVertex
100
AcDb2dVertex
 10
2.983333375718858
 20
4.702777438693576
 30
0.0
  0
VERTEX
  5
94
330
8D
100
AcDbEntity
  8
Head
 62
   243
420
 16470906
370
    35
100
AcDbVertex
100
AcDb2dVertex
 10
2.933333290947808
 20
3.316666497124566
 30
0.0
  0
VERTEX
  5
95
330
8D
100
AcDbEntity
  8
Head
 62
   243
420
 16470906
370
    35
100
AcDbVertex
100
AcDb2dVertex
 10
1.431944423251682
 20
3.316666497124566
 30
0.0
  0
VERTEX
  5
96
330
8D
100
AcDbEntity
  8
Head
 62
   243
420
 16470906
370
    35
100
AcDbVertex
100
AcDb2dVertex
 10
1.369444423251682
 20
4.69861094156901
 30
0.0
  0
VERTEX
  5
97
330
8D
100
AcDbEntity
  8
Head
 62
   243
420
 16470906
370
    35
100
AcDbVertex
100
AcDb2dVertex
 10
1.766666624281141
 20
5.490277608235677
 30
0.0
  0
VERTEX
  5
98
330
8D
100
AcDbEntity
  8
Head
 62
   243
420
 16470906
370
    35
100
AcDbVertex
100
AcDb2dVertex
 10
1.924999872843424
 20
6.041666666666666
 30
0.0
  0
VERTEX
  5
99
330
8D
100
AcDbEntity
  8
Head
 62
   243
420
 16470906
370
    35
100
AcDbVertex
100
AcDb2dVertex
 10
1.508333206176758
 20
7.25
 30
0.0
  0
VERTEX
  5
9A
330
8D
100
AcDbEntity
  8
Head
 62
   243
420
 16470906
370
    35
100
AcDbVertex
100
AcDb2dVertex
 10
1.523610962761773
 20
8.70555559794108
 30
0.0
  0
VERTEX
  5
9B
330
8D
100
AcDbEntity
  8
Head
 62
   243
420
 16470906
370
    35
100
AcDbVertex
100
AcDb2dVertex
 10
1.445833206176758
 20
9.743055555555555
 30
0.0
  0
SEQEND
  5
9C
330
8D
100
AcDbEntity
  8
Head
 62
   243
420
 16470906
370
    35
  0
POLYLINE
  5
9D
330
1F
100
AcDbEntity
  8
Head
 62
   243
420
 16470906
370
    35
100
AcDb2dPolyline
 66
     1
 10
0.0
 20
0.0
 30
0.0
  0
VERTEX
  5
9E
330
9D
100
AcDbEntity
  8
Head
 62
   243
420
 16470906
370
    35
100
AcDbVertex
100
AcDb2dVertex
 10
1.361111111111111
 20
4.697222391764322
 30
0.0
  0
VERTEX
  5
9F
330
9D
100
AcDbEntity
  8
Head
 62
   243
420
 16470906
370
    35
100
AcDbVertex
100
AcDb2dVertex
 10
2.984722137451172
 20
4.697222391764322
 30
0.0
  0
SEQEND
  5
A0
330
9D
100
AcDbEntity
  8
Head
 62
   243
420
 16470906
370
    35
  0
POLYLINE
  5
A1
330
1F
100
AcDbEntity
  8
Head
 62
   243
420
 16470906
370
    35
100
AcDb2dPolyline
 66
     1
 10
0.0
 20
0.0
 30
0.0
  0
VERTEX
  5
A2
330
A1
100
AcDbEntity
  8
Head
 62
   243
420
 16470906
370
    35
100
AcDbVertex
100
AcDb2dVertex
 10
1.751388867696126
 20
5.488889058430989
 30
0.0
  0
VERTEX
  5
A3
330
A1
100
AcDbEntity
  8
Head
 62
   243
420
 16470906
370
    35
100
AcDbVertex
100
AcDb2dVertex
 10
2.616666581895616
 20
5.488889058430989
 30
0.0
  0
SEQEND
  5
A4
330
A1
100
AcDbEntity
  8
Head
 62
   243
420
 16470906
370
    35
  0
POLYLINE
  5
A5
330
1F
100
AcDbEntity
  8
Head
 62
   243
420
 16470906
370
    35
100
AcDb2dPolyline
 66
     1
 10
0.0
 20
0.0
 30
0.0
  0
VERTEX
  5
A6
330
A5
100
AcDbEntity
  8
Head
 62
   243
420
 16470906
370
    35
100
AcDbVertex
100
AcDb2dVertex
 10
1.915277693006727
 20
6.038888719346788
 30
0.0
  0
VERTEX
  5
A7
330
A5
100
AcDbEntity
  8
Head
 62
   243
420
 16470906
370
    35
100
AcDbVertex
100
AcDb2dVertex
 10
2.452777650621202
 20
6.038888719346788
 30
0.0
  0
SEQEND
  5
A8
330
A5
100
AcDbEntity
  8
Head
 62
   243
420
 16470906
370
    35
  0
POLYLINE
  5
A9
330
1F
100
AcDbEntity
  8
Head
 62
   243
420
 16470906
370
    35
100
AcDb2dPolyline
 66
     1
 10
0.0
 20
0.0
 30
0.0
  0
VERTEX
  5
AA
330
A9
100
AcDbEntity
  8
Head
 62
   243
420
 16470906
370
    35
100
AcDbVertex
100
AcDb2dVertex
 10
1.526388910081651
 20
8.70555559794108
 30
0.0
  0
VERTEX
  5
AB
330
A9
100
AcDbEntity
  8
Head
 62
   243
420
 16470906
370
    35
100
AcDbVertex
100
AcDb2dVertex
 10
2.827777862548828
 20
8.70555559794108
 30
0.0
  0
SEQEND
  5
AC
330
A9
100
AcDbEntity
  8
Head
 62
   243
420
 16470906
370
    35
  0
POLYLINE
  5
AD
330
1F
100
AcDbEntity
  8
Head
 62
   243
420
 16470906
370
    35
100
AcDb2dPolyline
 66
     1
 10
0.0
 20
0.0
 30
0.0
  0
VERTEX
  5
AE
330
AD
100
AcDbEntity
  8
Head
 62
   243
420
 16470906
370
    35
100
AcDbVertex
100
AcDb2dVertex
 10
3.879166497124566
 20
6.086111280653212
 30
0.0
  0
VERTEX
  5
AF
330
AD
100
AcDbEntity
  8
Head
 62
   243
420
 16470906
370
    35
100
AcDbVertex
100
AcDb2dVertex
 10
2.858333163791233
 20
7.259722391764322
 30
0.0
  0
VERTEX
  5
B0
330
AD
100
AcDbEntity
  8
Head
 62
   243
420
 16470906
370
    35
100
AcDbVertex
100
AcDb2dVertex
 10
1.50277762942844
 20
7.259722391764322
 30
0.0
  0
VERTEX
  5
B1
330
AD
100
AcDbEntity
  8
Head
 62
   243
420
 16470906
370
    35
100
AcDbVertex
100
AcDb2dVertex
 10
0.4874998728434244
 20
6.1000001695421
 30
0.0
  0
SEQEND
  5
B2
330
AD
100
AcDbEntity
  8
Head
 62
   243
420
 16470906
370
    35
  0
SPLINE
  5
B4
330
1F
100
AcDbEntity
  8
Tail
370
     0
100
AcDbSpline
210
0.0
220
0.0
230
1.0
 70
    11
 71
     3
 72
    11
 73
     7
 74
     0
 42
0.0000000001
 43
0.0000000001
 12
1.0
 22
0.0
 32
0.0
 13
1.0
 23
0.0
 33
0.0
 40
0.0
 40
0.0
 40
0.0
 40
0.0
 40
1.0
 40
1.0
 40
1.0
 40
2.0
 40
2.0
 40
2.0
 40
2.0
 10
7.472222222222221
 20
3.194444444444444
 30
0.0
 10
7.472222222222221
 20
3.194444444444444
 30
0.0
 10
7.468055725097656
 20
3.218055725097656
 30
0.0
 10
7.468055725097656
 20
3.218055725097656
 30
0.0
 10
7.470833672417534
 20
3.202777438693576
 30
0.0
 10
7.472222222222221
 20
3.194444444444444
 30
0.0
 10
7.472222222222221
 20
3.194444444444444
 30
0.0
  0
SPLINE
  5
B5
330
1F
100
AcDbEntity
  8
Tail
370
     0
100
AcDbSpline
210
0.0
220
0.0
230
1.0
 70
    11
 71
     3
 72
    11
 73
     7
 74
     0
 42
0.0000000001
 43
0.0000000001
 12
1.0
 22
0.0
 32
0.0
 13
1.0
 23
0.0
 33
0.0
 40
0.0
 40
0.0
 40
0.0
 40
0.0
 40
1.0
 40
1.0
 40
1.0
 40
2.0
 40
2.0
 40
2.0
 40
2.0
 10
6.416666666666666
 20
3.047222561306424
 30
0.0
 10
6.416666666666666
 20
3.047222561306424
 30
0.0
 10
6.423611111111111
 20
2.9375
 30
0.0
 10
6.423611111111111
 20
2.9375
 30
0.0
 10
6.423611111111111
 20
2.9375
 30
0.0
 10
6.423611111111111
 20
2.979166666666667
 30
0.0
 10
6.416666666666666
 20
3.047222561306424
 30
0.0
  0
SPLINE
  5
B6
330
1F
100
AcDbEntity
  8
Tail
370
     0
100
AcDbSpline
210
0.0
220
0.0
230
1.0
 70
    11
 71
     3
 72
    11
 73
     7
 74
     0
 42
0.0000000001
 43
0.0000000001
 12
1.0
 22
0.0
 32
0.0
 13
1.0
 23
0.0
 33
0.0
 40
0.0
 40
0.0
 40
0.0
 40
0.0
 40
1.0
 40
1.0
 40
1.0
 40
2.0
 40
2.0
 40
2.0
 40
2.0
 10
6.340277777777778
 20
2.991667005750868
 30
0.0
 10
6.340277777777778
 20
2.991667005750868
 30
0.0
 10
6.347222222222221
 20
2.881944444444444
 30
0.0
 10
6.347222222222221
 20
2.881944444444444
 30
0.0
 10
6.347222222222221
 20
2.881944444444444
 30
0.0
 10
6.347222222222221
 20
2.923611111111111
 30
0.0
 10
6.340277777777778
 20
2.991667005750868
 30
0.0
  0
SPLINE
  5
B7
330
1F
100
AcDbEntity
  8
Tail
370
     0
100
AcDbSpline
210
0.0
220
0.0
230
1.0
 70
    11
 71
     3
 72
    11
 73
     7
 74
     0
 42
0.0000000001
 43
0.0000000001
 12
1.0
 22
0.0
 32
0.0
 13
1.0
 23
0.0
 33
0.0
 40
0.0
 40
0.0
 40
0.0
 40
0.0
 40
1.0
 40
1.0
 40
1.0
 40
2.0
 40
2.0
 40
2.0
 40
2.0
 10
7.391666836208767
 20
3.1625001695421
 30
0.0
 10
7.391666836208767
 20
3.1625001695421
 30
0.0
 10
7.395833333333333
 20
3.138888888888889
 30
0.0
 10
7.395833333333333
 20
3.138888888888889
 30
0.0
 10
7.395833333333333
 20
3.138888888888889
 30
0.0
 10
7.394444783528646
 20
3.147221883138021
 30
0.0
 10
7.391666836208767
 20
3.1625001695421
 30
0.0
  0
SPLINE
  5
B8
330
1F
100
AcDbEntity
  8
Tail
370
     0
100
AcDbSpline
210
0.0
220
0.0
230
1.0
 70
    11
 71
     3
 72
   194
 73
   190
 74
     0
 42
0.0000000001
 43
0.0000000001
 12
1.0
 22
0.0
 32
0.0
 13
1.0
 23
0.0
 33
0.0
 40
0.0
 40
0.0
 40
0.0
 40
0.0
 40
1.0
 40
1.0
 40
1.0
 40
2.0
 40
2.0
 40
2.0
 40
3.0
 40
3.0
 40
3.0
 40
4.0
 40
4.0
 40
4.0
 40
5.0
 40
5.0
 40
5.0
 40
6.0
 40
6.0
 40
6.0
 40
7.0
 40
7.0
 40
7.0
 40
8.0
 40
8.0
 40
8.0
 40
9.0
 40
9.0
 40
9.0
 40
10.0
 40
10.0
 40
10.0
 40
11.0
 40
11.0
 40
11.0
 40
12.0
 40
12.0
 40
12.0
 40
13.0
 40
13.0
 40
13.0
 40
14.0
 40
14.0
 40
14.0
 40
15.0
 40
15.0
 40
15.0
 40
16.0
 40
16.0
 40
16.0
 40
17.0
 40
17.0
 40
17.0
 40
18.0
 40
18.0
 40
18.0
 40
19.0
 40
19.0
 40
19.0
 40
20.0
 40
20.0
 40
20.0
 40
21.0
 40
21.0
 40
21.0
 40
22.0
 40
22.0
 40
22.0
 40
23.0
 40
23.0
 40
23.0
 40
24.0
 40
24.0
 40
24.0
 40
25.0
 40
25.0
 40
25.0
 40
26.0
 40
26.0
 40
26.0
 40
27.0
 40
27.0
 40
27.0
 40
28.0
 40
28.0
 40
28.0
 40
29.0
 40
29.0
 40
29.0
 40
30.0
 40
30.0
 40
30.0
 40
31.0
 40
31.0
 40
31.0
 40
32.0
 40
32.0
 40
32.0
 40
33.0
 40
33.0
 40
33.0
 40
34.0
 40
34.0
 40
34.0
 40
35.0
 40
35.0
 40
35.0
 40
36.0
 40
36.0
 40
36.0
 40
37.0
 40
37.0
 40
37.0
 40
38.0
 40
38.0
 40
38.0
 40
39.0
 40
39.0
 40
39.0
 40
40.0
 40
40.0
 40
40.0
 40
41.0
 40
41.0
 40
41.0
 40
42.0
 40
42.0
 40
42.0
 40
43.0
 40
43.0
 40
43.0
 40
44.0
 40
44.0
 40
44.0
 40
45.0
 40
45.0
 40
45.0
 40
46.0
 40
46.0
 40
46.0
 40
47.0
 40
47.0
 40
47.0
 40
48.0
 40
48.0
 40
48.0
 40
49.0
 40
49.0
 40
49.0
 40
50.0
 40
50.0
 40
50.0
 40
51.0
 40
51.0
 40
51.0
 40
52.0
 40
52.0
 40
52.0
 40
53.0
 40
53.0
 40
53.0
 40
54.0
 40
54.0
 40
54.0
 40
55.0
 40
55.0
 40
55.0
 40
56.0
 40
56.0
 40
56.0
 40
57.0
 40
57.0
 40
57.0
 40
58.0
 40
58.0
 40
58.0
 40
59.0
 40
59.0
 40
59.0
 40
60.0
 40
60.0
 40
60.0
 40
61.0
 40
61.0
 40
61.0
 40
62.0
 40
62.0
 40
62.0
 40
63.0
 40
63.0
 40
63.0
 40
63.0
 10
8.13888888888889
 20
4.222222222222222
 30
0.0
 10
8.152777777777777
 20
4.340277777777778
 30
0.0
 10
8.131944444444445
 20
4.465277777777778
 30
0.0
 10
8.131944444444445
 20
4.465277777777778
 30
0.0
 10
8.131944444444445
 20
4.465277777777778
 30
0.0
 10
8.222222222222221
 20
4.284722222222222
 30
0.0
 10
8.222222222222221
 20
4.284722222222222
 30
0.0
 10
8.222222222222221
 20
4.284722222222222
 30
0.0
 10
8.125
 20
4.645833333333333
 30
0.0
 10
8.125
 20
4.645833333333333
 30
0.0
 10
8.125
 20
4.645833333333333
 30
0.0
 10
8.070832994249132
 20
4.645833333333333
 30
0.0
 10
8.070832994249132
 20
4.645833333333333
 30
0.0
 10
8.137499491373697
 20
4.663888719346788
 30
0.0
 10
8.186110602484808
 20
4.676389058430989
 30
0.0
 10
8.180555555555555
 20
4.694444444444444
 30
0.0
 10
8.166666666666666
 20
4.736111111111111
 30
0.0
 10
7.826388888888888
 20
4.819444444444444
 30
0.0
 10
7.620833502875434
 20
4.684722052680121
 30
0.0
 10
7.480556064181857
 20
4.604166666666666
 30
0.0
 10
7.3500001695421
 20
4.49861102634006
 30
0.0
 10
7.208333333333333
 20
4.418055216471354
 30
0.0
 10
7.048611111111111
 20
4.329166412353516
 30
0.0
 10
6.866666581895616
 20
4.277777353922525
 30
0.0
 10
6.695833418104383
 20
4.218055301242404
 30
0.0
 10
6.530555725097656
 20
4.16111077202691
 30
0.0
 10
6.375
 20
4.09722179836697
 30
0.0
 10
6.197222391764322
 20
4.127777523464626
 30
0.0
 10
6.090277777777778
 20
4.145832909478082
 30
0.0
 10
5.950000339084201
 20
4.168055216471354
 30
0.0
 10
5.847222222222222
 20
4.201388465033637
 30
0.0
 10
5.847222222222222
 20
4.201388465033637
 30
0.0
 10
5.847222222222222
 20
4.201388465033637
 30
0.0
 10
5.847222222222222
 20
4.201388465033637
 30
0.0
 10
5.847222222222222
 20
4.201388465033637
 30
0.0
 10
5.712499830457899
 20
4.163888295491536
 30
0.0
 10
5.712499830457899
 20
4.163888295491536
 30
0.0
 10
5.712499830457899
 20
4.163888295491536
 30
0.0
 10
5.754166497124566
 20
3.652776930067274
 30
0.0
 10
5.754166497124566
 20
3.652776930067274
 30
0.0
 10
5.754166497124566
 20
3.652776930067274
 30
0.0
 10
5.891666412353516
 20
3.627777099609375
 30
0.0
 10
5.891666412353516
 20
3.627777099609375
 30
0.0
 10
5.922222137451172
 20
3.590276930067274
 30
0.0
 10
5.979166242811415
 20
3.504165649414062
 30
0.0
 10
6.048610687255859
 20
3.319443596733941
 30
0.0
 10
6.152777353922525
 20
3.041665818956163
 30
0.0
 10
6.201388465033637
 20
2.89583248562283
 30
0.0
 10
6.201388465033637
 20
2.89583248562283
 30
0.0
 10
6.201388465033637
 20
2.89583248562283
 30
0.0
 10
6.112499660915798
 20
3.408332824707031
 30
0.0
 10
6.112499660915798
 20
3.408332824707031
 30
0.0
 10
6.116666158040364
 20
3.397221883138021
 30
0.0
 10
6.120833079020182
 20
3.38611094156901
 30
0.0
 10
6.124999576144748
 20
3.374999152289496
 30
0.0
 10
6.229166242811415
 20
3.097221374511719
 30
0.0
 10
6.277777353922525
 20
2.951388041178385
 30
0.0
 10
6.277777353922525
 20
2.951388041178385
 30
0.0
 10
6.277777353922525
 20
2.951388041178385
 30
0.0
 10
6.169444190131293
 20
3.570832146538628
 30
0.0
 10
6.169444190131293
 20
3.570832146538628
 30
0.0
 10
6.18611102634006
 20
3.540276421440972
 30
0.0
 10
6.206944359673394
 20
3.498609754774305
 30
0.0
 10
6.229166242811415
 20
3.444443596733941
 30
0.0
 10
6.301388634575737
 20
3.269443935818142
 30
0.0
 10
6.329166412353516
 20
3.098609924316406
 30
0.0
 10
6.340277353922525
 20
2.991666158040364
 30
0.0
 10
6.340277353922525
 20
2.991666158040364
 30
0.0
 10
6.308333079020182
 20
3.491666158040364
 30
0.0
 10
6.308333079020182
 20
3.491666158040364
 30
0.0
 10
6.377777523464626
 20
3.319443596733941
 30
0.0
 10
6.405555301242404
 20
3.151388380262587
 30
0.0
 10
6.416666242811415
 20
3.04722171359592
 30
0.0
 10
6.416666242811415
 20
3.04722171359592
 30
0.0
 10
6.381944020589192
 20
3.608333163791233
 30
0.0
 10
6.381944020589192
 20
3.608333163791233
 30
0.0
 10
6.398610856797959
 20
3.574999491373698
 30
0.0
 10
6.416666242811415
 20
3.534722222222222
 30
0.0
 10
6.437499576144748
 20
3.487499660915798
 30
0.0
 10
6.541666242811415
 20
3.251388549804688
 30
0.0
 10
6.666666242811415
 20
2.911110772026909
 30
0.0
 10
6.666666242811415
 20
2.911110772026909
 30
0.0
 10
6.666666242811415
 20
2.911110772026909
 30
0.0
 10
6.552777184380425
 20
3.452777438693576
 30
0.0
 10
6.552777184380425
 20
3.452777438693576
 30
0.0
 10
6.647221459282768
 20
3.229166666666667
 30
0.0
 10
6.743055131700303
 20
2.966666327582465
 30
0.0
 10
6.743055131700303
 20
2.966666327582465
 30
0.0
 10
6.743055131700303
 20
2.966666327582465
 30
0.0
 10
6.580554962158203
 20
3.736111111111111
 30
0.0
 10
6.580554962158203
 20
3.736111111111111
 30
0.0
 10
6.618055131700303
 20
3.688888549804688
 30
0.0
 10
6.661110348171658
 20
3.619444105360243
 30
0.0
 10
6.701388465033637
 20
3.522221883138021
 30
0.0
 10
6.805555131700303
 20
3.265277438693576
 30
0.0
 10
6.888888465033637
 20
2.952777438693576
 30
0.0
 10
6.888888465033637
 20
2.952777438693576
 30
0.0
 10
6.888888465033637
 20
2.952777438693576
 30
0.0
 10
6.838888380262587
 20
3.416666666666667
 30
0.0
 10
6.838888380262587
 20
3.416666666666667
 30
0.0
 10
6.912499321831596
 20
3.206944783528646
 30
0.0
 10
6.965277353922525
 20
3.008332994249132
 30
0.0
 10
6.965277353922525
 20
3.008332994249132
 30
0.0
 10
6.965277353922525
 20
3.008332994249132
 30
0.0
 10
6.894443935818142
 20
3.655554877387153
 30
0.0
 10
6.894443935818142
 20
3.655554877387153
 30
0.0
 10
6.898610432942708
 20
3.644443935818142
 30
0.0
 10
6.904166327582465
 20
3.631943596733941
 30
0.0
 10
6.90972179836697
 20
3.619444105360243
 30
0.0
 10
7.048610687255859
 20
3.286110772026909
 30
0.0
 10
7.173611111111111
 20
3.049999660915799
 30
0.0
 10
7.173611111111111
 20
3.049999660915799
 30
0.0
 10
7.173611111111111
 20
3.049999660915799
 30
0.0
 10
7.105555640326606
 20
3.501388549804688
 30
0.0
 10
7.105555640326606
 20
3.501388549804688
 30
0.0
 10
7.195832994249131
 20
3.270833333333333
 30
0.0
 10
7.25
 20
3.105555216471354
 30
0.0
 10
7.25
 20
3.105555216471354
 30
0.0
 10
7.25
 20
3.105555216471354
 30
0.0
 10
7.149999830457899
 20
3.763888888888889
 30
0.0
 10
7.149999830457899
 20
3.763888888888889
 30
0.0
 10
7.174999660915798
 20
3.71388922797309
 30
0.0
 10
7.204166836208767
 20
3.658333672417534
 30
0.0
 10
7.236111111111111
 20
3.598610772026909
 30
0.0
 10
7.337499830457899
 20
3.408332824707031
 30
0.0
 10
7.379166497124565
 20
3.227777269151475
 30
0.0
 10
7.391666836208767
 20
3.163888719346788
 30
0.0
 10
7.391666836208767
 20
3.163888719346788
 30
0.0
 10
7.295833163791232
 20
3.686110602484809
 30
0.0
 10
7.295833163791232
 20
3.686110602484809
 30
0.0
 10
7.301389058430989
 20
3.674999660915798
 30
0.0
 10
7.306944105360243
 20
3.665277269151475
 30
0.0
 10
7.3125
 20
3.654166327582465
 30
0.0
 10
7.413888719346788
 20
3.463888380262587
 30
0.0
 10
7.455555386013454
 20
3.283332824707031
 30
0.0
 10
7.468055725097656
 20
3.219444274902344
 30
0.0
 10
7.468055725097656
 20
3.219444274902344
 30
0.0
 10
7.361111111111111
 20
3.804166158040364
 30
0.0
 10
7.361111111111111
 20
3.804166158040364
 30
0.0
 10
7.363889058430989
 20
3.798610263400608
 30
0.0
 10
7.366667005750868
 20
3.791665818956163
 30
0.0
 10
7.369444105360243
 20
3.786110772026909
 30
0.0
 10
7.501388549804688
 20
3.473610772026909
 30
0.0
 10
7.633332994249131
 20
3.258332994249132
 30
0.0
 10
7.633332994249131
 20
3.258332994249132
 30
0.0
 10
7.633332994249131
 20
3.258332994249132
 30
0.0
 10
7.580555386013454
 20
3.736111111111111
 30
0.0
 10
7.580555386013454
 20
3.736111111111111
 30
0.0
 10
7.670833163791232
 20
3.494444105360243
 30
0.0
 10
7.709721883138021
 20
3.313888549804688
 30
0.0
 10
7.709721883138021
 20
3.313888549804688
 30
0.0
 10
7.709721883138021
 20
3.313888549804688
 30
0.0
 10
7.661110772026909
 20
3.759721544053819
 30
0.0
 10
7.661110772026909
 20
3.759721544053819
 30
0.0
 10
7.661110772026909
 20
3.759721544053819
 30
0.0
 10
7.661110772026909
 20
3.759721544053819
 30
0.0
 10
7.661110772026909
 20
3.758332994249132
 30
0.0
 10
7.786110772026909
 20
3.549999660915798
 30
0.0
 10
7.959721883138021
 20
3.404166327582465
 30
0.0
 10
7.959721883138021
 20
3.404166327582465
 30
0.0
 10
7.959721883138021
 20
3.404166327582465
 30
0.0
 10
7.856943766276041
 20
3.76111094156901
 30
0.0
 10
7.856943766276041
 20
3.76111094156901
 30
0.0
 10
7.959721883138021
 20
3.587499830457899
 30
0.0
 10
8.036110772026909
 20
3.459721883138021
 30
0.0
 10
8.036110772026909
 20
3.459721883138021
 30
0.0
 10
8.036110772026909
 20
3.459721883138021
 30
0.0
 10
7.88611094156901
 20
3.983333163791233
 30
0.0
 10
7.88611094156901
 20
3.983333163791233
 30
0.0
 10
7.911110772026909
 20
3.936111026340061
 30
0.0
 10
7.933333502875434
 20
3.893055386013454
 30
0.0
 10
7.952777438693576
 20
3.862499660915798
 30
0.0
 10
7.987499660915798
 20
3.802777608235677
 30
0.0
 10
7.979166666666666
 20
3.905555301242404
 30
0.0
 10
7.955555386013454
 20
4.052777608235677
 30
0.0
 10
7.983333163791232
 20
4.0
 30
0.0
 10
8.008332994249132
 20
3.951388888888889
 30
0.0
 10
8.029166327582464
 20
3.918055216471354
 30
0.0
 10
8.063888549804688
 20
3.85972171359592
 30
0.0
 10
8.055555555555555
 20
3.959721883138021
 30
0.0
 10
8.031944274902344
 20
4.104166242811415
 30
0.0
 10
8.068055046929253
 20
4.059721628824869
 30
0.0
 10
8.102777269151476
 20
4.024999406602648
 30
0.0
 10
8.126388549804688
 20
4.022221883138021
 30
0.0
 10
8.161110772026909
 20
4.019443935818142
 30
0.0
 10
8.127777099609375
 20
4.145832909478082
 30
0.0
 10
8.086110432942707
 20
4.276388380262587
 30
0.0
 10
8.11111111111111
 20
4.212499830457899
 30
0.0
 10
8.133332994249132
 20
4.177777608235677
 30
0.0
 10
8.13888888888889
 20
4.222222222222222
 30
0.0
  0
HATCH
  5
B9
330
1F
100
AcDbEntity
  8
Tail
 62
    44
420
 11501056
100
AcDbHatch
 10
0.0
 20
0.0
 30
0.0
210
0.0
220
0.0
230
1.0
  2
SOLID
 70
     1
 71
     0
 91
        5
 92
        1
 93
        1
 72
     4
 94
        3
 73
     0
 74
     1
 95
       11
 96
        7
 40
0.0
 40
0.0
 40
0.0
 40
0.0
 40
1.0
 40
1.0
 40
1.0
 40
2.0
 40
2.0
 40
2.0
 40
2.0
 10
7.472222222222221
 20
3.194444444444444
 10
7.472222222222221
 20
3.194444444444444
 10
7.468055725097656
 20
3.218055725097656
 10
7.468055725097656
 20
3.218055725097656
 10
7.470833672417534
 20
3.202777438693576
 10
7.472222222222221
 20
3.194444444444444
 10
7.472222222222221
 20
3.194444444444444
 97
        0
 97
        0
 92
        1
 93
        1
 72
     4
 94
        3
 73
     0
 74
     1
 95
       11
 96
        7
 40
0.0
 40
0.0
 40
0.0
 40
0.0
 40
1.0
 40
1.0
 40
1.0
 40
2.0
 40
2.0
 40
2.0
 40
2.0
 10
6.416666666666666
 20
3.047222561306424
 10
6.416666666666666
 20
3.047222561306424
 10
6.423611111111111
 20
2.9375
 10
6.423611111111111
 20
2.9375
 10
6.423611111111111
 20
2.9375
 10
6.423611111111111
 20
2.979166666666667
 10
6.416666666666666
 20
3.047222561306424
 97
        0
 97
        0
 92
        1
 93
        1
 72
     4
 94
        3
 73
     0
 74
     1
 95
       11
 96
        7
 40
0.0
 40
0.0
 40
0.0
 40
0.0
 40
1.0
 40
1.0
 40
1.0
 40
2.0
 40
2.0
 40
2.0
 40
2.0
 10
6.340277777777778
 20
2.991667005750868
 10
6.340277777777778
 20
2.991667005750868
 10
6.347222222222221
 20
2.881944444444444
 10
6.347222222222221
 20
2.881944444444444
 10
6.347222222222221
 20
2.881944444444444
 10
6.347222222222221
 20
2.923611111111111
 10
6.340277777777778
 20
2.991667005750868
 97
        0
 97
        0
 92
        1
 93
        1
 72
     4
 94
        3
 73
     0
 74
     1
 95
       11
 96
        7
 40
0.0
 40
0.0
 40
0.0
 40
0.0
 40
1.0
 40
1.0
 40
1.0
 40
2.0
 40
2.0
 40
2.0
 40
2.0
 10
7.391666836208767
 20
3.1625001695421
 10
7.391666836208767
 20
3.1625001695421
 10
7.395833333333333
 20
3.138888888888889
 10
7.395833333333333
 20
3.138888888888889
 10
7.395833333333333
 20
3.138888888888889
 10
7.394444783528646
 20
3.147221883138021
 10
7.391666836208767
 20
3.1625001695421
 97
        0
 97
        0
 92
        1
 93
        1
 72
     4
 94
        3
 73
     0
 74
     1
 95
      194
 96
      190
 40
0.0
 40
0.0
 40
0.0
 40
0.0
 40
1.0
 40
1.0
 40
1.0
 40
2.0
 40
2.0
 40
2.0
 40
3.0
 40
3.0
 40
3.0
 40
4.0
 40
4.0
 40
4.0
 40
5.0
 40
5.0
 40
5.0
 40
6.0
 40
6.0
 40
6.0
 40
7.0
 40
7.0
 40
7.0
 40
8.0
 40
8.0
 40
8.0
 40
9.0
 40
9.0
 40
9.0
 40
10.0
 40
10.0
 40
10.0
 40
11.0
 40
11.0
 40
11.0
 40
12.0
 40
12.0
 40
12.0
 40
13.0
 40
13.0
 40
13.0
 40
14.0
 40
14.0
 40
14.0
 40
15.0
 40
15.0
 40
15.0
 40
16.0
 40
16.0
 40
16.0
 40
17.0
 40
17.0
 40
17.0
 40
18.0
 40
18.0
 40
18.0
 40
19.0
 40
19.0
 40
19.0
 40
20.0
 40
20.0
 40
20.0
 40
21.0
 40
21.0
 40
21.0
 40
22.0
 40
22.0
 40
22.0
 40
23.0
 40
23.0
 40
23.0
 40
24.0
 40
24.0
 40
24.0
 40
25.0
 40
25.0
 40
25.0
 40
26.0
 40
26.0
 40
26.0
 40
27.0
 40
27.0
 40
27.0
 40
28.0
 40
28.0
 40
28.0
 40
29.0
 40
29.0
 40
29.0
 40
30.0
 40
30.0
 40
30.0
 40
31.0
 40
31.0
 40
31.0
 40
32.0
 40
32.0
 40
32.0
 40
33.0
 40
33.0
 40
33.0
 40
34.0
 40
34.0
 40
34.0
 40
35.0
 40
35.0
 40
35.0
 40
36.0
 40
36.0
 40
36.0
 40
37.0
 40
37.0
 40
37.0
 40
38.0
 40
38.0
 40
38.0
 40
39.0
 40
39.0
 40
39.0
 40
40.0
 40
40.0
 40
40.0
 40
41.0
 40
41.0
 40
41.0
 40
42.0
 40
42.0
 40
42.0
 40
43.0
 40
43.0
 40
43.0
 40
44.0
 40
44.0
 40
44.0
 40
45.0
 40
45.0
 40
45.0
 40
46.0
 40
46.0
 40
46.0
 40
47.0
 40
47.0
 40
47.0
 40
48.0
 40
48.0
 40
48.0
 40
49.0
 40
49.0
 40
49.0
 40
50.0
 40
50.0
 40
50.0
 40
51.0
 40
51.0
 40
51.0
 40
52.0
 40
52.0
 40
52.0
 40
53.0
 40
53.0
 40
53.0
 40
54.0
 40
54.0
 40
54.0
 40
55.0
 40
55.0
 40
55.0
 40
56.0
 40
56.0
 40
56.0
 40
57.0
 40
57.0
 40
57.0
 40
58.0
 40
58.0
 40
58.0
 40
59.0
 40
59.0
 40
59.0
 40
60.0
 40
60.0
 40
60.0
 40
61.0
 40
61.0
 40
61.0
 40
62.0
 40
62.0
 40
62.0
 40
63.0
 40
63.0
 40
63.0
 40
63.0
 10
8.13888888888889
 20
4.222222222222222
 10
8.152777777777777
 20
4.340277777777778
 10
8.131944444444445
 20
4.465277777777778
 10
8.131944444444445
 20
4.465277777777778
 10
8.131944444444445
 20
4.465277777777778
 10
8.222222222222221
 20
4.284722222222222
 10
8.222222222222221
 20
4.284722222222222
 10
8.222222222222221
 20
4.284722222222222
 10
8.125
 20
4.645833333333333
 10
8.125
 20
4.645833333333333
 10
8.125
 20
4.645833333333333
 10
8.070832994249132
 20
4.645833333333333
 10
8.070832994249132
 20
4.645833333333333
 10
8.137499491373697
 20
4.663888719346788
 10
8.186110602484808
 20
4.676389058430989
 10
8.180555555555555
 20
4.694444444444444
 10
8.166666666666666
 20
4.736111111111111
 10
7.826388888888888
 20
4.819444444444444
 10
7.620833502875434
 20
4.684722052680121
 10
7.480556064181857
 20
4.604166666666666
 10
7.3500001695421
 20
4.49861102634006
 10
7.208333333333333
 20
4.418055216471354
 10
7.048611111111111
 20
4.329166412353516
 10
6.866666581895616
 20
4.277777353922525
 10
6.695833418104383
 20
4.218055301242404
 10
6.530555725097656
 20
4.16111077202691
 10
6.375
 20
4.09722179836697
 10
6.197222391764322
 20
4.127777523464626
 10
6.090277777777778
 20
4.145832909478082
 10
5.950000339084201
 20
4.168055216471354
 10
5.847222222222222
 20
4.201388465033637
 10
5.847222222222222
 20
4.201388465033637
 10
5.847222222222222
 20
4.201388465033637
 10
5.847222222222222
 20
4.201388465033637
 10
5.847222222222222
 20
4.201388465033637
 10
5.712499830457899
 20
4.163888295491536
 10
5.712499830457899
 20
4.163888295491536
 10
5.712499830457899
 20
4.163888295491536
 10
5.754166497124566
 20
3.652776930067274
 10
5.754166497124566
 20
3.652776930067274
 10
5.754166497124566
 20
3.652776930067274
 10
5.891666412353516
 20
3.627777099609375
 10
5.891666412353516
 20
3.627777099609375
 10
5.922222137451172
 20
3.590276930067274
 10
5.979166242811415
 20
3.504165649414062
 10
6.048610687255859
 20
3.319443596733941
 10
6.152777353922525
 20
3.041665818956163
 10
6.201388465033637
 20
2.89583248562283
 10
6.201388465033637
 20
2.89583248562283
 10
6.201388465033637
 20
2.89583248562283
 10
6.112499660915798
 20
3.408332824707031
 10
6.112499660915798
 20
3.408332824707031
 10
6.116666158040364
 20
3.397221883138021
 10
6.120833079020182
 20
3.38611094156901
 10
6.124999576144748
 20
3.374999152289496
 10
6.229166242811415
 20
3.097221374511719
 10
6.277777353922525
 20
2.951388041178385
 10
6.277777353922525
 20
2.951388041178385
 10
6.277777353922525
 20
2.951388041178385
 10
6.169444190131293
 20
3.570832146538628
 10
6.169444190131293
 20
3.570832146538628
 10
6.18611102634006
 20
3.540276421440972
 10
6.206944359673394
 20
3.498609754774305
 10
6.229166242811415
 20
3.444443596733941
 10
6.301388634575737
 20
3.269443935818142
 10
6.329166412353516
 20
3.098609924316406
 10
6.340277353922525
 20
2.991666158040364
 10
6.340277353922525
 20
2.991666158040364
 10
6.308333079020182
 20
3.491666158040364
 10
6.308333079020182
 20
3.491666158040364
 10
6.377777523464626
 20
3.319443596733941
 10
6.405555301242404
 20
3.151388380262587
 10
6.416666242811415
 20
3.04722171359592
 10
6.416666242811415
 20
3.04722171359592
 10
6.381944020589192
 20
3.608333163791233
 10
6.381944020589192
 20
3.608333163791233
 10
6.398610856797959
 20
3.574999491373698
 10
6.416666242811415
 20
3.534722222222222
 10
6.437499576144748
 20
3.487499660915798
 10
6.541666242811415
 20
3.251388549804688
 10
6.666666242811415
 20
2.911110772026909
 10
6.666666242811415
 20
2.911110772026909
 10
6.666666242811415
 20
2.911110772026909
 10
6.552777184380425
 20
3.452777438693576
 10
6.552777184380425
 20
3.452777438693576
 10
6.647221459282768
 20
3.229166666666667
 10
6.743055131700303
 20
2.966666327582465
 10
6.743055131700303
 20
2.966666327582465
 10
6.743055131700303
 20
2.966666327582465
 10
6.580554962158203
 20
3.736111111111111
 10
6.580554962158203
 20
3.736111111111111
 10
6.618055131700303
 20
3.688888549804688
 10
6.661110348171658
 20
3.619444105360243
 10
6.701388465033637
 20
3.522221883138021
 10
6.805555131700303
 20
3.265277438693576
 10
6.888888465033637
 20
2.952777438693576
 10
6.888888465033637
 20
2.952777438693576
 10
6.888888465033637
 20
2.952777438693576
 10
6.838888380262587
 20
3.416666666666667
 10
6.838888380262587
 20
3.416666666666667
 10
6.912499321831596
 20
3.206944783528646
 10
6.965277353922525
 20
3.008332994249132
 10
6.965277353922525
 20
3.008332994249132
 10
6.965277353922525
 20
3.008332994249132
 10
6.894443935818142
 20
3.655554877387153
 10
6.894443935818142
 20
3.655554877387153
 10
6.898610432942708
 20
3.644443935818142
 10
6.904166327582465
 20
3.631943596733941
 10
6.90972179836697
 20
3.619444105360243
 10
7.048610687255859
 20
3.286110772026909
 10
7.173611111111111
 20
3.049999660915799
 10
7.173611111111111
 20
3.049999660915799
 10
7.173611111111111
 20
3.049999660915799
 10
7.105555640326606
 20
3.501388549804688
 10
7.105555640326606
 20
3.501388549804688
 10
7.195832994249131
 20
3.270833333333333
 10
7.25
 20
3.105555216471354
 10
7.25
 20
3.105555216471354
 10
7.25
 20
3.105555216471354
 10
7.149999830457899
 20
3.763888888888889
 10
7.149999830457899
 20
3.763888888888889
 10
7.174999660915798
 20
3.71388922797309
 10
7.204166836208767
 20
3.658333672417534
 10
7.236111111111111
 20
3.598610772026909
 10
7.337499830457899
 20
3.408332824707031
 10
7.379166497124565
 20
3.227777269151475
 10
7.391666836208767
 20
3.163888719346788
 10
7.391666836208767
 20
3.163888719346788
 10
7.295833163791232
 20
3.686110602484809
 10
7.295833163791232
 20
3.686110602484809
 10
7.301389058430989
 20
3.674999660915798
 10
7.306944105360243
 20
3.665277269151475
 10
7.3125
 20
3.654166327582465
 10
7.413888719346788
 20
3.463888380262587
 10
7.455555386013454
 20
3.283332824707031
 10
7.468055725097656
 20
3.219444274902344
 10
7.468055725097656
 20
3.219444274902344
 10
7.361111111111111
 20
3.804166158040364
 10
7.361111111111111
 20
3.804166158040364
 10
7.363889058430989
 20
3.798610263400608
 10
7.366667005750868
 20
3.791665818956163
 10
7.369444105360243
 20
3.786110772026909
 10
7.501388549804688
 20
3.473610772026909
 10
7.633332994249131
 20
3.258332994249132
 10
7.633332994249131
 20
3.258332994249132
 10
7.633332994249131
 20
3.258332994249132
 10
7.580555386013454
 20
3.736111111111111
 10
7.580555386013454
 20
3.736111111111111
 10
7.670833163791232
 20
3.494444105360243
 10
7.709721883138021
 20
3.313888549804688
 10
7.709721883138021
 20
3.313888549804688
 10
7.709721883138021
 20
3.313888549804688
 10
7.661110772026909
 20
3.759721544053819
 10
7.661110772026909
 20
3.759721544053819
 10
7.661110772026909
 20
3.759721544053819
 10
7.661110772026909
 20
3.759721544053819
 10
7.661110772026909
 20
3.758332994249132
 10
7.786110772026909
 20
3.549999660915798
 10
7.959721883138021
 20
3.404166327582465
 10
7.959721883138021
 20
3.404166327582465
 10
7.959721883138021
 20
3.404166327582465
 10
7.856943766276041
 20
3.76111094156901
 10
7.856943766276041
 20
3.76111094156901
 10
7.959721883138021
 20
3.587499830457899
 10
8.036110772026909
 20
3.459721883138021
 10
8.036110772026909
 20
3.459721883138021
 10
8.036110772026909
 20
3.459721883138021
 10
7.88611094156901
 20
3.983333163791233
 10
7.88611094156901
 20
3.983333163791233
 10
7.911110772026909
 20
3.936111026340061
 10
7.933333502875434
 20
3.893055386013454
 10
7.952777438693576
 20
3.862499660915798
 10
7.987499660915798
 20
3.802777608235677
 10
7.979166666666666
 20
3.905555301242404
 10
7.955555386013454
 20
4.052777608235677
 10
7.983333163791232
 20
4.0
 10
8.008332994249132
 20
3.951388888888889
 10
8.029166327582464
 20
3.918055216471354
 10
8.063888549804688
 20
3.85972171359592
 10
8.055555555555555
 20
3.959721883138021
 10
8.031944274902344
 20
4.104166242811415
 10
8.068055046929253
 20
4.059721628824869
 10
8.102777269151476
 20
4.024999406602648
 10
8.126388549804688
 20
4.022221883138021
 10
8.161110772026909
 20
4.019443935818142
 10
8.127777099609375
 20
4.145832909478082
 10
8.086110432942707
 20
4.276388380262587
 10
8.11111111111111
 20
4.212499830457899
 10
8.133332994249132
 20
4.177777608235677
 10
8.13888888888889
 20
4.222222222222222
 97
        0
 97
        0
 75
     2
 76
     1
 98
        0
  0
POLYLINE
  5
BA
330
1F
100
AcDbEntity
  8
Tail
 62
   243
420
 16470906
370
    35
100
AcDb2dPolyline
 66
     1
 10
0.0
 20
0.0
 30
0.0
  0
VERTEX
  5
BB
330
BA
100
AcDbEntity
  8
Tail
 62
   243
420
 16470906
370
    35
100
AcDbVertex
100
AcDb2dVertex
 10
5.847222222222222
 20
4.206944359673394
 30
0.0
  0
VERTEX
  5
BC
330
BA
100
AcDbEntity
  8
Tail
 62
   243
420
 16470906
370
    35
100
AcDbVertex
100
AcDb2dVertex
 10
5.905555725097656
 20
3.613889058430989
 30
0.0
  0
SEQEND
  5
BD
330
BA
100
AcDbEntity
  8
Tail
 62
   243
420
 16470906
370
    35
  0
POLYLINE
  5
BF
330
1F
100
AcDbEntity
  8
Box
 62
   243
420
 16470906
370
    35
100
AcDb2dPolyline
 66
     1
 10
0.0
 20
0.0
 30
0.0
  0
VERTEX
  5
C0
330
BF
100
AcDbEntity
  8
Box
 62
   243
420
 16470906
370
    35
100
AcDbVertex
100
AcDb2dVertex
 10
8.40138922797309
 20
7.180555555555555
 30
0.0
  0
VERTEX
  5
C1
330
BF
100
AcDbEntity
  8
Box
 62
   243
420
 16470906
370
    35
100
AcDbVertex
100
AcDb2dVertex
 10
8.40138922797309
 20
9.659722222222221
 30
0.0
  0
VERTEX
  5
C2
330
BF
100
AcDbEntity
  8
Box
 62
   243
420
 16470906
370
    35
100
AcDbVertex
100
AcDb2dVertex
 10
8.40138922797309
 20
9.679166581895617
 30
0.0
  0
VERTEX
  5
C3
330
BF
100
AcDbEntity
  8
Box
 62
   243
420
 16470906
370
    35
100
AcDbVertex
100
AcDb2dVertex
 10
8.341667175292969
 20
9.884722179836697
 30
0.0
  0
VERTEX
  5
C4
330
BF
100
AcDbEntity
  8
Box
 62
   243
420
 16470906
370
    35
100
AcDbVertex
100
AcDb2dVertex
 10
7.444445292154947
 20
10.01805549197727
 30
0.0
  0
VERTEX
  5
C5
330
BF
100
AcDbEntity
  8
Box
 62
   243
420
 16470906
370
    35
100
AcDbVertex
100
AcDb2dVertex
 10
7.319445292154947
 20
9.805555555555555
 30
0.0
  0
VERTEX
  5
C6
330
BF
100
AcDbEntity
  8
Box
 62
   243
420
 16470906
370
    35
100
AcDbVertex
100
AcDb2dVertex
 10
7.129167344835069
 20
10.92222224341498
 30
0.0
  0
VERTEX
  5
C7
330
BF
100
AcDbEntity
  8
Box
 62
   243
420
 16470906
370
    35
100
AcDbVertex
100
AcDb2dVertex
 10
5.706944359673394
 20
10.92222224341498
 30
0.0
  0
VERTEX
  5
C8
330
BF
100
AcDbEntity
  8
Box
 62
   243
420
 16470906
370
    35
100
AcDbVertex
100
AcDb2dVertex
 10
5.506944444444444
 20
9.784722222222221
 30
0.0
  0
VERTEX
  5
C9
330
BF
100
AcDbEntity
  8
Box
 62
   243
420
 16470906
370
    35
100
AcDbVertex
100
AcDb2dVertex
 10
5.384722391764322
 20
9.99444442325168
 30
0.0
  0
VERTEX
  5
CA
330
BF
100
AcDbEntity
  8
Box
 62
   243
420
 16470906
370
    35
100
AcDbVertex
100
AcDb2dVertex
 10
4.55000008477105
 20
9.918055534362793
 30
0.0
  0
VERTEX
  5
CB
330
BF
100
AcDbEntity
  8
Box
 62
   243
420
 16470906
370
    35
100
AcDbVertex
100
AcDb2dVertex
 10
4.4375
 20
9.679166581895617
 30
0.0
  0
VERTEX
  5
CC
330
BF
100
AcDbEntity
  8
Box
 62
   243
420
 16470906
370
    35
100
AcDbVertex
100
AcDb2dVertex
 10
4.431944529215494
 20
9.665277693006727
 30
0.0
  0
VERTEX
  5
CD
330
BF
100
AcDbEntity
  8
Box
 62
   243
420
 16470906
370
    35
100
AcDbVertex
100
AcDb2dVertex
 10
4.444444444444445
 20
7.176389058430989
 30
0.0
  0
VERTEX
  5
CE
330
BF
100
AcDbEntity
  8
Box
 62
   243
420
 16470906
370
    35
100
AcDbVertex
100
AcDb2dVertex
 10
4.444444444444445
 20
7.166666666666666
 30
0.0
  0
VERTEX
  5
CF
330
BF
100
AcDbEntity
  8
Box
 62
   243
420
 16470906
370
    35
100
AcDbVertex
100
AcDb2dVertex
 10
4.515277862548828
 20
6.947222391764322
 30
0.0
  0
VERTEX
  5
D0
330
BF
100
AcDbEntity
  8
Box
 62
   243
420
 16470906
370
    35
100
AcDbVertex
100
AcDb2dVertex
 10
5.386111365424262
 20
6.804167005750868
 30
0.0
  0
VERTEX
  5
D1
330
BF
100
AcDbEntity
  8
Box
 62
   243
420
 16470906
370
    35
100
AcDbVertex
100
AcDb2dVertex
 10
5.508333418104383
 20
7.012500339084201
 30
0.0
  0
VERTEX
  5
D2
330
BF
100
AcDbEntity
  8
Box
 62
   243
420
 16470906
370
    35
100
AcDbVertex
100
AcDb2dVertex
 10
5.704166836208767
 20
5.922222561306423
 30
0.0
  0
VERTEX
  5
D3
330
BF
100
AcDbEntity
  8
Box
 62
   243
420
 16470906
370
    35
100
AcDbVertex
100
AcDb2dVertex
 10
7.12638939751519
 20
5.922222561306423
 30
0.0
  0
VERTEX
  5
D4
330
BF
100
AcDbEntity
  8
Box
 62
   243
420
 16470906
370
    35
100
AcDbVertex
100
AcDb2dVertex
 10
7.322222391764322
 20
7.043056064181857
 30
0.0
  0
VERTEX
  5
D5
330
BF
100
AcDbEntity
  8
Box
 62
   243
420
 16470906
370
    35
100
AcDbVertex
100
AcDb2dVertex
 10
7.44861094156901
 20
6.827778286404079
 30
0.0
  0
VERTEX
  5
D6
330
BF
100
AcDbEntity
  8
Box
 62
   243
420
 16470906
370
    35
100
AcDbVertex
100
AcDb2dVertex
 10
8.340277777777777
 20
6.961111704508463
 30
0.0
  0
VERTEX
  5
D7
330
BF
100
AcDbEntity
  8
Box
 62
   243
420
 16470906
370
    35
100
AcDbVertex
100
AcDb2dVertex
 10
8.40138922797309
 20
7.180555555555555
 30
0.0
  0
VERTEX
  5
D8
330
BF
100
AcDbEntity
  8
Box
 62
   243
420
 16470906
370
    35
100
AcDbVertex
100
AcDb2dVertex
 10
8.40138922797309
 20
7.180555555555555
 30
0.0
  0
SEQEND
  5
D9
330
BF
100
AcDbEntity
  8
Box
 62
   243
420
 16470906
370
    35
  0
POLYLINE
  5
DA
330
1F
100
AcDbEntity
  8
Box
 62
   243
420
 16470906
370
    35
100
AcDb2dPolyline
 66
     1
 10
0.0
 20
0.0
 30
0.0
  0
VERTEX
  5
DB
330
DA
100
AcDbEntity
  8
Box
 62
   243
420
 16470906
370
    35
100
AcDbVertex
100
AcDb2dVertex
 10
7.301389058430989
 20
7.129166497124565
 30
0.0
  0
VERTEX
  5
DC
330
DA
100
AcDbEntity
  8
Box
 62
   243
420
 16470906
370
    35
100
AcDbVertex
100
AcDb2dVertex
 10
7.301389058430989
 20
7.077777438693576
 30
0.0
  0
VERTEX
  5
DD
330
DA
100
AcDbEntity
  8
Box
 62
   243
420
 16470906
370
    35
100
AcDbVertex
100
AcDb2dVertex
 10
7.301389058430989
 20
7.077777438693576
 30
0.0
  0
VERTEX
  5
DE
330
DA
100
AcDbEntity
  8
Box
 62
   243
420
 16470906
370
    35
100
AcDbVertex
100
AcDb2dVertex
 10
7.301389058430989
 20
7.129166497124565
 30
0.0
  0
SEQEND
  5
DF
330
DA
100
AcDbEntity
  8
Box
 62
   243
420
 16470906
370
    35
  0
HATCH
  5
E0
330
1F
100
AcDbEntity
  8
Box
 62
   243
420
 16470906
100
AcDbHatch
 10
0.0
 20
0.0
 30
0.0
210
0.0
220
0.0
230
1.0
  2
SOLID
 70
     1
 71
     0
 91
        1
 92
        1
 93
       23
 72
     1
 10
8.40138922797309
 20
7.180555555555555
 11
8.40138922797309
 21
9.659722222222221
 72
     1
 10
8.40138922797309
 20
9.659722222222221
 11
8.40138922797309
 21
9.679166581895617
 72
     1
 10
8.40138922797309
 20
9.679166581895617
 11
8.341667175292969
 21
9.884722179836697
 72
     1
 10
8.341667175292969
 20
9.884722179836697
 11
7.444445292154947
 21
10.01805549197727
 72
     1
 10
7.444445292154947
 20
10.01805549197727
 11
7.319445292154947
 21
9.805555555555555
 72
     1
 10
7.319445292154947
 20
9.805555555555555
 11
7.129167344835069
 21
10.92222224341498
 72
     1
 10
7.129167344835069
 20
10.92222224341498
 11
5.706944359673394
 21
10.92222224341498
 72
     1
 10
5.706944359673394
 20
10.92222224341498
 11
5.506944444444444
 21
9.784722222222221
 72
     1
 10
5.506944444444444
 20
9.784722222222221
 11
5.384722391764322
 21
9.99444442325168
 72
     1
 10
5.384722391764322
 20
9.99444442325168
 11
4.55000008477105
 21
9.918055534362793
 72
     1
 10
4.55000008477105
 20
9.918055534362793
 11
4.4375
 21
9.679166581895617
 72
     1
 10
4.4375
 20
9.679166581895617
 11
4.431944529215494
 21
9.665277693006727
 72
     1
 10
4.431944529215494
 20
9.665277693006727
 11
4.444444444444445
 21
7.176389058430989
 72
     1
 10
4.444444444444445
 20
7.176389058430989
 11
4.444444444444445
 21
7.166666666666666
 72
     1
 10
4.444444444444445
 20
7.166666666666666
 11
4.515277862548828
 21
6.947222391764322
 72
     1
 10
4.515277862548828
 20
6.947222391764322
 11
5.386111365424262
 21
6.804167005750868
 72
     1
 10
5.386111365424262
 20
6.804167005750868
 11
5.508333418104383
 21
7.012500339084201
 72
     1
 10
5.508333418104383
 20
7.012500339084201
 11
5.704166836208767
 21
5.922222561306423
 72
     1
 10
5.704166836208767
 20
5.922222561306423
 11
7.12638939751519
 21
5.922222561306423
 72
     1
 10
7.12638939751519
 20
5.922222561306423
 11
7.322222391764322
 21
7.043056064181857
 72
     1
 10
7.322222391764322
 20
7.043056064181857
 11
7.44861094156901
 21
6.827778286404079
 72
     1
 10
7.44861094156901
 20
6.827778286404079
 11
8.340277777777777
 21
6.961111704508463
 72
     1
 10
8.340277777777777
 20
6.961111704508463
 11
8.40138922797309
 21
7.180555555555555
 97
        0
 75
     2
 76
     1
 98
        0
  0
POLYLINE
  5
E1
330
1F
100
AcDbEntity
  8
Box
 62
    14
420
 11468800
370
    35
100
AcDb2dPolyline
 66
     1
 10
0.0
 20
0.0
 30
0.0
  0
VERTEX
  5
E2
330
E1
100
AcDbEntity
  8
Box
 62
    14
420
 11468800
370
    35
100
AcDbVertex
100
AcDb2dVertex
 10
4.444444444444445
 20
9.669444402058918
 30
0.0
  0
VERTEX
  5
E3
330
E1
100
AcDbEntity
  8
Box
 62
    14
420
 11468800
370
    35
100
AcDbVertex
100
AcDb2dVertex
 10
5.516666836208767
 20
9.802777820163302
 30
0.0
  0
VERTEX
  5
E4
330
E1
100
AcDbEntity
  8
Box
 62
    14
420
 11468800
370
    35
100
AcDbVertex
100
AcDb2dVertex
 10
7.326388888888888
 20
9.802777820163302
 30
0.0
  0
VERTEX
  5
E5
330
E1
100
AcDbEntity
  8
Box
 62
    14
420
 11468800
370
    35
100
AcDbVertex
100
AcDb2dVertex
 10
8.395833333333332
 20
9.663888931274414
 30
0.0
  0
SEQEND
  5
E6
330
E1
100
AcDbEntity
  8
Box
 62
    14
420
 11468800
370
    35
  0
POLYLINE
  5
E7
330
1F
100
AcDbEntity
  8
Box
 62
    14
420
 11468800
370
    35
100
AcDb2dPolyline
 66
     1
 10
0.0
 20
0.0
 30
0.0
  0
VERTEX
  5
E8
330
E7
100
AcDbEntity
  8
Box
 62
    14
420
 11468800
370
    35
100
AcDbVertex
100
AcDb2dVertex
 10
4.438888973659939
 20
7.156944274902344
 30
0.0
  0
VERTEX
  5
E9
330
E7
100
AcDbEntity
  8
Box
 62
    14
420
 11468800
370
    35
100
AcDbVertex
100
AcDb2dVertex
 10
5.516666836208767
 20
7.008332994249131
 30
0.0
  0
VERTEX
  5
EA
330
E7
100
AcDbEntity
  8
Box
 62
    14
420
 11468800
370
    35
100
AcDbVertex
100
AcDb2dVertex
 10
7.337500678168403
 20
7.008332994249131
 30
0.0
  0
VERTEX
  5
EB
330
E7
100
AcDbEntity
  8
Box
 62
    14
420
 11468800
370
    35
100
AcDbVertex
100
AcDb2dVertex
 10
8.406945122612846
 20
7.17222171359592
 30
0.0
  0
SEQEND
  5
EC
330
E7
100
AcDbEntity
  8
Box
 62
    14
420
 11468800
370
    35
  0
POLYLINE
  5
ED
330
1F
100
AcDbEntity
  8
Box
 62
    14
420
 11468800
370
    35
100
AcDb2dPolyline
 66
     1
 10
0.0
 20
0.0
 30
0.0
  0
VERTEX
  5
EE
330
ED
100
AcDbEntity
  8
Box
 62
    14
420
 11468800
370
    35
100
AcDbVertex
100
AcDb2dVertex
 10
5.516666836208767
 20
9.802777820163302
 30
0.0
  0
VERTEX
  5
EF
330
ED
100
AcDbEntity
  8
Box
 62
    14
420
 11468800
370
    35
100
AcDbVertex
100
AcDb2dVertex
 10
5.516666836208767
 20
6.988889058430989
 30
0.0
  0
SEQEND
  5
F0
330
ED
100
AcDbEntity
  8
Box
 62
    14
420
 11468800
370
    35
  0
POLYLINE
  5
F1
330
1F
100
AcDbEntity
  8
Box
 62
    14
420
 11468800
370
    35
100
AcDb2dPolyline
 66
     1
 10
0.0
 20
0.0
 30
0.0
  0
VERTEX
  5
F2
330
F1
100
AcDbEntity
  8
Box
 62
    14
420
 11468800
370
    35
100
AcDbVertex
100
AcDb2dVertex
 10
7.326388888888888
 20
9.802777820163302
 30
0.0
  0
VERTEX
  5
F3
330
F1
100
AcDbEntity
  8
Box
 62
    14
420
 11468800
370
    35
100
AcDbVertex
100
AcDb2dVertex
 10
7.326388888888888
 20
6.988889058430989
 30
0.0
  0
SEQEND
  5
F4
330
F1
100
AcDbEntity
  8
Box
 62
    14
420
 11468800
370
    35
  0
SPLINE
  5
F6
330
1F
100
AcDbEntity
  8
Earts
370
     0
100
AcDbSpline
210
0.0
220
0.0
230
1.0
 70
    11
 71
     3
 72
    26
 73
    22
 74
     0
 42
0.0000000001
 43
0.0000000001
 12
1.0
 22
0.0
 32
0.0
 13
1.0
 23
0.0
 33
0.0
 40
0.0
 40
0.0
 40
0.0
 40
0.0
 40
1.0
 40
1.0
 40
1.0
 40
2.0
 40
2.0
 40
2.0
 40
3.0
 40
3.0
 40
3.0
 40
4.0
 40
4.0
 40
4.0
 40
5.0
 40
5.0
 40
5.0
 40
6.0
 40
6.0
 40
6.0
 40
7.0
 40
7.0
 40
7.0
 40
7.0
 10
5.409722222222222
 20
7.291666666666666
 30
0.0
 10
5.409722222222222
 20
7.291666666666666
 30
0.0
 10
5.868055555555555
 20
6.770833333333333
 30
0.0
 10
5.868055555555555
 20
6.770833333333333
 30
0.0
 10
5.868055555555555
 20
6.770833333333333
 30
0.0
 10
6.027777777777778
 20
6.888888888888888
 30
0.0
 10
6.041666666666666
 20
6.888888888888888
 30
0.0
 10
6.44861094156901
 20
6.888888888888888
 30
0.0
 10
7.32361094156901
 20
7.24861102634006
 30
0.0
 10
7.458333333333333
 20
7.486111111111111
 30
0.0
 10
7.631944444444444
 20
7.791666666666666
 30
0.0
 10
7.805555555555555
 20
8.069444444444445
 30
0.0
 10
7.493055555555555
 20
8.4375
 30
0.0
 10
7.180555555555555
 20
8.805555555555555
 30
0.0
 10
6.618055555555555
 20
8.5625
 30
0.0
 10
6.256944444444444
 20
8.284722222222221
 30
0.0
 10
6.01111094156901
 20
8.095833248562283
 30
0.0
 10
5.711111280653212
 20
7.68611102634006
 30
0.0
 10
5.583333333333333
 20
7.430555555555555
 30
0.0
 10
5.576388888888888
 20
7.416666666666666
 30
0.0
 10
5.409722222222222
 20
7.291666666666666
 30
0.0
 10
5.409722222222222
 20
7.291666666666666
 30
0.0
  0
HATCH
  5
F7
330
1F
100
AcDbEntity
  8
Earts
 62
    44
420
 11501056
100
AcDbHatch
 10
0.0
 20
0.0
 30
0.0
210
0.0
220
0.0
230
1.0
  2
SOLID
 70
     1
 71
     0
 91
        1
 92
        1
 93
        1
 72
     4
 94
        3
 73
     0
 74
     1
 95
       26
 96
       22
 40
0.0
 40
0.0
 40
0.0
 40
0.0
 40
1.0
 40
1.0
 40
1.0
 40
2.0
 40
2.0
 40
2.0
 40
3.0
 40
3.0
 40
3.0
 40
4.0
 40
4.0
 40
4.0
 40
5.0
 40
5.0
 40
5.0
 40
6.0
 40
6.0
 40
6.0
 40
7.0
 40
7.0
 40
7.0
 40
7.0
 10
5.409722222222222
 20
7.291666666666666
 10
5.409722222222222
 20
7.291666666666666
 10
5.868055555555555
 20
6.770833333333333
 10
5.868055555555555
 20
6.770833333333333
 10
5.868055555555555
 20
6.770833333333333
 10
6.027777777777778
 20
6.888888888888888
 10
6.041666666666666
 20
6.888888888888888
 10
6.44861094156901
 20
6.888888888888888
 10
7.32361094156901
 20
7.24861102634006
 10
7.458333333333333
 20
7.486111111111111
 10
7.631944444444444
 20
7.791666666666666
 10
7.805555555555555
 20
8.069444444444445
 10
7.493055555555555
 20
8.4375
 10
7.180555555555555
 20
8.805555555555555
 10
6.618055555555555
 20
8.5625
 10
6.256944444444444
 20
8.284722222222221
 10
6.01111094156901
 20
8.095833248562283
 10
5.711111280653212
 20
7.68611102634006
 10
5.583333333333333
 20
7.430555555555555
 10
5.576388888888888
 20
7.416666666666666
 10
5.409722222222222
 20
7.291666666666666
 10
5.409722222222222
 20
7.291666666666666
 97
        0
 97
        0
 75
     2
 76
     1
 98
        0
  0
SPLINE
  5
F8
330
1F
100
AcDbEntity
  8
Earts
370
     0
100
AcDbSpline
210
0.0
220
0.0
230
1.0
 70
    11
 71
     3
 72
    26
 73
    22
 74
     0
 42
0.0000000001
 43
0.0000000001
 12
1.0
 22
0.0
 32
0.0
 13
1.0
 23
0.0
 33
0.0
 40
0.0
 40
0.0
 40
0.0
 40
0.0
 40
1.0
 40
1.0
 40
1.0
 40
2.0
 40
2.0
 40
2.0
 40
3.0
 40
3.0
 40
3.0
 40
4.0
 40
4.0
 40
4.0
 40
5.0
 40
5.0
 40
5.0
 40
6.0
 40
6.0
 40
6.0
 40
7.0
 40
7.0
 40
7.0
 40
7.0
 10
7.71388922797309
 20
5.263888888888888
 30
0.0
 10
7.71388922797309
 20
5.263888888888888
 30
0.0
 10
7.255555894639756
 20
4.743055555555555
 30
0.0
 10
7.255555894639756
 20
4.743055555555555
 30
0.0
 10
7.255555894639756
 20
4.743055555555555
 30
0.0
 10
7.095833672417534
 20
4.861111111111111
 30
0.0
 10
7.081944783528646
 20
4.861111111111111
 30
0.0
 10
6.675000508626302
 20
4.861111111111111
 30
0.0
 10
5.800000508626302
 20
5.220833248562283
 30
0.0
 10
5.665278116861979
 20
5.458333333333333
 30
0.0
 10
5.491667005750868
 20
5.763888888888888
 30
0.0
 10
5.318055894639756
 20
6.041666666666666
 30
0.0
 10
5.630555894639756
 20
6.409722222222221
 30
0.0
 10
5.943055894639756
 20
6.777777777777778
 30
0.0
 10
6.505555894639756
 20
6.534722222222221
 30
0.0
 10
6.866667005750868
 20
6.256944444444444
 30
0.0
 10
7.112500508626302
 20
6.068055470784505
 30
0.0
 10
7.4125001695421
 20
5.658333248562283
 30
0.0
 10
7.540278116861979
 20
5.402777777777778
 30
0.0
 10
7.547222561306423
 20
5.388888888888888
 30
0.0
 10
7.71388922797309
 20
5.263888888888888
 30
0.0
 10
7.71388922797309
 20
5.263888888888888
 30
0.0
  0
HATCH
  5
F9
330
1F
100
AcDbEntity
  8
Earts
 62
    44
420
 11501056
100
AcDbHatch
 10
0.0
 20
0.0
 30
0.0
210
0.0
220
0.0
230
1.0
  2
SOLID
 70
     1
 71
     0
 91
        1
 92
        1
 93
        1
 72
     4
 94
        3
 73
     0
 74
     1
 95
       26
 96
       22
 40
0.0
 40
0.0
 40
0.0
 40
0.0
 40
1.0
 40
1.0
 40
1.0
 40
2.0
 40
2.0
 40
2.0
 40
3.0
 40
3.0
 40
3.0
 40
4.0
 40
4.0
 40
4.0
 40
5.0
 40
5.0
 40
5.0
 40
6.0
 40
6.0
 40
6.0
 40
7.0
 40
7.0
 40
7.0
 40
7.0
 10
7.71388922797309
 20
5.263888888888888
 10
7.71388922797309
 20
5.263888888888888
 10
7.255555894639756
 20
4.743055555555555
 10
7.255555894639756
 20
4.743055555555555
 10
7.255555894639756
 20
4.743055555555555
 10
7.095833672417534
 20
4.861111111111111
 10
7.081944783528646
 20
4.861111111111111
 10
6.675000508626302
 20
4.861111111111111
 10
5.800000508626302
 20
5.220833248562283
 10
5.665278116861979
 20
5.458333333333333
 10
5.491667005750868
 20
5.763888888888888
 10
5.318055894639756
 20
6.041666666666666
 10
5.630555894639756
 20
6.409722222222221
 10
5.943055894639756
 20
6.777777777777778
 10
6.505555894639756
 20
6.534722222222221
 10
6.866667005750868
 20
6.256944444444444
 10
7.112500508626302
 20
6.068055470784505
 10
7.4125001695421
 20
5.658333248562283
 10
7.540278116861979
 20
5.402777777777778
 10
7.547222561306423
 20
5.388888888888888
 10
7.71388922797309
 20
5.263888888888888
 10
7.71388922797309
 20
5.263888888888888
 97
        0
 97
        0
 75
     2
 76
     1
 98
        0
  0
POLYLINE
  5
FA
330
1F
100
AcDbEntity
  8
Earts
 62
   243
420
 16470906
370
    35
100
AcDb2dPolyline
 66
     1
 10
0.0
 20
0.0
 30
0.0
  0
VERTEX
  5
FB
330
FA
100
AcDbEntity
  8
Earts
 62
   243
420
 16470906
370
    35
100
AcDbVertex
100
AcDb2dVertex
 10
6.041666666666666
 20
6.888888888888888
 30
0.0
  0
VERTEX
  5
FC
330
FA
100
AcDbEntity
  8
Earts
 62
   243
420
 16470906
370
    35
100
AcDbVertex
100
AcDb2dVertex
 10
5.583333333333333
 20
7.430555555555555
 30
0.0
  0
SEQEND
  5
FD
330
FA
100
AcDbEntity
  8
Earts
 62
   243
420
 16470906
370
    35
  0
POLYLINE
  5
FE
330
1F
100
AcDbEntity
  8
Earts
 62
   243
420
 16470906
370
    35
100
AcDb2dPolyline
 66
     1
 10
0.0
 20
0.0
 30
0.0
  0
VERTEX
  5
FF
330
FE
100
AcDbEntity
  8
Earts
 62
   243
420
 16470906
370
    35
100
AcDbVertex
100
AcDb2dVertex
 10
7.081944359673393
 20
4.861111111111111
 30
0.0
  0
VERTEX
  5
100
330
FE
100
AcDbEntity
  8
Earts
 62
   243
420
 16470906
370
    35
100
AcDbVertex
100
AcDb2dVertex
 10
7.540278116861979
 20
5.402777777777778
 30
0.0
  0
SEQEND
  5
101
330
FE
100
AcDbEntity
  8
Earts
 62
   243
420
 16470906
370
    35
  0
INSERT
  5
104
330
1F
100
AcDbEntity
  8
Layer 1
100
AcDbBlockReference
  2
block 2
 10
0.0
 20
0.0
 30
0.0
  0
INSERT
  5
10A
330
1F
100
AcDbEntity
  8
Layer 1
100
AcDbBlockReference
  2
block 3
 10
0.0
 20
0.0
 30
0.0
  0
INSERT
  5
114
330
1F
100
AcDbEntity
  8
Layer 1
100
AcDbBlockReference
  2
block 4
 10
0.0
 20
0.0
 30
0.0
  0
ENDSEC
  0
SECTION
  2
OBJECTS
  0
DICTIONARY
  5
C
330
0
100
AcDbDictionary
281
     1
  3
ACAD_GROUP
350
D
  3
ACAD_LAYOUT
350
1A
  3
ACAD_MATERIAL
350
3B
  3
ACAD_MLEADERSTYLE
350
11C
  3
ACAD_MLINESTYLE
350
17
  3
ACAD_PLOTSETTINGS
350
19
  3
ACAD_PLOTSTYLENAME
350
E
  3
ACAD_TABLESTYLE
350
11B
  3
ACAD_VISUALSTYLE
350
2A
  0
SUN
  5
3F
330
29
100
AcDbSun
 90
        1
290
     0
 63
     7
421
 16777215
 40
1.0
291
     1
 91
  2455826
 92
 54000000
292
     0
 70
     2
 71
   256
280
     1
  0
DICTIONARY
  5
D
102
{ACAD_REACTORS
330
C
102
}
330
C
100
AcDbDictionary
281
     1
  0
DICTIONARY
  5
1A
102
{ACAD_REACTORS
330
C
102
}
330
C
100
AcDbDictionary
281
     1
  3
Layout1
350
1E
  3
Layout2
350
26
  3
Model
350
22
  0
DICTIONARY
  5
3B
102
{ACAD_REACTORS
330
C
102
}
330
C
100
AcDbDictionary
281
     1
  3
ByBlock
350
3D
  3
ByLayer
350
3C
  3
Global
350
3E
  0
DICTIONARY
  5
11C
102
{ACAD_REACTORS
330
C
102
}
330
C
100
AcDbDictionary
281
     1
  0
DICTIONARY
  5
17
102
{ACAD_REACTORS
330
C
102
}
330
C
100
AcDbDictionary
281
     1
  3
Standard
350
18
  0
DICTIONARY
  5
19
102
{ACAD_REACTORS
330
C
102
}
330
C
100
AcDbDictionary
281
     1
  0
ACDBDICTIONARYWDFLT
  5
E
102
{ACAD_REACTORS
330
C
102
}
330
C
100
AcDbDictionary
281
     1
  3
Normal
350
F
100
AcDbDictionaryWithDefault
340
F
  0
DICTIONARY
  5
11B
102
{ACAD_REACTORS
330
C
102
}
330
C
100
AcDbDictionary
281
     1
  0
DICTIONARY
  5
2A
102
{ACAD_REACTORS
330
C
102
}
330
C
100
AcDbDictionary
281
     1
  3
2dWireframe
350
2F
  3
3D Hidden
350
31
  3
3dWireframe
350
30
  3
Basic
350
32
  3
Brighten
350
36
  3
ColorChange
350
3A
  3
Conceptual
350
34
  3
Dim
350
35
  3
Facepattern
350
39
  3
Flat
350
2B
  3
FlatWithEdges
350
2C
  3
Gouraud
350
2D
  3
GouraudWithEdges
350
2E
  3
Linepattern
350
38
  3
Realistic
350
33
  3
Thicken
350
37
  0
LAYOUT
  5
1E
102
{ACAD_REACTORS
330
1A
102
}
330
1A
100
AcDbPlotSettings
  1

  2
none_device
  4

  6

 40
0.0
 41
0.0
 42
0.0
 43
0.0
 44
0.0
 45
0.0
 46
0.0
 47
0.0
 48
0.0
 49
0.0
140
0.0
141
0.0
142
1.0
143
1.0
 70
   688
 72
     0
 73
     0
 74
     5
  7

 75
    16
 76
     0
 77
     2
 78
   300
147
1.0
148
0.0
149
0.0
100
AcDbLayout
  1
Layout1
 70
     1
 71
     1
 10
0.0
 20
0.0
 11
12.0
 21
9.0
 12
0.0
 22
0.0
 32
0.0
 14
1.000000000000000E+20
 24
1.000000000000000E+20
 34
1.000000000000000E+20
 15
-1.000000000000000E+20
 25
-1.000000000000000E+20
 35
-1.000000000000000E+20
146
0.0
 13
0.0
 23
0.0
 33
0.0
 16
1.0
 26
0.0
 36
0.0
 17
0.0
 27
1.0
 37
0.0
 76
     0
330
1B
  0
LAYOUT
  5
26
102
{ACAD_REACTORS
330
1A
102
}
330
1A
100
AcDbPlotSettings
  1

  2
none_device
  4

  6

 40
0.0
 41
0.0
 42
0.0
 43
0.0
 44
0.0
 45
0.0
 46
0.0
 47
0.0
 48
0.0
 49
0.0
140
0.0
141
0.0
142
1.0
143
1.0
 70
   688
 72
     0
 73
     0
 74
     5
  7

 75
    16
 76
     0
 77
     2
 78
   300
147
1.0
148
0.0
149
0.0
100
AcDbLayout
  1
Layout2
 70
     1
 71
     2
 10
0.0
 20
0.0
 11
0.0
 21
0.0
 12
0.0
 22
0.0
 32
0.0
 14
0.0
 24
0.0
 34
0.0
 15
0.0
 25
0.0
 35
0.0
146
0.0
 13
0.0
 23
0.0
 33
0.0
 16
1.0
 26
0.0
 36
0.0
 17
0.0
 27
1.0
 37
0.0
 76
     0
330
23
  0
LAYOUT
  5
22
102
{ACAD_REACTORS
330
1A
102
}
330
1A
100
AcDbPlotSettings
  1

  2
none_device
  4

  6

 40
0.0
 41
0.0
 42
0.0
 43
0.0
 44
0.0
 45
0.0
 46
0.0
 47
0.0
 48
0.0
 49
0.0
140
0.0
141
0.0
142
1.0
143
1.0
 70
  1712
 72
     0
 73
     0
 74
     0
  7

 75
     0
 76
     0
 77
     2
 78
   300
147
1.0
148
0.0
149
0.0
100
AcDbLayout
  1
Model
 70
     1
 71
     0
 10
0.0
 20
0.0
 11
12.0
 21
9.0
 12
0.0
 22
0.0
 32
0.0
 14
1.000000000000000E+20
 24
1.000000000000000E+20
 34
1.000000000000000E+20
 15
-1.000000000000000E+20
 25
-1.000000000000000E+20
 35
-1.000000000000000E+20
146
0.0
 13
0.0
 23
0.0
 33
0.0
 16
1.0
 26
0.0
 36
0.0
 17
0.0
 27
1.0
 37
0.0
 76
     0
330
1F
331
29
  0
MATERIAL
  5
3D
102
{ACAD_REACTORS
330
3B
102
}
330
3B
100
AcDbMaterial
  1
ByBlock
 72
     1
 94
      127
  0
MATERIAL
  5
3C
102
{ACAD_REACTORS
330
3B
102
}
330
3B
100
AcDbMaterial
  1
ByLayer
 72
     1
 94
      127
  0
MATERIAL
  5
3E
102
{ACAD_REACTORS
330
3B
102
}
330
3B
100
AcDbMaterial
  1
Global
 72
     1
 94
      127
  0
MLINESTYLE
  5
18
102
{ACAD_REACTORS
330
17
102
}
330
17
100
AcDbMlineStyle
  2
Standard
 70
     0
  3

 62
   256
 51
90.0
 52
90.0
 71
     2
 49
0.5
 62
   256
  6
BYLAYER
 49
-0.5
 62
   256
  6
BYLAYER
  0
ACDBPLACEHOLDER
  5
F
102
{ACAD_REACTORS
330
E
102
}
330
E
  0
VISUALSTYLE
  5
2F
102
{ACAD_REACTORS
330
2A
102
}
330
2A
100
AcDbVisualStyle
  2
2dWireframe
 70
     4
177
     2
291
     0
 71
     0
176
     1
 72
     2
176
     1
 73
     0
176
     1
 90
        0
176
     1
 40
-0.6
176
     1
 41
-30.0
176
     1
 62
     5
 63
     7
421
 16777215
176
     1
 74
     1
176
     1
 91
        4
176
     1
 64
     7
176
     1
 65
   257
176
     1
 75
     1
176
     1
175
     1
176
     1
 42
1.0
176
     1
 92
        0
176
     1
 66
   257
176
     1
 43
1.0
176
     1
 76
     1
176
     1
 77
     6
176
     1
 78
     2
176
     1
 67
     7
176
     1
 79
     5
176
     1
170
     0
176
     1
171
     0
176
     1
290
     0
176
     1
 93
        1
176
     1
 44
0.0
176
     1
173
     0
176
     1
  0
VISUALSTYLE
  5
31
102
{ACAD_REACTORS
330
2A
102
}
330
2A
100
AcDbVisualStyle
  2
3D Hidden
 70
     6
177
     2
291
     0
 71
     1
176
     1
 72
     2
176
     1
 73
     2
176
     1
 90
        0
176
     1
 40
-0.6
176
     1
 41
-30.0
176
     1
 62
     5
 63
     7
421
 16777215
176
     1
 74
     2
176
     1
 91
        2
176
     1
 64
     7
176
     1
 65
   257
176
     1
 75
     2
176
     1
175
     1
176
     1
 42
40.0
176
     1
 92
        0
176
     1
 66
   257
176
     1
 43
1.0
176
     1
 76
     1
176
     1
 77
     6
176
     1
 78
     2
176
     1
 67
     7
176
     1
 79
     3
176
     1
170
     0
176
     1
171
     0
176
     1
290
     0
176
     1
 93
        1
176
     1
 44
0.0
176
     1
173
     0
176
     1
  0
VISUALSTYLE
  5
30
102
{ACAD_REACTORS
330
2A
102
}
330
2A
100
AcDbVisualStyle
  2
3dWireframe
 70
     5
177
     2
291
     0
 71
     0
176
     1
 72
     2
176
     1
 73
     0
176
     1
 90
        0
176
     1
 40
-0.6
176
     1
 41
-30.0
176
     1
 62
     5
 63
     7
421
 16777215
176
     1
 74
     1
176
     1
 91
        4
176
     1
 64
     7
176
     1
 65
   257
176
     1
 75
     1
176
     1
175
     1
176
     1
 42
1.0
176
     1
 92
        0
176
     1
 66
   257
176
     1
 43
1.0
176
     1
 76
     1
176
     1
 77
     6
176
     1
 78
     2
176
     1
 67
     7
176
     1
 79
     5
176
     1
170
     0
176
     1
171
     0
176
     1
290
     0
176
     1
 93
        1
176
     1
 44
0.0
176
     1
173
     0
176
     1
  0
VISUALSTYLE
  5
32
102
{ACAD_REACTORS
330
2A
102
}
330
2A
100
AcDbVisualStyle
  2
Basic
 70
     7
177
     2
291
     1
 71
     1
176
     1
 72
     0
176
     1
 73
     1
176
     1
 90
        0
176
     1
 40
-0.6
176
     1
 41
-30.0
176
     1
 62
     5
 63
     7
421
 16777215
176
     1
 74
     0
176
     1
 91
        4
176
     1
 64
     7
176
     1
 65
   257
176
     1
 75
     1
176
     1
175
     1
176
     1
 42
1.0
176
     1
 92
        8
176
     1
 66
     7
176
     1
 43
1.0
176
     1
 76
     1
176
     1
 77
     6
176
     1
 78
     2
176
     1
 67
     7
176
     1
 79
     5
176
     1
170
     0
176
     1
171
     0
176
     1
290
     0
176
     1
 93
        1
176
     1
 44
0.0
176
     1
173
     0
176
     1
  0
VISUALSTYLE
  5
36
102
{ACAD_REACTORS
330
2A
102
}
330
2A
100
AcDbVisualStyle
  2
Brighten
 70
    12
177
     2
291
     1
 71
     2
176
     1
 72
     2
176
     1
 73
     0
176
     1
 90
        0
176
     1
 40
-0.6
176
     1
 41
-30.0
176
     1
 62
     5
 63
     7
421
 16777215
176
     1
 74
     1
176
     1
 91
        4
176
     1
 64
     7
176
     1
 65
   257
176
     1
 75
     1
176
     1
175
     1
176
     1
 42
1.0
176
     1
 92
        8
176
     1
 66
     7
176
     1
 43
1.0
176
     1
 76
     1
176
     1
 77
     6
176
     1
 78
     2
176
     1
 67
     7
176
     1
 79
     5
176
     1
170
     0
176
     1
171
     0
176
     1
290
     0
176
     1
 93
        1
176
     1
 44
50.0
176
     1
173
     0
176
     1
  0
VISUALSTYLE
  5
3A
102
{ACAD_REACTORS
330
2A
102
}
330
2A
100
AcDbVisualStyle
  2
ColorChange
 70
    16
177
     2
291
     1
 71
     2
176
     1
 72
     2
176
     1
 73
     3
176
     1
 90
        0
176
     1
 40
-0.6
176
     1
 41
-30.0
176
     1
 62
     5
 63
     8
421
  8421504
176
     1
 74
     1
176
     1
 91
        4
176
     1
 64
     7
176
     1
 65
   257
176
     1
 75
     1
176
     1
175
     1
176
     1
 42
1.0
176
     1
 92
        8
176
     1
 66
     8
424
  8421504
176
     1
 43
1.0
176
     1
 76
     1
176
     1
 77
     6
176
     1
 78
     2
176
     1
 67
     7
176
     1
 79
     5
176
     1
170
     0
176
     1
171
     0
176
     1
290
     0
176
     1
 93
        1
176
     1
 44
0.0
176
     1
173
     0
176
     1
  0
VISUALSTYLE
  5
34
102
{ACAD_REACTORS
330
2A
102
}
330
2A
100
AcDbVisualStyle
  2
Conceptual
 70
     9
177
     2
291
     0
 71
     3
176
     1
 72
     2
176
     1
 73
     0
176
     1
 90
        0
176
     1
 40
-0.6
176
     1
 41
-30.0
176
     1
 62
     5
 63
     7
421
 16777215
176
     1
 74
     2
176
     1
 91
        2
176
     1
 64
     7
176
     1
 65
   257
176
     1
 75
     1
176
     1
175
     1
176
     1
 42
40.0
176
     1
 92
        8
176
     1
 66
     7
176
     1
 43
1.0
176
     1
 76
     1
176
     1
 77
     6
176
     1
 78
     2
176
     1
 67
     7
176
     1
 79
     3
176
     1
170
     0
176
     1
171
     0
176
     1
290
     0
176
     1
 93
        1
176
     1
 44
0.0
176
     1
173
     0
176
     1
  0
VISUALSTYLE
  5
35
102
{ACAD_REACTORS
330
2A
102
}
330
2A
100
AcDbVisualStyle
  2
Dim
 70
    11
177
     2
291
     1
 71
     2
176
     1
 72
     2
176
     1
 73
     0
176
     1
 90
        0
176
     1
 40
-0.6
176
     1
 41
-30.0
176
     1
 62
     5
 63
     7
421
 16777215
176
     1
 74
     1
176
     1
 91
        4
176
     1
 64
     7
176
     1
 65
   257
176
     1
 75
     1
176
     1
175
     1
176
     1
 42
1.0
176
     1
 92
        8
176
     1
 66
     7
176
     1
 43
1.0
176
     1
 76
     1
176
     1
 77
     6
176
     1
 78
     2
176
     1
 67
     7
176
     1
 79
     5
176
     1
170
     0
176
     1
171
     0
176
     1
290
     0
176
     1
 93
        1
176
     1
 44
-50.0
176
     1
173
     0
176
     1
  0
VISUALSTYLE
  5
39
102
{ACAD_REACTORS
330
2A
102
}
330
2A
100
AcDbVisualStyle
  2
Facepattern
 70
    15
177
     2
291
     1
 71
     2
176
     1
 72
     2
176
     1
 73
     0
176
     1
 90
        0
176
     1
 40
-0.6
176
     1
 41
-30.0
176
     1
 62
     5
 63
     7
421
 16777215
176
     1
 74
     1
176
     1
 91
        4
176
     1
 64
     7
176
     1
 65
   257
176
     1
 75
     1
176
     1
175
     1
176
     1
 42
1.0
176
     1
 92
        8
176
     1
 66
     7
176
     1
 43
1.0
176
     1
 76
     1
176
     1
 77
     6
176
     1
 78
     2
176
     1
 67
     7
176
     1
 79
     5
176
     1
170
     0
176
     1
171
     0
176
     1
290
     0
176
     1
 93
        1
176
     1
 44
0.0
176
     1
173
     0
176
     1
  0
VISUALSTYLE
  5
2B
102
{ACAD_REACTORS
330
2A
102
}
330
2A
100
AcDbVisualStyle
  2
Flat
 70
     0
177
     2
291
     1
 71
     2
176
     1
 72
     1
176
     1
 73
     1
176
     1
 90
        2
176
     1
 40
-0.6
176
     1
 41
30.0
176
     1
 62
     5
 63
     7
421
 16777215
176
     1
 74
     0
176
     1
 91
        4
176
     1
 64
     7
176
     1
 65
   257
176
     1
 75
     1
176
     1
175
     1
176
     1
 42
1.0
176
     1
 92
        8
176
     1
 66
     7
176
     1
 43
1.0
176
     1
 76
     1
176
     1
 77
     6
176
     1
 78
     2
176
     1
 67
     7
176
     1
 79
     5
176
     1
170
     0
176
     1
171
     0
176
     1
290
     0
176
     1
 93
       13
176
     1
 44
0.0
176
     1
173
     0
176
     1
  0
VISUALSTYLE
  5
2C
102
{ACAD_REACTORS
330
2A
102
}
330
2A
100
AcDbVisualStyle
  2
FlatWithEdges
 70
     1
177
     2
291
     1
 71
     2
176
     1
 72
     1
176
     1
 73
     1
176
     1
 90
        2
176
     1
 40
-0.6
176
     1
 41
30.0
176
     1
 62
     5
 63
     7
421
 16777215
176
     1
 74
     1
176
     1
 91
        4
176
     1
 64
     7
176
     1
 65
   257
176
     1
 75
     1
176
     1
175
     1
176
     1
 42
1.0
176
     1
 92
        0
176
     1
 66
   257
176
     1
 43
1.0
176
     1
 76
     1
176
     1
 77
     6
176
     1
 78
     2
176
     1
 67
     7
176
     1
 79
     5
176
     1
170
     0
176
     1
171
     0
176
     1
290
     0
176
     1
 93
       13
176
     1
 44
0.0
176
     1
173
     0
176
     1
  0
VISUALSTYLE
  5
2D
102
{ACAD_REACTORS
330
2A
102
}
330
2A
100
AcDbVisualStyle
  2
Gouraud
 70
     2
177
     2
291
     1
 71
     2
176
     1
 72
     2
176
     1
 73
     1
176
     1
 90
        2
176
     1
 40
-0.6
176
     1
 41
30.0
176
     1
 62
     5
 63
     7
421
 16777215
176
     1
 74
     0
176
     1
 91
        4
176
     1
 64
     7
176
     1
 65
   257
176
     1
 75
     1
176
     1
175
     1
176
     1
 42
1.0
176
     1
 92
        0
176
     1
 66
     7
176
     1
 43
1.0
176
     1
 76
     1
176
     1
 77
     6
176
     1
 78
     2
176
     1
 67
     7
176
     1
 79
     5
176
     1
170
     0
176
     1
171
     0
176
     1
290
     0
176
     1
 93
       13
176
     1
 44
0.0
176
     1
173
     0
176
     1
  0
VISUALSTYLE
  5
2E
102
{ACAD_REACTORS
330
2A
102
}
330
2A
100
AcDbVisualStyle
  2
GouraudWithEdges
 70
     3
177
     2
291
     1
 71
     2
176
     1
 72
     2
176
     1
 73
     1
176
     1
 90
        2
176
     1
 40
-0.6
176
     1
 41
30.0
176
     1
 62
     5
 63
     7
421
 16777215
176
     1
 74
     1
176
     1
 91
        4
176
     1
 64
     7
176
     1
 65
   257
176
     1
 75
     1
176
     1
175
     1
176
     1
 42
1.0
176
     1
 92
        0
176
     1
 66
   257
176
     1
 43
1.0
176
     1
 76
     1
176
     1
 77
     6
176
     1
 78
     2
176
     1
 67
     7
176
     1
 79
     5
176
     1
170
     0
176
     1
171
     0
176
     1
290
     0
176
     1
 93
       13
176
     1
 44
0.0
176
     1
173
     0
176
     1
  0
VISUALSTYLE
  5
38
102
{ACAD_REACTORS
330
2A
102
}
330
2A
100
AcDbVisualStyle
  2
Linepattern
 70
    14
177
     2
291
     1
 71
     2
176
     1
 72
     2
176
     1
 73
     0
176
     1
 90
        0
176
     1
 40
-0.6
176
     1
 41
-30.0
176
     1
 62
     5
 63
     7
421
 16777215
176
     1
 74
     1
176
     1
 91
        4
176
     1
 64
     7
176
     1
 65
   257
176
     1
 75
     7
176
     1
175
     7
176
     1
 42
1.0
176
     1
 92
        8
176
     1
 66
     7
176
     1
 43
1.0
176
     1
 76
     1
176
     1
 77
     6
176
     1
 78
     2
176
     1
 67
     7
176
     1
 79
     5
176
     1
170
     0
176
     1
171
     0
176
     1
290
     0
176
     1
 93
        1
176
     1
 44
0.0
176
     1
173
     0
176
     1
  0
VISUALSTYLE
  5
33
102
{ACAD_REACTORS
330
2A
102
}
330
2A
100
AcDbVisualStyle
  2
Realistic
 70
     8
177
     2
291
     0
 71
     2
176
     1
 72
     2
176
     1
 73
     0
176
     1
 90
        0
176
     1
 40
-0.6
176
     1
 41
-30.0
176
     1
 62
     5
 63
     7
421
 16777215
176
     1
 74
     1
176
     1
 91
        0
176
     1
 64
     7
176
     1
 65
   257
176
     1
 75
     1
176
     1
175
     1
176
     1
 42
1.0
176
     1
 92
        8
176
     1
 66
     8
424
  7895160
176
     1
 43
1.0
176
     1
 76
     1
176
     1
 77
     6
176
     1
 78
     2
176
     1
 67
     7
176
     1
 79
     5
176
     1
170
     0
176
     1
171
     0
176
     1
290
     0
176
     1
 93
       13
176
     1
 44
0.0
176
     1
173
     0
176
     1
  0
VISUALSTYLE
  5
37
102
{ACAD_REACTORS
330
2A
102
}
330
2A
100
AcDbVisualStyle
  2
Thicken
 70
    13
177
     2
291
     1
 71
     2
176
     1
 72
     2
176
     1
 73
     0
176
     1
 90
        0
176
     1
 40
-0.6
176
     1
 41
-30.0
176
     1
 62
     5
 63
     7
421
 16777215
176
     1
 74
     1
176
     1
 91
        4
176
     1
 64
     7
176
     1
 65
   257
176
     1
 75
     1
176
     1
175
     1
176
     1
 42
1.0
176
     1
 92
       12
176
     1
 66
     7
176
     1
 43
1.0
176
     1
 76
     1
176
     1
 77
     6
176
     1
 78
     2
176
     1
 67
     7
176
     1
 79
     5
176
     1
170
     0
176
     1
171
     0
176
     1
290
     0
176
     1
 93
        1
176
     1
 44
0.0
176
     1
173
     0
176
     1
  0
ENDSEC
  0
EOF
