<?xml version="1.0" encoding="utf-8"?>
<!-- Generator: Adobe Illustrator 22.1.0, SVG Export Plug-In . SVG Version: 6.00 Build 0)  -->
<svg version="1.1" xmlns="http://www.w3.org/2000/svg" xmlns:xlink="http://www.w3.org/1999/xlink" x="0px" y="0px"
	 viewBox="0 0 612 792" style="enable-background:new 0 0 612 792;" xml:space="preserve">
<style type="text/css">
	.st0{fill:#420000;}
	.st1{fill:none;stroke:#FB537A;stroke-miterlimit:10;}
	.st2{fill:#420000;stroke:#420000;stroke-miterlimit:10;}
	.st3{fill:#FFFFFF;stroke:#000000;stroke-miterlimit:10;}
	.st4{fill:#420000;stroke:#FB537A;stroke-miterlimit:10;}
	.st5{fill:#AF7E00;}
	.st6{fill:#AF0000;}
	.st7{fill:#FB537A;stroke:#FB537A;stroke-miterlimit:10;}
</style>
<g id="Ears">
	<path class="st0" d="M431.2,530.5c5.9,10,11.5,20.8,18.7,30.2c8,10.5,17.7,16.9,28.9,23.6l6.2-4.5l2.4-21.7l-5.2-6.2h0.2l5.2,5.5
		l15.9-1.4l2-6.8l0.1,0.1c0.4,0-0.1-0.1-0.1-0.1c-0.5,0.1-4.3-6.5-4.8-7.2c-1.9-2.6-4-5.1-6.1-7.6c-4.1-4.6-8.7-9-13.9-12.3
		c-6.6-4.2-13.6-7.8-20.9-10.7c-7-2.8-15.1-5.9-22.7-6c-5.1-0.1-10.4,0.7-15.5,1.3C419,507,430.2,528.8,431.2,530.5z M503.3,549.4
		L503.3,549.4c0.3,0,0.6,0,0.9-0.1L503.3,549.4z"/>
	<path class="st0" d="M598.4,506.7c-5.1-0.6-10.4-1.4-15.5-1.3c-7.7,0.1-15.7,3.3-22.7,6c-7.3,2.9-14.3,6.5-20.9,10.7
		c-5.2,3.3-9.8,7.7-13.9,12.3c-2.2,2.4-4.2,4.9-6.1,7.6c-0.5,0.7-4.3,7.2-4.8,7.2c0,0-0.4,0.1-0.1,0.1l0.1-0.1l2,6.8l15.9,1.4
		l5.2-5.5h0.2l-5.2,6.2l2.4,21.7l6.2,4.5c11.2-6.6,20.9-13.1,28.9-23.6c7.2-9.4,12.8-20.1,18.7-30.2
		C589.7,528.8,601,507,598.4,506.7z M515.8,549.3c0.3,0,0.5,0,0.9,0.1l0,0L515.8,549.3z"/>
	<polyline class="st1" points="479,584.3 482.5,552 505.6,549.5 	"/>
	<polyline class="st1" points="541,584.3 537.5,552 514.3,549.5 	"/>
</g>
<g id="Tail">
	<line class="st1" x1="459" y1="622.1" x2="463.2" y2="664.8"/>
	<path class="st0" d="M605.7,583.5c-1-3-15,0.5-21.5,4.2c-10.1,5.8-19.5,13.4-29.7,19.2c-11.5,6.4-24.6,10.1-36.9,14.4
		c-11.9,4.1-23.1,8.7-35.9,6.5c-7.7-1.3-15.3-3.4-22.7-5.8v-0.3l-12.2,3.5l3,36.8l13.5,2.4c0,0.2,0,0.3,0,0.3
		c0-0.4,20.8-6.8,22.9-7.6c8.1-2.9,16.2-6,24.2-9.2c15-6,30.7-10.9,45-18.4c15.1-8,28.7-19.8,41.7-30.8
		C606.5,590.8,606.7,586.5,605.7,583.5z"/>
</g>
<g id="Head">
	<path class="st2" d="M134.3,166.6l-16.8,17.7l3.4,42.7l19.1,14.3L122,258l-1.5,70.2l18.3,18l-88.9-49.8L0,357l65.1,71.8l63.2,25
		l40.4-20.7l-21.7,12l-2.6,9l12.9,18.7l-23.6,8l-12.9,27l7.9,22l-16.8,17l1.7,67l40.4,33l68.7-1.3l38.1-32l1.9-66.3L245,529.5
		l8.6-22l-12-26.3l-24.7-8.3l13.8-19.7l-3.7-9l-21.3-11l39.6,20l63.9-23.3l64.8-71.3l-49-60.4l-89.4,47l17.9-17l-0.3-69.8l-19.9-16
		l20.5-15.7l3.4-42L240,166.4L134.3,166.6z M193.4,469.5c4.5,2.8,18.5,4,18.5,4h-49.6c0,0,12.6-1.2,17.9-3.8
		c5.4-2.6,6.7-6.5,6.7-6.5S188.9,466.8,193.4,469.5z"/>
	<path class="st1" d="M240.1,166.2l-6.7,76l2.2,102.8l-30,88l11.2,39.7l28,56.7l-3.6,99.8H133.1l-4.5-99.5l28.6-57l11.4-39.7l-30-87
		l1.1-104.8l-5.6-74.7 M128,529.8h116.9 M156.1,472.8h62.3 M167.9,433.2h38.7 M139.9,241.2h93.7 M309.3,429.8l-73.5-84.5h-97.6
		l-73.1,83.5"/>
</g>
<g id="Body">
	<path class="st3" d="M623,753.5l-34.5-76l-23.2-7.9l-21.1-9.6l-88,31.7l-9.5,21.2l-23.5-0.2l-25.7,25l0.2,20.8l-6.1-65.6
		c0-0.4-0.1-0.7-0.1-1.1V568.4c0-0.7,0.1-1.5,0.2-2.2l21.1-100.5c1.4-6.6-3.7-12.9-10.5-12.9h-28.1c-5.1,0-9.5,3.6-10.5,8.6
		l-1.5,7.4c-1,5-5.4,8.6-10.5,8.6H343c-5,0-9.3-3.5-10.4-8.4l-1.8-7.8c-1.1-4.9-5.4-8.4-10.4-8.4h-29.2c-6.8,0-11.9,6.3-10.4,13
		l21.9,100.4c0.2,0.7,0.2,1.5,0.2,2.3v122.8c0,0.3,0,0.7,0,1l-6.3,67.7l0.3-22.6l-25.7-25l-23.5,0.2l-9.5-21.2l-88-31.7l-22,10l0,0
		l-22.7,7.7l-34.5,76l9,23l0.5-1.2l54.4,19.3c4.8,1.7,10.1-0.6,12.2-5.2l3.5-7.8l2.3-5c5.2,3.9,10.4,7.8,15.6,11.7
		c11.6,8.8,26.2,10.2,40.2,12.1c2.1,0.3,27.4,2.6,27.6,3.7l2,17.6c0.6,5.1,4.1,9.4,9,11l19.8,6.6c5.8,1.9,12-1.4,13.6-7.3
		c-0.3,6,4.4,11.3,10.7,11.3h29.7c5,0,9.4-3.5,10.4-8.4l1.6-7.3c1.1-4.9,5.4-8.4,10.4-8.4h7.8c5,0,9.4,3.5,10.5,8.5l1.4,6.6
		c1,4.9,5.4,8.5,10.4,8.5l29.1,0.1c6.5,0,11.4-5.6,10.6-11.9l0.2,0.8c1.4,6.1,7.8,9.7,13.8,7.8l19.8-6.6c4.9-1.6,8.4-5.9,9-11
		l2-17.6c0.1-1.1,25.5-3.4,27.6-3.7c14-1.9,28.6-3.3,40.2-12.1c5.2-3.9,10.4-7.8,15.6-11.7l2.3,5l3.5,7.8c2.1,4.6,7.4,6.9,12.2,5.2
		l54.1-19.2l0.4,0.8L623,753.5z"/>
	<path class="st1" d="M391,692.5h-89 M302,567.5h89.5 M80.5,775.5L127,671l120.5,42l49.5,47h100.5l50-47.5L566,671l47.5,103.5
		 M397.5,760l15.5,71.5 M297,760l-15.5,69"/>
</g>
<g id="Box">
	<path class="st4" d="M603.9,277V98.5v-1.4l-4.3-14.8L535,72.7L526,88L512.3,7.6H409.9l-14.4,81.9l-8.8-15.1l-60.1,5.5l-8.1,17.2
		l-0.4,1l0.9,179.2v0.7l5.1,15.8l62.7,10.3l8.8-15l14.1,78.5h102.4l14.1-80.7l9.1,15.5l64.2-9.6L603.9,277L603.9,277z M524.7,280.7
		v3.7l0,0V280.7z"/>
	<path class="st1" d="M319,97.8l77.2-9.6h130.3l77,10 M318.6,278.7l77.6,10.7h131.1l77-11.8 M396.2,88.2v202.6 M526.5,88.2v202.6"/>
</g>
<g id="Layer_1">
	<path class="st2" d="M392.5,568c0-23.7-22-50.5-47.5-50.5s-45,26.8-45,50.5c0,1.1,0.1,2.1,0.1,3.1V691H393l-0.5-112
		C393.6,575.3,392.5,572,392.5,568z"/>
	<path class="st2" d="M295.5,759.5l-49-46.5l-120-42.5c0,60.1,48.8,105.5,108.8,105.5c22.5,0,43.4-6.8,60.7-18.6L295.5,759.5z"/>
	<path class="st2" d="M396.6,759.5l49-46.5l120-42.5c0,60.1-48.8,105.5-108.8,105.5c-22.5,0-43.4-6.8-60.7-18.6L396.6,759.5z"/>
	<circle class="st5" cx="347.2" cy="785.8" r="9.8"/>
	<path class="st6" d="M460.3,711.9l-0.3-4.5h0.1l-0.1-0.2V707h-0.1l-34.1-87.5l-14.9,5.8l34,87.4l-48.4,46.8h-101l-48.3-46.7
		l34.2-87.9l-14.9-5.8L230,707.4l-0.4-0.1l0.2,0.5l-0.2,0.5l0.5,0.1l2.9,6.9c0.4,1.5,1.2,2.9,2.4,4.1l57.3,56h107.7l56.4-54.2
		C459.2,718.7,460.5,715.3,460.3,711.9z"/>
	<path class="st3" d="M180.8,430.8c0,0,3.7-10.7,3-30.7s-16-55.7-16-55.7h35c0,0-12,40.3-12.7,55s0.3,31.7,0.3,31.7L180.8,430.8z"/>
	<path class="st3" d="M527,549.3c0,0,4.3-13,23.7-22c19.3-9,32-10.7,32-10.7s-9.7,25-19,36s-24.3,17.7-24.3,17.7l-1.8-19.3
		L527,549.3z"/>
	<path class="st3" d="M493,549.3c0,0-4.3-13-23.7-22c-19.3-9-32-10.7-32-10.7s9.7,25,19,36s24.3,17.7,24.3,17.7l1.8-19.3L493,549.3z
		"/>
	<g id="Eyes__x26__Nose_1_">
		<circle cx="136.5" cy="396" r="12.8"/>
		<circle cx="238.5" cy="396" r="12.8"/>
		<path d="M186.8,413.8c0,0-14.5-1.2-13.3,7.8c1.1,8.4,4.8,12.3,12.8,12.3s13.1-6.2,13.5-11.7C200.4,412.8,186.8,413.8,186.8,413.8z
			"/>
	</g>
	<g id="Pink_Tongue_1_">
		<path class="st7" d="M181.3,472.5c0,0-5.3,15.6-5.3,24.1s1.8,17.9,9.9,17.9s13.7-3.1,12.6-17.9c-0.9-11.5-4.3-23.7-4.3-23.7
			L181.3,472.5z"/>
	</g>
</g>
</svg>
