<?xml version="1.0" encoding="utf-8"?>
<!-- Generator: Adobe Illustrator 22.1.0, SVG Export Plug-In . SVG Version: 6.00 Build 0)  -->
<svg version="1.1" id="Layer_1" xmlns="http://www.w3.org/2000/svg" xmlns:xlink="http://www.w3.org/1999/xlink" x="0px" y="0px"
	 viewBox="0 0 612 792" style="enable-background:new 0 0 612 792;" xml:space="preserve">
<style type="text/css">
	.st0{fill:#5C5D60;stroke:#AF7E00;stroke-miterlimit:10;}
	.st1{fill:none;stroke:#FB537A;stroke-miterlimit:10;}
	.st2{fill:#FFFFFF;stroke:#000000;stroke-miterlimit:10;}
	.st3{fill:#FB537A;stroke:#FB537A;stroke-miterlimit:10;}
	.st4{fill:none;stroke:#AF0000;stroke-miterlimit:10;}
	.st5{fill:#5C5D60;stroke:#5C5D60;stroke-miterlimit:10;}
	.st6{fill:#FFFFFF;}
	.st7{fill:#5C5D60;stroke:#420000;stroke-miterlimit:10;}
	.st8{fill:#FB537A;stroke:#000000;stroke-miterlimit:10;}
	.st9{fill:#ADAFB2;}
	.st10{fill:#2C7746;}
</style>
<g id="Head">
	<path class="st0" d="M104.3,90.6l-16.8,17.7l3.4,42.7l19.1,14.3L92,182l-1.5,70.2l18.3,18l-88.9-49.8L-30,281l65.1,71.8l63.2,25
		l40.4-20.7l-21.7,12l-2.6,9l12.9,18.7l-23.6,8l-12.9,27l7.9,22l-16.8,17l1.7,67l40.4,33l68.7-1.3l38.1-32l1.9-66.3L215,453.5
		l8.6-22l-12-26.3l-24.7-8.3l13.8-19.7l-3.7-9l-21.3-11l39.6,20l63.9-23.3l64.8-71.3L295,222.2l-89.4,47l17.9-17l-0.3-69.8l-19.9-16
		l20.5-15.7l3.4-42l-17.2-18.3L104.3,90.6z M163.4,393.5c4.5,2.8,18.5,4,18.5,4h-49.6c0,0,12.6-1.2,17.9-3.8
		c5.4-2.6,6.7-6.5,6.7-6.5S158.9,390.8,163.4,393.5z"/>
	<path class="st1" d="M210.1,90.2l-6.7,76l2.2,102.8l-30,88l11.2,39.7l28,56.7l-3.6,99.8H103.1l-4.5-99.5l28.6-57l11.4-39.7l-30-87
		l1.1-104.8l-5.6-74.7 M98,453.8h116.9 M126.1,396.8h62.3 M137.9,357.2h38.7 M109.9,165.2h93.7 M279.3,353.8l-73.5-84.5h-97.6
		l-73.1,83.5"/>
</g>
<g id="Body_1_">
	<path class="st2" d="M584,680.5l-34.5-76l-23.2-7.9l-21.1-9.6l-88,31.7l-9.5,21.2l-23.5-0.2l-25.7,25l0.2,20.8l-6.1-65.6
		c0-0.4-0.1-0.7-0.1-1.1V495.4c0-0.7,0.1-1.5,0.2-2.2l21.1-100.5c1.4-6.6-3.7-12.9-10.5-12.9h-28.1c-5.1,0-9.5,3.6-10.5,8.6
		l-1.5,7.4c-1,5-5.4,8.6-10.5,8.6H304c-5,0-9.3-3.5-10.4-8.4l-1.8-7.8c-1.1-4.9-5.4-8.4-10.4-8.4h-29.2c-6.8,0-11.9,6.3-10.4,13
		l21.9,100.4c0.2,0.7,0.2,1.5,0.2,2.3v122.8c0,0.3,0,0.7,0,1l-6.3,67.7l0.3-22.6l-25.7-25l-23.5,0.2l-9.5-21.2l-88-31.7l-22,10l0,0
		l-22.7,7.7l-34.5,76l9,23l0.5-1.2l54.4,19.3c4.8,1.7,10.1-0.6,12.2-5.2l3.5-7.8l2.3-5c5.2,3.9,10.4,7.8,15.6,11.7
		c11.6,8.8,26.2,10.2,40.2,12.1c2.1,0.3,27.4,2.6,27.6,3.7l2,17.6c0.6,5.1,4.1,9.4,9,11l19.8,6.6c5.8,1.9,12-1.4,13.6-7.3
		c-0.3,6,4.4,11.3,10.7,11.3h29.7c5,0,9.4-3.5,10.4-8.4l1.6-7.3c1.1-4.9,5.4-8.4,10.4-8.4h7.8c5,0,9.4,3.5,10.5,8.5l1.4,6.6
		c1,4.9,5.4,8.5,10.4,8.5l29.1,0.1c6.5,0,11.4-5.6,10.6-11.9l0.2,0.8c1.4,6.1,7.8,9.7,13.8,7.8l19.8-6.6c4.9-1.6,8.4-5.9,9-11
		l2-17.6c0.1-1.1,25.5-3.4,27.6-3.7c14-1.9,28.6-3.3,40.2-12.1c5.2-3.9,10.4-7.8,15.6-11.7l2.3,5l3.5,7.8c2.1,4.6,7.4,6.9,12.2,5.2
		l54.1-19.2l0.4,0.8L584,680.5z"/>
	<path class="st1" d="M352,619.5h-89 M263,494.5h89.5 M41.5,702.5L88,598l120.5,42l49.5,47h100.5l50-47.5L527,598l47.5,103.5
		 M358.5,687l15.5,71.5 M258,687l-15.5,69"/>
</g>
<g id="Box">
	<path class="st3" d="M631.9,289V110.5v-1.4l-4.3-14.8L563,84.7l-9,15.3l-13.7-80.4H437.9l-14.4,81.9l-8.8-15.1l-60.1,5.5l-8.1,17.2
		l-0.4,1l0.9,179.2v0.7l5.1,15.8l62.7,10.3l8.8-15l14.1,78.5h102.4l14.1-80.7l9.1,15.5l64.2-9.6L631.9,289L631.9,289z M552.7,292.7
		v3.7l0,0V292.7z"/>
	<path class="st4" d="M347,109.8l77.2-9.6h130.3l77,10 M346.6,290.7l77.6,10.7h131.1l77-11.8 M424.2,100.2v202.6 M554.5,100.2v202.6
		"/>
</g>
<g id="Ears">
	<path class="st5" d="M550.2,583.3c9.1-5.4,16-13.3,22.7-21.4c6.4-7.6,12.2-17.5,13.8-27.6c0.5-3.1-1.9-30.7-7-31.3
		c-3.3-0.4-6.8,0.7-9.7,2c-4.7,2.1-6.6,2.7-11.3,4.9c-13.8,6.5-22.4,15.4-30.1,28.8c-0.4,0.7-4.7,9.5-5.2,9.5c0,0-0.4,0.1-0.1,0.1
		l0.1-0.1l2,6.8l15.9,1.4l5.2-5.5h0.2l-5.2,6.2l2.4,21.7L550.2,583.3"/>
	<path class="st5" d="M557.1,496.3l6.2-4.5l2.4-21.7l-5.2-6.2h0.2l5.2,5.5l15.9-1.4l2-6.8l0.1,0.1c0.3,0-0.1-0.1-0.1-0.1
		c-0.5,0-4.7-8.8-5.2-9.5c-7.7-13.3-16.3-22.3-30.1-28.8c-4.6-2.2-6.6-2.7-11.3-4.9c-2.9-1.3-6.4-2.4-9.7-2
		c-5.1,0.6-7.5,28.3-7,31.3c1.6,10,7.4,19.9,13.8,27.6C541.2,483,548,490.9,557.1,496.3"/>
	<polyline class="st1" points="550,583.3 546.5,551 523.3,548.5 	"/>
	<polyline class="st1" points="584,461.5 560.8,464 557.3,496.3 	"/>
</g>
<g id="Tail">
	<path class="st2" d="M504.3,477.1c-9-21.3-14.9-15.4-24-22.2c-9-6.8-19.9-6.8-35.3-8.6c-15.4-1.8-26.2,5-33.5,7.2
		c-7.2,2.3-19.9,2.3-28.5,14.5c-8.6,12.2-7.2,34.4-5.9,44.3c1.4,9.9,8.6,8.6,13.1,13.6c4.5,5,19.4,3.6,19.4,3.6s8.1-0.9,11.8-2.3
		c1.2-0.4,1.7-0.8,1.9-1.1c0.5-0.2,0.9-0.5,1.3-0.7c0.2,0,0.5,0,0.8,0c0.9,0,1.4-0.7,1.7-1.8c1.2-1.5,4.9-6.4,6.4-9
		c7.2-12.5,26.4-7.8,31.2,2.3c2.9,6.1,2.7,20.4-2.5,24.8c-3.9,3.3-8.9,4.7-14,4.1c-2.4-0.3-10.9-4.9-12-4.4c0,0-13.6,5-13.6,5
		l4.1,49.3c0,0,14.9,1.4,14.9,1.4c1.8,0.2,3.7-0.5,5.7-1.6c7.5-2.1,20.8-5.9,28.2-8.4c10.9-3.6,18.5-12.7,26.7-24.9
		c8.1-12.2,11.8-26.2,14.9-38.4S513.4,498.3,504.3,477.1z"/>
	<line class="st1" x1="436.9" y1="541.9" x2="442.6" y2="599.8"/>
</g>
<g id="malamute">
	<path class="st6" d="M98.7,377.8c-0.7,0.4-38.1-13.5-39.1-15.1c-2-3.3,21.2-13.1,19.7-16.7c-1.6-3.6-0.7-2.2-1.2-6.1
		c-1.8-11.5-0.3-25.5,7-35.1c6.7-8.8,19.6-13,30.1-15c8.4-1.6,15.7,0.7,23.2,5.2c8.7,5.2,13.7,9.3,20,21
		c-0.6-0.9,15.4-19.8,16.3-20.7c8.3-8,39-8.3,53.3,10.1c8.7,11.2,14.2,24.8,11.3,38.5c-0.8,3.6,16.8,14.7,16.8,18.1
		c0,0.7-40.3,15.3-40.1,15.2L175,357l10.3,33.3c0,0-11.3,4.5-18.3,1s-10.3-10-10.3-10s-3.5,7.2-10,9.7s-18-1.3-18-1.3L139,356
		C139,356,98.8,377.8,98.7,377.8z"/>
	<path class="st6" d="M124.7,400.7l-16.3,33.7l47,18l50-18c0,0-17.3-34.3-17.3-34.3c-0.4-0.8-15,2.1-16.8,2.3
		c-6.1,0.8-12.3,1.4-18.5,1.2C143.4,403.3,134,401.6,124.7,400.7z"/>
	<path class="st2" d="M530,549.3c0,0,5.9-22.3,25.3-31.3c19.3-9,21.3-7.7,21.3-7.7s13.7,16.7-3.3,41c-8.2,11.8-23.7,25-23.7,25
		l-3.1-25L530,549.3z"/>
	<path class="st2" d="M560.7,464.3l-3.1,25c0,0-15.4-13.2-23.7-25c-17-24.3-3.3-41-3.3-41s2-1.3,21.3,7.7
		c19.4,9,25.3,31.3,25.3,31.3L560.7,464.3z"/>
	<path class="st7" d="M354.5,495c0-23.7-22-50.5-47.5-50.5s-45,26.8-45,50.5c0,1.1,0.1,2.1,0.1,3.1V618H355l-0.5-112
		C355.6,502.3,354.5,499,354.5,495z"/>
	<path class="st7" d="M257.5,686.5l-49-46.5l-120-42.5c0,60.1,48.8,105.5,108.8,105.5c22.5,0,43.4-6.8,60.7-18.6L257.5,686.5z"/>
	<path class="st7" d="M358.6,686.5l49-46.5l120-42.5c0,60.1-48.8,105.5-108.8,105.5c-22.5,0-43.4-6.8-60.7-18.6L358.6,686.5z"/>
</g>
<g id="Pink_Parts">
	<path class="st3" d="M150,396.5c0,0-5.3,15.6-5.3,24.1s1.8,17.9,9.9,17.9c8,0,13.7-3.1,12.6-17.9c-0.9-11.5-4.3-23.7-4.3-23.7
		L150,396.5z"/>
	<path class="st8" d="M537,549.8c0,0,2-17.2,21.4-26.2c8.7-3.2,11-1,11-1s8.7,11.3-3.6,24.6c-9.8,10.6-17.8,18.1-17.8,18.1l-1.4-14
		L537,549.8z"/>
	<path class="st8" d="M560.6,464.3l-1.4,14c0,0-8-7.6-17.8-18.1c-12.3-13.3-3.6-24.6-3.6-24.6s2.3-2.3,11,1
		c19.4,9,21.4,26.2,21.4,26.2L560.6,464.3z"/>
</g>
<g id="Collar">
	<circle class="st9" cx="309.2" cy="712.8" r="9.8"/>
	<path class="st10" d="M422.3,638.9l-0.3-4.5l0.1,0l-0.1-0.2l0-0.2l-0.1,0l-34.1-87.5l-14.9,5.8l34,87.4l-48.4,46.8H257.5
		l-48.3-46.7l34.2-87.9l-14.9-5.8L192,634.4l-0.4-0.1l0.2,0.5l-0.2,0.5l0.5,0.1l2.9,6.9c0.4,1.5,1.2,2.9,2.4,4.1l57.3,56h107.7
		l56.4-54.2C421.2,645.7,422.5,642.3,422.3,638.9z"/>
</g>
<g id="Eyes__x26__Nose">
	<circle cx="106.5" cy="320" r="12.8"/>
	<circle cx="208.5" cy="320" r="12.8"/>
	<path d="M156.8,337.8c0,0-14.5-1.2-13.3,7.8c1.1,8.4,4.8,12.3,12.8,12.3s13.1-6.2,13.5-11.7C170.4,336.8,156.8,337.8,156.8,337.8z"
		/>
</g>
</svg>
