<?xml version="1.0" encoding="utf-8"?>
<!-- Generator: Adobe Illustrator 22.0.1, SVG Export Plug-In . SVG Version: 6.00 Build 0)  -->
<svg version="1.1" id="Layer_1" xmlns="http://www.w3.org/2000/svg" xmlns:xlink="http://www.w3.org/1999/xlink" x="0px" y="0px"
	 viewBox="0 0 512 512" style="enable-background:new 0 0 512 512;" xml:space="preserve">
<style type="text/css">
	.st0{fill:#1D1D1B;}
	.st1{fill:#FFFFFF;}
	.st2{fill:#FCD903;}
</style>
<path class="st0" d="M62.8,249.7C36.3,241.3,32.5,228,32.5,228c11.9,10.6,37.6,10,37.6,10c-16-14.9-13.2-24.1-13.2-24.1
	c14.1,17.6,32.5,8.9,32.5,8.9s12.7-12.4,34.4-16.2s41.9,5.7,57.4,18.4s18.9,30,18.9,30c-14.7-15-26.4-21.2-26.4-21.2
	c5.7,6.8,9.2,20.8,9.2,20.8c3.6,19.2-0.4,34-6.1,44.6c-2,3.8-4.2,7-6.4,9.7c-0.9,1.1-1.8,2.1-2.6,3c-4.4,4.4-10.1,8.4-17.5,10.2
	c-12.5,2.8-22.9-0.2-30.3-4c-6.8-3-11.9-7.1-15.5-10.7c-2.9-2.9-4.9-5.6-6.1-7.4c-1-1.5-1.5-2.5-1.5-2.5l0,0
	c-12.1-18.4-15.2-44.3-15.2-44.3c-20,24.3-2.7,47.4-2.7,47.4c-16.2-3.8-17-23.8-17-23.8c-17,4.4-17.3-0.1-17.3-0.1
	c11.4,1.1,15.7-12.4,15.7-12.4c-19.8-2.2-24.1-13.5-24.1-13.5C53,260.5,62.8,249.7,62.8,249.7z M194.6,193.8c0,0-16.8-7.3-30-14.4
	c0,0-43-19.8-78.7-1.9c0,0-20,7.8-25.4,16.2c0,0,51.4-10.8,82.5-7s35.2,6.8,51.7,8.7C194.6,195.4,196.5,196.2,194.6,193.8z
	 M187.8,213c0,0-27.3-23.3-61.7-20.3c0,0-34.9,3.8-48.7,22.7c0,0,32.8-24.9,74.7-15.6C152.1,199.7,168.3,203,187.8,213z
	 M169.9,330.7c0,0,5.4-5.9-3-1.9c0,0-13.8,10.8-39.2,4.8c0,0-9.2-1.9-23.3-10.4c0,0-11.9-2.9,0,7.7l0.9,0.5c0,0-4.4,3.2-2.8,4
	s1.8,0,3.5-0.9s3-1.5,3-1.5s2.8,1.4,4.9,2.3c0,0-7.2,4.6-2.8,6.1c0,0,0.6,0.8,6.1-2.7l1.9-1.3l3.6,1.2c0,0-2.8,6,0.7,7.1
	c0,0,3.2,0.6,4-4.1c0,0,0.4-1.6,2.3-1c1.9,0.6,12.3,1.2,12.3,1.2s3.2,6.2,4.8,4.5s0.5-4.2-0.3-5.1c0,0,4.7-0.9,6.4-1
	c0,0,4.6,5,6.9,3.2c0,0,1-1.6-2.6-4.2C157.3,339.2,166.3,335.5,169.9,330.7z"/>
<path class="st1" d="M132.6,225.7c0,0,16.2-1.3,22.2,25.7c0,0,4,26.8-9.2,32.7c-13.3,5.9-25.2-8.7-26.2-13.8
	c-1.1-5.1-10.3-21.4,0-37.3C119.4,233,122.1,225.9,132.6,225.7z M97.4,288.4c0,0-6.5-3-5.4-11.1s10-6.8,10.3-2.2
	S98.2,284.9,97.4,288.4z M120.9,288.4c0,0-4.9-8.7-8.7,0s-5.4,17-3.8,19.2s4.6,4.3,7.7-1.2C119.3,300.9,122.4,290.5,120.9,288.4z
	 M121.3,300.1c2.3-7.7,13.1-7.3,19.2-7.7c6.1-0.4,9.6,3.7,9.9,4.9c0.3,1.3,4.9,10.3,4.9,10.3c1.7,3.8,5.8,3.4,5.8,3.4
	c1.2,0.8,0.5,4.6-12.9,7.8c-2,0.5-3.9,0.8-5.7,0.9l0,0c0,0,0,0-0.1,0c-1.8,0.2-3.5,0.2-5.1,0.1c-4.6-0.1-11.3-1-16.5-4.1
	C117.6,314.1,119.1,307.5,121.3,300.1z M166.8,309c-8.3-1-14.7-5.7-13.5-18.4c1.2-12.7,16.5-8.5,20.3-3.4c2.4,3.2,3.1,8.4,3.3,12
	c-2,3.8-4.2,7-6.4,9.7C169.4,309.1,168.2,309.2,166.8,309z M109.6,278.2c3.8-3,4.1,3.5,0,10.3c-2.8,4.6-4.3,13.6-5,19
	c-2.9-2.9-4.9-5.6-6.1-7.4C103.1,281.6,105.9,281.1,109.6,278.2z"/>
<path class="st0" d="M449.2,253.1c26.5-8.4,30.3-21.6,30.3-21.6c-11.9,10.6-37.6,10-37.6,10c16-14.9,13.3-24.1,13.3-24.1
	c-14.1,17.6-32.5,8.9-32.5,8.9s-12.7-12.4-34.4-16.2s-41.9,5.7-57.4,18.4c-15.4,12.7-18.9,30-18.9,30c14.6-15.2,26.2-21.4,26.2-21.4
	c-5.7,6.8-9.2,20.8-9.2,20.8c-3.6,19.2,0.4,34,6,44.6c2,3.8,4.2,7,6.4,9.7c0.9,1.1,1.8,2.1,2.6,3c4.4,4.4,10.1,8.4,17.5,10.2
	c12.5,2.8,22.9-0.2,30.3-4c6.8-3,11.9-7,15.5-10.7c2.9-2.9,4.9-5.6,6.1-7.4c1-1.5,1.5-2.5,1.5-2.5l0,0
	c12.2-18.4,15.4-44.3,15.4-44.3c20,24.3,2.7,47.4,2.7,47.4c16.2-3.8,17-23.7,17-23.7c17,4.4,17.3-0.1,17.3-0.1
	c-11.4,1.1-15.7-12.4-15.7-12.4c19.8-2.2,24.1-13.5,24.1-13.5C459,263.9,449.2,253.1,449.2,253.1z M317.5,197.1
	c0,0,16.8-7.3,30-14.3c0,0,43-19.8,78.7-1.9c0,0,20,7.8,25.4,16.2c0,0-51.4-10.8-82.5-7s-35.2,6.8-51.7,8.7
	C317.5,198.7,315.6,199.5,317.5,197.1z M324.2,216.3c0,0,27.3-23.3,61.7-20.3c0,0,34.9,3.8,48.7,22.7c0,0-32.7-24.9-74.7-15.7
	C359.9,203.1,343.7,206.3,324.2,216.3z M342.1,334c0,0-5.4-6,3-1.9c0,0,13.8,10.8,39.2,4.9c0,0,9.2-1.9,23.3-10.4
	c0,0,11.9-2.9,0,7.7l-0.9,0.5c0,0,4.4,3.2,2.8,4s-1.8,0-3.5-0.9s-3-1.5-3-1.5s-2.8,1.4-4.9,2.3c0,0,7.2,4.6,2.8,6.1
	c0,0-0.6,0.8-6.1-2.7l-1.9-1.3l-3.6,1.2c0,0,2.8,6-0.7,7.1c0,0-3.2,0.6-4-4.1c0,0-0.4-1.6-2.3-1c-2,0.6-12.3,1.2-12.3,1.2
	s-3.2,6.2-4.8,4.5c-1.6-1.7-0.5-4.2,0.3-5.1c0,0-4.7-0.9-6.4-1c0,0-4.6,5-6.9,3.2c0,0-1-1.6,2.6-4.2
	C354.7,342.5,345.7,338.8,342.1,334z"/>
<path class="st1" d="M379.4,229c0,0-16.2-1.4-22.2,25.7c0,0-4.1,26.8,9.2,32.7c13.3,6,25.2-8.7,26.2-13.8c1.1-5.1,10.3-21.4,0-37.3
	C392.7,236.3,390,229.3,379.4,229z M414.6,291.8c0,0,6.5-3,5.4-11.1s-10-6.8-10.3-2.2C409.5,283.1,413.8,288.3,414.6,291.8z
	 M391.1,291.8c0,0,4.9-8.7,8.7,0s5.4,17,3.8,19.2s-4.6,4.3-7.7-1.2S389.6,293.8,391.1,291.8z M390.7,303.4
	c-2.3-7.7-13.1-7.3-19.2-7.7c-6.1-0.4-9.6,3.7-9.9,4.9c-0.3,1.3-4.9,10.2-4.9,10.2c-1.7,3.8-5.8,3.4-5.8,3.4
	c-1.2,0.8-0.5,4.6,12.9,7.8c2,0.5,3.9,0.8,5.7,0.9l0,0c0,0,0,0,0.1,0c1.8,0.2,3.5,0.2,5.1,0.1c4.6-0.1,11.3-0.9,16.5-4.1
	C394.4,317.5,392.9,310.8,390.7,303.4z M345.2,312.4c8.3-0.9,14.7-5.7,13.5-18.4c-1.2-12.7-16.5-8.5-20.3-3.4
	c-2.4,3.2-3.1,8.4-3.3,11.9c2,3.8,4.2,7,6.4,9.7C342.5,312.5,343.8,312.5,345.2,312.4z M402.4,281.5c-3.8-3-4.1,3.5,0,10.3
	c2.8,4.6,4.3,13.7,5,19c2.9-2.9,4.9-5.6,6.1-7.4C408.9,285,406.1,284.4,402.4,281.5z"/>
<g>
	<path d="M299.2,113c0.4-15.9-9.8-22.7-9.8-22.7c-1.8,20.4-10.5,27.2-17.1,29.4l0,0l0,0c-1.7,0.6-3.3,0.8-4.5,1
		c-5,0.8-9.3,0.4-12.3-0.1c-1.2-0.2-2.3-0.5-3.3-0.8c-0.7-0.2-1.2-0.4-1.5-0.5c0,0,0,0-0.1,0c-0.1-0.1-0.2-0.1-0.2-0.1l0,0
		c-16.2-6.5-17.1-28.9-17.1-28.9s-5.5,1-9.7,17.2s7.3,41.2,32,45.3c16.7,2.8,27.7-5.9,33-11.8C299.7,130.1,299.2,113,299.2,113
		L299.2,113z"/>
	<path class="st2" d="M291.8,99.3c0,0-0.2,1.3-0.7,3.3l0,0c-2.8,10.3-8.5,15.9-12.2,18.6h-0.1c0,0-11.7,9.5-29.6,3
		c-17.9-6.5-18.8-25-18.8-25s-11.3,28.3,13.7,44c19.3,12.1,37.2,0.3,45-10.3c4.8-7.1,5.6-16,5.8-19.2
		C295,109.3,294.4,103.9,291.8,99.3z"/>
</g>
</svg>
