<?xml version="1.0" standalone="no"?>
<!DOCTYPE svg PUBLIC "-//W3C//DTD SVG 20010904//EN"
 "http://www.w3.org/TR/2001/REC-SVG-20010904/DTD/svg10.dtd">
<svg version="1.0" xmlns="http://www.w3.org/2000/svg"
 width="640.000000pt" height="1280.000000pt" viewBox="0 0 640.000000 1280.000000"
 preserveAspectRatio="xMidYMid meet">
<metadata>
Created by potrace 1.15, written by Peter Selinger 2001-2017
</metadata>
<g transform="translate(0.000000,1280.000000) scale(0.100000,-0.100000)"
fill="#000000" stroke="none">
<path d="M2670 11908 c0 -491 3 -1686 7 -2656 l6 -1763 106 -88 106 -88 33
-102 c54 -164 59 -262 25 -498 l-28 -193 -62 0 -62 0 -25 -52 c-40 -85 -49
-161 -41 -366 l7 -183 -40 -57 c-69 -99 -70 -107 -34 -283 60 -295 92 -560 92
-752 0 -62 -18 -292 -39 -512 -49 -494 -59 -791 -87 -2675 l-6 -435 56 -85 56
-85 0 -157 c0 -175 2 -182 68 -193 l38 -6 23 -297 c25 -332 16 -305 111 -351
53 -25 62 -26 220 -25 186 0 243 14 314 77 35 31 37 35 46 127 5 52 13 180 16
283 l7 188 28 6 c50 10 53 21 50 201 l-2 167 49 71 49 71 7 204 c14 408 -40
2372 -74 2669 -5 47 -16 159 -25 250 -9 91 -25 226 -36 300 -43 291 -9 812 70
1088 11 38 4 66 -38 148 l-31 62 -3 223 c-3 239 -8 270 -58 344 -23 33 -27 35
-81 35 -32 0 -58 3 -58 6 0 4 -14 82 -31 173 -31 162 -31 169 -20 304 8 103
18 163 41 238 l31 100 109 72 110 72 0 1705 c0 938 -3 2134 -7 2658 l-6 952
-494 0 -493 0 0 -892z"/>
</g>
</svg>
