<?xml version="1.0" encoding="utf-8"?>
<!-- Generator: Adobe Illustrator 24.0.1, SVG Export Plug-In . SVG Version: 6.00 Build 0)  -->
<svg version="1.1" id="Layer_1" xmlns="http://www.w3.org/2000/svg" xmlns:xlink="http://www.w3.org/1999/xlink" x="0px" y="0px"
	 viewBox="0 0 612 792" style="enable-background:new 0 0 612 792;" xml:space="preserve">
<g>
	<path d="M186.06,336.6c13.8,0,27.19,0,41.46,0c0,39.86,0,79.61,0,119.37c0.59,0.12,1.19,0.25,1.78,0.37
		c9.31-22.81,18.63-45.62,28.49-69.77c9.85,24.16,19.26,47.23,28.66,70.29c0.49-0.03,0.97-0.07,1.46-0.1
		c0.1-1.79,0.29-3.59,0.29-5.38c-0.01-36.95-0.03-73.91-0.09-110.86c0-2.08-0.34-4.12,2.76-4.11c12.93,0.03,25.85,0.01,39.04,0.01
		c0,78.59,0,156.64,0,235.58c-6.8,0-13.54,0-20.28,0c-1.5,0-2.99,0.01-4.49,0c-13.27-0.1-13.17-0.14-17.98-12.57
		c-6.84-17.68-13.85-35.3-20.77-52.95c-2.63-6.72-5.2-13.48-7.79-20.21c-0.47-0.02-0.94-0.05-1.41-0.07
		c-2.77,7.02-5.61,14.01-8.3,21.05c-7.77,20.36-15.51,40.72-23.15,61.13c-1.03,2.75-2.44,3.76-5.46,3.71
		c-11.28-0.2-22.57-0.08-34.22-0.08C186.06,493.52,186.06,415.38,186.06,336.6z"/>
	<path d="M488.03,572.03c-10.5,0-20.77,0-31.03,0c-0.5,0-1,0-1.5-0.01c-12.2-0.21-12.02-0.24-14.47-12.34
		c-7.49-36.99-15.12-73.96-22.71-110.93c-0.25-1.21-0.67-2.39-1.01-3.58c-0.45-0.04-0.89-0.08-1.34-0.13
		c-0.89,3.7-1.92,7.37-2.66,11.09c-7.42,37.33-14.77,74.67-22.29,111.98c-0.3,1.47-2.11,3.73-3.25,3.75
		c-13.96,0.26-27.93,0.17-42.29,0.17c3.61-17.28,7.12-34.17,10.68-51.04c12.09-57.23,24.2-114.45,36.29-171.67
		c2.68-12.69,2.67-12.72,15.72-12.8c8.3-0.05,16.64,0.45,24.89-0.17c4.91-0.36,6.14,1.5,7.01,5.73
		c7.37,35.83,14.93,71.62,22.44,107.42c8.33,39.69,16.68,79.37,25.02,119.06C487.72,569.52,487.81,570.5,488.03,572.03z"/>
	<path d="M32.55,531c-7.19-3.11-9.66-8.24-9.88-16.34c-0.74-26.93-2.56-53.84-4.01-80.75c-0.08-1.45-0.1-3.67-0.96-4.19
		c-5.13-3.1-3.66-8-3.79-12.43c-0.13-4.48-0.03-8.97-0.03-14.01c-1.66,0.44-2.97,0.79-4.71,1.25c-0.46-1.12-1.3-2.27-1.38-3.47
		C7,389.49,6.5,377.89,5.6,366.31c-0.75-9.67,3.12-18.29,5.76-27.15c1.45-4.87,6.91-3.84,10.7-4.82c0.83-0.22,3.4,2.83,3.7,4.63
		c1.03,6.02,4.44,7.1,10.03,7.16c33.09,0.34,66.18,1.07,99.27,1.74c1.57,0.03,3.92,0.22,4.57,1.21c4.2,6.42,10.62,5.82,16.89,5.89
		c1.3,0.02,2.6,0.14,4.19,0.24c0,2.48,0,4.74,0,7.9c-43.37-0.84-86.69-1.68-129.91-2.52c-2.55,8.38-1.84,9.62,5.65,11.35
		c31.09,7.15,62.17,14.36,93.24,21.57c1.6,0.37,3.13,1.01,4.97,1.61c0.49,18.05,0.96,35.98,1.47,53.92
		c1.14,39.59,2.34,79.17,3.34,118.76c0.06,2.37-0.89,5.24-2.36,7.08c-3.73,4.64-8.04,8.82-12.71,13.82
		c-0.8-10.93-1.36-21.11-2.32-31.26c-2.77-29.37-7.34-58.37-17.44-86.29c-7.79-21.52-18.19-41.37-34.9-57.4
		c-11.5-11.03-24.97-18.7-40.35-22.95c-0.89-0.25-1.85-0.21-3.64-0.4c4.34,8.56,8.28,16.49,12.36,24.35
		c6.12,11.8,12.43,23.5,18.43,35.36c0.79,1.56,0.73,3.98,0.18,5.73C48.9,480.71,40.94,505.55,33,530.4
		C32.91,530.67,32.64,530.88,32.55,531z"/>
	<path d="M556.3,571.86c-13.88,0-27.47,0-41.8,0c0-9.08-0.01-17.98,0-26.88c0.05-28.41,0.16-56.81,0.12-85.22
		c0-3.11-0.26-6.41-1.3-9.31c-6.98-19.41-14.25-38.71-21.33-58.09c-6.67-18.26-13.23-36.57-20.26-56.01
		c5.53,0,10.55-0.03,15.58,0.01c7.81,0.06,15.63,0.45,23.41,0.13c3.83-0.16,5.23,1.35,6.3,4.62c5.56,17.05,11.28,34.05,16.97,51.06
		c0.35,1.04,0.99,1.99,2.19,4.33c2.3-6.52,4.26-11.88,6.09-17.28c4.59-13.53,9.09-27.09,13.73-40.6c0.31-0.89,1.48-2.1,2.27-2.11
		c13.59-0.13,27.19-0.09,41.58-0.09c-2.14,6.07-3.92,11.36-5.86,16.59c-7.58,20.43-15.21,40.84-22.82,61.26
		c-4.47,12-9.8,23.77-13.09,36.09c-2.08,7.8-1.39,16.41-1.44,24.66c-0.17,31.06-0.12,62.13-0.16,93.19
		C556.48,569.32,556.37,570.45,556.3,571.86z"/>
	<path d="M134.55,217.4c0,41.37,0,81.69,0,122.81c-34.51-0.68-68.79-1.35-103.74-2.04c1.58-29.78,10.03-56.25,28.73-79.02
		C78.9,235.58,104.3,222.93,134.55,217.4z M46.26,320.3c14.69-34.95,37.81-62.91,70.64-84.23C85.58,240.1,48.8,284.49,46.26,320.3z"
		/>
	<path d="M115.78,585.85c-26.25-16.74-51.55-32.87-76.83-48.98c8.45-26.55,16.59-52.14,24.84-78.07
		c9.71,2.99,17.36,8.33,23.88,15.34c12.6,13.54,18.68,30.32,21.53,47.98c3.22,19.98,4.7,40.25,6.91,60.39
		C116.19,583.13,116,583.77,115.78,585.85z"/>
	<path d="M553.18,318.14c-4.93,0-9.81,0-15.35,0c0-12.43,0-24.8,0-37.78c-4.38,0-8.17-0.26-11.87,0.18
		c-0.94,0.11-2.28,2.44-2.31,3.77c-0.23,9.81-0.17,19.63-0.2,29.44c0,1.3,0,2.61,0,4.34c-5.23,0-10.11,0-15.72,0
		c0-9.9,0-19.66,0-29.42c0-18.97,0.07-37.94-0.05-56.91c-0.02-3.37,0.78-4.91,4.46-4.6c3.6,0.31,7.26,0.07,11.44,0.07
		c0,12.3,0,24.2,0,36.02c0.94,0.36,1.37,0.65,1.81,0.68c12.22,0.59,12.22,0.58,12.21-11.55c0-8.14,0-16.28,0-24.84
		c5.29,0,10.17,0,15.58,0C553.18,257.46,553.18,287.58,553.18,318.14z"/>
	<path d="M268.12,318.33c-5.24,0-9.86,0-15.48,0c0-6.11-0.01-12.14,0-18.18c0.01-5.16,0.07-10.31,0.09-15.47
		c0.01-2.92-0.9-4.49-4.39-4.44c-11.03,0.18-9.99-1.25-9.92,9.73c0.06,9.28,0.01,18.57,0.01,28.23c-5.47,0-10.39,0-15.8,0
		c0-12.89-0.01-25.65,0-38.41c0.01-15.96,0.17-31.93-0.04-47.89c-0.05-3.8,1-5.08,4.76-4.76c3.43,0.3,6.91,0.06,11.03,0.06
		c0,10.77,0.23,21.03-0.11,31.28c-0.15,4.34,0.81,6.21,5.42,5.59c2.74-0.37,5.56-0.07,8.82-0.07c0-12.49,0-24.39,0-36.57
		c5.39,0,10.29,0,15.6,0C268.12,257.72,268.12,287.72,268.12,318.33z"/>
	<path d="M561.31,318.09c0-30.39,0-60.28,0-90.58c12.91,0,25.61,0,38.62,0c0,5.22,0,10.13,0,15.73c-5.92,0-11.69,0.21-17.44-0.07
		c-3.96-0.19-5.83,0.7-5.45,5.18c0.42,4.94,0.09,9.93,0.09,15.56c6.31,0,12.36,0,18.78,0c0,5.69,0,10.72,0,16.15
		c-5.99,0-11.92,0-18.69,0c0,7.08-0.09,13.81,0.16,20.53c0.02,0.6,2.21,1.58,3.41,1.61c6.29,0.16,12.58,0.08,19.17,0.08
		c0,5.53,0,10.44,0,15.82C587.17,318.09,574.47,318.09,561.31,318.09z"/>
	<path d="M429.49,227.19c0,5.48,0,10.42,0,15.99c-6.16,0-12.25,0.15-18.33-0.05c-3.83-0.13-5.4,1.09-5.11,5.16
		c0.35,4.94,0.08,9.93,0.08,15.88c4.12,0,7.86-0.1,11.59,0.02c8.11,0.25,11.45,3,11.75,11.04c0.41,11.1,0.28,22.23,0.02,33.33
		c-0.13,5.56-3.18,9.23-8.42,9.46c-10.08,0.44-20.19,0.13-30.49,0.13c0-5.27,0-10.3,0-15.94c6.8,0,13.24-0.06,19.67,0.03
		c2.44,0.04,3.74-0.6,3.66-3.35c-0.14-4.99-0.11-9.98-0.05-14.97c0.04-2.78-1.15-3.86-3.93-3.72c-2.98,0.15-5.99,0.09-8.98-0.09
		c-6.71-0.4-10.23-3.51-10.44-10.22c-0.33-10.62-0.41-21.27,0-31.89c0.3-7.85,4.01-10.79,11.94-10.79
		C411.26,227.19,420.06,227.19,429.49,227.19z"/>
	<path d="M300.18,302.49c7.48,0,14.88,0,22.64,0c0-7.52,0-14.57,0-22.39c-4.01,0-7.93,0.1-11.85-0.02
		c-7.74-0.24-11-3.38-11.08-10.96c-0.12-10.31-0.13-20.63,0.03-30.95c0.11-7.2,3.6-10.78,10.79-10.95
		c9.13-0.21,18.26-0.05,27.86-0.05c0,5.28,0,10.31,0,16.04c-7.55,0-15.09,0-22.7,0c0,7.24,0,13.79,0,20.88
		c4.03,0,7.63-0.06,11.23,0.01c7.97,0.16,11.71,3.65,11.82,11.61c0.16,10.81,0.09,21.63-0.1,32.44c-0.11,6.17-3.17,9.78-8.86,9.95
		c-9.77,0.3-19.56,0.08-29.78,0.08C300.18,313.03,300.18,308.01,300.18,302.49z"/>
	<path d="M457.53,243.24c0-5.59,0-10.53,0-15.82c13.98,0,27.87,0,42.14,0c0,5.17,0,10.06,0,15.89c-3.03,0-5.96,0.11-8.87-0.03
		c-3.24-0.15-4.35,1.21-4.33,4.45c0.14,23.08,0.13,46.16,0.15,69.24c0,0.3-0.21,0.6-0.44,1.21c-4.82,0-9.76,0-15.36,0
		c0-11.01-0.01-22.08,0-33.16c0.01-11.99-0.09-23.98,0.15-35.96c0.09-4.45-1.13-6.59-5.93-5.88
		C462.79,243.52,460.44,243.24,457.53,243.24z"/>
	<path d="M201.14,318.14c-5.41,0-10.17,0-15.37,0c0-16.46,0-32.59,0-48.71c0-7.15-0.16-14.31,0.11-21.46
		c0.14-3.73-1.01-5.2-4.8-4.82c-2.75,0.28-5.54,0.05-8.59,0.05c0-5.55,0-10.47,0-16.09c10.79,0,21.35,0.03,31.92-0.01
		c10.57-0.04,10.33-0.06,10.59,10.45c0.12,4.71-1.37,6.41-5.93,5.65c-1.13-0.19-2.33,0.1-3.49-0.01c-3.25-0.3-4.19,0.91-4.17,4.32
		c0.16,21.6,0.04,43.2,0,64.79C201.39,314.12,201.24,315.92,201.14,318.14z"/>
	<path d="M154.3,209.56c0,10.81,0.01,21.6,0,32.4c-0.03,28.8-0.03,57.6-0.13,86.4c-0.01,4.23-0.03,8.05,6.38,6.57
		c0,4.08,0,7.81,0,11.99c-5.76,0.24-12.04,2.09-16.28-4.28c-1.02-1.53-2.01-3.48-2.02-5.23c-0.14-38.78-0.15-77.56-0.16-116.34
		C142.09,213.98,146.39,209.81,154.3,209.56z"/>
	<path d="M291.65,317.93c-0.78,0.21-1.09,0.36-1.41,0.38c-14.08,0.89-14.06,0.89-14.07-13.13c-0.02-23.59-0.07-47.18-0.11-70.77
		c0-2.14,0-4.28,0-6.85c5.39,0,10.27,0,15.58,0C291.65,257.5,291.65,287.63,291.65,317.93z"/>
	<path d="M367.11,227.41c5.2,0,10.1,0,15.31,0c0,30.22,0,60.21,0,90.67c-4.97,0-10.01,0-15.31,0
		C367.11,287.84,367.11,257.78,367.11,227.41z"/>
</g>
</svg>
