<?xml version="1.0" encoding="utf-8"?>
<!-- Generator: Adobe Illustrator 24.1.3, SVG Export Plug-In . SVG Version: 6.00 Build 0)  -->
<svg version="1.1" id="Layer_1" xmlns="http://www.w3.org/2000/svg" xmlns:xlink="http://www.w3.org/1999/xlink" x="0px" y="0px"
	 width="792px" height="792px" viewBox="0 0 792 792" style="enable-background:new 0 0 792 792;" xml:space="preserve">
<style type="text/css">
	.st0{fill:#ED1C24;}
	.st1{fill:#E6E7E8;}
</style>
<path class="st0" d="M560.3,359.6c0,0-23,2-23.1,2c-7.4,0.6-14.5,1-22,0.5c-13.4-0.9-26.6-6.1-39.7-9.1c-21.4-5-42.6-8-64.5-7.1
	c-22.1,0.9-42.2,8.7-61.4,19.2c-22.5,12.3-43.8,25.6-67.4,35.5c-16.7,7.1-33.8,13.5-51,19.4c0,0,6.9,3.9,14.2,2.9
	c7.4-1,17.2-2,17.2-2l-17.7,9.3c0,0,12.8,2,17.2,1c4.4-1,20.1-5.4,20.1-5.4l-14.7,9.8c0,0,13.3,0,19.6-1.5
	c6.4-1.5,23.6-8.3,23.6-8.3l-19.6,12.8c0,0,14.2-1,23.6-3.4c9.3-2.5,15.7-9.3,15.7-9.3l-13.3,15.7c0,0,11.8,2.5,18.2-1.5
	c6.4-3.9,17.2-7.9,17.2-7.9l-9.8,12.8c0,0,5.9,3.4,13.8-1c7.9-4.4,17.7-9.8,17.7-9.8l-5.4,13.3c0,0,10.3,2,19.6-5.4
	c9.3-7.4,12.8-11.8,12.8-11.8l-8.8,19.6c0,0,17.7-4.9,23.1-10.3c5.4-5.4,14.2-12.3,14.2-12.3l-6.4,14.2c0,0,12.8-5.4,20.1-12.3
	c7.4-6.9,12.3-14.2,12.3-14.2l-6.9,18.2c0,0,14.2-6.9,19.6-13.8c5.4-6.9,16.2-17.7,16.2-17.7s26-26,43.7-26
	c17.7,0,34.9,0.5,34.9,0.5L560.3,359.6z"/>
<path class="st1" d="M366.6,391.6l-0.3-1.7c0-1.1,0.2-2.1,0.3-3.1c0-0.4,0.1-0.7,0.3-0.9c0.2-0.2,0.3-0.3,0.5-0.2
	c0.2,0.1,0.3,0.3,0.4,0.7c0.1,0.4,0.2,1,0.2,1.8c0,0.7-0.1,1.4-0.3,2C367.6,390.9,367.2,391.3,366.6,391.6z M381,384.2
	c0.2-0.6,0.3-1.3,0.3-2c0-0.8-0.1-1.4-0.2-1.8c-0.1-0.4-0.3-0.7-0.4-0.7c-0.2-0.1-0.3,0-0.5,0.2c-0.2,0.2-0.3,0.5-0.3,0.9
	c-0.2,1-0.3,2-0.3,3.1l0.3,1.7C380.4,385.3,380.8,384.9,381,384.2z M354.4,396.4c0.2-0.6,0.3-1.3,0.3-2c0-0.8-0.1-1.4-0.2-1.8
	c-0.1-0.4-0.3-0.7-0.4-0.7c-0.2-0.1-0.3,0-0.5,0.2s-0.2,0.5-0.3,0.9c-0.2,1-0.3,2-0.3,3.1l0.3,1.7
	C353.8,397.4,354.2,397,354.4,396.4z M560,373.2c0,0-17.2-0.5-34.9-0.5c-17.7,0-43.7,26-43.7,26s-10.8,10.8-16.2,17.7
	c-5.4,6.9-19.6,13.8-19.6,13.8l6.9-18.2c0,0-4.9,7.4-12.3,14.2c-7.4,6.9-20.1,12.3-20.1,12.3l6.4-14.2c0,0-8.8,6.9-14.2,12.3
	c-5.4,5.4-23.1,10.3-23.1,10.3l8.8-19.6c0,0-3.4,4.4-12.8,11.8c-9.3,7.4-19.6,5.4-19.6,5.4l5.4-13.3c0,0-9.8,5.4-17.7,9.8
	c-7.9,4.4-13.8,1-13.8,1l9.8-12.8c0,0-10.8,3.9-17.2,7.9c-6.4,3.9-18.2,1.5-18.2,1.5l13.3-15.7c0,0-6.4,6.9-15.7,9.3
	c-9.3,2.5-23.6,3.4-23.6,3.4l19.6-12.8c0,0-17.2,6.9-23.6,8.3c-6.4,1.5-19.6,1.5-19.6,1.5l14.7-9.8c0,0-15.7,4.4-20.1,5.4
	c-4.4,1-17.2-1-17.2-1l17.7-9.3c0,0-9.8,1-17.2,2c-7.4,1-14.2-2.9-14.2-2.9c17.2-5.9,34.3-12.3,51-19.4c23.6-10,45-23.3,67.4-35.5
	c19.3-10.5,39.3-18.3,61.4-19.2c21.8-0.9,43.1,2.2,64.5,7.1c13.1,3,26.3,8.2,39.7,9.1c7.5,0.5,14.5,0.1,22-0.5c0.1,0,23.1-2,23.1-2
	L560,373.2z M331,413.5c-0.2-0.9-0.5-1.5-0.9-1.8c-0.4-0.4-0.9-0.6-1.4-0.7c-0.5-0.1-1.1-0.2-1.7-0.2c-0.6,0-1.1-0.1-1.6-0.3
	c0,0.1-0.1,0-0.4-0.4c-0.3-0.4-0.4-0.8-0.5-1.2c0-0.4,0-0.9,0.1-1.4s0.3-0.9,0.7-1.2c0.4-0.2,0.6-0.3,0.7-0.1
	c0.1,0.1,0.2,0.3,0.3,0.6c0.1,0.3,0.1,0.5,0.2,0.8c0.1,0.3,0.2,0.5,0.5,0.6c0.3,0.1,0.6,0.1,0.8,0.1c0.2,0,0.4-0.1,0.6-0.2
	c0.2-0.1,0.3-0.3,0.3-0.6c0-0.2-0.2-0.5-0.4-0.7c-0.2-0.3-0.4-0.5-0.5-0.6c-0.4-0.5-0.9-0.8-1.6-0.9c-0.6-0.1-1.3,0.1-1.8,0.4
	c-0.6,0.3-1,0.8-1.4,1.5c-0.4,0.7-0.5,1.5-0.3,2.4c0.1,0.4,0.2,0.8,0.4,1.2c0.2,0.3,0.4,0.6,0.7,0.7c0.6,0.3,1.2,0.4,1.6,0.4
	c0.5,0,0.9,0,1.2,0c0.4,0,0.7,0,1,0.2c0.3,0.1,0.6,0.5,0.9,1.1c0.3,0.6,0.4,1.1,0.2,1.7s-0.4,1-0.7,1.4c-0.3,0.4-0.7,0.6-1.1,0.7
	c-0.4,0.1-0.7,0-0.9-0.3c-0.3-0.4-0.4-0.8-0.2-1.1c0.2-0.3,0.5-0.6,0.8-1l0.3-0.4c0.1-0.1,0.1-0.1,0.2-0.2l0.2-0.3
	c0.1-0.2-0.1-0.3-0.4-0.2c-0.3,0-0.7,0.2-1.1,0.4c-0.4,0.2-0.8,0.6-1.1,1c-0.3,0.4-0.4,0.9-0.3,1.5c0.2,0.5,0.4,0.9,0.7,1.1
	c0.3,0.2,0.7,0.4,1.3,0.3c0.5-0.1,1-0.2,1.6-0.4c0.5-0.2,1-0.4,1.5-0.7c0.4-0.3,0.8-0.7,1-1.2C331,414.7,331.1,414.1,331,413.5z
	 M337.8,411.4c0-0.2,0-0.4-0.1-0.7c0-0.2-0.1-0.5-0.1-0.7c0-0.2-0.1-0.4-0.1-0.5c-0.2-0.7-0.5-1.5-0.9-2.5c-0.4-0.9-0.7-1.7-1.1-2.4
	c-0.2-0.5-0.5-1-0.8-1.5c-0.3-0.5-0.8-0.7-1.4-0.7c-0.9,0.1-1.5,0.4-1.7,1c-0.2,0.6-0.3,1.4-0.3,2.4c-0.5-1.1-1.1-2.8-1.7-4.9
	c-0.7-2.1-1.2-4.3-1.6-6.6s-0.6-4.5-0.5-6.5s0.7-3.6,1.8-4.6c0.8-0.8,1.7-1,2.6-0.8c0.9,0.3,1.8,0.7,2.5,1.4
	c0.7,0.7,1.3,1.4,1.6,2.2c0.3,0.8,0.3,1.4,0,1.7c0.1,0.2,0.3,0.4,0.7,0.6c0.4,0.2,0.7,0.3,0.9,0.3c0.5-0.2,0.6-0.6,0.5-1.3
	c-0.1-0.7-0.5-1.5-1.1-2.4c-0.6-0.8-1.4-1.6-2.4-2.3c-1-0.7-2.1-1.1-3.3-1.3c-1.1-0.1-2,0.1-2.7,0.7c-0.7,0.6-1.2,1.4-1.6,2.3
	c-0.4,0.9-0.7,2-0.8,3.1c-0.1,1.1-0.2,2.1-0.2,2.9c0,1.8,0.2,3.7,0.6,5.8c0.4,2.1,0.9,4.1,1.6,6.2c0.6,2.1,1.4,4.1,2.2,6
	c0.8,2,1.6,3.8,2.3,5.4c0,0.1,0.2,0.1,0.3,0c0.2-0.1,0.4-0.2,0.6-0.3c0.2-0.1,0.5-0.3,0.8-0.6c0,0,0-0.2-0.1-0.5
	c-0.1-0.3-0.2-0.6-0.4-0.9c-0.1-0.3-0.3-0.7-0.4-1c-0.1-0.3-0.2-0.5-0.2-0.6c-0.3-0.7-0.5-1.5-0.6-2.4c-0.1-0.8-0.2-1.6-0.2-2.3
	c0-0.7,0-1.2,0.1-1.6c0.1-0.4,0.3-0.5,0.4-0.3c0.3,0.3,0.6,0.8,0.8,1.3c0.3,0.5,0.5,1,0.7,1.6c0.2,0.5,0.4,1.1,0.5,1.6
	c0.2,0.5,0.3,0.9,0.4,1.2c0.3,0.8,0.5,1.5,0.5,2.3s0.1,1.2,0.3,1.2c0.1,0.1,0.2,0.1,0.4,0c0.2-0.1,0.3-0.1,0.5-0.2
	c0.2-0.1,0.4-0.3,0.6-0.5C337.8,411.8,337.8,411.6,337.8,411.4z M348.2,409.1l-0.1-0.2c0-0.1-0.1-0.1-0.2-0.1s-0.2,0.1-0.3,0.2
	c-0.1,0.1-0.2,0.2-0.3,0.3c-0.1,0.1-0.2,0.1-0.2,0.1c-0.3,0-0.7-0.3-1-0.9c-0.4-0.6-0.7-1.3-1.1-2.1c-0.4-0.8-0.7-1.7-1-2.7
	c-0.3-1-0.5-1.9-0.7-2.7c0-0.1-0.2-0.1-0.6,0c-0.4,0.1-0.6,0.2-0.6,0.4c0,0.1,0.1,0.7,0.3,1.8c0.2,1.1,0.2,2.3,0,3.8
	c-0.2,1.8-0.6,2.6-1.1,2.4c-0.5-0.2-0.9-0.9-1.3-2.1c-0.4-1.2-0.6-2.6-0.7-4.2c-0.1-1.6,0.2-2.9,0.8-3.9c0.2-0.3,0.3-0.4,0.4-0.3
	c0.1,0,0.2,0.2,0.3,0.3c0.1,0.2,0.2,0.3,0.3,0.5c0.1,0.2,0.3,0.3,0.5,0.3c0.4,0,0.7,0,0.8-0.3c0.1-0.2,0.2-0.5,0.1-0.7
	c-0.1-0.3-0.2-0.5-0.4-0.8c-0.2-0.3-0.4-0.4-0.6-0.4c-0.1,0-0.1,0-0.2,0c-0.1,0-0.1,0-0.2,0c-1.1,0-1.9,0.4-2.4,1.2
	c-0.5,0.8-0.8,1.7-1,2.7c-0.1,1-0.1,2.1,0,3.2c0.1,1.1,0.3,2,0.5,2.6c0.1,0.5,0.3,1.1,0.5,1.5c0.2,0.5,0.5,0.9,0.8,1.4
	c0.3,0.4,0.5,0.7,0.8,0.8c0.3,0.1,0.5,0.1,0.8-0.1c0.3-0.1,0.5-0.3,0.8-0.6c0.3-0.3,0.5-0.5,0.7-0.8c0,0,0.2-0.2,0.3-0.5
	c0.2-0.3,0.3-0.7,0.4-1.1c0.1-0.4,0.2-0.8,0.2-1.2c0.7,1.6,1.4,2.6,2,3.1c0.6,0.5,1.1,0.7,1.5,0.6c0.4-0.1,0.7-0.3,0.9-0.7
	C348.1,409.6,348.2,409.3,348.2,409.1z M350.3,396.8c-0.3-0.6-0.5-1-0.8-1.3c-0.2-0.3-0.5-0.5-0.9-0.7c-0.3-0.2-0.7-0.1-1.1,0.1
	c-0.3,0.2-0.5,0.5-0.7,1c-0.1,0.4-0.2,0.9-0.2,1.5c0,0.5,0,1,0,1.6c0.1,0.5,0.1,1,0.2,1.3c-0.1-0.1-0.2-0.4-0.3-0.8
	c-0.2-0.4-0.3-0.9-0.5-1.4c-0.2-0.5-0.4-1-0.5-1.3c-0.2-0.4-0.3-0.6-0.3-0.6c-0.1,0-0.2,0-0.3,0c-0.4,0.2-0.8,0.3-1,0.4
	s-0.3,0.3-0.1,0.6l3.7,9.4l0.4,1c0.3,0,0.6-0.1,0.8-0.2c0.2-0.1,0.5-0.3,0.7-0.6c-0.6-1.4-1.1-3-1.4-4.7c-0.4-1.7-0.5-3.4-0.2-5.1
	c0.1-0.6,0.3-0.8,0.7-0.7c0.3,0.1,0.6,0.3,0.8,0.5c0.2,0.3,0.4,0.4,0.5,0.5c0.2,0,0.3,0,0.4,0C350.1,397.2,350.2,397,350.3,396.8z
	 M358.7,398.4c-0.1-0.1-0.3-0.2-0.6-0.3c-0.3-0.1-0.6,0-0.7,0.2l-0.2,0.2l0.1,2.7c0,1.3-0.2,1.9-0.6,2.1c-0.3,0.1-0.7,0-1.2-0.5
	c-0.4-0.5-0.9-1.1-1.3-2c-0.4-0.9-0.8-1.7-1-2.4c0.4-0.1,0.8-0.4,1.2-0.7c0.4-0.3,0.7-0.7,1-1.1c0.3-0.4,0.5-0.9,0.6-1.4
	c0.1-0.5,0.2-0.9,0.2-1.4c0-0.3-0.1-0.6-0.2-1s-0.3-0.7-0.5-1c-0.3-0.4-0.7-0.7-1.2-0.7c-0.5,0-0.9,0.1-1.4,0.4
	c-0.7,0.6-1.1,1.2-1.4,1.9c-0.3,0.7-0.5,1.5-0.5,2.2c0,0.8,0,1.6,0.2,2.4c0.2,0.8,0.4,1.5,0.6,2.2c0.6,1.6,1.3,2.6,2,3.2
	c0.7,0.6,1.4,0.9,2,0.8c0.6-0.1,1.2-0.4,1.7-1.1c0.5-0.6,0.8-1.4,1-2.3c0.1-0.4,0.1-0.8,0.1-1.2
	C358.7,399.3,358.7,398.9,358.7,398.4z M372.2,392.3c-0.1-0.1-0.3-0.2-0.6-0.3c-0.3-0.1-0.6,0-0.7,0.2l-0.2,0.2l0.1,2.7
	c0,1.3-0.2,1.9-0.6,2.1c-0.3,0.1-0.7,0-1.2-0.5c-0.4-0.5-0.9-1.1-1.3-2c-0.4-0.9-0.8-1.7-1-2.4c0.4-0.1,0.8-0.4,1.2-0.7
	c0.4-0.3,0.7-0.7,1-1.1c0.3-0.4,0.5-0.9,0.6-1.4c0.1-0.5,0.2-0.9,0.2-1.4c0-0.3-0.1-0.6-0.2-1s-0.3-0.7-0.5-1
	c-0.3-0.4-0.7-0.7-1.2-0.7c-0.5,0-0.9,0.1-1.4,0.4c-0.7,0.6-1.1,1.2-1.4,1.9c-0.3,0.7-0.5,1.5-0.5,2.2c0,0.8,0,1.6,0.2,2.4
	c0.2,0.8,0.4,1.5,0.6,2.2c0.6,1.6,1.3,2.6,2,3.2c0.7,0.6,1.4,0.9,2,0.8c0.6-0.1,1.2-0.4,1.7-1.1c0.5-0.6,0.8-1.4,1-2.3
	c0.1-0.4,0.1-0.8,0.1-1.2C372.2,393.2,372.2,392.7,372.2,392.3z M377.9,390.7c-0.1-0.8-0.3-1.6-0.5-2.5c-0.2-0.9-0.5-1.7-0.8-2.5
	s-0.5-1.5-0.7-2c0-0.1-0.2-0.1-0.4-0.1c-0.2,0-0.4,0.1-0.6,0.2s-0.4,0.2-0.5,0.3c-0.1,0.1-0.2,0.3-0.1,0.4c0.8,1.8,1.4,3.6,1.9,5.4
	c0.2,0.7,0.3,1.4,0.5,2.1c0.1,0.7,0.2,1.3,0.1,1.7c0,0.4-0.2,0.5-0.5,0.3c-0.3-0.2-0.7-0.9-1.3-2.1l-3.2-7.3l-0.6-0.2
	c-0.3,0-0.6,0.1-0.8,0.4c-0.2,0.2-0.3,0.4-0.3,0.5c0.4,1.1,0.9,2.2,1.4,3.4c0.6,1.2,1.1,2.3,1.7,3.3c0.2,0.3,0.5,0.7,0.8,1.1
	c0.4,0.4,0.7,0.8,1.1,1.1c0.4,0.3,0.8,0.6,1.1,0.7c0.4,0.1,0.6,0,0.9-0.3c0.2-0.3,0.3-0.6,0.5-1c0.1-0.4,0.2-0.7,0.3-1
	C378,392.1,378,391.4,377.9,390.7z M385.3,386.3c-0.1-0.1-0.3-0.2-0.6-0.3c-0.3-0.1-0.6,0-0.7,0.2l-0.2,0.2l0.1,2.7
	c0,1.3-0.2,1.9-0.6,2.1c-0.3,0.1-0.7,0-1.2-0.5c-0.4-0.5-0.9-1.1-1.3-2c-0.4-0.9-0.8-1.7-1-2.5c0.4-0.1,0.8-0.4,1.2-0.7
	c0.4-0.3,0.7-0.7,1-1.1c0.3-0.4,0.5-0.9,0.6-1.4c0.1-0.5,0.2-0.9,0.2-1.4c0-0.3-0.1-0.6-0.2-1c-0.2-0.4-0.3-0.7-0.5-1
	c-0.3-0.4-0.7-0.7-1.2-0.7c-0.5,0-0.9,0.1-1.4,0.4c-0.7,0.6-1.1,1.2-1.4,1.9c-0.3,0.7-0.5,1.5-0.5,2.2c0,0.8,0,1.6,0.2,2.4
	c0.2,0.8,0.4,1.5,0.6,2.2c0.6,1.6,1.3,2.6,2,3.2c0.7,0.6,1.4,0.9,2,0.8c0.6-0.1,1.2-0.4,1.7-1.1c0.5-0.6,0.8-1.4,1-2.3
	c0.1-0.4,0.1-0.8,0.1-1.2C385.3,387.2,385.3,386.7,385.3,386.3z M390.1,378.7c-0.3-0.6-0.5-1-0.8-1.3c-0.2-0.3-0.5-0.5-0.9-0.7
	c-0.3-0.2-0.7-0.1-1.1,0.1c-0.3,0.2-0.5,0.5-0.7,1c-0.1,0.4-0.2,0.9-0.3,1.5c0,0.5,0,1,0,1.6c0,0.5,0.1,1,0.2,1.3
	c-0.1-0.1-0.2-0.4-0.3-0.8c-0.2-0.4-0.3-0.9-0.5-1.4c-0.2-0.5-0.4-1-0.5-1.3c-0.2-0.4-0.3-0.6-0.3-0.6c-0.1,0-0.2,0-0.3,0
	c-0.4,0.2-0.8,0.3-1,0.4c-0.2,0.1-0.3,0.3-0.1,0.6l3.7,9.4l0.4,1c0.3,0,0.6-0.1,0.8-0.2c0.2-0.1,0.5-0.3,0.7-0.6
	c-0.6-1.4-1.1-3-1.4-4.7c-0.4-1.7-0.5-3.4-0.2-5.1c0.1-0.6,0.3-0.8,0.7-0.7c0.3,0.1,0.6,0.3,0.8,0.5c0.2,0.3,0.4,0.4,0.5,0.5
	c0.2,0,0.3,0,0.4,0C389.9,379,390,378.9,390.1,378.7z M402.6,397.3c0-1.8-0.3-3.8-0.7-5.8s-1-4.1-1.6-6.2c-0.6-2.1-1.4-4.1-2.1-6
	c-0.8-2-1.5-3.8-2.3-5.4c0-0.1-0.1-0.1-0.3,0c-0.2,0.1-0.4,0.2-0.5,0.3c-0.2,0.1-0.4,0.3-0.7,0.5c0,0.1,0,0.3,0.1,0.6s0.2,0.6,0.3,1
	c0.1,0.4,0.3,0.7,0.4,1c0.1,0.3,0.2,0.5,0.2,0.6c0.3,0.8,0.5,1.6,0.6,2.4c0.1,0.8,0.2,1.6,0.2,2.3c0,0.7,0,1.2-0.1,1.6
	s-0.2,0.5-0.4,0.3c-0.3-0.3-0.6-0.7-0.9-1.3c-0.3-0.5-0.5-1-0.7-1.6c-0.2-0.5-0.4-1.1-0.5-1.5c-0.2-0.5-0.3-0.9-0.4-1.1
	c-0.3-0.8-0.5-1.6-0.5-2.3c0-0.7-0.1-1.2-0.3-1.3c-0.1-0.1-0.2,0-0.4,0c-0.2,0.1-0.3,0.2-0.5,0.3c-0.2,0.1-0.4,0.3-0.6,0.5
	c0,0.1-0.1,0.2-0.1,0.4c0,0.2,0,0.4,0.1,0.7c0,0.2,0.1,0.5,0.2,0.7c0.1,0.2,0.1,0.4,0.2,0.5c0.2,0.7,0.4,1.6,0.8,2.5
	c0.3,0.9,0.7,1.7,1,2.4c0.3,0.6,0.6,1.1,0.9,1.5c0.3,0.5,0.8,0.6,1.3,0.6c0.9,0,1.4-0.3,1.7-0.9c0.2-0.6,0.3-1.4,0.4-2.4
	c0.5,1.2,1,2.8,1.7,4.9c0.7,2.1,1.2,4.3,1.6,6.6c0.4,2.3,0.6,4.5,0.5,6.5c-0.1,2.1-0.7,3.6-1.8,4.6c-0.8,0.8-1.7,1-2.6,0.8
	c-0.9-0.3-1.8-0.7-2.5-1.4c-0.7-0.7-1.2-1.4-1.6-2.2s-0.3-1.4,0-1.7c-0.1-0.1-0.3-0.3-0.7-0.5s-0.7-0.3-0.9-0.2
	c-0.5,0.2-0.6,0.6-0.5,1.3c0.1,0.7,0.5,1.5,1.1,2.3c0.6,0.8,1.4,1.6,2.4,2.3c1,0.7,2.1,1.1,3.4,1.3c1.1,0.1,2-0.1,2.7-0.7
	c0.7-0.6,1.3-1.4,1.7-2.3c0.4-0.9,0.7-2,0.8-3C402.5,399.1,402.6,398.2,402.6,397.3z M410.6,378.2c0-0.2,0-0.4-0.1-0.7
	c0-0.2-0.1-0.5-0.1-0.7c0-0.2-0.1-0.4-0.1-0.5c-0.2-0.7-0.5-1.5-0.9-2.5c-0.4-0.9-0.7-1.8-1.1-2.4c-0.2-0.5-0.5-1-0.8-1.5
	c-0.3-0.5-0.8-0.7-1.4-0.7c-0.9,0.1-1.5,0.4-1.7,1c-0.2,0.6-0.3,1.4-0.3,2.4c-0.5-1.1-1.1-2.8-1.7-4.9c-0.7-2.1-1.2-4.3-1.6-6.6
	c-0.4-2.3-0.6-4.5-0.5-6.5c0.1-2.1,0.7-3.6,1.8-4.6c0.8-0.8,1.7-1,2.6-0.8c0.9,0.3,1.8,0.7,2.5,1.4c0.7,0.7,1.3,1.4,1.6,2.2
	c0.3,0.8,0.3,1.4,0,1.7c0.1,0.2,0.3,0.4,0.7,0.6c0.4,0.2,0.7,0.3,0.9,0.3c0.5-0.2,0.6-0.6,0.5-1.3c-0.1-0.7-0.5-1.5-1.1-2.4
	c-0.6-0.8-1.4-1.6-2.4-2.3c-1-0.7-2.1-1.1-3.4-1.3c-1.1-0.1-2,0.1-2.7,0.7c-0.7,0.6-1.2,1.4-1.6,2.3c-0.4,0.9-0.7,2-0.8,3.1
	c-0.1,1.1-0.2,2.1-0.2,2.9c0,1.8,0.2,3.7,0.6,5.8c0.3,1.6,0.7,3.2,1.2,4.8c0,0.1-0.1,0.1-0.1,0.2c-0.1,0.3-0.3,0.5-0.6,0.9
	c-0.2,0.3-0.5,0.7-0.9,1l-1.7-6.5c-0.2-0.7-0.3-1.2-0.3-1.3c0-0.1-0.3-0.2-0.9-0.2c0.1,0.1-0.1,0.2-0.4,0.2c-0.3,0-0.5,0.1-0.5,0.2
	c0,0.1,0,0.5,0.2,1.3c0.2,0.8,0.4,1.7,0.7,2.7c0.3,1,0.5,1.9,0.8,2.8c0.2,0.9,0.4,1.4,0.4,1.6c-0.2,0-0.4,0.1-0.5,0.1
	c-0.1,0-0.2-0.1-0.3-0.3c-0.1,0-0.2-0.1-0.3-0.1c-0.2,0-0.3,0-0.5,0.1s-0.2,0.2-0.3,0.3c-0.1,0.1,0,0.3,0.1,0.5
	c0.2,0.3,0.5,0.4,0.9,0.5c0.4,0.1,0.8,0,1.1-0.1c0.5,2,1.1,3.9,1.7,5.9c0.6,2,1.3,3.8,2.1,5.6c0.2,0.4,0.4,0.8,0.6,1.3
	c0.3,0.5,0.5,1,0.8,1.5c0.3,0.5,0.6,0.9,0.9,1.4c0.3,0.4,0.6,0.8,0.9,1c0.4,0.4,0.9,0.6,1.5,0.6c0.6,0,1.2-0.5,1.7-1.3
	c0.1-0.2,0.3-0.6,0.6-1.1c0.2-0.5,0.3-0.9,0.1-1c-0.1-0.1-0.2-0.1-0.3,0c-0.1,0.1-0.1,0.3-0.2,0.5c-0.1,0.2-0.1,0.4-0.2,0.7
	c-0.1,0.2-0.2,0.4-0.3,0.6c-0.4,0.5-0.8,0.5-1.4,0.1c-0.5-0.4-1-0.9-1.5-1.6c-0.5-0.7-0.9-1.3-1.2-2.1c-0.4-0.7-0.6-1.1-0.6-1.3
	l-1.1-2.6c-1.1-2.9-2-6-2.7-9.1c0.2-0.1,0.3-0.2,0.4-0.4c0.2-0.1,0.3-0.3,0.5-0.6c0.2-0.3,0.3-0.6,0.4-0.9c0.1-0.1,0.1-0.2,0.1-0.4
	c0.1,0.2,0.1,0.4,0.2,0.7c0.6,2.1,1.4,4.1,2.2,6c0.8,2,1.6,3.8,2.3,5.4c0,0.1,0.2,0.1,0.3,0c0.2-0.1,0.4-0.2,0.6-0.3
	c0.2-0.1,0.5-0.3,0.8-0.6c0,0,0-0.2-0.1-0.5c-0.1-0.3-0.2-0.6-0.3-0.9c-0.1-0.3-0.3-0.7-0.4-1c-0.1-0.3-0.2-0.5-0.2-0.6
	c-0.3-0.7-0.5-1.5-0.6-2.4c-0.1-0.8-0.2-1.6-0.2-2.3c0-0.7,0-1.2,0.1-1.6c0.1-0.4,0.3-0.5,0.4-0.3c0.3,0.3,0.6,0.8,0.8,1.3
	c0.3,0.5,0.5,1,0.7,1.6c0.2,0.5,0.4,1.1,0.5,1.6c0.2,0.5,0.3,0.9,0.4,1.2c0.3,0.8,0.5,1.5,0.5,2.3s0.1,1.2,0.3,1.2
	c0.1,0.1,0.2,0.1,0.4,0c0.2-0.1,0.3-0.1,0.5-0.2c0.2-0.1,0.4-0.3,0.6-0.5C410.6,378.6,410.6,378.4,410.6,378.2z M409.6,361.5
	c-0.1-0.4-0.3-0.8-0.6-1.1c-0.3-0.3-0.5-0.4-0.7-0.3c-0.2,0.1-0.4,0.3-0.4,0.7c-0.1,0.4,0,0.8,0.1,1.2c0.1,0.5,0.3,0.8,0.6,1.1
	c0.3,0.3,0.5,0.4,0.7,0.3c0.2-0.1,0.4-0.3,0.4-0.6C409.7,362.4,409.7,362,409.6,361.5z M416.4,377.6L416.4,377.6
	c0-0.2-0.1-0.3-0.2-0.2c-0.1,0-0.3,0.1-0.4,0.1c-0.1,0.1-0.3,0.2-0.6,0.4c0,0.1-0.1,0.1-0.1,0.2c0,0.1-0.1,0.1-0.2,0.1
	c-0.3-0.1-0.6-0.4-0.9-1.1c-0.4-0.7-0.7-1.5-1-2.4c-0.4-0.9-0.7-1.9-0.9-2.9c-0.3-1-0.5-1.8-0.6-2.5c-0.2-0.8-0.3-1.6-0.4-2.2
	c-0.1-0.6-0.3-0.9-0.8-0.8c-0.2,0-0.4,0.1-0.5,0.2c-0.1,0.1-0.3,0.2-0.5,0.3l-0.3,0.2c0.1,0.6,0.3,1.2,0.5,1.9
	c0.2,0.7,0.4,1.4,0.6,2.1c0.2,0.7,0.4,1.4,0.6,2.1c0.2,0.7,0.4,1.2,0.6,1.7c0.9,2.4,1.7,4,2.3,4.6s1.2,0.8,1.6,0.5
	C415.5,379.6,415.9,378.8,416.4,377.6z M420.4,374.4c0.2-0.1,0.3-0.2,0.5-0.3c0.2-0.1,0.4-0.3,0.6-0.5c0.1-0.1,0.1-0.2,0.1-0.4
	c0-0.2,0-0.4-0.1-0.7c0-0.2-0.1-0.5-0.1-0.7c-0.1-0.2-0.1-0.4-0.1-0.6c-0.2-0.7-0.5-1.5-0.8-2.5c-0.3-0.9-0.7-1.7-1.1-2.4
	c-0.3-0.5-0.6-0.9-0.9-1.4c-0.3-0.5-0.7-0.7-1.3-0.7c-0.6,0-1,0.1-1.3,0.4c-0.3,0.3-0.5,0.6-0.6,1c-0.1,0.4-0.2,0.8-0.2,1.3
	c0,0.5,0,0.9,0.1,1.3l-1.1-2.9c-0.3,0-0.7,0.1-1.1,0.2c-0.4,0.1-0.5,0.3-0.4,0.7c0,0.2,0.1,0.5,0.3,0.9c0.1,0.4,0.3,0.8,0.5,1.3
	c0.2,0.4,0.4,0.9,0.5,1.3c0.2,0.4,0.3,0.8,0.4,1c0.5,1.3,0.9,2.4,1.2,3.2c0.3,0.8,0.6,1.4,0.8,1.7c0.2,0.4,0.4,0.5,0.7,0.5
	c0.2,0,0.5-0.2,0.9-0.5c0,0,0-0.2-0.2-0.6c-0.1-0.4-0.3-0.9-0.5-1.4c-0.2-0.5-0.4-1.1-0.6-1.7c-0.2-0.6-0.3-1-0.4-1.4
	c-0.1-0.5-0.2-1.1-0.2-1.8c0-0.7,0-1.3,0-1.9c0-0.6,0.1-1,0.2-1.4c0.1-0.3,0.2-0.4,0.4-0.2c0.5,0.6,1,1.3,1.3,2.3c0.4,1,0.7,2,1,3
	c0.3,1,0.5,1.9,0.6,2.6c0.2,0.7,0.2,1.1,0.3,1.2C420.1,374.4,420.2,374.4,420.4,374.4z M432.8,383.5c0-0.8,0-1.6-0.1-2.1
	c-0.1-0.6-0.1-1.1-0.2-1.6s-0.2-1-0.3-1.5c-0.1-0.5-0.2-1.2-0.3-1.9l-2-7.4c-0.1-0.2-0.2-0.5-0.3-0.9c-0.2-0.5-0.3-1-0.5-1.5
	c-0.2-0.5-0.4-1.1-0.6-1.6c-0.2-0.5-0.4-0.9-0.5-1.1c-0.6,0.1-1,0.2-1.4,0.3c-0.3,0.2-0.4,0.6-0.3,1.2c0.1,0.5,0.2,1,0.2,1.3
	c0,0.4,0,0.8,0,1.4c0,0.2,0,0.4,0,0.7c0,0.3,0,0.6-0.1,1c0,0.3-0.1,0.6-0.2,0.9c-0.1,0.3-0.1,0.5-0.3,0.7c-0.2,0.2-0.5,0.1-1-0.5
	s-0.9-1.3-1.3-2.2c-0.4-0.9-0.8-2-1-3.2c-0.2-1.2-0.3-2.3-0.1-3.4c0.1-0.5,0.2-0.7,0.3-0.8c0.1-0.1,0.3-0.1,0.5,0.1
	c0.2,0.1,0.4,0.4,0.7,0.7c0.3,0.3,0.6,0.7,1,1.1c0.2,0.3,0.6,0.2,1.1-0.1c0.5-0.3,0.8-0.8,0.8-1.4c0-0.1-0.1-0.2-0.3-0.4
	c-0.2-0.2-0.4-0.4-0.8-0.6c-0.3-0.2-0.7-0.3-1.1-0.4c-0.4-0.1-0.9-0.1-1.4,0c-0.6,0.1-1.1,0.3-1.6,0.6c-0.5,0.3-0.8,0.7-1,1.4
	c-0.5,1.5-0.4,3.1,0.1,4.9c0.5,1.7,1.2,3.1,2.1,4.1c0.9,1,1.7,1.4,2.6,1.1c0.9-0.3,1.5-1.6,1.8-4.1c0.6,1.7,1.1,3.4,1.7,5.1
	c0.5,1.7,1,3.4,1.4,5.2c0.1,0.8,0.3,1.8,0.4,2.9c0.1,1.1,0.2,2.3,0.2,3.5c0,1.2-0.2,2.3-0.4,3.3s-0.7,1.9-1.3,2.4
	c-0.8,0.8-1.7,1-2.7,0.8c-0.9-0.3-1.8-0.7-2.5-1.4c-0.7-0.7-1.3-1.4-1.6-2.3c-0.3-0.8-0.3-1.4,0-1.8c-0.1-0.1-0.3-0.3-0.7-0.5
	c-0.4-0.2-0.7-0.3-0.9-0.2c-0.5,0.2-0.6,0.6-0.5,1.3c0.1,0.7,0.5,1.5,1.1,2.3c0.6,0.8,1.4,1.6,2.4,2.3c1,0.7,2.1,1.1,3.4,1.3
	c1.1,0.1,2-0.1,2.7-0.7c0.7-0.6,1.2-1.4,1.6-2.3c0.4-0.9,0.7-2,0.8-3.1C432.7,385.3,432.8,384.4,432.8,383.5z M400.9,367.5
	c-0.1-0.2-0.1-0.2-0.2,0c-0.1,0.1-0.1,0.2-0.2,0.4c0.1,0.2,0.1,0.5,0.2,0.7c0.1-0.2,0.1-0.3,0.2-0.5
	C400.9,367.8,400.9,367.6,400.9,367.5z"/>
</svg>
