<?xml version="1.0" encoding="utf-8"?>
<!-- Generator: Adobe Illustrator 22.1.0, SVG Export Plug-In . SVG Version: 6.00 Build 0)  -->
<svg version="1.1" id="Layer_1" xmlns="http://www.w3.org/2000/svg" xmlns:xlink="http://www.w3.org/1999/xlink" x="0px" y="0px"
	 viewBox="0 0 612 792" style="enable-background:new 0 0 612 792;" xml:space="preserve">
<style type="text/css">
	.st0{fill:none;stroke:#231F20;stroke-miterlimit:10;}
	.st1{fill:none;stroke:#000000;stroke-miterlimit:10;}
</style>
<g id="Cuts">
	<path class="st0" d="M430.6,381.5l-0.2,5.2c0,0.3,0,0.5,0,0.8c0,5.7-3.5,10.3-7.7,10.3c-4.3,0-7.7-4.6-7.7-10.3c0-0.3,0-0.5,0-0.8
		h-0.2c0,0.3,0,0.5,0,0.8c0,5.7-3.5,10.3-7.7,10.3c-4.3,0-7.7-4.6-7.7-10.3c0-0.3,0-0.5,0-0.8h-0.2c0,0.3,0,0.5,0,0.8
		c0,5.7-3.5,10.3-7.7,10.3c-4.3,0-7.7-4.6-7.7-10.3c0-0.3,0-0.5,0-0.8h-0.2c0,0.3,0,0.5,0,0.8c0,5.7-3.5,10.3-7.7,10.3
		c-4.3,0-7.7-4.6-7.7-10.3c0-0.3,0-0.5,0-0.8H368c0,0.3,0,0.5,0,0.8c0,5.7-3.5,10.3-7.7,10.3c-4.3,0-7.7-4.6-7.7-10.3
		c0-0.3,0-0.5,0-0.8h-0.2c0,0.3,0,0.5,0,0.8c0,5.7-3.5,10.3-7.7,10.3c-4.3,0-7.7-4.6-7.7-10.3c0-0.3,0-0.5,0-0.8h-0.2
		c0,0.3,0,0.5,0,0.8c0,5.7-3.5,10.3-7.7,10.3c-4.3,0-7.7-4.6-7.7-10.3c0-0.3,0-0.5,0-0.8h-0.2c0,0.3,0,0.5,0,0.8
		c0,5.7-3.5,10.3-7.7,10.3c-4.3,0-7.7-4.6-7.7-10.3c0-0.3,0-7,0-7.2l-0.2,6.5 M573,381l-20.5-145.8l-46.7-17.3l-46,17.1L435,380.8
		l1.6-362.1h-6l-0.2-5.4c0-0.3,0-0.5,0-0.8c0-5.7-3.5-10.3-7.7-10.3c-4.3,0-7.7,4.6-7.7,10.3c0,0.3,0,0.5,0,0.8h-0.2
		c0-0.3,0-0.5,0-0.8c0-5.7-3.5-10.3-7.7-10.3c-4.3,0-7.7,4.6-7.7,10.3c0,0.3,0,0.5,0,0.8h-0.2c0-0.3,0-0.5,0-0.8
		c0-5.7-3.5-10.3-7.7-10.3c-4.3,0-7.7,4.6-7.7,10.3c0,0.3,0,0.5,0,0.8h-0.2c0-0.3,0-0.5,0-0.8c0-5.7-3.5-10.3-7.7-10.3
		c-4.3,0-7.7,4.6-7.7,10.3c0,0.3,0,0.5,0,0.8H368c0-0.3,0-0.5,0-0.8c0-5.7-3.5-10.3-7.7-10.3c-4.3,0-7.7,4.6-7.7,10.3
		c0,0.3,0,0.5,0,0.8h-0.2c0-0.3,0-0.5,0-0.8c0-5.7-3.5-10.3-7.7-10.3c-4.3,0-7.7,4.6-7.7,10.3c0,0.3,0,0.5,0,0.8h-0.2
		c0-0.3,0-0.5,0-0.8c0-5.7-3.5-10.3-7.7-10.3c-4.3,0-7.7,4.6-7.7,10.3c0,0.3,0,0.5,0,0.8h-0.2c0-0.3,0-0.5,0-0.8
		c0-5.7-3.5-10.3-7.7-10.3c-4.3,0-7.7,4.6-7.7,10.3v6.2c0-1.5,0,0,0,0h-4.6v179.2L301,380.6l-18.6-144l-49.7-19.4l-47.1,18.6
		L165.8,382l-29-38.2H59.5L1.7,416.4V513l28.2,33.9h543.2L573,381z"/>
</g>
<g id="Scores">
	<path class="st1" d="M29.2,546.7V381.4h136.2l66.4-162.7l69.1,161.9L435,381l70.5-163.1L572.6,379 M435.6,197.8H301.5 M165.4,381.4
		V547 M300.9,380.6V546 M435.1,380.6v166"/>
</g>
<g id="Details">
	<path class="st1" d="M71.5,519.2H54.6H38.9 M54.8,447.7l0.2,71.4 M71.5,447.2H54.6H38.9 M39.4,450.4v5.3 M39.4,460.4v5.3
		 M39.4,470.4v5.3 M39.4,480.4v5.3 M39.4,490.4v5.3 M39.4,500.4v5.3 M39.4,510.4v5.3 M70.8,450.4v5.3 M70.8,460.4v5.3 M70.8,470.4
		v5.3 M70.8,480.4v5.3 M70.8,490.4v5.3 M70.8,500.4v5.3 M70.8,510.4v5.3"/>
	<path class="st1" d="M113.5,519.2H96.6H80.9 M96.8,447.7l0.2,71.4 M113.5,447.2H96.6H80.9 M81.4,450.4v5.3 M81.4,460.4v5.3
		 M81.4,470.4v5.3 M81.4,480.4v5.3 M81.4,490.4v5.3 M81.4,500.4v5.3 M81.4,510.4v5.3 M112.8,450.4v5.3 M112.8,460.4v5.3
		 M112.8,470.4v5.3 M112.8,480.4v5.3 M112.8,490.4v5.3 M112.8,500.4v5.3 M112.8,510.4v5.3"/>
	<path class="st1" d="M155.5,519.2h-16.9h-15.8 M138.8,447.7l0.2,71.4 M155.5,447.2h-16.9h-15.8 M123.4,450.4v5.3 M123.4,460.4v5.3
		 M123.4,470.4v5.3 M123.4,480.4v5.3 M123.4,490.4v5.3 M123.4,500.4v5.3 M123.4,510.4v5.3 M154.8,450.4v5.3 M154.8,460.4v5.3
		 M154.8,470.4v5.3 M154.8,480.4v5.3 M154.8,490.4v5.3 M154.8,500.4v5.3 M154.8,510.4v5.3"/>
	<path class="st1" d="M342.5,519.2h-16.9h-15.8 M325.8,447.7l0.2,71.4 M342.5,447.2h-16.9h-15.8 M310.4,450.4v5.3 M310.4,460.4v5.3
		 M310.4,470.4v5.3 M310.4,480.4v5.3 M310.4,490.4v5.3 M310.4,500.4v5.3 M310.4,510.4v5.3 M341.8,450.4v5.3 M341.8,460.4v5.3
		 M341.8,470.4v5.3 M341.8,480.4v5.3 M341.8,490.4v5.3 M341.8,500.4v5.3 M341.8,510.4v5.3"/>
	<path class="st1" d="M384.5,519.2h-16.9h-15.8 M367.8,447.7l0.2,71.4 M384.5,447.2h-16.9h-15.8 M352.4,450.4v5.3 M352.4,460.4v5.3
		 M352.4,470.4v5.3 M352.4,480.4v5.3 M352.4,490.4v5.3 M352.4,500.4v5.3 M352.4,510.4v5.3 M383.8,450.4v5.3 M383.8,460.4v5.3
		 M383.8,470.4v5.3 M383.8,480.4v5.3 M383.8,490.4v5.3 M383.8,500.4v5.3 M383.8,510.4v5.3"/>
	<path class="st1" d="M426.5,519.2h-16.9h-15.8 M409.8,447.7l0.2,71.4 M426.5,447.2h-16.9h-15.8 M394.4,450.4v5.3 M394.4,460.4v5.3
		 M394.4,470.4v5.3 M394.4,480.4v5.3 M394.4,490.4v5.3 M394.4,500.4v5.3 M394.4,510.4v5.3 M425.8,450.4v5.3 M425.8,460.4v5.3
		 M425.8,470.4v5.3 M425.8,480.4v5.3 M425.8,490.4v5.3 M425.8,500.4v5.3 M425.8,510.4v5.3"/>
	<path class="st0" d="M231.9,215.4l-38.4,97l-0.1,0.1l35-0.2c0,0-0.1,9.5,0.1,10.6c0.2,1.1,1.1,1.5,1.7,3.1c0.4,1,0.5,2.5,0.5,3.4
		c-1,0.7-1.7,1.9-1.7,3.3c0,2.1,1.6,3.8,3.5,3.8s3.5-1.7,3.5-3.8c0-1.5-0.8-2.7-1.9-3.4c0.1-1.2,0.4-3.2,1.2-4.7
		c1.2-2.2,0.9-4.3,0.9-4.3v-8.1l34.7,0.1h0.3L231.9,215.4z M246.9,267.5h-10.7l-0.7-29.3L246.9,267.5z M241.8,305l14.1-15.5l6,15.5
		H241.8z M236.2,274.8h14l3.4,8.9l-17.5,19.1L236.2,274.8z M209.5,289.3l14.4,15.7h-20.3L209.5,289.3z M214.9,274.8h13.5v26.9
		l-16.8-18.3L214.9,274.8z M228.4,238.9v28.7h-10.8L228.4,238.9z"/>
	<path class="st0" d="M504.9,215.4l-38.4,97l-0.1,0.1l35-0.2c0,0-0.1,9.5,0.1,10.6s1.1,1.5,1.7,3.1c0.4,1,0.5,2.5,0.5,3.4
		c-1,0.7-1.7,1.9-1.7,3.3c0,2.1,1.6,3.8,3.5,3.8s3.5-1.7,3.5-3.8c0-1.5-0.8-2.7-1.9-3.4c0.1-1.2,0.4-3.2,1.2-4.7
		c1.2-2.2,0.9-4.3,0.9-4.3v-8.1l34.7,0.1h0.3L504.9,215.4z M519.9,267.5h-10.7l-0.7-29.3L519.9,267.5z M514.8,305l14.1-15.5l6,15.5
		H514.8z M509.2,274.8h14l3.4,8.9l-17.5,19.1L509.2,274.8z M482.5,289.3l14.4,15.7h-20.3L482.5,289.3z M487.9,274.8h13.5v26.9
		l-16.8-18.3L487.9,274.8z M501.4,238.9v28.7h-10.8L501.4,238.9z"/>
	<path class="st1" d="M120.2,437.5H72.5c0-8,10.7-14.5,23.8-14.5S120.2,429.5,120.2,437.5z M40,437.5h22.9c0.1-4.4,1.8-8.3,5.8-11.6
		l-13.1-12C45.9,420,40,428.3,40,437.5z M92.9,417.7v-14.4c-11.8,0.4-22.7,3.1-31.4,7.3l11.8,12.6C78.5,420.2,85.3,418.2,92.9,417.7
		z M101,403.4v14.4c6.9,0.6,13.1,2.4,18,5.2l11.8-12.6C122.3,406.5,112.1,403.9,101,403.4z M152.7,437.5c0-9.3-6.1-17.7-16-23.9
		l-13.2,12.3c4.2,3.3,6.1,7.1,6.2,11.6H152.7z"/>
	<path class="st1" d="M184.2,467.6 M183.9,519.2h18.7h20 M184.2,467.6l0-1.4c0.5-10.1,8.8-18.1,19-18.1s18.5,8,19,18.1l0,1.4
		 M202.8,447.7l0.2,71.4 M184.1,470.8v5.3 M184.1,480.8v5.3 M184.1,490.8v5.3 M184.1,500.8v5.3 M184.1,510.8v5.3 M222.1,470.8v5.3
		 M222.1,480.8v5.3 M222.1,490.8v5.3 M222.1,500.8v5.3 M222.1,510.8v5.3"/>
	<path class="st1" d="M245.2,467.6 M244.9,519.2h18.7h20 M245.2,467.6l0-1.4c0.5-10.1,8.8-18.1,19-18.1c10.2,0,18.5,8,19,18.1l0,1.4
		 M263.8,447.7l0.2,71.4 M245.1,470.8v5.3 M245.1,480.8v5.3 M245.1,490.8v5.3 M245.1,500.8v5.3 M245.1,510.8v5.3 M283.1,470.8v5.3
		 M283.1,480.8v5.3 M283.1,490.8v5.3 M283.1,500.8v5.3 M283.1,510.8v5.3"/>
	<path class="st1" d="M218.5,364.4 M218.2,402h13.6h14.6 M218.5,364.4l0-1.1c0.3-7.4,6.4-13.2,13.9-13.2c7.4,0,13.5,5.9,13.9,13.2
		l0,1.1 M232.1,349.9l0.2,52.1 M218.4,366.7v3.9 M218.4,374v3.9 M218.4,381.3v3.9 M218.4,388.6v3.9 M218.4,395.8v3.9 M246.1,366.7
		v3.9 M246.1,374v3.9 M246.1,381.3v3.9 M246.1,388.6v3.9 M246.1,395.8v3.9"/>
	<path class="st1" d="M457.2,467.6 M456.9,519.2h18.7h20 M457.2,467.6l0-1.4c0.5-10.1,8.8-18.1,19-18.1c10.2,0,18.5,8,19,18.1l0,1.4
		 M475.8,447.7l0.2,71.4 M457.1,470.8v5.3 M457.1,480.8v5.3 M457.1,490.8v5.3 M457.1,500.8v5.3 M457.1,510.8v5.3 M495.1,470.8v5.3
		 M495.1,480.8v5.3 M495.1,490.8v5.3 M495.1,500.8v5.3 M495.1,510.8v5.3"/>
	<path class="st1" d="M518.2,467.6 M517.9,519.2h18.7h20 M518.2,467.6l0-1.4c0.5-10.1,8.8-18.1,19-18.1c10.2,0,18.5,8,19,18.1l0,1.4
		 M536.8,447.7l0.2,71.4 M518.1,470.8v5.3 M518.1,480.8v5.3 M518.1,490.8v5.3 M518.1,500.8v5.3 M518.1,510.8v5.3 M556.1,470.8v5.3
		 M556.1,480.8v5.3 M556.1,490.8v5.3 M556.1,500.8v5.3 M556.1,510.8v5.3"/>
	<path class="st1" d="M491.5,364.4 M491.2,402h13.6h14.6 M491.5,364.4l0-1.1c0.3-7.4,6.4-13.2,13.9-13.2c7.4,0,13.5,5.9,13.9,13.2
		l0,1.1 M505.1,349.9l0.2,52.1 M491.4,366.7v3.9 M491.4,374v3.9 M491.4,381.3v3.9 M491.4,388.6v3.9 M491.4,395.8v3.9 M519.1,366.7
		v3.9 M519.1,374v3.9 M519.1,381.3v3.9 M519.1,388.6v3.9 M519.1,395.8v3.9"/>
</g>
</svg>
