<?xml version="1.0" encoding="utf-8"?>
<!-- Generator: Adobe Illustrator 22.1.0, SVG Export Plug-In . SVG Version: 6.00 Build 0)  -->
<svg version="1.1" xmlns="http://www.w3.org/2000/svg" xmlns:xlink="http://www.w3.org/1999/xlink" x="0px" y="0px"
	 viewBox="0 0 612 792" style="enable-background:new 0 0 612 792;" xml:space="preserve">
<style type="text/css">
	.st0{fill:#BCBEC0;stroke:#231F20;stroke-miterlimit:10;}
	.st1{fill:#662D91;stroke:#221F1F;stroke-miterlimit:10;}
	.st2{fill:#662D91;stroke:#231F20;stroke-miterlimit:10;}
	.st3{fill:none;stroke:#000000;stroke-miterlimit:10;}
	.st4{fill:none;stroke:#010101;stroke-miterlimit:10;}
</style>
<g id="House_1_Cut">
	<path class="st0" d="M301.2,340.5l-18.6-144l-49.7-19.4l-47.1,18.6L165.8,342l-29-38.2H59.5l-48.3,61.5l-0.7,232.4l19.4,19.1h543.2
		L573,341l-20.5-145.8l-46.7-17.3l-46,17.1L435,340.8l-24.8-36.9H326L301.2,340.5z"/>
</g>
<g id="Roof">
	<path class="st1" d="M59.7,21.3v6l-5.3,0.2c-0.2,0-0.5,0-0.7,0c-5.6,0-10.1,3.5-10.1,7.7c0,4.3,4.5,7.7,10.1,7.7c0.3,0,0.5,0,0.7,0
		V43c-0.2,0-0.5,0-0.7,0c-5.6,0-10.1,3.5-10.1,7.7c0,4.3,4.5,7.7,10.1,7.7c0.3,0,0.5,0,0.7,0v0.2c-0.2,0-0.5,0-0.7,0
		c-5.6,0-10.1,3.5-10.1,7.7c0,4.3,4.5,7.7,10.1,7.7c0.3,0,0.5,0,0.7,0v0.2c-0.2,0-0.5,0-0.7,0c-5.6,0-10.1,3.5-10.1,7.7
		c0,4.3,4.5,7.7,10.1,7.7c0.3,0,0.5,0,0.7,0v0.2c-0.2,0-0.5,0-0.7,0c-5.6,0-10.1,3.5-10.1,7.7c0,4.3,4.5,7.7,10.1,7.7
		c0.3,0,0.5,0,0.7,0v0.2c-0.2,0-0.5,0-0.7,0c-5.6,0-10.1,3.5-10.1,7.7c0,4.3,4.5,7.7,10.1,7.7c0.3,0,0.5,0,0.7,0v0.2
		c-0.2,0-0.5,0-0.7,0c-5.6,0-10.1,3.5-10.1,7.7c0,4.3,4.5,7.7,10.1,7.7c0.3,0,0.5,0,0.7,0v0.2c-0.2,0-0.5,0-0.7,0
		c-5.6,0-10.1,3.5-10.1,7.7c0,4.3,4.5,7.7,10.1,7.7c0,0,6.1,0,6.1,0c-1.5,0,0,0,0,0v4.6h194.2h0.2h168.7v-4.6c0,0,1.5,0,0,0
		c0,0,6,0,6.1,0c5.6,0,10.1-3.5,10.1-7.7c0-4.3-4.5-7.7-10.1-7.7c-0.3,0-0.5,0-0.7,0v-0.2c0.2,0,0.5,0,0.7,0
		c5.6,0,10.1-3.5,10.1-7.7c0-4.3-4.5-7.7-10.1-7.7c-0.3,0-0.5,0-0.7,0v-0.2c0.2,0,0.5,0,0.7,0c5.6,0,10.1-3.5,10.1-7.7
		c0-4.3-4.5-7.7-10.1-7.7c-0.3,0-0.5,0-0.7,0v-0.2c0.2,0,0.5,0,0.7,0c5.6,0,10.1-3.5,10.1-7.7c0-4.3-4.5-7.7-10.1-7.7
		c-0.3,0-0.5,0-0.7,0v-0.2c0.2,0,0.5,0,0.7,0c5.6,0,10.1-3.5,10.1-7.7c0-4.3-4.5-7.7-10.1-7.7c-0.3,0-0.5,0-0.7,0V74
		c0.2,0,0.5,0,0.7,0c5.6,0,10.1-3.5,10.1-7.7c0-4.3-4.5-7.7-10.1-7.7c-0.3,0-0.5,0-0.7,0v-0.2c0.2,0,0.5,0,0.7,0
		c5.6,0,10.1-3.5,10.1-7.7c0-4.3-4.5-7.7-10.1-7.7c-0.3,0-0.5,0-0.7,0v-0.2c0.2,0,0.5,0,0.7,0c5.6,0,10.1-3.5,10.1-7.7
		c0-4.3-4.5-7.7-10.1-7.7c-0.3,0-0.5,0-0.7,0l-5.3-0.2v-6L254,22L59.7,21.3z"/>
	<path class="st2" d="M94.7,169.3l-38.4,97l-0.1,0.1l35-0.2c0,0-0.1,9.5,0.1,10.6c0.2,1.1,1.1,1.5,1.7,3.1c0.4,1,0.5,2.5,0.5,3.4
		c-1,0.7-1.7,1.9-1.7,3.3c0,2.1,1.6,3.8,3.5,3.8c1.9,0,3.5-1.7,3.5-3.8c0-1.5-0.8-2.7-1.9-3.4c0.1-1.2,0.4-3.2,1.2-4.7
		c1.2-2.2,0.9-4.3,0.9-4.3l0-8.1l34.7,0.1l0.3,0L94.7,169.3z M109.7,221.4l-10.7,0l-0.7-29.3L109.7,221.4z M104.6,258.9l14.1-15.5
		l6,15.5L104.6,258.9z M99,228.7l14,0l3.4,8.9l-17.5,19.1L99,228.7z M72.4,243.2l14.4,15.7l-20.3,0L72.4,243.2z M77.8,228.7l13.5,0
		l0,26.9l-16.8-18.3L77.8,228.7z M91.3,192.8l0,28.7l-10.8,0L91.3,192.8z"/>
	<path class="st2" d="M367.8,167.9l-38.4,97l-0.1,0.1l35-0.2c0,0-0.1,9.5,0.1,10.6c0.2,1.1,1.1,1.5,1.7,3.1c0.4,1,0.5,2.5,0.5,3.4
		c-1,0.7-1.7,1.9-1.7,3.3c0,2.1,1.6,3.8,3.5,3.8c1.9,0,3.5-1.7,3.5-3.8c0-1.5-0.8-2.7-1.9-3.4c0.1-1.2,0.4-3.2,1.2-4.7
		c1.2-2.2,0.9-4.3,0.9-4.3l0-8.1l34.7,0.1l0.3,0L367.8,167.9z M382.7,220.1l-10.7,0l-0.7-29.3L382.7,220.1z M377.6,257.5l14.1-15.5
		l6,15.5L377.6,257.5z M372,227.4l14,0l3.4,8.9l-17.5,19.1L372,227.4z M345.4,241.8l14.4,15.7l-20.3,0L345.4,241.8z M350.8,227.4
		l13.5,0l0,26.9L347.5,236L350.8,227.4z M364.3,191.4l0,28.7l-10.8,0L364.3,191.4z"/>
</g>
<g id="House_1_Score_Lines">
	<path class="st3" d="M29.2,617.7V341.4h136.2l66.4-162.7l69.1,161.9L435,341l70.5-163.1L572.6,339 M165.4,341.4V617 M300.9,340.6
		V617 M435.1,340.6v275"/>
</g>
<g id="Details">
	<path class="st4" d="M72.7,589.8H55.8H40 M56,518.3l0.2,71.4 M72.7,517.8H55.8H40 M40.6,522v5.3 M40.6,533v5.3 M40.6,545v5.3
		 M40.6,557v5.3 M40.6,569v5.3 M40.6,579v5.3 M72,522v5.3 M72,533v5.3 M72,545v5.3 M72,557v5.3 M72,569v5.3 M72,579v5.3"/>
	<path class="st4" d="M114.7,589.8H97.8H82 M98,518.3l0.2,71.4 M114.7,517.8H97.8H82 M82.6,522v5.3 M82.6,533v5.3 M82.6,545v5.3
		 M82.6,557v5.3 M82.6,569v5.3 M82.6,579v5.3 M114,522v5.3 M114,533v5.3 M114,545v5.3 M114,557v5.3 M114,569v5.3 M114,579v5.3"/>
	<path class="st4" d="M342.7,589.8h-16.9H310 M326,518.3l0.2,71.4 M342.7,517.8h-16.9H310 M310.6,522v5.3 M310.6,533v5.3 M310.6,545
		v5.3 M310.6,557v5.3 M310.6,569v5.3 M310.6,579v5.3 M342,522v5.3 M342,533v5.3 M342,545v5.3 M342,557v5.3 M342,569v5.3 M342,579
		v5.3"/>
	<path class="st4" d="M384.7,589.8h-16.9H352 M368,518.3l0.2,71.4 M384.7,517.8h-16.9H352 M352.6,522v5.3 M352.6,533v5.3 M352.6,545
		v5.3 M352.6,557v5.3 M352.6,569v5.3 M352.6,579v5.3 M384,522v5.3 M384,533v5.3 M384,545v5.3 M384,557v5.3 M384,569v5.3 M384,579
		v5.3"/>
	<path class="st4" d="M426.7,589.8h-16.9H394 M410,518.3l0.2,71.4 M426.7,517.8h-16.9H394 M394.6,522v5.3 M394.6,533v5.3 M394.6,545
		v5.3 M394.6,557v5.3 M394.6,569v5.3 M394.6,579v5.3 M426,522v5.3 M426,533v5.3 M426,545v5.3 M426,557v5.3 M426,569v5.3 M426,579
		v5.3"/>
	<path class="st4" d="M72.7,469.8H55.8H40 M56,398.3l0.2,71.4 M72.7,397.8H55.8H40 M40.6,402v5.3 M40.6,413v5.3 M40.6,425v5.3
		 M40.6,437v5.3 M40.6,449v5.3 M40.6,459v5.3 M72,402v5.3 M72,413v5.3 M72,425v5.3 M72,437v5.3 M72,449v5.3 M72,459v5.3"/>
	<path class="st4" d="M114.7,449.8H97.8H82 M98,378.3l0.2,71.4 M114.7,377.8H97.8H82 M82.6,382v5.3 M82.6,393v5.3 M82.6,405v5.3
		 M82.6,417v5.3 M82.6,429v5.3 M82.6,439v5.3 M114,382v5.3 M114,393v5.3 M114,405v5.3 M114,417v5.3 M114,429v5.3 M114,439v5.3"/>
	<path class="st4" d="M156.7,469.8h-16.9H124 M140,398.3l0.2,71.4 M156.7,397.8h-16.9H124 M124.6,402v5.3 M124.6,413v5.3 M124.6,425
		v5.3 M124.6,437v5.3 M124.6,449v5.3 M124.6,459v5.3 M156,402v5.3 M156,413v5.3 M156,425v5.3 M156,437v5.3 M156,449v5.3 M156,459
		v5.3"/>
	<path class="st4" d="M342.7,469.8h-16.9H310 M326,398.3l0.2,71.4 M342.7,397.8h-16.9H310 M310.6,402v5.3 M310.6,413v5.3 M310.6,425
		v5.3 M310.6,437v5.3 M310.6,449v5.3 M310.6,459v5.3 M342,402v5.3 M342,413v5.3 M342,425v5.3 M342,437v5.3 M342,449v5.3 M342,459
		v5.3"/>
	<path class="st4" d="M384.7,449.8h-16.9H352 M368,378.3l0.2,71.4 M384.7,377.8h-16.9H352 M352.6,382v5.3 M352.6,393v5.3 M352.6,405
		v5.3 M352.6,417v5.3 M352.6,429v5.3 M352.6,439v5.3 M384,382v5.3 M384,393v5.3 M384,405v5.3 M384,417v5.3 M384,429v5.3 M384,439
		v5.3"/>
	<path class="st4" d="M426.7,469.8h-16.9H394 M410,398.3l0.2,71.4 M426.7,397.8h-16.9H394 M394.6,402v5.3 M394.6,413v5.3 M394.6,425
		v5.3 M394.6,437v5.3 M394.6,449v5.3 M394.6,459v5.3 M426,402v5.3 M426,413v5.3 M426,425v5.3 M426,437v5.3 M426,449v5.3 M426,459
		v5.3"/>
	<path class="st4" d="M183.9,470.2h18.7h20 M222.1,429.8v5.3 M222.1,442.8v5.3 M184.2,418.6l0-1.4c0.5-10.1,8.8-18.1,19-18.1
		s18.5,8,19,18.1l0,1.4 M202.8,398.7l0.2,71.4 M222.1,455.8v5.3 M184.4,429.8v5.3 M184.4,442.8v5.3 M184.4,455.8v5.3"/>
	<path class="st4" d="M243.9,470.2h18.7h20 M282.1,429.8v5.3 M282.1,442.8v5.3 M244.2,418.6l0-1.4c0.5-10.1,8.8-18.1,19-18.1
		c10.2,0,18.5,8,19,18.1l0,1.4 M262.8,398.7l0.2,71.4 M282.1,455.8v5.3 M244.4,429.8v5.3 M244.4,442.8v5.3 M244.4,455.8v5.3"/>
	<path class="st4" d="M183.9,590.2h18.7h20 M222.1,549.8v5.3 M222.1,562.8v5.3 M184.2,538.6l0-1.4c0.5-10.1,8.8-18.1,19-18.1
		s18.5,8,19,18.1l0,1.4 M202.8,518.7l0.2,71.4 M222.1,575.8v5.3 M184.4,549.8v5.3 M184.4,562.8v5.3 M184.4,575.8v5.3"/>
	<path class="st4" d="M243.9,590.2h18.7h20 M282.1,549.8v5.3 M282.1,562.8v5.3 M244.2,538.6l0-1.4c0.5-10.1,8.8-18.1,19-18.1
		c10.2,0,18.5,8,19,18.1l0,1.4 M262.8,518.7l0.2,71.4 M282.1,575.8v5.3 M244.4,549.8v5.3 M244.4,562.8v5.3 M244.4,575.8v5.3"/>
	<path class="st4" d="M218.2,346.7h13.1h14 M244.9,318.4v3.7 M244.9,327.5v3.7 M218.4,310.6l0-1c0.3-7.1,6.1-12.7,13.3-12.7
		s13,5.6,13.3,12.7l0,1 M231.4,296.7l0.2,49.9 M244.9,336.6v3.7 M218.5,318.4v3.7 M218.5,327.5v3.7 M218.5,336.6v3.7"/>
	<path class="st4" d="M453.9,470.2h18.7h20 M492.1,429.8v5.3 M492.1,442.8v5.3 M454.2,418.6l0-1.4c0.5-10.1,8.8-18.1,19-18.1
		c10.2,0,18.5,8,19,18.1l0,1.4 M472.8,398.7l0.2,71.4 M492.1,455.8v5.3 M454.4,429.8v5.3 M454.4,442.8v5.3 M454.4,455.8v5.3"/>
	<path class="st4" d="M513.9,470.2h18.7h20 M552.1,429.8v5.3 M552.1,442.8v5.3 M514.2,418.6l0-1.4c0.5-10.1,8.8-18.1,19-18.1
		c10.2,0,18.5,8,19,18.1l0,1.4 M532.8,398.7l0.2,71.4 M552.1,455.8v5.3 M514.4,429.8v5.3 M514.4,442.8v5.3 M514.4,455.8v5.3"/>
	<path class="st4" d="M453.9,590.2h18.7h20 M492.1,549.8v5.3 M492.1,562.8v5.3 M454.2,538.6l0-1.4c0.5-10.1,8.8-18.1,19-18.1
		c10.2,0,18.5,8,19,18.1l0,1.4 M472.8,518.7l0.2,71.4 M492.1,575.8v5.3 M454.4,549.8v5.3 M454.4,562.8v5.3 M454.4,575.8v5.3"/>
	<path class="st4" d="M513.9,590.2h18.7h20 M552.1,549.8v5.3 M552.1,562.8v5.3 M514.2,538.6l0-1.4c0.5-10.1,8.8-18.1,19-18.1
		c10.2,0,18.5,8,19,18.1l0,1.4 M532.8,518.7l0.2,71.4 M552.1,575.8v5.3 M514.4,549.8v5.3 M514.4,562.8v5.3 M514.4,575.8v5.3"/>
	<path class="st4" d="M488.2,346.7h13.1h14 M514.9,318.4v3.7 M514.9,327.5v3.7 M488.4,310.6l0-1c0.3-7.1,6.1-12.7,13.3-12.7
		c7.1,0,13,5.6,13.3,12.7l0,1 M501.4,296.7l0.2,49.9 M514.9,336.6v3.7 M488.5,318.4v3.7 M488.5,327.5v3.7 M488.5,336.6v3.7"/>
	<path class="st4" d="M156.7,589.8h-16.9H124 M140,518.3l0.2,71.4 M156.7,517.8h-16.9H124 M124.6,522v5.3 M124.6,533v5.3 M124.6,545
		v5.3 M124.6,557v5.3 M124.6,569v5.3 M124.6,579v5.3 M156,522v5.3 M156,533v5.3 M156,545v5.3 M156,557v5.3 M156,569v5.3 M156,579
		v5.3"/>
</g>
</svg>
