  0
SECTION
  2
HEADER
  9
$ACADVER
  1
AC1024
  9
$ACADMAINTVER
 70
     6
  9
$DWGCODEPAGE
  3
UNDEFINED
  9
$INSBASE
 10
0.0
 20
0.0
 30
0.0
  9
$EXTMIN
 10
1.000000000000000E+20
 20
1.000000000000000E+20
 30
1.000000000000000E+20
  9
$EXTMAX
 10
-1.000000000000000E+20
 20
-1.000000000000000E+20
 30
-1.000000000000000E+20
  9
$LIMMIN
 10
0.0
 20
0.0
  9
$LIMMAX
 10
12.0
 20
9.0
  9
$ORTHOMODE
 70
     0
  9
$REGENMODE
 70
     1
  9
$FILLMODE
 70
     1
  9
$QTEXTMODE
 70
     0
  9
$MIRRTEXT
 70
     1
  9
$LTSCALE
 40
1.0
  9
$ATTMODE
 70
     1
  9
$TEXTSIZE
 40
0.2
  9
$TRACEWID
 40
0.05
  9
$TEXTSTYLE
  7
Standard
  9
$CLAYER
  8
0
  9
$CELTYPE
  6
ByLayer
  9
$CECOLOR
 62
   256
  9
$CELTSCALE
 40
1.0
  9
$DISPSILH
 70
     0
  9
$DIMSCALE
 40
1.0
  9
$DIMASZ
 40
0.18
  9
$DIMEXO
 40
0.0625
  9
$DIMDLI
 40
0.38
  9
$DIMRND
 40
0.0
  9
$DIMDLE
 40
0.0
  9
$DIMEXE
 40
0.18
  9
$DIMTP
 40
0.0
  9
$DIMTM
 40
0.0
  9
$DIMTXT
 40
0.18
  9
$DIMCEN
 40
0.09
  9
$DIMTSZ
 40
0.0
  9
$DIMTOL
 70
     0
  9
$DIMLIM
 70
     0
  9
$DIMTIH
 70
     1
  9
$DIMTOH
 70
     1
  9
$DIMSE1
 70
     0
  9
$DIMSE2
 70
     0
  9
$DIMTAD
 70
     0
  9
$DIMZIN
 70
     0
  9
$DIMBLK
  1

  9
$DIMASO
 70
     1
  9
$DIMSHO
 70
     1
  9
$DIMPOST
  1

  9
$DIMAPOST
  1

  9
$DIMALT
 70
     0
  9
$DIMALTD
 70
     2
  9
$DIMALTF
 40
25.4
  9
$DIMLFAC
 40
1.0
  9
$DIMTOFL
 70
     0
  9
$DIMTVP
 40
0.0
  9
$DIMTIX
 70
     0
  9
$DIMSOXD
 70
     0
  9
$DIMSAH
 70
     0
  9
$DIMBLK1
  1

  9
$DIMBLK2
  1

  9
$DIMSTYLE
  2
Standard
  9
$DIMCLRD
 70
     0
  9
$DIMCLRE
 70
     0
  9
$DIMCLRT
 70
     0
  9
$DIMTFAC
 40
1.0
  9
$DIMGAP
 40
0.09
  9
$DIMJUST
 70
     0
  9
$DIMSD1
 70
     0
  9
$DIMSD2
 70
     0
  9
$DIMTOLJ
 70
     1
  9
$DIMTZIN
 70
     0
  9
$DIMALTZ
 70
     0
  9
$DIMALTTZ
 70
     0
  9
$DIMUPT
 70
     0
  9
$DIMDEC
 70
     4
  9
$DIMTDEC
 70
     4
  9
$DIMALTU
 70
     2
  9
$DIMALTTD
 70
     2
  9
$DIMTXSTY
  7
Standard
  9
$DIMAUNIT
 70
     0
  9
$DIMADEC
 70
     0
  9
$DIMALTRND
 40
0.0
  9
$DIMAZIN
 70
     0
  9
$DIMDSEP
 70
    46
  9
$DIMATFIT
 70
     3
  9
$DIMFRAC
 70
     0
  9
$DIMLDRBLK
  1

  9
$DIMLUNIT
 70
     2
  9
$DIMLWD
 70
    -2
  9
$DIMLWE
 70
    -2
  9
$DIMTMOVE
 70
     0
  9
$DIMFXL
 40
1.0
  9
$DIMFXLON
 70
     0
  9
$DIMJOGANG
 40
0.7853981633974483
  9
$DIMTFILL
 70
     0
  9
$DIMTFILLCLR
 70
     0
  9
$DIMARCSYM
 70
     0
  9
$DIMLTYPE
  6

  9
$DIMLTEX1
  6

  9
$DIMLTEX2
  6

  9
$DIMTXTDIRECTION
 70
     0
  9
$LUNITS
 70
     2
  9
$LUPREC
 70
     4
  9
$SKETCHINC
 40
0.1
  9
$FILLETRAD
 40
0.5
  9
$AUNITS
 70
     0
  9
$AUPREC
 70
     0
  9
$MENU
  1
.
  9
$ELEVATION
 40
0.0
  9
$PELEVATION
 40
0.0
  9
$THICKNESS
 40
0.0
  9
$LIMCHECK
 70
     0
  9
$CHAMFERA
 40
0.5
  9
$CHAMFERB
 40
0.5
  9
$CHAMFERC
 40
1.0
  9
$CHAMFERD
 40
0.0
  9
$SKPOLY
 70
     0
  9
$TDCREATE
 40
2459180.0
  9
$TDUCREATE
 40
2459180.375
  9
$TDUPDATE
 40
2459180.0
  9
$TDUUPDATE
 40
2459180.375
  9
$TDINDWG
 40
0.0000000116
  9
$TDUSRTIMER
 40
0.0000000116
  9
$USRTIMER
 70
     1
  9
$ANGBASE
 50
0.0
  9
$ANGDIR
 70
     0
  9
$PDMODE
 70
     0
  9
$PDSIZE
 40
0.0
  9
$PLINEWID
 40
0.0
  9
$SPLFRAME
 70
     0
  9
$SPLINETYPE
 70
     6
  9
$SPLINESEGS
 70
     8
  9
$HANDSEED
  5
B1
  9
$SURFTAB1
 70
     6
  9
$SURFTAB2
 70
     6
  9
$SURFTYPE
 70
     6
  9
$SURFU
 70
     6
  9
$SURFV
 70
     6
  9
$UCSBASE
  2

  9
$UCSNAME
  2

  9
$UCSORG
 10
0.0
 20
0.0
 30
0.0
  9
$UCSXDIR
 10
1.0
 20
0.0
 30
0.0
  9
$UCSYDIR
 10
0.0
 20
1.0
 30
0.0
  9
$UCSORTHOREF
  2

  9
$UCSORTHOVIEW
 70
     0
  9
$UCSORGTOP
 10
0.0
 20
0.0
 30
0.0
  9
$UCSORGBOTTOM
 10
0.0
 20
0.0
 30
0.0
  9
$UCSORGLEFT
 10
0.0
 20
0.0
 30
0.0
  9
$UCSORGRIGHT
 10
0.0
 20
0.0
 30
0.0
  9
$UCSORGFRONT
 10
0.0
 20
0.0
 30
0.0
  9
$UCSORGBACK
 10
0.0
 20
0.0
 30
0.0
  9
$PUCSBASE
  2

  9
$PUCSNAME
  2

  9
$PUCSORG
 10
0.0
 20
0.0
 30
0.0
  9
$PUCSXDIR
 10
1.0
 20
0.0
 30
0.0
  9
$PUCSYDIR
 10
0.0
 20
1.0
 30
0.0
  9
$PUCSORTHOREF
  2

  9
$PUCSORTHOVIEW
 70
     0
  9
$PUCSORGTOP
 10
0.0
 20
0.0
 30
0.0
  9
$PUCSORGBOTTOM
 10
0.0
 20
0.0
 30
0.0
  9
$PUCSORGLEFT
 10
0.0
 20
0.0
 30
0.0
  9
$PUCSORGRIGHT
 10
0.0
 20
0.0
 30
0.0
  9
$PUCSORGFRONT
 10
0.0
 20
0.0
 30
0.0
  9
$PUCSORGBACK
 10
0.0
 20
0.0
 30
0.0
  9
$USERI1
 70
     0
  9
$USERI2
 70
     0
  9
$USERI3
 70
     0
  9
$USERI4
 70
     0
  9
$USERI5
 70
     0
  9
$USERR1
 40
0.0
  9
$USERR2
 40
0.0
  9
$USERR3
 40
0.0
  9
$USERR4
 40
0.0
  9
$USERR5
 40
0.0
  9
$WORLDVIEW
 70
     1
  9
$SHADEDGE
 70
     3
  9
$SHADEDIF
 70
    70
  9
$TILEMODE
 70
     1
  9
$MAXACTVP
 70
    64
  9
$PINSBASE
 10
0.0
 20
0.0
 30
0.0
  9
$PLIMCHECK
 70
     0
  9
$PEXTMIN
 10
1.000000000000000E+20
 20
1.000000000000000E+20
 30
1.000000000000000E+20
  9
$PEXTMAX
 10
-1.000000000000000E+20
 20
-1.000000000000000E+20
 30
-1.000000000000000E+20
  9
$PLIMMIN
 10
0.0
 20
0.0
  9
$PLIMMAX
 10
12.0
 20
9.0
  9
$UNITMODE
 70
     0
  9
$VISRETAIN
 70
     1
  9
$PLINEGEN
 70
     0
  9
$PSLTSCALE
 70
     1
  9
$TREEDEPTH
 70
  3020
  9
$CMLSTYLE
  2
Standard
  9
$CMLJUST
 70
     0
  9
$CMLSCALE
 40
1.0
  9
$PROXYGRAPHICS
 70
     1
  9
$MEASUREMENT
 70
     0
  9
$CELWEIGHT
370
    -1
  9
$ENDCAPS
280
     0
  9
$JOINSTYLE
280
     0
  9
$LWDISPLAY
290
     1
  9
$INSUNITS
 70
     1
  9
$HYPERLINKBASE
  1

  9
$STYLESHEET
  1

  9
$XEDIT
290
     1
  9
$CEPSNTYPE
380
     0
  9
$PSTYLEMODE
290
     1
  9
$FINGERPRINTGUID
  2
{4F524977-A81D-FC9C-B8FC-589531142AEC}
  9
$VERSIONGUID
  2
{FAEB1C32-E019-11D5-929B-00C0DF256EC4}
  9
$EXTNAMES
290
     1
  9
$PSVPSCALE
 40
0.0
  9
$OLESTARTUP
290
     0
  9
$SORTENTS
280
   127
  9
$INDEXCTL
280
     0
  9
$HIDETEXT
280
     1
  9
$XCLIPFRAME
280
     2
  9
$HALOGAP
280
     0
  9
$OBSCOLOR
 70
   257
  9
$OBSLTYPE
280
     0
  9
$INTERSECTIONDISPLAY
280
     0
  9
$INTERSECTIONCOLOR
 70
   257
  9
$DIMASSOC
280
     2
  9
$PROJECTNAME
  1

  9
$CAMERADISPLAY
290
     0
  9
$LENSLENGTH
 40
50.0
  9
$CAMERAHEIGHT
 40
0.0
  9
$STEPSPERSEC
 40
2.0
  9
$STEPSIZE
 40
6.0
  9
$3DDWFPREC
 40
2.0
  9
$PSOLWIDTH
 40
0.25
  9
$PSOLHEIGHT
 40
4.0
  9
$LOFTANG1
 40
1.570796326794897
  9
$LOFTANG2
 40
1.570796326794897
  9
$LOFTMAG1
 40
0.0
  9
$LOFTMAG2
 40
0.0
  9
$LOFTPARAM
 70
     7
  9
$LOFTNORMALS
280
     1
  9
$LATITUDE
 40
37.795
  9
$LONGITUDE
 40
-122.394
  9
$NORTHDIRECTION
 40
0.0
  9
$TIMEZONE
 70
 -8000
  9
$LIGHTGLYPHDISPLAY
280
     1
  9
$TILEMODELIGHTSYNCH
280
     1
  9
$CMATERIAL
347
3C
  9
$SOLIDHIST
280
     1
  9
$SHOWHIST
280
     1
  9
$DWFFRAME
280
     2
  9
$DGNFRAME
280
     2
  9
$REALWORLDSCALE
290
     1
  9
$INTERFERECOLOR
 62
   256
  9
$CSHADOW
280
     0
  9
$SHADOWPLANELOCATION
 40
0.0
  0
ENDSEC
  0
SECTION
  2
CLASSES
  0
CLASS
  1
ACDBDICTIONARYWDFLT
  2
AcDbDictionaryWithDefault
  3
ObjectDBX Classes
 90
        0
 91
        4
280
     0
281
     0
  0
CLASS
  1
VISUALSTYLE
  2
AcDbVisualStyle
  3
ObjectDBX Classes
 90
     4095
 91
        4
280
     0
281
     0
  0
CLASS
  1
MATERIAL
  2
AcDbMaterial
  3
ObjectDBX Classes
 90
     1153
 91
        4
280
     0
281
     0
  0
CLASS
  1
SUN
  2
AcDbSun
  3
SCENEOE
 90
     1024
 91
        4
280
     0
281
     0
  0
ENDSEC
  0
SECTION
  2
TABLES
  0
TABLE
  2
VPORT
  5
8
330
0
100
AcDbSymbolTable
 70
     1
  0
VPORT
  5
29
330
8
100
AcDbSymbolTableRecord
100
AcDbViewportTableRecord
  2
*Active
 70
     0
 10
0.0
 20
0.0
 11
1.0
 21
1.0
 12
0.0
 22
0.0
 13
0.0
 23
0.0
 14
0.5
 24
0.5
 15
0.5
 25
0.5
 16
0.0
 26
0.0
 36
1.0
 17
432.0
 27
432.0
 37
0.0
 40
864.0
 41
1.0
 42
50.0
 43
0.0
 44
0.0
 50
0.0
 51
0.0
 71
     0
 72
   100
 73
     1
 74
     3
 75
     0
 76
     0
 77
     0
 78
     0
281
     0
 65
     1
110
0.0
120
0.0
130
0.0
111
1.0
121
0.0
131
0.0
112
0.0
122
1.0
132
0.0
 79
     0
146
0.0
 60
     3
 61
     5
292
     1
282
     1
141
0.0
142
0.0
 63
   250
361
3F
  0
ENDTAB
  0
TABLE
  2
LTYPE
  5
5
330
0
100
AcDbSymbolTable
 70
     1
  0
LTYPE
  5
14
330
5
100
AcDbSymbolTableRecord
100
AcDbLinetypeTableRecord
  2
ByBlock
 70
     0
  3

 72
    65
 73
     0
 40
0.0
  0
LTYPE
  5
15
330
5
100
AcDbSymbolTableRecord
100
AcDbLinetypeTableRecord
  2
ByLayer
 70
     0
  3

 72
    65
 73
     0
 40
0.0
  0
LTYPE
  5
16
330
5
100
AcDbSymbolTableRecord
100
AcDbLinetypeTableRecord
  2
Continuous
 70
     0
  3
Solid line
 72
    65
 73
     0
 40
0.0
  0
ENDTAB
  0
TABLE
  2
LAYER
  5
2
330
0
100
AcDbSymbolTable
 70
     2
  0
LAYER
  5
10
330
2
100
AcDbSymbolTableRecord
100
AcDbLayerTableRecord
  2
0
 70
     0
 62
     7
  6
Continuous
370
    -3
390
F
347
3E
  0
LAYER
  5
40
330
2
100
AcDbSymbolTableRecord
100
AcDbLayerTableRecord
  2
Animal Clips
 70
     0
 62
     7
  6
Continuous
370
    -3
390
F
347
3E
  0
ENDTAB
  0
TABLE
  2
STYLE
  5
3
330
0
100
AcDbSymbolTable
 70
     1
  0
STYLE
  5
11
330
3
100
AcDbSymbolTableRecord
100
AcDbTextStyleTableRecord
  2
Standard
 70
     0
 40
0.0
 41
1.0
 50
0.0
 71
     0
 42
0.2
  3
txt
  4

  0
ENDTAB
  0
TABLE
  2
VIEW
  5
6
330
0
100
AcDbSymbolTable
 70
     0
  0
ENDTAB
  0
TABLE
  2
UCS
  5
7
330
0
100
AcDbSymbolTable
 70
     0
  0
ENDTAB
  0
TABLE
  2
APPID
  5
9
330
0
100
AcDbSymbolTable
 70
     1
  0
APPID
  5
12
330
9
100
AcDbSymbolTableRecord
100
AcDbRegAppTableRecord
  2
ACAD
 70
     0
  0
ENDTAB
  0
TABLE
  2
DIMSTYLE
  5
A
330
0
100
AcDbSymbolTable
 70
     1
100
AcDbDimStyleTable
  0
DIMSTYLE
105
27
330
A
100
AcDbSymbolTableRecord
100
AcDbDimStyleTableRecord
  2
Standard
 70
     0
178
     0
340
11
  0
ENDTAB
  0
TABLE
  2
BLOCK_RECORD
  5
1
330
0
100
AcDbSymbolTable
 70
     9
  0
BLOCK_RECORD
  5
1F
330
1
100
AcDbSymbolTableRecord
100
AcDbBlockTableRecord
  2
*Model_Space
340
22
 70
     0
280
     1
281
     0
  0
BLOCK_RECORD
  5
1B
330
1
100
AcDbSymbolTableRecord
100
AcDbBlockTableRecord
  2
*Paper_Space
340
1E
 70
     0
280
     1
281
     0
  0
BLOCK_RECORD
  5
23
330
1
100
AcDbSymbolTableRecord
100
AcDbBlockTableRecord
  2
*Paper_Space0
340
26
 70
     0
280
     1
281
     0
  0
BLOCK_RECORD
  5
41
330
1
100
AcDbSymbolTableRecord
100
AcDbBlockTableRecord
  2
block 2
340
0
102
{BLKREFS
331
42
102
}
 70
     0
280
     1
281
     0
  0
BLOCK_RECORD
  5
4D
330
1
100
AcDbSymbolTableRecord
100
AcDbBlockTableRecord
  2
block 3
340
0
102
{BLKREFS
331
4E
102
}
 70
     0
280
     1
281
     0
  0
BLOCK_RECORD
  5
56
330
1
100
AcDbSymbolTableRecord
100
AcDbBlockTableRecord
  2
block 4
340
0
102
{BLKREFS
331
57
102
}
 70
     0
280
     1
281
     0
  0
BLOCK_RECORD
  5
5E
330
1
100
AcDbSymbolTableRecord
100
AcDbBlockTableRecord
  2
block 5
340
0
102
{BLKREFS
331
5F
102
}
 70
     0
280
     1
281
     0
  0
BLOCK_RECORD
  5
66
330
1
100
AcDbSymbolTableRecord
100
AcDbBlockTableRecord
  2
block 6
340
0
102
{BLKREFS
331
67
102
}
 70
     0
280
     1
281
     0
  0
BLOCK_RECORD
  5
6F
330
1
100
AcDbSymbolTableRecord
100
AcDbBlockTableRecord
  2
block 7
340
0
102
{BLKREFS
331
70
102
}
 70
     0
280
     1
281
     0
  0
BLOCK_RECORD
  5
7A
330
1
100
AcDbSymbolTableRecord
100
AcDbBlockTableRecord
  2
block 8
340
0
102
{BLKREFS
331
7B
102
}
 70
     0
280
     1
281
     0
  0
BLOCK_RECORD
  5
A6
330
1
100
AcDbSymbolTableRecord
100
AcDbBlockTableRecord
  2
block 9
340
0
102
{BLKREFS
331
A7
102
}
 70
     0
280
     1
281
     0
  0
ENDTAB
  0
ENDSEC
  0
SECTION
  2
BLOCKS
  0
BLOCK
  5
20
330
1F
100
AcDbEntity
  8
0
100
AcDbBlockBegin
  2
*Model_Space
 70
     0
 10
0.0
 20
0.0
 30
0.0
  3
*Model_Space
  1

  0
ENDBLK
  5
21
330
1F
100
AcDbEntity
  8
0
100
AcDbBlockEnd
  0
BLOCK
  5
1C
330
1B
100
AcDbEntity
 67
     1
  8
0
100
AcDbBlockBegin
  2
*Paper_Space
 70
     0
 10
0.0
 20
0.0
 30
0.0
  3
*Paper_Space
  1

  0
ENDBLK
  5
1D
330
1B
100
AcDbEntity
 67
     1
  8
0
100
AcDbBlockEnd
  0
BLOCK
  5
24
330
23
100
AcDbEntity
  8
0
100
AcDbBlockBegin
  2
*Paper_Space0
 70
     0
 10
0.0
 20
0.0
 30
0.0
  3
*Paper_Space0
  1

  0
ENDBLK
  5
25
330
23
100
AcDbEntity
  8
0
100
AcDbBlockEnd
  0
BLOCK
  5
43
330
41
100
AcDbEntity
  8
0
100
AcDbBlockBegin
  2
block 2
 70
     0
 10
0.0
 20
0.0
 30
0.0
  3
block 2
  1

  0
SPLINE
  5
45
330
41
100
AcDbEntity
  8
Animal Clips
 62
     7
420
 16777215
370
    35
100
AcDbSpline
210
0.0
220
0.0
230
1.0
 70
    11
 71
     3
 72
    59
 73
    55
 74
     0
 42
0.0000000001
 43
0.0000000001
 12
1.0
 22
0.0
 32
0.0
 13
1.0
 23
0.0
 33
0.0
 40
0.0
 40
0.0
 40
0.0
 40
0.0
 40
1.0
 40
1.0
 40
1.0
 40
2.0
 40
2.0
 40
2.0
 40
3.0
 40
3.0
 40
3.0
 40
4.0
 40
4.0
 40
4.0
 40
5.0
 40
5.0
 40
5.0
 40
6.0
 40
6.0
 40
6.0
 40
7.0
 40
7.0
 40
7.0
 40
8.0
 40
8.0
 40
8.0
 40
9.0
 40
9.0
 40
9.0
 40
10.0
 40
10.0
 40
10.0
 40
11.0
 40
11.0
 40
11.0
 40
12.0
 40
12.0
 40
12.0
 40
13.0
 40
13.0
 40
13.0
 40
14.0
 40
14.0
 40
14.0
 40
15.0
 40
15.0
 40
15.0
 40
16.0
 40
16.0
 40
16.0
 40
17.0
 40
17.0
 40
17.0
 40
18.0
 40
18.0
 40
18.0
 40
18.0
 10
507.3999938964844
 20
450.6000061035156
 30
0.0
 10
507.3999938964844
 20
423.3000183105469
 30
0.0
 10
489.5
 20
401.2000122070312
 30
0.0
 10
467.3999938964844
 20
401.2000122070312
 30
0.0
 10
445.2999877929688
 20
401.2000122070312
 30
0.0
 10
427.3999938964844
 20
423.3000183105469
 30
0.0
 10
427.3999938964844
 20
450.6000061035156
 30
0.0
 10
427.3999938964844
 20
461.2000122070312
 30
0.0
 10
427.8999938964844
 20
468.8000183105469
 30
0.0
 10
432.5
 20
476.8999938964844
 30
0.0
 10
429.6000061035156
 20
480.5
 30
0.0
 10
428.0
 20
484.6000061035156
 30
0.0
 10
428.0
 20
489.0
 30
0.0
 10
428.0
 20
496.2000122070312
 30
0.0
 10
434.6000061035156
 20
505.0
 30
0.0
 10
441.7000122070312
 20
509.6000061035156
 30
0.0
 10
441.1000061035156
 20
510.8999938964844
 30
0.0
 10
440.0
 20
513.6000061035156
 30
0.0
 10
439.3000183105469
 20
516.2000122070312
 30
0.0
 10
438.4000244140625
 20
520.0
 30
0.0
 10
441.2000122070312
 20
526.5
 30
0.0
 10
441.2000122070312
 20
526.5
 30
0.0
 10
441.2000122070312
 20
526.5
 30
0.0
 10
443.6000061035156
 20
525.6000061035156
 30
0.0
 10
446.4000244140625
 20
520.8999938964844
 30
0.0
 10
448.3000183105469
 20
517.6999816894531
 30
0.0
 10
452.0000305175781
 20
515.7999877929688
 30
0.0
 10
454.2000122070312
 20
514.8999938964844
 30
0.0
 10
458.3000183105469
 20
516.0
 30
0.0
 10
462.7000122070312
 20
516.6000061035156
 30
0.0
 10
467.4000244140625
 20
516.6000061035156
 30
0.0
 10
471.5000305175781
 20
516.6000061035156
 30
0.0
 10
475.5000305175781
 20
516.1000061035156
 30
0.0
 10
479.2000122070312
 20
515.3000183105469
 30
0.0
 10
481.4000244140625
 20
516.3000183105469
 30
0.0
 10
484.5
 20
518.1000061035156
 30
0.0
 10
486.2000122070312
 20
521.0000305175781
 30
0.0
 10
489.0
 20
525.7000427246094
 30
0.0
 10
491.4000244140625
 20
526.6000366210938
 30
0.0
 10
491.4000244140625
 20
526.6000366210938
 30
0.0
 10
491.4000244140625
 20
526.6000366210938
 30
0.0
 10
494.2000122070312
 20
520.0000305175781
 30
0.0
 10
493.3000183105469
 20
516.300048828125
 30
0.0
 10
492.8000183105469
 20
514.2000427246094
 30
0.0
 10
492.0000305175781
 20
512.1000366210938
 30
0.0
 10
491.4000244140625
 20
510.7000427246094
 30
0.0
 10
499.5000305175781
 20
506.0000305175781
 30
0.0
 10
506.8000183105469
 20
496.9000549316406
 30
0.0
 10
506.8000183105469
 20
489.1000366210938
 30
0.0
 10
506.8000183105469
 20
484.7000427246094
 30
0.0
 10
505.2000122070312
 20
480.6000366210938
 30
0.0
 10
502.3000183105469
 20
477.0000305175781
 30
0.0
 10
506.8999938964844
 20
468.7999877929688
 30
0.0
 10
507.3999938964844
 20
461.2000122070312
 30
0.0
 10
507.3999938964844
 20
450.6000061035156
 30
0.0
  0
SPLINE
  5
46
330
41
100
AcDbEntity
  8
Animal Clips
 62
     7
420
 16777215
370
    35
100
AcDbSpline
210
0.0
220
0.0
230
1.0
 70
     8
 71
     3
 72
    29
 73
    25
 74
     0
 42
0.0000000001
 43
0.0000000001
 12
1.0
 22
0.0
 32
0.0
 13
1.0
 23
0.0
 33
0.0
 40
0.0
 40
0.0
 40
0.0
 40
0.0
 40
1.0
 40
1.0
 40
1.0
 40
2.0
 40
2.0
 40
2.0
 40
3.0
 40
3.0
 40
3.0
 40
4.0
 40
4.0
 40
4.0
 40
5.0
 40
5.0
 40
5.0
 40
6.0
 40
6.0
 40
6.0
 40
7.0
 40
7.0
 40
7.0
 40
8.0
 40
8.0
 40
8.0
 40
8.0
 10
454.6000061035156
 20
502.7999877929688
 30
0.0
 10
445.8000183105469
 20
502.7999877929688
 30
0.0
 10
438.6000061035156
 20
495.2999877929688
 30
0.0
 10
438.6000061035156
 20
486.0
 30
0.0
 10
438.6000061035156
 20
476.7000122070312
 30
0.0
 10
445.8000183105469
 20
469.2000122070312
 30
0.0
 10
454.6000061035156
 20
469.2000122070312
 30
0.0
 10
457.8000183105469
 20
469.2000122070312
 30
0.0
 10
460.8000183105469
 20
470.2000122070312
 30
0.0
 10
463.3000183105469
 20
471.9000244140625
 30
0.0
 10
464.0000305175781
 20
468.3000183105469
 30
0.0
 10
465.3000183105469
 20
464.2000122070312
 30
0.0
 10
467.2000122070312
 20
464.2000122070312
 30
0.0
 10
468.9000244140625
 20
464.2000122070312
 30
0.0
 10
470.4000244140625
 20
468.4000244140625
 30
0.0
 10
471.4000244140625
 20
471.9000244140625
 30
0.0
 10
473.8000183105469
 20
470.5000305175781
 30
0.0
 10
476.5000305175781
 20
469.2000122070312
 30
0.0
 10
479.4000244140625
 20
469.2000122070312
 30
0.0
 10
488.2000122070312
 20
469.2000122070312
 30
0.0
 10
495.4000244140625
 20
476.7000122070312
 30
0.0
 10
495.4000244140625
 20
486.0
 30
0.0
 10
495.4000244140625
 20
495.2999877929688
 30
0.0
 10
488.2000122070312
 20
502.7999877929688
 30
0.0
 10
479.4000244140625
 20
502.7999877929688
 30
0.0
  0
SPLINE
  5
47
330
41
100
AcDbEntity
  8
Animal Clips
 62
     7
420
 16777215
370
    35
100
AcDbSpline
210
0.0
220
0.0
230
1.0
 70
    11
 71
     3
 72
    17
 73
    13
 74
     0
 42
0.0000000001
 43
0.0000000001
 12
1.0
 22
0.0
 32
0.0
 13
1.0
 23
0.0
 33
0.0
 40
0.0
 40
0.0
 40
0.0
 40
0.0
 40
1.0
 40
1.0
 40
1.0
 40
2.0
 40
2.0
 40
2.0
 40
3.0
 40
3.0
 40
3.0
 40
4.0
 40
4.0
 40
4.0
 40
4.0
 10
480.7000122070312
 20
491.6000061035156
 30
0.0
 10
478.9000244140625
 20
491.6000061035156
 30
0.0
 10
477.4000244140625
 20
490.1000061035156
 30
0.0
 10
477.4000244140625
 20
488.3000183105469
 30
0.0
 10
477.4000244140625
 20
486.5000305175781
 30
0.0
 10
478.9000244140625
 20
485.0000305175781
 30
0.0
 10
480.7000122070312
 20
485.0000305175781
 30
0.0
 10
482.5
 20
485.0000305175781
 30
0.0
 10
484.0
 20
486.5000305175781
 30
0.0
 10
484.0
 20
488.3000183105469
 30
0.0
 10
484.0
 20
490.1000061035156
 30
0.0
 10
482.5
 20
491.6000061035156
 30
0.0
 10
480.7000122070312
 20
491.6000061035156
 30
0.0
  0
SPLINE
  5
48
330
41
100
AcDbEntity
  8
Animal Clips
 62
     7
420
 16777215
370
    35
100
AcDbSpline
210
0.0
220
0.0
230
1.0
 70
    11
 71
     3
 72
    17
 73
    13
 74
     0
 42
0.0000000001
 43
0.0000000001
 12
1.0
 22
0.0
 32
0.0
 13
1.0
 23
0.0
 33
0.0
 40
0.0
 40
0.0
 40
0.0
 40
0.0
 40
1.0
 40
1.0
 40
1.0
 40
2.0
 40
2.0
 40
2.0
 40
3.0
 40
3.0
 40
3.0
 40
4.0
 40
4.0
 40
4.0
 40
4.0
 10
451.5
 20
491.6000061035156
 30
0.0
 10
449.7000122070312
 20
491.6000061035156
 30
0.0
 10
448.2000122070312
 20
490.1000061035156
 30
0.0
 10
448.2000122070312
 20
488.3000183105469
 30
0.0
 10
448.2000122070312
 20
486.5000305175781
 30
0.0
 10
449.7000122070312
 20
485.0000305175781
 30
0.0
 10
451.5
 20
485.0000305175781
 30
0.0
 10
453.2999877929688
 20
485.0000305175781
 30
0.0
 10
454.7999877929688
 20
486.5000305175781
 30
0.0
 10
454.7999877929688
 20
488.3000183105469
 30
0.0
 10
454.7999877929688
 20
490.1000061035156
 30
0.0
 10
453.2999877929688
 20
491.6000061035156
 30
0.0
 10
451.5
 20
491.6000061035156
 30
0.0
  0
HATCH
  5
49
330
41
100
AcDbEntity
  8
Animal Clips
 62
     1
420
 16717591
100
AcDbHatch
 10
0.0
 20
0.0
 30
0.0
210
0.0
220
0.0
230
1.0
  2
SOLID
 70
     1
 71
     0
 91
        4
 92
        1
 93
        1
 72
     4
 94
        3
 73
     0
 74
     1
 95
       59
 96
       55
 40
0.0
 40
0.0
 40
0.0
 40
0.0
 40
1.0
 40
1.0
 40
1.0
 40
2.0
 40
2.0
 40
2.0
 40
3.0
 40
3.0
 40
3.0
 40
4.0
 40
4.0
 40
4.0
 40
5.0
 40
5.0
 40
5.0
 40
6.0
 40
6.0
 40
6.0
 40
7.0
 40
7.0
 40
7.0
 40
8.0
 40
8.0
 40
8.0
 40
9.0
 40
9.0
 40
9.0
 40
10.0
 40
10.0
 40
10.0
 40
11.0
 40
11.0
 40
11.0
 40
12.0
 40
12.0
 40
12.0
 40
13.0
 40
13.0
 40
13.0
 40
14.0
 40
14.0
 40
14.0
 40
15.0
 40
15.0
 40
15.0
 40
16.0
 40
16.0
 40
16.0
 40
17.0
 40
17.0
 40
17.0
 40
18.0
 40
18.0
 40
18.0
 40
18.0
 10
507.3999938964844
 20
450.6000061035156
 10
507.3999938964844
 20
423.3000183105469
 10
489.5
 20
401.2000122070312
 10
467.3999938964844
 20
401.2000122070312
 10
445.2999877929688
 20
401.2000122070312
 10
427.3999938964844
 20
423.3000183105469
 10
427.3999938964844
 20
450.6000061035156
 10
427.3999938964844
 20
461.2000122070312
 10
427.8999938964844
 20
468.8000183105469
 10
432.5
 20
476.8999938964844
 10
429.6000061035156
 20
480.5
 10
428.0
 20
484.6000061035156
 10
428.0
 20
489.0
 10
428.0
 20
496.2000122070312
 10
434.6000061035156
 20
505.0
 10
441.7000122070312
 20
509.6000061035156
 10
441.1000061035156
 20
510.8999938964844
 10
440.0
 20
513.6000061035156
 10
439.3000183105469
 20
516.2000122070312
 10
438.4000244140625
 20
520.0
 10
441.2000122070312
 20
526.5
 10
441.2000122070312
 20
526.5
 10
441.2000122070312
 20
526.5
 10
443.6000061035156
 20
525.6000061035156
 10
446.4000244140625
 20
520.8999938964844
 10
448.3000183105469
 20
517.6999816894531
 10
452.0000305175781
 20
515.7999877929688
 10
454.2000122070312
 20
514.8999938964844
 10
458.3000183105469
 20
516.0
 10
462.7000122070312
 20
516.6000061035156
 10
467.4000244140625
 20
516.6000061035156
 10
471.5000305175781
 20
516.6000061035156
 10
475.5000305175781
 20
516.1000061035156
 10
479.2000122070312
 20
515.3000183105469
 10
481.4000244140625
 20
516.3000183105469
 10
484.5
 20
518.1000061035156
 10
486.2000122070312
 20
521.0000305175781
 10
489.0
 20
525.7000427246094
 10
491.4000244140625
 20
526.6000366210938
 10
491.4000244140625
 20
526.6000366210938
 10
491.4000244140625
 20
526.6000366210938
 10
494.2000122070312
 20
520.0000305175781
 10
493.3000183105469
 20
516.300048828125
 10
492.8000183105469
 20
514.2000427246094
 10
492.0000305175781
 20
512.1000366210938
 10
491.4000244140625
 20
510.7000427246094
 10
499.5000305175781
 20
506.0000305175781
 10
506.8000183105469
 20
496.9000549316406
 10
506.8000183105469
 20
489.1000366210938
 10
506.8000183105469
 20
484.7000427246094
 10
505.2000122070312
 20
480.6000366210938
 10
502.3000183105469
 20
477.0000305175781
 10
506.8999938964844
 20
468.7999877929688
 10
507.3999938964844
 20
461.2000122070312
 10
507.3999938964844
 20
450.6000061035156
 97
        0
 97
        0
 92
        1
 93
        1
 72
     4
 94
        3
 73
     0
 74
     1
 95
       17
 96
       13
 40
0.0
 40
0.0
 40
0.0
 40
0.0
 40
1.0
 40
1.0
 40
1.0
 40
2.0
 40
2.0
 40
2.0
 40
3.0
 40
3.0
 40
3.0
 40
4.0
 40
4.0
 40
4.0
 40
4.0
 10
480.7000122070312
 20
491.6000061035156
 10
478.9000244140625
 20
491.6000061035156
 10
477.4000244140625
 20
490.1000061035156
 10
477.4000244140625
 20
488.3000183105469
 10
477.4000244140625
 20
486.5000305175781
 10
478.9000244140625
 20
485.0000305175781
 10
480.7000122070312
 20
485.0000305175781
 10
482.5
 20
485.0000305175781
 10
484.0
 20
486.5000305175781
 10
484.0
 20
488.3000183105469
 10
484.0
 20
490.1000061035156
 10
482.5
 20
491.6000061035156
 10
480.7000122070312
 20
491.6000061035156
 97
        0
 97
        0
 92
        1
 93
        1
 72
     4
 94
        3
 73
     0
 74
     1
 95
       17
 96
       13
 40
0.0
 40
0.0
 40
0.0
 40
0.0
 40
1.0
 40
1.0
 40
1.0
 40
2.0
 40
2.0
 40
2.0
 40
3.0
 40
3.0
 40
3.0
 40
4.0
 40
4.0
 40
4.0
 40
4.0
 10
451.5
 20
491.6000061035156
 10
449.7000122070312
 20
491.6000061035156
 10
448.2000122070312
 20
490.1000061035156
 10
448.2000122070312
 20
488.3000183105469
 10
448.2000122070312
 20
486.5000305175781
 10
449.7000122070312
 20
485.0000305175781
 10
451.5
 20
485.0000305175781
 10
453.2999877929688
 20
485.0000305175781
 10
454.7999877929688
 20
486.5000305175781
 10
454.7999877929688
 20
488.3000183105469
 10
454.7999877929688
 20
490.1000061035156
 10
453.2999877929688
 20
491.6000061035156
 10
451.5
 20
491.6000061035156
 97
        0
 97
        0
 92
        1
 93
        2
 72
     4
 94
        3
 73
     0
 74
     0
 95
       29
 96
       25
 40
0.0
 40
0.0
 40
0.0
 40
0.0
 40
1.0
 40
1.0
 40
1.0
 40
2.0
 40
2.0
 40
2.0
 40
3.0
 40
3.0
 40
3.0
 40
4.0
 40
4.0
 40
4.0
 40
5.0
 40
5.0
 40
5.0
 40
6.0
 40
6.0
 40
6.0
 40
7.0
 40
7.0
 40
7.0
 40
8.0
 40
8.0
 40
8.0
 40
8.0
 10
454.6000061035156
 20
502.7999877929688
 10
445.8000183105469
 20
502.7999877929688
 10
438.6000061035156
 20
495.2999877929688
 10
438.6000061035156
 20
486.0
 10
438.6000061035156
 20
476.7000122070312
 10
445.8000183105469
 20
469.2000122070312
 10
454.6000061035156
 20
469.2000122070312
 10
457.8000183105469
 20
469.2000122070312
 10
460.8000183105469
 20
470.2000122070312
 10
463.3000183105469
 20
471.9000244140625
 10
464.0000305175781
 20
468.3000183105469
 10
465.3000183105469
 20
464.2000122070312
 10
467.2000122070312
 20
464.2000122070312
 10
468.9000244140625
 20
464.2000122070312
 10
470.4000244140625
 20
468.4000244140625
 10
471.4000244140625
 20
471.9000244140625
 10
473.8000183105469
 20
470.5000305175781
 10
476.5000305175781
 20
469.2000122070312
 10
479.4000244140625
 20
469.2000122070312
 10
488.2000122070312
 20
469.2000122070312
 10
495.4000244140625
 20
476.7000122070312
 10
495.4000244140625
 20
486.0
 10
495.4000244140625
 20
495.2999877929688
 10
488.2000122070312
 20
502.7999877929688
 10
479.4000244140625
 20
502.7999877929688
 97
        0
 72
     1
 10
479.4000244140625
 20
502.7999877929688
 11
454.6000061035156
 21
502.7999877929688
 97
        0
 75
     2
 76
     1
 98
        0
  0
SPLINE
  5
4A
330
41
100
AcDbEntity
  8
Animal Clips
 62
     7
420
 16777215
370
    35
100
AcDbSpline
210
0.0
220
0.0
230
1.0
 70
     8
 71
     3
 72
    17
 73
    13
 74
     0
 42
0.0000000001
 43
0.0000000001
 12
1.0
 22
0.0
 32
0.0
 13
1.0
 23
0.0
 33
0.0
 40
0.0
 40
0.0
 40
0.0
 40
0.0
 40
1.0
 40
1.0
 40
1.0
 40
2.0
 40
2.0
 40
2.0
 40
3.0
 40
3.0
 40
3.0
 40
4.0
 40
4.0
 40
4.0
 40
4.0
 10
496.8999938964844
 20
453.1000061035156
 30
0.0
 10
496.8999938964844
 20
453.1000061035156
 30
0.0
 10
492.1000061035156
 20
434.1000061035156
 30
0.0
 10
482.6999816894531
 20
450.1000061035156
 30
0.0
 10
474.6999816894531
 20
435.7000122070312
 30
0.0
 10
469.2999877929688
 20
450.1000061035156
 30
0.0
 10
469.2999877929688
 20
450.1000061035156
 30
0.0
 10
469.2999877929688
 20
450.1000061035156
 30
0.0
 10
461.5999755859375
 20
434.6000061035156
 30
0.0
 10
453.7999877929688
 20
450.1000061035156
 30
0.0
 10
442.5999755859375
 20
434.1000061035156
 30
0.0
 10
439.5999755859375
 20
453.1000061035156
 30
0.0
 10
439.5999755859375
 20
453.1000061035156
 30
0.0
  0
SPLINE
  5
4B
330
41
100
AcDbEntity
  8
Animal Clips
 62
     7
420
 16777215
370
    35
100
AcDbSpline
210
0.0
220
0.0
230
1.0
 70
     8
 71
     3
 72
    17
 73
    13
 74
     0
 42
0.0000000001
 43
0.0000000001
 12
1.0
 22
0.0
 32
0.0
 13
1.0
 23
0.0
 33
0.0
 40
0.0
 40
0.0
 40
0.0
 40
0.0
 40
1.0
 40
1.0
 40
1.0
 40
2.0
 40
2.0
 40
2.0
 40
3.0
 40
3.0
 40
3.0
 40
4.0
 40
4.0
 40
4.0
 40
4.0
 10
439.7999877929688
 20
439.2000122070312
 30
0.0
 10
439.7999877929688
 20
439.2000122070312
 30
0.0
 10
442.6999816894531
 20
420.2000122070312
 30
0.0
 10
454.0
 20
436.2000122070312
 30
0.0
 10
461.7000122070312
 20
420.7000122070312
 30
0.0
 10
469.5
 20
436.2000122070312
 30
0.0
 10
469.5
 20
436.2000122070312
 30
0.0
 10
469.5
 20
436.2000122070312
 30
0.0
 10
474.7999877929688
 20
421.8000183105469
 30
0.0
 10
482.8999938964844
 20
436.2000122070312
 30
0.0
 10
492.2999877929688
 20
420.2000122070312
 30
0.0
 10
497.1000061035156
 20
439.2000122070312
 30
0.0
 10
497.1000061035156
 20
439.2000122070312
 30
0.0
  0
SPLINE
  5
4C
330
41
100
AcDbEntity
  8
Animal Clips
 62
     7
420
 16777215
370
    35
100
AcDbSpline
210
0.0
220
0.0
230
1.0
 70
     8
 71
     3
 72
    14
 73
    10
 74
     0
 42
0.0000000001
 43
0.0000000001
 12
1.0
 22
0.0
 32
0.0
 13
1.0
 23
0.0
 33
0.0
 40
0.0
 40
0.0
 40
0.0
 40
0.0
 40
1.0
 40
1.0
 40
1.0
 40
2.0
 40
2.0
 40
2.0
 40
3.0
 40
3.0
 40
3.0
 40
3.0
 10
446.7999877929688
 20
426.3999938964844
 30
0.0
 10
446.7999877929688
 20
426.3999938964844
 30
0.0
 10
449.6999816894531
 20
407.3999938964844
 30
0.0
 10
461.0
 20
423.3999938964844
 30
0.0
 10
468.7000122070312
 20
407.8999938964844
 30
0.0
 10
476.5
 20
423.3999938964844
 30
0.0
 10
476.5
 20
423.3999938964844
 30
0.0
 10
476.5
 20
423.3999938964844
 30
0.0
 10
481.7999877929688
 20
409.0
 30
0.0
 10
489.8999938964844
 20
423.3999938964844
 30
0.0
  0
ENDBLK
  5
44
330
41
100
AcDbEntity
  8
0
100
AcDbBlockEnd
  0
BLOCK
  5
4F
330
4D
100
AcDbEntity
  8
0
100
AcDbBlockBegin
  2
block 3
 70
     0
 10
0.0
 20
0.0
 30
0.0
  3
block 3
  1

  0
SPLINE
  5
51
330
4D
100
AcDbEntity
  8
Animal Clips
 62
     7
420
 16777215
370
    35
100
AcDbSpline
210
0.0
220
0.0
230
1.0
 70
    11
 71
     3
 72
    53
 73
    49
 74
     0
 42
0.0000000001
 43
0.0000000001
 12
1.0
 22
0.0
 32
0.0
 13
1.0
 23
0.0
 33
0.0
 40
0.0
 40
0.0
 40
0.0
 40
0.0
 40
1.0
 40
1.0
 40
1.0
 40
2.0
 40
2.0
 40
2.0
 40
3.0
 40
3.0
 40
3.0
 40
4.0
 40
4.0
 40
4.0
 40
5.0
 40
5.0
 40
5.0
 40
6.0
 40
6.0
 40
6.0
 40
7.0
 40
7.0
 40
7.0
 40
8.0
 40
8.0
 40
8.0
 40
9.0
 40
9.0
 40
9.0
 40
10.0
 40
10.0
 40
10.0
 40
11.0
 40
11.0
 40
11.0
 40
12.0
 40
12.0
 40
12.0
 40
13.0
 40
13.0
 40
13.0
 40
14.0
 40
14.0
 40
14.0
 40
15.0
 40
15.0
 40
15.0
 40
16.0
 40
16.0
 40
16.0
 40
16.0
 10
606.2000122070312
 20
700.1000061035156
 30
0.0
 10
607.4000244140625
 20
702.3000030517578
 30
0.0
 10
608.7000122070312
 20
704.4000091552734
 30
0.0
 10
610.0
 20
706.4000091552734
 30
0.0
 10
621.7999877929688
 20
723.6000061035156
 30
0.0
 10
639.5
 20
731.6000061035156
 30
0.0
 10
662.0
 20
736.7000122070312
 30
0.0
 10
687.0999755859375
 20
742.4000091552734
 30
0.0
 10
708.9000244140625
 20
729.7000122070312
 30
0.0
 10
711.9000244140625
 20
729.4000091552734
 30
0.0
 10
714.800048828125
 20
729.2000122070312
 30
0.0
 10
727.6000366210938
 20
735.7000122070312
 30
0.0
 10
732.300048828125
 20
736.9000091552734
 30
0.0
 10
736.9000244140625
 20
738.2000122070312
 30
0.0
 10
749.7000732421875
 20
742.1000061035156
 30
0.0
 10
751.800048828125
 20
735.0000152587891
 30
0.0
 10
753.9000244140625
 20
727.9000091552734
 30
0.0
 10
737.800048828125
 20
723.7000122070312
 30
0.0
 10
736.0000610351562
 20
715.4000091552734
 30
0.0
 10
735.0000610351562
 20
710.9000091552734
 30
0.0
 10
738.5000610351562
 20
700.7000122070312
 30
0.0
 10
750.5000610351562
 20
689.2000122070312
 30
0.0
 10
760.6000366210938
 20
679.6000061035156
 30
0.0
 10
781.2000732421875
 20
665.2000122070312
 30
0.0
 10
786.800048828125
 20
663.0000152587891
 30
0.0
 10
804.7000732421875
 20
657.9000091552734
 30
0.0
 10
818.300048828125
 20
653.1000213623047
 30
0.0
 10
817.5000610351562
 20
649.1000213623047
 30
0.0
 10
814.2000732421875
 20
645.5000152587891
 30
0.0
 10
802.4000854492188
 20
648.0000152587891
 30
0.0
 10
789.0000610351562
 20
643.2000274658203
 30
0.0
 10
775.6000366210938
 20
638.3000335693359
 30
0.0
 10
765.4000854492188
 20
616.8000335693359
 30
0.0
 10
761.9000854492188
 20
619.8000335693359
 30
0.0
 10
758.4000854492188
 20
622.8000335693359
 30
0.0
 10
767.60009765625
 20
637.8000335693359
 30
0.0
 10
767.60009765625
 20
647.3000335693359
 30
0.0
 10
767.60009765625
 20
675.6000366210938
 30
0.0
 10
709.10009765625
 20
675.9000396728516
 30
0.0
 10
688.5001220703125
 20
678.8000335693359
 30
0.0
 10
668.3001098632812
 20
681.7000274658203
 30
0.0
 10
637.10009765625
 20
694.8000335693359
 30
0.0
 10
612.2001342773438
 20
686.6000366210938
 30
0.0
 10
607.8001098632812
 20
685.7000427246094
 30
0.0
 10
591.1001586914062
 20
683.7000427246094
 30
0.0
 10
590.400146484375
 20
687.1000366210938
 30
0.0
 10
589.5
 20
691.6000061035156
 30
0.0
 10
602.2000122070312
 20
698.3999938964844
 30
0.0
 10
606.2000122070312
 20
700.1000061035156
 30
0.0
  0
SPLINE
  5
52
330
4D
100
AcDbEntity
  8
Animal Clips
 62
     7
420
 16777215
370
    35
100
AcDbSpline
210
0.0
220
0.0
230
1.0
 70
     8
 71
     3
 72
    14
 73
    10
 74
     0
 42
0.0000000001
 43
0.0000000001
 12
1.0
 22
0.0
 32
0.0
 13
1.0
 23
0.0
 33
0.0
 40
0.0
 40
0.0
 40
0.0
 40
0.0
 40
1.0
 40
1.0
 40
1.0
 40
2.0
 40
2.0
 40
2.0
 40
3.0
 40
3.0
 40
3.0
 40
3.0
 10
658.2000122070312
 20
711.1999969482422
 30
0.0
 10
658.2000122070312
 20
711.1999969482422
 30
0.0
 10
659.7000122070312
 20
700.0
 30
0.0
 10
677.6000366210938
 20
692.1999969482422
 30
0.0
 10
705.9000244140625
 20
680.3000030517578
 30
0.0
 10
730.300048828125
 20
690.8000030517578
 30
0.0
 10
727.0000610351562
 20
696.6999969482422
 30
0.0
 10
703.300048828125
 20
700.8999938964844
 30
0.0
 10
698.6000366210938
 20
718.6999969482422
 30
0.0
 10
698.6000366210938
 20
718.6999969482422
 30
0.0
  0
SPLINE
  5
53
330
4D
100
AcDbEntity
  8
Animal Clips
 62
     7
420
 16777215
370
    35
100
AcDbSpline
210
0.0
220
0.0
230
1.0
 70
    11
 71
     3
 72
    17
 73
    13
 74
     0
 42
0.0000000001
 43
0.0000000001
 12
1.0
 22
0.0
 32
0.0
 13
1.0
 23
0.0
 33
0.0
 40
0.0
 40
0.0
 40
0.0
 40
0.0
 40
1.0
 40
1.0
 40
1.0
 40
2.0
 40
2.0
 40
2.0
 40
3.0
 40
3.0
 40
3.0
 40
4.0
 40
4.0
 40
4.0
 40
4.0
 10
632.0999755859375
 20
709.5
 30
0.0
 10
630.5
 20
709.1999969482422
 30
0.0
 10
629.3999633789062
 20
707.6000061035156
 30
0.0
 10
629.7999877929688
 20
705.8999938964844
 30
0.0
 10
630.0999755859375
 20
704.2999877929688
 30
0.0
 10
631.7000122070312
 20
703.1999969482422
 30
0.0
 10
633.3999633789062
 20
703.5999908447266
 30
0.0
 10
634.9999389648438
 20
703.8999938964844
 30
0.0
 10
636.0999755859375
 20
705.4999847412109
 30
0.0
 10
635.699951171875
 20
707.1999969482422
 30
0.0
 10
635.2999877929688
 20
708.8999938964844
 30
0.0
 10
633.7000122070312
 20
709.8999938964844
 30
0.0
 10
632.0999755859375
 20
709.5
 30
0.0
  0
HATCH
  5
54
330
4D
100
AcDbEntity
  8
Animal Clips
 62
     1
420
 16717591
100
AcDbHatch
 10
0.0
 20
0.0
 30
0.0
210
0.0
220
0.0
230
1.0
  2
SOLID
 70
     1
 71
     0
 91
        3
 92
        1
 93
        1
 72
     4
 94
        3
 73
     0
 74
     1
 95
       53
 96
       49
 40
0.0
 40
0.0
 40
0.0
 40
0.0
 40
1.0
 40
1.0
 40
1.0
 40
2.0
 40
2.0
 40
2.0
 40
3.0
 40
3.0
 40
3.0
 40
4.0
 40
4.0
 40
4.0
 40
5.0
 40
5.0
 40
5.0
 40
6.0
 40
6.0
 40
6.0
 40
7.0
 40
7.0
 40
7.0
 40
8.0
 40
8.0
 40
8.0
 40
9.0
 40
9.0
 40
9.0
 40
10.0
 40
10.0
 40
10.0
 40
11.0
 40
11.0
 40
11.0
 40
12.0
 40
12.0
 40
12.0
 40
13.0
 40
13.0
 40
13.0
 40
14.0
 40
14.0
 40
14.0
 40
15.0
 40
15.0
 40
15.0
 40
16.0
 40
16.0
 40
16.0
 40
16.0
 10
606.2000122070312
 20
700.1000061035156
 10
607.4000244140625
 20
702.3000030517578
 10
608.7000122070312
 20
704.4000091552734
 10
610.0
 20
706.4000091552734
 10
621.7999877929688
 20
723.6000061035156
 10
639.5
 20
731.6000061035156
 10
662.0
 20
736.7000122070312
 10
687.0999755859375
 20
742.4000091552734
 10
708.9000244140625
 20
729.7000122070312
 10
711.9000244140625
 20
729.4000091552734
 10
714.800048828125
 20
729.2000122070312
 10
727.6000366210938
 20
735.7000122070312
 10
732.300048828125
 20
736.9000091552734
 10
736.9000244140625
 20
738.2000122070312
 10
749.7000732421875
 20
742.1000061035156
 10
751.800048828125
 20
735.0000152587891
 10
753.9000244140625
 20
727.9000091552734
 10
737.800048828125
 20
723.7000122070312
 10
736.0000610351562
 20
715.4000091552734
 10
735.0000610351562
 20
710.9000091552734
 10
738.5000610351562
 20
700.7000122070312
 10
750.5000610351562
 20
689.2000122070312
 10
760.6000366210938
 20
679.6000061035156
 10
781.2000732421875
 20
665.2000122070312
 10
786.800048828125
 20
663.0000152587891
 10
804.7000732421875
 20
657.9000091552734
 10
818.300048828125
 20
653.1000213623047
 10
817.5000610351562
 20
649.1000213623047
 10
814.2000732421875
 20
645.5000152587891
 10
802.4000854492188
 20
648.0000152587891
 10
789.0000610351562
 20
643.2000274658203
 10
775.6000366210938
 20
638.3000335693359
 10
765.4000854492188
 20
616.8000335693359
 10
761.9000854492188
 20
619.8000335693359
 10
758.4000854492188
 20
622.8000335693359
 10
767.60009765625
 20
637.8000335693359
 10
767.60009765625
 20
647.3000335693359
 10
767.60009765625
 20
675.6000366210938
 10
709.10009765625
 20
675.9000396728516
 10
688.5001220703125
 20
678.8000335693359
 10
668.3001098632812
 20
681.7000274658203
 10
637.10009765625
 20
694.8000335693359
 10
612.2001342773438
 20
686.6000366210938
 10
607.8001098632812
 20
685.7000427246094
 10
591.1001586914062
 20
683.7000427246094
 10
590.400146484375
 20
687.1000366210938
 10
589.5
 20
691.6000061035156
 10
602.2000122070312
 20
698.3999938964844
 10
606.2000122070312
 20
700.1000061035156
 97
        0
 97
        0
 92
        1
 93
        1
 72
     4
 94
        3
 73
     0
 74
     1
 95
       17
 96
       13
 40
0.0
 40
0.0
 40
0.0
 40
0.0
 40
1.0
 40
1.0
 40
1.0
 40
2.0
 40
2.0
 40
2.0
 40
3.0
 40
3.0
 40
3.0
 40
4.0
 40
4.0
 40
4.0
 40
4.0
 10
632.0999755859375
 20
709.5
 10
630.5
 20
709.1999969482422
 10
629.3999633789062
 20
707.6000061035156
 10
629.7999877929688
 20
705.8999938964844
 10
630.0999755859375
 20
704.2999877929688
 10
631.7000122070312
 20
703.1999969482422
 10
633.3999633789062
 20
703.5999908447266
 10
634.9999389648438
 20
703.8999938964844
 10
636.0999755859375
 20
705.4999847412109
 10
635.699951171875
 20
707.1999969482422
 10
635.2999877929688
 20
708.8999938964844
 10
633.7000122070312
 20
709.8999938964844
 10
632.0999755859375
 20
709.5
 97
        0
 97
        0
 92
        1
 93
        2
 72
     4
 94
        3
 73
     0
 74
     0
 95
       14
 96
       10
 40
0.0
 40
0.0
 40
0.0
 40
0.0
 40
1.0
 40
1.0
 40
1.0
 40
2.0
 40
2.0
 40
2.0
 40
3.0
 40
3.0
 40
3.0
 40
3.0
 10
658.2000122070312
 20
711.1999969482422
 10
658.2000122070312
 20
711.1999969482422
 10
659.7000122070312
 20
700.0
 10
677.6000366210938
 20
692.1999969482422
 10
705.9000244140625
 20
680.3000030517578
 10
730.300048828125
 20
690.8000030517578
 10
727.0000610351562
 20
696.6999969482422
 10
703.300048828125
 20
700.8999938964844
 10
698.6000366210938
 20
718.6999969482422
 10
698.6000366210938
 20
718.6999969482422
 97
        0
 72
     1
 10
698.6000366210938
 20
718.6999969482422
 11
658.2000122070312
 21
711.1999969482422
 97
        0
 75
     2
 76
     1
 98
        0
  0
SPLINE
  5
55
330
4D
100
AcDbEntity
  8
Animal Clips
 62
     7
420
 16777215
370
    35
100
AcDbSpline
210
0.0
220
0.0
230
1.0
 70
    11
 71
     3
 72
    56
 73
    52
 74
     0
 42
0.0000000001
 43
0.0000000001
 12
1.0
 22
0.0
 32
0.0
 13
1.0
 23
0.0
 33
0.0
 40
0.0
 40
0.0
 40
0.0
 40
0.0
 40
1.0
 40
1.0
 40
1.0
 40
2.0
 40
2.0
 40
2.0
 40
3.0
 40
3.0
 40
3.0
 40
4.0
 40
4.0
 40
4.0
 40
5.0
 40
5.0
 40
5.0
 40
6.0
 40
6.0
 40
6.0
 40
7.0
 40
7.0
 40
7.0
 40
8.0
 40
8.0
 40
8.0
 40
9.0
 40
9.0
 40
9.0
 40
10.0
 40
10.0
 40
10.0
 40
11.0
 40
11.0
 40
11.0
 40
12.0
 40
12.0
 40
12.0
 40
13.0
 40
13.0
 40
13.0
 40
14.0
 40
14.0
 40
14.0
 40
15.0
 40
15.0
 40
15.0
 40
16.0
 40
16.0
 40
16.0
 40
17.0
 40
17.0
 40
17.0
 40
17.0
 10
771.5999755859375
 20
648.6000061035156
 30
0.0
 10
771.0
 20
642.7000122070312
 30
0.0
 10
763.0999755859375
 20
628.6000061035156
 30
0.0
 10
768.3999633789062
 20
630.7000122070312
 30
0.0
 10
773.699951171875
 20
632.8000183105469
 30
0.0
 10
778.5999755859375
 20
643.8000183105469
 30
0.0
 10
783.3999633789062
 20
646.5000152587891
 30
0.0
 10
788.199951171875
 20
649.2000122070312
 30
0.0
 10
803.9999389648438
 20
648.9000091552734
 30
0.0
 10
807.199951171875
 20
650.5000152587891
 30
0.0
 10
810.3999633789062
 20
652.1000213623047
 30
0.0
 10
792.4999389648438
 20
657.2000122070312
 30
0.0
 10
788.7999267578125
 20
658.2000122070312
 30
0.0
 10
780.2999267578125
 20
660.6000061035156
 30
0.0
 10
763.199951171875
 20
675.3000183105469
 30
0.0
 10
756.699951171875
 20
680.1000061035156
 30
0.0
 10
750.199951171875
 20
684.8999938964844
 30
0.0
 10
736.699951171875
 20
698.3000030517578
 30
0.0
 10
734.2999267578125
 20
705.7000122070312
 30
0.0
 10
731.89990234375
 20
713.2000122070312
 30
0.0
 10
732.4999389648438
 20
719.7000122070312
 30
0.0
 10
738.5999145507812
 20
723.9000091552734
 30
0.0
 10
743.6998901367188
 20
727.4000091552734
 30
0.0
 10
750.0999145507812
 20
730.8000030517578
 30
0.0
 10
747.39990234375
 20
735.1000061035156
 30
0.0
 10
744.6998901367188
 20
739.4000091552734
 30
0.0
 10
716.89990234375
 20
726.6000061035156
 30
0.0
 10
712.6998901367188
 20
726.3000030517578
 30
0.0
 10
708.39990234375
 20
726.0
 30
0.0
 10
687.0999145507812
 20
738.1000061035156
 30
0.0
 10
666.1998901367188
 20
734.6000061035156
 30
0.0
 10
650.5999145507812
 20
732.0
 30
0.0
 10
627.1998901367188
 20
723.1000061035156
 30
0.0
 10
620.2998657226562
 20
714.0
 30
0.0
 10
613.3998413085938
 20
704.8999938964844
 30
0.0
 10
612.2998657226562
 20
699.3000030517578
 30
0.0
 10
609.099853515625
 20
697.6999969482422
 30
0.0
 10
605.8998413085938
 20
696.0999908447266
 30
0.0
 10
594.099853515625
 20
691.3000030517578
 30
0.0
 10
597.2998657226562
 20
689.6999969482422
 30
0.0
 10
600.4998779296875
 20
688.0999908447266
 30
0.0
 10
619.4998779296875
 20
692.3999938964844
 30
0.0
 10
627.9998779296875
 20
692.3999938964844
 30
0.0
 10
641.599853515625
 20
694.2999877929688
 30
0.0
 10
688.89990234375
 20
679.7999877929688
 30
0.0
 10
712.1998901367188
 20
678.5
 30
0.0
 10
722.39990234375
 20
678.0
 30
0.0
 10
749.0999145507812
 20
672.6000061035156
 30
0.0
 10
756.4998779296875
 20
668.8999938964844
 30
0.0
 10
763.7999877929688
 20
665.1999969482422
 30
0.0
 10
772.4000244140625
 20
656.6000061035156
 30
0.0
 10
771.5999755859375
 20
648.6000061035156
 30
0.0
  0
ENDBLK
  5
50
330
4D
100
AcDbEntity
  8
0
100
AcDbBlockEnd
  0
BLOCK
  5
58
330
56
100
AcDbEntity
  8
0
100
AcDbBlockBegin
  2
block 4
 70
     0
 10
0.0
 20
0.0
 30
0.0
  3
block 4
  1

  0
SPLINE
  5
5A
330
56
100
AcDbEntity
  8
Animal Clips
 62
     7
420
 16777215
370
    35
100
AcDbSpline
210
0.0
220
0.0
230
1.0
 70
    11
 71
     3
 72
    59
 73
    55
 74
     0
 42
0.0000000001
 43
0.0000000001
 12
1.0
 22
0.0
 32
0.0
 13
1.0
 23
0.0
 33
0.0
 40
0.0
 40
0.0
 40
0.0
 40
0.0
 40
1.0
 40
1.0
 40
1.0
 40
2.0
 40
2.0
 40
2.0
 40
3.0
 40
3.0
 40
3.0
 40
4.0
 40
4.0
 40
4.0
 40
5.0
 40
5.0
 40
5.0
 40
6.0
 40
6.0
 40
6.0
 40
7.0
 40
7.0
 40
7.0
 40
8.0
 40
8.0
 40
8.0
 40
9.0
 40
9.0
 40
9.0
 40
10.0
 40
10.0
 40
10.0
 40
11.0
 40
11.0
 40
11.0
 40
12.0
 40
12.0
 40
12.0
 40
13.0
 40
13.0
 40
13.0
 40
14.0
 40
14.0
 40
14.0
 40
15.0
 40
15.0
 40
15.0
 40
16.0
 40
16.0
 40
16.0
 40
17.0
 40
17.0
 40
17.0
 40
18.0
 40
18.0
 40
18.0
 40
18.0
 10
164.5
 20
436.6000061035156
 30
0.0
 10
164.5
 20
413.6000061035156
 30
0.0
 10
150.0
 20
395.0
 30
0.0
 10
132.1999969482422
 20
395.0
 30
0.0
 10
114.3999938964844
 20
395.0
 30
0.0
 10
99.89999389648438
 20
413.6000061035156
 30
0.0
 10
99.89999389648438
 20
436.6000061035156
 30
0.0
 10
99.89999389648438
 20
449.5
 30
0.0
 10
104.4999923706055
 20
461.1000061035156
 30
0.0
 10
111.5999908447266
 20
468.7000122070312
 30
0.0
 10
108.0999908447266
 20
473.2000122070312
 30
0.0
 10
105.9999923706055
 20
478.8000183105469
 30
0.0
 10
105.9999923706055
 20
485.0
 30
0.0
 10
105.9999923706055
 20
490.8999938964844
 30
0.0
 10
107.8999938964844
 20
496.2999877929688
 30
0.0
 10
111.1999893188477
 20
500.7000122070312
 30
0.0
 10
110.4999923706055
 20
501.1000061035156
 30
0.0
 10
109.9999923706055
 20
501.6000061035156
 30
0.0
 10
109.3999862670898
 20
502.4000244140625
 30
0.0
 10
105.1999893188477
 20
509.3000183105469
 30
0.0
 10
111.9999847412109
 20
519.9000244140625
 30
0.0
 10
111.9999847412109
 20
519.9000244140625
 30
0.0
 10
111.9999847412109
 20
519.9000244140625
 30
0.0
 10
119.8999862670898
 20
519.9000244140625
 30
0.0
 10
124.1999816894531
 20
513.5000305175781
 30
0.0
 10
124.9999847412109
 20
512.3000183105469
 30
0.0
 10
125.4999847412109
 20
511.3000183105469
 30
0.0
 10
125.7999801635742
 20
510.5000305175781
 30
0.0
 10
127.8999786376953
 20
511.1000366210938
 30
0.0
 10
130.1999816894531
 20
511.3000183105469
 30
0.0
 10
132.4999847412109
 20
511.3000183105469
 30
0.0
 10
135.3999786376953
 20
511.3000183105469
 30
0.0
 10
138.2999877929688
 20
510.8000183105469
 30
0.0
 10
140.8999786376953
 20
509.9000244140625
 30
0.0
 10
141.1999816894531
 20
510.5000305175781
 30
0.0
 10
141.4999847412109
 20
511.1000366210938
 30
0.0
 10
141.9999847412109
 20
511.8000183105469
 30
0.0
 10
146.1999816894531
 20
518.2000122070312
 30
0.0
 10
154.1999816894531
 20
518.2000122070312
 30
0.0
 10
154.1999816894531
 20
518.2000122070312
 30
0.0
 10
154.1999816894531
 20
518.2000122070312
 30
0.0
 10
161.0999755859375
 20
507.6000061035156
 30
0.0
 10
156.7999877929688
 20
500.7000122070312
 30
0.0
 10
156.2999877929688
 20
499.8000183105469
 30
0.0
 10
155.5999908447266
 20
499.3000183105469
 30
0.0
 10
154.7999877929688
 20
499.0
 30
0.0
 10
157.3999938964844
 20
494.8999938964844
 30
0.0
 10
158.8999938964844
 20
490.0
 30
0.0
 10
158.8999938964844
 20
484.7999877929688
 30
0.0
 10
158.8999938964844
 20
478.5
 30
0.0
 10
156.6999969482422
 20
472.6999816894531
 30
0.0
 10
153.0
 20
468.1999816894531
 30
0.0
 10
160.1000061035156
 20
460.7999877929688
 30
0.0
 10
164.5
 20
449.3999938964844
 30
0.0
 10
164.5
 20
436.6000061035156
 30
0.0
  0
SPLINE
  5
5B
330
56
100
AcDbEntity
  8
Animal Clips
 62
     7
420
 16777215
370
    35
100
AcDbSpline
210
0.0
220
0.0
230
1.0
 70
     8
 71
     3
 72
    23
 73
    19
 74
     0
 42
0.0000000001
 43
0.0000000001
 12
1.0
 22
0.0
 32
0.0
 13
1.0
 23
0.0
 33
0.0
 40
0.0
 40
0.0
 40
0.0
 40
0.0
 40
1.0
 40
1.0
 40
1.0
 40
2.0
 40
2.0
 40
2.0
 40
3.0
 40
3.0
 40
3.0
 40
4.0
 40
4.0
 40
4.0
 40
5.0
 40
5.0
 40
5.0
 40
6.0
 40
6.0
 40
6.0
 40
6.0
 10
124.1999969482422
 20
455.2999877929688
 30
0.0
 10
113.5
 20
443.8999938964844
 30
0.0
 10
113.2999954223633
 20
428.5999755859375
 30
0.0
 10
120.6999969482422
 20
421.0999755859375
 30
0.0
 10
126.0
 20
415.7999877929688
 30
0.0
 10
136.3999938964844
 20
413.0999755859375
 30
0.0
 10
143.8000030517578
 20
418.1999816894531
 30
0.0
 10
151.1000061035156
 20
423.1999816894531
 30
0.0
 10
154.1999969482422
 20
434.7999877929688
 30
0.0
 10
149.1999969482422
 20
440.3999938964844
 30
0.0
 10
145.1999969482422
 20
444.7999877929688
 30
0.0
 10
135.8999938964844
 20
445.7999877929688
 30
0.0
 10
132.0999908447266
 20
441.0
 30
0.0
 10
129.6999969482422
 20
437.8999938964844
 30
0.0
 10
129.2999877929688
 20
432.2000122070312
 30
0.0
 10
132.6999969482422
 20
429.0
 30
0.0
 10
135.5
 20
426.3999938964844
 30
0.0
 10
139.3000030517578
 20
426.7000122070312
 30
0.0
 10
140.0
 20
426.7999877929688
 30
0.0
  0
HATCH
  5
5C
330
56
100
AcDbEntity
  8
Animal Clips
 62
     1
420
 16717591
100
AcDbHatch
 10
0.0
 20
0.0
 30
0.0
210
0.0
220
0.0
230
1.0
  2
SOLID
 70
     1
 71
     0
 91
        2
 92
        1
 93
        1
 72
     4
 94
        3
 73
     0
 74
     1
 95
       59
 96
       55
 40
0.0
 40
0.0
 40
0.0
 40
0.0
 40
1.0
 40
1.0
 40
1.0
 40
2.0
 40
2.0
 40
2.0
 40
3.0
 40
3.0
 40
3.0
 40
4.0
 40
4.0
 40
4.0
 40
5.0
 40
5.0
 40
5.0
 40
6.0
 40
6.0
 40
6.0
 40
7.0
 40
7.0
 40
7.0
 40
8.0
 40
8.0
 40
8.0
 40
9.0
 40
9.0
 40
9.0
 40
10.0
 40
10.0
 40
10.0
 40
11.0
 40
11.0
 40
11.0
 40
12.0
 40
12.0
 40
12.0
 40
13.0
 40
13.0
 40
13.0
 40
14.0
 40
14.0
 40
14.0
 40
15.0
 40
15.0
 40
15.0
 40
16.0
 40
16.0
 40
16.0
 40
17.0
 40
17.0
 40
17.0
 40
18.0
 40
18.0
 40
18.0
 40
18.0
 10
164.5
 20
436.6000061035156
 10
164.5
 20
413.6000061035156
 10
150.0
 20
395.0
 10
132.1999969482422
 20
395.0
 10
114.3999938964844
 20
395.0
 10
99.89999389648438
 20
413.6000061035156
 10
99.89999389648438
 20
436.6000061035156
 10
99.89999389648438
 20
449.5
 10
104.4999923706055
 20
461.1000061035156
 10
111.5999908447266
 20
468.7000122070312
 10
108.0999908447266
 20
473.2000122070312
 10
105.9999923706055
 20
478.8000183105469
 10
105.9999923706055
 20
485.0
 10
105.9999923706055
 20
490.8999938964844
 10
107.8999938964844
 20
496.2999877929688
 10
111.1999893188477
 20
500.7000122070312
 10
110.4999923706055
 20
501.1000061035156
 10
109.9999923706055
 20
501.6000061035156
 10
109.3999862670898
 20
502.4000244140625
 10
105.1999893188477
 20
509.3000183105469
 10
111.9999847412109
 20
519.9000244140625
 10
111.9999847412109
 20
519.9000244140625
 10
111.9999847412109
 20
519.9000244140625
 10
119.8999862670898
 20
519.9000244140625
 10
124.1999816894531
 20
513.5000305175781
 10
124.9999847412109
 20
512.3000183105469
 10
125.4999847412109
 20
511.3000183105469
 10
125.7999801635742
 20
510.5000305175781
 10
127.8999786376953
 20
511.1000366210938
 10
130.1999816894531
 20
511.3000183105469
 10
132.4999847412109
 20
511.3000183105469
 10
135.3999786376953
 20
511.3000183105469
 10
138.2999877929688
 20
510.8000183105469
 10
140.8999786376953
 20
509.9000244140625
 10
141.1999816894531
 20
510.5000305175781
 10
141.4999847412109
 20
511.1000366210938
 10
141.9999847412109
 20
511.8000183105469
 10
146.1999816894531
 20
518.2000122070312
 10
154.1999816894531
 20
518.2000122070312
 10
154.1999816894531
 20
518.2000122070312
 10
154.1999816894531
 20
518.2000122070312
 10
161.0999755859375
 20
507.6000061035156
 10
156.7999877929688
 20
500.7000122070312
 10
156.2999877929688
 20
499.8000183105469
 10
155.5999908447266
 20
499.3000183105469
 10
154.7999877929688
 20
499.0
 10
157.3999938964844
 20
494.8999938964844
 10
158.8999938964844
 20
490.0
 10
158.8999938964844
 20
484.7999877929688
 10
158.8999938964844
 20
478.5
 10
156.6999969482422
 20
472.6999816894531
 10
153.0
 20
468.1999816894531
 10
160.1000061035156
 20
460.7999877929688
 10
164.5
 20
449.3999938964844
 10
164.5
 20
436.6000061035156
 97
        0
 97
        0
 92
        1
 93
        2
 72
     4
 94
        3
 73
     0
 74
     0
 95
       23
 96
       19
 40
0.0
 40
0.0
 40
0.0
 40
0.0
 40
1.0
 40
1.0
 40
1.0
 40
2.0
 40
2.0
 40
2.0
 40
3.0
 40
3.0
 40
3.0
 40
4.0
 40
4.0
 40
4.0
 40
5.0
 40
5.0
 40
5.0
 40
6.0
 40
6.0
 40
6.0
 40
6.0
 10
124.1999969482422
 20
455.2999877929688
 10
113.5
 20
443.8999938964844
 10
113.2999954223633
 20
428.5999755859375
 10
120.6999969482422
 20
421.0999755859375
 10
126.0
 20
415.7999877929688
 10
136.3999938964844
 20
413.0999755859375
 10
143.8000030517578
 20
418.1999816894531
 10
151.1000061035156
 20
423.1999816894531
 10
154.1999969482422
 20
434.7999877929688
 10
149.1999969482422
 20
440.3999938964844
 10
145.1999969482422
 20
444.7999877929688
 10
135.8999938964844
 20
445.7999877929688
 10
132.0999908447266
 20
441.0
 10
129.6999969482422
 20
437.8999938964844
 10
129.2999877929688
 20
432.2000122070312
 10
132.6999969482422
 20
429.0
 10
135.5
 20
426.3999938964844
 10
139.3000030517578
 20
426.7000122070312
 10
140.0
 20
426.7999877929688
 97
        0
 72
     1
 10
140.0
 20
426.7999877929688
 11
124.1999969482422
 21
455.2999877929688
 97
        0
 75
     2
 76
     1
 98
        0
  0
SPLINE
  5
5D
330
56
100
AcDbEntity
  8
Animal Clips
 62
     7
420
 16777215
370
    35
100
AcDbSpline
210
0.0
220
0.0
230
1.0
 70
     8
 71
     3
 72
    23
 73
    19
 74
     0
 42
0.0000000001
 43
0.0000000001
 12
1.0
 22
0.0
 32
0.0
 13
1.0
 23
0.0
 33
0.0
 40
0.0
 40
0.0
 40
0.0
 40
0.0
 40
1.0
 40
1.0
 40
1.0
 40
2.0
 40
2.0
 40
2.0
 40
3.0
 40
3.0
 40
3.0
 40
4.0
 40
4.0
 40
4.0
 40
5.0
 40
5.0
 40
5.0
 40
6.0
 40
6.0
 40
6.0
 40
6.0
 10
128.8000030517578
 20
447.0
 30
0.0
 10
121.3000030517578
 20
439.1000061035156
 30
0.0
 10
121.2000045776367
 20
428.2999877929688
 30
0.0
 10
126.4000015258789
 20
423.1000061035156
 30
0.0
 10
130.1000061035156
 20
419.3999938964844
 30
0.0
 10
137.3999938964844
 20
417.5
 30
0.0
 10
142.6000061035156
 20
421.1000061035156
 30
0.0
 10
147.7000122070312
 20
424.6000061035156
 30
0.0
 10
149.9000091552734
 20
432.7000122070312
 30
0.0
 10
146.4000091552734
 20
436.6000061035156
 30
0.0
 10
143.6000061035156
 20
439.7000122070312
 30
0.0
 10
137.1000061035156
 20
440.3999938964844
 30
0.0
 10
134.4000091552734
 20
437.0
 30
0.0
 10
132.7000122070312
 20
434.8999938964844
 30
0.0
 10
132.5000152587891
 20
430.8999938964844
 30
0.0
 10
134.8000030517578
 20
428.6000061035156
 30
0.0
 10
136.6999969482422
 20
426.8000183105469
 30
0.0
 10
139.4000091552734
 20
427.0
 30
0.0
 10
139.9000091552734
 20
427.1000061035156
 30
0.0
  0
ENDBLK
  5
59
330
56
100
AcDbEntity
  8
0
100
AcDbBlockEnd
  0
BLOCK
  5
60
330
5E
100
AcDbEntity
  8
0
100
AcDbBlockBegin
  2
block 5
 70
     0
 10
0.0
 20
0.0
 30
0.0
  3
block 5
  1

  0
SPLINE
  5
62
330
5E
100
AcDbEntity
  8
Animal Clips
 62
     7
420
 16777215
370
    35
100
AcDbSpline
210
0.0
220
0.0
230
1.0
 70
    11
 71
     3
 72
    47
 73
    43
 74
     0
 42
0.0000000001
 43
0.0000000001
 12
1.0
 22
0.0
 32
0.0
 13
1.0
 23
0.0
 33
0.0
 40
0.0
 40
0.0
 40
0.0
 40
0.0
 40
1.0
 40
1.0
 40
1.0
 40
2.0
 40
2.0
 40
2.0
 40
3.0
 40
3.0
 40
3.0
 40
4.0
 40
4.0
 40
4.0
 40
5.0
 40
5.0
 40
5.0
 40
6.0
 40
6.0
 40
6.0
 40
7.0
 40
7.0
 40
7.0
 40
8.0
 40
8.0
 40
8.0
 40
9.0
 40
9.0
 40
9.0
 40
10.0
 40
10.0
 40
10.0
 40
11.0
 40
11.0
 40
11.0
 40
12.0
 40
12.0
 40
12.0
 40
13.0
 40
13.0
 40
13.0
 40
14.0
 40
14.0
 40
14.0
 40
14.0
 10
327.3999938964844
 20
421.0
 30
0.0
 10
327.3999938964844
 20
399.2999877929688
 30
0.0
 10
313.6999816894531
 20
381.7000122070312
 30
0.0
 10
296.8999938964844
 20
381.7000122070312
 30
0.0
 10
280.1000061035156
 20
381.7000122070312
 30
0.0
 10
266.3999938964844
 20
399.3000183105469
 30
0.0
 10
266.3999938964844
 20
421.0
 30
0.0
 10
266.3999938964844
 20
433.2000122070312
 30
0.0
 10
276.1999816894531
 20
445.1000061035156
 30
0.0
 10
283.0
 20
452.2999877929688
 30
0.0
 10
279.7000122070312
 20
456.5
 30
0.0
 10
276.7000122070312
 20
460.8999938964844
 30
0.0
 10
276.7000122070312
 20
466.6999816894531
 30
0.0
 10
276.7000122070312
 20
472.2999877929688
 30
0.0
 10
281.7000122070312
 20
481.7999877929688
 30
0.0
 10
284.8000183105469
 20
485.9999694824219
 30
0.0
 10
285.7000122070312
 20
492.2999572753906
 30
0.0
 10
262.4000244140625
 20
507.9999694824219
 30
0.0
 10
259.7000122070312
 20
517.8999633789062
 30
0.0
 10
257.5
 20
528.5999755859375
 30
0.0
 10
265.1000061035156
 20
535.8999633789062
 30
0.0
 10
278.6000061035156
 20
528.199951171875
 30
0.0
 10
289.5
 20
522.0999450683594
 30
0.0
 10
297.5
 20
499.8999633789062
 30
0.0
 10
298.8000183105469
 20
499.8999633789062
 30
0.0
 10
300.5000305175781
 20
499.8999633789062
 30
0.0
 10
309.4000244140625
 20
523.199951171875
 30
0.0
 10
319.0000305175781
 20
531.2999572753906
 30
0.0
 10
331.1000366210938
 20
541.5999450683594
 30
0.0
 10
338.3000183105469
 20
527.699951171875
 30
0.0
 10
336.1000366210938
 20
518.2999572753906
 30
0.0
 10
333.9000244140625
 20
508.8999633789062
 30
0.0
 10
313.7000427246094
 20
494.9999694824219
 30
0.0
 10
315.0000305175781
 20
485.4999694824219
 30
0.0
 10
317.5000305175781
 20
481.5999755859375
 30
0.0
 10
322.3000183105469
 20
471.5999755859375
 30
0.0
 10
322.3000183105469
 20
466.5999755859375
 30
0.0
 10
322.3000183105469
 20
460.6999816894531
 30
0.0
 10
320.4000244140625
 20
456.0999755859375
 30
0.0
 10
317.0000305175781
 20
451.7999877929688
 30
0.0
 10
323.5
 20
444.7000122070312
 30
0.0
 10
327.3999938964844
 20
433.1000061035156
 30
0.0
 10
327.3999938964844
 20
421.0
 30
0.0
  0
SPLINE
  5
63
330
5E
100
AcDbEntity
  8
Animal Clips
 62
     7
420
 16777215
370
    35
100
AcDbSpline
210
0.0
220
0.0
230
1.0
 70
     8
 71
     3
 72
    14
 73
    10
 74
     0
 42
0.0000000001
 43
0.0000000001
 12
1.0
 22
0.0
 32
0.0
 13
1.0
 23
0.0
 33
0.0
 40
0.0
 40
0.0
 40
0.0
 40
0.0
 40
1.0
 40
1.0
 40
1.0
 40
2.0
 40
2.0
 40
2.0
 40
3.0
 40
3.0
 40
3.0
 40
3.0
 10
288.7999877929688
 20
437.1000061035156
 30
0.0
 10
278.6999816894531
 20
426.3999938964844
 30
0.0
 10
279.5
 20
414.1000061035156
 30
0.0
 10
286.5999755859375
 20
407.0
 30
0.0
 10
291.5999755859375
 20
402.0
 30
0.0
 10
302.4999694824219
 20
401.2000122070312
 30
0.0
 10
309.4999694824219
 20
406.1000061035156
 30
0.0
 10
316.2999572753906
 20
410.8000183105469
 30
0.0
 10
320.2999572753906
 20
426.3000183105469
 30
0.0
 10
308.5999755859375
 20
436.6000061035156
 30
0.0
  0
HATCH
  5
64
330
5E
100
AcDbEntity
  8
Animal Clips
 62
     1
420
 16717591
100
AcDbHatch
 10
0.0
 20
0.0
 30
0.0
210
0.0
220
0.0
230
1.0
  2
SOLID
 70
     1
 71
     0
 91
        2
 92
        1
 93
        1
 72
     4
 94
        3
 73
     0
 74
     1
 95
       47
 96
       43
 40
0.0
 40
0.0
 40
0.0
 40
0.0
 40
1.0
 40
1.0
 40
1.0
 40
2.0
 40
2.0
 40
2.0
 40
3.0
 40
3.0
 40
3.0
 40
4.0
 40
4.0
 40
4.0
 40
5.0
 40
5.0
 40
5.0
 40
6.0
 40
6.0
 40
6.0
 40
7.0
 40
7.0
 40
7.0
 40
8.0
 40
8.0
 40
8.0
 40
9.0
 40
9.0
 40
9.0
 40
10.0
 40
10.0
 40
10.0
 40
11.0
 40
11.0
 40
11.0
 40
12.0
 40
12.0
 40
12.0
 40
13.0
 40
13.0
 40
13.0
 40
14.0
 40
14.0
 40
14.0
 40
14.0
 10
327.3999938964844
 20
421.0
 10
327.3999938964844
 20
399.2999877929688
 10
313.6999816894531
 20
381.7000122070312
 10
296.8999938964844
 20
381.7000122070312
 10
280.1000061035156
 20
381.7000122070312
 10
266.3999938964844
 20
399.3000183105469
 10
266.3999938964844
 20
421.0
 10
266.3999938964844
 20
433.2000122070312
 10
276.1999816894531
 20
445.1000061035156
 10
283.0
 20
452.2999877929688
 10
279.7000122070312
 20
456.5
 10
276.7000122070312
 20
460.8999938964844
 10
276.7000122070312
 20
466.6999816894531
 10
276.7000122070312
 20
472.2999877929688
 10
281.7000122070312
 20
481.7999877929688
 10
284.8000183105469
 20
485.9999694824219
 10
285.7000122070312
 20
492.2999572753906
 10
262.4000244140625
 20
507.9999694824219
 10
259.7000122070312
 20
517.8999633789062
 10
257.5
 20
528.5999755859375
 10
265.1000061035156
 20
535.8999633789062
 10
278.6000061035156
 20
528.199951171875
 10
289.5
 20
522.0999450683594
 10
297.5
 20
499.8999633789062
 10
298.8000183105469
 20
499.8999633789062
 10
300.5000305175781
 20
499.8999633789062
 10
309.4000244140625
 20
523.199951171875
 10
319.0000305175781
 20
531.2999572753906
 10
331.1000366210938
 20
541.5999450683594
 10
338.3000183105469
 20
527.699951171875
 10
336.1000366210938
 20
518.2999572753906
 10
333.9000244140625
 20
508.8999633789062
 10
313.7000427246094
 20
494.9999694824219
 10
315.0000305175781
 20
485.4999694824219
 10
317.5000305175781
 20
481.5999755859375
 10
322.3000183105469
 20
471.5999755859375
 10
322.3000183105469
 20
466.5999755859375
 10
322.3000183105469
 20
460.6999816894531
 10
320.4000244140625
 20
456.0999755859375
 10
317.0000305175781
 20
451.7999877929688
 10
323.5
 20
444.7000122070312
 10
327.3999938964844
 20
433.1000061035156
 10
327.3999938964844
 20
421.0
 97
        0
 97
        0
 92
        1
 93
        2
 72
     4
 94
        3
 73
     0
 74
     0
 95
       14
 96
       10
 40
0.0
 40
0.0
 40
0.0
 40
0.0
 40
1.0
 40
1.0
 40
1.0
 40
2.0
 40
2.0
 40
2.0
 40
3.0
 40
3.0
 40
3.0
 40
3.0
 10
288.7999877929688
 20
437.1000061035156
 10
278.6999816894531
 20
426.3999938964844
 10
279.5
 20
414.1000061035156
 10
286.5999755859375
 20
407.0
 10
291.5999755859375
 20
402.0
 10
302.4999694824219
 20
401.2000122070312
 10
309.4999694824219
 20
406.1000061035156
 10
316.2999572753906
 20
410.8000183105469
 10
320.2999572753906
 20
426.3000183105469
 10
308.5999755859375
 20
436.6000061035156
 97
        0
 72
     1
 10
308.5999755859375
 20
436.6000061035156
 11
288.7999877929688
 21
437.1000061035156
 97
        0
 75
     2
 76
     1
 98
        0
  0
SPLINE
  5
65
330
5E
100
AcDbEntity
  8
Animal Clips
 62
     7
420
 16777215
370
    35
100
AcDbSpline
210
0.0
220
0.0
230
1.0
 70
    11
 71
     3
 72
    17
 73
    13
 74
     0
 42
0.0000000001
 43
0.0000000001
 12
1.0
 22
0.0
 32
0.0
 13
1.0
 23
0.0
 33
0.0
 40
0.0
 40
0.0
 40
0.0
 40
0.0
 40
1.0
 40
1.0
 40
1.0
 40
2.0
 40
2.0
 40
2.0
 40
3.0
 40
3.0
 40
3.0
 40
4.0
 40
4.0
 40
4.0
 40
4.0
 10
299.2000122070312
 20
422.5
 30
0.0
 10
302.2375793457031
 20
422.5
 30
0.0
 10
304.7000122070312
 20
420.0375671386719
 30
0.0
 10
304.7000122070312
 20
417.0
 30
0.0
 10
304.7000122070312
 20
413.9624328613281
 30
0.0
 10
302.2375793457031
 20
411.5
 30
0.0
 10
299.2000122070312
 20
411.5
 30
0.0
 10
296.1624450683594
 20
411.5
 30
0.0
 10
293.7000122070312
 20
413.9624328613281
 30
0.0
 10
293.7000122070312
 20
417.0
 30
0.0
 10
293.7000122070312
 20
420.0375671386719
 30
0.0
 10
296.1624450683594
 20
422.5
 30
0.0
 10
299.2000122070312
 20
422.5
 30
0.0
  0
ENDBLK
  5
61
330
5E
100
AcDbEntity
  8
0
100
AcDbBlockEnd
  0
BLOCK
  5
68
330
66
100
AcDbEntity
  8
0
100
AcDbBlockBegin
  2
block 6
 70
     0
 10
0.0
 20
0.0
 30
0.0
  3
block 6
  1

  0
SPLINE
  5
6A
330
66
100
AcDbEntity
  8
Animal Clips
 62
     7
420
 16777215
370
    35
100
AcDbSpline
210
0.0
220
0.0
230
1.0
 70
    11
 71
     3
 72
    71
 73
    67
 74
     0
 42
0.0000000001
 43
0.0000000001
 12
1.0
 22
0.0
 32
0.0
 13
1.0
 23
0.0
 33
0.0
 40
0.0
 40
0.0
 40
0.0
 40
0.0
 40
1.0
 40
1.0
 40
1.0
 40
2.0
 40
2.0
 40
2.0
 40
3.0
 40
3.0
 40
3.0
 40
4.0
 40
4.0
 40
4.0
 40
5.0
 40
5.0
 40
5.0
 40
6.0
 40
6.0
 40
6.0
 40
7.0
 40
7.0
 40
7.0
 40
8.0
 40
8.0
 40
8.0
 40
9.0
 40
9.0
 40
9.0
 40
10.0
 40
10.0
 40
10.0
 40
11.0
 40
11.0
 40
11.0
 40
12.0
 40
12.0
 40
12.0
 40
13.0
 40
13.0
 40
13.0
 40
14.0
 40
14.0
 40
14.0
 40
15.0
 40
15.0
 40
15.0
 40
16.0
 40
16.0
 40
16.0
 40
17.0
 40
17.0
 40
17.0
 40
18.0
 40
18.0
 40
18.0
 40
19.0
 40
19.0
 40
19.0
 40
20.0
 40
20.0
 40
20.0
 40
21.0
 40
21.0
 40
21.0
 40
22.0
 40
22.0
 40
22.0
 40
22.0
 10
516.4000244140625
 20
600.2000122070312
 30
0.0
 10
512.0
 20
596.6000061035156
 30
0.0
 10
498.2000122070312
 20
577.5
 30
0.0
 10
451.1000366210938
 20
580.6000061035156
 30
0.0
 10
380.9000244140625
 20
578.3999938964844
 30
0.0
 10
392.9000244140625
 20
619.3000030517578
 30
0.0
 10
387.1000366210938
 20
621.0
 30
0.0
 10
371.4000244140625
 20
622.1999969482422
 30
0.0
 10
363.300048828125
 20
648.6999969482422
 30
0.0
 10
381.9000244140625
 20
658.8000030517578
 30
0.0
 10
380.6000366210938
 20
662.4000091552734
 30
0.0
 10
376.0000305175781
 20
674.5
 30
0.0
 10
374.4000244140625
 20
678.9000091552734
 30
0.0
 10
372.3000183105469
 20
679.2000122070312
 30
0.0
 10
370.7000122070312
 20
681.0000152587891
 30
0.0
 10
370.7000122070312
 20
683.2000122070312
 30
0.0
 10
370.7000122070312
 20
685.6000061035156
 30
0.0
 10
372.6000061035156
 20
687.5000152587891
 30
0.0
 10
375.0
 20
687.5000152587891
 30
0.0
 10
377.3999938964844
 20
687.5000152587891
 30
0.0
 10
379.2999877929688
 20
685.6000213623047
 30
0.0
 10
379.2999877929688
 20
683.2000122070312
 30
0.0
 10
379.2999877929688
 20
682.2000122070312
 30
0.0
 10
378.8999938964844
 20
681.2000122070312
 30
0.0
 10
378.3999938964844
 20
680.5000152587891
 30
0.0
 10
378.3999938964844
 20
680.5000152587891
 30
0.0
 10
385.2999877929688
 20
660.3000183105469
 30
0.0
 10
385.2999877929688
 20
660.3000183105469
 30
0.0
 10
386.8999938964844
 20
660.9000244140625
 30
0.0
 10
388.6999816894531
 20
661.4000244140625
 30
0.0
 10
390.6999816894531
 20
661.8000183105469
 30
0.0
 10
391.1999816894531
 20
661.9000244140625
 30
0.0
 10
391.5999755859375
 20
662.0000152587891
 30
0.0
 10
391.9999694824219
 20
662.0000152587891
 30
0.0
 10
391.9999694824219
 20
662.0000152587891
 30
0.0
 10
393.1999816894531
 20
681.4000091552734
 30
0.0
 10
393.1999816894531
 20
681.4000091552734
 30
0.0
 10
392.1999816894531
 20
682.2000122070312
 30
0.0
 10
391.5999755859375
 20
683.3000030517578
 30
0.0
 10
391.5999755859375
 20
684.7000122070312
 30
0.0
 10
391.5999755859375
 20
687.0000152587891
 30
0.0
 10
393.3999633789062
 20
688.8000183105469
 30
0.0
 10
395.6999816894531
 20
688.8000183105469
 30
0.0
 10
397.9999694824219
 20
688.8000183105469
 30
0.0
 10
399.7999877929688
 20
687.0000152587891
 30
0.0
 10
399.7999877929688
 20
684.7000122070312
 30
0.0
 10
399.7999877929688
 20
682.9000091552734
 30
0.0
 10
398.6999816894531
 20
681.4000091552734
 30
0.0
 10
397.0999755859375
 20
680.9000091552734
 30
0.0
 10
397.0999755859375
 20
680.9000091552734
 30
0.0
 10
395.3999633789062
 20
662.4000091552734
 30
0.0
 10
395.3999633789062
 20
662.4000091552734
 30
0.0
 10
411.5999755859375
 20
662.6000061035156
 30
0.0
 10
415.9999694824219
 20
645.3000030517578
 30
0.0
 10
417.0999755859375
 20
633.7000122070312
 30
0.0
 10
418.0999755859375
 20
646.6000061035156
 30
0.0
 10
425.8999633789062
 20
672.0000152587891
 30
0.0
 10
459.2999877929688
 20
672.6000061035156
 30
0.0
 10
524.2999877929688
 20
673.5
 30
0.0
 10
507.1999816894531
 20
611.2000122070312
 30
0.0
 10
507.1999816894531
 20
611.2000122070312
 30
0.0
 10
507.1999816894531
 20
611.2000122070312
 30
0.0
 10
520.5
 20
613.9000091552734
 30
0.0
 10
521.3999633789062
 20
610.8000183105469
 30
0.0
 10
522.0999755859375
 20
607.7000122070312
 30
0.0
 10
520.7999877929688
 20
603.7000122070312
 30
0.0
 10
516.4000244140625
 20
600.2000122070312
 30
0.0
  0
SPLINE
  5
6B
330
66
100
AcDbEntity
  8
Animal Clips
 62
     7
420
 16777215
370
    35
100
AcDbSpline
210
0.0
220
0.0
230
1.0
 70
     8
 71
     3
 72
    26
 73
    22
 74
     0
 42
0.0000000001
 43
0.0000000001
 12
1.0
 22
0.0
 32
0.0
 13
1.0
 23
0.0
 33
0.0
 40
0.0
 40
0.0
 40
0.0
 40
0.0
 40
1.0
 40
1.0
 40
1.0
 40
2.0
 40
2.0
 40
2.0
 40
3.0
 40
3.0
 40
3.0
 40
4.0
 40
4.0
 40
4.0
 40
5.0
 40
5.0
 40
5.0
 40
6.0
 40
6.0
 40
6.0
 40
7.0
 40
7.0
 40
7.0
 40
7.0
 10
454.1000061035156
 20
627.6000061035156
 30
0.0
 10
453.7000122070312
 20
623.8000030517578
 30
0.0
 10
455.6000061035156
 20
620.5
 30
0.0
 10
458.3999938964844
 20
619.6000061035156
 30
0.0
 10
461.8999938964844
 20
618.4000091552734
 30
0.0
 10
465.5
 20
621.5
 30
0.0
 10
466.6999816894531
 20
624.3000030517578
 30
0.0
 10
468.8999938964844
 20
629.3000030517578
 30
0.0
 10
464.2999877929688
 20
636.5
 30
0.0
 10
458.6999816894531
 20
639.3000030517578
 30
0.0
 10
451.8999938964844
 20
642.6999969482422
 30
0.0
 10
442.9999694824219
 20
639.6000061035156
 30
0.0
 10
438.6999816894531
 20
634.3000030517578
 30
0.0
 10
431.8999938964844
 20
625.6999969482422
 30
0.0
 10
436.4999694824219
 20
610.6000061035156
 30
0.0
 10
444.9999694824219
 20
603.6000061035156
 30
0.0
 10
457.5999755859375
 20
593.3000183105469
 30
0.0
 10
481.3999633789062
 20
599.1000061035156
 30
0.0
 10
488.2999572753906
 20
612.9000091552734
 30
0.0
 10
495.0999450683594
 20
626.4000091552734
 30
0.0
 10
498.9999694824219
 20
646.6000061035156
 30
0.0
 10
464.2999572753906
 20
657.2000122070312
 30
0.0
  0
SPLINE
  5
6C
330
66
100
AcDbEntity
  8
Animal Clips
 62
     7
420
 16777215
370
    35
100
AcDbSpline
210
0.0
220
0.0
230
1.0
 70
    11
 71
     3
 72
    17
 73
    13
 74
     0
 42
0.0000000001
 43
0.0000000001
 12
1.0
 22
0.0
 32
0.0
 13
1.0
 23
0.0
 33
0.0
 40
0.0
 40
0.0
 40
0.0
 40
0.0
 40
1.0
 40
1.0
 40
1.0
 40
2.0
 40
2.0
 40
2.0
 40
3.0
 40
3.0
 40
3.0
 40
4.0
 40
4.0
 40
4.0
 40
4.0
 10
388.5
 20
648.6000061035156
 30
0.0
 10
387.2000122070312
 20
648.6000061035156
 30
0.0
 10
386.2000122070312
 20
647.6000061035156
 30
0.0
 10
386.2000122070312
 20
646.3000030517578
 30
0.0
 10
386.2000122070312
 20
645.0
 30
0.0
 10
387.2000122070312
 20
644.0
 30
0.0
 10
388.5
 20
644.0
 30
0.0
 10
389.7999877929688
 20
644.0
 30
0.0
 10
390.7999877929688
 20
645.0
 30
0.0
 10
390.7999877929688
 20
646.3000030517578
 30
0.0
 10
390.7999877929688
 20
647.6000061035156
 30
0.0
 10
389.7000122070312
 20
648.6000061035156
 30
0.0
 10
388.5
 20
648.6000061035156
 30
0.0
  0
HATCH
  5
6D
330
66
100
AcDbEntity
  8
Animal Clips
 62
     1
420
 16717591
100
AcDbHatch
 10
0.0
 20
0.0
 30
0.0
210
0.0
220
0.0
230
1.0
  2
SOLID
 70
     1
 71
     0
 91
        3
 92
        1
 93
        1
 72
     4
 94
        3
 73
     0
 74
     1
 95
       71
 96
       67
 40
0.0
 40
0.0
 40
0.0
 40
0.0
 40
1.0
 40
1.0
 40
1.0
 40
2.0
 40
2.0
 40
2.0
 40
3.0
 40
3.0
 40
3.0
 40
4.0
 40
4.0
 40
4.0
 40
5.0
 40
5.0
 40
5.0
 40
6.0
 40
6.0
 40
6.0
 40
7.0
 40
7.0
 40
7.0
 40
8.0
 40
8.0
 40
8.0
 40
9.0
 40
9.0
 40
9.0
 40
10.0
 40
10.0
 40
10.0
 40
11.0
 40
11.0
 40
11.0
 40
12.0
 40
12.0
 40
12.0
 40
13.0
 40
13.0
 40
13.0
 40
14.0
 40
14.0
 40
14.0
 40
15.0
 40
15.0
 40
15.0
 40
16.0
 40
16.0
 40
16.0
 40
17.0
 40
17.0
 40
17.0
 40
18.0
 40
18.0
 40
18.0
 40
19.0
 40
19.0
 40
19.0
 40
20.0
 40
20.0
 40
20.0
 40
21.0
 40
21.0
 40
21.0
 40
22.0
 40
22.0
 40
22.0
 40
22.0
 10
516.4000244140625
 20
600.2000122070312
 10
512.0
 20
596.6000061035156
 10
498.2000122070312
 20
577.5
 10
451.1000366210938
 20
580.6000061035156
 10
380.9000244140625
 20
578.3999938964844
 10
392.9000244140625
 20
619.3000030517578
 10
387.1000366210938
 20
621.0
 10
371.4000244140625
 20
622.1999969482422
 10
363.300048828125
 20
648.6999969482422
 10
381.9000244140625
 20
658.8000030517578
 10
380.6000366210938
 20
662.4000091552734
 10
376.0000305175781
 20
674.5
 10
374.4000244140625
 20
678.9000091552734
 10
372.3000183105469
 20
679.2000122070312
 10
370.7000122070312
 20
681.0000152587891
 10
370.7000122070312
 20
683.2000122070312
 10
370.7000122070312
 20
685.6000061035156
 10
372.6000061035156
 20
687.5000152587891
 10
375.0
 20
687.5000152587891
 10
377.3999938964844
 20
687.5000152587891
 10
379.2999877929688
 20
685.6000213623047
 10
379.2999877929688
 20
683.2000122070312
 10
379.2999877929688
 20
682.2000122070312
 10
378.8999938964844
 20
681.2000122070312
 10
378.3999938964844
 20
680.5000152587891
 10
378.3999938964844
 20
680.5000152587891
 10
385.2999877929688
 20
660.3000183105469
 10
385.2999877929688
 20
660.3000183105469
 10
386.8999938964844
 20
660.9000244140625
 10
388.6999816894531
 20
661.4000244140625
 10
390.6999816894531
 20
661.8000183105469
 10
391.1999816894531
 20
661.9000244140625
 10
391.5999755859375
 20
662.0000152587891
 10
391.9999694824219
 20
662.0000152587891
 10
391.9999694824219
 20
662.0000152587891
 10
393.1999816894531
 20
681.4000091552734
 10
393.1999816894531
 20
681.4000091552734
 10
392.1999816894531
 20
682.2000122070312
 10
391.5999755859375
 20
683.3000030517578
 10
391.5999755859375
 20
684.7000122070312
 10
391.5999755859375
 20
687.0000152587891
 10
393.3999633789062
 20
688.8000183105469
 10
395.6999816894531
 20
688.8000183105469
 10
397.9999694824219
 20
688.8000183105469
 10
399.7999877929688
 20
687.0000152587891
 10
399.7999877929688
 20
684.7000122070312
 10
399.7999877929688
 20
682.9000091552734
 10
398.6999816894531
 20
681.4000091552734
 10
397.0999755859375
 20
680.9000091552734
 10
397.0999755859375
 20
680.9000091552734
 10
395.3999633789062
 20
662.4000091552734
 10
395.3999633789062
 20
662.4000091552734
 10
411.5999755859375
 20
662.6000061035156
 10
415.9999694824219
 20
645.3000030517578
 10
417.0999755859375
 20
633.7000122070312
 10
418.0999755859375
 20
646.6000061035156
 10
425.8999633789062
 20
672.0000152587891
 10
459.2999877929688
 20
672.6000061035156
 10
524.2999877929688
 20
673.5
 10
507.1999816894531
 20
611.2000122070312
 10
507.1999816894531
 20
611.2000122070312
 10
507.1999816894531
 20
611.2000122070312
 10
520.5
 20
613.9000091552734
 10
521.3999633789062
 20
610.8000183105469
 10
522.0999755859375
 20
607.7000122070312
 10
520.7999877929688
 20
603.7000122070312
 10
516.4000244140625
 20
600.2000122070312
 97
        0
 97
        0
 92
        1
 93
        1
 72
     4
 94
        3
 73
     0
 74
     1
 95
       17
 96
       13
 40
0.0
 40
0.0
 40
0.0
 40
0.0
 40
1.0
 40
1.0
 40
1.0
 40
2.0
 40
2.0
 40
2.0
 40
3.0
 40
3.0
 40
3.0
 40
4.0
 40
4.0
 40
4.0
 40
4.0
 10
388.5
 20
648.6000061035156
 10
387.2000122070312
 20
648.6000061035156
 10
386.2000122070312
 20
647.6000061035156
 10
386.2000122070312
 20
646.3000030517578
 10
386.2000122070312
 20
645.0
 10
387.2000122070312
 20
644.0
 10
388.5
 20
644.0
 10
389.7999877929688
 20
644.0
 10
390.7999877929688
 20
645.0
 10
390.7999877929688
 20
646.3000030517578
 10
390.7999877929688
 20
647.6000061035156
 10
389.7000122070312
 20
648.6000061035156
 10
388.5
 20
648.6000061035156
 97
        0
 97
        0
 92
        1
 93
        2
 72
     4
 94
        3
 73
     0
 74
     0
 95
       26
 96
       22
 40
0.0
 40
0.0
 40
0.0
 40
0.0
 40
1.0
 40
1.0
 40
1.0
 40
2.0
 40
2.0
 40
2.0
 40
3.0
 40
3.0
 40
3.0
 40
4.0
 40
4.0
 40
4.0
 40
5.0
 40
5.0
 40
5.0
 40
6.0
 40
6.0
 40
6.0
 40
7.0
 40
7.0
 40
7.0
 40
7.0
 10
454.1000061035156
 20
627.6000061035156
 10
453.7000122070312
 20
623.8000030517578
 10
455.6000061035156
 20
620.5
 10
458.3999938964844
 20
619.6000061035156
 10
461.8999938964844
 20
618.4000091552734
 10
465.5
 20
621.5
 10
466.6999816894531
 20
624.3000030517578
 10
468.8999938964844
 20
629.3000030517578
 10
464.2999877929688
 20
636.5
 10
458.6999816894531
 20
639.3000030517578
 10
451.8999938964844
 20
642.6999969482422
 10
442.9999694824219
 20
639.6000061035156
 10
438.6999816894531
 20
634.3000030517578
 10
431.8999938964844
 20
625.6999969482422
 10
436.4999694824219
 20
610.6000061035156
 10
444.9999694824219
 20
603.6000061035156
 10
457.5999755859375
 20
593.3000183105469
 10
481.3999633789062
 20
599.1000061035156
 10
488.2999572753906
 20
612.9000091552734
 10
495.0999450683594
 20
626.4000091552734
 10
498.9999694824219
 20
646.6000061035156
 10
464.2999572753906
 20
657.2000122070312
 97
        0
 72
     1
 10
464.2999572753906
 20
657.2000122070312
 11
454.1000061035156
 21
627.6000061035156
 97
        0
 75
     2
 76
     1
 98
        0
  0
SPLINE
  5
6E
330
66
100
AcDbEntity
  8
Animal Clips
 62
     7
420
 16777215
370
    35
100
AcDbSpline
210
0.0
220
0.0
230
1.0
 70
     8
 71
     3
 72
    17
 73
    13
 74
     0
 42
0.0000000001
 43
0.0000000001
 12
1.0
 22
0.0
 32
0.0
 13
1.0
 23
0.0
 33
0.0
 40
0.0
 40
0.0
 40
0.0
 40
0.0
 40
1.0
 40
1.0
 40
1.0
 40
2.0
 40
2.0
 40
2.0
 40
3.0
 40
3.0
 40
3.0
 40
4.0
 40
4.0
 40
4.0
 40
4.0
 10
459.5
 20
649.1999969482422
 30
0.0
 10
496.2000122070312
 20
641.6999969482422
 30
0.0
 10
479.7999877929688
 20
613.8999938964844
 30
0.0
 10
471.6000061035156
 20
610.0
 30
0.0
 10
463.4000244140625
 20
606.1000061035156
 30
0.0
 10
445.2000122070312
 20
607.5
 30
0.0
 10
445.6000061035156
 20
621.8000030517578
 30
0.0
 10
446.1000061035156
 20
640.4000091552734
 30
0.0
 10
468.5
 20
633.6999969482422
 30
0.0
 10
463.3999938964844
 20
625.1999969482422
 30
0.0
 10
461.1999816894531
 20
621.5999908447266
 30
0.0
 10
456.6000061035156
 20
624.5
 30
0.0
 10
457.2999877929688
 20
628.5999908447266
 30
0.0
  0
ENDBLK
  5
69
330
66
100
AcDbEntity
  8
0
100
AcDbBlockEnd
  0
BLOCK
  5
71
330
6F
100
AcDbEntity
  8
0
100
AcDbBlockBegin
  2
block 7
 70
     0
 10
0.0
 20
0.0
 30
0.0
  3
block 7
  1

  0
SPLINE
  5
73
330
6F
100
AcDbEntity
  8
Animal Clips
 62
     7
420
 16777215
370
    35
100
AcDbSpline
210
0.0
220
0.0
230
1.0
 70
    11
 71
     3
 72
    29
 73
    25
 74
     0
 42
0.0000000001
 43
0.0000000001
 12
1.0
 22
0.0
 32
0.0
 13
1.0
 23
0.0
 33
0.0
 40
0.0
 40
0.0
 40
0.0
 40
0.0
 40
1.0
 40
1.0
 40
1.0
 40
2.0
 40
2.0
 40
2.0
 40
3.0
 40
3.0
 40
3.0
 40
4.0
 40
4.0
 40
4.0
 40
5.0
 40
5.0
 40
5.0
 40
6.0
 40
6.0
 40
6.0
 40
7.0
 40
7.0
 40
7.0
 40
8.0
 40
8.0
 40
8.0
 40
8.0
 10
374.2000122070312
 20
806.2000007629395
 30
0.0
 10
374.2000122070312
 20
806.2000007629395
 30
0.0
 10
381.3000183105469
 20
805.4000015258789
 30
0.0
 10
389.0
 20
809.7999992370605
 30
0.0
 10
396.7000122070312
 20
814.2000007629395
 30
0.0
 10
405.5
 20
824.0999984741211
 30
0.0
 10
418.8999938964844
 20
820.1999969482422
 30
0.0
 10
432.3999938964844
 20
816.3999977111816
 30
0.0
 10
435.1000061035156
 20
794.3999938964844
 30
0.0
 10
439.7999877929688
 20
789.3999938964844
 30
0.0
 10
469.1999816894531
 20
750.3999938964844
 30
0.0
 10
517.7999877929688
 20
774.2999954223633
 30
0.0
 10
521.3999633789062
 20
775.8999938964844
 30
0.0
 10
524.9999389648438
 20
777.4999923706055
 30
0.0
 10
520.2999877929688
 20
769.5999908447266
 30
0.0
 10
512.5999755859375
 20
765.6999969482422
 30
0.0
 10
504.8999633789062
 20
761.8999938964844
 30
0.0
 10
493.4999694824219
 20
757.0
 30
0.0
 10
484.2999877929688
 20
748.8999938964844
 30
0.0
 10
404.0999755859375
 20
679.0999908447266
 30
0.0
 10
350.5
 20
739.2999954223633
 30
0.0
 10
384.2999877929688
 20
787.5999908447266
 30
0.0
 10
391.2000122070312
 20
797.5999984741211
 30
0.0
 10
374.2000122070312
 20
806.2000007629395
 30
0.0
 10
374.2000122070312
 20
806.2000007629395
 30
0.0
  0
SPLINE
  5
74
330
6F
100
AcDbEntity
  8
Animal Clips
 62
     7
420
 16777215
370
    35
100
AcDbSpline
210
0.0
220
0.0
230
1.0
 70
     8
 71
     3
 72
    20
 73
    16
 74
     0
 42
0.0000000001
 43
0.0000000001
 12
1.0
 22
0.0
 32
0.0
 13
1.0
 23
0.0
 33
0.0
 40
0.0
 40
0.0
 40
0.0
 40
0.0
 40
1.0
 40
1.0
 40
1.0
 40
2.0
 40
2.0
 40
2.0
 40
3.0
 40
3.0
 40
3.0
 40
4.0
 40
4.0
 40
4.0
 40
5.0
 40
5.0
 40
5.0
 40
5.0
 10
403.7999877929688
 20
772.3000030517578
 30
0.0
 10
403.7999877929688
 20
772.3000030517578
 30
0.0
 10
398.2999877929688
 20
752.8000030517578
 30
0.0
 10
402.6999816894531
 20
746.5
 30
0.0
 10
407.0999755859375
 20
740.1999969482422
 30
0.0
 10
415.2999877929688
 20
735.1999969482422
 30
0.0
 10
421.8999938964844
 20
734.1000061035156
 30
0.0
 10
441.1000061035156
 20
730.9000091552734
 30
0.0
 10
459.3999938964844
 20
749.3000030517578
 30
0.0
 10
455.1999816894531
 20
750.4000091552734
 30
0.0
 10
449.4999694824219
 20
752.0000076293945
 30
0.0
 10
445.8999938964844
 20
760.6000061035156
 30
0.0
 10
441.9999694824219
 20
770.4000091552734
 30
0.0
 10
438.1999816894531
 20
780.3000106811523
 30
0.0
 10
425.7999572753906
 20
777.5000076293945
 30
0.0
 10
425.7999572753906
 20
777.5000076293945
 30
0.0
  0
SPLINE
  5
75
330
6F
100
AcDbEntity
  8
Animal Clips
 62
     7
420
 16777215
370
    35
100
AcDbSpline
210
0.0
220
0.0
230
1.0
 70
    11
 71
     3
 72
    17
 73
    13
 74
     0
 42
0.0000000001
 43
0.0000000001
 12
1.0
 22
0.0
 32
0.0
 13
1.0
 23
0.0
 33
0.0
 40
0.0
 40
0.0
 40
0.0
 40
0.0
 40
1.0
 40
1.0
 40
1.0
 40
2.0
 40
2.0
 40
2.0
 40
3.0
 40
3.0
 40
3.0
 40
4.0
 40
4.0
 40
4.0
 40
4.0
 10
406.7000122070312
 20
804.4000015258789
 30
0.0
 10
405.1000061035156
 20
804.4000015258789
 30
0.0
 10
403.8000183105469
 20
803.1000022888184
 30
0.0
 10
403.8000183105469
 20
801.5
 30
0.0
 10
403.8000183105469
 20
799.9000015258789
 30
0.0
 10
405.1000061035156
 20
798.5999984741211
 30
0.0
 10
406.7000122070312
 20
798.5999984741211
 30
0.0
 10
408.3000183105469
 20
798.5999984741211
 30
0.0
 10
409.6000061035156
 20
799.9000015258789
 30
0.0
 10
409.6000061035156
 20
801.5
 30
0.0
 10
409.6000061035156
 20
803.0999984741211
 30
0.0
 10
408.2999877929688
 20
804.4000015258789
 30
0.0
 10
406.7000122070312
 20
804.4000015258789
 30
0.0
  0
HATCH
  5
76
330
6F
100
AcDbEntity
  8
Animal Clips
 62
     1
420
 16717591
100
AcDbHatch
 10
0.0
 20
0.0
 30
0.0
210
0.0
220
0.0
230
1.0
  2
SOLID
 70
     1
 71
     0
 91
        3
 92
        1
 93
        1
 72
     4
 94
        3
 73
     0
 74
     1
 95
       29
 96
       25
 40
0.0
 40
0.0
 40
0.0
 40
0.0
 40
1.0
 40
1.0
 40
1.0
 40
2.0
 40
2.0
 40
2.0
 40
3.0
 40
3.0
 40
3.0
 40
4.0
 40
4.0
 40
4.0
 40
5.0
 40
5.0
 40
5.0
 40
6.0
 40
6.0
 40
6.0
 40
7.0
 40
7.0
 40
7.0
 40
8.0
 40
8.0
 40
8.0
 40
8.0
 10
374.2000122070312
 20
806.2000007629395
 10
374.2000122070312
 20
806.2000007629395
 10
381.3000183105469
 20
805.4000015258789
 10
389.0
 20
809.7999992370605
 10
396.7000122070312
 20
814.2000007629395
 10
405.5
 20
824.0999984741211
 10
418.8999938964844
 20
820.1999969482422
 10
432.3999938964844
 20
816.3999977111816
 10
435.1000061035156
 20
794.3999938964844
 10
439.7999877929688
 20
789.3999938964844
 10
469.1999816894531
 20
750.3999938964844
 10
517.7999877929688
 20
774.2999954223633
 10
521.3999633789062
 20
775.8999938964844
 10
524.9999389648438
 20
777.4999923706055
 10
520.2999877929688
 20
769.5999908447266
 10
512.5999755859375
 20
765.6999969482422
 10
504.8999633789062
 20
761.8999938964844
 10
493.4999694824219
 20
757.0
 10
484.2999877929688
 20
748.8999938964844
 10
404.0999755859375
 20
679.0999908447266
 10
350.5
 20
739.2999954223633
 10
384.2999877929688
 20
787.5999908447266
 10
391.2000122070312
 20
797.5999984741211
 10
374.2000122070312
 20
806.2000007629395
 10
374.2000122070312
 20
806.2000007629395
 97
        0
 97
        0
 92
        1
 93
        1
 72
     4
 94
        3
 73
     0
 74
     1
 95
       17
 96
       13
 40
0.0
 40
0.0
 40
0.0
 40
0.0
 40
1.0
 40
1.0
 40
1.0
 40
2.0
 40
2.0
 40
2.0
 40
3.0
 40
3.0
 40
3.0
 40
4.0
 40
4.0
 40
4.0
 40
4.0
 10
406.7000122070312
 20
804.4000015258789
 10
405.1000061035156
 20
804.4000015258789
 10
403.8000183105469
 20
803.1000022888184
 10
403.8000183105469
 20
801.5
 10
403.8000183105469
 20
799.9000015258789
 10
405.1000061035156
 20
798.5999984741211
 10
406.7000122070312
 20
798.5999984741211
 10
408.3000183105469
 20
798.5999984741211
 10
409.6000061035156
 20
799.9000015258789
 10
409.6000061035156
 20
801.5
 10
409.6000061035156
 20
803.0999984741211
 10
408.2999877929688
 20
804.4000015258789
 10
406.7000122070312
 20
804.4000015258789
 97
        0
 97
        0
 92
        1
 93
        2
 72
     4
 94
        3
 73
     0
 74
     0
 95
       20
 96
       16
 40
0.0
 40
0.0
 40
0.0
 40
0.0
 40
1.0
 40
1.0
 40
1.0
 40
2.0
 40
2.0
 40
2.0
 40
3.0
 40
3.0
 40
3.0
 40
4.0
 40
4.0
 40
4.0
 40
5.0
 40
5.0
 40
5.0
 40
5.0
 10
403.7999877929688
 20
772.3000030517578
 10
403.7999877929688
 20
772.3000030517578
 10
398.2999877929688
 20
752.8000030517578
 10
402.6999816894531
 20
746.5
 10
407.0999755859375
 20
740.1999969482422
 10
415.2999877929688
 20
735.1999969482422
 10
421.8999938964844
 20
734.1000061035156
 10
441.1000061035156
 20
730.9000091552734
 10
459.3999938964844
 20
749.3000030517578
 10
455.1999816894531
 20
750.4000091552734
 10
449.4999694824219
 20
752.0000076293945
 10
445.8999938964844
 20
760.6000061035156
 10
441.9999694824219
 20
770.4000091552734
 10
438.1999816894531
 20
780.3000106811523
 10
425.7999572753906
 20
777.5000076293945
 10
425.7999572753906
 20
777.5000076293945
 97
        0
 72
     1
 10
425.7999572753906
 20
777.5000076293945
 11
403.7999877929688
 21
772.3000030517578
 97
        0
 75
     2
 76
     1
 98
        0
  0
SPLINE
  5
77
330
6F
100
AcDbEntity
  8
Animal Clips
 62
     7
420
 16777215
370
    35
100
AcDbSpline
210
0.0
220
0.0
230
1.0
 70
     8
 71
     3
 72
     8
 73
     4
 74
     0
 42
0.0000000001
 43
0.0000000001
 12
1.0
 22
0.0
 32
0.0
 13
1.0
 23
0.0
 33
0.0
 40
0.0
 40
0.0
 40
0.0
 40
0.0
 40
1.0
 40
1.0
 40
1.0
 40
1.0
 10
441.8999938964844
 20
744.0
 30
0.0
 10
428.7999877929688
 20
736.0999984741211
 30
0.0
 10
415.7999877929688
 20
744.3000030517578
 30
0.0
 10
410.3999938964844
 20
754.4000015258789
 30
0.0
  0
SPLINE
  5
78
330
6F
100
AcDbEntity
  8
Animal Clips
 62
     7
420
 16777215
370
    35
100
AcDbSpline
210
0.0
220
0.0
230
1.0
 70
     8
 71
     3
 72
    11
 73
     7
 74
     0
 42
0.0000000001
 43
0.0000000001
 12
1.0
 22
0.0
 32
0.0
 13
1.0
 23
0.0
 33
0.0
 40
0.0
 40
0.0
 40
0.0
 40
0.0
 40
1.0
 40
1.0
 40
1.0
 40
2.0
 40
2.0
 40
2.0
 40
2.0
 10
411.5
 20
764.5999984741211
 30
0.0
 10
416.8999938964844
 20
754.4000015258789
 30
0.0
 10
426.1000061035156
 20
748.0
 30
0.0
 10
435.3999938964844
 20
748.3000030517578
 30
0.0
 10
439.3999938964844
 20
748.4000015258789
 30
0.0
 10
442.7999877929688
 20
749.8000030517578
 30
0.0
 10
445.3999938964844
 20
751.3000030517578
 30
0.0
  0
SPLINE
  5
79
330
6F
100
AcDbEntity
  8
Animal Clips
 62
     7
420
 16777215
370
    35
100
AcDbSpline
210
0.0
220
0.0
230
1.0
 70
     8
 71
     3
 72
     8
 73
     4
 74
     0
 42
0.0000000001
 43
0.0000000001
 12
1.0
 22
0.0
 32
0.0
 13
1.0
 23
0.0
 33
0.0
 40
0.0
 40
0.0
 40
0.0
 40
0.0
 40
1.0
 40
1.0
 40
1.0
 40
1.0
 10
419.6000061035156
 20
768.0999984741211
 30
0.0
 10
426.3000183105469
 20
758.7999954223633
 30
0.0
 10
432.3999938964844
 20
755.9000015258789
 30
0.0
 10
441.7000122070312
 20
757.5
 30
0.0
  0
ENDBLK
  5
72
330
6F
100
AcDbEntity
  8
0
100
AcDbBlockEnd
  0
BLOCK
  5
7C
330
7A
100
AcDbEntity
  8
0
100
AcDbBlockBegin
  2
block 8
 70
     0
 10
0.0
 20
0.0
 30
0.0
  3
block 8
  1

  0
SPLINE
  5
7E
330
7A
100
AcDbEntity
  8
Animal Clips
 62
     7
420
 16777215
370
    35
100
AcDbSpline
210
0.0
220
0.0
230
1.0
 70
    11
 71
     3
 72
    62
 73
    58
 74
     0
 42
0.0000000001
 43
0.0000000001
 12
1.0
 22
0.0
 32
0.0
 13
1.0
 23
0.0
 33
0.0
 40
0.0
 40
0.0
 40
0.0
 40
0.0
 40
1.0
 40
1.0
 40
1.0
 40
2.0
 40
2.0
 40
2.0
 40
3.0
 40
3.0
 40
3.0
 40
4.0
 40
4.0
 40
4.0
 40
5.0
 40
5.0
 40
5.0
 40
6.0
 40
6.0
 40
6.0
 40
7.0
 40
7.0
 40
7.0
 40
8.0
 40
8.0
 40
8.0
 40
9.0
 40
9.0
 40
9.0
 40
10.0
 40
10.0
 40
10.0
 40
11.0
 40
11.0
 40
11.0
 40
12.0
 40
12.0
 40
12.0
 40
13.0
 40
13.0
 40
13.0
 40
14.0
 40
14.0
 40
14.0
 40
15.0
 40
15.0
 40
15.0
 40
16.0
 40
16.0
 40
16.0
 40
17.0
 40
17.0
 40
17.0
 40
18.0
 40
18.0
 40
18.0
 40
19.0
 40
19.0
 40
19.0
 40
19.0
 10
213.3000030517578
 20
639.3000030517578
 30
0.0
 10
209.1999969482422
 20
636.8000030517578
 30
0.0
 10
205.4000091552734
 20
626.1999969482422
 30
0.0
 10
197.6999969482422
 20
617.8000030517578
 30
0.0
 10
190.0
 20
609.3000030517578
 30
0.0
 10
177.0999908447266
 20
605.2999877929688
 30
0.0
 10
176.0
 20
604.1000061035156
 30
0.0
 10
174.8999938964844
 20
602.8999938964844
 30
0.0
 10
183.1000061035156
 20
588.1000061035156
 30
0.0
 10
179.1000061035156
 20
583.7000122070312
 30
0.0
 10
175.1000061035156
 20
579.3000183105469
 30
0.0
 10
158.5
 20
579.8000183105469
 30
0.0
 10
153.0
 20
581.5
 30
0.0
 10
147.5
 20
583.1999816894531
 30
0.0
 10
152.1999969482422
 20
597.1000061035156
 30
0.0
 10
149.8000030517578
 20
599.2000122070312
 30
0.0
 10
147.4000091552734
 20
601.3000183105469
 30
0.0
 10
134.6000061035156
 20
594.8000183105469
 30
0.0
 10
125.7000045776367
 20
595.9000244140625
 30
0.0
 10
116.8000030517578
 20
597.0000305175781
 30
0.0
 10
105.7000045776367
 20
603.4000244140625
 30
0.0
 10
103.8000030517578
 20
602.5000305175781
 30
0.0
 10
101.9000015258789
 20
601.6000366210938
 30
0.0
 10
105.4000015258789
 20
586.0000305175781
 30
0.0
 10
101.7000045776367
 20
583.1000366210938
 30
0.0
 10
98.00000762939453
 20
580.2000427246094
 30
0.0
 10
77.60000610351562
 20
581.0000305175781
 30
0.0
 10
75.40000915527344
 20
586.300048828125
 30
0.0
 10
73.20001220703125
 20
591.6000671386719
 30
0.0
 10
77.40000915527344
 20
608.1000518798828
 30
0.0
 10
77.40000915527344
 20
608.1000518798828
 30
0.0
 10
77.40000915527344
 20
608.1000518798828
 30
0.0
 10
57.00000762939453
 20
608.7000579833984
 30
0.0
 10
56.50000762939453
 20
610.9000549316406
 30
0.0
 10
56.00000762939453
 20
613.2000579833984
 30
0.0
 10
67.40000915527344
 20
617.2000579833984
 30
0.0
 10
72.20000457763672
 20
619.7000579833984
 30
0.0
 10
77.10000610351562
 20
622.2000579833984
 30
0.0
 10
79.4000015258789
 20
637.4000549316406
 30
0.0
 10
79.4000015258789
 20
637.4000549316406
 30
0.0
 10
79.4000015258789
 20
637.4000549316406
 30
0.0
 10
84.30000305175781
 20
682.0000610351562
 30
0.0
 10
127.8000030517578
 20
683.6000518798828
 30
0.0
 10
183.3000030517578
 20
685.7000579833984
 30
0.0
 10
176.8999938964844
 20
636.300048828125
 30
0.0
 10
182.2000122070312
 20
637.0000610351562
 30
0.0
 10
187.5000305175781
 20
637.7000732421875
 30
0.0
 10
187.0000152587891
 20
661.9000549316406
 30
0.0
 10
201.1000061035156
 20
663.7000579833984
 30
0.0
 10
212.1000061035156
 20
666.7000579833984
 30
0.0
 10
216.1000061035156
 20
660.8000640869141
 30
0.0
 10
218.6000061035156
 20
655.1000518798828
 30
0.0
 10
221.2000122070312
 20
649.5000457763672
 30
0.0
 10
227.6000061035156
 20
644.6000518798828
 30
0.0
 10
221.2000122070312
 20
640.2000579833984
 30
0.0
 10
219.8000030517578
 20
639.5
 30
0.0
 10
217.3999938964844
 20
641.8000030517578
 30
0.0
 10
213.3000030517578
 20
639.3000030517578
 30
0.0
  0
SPLINE
  5
7F
330
7A
100
AcDbEntity
  8
Animal Clips
 62
     7
420
 16777215
370
    35
100
AcDbSpline
210
0.0
220
0.0
230
1.0
 70
     8
 71
     3
 72
    11
 73
     7
 74
     0
 42
0.0000000001
 43
0.0000000001
 12
1.0
 22
0.0
 32
0.0
 13
1.0
 23
0.0
 33
0.0
 40
0.0
 40
0.0
 40
0.0
 40
0.0
 40
1.0
 40
1.0
 40
1.0
 40
2.0
 40
2.0
 40
2.0
 40
2.0
 10
88.5
 20
651.0
 30
0.0
 10
96.80000305175781
 20
631.0
 30
0.0
 10
111.5999984741211
 20
616.6999969482422
 30
0.0
 10
133.0
 20
616.6999969482422
 30
0.0
 10
154.3999938964844
 20
616.6999969482422
 30
0.0
 10
171.6999969482422
 20
640.3000030517578
 30
0.0
 10
171.0
 20
652.3999938964844
 30
0.0
  0
SPLINE
  5
80
330
7A
100
AcDbEntity
  8
Animal Clips
 62
     7
420
 16777215
370
    35
100
AcDbSpline
210
0.0
220
0.0
230
1.0
 70
    11
 71
     3
 72
    17
 73
    13
 74
     0
 42
0.0000000001
 43
0.0000000001
 12
1.0
 22
0.0
 32
0.0
 13
1.0
 23
0.0
 33
0.0
 40
0.0
 40
0.0
 40
0.0
 40
0.0
 40
1.0
 40
1.0
 40
1.0
 40
2.0
 40
2.0
 40
2.0
 40
3.0
 40
3.0
 40
3.0
 40
4.0
 40
4.0
 40
4.0
 40
4.0
 10
206.8000030517578
 20
655.3999938964844
 30
0.0
 10
205.0
 20
655.2999877929688
 30
0.0
 10
203.5
 20
653.7999877929688
 30
0.0
 10
203.6000061035156
 20
651.8999938964844
 30
0.0
 10
203.7000122070312
 20
650.0999908447266
 30
0.0
 10
205.2000122070312
 20
648.5999908447266
 30
0.0
 10
207.1000061035156
 20
648.6999969482422
 30
0.0
 10
209.0
 20
648.8000030517578
 30
0.0
 10
210.4000091552734
 20
650.3000030517578
 30
0.0
 10
210.3000030517578
 20
652.1999969482422
 30
0.0
 10
210.1999969482422
 20
654.0
 30
0.0
 10
208.6999969482422
 20
655.5
 30
0.0
 10
206.8000030517578
 20
655.3999938964844
 30
0.0
  0
HATCH
  5
81
330
7A
100
AcDbEntity
  8
Animal Clips
 62
     1
420
 16717591
100
AcDbHatch
 10
0.0
 20
0.0
 30
0.0
210
0.0
220
0.0
230
1.0
  2
SOLID
 70
     1
 71
     0
 91
        3
 92
        1
 93
        1
 72
     4
 94
        3
 73
     0
 74
     1
 95
       62
 96
       58
 40
0.0
 40
0.0
 40
0.0
 40
0.0
 40
1.0
 40
1.0
 40
1.0
 40
2.0
 40
2.0
 40
2.0
 40
3.0
 40
3.0
 40
3.0
 40
4.0
 40
4.0
 40
4.0
 40
5.0
 40
5.0
 40
5.0
 40
6.0
 40
6.0
 40
6.0
 40
7.0
 40
7.0
 40
7.0
 40
8.0
 40
8.0
 40
8.0
 40
9.0
 40
9.0
 40
9.0
 40
10.0
 40
10.0
 40
10.0
 40
11.0
 40
11.0
 40
11.0
 40
12.0
 40
12.0
 40
12.0
 40
13.0
 40
13.0
 40
13.0
 40
14.0
 40
14.0
 40
14.0
 40
15.0
 40
15.0
 40
15.0
 40
16.0
 40
16.0
 40
16.0
 40
17.0
 40
17.0
 40
17.0
 40
18.0
 40
18.0
 40
18.0
 40
19.0
 40
19.0
 40
19.0
 40
19.0
 10
213.3000030517578
 20
639.3000030517578
 10
209.1999969482422
 20
636.8000030517578
 10
205.4000091552734
 20
626.1999969482422
 10
197.6999969482422
 20
617.8000030517578
 10
190.0
 20
609.3000030517578
 10
177.0999908447266
 20
605.2999877929688
 10
176.0
 20
604.1000061035156
 10
174.8999938964844
 20
602.8999938964844
 10
183.1000061035156
 20
588.1000061035156
 10
179.1000061035156
 20
583.7000122070312
 10
175.1000061035156
 20
579.3000183105469
 10
158.5
 20
579.8000183105469
 10
153.0
 20
581.5
 10
147.5
 20
583.1999816894531
 10
152.1999969482422
 20
597.1000061035156
 10
149.8000030517578
 20
599.2000122070312
 10
147.4000091552734
 20
601.3000183105469
 10
134.6000061035156
 20
594.8000183105469
 10
125.7000045776367
 20
595.9000244140625
 10
116.8000030517578
 20
597.0000305175781
 10
105.7000045776367
 20
603.4000244140625
 10
103.8000030517578
 20
602.5000305175781
 10
101.9000015258789
 20
601.6000366210938
 10
105.4000015258789
 20
586.0000305175781
 10
101.7000045776367
 20
583.1000366210938
 10
98.00000762939453
 20
580.2000427246094
 10
77.60000610351562
 20
581.0000305175781
 10
75.40000915527344
 20
586.300048828125
 10
73.20001220703125
 20
591.6000671386719
 10
77.40000915527344
 20
608.1000518798828
 10
77.40000915527344
 20
608.1000518798828
 10
77.40000915527344
 20
608.1000518798828
 10
57.00000762939453
 20
608.7000579833984
 10
56.50000762939453
 20
610.9000549316406
 10
56.00000762939453
 20
613.2000579833984
 10
67.40000915527344
 20
617.2000579833984
 10
72.20000457763672
 20
619.7000579833984
 10
77.10000610351562
 20
622.2000579833984
 10
79.4000015258789
 20
637.4000549316406
 10
79.4000015258789
 20
637.4000549316406
 10
79.4000015258789
 20
637.4000549316406
 10
84.30000305175781
 20
682.0000610351562
 10
127.8000030517578
 20
683.6000518798828
 10
183.3000030517578
 20
685.7000579833984
 10
176.8999938964844
 20
636.300048828125
 10
182.2000122070312
 20
637.0000610351562
 10
187.5000305175781
 20
637.7000732421875
 10
187.0000152587891
 20
661.9000549316406
 10
201.1000061035156
 20
663.7000579833984
 10
212.1000061035156
 20
666.7000579833984
 10
216.1000061035156
 20
660.8000640869141
 10
218.6000061035156
 20
655.1000518798828
 10
221.2000122070312
 20
649.5000457763672
 10
227.6000061035156
 20
644.6000518798828
 10
221.2000122070312
 20
640.2000579833984
 10
219.8000030517578
 20
639.5
 10
217.3999938964844
 20
641.8000030517578
 10
213.3000030517578
 20
639.3000030517578
 97
        0
 97
        0
 92
        1
 93
        1
 72
     4
 94
        3
 73
     0
 74
     1
 95
       17
 96
       13
 40
0.0
 40
0.0
 40
0.0
 40
0.0
 40
1.0
 40
1.0
 40
1.0
 40
2.0
 40
2.0
 40
2.0
 40
3.0
 40
3.0
 40
3.0
 40
4.0
 40
4.0
 40
4.0
 40
4.0
 10
206.8000030517578
 20
655.3999938964844
 10
205.0
 20
655.2999877929688
 10
203.5
 20
653.7999877929688
 10
203.6000061035156
 20
651.8999938964844
 10
203.7000122070312
 20
650.0999908447266
 10
205.2000122070312
 20
648.5999908447266
 10
207.1000061035156
 20
648.6999969482422
 10
209.0
 20
648.8000030517578
 10
210.4000091552734
 20
650.3000030517578
 10
210.3000030517578
 20
652.1999969482422
 10
210.1999969482422
 20
654.0
 10
208.6999969482422
 20
655.5
 10
206.8000030517578
 20
655.3999938964844
 97
        0
 97
        0
 92
        1
 93
        2
 72
     4
 94
        3
 73
     0
 74
     0
 95
       11
 96
        7
 40
0.0
 40
0.0
 40
0.0
 40
0.0
 40
1.0
 40
1.0
 40
1.0
 40
2.0
 40
2.0
 40
2.0
 40
2.0
 10
88.5
 20
651.0
 10
96.80000305175781
 20
631.0
 10
111.5999984741211
 20
616.6999969482422
 10
133.0
 20
616.6999969482422
 10
154.3999938964844
 20
616.6999969482422
 10
171.6999969482422
 20
640.3000030517578
 10
171.0
 20
652.3999938964844
 97
        0
 72
     1
 10
171.0
 20
652.3999938964844
 11
88.5
 21
651.0
 97
        0
 75
     2
 76
     1
 98
        0
  0
POLYLINE
  5
82
330
7A
100
AcDbEntity
  8
Animal Clips
 62
     7
420
 16777215
370
    35
100
AcDb2dPolyline
 66
     1
 10
0.0
 20
0.0
 30
0.0
  0
VERTEX
  5
83
330
82
100
AcDbEntity
  8
Animal Clips
 62
     7
420
 16777215
370
    35
100
AcDbVertex
100
AcDb2dVertex
 10
137.0
 20
653.3999938964844
 30
0.0
  0
VERTEX
  5
84
330
82
100
AcDbEntity
  8
Animal Clips
 62
     7
420
 16777215
370
    35
100
AcDbVertex
100
AcDb2dVertex
 10
121.8000030517578
 20
653.7999877929688
 30
0.0
  0
VERTEX
  5
85
330
82
100
AcDbEntity
  8
Animal Clips
 62
     7
420
 16777215
370
    35
100
AcDbVertex
100
AcDb2dVertex
 10
114.5
 20
667.1999816894531
 30
0.0
  0
VERTEX
  5
86
330
82
100
AcDbEntity
  8
Animal Clips
 62
     7
420
 16777215
370
    35
100
AcDbVertex
100
AcDb2dVertex
 10
122.4000015258789
 20
680.1999816894531
 30
0.0
  0
VERTEX
  5
87
330
82
100
AcDbEntity
  8
Animal Clips
 62
     7
420
 16777215
370
    35
100
AcDbVertex
100
AcDb2dVertex
 10
137.6000061035156
 20
679.7999877929688
 30
0.0
  0
VERTEX
  5
88
330
82
100
AcDbEntity
  8
Animal Clips
 62
     7
420
 16777215
370
    35
100
AcDbVertex
100
AcDb2dVertex
 10
144.9000091552734
 20
666.3999938964844
 30
0.0
  0
VERTEX
  5
89
330
82
100
AcDbEntity
  8
Animal Clips
 62
     7
420
 16777215
370
    35
100
AcDbVertex
100
AcDb2dVertex
 10
137.0
 20
653.3999938964844
 30
0.0
  0
SEQEND
  5
8A
330
82
100
AcDbEntity
  8
Animal Clips
 62
     7
420
 16777215
370
    35
  0
POLYLINE
  5
8B
330
7A
100
AcDbEntity
  8
Animal Clips
 62
     7
420
 16777215
370
    35
100
AcDb2dPolyline
 66
     1
 10
0.0
 20
0.0
 30
0.0
  0
VERTEX
  5
8C
330
8B
100
AcDbEntity
  8
Animal Clips
 62
     7
420
 16777215
370
    35
100
AcDbVertex
100
AcDb2dVertex
 10
167.6999969482422
 20
652.8000030517578
 30
0.0
  0
VERTEX
  5
8D
330
8B
100
AcDbEntity
  8
Animal Clips
 62
     7
420
 16777215
370
    35
100
AcDbVertex
100
AcDb2dVertex
 10
160.3999938964844
 20
666.1999969482422
 30
0.0
  0
VERTEX
  5
8E
330
8B
100
AcDbEntity
  8
Animal Clips
 62
     7
420
 16777215
370
    35
100
AcDbVertex
100
AcDb2dVertex
 10
145.1999969482422
 20
666.5999908447266
 30
0.0
  0
VERTEX
  5
8F
330
8B
100
AcDbEntity
  8
Animal Clips
 62
     7
420
 16777215
370
    35
100
AcDbVertex
100
AcDb2dVertex
 10
137.3000030517578
 20
653.5999908447266
 30
0.0
  0
VERTEX
  5
90
330
8B
100
AcDbEntity
  8
Animal Clips
 62
     7
420
 16777215
370
    35
100
AcDbVertex
100
AcDb2dVertex
 10
144.6000061035156
 20
640.1999969482422
 30
0.0
  0
VERTEX
  5
91
330
8B
100
AcDbEntity
  8
Animal Clips
 62
     7
420
 16777215
370
    35
100
AcDbVertex
100
AcDb2dVertex
 10
159.8000030517578
 20
639.8000030517578
 30
0.0
  0
VERTEX
  5
92
330
8B
100
AcDbEntity
  8
Animal Clips
 62
     7
420
 16777215
370
    35
100
AcDbVertex
100
AcDb2dVertex
 10
167.6999969482422
 20
652.8000030517578
 30
0.0
  0
SEQEND
  5
93
330
8B
100
AcDbEntity
  8
Animal Clips
 62
     7
420
 16777215
370
    35
  0
POLYLINE
  5
94
330
7A
100
AcDbEntity
  8
Animal Clips
 62
     7
420
 16777215
370
    35
100
AcDb2dPolyline
 66
     1
 10
0.0
 20
0.0
 30
0.0
  0
VERTEX
  5
95
330
94
100
AcDbEntity
  8
Animal Clips
 62
     7
420
 16777215
370
    35
100
AcDbVertex
100
AcDb2dVertex
 10
144.3999938964844
 20
640.1000061035156
 30
0.0
  0
VERTEX
  5
96
330
94
100
AcDbEntity
  8
Animal Clips
 62
     7
420
 16777215
370
    35
100
AcDbVertex
100
AcDb2dVertex
 10
137.0999908447266
 20
653.5
 30
0.0
  0
VERTEX
  5
97
330
94
100
AcDbEntity
  8
Animal Clips
 62
     7
420
 16777215
370
    35
100
AcDbVertex
100
AcDb2dVertex
 10
121.8999938964844
 20
653.8999938964844
 30
0.0
  0
VERTEX
  5
98
330
94
100
AcDbEntity
  8
Animal Clips
 62
     7
420
 16777215
370
    35
100
AcDbVertex
100
AcDb2dVertex
 10
113.9999923706055
 20
640.8999938964844
 30
0.0
  0
VERTEX
  5
99
330
94
100
AcDbEntity
  8
Animal Clips
 62
     7
420
 16777215
370
    35
100
AcDbVertex
100
AcDb2dVertex
 10
121.2999954223633
 20
627.5
 30
0.0
  0
VERTEX
  5
9A
330
94
100
AcDbEntity
  8
Animal Clips
 62
     7
420
 16777215
370
    35
100
AcDbVertex
100
AcDb2dVertex
 10
136.5
 20
627.1000061035156
 30
0.0
  0
VERTEX
  5
9B
330
94
100
AcDbEntity
  8
Animal Clips
 62
     7
420
 16777215
370
    35
100
AcDbVertex
100
AcDb2dVertex
 10
144.3999938964844
 20
640.1000061035156
 30
0.0
  0
SEQEND
  5
9C
330
94
100
AcDbEntity
  8
Animal Clips
 62
     7
420
 16777215
370
    35
  0
POLYLINE
  5
9D
330
7A
100
AcDbEntity
  8
Animal Clips
 62
     7
420
 16777215
370
    35
100
AcDb2dPolyline
 66
     1
 10
0.0
 20
0.0
 30
0.0
  0
VERTEX
  5
9E
330
9D
100
AcDbEntity
  8
Animal Clips
 62
     7
420
 16777215
370
    35
100
AcDbVertex
100
AcDb2dVertex
 10
121.8000030517578
 20
653.8000030517578
 30
0.0
  0
VERTEX
  5
9F
330
9D
100
AcDbEntity
  8
Animal Clips
 62
     7
420
 16777215
370
    35
100
AcDbVertex
100
AcDb2dVertex
 10
114.5
 20
667.1999969482422
 30
0.0
  0
VERTEX
  5
A0
330
9D
100
AcDbEntity
  8
Animal Clips
 62
     7
420
 16777215
370
    35
100
AcDbVertex
100
AcDb2dVertex
 10
99.30000305175781
 20
667.5999908447266
 30
0.0
  0
VERTEX
  5
A1
330
9D
100
AcDbEntity
  8
Animal Clips
 62
     7
420
 16777215
370
    35
100
AcDbVertex
100
AcDb2dVertex
 10
91.4000015258789
 20
654.5999908447266
 30
0.0
  0
VERTEX
  5
A2
330
9D
100
AcDbEntity
  8
Animal Clips
 62
     7
420
 16777215
370
    35
100
AcDbVertex
100
AcDb2dVertex
 10
98.70000457763672
 20
641.1999969482422
 30
0.0
  0
VERTEX
  5
A3
330
9D
100
AcDbEntity
  8
Animal Clips
 62
     7
420
 16777215
370
    35
100
AcDbVertex
100
AcDb2dVertex
 10
113.9000015258789
 20
640.8000030517578
 30
0.0
  0
VERTEX
  5
A4
330
9D
100
AcDbEntity
  8
Animal Clips
 62
     7
420
 16777215
370
    35
100
AcDbVertex
100
AcDb2dVertex
 10
121.8000030517578
 20
653.8000030517578
 30
0.0
  0
SEQEND
  5
A5
330
9D
100
AcDbEntity
  8
Animal Clips
 62
     7
420
 16777215
370
    35
  0
ENDBLK
  5
7D
330
7A
100
AcDbEntity
  8
0
100
AcDbBlockEnd
  0
BLOCK
  5
A8
330
A6
100
AcDbEntity
  8
0
100
AcDbBlockBegin
  2
block 9
 70
     0
 10
0.0
 20
0.0
 30
0.0
  3
block 9
  1

  0
SPLINE
  5
AA
330
A6
100
AcDbEntity
  8
Animal Clips
 62
     7
420
 16777215
370
    35
100
AcDbSpline
210
0.0
220
0.0
230
1.0
 70
    11
 71
     3
 72
    89
 73
    85
 74
     0
 42
0.0000000001
 43
0.0000000001
 12
1.0
 22
0.0
 32
0.0
 13
1.0
 23
0.0
 33
0.0
 40
0.0
 40
0.0
 40
0.0
 40
0.0
 40
1.0
 40
1.0
 40
1.0
 40
2.0
 40
2.0
 40
2.0
 40
3.0
 40
3.0
 40
3.0
 40
4.0
 40
4.0
 40
4.0
 40
5.0
 40
5.0
 40
5.0
 40
6.0
 40
6.0
 40
6.0
 40
7.0
 40
7.0
 40
7.0
 40
8.0
 40
8.0
 40
8.0
 40
9.0
 40
9.0
 40
9.0
 40
10.0
 40
10.0
 40
10.0
 40
11.0
 40
11.0
 40
11.0
 40
12.0
 40
12.0
 40
12.0
 40
13.0
 40
13.0
 40
13.0
 40
14.0
 40
14.0
 40
14.0
 40
15.0
 40
15.0
 40
15.0
 40
16.0
 40
16.0
 40
16.0
 40
17.0
 40
17.0
 40
17.0
 40
18.0
 40
18.0
 40
18.0
 40
19.0
 40
19.0
 40
19.0
 40
20.0
 40
20.0
 40
20.0
 40
21.0
 40
21.0
 40
21.0
 40
22.0
 40
22.0
 40
22.0
 40
23.0
 40
23.0
 40
23.0
 40
24.0
 40
24.0
 40
24.0
 40
25.0
 40
25.0
 40
25.0
 40
26.0
 40
26.0
 40
26.0
 40
27.0
 40
27.0
 40
27.0
 40
28.0
 40
28.0
 40
28.0
 40
28.0
 10
120.8000030517578
 20
739.3000030517578
 30
0.0
 10
119.8000030517578
 20
733.0
 30
0.0
 10
119.4000015258789
 20
725.6000061035156
 30
0.0
 10
119.6000061035156
 20
725.6000061035156
 30
0.0
 10
120.8000030517578
 20
722.4000091552734
 30
0.0
 10
126.4000091552734
 20
721.2000122070312
 30
0.0
 10
131.2000122070312
 20
720.6000061035156
 30
0.0
 10
132.3000183105469
 20
720.6000061035156
 30
0.0
 10
139.8000183105469
 20
720.3000030517578
 30
0.0
 10
140.9000091552734
 20
720.3000030517578
 30
0.0
 10
145.8000030517578
 20
720.3000030517578
 30
0.0
 10
147.9000091552734
 20
722.6999969482422
 30
0.0
 10
147.1000061035156
 20
725.1000061035156
 30
0.0
 10
146.6000061035156
 20
726.5
 30
0.0
 10
143.8000030517578
 20
748.1000061035156
 30
0.0
 10
149.6000061035156
 20
751.1000061035156
 30
0.0
 10
155.4000091552734
 20
754.1000061035156
 30
0.0
 10
176.3000030517578
 20
750.2000045776367
 30
0.0
 10
179.6000061035156
 20
747.0000076293945
 30
0.0
 10
181.7000122070312
 20
744.7000045776367
 30
0.0
 10
181.4000091552734
 20
728.8000030517578
 30
0.0
 10
181.5
 20
726.2000122070312
 30
0.0
 10
181.6000061035156
 20
724.0000152587891
 30
0.0
 10
182.1999969482422
 20
721.9000091552734
 30
0.0
 10
184.3000030517578
 20
721.4000091552734
 30
0.0
 10
190.6999969482422
 20
719.7000122070312
 30
0.0
 10
196.3000030517578
 20
719.9000091552734
 30
0.0
 10
199.5
 20
720.0000152587891
 30
0.0
 10
206.0
 20
720.4000091552734
 30
0.0
 10
205.8999938964844
 20
722.7000122070312
 30
0.0
 10
205.8999938964844
 20
725.1000213623047
 30
0.0
 10
205.1999969482422
 20
727.9000244140625
 30
0.0
 10
202.0
 20
735.3000183105469
 30
0.0
 10
201.2999877929688
 20
738.9000244140625
 30
0.0
 10
199.1999816894531
 20
746.2000274658203
 30
0.0
 10
202.0999908447266
 20
762.6000213623047
 30
0.0
 10
202.5999908447266
 20
763.3000259399414
 30
0.0
 10
202.9999847412109
 20
764.0000228881836
 30
0.0
 10
203.4999847412109
 20
764.2000274658203
 30
0.0
 10
204.6999969482422
 20
763.8000259399414
 30
0.0
 10
205.5999908447266
 20
762.9000244140625
 30
0.0
 10
206.8000030517578
 20
761.9000244140625
 30
0.0
 10
207.8999938964844
 20
761.1000289916992
 30
0.0
 10
210.1999969482422
 20
759.400032043457
 30
0.0
 10
223.0999908447266
 20
739.7000274658203
 30
0.0
 10
224.5999908447266
 20
738.7000274658203
 30
0.0
 10
224.8999938964844
 20
738.5000305175781
 30
0.0
 10
225.0999908447266
 20
739.4000244140625
 30
0.0
 10
224.9999847412109
 20
740.2000274658203
 30
0.0
 10
224.7999877929688
 20
741.2000274658203
 30
0.0
 10
227.5999908447266
 20
737.7000274658203
 30
0.0
 10
228.6999816894531
 20
737.9000244140625
 30
0.0
 10
227.7999877929688
 20
739.9000244140625
 30
0.0
 10
227.2999877929688
 20
741.9000244140625
 30
0.0
 10
227.3999786376953
 20
742.8000259399414
 30
0.0
 10
226.6999816894531
 20
743.7000274658203
 30
0.0
 10
228.1999816894531
 20
743.1000289916992
 30
0.0
 10
228.3999786376953
 20
743.9000244140625
 30
0.0
 10
225.5999755859375
 20
746.1000213623047
 30
0.0
 10
215.6999816894531
 20
757.6000213623047
 30
0.0
 10
213.5999755859375
 20
761.7000274658203
 30
0.0
 10
212.0999755859375
 20
764.7000274658203
 30
0.0
 10
208.5999755859375
 20
778.0000305175781
 30
0.0
 10
206.1999816894531
 20
782.4000244140625
 30
0.0
 10
188.8999786376953
 20
824.8000259399414
 30
0.0
 10
173.3999786376953
 20
813.100025177002
 30
0.0
 10
153.0999755859375
 20
815.3000259399414
 30
0.0
 10
138.0
 20
817.0
 30
0.0
 10
126.0
 20
825.5
 30
0.0
 10
113.0
 20
826.2000007629395
 30
0.0
 10
86.30000305175781
 20
827.7000007629395
 30
0.0
 10
83.69999694824219
 20
803.5
 30
0.0
 10
76.69999694824219
 20
798.0999984741211
 30
0.0
 10
67.0
 20
790.5999984741211
 30
0.0
 10
47.79999542236328
 20
796.6999969482422
 30
0.0
 10
40.09999847412109
 20
791.1999969482422
 30
0.0
 10
39.89999771118164
 20
791.0
 30
0.0
 10
47.59999847412109
 20
786.0
 30
0.0
 10
49.89999771118164
 20
785.6999969482422
 30
0.0
 10
58.29999542236328
 20
786.5
 30
0.0
 10
84.0999984741211
 20
789.1999969482422
 30
0.0
 10
93.80000305175781
 20
782.1999969482422
 30
0.0
 10
95.19999694824219
 20
781.0
 30
0.0
 10
126.4000015258789
 20
767.1999969482422
 30
0.0
 10
120.8000030517578
 20
739.3000030517578
 30
0.0
  0
SPLINE
  5
AB
330
A6
100
AcDbEntity
  8
Animal Clips
 62
     7
420
 16777215
370
    35
100
AcDbSpline
210
0.0
220
0.0
230
1.0
 70
     8
 71
     3
 72
    17
 73
    13
 74
     0
 42
0.0000000001
 43
0.0000000001
 12
1.0
 22
0.0
 32
0.0
 13
1.0
 23
0.0
 33
0.0
 40
0.0
 40
0.0
 40
0.0
 40
0.0
 40
1.0
 40
1.0
 40
1.0
 40
2.0
 40
2.0
 40
2.0
 40
3.0
 40
3.0
 40
3.0
 40
4.0
 40
4.0
 40
4.0
 40
4.0
 10
145.8000030517578
 20
809.2999992370605
 30
0.0
 10
145.8000030517578
 20
809.2999992370605
 30
0.0
 10
177.6999969482422
 20
805.7999992370605
 30
0.0
 10
173.5
 20
795.0
 30
0.0
 10
169.3000030517578
 20
784.1999969482422
 30
0.0
 10
145.1999969482422
 20
756.3000030517578
 30
0.0
 10
135.3999938964844
 20
760.8000030517578
 30
0.0
 10
125.5999908447266
 20
765.3000030517578
 30
0.0
 10
110.4999923706055
 20
787.6000061035156
 30
0.0
 10
115.6999969482422
 20
795.4000015258789
 30
0.0
 10
120.8999938964844
 20
803.2000007629395
 30
0.0
 10
135.8999938964844
 20
799.8000030517578
 30
0.0
 10
142.5
 20
796.5
 30
0.0
  0
SPLINE
  5
AC
330
A6
100
AcDbEntity
  8
Animal Clips
 62
     7
420
 16777215
370
    35
100
AcDbSpline
210
0.0
220
0.0
230
1.0
 70
    11
 71
     3
 72
    17
 73
    13
 74
     0
 42
0.0000000001
 43
0.0000000001
 12
1.0
 22
0.0
 32
0.0
 13
1.0
 23
0.0
 33
0.0
 40
0.0
 40
0.0
 40
0.0
 40
0.0
 40
1.0
 40
1.0
 40
1.0
 40
2.0
 40
2.0
 40
2.0
 40
3.0
 40
3.0
 40
3.0
 40
4.0
 40
4.0
 40
4.0
 40
4.0
 10
100.0999984741211
 20
808.7999992370605
 30
0.0
 10
101.9000015258789
 20
808.7999992370605
 30
0.0
 10
103.4000015258789
 20
807.2999992370605
 30
0.0
 10
103.4000015258789
 20
805.5
 30
0.0
 10
103.4000015258789
 20
803.7000007629395
 30
0.0
 10
101.9000015258789
 20
802.2000007629395
 30
0.0
 10
100.0999984741211
 20
802.2000007629395
 30
0.0
 10
98.29999542236328
 20
802.2000007629395
 30
0.0
 10
96.79999542236328
 20
803.7000007629395
 30
0.0
 10
96.79999542236328
 20
805.5
 30
0.0
 10
96.79999542236328
 20
807.2999992370605
 30
0.0
 10
98.30000305175781
 20
808.7999992370605
 30
0.0
 10
100.0999984741211
 20
808.7999992370605
 30
0.0
  0
HATCH
  5
AD
330
A6
100
AcDbEntity
  8
Animal Clips
 62
     1
420
 16717591
100
AcDbHatch
 10
0.0
 20
0.0
 30
0.0
210
0.0
220
0.0
230
1.0
  2
SOLID
 70
     1
 71
     0
 91
        3
 92
        1
 93
        1
 72
     4
 94
        3
 73
     0
 74
     1
 95
       89
 96
       85
 40
0.0
 40
0.0
 40
0.0
 40
0.0
 40
1.0
 40
1.0
 40
1.0
 40
2.0
 40
2.0
 40
2.0
 40
3.0
 40
3.0
 40
3.0
 40
4.0
 40
4.0
 40
4.0
 40
5.0
 40
5.0
 40
5.0
 40
6.0
 40
6.0
 40
6.0
 40
7.0
 40
7.0
 40
7.0
 40
8.0
 40
8.0
 40
8.0
 40
9.0
 40
9.0
 40
9.0
 40
10.0
 40
10.0
 40
10.0
 40
11.0
 40
11.0
 40
11.0
 40
12.0
 40
12.0
 40
12.0
 40
13.0
 40
13.0
 40
13.0
 40
14.0
 40
14.0
 40
14.0
 40
15.0
 40
15.0
 40
15.0
 40
16.0
 40
16.0
 40
16.0
 40
17.0
 40
17.0
 40
17.0
 40
18.0
 40
18.0
 40
18.0
 40
19.0
 40
19.0
 40
19.0
 40
20.0
 40
20.0
 40
20.0
 40
21.0
 40
21.0
 40
21.0
 40
22.0
 40
22.0
 40
22.0
 40
23.0
 40
23.0
 40
23.0
 40
24.0
 40
24.0
 40
24.0
 40
25.0
 40
25.0
 40
25.0
 40
26.0
 40
26.0
 40
26.0
 40
27.0
 40
27.0
 40
27.0
 40
28.0
 40
28.0
 40
28.0
 40
28.0
 10
120.8000030517578
 20
739.3000030517578
 10
119.8000030517578
 20
733.0
 10
119.4000015258789
 20
725.6000061035156
 10
119.6000061035156
 20
725.6000061035156
 10
120.8000030517578
 20
722.4000091552734
 10
126.4000091552734
 20
721.2000122070312
 10
131.2000122070312
 20
720.6000061035156
 10
132.3000183105469
 20
720.6000061035156
 10
139.8000183105469
 20
720.3000030517578
 10
140.9000091552734
 20
720.3000030517578
 10
145.8000030517578
 20
720.3000030517578
 10
147.9000091552734
 20
722.6999969482422
 10
147.1000061035156
 20
725.1000061035156
 10
146.6000061035156
 20
726.5
 10
143.8000030517578
 20
748.1000061035156
 10
149.6000061035156
 20
751.1000061035156
 10
155.4000091552734
 20
754.1000061035156
 10
176.3000030517578
 20
750.2000045776367
 10
179.6000061035156
 20
747.0000076293945
 10
181.7000122070312
 20
744.7000045776367
 10
181.4000091552734
 20
728.8000030517578
 10
181.5
 20
726.2000122070312
 10
181.6000061035156
 20
724.0000152587891
 10
182.1999969482422
 20
721.9000091552734
 10
184.3000030517578
 20
721.4000091552734
 10
190.6999969482422
 20
719.7000122070312
 10
196.3000030517578
 20
719.9000091552734
 10
199.5
 20
720.0000152587891
 10
206.0
 20
720.4000091552734
 10
205.8999938964844
 20
722.7000122070312
 10
205.8999938964844
 20
725.1000213623047
 10
205.1999969482422
 20
727.9000244140625
 10
202.0
 20
735.3000183105469
 10
201.2999877929688
 20
738.9000244140625
 10
199.1999816894531
 20
746.2000274658203
 10
202.0999908447266
 20
762.6000213623047
 10
202.5999908447266
 20
763.3000259399414
 10
202.9999847412109
 20
764.0000228881836
 10
203.4999847412109
 20
764.2000274658203
 10
204.6999969482422
 20
763.8000259399414
 10
205.5999908447266
 20
762.9000244140625
 10
206.8000030517578
 20
761.9000244140625
 10
207.8999938964844
 20
761.1000289916992
 10
210.1999969482422
 20
759.400032043457
 10
223.0999908447266
 20
739.7000274658203
 10
224.5999908447266
 20
738.7000274658203
 10
224.8999938964844
 20
738.5000305175781
 10
225.0999908447266
 20
739.4000244140625
 10
224.9999847412109
 20
740.2000274658203
 10
224.7999877929688
 20
741.2000274658203
 10
227.5999908447266
 20
737.7000274658203
 10
228.6999816894531
 20
737.9000244140625
 10
227.7999877929688
 20
739.9000244140625
 10
227.2999877929688
 20
741.9000244140625
 10
227.3999786376953
 20
742.8000259399414
 10
226.6999816894531
 20
743.7000274658203
 10
228.1999816894531
 20
743.1000289916992
 10
228.3999786376953
 20
743.9000244140625
 10
225.5999755859375
 20
746.1000213623047
 10
215.6999816894531
 20
757.6000213623047
 10
213.5999755859375
 20
761.7000274658203
 10
212.0999755859375
 20
764.7000274658203
 10
208.5999755859375
 20
778.0000305175781
 10
206.1999816894531
 20
782.4000244140625
 10
188.8999786376953
 20
824.8000259399414
 10
173.3999786376953
 20
813.100025177002
 10
153.0999755859375
 20
815.3000259399414
 10
138.0
 20
817.0
 10
126.0
 20
825.5
 10
113.0
 20
826.2000007629395
 10
86.30000305175781
 20
827.7000007629395
 10
83.69999694824219
 20
803.5
 10
76.69999694824219
 20
798.0999984741211
 10
67.0
 20
790.5999984741211
 10
47.79999542236328
 20
796.6999969482422
 10
40.09999847412109
 20
791.1999969482422
 10
39.89999771118164
 20
791.0
 10
47.59999847412109
 20
786.0
 10
49.89999771118164
 20
785.6999969482422
 10
58.29999542236328
 20
786.5
 10
84.0999984741211
 20
789.1999969482422
 10
93.80000305175781
 20
782.1999969482422
 10
95.19999694824219
 20
781.0
 10
126.4000015258789
 20
767.1999969482422
 10
120.8000030517578
 20
739.3000030517578
 97
        0
 97
        0
 92
        1
 93
        1
 72
     4
 94
        3
 73
     0
 74
     1
 95
       17
 96
       13
 40
0.0
 40
0.0
 40
0.0
 40
0.0
 40
1.0
 40
1.0
 40
1.0
 40
2.0
 40
2.0
 40
2.0
 40
3.0
 40
3.0
 40
3.0
 40
4.0
 40
4.0
 40
4.0
 40
4.0
 10
100.0999984741211
 20
808.7999992370605
 10
101.9000015258789
 20
808.7999992370605
 10
103.4000015258789
 20
807.2999992370605
 10
103.4000015258789
 20
805.5
 10
103.4000015258789
 20
803.7000007629395
 10
101.9000015258789
 20
802.2000007629395
 10
100.0999984741211
 20
802.2000007629395
 10
98.29999542236328
 20
802.2000007629395
 10
96.79999542236328
 20
803.7000007629395
 10
96.79999542236328
 20
805.5
 10
96.79999542236328
 20
807.2999992370605
 10
98.30000305175781
 20
808.7999992370605
 10
100.0999984741211
 20
808.7999992370605
 97
        0
 97
        0
 92
        1
 93
        2
 72
     4
 94
        3
 73
     0
 74
     0
 95
       17
 96
       13
 40
0.0
 40
0.0
 40
0.0
 40
0.0
 40
1.0
 40
1.0
 40
1.0
 40
2.0
 40
2.0
 40
2.0
 40
3.0
 40
3.0
 40
3.0
 40
4.0
 40
4.0
 40
4.0
 40
4.0
 10
145.8000030517578
 20
809.2999992370605
 10
145.8000030517578
 20
809.2999992370605
 10
177.6999969482422
 20
805.7999992370605
 10
173.5
 20
795.0
 10
169.3000030517578
 20
784.1999969482422
 10
145.1999969482422
 20
756.3000030517578
 10
135.3999938964844
 20
760.8000030517578
 10
125.5999908447266
 20
765.3000030517578
 10
110.4999923706055
 20
787.6000061035156
 10
115.6999969482422
 20
795.4000015258789
 10
120.8999938964844
 20
803.2000007629395
 10
135.8999938964844
 20
799.8000030517578
 10
142.5
 20
796.5
 97
        0
 72
     1
 10
142.5
 20
796.5
 11
145.8000030517578
 21
809.2999992370605
 97
        0
 75
     2
 76
     1
 98
        0
  0
SPLINE
  5
AE
330
A6
100
AcDbEntity
  8
Animal Clips
 62
     7
420
 16777215
370
    35
100
AcDbSpline
210
0.0
220
0.0
230
1.0
 70
    11
 71
     3
 72
    17
 73
    13
 74
     0
 42
0.0000000001
 43
0.0000000001
 12
1.0
 22
0.0
 32
0.0
 13
1.0
 23
0.0
 33
0.0
 40
0.0
 40
0.0
 40
0.0
 40
0.0
 40
1.0
 40
1.0
 40
1.0
 40
2.0
 40
2.0
 40
2.0
 40
3.0
 40
3.0
 40
3.0
 40
4.0
 40
4.0
 40
4.0
 40
4.0
 10
140.1999969482422
 20
783.0
 30
0.0
 10
140.1999969482422
 20
783.0
 30
0.0
 10
140.6999969482422
 20
790.3000030517578
 30
0.0
 10
147.0
 20
788.9000015258789
 30
0.0
 10
156.1000061035156
 20
786.9000015258789
 30
0.0
 10
140.1000061035156
 20
771.3000030517578
 30
0.0
 10
140.1000061035156
 20
771.3000030517578
 30
0.0
 10
140.1000061035156
 20
771.3000030517578
 30
0.0
 10
123.1000061035156
 20
788.0
 30
0.0
 10
134.6000061035156
 20
789.2000045776367
 30
0.0
 10
140.6000061035156
 20
789.9000015258789
 30
0.0
 10
140.1999969482422
 20
783.0
 30
0.0
 10
140.1999969482422
 20
783.0
 30
0.0
  0
ENDBLK
  5
A9
330
A6
100
AcDbEntity
  8
0
100
AcDbBlockEnd
  0
ENDSEC
  0
SECTION
  2
ENTITIES
  0
INSERT
  5
42
330
1F
100
AcDbEntity
  8
Animal Clips
100
AcDbBlockReference
  2
block 2
 10
0.0
 20
0.0
 30
0.0
  0
INSERT
  5
4E
330
1F
100
AcDbEntity
  8
Animal Clips
100
AcDbBlockReference
  2
block 3
 10
0.0
 20
0.0
 30
0.0
  0
INSERT
  5
57
330
1F
100
AcDbEntity
  8
Animal Clips
100
AcDbBlockReference
  2
block 4
 10
0.0
 20
0.0
 30
0.0
  0
INSERT
  5
5F
330
1F
100
AcDbEntity
  8
Animal Clips
100
AcDbBlockReference
  2
block 5
 10
0.0
 20
0.0
 30
0.0
  0
INSERT
  5
67
330
1F
100
AcDbEntity
  8
Animal Clips
100
AcDbBlockReference
  2
block 6
 10
0.0
 20
0.0
 30
0.0
  0
INSERT
  5
70
330
1F
100
AcDbEntity
  8
Animal Clips
100
AcDbBlockReference
  2
block 7
 10
0.0
 20
0.0
 30
0.0
  0
INSERT
  5
7B
330
1F
100
AcDbEntity
  8
Animal Clips
100
AcDbBlockReference
  2
block 8
 10
0.0
 20
0.0
 30
0.0
  0
INSERT
  5
A7
330
1F
100
AcDbEntity
  8
Animal Clips
100
AcDbBlockReference
  2
block 9
 10
0.0
 20
0.0
 30
0.0
  0
ENDSEC
  0
SECTION
  2
OBJECTS
  0
DICTIONARY
  5
C
330
0
100
AcDbDictionary
281
     1
  3
ACAD_GROUP
350
D
  3
ACAD_LAYOUT
350
1A
  3
ACAD_MATERIAL
350
3B
  3
ACAD_MLEADERSTYLE
350
B0
  3
ACAD_MLINESTYLE
350
17
  3
ACAD_PLOTSETTINGS
350
19
  3
ACAD_PLOTSTYLENAME
350
E
  3
ACAD_TABLESTYLE
350
AF
  3
ACAD_VISUALSTYLE
350
2A
  0
SUN
  5
3F
330
29
100
AcDbSun
 90
        1
290
     0
 63
     7
421
 16777215
 40
1.0
291
     1
 91
  2455826
 92
 54000000
292
     0
 70
     2
 71
   256
280
     1
  0
DICTIONARY
  5
D
102
{ACAD_REACTORS
330
C
102
}
330
C
100
AcDbDictionary
281
     1
  0
DICTIONARY
  5
1A
102
{ACAD_REACTORS
330
C
102
}
330
C
100
AcDbDictionary
281
     1
  3
Layout1
350
1E
  3
Layout2
350
26
  3
Model
350
22
  0
DICTIONARY
  5
3B
102
{ACAD_REACTORS
330
C
102
}
330
C
100
AcDbDictionary
281
     1
  3
ByBlock
350
3D
  3
ByLayer
350
3C
  3
Global
350
3E
  0
DICTIONARY
  5
B0
102
{ACAD_REACTORS
330
C
102
}
330
C
100
AcDbDictionary
281
     1
  0
DICTIONARY
  5
17
102
{ACAD_REACTORS
330
C
102
}
330
C
100
AcDbDictionary
281
     1
  3
Standard
350
18
  0
DICTIONARY
  5
19
102
{ACAD_REACTORS
330
C
102
}
330
C
100
AcDbDictionary
281
     1
  0
ACDBDICTIONARYWDFLT
  5
E
102
{ACAD_REACTORS
330
C
102
}
330
C
100
AcDbDictionary
281
     1
  3
Normal
350
F
100
AcDbDictionaryWithDefault
340
F
  0
DICTIONARY
  5
AF
102
{ACAD_REACTORS
330
C
102
}
330
C
100
AcDbDictionary
281
     1
  0
DICTIONARY
  5
2A
102
{ACAD_REACTORS
330
C
102
}
330
C
100
AcDbDictionary
281
     1
  3
2dWireframe
350
2F
  3
3D Hidden
350
31
  3
3dWireframe
350
30
  3
Basic
350
32
  3
Brighten
350
36
  3
ColorChange
350
3A
  3
Conceptual
350
34
  3
Dim
350
35
  3
Facepattern
350
39
  3
Flat
350
2B
  3
FlatWithEdges
350
2C
  3
Gouraud
350
2D
  3
GouraudWithEdges
350
2E
  3
Linepattern
350
38
  3
Realistic
350
33
  3
Thicken
350
37
  0
LAYOUT
  5
1E
102
{ACAD_REACTORS
330
1A
102
}
330
1A
100
AcDbPlotSettings
  1

  2
none_device
  4

  6

 40
0.0
 41
0.0
 42
0.0
 43
0.0
 44
0.0
 45
0.0
 46
0.0
 47
0.0
 48
0.0
 49
0.0
140
0.0
141
0.0
142
1.0
143
1.0
 70
   688
 72
     0
 73
     0
 74
     5
  7

 75
    16
 76
     0
 77
     2
 78
   300
147
1.0
148
0.0
149
0.0
100
AcDbLayout
  1
Layout1
 70
     1
 71
     1
 10
0.0
 20
0.0
 11
12.0
 21
9.0
 12
0.0
 22
0.0
 32
0.0
 14
1.000000000000000E+20
 24
1.000000000000000E+20
 34
1.000000000000000E+20
 15
-1.000000000000000E+20
 25
-1.000000000000000E+20
 35
-1.000000000000000E+20
146
0.0
 13
0.0
 23
0.0
 33
0.0
 16
1.0
 26
0.0
 36
0.0
 17
0.0
 27
1.0
 37
0.0
 76
     0
330
1B
  0
LAYOUT
  5
26
102
{ACAD_REACTORS
330
1A
102
}
330
1A
100
AcDbPlotSettings
  1

  2
none_device
  4

  6

 40
0.0
 41
0.0
 42
0.0
 43
0.0
 44
0.0
 45
0.0
 46
0.0
 47
0.0
 48
0.0
 49
0.0
140
0.0
141
0.0
142
1.0
143
1.0
 70
   688
 72
     0
 73
     0
 74
     5
  7

 75
    16
 76
     0
 77
     2
 78
   300
147
1.0
148
0.0
149
0.0
100
AcDbLayout
  1
Layout2
 70
     1
 71
     2
 10
0.0
 20
0.0
 11
0.0
 21
0.0
 12
0.0
 22
0.0
 32
0.0
 14
0.0
 24
0.0
 34
0.0
 15
0.0
 25
0.0
 35
0.0
146
0.0
 13
0.0
 23
0.0
 33
0.0
 16
1.0
 26
0.0
 36
0.0
 17
0.0
 27
1.0
 37
0.0
 76
     0
330
23
  0
LAYOUT
  5
22
102
{ACAD_REACTORS
330
1A
102
}
330
1A
100
AcDbPlotSettings
  1

  2
none_device
  4

  6

 40
0.0
 41
0.0
 42
0.0
 43
0.0
 44
0.0
 45
0.0
 46
0.0
 47
0.0
 48
0.0
 49
0.0
140
0.0
141
0.0
142
1.0
143
1.0
 70
  1712
 72
     0
 73
     0
 74
     0
  7

 75
     0
 76
     0
 77
     2
 78
   300
147
1.0
148
0.0
149
0.0
100
AcDbLayout
  1
Model
 70
     1
 71
     0
 10
0.0
 20
0.0
 11
12.0
 21
9.0
 12
0.0
 22
0.0
 32
0.0
 14
1.000000000000000E+20
 24
1.000000000000000E+20
 34
1.000000000000000E+20
 15
-1.000000000000000E+20
 25
-1.000000000000000E+20
 35
-1.000000000000000E+20
146
0.0
 13
0.0
 23
0.0
 33
0.0
 16
1.0
 26
0.0
 36
0.0
 17
0.0
 27
1.0
 37
0.0
 76
     0
330
1F
331
29
  0
MATERIAL
  5
3D
102
{ACAD_REACTORS
330
3B
102
}
330
3B
100
AcDbMaterial
  1
ByBlock
 72
     1
 94
      127
  0
MATERIAL
  5
3C
102
{ACAD_REACTORS
330
3B
102
}
330
3B
100
AcDbMaterial
  1
ByLayer
 72
     1
 94
      127
  0
MATERIAL
  5
3E
102
{ACAD_REACTORS
330
3B
102
}
330
3B
100
AcDbMaterial
  1
Global
 72
     1
 94
      127
  0
MLINESTYLE
  5
18
102
{ACAD_REACTORS
330
17
102
}
330
17
100
AcDbMlineStyle
  2
Standard
 70
     0
  3

 62
   256
 51
90.0
 52
90.0
 71
     2
 49
0.5
 62
   256
  6
BYLAYER
 49
-0.5
 62
   256
  6
BYLAYER
  0
ACDBPLACEHOLDER
  5
F
102
{ACAD_REACTORS
330
E
102
}
330
E
  0
VISUALSTYLE
  5
2F
102
{ACAD_REACTORS
330
2A
102
}
330
2A
100
AcDbVisualStyle
  2
2dWireframe
 70
     4
177
     2
291
     0
 71
     0
176
     1
 72
     2
176
     1
 73
     0
176
     1
 90
        0
176
     1
 40
-0.6
176
     1
 41
-30.0
176
     1
 62
     5
 63
     7
421
 16777215
176
     1
 74
     1
176
     1
 91
        4
176
     1
 64
     7
176
     1
 65
   257
176
     1
 75
     1
176
     1
175
     1
176
     1
 42
1.0
176
     1
 92
        0
176
     1
 66
   257
176
     1
 43
1.0
176
     1
 76
     1
176
     1
 77
     6
176
     1
 78
     2
176
     1
 67
     7
176
     1
 79
     5
176
     1
170
     0
176
     1
171
     0
176
     1
290
     0
176
     1
 93
        1
176
     1
 44
0.0
176
     1
173
     0
176
     1
  0
VISUALSTYLE
  5
31
102
{ACAD_REACTORS
330
2A
102
}
330
2A
100
AcDbVisualStyle
  2
3D Hidden
 70
     6
177
     2
291
     0
 71
     1
176
     1
 72
     2
176
     1
 73
     2
176
     1
 90
        0
176
     1
 40
-0.6
176
     1
 41
-30.0
176
     1
 62
     5
 63
     7
421
 16777215
176
     1
 74
     2
176
     1
 91
        2
176
     1
 64
     7
176
     1
 65
   257
176
     1
 75
     2
176
     1
175
     1
176
     1
 42
40.0
176
     1
 92
        0
176
     1
 66
   257
176
     1
 43
1.0
176
     1
 76
     1
176
     1
 77
     6
176
     1
 78
     2
176
     1
 67
     7
176
     1
 79
     3
176
     1
170
     0
176
     1
171
     0
176
     1
290
     0
176
     1
 93
        1
176
     1
 44
0.0
176
     1
173
     0
176
     1
  0
VISUALSTYLE
  5
30
102
{ACAD_REACTORS
330
2A
102
}
330
2A
100
AcDbVisualStyle
  2
3dWireframe
 70
     5
177
     2
291
     0
 71
     0
176
     1
 72
     2
176
     1
 73
     0
176
     1
 90
        0
176
     1
 40
-0.6
176
     1
 41
-30.0
176
     1
 62
     5
 63
     7
421
 16777215
176
     1
 74
     1
176
     1
 91
        4
176
     1
 64
     7
176
     1
 65
   257
176
     1
 75
     1
176
     1
175
     1
176
     1
 42
1.0
176
     1
 92
        0
176
     1
 66
   257
176
     1
 43
1.0
176
     1
 76
     1
176
     1
 77
     6
176
     1
 78
     2
176
     1
 67
     7
176
     1
 79
     5
176
     1
170
     0
176
     1
171
     0
176
     1
290
     0
176
     1
 93
        1
176
     1
 44
0.0
176
     1
173
     0
176
     1
  0
VISUALSTYLE
  5
32
102
{ACAD_REACTORS
330
2A
102
}
330
2A
100
AcDbVisualStyle
  2
Basic
 70
     7
177
     2
291
     1
 71
     1
176
     1
 72
     0
176
     1
 73
     1
176
     1
 90
        0
176
     1
 40
-0.6
176
     1
 41
-30.0
176
     1
 62
     5
 63
     7
421
 16777215
176
     1
 74
     0
176
     1
 91
        4
176
     1
 64
     7
176
     1
 65
   257
176
     1
 75
     1
176
     1
175
     1
176
     1
 42
1.0
176
     1
 92
        8
176
     1
 66
     7
176
     1
 43
1.0
176
     1
 76
     1
176
     1
 77
     6
176
     1
 78
     2
176
     1
 67
     7
176
     1
 79
     5
176
     1
170
     0
176
     1
171
     0
176
     1
290
     0
176
     1
 93
        1
176
     1
 44
0.0
176
     1
173
     0
176
     1
  0
VISUALSTYLE
  5
36
102
{ACAD_REACTORS
330
2A
102
}
330
2A
100
AcDbVisualStyle
  2
Brighten
 70
    12
177
     2
291
     1
 71
     2
176
     1
 72
     2
176
     1
 73
     0
176
     1
 90
        0
176
     1
 40
-0.6
176
     1
 41
-30.0
176
     1
 62
     5
 63
     7
421
 16777215
176
     1
 74
     1
176
     1
 91
        4
176
     1
 64
     7
176
     1
 65
   257
176
     1
 75
     1
176
     1
175
     1
176
     1
 42
1.0
176
     1
 92
        8
176
     1
 66
     7
176
     1
 43
1.0
176
     1
 76
     1
176
     1
 77
     6
176
     1
 78
     2
176
     1
 67
     7
176
     1
 79
     5
176
     1
170
     0
176
     1
171
     0
176
     1
290
     0
176
     1
 93
        1
176
     1
 44
50.0
176
     1
173
     0
176
     1
  0
VISUALSTYLE
  5
3A
102
{ACAD_REACTORS
330
2A
102
}
330
2A
100
AcDbVisualStyle
  2
ColorChange
 70
    16
177
     2
291
     1
 71
     2
176
     1
 72
     2
176
     1
 73
     3
176
     1
 90
        0
176
     1
 40
-0.6
176
     1
 41
-30.0
176
     1
 62
     5
 63
     8
421
  8421504
176
     1
 74
     1
176
     1
 91
        4
176
     1
 64
     7
176
     1
 65
   257
176
     1
 75
     1
176
     1
175
     1
176
     1
 42
1.0
176
     1
 92
        8
176
     1
 66
     8
424
  8421504
176
     1
 43
1.0
176
     1
 76
     1
176
     1
 77
     6
176
     1
 78
     2
176
     1
 67
     7
176
     1
 79
     5
176
     1
170
     0
176
     1
171
     0
176
     1
290
     0
176
     1
 93
        1
176
     1
 44
0.0
176
     1
173
     0
176
     1
  0
VISUALSTYLE
  5
34
102
{ACAD_REACTORS
330
2A
102
}
330
2A
100
AcDbVisualStyle
  2
Conceptual
 70
     9
177
     2
291
     0
 71
     3
176
     1
 72
     2
176
     1
 73
     0
176
     1
 90
        0
176
     1
 40
-0.6
176
     1
 41
-30.0
176
     1
 62
     5
 63
     7
421
 16777215
176
     1
 74
     2
176
     1
 91
        2
176
     1
 64
     7
176
     1
 65
   257
176
     1
 75
     1
176
     1
175
     1
176
     1
 42
40.0
176
     1
 92
        8
176
     1
 66
     7
176
     1
 43
1.0
176
     1
 76
     1
176
     1
 77
     6
176
     1
 78
     2
176
     1
 67
     7
176
     1
 79
     3
176
     1
170
     0
176
     1
171
     0
176
     1
290
     0
176
     1
 93
        1
176
     1
 44
0.0
176
     1
173
     0
176
     1
  0
VISUALSTYLE
  5
35
102
{ACAD_REACTORS
330
2A
102
}
330
2A
100
AcDbVisualStyle
  2
Dim
 70
    11
177
     2
291
     1
 71
     2
176
     1
 72
     2
176
     1
 73
     0
176
     1
 90
        0
176
     1
 40
-0.6
176
     1
 41
-30.0
176
     1
 62
     5
 63
     7
421
 16777215
176
     1
 74
     1
176
     1
 91
        4
176
     1
 64
     7
176
     1
 65
   257
176
     1
 75
     1
176
     1
175
     1
176
     1
 42
1.0
176
     1
 92
        8
176
     1
 66
     7
176
     1
 43
1.0
176
     1
 76
     1
176
     1
 77
     6
176
     1
 78
     2
176
     1
 67
     7
176
     1
 79
     5
176
     1
170
     0
176
     1
171
     0
176
     1
290
     0
176
     1
 93
        1
176
     1
 44
-50.0
176
     1
173
     0
176
     1
  0
VISUALSTYLE
  5
39
102
{ACAD_REACTORS
330
2A
102
}
330
2A
100
AcDbVisualStyle
  2
Facepattern
 70
    15
177
     2
291
     1
 71
     2
176
     1
 72
     2
176
     1
 73
     0
176
     1
 90
        0
176
     1
 40
-0.6
176
     1
 41
-30.0
176
     1
 62
     5
 63
     7
421
 16777215
176
     1
 74
     1
176
     1
 91
        4
176
     1
 64
     7
176
     1
 65
   257
176
     1
 75
     1
176
     1
175
     1
176
     1
 42
1.0
176
     1
 92
        8
176
     1
 66
     7
176
     1
 43
1.0
176
     1
 76
     1
176
     1
 77
     6
176
     1
 78
     2
176
     1
 67
     7
176
     1
 79
     5
176
     1
170
     0
176
     1
171
     0
176
     1
290
     0
176
     1
 93
        1
176
     1
 44
0.0
176
     1
173
     0
176
     1
  0
VISUALSTYLE
  5
2B
102
{ACAD_REACTORS
330
2A
102
}
330
2A
100
AcDbVisualStyle
  2
Flat
 70
     0
177
     2
291
     1
 71
     2
176
     1
 72
     1
176
     1
 73
     1
176
     1
 90
        2
176
     1
 40
-0.6
176
     1
 41
30.0
176
     1
 62
     5
 63
     7
421
 16777215
176
     1
 74
     0
176
     1
 91
        4
176
     1
 64
     7
176
     1
 65
   257
176
     1
 75
     1
176
     1
175
     1
176
     1
 42
1.0
176
     1
 92
        8
176
     1
 66
     7
176
     1
 43
1.0
176
     1
 76
     1
176
     1
 77
     6
176
     1
 78
     2
176
     1
 67
     7
176
     1
 79
     5
176
     1
170
     0
176
     1
171
     0
176
     1
290
     0
176
     1
 93
       13
176
     1
 44
0.0
176
     1
173
     0
176
     1
  0
VISUALSTYLE
  5
2C
102
{ACAD_REACTORS
330
2A
102
}
330
2A
100
AcDbVisualStyle
  2
FlatWithEdges
 70
     1
177
     2
291
     1
 71
     2
176
     1
 72
     1
176
     1
 73
     1
176
     1
 90
        2
176
     1
 40
-0.6
176
     1
 41
30.0
176
     1
 62
     5
 63
     7
421
 16777215
176
     1
 74
     1
176
     1
 91
        4
176
     1
 64
     7
176
     1
 65
   257
176
     1
 75
     1
176
     1
175
     1
176
     1
 42
1.0
176
     1
 92
        0
176
     1
 66
   257
176
     1
 43
1.0
176
     1
 76
     1
176
     1
 77
     6
176
     1
 78
     2
176
     1
 67
     7
176
     1
 79
     5
176
     1
170
     0
176
     1
171
     0
176
     1
290
     0
176
     1
 93
       13
176
     1
 44
0.0
176
     1
173
     0
176
     1
  0
VISUALSTYLE
  5
2D
102
{ACAD_REACTORS
330
2A
102
}
330
2A
100
AcDbVisualStyle
  2
Gouraud
 70
     2
177
     2
291
     1
 71
     2
176
     1
 72
     2
176
     1
 73
     1
176
     1
 90
        2
176
     1
 40
-0.6
176
     1
 41
30.0
176
     1
 62
     5
 63
     7
421
 16777215
176
     1
 74
     0
176
     1
 91
        4
176
     1
 64
     7
176
     1
 65
   257
176
     1
 75
     1
176
     1
175
     1
176
     1
 42
1.0
176
     1
 92
        0
176
     1
 66
     7
176
     1
 43
1.0
176
     1
 76
     1
176
     1
 77
     6
176
     1
 78
     2
176
     1
 67
     7
176
     1
 79
     5
176
     1
170
     0
176
     1
171
     0
176
     1
290
     0
176
     1
 93
       13
176
     1
 44
0.0
176
     1
173
     0
176
     1
  0
VISUALSTYLE
  5
2E
102
{ACAD_REACTORS
330
2A
102
}
330
2A
100
AcDbVisualStyle
  2
GouraudWithEdges
 70
     3
177
     2
291
     1
 71
     2
176
     1
 72
     2
176
     1
 73
     1
176
     1
 90
        2
176
     1
 40
-0.6
176
     1
 41
30.0
176
     1
 62
     5
 63
     7
421
 16777215
176
     1
 74
     1
176
     1
 91
        4
176
     1
 64
     7
176
     1
 65
   257
176
     1
 75
     1
176
     1
175
     1
176
     1
 42
1.0
176
     1
 92
        0
176
     1
 66
   257
176
     1
 43
1.0
176
     1
 76
     1
176
     1
 77
     6
176
     1
 78
     2
176
     1
 67
     7
176
     1
 79
     5
176
     1
170
     0
176
     1
171
     0
176
     1
290
     0
176
     1
 93
       13
176
     1
 44
0.0
176
     1
173
     0
176
     1
  0
VISUALSTYLE
  5
38
102
{ACAD_REACTORS
330
2A
102
}
330
2A
100
AcDbVisualStyle
  2
Linepattern
 70
    14
177
     2
291
     1
 71
     2
176
     1
 72
     2
176
     1
 73
     0
176
     1
 90
        0
176
     1
 40
-0.6
176
     1
 41
-30.0
176
     1
 62
     5
 63
     7
421
 16777215
176
     1
 74
     1
176
     1
 91
        4
176
     1
 64
     7
176
     1
 65
   257
176
     1
 75
     7
176
     1
175
     7
176
     1
 42
1.0
176
     1
 92
        8
176
     1
 66
     7
176
     1
 43
1.0
176
     1
 76
     1
176
     1
 77
     6
176
     1
 78
     2
176
     1
 67
     7
176
     1
 79
     5
176
     1
170
     0
176
     1
171
     0
176
     1
290
     0
176
     1
 93
        1
176
     1
 44
0.0
176
     1
173
     0
176
     1
  0
VISUALSTYLE
  5
33
102
{ACAD_REACTORS
330
2A
102
}
330
2A
100
AcDbVisualStyle
  2
Realistic
 70
     8
177
     2
291
     0
 71
     2
176
     1
 72
     2
176
     1
 73
     0
176
     1
 90
        0
176
     1
 40
-0.6
176
     1
 41
-30.0
176
     1
 62
     5
 63
     7
421
 16777215
176
     1
 74
     1
176
     1
 91
        0
176
     1
 64
     7
176
     1
 65
   257
176
     1
 75
     1
176
     1
175
     1
176
     1
 42
1.0
176
     1
 92
        8
176
     1
 66
     8
424
  7895160
176
     1
 43
1.0
176
     1
 76
     1
176
     1
 77
     6
176
     1
 78
     2
176
     1
 67
     7
176
     1
 79
     5
176
     1
170
     0
176
     1
171
     0
176
     1
290
     0
176
     1
 93
       13
176
     1
 44
0.0
176
     1
173
     0
176
     1
  0
VISUALSTYLE
  5
37
102
{ACAD_REACTORS
330
2A
102
}
330
2A
100
AcDbVisualStyle
  2
Thicken
 70
    13
177
     2
291
     1
 71
     2
176
     1
 72
     2
176
     1
 73
     0
176
     1
 90
        0
176
     1
 40
-0.6
176
     1
 41
-30.0
176
     1
 62
     5
 63
     7
421
 16777215
176
     1
 74
     1
176
     1
 91
        4
176
     1
 64
     7
176
     1
 65
   257
176
     1
 75
     1
176
     1
175
     1
176
     1
 42
1.0
176
     1
 92
       12
176
     1
 66
     7
176
     1
 43
1.0
176
     1
 76
     1
176
     1
 77
     6
176
     1
 78
     2
176
     1
 67
     7
176
     1
 79
     5
176
     1
170
     0
176
     1
171
     0
176
     1
290
     0
176
     1
 93
        1
176
     1
 44
0.0
176
     1
173
     0
176
     1
  0
ENDSEC
  0
EOF
