<?xml version="1.0" encoding="UTF-8" standalone="no"?>
<svg
   sodipodi:docname="C-01.svg"
   inkscape:version="1.3.2 (091e20e, 2023-11-25, custom)"
   id="svg2594"
   version="1.1"
   viewBox="0 0 210 297"
   height="297mm"
   width="210mm"
   xmlns:inkscape="http://www.inkscape.org/namespaces/inkscape"
   xmlns:sodipodi="http://sodipodi.sourceforge.net/DTD/sodipodi-0.dtd"
   xmlns="http://www.w3.org/2000/svg"
   xmlns:svg="http://www.w3.org/2000/svg"
   xmlns:rdf="http://www.w3.org/1999/02/22-rdf-syntax-ns#"
   xmlns:cc="http://creativecommons.org/ns#"
   xmlns:dc="http://purl.org/dc/elements/1.1/">
  <defs
     id="defs2588" />
  <sodipodi:namedview
     inkscape:window-maximized="1"
     inkscape:window-y="-9"
     inkscape:window-x="-9"
     inkscape:window-height="1001"
     inkscape:window-width="1920"
     showgrid="false"
     inkscape:document-rotation="0"
     inkscape:current-layer="layer1"
     inkscape:document-units="mm"
     inkscape:cy="559.80202"
     inkscape:cx="399.57945"
     inkscape:zoom="0.51178808"
     inkscape:pageshadow="2"
     inkscape:pageopacity="0.0"
     borderopacity="1.0"
     bordercolor="#666666"
     pagecolor="#ffffff"
     id="base"
     inkscape:showpageshadow="2"
     inkscape:pagecheckerboard="0"
     inkscape:deskcolor="#d1d1d1" />
  <metadata
     id="metadata2591">
    <rdf:RDF>
      <cc:Work
         rdf:about="">
        <dc:format>image/svg+xml</dc:format>
        <dc:type
           rdf:resource="http://purl.org/dc/dcmitype/StillImage" />
        <dc:title />
      </cc:Work>
    </rdf:RDF>
  </metadata>
  <g
     id="layer1"
     inkscape:groupmode="layer"
     inkscape:label="Layer 1">
    <path
       id="path3171"
       d="m 111.57273,128.73259 c -0.75709,-1.78569 -2.27946,-4.55906 -3.6277,-6.60873 -0.83986,-1.27681 -1.13979,-1.91425 -1.80813,-3.84277 -0.93784,-2.70621 -1.27972,-5.54754 -0.89224,-7.41539 0.60984,-2.93979 1.41631,-5.23244 2.279,-6.47883 0.35167,-0.50807 0.84255,-1.43798 0.94204,-1.78458 0.33735,-1.17516 0.44919,-1.69396 0.52901,-2.45379 0.0554,-0.52731 0.043,-0.860423 -0.0319,-0.860423 -0.17064,0 -1.80242,1.167543 -2.26557,1.621013 -0.21032,0.20592 -0.70096,0.6568 -1.09031,1.00194 -0.38934,0.34514 -1.15721,1.02906 -1.70638,1.51981 -3.15934,2.82334 -5.161278,3.92279 -7.877127,4.32606 -2.470802,0.36688 -4.360472,0.21266 -6.308278,-0.51482 -0.475029,-0.17742 -2.269047,-1.02485 -3.986705,-1.88317 -4.148335,-2.07293 -5.806419,-2.58395 -7.705821,-2.37488 l -0.715489,0.0788 0.928304,-0.95875 c 0.51057,-0.52732 0.95868,-0.98943 0.995802,-1.02693 0.197864,-0.19988 1.901681,-2.05535 2.246668,-2.446643 0.221163,-0.250849 0.676105,-0.879506 1.01098,-1.39701 1.600082,-2.472719 2.091452,-3.144611 2.919797,-3.992481 1.347814,-1.379585 2.586681,-2.174125 4.335061,-2.780266 0.725148,-0.251399 1.121877,-0.269333 7.648196,-0.345724 3.785852,-0.04431 6.969412,-0.116077 7.074582,-0.159477 0.10516,-0.0434 0.35568,-0.115158 0.55668,-0.159463 0.34005,-0.07495 0.24247,-0.157242 -1.40217,-1.182492 -5.33657,-3.326764 -8.567746,-5.83665 -9.724438,-7.55367 -1.121744,-1.665138 -1.754575,-3.689754 -2.059444,-6.58877 -0.286433,-2.723694 0.191757,-5.484834 1.408691,-8.134006 0.434097,-0.944992 1.10016,-3.369135 1.182988,-4.305485 l 0.03131,-0.353917 1.210964,0.721497 c 1.471286,0.876597 1.867614,1.050635 3.930186,1.725837 4.135113,1.353667 7.717393,3.278313 9.246193,4.967689 0.36547,0.403858 0.93068,1.239692 1.25603,1.857407 0.5694,1.081095 0.74687,1.524805 1.16295,2.907697 0.10546,0.350542 0.3442,1.124923 0.53053,1.720844 0.42297,1.352834 1.3258,4.39665 1.45563,4.907592 0.0534,0.210325 0.22689,0.812621 0.38544,1.338435 0.15854,0.525813 0.31221,1.035936 0.34148,1.133606 0.0791,0.263811 0.14262,0.145362 0.37166,-0.692793 0.19809,-0.724895 0.2949,-1.072697 0.55734,-2.00232 1.01057,-3.579489 2.24208,-6.615671 3.20115,-7.892066 2.16589,-2.882541 5.99244,-5.523044 8.85504,-6.110414 0.63085,-0.129442 2.12225,-0.294845 3.31422,-0.367562 5.30866,-0.323859 6.68663,-0.491749 7.86422,-0.958169 0.19432,-0.07696 0.20137,-0.03682 0.0709,0.403386 -0.20061,0.67653 -0.19285,4.851833 0.0111,5.976894 0.30958,1.707751 -0.23385,5.097689 -1.27605,7.960039 -0.76809,2.109518 -1.32445,3.006108 -2.83624,4.570682 -2.14635,2.221309 -3.88995,3.330273 -7.12934,4.534396 -1.60789,0.597681 -2.87244,1.186572 -2.73397,1.273198 0.0212,0.01326 0.98504,-0.0076 2.14182,-0.04641 4.02598,-0.135021 6.46578,0.105673 9.6446,0.951474 3.02122,0.803871 5.6511,2.168119 6.93736,3.598757 0.908,1.009907 1.20195,1.709892 2.60686,6.207708 0.91716,2.93629 1.73191,4.48952 2.86273,5.45745 l 0.51865,0.44395 -1.05563,0.15403 c -3.1403,0.4582 -4.85529,0.81489 -6.21817,1.29326 -2.4916,0.87458 -4.10588,1.18094 -6.24602,1.18537 -1.74477,0.004 -1.91325,-0.0185 -3.00733,-0.3956 -1.31865,-0.45444 -4.00116,-1.70095 -5.18352,-2.40867 -2.35496,-1.4096 -5.06281,-3.4067 -6.35982,-4.69051 -0.32598,-0.32267 -0.62353,-0.58668 -0.66122,-0.58668 -0.0658,0 0.55406,1.48357 0.81211,1.94367 0.26083,0.46504 1.1895,2.89705 1.66719,4.3661 0.32864,1.01063 0.53216,1.91889 0.59983,2.67687 0.19202,2.15093 -0.1697,5.3121 -0.87517,7.64819 -0.1482,0.49076 -0.30348,1.00701 -0.34506,1.14723 -0.0416,0.14022 -0.30423,0.70809 -0.58365,1.26195 -0.91981,1.82316 -2.02598,2.77261 -6.54088,5.6142 -1.40675,0.88537 -2.61282,2.1158 -2.94233,3.00173 l -0.26038,0.70006 z"
       style="fill:#000000;stroke-width:0.12747" />
  </g>
</svg>
