<?xml version="1.0" encoding="UTF-8" standalone="no"?>
<svg
   xmlns:dc="http://purl.org/dc/elements/1.1/"
   xmlns:cc="http://creativecommons.org/ns#"
   xmlns:rdf="http://www.w3.org/1999/02/22-rdf-syntax-ns#"
   xmlns:svg="http://www.w3.org/2000/svg"
   xmlns="http://www.w3.org/2000/svg"
   xmlns:sodipodi="http://sodipodi.sourceforge.net/DTD/sodipodi-0.dtd"
   xmlns:inkscape="http://www.inkscape.org/namespaces/inkscape"
   width="210mm"
   height="297mm"
   viewBox="0 0 210 297"
   version="1.1"
   id="svg8"
   inkscape:version="1.0 (4035a4fb49, 2020-05-01)"
   sodipodi:docname="C-02.svg">
  <defs
     id="defs2" />
  <sodipodi:namedview
     id="base"
     pagecolor="#ffffff"
     bordercolor="#666666"
     borderopacity="1.0"
     inkscape:pageopacity="0.0"
     inkscape:pageshadow="2"
     inkscape:zoom="2.9714164"
     inkscape:cx="275.10728"
     inkscape:cy="367.22992"
     inkscape:document-units="mm"
     inkscape:current-layer="layer1"
     inkscape:document-rotation="0"
     showgrid="false"
     inkscape:window-width="2160"
     inkscape:window-height="1346"
     inkscape:window-x="-11"
     inkscape:window-y="-11"
     inkscape:window-maximized="1" />
  <metadata
     id="metadata5">
    <rdf:RDF>
      <cc:Work
         rdf:about="">
        <dc:format>image/svg+xml</dc:format>
        <dc:type
           rdf:resource="http://purl.org/dc/dcmitype/StillImage" />
        <dc:title />
      </cc:Work>
    </rdf:RDF>
  </metadata>
  <g
     inkscape:label="Layer 1"
     inkscape:groupmode="layer"
     id="layer1">
    <path
       style="fill:#000000;stroke-width:0.126691"
       d="m 94.201994,118.65516 c -0.601778,-0.1531 -1.581613,-0.94009 -2.386957,-1.91719 -0.328233,-0.39824 -0.374617,-0.41581 -0.720052,-0.27273 -0.532833,0.22071 -1.192006,0.20899 -1.553098,-0.0276 -0.336893,-0.22074 -0.705513,-0.89846 -0.878869,-1.61584 -0.09857,-0.4079 -0.553864,-2.54184 -0.703216,-3.29594 -0.325755,-1.64482 -1.213626,-3.84023 -1.804816,-4.4627 -0.891031,-0.93819 -1.75247,-2.46717 -2.285914,-4.0573 -0.157784,-0.47034 -0.310197,-0.85517 -0.338683,-0.85517 -0.02851,0 -0.405623,0.28958 -0.838074,0.64351 -0.432443,0.35393 -0.894349,0.73106 -1.026449,0.83807 -0.750606,0.60803 -3.868661,2.88213 -4.515164,3.29306 -1.329271,0.8449 -2.016793,1.38079 -3.014268,2.34949 -1.276559,1.23971 -1.991597,1.74427 -2.471897,1.74427 -0.461396,0 -1.152991,-0.44614 -1.37327,-0.88588 -0.08753,-0.17473 -0.168092,-0.33425 -0.179038,-0.3545 -0.01092,-0.0203 -0.235758,0.0905 -0.499578,0.24619 -0.366077,0.21599 -0.662413,0.27966 -1.251211,0.26883 -0.424342,-0.008 -0.942566,-0.008 -1.151605,-1.3e-4 -1.584557,0.0585 -2.091792,0.0187 -2.290208,-0.17993 -0.353436,-0.35377 -0.358715,-1.20268 -0.01609,-2.5886 0.316338,-1.27957 0.32551,-1.95371 0.02658,-1.95371 -0.08786,0 -0.227326,-0.0814 -0.309917,-0.18093 -0.367844,-0.44323 0.455341,-1.2716 2.843009,-2.8609 1.753676,-1.16731 2.375155,-1.67168 2.605261,-2.11433 0.515846,-0.992351 1.861816,-3.24144 2.373231,-3.965628 1.077402,-1.525654 3.066671,-3.373077 4.016598,-3.730176 0.238394,-0.08962 0.231456,-0.111393 -0.117189,-0.367973 -0.602525,-0.443397 -3.252267,-2.612533 -3.927105,-3.214799 -1.167729,-1.042157 -3.764343,-2.335386 -6.466926,-3.220829 -1.195791,-0.391776 -1.501593,-0.587628 -1.790825,-1.146929 -0.248808,-0.481147 -0.220976,-0.741951 0.125371,-1.174832 l 0.301176,-0.37642 -0.289871,-0.383724 c -0.519352,-0.687508 -1.122724,-2.01624 -1.110549,-2.445624 0.0094,-0.331787 -0.0589,-0.451498 -0.340774,-0.597259 -0.457388,-0.236527 -1.016171,-0.904018 -1.016171,-1.213865 0,-0.624131 2.280254,-1.549385 3.708951,-1.504977 0.364052,0.01131 0.889946,-0.06851 1.16867,-0.177386 1.131652,-0.442063 2.271778,-0.154561 3.909709,0.985897 1.27176,0.885501 2.437284,1.367158 4.332384,1.790369 2.415737,0.539476 5.08424,1.542173 7.937692,2.982593 0.918475,0.463644 0.685037,0.630773 2.050327,-1.467936 1.004292,-1.543775 2.802019,-3.508247 3.852601,-4.209927 1.866218,-1.246444 2.91173,-2.258159 3.899379,-3.773345 0.741908,-1.138194 1.236767,-1.685032 1.676573,-1.852671 0.457496,-0.174383 1.504422,-0.131619 2.016577,0.08237 0.448719,0.187489 0.488905,0.181419 1.167822,-0.176399 1.011158,-0.532923 2.477739,-1.031303 3.034819,-1.031303 0.80352,0 0.92714,0.25498 0.914,1.885281 -0.0103,1.283252 0.009,1.399128 0.24024,1.472657 0.19171,0.06085 0.25145,0.192287 0.25145,0.553233 0,0.53594 -0.40671,1.245343 -1.28044,2.233367 -1.420815,1.606684 -2.249394,2.708584 -2.705654,3.59814 -0.186457,0.363527 -0.761559,2.165951 -0.893329,2.799777 -0.09288,0.446744 -0.705177,2.660064 -0.933631,3.374858 -0.278472,0.8713 -0.705528,1.770368 -1.000032,2.105331 -0.107594,0.122368 -0.161663,0.256444 -0.120156,0.297944 0.04152,0.04152 0.777548,0.126613 1.635654,0.189136 4.969378,0.36207 7.267278,0.688722 9.718758,1.381552 3.07135,0.868011 3.65264,1.180536 4.29007,2.306537 0.63811,1.127184 1.38894,2.030835 2.06254,2.482304 0.40891,0.274077 0.62812,0.506251 0.60361,0.639299 -0.0559,0.303288 -0.96724,0.710384 -2.69902,1.205624 -1.07616,0.307756 -1.50647,0.484754 -1.47296,0.605872 0.0261,0.09411 0.0545,0.418057 0.0633,0.719872 0.0137,0.469814 -0.0435,0.601964 -0.39774,0.918518 -0.50621,0.452382 -0.94994,0.47003 -3.83042,0.152334 -1.9855,-0.218987 -9.630856,-0.329339 -9.818434,-0.141718 -0.04633,0.04633 0.03893,0.502444 0.189488,1.013535 0.440136,1.494 0.914985,3.16071 1.203204,4.22322 0.09451,0.3484 0.296471,1.08955 0.448812,1.64699 0.976854,3.57441 1.432483,5.93673 1.443357,7.48342 0.0077,1.09574 -0.03239,1.35599 -0.28452,1.84636 -0.301147,0.58573 -0.820549,0.99558 -1.261712,0.99558 -0.201548,0 -0.264524,0.11503 -0.329425,0.60178 -0.184935,1.38701 -1.189442,2.15199 -2.41601,1.83994 z"
       id="path861" />
  </g>
</svg>
