<?xml version="1.0" encoding="UTF-8" standalone="no"?>
<!-- Created with Inkscape (http://www.inkscape.org/) -->

<svg
   width="210mm"
   height="297mm"
   viewBox="0 0 210 297"
   version="1.1"
   id="svg1"
   xml:space="preserve"
   inkscape:version="1.3.2 (091e20e, 2023-11-25, custom)"
   sodipodi:docname="L-01.svg"
   xmlns:inkscape="http://www.inkscape.org/namespaces/inkscape"
   xmlns:sodipodi="http://sodipodi.sourceforge.net/DTD/sodipodi-0.dtd"
   xmlns="http://www.w3.org/2000/svg"
   xmlns:svg="http://www.w3.org/2000/svg"><sodipodi:namedview
     id="namedview1"
     pagecolor="#ffffff"
     bordercolor="#000000"
     borderopacity="0.25"
     inkscape:showpageshadow="2"
     inkscape:pageopacity="0.0"
     inkscape:pagecheckerboard="0"
     inkscape:deskcolor="#d1d1d1"
     inkscape:document-units="mm"
     inkscape:zoom="0.99150695"
     inkscape:cx="365.6051"
     inkscape:cy="586.48101"
     inkscape:window-width="1920"
     inkscape:window-height="1001"
     inkscape:window-x="-9"
     inkscape:window-y="-9"
     inkscape:window-maximized="1"
     inkscape:current-layer="layer1" /><defs
     id="defs1" /><g
     inkscape:label="Layer 1"
     inkscape:groupmode="layer"
     id="layer1"><path
       style="fill:#000000;fill-opacity:1;stroke:none;stroke-width:0.170365;stroke-dasharray:none;stroke-opacity:1"
       d="m 63.776096,178.85623 c -0.008,-1.43847 -0.952357,-3.69452 -3.125778,-7.46767 -0.575722,-0.99947 -1.182537,-2.08718 -1.348479,-2.41712 -2.396172,-4.7643 -2.137119,-11.88477 0.606249,-16.66376 0.881517,-1.53562 4.237604,-5.93551 7.289457,-9.55662 4.580646,-5.43507 5.635062,-7.25384 4.163457,-7.18158 -0.26654,0.0131 -0.612387,0.0742 -0.768559,0.13574 -0.116205,0.0458 -3.149804,1.80558 -6.72798,3.47368 -3.578175,1.66808 -7.700926,3.24448 -8.277191,3.35307 -1.471459,0.27728 -5.896702,0.91464 -8.618783,0.59275 -11.199287,-1.77159 -15.292812,-8.39414 -16.063031,-9.84126 -1.16287,-2.18483 -1.873064,-3.18429 -3.319939,-4.67216 l -0.733001,-0.75377 0.541422,-0.18449 c 1.000956,-0.34105 2.629112,-1.43787 4.195777,-2.82649 0.181422,-0.16081 0.457633,-0.40236 0.613801,-0.53678 0.156168,-0.13443 0.974422,-0.91747 1.818341,-1.7401 6.682591,-6.51404 14.543581,-6.7622 29.263563,-0.9238 4.623663,1.83388 5.437622,2.09222 6.602329,2.09547 1.940249,0.005 1.172542,-2.04046 -1.651208,-4.40034 -7.345834,-6.1391 -11.147563,-11.63373 -12.260916,-17.72065 -0.524001,-2.864821 -0.125095,-7.294598 0.866472,-9.622015 0.524632,-1.231422 1.511481,-3.029522 2.119361,-3.861608 1.307796,-1.790153 1.932948,-2.802629 2.629792,-4.259126 1.015894,-2.123349 1.212519,-2.572471 1.62189,-3.704642 l 0.37445,-1.03559 0.74819,0.616024 c 0.490487,0.403842 1.35455,0.910587 2.50863,1.47123 0.968241,0.470364 2.297088,1.117137 2.952994,1.437274 6.63887,3.240323 10.343886,7.714061 11.582768,13.985988 0.591151,2.992761 0.9265,9.525415 0.632213,12.315695 -0.35927,3.40645 0.08487,8.86102 0.811873,9.97056 0.479003,0.73106 0.991483,0.19836 2.202748,-2.28966 1.049736,-2.15623 2.258696,-4.41146 3.187469,-5.94599 0.240162,-0.39681 0.436661,-0.73666 0.436661,-0.75524 0,-0.10746 2.41441,-3.85103 3.266701,-5.06506 5.228463,-7.447587 13.821251,-9.979573 22.846391,-6.732002 2.49225,0.896804 3.0211,1.062717 4.10018,1.286324 0.62268,0.129031 1.59498,0.267457 2.16069,0.30761 0.68202,0.04842 1.00972,0.114981 0.97269,0.197581 -0.7753,1.729497 -0.87707,2.366457 -0.7911,4.951587 0.0776,2.33356 -0.22418,5.0423 -0.74256,6.66497 -2.21418,6.93098 -11.19333,12.48837 -24.544083,15.19084 -5.406044,1.0943 -5.899445,1.24349 -5.713648,1.72766 0.217336,0.56637 3.877865,1.65348 9.291314,2.75937 6.123877,1.25101 8.147787,1.83404 10.689307,3.07929 4.1203,2.01878 8.11581,6.52708 9.91252,11.18475 0.1439,0.37303 0.30421,0.78047 0.35624,0.9054 0.41778,1.00328 0.94571,3.4659 1.07132,4.99738 0.18419,2.24577 0.5597,4.93816 1.03841,7.44528 0.14972,0.78414 0.27222,1.46134 0.27222,1.50489 0,0.0435 -0.67614,0.0792 -1.50252,0.0792 -1.10803,0 -2.21882,0.10262 -4.23074,0.39085 -5.71246,0.81837 -6.32387,0.88653 -7.29866,0.81369 -4.58508,-0.34261 -9.52754,-2.82892 -13.436199,-6.75909 -0.908355,-0.91335 -1.421942,-1.47501 -2.777846,-3.03787 -0.537064,-0.61903 -1.078603,-1.29375 -1.362961,-1.69813 -0.187401,-0.2665 -0.732958,-1.13409 -1.328706,-1.83629 -1.778862,-2.09671 -4.486543,-7.77526 -6.110567,-9.30702 -0.147852,-0.13946 -0.703048,-0.0789 -0.829291,0.14668 -0.404723,0.7232 -0.5447,3.76448 -0.307133,6.67303 0.198855,2.43463 0.351028,4.08438 0.462751,5.01691 0.197407,1.6477 0.211746,1.80128 0.349914,3.74804 0.120255,1.6943 0.112689,2.15339 -0.06175,3.74803 -0.187632,1.71525 -0.251732,2.11007 -0.543953,3.35051 -1.015848,4.3122 -3.861252,8.35042 -7.645584,10.85065 -1.444048,1.07915 -3.111093,1.80443 -4.770223,2.49412 -2.066872,0.83131 -4.727718,2.25922 -6.907817,3.70701 -0.787954,0.52328 -0.758168,0.51832 -0.760355,0.1267 z"
       id="path1"
       sodipodi:nodetypes="cssssssssssscssssscsssssscssssssssssssscsssssssssssssssssssssssssssscc" /></g></svg>
