<?xml version="1.0" encoding="UTF-8" standalone="no"?>
<svg
   xmlns:dc="http://purl.org/dc/elements/1.1/"
   xmlns:cc="http://creativecommons.org/ns#"
   xmlns:rdf="http://www.w3.org/1999/02/22-rdf-syntax-ns#"
   xmlns:svg="http://www.w3.org/2000/svg"
   xmlns="http://www.w3.org/2000/svg"
   xmlns:sodipodi="http://sodipodi.sourceforge.net/DTD/sodipodi-0.dtd"
   xmlns:inkscape="http://www.inkscape.org/namespaces/inkscape"
   sodipodi:docname="L-05.svg"
   inkscape:version="1.0 (4035a4fb49, 2020-05-01)"
   id="svg869"
   version="1.1"
   viewBox="0 0 210 297"
   height="297mm"
   width="210mm">
  <defs
     id="defs863" />
  <sodipodi:namedview
     inkscape:window-maximized="1"
     inkscape:window-y="-11"
     inkscape:window-x="-11"
     inkscape:window-height="1346"
     inkscape:window-width="2160"
     showgrid="false"
     inkscape:document-rotation="0"
     inkscape:current-layer="layer1"
     inkscape:document-units="mm"
     inkscape:cy="454.85122"
     inkscape:cx="335.32727"
     inkscape:zoom="2.873799"
     inkscape:pageshadow="2"
     inkscape:pageopacity="0.0"
     borderopacity="1.0"
     bordercolor="#666666"
     pagecolor="#ffffff"
     id="base" />
  <metadata
     id="metadata866">
    <rdf:RDF>
      <cc:Work
         rdf:about="">
        <dc:format>image/svg+xml</dc:format>
        <dc:type
           rdf:resource="http://purl.org/dc/dcmitype/StillImage" />
        <dc:title></dc:title>
      </cc:Work>
    </rdf:RDF>
  </metadata>
  <g
     id="layer1"
     inkscape:groupmode="layer"
     inkscape:label="Layer 1">
    <path
       sodipodi:nodetypes="cssssscscssccscsssssssssscc"
       id="path1446"
       d="m 81.38269,138.4558 c -0.520222,-0.0749 -1.967384,-0.38299 -3.215916,-0.68469 -7.830485,-1.89217 -13.685656,-5.34855 -18.049434,-10.65479 -0.199651,-0.24277 -0.455564,-0.54411 -0.568696,-0.66963 -0.320773,-0.35593 -2.151215,-3.09878 -2.538839,-3.80437 -2.302655,-4.19149 -3.535432,-7.9138 -4.127231,-12.46201 -0.164598,-1.265 -0.165135,-5.05874 -8.57e-4,-6.13259 0.260476,-1.70279 0.406999,-2.48622 0.576766,-3.08382 l 0.174499,-0.61426 -0.848992,-0.961587 c -0.466946,-0.52887 -1.061199,-1.188852 -1.320562,-1.466629 -0.259363,-0.277769 -0.472182,-0.542326 -0.472929,-0.587906 1.33866,-1.864152 1.762313,-2.127039 3.155371,-4.022112 0.04782,-0.07738 0.683931,0.150537 1.605469,0.575238 l 1.526264,0.703395 1.238242,-0.717557 c 7.014685,-4.064984 14.528697,-6.180091 19.936006,-5.611752 3.580105,0.37629 9.259529,2.011363 13.152719,3.786594 3.489691,1.59124 5.960816,3.280574 8.382257,5.730361 1.482593,1.499954 1.648363,1.693299 2.663643,3.106845 1.31657,1.83302 1.99762,3.06746 3.5137,6.36878 0.85728,1.86676 2.32857,6.84444 2.64663,8.95412 0.0418,0.27745 0.13283,0.87334 0.20222,1.3242 0.64814,4.21102 0.68118,10.96549 0.0669,13.67612 -0.13074,0.57698 -0.20683,0.66829 -1.02404,1.22894 -3.7979,2.6056 -11.478172,5.0497 -18.758296,5.96948 -2.615079,0.26312 -5.430899,0.40797 -7.914914,0.0496 z"
       style="fill:#000000;stroke-width:0.126114" />
  </g>
</svg>
