<?xml version="1.0" encoding="UTF-8" standalone="no"?>
<!-- Created with Inkscape (http://www.inkscape.org/) -->

<svg
   width="297mm"
   height="210mm"
   viewBox="0 0 297 210"
   version="1.1"
   id="svg1"
   xml:space="preserve"
   inkscape:version="1.3.2 (091e20e, 2023-11-25, custom)"
   sodipodi:docname="L-07.svg"
   xmlns:inkscape="http://www.inkscape.org/namespaces/inkscape"
   xmlns:sodipodi="http://sodipodi.sourceforge.net/DTD/sodipodi-0.dtd"
   xmlns="http://www.w3.org/2000/svg"
   xmlns:svg="http://www.w3.org/2000/svg"><sodipodi:namedview
     id="namedview1"
     pagecolor="#ffffff"
     bordercolor="#666666"
     borderopacity="1.0"
     inkscape:showpageshadow="2"
     inkscape:pageopacity="0.0"
     inkscape:pagecheckerboard="0"
     inkscape:deskcolor="#d1d1d1"
     inkscape:document-units="mm"
     inkscape:zoom="0.95232183"
     inkscape:cx="597.48709"
     inkscape:cy="405.85019"
     inkscape:window-width="2160"
     inkscape:window-height="1346"
     inkscape:window-x="-11"
     inkscape:window-y="-11"
     inkscape:window-maximized="1"
     inkscape:current-layer="layer1" /><defs
     id="defs1" /><g
     inkscape:label="Layer 1"
     inkscape:groupmode="layer"
     id="layer1"><path
       style="fill:#000000;fill-opacity:1;stroke-width:0.693149"
       d="m 111.66499,105.15073 c -0.50433,-0.02 -10.79284,-0.11958 -22.863336,-0.2214 -39.614427,-0.33414 -39.687636,-0.46414 -44.526042,-1.239 -4.359909,-0.69823 -9.229003,-2.35128 -14.195453,-4.818774 -4.966449,-2.467494 -10.030252,-5.749431 -10.254005,-6.046472 -0.01194,-0.01585 -0.836955,-0.499611 -0.836955,-0.499611 0,0 0.226509,-0.18013 0.950739,-0.696229 1.52668,-1.087944 2.189038,-1.482405 5.039973,-3.001512 4.571793,-2.436058 12.784855,-5.336588 18.614673,-6.573971 4.055416,-0.860764 5.748708,-0.979549 11.523372,-0.808363 4.503342,0.133498 8.170359,0.216814 22.374285,0.508351 3.295018,0.06763 8.164171,0.177169 10.820354,0.243418 2.656184,0.06625 7.305269,0.17708 10.331303,0.24629 3.026032,0.06921 6.272132,0.154744 7.213562,0.190076 0.94143,0.03533 5.8381,0.144292 10.88149,0.242135 5.04338,0.09784 10.29767,0.234684 11.6762,0.304091 6.60204,0.332399 14.64254,0.75538 19.68448,1.035526 3.05966,0.170004 7.07602,0.39006 8.92527,0.489012 1.84924,0.09895 4.35259,0.234429 5.563,0.301059 1.21041,0.06663 3.41116,0.179117 4.89056,0.24997 1.47939,0.07085 3.62512,0.179983 4.76828,0.242512 1.14317,0.06253 3.20637,0.147274 4.5849,0.188323 6.69681,0.199415 10.39812,1.349796 14.8364,4.611202 2.7148,1.994929 4.32704,2.403477 9.52681,2.414132 l 0.33837,6.93e-4 -0.0327,3.026033 -0.0327,3.026027 h -1.43674 c -2.95231,0 -5.96983,1.153477 -6.99946,1.677052 -0.90808,0.46176 -1.52342,0.55273 -3.1032,1.9791 -1.78516,1.61181 -5.34186,1.86346 -6.62924,2.40258 -0.1493,0.0625 -6.08807,0.14009 -16.27559,0.17442 -8.82791,0.0297 -18.279,0.1134 -21.00244,0.1859 -4.4908,0.11955 -32.15885,0.25438 -34.35614,0.16741 z"
       id="path1"
       sodipodi:nodetypes="csssscsssssssssssssssssscccsssssscc" /></g></svg>
