<?xml version="1.0" encoding="UTF-8" standalone="no"?>
<!-- Created with Inkscape (http://www.inkscape.org/) -->

<svg
   width="210mm"
   height="297mm"
   viewBox="0 0 210 297"
   version="1.1"
   id="svg1"
   xml:space="preserve"
   inkscape:version="1.3.2 (091e20e, 2023-11-25, custom)"
   sodipodi:docname="P-01.svg"
   xmlns:inkscape="http://www.inkscape.org/namespaces/inkscape"
   xmlns:sodipodi="http://sodipodi.sourceforge.net/DTD/sodipodi-0.dtd"
   xmlns="http://www.w3.org/2000/svg"
   xmlns:svg="http://www.w3.org/2000/svg"><sodipodi:namedview
     id="namedview1"
     pagecolor="#ffffff"
     bordercolor="#000000"
     borderopacity="0.25"
     inkscape:showpageshadow="2"
     inkscape:pageopacity="0.0"
     inkscape:pagecheckerboard="0"
     inkscape:deskcolor="#d1d1d1"
     inkscape:document-units="mm"
     inkscape:zoom="1.9830139"
     inkscape:cx="425.86691"
     inkscape:cy="531.26203"
     inkscape:window-width="1920"
     inkscape:window-height="1001"
     inkscape:window-x="-9"
     inkscape:window-y="-9"
     inkscape:window-maximized="1"
     inkscape:current-layer="layer1" /><defs
     id="defs1" /><g
     inkscape:label="Layer 1"
     inkscape:groupmode="layer"
     id="layer1"><path
       style="fill:#000000;fill-opacity:1;stroke:none;stroke-width:0.190967;stroke-dasharray:none;stroke-opacity:1"
       d="m 86.076655,165.76853 c -0.127176,-0.14053 -0.293604,-0.36788 -0.36984,-0.50521 -1.9785,-3.56422 -2.210826,-3.86444 -3.697027,-4.77736 -1.745243,-1.07203 -3.505454,-2.56084 -4.150248,-3.51034 -2.111793,-3.10976 1.586402,-8.69835 8.981779,-13.57296 2.970882,-1.95825 4.033602,-2.7413 3.900714,-2.8742 -0.132624,-0.13261 -2.17542,1.11673 -4.20858,2.5739 -2.619262,1.87723 -5.864607,3.71096 -7.903738,4.46588 -3.851379,1.42583 -9.626111,-0.73339 -10.511136,-3.93021 -0.49474,-1.78706 -0.630824,-2.17528 -1.056063,-3.01268 -0.28336,-0.55802 -0.742753,-1.17676 -1.228816,-1.65506 -1.007882,-0.99178 -1.505266,-1.73314 -1.833424,-2.73276 -0.49242,-1.49998 -0.411876,-1.77003 0.968715,-3.24787 1.640993,-1.75659 2.386875,-2.86838 2.753162,-4.10381 1.547929,-5.22093 5.529852,-6.25807 12.036221,-3.13502 1.215946,0.58366 2.229391,1.0612 2.252102,1.0612 0.02272,0 0.574685,0.33193 1.226607,0.73762 3.074208,1.91309 7.580154,4.31285 7.760136,4.13287 0.107514,-0.10751 -0.729816,-0.5587 -1.355046,-1.05035 -2.571216,-1.55913 -5.237524,-3.07983 -7.903792,-4.45671 -0.157853,0 -1.723698,-1.1885 -1.902873,-1.4443 -0.126992,-0.18131 -1.187847,-0.83557 -1.533965,-1.50364 -1.521261,-2.1717 -2.151862,-4.89416 -1.850832,-7.54696 0.302307,-1.60779 0.660159,-2.05496 3.222677,-4.02707 2.20628,-1.69794 2.448364,-1.93204 3.03908,-2.93874 0.467206,-0.79623 1.753487,-2.81389 2.728421,-2.69701 0.88371,0.0829 1.437642,0.6833 2.25978,1.11012 1.526298,0.78129 1.697238,0.80238 5.888172,0.72661 2.944224,-0.0533 3.254754,0.0619 4.653012,1.72489 0.52149,0.62024 0.977262,1.15635 1.012812,1.19136 1.110035,1.09308 1.892055,3.38114 1.663365,4.86675 -0.41983,2.72735 -0.64885,3.57976 -1.411785,5.25454 -0.11595,0.25453 -0.524718,1.58582 -0.781812,2.54622 -0.07497,0.28009 -0.184476,0.65248 -0.243336,0.82753 -0.525582,1.56309 -1.373436,5.626 -1.187334,5.68966 0.160134,0.0548 0.371856,-0.4811 0.940158,-2.37956 0.220098,-0.73522 0.452274,-1.47999 0.515952,-1.65504 0.166782,-0.45848 1.197642,-4.10991 1.701777,-6.02791 0.4956,-1.88555 2.06915,-3.98614 4.08599,-5.45456 0.56017,-0.40785 1.07579,-0.78534 1.1458,-0.83886 2.31679,-1.77092 6.63658,-1.26779 10.11661,1.17826 1.05007,0.73807 1.83699,1.06433 3.0738,1.27439 2.90343,0.49313 3.32572,1.03918 2.6599,3.43944 -0.15302,0.55165 -0.24862,1.30366 -0.25092,1.97388 -0.004,1.09175 -0.002,1.09803 0.83711,3.3732 0.10332,0.28009 0.20912,0.59518 0.23512,0.70022 0.026,0.10503 0.1023,0.33419 0.16958,0.50925 0.34885,0.90774 0.43927,2.08502 0.2347,3.05548 -0.32668,1.54965 -0.41456,1.77803 -1.41095,3.66672 -1.33162,2.52413 -3.73701,2.86111 -13.9782,2.70991 -4.62642,-0.0683 -5.06076,-0.0569 -5.06064,0.13308 1.2e-4,0.18818 0.55022,0.21422 5.82465,0.27573 6.91083,0.0806 9.02285,0.29513 10.51838,1.06851 1.29167,0.82581 2.20048,1.99062 3.05666,3.20508 1.58766,2.17773 1.77565,3.5671 0.83777,6.19168 -0.59257,1.65823 -0.66939,3.30509 -0.38421,4.20128 1.53493,4.82353 1.23564,4.6883 -1.73242,4.78293 -2.54027,0.081 -2.84018,0.16625 -4.43469,1.26072 -3.99221,2.74026 -4.79871,3.07892 -6.66227,2.79757 -2.69796,-0.40732 -4.62699,-1.5583 -5.2293,-3.12011 -0.16033,-0.41577 -0.33909,-0.87053 -0.39724,-1.01057 -0.29623,-0.71334 -0.7774,-2.01379 -1.05989,-2.86452 -0.17439,-0.52515 -0.48703,-1.41316 -0.69476,-1.97333 -0.71782,-1.93571 -0.88594,-2.4243 -1.29227,-3.75569 -0.39869,-1.30632 -0.55136,-1.7476 -1.189235,-3.43742 -0.171804,-0.45514 -0.413166,-1.09965 -0.536364,-1.43226 -0.123198,-0.33259 -0.302148,-0.60472 -0.397662,-0.60472 -0.221604,0 -0.287184,-0.25379 0.593598,2.29727 2.258343,6.54096 2.681103,8.03991 2.931813,10.39512 0.36566,3.43513 -1.66405,8.39605 -3.941043,9.63247 -0.801936,0.43546 -1.729302,0.54302 -4.914168,0.56998 -2.97396,0.0252 -3.030144,0.0377 -4.710096,1.05563 -1.546896,0.93724 -2.022618,1.05907 -2.420148,0.61981 z"
       id="path1"
       sodipodi:nodetypes="ccssssssssssssssssssssssssscscssssssssscssscsssssssssssssssssssssssssssscc" /></g></svg>
