<?xml version="1.0" encoding="UTF-8" standalone="no"?>
<svg
   xmlns:dc="http://purl.org/dc/elements/1.1/"
   xmlns:cc="http://creativecommons.org/ns#"
   xmlns:rdf="http://www.w3.org/1999/02/22-rdf-syntax-ns#"
   xmlns:svg="http://www.w3.org/2000/svg"
   xmlns="http://www.w3.org/2000/svg"
   xmlns:sodipodi="http://sodipodi.sourceforge.net/DTD/sodipodi-0.dtd"
   xmlns:inkscape="http://www.inkscape.org/namespaces/inkscape"
   sodipodi:docname="P-02.svg"
   inkscape:version="1.0 (4035a4fb49, 2020-05-01)"
   id="svg855"
   version="1.1"
   viewBox="0 0 210 297"
   height="297mm"
   width="210mm">
  <defs
     id="defs849" />
  <sodipodi:namedview
     inkscape:window-maximized="1"
     inkscape:window-y="-11"
     inkscape:window-x="-11"
     inkscape:window-height="1346"
     inkscape:window-width="2160"
     showgrid="false"
     inkscape:document-rotation="0"
     inkscape:current-layer="layer1"
     inkscape:document-units="mm"
     inkscape:cy="446.88862"
     inkscape:cx="419.07291"
     inkscape:zoom="5.1050476"
     inkscape:pageshadow="2"
     inkscape:pageopacity="0.0"
     borderopacity="1.0"
     bordercolor="#666666"
     pagecolor="#ffffff"
     id="base" />
  <metadata
     id="metadata852">
    <rdf:RDF>
      <cc:Work
         rdf:about="">
        <dc:format>image/svg+xml</dc:format>
        <dc:type
           rdf:resource="http://purl.org/dc/dcmitype/StillImage" />
        <dc:title></dc:title>
      </cc:Work>
    </rdf:RDF>
  </metadata>
  <g
     id="layer1"
     inkscape:groupmode="layer"
     inkscape:label="Layer 1">
    <path
       id="path1432"
       d="m 97.250555,140.47225 c -1.355239,-0.30399 -3.84062,-3.61532 -5.013422,-6.6795 -0.117379,-0.30668 -0.212419,-1.17098 -0.212419,-1.93176 0,-2.26493 0.270044,-2.67225 4.856226,-7.32496 2.115175,-2.14585 3.7896,-3.95772 3.72095,-4.02637 -0.0686,-0.0686 -0.59156,0.274 -1.162024,0.76146 -1.319536,1.12752 -3.361555,2.72605 -4.391616,3.43782 -2.689791,1.85864 -5.593987,2.85402 -8.355743,2.86381 -1.879984,0.006 -2.730922,-0.18213 -4.422976,-0.9813 -1.485814,-0.70177 -2.562708,-1.66495 -3.119995,-2.79054 -0.338663,-0.68402 -0.391446,-1.00496 -0.380202,-2.31177 0.01133,-1.31618 0.08195,-1.69301 0.532463,-2.84089 0.547508,-1.39501 2.08631,-3.81672 3.068001,-4.82828 0.782108,-0.80591 2.046735,-1.25285 4.174483,-1.47532 2.779993,-0.29067 4.250147,-0.0563 8.825914,1.40663 4.147298,1.32601 4.246558,1.35117 4.336274,1.09934 0.03468,-0.0974 -1.924949,-0.80143 -4.615096,-1.65799 -6.007528,-1.91284 -7.322147,-2.46774 -8.276847,-3.49365 -1.716281,-1.84429 -3.24952,-6.1878 -2.931908,-8.30578 0.143932,-0.95981 0.683344,-2.259214 1.302485,-3.1376 0.962325,-1.36526 2.815584,-2.164162 5.020333,-2.164162 2.394038,0 5.893422,0.959658 7.237396,1.984756 1.045932,0.797771 2.766208,4.463036 3.584808,7.637926 0.74964,2.90739 1.60871,5.39231 1.86418,5.39231 0.26072,0 0.27279,-0.10835 0.0819,-0.73489 -0.0776,-0.25472 -0.21902,-0.75063 -0.31424,-1.10205 -0.0952,-0.35141 -0.50392,-1.7044 -0.90819,-3.00663 -1.1387,-3.66792 -1.25535,-4.3338 -1.26422,-7.216343 -0.009,-3.062511 0.098,-3.372068 1.56754,-4.516032 3.0525,-2.376277 7.11456,-4.069529 8.76745,-3.65468 0.60001,0.150594 1.54635,0.978386 2.60384,2.277662 1.17953,1.449239 1.83538,2.514711 2.56021,4.159273 0.45287,1.0275 0.54767,1.428043 0.52373,2.212981 -0.0322,1.053289 -0.12944,1.333289 -1.27686,3.673879 -0.96712,1.9728 -2.85736,4.53603 -4.85321,6.58114 -1.04636,1.07218 -1.46207,1.60178 -1.34735,1.71649 0.11472,0.11472 0.77967,-0.46136 2.15519,-1.86713 4.25905,-4.35274 5.92725,-5.23813 9.46773,-5.02496 3.56252,0.21449 6.21808,1.57139 7.2993,3.72964 1.12764,2.25095 0.51706,5.89475 -1.4321,8.54645 -1.18801,1.61621 -2.32542,2.04298 -5.46052,2.04884 -1.95902,0.004 -5.527,-0.33184 -7.88396,-0.74135 -1.90618,-0.33119 -2.108,-0.33984 -2.19349,-0.0939 -0.0382,0.10981 0.041,0.19966 0.17599,0.19966 0.31889,0 3.53162,1.19998 5.77125,2.15561 2.19594,0.93697 4.15678,2.21868 4.80448,3.14047 0.6437,0.91607 1.25159,2.20223 1.68866,3.57278 0.49314,1.54637 0.53939,5.18228 0.0752,5.91308 -1.19036,1.87413 -3.20514,2.69756 -6.56835,2.68444 -3.97143,-0.0155 -5.49249,-1.05675 -7.42255,-5.08118 -1.07732,-2.24632 -2.68165,-6.87223 -3.11817,-8.99084 -0.10193,-0.49467 -0.29428,-0.66139 -0.4578,-0.39682 -0.0416,0.0673 0.03,0.51653 0.15909,0.99834 0.12907,0.48181 0.29591,1.19947 0.37073,1.59481 0.0748,0.39535 0.29836,1.50949 0.49675,2.47588 0.27753,1.35187 0.36376,2.32806 0.37392,4.23296 0.012,2.24083 -0.0216,2.55777 -0.35294,3.33849 -1.3267,3.12572 -3.78506,5.6581 -6.11538,6.29948 -1.15412,0.31765 -2.786344,0.42615 -3.614897,0.24029 z"
       style="fill:#000000;stroke-width:0.159734" />
  </g>
</svg>
