<?xml version="1.0" encoding="UTF-8" standalone="no"?>
<svg
   xmlns:dc="http://purl.org/dc/elements/1.1/"
   xmlns:cc="http://creativecommons.org/ns#"
   xmlns:rdf="http://www.w3.org/1999/02/22-rdf-syntax-ns#"
   xmlns:svg="http://www.w3.org/2000/svg"
   xmlns="http://www.w3.org/2000/svg"
   xmlns:sodipodi="http://sodipodi.sourceforge.net/DTD/sodipodi-0.dtd"
   xmlns:inkscape="http://www.inkscape.org/namespaces/inkscape"
   sodipodi:docname="P-05.svg"
   inkscape:version="1.0 (4035a4fb49, 2020-05-01)"
   id="svg8"
   version="1.1"
   viewBox="0 0 210 297"
   height="297mm"
   width="210mm">
  <defs
     id="defs2" />
  <sodipodi:namedview
     inkscape:window-maximized="1"
     inkscape:window-y="-11"
     inkscape:window-x="-11"
     inkscape:window-height="1346"
     inkscape:window-width="2160"
     showgrid="false"
     inkscape:document-rotation="0"
     inkscape:current-layer="layer1"
     inkscape:document-units="mm"
     inkscape:cy="419.47685"
     inkscape:cx="556.60976"
     inkscape:zoom="1.4368995"
     inkscape:pageshadow="2"
     inkscape:pageopacity="0.0"
     borderopacity="1.0"
     bordercolor="#666666"
     pagecolor="#ffffff"
     id="base" />
  <metadata
     id="metadata5">
    <rdf:RDF>
      <cc:Work
         rdf:about="">
        <dc:format>image/svg+xml</dc:format>
        <dc:type
           rdf:resource="http://purl.org/dc/dcmitype/StillImage" />
        <dc:title></dc:title>
      </cc:Work>
    </rdf:RDF>
  </metadata>
  <g
     id="layer1"
     inkscape:groupmode="layer"
     inkscape:label="Layer 1">
    <path
       sodipodi:nodetypes="sssssssssssssssssscsssssccsssssssssssssscssssssscssssssssssssssssccsssssssssssssssssss"
       id="path1430"
       d="m 71.079819,122.68421 c -0.775116,-0.0898 -2.828929,-0.54441 -3.900857,-0.86349 -2.09618,-0.624 -3.570669,-1.37864 -4.295357,-2.19837 -0.801573,-0.90669 -2.042344,-2.46349 -2.582389,-3.24012 -0.311073,-0.44735 -0.990385,-1.40462 -1.509585,-2.12726 -1.060075,-1.47547 -1.473168,-2.23731 -2.00159,-3.69143 -1.4807,-4.0746 -1.748711,-8.21281 -0.733722,-11.328969 0.549015,-1.685559 1.618372,-3.479221 3.01876,-5.063459 0.182509,-0.206472 0.629157,-0.713261 0.99255,-1.126198 1.577517,-1.792597 3.168165,-3.345477 4.913372,-4.796716 1.251044,-1.040313 1.468895,-1.423857 1.468895,-2.586094 0,-0.870531 -0.163665,-1.121582 -0.651384,-0.999172 -0.501534,0.12588 -1.37386,1.018079 -4.532737,4.636019 -2.537476,2.906238 -5.319454,5.347216 -7.537035,6.613191 -2.850526,1.627312 -6.941117,2.955819 -9.177127,2.980472 -1.170231,0.01289 -1.950658,-0.283592 -3.656989,-1.389344 -0.669294,-0.433718 -1.505643,-0.898294 -1.858555,-1.032392 -0.751767,-0.28565 -1.458583,-0.725849 -3.206546,-1.997004 -0.702172,-0.510635 -1.509888,-1.0692 -1.794926,-1.241263 -1.544774,-0.932466 -3.807251,-3.934442 -4.062153,-5.389875 -0.0413,-0.235845 -0.126951,-0.654047 -0.190324,-0.929343 -0.151337,-0.65742 -0.146004,-3.131275 0.0093,-4.317092 0.28143,-2.148734 0.377203,-4.773069 0.216915,-5.943817 -0.04711,-0.344116 -0.256485,-1.301384 -0.46527,-2.127262 -0.26894,-1.063827 -0.380078,-1.802215 -0.381216,-2.53275 l -0.0016,-1.031154 0.937414,-1.443823 c 2.889246,-4.450076 5.876447,-7.219066 8.435301,-7.819117 0.989503,-0.232037 4.976853,-0.0909 6.465993,0.228879 2.458876,0.528015 4.769327,1.423854 7.231855,2.804035 3.115233,1.746003 7.121573,4.825687 10.375145,7.975399 0.729284,0.706004 1.109314,0.978263 1.514047,1.084683 1.636828,0.430388 2.41095,0.295178 2.06372,-0.360454 -0.09449,-0.178406 -1.193651,-1.384764 -2.442589,-2.680795 -1.248939,-1.296033 -2.576054,-2.722436 -2.949146,-3.169787 -4.403193,-5.279592 -4.823685,-5.865069 -5.57201,-7.758249 -0.554579,-1.40302 -0.960951,-3.522291 -1.127736,-5.881254 -0.48481,-6.857047 0.676378,-11.094094 3.866429,-14.108166 3.497193,-3.304269 8.080271,-5.530708 10.418304,-5.061164 1.271952,0.255445 4.776382,2.744323 5.931125,4.212342 l 0.243551,0.309624 0.679863,-0.368229 c 0.96322,-0.521701 2.216533,-0.715805 3.450164,-0.534335 2.740275,0.4031 6.843809,2.423435 8.217197,4.045659 0.415297,0.490541 0.90997,1.535684 1.325576,2.800682 0.157041,0.478 0.530678,1.248044 0.830298,1.711207 0.29962,0.463166 0.54476,0.875103 0.54476,0.915419 0,0.04032 0.107913,0.312005 0.239809,0.603754 0.745184,1.648348 1.062599,3.101737 1.058707,4.847542 -0.0046,2.021815 -0.06703,2.146861 -2.59535,5.190439 -1.880887,2.264217 -4.679494,5.060957 -6.602566,6.598173 -2.231062,1.783409 -4.972192,4.838305 -5.617995,6.261061 -0.320742,0.706627 -0.308344,0.924741 0.06651,1.170354 0.255514,0.167425 0.4075,0.181778 0.818951,0.07734 1.064762,-0.270265 1.897131,-0.933728 4.809049,-3.833168 3.358402,-3.34402 4.532432,-4.396735 6.037164,-5.41336 0.966447,-0.652948 1.402104,-0.879628 2.489777,-1.295472 0.522744,-0.199857 3.767632,-0.860639 5.427466,-1.105237 2.745238,-0.404546 4.719368,-0.550171 6.640198,-0.489822 1.90828,0.05996 2.2658,0.140839 3.87098,0.875748 3.89462,1.783104 5.76258,3.053604 7.10013,4.829185 1.17747,1.563082 1.62989,2.824176 1.76679,4.92489 0.1824,2.798823 -0.1064,5.115447 -1.06545,8.546423 -0.48722,1.743049 -0.50489,2.096964 -0.15954,3.194846 0.3643,1.158088 0.6168,2.567805 0.61683,3.443675 2e-5,0.738642 -0.36895,2.34374 -0.65813,2.863026 -0.29881,0.634384 -0.58286,1.259401 -0.82909,1.764381 -1.65433,3.388788 -3.47297,5.186585 -5.84594,5.778928 -0.68531,0.171071 -1.40418,0.213966 -3.49083,0.208326 -2.46081,-0.0066 -2.70333,-0.02847 -3.816559,-0.343042 -0.653818,-0.184764 -2.31496,-0.618573 -3.691425,-0.964028 -3.182322,-0.798663 -4.924917,-1.304084 -5.741831,-1.665362 -0.524952,-0.232157 -1.067083,-0.729538 -2.889914,-2.651361 -3.3183,-3.498489 -5.603887,-5.712313 -6.613637,-6.405956 -1.401487,-0.962753 -2.848143,-1.457478 -3.514339,-1.201832 -0.526228,0.201929 -0.05976,1.658118 0.938809,2.930647 0.548797,0.699363 4.237086,4.420851 6.373592,6.430964 3.366482,3.167314 3.484066,3.315625 4.761151,6.005424 1.051851,2.21541 2.052851,5.63401 1.929765,6.59051 -0.03031,0.23533 -0.11694,0.93467 -0.192574,1.55408 -0.394983,3.23481 -1.070568,5.60667 -2.098988,7.36922 -0.76728,1.31498 -1.573162,2.15304 -3.296554,3.42816 -3.342835,2.47331 -5.859809,3.59342 -8.925967,3.97225 -0.34412,0.0425 -1.32954,0.21048 -2.18983,0.37328 -1.669663,0.31594 -2.91871,0.43859 -3.628859,0.35635 z"
       style="fill:#000000;stroke-width:0.125133" />
  </g>
</svg>
