<?xml version="1.0" encoding="UTF-8" standalone="no"?>
<svg
   xmlns:dc="http://purl.org/dc/elements/1.1/"
   xmlns:cc="http://creativecommons.org/ns#"
   xmlns:rdf="http://www.w3.org/1999/02/22-rdf-syntax-ns#"
   xmlns:svg="http://www.w3.org/2000/svg"
   xmlns="http://www.w3.org/2000/svg"
   xmlns:sodipodi="http://sodipodi.sourceforge.net/DTD/sodipodi-0.dtd"
   xmlns:inkscape="http://www.inkscape.org/namespaces/inkscape"
   width="210mm"
   height="297mm"
   viewBox="0 0 210 297"
   version="1.1"
   id="svg1424"
   inkscape:version="1.0 (4035a4fb49, 2020-05-01)"
   sodipodi:docname="P-06.svg">
  <defs
     id="defs1418" />
  <sodipodi:namedview
     id="base"
     pagecolor="#ffffff"
     bordercolor="#666666"
     borderopacity="1.0"
     inkscape:pageopacity="0.0"
     inkscape:pageshadow="2"
     inkscape:zoom="2.9714164"
     inkscape:cx="343.58042"
     inkscape:cy="287.06235"
     inkscape:document-units="mm"
     inkscape:current-layer="layer1"
     inkscape:document-rotation="0"
     showgrid="false"
     inkscape:window-width="2160"
     inkscape:window-height="1346"
     inkscape:window-x="-11"
     inkscape:window-y="-11"
     inkscape:window-maximized="1" />
  <metadata
     id="metadata1421">
    <rdf:RDF>
      <cc:Work
         rdf:about="">
        <dc:format>image/svg+xml</dc:format>
        <dc:type
           rdf:resource="http://purl.org/dc/dcmitype/StillImage" />
        <dc:title />
      </cc:Work>
    </rdf:RDF>
  </metadata>
  <g
     inkscape:label="Layer 1"
     inkscape:groupmode="layer"
     id="layer1">
    <path
       sodipodi:nodetypes="ssssssssssssssccsssssssssssssssssssscsssssssssssssssccssss"
       style="fill:#000000;stroke-width:0.12674"
       d="m 95.099702,109.01786 c -1.291797,-0.32794 -3.33379,-1.74155 -5.258234,-3.6401 -2.6029,-2.5679 -3.313038,-3.89555 -4.159287,-7.776141 -0.652714,-2.99311 -0.490111,-5.466479 0.504089,-7.667756 0.12593,-0.278825 0.391741,-0.877671 0.590692,-1.330766 0.198949,-0.453094 0.756218,-1.593751 1.238374,-2.534794 3.476079,-6.784386 3.378379,-6.575478 3.378379,-7.224008 0,-0.340391 -0.06073,-0.656432 -0.134964,-0.702308 -0.301863,-0.186562 -1.043066,0.124356 -2.78499,1.168236 -5.540383,3.320182 -9.884379,4.947756 -13.890206,5.204278 -4.696437,0.300746 -6.975928,-0.74275 -11.01084,-5.040507 -1.356755,-1.44514 -1.96947,-2.214035 -2.976319,-3.734979 -1.405191,-2.122679 -2.536066,-4.729758 -2.534822,-5.843692 2.66e-4,-0.240074 0.409155,-1.031956 1.184993,-2.294943 1.231438,-2.004659 1.436006,-2.510134 1.989365,-4.91556 0.218369,-0.975481 0.543399,-2.008822 0.920271,-2.874061 0.378729,-0.854984 0.91428,-1.284381 2.804771,-2.248824 0.701197,-0.357718 1.3634,-0.720196 1.471563,-0.805511 0.108163,-0.08532 0.324834,-0.497309 0.481489,-0.915548 0.498288,-1.330338 1.173882,-2.591096 1.520727,-2.837906 0.246838,-0.175645 0.890487,-0.307679 2.427125,-0.497884 4.467502,-0.552984 5.050001,-0.51395 7.034053,0.471373 4.21796,2.094725 8.508866,5.52413 10.482132,8.377595 0.789512,1.141683 0.968412,1.431737 1.719764,2.788275 0.173738,0.31368 0.358218,0.627361 0.409953,0.697067 0.05173,0.06971 0.397368,0.69707 0.768073,1.394137 0.982938,1.848304 1.713528,2.837019 2.104186,2.847614 0.449521,0.01219 0.571241,-2.177263 0.22172,-3.98827 -0.450376,-2.333567 -0.551618,-3.374075 -0.554943,-5.703288 -0.0058,-4.027672 0.546232,-7.14749 1.670575,-9.442111 0.870944,-1.777476 2.588655,-3.632547 4.508971,-4.869544 1.694728,-1.091678 2.596698,-1.441073 5.918608,-2.292681 2.78051,-0.71281 4.69554,-0.877636 5.95222,-0.512306 1.75306,0.509629 3.80217,1.773243 4.8911,3.016178 1.03085,1.176635 2.83272,3.046208 4.04794,4.200042 1.56688,1.487732 2.07802,2.031299 2.70884,2.88068 0.33065,0.445222 0.6693,0.895043 0.75255,0.999603 0.85474,1.073546 2.36751,3.499574 2.60002,4.169639 0.54812,1.579548 -0.37128,4.965088 -1.91831,7.063877 -0.84381,1.144767 -3.24338,3.657985 -4.50317,4.716461 -1.29309,1.086449 -3.39842,2.32521 -4.98671,2.93415 -2.87807,1.103433 -7.91453,1.48685 -9.98806,0.760371 -1.04568,-0.366363 -2.73721,-0.396542 -3.88419,-0.0693 -0.90006,0.256795 -1.692361,0.843359 -1.692361,1.252907 0,0.626154 0.801589,1.733202 2.470611,3.412092 1.03091,1.037002 1.98159,1.771856 3.23879,2.503505 0.99799,0.580801 1.26884,0.765383 3.1175,2.124546 2.33934,1.719924 4.63575,4.037121 5.52495,5.574973 0.30896,0.534344 1.10011,2.354444 1.47292,3.388589 0.72506,2.011254 1.10467,4.86144 0.91154,6.843947 -0.16881,1.732789 -0.50788,2.644123 -1.51918,4.083193 -1.22568,1.74411 -3.01405,3.21917 -5.13934,4.23896 -1.56486,0.75086 -2.25689,0.74158 -4.88146,-0.0655 -1.07627,-0.33717 -2.14226,-0.61067 -3.26316,-0.6523 l -1.391514,1.344 c -0.889817,0.85944 -1.638141,1.46384 -2.075559,1.67636 -0.743584,0.3613 -1.837013,0.51399 -2.491235,0.34791 z"
       id="path2001" />
  </g>
</svg>
