<?xml version="1.0" encoding="UTF-8" standalone="no"?>
<svg
   xmlns:dc="http://purl.org/dc/elements/1.1/"
   xmlns:cc="http://creativecommons.org/ns#"
   xmlns:rdf="http://www.w3.org/1999/02/22-rdf-syntax-ns#"
   xmlns:svg="http://www.w3.org/2000/svg"
   xmlns="http://www.w3.org/2000/svg"
   xmlns:sodipodi="http://sodipodi.sourceforge.net/DTD/sodipodi-0.dtd"
   xmlns:inkscape="http://www.inkscape.org/namespaces/inkscape"
   sodipodi:docname="P-07.svg"
   inkscape:version="1.0 (4035a4fb49, 2020-05-01)"
   id="svg2009"
   version="1.1"
   viewBox="0 0 210 297"
   height="297mm"
   width="210mm">
  <defs
     id="defs2003" />
  <sodipodi:namedview
     inkscape:window-maximized="1"
     inkscape:window-y="-11"
     inkscape:window-x="-11"
     inkscape:window-height="1346"
     inkscape:window-width="2160"
     showgrid="false"
     inkscape:document-rotation="0"
     inkscape:current-layer="layer1"
     inkscape:document-units="mm"
     inkscape:cy="560"
     inkscape:cx="400"
     inkscape:zoom="0.51178808"
     inkscape:pageshadow="2"
     inkscape:pageopacity="0.0"
     borderopacity="1.0"
     bordercolor="#666666"
     pagecolor="#ffffff"
     id="base" />
  <metadata
     id="metadata2006">
    <rdf:RDF>
      <cc:Work
         rdf:about="">
        <dc:format>image/svg+xml</dc:format>
        <dc:type
           rdf:resource="http://purl.org/dc/dcmitype/StillImage" />
        <dc:title></dc:title>
      </cc:Work>
    </rdf:RDF>
  </metadata>
  <g
     id="layer1"
     inkscape:groupmode="layer"
     inkscape:label="Layer 1">
    <path
       id="path2586"
       d="m 60.656955,95.865839 c -2.423615,-0.270396 -5.077094,-1.647531 -6.327613,-3.28398 -1.652886,-2.162992 -2.294157,-3.126847 -2.903734,-4.36442 -1.021914,-2.074709 -1.042085,-2.216992 -0.973686,-6.867321 0.03232,-2.197545 0.03221,-3.967441 -2.51e-4,-3.933106 -0.03246,0.03434 -0.361572,0.708583 -0.731349,1.498328 -0.36978,0.789742 -0.911809,1.844868 -1.204508,2.344728 -0.29271,0.499858 -0.532192,0.941579 -0.532192,0.981599 0,0.134077 -1.654494,2.469777 -2.375597,3.353705 -1.683691,2.063858 -3.335222,3.186318 -5.703299,3.876235 -1.58996,0.463217 -2.851397,0.526894 -4.113796,0.207661 -0.856964,-0.216711 -1.255241,-0.417975 -2.558286,-1.2928 -0.883279,-0.593004 -1.992338,-1.214912 -2.59325,-1.454169 -0.577469,-0.229919 -1.241879,-0.564435 -1.476473,-0.743368 -1.142609,-0.87151 -2.418077,-3.360021 -3.444335,-6.720087 -0.169203,-0.553986 -0.426105,-1.270373 -0.570894,-1.591971 -0.629525,-1.398279 -0.747557,-1.679852 -0.951683,-2.270336 -0.118697,-0.343366 -0.24443,-1.168182 -0.279404,-1.832927 -0.05679,-1.079367 -0.0272,-1.319724 0.276592,-2.247487 0.187099,-0.571373 0.481844,-1.284689 0.654993,-1.585142 0.357025,-0.619533 1.906958,-2.263079 2.134177,-2.263079 0.08226,0 0.149563,-0.06555 0.149563,-0.145672 0,-0.08012 0.0315,-0.114171 0.07,-0.07567 0.0385,0.0385 0.204505,-0.06451 0.368905,-0.228911 0.164399,-0.1644 0.385742,-0.298909 0.491875,-0.298909 0.10613,0 0.192966,-0.04851 0.192966,-0.107807 0,-0.155721 1.475419,-0.795108 1.623527,-0.703572 0.06849,0.04233 0.124517,0.0201 0.124517,-0.0494 0,-0.205617 1.451756,-0.603013 2.559639,-0.700664 0.41204,-0.03632 0.945819,-0.09463 1.186176,-0.129598 0.972064,-0.141391 2.312984,0.160127 3.89715,0.876316 0.839277,0.379429 1.564731,0.689869 1.612125,0.689869 0.04739,0 0.470664,0.177257 0.940612,0.393904 0.469945,0.216649 0.941435,0.411221 1.047751,0.432384 0.106319,0.02115 0.527722,0.192763 0.936454,0.381333 0.408731,0.188568 0.847995,0.359855 0.976141,0.380637 0.128143,0.02079 0.535501,0.203803 0.905236,0.406717 0.369736,0.202913 0.672246,0.340762 0.672246,0.306331 0,-0.03443 0.126423,0.0076 0.280937,0.09344 0.154517,0.08582 0.30903,0.165596 0.343366,0.177266 0.03434,0.01168 0.188852,0.06236 0.343368,0.112632 0.154514,0.05028 0.280935,0.144362 0.280935,0.209079 0,0.06472 0.0523,0.08534 0.116233,0.04583 0.06393,-0.03951 0.152091,-0.01382 0.195918,0.0571 0.04383,0.07091 0.125623,0.100542 0.18177,0.06584 0.05615,-0.0347 0.171005,0.01996 0.255241,0.121449 0.08424,0.101497 0.202978,0.153752 0.263871,0.116116 0.06089,-0.03763 0.110711,5.58e-4 0.110711,0.08461 0,0.08418 0.03697,0.116069 0.08216,0.07088 0.04519,-0.04518 0.149864,-0.02598 0.232615,0.04271 0.112504,0.09337 0.135354,0.04585 0.09058,-0.188376 -0.03293,-0.172282 -0.109517,-0.313241 -0.170184,-0.313241 -0.06067,0 -0.110305,-0.07294 -0.110305,-0.162078 0,-0.08914 -0.224749,-0.620601 -0.499442,-1.181019 -0.274694,-0.560419 -0.49944,-1.054912 -0.49944,-1.098872 0,-0.04396 -0.08145,-0.256983 -0.180986,-0.473382 -0.534855,-1.16273 -0.958006,-2.827391 -1.068057,-4.201695 -0.06324,-0.789742 -0.141143,-1.558002 -0.173118,-1.707245 -0.03197,-0.149242 -0.121223,-1.024027 -0.198329,-1.943963 -0.131775,-1.572153 -0.08524,-2.58959 0.195634,-4.277429 0.598632,-3.597309 3.658301,-7.412981 6.833685,-8.522196 0.72292,-0.252528 1.138514,-0.31372 2.145226,-0.315864 1.087196,-0.0023 1.353519,0.04187 2.060198,0.341764 1.091614,0.463257 2.465438,1.273921 2.981679,1.759425 0.376941,0.354498 0.52503,0.404854 1.385804,0.471233 1.702337,0.131274 3.078497,0.834107 3.935639,2.010012 2.336816,3.20584 3.312539,5.183031 3.324058,6.735809 0.0067,0.901292 -0.04387,1.149599 -0.537326,2.639095 -0.367882,1.110451 -0.443924,1.305346 -0.961631,2.464631 -0.145338,0.325451 -0.26425,0.614653 -0.26425,0.64267 0,0.02802 -0.365217,0.810484 -0.811593,1.738807 -0.446377,0.928327 -0.811594,1.724783 -0.811594,1.769905 0,0.06718 -0.534283,0.668458 -1.320042,1.485565 -0.07363,0.07657 -0.340132,0.279677 -0.592232,0.451363 -0.2521,0.171682 -0.458752,0.3857 -0.45922,0.475594 -5.58e-4,0.08989 -0.05044,0.132801 -0.111038,0.09535 -0.0606,-0.03745 -0.252072,0.04351 -0.425489,0.179922 -0.173419,0.13641 -0.376678,0.24802 -0.451689,0.24802 -0.07501,0 -0.136382,0.05951 -0.136382,0.132229 0,0.07273 -0.05618,0.0975 -0.12486,0.05506 -0.06867,-0.04244 -0.12486,-0.01165 -0.12486,0.06842 0,0.08007 -0.08428,0.113249 -0.187291,0.07372 -0.103008,-0.03953 -0.187291,-0.01413 -0.187291,0.05644 0,0.07057 -0.05166,0.09638 -0.114793,0.05736 -0.06314,-0.03902 -0.190062,0.0043 -0.282052,0.09631 -0.09199,0.09199 -0.236987,0.144011 -0.322215,0.115604 -0.08523,-0.02841 -0.154963,0.01522 -0.154963,0.09697 0,0.08174 -0.08428,0.116283 -0.187291,0.07675 -0.103008,-0.03953 -0.187288,-0.01413 -0.187288,0.05644 0,0.07057 -0.05619,0.09359 -0.124863,0.05114 -0.06867,-0.04244 -0.12486,-0.01165 -0.12486,0.06842 0,0.08007 -0.08248,0.113939 -0.183292,0.07525 -0.100808,-0.03868 -0.217067,-0.01569 -0.258346,0.05111 -0.04128,0.06679 -0.127363,0.08912 -0.191291,0.04961 -0.06393,-0.03951 -0.116233,-0.009 -0.116233,0.06776 0,0.07678 -0.05618,0.104872 -0.12486,0.06243 -0.06867,-0.04244 -0.12486,-0.01767 -0.12486,0.05506 0,0.07273 -0.04214,0.122424 -0.09365,0.110442 -0.0515,-0.01199 -0.234114,0.03963 -0.405797,0.1147 -0.317597,0.138874 -0.760955,0.310195 -0.874022,0.337741 -0.03434,0.0084 -0.190011,0.08605 -0.345946,0.172633 -0.155935,0.08658 -0.332654,0.127054 -0.392714,0.08994 -0.06006,-0.03712 -0.138763,0.0096 -0.174896,0.103727 -0.05424,0.141349 0.351844,0.171448 2.328046,0.172555 1.316563,8.36e-4 2.478034,0.03536 2.581044,0.07693 0.103008,0.04158 0.400861,0.0579 0.661894,0.03626 0.261031,-0.02163 0.498802,-1.25e-4 0.52838,0.04768 0.05162,0.08352 0.238286,0.111587 1.057213,0.158978 0.206019,0.01193 0.37458,0.05885 0.37458,0.104277 0,0.04543 0.09833,0.06669 0.218509,0.04725 0.120177,-0.01943 0.288738,0.02051 0.374579,0.08877 0.08584,0.06826 0.156077,0.08226 0.156077,0.0311 0,-0.05115 0.09292,-0.01589 0.206479,0.07836 0.113566,0.09425 0.239987,0.162432 0.280937,0.151514 0.04095,-0.01093 0.247911,0.05263 0.459911,0.141207 0.212003,0.08858 0.506985,0.199625 0.655517,0.246769 0.148534,0.04714 0.270061,0.14143 0.270061,0.209527 0,0.0681 0.05619,0.08909 0.12486,0.04665 0.06867,-0.04244 0.124862,-0.01912 0.124862,0.05185 0,0.162028 0.689864,0.527694 0.795762,0.421799 0.04304,-0.04304 0.07826,-0.01416 0.07826,0.0642 0,0.157186 0.748005,0.588436 0.751074,0.43302 0.0011,-0.05327 0.04548,-0.02828 0.09874,0.05554 0.05326,0.08382 0.628313,0.401675 1.27791,0.706353 1.907578,0.894709 2.136385,1.109318 2.93048,2.748602 0.655182,1.352524 1.204307,2.692818 1.437939,3.509699 0.05892,0.206019 0.227065,0.795985 0.373655,1.311034 0.403363,1.417243 0.622279,3.12196 0.483619,3.766021 -0.317603,1.475255 -1.098069,2.371949 -3.400269,3.906639 -1.067822,0.711832 -2.269183,1.650831 -3.033299,2.370872 -1.825092,1.719818 -2.374008,2.15143 -3.354623,2.637742 -1.019443,0.505572 -2.069661,0.668625 -3.371232,0.523413 z"
       style="fill:#000000;stroke-width:0.12486" />
  </g>
</svg>
