<?xml version="1.0" encoding="UTF-8" standalone="no"?>
<svg
   xmlns:dc="http://purl.org/dc/elements/1.1/"
   xmlns:cc="http://creativecommons.org/ns#"
   xmlns:rdf="http://www.w3.org/1999/02/22-rdf-syntax-ns#"
   xmlns:svg="http://www.w3.org/2000/svg"
   xmlns="http://www.w3.org/2000/svg"
   xmlns:sodipodi="http://sodipodi.sourceforge.net/DTD/sodipodi-0.dtd"
   xmlns:inkscape="http://www.inkscape.org/namespaces/inkscape"
   width="210mm"
   height="297mm"
   viewBox="0 0 210 297"
   version="1.1"
   id="svg1596"
   inkscape:version="1.0 (4035a4fb49, 2020-05-01)"
   sodipodi:docname="P-08.svg">
  <defs
     id="defs1590" />
  <sodipodi:namedview
     id="base"
     pagecolor="#ffffff"
     bordercolor="#666666"
     borderopacity="1.0"
     inkscape:pageopacity="0.0"
     inkscape:pageshadow="2"
     inkscape:zoom="4.2022175"
     inkscape:cx="468.52288"
     inkscape:cy="329.92024"
     inkscape:document-units="mm"
     inkscape:current-layer="layer1"
     inkscape:document-rotation="0"
     showgrid="false"
     inkscape:window-width="2160"
     inkscape:window-height="1346"
     inkscape:window-x="-11"
     inkscape:window-y="-11"
     inkscape:window-maximized="1" />
  <metadata
     id="metadata1593">
    <rdf:RDF>
      <cc:Work
         rdf:about="">
        <dc:format>image/svg+xml</dc:format>
        <dc:type
           rdf:resource="http://purl.org/dc/dcmitype/StillImage" />
        <dc:title />
      </cc:Work>
    </rdf:RDF>
  </metadata>
  <g
     inkscape:label="Layer 1"
     inkscape:groupmode="layer"
     id="layer1">
    <path
       sodipodi:nodetypes="csscssssssssssssscssssssssssssscsssccsccscssssssccccccsscsccssscscccscsssssssssssssssssssssssssscc"
       style="fill:#000000;stroke-width:0.127761"
       d="m 122.76737,98.110776 c -0.94067,-0.147066 -1.65996,-0.507183 -1.71204,-0.857131 -0.0364,-0.24482 -0.0647,-0.251071 -0.38328,-0.08485 -0.18917,0.0987 -0.43684,0.179798 -0.55037,0.180233 -0.42112,0.0014 -2.0041,-0.908341 -2.71546,-1.560931 0,0 -0.57558,-0.382332 -0.73481,-0.674103 -0.18632,-0.341401 -0.19819,-1.14985 -0.19819,-1.14985 -0.109,-0.632418 -0.22644,-1.333734 -0.26098,-1.558483 -0.11202,-0.728912 0.6616,-2.68732 2.13489,-5.404494 0.37332,-0.68851 1.50928,-2.244042 2.71559,-3.718624 0.69988,-0.855517 0.75543,-1.003958 0.23774,-0.635333 -0.63539,0.45244 -1.26705,1.149437 -2.01863,2.227424 -1.29426,1.856372 -3.56648,4.262721 -4.84331,5.12919 -0.78485,0.532621 -1.71165,0.380695 -3.71258,-0.608573 -1.59261,-0.787394 -2.13422,-1.212357 -2.76896,-2.172602 0,0 -0.49007,-0.550342 -0.59012,-0.892741 -0.10404,-0.356024 0.0172,-1.112603 0.0172,-1.112603 0.009,-0.611931 -0.0266,-1.1836 -0.0802,-1.270377 -0.19082,-0.30875 -0.4546,-1.877686 -0.4546,-2.703906 0,-0.771733 0.0354,-0.880812 0.43908,-1.352404 1.3325,-1.556733 4.47699,-1.79898 7.98944,-0.615501 0.94027,0.316809 1.94688,0.604503 2.23689,0.639316 0.29003,0.03481 0.72547,0.124395 0.96766,0.199067 1.06814,0.329324 1.85231,0.476489 1.96235,0.368273 0.1629,-0.160195 -0.54789,-0.411395 -0.90819,-0.320965 -0.189,0.04744 -0.37377,-0.01035 -0.52879,-0.165368 -0.25706,-0.257054 -0.97975,-0.553058 -1.08742,-0.445387 -0.0363,0.03626 -0.39405,-0.05684 -0.79509,-0.206887 -0.40104,-0.150048 -1.51026,-0.478302 -2.46495,-0.729453 -1.63657,-0.43054 -2.1064,-0.6013 -3.65874,-1.329752 -0.98109,-0.460388 -1.95646,-1.115101 -2.18825,-1.468844 -0.17729,-0.270584 -0.18792,-0.425409 -0.0697,-1.014309 0.28281,-1.40819 1.04014,-2.514555 1.84179,-2.690627 0.20283,-0.04454 0.31892,-0.135368 0.27137,-0.212301 -0.13476,-0.218046 -0.42988,-1.909743 -0.42983,-2.463863 7e-5,-0.77289 0.34893,-1.318533 1.10612,-1.73005 0.70973,-0.283548 1.15998,-0.519014 1.70065,-1.01346 0.35879,-0.194824 0.75659,-0.69898 1.0896,-0.642155 0.3545,0.06049 0.67405,0.276028 0.90292,0.54264 0.2301,0.2722 0.3709,0.357828 0.40813,0.248204 0.1107,-0.325956 0.63865,-0.804221 0.89754,-0.790845 0.80546,0.04162 2.39127,3.054708 3.24642,4.854921 0.60014,1.290171 0.99693,2.186341 0.99693,2.25165 0,0.04032 0.0799,0.25448 0.17754,0.475905 0.0977,0.221425 0.42113,1.023002 0.71885,1.78128 0.3096,0.788548 0.60274,1.357095 0.68485,1.328238 0.21614,-0.07598 0.13514,-0.353048 -0.76486,-2.616177 -0.93629,-2.354367 -1.27927,-3.59575 -1.40175,-5.073432 -0.0974,-1.174524 0.13683,-2.331191 0.64891,-3.204981 0.78514,-1.015763 2.00043,-2.675038 3.46352,-2.735909 0.0879,0 0.32181,0.04235 0.42235,0.142883 0.0793,0.07927 0.14982,0.1347 0.14982,0.1347 0,0 0.0631,-0.133575 0.25864,-0.27269 0.24796,-0.17643 0.81824,-0.333069 1.08961,-0.396863 1.01489,-0.11485 1.99511,0.235037 2.72292,0.749855 0.24791,0.175355 0.28553,0.235537 0.0383,0.531523 -0.17194,0.205805 -0.27193,0.298865 -0.27193,0.298865 0,0 0.2699,-0.08168 0.56076,-0.08168 0.69602,0 1.04528,0.389691 1.12607,0.793637 0.27362,0.772608 0.68504,0.884178 0.91267,1.109677 0.21185,0.280089 0.25163,0.844115 0.083,1.176003 -0.062,0.122016 -0.24466,0.566803 -0.40588,0.988414 -0.70414,1.841441 -2.6359,5.752071 -3.31333,6.707458 -0.37948,0.535184 -1.66231,2.886678 -1.66113,3.044936 0.002,0.278538 1.41815,-1.727184 2.07953,-2.945437 0.59986,-1.104936 1.70173,-2.239623 2.29791,-2.252016 0.0835,0.09428 0.34448,-0.02102 0.50921,-0.179123 0.46796,-0.528291 1.14087,-0.951754 1.59659,-1.275562 0.34318,-0.30277 1.98565,-1.00132 2.16023,-1.031243 0.45376,-0.07777 0.74077,-0.129578 1.11482,0.104986 0.16754,0.109772 0.49812,0.189704 0.73463,0.177628 0.59204,-0.03023 1.13271,0.208051 1.13271,0.499206 0,0.130927 0.34048,0.540112 0.75661,0.9093 0.69636,0.617786 0.75113,0.70511 0.68764,1.096331 -0.0638,0.393093 -0.0306,0.444672 0.44136,0.685435 0.28068,0.143194 0.54619,0.35379 0.59001,0.46799 0.0438,0.114199 0.11708,0.862527 0.1628,1.662949 0.0733,1.282846 0.0581,1.464903 -0.1278,1.536248 -0.15288,0.05866 -0.21092,0.239384 -0.21092,0.656739 0,0.809158 -0.41893,1.501413 -1.11149,1.836679 -0.48999,0.237193 -0.88636,0.278647 -3.45798,0.361652 -1.5975,0.05156 -3.99128,0.07832 -5.31951,0.05947 -3.02815,-0.043 -3.03259,0.161865 -0.0125,0.577388 2.48236,0.341538 4.26132,0.697902 5.62138,1.126081 0.93877,0.295547 1.09682,0.397566 1.94128,1.253053 1.10571,1.120158 1.83371,2.494434 1.85673,3.50504 0.008,0.345644 -0.0466,0.703557 -0.12117,0.795358 -0.21785,0.268373 -0.52367,1.283297 -0.8106,2.690103 -0.31107,1.525186 -0.61271,2.06287 -1.47923,2.636828 -1.35388,0.896766 -2.67747,0.967554 -4.81787,0.257662 -2.21355,-0.734148 -3.6714,-2.032789 -4.71198,-4.197404 -0.55658,-1.157768 -1.6394,-4.003 -2.03073,-5.335955 -0.12186,-0.415098 -0.32239,-0.634402 -0.457,-0.499794 -0.0776,0.0776 0.25109,1.114708 1.11861,3.529504 1.36335,3.794962 1.78433,5.394585 1.77798,6.755778 -0.01,2.060697 -0.75664,3.943754 -1.77973,4.486371 -0.39281,0.208336 -2.37155,0.280377 -3.37824,0.12299 z"
       id="path2187" />
  </g>
</svg>
