<?xml version="1.0" encoding="UTF-8" standalone="no"?>
<!-- Created with Inkscape (http://www.inkscape.org/) -->

<svg
   width="210mm"
   height="297mm"
   viewBox="0 0 210 297"
   version="1.1"
   id="svg1"
   xml:space="preserve"
   inkscape:version="1.3.2 (091e20e, 2023-11-25, custom)"
   sodipodi:docname="P-09.svg"
   xmlns:inkscape="http://www.inkscape.org/namespaces/inkscape"
   xmlns:sodipodi="http://sodipodi.sourceforge.net/DTD/sodipodi-0.dtd"
   xmlns="http://www.w3.org/2000/svg"
   xmlns:svg="http://www.w3.org/2000/svg"><sodipodi:namedview
     id="namedview1"
     pagecolor="#ffffff"
     bordercolor="#000000"
     borderopacity="0.25"
     inkscape:showpageshadow="2"
     inkscape:pageopacity="0.0"
     inkscape:pagecheckerboard="0"
     inkscape:deskcolor="#d1d1d1"
     inkscape:document-units="mm"
     inkscape:zoom="1.9830139"
     inkscape:cx="397.12278"
     inkscape:cy="542.35626"
     inkscape:window-width="1920"
     inkscape:window-height="1001"
     inkscape:window-x="-9"
     inkscape:window-y="-9"
     inkscape:window-maximized="1"
     inkscape:current-layer="layer1" /><defs
     id="defs1" /><g
     inkscape:label="Layer 1"
     inkscape:groupmode="layer"
     id="layer1"><path
       style="display:inline;fill:#000000;fill-opacity:1;stroke:none;stroke-width:0.190657;stroke-dasharray:none;stroke-opacity:1"
       d="m 90.65848,158.52402 c -2.114234,-0.72767 -4.381306,-2.69777 -4.630015,-4.02349 -0.06919,-0.36882 -0.119572,-0.41804 -0.35187,-0.34377 -6.276449,2.00658 -10.206412,-3.20831 -7.770361,-10.31093 0.762807,-2.22406 4.016523,-4.852 9.203538,-7.43344 2.904126,-1.4453 3.874524,-2.03588 3.345224,-2.03588 -0.121243,0 -1.959221,0.70414 -2.276468,0.87213 -0.127025,0.0672 -0.662597,0.32673 -1.190162,0.57661 -0.951352,0.4506 -3.928128,2.35635 -5.005381,2.6836 -0.435219,0.13221 -2.318407,1.1417 -3.472905,1.23925 -2.423819,0.20481 -4.763498,-0.3915 -6.834651,-0.95731 -0.324558,-0.0538 -2.164885,-0.75206 -2.71398,-1.48824 -0.478604,-0.54223 -0.738674,-1.12026 -0.961785,-1.81393 -0.676876,-2.24572 -0.239509,-3.85961 1.529448,-5.64371 l 0.901483,-0.9092 -0.435654,-0.67968 c -2.24763,-3.50663 -2.248808,-5.51549 -0.0045,-7.68665 4.611012,-4.46074 9.522508,-3.53469 16.867171,3.18025 4.538969,4.1498 5.995348,5.36081 5.977795,4.97065 -0.0058,-0.12669 -1.778435,-1.75471 -5.396245,-4.95571 -5.580024,-4.93716 -6.808618,-7.03796 -7.017147,-11.99877 -0.161344,-3.83828 0.633869,-5.2608 3.520728,-6.29805 2.041545,-0.73352 4.70231,-0.49768 5.862357,0.51963 0.18005,0.1579 0.229837,0.14224 0.406876,-0.12796 3.249166,-4.95885 9.962864,-3.73512 11.407114,2.07921 1.18854,4.7849 0.77764,8.59124 -1.40642,13.02826 -2.389912,4.85522 -1.205225,2.69114 -2.225018,4.78659 -0.335257,0.68887 -0.406574,0.94104 -0.287049,1.01491 0.230129,0.14222 0.238293,0.12921 1.530428,-2.43861 1.253669,-2.49139 1.487299,-3.00448 1.954299,-4.29199 0.31838,-0.90802 0.81749,-1.73152 1.28621,-2.56629 2.44854,-4.37081 4.08117,-5.84194 7.34572,-6.61903 4.96129,-1.18098 8.30684,1.81391 8.31695,7.44521 l 0.001,0.63553 0.79424,0.23303 c 4.39652,1.28995 5.65309,7.29862 2.13059,10.18812 -2.54567,2.08821 -7.81398,3.28396 -11.75897,2.66895 -1.04861,-0.16348 -2.1775,-0.33157 -2.50863,-0.37353 -0.87064,-0.11046 -0.6695,-0.16245 -1.55873,-0.2567 -0.72572,-0.0769 -0.94254,-0.1084 -2.60564,-0.37847 -1.46236,-0.23745 -1.52527,-0.239 -1.52527,-0.0375 0,0.36861 5.58303,1.43427 8.19827,1.56483 4.11139,0.20525 6.39298,1.24068 9.5467,4.33247 3.22212,3.15885 3.75937,6.96597 1.30675,9.2601 -0.94288,0.88197 -1.56901,1.13283 -4.14095,1.65914 -0.22253,0.0455 -0.29578,0.17779 -0.36566,0.6602 -1.00172,6.91482 -5.50356,8.39583 -11.5869,3.81186 -1.39095,-1.04812 -3.08695,-2.88817 -3.21242,-3.20267 -0.18696,-0.46863 -0.37091,-0.42786 -0.69949,-1.59473 -0.622222,-2.20961 -0.575074,-2.01022 -1.127222,-4.76644 -0.318388,-1.58934 -0.733061,-3.45634 -1.238984,-5.57829 -0.131465,-0.5514 -0.17104,-0.9901 -0.239028,-1.23928 -0.05729,-0.21001 -0.429006,-0.49682 -0.372757,0.17634 0.0196,0.23458 0.230274,0.98507 0.374976,1.68414 0.24078,1.1632 0.606532,2.78827 1.096097,4.87007 0.850114,3.61502 1.104174,7.63523 0.581808,9.20648 -1.64586,4.95067 -5.314703,7.82157 -8.56564,6.70268 z"
       id="path1"
       sodipodi:nodetypes="cscssscssssssscscscsssssssssssssccssscssssssscsssssssssscc" /></g></svg>
