<?xml version="1.0" encoding="UTF-8" standalone="no"?>
<!-- Created with Inkscape (http://www.inkscape.org/) -->

<svg
   width="210mm"
   height="297mm"
   viewBox="0 0 210 297"
   version="1.1"
   id="svg1"
   xml:space="preserve"
   inkscape:version="1.3.2 (091e20e, 2023-11-25, custom)"
   sodipodi:docname="P-22.svg"
   xmlns:inkscape="http://www.inkscape.org/namespaces/inkscape"
   xmlns:sodipodi="http://sodipodi.sourceforge.net/DTD/sodipodi-0.dtd"
   xmlns="http://www.w3.org/2000/svg"
   xmlns:svg="http://www.w3.org/2000/svg"><sodipodi:namedview
     id="namedview1"
     pagecolor="#ffffff"
     bordercolor="#000000"
     borderopacity="0.25"
     inkscape:showpageshadow="2"
     inkscape:pageopacity="0.0"
     inkscape:pagecheckerboard="0"
     inkscape:deskcolor="#d1d1d1"
     inkscape:document-units="mm"
     inkscape:zoom="3.9660278"
     inkscape:cx="386.15463"
     inkscape:cy="545.50803"
     inkscape:window-width="1920"
     inkscape:window-height="1001"
     inkscape:window-x="-9"
     inkscape:window-y="-9"
     inkscape:window-maximized="1"
     inkscape:current-layer="layer1" /><defs
     id="defs1" /><g
     inkscape:label="Layer 1"
     inkscape:groupmode="layer"
     id="layer1"><path
       style="fill:#000000;stroke-width:0.727626"
       d="m 104.77606,153.36986 c -1.6883,-1.84727 -3.22346,-4.57671 -3.63607,-6.46476 -0.21036,-0.96257 -0.26899,-0.98509 -0.50283,-0.1931 -0.43733,1.48111 -2.334082,4.78264 -3.25252,5.66139 l -0.450195,0.43074 -0.153814,-0.74092 c -0.355767,-1.71372 -0.149065,-4.1384 0.423943,-4.97298 0.318285,-0.46358 0.247742,-0.5178 -0.38378,-0.29499 -1.203647,0.42468 -4.463919,0.89806 -5.685734,0.82556 l -0.705898,-0.0419 0.705898,-0.68381 c 1.241733,-1.20287 3.889496,-2.70661 4.780858,-2.71518 0.60639,-0.006 0.100829,-0.2489 -0.898416,-0.43197 -1.434013,-0.26271 -4.141973,-1.00662 -4.973375,-1.36625 l -0.641726,-0.27759 0.449208,-0.19084 c 1.250402,-0.53121 3.181357,-0.96765 4.588339,-1.03705 0.794136,-0.0392 1.443884,-0.0965 1.443884,-0.12739 0,-0.0309 -0.488921,-0.55707 -1.086489,-1.16929 -1.322376,-1.35481 -2.652373,-3.08039 -3.27102,-4.24395 l -0.163345,-0.30722 0.679898,0.0902 c 0.89518,0.11876 2.527016,0.75559 3.342733,1.30453 1.020171,0.68652 1.250148,0.52288 0.593478,-0.4223 -1.242259,-1.78802 -1.708856,-4.47375 -1.708856,-4.47375 0,0 1.632906,0.46881 2.761244,1.33517 1.128334,0.86636 1.752113,2.13028 1.930585,2.69078 0.284873,0.89464 0.325351,0.7368 0.278077,-1.08423 -0.047,-1.81139 0.126971,-3.8174 0.415823,-4.794 l 0.170818,-0.57755 0.288112,0.64173 c 0.54853,1.22177 0.62603,1.4153 0.87372,2.18187 0.33558,1.03857 0.63849,2.34156 0.85036,3.65783 0.15462,0.9606 0.20404,1.04425 0.27127,0.67114 0.17408,-0.96613 2.65716,-5.54793 2.99854,-5.54835 0.11735,-1.5e-4 0.0705,2.21038 -0.11979,3.46541 -0.18588,1.22592 -0.42764,1.9855 -0.91853,2.71507 -0.42089,0.62551 -0.23575,0.66545 0.29414,0.0634 1.41771,-1.61061 4.99547,-3.94839 4.99547,-3.26414 0,0.85369 -1.16519,3.32488 -1.96947,4.17695 -0.7046,0.74647 -0.72853,0.943 -0.0682,0.55962 0.92239,-0.53548 4.52485,-1.43514 5.69545,-1.42235 l 0.38504,0.004 -0.38504,0.323 c -1.57293,1.31955 -4.06389,3.11145 -4.58833,3.30067 -0.26857,0.0969 -0.29998,0.34579 -0.0437,0.34579 0.55321,0 5.27604,1.99015 6.36465,2.68199 l 0.4492,0.28548 c 0,0 -2.54974,0.17834 -3.83319,0.16455 -1.28345,-0.0138 -3.86751,-0.24735 -3.86751,-0.24735 l 0.77007,0.70748 c 1.38427,1.27176 3.41052,3.75699 3.21915,3.94836 -0.2587,0.2587 -4.95154,-1.59935 -5.93606,-2.35029 l -0.42755,-0.3261 v 0.29616 c 0,0.16287 0.058,0.49791 0.12879,0.74451 0.45419,1.58119 0.61258,5.34375 0.28574,6.78769 l -0.0986,0.43546 z"
       id="path1"
       sodipodi:nodetypes="cssscsssscsssscscssscssscsssscssssssscsssccsssscscssscscscc" /></g></svg>
