<?xml version="1.0" encoding="UTF-8" standalone="no"?>
<!-- Created with Inkscape (http://www.inkscape.org/) -->

<svg
   width="210mm"
   height="297mm"
   viewBox="0 0 210 297"
   version="1.1"
   id="svg1"
   xml:space="preserve"
   inkscape:version="1.3.2 (091e20e, 2023-11-25, custom)"
   sodipodi:docname="P-34.svg"
   xmlns:inkscape="http://www.inkscape.org/namespaces/inkscape"
   xmlns:sodipodi="http://sodipodi.sourceforge.net/DTD/sodipodi-0.dtd"
   xmlns="http://www.w3.org/2000/svg"
   xmlns:svg="http://www.w3.org/2000/svg"><sodipodi:namedview
     id="namedview1"
     pagecolor="#ffffff"
     bordercolor="#666666"
     borderopacity="1.0"
     inkscape:showpageshadow="2"
     inkscape:pageopacity="0.0"
     inkscape:pagecheckerboard="0"
     inkscape:deskcolor="#d1d1d1"
     inkscape:document-units="mm"
     inkscape:zoom="7.6185746"
     inkscape:cx="393.57756"
     inkscape:cy="567.62586"
     inkscape:window-width="2160"
     inkscape:window-height="1346"
     inkscape:window-x="-11"
     inkscape:window-y="-11"
     inkscape:window-maximized="1"
     inkscape:current-layer="layer1" /><defs
     id="defs1" /><g
     inkscape:label="Layer 1"
     inkscape:groupmode="layer"
     id="layer1"><path
       style="fill:#000000;stroke-width:0.78018"
       d="m 102.03085,155.66821 c -0.38601,-0.3248 -0.47926,-0.341 -1.56653,-0.27205 -1.518459,0.0963 -2.042394,-0.14218 -2.254178,-1.02601 -0.07884,-0.32901 -0.268443,-0.70057 -0.421349,-0.8257 -1.365185,-1.1171 -0.753012,-2.3989 1.721473,-3.60449 0.683614,-0.33307 1.242934,-0.65022 1.242934,-0.70479 0,-0.25528 -0.33679,-0.22087 -1.46445,0.14966 -3.08039,1.01215 -4.762135,0.84518 -4.551645,-0.45192 0.06033,-0.37179 0.01315,-0.52126 -0.229065,-0.72559 -1.201924,-1.01394 -1.187685,-2.0143 0.03589,-2.52111 0.399507,-0.16548 0.429444,-0.22563 0.429444,-0.86287 0,-2.3181 1.65758,-2.43483 4.717017,-0.33218 1.140649,0.78394 1.455729,0.58272 0.565209,-0.36096 -2.379061,-2.52107 -3.296165,-4.2311 -2.17127,-4.04856 0.393626,0.0639 0.50245,0.017 0.741996,-0.31937 0.873513,-1.22674 2.115294,-1.63491 2.849344,-0.93658 0.36171,0.34409 0.42309,0.3573 1.01965,0.21946 2.15011,-0.49682 2.88315,1.04493 1.91111,4.01949 -0.51636,1.58011 -0.38314,2.38285 0.1642,0.98946 0.6707,-1.70744 2.06194,-3.46653 2.74164,-3.46653 0.36368,0 1.08499,0.69674 1.08499,1.04803 0,0.0701 0.38217,0.20017 0.84926,0.28894 1.20641,0.22926 1.559,0.60982 1.559,1.68261 0,0.65015 0.0611,0.87622 0.30752,1.13867 1.10572,1.17748 0.0854,2.07698 -2.82024,2.48616 -1.44033,0.20283 -1.38658,0.32081 0.42282,0.92806 2.49969,0.83892 3.14781,1.50933 2.23443,2.31129 -0.39384,0.34579 -0.48984,0.52984 -0.49517,0.94922 -0.0177,1.39392 -0.78752,2.03403 -2.44617,2.03403 -0.9158,0 -1.27331,0.0561 -1.53428,0.24082 -1.28353,0.90847 -2.42515,-0.17632 -2.82406,-2.68349 -0.21155,-1.32963 -0.41368,-0.48907 -0.41368,1.72035 0,2.96394 -0.3942,3.78719 -1.40584,2.93595 z"
       id="path1" /></g></svg>
