<?xml version="1.0" encoding="UTF-8" standalone="no"?>
<!-- Created with Inkscape (http://www.inkscape.org/) -->

<svg
   width="210mm"
   height="297mm"
   viewBox="0 0 210 297"
   version="1.1"
   id="svg1"
   xml:space="preserve"
   inkscape:version="1.3.2 (091e20e, 2023-11-25, custom)"
   sodipodi:docname="P-35.svg"
   xmlns:inkscape="http://www.inkscape.org/namespaces/inkscape"
   xmlns:sodipodi="http://sodipodi.sourceforge.net/DTD/sodipodi-0.dtd"
   xmlns="http://www.w3.org/2000/svg"
   xmlns:svg="http://www.w3.org/2000/svg"><sodipodi:namedview
     id="namedview1"
     pagecolor="#ffffff"
     bordercolor="#666666"
     borderopacity="1.0"
     inkscape:showpageshadow="2"
     inkscape:pageopacity="0.0"
     inkscape:pagecheckerboard="0"
     inkscape:deskcolor="#d1d1d1"
     inkscape:document-units="mm"
     inkscape:zoom="15.237149"
     inkscape:cx="382.19091"
     inkscape:cy="502.48901"
     inkscape:window-width="2160"
     inkscape:window-height="1346"
     inkscape:window-x="-11"
     inkscape:window-y="-11"
     inkscape:window-maximized="1"
     inkscape:current-layer="layer1" /><defs
     id="defs1" /><g
     inkscape:label="Layer 1"
     inkscape:groupmode="layer"
     id="layer1"><path
       style="opacity:0.998;fill:#000000;fill-opacity:1;stroke:none;stroke-width:0;stroke-linecap:round;stroke-dasharray:none;stroke-opacity:1"
       d="m 96.230442,129.22832 c -0.362041,-1.09094 -0.531011,-2.56659 -0.548491,-4.24165 1.153341,0.57717 2.322558,1.51946 3.510338,2.88871 0.941501,-0.50895 2.176961,-0.72393 3.565181,-0.78617 -0.28273,1.30202 -0.78295,2.40632 -1.44435,3.36408 1.22638,0.87077 2.07268,1.93159 2.54133,3.18124 -1.44742,-0.0315 -2.84273,-0.28867 -4.186808,-0.76789 -0.399341,1.3273 -1.05639,2.53403 -1.937996,3.62003 -0.673882,-1.51091 -1.028718,-2.962 -1.151829,-4.36963 -1.685694,-0.0769 -2.910652,-0.44699 -3.839428,-1.00556 1.276634,-1.07819 2.421712,-1.63015 3.492053,-1.88316 z"
       id="path1"
       sodipodi:nodetypes="ccccccccccc" /></g></svg>
