<?xml version="1.0" encoding="UTF-8" standalone="no"?>
<!-- Created with Inkscape (http://www.inkscape.org/) -->

<svg
   width="210mm"
   height="297mm"
   viewBox="0 0 210 297"
   version="1.1"
   id="svg1"
   xml:space="preserve"
   inkscape:version="1.3.2 (091e20e, 2023-11-25, custom)"
   sodipodi:docname="P-37.svg"
   xmlns:inkscape="http://www.inkscape.org/namespaces/inkscape"
   xmlns:sodipodi="http://sodipodi.sourceforge.net/DTD/sodipodi-0.dtd"
   xmlns="http://www.w3.org/2000/svg"
   xmlns:svg="http://www.w3.org/2000/svg"><sodipodi:namedview
     id="namedview1"
     pagecolor="#ffffff"
     bordercolor="#666666"
     borderopacity="1.0"
     inkscape:showpageshadow="2"
     inkscape:pageopacity="0.0"
     inkscape:pagecheckerboard="0"
     inkscape:deskcolor="#d1d1d1"
     inkscape:document-units="mm"
     inkscape:zoom="5.3871458"
     inkscape:cx="410.14298"
     inkscape:cy="551.03391"
     inkscape:window-width="2160"
     inkscape:window-height="1346"
     inkscape:window-x="-11"
     inkscape:window-y="-11"
     inkscape:window-maximized="1"
     inkscape:current-layer="layer1" /><defs
     id="defs1" /><g
     inkscape:label="Layer 1"
     inkscape:groupmode="layer"
     id="layer1"><path
       style="fill:#000000;stroke-width:0.721059"
       d="m 96.551193,155.3652 c -5.43078,-1.13587 -5.172395,-6.99842 0.415098,-9.41821 0.697632,-0.30213 1.033313,-0.74875 0.430025,-0.57215 -5.731818,1.67788 -8.509002,0.88481 -9.107741,-2.60086 -0.78702,-4.58179 3.465702,-5.65814 8.713985,-2.20549 1.343008,0.88352 1.557754,0.86718 0.821813,-0.0625 -1.564886,-1.97695 -2.835774,-5.00605 -2.632825,-6.27523 0.605422,-3.7861 6.473712,-5.16979 8.130402,-1.91708 0.56181,1.10307 0.80323,3.84382 0.45543,5.17036 -0.33355,1.27215 -0.43439,1.57561 -0.70963,2.13546 -0.48481,0.98608 -0.0574,0.81634 0.66962,-0.26595 3.78805,-5.63903 11.6435,-3.80604 9.93454,2.31813 -0.43637,1.56373 -3.05286,2.64415 -6.48531,2.67795 -2.07822,0.0205 -2.17522,0.12963 -0.68846,0.77477 4.97656,2.15944 6.82103,5.79988 4.24418,8.37673 -2.79847,2.79848 -7.3401,0.27096 -8.71199,-4.84841 -0.41232,-1.53865 -0.51306,-1.45899 -0.53637,0.4241 -0.0606,4.89306 -1.691773,6.96837 -4.942767,6.28842 z"
       id="path1" /></g></svg>
