<?xml version="1.0" encoding="UTF-8" standalone="no"?>
<svg
   xmlns:dc="http://purl.org/dc/elements/1.1/"
   xmlns:cc="http://creativecommons.org/ns#"
   xmlns:rdf="http://www.w3.org/1999/02/22-rdf-syntax-ns#"
   xmlns:svg="http://www.w3.org/2000/svg"
   xmlns="http://www.w3.org/2000/svg"
   xmlns:sodipodi="http://sodipodi.sourceforge.net/DTD/sodipodi-0.dtd"
   xmlns:inkscape="http://www.inkscape.org/namespaces/inkscape"
   sodipodi:docname="P-39.svg"
   inkscape:version="1.0 (4035a4fb49, 2020-05-01)"
   id="svg1440"
   version="1.1"
   viewBox="0 0 210 297"
   height="297mm"
   width="210mm">
  <defs
     id="defs1434" />
  <sodipodi:namedview
     inkscape:window-maximized="1"
     inkscape:window-y="-11"
     inkscape:window-x="-11"
     inkscape:window-height="1346"
     inkscape:window-width="2160"
     showgrid="false"
     inkscape:document-rotation="0"
     inkscape:current-layer="layer1"
     inkscape:document-units="mm"
     inkscape:cy="564.08732"
     inkscape:cx="344.45503"
     inkscape:zoom="5.7475981"
     inkscape:pageshadow="2"
     inkscape:pageopacity="0.0"
     borderopacity="1.0"
     bordercolor="#666666"
     pagecolor="#ffffff"
     id="base" />
  <metadata
     id="metadata1437">
    <rdf:RDF>
      <cc:Work
         rdf:about="">
        <dc:format>image/svg+xml</dc:format>
        <dc:type
           rdf:resource="http://purl.org/dc/dcmitype/StillImage" />
        <dc:title></dc:title>
      </cc:Work>
    </rdf:RDF>
  </metadata>
  <g
     id="layer1"
     inkscape:groupmode="layer"
     inkscape:label="Layer 1">
    <path
       sodipodi:nodetypes="ssscsssssssssssssssssssssscsssssssssssssssssss"
       id="path2017"
       d="m 83.750336,157.40182 c -2.234747,-0.73512 -2.969359,-3.11151 -1.676846,-5.42442 0.488419,-0.87401 0.652242,-1.05918 1.356224,-1.533 1.099537,-0.74007 2.718677,-2.14843 2.602973,-2.26414 -0.445793,0.12509 -0.964539,0.5006 -1.341816,0.79204 -0.400351,0.30925 -1.095261,0.69609 -1.382257,0.95875 -0.951375,0.8707 -2.096187,1.29848 -3.474941,1.29848 -1.410507,0 -2.552553,-0.76694 -3.246602,-2.18026 -0.831225,-1.69265 -0.185706,-3.38673 1.658602,-4.35279 0.649784,-0.34036 1.861219,-0.48268 2.395799,-0.46465 1.70361,0.0575 1.786229,0.11648 3.238279,0.633 0.813281,0.28928 1.652279,0.56501 1.864439,0.61272 0.355075,0.0799 0.344802,0.0629 -0.129214,-0.21356 -0.485389,-0.28309 -0.848403,-0.43663 -2.685207,-1.1358 -1.440071,-0.54815 -2.840318,-1.68224 -3.380223,-2.73772 -0.606953,-1.18655 -0.366461,-2.81869 0.548604,-3.72319 0.68194,-0.67407 1.29875,-0.90529 2.43149,-0.9115 1.423984,-0.008 2.211411,0.28261 2.928378,1.08005 0.622787,0.69269 0.778762,1.12112 0.984907,2.70533 0.07822,0.60112 0.172074,1.27219 0.208561,1.49126 0.103725,0.62278 0.80685,2.71804 0.815623,2.43049 0.01363,-0.44656 -0.355642,-3.31279 -0.52182,-4.05034 -0.468644,-2.07998 0.161107,-3.64418 1.77033,-4.39723 2.684483,-1.25622 5.642081,-0.13145 5.811457,2.21009 0.114018,1.57635 -0.555846,3.12836 -1.956926,4.53399 -0.613485,0.61548 -1.095787,1.24532 -1.36173,1.77829 l -0.411791,0.82527 0.611644,-0.57862 c 0.767697,-0.72624 1.308541,-1.31988 1.760766,-1.93264 1.050572,-1.42351 3.851606,-1.43692 5.792551,-0.0277 1.21967,0.88552 1.70514,2.12297 1.32792,3.38487 -0.305818,1.02301 -0.989744,1.87893 -1.793155,2.24409 -1.510657,0.68661 -3.645806,0.73218 -4.883916,0.10423 -0.744988,-0.37785 -2.72759,-1.07495 -3.038398,-1.06833 -0.622447,0.0133 1.620297,1.2105 2.88507,1.54014 0.947029,0.24683 1.487975,0.55138 2.303881,1.29707 0.947142,0.86563 1.103542,1.18824 1.103542,2.27621 0,1.10379 -0.154819,1.57628 -0.802318,2.44856 -0.915053,1.23272 -2.596037,1.67558 -3.922588,1.03341 -0.681751,-0.33003 -1.711707,-1.35038 -2.144206,-2.12421 -0.360991,-0.64588 -0.97859,-2.29805 -1.30308,-3.48593 -0.121746,-0.44568 -0.291856,-0.80364 -0.381914,-0.80364 -0.123181,0 -0.133523,0.11642 -0.04283,0.48219 0.659534,2.66001 0.371539,4.95863 -0.774107,6.17845 -0.777805,0.82817 -2.759853,1.39482 -3.745151,1.07071 z"
       style="fill:#000000;stroke-width:0.128582" />
  </g>
</svg>
