<?xml version="1.0" encoding="utf-8"?>
<!-- Generator: Adobe Illustrator 23.0.6, SVG Export Plug-In . SVG Version: 6.00 Build 0)  -->
<svg version="1.1" id="Слой_1" xmlns="http://www.w3.org/2000/svg" xmlns:xlink="http://www.w3.org/1999/xlink" x="0px" y="0px"
	 viewBox="0 0 864 864" enable-background="new 0 0 864 864" xml:space="preserve">
<g>
	<path d="M641.277,727.843c-9.225-0.472-18.548-0.263-27.652-1.574c-14.119-2.033-24.561,2.49-35.048,12.397
		c-59.783,56.482-131.088,84.651-213.477,82.173c-69.777-2.099-130.873-27.454-183.721-72.907
		c-13.416-11.539-16.848-11.626-31.63-1.366c-39.917,27.707-71.969,62.579-95.742,104.987c-3.188,5.688-7.578,13.282-13.077,12.372
		c-5.919-0.98-8.816-9.169-10.648-15.858c-4.994-18.236-3.911-36.576-1.615-55.026c7.524-60.469,25.885-117.415,55.401-170.716
		c5.037-9.096,6.46-18.253,4.317-28.475C55.649,437.726,141.916,292.03,294.61,245.713c13.143-3.987,20.939-11.78,24.972-24.914
		c20.907-68.077,35.677-137.446,45.113-208c0.623-4.655-0.639-12.7,4.763-12.798c5.931-0.107,4.345,7.974,4.966,12.505
		c9.617,70.186,23.795,139.349,44.504,207.173c3.992,13.072,10.874,19.749,24.38,23.16
		c152.88,38.613,245.685,180.127,220.185,335.704c-2.426,14.803,1.57,23.799,14.179,31.673
		c42.879,26.776,88.706,44.486,139.385,48.526c7.952,0.634,18.082,3.362,19.888,8.966c2.053,6.373-6.306,12.881-12.609,17.369
		c-13.101,9.329-27.53,16.067-42.878,20.626C735.735,719.283,689.199,727.884,641.277,727.843z M547.276,721.527
		c-2.77-3.388-6.195-3.06-9.167-3.731c-42.911-9.692-85.546-20.255-126.313-37.276c-6.437-2.688-8.361-4.638-3.856-11.362
		c42.905-64.053,85.568-128.27,128.012-192.63c4.633-7.025,7.163-6.312,10.727,0.257c1.508,2.779,3.649,5.214,5.491,7.813
		c20.514,28.933,42.923,56.181,69.867,79.487c5.75,4.974,8.191,5.586,9.464-3.326c2.9-20.298,4.809-40.676,1.879-60.955
		c-15.369-106.37-73.426-178.685-174.182-216.422c-5.513-2.065-13.365-7.522-16.581-3.961c-4.373,4.843,0.999,12.445,3.528,18.448
		c17.187,40.803,34.375,81.607,51.949,122.243c4.371,10.106,3.866,18.826-2.586,27.778c-6.513,9.037-12.355,18.56-18.447,27.898
		c-32.547,49.897-65.023,99.841-97.655,149.683c-9.674,14.776-10.422,14.7-19.875,0.167
		c-38.391-59.014-76.604-118.144-115.221-177.01c-6.258-9.54-7.041-18.319-2.624-28.69c17.722-41.612,35.07-83.383,52.475-125.129
		c1.312-3.147,4.092-7.167,2.05-9.771c-2.411-3.074-6.455,0.182-9.716,0.911c-3.091,0.691-6.138,1.756-9.063,2.992
		c-91.132,38.502-143.829,107.453-160.974,204.175c-4.172,23.538-3.618,47.256,0.674,70.99c4.585-0.695,5.758-4.071,7.71-6.328
		c22.716-26.268,45.425-52.544,67.826-79.08c4.678-5.541,6.915-5.279,10.782,0.794c19.503,30.633,39.394,61.019,59.161,91.484
		c20.982,32.336,41.984,64.657,62.963,96.995c6.114,9.424,6.074,9.362-5.306,11.617c-9.684,1.919-19.369,3.867-28.981,6.114
		c-28.621,6.689-56.385,15.903-82.932,28.625c-9.87,4.73-9.884,4.727-1.587,12.353c0.704,0.647,1.431,1.268,2.147,1.901
		c79.514,70.375,206.36,80.804,297.975,24.495C521.534,744.077,535.249,733.921,547.276,721.527z"/>
</g>
</svg>
