<?xml version="1.0" encoding="utf-8"?>
<!-- Generator: Adobe Illustrator 23.0.6, SVG Export Plug-In . SVG Version: 6.00 Build 0)  -->
<svg version="1.1" id="Слой_1" xmlns="http://www.w3.org/2000/svg" xmlns:xlink="http://www.w3.org/1999/xlink" x="0px" y="0px"
	 viewBox="0 0 864 864" enable-background="new 0 0 864 864" xml:space="preserve">
<g>
	<path d="M863.998,483.92c0.215,43.396-15.552,83.112-42.596,118.918c-25.112,33.247-56.591,59.306-91.669,81.274
		c-7.026,4.4-2.815,10.83-2.214,15.418c2.444,18.651,4.909,37.273,6.441,56.038c1.076,13.183,3.032,26.295,4.617,39.437
		c0.497,4.124-1.23,7.503-4.999,8.392c-4.528,1.068-9.841,3.452-13.324-2.552c-9.532-16.434-19.116-32.839-28.708-49.238
		c-6.118-10.459-12.636-20.704-18.273-31.415c-2.475-4.703-5.668-5.019-9.305-3.335c-29.356,13.592-60.343,22.086-91.763,28.951
		c-23.965,5.236-48.216,8.78-72.64,11.757c-34.397,4.193-68.771,3.196-103.107,2.521c-26.189-0.514-52.334-3.97-78.19-9.01
		c-11.899-2.319-23.886-4.093-35.59-7.385c-3.112-0.875-5.904,0.228-8.116,2.999c-28.777,36.053-58.343,71.485-85.474,108.829
		c-3.217,4.428-7.664,6.796-12.804,5.517c-5.346-1.329-8.088-5.24-7.434-11.318c2.848-26.489,2.737-53.207,6.443-79.654
		c1.922-13.722,2.534-27.627,3.723-41.451c0.072-0.837-0.035-1.688,0.019-2.528c1.099-17.108,1.076-17.058-14.505-24.916
		c-42.041-21.201-79.62-48.598-110.693-83.958c-27.355-31.13-46.59-66.743-52.024-108.703c-5.62-43.398,1.714-83.983,23.516-122.349
		c16.052-28.248,37.336-51.445,61.597-72.54c39.499-34.345,84.712-58.402,133.664-76.043c27.961-10.077,56.452-18.155,85.687-23.555
		c3.491-0.645,5.004-3.116,6.261-6.02c9.542-22.044,21.463-42.852,33.098-63.815c16.978-30.591,35.995-59.866,56.48-88.204
		c11.988-16.585,24.559-32.718,37.799-48.326c5.584-6.582,12.026-6.775,17.17-0.199c28.735,36.728,55.196,75.036,79.341,114.931
		c18.578,30.696,36.265,61.892,51.939,94.19c1.555,3.203,3.494,5.029,7.209,6.034c48.311,13.067,94.253,31.473,136.972,58.098
		c28.833,17.971,54.784,39.225,77.074,64.425c27.408,30.986,46.334,66.664,52.595,108.418
		C863.647,463.095,862.964,472.465,863.998,483.92z M190.643,637.156c18.521-117.762,43.421-233.368,86.154-345.603
		c-4.985,1.529-8.104,2.539-11.252,3.444c-31.936,9.183-62.149,22.536-90.723,39.288c-34.728,20.36-65.271,45.462-86.796,80.368
		c-17.911,29.045-24.909,59.738-17.011,93.42c6.496,27.702,21.749,50.294,40.443,70.964c9.748,10.779,20.682,20.286,32.335,28.925
		C158.393,618.786,173.38,629.031,190.643,637.156z M330.237,683.926c35.99,5.986,70.617,9.581,105.597,9.036
		c11.141-0.174,22.293-0.9,33.401-1.354c22.51-0.92,44.877-3.415,66.811-7.516c31.544-5.897,62.706-14.049,92.889-25.379
		c3.508-1.317,5.255-2.157,2.617-6.331c-24.145-38.198-49.647-75.483-75.569-112.479c-10.512-15.003-20.592-17.352-34.804-9.327
		c-4.091,2.31-8.11,4.758-12.27,6.935c-32.468,16.989-61.023,39.572-89.33,62.495c-11.475,9.293-21.938,19.771-33.126,29.353
		C366.86,646.142,350.29,665.837,330.237,683.926z M714.382,612.419c2.695-1.522,4.711-2.421,6.464-3.686
		c20.007-14.434,36.871-31.976,50.74-52.324c28.62-41.992,33.304-86.47,10.489-132.095c-13.086-26.168-32.468-47.712-55.971-65.809
		c-25.957-19.987-53.638-36.464-84.078-48.436c-4.637-1.824-8.612-5.496-14.152-5.108
		C667.921,404.113,696.89,506.099,714.382,612.419z"/>
</g>
</svg>
