<?xml version="1.0" encoding="utf-8"?>
<!-- Generator: Adobe Illustrator 23.0.6, SVG Export Plug-In . SVG Version: 6.00 Build 0)  -->
<svg version="1.1" id="Слой_1" xmlns="http://www.w3.org/2000/svg" xmlns:xlink="http://www.w3.org/1999/xlink" x="0px" y="0px"
	 viewBox="0 0 864 864" enable-background="new 0 0 864 864" xml:space="preserve">
<g>
	<path d="M44.149,864C24.26,798.429,31.412,742.274,68.184,692.191c24.285-33.076,33.19-66.465,29.774-108.087
		c-11.211-136.602,74.83-259.273,206.579-298.807c19.349-5.806,28.026-15.163,32.208-34.825
		c16.756-78.787,36.037-157.053,45.274-237.268c0.531-4.613,0.759-9.31,6.346-13.204c15.552,79.043,31.903,156.652,45.613,234.726
		c4.998,28.465,14.859,43.638,45.451,52.893C597.703,323.4,676.518,426.784,685.513,550.713c1.79,24.661-1.567,48.993-7.585,72.807
		c-3.77,14.916,0.5,23.276,14.725,29.738c42.85,19.467,87.823,30.459,138.045,35.361c-20.462,26.657-44.972,41.569-72.184,52.513
		c-37.585,15.117-76.983,16.954-116.694,13.48c-16.235-1.42-28.289,3.004-40.215,14.598
		c-122.943,119.527-294.85,120.93-418.948,3.399c-12.404-11.748-22.029-13.909-37.066-4.692
		C106.661,791.779,73.06,821.037,44.149,864z M428.323,713.075c35.756-59.597,70.296-116.195,103.665-173.476
		c8.287-14.226,12.5-13.654,22.722-1.767c26.25,30.524,52.16,61.597,85.604,84.99c12.813,8.962,19.635,9.243,22.619-9.426
		c14.714-92.055-9.234-172.119-72.911-239.879c-37.524-39.93-83.759-64.859-141.382-78.03c4.945,14.959,8.353,26.051,12.266,36.962
		c11.718,32.676,23.632,65.282,35.474,97.914c3.272,9.018,5.892,17.78,1.051,27.401c-31.828,63.252-70.607,122.314-108.475,185.376
		c-38.236-62.086-74.519-121.312-111.212-180.282c-6.401-10.287-3.436-19.572-0.045-29.338
		c13.2-38.009,26.455-75.999,39.573-114.037c1.979-5.737,6.767-12.457,1.675-17.577c-5.179-5.209-11.951-0.2-17.635,1.756
		c-89.106,30.661-148.087,91.186-176.589,180.754c-14.541,45.695-18.257,92.172-3.846,141.292
		c36.239-25.829,69.268-51.391,94.179-85.653c11.077-15.235,18.317-16.546,28.479,0.993c24.151,41.683,49.802,82.495,74.34,123.959
		c8.733,14.757,20.164,28.252,24.516,47.062c-48.424,5.955-95.937,12.798-141.356,29.652c-15.129,5.614-19.001,9.999-4.892,22.721
		c52.36,47.213,112.109,75.673,183.511,77.505c84.418,2.167,155.831-26.06,216.133-91.536
		C538.547,737.65,484.416,725.581,428.323,713.075z"/>
</g>
</svg>
