<?xml version="1.0" encoding="utf-8"?>
<!-- Generator: Adobe Illustrator 23.0.6, SVG Export Plug-In . SVG Version: 6.00 Build 0)  -->
<svg version="1.1" id="Слой_1" xmlns="http://www.w3.org/2000/svg" xmlns:xlink="http://www.w3.org/1999/xlink" x="0px" y="0px"
	 viewBox="0 0 864 864" enable-background="new 0 0 864 864" xml:space="preserve">
<g>
	<path d="M578.73,863.816c-35.601,0-71.206-0.273-106.801,0.179c-9.73,0.124-15.495-2.266-17.543-12.626
		c-6.911-34.96-25.852-60.579-54.318-83.201c-43.433-34.516-81.66-75.32-119.71-115.875c-5.289-5.637-10.407-11.94-13.724-18.839
		c-27.173-56.515-68.666-102.768-107.529-150.889c-11.115-13.762-26.687-22.718-39.554-34.61c-5.9-5.452-13.867-10.95-11.021-20.676
		c3.047-10.411,11.822-15.24,21.814-17.311c17.54-3.636,33.795,1.726,49.714,8.241c24.409,9.99,44.043,26.87,62.649,44.872
		c25.577,24.747,50.147,50.542,75.939,75.056c22.673,21.549,31.642,18.822,39.66-11.486c7.001-26.463,10.916-53.637,11.578-80.933
		c1.251-51.61,2.003-103.062-3.772-154.776c-7.148-64.007-4.343-128.618-0.301-192.871c1.451-23.066,13.176-42.339,41.551-36.474
		c9.916,2.05,11.458-2.937,11.478-11.143c0.027-11.137-0.74-22.637,6.104-32.518c8.324-12.019,19.239-19.495,34.517-17.66
		c15.539,1.867,22.035,13.165,25.509,26.598c9.659,37.352,14.2,75.659,20.542,113.619c10.536,63.065,27.002,124.763,42.155,186.77
		c0.346,1.416,0.991,2.756,1.376,4.165c3.201,11.724,9.952,21.742,22.332,22.017c11.036,0.245,15.262-10.811,18.877-19.936
		c25.803-65.122,41.865-132.805,53.006-201.799c3.418-21.167,7.336-42.261,11.439-63.308c3.893-19.967,18.003-31.274,35.455-29.085
		c19.453,2.439,30.772,16.835,28.985,38.315c-1.657,19.913-4.064,39.776-6.683,59.59c-1.015,7.681-1.443,11.44,9.002,10.001
		c20.687-2.85,33.188,8.521,34.268,29.83c2.112,41.713-6.022,82.556-11.456,123.588c-3.71,28.012-8.543,55.878-13.026,83.785
		c-5.499,34.229,1.004,68.014,3.205,102.003c5.505,84.987,5.684,169.456-21.793,251.828c-9.321,27.942-6.512,57.978-8.119,87.134
		c-2.121,38.493-1.823,38.51-39.481,38.512c-28.774,0.002-57.548,0-86.322,0C578.73,863.875,578.73,863.845,578.73,863.816z"/>
</g>
</svg>
