<?xml version="1.0" encoding="utf-8"?>
<!-- Generator: Adobe Illustrator 23.0.6, SVG Export Plug-In . SVG Version: 6.00 Build 0)  -->
<svg version="1.1" id="Слой_1" xmlns="http://www.w3.org/2000/svg" xmlns:xlink="http://www.w3.org/1999/xlink" x="0px" y="0px"
	 viewBox="0 0 864 864" enable-background="new 0 0 864 864" xml:space="preserve">
<g>
	<path d="M364.871,673.749c-60.436-9.667-118.619-12.633-173.644-32.072c-64.076-22.637-82.947-59.302-64.162-126.686
		c2.127-7.631,2.359-17.214,14.383-21.997c17.927,22.747,39.695,42.728,66.638,60.267c6.475-17.393,2.788-37.843,22.759-49.351
		c35.935,95.981,103.228,158.72,208.954,156.482c99.055-2.097,159.328-65.697,193.05-156.078
		c18.067,12.406,16.385,31.807,21.87,50.23c26.499-16.968,50.01-34.828,66.246-61.387c41.077,53.318,22.593,123.547-35.628,145.481
		c-57.081,21.505-117.348,26.313-180.643,35.741c16.495,19.241,40.248,29.862,44.106,55.085
		c-21.042,11.159-35.637,13.204-52.807-11.997c-30.049-44.105-96.431-40.625-130.735,2.105c-5.657,7.047-5.689,20.1-18.232,20.02
		c-10.734-0.068-23.742,0.418-29.722-9.504c-4.41-7.317,3.321-16.078,8.843-21.736C336.924,697.305,349.117,687.641,364.871,673.749
		z"/>
	<path d="M762.62,581.182c-4.852-36.739-11.123-69.832-20.678-103.537c-6.4-22.572-2.481-56.258,28.817-72.229
		c6.277-3.203,9.129-13.119,15.49-22.908c13.765,14.622,14.523,46.369,46.689,34.629c4.316-1.575,18.162,17.056,13.297,32.724
		C830.326,501.094,801.58,544.044,762.62,581.182z"/>
	<path d="M79.058,386.369c2.067,16.61,26.693,14.859,32.528,34.508c8.568,28.851,19.103,54.974,0.812,85.592
		c-12.519,20.955-6.082,48.673-8.565,80.673C61.201,543.91,33.082,500.099,18.096,448.98c-5.309-18.109-0.683-37.051,26.767-32.723
		C70.134,420.242,59.291,388.921,79.058,386.369z"/>
	<path d="M821.988,206.889c16.385-10.11,19.645,0.49,23.254,13.626c12.643,46.019-3.896,130.219-34.999,172.269
		c-14.896-18.732-16.883-39.124-17.812-62.668c-1.365-34.632,12.262-69.152,0.069-103.65c-3.315-9.378,3.705-12.582,11.475-14.104
		C812.078,217.442,822.344,229.643,821.988,206.889z"/>
	<path d="M48.651,394.493C25.986,342.379,8.039,288.951,16.613,231.253c1.219-8.2-8.907-37.334,21.448-26.209
		c3.617,4.099,7.234,8.198,10.852,12.298c5.034,7.299,26.921-17.31,20.989,11.462c-7.53,36.518,0.809,73.2,1.026,109.809
		c0.137,23.097-5.566,41.075-22.669,55.84L48.651,394.493z"/>
	<path d="M821.988,206.889c0.356,22.754-9.91,10.554-18.012,5.473c-29.754-18.092-23.583-54.866-42.519-79.243
		C817.305,132.391,838.185,158.403,821.988,206.889z"/>
	<path d="M48.913,217.341c-3.617-4.099-7.234-8.199-10.852-12.298c-8.793-52.088,0.339-63.018,70.409-80.634
		C82.431,153.841,89.787,200.198,48.913,217.341z"/>
	<path d="M48.26,394.452c-10.378,11.584-30.089-1.602-36.975,19.909C-2.9,378.138-0.837,346.259,2.212,308.019
		c20.531,30.446,15.034,68.82,46.367,86.447C48.651,394.493,48.26,394.452,48.26,394.452z"/>
	<path d="M816.003,410.043c21.113-36.912,30.347-66.305,47.628-95.011c0,16.936,1.01,33.951-0.31,50.783
		c-1.115,14.213-1.164,31.022-8.852,41.343C849.163,414.281,835.934,393.928,816.003,410.043z"/>
</g>
</svg>
