<?xml version="1.0" encoding="utf-8"?>
<!-- Generator: Adobe Illustrator 23.0.6, SVG Export Plug-In . SVG Version: 6.00 Build 0)  -->
<svg version="1.1" id="Слой_1" xmlns="http://www.w3.org/2000/svg" xmlns:xlink="http://www.w3.org/1999/xlink" x="0px" y="0px"
	 viewBox="0 0 864 864" enable-background="new 0 0 864 864" xml:space="preserve">
<g>
	<path d="M769.131,438.185c0,14.153,0,28.307,0,42.46c-1.558,1.589-1.29,3.666-1.423,5.6c-2.638,38.167-11.971,74.62-27.371,109.638
		c-12.371,28.13-28.418,53.982-46.95,78.381c-4.849,6.384-6.353,12.993-4.952,21.353c6.074,36.258,10.871,72.712,13.093,109.443
		c0.305,5.045,0.272,10.286-0.763,15.191c-1.2,5.685-6.076,6.623-9.757,2.139c-3.581-4.362-6.868-8.996-9.963-13.721
		c-15.215-23.229-25.528-49.138-39.719-72.953c-3.677-6.17-5.948-7.334-12.543-3.219c-54.417,33.953-113.489,54.541-177.683,58.764
		c-61.878,4.07-121.002-7.592-177.329-33.528c-13.688-6.303-13.97-6.163-24.226,5.337c-0.565,0.633-1.071,1.318-1.631,1.956
		c-25.947,29.542-49.655,61.056-77.686,88.744c-4.6,4.544-8.458,13.121-17.127,9.254c-8.922-3.98-5.761-12.768-5.113-19.628
		c4.926-52.121,13.843-103.648,24.109-154.943c1.156-5.776,0.317-10.109-2.918-14.936c-25.765-38.452-46.898-79.227-61.546-123.272
		c-6.623-19.913-10.267-40.373-12.763-61.109c0-14.719,0-29.439,0-44.158c0.487-3.01,1.222-6.004,1.426-9.033
		c4.959-73.363,36.378-135.997,83.408-190.014c44.895-51.565,101.849-87.509,167.17-109.172c4.74-1.572,7.382-4.196,9.527-8.577
		c16.023-32.728,30.839-66.079,49.458-97.482c7.05-11.89,14.301-23.715,26.99-30.7c3.397,0,6.794,0,10.19,0
		c8.653,6.639,14.838,15.296,20.05,24.713c18.21,32.899,35.731,66.148,49.732,101.107c2.615,6.53,6.739,10.76,13.309,13.199
		c11.65,4.325,23.332,8.636,34.699,13.639c105.392,46.386,171.234,126.325,200.589,237.076
		C765.627,405.612,766.291,422.076,769.131,438.185z M663.582,707.839c1.655-3.902,0.41-6.644-0.07-9.259
		c-13.485-73.429-30.032-146.14-51.79-217.596c-22.319-73.297-49.207-145.023-75.078-217.094
		c-22.925-63.862-47.99-126.868-76.878-188.299c-5.653-12.021-11.372-24.049-19.231-34.855
		c-7.817-10.748-11.648-10.766-19.767-0.013c-2.888,3.825-5.565,7.862-7.895,12.048c-19.013,34.162-33.93,70.228-48.673,106.332
		c-40.926,100.224-79.205,201.445-110.4,305.17c-26.873,89.353-51.124,179.377-62.873,272.257
		c-1.892,14.959-3.628,29.909-3.363,46.501c3.198-3.026,5.253-4.868,7.195-6.823c26.54-26.711,51.652-54.757,77.132-82.459
		c41.035-44.614,82.695-88.564,132.619-123.642c28.797-20.233,58.675-38.287,92.994-47.921c16.668-4.678,31.125-1.642,44.32,9.47
		c8.081,6.806,15.017,14.565,21.389,22.897c26.529,34.69,47.908,72.687,70.589,109.854
		C642.768,679.101,651.386,694.075,663.582,707.839z M431.088,765.262c65.685-0.048,131.225-21.034,185.479-58.68
		c6.346-4.403,6.187-7.717,2.777-13.408c-15.394-25.694-30.207-51.741-45.911-77.242c-13.478-21.885-27.118-43.715-45.013-62.51
		c-7.715-8.102-16.253-10.255-26.847-7.295c-11.813,3.3-22.899,8.196-33.322,14.47c-70.715,42.564-127.672,100.514-181.231,162.27
		c-4.399,5.073-1.629,6.668,2.716,8.873C334.169,754.293,381.363,765.087,431.088,765.262z M339.547,173.117
		c-2.547,0.152-3.997-0.034-5.263,0.364c-4.037,1.269-8.093,2.546-11.987,4.188c-83.152,35.047-141.474,95.17-176.549,177.638
		c-25.604,60.199-28.975,122.077-8.329,184.688c9.121,27.661,18.923,55.06,33.171,80.601c4.045,7.251,8.183,14.561,15.292,20.114
		C220.32,479.115,279.837,326.704,339.547,173.117z M739.836,468.648c0.545-25.453-1.114-47.444-5.656-69.086
		c-13.47-64.188-46.396-117.162-94.322-161.186c-27.945-25.67-59.565-45.712-94.885-59.738c-2.443-0.97-5.519-3.273-7.897-1.068
		c-2.378,2.205-0.285,5.329,0.472,7.927c7.746,26.587,17.536,52.479,26.985,78.479c43.036,118.419,82.891,237.797,109.979,361.079
		c1.098,4.995,0.59,13.042,5.739,13.88c4.836,0.787,7.553-6.704,10.429-11.073C723.133,578.562,737.628,523.782,739.836,468.648z"/>
	<path d="M435.876,149.974c4.634,37.834,9.304,75.664,13.891,113.504c4.115,33.945,8.243,67.888,12.088,101.864
		c0.56,4.946,2.7,6.542,7.26,7.345c16.399,2.89,32.728,6.176,51.234,9.725c-14.182,8.038-26.477,15.613-39.337,22.06
		c-7.289,3.654-9.207,7.678-7.342,15.698c3.747,16.11,6.25,32.509,9.712,51.191c-15.78-12.626-29.795-23.474-43.338-34.881
		c-4.554-3.835-7.413-3.868-12.072-0.143c-12.99,10.387-26.477,20.152-40.806,30.945c-0.743-7.054,1.36-12.836,2.2-18.658
		c1.613-11.181,3.401-22.348,5.575-33.43c0.899-4.581-1.738-5.956-4.8-7.616c-14.857-8.057-29.69-16.158-46.439-25.282
		c17.256-3.727,32.539-7.143,47.874-10.307c14.508-2.994,14.833-2.838,16.696-17.212c7.735-59.683,15.256-119.394,22.899-179.089
		c1.102-8.604,2.443-17.178,3.674-25.766C435.188,149.938,435.532,149.956,435.876,149.974z"/>
</g>
</svg>
