<?xml version="1.0" encoding="utf-8"?>
<!-- Generator: Adobe Illustrator 23.0.6, SVG Export Plug-In . SVG Version: 6.00 Build 0)  -->
<svg version="1.1" id="Слой_1" xmlns="http://www.w3.org/2000/svg" xmlns:xlink="http://www.w3.org/1999/xlink" x="0px" y="0px"
	 viewBox="0 0 864 864" enable-background="new 0 0 864 864" xml:space="preserve">
<g>
	<path d="M215.102,256.861c-10.84,20.497-19.954,41.468-26.098,63.661c-17.126,61.857-12.605,122.235,12.479,181.187
		c0.628,1.477,1.258,3.01,2.201,4.284c1.567,2.117,2.514,6.349,5.825,4.829c3.103-1.425,7.446-2.81,7.564-7.682
		c0.015-0.603,0.149-1.209,0.117-1.807c-1.016-19.024,3.375-37.448,6.106-56.067c1.924-13.117,3.368-26.303,5.073-39.453
		c2.332-17.982,7.93-35.273,11.251-53.059c2.769-14.826,6.776-29.423,9.503-44.256c1.908-10.377,5.764-20.072,8.761-30.066
		c9.528-31.78,18.887-63.612,29.606-95.022c6.945-20.35,12.532-41.271,20.954-60.984c13.255-31.027,25.765-62.505,43.357-91.513
		c6.088-10.039,14.171-18.541,22.145-26.967c7.77-8.212,27.129-2.745,32.628,8.513c-0.312,0.169-0.743,0.555-0.929,0.46
		c-15.586-7.917-23.332,0.499-29.183,10.861c-8.59,15.213-11.895,32.421-17.131,48.875c-14.098,44.298-28.264,88.596-36.481,134.489
		c-5.35,29.881-11.885,59.626-14.616,89.866c-2.384,26.397-2.544,52.911-1.301,79.512c1.289,27.573,3.644,55.022,7.6,82.235
		c4.864,33.457,11.591,66.682,25.823,97.739c8.097,17.67,18.699,33.901,31.945,48.092c7.257,7.775,16.285,13.907,25.98,18.444
		c18.843,8.818,38.48,15.795,59.096,18.666c20.369,2.836,40.925,2.425,61.291-1.286c2.914-0.531,5.794-1.354,8.784,0.278
		c2.729,1.489,4.554-0.489,6.015-2.5c3.202-4.405,7.454-5.906,12.661-4.68c6.852,1.612,13.758,3.072,20.494,5.088
		c7.436,2.226,14.958,3.415,22.596,2.315c2.684-0.386,4.221,1.566,6.714,1.466c15.42-0.621,26.38-10.542,28.354-25.967
		c0.86-6.72,1.9-13.417,2.873-20.225c3.489,0.482,2.894,2.991,3.229,4.71c2,10.257,3.79,20.556,5.81,30.809
		c1.35,6.851,3.832,6.758,10.151,8.31c13.761,3.379,21.716-6.001,30.923-12.245c17.862-12.114,34.452-25.877,48.033-42.828
		c5.419-6.763,9.381-14.521,12.72-22.536c3.023-7.258,7.829-13.377,12.285-19.838c-1.285,13.647-4.387,26.789-8.232,39.762
		c-15.648,52.792-42.878,98.71-82.027,137.46c-4.794,4.745-6.039,9.715-4.885,16.322c5.689,32.572,8.547,65.404,7.498,98.497
		c-0.164,5.169-2.091,10.202-7.325,12.099c-6.412,2.323-15.905-1.977-19.787-8.401c-9.056-14.988-17.974-30.06-26.966-45.087
		c-2.895-4.837-5.774-9.685-8.792-14.446c-4.259-6.719-7.073-7.58-13.949-3.896c-37.738,20.22-77.942,32.351-120.497,36.622
		c-40.699,4.085-80.808,0.49-120.048-10.943c-8.845-2.577-15.632-0.66-22.54,4.253c-23.619,16.799-47.182,33.682-70.99,50.21
		c-12.519,8.691-26.034,12.115-40.895,5.553c-7.665-3.384-9.659-10.42-11.729-17.25c-5.37-17.726-4.824-36.187-6.12-54.408
		c-1.599-22.501-0.756-45.014-0.372-67.533c0.185-10.847-2.878-20.281-10.111-29.371c-40.441-50.827-63.38-108.748-68.162-173.731
		c-0.933-12.685-0.646-25.346-0.63-38.021c0.002-1.335,1.509-2.599,1.871-4.011c4.031-15.738,5.561-31.95,9.444-47.76
		c8.749-35.621,21.857-69.302,41.146-100.595c9.706-15.747,18.508-32.049,28.014-47.924
		C199.62,270.958,206.851,263.411,215.102,256.861z"/>
</g>
</svg>
