<?xml version="1.0" encoding="utf-8"?>
<!-- Generator: Adobe Illustrator 23.0.6, SVG Export Plug-In . SVG Version: 6.00 Build 0)  -->
<svg version="1.1" id="Слой_1" xmlns="http://www.w3.org/2000/svg" xmlns:xlink="http://www.w3.org/1999/xlink" x="0px" y="0px"
	 viewBox="0 0 864 864" enable-background="new 0 0 864 864" xml:space="preserve">
<g>
	<path d="M687.593,76.766c-3.004,59.554-14.303,117.906-26.454,176.034c-12.929,61.854-24.707,123.916-35.741,186.115
		c-2.377,13.398-7.32,19.027-21.516,18.282c-38.228-2.008-74.333,7.16-108.494,24.006c-7.471,3.684-11.604,2.629-15.542-4.993
		C426.342,372.653,372.796,269.324,350.73,152.97c-6.431-33.911-17.985-66.806-18.046-101.896c-0.02-11.617,3.02-22.21,8.286-32.277
		c7.431-14.203,20.52-18.131,35.264-18.768c13.757-0.594,21.609,7.791,27.122,18.747c9.36,18.6,12.414,39.151,17.349,59.113
		c16.537,66.896,44.082,130.239,63.445,196.23c4.61,15.71,10.071,31.166,17.309,45.934c6.194,12.637,15.568,19.312,30.217,17.962
		c13.901-1.282,17.037-12.011,19.691-22.383c22.83-89.201,54.216-176.379,63.508-268.802c1.363-13.555,4.025-27.148,17.409-35.068
		c26.597-15.737,53.432-0.675,55.211,31.294C688.117,54.259,687.593,65.527,687.593,76.766z"/>
	<path d="M166.72,449.66c27.104-2.253,50.312,11.199,70.957,29.975c30.841,28.049,61.955,55.735,94.21,82.18
		c10.234,8.391,14.047,7.573,19.24-4.67c18.869-44.482,45.221-84.015,81.483-116.441c13.703-12.253,16.059-11.65,23.474,5.215
		c0.377,0.857,0.583,1.802,1.042,2.607c15.22,26.708,15.786,47.963-8.979,73.416c-36.491,37.505-54.109,88.184-75.584,135.458
		c-11.991,26.398-22.583,53.47-32.809,80.614c-4.077,10.823-7.991,10.419-15.415,3.577c-20.808-19.175-38.46-40.895-53.657-64.696
		c-32.932-51.577-70.768-99.051-117.743-138.645c-12.866-10.845-27.335-19.786-40.215-30.617
		c-17.958-15.102-16.727-31.071,2.425-44.951C129.895,451.994,146.677,448.985,166.72,449.66z"/>
	<path d="M342.773,546.841c-3.633-2.05-3.411-5.086-3.455-7.716c-1.065-64.239-17.41-125.951-30.697-188.207
		c-13.585-63.656-25.565-127.626-33.573-192.269c-2.485-20.063-2.198-40.255-1.207-60.361c1.153-23.387,22.997-38.08,45.098-31.466
		c5.508,1.648,5.12,5.681,5.852,9.81c20.752,117.066,46.495,232.454,113.308,333.884c3.054,4.636,5.477,8.751-0.458,13.139
		c-41.484,30.673-68.377,72.597-90.807,117.963C345.86,543.585,344.102,545.162,342.773,546.841z"/>
	<path d="M759.883,518.645c-6.233-0.914-9.762-5.655-13.977-9.002c-31.009-24.621-65.798-41.226-104.654-48.672
		c-9.72-1.862-10.396-5.654-8.648-14.305c15.946-78.931,31.658-157.912,46.873-236.988c5.127-26.648,8.981-53.559,12.759-80.443
		c2.478-17.635,17.267-25.068,31.062-13.891c10.185,8.252,18.604,18.328,18.02,33.198c-0.938,23.864-1.121,47.757-2.023,71.623
		c-0.192,5.091,0.383,12.665-9.324,8.332c-3.708-1.655-9.274-6.021-10.474,2.318c-0.908,6.309-6.472,15.852,3.02,18.282
		c15.531,3.976,14.646,14.365,14.059,25.935c-0.925,18.247-1.905,36.502-2.201,54.765c-0.174,10.7-3.401,16.36-14.913,12.083
		c-12.21-4.536-16.298,0.76-15.816,12.339c0.097,2.318-0.005,4.784-0.686,6.973c-4.152,13.344,1.354,19.261,14.599,19.425
		c10.976,0.136,13.756,6.322,15.936,16.535c7.519,35.225,16.768,70.08,25.199,105.114
		C759.947,507.477,762.487,512.769,759.883,518.645z"/>
	<path d="M477.139,629.655c-12.343-14.874-24.685-29.747-37.028-44.621c-14.13-17.028-14.361-17.175-2.432-35.811
		c3.599-5.623,5.527-15.483,12.761-14.94c5.936,0.446,6.816,10.145,9.718,15.826c20.917,40.937,44.186,80.322,76.092,113.851
		c4.574,4.807,3.928,6.823-0.551,10.863c-16.448,14.837-17.962,15.212-37.543,4.278c-12.125-6.771-24.232-13.574-38.492-17.878
		c11.314,11.169,22.105,22.948,34.141,33.275c7.093,6.086,5.847,9.369,0.363,15.434c-5.318,5.882-8.488,9.844-16.454,2.948
		c-15.611-13.514-30.327-27.8-43.709-43.491c-9.484-11.12-19.437-21.632-33.918-26.272c-6.505-2.084-7.466-6.217-4.744-11.942
		c5.018-10.553,10.167-21.05,14.919-31.722c3.67-8.242,8.438-8.618,15.307-3.611c16.481,12.015,33.183,23.725,49.796,35.558
		C475.957,630.818,476.548,630.236,477.139,629.655z"/>
	<path d="M492.094,541.4c0.923,4.342,1.463,10.526,3.56,16.126c10.699,28.579,28.604,52.411,50.097,73.672
		c3.082,3.049,7.067,7.55,12.104,4.051c4.08-2.835,2.232-7.734,1.379-11.751c-1.067-5.022-2.549-9.961-3.96-14.905
		c-1.301-4.559-3.571-7.941-9.021-5.413c-11.266,5.226-16.769-1.097-22.452-9.765c-14.111-21.524-14.451-21.469,9.673-28.613
		c29.689-8.793,23.823-11.315,35.092,16.984c7.095,17.816,13.857,35.766,21.066,53.535c4.27,10.525-0.565,15.14-9.898,12.586
		c-6.53-1.787-6.836,2.128-9.359,4.881c-9.483,10.347-21.281,11.679-32.35,2.712c-6.487-5.254-12.542-11.345-17.647-17.945
		c-21.262-27.49-39.039-57.216-53.622-88.713c-14.931-32.247,8.005-63.83,43.756-60.945c11.969,0.966,21.527,6.419,27.411,17.048
		c3.385,6.115,6.057,12.655,8.698,19.147c7.964,19.575,7.578,19.667-12.384,25.502c-7.501,2.193-11.509,0.553-14-6.572
		c-1.072-3.067-2.772-5.927-4.299-8.821c-3.294-6.243-6.227-13.284-15.351-11.422C490.746,524.786,492.954,532.993,492.094,541.4z"
		/>
	<path d="M658.69,550.829c2.131,24.651,4.351,49.294,6.304,73.959c0.332,4.191,2.929,10.189-4.247,11.274
		c-6.807,1.029-9.607-2.886-11.019-9.558c-10.372-49.03-16.515-98.655-21.873-148.418c-1.169-10.857,3.47-13.406,12.92-11.261
		c0.456,0.104,0.922,0.16,1.383,0.239c30.789,5.297,32.63,7.27,36.96,37.981c2.068,14.667,4.448,29.291,9.913,43.822
		c0-15.847-0.459-31.715,0.276-47.527c0.224-4.825-4.883-14.345,5.189-13.954c8.119,0.316,15.905,4.24,15.44,15.916
		c-0.911,22.896-0.52,45.84-1.02,68.757c-0.408,18.706-1.021,37.422-2.237,56.088c-0.308,4.728,3.231,14.332-4.775,13.279
		c-8.806-1.157-21.944,1.65-24.888-12.625c-5.192-25.177-10.321-50.367-15.502-75.546c-0.177-0.862-0.628-1.668-0.951-2.5
		C659.938,550.78,659.314,550.805,658.69,550.829z"/>
	<path d="M522.642,478.675c30.373-10.935,59.549-14.874,89.581-13.66c5.454,0.221,6.793,3.605,7.369,8.319
		c6.361,52.045,13.965,103.898,24.307,155.324c0.798,3.968,2.451,8.96-4.093,9.749c-5.698,0.688-11.36,0.825-13.307-6.703
		c-4.451-17.216-8.927-34.431-13.835-51.519c-1.362-4.74-0.838-13.234-9.474-10.479c-7.111,2.268-3.279,8.835-2.195,13.326
		c3.73,15.462,8.182,30.75,11.995,46.194c1.126,4.562,4.088,9.947-3.656,12.688c-7.771,2.751-11.163-0.587-13.601-7.352
		c-11.738-32.574-23.435-65.166-35.559-97.597C552.179,515.578,544.947,493.561,522.642,478.675z M587.824,497.543
		c-6.797,0.366-12.03,1.795-8.825,10.93c3.402,9.693,6.312,19.577,8.999,29.496c1.647,6.079,4.853,6.771,10.436,5.299
		c5.551-1.464,6.266-4.195,5.023-9.186c-2.482-9.969-4.56-20.042-6.655-30.103C595.772,499.026,593.175,496.568,587.824,497.543z"/>
	<path d="M579.193,768.025c7.062,3.431,14.055,7.016,21.224,10.208c2.516,1.12,5.979,1.646,7.63-1.165
		c1.649-2.807-0.624-5.252-2.629-7.318c-4.405-4.538-10.322-6.335-15.907-8.68c-29.659-12.455-40.534-40.03-52.901-66.204
		c-2.996-6.341,1.274-11.817,6.218-15.855c12.083-9.87,26.183-16.293,40.14-22.921c3.925-1.864,7.245-1.807,8.871,3.128
		c5.935,18.014,11.903,36.017,18.812,56.905c-11.821-5.314-17.714-13.571-26.986-15.592c-5.001-1.09-11.087-2.692-13.553,3.46
		c-2.13,5.313,2.744,8.307,6.678,10.937c1.554,1.039,3.139,2.154,4.874,2.778c43.804,15.77,50.928,53.652,55.349,92.734
		c1.335,11.798-24.614,27.706-35.166,22.289c-1.291-0.663-2.355-2.926-2.479-4.528C597.7,806.619,587.197,788.295,579.193,768.025z"
		/>
	<path d="M666.601,759.042c0.864-21.481,4.433-42.895,1.286-64.496c-2.24-15.371-4.661-30.716-13.743-43.767
		c-4.372-6.282-3.825-8.763,4.015-9.509c14.891-1.416,28.948,1.543,42.326,7.756c6.9,3.205,10.132,31.644,4.132,35.399
		c-1.618,1.013-4.439,0.356-6.662,0.088c-3.348-0.404-7.919-4.023-9.019,1.957c-0.853,4.635-2.844,12.34,3.481,13.364
		c14.664,2.376,12.277,12.647,12.345,22.186c0.047,6.559-0.204,13.119-0.176,19.678c0.021,4.977-1.768,8.246-7.243,8.092
		c-14.909-0.418-9.186,10.81-9.953,18.005c-0.963,9.039,5.839,8.098,11.339,7.444c7.163-0.852,10.65,1.883,10.865,9.016
		c0.028,0.932,0.196,1.866,0.369,2.785c4.512,24.036-3.856,33.722-28.517,33.94c-7.106,0.063-7.204-4.88-8.153-9.128
		C669.41,794.477,665.588,777.061,666.601,759.042z"/>
	<path d="M763.982,606.118c0,18.222-0.076,36.445,0.03,54.666c0.058,9.938-4.617,11.178-12.354,7.038
		c-11.521-6.164-22.92-12.562-34.517-18.579c-4.201-2.179-4.391-5.564-4.237-9.412c1.718-42.954,3.518-85.905,5.066-128.865
		c0.314-8.722,3.413-9.257,10.284-5.284c21.517,12.443,36.813,28.354,35.319,55.608c-0.816,14.9-0.146,29.882-0.146,44.827
		C763.612,606.118,763.797,606.118,763.982,606.118z M734.754,586.231c-0.483,0-0.967,0.001-1.45,0.001
		c0,10.274,0.105,20.55-0.042,30.823c-0.081,5.653,0.8,10.79,7.644,10.991c7.361,0.217,5.882-5.998,5.961-10.242
		c0.183-9.801,0.057-19.623-0.38-29.417c-0.519-11.644-1.245-23.294-2.426-34.885c-0.348-3.411-1.527-8.409-6.241-7.767
		c-4.104,0.559-2.905,5.312-2.971,8.291C734.609,564.756,734.754,575.495,734.754,586.231z"/>
	<path d="M501.808,751.402c0.761-4.154-2.006-7-3.796-10.203c-10.447-18.699-3.596-35.608,16.909-42.488
		c5.153-1.729,9.062-0.258,12.983,2.639c5.393,3.985,9.082,9.428,12.281,15.116c16.708,29.704,32.389,59.943,46.797,90.834
		c2.99,6.411,5.077,12.964,4.833,20.205c-0.344,10.219-5.713,16.795-14.989,19.643c-9.333,2.865-17.623,0.817-22.84-8.442
		c-11.682-20.731-23.252-41.527-35.08-62.174c-3.879-6.771-6.562-14.521-13.763-18.916
		C504.032,755.544,502.92,753.473,501.808,751.402z M516.578,725.94c-2.426,5.057-0.217,9.918,2.139,14.121
		c14.584,26.019,29.398,51.911,44.368,77.711c1.929,3.325,4.687,8.954,9.235,6.002c4.268-2.77,0.35-7.894-1.238-11.377
		c-12.798-28.068-29.387-54.021-45.496-80.227C523.766,729.209,522.035,725.336,516.578,725.94z"/>
	<path d="M665.176,714.691c0.664,8.192,0.42,16.887-6.686,21.82c-9.375,6.509-8.461,13.511-5.538,22.904
		c5.409,17.378,9.528,35.163,13.993,52.827c0.883,3.495,2.517,8.719-1.646,10.071c-6.518,2.118-13.898,3.667-20.503,2.689
		c-4.287-0.634-0.292-6.435-0.186-9.831c0.327-10.442-1.336-20.441-4.54-30.326c-13.111-40.45-25.817-81.034-39.357-121.339
		c-3.836-11.421-1.116-15.543,10.681-17.5c27.651-4.586,37.267,0.595,45.888,27.516C661.568,686.91,664.695,700.562,665.176,714.691
		z M642.808,725.549c5.95-10.703-3.387-52.009-11.884-58.097c-1.024-0.734-2.602-1.322-3.763-1.109
		c-2.411,0.443-2.287,2.706-1.798,4.369C630.654,688.71,634.601,707.18,642.808,725.549z"/>
	<path d="M357.789,711.832c12.242,18.1,25.584,31.195,38.732,44.518c6.643,6.732,12.32,6.696,19.463,1.094
		c17.827-13.981,29.755-32.056,37.93-54.362c10.858,6.698,19.815,14.216,28.66,23.881c-24.037,10.029-35.501,31.654-50.267,49.989
		c-6.743,8.372-12.897,17.255-18.84,26.224c-4.365,6.587-8.426,7.447-14.577,2.059c-17.252-15.112-34.753-29.943-52.308-44.705
		c-5.442-4.576-6.828-9.082-3.399-15.815C348.218,734.833,352.257,724.444,357.789,711.832z"/>
	<path d="M501.808,751.402c1.112,2.071,2.224,4.143,3.336,6.213c14.083,11.904-1.446,34.496,18.377,46.089
		c14.844,8.682,20.644,27.215,29.425,42.065c2.08,3.518,5.262,7.543-0.465,10.604c-5.046,2.699-9.87,2.881-13.161-3.029
		c-1.591-2.858-3.303-5.652-5.04-8.424c-4.961-7.923-9.766-15.955-15.053-23.656c-1.947-2.836-4.779-7.135-8.91-3.894
		c-3.44,2.698,0.199,5.963,1.555,8.661c3.987,7.936,8.587,15.584,12.197,23.68c1.713,3.84,8.603,9.483,1.187,12.257
		c-5.406,2.022-13.905,4.52-18.777-3.429c-1.458-2.379-2.355-5.094-3.672-7.568c-14.614-27.449-25.201-57.823-54.078-74.962
		c-4.507-2.675-1.98-5.677-0.384-8.233c5.46-8.746,11.41-17.244,19.289-23.954C477.386,735.515,485.171,737.457,501.808,751.402z
		 M496.586,780.163c-0.06-8.212-9.603-19.202-16.164-18.652c-3.478,0.292-6.239,1.979-6.669,5.869
		c-0.288,2.601,16.347,22.215,18.475,21.647C497.047,787.741,495.851,783.285,496.586,780.163z"/>
	<path d="M740.5,788.285c0-9.572-0.236-17.416,0.074-25.238c0.253-6.375-1.559-12.579-8.198-12.21
		c-6.962,0.388-3.463,7.411-3.245,11.381c0.536,9.792,1.732,19.566,3.082,29.288c1.005,7.24-1.723,12.575-8.551,13.794
		c-8.128,1.452-6.473-6.479-7.245-10.579c-8.292-44.051-6.659-88.479-4.398-132.911c0.212-4.176,0.622-6.949,6.52-5.616
		c29.575,6.681,48.228,29.186,41.439,56.6c-3.559,14.37-5.649,27.364-4.285,42.063C756.785,766.626,754.064,779.207,740.5,788.285z
		 M743.378,703.683c-0.021-6.909-1.977-15.427-8.594-15.556c-8.674-0.17-4.363,9.174-4.891,14.255
		c-0.429,4.127-3.314,11.126,5.414,11.445C742.395,714.085,743.628,709.402,743.378,703.683z"/>
	<path d="M366.121,697.049c0.189-12.033,4.115-22.946,10.467-32.961c8.968-14.14,20.474-16.852,34.365-7.468
		c13.416,9.062,23.713,21.194,30.029,36.201c7.2,17.108-10.097,53.03-27.627,58.271c-3.789,1.133-7.444,0.656-10.993-0.63
		C387.182,744.962,365.941,713.563,366.121,697.049z M419.323,711.898c0.408-11.937-14.011-29.332-21.855-29.154
		c-6.155,0.14-7.909,4.162-7.94,9.366c-0.054,9.291,13.26,25.512,21.022,25.627C416.177,717.821,419.158,714.862,419.323,711.898z"
		/>
	<path d="M471.319,812.033c-0.155,1.49,0.111,3.107-0.508,4.24c-7.032,12.887-0.336,17.325,11.382,18.97
		c11.637,1.633,13.507,11.804,16.84,20.26c2.459,6.238-2.287,5.896-6.182,5.045c-29.578-6.466-54.228-22.209-77.104-41.23
		c-2.367-1.969-3.65-4.462-1.654-7.339c6.91-9.958,13.012-20.714,22.734-28.24c6.122-4.738,12.619-1.544,18.257,2.059
		C464.647,791.91,470.756,800.343,471.319,812.033z M448.687,818.924c3.465-0.586,5.186-3.022,5.31-6.535
		c0.173-4.897-2.547-7.766-7.274-8.275c-4.119-0.444-7.912,1.447-7.756,5.732C439.157,815.056,444.057,816.86,448.687,818.924z"/>
</g>
</svg>
