<?xml version="1.0" encoding="utf-8"?>
<!-- Generator: Adobe Illustrator 23.0.6, SVG Export Plug-In . SVG Version: 6.00 Build 0)  -->
<svg version="1.1" id="Слой_1" xmlns="http://www.w3.org/2000/svg" xmlns:xlink="http://www.w3.org/1999/xlink" x="0px" y="0px"
	 viewBox="0 0 864 864" enable-background="new 0 0 864 864" xml:space="preserve">
<g>
	<path d="M512.299,449.772c2.264,0.255,4.259,0.451,6.245,0.711c3.109,0.408,6.1,1.081,8.592,3.23
		c5.016,4.326,11.11,6.031,17.482,7.082c2.571,0.424,5.099,1.11,7.645,1.681c0.486,0.109,1.375,0.204,1.389,0.365
		c0.304,3.532,4.634,4.885,4.538,8.687c-0.139,5.538-0.047,11.082-0.03,16.624c0.003,0.966-0.312,2.38,0.877,2.591
		c1.249,0.222,1.08-1.381,1.623-2.097c3.272-4.311,2.545-10.106,5.511-14.483c0.98-1.446,1.643-4.248,3.19-3.902
		c2.013,0.45,0.856,3.103,0.937,4.772c0.234,4.822,0.307,9.655,0.315,14.484c0.003,1.47,0.47,2.131,1.912,2.477
		c2.587,0.621,5.19,0.608,7.808,0.588c0.907-0.007,1.814-0.004,2.72-0.009c1.346-0.007,2.944-0.005,3.071,1.674
		c0.147,1.949-1.699,2.031-3.021,2.118c-3.012,0.199-6.046,0.348-9.055,0.204c-2.707-0.13-3.508,0.962-3.459,3.537
		c0.11,5.829-0.611,11.656-0.098,17.495c0.066,0.75,0.111,1.809-0.759,2.108c-0.957,0.329-1.395-0.677-1.773-1.324
		c-1.988-3.4-3.806-6.934-4.516-10.812c-0.517-2.82-1.402-5.375-2.952-7.746c-0.415-0.635-0.493-1.79-1.552-1.493
		c-0.921,0.258-0.798,1.272-0.798,2.08c0.004,5.642-0.039,11.285,0.037,16.927c0.022,1.649-0.255,2.934-1.912,3.652
		c-0.751,0.326-1.528,0.916-1.443,1.781c0.292,2.98-1.729,3.193-3.827,3.399c-0.4,0.039-0.797,0.12-1.192,0.2
		c-6.613,1.337-6.13,0.275-6.178,7.007c-0.017,2.338-2.58,4.878-4.753,4.259c-9.088-2.589-18.241-0.568-27.339-0.515
		c-12.284,0.071-24.563,0.289-36.839-0.247c-12.756-0.557-25.516-1.071-38.263-1.788c-17.354-0.976-34.698-2.131-52.047-3.202
		c-9.037-0.558-18.081-1.021-27.112-1.666c-14.82-1.059-29.63-2.257-44.45-3.329c-2.329-0.168-3.889-1.546-5.471-2.913
		c-13.356-11.544-28.839-17.997-46.386-19.765c-5.127-0.517-10.239-0.807-15.376-0.687c-2.514,0.059-3.719-0.986-3.747-3.533
		c-0.087-7.763,1.444-14.999,6.67-21.069c1.41-1.638,1.993-2.924,0.228-5.064c-2.776-3.366-1.127-6.689,3.226-7.226
		c2.185-0.269,3.95-1.461,5.786-2.465c1.841-1.006,3.826-1.311,5.471-0.229c2.789,1.834,5.733,1.535,8.719,1.333
		c12.944-0.878,25.881-1.854,38.83-2.638c2.476-0.15,3.307-1.012,3.302-3.445c-0.057-26.7-0.068-53.401,0.001-80.101
		c0.006-2.484-0.931-2.988-3.209-3.032c-22.552-0.431-45.11-0.446-67.661-0.795c-17.525-0.272-35.046-0.047-52.567-0.241
		c-8.964-0.099-17.934,0.053-26.891-0.238c-15.799-0.512-31.604-0.26-47.399-0.579c-16.302-0.329-32.601-0.444-48.903-0.545
		c-12.174-0.076-24.347-0.428-36.521-0.534c-2.122-0.018-3.184-0.744-3.514-2.783c-0.159-0.985-0.478-1.945-0.735-2.913
		c-0.499-1.889-1.403-2.473-3.525-1.891c-8.226,2.258-15.591-0.602-18.982-7.097c-1.882-3.605-2.029-7.342-0.639-11.097
		c0.605-1.635,0.652-2.948-0.36-4.49c-1.548-2.36-2.321-5.101-3.007-7.827c-0.493-1.961,0.085-2.94,2.401-2.92
		c6.645,0.055,13.291-0.102,19.937-0.178c7.147-0.081,14.295-0.162,21.442-0.254c0.5-0.006,1.033-0.015,1.492-0.182
		c10.409-3.791,21.297-2.268,31.975-2.714c15.58-0.65,31.185-0.692,46.779-1.019c2.033-0.043,4.171-0.146,5.962,0.691
		c5.774,2.699,11.854,1.631,17.833,1.801c2.312,0.066,4.629-0.12,6.945-0.14c22.255-0.193,44.515-0.173,66.765-0.626
		c16.41-0.334,32.817-0.44,49.227-0.562c24.866-0.185,49.733-0.365,74.594-0.845c16.412-0.317,32.83-0.189,49.232-0.598
		c10.872-0.271,21.747,0.099,32.61-0.437c3.757-0.186,7.457-1.57,11.3-0.145c1.412,0.524,2.854,0.766,4.008,1.873
		c1.366,1.31,3.19,1.581,4.973,1.973c9.609,2.109,17.366,10.173,18.534,19.191c1.124,8.677-4.391,18.052-12.438,21.489
		c-6.284,2.684-12.378,5.901-19.478,5.839c-0.381-0.003-0.889,0.107-1.126,0.361c-2.802,3.005-6.452,2.241-9.912,2.267
		c-4.03,0.031-8.065-0.119-12.089,0.041c-4.476,0.178-8.794-0.231-12.994-1.932c-3.921-1.588-8.141-1.197-12.23-1.28
		c-12.383-0.251-24.772-0.24-37.157-0.413c-2.267-0.032-2.832,0.84-2.824,3.031c0.078,21.461,0.047,42.922,0.047,64.383
		c0,4.209,0.134,8.423-0.049,12.624c-0.113,2.596,0.898,3.426,3.343,3.233c8.522-0.675,17.071-1.076,25.57-1.961
		c12.789-1.332,25.617-2.093,38.439-2.942c3.385-0.224,6.157-1.153,8.649-3.499c14.498-13.652,29.051-27.247,43.62-40.825
		c6.4-5.965,12.884-11.838,19.312-17.772c0.563-0.519,1.581-0.99,1.254-1.878c-0.352-0.953-1.425-0.412-2.158-0.445
		c-3.014-0.137-6.032-0.188-9.05-0.25c-1.716-0.035-3.107-0.683-3.147-2.529c-0.11-5.167-1.002-10.442,2.875-14.964
		c1.64-1.913,3.19-3.011,5.8-3.004c27.607,0.065,55.216-0.131,82.82,0.152c6.929,0.071,13.246-2.091,19.808-3.393
		c5.125-1.017,10.175-2.406,15.263-3.613c1.239-0.294,2.227-0.874,2.831-2.042c3.576-6.911,10.093-9.868,16.897-12.235
		c8.636-3.005,17.76-3.271,26.746-4.254c2.045-0.224,4.151,0.086,4.946-2.79c0.403-1.459,2.06-2.448,3.82-2.579
		c4.206-0.313,7.972-1.815,11.594-3.926c4.722-2.751,9.37-2.371,13.854,0.758c0.884,0.617,1.986,0.922,2.983,1.379
		c1.46,0.669,3.309,0.987,4.304,2.081c3.639,4.001,8.407,5.751,13.225,7.683c4.02,1.612,6.976,4.801,9.039,8.591
		c1.229,2.259,2.777,3.531,5.367,3.591c19.481,0.454,38.22,5.075,56.765,10.489c17.266,5.04,34.919,5.177,52.635,5.057
		c6.646-0.045,13.291-0.142,19.937-0.169c1.136-0.004,2.214-0.136,3.214-0.647c2.382-1.215,4.474-1.328,7.054,0.115
		c2.31,1.292,5.309,0.714,8.005,0.655c2.628-0.057,3.006,0.854,1.832,3.042c-2.233,4.159-4.438,8.336-6.513,12.575
		c-1.612,3.295-4.268,4.751-7.761,4.731c-2.988-0.017-5.824,0.399-8.372,2.022c-1.513,0.963-2.758,0.143-3.918-0.574
		c-1.791-1.108-3.661-1.4-5.734-1.393c-16.121,0.057-32.243,0.121-48.363,0.009c-9.256-0.064-18.502-0.091-27.751,0.368
		c-4.948,0.246-9.389,2.23-13.884,3.877c-9.643,3.534-18.923,7.891-27.549,13.546c-3.796,2.489-7.855,4.652-12.187,5.827
		c-7.384,2.002-13.896,5.701-20.353,9.524c-7.317,4.332-14.146,3.307-20.877-1.16c-1.355-0.899-2.923-1.283-4.396-1.896
		c-10.633-4.423-21.37-8.639-31.169-14.832c-9.402-5.942-19.515-10.37-30.013-13.99c-2.647-0.913-4.754-0.509-7.038,1.068
		c-24.474,16.901-49,33.727-73.509,50.578C513.346,448.176,512.586,448.526,512.299,449.772z"/>
</g>
</svg>
