<?xml version="1.0" encoding="utf-8"?>
<!-- Generator: Adobe Illustrator 23.0.6, SVG Export Plug-In . SVG Version: 6.00 Build 0)  -->
<svg version="1.1" id="Слой_1" xmlns="http://www.w3.org/2000/svg" xmlns:xlink="http://www.w3.org/1999/xlink" x="0px" y="0px"
	 viewBox="0 0 864 864" enable-background="new 0 0 864 864" xml:space="preserve">
<g>
	<path d="M432.004,863.834c-141.642,0-283.284-0.047-424.925,0.165c-5.906,0.009-7.082-1.149-7.078-7.071
		C0.189,573.645,0.189,290.361,0.002,7.078C-0.002,1.173,1.148-0.004,7.071,0c283.283,0.188,566.567,0.188,849.85,0.001
		c5.904-0.004,7.082,1.145,7.078,7.068c-0.188,283.283-0.188,566.567-0.001,849.85c0.004,5.904-1.143,7.09-7.068,7.081
		C715.288,863.786,573.646,863.834,432.004,863.834z M432.89,522.664c14.615,12.435,30.428,19.319,45.918,26.858
		c5.453,2.654,6.615,0.533,8.21-4.064c2.296-6.622,0.873-13.722,3.05-20.168c2.927-8.666,7.525-16.725,9.263-25.857
		c1.553-8.157,1.163-17.857,5.585-24.054c9.683-13.57,16.864-28.273,24.495-42.866c10.364-19.816,22.983-38.844,26.604-61.319
		c3.503-21.745,8.38-43.401,7.63-65.726c-0.189-5.63,1.142-11.474,2.71-16.951c1.383-4.832,2.603-8.716-3.319-11.262
		c-1.61-0.692-3.833-2.807-2.295-4.843c8.011-10.605,6.915-22.894,5.85-34.717c-1.575-17.484-4.552-34.899-15.33-49.595
		c-4.359-5.944-9.522-11.183-13.783-17.364c-16.529-23.975-39.162-41.052-66.981-48.925c-27.342-7.738-52.695,2.089-76.796,14.926
		c-16.074,8.561-28.577,22.085-43.985,31.575c-3.805,2.343-5.177,6.424-7.384,10.11c-5.637,9.414-3.307,20.894-8.758,30.071
		c-8.123,13.674-10.178,28.451-8.923,43.988c0.277,3.432,0.087,6.904,0.069,10.357c-0.009,1.743-0.115,3.983-2.659,2.836
		c-10.579-4.771-11.733,3.792-13.467,9.99c-8.291,29.633-3.937,57.37,13.662,82.797c1.271,1.837,2.95,3.636,4.852,4.742
		c4.063,2.362,9.097,3.096,10.985-1.901c1.626-4.303,1.457-10.29-4.614-11.975c-2.944-0.817-4.905-2.797-7.546-3.795
		c-1.502-0.568-1.774-2.166-1.384-3.668c0.38-1.461,1.71-1.233,2.798-1.308c2.709-0.188,6.048,0.935,6.326-3.662
		c0.251-4.154-0.815-7.36-5.043-8.935c-2.416-0.9-4.862-1.78-7.148-2.953c-5.701-2.924-9.564-10.877-6.88-14.608
		c4.657-6.472,2.715-14.372,5.064-21.316c0.371-1.097-0.453-2.368-1.764-2.461c-1.013-0.072-1.79,0.258-2.305,1.742
		c-1.416,4.079-3.395,7.962-5.151,11.922c-0.179-5.562-3.4-11.881,1.011-16.019c2.4-2.251,4.418-2.377,1.711-5.684
		c-0.898-1.097-0.965-3.744,0.937-4.443c1.807-0.664,2.834,1.295,3.982,2.6c1.815,2.064,1.524,6.048,5.159,6.719
		c1.41-2.728-2.654-4.106-0.649-6.521c7.588,5.074,11.55,12.873,14.084,20.787c1.813,5.664-4.82,9.146-7.752,13.582
		c-1.389,2.102-2.514,4.573-2.173,7.31c0.249,2,0.441,4.062,3.006,4.589c6.14,1.262,8.431,5.901,9.568,11.312
		c2.335,11.111,1.878,22.343,0.502,33.479c-1.392,11.264-1.7,22.289,2.045,33.233c1.77,5.174,2.361,10.523,1.149,16.131
		c-4.691,21.697-19.464,32.966-39.586,38.699c-2.755,0.785-5.972,0.712-7.891,2.94c-7.051,8.186-16.316,13.588-24.591,20.234
		c-2.936,2.359-6.756,4.488-6.469,10.667c4.058-3.871,8.929,1.145,10.453-0.656c7.55-8.921,23.022-3.991,28.298-16.672
		c0.461-1.109,5.792-0.567,3.851-4.297c-1.972-3.791-4.471-0.994-7.049,0.388c-4.62,2.475-8.796,6.277-14.94,6.557
		c7.89-11.013,18.583-14.917,31.122-10.283c11.521,4.259,23.919-0.254,35.252,4.527c0.956,0.403,3.702-0.72,3.759-1.314
		c0.789-8.167,6.311-1.242,9.282-3.008c-1.772-5.731,0.271-12.029-3.082-17.615c-3.392-5.651-6.526-11.467-9.547-17.327
		c-1.703-3.305-3.002-6.824-4.39-10.284c-1.416-3.53,1.167-4.598,3.68-5.248c2.552-0.66,5.427-3.629,7.718,0.569
		c3.458,6.336,8.359,11.542,12.99,17.017c16.782,19.84,31.951,41.342,58.319,50.159c11.499,3.845,22.182,10.351,35.246,6.952
		c6.054-1.575,12.803-0.635,18.744-2.449c9.725-2.969,9.567,3.352,7.787,8.489c-1.718,4.958-2.63,10.97-5.716,14.675
		c-4.761,5.715-5.165,8.444,5.325,10.647c-12.099,0.252-12.092,0.254-14.867,10.009c-0.144,0.507-0.492,1.068-0.914,1.369
		c-4.475,3.191-3.157,4.757,1.496,5.267c2.458,0.269,5.196,0.662,3.974,3.869c-1.08,2.834-4.637,2.269-5.828,0.791
		c-3.542-4.396-9.095-4.021-13.456-5.746c-7.206-2.852-10.846-6.029-10.244-14.155c0.317-4.28-0.688-7.879-7.726-5.739
		C439.574,517.747,438.042,521.837,432.89,522.664z M157.026,652.324c-0.456-0.176-0.912-0.353-1.368-0.529
		c3.675-11.678,7.498-23.311,10.965-35.05c1.922-6.508,8.013-14.666,4.649-19.063c-3.319-4.338-12.958-0.477-19.739-1.378
		c-5.857-0.777-7.965,2.149-9.519,7.195c-8.268,26.858-16.915,53.6-25.157,80.466c-2.236,7.29-8.419,16.126-4.766,21.559
		c2.416,3.593,14.001,0.533,21.366,1.412c9.047,1.08,14.819-2.486,20.275-9.518c8.86-11.42,18.827-21.98,28.327-32.903
		c0.443,0.258,0.887,0.516,1.33,0.774c-4.412,13.616-8.824,27.233-13.453,41.521c10.558,0,19.753-0.227,28.93,0.094
		c4.745,0.166,7.844-1.357,10.991-5.038c21.478-25.124,43.274-49.976,64.901-74.972c8.323-9.62,16.474-19.389,25.184-29.656
		c-29.813-3.803-32.3-2.927-50.173,17.043c-1.534,1.714-3.025,3.465-4.532,5.202c-8.724,10.052-17.448,20.104-26.171,30.156
		c3.035-11.401,7.909-21.677,12.212-32.186c2.688-6.564,9.564-14.7,6.676-19.407c-3.022-4.925-13.161-0.943-20.152-1.61
		c-1.14-0.109-2.331,0.159-3.446-0.039c-7.096-1.26-11.574,2.08-15.973,7.426C184.886,620.226,170.852,636.189,157.026,652.324z
		 M379.357,650.729c-0.419-0.242-0.839-0.485-1.258-0.727c6.503-14.866,12.988-29.74,19.516-44.595
		c3.995-9.091,4.025-9.059-5.514-8.99c-6.043,0.044-12.126,0.454-18.117-0.099c-5.888-0.544-9.665,1.789-13.2,6.17
		c-6.68,8.279-13.783,16.216-20.719,24.288c-7.446,8.664-14.902,17.318-22.354,25.976c4.038-16.941,8.887-33.105,14.44-49.023
		c2.036-5.836,1.357-7.456-5.064-7.473c-20.725-0.055-20.944-0.338-27.263,19.146c-9.206,28.383-17.912,56.928-27.19,85.287
		c-1.785,5.457-0.388,6.406,4.683,6.208c7.758-0.303,15.552-0.38,23.3,0.027c4.556,0.239,7.256-1.488,10.091-4.867
		c10.612-12.654,21.589-25.002,32.43-37.464c-2.561,12.631-6.016,24.661-10.186,36.438c-1.798,5.076-0.366,5.979,4.28,5.854
		c7.764-0.209,15.548-0.301,23.304,0.023c4.473,0.187,7.508-1.343,10.386-4.698c28.836-33.608,57.809-67.099,86.669-100.687
		c1.115-1.298,3.64-2.406,1.931-5.096c-7.689,0-15.496,0.553-23.186-0.158c-7.475-0.691-12.151,2.202-16.779,7.799
		C406.475,619.884,392.799,635.209,379.357,650.729z M555.385,680.118c3.397-7.631,6.765-14.565,9.585-21.717
		c2.688-6.818,7.428-12.857,7.935-20.513c-7.449-0.167-14.898-0.333-22.348-0.5c-0.575-0.013-1.153,0.002-1.725-0.049
		c-2.596-0.232-4.236,0.765-5.347,3.266c-9.64,21.711-19.377,43.378-29.595,66.197c23.215,0,45.27-0.481,67.291,0.176
		c13.736,0.41,22.105-5.368,27.357-17.648c10.042-23.48,20.533-46.767,30.765-70.165c1.833-4.193,3.914-8.418,4.81-12.845
		c1.201-5.932-0.711-10.03-8.028-9.974c-22.72,0.174-45.443,0.066-68.165,0.064c-2.602,0-5.136-0.183-6.446,2.964
		c-2.808,6.747-5.821,13.408-9.046,20.781c14.156,0,27.085-0.028,40.015,0.008c13.936,0.038,15.699,2.807,10.046,15.71
		c-3.571,8.151-7.055,16.344-10.811,24.409c-10.85,23.296-6.056,20.366-33.23,20.432C557.89,680.715,557.33,680.505,555.385,680.118
		z M463.968,619.1c1.066,0.597,1.306,0.847,1.547,0.849c11.779,0.086,23.558,0.123,35.336,0.236
		c3.365,0.032,7.648-1.177,9.404,2.512c1.751,3.678-1.255,7.115-3.03,10.255c-2.031,3.592-5.68,4.525-9.662,4.481
		c-6.903-0.075-13.967,0.905-20.679-0.232c-15.792-2.676-24.256,2.984-29.4,18.582c-5.698,17.279-14.542,33.52-22.39,51.048
		c8.997,0,16.758-0.292,24.482,0.109c4.64,0.241,6.488-1.939,8.08-5.769c4.632-11.139,9.834-22.047,14.281-33.256
		c2.149-5.417,5.231-7.245,11.019-6.984c10.332,0.466,20.704,0.057,31.059,0.009c6.523-0.03,11.639-2.123,14.487-8.636
		c6.098-13.946,12.589-27.721,18.677-41.671c3.838-8.796,0.559-14.051-8.994-14.157c-19.846-0.219-39.697-0.076-59.545-0.09
		c-2.323-0.002-4.572-0.138-5.756,2.614C469.972,605.765,466.92,612.469,463.968,619.1z M710.013,596.418
		c-8.331,0-16.806,0.983-24.959-0.219c-13.916-2.051-21.605,2.974-25.514,16.517c-1.771,6.133-2.219,7.794,4.928,7.594
		c16.361-0.46,32.744-0.092,49.117-0.204c5.145-0.035,7.095,1.099,5.736,7.07c-1.664,7.306-5.704,10.16-12.596,10.225
		c-4.308,0.041-8.618-0.011-12.927-0.012c-19.075-0.008-18.877,0.072-25.938,17.876c-2.047,5.162-0.475,5.922,4.141,5.874
		c15.797-0.164,31.599-0.016,47.395-0.234c6.274-0.087,12.608-2.027,15.616-7.633c7.99-14.893,15.026-30.331,20.087-46.476
		c2.368-7.555-0.495-10.269-8.891-10.338C734.144,596.358,722.078,596.432,710.013,596.418z M587.594,533.685
		c-7.55-8.657-15.06-16.696-26.169-19.677c-3.164-0.849-5.372-3.308-6.662-6.369c-2.482-5.892-7.433-8.017-13.202-7.767
		c-11.887,0.517-20.922-5.087-29.343-12.483c-1.558-1.368-2.943-4.882-5.251-2.981c-2.476,2.038-0.217,4.772,1.461,6.744
		c4.797,5.638,11.184,8.951,17.908,11.583c2.623,1.027,5.132,1.293,2.918,5.086c-7.147,12.243-11.137,25.86-16.124,38.988
		c-4.487,11.812-16.295,15.691-23.565,24.336c-0.703,0.836-3.33,0.405-4.958,0.061c-19.356-4.097-39.023-7.163-57.952-12.729
		c-26.462-7.782-52.619-16.239-80.408-18.04c-5.363-0.348-10.931-1.845-15.447-5.081c-12.388-8.875-26.563-13.555-40.967-17.466
		c-11.643-3.161-23.62-4.636-35.775-3.733c3.504,3.248,7.833,3.829,11.923,3.956c19.235,0.597,36.437,7.506,52.973,16.519
		c10.489,5.717,21.64,9.523,33.383,11.017c20.545,2.614,40.709,6.745,60.584,12.566c20.665,6.052,42.39,8.167,62.527,16.132
		c17.158,6.787,26.894,4.038,37.062-11.693c6.447-9.973,10.431-21.084,14.715-32.067c2.493-6.391,4.385-13.112,8.832-18.585
		c5.675-6.984,8.38-6.893,13.603,0.331c0.473,0.654,1.269,1.127,2,1.531C563.629,520.485,575.613,527.082,587.594,533.685z
		 M660.059,706.811c4.056-1.722,10.586,3.492,13.924-3.454c2.848-5.926,5.259-12.063,7.824-18.123
		c0.822-1.942,1.568-4.293-1.659-4.358c-7.443-0.149-15.153-1.083-22.254,0.518c-5.168,1.165-5.049,8.354-7.13,12.86
		C645.01,706.714,645.222,706.812,660.059,706.811z M483.156,493.6c-5.207-0.235-9.285,1.454-13.24,3.634
		c-1.873,1.033-1.902,2.662-1.386,4.355c0.623,2.044,2.373,2.538,4.042,1.808C476.946,501.481,482.391,500.665,483.156,493.6z
		 M420.29,536.325c-0.335-3.171-1.63-5.464-5.14-5.813c-3.443-0.342-5.607,1.298-6.118,4.584c-0.61,3.916,1.788,5.958,5.334,6.299
		C417.781,541.724,419.444,539.36,420.29,536.325z M457.127,558.495c3.513-0.045,5.507-1.942,5.388-5.321
		c-0.124-3.534-2.789-4.97-5.944-4.848c-2.935,0.113-4.834,2.104-4.926,5.036C451.535,556.886,453.735,558.464,457.127,558.495z
		 M429.206,537.029c-3.213,0.163-5.595,1.543-5.873,4.951c-0.274,3.357,1.529,5.408,4.943,5.664
		c3.357,0.251,5.453-1.205,5.687-4.785C434.187,539.435,432.632,537.48,429.206,537.029z M442.131,552.981
		c3.916,0.143,5.917-1.723,6.14-4.927c0.237-3.399-2.137-5.211-5.232-5.374c-3.22-0.169-5.42,1.825-5.674,5.023
		C437.091,551.156,439.404,552.669,442.131,552.981z M497.511,543.403c-3.247,4.583-6.493,9.166-9.74,13.75
		C494.605,555.259,497.903,550.692,497.511,543.403z"/>
	<path d="M362.428,308.117c4.622-0.299,7.721,2.904,10.948,0.67c0.009-3.514-6.307-1.648-5.083-5.635
		c1.421-4.631,3.704-8.997,5.635-13.469c0.102-0.236,0.571-0.568,0.593-0.548c9.269,8.296,10.399-4.392,15.771-6.19
		c11.204-3.749,22.064-5.648,33.31,0.258c5.001,2.627,10.693,4.676,16.264,5.318c10.006,1.152,15.297,9.519,22.26,14.63
		c2.993,2.197,4.749,11.934,2.691,18.974c-2.753,9.417-3.37,19.271-6.039,28.876c-2.138,7.693,0.919,17.923,0.854,27.102
		c-0.019,2.634,2.891,3.329,4.876,4.352c9.713,5.002,19.731,7.829,31.938,3.238c-6.573,10.04-21.222,12.349-20.287,27.058
		c-4.234-7.878-10.126-6.439-16.822-5.223c-8.193,1.488-15.893-1.478-22.652-6.398c-9.476-6.897-10.951-13.308-5.284-23.757
		c2.626-4.843,3.793-9.772,4.557-15.345c1.07-7.812,7.332-13.842,11.596-20.45c2.043-3.166,3.565-6.372,4.849-9.804
		c0.295-0.788,0.798-2.286,0.771-2.296c-7.673-2.875-4.661-10.674-7.466-15.701c-0.65-1.165-3.575-5.951-5.452,0.746
		c-0.542,1.935-7.877-2.092-9.685-4.519c-4.26-5.721-7.078-4.324-10.832-0.187c-1.755,1.934-3.862,3.754-6.779,2.711
		c-6.408-2.29-11.071-8.354-20.152-2.47c-4.051,2.624-14.103,1.624-20.368,3.611C365.706,315.806,364.909,313.313,362.428,308.117z
		 M426.363,300.375c-1.31-1.843-1.606-2.727-2.199-3.026c-13.167-6.639-26.215-3.809-39.211,0.637
		c-1.345,0.46-2.809,1.274-1.87,3.069c0.825,1.578,2.188,2.724,4.186,2.271C399.771,300.491,412.568,300.487,426.363,300.375z
		 M453.523,379.578c0.552-1.718,0.864-2.8,1.245-3.858c1.4-3.894-0.775-5.85-3.993-6.982c-1.499-0.527-3.845-1.664-4.678,0.012
		c-1.542,3.101,1.245,5.172,3.033,7.23C450.223,377.239,451.73,378.138,453.523,379.578z"/>
	<path d="M513.839,304.972c8.796,1.83,17.554,3.625,26.297,5.495c1.946,0.416,3.857,1.036,5.746,1.674
		c2.399,0.81,4.242,2.408,3.269,5.058c-1.05,2.859-3.355,2.381-5.715,1.294c-2.326-1.071-4.786-1.856-7.203-2.723
		c-5.381-1.931-10.208-2.602-16.056,0.325c-6.755,3.382-14.407,3.072-20.615-2.779c-1.19-1.122-1.993-2.421-4.193-2.33
		c-5.77,0.238-10.961-6.173-9.441-11.521c0.853-3,3.808-5.336,6.307-4.885c7.512,1.356,13.966-2.101,20.818-3.538
		c8.466-1.776,16.996-2.023,25.547-2.731c8.222-0.68,12.539,4.183,17.066,9.023c2.578,2.755,0.139,6.069-1.291,8.731
		c-1.48,2.755-4.096,1.832-5.894,0.368c-9.316-7.588-19.938-5.074-30.36-4.173C516.503,302.4,514.544,302.13,513.839,304.972z"/>
	<path d="M504.02,421.589c-24.047,6.692-48.298,7.056-73.028,4.601c6.236,9.979,20.079,13.302,54.564,13.432
		c-4.257,6.195-9.222,8.29-16.608,6.866c-12.637-2.437-25.855-0.785-38.258-5.651c-4.703-1.845-7.656-4.667-9.466-9.086
		c-2.174-5.307-5.42-9.463-11.496-10.448c3.631-9.397,16.942-10.755,26.483-5.547c13.111,7.157,27.047,7.259,41.178,5.92
		C486.347,420.828,495.223,419.301,504.02,421.589z"/>
	<path d="M344.634,290.811c-3.614-7.042-1.701-13.847-3.184-21.752c-4.09,5.035-1.52,11.602-8.96,14.971
		c5.725-11.523-1.245-24.69,10.18-33.177c1.385-1.029,1.255-2.298,0.039-3.605c-3.042-3.271,0.06-4.458,2.12-4.024
		c3.409,0.719,3.855-0.131,3.84-3.249c-0.011-2.301,1.606-4.535,4.212-4.479c2.251,0.048,3.284,2.46,3.712,4.236
		c1.249,5.172,2.3,10.13,5.971,14.533c1.356,1.626,3.141,7.241-1.953,8.471c-10.708,2.584-11.393,11.586-12.795,19.712
		C347.311,285.381,346.241,287.56,344.634,290.811z"/>
	<path d="M515.826,388.897c-7.509-6.205-12.693-13.842-15.698-25.674C508.546,371.725,515.041,378.493,515.826,388.897z"/>
</g>
</svg>
