<?xml version="1.0" encoding="utf-8"?>
<!-- Generator: Adobe Illustrator 23.0.6, SVG Export Plug-In . SVG Version: 6.00 Build 0)  -->
<svg version="1.1" id="Слой_1" xmlns="http://www.w3.org/2000/svg" xmlns:xlink="http://www.w3.org/1999/xlink" x="0px" y="0px"
	 viewBox="0 0 864 864" enable-background="new 0 0 864 864" xml:space="preserve">
<g>
	<path d="M423.15,157.609c64.618-0.341,128.53,5.408,190.527,24.435c75.851,23.279,144.479,59.298,198.715,118.83
		c27.273,29.936,45.228,65.191,50.021,105.349c6.313,52.89-6.087,101.69-39.408,144.272c-31.822,40.667-72.189,70.503-117.684,94.23
		c-67.744,35.331-139.949,53.718-215.841,59.381c-73.142,5.458-145.567,1.651-216.821-16.355
		c-66.403-16.78-127.703-44.783-181.609-87.493c-34.327-27.198-63.37-59.307-78.484-101.156
		C-8.306,441.308-3.443,385.086,29.148,332.523c31.301-50.483,77.405-84.555,128.966-111.907
		c72.864-38.653,150.838-58.152,233.085-61.306C401.855,158.902,412.5,158.184,423.15,157.609z M432.106,681.22
		c37.811,1.931,75.207,0.063,111.954-6.856c61.933-11.663,121.339-30.51,175.317-64.642c25.463-16.101,49.27-33.774,69.694-55.812
		c30.491-32.901,48.101-71.035,48.122-116.823c0.012-25.944-2.484-50.919-13.731-74.752c-17.825-37.773-46.033-66.333-78.984-90.761
		c-51.856-38.444-110.154-62.566-172.943-76.054c-79.601-17.099-159.833-19.384-240.258-7.087
		c-79.777,12.198-153.824,39.278-218.636,88.611c-40.798,31.054-72.789,68.888-82.934,120.537
		c-12.835,65.346,8.373,120.967,55.428,166.197c48.433,46.556,107.29,76.065,171.159,95.205
		C313.631,676.167,372.401,684.489,432.106,681.22z"/>
	<path d="M291.365,420.014c55.79-1.406,107.502-3.602,159.266-3.612c8.385-0.002,16.498,1.035,24.214,4.38
		c11.603,5.031,18.413,16.318,16.59,27.314c-1.849,11.157-13.368,21.507-25.388,21.845c-19.729,0.555-39.477,0.832-59.211,0.64
		c-7.981-0.078-10.956,3.036-10.857,10.742c0.191,14.935,0.128,29.879-0.171,44.812c-0.1,5.01,1.518,7.415,6.659,7.407
		c11.2-0.018,22.409,0.411,33.598,0.083c7.926-0.232,15.031-3.245,21.02-8.669c12.07-10.931,23.326-22.672,34.61-34.394
		c3.448-3.582,3.662-6.888,1.817-11.487c-4.45-11.089-1.228-16.186,10.799-16.392c18.395-0.316,36.803,0.244,55.206,0.244
		c16.285,0,30.983-5.047,43.402-15.565c5.496-4.655,11.234-7.864,18.317-9.022c8.303-1.357,15.533-5.543,22.774-9.502
		c7.561-4.133,14.156-3.981,21.432,1.468c7.849,5.878,16.652,10.472,23.139,18.108c0.669,0.788,1.62,1.62,2.576,1.838
		c17.628,4.02,34.496,11.535,52.765,12.464c16.776,0.853,33.602,0.695,50.402,1.136c3.742,0.098,9.224-0.887,8.252,5.473
		c-0.83,5.432,1.06,13.193-8.356,13.75c-15.709,0.929-31.41,1.996-47.12,2.916c-10.917,0.64-21.841,1.168-32.765,1.677
		c-6.269,0.292-12.164,1.858-17.357,5.379c-12.393,8.405-25.887,14.852-38.862,22.223c-5.33,3.028-9.901,3.659-15.543,0.168
		c-13.825-8.555-28.208-16.206-42.048-24.739c-7.747-4.776-14.292-5.288-21.804,0.691c-13.14,10.458-26.907,20.123-40.279,30.296
		c-6.793,5.168-6.959,8.093,0.42,12.448c9.188,5.423,18.726,10.52,29.281,12.915c3.725,0.845,4.122,3.454,3.72,5.931
		c-1.58,9.746,2.733,13.535,12.076,13.015c1.234-0.069,2.675,0.479,3.731,1.179c1.026,0.68,1.679,1.923,2.496,2.918
		c-1.036,0.76-1.976,1.763-3.132,2.219c-1.467,0.578-3.112,1.005-4.675,0.987c-8.344-0.095-11.848,4.289-12.036,12.256
		c-0.097,4.103-1.857,6.85-6.497,7.677c-5.139,0.916-9.501,4.097-12.625,8.015c-4.129,5.179-9.265,6.185-15.349,6.769
		c-44.069,4.234-87.946-0.221-131.87-2.554c-11.185-0.594-22.353-1.523-33.526-2.33c-4.9-0.354-9.806-1.431-13.132-5.124
		c-11.702-12.993-26.895-17.318-43.556-19.033c-11.387-1.172-12.518-3.278-8.111-13.805c2.509-5.994,2.272-11.966,1.949-18.067
		c-0.377-7.124,3.067-10.342,9.976-10.395c12.804-0.099,25.608-0.246,38.412-0.347c9.627-0.076,10.883-1.033,10.969-10.279
		c0.15-16.004-0.204-32.016,0.103-48.015c0.12-6.25-2.344-8.319-8.324-8.613c-33.058-1.626-66.14-1.054-99.211-1.307
		c-53.885-0.411-107.772-0.577-161.658-0.759c-4.135-0.014-7.867-0.502-11.191-3.251c-3.212-2.657-7.21-3.429-11.256-3.573
		c-7.609-0.272-11.766-4.341-13.014-11.596c-4.254-24.726-3.266-21.09,16.15-22.32c14.579-0.924,29.082-1.158,43.401-5.768
		c11.656-3.753,24.369-1.985,36.622-1.647C204.194,420.49,249.806,420.506,291.365,420.014z"/>
	<path d="M503.232,319.032c0-13.054,0.126-26.11-0.063-39.162c-0.074-5.122,1.925-6.87,7.045-7.084
		c23.509-0.982,27.574,3.409,28.37,27.053c0.271,8.049-7.672,14.942-3.779,21.786c4.155,7.306,3.11,14.312,3.252,21.567
		c0.13,6.649-0.222,13.317-0.64,19.959c-0.119,1.893,0.652,4.768-2.052,5.404c-2.23,0.525-3.779-1.575-5.356-2.963
		c-2.663-2.343-2.889-5.525-3.015-8.774c-0.34-8.785-0.6-17.577-1.203-26.345c-0.189-2.747,1.594-7.093-3.648-7.305
		c-5.239-0.211-6.68,3.081-6.732,7.736c-0.098,8.79-0.431,17.577-0.652,26.366c-0.1,3.996-0.612,7.503-5.908,7.611
		c-5.535,0.114-5.689-3.504-5.68-7.486c0.03-12.788,0.011-25.576,0.011-38.364C503.198,319.032,503.215,319.032,503.232,319.032z
		 M515.624,297.591c0,3.967-0.024,7.934,0.007,11.901c0.029,3.682,2.266,5.117,5.605,5.255c3.544,0.147,4.386-2.279,4.699-5.133
		c0.842-7.657,0.643-15.323,0.182-22.991c-0.195-3.248-1.101-5.58-5.158-5.385c-4.085,0.196-5.579,2.129-5.388,6.035
		C515.738,290.706,515.605,294.151,515.624,297.591z"/>
	<path d="M429.622,298.389c0.294,5.17-0.12,11.509-3.481,17.304c-0.975,1.682-1.276,3.311-0.369,5.277
		c6.337,13.735,3.077,28.365,3.718,42.619c0.254,5.635-3.195,5.475-6.737,2.906c-3.534-2.563-4.288-6.521-4.411-10.684
		c-0.245-8.266-0.493-16.535-0.991-24.788c-0.207-3.44,0.832-7.922-5.199-7.914c-6.32,0.008-5.5,4.618-5.656,8.428
		c-0.359,8.796-0.541,17.601-0.674,26.403c-0.058,3.821-0.531,6.878-5.505,6.88c-4.654,0.002-4.976-3.005-5.114-6.391
		c-1.064-26.137-0.832-52.277-0.323-78.421c0.09-4.612,1.983-6.964,6.673-6.897c1.065,0.015,2.131-0.113,3.197-0.152
		C425.595,272.201,429.682,276.166,429.622,298.389z M417.488,297.833c0.052,0,0.103,0,0.155-0.001c0-3.701,0.07-7.404-0.022-11.102
		c-0.077-3.09-0.559-5.808-4.793-5.648c-3.599,0.136-6.241,0.872-6.234,5.223c0.013,7.662-0.159,15.324-0.112,22.985
		c0.02,3.291,1.311,5.525,5.208,5.455c3.973-0.071,5.817-1.917,5.801-5.813C417.476,305.231,417.488,301.532,417.488,297.833z"/>
	<path d="M238.973,319.306c0-12.787,0.139-25.577-0.063-38.361c-0.091-5.739,2.059-8.547,7.971-7.934
		c0.527,0.055,1.065,0.001,1.598,0.002c18.323,0.006,25.948-0.729,24.903,24.101c-0.839,19.949-0.281,39.956-0.41,59.937
		c-0.023,3.637,0.688,7.897-5.183,7.861c-5.541-0.034-5.564-4.023-5.595-7.787c-0.186-22.643-0.263-45.288-0.414-67.931
		c-0.021-3.088,0.858-6.819-3.523-7.812c-5.739-1.302-7.428,1.499-7.404,6.986c0.097,22.644-0.081,45.29-0.249,67.934
		c-0.019,2.547,0.841,5.61-1.801,7.376c-2.269,1.516-4.991,1.831-7.668,0.925c-2.641-0.894-2.406-3.233-2.411-5.332
		c-0.028-13.321-0.014-26.642-0.014-39.963C238.797,319.306,238.885,319.306,238.973,319.306z"/>
	<path d="M185.022,319.111c0-9.854-0.45-19.733,0.113-29.554c0.717-12.521,5.087-16.254,17.653-16.607
		c17.532-0.492,17.538-0.492,17.303,17.342c-0.028,2.129-0.047,4.269-0.271,6.382c-0.448,4.208-3.667,4.877-6.986,4.957
		c-3.44,0.083-4.47-2.332-4.618-5.289c-0.133-2.659-0.296-5.324-0.261-7.984c0.053-4.047-1.236-6.595-5.853-6.692
		c-4.54-0.095-5.208,2.668-5.273,6.198c-0.107,5.857-0.356,11.713-0.367,17.569c-0.009,5.1,0.686,9.781,7.499,9.875
		c1.978,0.027,3.818,0.978,3.772,3.289c-0.046,2.372-1.393,4.193-3.933,4.154c-6.659-0.103-6.886,4.371-6.843,9.169
		c0.056,6.385,0.003,12.773,0.15,19.156c0.076,3.285,1.401,5.56,5.249,5.616c3.967,0.057,4.931-2.255,5.092-5.586
		c0.167-3.456,0.433-6.911,0.784-10.353c0.363-3.55,2.581-5.054,6.002-5.004c3.219,0.048,5.172,1.993,5.295,4.898
		c0.293,6.905,0.229,13.831,0.085,20.745c-0.059,2.814-1.977,4.272-4.758,4.347c-6.66,0.179-13.359,0.41-19.834-1.494
		c-7.294-2.145-9.754-8.005-9.973-14.776c-0.327-10.11-0.085-20.238-0.085-30.358C184.983,319.112,185.002,319.112,185.022,319.111z
		"/>
	<path d="M641.727,319.893c0-10.122-0.026-20.244,0.007-30.366c0.034-10.044,4.888-15.486,14.587-16.452
		c19.685-1.96,20.116-1.568,19.937,18.218c-0.017,1.864-0.104,3.727-0.136,5.591c-0.051,2.916-1.643,4.529-4.434,4.531
		c-2.984,0.002-6.173-0.396-6.591-4.245c-0.373-3.429-0.38-6.916-0.304-10.372c0.087-3.975-2.126-4.97-5.557-4.962
		c-3.325,0.008-4.807,1.446-4.777,4.831c0.067,7.456-0.111,14.915-0.052,22.371c0.029,3.574,1.242,6.239,5.596,6.07
		c2.287-0.089,4.4,0.649,4.467,3.419c0.062,2.556-1.613,3.925-4.029,4.038c-5.362,0.25-6.581,3.607-6.442,8.139
		c0.211,6.919,0.356,13.841,0.618,20.759c0.108,2.837,0.734,5.228,4.495,5.219c3.686-0.009,5.375-1.658,5.467-5.242
		c0.082-3.194,0.073-6.404,0.401-9.575c0.375-3.631,2.425-5.975,6.258-5.866c4.099,0.116,5.231,2.738,5.083,6.509
		c-0.231,5.853-0.173,11.717-0.267,17.576c-0.041,2.567-0.646,5.05-3.653,5.331c-7.703,0.721-15.526,1.304-22.71-2.316
		c-5.071-2.555-7.847-6.631-7.621-12.843c0.368-10.109,0.099-20.241,0.099-30.363C642.021,319.893,641.874,319.893,641.727,319.893z
		"/>
	<path d="M341.456,319.031c-0.001-10.386,0.314-20.784-0.104-31.153c-0.318-7.864,3.797-11.93,10.491-13.912
		c6.197-1.834,12.721-1.475,19.049-0.809c6.246,0.657,5.277,6.205,4.865,10.058c-0.629,5.879,3.561,13.255-3.544,17.301
		c-2.973,1.693-7.013,0.666-7.456-4.293c-0.26-2.915-0.694-5.849-0.57-8.755c0.188-4.39-2.013-5.319-5.88-5.299
		c-3.895,0.021-5.11,1.748-5.058,5.345c0.086,5.856-0.101,11.716-0.11,17.574c-0.008,5.301,0.171,10.402,7.614,10.485
		c1.9,0.021,3.466,1.436,3.323,3.753c-0.141,2.278-1.752,3.415-3.71,3.448c-6.838,0.113-7.418,4.621-7.333,9.832
		c0.1,6.123,0.051,12.248,0.106,18.372c0.031,3.403,1.413,5.532,5.183,5.647c4.102,0.125,5.77-1.994,5.897-5.81
		c0.107-3.192,0.096-6.398,0.419-9.569c0.346-3.401,2.495-5.273,5.884-5.312c3.28-0.038,4.638,2.115,4.972,5.107
		c0.177,1.588,0.384,3.173,0.509,4.765c1.554,19.713-8.214,26.297-26.45,17.685c-5.126-2.421-8.294-6.274-8.16-12.505
		C341.622,340.338,341.457,329.683,341.456,319.031z"/>
	<path d="M448.999,321.598c0-11.203-0.081-22.407,0.027-33.609c0.08-8.315,4.841-13.782,12.603-14.849
		c11.48-1.578,19.354,2.027,21.032,10.869c2.499,13.164,2.18,26.589,0.485,39.825c-0.94,7.341-5.813,12.008-13.669,12.109
		c-7.024,0.09-9.314,3.734-8.956,10.195c0.206,3.72-0.032,7.466-0.106,11.199c-0.079,4.037-0.753,7.539-6.035,7.501
		c-5.173-0.038-5.136-3.704-5.153-7.232c-0.057-12.002-0.022-24.005-0.022-36.007C449.136,321.599,449.067,321.598,448.999,321.598z
		 M471.181,304.385c0-5.837,0.034-11.675-0.016-17.512c-0.022-2.595,0.467-5.519-3.683-5.58c-3.566-0.052-6.536,0.619-6.766,4.843
		c-0.679,12.455-0.83,24.92,0.159,37.367c0.27,3.403,2.669,4.046,5.693,4.032c3.425-0.017,4.696-1.536,4.636-4.842
		C471.091,316.592,471.171,310.488,471.181,304.385z"/>
	<path d="M610.594,339.798c0-2.396-0.227-4.819,0.044-7.184c0.745-6.512-1.32-9.602-8.562-9.941
		c-10.083-0.472-13.928-5.321-14.05-15.456c-0.084-6.922-0.176-13.845-0.092-20.766c0.083-6.802,3.812-10.916,10.237-12.446
		c6.539-1.557,13.245-1.081,19.888-0.858c4.942,0.166,4.954,4.137,5.019,7.567c0.069,3.676,0.419,8.077-4.104,9.392
		c-3.408,0.991-7.228,0.422-8.119-4.122c-0.879-4.478-4.061-4.285-7.312-4.116c-4.109,0.214-4.271,3.162-4.229,6.271
		c0.047,3.461-0.038,6.923-0.017,10.384c0.082,13.479,0.062,13.568,12.626,17.436c5.369,1.653,8.487,5.135,10.026,10.369
		c1.22,4.148,1.367,8.388,1.359,12.656c-0.048,27.897-9.199,25.688-30.018,26.364c-4.911,0.159-5.811-3.168-5.341-6.921
		c0.477-3.805-2.471-9.13,3.601-10.823c3.976-1.109,7.373-0.355,7.975,4.939c0.434,3.818,3.554,4.126,6.663,4.041
		c3.788-0.103,4.023-2.889,4.108-5.607c0.116-3.722,0.029-7.451,0.029-11.177C610.415,339.799,610.504,339.799,610.594,339.798z"/>
	<path d="M301.556,321.967c0-11.201-0.116-22.403,0.058-33.601c0.068-4.375-0.77-7.395-5.983-7.149
		c-2.662,0.125-5.052-0.738-4.992-3.811c0.066-3.398,2.777-4.307,5.632-4.325c7.73-0.051,15.462-0.017,23.191,0.119
		c2.168,0.038,4.486,0.551,4.708,3.309c0.242,3.001-1.73,4.532-4.425,4.473c-6.054-0.131-6.695,3.386-6.666,8.304
		c0.122,20.8-0.016,41.602-0.077,62.403c-0.007,2.399-0.125,4.798-0.194,7.196c-0.095,3.3-1.153,5.697-5.023,5.816
		c-4.17,0.129-5.788-2.213-5.806-5.94c-0.06-12.265-0.022-24.53-0.022-36.794C301.822,321.967,301.689,321.967,301.556,321.967z"/>
	<path d="M568.968,319.773c0,12.513-0.015,25.026,0.009,37.539c0.008,3.889,0.153,7.512-5.494,7.606
		c-5.238,0.088-6.216-2.791-6.227-7.063c-0.07-25.556-0.179-51.112-0.316-76.668c-0.024-4.433,0.801-7.967,6.3-8.156
		c6.495-0.224,5.517,4.793,5.587,8.409c0.248,12.773,0.096,25.554,0.096,38.333C568.938,319.773,568.953,319.773,568.968,319.773z"
		/>
</g>
</svg>
