<?xml version="1.0" encoding="utf-8"?>
<!-- Generator: Adobe Illustrator 23.0.6, SVG Export Plug-In . SVG Version: 6.00 Build 0)  -->
<svg version="1.1" id="Слой_1" xmlns="http://www.w3.org/2000/svg" xmlns:xlink="http://www.w3.org/1999/xlink" x="0px" y="0px"
	 viewBox="0 0 864 864" enable-background="new 0 0 864 864" xml:space="preserve">
<g>
	<path d="M789.936,863.397c-20.785,0-41.57-0.007-62.355,0.001c-145.329,0.056-290.658,0.099-435.987,0.18
		c-65.03,0.036-130.06,0.16-195.089,0.201c-2.586,0.002-6.028,1.099-7.425-1.617c-1.721-3.345,1.543-5.852,3.623-7.533
		c15.114-12.223,29.296-25.526,45.229-36.838c14.844-10.539,24.24-27.302,38.685-38.13c15.635-11.72,24.235-29.595,40.374-40.918
		c20.101-14.103,24.967-38.233,14.153-61.354c-9.428-20.157-19.935-39.818-33.611-57.517
		c-12.793-16.557-17.211-37.216-27.416-55.042c-2.742-4.789,1.312-5.878,5.003-5.724c11.381,0.475,19.268,5.898,25.034,15.992
		c12.557,21.981,22.518,45.199,33.436,67.952c10.113,21.075,25.611,37.829,41.388,54.485c1.941,2.05,4.239,3.225,6.942,3.846
		c14.903,3.424,23.342,14.814,31.973,25.977c4.396,5.686,0.6,6.975-4.066,7.221c-7.892,0.415-12.854-5.198-18.184-9.702
		c-15.346-12.97-15.405-13.207-32.142-2.168c-14.637,9.653-27.738,21.243-39.921,33.814c-25.305,26.112-53.954,48.86-77.373,76.853
		c-6.245,7.464-12.052,15.294-19.055,24.225c13.353,2.097,25.546,1.168,37.624,1.301c53.535,0.591,107.073,0.931,160.61,1.354
		c2.357,0.019,4.714-0.087,7.071-0.065c5.328,0.05,7.183-1.621,5.201-7.38c-6.019-17.489-10.142-35.827-24.21-49.345
		c-1.829-1.757-2.399-3.834-2.108-6.409c1.89-16.702,3.346-33.46,5.587-50.114c1.598-11.879,5.294-13.147,14.988-5.36
		c12.48,10.023,26.377,17.294,40.976,23.699c9.774,4.288,19.659,4.824,29.657,3.401c16.053-2.285,32.443-6.423,46.173-13.854
		c13.937-7.543,29.537-17.262,36.133-32.454c4.937-11.373,7.289-24.166,13.099-35.587c2.062-4.053,3.744-7.387,8.943-8.169
		c5.683-0.855,8.874-4.736,8.435-10.73c-1.12-15.3,7.954-29.02,6.342-44.709c-0.582-5.668,8.26-10.528,6.66-18.186
		c-0.483-2.314,1.446-5.824-3.031-6.11c-3.209-0.205-5.681,1.425-5.488,4.521c0.745,11.955-7.541,14.953-16.532,17.757
		c-5.273,1.644-9.768,4.886-12.502,9.76c-4.476,7.979-11.885,12.526-19.982,14.409c-24.62,5.726-48.239,14.867-72.821,20.605
		c-23.394,5.461-47.265,6.584-71.151,7.551c-5.7,0.231-11.387,0.892-17.068,1.472c-2.717,0.277-5.939,1.042-7.203-1.897
		c-1.454-3.38,1.412-5.63,3.869-7.343c4.902-3.418,10.906-4.128,16.429-4.096c19.98,0.115,39.497-3.595,59.188-5.932
		c4.103-0.487,8.484-0.875,11.555-3.195c13.681-10.337,29.385-15.78,45.498-20.764c9.232-2.856,17.071-7.448,22.769-16.731
		c7.083-11.539,17.204-12.849,29.682-7.155c4.941,2.254,9.574-0.13,8.045-4.594c-3.29-9.605,1.226-17.156,3.876-25.298
		c1.897-5.83,2.691-11.196-2.573-15.725c-3.457-2.974-1.473-6.105-0.228-9.185c3.403-8.417,6.755-16.857,10.287-25.221
		c2.288-5.42,3.729-10.778,11.313-12.679c4.325-1.084,7.148-7.59,8.019-12.935c3.018-18.527,9.19-36.773,5.532-55.946
		c-0.575-3.016,0.658-5.011,2.44-7.237c6.25-7.811,6.203-24.622,0.08-32.532c-1.019-1.316-2.015-2.895-3.403-3.634
		c-3.682-1.961-29.913,9.154-30.582,13.277c-1.479,9.121-9.711,13.848-15.25,17.76c-14.258,10.07-31.655,14.615-48.666,18.962
		c-2.943,0.752-7.732,2.44-8.918-1.309c-1.37-4.332,3.716-4.859,6.691-5.757c8.902-2.688,16.333-7.672,22.962-13.623
		c-4.19-9.027-10.831-9.833-18.996-5.887c-1.134,0.548-3.02,0.884-3.947,0.318c-12.821-7.822-19.638,3.476-28.293,8.77
		c-6.033,3.691-11.721,8.013-17.975,11.26c-9.655,5.014-14.672,12.585-14.892,23.369c-0.063,3.069,0.405,6.192-3.706,7.18
		c-3.728,0.896-5.415-1.587-7.432-3.944c-11.107-12.98-14.42-41.431-6.654-56.828c1.033-2.049,2.674-2.78,4.497-3.682
		c14.699-7.272,29.364-14.611,44.028-21.955c0.871-0.436,2.272-0.998,2.359-1.644c2.096-15.594,16.97-7.516,24.245-13.204
		c7.52-5.88,20.051-1.23,25.042-12.532c1.395-3.16,5.665-1.872,8.422-1.344c4.873,0.935,9.055-0.557,13.639-1.632
		c6.274-1.472,6.929-7.765,5.479-9.747c-4.035-5.516-3.293-13.171-8.723-17.671c-4.944-4.096-7.903-8.801-6.825-15.653
		c0.562-3.572-0.398-6.53-5.383-6.431c-6.299,0.124-10.676-1.579-4.993-8.699c1.068-1.338,2.152-3.145,0.541-4.353
		c-1.126-0.845-3.289-1.042-4.705-0.606c-2.519,0.776-4.713,2.648-7.24,3.342c-3.717,1.02-8.83,4.348-11.14,0.46
		c-2.615-4.402-0.738-11.023,3.858-13.234c5.458-2.625,5.765-5.59,4.568-10.337c-1.596-6.327,2.2-10.683,5.398-15.569
		c3.337-5.099,11.293-11.362-1.206-15.852c-2.383-0.856-2.145-4.335-1.509-6.43c2.503-8.245,1.678-16.134-1.308-24.053
		c-1.054-2.795-0.231-5.332,2.757-6.731c1.942-0.909,5.249-0.57,4.468-4.143c-0.697-3.19-2.483-5.316-6.235-5.446
		c-6.494-0.226-6.795-4.443-5.206-9.214c0.814-2.446,3.134-3.304,5.703-3.404c5.403-0.21,3.396,4.796,5.011,7.524
		c4.49-2.808,6.173-7.318,4.789-11.292c-1.697-4.873-6.989-2.484-10.612-2.302c-9.428,0.476-19.155-4.038-28.288,1.576
		c-6.468,3.976-11.267,10.179-19.026,12.586c-10.821,3.358-21.513,7.612-32.246,0.877c-4.81-3.019-7.473-0.452-10.288,2.233
		c-3.098,2.957-3.777,5.661,0.525,8.997c4.404,3.415,0.899,6.097-2.563,6.881c-3.832,0.868-7.933,0.551-11.937,0.752
		c3.669,9.771-2.095,10.412-23.277,6.068c2.503,3.756,10.113,4.817,6.171,9.463c-4.271,5.033-1.978,16.091-13.15,14.954
		c-0.994-0.101-2.397-0.434-2.956,0.068c-7.527,6.774-7.502,6.843-16.975,5.963c-2.995-0.278-5.92-0.412-8.566,0.811
		c-2.1,3.689,6.597,3.847,2.298,8.154c-3.619,3.626-8.619,3.843-12.331,2.46c-16.115-6.003-30.345,5.306-46.024,2.765
		c0.599,4.367,3.228,3.47,4.909,4.122c1.845,0.715,2.569,2.031,2.46,3.883c-0.148,2.498-1.785,3.568-4.024,3.572
		c-3.701,0.007-7.442-0.605-11.094-0.24c-3.687,0.368-11.559-6.112-9.472,5.385c0.37,2.039-3.579,2.4-5.833,2.857
		c-9.245,1.873-18.443,4.077-27.762,5.465c-11.504,1.714-23.198-0.049-34.834,1.355c-3.359,0.405-7.191-4.404-11.027-6.399
		c-8.657-4.503-10.87-2.167-13.171,6.93c-5.349,21.146,2.731,39.052,11.517,56.993c13.517,27.6,18.584,57.601,24.605,87.259
		c4.083,20.11,6.726,40.517,9.799,60.824c0.492,3.254,0.42,6.818-0.373,9.993c-1.596,6.396-7.585,7.452-12.744,8.176
		c-5.444,0.765-3.945-5.062-5.793-7.819c-7.48-11.16,1.359-22.747-1.507-34.332c-8.639-34.926-16.109-70.139-24.169-105.209
		c-1.922-8.362-7.095-15.253-11.427-22.432c-13.174-21.831-18.879-46.777-29.251-69.81c-6.17-13.702-1.925-29.274-0.434-44.007
		c2.124-20.981,12.308-38.362,24.114-55.164c4.033-5.74,7.189-12.194,10.047-18.632c2.43-5.473,5.675-8.819,11.938-9.009
		c2.534-0.077,7.362-2.042,5.561-3.789c-6.339-6.145-0.372-15.443-6.468-21.02c-2.552-2.335-3.743-4.799-2.099-7.991
		c1.483-2.879,4.53-3.337,7.057-2.742c8.926,2.103,11.385-1.746,10.071-9.899c-0.192-1.194,0.152-3.215,0.958-3.721
		c15.803-9.912,21.111-29.152,36.818-39.786c15.778-10.682,29.337-24.606,46.684-33.307c10.152-5.092,21.035-7.028,32.09-8.399
		c9.102-1.129,18.466,2.089,26.68-6.754c4.533-4.881,13.576-1.804,19.933,1.865c3.59,2.072,6.079,2.854,7.632-1.979
		c0.391-1.218,1.13-2.535,2.103-3.313c2.576-2.061,27.059-0.165,27.799,2.688c1.932,7.453,9.942,8.856,12.391,15.298
		c3.446-2.056,1.797-4.621,1.903-6.719c0.145-2.87,0.509-5.636,3.608-6.519c2.935-0.836,6.284-1.158,8.251,1.865
		c1.301,1.999,2.018,4.659,4.97,3.89c11.558-3.012,17.439,4.337,23.025,12.314c1.754,2.505,3.324,0.355,5.117,0.088
		c7.452-1.109,15.199-3.17,21.515,3.207c2.273,2.295,4.415,0.876,6.481,0.069c9.331-3.643,14.243,1.436,16.823,9.213
		c2.028,6.112,3.714,11.116,11.666,7.989c0.838-0.33,2.377-0.329,2.899,0.2c13.806,13.999,33.622,15.034,50.093,23.254
		c2.425,1.21,2.856,3.621,4.427,5.275c4.547,4.787,8.339,10.516,16.846,7.485c5.219-1.859,8.29,1.41,5.714,6.55
		c-2.801,5.59-0.749,7.418,4.304,7.946c2.515,0.263,4.653,1.035,6.199,2.927c13.156,16.099,28.591,30.595,36.404,50.5
		c5.279,13.447,16.373,22.833,23.753,34.936c17.475,28.658,19.99,58.088,8.35,88.889c-3.181,8.418-2.089,13.084,5.531,18.16
		c9.723,6.477,15.917,16.037,18.909,27.746c5.666,22.169,12.803,43.96,9.678,67.491c-1.848,13.921-5.009,27.556-12.327,39.255
		c-17.505,27.985-14.363,55.524,0.083,82.924c6.486,12.303,9.473,25.867,15.703,38.16c1.307,2.578,2.581,6.857,5.936,5.724
		c4.004-1.353,1.016-5.297,0.473-7.841c-2.357-11.056-1.44-12.202,9.843-10.225c35.646,6.246,65.299,24.44,92.87,46.743
		c4.716,3.815,9.373,7.703,14.046,11.573c12.496,10.349,12.455,28.886-2.319,36.392c-16.211,8.236-24.377,21.609-33.736,35.831
		c-16.019,24.343-28.793,50.157-41.208,76.333c-14.626,30.838-35.448,57.059-60.506,80.206
		c-10.079,9.311-18.709,20.191-27.899,30.249c7.566,0.451,16.692,1.251,25.833,1.485c16.8,0.43,33.608,0.523,50.413,0.762
		c8.731,0.124,17.772-7.303,19.357-17.233c1.548-9.698,5.852-17.509,11.814-25.165c7.438-9.551,14.236-19.892,14.209-32.773
		c-0.012-5.616,3.546-6.681,7.687-7.382c5.814-0.984,9.804,2.077,12.524,6.667c2.917,4.923-1.523,6.339-4.606,8.204
		c-2.379,1.44-4.815,3.203-4.953,6.027c-0.831,17.012-9.743,31.393-14.922,46.984c-4.571,13.763-4.055,14.139,10.054,14.013
		c18.398-0.163,36.799-0.04,55.199-0.04C790.031,860.953,789.984,862.175,789.936,863.397z M208.458,262.652
		c-8.456,5.863-17.052-5.653-26.606,2.279c-6.77,5.62-16.481,7.697-25.132,11.465C178.262,285.82,194.616,279.127,208.458,262.652z"
		/>
	<path d="M327.404,591.574c7.562,3.035,16.134,0.579,24.777-0.083c6.105-0.468,10.485-3.365,15.152-7.038
		c11.679-9.193,17.95-18.903,10.943-34.539c-2.63-5.869-0.679-13.939-0.276-20.974c0.32-5.584,4.36-6.536,8.741-4.852
		c5.977,2.298,10.447,1.804,15.376-3.108c4.99-4.973,10.866-5.236,14.448,2.663c4.948,10.911,13.538,19.168,20.702,28.49
		c11.561,15.042,11.051,22.868-2.23,35.722c-21.249,20.566-44.897,32.633-75.762,22.625c-11.372-3.687-23.983-3.33-35.02-8.888
		c-3.152-1.587-8.439-2.327-7.605-6.609C317.543,590.405,322.842,592.49,327.404,591.574z M402.073,537.185
		c-2.03,7.981-3.901,14.023-5.038,20.201c-0.989,5.375,3.452,8.189,7.31,9.222c4.244,1.136,5.011-3.625,5.734-6.673
		C412.025,551.723,408.614,545.091,402.073,537.185z"/>
	<path d="M181.067,439.32c3.103,0.243,8.108,0.755,13.127,0.969c1.954,0.083,3.298,0.58,3.65,2.539
		c1.975,10.984,10.561,6.843,14.713,4.44c11.87-6.868,24.318-10.973,37.68-13.146c3.61-0.587,7.147-2.002,10.547-3.438
		c17.476-7.383,17.8-7.395,30.277,5.996c3.263,3.502,6.421,6.679,11.749,6.943c5.847,0.29,9.981,4.039,9.578,9.654
		c-0.371,5.177-5.887,4.228-9.742,4.604c-4.351,0.424-8.711,1.101-13.065,1.091c-10.309-0.023-18.685,2.127-26.469,10.617
		c-7.397,8.068-19.013,9.285-28.862,2.843c-6.303-4.123-9.818-0.514-14.418,2.034c-5.076,2.812-2.808,5.736-0.695,8.975
		c0.99,1.517,1.024,3.284-0.909,4.246c-4.227,2.105-8.996,4.956-13.295,2.097c-5.097-3.389-9.567-7.232-16.266-6.277
		c-0.993,0.142-3.192-1.251-3.143-1.779c0.634-6.873-2.272-12.253-5.596-18.026c-1.267-2.2-0.314-4.428-4.208-4.2
		c-4.657,0.273-11.151,3.644-10.746-6.384c0.347-8.604,1.971-14.634,12.164-14.019C177.811,439.142,178.483,439.176,181.067,439.32z
		"/>
	<path d="M371.329,708.738c-1.041-0.22-4.677-0.227-7.498-1.747c-5.082-2.738-7.869-5.025-0.91-10.712
		c10.854-8.869,23.226-13.41,36.207-16.057c18.271-3.726,34.884-9.867,48.106-23.532c2.298-2.375,4.876-5.355,8.622-4.049
		c4.276,1.492,4.044,5.779,4.364,9.414c1.303,14.8-7.501,29.549-21.418,33.991C417.619,702.809,396.007,707.88,371.329,708.738z"/>
	<path d="M463.76,40.622c-0.161,2.768-1.755,3.977-3.61,4.859c-2.898,1.379-5.641,0.316-7.155-1.962
		c-3.082-4.638-8.026-6.994-11.787-10.705c-2.159-2.131-4.559-3.56-7.076-2.772c-9.819,3.074-12.414-7.088-18.935-9.966
		c-1.663-0.734-1.868-2.713-1.168-4.417c0.728-1.771,2.411-2.676,4.059-2.108c15.972,5.505,33.805,7.657,43.924,23.909
		C462.714,38.586,463.299,39.782,463.76,40.622z"/>
	<path d="M392.671,17.9c-4.11-4.069-10.533-4.368-16.178-6.663c-3.048-1.239-2.287-5.188-1.178-8.12
		c1.201-3.174,3.806-3.652,6.568-2.643c6.873,2.514,13.648,5.197,20.853,6.799c5.063,1.126,4.076,4.376,1.307,7.337
		C401.231,17.616,397.204,16.752,392.671,17.9z"/>
	<path d="M481.872,52.82c-0.89,3.538-2.974,6.317-6.861,5.638c-5.145-0.899-7.801-5.487-8.794-9.792
		c-0.998-4.324,3.187-5.104,6.769-5.223C479.388,43.232,480.171,48.344,481.872,52.82z"/>
</g>
</svg>
