<?xml version="1.0" encoding="utf-8"?>
<!-- Generator: Adobe Illustrator 23.0.6, SVG Export Plug-In . SVG Version: 6.00 Build 0)  -->
<svg version="1.1" id="Слой_1" xmlns="http://www.w3.org/2000/svg" xmlns:xlink="http://www.w3.org/1999/xlink" x="0px" y="0px"
	 viewBox="0 0 864 864" enable-background="new 0 0 864 864" xml:space="preserve">
<g>
	<path d="M255.788,490.701c0.712-10.302-0.211-23.708,1.576-36.915c1.585-11.713,2.181-23.524,4.242-35.195
		c1.98-11.209,1.352-22.665,1.854-34.012c0.12-2.711,0.224-5.419,0.88-8.035c3.594-14.317,3.427-29.013,4.126-43.583
		c0.328-6.821-1.001-13.73,0.091-20.594c1.996-12.547,1.328-25.274,2.561-37.884c0.463-4.732-0.254-9.736-1.323-14.413
		c-0.956-4.183-3.019-8.158-6.578-11.009c-1.797-1.439-8.09-1.393-9.807,0.305c-2.42,2.392-4.689,4.747-5.259,8.549
		c-2.204,14.729-4.426,29.46-6.578,44.194c-1.611,11.031-3.604,22.071-3.759,33.286c-0.055,3.992-1.821,7.581-2.54,11.414
		c-0.464,2.474-0.926,4.934-0.87,7.476c0.049,2.203-0.853,4.02-2.083,5.906c-3.152,4.83-4.527,10.347-5.157,16.038
		c-0.431,3.892-0.852,7.772-2.301,11.461c-1.432,3.645-0.928,7.552-1.437,11.324c-0.4,2.959-0.816,5.829-2.384,8.519
		c-1.589,2.726-1.411,5.978-1.535,9.014c-0.269,6.591-2.029,12.916-3.707,19.16c-1.506,5.606-5.88,9.432-11.518,11.243
		c-2.499,0.803-4.405-1.013-6.171-2.552c-1.646-1.434-1.349-3.277-0.533-4.887c4.069-8.031,6.578-16.698,9.789-25.048
		c2.119-5.512,5.049-10.783,6.039-16.922c0.821-5.092,3.049-10.074,4.412-15.189c0.671-2.52,0.934-5.201,1.799-7.556
		c2.721-7.405,4.132-15.133,6.007-22.727c1.667-6.747,4.549-13.23,4.83-20.302c0.142-3.575,0.829-7.005,2.222-10.319
		c1.359-3.231,1.488-6.714,1.698-10.148c0.251-4.09,0.437-8.189,0.476-12.285c0.049-5.149,0.584-10.166,2.074-15.153
		c1.581-5.287,1.106-10.907,1.847-16.354c0.434-3.192,2.227-5.904,2.539-9.113c0.368-3.788,0.497-7.424-1.983-10.667
		c-0.487-0.638-0.741-1.509-0.927-2.313c-1.873-8.081-10.405-13.922-18.609-12.703c-7.363,1.094-9.29,3.768-11.727,10.903
		c-2.331,6.821-2.384,13.908-4.108,20.681c-1.448,5.686-2.25,11.298-2.177,17.068c0.109,8.63-3.618,16.278-5.955,24.275
		c-1.656,5.666-5.431,10.665-5.339,16.902c0.008,0.521-0.214,1.186-0.569,1.548c-3.218,3.286-3.305,8.038-5.557,11.779
		c-0.5,0.83-0.521,1.955-0.735,2.949c-0.352,1.635-0.28,3.518-1.098,4.865c-2.141,3.525-2.452,7.35-2.627,11.265
		c-0.172,3.848-0.793,7.577-2.57,11.071c-0.538,1.058-0.936,2.302-0.982,3.477c-0.247,6.314-1.926,12.391-4.108,18.157
		c-2.148,5.676-2.711,11.905-6.127,17.143c-1.577,2.419-2.051,5.4-2.906,8.117c-1.276,4.055-3.992,7.278-5.554,11.162
		c-0.938,2.333-3.243,4.306-5.322,5.948c-3.818,3.016-8.212,1.191-9.073-3.668c-0.502-2.832-0.872-5.742-0.819-8.608
		c0.163-8.797-1.471-17.42-2.178-26.129c-0.655-8.072-0.99-16.171-1.845-24.232c-0.376-3.551,0.255-7.054,0.763-10.561
		c0.771-5.326,0.542-10.606-1.222-15.73c-1.865-5.417-1.528-11.06-1.651-16.615c-0.305-13.782-0.679-27.527-2.164-41.272
		c-0.765-7.08-1.015-14.293-1.605-21.424c-0.485-5.864-2.063-12.162-8.302-14.289c-5.119-1.745-11.156-1.844-15.986,1.192
		c-4.484,2.818-6.852,7.667-6.852,13.088c0.002,12.505-1.409,24.917-2.208,37.367c-0.351,5.471-1.28,10.905-1.984,16.352
		c-0.379,2.929,0.009,5.556,1.408,8.32c3.116,6.152,5.129,12.531,5.189,19.726c0.101,12.183,1.21,24.357,1.851,36.537
		c0.279,5.301,0.48,10.606,0.656,15.911c0.417,12.56,0.554,25.139,2.631,37.579c0.69,4.13,1.284,8.301,2.367,12.334
		c1.092,4.067-0.198,7.535-1.891,10.975c-0.73,1.483-1.879,2.759-2.837,4.131c-1.051,1.506-2.537,1.864-4.195,1.4
		c-1.581-0.443-2.115-1.755-2.118-3.255c-0.006-2.607-0.306-5.29,0.189-7.808c1.544-7.861,0.459-15.642-0.828-23.303
		c-1.526-9.084-1.697-18.175-1.481-27.29c0.356-14.999-1.8-29.903-1.375-44.914c0.164-5.791,1.611-11.41,1.429-17.225
		c-0.144-4.6-1.202-9.113-2.311-13.388c-0.756-2.913-3.567-5.88-6.288-8.14c-0.64-0.532-1.381-0.96-1.953-1.554
		c-1.995-2.072-6.122-3.004-8.251-1.191c-3.604,3.069-6.472,6.678-8.922,10.954c-5.755,10.042-4.53,20.969-4.826,31.549
		c-0.423,15.083-1.736,30.116-1.995,45.197c-0.181,10.524,0.448,21.16-0.873,31.544c-1.805,14.19,0.048,28.521-2.523,42.618
		c-0.38,2.084-0.21,4.273-0.248,6.414c-0.15,8.567-0.348,17.134-0.398,25.701c-0.039,6.77-2.209,13.033-4.64,19.158
		c-3.062,7.715-3.14,15.721-2.628,23.687c1.175,18.3,2.729,36.578,4.275,54.853c0.784,9.271,2.51,18.435,3.624,27.675
		c0.642,5.324,3.285,10.381,4.711,15.644c1.65,6.087,4.623,11.682,6.13,17.842c0.913,3.729,2.711,7.324,4.596,10.71
		c1.846,3.316,3.308,6.809,5.248,10.101c3.717,6.306,7.804,12.312,13.489,16.831c3.427,2.724,7.868,4.277,12.245,5.123
		c6.08,1.175,12.182,2.823,18.489,1.031c2.213-0.629,4.61,0.2,6.907-0.639c2.455-0.897,4.13-2.342,4.036-5.027
		c-0.139-3.986,2.359-6.358,5.049-8.499c2.259-1.797,4.996-1.435,7.427-0.281c1.914,0.908,3.812,2.073,5.333,3.526
		c1.831,1.748,3.839,2.499,6.266,2.551c6.333,0.135,12.668,0.309,18.982-0.378c1.53-0.167,3.062-0.42,3.935,1.23
		c0.916,1.732-0.512,2.568-1.572,3.398c-1.385,1.084-1.116,2.021,0.103,2.889c0.906,0.645,1.859,1.294,2.889,1.686
		c4.861,1.851,9.715,3.739,14.656,5.354c2.355,0.77,4.83,0.396,6.982-1.022c2.813-1.853,5.972-2.79,9.244-2.819
		c5.02-0.045,9.448-2.353,13.769-4.12c3.849-1.574,7.603-2.117,11.512-2.625c1.671-0.217,3.357-0.005,4.955,0.593
		c1.748,0.655,1.984,1.8,0.97,3.285c-0.156,0.229-0.334,0.466-0.556,0.624c-6.491,4.6-12.219,10.489-20.143,12.716
		c-6.502,1.827-12.321,5.339-18.836,7.134c-3.898,1.074-6.923,3.96-10.055,6.367c-5.263,4.044-11.436,3.79-16.542-0.283
		c-5.193-4.143-7.219-10.246-10.804-15.367c-0.991-1.416-0.763-3.232-0.951-4.89c-0.248-2.201-1.426-3.345-3.671-3.376
		c-3.951-0.056-7.661,0.292-11.123,2.77c-4.403,3.151-9.743,2.689-14.839,2.643c-2.224-0.02-4.451-0.416-6.683-0.093
		c-1.462,0.211-2.255,0.577-1.701,2.536c1.474,5.22-0.054,7.182-5.518,7.741c-0.832,0.085-1.729,0.055-2.476,0.366
		c-9.663,4.025-19.95,2.994-30.013,3.723c-2.409,0.174-4.835,0.027-7.221,0.584c-1.187,0.277-2.115,0.744-2.335,2.048
		c-0.233,1.384,0.429,2.326,1.576,2.991c0.321,0.186,0.654,0.415,1.006,0.472c5.969,0.956,11.507,3.571,17.639,4.107
		c6.373,0.557,12.666,2.001,19.003,2.998c2.911,0.458,6.053,0.128,8.346,2.54c1.164,1.224,3.178,2.146,2.349,4.312
		c-0.798,2.085-2.782,2.338-4.704,2.213c-7.533-0.488-15.027-1.325-22.382-3.083c-4.709-1.126-9.4-1.316-14.09-0.08
		c-1.147,0.303-2.314,0.814-3.265,1.511c-1.426,1.044-1.639,2.402,0.196,3.228c2.632,1.184,4.296,2.427,1.708,5.295
		c-0.854,0.946-0.114,1.936,0.638,2.698c3.891,3.943,7.212,8.238,8.744,13.696c0.254,0.905,0.802,1.762,1.873,1.862
		c1.173,0.11,1.898-0.659,2.425-1.586c1.257-2.212,1.86-4.658,2.475-7.098c0.318-1.262,0.557-2.554,1.424-3.603
		c2.891-3.497,7.143-2.45,9.017,2.603c1.528,4.12,1.431,8.354-1.004,12.349c-1.781,2.923-3.169,6.069-6.153,8.112
		c-1.118,0.766-1.224,2.232-1.347,3.556c-0.535,5.748-1.277,11.484-1.584,17.244c-0.291,5.471-2.625,10.296-4.724,15.074
		c-1.47,3.345-3.107,6.742-5.025,9.931c-0.632,1.05-0.967,2.22-1.006,3.455c-0.083,2.639-0.679,5.131-1.749,7.566
		c-1.206,2.744-0.173,4.845,2.769,5.022c5.991,0.361,11.734-0.407,15.701-5.754c0.328-0.442,0.734-0.952,0.777-1.458
		c0.375-4.484,2.931-8.185,4.355-12.288c1.588-4.578,5.383-7.307,9.193-9.749c1.635-1.048,3.789-0.53,4.949,1.695
		c1.056,2.027,1.635,4.134,1.797,6.399c0.452,6.324,0.914,12.605-1.626,18.712c-1.291,3.102-3.057,4.998-6.325,4.906
		c-8.751-0.247-17.463,1.029-26.218,0.495c-3.714-0.226-6.681,2.117-10,3.247c-1.491,0.508-2.868,1.339-4.328,1.949
		c-1.529,0.639-2.886,0.516-3.913-1.018c-1.004-1.498-1.121-2.956,0.065-4.361c0.839-0.994,1.876-1.828,2.666-2.855
		c2.492-3.24,1.587-6.774-2.08-8.386c-2.938-1.291-3.043-1.825-1.749-4.907c1.215-2.894,2.484-5.255,5.953-6.386
		c2.473-0.807,4.543-3.1,6.564-4.975c2.11-1.957,3.182-4.478,3.223-7.471c0.102-7.38,0.694-14.773,2.802-21.835
		c1.556-5.214-0.334-9.046-3.767-12.166c-4.416-4.014-7.998-8.803-12.493-12.705c-0.77-0.668-1.531-1.387-2.41-1.878
		c-1.698-0.949-2.599-2.257-2.682-4.24c-0.066-1.569-0.576-3.355-2.555-2.85c-5.406,1.381-8.186-2.493-11.466-5.372
		c-3.35-2.941-4.322-7.258-6.086-11.092c-0.963-2.094-0.203-4.223,0.776-6.177c1.094-2.182,1.291-4.448,0.854-6.8
		c-0.139-0.75-0.445-1.523-1.247-1.714c-0.914-0.218-1.258,0.615-1.651,1.231c-5.084,7.973-9.226,16.583-15.064,24.019
		c-4.677,5.957-7.492,12.764-10.909,19.339c-2.168,4.172-5.266,7.83-7.381,12.082c-1.729,3.477-2.994,7.078-2.824,10.976
		c0.198,4.519-2.079,7.512-5.778,9.376c-3.7,1.865-4.648,4.659-4.242,8.486c0.324,3.054,0.552,6.113,0.986,9.16
		c0.621,4.365,0.856,8.712-1.452,12.799c-0.984,1.743-1.957,3.2-4.279,2.731c-2.387-0.482-2.974-2.161-3.094-4.322
		c-0.601-10.797-0.364-21.605-0.407-32.407c-0.066-16.861,0.146-33.725-0.049-50.584c-0.047-4.101,1.223-7.494,4.012-9.976
		c4.241-3.774,6.742-8.82,10.458-12.949c4.671-5.19,8.013-11.312,11.734-17.178c2.423-3.82,5.492-7.231,8.278-10.82
		c0.284-0.365,0.709-0.649,0.902-1.051c3.161-6.579,7.6-12.448,10.593-19.118c0.702-1.564,0.96-3.205,0.956-4.898
		c-0.013-6.054,0.011-12.109-0.081-18.162c-0.027-1.757-0.055-3.638-0.662-5.242c-3.484-9.213-3.609-19.261-6.683-28.429
		c-3.378-10.075-2.835-20.352-4.239-30.511c-1.763-12.765-3.004-25.516-2.664-38.4c0.175-6.619,0.601-13.2,2.352-19.649
		c1.029-3.789,0.927-7.759,1.326-11.648c0.25-2.438,0.627-4.796,2.144-6.835c0.382-0.513,0.761-1.144,0.828-1.756
		c0.644-5.856,3.811-11.091,4.111-17.036c0.233-4.605,2.952-8.645,3.142-13.281c0.361-8.837,0.953-17.671,1.071-26.512
		c0.267-19.928,1.995-39.788,2.283-59.729c0.25-17.294,2.02-34.58,4.41-51.751c0.795-5.715,2.201-11.501,4.215-16.709
		c3.416-8.831,7.843-17.512,16.252-23.107c2.582-1.718,5.293-2.125,8.248-1.304c2.775,0.771,4.502-0.108,4.647-2.975
		c0.424-8.361,2.736-16.682,1.692-25.008c-0.782-6.238-0.883-11.944,0.629-18.233c1.184-4.925,2.57-9.581,4.907-13.926
		c1.57-2.918,4.924-4.157,7.653-5.84c8.09-4.99,16.535-4.41,25.078-1.172c3.054,1.158,6.014,2.212,8.049,5.152
		c1.226,1.771,2.111,3.489,2.23,5.576c0.976,17.101,2.623,34.177,2.482,51.322c-0.116,14.076,0.396,28.127,1.023,42.176
		c0.519,11.623,2.189,23.234,1.539,34.86c-0.586,10.469,2.799,20.409,3.073,30.724c0.05,1.865,0.972,3.796,1.833,5.527
		c1.192,2.396,2.764,2.233,4.35,0.083c2.646-3.587,3.728-7.613,4.839-11.891c1.395-5.372,2.744-10.796,4.384-16.12
		c0.383-1.244,0.863-2.49,1.014-3.768c0.626-5.282,1.264-10.543,3.9-15.314c0.262-0.474,0.432-1.077,0.417-1.613
		c-0.208-7.562,2.519-14.591,3.938-21.855c1.264-6.474,2.035-13.307,4.347-19.242c2.85-7.319,3.027-15.035,5.523-22.357
		c1.97-5.779,3.27-12.001,4.966-17.923c1.767-6.168,2.717-12.435,4.306-18.543c1.891-7.267,2.532-14.943,5.78-21.808
		c2.559-5.409,3.592-11.597,8.003-16.087c0.39-0.396,0.664-0.917,1.084-1.271c6.864-5.785,19.018-6.426,26.085-0.92
		c2.447,1.906,4.607,4.375,5.845,7.613c1.233,3.226,3.186,6.25,5.222,9.074c1.791,2.484,4.124,2.379,7.045-0.008
		c1.714-1.401,3.528-2.147,5.707-2.63c7.221-1.601,10.964,1.604,14.505,8.311c4.754,9.005,5.393,18.749,4.768,28.579
		c-0.381,5.988-0.168,11.908,0.311,17.843c0.302,3.746,0.184,7.453-0.455,11.135c-1.28,7.376-1.681,14.8-1.463,22.271
		c0.467,16.029-0.45,32.039-0.844,48.052c-0.145,5.917-1.516,11.804-1.906,17.759c-0.504,7.711-0.548,15.511-1.831,23.097
		c-1.905,11.266-2.102,22.6-2.825,33.927c-0.236,3.703-0.935,7.391-2.218,10.922c-1.433,3.943-1.282,8.101-1.331,12.166
		c-0.169,14.158-0.109,28.32-0.113,42.48c-0.001,2.547,0.43,5.051,1.709,7.273c1.725,2.998,2.324,6.224,2.569,9.616
		c0.485,6.738,3.313,12.919,4.818,19.42c0.291,1.259,1.171,2.422,1.284,3.675c0.799,8.891,6.293,14.833,12.727,20.035
		c3.228,2.61,6.966,4.591,10.473,6.856c0.671,0.433,1.431,0.601,2.129,0.237c2.472-1.29,5.181-1.4,7.855-1.755
		c0.899-0.119,1.989-0.338,2.585-0.924c2-1.971,4.544-2.874,7.011-3.93c4.958-2.123,8.82-5.803,13.047-8.98
		c6.683-5.023,13.547-9.809,20.153-14.93c4.255-3.298,8.949-5.92,13.435-8.808c3.429-2.207,6.738-4.823,10.693-6.306
		c1.859-0.697,3.56-2.021,5.094-3.339c5.469-4.697,12.185-7.415,18.005-11.492c4.815-3.373,9.844-5.341,15.616-4.577
		c3.474,0.46,6.885,1.598,10.24,2.688c2.593,0.842,4.36,0.221,5.556-2.156c0.627-1.244,1.634-2.493,1.711-3.785
		c0.393-6.573,3.558-12.304,5.319-18.452c2.65-9.252,2.381-18.677,0.961-27.989c-1.893-12.419-4.427-24.74-6.715-37.098
		c-0.917-4.956-1.348-9.934-0.955-14.97c0.13-1.662,0.602-3.137,2.242-3.9c1.447-0.673,2.42,0.229,3.487,1.051
		c1.902,1.465,3.7,0.909,3.632-1.481c-0.212-7.449,4.016-13.815,4.634-21.149c0.395-4.681,2.857-9.291,4.778-13.844
		c2.61-6.183,6.285-12.144,6.756-19.058c0.274-4.028-0.866-7.987-2.629-11.589c-0.886-1.811-2.138-3.454-2.764-5.43
		c-0.256-0.808-0.756-1.58-1.741-1.58c-0.954,0.001-1.458,0.74-1.857,1.495c-0.582,1.099-0.702,2.283-0.674,3.522
		c0.131,5.761,0.282,11.522,0.301,17.284c0.015,4.491-0.898,5.392-5.354,5.612c-2.045,0.101-4.104-0.028-6.145,0.114
		c-3.888,0.271-4.807,1.506-4.376,5.372c0.754,6.771,1.091,13.549,0.261,20.347c-0.692,5.665-1.641,6.638-7.204,7.291
		c-4.421,0.519-8.695,1.767-13.24,1.835c-7.062,0.106-11.038-4.708-14.371-10.101c-3.607-5.836-5.317-12.532-9.276-18.237
		c-2.287-3.295-4.13-7.111-5.224-11.269c-1.378-5.242-3.262-10.41-5.639-15.336c-0.737-1.527-1.383-3.053-1.484-4.762
		c-0.393-6.607-1.677-13.074-2.698-19.596c-1.468-9.373-2.823-18.764-4.54-28.101c-0.441-2.398-0.709-4.787-2.288-6.784
		c-0.341-0.431-0.735-0.969-0.762-1.476c-0.359-6.857-4.383-12.81-4.758-19.686c-0.168-3.087,0.775-5.381,3.095-7.351
		c1.912-1.622,3.727-1.763,5.411,0.039c2.594,2.774,5.21,5.483,6.923,9.031c1.705,3.53,4.548,6.347,7.514,8.919
		c1.611,1.397,3.153,0.805,3.719-1.269c0.364-1.334,0.014-2.621-0.519-3.81c-3.369-7.509-4.392-15.757-7.409-23.38
		c-0.684-1.729-1.072-3.548-2.359-5.002c-0.479-0.541-0.941-1.264-1.035-1.955c-1.067-7.843-4.229-15.448-2.393-23.626
		c1.185-5.278,1.405-10.695,1.766-16.092c0.377-5.64,0.341-11.402,3.044-16.638c0.168-0.325,0.283-0.705,0.314-1.069
		c0.815-9.479,3.289-18.691,4.477-28.12c0.928-7.36,2.995-14.486,5.668-21.467c2.221-5.799,4.526-11.648,5.117-17.941
		c0.17-1.814,0.682-3.459,1.93-4.836c0.309-0.341,0.735-0.744,0.766-1.145c0.344-4.466,2.62-8.189,4.304-12.189
		c1.733-4.116,3.351-8.248,5.694-12.063c0.291-0.475,0.638-0.953,0.777-1.478c1.773-6.724,5.446-12.602,8.899-18.456
		c3.137-5.319,6.864-10.441,11.578-14.603c1.932-1.706,2.807-4.182,4.753-5.811c7.09-5.938,13.246-12.905,21.262-17.859
		c4.704-2.907,9.245-6.246,14.133-8.759c6.467-3.325,12.807-7.002,19.839-9.232c20.096-6.374,40.805-9.726,61.603-12.55
		c5.871-0.797,12.003,0.121,17.79-1.362c8.344-2.138,16.561-1.532,24.906-0.302c6.446,0.95,12.972,1.238,19.488,1.56
		c4.855,0.239,9.641,1.275,14.179,2.933c4.445,1.624,8.946,3.106,13.285,5.099c3.747,1.722,7.889,2.448,11.462,4.83
		c5.69,3.792,11.93,6.814,16.702,11.857c2.155,2.277,5.036,3.42,7.42,5.38c6.359,5.229,12.187,11.1,19.265,15.5
		c3.59,2.232,6.3,5.856,9.84,8.199c8.243,5.455,13.031,13.966,18.984,21.335c3.467,4.292,6.597,9.15,9.416,14.053
		c0.323,0.562,0.689,1.116,1.119,1.598c6.829,7.659,12.471,16.109,17.168,25.231c4.156,8.069,8.507,16.039,12.771,24.053
		c0.131,0.247,0.317,0.486,0.368,0.75c1.987,10.368,8.077,19.343,9.996,29.765c1.153,6.263,1.297,12.587,1.989,18.87
		c0.978,8.882,2.209,17.723,2.236,26.688c0.007,2.333,0.181,4.698-0.233,6.964c-1.8,9.845-2.17,19.801-2.39,29.756
		c-0.14,6.351-2.675,11.922-4.988,17.588c-1.544,3.783-3.296,7.481-4.97,11.21c-0.819,1.825-1.044,3.763-1.107,5.726
		c-0.191,5.961-0.431,11.92,0.942,17.807c0.475,2.037,0.164,4.08-0.471,6.065c-0.675,2.113-2.037,3.268-4.34,3.175
		c-2.305-0.093-2.776-1.751-3.23-3.56c-1.263-5.031-0.786-10.13-0.969-15.228c-0.406-11.341,0.199-22.719-1.428-34.033
		c-1.328-9.232-0.904-18.591-1.095-27.899c-0.091-4.456,0.2-8.88-3.057-12.696c-2.935-3.437-5.354-4.649-9.713-3.092
		c-3.202,1.144-6.447,1.77-9.775,2.19c-0.46,0.058-1.011,0.058-1.35,0.312c-3.989,2.979-9.004,3.306-13.386,5.244
		c-1.294,0.572-2.603,0.987-3.979,1.256c-1.096,0.215-2.35,0.201-3.247,0.755c-7.16,4.421-15.742,3.213-23.361,6.031
		c-5.235,1.936-11.083,1.049-16.657,1.249c-14.342,0.514-28.725,0.696-42.94-1.43c-6.131-0.917-12.369-1.813-18.341-3.294
		c-6.282-1.558-12.631-3.026-18.856-4.869c-2.335-0.691-4.658-1.296-7.065-1.6c-2.062-0.26-4.007-0.829-5.745-2.015
		c-1.928-1.316-4.138-1.591-6.392-1.716c-3-0.166-5.943-0.516-8.476-2.391c-0.508-0.376-1.171-0.688-1.789-0.747
		c-5.776-0.548-11.169-2.801-16.85-3.736c-2.967-0.488-5.789-1.155-8.43-2.78c-3.053-1.879-6.702-1.322-10.096-1.736
		c-2.593-0.316-5.19-0.484-7.651-1.456c-3.335-1.317-5.717,0.286-7.898,2.566c-1.806,1.888-0.776,3.845-0.137,5.744
		c1.085,3.221,1.521,6.554,1.533,9.903c0.023,6.3,1.191,12.356,3.156,18.314c1.471,4.459,4.461,7.334,8.308,9.979
		c4.632,3.184,9.983,4.422,14.795,6.858c7.825,3.962,16.323,5.911,24.387,9.082c4.82,1.895,9.197,5.132,14.629,5.714
		c2.217,0.237,3.986,2.253,6.118,3.235c9.153,4.214,18.871,7.331,26.821,13.924c1.872,1.552,2.908,3.14,3.164,5.556
		c0.924,8.727-2.523,16.157-6.688,23.395c-0.457,0.795-1.119,1.625-2.196,1.468c-1.139-0.166-1.752-1.085-2.011-2.103
		c-0.224-0.882-0.293-1.838-0.242-2.751c0.34-6.028-1.679-8.956-7.565-10.788c-1.018-0.317-1.841-0.872-2.553-1.633
		c-0.846-0.902-1.817-1.602-3.051-1.864c-2.277-0.483-4.557-0.939-6.367-2.593c-0.251-0.229-0.682-0.318-1.043-0.36
		c-1.167-0.136-2.889-0.706-3.161,0.74c-0.332,1.763,1.517,1.358,2.612,1.463c1.096,0.105,2.35-0.164,2.807,1.244
		c0.424,1.306-0.147,2.411-1.041,3.287c-1.236,1.21-2.794,2.259-4.504,1.647c-3.046-1.09-6.201-1.153-9.325-1.596
		c-4.73-0.67-5.82-1.935-6.179-6.699c-0.118-1.571,0.069-3.353-1.881-3.955c-1.902-0.587-3.601-0.17-5.138,1.264
		c-2.652,2.475-5.345,4.947-9.022,5.878c-0.178,0.045-0.382,0.108-0.504,0.231c-3.537,3.589-6.905,3.598-10.648,0.052
		c-1.529-1.449-4.03-1.43-5.649,0.264c-4.116,4.307-9.573,5.454-14.983,5.997c-5.931,0.596-11.307,2.989-17.02,4.236
		c-3.426,0.747-6.367,3.288-9.633,4.851c-3.487,1.669-7.025,3.288-10.372,5.318c-3.986,2.418-4.966,5.187-2.083,8.726
		c4.777,5.862,9.229,11.81,11.345,19.312c0.746,2.644,3.106,4.792,4.265,7.451c1.846,4.235,3.833,8.434,6.561,12.157
		c2.518,3.438,5.209,6.823,8.263,9.777c4.35,4.208,8.36,8.665,11.73,13.663c1.653,2.452,2.971,5.144,4.289,7.803
		c3.515,7.093,4.734,14.767,5.919,22.512c0.862,5.637,1.043,11.28,1.431,16.93c0.051,0.741,0.105,1.503,0.315,2.208
		c0.259,0.867,0.466,2.022,1.584,2.056c1.094,0.033,1.057-1.144,1.286-1.889c1.442-4.672,3.722-8.831,6.7-12.752
		c1.744-2.297,2.465-5.283,4.554-7.547c6.184-6.704,11.065-14.385,15.994-22.022c0.997-1.545,2.609-2.4,4.431-2.66
		c2.888-0.413,4.917,1.76,3.804,4.443c-1.569,3.783-1.839,8.018-4.159,11.522c-0.737,1.113-0.828,2.446-0.994,3.747
		c-0.298,2.339-0.866,4.571-2.661,6.303c-0.751,0.725-1.225,1.689-1.352,2.715c-0.621,5.026-1.929,9.935,0.081,15.105
		c1.913,4.92,0.514,6.96-4.787,7.518c-4.307,0.454-6.698,3.234-8.585,6.385c-2.382,3.978,0.853,9.188,6.06,9.663
		c6.773,0.618,12.96,2.824,19.073,5.602c3.4,1.545,7.157,2.21,10.882,2.338c21.593,0.742,43.068,3.38,64.703,3.694
		c9.256,0.134,18.602,0.871,27.785,2.533c1.388,0.251,3.764-0.112,3.511,2.179c-0.253,2.292-2.483,1.82-4.096,1.704
		c-23.163-1.678-46.353-1.227-69.541-0.902c-3.357,0.047-6.654,0.634-9.899,1.603c-4.468,1.334-8.989,2.381-13.74,2.063
		c-1.708-0.114-3.997-0.219-4.558,1.782c-0.526,1.877,1.177,3.514,2.742,4.117c4.218,1.626,7.427,5,12.113,6.002
		c4.11,0.879,8.037,2.642,12.266,3.526c10.388,2.173,20.9,2.207,31.401,2.647c4.1,0.172,8.176,0.338,12.034,2.059
		c2.43,1.084,4.524,2.277,4.494,5.353c-0.03,3.092-1.97,4.805-4.553,5.716c-6.247,2.204-12.688,4.039-19.263,4.483
		c-21.087,1.426-42.197,2.559-63.349,2.482c-1.915-0.007-3.414-0.551-4.683-1.987c-3.81-4.313-7.488-8.764-11.557-12.822
		c-3.395-3.386-3.855-7.511-3.947-11.803c-0.065-3.061,0.356-6.13,0.41-9.199c0.026-1.492,0.483-3.984-1.34-4.005
		c-2.142-0.024-1.238,2.484-1.288,3.889c-0.147,4.102-0.779,8.091-1.531,12.135c-1.377,7.402-2.072,14.96-1.766,22.496
		c0.158,3.907,2.174,7.543,4.069,10.886c3.288,5.805,7.404,11.112,11.766,16.172c3.91,4.536,7.905,9.031,13.652,11.418
		c1.832,0.761,3.706,1.344,5.676,1.317c6.266-0.087,12.358,0.599,18.458,2.317c12.147,3.42,24.697,4.438,37.231,5.576
		c7.495,0.68,14.915,2.2,22.366,3.36c1.889,0.294,3.447,1.048,3.532,3.268c0.082,2.132-1.435,2.876-3.154,3.3
		c-1.919,0.473-3.737,1.124-5.341,2.32c-1.237,0.922-2.728,1.316-4.202,1.375c-5.305,0.211-9.374,2.939-13.611,5.801
		c-3.621,2.446-6.286,5.726-9.422,8.583c-0.77,0.701-1.428,1.487-1.606,2.554c-0.23,1.382-0.618,2.906,0.839,3.81
		c1.263,0.784,2.166-0.358,3.239-0.89c3.891-1.93,7.972-3.448,11.81-5.522c3.901-2.108,8.358-3.06,12.046-5.654
		c0.451-0.317,0.974-0.625,1.503-0.723c6.776-1.25,12.57-4.935,18.703-7.714c2.945-1.334,5.588-3.477,8.365-5.234
		c2.263-1.432,4.849-2.344,6.887-4.165c5.382-4.807,8.766-10.388,9.462-17.913c0.664-7.176,3.6-14.054,3.78-21.387
		c0.004-0.179,0.097-0.358,0.163-0.532c0.709-1.87,1.948-3.382,3.98-3.455c2.02-0.072,2.268,1.932,2.777,3.372
		c0.531,1.502,1.128,2.928,2.053,4.248c0.572,0.816,1.229,1.874,1.172,2.781c-0.308,4.886,1.819,9.135,3.666,13.325
		c2.301,5.219,5.155,10.303,9.205,14.384c3.17,3.194,7.804,3.458,11.992,3.926c8.459,0.944,16.707,2.518,24.546,5.919
		c0.085,0.037,0.174,0.1,0.26,0.099c6.323-0.109,11.671,3.231,17.432,5.053c4.564,1.443,9.157,2.964,13.422,5.244
		c0.246,0.132,0.478,0.385,0.727,0.4c5.423,0.329,9.739,3.788,14.789,5.243c3.525,1.016,6.842,2.843,10.149,4.51
		c6.707,3.382,13.263,7.138,21.239,6.172c1.416-0.172,2.752-0.374,3.93-1.235c6.024-4.404,8.844-4.013,13.432,2.047
		c4.121,5.443,8.483,10.543,14.644,13.887c1.756,0.953,4.01,2.576,3.299,4.991c-0.702,2.382-3.35,1.914-5.323,2.063
		c-2.778,0.211-5.349-0.437-7.572-2.263c-0.705-0.579-1.551-1.235-2.401-1.35c-5.414-0.731-9.791-3.926-14.62-6.025
		c-3.806-1.654-7.962-1.864-11.839-3.216c-4.197-1.464-8.742-1.901-12.599-4.397c-0.748-0.484-1.753-0.611-2.659-0.806
		c-6.185-1.328-12.093-3.375-17.537-6.653c-0.238-0.143-0.484-0.321-0.747-0.369c-8.008-1.486-14.988-5.809-22.571-8.49
		c-3.982-1.408-8.077-2.805-12.064-4.352c-6.862-2.662-13.764-5.091-21.116-6c-1.394-0.172-2.722-0.566-3.93-1.346
		c-3.182-2.052-6.766-2.56-10.443-2.507c-2.867,0.042-4.024,1.238-4.119,4.122c-0.098,2.979-0.298,5.929-0.744,8.894
		c-1.215,8.085-5.482,14.657-10.071,21.083c-5.783,8.097-13.705,14.08-20.747,20.941c-4.132,4.026-8.384,7.863-12.785,11.595
		c-5.388,4.568-10.673,9.132-16.879,12.644c-5.071,2.87-9.546,6.813-14.669,9.565c-6.875,3.693-12.672,9.052-19.751,12.332
		c-2.706,1.254-5.704,1.831-8.703,1.75c-5.601-0.151-11.164-0.607-16.33-3.15c-1.506-0.742-3.169-1.132-4.857-1.21
		c-2.936-0.135-5.764-0.476-7.899-2.848c-0.29-0.322-0.794-0.581-1.225-0.628c-5.972-0.65-11.168-4.147-17.207-4.604
		c-3.946-0.298-7.404-2.405-11.203-3.379c-5.391-1.383-10.624-3.389-15.91-5.173c-6.17-2.083-12.339-4.16-18.85-4.925
		c-3.38-0.397-4.619,0.597-5.195,3.864c-0.593,3.363-0.514,6.64,0.479,9.94c0.597,1.983,1.643,3.3,3.686,3.74
		c2.022,0.436,3.903,1.216,5.705,2.225c2.247,1.258,4.701,1.818,7.254,1.761c4.154-0.092,8.053,0.653,11.956,2.242
		c3.84,1.563,7.959,2.329,11.836,4.022c7.741,3.38,14.654,7.735,20.714,13.684c7.365,7.23,12.914,15.793,18.736,24.171
		c1.446,2.081,1.797,4.664,2.308,7.114c0.225,1.079-0.247,2.019-1.305,2.542c-1.251,0.619-2.588,0.816-3.701-0.109
		c-4.65-3.865-10.551-5.891-14.975-10.018c-5.669-5.287-12.742-8.646-18.478-13.827c-2.078-1.877-5.024-2.248-7.33-3.91
		c-5.206-3.752-11.592-4.856-17.44-7.159c-4.395-1.731-9.23-1.075-13.857-1.197c-13.614-0.357-27.23-1.315-40.541-3.858
		c-6.224-1.189-13.033-1.764-18.677-5.727c-2.378-1.67-5.557-1.806-8.314-3.027c-6.809-3.015-12.401-7.777-18.541-11.744
		c-1.984-1.282-2.59-3.061-2.074-5.307c0.517-2.248,2.222-2.792,4.199-2.961c3.407-0.291,6.717,0.167,9.84,1.546
		c6.92,3.057,14.111,5.037,21.534,6.565c6.284,1.293,12.424,3.223,18.914,3.326c2.148,0.034,5.231,0.413,5.579-1.833
		c0.384-2.482-2.826-2.547-4.786-3.18c-2.036-0.658-4.091-1.269-6.094-2.018c-10.949-4.094-22.465-5.902-33.767-8.6
		c-6.19-1.478-12.401-2.367-18.681-3.048c-1.333-0.145-2.487-0.691-3.615-1.385c-3.535-2.175-6.753-1.205-10.527,0.094
		c-7.536,2.596-10.962,9.074-15.728,14.405c-3.5,3.914-6.23,8.585-10.64,11.621c-3.182,2.19-6.324,4.669-10.627,4.183
		c-1.479-0.167-2.988-0.029-4.417,0.476c-0.882,0.311-1.816,0.659-1.954,1.762c-0.123,0.983,0.686,1.43,1.295,2.003
		c3.553,3.346,8.213,4.709,12.49,6.613c4.065,1.81,7.829,4.169,11.968,5.864c4.635,1.899,9.135,4.078,13.998,5.418
		c4.757,1.31,9.11,3.687,13.647,5.574c4.884,2.031,9.505,4.735,14.863,5.479c0.457,0.063,1.011,0.106,1.332,0.378
		c5.257,4.475,12.344,5.196,18.017,8.81c1.184,0.755,2.511,1.199,3.89,1.507c1.932,0.432,3.741,1.127,5.154,2.617
		c0.723,0.763,1.655,1.298,2.678,1.416c3.996,0.464,6.736,3.4,10.136,4.991c7.682,3.595,12.294,10.967,19.275,15.259
		c5.726,3.52,10.65,8.313,16.507,11.331c9.639,4.966,17.855,11.901,26.951,17.561c4.41,2.745,8.941,5.302,13.264,8.196
		c9.239,6.186,18.806,11.951,26.344,20.334c4.774,5.31,9.002,10.954,10.069,18.293c0.482,3.316-0.576,6.302-2.762,8.744
		c-2.958,3.304-6.572,4.052-10.855,2.607c-5.503-1.857-10.305-4.889-15.188-7.921c-3.595-2.232-6.5-5.169-9.748-7.746
		c-4.918-3.901-10.821-5.815-17.013-4.1c-7.454,2.064-11.358,8.772-9.425,16.504c0.984,3.935,2.341,7.824,4.898,11.19
		c1.843,2.426,1.235,4.204-1.435,5.684c-2.091,1.159-4.335,1.673-6.709,1.64c-15.377-0.213-30.718,0.921-46.081,1.296
		c-23.739,0.579-47.475,0.992-71.222,1.006c-20.769,0.012-41.486-1.27-62.22-2.152c-6.396-0.272-9.935-3.344-11.385-9.502
		c-0.859-3.645-3.387-6.35-5.223-9.412c-3.548-5.915-7.629-11.501-10.638-17.754c-1.283-2.666-2.029-5.367-2.037-8.32
		c-0.005-1.86-0.222-3.719-0.32-5.579c-0.138-2.604-1.45-4.148-4.053-4.531c-1.566-0.23-3.142-0.651-4.702-0.608
		c-5.504,0.154-9.291-2.944-12.63-6.674c-1.83-2.043-3.847-4.081-4.493-6.966c-0.229-1.022-0.872-2.02-1.834-2.363
		c-3.085-1.101-5.336-3.752-8.643-4.449c-1.886-0.397-2.974-1.802-3.5-3.641c-0.632-2.21-2.072-3.251-4.391-3.653
		c-5.735-0.992-10.109-4.469-14.104-8.43c-3.361-3.332-5.861-7.381-9.081-10.887c-5.261-5.729-6.22-12.918-4.335-20.402
		c0.615-2.441,3.203-4.096,5.745-4.032c2.429,0.061,3.881,1.143,3.854,3.74c-0.007,0.652,0.059,1.317-0.045,1.954
		c-0.808,4.964,1.594,8.725,4.847,11.919c5.356,5.258,10.775,10.466,16.621,15.198c1.676,1.356,3.39,2.682,5.447,3.344
		c3.653,1.176,6.405,3.669,8.435,6.625c2.334,3.399,5.18,6.318,7.828,9.395c3.193,3.711,7.422,6.085,12.381,6.826
		c3.221,0.481,6.492,0.544,9.695,1.24c2.192,0.477,3.628,1.625,4.545,3.685c1.595,3.581,2.943,7.14,3.203,11.168
		c0.249,3.856,2.881,5.791,5.45,4.326c2.042-1.164,4.301-2.496,5.232-4.852c2.219-5.62,8.075-4.685,10.336-0.393
		c2.273,4.316,5.789,6.159,10.174,7.486c3.565,1.079,7.018,2.377,10.788,2.627c1.578,0.105,3.053,0.827,4.301,1.87
		c0.878,0.734,1.874,1.217,2.983,1.459c5.958,1.301,9.681,5.391,13.131,10.061c2.127,2.88,3.822,5.975,5.24,9.164
		c2.219,4.991,6.332,6.05,11.085,6.519c10.488,1.035,21.04,0.571,31.53,1.484c1.855,0.162,3.717,0.258,5.572,0.421
		c1.619,0.143,2.986-0.17,3.665-1.848c0.69-1.707-0.297-2.654-1.424-3.813c-4.459-4.587-10.503-6.6-15.803-9.771
		c-6.522-3.903-12.046-9.048-18.252-13.305c-5.293-3.63-9.406-8.37-13.231-13.425c-2.028-2.68-3.056-5.766-3.398-9.022
		c-0.305-2.899,1.387-4.784,4.158-4.839c3.811-0.076,7.625,0.083,11.438,0.06c7.001-0.042,13.257,2.297,19.274,5.664
		c2.794,1.563,6.114,1.508,9.189,2.21c0.847,0.194,1.706-0.112,2.054-1.056c0.352-0.957,0.198-1.95-0.571-2.576
		c-5.719-4.661-9.762-10.93-15.263-15.807c-2.92-2.589-5.377-5.751-8.482-8.067c-6.118-4.564-11.035-10.46-17.247-14.932
		c-2.64-1.901-4.453-4.934-6.702-7.396c-7.071-7.741-14.211-15.416-22.515-21.89c-0.366-0.285-0.726-0.74-1.13-0.791
		c-4.883-0.622-8.676-4.073-13.35-5.142c-3.215-0.735-5.743-2.669-8.368-4.373c-7.4-4.802-15.144-9.107-22.341-14.152
		c-8.039-5.635-16.803-7.958-26.287-8.662c-2.733-0.203-5.386,0.341-8.056,0.699c-9.612,1.289-19.263,2.186-28.959,2.07
		c-4.708-0.056-9.542-0.129-13.668-3.11c-3.535-2.554-3.891-4.935-0.47-7.554c4.837-3.702,9.046-8.333,14.656-10.911
		c8.343-3.833,16.162-8.776,25.02-11.537c4.521-1.409,9.273-2.509,13.475-4.386c5.151-2.301,10.418-4.833,14.997-8.36
		c5.512-4.245,11.186-8.276,16.443-12.856c1.28-1.115,2.299-2.424,3.465-3.611c6.692-6.811,14.308-12.611,20.975-19.472
		c3.717-3.825,8.584-6.448,12.252-10.459c5.954-6.509,12.96-12.04,17.953-19.457c0.859-1.276,2.285-2.165,3.423-3.26
		c6.157-5.92,12.084-12.085,19.207-16.929c1.575-1.071,2.668-2.829,4.078-4.169c4.633-4.403,9.367-8.702,13.945-13.16
		c2.161-2.104,2.985-5.118,4.522-7.659c0.901-1.489,0.407-3.186-0.448-4.784c-1.842-3.441-4.408-5.822-7.855-7.877
		c-4.691-2.796-9.328-3.011-13.87-1.038c-4.152,1.804-8.774,3.118-11.754,7.066c-3.071,4.068-7.748,6.344-11.308,9.873
		c-6.564,6.505-14.067,11.818-21.898,16.593c-5.345,3.259-10.643,6.669-16.591,8.943c-3.428,1.311-6.689,3.309-9.417,5.857
		c-2.035,1.901-4.675,2.633-6.894,4.187c-4.548,3.186-8.404,7.28-13.542,9.722c-3.88,1.845-7.999,3.006-11.888,4.786
		c-1.253,0.573-2.821,0.632-4.112,0.024c-5.342-2.513-11.195-4.143-15.266-8.892c-1.076-1.255-2.415-2.327-3.769-3.291
		c-5.599-3.987-9.037-9.796-12.962-15.196c-0.379-0.522-0.839-1.108-0.914-1.707c-0.42-3.368-2.282-6.344-2.816-9.595
		c-1.43-8.702-4.119-17.187-4.23-26.126C256.209,518.833,255.101,506.28,255.788,490.701z"/>
	<path d="M568.749,394.101c0.607-7.257,0.904-14.508,2.111-21.69c1.076-6.399,3.38-11.895,9.294-15.443
		c3.8-2.279,4.567-6.657,5.98-10.414c1.583-4.208,4.383-7.272,7.84-9.869c1.75-1.315,2.891-0.284,3.814,1.27
		c2.567,4.318,3.175,9.117,3.245,13.979c0.097,6.806-0.629,13.474-2.338,20.158c-2.078,8.128-2.515,16.511-1.358,24.941
		c0.463,3.372,3.234,4.67,5.123,6.668c6.119,6.474,13.39,11.573,21.728,14.604c5.73,2.083,11.822,2.42,17.33-1.657
		c2.38-1.762,5.607-1.877,8.156-3.538c1.009-0.658,1.679,0.357,1.735,1.446c0.084,1.625-0.628,3.025-1.904,3.85
		c-5.181,3.348-10.074,6.976-16.391,8.518c-5.794,1.415-11.235,4.332-16.766,6.739c-1.616,0.704-2.811,2.129-3.756,3.663
		c-1.509,2.449-3.858,4.025-6.088,5.673c-1.659,1.226-3.731,1.365-5.615,0.562c-4.122-1.757-8.761-2.332-12.183-5.752
		c-1.323-1.322-2.402-2.514-2.594-4.39c-0.621-6.052-3.772-10.528-8.642-13.971c-4.442-3.14-7.523-7.16-7.905-12.819
		C569.286,402.453,569.021,398.276,568.749,394.101z"/>
	<path d="M723.976,316.713c-3.88,0.163-8.048-2.427-12.414-4.162c-4.411-1.754-8.911-1.511-13.433-1.678
		c-0.275-0.01-0.554,0.067-0.831,0.101c-6.101,0.741-11.496-0.076-15.602-5.49c-2.426-3.199-5.203-3.296-8.196-0.711
		c-5.691,4.917-12.236,6.264-19.476,5.336c-2.688-0.344-7.258-4.297-7.84-6.867c-0.431-1.904,2.28-6.936,4.251-7.997
		c3.677-1.978,7.32-4.021,11.005-5.987c3.835-2.046,7.535-4.161,11.956-5.153c4.076-0.915,7.827-3.283,11.713-5.03
		c0.842-0.378,1.646-1.207,2.467-1.206c7.561,0.009,14.136-4.074,21.659-4.832c8.04-0.811,15.095-4.973,19.575-12.386
		c1.144-1.894,2.909-3.346,4.141-5.235c1.026-1.573,2.738-1.562,4.206-0.564c1.422,0.966,1.624,2.366,0.835,3.942
		c-2.909,5.807-5.39,11.95-9.938,16.675c-3.365,3.496-5.94,7.845-10.65,10.064c-2.034,0.959-3.663,2.833-5.375,4.402
		c-1.1,1.009-1.519,2.401-0.957,3.836c0.565,1.442,1.931,1.631,3.277,1.629c8.348-0.009,13.374,5.047,17.117,11.634
		C733.916,311.347,730.085,316.873,723.976,316.713z"/>
	<path d="M802.986,764.488c0-1.394-0.179-2.817,0.04-4.176c0.376-2.339,3.031-3.232,4.619-1.476
		c4.413,4.881,8.593,9.935,12.045,15.597c2.549,4.18,5.463,8.163,8.491,12.015c1.801,2.291,2.938,4.934,4.608,7.291
		c2.277,3.216,5.199,6.015,6.454,9.966c0.838,2.637,0.48,3.576-2.268,3.411c-4.104-0.247-7.67-2.18-11.165-4.08
		c-3.374-1.834-4.516-1.693-6.698,1.331c-2.228,3.088-4.555,6.107-6.914,9.096c-1.43,1.812-2.909,1.582-4.054-0.673
		c-1.704-3.357-2.666-6.943-2.849-10.719c-0.366-7.529-0.636-15.064-1.118-22.586c-0.321-5.005-0.941-9.991-1.428-14.985
		C802.827,764.496,802.906,764.492,802.986,764.488z"/>
	<path d="M848.462,795.917c0.612-4.961-1.642-7.846-5.211-10.105c-4.545-2.878-9.782-4.266-14.456-6.881
		c-1.853-1.036-2.601-2.33-2.246-4.271c0.376-2.057,2.036-2.314,3.671-2.054c10.883,1.732,19.687,6.434,23.865,17.348
		c1.314,3.433,1.435,6.925-1.182,9.954c-0.714,0.827-1.583,1.77-2.843,1.326c-1.202-0.424-1.456-1.633-1.575-2.745
		C848.377,797.479,848.462,796.45,848.462,795.917z"/>
	<path d="M796.664,812.004c-0.9,0-1.665-0.15-2.212-0.676c-3.079-2.961-6.981-4.942-9.775-8.235c-0.359-0.423-0.846-0.83-0.99-1.327
		c-1.61-5.561-2.232-11.229,0.598-16.493c1.688-3.14,3.959-6.11,7.491-7.633c1.11-0.479,2.332-1.192,3.348-0.106
		c1.031,1.103,0.61,2.468-0.063,3.63c-0.507,0.876-1.102,1.765-1.856,2.422c-2.684,2.337-3.764,5.48-4.518,8.763
		c-0.993,4.323,0.698,7.855,3.69,10.809c1.78,1.757,3.818,3.25,5.703,4.903c0.773,0.678,1.561,1.476,1.037,2.638
		C798.633,811.768,797.584,811.943,796.664,812.004z"/>
	<path d="M823.773,820.205c-2.153,0.144-3.202-0.407-3.442-2.002c-0.229-1.522,0.684-2.216,1.993-2.533
		c3.615-0.876,7.252-1.645,10.985-1.762c1.796-0.056,3.575,0.31,3.629,2.507c0.053,2.146-1.746,2.382-3.386,2.393
		C830.008,818.831,826.493,818.991,823.773,820.205z"/>
</g>
</svg>
