<?xml version="1.0" encoding="utf-8"?>
<!-- Generator: Adobe Illustrator 23.0.6, SVG Export Plug-In . SVG Version: 6.00 Build 0)  -->
<svg version="1.1" id="Слой_1" xmlns="http://www.w3.org/2000/svg" xmlns:xlink="http://www.w3.org/1999/xlink" x="0px" y="0px"
	 viewBox="0 0 864 864" enable-background="new 0 0 864 864" xml:space="preserve">
<g>
	<g id="XMLID_1_">
		<g>
			<path d="M766.165,424.848c2.374,14.281,2.691,28.483,3.223,43.011c-5.382,62.095-16.703,122.364-54.506,174.473
				c-0.961,1.318-1.866,2.675-2.763,4.033c-27.539,41.653-28.547,34.604-19.33,90.761c4.342,26.443,7.772,52.863,5.922,79.711
				c-0.214,3.072,0.976,6.883-3.017,8.526c-4.874,2.008-6.113-2.485-8.145-5.081c-16.861-21.513-26.3-47.107-38.724-71.042
				c-11.273-21.712-11.138-22.268-32.405-8.796c-61.944,39.232-129.398,56.705-202.631,53.601
				c-48.1-2.04-92.905-15.44-135.987-35.977c-16.988-8.097-18.425-7.549-30.285,6.922c-26.221,31.976-51.354,64.929-82.267,92.738
				c-1.453,1.31-2.882,2.644-4.279,4.009c-2.35,2.318-5.287,2.651-8.185,1.913c-4.025-1.016-2.818-4.668-2.906-7.343
				c-0.889-27.817,2.31-55.308,7.161-82.616c4.279-24.046,8.574-48.107,13.654-71.995c3.215-15.091,0.691-27.69-9.145-40.05
				c-38.16-47.988-59.309-103.463-65.525-163.891c-5.716-55.498,6.406-108.797,27.507-160.199
				c37.081-90.325,99.708-154.531,191.946-188.619c28.857-10.669,48.846-30.008,60.214-58.785
				c11.63-29.436,24.395-58.38,46.282-82.1C432.477-3.332,440.63-2.491,450.347,9.6c23.157,28.809,39.804,61.111,51.624,95.874
				c6.732,19.783,19.545,31.627,38.954,39.145C669.831,194.575,743.636,289.099,766.165,424.848z M688.661,643.062
				c69.581-106.067,72.256-216.38,17.504-328.425c-25.014-51.18-65.977-90.023-111.798-123.365
				c-16.107-11.717-33.159-21.942-52.759-26.904c-3.66-0.929-8.518-3.739-11.074-0.683c-2.604,3.112,1.437,7.145,2.913,10.542
				c57.388,131.978,102.963,267.878,135.709,408.032c5.025,21.482,9.748,43.027,15.036,66.422
				C686.701,645.539,687.796,644.38,688.661,643.062z M608.943,713.048c12.114-8.177,13.194-13.654,5.692-25.927
				c-3.398-5.557-6.819-11.09-10.249-16.623c-22.815-36.811-45.512-73.685-68.502-110.377c-8.685-13.853-20.68-19.156-33.913-13.916
				c-18.417,7.295-37.756,13.607-53.26,26.253c-56.213,45.861-113.926,90.126-160.858,146.283c-5.811,6.954-6.248,9.836,2.199,14.52
				c43.074,23.919,89.856,31.667,128.985,32.858c47.052,0.857,83.886-4.604,119.57-17.322
				C563.59,739.896,586.985,727.854,608.943,713.048z M483.736,395.087c10.59-5.692,20.878-11.947,33.556-19.251
				c-15.972-3.993-28.904-6.875-42.114-8.613c-13.138-1.731-16.234-4.835-17.846-17.655c-5.398-42.939-10.725-85.895-16.147-128.826
				c-2.429-19.235-5.009-38.438-7.518-57.658c-0.516-0.008-1.024-0.016-1.54-0.024c-0.691,2.786-1.619,5.541-2.032,8.359
				c-8.621,58.92-17.227,117.847-25.713,176.783c-2.191,15.194-3.866,16.853-19.275,19.465c-13.019,2.199-25.943,4.97-38.907,7.494
				c11.9,9.336,24.165,16.441,36.644,23.133c12.4,6.652,13.305,8.439,9.883,22.387c-3.056,12.487-5.922,25.022-8.875,37.533
				c8.986-4.453,16.012-10.09,23.308-15.345c8.407-6.041,16.02-17.822,25.046-17.036c8.796,0.762,16.806,11.138,25.046,17.433
				c8.089,6.168,16.036,12.511,24.046,18.775c0.714-0.54,1.429-1.088,2.143-1.627c-3.31-14.512-6.621-29.023-9.923-43.535
				C470.654,404.287,472.345,401.215,483.736,395.087z M333.309,165.862c-3.318-1.834-5.287-0.103-7.296,0.603
				C178.206,218.312,76.419,386.735,137.45,558.62c8.661,24.379,19.045,47.83,37.279,66.858c1.945,2.024,3.739,5.573,6.78,4.835
				c3.215-0.778,2.604-4.858,3.223-7.494c7.105-30.436,15.012-60.658,23.49-90.737c32.794-116.371,74.892-229.574,116.665-342.889
				C327.768,181.389,330.539,173.546,333.309,165.862z"/>
			<path fill="#D4AB01" d="M706.166,314.638c54.752,112.044,52.077,222.358-17.504,328.425c-0.865,1.318-1.961,2.477-4.469,5.62
				c-5.287-23.395-10.01-44.94-15.036-66.422c-32.746-140.155-78.321-276.054-135.709-408.032c-1.477-3.398-5.517-7.43-2.913-10.542
				c2.556-3.056,7.415-0.246,11.074,0.683c19.6,4.962,36.652,15.186,52.759,26.904C640.189,224.615,681.152,263.458,706.166,314.638
				z"/>
			<path fill="#D4AB01" d="M614.635,687.121c7.502,12.273,6.422,17.751-5.692,25.927c-21.958,14.805-45.353,26.848-70.335,35.747
				c-35.684,12.717-72.518,18.179-119.57,17.322c-39.129-1.191-85.911-8.939-128.985-32.858c-8.447-4.684-8.01-7.565-2.199-14.52
				c46.933-56.157,104.646-100.422,160.858-146.283c15.504-12.646,34.842-18.957,53.26-26.253
				c13.233-5.239,25.229,0.063,33.913,13.916c22.99,36.692,45.686,73.566,68.502,110.377
				C607.816,676.031,611.237,681.564,614.635,687.121z"/>
			<path fill="#D4AB01" d="M517.293,375.836c-12.678,7.303-22.966,13.559-33.556,19.251c-11.392,6.129-13.083,9.201-10.217,21.791
				c3.302,14.512,6.613,29.023,9.923,43.535c-0.714,0.54-1.429,1.088-2.143,1.627c-8.01-6.264-15.956-12.606-24.046-18.775
				c-8.24-6.295-16.25-16.671-25.046-17.433c-9.026-0.786-16.639,10.995-25.046,17.036c-7.296,5.255-14.321,10.892-23.308,15.345
				c2.953-12.511,5.819-25.046,8.875-37.533c3.422-13.948,2.517-15.734-9.883-22.387c-12.479-6.692-24.744-13.797-36.644-23.133
				c12.964-2.524,25.888-5.295,38.907-7.494c15.409-2.612,17.084-4.271,19.275-19.465c8.486-58.936,17.092-117.863,25.713-176.783
				c0.413-2.818,1.342-5.573,2.032-8.359c0.516,0.008,1.024,0.016,1.54,0.024c2.509,19.219,5.089,38.422,7.518,57.658
				c5.422,42.932,10.749,85.887,16.147,128.826c1.612,12.821,4.708,15.925,17.846,17.655
				C488.388,368.961,501.32,371.843,517.293,375.836z"/>
			<path fill="#D4AB01" d="M326.014,166.465c2.008-0.707,3.977-2.437,7.296-0.603c-2.771,7.684-5.541,15.528-8.423,23.331
				c-41.773,113.314-83.87,226.518-116.665,342.889c-8.478,30.079-16.385,60.301-23.49,90.737c-0.619,2.636-0.008,6.716-3.223,7.494
				c-3.04,0.738-4.835-2.81-6.78-4.835c-18.235-19.029-28.618-42.479-37.279-66.858C76.419,386.735,178.206,218.312,326.014,166.465
				z"/>
		</g>
	</g>
</g>
</svg>
