<?xml version="1.0" encoding="utf-8"?>
<!-- Generator: Adobe Illustrator 23.0.6, SVG Export Plug-In . SVG Version: 6.00 Build 0)  -->
<svg version="1.1" id="Слой_1" xmlns="http://www.w3.org/2000/svg" xmlns:xlink="http://www.w3.org/1999/xlink" x="0px" y="0px"
	 viewBox="0 0 864 864" enable-background="new 0 0 864 864" xml:space="preserve">
<g>
	<path d="M200.142,15.575c15.08-0.09,30.11,0.902,45.126,2.131c11.302,0.925,22.581,2.094,33.914,2.688
		c13.549,0.71,27.094,1.552,40.621,2.597c11.094,0.857,22.171,2.013,33.164,3.79c9.883,1.598,19.659,3.73,29.228,6.696
		c1.955,0.606,2.349,0.059,2.308-1.758c-0.178-7.87-0.934-15.703-1.411-23.553c-0.117-1.926-0.118-3.86-0.256-5.785
		c-0.123-1.712,0.52-2.5,2.299-2.365c5.398,0.407,10.812,0.648,16.198,1.173c12.783,1.247,25.528,2.851,38.212,4.856
		c11.647,1.841,23.234,4.053,34.879,5.909c8.93,1.424,17.846,2.946,26.761,4.444c11.25,1.891,22.604,3.173,33.713,5.981
		c8.764,2.215,17.393,4.782,25.945,7.687c14.335,4.869,28.044,11.12,41.511,18.004c14.097,7.206,27.56,15.408,40.53,24.465
		c13.899,9.705,27.12,20.226,38.924,32.423c7.406,7.652,12.926,16.612,17.276,26.303c4.142,9.229,7.064,18.839,9.321,28.697
		c2.254,9.848,3.861,19.787,5.108,29.798c1.715,13.768,3.295,27.555,5.204,41.296c1.366,9.835,3.553,19.531,5.663,29.238
		c1.923,8.847,3.206,17.817,3.342,26.904c0.055,3.71,0.516,7.392,0.443,11.117c-0.254,13.073-1.128,26.08-2.873,39.053
		c-1.286,9.561-2.874,19.068-4.46,28.574c-1.317,7.893-3.146,15.699-4.635,23.565c-1.089,5.751-1.891,11.557-3.011,17.301
		c-1.079,5.531-1.978,11.088-2.885,16.647c-1.387,8.499-2.389,17.049-3.534,25.58c-0.809,6.027-1.69,12.043-2.543,18.064
		c-1.187,8.378-2.033,16.788-2.772,25.22c-0.663,7.556-1.038,15.102-1.045,22.677c-0.011,12.597,1.355,25.063,4.169,37.32
		c2.103,9.166,5.035,18.105,8.413,26.906c4.649,12.113,10.033,23.9,15.3,35.745c3.639,8.185,7.318,16.37,10.489,24.741
		c4.483,11.833,8.392,23.866,10.968,36.301c1.627,7.853,2.967,15.724,3.808,23.709c1.74,16.531,1.267,33.065,0.4,49.595
		c-0.443,8.444-1.213,16.883-2.188,25.284c-1.718,14.804-7.558,27.773-17.766,38.765c-10.114,10.891-22.307,18.661-35.674,24.916
		c-9.485,4.439-19.273,7.984-29.263,10.978c-5.955,1.785-12.049,3.12-18.113,4.539c-7.878,1.844-15.835,3.232-23.798,4.503
		c-8.27,1.319-16.637,2.076-24.983,2.855c-13.31,1.243-26.695,1.075-40.025,1.794c-26.501,1.428-53.005,0.68-79.506,0.865
		c-14.404,0.1-28.834,0.565-43.209-0.457c-11.163-0.794-22.343-1.542-33.467-2.912c-7.586-0.934-15.182-1.793-22.725-3.021
		c-6.365-1.036-12.717-2.142-19.039-3.456c-6.174-1.283-12.304-2.716-18.43-4.193c-6.919-1.668-13.714-3.753-20.494-5.904
		c-9.685-3.073-19.115-6.807-28.421-10.869c-6.791-2.964-13.4-6.305-19.881-9.878c-10.912-6.016-21.352-12.79-31.319-20.272
		c-18.068-13.565-34.356-28.988-48.488-46.65c-8.13-10.161-15.402-20.897-21.5-32.4c-5.32-10.035-9.868-20.425-12.995-31.35
		c-5.245-18.328-7.068-36.961-4.447-55.954c1.6-11.598,4.805-22.735,8.817-33.701c3.971-10.854,8.682-21.397,13.049-32.084
		c4.206-10.293,8.127-20.714,10.244-31.669c2.023-10.472,2.551-20.997,0.777-31.631c-1.338-8.022-3.662-15.692-6.549-23.256
		c-2.793-7.317-5.296-14.745-8.023-22.088c-3.244-8.736-6.604-17.43-9.891-26.15c-2.374-6.298-4.681-12.622-7.068-18.915
		c-3.203-8.442-6.481-16.855-9.674-25.301c-1.963-5.192-3.827-10.421-5.732-15.634c-2.412-6.601-4.903-13.175-7.21-19.812
		c-2.385-6.86-4.665-13.758-6.857-20.682c-2.997-9.465-5.378-19.099-7.324-28.831c-1.803-9.02-3.242-18.102-4.492-27.221
		c-1.543-11.257-2.319-22.582-3.379-33.882c-0.408-4.353-0.309-8.751-0.619-13.115c-1.485-20.904-0.762-41.849-1.196-62.772
		c-0.143-6.895,0.242-13.796-0.02-20.707c-0.365-9.639-1.04-19.253-1.966-28.844c-1.607-16.648-2.326-33.335-1.48-50.026
		c0.419-8.274,1.993-16.515,5.209-24.245c3.739-8.986,10.6-15.016,19.19-19.279c10.562-5.242,21.859-7.703,33.455-9.237
		C178.333,15.973,189.224,15.614,200.142,15.575z M374.725,342.917c0.61,1.477,1.513,2.105,2.388,2.766
		c2.546,1.923,5.097,3.838,7.624,5.786c3.492,2.691,3.482,2.7-0.701,4.431c-0.34,0.141-0.633,0.4-0.976,0.531
		c-1.893,0.724-3.724,1.159-5.766,0.203c-3.689-1.728-7.496-3.2-11.212-4.871c-1.642-0.738-2.415-0.543-2.603,1.429
		c-0.215,2.253-1.211,4.203-2.712,5.964c-2.67,3.131-5.981,5.302-9.696,6.919c-4.492,1.956-8.981,1.974-13.591,0.205
		c-3.765-1.446-6.79-3.884-9.733-6.489c-0.707-0.626-1.437-1.143-2.372-0.997c-2.861,0.447-5.625,1.108-8.13,2.748
		c-4.198,2.748-6.825,6.705-9.12,11.009c-2.337,4.382-4.793,8.701-7.21,13.04c-0.278,0.5-0.457,1.198-1.167,1.211
		c-0.675,0.012-0.774-0.601-0.839-1.116c-0.708-5.628-1.141-11.326,0.68-16.765c2.986-8.922,9.321-15.197,17.17-20.009
		c5.429-3.328,11.637-4.679,17.625-6.604c9.166-2.947,18.474-5.346,27.799-7.7c0.706-0.178,1.596-0.19,1.676-1.151
		c0.073-0.877-0.776-0.933-1.355-1.224c-5.111-2.567-10.507-4.411-15.956-6.061c-3.745-1.135-7.568-2.071-11.41-2.817
		c-8.949-1.736-18.05-1.206-27.09-1.605c-9.096-0.402-17.26-3.339-24.298-9.212c-3.141-2.621-6.099-5.42-8.6-8.673
		c-0.864-1.124-1.536-1.352-2.126,0.267c-0.684,1.877-1.544,3.688-2.266,5.551c-2.732,7.05-5.224,14.184-7.244,21.473
		c-1.366,4.927-2.535,9.91-3.108,14.996c-0.933,8.283-0.801,16.586-0.226,24.891c0.251,3.627,0.315,7.27,0.637,10.89
		c0.882,9.914,1.265,19.848,1.476,29.794c0.139,6.549,0.882,13,2.875,19.294c2.37,7.489,5.706,14.649,7.532,22.321
		c1.205,5.065,2.23,10.15,2.142,15.392c-0.011,0.652,0.14,1.507-0.657,1.717c-0.819,0.216-1.051-0.666-1.402-1.195
		c-1.394-2.105-2.843-4.179-4.123-6.351c-1.991-3.38-4.44-6.581-5.55-10.364c-1.615-5.498-3.761-10.753-6.101-15.963
		c-1.509-3.361-3.65-6.503-3.964-10.326c-0.657-7.997-1.819-15.929-3.097-23.844c-1.247-7.725-4.096-14.615-10.15-19.976
		c-3.508-3.106-6.926-6.379-10.916-8.77c-6.058-3.631-8.581-9.209-9.698-15.687c-1.109-6.433-1.834-12.932-2.973-19.359
		c-0.678-3.827-1.182-7.821-4.533-10.594c-2.274-1.881-5.343-1.405-6.781,1.178c-0.966,1.735-1.351,3.575-1.312,5.561
		c0.313,16.162,3.265,32.016,5.617,47.936c0.496,3.361,1.441,6.655,2.742,9.838c3.447,8.432,9.382,15.043,15.547,21.496
		c3.634,3.804,7.621,7.336,9.741,12.325c3.257,7.665,3.929,15.779,4.075,23.976c0.193,10.848-0.513,21.649-1.444,32.453
		c-0.713,8.278-0.043,16.551,2.863,24.374c3.657,9.844,7.014,19.82,11.486,29.345c3.158,6.727,6.52,13.352,12.34,18.287
		c3,2.545,6.083,2.766,9.171,0.665c1.534-1.044,2.902-2.293,4.029-3.801c2.982-3.992,5.713-8.136,7.858-12.646
		c0.262-0.55,0.558-1.092,1.224-1.182c0.632-0.085,0.915,0.381,1.121,0.885c2.75,6.712,5.541,13.405,7.882,20.28
		c1.884,5.533,3.503,11.169,5.978,16.489c3.79,8.149,8.313,15.88,13.303,23.347c9.852,14.739,19.137,29.869,30.397,43.633
		c5.331,6.517,9.945,13.467,12.615,21.586c1.709,5.196,3.743,10.284,5.354,15.52c1.872,6.085,3.931,12.112,5.785,18.203
		c2.029,6.665,3.945,13.364,5.857,20.064c2.458,8.615,4.908,17.233,7.257,25.878c0.532,1.958,1.492,3.179,3.367,4.056
		c6.328,2.96,12.63,6.159,17.597,11.12c5.075,5.069,11.064,6.838,17.926,6.936c4.562,0.065,9.024-0.666,13.498-1.322
		c7.042-1.032,14.028-2.436,20.912-4.2c6.519-1.67,12.935-3.742,19.346-5.829c10.347-3.37,20.48-7.31,30.735-10.922
		c1.666-0.587,3.262-1.377,4.878-2.101c0.327-0.146,0.719-0.38,0.646-0.811c-0.07-0.411-0.488-0.562-0.851-0.575
		c-1.605-0.058-2.977-0.891-4.467-1.324c-7.433-2.164-14.539-5.096-20.906-9.572c-6.269-4.408-11.937-9.671-19.581-11.964
		c-4.814-1.444-9.388-2.616-14.246-0.408c-3.798,1.726-6.95,4.237-9.642,7.365c-1.597,1.856-3.142,3.757-4.362,5.902
		c-0.267,0.469-0.656,1.139-1.365,0.886c-0.589-0.211-0.414-0.885-0.454-1.379c-0.042-0.517-0.01-1.039-0.012-1.559
		c-0.025-6.61-0.072-13.219-0.059-19.829c0.004-1.721-0.699-2.771-2.324-3.354c-3.592-1.288-7.356-1.692-11.091-2.214
		c-5.2-0.726-10.177-1.862-14.312-5.454c-6.881-5.977-12.407-13.154-18.162-20.135c-0.276-0.335-0.686-0.726-0.255-1.145
		c0.478-0.466,0.954-0.036,1.408,0.192c7.148,3.587,14.335,7.098,21.43,10.787c3.365,1.75,6.741,2.713,10.613,2.658
		c10.704-0.153,21.359-0.837,31.905-2.615c6.553-1.105,13.141-2.171,19.363-4.778c7.892-3.306,13.256-9.155,16.77-16.696
		c3.423-7.344,4.573-15.285,5.171-23.313c0.876-11.762,2.25-23.512,0.009-35.283c-1.08-5.673-4.18-9.453-9.651-11.412
		c-5.275-1.89-10.81-2.213-16.237-2.129c-12.247,0.189-24.485,0.679-36.713-0.381c-8.374-0.726-16.117-3.21-22.799-8.5
		c-0.496-0.393-1.301-0.689-1.002-1.531c0.255-0.718,0.95-0.521,1.542-0.5c8.306,0.29,16.611,0.723,24.919,0.798
		c5.868,0.053,11.71,0.603,17.571,0.605c6.113,0.002,12.101,1.325,18.19,1.582c3.867,0.163,5.168-0.516,6.817-4.011
		c2.18-4.622,2.296-9.499,1.489-14.392c-0.668-4.052-2.971-6.638-7.144-7.876c-3.127-0.928-6.276-1.174-9.423-1.407
		c-6.666-0.494-13.326-0.488-19.88,1.318c-8.225,2.267-16.496,4.193-25.106,4.571c-6.505,0.285-12.964,1.272-19.177,3.487
		c-3.893,1.388-7.868,2.55-11.817,3.779c-0.588,0.183-1.422,0.644-1.778-0.149c-0.312-0.697,0.574-0.905,1.028-1.226
		c3.638-2.575,7.016-5.466,10.431-8.325c4.79-4.01,8.959-8.669,13.684-12.738c6.288-5.414,13.408-7.697,21.656-5.807
		c5.455,1.25,10.245,3.885,14.599,7.279c1.418,1.105,2.142,0.964,2.944-0.429c0.259-0.45,0.515-0.902,0.766-1.356
		c2.58-4.673,6.631-7.662,11.611-9.055c2.281-0.638,2.735-1.558,2.723-3.602c-0.061-10.697,0.001-21.394-0.04-32.091
		c-0.013-3.49-0.155-6.98-1.475-10.304c-0.579-1.458-1.448-2.739-2.949-3.093c-1.542-0.363-2.956-0.992-4.381-1.579
		c-7.07-2.913-14.026-6.052-20.105-10.819c-6.476-5.078-13.687-7.863-22.064-7.146c-4.876,0.417-6.855,2.149-7.283,6.803
		c-0.139,1.507-0.753,1.784-2.036,1.148c-1.195-0.592-2.428-1.107-3.632-1.683c-3.678-1.759-6.842-4.256-9.332-7.424
		c-3.085-3.925-2.719-8.64-2.213-13.238c0.155-1.405,1.259-2.303,2.76-2.536c4.002-0.622,7.839-0.02,11.477,1.687
		c2.881,1.352,5.627,3.008,8.55,4.251c4.074,1.732,8.144,3.508,12.785,3.261c6.235-0.332,12.168-1.813,17.801-4.406
		c5.124-2.359,8.003-6.583,8.671-12.105c0.794-6.563-0.925-12.637-4.293-18.283c-3.777-6.331-6.19-12.917-4.612-20.524
		c0.902-4.349,1.169-8.825,1.92-13.21c0.711-4.151,0.609-8.405,1.988-12.491c0.603-1.787,1.034-3.786,0.501-5.897
		c-0.652-2.585-1.839-4.826-3.284-6.981c-2.397-3.573-4.697-7.229-6.033-11.325c-2.335-7.156-2.306-14.605-0.95-21.829
		c1.89-10.07,3.516-20.156,4.645-30.331c0.068-0.617-0.068-1.371,0.692-1.745c0.825,0.321,0.655,1.084,0.799,1.694
		c0.876,3.694,1.995,7.283,4.281,10.401c3.31,4.513,7.012,4.96,11.364,1.47c5.336-4.279,10.157-9.123,15.207-13.714
		c8.213-7.466,16.923-14.203,26.925-19.157c8.436-4.179,16.854-8.396,25.231-12.691c5.818-2.983,11.002-6.846,14.525-12.454
		c3.112-4.952,5.847-10.14,8.817-15.183c0.744-1.264,0.561-1.925-0.863-2.206c-0.8-0.158-1.62-0.438-2.41-0.38
		c-8.478,0.616-16.02-2.398-23.31-6.144c-2.282-1.173-4.384-1.727-6.747-0.735c-2.003,0.841-4.148,1.115-6.212,1.706
		c-7.144,2.045-14.433,3.09-21.788,1.765c-7.334-1.322-14.701-1.908-22.121-2.096c-1.326-0.034-2.192-0.462-2.875-1.642
		c-2.043-3.531-4.165-7.018-6.319-10.482c-0.426-0.685-0.653-2.021-1.7-1.69c-0.895,0.283-0.349,1.426-0.313,2.2
		c0.308,6.661,0.585,13.324,0.963,19.982c0.085,1.503-0.438,1.987-1.871,1.983c-10.845-0.031-21.691-0.035-32.536-0.011
		c-1.518,0.003-2.449-0.525-3.079-1.986c-0.938-2.177-2.118-4.25-3.203-6.363c-0.685-1.334-1.185-2.793-2.458-3.985
		c-0.574,0.968-0.448,1.789-0.402,2.573c0.307,5.174,0.627,10.347,0.966,15.519c0.083,1.27-0.008,2.25-1.72,2.042
		c-2.651-0.323-5.36-0.333-7.963-0.871c-7.532-1.556-14.955-0.893-22.233,1.131c-8.306,2.309-16.721,2.476-25.158,1.692
		c-11.236-1.045-22.524-1.027-33.761-1.99c-4.576-0.392-9.246,0.031-13.765-0.645c-2.725-0.408-4.142,0.423-5.61,2.319
		c-1.315,1.698-2.898,3.187-4.241,4.865c-0.994,1.242-1.921,1.404-3.212,0.469c-2.58-1.869-5.296-3.559-7.801-5.521
		c-1.503-1.178-2.103-0.671-2.441,0.827c-0.54,2.389-1.001,4.795-1.471,7.199c-0.345,1.762-1.432,2.786-3.164,2.96
		c-2.154,0.216-4.253,0.629-6.323,1.242c-1.574,0.466-2.669,0.063-3.361-1.596c-0.624-1.495-1.596-2.841-2.347-4.288
		c-0.666-1.283-1.636-1.844-3.078-1.65c-2.571,0.345-5.14,0.753-7.723,0.952c-1.852,0.143-2.075,0.874-1.473,2.462
		c4.754,12.518,12.044,23.287,22.232,31.997c5.836,4.99,12.113,9.297,19.618,11.529c7.548,2.245,15.358,2.645,23.105,3.051
		c12.746,0.669,25.501,0.903,37.987,4.022c6.127,1.53,11.726,4.053,15.771,8.961c4.674,5.671,10.875,7.979,17.742,9.137
		c2.612,0.441,3.057,1.072,2.132,3.54c-1.143,3.051-2.312,6.094-3.347,9.182c-1.097,3.272-1.751,3.519-5.031,2.374
		C384.026,345.749,379.518,344.433,374.725,342.917z M560.567,531.708c0.197-4.633,1.28-9.09,1.734-13.634
		c0.493-4.943,1.063-9.881,1.749-14.8c1.034-7.419,2.205-14.818,3.301-22.228c0.465-3.144,1.604-5.956,3.6-8.48
		c6.393-8.086,13.542-15.556,19.498-23.998c2.657-3.766,5.386-7.514,6.652-12.004c1.855-6.581,2.697-13.369,3.493-20.137
		c0.666-5.668,1.101-11.376,1.34-17.079c0.456-10.915,0.65-21.83-3.474-32.269c-2.6-6.582-6.451-12.264-12.467-16.109
		c-6.174-3.945-12.549-7.578-18.866-11.296c-4.522-2.661-4.624-2.665-7.003,1.9c-0.977,1.874-1.658,1.427-2.645,0.151
		c-1.909-2.466-3.955-4.832-5.746-7.38c-1.28-1.821-2.238-1.749-3.811-0.309c-4.111,3.763-8.555,7.054-13.645,9.476
		c-5.975,2.843-10.477,1.963-14.494-3.31c-2.368-3.108-3.762-6.727-4.898-10.419c-0.483-1.569-1.173-2.027-2.742-1.525
		c-1.758,0.563-3.562,1.03-5.379,1.355c-1.483,0.265-2.073,1.106-2.469,2.46c-1.06,3.621-2.186,7.226-3.412,10.794
		c-1.049,3.053-1.622,3.275-4.947,2.69c-2.712-0.477-5.448-0.718-8.206-0.589c-1.312,0.061-2.451,0.397-3.209,1.635
		c-2.363,3.859-2.641,8.102-2.319,12.443c0.039,0.522,0.531,1.042,0.887,1.505c2.676,3.484,5.002,7.198,6.872,11.159
		c3.309,7.01,4.544,14.537,5.058,22.194c0.79,11.777,2.213,23.48,3.821,35.169c0.267,1.942,1.066,3.039,2.659,3.983
		c7.505,4.451,14.368,9.714,20.402,16.064c5.589,5.882,9.173,12.767,10.472,20.73c0.629,3.858,0.886,7.831-0.601,11.645
		c-0.53,1.36-0.064,2.367,0.953,3.365c4.61,4.525,9.066,9.174,13.042,14.305c6.426,8.292,10.83,17.457,12.999,27.713
		C559.112,528.522,559.4,530.2,560.567,531.708z M639.93,387.773c-0.42-10.395-1.708-19.063-2.916-27.733
		c-0.531-3.813-1.564-7.537-3.089-11.108c-2.673-6.261-7.048-11.289-11.63-16.164c-3.711-3.948-7.851-7.483-11.321-11.662
		c-5.253-6.327-8.911-13.65-12.694-20.86c-6.437-12.269-12.402-24.776-18.12-37.398c-0.359-0.793-0.634-1.917-1.577-1.998
		c-1.054-0.091-1.249,1.134-1.638,1.871c-2.421,4.588-4.733,9.234-7.181,13.807c-1.661,3.104-1.781,3.268,1.191,5.016
		c8.945,5.261,15.189,12.935,19.857,22.014c5.044,9.81,10.04,19.645,14.975,29.51c3.953,7.902,7.302,16.082,9.2,24.716
		c1.832,8.336,2.825,16.836,2.82,25.394c-0.011,16.636,0.039,33.277-0.348,49.906c-0.112,4.796-0.086,9.63-0.579,14.442
		c-0.423,4.123-0.294,8.303-0.373,12.459c-0.01,0.547-0.16,1.404,0.578,1.494c0.789,0.096,0.694-0.786,0.846-1.315
		c0.92-3.2,1.746-6.43,2.756-9.6c2.608-8.18,5.208-16.362,7.481-24.643c0.116-0.422,0.106-1.01,0.654-1.027
		c0.651-0.021,0.787,0.61,0.878,1.106c0.297,1.605,0.616,3.21,0.803,4.829c1.474,12.772,2.079,25.597,2.133,38.447
		c0.035,8.314-0.124,16.625-0.313,24.939c-0.277,12.177-1.019,24.327-1.964,36.449c-0.955,12.262-1.88,24.531-2.879,36.791
		c-0.149,1.833-0.003,3.696,0.095,5.54c0.03,0.57,0.295,1.223,0.953,1.386c0.738,0.183,1.015-0.484,1.335-0.961
		c1.453-2.171,2.351-4.623,3.34-7.007c2.983-7.189,5.322-14.607,7.275-22.135c1.678-6.47,3.337-13.033,2.806-19.751
		c-0.527-6.674-0.371-13.352-0.573-20.016c-0.58-19.208-0.596-38.431-1.406-57.64c-0.397-9.417-0.188-18.859-0.252-28.289
		C640.98,407.757,640.742,396.94,639.93,387.773z M395.121,229.789c0.72-0.961,0.225-1.643,0.09-2.325
		c-1.021-5.161-2.072-10.315-3.08-15.478c-1.563-8.005-3.079-16.019-4.669-24.018c-0.302-1.518-0.253-3.161-1.094-4.521
		c-2.107-3.404-4.285-6.765-6.444-10.136c-0.28-0.436-0.609-0.927-1.203-0.852c-0.657,0.083-0.75,0.692-0.752,1.202
		c-0.02,3.813-1.088,7.484-1.486,11.251c-0.56,5.308-1.408,10.586-2.141,15.875c-0.082,0.593-0.195,1.329-0.85,1.433
		c-0.812,0.128-0.775-0.725-0.982-1.239c-2.465-6.102-4.921-12.207-7.391-18.307c-0.237-0.584-0.276-1.545-1.126-1.42
		c-0.856,0.126-0.609,1.052-0.652,1.681c-0.344,5.025-0.702,10.049-0.99,15.077c-0.084,1.464-0.552,2.371-2.145,2.564
		c-3.609,0.438-7.22,0.881-10.806,1.471c-2.257,0.371-3.357-0.296-3.969-2.624c-0.751-2.852-2.045-5.575-3.919-7.915
		c-1.344-1.679-2.827-1.498-3.848,0.33c-0.289,0.518-0.614,1.029-0.815,1.582c-2.306,6.347-7.338,8.934-13.566,9.924
		c-1.424,0.226-2.159-0.207-2.562-1.673c-1.473-5.345-3.056-10.66-4.617-15.981c-0.789-2.689-1.118-2.764-3.355-1.116
		c-5.316,3.918-10.655,7.804-15.981,11.709c-0.495,0.363-1.014,0.723-1.627,0.435c-0.644-0.303-0.598-0.964-0.593-1.562
		c0.013-1.856,0.209-3.731,0.015-5.565c-0.844-7.99-0.293-16.024-0.881-24.019c-0.055-0.751,0.568-1.866-0.517-2.11
		c-0.871-0.196-1.251,0.897-1.675,1.56c-3.48,5.436-6.9,10.911-10.42,16.321c-1.419,2.181-2.54,4.605-4.597,6.502
		c-0.487-0.872-0.201-1.496-0.051-2.133c2.083-8.857,4.161-17.716,6.235-26.575c0.146-0.625,0.555-1.344-0.218-1.803
		c-0.639-0.379-1.117,0.184-1.58,0.518c-8.416,6.08-16.093,12.931-21.758,21.736c-3.607,5.606-6.16,11.882-10.529,17.003
		c-3.337,3.911-4.979,8.57-6.061,13.421c-2.61,11.703-3.069,23.663-3.9,35.572c-0.052,0.741-0.235,1.6,0.629,2.408
		c0.577-2.027,1.235-3.825,1.592-5.681c1.156-6.017,3.322-11.659,6.159-17.054c4.207-8.001,10.181-14.762,15.576-21.923
		c1.624-2.156,3.876-3.634,6.532-4.427c3.401-1.015,5.709,0.579,5.725,4.113c0.029,6.238-0.011,12.477-0.011,18.715
		c0,0.717-0.292,1.607,0.498,2.033c0.805,0.434,1.369-0.303,1.933-0.746c5.775-4.538,11.549-9.078,17.308-13.637
		c1.763-1.396,2.045-1.245,2.644,0.992c0.679,2.535,0.511,5.172,1.114,7.705c1.12,4.707,0.136,4.749,5.454,2.553
		c5.608-2.316,11.246-4.558,16.875-6.822c0.99-0.398,1.54,0.029,1.792,1.013c0.773,3.01,1.559,6.016,2.354,9.02
		c0.194,0.735-0.229,1.915,0.825,2.063c1.029,0.145,1.347-1.005,1.769-1.747c2.492-4.386,5.023-8.752,7.39-13.205
		c0.922-1.735,1.626-1.632,2.649-0.223c2.136,2.941,4.329,5.84,6.409,8.82c0.945,1.353,1.714,1.395,2.771,0.166
		c1.74-2.023,3.606-3.941,5.313-5.99c1.036-1.244,1.726-1.264,2.782,0.027c1.924,2.352,4,4.581,6.057,6.821
		c1.262,1.375,2.003,1.247,2.734-0.466c0.927-2.175,1.797-4.375,2.654-6.579c0.779-2.004,1.154-2.112,2.68-0.602
		c3.429,3.394,6.851,6.794,10.259,10.208c1.063,1.064,1.998,1.447,2.59-0.37c0.915-2.808,1.793-5.628,2.671-8.448
		c0.22-0.706,0.297-1.562,1.259-1.593c0.823-0.027,1.017,0.728,1.31,1.327c2.146,4.396,4.279,8.798,6.47,13.171
		C393.82,228.109,394.493,228.878,395.121,229.789z M477.126,166.747c0.028,0,0.057,0,0.085,0c0,2.674,0.005,5.347-0.003,8.021
		c-0.002,0.653,0.174,1.474-0.581,1.769c-0.74,0.289-0.931-0.542-1.288-0.966c-2.389-2.838-4.799-5.658-7.145-8.531
		c-2.176-2.665-2.382-2.659-3.643,0.504c-0.055,0.138-0.099,0.28-0.152,0.419c-1.822,4.768-3.642,9.536-5.47,14.302
		c-0.243,0.633-0.55,1.299-1.26,1.461c-0.858,0.196-1.07-0.611-1.433-1.144c-3.125-4.59-6.247-9.183-9.384-13.765
		c-0.354-0.516-0.537-1.426-1.378-1.208c-0.863,0.224-0.534,1.092-0.575,1.721c-0.242,3.774-0.459,7.55-0.728,11.322
		c-0.051,0.709-0.009,1.606-0.842,1.917c-0.814,0.305-1.127-0.536-1.575-0.979c-2.376-2.351-4.733-4.72-7.099-7.08
		c-0.521-0.52-1.056-1.285-1.854-0.959c-0.83,0.338-0.524,1.28-0.578,1.993c-0.43,5.765,0.004,11.573-0.873,17.316
		c-0.095,0.624,0.244,1.495-0.579,1.747c-0.888,0.272-1.263-0.577-1.695-1.157c-2.087-2.796-4.154-5.607-6.251-8.396
		c-1.492-1.984-1.978-1.988-3.066,0.105c-1.504,2.896-2.912,5.842-4.357,8.768c-0.283,0.574-0.293,1.403-1.161,1.454
		c-0.805,0.047-1.103-0.636-1.453-1.202c-2.109-3.408-4.212-6.819-6.333-10.219c-0.28-0.449-0.193-1.414-1.024-1.168
		c-0.709,0.21-0.499,1.031-0.368,1.567c0.775,3.182,1.04,6.439,1.532,9.663c1.107,7.254,2.308,14.494,3.482,21.738
		c0.112,0.688-0.186,1.741,0.748,1.877c0.809,0.118,1.142-0.867,1.461-1.494c1.846-3.632,3.725-7.252,5.408-10.96
		c0.789-1.737,1.55-2.109,3.163-0.975c3.095,2.175,6.279,4.223,9.422,6.329c2.111,1.414,2.483,1.262,3.106-1.111
		c1.018-3.876,2.088-7.738,3.137-11.605c0.158-0.583,0.32-1.22,1.039-1.287c0.668-0.062,0.768,0.585,1.004,1.025
		c1.512,2.807,2.981,5.639,4.552,8.412c0.518,0.914,0.761,2.606,2.024,2.331c1.358-0.296,0.809-2.004,1.006-3.082
		c0.773-4.23,1.42-8.483,2.136-12.723c0.098-0.579,0.258-1.282,0.981-1.313c0.642-0.027,0.681,0.668,0.893,1.126
		c2.185,4.697,4.38,9.389,6.561,14.088c0.225,0.484,0.417,1.019,1.031,1.03c0.737,0.013,1.041-0.592,1.138-1.172
		c0.234-1.41,0.879-2.669,1.322-4.001c2.056-6.184,4.046-12.39,6.132-18.564c0.834-2.468,1.12-2.425,2.887-0.482
		c4.343,4.776,8.742,9.502,13.139,14.229c0.485,0.521,1.02,1.315,1.824,1c0.729-0.285,0.44-1.184,0.484-1.813
		c0.445-6.368,0.232-12.765,0.863-19.131c0.187-1.885,0.89-2.413,2.697-2.191c3.234,0.397,6.495,0.571,9.735,0.926
		c2.016,0.221,2.636-0.541,2.41-2.534c-0.493-4.35-1.37-8.648-1.643-13.031c-0.12-1.914,0.354-2.291,2.086-1.507
		c2.833,1.284,5.718,2.454,8.586,3.66c0.607,0.255,1.305,0.652,1.849,0.027c0.497-0.571-0.096-1.107-0.343-1.61
		c-1.828-3.725-3.665-7.445-5.515-11.159c-3.041-6.102-6.088-12.202-9.152-18.293c-0.29-0.576-0.596-1.363-1.39-1.244
		c-0.908,0.136-0.704,1.002-0.71,1.634c-0.089,10.181-1.356,20.295-1.739,30.46c-0.087,2.323-0.741,2.615-2.683,1.395
		c-3.512-2.206-7.036-4.393-10.53-6.627c-1.427-0.913-2.063-0.518-2.071,1.101C477.117,161.251,477.126,163.999,477.126,166.747z
		 M548.801,287.147c-2.606,0.03-4.557,1.013-6.449,1.979c-4.673,2.386-9.353,4.78-13.876,7.435
		c-6.399,3.756-12.048,8.388-15.769,15.004c-1.176,2.091-0.948,2.683,1.355,2.784c6.372,0.28,12.752,0.241,19.13,0.493
		c6.24,0.247,12.271,0.958,17.782,4.111c9.713,5.558,19.412,11.142,29.117,16.713c0.624,0.358,1.374,1.045,1.965,0.371
		c0.47-0.536-0.199-1.23-0.605-1.744c-3.216-4.073-6.486-8.105-9.655-12.215c-2.198-2.85-4.737-5.473-5.263-9.353
		c-0.478-3.525-1.781-6.868-3.06-10.184c-2.164-5.61-5.697-10.224-10.505-13.793C551.7,287.807,550.174,287.014,548.801,287.147z"/>
</g>
</svg>
