<?xml version="1.0" encoding="utf-8"?>
<!-- Generator: Adobe Illustrator 21.1.0, SVG Export Plug-In . SVG Version: 6.00 Build 0)  -->
<svg version="1.1" id="Lantern" xmlns="http://www.w3.org/2000/svg" xmlns:xlink="http://www.w3.org/1999/xlink" x="0px" y="0px"
	 viewBox="0 0 864 864" style="enable-background:new 0 0 864 864;" xml:space="preserve">
<style type="text/css">
	.st0{fill:#FFFFFF;}
	.st1{fill:none;stroke:#ED1C24;stroke-miterlimit:10;}
	.st2{fill:#010101;}
	.st3{fill:none;stroke:#EB2227;stroke-miterlimit:10;}
</style>
<rect x="4.1" y="98.6" class="st0" width="763.8" height="542.1"/>
<path class="st1" d="M127.7,87l0.6,556.7 M256.6,643.7L255.9,87 M384.8,643.7L384.2,87 M514,643.7L513.4,87 M641.3,643.7L640.7,87
	 M769.6,643.7L768.9,87"/>
<rect x="6.1" y="741.6" class="st0" width="763.8" height="542.1"/>
<path class="st1" d="M129.7,730l0.6,556.7 M258.6,1286.7L257.9,730 M386.8,1286.7L386.2,730 M516,1286.7L515.4,730 M643.3,1286.7
	L642.7,730 M771.6,1286.7L770.9,730"/>
<path d="M1503.1,334.2l-36.8-128.2l0.2-0.1l-0.4-0.5l-0.3-1l-0.6-0.2l-79.6-104.4l0.2-0.2l-0.7-0.4l-0.6-0.7l-0.2,0.2l-113.7-69.6
	l-0.4,1.1L1139.5,6.4l0,1.2l-129.1,24.9l-0.2-0.6l-1.4,0.9l0,0l0,0l-111.4,69.9l-0.5-0.6l-80.7,108.3l11.2,27l284.5,139.2l29.7-7.7
	l0.1,0l-0.6,0.7l1-0.5l0,0l-0.4,1l0.3-0.3l-66.5,354.7h133.3l0.1,0.3l0.7-0.3h0.9l-0.1-0.3l124.3-48.2l-0.6-1l98.2-89.7l-1-0.7
	l58.5-117.8l0.6,0.2l0.2-1.7l0,0l0,0l11.9-131L1503.1,334.2z M1448.9,227.5l27.2,94.8l-5.6,1.6l-27.2-94.8L1448.9,227.5z
	 M1377.3,126.1l55.8,73.2l-5.3,2.7l-55.1-72.3L1377.3,126.1z M1273.9,57.6l84.1,51.5l-3.1,5l-84.1-51.5L1273.9,57.6z M1152.7,31.9
	l97.1,17.6l-1,5.8l-97.1-17.6L1152.7,31.9z M1127.1,33.2l1.1,5.7l-96.9,18.7l-1.1-5.7L1127.1,33.2z M1006.3,61.2l3.1,5l-83.6,52.4
	l-3.1-5L1006.3,61.2z M844.8,210l59-79.1l4.7,3.5l-59,79.1L844.8,210z M1192.9,701.8h-98.7V696h98.7V701.8z M1218.1,696.8l-2.1-5.5
	l92-35.7l2.1,5.5L1218.1,696.8z M1331.2,646.9l-3.9-4.3l72.9-66.5l3.9,4.3L1331.2,646.9z M1418.5,559.2l-5.2-2.6l43.9-88.4l5.2,2.6
	L1418.5,559.2z M1469.4,446.1l-5.8-0.5l8.9-98.3l5.8,0.5L1469.4,446.1z"/>
<path class="st1" d="M1210.4,724.5l-70.2-356.1l325.7-164 M1502.4,334.2c-1.8,1.9-362.2,34.2-362.2,34.2L1334,675 M1490.4,465.2
	l-350.2-96.8l291,216.1 M1384.7,98.5L1144,370.1L816.2,210.5 M897.4,102.8c2.6,0.3,246.7,267.3,246.7,267.3l126.4-340 M1008.7,32.9
	L1144,370.1l-4.5-362.5"/>
<path class="st2" d="M771.4,730l0.5,0.4l-0.2-0.3l-0.3-0.2h-18.5l-45.2-78.3l-45.2,78.3h-39.6l-45.2-78.3l-45.2,78.3h-34.6
	l-45.2-78.3l-45.2,78.3h-38.6l-45.2-78.3l-45.2,78.3h-37.6l-45.2-78.3l-45.2,78.3h-39.6l-45.2-78.3l-45.2,78.3h-19v8.9
	c0,0.1,0,0.3,0,0.4H0.9v546.5h770.7l15.8-15.8V752.8L771.4,730z M20.2,1230.7l4.2,8.7l-4.1,7.1v-13.6l0,0V1230.7z M23.4,1252.5
	l-1.3,9.6l-1.9,1v-13.5l10-1.3l6.1,6.8l-3.8,0.9l3,2.5l-5.3,1L23.4,1252.5z M40.2,1266.4h-4.8l0-0.1l2.9-5.6l2.3,1.9L40.2,1266.4z
	 M53.8,1266.8l-2.1-0.1l0.2-5.9l-2.6-0.1l-0.2,5.2l-2.2-0.1l0.2-5.2l-2.4-0.1l-0.2,6.4l-2.1-0.1l0.3-8.9l11.5,0.4L53.8,1266.8z
	 M68.3,1261.3l-7.1,0.9l4.1,4.1h-8.6l-1.3-5l2.2-2.5l0.1,5.1l8.5-6.7l3.6,1.1L68.3,1261.3z M89.2,1259.2l-7.7-0.1l4.6,6.2l-0.4,1.1
	h-8.1l4-3.8l-7.1-1.1l-0.8-1.8l2.7,0.8l-1.2-3.3l15.7-3.7l1.4,1.3L89.2,1259.2z M95,1257.1l4.8,4.4l-3.8-1.2L95,1257.1z M104,1266.4
	h-6.1l4.1-2.9l0.3,0.3l1.8,1.8L104,1266.4z M112,1246.9l-4.7,9.2l-3,0.4l0.7-8.5l6.9-4V1246.9z M112,1236.1l-7.9-3.3l-3.5-16.8
	l-11.2,13l-17-1.9l8.9,14.6l-6.5,14.4l-2.1-5.8l6.3-8.9l-10.8,0.4l-6.5-8.7l-3,10.4l-10.3,3.5l9,6l0,0.1l-5.6-0.4l-5.3-8.9l-3.8,9.7
	l-3.8,0.9l1.7-9.1l11-4.9l-10.6-5.7l-1.3-12l-8.7,8.3l-10.7-2.3v-115.9H112V1236.1z M112,1102.8H20.2V995.9H112V1102.8z M112,985.8
	H20.2V877H112V985.8z M112,866.9H20.2V752.1h35.3l2.4,5.8l-6.6,10.3l12.2-1l7.7,9.4l2.8-11.9l11.4-4.4L75,754l-0.1-1.9H112V866.9z
	 M154.1,1263.7l7.2-5.9l-3.7-4.5l1.6-1.3l5.3,6.4l-8.8,7.2L154.1,1263.7z M159.7,1266.4l2.2-1.8l6.5,1.8H159.7z M172.3,1262.8
	l-4.8-1.8l2.8-3L172.3,1262.8L172.3,1262.8z M175.3,1258.4l-2.5-6.2l2.2-3.3l2.4,2.4l-1.3,7L175.3,1258.4z M179,1266.4h-0.5
	l-2.4-5.9l0,0l3.3,3.4L179,1266.4z M181.7,1257.6L181.7,1257.6L181.7,1257.6L181.7,1257.6z M190.5,1266.4l-0.3-2.3l3.9-3.6l1.4,0.7
	l0.5,5.1H190.5z M195.8,1251.9l-4.4,2l-0.4-2.3l5.9-5.6L195.8,1251.9z M202.1,1266.4l2-1.9l8.8,1.9H202.1z M213.9,1265.7l-4-8.6
	l2.2-3.7l3.1,2.8L213.9,1265.7z M221.5,1266.4l4.6-2.7l5.6,2.7H221.5z M227.6,1234.8l1.1,0.4l1.1,3.6L227.6,1234.8z M239.7,1266.4
	h-0.8l-2.3-10.9l3.1-3.2V1266.4z M239.7,1243.8l-7.7-0.8l-0.5-0.9l4.2-5.7l4,0.1V1243.8z M239.7,1230.9l-0.6-0.9l0.6-1.7V1230.9z
	 M239.7,1223.1l-5.6,1.8l-6.4-4.9l0,8.1l-2.7,1.9l0-0.1l0,0.1l-3.9,2.7l2.4,0.8l-4.5,10.2l-14.7,2.7l3.2,2.9l-2.5,0.3l-7-7.8
	l-0.6,3.3l-8.6-1.4l-4.1-8.6l-4.3,8.5l-1.5,0.2l4.6-6.9l-18.6,1.3l-11.6-14.6l-4.1,16.2v-126.7h90.8V1223.1z M240.3,1102.8h-91.8
	V995.9h91.8V1102.8z M240.3,985.8h-91.8V877h91.8V985.8z M240.3,866.9h-91.8V752.1h38.8l-0.5,1.7l-11.2,3.8l9.9,6.6l0.2,11.9
	l9.3-7.3l11.3,3.5l-4.1-11.1l6.4-9h31.8V866.9z M277.3,1266.8v-10.2l2.5,1.6l0.3,8.6H277.3z M289,1266.8l3.4-2.8l9.7,2.8H289z
	 M302.6,1264.9l-10.9-3.4l0.7-2.4l10.9,3.4L302.6,1264.9z M307,1266.8l-2.4-6.1l4.6,1.9l0.9,4.2H307z M338.9,1257.3l-3.6-2.2l-0.3-6
	l4.5,6.7L338.9,1257.3z M344.2,1266.8l4.1-1.2l1.4,1.2H344.2z M368.1,1266.8h-7.9l0.3-6.6l7.7-4.8V1266.8z M368.1,1250.4l-9.1-3.3
	l-0.9-3.4l5.7-0.9l4.2,4.5V1250.4z M368.1,1228.8l-4.1,4.1l-6.8-1.3l3.1,6.2l-2.5,4.6l-2.5-9.8l-9.3,11.8l-15-1l3.8,5.7l-4.6,4
	l-5.9-1.6l2.4,5.7l-3.3,5.2l6.1-0.5l3.9,4.8l1.4-6l3.3-1.3l-3,7.6h-20.4l2-2.3l8.6,0.9l-4.6-7.4l3.5-7.9l-8.4,2.1l-6.5-5.8l-0.7,8.7
	l-5.1,3l-1.6-4.2l8.9-13l-15.7,0.9l-9.6-12.4l-4,15.2l-4.1,1.5v-132.6h90.8V1228.8z M368.6,1102.8h-91.8V995.9h91.8V1102.8z
	 M368.6,985.8h-91.8V877h91.8V985.8z M368.6,866.9h-91.8V752.1h35.3l0.5,3.6l-8.4,7.8l11.3,1.9l4.8,10.4l5.3-10.1l11.3-1.4l-8-8.2
	l0.8-4h38.9V866.9z M405.7,1266.8v-4.3l4.8-0.1l3.2,4.4H405.7z M428.3,1266.8h-6.2l2-6.8l2.6-0.8l2.8,3.2L428.3,1266.8z
	 M441.7,1266.8l-0.3-3.4l2.2-1.8l6.5,1.9l1.1,3.3H441.7z M459.7,1266.8l1.2-1.8l12.3-0.1l-7.6-9.7l0.1-0.2l12.2,7.7l0.4,4.2H459.7z
	 M466.2,1253.4l0.4-1.4l5.1-3.1l2.9,1.3L466.2,1253.4z M477.3,1249.1l-1-4l3.5-3.9l-1.4,7.5L477.3,1249.1z M488,1265
	c-2.9,1.4-6.5,0.3-7.9-2.7c-1-2-0.7-4.3,0.4-6c0.9,0.7,1,0.7,2,1.5c-0.7,1-0.8,2.3-0.2,3.4c0.9,1.7,2.9,2.4,4.6,1.6
	c1.7-0.9,2.4-2.9,1.6-4.6c-0.6-1.1-1.7-2-2.9-1.9l0.1,0.2c0.2,0.5,0.8,1.5,1.1,2.1c0.1,0.3,0.2,0.4,0.2,0.4l-1.9,0.9
	c-0.7-1.4-1.7-3.5-2.6-5.2c0.3-0.1,2.2-1,3.2-0.8c2.1,0.1,4.1,1.3,5.1,3.3C492.1,1260,490.9,1263.6,488,1265z M496.5,1245.4
	l-4.9,0.3l-5.6-6.8l4-0.3l3.6,4.6l1.4-5.7l1.5-0.6V1245.4z M496.5,1233l-1-0.6l-0.3-5.8l-4.5,3.8l-5.6-1.6l2.2,5.4l-2.3,3.6
	l-3.7-4.5l-1.2,6.7l-5.9-0.5l-3.4-5.8l-2.6,6.2l-6.6,1.4l4,3.4l-7.8,2.8l-10-7.2l0.4,12.3l-5.6,4.1l-2.9-0.7l-3-7.8l-2.2,3.6
	l-8.4-5.8l-0.1-15.7l-12.4,9.6l-7.9-2.5v-124.3h90.8V1233z M496.9,1102.8h-91.8V995.9h91.8V1102.8z M496.9,985.8h-91.8V877h91.8
	V985.8z M496.9,866.9h-91.8V752.1h34.4l-5.5,1.2l8.5,7.7l-1,11.8l9.4-6.2l10.2,4.8l-2.7-11.5l6.5-7.8h31.9V866.9z M534.1,1266.8v-6
	l4.1,0.4l3.2,5.7H534.1z M550.8,1266.8h-4l2.7-6.3l0.5-0.1l2.2,3.2L550.8,1266.8z M554.7,1259.6l-0.3,0l0.4-0.1L554.7,1259.6z
	 M557,1253.6l2-0.7l2.1,1.5l-2.6,0.4L557,1253.6z M563.8,1266.8h-3.9l0.1-1.6l4.5-2.7L563.8,1266.8z M564.5,1262.4l-5-1.8l-0.5-1.9
	l2.8-0.6l2.9,2.8L564.5,1262.4z M568.3,1266.8l2.7-1.5l2.9,1.5H568.3z M578.4,1266.8l-1-5.3l9,4.3l0.2,1.1H578.4z M588.7,1266.9
	l0-2.4l4.1,0l0-5.3l-4.1,0l0-2.5l11.4-0.1l0,2.5l-4.9,0l0,5.3l4.9,0l0,2.4L588.7,1266.9z M609.8,1258.5l-4.9,1.6l4.3,3l0,3.8h-1.5
	l-3.8-6.9l1.1-2.2l5.3-0.7L609.8,1258.5z M624.9,1266.8h-14l2.2-1.7l4.9,1.6l-1.7-4.9l1.8-2.4l6.5,7.1l0.3-1.4V1266.8z
	 M613.3,1256.5l1.9-0.3l1.4,1.5l-2.3,0L613.3,1256.5z M624.9,1227.8l-8.9,8.5l-13.7-2.9l6,12.6l-1.7,3l-9.6,1.8l-9-9l-1.7,12.7
	l-5.6,2.9l2.8-2.8l-8.7-1.1l-4-7.8l-3.8,7.9l-4.4,0.7l0-3.1l3.6-2.6l-4.3-1.3l-1.3-4.3l-2.6,3.6l-4.5-0.1l2.7,3.6l-0.7,2.2l-3.1-2.7
	l1.5-12.8l-11,6.6l-8.8-4v-126.1h90.8V1227.8z M625.3,1102.8h-91.8V995.9h91.8V1102.8z M625.3,985.8h-91.8V877h91.8V985.8z
	 M625.3,866.9h-91.8V752.1h38l0.1,4l-9,6.4l10.5,3.3l3.3,10.5l6.4-9l11,0.1l-6.6-8.8l2.2-6.4h36V866.9z M674.4,1266.8h-11.9v-13.3
	l1.4,0.4l4,12.5l4.9-7.1l2.8,4.1L674.4,1266.8z M678.5,1258.4l-4.8-0.2l1.7-2.5l5.2,0L678.5,1258.4z M684.8,1266.8l0-1.7l0.6-0.4
	l10,1.7l0.1,0.3H684.8z M705.9,1264.5l-9.7-0.1l0-2.1l3.6,0l0.1-9.3l2.5,0l-0.1,9.3l3.6,0L705.9,1264.5z M706.2,1266.8L706.2,1266.8
	l12.1-1.5l-8.5-8.7l0.2-1l6.2-1.5l4.9,4.4l0.5-6.6l2.2-1.3l-0.2,0.3l10-0.7l-3.2,3.8l-7.1-0.8l3.7,6.1l-2.9,6.6l7-1.7l2.9,2.6H706.2
	z M710.1,1254.9l1.3-6.8l1,1.5L710.1,1254.9z M745.2,1260.1l-5.9,2.3l5.4,3.3l0.1,1.1h-8.2l0.4-5l6.2-3.6l-6.6-2.8l-1.2-5.5l4.4-0.3
	l6,7.6L745.2,1260.1z M753.3,1258.7l-2.4,0.2l2.4-9.8V1258.7z M753.3,1217.2l-11.2,9.4l-15.7-4.3l6.1,15.1l-6.9,10.5l-4.4-1.8
	l-1.4-6.5l-4.3,5.1l-6.6-0.6l1.1,1.7l-8.8,4.3l-10.6-5.9l1.8,12.1l-4.8,4.5l-3.4-1.2l-1-3.8l5.5,0l-8-10.4l4.1-12.5l-12.4,4.4
	l-9.8-7.1v-116.7h90.8V1217.2z M753.6,1102.8h-91.8V995.9h91.8V1102.8z M753.6,985.8h-91.8V877h91.8V985.8z M753.6,866.9h-91.8
	V752.1h40.8l-0.5,1.9l-11.7,4.1l10.4,6.8l0.3,12.4l9.6-7.8l11.9,3.5l-4.4-11.6l6.4-9.3h29V866.9z"/>
<path class="st3" d="M128.7,729.5l0.6,556.7 M257.6,1286.1l-0.6-556.7 M385.8,1286.1l-0.6-556.7 M515,1286.1l-0.6-556.7
	 M642.3,1286.1l-0.6-556.7 M770.6,1286.1l-0.6-556.7"/>
<path d="M770.4,87.5l0.5,0.4l-0.2-0.3l-0.3-0.2h-18.5L706.7,9.1l-45.2,78.3h-39.6L576.7,9.1l-45.2,78.3h-34.6L451.7,9.1l-45.2,78.3
	h-38.6L322.7,9.1l-45.2,78.3h-37.6L194.7,9.1l-45.2,78.3h-39.6L64.7,9.1L19.5,87.4h-19v8.9c0,0.1,0,0.3,0,0.4h-0.7v546.5h770.7
	l15.8-15.8V110.3L770.4,87.5z M19.2,588.3l4.2,8.7l-4.1,7.1v-13.6l0,0V588.3z M22.4,610l-1.3,9.6l-1.9,1v-13.5l10-1.3l6.1,6.8
	l-3.8,0.9l3,2.5l-5.3,1L22.4,610z M39.2,623.9h-4.8l0-0.1l2.9-5.6l2.3,1.9L39.2,623.9z M42.9,624.2l-0.6-2l6.8-1.9l0,0l-5-0.9
	l-0.5-1.6l3.7-3.3l0,0l-6.7,1.9l-0.6-2l9.6-2.7l0.8,2.8l-3.6,3.4l4.9,1l0.8,2.8L42.9,624.2z M67.3,618.8l-7.1,0.9l4.1,4.1h-8.6
	l-1.3-5l2.2-2.5l0.1,5.1l8.5-6.7l3.6,1.1L67.3,618.8z M88.2,616.7l-7.7-0.1l4.6,6.2l-0.4,1.1h-8.1l4-3.8l-7.1-1.1l-0.8-1.8l2.7,0.8
	l-1.2-3.3L90,611l1.4,1.3L88.2,616.7z M94,614.6l4.8,4.4l-3.8-1.2L94,614.6z M103,623.9h-6.1l4.1-2.9l0.3,0.3l1.8,1.8L103,623.9z
	 M111,604.4l-4.7,9.2l-3,0.4l0.7-8.5l6.9-4V604.4z M111,593.6l-7.9-3.3l-3.5-16.8l-11.2,13l-17-1.9l8.9,14.6l-6.5,14.4l-2.1-5.8
	L78,599l-10.8,0.4l-6.5-8.7l-3,10.4l-10.3,3.5l9,6l0,0.1l-5.6-0.4l-5.3-8.9l-3.8,9.7l-3.8,0.9l1.7-9.1l11-4.9l-10.6-5.7l-1.3-12
	l-8.7,8.3l-10.7-2.3V470.4H111V593.6z M111,460.3H19.2V353.5H111V460.3z M111,343.3H19.2V234.6H111V343.3z M111,224.4H19.2V109.7
	h35.3l2.4,5.8l-6.6,10.3l12.2-1l7.7,9.4l2.8-11.9l11.4-4.4L74,111.5l-0.1-1.9H111V224.4z M158.7,623.9l2.2-1.8l6.5,1.8H158.7z
	 M172.1,622.8l-12.6-4.4l1.8-1.9l2.8,1l2.7-2.9l1,2.5l-1.3,1.3l4.8,1.8l0,0l-2-4.7l0,0l-1-2.5l0,0l-1.1-2.8l1.7-1.8l5.1,12.4
	L172.1,622.8z M174.3,615.9l-2.5-6.2l2.2-3.3l2.4,2.4l-1.3,7L174.3,615.9z M178,623.9h-0.5l-2.4-5.9l0,0l3.3,3.4L178,623.9z
	 M180.7,615.2L180.7,615.2L180.7,615.2L180.7,615.2z M189.5,623.9l-0.3-2.3l3.9-3.6l1.4,0.7l0.5,5.1H189.5z M194.8,609.5l-4.4,2
	l-0.4-2.3l5.9-5.6L194.8,609.5z M201.1,623.9l2-1.9l8.8,1.9H201.1z M212.9,623.3l-4-8.6l2.2-3.7l3.1,2.8L212.9,623.3z M220.5,623.9
	l4.6-2.7l5.6,2.7H220.5z M226.6,592.3l1.1,0.4l1.1,3.6L226.6,592.3z M238.7,623.9h-0.8l-2.3-10.9l3.1-3.2V623.9z M238.7,601.4
	l-7.7-0.8l-0.5-0.9l4.2-5.7l4,0.1V601.4z M238.7,588.4l-0.6-0.9l0.6-1.7V588.4z M238.7,580.6l-5.6,1.8l-6.4-4.9l0,8.1l-2.7,1.9
	l0-0.1l0,0.1l-3.9,2.7l2.4,0.8l-4.5,10.2l-14.7,2.7l3.2,2.9l-2.5,0.3l-7-7.8l-0.6,3.3l-8.6-1.4l-4.1-8.6l-4.3,8.5l-1.5,0.2l4.6-6.9
	l-18.6,1.3l-11.6-14.6l-4.1,16.2V470.4h90.8V580.6z M239.3,460.3h-91.8V353.5h91.8V460.3z M239.3,343.3h-91.8V234.6h91.8V343.3z
	 M239.3,224.4h-91.8V109.7h38.8l-0.5,1.7l-11.2,3.8l9.9,6.6l0.2,11.9l9.3-7.3l11.3,3.5l-4.1-11.1l6.4-9h31.8V224.4z M276.3,624.4
	v-10.2l2.5,1.6l0.3,8.6H276.3z M288,624.4l3.4-2.8l9.7,2.8H288z M306,624.4l-2.4-6.1l4.6,1.9l0.9,4.2H306z M337.9,614.8l-3.6-2.2
	l-0.3-6l4.5,6.7L337.9,614.8z M343.2,624.4l4.1-1.2l1.4,1.2H343.2z M357.8,620.8l-2.7-0.2l0.4-6.9l-5.2,6.6l-3.3-0.2l5-6.7l-4.7-5.6
	l3.7,0.2l3,3.6l1.7-2.1l0.1-1.2l2.7,0.2L357.8,620.8z M367.1,624.4h-7.9l0.3-6.6l7.7-4.8V624.4z M367.1,607.9l-9.1-3.3l-0.9-3.4
	l5.7-0.9l4.2,4.5V607.9z M367.1,586.3l-4.1,4.1l-6.8-1.3l3.1,6.2l-2.5,4.6l-2.5-9.8l-9.3,11.8l-15-1l3.8,5.7l-4.6,4l-5.9-1.6
	l2.4,5.7l-3.3,5.2l6.1-0.5l3.9,4.8l1.4-6l3.3-1.3l-3,7.6h-20.4l2-2.3l8.6,0.9l-4.6-7.4l3.5-7.9l-8.4,2.1l-6.5-5.8l-0.7,8.7l-5.1,3
	l-1.6-4.2l8.9-13l-15.7,0.9l-9.6-12.4l-4,15.2l-4.1,1.5V470.8h90.8V586.3z M367.6,460.3h-91.8V353.5h91.8V460.3z M367.6,343.3h-91.8
	V234.6h91.8V343.3z M367.6,224.4h-91.8V109.7h35.3l0.5,3.6l-8.4,7.8l11.3,1.9l4.8,10.4l5.3-10.1l11.3-1.4l-8-8.2l0.8-4h38.9V224.4z
	 M404.7,624.4v-4.3l4.8-0.1l3.2,4.4H404.7z M427.3,624.4h-6.2l2-6.8l2.6-0.8l2.8,3.2L427.3,624.4z M440.7,624.4l-0.3-3.4l2.2-1.8
	l6.5,1.9l1.1,3.3H440.7z M458.7,624.4l1.2-1.8l12.3-0.1l-7.6-9.7l0.1-0.2l12.2,7.7l0.4,4.2H458.7z M465.2,611l0.4-1.4l5.1-3.1
	l2.9,1.3L465.2,611z M475.4,602.6l3.5-3.9l-1.4,7.5l-1.2,0.5L475.4,602.6z M487.5,624.2l-10.1-6.9l5-7.4l1.9,1.3l-3.6,5.2l2.3,1.6
	l3.2-4.6l2,1.3l-3.2,4.6l2.1,1.5l3.9-5.7l1.9,1.3L487.5,624.2z M495.5,603l-4.9,0.3l-5.6-6.8l4-0.3l3.6,4.6l1.4-5.7l1.5-0.6V603z
	 M495.5,590.6l-1-0.6l-0.3-5.8l-4.5,3.8l-5.6-1.6l2.2,5.4l-2.3,3.6l-3.7-4.5l-1.2,6.7l-5.9-0.5l-3.4-5.8l-2.6,6.2l-6.6,1.4l4,3.4
	l-7.8,2.8l-10-7.2l0.4,12.3l-5.6,4.1l-2.9-0.7l-3-7.8l-2.2,3.6l-8.4-5.8l-0.1-15.7l-12.4,9.6l-7.9-2.5V470.8h90.8V590.6z
	 M495.9,460.3h-91.8V353.5h91.8V460.3z M495.9,343.3h-91.8V234.6h91.8V343.3z M495.9,224.4h-91.8V109.7h34.4l-5.5,1.2l8.5,7.7
	l-1,11.8l9.4-6.2l10.2,4.8l-2.7-11.5l6.5-7.8h31.9V224.4z M533.1,624.4v-6l4.1,0.4l3.2,5.7H533.1z M549.8,624.4h-4l2.7-6.3l0.5-0.1
	l2.2,3.2L549.8,624.4z M553.7,617.1l-0.3,0l0.4-0.1L553.7,617.1z M556,611.1l2-0.7l2.1,1.5l-2.6,0.4L556,611.1z M562.8,624.4h-3.9
	l0.1-1.6l4.5-2.7L562.8,624.4z M563.5,619.9l-5-1.8l-0.5-1.9l2.8-0.6l2.9,2.8L563.5,619.9z M567.4,624.4l2.7-1.5l2.9,1.5H567.4z
	 M577.4,624.4l-1-5.3l9,4.3l0.2,1.1H577.4z M600.8,624.3l-4.6-8.8l-3.4,1.8l-1-2l9.3-4.8l1,2l-3.4,1.8l4.6,8.8L600.8,624.3z
	 M608.8,616.1l-4.9,1.6l4.3,3l0,3.8h-1.5l-3.8-6.9l1.1-2.2l5.3-0.7L608.8,616.1z M623.9,624.4h-14l2.2-1.7l4.9,1.6l-1.7-4.9l1.8-2.4
	l6.5,7.1l0.3-1.4V624.4z M612.3,614l1.9-0.3l1.4,1.5l-2.3,0L612.3,614z M623.9,585.3l-8.9,8.5l-13.7-2.9l6,12.6l-1.7,3l-9.6,1.8
	l-9-9l-1.7,12.7l-5.6,2.9l2.8-2.8l-8.7-1.1l-4-7.8L566,611l-4.4,0.7l0-3.1l3.6-2.6l-4.3-1.3l-1.3-4.3l-2.6,3.6l-4.5-0.1l2.7,3.6
	l-0.7,2.2l-3.1-2.7l1.5-12.8l-11,6.6l-8.8-4V470.8h90.8V585.3z M624.3,460.3h-91.8V353.5h91.8V460.3z M624.3,343.3h-91.8V234.6h91.8
	V343.3z M624.3,224.4h-91.8V109.7h38l0.1,4l-9,6.4l10.5,3.3l3.3,10.5l6.4-9l11,0.1l-6.6-8.8l2.2-6.4h36V224.4z M673.4,624.4h-11.9
	V611l1.4,0.4l4,12.5l4.9-7.1l2.8,4.1L673.4,624.4z M673.4,607.7l4.4-0.2l0.1,2.6l-12.2,0.4l-0.1-2.6l5.2-0.2l-0.2-5.7l-5.2,0.2
	l-0.1-2.6l12.3-0.4l0.1,2.6l-4.4,0.2L673.4,607.7z M677.5,615.9l-4.8-0.2l1.7-2.5l5.2,0L677.5,615.9z M683.8,624.4l0-1.7l0.6-0.4
	l10,1.7l0.1,0.3H683.8z M705.2,624.4L705.2,624.4l12.1-1.5l-8.5-8.7l0.2-1l6.2-1.5l4.9,4.4l0.5-6.6l2.2-1.3l-0.2,0.3l10-0.7
	l-3.2,3.8l-7.1-0.8l3.7,6.1l-2.9,6.6l7-1.7l2.9,2.6H705.2z M709.1,612.4l1.3-6.8l1,1.5L709.1,612.4z M744.2,617.6l-5.9,2.3l5.4,3.3
	l0.1,1.1h-8.2l0.4-5l6.2-3.6l-6.6-2.8l-1.2-5.5l4.4-0.3l6,7.6L744.2,617.6z M752.3,616.2l-2.4,0.2l2.4-9.8V616.2z M752.3,574.7
	l-11.2,9.4l-15.7-4.3l6.1,15.1l-6.9,10.5l-4.4-1.8l-1.4-6.5l-4.3,5.1l-6.6-0.6l1.1,1.7l-8.8,4.3l-10.6-5.9l1.8,12.1l-4.8,4.5
	l-3.4-1.2l-1-3.8l5.5,0l-8-10.4l4.1-12.5l-12.4,4.4l-9.8-7.1V470.8h90.8V574.7z M752.6,460.3h-91.8V353.5h91.8V460.3z M752.6,343.3
	h-91.8V234.6h91.8V343.3z M752.6,224.4h-91.8V109.7h40.8l-0.5,1.9l-11.7,4.1l10.4,6.8l0.3,12.4l9.6-7.8l11.9,3.5l-4.4-11.6l6.4-9.3
	h29V224.4z"/>
<path class="st1" d="M127.7,87l0.6,556.7 M256.6,643.7L255.9,87 M384.8,643.7L384.2,87 M514,643.7L513.4,87 M641.3,643.7L640.7,87
	 M769.6,643.7L768.9,87"/>
</svg>
