<?xml version="1.0" encoding="utf-8"?>
<!-- Generator: Adobe Illustrator 27.6.1, SVG Export Plug-In . SVG Version: 6.00 Build 0)  -->
<svg version="1.1" id="Paper_Pumpkin_Boo" xmlns="http://www.w3.org/2000/svg" xmlns:xlink="http://www.w3.org/1999/xlink" x="0px"
	 y="0px" viewBox="0 0 1646.8 1963.9" style="enable-background:new 0 0 1646.8 1963.9;" xml:space="preserve">
<style type="text/css">
	.st0{fill:#E6E7E8;}
	.st1{fill:#F7941D;}
	.st2{fill:#8DC63F;}
</style>
<path id="DiffuserF_Cut" class="st0" d="M1500.5,1612.6c0.2,0.9,0.2,1.8,0.1,2.7c-0.2,2.5,1.2,4.9,3.5,6c1.7,0.8,4.3,1.2,5.5,1.2
	h37.7c4.1,0,7.9,2.4,9.6,6.2c0,0,0,0.1,0,0.1c6.9,15.6,21.2,48,20.9,122.4c-0.5,81.8-22.4,160.6-29.9,178.6
	c-0.5,1.1-1.5,1.9-2.6,1.9h-40.1c-4.9,0-8.9,4.1-8.9,9.1v3.9l-0.1,6.3c-0.2,13.1-5,13.1-7.5,13.1H1410c-6.1,0-7-6.7-7-10.8v-12.5
	c0-5-4-9.1-8.9-9.1h-40c-0.7,0-1.3-0.4-1.7-1.2c-5.7-11.8-27.6-76.9-29.9-179.4c-1.7-73.7,13.4-106.5,20.6-122.3
	c0-0.1,0.1-0.2,0.1-0.2c1.7-3.7,5.4-6.1,9.5-6.1h37.5c1.1,0,3.4-0.2,5.2-1c2.5-1.1,4-3.6,3.8-6.3c-0.1-0.7,0-1.5,0.1-2.2l3.4-23.2
	c2.5-16.8,16.9-29.3,34-29.3h38.4c10.2,0,18.7,7.7,19.8,17.8c0,0.2,0,0.4,0.1,0.6L1500.5,1612.6z"/>
<path id="DiffuserE_Cut" class="st0" d="M1223,1612.6c0.2,0.9,0.2,1.8,0.1,2.7c-0.2,2.5,1.2,4.9,3.5,6c1.7,0.8,4.3,1.2,5.5,1.2h37.7
	c4.1,0,7.9,2.4,9.6,6.2c0,0,0,0.1,0,0.1c6.9,15.6,21.2,48,20.9,122.4c-0.5,81.8-22.4,160.6-29.9,178.6c-0.5,1.1-1.5,1.9-2.6,1.9
	h-40.1c-4.9,0-8.9,4.1-8.9,9.1v3.9l-0.1,6.3c-0.2,13.1-5,13.1-7.5,13.1h-78.4c-6.1,0-7-6.7-7-10.8v-12.5c0-5-4-9.1-8.9-9.1h-40
	c-0.7,0-1.3-0.4-1.7-1.2c-5.7-11.8-27.6-76.9-29.9-179.4c-1.7-73.7,13.4-106.5,20.6-122.3c0-0.1,0.1-0.2,0.1-0.2
	c1.7-3.7,5.4-6.1,9.5-6.1h37.5c1.1,0,3.4-0.2,5.2-1c2.5-1.1,4-3.6,3.8-6.3c-0.1-0.7,0-1.5,0.1-2.2l3.4-23.2
	c2.5-16.8,16.9-29.3,34-29.3h38.4c10.2,0,18.7,7.7,19.8,17.8c0,0.2,0,0.4,0.1,0.6L1223,1612.6z"/>
<path id="DiffuserD_Cut" class="st0" d="M934.9,1612.6c0.2,0.9,0.2,1.8,0.1,2.7c-0.2,2.5,1.2,4.9,3.5,6c1.7,0.8,4.3,1.2,5.5,1.2
	h37.7c4.1,0,7.9,2.4,9.5,6.2c0,0,0,0.1,0,0.1c6.9,15.6,21.2,48,20.9,122.4c-0.5,81.8-22.4,160.6-29.9,178.6
	c-0.5,1.1-1.5,1.9-2.6,1.9h-40.1c-4.9,0-9,4.1-9,9.1v3.9l-0.1,6.3c-0.2,13.1-5,13.1-7.5,13.1h-78.5c-6.1,0-7-6.7-7-10.8v-12.5
	c0-5-4-9.1-9-9.1h-40c-0.7,0-1.3-0.4-1.7-1.2c-5.7-11.8-27.6-76.9-29.9-179.4c-1.7-73.7,13.4-106.5,20.6-122.3
	c0-0.1,0.1-0.2,0.1-0.2c1.7-3.7,5.4-6.1,9.5-6.1h37.5c1.1,0,3.4-0.2,5.2-1c2.5-1.1,4-3.6,3.8-6.3c-0.1-0.7,0-1.5,0.1-2.2l3.5-23.2
	c2.5-16.8,17-29.3,34-29.3h38.4c10.2,0,18.7,7.7,19.8,17.8c0,0.2,0,0.4,0.1,0.6L934.9,1612.6z"/>
<path id="DiffuserC_Cut" class="st0" d="M1500.5,1159.9c0.2,0.9,0.2,1.8,0.1,2.7c-0.2,2.5,1.2,4.9,3.5,6c1.7,0.8,4.3,1.2,5.5,1.2
	h37.7c4.1,0,7.9,2.4,9.6,6.2c0,0,0,0.1,0,0.1c6.9,15.6,21.2,48,20.9,122.4c-0.5,81.8-22.4,160.6-29.9,178.6
	c-0.5,1.1-1.5,1.9-2.6,1.9h-40.1c-4.9,0-8.9,4.1-8.9,9.1v3.9l-0.1,6.3c-0.2,13.1-5,13.1-7.5,13.1H1410c-6.1,0-7-6.7-7-10.8v-12.5
	c0-5-4-9.1-8.9-9.1h-40c-0.7,0-1.3-0.4-1.7-1.2c-5.7-11.8-27.6-76.9-29.9-179.4c-1.7-73.7,13.4-106.5,20.6-122.3
	c0-0.1,0.1-0.2,0.1-0.2c1.7-3.7,5.4-6.1,9.5-6.1h37.5c1.1,0,3.4-0.2,5.2-1c2.5-1.1,4-3.6,3.8-6.3c-0.1-0.7,0-1.5,0.1-2.2l3.4-23.2
	c2.5-16.8,16.9-29.3,34-29.3h38.4c10.2,0,18.7,7.7,19.8,17.8c0,0.2,0,0.4,0.1,0.6L1500.5,1159.9z"/>
<path id="DiffuserB_Cut" class="st0" d="M1223,1159.9c0.2,0.9,0.2,1.8,0.1,2.7c-0.2,2.5,1.2,4.9,3.5,6c1.7,0.8,4.3,1.2,5.5,1.2h37.7
	c4.1,0,7.9,2.4,9.6,6.2c0,0,0,0.1,0,0.1c6.9,15.6,21.2,48,20.9,122.4c-0.5,81.8-22.4,160.6-29.9,178.6c-0.5,1.1-1.5,1.9-2.6,1.9
	h-40.1c-4.9,0-8.9,4.1-8.9,9.1v3.9l-0.1,6.3c-0.2,13.1-5,13.1-7.5,13.1h-78.4c-6.1,0-7-6.7-7-10.8v-12.5c0-5-4-9.1-8.9-9.1h-40
	c-0.7,0-1.3-0.4-1.7-1.2c-5.7-11.8-27.6-76.9-29.9-179.4c-1.7-73.7,13.4-106.5,20.6-122.3c0-0.1,0.1-0.2,0.1-0.2
	c1.7-3.7,5.4-6.1,9.5-6.1h37.5c1.1,0,3.4-0.2,5.2-1c2.5-1.1,4-3.6,3.8-6.3c-0.1-0.7,0-1.5,0.1-2.2l3.4-23.2
	c2.5-16.8,16.9-29.3,34-29.3h38.4c10.2,0,18.7,7.7,19.8,17.8c0,0.2,0,0.4,0.1,0.6L1223,1159.9z"/>
<path id="DiffuserA_Cut" class="st0" d="M934.9,1159.9c0.2,0.9,0.2,1.8,0.1,2.7c-0.2,2.5,1.2,4.9,3.5,6c1.7,0.8,4.3,1.2,5.5,1.2
	h37.7c4.1,0,7.9,2.4,9.5,6.2c0,0,0,0.1,0,0.1c6.9,15.6,21.2,48,20.9,122.4c-0.5,81.8-22.4,160.6-29.9,178.6
	c-0.5,1.1-1.5,1.9-2.6,1.9h-40.1c-4.9,0-9,4.1-9,9.1v3.9l-0.1,6.3c-0.2,13.1-5,13.1-7.5,13.1h-78.5c-6.1,0-7-6.7-7-10.8v-12.5
	c0-5-4-9.1-9-9.1h-40c-0.7,0-1.3-0.4-1.7-1.2c-5.7-11.8-27.6-76.9-29.9-179.4c-1.7-73.7,13.4-106.5,20.6-122.3
	c0-0.1,0.1-0.2,0.1-0.2c1.7-3.7,5.4-6.1,9.5-6.1h37.5c1.1,0,3.4-0.2,5.2-1c2.5-1.1,4-3.6,3.8-6.3c-0.1-0.7,0-1.5,0.1-2.2l3.5-23.2
	c2.5-16.8,17-29.3,34-29.3h38.4c10.2,0,18.7,7.7,19.8,17.8c0,0.2,0,0.4,0.1,0.6L934.9,1159.9z"/>
<path id="BottomBase_Cut" class="st1" d="M1644.4,838.7c1.4-8.8,2.2-17.8,2.4-27c0-1.9-1.5-3.5-3.4-3.5h-42.3
	c-0.7,0-1.2-0.5-1.2-1.2v0c0-0.7,0.6-1.2,1.2-1.2h42.3c1.9,0,3.4-1.5,3.4-3.5c-0.2-9.2-1.1-18.2-2.4-27c-0.4-2.4-1.2-4.8-2.5-6.9
	L1577.6,657c-1.2-2.1-2.8-4-4.7-5.6c-7.2-5.8-14.7-11.2-22.6-16c-1.3-0.8-3-0.3-3.8,1l-21.5,37.2c-0.3,0.6-1.1,0.8-1.7,0.5
	c-0.6-0.3-0.8-1.1-0.5-1.7l21.5-37.2c0.8-1.3,0.3-3-1-3.8c-8.1-4.5-16.5-8.4-25.2-11.7c-2.3-0.9-4.8-1.3-7.2-1.3h-128.6
	c-2.5,0-4.9,0.4-7.2,1.3c-8.5,3.2-16.8,7.1-24.7,11.4c-1.7,0.9-2.2,3-1.3,4.6l21.2,36.6c0.3,0.6,0.1,1.4-0.5,1.7
	c-0.6,0.3-1.3,0.1-1.7-0.5l-21.2-36.7c-0.9-1.6-3.1-2.2-4.7-1.2c-7.7,4.7-15.1,10-22.1,15.7c-1.9,1.5-3.5,3.5-4.7,5.6l-64.3,111.4
	c-1.2,2.1-2.1,4.5-2.5,6.9c-1.4,9-2.3,18.1-2.4,27.5c0,1.6,1.3,3,2.9,3h42.8c0.7,0,1.2,0.6,1.2,1.2c0,0.7-0.6,1.2-1.2,1.2h-42.8
	c-1.6,0-2.9,1.3-2.9,3c0.2,9.3,1,18.5,2.4,27.5c0.4,2.4,1.2,4.8,2.5,6.9l64.3,111.4c1.2,2.1,2.8,4,4.7,5.6
	c7.1,5.7,14.5,11,22.3,15.8c1.5,0.9,3.4,0.4,4.3-1.1l20.9-36.2c0.4-0.7,1.3-1.2,2.1-1.2l0,0c0.6,0.3,0.8,1.1,0.5,1.7l-21.3,36.9
	c-0.9,1.5-0.3,3.4,1.2,4.3c8,4.4,16.3,8.2,24.9,11.5c2.3,0.9,4.8,1.3,7.2,1.3h128.6c2.5,0,4.9-0.4,7.2-1.3
	c8.7-3.3,17.1-7.2,25.2-11.7c1.4-0.8,1.9-2.5,1.1-3.9l-21.4-37.1c-0.3-0.6-0.1-1.4,0.5-1.7c0.6-0.3,1.3-0.1,1.7,0.5l21.4,37.1
	c0.8,1.4,2.6,1.8,3.9,1c7.9-4.8,15.4-10.1,22.6-15.9c1.9-1.5,3.5-3.5,4.7-5.6l64.3-111.4C1643.1,843.5,1644,841.1,1644.4,838.7z
	 M1392.8,627.7c0-0.7,0.6-1.3,1.3-1.3h104.2c0.7,0,1.4,0.4,1.6,1.1c0.4,1.1-0.5,2.2-1.5,2.2h-104c-0.9,0-1.6-0.7-1.6-1.6
	L1392.8,627.7L1392.8,627.7z M1315.9,942.6c-0.7,0.2-1.4-0.2-1.8-0.8l-51.9-89.9c-0.3-0.6-0.3-1.4,0.1-1.9c0.8-0.9,2.1-0.7,2.6,0.3
	l52,90C1317.5,941.1,1317.1,942.3,1315.9,942.6z M1318.1,672.4l-52,90c-0.3,0.6-1.1,1-1.8,0.8c-1.2-0.2-1.6-1.5-1.1-2.4l52-90
	c0.3-0.6,1.1-1,1.8-0.8C1318.1,670.3,1318.6,671.5,1318.1,672.4z M1498.5,987.7h-103.7c-1.1,0-2-0.9-2-2l0,0c0-0.6,0.3-1.3,1.9-1.3
	h0.3h103.4c0.7,0,1.4,0.4,1.6,1.1C1500.4,986.7,1499.6,987.7,1498.5,987.7z M1447.4,914.8c-60.3,0.5-109.2-48.4-108.7-108.7
	c0.5-58.5,48.3-106.3,106.8-106.8c60.3-0.5,109.2,48.4,108.7,108.7C1553.7,866.5,1505.9,914.3,1447.4,914.8z M1572.9,670.5l0.3-0.2
	c0.7-0.4,1.7-0.2,2.1,0.5l52.3,90.6c0.3,0.6,0.1,1.3-0.4,1.7l-0.7,0.4c-0.6,0.3-1.3,0.1-1.7-0.4l-52.3-90.6
	C1571.9,671.8,1572.2,670.9,1572.9,670.5z M1573.9,942.1c-0.7-0.4-0.9-1.2-0.5-1.8l52.3-90.6c0.3-0.6,1.1-0.8,1.7-0.5l0.6,0.3
	c0.6,0.3,0.8,1.1,0.5,1.7l-52.3,90.6c-0.4,0.7-1.2,0.9-1.8,0.5L1573.9,942.1z"/>
<path id="TopBase_Cut_00000028306223843905492240000013681371298322224802_" class="st1" d="M1208.3,828c0.8-7.2,1.2-14.3,1.2-21.5
	c0-0.7-0.5-1.2-1.2-1.2h-41.7c-0.7,0-1.2-0.5-1.2-1.2c0-0.6,0.5-1.1,1.2-1.1h41.7c0.7,0,1.2-0.5,1.2-1.2c-0.1-7.3-0.6-14.5-1.4-21.7
	c-0.5-4.6-2-9-4.3-12.9l-75-129.9c-2.2-3.8-5.1-7.1-8.7-9.7c-5.7-4.2-11.6-8.2-17.8-11.8c-0.9-0.6-2.2-0.2-2.7,0.7l-20.4,35.4
	c-0.3,0.6-1,0.8-1.6,0.4c-0.6-0.3-0.8-1-0.4-1.6l20.4-35.4c0.5-0.9,0.2-2.2-0.7-2.7c-6.6-3.7-13.2-7-20-9.9
	c-3.4-1.5-7.2-2.2-10.9-2.2H915.9c-5.3,0-10.5,1.1-15.3,3.3c-5.9,2.6-11.7,5.5-17.4,8.7c-1.1,0.6-1.5,2-0.9,3.1l20.3,35.2
	c0.3,0.5,0.1,1.2-0.4,1.6c-0.6,0.3-1.3,0.2-1.6-0.4l-20.2-35.1c-0.6-1.1-2-1.5-3.1-0.8c-5.5,3.3-10.9,6.9-16.1,10.7
	c-4.4,3.2-8,7.2-10.7,11.9L776,767.2c-2.4,4.1-3.9,8.6-4.4,13.3c-0.7,6.8-1.2,13.6-1.2,20.5c0,1.3,1,2.3,2.3,2.3h40.5
	c0.7,0,1.2,0.5,1.2,1.2c0,0.6-0.5,1.1-1.2,1.1h-40.5c-1.3,0-2.3,1.1-2.3,2.3c0.1,7.3,0.6,14.5,1.4,21.7c0.4,3.7,1.6,7.3,3.5,10.6
	l79.1,137c7.5,5.8,15.4,11.2,23.7,16.2c0.6,0.3,1.3,0.1,1.6-0.4l20.8-36.1c0.3-0.6,1-0.8,1.6-0.4s0.8,1,0.4,1.6l-20.8,36.1
	c-0.3,0.6-0.1,1.3,0.4,1.6c6.4,3.6,13,6.9,19.6,9.8c4.1,1.8,8.5,2.7,13,2.7H1065c4.4,0,8.7-0.9,12.7-2.6c6.8-3,13.4-6.3,19.9-9.9
	c0.6-0.3,0.8-1,0.4-1.6l-20.8-36.2c-0.3-0.5-0.1-1.2,0.4-1.6c0.6-0.3,1.3-0.2,1.6,0.4l20.8,36.1c0.3,0.6,1.1,0.8,1.6,0.4
	c5.8-3.4,11.4-7.1,16.9-11.1c4.5-3.3,8.3-7.5,11.2-12.3l74-128.1C1206.2,837.6,1207.8,832.9,1208.3,828z M853.7,947.6
	c-0.6,0.3-1.3,0.2-1.6-0.4l-56.5-97.8c-0.3-0.5-0.1-1.2,0.4-1.6c0.6-0.3,1.3-0.2,1.6,0.4l56.5,97.8
	C854.5,946.6,854.3,947.2,853.7,947.6z M855.2,660.2L798.8,758c-0.3,0.6-1,0.8-1.6,0.4s-0.8-1-0.4-1.6l56.5-97.8
	c0.3-0.6,1-0.8,1.6-0.4C855.4,659,855.6,659.7,855.2,660.2z M1044.5,994.3H931.6c-0.7,0-1.2-0.5-1.2-1.2c0-0.6,0.5-1.1,1.2-1.1
	h112.9c0.7,0,1.2,0.5,1.2,1.2C1045.6,993.8,1045.1,994.3,1044.5,994.3z M949.3,798.2c-0.5,0.8-1.4,1.3-2.3,1.2
	c-0.6-0.1-0.7,0-0.8-0.1l0,0c-0.1-0.1-0.1-0.3,0-0.4l17.1-29.6c0.1-0.2,0.3-0.2,0.4-0.2c0,0,0,0,0.1,0.1c0.9,0.8,1.2,2,0.6,3.1
	L949.3,798.2z M964.4,836.5c0.6,1.1,0.4,2.6-0.7,3.2l0,0l0,0c-0.1,0.1-0.3,0-0.4-0.2l-17.2-29.6c-0.1-0.2-0.1-0.4,0.1-0.4
	c0.1-0.1,0.3-0.1,0.4-0.2c1-0.3,2.2,0.2,2.7,1.1L964.4,836.5z M1004.9,766.4h-30c-1.2,0-2.2-0.9-2.4-2c0-0.2-0.1-0.3-0.1-0.3
	c0-0.1,0.2-0.3,0.3-0.3h34.2c0.2,0,0.4,0.1,0.3,0.3c0,0.1,0,0.2-0.2,0.6C1006.9,765.6,1006,766.4,1004.9,766.4z M1033.6,799.3
	c-0.1,0-0.2,0-0.9,0.2c-1,0.2-2.1-0.2-2.7-1.1l-15-25.9c-0.6-1.1-0.3-2.5,0.8-3.2c0.2-0.1,0.2-0.2,0.3-0.2c0.1-0.1,0.3,0,0.4,0.2
	l17.1,29.6C1033.8,799.1,1033.8,799.3,1033.6,799.3z M1033.7,809.9l-17.1,29.6c-0.1,0.2-0.3,0.2-0.4,0.2c-0.1,0-0.1-0.1-0.4-0.5
	c-0.8-0.8-0.9-2-0.4-2.9l15-26c0.6-1,1.9-1.5,3-1c0.2,0.1,0.2,0.1,0.3,0.1C1033.8,809.6,1033.8,809.8,1033.7,809.9z M1046.4,614.5
	h-113c-0.7,0-1.2-0.5-1.2-1.2c0-0.6,0.5-1.1,1.2-1.1h112.9c0.7,0,1.2,0.5,1.2,1.2C1047.5,614,1047,614.5,1046.4,614.5z M1126,659.5
	c0.6-0.3,1.3-0.2,1.6,0.4l56.5,97.8c0.3,0.5,0.1,1.2-0.4,1.6c-0.6,0.3-1.3,0.2-1.6-0.4l-56.5-97.8
	C1125.3,660.5,1125.4,659.8,1126,659.5z M1124.7,948.4l56.5-97.8c0.3-0.6,1-0.8,1.6-0.4c0.6,0.3,0.8,1,0.4,1.6l-56.5,97.8
	c-0.3,0.6-1,0.8-1.6,0.4C1124.6,949.7,1124.4,949,1124.7,948.4z M975,842.4h30c1.2,0,2.2,0.9,2.4,2c0,0.2,0.1,0.3,0.1,0.3
	c0,0.1-0.2,0.3-0.3,0.3H973c-0.2,0-0.4-0.1-0.3-0.3c0-0.1,0-0.2,0.2-0.6C972.9,843.2,973.9,842.4,975,842.4z"/>
<path id="PanelF_Cut" class="st1" d="M619.6,1664.9l-2.3,18L619.6,1664.9z M622.9,1641l2.4-18L622.9,1641z M628.8,1602.4l2.3-18
	L628.8,1602.4z M535.4,1664.9l2.3,18L535.4,1664.9z M532,1641l-2.4-18L532,1641z M526.4,1602.6l-2.3-18L526.4,1602.6z M629.5,1237.2
	V1219V1237.2z M527.5,1237.2V1219V1237.2z M469.7,1567c0.6,1.6,2,2.6,3.7,2.6h19.4c1.9,0.2,28.4-0.6,29.3,0.6
	c1.3,0.6,0.7,2.6-0.7,2.6l-49.7-0.2c0,0,47,104.4,67.9,128c28.7,32.2,34.3,66.9,37,66.9c2.6,0,12.4-37.6,39.1-67.9
	c17.5-22,64.8-113.7,66.1-127l-46,0.1c-1.4,0-1.9-2-0.6-2.6c12.6-1.5,36.4-0.1,49-0.6c48-54.5,19.6-276.2-3.6-315.2
	c-1.2-2.4-3.6-4-6.2-4h-40c-1.8,0-2.8-0.9-3.4-2.1c-0.7-1.7,19.7-1,19.8-2.7c-0.7-10.3,3.7-37.8-12.4-37.5H519.9
	c-17.3-0.1-11.6,26.5-12.7,38.3c0,0.8,19.8,1.6,19.4,2.2c-0.7,1.1-1.9,1.9-3.3,1.9h-40.1c-3.1,0-6,1.9-7.2,4.9
	C449.5,1312.3,428.8,1504.2,469.7,1567z M555.2,1541.7h-10.9c-2.1-2.8-3.8-6.2-5-9.7c-0.8-6.2-1.1-13.8,2.8-18.9
	c2.1-1,6.1-4.2,8.6-5.4C546.7,1520.3,548.3,1531.7,555.2,1541.7z M477.1,1491.7c6.7,3,16.1,3.8,22.8,0.9c0.9-0.2,1.7-0.5,2.6-0.7
	c-1.8,4-1.9,6.6-6.9,7.5c-5.6,1.9-11.5,1.5-16.6-1.1c-0.3-0.1-0.6-0.2-0.9-0.4C477.8,1496,477.5,1493.9,477.1,1491.7z M523.3,1541.7
	h-3.7c-2.8-4.2-3-10.6-0.7-14.1c0.5-0.7,1.1-1.2,1.9-1.6C519.8,1531.4,521,1536.8,523.3,1541.7z M528.5,1521.5
	c1.7-0.8,3.3-2.3,5-3.2c-1.9,9.1-0.6,16.2,3.5,23.4h-6.7C526.3,1535.9,525.6,1526.6,528.5,1521.5z M509.8,1541.7
	c-1.3-2.5-1.6-6.1-0.6-8c0.5-0.8,1.2-1.4,2.2-1.8c-0.3,3.4,0.2,6.6,1.5,9.8H509.8z M485.9,1532.3c-0.6-1.9-1.2-4.2-1.9-6.7
	c1,0.1,2,0.2,2.9,0.2c0.5,0,1.1,0,1.6-0.1C487.6,1527.9,486.8,1530.1,485.9,1532.3z M499.3,1532.3c-2.8,1.6-4.6,2.5-9,5.3
	c0.7-1.7,1.7-4,2.4-5.4c0.9-1.9,1.4-3.1,1.7-4C496.5,1530.3,498.2,1531.5,499.3,1532.3z M498.3,1518.5c2.5,4.1,6.5,6.6,9.8,8.3
	C504.6,1530.5,495,1523.2,498.3,1518.5z M495.6,1541.7c2.3-1.4,4.6-2.9,6.9-4.2c0.2,1.7,0.5,3.1,0.8,4.2H495.6z M511.6,1521.6
	c-4.7-1.7-11.4-7.6-9.2-13.3c3.1,5.6,8.7,10.2,15.3,12.6C515.9,1522.1,513.9,1522.3,511.6,1521.6z M479.4,1505.4
	c2.8,1,5.9,1.6,9.1,1.6c2.8,0,5.7-0.4,8.6-1.2c-2.2,5.4-12.1,6.2-17,2.8C479.9,1507.5,479.7,1506.4,479.4,1505.4z M481.6,1515.7
	c2,0.6,4.1,0.9,6.2,0.9c1.6,0,3.2-0.2,4.8-0.5c0,0,0,0,0,0c-0.4,1.1-0.7,2.2-1.4,2.5c-2.3,1-6.3,1.5-8.9,0.2
	C482.1,1517.8,481.9,1516.8,481.6,1515.7z M543.5,1505c-11.9,9.4-28.7-5.6-31.4-17.8c-0.5-2.5,2.3-8.1,3.9-11.2
	c4.7,14.4,17,24.8,31.5,26.5C546.1,1503.2,544.8,1504.1,543.5,1505z M530.1,1513.2c-0.1,0-0.1,0.1-0.2,0.1
	c-4.1,3.1-6.4,3.9-11.5,1.3c-5.9-2.4-10.3-7.3-12.4-13.9c0-1.9,1.5-4.2,2.2-6.1C512.4,1503.9,520.3,1510.6,530.1,1513.2z
	 M500.1,1486.2c-7.6,3.2-16.4,2.6-24-1.9c-0.4-3.3-0.8-6.7-1.1-10.3c10.3,5.1,23.6,5.5,35.3-1C508,1478.7,507.1,1484.7,500.1,1486.2
	z M600.4,1504.6c-1.9-0.1-2.5,0-3-1.7c-0.8-3-0.7-11,0.4-12.5c1.5-3.2,6.3-3.4,7.1,0.3c0.3,1.7,0.5,4.2,0.5,7.5
	C605.8,1501.7,605,1504.8,600.4,1504.6z M607.3,1531.4c-2.5,2.2-6,2.8-7.3-0.9c-1.7-4-0.7-9.5,2.9-11.7
	C608.9,1515.6,610.7,1528.2,607.3,1531.4z M667.6,1541.7h-32.7c8-5.7-2.1-12.4-5.4-21.8c-1.7-6.2-1-25,1-30.5
	c1-7.5,13.6-17.5,11.7-24.1c-3.4-8.3-13.9-6.8-26-7.8c-8.2-0.5-18,0.2-25.9,2.8c9.2-14.8,10.9-36.5,4.3-51.9
	c1.1-0.1,2.1-0.3,3.2-0.5c17.3-4.5,26.9-24.2,27.8-43.5c1.4-0.1,2.9-0.9,3.8-1.9c15.8-11.4,35.8-8.2,47.9,7.6c0.2,0,0.3,0,0.5,0
	c1.5,12,2.8,25.4,4,40.1C689.6,1503.9,667.6,1541.7,667.6,1541.7z M585.2,1278.5l9.1,0c0.3,0.1,0.6,0.2,1,0.2
	c9.3,7.3,13.6,23.8,6.2,34c-2.1,1-6.2,4-8.8,5.1C597.9,1303.2,595.2,1289.8,585.2,1278.5z M621.1,1339.1c-1.1-2.3-2.4-4.4-3.8-6.3
	c-5.7-6.3-13.1-9.4-20.7-10c1.2-0.6,2.3-1.3,3.4-2c12.2-9,28.6,6.4,30.8,18.7c0.4,2.5-2.6,8-4.2,11.1
	C625.3,1346.4,623.4,1342.5,621.1,1339.1z M604.4,1279.4c12-1,15.7,17.3,11,25.3c-1.7,0.8-3.4,2.2-5.1,3.1
	C612.9,1296.7,610.8,1288.6,604.4,1279.4z M613.5,1313c4.2-3,6.6-3.9,11.7-1c5.8,2.5,10,7.6,12,14.2c0,1.9-1.6,4.1-2.4,6
	C630.9,1322.7,623.3,1315.8,613.5,1313z M630.2,1282.1c4.7-0.6,6.7,7.7,4.9,11c-0.5,0.8-1.2,1.3-2.3,1.8
	C633.4,1290.4,632.5,1286.3,630.2,1282.1z M632.2,1305c4.7,1.8,11.2,7.9,8.8,13.5c-2.9-5.7-8.4-10.5-14.9-13
	C627.9,1304.5,630,1304.3,632.2,1305z M646.3,1321.4c3-6.9,18.8-5.7,19.7,1.7C660.2,1320.2,653.2,1319.6,646.3,1321.4z
	 M668.8,1337.4l0.3-0.1c0.1,0.2,0.1,0.5,0.2,0.7c-6.4-4.7-18.1-6.7-26.2-3.6c-0.9,0.2-1.8,0.4-2.6,0.6c0.6-1.7,1.8-3.4,2.4-5.2
	c5.9-4.1,15-4,21.1-0.6C667.9,1330.4,668.7,1333.6,668.8,1337.4z M651.1,1311.1c0.4-1.1,0.8-2.2,1.4-2.5c3.5-1.4,11.1-1.6,11.2,3.7
	C659.6,1310.7,655.2,1310.3,651.1,1311.1z M651.5,1295.1c-0.9,1.8-1.5,3.1-1.8,3.9c-2-2.2-3.7-3.4-4.7-4.3c2.8-1.5,4.7-2.4,9.1-5
	C653.3,1291.5,652.2,1293.7,651.5,1295.1z M649.7,1284.9c-2.6,1.5-5.3,3.1-7.9,4.5c-0.3-2.9-0.8-5-1.2-6.2c1.8,0.3,6.2,0.8,10.1,1.1
	C650.4,1284.5,650.1,1284.7,649.7,1284.9z M645.6,1308.3c0,0.1-0.1,0.2-0.1,0.2c-2.4-4.1-6.3-6.8-9.6-8.6
	C639.4,1296.4,648.7,1303.8,645.6,1308.3z M625.1,1298.9c-0.5,0.7-1.2,1.2-1.9,1.5c1.5-6.8-0.6-13.9-4.1-19.6
	C627,1282.3,628.5,1293.9,625.1,1298.9z M642.7,1340.8c7.8-3,16.6-2.1,24.2,2.7c4.8,2.1,4.8,6.4,5.7,11.2l0.1,0
	c0.2,1,0.5,2.1,0.7,3.1c-10.2-8.7-26.7-11.6-41.2-4.1C634.7,1348.1,635.7,1342.1,642.7,1340.8z M655.4,1301.6
	c1.4-3.1,2.6-6.3,4.1-9.4c0.4,3.4,1.4,6.5,2.2,10C659.5,1301.7,657.5,1301.5,655.4,1301.6z M589.4,1358.9c7.6,1,10.4,8.5,10.8,17.3
	c0.1,7.3-0.6,22.2-9.9,18.8C580.1,1389.9,576,1361.7,589.4,1358.9z M573.1,1444c0.1,7.3-0.6,22.2-9.9,18.8
	c-10.2-5.1-14.4-33.3-0.9-36.1C569.9,1427.7,572.7,1435.2,573.1,1444z M474.4,1410.1c5.9-79.8,21.7-131.6,21.7-131.6l37.5,0
	c-6.6,8.8-2.3,25.6,11.4,24.7c10.4-2.8,16-16.9,10.8-24.7l20.3,0c11.9,9.1,18.5,26.6,7,45.2c-0.2,0.2-0.3,0.5-0.4,0.8
	c-8.3,2.6-15.8,8.1-20.3,15.7c-0.7-2-1.8-4-3.3-6.1c-4.4-7-3.7-4.8-4.3-13.4c-0.3-4.3-0.7-7.3-1.4-8.8c-1.8-3.9-7.7-6.3-11.3-3.8
	c-5.9,3.5-3.9,18.6-5.5,23.2c-2,6.4-10.3,15.4-5.1,22.8c3.5,5.2,14.5,9,21.7,4.4c1.9-0.9,3.5-1.9,4.8-3.1c0,1.1,0,2.3,0.1,3.4
	c-0.3,10.2,2.3,22.1,7.5,31.7c-18.1,0.6-36.1,15.1-34.6,36c-0.6,22.8,12.9,54.1,38.6,49.3c-6.2,11.6-4.5,26.4,9.8,34.4
	c3.2,2.2,5.3,3.5,6.4,3.8c0.1,0.9-0.8,2.3-1.3,3.2c-2.7,4.3-4,8.4-4,12.3c0.1,5.6,2.6,9.4,6.5,12h-23.5c-7.2-7.5-14.3-19.1-3.3-40.1
	c1.3-2.2-0.2-4.8-2.7-4.7c-20,1.5-35.7-11.7-37.3-31.6c-0.7-4.7-5.4-3.2-7.4-1.1c-12,9.2-26.6,9.7-38.4,2.4
	C473.1,1449.9,472.8,1431,474.4,1410.1z"/>
<path id="PanelE_Cut" class="st1" d="M313.5,1490.6l2.4-18L313.5,1490.6z M310.2,1514.4l-2.4,18L310.2,1514.4z M304.3,1553l-2.4,18
	L304.3,1553z M397.7,1490.6l-2.4-18L397.7,1490.6z M401.1,1514.4l2.4,18L401.1,1514.4z M406.7,1552.9l2.4,18L406.7,1552.9z
	 M303.7,1918.2v18.2V1918.2z M405.6,1918.2v18.2V1918.2z M463.4,1588.4c-0.6-1.6-2-2.6-3.7-2.6h-19.4c-1.9-0.2-28.4,0.6-29.3-0.6
	c-1.3-0.6-0.7-2.6,0.7-2.6l49.7,0.2c0,0-47-104.4-67.9-128c-28.7-32.2-34.3-66.9-37-66.9c-2.6,0-12.4,37.6-39.1,67.9
	c-17.5,22-64.8,113.7-66.1,127l46-0.1c1.4,0,1.9,2,0.6,2.6c-12.6,1.5-36.4,0.1-49,0.6c-48,54.5-19.6,276.2,3.6,315.2
	c1.2,2.4,3.6,4,6.2,4h40c1.8,0,2.8,0.9,3.4,2.1c0.7,1.7-19.7,1-19.8,2.7c0.7,10.3-3.7,37.8,12.4,37.5h118.4
	c17.3,0.1,11.6-26.5,12.7-38.3c0-0.8-19.8-1.6-19.4-2.2c0.7-1.1,1.9-1.9,3.3-1.9H450c3.1,0,6-1.9,7.2-4.9
	C483.6,1843.1,504.3,1651.2,463.4,1588.4z M377.9,1613.8h10.9c2.1,2.8,3.8,6.2,5,9.7c0.8,6.2,1.1,13.8-2.8,18.9
	c-2.1,1-6.1,4.2-8.6,5.4C386.4,1635.1,384.8,1623.7,377.9,1613.8z M456,1663.7c-6.7-3-16.1-3.8-22.8-0.9c-0.9,0.2-1.7,0.5-2.6,0.7
	c1.8-4,1.9-6.6,6.9-7.5c5.6-1.9,11.5-1.5,16.6,1.1c0.3,0.1,0.6,0.2,0.9,0.4C455.3,1659.4,455.7,1661.5,456,1663.7z M409.8,1613.8
	h3.7c2.8,4.2,3,10.6,0.7,14.1c-0.5,0.7-1.1,1.2-1.9,1.6C413.3,1624,412.1,1618.6,409.8,1613.8z M404.6,1633.9
	c-1.7,0.8-3.3,2.3-5,3.2c1.9-9.1,0.6-16.2-3.5-23.4h6.7C406.8,1619.5,407.5,1628.8,404.6,1633.9z M423.3,1613.8
	c1.3,2.5,1.6,6.1,0.6,8c-0.5,0.8-1.2,1.4-2.2,1.8c0.3-3.4-0.2-6.6-1.5-9.8H423.3z M447.2,1623.2c0.6,1.9,1.2,4.2,1.9,6.7
	c-1-0.1-2-0.2-2.9-0.2c-0.5,0-1.1,0-1.6,0.1C445.5,1627.6,446.3,1625.4,447.2,1623.2z M433.8,1623.2c2.8-1.6,4.6-2.5,9-5.3
	c-0.7,1.7-1.7,4-2.4,5.4c-0.9,1.9-1.4,3.1-1.7,4C436.6,1625.1,434.9,1624,433.8,1623.2z M434.8,1636.9c-2.5-4.1-6.5-6.6-9.8-8.3
	C428.5,1624.9,438.1,1632.2,434.8,1636.9z M437.5,1613.8c-2.3,1.4-4.6,2.9-6.9,4.2c-0.2-1.7-0.5-3.1-0.8-4.2H437.5z M421.5,1633.8
	c4.7,1.7,11.4,7.6,9.2,13.3c-3.1-5.6-8.7-10.2-15.3-12.6C417.2,1633.3,419.2,1633.1,421.5,1633.8z M453.7,1650
	c-2.8-1-5.9-1.6-9.1-1.6c-2.8,0-5.7,0.4-8.6,1.2c2.2-5.4,12.1-6.2,17-2.8C453.3,1647.9,453.5,1649,453.7,1650z M451.5,1639.7
	c-2-0.6-4.1-0.9-6.2-0.9c-1.6,0-3.2,0.2-4.8,0.5c0,0,0,0,0,0c0.4-1.1,0.7-2.2,1.4-2.5c2.3-1,6.3-1.5,8.9-0.2
	C451,1637.6,451.3,1638.6,451.5,1639.7z M389.6,1650.4c11.9-9.4,28.7,5.6,31.4,17.8c0.5,2.5-2.3,8.1-3.9,11.2
	c-4.7-14.4-17-24.8-31.5-26.5C387,1652.2,388.3,1651.3,389.6,1650.4z M403,1642.2c0.1,0,0.1-0.1,0.2-0.1c4.1-3.1,6.4-3.9,11.5-1.3
	c5.9,2.4,10.3,7.3,12.4,13.9c0,1.9-1.5,4.2-2.2,6.1C420.7,1651.5,412.9,1644.8,403,1642.2z M433,1669.3c7.6-3.2,16.4-2.6,24,1.9
	c0.4,3.3,0.8,6.7,1.1,10.3c-10.3-5.1-23.6-5.5-35.3,1C425.1,1676.8,426,1670.7,433,1669.3z M332.7,1650.8c1.9,0.1,2.5,0,3,1.7
	c0.8,3,0.7,11-0.4,12.5c-1.5,3.2-6.3,3.4-7.1-0.3c-0.3-1.7-0.5-4.2-0.5-7.5C327.3,1653.7,328.2,1650.7,332.7,1650.8z M325.8,1624
	c2.5-2.2,6-2.8,7.3,0.9c1.7,4,0.7,9.5-2.9,11.7C324.2,1639.8,322.5,1627.2,325.8,1624z M265.5,1613.8h32.7c-8,5.7,2.1,12.4,5.4,21.8
	c1.7,6.2,1,25-1,30.5c-1,7.5-13.6,17.5-11.7,24.1c3.4,8.3,13.9,6.8,26,7.8c8.2,0.5,18-0.2,25.9-2.8c-9.2,14.8-10.9,36.5-4.3,51.9
	c-1.1,0.1-2.1,0.3-3.2,0.5c-17.3,4.5-26.9,24.2-27.8,43.5c-1.4,0.1-2.9,0.9-3.8,1.9c-15.8,11.4-35.8,8.2-47.9-7.6
	c-0.2,0-0.3,0-0.5,0c-1.5-12-2.8-25.4-4-40.1C243.6,1651.5,265.5,1613.8,265.5,1613.8z M348,1877l-9.1,0c-0.3-0.1-0.6-0.2-1-0.2
	c-9.3-7.3-13.6-23.8-6.2-34c2.1-1,6.2-4,8.8-5.1C335.2,1852.3,337.9,1865.6,348,1877z M312.1,1816.3c1.1,2.3,2.4,4.4,3.8,6.3
	c5.7,6.3,13.1,9.4,20.7,10c-1.2,0.6-2.3,1.3-3.4,2c-12.2,9-28.6-6.4-30.8-18.7c-0.4-2.5,2.6-8,4.2-11.1
	C307.8,1809,309.7,1812.9,312.1,1816.3z M328.7,1876c-12,1-15.7-17.3-11-25.3c1.7-0.8,3.4-2.2,5.1-3.1
	C320.2,1858.8,322.3,1866.8,328.7,1876z M319.6,1842.5c-4.2,3-6.6,3.9-11.7,1c-5.8-2.5-10-7.6-12-14.2c0-1.9,1.6-4.1,2.4-6
	C302.2,1832.7,309.8,1839.6,319.6,1842.5z M302.9,1873.3c-4.7,0.6-6.7-7.7-4.9-11c0.5-0.8,1.2-1.3,2.3-1.8
	C299.8,1865.1,300.6,1869.1,302.9,1873.3z M300.9,1850.4c-4.7-1.8-11.2-7.9-8.8-13.5c2.9,5.7,8.4,10.5,14.9,13
	C305.2,1851,303.1,1851.1,300.9,1850.4z M286.8,1834c-3,6.9-18.8,5.7-19.7-1.7C272.9,1835.2,279.9,1835.8,286.8,1834z M264.3,1818
	l-0.3,0.1c-0.1-0.2-0.1-0.5-0.2-0.7c6.4,4.7,18.1,6.7,26.2,3.6c0.9-0.2,1.8-0.4,2.6-0.6c-0.6,1.7-1.8,3.4-2.4,5.2
	c-5.9,4.1-15,4-21.1,0.6C265.3,1825,264.4,1821.9,264.3,1818z M282,1844.3c-0.4,1.1-0.8,2.2-1.4,2.5c-3.5,1.4-11.1,1.6-11.2-3.7
	C273.5,1844.7,277.9,1845.1,282,1844.3z M281.7,1860.3c0.9-1.8,1.5-3.1,1.8-3.9c2,2.2,3.7,3.4,4.7,4.3c-2.8,1.5-4.7,2.4-9.1,5
	C279.8,1864,280.9,1861.7,281.7,1860.3z M283.4,1870.5c2.6-1.5,5.3-3.1,7.9-4.5c0.3,2.9,0.8,5,1.2,6.2c-1.8-0.3-6.2-0.8-10.1-1.1
	C282.7,1870.9,283,1870.7,283.4,1870.5z M287.5,1847.1c0-0.1,0.1-0.2,0.1-0.2c2.4,4.1,6.3,6.8,9.6,8.6
	C293.7,1859,284.4,1851.6,287.5,1847.1z M308,1856.5c0.5-0.7,1.2-1.2,1.9-1.5c-1.5,6.8,0.6,13.9,4.1,19.6
	C306.1,1873.1,304.6,1861.5,308,1856.5z M290.4,1814.6c-7.8,3-16.6,2.1-24.2-2.7c-4.8-2.1-4.8-6.4-5.7-11.2l-0.1,0
	c-0.2-1-0.5-2.1-0.7-3.1c10.2,8.7,26.7,11.6,41.2,4.1C298.5,1807.3,297.4,1813.3,290.4,1814.6z M277.7,1853.8
	c-1.4,3.1-2.6,6.3-4.1,9.4c-0.4-3.4-1.4-6.5-2.2-10C273.6,1853.7,275.7,1853.9,277.7,1853.8z M343.7,1796.5
	c-7.6-1-10.4-8.5-10.8-17.3c-0.1-7.3,0.6-22.2,9.9-18.8C353,1765.5,357.2,1793.7,343.7,1796.5z M360,1711.5
	c-0.1-7.3,0.6-22.2,9.9-18.8c10.2,5.1,14.4,33.3,0.9,36.1C363.2,1727.7,360.4,1720.3,360,1711.5z M458.7,1745.4
	C452.8,1825.1,437,1877,437,1877l-37.5,0c6.6-8.8,2.3-25.6-11.4-24.7c-10.4,2.8-16,16.9-10.8,24.7l-20.3,0
	c-11.9-9.1-18.5-26.6-7-45.2c0.2-0.2,0.3-0.5,0.4-0.8c8.3-2.6,15.8-8.1,20.3-15.7c0.7,2,1.8,4,3.3,6.1c4.4,7,3.7,4.8,4.3,13.4
	c0.3,4.3,0.7,7.3,1.4,8.8c1.8,3.9,7.7,6.3,11.3,3.8c5.9-3.5,3.9-18.6,5.5-23.2c2-6.4,10.3-15.4,5.1-22.8c-3.5-5.2-14.5-9-21.7-4.4
	c-1.9,0.9-3.5,1.9-4.8,3.1c0-1.1,0-2.3-0.1-3.4c0.3-10.2-2.3-22.1-7.5-31.7c18.1-0.6,36.1-15.1,34.6-36
	c0.6-22.8-12.9-54.1-38.6-49.3c6.2-11.6,4.5-26.4-9.8-34.4c-3.2-2.2-5.3-3.5-6.4-3.8c-0.1-0.9,0.8-2.3,1.3-3.2c2.7-4.3,4-8.4,4-12.3
	c-0.1-5.6-2.6-9.4-6.5-12h23.5c7.2,7.5,14.3,19.1,3.3,40.1c-1.3,2.2,0.2,4.8,2.7,4.7c20-1.5,35.7,11.7,37.3,31.6
	c0.7,4.7,5.4,3.2,7.4,1.1c12-9.2,26.6-9.7,38.4-2.4C460,1705.5,460.3,1724.5,458.7,1745.4z"/>
<path id="PanelD_Cut" class="st1" d="M173,1664.9l-2.4,18L173,1664.9z M176.3,1641l2.4-18L176.3,1641z M182.2,1602.4l2.4-18
	L182.2,1602.4z M88.8,1664.9l2.3,18L88.8,1664.9z M85.4,1641l-2.3-18L85.4,1641z M79.8,1602.6l-2.3-18L79.8,1602.6z M182.9,1237.2
	V1219V1237.2z M80.9,1237.2V1219V1237.2z M23.1,1567c0.6,1.6,2,2.6,3.7,2.6h19.4c1.9,0.2,28.4-0.6,29.3,0.6c1.3,0.6,0.7,2.6-0.7,2.6
	l-49.7-0.2c0,0,47,104.4,67.9,128c28.7,32.2,34.3,66.9,37,66.9c2.6,0,12.4-37.6,39.1-67.9c17.5-22,64.8-113.7,66.1-127l-46,0.1
	c-1.4,0-1.9-2-0.6-2.6c12.6-1.5,36.4-0.1,49-0.6c48-54.5,19.6-276.2-3.6-315.2c-1.2-2.4-3.6-4-6.2-4h-40c-1.8,0-2.8-0.9-3.4-2.1
	c-0.7-1.7,19.7-1,19.8-2.7c-0.7-10.3,3.7-37.8-12.4-37.5H73.3c-17.3-0.1-11.6,26.5-12.7,38.3c0,0.8,19.8,1.6,19.4,2.2
	c-0.7,1.1-1.9,1.9-3.3,1.9H36.6c-3.1,0-6,1.9-7.2,4.9C2.9,1312.3-17.8,1504.2,23.1,1567z M108.6,1541.7H97.7c-2.1-2.8-3.8-6.2-5-9.7
	c-0.8-6.2-1.1-13.8,2.8-18.9c2.1-1,6.1-4.2,8.6-5.4C100.1,1520.3,101.7,1531.7,108.6,1541.7z M30.5,1491.7c6.7,3,16.1,3.8,22.8,0.9
	c0.9-0.2,1.7-0.5,2.6-0.7c-1.8,4-1.9,6.6-6.9,7.5c-5.6,1.9-11.5,1.5-16.6-1.1c-0.3-0.1-0.6-0.2-0.9-0.4
	C31.2,1496,30.8,1493.9,30.5,1491.7z M76.7,1541.7h-3.7c-2.8-4.2-3-10.6-0.7-14.1c0.5-0.7,1.1-1.2,1.9-1.6
	C73.2,1531.4,74.4,1536.8,76.7,1541.7z M81.9,1521.5c1.7-0.8,3.3-2.3,5-3.2c-1.9,9.1-0.6,16.2,3.5,23.4h-6.7
	C79.7,1535.9,79,1526.6,81.9,1521.5z M63.2,1541.7c-1.3-2.5-1.6-6.1-0.6-8c0.5-0.8,1.2-1.4,2.2-1.8c-0.3,3.4,0.2,6.6,1.5,9.8H63.2z
	 M39.3,1532.3c-0.6-1.9-1.2-4.2-1.9-6.7c1,0.1,2,0.2,2.9,0.2c0.5,0,1.1,0,1.6-0.1C41,1527.9,40.2,1530.1,39.3,1532.3z M52.7,1532.3
	c-2.8,1.6-4.6,2.5-9,5.3c0.7-1.7,1.7-4,2.4-5.4c0.9-1.9,1.4-3.1,1.7-4C49.9,1530.3,51.6,1531.5,52.7,1532.3z M51.7,1518.5
	c2.5,4.1,6.5,6.6,9.8,8.3C58,1530.5,48.4,1523.2,51.7,1518.5z M49,1541.7c2.3-1.4,4.6-2.9,6.9-4.2c0.2,1.7,0.5,3.1,0.8,4.2H49z
	 M65,1521.6c-4.7-1.7-11.4-7.6-9.2-13.3c3.1,5.6,8.7,10.2,15.3,12.6C69.3,1522.1,67.3,1522.3,65,1521.6z M32.8,1505.4
	c2.8,1,5.9,1.6,9.1,1.6c2.8,0,5.7-0.4,8.6-1.2c-2.2,5.4-12.1,6.2-17,2.8C33.2,1507.5,33,1506.4,32.8,1505.4z M35,1515.7
	c2,0.6,4.1,0.9,6.2,0.9c1.6,0,3.2-0.2,4.8-0.5c0,0,0,0,0,0c-0.4,1.1-0.7,2.2-1.4,2.5c-2.3,1-6.3,1.5-8.9,0.2
	C35.5,1517.8,35.2,1516.8,35,1515.7z M96.9,1505c-11.9,9.4-28.7-5.6-31.4-17.8c-0.5-2.5,2.3-8.1,3.9-11.2
	c4.7,14.4,17,24.8,31.5,26.5C99.5,1503.2,98.2,1504.1,96.9,1505z M83.5,1513.2c-0.1,0-0.1,0.1-0.2,0.1c-4.1,3.1-6.4,3.9-11.5,1.3
	c-5.9-2.4-10.3-7.3-12.4-13.9c0-1.9,1.5-4.2,2.2-6.1C65.8,1503.9,73.6,1510.6,83.5,1513.2z M53.5,1486.2c-7.6,3.2-16.4,2.6-24-1.9
	c-0.4-3.3-0.8-6.7-1.1-10.3c10.3,5.1,23.6,5.5,35.3-1C61.4,1478.7,60.5,1484.7,53.5,1486.2z M153.8,1504.6c-1.9-0.1-2.5,0-3-1.7
	c-0.8-3-0.7-11,0.4-12.5c1.5-3.2,6.3-3.4,7.1,0.3c0.3,1.7,0.5,4.2,0.5,7.5C159.2,1501.7,158.3,1504.8,153.8,1504.6z M160.7,1531.4
	c-2.5,2.2-6,2.8-7.3-0.9c-1.7-4-0.7-9.5,2.9-11.7C162.3,1515.6,164.1,1528.2,160.7,1531.4z M221,1541.7h-32.7
	c8-5.7-2.1-12.4-5.4-21.8c-1.7-6.2-1-25,1-30.5c1-7.5,13.6-17.5,11.7-24.1c-3.4-8.3-13.9-6.8-26-7.8c-8.2-0.5-18,0.2-25.9,2.8
	c9.2-14.8,10.9-36.5,4.3-51.9c1.1-0.1,2.1-0.3,3.2-0.5c17.3-4.5,26.9-24.2,27.8-43.5c1.4-0.1,2.9-0.9,3.8-1.9
	c15.8-11.4,35.8-8.2,47.9,7.6c0.2,0,0.3,0,0.5,0c1.5,12,2.8,25.4,4,40.1C242.9,1503.9,221,1541.7,221,1541.7z M138.5,1278.5l9.1,0
	c0.3,0.1,0.6,0.2,1,0.2c9.3,7.3,13.6,23.8,6.2,34c-2.1,1-6.2,4-8.8,5.1C151.3,1303.2,148.6,1289.8,138.5,1278.5z M174.4,1339.1
	c-1.1-2.3-2.4-4.4-3.8-6.3c-5.7-6.3-13.1-9.4-20.7-10c1.2-0.6,2.3-1.3,3.4-2c12.2-9,28.6,6.4,30.8,18.7c0.4,2.5-2.6,8-4.2,11.1
	C178.7,1346.4,176.8,1342.5,174.4,1339.1z M157.8,1279.4c12-1,15.7,17.3,11,25.3c-1.7,0.8-3.4,2.2-5.1,3.1
	C166.3,1296.7,164.2,1288.6,157.8,1279.4z M166.9,1313c4.2-3,6.6-3.9,11.7-1c5.8,2.5,10,7.6,12,14.2c0,1.9-1.6,4.1-2.4,6
	C184.3,1322.7,176.7,1315.8,166.9,1313z M183.6,1282.1c4.7-0.6,6.7,7.7,4.9,11c-0.5,0.8-1.2,1.3-2.3,1.8
	C186.7,1290.4,185.9,1286.3,183.6,1282.1z M185.6,1305c4.7,1.8,11.2,7.9,8.8,13.5c-2.9-5.7-8.4-10.5-14.9-13
	C181.3,1304.5,183.4,1304.3,185.6,1305z M199.7,1321.4c3-6.9,18.8-5.7,19.7,1.7C213.6,1320.2,206.6,1319.6,199.7,1321.4z
	 M222.2,1337.4l0.3-0.1c0.1,0.2,0.1,0.5,0.2,0.7c-6.4-4.7-18.1-6.7-26.2-3.6c-0.9,0.2-1.8,0.4-2.6,0.6c0.6-1.7,1.8-3.4,2.4-5.2
	c5.9-4.1,15-4,21.1-0.6C221.2,1330.4,222.1,1333.6,222.2,1337.4z M204.5,1311.1c0.4-1.1,0.8-2.2,1.4-2.5c3.5-1.4,11.1-1.6,11.2,3.7
	C213,1310.7,208.6,1310.3,204.5,1311.1z M204.8,1295.1c-0.9,1.8-1.5,3.1-1.8,3.9c-2-2.2-3.7-3.4-4.7-4.3c2.8-1.5,4.7-2.4,9.1-5
	C206.7,1291.5,205.6,1293.7,204.8,1295.1z M203.1,1284.9c-2.6,1.5-5.3,3.1-7.9,4.5c-0.3-2.9-0.8-5-1.2-6.2c1.8,0.3,6.2,0.8,10.1,1.1
	C203.8,1284.5,203.5,1284.7,203.1,1284.9z M199,1308.3c0,0.1-0.1,0.2-0.1,0.2c-2.4-4.1-6.3-6.8-9.6-8.6
	C192.8,1296.4,202.1,1303.8,199,1308.3z M178.5,1298.9c-0.5,0.7-1.2,1.2-1.9,1.5c1.5-6.8-0.6-13.9-4.1-19.6
	C180.4,1282.3,181.9,1293.9,178.5,1298.9z M196.1,1340.8c7.8-3,16.6-2.1,24.2,2.7c4.8,2.1,4.8,6.4,5.7,11.2l0.1,0
	c0.2,1,0.5,2.1,0.7,3.1c-10.2-8.7-26.7-11.6-41.2-4.1C188,1348.1,189.1,1342.1,196.1,1340.8z M208.8,1301.6c1.4-3.1,2.6-6.3,4.1-9.4
	c0.4,3.4,1.4,6.5,2.2,10C212.9,1301.7,210.9,1301.5,208.8,1301.6z M142.8,1358.9c7.6,1,10.4,8.5,10.8,17.3
	c0.1,7.3-0.6,22.2-9.9,18.8C133.5,1389.9,129.3,1361.7,142.8,1358.9z M126.5,1444c0.1,7.3-0.6,22.2-9.9,18.8
	c-10.2-5.1-14.4-33.3-0.9-36.1C123.3,1427.7,126.1,1435.2,126.5,1444z M27.8,1410.1c5.9-79.8,21.7-131.6,21.7-131.6l37.5,0
	c-6.6,8.8-2.3,25.6,11.4,24.7c10.4-2.8,16-16.9,10.8-24.7l20.3,0c11.9,9.1,18.5,26.6,7,45.2c-0.2,0.2-0.3,0.5-0.4,0.8
	c-8.3,2.6-15.8,8.1-20.3,15.7c-0.7-2-1.8-4-3.3-6.1c-4.4-7-3.7-4.8-4.3-13.4c-0.3-4.3-0.7-7.3-1.4-8.8c-1.8-3.9-7.7-6.3-11.3-3.8
	c-5.9,3.5-3.9,18.6-5.5,23.2c-2,6.4-10.3,15.4-5.1,22.8c3.5,5.2,14.5,9,21.7,4.4c1.9-0.9,3.5-1.9,4.8-3.1c0,1.1,0,2.3,0.1,3.4
	c-0.3,10.2,2.3,22.1,7.5,31.7c-18.1,0.6-36.1,15.1-34.6,36c-0.6,22.8,12.9,54.1,38.6,49.3c-6.2,11.6-4.5,26.4,9.8,34.4
	c3.2,2.2,5.3,3.5,6.4,3.8c0.1,0.9-0.8,2.3-1.3,3.2c-2.7,4.3-4,8.4-4,12.3c0.1,5.6,2.6,9.4,6.5,12h-23.5c-7.2-7.5-14.3-19.1-3.3-40.1
	c1.3-2.2-0.2-4.8-2.7-4.7c-20,1.5-35.7-11.7-37.3-31.6c-0.7-4.7-5.4-3.2-7.4-1.1c-12,9.2-26.6,9.7-38.4,2.4
	C26.5,1449.9,26.2,1431,27.8,1410.1z"/>
<path id="PanelC_Cut" class="st1" d="M619.6,1041.3l-2.3,18L619.6,1041.3z M622.9,1017.5l2.4-18L622.9,1017.5z M628.8,978.9l2.3-18
	L628.8,978.9z M535.4,1041.3l2.3,18L535.4,1041.3z M532,1017.5l-2.4-18L532,1017.5z M526.4,979l-2.3-18L526.4,979z M629.5,613.7
	v-18.2V613.7z M527.5,613.7v-18.2V613.7z M469.7,943.5c0.6,1.6,2,2.6,3.7,2.6h19.4c1.9,0.2,28.4-0.6,29.3,0.6
	c1.3,0.6,0.7,2.6-0.7,2.6l-49.7-0.2c0,0,47,104.4,67.9,128c28.7,32.2,34.3,66.9,37,66.9c2.6,0,12.4-37.6,39.1-67.9
	c17.5-22,64.8-113.7,66.1-127l-46,0.1c-1.4,0-1.9-2-0.6-2.6c12.6-1.5,36.4-0.1,49-0.6c48-54.5,19.6-276.2-3.6-315.2
	c-1.2-2.4-3.6-4-6.2-4h-40c-1.8,0-2.8-0.9-3.4-2.1c-0.7-1.7,19.7-1,19.8-2.7c-0.7-10.3,3.7-37.8-12.4-37.5H519.9
	c-17.3-0.1-11.6,26.5-12.7,38.3c0,0.8,19.8,1.6,19.4,2.2c-0.7,1.1-1.9,1.9-3.3,1.9h-40.1c-3.1,0-6,1.9-7.2,4.9
	C449.5,688.8,428.8,880.7,469.7,943.5z M555.2,918.1h-10.9c-2.1-2.8-3.8-6.2-5-9.7c-0.8-6.2-1.1-13.8,2.8-18.9
	c2.1-1,6.1-4.2,8.6-5.4C546.7,896.8,548.3,908.2,555.2,918.1z M477.1,868.2c6.7,3,16.1,3.8,22.8,0.9c0.9-0.2,1.7-0.5,2.6-0.7
	c-1.8,4-1.9,6.6-6.9,7.5c-5.6,1.9-11.5,1.5-16.6-1.1c-0.3-0.1-0.6-0.2-0.9-0.4C477.8,872.5,477.5,870.4,477.1,868.2z M523.3,918.1
	h-3.7c-2.8-4.2-3-10.6-0.7-14.1c0.5-0.7,1.1-1.2,1.9-1.6C519.8,907.9,521,913.3,523.3,918.1z M528.5,898c1.7-0.8,3.3-2.3,5-3.2
	c-1.9,9.1-0.6,16.2,3.5,23.4h-6.7C526.3,912.4,525.6,903.1,528.5,898z M509.8,918.1c-1.3-2.5-1.6-6.1-0.6-8c0.5-0.8,1.2-1.4,2.2-1.8
	c-0.3,3.4,0.2,6.6,1.5,9.8H509.8z M485.9,908.7c-0.6-1.9-1.2-4.2-1.9-6.7c1,0.1,2,0.2,2.9,0.2c0.5,0,1.1,0,1.6-0.1
	C487.6,904.3,486.8,906.5,485.9,908.7z M499.3,908.7c-2.8,1.6-4.6,2.5-9,5.3c0.7-1.7,1.7-4,2.4-5.4c0.9-1.9,1.4-3.1,1.7-4
	C496.5,906.8,498.2,907.9,499.3,908.7z M498.3,895c2.5,4.1,6.5,6.6,9.8,8.3C504.6,907,495,899.6,498.3,895z M495.6,918.1
	c2.3-1.4,4.6-2.9,6.9-4.2c0.2,1.7,0.5,3.1,0.8,4.2H495.6z M511.6,898.1c-4.7-1.7-11.4-7.6-9.2-13.3c3.1,5.6,8.7,10.2,15.3,12.6
	C515.9,898.6,513.9,898.8,511.6,898.1z M479.4,881.8c2.8,1,5.9,1.6,9.1,1.6c2.8,0,5.7-0.4,8.6-1.2c-2.2,5.4-12.1,6.2-17,2.8
	C479.9,883.9,479.7,882.9,479.4,881.8z M481.6,892.2c2,0.6,4.1,0.9,6.2,0.9c1.6,0,3.2-0.2,4.8-0.5c0,0,0,0,0,0
	c-0.4,1.1-0.7,2.2-1.4,2.5c-2.3,1-6.3,1.5-8.9,0.2C482.1,894.3,481.9,893.3,481.6,892.2z M543.5,881.5c-11.9,9.4-28.7-5.6-31.4-17.8
	c-0.5-2.5,2.3-8.1,3.9-11.2c4.7,14.4,17,24.8,31.5,26.5C546.1,879.7,544.8,880.6,543.5,881.5z M530.1,889.7c-0.1,0-0.1,0.1-0.2,0.1
	c-4.1,3.1-6.4,3.9-11.5,1.3c-5.9-2.4-10.3-7.3-12.4-13.9c0-1.9,1.5-4.2,2.2-6.1C512.4,880.4,520.3,887.1,530.1,889.7z M500.1,862.6
	c-7.6,3.2-16.4,2.6-24-1.9c-0.4-3.3-0.8-6.7-1.1-10.3c10.3,5.1,23.6,5.5,35.3-1C508,855.1,507.1,861.2,500.1,862.6z M600.4,881
	c-1.9-0.1-2.5,0-3-1.7c-0.8-3-0.7-11,0.4-12.5c1.5-3.2,6.3-3.4,7.1,0.3c0.3,1.7,0.5,4.2,0.5,7.5C605.8,878.2,605,881.2,600.4,881z
	 M607.3,907.9c-2.5,2.2-6,2.8-7.3-0.9c-1.7-4-0.7-9.5,2.9-11.7C608.9,892.1,610.7,904.7,607.3,907.9z M667.6,918.1h-32.7
	c8-5.7-2.1-12.4-5.4-21.8c-1.7-6.2-1-25,1-30.5c1-7.5,13.6-17.5,11.7-24.1c-3.4-8.3-13.9-6.8-26-7.8c-8.2-0.5-18,0.2-25.9,2.8
	c9.2-14.8,10.9-36.5,4.3-51.9c1.1-0.1,2.1-0.3,3.2-0.5c17.3-4.5,26.9-24.2,27.8-43.5c1.4-0.1,2.9-0.9,3.8-1.9
	c15.8-11.4,35.8-8.2,47.9,7.6c0.2,0,0.3,0,0.5,0c1.5,12,2.8,25.4,4,40.1C689.6,880.4,667.6,918.1,667.6,918.1z M585.2,654.9l9.1,0
	c0.3,0.1,0.6,0.2,1,0.2c9.3,7.3,13.6,23.8,6.2,34c-2.1,1-6.2,4-8.8,5.1C597.9,679.6,595.2,666.3,585.2,654.9z M621.1,715.6
	c-1.1-2.3-2.4-4.4-3.8-6.3c-5.7-6.3-13.1-9.4-20.7-10c1.2-0.6,2.3-1.3,3.4-2c12.2-9,28.6,6.4,30.8,18.7c0.4,2.5-2.6,8-4.2,11.1
	C625.3,722.9,623.4,719,621.1,715.6z M604.4,655.9c12-1,15.7,17.3,11,25.3c-1.7,0.8-3.4,2.2-5.1,3.1
	C612.9,673.1,610.8,665,604.4,655.9z M613.5,689.4c4.2-3,6.6-3.9,11.7-1c5.8,2.5,10,7.6,12,14.2c0,1.9-1.6,4.1-2.4,6
	C630.9,699.2,623.3,692.3,613.5,689.4z M630.2,658.6c4.7-0.6,6.7,7.7,4.9,11c-0.5,0.8-1.2,1.3-2.3,1.8
	C633.4,666.8,632.5,662.8,630.2,658.6z M632.2,681.5c4.7,1.8,11.2,7.9,8.8,13.5c-2.9-5.7-8.4-10.5-14.9-13
	C627.9,680.9,630,680.8,632.2,681.5z M646.3,697.9c3-6.9,18.8-5.7,19.7,1.7C660.2,696.7,653.2,696,646.3,697.9z M668.8,713.9
	l0.3-0.1c0.1,0.2,0.1,0.5,0.2,0.7c-6.4-4.7-18.1-6.7-26.2-3.6c-0.9,0.2-1.8,0.4-2.6,0.6c0.6-1.7,1.8-3.4,2.4-5.2
	c5.9-4.1,15-4,21.1-0.6C667.9,706.9,668.7,710,668.8,713.9z M651.1,687.6c0.4-1.1,0.8-2.2,1.4-2.5c3.5-1.4,11.1-1.6,11.2,3.7
	C659.6,687.2,655.2,686.8,651.1,687.6z M651.5,671.6c-0.9,1.8-1.5,3.1-1.8,3.9c-2-2.2-3.7-3.4-4.7-4.3c2.8-1.5,4.7-2.4,9.1-5
	C653.3,667.9,652.2,670.2,651.5,671.6z M649.7,661.4c-2.6,1.5-5.3,3.1-7.9,4.5c-0.3-2.9-0.8-5-1.2-6.2c1.8,0.3,6.2,0.8,10.1,1.1
	C650.4,661,650.1,661.2,649.7,661.4z M645.6,684.8c0,0.1-0.1,0.2-0.1,0.2c-2.4-4.1-6.3-6.8-9.6-8.6
	C639.4,672.9,648.7,680.3,645.6,684.8z M625.1,675.4c-0.5,0.7-1.2,1.2-1.9,1.5c1.5-6.8-0.6-13.9-4.1-19.6
	C627,658.8,628.5,670.4,625.1,675.4z M642.7,717.3c7.8-3,16.6-2.1,24.2,2.7c4.8,2.1,4.8,6.4,5.7,11.2l0.1,0c0.2,1,0.5,2.1,0.7,3.1
	c-10.2-8.7-26.7-11.6-41.2-4.1C634.7,724.6,635.7,718.6,642.7,717.3z M655.4,678.1c1.4-3.1,2.6-6.3,4.1-9.4c0.4,3.4,1.4,6.5,2.2,10
	C659.5,678.2,657.5,678,655.4,678.1z M589.4,735.4c7.6,1,10.4,8.5,10.8,17.3c0.1,7.3-0.6,22.2-9.9,18.8
	C580.1,766.4,576,738.2,589.4,735.4z M573.1,820.4c0.1,7.3-0.6,22.2-9.9,18.8c-10.2-5.1-14.4-33.3-0.9-36.1
	C569.9,804.2,572.7,811.6,573.1,820.4z M474.4,786.5c5.9-79.8,21.7-131.6,21.7-131.6l37.5,0c-6.6,8.8-2.3,25.6,11.4,24.7
	c10.4-2.8,16-16.9,10.8-24.7l20.3,0c11.9,9.1,18.5,26.6,7,45.2c-0.2,0.2-0.3,0.5-0.4,0.8c-8.3,2.6-15.8,8.1-20.3,15.7
	c-0.7-2-1.8-4-3.3-6.1c-4.4-7-3.7-4.8-4.3-13.4c-0.3-4.3-0.7-7.3-1.4-8.8c-1.8-3.9-7.7-6.3-11.3-3.8c-5.9,3.5-3.9,18.6-5.5,23.2
	c-2,6.4-10.3,15.4-5.1,22.8c3.5,5.2,14.5,9,21.7,4.4c1.9-0.9,3.5-1.9,4.8-3.1c0,1.1,0,2.3,0.1,3.4c-0.3,10.2,2.3,22.1,7.5,31.7
	c-18.1,0.6-36.1,15.1-34.6,36c-0.6,22.8,12.9,54.1,38.6,49.3c-6.2,11.6-4.5,26.4,9.8,34.4c3.2,2.2,5.3,3.5,6.4,3.8
	c0.1,0.9-0.8,2.3-1.3,3.2c-2.7,4.3-4,8.4-4,12.3c0.1,5.6,2.6,9.4,6.5,12h-23.5c-7.2-7.5-14.3-19.1-3.3-40.1c1.3-2.2-0.2-4.8-2.7-4.7
	c-20,1.5-35.7-11.7-37.3-31.6c-0.7-4.7-5.4-3.2-7.4-1.1c-12,9.2-26.6,9.7-38.4,2.4C473.1,826.4,472.8,807.4,474.4,786.5z"/>
<path id="PanelB_Cut" class="st1" d="M313.5,869.4l2.4-18L313.5,869.4z M310.2,893.2l-2.4,18L310.2,893.2z M304.3,931.8l-2.4,18
	L304.3,931.8z M397.7,869.4l-2.4-18L397.7,869.4z M401.1,893.2l2.4,18L401.1,893.2z M406.7,931.7l2.4,18L406.7,931.7z M303.7,1297
	v18.2V1297z M405.6,1297v18.2V1297z M463.4,967.2c-0.6-1.6-2-2.6-3.7-2.6h-19.4c-1.9-0.2-28.4,0.6-29.3-0.6
	c-1.3-0.6-0.7-2.6,0.7-2.6l49.7,0.2c0,0-47-104.4-67.9-128c-28.7-32.2-34.3-66.9-37-66.9c-2.6,0-12.4,37.6-39.1,67.9
	c-17.5,22-64.8,113.7-66.1,127l46-0.1c1.4,0,1.9,2,0.6,2.6c-12.6,1.5-36.4,0.1-49,0.6c-48,54.5-19.6,276.2,3.6,315.2
	c1.2,2.4,3.6,4,6.2,4h40c1.8,0,2.8,0.9,3.4,2.1c0.7,1.7-19.7,1-19.8,2.7c0.7,10.3-3.7,37.8,12.4,37.5h118.4
	c17.3,0.1,11.6-26.5,12.7-38.3c0-0.8-19.8-1.6-19.4-2.2c0.7-1.1,1.9-1.9,3.3-1.9H450c3.1,0,6-1.9,7.2-4.9
	C483.6,1221.9,504.3,1030,463.4,967.2z M377.9,992.6h10.9c2.1,2.8,3.8,6.2,5,9.7c0.8,6.2,1.1,13.8-2.8,18.9c-2.1,1-6.1,4.2-8.6,5.4
	C386.4,1013.9,384.8,1002.5,377.9,992.6z M456,1042.5c-6.7-3-16.1-3.8-22.8-0.9c-0.9,0.2-1.7,0.5-2.6,0.7c1.8-4,1.9-6.6,6.9-7.5
	c5.6-1.9,11.5-1.5,16.6,1.1c0.3,0.1,0.6,0.2,0.9,0.4C455.3,1038.2,455.7,1040.3,456,1042.5z M409.8,992.6h3.7
	c2.8,4.2,3,10.6,0.7,14.1c-0.5,0.7-1.1,1.2-1.9,1.6C413.3,1002.8,412.1,997.4,409.8,992.6z M404.6,1012.7c-1.7,0.8-3.3,2.3-5,3.2
	c1.9-9.1,0.6-16.2-3.5-23.4h6.7C406.8,998.3,407.5,1007.6,404.6,1012.7z M423.3,992.6c1.3,2.5,1.6,6.1,0.6,8
	c-0.5,0.8-1.2,1.4-2.2,1.8c0.3-3.4-0.2-6.6-1.5-9.8H423.3z M447.2,1002c0.6,1.9,1.2,4.2,1.9,6.7c-1-0.1-2-0.2-2.9-0.2
	c-0.5,0-1.1,0-1.6,0.1C445.5,1006.4,446.3,1004.1,447.2,1002z M433.8,1002c2.8-1.6,4.6-2.5,9-5.3c-0.7,1.7-1.7,4-2.4,5.4
	c-0.9,1.9-1.4,3.1-1.7,4C436.6,1003.9,434.9,1002.7,433.8,1002z M434.8,1015.7c-2.5-4.1-6.5-6.6-9.8-8.3
	C428.5,1003.7,438.1,1011,434.8,1015.7z M437.5,992.6c-2.3,1.4-4.6,2.9-6.9,4.2c-0.2-1.7-0.5-3.1-0.8-4.2H437.5z M421.5,1012.6
	c4.7,1.7,11.4,7.6,9.2,13.3c-3.1-5.6-8.7-10.2-15.3-12.6C417.2,1012.1,419.2,1011.9,421.5,1012.6z M453.7,1028.8
	c-2.8-1-5.9-1.6-9.1-1.6c-2.8,0-5.7,0.4-8.6,1.2c2.2-5.4,12.1-6.2,17-2.8C453.3,1026.7,453.5,1027.8,453.7,1028.8z M451.5,1018.5
	c-2-0.6-4.1-0.9-6.2-0.9c-1.6,0-3.2,0.2-4.8,0.5c0,0,0,0,0,0c0.4-1.1,0.7-2.2,1.4-2.5c2.3-1,6.3-1.5,8.9-0.2
	C451,1016.4,451.3,1017.4,451.5,1018.5z M389.6,1029.2c11.9-9.4,28.7,5.6,31.4,17.8c0.5,2.5-2.3,8.1-3.9,11.2
	c-4.7-14.4-17-24.8-31.5-26.5C387,1031,388.3,1030.1,389.6,1029.2z M403,1021c0.1,0,0.1-0.1,0.2-0.1c4.1-3.1,6.4-3.9,11.5-1.3
	c5.9,2.4,10.3,7.3,12.4,13.9c0,1.9-1.5,4.2-2.2,6.1C420.7,1030.3,412.9,1023.6,403,1021z M433,1048.1c7.6-3.2,16.4-2.6,24,1.9
	c0.4,3.3,0.8,6.7,1.1,10.3c-10.3-5.1-23.6-5.5-35.3,1C425.1,1055.6,426,1049.5,433,1048.1z M332.7,1029.6c1.9,0.1,2.5,0,3,1.7
	c0.8,3,0.7,11-0.4,12.5c-1.5,3.2-6.3,3.4-7.1-0.3c-0.3-1.7-0.5-4.2-0.5-7.5C327.3,1032.5,328.2,1029.5,332.7,1029.6z M325.8,1002.8
	c2.5-2.2,6-2.8,7.3,0.9c1.7,4,0.7,9.5-2.9,11.7C324.2,1018.6,322.5,1006,325.8,1002.8z M265.5,992.6h32.7c-8,5.7,2.1,12.4,5.4,21.8
	c1.7,6.2,1,25-1,30.5c-1,7.5-13.6,17.5-11.7,24.1c3.4,8.3,13.9,6.8,26,7.8c8.2,0.5,18-0.2,25.9-2.8c-9.2,14.8-10.9,36.5-4.3,51.9
	c-1.1,0.1-2.1,0.3-3.2,0.5c-17.3,4.5-26.9,24.2-27.8,43.5c-1.4,0.1-2.9,0.9-3.8,1.9c-15.8,11.4-35.8,8.2-47.9-7.6
	c-0.2,0-0.3,0-0.5,0c-1.5-12-2.8-25.4-4-40.1C243.6,1030.3,265.5,992.6,265.5,992.6z M348,1255.7l-9.1,0c-0.3-0.1-0.6-0.2-1-0.2
	c-9.3-7.3-13.6-23.8-6.2-34c2.1-1,6.2-4,8.8-5.1C335.2,1231,337.9,1244.4,348,1255.7z M312.1,1195.1c1.1,2.3,2.4,4.4,3.8,6.3
	c5.7,6.3,13.1,9.4,20.7,10c-1.2,0.6-2.3,1.3-3.4,2c-12.2,9-28.6-6.4-30.8-18.7c-0.4-2.5,2.6-8,4.2-11.1
	C307.8,1187.8,309.7,1191.7,312.1,1195.1z M328.7,1254.8c-12,1-15.7-17.3-11-25.3c1.7-0.8,3.4-2.2,5.1-3.1
	C320.2,1237.6,322.3,1245.6,328.7,1254.8z M319.6,1221.3c-4.2,3-6.6,3.9-11.7,1c-5.8-2.5-10-7.6-12-14.2c0-1.9,1.6-4.1,2.4-6
	C302.2,1211.5,309.8,1218.4,319.6,1221.3z M302.9,1252.1c-4.7,0.6-6.7-7.7-4.9-11c0.5-0.8,1.2-1.3,2.3-1.8
	C299.8,1243.8,300.6,1247.9,302.9,1252.1z M300.9,1229.2c-4.7-1.8-11.2-7.9-8.8-13.5c2.9,5.7,8.4,10.5,14.9,13
	C305.2,1229.8,303.1,1229.9,300.9,1229.2z M286.8,1212.8c-3,6.9-18.8,5.7-19.7-1.7C272.9,1214,279.9,1214.6,286.8,1212.8z
	 M264.3,1196.8l-0.3,0.1c-0.1-0.2-0.1-0.5-0.2-0.7c6.4,4.7,18.1,6.7,26.2,3.6c0.9-0.2,1.8-0.4,2.6-0.6c-0.6,1.7-1.8,3.4-2.4,5.2
	c-5.9,4.1-15,4-21.1,0.6C265.3,1203.8,264.4,1200.6,264.3,1196.8z M282,1223.1c-0.4,1.1-0.8,2.2-1.4,2.5c-3.5,1.4-11.1,1.6-11.2-3.7
	C273.5,1223.5,277.9,1223.9,282,1223.1z M281.7,1239.1c0.9-1.8,1.5-3.1,1.8-3.9c2,2.2,3.7,3.4,4.7,4.3c-2.8,1.5-4.7,2.4-9.1,5
	C279.8,1242.8,280.9,1240.5,281.7,1239.1z M283.4,1249.3c2.6-1.5,5.3-3.1,7.9-4.5c0.3,2.9,0.8,5,1.2,6.2c-1.8-0.3-6.2-0.8-10.1-1.1
	C282.7,1249.7,283,1249.5,283.4,1249.3z M287.5,1225.9c0-0.1,0.1-0.2,0.1-0.2c2.4,4.1,6.3,6.8,9.6,8.6
	C293.7,1237.8,284.4,1230.4,287.5,1225.9z M308,1235.3c0.5-0.7,1.2-1.2,1.9-1.5c-1.5,6.8,0.6,13.9,4.1,19.6
	C306.1,1251.9,304.6,1240.3,308,1235.3z M290.4,1193.4c-7.8,3-16.6,2.1-24.2-2.7c-4.8-2.1-4.8-6.4-5.7-11.2l-0.1,0
	c-0.2-1-0.5-2.1-0.7-3.1c10.2,8.7,26.7,11.6,41.2,4.1C298.5,1186.1,297.4,1192.1,290.4,1193.4z M277.7,1232.6
	c-1.4,3.1-2.6,6.3-4.1,9.4c-0.4-3.4-1.4-6.5-2.2-10C273.6,1232.5,275.7,1232.7,277.7,1232.6z M343.7,1175.3
	c-7.6-1-10.4-8.5-10.8-17.3c-0.1-7.3,0.6-22.2,9.9-18.8C353,1144.3,357.2,1172.5,343.7,1175.3z M360,1090.3
	c-0.1-7.3,0.6-22.2,9.9-18.8c10.2,5.1,14.4,33.3,0.9,36.1C363.2,1106.5,360.4,1099,360,1090.3z M458.7,1124.2
	c-5.9,79.8-21.7,131.6-21.7,131.6l-37.5,0c6.6-8.8,2.3-25.6-11.4-24.7c-10.4,2.8-16,16.9-10.8,24.7l-20.3,0
	c-11.9-9.1-18.5-26.6-7-45.2c0.2-0.2,0.3-0.5,0.4-0.8c8.3-2.6,15.8-8.1,20.3-15.7c0.7,2,1.8,4,3.3,6.1c4.4,7,3.7,4.8,4.3,13.4
	c0.3,4.3,0.7,7.3,1.4,8.8c1.8,3.9,7.7,6.3,11.3,3.8c5.9-3.5,3.9-18.6,5.5-23.2c2-6.4,10.3-15.4,5.1-22.8c-3.5-5.2-14.5-9-21.7-4.4
	c-1.9,0.9-3.5,1.9-4.8,3.1c0-1.1,0-2.3-0.1-3.4c0.3-10.2-2.3-22.1-7.5-31.7c18.1-0.6,36.1-15.1,34.6-36
	c0.6-22.8-12.9-54.1-38.6-49.3c6.2-11.6,4.5-26.4-9.8-34.4c-3.2-2.2-5.3-3.5-6.4-3.8c-0.1-0.9,0.8-2.3,1.3-3.2c2.7-4.3,4-8.4,4-12.3
	c-0.1-5.6-2.6-9.4-6.5-12h23.5c7.2,7.5,14.3,19.1,3.3,40.1c-1.3,2.2,0.2,4.8,2.7,4.7c20-1.5,35.7,11.7,37.3,31.6
	c0.7,4.7,5.4,3.2,7.4,1.1c12-9.2,26.6-9.7,38.4-2.4C460,1084.3,460.3,1103.3,458.7,1124.2z"/>
<path id="PanelA_Cut_00000070822692915979785750000013140088888242379650_" class="st1" d="M173,1041.3l-2.4,18L173,1041.3z
	 M176.3,1017.5l2.4-18L176.3,1017.5z M182.2,978.9l2.4-18L182.2,978.9z M88.8,1041.3l2.3,18L88.8,1041.3z M85.4,1017.5l-2.3-18
	L85.4,1017.5z M79.8,979l-2.3-18L79.8,979z M182.9,613.7v-18.2V613.7z M80.9,613.7v-18.2V613.7z M23.1,943.5c0.6,1.6,2,2.6,3.7,2.6
	h19.4c1.9,0.2,28.4-0.6,29.3,0.6c1.3,0.6,0.7,2.6-0.7,2.6L25,949.2c0,0,47,104.4,67.9,128c28.7,32.2,34.3,66.9,37,66.9
	c2.6,0,12.4-37.6,39.1-67.9c17.5-22,64.8-113.7,66.1-127l-46,0.1c-1.4,0-1.9-2-0.6-2.6c12.6-1.5,36.4-0.1,49-0.6
	c48-54.5,19.6-276.2-3.6-315.2c-1.2-2.4-3.6-4-6.2-4h-40c-1.8,0-2.8-0.9-3.4-2.1c-0.7-1.7,19.7-1,19.8-2.7
	c-0.7-10.3,3.7-37.8-12.4-37.5H73.3c-17.3-0.1-11.6,26.5-12.7,38.3c0,0.8,19.8,1.6,19.4,2.2c-0.7,1.1-1.9,1.9-3.3,1.9H36.6
	c-3.1,0-6,1.9-7.2,4.9C2.9,688.8-17.8,880.7,23.1,943.5z M108.6,918.1H97.7c-2.1-2.8-3.8-6.2-5-9.7c-0.8-6.2-1.1-13.8,2.8-18.9
	c2.1-1,6.1-4.2,8.6-5.4C100.1,896.8,101.7,908.2,108.6,918.1z M30.5,868.2c6.7,3,16.1,3.8,22.8,0.9c0.9-0.2,1.7-0.5,2.6-0.7
	c-1.8,4-1.9,6.6-6.9,7.5c-5.6,1.9-11.5,1.5-16.6-1.1c-0.3-0.1-0.6-0.2-0.9-0.4C31.2,872.5,30.8,870.4,30.5,868.2z M76.7,918.1h-3.7
	c-2.8-4.2-3-10.6-0.7-14.1c0.5-0.7,1.1-1.2,1.9-1.6C73.2,907.9,74.4,913.3,76.7,918.1z M81.9,898c1.7-0.8,3.3-2.3,5-3.2
	c-1.9,9.1-0.6,16.2,3.5,23.4h-6.7C79.7,912.4,79,903.1,81.9,898z M63.2,918.1c-1.3-2.5-1.6-6.1-0.6-8c0.5-0.8,1.2-1.4,2.2-1.8
	c-0.3,3.4,0.2,6.6,1.5,9.8H63.2z M39.3,908.7c-0.6-1.9-1.2-4.2-1.9-6.7c1,0.1,2,0.2,2.9,0.2c0.5,0,1.1,0,1.6-0.1
	C41,904.3,40.2,906.5,39.3,908.7z M52.7,908.7c-2.8,1.6-4.6,2.5-9,5.3c0.7-1.7,1.7-4,2.4-5.4c0.9-1.9,1.4-3.1,1.7-4
	C49.9,906.8,51.6,907.9,52.7,908.7z M51.7,895c2.5,4.1,6.5,6.6,9.8,8.3C58,907,48.4,899.6,51.7,895z M49,918.1
	c2.3-1.4,4.6-2.9,6.9-4.2c0.2,1.7,0.5,3.1,0.8,4.2H49z M65,898.1c-4.7-1.7-11.4-7.6-9.2-13.3c3.1,5.6,8.7,10.2,15.3,12.6
	C69.3,898.6,67.3,898.8,65,898.1z M32.8,881.8c2.8,1,5.9,1.6,9.1,1.6c2.8,0,5.7-0.4,8.6-1.2c-2.2,5.4-12.1,6.2-17,2.8
	C33.2,883.9,33,882.9,32.8,881.8z M35,892.2c2,0.6,4.1,0.9,6.2,0.9c1.6,0,3.2-0.2,4.8-0.5c0,0,0,0,0,0c-0.4,1.1-0.7,2.2-1.4,2.5
	c-2.3,1-6.3,1.5-8.9,0.2C35.5,894.3,35.2,893.3,35,892.2z M96.9,881.5c-11.9,9.4-28.7-5.6-31.4-17.8c-0.5-2.5,2.3-8.1,3.9-11.2
	c4.7,14.4,17,24.8,31.5,26.5C99.5,879.7,98.2,880.6,96.9,881.5z M83.5,889.7c-0.1,0-0.1,0.1-0.2,0.1c-4.1,3.1-6.4,3.9-11.5,1.3
	c-5.9-2.4-10.3-7.3-12.4-13.9c0-1.9,1.5-4.2,2.2-6.1C65.8,880.4,73.6,887.1,83.5,889.7z M53.5,862.6c-7.6,3.2-16.4,2.6-24-1.9
	c-0.4-3.3-0.8-6.7-1.1-10.3c10.3,5.1,23.6,5.5,35.3-1C61.4,855.1,60.5,861.2,53.5,862.6z M153.8,881c-1.9-0.1-2.5,0-3-1.7
	c-0.8-3-0.7-11,0.4-12.5c1.5-3.2,6.3-3.4,7.1,0.3c0.3,1.7,0.5,4.2,0.5,7.5C159.2,878.2,158.3,881.2,153.8,881z M160.7,907.9
	c-2.5,2.2-6,2.8-7.3-0.9c-1.7-4-0.7-9.5,2.9-11.7C162.3,892.1,164.1,904.7,160.7,907.9z M221,918.1h-32.7c8-5.7-2.1-12.4-5.4-21.8
	c-1.7-6.2-1-25,1-30.5c1-7.5,13.6-17.5,11.7-24.1c-3.4-8.3-13.9-6.8-26-7.8c-8.2-0.5-18,0.2-25.9,2.8c9.2-14.8,10.9-36.5,4.3-51.9
	c1.1-0.1,2.1-0.3,3.2-0.5c17.3-4.5,26.9-24.2,27.8-43.5c1.4-0.1,2.9-0.9,3.8-1.9c15.8-11.4,35.8-8.2,47.9,7.6c0.2,0,0.3,0,0.5,0
	c1.5,12,2.8,25.4,4,40.1C242.9,880.4,221,918.1,221,918.1z M138.5,654.9l9.1,0c0.3,0.1,0.6,0.2,1,0.2c9.3,7.3,13.6,23.8,6.2,34
	c-2.1,1-6.2,4-8.8,5.1C151.3,679.6,148.6,666.3,138.5,654.9z M174.4,715.6c-1.1-2.3-2.4-4.4-3.8-6.3c-5.7-6.3-13.1-9.4-20.7-10
	c1.2-0.6,2.3-1.3,3.4-2c12.2-9,28.6,6.4,30.8,18.7c0.4,2.5-2.6,8-4.2,11.1C178.7,722.9,176.8,719,174.4,715.6z M157.8,655.9
	c12-1,15.7,17.3,11,25.3c-1.7,0.8-3.4,2.2-5.1,3.1C166.3,673.1,164.2,665,157.8,655.9z M166.9,689.4c4.2-3,6.6-3.9,11.7-1
	c5.8,2.5,10,7.6,12,14.2c0,1.9-1.6,4.1-2.4,6C184.3,699.2,176.7,692.3,166.9,689.4z M183.6,658.6c4.7-0.6,6.7,7.7,4.9,11
	c-0.5,0.8-1.2,1.3-2.3,1.8C186.7,666.8,185.9,662.8,183.6,658.6z M185.6,681.5c4.7,1.8,11.2,7.9,8.8,13.5c-2.9-5.7-8.4-10.5-14.9-13
	C181.3,680.9,183.4,680.8,185.6,681.5z M199.7,697.9c3-6.9,18.8-5.7,19.7,1.7C213.6,696.7,206.6,696,199.7,697.9z M222.2,713.9
	l0.3-0.1c0.1,0.2,0.1,0.5,0.2,0.7c-6.4-4.7-18.1-6.7-26.2-3.6c-0.9,0.2-1.8,0.4-2.6,0.6c0.6-1.7,1.8-3.4,2.4-5.2
	c5.9-4.1,15-4,21.1-0.6C221.2,706.9,222.1,710,222.2,713.9z M204.5,687.6c0.4-1.1,0.8-2.2,1.4-2.5c3.5-1.4,11.1-1.6,11.2,3.7
	C213,687.2,208.6,686.8,204.5,687.6z M204.8,671.6c-0.9,1.8-1.5,3.1-1.8,3.9c-2-2.2-3.7-3.4-4.7-4.3c2.8-1.5,4.7-2.4,9.1-5
	C206.7,667.9,205.6,670.2,204.8,671.6z M203.1,661.4c-2.6,1.5-5.3,3.1-7.9,4.5c-0.3-2.9-0.8-5-1.2-6.2c1.8,0.3,6.2,0.8,10.1,1.1
	C203.8,661,203.5,661.2,203.1,661.4z M199,684.8c0,0.1-0.1,0.2-0.1,0.2c-2.4-4.1-6.3-6.8-9.6-8.6C192.8,672.9,202.1,680.3,199,684.8
	z M178.5,675.4c-0.5,0.7-1.2,1.2-1.9,1.5c1.5-6.8-0.6-13.9-4.1-19.6C180.4,658.8,181.9,670.4,178.5,675.4z M196.1,717.3
	c7.8-3,16.6-2.1,24.2,2.7c4.8,2.1,4.8,6.4,5.7,11.2l0.1,0c0.2,1,0.5,2.1,0.7,3.1c-10.2-8.7-26.7-11.6-41.2-4.1
	C188,724.6,189.1,718.6,196.1,717.3z M208.8,678.1c1.4-3.1,2.6-6.3,4.1-9.4c0.4,3.4,1.4,6.5,2.2,10
	C212.9,678.2,210.9,678,208.8,678.1z M142.8,735.4c7.6,1,10.4,8.5,10.8,17.3c0.1,7.3-0.6,22.2-9.9,18.8
	C133.5,766.4,129.3,738.2,142.8,735.4z M126.5,820.4c0.1,7.3-0.6,22.2-9.9,18.8c-10.2-5.1-14.4-33.3-0.9-36.1
	C123.3,804.2,126.1,811.6,126.5,820.4z M27.8,786.5c5.9-79.8,21.7-131.6,21.7-131.6l37.5,0c-6.6,8.8-2.3,25.6,11.4,24.7
	c10.4-2.8,16-16.9,10.8-24.7l20.3,0c11.9,9.1,18.5,26.6,7,45.2c-0.2,0.2-0.3,0.5-0.4,0.8c-8.3,2.6-15.8,8.1-20.3,15.7
	c-0.7-2-1.8-4-3.3-6.1c-4.4-7-3.7-4.8-4.3-13.4c-0.3-4.3-0.7-7.3-1.4-8.8c-1.8-3.9-7.7-6.3-11.3-3.8c-5.9,3.5-3.9,18.6-5.5,23.2
	c-2,6.4-10.3,15.4-5.1,22.8c3.5,5.2,14.5,9,21.7,4.4c1.9-0.9,3.5-1.9,4.8-3.1c0,1.1,0,2.3,0.1,3.4c-0.3,10.2,2.3,22.1,7.5,31.7
	c-18.1,0.6-36.1,15.1-34.6,36c-0.6,22.8,12.9,54.1,38.6,49.3c-6.2,11.6-4.5,26.4,9.8,34.4c3.2,2.2,5.3,3.5,6.4,3.8
	c0.1,0.9-0.8,2.3-1.3,3.2c-2.7,4.3-4,8.4-4,12.3c0.1,5.6,2.6,9.4,6.5,12h-23.5c-7.2-7.5-14.3-19.1-3.3-40.1c1.3-2.2-0.2-4.8-2.7-4.7
	c-20,1.5-35.7-11.7-37.3-31.6c-0.7-4.7-5.4-3.2-7.4-1.1c-12,9.2-26.6,9.7-38.4,2.4C26.5,826.4,26.2,807.4,27.8,786.5z"/>
<path id="FrameC_Cut" class="st2" d="M1498,541.5c20.3-5.7,72.6-30.3,112.4-104.6c42.4-79.1,35.5-171.7,6.2-208.7
	c-29.3-37.1-68.8-51.7-135.4-72.3l-22-10.5c-47.2-21.1-48.3-93.8-48.3-94.3v-0.9h-37v77.7c-0.2,1.3-0.4,2.2-1.7,2
	c-1.1-0.1-0.9-1-1-2V50.2H1334v0.9c0,0.5-1.2,73.4-48.6,94.4l-21.9,10.4c-66.6,20.5-106.1,35.2-135.4,72.3
	c-29.4,37-36.3,129.5,6.2,208.7c39.8,74.3,92.1,98.9,112.4,104.6l124.2,0v-21.5c0.1-0.9,0.4-2,1.5-2.1c1.2,0,1.3,1.4,1.3,2.1v21.6
	H1498z M1373.7,490.6v21.5c-0.2,1.3-0.4,2.2-1.7,2c-1.1-0.2-0.9-1-1-2v-21.6l-161.4-0.2v-2.3h20.3c25.1,0,27.3,0.2,5.6-16
	c-102.5-80.4-72.8-193.8-55.5-221.4c7.8-12.6,20.3-22.5,32.7-30c33.4-18.7,31.3-15.5-4.4-15.6h-19.3c-0.7,0-1.2-0.5-1.2-1.2v-0.1
	c0-0.6,0.5-1.1,1.1-1.1l182,0.2v-42.4c0.2-1.3,0.4-2.2,1.7-2c1.1,0.1,0.9,1,1,2V203l182.3-0.2c0.6,0,1,0.5,1,1v0.1
	c0,0.6-0.5,1.1-1.1,1.1h-19.4c-34.1,0.4-51.7-2.3-4.4,15.6c13.8,5.9,24.9,17.5,32.7,30c17.3,27.6,47,141-55.3,221.4
	c-14.7,11.8-32.4,16.6,5.6,16h19.2c0.6,0,1.1,0.5,1.1,1.1l0,0c0,0.7-0.5,1.2-1.2,1.2L1373.7,490.6z"/>
<path id="FrameB_Cut" class="st2" d="M948.5,541.5c20.3-5.7,72.6-30.3,112.4-104.6c42.4-79.1,35.5-171.7,6.2-208.7
	c-29.3-37.1-68.8-51.7-135.4-72.3l-22-10.5c-47.2-21.1-48.3-93.8-48.3-94.3v-0.9h-76.9v0.9c0,0.5-1.2,73.4-48.6,94.4L714,155.9
	c-66.6,20.5-106.1,35.2-135.4,72.3c-29.4,37-36.3,129.5,6.2,208.7c39.8,74.3,92.1,98.9,112.4,104.6L948.5,541.5z M821.3,202.7v-76.4
	c0.2-1.3,0.4-2.2,1.7-2c1,0.2,0.9,1,1,2v76.5l182.2,0c0.6,0,1,0.5,1,1v0.1c0,0.6-0.5,1.1-1.1,1.1h-19.4c-34.1,0.4-51.7-2.3-4.4,15.6
	c13.8,5.9,24.9,17.5,32.7,30c17.3,27.6,47,141-55.3,221.4c-14.7,11.8-32.4,16.6,5.6,16h19.2c0.6,0,1.1,0.5,1.1,1.1l0,0
	c0,0.7-0.5,1.2-1.2,1.2l-160.3,0v29.5c-0.2,1.3-0.4,2.2-1.7,2c-1-0.2-0.9-1-1-2v-29.6L660,490.4v-2.3h20.3c25.1,0,27.3,0.2,5.6-16
	c-102.5-80.4-72.8-193.8-55.5-221.4c7.8-12.6,20.3-22.5,32.7-30c33.5-18.7,31.3-15.5-4.4-15.6h-19.3c-0.7,0-1.2-0.5-1.2-1.2v-0.1
	c0-0.6,0.5-1.1,1.1-1.1L821.3,202.7z"/>
<path id="FrameA_Cut" class="st2" d="M514.3,228.2c-18.8-23.9-41.9-38.4-73.7-51.2c0.7-0.4,1-0.9,1.2-1.9c0.7-4.5,0.4-8.9-0.8-13.3
	c-1.4-4.9-3.1-9.8-4.6-14.6c3.3-0.2,6.9-0.3,10.4-0.8c3.2-0.5,6.3-1.6,9.4-2.5c1.1-0.3,1.4-1,0.8-2.2c-0.6-1.2-0.9-2.6-1.4-4
	c8.4-2.8,16.4-5.8,23.4-11.1c-3.6-8.6-9.4-15.2-17.1-20.5c1-0.8,1.8-1.4,2.6-2c3.6-2.7,7-5.7,9.5-9.5c0.6-0.9,0.6-1.5,0-2.3
	c-2.1-2.8-4.9-4.7-8.2-5.8c-1.8-0.6-3.7-1-5.9-1.5c0.9-1.6,1.6-3.1,2.4-4.6c2.9-5.2,5.1-10.6,6-16.6c1.1-8.2-0.6-16-3.4-23.6
	c-0.1-0.3-0.5-0.7-0.9-0.8c-12.5-6.1-25.1-7.1-38-1.2c-2.2,1-4.4,2-6.8,3c-0.2-1.3-0.3-2.3-0.4-3.3c-0.6-4.4-2.2-8.2-5.6-11.2
	c-0.8-0.8-1.6-1-2.5-0.2c-2.5,2-5.1,3.9-7.5,6c-1.7,1.5-3.1,3.4-4.9,5.3c-4.7-8.1-10.8-14.5-19.2-18.5c-5.6,6.8-9.3,14.4-12.6,22.6
	c-1.8-0.8-3.6-1.5-5.4-2.3c-3.8,6.3-4,13.1-4,19.7c-4.4-2.4-8.7-5-13.1-7.2c-4-2-8.4-3-13-2.8c-1.5,0.1-2.3,0.6-2.9,2.1
	c-2.2,6.3-3,12.9-2.3,19.5c1.6,14.8,8.2,27.3,18.8,37.7c8.4,8.2,11.9,12.6,23.7,12.2c-3.5,4.2-12.2,11.8-20.4,19.8
	c-38.5-25.6-39.5-88.9-39.5-89.4v-0.9h-37v111.7c-0.2,1.3-0.4,2.2-1.7,2c-1-0.1-0.9-1-1-2V50.2h-37.2v0.9c0,0.3-0.4,23.7-9.3,47.8
	c-17-9-31.7-20.8-40.1-32.3c-9.9-13.6-11.4-25.9-4.5-37.8c3.3-5.6,9-12.2,17.5-11.4c7.3,0.7,14.2,6.4,16.1,13.3
	c1.6,5.9-0.7,11.4-6.9,16.1c-4,3-4.8,8.5-1.8,12.2c3,3.7,8.6,4.3,12.6,1.2c12.1-9.2,17-21.9,13.5-34.6C225.1,12,212.2,1.5,197.7,0.1
	c-14.2-1.3-27.1,6.2-35.5,20.6c-21.9,37.5,13.9,73.8,51.2,93.5c0.5,0.3,1.1,0.5,1.6,0.7c-2.2,3.9-4.7,7.6-7.5,11.2
	c-21.7-17.4-50.7-34.5-79.8-39.7c-1.3-2.5-2.7-5-4.2-7.4c-10.7-17.1-23.8-27-24.4-27.4c-3.9-2.9-9.5-2.1-12.6,1.7s-2.6,9.2,1.3,12.1
	c0.8,0.6,9.9,7.6,18.1,19.5c-19.7,1-36.2,8.7-49.2,23.1c-14.9,16.6-18.8,35.3-10.6,51.2c6.9,13.4,21.7,22.8,37.4,24.6
	c-23.8,11.3-42.2,24.7-57.8,44.4c-29.4,37-36.3,129.5,6.2,208.7c39.8,74.3,92.1,98.9,112.4,104.6l124.3,0v-32.5
	c0.1-0.9,0.4-2,1.5-2.1c1.2,0,1.3,1.4,1.3,2.1v32.6h124.3c20.3-5.7,72.6-30.3,112.4-104.6C550.5,357.8,543.6,265.2,514.3,228.2z
	 M369.3,119.7C369.2,119.7,369.2,119.8,369.3,119.7C369.2,119.7,369.2,119.7,369.3,119.7z M369.3,141.1c4.1-3.8,7.8-7.9,11.8-11.9
	c0.2,1.6,0.2,3.2,0.5,4.8c2,10.4,2.8,21.3,29.8,34.1c-4.8-1.5-27.3-10.6-32.4-12.2l-16.5-7.9C365.4,145,367.8,142.5,369.3,141.1z
	 M62.4,151c-5-9.7-2.3-20.8,7.8-32c5.2-5.8,11.2-10.1,17.9-12.9c6-2.5,12.6-3.8,20-4c2.2-0.1,4.6,0,7.1,0.3
	c4.6,12.5,6.2,27.7,0.2,44.8c-5.1,14.8-15.1,18.8-22.6,19.5C80.7,167.9,67.6,161.1,62.4,151z M132.4,152.1
	c5.3-15.3,6.2-30.7,2.7-45.7c18.6,5.5,40.1,16.4,59.8,32.2c-3.6,2.7-7.5,5-11.8,6.9l-21.9,10.4c-13.6,4.2-25.9,8.1-37.4,12
	C127.4,163.5,130.3,158.2,132.4,152.1z M407.1,472.1c-14.7,11.8-32.4,16.6,5.6,16h19.2c0.6,0,1.1,0.5,1.1,1.1c0,0.7-0.5,1.2-1.2,1.2
	H107.3v-2.3h20.3c25.1,0,27.3,0.2,5.6-16C30.7,391.7,60.4,278.3,77.7,250.7c7.8-12.6,20.3-22.5,32.7-30
	c33.4-18.7,31.3-15.5-4.4-15.6H86.7c-0.7,0-1.2-0.5-1.2-1.2v-0.1c0-0.6,0.5-1.1,1.1-1.1h367c0.6,0,1,0.5,1,1v0.1
	c0,0.6-0.5,1.1-1.1,1.1h-19.4c-34.1,0.4-51.7-2.3-4.4,15.6c13.8,5.9,24.9,17.5,32.7,30C479.7,278.3,509.4,391.7,407.1,472.1z"/>
</svg>
