<?xml version="1.0" encoding="utf-8"?>
<!-- Generator: Adobe Illustrator 27.6.1, SVG Export Plug-In . SVG Version: 6.00 Build 0)  -->
<svg version="1.1" id="Paper_Pumpkin_Leaves" xmlns="http://www.w3.org/2000/svg" xmlns:xlink="http://www.w3.org/1999/xlink"
	 x="0px" y="0px" viewBox="0 0 1646.8 1963.9" style="enable-background:new 0 0 1646.8 1963.9;" xml:space="preserve">
<style type="text/css">
	.st0{fill:#E6E7E8;}
	.st1{fill:#F7941D;}
	.st2{fill:#8DC63F;}
</style>
<path id="DiffuserF_Cut" class="st0" d="M1500.5,1612.6c0.2,0.9,0.2,1.8,0.1,2.7c-0.2,2.5,1.2,4.9,3.5,6c1.7,0.8,4.3,1.2,5.5,1.2
	h37.7c4.1,0,7.9,2.4,9.6,6.2c0,0,0,0.1,0,0.1c6.9,15.6,21.2,48,20.9,122.4c-0.5,81.8-22.4,160.6-29.9,178.6
	c-0.5,1.1-1.5,1.9-2.6,1.9h-40.1c-4.9,0-8.9,4.1-8.9,9.1v3.9l-0.1,6.3c-0.2,13.1-5,13.1-7.5,13.1H1410c-6.1,0-7-6.7-7-10.8v-12.5
	c0-5-4-9.1-8.9-9.1h-40c-0.7,0-1.3-0.4-1.7-1.2c-5.7-11.8-27.6-76.9-29.9-179.4c-1.7-73.7,13.4-106.5,20.6-122.3
	c0-0.1,0.1-0.2,0.1-0.2c1.7-3.7,5.4-6.1,9.5-6.1h37.5c1.1,0,3.4-0.2,5.2-1c2.5-1.1,4-3.6,3.8-6.3c-0.1-0.7,0-1.5,0.1-2.2l3.4-23.2
	c2.5-16.8,16.9-29.3,34-29.3h38.4c10.2,0,18.7,7.7,19.8,17.8c0,0.2,0,0.4,0.1,0.6L1500.5,1612.6z"/>
<path id="DiffuserE_Cut" class="st0" d="M1223,1612.6c0.2,0.9,0.2,1.8,0.1,2.7c-0.2,2.5,1.2,4.9,3.5,6c1.7,0.8,4.3,1.2,5.5,1.2h37.7
	c4.1,0,7.9,2.4,9.6,6.2c0,0,0,0.1,0,0.1c6.9,15.6,21.2,48,20.9,122.4c-0.5,81.8-22.4,160.6-29.9,178.6c-0.5,1.1-1.5,1.9-2.6,1.9
	h-40.1c-4.9,0-8.9,4.1-8.9,9.1v3.9l-0.1,6.3c-0.2,13.1-5,13.1-7.5,13.1h-78.4c-6.1,0-7-6.7-7-10.8v-12.5c0-5-4-9.1-8.9-9.1h-40
	c-0.7,0-1.3-0.4-1.7-1.2c-5.7-11.8-27.6-76.9-29.9-179.4c-1.7-73.7,13.4-106.5,20.6-122.3c0-0.1,0.1-0.2,0.1-0.2
	c1.7-3.7,5.4-6.1,9.5-6.1h37.5c1.1,0,3.4-0.2,5.2-1c2.5-1.1,4-3.6,3.8-6.3c-0.1-0.7,0-1.5,0.1-2.2l3.4-23.2
	c2.5-16.8,16.9-29.3,34-29.3h38.4c10.2,0,18.7,7.7,19.8,17.8c0,0.2,0,0.4,0.1,0.6L1223,1612.6z"/>
<path id="DiffuserD_Cut" class="st0" d="M934.9,1612.6c0.2,0.9,0.2,1.8,0.1,2.7c-0.2,2.5,1.2,4.9,3.5,6c1.7,0.8,4.3,1.2,5.5,1.2
	h37.7c4.1,0,7.9,2.4,9.5,6.2c0,0,0,0.1,0,0.1c6.9,15.6,21.2,48,20.9,122.4c-0.5,81.8-22.4,160.6-29.9,178.6
	c-0.5,1.1-1.5,1.9-2.6,1.9h-40.1c-4.9,0-9,4.1-9,9.1v3.9l-0.1,6.3c-0.2,13.1-5,13.1-7.5,13.1h-78.5c-6.1,0-7-6.7-7-10.8v-12.5
	c0-5-4-9.1-9-9.1h-40c-0.7,0-1.3-0.4-1.7-1.2c-5.7-11.8-27.6-76.9-29.9-179.4c-1.7-73.7,13.4-106.5,20.6-122.3
	c0-0.1,0.1-0.2,0.1-0.2c1.7-3.7,5.4-6.1,9.5-6.1h37.5c1.1,0,3.4-0.2,5.2-1c2.5-1.1,4-3.6,3.8-6.3c-0.1-0.7,0-1.5,0.1-2.2l3.5-23.2
	c2.5-16.8,17-29.3,34-29.3h38.4c10.2,0,18.7,7.7,19.8,17.8c0,0.2,0,0.4,0.1,0.6L934.9,1612.6z"/>
<path id="DiffuserC_Cut" class="st0" d="M1500.5,1159.9c0.2,0.9,0.2,1.8,0.1,2.7c-0.2,2.5,1.2,4.9,3.5,6c1.7,0.8,4.3,1.2,5.5,1.2
	h37.7c4.1,0,7.9,2.4,9.6,6.2c0,0,0,0.1,0,0.1c6.9,15.6,21.2,48,20.9,122.4c-0.5,81.8-22.4,160.6-29.9,178.6
	c-0.5,1.1-1.5,1.9-2.6,1.9h-40.1c-4.9,0-8.9,4.1-8.9,9.1v3.9l-0.1,6.3c-0.2,13.1-5,13.1-7.5,13.1H1410c-6.1,0-7-6.7-7-10.8v-12.5
	c0-5-4-9.1-8.9-9.1h-40c-0.7,0-1.3-0.4-1.7-1.2c-5.7-11.8-27.6-76.9-29.9-179.4c-1.7-73.7,13.4-106.5,20.6-122.3
	c0-0.1,0.1-0.2,0.1-0.2c1.7-3.7,5.4-6.1,9.5-6.1h37.5c1.1,0,3.4-0.2,5.2-1c2.5-1.1,4-3.6,3.8-6.3c-0.1-0.7,0-1.5,0.1-2.2l3.4-23.2
	c2.5-16.8,16.9-29.3,34-29.3h38.4c10.2,0,18.7,7.7,19.8,17.8c0,0.2,0,0.4,0.1,0.6L1500.5,1159.9z"/>
<path id="DiffuserB_Cut" class="st0" d="M1223,1159.9c0.2,0.9,0.2,1.8,0.1,2.7c-0.2,2.5,1.2,4.9,3.5,6c1.7,0.8,4.3,1.2,5.5,1.2h37.7
	c4.1,0,7.9,2.4,9.6,6.2c0,0,0,0.1,0,0.1c6.9,15.6,21.2,48,20.9,122.4c-0.5,81.8-22.4,160.6-29.9,178.6c-0.5,1.1-1.5,1.9-2.6,1.9
	h-40.1c-4.9,0-8.9,4.1-8.9,9.1v3.9l-0.1,6.3c-0.2,13.1-5,13.1-7.5,13.1h-78.4c-6.1,0-7-6.7-7-10.8v-12.5c0-5-4-9.1-8.9-9.1h-40
	c-0.7,0-1.3-0.4-1.7-1.2c-5.7-11.8-27.6-76.9-29.9-179.4c-1.7-73.7,13.4-106.5,20.6-122.3c0-0.1,0.1-0.2,0.1-0.2
	c1.7-3.7,5.4-6.1,9.5-6.1h37.5c1.1,0,3.4-0.2,5.2-1c2.5-1.1,4-3.6,3.8-6.3c-0.1-0.7,0-1.5,0.1-2.2l3.4-23.2
	c2.5-16.8,16.9-29.3,34-29.3h38.4c10.2,0,18.7,7.7,19.8,17.8c0,0.2,0,0.4,0.1,0.6L1223,1159.9z"/>
<path id="DiffuserA_Cut" class="st0" d="M934.9,1159.9c0.2,0.9,0.2,1.8,0.1,2.7c-0.2,2.5,1.2,4.9,3.5,6c1.7,0.8,4.3,1.2,5.5,1.2
	h37.7c4.1,0,7.9,2.4,9.5,6.2c0,0,0,0.1,0,0.1c6.9,15.6,21.2,48,20.9,122.4c-0.5,81.8-22.4,160.6-29.9,178.6
	c-0.5,1.1-1.5,1.9-2.6,1.9h-40.1c-4.9,0-9,4.1-9,9.1v3.9l-0.1,6.3c-0.2,13.1-5,13.1-7.5,13.1h-78.5c-6.1,0-7-6.7-7-10.8v-12.5
	c0-5-4-9.1-9-9.1h-40c-0.7,0-1.3-0.4-1.7-1.2c-5.7-11.8-27.6-76.9-29.9-179.4c-1.7-73.7,13.4-106.5,20.6-122.3
	c0-0.1,0.1-0.2,0.1-0.2c1.7-3.7,5.4-6.1,9.5-6.1h37.5c1.1,0,3.4-0.2,5.2-1c2.5-1.1,4-3.6,3.8-6.3c-0.1-0.7,0-1.5,0.1-2.2l3.5-23.2
	c2.5-16.8,17-29.3,34-29.3h38.4c10.2,0,18.7,7.7,19.8,17.8c0,0.2,0,0.4,0.1,0.6L934.9,1159.9z"/>
<path id="BottomBase_Cut" class="st1" d="M1644.4,838.7c1.4-8.8,2.2-17.8,2.4-27c0-1.9-1.5-3.5-3.4-3.5h-42.3
	c-0.7,0-1.2-0.5-1.2-1.2v0c0-0.7,0.6-1.2,1.2-1.2h42.3c1.9,0,3.4-1.5,3.4-3.5c-0.2-9.2-1.1-18.2-2.4-27c-0.4-2.4-1.2-4.8-2.5-6.9
	L1577.6,657c-1.2-2.1-2.8-4-4.7-5.6c-7.2-5.8-14.7-11.2-22.6-16c-1.3-0.8-3-0.3-3.8,1l-21.5,37.2c-0.3,0.6-1.1,0.8-1.7,0.5
	c-0.6-0.3-0.8-1.1-0.5-1.7l21.5-37.2c0.8-1.3,0.3-3-1-3.8c-8.1-4.5-16.5-8.4-25.2-11.7c-2.3-0.9-4.8-1.3-7.2-1.3h-128.6
	c-2.5,0-4.9,0.4-7.2,1.3c-8.5,3.2-16.8,7.1-24.7,11.4c-1.7,0.9-2.2,3-1.3,4.6l21.2,36.6c0.3,0.6,0.1,1.4-0.5,1.7
	c-0.6,0.3-1.3,0.1-1.7-0.5l-21.2-36.7c-0.9-1.6-3.1-2.2-4.7-1.2c-7.7,4.7-15.1,10-22.1,15.7c-1.9,1.5-3.5,3.5-4.7,5.6l-64.3,111.4
	c-1.2,2.1-2.1,4.5-2.5,6.9c-1.4,9-2.3,18.1-2.4,27.5c0,1.6,1.3,3,2.9,3h42.8c0.7,0,1.2,0.6,1.2,1.2c0,0.7-0.6,1.2-1.2,1.2h-42.8
	c-1.6,0-2.9,1.3-2.9,3c0.2,9.3,1,18.5,2.4,27.5c0.4,2.4,1.2,4.8,2.5,6.9l64.3,111.4c1.2,2.1,2.8,4,4.7,5.6
	c7.1,5.7,14.5,11,22.3,15.8c1.5,0.9,3.4,0.4,4.3-1.1l20.9-36.2c0.4-0.7,1.3-1.2,2.1-1.2l0,0c0.6,0.3,0.8,1.1,0.5,1.7l-21.3,36.9
	c-0.9,1.5-0.3,3.4,1.2,4.3c8,4.4,16.3,8.2,24.9,11.5c2.3,0.9,4.8,1.3,7.2,1.3h128.6c2.5,0,4.9-0.4,7.2-1.3
	c8.7-3.3,17.1-7.2,25.2-11.7c1.4-0.8,1.9-2.5,1.1-3.9l-21.4-37.1c-0.3-0.6-0.1-1.4,0.5-1.7c0.6-0.3,1.3-0.1,1.7,0.5l21.4,37.1
	c0.8,1.4,2.6,1.8,3.9,1c7.9-4.8,15.4-10.1,22.6-15.9c1.9-1.5,3.5-3.5,4.7-5.6l64.3-111.4C1643.1,843.5,1644,841.1,1644.4,838.7z
	 M1392.8,627.7c0-0.7,0.6-1.3,1.3-1.3h104.2c0.7,0,1.4,0.4,1.6,1.1c0.4,1.1-0.5,2.2-1.5,2.2h-104c-0.9,0-1.6-0.7-1.6-1.6
	L1392.8,627.7L1392.8,627.7z M1315.9,942.6c-0.7,0.2-1.4-0.2-1.8-0.8l-51.9-89.9c-0.3-0.6-0.3-1.4,0.1-1.9c0.8-0.9,2.1-0.7,2.6,0.3
	l52,90C1317.5,941.1,1317.1,942.3,1315.9,942.6z M1318.1,672.4l-52,90c-0.3,0.6-1.1,1-1.8,0.8c-1.2-0.2-1.6-1.5-1.1-2.4l52-90
	c0.3-0.6,1.1-1,1.8-0.8C1318.1,670.3,1318.6,671.5,1318.1,672.4z M1498.5,987.7h-103.7c-1.1,0-2-0.9-2-2l0,0c0-0.6,0.3-1.3,1.9-1.3
	h0.3h103.4c0.7,0,1.4,0.4,1.6,1.1C1500.4,986.7,1499.6,987.7,1498.5,987.7z M1447.4,914.8c-60.3,0.5-109.2-48.4-108.7-108.7
	c0.5-58.5,48.3-106.3,106.8-106.8c60.3-0.5,109.2,48.4,108.7,108.7C1553.7,866.5,1505.9,914.3,1447.4,914.8z M1572.9,670.5l0.3-0.2
	c0.7-0.4,1.7-0.2,2.1,0.5l52.3,90.6c0.3,0.6,0.1,1.3-0.4,1.7l-0.7,0.4c-0.6,0.3-1.3,0.1-1.7-0.4l-52.3-90.6
	C1571.9,671.8,1572.2,670.9,1572.9,670.5z M1573.9,942.1c-0.7-0.4-0.9-1.2-0.5-1.8l52.3-90.6c0.3-0.6,1.1-0.8,1.7-0.5l0.6,0.3
	c0.6,0.3,0.8,1.1,0.5,1.7l-52.3,90.6c-0.4,0.7-1.2,0.9-1.8,0.5L1573.9,942.1z"/>
<path id="TopBase_Cut_00000016043015009056488390000014740177408573190532_" class="st1" d="M1208.3,828c0.8-7.2,1.2-14.3,1.2-21.5
	c0-0.7-0.5-1.2-1.2-1.2h-41.7c-0.7,0-1.2-0.5-1.2-1.2c0-0.6,0.5-1.1,1.2-1.1h41.7c0.7,0,1.2-0.5,1.2-1.2c-0.1-7.3-0.6-14.5-1.4-21.7
	c-0.5-4.6-2-9-4.3-12.9l-75-129.9c-2.2-3.8-5.1-7.1-8.7-9.7c-5.7-4.2-11.6-8.2-17.8-11.8c-0.9-0.6-2.2-0.2-2.7,0.7l-20.4,35.4
	c-0.3,0.6-1,0.8-1.6,0.4c-0.6-0.3-0.8-1-0.4-1.6l20.4-35.4c0.5-0.9,0.2-2.2-0.7-2.7c-6.6-3.7-13.2-7-20-9.9
	c-3.4-1.5-7.2-2.2-10.9-2.2H915.9c-5.3,0-10.5,1.1-15.3,3.3c-5.9,2.6-11.7,5.5-17.4,8.7c-1.1,0.6-1.5,2-0.9,3.1l20.3,35.2
	c0.3,0.5,0.1,1.2-0.4,1.6c-0.6,0.3-1.3,0.2-1.6-0.4l-20.2-35.1c-0.6-1.1-2-1.5-3.1-0.8c-5.5,3.3-10.9,6.9-16.1,10.7
	c-4.4,3.2-8,7.2-10.7,11.9L776,767.2c-2.4,4.1-3.9,8.6-4.4,13.3c-0.7,6.8-1.2,13.6-1.2,20.5c0,1.3,1,2.3,2.3,2.3h40.5
	c0.7,0,1.2,0.5,1.2,1.2c0,0.6-0.5,1.1-1.2,1.1h-40.5c-1.3,0-2.3,1.1-2.3,2.3c0.1,7.3,0.6,14.5,1.4,21.7c0.4,3.7,1.6,7.3,3.5,10.6
	l79.1,137c7.5,5.8,15.4,11.2,23.7,16.2c0.6,0.3,1.3,0.1,1.6-0.4l20.8-36.1c0.3-0.6,1-0.8,1.6-0.4s0.8,1,0.4,1.6l-20.8,36.1
	c-0.3,0.6-0.1,1.3,0.4,1.6c6.4,3.6,13,6.9,19.6,9.8c4.1,1.8,8.5,2.7,13,2.7H1065c4.4,0,8.7-0.9,12.7-2.6c6.8-3,13.4-6.3,19.9-9.9
	c0.6-0.3,0.8-1,0.4-1.6l-20.8-36.2c-0.3-0.5-0.1-1.2,0.4-1.6c0.6-0.3,1.3-0.2,1.6,0.4l20.8,36.1c0.3,0.6,1.1,0.8,1.6,0.4
	c5.8-3.4,11.4-7.1,16.9-11.1c4.5-3.3,8.3-7.5,11.2-12.3l74-128.1C1206.2,837.6,1207.8,832.9,1208.3,828z M853.7,947.6
	c-0.6,0.3-1.3,0.2-1.6-0.4l-56.5-97.8c-0.3-0.5-0.1-1.2,0.4-1.6c0.6-0.3,1.3-0.2,1.6,0.4l56.5,97.8
	C854.5,946.6,854.3,947.2,853.7,947.6z M855.2,660.2L798.8,758c-0.3,0.6-1,0.8-1.6,0.4s-0.8-1-0.4-1.6l56.5-97.8
	c0.3-0.6,1-0.8,1.6-0.4C855.4,659,855.6,659.7,855.2,660.2z M1044.5,994.3H931.6c-0.7,0-1.2-0.5-1.2-1.2c0-0.6,0.5-1.1,1.2-1.1
	h112.9c0.7,0,1.2,0.5,1.2,1.2C1045.6,993.8,1045.1,994.3,1044.5,994.3z M949.3,798.2c-0.5,0.8-1.4,1.3-2.3,1.2
	c-0.6-0.1-0.7,0-0.8-0.1l0,0c-0.1-0.1-0.1-0.3,0-0.4l17.1-29.6c0.1-0.2,0.3-0.2,0.4-0.2c0,0,0,0,0.1,0.1c0.9,0.8,1.2,2,0.6,3.1
	L949.3,798.2z M964.4,836.5c0.6,1.1,0.4,2.6-0.7,3.2l0,0l0,0c-0.1,0.1-0.3,0-0.4-0.2l-17.2-29.6c-0.1-0.2-0.1-0.4,0.1-0.4
	c0.1-0.1,0.3-0.1,0.4-0.2c1-0.3,2.2,0.2,2.7,1.1L964.4,836.5z M1004.9,766.4h-30c-1.2,0-2.2-0.9-2.4-2c0-0.2-0.1-0.3-0.1-0.3
	c0-0.1,0.2-0.3,0.3-0.3h34.2c0.2,0,0.4,0.1,0.3,0.3c0,0.1,0,0.2-0.2,0.6C1006.9,765.6,1006,766.4,1004.9,766.4z M1033.6,799.3
	c-0.1,0-0.2,0-0.9,0.2c-1,0.2-2.1-0.2-2.7-1.1l-15-25.9c-0.6-1.1-0.3-2.5,0.8-3.2c0.2-0.1,0.2-0.2,0.3-0.2c0.1-0.1,0.3,0,0.4,0.2
	l17.1,29.6C1033.8,799.1,1033.8,799.3,1033.6,799.3z M1033.7,809.9l-17.1,29.6c-0.1,0.2-0.3,0.2-0.4,0.2c-0.1,0-0.1-0.1-0.4-0.5
	c-0.8-0.8-0.9-2-0.4-2.9l15-26c0.6-1,1.9-1.5,3-1c0.2,0.1,0.2,0.1,0.3,0.1C1033.8,809.6,1033.8,809.8,1033.7,809.9z M1046.4,614.5
	h-113c-0.7,0-1.2-0.5-1.2-1.2c0-0.6,0.5-1.1,1.2-1.1h112.9c0.7,0,1.2,0.5,1.2,1.2C1047.5,614,1047,614.5,1046.4,614.5z M1126,659.5
	c0.6-0.3,1.3-0.2,1.6,0.4l56.5,97.8c0.3,0.5,0.1,1.2-0.4,1.6c-0.6,0.3-1.3,0.2-1.6-0.4l-56.5-97.8
	C1125.3,660.5,1125.4,659.8,1126,659.5z M1124.7,948.4l56.5-97.8c0.3-0.6,1-0.8,1.6-0.4c0.6,0.3,0.8,1,0.4,1.6l-56.5,97.8
	c-0.3,0.6-1,0.8-1.6,0.4C1124.6,949.7,1124.4,949,1124.7,948.4z M975,842.4h30c1.2,0,2.2,0.9,2.4,2c0,0.2,0.1,0.3,0.1,0.3
	c0,0.1-0.2,0.3-0.3,0.3H973c-0.2,0-0.4-0.1-0.3-0.3c0-0.1,0-0.2,0.2-0.6C972.9,843.2,973.9,842.4,975,842.4z"/>
<path id="PanelF_Cut" class="st1" d="M469.7,1567c0.6,1.6,2,2.6,3.7,2.6h19.4c1.9,0.2,28.3-0.6,29.3,0.6c1.3,0.6,0.7,2.6-0.7,2.6
	l-49.7-0.2c0,0,46.9,104.4,67.9,128c28.7,32.2,34.3,66.9,37,66.9c2.6,0,12.4-37.6,39.1-67.9c17.5-22,64.8-113.7,66.1-127l-46,0.1
	c-1.4,0-1.9-2-0.6-2.6c12.6-1.5,36.4-0.1,49-0.6c48-54.5,19.6-276.2-3.7-315.2c-1.2-2.4-3.6-4-6.2-4h-40c-1.8,0-2.8-0.9-3.4-2.1
	c-0.7-1.7,19.7-1,19.8-2.7c-0.7-10.3,3.7-37.8-12.4-37.5H519.9c-17.3-0.1-11.6,26.5-12.7,38.3c0,0.8,19.8,1.6,19.4,2.2
	c-0.7,1.1-1.9,1.9-3.3,1.9h-40.1c-3.1,0-6,1.9-7.2,4.9C449.5,1312.3,428.8,1504.2,469.7,1567z M483.7,1525.3
	c-0.4-1.5-0.9-3.1-1.3-4.8c1,1.3,1.9,2.5,3.2,3.6C484.9,1524.5,484.2,1524.9,483.7,1525.3z M486.4,1533.9c-0.1-0.2-0.1-0.4-0.2-0.6
	c0.1,0.1,0.3,0.1,0.4,0.2C486.5,1533.6,486.5,1533.8,486.4,1533.9z M489.5,1540.2c-0.2,0.3-0.3,0.6-0.4,0.9
	c-0.7-1.7-1.4-3.5-2.1-5.4c1.5,0.6,3.1,0.7,4.6,0.7C490.9,1537.6,490.2,1538.9,489.5,1540.2z M502.5,1502.1
	c-1.9-0.3-2.5,2.6-2.9,4.1c-11.5-6.8-18.8-0.4-13,11.8c-1.7,0.1-3.4,0.5-4.4,1.9c-2.9-11.3-5.6-25.8-7.2-44.6
	c-0.2-2.3,1.8-4.2,4.1-4.1c6.8,0.5,13.7-1.9,19.3-5.8c-3.6,13,0.3,28.7,12,36c-1.8,1-3.3,2.4-4.5,4.2
	C504.8,1504.3,503.9,1503,502.5,1502.1z M544,1416.1c-0.5-4.9-1.9-9.3-4.1-13.6c0,0,0,0,0,0c4.7-0.2,9.2-0.9,13.8-1.9
	c10.7,7.1,13.3,8.6,32.8,9.7c-4.4,5.7-7.2,12.5-8.3,19.4c-2.7-4.2-7.2-8.5-14.4-10.1c5.2,8.5-0.4,13.1,1,20.9
	c-7.8-3.9-17.5-6.1-26.4-5.2C542.5,1429.7,544.5,1422.9,544,1416.1z M590.9,1325.9c8.3,11.2,1.8,13,0.6,22.1l-9-10.1
	C587.3,1336.9,591.7,1331.5,590.9,1325.9z M611.4,1351.7c-2.1,5.9,5.5,12.5,10.7,8.2c1.9-1.6,2.8-4.3,2.5-7.6c0-0.4,0.4-1.2,1.6-1.6
	c5.8,3.4,1.2,11-2.9,13.7c-14.2,9.6-35.1-10.8-16.6-28c15.2,8.3,33.2,5.4,46.6-4.9c29.5,25.9-0.6,54.8-30.3,55.3
	c-10.7,1-21.4,3.5-32.1,1.3c-8.1-2.8-15.7,10.8-7.5,15.1c-7.6-0.5-15.8-1.6-22.5-4.7c15.8-5.6,32.1-16.8,35-34.6
	c11.3,16.1,38.2,11.8,38.8-9C634,1343.5,613.9,1340.1,611.4,1351.7z M617,1329.2c9-4.4,20.1-5.6,28.5-1.8c0.8,0.4,1.2,1.5,0.6,2.2
	c0,0.1-0.1,0.1-0.2,0.2c-10.1,5.9-20.3,5.1-28.7,2.4C615.8,1331.6,615.7,1329.8,617,1329.2z M643.5,1448.3c-1.6-0.4-4.3-2-5.5-0.5
	c-0.7,4,2.2,9,6.1,10.7c-8.5,16.1-32.4,17.8-45.4,6.5c-10.7-9.5-14.4-26-10.3-39.5l0,0c0.5-1.6,1.2-3.6,2.3-4.9l-0.2-0.2
	c2.2-4.5,5.5-8.7,9.8-11.3c9.4-5.5,23.1,1.6,24.9,12c1.2,6.6-5.5,18.8-13.2,13.4c-0.1-1.3,0.6-2,1-2.1c5.6-1.2,9.2-6.1,6-10.8
	c-2.4-3.5-7.8-4.4-11.2-1.9c-15.7,11.6,12.5,37.5,23.7,8.7c2.7-0.1,5.2-1.3,7.8-2.1c0,2.3,0.4,4.8,1.2,7c0.3,0.9,1.5-0.2,2.2-0.2
	c0.9,2.7,1.5,5.3,3.1,7.7c-0.6,1.3-0.5,2.6-0.8,4c-0.4-0.1-0.7-0.2-1-0.2C643.1,1445.8,643.3,1447.1,643.5,1448.3z M627.6,1482.5
	c-0.4-1,0.2-2.1,1.2-2.3c0.8-0.2,1.7-0.4,2.5-0.7c1.1-0.3,2.2,0.4,2.2,1.6c-0.1,7.5,4,14.7,10.1,19c-5.2,0-12.4,3.4-13.1,9
	c-1-0.9-3-3.9-4.8-5.8c2.5-3.8,3.9-8.3,3.7-12.8C629.3,1487.6,628.6,1485.1,627.6,1482.5z M595.6,1499.9c5,5.5,14.4-1,12.2-7.7
	c-2-9.2-14-9.4-20.5-4.7c0.4-6.9,0.4-15.1-1.5-22c-0.1-0.4,0.4-0.7,0.7-0.3c5,6.9,10,10.1,20,14v0c2.5,0.8,5.8,1.6,8.8,1.9
	c1.2,0.1,2.3,0.8,2.9,1.9c0.7,1.2,1.3,2.5,1.7,3.6c4.7,11.5-8.3,23.4-19.6,21.1c-6.6-1.1-16.3-11.5-8.2-16.8
	c1.3,0.4,1.7,1.2,1.6,1.7C593.4,1495.5,594,1498.1,595.6,1499.9z M592.4,1396.7c0.1-0.8-0.2-1.5,0.9-1.9c3.1,3.3,0.7,7.4-3.6,8
	C591.6,1401.5,592.8,1399,592.4,1396.7z M636.5,1409.2c-1.4,0.8-3.9,3.1-5.6,5.8c-4.5-11.2-18-18.3-29.8-15.1c0.2-1.4,0-2.9-0.6-4.4
	c8.1-1.1,16.4-2.3,24.5-2.7l16.6,14.2C641.6,1407,638.5,1408.1,636.5,1409.2z M567.5,1372.8c4.1,3,8.9,5.1,13.7,3.3
	c-7.3,8.6-17.1,13.7-27.8,17c-10.7-11-4.8-38.1,13.5-34.9C561.7,1361.7,562.3,1369.6,567.5,1372.8z M587,1365.5
	c-0.8-10-11.2-14.8-20.1-15.5c4.7-0.4,11.2-4.1,11.3-9.2c2.1,2.5,10.3,10.2,13.2,12.6c0.8,6.1-2.3,9-4.4,14
	C587.1,1366.8,587.1,1366.2,587,1365.5z M576.2,1361.8c-0.1-0.4-0.2-0.8-0.4-1.2c5.7,2.7,6.4,12.4-1.9,9.8c-0.6-0.9-0.4-1.6-0.2-1.8
	C575.7,1366.5,576.6,1364.1,576.2,1361.8z M587.6,1324.9c-1.1,0.3-2.2,0.7-3.2,1c0-1.4-0.2-3-0.7-4.4c-0.2-0.6-0.9,0.1-1.4,0.1
	c-0.6-1.8-1.2-3.6-2.4-5.2c-1.9,0.8-3.4,2-4.6,3.7c-2.1-3.1-3.7-4.1-4.7,0.4c-8.4-5.2-14.2-0.1-9.8,8.9c-4.6,0.6-3.7,2.1-0.8,4.6
	c-1.8,1-3.2,2.3-4.1,4.2c1.5,1.3,3.2,2.1,5,2.8c-0.2,0.4-0.3,0.8-0.5,1.2c1.4,0.8,2.9,0.9,4.3,0.9c-1.1,2-4.4,6.6-0.1,6.8
	c-1.8,0-3.6,0.2-5.3,0.5c0.1-2.9-1.2-5.7-3.5-7.3c-3.8-4.4-9-5.3-13.2-1.5c-7.3,7.3,4.5,17.9,9.7,7.1c0.1-0.3,1-0.5,1.5-0.2
	c1.3,4.4-3.9,5.8-6,8.8c-9,2-17.7-7-19.5-15.4c-1.3-4.9-0.3-11.7,1.4-16.2c4.3-12.4,17.2-19.4,30.1-19.4
	c14.5-0.3,22.3,8.4,30.4,18.5C589.2,1324.6,588.4,1324.7,587.6,1324.9z M541.7,1440.6c10.8,0.6,19.2,3.9,25.3,8.9l-6,4.4
	c0,0-0.7-1.9-1.3-3.2s-3.4-3.9-5.9-4.6c-2.3-0.7-5.7-0.4-5.7-0.4c-0.2,0.1-0.2,0.2-0.3,0.4c-0.2,1-0.1,2,0.2,2.9
	c0.3,1.1,0.7,2.1,1,3.2c-0.7,0.1-1.5,0.1-2.3,0.2c-0.7,0.1-1.4,0.3-2.1,0.5c-0.2,0.1-0.3,0.2-0.2,0.5c0.1,0.3,0.2,0.6,0.3,0.9
	c-1.8,0.6-3.6,1.3-5.1,2.4c0.8,1.9,2.1,3.3,3.8,4.5c-0.2,0.2-0.4,0.3-0.6,0.4c-0.8,0.6-1.5,1.2-2.1,2.1c-0.1,0.2-0.1,0.3,0,0.5
	c0.5,0.6,1.1,1,1.8,1.3c0.4,0.1,0.8,0.2,1.3,0.3c-0.2,0.3-0.3,0.7-0.5,1c-0.6,1.1-1.1,2.3-1.3,3.6c-0.2,1.8,0.1,3.5,0.7,5.2
	c0,0.1,0.1,0.2,0.2,0.2c2.7,1.3,5.5,1.6,8.3,0.3c0.5-0.2,1-0.4,1.5-0.7c0,0.3,0.1,0.5,0.1,0.7c0.1,1,0.5,1.8,1.2,2.5
	c0.2,0.2,0.3,0.2,0.5,0.1c0.5-0.4,1.1-0.8,1.7-1.3c0.4-0.3,0.7-0.7,1.1-1.2c1,1.8,2.4,3.2,4.2,4.1c1.2-1.5,2-3.2,2.8-5
	c0.4,0.2,0.8,0.3,1.2,0.5c0.8-1.4,0.9-2.9,0.9-4.3c1,0.5,1.9,1.1,2.9,1.6c0.9,0.4,1.8,0.7,2.8,0.6c0.3,0,0.5-0.1,0.6-0.5
	c0.5-1.4,0.7-2.8,0.5-4.3c-0.4-3.3-1.8-6-4.1-8.3c-1.8-1.8-2.6-2.8-5.2-2.7c0.8-0.9,2.7-2.6,4.5-4.3l1.4-1.6
	c10.3,10.8,12.3,28,7.3,46.2c-3.2-18.9-31.9-16.6-41.9-4.2c-0.2,0.2-0.5,0-0.4-0.2c1.2-3.9,1.1-8.4-1.4-11.4c-5-5-13.3-7.1-17.6-0.5
	c-5.7,8.8,8.7,17.2,11.7,4.7c3.4,1,0.9,6.9-1.6,8c-7.1,4.1-15.3-0.5-18.2-7.2C496.6,1462.8,517.7,1441.9,541.7,1440.6z M564,1494.7
	c-0.3-0.6-0.6-1.1-1-1.5c7.5,0.9,11,11.4,0.8,10.9c-0.9-0.7-0.9-1.5-0.7-1.8C564.7,1499.5,565,1496.8,564,1494.7z M514.6,1541.9
	h-6.5c-1.3,0-1.9-1.6-1-2.5c0.8-0.8,1.5-1.7,2-2.7c0.7-1.3,2.4-1.7,3.4-0.6c1,1.1,2,2.3,3.1,3.3
	C516.5,1540.4,515.8,1541.9,514.6,1541.9z M528.7,1541.9c-1.3-0.4-4.2-2.5-5.1-3.3c-2.8-2.5-6.1-6.1-8.2-9.1c3.5-0.8,9-4.4,10.6-9.6
	c0.9-3.1,0.6-7.6,0.6-7.6c-2.6-1.5-6,0.5-8.8,1.1c0-1.9-0.3-4-0.9-5.8c-0.3-0.8-1.2,0.1-1.8,0.2c-0.5-1.6-1.1-3.2-1.8-4.7
	c6.3,2,13.6,0.3,18.4-4.1c0.2-0.2,0.6,0,0.5,0.3c-5.2,14.4-0.1,32.4,10.6,42.6C542.8,1541.9,528.8,1541.9,528.7,1541.9z
	 M548.2,1535.7c-3-1.8-5.8-4.9-7.4-8.1c-5.6-11.4-5.2-28.8,7.7-33.4c1.8-0.6,3.6,1,3,2.8c-3.2,10,14.5,16.7,22.3,10.1
	c-5.2,10.7-15.1,17.8-22.9,26.5C550.5,1534,548.6,1536,548.2,1535.7z M569.3,1537.4l-2.6,4.3l-13,0.1c3.2-3.1,8.9-9.1,12.2-12.2
	c2.2-1.8,4.2-3.8,6.2-5.9c0.2,2.7,1.2,5,3,7c1.5,1.6,1.2,1.9,1.5,2.5c-0.6,0.6-2.2,1-5,2.1C570.7,1535.7,569.8,1536.5,569.3,1537.4z
	 M572.1,1541.7l0.8-1.3c0.6-1.1,1.8-1.9,3.1-1.9c2.5-0.2,6.2,0,6.5,0.8c0.1,0.2,0.2,0.5,0.3,0.7c0.2,0.4,0.7,1.1,1.3,1.8
	L572.1,1541.7z M667.6,1541.7h-29.3h-45.7c-0.2-0.8-0.4-1.6-0.6-2.4c0.6,0,1.3,0,2,0c0.6-0.1,1.2-0.2,1.8-0.3
	c0.2-0.1,0.3-0.2,0.2-0.4c-0.1-0.2-0.1-0.5-0.2-0.8c1.6-0.4,3.2-0.9,4.5-1.8c-0.6-1.7-1.6-3-3-4.1c0.2-0.1,0.4-0.2,0.5-0.3
	c0.7-0.5,1.4-1,1.9-1.7c0.1-0.1,0.1-0.3,0-0.4c-0.4-0.6-0.8-0.9-1.5-1.2c-0.3-0.1-0.7-0.2-1.1-0.4c0.2-0.3,0.3-0.6,0.5-0.8
	c0.6-0.9,1.1-1.9,1.3-3.1c0.3-1.5,0.1-3-0.3-4.5c0-0.1-0.1-0.1-0.1-0.2c-2.3-1.3-4.7-1.7-7.2-0.7c-0.4,0.2-0.9,0.3-1.3,0.5
	c0-0.2,0-0.4,0-0.6c-0.1-0.8-0.3-1.6-1-2.2c-0.1-0.1-0.3-0.1-0.4,0c-0.5,0.3-1,0.7-1.5,1c-0.3,0.3-0.6,0.6-1,0.9
	c-0.8-1.6-1.9-2.9-3.4-3.7c-1.2,1.2-1.9,2.6-2.7,4.1c-0.3-0.2-0.7-0.3-1-0.5c-0.8,1.1-0.9,2.4-1,3.7c-0.8-0.5-1.6-1.1-2.4-1.5
	c-0.1-0.1-0.3-0.1-0.4-0.2c4-5.1,7.2-10.9,9.1-17.3c6.7,14.9,27.7,15.8,38.2,4.2l2.9,4.9c-2.9,0.4-7.6,3-9.2,7c-1,2.4-1,6.1-1,6.1
	c2,1.4,4.9,0,7.2-0.3c-0.1,1.6,0,3.2,0.3,4.8c0.2,0.6,1,0,1.5,0c0.5,2,1,4,2.1,5.8c2.1-0.7,3.8-1.9,5.2-3.6c2,3.6,3.6,4.7,5,0
	c8.7,6.3,15.2,1.4,11.3-8.7c5-0.2,4.1-1.9,1.3-4.9c2-0.9,3.7-2.2,4.8-4.2c-1.5-1.5-3.2-2.5-5.1-3.5c0.2-0.4,0.5-0.8,0.7-1.2
	c-1.4-1-3-1.2-4.6-1.4c1-1.6,2.4-3.1,2.8-4.9c11.6,6.3,26.6,1,31.7-10.6c0.2-0.4,0.7-0.2,0.7,0.2
	C677.3,1516.3,671.9,1531.6,667.6,1541.7z M683,1436.5c0.4,17-0.2,31.7-1.3,44.2c-0.1,0.7-1,0.8-1.3,0.2
	c-4.7-9.1-22.1-10.6-24.7,0.5c-2.4,7.2,7.4,14.1,12.6,8.1c1.6-1.9,2.1-4.7,1.4-7.8c-0.1-0.4,0.2-1.4,1.6-1.9
	c10,5.7-2.8,19.4-11,18.4c-10.3,0.1-21-9.8-17.7-20.5c0.6-1.9,1.5-4,2.3-5.7c1.8-3.2,4.6-6.1,6-9.3c2,4.2,7.7,5.7,11.5,4.2
	c0.6-1.8-1-3.7-1.7-5.3c1.2-0.2,2.4-0.6,3.5-1.2c0.5-0.2-0.2-0.7-0.3-1.1c1.4-0.8,2.8-1.6,3.9-2.8c-0.9-1.4-2.2-2.4-3.8-3.2
	c2.2-2.2,2.7-3.7-1-3.8c2.9-7.7-2.2-11.6-8.8-6.6c-1.1-3.6-2.3-2.7-3.9,0c-0.8-0.9-1.3-1.8-2.3-2.3c2.5-1.3,4-3.1,5.6-5.5
	c3.5,5,5.9,6.5,7.5-0.7c4.8,3.1,10.6,4,15.9,1.7c3.2-5.1,2.3-11.1-0.4-16.2c2-0.2,3.8-0.6,5.1-2.2c0.8-1.3-2.9-4.2-3.9-5.2
	c1.6-0.9,3-2,4.2-3.3C682.4,1418.1,682.8,1427.2,683,1436.5z M668.7,1320.3c0.5-0.7,1.6-0.5,1.8,0.4c4.5,22.5,8.8,50.8,11,83.3
	c-1.7-1-3.5-1.8-5.3-2.5l0.8-1.9c-2.2-1.3-4.7-1.4-7-1.4c4-6.9,6.7-12-4.2-11c-7.1,0.7-17.8,7.4-17.6,15.1c-2.2-2-7.8-8.3-11.4-10.8
	c12.2-2.5,24.9-10.4,31.8-20.9c3-4.7,4.5-10.2,4.5-15.7c0.1-4.1-0.7-8-2-11.8c-0.8-2.3-1.6-4.5-2.8-6.6c-1.2-2.1-3-3.7-4.1-5.8
	c-1.2-2.4-0.2-4.5,1.3-6.4c0.7-0.9,1.6-1.8,2.3-2.8C668.1,1321.2,668.4,1320.8,668.7,1320.3z M620.9,1286.3c2.3,1.3,4.2,3.5,5.5,6
	c-0.3,0.9-0.9,1.4-1.3,1.4c-3.3-0.1-5.9,1.1-7.4,3.1c-3.8,5.5,3.3,12.5,9.1,9.9c12.3-4.9,5-22.4-4.9-27.2c-0.5-0.3-0.4-1.1,0.2-1.1
	h37.7c2.3,7,4.9,16.5,7.6,28.1c-2,6.3-6.5,12.1-11.7,16.3c-13.4-9.4-36.3-7.4-49.9,3.1c-7.2-6-10.5-16.2-8.4-25
	C599.5,1291.3,611,1281.4,620.9,1286.3z M494.1,1295.9c3.8-22.4,33-10.4,23.9,2.3c-0.5-0.2-0.8-0.6-0.8-0.8c-0.6-6-4.5-8.4-8.5-6.6
	c-7.3,3.6-2.5,15,4.7,14.5c15.7-0.6,17.1-19.4,5-26.8h87.1c0.7,0,0.9,1,0.3,1.3c-12.2,5.1-20.4,19.4-17.1,32.5
	c-9.8-12.4-29.4-12.7-44.2-8.9c-5.6,1.3-8.5,4.7-13.3,6.4c-6.4,2.6-13.4,5.1-20.2,4.2C501.8,1313.2,492.4,1305.9,494.1,1295.9z
	 M521.1,1343.5c0.2,1.1,0.6,2.2,1.1,3.4c-3.5-2.8-8.2-6.3-12.8-4.4c2-6,8.8-13.5,13.1-18.4C520.3,1330.2,519.5,1337.5,521.1,1343.5z
	 M490.2,1306c5.3,10.5,17.8,18,29.6,15.1l-15.8,17.6c-1.9-2.9-7.1-6.8-12.4-6.5c-3.2,0.2-7.2,2-7.2,2c-0.4,2.9,2.5,5.4,4,7.7
	c-1.8,0.7-3.6,1.6-5,2.8c-0.6,0.5,0.5,1.1,0.8,1.6c-0.9,0.7-1.7,1.4-2.5,2.1C484.2,1332.6,487.3,1318.3,490.2,1306z M480.8,1353.4
	c1.4,1,2.9,1.7,4.6,2.1c-2.9,4-3.3,6.3,2.6,5.5c-2.4,12.8,6.2,17.4,15.3,7.9c2.8,5.4,4.2,3.5,6-1.1c2.1,1.7,4.3,2.9,7,3.2
	c0.9-2.4,1.1-4.8,1.2-7.3l1.7,0.1c0.4-2.1-0.2-3.9-0.8-5.7c3.1,0.5,10.2,2.3,8.3-3.2c4.1,5.1,10.7,9,17,9.3
	c-3.6,9.9-2.8,21.9,3.8,30.4c-3.7,0.8-7.5,1.4-11.7,1.7c-8.9-11.7-24.6-16.8-38.7-14.5c-7.5,1-15.8,3.9-21.2,8.7
	C477.3,1377.6,478.9,1365.1,480.8,1353.4z M526.3,1396.7c-1.9,0-3.7,0-5.6-0.1c-1.3-3-3.1-5.3-5.3-6.8
	C519.4,1391.3,523.1,1393.5,526.3,1396.7z M475.4,1397.4c6.5-4.3,8.1-6.3,12.5-7.6c5-1.8,10.4-2.6,15.7-2.4
	c-6.2,1.3-12.5,6.4-16.3,15.2l-1.9,4.5c5.5-2.4,11.6-3.8,17-0.3c5.6,3.3,15.1,0.6,17.7-5.3c2.5,0.3,8.5,1.2,10.9,1
	c17.3,25.2-13.7,47.6-24.9,32.4c-4.5-6.4-3-13,4.9-15.3c1,0.4,1.4,1.2,1.3,1.5c-0.6,2.9-0.2,5.4,1.2,7.1c4.2,5.2,12.8-0.1,11.4-6.2
	c-2.3-13.7-24.4-8.3-27,2.6c-2.1,8.9,4.2,19.6,13.3,21.7c-8.9,8.4-20.2,17.4-32.8,17.5c-2.4,0-4.3-1.8-4.5-4.2
	c-0.1-2.8-0.2-5.7-0.3-8.7c5.7,6.5,15.7,1.2,18.9-5.2c5.2-11.5-7.6-22.5-18.8-21.8C474.1,1415.1,474.7,1406.2,475.4,1397.4z
	 M473.6,1436.1c0-1.2,0-2.4,0-3.6c6.8-0.8,16.8,5.6,12.2,13.1c-0.8,0-1.3-0.4-1.4-0.7c-1.7-5.4-7.2-7.8-10.9-3.9
	C473.6,1439.3,473.6,1437.7,473.6,1436.1z M619.6,1664.9l-2.3,18L619.6,1664.9z M625.2,1623l-2.3,18L625.2,1623z M628.8,1602.4
	l2.3-18L628.8,1602.4z M535.4,1664.9l2.3,18L535.4,1664.9z M532,1641l-2.3-18L532,1641z M526.4,1602.6l-2.3-18L526.4,1602.6z
	 M629.5,1237.2V1219V1237.2z M527.5,1237.2V1219V1237.2z"/>
<path id="PanelE_Cut" class="st1" d="M463.4,1588.4c-0.6-1.6-2-2.6-3.7-2.6h-19.4c-1.9-0.2-28.4,0.6-29.3-0.6
	c-1.3-0.6-0.7-2.6,0.7-2.6l49.7,0.2c0,0-47-104.4-67.9-128c-28.6-32.2-34.3-66.9-37-66.9c-2.6,0-12.4,37.6-39.1,67.9
	c-17.5,22-64.8,113.7-66.1,127l46-0.1c1.4,0,1.9,2,0.6,2.6c-12.6,1.5-36.4,0.1-49,0.6c-48,54.5-19.6,276.2,3.6,315.2
	c1.2,2.4,3.6,4,6.2,4h40c1.8,0,2.8,0.9,3.4,2.1c0.7,1.7-19.7,1-19.8,2.7c0.7,10.3-3.7,37.8,12.4,37.5h118.4
	c17.3,0.1,11.6-26.5,12.7-38.3c0-0.8-19.8-1.6-19.4-2.2c0.7-1.1,1.9-1.9,3.3-1.9H450c3.1,0,6-1.9,7.2-4.9
	C483.6,1843.1,504.3,1651.2,463.4,1588.4z M449.5,1630.1c0.4,1.5,0.9,3.1,1.3,4.8c-1-1.3-1.9-2.5-3.2-3.6
	C448.3,1630.9,448.9,1630.5,449.5,1630.1z M446.7,1621.5c0.1,0.2,0.1,0.4,0.2,0.6c-0.1-0.1-0.3-0.1-0.4-0.2
	C446.6,1621.8,446.7,1621.7,446.7,1621.5z M443.6,1615.3c0.1-0.3,0.3-0.6,0.4-0.9c0.7,1.7,1.4,3.5,2.1,5.4c-1.5-0.6-3.1-0.7-4.6-0.7
	C442.2,1617.8,443,1616.6,443.6,1615.3z M430.6,1653.3c1.9,0.3,2.5-2.6,2.9-4.1c11.5,6.8,18.8,0.4,13-11.8c1.7-0.1,3.4-0.5,4.4-1.9
	c2.9,11.3,5.6,25.8,7.2,44.6c0.2,2.3-1.8,4.2-4.1,4.1c-6.8-0.5-13.7,1.9-19.3,5.8c3.6-13-0.3-28.7-12-36c1.8-1,3.3-2.4,4.5-4.2
	C428.3,1651.1,429.2,1652.4,430.6,1653.3z M389.2,1739.3c0.5,4.9,1.9,9.3,4.1,13.6c0,0,0,0,0,0c-4.7,0.2-9.2,0.9-13.8,1.9
	c-10.7-7.1-13.3-8.6-32.8-9.7c4.4-5.7,7.2-12.5,8.3-19.4c2.7,4.2,7.2,8.5,14.4,10.1c-5.2-8.5,0.4-13.1-1-20.9
	c7.8,3.9,17.5,6.1,26.4,5.2C390.6,1725.7,388.6,1732.5,389.2,1739.3z M342.2,1829.5c-8.3-11.2-1.8-13-0.6-22.1l9,10.1
	C345.9,1818.5,341.4,1823.9,342.2,1829.5z M321.7,1803.7c2.1-5.9-5.5-12.5-10.7-8.2c-1.9,1.6-2.8,4.3-2.5,7.6c0,0.4-0.4,1.2-1.6,1.6
	c-5.9-3.4-1.2-11,2.9-13.7c14.2-9.6,35.1,10.8,16.6,28c-15.2-8.3-33.2-5.4-46.6,4.9c-29.5-25.9,0.6-54.8,30.3-55.3
	c10.7-1,21.4-3.5,32.1-1.3c8.1,2.8,15.6-10.8,7.5-15.1c7.6,0.5,15.8,1.6,22.5,4.7c-15.8,5.6-32.1,16.8-35,34.6
	c-11.4-16.1-38.2-11.8-38.8,9C299.1,1812,319.2,1815.3,321.7,1803.7z M316.2,1826.3c-9,4.4-20.1,5.6-28.5,1.8
	c-0.8-0.4-1.2-1.5-0.6-2.2c0-0.1,0.1-0.1,0.2-0.2c10.1-5.9,20.3-5.1,28.7-2.4C317.3,1823.8,317.4,1825.7,316.2,1826.3z
	 M289.6,1707.1c1.6,0.4,4.3,2,5.5,0.5c0.6-4-2.2-9-6.1-10.7c8.5-16.1,32.4-17.8,45.4-6.5c10.7,9.5,14.4,26,10.3,39.5l0,0
	c-0.5,1.6-1.2,3.6-2.3,4.9l0.2,0.2c-2.2,4.5-5.5,8.7-9.8,11.3c-9.4,5.5-23.1-1.6-24.9-12c-1.2-6.6,5.5-18.8,13.2-13.4
	c0.1,1.3-0.6,2-1,2.1c-5.6,1.2-9.2,6.1-6,10.8c2.4,3.5,7.8,4.4,11.2,1.9c15.7-11.6-12.5-37.5-23.7-8.7c-2.7,0.1-5.2,1.3-7.8,2.1
	c0-2.3-0.4-4.8-1.2-7c-0.3-0.9-1.5,0.2-2.2,0.2c-0.9-2.7-1.5-5.3-3.1-7.7c0.6-1.3,0.5-2.6,0.8-4c0.4,0.1,0.7,0.2,1,0.2
	C290,1709.6,289.8,1708.3,289.6,1707.1z M305.6,1672.9c0.4,1-0.2,2.1-1.2,2.3c-0.8,0.2-1.7,0.4-2.5,0.7c-1.1,0.3-2.2-0.4-2.1-1.6
	c0.1-7.5-4-14.7-10.1-19c5.2,0,12.4-3.4,13.1-9c1,0.9,3,3.9,4.8,5.8c-2.5,3.8-3.9,8.3-3.7,12.8
	C303.8,1667.8,304.6,1670.4,305.6,1672.9z M337.5,1655.6c-5-5.5-14.4,1-12.2,7.7c2,9.2,14,9.4,20.5,4.7c-0.4,6.9-0.4,15.1,1.5,22
	c0.1,0.4-0.4,0.7-0.7,0.3c-5-6.9-10-10.1-20-14v0c-2.5-0.8-5.8-1.6-8.8-1.9c-1.2-0.1-2.3-0.8-2.9-1.9c-0.7-1.2-1.3-2.5-1.7-3.6
	c-4.7-11.5,8.3-23.4,19.6-21.1c6.6,1.1,16.3,11.5,8.2,16.8c-1.3-0.4-1.7-1.2-1.6-1.7C339.7,1659.9,339.1,1657.3,337.5,1655.6z
	 M340.7,1758.8c-0.1,0.8,0.2,1.5-0.9,1.9c-3.1-3.3-0.7-7.4,3.6-8C341.5,1754,340.3,1756.4,340.7,1758.8z M296.6,1746.3
	c1.4-0.8,3.9-3.1,5.6-5.8c4.5,11.2,18,18.3,29.8,15.1c-0.2,1.4,0,2.9,0.6,4.4c-8.1,1.1-16.4,2.3-24.5,2.7l-16.6-14.2
	C291.5,1748.5,294.6,1747.4,296.6,1746.3z M365.6,1782.6c-4.1-3-8.9-5.1-13.7-3.3c7.3-8.6,17.1-13.7,27.8-17
	c10.7,11,4.8,38.1-13.5,34.9C371.4,1793.8,370.8,1785.8,365.6,1782.6z M346.1,1789.9c0.8,10,11.2,14.8,20.1,15.5
	c-4.7,0.4-11.1,4.1-11.3,9.2c-2.1-2.5-10.3-10.2-13.2-12.6c-0.8-6.1,2.3-9,4.4-14C346,1788.6,346,1789.3,346.1,1789.9z
	 M356.9,1793.6c0.1,0.4,0.2,0.8,0.4,1.2c-5.7-2.7-6.4-12.4,1.9-9.8c0.6,0.9,0.4,1.6,0.2,1.8C357.4,1788.9,356.5,1791.3,356.9,1793.6
	z M345.6,1830.5c1.1-0.3,2.2-0.7,3.2-1c0,1.4,0.2,3,0.7,4.4c0.2,0.6,0.9-0.1,1.4-0.1c0.6,1.8,1.2,3.6,2.4,5.2c1.9-0.8,3.4-2,4.6-3.7
	c2.1,3.1,3.6,4.1,4.7-0.4c8.4,5.2,14.2,0.1,9.8-8.9c4.6-0.6,3.6-2.1,0.8-4.6c1.8-1,3.2-2.3,4.1-4.2c-1.5-1.3-3.2-2.1-5-2.8
	c0.2-0.4,0.4-0.8,0.5-1.2c-1.4-0.8-2.9-0.9-4.3-0.9c1.1-2,4.4-6.6,0.1-6.8c1.8,0,3.6-0.2,5.3-0.5c-0.1,2.9,1.2,5.7,3.5,7.3
	c3.8,4.4,9,5.3,13.2,1.5c7.3-7.3-4.5-17.9-9.6-7.1c-0.1,0.3-1,0.5-1.5,0.2c-1.3-4.4,3.9-5.8,6-8.8c9-2,17.7,7,19.5,15.4
	c1.3,4.9,0.3,11.7-1.4,16.2c-4.3,12.4-17.2,19.4-30.1,19.4c-14.5,0.3-22.3-8.4-30.4-18.5C343.9,1830.8,344.7,1830.8,345.6,1830.5z
	 M391.4,1714.8c-10.8-0.6-19.2-3.9-25.3-8.9l6-4.4c0,0,0.7,1.9,1.4,3.2s3.4,3.9,5.9,4.6c2.3,0.7,5.7,0.4,5.7,0.4
	c0.2-0.1,0.2-0.2,0.3-0.4c0.2-1,0.1-2-0.2-2.9c-0.3-1.1-0.7-2.1-1-3.2c0.7-0.1,1.5-0.1,2.3-0.2c0.7-0.1,1.4-0.3,2.1-0.5
	c0.2-0.1,0.3-0.2,0.2-0.5c-0.1-0.3-0.2-0.6-0.3-0.9c1.8-0.6,3.6-1.3,5.1-2.4c-0.8-1.9-2.1-3.3-3.8-4.5c0.2-0.2,0.4-0.3,0.6-0.4
	c0.8-0.6,1.5-1.2,2.1-2.1c0.1-0.2,0.1-0.3,0-0.5c-0.5-0.6-1.1-1-1.8-1.3c-0.4-0.1-0.8-0.2-1.3-0.3c0.2-0.3,0.4-0.7,0.5-1
	c0.6-1.1,1.1-2.3,1.3-3.6c0.2-1.8-0.1-3.5-0.7-5.2c0-0.1-0.1-0.2-0.2-0.2c-2.7-1.3-5.5-1.6-8.4-0.3c-0.5,0.2-1,0.4-1.5,0.7
	c0-0.3-0.1-0.5-0.1-0.7c-0.1-1-0.5-1.8-1.2-2.5c-0.2-0.2-0.3-0.2-0.5-0.1c-0.5,0.4-1.1,0.8-1.6,1.3c-0.4,0.3-0.7,0.7-1.1,1.2
	c-1-1.8-2.4-3.2-4.2-4.1c-1.2,1.5-2,3.2-2.8,5c-0.4-0.2-0.8-0.3-1.2-0.5c-0.8,1.4-0.9,2.9-0.9,4.3c-1-0.5-1.9-1.1-2.9-1.6
	c-0.9-0.4-1.8-0.7-2.9-0.6c-0.3,0-0.5,0.1-0.6,0.5c-0.5,1.4-0.7,2.8-0.5,4.3c0.4,3.3,1.8,6,4.1,8.3c1.8,1.8,2.6,2.8,5.2,2.7
	c-0.8,0.9-2.7,2.6-4.5,4.3l-1.4,1.6c-10.3-10.8-12.3-28-7.4-46.2c3.2,18.9,31.9,16.6,41.9,4.2c0.2-0.2,0.5,0,0.4,0.2
	c-1.2,3.9-1.1,8.4,1.4,11.4c5,5,13.3,7.1,17.6,0.5c5.7-8.8-8.7-17.2-11.7-4.7c-3.4-1-0.9-6.9,1.6-8c7.1-4.1,15.3,0.5,18.2,7.2
	C436.5,1692.6,415.4,1713.5,391.4,1714.8z M369.1,1660.8c0.3,0.6,0.6,1.1,1,1.5c-7.5-0.9-11-11.4-0.8-10.9c0.9,0.7,0.9,1.5,0.7,1.8
	C368.5,1655.9,368.1,1658.6,369.1,1660.8z M418.5,1613.6h6.5c1.3,0,1.9,1.6,1,2.5c-0.8,0.8-1.5,1.7-2,2.7c-0.6,1.3-2.4,1.7-3.4,0.6
	c-1-1.1-2-2.3-3.1-3.3C416.7,1615.1,417.3,1613.6,418.5,1613.6z M404.4,1613.6c1.3,0.4,4.1,2.5,5.1,3.3c2.8,2.5,6.1,6.1,8.2,9.1
	c-3.5,0.8-9,4.4-10.6,9.6c-0.9,3.1-0.6,7.6-0.6,7.6c2.6,1.5,6-0.5,8.8-1.1c0,1.9,0.3,4,0.9,5.8c0.3,0.8,1.2-0.1,1.8-0.2
	c0.5,1.6,1.1,3.2,1.8,4.7c-6.3-2-13.6-0.3-18.4,4.1c-0.2,0.2-0.6,0-0.5-0.3c5.2-14.4,0.1-32.4-10.6-42.6
	C390.3,1613.5,404.3,1613.5,404.4,1613.6z M385,1619.7c3,1.8,5.8,4.9,7.4,8.1c5.6,11.4,5.2,28.8-7.7,33.4c-1.8,0.6-3.6-1-3-2.8
	c3.2-10-14.5-16.7-22.3-10.1c5.2-10.7,15.1-17.8,22.9-26.5C382.7,1621.4,384.5,1619.4,385,1619.7z M363.8,1618l2.6-4.3l13-0.1
	c-3.2,3.1-8.9,9.1-12.2,12.2c-2.2,1.8-4.2,3.8-6.2,5.9c-0.2-2.7-1.2-5-3-7c-1.5-1.6-1.2-1.9-1.5-2.5c0.6-0.6,2.2-1,5-2.1
	C362.4,1619.7,363.3,1618.9,363.8,1618z M361,1613.7l-0.8,1.3c-0.6,1.1-1.8,1.9-3.1,1.9c-2.5,0.2-6.2,0-6.5-0.8
	c-0.1-0.2-0.2-0.5-0.3-0.7c-0.2-0.4-0.7-1.1-1.3-1.8L361,1613.7z M265.5,1613.8h29.3h45.7c0.2,0.8,0.4,1.6,0.6,2.4c-0.6,0-1.3,0-2,0
	c-0.6,0.1-1.2,0.2-1.8,0.3c-0.2,0.1-0.3,0.2-0.2,0.4c0.1,0.2,0.1,0.5,0.2,0.8c-1.6,0.4-3.2,0.9-4.5,1.8c0.6,1.7,1.6,3,3,4.1
	c-0.2,0.1-0.4,0.2-0.5,0.3c-0.7,0.5-1.4,1-1.9,1.7c-0.1,0.1-0.1,0.3,0,0.4c0.4,0.6,0.9,0.9,1.5,1.2c0.3,0.1,0.7,0.2,1.1,0.4
	c-0.2,0.3-0.3,0.6-0.5,0.8c-0.6,0.9-1.1,1.9-1.3,3.1c-0.3,1.5-0.1,3,0.3,4.5c0,0.1,0.1,0.1,0.1,0.2c2.3,1.3,4.7,1.7,7.2,0.7
	c0.4-0.2,0.9-0.3,1.3-0.5c0,0.2,0,0.4,0,0.6c0.1,0.8,0.3,1.6,1,2.2c0.1,0.1,0.3,0.1,0.4,0c0.5-0.3,1-0.7,1.5-1
	c0.3-0.3,0.6-0.6,1-0.9c0.8,1.6,1.9,2.9,3.4,3.7c1.1-1.2,1.9-2.6,2.7-4.1c0.3,0.2,0.7,0.3,1,0.5c0.8-1.1,0.9-2.4,1-3.7
	c0.8,0.5,1.6,1.1,2.4,1.5c0.1,0.1,0.3,0.1,0.4,0.2c-4,5.1-7.2,10.9-9.1,17.3c-6.7-14.9-27.7-15.8-38.1-4.2l-2.9-4.9
	c2.9-0.4,7.6-3,9.2-7c1-2.4,1-6.1,1-6.1c-2-1.4-4.9,0-7.1,0.3c0.1-1.6,0-3.2-0.3-4.8c-0.2-0.6-1,0-1.5,0c-0.5-2-1-4-2.1-5.8
	c-2.1,0.7-3.8,1.9-5.2,3.6c-2-3.6-3.6-4.7-5,0c-8.7-6.3-15.2-1.4-11.3,8.7c-5,0.2-4.1,1.9-1.3,4.9c-2,0.9-3.7,2.2-4.8,4.2
	c1.5,1.5,3.2,2.5,5.1,3.5c-0.2,0.4-0.5,0.8-0.7,1.2c1.4,1,3,1.2,4.6,1.4c-1,1.6-2.4,3.1-2.8,4.9c-11.6-6.3-26.6-1-31.7,10.6
	c-0.2,0.4-0.7,0.2-0.7-0.2C255.9,1639.1,261.2,1623.8,265.5,1613.8z M250.1,1718.9c-0.4-17,0.1-31.7,1.3-44.2c0.1-0.7,1-0.8,1.3-0.2
	c4.7,9.1,22.1,10.6,24.7-0.5c2.4-7.2-7.4-14.1-12.6-8.1c-1.6,1.9-2.1,4.7-1.4,7.8c0.1,0.4-0.2,1.4-1.6,1.9c-10-5.7,2.8-19.4,11-18.4
	c10.3-0.1,21,9.8,17.7,20.5c-0.6,1.9-1.5,4-2.4,5.7c-1.8,3.2-4.6,6.1-6,9.3c-2-4.2-7.7-5.7-11.5-4.2c-0.6,1.8,1,3.7,1.7,5.3
	c-1.2,0.2-2.4,0.6-3.5,1.2c-0.5,0.2,0.2,0.7,0.3,1.1c-1.4,0.8-2.8,1.6-3.9,2.8c0.9,1.4,2.2,2.4,3.8,3.2c-2.2,2.2-2.7,3.7,1,3.8
	c-2.9,7.7,2.2,11.6,8.8,6.6c1.1,3.6,2.3,2.7,3.9,0c0.8,0.9,1.3,1.8,2.3,2.3c-2.5,1.3-4,3.1-5.6,5.5c-3.5-5-5.9-6.5-7.5,0.7
	c-4.8-3.1-10.6-4-15.9-1.7c-3.2,5.1-2.4,11.1,0.4,16.2c-2,0.2-3.8,0.6-5.1,2.2c-0.8,1.3,2.9,4.2,3.9,5.2c-1.6,0.9-3,2-4.2,3.3
	C250.7,1737.3,250.3,1728.2,250.1,1718.9z M264.4,1835.1c-0.5,0.7-1.6,0.5-1.8-0.4c-4.5-22.5-8.8-50.8-11-83.3
	c1.7,1,3.5,1.8,5.3,2.5l-0.8,1.9c2.2,1.3,4.6,1.4,7,1.4c-4,6.9-6.7,12,4.2,11c7.1-0.7,17.8-7.4,17.6-15.1c2.2,2,7.8,8.3,11.4,10.8
	c-12.2,2.5-24.9,10.4-31.8,20.9c-3,4.7-4.5,10.2-4.5,15.7c-0.1,4.1,0.7,8,2,11.8c0.8,2.3,1.6,4.5,2.8,6.6s3,3.7,4.1,5.8
	c1.2,2.4,0.2,4.5-1.3,6.4c-0.7,0.9-1.6,1.8-2.3,2.8C265,1834.3,264.7,1834.7,264.4,1835.1z M312.3,1869.1c-2.3-1.3-4.2-3.5-5.5-6
	c0.3-0.9,0.9-1.4,1.4-1.4c3.3,0.1,5.9-1.1,7.4-3.1c3.8-5.5-3.3-12.5-9.1-9.9c-12.3,4.9-5,22.4,4.9,27.2c0.5,0.3,0.4,1.1-0.2,1.1
	h-37.7c-2.3-7-4.9-16.5-7.6-28.1c2-6.3,6.5-12.1,11.7-16.3c13.4,9.4,36.3,7.4,49.9-3.1c7.2,6,10.5,16.2,8.4,25
	C333.7,1864.1,322.1,1874,312.3,1869.1z M439.1,1859.6c-3.8,22.4-33,10.4-23.9-2.3c0.5,0.2,0.8,0.6,0.8,0.8c0.6,6,4.5,8.4,8.5,6.6
	c7.3-3.6,2.5-15-4.7-14.5c-15.7,0.6-17.1,19.4-5,26.8h-87.1c-0.7,0-0.9-1-0.3-1.3c12.2-5.1,20.4-19.4,17.1-32.5
	c9.8,12.4,29.4,12.7,44.2,8.9c5.6-1.3,8.5-4.7,13.3-6.4c6.4-2.6,13.4-5.1,20.2-4.2C431.4,1842.3,440.7,1849.5,439.1,1859.6z
	 M412,1811.9c-0.2-1.1-0.6-2.2-1.1-3.4c3.5,2.8,8.2,6.3,12.8,4.4c-2,6-8.8,13.5-13.1,18.4C412.8,1825.3,413.6,1817.9,412,1811.9z
	 M442.9,1849.4c-5.3-10.5-17.8-18-29.6-15.1l15.8-17.6c1.9,2.9,7.1,6.8,12.4,6.5c3.2-0.2,7.2-2,7.2-2c0.4-2.9-2.5-5.4-4-7.7
	c1.8-0.7,3.6-1.6,5-2.8c0.6-0.5-0.5-1.1-0.8-1.6c0.9-0.7,1.7-1.4,2.5-2.1C448.9,1822.8,445.9,1837.2,442.9,1849.4z M452.3,1802
	c-1.4-1-2.9-1.7-4.6-2.1c2.9-4,3.3-6.3-2.6-5.5c2.4-12.8-6.2-17.4-15.3-7.9c-2.8-5.4-4.2-3.5-6,1.1c-2.1-1.7-4.3-2.9-7-3.2
	c-0.9,2.4-1.1,4.8-1.2,7.3l-1.7-0.1c-0.4,2.1,0.2,3.9,0.8,5.7c-3.1-0.5-10.2-2.3-8.4,3.2c-4.1-5.1-10.7-9-17-9.3
	c3.6-9.9,2.8-21.9-3.8-30.4c3.7-0.8,7.5-1.4,11.7-1.7c8.9,11.7,24.6,16.8,38.7,14.5c7.5-1,15.8-3.9,21.2-8.7
	C455.8,1777.8,454.2,1790.3,452.3,1802z M406.8,1758.8c1.9,0,3.7,0,5.6,0.1c1.3,3,3.1,5.3,5.3,6.8
	C413.7,1764.2,410,1761.9,406.8,1758.8z M457.7,1758c-6.5,4.3-8.1,6.3-12.5,7.6c-5,1.8-10.4,2.6-15.7,2.4
	c6.2-1.3,12.5-6.4,16.3-15.2l1.9-4.5c-5.5,2.4-11.6,3.8-17,0.3c-5.6-3.3-15.1-0.6-17.7,5.3c-2.5-0.3-8.5-1.2-10.9-1
	c-17.3-25.2,13.7-47.6,24.9-32.4c4.5,6.4,3,13-4.9,15.3c-1-0.4-1.4-1.2-1.3-1.5c0.6-2.9,0.2-5.4-1.2-7.1c-4.2-5.2-12.8,0.1-11.4,6.2
	c2.3,13.7,24.4,8.3,27-2.6c2.1-8.9-4.2-19.6-13.4-21.7c8.9-8.4,20.2-17.4,32.8-17.5c2.4,0,4.3,1.8,4.5,4.2c0.1,2.8,0.2,5.7,0.3,8.7
	c-5.7-6.5-15.7-1.2-18.9,5.2c-5.2,11.5,7.6,22.5,18.8,21.8C459,1740.4,458.5,1749.3,457.7,1758z M459.5,1719.4c0,1.2,0,2.4,0,3.6
	c-6.8,0.8-16.9-5.6-12.2-13.1c0.8,0,1.3,0.4,1.4,0.7c1.7,5.4,7.1,7.8,10.9,3.9C459.5,1716.1,459.5,1717.7,459.5,1719.4z
	 M313.5,1490.6l2.4-18L313.5,1490.6z M307.9,1532.5l2.4-18L307.9,1532.5z M304.3,1553l-2.4,18L304.3,1553z M397.7,1490.6l-2.4-18
	L397.7,1490.6z M401.1,1514.4l2.4,18L401.1,1514.4z M406.7,1552.9l2.4,18L406.7,1552.9z M303.7,1918.2v18.2V1918.2z M405.6,1918.2
	v18.2V1918.2z"/>
<path id="PanelD_Cut" class="st1" d="M23.1,1567c0.6,1.6,2,2.6,3.7,2.6h19.4c1.9,0.2,28.4-0.6,29.3,0.6c1.3,0.6,0.7,2.6-0.7,2.6
	l-49.7-0.2c0,0,47,104.4,67.9,128c28.7,32.2,34.3,66.9,37,66.9c2.6,0,12.4-37.6,39.1-67.9c17.4-22,64.8-113.7,66.1-127l-46,0.1
	c-1.4,0-1.9-2-0.6-2.6c12.6-1.5,36.4-0.1,49.1-0.6c48-54.5,19.6-276.2-3.6-315.2c-1.2-2.4-3.6-4-6.2-4h-40c-1.8,0-2.8-0.9-3.4-2.1
	c-0.7-1.7,19.7-1,19.8-2.7c-0.7-10.3,3.7-37.8-12.4-37.5H73.3c-17.3-0.1-11.6,26.5-12.7,38.3c0,0.8,19.8,1.6,19.4,2.2
	c-0.7,1.1-1.9,1.9-3.3,1.9H36.6c-3.1,0-6,1.9-7.2,4.9C2.9,1312.3-17.8,1504.2,23.1,1567z M37.1,1525.3c-0.4-1.5-0.9-3.1-1.3-4.8
	c1,1.3,1.9,2.5,3.2,3.6C38.2,1524.5,37.6,1524.9,37.1,1525.3z M39.8,1533.9c-0.1-0.2-0.1-0.4-0.2-0.6c0.1,0.1,0.3,0.1,0.4,0.2
	C39.9,1533.6,39.9,1533.8,39.8,1533.9z M42.9,1540.2c-0.2,0.3-0.3,0.6-0.4,0.9c-0.7-1.7-1.4-3.5-2.1-5.4c1.5,0.6,3.1,0.7,4.6,0.7
	C44.3,1537.6,43.6,1538.9,42.9,1540.2z M55.9,1502.1c-1.9-0.3-2.5,2.6-2.9,4.1c-11.5-6.8-18.8-0.4-13,11.8c-1.7,0.1-3.4,0.5-4.4,1.9
	c-2.9-11.3-5.6-25.8-7.2-44.6c-0.2-2.3,1.8-4.2,4.1-4.1c6.8,0.5,13.7-1.9,19.3-5.8c-3.6,13,0.3,28.7,12,36c-1.8,1-3.3,2.4-4.6,4.2
	C58.2,1504.3,57.3,1503,55.9,1502.1z M97.3,1416.1c-0.5-4.9-1.9-9.3-4.1-13.6c0,0,0,0,0,0c4.7-0.2,9.2-0.9,13.8-1.9
	c10.7,7.1,13.3,8.6,32.8,9.7c-4.4,5.7-7.2,12.5-8.3,19.4c-2.7-4.2-7.2-8.5-14.4-10.1c5.2,8.5-0.4,13.1,1,20.9
	c-7.8-3.9-17.4-6.1-26.4-5.2C95.9,1429.7,97.9,1422.9,97.3,1416.1z M144.3,1325.9c8.3,11.2,1.8,13,0.6,22.1l-9.1-10.1
	C140.6,1336.9,145.1,1331.5,144.3,1325.9z M164.8,1351.7c-2.1,5.9,5.5,12.5,10.7,8.2c1.9-1.6,2.8-4.3,2.5-7.6c0-0.4,0.4-1.2,1.6-1.6
	c5.9,3.4,1.2,11-2.9,13.7c-14.2,9.6-35.1-10.8-16.6-28c15.2,8.3,33.2,5.4,46.6-4.9c29.5,25.9-0.6,54.8-30.3,55.3
	c-10.7,1-21.4,3.5-32.1,1.3c-8.1-2.8-15.6,10.8-7.5,15.1c-7.6-0.5-15.8-1.6-22.5-4.7c15.8-5.6,32.1-16.8,34.9-34.6
	c11.4,16.1,38.2,11.8,38.8-9C187.4,1343.5,167.3,1340.1,164.8,1351.7z M170.4,1329.2c9-4.4,20.1-5.6,28.5-1.8
	c0.8,0.4,1.2,1.5,0.6,2.2c-0.1,0.1-0.1,0.1-0.2,0.2c-10.1,5.9-20.3,5.1-28.7,2.4C169.2,1331.6,169.1,1329.8,170.4,1329.2z
	 M196.9,1448.3c-1.6-0.4-4.3-2-5.5-0.5c-0.6,4,2.2,9,6.1,10.7c-8.5,16.1-32.4,17.8-45.4,6.5c-10.7-9.5-14.4-26-10.3-39.5l0,0
	c0.5-1.6,1.2-3.6,2.3-4.9l-0.2-0.2c2.2-4.5,5.5-8.7,9.8-11.3c9.4-5.5,23.1,1.6,24.9,12c1.2,6.6-5.6,18.8-13.2,13.4
	c-0.1-1.3,0.6-2,1-2.1c5.6-1.2,9.2-6.1,6-10.8c-2.4-3.5-7.8-4.4-11.2-1.9c-15.7,11.6,12.5,37.5,23.7,8.7c2.7-0.1,5.2-1.3,7.8-2.1
	c0.1,2.3,0.4,4.8,1.2,7c0.3,0.9,1.5-0.2,2.2-0.2c0.9,2.7,1.4,5.3,3.1,7.7c-0.6,1.3-0.5,2.6-0.8,4c-0.4-0.1-0.7-0.2-1.1-0.2
	C196.5,1445.8,196.7,1447.1,196.9,1448.3z M181,1482.5c-0.4-1,0.2-2.1,1.2-2.3c0.8-0.2,1.7-0.4,2.5-0.7c1.1-0.3,2.2,0.4,2.1,1.6
	c-0.1,7.5,4,14.7,10.1,19c-5.2,0-12.4,3.4-13.1,9c-1-0.9-3-3.9-4.8-5.8c2.5-3.8,3.9-8.3,3.7-12.8
	C182.7,1487.6,182,1485.1,181,1482.5z M149,1499.9c5,5.5,14.4-1,12.2-7.7c-2-9.2-14-9.4-20.4-4.7c0.4-6.9,0.4-15.1-1.5-22
	c-0.1-0.4,0.4-0.7,0.7-0.3c5,6.9,10.1,10.1,20,14v0c2.5,0.8,5.8,1.6,8.8,1.9c1.2,0.1,2.3,0.8,2.9,1.9c0.7,1.2,1.3,2.5,1.7,3.6
	c4.7,11.5-8.3,23.4-19.6,21.1c-6.6-1.1-16.3-11.5-8.2-16.8c1.3,0.4,1.7,1.2,1.6,1.7C146.8,1495.5,147.4,1498.1,149,1499.9z
	 M145.8,1396.7c0.1-0.8-0.2-1.5,0.9-1.9c3.1,3.3,0.7,7.4-3.6,8C145,1401.5,146.2,1399,145.8,1396.7z M189.9,1409.2
	c-1.4,0.8-3.9,3.1-5.6,5.8c-4.4-11.2-18-18.3-29.8-15.1c0.2-1.4-0.1-2.9-0.6-4.4c8.1-1.1,16.4-2.3,24.5-2.7L195,1407
	C195,1407,191.9,1408.1,189.9,1409.2z M120.9,1372.8c4.1,3,8.9,5.1,13.7,3.3c-7.3,8.6-17.1,13.7-27.8,17
	c-10.7-11-4.8-38.1,13.5-34.9C115.1,1361.7,115.7,1369.6,120.9,1372.8z M140.4,1365.5c-0.8-10-11.2-14.8-20.1-15.5
	c4.7-0.4,11.1-4.1,11.3-9.2c2.1,2.5,10.3,10.2,13.2,12.6c0.8,6.1-2.3,9-4.4,14C140.5,1366.8,140.5,1366.2,140.4,1365.5z
	 M129.6,1361.8c-0.1-0.4-0.2-0.8-0.4-1.2c5.7,2.7,6.4,12.4-1.9,9.8c-0.6-0.9-0.4-1.6-0.2-1.8C129.1,1366.5,130,1364.1,129.6,1361.8z
	 M141,1324.9c-1.1,0.3-2.2,0.7-3.2,1c0-1.4-0.2-3-0.7-4.4c-0.2-0.6-0.9,0.1-1.4,0.1c-0.6-1.8-1.2-3.6-2.4-5.2
	c-1.9,0.8-3.4,2-4.6,3.7c-2.1-3.1-3.6-4.1-4.7,0.4c-8.4-5.2-14.2-0.1-9.8,8.9c-4.6,0.6-3.7,2.1-0.8,4.6c-1.8,1-3.2,2.3-4.1,4.2
	c1.5,1.3,3.2,2.1,4.9,2.8c-0.2,0.4-0.3,0.8-0.5,1.2c1.4,0.8,2.9,0.9,4.3,0.9c-1.1,2-4.4,6.6-0.1,6.8c-1.8,0-3.6,0.2-5.3,0.5
	c0.1-2.9-1.2-5.7-3.5-7.3c-3.8-4.4-9-5.3-13.2-1.5c-7.3,7.3,4.5,17.9,9.7,7.1c0.1-0.3,1-0.5,1.4-0.2c1.3,4.4-3.9,5.8-6,8.8
	c-9,2-17.7-7-19.4-15.4c-1.3-4.9-0.3-11.7,1.4-16.2c4.3-12.4,17.2-19.4,30.1-19.4c14.5-0.3,22.3,8.4,30.4,18.5
	C142.6,1324.6,141.8,1324.7,141,1324.9z M95.1,1440.6c10.8,0.6,19.2,3.9,25.3,8.9l-6,4.4c0,0-0.7-1.9-1.3-3.2s-3.4-3.9-5.9-4.6
	c-2.3-0.7-5.7-0.4-5.7-0.4c-0.2,0.1-0.2,0.2-0.3,0.4c-0.2,1-0.1,2,0.2,2.9c0.3,1.1,0.7,2.1,1,3.2c-0.7,0.1-1.5,0.1-2.3,0.2
	c-0.7,0.1-1.4,0.3-2.1,0.5c-0.2,0.1-0.3,0.2-0.2,0.5c0.1,0.3,0.2,0.6,0.3,0.9c-1.8,0.6-3.6,1.3-5.1,2.4c0.8,1.9,2.1,3.3,3.8,4.5
	c-0.2,0.2-0.4,0.3-0.6,0.4c-0.8,0.6-1.5,1.2-2.1,2.1c-0.1,0.2-0.1,0.3,0,0.5c0.5,0.6,1.1,1,1.8,1.3c0.4,0.1,0.8,0.2,1.3,0.3
	c-0.2,0.3-0.3,0.7-0.5,1c-0.6,1.1-1.1,2.3-1.3,3.6c-0.2,1.8,0.1,3.5,0.7,5.2c0,0.1,0.1,0.2,0.2,0.2c2.7,1.3,5.5,1.6,8.3,0.3
	c0.5-0.2,1-0.4,1.5-0.7c0,0.3,0.1,0.5,0.1,0.7c0.1,1,0.5,1.8,1.2,2.5c0.2,0.2,0.3,0.2,0.5,0.1c0.6-0.4,1.1-0.8,1.7-1.3
	c0.4-0.3,0.7-0.7,1.1-1.2c1,1.8,2.4,3.2,4.2,4.1c1.2-1.5,2-3.2,2.8-5c0.4,0.2,0.8,0.3,1.2,0.5c0.8-1.4,0.9-2.9,0.9-4.3
	c1,0.5,1.9,1.1,2.9,1.6c0.9,0.4,1.8,0.7,2.9,0.6c0.3,0,0.5-0.1,0.6-0.5c0.5-1.4,0.7-2.8,0.5-4.3c-0.4-3.3-1.8-6-4.1-8.3
	c-1.8-1.8-2.6-2.8-5.2-2.7c0.8-0.9,2.7-2.6,4.5-4.3l1.4-1.6c10.3,10.8,12.3,28,7.4,46.2c-3.2-18.9-31.9-16.6-41.9-4.2
	c-0.2,0.2-0.5,0-0.4-0.2c1.2-3.9,1.1-8.4-1.4-11.4c-5-5-13.3-7.1-17.6-0.5c-5.7,8.8,8.7,17.2,11.7,4.7c3.4,1,0.9,6.9-1.6,8
	c-7.1,4.1-15.3-0.5-18.2-7.2C50,1462.8,71.1,1441.9,95.1,1440.6z M117.4,1494.7c-0.3-0.6-0.6-1.1-1-1.5c7.5,0.9,10.9,11.4,0.8,10.9
	c-0.9-0.7-0.9-1.5-0.7-1.8C118.1,1499.5,118.4,1496.8,117.4,1494.7z M68,1541.9h-6.5c-1.3,0-1.9-1.6-1-2.5c0.8-0.8,1.5-1.7,2-2.7
	c0.7-1.3,2.4-1.7,3.4-0.6c1,1.1,2.1,2.3,3.1,3.3C69.9,1540.4,69.2,1541.9,68,1541.9z M82.1,1541.9c-1.3-0.4-4.2-2.5-5.1-3.3
	c-2.8-2.5-6.1-6.1-8.2-9.1c3.5-0.8,9-4.4,10.6-9.6c0.9-3.1,0.6-7.6,0.6-7.6c-2.6-1.5-6,0.5-8.8,1.1c0-1.9-0.3-4-0.9-5.8
	c-0.3-0.8-1.2,0.1-1.8,0.2c-0.5-1.6-1.1-3.2-1.8-4.7c6.3,2,13.6,0.3,18.4-4.1c0.2-0.2,0.6,0,0.5,0.3c-5.2,14.4-0.1,32.4,10.6,42.6
	C96.2,1541.9,82.2,1541.9,82.1,1541.9z M101.6,1535.7c-3-1.8-5.8-4.9-7.4-8.1c-5.6-11.4-5.2-28.8,7.7-33.4c1.8-0.6,3.6,1,3,2.8
	c-3.2,10,14.5,16.7,22.3,10.1c-5.2,10.7-15.1,17.8-22.9,26.5C103.8,1534,102,1536,101.6,1535.7z M122.7,1537.4l-2.6,4.3l-13,0.1
	c3.2-3.1,8.9-9.1,12.2-12.2c2.2-1.8,4.2-3.8,6.2-5.9c0.2,2.7,1.2,5,3,7c1.5,1.6,1.2,1.9,1.5,2.5c-0.6,0.6-2.2,1-5,2.1
	C124.1,1535.7,123.2,1536.5,122.7,1537.4z M125.5,1541.7l0.8-1.3c0.6-1.1,1.8-1.9,3.1-1.9c2.5-0.2,6.2,0,6.5,0.8
	c0.1,0.2,0.2,0.5,0.3,0.7c0.2,0.4,0.7,1.1,1.3,1.8L125.5,1541.7z M221,1541.7h-29.3H146c-0.2-0.8-0.4-1.6-0.6-2.4c0.6,0,1.3,0,2,0
	c0.6-0.1,1.2-0.2,1.8-0.3c0.2-0.1,0.3-0.2,0.2-0.4c-0.1-0.2-0.1-0.5-0.2-0.8c1.6-0.4,3.2-0.9,4.6-1.8c-0.6-1.7-1.6-3-3-4.1
	c0.2-0.1,0.4-0.2,0.5-0.3c0.7-0.5,1.4-1,1.9-1.7c0.1-0.1,0.1-0.3,0-0.4c-0.4-0.6-0.9-0.9-1.5-1.2c-0.3-0.1-0.7-0.2-1.1-0.4
	c0.2-0.3,0.3-0.6,0.5-0.8c0.6-0.9,1.1-1.9,1.3-3.1c0.3-1.5,0.1-3-0.3-4.5c0-0.1-0.1-0.1-0.1-0.2c-2.3-1.3-4.7-1.7-7.2-0.7
	c-0.4,0.2-0.9,0.3-1.3,0.5c0-0.2,0-0.4,0-0.6c-0.1-0.8-0.3-1.6-1-2.2c-0.1-0.1-0.3-0.1-0.4,0c-0.5,0.3-1,0.7-1.5,1
	c-0.3,0.3-0.6,0.6-1,0.9c-0.8-1.6-1.9-2.9-3.4-3.7c-1.1,1.2-1.9,2.6-2.7,4.1c-0.3-0.2-0.7-0.3-1-0.5c-0.8,1.1-0.9,2.4-1,3.7
	c-0.8-0.5-1.6-1.1-2.4-1.5c-0.1-0.1-0.3-0.1-0.4-0.2c4-5.1,7.2-10.9,9.1-17.3c6.7,14.9,27.7,15.8,38.2,4.2l2.9,4.9
	c-2.9,0.4-7.6,3-9.2,7c-1,2.4-1,6.1-1,6.1c2,1.4,4.9,0,7.1-0.3c-0.1,1.6-0.1,3.2,0.3,4.8c0.2,0.6,1,0,1.5,0c0.5,2,1,4,2.1,5.8
	c2.1-0.7,3.8-1.9,5.2-3.6c2,3.6,3.6,4.7,5.1,0c8.7,6.3,15.2,1.4,11.3-8.7c5-0.2,4.1-1.9,1.3-4.9c2-0.9,3.7-2.2,4.8-4.2
	c-1.5-1.5-3.2-2.5-5.1-3.5c0.2-0.4,0.4-0.8,0.7-1.2c-1.4-1-3-1.2-4.6-1.4c1-1.6,2.4-3.1,2.8-4.9c11.6,6.3,26.6,1,31.7-10.6
	c0.2-0.4,0.7-0.2,0.7,0.2C230.6,1516.3,225.3,1531.6,221,1541.7z M236.4,1436.5c0.4,17-0.1,31.7-1.3,44.2c-0.1,0.7-1,0.8-1.3,0.2
	c-4.7-9.1-22.1-10.6-24.7,0.5c-2.4,7.2,7.4,14.1,12.6,8.1c1.6-1.9,2.1-4.7,1.4-7.8c-0.1-0.4,0.2-1.4,1.6-1.9
	c10,5.7-2.8,19.4-11,18.4c-10.3,0.1-21-9.8-17.7-20.5c0.6-1.9,1.4-4,2.4-5.7c1.8-3.2,4.6-6.1,6.1-9.3c1.9,4.2,7.7,5.7,11.5,4.2
	c0.6-1.8-1-3.7-1.7-5.3c1.2-0.2,2.4-0.6,3.5-1.2c0.4-0.2-0.2-0.7-0.3-1.1c1.4-0.8,2.8-1.6,3.9-2.8c-0.9-1.4-2.2-2.4-3.8-3.2
	c2.2-2.2,2.7-3.7-1-3.8c2.9-7.7-2.2-11.6-8.8-6.6c-1.1-3.6-2.3-2.7-3.9,0c-0.8-0.9-1.3-1.8-2.3-2.3c2.5-1.3,4-3.1,5.6-5.5
	c3.6,5,5.9,6.5,7.5-0.7c4.8,3.1,10.6,4,15.9,1.7c3.2-5.1,2.4-11.1-0.4-16.2c2-0.2,3.8-0.6,5.1-2.2c0.8-1.3-2.9-4.2-3.9-5.2
	c1.6-0.9,3-2,4.2-3.3C235.8,1418.1,236.2,1427.2,236.4,1436.5z M222.1,1320.3c0.5-0.7,1.6-0.5,1.8,0.4c4.5,22.5,8.8,50.8,11,83.3
	c-1.7-1-3.4-1.8-5.3-2.5l0.8-1.9c-2.2-1.3-4.6-1.4-7-1.4c4-6.9,6.7-12-4.2-11c-7.1,0.7-17.8,7.4-17.6,15.1c-2.2-2-7.8-8.3-11.4-10.8
	c12.2-2.5,24.9-10.4,31.8-20.9c3-4.7,4.4-10.2,4.6-15.7c0.1-4.1-0.7-8-2-11.8c-0.8-2.3-1.6-4.5-2.8-6.6s-3-3.7-4.1-5.8
	c-1.2-2.4-0.2-4.5,1.3-6.4c0.7-0.9,1.6-1.8,2.3-2.8C221.5,1321.2,221.8,1320.8,222.1,1320.3z M174.2,1286.3c2.3,1.3,4.2,3.5,5.5,6
	c-0.3,0.9-0.9,1.4-1.4,1.4c-3.3-0.1-5.9,1.1-7.4,3.1c-3.8,5.5,3.3,12.5,9.1,9.9c12.3-4.9,5-22.4-4.9-27.2c-0.5-0.3-0.4-1.1,0.2-1.1
	h37.7c2.3,7,4.9,16.5,7.6,28.1c-2.1,6.3-6.5,12.1-11.7,16.3c-13.4-9.4-36.3-7.4-49.9,3.1c-7.2-6-10.5-16.2-8.4-25
	C152.9,1291.3,164.4,1281.4,174.2,1286.3z M47.4,1295.9c3.8-22.4,33-10.4,23.9,2.3c-0.6-0.2-0.8-0.6-0.8-0.8c-0.6-6-4.5-8.4-8.5-6.6
	c-7.3,3.6-2.5,15,4.7,14.5c15.7-0.6,17.1-19.4,5-26.8h87.1c0.7,0,0.9,1,0.3,1.3c-12.2,5.1-20.4,19.4-17.1,32.5
	c-9.8-12.4-29.4-12.7-44.2-8.9c-5.6,1.3-8.5,4.7-13.3,6.4c-6.4,2.6-13.4,5.1-20.2,4.2C55.1,1313.2,45.8,1305.9,47.4,1295.9z
	 M74.5,1343.5c0.2,1.1,0.6,2.2,1.1,3.4c-3.5-2.8-8.2-6.3-12.8-4.4c2-6,8.8-13.5,13.1-18.4C73.7,1330.2,72.9,1337.5,74.5,1343.5z
	 M43.6,1306c5.3,10.5,17.8,18,29.6,15.1l-15.8,17.6c-1.9-2.9-7.1-6.8-12.4-6.5c-3.2,0.2-7.2,2-7.2,2c-0.4,2.9,2.5,5.4,4,7.7
	c-1.8,0.7-3.6,1.6-5,2.8c-0.6,0.5,0.5,1.1,0.8,1.6c-0.9,0.7-1.7,1.4-2.5,2.1C37.6,1332.6,40.6,1318.3,43.6,1306z M34.2,1353.4
	c1.4,1,2.9,1.7,4.6,2.1c-2.9,4-3.3,6.3,2.6,5.5c-2.4,12.8,6.2,17.4,15.3,7.9c2.8,5.4,4.2,3.5,6-1.1c2.1,1.7,4.3,2.9,7,3.2
	c0.9-2.4,1.1-4.8,1.2-7.3l1.7,0.1c0.4-2.1-0.2-3.9-0.8-5.7c3.1,0.5,10.2,2.3,8.3-3.2c4.1,5.1,10.7,9,17,9.3
	c-3.6,9.9-2.8,21.9,3.8,30.4c-3.7,0.8-7.6,1.4-11.7,1.7c-8.9-11.7-24.6-16.8-38.7-14.5c-7.5,1-15.8,3.9-21.2,8.7
	C30.7,1377.6,32.3,1365.1,34.2,1353.4z M79.7,1396.7c-1.9,0-3.7,0-5.6-0.1c-1.3-3-3.1-5.3-5.3-6.8
	C72.8,1391.3,76.5,1393.5,79.7,1396.7z M28.8,1397.4c6.5-4.3,8.1-6.3,12.5-7.6c5-1.8,10.4-2.6,15.7-2.4c-6.2,1.3-12.5,6.4-16.3,15.2
	l-1.9,4.5c5.5-2.4,11.6-3.8,17-0.3c5.6,3.3,15.1,0.6,17.7-5.3c2.4,0.3,8.5,1.2,10.9,1c17.3,25.2-13.7,47.6-24.9,32.4
	c-4.6-6.4-3-13,4.9-15.3c1,0.4,1.4,1.2,1.3,1.5c-0.6,2.9-0.2,5.4,1.2,7.1c4.2,5.2,12.8-0.1,11.4-6.2c-2.3-13.7-24.4-8.3-27,2.6
	c-2.1,8.9,4.3,19.6,13.4,21.7c-8.9,8.4-20.2,17.4-32.8,17.5c-2.4,0-4.3-1.8-4.5-4.2c-0.1-2.8-0.2-5.7-0.3-8.7
	c5.7,6.5,15.7,1.2,18.9-5.2c5.2-11.5-7.6-22.5-18.8-21.8C27.5,1415.1,28.1,1406.2,28.8,1397.4z M27,1436.1c0-1.2,0-2.4,0-3.6
	c6.8-0.8,16.9,5.6,12.2,13.1c-0.8,0-1.3-0.4-1.4-0.7c-1.7-5.4-7.1-7.8-10.9-3.9C27,1439.3,27,1437.7,27,1436.1z M173,1664.9l-2.4,18
	L173,1664.9z M178.6,1623l-2.4,18L178.6,1623z M182.2,1602.4l2.4-18L182.2,1602.4z M88.8,1664.9l2.3,18L88.8,1664.9z M85.4,1641
	l-2.3-18L85.4,1641z M79.8,1602.6l-2.3-18L79.8,1602.6z M182.9,1237.2V1219V1237.2z M80.9,1237.2V1219V1237.2z"/>
<path id="PanelC_Cut" class="st1" d="M469.7,943.5c0.6,1.6,2,2.6,3.7,2.6h19.4c1.9,0.2,28.3-0.6,29.3,0.6c1.3,0.6,0.7,2.6-0.7,2.6
	l-49.7-0.2c0,0,46.9,104.4,67.9,128c28.7,32.2,34.3,66.9,37,66.9c2.6,0,12.4-37.6,39.1-67.9c17.5-22,64.8-113.7,66.1-127l-46,0.1
	c-1.4,0-1.9-2-0.6-2.6c12.6-1.5,36.4-0.1,49-0.6c48-54.5,19.6-276.2-3.7-315.2c-1.2-2.5-3.6-4-6.2-4h-40c-1.8,0-2.8-0.9-3.4-2.1
	c-0.7-1.7,19.7-1,19.8-2.7c-0.7-10.3,3.7-37.8-12.4-37.5H519.9c-17.3-0.1-11.6,26.5-12.7,38.3c0,0.8,19.8,1.6,19.4,2.2
	c-0.7,1.1-1.9,1.9-3.3,1.9h-40.1c-3.1,0-6,1.9-7.2,5C449.5,688.8,428.8,880.7,469.7,943.5z M483.7,901.8c-0.4-1.5-0.9-3.1-1.3-4.8
	c1,1.3,1.9,2.5,3.2,3.5C484.9,901,484.2,901.4,483.7,901.8z M486.4,910.4c-0.1-0.2-0.1-0.4-0.2-0.6c0.1,0.1,0.3,0.1,0.4,0.2
	C486.5,910.1,486.5,910.2,486.4,910.4z M489.5,916.6c-0.2,0.3-0.3,0.6-0.4,0.9c-0.7-1.7-1.4-3.5-2.1-5.5c1.5,0.6,3.1,0.7,4.6,0.7
	C490.9,914.1,490.2,915.3,489.5,916.6z M502.5,878.6c-1.9-0.3-2.5,2.6-2.9,4.1c-11.5-6.8-18.8-0.4-13,11.8c-1.7,0.1-3.4,0.5-4.4,1.9
	c-2.9-11.3-5.6-25.8-7.2-44.6c-0.2-2.3,1.8-4.2,4.1-4.1c6.8,0.5,13.7-1.9,19.3-5.8c-3.6,13,0.3,28.7,12,36c-1.8,1-3.3,2.4-4.5,4.2
	C504.8,880.8,503.9,879.5,502.5,878.6z M544,792.6c-0.5-4.9-1.9-9.3-4.1-13.6c0,0,0,0,0,0c4.7-0.2,9.2-0.9,13.8-1.9
	c10.7,7.1,13.3,8.6,32.8,9.7c-4.4,5.7-7.2,12.5-8.3,19.4c-2.7-4.2-7.2-8.5-14.4-10.1c5.2,8.5-0.4,13.1,1,20.9
	c-7.8-4-17.5-6.1-26.4-5.2C542.5,806.2,544.5,799.4,544,792.6z M590.9,702.4c8.3,11.2,1.8,13,0.6,22.1l-9-10.1
	C587.3,713.4,591.7,708,590.9,702.4z M611.4,728.2c-2.1,5.9,5.5,12.5,10.7,8.2c1.9-1.6,2.8-4.3,2.5-7.6c0-0.4,0.4-1.2,1.6-1.6
	c5.8,3.5,1.2,11-2.9,13.7c-14.2,9.6-35.1-10.8-16.6-28c15.2,8.3,33.2,5.4,46.6-4.9c29.5,25.9-0.6,54.8-30.3,55.3
	c-10.7,1-21.4,3.5-32.1,1.3c-8.1-2.8-15.7,10.8-7.5,15.1c-7.6-0.5-15.8-1.6-22.5-4.7c15.8-5.5,32.1-16.8,35-34.6
	c11.3,16.1,38.2,11.8,38.8-9C634,719.9,613.9,716.5,611.4,728.2z M617,705.6c9-4.4,20.1-5.5,28.5-1.8c0.8,0.4,1.2,1.5,0.6,2.2
	c0,0.1-0.1,0.1-0.2,0.2c-10.1,5.9-20.3,5.1-28.7,2.4C615.8,708.1,615.7,706.2,617,705.6z M643.5,824.7c-1.6-0.4-4.3-2-5.5-0.5
	c-0.7,4,2.2,9,6.1,10.7c-8.5,16.1-32.4,17.8-45.4,6.5c-10.7-9.5-14.4-26-10.3-39.5l0,0c0.5-1.6,1.2-3.6,2.3-4.9l-0.2-0.2
	c2.2-4.5,5.5-8.7,9.8-11.3c9.4-5.5,23.1,1.6,24.9,12c1.2,6.6-5.5,18.8-13.2,13.4c-0.1-1.3,0.6-2,1-2.1c5.6-1.2,9.2-6.1,6-10.8
	c-2.4-3.5-7.8-4.4-11.2-1.9c-15.7,11.5,12.5,37.5,23.7,8.7c2.7-0.1,5.2-1.3,7.8-2c0,2.3,0.4,4.8,1.2,7c0.3,0.9,1.5-0.2,2.2-0.2
	c0.9,2.7,1.5,5.3,3.1,7.7c-0.6,1.3-0.5,2.6-0.8,4c-0.4-0.1-0.7-0.2-1-0.2C643.1,822.3,643.3,823.6,643.5,824.7z M627.6,859
	c-0.4-1,0.2-2.1,1.2-2.3c0.8-0.2,1.7-0.4,2.5-0.7c1.1-0.3,2.2,0.5,2.2,1.6c-0.1,7.5,4,14.7,10.1,19c-5.2,0-12.4,3.4-13.1,9
	c-1-0.9-3-3.9-4.8-5.8c2.5-3.8,3.9-8.3,3.7-12.8C629.3,864.1,628.6,861.5,627.6,859z M595.6,876.3c5,5.5,14.4-1,12.2-7.7
	c-2-9.2-14-9.4-20.5-4.7c0.4-6.9,0.4-15.1-1.5-22c-0.1-0.4,0.4-0.7,0.7-0.3c5,6.9,10,10.1,20,14v0c2.5,0.8,5.8,1.5,8.8,1.9
	c1.2,0.1,2.3,0.8,2.9,1.9c0.7,1.2,1.3,2.5,1.7,3.6c4.7,11.5-8.3,23.4-19.6,21.1c-6.6-1.1-16.3-11.5-8.2-16.8
	c1.3,0.4,1.7,1.2,1.6,1.7C593.4,872,594,874.6,595.6,876.3z M592.4,773.1c0.1-0.8-0.2-1.5,0.9-1.9c3.1,3.3,0.7,7.4-3.6,8
	C591.6,777.9,592.8,775.5,592.4,773.1z M636.5,785.6c-1.4,0.8-3.9,3.1-5.6,5.8c-4.5-11.2-18-18.3-29.8-15.1c0.2-1.4,0-2.9-0.6-4.4
	c8.1-1.1,16.4-2.3,24.5-2.7l16.6,14.2C641.6,783.4,638.5,784.5,636.5,785.6z M567.5,749.3c4.1,3,8.9,5.1,13.7,3.3
	c-7.3,8.5-17.1,13.7-27.8,17c-10.7-11-4.8-38.1,13.5-34.9C561.7,738.1,562.3,746.1,567.5,749.3z M587,742
	c-0.8-10-11.2-14.8-20.1-15.5c4.7-0.4,11.2-4.1,11.3-9.2c2.1,2.5,10.3,10.2,13.2,12.6c0.8,6.1-2.3,9-4.4,14
	C587.1,743.3,587.1,742.6,587,742z M576.2,738.3c-0.1-0.4-0.2-0.8-0.4-1.2c5.7,2.7,6.4,12.4-1.9,9.8c-0.6-0.9-0.4-1.6-0.2-1.8
	C575.7,743,576.6,740.6,576.2,738.3z M587.6,701.4c-1.1,0.3-2.2,0.7-3.2,1c0-1.4-0.2-3-0.7-4.4c-0.2-0.6-0.9,0.1-1.4,0.1
	c-0.6-1.8-1.2-3.6-2.4-5.2c-1.9,0.8-3.4,2-4.6,3.7c-2.1-3.1-3.7-4.1-4.7,0.4c-8.4-5.2-14.2-0.1-9.8,8.9c-4.6,0.6-3.7,2.1-0.8,4.6
	c-1.8,1-3.2,2.3-4.1,4.2c1.5,1.3,3.2,2.1,5,2.8c-0.2,0.4-0.3,0.8-0.5,1.2c1.4,0.8,2.9,0.9,4.3,1c-1.1,2-4.4,6.6-0.1,6.8
	c-1.8,0-3.6,0.2-5.3,0.5c0.1-2.9-1.2-5.7-3.5-7.3c-3.8-4.4-9-5.3-13.2-1.5c-7.3,7.3,4.5,17.9,9.7,7.1c0.1-0.3,1-0.5,1.5-0.2
	c1.3,4.4-3.9,5.8-6,8.8c-9,2-17.7-7-19.5-15.4c-1.3-4.9-0.3-11.7,1.4-16.2c4.3-12.4,17.2-19.4,30.1-19.4
	c14.5-0.3,22.3,8.4,30.4,18.5C589.2,701.1,588.4,701.1,587.6,701.4z M541.7,817.1c10.8,0.6,19.2,3.9,25.3,8.9l-6,4.4
	c0,0-0.7-1.9-1.3-3.2c-0.7-1.2-3.4-3.9-5.9-4.6c-2.3-0.7-5.7-0.4-5.7-0.4c-0.2,0.1-0.2,0.2-0.3,0.4c-0.2,1-0.1,2,0.2,2.9
	c0.3,1.1,0.7,2.1,1,3.2c-0.7,0-1.5,0.1-2.3,0.2c-0.7,0.1-1.4,0.3-2.1,0.5c-0.2,0.1-0.3,0.2-0.2,0.5c0.1,0.3,0.2,0.6,0.3,0.9
	c-1.8,0.6-3.6,1.3-5.1,2.4c0.8,1.9,2.1,3.3,3.8,4.5c-0.2,0.2-0.4,0.3-0.6,0.4c-0.8,0.6-1.5,1.2-2.1,2.1c-0.1,0.2-0.1,0.3,0,0.5
	c0.5,0.6,1.1,1,1.8,1.3c0.4,0.1,0.8,0.2,1.3,0.3c-0.2,0.3-0.3,0.7-0.5,1c-0.6,1.1-1.1,2.3-1.3,3.6c-0.2,1.8,0.1,3.5,0.7,5.2
	c0,0.1,0.1,0.2,0.2,0.2c2.7,1.3,5.5,1.6,8.3,0.3c0.5-0.2,1-0.4,1.5-0.7c0,0.3,0.1,0.5,0.1,0.7c0.1,1,0.5,1.8,1.2,2.5
	c0.2,0.2,0.3,0.2,0.5,0c0.5-0.4,1.1-0.8,1.7-1.3c0.4-0.3,0.7-0.7,1.1-1.2c1,1.8,2.4,3.2,4.2,4.1c1.2-1.5,2-3.2,2.8-5
	c0.4,0.2,0.8,0.3,1.2,0.5c0.8-1.4,0.9-2.9,0.9-4.3c1,0.5,1.9,1.1,2.9,1.6c0.9,0.4,1.8,0.7,2.8,0.6c0.3,0,0.5-0.1,0.6-0.5
	c0.5-1.4,0.7-2.8,0.5-4.3c-0.4-3.3-1.8-6-4.1-8.3c-1.8-1.8-2.6-2.8-5.2-2.7c0.8-0.9,2.7-2.6,4.5-4.3l1.4-1.6
	c10.3,10.8,12.3,28,7.3,46.2c-3.2-18.9-31.9-16.6-41.9-4.2c-0.2,0.2-0.5,0-0.4-0.2c1.2-3.9,1.1-8.4-1.4-11.4c-5-5-13.3-7.1-17.6-0.5
	c-5.7,8.8,8.7,17.2,11.7,4.7c3.4,1,0.9,6.9-1.6,8c-7.1,4.1-15.3-0.5-18.2-7.2C496.6,839.3,517.7,818.4,541.7,817.1z M564,871.1
	c-0.3-0.6-0.6-1.1-1-1.5c7.5,0.9,11,11.4,0.8,10.9c-0.9-0.7-0.9-1.5-0.7-1.8C564.7,876,565,873.3,564,871.1z M514.6,918.3h-6.5
	c-1.3,0-1.9-1.5-1-2.5c0.8-0.8,1.5-1.7,2-2.7c0.7-1.3,2.4-1.7,3.4-0.5c1,1.1,2,2.3,3.1,3.3C516.5,916.8,515.8,918.3,514.6,918.3z
	 M528.7,918.3c-1.3-0.4-4.2-2.5-5.1-3.3c-2.8-2.5-6.1-6.1-8.2-9.1c3.5-0.8,9-4.4,10.6-9.5c0.9-3.1,0.6-7.6,0.6-7.6
	c-2.6-1.5-6,0.5-8.8,1.1c0-1.9-0.3-4-0.9-5.8c-0.3-0.8-1.2,0.1-1.8,0.2c-0.5-1.6-1.1-3.2-1.8-4.7c6.3,2,13.6,0.3,18.4-4.1
	c0.2-0.2,0.6,0,0.5,0.3c-5.2,14.4-0.1,32.4,10.6,42.6C542.8,918.4,528.8,918.4,528.7,918.3z M548.2,912.2c-3-1.8-5.8-4.9-7.4-8.1
	c-5.6-11.5-5.2-28.8,7.7-33.4c1.8-0.6,3.6,1,3,2.8c-3.2,10,14.5,16.7,22.3,10.1c-5.2,10.7-15.1,17.8-22.9,26.5
	C550.5,910.5,548.6,912.5,548.2,912.2z M569.3,913.9l-2.6,4.3l-13,0.1c3.2-3.1,8.9-9.1,12.2-12.2c2.2-1.8,4.2-3.8,6.2-5.9
	c0.2,2.7,1.2,5,3,7c1.5,1.6,1.2,1.9,1.5,2.5c-0.6,0.6-2.2,1-5,2.1C570.7,912.2,569.8,913,569.3,913.9z M572.1,918.2l0.8-1.3
	c0.6-1.1,1.8-1.9,3.1-2c2.5-0.2,6.2,0,6.5,0.8c0.1,0.2,0.2,0.5,0.3,0.7c0.2,0.4,0.7,1.1,1.3,1.8L572.1,918.2z M667.6,918.1h-29.3
	h-45.7c-0.2-0.8-0.4-1.6-0.6-2.4c0.6,0,1.3,0,2,0c0.6-0.1,1.2-0.2,1.8-0.3c0.2,0,0.3-0.2,0.2-0.4c-0.1-0.2-0.1-0.5-0.2-0.8
	c1.6-0.4,3.2-0.9,4.5-1.8c-0.6-1.7-1.6-3-3-4.1c0.2-0.1,0.4-0.2,0.5-0.3c0.7-0.5,1.4-1,1.9-1.7c0.1-0.1,0.1-0.3,0-0.4
	c-0.4-0.6-0.8-1-1.5-1.2c-0.3-0.1-0.7-0.2-1.1-0.4c0.2-0.3,0.3-0.6,0.5-0.8c0.6-0.9,1.1-1.9,1.3-3c0.3-1.5,0.1-3-0.3-4.5
	c0,0-0.1-0.1-0.1-0.2c-2.3-1.3-4.7-1.7-7.2-0.7c-0.4,0.2-0.9,0.3-1.3,0.5c0-0.2,0-0.4,0-0.6c-0.1-0.8-0.3-1.6-1-2.2
	c-0.1-0.1-0.3-0.1-0.4,0c-0.5,0.3-1,0.7-1.5,1c-0.3,0.3-0.6,0.6-1,0.9c-0.8-1.6-1.9-2.9-3.4-3.7c-1.2,1.2-1.9,2.6-2.7,4.1
	c-0.3-0.2-0.7-0.3-1-0.5c-0.8,1.1-0.9,2.4-1,3.7c-0.8-0.5-1.6-1-2.4-1.5c-0.1-0.1-0.3-0.1-0.4-0.2c4-5.1,7.2-10.9,9.1-17.3
	c6.7,14.9,27.7,15.8,38.2,4.2l2.9,4.9c-2.9,0.4-7.6,3-9.2,7c-1,2.4-1,6.1-1,6.1c2,1.4,4.9,0,7.2-0.3c-0.1,1.6,0,3.2,0.3,4.8
	c0.2,0.6,1,0,1.5,0c0.5,2,1,4,2.1,5.8c2.1-0.7,3.8-1.9,5.2-3.6c2,3.6,3.6,4.7,5,0c8.7,6.3,15.2,1.4,11.3-8.7c5-0.2,4.1-1.9,1.3-4.9
	c2-0.9,3.7-2.2,4.8-4.2c-1.5-1.5-3.2-2.5-5.1-3.5c0.2-0.4,0.5-0.8,0.7-1.2c-1.4-1-3-1.2-4.6-1.4c1-1.6,2.4-3.1,2.8-5
	c11.6,6.3,26.6,1,31.7-10.6c0.2-0.4,0.7-0.2,0.7,0.2C677.3,892.8,671.9,908.1,667.6,918.1z M683,813c0.4,17-0.2,31.7-1.3,44.2
	c-0.1,0.7-1,0.8-1.3,0.2c-4.7-9-22.1-10.6-24.7,0.5c-2.4,7.2,7.4,14.1,12.6,8c1.6-1.9,2.1-4.7,1.4-7.8c-0.1-0.4,0.2-1.4,1.6-1.9
	c10,5.7-2.8,19.4-11,18.4c-10.3,0.1-21-9.8-17.7-20.5c0.6-1.9,1.5-4,2.3-5.7c1.8-3.2,4.6-6.1,6-9.3c2,4.2,7.7,5.7,11.5,4.2
	c0.6-1.8-1-3.7-1.7-5.3c1.2-0.2,2.4-0.6,3.5-1.2c0.5-0.2-0.2-0.7-0.3-1.1c1.4-0.8,2.8-1.6,3.9-2.8c-0.9-1.4-2.2-2.5-3.8-3.2
	c2.2-2.2,2.7-3.7-1-3.8c2.9-7.7-2.2-11.6-8.8-6.6c-1.1-3.6-2.3-2.7-3.9,0c-0.8-0.9-1.3-1.8-2.3-2.3c2.5-1.3,4-3.1,5.6-5.5
	c3.5,5,5.9,6.5,7.5-0.7c4.8,3.1,10.6,4,15.9,1.7c3.2-5,2.3-11-0.4-16.2c2-0.2,3.8-0.6,5.1-2.2c0.8-1.3-2.9-4.2-3.9-5.2
	c1.6-0.9,3-2,4.2-3.3C682.4,794.6,682.8,803.7,683,813z M668.7,696.8c0.5-0.7,1.6-0.5,1.8,0.4c4.5,22.5,8.8,50.8,11,83.3
	c-1.7-1-3.5-1.8-5.3-2.5l0.8-1.9c-2.2-1.3-4.7-1.4-7-1.4c4-6.9,6.7-12-4.2-11c-7.1,0.7-17.8,7.4-17.6,15.1c-2.2-2-7.8-8.3-11.4-10.8
	c12.2-2.5,24.9-10.4,31.8-20.9c3-4.7,4.5-10.2,4.5-15.7c0.1-4-0.7-8-2-11.8c-0.8-2.3-1.6-4.5-2.8-6.6c-1.2-2.1-3-3.7-4.1-5.8
	c-1.2-2.4-0.2-4.5,1.3-6.4c0.7-0.9,1.6-1.8,2.3-2.8C668.1,697.6,668.4,697.2,668.7,696.8z M620.9,662.8c2.3,1.3,4.2,3.5,5.5,6
	c-0.3,1-0.9,1.4-1.3,1.4c-3.3,0-5.9,1.1-7.4,3.1c-3.8,5.5,3.3,12.5,9.1,10c12.3-4.9,5-22.4-4.9-27.2c-0.5-0.3-0.4-1,0.2-1h37.7
	c2.3,7,4.9,16.5,7.6,28.1c-2,6.3-6.5,12-11.7,16.3c-13.4-9.4-36.3-7.4-49.9,3.1c-7.2-6-10.5-16.2-8.4-25
	C599.5,667.7,611,657.9,620.9,662.8z M494.1,672.3c3.8-22.4,33-10.5,23.9,2.3c-0.5-0.2-0.8-0.6-0.8-0.8c-0.6-6-4.5-8.4-8.5-6.6
	c-7.3,3.6-2.5,15,4.7,14.5c15.7-0.6,17.1-19.4,5-26.8h87.1c0.7,0,0.9,1,0.3,1.3c-12.2,5.1-20.4,19.5-17.1,32.5
	c-9.8-12.4-29.4-12.7-44.2-8.9c-5.6,1.3-8.5,4.7-13.3,6.4c-6.4,2.6-13.4,5-20.2,4.2C501.8,689.6,492.4,682.3,494.1,672.3z
	 M521.1,720c0.2,1.1,0.6,2.2,1.1,3.4c-3.5-2.8-8.2-6.3-12.8-4.4c2-6,8.8-13.5,13.1-18.4C520.3,706.6,519.5,714,521.1,720z
	 M490.2,682.5c5.3,10.5,17.8,18,29.6,15.1l-15.8,17.6c-1.9-3-7.1-6.8-12.4-6.5c-3.2,0.2-7.2,2-7.2,2c-0.4,2.9,2.5,5.4,4,7.7
	c-1.8,0.7-3.6,1.6-5,2.8c-0.6,0.5,0.5,1.1,0.8,1.6c-0.9,0.7-1.7,1.4-2.5,2.1C484.2,709.1,487.3,694.7,490.2,682.5z M480.8,729.8
	c1.4,1,2.9,1.7,4.6,2.1c-2.9,4-3.3,6.3,2.6,5.5c-2.4,12.8,6.2,17.4,15.3,7.9c2.8,5.4,4.2,3.5,6-1.1c2.1,1.7,4.3,2.9,7,3.2
	c0.9-2.4,1.1-4.8,1.2-7.3l1.7,0.1c0.4-2.1-0.2-4-0.8-5.7c3.1,0.5,10.2,2.3,8.3-3.2c4.1,5.1,10.7,9,17,9.3
	c-3.6,9.9-2.8,21.9,3.8,30.4c-3.7,0.8-7.5,1.4-11.7,1.7c-8.9-11.7-24.6-16.8-38.7-14.5c-7.5,1-15.8,3.9-21.2,8.7
	C477.3,754,478.9,741.6,480.8,729.8z M526.3,773.1c-1.9,0-3.7,0-5.6-0.1c-1.3-3-3.1-5.3-5.3-6.8C519.4,767.7,523.1,770,526.3,773.1z
	 M475.4,773.9c6.5-4.3,8.1-6.3,12.5-7.6c5-1.8,10.4-2.6,15.7-2.4c-6.2,1.3-12.5,6.4-16.3,15.2l-1.9,4.5c5.5-2.4,11.6-3.8,17-0.3
	c5.6,3.3,15.1,0.6,17.7-5.3c2.5,0.3,8.5,1.2,10.9,1c17.3,25.2-13.7,47.6-24.9,32.4c-4.5-6.4-3-13,4.9-15.3c1,0.4,1.4,1.2,1.3,1.5
	c-0.6,2.9-0.2,5.4,1.2,7.1c4.2,5.2,12.8-0.1,11.4-6.2c-2.3-13.7-24.4-8.3-27,2.6c-2.1,9,4.2,19.6,13.3,21.7
	c-8.9,8.4-20.2,17.4-32.8,17.5c-2.4,0-4.3-1.8-4.5-4.2c-0.1-2.8-0.2-5.7-0.3-8.7c5.7,6.5,15.7,1.2,18.9-5.2
	c5.2-11.5-7.6-22.5-18.8-21.8C474.1,791.5,474.7,782.6,475.4,773.9z M473.6,812.5c0-1.2,0-2.4,0-3.6c6.8-0.8,16.8,5.6,12.2,13
	c-0.8,0-1.3-0.4-1.4-0.7c-1.7-5.4-7.2-7.8-10.9-3.9C473.6,815.8,473.6,814.2,473.6,812.5z M619.6,1041.3l-2.3,18L619.6,1041.3z
	 M625.2,999.4l-2.3,18L625.2,999.4z M628.8,978.9l2.3-18L628.8,978.9z M535.4,1041.3l2.3,18L535.4,1041.3z M532,1017.5l-2.3-18
	L532,1017.5z M526.4,979l-2.3-18L526.4,979z M629.5,613.7v-18.2V613.7z M527.5,613.7v-18.2V613.7z"/>
<path id="PanelB_Cut" class="st1" d="M463.4,967.2c-0.6-1.6-2-2.6-3.7-2.6h-19.4c-1.9-0.2-28.4,0.6-29.3-0.6
	c-1.3-0.6-0.7-2.6,0.7-2.6l49.7,0.2c0,0-47-104.4-67.9-128c-28.6-32.2-34.3-67-37-66.9c-2.6,0-12.4,37.6-39.1,67.9
	c-17.5,22-64.8,113.7-66.1,127l46-0.1c1.4,0,1.9,2,0.6,2.6c-12.6,1.5-36.4,0.1-49,0.6c-48,54.5-19.6,276.2,3.6,315.2
	c1.2,2.4,3.6,4,6.2,4h40c1.8,0,2.8,0.9,3.4,2.1c0.7,1.7-19.7,1-19.8,2.7c0.7,10.3-3.7,37.8,12.4,37.5h118.4
	c17.3,0.1,11.6-26.5,12.7-38.3c0-0.8-19.8-1.6-19.4-2.2c0.7-1.1,1.9-1.9,3.3-1.9H450c3.1,0,6-1.9,7.2-4.9
	C483.6,1221.9,504.3,1030,463.4,967.2z M449.5,1008.9c0.4,1.5,0.9,3.1,1.3,4.8c-1-1.3-1.9-2.5-3.2-3.5
	C448.3,1009.7,448.9,1009.3,449.5,1008.9z M446.7,1000.3c0.1,0.2,0.1,0.4,0.2,0.6c-0.1-0.1-0.3-0.1-0.4-0.2
	C446.6,1000.6,446.7,1000.4,446.7,1000.3z M443.6,994c0.1-0.3,0.3-0.6,0.4-0.9c0.7,1.7,1.4,3.5,2.1,5.5c-1.5-0.6-3.1-0.7-4.6-0.7
	C442.2,996.6,443,995.3,443.6,994z M430.6,1032.1c1.9,0.3,2.5-2.6,2.9-4.1c11.5,6.8,18.8,0.4,13-11.8c1.7-0.1,3.4-0.5,4.4-1.9
	c2.9,11.3,5.6,25.8,7.2,44.6c0.2,2.3-1.8,4.2-4.1,4.1c-6.8-0.5-13.7,1.9-19.3,5.8c3.6-13-0.3-28.7-12-36c1.8-1,3.3-2.4,4.5-4.2
	C428.3,1029.9,429.2,1031.2,430.6,1032.1z M389.2,1118.1c0.5,4.9,1.9,9.3,4.1,13.6c0,0,0,0,0,0c-4.7,0.2-9.2,0.9-13.8,1.9
	c-10.7-7.1-13.3-8.6-32.8-9.7c4.4-5.7,7.2-12.5,8.3-19.4c2.7,4.2,7.2,8.5,14.4,10.1c-5.2-8.5,0.4-13.1-1-20.9
	c7.8,3.9,17.5,6.1,26.4,5.2C390.6,1104.5,388.6,1111.3,389.2,1118.1z M342.2,1208.3c-8.3-11.2-1.8-13-0.6-22.1l9,10.1
	C345.9,1197.3,341.4,1202.7,342.2,1208.3z M321.7,1182.5c2.1-5.9-5.5-12.5-10.7-8.2c-1.9,1.6-2.8,4.3-2.5,7.6c0,0.4-0.4,1.2-1.6,1.6
	c-5.9-3.4-1.2-11,2.9-13.7c14.2-9.6,35.1,10.8,16.6,28c-15.2-8.3-33.2-5.4-46.6,4.9c-29.5-25.9,0.6-54.8,30.3-55.3
	c10.7-1,21.4-3.5,32.1-1.3c8.1,2.8,15.6-10.8,7.5-15.1c7.6,0.5,15.8,1.6,22.5,4.7c-15.8,5.6-32.1,16.8-35,34.6
	c-11.4-16.1-38.2-11.8-38.8,9C299.1,1190.8,319.2,1194.1,321.7,1182.5z M316.2,1205.1c-9,4.4-20.1,5.6-28.5,1.8
	c-0.8-0.4-1.2-1.5-0.6-2.2c0-0.1,0.1-0.1,0.2-0.2c10.1-5.9,20.3-5.1,28.7-2.4C317.3,1202.6,317.4,1204.4,316.2,1205.1z
	 M289.6,1085.9c1.6,0.4,4.3,2,5.5,0.5c0.6-4-2.2-9-6.1-10.7c8.5-16.1,32.4-17.8,45.4-6.5c10.7,9.5,14.4,26,10.3,39.5l0,0
	c-0.5,1.6-1.2,3.6-2.3,4.9l0.2,0.2c-2.2,4.5-5.5,8.7-9.8,11.3c-9.4,5.5-23.1-1.6-24.9-12c-1.2-6.6,5.5-18.8,13.2-13.4
	c0.1,1.3-0.6,2-1,2.1c-5.6,1.2-9.2,6.1-6,10.8c2.4,3.5,7.8,4.4,11.2,1.9c15.7-11.6-12.5-37.5-23.7-8.7c-2.7,0.1-5.2,1.3-7.8,2.1
	c0-2.3-0.4-4.8-1.2-7c-0.3-0.9-1.5,0.2-2.2,0.2c-0.9-2.7-1.5-5.3-3.1-7.7c0.6-1.3,0.5-2.6,0.8-4c0.4,0.1,0.7,0.2,1,0.2
	C290,1088.4,289.8,1087.1,289.6,1085.9z M305.6,1051.7c0.4,1-0.2,2.1-1.2,2.3c-0.8,0.2-1.7,0.4-2.5,0.7c-1.1,0.3-2.2-0.4-2.1-1.6
	c0.1-7.5-4-14.7-10.1-19c5.2,0,12.4-3.4,13.1-9c1,0.9,3,3.9,4.8,5.8c-2.5,3.8-3.9,8.3-3.7,12.8
	C303.8,1046.6,304.6,1049.1,305.6,1051.7z M337.5,1034.3c-5-5.5-14.4,1-12.2,7.7c2,9.2,14,9.4,20.5,4.7c-0.4,6.9-0.4,15.1,1.5,22
	c0.1,0.4-0.4,0.7-0.7,0.3c-5-6.9-10-10.1-20-14v0c-2.5-0.8-5.8-1.6-8.8-1.9c-1.2-0.1-2.3-0.8-2.9-1.9c-0.7-1.2-1.3-2.5-1.7-3.6
	c-4.7-11.5,8.3-23.4,19.6-21.1c6.6,1.1,16.3,11.5,8.2,16.8c-1.3-0.4-1.7-1.2-1.6-1.7C339.7,1038.7,339.1,1036.1,337.5,1034.3z
	 M340.7,1137.6c-0.1,0.8,0.2,1.5-0.9,1.9c-3.1-3.3-0.7-7.4,3.6-8C341.5,1132.8,340.3,1135.2,340.7,1137.6z M296.6,1125.1
	c1.4-0.8,3.9-3.1,5.6-5.8c4.5,11.2,18,18.3,29.8,15.1c-0.2,1.4,0,2.9,0.6,4.4c-8.1,1.1-16.4,2.3-24.5,2.7l-16.6-14.2
	C291.5,1127.2,294.6,1126.1,296.6,1125.1z M365.6,1161.4c-4.1-3-8.9-5.1-13.7-3.3c7.3-8.6,17.1-13.7,27.8-17
	c10.7,11,4.8,38.1-13.5,34.9C371.4,1172.5,370.8,1164.6,365.6,1161.4z M346.1,1168.7c0.8,10,11.2,14.8,20.1,15.5
	c-4.7,0.4-11.1,4.1-11.3,9.2c-2.1-2.5-10.3-10.2-13.2-12.6c-0.8-6.1,2.3-9,4.4-14C346,1167.4,346,1168.1,346.1,1168.7z
	 M356.9,1172.4c0.1,0.4,0.2,0.8,0.4,1.2c-5.7-2.7-6.4-12.4,1.9-9.8c0.6,0.9,0.4,1.6,0.2,1.8C357.4,1167.7,356.5,1170.1,356.9,1172.4
	z M345.6,1209.3c1.1-0.3,2.2-0.7,3.2-1c0,1.4,0.2,3,0.7,4.4c0.2,0.6,0.9-0.1,1.4-0.1c0.6,1.8,1.2,3.6,2.4,5.2c1.9-0.8,3.4-2,4.6-3.7
	c2.1,3.1,3.6,4.1,4.7-0.4c8.4,5.2,14.2,0.1,9.8-8.9c4.6-0.6,3.6-2.1,0.8-4.6c1.8-1,3.2-2.3,4.1-4.2c-1.5-1.3-3.2-2.1-5-2.8
	c0.2-0.4,0.4-0.8,0.5-1.2c-1.4-0.8-2.9-0.9-4.3-0.9c1.1-2,4.4-6.6,0.1-6.8c1.8,0,3.6-0.2,5.3-0.5c-0.1,2.9,1.2,5.7,3.5,7.3
	c3.8,4.4,9,5.3,13.2,1.5c7.3-7.3-4.5-17.9-9.6-7.1c-0.1,0.3-1,0.5-1.5,0.2c-1.3-4.4,3.9-5.8,6-8.8c9-2,17.7,7,19.5,15.4
	c1.3,4.9,0.3,11.7-1.4,16.2c-4.3,12.4-17.2,19.4-30.1,19.4c-14.5,0.3-22.3-8.4-30.4-18.5C343.9,1209.6,344.7,1209.5,345.6,1209.3z
	 M391.4,1093.6c-10.8-0.6-19.2-3.9-25.3-8.9l6-4.4c0,0,0.7,1.9,1.4,3.2s3.4,3.9,5.9,4.6c2.3,0.7,5.7,0.4,5.7,0.4
	c0.2-0.1,0.2-0.2,0.3-0.4c0.2-1,0.1-2-0.2-2.9c-0.3-1.1-0.7-2.1-1-3.2c0.7-0.1,1.5-0.1,2.3-0.2c0.7-0.1,1.4-0.3,2.1-0.5
	c0.2-0.1,0.3-0.2,0.2-0.5c-0.1-0.3-0.2-0.6-0.3-0.9c1.8-0.6,3.6-1.3,5.1-2.4c-0.8-1.9-2.1-3.3-3.8-4.5c0.2-0.2,0.4-0.3,0.6-0.4
	c0.8-0.6,1.5-1.2,2.1-2.1c0.1-0.2,0.1-0.3,0-0.5c-0.5-0.6-1.1-1-1.8-1.3c-0.4-0.1-0.8-0.2-1.3-0.3c0.2-0.3,0.4-0.7,0.5-1
	c0.6-1.1,1.1-2.3,1.3-3.6c0.2-1.8-0.1-3.5-0.7-5.2c0-0.1-0.1-0.2-0.2-0.2c-2.7-1.3-5.5-1.6-8.4-0.3c-0.5,0.2-1,0.4-1.5,0.7
	c0-0.3-0.1-0.5-0.1-0.7c-0.1-1-0.5-1.8-1.2-2.5c-0.2-0.2-0.3-0.2-0.5-0.1c-0.5,0.4-1.1,0.8-1.6,1.3c-0.4,0.3-0.7,0.7-1.1,1.2
	c-1-1.8-2.4-3.2-4.2-4.1c-1.2,1.5-2,3.2-2.8,5c-0.4-0.2-0.8-0.3-1.2-0.5c-0.8,1.4-0.9,2.9-0.9,4.3c-1-0.5-1.9-1.1-2.9-1.6
	c-0.9-0.4-1.8-0.7-2.9-0.6c-0.3,0-0.5,0.1-0.6,0.5c-0.5,1.4-0.7,2.8-0.5,4.3c0.4,3.3,1.8,6,4.1,8.3c1.8,1.8,2.6,2.8,5.2,2.7
	c-0.8,0.9-2.7,2.6-4.5,4.3l-1.4,1.6c-10.3-10.8-12.3-28-7.4-46.2c3.2,18.9,31.9,16.6,41.9,4.2c0.2-0.2,0.5,0,0.4,0.2
	c-1.2,3.9-1.1,8.4,1.4,11.4c5,5,13.3,7.1,17.6,0.5c5.7-8.8-8.7-17.2-11.7-4.7c-3.4-1-0.9-6.9,1.6-8c7.1-4.1,15.3,0.5,18.2,7.2
	C436.5,1071.4,415.4,1092.3,391.4,1093.6z M369.1,1039.5c0.3,0.6,0.6,1.1,1,1.5c-7.5-0.9-11-11.4-0.8-10.9c0.9,0.7,0.9,1.5,0.7,1.8
	C368.5,1034.7,368.1,1037.4,369.1,1039.5z M418.5,992.4h6.5c1.3,0,1.9,1.5,1,2.5c-0.8,0.8-1.5,1.7-2,2.7c-0.6,1.3-2.4,1.7-3.4,0.5
	c-1-1.1-2-2.3-3.1-3.3C416.7,993.8,417.3,992.4,418.5,992.4z M404.4,992.4c1.3,0.4,4.1,2.5,5.1,3.3c2.8,2.5,6.1,6.1,8.2,9.1
	c-3.5,0.8-9,4.4-10.6,9.5c-0.9,3.1-0.6,7.6-0.6,7.6c2.6,1.5,6-0.5,8.8-1.1c0,1.9,0.3,4,0.9,5.8c0.3,0.8,1.2-0.1,1.8-0.2
	c0.5,1.6,1.1,3.2,1.8,4.7c-6.3-2-13.6-0.3-18.4,4.1c-0.2,0.2-0.6,0-0.5-0.3c5.2-14.4,0.1-32.4-10.6-42.6
	C390.3,992.3,404.3,992.3,404.4,992.4z M385,998.5c3,1.8,5.8,4.9,7.4,8.1c5.6,11.5,5.2,28.8-7.7,33.4c-1.8,0.6-3.6-1-3-2.8
	c3.2-10-14.5-16.7-22.3-10.1c5.2-10.7,15.1-17.8,22.9-26.5C382.7,1000.2,384.5,998.2,385,998.5z M363.8,996.8l2.6-4.3l13-0.1
	c-3.2,3.1-8.9,9.1-12.2,12.2c-2.2,1.8-4.2,3.8-6.2,5.9c-0.2-2.7-1.2-5-3-7c-1.5-1.6-1.2-1.9-1.5-2.5c0.6-0.6,2.2-1,5-2.1
	C362.4,998.5,363.3,997.7,363.8,996.8z M361,992.5l-0.8,1.3c-0.6,1.1-1.8,1.9-3.1,2c-2.5,0.2-6.2,0-6.5-0.8
	c-0.1-0.2-0.2-0.5-0.3-0.7c-0.2-0.4-0.7-1.1-1.3-1.8L361,992.5z M265.5,992.6h29.3h45.7c0.2,0.8,0.4,1.6,0.6,2.4c-0.6,0-1.3,0-2,0
	c-0.6,0.1-1.2,0.2-1.8,0.3c-0.2,0-0.3,0.2-0.2,0.4c0.1,0.2,0.1,0.5,0.2,0.8c-1.6,0.4-3.2,0.9-4.5,1.8c0.6,1.7,1.6,3,3,4.1
	c-0.2,0.1-0.4,0.2-0.5,0.3c-0.7,0.5-1.4,1-1.9,1.7c-0.1,0.1-0.1,0.3,0,0.4c0.4,0.6,0.9,1,1.5,1.2c0.3,0.1,0.7,0.2,1.1,0.4
	c-0.2,0.3-0.3,0.6-0.5,0.8c-0.6,0.9-1.1,1.9-1.3,3c-0.3,1.5-0.1,3,0.3,4.5c0,0,0.1,0.1,0.1,0.2c2.3,1.3,4.7,1.7,7.2,0.7
	c0.4-0.2,0.9-0.3,1.3-0.5c0,0.2,0,0.4,0,0.6c0.1,0.8,0.3,1.6,1,2.2c0.1,0.1,0.3,0.1,0.4,0c0.5-0.3,1-0.7,1.5-1
	c0.3-0.3,0.6-0.6,1-0.9c0.8,1.6,1.9,2.9,3.4,3.7c1.1-1.2,1.9-2.6,2.7-4.1c0.3,0.2,0.7,0.3,1,0.5c0.8-1.1,0.9-2.4,1-3.7
	c0.8,0.5,1.6,1,2.4,1.5c0.1,0.1,0.3,0.1,0.4,0.2c-4,5.1-7.2,10.9-9.1,17.3c-6.7-14.9-27.7-15.8-38.1-4.2l-2.9-4.9
	c2.9-0.4,7.6-3,9.2-7c1-2.4,1-6.1,1-6.1c-2-1.4-4.9,0-7.1,0.3c0.1-1.6,0-3.2-0.3-4.8c-0.2-0.6-1,0-1.5,0c-0.5-2-1-4-2.1-5.8
	c-2.1,0.7-3.8,1.9-5.2,3.6c-2-3.6-3.6-4.7-5,0c-8.7-6.3-15.2-1.4-11.3,8.7c-5,0.2-4.1,1.9-1.3,4.9c-2,0.9-3.7,2.2-4.8,4.2
	c1.5,1.5,3.2,2.5,5.1,3.5c-0.2,0.4-0.5,0.8-0.7,1.2c1.4,1,3,1.2,4.6,1.4c-1,1.6-2.4,3.1-2.8,4.9c-11.6-6.3-26.6-1-31.7,10.6
	c-0.2,0.4-0.7,0.2-0.7-0.2C255.9,1017.9,261.2,1002.6,265.5,992.6z M250.1,1097.7c-0.4-17,0.1-31.7,1.3-44.2c0.1-0.7,1-0.8,1.3-0.2
	c4.7,9.1,22.1,10.6,24.7-0.5c2.4-7.2-7.4-14.1-12.6-8.1c-1.6,1.9-2.1,4.7-1.4,7.8c0.1,0.4-0.2,1.4-1.6,1.9c-10-5.7,2.8-19.4,11-18.4
	c10.3-0.1,21,9.8,17.7,20.5c-0.6,1.9-1.5,4-2.4,5.7c-1.8,3.2-4.6,6.1-6,9.3c-2-4.2-7.7-5.7-11.5-4.2c-0.6,1.8,1,3.7,1.7,5.3
	c-1.2,0.2-2.4,0.6-3.5,1.2c-0.5,0.2,0.2,0.7,0.3,1.1c-1.4,0.8-2.8,1.6-3.9,2.8c0.9,1.4,2.2,2.4,3.8,3.2c-2.2,2.2-2.7,3.7,1,3.8
	c-2.9,7.7,2.2,11.6,8.8,6.6c1.1,3.6,2.3,2.7,3.9,0c0.8,0.9,1.3,1.8,2.3,2.3c-2.5,1.3-4,3.1-5.6,5.5c-3.5-5-5.9-6.5-7.5,0.7
	c-4.8-3.1-10.6-4-15.9-1.7c-3.2,5.1-2.4,11.1,0.4,16.2c-2,0.2-3.8,0.6-5.1,2.2c-0.8,1.3,2.9,4.2,3.9,5.2c-1.6,0.9-3,2-4.2,3.3
	C250.7,1116.1,250.3,1107,250.1,1097.7z M264.4,1213.9c-0.5,0.7-1.6,0.5-1.8-0.4c-4.5-22.5-8.8-50.8-11-83.3c1.7,1,3.5,1.8,5.3,2.5
	l-0.8,1.9c2.2,1.3,4.6,1.4,7,1.4c-4,6.9-6.7,12,4.2,11c7.1-0.7,17.8-7.4,17.6-15.1c2.2,2,7.8,8.3,11.4,10.8
	c-12.2,2.5-24.9,10.4-31.8,20.9c-3,4.7-4.5,10.2-4.5,15.7c-0.1,4.1,0.7,8,2,11.8c0.8,2.3,1.6,4.5,2.8,6.6s3,3.7,4.1,5.8
	c1.2,2.4,0.2,4.5-1.3,6.4c-0.7,0.9-1.6,1.8-2.3,2.8C265,1213.1,264.7,1213.4,264.4,1213.9z M312.3,1247.9c-2.3-1.3-4.2-3.5-5.5-6
	c0.3-0.9,0.9-1.4,1.4-1.4c3.3,0.1,5.9-1.1,7.4-3.1c3.8-5.5-3.3-12.5-9.1-9.9c-12.3,4.9-5,22.4,4.9,27.2c0.5,0.3,0.4,1.1-0.2,1.1
	h-37.7c-2.3-7-4.9-16.5-7.6-28.1c2-6.3,6.5-12.1,11.7-16.3c13.4,9.4,36.3,7.4,49.9-3.1c7.2,6,10.5,16.2,8.4,25
	C333.7,1242.9,322.1,1252.8,312.3,1247.9z M439.1,1238.4c-3.8,22.4-33,10.4-23.9-2.3c0.5,0.2,0.8,0.6,0.8,0.8c0.6,6,4.5,8.4,8.5,6.6
	c7.3-3.6,2.5-15-4.7-14.5c-15.7,0.6-17.1,19.4-5,26.8h-87.1c-0.7,0-0.9-1-0.3-1.3c12.2-5.1,20.4-19.4,17.1-32.5
	c9.8,12.4,29.4,12.7,44.2,8.9c5.6-1.3,8.5-4.7,13.3-6.4c6.4-2.6,13.4-5.1,20.2-4.2C431.4,1221.1,440.7,1228.3,439.1,1238.4z
	 M412,1190.7c-0.2-1.1-0.6-2.2-1.1-3.4c3.5,2.8,8.2,6.3,12.8,4.4c-2,6-8.8,13.5-13.1,18.4C412.8,1204.1,413.6,1196.7,412,1190.7z
	 M442.9,1228.2c-5.3-10.5-17.8-18-29.6-15.1l15.8-17.6c1.9,2.9,7.1,6.8,12.4,6.5c3.2-0.2,7.2-2,7.2-2c0.4-2.9-2.5-5.4-4-7.7
	c1.8-0.7,3.6-1.6,5-2.8c0.6-0.5-0.5-1.1-0.8-1.6c0.9-0.7,1.7-1.4,2.5-2.1C448.9,1201.6,445.9,1216,442.9,1228.2z M452.3,1180.8
	c-1.4-1-2.9-1.7-4.6-2.1c2.9-4,3.3-6.3-2.6-5.5c2.4-12.8-6.2-17.4-15.3-7.9c-2.8-5.4-4.2-3.5-6,1.1c-2.1-1.7-4.3-2.9-7-3.2
	c-0.9,2.4-1.1,4.8-1.2,7.3l-1.7-0.1c-0.4,2.1,0.2,3.9,0.8,5.7c-3.1-0.5-10.2-2.3-8.4,3.2c-4.1-5.1-10.7-9-17-9.3
	c3.6-9.9,2.8-21.9-3.8-30.4c3.7-0.8,7.5-1.4,11.7-1.7c8.9,11.7,24.6,16.8,38.7,14.5c7.5-1,15.8-3.9,21.2-8.7
	C455.8,1156.6,454.2,1169.1,452.3,1180.8z M406.8,1137.5c1.9,0,3.7,0,5.6,0.1c1.3,3,3.1,5.3,5.3,6.8
	C413.7,1143,410,1140.7,406.8,1137.5z M457.7,1136.8c-6.5,4.3-8.1,6.3-12.5,7.6c-5,1.8-10.4,2.6-15.7,2.4
	c6.2-1.3,12.5-6.4,16.3-15.2l1.9-4.5c-5.5,2.4-11.6,3.8-17,0.3c-5.6-3.3-15.1-0.6-17.7,5.3c-2.5-0.3-8.5-1.2-10.9-1
	c-17.3-25.2,13.7-47.6,24.9-32.4c4.5,6.4,3,13-4.9,15.3c-1-0.4-1.4-1.2-1.3-1.5c0.6-2.9,0.2-5.4-1.2-7.1c-4.2-5.2-12.8,0.1-11.4,6.2
	c2.3,13.7,24.4,8.3,27-2.6c2.1-8.9-4.2-19.6-13.4-21.7c8.9-8.4,20.2-17.4,32.8-17.5c2.4,0,4.3,1.8,4.5,4.2c0.1,2.8,0.2,5.7,0.3,8.7
	c-5.7-6.5-15.7-1.2-18.9,5.2c-5.2,11.5,7.6,22.5,18.8,21.8C459,1119.2,458.5,1128,457.7,1136.8z M459.5,1098.1c0,1.2,0,2.4,0,3.6
	c-6.8,0.8-16.9-5.6-12.2-13.1c0.8,0,1.3,0.4,1.4,0.7c1.7,5.4,7.1,7.8,10.9,3.9C459.5,1094.9,459.5,1096.5,459.5,1098.1z
	 M313.5,869.4l2.4-18L313.5,869.4z M307.9,911.2l2.4-18L307.9,911.2z M304.3,931.8l-2.4,18L304.3,931.8z M397.7,869.4l-2.4-18
	L397.7,869.4z M401.1,893.2l2.4,18L401.1,893.2z M406.7,931.7l2.4,18L406.7,931.7z M303.7,1297v18.2V1297z M405.6,1297v18.2V1297z"
	/>
<path id="PanelA_Cut" class="st1" d="M23.1,943.5c0.6,1.6,2,2.6,3.7,2.6h19.4c1.9,0.2,28.4-0.6,29.3,0.6c1.3,0.6,0.7,2.6-0.7,2.6
	L25,949.2c0,0,47,104.4,67.9,128c28.7,32.2,34.3,66.9,37,66.9c2.6,0,12.4-37.6,39.1-67.9c17.4-22,64.8-113.7,66.1-127l-46,0.1
	c-1.4,0-1.9-2-0.6-2.6c12.6-1.5,36.4-0.1,49.1-0.6c48-54.5,19.6-276.2-3.6-315.2c-1.2-2.5-3.6-4-6.2-4h-40c-1.8,0-2.8-0.9-3.4-2.1
	c-0.7-1.7,19.7-1,19.8-2.7c-0.7-10.3,3.7-37.8-12.4-37.5H73.3c-17.3-0.1-11.6,26.5-12.7,38.3c0,0.8,19.8,1.6,19.4,2.2
	c-0.7,1.1-1.9,1.9-3.3,1.9H36.6c-3.1,0-6,1.9-7.2,5C2.9,688.8-17.8,880.7,23.1,943.5z M37.1,901.8c-0.4-1.5-0.9-3.1-1.3-4.8
	c1,1.3,1.9,2.5,3.2,3.5C38.2,901,37.6,901.4,37.1,901.8z M39.8,910.4c-0.1-0.2-0.1-0.4-0.2-0.6c0.1,0.1,0.3,0.1,0.4,0.2
	C39.9,910.1,39.9,910.2,39.8,910.4z M42.9,916.6c-0.2,0.3-0.3,0.6-0.4,0.9c-0.7-1.7-1.4-3.5-2.1-5.5c1.5,0.6,3.1,0.7,4.6,0.7
	C44.3,914.1,43.6,915.3,42.9,916.6z M55.9,878.6c-1.9-0.3-2.5,2.6-2.9,4.1c-11.5-6.8-18.8-0.4-13,11.8c-1.7,0.1-3.4,0.5-4.4,1.9
	c-2.9-11.3-5.6-25.8-7.2-44.6c-0.2-2.3,1.8-4.2,4.1-4.1c6.8,0.5,13.7-1.9,19.3-5.8c-3.6,13,0.3,28.7,12,36c-1.8,1-3.3,2.4-4.6,4.2
	C58.2,880.8,57.3,879.5,55.9,878.6z M97.3,792.6c-0.5-4.9-1.9-9.3-4.1-13.6c0,0,0,0,0,0c4.7-0.2,9.2-0.9,13.8-1.9
	c10.7,7.1,13.3,8.6,32.8,9.7c-4.4,5.7-7.2,12.5-8.3,19.4c-2.7-4.2-7.2-8.5-14.4-10.1c5.2,8.5-0.4,13.1,1,20.9
	c-7.8-4-17.4-6.1-26.4-5.2C95.9,806.2,97.9,799.4,97.3,792.6z M144.3,702.4c8.3,11.2,1.8,13,0.6,22.1l-9.1-10.1
	C140.6,713.4,145.1,708,144.3,702.4z M164.8,728.2c-2.1,5.9,5.5,12.5,10.7,8.2c1.9-1.6,2.8-4.3,2.5-7.6c0-0.4,0.4-1.2,1.6-1.6
	c5.9,3.5,1.2,11-2.9,13.7c-14.2,9.6-35.1-10.8-16.6-28c15.2,8.3,33.2,5.4,46.6-4.9c29.5,25.9-0.6,54.8-30.3,55.3
	c-10.7,1-21.4,3.5-32.1,1.3c-8.1-2.8-15.6,10.8-7.5,15.1c-7.6-0.5-15.8-1.6-22.5-4.7c15.8-5.5,32.1-16.8,34.9-34.6
	c11.4,16.1,38.2,11.8,38.8-9C187.4,719.9,167.3,716.5,164.8,728.2z M170.4,705.6c9-4.4,20.1-5.5,28.5-1.8c0.8,0.4,1.2,1.5,0.6,2.2
	c-0.1,0.1-0.1,0.1-0.2,0.2c-10.1,5.9-20.3,5.1-28.7,2.4C169.2,708.1,169.1,706.2,170.4,705.6z M196.9,824.7c-1.6-0.4-4.3-2-5.5-0.5
	c-0.6,4,2.2,9,6.1,10.7c-8.5,16.1-32.4,17.8-45.4,6.5c-10.7-9.5-14.4-26-10.3-39.5l0,0c0.5-1.6,1.2-3.6,2.3-4.9l-0.2-0.2
	c2.2-4.5,5.5-8.7,9.8-11.3c9.4-5.5,23.1,1.6,24.9,12c1.2,6.6-5.6,18.8-13.2,13.4c-0.1-1.3,0.6-2,1-2.1c5.6-1.2,9.2-6.1,6-10.8
	c-2.4-3.5-7.8-4.4-11.2-1.9c-15.7,11.5,12.5,37.5,23.7,8.7c2.7-0.1,5.2-1.3,7.8-2c0.1,2.3,0.4,4.8,1.2,7c0.3,0.9,1.5-0.2,2.2-0.2
	c0.9,2.7,1.4,5.3,3.1,7.7c-0.6,1.3-0.5,2.6-0.8,4c-0.4-0.1-0.7-0.2-1.1-0.2C196.5,822.3,196.7,823.6,196.9,824.7z M181,859
	c-0.4-1,0.2-2.1,1.2-2.3c0.8-0.2,1.7-0.4,2.5-0.7c1.1-0.3,2.2,0.5,2.1,1.6c-0.1,7.5,4,14.7,10.1,19c-5.2,0-12.4,3.4-13.1,9
	c-1-0.9-3-3.9-4.8-5.8c2.5-3.8,3.9-8.3,3.7-12.8C182.7,864.1,182,861.5,181,859z M149,876.3c5,5.5,14.4-1,12.2-7.7
	c-2-9.2-14-9.4-20.4-4.7c0.4-6.9,0.4-15.1-1.5-22c-0.1-0.4,0.4-0.7,0.7-0.3c5,6.9,10.1,10.1,20,14v0c2.5,0.8,5.8,1.5,8.8,1.9
	c1.2,0.1,2.3,0.8,2.9,1.9c0.7,1.2,1.3,2.5,1.7,3.6c4.7,11.5-8.3,23.4-19.6,21.1c-6.6-1.1-16.3-11.5-8.2-16.8
	c1.3,0.4,1.7,1.2,1.6,1.7C146.8,872,147.4,874.6,149,876.3z M145.8,773.1c0.1-0.8-0.2-1.5,0.9-1.9c3.1,3.3,0.7,7.4-3.6,8
	C145,777.9,146.2,775.5,145.8,773.1z M189.9,785.6c-1.4,0.8-3.9,3.1-5.6,5.8c-4.4-11.2-18-18.3-29.8-15.1c0.2-1.4-0.1-2.9-0.6-4.4
	c8.1-1.1,16.4-2.3,24.5-2.7l16.6,14.2C195,783.4,191.9,784.5,189.9,785.6z M120.9,749.3c4.1,3,8.9,5.1,13.7,3.3
	c-7.3,8.5-17.1,13.7-27.8,17c-10.7-11-4.8-38.1,13.5-34.9C115.1,738.1,115.7,746.1,120.9,749.3z M140.4,742
	c-0.8-10-11.2-14.8-20.1-15.5c4.7-0.4,11.1-4.1,11.3-9.2c2.1,2.5,10.3,10.2,13.2,12.6c0.8,6.1-2.3,9-4.4,14
	C140.5,743.3,140.5,742.6,140.4,742z M129.6,738.3c-0.1-0.4-0.2-0.8-0.4-1.2c5.7,2.7,6.4,12.4-1.9,9.8c-0.6-0.9-0.4-1.6-0.2-1.8
	C129.1,743,130,740.6,129.6,738.3z M141,701.4c-1.1,0.3-2.2,0.7-3.2,1c0-1.4-0.2-3-0.7-4.4c-0.2-0.6-0.9,0.1-1.4,0.1
	c-0.6-1.8-1.2-3.6-2.4-5.2c-1.9,0.8-3.4,2-4.6,3.7c-2.1-3.1-3.6-4.1-4.7,0.4c-8.4-5.2-14.2-0.1-9.8,8.9c-4.6,0.6-3.7,2.1-0.8,4.6
	c-1.8,1-3.2,2.3-4.1,4.2c1.5,1.3,3.2,2.1,4.9,2.8c-0.2,0.4-0.3,0.8-0.5,1.2c1.4,0.8,2.9,0.9,4.3,1c-1.1,2-4.4,6.6-0.1,6.8
	c-1.8,0-3.6,0.2-5.3,0.5c0.1-2.9-1.2-5.7-3.5-7.3c-3.8-4.4-9-5.3-13.2-1.5c-7.3,7.3,4.5,17.9,9.7,7.1c0.1-0.3,1-0.5,1.4-0.2
	c1.3,4.4-3.9,5.8-6,8.8c-9,2-17.7-7-19.4-15.4c-1.3-4.9-0.3-11.7,1.4-16.2c4.3-12.4,17.2-19.4,30.1-19.4
	c14.5-0.3,22.3,8.4,30.4,18.5C142.6,701.1,141.8,701.1,141,701.4z M95.1,817.1c10.8,0.6,19.2,3.9,25.3,8.9l-6,4.4
	c0,0-0.7-1.9-1.3-3.2c-0.7-1.2-3.4-3.9-5.9-4.6c-2.3-0.7-5.7-0.4-5.7-0.4c-0.2,0.1-0.2,0.2-0.3,0.4c-0.2,1-0.1,2,0.2,2.9
	c0.3,1.1,0.7,2.1,1,3.2c-0.7,0-1.5,0.1-2.3,0.2c-0.7,0.1-1.4,0.3-2.1,0.5c-0.2,0.1-0.3,0.2-0.2,0.5c0.1,0.3,0.2,0.6,0.3,0.9
	c-1.8,0.6-3.6,1.3-5.1,2.4c0.8,1.9,2.1,3.3,3.8,4.5c-0.2,0.2-0.4,0.3-0.6,0.4c-0.8,0.6-1.5,1.2-2.1,2.1c-0.1,0.2-0.1,0.3,0,0.5
	c0.5,0.6,1.1,1,1.8,1.3c0.4,0.1,0.8,0.2,1.3,0.3c-0.2,0.3-0.3,0.7-0.5,1c-0.6,1.1-1.1,2.3-1.3,3.6c-0.2,1.8,0.1,3.5,0.7,5.2
	c0,0.1,0.1,0.2,0.2,0.2c2.7,1.3,5.5,1.6,8.3,0.3c0.5-0.2,1-0.4,1.5-0.7c0,0.3,0.1,0.5,0.1,0.7c0.1,1,0.5,1.8,1.2,2.5
	c0.2,0.2,0.3,0.2,0.5,0c0.6-0.4,1.1-0.8,1.7-1.3c0.4-0.3,0.7-0.7,1.1-1.2c1,1.8,2.4,3.2,4.2,4.1c1.2-1.5,2-3.2,2.8-5
	c0.4,0.2,0.8,0.3,1.2,0.5c0.8-1.4,0.9-2.9,0.9-4.3c1,0.5,1.9,1.1,2.9,1.6c0.9,0.4,1.8,0.7,2.9,0.6c0.3,0,0.5-0.1,0.6-0.5
	c0.5-1.4,0.7-2.8,0.5-4.3c-0.4-3.3-1.8-6-4.1-8.3c-1.8-1.8-2.6-2.8-5.2-2.7c0.8-0.9,2.7-2.6,4.5-4.3l1.4-1.6
	c10.3,10.8,12.3,28,7.4,46.2c-3.2-18.9-31.9-16.6-41.9-4.2c-0.2,0.2-0.5,0-0.4-0.2c1.2-3.9,1.1-8.4-1.4-11.4c-5-5-13.3-7.1-17.6-0.5
	c-5.7,8.8,8.7,17.2,11.7,4.7c3.4,1,0.9,6.9-1.6,8c-7.1,4.1-15.3-0.5-18.2-7.2C50,839.3,71.1,818.4,95.1,817.1z M117.4,871.1
	c-0.3-0.6-0.6-1.1-1-1.5c7.5,0.9,10.9,11.4,0.8,10.9c-0.9-0.7-0.9-1.5-0.7-1.8C118.1,876,118.4,873.3,117.4,871.1z M68,918.3h-6.5
	c-1.3,0-1.9-1.5-1-2.5c0.8-0.8,1.5-1.7,2-2.7c0.7-1.3,2.4-1.7,3.4-0.5c1,1.1,2.1,2.3,3.1,3.3C69.9,916.8,69.2,918.3,68,918.3z
	 M82.1,918.3c-1.3-0.4-4.2-2.5-5.1-3.3c-2.8-2.5-6.1-6.1-8.2-9.1c3.5-0.8,9-4.4,10.6-9.5c0.9-3.1,0.6-7.6,0.6-7.6
	c-2.6-1.5-6,0.5-8.8,1.1c0-1.9-0.3-4-0.9-5.8c-0.3-0.8-1.2,0.1-1.8,0.2c-0.5-1.6-1.1-3.2-1.8-4.7c6.3,2,13.6,0.3,18.4-4.1
	c0.2-0.2,0.6,0,0.5,0.3c-5.2,14.4-0.1,32.4,10.6,42.6C96.2,918.4,82.2,918.4,82.1,918.3z M101.6,912.2c-3-1.8-5.8-4.9-7.4-8.1
	c-5.6-11.5-5.2-28.8,7.7-33.4c1.8-0.6,3.6,1,3,2.8c-3.2,10,14.5,16.7,22.3,10.1c-5.2,10.7-15.1,17.8-22.9,26.5
	C103.8,910.5,102,912.5,101.6,912.2z M122.7,913.9l-2.6,4.3l-13,0.1c3.2-3.1,8.9-9.1,12.2-12.2c2.2-1.8,4.2-3.8,6.2-5.9
	c0.2,2.7,1.2,5,3,7c1.5,1.6,1.2,1.9,1.5,2.5c-0.6,0.6-2.2,1-5,2.1C124.1,912.2,123.2,913,122.7,913.9z M125.5,918.2l0.8-1.3
	c0.6-1.1,1.8-1.9,3.1-2c2.5-0.2,6.2,0,6.5,0.8c0.1,0.2,0.2,0.5,0.3,0.7c0.2,0.4,0.7,1.1,1.3,1.8L125.5,918.2z M221,918.1h-29.3H146
	c-0.2-0.8-0.4-1.6-0.6-2.4c0.6,0,1.3,0,2,0c0.6-0.1,1.2-0.2,1.8-0.3c0.2,0,0.3-0.2,0.2-0.4c-0.1-0.2-0.1-0.5-0.2-0.8
	c1.6-0.4,3.2-0.9,4.6-1.8c-0.6-1.7-1.6-3-3-4.1c0.2-0.1,0.4-0.2,0.5-0.3c0.7-0.5,1.4-1,1.9-1.7c0.1-0.1,0.1-0.3,0-0.4
	c-0.4-0.6-0.9-1-1.5-1.2c-0.3-0.1-0.7-0.2-1.1-0.4c0.2-0.3,0.3-0.6,0.5-0.8c0.6-0.9,1.1-1.9,1.3-3c0.3-1.5,0.1-3-0.3-4.5
	c0,0-0.1-0.1-0.1-0.2c-2.3-1.3-4.7-1.7-7.2-0.7c-0.4,0.2-0.9,0.3-1.3,0.5c0-0.2,0-0.4,0-0.6c-0.1-0.8-0.3-1.6-1-2.2
	c-0.1-0.1-0.3-0.1-0.4,0c-0.5,0.3-1,0.7-1.5,1c-0.3,0.3-0.6,0.6-1,0.9c-0.8-1.6-1.9-2.9-3.4-3.7c-1.1,1.2-1.9,2.6-2.7,4.1
	c-0.3-0.2-0.7-0.3-1-0.5c-0.8,1.1-0.9,2.4-1,3.7c-0.8-0.5-1.6-1-2.4-1.5c-0.1-0.1-0.3-0.1-0.4-0.2c4-5.1,7.2-10.9,9.1-17.3
	c6.7,14.9,27.7,15.8,38.2,4.2l2.9,4.9c-2.9,0.4-7.6,3-9.2,7c-1,2.4-1,6.1-1,6.1c2,1.4,4.9,0,7.1-0.3c-0.1,1.6-0.1,3.2,0.3,4.8
	c0.2,0.6,1,0,1.5,0c0.5,2,1,4,2.1,5.8c2.1-0.7,3.8-1.9,5.2-3.6c2,3.6,3.6,4.7,5.1,0c8.7,6.3,15.2,1.4,11.3-8.7
	c5-0.2,4.1-1.9,1.3-4.9c2-0.9,3.7-2.2,4.8-4.2c-1.5-1.5-3.2-2.5-5.1-3.5c0.2-0.4,0.4-0.8,0.7-1.2c-1.4-1-3-1.2-4.6-1.4
	c1-1.6,2.4-3.1,2.8-5c11.6,6.3,26.6,1,31.7-10.6c0.2-0.4,0.7-0.2,0.7,0.2C230.6,892.8,225.3,908.1,221,918.1z M236.4,813
	c0.4,17-0.1,31.7-1.3,44.2c-0.1,0.7-1,0.8-1.3,0.2c-4.7-9-22.1-10.6-24.7,0.5c-2.4,7.2,7.4,14.1,12.6,8c1.6-1.9,2.1-4.7,1.4-7.8
	c-0.1-0.4,0.2-1.4,1.6-1.9c10,5.7-2.8,19.4-11,18.4c-10.3,0.1-21-9.8-17.7-20.5c0.6-1.9,1.4-4,2.4-5.7c1.8-3.2,4.6-6.1,6.1-9.3
	c1.9,4.2,7.7,5.7,11.5,4.2c0.6-1.8-1-3.7-1.7-5.3c1.2-0.2,2.4-0.6,3.5-1.2c0.4-0.2-0.2-0.7-0.3-1.1c1.4-0.8,2.8-1.6,3.9-2.8
	c-0.9-1.4-2.2-2.5-3.8-3.2c2.2-2.2,2.7-3.7-1-3.8c2.9-7.7-2.2-11.6-8.8-6.6c-1.1-3.6-2.3-2.7-3.9,0c-0.8-0.9-1.3-1.8-2.3-2.3
	c2.5-1.3,4-3.1,5.6-5.5c3.6,5,5.9,6.5,7.5-0.7c4.8,3.1,10.6,4,15.9,1.7c3.2-5,2.4-11-0.4-16.2c2-0.2,3.8-0.6,5.1-2.2
	c0.8-1.3-2.9-4.2-3.9-5.2c1.6-0.9,3-2,4.2-3.3C235.8,794.6,236.2,803.7,236.4,813z M222.1,696.8c0.5-0.7,1.6-0.5,1.8,0.4
	c4.5,22.5,8.8,50.8,11,83.3c-1.7-1-3.4-1.8-5.3-2.5l0.8-1.9c-2.2-1.3-4.6-1.4-7-1.4c4-6.9,6.7-12-4.2-11
	c-7.1,0.7-17.8,7.4-17.6,15.1c-2.2-2-7.8-8.3-11.4-10.8c12.2-2.5,24.9-10.4,31.8-20.9c3-4.7,4.4-10.2,4.6-15.7c0.1-4-0.7-8-2-11.8
	c-0.8-2.3-1.6-4.5-2.8-6.6s-3-3.7-4.1-5.8c-1.2-2.4-0.2-4.5,1.3-6.4c0.7-0.9,1.6-1.8,2.3-2.8C221.5,697.6,221.8,697.2,222.1,696.8z
	 M174.2,662.8c2.3,1.3,4.2,3.5,5.5,6c-0.3,1-0.9,1.4-1.4,1.4c-3.3,0-5.9,1.1-7.4,3.1c-3.8,5.5,3.3,12.5,9.1,10
	c12.3-4.9,5-22.4-4.9-27.2c-0.5-0.3-0.4-1,0.2-1h37.7c2.3,7,4.9,16.5,7.6,28.1c-2.1,6.3-6.5,12-11.7,16.3
	c-13.4-9.4-36.3-7.4-49.9,3.1c-7.2-6-10.5-16.2-8.4-25C152.9,667.7,164.4,657.9,174.2,662.8z M47.4,672.3c3.8-22.4,33-10.5,23.9,2.3
	c-0.6-0.2-0.8-0.6-0.8-0.8c-0.6-6-4.5-8.4-8.5-6.6c-7.3,3.6-2.5,15,4.7,14.5c15.7-0.6,17.1-19.4,5-26.8h87.1c0.7,0,0.9,1,0.3,1.3
	c-12.2,5.1-20.4,19.5-17.1,32.5c-9.8-12.4-29.4-12.7-44.2-8.9c-5.6,1.3-8.5,4.7-13.3,6.4c-6.4,2.6-13.4,5-20.2,4.2
	C55.1,689.6,45.8,682.3,47.4,672.3z M74.5,720c0.2,1.1,0.6,2.2,1.1,3.4c-3.5-2.8-8.2-6.3-12.8-4.4c2-6,8.8-13.5,13.1-18.4
	C73.7,706.6,72.9,714,74.5,720z M43.6,682.5c5.3,10.5,17.8,18,29.6,15.1l-15.8,17.6c-1.9-3-7.1-6.8-12.4-6.5c-3.2,0.2-7.2,2-7.2,2
	c-0.4,2.9,2.5,5.4,4,7.7c-1.8,0.7-3.6,1.6-5,2.8c-0.6,0.5,0.5,1.1,0.8,1.6c-0.9,0.7-1.7,1.4-2.5,2.1
	C37.6,709.1,40.6,694.7,43.6,682.5z M34.2,729.8c1.4,1,2.9,1.7,4.6,2.1c-2.9,4-3.3,6.3,2.6,5.5c-2.4,12.8,6.2,17.4,15.3,7.9
	c2.8,5.4,4.2,3.5,6-1.1c2.1,1.7,4.3,2.9,7,3.2c0.9-2.4,1.1-4.8,1.2-7.3l1.7,0.1c0.4-2.1-0.2-4-0.8-5.7c3.1,0.5,10.2,2.3,8.3-3.2
	c4.1,5.1,10.7,9,17,9.3c-3.6,9.9-2.8,21.9,3.8,30.4c-3.7,0.8-7.6,1.4-11.7,1.7c-8.9-11.7-24.6-16.8-38.7-14.5
	c-7.5,1-15.8,3.9-21.2,8.7C30.7,754,32.3,741.6,34.2,729.8z M79.7,773.1c-1.9,0-3.7,0-5.6-0.1c-1.3-3-3.1-5.3-5.3-6.8
	C72.8,767.7,76.5,770,79.7,773.1z M28.8,773.9c6.5-4.3,8.1-6.3,12.5-7.6c5-1.8,10.4-2.6,15.7-2.4c-6.2,1.3-12.5,6.4-16.3,15.2
	l-1.9,4.5c5.5-2.4,11.6-3.8,17-0.3c5.6,3.3,15.1,0.6,17.7-5.3c2.4,0.3,8.5,1.2,10.9,1c17.3,25.2-13.7,47.6-24.9,32.4
	c-4.6-6.4-3-13,4.9-15.3c1,0.4,1.4,1.2,1.3,1.5c-0.6,2.9-0.2,5.4,1.2,7.1c4.2,5.2,12.8-0.1,11.4-6.2c-2.3-13.7-24.4-8.3-27,2.6
	c-2.1,9,4.3,19.6,13.4,21.7c-8.9,8.4-20.2,17.4-32.8,17.5c-2.4,0-4.3-1.8-4.5-4.2c-0.1-2.8-0.2-5.7-0.3-8.7
	c5.7,6.5,15.7,1.2,18.9-5.2c5.2-11.5-7.6-22.5-18.8-21.8C27.5,791.5,28.1,782.6,28.8,773.9z M27,812.5c0-1.2,0-2.4,0-3.6
	c6.8-0.8,16.9,5.6,12.2,13c-0.8,0-1.3-0.4-1.4-0.7c-1.7-5.4-7.1-7.8-10.9-3.9C27,815.8,27,814.2,27,812.5z M173,1041.3l-2.4,18
	L173,1041.3z M178.6,999.4l-2.4,18L178.6,999.4z M182.2,978.9l2.4-18L182.2,978.9z M88.8,1041.3l2.3,18L88.8,1041.3z M85.4,1017.5
	l-2.3-18L85.4,1017.5z M79.8,979l-2.3-18L79.8,979z M182.9,613.7v-18.2V613.7z M80.9,613.7v-18.2V613.7z"/>
<path id="FrameC_Cut" class="st2" d="M1498,541.5c20.3-5.7,72.6-30.3,112.4-104.6c42.4-79.1,35.5-171.7,6.2-208.7
	c-29.3-37.1-68.8-51.7-135.4-72.3l-22-10.5c-47.2-21.1-48.3-93.8-48.3-94.3v-0.9h-37v77.7c-0.2,1.3-0.4,2.2-1.7,2
	c-1.1-0.1-0.9-1-1-2V50.2H1334v0.9c0,0.5-1.2,73.4-48.6,94.4l-21.9,10.4c-66.6,20.5-106.1,35.2-135.4,72.3
	c-29.4,37-36.3,129.5,6.2,208.7c39.8,74.3,92.1,98.9,112.4,104.6l124.2,0v-21.5c0.1-0.9,0.4-2,1.5-2.1c1.2,0,1.3,1.4,1.3,2.1v21.6
	H1498z M1373.7,490.6v21.5c-0.2,1.3-0.4,2.2-1.7,2c-1.1-0.2-0.9-1-1-2v-21.6l-161.4-0.2v-2.3h20.3c25.1,0,27.3,0.2,5.6-16
	c-102.5-80.4-72.8-193.8-55.5-221.4c7.8-12.6,20.3-22.5,32.7-30c33.4-18.7,31.3-15.5-4.4-15.6h-19.3c-0.7,0-1.2-0.5-1.2-1.2v-0.1
	c0-0.6,0.5-1.1,1.1-1.1l182,0.2v-42.4c0.2-1.3,0.4-2.2,1.7-2c1.1,0.1,0.9,1,1,2V203l182.3-0.2c0.6,0,1,0.5,1,1v0.1
	c0,0.6-0.5,1.1-1.1,1.1h-19.4c-34.1,0.4-51.7-2.3-4.4,15.6c13.8,5.9,24.9,17.5,32.7,30c17.3,27.6,47,141-55.3,221.4
	c-14.7,11.8-32.4,16.6,5.6,16h19.2c0.6,0,1.1,0.5,1.1,1.1l0,0c0,0.7-0.5,1.2-1.2,1.2L1373.7,490.6z"/>
<path id="FrameB_Cut" class="st2" d="M948.5,541.5c20.3-5.7,72.6-30.3,112.4-104.6c42.4-79.1,35.5-171.7,6.2-208.7
	c-29.3-37.1-68.8-51.7-135.4-72.3l-22-10.5c-47.2-21.1-48.3-93.8-48.3-94.3v-0.9h-76.9v0.9c0,0.5-1.2,73.4-48.6,94.4L714,155.9
	c-66.6,20.5-106.1,35.2-135.4,72.3c-29.4,37-36.3,129.5,6.2,208.7c39.8,74.3,92.1,98.9,112.4,104.6L948.5,541.5z M821.3,202.7v-76.4
	c0.2-1.3,0.4-2.2,1.7-2c1,0.2,0.9,1,1,2v76.5l182.2,0c0.6,0,1,0.5,1,1v0.1c0,0.6-0.5,1.1-1.1,1.1h-19.4c-34.1,0.4-51.7-2.3-4.4,15.6
	c13.8,5.9,24.9,17.5,32.7,30c17.3,27.6,47,141-55.3,221.4c-14.7,11.8-32.4,16.6,5.6,16h19.2c0.6,0,1.1,0.5,1.1,1.1l0,0
	c0,0.7-0.5,1.2-1.2,1.2l-160.3,0v29.5c-0.2,1.3-0.4,2.2-1.7,2c-1-0.2-0.9-1-1-2v-29.6L660,490.4v-2.3h20.3c25.1,0,27.3,0.2,5.6-16
	c-102.5-80.4-72.8-193.8-55.5-221.4c7.8-12.6,20.3-22.5,32.7-30c33.5-18.7,31.3-15.5-4.4-15.6h-19.3c-0.7,0-1.2-0.5-1.2-1.2v-0.1
	c0-0.6,0.5-1.1,1.1-1.1L821.3,202.7z"/>
<path id="FrameA_Cut" class="st2" d="M514.3,228.2c-18.8-23.9-41.9-38.4-73.7-51.2c0.7-0.4,1-0.9,1.2-1.9c0.7-4.5,0.4-8.9-0.8-13.3
	c-1.4-4.9-3.1-9.8-4.6-14.6c3.3-0.2,6.9-0.3,10.4-0.8c3.2-0.5,6.3-1.6,9.4-2.5c1.1-0.3,1.4-1,0.8-2.2c-0.6-1.2-0.9-2.6-1.4-4
	c8.4-2.8,16.4-5.8,23.4-11.1c-3.6-8.6-9.4-15.2-17.1-20.5c1-0.8,1.8-1.4,2.6-2c3.6-2.7,7-5.7,9.5-9.5c0.6-0.9,0.6-1.5,0-2.3
	c-2.1-2.8-4.9-4.7-8.2-5.8c-1.8-0.6-3.7-1-5.9-1.5c0.9-1.6,1.6-3.1,2.4-4.6c2.9-5.2,5.1-10.6,6-16.6c1.1-8.2-0.6-16-3.4-23.6
	c-0.1-0.3-0.5-0.7-0.9-0.8c-12.5-6.1-25.1-7.1-38-1.2c-2.2,1-4.4,2-6.8,3c-0.2-1.3-0.3-2.3-0.4-3.3c-0.6-4.4-2.2-8.2-5.6-11.2
	c-0.8-0.8-1.6-1-2.5-0.2c-2.5,2-5.1,3.9-7.5,6c-1.7,1.5-3.1,3.4-4.9,5.3c-4.7-8.1-10.8-14.5-19.2-18.5c-5.6,6.8-9.3,14.4-12.6,22.6
	c-1.8-0.8-3.6-1.5-5.4-2.3c-3.8,6.3-4,13.1-4,19.7c-4.4-2.4-8.7-5-13.1-7.2c-4-2-8.4-3-13-2.8c-1.5,0.1-2.3,0.6-2.9,2.1
	c-2.2,6.3-3,12.9-2.3,19.5c1.6,14.8,8.2,27.3,18.8,37.7c8.4,8.2,11.9,12.6,23.7,12.2c-3.5,4.2-12.2,11.8-20.4,19.8
	c-38.5-25.6-39.5-88.9-39.5-89.4v-0.9h-37v111.7c-0.2,1.3-0.4,2.2-1.7,2c-1-0.1-0.9-1-1-2V50.2h-37.2v0.9c0,0.3-0.4,23.7-9.3,47.8
	c-17-9-31.7-20.8-40.1-32.3c-9.9-13.6-11.4-25.9-4.5-37.8c3.3-5.6,9-12.2,17.5-11.4c7.3,0.7,14.2,6.4,16.1,13.3
	c1.6,5.9-0.7,11.4-6.9,16.1c-4,3-4.8,8.5-1.8,12.2c3,3.7,8.6,4.3,12.6,1.2c12.1-9.2,17-21.9,13.5-34.6C225.1,12,212.2,1.5,197.7,0.1
	c-14.2-1.3-27.1,6.2-35.5,20.6c-21.9,37.5,13.9,73.8,51.2,93.5c0.5,0.3,1.1,0.5,1.6,0.7c-2.2,3.9-4.7,7.6-7.5,11.2
	c-21.7-17.4-50.7-34.5-79.8-39.7c-1.3-2.5-2.7-5-4.2-7.4c-10.7-17.1-23.8-27-24.4-27.4c-3.9-2.9-9.5-2.1-12.6,1.7s-2.6,9.2,1.3,12.1
	c0.8,0.6,9.9,7.6,18.1,19.5c-19.7,1-36.2,8.7-49.2,23.1c-14.9,16.6-18.8,35.3-10.6,51.2c6.9,13.4,21.7,22.8,37.4,24.6
	c-23.8,11.3-42.2,24.7-57.8,44.4c-29.4,37-36.3,129.5,6.2,208.7c39.8,74.3,92.1,98.9,112.4,104.6l124.3,0v-32.5
	c0.1-0.9,0.4-2,1.5-2.1c1.2,0,1.3,1.4,1.3,2.1v32.6h124.3c20.3-5.7,72.6-30.3,112.4-104.6C550.5,357.8,543.6,265.2,514.3,228.2z
	 M369.3,119.7C369.2,119.7,369.2,119.8,369.3,119.7C369.2,119.7,369.2,119.7,369.3,119.7z M369.3,141.1c4.1-3.8,7.8-7.9,11.8-11.9
	c0.2,1.6,0.2,3.2,0.5,4.8c2,10.4,2.8,21.3,29.8,34.1c-4.8-1.5-27.3-10.6-32.4-12.2l-16.5-7.9C365.4,145,367.8,142.5,369.3,141.1z
	 M62.4,151c-5-9.7-2.3-20.8,7.8-32c5.2-5.8,11.2-10.1,17.9-12.9c6-2.5,12.6-3.8,20-4c2.2-0.1,4.6,0,7.1,0.3
	c4.6,12.5,6.2,27.7,0.2,44.8c-5.1,14.8-15.1,18.8-22.6,19.5C80.7,167.9,67.6,161.1,62.4,151z M132.4,152.1
	c5.3-15.3,6.2-30.7,2.7-45.7c18.6,5.5,40.1,16.4,59.8,32.2c-3.6,2.7-7.5,5-11.8,6.9l-21.9,10.4c-13.6,4.2-25.9,8.1-37.4,12
	C127.4,163.5,130.3,158.2,132.4,152.1z M407.1,472.1c-14.7,11.8-32.4,16.6,5.6,16h19.2c0.6,0,1.1,0.5,1.1,1.1c0,0.7-0.5,1.2-1.2,1.2
	H107.3v-2.3h20.3c25.1,0,27.3,0.2,5.6-16C30.7,391.7,60.4,278.3,77.7,250.7c7.8-12.6,20.3-22.5,32.7-30
	c33.4-18.7,31.3-15.5-4.4-15.6H86.7c-0.7,0-1.2-0.5-1.2-1.2v-0.1c0-0.6,0.5-1.1,1.1-1.1h367c0.6,0,1,0.5,1,1v0.1
	c0,0.6-0.5,1.1-1.1,1.1h-19.4c-34.1,0.4-51.7-2.3-4.4,15.6c13.8,5.9,24.9,17.5,32.7,30C479.7,278.3,509.4,391.7,407.1,472.1z"/>
</svg>
