<?xml version="1.0" encoding="utf-8"?>
<!-- Generator: Adobe Illustrator 26.1.0, SVG Export Plug-In . SVG Version: 6.00 Build 0)  -->
<svg version="1.1" id="Layer_1" xmlns="http://www.w3.org/2000/svg" xmlns:xlink="http://www.w3.org/1999/xlink" x="0px" y="0px"
	 viewBox="0 0 2184.2 828" style="enable-background:new 0 0 2184.2 828;" xml:space="preserve">
<style type="text/css">
	.st0{fill:#FFFFFF;stroke:#000000;stroke-linejoin:round;stroke-miterlimit:10;}
	.st1{fill:#00B2AF;}
	.st2{fill:#F9E547;}
</style>
<rect id="BottomReinforcement" x="1698.2" y="291.5" class="st0" width="486" height="297"/>
<path id="TagBottom" class="st0" d="M1931.9,710.9c0-8.3-7.1-14.9-15.4-14.3c18.9-5.4,11.4-36.3-8.8-29.4
	c16.4-10.7,0.1-38-17.1-25.5c12.5-15-11-36.4-23.9-19.4c7.2-19.1-21.1-30.5-29.1-11.6c2.4-21.2-29.4-21.9-30.7-2.4
	c-4.2-20.4-34.2-12-30.1,6.7c-9.7-19.1-37.2-1.8-26.6,15.2c-14-15.9-37.4,9-20.7,21.9c-18.7-8.9-31.9,18.7-13.8,28
	c-20.6-3.3-23.3,27.1-4.7,30.5c-20.6,2.9-14.3,32.9,4.5,30.5c-19.6,8.4-4.3,36.6,13.3,27.7c-17,13.6,6.5,37,20.8,22.5
	c-12,17,16.9,34,26.1,15.3c-4.3,18.6,25.4,27.6,30,7.1c1.1,19.5,32.9,19.2,30.8-2c7.8,19,36.2,8,29.3-11.2
	c12.6,17.2,36.5-3.8,24.2-19.1c17,12.7,33.8-14.3,17.5-25.3c20,7.2,28.1-23.7,9.2-29.3C1925.5,728,1932.8,719.9,1931.9,710.9z
	 M1820.3,637.3c-0.4,2.1-2.1,3.8-4.2,4.2c-3.8,0.7-7.1-2.6-6.4-6.4c0.4-2.1,2.1-3.8,4.2-4.2C1817.7,630.3,1821,633.5,1820.3,637.3z"
	/>
<path id="TagMiddle" class="st1" d="M1815,616.7c-124.2,2.1-124.2,186.9,0,189C1939.2,803.6,1939.2,618.8,1815,616.7z M1820.3,637.3
	c-0.4,2.1-2.1,3.8-4.2,4.2c-3.8,0.7-7.1-2.6-6.4-6.4c0.4-2.1,2.1-3.8,4.2-4.2C1817.7,630.3,1821,633.5,1820.3,637.3z"/>
<path id="TagTop" class="st0" d="M1879.1,668.2c-5-6.7-11.7-11.8-20.1-15.1c-8.4-3.4-16.7-2.9-24.9,1.5c-3.3,1.8-6.8,4.5-10.4,8.1
	s-6.5,7.6-8.8,12c-2.2-4.3-5.2-8.3-8.8-12c-3.6-3.6-7.1-6.4-10.4-8.1c-8.2-4.4-16.5-4.9-24.9-1.5c-8.3,3.4-15,8.4-20.1,15.1
	c-4.9,7.1-7.2,13.8-6.8,20.3c0.4,6.5,2.5,12.8,6.3,19s8.6,12.2,14.4,18.2s11.7,11.8,17.6,17.5s11.1,11.5,15.6,17.1
	c4.5,5.7,8,6.6,8.7,16.9c0.5,7.4,4.8,9.4,8.3,9.4c3.4,0,7.7-2.1,8.3-9.4c0.7-10.3,4.2-11.2,8.7-16.9s9.7-11.4,15.6-17.1
	s11.8-11.6,17.6-17.5c5.8-6,10.6-12,14.4-18.2s5.9-12.5,6.3-19C1886.3,682.1,1884,675.3,1879.1,668.2z M1863.3,694.8
	c-0.3,4.4-1.7,8.6-4.3,12.8c-2.6,4.2-5.8,8.3-9.7,12.3c-3.9,4-7.9,8-11.9,11.8c-4,3.9-7.5,7.7-10.6,11.6
	c-2.7,3.4-9.2,15.6-11.9,17.5c-2.7-1.9-9.2-14.1-11.9-17.5c-3-3.8-6.6-7.7-10.6-11.6c-4-3.9-7.9-7.8-11.9-11.8
	c-3.9-4-7.2-8.1-9.7-12.3c-2.6-4.2-4-8.5-4.3-12.8c-0.3-4.4,1.3-8.9,4.6-13.7c3.4-4.5,7.9-7.9,13.6-10.2s11.2-1.9,16.8,1
	c2.3,1.2,4.6,3,7,5.5s4.8,5.2,6.3,8.1c1.5-2.9,3.9-5.6,6.3-8.1s4.8-4.3,7-5.5c5.5-3,11.1-3.3,16.8-1c5.6,2.3,10.2,5.7,13.6,10.2
	C1862,685.8,1863.5,690.4,1863.3,694.8z"/>
<path id="Pocket" class="st0" d="M2166.1,28.4v195.5c0,5.6-4.5,10.1-10.1,10.1h-25.9v18h-36v23.3c0,7-5.7,12.7-12.7,12.7h-298.9
	c-6.8,0-12.3-5.5-12.3-12.3V252h-36v-18h-25.9c-5.6,0-10.1-4.5-10.1-10.1V28.4c0-5.7,4.7-10.4,10.4-10.4h25.6V0h396v18h25.6
	C2161.4,18,2166.1,22.7,2166.1,28.4z M1734.1,18L1734.1,18v3V18z M1734.1,213L1734.1,213v6V213z M1734.1,195L1734.1,195v6V195z
	 M1734.1,177L1734.1,177v6V177z M1734.1,159L1734.1,159v6V159z M1734.1,141L1734.1,141v6V141z M1734.1,123L1734.1,123v6V123z
	 M1734.1,105L1734.1,105v6V105z M1734.1,87L1734.1,87v6V87z M1734.1,69L1734.1,69v6V69z M1734.1,51L1734.1,51v6V51z M1734.1,33
	L1734.1,33v6V33z M1734.1,231L1734.1,231v3V231z M2130.1,18L2130.1,18v3V18z M2130.1,213L2130.1,213v6V213z M2130.1,195L2130.1,195
	v6V195z M2130.1,177L2130.1,177v6V177z M2130.1,159L2130.1,159v6V159z M2130.1,141L2130.1,141v6V141z M2130.1,123L2130.1,123v6V123z
	 M2130.1,105L2130.1,105v6V105z M2130.1,87L2130.1,87v6V87z M2130.1,69L2130.1,69v6V69z M2130.1,51L2130.1,51v6V51z M2130.1,33
	L2130.1,33v6V33z M2130.1,231L2130.1,231v3V231z M1773.1,252h-3l0,0H1773.1z M2079.1,252h-6l0,0H2079.1z M2061.1,252h-6l0,0H2061.1z
	 M2043.1,252h-6l0,0H2043.1z M2025.1,252h-6l0,0H2025.1z M2007.1,252h-6l0,0H2007.1z M1989.1,252h-6l0,0H1989.1z M1971.1,252h-6l0,0
	H1971.1z M1953.1,252h-6l0,0H1953.1z M1935.1,252h-6l0,0H1935.1z M1917.1,252h-6l0,0H1917.1z M1899.1,252h-6l0,0H1899.1z
	 M1881.1,252h-6l0,0H1881.1z M1863.1,252h-6l0,0H1863.1z M1845.1,252h-6l0,0H1845.1z M1827.1,252h-6l0,0H1827.1z M1809.1,252h-6l0,0
	H1809.1z M1791.1,252h-6l0,0H1791.1z M2094.1,252h-3l0,0H2094.1z"/>
<path class="st2" d="M801.5,18h-5.3h-0.1c-0.6-10-8.9-18-19-18c-9.5,0-17.4,7-18.8,16.2C756.8,7,748.9,0,739.4,0S722,7,720.6,16.2
	C719.1,7,711.2,0,701.7,0s-17.4,7-18.8,16.2C681.4,7,673.5,0,664,0c-10.2,0-18.5,8-19,18h-0.1c-0.6-10-8.9-18-19-18
	c-9.5,0-17.4,7-18.8,16.2C605.5,7,597.6,0,588.1,0s-17.4,7-18.8,16.2C567.8,7,559.9,0,550.4,0S533,7,531.6,16.2
	C530.1,7,522.2,0,512.7,0c-10.2,0-18.5,8-19,18h-0.1C493,8,484.7,0,474.4,0c-9.7,0-17.7,7.2-19,16.6c-1.2-9.3-9.3-16.6-19-16.6
	s-17.7,7.2-19,16.6c-1.2-9.3-9.3-16.6-19-16.6s-17.7,7.2-19,16.6c-1.2-9.3-9.3-16.6-19-16.6s-17.7,7.2-19,16.6
	c-1.2-9.3-9.3-16.6-19-16.6s-17.7,7.2-19,16.6c-1.2-9.3-9.3-16.6-19-16.6s-17.7,7.2-19,16.6c-1.2-9.3-9.3-16.6-19-16.6
	c-9.7,0-17.7,7.2-19,16.6c-1.2-9.3-9.3-16.6-19-16.6s-17.7,7.2-19,16.6c-1.2-9.3-9.3-16.6-19-16.6s-17.7,7.2-19,16.6
	C150.7,7.2,142.7,0,133,0s-17.7,7.2-19,16.6C112.8,7.2,104.8,0,95,0S77.3,7.2,76,16.6C74.8,7.2,66.8,0,57.1,0s-17.7,7.2-19,16.6
	C36.9,7.2,28.9,0,19.2,0C9,0,0.6,8,0.1,18H0v810h801c14.9,0,27-11.8,27-26.4V43.9C828,29.6,816.1,18,801.5,18z M130.8,106.8
	c-0.4,2.1-2.1,3.8-4.2,4.2c-3.8,0.7-7.1-2.6-6.4-6.4c0.4-2.1,2.1-3.8,4.2-4.2C128.2,99.7,131.5,103,130.8,106.8z M130.8,39.3
	c-0.4,2.1-2.1,3.8-4.2,4.2c-3.8,0.7-7.1-2.6-6.4-6.4c0.4-2.1,2.1-3.8,4.2-4.2C128.2,32.2,131.5,35.5,130.8,39.3z M372.9,106.8
	c-0.4,2.1-2.1,3.8-4.2,4.2c-3.8,0.7-7.1-2.6-6.4-6.4c0.4-2.1,2.1-3.8,4.2-4.2C370.4,99.7,373.6,103,372.9,106.8z M372.9,39.3
	c-0.4,2.1-2.1,3.8-4.2,4.2c-3.8,0.7-7.1-2.6-6.4-6.4c0.4-2.1,2.1-3.8,4.2-4.2C370.4,32.2,373.6,35.5,372.9,39.3z M493.6,16.3v-3l0,0
	V16.3z M493.6,812.9v-6l0,0V812.9z M493.6,794.8v-6l0,0V794.8z M493.6,776.7v-6l0,0V776.7z M493.6,758.6v-6l0,0V758.6z M493.6,740.5
	v-6l0,0V740.5z M493.6,722.4v-6l0,0V722.4z M493.6,704.3v-6l0,0V704.3z M493.6,686.2v-6l0,0V686.2z M493.6,668.1v-6l0,0V668.1z
	 M493.6,650v-6l0,0V650z M493.6,631.9v-6l0,0V631.9z M493.6,613.8v-6l0,0V613.8z M493.6,595.7v-6l0,0V595.7z M493.6,577.6v-6l0,0
	V577.6z M493.6,559.5v-6l0,0V559.5z M493.6,541.4v-6l0,0V541.4z M493.6,523.3v-6l0,0V523.3z M493.6,505.1v-6l0,0V505.1z M493.6,487
	v-6l0,0V487z M493.6,468.9v-6l0,0V468.9z M493.6,450.8v-6l0,0V450.8z M493.6,432.7v-6l0,0V432.7z M493.6,414.6v-6l0,0V414.6z
	 M493.6,396.5v-6l0,0V396.5z M493.6,378.4v-6l0,0V378.4z M493.6,360.3v-6l0,0V360.3z M493.6,342.2v-6l0,0V342.2z M493.6,324.1v-6
	l0,0V324.1z M493.6,306v-6l0,0V306z M493.6,287.9v-6l0,0V287.9z M493.6,269.8v-6l0,0V269.8z M493.6,251.7v-6l0,0V251.7z
	 M493.6,233.6v-6l0,0V233.6z M493.6,215.5v-6l0,0V215.5z M493.6,197.4v-6l0,0V197.4z M493.6,179.3v-6l0,0V179.3z M493.6,161.2v-6
	l0,0V161.2z M493.6,143.1v-6l0,0V143.1z M493.6,124.9v-6l0,0V124.9z M493.6,106.8v-6l0,0V106.8z M493.6,88.7v-6l0,0V88.7z
	 M493.6,70.6v-6l0,0V70.6z M493.6,52.5v-6l0,0V52.5z M493.6,34.4v-6l0,0V34.4z M493.6,828v-3l0,0V828z M644.9,16.3v-3l0,0V16.3z
	 M644.9,812.9v-6l0,0V812.9z M644.9,794.8v-6l0,0V794.8z M644.9,776.7v-6l0,0V776.7z M644.9,758.6v-6l0,0V758.6z M644.9,740.5v-6
	l0,0V740.5z M644.9,722.4v-6l0,0V722.4z M644.9,704.3v-6l0,0V704.3z M644.9,686.2v-6l0,0V686.2z M644.9,668.1v-6l0,0V668.1z
	 M644.9,650v-6l0,0V650z M644.9,631.9v-6l0,0V631.9z M644.9,613.8v-6l0,0V613.8z M644.9,595.7v-6l0,0V595.7z M644.9,577.6v-6l0,0
	V577.6z M644.9,559.5v-6l0,0V559.5z M644.9,541.4v-6l0,0V541.4z M644.9,523.3v-6l0,0V523.3z M644.9,505.1v-6l0,0V505.1z M644.9,487
	v-6l0,0V487z M644.9,468.9v-6l0,0V468.9z M644.9,450.8v-6l0,0V450.8z M644.9,432.7v-6l0,0V432.7z M644.9,414.6v-6l0,0V414.6z
	 M644.9,396.5v-6l0,0V396.5z M644.9,378.4v-6l0,0V378.4z M644.9,360.3v-6l0,0V360.3z M644.9,342.2v-6l0,0V342.2z M644.9,324.1v-6
	l0,0V324.1z M644.9,306v-6l0,0V306z M644.9,287.9v-6l0,0V287.9z M644.9,269.8v-6l0,0V269.8z M644.9,251.7v-6l0,0V251.7z
	 M644.9,233.6v-6l0,0V233.6z M644.9,215.5v-6l0,0V215.5z M644.9,197.4v-6l0,0V197.4z M644.9,179.3v-6l0,0V179.3z M644.9,161.2v-6
	l0,0V161.2z M644.9,143.1v-6l0,0V143.1z M644.9,124.9v-6l0,0V124.9z M644.9,106.8v-6l0,0V106.8z M644.9,88.7v-6l0,0V88.7z
	 M644.9,70.6v-6l0,0V70.6z M644.9,52.5v-6l0,0V52.5z M644.9,34.4v-6l0,0V34.4z M644.9,828v-3l0,0V828z M796.2,21v-3l0,0V21z
	 M796.2,813v-6l0,0V813z M796.2,795v-6l0,0V795z M796.2,777v-6l0,0V777z M796.2,759v-6l0,0V759z M796.2,741v-6l0,0V741z M796.2,723
	v-6l0,0V723z M796.2,705v-6l0,0V705z M796.2,687v-6l0,0V687z M796.2,669v-6l0,0V669z M796.2,651v-6l0,0V651z M796.2,633v-6l0,0V633z
	 M796.2,615v-6l0,0V615z M796.2,597v-6l0,0V597z M796.2,579v-6l0,0V579z M796.2,561v-6l0,0V561z M796.2,543v-6l0,0V543z M796.2,525
	v-6l0,0V525z M796.2,507v-6l0,0V507z M796.2,489v-6l0,0V489z M796.2,471v-6l0,0V471z M796.2,453v-6l0,0V453z M796.2,435v-6l0,0V435z
	 M796.2,417v-6l0,0V417z M796.2,399v-6l0,0V399z M796.2,381v-6l0,0V381z M796.2,363v-6l0,0V363z M796.2,345v-6l0,0V345z M796.2,327
	v-6l0,0V327z M796.2,309v-6l0,0V309z M796.2,291v-6l0,0V291z M796.2,273v-6l0,0V273z M796.2,255v-6l0,0V255z M796.2,237v-6l0,0V237z
	 M796.2,219v-6l0,0V219z M796.2,201v-6l0,0V201z M796.2,183v-6l0,0V183z M796.2,165v-6l0,0V165z M796.2,147v-6l0,0V147z M796.2,129
	v-6l0,0V129z M796.2,111v-6l0,0V111z M796.2,93v-6l0,0V93z M796.2,75v-6l0,0V75z M796.2,57v-6l0,0V57z M796.2,39v-6l0,0V39z
	 M796.2,828v-3l0,0V828z M0,644.9L0,644.9h3H0z M807,644.9L807,644.9h6H807z M789,644.9L789,644.9h6H789z M771,644.9L771,644.9h6
	H771z M753,644.9L753,644.9h6H753z M735,644.9L735,644.9h6H735z M717,644.9L717,644.9h6H717z M699,644.9L699,644.9h6H699z
	 M681,644.9L681,644.9h6H681z M663,644.9L663,644.9h6H663z M645,644.9L645,644.9h6H645z M627,644.9L627,644.9h6H627z M609,644.9
	L609,644.9h6H609z M591,644.9L591,644.9h6H591z M573,644.9L573,644.9h6H573z M555,644.9L555,644.9h6H555z M537,644.9L537,644.9h6
	H537z M519,644.9L519,644.9h6H519z M501,644.9L501,644.9h6H501z M483,644.9L483,644.9h6H483z M465,644.9L465,644.9h6H465z
	 M447,644.9L447,644.9h6H447z M429,644.9L429,644.9h6H429z M411,644.9L411,644.9h6H411z M393,644.9L393,644.9h6H393z M375,644.9
	L375,644.9h6H375z M357,644.9L357,644.9h6H357z M339,644.9L339,644.9h6H339z M321,644.9L321,644.9h6H321z M303,644.9L303,644.9h6
	H303z M285,644.9L285,644.9h6H285z M267,644.9L267,644.9h6H267z M249,644.9L249,644.9h6H249z M231,644.9L231,644.9h6H231z
	 M213,644.9L213,644.9h6H213z M195,644.9L195,644.9h6H195z M177,644.9L177,644.9h6H177z M159,644.9L159,644.9h6H159z M141,644.9
	L141,644.9h6H141z M123,644.9L123,644.9h6H123z M105,644.9L105,644.9h6H105z M87,644.9L87,644.9h6H87z M69,644.9L69,644.9h6H69z
	 M51,644.9L51,644.9h6H51z M33,644.9L33,644.9h6H33z M15,644.9L15,644.9h6H15z M825,644.9L825,644.9h3H825z M0,493.6L0,493.6h3H0z
	 M807,493.6L807,493.6h6H807z M789,493.6L789,493.6h6H789z M771,493.6L771,493.6h6H771z M753,493.6L753,493.6h6H753z M735,493.6
	L735,493.6h6H735z M717,493.6L717,493.6h6H717z M699,493.6L699,493.6h6H699z M681,493.6L681,493.6h6H681z M663,493.6L663,493.6h6
	H663z M645,493.6L645,493.6h6H645z M627,493.6L627,493.6h6H627z M609,493.6L609,493.6h6H609z M591,493.6L591,493.6h6H591z
	 M573,493.6L573,493.6h6H573z M555,493.6L555,493.6h6H555z M537,493.6L537,493.6h6H537z M519,493.6L519,493.6h6H519z M501,493.6
	L501,493.6h6H501z M483,493.6L483,493.6h6H483z M465,493.6L465,493.6h6H465z M447,493.6L447,493.6h6H447z M429,493.6L429,493.6h6
	H429z M411,493.6L411,493.6h6H411z M393,493.6L393,493.6h6H393z M375,493.6L375,493.6h6H375z M357,493.6L357,493.6h6H357z
	 M339,493.6L339,493.6h6H339z M321,493.6L321,493.6h6H321z M303,493.6L303,493.6h6H303z M285,493.6L285,493.6h6H285z M267,493.6
	L267,493.6h6H267z M249,493.6L249,493.6h6H249z M231,493.6L231,493.6h6H231z M213,493.6L213,493.6h6H213z M195,493.6L195,493.6h6
	H195z M177,493.6L177,493.6h6H177z M159,493.6L159,493.6h6H159z M141,493.6L141,493.6h6H141z M123,493.6L123,493.6h6H123z
	 M105,493.6L105,493.6h6H105z M87,493.6L87,493.6h6H87z M69,493.6L69,493.6h6H69z M51,493.6L51,493.6h6H51z M33,493.6L33,493.6h6H33
	z M15,493.6L15,493.6h6H15z M825,493.6L825,493.6h3H825z M0,72L0,72h3H0z M807,72L807,72h6H807z M789,72L789,72h6H789z M771,72
	L771,72h6H771z M753,72L753,72h6H753z M735,72L735,72h6H735z M717,72L717,72h6H717z M699,72L699,72h6H699z M681,72L681,72h6H681z
	 M663,72L663,72h6H663z M645,72L645,72h6H645z M627,72L627,72h6H627z M609,72L609,72h6H609z M591,72L591,72h6H591z M573,72L573,72h6
	H573z M555,72L555,72h6H555z M537,72L537,72h6H537z M519,72L519,72h6H519z M501,72L501,72h6H501z M483,72L483,72h6H483z M465,72
	L465,72h6H465z M447,72L447,72h6H447z M429,72L429,72h6H429z M411,72L411,72h6H411z M393,72L393,72h6H393z M375,72L375,72h6H375z
	 M357,72L357,72h6H357z M339,72L339,72h6H339z M321,72L321,72h6H321z M303,72L303,72h6H303z M285,72L285,72h6H285z M267,72L267,72h6
	H267z M249,72L249,72h6H249z M231,72L231,72h6H231z M213,72L213,72h6H213z M195,72L195,72h6H195z M177,72L177,72h6H177z M159,72
	L159,72h6H159z M141,72L141,72h6H141z M123,72L123,72h6H123z M105,72L105,72h6H105z M87,72L87,72h6H87z M69,72L69,72h6H69z M51,72
	L51,72h6H51z M33,72L33,72h6H33z M15,72L15,72h6H15z M825,72L825,72h3H825z M647,495.7l-2.1-2.1l0,0L647,495.7z M817.1,664.7
	l-4.4-4.3l0,0L817.1,664.7z M804.1,651.7l-4.4-4.3l0,0L804.1,651.7z M791,638.7l-4.4-4.3l0,0L791,638.7z M777.9,625.7l-4.4-4.3l0,0
	L777.9,625.7z M764.8,612.7l-4.4-4.3l0,0L764.8,612.7z M751.7,599.7l-4.4-4.3l0,0L751.7,599.7z M738.6,586.7l-4.4-4.3l0,0
	L738.6,586.7z M725.5,573.7l-4.4-4.3l0,0L725.5,573.7z M712.5,560.7l-4.4-4.3l0,0L712.5,560.7z M699.4,547.7l-4.4-4.3l0,0
	L699.4,547.7z M686.3,534.7l-4.4-4.3l0,0L686.3,534.7z M673.2,521.7l-4.4-4.3l0,0L673.2,521.7z M660.1,508.7l-4.4-4.3l0,0
	L660.1,508.7z M828,675.5l-2.1-2.1l0,0L828,675.5z M184,828l-2.1-2.1L184,828L184,828z M173.1,817.2l-4.4-4.4L173.1,817.2
	L173.1,817.2z M160,804.1l-4.4-4.4L160,804.1L160,804.1z M146.8,791l-4.4-4.4L146.8,791L146.8,791z M133.6,777.9l-4.4-4.4
	L133.6,777.9L133.6,777.9z M120.5,764.8l-4.4-4.4L120.5,764.8L120.5,764.8z M107.3,751.7l-4.4-4.4L107.3,751.7L107.3,751.7z
	 M94.2,738.6l-4.4-4.4L94.2,738.6L94.2,738.6z M81,725.5l-4.4-4.4L81,725.5L81,725.5z M67.9,712.5l-4.4-4.4L67.9,712.5L67.9,712.5z
	 M54.7,699.4l-4.4-4.4L54.7,699.4L54.7,699.4z M41.6,686.3l-4.4-4.4L41.6,686.3L41.6,686.3z M28.4,673.2l-4.4-4.4L28.4,673.2
	L28.4,673.2z M15.3,660.1l-4.4-4.4L15.3,660.1L15.3,660.1z M2.1,647L0,644.9L2.1,647L2.1,647z M308.2,828L308.2,828l2.1-2.1
	L308.2,828z M319,817.3L319,817.3l4.3-4.3L319,817.3z M331.9,804.4L331.9,804.4l4.3-4.3L331.9,804.4z M344.9,791.6L344.9,791.6
	l4.3-4.3L344.9,791.6z M357.8,778.7L357.8,778.7l4.3-4.3L357.8,778.7z M370.8,765.9L370.8,765.9l4.3-4.3L370.8,765.9z M383.7,753
	L383.7,753l4.3-4.3L383.7,753z M396.7,740.1L396.7,740.1l4.3-4.3L396.7,740.1z M409.6,727.3L409.6,727.3l4.3-4.3L409.6,727.3z
	 M422.6,714.4L422.6,714.4l4.3-4.3L422.6,714.4z M435.5,701.5L435.5,701.5l4.3-4.3L435.5,701.5z M448.5,688.7L448.5,688.7l4.3-4.3
	L448.5,688.7z M461.4,675.8L461.4,675.8l4.3-4.3L461.4,675.8z M474.4,662.9L474.4,662.9l4.3-4.3L474.4,662.9z M487.3,650.1
	L487.3,650.1l4.3-4.3L487.3,650.1z M500.3,637.2L500.3,637.2l4.3-4.3L500.3,637.2z M513.2,624.4L513.2,624.4l4.3-4.3L513.2,624.4z
	 M526.2,611.5L526.2,611.5l4.3-4.3L526.2,611.5z M539.2,598.6L539.2,598.6l4.3-4.3L539.2,598.6z M552.1,585.8L552.1,585.8l4.3-4.3
	L552.1,585.8z M565.1,572.9L565.1,572.9l4.3-4.3L565.1,572.9z M578,560L578,560l4.3-4.3L578,560z M591,547.2L591,547.2l4.3-4.3
	L591,547.2z M603.9,534.3L603.9,534.3l4.3-4.3L603.9,534.3z M616.9,521.4L616.9,521.4l4.3-4.3L616.9,521.4z M629.8,508.6
	L629.8,508.6l4.3-4.3L629.8,508.6z M642.8,495.7L642.8,495.7l2.1-2.1L642.8,495.7z"/>
<path class="st2" d="M1647.6,18h-5.3h-0.1c-0.6-10-8.9-18-19-18c-9.5,0-17.4,7-18.8,16.2C1603,7,1595.1,0,1585.6,0
	s-17.4,7-18.8,16.2C1565.3,7,1557.4,0,1547.9,0s-17.4,7-18.8,16.2C1527.6,7,1519.7,0,1510.2,0c-10.2,0-18.5,8-19,18h-0.1
	c-0.6-10-8.9-18-19-18c-9.5,0-17.4,7-18.8,16.2c-1.6-9.2-9.5-16.2-19-16.2s-17.4,7-18.8,16.2C1414.1,7,1406.2,0,1396.7,0
	s-17.4,7-18.8,16.2C1376.5,7,1368.6,0,1359.1,0c-10.2,0-18.5,8-19,18h-0.1c-0.6-10-8.9-18-19.1-18c-9.7,0-17.7,7.2-19,16.6
	c-1.3-9.4-9.3-16.6-19-16.6s-17.7,7.2-19,16.6c-1.2-9.3-9.3-16.6-19-16.6s-17.7,7.2-19,16.6c-1.2-9.3-9.3-16.6-19-16.6
	s-17.7,7.2-19,16.6c-1.2-9.3-9.3-16.6-19-16.6s-17.7,7.2-19,16.6c-1.2-9.3-9.3-16.6-19-16.6s-17.7,7.2-19,16.6
	c-1.2-9.3-9.3-16.6-19-16.6c-9.7,0-17.7,7.2-19,16.6c-1.2-9.3-9.3-16.6-19-16.6c-9.7,0-17.7,7.2-19,16.6c-1.2-9.3-9.3-16.6-19-16.6
	c-9.7,0-17.7,7.2-19,16.6C997,7.3,988.9,0,979.2,0c-9.7,0-17.7,7.2-19,16.6C959,7.3,950.9,0,941.2,0c-9.7,0-17.7,7.2-19,16.6
	C921,7.3,912.9,0,903.3,0c-9.7,0-17.7,7.2-19,16.6C883.1,7.3,875,0,865.3,0c-10.2,0-18.5,8-19.1,18h-0.1v810h800.3
	c14.9,0,27-11.8,27-26.4V43.9C1674.1,29.6,1662.2,18,1647.6,18z M977.5,106.8c-0.4,2.1-2.1,3.8-4.2,4.2c-3.8,0.7-7.1-2.6-6.4-6.4
	c0.4-2.1,2.1-3.8,4.2-4.2C974.9,99.7,978.2,103,977.5,106.8z M977.5,39.3c-0.4,2.1-2.1,3.8-4.2,4.2c-3.8,0.7-7.1-2.6-6.4-6.4
	c0.4-2.1,2.1-3.8,4.2-4.2C974.9,32.2,978.2,35.5,977.5,39.3z M1219.4,106.8c-0.4,2.1-2.1,3.8-4.2,4.2c-3.8,0.7-7.1-2.6-6.4-6.4
	c0.4-2.1,2.1-3.8,4.2-4.2C1216.9,99.7,1220.1,103,1219.4,106.8z M1219.4,39.3c-0.4,2.1-2.1,3.8-4.2,4.2c-3.8,0.7-7.1-2.6-6.4-6.4
	c0.4-2.1,2.1-3.8,4.2-4.2C1216.9,32.2,1220.1,35.5,1219.4,39.3z M1340,16.3v-3l0,0V16.3z M1340,812.9v-6l0,0V812.9z M1340,794.8v-6
	l0,0V794.8z M1340,776.7v-6l0,0V776.7z M1340,758.6v-6l0,0V758.6z M1340,740.5v-6l0,0V740.5z M1340,722.4v-6l0,0V722.4z M1340,704.3
	v-6l0,0V704.3z M1340,686.2v-6l0,0V686.2z M1340,668.1v-6l0,0V668.1z M1340,650v-6l0,0V650z M1340,631.9v-6l0,0V631.9z M1340,613.8
	v-6l0,0V613.8z M1340,595.7v-6l0,0V595.7z M1340,577.6v-6l0,0V577.6z M1340,559.5v-6l0,0V559.5z M1340,541.4v-6l0,0V541.4z
	 M1340,523.3v-6l0,0V523.3z M1340,505.1v-6l0,0V505.1z M1340,487v-6l0,0V487z M1340,468.9v-6l0,0V468.9z M1340,450.8v-6l0,0V450.8z
	 M1340,432.7v-6l0,0V432.7z M1340,414.6v-6l0,0V414.6z M1340,396.5v-6l0,0V396.5z M1340,378.4v-6l0,0V378.4z M1340,360.3v-6l0,0
	V360.3z M1340,342.2v-6l0,0V342.2z M1340,324.1v-6l0,0V324.1z M1340,306v-6l0,0V306z M1340,287.9v-6l0,0V287.9z M1340,269.8v-6l0,0
	V269.8z M1340,251.7v-6l0,0V251.7z M1340,233.6v-6l0,0V233.6z M1340,215.5v-6l0,0V215.5z M1340,197.4v-6l0,0V197.4z M1340,179.3v-6
	l0,0V179.3z M1340,161.2v-6l0,0V161.2z M1340,143.1v-6l0,0V143.1z M1340,124.9v-6l0,0V124.9z M1340,106.8v-6l0,0V106.8z M1340,88.7
	v-6l0,0V88.7z M1340,70.6v-6l0,0V70.6z M1340,52.5v-6l0,0V52.5z M1340,34.4v-6l0,0V34.4z M1340,828v-3l0,0V828z M1491.2,16.3v-3l0,0
	V16.3z M1491.2,812.9v-6l0,0V812.9z M1491.2,794.8v-6l0,0V794.8z M1491.2,776.7v-6l0,0V776.7z M1491.2,758.6v-6l0,0V758.6z
	 M1491.2,740.5v-6l0,0V740.5z M1491.2,722.4v-6l0,0V722.4z M1491.2,704.3v-6l0,0V704.3z M1491.2,686.2v-6l0,0V686.2z M1491.2,668.1
	v-6l0,0V668.1z M1491.2,650v-6l0,0V650z M1491.2,631.9v-6l0,0V631.9z M1491.2,613.8v-6l0,0V613.8z M1491.2,595.7v-6l0,0V595.7z
	 M1491.2,577.6v-6l0,0V577.6z M1491.2,559.5v-6l0,0V559.5z M1491.2,541.4v-6l0,0V541.4z M1491.2,523.3v-6l0,0V523.3z M1491.2,505.1
	v-6l0,0V505.1z M1491.2,487v-6l0,0V487z M1491.2,468.9v-6l0,0V468.9z M1491.2,450.8v-6l0,0V450.8z M1491.2,432.7v-6l0,0V432.7z
	 M1491.2,414.6v-6l0,0V414.6z M1491.2,396.5v-6l0,0V396.5z M1491.2,378.4v-6l0,0V378.4z M1491.2,360.3v-6l0,0V360.3z M1491.2,342.2
	v-6l0,0V342.2z M1491.2,324.1v-6l0,0V324.1z M1491.2,306v-6l0,0V306z M1491.2,287.9v-6l0,0V287.9z M1491.2,269.8v-6l0,0V269.8z
	 M1491.2,251.7v-6l0,0V251.7z M1491.2,233.6v-6l0,0V233.6z M1491.2,215.5v-6l0,0V215.5z M1491.2,197.4v-6l0,0V197.4z M1491.2,179.3
	v-6l0,0V179.3z M1491.2,161.2v-6l0,0V161.2z M1491.2,143.1v-6l0,0V143.1z M1491.2,124.9v-6l0,0V124.9z M1491.2,106.8v-6l0,0V106.8z
	 M1491.2,88.7v-6l0,0V88.7z M1491.2,70.6v-6l0,0V70.6z M1491.2,52.5v-6l0,0V52.5z M1491.2,34.4v-6l0,0V34.4z M1491.2,828v-3l0,0V828
	z M1642.3,21v-3l0,0V21z M1642.3,813v-6l0,0V813z M1642.3,795v-6l0,0V795z M1642.3,777v-6l0,0V777z M1642.3,759v-6l0,0V759z
	 M1642.3,741v-6l0,0V741z M1642.3,723v-6l0,0V723z M1642.3,705v-6l0,0V705z M1642.3,687v-6l0,0V687z M1642.3,669v-6l0,0V669z
	 M1642.3,651v-6l0,0V651z M1642.3,633v-6l0,0V633z M1642.3,615v-6l0,0V615z M1642.3,597v-6l0,0V597z M1642.3,579v-6l0,0V579z
	 M1642.3,561v-6l0,0V561z M1642.3,543v-6l0,0V543z M1642.3,525v-6l0,0V525z M1642.3,507v-6l0,0V507z M1642.3,489v-6l0,0V489z
	 M1642.3,471v-6l0,0V471z M1642.3,453v-6l0,0V453z M1642.3,435v-6l0,0V435z M1642.3,417v-6l0,0V417z M1642.3,399v-6l0,0V399z
	 M1642.3,381v-6l0,0V381z M1642.3,363v-6l0,0V363z M1642.3,345v-6l0,0V345z M1642.3,327v-6l0,0V327z M1642.3,309v-6l0,0V309z
	 M1642.3,291v-6l0,0V291z M1642.3,273v-6l0,0V273z M1642.3,255v-6l0,0V255z M1642.3,237v-6l0,0V237z M1642.3,219v-6l0,0V219z
	 M1642.3,201v-6l0,0V201z M1642.3,183v-6l0,0V183z M1642.3,165v-6l0,0V165z M1642.3,147v-6l0,0V147z M1642.3,129v-6l0,0V129z
	 M1642.3,111v-6l0,0V111z M1642.3,93v-6l0,0V93z M1642.3,75v-6l0,0V75z M1642.3,57v-6l0,0V57z M1642.3,39v-6l0,0V39z M1642.3,828v-3
	l0,0V828z M846.8,644.9L846.8,644.9h3H846.8z M1653.1,644.9L1653.1,644.9h6H1653.1z M1635.1,644.9L1635.1,644.9h6H1635.1z
	 M1617.1,644.9L1617.1,644.9h6H1617.1z M1599.2,644.9L1599.2,644.9h6H1599.2z M1581.2,644.9L1581.2,644.9h6H1581.2z M1563.2,644.9
	L1563.2,644.9h6H1563.2z M1545.2,644.9L1545.2,644.9h6H1545.2z M1527.2,644.9L1527.2,644.9h6H1527.2z M1509.2,644.9L1509.2,644.9h6
	H1509.2z M1491.3,644.9L1491.3,644.9h6H1491.3z M1473.3,644.9L1473.3,644.9h6H1473.3z M1455.3,644.9L1455.3,644.9h6H1455.3z
	 M1437.3,644.9L1437.3,644.9h6H1437.3z M1419.3,644.9L1419.3,644.9h6H1419.3z M1401.3,644.9L1401.3,644.9h6H1401.3z M1383.3,644.9
	L1383.3,644.9h6H1383.3z M1365.4,644.9L1365.4,644.9h6H1365.4z M1347.4,644.9L1347.4,644.9h6H1347.4z M1329.4,644.9L1329.4,644.9h6
	H1329.4z M1311.4,644.9L1311.4,644.9h6H1311.4z M1293.4,644.9L1293.4,644.9h6H1293.4z M1275.4,644.9L1275.4,644.9h6H1275.4z
	 M1257.5,644.9L1257.5,644.9h6H1257.5z M1239.5,644.9L1239.5,644.9h6H1239.5z M1221.5,644.9L1221.5,644.9h6H1221.5z M1203.5,644.9
	L1203.5,644.9h6H1203.5z M1185.5,644.9L1185.5,644.9h6H1185.5z M1167.5,644.9L1167.5,644.9h6H1167.5z M1149.5,644.9L1149.5,644.9h6
	H1149.5z M1131.6,644.9L1131.6,644.9h6H1131.6z M1113.6,644.9L1113.6,644.9h6H1113.6z M1095.6,644.9L1095.6,644.9h6H1095.6z
	 M1077.6,644.9L1077.6,644.9h6H1077.6z M1059.6,644.9L1059.6,644.9h6H1059.6z M1041.6,644.9L1041.6,644.9h6H1041.6z M1023.6,644.9
	L1023.6,644.9h6H1023.6z M1005.7,644.9L1005.7,644.9h6H1005.7z M987.7,644.9L987.7,644.9h6H987.7z M969.7,644.9L969.7,644.9h6H969.7
	z M951.7,644.9L951.7,644.9h6H951.7z M933.7,644.9L933.7,644.9h6H933.7z M915.7,644.9L915.7,644.9h6H915.7z M897.8,644.9
	L897.8,644.9h6H897.8z M879.8,644.9L879.8,644.9h6H879.8z M861.8,644.9L861.8,644.9h6H861.8z M1671.1,644.9L1671.1,644.9h3H1671.1z
	 M846.8,493.6L846.8,493.6h3H846.8z M1653.1,493.6L1653.1,493.6h6H1653.1z M1635.1,493.6L1635.1,493.6h6H1635.1z M1617.1,493.6
	L1617.1,493.6h6H1617.1z M1599.2,493.6L1599.2,493.6h6H1599.2z M1581.2,493.6L1581.2,493.6h6H1581.2z M1563.2,493.6L1563.2,493.6h6
	H1563.2z M1545.2,493.6L1545.2,493.6h6H1545.2z M1527.2,493.6L1527.2,493.6h6H1527.2z M1509.2,493.6L1509.2,493.6h6H1509.2z
	 M1491.3,493.6L1491.3,493.6h6H1491.3z M1473.3,493.6L1473.3,493.6h6H1473.3z M1455.3,493.6L1455.3,493.6h6H1455.3z M1437.3,493.6
	L1437.3,493.6h6H1437.3z M1419.3,493.6L1419.3,493.6h6H1419.3z M1401.3,493.6L1401.3,493.6h6H1401.3z M1383.3,493.6L1383.3,493.6h6
	H1383.3z M1365.4,493.6L1365.4,493.6h6H1365.4z M1347.4,493.6L1347.4,493.6h6H1347.4z M1329.4,493.6L1329.4,493.6h6H1329.4z
	 M1311.4,493.6L1311.4,493.6h6H1311.4z M1293.4,493.6L1293.4,493.6h6H1293.4z M1275.4,493.6L1275.4,493.6h6H1275.4z M1257.5,493.6
	L1257.5,493.6h6H1257.5z M1239.5,493.6L1239.5,493.6h6H1239.5z M1221.5,493.6L1221.5,493.6h6H1221.5z M1203.5,493.6L1203.5,493.6h6
	H1203.5z M1185.5,493.6L1185.5,493.6h6H1185.5z M1167.5,493.6L1167.5,493.6h6H1167.5z M1149.5,493.6L1149.5,493.6h6H1149.5z
	 M1131.6,493.6L1131.6,493.6h6H1131.6z M1113.6,493.6L1113.6,493.6h6H1113.6z M1095.6,493.6L1095.6,493.6h6H1095.6z M1077.6,493.6
	L1077.6,493.6h6H1077.6z M1059.6,493.6L1059.6,493.6h6H1059.6z M1041.6,493.6L1041.6,493.6h6H1041.6z M1023.6,493.6L1023.6,493.6h6
	H1023.6z M1005.7,493.6L1005.7,493.6h6H1005.7z M987.7,493.6L987.7,493.6h6H987.7z M969.7,493.6L969.7,493.6h6H969.7z M951.7,493.6
	L951.7,493.6h6H951.7z M933.7,493.6L933.7,493.6h6H933.7z M915.7,493.6L915.7,493.6h6H915.7z M897.8,493.6L897.8,493.6h6H897.8z
	 M879.8,493.6L879.8,493.6h6H879.8z M861.8,493.6L861.8,493.6h6H861.8z M1671.1,493.6L1671.1,493.6h3H1671.1z M846.8,72L846.8,72h3
	H846.8z M1653.1,72L1653.1,72h6H1653.1z M1635.1,72L1635.1,72h6H1635.1z M1617.1,72L1617.1,72h6H1617.1z M1599.2,72L1599.2,72h6
	H1599.2z M1581.2,72L1581.2,72h6H1581.2z M1563.2,72L1563.2,72h6H1563.2z M1545.2,72L1545.2,72h6H1545.2z M1527.2,72L1527.2,72h6
	H1527.2z M1509.2,72L1509.2,72h6H1509.2z M1491.3,72L1491.3,72h6H1491.3z M1473.3,72L1473.3,72h6H1473.3z M1455.3,72L1455.3,72h6
	H1455.3z M1437.3,72L1437.3,72h6H1437.3z M1419.3,72L1419.3,72h6H1419.3z M1401.3,72L1401.3,72h6H1401.3z M1383.3,72L1383.3,72h6
	H1383.3z M1365.4,72L1365.4,72h6H1365.4z M1347.4,72L1347.4,72h6H1347.4z M1329.4,72L1329.4,72h6H1329.4z M1311.4,72L1311.4,72h6
	H1311.4z M1293.4,72L1293.4,72h6H1293.4z M1275.4,72L1275.4,72h6H1275.4z M1257.5,72L1257.5,72h6H1257.5z M1239.5,72L1239.5,72h6
	H1239.5z M1221.5,72L1221.5,72h6H1221.5z M1203.5,72L1203.5,72h6H1203.5z M1185.5,72L1185.5,72h6H1185.5z M1167.5,72L1167.5,72h6
	H1167.5z M1149.5,72L1149.5,72h6H1149.5z M1131.6,72L1131.6,72h6H1131.6z M1113.6,72L1113.6,72h6H1113.6z M1095.6,72L1095.6,72h6
	H1095.6z M1077.6,72L1077.6,72h6H1077.6z M1059.6,72L1059.6,72h6H1059.6z M1041.6,72L1041.6,72h6H1041.6z M1023.6,72L1023.6,72h6
	H1023.6z M1005.7,72L1005.7,72h6H1005.7z M987.7,72L987.7,72h6H987.7z M969.7,72L969.7,72h6H969.7z M951.7,72L951.7,72h6H951.7z
	 M933.7,72L933.7,72h6H933.7z M915.7,72L915.7,72h6H915.7z M897.8,72L897.8,72h6H897.8z M879.8,72L879.8,72h6H879.8z M861.8,72
	L861.8,72h6H861.8z M1671.1,72L1671.1,72h3H1671.1z M1493.3,495.7l-2.1-2.1l0,0L1493.3,495.7z M1663.2,664.7l-4.4-4.3l0,0
	L1663.2,664.7z M1650.1,651.7l-4.4-4.3l0,0L1650.1,651.7z M1637.1,638.7l-4.4-4.3l0,0L1637.1,638.7z M1624,625.7l-4.4-4.3l0,0
	L1624,625.7z M1611,612.7l-4.4-4.3l0,0L1611,612.7z M1597.9,599.7l-4.4-4.3l0,0L1597.9,599.7z M1584.8,586.7l-4.4-4.3l0,0
	L1584.8,586.7z M1571.7,573.7l-4.4-4.3l0,0L1571.7,573.7z M1558.6,560.7l-4.4-4.3l0,0L1558.6,560.7z M1545.6,547.7l-4.4-4.3l0,0
	L1545.6,547.7z M1532.5,534.7l-4.4-4.3l0,0L1532.5,534.7z M1519.4,521.7l-4.4-4.3l0,0L1519.4,521.7z M1506.3,508.7l-4.4-4.3l0,0
	L1506.3,508.7z M1674.1,675.5l-2.1-2.1l0,0L1674.1,675.5z M1030.6,828l-2.1-2.1L1030.6,828L1030.6,828z M1019.8,817.2l-4.4-4.4
	L1019.8,817.2L1019.8,817.2z M1006.6,804.1l-4.4-4.4L1006.6,804.1L1006.6,804.1z M993.5,791l-4.4-4.4L993.5,791L993.5,791z
	 M980.3,777.9l-4.4-4.4L980.3,777.9L980.3,777.9z M967.2,764.8l-4.4-4.4L967.2,764.8L967.2,764.8z M954,751.7l-4.4-4.4L954,751.7
	L954,751.7z M940.9,738.6l-4.4-4.4L940.9,738.6L940.9,738.6z M927.7,725.5l-4.4-4.4L927.7,725.5L927.7,725.5z M914.6,712.5l-4.4-4.4
	L914.6,712.5L914.6,712.5z M901.5,699.4l-4.4-4.4L901.5,699.4L901.5,699.4z M888.4,686.3l-4.4-4.4L888.4,686.3L888.4,686.3z
	 M875.2,673.2l-4.4-4.4L875.2,673.2L875.2,673.2z M862.1,660.1l-4.4-4.4L862.1,660.1L862.1,660.1z M848.9,647l-2.1-2.1L848.9,647
	L848.9,647z M1154.7,828L1154.7,828l2.1-2.1L1154.7,828z M1165.4,817.3L1165.4,817.3l4.3-4.3L1165.4,817.3z M1178.4,804.4
	L1178.4,804.4l4.3-4.3L1178.4,804.4z M1191.3,791.6L1191.3,791.6l4.3-4.3L1191.3,791.6z M1204.3,778.7L1204.3,778.7l4.3-4.3
	L1204.3,778.7z M1217.3,765.9L1217.3,765.9l4.3-4.3L1217.3,765.9z M1230.2,753L1230.2,753l4.3-4.3L1230.2,753z M1243.2,740.1
	L1243.2,740.1l4.3-4.3L1243.2,740.1z M1256.1,727.3L1256.1,727.3l4.3-4.3L1256.1,727.3z M1269,714.4L1269,714.4l4.3-4.3L1269,714.4z
	 M1281.9,701.5L1281.9,701.5l4.3-4.3L1281.9,701.5z M1294.9,688.7L1294.9,688.7l4.3-4.3L1294.9,688.7z M1307.8,675.8L1307.8,675.8
	l4.3-4.3L1307.8,675.8z M1320.8,662.9L1320.8,662.9l4.3-4.3L1320.8,662.9z M1333.7,650.1L1333.7,650.1l4.3-4.3L1333.7,650.1z
	 M1346.7,637.2L1346.7,637.2l4.3-4.3L1346.7,637.2z M1359.6,624.4L1359.6,624.4l4.3-4.3L1359.6,624.4z M1372.6,611.5L1372.6,611.5
	l4.3-4.3L1372.6,611.5z M1385.4,598.6L1385.4,598.6l4.3-4.3L1385.4,598.6z M1398.4,585.8L1398.4,585.8l4.3-4.3L1398.4,585.8z
	 M1411.3,572.9L1411.3,572.9l4.3-4.3L1411.3,572.9z M1424.3,560L1424.3,560l4.3-4.3L1424.3,560z M1437.2,547.2L1437.2,547.2l4.3-4.3
	L1437.2,547.2z M1450.2,534.3L1450.2,534.3l4.3-4.3L1450.2,534.3z M1463.1,521.4L1463.1,521.4l4.3-4.3L1463.1,521.4z M1476.1,508.6
	L1476.1,508.6l4.3-4.3L1476.1,508.6z M1489.1,495.7L1489.1,495.7l2.1-2.1L1489.1,495.7z"/>
</svg>
