<?xml version="1.0" encoding="utf-8"?>
<!-- Generator: Adobe Illustrator 26.1.0, SVG Export Plug-In . SVG Version: 6.00 Build 0)  -->
<svg version="1.1" id="Layer_1" xmlns="http://www.w3.org/2000/svg" xmlns:xlink="http://www.w3.org/1999/xlink" x="0px" y="0px"
	 viewBox="0 0 2184.2 828" style="enable-background:new 0 0 2184.2 828;" xml:space="preserve">
<style type="text/css">
	.st0{fill:#F9E547;}
	.st1{fill:#FFFFFF;stroke:#000000;stroke-linejoin:round;stroke-miterlimit:10;}
	.st2{fill:#00B2AF;}
	.st3{fill:none;stroke:#ED1C24;stroke-miterlimit:10;}
</style>
<path class="st0" d="M801.5,18h-5.3h-0.1c-0.6-10-8.9-18-19-18c-9.5,0-17.4,7-18.8,16.2C756.8,7,748.9,0,739.4,0S722,7,720.6,16.2
	C719.1,7,711.2,0,701.7,0s-17.4,7-18.8,16.2C681.4,7,673.5,0,664,0c-10.2,0-18.5,8-19,18h-0.1c-0.6-10-8.9-18-19-18
	c-9.5,0-17.4,7-18.8,16.2C605.5,7,597.6,0,588.1,0s-17.4,7-18.8,16.2C567.8,7,559.9,0,550.4,0S533,7,531.6,16.2
	C530.1,7,522.2,0,512.7,0c-10.2,0-18.5,8-19,18h-0.1C493,8,484.7,0,474.4,0c-9.7,0-17.7,7.2-19,16.6c-1.2-9.3-9.3-16.6-19-16.6
	s-17.7,7.2-19,16.6c-1.2-9.3-9.3-16.6-19-16.6s-17.7,7.2-19,16.6c-1.2-9.3-9.3-16.6-19-16.6s-17.7,7.2-19,16.6
	c-1.2-9.3-9.3-16.6-19-16.6s-17.7,7.2-19,16.6c-1.2-9.3-9.3-16.6-19-16.6s-17.7,7.2-19,16.6c-1.2-9.3-9.3-16.6-19-16.6
	c-9.7,0-17.7,7.2-19,16.6c-1.2-9.3-9.3-16.6-19-16.6s-17.7,7.2-19,16.6c-1.2-9.3-9.3-16.6-19-16.6s-17.7,7.2-19,16.6
	C150.7,7.2,142.7,0,133,0s-17.7,7.2-19,16.6C112.8,7.2,104.8,0,95,0S77.3,7.2,76,16.6C74.8,7.2,66.8,0,57.1,0s-17.7,7.2-19,16.6
	C36.9,7.2,28.9,0,19.2,0C9,0,0.6,8,0.1,18H0v810h801c14.9,0,27-11.8,27-26.4V43.9C828,29.6,816.1,18,801.5,18z M130.8,106.8
	c-0.4,2.1-2.1,3.8-4.2,4.2c-3.8,0.7-7.1-2.6-6.4-6.4c0.4-2.1,2.1-3.8,4.2-4.2C128.2,99.7,131.5,103,130.8,106.8z M130.8,39.3
	c-0.4,2.1-2.1,3.8-4.2,4.2c-3.8,0.7-7.1-2.6-6.4-6.4c0.4-2.1,2.1-3.8,4.2-4.2C128.2,32.2,131.5,35.5,130.8,39.3z M372.9,106.8
	c-0.4,2.1-2.1,3.8-4.2,4.2c-3.8,0.7-7.1-2.6-6.4-6.4c0.4-2.1,2.1-3.8,4.2-4.2C370.4,99.7,373.6,103,372.9,106.8z M372.9,39.3
	c-0.4,2.1-2.1,3.8-4.2,4.2c-3.8,0.7-7.1-2.6-6.4-6.4c0.4-2.1,2.1-3.8,4.2-4.2C370.4,32.2,373.6,35.5,372.9,39.3z"/>
<rect id="BottomReinforcement_Cut" x="1698.2" y="291.5" class="st1" width="486" height="297"/>
<path id="TagBottom_Cut" class="st1" d="M1931.9,710.9c0-8.3-7.1-14.9-15.4-14.3c18.9-5.4,11.4-36.3-8.8-29.4
	c16.4-10.7,0.1-38-17.1-25.5c12.5-15-11-36.4-23.9-19.4c7.2-19.1-21.1-30.5-29.1-11.6c2.4-21.2-29.4-21.9-30.7-2.4
	c-4.2-20.4-34.2-12-30.1,6.7c-9.7-19.1-37.2-1.8-26.6,15.2c-14-15.9-37.4,9-20.7,21.9c-18.7-8.9-31.9,18.7-13.8,28
	c-20.6-3.3-23.3,27.1-4.7,30.5c-20.6,2.9-14.3,32.9,4.5,30.5c-19.6,8.4-4.3,36.6,13.3,27.7c-17,13.6,6.5,37,20.8,22.5
	c-12,17,16.9,34,26.1,15.3c-4.3,18.6,25.4,27.6,30,7.1c1.1,19.5,32.9,19.2,30.8-2c7.8,19,36.2,8,29.3-11.2
	c12.6,17.2,36.5-3.8,24.2-19.1c17,12.7,33.8-14.3,17.5-25.3c20,7.2,28.1-23.7,9.2-29.3C1925.5,728,1932.8,719.9,1931.9,710.9z
	 M1820.3,637.3c-0.4,2.1-2.1,3.8-4.2,4.2c-3.8,0.7-7.1-2.6-6.4-6.4c0.4-2.1,2.1-3.8,4.2-4.2C1817.7,630.3,1821,633.5,1820.3,637.3z"
	/>
<path id="TagMiddle_Cut" class="st2" d="M1815,616.7c-52.2,0-94.5,42.3-94.5,94.5s42.3,94.5,94.5,94.5s94.5-42.3,94.5-94.5
	S1867.2,616.7,1815,616.7z M1820.3,637.3c-0.4,2.1-2.1,3.8-4.2,4.2c-3.8,0.7-7.1-2.6-6.4-6.4c0.4-2.1,2.1-3.8,4.2-4.2
	C1817.7,630.3,1821,633.5,1820.3,637.3z"/>
<path id="TagTop_Cut" class="st1" d="M1879.1,668.2c-5-6.7-11.7-11.8-20.1-15.1c-8.4-3.4-16.7-2.9-24.9,1.5
	c-3.3,1.8-6.8,4.5-10.4,8.1s-6.5,7.6-8.8,12c-2.2-4.3-5.2-8.3-8.8-12c-3.6-3.6-7.1-6.4-10.4-8.1c-8.2-4.4-16.5-4.9-24.9-1.5
	c-8.3,3.4-15,8.4-20.1,15.1c-4.9,7.1-7.2,13.8-6.8,20.3c0.4,6.5,2.5,12.8,6.3,19s8.6,12.2,14.4,18.2s11.7,11.8,17.6,17.5
	s11.1,11.5,15.6,17.1c4.5,5.7,8,6.6,8.7,16.9c0.5,7.4,4.8,9.4,8.3,9.4c3.4,0,7.7-2.1,8.3-9.4c0.7-10.3,4.2-11.2,8.7-16.9
	s9.7-11.4,15.6-17.1s11.8-11.6,17.6-17.5c5.8-6,10.6-12,14.4-18.2s5.9-12.5,6.3-19C1886.3,682,1884,675.3,1879.1,668.2z
	 M1863.3,694.8c-0.3,4.4-1.7,8.6-4.3,12.8c-2.6,4.2-5.8,8.3-9.7,12.3c-3.9,4-7.9,8-11.9,11.8c-4,3.9-7.5,7.7-10.6,11.6
	c-2.7,3.4-9.2,15.6-11.9,17.5c-2.7-1.9-9.2-14.1-11.9-17.5c-3-3.8-6.6-7.7-10.6-11.6c-4-3.9-7.9-7.8-11.9-11.8
	c-3.9-4-7.2-8.1-9.7-12.3c-2.6-4.2-4-8.5-4.3-12.8c-0.3-4.4,1.3-8.9,4.6-13.7c3.4-4.5,7.9-7.9,13.6-10.2s11.2-1.9,16.8,1
	c2.3,1.2,4.6,3,7,5.5s4.8,5.2,6.3,8.1c1.5-2.9,3.9-5.6,6.3-8.1s4.8-4.3,7-5.5c5.5-3,11.1-3.3,16.8-1c5.6,2.3,10.2,5.7,13.6,10.2
	C1862,685.8,1863.5,690.4,1863.3,694.8z"/>
<path id="Pocket_Cut" class="st1" d="M2155.8,18h-25.6V0h-396v18h-25.6c-5.7,0-10.4,4.7-10.4,10.4v195.5c0,5.6,4.5,10.1,10.1,10.1
	h25.9v18h36v23.7c0,6.8,5.5,12.3,12.3,12.3h298.9c7,0,12.7-5.7,12.7-12.7V252h36v-18h25.9c5.6,0,10.1-4.5,10.1-10.1V28.4
	C2166.2,22.7,2161.5,18,2155.8,18z"/>
<path id="Pocket_Score" class="st3" d="M1734.2,18v216 M2130.2,18v216 M1770.2,252h324"/>
<path id="Front_Score" class="st3" d="M493.6,13.3V828 M644.9,13.3V828 M796.2,18v810 M0,644.9h828 M0,493.6h828 M0,72h828
	 M644.9,493.6L828,675.5 M184,828L0,644.9 M308.2,828l336.7-334.4"/>
<path class="st0" d="M1648.3,18h-5.3h-0.1c-0.6-10-8.9-18-19-18c-9.5,0-17.4,7-18.8,16.2C1603.6,7,1595.7,0,1586.2,0
	s-17.4,7-18.8,16.2C1565.9,7,1558,0,1548.5,0s-17.4,7-18.8,16.2C1528.2,7,1520.3,0,1510.8,0c-10.2,0-18.5,8-19,18h-0.1
	c-0.6-10-8.9-18-19-18c-9.5,0-17.4,7-18.8,16.2c-1.6-9.2-9.5-16.2-19-16.2s-17.4,7-18.8,16.2C1414.6,7,1406.7,0,1397.2,0
	s-17.4,7-18.8,16.2C1376.9,7,1369,0,1359.5,0c-10.2,0-18.5,8-19,18h-0.1c-0.6-10-8.9-18-19.1-18c-9.7,0-17.7,7.2-19,16.6
	C1301,7.2,1293,0,1283.3,0s-17.7,7.2-19,16.6c-1.2-9.3-9.3-16.6-19-16.6s-17.7,7.2-19,16.6c-1.2-9.3-9.3-16.6-19-16.6
	s-17.7,7.2-19,16.6c-1.2-9.3-9.3-16.6-19-16.6s-17.7,7.2-19,16.6c-1.2-9.3-9.3-16.6-19-16.6s-17.7,7.2-19,16.6
	c-1.2-9.3-9.3-16.6-19-16.6s-17.7,7.2-19,16.6c-1.2-9.3-9.3-16.6-19-16.6s-17.7,7.2-19,16.6c-1.2-9.3-9.3-16.6-19-16.6
	s-17.7,7.2-19,16.6C997.1,7.3,989,0,979.3,0c-9.7,0-17.7,7.2-19,16.6C959.1,7.3,951,0,941.3,0c-9.7,0-17.7,7.2-19,16.6
	C921.1,7.3,913,0,903.3,0c-9.7,0-17.7,7.2-19,16.6C883.1,7.3,875,0,865.3,0c-10.2,0-18.5,8-19.1,18h-0.1v810h801
	c14.9,0,27-11.8,27-26.4V43.9C1674.8,29.6,1662.9,18,1648.3,18z M977.6,106.8c-0.4,2.1-2.1,3.8-4.2,4.2c-3.8,0.7-7.1-2.6-6.4-6.4
	c0.4-2.1,2.1-3.8,4.2-4.2C975,99.7,978.3,103,977.6,106.8z M977.6,39.3c-0.4,2.1-2.1,3.8-4.2,4.2c-3.8,0.7-7.1-2.6-6.4-6.4
	c0.4-2.1,2.1-3.8,4.2-4.2C975,32.2,978.3,35.5,977.6,39.3z M1219.7,106.8c-0.4,2.1-2.1,3.8-4.2,4.2c-3.8,0.7-7.1-2.6-6.4-6.4
	c0.4-2.1,2.1-3.8,4.2-4.2C1217.2,99.7,1220.4,103,1219.7,106.8z M1219.7,39.3c-0.4,2.1-2.1,3.8-4.2,4.2c-3.8,0.7-7.1-2.6-6.4-6.4
	c0.4-2.1,2.1-3.8,4.2-4.2C1217.2,32.2,1220.4,35.5,1219.7,39.3z"/>
<path id="Front_Score_00000018199601079349804360000002230053080384441526_" class="st3" d="M1339.7,13.3V828 M1491,13.3V828
	 M1642.3,18v810 M846.1,644.9h828 M846.1,493.6h828 M846.1,72h828 M1491,493.6l183.1,181.9 M1030.1,828l-184-183.1 M1154.3,828
	L1491,493.6"/>
</svg>
