<?xml version="1.0" encoding="utf-8"?>
<!-- Generator: Adobe Illustrator 23.0.1, SVG Export Plug-In . SVG Version: 6.00 Build 0)  -->
<svg version="1.1" id="Layer_1" xmlns="http://www.w3.org/2000/svg" xmlns:xlink="http://www.w3.org/1999/xlink" x="0px" y="0px"
	 width="612px" height="792px" viewBox="0 0 612 792" style="enable-background:new 0 0 612 792;" xml:space="preserve">
<style type="text/css">
	.st0{fill:#EE2826;}
</style>
<path class="st0" d="M277.2,4c-1.7,0.8-3.5-0.8-4.9-1.5c-2.2-1.1-4.2-1.1-6.3,0.2c-3.1,1.8-7.4,6.3-7.6,10c-0.1,2.4,1.4,3.4,2.9,5
	c1.1,1.1,2.7,3.5,1.3,5c-1.3,1.4-3.7,0-5.2-0.4c-2-0.5-3.8-0.3-5.5,1c-2.7,2.1-4.9,6.4-5.5,9.8c-0.4,1.9-0.1,3.8,1.5,5.1
	c1.8,1.5,3.9,1.7,5,3.9c0.7,1.4,0.9,3.4-0.5,4.5c-1.3,1.1-3.2,0.5-4.7,0.8c-3.8,0.8-6.7,5.1-6.9,8.8c-0.2,3.3,1.4,7.4,4.4,9
	c1.9,1,8.1,0.5,8.2,3.8c0,2.2-4.2,3.1-5.7,3.6c-3.1,1.1-4.7,3.2-5.2,6.6c-0.6,4,0.8,7.6,3.7,10.3c1.4,1.3,3.2,2.5,5.1,2.6
	c1.8,0.1,3.5-1,5.2-1.5c1.4-0.4,3.4-0.5,4.5,0.6c2,1.8-0.3,4-1.6,5.4c-2.5,2.7-4.3,7.2-4,11c0.4,4,5.1,8,9,8.5
	c3.2,0.4,6.1-1.2,8.4-3.2c3.3-2.8,4.8-6.6,6.8-10.4c1.2,1.1,2.3,2.2,3.6,3.2c0.7,0.6,3,2.6,3.8,2.6c-2.3,0-4.3-0.4-6.6,0.3
	c-2.9,0.9-4.8,3.3-6.3,5.8c-1.7,2.8-3.3,5-2.5,8.4c0.7,3.1,3.2,6.9,5.7,8.9c2.3,1.9,6.2,1.5,9,1.3s5.1-1.1,7.1-3.1
	c2.2-2.3,3.7-6.4,4.1-9.5c0.4-2.9-1.2-5.7-2.6-8.1c3,1,5.6,2.6,8.7,3.4c-1.8,1.2-3.9,3.4-4.8,5.4c-1.1,2.4-0.9,5.9-1.4,8.6
	c-0.4,2.6-0.5,4.3,2.1,5.6c1.5,0.7,2.8,0.7,4.4,1c1.5,0.3,2.5,1.2,3.9,1.7c2.5,1,5.4-1.2,7.9-1.7c1.7-0.3,4.6,0.1,4.5-2.4
	c0-1.1-0.7-2.3-0.7-3.5c-0.1-1.4,0.3-2.6,0.7-3.9c0.9-3.8-1-7-3-10c2.4-0.1,4.9,0.4,7.2,0c-1.7,2-2.1,5.6-2.1,8.1
	c0,2.9,1.6,4.7,3.2,6.9c0.7,1,1.5,2.5,2.8,2.9c1.1,0.3,2.2-0.2,3.4,0.1c0.9,0.2,2.1,1.4,3,1.2c1.3-0.3,0.7-1.9,2.3-1.7
	c1.1,0.1,1.7,1.5,2.9,0.9c1-0.5,1.4-2.2,2.1-3c0.9-1.1,2.2-1.6,3.1-2.7c1-1.2,1.1-2.9,0.9-4.3c-0.4-3-1.9-6-3.8-8.3
	c-1-1.3-1.9-1.9-3.4-2.4c-1.3-0.4-1.5-1-2.6-1.6c2.3-1,4.8-1.6,7-3c-0.2,0.1-0.4,0.3-0.5,0.5c0-0.2,1.5-0.5,1.7-0.7
	c-1.4,3.1,0.2,7.2,1.1,10.2c0.7,2.3,1.6,3.2,3.4,4.6c1.2,0.9,2.6,2.6,4,3.2c1.5,0.6,1.2-0.2,2.5-0.8c1.2-0.5,2.5,0.4,3.8,0
	c1.4-0.4,2.8-1.6,3.9-2.5c2.3-1.8,4.3-3.9,4.8-6.8c0.4-2.1,1.9-3.5,0.6-5.4c-1.7-2.7-3.7-5.6-6.4-7.4c-2.5-1.7-6.1-3.9-9.2-2.9
	c1.6-1.8,3.2-3.6,4.4-5.8c1,4.9,6.6,8.8,11.4,9.6c2.6,0.4,5.8,0,7.5-2c0.9-1.1,1.6-2.1,2.7-3c0.6-0.6,1-1,1.3-1.7
	c1.9-4.2,1.3-11.4-2.7-14.1c-2.5-1.7-5.9-2.3-8.9-2.3c-1.2,0-2.1,0-3.3,0.5c-0.8,0.3-2.2,0.4-2.8,0.8c0.8-2.6,1.2-5.6,1.5-8.4
	c1.3,2.9,4.1,4.1,6.9,5.2c1,0.4,1.8,0.8,2.8,0.6c0.5-0.1,0.7-0.6,1.3-0.5c0.5,0,1.1,0.7,1.7,0.8c5.6,1.1,10.1-6.5,10.3-11
	c0.2-4.2-2.8-10.8-7.4-11.1c-2.5-0.2-5.2-1.3-7.7-0.8c-2.9,0.6-6.4,3.2-8.1,5.4c-0.4-2.7-1.2-5.3-2-7.9c2.7,2,7.2,2.1,10.6,1.7
	c2.6-0.3,6.6-2,8.1-4.3c1.4-2.1,0.8-6.2-0.1-8.5c-0.4-1.1-1.1-1.7-1.9-2.5c-1-1-1.5-2.2-2.2-3.4c-1.3-2.3-3.6-3.6-6.3-3.5
	c-5.3,0.3-11.3,5.8-12.3,11c-1.3-1.9-3-3.5-4.6-5.1c2.6-0.1,4.7-0.1,6.9-1.7c1.7-1.3,3.1-3.1,4.4-4.8c2.7-3.7,0.3-9.5-2.6-12.5
	c-2.3-2.4-8.3-2.8-11.3-1.6c-5.1,2-7.6,8.5-6.9,13.5c-1.7-0.9-3.6-1.5-5.5-1.9c0.6-1,2-0.9,2.8-1.6s1.1-1.9,1.5-2.8
	c0.9-2.4,1.8-4.8,1.3-7.4c-0.4-2.1-1.6-3.8-3.2-5.2c-1.7-1.4-3.8-3.4-6-3.8c-3.6-0.6-10.1,1.7-11.8,5.2c-1.8,3.8-1.5,10.4,0.9,13.9
	c-1,0.1-2,0.4-3,0.6c1-4.9-0.7-13.1-5.8-15.3c-3-1.2-8.7-1.1-11.3,0.9c-0.7,0.6-1.1,1.5-1.8,2.1c-0.7,0.7-1.7,1.2-2.3,2
	c-1.7,2-1.6,5.5-0.8,7.8c0.8,2.4,2.4,4.6,4.1,6.4c0.6,0.7,2,1.9,2.1,2.8c0.1,0.9-1,2.2-2.2,2.6c-0.6-1.4-1.5-2.6-2.1-4
	c-0.5-1-0.5-2.1-1.2-3.1c-1.3-1.8-3.8-2.1-5.8-2.5c-1.8-0.3-3.8-1.5-5.6-0.8c-2.3,0.8-5,2.9-6.3,4.9c-2.6,3.9-2.4,8.9,0,12.7
	c1.9,3,4.6,3.5,7.7,4.5c0.7,0.2,6.1,2.4,6.4,1.4c-0.3,0.8-0.3,1.5-0.4,2.4c-2.3-1.9-6.2-2.3-9.1-2c-2.5,0.3-5.8-0.3-8.1,0.5
	c-3.6,1.3-4.6,7.1-4.5,10.4c0.2,3.3,0.9,6,3.3,8.4c2.5,2.4,5.9,3.4,9.3,3.2c3.1-0.2,6.5-2.3,8.3-4.8c0.7-1,0.7-2,1.9-1.6
	c1.4,0.4,2.3,3.1,2.6,4.2c-1.2,0.4-2.4,0.4-3.6,0.7c-1.5,0.5-3,1.6-4.3,2.5c-2.6,2-4.7,4.4-5.9,7.5c-1.1,2.8-1.3,6,0.4,8.6
	c1.6,2.4,4.6,2.8,6.6,4.8c3.6,3.6,11.6,5.4,15,0.5c3.7-5.3,3.4-11.1,3.4-17.2c0,0.5,4.4,0.6,4.9,0.7c-0.4,1.3-1.5,2.3-1.9,3.6
	c-0.5,1.6-0.5,3.4-0.4,5c0.1,3,1.5,6.2,2.7,8.9c0.9,2.2,3,1.7,5.1,2.6c2.9,1.3,5.9,0.7,8.9-0.3c1.4-0.5,3.1-0.9,4.2-1.9
	c1.1-0.9,1.1-2.5,2.2-3.3c1-0.7,1.6-0.1,2.1-1.5s-0.4-4-0.5-5.4c-0.4-5.9-5-9.9-10.4-11.8c0.5,0.2,2-2.7,2.6-2.9
	c1.8,3.4,4.7,6.7,8.6,7.4c1.8,0.3,3.4,0.2,5.1,1.1c0.9,0.5,1.7,1.5,2.6,1.7c2.3,0.7,3-2.2,3.9-3.8c1.6-2.5,4.6-4.2,4.3-7.5
	c-0.2-1.6-0.3-2.9-0.1-4.5c0.3-1.7,0.8-3.3,0.3-5.1c-0.8-2.9-4.1-2.9-6.6-3.4s-5.1-1.7-7.7-1.3c-3.3,0.5-5.3,1.7-8.1,3.4
	c0.4-0.3-0.9-1.8-0.8-2.2c0.3-0.7,3.8-2.1,4.5-2.7c0.9-0.8,1.5-1.9,2.2-2.8c1-1.3,2.2-2.2,3-3.6c0.8-1.3,1.5-2.8,1.4-4.4
	c-0.1-1.4-0.9-2.1-1.7-3.2c-0.6-0.9-0.9-2.2-1.6-3c-0.6-0.6-1.6-0.9-2.3-1.4c-1.3-0.8-2.3-1.6-3.8-1.9c-1-0.2-1.8,0.1-2.9,0.1
	c-2.3,0-4-1.1-6.1,0.1c-1.6,0.9-4.4,2-5.4,3.6c-1.7,2.8-1.8,7.2-1,10.3c-6.9-4-14.2,4.3-11,10.9c3.2,6.5,15.4,5.1,14.4-3.1
	c1.2,0.2,1.7,3.7,1.7,4.7c-0.1,1.7-1.4,3.7-2.5,4.9c-2.9,3.7-8.5,4.9-12.2,1.5c-3.4-3.1-5.5-9.4-5.3-14c0.2-5.2,3.7-9.5,7.4-12.8
	c7.7-6.9,19.9-10.1,28.9-3.9c8.6,5.9,14.7,13.8,16,24.3c1.2,9.7-1.5,19.8-6.9,27.9c-5.4,8-13.8,12.8-23.4,14.1
	c-8.7,1.2-19.5,0.2-27.4-3.8c-9.3-4.6-17.7-11.4-23.7-20c-6.9-9.8-10.5-22.1-8-34c2.7-13.3,11.3-25.9,21-35.1
	C284.1,10.7,280.6,7.4,277.2,4z"/>
<path class="st0" d="M143,75.8c4.4-2.8,4.9-8.5,1-12c-1.4-1.3-3.1-2.1-5-2.7c-0.4-0.1-0.7-0.2-1.1-0.3c0.1-0.1,0.1-0.1,0.1-0.2
	c0.2-0.1,0.4-0.2,0.5-0.2c1.8-0.8,3.5-1.9,4.7-3.5c3.3-4.1,1.9-9.7-2.9-11.7c-1.8-0.8-3.8-1-5.8-0.9c-0.2,0-0.4,0-0.7,0
	c0-0.1,0.1-0.2,0.1-0.2c0.2-0.1,0.3-0.3,0.5-0.4c1.6-1.4,2.8-3.1,3.6-5.1c1.5-4.2-0.7-8.6-5-9.8c-2.2-0.6-4.4-0.4-6.6,0.4
	c-0.4,0.1-0.8,0.3-1.3,0.4c0.3-0.4,0.4-0.7,0.6-1c1.1-1.9,1.8-3.9,1.8-6.1c0-4.5-3.8-7.9-8.3-7.3c-2.3,0.3-4.3,1.2-6.2,2.5
	c-0.1,0.1-0.3,0.2-0.6,0.3c0.6-2.1,0.9-4.1,0.6-6.1c-0.6-4.6-4.9-7.5-9.3-6.3c-1.4,0.4-2.7,1.1-3.7,2s-1.8,1.9-2.8,2.9
	c0-0.2,0-0.5,0-0.7C97.1,8,96.8,6.3,96,4.7c-2-4.4-7-5.9-10.9-3.3c-1.6,1.1-2.7,2.6-3.5,4.3c-0.4,0.8-0.7,1.5-1,2.4
	c-0.1-0.3-0.2-0.5-0.2-0.6c-0.6-1.8-1.5-3.4-2.9-4.8c-2.7-2.8-6.7-3.4-9.8-1.3c-1.9,1.3-3,3.3-3.4,5.5C64,8.1,64,9.3,63.8,10.7
	c-0.2-0.2-0.3-0.4-0.4-0.5c-1.1-1.4-2.5-2.7-4.1-3.5c-3.3-1.8-7-1.3-9.4,1.5c-1.8,2-2.1,4.5-1.8,7c0.1,1.1,0.4,2.2,0.7,3.3
	c-0.3-0.2-0.6-0.4-0.9-0.5c-1.8-1.1-3.8-1.8-5.9-2c-4.5-0.3-8.1,3.3-7.8,7.8c0.2,2.4,1.1,4.5,2.5,6.4c0.1,0.2,0.2,0.3,0.4,0.6
	c-0.3-0.1-0.5-0.1-0.6-0.1c-2.1-0.6-4.3-0.8-6.5-0.3c-4.5,1.1-6.9,5.6-5.2,9.9c0.8,2.2,2.4,3.8,4.2,5.2c0.2,0.1,0.4,0.3,0.7,0.6
	c-0.5,0-0.8,0-1.1,0.1c-1.9,0.1-3.6,0.6-5.3,1.5c-3.8,2-5.2,6-3.4,9.8c1.1,2.3,3.1,3.8,5.4,4.7c0.6,0.3,1.3,0.5,2.1,0.7
	c-0.3,0.2-0.5,0.3-0.8,0.3c-1.6,0.7-3.1,1.7-4.4,3c-2.8,3-3.2,7.1-0.8,10c1.6,2,3.8,2.9,6.2,3.2c1.1,0.1,2.1,0.1,3.3,0.2
	c-0.2,0.2-0.4,0.4-0.6,0.5c-1.3,1.1-2.3,2.4-3,4c-1.8,3.7-0.7,7.7,2.6,9.9c2.1,1.4,4.5,1.5,6.9,0.9c1-0.2,2-0.7,3.1-1V94
	c-0.1,0.2-0.2,0.3-0.2,0.5c-1,2.1-1.4,2.3-1.3,4.6c0.2,4.3,5.5,8.8,9.8,8.2c2.5-0.3,2.8-0.9,4.6-2.6c0.2-0.2,0.4-0.3,0.7-0.6
	c-0.3,2.5-0.7,3,0.2,5.2c1.6,4.1,7.1,6.7,11.1,4.9c2.2-1,2.9-1.5,4.1-3.6c0.2-0.4,0.5-0.8,0.8-1.4c0.1,0.4,0.1,0.6,0.2,0.8
	c0.4,1.6,1,3.1,1.9,4.4c1.5,2.2,5,3.4,8.1,2.4c2.8-0.8,4.9-1.9,5.8-4.6c0.4-1.3,0.6-2.6,1-4c0.1,0.1,0.2,0.3,0.4,0.5
	c0.8,0.9,0.9,1.4,1.7,2.2c2.8,2.5,6,2.7,9.1,1.2c2.9-1.4,4.9-4.8,4.6-8.5c-0.1-1.3-0.2-1.3-0.4-2.6c0.2,0.1,0.4,0.3,0.7,0.4
	c1.9,1.2,2.7,1.8,5.1,1.8c4.5,0.1,8.9-5.2,8.3-9.6c-0.3-2.3-0.9-2.7-2.3-4.5c-0.1-0.1-0.2-0.3-0.4-0.5c0.3,0.1,0.4,0.1,0.6,0.1
	c2.1,0.4,4.2,0.6,6.2-0.2c3-1,5.7-8,4.7-10.3c-0.9-2.3-2.9-3.8-5-5c-0.2-0.1-0.4-0.2-0.7-0.4c0.9-0.2,1.6-0.3,2.3-0.6
	c0.7-0.2,1.5-0.5,2.1-0.9c2.4-1.3,4.2-4.8,3.4-8.5c-0.7-3.2-1.9-5.2-4.9-6.1c-1.1-0.4-2.3-0.5-3.5-0.7c0.2-0.2,0.4-0.3,0.6-0.5
	c1.1-1,1.8-2.3,2.7-3.5c2.9-3.8,1.9-7.7-2-10.1c-2-1.2-3.6-2.1-5.9-1.8c-1,0.2-2,0.5-3,0.7c0-0.1,0-0.1,0-0.1
	c0.1-0.2,0.2-0.4,0.3-0.6c1.2-1.9,0.9-4.1,0.9-6.4c-0.1-4.2-3.4-6.7-7.6-6.2c-2.6,0.3-4.3,0.7-6.2,2.5c-0.2,0.2-0.4,0.3-0.5,0.5
	c0-1.1,0.1-2.2,0-3.2c-0.1-1.1-0.6-1.2-1-2.2c-1.2-3.7-4.3-5.4-8.1-4.8c-2.6,0.4-4.2,0.8-5.6,2.9c-0.6,1-1.1,2-1.7,3.1
	c-0.1-0.3-0.2-0.5-0.2-0.7c-0.6-1.8-1-2.8-2.4-4.1c-3.4-3.2-9.9-2.6-12.5,1.2c-1.5,2.2-1.4,3.9-1.1,6.5c0,0.2,0,0.4,0,0.7
	c-0.3-0.3-0.4-0.4-0.6-0.6c-1.4-1.3-2.2-2.1-4-2.7c-4.2-1.3-9.4,2-10.4,6.2c-0.6,2.6,0,3.9,1.3,6.2c0.3,0.5,0.6,0.9,0.9,1.5
	c-0.3-0.1-0.6-0.1-0.8-0.2c-1.8-0.5-3.6-0.7-5.5-0.4c-4,0.6-6.9,7.4-6.2,9.9c0.8,2.7,2.8,4.4,5.2,5.8c0.2,0.1,0.4,0.2,0.7,0.4
	c-1,0.3-2,0.6-2.9,1s-0.8,0.4-1.6,1c-4.5,3-4.2,10.2,0.2,13.2c1.9,1.3,2.9,1.2,5.3,1.1c0.3,0,0.5,0,1,0c-0.3,0.3-0.5,0.5-0.7,0.6
	c-1.4,1.3-1.7,1.3-2.3,3.1c-1.6,4.2,1.7,10.3,6.1,11.4c2.9,0.7,4,0,6.4-1.7c0.2-0.1,0.4-0.2,0.7-0.5C58.1,85.6,58,85.8,58,86
	c-0.6,2-0.9,2.7-0.4,4.7c1.3,5.2,8.5,7.8,12.9,4.7c1.7-1.2,1.8-1.8,2.7-3.7c0.1-0.2,0.2-0.4,0.3-0.7c0.1,0.3,0.2,0.4,0.2,0.6
	c0.5,1.6,0.6,2.2,1.7,3.5c3.9,4.8,10.2,2.8,12.6-0.2c1.6-2.1,2.1-3.3,1.8-5.9c-0.1-0.5-0.2-1.1-0.3-1.8c0.4,0.3,0.7,0.6,1,0.7
	c1.3,0.6,1.2,0.8,2.5,1.2c6,1.8,10.8-4.6,10.1-8.9c-0.4-2.6-1-3.2-2.9-4.9c-0.2-0.1-0.3-0.3-0.5-0.5c0.1-0.1,0.2-0.1,0.2-0.1
	c0.2,0,0.3,0,0.5,0c1.7,0,2.3-0.7,3.9-1.3c4.9-1.9,4.7-9.3,2.1-11.9c-1.7-1.7-3-2.8-5.4-2.9c-0.2,0-0.5,0-0.6,0c1-1.2,2-2.3,2.8-3.6
	c1.5-2.5,0.8-4.6-0.8-7.2c-1.5-2.6-3.5-3.9-6.7-3.8c-2.5,0.1-3.8,0.3-5.6,1.9c-0.2,0.2-0.4,0.3-0.7,0.6c0-0.3,0-0.5,0-0.7
	c0.2-2.2-0.9-4.2-2.2-6c-2.4-3.3-8.2-3.8-11.5-0.2c-1.6,1.7-2.2,3-2.1,5.3c0,0.3,0,0.5,0,0.8c-0.3-0.1-0.5-0.4-0.7-0.5
	c-1-0.7-1.7-1.3-2.8-1.9c-2.6-1.3-4.6-0.7-7,1.2c-2.5,1.9-3.7,3.5-3.1,6.8c0.4,2.6,0.7,4.4,2.8,5.9c0.2,0.2,0.5,0.3,0.8,0.5
	c-6.4,0.9-8.1,5-6.8,9.3c0.6,2.1,2,4.3,3.9,5.3c3.3,1.8,5.2,1.4,8.2-0.6c-0.8,4.2,0.2,6.2,4.1,8.3c2.8,1.5,5.9,1.3,8.3-0.9
	c2.9-2.7,3.9-4.9,2.1-8.3c3.6-1.8,6-7,4-11.2c-1.6-3.3-4.6-4.4-7.9-3.8c-2.1,0.4-3.5,1.2-4.6,3.1c-1.7,3.2-1.3,6.3,0.7,9.4
	c-1.8-0.2-4.1-1.6-5-2.9c-2.1-3.1-2.1-6.3-0.4-9.5c2.6-4.8,8.6-7.1,14.1-5.3c7.8,2.4,12.6,10.7,10.8,18.9c-1.9,8.8-9.3,15.3-18.2,16
	C70.5,86,64.6,84,59.6,79.6c-9-8.2-10.9-22.2-4.4-32.9c8-13.3,24.9-18.6,39.7-11.4c13.9,6.8,21.7,22.6,18.2,38.5
	c-1.6,7.2-4.9,13.5-10.2,18.7c-9.4,9.2-20.7,12.9-33.7,11c-8.2-1.2-15.3-4.7-21.4-10.3C39.1,85.4,34.1,75.6,33.1,64
	c-0.6-6.5,0.5-12.9,2.7-19C42,28,58.4,15.5,76.5,14c6.9-0.6,13.5,0.2,20,2.5c9.8,3.4,17.9,9.2,24.3,17.3c9.1,11.5,13,24.6,11.2,39.3
	c-0.9,7.2-3.2,13.9-6.7,20.2c-9.6,17.1-27.8,28.6-47.8,29.3c-7.9,0.3-15.6-0.9-23-3.8C43.8,114.6,35,108,28,99.2
	C19.8,88.9,15.2,77.1,14.4,64c-0.6-9.4,0.9-18.4,4.3-27.2c0.6-1.4,1.2-2.9,1.8-4.3l0,0c3.6-8.7,8.9-16.2,15.8-22.5
	c1.3-1.2,2.6-2.3,3.9-3.5l-2-2.1c-2.1-2.1-4.5-3.6-7.5-4.2c-4.8-0.9-9,2.3-9.1,7.1c-0.1,2.5,0.9,4.7,2.3,6.8
	c0.1,0.2,0.2,0.4,0.4,0.7c-0.3-0.1-0.5-0.1-0.6-0.2c-1.7-0.5-3.3-0.8-5.1-0.7c-3.1,0.2-5.6,1.3-6.9,4.2c-1.2,2.6-0.8,5.1,0.5,7.4
	c0.8,1.3,2.6,3.5,3.8,4.9c-2.2-0.5-4.4-0.5-6.6,0.1c-4.7,1.3-7.1,6-5.1,10.3c1,2.3,2.8,3.9,5,5.1c0.2,0.1,0.4,0.2,0.7,0.4
	c-0.3,0.1-0.5,0.1-0.6,0.1C7.7,46.7,6,47.1,4.5,48c-2.7,1.5-4.4,3.6-4.4,6.8c0,2.8,1.5,4.9,3.7,6.4c1.4,1,3.1,1.6,4.6,2.4
	c-0.1,0-0.3,0.1-0.5,0.2c-1.9,0.8-3.6,1.8-5,3.4c-2.7,3.1-2.8,7.2,0,10c1.6,1.6,3.6,2.5,5.8,2.8c0.9,0.2,1.7,0.2,2.8,0.3
	c-0.3,0.3-0.5,0.4-0.7,0.6c-1.6,1.2-2.9,2.7-3.9,4.5c-1.8,3.6-0.7,7.8,2.8,9.8c2.1,1.2,4.3,1.3,6.6,1.1c0.7-0.1,1.5-0.2,2.3-0.4
	c-0.2,0.3-0.4,0.5-0.5,0.7c-1.5,1.9-2.6,4-2.9,6.5c-0.4,3.3,1.6,6.6,4.8,7.7c2.8,0.9,5.5,0.3,8.1-0.9c0.3-0.2,0.7-0.3,1-0.5
	c0,0.1,0,0.1,0,0.2c-0.1,0.2-0.2,0.5-0.3,0.7c-0.9,2.1-1.3,4.2-1.1,6.4c0.3,4.1,4.3,7.2,8.3,6.5c2.4-0.4,4.5-1.5,6.3-3.1
	c0.2-0.2,0.4-0.3,0.7-0.6c0,0.4,0,0.6-0.1,0.8c-0.3,1.8-0.3,3.7,0,5.5c1,5.1,6,7.5,10.6,5.2c2-1,3.5-2.5,4.8-4.3
	c0.1-0.2,0.3-0.4,0.5-0.7c0.3,3.2,0.7,4.6,1.7,6.4c2.1,3.7,6.4,5.1,9.9,3.1c1.8-1,3.1-2.5,4-4.3c0.5-0.9,0.9-1.9,1.3-3
	c0.1,0.2,0.1,0.4,0.2,0.5c0.6,1.8,1.4,3.4,2.7,4.8c3.2,3.6,8.3,3.7,11.3,0.1c0.9-1.1,1.5-2.4,1.9-3.7c0.4-1.2,0.5-2.6,0.8-4
	c0.1,0.2,0.3,0.4,0.4,0.5c1,1.1,2,2.3,3.1,3.2c4,3.1,8.3,2,10.8-1c1.7-2.1,2-4.6,1.7-7.2c-0.1-0.8-0.3-1.6-0.4-2.6
	c0.3,0.2,0.4,0.4,0.6,0.5c1.6,1.3,3.4,2.3,5.5,2.7c4,0.9,7.9-1.5,8.9-5.4c0.5-1.9,0.2-3.7-0.4-5.5c-0.4-1-0.8-2-1.3-3c0,0,0,0,0.1,0
	c0.2,0.1,0.4,0.1,0.5,0.2c2.1,0.9,4.2,1.3,6.5,1c4.2-0.5,7.2-4.7,6.3-8.8c-0.5-2.3-1.7-4.2-3.3-6c-0.2-0.2-0.3-0.4-0.6-0.7
	c0.4,0,0.6,0.1,0.8,0.1c2.1,0.3,4.1,0.2,6.2-0.5c3.7-1.3,5.8-5.1,4.9-8.8c-0.7-2.6-2.5-4.5-4.7-6c-0.4-0.3-0.9-0.6-1.4-0.9
	c0.6-0.1,1-0.2,1.4-0.2C139.9,77.3,141.5,76.7,143,75.8z"/>
<path class="st0" d="M252.7,146.9c3.7-2.4,4.1-7.2,0.9-10.2c-1.2-1.1-2.7-1.8-4.2-2.3c-0.3-0.1-0.6-0.2-0.9-0.3
	c0.1-0.1,0.1-0.1,0.1-0.1c0.1-0.1,0.3-0.1,0.4-0.2c1.6-0.7,2.9-1.6,4-3c2.8-3.5,1.6-8.2-2.5-9.9c-1.6-0.7-3.2-0.9-4.9-0.8
	c-0.2,0-0.4,0-0.6,0c0-0.1,0-0.1,0.1-0.2s0.3-0.3,0.4-0.4c1.3-1.2,2.4-2.6,3-4.4c1.3-3.6-0.6-7.3-4.2-8.3c-1.9-0.5-3.7-0.3-5.6,0.3
	c-0.3,0.1-0.7,0.2-1.1,0.4c0.2-0.4,0.4-0.6,0.5-0.9c0.9-1.6,1.5-3.3,1.5-5.1c0-3.9-3.2-6.7-7-6.2c-1.9,0.2-3.7,1-5.2,2.1
	c-0.1,0.1-0.2,0.1-0.5,0.3c0.5-1.8,0.8-3.4,0.5-5.2c-0.5-3.9-4.1-6.4-7.9-5.4c-1.2,0.3-2.3,0.9-3.2,1.7c-0.8,0.8-1.6,1.6-2.4,2.4
	c0-0.2,0-0.4,0-0.6c-0.1-1.5-0.4-3-1-4.3c-1.8-3.7-6-5-9.4-2.8c-1.3,0.9-2.3,2.2-3,3.6c-0.3,0.6-0.6,1.3-0.9,2.1
	c-0.1-0.2-0.2-0.4-0.2-0.5c-0.5-1.5-1.3-2.9-2.4-4.1c-2.3-2.4-5.7-2.9-8.3-1.1c-1.6,1.1-2.5,2.8-2.9,4.7c-0.2,1-0.3,2.1-0.4,3.2
	c-0.1-0.2-0.3-0.3-0.4-0.4c-1-1.2-2.1-2.3-3.5-3c-2.8-1.5-5.9-1.1-8,1.2c-1.5,1.7-1.8,3.8-1.5,6c0.1,0.9,0.4,1.8,0.6,2.8
	c-0.3-0.2-0.5-0.3-0.7-0.5c-1.5-0.9-3.2-1.6-5-1.7c-3.8-0.3-6.9,2.8-6.6,6.6c0.1,2,0.9,3.8,2.1,5.4c0.1,0.1,0.2,0.3,0.3,0.5
	c-0.3-0.1-0.4-0.1-0.5-0.1c-1.8-0.5-3.6-0.7-5.5-0.2c-3.8,0.9-5.8,4.7-4.4,8.4c0.7,1.9,2,3.3,3.6,4.4c0.2,0.1,0.3,0.3,0.6,0.5
	c-0.4,0-0.7,0-0.9,0.1c-1.6,0.1-3.1,0.5-4.5,1.2c-3.2,1.7-4.4,5.1-2.9,8.3c0.9,2,2.6,3.2,4.6,4c0.5,0.2,1.1,0.4,1.8,0.6
	c-0.3,0.1-0.5,0.2-0.6,0.3c-1.4,0.6-2.6,1.4-3.7,2.5c-2.4,2.5-2.7,6-0.7,8.5c1.4,1.7,3.2,2.4,5.3,2.7c0.9,0.1,1.8,0.1,2.8,0.2
	c-0.2,0.2-0.3,0.3-0.5,0.4c-1.1,1-1.9,2.1-2.6,3.4c-1.5,3.1-0.6,6.6,2.2,8.4c1.8,1.2,3.8,1.3,5.9,0.8c0.9-0.2,1.7-0.6,2.6-0.8v0.1
	c-0.1,0.1-0.1,0.3-0.2,0.4c-0.9,1.7-1.2,1.9-1.1,3.9c0.2,3.7,4.6,7.5,8.3,7c2.1-0.3,2.4-0.8,3.9-2.2c0.2-0.1,0.3-0.3,0.6-0.5
	c-0.3,2.1-0.6,2.5,0.2,4.4c1.4,3.5,6,5.7,9.4,4.2c1.9-0.8,2.5-1.3,3.5-3c0.2-0.4,0.4-0.7,0.6-1.2c0.1,0.3,0.1,0.5,0.2,0.7
	c0.3,1.4,0.8,2.6,1.6,3.8c1.2,1.8,4.3,2.8,6.9,2c2.4-0.7,4.1-1.6,4.9-3.9c0.4-1.1,0.5-2.2,0.8-3.4c0.1,0.1,0.2,0.3,0.3,0.4
	c0.7,0.8,0.7,1.2,1.5,1.9c2.4,2.2,5.1,2.3,7.7,1c2.5-1.2,4.2-4.1,3.9-7.2c-0.1-1.1-0.1-1.1-0.3-2.2c0.2,0.1,0.4,0.2,0.6,0.4
	c1.6,1,2.3,1.5,4.3,1.6c3.8,0.1,7.5-4.4,7-8.2c-0.3-2-0.7-2.3-1.9-3.8c-0.1-0.1-0.2-0.2-0.3-0.5c0.2,0,0.4,0.1,0.5,0.1
	c1.8,0.4,3.6,0.5,5.3-0.1c2.5-0.9,4.8-6.8,4-8.8s-2.4-3.2-4.2-4.2c-0.2-0.1-0.3-0.2-0.6-0.3c0.8-0.2,1.4-0.3,2-0.5s1.3-0.4,1.8-0.7
	c2-1.1,3.5-4.1,2.9-7.2c-0.6-2.7-1.6-4.4-4.1-5.2c-1-0.3-2-0.4-3-0.6c0.2-0.1,0.4-0.2,0.5-0.4c0.9-0.9,1.6-2,2.3-3
	c2.5-3.2,1.6-6.5-1.7-8.6c-1.7-1-3.1-1.8-5-1.5c-0.9,0.1-1.7,0.4-2.5,0.6v-0.1c0.1-0.2,0.2-0.3,0.3-0.5c1-1.7,0.8-3.5,0.7-5.4
	c-0.1-3.6-2.9-5.7-6.5-5.3c-2.2,0.2-3.6,0.6-5.2,2.1c-0.2,0.1-0.3,0.3-0.4,0.4c0-0.9,0.1-1.8,0-2.7c-0.1-0.9-0.5-1-0.8-1.8
	c-1-3.1-3.6-4.6-6.9-4.1c-2.2,0.3-3.6,0.7-4.8,2.4c-0.5,0.8-0.9,1.7-1.4,2.6c-0.1-0.2-0.1-0.4-0.2-0.6c-0.5-1.6-0.8-2.4-2-3.5
	c-2.9-2.8-8.4-2.2-10.6,1.1c-1.3,1.9-1.2,3.3-0.9,5.5c0,0.2,0,0.3,0,0.6c-0.2-0.2-0.4-0.3-0.5-0.5c-1.2-1.1-1.9-1.8-3.4-2.3
	c-3.5-1.1-7.9,1.7-8.8,5.2c-0.5,2.2,0,3.3,1.1,5.2c0.2,0.4,0.5,0.8,0.8,1.3c-0.3-0.1-0.5-0.1-0.6-0.2c-1.5-0.4-3-0.6-4.6-0.4
	c-3.4,0.5-5.8,6.3-5.2,8.4c0.7,2.3,2.4,3.8,4.4,4.9c0.2,0.1,0.4,0.2,0.6,0.3c-0.9,0.3-1.7,0.5-2.5,0.8s-0.7,0.3-1.4,0.8
	c-3.8,2.7-3.5,8.8,0.2,11.3c1.7,1.1,2.5,1,4.5,1c0.2,0,0.5,0,0.8,0c-0.3,0.2-0.4,0.4-0.6,0.5c-1.2,1.1-1.4,1.1-2,2.6
	c-1.4,3.6,1.4,8.8,5.1,9.6c2.5,0.6,3.4,0,5.4-1.4c0.2-0.1,0.3-0.2,0.6-0.4c-0.1,0.3-0.1,0.5-0.2,0.7c-0.5,1.7-0.8,2.3-0.3,4
	c1.1,4.4,7.2,6.7,10.9,4c1.4-1,1.6-1.5,2.3-3.1c0.1-0.2,0.2-0.4,0.3-0.6c0.1,0.3,0.2,0.4,0.2,0.5c0.4,1.4,0.5,1.9,1.4,2.9
	c3.3,4.1,8.6,2.4,10.7-0.2c1.4-1.8,1.8-2.8,1.5-5c-0.1-0.5-0.1-0.9-0.2-1.5c0.4,0.3,0.6,0.5,0.8,0.6c1.1,0.5,1,0.6,2.2,1
	c5.1,1.5,9.2-3.9,8.6-7.6c-0.4-2.2-0.8-2.7-2.4-4.2c-0.1-0.1-0.3-0.3-0.4-0.4c0.1-0.1,0.2-0.1,0.2-0.1c0.1,0,0.3,0,0.4,0
	c1.4,0,2-0.6,3.3-1.1c4.1-1.6,4-7.9,1.7-10.1c-1.4-1.4-2.6-2.4-4.5-2.4c-0.2,0-0.4,0-0.5,0c0.8-1,1.7-2,2.4-3.1
	c1.2-2.1,0.7-3.9-0.6-6.1s-3-3.3-5.7-3.2c-2.1,0.1-3.2,0.3-4.7,1.6c-0.2,0.1-0.3,0.3-0.6,0.5c0-0.3,0-0.4,0-0.6
	c0.2-1.8-0.7-3.6-1.8-5.1c-2.1-2.8-7-3.2-9.8-0.2c-1.4,1.5-1.9,2.6-1.8,4.5c0,0.2,0,0.4,0,0.6c-0.3-0.1-0.4-0.3-0.6-0.4
	c-0.9-0.6-1.5-1.1-2.4-1.6c-2.2-1.1-3.9-0.6-5.9,1c-2.1,1.6-3.1,2.9-2.6,5.7c0.4,2.2,0.6,3.8,2.4,5c0.2,0.1,0.4,0.3,0.6,0.4
	c-5.4,0.8-6.8,4.3-5.8,7.9c0.5,1.7,1.7,3.6,3.3,4.5c2.8,1.5,4.4,1.2,7-0.5c-0.7,3.5,0.2,5.3,3.4,7c2.4,1.3,5,1.1,7-0.8
	c2.4-2.3,3.3-4.1,1.8-7c3.1-1.5,5.1-5.9,3.4-9.5c-1.3-2.8-3.9-3.8-6.7-3.2c-1.8,0.3-3,1-3.9,2.6c-1.5,2.7-1.1,5.4,0.6,7.9
	c-1.6-0.2-3.5-1.3-4.2-2.4c-1.8-2.6-1.7-5.3-0.3-8c2.2-4.1,7.3-6,12-4.5c6.7,2.1,10.7,9.1,9.2,16c-1.6,7.4-7.9,13-15.5,13.5
	c-5.6,0.4-10.6-1.2-14.8-5c-7.7-6.9-9.2-18.8-3.8-27.9c6.8-11.2,21.1-15.8,33.6-9.7c11.7,5.7,18.4,19.1,15.5,32.6
	c-1.3,6.1-4.2,11.4-8.6,15.8c-8,7.8-17.6,11-28.6,9.4c-6.9-1-13-4-18.2-8.7c-7.3-6.6-11.6-14.9-12.4-24.8
	c-0.5-5.5,0.4-10.9,2.3-16.1c5.2-14.4,19.2-25,34.5-26.3c5.8-0.5,11.5,0.2,17,2.1c8.3,2.9,15.2,7.8,20.6,14.6
	c7.7,9.8,11,20.9,9.5,33.3c-0.7,6.1-2.7,11.8-5.7,17.1c-8.2,14.5-23.6,24.2-40.5,24.9c-6.7,0.3-13.3-0.8-19.5-3.2
	c-9-3.4-16.4-9-22.4-16.5c-6.9-8.8-10.9-18.7-11.5-29.9c-0.5-7.9,0.8-15.6,3.7-23c0.5-1.2,1-2.4,1.5-3.7l0,0
	c3-7.3,7.5-13.7,13.4-19.1c1.1-1,2.2-1.9,3.3-2.9l-1.7-1.8c-1.8-1.8-3.8-3.1-6.4-3.5c-4.1-0.8-7.6,1.9-7.7,6c0,2.1,0.7,4,1.9,5.7
	c0.1,0.2,0.2,0.3,0.4,0.6c-0.3-0.1-0.4-0.1-0.5-0.1c-1.4-0.4-2.8-0.7-4.3-0.6c-2.6,0.1-4.7,1.1-5.9,3.6c-1,2.2-0.7,4.3,0.5,6.3
	c0.7,1.1,2.2,3,3.2,4.2c-1.8-0.4-3.7-0.4-5.6,0.1c-4,1.1-6,5.1-4.3,8.8c0.9,1.9,2.4,3.3,4.2,4.3c0.2,0.1,0.3,0.2,0.6,0.4
	c-0.3,0.1-0.4,0.1-0.5,0.1c-1.5,0.2-2.8,0.6-4.1,1.3c-2.3,1.3-3.8,3.1-3.7,5.8c0,2.4,1.2,4.2,3.2,5.5c1.2,0.8,2.6,1.4,3.9,2
	c-0.1,0-0.2,0.1-0.4,0.2c-1.6,0.6-3.1,1.6-4.2,2.9c-2.3,2.6-2.3,6.1,0,8.5c1.3,1.4,3,2.1,4.9,2.4c0.7,0.1,1.5,0.2,2.4,0.3
	c-0.3,0.2-0.5,0.4-0.6,0.5c-1.4,1-2.5,2.3-3.3,3.8c-1.6,3.1-0.6,6.6,2.3,8.3c1.7,1,3.7,1.1,5.6,0.9c0.6-0.1,1.2-0.2,2-0.3
	c-0.2,0.3-0.3,0.4-0.4,0.6c-1.3,1.6-2.2,3.4-2.4,5.5c-0.3,2.8,1.4,5.6,4.1,6.5c2.4,0.8,4.7,0.3,6.9-0.8c0.3-0.1,0.6-0.3,0.8-0.4
	c0,0.1,0,0.1,0,0.1c-0.1,0.2-0.2,0.4-0.3,0.6c-0.8,1.7-1.1,3.6-0.9,5.5c0.3,3.4,3.6,6.1,7.1,5.5c2.1-0.3,3.8-1.3,5.3-2.7
	c0.2-0.1,0.3-0.3,0.6-0.5c0,0.3,0,0.5-0.1,0.7c-0.3,1.6-0.3,3.1,0,4.6c0.9,4.3,5.1,6.4,9,4.4c1.7-0.8,3-2.1,4-3.6
	c0.1-0.2,0.2-0.3,0.4-0.6c0.2,2.7,0.6,3.9,1.4,5.4c1.8,3.2,5.4,4.3,8.4,2.6c1.5-0.8,2.6-2.1,3.4-3.6c0.4-0.8,0.7-1.6,1.1-2.5
	c0.1,0.2,0.1,0.3,0.2,0.5c0.5,1.5,1.2,2.9,2.3,4.1c2.7,3.1,7.1,3.1,9.6,0.1c0.7-0.9,1.2-2,1.6-3.1c0.4-1.1,0.4-2.2,0.7-3.4
	c0.1,0.1,0.2,0.3,0.4,0.5c0.9,0.9,1.7,1.9,2.7,2.7c3.4,2.6,7,1.7,9.2-0.9c1.4-1.8,1.7-3.9,1.4-6.1c-0.1-0.7-0.2-1.4-0.3-2.2
	c0.2,0.2,0.4,0.3,0.5,0.4c1.4,1.1,2.9,1.9,4.6,2.3c3.4,0.7,6.7-1.2,7.5-4.6c0.4-1.6,0.2-3.1-0.3-4.7c-0.3-0.9-0.7-1.7-1.1-2.6
	c0,0,0,0,0.1,0c0.2,0.1,0.3,0.1,0.5,0.2c1.8,0.7,3.6,1.1,5.5,0.9c3.6-0.4,6.1-3.9,5.4-7.5c-0.4-2-1.4-3.6-2.8-5.1
	c-0.1-0.2-0.3-0.3-0.5-0.6c0.3,0,0.5,0,0.6,0.1c1.8,0.3,3.5,0.2,5.2-0.4c3.1-1.1,4.9-4.3,4.1-7.5c-0.6-2.2-2.1-3.8-4-5.1
	c-0.4-0.2-0.7-0.5-1.2-0.8c0.5-0.1,0.9-0.1,1.2-0.2C250.1,148.2,251.5,147.7,252.7,146.9z"/>
<path class="st0" d="M406.3,88.1c-1.3,0.6-2.7-0.6-3.8-1.1c-1.7-0.8-3.2-0.8-4.9,0.1c-2.4,1.4-5.7,4.8-5.8,7.7
	c-0.1,1.9,1.1,2.6,2.2,3.8c0.8,0.9,2.1,2.7,1,3.8c-1,1.1-2.9,0-4-0.3c-1.6-0.4-2.9-0.3-4.2,0.7c-2.1,1.6-3.8,5-4.3,7.5
	c-0.3,1.5,0,3,1.2,4c1.4,1.1,3,1.3,3.9,3c0.6,1.1,0.7,2.6-0.4,3.5c-1,0.8-2.5,0.4-3.6,0.6c-2.9,0.6-5.2,3.9-5.3,6.8
	c-0.1,2.5,1.1,5.7,3.4,7c1.5,0.8,6.3,0.4,6.3,2.9c0,1.7-3.2,2.4-4.4,2.8c-2.4,0.9-3.6,2.5-4,5.1c-0.4,3.1,0.6,5.8,2.9,7.9
	c1.1,1,2.5,1.9,3.9,2s2.7-0.8,4-1.1c1.1-0.3,2.6-0.3,3.5,0.5c1.6,1.4-0.2,3.1-1.2,4.1c-2,2.1-3.3,5.6-3.1,8.5
	c0.3,3.1,3.9,6.1,6.9,6.5c2.4,0.3,4.7-0.9,6.5-2.4c2.5-2.1,3.7-5.1,5.3-8c0.9,0.8,1.8,1.7,2.8,2.5c0.6,0.5,2.3,2,3,2
	c-1.8,0-3.3-0.3-5.1,0.2c-2.2,0.7-3.7,2.5-4.9,4.4c-1.3,2.1-2.5,3.8-1.9,6.5c0.5,2.4,2.5,5.3,4.4,6.8c1.8,1.5,4.8,1.2,6.9,1
	c2.1-0.1,3.9-0.8,5.5-2.4c1.7-1.8,2.9-4.9,3.2-7.3c0.3-2.2-0.9-4.4-2-6.2c2.3,0.8,4.3,2,6.7,2.6c-1.4,0.9-3,2.6-3.7,4.2
	c-0.8,1.9-0.7,4.6-1,6.6s-0.4,3.3,1.7,4.3c1.1,0.6,2.2,0.5,3.4,0.8c1.1,0.2,1.9,0.9,3,1.3c2,0.8,4.2-0.9,6.1-1.3
	c1.3-0.3,3.5,0,3.5-1.8c0-0.9-0.5-1.8-0.6-2.7c-0.1-1.1,0.3-2,0.5-3c0.7-2.9-0.8-5.4-2.3-7.7c1.8,0,3.8,0.3,5.6,0
	c-1.3,1.6-1.6,4.3-1.6,6.3c0,2.2,1.2,3.6,2.5,5.3c0.6,0.7,1.2,1.9,2.1,2.3c0.8,0.3,1.7-0.2,2.6,0.1c0.7,0.2,1.6,1.1,2.3,0.9
	c1-0.3,0.5-1.4,1.8-1.3c0.8,0.1,1.3,1.1,2.3,0.7c0.7-0.4,1.1-1.7,1.6-2.4c0.7-0.9,1.7-1.3,2.4-2c0.8-0.9,0.8-2.2,0.7-3.3
	c-0.3-2.3-1.5-4.6-2.9-6.4c-0.8-1-1.5-1.5-2.6-1.8c-1-0.3-1.2-0.8-2-1.2c1.8-0.8,3.7-1.3,5.4-2.3c-0.2,0.1-0.3,0.2-0.4,0.4
	c0-0.1,1.2-0.4,1.3-0.6c-1.1,2.4,0.1,5.5,0.9,7.9c0.6,1.8,1.2,2.5,2.6,3.6c0.9,0.7,2,2,3.1,2.5c1.2,0.5,0.9-0.2,1.9-0.6
	c0.9-0.4,2,0.3,3,0c1.1-0.3,2.1-1.2,3-1.9c1.8-1.4,3.3-3,3.7-5.3c0.3-1.6,1.4-2.7,0.5-4.2c-1.3-2.1-2.8-4.3-4.9-5.7
	c-1.9-1.3-4.7-3-7.1-2.2c1.2-1.4,2.5-2.8,3.4-4.4c0.8,3.8,5.1,6.8,8.8,7.4c2,0.3,4.4,0,5.8-1.6c0.7-0.8,1.3-1.6,2-2.4
	c0.5-0.5,0.8-0.7,1-1.3c1.5-3.2,1-8.8-2.1-10.9c-2-1.3-4.5-1.8-6.8-1.8c-1,0-1.7,0-2.5,0.3c-0.6,0.2-1.7,0.3-2.2,0.6
	c0.6-2,0.9-4.4,1.2-6.5c1,2.2,3.2,3.2,5.3,4c0.8,0.3,1.4,0.6,2.2,0.5c0.4-0.1,0.5-0.4,1-0.4c0.4,0,0.8,0.5,1.3,0.6
	c4.3,0.8,7.8-5,8-8.5c0.2-3.3-2.1-8.3-5.7-8.6c-1.9-0.1-4-1-6-0.6c-2.2,0.4-4.9,2.4-6.3,4.2c-0.3-2.1-0.9-4.1-1.5-6.1
	c2.1,1.6,5.6,1.6,8.2,1.3c2-0.2,5.1-1.6,6.2-3.3c1.1-1.6,0.6-4.8-0.1-6.5c-0.3-0.9-0.8-1.3-1.5-2c-0.8-0.8-1.2-1.7-1.7-2.7
	c-1-1.8-2.8-2.8-4.9-2.7c-4.1,0.2-8.7,4.5-9.5,8.5c-1-1.5-2.3-2.7-3.6-4c2-0.1,3.7,0,5.3-1.3c1.3-1,2.4-2.4,3.4-3.7
	c2-2.8,0.2-7.3-2-9.6c-1.8-1.9-6.4-2.2-8.7-1.2c-3.9,1.5-5.8,6.6-5.3,10.4c-1.3-0.7-2.7-1.2-4.2-1.5c0.4-0.8,1.5-0.7,2.1-1.2
	s0.9-1.4,1.2-2.2c0.7-1.8,1.4-3.7,1-5.7c-0.3-1.7-1.2-2.9-2.5-4s-2.9-2.7-4.7-2.9c-2.8-0.5-7.8,1.3-9.1,4c-1.4,2.9-1.2,8,0.7,10.7
	c-0.8,0.1-1.5,0.3-2.3,0.5c0.7-3.8-0.6-10.1-4.5-11.8c-2.3-1-6.7-0.9-8.7,0.7c-0.6,0.5-0.9,1.1-1.4,1.6c-0.5,0.6-1.3,0.9-1.8,1.5
	c-1.3,1.6-1.2,4.2-0.6,6c0.6,1.9,1.9,3.5,3.1,5c0.5,0.5,1.5,1.5,1.6,2.1c0.1,0.7-0.8,1.7-1.7,2c-0.4-1.1-1.2-2-1.6-3.1
	c-0.4-0.8-0.4-1.7-0.9-2.4c-1-1.4-2.9-1.6-4.5-2c-1.4-0.3-2.9-1.1-4.3-0.6c-1.7,0.6-3.8,2.2-4.9,3.8c-2,3-1.9,6.9,0,9.8
	c1.5,2.3,3.5,2.7,6,3.4c0.6,0.2,4.7,1.9,4.9,1.1c-0.2,0.6-0.2,1.2-0.3,1.8c-1.8-1.5-4.8-1.8-7-1.5c-1.9,0.2-4.5-0.3-6.2,0.4
	c-2.8,1-3.6,5.5-3.5,8s0.7,4.7,2.6,6.4c1.9,1.9,4.5,2.6,7.2,2.5c2.4-0.1,5-1.8,6.4-3.7c0.6-0.8,0.5-1.6,1.5-1.3
	c1.1,0.3,1.8,2.4,2,3.3c-0.9,0.3-1.8,0.3-2.8,0.6c-1.2,0.4-2.3,1.2-3.3,2c-2,1.5-3.6,3.4-4.5,5.8c-0.9,2.2-1,4.6,0.3,6.7
	c1.3,1.9,3.5,2.2,5.1,3.7c2.8,2.8,8.9,4.2,11.5,0.4c2.8-4.1,2.6-8.6,2.6-13.3c0,0.4,3.4,0.5,3.8,0.5c-0.3,1-1.1,1.8-1.5,2.8
	c-0.4,1.2-0.4,2.6-0.3,3.9c0.1,2.3,1.2,4.8,2.1,6.9c0.7,1.7,2.4,1.3,3.9,2c2.2,1,4.5,0.6,6.8-0.2c1.1-0.4,2.4-0.7,3.3-1.4
	c0.8-0.7,0.9-1.9,1.7-2.6c0.8-0.6,1.2-0.1,1.6-1.1c0.3-1.1-0.3-3.1-0.4-4.2c-0.3-4.6-3.8-7.6-8-9.1c0.4,0.1,1.5-2.1,2-2.2
	c1.4,2.6,3.6,5.2,6.7,5.7c1.4,0.2,2.6,0.2,4,0.9c0.7,0.4,1.3,1.1,2,1.3c1.8,0.6,2.3-1.7,3-2.9c1.2-1.9,3.6-3.3,3.3-5.8
	c-0.1-1.2-0.3-2.3,0-3.5c0.2-1.3,0.6-2.6,0.2-3.9c-0.6-2.3-3.1-2.2-5.1-2.6c-1.9-0.4-4-1.3-5.9-1c-2.6,0.4-4.1,1.3-6.2,2.7
	c0.3-0.2-0.7-1.4-0.6-1.7c0.2-0.6,2.9-1.6,3.5-2.1c0.7-0.6,1.1-1.5,1.7-2.2c0.8-1,1.7-1.7,2.3-2.8c0.6-1,1.2-2.2,1.1-3.4
	c-0.1-1.1-0.7-1.6-1.3-2.5c-0.5-0.7-0.7-1.7-1.2-2.3c-0.4-0.5-1.3-0.7-1.8-1.1c-1-0.6-1.7-1.3-2.9-1.4c-0.8-0.1-1.4,0.1-2.2,0.1
	c-1.8,0-3.1-0.8-4.7,0.1c-1.2,0.7-3.4,1.5-4.2,2.7c-1.3,2.2-1.4,5.6-0.7,8c-5.4-3.1-10.9,3.3-8.5,8.4c2.4,5,11.9,3.9,11.1-2.4
	c0.9,0.2,1.3,2.9,1.3,3.6c0,1.3-1.1,2.8-1.9,3.8c-2.2,2.8-6.6,3.8-9.4,1.2c-2.6-2.4-4.3-7.3-4.1-10.8c0.2-4,2.9-7.3,5.7-9.9
	c6-5.3,15.4-7.8,22.3-3c6.6,4.6,11.4,10.7,12.4,18.8c0.9,7.5-1.2,15.3-5.3,21.5c-4.2,6.2-10.7,9.9-18,10.9c-6.7,0.9-15,0.1-21.2-2.9
	c-7.2-3.6-13.7-8.8-18.3-15.4c-5.3-7.6-8.1-17-6.2-26.2c2.1-10.3,8.8-20,16.2-27.1C411.6,93.3,408.9,90.7,406.3,88.1z"/>
</svg>
