  0
SECTION
  2
HEADER
  9
$ACADVER
  1
AC1014
  9
$HANDSEED
  5
FFFF
  9
$MEASUREMENT
 70
     1
  0
ENDSEC
  0
SECTION
  2
TABLES
  0
TABLE
  2
VPORT
  5
8
330
0
100
AcDbSymbolTable
 70
     4
  0
VPORT
  5
2E
330
8
100
AcDbSymbolTableRecord
100
AcDbViewportTableRecord
  2
*ACTIVE
 70
     0
 10
0.0
 20
0.0
 11
1.0
 21
1.0
 12
210.0
 22
148.5
 13
0.0
 23
0.0
 14
10.0
 24
10.0
 15
10.0
 25
10.0
 16
0.0
 26
0.0
 36
1.0
 17
0.0
 27
0.0
 37
0.0
 40
341.0
 41
1.24
 42
50.0
 43
0.0
 44
0.0
 50
0.0
 51
0.0
 71
     0
 72
   100
 73
     1
 74
     3
 75
     0
 76
     0
 77
     0
 78
     0
  0
ENDTAB
  0
TABLE
  2
LTYPE
  5
5
330
0
100
AcDbSymbolTable
 70
     1
  0
LTYPE
  5
14
330
5
100
AcDbSymbolTableRecord
100
AcDbLinetypeTableRecord
  2
BYBLOCK
 70
     0
  3

 72
    65
 73
     0
 40
0.0
  0
LTYPE
  5
15
330
5
100
AcDbSymbolTableRecord
100
AcDbLinetypeTableRecord
  2
BYLAYER
 70
     0
  3

 72
    65
 73
     0
 40
0.0
  0
LTYPE
  5
16
330
5
100
AcDbSymbolTableRecord
100
AcDbLinetypeTableRecord
  2
CONTINUOUS
 70
     0
  3
Solid line
 72
    65
 73
     0
 40
0.0
  0
ENDTAB
  0
TABLE
  2
LAYER
  5
2
100
AcDbSymbolTable
 70
1
  0
LAYER
  5
50
100
AcDbSymbolTableRecord
100
AcDbLayerTableRecord
  2
0
 70
0
  6
CONTINUOUS
  0
ENDTAB
  0
TABLE
  2
STYLE
  5
3
330
0
100
AcDbSymbolTable
 70
     1
  0
STYLE
  5
11
330
3
100
AcDbSymbolTableRecord
100
AcDbTextStyleTableRecord
  2
STANDARD
 70
     0
 40
0.0
 41
1.0
 50
0.0
 71
     0
 42
2.5
  3
txt
  4

  0
ENDTAB
  0
TABLE
  2
VIEW
  5
6
330
0
100
AcDbSymbolTable
 70
     0
  0
ENDTAB
  0
TABLE
  2
UCS
  5
7
330
0
100
AcDbSymbolTable
 70
     0
  0
ENDTAB
  0
TABLE
  2
APPID
  5
9
330
0
100
AcDbSymbolTable
 70
     2
  0
APPID
  5
12
330
9
100
AcDbSymbolTableRecord
100
AcDbRegAppTableRecord
  2
ACAD
 70
     0
  0
ENDTAB
  0
TABLE
  2
DIMSTYLE
  5
A
330
0
100
AcDbSymbolTable
 70
     1
  0
DIMSTYLE
105
27
330
A
100
AcDbSymbolTableRecord
100
AcDbDimStyleTableRecord
  2
ISO-25
 70
     0
  3

  4

  5

  6

  7

 40
1.0
 41
2.5
 42
0.625
 43
3.75
 44
1.25
 45
0.0
 46
0.0
 47
0.0
 48
0.0
140
2.5
141
2.5
142
0.0
143
0.03937007874016
144
1.0
145
0.0
146
1.0
147
0.625
 71
     0
 72
     0
 73
     0
 74
     0
 75
     0
 76
     0
 77
     1
 78
     8
170
     0
171
     3
172
     1
173
     0
174
     0
175
     0
176
     0
177
     0
178
     0
270
     2
271
     2
272
     2
273
     2
274
     3
340
11
275
     0
280
     0
281
     0
282
     0
283
     0
284
     8
285
     0
286
     0
287
     3
288
     0
  0
ENDTAB
  0
TABLE
  2
BLOCK_RECORD
  5
1
330
0
100
AcDbSymbolTable
 70
     1
  0
BLOCK_RECORD
  5
1F
330
1
100
AcDbSymbolTableRecord
100
AcDbBlockTableRecord
  2
*MODEL_SPACE
  0
BLOCK_RECORD
  5
1B
330
1
100
AcDbSymbolTableRecord
100
AcDbBlockTableRecord
  2
*PAPER_SPACE
  0
ENDTAB
  0
ENDSEC
  0
SECTION
  2
BLOCKS
  0
BLOCK
  5
20
330
1F
100
AcDbEntity
  8
0
100
AcDbBlockBegin
  2
*MODEL_SPACE
 70
     0
 10
0.0
 20
0.0
 30
0.0
  3
*MODEL_SPACE
  1

  0
ENDBLK
  5
21
330
1F
100
AcDbEntity
  8
0
100
AcDbBlockEnd
  0
BLOCK
  5
1C
330
1B
100
AcDbEntity
 67
     1
  8
0
100
AcDbBlockBegin
  2
*PAPER_SPACE
  1

  0
ENDBLK
  5
1D
330
1B
100
AcDbEntity
 67
     1
  8
0
100
AcDbBlockEnd
  0
ENDSEC
  0
SECTION
  2
ENTITIES
  0
SPLINE
  5
100
100
AcDbEntity
  8
0
 62
7
100
AcDbSpline
 70
8
 71
3
 72
8
 73
4
 74
0
 40
0
 40
0
 40
0
 40
0
 40
1
 40
1
 40
1
 40
1
 10
83.760000
 20
137.440000
 30
0.0
 10
71.040000
 20
138.480000
 30
0.0
 10
66.720000
 20
139.920000
 30
0.0
 10
67.680000
 20
142.800000
 30
0.0
  0
SPLINE
  5
101
100
AcDbEntity
  8
0
 62
7
100
AcDbSpline
 70
8
 71
3
 72
8
 73
4
 74
0
 40
0
 40
0
 40
0
 40
0
 40
1
 40
1
 40
1
 40
1
 10
67.680000
 20
142.800000
 30
0.0
 10
72.240000
 20
156.480000
 30
0.0
 10
74.000000
 20
160.960000
 30
0.0
 10
77.200000
 20
167.760000
 30
0.0
  0
SPLINE
  5
102
100
AcDbEntity
  8
0
 62
7
100
AcDbSpline
 70
8
 71
3
 72
8
 73
4
 74
0
 40
0
 40
0
 40
0
 40
0
 40
1
 40
1
 40
1
 40
1
 10
77.200000
 20
167.760000
 30
0.0
 10
80.000000
 20
173.760000
 30
0.0
 10
81.200000
 20
177.520000
 30
0.0
 10
81.920000
 20
182.800000
 30
0.0
  0
SPLINE
  5
103
100
AcDbEntity
  8
0
 62
7
100
AcDbSpline
 70
8
 71
3
 72
8
 73
4
 74
0
 40
0
 40
0
 40
0
 40
0
 40
1
 40
1
 40
1
 40
1
 10
81.920000
 20
182.800000
 30
0.0
 10
83.120000
 20
192.000000
 30
0.0
 10
84.400000
 20
197.120000
 30
0.0
 10
86.560000
 20
201.200000
 30
0.0
  0
SPLINE
  5
104
100
AcDbEntity
  8
0
 62
7
100
AcDbSpline
 70
8
 71
3
 72
8
 73
4
 74
0
 40
0
 40
0
 40
0
 40
0
 40
1
 40
1
 40
1
 40
1
 10
86.560000
 20
201.200000
 30
0.0
 10
87.520000
 20
203.040000
 30
0.0
 10
88.960000
 20
207.520000
 30
0.0
 10
89.760000
 20
211.200000
 30
0.0
  0
SPLINE
  5
105
100
AcDbEntity
  8
0
 62
7
100
AcDbSpline
 70
8
 71
3
 72
8
 73
4
 74
0
 40
0
 40
0
 40
0
 40
0
 40
1
 40
1
 40
1
 40
1
 10
89.760000
 20
211.200000
 30
0.0
 10
90.480000
 20
214.880000
 30
0.0
 10
92.080000
 20
221.120000
 30
0.0
 10
93.200000
 20
225.120000
 30
0.0
  0
SPLINE
  5
106
100
AcDbEntity
  8
0
 62
7
100
AcDbSpline
 70
8
 71
3
 72
8
 73
4
 74
0
 40
0
 40
0
 40
0
 40
0
 40
1
 40
1
 40
1
 40
1
 10
93.200000
 20
225.120000
 30
0.0
 10
95.040000
 20
231.840000
 30
0.0
 10
95.120000
 20
232.960000
 30
0.0
 10
94.160000
 20
243.280000
 30
0.0
  0
SPLINE
  5
107
100
AcDbEntity
  8
0
 62
7
100
AcDbSpline
 70
8
 71
3
 72
8
 73
4
 74
0
 40
0
 40
0
 40
0
 40
0
 40
1
 40
1
 40
1
 40
1
 10
94.160000
 20
243.280000
 30
0.0
 10
93.520000
 20
249.280000
 30
0.0
 10
92.480000
 20
257.040000
 30
0.0
 10
91.760000
 20
260.400000
 30
0.0
  0
SPLINE
  5
108
100
AcDbEntity
  8
0
 62
7
100
AcDbSpline
 70
8
 71
3
 72
8
 73
4
 74
0
 40
0
 40
0
 40
0
 40
0
 40
1
 40
1
 40
1
 40
1
 10
91.760000
 20
260.400000
 30
0.0
 10
88.000000
 20
277.440000
 30
0.0
 10
87.920000
 20
294.640000
 30
0.0
 10
91.520000
 20
304.240000
 30
0.0
  0
SPLINE
  5
109
100
AcDbEntity
  8
0
 62
7
100
AcDbSpline
 70
8
 71
3
 72
8
 73
4
 74
0
 40
0
 40
0
 40
0
 40
0
 40
1
 40
1
 40
1
 40
1
 10
91.520000
 20
304.240000
 30
0.0
 10
94.320000
 20
311.760000
 30
0.0
 10
102.640000
 20
326.800000
 30
0.0
 10
105.120000
 20
328.880000
 30
0.0
  0
SPLINE
  5
10a
100
AcDbEntity
  8
0
 62
7
100
AcDbSpline
 70
8
 71
3
 72
8
 73
4
 74
0
 40
0
 40
0
 40
0
 40
0
 40
1
 40
1
 40
1
 40
1
 10
105.120000
 20
328.880000
 30
0.0
 10
106.000000
 20
329.680000
 30
0.0
 10
108.000000
 20
332.320000
 30
0.0
 10
109.520000
 20
334.720000
 30
0.0
  0
SPLINE
  5
10b
100
AcDbEntity
  8
0
 62
7
100
AcDbSpline
 70
8
 71
3
 72
8
 73
4
 74
0
 40
0
 40
0
 40
0
 40
0
 40
1
 40
1
 40
1
 40
1
 10
109.520000
 20
334.720000
 30
0.0
 10
111.840000
 20
338.560000
 30
0.0
 10
112.400000
 20
340.640000
 30
0.0
 10
113.360000
 20
349.360000
 30
0.0
  0
SPLINE
  5
10c
100
AcDbEntity
  8
0
 62
7
100
AcDbSpline
 70
8
 71
3
 72
8
 73
4
 74
0
 40
0
 40
0
 40
0
 40
0
 40
1
 40
1
 40
1
 40
1
 10
113.360000
 20
349.360000
 30
0.0
 10
114.000000
 20
354.960000
 30
0.0
 10
114.960000
 20
361.760000
 30
0.0
 10
115.600000
 20
364.480000
 30
0.0
  0
SPLINE
  5
10d
100
AcDbEntity
  8
0
 62
7
100
AcDbSpline
 70
8
 71
3
 72
8
 73
4
 74
0
 40
0
 40
0
 40
0
 40
0
 40
1
 40
1
 40
1
 40
1
 10
115.600000
 20
364.480000
 30
0.0
 10
116.320000
 20
367.680000
 30
0.0
 10
116.480000
 20
372.080000
 30
0.0
 10
116.000000
 20
377.200000
 30
0.0
  0
SPLINE
  5
10e
100
AcDbEntity
  8
0
 62
7
100
AcDbSpline
 70
8
 71
3
 72
8
 73
4
 74
0
 40
0
 40
0
 40
0
 40
0
 40
1
 40
1
 40
1
 40
1
 10
116.000000
 20
377.200000
 30
0.0
 10
114.960000
 20
390.160000
 30
0.0
 10
115.120000
 20
401.840000
 30
0.0
 10
116.560000
 20
409.840000
 30
0.0
  0
SPLINE
  5
10f
100
AcDbEntity
  8
0
 62
7
100
AcDbSpline
 70
8
 71
3
 72
8
 73
4
 74
0
 40
0
 40
0
 40
0
 40
0
 40
1
 40
1
 40
1
 40
1
 10
116.560000
 20
409.840000
 30
0.0
 10
122.880000
 20
445.120000
 30
0.0
 10
131.280000
 20
468.480000
 30
0.0
 10
144.560000
 20
487.520000
 30
0.0
  0
LINE
  5
110
100
AcDbEntity
  8
0
 62
7
100
AcDbLine
 10
144.560000
 20
487.520000
 30
0.0
 11
151.520000
 21
497.440000
 31
0.0
  0
LINE
  5
111
100
AcDbEntity
  8
0
 62
7
100
AcDbLine
 10
151.520000
 20
497.440000
 30
0.0
 11
152.400000
 21
508.080000
 31
0.0
  0
SPLINE
  5
112
100
AcDbEntity
  8
0
 62
7
100
AcDbSpline
 70
8
 71
3
 72
8
 73
4
 74
0
 40
0
 40
0
 40
0
 40
0
 40
1
 40
1
 40
1
 40
1
 10
152.400000
 20
508.080000
 30
0.0
 10
153.360000
 20
519.520000
 30
0.0
 10
152.640000
 20
541.920000
 30
0.0
 10
151.200000
 20
543.920000
 30
0.0
  0
SPLINE
  5
113
100
AcDbEntity
  8
0
 62
7
100
AcDbSpline
 70
8
 71
3
 72
8
 73
4
 74
0
 40
0
 40
0
 40
0
 40
0
 40
1
 40
1
 40
1
 40
1
 10
151.200000
 20
543.920000
 30
0.0
 10
150.720000
 20
544.560000
 30
0.0
 10
148.240000
 20
547.200000
 30
0.0
 10
145.600000
 20
549.680000
 30
0.0
  0
SPLINE
  5
114
100
AcDbEntity
  8
0
 62
7
100
AcDbSpline
 70
8
 71
3
 72
8
 73
4
 74
0
 40
0
 40
0
 40
0
 40
0
 40
1
 40
1
 40
1
 40
1
 10
145.600000
 20
549.680000
 30
0.0
 10
141.040000
 20
554.240000
 30
0.0
 10
134.240000
 20
563.840000
 30
0.0
 10
131.760000
 20
569.360000
 30
0.0
  0
SPLINE
  5
115
100
AcDbEntity
  8
0
 62
7
100
AcDbSpline
 70
8
 71
3
 72
8
 73
4
 74
0
 40
0
 40
0
 40
0
 40
0
 40
1
 40
1
 40
1
 40
1
 10
131.760000
 20
569.360000
 30
0.0
 10
129.600000
 20
574.400000
 30
0.0
 10
128.480000
 20
574.480000
 30
0.0
 10
127.280000
 20
570.000000
 30
0.0
  0
SPLINE
  5
116
100
AcDbEntity
  8
0
 62
7
100
AcDbSpline
 70
8
 71
3
 72
8
 73
4
 74
0
 40
0
 40
0
 40
0
 40
0
 40
1
 40
1
 40
1
 40
1
 10
127.280000
 20
570.000000
 30
0.0
 10
125.440000
 20
563.440000
 30
0.0
 10
120.960000
 20
556.320000
 30
0.0
 10
116.720000
 20
553.120000
 30
0.0
  0
SPLINE
  5
117
100
AcDbEntity
  8
0
 62
7
100
AcDbSpline
 70
8
 71
3
 72
8
 73
4
 74
0
 40
0
 40
0
 40
0
 40
0
 40
1
 40
1
 40
1
 40
1
 10
116.720000
 20
553.120000
 30
0.0
 10
113.600000
 20
550.800000
 30
0.0
 10
112.320000
 20
549.040000
 30
0.0
 10
110.400000
 20
544.400000
 30
0.0
  0
SPLINE
  5
118
100
AcDbEntity
  8
0
 62
7
100
AcDbSpline
 70
8
 71
3
 72
8
 73
4
 74
0
 40
0
 40
0
 40
0
 40
0
 40
1
 40
1
 40
1
 40
1
 10
110.400000
 20
544.400000
 30
0.0
 10
108.240000
 20
539.280000
 30
0.0
 10
107.840000
 20
536.960000
 30
0.0
 10
107.440000
 20
525.920000
 30
0.0
  0
SPLINE
  5
119
100
AcDbEntity
  8
0
 62
7
100
AcDbSpline
 70
8
 71
3
 72
8
 73
4
 74
0
 40
0
 40
0
 40
0
 40
0
 40
1
 40
1
 40
1
 40
1
 10
107.440000
 20
525.920000
 30
0.0
 10
106.960000
 20
514.880000
 30
0.0
 10
106.480000
 20
512.160000
 30
0.0
 10
104.080000
 20
505.120000
 30
0.0
  0
SPLINE
  5
11a
100
AcDbEntity
  8
0
 62
7
100
AcDbSpline
 70
8
 71
3
 72
8
 73
4
 74
0
 40
0
 40
0
 40
0
 40
0
 40
1
 40
1
 40
1
 40
1
 10
104.080000
 20
505.120000
 30
0.0
 10
99.600000
 20
491.920000
 30
0.0
 10
100.480000
 20
487.680000
 30
0.0
 10
108.400000
 20
483.440000
 30
0.0
  0
SPLINE
  5
11b
100
AcDbEntity
  8
0
 62
7
100
AcDbSpline
 70
8
 71
3
 72
8
 73
4
 74
0
 40
0
 40
0
 40
0
 40
0
 40
1
 40
1
 40
1
 40
1
 10
108.400000
 20
483.440000
 30
0.0
 10
112.400000
 20
481.280000
 30
0.0
 10
119.200000
 20
474.320000
 30
0.0
 10
120.720000
 20
470.800000
 30
0.0
  0
SPLINE
  5
11c
100
AcDbEntity
  8
0
 62
7
100
AcDbSpline
 70
8
 71
3
 72
8
 73
4
 74
0
 40
0
 40
0
 40
0
 40
0
 40
1
 40
1
 40
1
 40
1
 10
120.720000
 20
470.800000
 30
0.0
 10
121.520000
 20
468.960000
 30
0.0
 10
121.680000
 20
466.720000
 30
0.0
 10
121.200000
 20
463.600000
 30
0.0
  0
SPLINE
  5
11d
100
AcDbEntity
  8
0
 62
7
100
AcDbSpline
 70
8
 71
3
 72
8
 73
4
 74
0
 40
0
 40
0
 40
0
 40
0
 40
1
 40
1
 40
1
 40
1
 10
121.200000
 20
463.600000
 30
0.0
 10
120.880000
 20
461.120000
 30
0.0
 10
120.640000
 20
456.720000
 30
0.0
 10
120.720000
 20
453.840000
 30
0.0
  0
SPLINE
  5
11e
100
AcDbEntity
  8
0
 62
7
100
AcDbSpline
 70
8
 71
3
 72
8
 73
4
 74
0
 40
0
 40
0
 40
0
 40
0
 40
1
 40
1
 40
1
 40
1
 10
120.720000
 20
453.840000
 30
0.0
 10
120.880000
 20
448.880000
 30
0.0
 10
120.640000
 20
448.160000
 30
0.0
 10
117.520000
 20
443.760000
 30
0.0
  0
SPLINE
  5
11f
100
AcDbEntity
  8
0
 62
7
100
AcDbSpline
 70
8
 71
3
 72
8
 73
4
 74
0
 40
0
 40
0
 40
0
 40
0
 40
1
 40
1
 40
1
 40
1
 10
117.520000
 20
443.760000
 30
0.0
 10
115.680000
 20
441.200000
 30
0.0
 10
112.320000
 20
437.520000
 30
0.0
 10
110.080000
 20
435.680000
 30
0.0
  0
SPLINE
  5
120
100
AcDbEntity
  8
0
 62
7
100
AcDbSpline
 70
8
 71
3
 72
8
 73
4
 74
0
 40
0
 40
0
 40
0
 40
0
 40
1
 40
1
 40
1
 40
1
 10
110.080000
 20
435.680000
 30
0.0
 10
107.840000
 20
433.840000
 30
0.0
 10
106.000000
 20
432.160000
 30
0.0
 10
106.000000
 20
431.840000
 30
0.0
  0
SPLINE
  5
121
100
AcDbEntity
  8
0
 62
7
100
AcDbSpline
 70
8
 71
3
 72
8
 73
4
 74
0
 40
0
 40
0
 40
0
 40
0
 40
1
 40
1
 40
1
 40
1
 10
106.000000
 20
431.840000
 30
0.0
 10
106.000000
 20
431.600000
 30
0.0
 10
104.320000
 20
430.560000
 30
0.0
 10
102.320000
 20
429.600000
 30
0.0
  0
SPLINE
  5
122
100
AcDbEntity
  8
0
 62
7
100
AcDbSpline
 70
8
 71
3
 72
8
 73
4
 74
0
 40
0
 40
0
 40
0
 40
0
 40
1
 40
1
 40
1
 40
1
 10
102.320000
 20
429.600000
 30
0.0
 10
99.040000
 20
428.000000
 30
0.0
 10
98.080000
 20
427.840000
 30
0.0
 10
93.760000
 20
428.240000
 30
0.0
  0
SPLINE
  5
123
100
AcDbEntity
  8
0
 62
7
100
AcDbSpline
 70
8
 71
3
 72
8
 73
4
 74
0
 40
0
 40
0
 40
0
 40
0
 40
1
 40
1
 40
1
 40
1
 10
93.760000
 20
428.240000
 30
0.0
 10
86.960000
 20
428.960000
 30
0.0
 10
81.280000
 20
431.040000
 30
0.0
 10
80.560000
 20
433.040000
 30
0.0
  0
SPLINE
  5
124
100
AcDbEntity
  8
0
 62
7
100
AcDbSpline
 70
8
 71
3
 72
8
 73
4
 74
0
 40
0
 40
0
 40
0
 40
0
 40
1
 40
1
 40
1
 40
1
 10
80.560000
 20
433.040000
 30
0.0
 10
80.240000
 20
433.920000
 30
0.0
 10
78.720000
 20
436.720000
 30
0.0
 10
77.200000
 20
439.200000
 30
0.0
  0
SPLINE
  5
125
100
AcDbEntity
  8
0
 62
7
100
AcDbSpline
 70
8
 71
3
 72
8
 73
4
 74
0
 40
0
 40
0
 40
0
 40
0
 40
1
 40
1
 40
1
 40
1
 10
77.200000
 20
439.200000
 30
0.0
 10
73.760000
 20
444.640000
 30
0.0
 10
73.840000
 20
444.560000
 30
0.0
 10
72.160000
 20
461.520000
 30
0.0
  0
SPLINE
  5
126
100
AcDbEntity
  8
0
 62
7
100
AcDbSpline
 70
8
 71
3
 72
8
 73
4
 74
0
 40
0
 40
0
 40
0
 40
0
 40
1
 40
1
 40
1
 40
1
 10
72.160000
 20
461.520000
 30
0.0
 10
70.960000
 20
474.480000
 30
0.0
 10
70.800000
 20
475.200000
 30
0.0
 10
66.240000
 20
485.760000
 30
0.0
  0
SPLINE
  5
127
100
AcDbEntity
  8
0
 62
7
100
AcDbSpline
 70
8
 71
3
 72
8
 73
4
 74
0
 40
0
 40
0
 40
0
 40
0
 40
1
 40
1
 40
1
 40
1
 10
66.240000
 20
485.760000
 30
0.0
 10
56.320000
 20
508.800000
 30
0.0
 10
53.760000
 20
519.680000
 30
0.0
 10
54.320000
 20
536.640000
 30
0.0
  0
LINE
  5
128
100
AcDbEntity
  8
0
 62
7
100
AcDbLine
 10
54.320000
 20
536.640000
 30
0.0
 11
54.720000
 21
548.880000
 31
0.0
  0
LINE
  5
129
100
AcDbEntity
  8
0
 62
7
100
AcDbLine
 10
54.720000
 20
548.880000
 30
0.0
 11
59.600000
 21
557.760000
 31
0.0
  0
SPLINE
  5
12a
100
AcDbEntity
  8
0
 62
7
100
AcDbSpline
 70
8
 71
3
 72
8
 73
4
 74
0
 40
0
 40
0
 40
0
 40
0
 40
1
 40
1
 40
1
 40
1
 10
59.600000
 20
557.760000
 30
0.0
 10
68.080000
 20
573.360000
 30
0.0
 10
68.400000
 20
574.240000
 30
0.0
 10
66.640000
 20
581.520000
 30
0.0
  0
SPLINE
  5
12b
100
AcDbEntity
  8
0
 62
7
100
AcDbSpline
 70
8
 71
3
 72
8
 73
4
 74
0
 40
0
 40
0
 40
0
 40
0
 40
1
 40
1
 40
1
 40
1
 10
66.640000
 20
581.520000
 30
0.0
 10
64.960000
 20
588.800000
 30
0.0
 10
64.880000
 20
593.120000
 30
0.0
 10
66.160000
 20
601.600000
 30
0.0
  0
SPLINE
  5
12c
100
AcDbEntity
  8
0
 62
7
100
AcDbSpline
 70
8
 71
3
 72
8
 73
4
 74
0
 40
0
 40
0
 40
0
 40
0
 40
1
 40
1
 40
1
 40
1
 10
66.160000
 20
601.600000
 30
0.0
 10
67.680000
 20
611.520000
 30
0.0
 10
70.320000
 20
619.840000
 30
0.0
 10
73.680000
 20
625.280000
 30
0.0
  0
LINE
  5
12d
100
AcDbEntity
  8
0
 62
7
100
AcDbLine
 10
73.680000
 20
625.280000
 30
0.0
 11
76.800000
 21
630.400000
 31
0.0
  0
LINE
  5
12e
100
AcDbEntity
  8
0
 62
7
100
AcDbLine
 10
76.800000
 20
630.400000
 30
0.0
 11
76.800000
 21
641.680000
 31
0.0
  0
SPLINE
  5
12f
100
AcDbEntity
  8
0
 62
7
100
AcDbSpline
 70
8
 71
3
 72
8
 73
4
 74
0
 40
0
 40
0
 40
0
 40
0
 40
1
 40
1
 40
1
 40
1
 10
76.800000
 20
641.680000
 30
0.0
 10
76.800000
 20
654.800000
 30
0.0
 10
78.000000
 20
659.280000
 30
0.0
 10
84.080000
 20
668.400000
 30
0.0
  0
SPLINE
  5
130
100
AcDbEntity
  8
0
 62
7
100
AcDbSpline
 70
8
 71
3
 72
8
 73
4
 74
0
 40
0
 40
0
 40
0
 40
0
 40
1
 40
1
 40
1
 40
1
 10
84.080000
 20
668.400000
 30
0.0
 10
88.560000
 20
675.120000
 30
0.0
 10
95.760000
 20
680.960000
 30
0.0
 10
102.720000
 20
683.440000
 30
0.0
  0
SPLINE
  5
131
100
AcDbEntity
  8
0
 62
7
100
AcDbSpline
 70
8
 71
3
 72
8
 73
4
 74
0
 40
0
 40
0
 40
0
 40
0
 40
1
 40
1
 40
1
 40
1
 10
102.720000
 20
683.440000
 30
0.0
 10
105.280000
 20
684.320000
 30
0.0
 10
109.760000
 20
686.000000
 30
0.0
 10
112.800000
 20
687.120000
 30
0.0
  0
SPLINE
  5
132
100
AcDbEntity
  8
0
 62
7
100
AcDbSpline
 70
8
 71
3
 72
8
 73
4
 74
0
 40
0
 40
0
 40
0
 40
0
 40
1
 40
1
 40
1
 40
1
 10
112.800000
 20
687.120000
 30
0.0
 10
116.560000
 20
688.480000
 30
0.0
 10
120.000000
 20
689.200000
 30
0.0
 10
124.320000
 20
689.440000
 30
0.0
  0
SPLINE
  5
133
100
AcDbEntity
  8
0
 62
7
100
AcDbSpline
 70
8
 71
3
 72
8
 73
4
 74
0
 40
0
 40
0
 40
0
 40
0
 40
1
 40
1
 40
1
 40
1
 10
124.320000
 20
689.440000
 30
0.0
 10
131.280000
 20
689.840000
 30
0.0
 10
132.400000
 20
690.320000
 30
0.0
 10
133.280000
 20
692.960000
 30
0.0
  0
SPLINE
  5
134
100
AcDbEntity
  8
0
 62
7
100
AcDbSpline
 70
8
 71
3
 72
8
 73
4
 74
0
 40
0
 40
0
 40
0
 40
0
 40
1
 40
1
 40
1
 40
1
 10
133.280000
 20
692.960000
 30
0.0
 10
133.600000
 20
693.920000
 30
0.0
 10
135.200000
 20
695.760000
 30
0.0
 10
136.800000
 20
697.040000
 30
0.0
  0
SPLINE
  5
135
100
AcDbEntity
  8
0
 62
7
100
AcDbSpline
 70
8
 71
3
 72
8
 73
4
 74
0
 40
0
 40
0
 40
0
 40
0
 40
1
 40
1
 40
1
 40
1
 10
136.800000
 20
697.040000
 30
0.0
 10
138.400000
 20
698.320000
 30
0.0
 10
140.800000
 20
700.880000
 30
0.0
 10
142.080000
 20
702.800000
 30
0.0
  0
SPLINE
  5
136
100
AcDbEntity
  8
0
 62
7
100
AcDbSpline
 70
8
 71
3
 72
8
 73
4
 74
0
 40
0
 40
0
 40
0
 40
0
 40
1
 40
1
 40
1
 40
1
 10
142.080000
 20
702.800000
 30
0.0
 10
143.360000
 20
704.720000
 30
0.0
 10
145.520000
 20
706.880000
 30
0.0
 10
146.800000
 20
707.600000
 30
0.0
  0
SPLINE
  5
137
100
AcDbEntity
  8
0
 62
7
100
AcDbSpline
 70
8
 71
3
 72
8
 73
4
 74
0
 40
0
 40
0
 40
0
 40
0
 40
1
 40
1
 40
1
 40
1
 10
146.800000
 20
707.600000
 30
0.0
 10
150.240000
 20
709.520000
 30
0.0
 10
156.880000
 20
709.920000
 30
0.0
 10
161.360000
 20
708.560000
 30
0.0
  0
SPLINE
  5
138
100
AcDbEntity
  8
0
 62
7
100
AcDbSpline
 70
8
 71
3
 72
8
 73
4
 74
0
 40
0
 40
0
 40
0
 40
0
 40
1
 40
1
 40
1
 40
1
 10
161.360000
 20
708.560000
 30
0.0
 10
165.840000
 20
707.280000
 30
0.0
 10
166.400000
 20
707.600000
 30
0.0
 10
168.320000
 20
713.280000
 30
0.0
  0
SPLINE
  5
139
100
AcDbEntity
  8
0
 62
7
100
AcDbSpline
 70
8
 71
3
 72
8
 73
4
 74
0
 40
0
 40
0
 40
0
 40
0
 40
1
 40
1
 40
1
 40
1
 10
168.320000
 20
713.280000
 30
0.0
 10
170.320000
 20
719.200000
 30
0.0
 10
171.520000
 20
727.280000
 30
0.0
 10
172.640000
 20
742.400000
 30
0.0
  0
SPLINE
  5
13a
100
AcDbEntity
  8
0
 62
7
100
AcDbSpline
 70
8
 71
3
 72
8
 73
4
 74
0
 40
0
 40
0
 40
0
 40
0
 40
1
 40
1
 40
1
 40
1
 10
172.640000
 20
742.400000
 30
0.0
 10
173.200000
 20
749.760000
 30
0.0
 10
174.000000
 20
757.600000
 30
0.0
 10
174.480000
 20
759.840000
 30
0.0
  0
SPLINE
  5
13b
100
AcDbEntity
  8
0
 62
7
100
AcDbSpline
 70
8
 71
3
 72
8
 73
4
 74
0
 40
0
 40
0
 40
0
 40
0
 40
1
 40
1
 40
1
 40
1
 10
174.480000
 20
759.840000
 30
0.0
 10
174.960000
 20
762.160000
 30
0.0
 10
175.360000
 20
767.440000
 30
0.0
 10
175.360000
 20
771.600000
 30
0.0
  0
SPLINE
  5
13c
100
AcDbEntity
  8
0
 62
7
100
AcDbSpline
 70
8
 71
3
 72
8
 73
4
 74
0
 40
0
 40
0
 40
0
 40
0
 40
1
 40
1
 40
1
 40
1
 10
175.360000
 20
771.600000
 30
0.0
 10
175.360000
 20
782.240000
 30
0.0
 10
175.600000
 20
782.800000
 30
0.0
 10
181.120000
 20
785.600000
 30
0.0
  0
SPLINE
  5
13d
100
AcDbEntity
  8
0
 62
7
100
AcDbSpline
 70
8
 71
3
 72
8
 73
4
 74
0
 40
0
 40
0
 40
0
 40
0
 40
1
 40
1
 40
1
 40
1
 10
181.120000
 20
785.600000
 30
0.0
 10
185.760000
 20
787.920000
 30
0.0
 10
186.000000
 20
787.920000
 30
0.0
 10
197.120000
 20
788.160000
 30
0.0
  0
SPLINE
  5
13e
100
AcDbEntity
  8
0
 62
7
100
AcDbSpline
 70
8
 71
3
 72
8
 73
4
 74
0
 40
0
 40
0
 40
0
 40
0
 40
1
 40
1
 40
1
 40
1
 10
197.120000
 20
788.160000
 30
0.0
 10
208.240000
 20
788.400000
 30
0.0
 10
208.560000
 20
788.400000
 30
0.0
 10
214.080000
 20
786.320000
 30
0.0
  0
SPLINE
  5
13f
100
AcDbEntity
  8
0
 62
7
100
AcDbSpline
 70
8
 71
3
 72
8
 73
4
 74
0
 40
0
 40
0
 40
0
 40
0
 40
1
 40
1
 40
1
 40
1
 10
214.080000
 20
786.320000
 30
0.0
 10
220.720000
 20
783.840000
 30
0.0
 10
224.000000
 20
783.600000
 30
0.0
 10
225.600000
 20
785.520000
 30
0.0
  0
SPLINE
  5
140
100
AcDbEntity
  8
0
 62
7
100
AcDbSpline
 70
8
 71
3
 72
8
 73
4
 74
0
 40
0
 40
0
 40
0
 40
0
 40
1
 40
1
 40
1
 40
1
 10
225.600000
 20
785.520000
 30
0.0
 10
227.280000
 20
787.520000
 30
0.0
 10
228.000000
 20
787.280000
 30
0.0
 10
228.640000
 20
784.320000
 30
0.0
  0
SPLINE
  5
141
100
AcDbEntity
  8
0
 62
7
100
AcDbSpline
 70
8
 71
3
 72
8
 73
4
 74
0
 40
0
 40
0
 40
0
 40
0
 40
1
 40
1
 40
1
 40
1
 10
228.640000
 20
784.320000
 30
0.0
 10
229.760000
 20
779.360000
 30
0.0
 10
230.080000
 20
778.720000
 30
0.0
 10
231.520000
 20
778.720000
 30
0.0
  0
SPLINE
  5
142
100
AcDbEntity
  8
0
 62
7
100
AcDbSpline
 70
8
 71
3
 72
8
 73
4
 74
0
 40
0
 40
0
 40
0
 40
0
 40
1
 40
1
 40
1
 40
1
 10
231.520000
 20
778.720000
 30
0.0
 10
233.440000
 20
778.720000
 30
0.0
 10
232.800000
 20
775.920000
 30
0.0
 10
230.000000
 20
771.680000
 30
0.0
  0
SPLINE
  5
143
100
AcDbEntity
  8
0
 62
7
100
AcDbSpline
 70
8
 71
3
 72
8
 73
4
 74
0
 40
0
 40
0
 40
0
 40
0
 40
1
 40
1
 40
1
 40
1
 10
230.000000
 20
771.680000
 30
0.0
 10
227.360000
 20
767.760000
 30
0.0
 10
226.240000
 20
759.280000
 30
0.0
 10
227.360000
 20
752.000000
 30
0.0
  0
SPLINE
  5
144
100
AcDbEntity
  8
0
 62
7
100
AcDbSpline
 70
8
 71
3
 72
8
 73
4
 74
0
 40
0
 40
0
 40
0
 40
0
 40
1
 40
1
 40
1
 40
1
 10
227.360000
 20
752.000000
 30
0.0
 10
228.480000
 20
744.720000
 30
0.0
 10
227.600000
 20
734.800000
 30
0.0
 10
225.280000
 20
727.760000
 30
0.0
  0
SPLINE
  5
145
100
AcDbEntity
  8
0
 62
7
100
AcDbSpline
 70
8
 71
3
 72
8
 73
4
 74
0
 40
0
 40
0
 40
0
 40
0
 40
1
 40
1
 40
1
 40
1
 10
225.280000
 20
727.760000
 30
0.0
 10
223.840000
 20
723.440000
 30
0.0
 10
223.600000
 20
721.200000
 30
0.0
 10
224.080000
 20
716.800000
 30
0.0
  0
SPLINE
  5
146
100
AcDbEntity
  8
0
 62
7
100
AcDbSpline
 70
8
 71
3
 72
8
 73
4
 74
0
 40
0
 40
0
 40
0
 40
0
 40
1
 40
1
 40
1
 40
1
 10
224.080000
 20
716.800000
 30
0.0
 10
225.040000
 20
707.760000
 30
0.0
 10
228.400000
 20
703.680000
 30
0.0
 10
235.200000
 20
702.880000
 30
0.0
  0
SPLINE
  5
147
100
AcDbEntity
  8
0
 62
7
100
AcDbSpline
 70
8
 71
3
 72
8
 73
4
 74
0
 40
0
 40
0
 40
0
 40
0
 40
1
 40
1
 40
1
 40
1
 10
235.200000
 20
702.880000
 30
0.0
 10
237.440000
 20
702.640000
 30
0.0
 10
240.400000
 20
701.520000
 30
0.0
 10
243.200000
 20
699.840000
 30
0.0
  0
SPLINE
  5
148
100
AcDbEntity
  8
0
 62
7
100
AcDbSpline
 70
8
 71
3
 72
8
 73
4
 74
0
 40
0
 40
0
 40
0
 40
0
 40
1
 40
1
 40
1
 40
1
 10
243.200000
 20
699.840000
 30
0.0
 10
245.600000
 20
698.320000
 30
0.0
 10
249.200000
 20
696.720000
 30
0.0
 10
251.120000
 20
696.160000
 30
0.0
  0
SPLINE
  5
149
100
AcDbEntity
  8
0
 62
7
100
AcDbSpline
 70
8
 71
3
 72
8
 73
4
 74
0
 40
0
 40
0
 40
0
 40
0
 40
1
 40
1
 40
1
 40
1
 10
251.120000
 20
696.160000
 30
0.0
 10
257.120000
 20
694.640000
 30
0.0
 10
261.680000
 20
692.720000
 30
0.0
 10
268.560000
 20
688.800000
 30
0.0
  0
SPLINE
  5
14a
100
AcDbEntity
  8
0
 62
7
100
AcDbSpline
 70
8
 71
3
 72
8
 73
4
 74
0
 40
0
 40
0
 40
0
 40
0
 40
1
 40
1
 40
1
 40
1
 10
268.560000
 20
688.800000
 30
0.0
 10
274.800000
 20
685.200000
 30
0.0
 10
275.440000
 20
684.960000
 30
0.0
 10
283.360000
 20
684.160000
 30
0.0
  0
SPLINE
  5
14b
100
AcDbEntity
  8
0
 62
7
100
AcDbSpline
 70
8
 71
3
 72
8
 73
4
 74
0
 40
0
 40
0
 40
0
 40
0
 40
1
 40
1
 40
1
 40
1
 10
283.360000
 20
684.160000
 30
0.0
 10
296.960000
 20
682.800000
 30
0.0
 10
304.400000
 20
679.440000
 30
0.0
 10
308.720000
 20
672.640000
 30
0.0
  0
SPLINE
  5
14c
100
AcDbEntity
  8
0
 62
7
100
AcDbSpline
 70
8
 71
3
 72
8
 73
4
 74
0
 40
0
 40
0
 40
0
 40
0
 40
1
 40
1
 40
1
 40
1
 10
308.720000
 20
672.640000
 30
0.0
 10
311.120000
 20
668.960000
 30
0.0
 10
314.240000
 20
658.480000
 30
0.0
 10
314.240000
 20
654.320000
 30
0.0
  0
SPLINE
  5
14d
100
AcDbEntity
  8
0
 62
7
100
AcDbSpline
 70
8
 71
3
 72
8
 73
4
 74
0
 40
0
 40
0
 40
0
 40
0
 40
1
 40
1
 40
1
 40
1
 10
314.240000
 20
654.320000
 30
0.0
 10
314.240000
 20
651.600000
 30
0.0
 10
314.560000
 20
651.280000
 30
0.0
 10
319.280000
 20
648.960000
 30
0.0
  0
SPLINE
  5
14e
100
AcDbEntity
  8
0
 62
7
100
AcDbSpline
 70
8
 71
3
 72
8
 73
4
 74
0
 40
0
 40
0
 40
0
 40
0
 40
1
 40
1
 40
1
 40
1
 10
319.280000
 20
648.960000
 30
0.0
 10
327.120000
 20
645.200000
 30
0.0
 10
336.880000
 20
638.800000
 30
0.0
 10
347.920000
 20
630.480000
 30
0.0
  0
SPLINE
  5
14f
100
AcDbEntity
  8
0
 62
7
100
AcDbSpline
 70
8
 71
3
 72
8
 73
4
 74
0
 40
0
 40
0
 40
0
 40
0
 40
1
 40
1
 40
1
 40
1
 10
347.920000
 20
630.480000
 30
0.0
 10
360.480000
 20
620.960000
 30
0.0
 10
379.360000
 20
605.120000
 30
0.0
 10
381.040000
 20
602.720000
 30
0.0
  0
SPLINE
  5
150
100
AcDbEntity
  8
0
 62
7
100
AcDbSpline
 70
8
 71
3
 72
8
 73
4
 74
0
 40
0
 40
0
 40
0
 40
0
 40
1
 40
1
 40
1
 40
1
 10
381.040000
 20
602.720000
 30
0.0
 10
381.680000
 20
601.760000
 30
0.0
 10
383.920000
 20
599.040000
 30
0.0
 10
386.000000
 20
596.720000
 30
0.0
  0
SPLINE
  5
151
100
AcDbEntity
  8
0
 62
7
100
AcDbSpline
 70
8
 71
3
 72
8
 73
4
 74
0
 40
0
 40
0
 40
0
 40
0
 40
1
 40
1
 40
1
 40
1
 10
386.000000
 20
596.720000
 30
0.0
 10
388.080000
 20
594.400000
 30
0.0
 10
390.480000
 20
591.520000
 30
0.0
 10
391.360000
 20
590.320000
 30
0.0
  0
SPLINE
  5
152
100
AcDbEntity
  8
0
 62
7
100
AcDbSpline
 70
8
 71
3
 72
8
 73
4
 74
0
 40
0
 40
0
 40
0
 40
0
 40
1
 40
1
 40
1
 40
1
 10
391.360000
 20
590.320000
 30
0.0
 10
392.480000
 20
588.800000
 30
0.0
 10
394.640000
 20
587.600000
 30
0.0
 10
398.720000
 20
586.240000
 30
0.0
  0
SPLINE
  5
153
100
AcDbEntity
  8
0
 62
7
100
AcDbSpline
 70
8
 71
3
 72
8
 73
4
 74
0
 40
0
 40
0
 40
0
 40
0
 40
1
 40
1
 40
1
 40
1
 10
398.720000
 20
586.240000
 30
0.0
 10
441.040000
 20
572.160000
 30
0.0
 10
451.440000
 20
568.480000
 30
0.0
 10
459.120000
 20
565.040000
 30
0.0
  0
SPLINE
  5
154
100
AcDbEntity
  8
0
 62
7
100
AcDbSpline
 70
8
 71
3
 72
8
 73
4
 74
0
 40
0
 40
0
 40
0
 40
0
 40
1
 40
1
 40
1
 40
1
 10
459.120000
 20
565.040000
 30
0.0
 10
462.560000
 20
563.440000
 30
0.0
 10
465.680000
 20
562.240000
 30
0.0
 10
466.000000
 20
562.240000
 30
0.0
  0
SPLINE
  5
155
100
AcDbEntity
  8
0
 62
7
100
AcDbSpline
 70
8
 71
3
 72
8
 73
4
 74
0
 40
0
 40
0
 40
0
 40
0
 40
1
 40
1
 40
1
 40
1
 10
466.000000
 20
562.240000
 30
0.0
 10
466.400000
 20
562.240000
 30
0.0
 10
467.520000
 20
561.680000
 30
0.0
 10
468.480000
 20
560.960000
 30
0.0
  0
SPLINE
  5
156
100
AcDbEntity
  8
0
 62
7
100
AcDbSpline
 70
8
 71
3
 72
8
 73
4
 74
0
 40
0
 40
0
 40
0
 40
0
 40
1
 40
1
 40
1
 40
1
 10
468.480000
 20
560.960000
 30
0.0
 10
471.440000
 20
558.960000
 30
0.0
 10
477.840000
 20
555.920000
 30
0.0
 10
492.960000
 20
549.200000
 30
0.0
  0
SPLINE
  5
157
100
AcDbEntity
  8
0
 62
7
100
AcDbSpline
 70
8
 71
3
 72
8
 73
4
 74
0
 40
0
 40
0
 40
0
 40
0
 40
1
 40
1
 40
1
 40
1
 10
492.960000
 20
549.200000
 30
0.0
 10
517.680000
 20
538.240000
 30
0.0
 10
526.480000
 20
533.520000
 30
0.0
 10
536.320000
 20
525.760000
 30
0.0
  0
SPLINE
  5
158
100
AcDbEntity
  8
0
 62
7
100
AcDbSpline
 70
8
 71
3
 72
8
 73
4
 74
0
 40
0
 40
0
 40
0
 40
0
 40
1
 40
1
 40
1
 40
1
 10
536.320000
 20
525.760000
 30
0.0
 10
544.880000
 20
518.960000
 30
0.0
 10
547.840000
 20
514.800000
 30
0.0
 10
554.080000
 20
501.040000
 30
0.0
  0
SPLINE
  5
159
100
AcDbEntity
  8
0
 62
7
100
AcDbSpline
 70
8
 71
3
 72
8
 73
4
 74
0
 40
0
 40
0
 40
0
 40
0
 40
1
 40
1
 40
1
 40
1
 10
554.080000
 20
501.040000
 30
0.0
 10
556.400000
 20
495.920000
 30
0.0
 10
556.960000
 20
493.440000
 30
0.0
 10
557.440000
 20
485.200000
 30
0.0
  0
SPLINE
  5
15a
100
AcDbEntity
  8
0
 62
7
100
AcDbSpline
 70
8
 71
3
 72
8
 73
4
 74
0
 40
0
 40
0
 40
0
 40
0
 40
1
 40
1
 40
1
 40
1
 10
557.440000
 20
485.200000
 30
0.0
 10
558.000000
 20
476.480000
 30
0.0
 10
557.840000
 20
474.720000
 30
0.0
 10
556.000000
 20
469.280000
 30
0.0
  0
SPLINE
  5
15b
100
AcDbEntity
  8
0
 62
7
100
AcDbSpline
 70
8
 71
3
 72
8
 73
4
 74
0
 40
0
 40
0
 40
0
 40
0
 40
1
 40
1
 40
1
 40
1
 10
556.000000
 20
469.280000
 30
0.0
 10
554.880000
 20
465.840000
 30
0.0
 10
554.080000
 20
461.920000
 30
0.0
 10
554.240000
 20
460.480000
 30
0.0
  0
SPLINE
  5
15c
100
AcDbEntity
  8
0
 62
7
100
AcDbSpline
 70
8
 71
3
 72
8
 73
4
 74
0
 40
0
 40
0
 40
0
 40
0
 40
1
 40
1
 40
1
 40
1
 10
554.240000
 20
460.480000
 30
0.0
 10
554.480000
 20
458.080000
 30
0.0
 10
555.040000
 20
457.600000
 30
0.0
 10
560.080000
 20
455.360000
 30
0.0
  0
SPLINE
  5
15d
100
AcDbEntity
  8
0
 62
7
100
AcDbSpline
 70
8
 71
3
 72
8
 73
4
 74
0
 40
0
 40
0
 40
0
 40
0
 40
1
 40
1
 40
1
 40
1
 10
560.080000
 20
455.360000
 30
0.0
 10
568.000000
 20
451.840000
 30
0.0
 10
568.000000
 20
450.240000
 30
0.0
 10
560.000000
 20
442.320000
 30
0.0
  0
SPLINE
  5
15e
100
AcDbEntity
  8
0
 62
7
100
AcDbSpline
 70
8
 71
3
 72
8
 73
4
 74
0
 40
0
 40
0
 40
0
 40
0
 40
1
 40
1
 40
1
 40
1
 10
560.000000
 20
442.320000
 30
0.0
 10
557.920000
 20
440.240000
 30
0.0
 10
555.120000
 20
437.280000
 30
0.0
 10
553.840000
 20
435.760000
 30
0.0
  0
SPLINE
  5
15f
100
AcDbEntity
  8
0
 62
7
100
AcDbSpline
 70
8
 71
3
 72
8
 73
4
 74
0
 40
0
 40
0
 40
0
 40
0
 40
1
 40
1
 40
1
 40
1
 10
553.840000
 20
435.760000
 30
0.0
 10
552.560000
 20
434.240000
 30
0.0
 10
549.200000
 20
431.680000
 30
0.0
 10
546.400000
 20
430.080000
 30
0.0
  0
SPLINE
  5
160
100
AcDbEntity
  8
0
 62
7
100
AcDbSpline
 70
8
 71
3
 72
8
 73
4
 74
0
 40
0
 40
0
 40
0
 40
0
 40
1
 40
1
 40
1
 40
1
 10
546.400000
 20
430.080000
 30
0.0
 10
542.240000
 20
427.760000
 30
0.0
 10
540.560000
 20
427.200000
 30
0.0
 10
538.160000
 20
427.360000
 30
0.0
  0
SPLINE
  5
161
100
AcDbEntity
  8
0
 62
7
100
AcDbSpline
 70
8
 71
3
 72
8
 73
4
 74
0
 40
0
 40
0
 40
0
 40
0
 40
1
 40
1
 40
1
 40
1
 10
538.160000
 20
427.360000
 30
0.0
 10
535.280000
 20
427.600000
 30
0.0
 10
534.800000
 20
428.000000
 30
0.0
 10
529.920000
 20
435.120000
 30
0.0
  0
SPLINE
  5
162
100
AcDbEntity
  8
0
 62
7
100
AcDbSpline
 70
8
 71
3
 72
8
 73
4
 74
0
 40
0
 40
0
 40
0
 40
0
 40
1
 40
1
 40
1
 40
1
 10
529.920000
 20
435.120000
 30
0.0
 10
513.360000
 20
459.440000
 30
0.0
 10
509.440000
 20
464.560000
 30
0.0
 10
500.560000
 20
472.720000
 30
0.0
  0
SPLINE
  5
163
100
AcDbEntity
  8
0
 62
7
100
AcDbSpline
 70
8
 71
3
 72
8
 73
4
 74
0
 40
0
 40
0
 40
0
 40
0
 40
1
 40
1
 40
1
 40
1
 10
500.560000
 20
472.720000
 30
0.0
 10
490.320000
 20
482.240000
 30
0.0
 10
491.680000
 20
481.120000
 30
0.0
 10
483.120000
 20
487.600000
 30
0.0
  0
SPLINE
  5
164
100
AcDbEntity
  8
0
 62
7
100
AcDbSpline
 70
8
 71
3
 72
8
 73
4
 74
0
 40
0
 40
0
 40
0
 40
0
 40
1
 40
1
 40
1
 40
1
 10
483.120000
 20
487.600000
 30
0.0
 10
474.080000
 20
494.560000
 30
0.0
 10
470.400000
 20
496.960000
 30
0.0
 10
463.120000
 20
500.800000
 30
0.0
  0
LINE
  5
165
100
AcDbEntity
  8
0
 62
7
100
AcDbLine
 10
463.120000
 20
500.800000
 30
0.0
 11
456.880000
 21
504.080000
 31
0.0
  0
LINE
  5
166
100
AcDbEntity
  8
0
 62
7
100
AcDbLine
 10
456.880000
 20
504.080000
 30
0.0
 11
453.440000
 21
502.880000
 31
0.0
  0
SPLINE
  5
167
100
AcDbEntity
  8
0
 62
7
100
AcDbSpline
 70
8
 71
3
 72
8
 73
4
 74
0
 40
0
 40
0
 40
0
 40
0
 40
1
 40
1
 40
1
 40
1
 10
453.440000
 20
502.880000
 30
0.0
 10
448.000000
 20
500.960000
 30
0.0
 10
439.200000
 20
494.000000
 30
0.0
 10
435.360000
 20
488.560000
 30
0.0
  0
SPLINE
  5
168
100
AcDbEntity
  8
0
 62
7
100
AcDbSpline
 70
8
 71
3
 72
8
 73
4
 74
0
 40
0
 40
0
 40
0
 40
0
 40
1
 40
1
 40
1
 40
1
 10
435.360000
 20
488.560000
 30
0.0
 10
430.640000
 20
481.840000
 30
0.0
 10
427.360000
 20
472.960000
 30
0.0
 10
425.840000
 20
462.560000
 30
0.0
  0
SPLINE
  5
169
100
AcDbEntity
  8
0
 62
7
100
AcDbSpline
 70
8
 71
3
 72
8
 73
4
 74
0
 40
0
 40
0
 40
0
 40
0
 40
1
 40
1
 40
1
 40
1
 10
425.840000
 20
462.560000
 30
0.0
 10
424.080000
 20
451.200000
 30
0.0
 10
424.080000
 20
445.040000
 30
0.0
 10
425.840000
 20
431.920000
 30
0.0
  0
SPLINE
  5
16a
100
AcDbEntity
  8
0
 62
7
100
AcDbSpline
 70
8
 71
3
 72
8
 73
4
 74
0
 40
0
 40
0
 40
0
 40
0
 40
1
 40
1
 40
1
 40
1
 10
425.840000
 20
431.920000
 30
0.0
 10
427.520000
 20
419.520000
 30
0.0
 10
429.120000
 20
412.720000
 30
0.0
 10
432.960000
 20
401.520000
 30
0.0
  0
SPLINE
  5
16b
100
AcDbEntity
  8
0
 62
7
100
AcDbSpline
 70
8
 71
3
 72
8
 73
4
 74
0
 40
0
 40
0
 40
0
 40
0
 40
1
 40
1
 40
1
 40
1
 10
432.960000
 20
401.520000
 30
0.0
 10
435.520000
 20
393.920000
 30
0.0
 10
435.680000
 20
392.720000
 30
0.0
 10
435.200000
 20
385.120000
 30
0.0
  0
SPLINE
  5
16c
100
AcDbEntity
  8
0
 62
7
100
AcDbSpline
 70
8
 71
3
 72
8
 73
4
 74
0
 40
0
 40
0
 40
0
 40
0
 40
1
 40
1
 40
1
 40
1
 10
435.200000
 20
385.120000
 30
0.0
 10
434.240000
 20
369.280000
 30
0.0
 10
428.960000
 20
359.600000
 30
0.0
 10
418.480000
 20
354.240000
 30
0.0
  0
SPLINE
  5
16d
100
AcDbEntity
  8
0
 62
7
100
AcDbSpline
 70
8
 71
3
 72
8
 73
4
 74
0
 40
0
 40
0
 40
0
 40
0
 40
1
 40
1
 40
1
 40
1
 10
418.480000
 20
354.240000
 30
0.0
 10
412.160000
 20
351.040000
 30
0.0
 10
405.120000
 20
349.600000
 30
0.0
 10
399.040000
 20
350.160000
 30
0.0
  0
SPLINE
  5
16e
100
AcDbEntity
  8
0
 62
7
100
AcDbSpline
 70
8
 71
3
 72
8
 73
4
 74
0
 40
0
 40
0
 40
0
 40
0
 40
1
 40
1
 40
1
 40
1
 10
399.040000
 20
350.160000
 30
0.0
 10
396.480000
 20
350.400000
 30
0.0
 10
385.600000
 20
350.720000
 30
0.0
 10
374.880000
 20
350.720000
 30
0.0
  0
LINE
  5
16f
100
AcDbEntity
  8
0
 62
7
100
AcDbLine
 10
374.880000
 20
350.720000
 30
0.0
 11
355.440000
 21
350.800000
 31
0.0
  0
LINE
  5
170
100
AcDbEntity
  8
0
 62
7
100
AcDbLine
 10
355.440000
 20
350.800000
 30
0.0
 11
346.000000
 21
348.320000
 31
0.0
  0
SPLINE
  5
171
100
AcDbEntity
  8
0
 62
7
100
AcDbSpline
 70
8
 71
3
 72
8
 73
4
 74
0
 40
0
 40
0
 40
0
 40
0
 40
1
 40
1
 40
1
 40
1
 10
346.000000
 20
348.320000
 30
0.0
 10
340.800000
 20
346.960000
 30
0.0
 10
334.640000
 20
344.800000
 30
0.0
 10
332.240000
 20
343.600000
 30
0.0
  0
SPLINE
  5
172
100
AcDbEntity
  8
0
 62
7
100
AcDbSpline
 70
8
 71
3
 72
8
 73
4
 74
0
 40
0
 40
0
 40
0
 40
0
 40
1
 40
1
 40
1
 40
1
 10
332.240000
 20
343.600000
 30
0.0
 10
326.480000
 20
340.640000
 30
0.0
 10
318.720000
 20
335.040000
 30
0.0
 10
316.400000
 20
332.000000
 30
0.0
  0
SPLINE
  5
173
100
AcDbEntity
  8
0
 62
7
100
AcDbSpline
 70
8
 71
3
 72
8
 73
4
 74
0
 40
0
 40
0
 40
0
 40
0
 40
1
 40
1
 40
1
 40
1
 10
316.400000
 20
332.000000
 30
0.0
 10
313.120000
 20
327.760000
 30
0.0
 10
313.040000
 20
326.160000
 30
0.0
 10
315.920000
 20
322.160000
 30
0.0
  0
SPLINE
  5
174
100
AcDbEntity
  8
0
 62
7
100
AcDbSpline
 70
8
 71
3
 72
8
 73
4
 74
0
 40
0
 40
0
 40
0
 40
0
 40
1
 40
1
 40
1
 40
1
 10
315.920000
 20
322.160000
 30
0.0
 10
318.800000
 20
318.320000
 30
0.0
 10
321.760000
 20
312.480000
 30
0.0
 10
323.440000
 20
306.960000
 30
0.0
  0
SPLINE
  5
175
100
AcDbEntity
  8
0
 62
7
100
AcDbSpline
 70
8
 71
3
 72
8
 73
4
 74
0
 40
0
 40
0
 40
0
 40
0
 40
1
 40
1
 40
1
 40
1
 10
323.440000
 20
306.960000
 30
0.0
 10
324.400000
 20
304.080000
 30
0.0
 10
325.760000
 20
302.560000
 30
0.0
 10
333.120000
 20
296.960000
 30
0.0
  0
SPLINE
  5
176
100
AcDbEntity
  8
0
 62
7
100
AcDbSpline
 70
8
 71
3
 72
8
 73
4
 74
0
 40
0
 40
0
 40
0
 40
0
 40
1
 40
1
 40
1
 40
1
 10
333.120000
 20
296.960000
 30
0.0
 10
340.000000
 20
291.600000
 30
0.0
 10
342.320000
 20
290.240000
 30
0.0
 10
345.120000
 20
289.840000
 30
0.0
  0
SPLINE
  5
177
100
AcDbEntity
  8
0
 62
7
100
AcDbSpline
 70
8
 71
3
 72
8
 73
4
 74
0
 40
0
 40
0
 40
0
 40
0
 40
1
 40
1
 40
1
 40
1
 10
345.120000
 20
289.840000
 30
0.0
 10
351.920000
 20
288.880000
 30
0.0
 10
348.800000
 20
285.280000
 30
0.0
 10
335.520000
 20
278.800000
 30
0.0
  0
SPLINE
  5
178
100
AcDbEntity
  8
0
 62
7
100
AcDbSpline
 70
8
 71
3
 72
8
 73
4
 74
0
 40
0
 40
0
 40
0
 40
0
 40
1
 40
1
 40
1
 40
1
 10
335.520000
 20
278.800000
 30
0.0
 10
330.560000
 20
276.400000
 30
0.0
 10
325.840000
 20
273.680000
 30
0.0
 10
325.120000
 20
272.880000
 30
0.0
  0
SPLINE
  5
179
100
AcDbEntity
  8
0
 62
7
100
AcDbSpline
 70
8
 71
3
 72
8
 73
4
 74
0
 40
0
 40
0
 40
0
 40
0
 40
1
 40
1
 40
1
 40
1
 10
325.120000
 20
272.880000
 30
0.0
 10
323.760000
 20
271.360000
 30
0.0
 10
323.360000
 20
268.080000
 30
0.0
 10
320.720000
 20
237.440000
 30
0.0
  0
SPLINE
  5
17a
100
AcDbEntity
  8
0
 62
7
100
AcDbSpline
 70
8
 71
3
 72
8
 73
4
 74
0
 40
0
 40
0
 40
0
 40
0
 40
1
 40
1
 40
1
 40
1
 10
320.720000
 20
237.440000
 30
0.0
 10
319.600000
 20
224.160000
 30
0.0
 10
319.600000
 20
208.000000
 30
0.0
 10
320.720000
 20
208.000000
 30
0.0
  0
SPLINE
  5
17b
100
AcDbEntity
  8
0
 62
7
100
AcDbSpline
 70
8
 71
3
 72
8
 73
4
 74
0
 40
0
 40
0
 40
0
 40
0
 40
1
 40
1
 40
1
 40
1
 10
320.720000
 20
208.000000
 30
0.0
 10
321.200000
 20
208.000000
 30
0.0
 10
323.120000
 20
205.600000
 30
0.0
 10
324.880000
 20
202.720000
 30
0.0
  0
SPLINE
  5
17c
100
AcDbEntity
  8
0
 62
7
100
AcDbSpline
 70
8
 71
3
 72
8
 73
4
 74
0
 40
0
 40
0
 40
0
 40
0
 40
1
 40
1
 40
1
 40
1
 10
324.880000
 20
202.720000
 30
0.0
 10
327.760000
 20
198.160000
 30
0.0
 10
328.160000
 20
196.880000
 30
0.0
 10
328.160000
 20
192.160000
 30
0.0
  0
SPLINE
  5
17d
100
AcDbEntity
  8
0
 62
7
100
AcDbSpline
 70
8
 71
3
 72
8
 73
4
 74
0
 40
0
 40
0
 40
0
 40
0
 40
1
 40
1
 40
1
 40
1
 10
328.160000
 20
192.160000
 30
0.0
 10
328.160000
 20
186.560000
 30
0.0
 10
327.840000
 20
187.200000
 30
0.0
 10
337.040000
 20
172.480000
 30
0.0
  0
SPLINE
  5
17e
100
AcDbEntity
  8
0
 62
7
100
AcDbSpline
 70
8
 71
3
 72
8
 73
4
 74
0
 40
0
 40
0
 40
0
 40
0
 40
1
 40
1
 40
1
 40
1
 10
337.040000
 20
172.480000
 30
0.0
 10
338.720000
 20
169.760000
 30
0.0
 10
341.360000
 20
166.240000
 30
0.0
 10
342.800000
 20
164.640000
 30
0.0
  0
SPLINE
  5
17f
100
AcDbEntity
  8
0
 62
7
100
AcDbSpline
 70
8
 71
3
 72
8
 73
4
 74
0
 40
0
 40
0
 40
0
 40
0
 40
1
 40
1
 40
1
 40
1
 10
342.800000
 20
164.640000
 30
0.0
 10
351.120000
 20
155.520000
 30
0.0
 10
351.040000
 20
147.200000
 30
0.0
 10
342.560000
 20
144.960000
 30
0.0
  0
SPLINE
  5
180
100
AcDbEntity
  8
0
 62
7
100
AcDbSpline
 70
8
 71
3
 72
8
 73
4
 74
0
 40
0
 40
0
 40
0
 40
0
 40
1
 40
1
 40
1
 40
1
 10
342.560000
 20
144.960000
 30
0.0
 10
336.320000
 20
143.360000
 30
0.0
 10
314.720000
 20
145.440000
 30
0.0
 10
300.800000
 20
149.040000
 30
0.0
  0
SPLINE
  5
181
100
AcDbEntity
  8
0
 62
7
100
AcDbSpline
 70
8
 71
3
 72
8
 73
4
 74
0
 40
0
 40
0
 40
0
 40
0
 40
1
 40
1
 40
1
 40
1
 10
300.800000
 20
149.040000
 30
0.0
 10
291.440000
 20
151.440000
 30
0.0
 10
291.120000
 20
151.760000
 30
0.0
 10
291.120000
 20
157.840000
 30
0.0
  0
SPLINE
  5
182
100
AcDbEntity
  8
0
 62
7
100
AcDbSpline
 70
8
 71
3
 72
8
 73
4
 74
0
 40
0
 40
0
 40
0
 40
0
 40
1
 40
1
 40
1
 40
1
 10
291.120000
 20
157.840000
 30
0.0
 10
291.120000
 20
160.720000
 30
0.0
 10
291.760000
 20
168.720000
 30
0.0
 10
292.560000
 20
175.520000
 30
0.0
  0
SPLINE
  5
183
100
AcDbEntity
  8
0
 62
7
100
AcDbSpline
 70
8
 71
3
 72
8
 73
4
 74
0
 40
0
 40
0
 40
0
 40
0
 40
1
 40
1
 40
1
 40
1
 10
292.560000
 20
175.520000
 30
0.0
 10
293.840000
 20
187.040000
 30
0.0
 10
293.840000
 20
188.240000
 30
0.0
 10
292.400000
 20
192.640000
 30
0.0
  0
SPLINE
  5
184
100
AcDbEntity
  8
0
 62
7
100
AcDbSpline
 70
8
 71
3
 72
8
 73
4
 74
0
 40
0
 40
0
 40
0
 40
0
 40
1
 40
1
 40
1
 40
1
 10
292.400000
 20
192.640000
 30
0.0
 10
291.120000
 20
196.400000
 30
0.0
 10
290.800000
 20
200.320000
 30
0.0
 10
290.880000
 20
211.680000
 30
0.0
  0
SPLINE
  5
185
100
AcDbEntity
  8
0
 62
7
100
AcDbSpline
 70
8
 71
3
 72
8
 73
4
 74
0
 40
0
 40
0
 40
0
 40
0
 40
1
 40
1
 40
1
 40
1
 10
290.880000
 20
211.680000
 30
0.0
 10
291.040000
 20
226.880000
 30
0.0
 10
290.960000
 20
227.120000
 30
0.0
 10
285.520000
 20
235.920000
 30
0.0
  0
SPLINE
  5
186
100
AcDbEntity
  8
0
 62
7
100
AcDbSpline
 70
8
 71
3
 72
8
 73
4
 74
0
 40
0
 40
0
 40
0
 40
0
 40
1
 40
1
 40
1
 40
1
 10
285.520000
 20
235.920000
 30
0.0
 10
284.560000
 20
237.520000
 30
0.0
 10
283.680000
 20
238.960000
 30
0.0
 10
283.680000
 20
239.120000
 30
0.0
  0
SPLINE
  5
187
100
AcDbEntity
  8
0
 62
7
100
AcDbSpline
 70
8
 71
3
 72
8
 73
4
 74
0
 40
0
 40
0
 40
0
 40
0
 40
1
 40
1
 40
1
 40
1
 10
283.680000
 20
239.120000
 30
0.0
 10
283.680000
 20
239.360000
 30
0.0
 10
282.000000
 20
242.160000
 30
0.0
 10
279.920000
 20
245.520000
 30
0.0
  0
SPLINE
  5
188
100
AcDbEntity
  8
0
 62
7
100
AcDbSpline
 70
8
 71
3
 72
8
 73
4
 74
0
 40
0
 40
0
 40
0
 40
0
 40
1
 40
1
 40
1
 40
1
 10
279.920000
 20
245.520000
 30
0.0
 10
275.360000
 20
252.640000
 30
0.0
 10
265.200000
 20
270.160000
 30
0.0
 10
265.200000
 20
270.800000
 30
0.0
  0
SPLINE
  5
189
100
AcDbEntity
  8
0
 62
7
100
AcDbSpline
 70
8
 71
3
 72
8
 73
4
 74
0
 40
0
 40
0
 40
0
 40
0
 40
1
 40
1
 40
1
 40
1
 10
265.200000
 20
270.800000
 30
0.0
 10
265.200000
 20
271.040000
 30
0.0
 10
264.400000
 20
271.920000
 30
0.0
 10
263.440000
 20
272.720000
 30
0.0
  0
SPLINE
  5
18a
100
AcDbEntity
  8
0
 62
7
100
AcDbSpline
 70
8
 71
3
 72
8
 73
4
 74
0
 40
0
 40
0
 40
0
 40
0
 40
1
 40
1
 40
1
 40
1
 10
263.440000
 20
272.720000
 30
0.0
 10
262.480000
 20
273.440000
 30
0.0
 10
260.320000
 20
277.360000
 30
0.0
 10
258.640000
 20
281.280000
 30
0.0
  0
LINE
  5
18b
100
AcDbEntity
  8
0
 62
7
100
AcDbLine
 10
258.640000
 20
281.280000
 30
0.0
 11
255.600000
 21
288.400000
 31
0.0
  0
LINE
  5
18c
100
AcDbEntity
  8
0
 62
7
100
AcDbLine
 10
255.600000
 20
288.400000
 30
0.0
 11
257.280000
 21
307.600000
 31
0.0
  0
LINE
  5
18d
100
AcDbEntity
  8
0
 62
7
100
AcDbLine
 10
257.280000
 20
307.600000
 30
0.0
 11
258.880000
 21
326.880000
 31
0.0
  0
LINE
  5
18e
100
AcDbEntity
  8
0
 62
7
100
AcDbLine
 10
258.880000
 20
326.880000
 30
0.0
 11
256.080000
 21
333.040000
 31
0.0
  0
SPLINE
  5
18f
100
AcDbEntity
  8
0
 62
7
100
AcDbSpline
 70
8
 71
3
 72
8
 73
4
 74
0
 40
0
 40
0
 40
0
 40
0
 40
1
 40
1
 40
1
 40
1
 10
256.080000
 20
333.040000
 30
0.0
 10
254.560000
 20
336.400000
 30
0.0
 10
252.880000
 20
342.000000
 30
0.0
 10
252.240000
 20
345.360000
 30
0.0
  0
SPLINE
  5
190
100
AcDbEntity
  8
0
 62
7
100
AcDbSpline
 70
8
 71
3
 72
8
 73
4
 74
0
 40
0
 40
0
 40
0
 40
0
 40
1
 40
1
 40
1
 40
1
 10
252.240000
 20
345.360000
 30
0.0
 10
251.680000
 20
348.720000
 30
0.0
 10
250.160000
 20
353.440000
 30
0.0
 10
248.880000
 20
355.840000
 30
0.0
  0
SPLINE
  5
191
100
AcDbEntity
  8
0
 62
7
100
AcDbSpline
 70
8
 71
3
 72
8
 73
4
 74
0
 40
0
 40
0
 40
0
 40
0
 40
1
 40
1
 40
1
 40
1
 10
248.880000
 20
355.840000
 30
0.0
 10
247.600000
 20
358.160000
 30
0.0
 10
246.320000
 20
362.160000
 30
0.0
 10
246.000000
 20
364.720000
 30
0.0
  0
SPLINE
  5
192
100
AcDbEntity
  8
0
 62
7
100
AcDbSpline
 70
8
 71
3
 72
8
 73
4
 74
0
 40
0
 40
0
 40
0
 40
0
 40
1
 40
1
 40
1
 40
1
 10
246.000000
 20
364.720000
 30
0.0
 10
245.440000
 20
369.120000
 30
0.0
 10
245.120000
 20
369.600000
 30
0.0
 10
238.320000
 20
376.480000
 30
0.0
  0
SPLINE
  5
193
100
AcDbEntity
  8
0
 62
7
100
AcDbSpline
 70
8
 71
3
 72
8
 73
4
 74
0
 40
0
 40
0
 40
0
 40
0
 40
1
 40
1
 40
1
 40
1
 10
238.320000
 20
376.480000
 30
0.0
 10
230.080000
 20
384.880000
 30
0.0
 10
228.240000
 20
387.360000
 30
0.0
 10
223.840000
 20
396.320000
 30
0.0
  0
SPLINE
  5
194
100
AcDbEntity
  8
0
 62
7
100
AcDbSpline
 70
8
 71
3
 72
8
 73
4
 74
0
 40
0
 40
0
 40
0
 40
0
 40
1
 40
1
 40
1
 40
1
 10
223.840000
 20
396.320000
 30
0.0
 10
217.280000
 20
409.680000
 30
0.0
 10
215.120000
 20
417.600000
 30
0.0
 10
214.400000
 20
430.160000
 30
0.0
  0
SPLINE
  5
195
100
AcDbEntity
  8
0
 62
7
100
AcDbSpline
 70
8
 71
3
 72
8
 73
4
 74
0
 40
0
 40
0
 40
0
 40
0
 40
1
 40
1
 40
1
 40
1
 10
214.400000
 20
430.160000
 30
0.0
 10
213.920000
 20
439.120000
 30
0.0
 10
213.440000
 20
441.840000
 30
0.0
 10
212.400000
 20
442.400000
 30
0.0
  0
SPLINE
  5
196
100
AcDbEntity
  8
0
 62
7
100
AcDbSpline
 70
8
 71
3
 72
8
 73
4
 74
0
 40
0
 40
0
 40
0
 40
0
 40
1
 40
1
 40
1
 40
1
 10
212.400000
 20
442.400000
 30
0.0
 10
210.960000
 20
443.040000
 30
0.0
 10
204.160000
 20
442.640000
 30
0.0
 10
202.960000
 20
441.760000
 30
0.0
  0
SPLINE
  5
197
100
AcDbEntity
  8
0
 62
7
100
AcDbSpline
 70
8
 71
3
 72
8
 73
4
 74
0
 40
0
 40
0
 40
0
 40
0
 40
1
 40
1
 40
1
 40
1
 10
202.960000
 20
441.760000
 30
0.0
 10
202.560000
 20
441.440000
 30
0.0
 10
201.040000
 20
435.040000
 30
0.0
 10
199.520000
 20
427.520000
 30
0.0
  0
SPLINE
  5
198
100
AcDbEntity
  8
0
 62
7
100
AcDbSpline
 70
8
 71
3
 72
8
 73
4
 74
0
 40
0
 40
0
 40
0
 40
0
 40
1
 40
1
 40
1
 40
1
 10
199.520000
 20
427.520000
 30
0.0
 10
193.120000
 20
396.240000
 30
0.0
 10
192.160000
 20
392.560000
 30
0.0
 10
188.160000
 20
385.200000
 30
0.0
  0
SPLINE
  5
199
100
AcDbEntity
  8
0
 62
7
100
AcDbSpline
 70
8
 71
3
 72
8
 73
4
 74
0
 40
0
 40
0
 40
0
 40
0
 40
1
 40
1
 40
1
 40
1
 10
188.160000
 20
385.200000
 30
0.0
 10
183.360000
 20
376.240000
 30
0.0
 10
176.080000
 20
365.040000
 30
0.0
 10
172.240000
 20
360.960000
 30
0.0
  0
SPLINE
  5
19a
100
AcDbEntity
  8
0
 62
7
100
AcDbSpline
 70
8
 71
3
 72
8
 73
4
 74
0
 40
0
 40
0
 40
0
 40
0
 40
1
 40
1
 40
1
 40
1
 10
172.240000
 20
360.960000
 30
0.0
 10
166.320000
 20
354.560000
 30
0.0
 10
164.480000
 20
351.520000
 30
0.0
 10
163.360000
 20
346.400000
 30
0.0
  0
SPLINE
  5
19b
100
AcDbEntity
  8
0
 62
7
100
AcDbSpline
 70
8
 71
3
 72
8
 73
4
 74
0
 40
0
 40
0
 40
0
 40
0
 40
1
 40
1
 40
1
 40
1
 10
163.360000
 20
346.400000
 30
0.0
 10
161.600000
 20
338.240000
 30
0.0
 10
158.880000
 20
329.440000
 30
0.0
 10
156.320000
 20
323.200000
 30
0.0
  0
SPLINE
  5
19c
100
AcDbEntity
  8
0
 62
7
100
AcDbSpline
 70
8
 71
3
 72
8
 73
4
 74
0
 40
0
 40
0
 40
0
 40
0
 40
1
 40
1
 40
1
 40
1
 10
156.320000
 20
323.200000
 30
0.0
 10
154.080000
 20
317.680000
 30
0.0
 10
154.000000
 20
317.120000
 30
0.0
 10
154.640000
 20
305.360000
 30
0.0
  0
SPLINE
  5
19d
100
AcDbEntity
  8
0
 62
7
100
AcDbSpline
 70
8
 71
3
 72
8
 73
4
 74
0
 40
0
 40
0
 40
0
 40
0
 40
1
 40
1
 40
1
 40
1
 10
154.640000
 20
305.360000
 30
0.0
 10
155.360000
 20
292.080000
 30
0.0
 10
154.560000
 20
287.680000
 30
0.0
 10
148.400000
 20
268.960000
 30
0.0
  0
SPLINE
  5
19e
100
AcDbEntity
  8
0
 62
7
100
AcDbSpline
 70
8
 71
3
 72
8
 73
4
 74
0
 40
0
 40
0
 40
0
 40
0
 40
1
 40
1
 40
1
 40
1
 10
148.400000
 20
268.960000
 30
0.0
 10
142.560000
 20
251.280000
 30
0.0
 10
139.200000
 20
244.480000
 30
0.0
 10
131.280000
 20
234.720000
 30
0.0
  0
SPLINE
  5
19f
100
AcDbEntity
  8
0
 62
7
100
AcDbSpline
 70
8
 71
3
 72
8
 73
4
 74
0
 40
0
 40
0
 40
0
 40
0
 40
1
 40
1
 40
1
 40
1
 10
131.280000
 20
234.720000
 30
0.0
 10
125.520000
 20
227.600000
 30
0.0
 10
125.440000
 20
227.440000
 30
0.0
 10
122.800000
 20
216.560000
 30
0.0
  0
SPLINE
  5
1a0
100
AcDbEntity
  8
0
 62
7
100
AcDbSpline
 70
8
 71
3
 72
8
 73
4
 74
0
 40
0
 40
0
 40
0
 40
0
 40
1
 40
1
 40
1
 40
1
 10
122.800000
 20
216.560000
 30
0.0
 10
120.160000
 20
206.000000
 30
0.0
 10
120.080000
 20
204.960000
 30
0.0
 10
120.400000
 20
189.280000
 30
0.0
  0
SPLINE
  5
1a1
100
AcDbEntity
  8
0
 62
7
100
AcDbSpline
 70
8
 71
3
 72
8
 73
4
 74
0
 40
0
 40
0
 40
0
 40
0
 40
1
 40
1
 40
1
 40
1
 10
120.400000
 20
189.280000
 30
0.0
 10
120.720000
 20
174.000000
 30
0.0
 10
121.200000
 20
170.000000
 30
0.0
 10
123.600000
 20
161.760000
 30
0.0
  0
SPLINE
  5
1a2
100
AcDbEntity
  8
0
 62
7
100
AcDbSpline
 70
8
 71
3
 72
8
 73
4
 74
0
 40
0
 40
0
 40
0
 40
0
 40
1
 40
1
 40
1
 40
1
 10
123.600000
 20
161.760000
 30
0.0
 10
124.720000
 20
158.000000
 30
0.0
 10
124.960000
 20
145.840000
 30
0.0
 10
124.080000
 20
141.680000
 30
0.0
  0
SPLINE
  5
1a3
100
AcDbEntity
  8
0
 62
7
100
AcDbSpline
 70
8
 71
3
 72
8
 73
4
 74
0
 40
0
 40
0
 40
0
 40
0
 40
1
 40
1
 40
1
 40
1
 10
124.080000
 20
141.680000
 30
0.0
 10
123.600000
 20
139.600000
 30
0.0
 10
122.880000
 20
138.880000
 30
0.0
 10
120.480000
 20
138.160000
 30
0.0
  0
SPLINE
  5
1a4
100
AcDbEntity
  8
0
 62
7
100
AcDbSpline
 70
8
 71
3
 72
8
 73
4
 74
0
 40
0
 40
0
 40
0
 40
0
 40
1
 40
1
 40
1
 40
1
 10
120.480000
 20
138.160000
 30
0.0
 10
116.880000
 20
137.120000
 30
0.0
 10
93.360000
 20
136.640000
 30
0.0
 10
83.760000
 20
137.440000
 30
0.0
  0
LINE
  5
1a5
100
AcDbEntity
  8
0
 62
7
100
AcDbLine
 10
83.760000
 20
137.440000
 30
0.0
 11
83.760000
 21
137.440000
 31
0.0
  0
SPLINE
  5
1a6
100
AcDbEntity
  8
0
 62
7
100
AcDbSpline
 70
8
 71
3
 72
8
 73
4
 74
0
 40
0
 40
0
 40
0
 40
0
 40
1
 40
1
 40
1
 40
1
 10
62.240000
 20
60.560000
 30
0.0
 10
65.520000
 20
59.520000
 30
0.0
 10
67.920000
 20
57.920000
 30
0.0
 10
69.520000
 20
55.760000
 30
0.0
  0
SPLINE
  5
1a7
100
AcDbEntity
  8
0
 62
7
100
AcDbSpline
 70
8
 71
3
 72
8
 73
4
 74
0
 40
0
 40
0
 40
0
 40
0
 40
1
 40
1
 40
1
 40
1
 10
69.520000
 20
55.760000
 30
0.0
 10
71.120000
 20
53.520000
 30
0.0
 10
71.920000
 20
50.960000
 30
0.0
 10
71.920000
 20
48.080000
 30
0.0
  0
SPLINE
  5
1a8
100
AcDbEntity
  8
0
 62
7
100
AcDbSpline
 70
8
 71
3
 72
8
 73
4
 74
0
 40
0
 40
0
 40
0
 40
0
 40
1
 40
1
 40
1
 40
1
 10
71.920000
 20
48.080000
 30
0.0
 10
71.920000
 20
45.200000
 30
0.0
 10
71.200000
 20
42.560000
 30
0.0
 10
69.760000
 20
40.160000
 30
0.0
  0
SPLINE
  5
1a9
100
AcDbEntity
  8
0
 62
7
100
AcDbSpline
 70
8
 71
3
 72
8
 73
4
 74
0
 40
0
 40
0
 40
0
 40
0
 40
1
 40
1
 40
1
 40
1
 10
69.760000
 20
40.160000
 30
0.0
 10
68.320000
 20
37.760000
 30
0.0
 10
66.240000
 20
36.000000
 30
0.0
 10
63.520000
 20
34.800000
 30
0.0
  0
SPLINE
  5
1aa
100
AcDbEntity
  8
0
 62
7
100
AcDbSpline
 70
8
 71
3
 72
8
 73
4
 74
0
 40
0
 40
0
 40
0
 40
0
 40
1
 40
1
 40
1
 40
1
 10
63.520000
 20
34.800000
 30
0.0
 10
60.880000
 20
33.680000
 30
0.0
 10
57.280000
 20
33.120000
 30
0.0
 10
52.720000
 20
33.120000
 30
0.0
  0
LINE
  5
1ab
100
AcDbEntity
  8
0
 62
7
100
AcDbLine
 10
52.720000
 20
33.120000
 30
0.0
 11
32.960000
 21
33.120000
 31
0.0
  0
LINE
  5
1ac
100
AcDbEntity
  8
0
 62
7
100
AcDbLine
 10
32.960000
 20
33.120000
 30
0.0
 11
32.960000
 21
84.640000
 31
0.0
  0
LINE
  5
1ad
100
AcDbEntity
  8
0
 62
7
100
AcDbLine
 10
32.960000
 20
84.640000
 30
0.0
 11
52.320000
 21
84.640000
 31
0.0
  0
SPLINE
  5
1ae
100
AcDbEntity
  8
0
 62
7
100
AcDbSpline
 70
8
 71
3
 72
8
 73
4
 74
0
 40
0
 40
0
 40
0
 40
0
 40
1
 40
1
 40
1
 40
1
 10
52.320000
 20
84.640000
 30
0.0
 10
58.560000
 20
84.640000
 30
0.0
 10
62.960000
 20
83.280000
 30
0.0
 10
65.520000
 20
80.560000
 30
0.0
  0
SPLINE
  5
1af
100
AcDbEntity
  8
0
 62
7
100
AcDbSpline
 70
8
 71
3
 72
8
 73
4
 74
0
 40
0
 40
0
 40
0
 40
0
 40
1
 40
1
 40
1
 40
1
 10
65.520000
 20
80.560000
 30
0.0
 10
68.080000
 20
77.840000
 30
0.0
 10
69.360000
 20
74.800000
 30
0.0
 10
69.360000
 20
71.520000
 30
0.0
  0
SPLINE
  5
1b0
100
AcDbEntity
  8
0
 62
7
100
AcDbSpline
 70
8
 71
3
 72
8
 73
4
 74
0
 40
0
 40
0
 40
0
 40
0
 40
1
 40
1
 40
1
 40
1
 10
69.360000
 20
71.520000
 30
0.0
 10
69.360000
 20
69.280000
 30
0.0
 10
68.800000
 20
67.200000
 30
0.0
 10
67.600000
 20
65.280000
 30
0.0
  0
SPLINE
  5
1b1
100
AcDbEntity
  8
0
 62
7
100
AcDbSpline
 70
8
 71
3
 72
8
 73
4
 74
0
 40
0
 40
0
 40
0
 40
0
 40
1
 40
1
 40
1
 40
1
 10
67.600000
 20
65.280000
 30
0.0
 10
66.400000
 20
63.360000
 30
0.0
 10
64.640000
 20
61.760000
 30
0.0
 10
62.240000
 20
60.560000
 30
0.0
  0
LINE
  5
1b2
100
AcDbEntity
  8
0
 62
7
100
AcDbLine
 10
62.240000
 20
60.560000
 30
0.0
 11
62.240000
 21
60.560000
 31
0.0
  0
LINE
  5
1b3
100
AcDbEntity
  8
0
 62
7
100
AcDbLine
 10
39.760000
 20
63.040000
 30
0.0
 11
50.960000
 21
63.040000
 31
0.0
  0
SPLINE
  5
1b4
100
AcDbEntity
  8
0
 62
7
100
AcDbSpline
 70
8
 71
3
 72
8
 73
4
 74
0
 40
0
 40
0
 40
0
 40
0
 40
1
 40
1
 40
1
 40
1
 10
50.960000
 20
63.040000
 30
0.0
 10
53.280000
 20
63.040000
 30
0.0
 10
55.200000
 20
63.200000
 30
0.0
 10
56.720000
 20
63.440000
 30
0.0
  0
SPLINE
  5
1b5
100
AcDbEntity
  8
0
 62
7
100
AcDbSpline
 70
8
 71
3
 72
8
 73
4
 74
0
 40
0
 40
0
 40
0
 40
0
 40
1
 40
1
 40
1
 40
1
 10
56.720000
 20
63.440000
 30
0.0
 10
58.320000
 20
63.680000
 30
0.0
 10
59.680000
 20
64.400000
 30
0.0
 10
60.880000
 20
65.520000
 30
0.0
  0
SPLINE
  5
1b6
100
AcDbEntity
  8
0
 62
7
100
AcDbSpline
 70
8
 71
3
 72
8
 73
4
 74
0
 40
0
 40
0
 40
0
 40
0
 40
1
 40
1
 40
1
 40
1
 10
60.880000
 20
65.520000
 30
0.0
 10
62.080000
 20
66.560000
 30
0.0
 10
62.640000
 20
68.320000
 30
0.0
 10
62.640000
 20
70.640000
 30
0.0
  0
SPLINE
  5
1b7
100
AcDbEntity
  8
0
 62
7
100
AcDbSpline
 70
8
 71
3
 72
8
 73
4
 74
0
 40
0
 40
0
 40
0
 40
0
 40
1
 40
1
 40
1
 40
1
 10
62.640000
 20
70.640000
 30
0.0
 10
62.640000
 20
73.040000
 30
0.0
 10
62.080000
 20
74.880000
 30
0.0
 10
60.880000
 20
76.000000
 30
0.0
  0
SPLINE
  5
1b8
100
AcDbEntity
  8
0
 62
7
100
AcDbSpline
 70
8
 71
3
 72
8
 73
4
 74
0
 40
0
 40
0
 40
0
 40
0
 40
1
 40
1
 40
1
 40
1
 10
60.880000
 20
76.000000
 30
0.0
 10
59.680000
 20
77.200000
 30
0.0
 10
58.240000
 20
77.920000
 30
0.0
 10
56.560000
 20
78.160000
 30
0.0
  0
SPLINE
  5
1b9
100
AcDbEntity
  8
0
 62
7
100
AcDbSpline
 70
8
 71
3
 72
8
 73
4
 74
0
 40
0
 40
0
 40
0
 40
0
 40
1
 40
1
 40
1
 40
1
 10
56.560000
 20
78.160000
 30
0.0
 10
54.880000
 20
78.400000
 30
0.0
 10
52.720000
 20
78.560000
 30
0.0
 10
50.080000
 20
78.560000
 30
0.0
  0
LINE
  5
1ba
100
AcDbEntity
  8
0
 62
7
100
AcDbLine
 10
50.080000
 20
78.560000
 30
0.0
 11
39.760000
 21
78.560000
 31
0.0
  0
LINE
  5
1bb
100
AcDbEntity
  8
0
 62
7
100
AcDbLine
 10
39.760000
 20
78.560000
 30
0.0
 11
39.760000
 21
63.040000
 31
0.0
  0
LINE
  5
1bc
100
AcDbEntity
  8
0
 62
7
100
AcDbLine
 10
39.760000
 20
63.040000
 30
0.0
 11
39.760000
 21
63.040000
 31
0.0
  0
LINE
  5
1bd
100
AcDbEntity
  8
0
 62
7
100
AcDbLine
 10
39.760000
 20
39.200000
 30
0.0
 11
52.640000
 21
39.200000
 31
0.0
  0
SPLINE
  5
1be
100
AcDbEntity
  8
0
 62
7
100
AcDbSpline
 70
8
 71
3
 72
8
 73
4
 74
0
 40
0
 40
0
 40
0
 40
0
 40
1
 40
1
 40
1
 40
1
 10
52.640000
 20
39.200000
 30
0.0
 10
57.200000
 20
39.200000
 30
0.0
 10
60.400000
 20
40.000000
 30
0.0
 10
62.160000
 20
41.600000
 30
0.0
  0
SPLINE
  5
1bf
100
AcDbEntity
  8
0
 62
7
100
AcDbSpline
 70
8
 71
3
 72
8
 73
4
 74
0
 40
0
 40
0
 40
0
 40
0
 40
1
 40
1
 40
1
 40
1
 10
62.160000
 20
41.600000
 30
0.0
 10
64.000000
 20
43.200000
 30
0.0
 10
64.880000
 20
45.360000
 30
0.0
 10
64.880000
 20
48.080000
 30
0.0
  0
SPLINE
  5
1c0
100
AcDbEntity
  8
0
 62
7
100
AcDbSpline
 70
8
 71
3
 72
8
 73
4
 74
0
 40
0
 40
0
 40
0
 40
0
 40
1
 40
1
 40
1
 40
1
 10
64.880000
 20
48.080000
 30
0.0
 10
64.880000
 20
50.880000
 30
0.0
 10
63.920000
 20
53.040000
 30
0.0
 10
62.000000
 20
54.640000
 30
0.0
  0
SPLINE
  5
1c1
100
AcDbEntity
  8
0
 62
7
100
AcDbSpline
 70
8
 71
3
 72
8
 73
4
 74
0
 40
0
 40
0
 40
0
 40
0
 40
1
 40
1
 40
1
 40
1
 10
62.000000
 20
54.640000
 30
0.0
 10
60.080000
 20
56.160000
 30
0.0
 10
56.720000
 20
56.960000
 30
0.0
 10
51.760000
 20
56.960000
 30
0.0
  0
LINE
  5
1c2
100
AcDbEntity
  8
0
 62
7
100
AcDbLine
 10
51.760000
 20
56.960000
 30
0.0
 11
39.760000
 21
56.960000
 31
0.0
  0
LINE
  5
1c3
100
AcDbEntity
  8
0
 62
7
100
AcDbLine
 10
39.760000
 20
56.960000
 30
0.0
 11
39.760000
 21
39.200000
 31
0.0
  0
LINE
  5
1c4
100
AcDbEntity
  8
0
 62
7
100
AcDbLine
 10
39.760000
 20
39.200000
 30
0.0
 11
39.760000
 21
39.200000
 31
0.0
  0
LINE
  5
1c5
100
AcDbEntity
  8
0
 62
7
100
AcDbLine
 10
86.800000
 20
33.120000
 30
0.0
 11
80.480000
 21
33.120000
 31
0.0
  0
LINE
  5
1c6
100
AcDbEntity
  8
0
 62
7
100
AcDbLine
 10
80.480000
 20
33.120000
 30
0.0
 11
80.480000
 21
70.400000
 31
0.0
  0
LINE
  5
1c7
100
AcDbEntity
  8
0
 62
7
100
AcDbLine
 10
80.480000
 20
70.400000
 30
0.0
 11
86.800000
 21
70.400000
 31
0.0
  0
LINE
  5
1c8
100
AcDbEntity
  8
0
 62
7
100
AcDbLine
 10
86.800000
 20
70.400000
 30
0.0
 11
86.800000
 21
33.120000
 31
0.0
  0
LINE
  5
1c9
100
AcDbEntity
  8
0
 62
7
100
AcDbLine
 10
86.800000
 20
33.120000
 30
0.0
 11
86.800000
 21
33.120000
 31
0.0
  0
LINE
  5
1ca
100
AcDbEntity
  8
0
 62
7
100
AcDbLine
 10
86.800000
 20
77.520000
 30
0.0
 11
80.480000
 21
77.520000
 31
0.0
  0
LINE
  5
1cb
100
AcDbEntity
  8
0
 62
7
100
AcDbLine
 10
80.480000
 20
77.520000
 30
0.0
 11
80.480000
 21
84.640000
 31
0.0
  0
LINE
  5
1cc
100
AcDbEntity
  8
0
 62
7
100
AcDbLine
 10
80.480000
 20
84.640000
 30
0.0
 11
86.800000
 21
84.640000
 31
0.0
  0
LINE
  5
1cd
100
AcDbEntity
  8
0
 62
7
100
AcDbLine
 10
86.800000
 20
84.640000
 30
0.0
 11
86.800000
 21
77.520000
 31
0.0
  0
LINE
  5
1ce
100
AcDbEntity
  8
0
 62
7
100
AcDbLine
 10
86.800000
 20
77.520000
 30
0.0
 11
86.800000
 21
77.520000
 31
0.0
  0
SPLINE
  5
1cf
100
AcDbEntity
  8
0
 62
7
100
AcDbSpline
 70
8
 71
3
 72
8
 73
4
 74
0
 40
0
 40
0
 40
0
 40
0
 40
1
 40
1
 40
1
 40
1
 10
117.280000
 20
60.000000
 30
0.0
 10
116.960000
 20
62.000000
 30
0.0
 10
116.160000
 20
63.520000
 30
0.0
 10
114.800000
 20
64.560000
 30
0.0
  0
SPLINE
  5
1d0
100
AcDbEntity
  8
0
 62
7
100
AcDbSpline
 70
8
 71
3
 72
8
 73
4
 74
0
 40
0
 40
0
 40
0
 40
0
 40
1
 40
1
 40
1
 40
1
 10
114.800000
 20
64.560000
 30
0.0
 10
113.440000
 20
65.600000
 30
0.0
 10
111.520000
 20
66.080000
 30
0.0
 10
109.120000
 20
66.080000
 30
0.0
  0
SPLINE
  5
1d1
100
AcDbEntity
  8
0
 62
7
100
AcDbSpline
 70
8
 71
3
 72
8
 73
4
 74
0
 40
0
 40
0
 40
0
 40
0
 40
1
 40
1
 40
1
 40
1
 10
109.120000
 20
66.080000
 30
0.0
 10
106.640000
 20
66.080000
 30
0.0
 10
104.720000
 20
65.680000
 30
0.0
 10
103.200000
 20
64.880000
 30
0.0
  0
SPLINE
  5
1d2
100
AcDbEntity
  8
0
 62
7
100
AcDbSpline
 70
8
 71
3
 72
8
 73
4
 74
0
 40
0
 40
0
 40
0
 40
0
 40
1
 40
1
 40
1
 40
1
 10
103.200000
 20
64.880000
 30
0.0
 10
101.760000
 20
64.080000
 30
0.0
 10
100.960000
 20
62.880000
 30
0.0
 10
100.960000
 20
61.280000
 30
0.0
  0
SPLINE
  5
1d3
100
AcDbEntity
  8
0
 62
7
100
AcDbSpline
 70
8
 71
3
 72
8
 73
4
 74
0
 40
0
 40
0
 40
0
 40
0
 40
1
 40
1
 40
1
 40
1
 10
100.960000
 20
61.280000
 30
0.0
 10
100.960000
 20
59.840000
 30
0.0
 10
101.600000
 20
58.720000
 30
0.0
 10
102.800000
 20
58.080000
 30
0.0
  0
SPLINE
  5
1d4
100
AcDbEntity
  8
0
 62
7
100
AcDbSpline
 70
8
 71
3
 72
8
 73
4
 74
0
 40
0
 40
0
 40
0
 40
0
 40
1
 40
1
 40
1
 40
1
 10
102.800000
 20
58.080000
 30
0.0
 10
103.920000
 20
57.520000
 30
0.0
 10
106.320000
 20
56.720000
 30
0.0
 10
109.760000
 20
55.760000
 30
0.0
  0
SPLINE
  5
1d5
100
AcDbEntity
  8
0
 62
7
100
AcDbSpline
 70
8
 71
3
 72
8
 73
4
 74
0
 40
0
 40
0
 40
0
 40
0
 40
1
 40
1
 40
1
 40
1
 10
109.760000
 20
55.760000
 30
0.0
 10
113.760000
 20
54.800000
 30
0.0
 10
116.640000
 20
53.920000
 30
0.0
 10
118.640000
 20
53.120000
 30
0.0
  0
SPLINE
  5
1d6
100
AcDbEntity
  8
0
 62
7
100
AcDbSpline
 70
8
 71
3
 72
8
 73
4
 74
0
 40
0
 40
0
 40
0
 40
0
 40
1
 40
1
 40
1
 40
1
 10
118.640000
 20
53.120000
 30
0.0
 10
120.560000
 20
52.320000
 30
0.0
 10
122.080000
 20
51.280000
 30
0.0
 10
123.200000
 20
49.840000
 30
0.0
  0
SPLINE
  5
1d7
100
AcDbEntity
  8
0
 62
7
100
AcDbSpline
 70
8
 71
3
 72
8
 73
4
 74
0
 40
0
 40
0
 40
0
 40
0
 40
1
 40
1
 40
1
 40
1
 10
123.200000
 20
49.840000
 30
0.0
 10
124.320000
 20
48.480000
 30
0.0
 10
124.800000
 20
46.560000
 30
0.0
 10
124.800000
 20
44.080000
 30
0.0
  0
SPLINE
  5
1d8
100
AcDbEntity
  8
0
 62
7
100
AcDbSpline
 70
8
 71
3
 72
8
 73
4
 74
0
 40
0
 40
0
 40
0
 40
0
 40
1
 40
1
 40
1
 40
1
 10
124.800000
 20
44.080000
 30
0.0
 10
124.800000
 20
40.720000
 30
0.0
 10
123.440000
 20
37.920000
 30
0.0
 10
120.720000
 20
35.680000
 30
0.0
  0
SPLINE
  5
1d9
100
AcDbEntity
  8
0
 62
7
100
AcDbSpline
 70
8
 71
3
 72
8
 73
4
 74
0
 40
0
 40
0
 40
0
 40
0
 40
1
 40
1
 40
1
 40
1
 10
120.720000
 20
35.680000
 30
0.0
 10
118.000000
 20
33.360000
 30
0.0
 10
114.400000
 20
32.240000
 30
0.0
 10
109.840000
 20
32.240000
 30
0.0
  0
SPLINE
  5
1da
100
AcDbEntity
  8
0
 62
7
100
AcDbSpline
 70
8
 71
3
 72
8
 73
4
 74
0
 40
0
 40
0
 40
0
 40
0
 40
1
 40
1
 40
1
 40
1
 10
109.840000
 20
32.240000
 30
0.0
 10
105.120000
 20
32.240000
 30
0.0
 10
101.440000
 20
33.280000
 30
0.0
 10
98.800000
 20
35.280000
 30
0.0
  0
SPLINE
  5
1db
100
AcDbEntity
  8
0
 62
7
100
AcDbSpline
 70
8
 71
3
 72
8
 73
4
 74
0
 40
0
 40
0
 40
0
 40
0
 40
1
 40
1
 40
1
 40
1
 10
98.800000
 20
35.280000
 30
0.0
 10
96.080000
 20
37.280000
 30
0.0
 10
94.480000
 20
40.240000
 30
0.0
 10
93.840000
 20
44.240000
 30
0.0
  0
LINE
  5
1dc
100
AcDbEntity
  8
0
 62
7
100
AcDbLine
 10
93.840000
 20
44.240000
 30
0.0
 11
100.160000
 21
45.200000
 31
0.0
  0
SPLINE
  5
1dd
100
AcDbEntity
  8
0
 62
7
100
AcDbSpline
 70
8
 71
3
 72
8
 73
4
 74
0
 40
0
 40
0
 40
0
 40
0
 40
1
 40
1
 40
1
 40
1
 10
100.160000
 20
45.200000
 30
0.0
 10
100.480000
 20
42.640000
 30
0.0
 10
101.440000
 20
40.640000
 30
0.0
 10
103.040000
 20
39.360000
 30
0.0
  0
SPLINE
  5
1de
100
AcDbEntity
  8
0
 62
7
100
AcDbSpline
 70
8
 71
3
 72
8
 73
4
 74
0
 40
0
 40
0
 40
0
 40
0
 40
1
 40
1
 40
1
 40
1
 10
103.040000
 20
39.360000
 30
0.0
 10
104.640000
 20
38.080000
 30
0.0
 10
106.880000
 20
37.440000
 30
0.0
 10
109.760000
 20
37.440000
 30
0.0
  0
SPLINE
  5
1df
100
AcDbEntity
  8
0
 62
7
100
AcDbSpline
 70
8
 71
3
 72
8
 73
4
 74
0
 40
0
 40
0
 40
0
 40
0
 40
1
 40
1
 40
1
 40
1
 10
109.760000
 20
37.440000
 30
0.0
 10
112.560000
 20
37.440000
 30
0.0
 10
114.640000
 20
38.000000
 30
0.0
 10
116.160000
 20
39.200000
 30
0.0
  0
SPLINE
  5
1e0
100
AcDbEntity
  8
0
 62
7
100
AcDbSpline
 70
8
 71
3
 72
8
 73
4
 74
0
 40
0
 40
0
 40
0
 40
0
 40
1
 40
1
 40
1
 40
1
 10
116.160000
 20
39.200000
 30
0.0
 10
117.600000
 20
40.320000
 30
0.0
 10
118.400000
 20
41.760000
 30
0.0
 10
118.400000
 20
43.440000
 30
0.0
  0
SPLINE
  5
1e1
100
AcDbEntity
  8
0
 62
7
100
AcDbSpline
 70
8
 71
3
 72
8
 73
4
 74
0
 40
0
 40
0
 40
0
 40
0
 40
1
 40
1
 40
1
 40
1
 10
118.400000
 20
43.440000
 30
0.0
 10
118.400000
 20
44.560000
 30
0.0
 10
118.000000
 20
45.440000
 30
0.0
 10
117.360000
 20
46.160000
 30
0.0
  0
SPLINE
  5
1e2
100
AcDbEntity
  8
0
 62
7
100
AcDbSpline
 70
8
 71
3
 72
8
 73
4
 74
0
 40
0
 40
0
 40
0
 40
0
 40
1
 40
1
 40
1
 40
1
 10
117.360000
 20
46.160000
 30
0.0
 10
116.640000
 20
46.800000
 30
0.0
 10
115.840000
 20
47.280000
 30
0.0
 10
114.800000
 20
47.680000
 30
0.0
  0
SPLINE
  5
1e3
100
AcDbEntity
  8
0
 62
7
100
AcDbSpline
 70
8
 71
3
 72
8
 73
4
 74
0
 40
0
 40
0
 40
0
 40
0
 40
1
 40
1
 40
1
 40
1
 10
114.800000
 20
47.680000
 30
0.0
 10
113.760000
 20
48.000000
 30
0.0
 10
111.520000
 20
48.560000
 30
0.0
 10
107.920000
 20
49.440000
 30
0.0
  0
SPLINE
  5
1e4
100
AcDbEntity
  8
0
 62
7
100
AcDbSpline
 70
8
 71
3
 72
8
 73
4
 74
0
 40
0
 40
0
 40
0
 40
0
 40
1
 40
1
 40
1
 40
1
 10
107.920000
 20
49.440000
 30
0.0
 10
102.640000
 20
50.720000
 30
0.0
 10
99.120000
 20
52.240000
 30
0.0
 10
97.440000
 20
54.080000
 30
0.0
  0
SPLINE
  5
1e5
100
AcDbEntity
  8
0
 62
7
100
AcDbSpline
 70
8
 71
3
 72
8
 73
4
 74
0
 40
0
 40
0
 40
0
 40
0
 40
1
 40
1
 40
1
 40
1
 10
97.440000
 20
54.080000
 30
0.0
 10
95.760000
 20
55.840000
 30
0.0
 10
94.880000
 20
58.000000
 30
0.0
 10
94.880000
 20
60.560000
 30
0.0
  0
SPLINE
  5
1e6
100
AcDbEntity
  8
0
 62
7
100
AcDbSpline
 70
8
 71
3
 72
8
 73
4
 74
0
 40
0
 40
0
 40
0
 40
0
 40
1
 40
1
 40
1
 40
1
 10
94.880000
 20
60.560000
 30
0.0
 10
94.880000
 20
63.680000
 30
0.0
 10
96.160000
 20
66.240000
 30
0.0
 10
98.640000
 20
68.240000
 30
0.0
  0
SPLINE
  5
1e7
100
AcDbEntity
  8
0
 62
7
100
AcDbSpline
 70
8
 71
3
 72
8
 73
4
 74
0
 40
0
 40
0
 40
0
 40
0
 40
1
 40
1
 40
1
 40
1
 10
98.640000
 20
68.240000
 30
0.0
 10
101.120000
 20
70.240000
 30
0.0
 10
104.400000
 20
71.280000
 30
0.0
 10
108.640000
 20
71.280000
 30
0.0
  0
SPLINE
  5
1e8
100
AcDbEntity
  8
0
 62
7
100
AcDbSpline
 70
8
 71
3
 72
8
 73
4
 74
0
 40
0
 40
0
 40
0
 40
0
 40
1
 40
1
 40
1
 40
1
 10
108.640000
 20
71.280000
 30
0.0
 10
113.040000
 20
71.280000
 30
0.0
 10
116.560000
 20
70.400000
 30
0.0
 10
119.040000
 20
68.640000
 30
0.0
  0
SPLINE
  5
1e9
100
AcDbEntity
  8
0
 62
7
100
AcDbSpline
 70
8
 71
3
 72
8
 73
4
 74
0
 40
0
 40
0
 40
0
 40
0
 40
1
 40
1
 40
1
 40
1
 10
119.040000
 20
68.640000
 30
0.0
 10
121.520000
 20
66.880000
 30
0.0
 10
122.960000
 20
64.320000
 30
0.0
 10
123.440000
 20
60.800000
 30
0.0
  0
LINE
  5
1ea
100
AcDbEntity
  8
0
 62
7
100
AcDbLine
 10
123.440000
 20
60.800000
 30
0.0
 11
117.280000
 21
60.000000
 31
0.0
  0
LINE
  5
1eb
100
AcDbEntity
  8
0
 62
7
100
AcDbLine
 10
117.280000
 20
60.000000
 30
0.0
 11
117.280000
 21
60.000000
 31
0.0
  0
SPLINE
  5
1ec
100
AcDbEntity
  8
0
 62
7
100
AcDbSpline
 70
8
 71
3
 72
8
 73
4
 74
0
 40
0
 40
0
 40
0
 40
0
 40
1
 40
1
 40
1
 40
1
 10
147.040000
 20
33.200000
 30
0.0
 10
145.120000
 20
32.800000
 30
0.0
 10
143.520000
 20
32.640000
 30
0.0
 10
142.240000
 20
32.640000
 30
0.0
  0
SPLINE
  5
1ed
100
AcDbEntity
  8
0
 62
7
100
AcDbSpline
 70
8
 71
3
 72
8
 73
4
 74
0
 40
0
 40
0
 40
0
 40
0
 40
1
 40
1
 40
1
 40
1
 10
142.240000
 20
32.640000
 30
0.0
 10
139.520000
 20
32.640000
 30
0.0
 10
137.520000
 20
33.120000
 30
0.0
 10
136.240000
 20
34.080000
 30
0.0
  0
SPLINE
  5
1ee
100
AcDbEntity
  8
0
 62
7
100
AcDbSpline
 70
8
 71
3
 72
8
 73
4
 74
0
 40
0
 40
0
 40
0
 40
0
 40
1
 40
1
 40
1
 40
1
 10
136.240000
 20
34.080000
 30
0.0
 10
134.960000
 20
35.040000
 30
0.0
 10
134.160000
 20
36.320000
 30
0.0
 10
133.920000
 20
37.760000
 30
0.0
  0
SPLINE
  5
1ef
100
AcDbEntity
  8
0
 62
7
100
AcDbSpline
 70
8
 71
3
 72
8
 73
4
 74
0
 40
0
 40
0
 40
0
 40
0
 40
1
 40
1
 40
1
 40
1
 10
133.920000
 20
37.760000
 30
0.0
 10
133.600000
 20
39.280000
 30
0.0
 10
133.520000
 20
41.360000
 30
0.0
 10
133.520000
 20
44.080000
 30
0.0
  0
LINE
  5
1f0
100
AcDbEntity
  8
0
 62
7
100
AcDbLine
 10
133.520000
 20
44.080000
 30
0.0
 11
133.520000
 21
65.520000
 31
0.0
  0
LINE
  5
1f1
100
AcDbEntity
  8
0
 62
7
100
AcDbLine
 10
133.520000
 20
65.520000
 30
0.0
 11
128.880000
 21
65.520000
 31
0.0
  0
LINE
  5
1f2
100
AcDbEntity
  8
0
 62
7
100
AcDbLine
 10
128.880000
 20
65.520000
 30
0.0
 11
128.880000
 21
70.400000
 31
0.0
  0
LINE
  5
1f3
100
AcDbEntity
  8
0
 62
7
100
AcDbLine
 10
128.880000
 20
70.400000
 30
0.0
 11
133.520000
 21
70.400000
 31
0.0
  0
LINE
  5
1f4
100
AcDbEntity
  8
0
 62
7
100
AcDbLine
 10
133.520000
 20
70.400000
 30
0.0
 11
133.520000
 21
79.680000
 31
0.0
  0
LINE
  5
1f5
100
AcDbEntity
  8
0
 62
7
100
AcDbLine
 10
133.520000
 20
79.680000
 30
0.0
 11
139.840000
 21
83.520000
 31
0.0
  0
LINE
  5
1f6
100
AcDbEntity
  8
0
 62
7
100
AcDbLine
 10
139.840000
 20
83.520000
 30
0.0
 11
139.840000
 21
70.400000
 31
0.0
  0
LINE
  5
1f7
100
AcDbEntity
  8
0
 62
7
100
AcDbLine
 10
139.840000
 20
70.400000
 30
0.0
 11
146.160000
 21
70.400000
 31
0.0
  0
LINE
  5
1f8
100
AcDbEntity
  8
0
 62
7
100
AcDbLine
 10
146.160000
 20
70.400000
 30
0.0
 11
146.160000
 21
65.520000
 31
0.0
  0
LINE
  5
1f9
100
AcDbEntity
  8
0
 62
7
100
AcDbLine
 10
146.160000
 20
65.520000
 30
0.0
 11
139.840000
 21
65.520000
 31
0.0
  0
LINE
  5
1fa
100
AcDbEntity
  8
0
 62
7
100
AcDbLine
 10
139.840000
 20
65.520000
 30
0.0
 11
139.840000
 21
43.680000
 31
0.0
  0
SPLINE
  5
1fb
100
AcDbEntity
  8
0
 62
7
100
AcDbSpline
 70
8
 71
3
 72
8
 73
4
 74
0
 40
0
 40
0
 40
0
 40
0
 40
1
 40
1
 40
1
 40
1
 10
139.840000
 20
43.680000
 30
0.0
 10
139.840000
 20
41.840000
 30
0.0
 10
140.000000
 20
40.480000
 30
0.0
 10
140.400000
 20
39.680000
 30
0.0
  0
SPLINE
  5
1fc
100
AcDbEntity
  8
0
 62
7
100
AcDbSpline
 70
8
 71
3
 72
8
 73
4
 74
0
 40
0
 40
0
 40
0
 40
0
 40
1
 40
1
 40
1
 40
1
 10
140.400000
 20
39.680000
 30
0.0
 10
140.800000
 20
38.960000
 30
0.0
 10
141.760000
 20
38.560000
 30
0.0
 10
143.360000
 20
38.560000
 30
0.0
  0
SPLINE
  5
1fd
100
AcDbEntity
  8
0
 62
7
100
AcDbSpline
 70
8
 71
3
 72
8
 73
4
 74
0
 40
0
 40
0
 40
0
 40
0
 40
1
 40
1
 40
1
 40
1
 10
143.360000
 20
38.560000
 30
0.0
 10
144.240000
 20
38.560000
 30
0.0
 10
145.200000
 20
38.640000
 30
0.0
 10
146.160000
 20
38.800000
 30
0.0
  0
LINE
  5
1fe
100
AcDbEntity
  8
0
 62
7
100
AcDbLine
 10
146.160000
 20
38.800000
 30
0.0
 11
147.040000
 21
33.200000
 31
0.0
  0
LINE
  5
1ff
100
AcDbEntity
  8
0
 62
7
100
AcDbLine
 10
147.040000
 20
33.200000
 30
0.0
 11
147.040000
 21
33.200000
 31
0.0
  0
SPLINE
  5
200
100
AcDbEntity
  8
0
 62
7
100
AcDbSpline
 70
8
 71
3
 72
8
 73
4
 74
0
 40
0
 40
0
 40
0
 40
0
 40
1
 40
1
 40
1
 40
1
 10
167.680000
 20
71.280000
 30
0.0
 10
172.720000
 20
71.280000
 30
0.0
 10
176.880000
 20
69.600000
 30
0.0
 10
180.160000
 20
66.320000
 30
0.0
  0
SPLINE
  5
201
100
AcDbEntity
  8
0
 62
7
100
AcDbSpline
 70
8
 71
3
 72
8
 73
4
 74
0
 40
0
 40
0
 40
0
 40
0
 40
1
 40
1
 40
1
 40
1
 10
180.160000
 20
66.320000
 30
0.0
 10
183.520000
 20
63.040000
 30
0.0
 10
185.200000
 20
58.400000
 30
0.0
 10
185.200000
 20
52.320000
 30
0.0
  0
SPLINE
  5
202
100
AcDbEntity
  8
0
 62
7
100
AcDbSpline
 70
8
 71
3
 72
8
 73
4
 74
0
 40
0
 40
0
 40
0
 40
0
 40
1
 40
1
 40
1
 40
1
 10
185.200000
 20
52.320000
 30
0.0
 10
185.200000
 20
45.040000
 30
0.0
 10
183.360000
 20
39.840000
 30
0.0
 10
179.760000
 20
36.800000
 30
0.0
  0
SPLINE
  5
203
100
AcDbEntity
  8
0
 62
7
100
AcDbSpline
 70
8
 71
3
 72
8
 73
4
 74
0
 40
0
 40
0
 40
0
 40
0
 40
1
 40
1
 40
1
 40
1
 10
179.760000
 20
36.800000
 30
0.0
 10
176.160000
 20
33.760000
 30
0.0
 10
172.160000
 20
32.240000
 30
0.0
 10
167.680000
 20
32.240000
 30
0.0
  0
SPLINE
  5
204
100
AcDbEntity
  8
0
 62
7
100
AcDbSpline
 70
8
 71
3
 72
8
 73
4
 74
0
 40
0
 40
0
 40
0
 40
0
 40
1
 40
1
 40
1
 40
1
 10
167.680000
 20
32.240000
 30
0.0
 10
162.960000
 20
32.240000
 30
0.0
 10
158.880000
 20
33.760000
 30
0.0
 10
155.360000
 20
36.880000
 30
0.0
  0
SPLINE
  5
205
100
AcDbEntity
  8
0
 62
7
100
AcDbSpline
 70
8
 71
3
 72
8
 73
4
 74
0
 40
0
 40
0
 40
0
 40
0
 40
1
 40
1
 40
1
 40
1
 10
155.360000
 20
36.880000
 30
0.0
 10
151.920000
 20
40.000000
 30
0.0
 10
150.160000
 20
44.960000
 30
0.0
 10
150.160000
 20
51.760000
 30
0.0
  0
SPLINE
  5
206
100
AcDbEntity
  8
0
 62
7
100
AcDbSpline
 70
8
 71
3
 72
8
 73
4
 74
0
 40
0
 40
0
 40
0
 40
0
 40
1
 40
1
 40
1
 40
1
 10
150.160000
 20
51.760000
 30
0.0
 10
150.160000
 20
58.320000
 30
0.0
 10
151.840000
 20
63.200000
 30
0.0
 10
155.200000
 20
66.400000
 30
0.0
  0
SPLINE
  5
207
100
AcDbEntity
  8
0
 62
7
100
AcDbSpline
 70
8
 71
3
 72
8
 73
4
 74
0
 40
0
 40
0
 40
0
 40
0
 40
1
 40
1
 40
1
 40
1
 10
155.200000
 20
66.400000
 30
0.0
 10
158.560000
 20
69.680000
 30
0.0
 10
162.720000
 20
71.280000
 30
0.0
 10
167.680000
 20
71.280000
 30
0.0
  0
LINE
  5
208
100
AcDbEntity
  8
0
 62
7
100
AcDbLine
 10
167.680000
 20
71.280000
 30
0.0
 11
167.680000
 21
71.280000
 31
0.0
  0
SPLINE
  5
209
100
AcDbEntity
  8
0
 62
7
100
AcDbSpline
 70
8
 71
3
 72
8
 73
4
 74
0
 40
0
 40
0
 40
0
 40
0
 40
1
 40
1
 40
1
 40
1
 10
167.680000
 20
37.440000
 30
0.0
 10
171.280000
 20
37.440000
 30
0.0
 10
174.000000
 20
38.800000
 30
0.0
 10
175.840000
 20
41.440000
 30
0.0
  0
SPLINE
  5
20a
100
AcDbEntity
  8
0
 62
7
100
AcDbSpline
 70
8
 71
3
 72
8
 73
4
 74
0
 40
0
 40
0
 40
0
 40
0
 40
1
 40
1
 40
1
 40
1
 10
175.840000
 20
41.440000
 30
0.0
 10
177.760000
 20
44.160000
 30
0.0
 10
178.720000
 20
47.600000
 30
0.0
 10
178.720000
 20
52.000000
 30
0.0
  0
SPLINE
  5
20b
100
AcDbEntity
  8
0
 62
7
100
AcDbSpline
 70
8
 71
3
 72
8
 73
4
 74
0
 40
0
 40
0
 40
0
 40
0
 40
1
 40
1
 40
1
 40
1
 10
178.720000
 20
52.000000
 30
0.0
 10
178.720000
 20
56.640000
 30
0.0
 10
177.600000
 20
60.160000
 30
0.0
 10
175.520000
 20
62.560000
 30
0.0
  0
SPLINE
  5
20c
100
AcDbEntity
  8
0
 62
7
100
AcDbSpline
 70
8
 71
3
 72
8
 73
4
 74
0
 40
0
 40
0
 40
0
 40
0
 40
1
 40
1
 40
1
 40
1
 10
175.520000
 20
62.560000
 30
0.0
 10
173.360000
 20
64.880000
 30
0.0
 10
170.800000
 20
66.080000
 30
0.0
 10
167.680000
 20
66.080000
 30
0.0
  0
SPLINE
  5
20d
100
AcDbEntity
  8
0
 62
7
100
AcDbSpline
 70
8
 71
3
 72
8
 73
4
 74
0
 40
0
 40
0
 40
0
 40
0
 40
1
 40
1
 40
1
 40
1
 10
167.680000
 20
66.080000
 30
0.0
 10
164.480000
 20
66.080000
 30
0.0
 10
161.840000
 20
64.880000
 30
0.0
 10
159.760000
 20
62.480000
 30
0.0
  0
SPLINE
  5
20e
100
AcDbEntity
  8
0
 62
7
100
AcDbSpline
 70
8
 71
3
 72
8
 73
4
 74
0
 40
0
 40
0
 40
0
 40
0
 40
1
 40
1
 40
1
 40
1
 10
159.760000
 20
62.480000
 30
0.0
 10
157.680000
 20
60.080000
 30
0.0
 10
156.640000
 20
56.480000
 30
0.0
 10
156.640000
 20
51.760000
 30
0.0
  0
SPLINE
  5
20f
100
AcDbEntity
  8
0
 62
7
100
AcDbSpline
 70
8
 71
3
 72
8
 73
4
 74
0
 40
0
 40
0
 40
0
 40
0
 40
1
 40
1
 40
1
 40
1
 10
156.640000
 20
51.760000
 30
0.0
 10
156.640000
 20
47.040000
 30
0.0
 10
157.680000
 20
43.440000
 30
0.0
 10
159.760000
 20
41.040000
 30
0.0
  0
SPLINE
  5
210
100
AcDbEntity
  8
0
 62
7
100
AcDbSpline
 70
8
 71
3
 72
8
 73
4
 74
0
 40
0
 40
0
 40
0
 40
0
 40
1
 40
1
 40
1
 40
1
 10
159.760000
 20
41.040000
 30
0.0
 10
161.920000
 20
38.640000
 30
0.0
 10
164.480000
 20
37.440000
 30
0.0
 10
167.680000
 20
37.440000
 30
0.0
  0
LINE
  5
211
100
AcDbEntity
  8
0
 62
7
100
AcDbLine
 10
167.680000
 20
37.440000
 30
0.0
 11
167.680000
 21
37.440000
 31
0.0
  0
LINE
  5
212
100
AcDbEntity
  8
0
 62
7
100
AcDbLine
 10
222.720000
 20
33.120000
 30
0.0
 11
217.120000
 21
33.120000
 31
0.0
  0
LINE
  5
213
100
AcDbEntity
  8
0
 62
7
100
AcDbLine
 10
217.120000
 20
33.120000
 30
0.0
 11
217.120000
 21
38.640000
 31
0.0
  0
LINE
  5
214
100
AcDbEntity
  8
0
 62
7
100
AcDbLine
 10
217.120000
 20
38.640000
 30
0.0
 11
216.880000
 21
38.640000
 31
0.0
  0
SPLINE
  5
215
100
AcDbEntity
  8
0
 62
7
100
AcDbSpline
 70
8
 71
3
 72
8
 73
4
 74
0
 40
0
 40
0
 40
0
 40
0
 40
1
 40
1
 40
1
 40
1
 10
216.880000
 20
38.640000
 30
0.0
 10
214.080000
 20
34.400000
 30
0.0
 10
210.160000
 20
32.240000
 30
0.0
 10
205.200000
 20
32.240000
 30
0.0
  0
SPLINE
  5
216
100
AcDbEntity
  8
0
 62
7
100
AcDbSpline
 70
8
 71
3
 72
8
 73
4
 74
0
 40
0
 40
0
 40
0
 40
0
 40
1
 40
1
 40
1
 40
1
 10
205.200000
 20
32.240000
 30
0.0
 10
202.560000
 20
32.240000
 30
0.0
 10
200.160000
 20
32.880000
 30
0.0
 10
198.000000
 20
34.080000
 30
0.0
  0
SPLINE
  5
217
100
AcDbEntity
  8
0
 62
7
100
AcDbSpline
 70
8
 71
3
 72
8
 73
4
 74
0
 40
0
 40
0
 40
0
 40
0
 40
1
 40
1
 40
1
 40
1
 10
198.000000
 20
34.080000
 30
0.0
 10
195.760000
 20
35.280000
 30
0.0
 10
194.320000
 20
36.960000
 30
0.0
 10
193.520000
 20
39.040000
 30
0.0
  0
SPLINE
  5
218
100
AcDbEntity
  8
0
 62
7
100
AcDbSpline
 70
8
 71
3
 72
8
 73
4
 74
0
 40
0
 40
0
 40
0
 40
0
 40
1
 40
1
 40
1
 40
1
 10
193.520000
 20
39.040000
 30
0.0
 10
192.800000
 20
41.200000
 30
0.0
 10
192.400000
 20
43.920000
 30
0.0
 10
192.400000
 20
47.280000
 30
0.0
  0
LINE
  5
219
100
AcDbEntity
  8
0
 62
7
100
AcDbLine
 10
192.400000
 20
47.280000
 30
0.0
 11
192.400000
 21
70.400000
 31
0.0
  0
LINE
  5
21a
100
AcDbEntity
  8
0
 62
7
100
AcDbLine
 10
192.400000
 20
70.400000
 30
0.0
 11
198.800000
 21
70.400000
 31
0.0
  0
LINE
  5
21b
100
AcDbEntity
  8
0
 62
7
100
AcDbLine
 10
198.800000
 20
70.400000
 30
0.0
 11
198.800000
 21
49.760000
 31
0.0
  0
SPLINE
  5
21c
100
AcDbEntity
  8
0
 62
7
100
AcDbSpline
 70
8
 71
3
 72
8
 73
4
 74
0
 40
0
 40
0
 40
0
 40
0
 40
1
 40
1
 40
1
 40
1
 10
198.800000
 20
49.760000
 30
0.0
 10
198.800000
 20
46.480000
 30
0.0
 10
198.960000
 20
44.080000
 30
0.0
 10
199.280000
 20
42.640000
 30
0.0
  0
SPLINE
  5
21d
100
AcDbEntity
  8
0
 62
7
100
AcDbSpline
 70
8
 71
3
 72
8
 73
4
 74
0
 40
0
 40
0
 40
0
 40
0
 40
1
 40
1
 40
1
 40
1
 10
199.280000
 20
42.640000
 30
0.0
 10
199.520000
 20
41.200000
 30
0.0
 10
200.400000
 20
40.000000
 30
0.0
 10
201.680000
 20
39.120000
 30
0.0
  0
SPLINE
  5
21e
100
AcDbEntity
  8
0
 62
7
100
AcDbSpline
 70
8
 71
3
 72
8
 73
4
 74
0
 40
0
 40
0
 40
0
 40
0
 40
1
 40
1
 40
1
 40
1
 10
201.680000
 20
39.120000
 30
0.0
 10
203.040000
 20
38.160000
 30
0.0
 10
204.640000
 20
37.760000
 30
0.0
 10
206.480000
 20
37.760000
 30
0.0
  0
SPLINE
  5
21f
100
AcDbEntity
  8
0
 62
7
100
AcDbSpline
 70
8
 71
3
 72
8
 73
4
 74
0
 40
0
 40
0
 40
0
 40
0
 40
1
 40
1
 40
1
 40
1
 10
206.480000
 20
37.760000
 30
0.0
 10
208.880000
 20
37.760000
 30
0.0
 10
211.120000
 20
38.560000
 30
0.0
 10
213.280000
 20
40.240000
 30
0.0
  0
SPLINE
  5
220
100
AcDbEntity
  8
0
 62
7
100
AcDbSpline
 70
8
 71
3
 72
8
 73
4
 74
0
 40
0
 40
0
 40
0
 40
0
 40
1
 40
1
 40
1
 40
1
 10
213.280000
 20
40.240000
 30
0.0
 10
215.360000
 20
41.840000
 30
0.0
 10
216.400000
 20
45.280000
 30
0.0
 10
216.400000
 20
50.480000
 30
0.0
  0
LINE
  5
221
100
AcDbEntity
  8
0
 62
7
100
AcDbLine
 10
216.400000
 20
50.480000
 30
0.0
 11
216.400000
 21
70.400000
 31
0.0
  0
LINE
  5
222
100
AcDbEntity
  8
0
 62
7
100
AcDbLine
 10
216.400000
 20
70.400000
 30
0.0
 11
222.720000
 21
70.400000
 31
0.0
  0
LINE
  5
223
100
AcDbEntity
  8
0
 62
7
100
AcDbLine
 10
222.720000
 20
70.400000
 30
0.0
 11
222.720000
 21
33.120000
 31
0.0
  0
LINE
  5
224
100
AcDbEntity
  8
0
 62
7
100
AcDbLine
 10
222.720000
 20
33.120000
 30
0.0
 11
222.720000
 21
33.120000
 31
0.0
  0
LINE
  5
225
100
AcDbEntity
  8
0
 62
7
100
AcDbLine
 10
238.880000
 20
33.120000
 30
0.0
 11
232.560000
 21
33.120000
 31
0.0
  0
LINE
  5
226
100
AcDbEntity
  8
0
 62
7
100
AcDbLine
 10
232.560000
 20
33.120000
 30
0.0
 11
232.560000
 21
70.400000
 31
0.0
  0
LINE
  5
227
100
AcDbEntity
  8
0
 62
7
100
AcDbLine
 10
232.560000
 20
70.400000
 30
0.0
 11
238.880000
 21
70.400000
 31
0.0
  0
LINE
  5
228
100
AcDbEntity
  8
0
 62
7
100
AcDbLine
 10
238.880000
 20
70.400000
 30
0.0
 11
238.880000
 21
33.120000
 31
0.0
  0
LINE
  5
229
100
AcDbEntity
  8
0
 62
7
100
AcDbLine
 10
238.880000
 20
33.120000
 30
0.0
 11
238.880000
 21
33.120000
 31
0.0
  0
LINE
  5
22a
100
AcDbEntity
  8
0
 62
7
100
AcDbLine
 10
238.880000
 20
77.520000
 30
0.0
 11
232.560000
 21
77.520000
 31
0.0
  0
LINE
  5
22b
100
AcDbEntity
  8
0
 62
7
100
AcDbLine
 10
232.560000
 20
77.520000
 30
0.0
 11
232.560000
 21
84.640000
 31
0.0
  0
LINE
  5
22c
100
AcDbEntity
  8
0
 62
7
100
AcDbLine
 10
232.560000
 20
84.640000
 30
0.0
 11
238.880000
 21
84.640000
 31
0.0
  0
LINE
  5
22d
100
AcDbEntity
  8
0
 62
7
100
AcDbLine
 10
238.880000
 20
84.640000
 30
0.0
 11
238.880000
 21
77.520000
 31
0.0
  0
LINE
  5
22e
100
AcDbEntity
  8
0
 62
7
100
AcDbLine
 10
238.880000
 20
77.520000
 30
0.0
 11
238.880000
 21
77.520000
 31
0.0
  0
LINE
  5
22f
100
AcDbEntity
  8
0
 62
7
100
AcDbLine
 10
254.880000
 20
33.120000
 30
0.0
 11
248.560000
 21
33.120000
 31
0.0
  0
LINE
  5
230
100
AcDbEntity
  8
0
 62
7
100
AcDbLine
 10
248.560000
 20
33.120000
 30
0.0
 11
248.560000
 21
84.640000
 31
0.0
  0
LINE
  5
231
100
AcDbEntity
  8
0
 62
7
100
AcDbLine
 10
248.560000
 20
84.640000
 30
0.0
 11
254.880000
 21
84.640000
 31
0.0
  0
LINE
  5
232
100
AcDbEntity
  8
0
 62
7
100
AcDbLine
 10
254.880000
 20
84.640000
 30
0.0
 11
254.880000
 21
33.120000
 31
0.0
  0
LINE
  5
233
100
AcDbEntity
  8
0
 62
7
100
AcDbLine
 10
254.880000
 20
33.120000
 30
0.0
 11
254.880000
 21
33.120000
 31
0.0
  0
LINE
  5
234
100
AcDbEntity
  8
0
 62
7
100
AcDbLine
 10
270.880000
 20
33.120000
 30
0.0
 11
264.560000
 21
33.120000
 31
0.0
  0
LINE
  5
235
100
AcDbEntity
  8
0
 62
7
100
AcDbLine
 10
264.560000
 20
33.120000
 30
0.0
 11
264.560000
 21
84.640000
 31
0.0
  0
LINE
  5
236
100
AcDbEntity
  8
0
 62
7
100
AcDbLine
 10
264.560000
 20
84.640000
 30
0.0
 11
270.880000
 21
84.640000
 31
0.0
  0
LINE
  5
237
100
AcDbEntity
  8
0
 62
7
100
AcDbLine
 10
270.880000
 20
84.640000
 30
0.0
 11
270.880000
 21
33.120000
 31
0.0
  0
LINE
  5
238
100
AcDbEntity
  8
0
 62
7
100
AcDbLine
 10
270.880000
 20
33.120000
 30
0.0
 11
270.880000
 21
33.120000
 31
0.0
  0
LINE
  5
239
100
AcDbEntity
  8
0
 62
7
100
AcDbLine
 10
312.960000
 20
50.160000
 30
0.0
 11
285.040000
 21
50.160000
 31
0.0
  0
SPLINE
  5
23a
100
AcDbEntity
  8
0
 62
7
100
AcDbSpline
 70
8
 71
3
 72
8
 73
4
 74
0
 40
0
 40
0
 40
0
 40
0
 40
1
 40
1
 40
1
 40
1
 10
285.040000
 20
50.160000
 30
0.0
 10
285.280000
 20
46.080000
 30
0.0
 10
286.400000
 20
42.880000
 30
0.0
 10
288.560000
 20
40.720000
 30
0.0
  0
SPLINE
  5
23b
100
AcDbEntity
  8
0
 62
7
100
AcDbSpline
 70
8
 71
3
 72
8
 73
4
 74
0
 40
0
 40
0
 40
0
 40
0
 40
1
 40
1
 40
1
 40
1
 10
288.560000
 20
40.720000
 30
0.0
 10
290.640000
 20
38.560000
 30
0.0
 10
293.280000
 20
37.440000
 30
0.0
 10
296.400000
 20
37.440000
 30
0.0
  0
SPLINE
  5
23c
100
AcDbEntity
  8
0
 62
7
100
AcDbSpline
 70
8
 71
3
 72
8
 73
4
 74
0
 40
0
 40
0
 40
0
 40
0
 40
1
 40
1
 40
1
 40
1
 10
296.400000
 20
37.440000
 30
0.0
 10
298.800000
 20
37.440000
 30
0.0
 10
300.800000
 20
38.080000
 30
0.0
 10
302.480000
 20
39.360000
 30
0.0
  0
SPLINE
  5
23d
100
AcDbEntity
  8
0
 62
7
100
AcDbSpline
 70
8
 71
3
 72
8
 73
4
 74
0
 40
0
 40
0
 40
0
 40
0
 40
1
 40
1
 40
1
 40
1
 10
302.480000
 20
39.360000
 30
0.0
 10
304.080000
 20
40.640000
 30
0.0
 10
305.360000
 20
42.560000
 30
0.0
 10
306.240000
 20
45.120000
 30
0.0
  0
LINE
  5
23e
100
AcDbEntity
  8
0
 62
7
100
AcDbLine
 10
306.240000
 20
45.120000
 30
0.0
 11
312.720000
 21
44.320000
 31
0.0
  0
SPLINE
  5
23f
100
AcDbEntity
  8
0
 62
7
100
AcDbSpline
 70
8
 71
3
 72
8
 73
4
 74
0
 40
0
 40
0
 40
0
 40
0
 40
1
 40
1
 40
1
 40
1
 10
312.720000
 20
44.320000
 30
0.0
 10
311.680000
 20
40.480000
 30
0.0
 10
309.760000
 20
37.440000
 30
0.0
 10
306.960000
 20
35.360000
 30
0.0
  0
SPLINE
  5
240
100
AcDbEntity
  8
0
 62
7
100
AcDbSpline
 70
8
 71
3
 72
8
 73
4
 74
0
 40
0
 40
0
 40
0
 40
0
 40
1
 40
1
 40
1
 40
1
 10
306.960000
 20
35.360000
 30
0.0
 10
304.160000
 20
33.280000
 30
0.0
 10
300.640000
 20
32.240000
 30
0.0
 10
296.400000
 20
32.240000
 30
0.0
  0
SPLINE
  5
241
100
AcDbEntity
  8
0
 62
7
100
AcDbSpline
 70
8
 71
3
 72
8
 73
4
 74
0
 40
0
 40
0
 40
0
 40
0
 40
1
 40
1
 40
1
 40
1
 10
296.400000
 20
32.240000
 30
0.0
 10
290.800000
 20
32.240000
 30
0.0
 10
286.400000
 20
33.920000
 30
0.0
 10
283.280000
 20
37.360000
 30
0.0
  0
SPLINE
  5
242
100
AcDbEntity
  8
0
 62
7
100
AcDbSpline
 70
8
 71
3
 72
8
 73
4
 74
0
 40
0
 40
0
 40
0
 40
0
 40
1
 40
1
 40
1
 40
1
 10
283.280000
 20
37.360000
 30
0.0
 10
280.080000
 20
40.800000
 30
0.0
 10
278.560000
 20
45.520000
 30
0.0
 10
278.560000
 20
51.440000
 30
0.0
  0
SPLINE
  5
243
100
AcDbEntity
  8
0
 62
7
100
AcDbSpline
 70
8
 71
3
 72
8
 73
4
 74
0
 40
0
 40
0
 40
0
 40
0
 40
1
 40
1
 40
1
 40
1
 10
278.560000
 20
51.440000
 30
0.0
 10
278.560000
 20
57.360000
 30
0.0
 10
280.080000
 20
62.160000
 30
0.0
 10
283.120000
 20
65.760000
 30
0.0
  0
SPLINE
  5
244
100
AcDbEntity
  8
0
 62
7
100
AcDbSpline
 70
8
 71
3
 72
8
 73
4
 74
0
 40
0
 40
0
 40
0
 40
0
 40
1
 40
1
 40
1
 40
1
 10
283.120000
 20
65.760000
 30
0.0
 10
286.160000
 20
69.440000
 30
0.0
 10
290.480000
 20
71.280000
 30
0.0
 10
296.080000
 20
71.280000
 30
0.0
  0
SPLINE
  5
245
100
AcDbEntity
  8
0
 62
7
100
AcDbSpline
 70
8
 71
3
 72
8
 73
4
 74
0
 40
0
 40
0
 40
0
 40
0
 40
1
 40
1
 40
1
 40
1
 10
296.080000
 20
71.280000
 30
0.0
 10
298.800000
 20
71.280000
 30
0.0
 10
301.360000
 20
70.640000
 30
0.0
 10
303.920000
 20
69.440000
 30
0.0
  0
SPLINE
  5
246
100
AcDbEntity
  8
0
 62
7
100
AcDbSpline
 70
8
 71
3
 72
8
 73
4
 74
0
 40
0
 40
0
 40
0
 40
0
 40
1
 40
1
 40
1
 40
1
 10
303.920000
 20
69.440000
 30
0.0
 10
306.400000
 20
68.240000
 30
0.0
 10
308.560000
 20
66.240000
 30
0.0
 10
310.320000
 20
63.360000
 30
0.0
  0
SPLINE
  5
247
100
AcDbEntity
  8
0
 62
7
100
AcDbSpline
 70
8
 71
3
 72
8
 73
4
 74
0
 40
0
 40
0
 40
0
 40
0
 40
1
 40
1
 40
1
 40
1
 10
310.320000
 20
63.360000
 30
0.0
 10
312.080000
 20
60.480000
 30
0.0
 10
312.960000
 20
56.080000
 30
0.0
 10
312.960000
 20
50.160000
 30
0.0
  0
LINE
  5
248
100
AcDbEntity
  8
0
 62
7
100
AcDbLine
 10
312.960000
 20
50.160000
 30
0.0
 11
312.960000
 21
50.160000
 31
0.0
  0
SPLINE
  5
249
100
AcDbEntity
  8
0
 62
7
100
AcDbSpline
 70
8
 71
3
 72
8
 73
4
 74
0
 40
0
 40
0
 40
0
 40
0
 40
1
 40
1
 40
1
 40
1
 10
306.480000
 20
55.360000
 30
0.0
 10
306.160000
 20
59.200000
 30
0.0
 10
305.040000
 20
61.920000
 30
0.0
 10
302.880000
 20
63.600000
 30
0.0
  0
SPLINE
  5
24a
100
AcDbEntity
  8
0
 62
7
100
AcDbSpline
 70
8
 71
3
 72
8
 73
4
 74
0
 40
0
 40
0
 40
0
 40
0
 40
1
 40
1
 40
1
 40
1
 10
302.880000
 20
63.600000
 30
0.0
 10
300.800000
 20
65.280000
 30
0.0
 10
298.560000
 20
66.080000
 30
0.0
 10
296.080000
 20
66.080000
 30
0.0
  0
SPLINE
  5
24b
100
AcDbEntity
  8
0
 62
7
100
AcDbSpline
 70
8
 71
3
 72
8
 73
4
 74
0
 40
0
 40
0
 40
0
 40
0
 40
1
 40
1
 40
1
 40
1
 10
296.080000
 20
66.080000
 30
0.0
 10
293.040000
 20
66.080000
 30
0.0
 10
290.640000
 20
65.120000
 30
0.0
 10
288.720000
 20
63.120000
 30
0.0
  0
SPLINE
  5
24c
100
AcDbEntity
  8
0
 62
7
100
AcDbSpline
 70
8
 71
3
 72
8
 73
4
 74
0
 40
0
 40
0
 40
0
 40
0
 40
1
 40
1
 40
1
 40
1
 10
288.720000
 20
63.120000
 30
0.0
 10
286.800000
 20
61.120000
 30
0.0
 10
285.680000
 20
58.560000
 30
0.0
 10
285.360000
 20
55.360000
 30
0.0
  0
LINE
  5
24d
100
AcDbEntity
  8
0
 62
7
100
AcDbLine
 10
285.360000
 20
55.360000
 30
0.0
 11
306.480000
 21
55.360000
 31
0.0
  0
LINE
  5
24e
100
AcDbEntity
  8
0
 62
7
100
AcDbLine
 10
306.480000
 20
55.360000
 30
0.0
 11
306.480000
 21
55.360000
 31
0.0
  0
LINE
  5
24f
100
AcDbEntity
  8
0
 62
7
100
AcDbLine
 10
329.360000
 20
33.120000
 30
0.0
 11
322.160000
 21
33.120000
 31
0.0
  0
LINE
  5
250
100
AcDbEntity
  8
0
 62
7
100
AcDbLine
 10
322.160000
 20
33.120000
 30
0.0
 11
322.160000
 21
40.320000
 31
0.0
  0
LINE
  5
251
100
AcDbEntity
  8
0
 62
7
100
AcDbLine
 10
322.160000
 20
40.320000
 30
0.0
 11
329.360000
 21
40.320000
 31
0.0
  0
LINE
  5
252
100
AcDbEntity
  8
0
 62
7
100
AcDbLine
 10
329.360000
 20
40.320000
 30
0.0
 11
329.360000
 21
33.120000
 31
0.0
  0
LINE
  5
253
100
AcDbEntity
  8
0
 62
7
100
AcDbLine
 10
329.360000
 20
33.120000
 30
0.0
 11
329.360000
 21
33.120000
 31
0.0
  0
LINE
  5
254
100
AcDbEntity
  8
0
 62
7
100
AcDbLine
 10
358.160000
 20
84.880000
 30
0.0
 11
357.200000
 21
79.360000
 31
0.0
  0
SPLINE
  5
255
100
AcDbEntity
  8
0
 62
7
100
AcDbSpline
 70
8
 71
3
 72
8
 73
4
 74
0
 40
0
 40
0
 40
0
 40
0
 40
1
 40
1
 40
1
 40
1
 10
357.200000
 20
79.360000
 30
0.0
 10
355.920000
 20
79.600000
 30
0.0
 10
354.720000
 20
79.680000
 30
0.0
 10
353.520000
 20
79.680000
 30
0.0
  0
SPLINE
  5
256
100
AcDbEntity
  8
0
 62
7
100
AcDbSpline
 70
8
 71
3
 72
8
 73
4
 74
0
 40
0
 40
0
 40
0
 40
0
 40
1
 40
1
 40
1
 40
1
 10
353.520000
 20
79.680000
 30
0.0
 10
352.000000
 20
79.680000
 30
0.0
 10
350.720000
 20
79.360000
 30
0.0
 10
349.760000
 20
78.720000
 30
0.0
  0
SPLINE
  5
257
100
AcDbEntity
  8
0
 62
7
100
AcDbSpline
 70
8
 71
3
 72
8
 73
4
 74
0
 40
0
 40
0
 40
0
 40
0
 40
1
 40
1
 40
1
 40
1
 10
349.760000
 20
78.720000
 30
0.0
 10
348.800000
 20
78.080000
 30
0.0
 10
348.320000
 20
76.480000
 30
0.0
 10
348.320000
 20
73.920000
 30
0.0
  0
LINE
  5
258
100
AcDbEntity
  8
0
 62
7
100
AcDbLine
 10
348.320000
 20
73.920000
 30
0.0
 11
348.320000
 21
70.400000
 31
0.0
  0
LINE
  5
259
100
AcDbEntity
  8
0
 62
7
100
AcDbLine
 10
348.320000
 20
70.400000
 30
0.0
 11
355.520000
 21
70.400000
 31
0.0
  0
LINE
  5
25a
100
AcDbEntity
  8
0
 62
7
100
AcDbLine
 10
355.520000
 20
70.400000
 30
0.0
 11
355.520000
 21
65.520000
 31
0.0
  0
LINE
  5
25b
100
AcDbEntity
  8
0
 62
7
100
AcDbLine
 10
355.520000
 20
65.520000
 30
0.0
 11
348.320000
 21
65.520000
 31
0.0
  0
LINE
  5
25c
100
AcDbEntity
  8
0
 62
7
100
AcDbLine
 10
348.320000
 20
65.520000
 30
0.0
 11
348.320000
 21
33.120000
 31
0.0
  0
LINE
  5
25d
100
AcDbEntity
  8
0
 62
7
100
AcDbLine
 10
348.320000
 20
33.120000
 30
0.0
 11
341.920000
 21
33.120000
 31
0.0
  0
LINE
  5
25e
100
AcDbEntity
  8
0
 62
7
100
AcDbLine
 10
341.920000
 20
33.120000
 30
0.0
 11
341.920000
 21
65.520000
 31
0.0
  0
LINE
  5
25f
100
AcDbEntity
  8
0
 62
7
100
AcDbLine
 10
341.920000
 20
65.520000
 30
0.0
 11
336.320000
 21
65.520000
 31
0.0
  0
LINE
  5
260
100
AcDbEntity
  8
0
 62
7
100
AcDbLine
 10
336.320000
 20
65.520000
 30
0.0
 11
336.320000
 21
70.400000
 31
0.0
  0
LINE
  5
261
100
AcDbEntity
  8
0
 62
7
100
AcDbLine
 10
336.320000
 20
70.400000
 30
0.0
 11
341.920000
 21
70.400000
 31
0.0
  0
LINE
  5
262
100
AcDbEntity
  8
0
 62
7
100
AcDbLine
 10
341.920000
 20
70.400000
 30
0.0
 11
341.920000
 21
74.480000
 31
0.0
  0
SPLINE
  5
263
100
AcDbEntity
  8
0
 62
7
100
AcDbSpline
 70
8
 71
3
 72
8
 73
4
 74
0
 40
0
 40
0
 40
0
 40
0
 40
1
 40
1
 40
1
 40
1
 10
341.920000
 20
74.480000
 30
0.0
 10
341.920000
 20
76.320000
 30
0.0
 10
342.160000
 20
78.000000
 30
0.0
 10
342.480000
 20
79.520000
 30
0.0
  0
SPLINE
  5
264
100
AcDbEntity
  8
0
 62
7
100
AcDbSpline
 70
8
 71
3
 72
8
 73
4
 74
0
 40
0
 40
0
 40
0
 40
0
 40
1
 40
1
 40
1
 40
1
 10
342.480000
 20
79.520000
 30
0.0
 10
342.800000
 20
81.120000
 30
0.0
 10
343.760000
 20
82.480000
 30
0.0
 10
345.280000
 20
83.680000
 30
0.0
  0
SPLINE
  5
265
100
AcDbEntity
  8
0
 62
7
100
AcDbSpline
 70
8
 71
3
 72
8
 73
4
 74
0
 40
0
 40
0
 40
0
 40
0
 40
1
 40
1
 40
1
 40
1
 10
345.280000
 20
83.680000
 30
0.0
 10
346.800000
 20
84.960000
 30
0.0
 10
349.120000
 20
85.520000
 30
0.0
 10
352.240000
 20
85.520000
 30
0.0
  0
SPLINE
  5
266
100
AcDbEntity
  8
0
 62
7
100
AcDbSpline
 70
8
 71
3
 72
8
 73
4
 74
0
 40
0
 40
0
 40
0
 40
0
 40
1
 40
1
 40
1
 40
1
 10
352.240000
 20
85.520000
 30
0.0
 10
354.160000
 20
85.520000
 30
0.0
 10
356.080000
 20
85.360000
 30
0.0
 10
358.160000
 20
84.880000
 30
0.0
  0
LINE
  5
267
100
AcDbEntity
  8
0
 62
7
100
AcDbLine
 10
358.160000
 20
84.880000
 30
0.0
 11
358.160000
 21
84.880000
 31
0.0
  0
LINE
  5
268
100
AcDbEntity
  8
0
 62
7
100
AcDbLine
 10
380.720000
 20
69.280000
 30
0.0
 11
378.480000
 21
63.440000
 31
0.0
  0
SPLINE
  5
269
100
AcDbEntity
  8
0
 62
7
100
AcDbSpline
 70
8
 71
3
 72
8
 73
4
 74
0
 40
0
 40
0
 40
0
 40
0
 40
1
 40
1
 40
1
 40
1
 10
378.480000
 20
63.440000
 30
0.0
 10
376.960000
 20
64.320000
 30
0.0
 10
375.440000
 20
64.800000
 30
0.0
 10
373.920000
 20
64.800000
 30
0.0
  0
SPLINE
  5
26a
100
AcDbEntity
  8
0
 62
7
100
AcDbSpline
 70
8
 71
3
 72
8
 73
4
 74
0
 40
0
 40
0
 40
0
 40
0
 40
1
 40
1
 40
1
 40
1
 10
373.920000
 20
64.800000
 30
0.0
 10
371.520000
 20
64.800000
 30
0.0
 10
369.760000
 20
63.760000
 30
0.0
 10
368.560000
 20
61.600000
 30
0.0
  0
SPLINE
  5
26b
100
AcDbEntity
  8
0
 62
7
100
AcDbSpline
 70
8
 71
3
 72
8
 73
4
 74
0
 40
0
 40
0
 40
0
 40
0
 40
1
 40
1
 40
1
 40
1
 10
368.560000
 20
61.600000
 30
0.0
 10
367.280000
 20
59.520000
 30
0.0
 10
366.720000
 20
56.560000
 30
0.0
 10
366.720000
 20
52.720000
 30
0.0
  0
LINE
  5
26c
100
AcDbEntity
  8
0
 62
7
100
AcDbLine
 10
366.720000
 20
52.720000
 30
0.0
 11
366.720000
 21
33.120000
 31
0.0
  0
LINE
  5
26d
100
AcDbEntity
  8
0
 62
7
100
AcDbLine
 10
366.720000
 20
33.120000
 30
0.0
 11
360.400000
 21
33.120000
 31
0.0
  0
LINE
  5
26e
100
AcDbEntity
  8
0
 62
7
100
AcDbLine
 10
360.400000
 20
33.120000
 30
0.0
 11
360.400000
 21
70.400000
 31
0.0
  0
LINE
  5
26f
100
AcDbEntity
  8
0
 62
7
100
AcDbLine
 10
360.400000
 20
70.400000
 30
0.0
 11
366.160000
 21
70.400000
 31
0.0
  0
LINE
  5
270
100
AcDbEntity
  8
0
 62
7
100
AcDbLine
 10
366.160000
 20
70.400000
 30
0.0
 11
366.160000
 21
64.800000
 31
0.0
  0
LINE
  5
271
100
AcDbEntity
  8
0
 62
7
100
AcDbLine
 10
366.160000
 20
64.800000
 30
0.0
 11
366.320000
 21
64.800000
 31
0.0
  0
SPLINE
  5
272
100
AcDbEntity
  8
0
 62
7
100
AcDbSpline
 70
8
 71
3
 72
8
 73
4
 74
0
 40
0
 40
0
 40
0
 40
0
 40
1
 40
1
 40
1
 40
1
 10
366.320000
 20
64.800000
 30
0.0
 10
368.320000
 20
69.120000
 30
0.0
 10
370.960000
 20
71.280000
 30
0.0
 10
374.160000
 20
71.280000
 30
0.0
  0
SPLINE
  5
273
100
AcDbEntity
  8
0
 62
7
100
AcDbSpline
 70
8
 71
3
 72
8
 73
4
 74
0
 40
0
 40
0
 40
0
 40
0
 40
1
 40
1
 40
1
 40
1
 10
374.160000
 20
71.280000
 30
0.0
 10
376.320000
 20
71.280000
 30
0.0
 10
378.480000
 20
70.560000
 30
0.0
 10
380.720000
 20
69.280000
 30
0.0
  0
LINE
  5
274
100
AcDbEntity
  8
0
 62
7
100
AcDbLine
 10
380.720000
 20
69.280000
 30
0.0
 11
380.720000
 21
69.280000
 31
0.0
  0
ENDSEC
  0
SECTION
  2
OBJECTS
  0
DICTIONARY
  5
C
330
0
100
AcDbDictionary
  3
ACAD_GROUP
350
D
  3
ACAD_MLINESTYLE
350
17
  0
DICTIONARY
  5
D
330
C
100
AcDbDictionary
  0
DICTIONARY
  5
1A
330
C
100
AcDbDictionary
  0
DICTIONARY
  5
17
330
C
100
AcDbDictionary
  3
STANDARD
350
18
  0
DICTIONARY
  5
19
330
C
100
AcDbDictionary
  0
ENDSEC
  0
EOF
