  0
SECTION
  2
HEADER
  9
$ACADVER
  1
AC1014
  9
$HANDSEED
  5
FFFF
  9
$MEASUREMENT
 70
     1
  0
ENDSEC
  0
SECTION
  2
TABLES
  0
TABLE
  2
VPORT
  5
8
330
0
100
AcDbSymbolTable
 70
     4
  0
VPORT
  5
2E
330
8
100
AcDbSymbolTableRecord
100
AcDbViewportTableRecord
  2
*ACTIVE
 70
     0
 10
0.0
 20
0.0
 11
1.0
 21
1.0
 12
210.0
 22
148.5
 13
0.0
 23
0.0
 14
10.0
 24
10.0
 15
10.0
 25
10.0
 16
0.0
 26
0.0
 36
1.0
 17
0.0
 27
0.0
 37
0.0
 40
341.0
 41
1.24
 42
50.0
 43
0.0
 44
0.0
 50
0.0
 51
0.0
 71
     0
 72
   100
 73
     1
 74
     3
 75
     0
 76
     0
 77
     0
 78
     0
  0
ENDTAB
  0
TABLE
  2
LTYPE
  5
5
330
0
100
AcDbSymbolTable
 70
     1
  0
LTYPE
  5
14
330
5
100
AcDbSymbolTableRecord
100
AcDbLinetypeTableRecord
  2
BYBLOCK
 70
     0
  3

 72
    65
 73
     0
 40
0.0
  0
LTYPE
  5
15
330
5
100
AcDbSymbolTableRecord
100
AcDbLinetypeTableRecord
  2
BYLAYER
 70
     0
  3

 72
    65
 73
     0
 40
0.0
  0
LTYPE
  5
16
330
5
100
AcDbSymbolTableRecord
100
AcDbLinetypeTableRecord
  2
CONTINUOUS
 70
     0
  3
Solid line
 72
    65
 73
     0
 40
0.0
  0
ENDTAB
  0
TABLE
  2
LAYER
  5
2
100
AcDbSymbolTable
 70
1
  0
LAYER
  5
50
100
AcDbSymbolTableRecord
100
AcDbLayerTableRecord
  2
0
 70
0
  6
CONTINUOUS
  0
ENDTAB
  0
TABLE
  2
STYLE
  5
3
330
0
100
AcDbSymbolTable
 70
     1
  0
STYLE
  5
11
330
3
100
AcDbSymbolTableRecord
100
AcDbTextStyleTableRecord
  2
STANDARD
 70
     0
 40
0.0
 41
1.0
 50
0.0
 71
     0
 42
2.5
  3
txt
  4

  0
ENDTAB
  0
TABLE
  2
VIEW
  5
6
330
0
100
AcDbSymbolTable
 70
     0
  0
ENDTAB
  0
TABLE
  2
UCS
  5
7
330
0
100
AcDbSymbolTable
 70
     0
  0
ENDTAB
  0
TABLE
  2
APPID
  5
9
330
0
100
AcDbSymbolTable
 70
     2
  0
APPID
  5
12
330
9
100
AcDbSymbolTableRecord
100
AcDbRegAppTableRecord
  2
ACAD
 70
     0
  0
ENDTAB
  0
TABLE
  2
DIMSTYLE
  5
A
330
0
100
AcDbSymbolTable
 70
     1
  0
DIMSTYLE
105
27
330
A
100
AcDbSymbolTableRecord
100
AcDbDimStyleTableRecord
  2
ISO-25
 70
     0
  3

  4

  5

  6

  7

 40
1.0
 41
2.5
 42
0.625
 43
3.75
 44
1.25
 45
0.0
 46
0.0
 47
0.0
 48
0.0
140
2.5
141
2.5
142
0.0
143
0.03937007874016
144
1.0
145
0.0
146
1.0
147
0.625
 71
     0
 72
     0
 73
     0
 74
     0
 75
     0
 76
     0
 77
     1
 78
     8
170
     0
171
     3
172
     1
173
     0
174
     0
175
     0
176
     0
177
     0
178
     0
270
     2
271
     2
272
     2
273
     2
274
     3
340
11
275
     0
280
     0
281
     0
282
     0
283
     0
284
     8
285
     0
286
     0
287
     3
288
     0
  0
ENDTAB
  0
TABLE
  2
BLOCK_RECORD
  5
1
330
0
100
AcDbSymbolTable
 70
     1
  0
BLOCK_RECORD
  5
1F
330
1
100
AcDbSymbolTableRecord
100
AcDbBlockTableRecord
  2
*MODEL_SPACE
  0
BLOCK_RECORD
  5
1B
330
1
100
AcDbSymbolTableRecord
100
AcDbBlockTableRecord
  2
*PAPER_SPACE
  0
ENDTAB
  0
ENDSEC
  0
SECTION
  2
BLOCKS
  0
BLOCK
  5
20
330
1F
100
AcDbEntity
  8
0
100
AcDbBlockBegin
  2
*MODEL_SPACE
 70
     0
 10
0.0
 20
0.0
 30
0.0
  3
*MODEL_SPACE
  1

  0
ENDBLK
  5
21
330
1F
100
AcDbEntity
  8
0
100
AcDbBlockEnd
  0
BLOCK
  5
1C
330
1B
100
AcDbEntity
 67
     1
  8
0
100
AcDbBlockBegin
  2
*PAPER_SPACE
  1

  0
ENDBLK
  5
1D
330
1B
100
AcDbEntity
 67
     1
  8
0
100
AcDbBlockEnd
  0
ENDSEC
  0
SECTION
  2
ENTITIES
  0
SPLINE
  5
100
100
AcDbEntity
  8
0
 62
7
100
AcDbSpline
 70
8
 71
3
 72
8
 73
4
 74
0
 40
0
 40
0
 40
0
 40
0
 40
1
 40
1
 40
1
 40
1
 10
169.200000
 20
139.120000
 30
0.0
 10
170.960000
 20
140.480000
 30
0.0
 10
179.920000
 20
142.560000
 30
0.0
 10
187.440000
 20
143.440000
 30
0.0
  0
SPLINE
  5
101
100
AcDbEntity
  8
0
 62
7
100
AcDbSpline
 70
8
 71
3
 72
8
 73
4
 74
0
 40
0
 40
0
 40
0
 40
0
 40
1
 40
1
 40
1
 40
1
 10
187.440000
 20
143.440000
 30
0.0
 10
206.320000
 20
145.520000
 30
0.0
 10
210.160000
 20
146.640000
 30
0.0
 10
214.960000
 20
151.120000
 30
0.0
  0
SPLINE
  5
102
100
AcDbEntity
  8
0
 62
7
100
AcDbSpline
 70
8
 71
3
 72
8
 73
4
 74
0
 40
0
 40
0
 40
0
 40
0
 40
1
 40
1
 40
1
 40
1
 10
214.960000
 20
151.120000
 30
0.0
 10
220.720000
 20
156.640000
 30
0.0
 10
222.720000
 20
162.160000
 30
0.0
 10
228.320000
 20
188.240000
 30
0.0
  0
SPLINE
  5
103
100
AcDbEntity
  8
0
 62
7
100
AcDbSpline
 70
8
 71
3
 72
8
 73
4
 74
0
 40
0
 40
0
 40
0
 40
0
 40
1
 40
1
 40
1
 40
1
 10
228.320000
 20
188.240000
 30
0.0
 10
229.680000
 20
194.560000
 30
0.0
 10
231.520000
 20
203.200000
 30
0.0
 10
232.480000
 20
207.520000
 30
0.0
  0
SPLINE
  5
104
100
AcDbEntity
  8
0
 62
7
100
AcDbSpline
 70
8
 71
3
 72
8
 73
4
 74
0
 40
0
 40
0
 40
0
 40
0
 40
1
 40
1
 40
1
 40
1
 10
232.480000
 20
207.520000
 30
0.0
 10
241.360000
 20
247.760000
 30
0.0
 10
241.440000
 20
251.920000
 30
0.0
 10
233.120000
 20
301.360000
 30
0.0
  0
SPLINE
  5
105
100
AcDbEntity
  8
0
 62
7
100
AcDbSpline
 70
8
 71
3
 72
8
 73
4
 74
0
 40
0
 40
0
 40
0
 40
0
 40
1
 40
1
 40
1
 40
1
 10
233.120000
 20
301.360000
 30
0.0
 10
232.480000
 20
305.200000
 30
0.0
 10
232.000000
 20
309.040000
 30
0.0
 10
232.000000
 20
309.920000
 30
0.0
  0
SPLINE
  5
106
100
AcDbEntity
  8
0
 62
7
100
AcDbSpline
 70
8
 71
3
 72
8
 73
4
 74
0
 40
0
 40
0
 40
0
 40
0
 40
1
 40
1
 40
1
 40
1
 10
232.000000
 20
309.920000
 30
0.0
 10
232.000000
 20
311.760000
 30
0.0
 10
228.800000
 20
320.000000
 30
0.0
 10
227.040000
 20
322.640000
 30
0.0
  0
SPLINE
  5
107
100
AcDbEntity
  8
0
 62
7
100
AcDbSpline
 70
8
 71
3
 72
8
 73
4
 74
0
 40
0
 40
0
 40
0
 40
0
 40
1
 40
1
 40
1
 40
1
 10
227.040000
 20
322.640000
 30
0.0
 10
226.400000
 20
323.680000
 30
0.0
 10
224.960000
 20
326.000000
 30
0.0
 10
223.840000
 20
327.840000
 30
0.0
  0
SPLINE
  5
108
100
AcDbEntity
  8
0
 62
7
100
AcDbSpline
 70
8
 71
3
 72
8
 73
4
 74
0
 40
0
 40
0
 40
0
 40
0
 40
1
 40
1
 40
1
 40
1
 10
223.840000
 20
327.840000
 30
0.0
 10
222.720000
 20
329.600000
 30
0.0
 10
221.520000
 20
331.440000
 30
0.0
 10
221.280000
 20
331.840000
 30
0.0
  0
SPLINE
  5
109
100
AcDbEntity
  8
0
 62
7
100
AcDbSpline
 70
8
 71
3
 72
8
 73
4
 74
0
 40
0
 40
0
 40
0
 40
0
 40
1
 40
1
 40
1
 40
1
 10
221.280000
 20
331.840000
 30
0.0
 10
218.880000
 20
335.760000
 30
0.0
 10
216.640000
 20
343.600000
 30
0.0
 10
216.640000
 20
348.000000
 30
0.0
  0
SPLINE
  5
10a
100
AcDbEntity
  8
0
 62
7
100
AcDbSpline
 70
8
 71
3
 72
8
 73
4
 74
0
 40
0
 40
0
 40
0
 40
0
 40
1
 40
1
 40
1
 40
1
 10
216.640000
 20
348.000000
 30
0.0
 10
216.560000
 20
349.600000
 30
0.0
 10
217.040000
 20
352.400000
 30
0.0
 10
217.520000
 20
354.240000
 30
0.0
  0
SPLINE
  5
10b
100
AcDbEntity
  8
0
 62
7
100
AcDbSpline
 70
8
 71
3
 72
8
 73
4
 74
0
 40
0
 40
0
 40
0
 40
0
 40
1
 40
1
 40
1
 40
1
 10
217.520000
 20
354.240000
 30
0.0
 10
218.160000
 20
356.640000
 30
0.0
 10
218.560000
 20
362.080000
 30
0.0
 10
218.960000
 20
373.680000
 30
0.0
  0
SPLINE
  5
10c
100
AcDbEntity
  8
0
 62
7
100
AcDbSpline
 70
8
 71
3
 72
8
 73
4
 74
0
 40
0
 40
0
 40
0
 40
0
 40
1
 40
1
 40
1
 40
1
 10
218.960000
 20
373.680000
 30
0.0
 10
219.600000
 20
391.440000
 30
0.0
 10
220.240000
 20
400.960000
 30
0.0
 10
221.200000
 20
406.240000
 30
0.0
  0
SPLINE
  5
10d
100
AcDbEntity
  8
0
 62
7
100
AcDbSpline
 70
8
 71
3
 72
8
 73
4
 74
0
 40
0
 40
0
 40
0
 40
0
 40
1
 40
1
 40
1
 40
1
 10
221.200000
 20
406.240000
 30
0.0
 10
221.520000
 20
408.160000
 30
0.0
 10
223.200000
 20
416.960000
 30
0.0
 10
224.880000
 20
425.840000
 30
0.0
  0
SPLINE
  5
10e
100
AcDbEntity
  8
0
 62
7
100
AcDbSpline
 70
8
 71
3
 72
8
 73
4
 74
0
 40
0
 40
0
 40
0
 40
0
 40
1
 40
1
 40
1
 40
1
 10
224.880000
 20
425.840000
 30
0.0
 10
228.560000
 20
445.680000
 30
0.0
 10
229.920000
 20
454.240000
 30
0.0
 10
231.120000
 20
465.120000
 30
0.0
  0
SPLINE
  5
10f
100
AcDbEntity
  8
0
 62
7
100
AcDbSpline
 70
8
 71
3
 72
8
 73
4
 74
0
 40
0
 40
0
 40
0
 40
0
 40
1
 40
1
 40
1
 40
1
 10
231.120000
 20
465.120000
 30
0.0
 10
232.560000
 20
477.680000
 30
0.0
 10
235.520000
 20
488.720000
 30
0.0
 10
238.800000
 20
493.440000
 30
0.0
  0
SPLINE
  5
110
100
AcDbEntity
  8
0
 62
7
100
AcDbSpline
 70
8
 71
3
 72
8
 73
4
 74
0
 40
0
 40
0
 40
0
 40
0
 40
1
 40
1
 40
1
 40
1
 10
238.800000
 20
493.440000
 30
0.0
 10
239.840000
 20
494.880000
 30
0.0
 10
239.840000
 20
495.040000
 30
0.0
 10
238.560000
 20
498.160000
 30
0.0
  0
SPLINE
  5
111
100
AcDbEntity
  8
0
 62
7
100
AcDbSpline
 70
8
 71
3
 72
8
 73
4
 74
0
 40
0
 40
0
 40
0
 40
0
 40
1
 40
1
 40
1
 40
1
 10
238.560000
 20
498.160000
 30
0.0
 10
235.840000
 20
504.720000
 30
0.0
 10
234.720000
 20
508.160000
 30
0.0
 10
233.920000
 20
512.320000
 30
0.0
  0
SPLINE
  5
112
100
AcDbEntity
  8
0
 62
7
100
AcDbSpline
 70
8
 71
3
 72
8
 73
4
 74
0
 40
0
 40
0
 40
0
 40
0
 40
1
 40
1
 40
1
 40
1
 10
233.920000
 20
512.320000
 30
0.0
 10
233.120000
 20
516.080000
 30
0.0
 10
233.120000
 20
517.040000
 30
0.0
 10
233.920000
 20
521.120000
 30
0.0
  0
SPLINE
  5
113
100
AcDbEntity
  8
0
 62
7
100
AcDbSpline
 70
8
 71
3
 72
8
 73
4
 74
0
 40
0
 40
0
 40
0
 40
0
 40
1
 40
1
 40
1
 40
1
 10
233.920000
 20
521.120000
 30
0.0
 10
234.480000
 20
523.600000
 30
0.0
 10
235.760000
 20
527.760000
 30
0.0
 10
236.880000
 20
530.320000
 30
0.0
  0
LINE
  5
114
100
AcDbEntity
  8
0
 62
7
100
AcDbLine
 10
236.880000
 20
530.320000
 30
0.0
 11
238.880000
 21
535.040000
 31
0.0
  0
LINE
  5
115
100
AcDbEntity
  8
0
 62
7
100
AcDbLine
 10
238.880000
 20
535.040000
 30
0.0
 11
237.920000
 21
539.520000
 31
0.0
  0
SPLINE
  5
116
100
AcDbEntity
  8
0
 62
7
100
AcDbSpline
 70
8
 71
3
 72
8
 73
4
 74
0
 40
0
 40
0
 40
0
 40
0
 40
1
 40
1
 40
1
 40
1
 10
237.920000
 20
539.520000
 30
0.0
 10
231.600000
 20
570.080000
 30
0.0
 10
229.440000
 20
584.400000
 30
0.0
 10
229.680000
 20
595.120000
 30
0.0
  0
SPLINE
  5
117
100
AcDbEntity
  8
0
 62
7
100
AcDbSpline
 70
8
 71
3
 72
8
 73
4
 74
0
 40
0
 40
0
 40
0
 40
0
 40
1
 40
1
 40
1
 40
1
 10
229.680000
 20
595.120000
 30
0.0
 10
230.160000
 20
615.760000
 30
0.0
 10
230.000000
 20
625.680000
 30
0.0
 10
229.120000
 20
627.040000
 30
0.0
  0
SPLINE
  5
118
100
AcDbEntity
  8
0
 62
7
100
AcDbSpline
 70
8
 71
3
 72
8
 73
4
 74
0
 40
0
 40
0
 40
0
 40
0
 40
1
 40
1
 40
1
 40
1
 10
229.120000
 20
627.040000
 30
0.0
 10
228.480000
 20
628.080000
 30
0.0
 10
228.320000
 20
630.640000
 30
0.0
 10
228.320000
 20
639.120000
 30
0.0
  0
SPLINE
  5
119
100
AcDbEntity
  8
0
 62
7
100
AcDbSpline
 70
8
 71
3
 72
8
 73
4
 74
0
 40
0
 40
0
 40
0
 40
0
 40
1
 40
1
 40
1
 40
1
 10
228.320000
 20
639.120000
 30
0.0
 10
228.320000
 20
648.000000
 30
0.0
 10
228.560000
 20
650.960000
 30
0.0
 10
229.680000
 20
656.480000
 30
0.0
  0
SPLINE
  5
11a
100
AcDbEntity
  8
0
 62
7
100
AcDbSpline
 70
8
 71
3
 72
8
 73
4
 74
0
 40
0
 40
0
 40
0
 40
0
 40
1
 40
1
 40
1
 40
1
 10
229.680000
 20
656.480000
 30
0.0
 10
231.360000
 20
664.800000
 30
0.0
 10
233.840000
 20
674.160000
 30
0.0
 10
236.000000
 20
679.840000
 30
0.0
  0
SPLINE
  5
11b
100
AcDbEntity
  8
0
 62
7
100
AcDbSpline
 70
8
 71
3
 72
8
 73
4
 74
0
 40
0
 40
0
 40
0
 40
0
 40
1
 40
1
 40
1
 40
1
 10
236.000000
 20
679.840000
 30
0.0
 10
238.240000
 20
685.840000
 30
0.0
 10
237.840000
 20
686.880000
 30
0.0
 10
234.480000
 20
683.760000
 30
0.0
  0
SPLINE
  5
11c
100
AcDbEntity
  8
0
 62
7
100
AcDbSpline
 70
8
 71
3
 72
8
 73
4
 74
0
 40
0
 40
0
 40
0
 40
0
 40
1
 40
1
 40
1
 40
1
 10
234.480000
 20
683.760000
 30
0.0
 10
232.240000
 20
681.760000
 30
0.0
 10
231.360000
 20
681.440000
 30
0.0
 10
228.560000
 20
681.440000
 30
0.0
  0
SPLINE
  5
11d
100
AcDbEntity
  8
0
 62
7
100
AcDbSpline
 70
8
 71
3
 72
8
 73
4
 74
0
 40
0
 40
0
 40
0
 40
0
 40
1
 40
1
 40
1
 40
1
 10
228.560000
 20
681.440000
 30
0.0
 10
225.760000
 20
681.440000
 30
0.0
 10
225.040000
 20
681.680000
 30
0.0
 10
223.680000
 20
683.360000
 30
0.0
  0
SPLINE
  5
11e
100
AcDbEntity
  8
0
 62
7
100
AcDbSpline
 70
8
 71
3
 72
8
 73
4
 74
0
 40
0
 40
0
 40
0
 40
0
 40
1
 40
1
 40
1
 40
1
 10
223.680000
 20
683.360000
 30
0.0
 10
221.760000
 20
685.680000
 30
0.0
 10
220.240000
 20
686.560000
 30
0.0
 10
216.400000
 20
687.280000
 30
0.0
  0
SPLINE
  5
11f
100
AcDbEntity
  8
0
 62
7
100
AcDbSpline
 70
8
 71
3
 72
8
 73
4
 74
0
 40
0
 40
0
 40
0
 40
0
 40
1
 40
1
 40
1
 40
1
 10
216.400000
 20
687.280000
 30
0.0
 10
212.800000
 20
687.920000
 30
0.0
 10
208.480000
 20
690.960000
 30
0.0
 10
206.640000
 20
694.080000
 30
0.0
  0
SPLINE
  5
120
100
AcDbEntity
  8
0
 62
7
100
AcDbSpline
 70
8
 71
3
 72
8
 73
4
 74
0
 40
0
 40
0
 40
0
 40
0
 40
1
 40
1
 40
1
 40
1
 10
206.640000
 20
694.080000
 30
0.0
 10
204.800000
 20
697.120000
 30
0.0
 10
203.520000
 20
697.120000
 30
0.0
 10
199.840000
 20
693.920000
 30
0.0
  0
SPLINE
  5
121
100
AcDbEntity
  8
0
 62
7
100
AcDbSpline
 70
8
 71
3
 72
8
 73
4
 74
0
 40
0
 40
0
 40
0
 40
0
 40
1
 40
1
 40
1
 40
1
 10
199.840000
 20
693.920000
 30
0.0
 10
198.160000
 20
692.480000
 30
0.0
 10
196.640000
 20
691.360000
 30
0.0
 10
196.320000
 20
691.360000
 30
0.0
  0
SPLINE
  5
122
100
AcDbEntity
  8
0
 62
7
100
AcDbSpline
 70
8
 71
3
 72
8
 73
4
 74
0
 40
0
 40
0
 40
0
 40
0
 40
1
 40
1
 40
1
 40
1
 10
196.320000
 20
691.360000
 30
0.0
 10
195.360000
 20
691.360000
 30
0.0
 10
192.240000
 20
697.840000
 30
0.0
 10
191.040000
 20
702.240000
 30
0.0
  0
SPLINE
  5
123
100
AcDbEntity
  8
0
 62
7
100
AcDbSpline
 70
8
 71
3
 72
8
 73
4
 74
0
 40
0
 40
0
 40
0
 40
0
 40
1
 40
1
 40
1
 40
1
 10
191.040000
 20
702.240000
 30
0.0
 10
189.440000
 20
708.320000
 30
0.0
 10
188.720000
 20
709.440000
 30
0.0
 10
186.080000
 20
710.080000
 30
0.0
  0
SPLINE
  5
124
100
AcDbEntity
  8
0
 62
7
100
AcDbSpline
 70
8
 71
3
 72
8
 73
4
 74
0
 40
0
 40
0
 40
0
 40
0
 40
1
 40
1
 40
1
 40
1
 10
186.080000
 20
710.080000
 30
0.0
 10
182.400000
 20
710.880000
 30
0.0
 10
177.280000
 20
718.640000
 30
0.0
 10
173.760000
 20
728.480000
 30
0.0
  0
SPLINE
  5
125
100
AcDbEntity
  8
0
 62
7
100
AcDbSpline
 70
8
 71
3
 72
8
 73
4
 74
0
 40
0
 40
0
 40
0
 40
0
 40
1
 40
1
 40
1
 40
1
 10
173.760000
 20
728.480000
 30
0.0
 10
170.640000
 20
737.280000
 30
0.0
 10
171.600000
 20
747.680000
 30
0.0
 10
176.240000
 20
756.480000
 30
0.0
  0
SPLINE
  5
126
100
AcDbEntity
  8
0
 62
7
100
AcDbSpline
 70
8
 71
3
 72
8
 73
4
 74
0
 40
0
 40
0
 40
0
 40
0
 40
1
 40
1
 40
1
 40
1
 10
176.240000
 20
756.480000
 30
0.0
 10
177.600000
 20
759.120000
 30
0.0
 10
178.640000
 20
761.680000
 30
0.0
 10
178.480000
 20
762.240000
 30
0.0
  0
SPLINE
  5
127
100
AcDbEntity
  8
0
 62
7
100
AcDbSpline
 70
8
 71
3
 72
8
 73
4
 74
0
 40
0
 40
0
 40
0
 40
0
 40
1
 40
1
 40
1
 40
1
 10
178.480000
 20
762.240000
 30
0.0
 10
178.080000
 20
763.600000
 30
0.0
 10
173.520000
 20
767.840000
 30
0.0
 10
168.880000
 20
771.120000
 30
0.0
  0
SPLINE
  5
128
100
AcDbEntity
  8
0
 62
7
100
AcDbSpline
 70
8
 71
3
 72
8
 73
4
 74
0
 40
0
 40
0
 40
0
 40
0
 40
1
 40
1
 40
1
 40
1
 10
168.880000
 20
771.120000
 30
0.0
 10
166.800000
 20
772.640000
 30
0.0
 10
165.120000
 20
774.160000
 30
0.0
 10
165.200000
 20
774.560000
 30
0.0
  0
SPLINE
  5
129
100
AcDbEntity
  8
0
 62
7
100
AcDbSpline
 70
8
 71
3
 72
8
 73
4
 74
0
 40
0
 40
0
 40
0
 40
0
 40
1
 40
1
 40
1
 40
1
 10
165.200000
 20
774.560000
 30
0.0
 10
165.600000
 20
776.000000
 30
0.0
 10
168.720000
 20
776.640000
 30
0.0
 10
176.880000
 20
777.120000
 30
0.0
  0
SPLINE
  5
12a
100
AcDbEntity
  8
0
 62
7
100
AcDbSpline
 70
8
 71
3
 72
8
 73
4
 74
0
 40
0
 40
0
 40
0
 40
0
 40
1
 40
1
 40
1
 40
1
 10
176.880000
 20
777.120000
 30
0.0
 10
181.440000
 20
777.440000
 30
0.0
 10
184.960000
 20
777.920000
 30
0.0
 10
185.040000
 20
778.320000
 30
0.0
  0
SPLINE
  5
12b
100
AcDbEntity
  8
0
 62
7
100
AcDbSpline
 70
8
 71
3
 72
8
 73
4
 74
0
 40
0
 40
0
 40
0
 40
0
 40
1
 40
1
 40
1
 40
1
 10
185.040000
 20
778.320000
 30
0.0
 10
185.280000
 20
779.440000
 30
0.0
 10
177.920000
 20
785.360000
 30
0.0
 10
172.160000
 20
788.800000
 30
0.0
  0
SPLINE
  5
12c
100
AcDbEntity
  8
0
 62
7
100
AcDbSpline
 70
8
 71
3
 72
8
 73
4
 74
0
 40
0
 40
0
 40
0
 40
0
 40
1
 40
1
 40
1
 40
1
 10
172.160000
 20
788.800000
 30
0.0
 10
169.360000
 20
790.480000
 30
0.0
 10
167.040000
 20
792.240000
 30
0.0
 10
167.040000
 20
792.800000
 30
0.0
  0
SPLINE
  5
12d
100
AcDbEntity
  8
0
 62
7
100
AcDbSpline
 70
8
 71
3
 72
8
 73
4
 74
0
 40
0
 40
0
 40
0
 40
0
 40
1
 40
1
 40
1
 40
1
 10
167.040000
 20
792.800000
 30
0.0
 10
167.040000
 20
796.880000
 30
0.0
 10
191.840000
 20
796.400000
 30
0.0
 10
209.120000
 20
792.000000
 30
0.0
  0
SPLINE
  5
12e
100
AcDbEntity
  8
0
 62
7
100
AcDbSpline
 70
8
 71
3
 72
8
 73
4
 74
0
 40
0
 40
0
 40
0
 40
0
 40
1
 40
1
 40
1
 40
1
 10
209.120000
 20
792.000000
 30
0.0
 10
226.000000
 20
787.680000
 30
0.0
 10
237.200000
 20
782.160000
 30
0.0
 10
252.640000
 20
770.640000
 30
0.0
  0
SPLINE
  5
12f
100
AcDbEntity
  8
0
 62
7
100
AcDbSpline
 70
8
 71
3
 72
8
 73
4
 74
0
 40
0
 40
0
 40
0
 40
0
 40
1
 40
1
 40
1
 40
1
 10
252.640000
 20
770.640000
 30
0.0
 10
259.280000
 20
765.680000
 30
0.0
 10
262.880000
 20
763.280000
 30
0.0
 10
266.640000
 20
761.280000
 30
0.0
  0
SPLINE
  5
130
100
AcDbEntity
  8
0
 62
7
100
AcDbSpline
 70
8
 71
3
 72
8
 73
4
 74
0
 40
0
 40
0
 40
0
 40
0
 40
1
 40
1
 40
1
 40
1
 10
266.640000
 20
761.280000
 30
0.0
 10
271.520000
 20
758.640000
 30
0.0
 10
279.600000
 20
753.440000
 30
0.0
 10
284.400000
 20
749.920000
 30
0.0
  0
SPLINE
  5
131
100
AcDbEntity
  8
0
 62
7
100
AcDbSpline
 70
8
 71
3
 72
8
 73
4
 74
0
 40
0
 40
0
 40
0
 40
0
 40
1
 40
1
 40
1
 40
1
 10
284.400000
 20
749.920000
 30
0.0
 10
290.960000
 20
745.120000
 30
0.0
 10
292.240000
 20
744.720000
 30
0.0
 10
301.760000
 20
744.240000
 30
0.0
  0
SPLINE
  5
132
100
AcDbEntity
  8
0
 62
7
100
AcDbSpline
 70
8
 71
3
 72
8
 73
4
 74
0
 40
0
 40
0
 40
0
 40
0
 40
1
 40
1
 40
1
 40
1
 10
301.760000
 20
744.240000
 30
0.0
 10
311.120000
 20
743.760000
 30
0.0
 10
310.400000
 20
744.000000
 30
0.0
 10
317.440000
 20
738.960000
 30
0.0
  0
SPLINE
  5
133
100
AcDbEntity
  8
0
 62
7
100
AcDbSpline
 70
8
 71
3
 72
8
 73
4
 74
0
 40
0
 40
0
 40
0
 40
0
 40
1
 40
1
 40
1
 40
1
 10
317.440000
 20
738.960000
 30
0.0
 10
321.840000
 20
735.920000
 30
0.0
 10
331.600000
 20
725.920000
 30
0.0
 10
337.360000
 20
718.640000
 30
0.0
  0
SPLINE
  5
134
100
AcDbEntity
  8
0
 62
7
100
AcDbSpline
 70
8
 71
3
 72
8
 73
4
 74
0
 40
0
 40
0
 40
0
 40
0
 40
1
 40
1
 40
1
 40
1
 10
337.360000
 20
718.640000
 30
0.0
 10
343.920000
 20
710.240000
 30
0.0
 10
350.480000
 20
699.840000
 30
0.0
 10
354.240000
 20
691.680000
 30
0.0
  0
SPLINE
  5
135
100
AcDbEntity
  8
0
 62
7
100
AcDbSpline
 70
8
 71
3
 72
8
 73
4
 74
0
 40
0
 40
0
 40
0
 40
0
 40
1
 40
1
 40
1
 40
1
 10
354.240000
 20
691.680000
 30
0.0
 10
360.000000
 20
679.520000
 30
0.0
 10
359.840000
 20
680.080000
 30
0.0
 10
364.480000
 20
646.880000
 30
0.0
  0
SPLINE
  5
136
100
AcDbEntity
  8
0
 62
7
100
AcDbSpline
 70
8
 71
3
 72
8
 73
4
 74
0
 40
0
 40
0
 40
0
 40
0
 40
1
 40
1
 40
1
 40
1
 10
364.480000
 20
646.880000
 30
0.0
 10
364.960000
 20
643.280000
 30
0.0
 10
365.680000
 20
638.960000
 30
0.0
 10
366.080000
 20
637.360000
 30
0.0
  0
SPLINE
  5
137
100
AcDbEntity
  8
0
 62
7
100
AcDbSpline
 70
8
 71
3
 72
8
 73
4
 74
0
 40
0
 40
0
 40
0
 40
0
 40
1
 40
1
 40
1
 40
1
 10
366.080000
 20
637.360000
 30
0.0
 10
366.480000
 20
635.760000
 30
0.0
 10
368.000000
 20
629.440000
 30
0.0
 10
369.520000
 20
623.360000
 30
0.0
  0
SPLINE
  5
138
100
AcDbEntity
  8
0
 62
7
100
AcDbSpline
 70
8
 71
3
 72
8
 73
4
 74
0
 40
0
 40
0
 40
0
 40
0
 40
1
 40
1
 40
1
 40
1
 10
369.520000
 20
623.360000
 30
0.0
 10
370.960000
 20
617.360000
 30
0.0
 10
373.120000
 20
608.400000
 30
0.0
 10
374.320000
 20
603.600000
 30
0.0
  0
SPLINE
  5
139
100
AcDbEntity
  8
0
 62
7
100
AcDbSpline
 70
8
 71
3
 72
8
 73
4
 74
0
 40
0
 40
0
 40
0
 40
0
 40
1
 40
1
 40
1
 40
1
 10
374.320000
 20
603.600000
 30
0.0
 10
375.520000
 20
598.720000
 30
0.0
 10
377.680000
 20
589.760000
 30
0.0
 10
379.120000
 20
583.760000
 30
0.0
  0
SPLINE
  5
13a
100
AcDbEntity
  8
0
 62
7
100
AcDbSpline
 70
8
 71
3
 72
8
 73
4
 74
0
 40
0
 40
0
 40
0
 40
0
 40
1
 40
1
 40
1
 40
1
 10
379.120000
 20
583.760000
 30
0.0
 10
380.560000
 20
577.680000
 30
0.0
 10
382.000000
 20
571.920000
 30
0.0
 10
382.240000
 20
570.880000
 30
0.0
  0
SPLINE
  5
13b
100
AcDbEntity
  8
0
 62
7
100
AcDbSpline
 70
8
 71
3
 72
8
 73
4
 74
0
 40
0
 40
0
 40
0
 40
0
 40
1
 40
1
 40
1
 40
1
 10
382.240000
 20
570.880000
 30
0.0
 10
382.480000
 20
569.840000
 30
0.0
 10
383.360000
 20
566.240000
 30
0.0
 10
384.160000
 20
562.800000
 30
0.0
  0
SPLINE
  5
13c
100
AcDbEntity
  8
0
 62
7
100
AcDbSpline
 70
8
 71
3
 72
8
 73
4
 74
0
 40
0
 40
0
 40
0
 40
0
 40
1
 40
1
 40
1
 40
1
 10
384.160000
 20
562.800000
 30
0.0
 10
384.960000
 20
559.360000
 30
0.0
 10
386.240000
 20
553.760000
 30
0.0
 10
387.040000
 20
550.320000
 30
0.0
  0
SPLINE
  5
13d
100
AcDbEntity
  8
0
 62
7
100
AcDbSpline
 70
8
 71
3
 72
8
 73
4
 74
0
 40
0
 40
0
 40
0
 40
0
 40
1
 40
1
 40
1
 40
1
 10
387.040000
 20
550.320000
 30
0.0
 10
387.920000
 20
546.880000
 30
0.0
 10
388.880000
 20
542.560000
 30
0.0
 10
389.280000
 20
540.800000
 30
0.0
  0
SPLINE
  5
13e
100
AcDbEntity
  8
0
 62
7
100
AcDbSpline
 70
8
 71
3
 72
8
 73
4
 74
0
 40
0
 40
0
 40
0
 40
0
 40
1
 40
1
 40
1
 40
1
 10
389.280000
 20
540.800000
 30
0.0
 10
389.680000
 20
538.960000
 30
0.0
 10
392.480000
 20
526.880000
 30
0.0
 10
395.520000
 20
514.000000
 30
0.0
  0
SPLINE
  5
13f
100
AcDbEntity
  8
0
 62
7
100
AcDbSpline
 70
8
 71
3
 72
8
 73
4
 74
0
 40
0
 40
0
 40
0
 40
0
 40
1
 40
1
 40
1
 40
1
 10
395.520000
 20
514.000000
 30
0.0
 10
398.560000
 20
501.040000
 30
0.0
 10
401.360000
 20
488.960000
 30
0.0
 10
401.840000
 20
487.200000
 30
0.0
  0
SPLINE
  5
140
100
AcDbEntity
  8
0
 62
7
100
AcDbSpline
 70
8
 71
3
 72
8
 73
4
 74
0
 40
0
 40
0
 40
0
 40
0
 40
1
 40
1
 40
1
 40
1
 10
401.840000
 20
487.200000
 30
0.0
 10
402.240000
 20
485.360000
 30
0.0
 10
402.960000
 20
482.240000
 30
0.0
 10
403.360000
 20
480.160000
 30
0.0
  0
SPLINE
  5
141
100
AcDbEntity
  8
0
 62
7
100
AcDbSpline
 70
8
 71
3
 72
8
 73
4
 74
0
 40
0
 40
0
 40
0
 40
0
 40
1
 40
1
 40
1
 40
1
 10
403.360000
 20
480.160000
 30
0.0
 10
403.840000
 20
478.160000
 30
0.0
 10
405.040000
 20
473.200000
 30
0.0
 10
405.920000
 20
469.200000
 30
0.0
  0
SPLINE
  5
142
100
AcDbEntity
  8
0
 62
7
100
AcDbSpline
 70
8
 71
3
 72
8
 73
4
 74
0
 40
0
 40
0
 40
0
 40
0
 40
1
 40
1
 40
1
 40
1
 10
405.920000
 20
469.200000
 30
0.0
 10
406.880000
 20
465.120000
 30
0.0
 10
408.320000
 20
458.880000
 30
0.0
 10
409.120000
 20
455.200000
 30
0.0
  0
SPLINE
  5
143
100
AcDbEntity
  8
0
 62
7
100
AcDbSpline
 70
8
 71
3
 72
8
 73
4
 74
0
 40
0
 40
0
 40
0
 40
0
 40
1
 40
1
 40
1
 40
1
 10
409.120000
 20
455.200000
 30
0.0
 10
410.000000
 20
451.600000
 30
0.0
 10
411.040000
 20
447.120000
 30
0.0
 10
411.360000
 20
445.280000
 30
0.0
  0
SPLINE
  5
144
100
AcDbEntity
  8
0
 62
7
100
AcDbSpline
 70
8
 71
3
 72
8
 73
4
 74
0
 40
0
 40
0
 40
0
 40
0
 40
1
 40
1
 40
1
 40
1
 10
411.360000
 20
445.280000
 30
0.0
 10
411.760000
 20
443.520000
 30
0.0
 10
413.040000
 20
437.840000
 30
0.0
 10
414.240000
 20
432.800000
 30
0.0
  0
SPLINE
  5
145
100
AcDbEntity
  8
0
 62
7
100
AcDbSpline
 70
8
 71
3
 72
8
 73
4
 74
0
 40
0
 40
0
 40
0
 40
0
 40
1
 40
1
 40
1
 40
1
 10
414.240000
 20
432.800000
 30
0.0
 10
418.160000
 20
415.840000
 30
0.0
 10
424.480000
 20
387.440000
 30
0.0
 10
428.720000
 20
368.160000
 30
0.0
  0
SPLINE
  5
146
100
AcDbEntity
  8
0
 62
7
100
AcDbSpline
 70
8
 71
3
 72
8
 73
4
 74
0
 40
0
 40
0
 40
0
 40
0
 40
1
 40
1
 40
1
 40
1
 10
428.720000
 20
368.160000
 30
0.0
 10
430.000000
 20
362.320000
 30
0.0
 10
431.680000
 20
354.880000
 30
0.0
 10
432.400000
 20
351.680000
 30
0.0
  0
SPLINE
  5
147
100
AcDbEntity
  8
0
 62
7
100
AcDbSpline
 70
8
 71
3
 72
8
 73
4
 74
0
 40
0
 40
0
 40
0
 40
0
 40
1
 40
1
 40
1
 40
1
 10
432.400000
 20
351.680000
 30
0.0
 10
433.120000
 20
348.400000
 30
0.0
 10
433.840000
 20
345.120000
 30
0.0
 10
434.000000
 20
344.320000
 30
0.0
  0
SPLINE
  5
148
100
AcDbEntity
  8
0
 62
7
100
AcDbSpline
 70
8
 71
3
 72
8
 73
4
 74
0
 40
0
 40
0
 40
0
 40
0
 40
1
 40
1
 40
1
 40
1
 10
434.000000
 20
344.320000
 30
0.0
 10
434.160000
 20
343.520000
 30
0.0
 10
435.840000
 20
335.920000
 30
0.0
 10
437.680000
 20
327.440000
 30
0.0
  0
SPLINE
  5
149
100
AcDbEntity
  8
0
 62
7
100
AcDbSpline
 70
8
 71
3
 72
8
 73
4
 74
0
 40
0
 40
0
 40
0
 40
0
 40
1
 40
1
 40
1
 40
1
 10
437.680000
 20
327.440000
 30
0.0
 10
440.880000
 20
312.880000
 30
0.0
 10
444.080000
 20
298.320000
 30
0.0
 10
449.120000
 20
274.560000
 30
0.0
  0
SPLINE
  5
14a
100
AcDbEntity
  8
0
 62
7
100
AcDbSpline
 70
8
 71
3
 72
8
 73
4
 74
0
 40
0
 40
0
 40
0
 40
0
 40
1
 40
1
 40
1
 40
1
 10
449.120000
 20
274.560000
 30
0.0
 10
451.600000
 20
262.960000
 30
0.0
 10
457.920000
 20
232.480000
 30
0.0
 10
463.280000
 20
206.240000
 30
0.0
  0
SPLINE
  5
14b
100
AcDbEntity
  8
0
 62
7
100
AcDbSpline
 70
8
 71
3
 72
8
 73
4
 74
0
 40
0
 40
0
 40
0
 40
0
 40
1
 40
1
 40
1
 40
1
 10
463.280000
 20
206.240000
 30
0.0
 10
466.640000
 20
189.840000
 30
0.0
 10
474.800000
 20
146.240000
 30
0.0
 10
475.520000
 20
141.120000
 30
0.0
  0
LINE
  5
14c
100
AcDbEntity
  8
0
 62
7
100
AcDbLine
 10
475.520000
 20
141.120000
 30
0.0
 11
475.920000
 21
138.320000
 31
0.0
  0
LINE
  5
14d
100
AcDbEntity
  8
0
 62
7
100
AcDbLine
 10
475.920000
 20
138.320000
 30
0.0
 11
322.080000
 21
138.320000
 31
0.0
  0
SPLINE
  5
14e
100
AcDbEntity
  8
0
 62
7
100
AcDbSpline
 70
8
 71
3
 72
8
 73
4
 74
0
 40
0
 40
0
 40
0
 40
0
 40
1
 40
1
 40
1
 40
1
 10
322.080000
 20
138.320000
 30
0.0
 10
218.160000
 20
138.400000
 30
0.0
 10
168.480000
 20
138.640000
 30
0.0
 10
169.200000
 20
139.120000
 30
0.0
  0
LINE
  5
14f
100
AcDbEntity
  8
0
 62
7
100
AcDbLine
 10
169.200000
 20
139.120000
 30
0.0
 11
169.200000
 21
139.120000
 31
0.0
  0
SPLINE
  5
150
100
AcDbEntity
  8
0
 62
7
100
AcDbSpline
 70
8
 71
3
 72
8
 73
4
 74
0
 40
0
 40
0
 40
0
 40
0
 40
1
 40
1
 40
1
 40
1
 10
60.000000
 20
65.120000
 30
0.0
 10
63.200000
 20
64.160000
 30
0.0
 10
65.600000
 20
62.560000
 30
0.0
 10
67.200000
 20
60.320000
 30
0.0
  0
SPLINE
  5
151
100
AcDbEntity
  8
0
 62
7
100
AcDbSpline
 70
8
 71
3
 72
8
 73
4
 74
0
 40
0
 40
0
 40
0
 40
0
 40
1
 40
1
 40
1
 40
1
 10
67.200000
 20
60.320000
 30
0.0
 10
68.800000
 20
58.080000
 30
0.0
 10
69.600000
 20
55.520000
 30
0.0
 10
69.600000
 20
52.640000
 30
0.0
  0
SPLINE
  5
152
100
AcDbEntity
  8
0
 62
7
100
AcDbSpline
 70
8
 71
3
 72
8
 73
4
 74
0
 40
0
 40
0
 40
0
 40
0
 40
1
 40
1
 40
1
 40
1
 10
69.600000
 20
52.640000
 30
0.0
 10
69.600000
 20
49.760000
 30
0.0
 10
68.880000
 20
47.120000
 30
0.0
 10
67.440000
 20
44.720000
 30
0.0
  0
SPLINE
  5
153
100
AcDbEntity
  8
0
 62
7
100
AcDbSpline
 70
8
 71
3
 72
8
 73
4
 74
0
 40
0
 40
0
 40
0
 40
0
 40
1
 40
1
 40
1
 40
1
 10
67.440000
 20
44.720000
 30
0.0
 10
66.000000
 20
42.320000
 30
0.0
 10
63.920000
 20
40.560000
 30
0.0
 10
61.280000
 20
39.360000
 30
0.0
  0
SPLINE
  5
154
100
AcDbEntity
  8
0
 62
7
100
AcDbSpline
 70
8
 71
3
 72
8
 73
4
 74
0
 40
0
 40
0
 40
0
 40
0
 40
1
 40
1
 40
1
 40
1
 10
61.280000
 20
39.360000
 30
0.0
 10
58.560000
 20
38.240000
 30
0.0
 10
54.960000
 20
37.680000
 30
0.0
 10
50.400000
 20
37.680000
 30
0.0
  0
LINE
  5
155
100
AcDbEntity
  8
0
 62
7
100
AcDbLine
 10
50.400000
 20
37.680000
 30
0.0
 11
30.720000
 21
37.680000
 31
0.0
  0
LINE
  5
156
100
AcDbEntity
  8
0
 62
7
100
AcDbLine
 10
30.720000
 20
37.680000
 30
0.0
 11
30.720000
 21
89.200000
 31
0.0
  0
LINE
  5
157
100
AcDbEntity
  8
0
 62
7
100
AcDbLine
 10
30.720000
 20
89.200000
 30
0.0
 11
50.000000
 21
89.200000
 31
0.0
  0
SPLINE
  5
158
100
AcDbEntity
  8
0
 62
7
100
AcDbSpline
 70
8
 71
3
 72
8
 73
4
 74
0
 40
0
 40
0
 40
0
 40
0
 40
1
 40
1
 40
1
 40
1
 10
50.000000
 20
89.200000
 30
0.0
 10
56.240000
 20
89.200000
 30
0.0
 10
60.720000
 20
87.840000
 30
0.0
 10
63.280000
 20
85.120000
 30
0.0
  0
SPLINE
  5
159
100
AcDbEntity
  8
0
 62
7
100
AcDbSpline
 70
8
 71
3
 72
8
 73
4
 74
0
 40
0
 40
0
 40
0
 40
0
 40
1
 40
1
 40
1
 40
1
 10
63.280000
 20
85.120000
 30
0.0
 10
65.840000
 20
82.400000
 30
0.0
 10
67.120000
 20
79.440000
 30
0.0
 10
67.120000
 20
76.080000
 30
0.0
  0
SPLINE
  5
15a
100
AcDbEntity
  8
0
 62
7
100
AcDbSpline
 70
8
 71
3
 72
8
 73
4
 74
0
 40
0
 40
0
 40
0
 40
0
 40
1
 40
1
 40
1
 40
1
 10
67.120000
 20
76.080000
 30
0.0
 10
67.120000
 20
73.840000
 30
0.0
 10
66.480000
 20
71.760000
 30
0.0
 10
65.360000
 20
69.840000
 30
0.0
  0
SPLINE
  5
15b
100
AcDbEntity
  8
0
 62
7
100
AcDbSpline
 70
8
 71
3
 72
8
 73
4
 74
0
 40
0
 40
0
 40
0
 40
0
 40
1
 40
1
 40
1
 40
1
 10
65.360000
 20
69.840000
 30
0.0
 10
64.160000
 20
67.920000
 30
0.0
 10
62.320000
 20
66.320000
 30
0.0
 10
60.000000
 20
65.120000
 30
0.0
  0
LINE
  5
15c
100
AcDbEntity
  8
0
 62
7
100
AcDbLine
 10
60.000000
 20
65.120000
 30
0.0
 11
60.000000
 21
65.120000
 31
0.0
  0
LINE
  5
15d
100
AcDbEntity
  8
0
 62
7
100
AcDbLine
 10
37.520000
 20
67.680000
 30
0.0
 11
48.720000
 21
67.680000
 31
0.0
  0
SPLINE
  5
15e
100
AcDbEntity
  8
0
 62
7
100
AcDbSpline
 70
8
 71
3
 72
8
 73
4
 74
0
 40
0
 40
0
 40
0
 40
0
 40
1
 40
1
 40
1
 40
1
 10
48.720000
 20
67.680000
 30
0.0
 10
50.960000
 20
67.680000
 30
0.0
 10
52.880000
 20
67.760000
 30
0.0
 10
54.480000
 20
68.000000
 30
0.0
  0
SPLINE
  5
15f
100
AcDbEntity
  8
0
 62
7
100
AcDbSpline
 70
8
 71
3
 72
8
 73
4
 74
0
 40
0
 40
0
 40
0
 40
0
 40
1
 40
1
 40
1
 40
1
 10
54.480000
 20
68.000000
 30
0.0
 10
56.000000
 20
68.320000
 30
0.0
 10
57.360000
 20
68.960000
 30
0.0
 10
58.560000
 20
70.080000
 30
0.0
  0
SPLINE
  5
160
100
AcDbEntity
  8
0
 62
7
100
AcDbSpline
 70
8
 71
3
 72
8
 73
4
 74
0
 40
0
 40
0
 40
0
 40
0
 40
1
 40
1
 40
1
 40
1
 10
58.560000
 20
70.080000
 30
0.0
 10
59.760000
 20
71.200000
 30
0.0
 10
60.400000
 20
72.880000
 30
0.0
 10
60.400000
 20
75.200000
 30
0.0
  0
SPLINE
  5
161
100
AcDbEntity
  8
0
 62
7
100
AcDbSpline
 70
8
 71
3
 72
8
 73
4
 74
0
 40
0
 40
0
 40
0
 40
0
 40
1
 40
1
 40
1
 40
1
 10
60.400000
 20
75.200000
 30
0.0
 10
60.400000
 20
77.680000
 30
0.0
 10
59.760000
 20
79.440000
 30
0.0
 10
58.560000
 20
80.640000
 30
0.0
  0
SPLINE
  5
162
100
AcDbEntity
  8
0
 62
7
100
AcDbSpline
 70
8
 71
3
 72
8
 73
4
 74
0
 40
0
 40
0
 40
0
 40
0
 40
1
 40
1
 40
1
 40
1
 10
58.560000
 20
80.640000
 30
0.0
 10
57.360000
 20
81.760000
 30
0.0
 10
55.920000
 20
82.480000
 30
0.0
 10
54.240000
 20
82.720000
 30
0.0
  0
SPLINE
  5
163
100
AcDbEntity
  8
0
 62
7
100
AcDbSpline
 70
8
 71
3
 72
8
 73
4
 74
0
 40
0
 40
0
 40
0
 40
0
 40
1
 40
1
 40
1
 40
1
 10
54.240000
 20
82.720000
 30
0.0
 10
52.560000
 20
82.960000
 30
0.0
 10
50.400000
 20
83.120000
 30
0.0
 10
47.840000
 20
83.120000
 30
0.0
  0
LINE
  5
164
100
AcDbEntity
  8
0
 62
7
100
AcDbLine
 10
47.840000
 20
83.120000
 30
0.0
 11
37.520000
 21
83.120000
 31
0.0
  0
LINE
  5
165
100
AcDbEntity
  8
0
 62
7
100
AcDbLine
 10
37.520000
 20
83.120000
 30
0.0
 11
37.520000
 21
67.680000
 31
0.0
  0
LINE
  5
166
100
AcDbEntity
  8
0
 62
7
100
AcDbLine
 10
37.520000
 20
67.680000
 30
0.0
 11
37.520000
 21
67.680000
 31
0.0
  0
LINE
  5
167
100
AcDbEntity
  8
0
 62
7
100
AcDbLine
 10
37.520000
 20
43.840000
 30
0.0
 11
50.320000
 21
43.840000
 31
0.0
  0
SPLINE
  5
168
100
AcDbEntity
  8
0
 62
7
100
AcDbSpline
 70
8
 71
3
 72
8
 73
4
 74
0
 40
0
 40
0
 40
0
 40
0
 40
1
 40
1
 40
1
 40
1
 10
50.320000
 20
43.840000
 30
0.0
 10
54.960000
 20
43.840000
 30
0.0
 10
58.080000
 20
44.560000
 30
0.0
 10
59.920000
 20
46.160000
 30
0.0
  0
SPLINE
  5
169
100
AcDbEntity
  8
0
 62
7
100
AcDbSpline
 70
8
 71
3
 72
8
 73
4
 74
0
 40
0
 40
0
 40
0
 40
0
 40
1
 40
1
 40
1
 40
1
 10
59.920000
 20
46.160000
 30
0.0
 10
61.680000
 20
47.760000
 30
0.0
 10
62.560000
 20
49.920000
 30
0.0
 10
62.560000
 20
52.640000
 30
0.0
  0
SPLINE
  5
16a
100
AcDbEntity
  8
0
 62
7
100
AcDbSpline
 70
8
 71
3
 72
8
 73
4
 74
0
 40
0
 40
0
 40
0
 40
0
 40
1
 40
1
 40
1
 40
1
 10
62.560000
 20
52.640000
 30
0.0
 10
62.560000
 20
55.440000
 30
0.0
 10
61.600000
 20
57.600000
 30
0.0
 10
59.680000
 20
59.200000
 30
0.0
  0
SPLINE
  5
16b
100
AcDbEntity
  8
0
 62
7
100
AcDbSpline
 70
8
 71
3
 72
8
 73
4
 74
0
 40
0
 40
0
 40
0
 40
0
 40
1
 40
1
 40
1
 40
1
 10
59.680000
 20
59.200000
 30
0.0
 10
57.840000
 20
60.720000
 30
0.0
 10
54.400000
 20
61.520000
 30
0.0
 10
49.440000
 20
61.520000
 30
0.0
  0
LINE
  5
16c
100
AcDbEntity
  8
0
 62
7
100
AcDbLine
 10
49.440000
 20
61.520000
 30
0.0
 11
37.520000
 21
61.520000
 31
0.0
  0
LINE
  5
16d
100
AcDbEntity
  8
0
 62
7
100
AcDbLine
 10
37.520000
 20
61.520000
 30
0.0
 11
37.520000
 21
43.840000
 31
0.0
  0
LINE
  5
16e
100
AcDbEntity
  8
0
 62
7
100
AcDbLine
 10
37.520000
 20
43.840000
 30
0.0
 11
37.520000
 21
43.840000
 31
0.0
  0
LINE
  5
16f
100
AcDbEntity
  8
0
 62
7
100
AcDbLine
 10
84.480000
 20
37.680000
 30
0.0
 11
78.160000
 21
37.680000
 31
0.0
  0
LINE
  5
170
100
AcDbEntity
  8
0
 62
7
100
AcDbLine
 10
78.160000
 20
37.680000
 30
0.0
 11
78.160000
 21
74.960000
 31
0.0
  0
LINE
  5
171
100
AcDbEntity
  8
0
 62
7
100
AcDbLine
 10
78.160000
 20
74.960000
 30
0.0
 11
84.480000
 21
74.960000
 31
0.0
  0
LINE
  5
172
100
AcDbEntity
  8
0
 62
7
100
AcDbLine
 10
84.480000
 20
74.960000
 30
0.0
 11
84.480000
 21
37.680000
 31
0.0
  0
LINE
  5
173
100
AcDbEntity
  8
0
 62
7
100
AcDbLine
 10
84.480000
 20
37.680000
 30
0.0
 11
84.480000
 21
37.680000
 31
0.0
  0
LINE
  5
174
100
AcDbEntity
  8
0
 62
7
100
AcDbLine
 10
84.480000
 20
82.080000
 30
0.0
 11
78.160000
 21
82.080000
 31
0.0
  0
LINE
  5
175
100
AcDbEntity
  8
0
 62
7
100
AcDbLine
 10
78.160000
 20
82.080000
 30
0.0
 11
78.160000
 21
89.200000
 31
0.0
  0
LINE
  5
176
100
AcDbEntity
  8
0
 62
7
100
AcDbLine
 10
78.160000
 20
89.200000
 30
0.0
 11
84.480000
 21
89.200000
 31
0.0
  0
LINE
  5
177
100
AcDbEntity
  8
0
 62
7
100
AcDbLine
 10
84.480000
 20
89.200000
 30
0.0
 11
84.480000
 21
82.080000
 31
0.0
  0
LINE
  5
178
100
AcDbEntity
  8
0
 62
7
100
AcDbLine
 10
84.480000
 20
82.080000
 30
0.0
 11
84.480000
 21
82.080000
 31
0.0
  0
SPLINE
  5
179
100
AcDbEntity
  8
0
 62
7
100
AcDbSpline
 70
8
 71
3
 72
8
 73
4
 74
0
 40
0
 40
0
 40
0
 40
0
 40
1
 40
1
 40
1
 40
1
 10
114.960000
 20
64.560000
 30
0.0
 10
114.720000
 20
66.560000
 30
0.0
 10
113.840000
 20
68.160000
 30
0.0
 10
112.480000
 20
69.120000
 30
0.0
  0
SPLINE
  5
17a
100
AcDbEntity
  8
0
 62
7
100
AcDbSpline
 70
8
 71
3
 72
8
 73
4
 74
0
 40
0
 40
0
 40
0
 40
0
 40
1
 40
1
 40
1
 40
1
 10
112.480000
 20
69.120000
 30
0.0
 10
111.120000
 20
70.160000
 30
0.0
 10
109.200000
 20
70.640000
 30
0.0
 10
106.800000
 20
70.640000
 30
0.0
  0
SPLINE
  5
17b
100
AcDbEntity
  8
0
 62
7
100
AcDbSpline
 70
8
 71
3
 72
8
 73
4
 74
0
 40
0
 40
0
 40
0
 40
0
 40
1
 40
1
 40
1
 40
1
 10
106.800000
 20
70.640000
 30
0.0
 10
104.400000
 20
70.640000
 30
0.0
 10
102.400000
 20
70.240000
 30
0.0
 10
100.960000
 20
69.440000
 30
0.0
  0
SPLINE
  5
17c
100
AcDbEntity
  8
0
 62
7
100
AcDbSpline
 70
8
 71
3
 72
8
 73
4
 74
0
 40
0
 40
0
 40
0
 40
0
 40
1
 40
1
 40
1
 40
1
 10
100.960000
 20
69.440000
 30
0.0
 10
99.440000
 20
68.640000
 30
0.0
 10
98.720000
 20
67.440000
 30
0.0
 10
98.720000
 20
65.840000
 30
0.0
  0
SPLINE
  5
17d
100
AcDbEntity
  8
0
 62
7
100
AcDbSpline
 70
8
 71
3
 72
8
 73
4
 74
0
 40
0
 40
0
 40
0
 40
0
 40
1
 40
1
 40
1
 40
1
 10
98.720000
 20
65.840000
 30
0.0
 10
98.720000
 20
64.400000
 30
0.0
 10
99.280000
 20
63.360000
 30
0.0
 10
100.480000
 20
62.720000
 30
0.0
  0
SPLINE
  5
17e
100
AcDbEntity
  8
0
 62
7
100
AcDbSpline
 70
8
 71
3
 72
8
 73
4
 74
0
 40
0
 40
0
 40
0
 40
0
 40
1
 40
1
 40
1
 40
1
 10
100.480000
 20
62.720000
 30
0.0
 10
101.680000
 20
62.080000
 30
0.0
 10
104.000000
 20
61.280000
 30
0.0
 10
107.520000
 20
60.400000
 30
0.0
  0
SPLINE
  5
17f
100
AcDbEntity
  8
0
 62
7
100
AcDbSpline
 70
8
 71
3
 72
8
 73
4
 74
0
 40
0
 40
0
 40
0
 40
0
 40
1
 40
1
 40
1
 40
1
 10
107.520000
 20
60.400000
 30
0.0
 10
111.440000
 20
59.360000
 30
0.0
 10
114.400000
 20
58.480000
 30
0.0
 10
116.320000
 20
57.680000
 30
0.0
  0
SPLINE
  5
180
100
AcDbEntity
  8
0
 62
7
100
AcDbSpline
 70
8
 71
3
 72
8
 73
4
 74
0
 40
0
 40
0
 40
0
 40
0
 40
1
 40
1
 40
1
 40
1
 10
116.320000
 20
57.680000
 30
0.0
 10
118.320000
 20
56.960000
 30
0.0
 10
119.840000
 20
55.840000
 30
0.0
 10
120.880000
 20
54.480000
 30
0.0
  0
SPLINE
  5
181
100
AcDbEntity
  8
0
 62
7
100
AcDbSpline
 70
8
 71
3
 72
8
 73
4
 74
0
 40
0
 40
0
 40
0
 40
0
 40
1
 40
1
 40
1
 40
1
 10
120.880000
 20
54.480000
 30
0.0
 10
122.000000
 20
53.040000
 30
0.0
 10
122.560000
 20
51.120000
 30
0.0
 10
122.560000
 20
48.640000
 30
0.0
  0
SPLINE
  5
182
100
AcDbEntity
  8
0
 62
7
100
AcDbSpline
 70
8
 71
3
 72
8
 73
4
 74
0
 40
0
 40
0
 40
0
 40
0
 40
1
 40
1
 40
1
 40
1
 10
122.560000
 20
48.640000
 30
0.0
 10
122.560000
 20
45.280000
 30
0.0
 10
121.200000
 20
42.480000
 30
0.0
 10
118.480000
 20
40.240000
 30
0.0
  0
SPLINE
  5
183
100
AcDbEntity
  8
0
 62
7
100
AcDbSpline
 70
8
 71
3
 72
8
 73
4
 74
0
 40
0
 40
0
 40
0
 40
0
 40
1
 40
1
 40
1
 40
1
 10
118.480000
 20
40.240000
 30
0.0
 10
115.760000
 20
37.920000
 30
0.0
 10
112.080000
 20
36.800000
 30
0.0
 10
107.600000
 20
36.800000
 30
0.0
  0
SPLINE
  5
184
100
AcDbEntity
  8
0
 62
7
100
AcDbSpline
 70
8
 71
3
 72
8
 73
4
 74
0
 40
0
 40
0
 40
0
 40
0
 40
1
 40
1
 40
1
 40
1
 10
107.600000
 20
36.800000
 30
0.0
 10
102.800000
 20
36.800000
 30
0.0
 10
99.120000
 20
37.840000
 30
0.0
 10
96.480000
 20
39.840000
 30
0.0
  0
SPLINE
  5
185
100
AcDbEntity
  8
0
 62
7
100
AcDbSpline
 70
8
 71
3
 72
8
 73
4
 74
0
 40
0
 40
0
 40
0
 40
0
 40
1
 40
1
 40
1
 40
1
 10
96.480000
 20
39.840000
 30
0.0
 10
93.840000
 20
41.840000
 30
0.0
 10
92.160000
 20
44.800000
 30
0.0
 10
91.600000
 20
48.800000
 30
0.0
  0
LINE
  5
186
100
AcDbEntity
  8
0
 62
7
100
AcDbLine
 10
91.600000
 20
48.800000
 30
0.0
 11
97.840000
 21
49.760000
 31
0.0
  0
SPLINE
  5
187
100
AcDbEntity
  8
0
 62
7
100
AcDbSpline
 70
8
 71
3
 72
8
 73
4
 74
0
 40
0
 40
0
 40
0
 40
0
 40
1
 40
1
 40
1
 40
1
 10
97.840000
 20
49.760000
 30
0.0
 10
98.160000
 20
47.200000
 30
0.0
 10
99.120000
 20
45.280000
 30
0.0
 10
100.800000
 20
43.920000
 30
0.0
  0
SPLINE
  5
188
100
AcDbEntity
  8
0
 62
7
100
AcDbSpline
 70
8
 71
3
 72
8
 73
4
 74
0
 40
0
 40
0
 40
0
 40
0
 40
1
 40
1
 40
1
 40
1
 10
100.800000
 20
43.920000
 30
0.0
 10
102.400000
 20
42.640000
 30
0.0
 10
104.640000
 20
42.000000
 30
0.0
 10
107.520000
 20
42.000000
 30
0.0
  0
SPLINE
  5
189
100
AcDbEntity
  8
0
 62
7
100
AcDbSpline
 70
8
 71
3
 72
8
 73
4
 74
0
 40
0
 40
0
 40
0
 40
0
 40
1
 40
1
 40
1
 40
1
 10
107.520000
 20
42.000000
 30
0.0
 10
110.240000
 20
42.000000
 30
0.0
 10
112.400000
 20
42.560000
 30
0.0
 10
113.840000
 20
43.760000
 30
0.0
  0
SPLINE
  5
18a
100
AcDbEntity
  8
0
 62
7
100
AcDbSpline
 70
8
 71
3
 72
8
 73
4
 74
0
 40
0
 40
0
 40
0
 40
0
 40
1
 40
1
 40
1
 40
1
 10
113.840000
 20
43.760000
 30
0.0
 10
115.360000
 20
44.880000
 30
0.0
 10
116.080000
 20
46.320000
 30
0.0
 10
116.080000
 20
48.000000
 30
0.0
  0
SPLINE
  5
18b
100
AcDbEntity
  8
0
 62
7
100
AcDbSpline
 70
8
 71
3
 72
8
 73
4
 74
0
 40
0
 40
0
 40
0
 40
0
 40
1
 40
1
 40
1
 40
1
 10
116.080000
 20
48.000000
 30
0.0
 10
116.080000
 20
49.120000
 30
0.0
 10
115.760000
 20
50.000000
 30
0.0
 10
115.040000
 20
50.720000
 30
0.0
  0
SPLINE
  5
18c
100
AcDbEntity
  8
0
 62
7
100
AcDbSpline
 70
8
 71
3
 72
8
 73
4
 74
0
 40
0
 40
0
 40
0
 40
0
 40
1
 40
1
 40
1
 40
1
 10
115.040000
 20
50.720000
 30
0.0
 10
114.400000
 20
51.360000
 30
0.0
 10
113.520000
 20
51.920000
 30
0.0
 10
112.480000
 20
52.240000
 30
0.0
  0
SPLINE
  5
18d
100
AcDbEntity
  8
0
 62
7
100
AcDbSpline
 70
8
 71
3
 72
8
 73
4
 74
0
 40
0
 40
0
 40
0
 40
0
 40
1
 40
1
 40
1
 40
1
 10
112.480000
 20
52.240000
 30
0.0
 10
111.520000
 20
52.560000
 30
0.0
 10
109.200000
 20
53.200000
 30
0.0
 10
105.600000
 20
54.080000
 30
0.0
  0
SPLINE
  5
18e
100
AcDbEntity
  8
0
 62
7
100
AcDbSpline
 70
8
 71
3
 72
8
 73
4
 74
0
 40
0
 40
0
 40
0
 40
0
 40
1
 40
1
 40
1
 40
1
 10
105.600000
 20
54.080000
 30
0.0
 10
100.320000
 20
55.280000
 30
0.0
 10
96.800000
 20
56.880000
 30
0.0
 10
95.120000
 20
58.640000
 30
0.0
  0
SPLINE
  5
18f
100
AcDbEntity
  8
0
 62
7
100
AcDbSpline
 70
8
 71
3
 72
8
 73
4
 74
0
 40
0
 40
0
 40
0
 40
0
 40
1
 40
1
 40
1
 40
1
 10
95.120000
 20
58.640000
 30
0.0
 10
93.440000
 20
60.480000
 30
0.0
 10
92.560000
 20
62.640000
 30
0.0
 10
92.560000
 20
65.120000
 30
0.0
  0
SPLINE
  5
190
100
AcDbEntity
  8
0
 62
7
100
AcDbSpline
 70
8
 71
3
 72
8
 73
4
 74
0
 40
0
 40
0
 40
0
 40
0
 40
1
 40
1
 40
1
 40
1
 10
92.560000
 20
65.120000
 30
0.0
 10
92.560000
 20
68.240000
 30
0.0
 10
93.840000
 20
70.800000
 30
0.0
 10
96.320000
 20
72.800000
 30
0.0
  0
SPLINE
  5
191
100
AcDbEntity
  8
0
 62
7
100
AcDbSpline
 70
8
 71
3
 72
8
 73
4
 74
0
 40
0
 40
0
 40
0
 40
0
 40
1
 40
1
 40
1
 40
1
 10
96.320000
 20
72.800000
 30
0.0
 10
98.800000
 20
74.800000
 30
0.0
 10
102.160000
 20
75.840000
 30
0.0
 10
106.320000
 20
75.840000
 30
0.0
  0
SPLINE
  5
192
100
AcDbEntity
  8
0
 62
7
100
AcDbSpline
 70
8
 71
3
 72
8
 73
4
 74
0
 40
0
 40
0
 40
0
 40
0
 40
1
 40
1
 40
1
 40
1
 10
106.320000
 20
75.840000
 30
0.0
 10
110.800000
 20
75.840000
 30
0.0
 10
114.240000
 20
74.960000
 30
0.0
 10
116.720000
 20
73.200000
 30
0.0
  0
SPLINE
  5
193
100
AcDbEntity
  8
0
 62
7
100
AcDbSpline
 70
8
 71
3
 72
8
 73
4
 74
0
 40
0
 40
0
 40
0
 40
0
 40
1
 40
1
 40
1
 40
1
 10
116.720000
 20
73.200000
 30
0.0
 10
119.200000
 20
71.440000
 30
0.0
 10
120.720000
 20
68.880000
 30
0.0
 10
121.200000
 20
65.360000
 30
0.0
  0
LINE
  5
194
100
AcDbEntity
  8
0
 62
7
100
AcDbLine
 10
121.200000
 20
65.360000
 30
0.0
 11
114.960000
 21
64.560000
 31
0.0
  0
LINE
  5
195
100
AcDbEntity
  8
0
 62
7
100
AcDbLine
 10
114.960000
 20
64.560000
 30
0.0
 11
114.960000
 21
64.560000
 31
0.0
  0
SPLINE
  5
196
100
AcDbEntity
  8
0
 62
7
100
AcDbSpline
 70
8
 71
3
 72
8
 73
4
 74
0
 40
0
 40
0
 40
0
 40
0
 40
1
 40
1
 40
1
 40
1
 10
144.720000
 20
37.760000
 30
0.0
 10
142.880000
 20
37.360000
 30
0.0
 10
141.280000
 20
37.200000
 30
0.0
 10
140.000000
 20
37.200000
 30
0.0
  0
SPLINE
  5
197
100
AcDbEntity
  8
0
 62
7
100
AcDbSpline
 70
8
 71
3
 72
8
 73
4
 74
0
 40
0
 40
0
 40
0
 40
0
 40
1
 40
1
 40
1
 40
1
 10
140.000000
 20
37.200000
 30
0.0
 10
137.200000
 20
37.200000
 30
0.0
 10
135.200000
 20
37.680000
 30
0.0
 10
133.920000
 20
38.640000
 30
0.0
  0
SPLINE
  5
198
100
AcDbEntity
  8
0
 62
7
100
AcDbSpline
 70
8
 71
3
 72
8
 73
4
 74
0
 40
0
 40
0
 40
0
 40
0
 40
1
 40
1
 40
1
 40
1
 10
133.920000
 20
38.640000
 30
0.0
 10
132.640000
 20
39.600000
 30
0.0
 10
131.920000
 20
40.880000
 30
0.0
 10
131.600000
 20
42.400000
 30
0.0
  0
SPLINE
  5
199
100
AcDbEntity
  8
0
 62
7
100
AcDbSpline
 70
8
 71
3
 72
8
 73
4
 74
0
 40
0
 40
0
 40
0
 40
0
 40
1
 40
1
 40
1
 40
1
 10
131.600000
 20
42.400000
 30
0.0
 10
131.360000
 20
43.840000
 30
0.0
 10
131.200000
 20
45.920000
 30
0.0
 10
131.200000
 20
48.640000
 30
0.0
  0
LINE
  5
19a
100
AcDbEntity
  8
0
 62
7
100
AcDbLine
 10
131.200000
 20
48.640000
 30
0.0
 11
131.200000
 21
70.080000
 31
0.0
  0
LINE
  5
19b
100
AcDbEntity
  8
0
 62
7
100
AcDbLine
 10
131.200000
 20
70.080000
 30
0.0
 11
126.560000
 21
70.080000
 31
0.0
  0
LINE
  5
19c
100
AcDbEntity
  8
0
 62
7
100
AcDbLine
 10
126.560000
 20
70.080000
 30
0.0
 11
126.560000
 21
74.960000
 31
0.0
  0
LINE
  5
19d
100
AcDbEntity
  8
0
 62
7
100
AcDbLine
 10
126.560000
 20
74.960000
 30
0.0
 11
131.200000
 21
74.960000
 31
0.0
  0
LINE
  5
19e
100
AcDbEntity
  8
0
 62
7
100
AcDbLine
 10
131.200000
 20
74.960000
 30
0.0
 11
131.200000
 21
84.240000
 31
0.0
  0
LINE
  5
19f
100
AcDbEntity
  8
0
 62
7
100
AcDbLine
 10
131.200000
 20
84.240000
 30
0.0
 11
137.520000
 21
88.080000
 31
0.0
  0
LINE
  5
1a0
100
AcDbEntity
  8
0
 62
7
100
AcDbLine
 10
137.520000
 20
88.080000
 30
0.0
 11
137.520000
 21
74.960000
 31
0.0
  0
LINE
  5
1a1
100
AcDbEntity
  8
0
 62
7
100
AcDbLine
 10
137.520000
 20
74.960000
 30
0.0
 11
143.840000
 21
74.960000
 31
0.0
  0
LINE
  5
1a2
100
AcDbEntity
  8
0
 62
7
100
AcDbLine
 10
143.840000
 20
74.960000
 30
0.0
 11
143.840000
 21
70.080000
 31
0.0
  0
LINE
  5
1a3
100
AcDbEntity
  8
0
 62
7
100
AcDbLine
 10
143.840000
 20
70.080000
 30
0.0
 11
137.520000
 21
70.080000
 31
0.0
  0
LINE
  5
1a4
100
AcDbEntity
  8
0
 62
7
100
AcDbLine
 10
137.520000
 20
70.080000
 30
0.0
 11
137.520000
 21
48.240000
 31
0.0
  0
SPLINE
  5
1a5
100
AcDbEntity
  8
0
 62
7
100
AcDbSpline
 70
8
 71
3
 72
8
 73
4
 74
0
 40
0
 40
0
 40
0
 40
0
 40
1
 40
1
 40
1
 40
1
 10
137.520000
 20
48.240000
 30
0.0
 10
137.520000
 20
46.400000
 30
0.0
 10
137.680000
 20
45.040000
 30
0.0
 10
138.080000
 20
44.320000
 30
0.0
  0
SPLINE
  5
1a6
100
AcDbEntity
  8
0
 62
7
100
AcDbSpline
 70
8
 71
3
 72
8
 73
4
 74
0
 40
0
 40
0
 40
0
 40
0
 40
1
 40
1
 40
1
 40
1
 10
138.080000
 20
44.320000
 30
0.0
 10
138.480000
 20
43.520000
 30
0.0
 10
139.440000
 20
43.120000
 30
0.0
 10
141.040000
 20
43.120000
 30
0.0
  0
SPLINE
  5
1a7
100
AcDbEntity
  8
0
 62
7
100
AcDbSpline
 70
8
 71
3
 72
8
 73
4
 74
0
 40
0
 40
0
 40
0
 40
0
 40
1
 40
1
 40
1
 40
1
 10
141.040000
 20
43.120000
 30
0.0
 10
141.920000
 20
43.120000
 30
0.0
 10
142.880000
 20
43.200000
 30
0.0
 10
143.840000
 20
43.360000
 30
0.0
  0
LINE
  5
1a8
100
AcDbEntity
  8
0
 62
7
100
AcDbLine
 10
143.840000
 20
43.360000
 30
0.0
 11
144.720000
 21
37.760000
 31
0.0
  0
LINE
  5
1a9
100
AcDbEntity
  8
0
 62
7
100
AcDbLine
 10
144.720000
 20
37.760000
 30
0.0
 11
144.720000
 21
37.760000
 31
0.0
  0
SPLINE
  5
1aa
100
AcDbEntity
  8
0
 62
7
100
AcDbSpline
 70
8
 71
3
 72
8
 73
4
 74
0
 40
0
 40
0
 40
0
 40
0
 40
1
 40
1
 40
1
 40
1
 10
165.360000
 20
75.840000
 30
0.0
 10
170.400000
 20
75.840000
 30
0.0
 10
174.560000
 20
74.160000
 30
0.0
 10
177.920000
 20
70.880000
 30
0.0
  0
SPLINE
  5
1ab
100
AcDbEntity
  8
0
 62
7
100
AcDbSpline
 70
8
 71
3
 72
8
 73
4
 74
0
 40
0
 40
0
 40
0
 40
0
 40
1
 40
1
 40
1
 40
1
 10
177.920000
 20
70.880000
 30
0.0
 10
181.200000
 20
67.600000
 30
0.0
 10
182.880000
 20
62.960000
 30
0.0
 10
182.880000
 20
56.960000
 30
0.0
  0
SPLINE
  5
1ac
100
AcDbEntity
  8
0
 62
7
100
AcDbSpline
 70
8
 71
3
 72
8
 73
4
 74
0
 40
0
 40
0
 40
0
 40
0
 40
1
 40
1
 40
1
 40
1
 10
182.880000
 20
56.960000
 30
0.0
 10
182.880000
 20
49.600000
 30
0.0
 10
181.040000
 20
44.400000
 30
0.0
 10
177.520000
 20
41.360000
 30
0.0
  0
SPLINE
  5
1ad
100
AcDbEntity
  8
0
 62
7
100
AcDbSpline
 70
8
 71
3
 72
8
 73
4
 74
0
 40
0
 40
0
 40
0
 40
0
 40
1
 40
1
 40
1
 40
1
 10
177.520000
 20
41.360000
 30
0.0
 10
173.920000
 20
38.320000
 30
0.0
 10
169.840000
 20
36.800000
 30
0.0
 10
165.360000
 20
36.800000
 30
0.0
  0
SPLINE
  5
1ae
100
AcDbEntity
  8
0
 62
7
100
AcDbSpline
 70
8
 71
3
 72
8
 73
4
 74
0
 40
0
 40
0
 40
0
 40
0
 40
1
 40
1
 40
1
 40
1
 10
165.360000
 20
36.800000
 30
0.0
 10
160.640000
 20
36.800000
 30
0.0
 10
156.560000
 20
38.400000
 30
0.0
 10
153.120000
 20
41.520000
 30
0.0
  0
SPLINE
  5
1af
100
AcDbEntity
  8
0
 62
7
100
AcDbSpline
 70
8
 71
3
 72
8
 73
4
 74
0
 40
0
 40
0
 40
0
 40
0
 40
1
 40
1
 40
1
 40
1
 10
153.120000
 20
41.520000
 30
0.0
 10
149.600000
 20
44.640000
 30
0.0
 10
147.920000
 20
49.520000
 30
0.0
 10
147.920000
 20
56.320000
 30
0.0
  0
SPLINE
  5
1b0
100
AcDbEntity
  8
0
 62
7
100
AcDbSpline
 70
8
 71
3
 72
8
 73
4
 74
0
 40
0
 40
0
 40
0
 40
0
 40
1
 40
1
 40
1
 40
1
 10
147.920000
 20
56.320000
 30
0.0
 10
147.920000
 20
62.880000
 30
0.0
 10
149.600000
 20
67.760000
 30
0.0
 10
152.880000
 20
71.040000
 30
0.0
  0
SPLINE
  5
1b1
100
AcDbEntity
  8
0
 62
7
100
AcDbSpline
 70
8
 71
3
 72
8
 73
4
 74
0
 40
0
 40
0
 40
0
 40
0
 40
1
 40
1
 40
1
 40
1
 10
152.880000
 20
71.040000
 30
0.0
 10
156.240000
 20
74.240000
 30
0.0
 10
160.400000
 20
75.840000
 30
0.0
 10
165.360000
 20
75.840000
 30
0.0
  0
LINE
  5
1b2
100
AcDbEntity
  8
0
 62
7
100
AcDbLine
 10
165.360000
 20
75.840000
 30
0.0
 11
165.360000
 21
75.840000
 31
0.0
  0
SPLINE
  5
1b3
100
AcDbEntity
  8
0
 62
7
100
AcDbSpline
 70
8
 71
3
 72
8
 73
4
 74
0
 40
0
 40
0
 40
0
 40
0
 40
1
 40
1
 40
1
 40
1
 10
165.360000
 20
42.000000
 30
0.0
 10
168.960000
 20
42.000000
 30
0.0
 10
171.680000
 20
43.360000
 30
0.0
 10
173.600000
 20
46.000000
 30
0.0
  0
SPLINE
  5
1b4
100
AcDbEntity
  8
0
 62
7
100
AcDbSpline
 70
8
 71
3
 72
8
 73
4
 74
0
 40
0
 40
0
 40
0
 40
0
 40
1
 40
1
 40
1
 40
1
 10
173.600000
 20
46.000000
 30
0.0
 10
175.440000
 20
48.720000
 30
0.0
 10
176.400000
 20
52.240000
 30
0.0
 10
176.400000
 20
56.560000
 30
0.0
  0
SPLINE
  5
1b5
100
AcDbEntity
  8
0
 62
7
100
AcDbSpline
 70
8
 71
3
 72
8
 73
4
 74
0
 40
0
 40
0
 40
0
 40
0
 40
1
 40
1
 40
1
 40
1
 10
176.400000
 20
56.560000
 30
0.0
 10
176.400000
 20
61.200000
 30
0.0
 10
175.360000
 20
64.720000
 30
0.0
 10
173.200000
 20
67.120000
 30
0.0
  0
SPLINE
  5
1b6
100
AcDbEntity
  8
0
 62
7
100
AcDbSpline
 70
8
 71
3
 72
8
 73
4
 74
0
 40
0
 40
0
 40
0
 40
0
 40
1
 40
1
 40
1
 40
1
 10
173.200000
 20
67.120000
 30
0.0
 10
171.120000
 20
69.520000
 30
0.0
 10
168.480000
 20
70.640000
 30
0.0
 10
165.360000
 20
70.640000
 30
0.0
  0
SPLINE
  5
1b7
100
AcDbEntity
  8
0
 62
7
100
AcDbSpline
 70
8
 71
3
 72
8
 73
4
 74
0
 40
0
 40
0
 40
0
 40
0
 40
1
 40
1
 40
1
 40
1
 10
165.360000
 20
70.640000
 30
0.0
 10
162.160000
 20
70.640000
 30
0.0
 10
159.520000
 20
69.440000
 30
0.0
 10
157.440000
 20
67.040000
 30
0.0
  0
SPLINE
  5
1b8
100
AcDbEntity
  8
0
 62
7
100
AcDbSpline
 70
8
 71
3
 72
8
 73
4
 74
0
 40
0
 40
0
 40
0
 40
0
 40
1
 40
1
 40
1
 40
1
 10
157.440000
 20
67.040000
 30
0.0
 10
155.360000
 20
64.640000
 30
0.0
 10
154.400000
 20
61.120000
 30
0.0
 10
154.400000
 20
56.320000
 30
0.0
  0
SPLINE
  5
1b9
100
AcDbEntity
  8
0
 62
7
100
AcDbSpline
 70
8
 71
3
 72
8
 73
4
 74
0
 40
0
 40
0
 40
0
 40
0
 40
1
 40
1
 40
1
 40
1
 10
154.400000
 20
56.320000
 30
0.0
 10
154.400000
 20
51.600000
 30
0.0
 10
155.440000
 20
48.000000
 30
0.0
 10
157.520000
 20
45.600000
 30
0.0
  0
SPLINE
  5
1ba
100
AcDbEntity
  8
0
 62
7
100
AcDbSpline
 70
8
 71
3
 72
8
 73
4
 74
0
 40
0
 40
0
 40
0
 40
0
 40
1
 40
1
 40
1
 40
1
 10
157.520000
 20
45.600000
 30
0.0
 10
159.600000
 20
43.200000
 30
0.0
 10
162.240000
 20
42.000000
 30
0.0
 10
165.360000
 20
42.000000
 30
0.0
  0
LINE
  5
1bb
100
AcDbEntity
  8
0
 62
7
100
AcDbLine
 10
165.360000
 20
42.000000
 30
0.0
 11
165.360000
 21
42.000000
 31
0.0
  0
LINE
  5
1bc
100
AcDbEntity
  8
0
 62
7
100
AcDbLine
 10
220.480000
 20
37.680000
 30
0.0
 11
214.800000
 21
37.680000
 31
0.0
  0
LINE
  5
1bd
100
AcDbEntity
  8
0
 62
7
100
AcDbLine
 10
214.800000
 20
37.680000
 30
0.0
 11
214.800000
 21
43.200000
 31
0.0
  0
LINE
  5
1be
100
AcDbEntity
  8
0
 62
7
100
AcDbLine
 10
214.800000
 20
43.200000
 30
0.0
 11
214.640000
 21
43.200000
 31
0.0
  0
SPLINE
  5
1bf
100
AcDbEntity
  8
0
 62
7
100
AcDbSpline
 70
8
 71
3
 72
8
 73
4
 74
0
 40
0
 40
0
 40
0
 40
0
 40
1
 40
1
 40
1
 40
1
 10
214.640000
 20
43.200000
 30
0.0
 10
211.760000
 20
38.960000
 30
0.0
 10
207.840000
 20
36.800000
 30
0.0
 10
202.880000
 20
36.800000
 30
0.0
  0
SPLINE
  5
1c0
100
AcDbEntity
  8
0
 62
7
100
AcDbSpline
 70
8
 71
3
 72
8
 73
4
 74
0
 40
0
 40
0
 40
0
 40
0
 40
1
 40
1
 40
1
 40
1
 10
202.880000
 20
36.800000
 30
0.0
 10
200.320000
 20
36.800000
 30
0.0
 10
197.920000
 20
37.440000
 30
0.0
 10
195.680000
 20
38.640000
 30
0.0
  0
SPLINE
  5
1c1
100
AcDbEntity
  8
0
 62
7
100
AcDbSpline
 70
8
 71
3
 72
8
 73
4
 74
0
 40
0
 40
0
 40
0
 40
0
 40
1
 40
1
 40
1
 40
1
 10
195.680000
 20
38.640000
 30
0.0
 10
193.440000
 20
39.840000
 30
0.0
 10
192.000000
 20
41.520000
 30
0.0
 10
191.280000
 20
43.600000
 30
0.0
  0
SPLINE
  5
1c2
100
AcDbEntity
  8
0
 62
7
100
AcDbSpline
 70
8
 71
3
 72
8
 73
4
 74
0
 40
0
 40
0
 40
0
 40
0
 40
1
 40
1
 40
1
 40
1
 10
191.280000
 20
43.600000
 30
0.0
 10
190.480000
 20
45.760000
 30
0.0
 10
190.160000
 20
48.480000
 30
0.0
 10
190.160000
 20
51.840000
 30
0.0
  0
LINE
  5
1c3
100
AcDbEntity
  8
0
 62
7
100
AcDbLine
 10
190.160000
 20
51.840000
 30
0.0
 11
190.160000
 21
74.960000
 31
0.0
  0
LINE
  5
1c4
100
AcDbEntity
  8
0
 62
7
100
AcDbLine
 10
190.160000
 20
74.960000
 30
0.0
 11
196.480000
 21
74.960000
 31
0.0
  0
LINE
  5
1c5
100
AcDbEntity
  8
0
 62
7
100
AcDbLine
 10
196.480000
 20
74.960000
 30
0.0
 11
196.480000
 21
54.320000
 31
0.0
  0
SPLINE
  5
1c6
100
AcDbEntity
  8
0
 62
7
100
AcDbSpline
 70
8
 71
3
 72
8
 73
4
 74
0
 40
0
 40
0
 40
0
 40
0
 40
1
 40
1
 40
1
 40
1
 10
196.480000
 20
54.320000
 30
0.0
 10
196.480000
 20
51.040000
 30
0.0
 10
196.640000
 20
48.640000
 30
0.0
 10
196.960000
 20
47.200000
 30
0.0
  0
SPLINE
  5
1c7
100
AcDbEntity
  8
0
 62
7
100
AcDbSpline
 70
8
 71
3
 72
8
 73
4
 74
0
 40
0
 40
0
 40
0
 40
0
 40
1
 40
1
 40
1
 40
1
 10
196.960000
 20
47.200000
 30
0.0
 10
197.280000
 20
45.760000
 30
0.0
 10
198.080000
 20
44.640000
 30
0.0
 10
199.440000
 20
43.680000
 30
0.0
  0
SPLINE
  5
1c8
100
AcDbEntity
  8
0
 62
7
100
AcDbSpline
 70
8
 71
3
 72
8
 73
4
 74
0
 40
0
 40
0
 40
0
 40
0
 40
1
 40
1
 40
1
 40
1
 10
199.440000
 20
43.680000
 30
0.0
 10
200.800000
 20
42.800000
 30
0.0
 10
202.400000
 20
42.320000
 30
0.0
 10
204.240000
 20
42.320000
 30
0.0
  0
SPLINE
  5
1c9
100
AcDbEntity
  8
0
 62
7
100
AcDbSpline
 70
8
 71
3
 72
8
 73
4
 74
0
 40
0
 40
0
 40
0
 40
0
 40
1
 40
1
 40
1
 40
1
 10
204.240000
 20
42.320000
 30
0.0
 10
206.640000
 20
42.320000
 30
0.0
 10
208.880000
 20
43.120000
 30
0.0
 10
210.960000
 20
44.800000
 30
0.0
  0
SPLINE
  5
1ca
100
AcDbEntity
  8
0
 62
7
100
AcDbSpline
 70
8
 71
3
 72
8
 73
4
 74
0
 40
0
 40
0
 40
0
 40
0
 40
1
 40
1
 40
1
 40
1
 10
210.960000
 20
44.800000
 30
0.0
 10
213.040000
 20
46.400000
 30
0.0
 10
214.160000
 20
49.840000
 30
0.0
 10
214.160000
 20
55.040000
 30
0.0
  0
LINE
  5
1cb
100
AcDbEntity
  8
0
 62
7
100
AcDbLine
 10
214.160000
 20
55.040000
 30
0.0
 11
214.160000
 21
74.960000
 31
0.0
  0
LINE
  5
1cc
100
AcDbEntity
  8
0
 62
7
100
AcDbLine
 10
214.160000
 20
74.960000
 30
0.0
 11
220.480000
 21
74.960000
 31
0.0
  0
LINE
  5
1cd
100
AcDbEntity
  8
0
 62
7
100
AcDbLine
 10
220.480000
 20
74.960000
 30
0.0
 11
220.480000
 21
37.680000
 31
0.0
  0
LINE
  5
1ce
100
AcDbEntity
  8
0
 62
7
100
AcDbLine
 10
220.480000
 20
37.680000
 30
0.0
 11
220.480000
 21
37.680000
 31
0.0
  0
LINE
  5
1cf
100
AcDbEntity
  8
0
 62
7
100
AcDbLine
 10
236.560000
 20
37.680000
 30
0.0
 11
230.240000
 21
37.680000
 31
0.0
  0
LINE
  5
1d0
100
AcDbEntity
  8
0
 62
7
100
AcDbLine
 10
230.240000
 20
37.680000
 30
0.0
 11
230.240000
 21
74.960000
 31
0.0
  0
LINE
  5
1d1
100
AcDbEntity
  8
0
 62
7
100
AcDbLine
 10
230.240000
 20
74.960000
 30
0.0
 11
236.560000
 21
74.960000
 31
0.0
  0
LINE
  5
1d2
100
AcDbEntity
  8
0
 62
7
100
AcDbLine
 10
236.560000
 20
74.960000
 30
0.0
 11
236.560000
 21
37.680000
 31
0.0
  0
LINE
  5
1d3
100
AcDbEntity
  8
0
 62
7
100
AcDbLine
 10
236.560000
 20
37.680000
 30
0.0
 11
236.560000
 21
37.680000
 31
0.0
  0
LINE
  5
1d4
100
AcDbEntity
  8
0
 62
7
100
AcDbLine
 10
236.560000
 20
82.080000
 30
0.0
 11
230.240000
 21
82.080000
 31
0.0
  0
LINE
  5
1d5
100
AcDbEntity
  8
0
 62
7
100
AcDbLine
 10
230.240000
 20
82.080000
 30
0.0
 11
230.240000
 21
89.200000
 31
0.0
  0
LINE
  5
1d6
100
AcDbEntity
  8
0
 62
7
100
AcDbLine
 10
230.240000
 20
89.200000
 30
0.0
 11
236.560000
 21
89.200000
 31
0.0
  0
LINE
  5
1d7
100
AcDbEntity
  8
0
 62
7
100
AcDbLine
 10
236.560000
 20
89.200000
 30
0.0
 11
236.560000
 21
82.080000
 31
0.0
  0
LINE
  5
1d8
100
AcDbEntity
  8
0
 62
7
100
AcDbLine
 10
236.560000
 20
82.080000
 30
0.0
 11
236.560000
 21
82.080000
 31
0.0
  0
LINE
  5
1d9
100
AcDbEntity
  8
0
 62
7
100
AcDbLine
 10
252.560000
 20
37.680000
 30
0.0
 11
246.240000
 21
37.680000
 31
0.0
  0
LINE
  5
1da
100
AcDbEntity
  8
0
 62
7
100
AcDbLine
 10
246.240000
 20
37.680000
 30
0.0
 11
246.240000
 21
89.200000
 31
0.0
  0
LINE
  5
1db
100
AcDbEntity
  8
0
 62
7
100
AcDbLine
 10
246.240000
 20
89.200000
 30
0.0
 11
252.560000
 21
89.200000
 31
0.0
  0
LINE
  5
1dc
100
AcDbEntity
  8
0
 62
7
100
AcDbLine
 10
252.560000
 20
89.200000
 30
0.0
 11
252.560000
 21
37.680000
 31
0.0
  0
LINE
  5
1dd
100
AcDbEntity
  8
0
 62
7
100
AcDbLine
 10
252.560000
 20
37.680000
 30
0.0
 11
252.560000
 21
37.680000
 31
0.0
  0
LINE
  5
1de
100
AcDbEntity
  8
0
 62
7
100
AcDbLine
 10
268.560000
 20
37.680000
 30
0.0
 11
262.240000
 21
37.680000
 31
0.0
  0
LINE
  5
1df
100
AcDbEntity
  8
0
 62
7
100
AcDbLine
 10
262.240000
 20
37.680000
 30
0.0
 11
262.240000
 21
89.200000
 31
0.0
  0
LINE
  5
1e0
100
AcDbEntity
  8
0
 62
7
100
AcDbLine
 10
262.240000
 20
89.200000
 30
0.0
 11
268.560000
 21
89.200000
 31
0.0
  0
LINE
  5
1e1
100
AcDbEntity
  8
0
 62
7
100
AcDbLine
 10
268.560000
 20
89.200000
 30
0.0
 11
268.560000
 21
37.680000
 31
0.0
  0
LINE
  5
1e2
100
AcDbEntity
  8
0
 62
7
100
AcDbLine
 10
268.560000
 20
37.680000
 30
0.0
 11
268.560000
 21
37.680000
 31
0.0
  0
LINE
  5
1e3
100
AcDbEntity
  8
0
 62
7
100
AcDbLine
 10
310.640000
 20
54.720000
 30
0.0
 11
282.720000
 21
54.720000
 31
0.0
  0
SPLINE
  5
1e4
100
AcDbEntity
  8
0
 62
7
100
AcDbSpline
 70
8
 71
3
 72
8
 73
4
 74
0
 40
0
 40
0
 40
0
 40
0
 40
1
 40
1
 40
1
 40
1
 10
282.720000
 20
54.720000
 30
0.0
 10
282.960000
 20
50.640000
 30
0.0
 10
284.160000
 20
47.440000
 30
0.0
 10
286.240000
 20
45.280000
 30
0.0
  0
SPLINE
  5
1e5
100
AcDbEntity
  8
0
 62
7
100
AcDbSpline
 70
8
 71
3
 72
8
 73
4
 74
0
 40
0
 40
0
 40
0
 40
0
 40
1
 40
1
 40
1
 40
1
 10
286.240000
 20
45.280000
 30
0.0
 10
288.320000
 20
43.120000
 30
0.0
 10
290.960000
 20
42.000000
 30
0.0
 10
294.080000
 20
42.000000
 30
0.0
  0
SPLINE
  5
1e6
100
AcDbEntity
  8
0
 62
7
100
AcDbSpline
 70
8
 71
3
 72
8
 73
4
 74
0
 40
0
 40
0
 40
0
 40
0
 40
1
 40
1
 40
1
 40
1
 10
294.080000
 20
42.000000
 30
0.0
 10
296.560000
 20
42.000000
 30
0.0
 10
298.560000
 20
42.640000
 30
0.0
 10
300.160000
 20
43.920000
 30
0.0
  0
SPLINE
  5
1e7
100
AcDbEntity
  8
0
 62
7
100
AcDbSpline
 70
8
 71
3
 72
8
 73
4
 74
0
 40
0
 40
0
 40
0
 40
0
 40
1
 40
1
 40
1
 40
1
 10
300.160000
 20
43.920000
 30
0.0
 10
301.840000
 20
45.200000
 30
0.0
 10
303.120000
 20
47.120000
 30
0.0
 10
303.920000
 20
49.680000
 30
0.0
  0
LINE
  5
1e8
100
AcDbEntity
  8
0
 62
7
100
AcDbLine
 10
303.920000
 20
49.680000
 30
0.0
 11
310.480000
 21
48.880000
 31
0.0
  0
SPLINE
  5
1e9
100
AcDbEntity
  8
0
 62
7
100
AcDbSpline
 70
8
 71
3
 72
8
 73
4
 74
0
 40
0
 40
0
 40
0
 40
0
 40
1
 40
1
 40
1
 40
1
 10
310.480000
 20
48.880000
 30
0.0
 10
309.360000
 20
45.040000
 30
0.0
 10
307.440000
 20
42.000000
 30
0.0
 10
304.640000
 20
39.920000
 30
0.0
  0
SPLINE
  5
1ea
100
AcDbEntity
  8
0
 62
7
100
AcDbSpline
 70
8
 71
3
 72
8
 73
4
 74
0
 40
0
 40
0
 40
0
 40
0
 40
1
 40
1
 40
1
 40
1
 10
304.640000
 20
39.920000
 30
0.0
 10
301.840000
 20
37.840000
 30
0.0
 10
298.320000
 20
36.800000
 30
0.0
 10
294.080000
 20
36.800000
 30
0.0
  0
SPLINE
  5
1eb
100
AcDbEntity
  8
0
 62
7
100
AcDbSpline
 70
8
 71
3
 72
8
 73
4
 74
0
 40
0
 40
0
 40
0
 40
0
 40
1
 40
1
 40
1
 40
1
 10
294.080000
 20
36.800000
 30
0.0
 10
288.480000
 20
36.800000
 30
0.0
 10
284.160000
 20
38.560000
 30
0.0
 10
280.960000
 20
42.000000
 30
0.0
  0
SPLINE
  5
1ec
100
AcDbEntity
  8
0
 62
7
100
AcDbSpline
 70
8
 71
3
 72
8
 73
4
 74
0
 40
0
 40
0
 40
0
 40
0
 40
1
 40
1
 40
1
 40
1
 10
280.960000
 20
42.000000
 30
0.0
 10
277.840000
 20
45.360000
 30
0.0
 10
276.240000
 20
50.080000
 30
0.0
 10
276.240000
 20
56.080000
 30
0.0
  0
SPLINE
  5
1ed
100
AcDbEntity
  8
0
 62
7
100
AcDbSpline
 70
8
 71
3
 72
8
 73
4
 74
0
 40
0
 40
0
 40
0
 40
0
 40
1
 40
1
 40
1
 40
1
 10
276.240000
 20
56.080000
 30
0.0
 10
276.240000
 20
61.920000
 30
0.0
 10
277.760000
 20
66.720000
 30
0.0
 10
280.800000
 20
70.320000
 30
0.0
  0
SPLINE
  5
1ee
100
AcDbEntity
  8
0
 62
7
100
AcDbSpline
 70
8
 71
3
 72
8
 73
4
 74
0
 40
0
 40
0
 40
0
 40
0
 40
1
 40
1
 40
1
 40
1
 10
280.800000
 20
70.320000
 30
0.0
 10
283.920000
 20
74.000000
 30
0.0
 10
288.240000
 20
75.840000
 30
0.0
 10
293.760000
 20
75.840000
 30
0.0
  0
SPLINE
  5
1ef
100
AcDbEntity
  8
0
 62
7
100
AcDbSpline
 70
8
 71
3
 72
8
 73
4
 74
0
 40
0
 40
0
 40
0
 40
0
 40
1
 40
1
 40
1
 40
1
 10
293.760000
 20
75.840000
 30
0.0
 10
296.480000
 20
75.840000
 30
0.0
 10
299.120000
 20
75.280000
 30
0.0
 10
301.600000
 20
74.080000
 30
0.0
  0
SPLINE
  5
1f0
100
AcDbEntity
  8
0
 62
7
100
AcDbSpline
 70
8
 71
3
 72
8
 73
4
 74
0
 40
0
 40
0
 40
0
 40
0
 40
1
 40
1
 40
1
 40
1
 10
301.600000
 20
74.080000
 30
0.0
 10
304.160000
 20
72.880000
 30
0.0
 10
306.240000
 20
70.800000
 30
0.0
 10
308.000000
 20
67.920000
 30
0.0
  0
SPLINE
  5
1f1
100
AcDbEntity
  8
0
 62
7
100
AcDbSpline
 70
8
 71
3
 72
8
 73
4
 74
0
 40
0
 40
0
 40
0
 40
0
 40
1
 40
1
 40
1
 40
1
 10
308.000000
 20
67.920000
 30
0.0
 10
309.760000
 20
65.040000
 30
0.0
 10
310.640000
 20
60.640000
 30
0.0
 10
310.640000
 20
54.720000
 30
0.0
  0
LINE
  5
1f2
100
AcDbEntity
  8
0
 62
7
100
AcDbLine
 10
310.640000
 20
54.720000
 30
0.0
 11
310.640000
 21
54.720000
 31
0.0
  0
SPLINE
  5
1f3
100
AcDbEntity
  8
0
 62
7
100
AcDbSpline
 70
8
 71
3
 72
8
 73
4
 74
0
 40
0
 40
0
 40
0
 40
0
 40
1
 40
1
 40
1
 40
1
 10
304.160000
 20
59.920000
 30
0.0
 10
303.920000
 20
63.760000
 30
0.0
 10
302.720000
 20
66.480000
 30
0.0
 10
300.640000
 20
68.160000
 30
0.0
  0
SPLINE
  5
1f4
100
AcDbEntity
  8
0
 62
7
100
AcDbSpline
 70
8
 71
3
 72
8
 73
4
 74
0
 40
0
 40
0
 40
0
 40
0
 40
1
 40
1
 40
1
 40
1
 10
300.640000
 20
68.160000
 30
0.0
 10
298.560000
 20
69.840000
 30
0.0
 10
296.240000
 20
70.640000
 30
0.0
 10
293.760000
 20
70.640000
 30
0.0
  0
SPLINE
  5
1f5
100
AcDbEntity
  8
0
 62
7
100
AcDbSpline
 70
8
 71
3
 72
8
 73
4
 74
0
 40
0
 40
0
 40
0
 40
0
 40
1
 40
1
 40
1
 40
1
 10
293.760000
 20
70.640000
 30
0.0
 10
290.800000
 20
70.640000
 30
0.0
 10
288.320000
 20
69.680000
 30
0.0
 10
286.400000
 20
67.680000
 30
0.0
  0
SPLINE
  5
1f6
100
AcDbEntity
  8
0
 62
7
100
AcDbSpline
 70
8
 71
3
 72
8
 73
4
 74
0
 40
0
 40
0
 40
0
 40
0
 40
1
 40
1
 40
1
 40
1
 10
286.400000
 20
67.680000
 30
0.0
 10
284.480000
 20
65.680000
 30
0.0
 10
283.360000
 20
63.120000
 30
0.0
 10
283.040000
 20
59.920000
 30
0.0
  0
LINE
  5
1f7
100
AcDbEntity
  8
0
 62
7
100
AcDbLine
 10
283.040000
 20
59.920000
 30
0.0
 11
304.160000
 21
59.920000
 31
0.0
  0
LINE
  5
1f8
100
AcDbEntity
  8
0
 62
7
100
AcDbLine
 10
304.160000
 20
59.920000
 30
0.0
 11
304.160000
 21
59.920000
 31
0.0
  0
LINE
  5
1f9
100
AcDbEntity
  8
0
 62
7
100
AcDbLine
 10
327.120000
 20
37.680000
 30
0.0
 11
319.840000
 21
37.680000
 31
0.0
  0
LINE
  5
1fa
100
AcDbEntity
  8
0
 62
7
100
AcDbLine
 10
319.840000
 20
37.680000
 30
0.0
 11
319.840000
 21
44.880000
 31
0.0
  0
LINE
  5
1fb
100
AcDbEntity
  8
0
 62
7
100
AcDbLine
 10
319.840000
 20
44.880000
 30
0.0
 11
327.120000
 21
44.880000
 31
0.0
  0
LINE
  5
1fc
100
AcDbEntity
  8
0
 62
7
100
AcDbLine
 10
327.120000
 20
44.880000
 30
0.0
 11
327.120000
 21
37.680000
 31
0.0
  0
LINE
  5
1fd
100
AcDbEntity
  8
0
 62
7
100
AcDbLine
 10
327.120000
 20
37.680000
 30
0.0
 11
327.120000
 21
37.680000
 31
0.0
  0
LINE
  5
1fe
100
AcDbEntity
  8
0
 62
7
100
AcDbLine
 10
355.840000
 20
89.520000
 30
0.0
 11
354.960000
 21
83.920000
 31
0.0
  0
SPLINE
  5
1ff
100
AcDbEntity
  8
0
 62
7
100
AcDbSpline
 70
8
 71
3
 72
8
 73
4
 74
0
 40
0
 40
0
 40
0
 40
0
 40
1
 40
1
 40
1
 40
1
 10
354.960000
 20
83.920000
 30
0.0
 10
353.680000
 20
84.160000
 30
0.0
 10
352.400000
 20
84.240000
 30
0.0
 10
351.200000
 20
84.240000
 30
0.0
  0
SPLINE
  5
200
100
AcDbEntity
  8
0
 62
7
100
AcDbSpline
 70
8
 71
3
 72
8
 73
4
 74
0
 40
0
 40
0
 40
0
 40
0
 40
1
 40
1
 40
1
 40
1
 10
351.200000
 20
84.240000
 30
0.0
 10
349.680000
 20
84.240000
 30
0.0
 10
348.400000
 20
83.920000
 30
0.0
 10
347.440000
 20
83.280000
 30
0.0
  0
SPLINE
  5
201
100
AcDbEntity
  8
0
 62
7
100
AcDbSpline
 70
8
 71
3
 72
8
 73
4
 74
0
 40
0
 40
0
 40
0
 40
0
 40
1
 40
1
 40
1
 40
1
 10
347.440000
 20
83.280000
 30
0.0
 10
346.480000
 20
82.640000
 30
0.0
 10
346.000000
 20
81.040000
 30
0.0
 10
346.000000
 20
78.480000
 30
0.0
  0
LINE
  5
202
100
AcDbEntity
  8
0
 62
7
100
AcDbLine
 10
346.000000
 20
78.480000
 30
0.0
 11
346.000000
 21
74.960000
 31
0.0
  0
LINE
  5
203
100
AcDbEntity
  8
0
 62
7
100
AcDbLine
 10
346.000000
 20
74.960000
 30
0.0
 11
353.200000
 21
74.960000
 31
0.0
  0
LINE
  5
204
100
AcDbEntity
  8
0
 62
7
100
AcDbLine
 10
353.200000
 20
74.960000
 30
0.0
 11
353.200000
 21
70.080000
 31
0.0
  0
LINE
  5
205
100
AcDbEntity
  8
0
 62
7
100
AcDbLine
 10
353.200000
 20
70.080000
 30
0.0
 11
346.000000
 21
70.080000
 31
0.0
  0
LINE
  5
206
100
AcDbEntity
  8
0
 62
7
100
AcDbLine
 10
346.000000
 20
70.080000
 30
0.0
 11
346.000000
 21
37.680000
 31
0.0
  0
LINE
  5
207
100
AcDbEntity
  8
0
 62
7
100
AcDbLine
 10
346.000000
 20
37.680000
 30
0.0
 11
339.680000
 21
37.680000
 31
0.0
  0
LINE
  5
208
100
AcDbEntity
  8
0
 62
7
100
AcDbLine
 10
339.680000
 20
37.680000
 30
0.0
 11
339.680000
 21
70.080000
 31
0.0
  0
LINE
  5
209
100
AcDbEntity
  8
0
 62
7
100
AcDbLine
 10
339.680000
 20
70.080000
 30
0.0
 11
334.080000
 21
70.080000
 31
0.0
  0
LINE
  5
20a
100
AcDbEntity
  8
0
 62
7
100
AcDbLine
 10
334.080000
 20
70.080000
 30
0.0
 11
334.080000
 21
74.960000
 31
0.0
  0
LINE
  5
20b
100
AcDbEntity
  8
0
 62
7
100
AcDbLine
 10
334.080000
 20
74.960000
 30
0.0
 11
339.680000
 21
74.960000
 31
0.0
  0
LINE
  5
20c
100
AcDbEntity
  8
0
 62
7
100
AcDbLine
 10
339.680000
 20
74.960000
 30
0.0
 11
339.680000
 21
79.040000
 31
0.0
  0
SPLINE
  5
20d
100
AcDbEntity
  8
0
 62
7
100
AcDbSpline
 70
8
 71
3
 72
8
 73
4
 74
0
 40
0
 40
0
 40
0
 40
0
 40
1
 40
1
 40
1
 40
1
 10
339.680000
 20
79.040000
 30
0.0
 10
339.680000
 20
80.880000
 30
0.0
 10
339.840000
 20
82.640000
 30
0.0
 10
340.160000
 20
84.160000
 30
0.0
  0
SPLINE
  5
20e
100
AcDbEntity
  8
0
 62
7
100
AcDbSpline
 70
8
 71
3
 72
8
 73
4
 74
0
 40
0
 40
0
 40
0
 40
0
 40
1
 40
1
 40
1
 40
1
 10
340.160000
 20
84.160000
 30
0.0
 10
340.560000
 20
85.680000
 30
0.0
 10
341.440000
 20
87.040000
 30
0.0
 10
342.960000
 20
88.240000
 30
0.0
  0
SPLINE
  5
20f
100
AcDbEntity
  8
0
 62
7
100
AcDbSpline
 70
8
 71
3
 72
8
 73
4
 74
0
 40
0
 40
0
 40
0
 40
0
 40
1
 40
1
 40
1
 40
1
 10
342.960000
 20
88.240000
 30
0.0
 10
344.480000
 20
89.520000
 30
0.0
 10
346.800000
 20
90.080000
 30
0.0
 10
350.000000
 20
90.080000
 30
0.0
  0
SPLINE
  5
210
100
AcDbEntity
  8
0
 62
7
100
AcDbSpline
 70
8
 71
3
 72
8
 73
4
 74
0
 40
0
 40
0
 40
0
 40
0
 40
1
 40
1
 40
1
 40
1
 10
350.000000
 20
90.080000
 30
0.0
 10
351.840000
 20
90.080000
 30
0.0
 10
353.840000
 20
89.920000
 30
0.0
 10
355.840000
 20
89.520000
 30
0.0
  0
LINE
  5
211
100
AcDbEntity
  8
0
 62
7
100
AcDbLine
 10
355.840000
 20
89.520000
 30
0.0
 11
355.840000
 21
89.520000
 31
0.0
  0
LINE
  5
212
100
AcDbEntity
  8
0
 62
7
100
AcDbLine
 10
378.400000
 20
73.840000
 30
0.0
 11
376.240000
 21
68.000000
 31
0.0
  0
SPLINE
  5
213
100
AcDbEntity
  8
0
 62
7
100
AcDbSpline
 70
8
 71
3
 72
8
 73
4
 74
0
 40
0
 40
0
 40
0
 40
0
 40
1
 40
1
 40
1
 40
1
 10
376.240000
 20
68.000000
 30
0.0
 10
374.640000
 20
68.880000
 30
0.0
 10
373.120000
 20
69.360000
 30
0.0
 10
371.600000
 20
69.360000
 30
0.0
  0
SPLINE
  5
214
100
AcDbEntity
  8
0
 62
7
100
AcDbSpline
 70
8
 71
3
 72
8
 73
4
 74
0
 40
0
 40
0
 40
0
 40
0
 40
1
 40
1
 40
1
 40
1
 10
371.600000
 20
69.360000
 30
0.0
 10
369.280000
 20
69.360000
 30
0.0
 10
367.440000
 20
68.320000
 30
0.0
 10
366.240000
 20
66.160000
 30
0.0
  0
SPLINE
  5
215
100
AcDbEntity
  8
0
 62
7
100
AcDbSpline
 70
8
 71
3
 72
8
 73
4
 74
0
 40
0
 40
0
 40
0
 40
0
 40
1
 40
1
 40
1
 40
1
 10
366.240000
 20
66.160000
 30
0.0
 10
365.040000
 20
64.080000
 30
0.0
 10
364.400000
 20
61.120000
 30
0.0
 10
364.400000
 20
57.280000
 30
0.0
  0
LINE
  5
216
100
AcDbEntity
  8
0
 62
7
100
AcDbLine
 10
364.400000
 20
57.280000
 30
0.0
 11
364.400000
 21
37.680000
 31
0.0
  0
LINE
  5
217
100
AcDbEntity
  8
0
 62
7
100
AcDbLine
 10
364.400000
 20
37.680000
 30
0.0
 11
358.080000
 21
37.680000
 31
0.0
  0
LINE
  5
218
100
AcDbEntity
  8
0
 62
7
100
AcDbLine
 10
358.080000
 20
37.680000
 30
0.0
 11
358.080000
 21
74.960000
 31
0.0
  0
LINE
  5
219
100
AcDbEntity
  8
0
 62
7
100
AcDbLine
 10
358.080000
 20
74.960000
 30
0.0
 11
363.840000
 21
74.960000
 31
0.0
  0
LINE
  5
21a
100
AcDbEntity
  8
0
 62
7
100
AcDbLine
 10
363.840000
 20
74.960000
 30
0.0
 11
363.840000
 21
69.360000
 31
0.0
  0
LINE
  5
21b
100
AcDbEntity
  8
0
 62
7
100
AcDbLine
 10
363.840000
 20
69.360000
 30
0.0
 11
364.000000
 21
69.360000
 31
0.0
  0
SPLINE
  5
21c
100
AcDbEntity
  8
0
 62
7
100
AcDbSpline
 70
8
 71
3
 72
8
 73
4
 74
0
 40
0
 40
0
 40
0
 40
0
 40
1
 40
1
 40
1
 40
1
 10
364.000000
 20
69.360000
 30
0.0
 10
366.000000
 20
73.680000
 30
0.0
 10
368.640000
 20
75.840000
 30
0.0
 10
371.920000
 20
75.840000
 30
0.0
  0
SPLINE
  5
21d
100
AcDbEntity
  8
0
 62
7
100
AcDbSpline
 70
8
 71
3
 72
8
 73
4
 74
0
 40
0
 40
0
 40
0
 40
0
 40
1
 40
1
 40
1
 40
1
 10
371.920000
 20
75.840000
 30
0.0
 10
374.080000
 20
75.840000
 30
0.0
 10
376.240000
 20
75.200000
 30
0.0
 10
378.400000
 20
73.840000
 30
0.0
  0
LINE
  5
21e
100
AcDbEntity
  8
0
 62
7
100
AcDbLine
 10
378.400000
 20
73.840000
 30
0.0
 11
378.400000
 21
73.840000
 31
0.0
  0
ENDSEC
  0
SECTION
  2
OBJECTS
  0
DICTIONARY
  5
C
330
0
100
AcDbDictionary
  3
ACAD_GROUP
350
D
  3
ACAD_MLINESTYLE
350
17
  0
DICTIONARY
  5
D
330
C
100
AcDbDictionary
  0
DICTIONARY
  5
1A
330
C
100
AcDbDictionary
  0
DICTIONARY
  5
17
330
C
100
AcDbDictionary
  3
STANDARD
350
18
  0
DICTIONARY
  5
19
330
C
100
AcDbDictionary
  0
ENDSEC
  0
EOF
