<?xml version="1.0" encoding="UTF-8" standalone="no"?>
<svg
   xmlns:dc="http://purl.org/dc/elements/1.1/"
   xmlns:cc="http://creativecommons.org/ns#"
   xmlns:rdf="http://www.w3.org/1999/02/22-rdf-syntax-ns#"
   xmlns:svg="http://www.w3.org/2000/svg"
   xmlns="http://www.w3.org/2000/svg"
   xmlns:sodipodi="http://sodipodi.sourceforge.net/DTD/sodipodi-0.dtd"
   xmlns:inkscape="http://www.inkscape.org/namespaces/inkscape"
   width="744.1"
   height="1052.4"
   version="1.1"
   id="svg31"
   sodipodi:docname="Superhero 2 (Bistouille.fr).svg"
   inkscape:version="0.92.2 (5c3e80d, 2017-08-06)">
  <metadata
     id="metadata35">
    <rdf:RDF>
      <cc:Work
         rdf:about="">
        <dc:format>image/svg+xml</dc:format>
        <dc:type
           rdf:resource="http://purl.org/dc/dcmitype/StillImage" />
      </cc:Work>
    </rdf:RDF>
  </metadata>
  <sodipodi:namedview
     pagecolor="#ffffff"
     bordercolor="#666666"
     borderopacity="1"
     objecttolerance="10"
     gridtolerance="10"
     guidetolerance="10"
     inkscape:pageopacity="0"
     inkscape:pageshadow="2"
     inkscape:window-width="756"
     inkscape:window-height="480"
     id="namedview33"
     showgrid="false"
     inkscape:zoom="0.22424933"
     inkscape:cx="372.04999"
     inkscape:cy="526.20001"
     inkscape:window-x="0"
     inkscape:window-y="0"
     inkscape:window-maximized="0"
     inkscape:current-layer="svg31" />
  <defs
     id="defs2" />
  <path
     id="0"
     stroke-width="0.9"
     stroke="#FF0000"
     stroke-opacity="1"
     fill="#F50000"
     fill-opacity="1"
     fill-rule="evenodd"
     stroke-linecap="round"
     stroke-linejoin="round"
     d="M104.7,880.6 C88.8,879.3 83.4,877.5 84.6,873.9 90.3,856.8 92.5,851.2 96.5,842.7 100,835.2 101.5,830.5 102.4,823.9 103.9,812.4 105.5,806 108.2,800.9 109.4,798.6 111.2,793 112.2,788.4 113.1,783.8 115.1,776 116.5,771 118.8,762.6 118.9,761.2 117.7,748.3 116.9,740.8 115.6,731.1 114.7,726.9 110,705.6 109.9,684.1 114.4,672.1 117.9,662.7 128.3,643.9 131.4,641.3 132.5,640.3 135,637 136.9,634 139.8,629.2 140.5,626.6 141.7,615.7 142.5,608.7 143.7,600.2 144.5,596.8 145.4,592.8 145.6,587.3 145,580.9 143.7,564.7 143.9,550.1 145.7,540.1 153.6,496 164.1,466.8 180.7,443 180.7,443 189.4,430.6 189.4,430.6 189.4,430.6 190.5,417.3 190.5,417.3 191.7,403 190.8,375 189,372.5 188.4,371.7 185.3,368.4 182,365.3 176.3,359.6 167.8,347.6 164.7,340.7 162,334.4 160.6,334.3 159.1,339.9 156.8,348.1 151.2,357 145.9,361 142,363.9 140.4,366.1 138,371.9 135.3,378.3 134.8,381.2 134.3,395 133.7,408.8 133.1,412.2 130.1,421 124.5,437.5 125.6,442.8 135.5,448.1 140.5,450.8 149,459.5 150.9,463.9 151.9,466.2 152.1,469 151.5,472.9 151.1,476 150.8,481.5 150.9,485.1 151.1,491.3 150.8,492.2 146.9,497.7 144.6,500.9 140.4,505.5 137.6,507.8 134.8,510.1 132.5,512.2 132.5,512.6 132.5,512.9 130.4,514.2 127.9,515.4 123.8,517.4 122.6,517.6 117.2,517.1 108.7,516.2 101.6,513.6 100.7,511.1 100.3,510 98.4,506.5 96.5,503.4 92.2,496.6 92.3,496.7 90.2,475.5 88.7,459.3 88.5,458.4 82.8,445.2 70.4,416.4 67.2,402.8 67.9,381.6 67.9,381.6 68.4,366.3 68.4,366.3 68.4,366.3 74.5,355.2 74.5,355.2 85.1,335.7 85.5,334.6 83.3,325.5 81.2,316.4 81.1,311 82.7,300.4 84.6,288 87.9,277.6 92.1,270.8 92.1,270.8 96,264.4 96,264.4 96,264.4 96,250.3 96,250.3 96,233.9 97.5,228.3 105.1,216.9 110.7,208.5 119.7,201.2 128.4,198.1 131.6,197 137.2,194.9 141,193.5 145.7,191.8 150,190.9 155.4,190.6 164.1,190.1 165.5,189.5 166.6,186.2 167,185 169,182.7 171,181.1 173,179.5 176,176.3 177.6,173.9 179.2,171.5 181.9,168.8 183.5,167.9 187.8,165.5 196.1,165 201.7,166.7 207.3,168.3 208,167.9 210.4,160.8 212.9,153.4 214.4,143.3 215.8,124.4 216.5,115.2 217.5,105.4 218.1,102.6 218.7,99.7 219.2,93.1 219.2,87.9 219.2,74.6 219.5,73.9 226.4,70.4 232.2,67.5 232.5,67.5 246.4,67.2 260.3,66.9 260.7,66.9 267.6,69.5 275.9,72.6 280,72.9 282,70.5 284.1,68 285,68.3 285.8,72 287.2,78.2 287.6,79 289.4,79 291.8,79 291,82.5 287.5,87.8 284.2,92.7 282.8,103.3 284.2,112.4 285.6,121.5 284.5,133.9 281.6,142.7 279.8,148.1 279.5,150.9 280.1,156.4 281.3,167.7 285.5,172.8 294,173.8 296.8,174.1 300.5,175.5 304,177.6 307,179.5 311.5,181.5 313.9,182.2 321.4,184.1 327.1,186.5 335.7,191.4 343.5,195.9 344.3,196.2 354.2,197.2 371.2,198.9 380.5,203.1 385.9,211.6 388.9,216.2 392.8,229.3 392.8,234.5 392.8,237.9 393.2,238.3 399.1,241.2 408.9,245.9 421.1,253.9 434.9,264.3 450.6,276.2 474.2,296 476.3,299 477.1,300.2 479.9,303.6 482.5,306.5 485.1,309.4 488.1,313 489.2,314.5 490.6,316.4 493.3,317.9 498.4,319.6 551.3,337.2 564.3,341.8 573.9,346.1 578.2,348.1 582.1,349.6 582.5,349.6 583,349.6 584.4,350.3 585.6,351.2 589.3,353.7 597.3,357.5 616.2,365.9 647.1,379.6 658.1,385.5 670.4,395.2 681.1,403.7 684.8,408.9 692.6,426.1 695.5,432.5 696.2,435.6 696.8,445.9 697.5,456.8 697.3,459 695,465.8 693.6,470.1 692.6,475 692.8,476.8 693.1,479.8 693.8,480.4 700.1,483.2 710,487.6 710,489.6 700,499.5 697.4,502.1 693.9,505.8 692.3,507.7 690.7,509.6 686.5,512.8 683,514.8 677.8,517.7 675.7,518.4 672.7,518.2 669.1,517.9 668.5,517.4 662.4,508.5 641.7,478.1 636.8,471.7 625.7,461.5 612.9,449.6 614.6,451 603.9,442.9 592.6,434.2 588,431.2 578.9,426.4 578.9,426.4 571.1,422.3 571.1,422.3 571.1,422.3 566.8,423.8 566.8,423.8 560,426.2 549,434.9 544.2,441.7 538.3,450.1 534.2,461.2 532.3,474.2 530.1,488.4 530.1,496.1 532.3,512.5 534.4,528 536.4,536.5 541.2,550.5 544.4,560 544.6,561.5 544,571 542.8,590.8 536.2,602.9 523.1,609.6 515.2,613.6 506.4,615.4 498.8,614.7 495.6,614.4 482,614 468.6,614 468.6,614 444.3,613.9 444.3,613.9 444.3,613.9 432.5,617 432.5,617 426,618.7 418.3,621.4 415.3,622.9 408.1,626.6 398.4,633.6 395.5,637.4 391.4,642.7 391.3,644.7 394.9,649.7 398.5,654.5 402.2,661.8 404.3,668.7 405.5,672.3 407.2,674.2 416.4,681.2 425,687.9 427.9,689.6 431.4,690.1 439.9,691.3 436,695.8 419.4,703.9 413.2,706.9 407.3,710.3 406.4,711.3 404.7,713.2 404.2,717.3 400.9,755.6 399.5,772.2 399.5,792.4 400.9,792.4 401.5,792.4 403.9,795.4 406.1,799 409.7,804.7 410.2,806.3 410.2,812.2 410.2,819.2 409.8,818.4 421.3,836.8 423.4,840.2 426.7,844.6 428.5,846.6 438.9,858 438.8,868.4 428.2,871.2 420.4,873.2 393.4,870.6 376,866.1 364.3,863.1 363.9,862.7 363.9,855.1 363.9,851.5 364.7,841.5 365.7,833 367.3,818.6 367.3,817.1 365.5,811.6 363.9,806.9 363.5,802 363.6,787.8 363.8,768.8 363.7,768.5 356.9,757.5 355.7,755.5 354.6,753.7 354.6,753.5 354.6,753.2 352.5,749.7 349.9,745.5 344.2,736.6 331.5,714.7 331.5,713.9 331.5,713.6 330.5,712.5 329.3,711.5 328.1,710.6 325.4,705.7 323.3,700.8 323.3,700.8 319.5,691.9 319.5,691.9 319.5,691.9 321.6,667.9 321.6,667.9 321.6,667.9 323.6,643.8 323.6,643.8 323.6,643.8 320.1,636.1 320.1,636.1 318.2,631.9 316.1,624.9 315.3,620.7 314.6,616.5 312.7,610.6 311.1,607.6 309.5,604.7 307.9,599.7 307.5,596.5 306.8,591 306.4,590.4 297.9,581.8 287.6,571.3 285.3,568.2 279.8,557 271.6,540.3 268.9,530.4 268,514.7 267.4,503.5 266.8,500.1 265.5,499.4 263.7,498.6 255.2,499.1 253.7,500.2 253.2,500.6 251.3,508.6 249.4,518 241.4,557.1 240.2,561.7 235.2,570.9 229.2,582.1 220.1,596.1 215.3,601.2 207.9,609.2 205.6,613 204.2,619.4 202,629.6 198.6,640.6 195.4,648.4 192.6,655.3 192.5,656 193.3,670.7 194.2,687.3 193.2,692.8 185.5,716.2 178.2,738.3 174,746.8 164.1,759 156.9,767.9 156.8,768.1 153.5,781.7 150.2,794.9 150.1,796.2 150.5,815.8 150.9,834.9 151.5,839.9 154.5,850.2 155.9,854.9 156.2,870.1 155.1,875.3 154.5,877.9 153.6,878.8 150.6,879.7 146.1,881 116.7,881.6 104.7,880.6 Z " />
</svg>
