  0
SECTION
  2
HEADER
  9
$ACADVER
  1
AC1014
  9
$HANDSEED
  5
FFFF
  9
$MEASUREMENT
 70
     1
  0
ENDSEC
  0
SECTION
  2
TABLES
  0
TABLE
  2
VPORT
  5
8
330
0
100
AcDbSymbolTable
 70
     4
  0
VPORT
  5
2E
330
8
100
AcDbSymbolTableRecord
100
AcDbViewportTableRecord
  2
*ACTIVE
 70
     0
 10
0.0
 20
0.0
 11
1.0
 21
1.0
 12
210.0
 22
148.5
 13
0.0
 23
0.0
 14
10.0
 24
10.0
 15
10.0
 25
10.0
 16
0.0
 26
0.0
 36
1.0
 17
0.0
 27
0.0
 37
0.0
 40
341.0
 41
1.24
 42
50.0
 43
0.0
 44
0.0
 50
0.0
 51
0.0
 71
     0
 72
   100
 73
     1
 74
     3
 75
     0
 76
     0
 77
     0
 78
     0
  0
ENDTAB
  0
TABLE
  2
LTYPE
  5
5
330
0
100
AcDbSymbolTable
 70
     1
  0
LTYPE
  5
14
330
5
100
AcDbSymbolTableRecord
100
AcDbLinetypeTableRecord
  2
BYBLOCK
 70
     0
  3

 72
    65
 73
     0
 40
0.0
  0
LTYPE
  5
15
330
5
100
AcDbSymbolTableRecord
100
AcDbLinetypeTableRecord
  2
BYLAYER
 70
     0
  3

 72
    65
 73
     0
 40
0.0
  0
LTYPE
  5
16
330
5
100
AcDbSymbolTableRecord
100
AcDbLinetypeTableRecord
  2
CONTINUOUS
 70
     0
  3
Solid line
 72
    65
 73
     0
 40
0.0
  0
ENDTAB
  0
TABLE
  2
LAYER
  5
2
100
AcDbSymbolTable
 70
1
  0
LAYER
  5
50
100
AcDbSymbolTableRecord
100
AcDbLayerTableRecord
  2
0
 70
0
  6
CONTINUOUS
  0
ENDTAB
  0
TABLE
  2
STYLE
  5
3
330
0
100
AcDbSymbolTable
 70
     1
  0
STYLE
  5
11
330
3
100
AcDbSymbolTableRecord
100
AcDbTextStyleTableRecord
  2
STANDARD
 70
     0
 40
0.0
 41
1.0
 50
0.0
 71
     0
 42
2.5
  3
txt
  4

  0
ENDTAB
  0
TABLE
  2
VIEW
  5
6
330
0
100
AcDbSymbolTable
 70
     0
  0
ENDTAB
  0
TABLE
  2
UCS
  5
7
330
0
100
AcDbSymbolTable
 70
     0
  0
ENDTAB
  0
TABLE
  2
APPID
  5
9
330
0
100
AcDbSymbolTable
 70
     2
  0
APPID
  5
12
330
9
100
AcDbSymbolTableRecord
100
AcDbRegAppTableRecord
  2
ACAD
 70
     0
  0
ENDTAB
  0
TABLE
  2
DIMSTYLE
  5
A
330
0
100
AcDbSymbolTable
 70
     1
  0
DIMSTYLE
105
27
330
A
100
AcDbSymbolTableRecord
100
AcDbDimStyleTableRecord
  2
ISO-25
 70
     0
  3

  4

  5

  6

  7

 40
1.0
 41
2.5
 42
0.625
 43
3.75
 44
1.25
 45
0.0
 46
0.0
 47
0.0
 48
0.0
140
2.5
141
2.5
142
0.0
143
0.03937007874016
144
1.0
145
0.0
146
1.0
147
0.625
 71
     0
 72
     0
 73
     0
 74
     0
 75
     0
 76
     0
 77
     1
 78
     8
170
     0
171
     3
172
     1
173
     0
174
     0
175
     0
176
     0
177
     0
178
     0
270
     2
271
     2
272
     2
273
     2
274
     3
340
11
275
     0
280
     0
281
     0
282
     0
283
     0
284
     8
285
     0
286
     0
287
     3
288
     0
  0
ENDTAB
  0
TABLE
  2
BLOCK_RECORD
  5
1
330
0
100
AcDbSymbolTable
 70
     1
  0
BLOCK_RECORD
  5
1F
330
1
100
AcDbSymbolTableRecord
100
AcDbBlockTableRecord
  2
*MODEL_SPACE
  0
BLOCK_RECORD
  5
1B
330
1
100
AcDbSymbolTableRecord
100
AcDbBlockTableRecord
  2
*PAPER_SPACE
  0
ENDTAB
  0
ENDSEC
  0
SECTION
  2
BLOCKS
  0
BLOCK
  5
20
330
1F
100
AcDbEntity
  8
0
100
AcDbBlockBegin
  2
*MODEL_SPACE
 70
     0
 10
0.0
 20
0.0
 30
0.0
  3
*MODEL_SPACE
  1

  0
ENDBLK
  5
21
330
1F
100
AcDbEntity
  8
0
100
AcDbBlockEnd
  0
BLOCK
  5
1C
330
1B
100
AcDbEntity
 67
     1
  8
0
100
AcDbBlockBegin
  2
*PAPER_SPACE
  1

  0
ENDBLK
  5
1D
330
1B
100
AcDbEntity
 67
     1
  8
0
100
AcDbBlockEnd
  0
ENDSEC
  0
SECTION
  2
ENTITIES
  0
SPLINE
  5
100
100
AcDbEntity
  8
0
 62
7
100
AcDbSpline
 70
8
 71
3
 72
8
 73
4
 74
0
 40
0
 40
0
 40
0
 40
0
 40
1
 40
1
 40
1
 40
1
 10
206.960000
 20
140.320000
 30
0.0
 10
204.960000
 20
142.560000
 30
0.0
 10
202.800000
 20
142.720000
 30
0.0
 10
199.200000
 20
141.040000
 30
0.0
  0
SPLINE
  5
101
100
AcDbEntity
  8
0
 62
7
100
AcDbSpline
 70
8
 71
3
 72
8
 73
4
 74
0
 40
0
 40
0
 40
0
 40
0
 40
1
 40
1
 40
1
 40
1
 10
199.200000
 20
141.040000
 30
0.0
 10
196.560000
 20
139.840000
 30
0.0
 10
188.160000
 20
139.440000
 30
0.0
 10
186.960000
 20
140.480000
 30
0.0
  0
SPLINE
  5
102
100
AcDbEntity
  8
0
 62
7
100
AcDbSpline
 70
8
 71
3
 72
8
 73
4
 74
0
 40
0
 40
0
 40
0
 40
0
 40
1
 40
1
 40
1
 40
1
 10
186.960000
 20
140.480000
 30
0.0
 10
186.640000
 20
140.800000
 30
0.0
 10
183.680000
 20
141.120000
 30
0.0
 10
180.400000
 20
141.200000
 30
0.0
  0
SPLINE
  5
103
100
AcDbEntity
  8
0
 62
7
100
AcDbSpline
 70
8
 71
3
 72
8
 73
4
 74
0
 40
0
 40
0
 40
0
 40
0
 40
1
 40
1
 40
1
 40
1
 10
180.400000
 20
141.200000
 30
0.0
 10
172.000000
 20
141.440000
 30
0.0
 10
164.880000
 20
142.240000
 30
0.0
 10
163.520000
 20
143.200000
 30
0.0
  0
SPLINE
  5
104
100
AcDbEntity
  8
0
 62
7
100
AcDbSpline
 70
8
 71
3
 72
8
 73
4
 74
0
 40
0
 40
0
 40
0
 40
0
 40
1
 40
1
 40
1
 40
1
 10
163.520000
 20
143.200000
 30
0.0
 10
162.960000
 20
143.680000
 30
0.0
 10
160.960000
 20
144.240000
 30
0.0
 10
159.120000
 20
144.560000
 30
0.0
  0
SPLINE
  5
105
100
AcDbEntity
  8
0
 62
7
100
AcDbSpline
 70
8
 71
3
 72
8
 73
4
 74
0
 40
0
 40
0
 40
0
 40
0
 40
1
 40
1
 40
1
 40
1
 10
159.120000
 20
144.560000
 30
0.0
 10
156.320000
 20
144.960000
 30
0.0
 10
155.840000
 20
145.280000
 30
0.0
 10
155.520000
 20
147.280000
 30
0.0
  0
SPLINE
  5
106
100
AcDbEntity
  8
0
 62
7
100
AcDbSpline
 70
8
 71
3
 72
8
 73
4
 74
0
 40
0
 40
0
 40
0
 40
0
 40
1
 40
1
 40
1
 40
1
 10
155.520000
 20
147.280000
 30
0.0
 10
155.360000
 20
148.560000
 30
0.0
 10
155.760000
 20
151.040000
 30
0.0
 10
156.320000
 20
152.800000
 30
0.0
  0
SPLINE
  5
107
100
AcDbEntity
  8
0
 62
7
100
AcDbSpline
 70
8
 71
3
 72
8
 73
4
 74
0
 40
0
 40
0
 40
0
 40
0
 40
1
 40
1
 40
1
 40
1
 10
156.320000
 20
152.800000
 30
0.0
 10
157.360000
 20
156.000000
 30
0.0
 10
158.000000
 20
156.640000
 30
0.0
 10
173.520000
 20
170.480000
 30
0.0
  0
SPLINE
  5
108
100
AcDbEntity
  8
0
 62
7
100
AcDbSpline
 70
8
 71
3
 72
8
 73
4
 74
0
 40
0
 40
0
 40
0
 40
0
 40
1
 40
1
 40
1
 40
1
 10
173.520000
 20
170.480000
 30
0.0
 10
179.600000
 20
176.000000
 30
0.0
 10
183.760000
 20
180.480000
 30
0.0
 10
185.440000
 20
183.360000
 30
0.0
  0
SPLINE
  5
109
100
AcDbEntity
  8
0
 62
7
100
AcDbSpline
 70
8
 71
3
 72
8
 73
4
 74
0
 40
0
 40
0
 40
0
 40
0
 40
1
 40
1
 40
1
 40
1
 10
185.440000
 20
183.360000
 30
0.0
 10
186.880000
 20
185.840000
 30
0.0
 10
188.640000
 20
188.960000
 30
0.0
 10
189.440000
 20
190.320000
 30
0.0
  0
SPLINE
  5
10a
100
AcDbEntity
  8
0
 62
7
100
AcDbSpline
 70
8
 71
3
 72
8
 73
4
 74
0
 40
0
 40
0
 40
0
 40
0
 40
1
 40
1
 40
1
 40
1
 10
189.440000
 20
190.320000
 30
0.0
 10
190.640000
 20
192.400000
 30
0.0
 10
190.880000
 20
196.320000
 30
0.0
 10
191.120000
 20
215.680000
 30
0.0
  0
SPLINE
  5
10b
100
AcDbEntity
  8
0
 62
7
100
AcDbSpline
 70
8
 71
3
 72
8
 73
4
 74
0
 40
0
 40
0
 40
0
 40
0
 40
1
 40
1
 40
1
 40
1
 10
191.120000
 20
215.680000
 30
0.0
 10
191.280000
 20
237.440000
 30
0.0
 10
191.200000
 20
238.880000
 30
0.0
 10
189.360000
 20
244.480000
 30
0.0
  0
SPLINE
  5
10c
100
AcDbEntity
  8
0
 62
7
100
AcDbSpline
 70
8
 71
3
 72
8
 73
4
 74
0
 40
0
 40
0
 40
0
 40
0
 40
1
 40
1
 40
1
 40
1
 10
189.360000
 20
244.480000
 30
0.0
 10
186.080000
 20
254.000000
 30
0.0
 10
184.640000
 20
264.160000
 30
0.0
 10
184.640000
 20
277.280000
 30
0.0
  0
SPLINE
  5
10d
100
AcDbEntity
  8
0
 62
7
100
AcDbSpline
 70
8
 71
3
 72
8
 73
4
 74
0
 40
0
 40
0
 40
0
 40
0
 40
1
 40
1
 40
1
 40
1
 10
184.640000
 20
277.280000
 30
0.0
 10
184.640000
 20
290.880000
 30
0.0
 10
185.920000
 20
296.880000
 30
0.0
 10
192.800000
 20
315.040000
 30
0.0
  0
LINE
  5
10e
100
AcDbEntity
  8
0
 62
7
100
AcDbLine
 10
192.800000
 20
315.040000
 30
0.0
 11
196.320000
 21
324.480000
 31
0.0
  0
LINE
  5
10f
100
AcDbEntity
  8
0
 62
7
100
AcDbLine
 10
196.320000
 20
324.480000
 30
0.0
 11
196.480000
 21
341.200000
 31
0.0
  0
SPLINE
  5
110
100
AcDbEntity
  8
0
 62
7
100
AcDbSpline
 70
8
 71
3
 72
8
 73
4
 74
0
 40
0
 40
0
 40
0
 40
0
 40
1
 40
1
 40
1
 40
1
 10
196.480000
 20
341.200000
 30
0.0
 10
196.640000
 20
355.360000
 30
0.0
 10
196.400000
 20
358.800000
 30
0.0
 10
195.120000
 20
363.040000
 30
0.0
  0
SPLINE
  5
111
100
AcDbEntity
  8
0
 62
7
100
AcDbSpline
 70
8
 71
3
 72
8
 73
4
 74
0
 40
0
 40
0
 40
0
 40
0
 40
1
 40
1
 40
1
 40
1
 10
195.120000
 20
363.040000
 30
0.0
 10
191.280000
 20
375.120000
 30
0.0
 10
188.240000
 20
391.360000
 30
0.0
 10
188.240000
 20
399.520000
 30
0.0
  0
SPLINE
  5
112
100
AcDbEntity
  8
0
 62
7
100
AcDbSpline
 70
8
 71
3
 72
8
 73
4
 74
0
 40
0
 40
0
 40
0
 40
0
 40
1
 40
1
 40
1
 40
1
 10
188.240000
 20
399.520000
 30
0.0
 10
188.240000
 20
409.680000
 30
0.0
 10
191.200000
 20
429.360000
 30
0.0
 10
194.000000
 20
437.600000
 30
0.0
  0
SPLINE
  5
113
100
AcDbEntity
  8
0
 62
7
100
AcDbSpline
 70
8
 71
3
 72
8
 73
4
 74
0
 40
0
 40
0
 40
0
 40
0
 40
1
 40
1
 40
1
 40
1
 10
194.000000
 20
437.600000
 30
0.0
 10
195.200000
 20
441.040000
 30
0.0
 10
196.720000
 20
445.920000
 30
0.0
 10
197.440000
 20
448.480000
 30
0.0
  0
SPLINE
  5
114
100
AcDbEntity
  8
0
 62
7
100
AcDbSpline
 70
8
 71
3
 72
8
 73
4
 74
0
 40
0
 40
0
 40
0
 40
0
 40
1
 40
1
 40
1
 40
1
 10
197.440000
 20
448.480000
 30
0.0
 10
199.920000
 20
457.120000
 30
0.0
 10
207.360000
 20
474.160000
 30
0.0
 10
211.440000
 20
480.480000
 30
0.0
  0
SPLINE
  5
115
100
AcDbEntity
  8
0
 62
7
100
AcDbSpline
 70
8
 71
3
 72
8
 73
4
 74
0
 40
0
 40
0
 40
0
 40
0
 40
1
 40
1
 40
1
 40
1
 10
211.440000
 20
480.480000
 30
0.0
 10
212.000000
 20
481.360000
 30
0.0
 10
212.800000
 20
485.920000
 30
0.0
 10
213.120000
 20
490.640000
 30
0.0
  0
SPLINE
  5
116
100
AcDbEntity
  8
0
 62
7
100
AcDbSpline
 70
8
 71
3
 72
8
 73
4
 74
0
 40
0
 40
0
 40
0
 40
0
 40
1
 40
1
 40
1
 40
1
 10
213.120000
 20
490.640000
 30
0.0
 10
213.840000
 20
499.520000
 30
0.0
 10
217.200000
 20
513.840000
 30
0.0
 10
219.840000
 20
518.640000
 30
0.0
  0
SPLINE
  5
117
100
AcDbEntity
  8
0
 62
7
100
AcDbSpline
 70
8
 71
3
 72
8
 73
4
 74
0
 40
0
 40
0
 40
0
 40
0
 40
1
 40
1
 40
1
 40
1
 10
219.840000
 20
518.640000
 30
0.0
 10
221.120000
 20
521.040000
 30
0.0
 10
221.200000
 20
521.840000
 30
0.0
 10
220.160000
 20
524.480000
 30
0.0
  0
SPLINE
  5
118
100
AcDbEntity
  8
0
 62
7
100
AcDbSpline
 70
8
 71
3
 72
8
 73
4
 74
0
 40
0
 40
0
 40
0
 40
0
 40
1
 40
1
 40
1
 40
1
 10
220.160000
 20
524.480000
 30
0.0
 10
219.440000
 20
526.320000
 30
0.0
 10
219.360000
 20
528.000000
 30
0.0
 10
219.760000
 20
528.560000
 30
0.0
  0
SPLINE
  5
119
100
AcDbEntity
  8
0
 62
7
100
AcDbSpline
 70
8
 71
3
 72
8
 73
4
 74
0
 40
0
 40
0
 40
0
 40
0
 40
1
 40
1
 40
1
 40
1
 10
219.760000
 20
528.560000
 30
0.0
 10
220.240000
 20
529.200000
 30
0.0
 10
220.560000
 20
534.560000
 30
0.0
 10
220.560000
 20
540.560000
 30
0.0
  0
SPLINE
  5
11a
100
AcDbEntity
  8
0
 62
7
100
AcDbSpline
 70
8
 71
3
 72
8
 73
4
 74
0
 40
0
 40
0
 40
0
 40
0
 40
1
 40
1
 40
1
 40
1
 10
220.560000
 20
540.560000
 30
0.0
 10
220.560000
 20
546.560000
 30
0.0
 10
220.880000
 20
555.680000
 30
0.0
 10
221.280000
 20
560.880000
 30
0.0
  0
SPLINE
  5
11b
100
AcDbEntity
  8
0
 62
7
100
AcDbSpline
 70
8
 71
3
 72
8
 73
4
 74
0
 40
0
 40
0
 40
0
 40
0
 40
1
 40
1
 40
1
 40
1
 10
221.280000
 20
560.880000
 30
0.0
 10
221.920000
 20
570.000000
 30
0.0
 10
221.920000
 20
570.400000
 30
0.0
 10
219.440000
 20
575.680000
 30
0.0
  0
SPLINE
  5
11c
100
AcDbEntity
  8
0
 62
7
100
AcDbSpline
 70
8
 71
3
 72
8
 73
4
 74
0
 40
0
 40
0
 40
0
 40
0
 40
1
 40
1
 40
1
 40
1
 10
219.440000
 20
575.680000
 30
0.0
 10
217.360000
 20
580.400000
 30
0.0
 10
216.640000
 20
581.200000
 30
0.0
 10
214.640000
 20
581.360000
 30
0.0
  0
SPLINE
  5
11d
100
AcDbEntity
  8
0
 62
7
100
AcDbSpline
 70
8
 71
3
 72
8
 73
4
 74
0
 40
0
 40
0
 40
0
 40
0
 40
1
 40
1
 40
1
 40
1
 10
214.640000
 20
581.360000
 30
0.0
 10
208.320000
 20
582.080000
 30
0.0
 10
204.400000
 20
591.280000
 30
0.0
 10
203.280000
 20
608.400000
 30
0.0
  0
SPLINE
  5
11e
100
AcDbEntity
  8
0
 62
7
100
AcDbSpline
 70
8
 71
3
 72
8
 73
4
 74
0
 40
0
 40
0
 40
0
 40
0
 40
1
 40
1
 40
1
 40
1
 10
203.280000
 20
608.400000
 30
0.0
 10
202.800000
 20
614.800000
 30
0.0
 10
202.080000
 20
620.320000
 30
0.0
 10
201.680000
 20
620.720000
 30
0.0
  0
SPLINE
  5
11f
100
AcDbEntity
  8
0
 62
7
100
AcDbSpline
 70
8
 71
3
 72
8
 73
4
 74
0
 40
0
 40
0
 40
0
 40
0
 40
1
 40
1
 40
1
 40
1
 10
201.680000
 20
620.720000
 30
0.0
 10
200.240000
 20
622.000000
 30
0.0
 10
198.960000
 20
619.360000
 30
0.0
 10
197.600000
 20
612.320000
 30
0.0
  0
SPLINE
  5
120
100
AcDbEntity
  8
0
 62
7
100
AcDbSpline
 70
8
 71
3
 72
8
 73
4
 74
0
 40
0
 40
0
 40
0
 40
0
 40
1
 40
1
 40
1
 40
1
 10
197.600000
 20
612.320000
 30
0.0
 10
196.880000
 20
608.480000
 30
0.0
 10
195.680000
 20
602.320000
 30
0.0
 10
194.880000
 20
598.720000
 30
0.0
  0
SPLINE
  5
121
100
AcDbEntity
  8
0
 62
7
100
AcDbSpline
 70
8
 71
3
 72
8
 73
4
 74
0
 40
0
 40
0
 40
0
 40
0
 40
1
 40
1
 40
1
 40
1
 10
194.880000
 20
598.720000
 30
0.0
 10
193.760000
 20
593.440000
 30
0.0
 10
193.600000
 20
588.880000
 30
0.0
 10
194.000000
 20
576.960000
 30
0.0
  0
SPLINE
  5
122
100
AcDbEntity
  8
0
 62
7
100
AcDbSpline
 70
8
 71
3
 72
8
 73
4
 74
0
 40
0
 40
0
 40
0
 40
0
 40
1
 40
1
 40
1
 40
1
 10
194.000000
 20
576.960000
 30
0.0
 10
194.480000
 20
561.360000
 30
0.0
 10
194.000000
 20
557.440000
 30
0.0
 10
190.240000
 20
547.200000
 30
0.0
  0
SPLINE
  5
123
100
AcDbEntity
  8
0
 62
7
100
AcDbSpline
 70
8
 71
3
 72
8
 73
4
 74
0
 40
0
 40
0
 40
0
 40
0
 40
1
 40
1
 40
1
 40
1
 10
190.240000
 20
547.200000
 30
0.0
 10
187.760000
 20
540.480000
 30
0.0
 10
178.800000
 20
528.560000
 30
0.0
 10
166.960000
 20
516.240000
 30
0.0
  0
SPLINE
  5
124
100
AcDbEntity
  8
0
 62
7
100
AcDbSpline
 70
8
 71
3
 72
8
 73
4
 74
0
 40
0
 40
0
 40
0
 40
0
 40
1
 40
1
 40
1
 40
1
 10
166.960000
 20
516.240000
 30
0.0
 10
159.280000
 20
508.320000
 30
0.0
 10
158.560000
 20
506.800000
 30
0.0
 10
157.280000
 20
496.160000
 30
0.0
  0
SPLINE
  5
125
100
AcDbEntity
  8
0
 62
7
100
AcDbSpline
 70
8
 71
3
 72
8
 73
4
 74
0
 40
0
 40
0
 40
0
 40
0
 40
1
 40
1
 40
1
 40
1
 10
157.280000
 20
496.160000
 30
0.0
 10
156.400000
 20
488.560000
 30
0.0
 10
156.720000
 20
487.520000
 30
0.0
 10
161.520000
 20
483.200000
 30
0.0
  0
SPLINE
  5
126
100
AcDbEntity
  8
0
 62
7
100
AcDbSpline
 70
8
 71
3
 72
8
 73
4
 74
0
 40
0
 40
0
 40
0
 40
0
 40
1
 40
1
 40
1
 40
1
 10
161.520000
 20
483.200000
 30
0.0
 10
166.720000
 20
478.560000
 30
0.0
 10
176.640000
 20
461.840000
 30
0.0
 10
176.720000
 20
457.840000
 30
0.0
  0
SPLINE
  5
127
100
AcDbEntity
  8
0
 62
7
100
AcDbSpline
 70
8
 71
3
 72
8
 73
4
 74
0
 40
0
 40
0
 40
0
 40
0
 40
1
 40
1
 40
1
 40
1
 10
176.720000
 20
457.840000
 30
0.0
 10
176.720000
 20
456.560000
 30
0.0
 10
177.680000
 20
452.800000
 30
0.0
 10
178.880000
 20
449.440000
 30
0.0
  0
SPLINE
  5
128
100
AcDbEntity
  8
0
 62
7
100
AcDbSpline
 70
8
 71
3
 72
8
 73
4
 74
0
 40
0
 40
0
 40
0
 40
0
 40
1
 40
1
 40
1
 40
1
 10
178.880000
 20
449.440000
 30
0.0
 10
180.160000
 20
446.080000
 30
0.0
 10
181.120000
 20
442.400000
 30
0.0
 10
181.120000
 20
441.120000
 30
0.0
  0
SPLINE
  5
129
100
AcDbEntity
  8
0
 62
7
100
AcDbSpline
 70
8
 71
3
 72
8
 73
4
 74
0
 40
0
 40
0
 40
0
 40
0
 40
1
 40
1
 40
1
 40
1
 10
181.120000
 20
441.120000
 30
0.0
 10
181.120000
 20
438.160000
 30
0.0
 10
177.440000
 20
434.400000
 30
0.0
 10
173.360000
 20
433.200000
 30
0.0
  0
SPLINE
  5
12a
100
AcDbEntity
  8
0
 62
7
100
AcDbSpline
 70
8
 71
3
 72
8
 73
4
 74
0
 40
0
 40
0
 40
0
 40
0
 40
1
 40
1
 40
1
 40
1
 10
173.360000
 20
433.200000
 30
0.0
 10
171.600000
 20
432.720000
 30
0.0
 10
169.200000
 20
431.360000
 30
0.0
 10
168.080000
 20
430.160000
 30
0.0
  0
SPLINE
  5
12b
100
AcDbEntity
  8
0
 62
7
100
AcDbSpline
 70
8
 71
3
 72
8
 73
4
 74
0
 40
0
 40
0
 40
0
 40
0
 40
1
 40
1
 40
1
 40
1
 10
168.080000
 20
430.160000
 30
0.0
 10
166.960000
 20
428.960000
 30
0.0
 10
164.720000
 20
427.760000
 30
0.0
 10
162.960000
 20
427.520000
 30
0.0
  0
SPLINE
  5
12c
100
AcDbEntity
  8
0
 62
7
100
AcDbSpline
 70
8
 71
3
 72
8
 73
4
 74
0
 40
0
 40
0
 40
0
 40
0
 40
1
 40
1
 40
1
 40
1
 10
162.960000
 20
427.520000
 30
0.0
 10
161.280000
 20
427.200000
 30
0.0
 10
159.600000
 20
426.560000
 30
0.0
 10
159.200000
 20
426.000000
 30
0.0
  0
SPLINE
  5
12d
100
AcDbEntity
  8
0
 62
7
100
AcDbSpline
 70
8
 71
3
 72
8
 73
4
 74
0
 40
0
 40
0
 40
0
 40
0
 40
1
 40
1
 40
1
 40
1
 10
159.200000
 20
426.000000
 30
0.0
 10
158.800000
 20
425.440000
 30
0.0
 10
156.880000
 20
423.920000
 30
0.0
 10
154.960000
 20
422.560000
 30
0.0
  0
SPLINE
  5
12e
100
AcDbEntity
  8
0
 62
7
100
AcDbSpline
 70
8
 71
3
 72
8
 73
4
 74
0
 40
0
 40
0
 40
0
 40
0
 40
1
 40
1
 40
1
 40
1
 10
154.960000
 20
422.560000
 30
0.0
 10
150.560000
 20
419.520000
 30
0.0
 10
146.400000
 20
419.360000
 30
0.0
 10
134.160000
 20
422.080000
 30
0.0
  0
SPLINE
  5
12f
100
AcDbEntity
  8
0
 62
7
100
AcDbSpline
 70
8
 71
3
 72
8
 73
4
 74
0
 40
0
 40
0
 40
0
 40
0
 40
1
 40
1
 40
1
 40
1
 10
134.160000
 20
422.080000
 30
0.0
 10
129.520000
 20
423.040000
 30
0.0
 10
123.680000
 20
423.920000
 30
0.0
 10
121.280000
 20
423.920000
 30
0.0
  0
SPLINE
  5
130
100
AcDbEntity
  8
0
 62
7
100
AcDbSpline
 70
8
 71
3
 72
8
 73
4
 74
0
 40
0
 40
0
 40
0
 40
0
 40
1
 40
1
 40
1
 40
1
 10
121.280000
 20
423.920000
 30
0.0
 10
118.240000
 20
423.920000
 30
0.0
 10
115.280000
 20
424.640000
 30
0.0
 10
111.920000
 20
426.080000
 30
0.0
  0
SPLINE
  5
131
100
AcDbEntity
  8
0
 62
7
100
AcDbSpline
 70
8
 71
3
 72
8
 73
4
 74
0
 40
0
 40
0
 40
0
 40
0
 40
1
 40
1
 40
1
 40
1
 10
111.920000
 20
426.080000
 30
0.0
 10
105.520000
 20
428.960000
 30
0.0
 10
104.640000
 20
431.120000
 30
0.0
 10
105.840000
 20
441.200000
 30
0.0
  0
SPLINE
  5
132
100
AcDbEntity
  8
0
 62
7
100
AcDbSpline
 70
8
 71
3
 72
8
 73
4
 74
0
 40
0
 40
0
 40
0
 40
0
 40
1
 40
1
 40
1
 40
1
 10
105.840000
 20
441.200000
 30
0.0
 10
106.400000
 20
446.160000
 30
0.0
 10
106.400000
 20
454.960000
 30
0.0
 10
105.760000
 20
468.560000
 30
0.0
  0
SPLINE
  5
133
100
AcDbEntity
  8
0
 62
7
100
AcDbSpline
 70
8
 71
3
 72
8
 73
4
 74
0
 40
0
 40
0
 40
0
 40
0
 40
1
 40
1
 40
1
 40
1
 10
105.760000
 20
468.560000
 30
0.0
 10
104.800000
 20
487.600000
 30
0.0
 10
104.880000
 20
488.960000
 30
0.0
 10
106.480000
 20
494.320000
 30
0.0
  0
SPLINE
  5
134
100
AcDbEntity
  8
0
 62
7
100
AcDbSpline
 70
8
 71
3
 72
8
 73
4
 74
0
 40
0
 40
0
 40
0
 40
0
 40
1
 40
1
 40
1
 40
1
 10
106.480000
 20
494.320000
 30
0.0
 10
108.800000
 20
502.080000
 30
0.0
 10
109.040000
 20
503.520000
 30
0.0
 10
110.560000
 20
518.720000
 30
0.0
  0
SPLINE
  5
135
100
AcDbEntity
  8
0
 62
7
100
AcDbSpline
 70
8
 71
3
 72
8
 73
4
 74
0
 40
0
 40
0
 40
0
 40
0
 40
1
 40
1
 40
1
 40
1
 10
110.560000
 20
518.720000
 30
0.0
 10
111.280000
 20
526.080000
 30
0.0
 10
112.480000
 20
534.320000
 30
0.0
 10
113.200000
 20
537.120000
 30
0.0
  0
SPLINE
  5
136
100
AcDbEntity
  8
0
 62
7
100
AcDbSpline
 70
8
 71
3
 72
8
 73
4
 74
0
 40
0
 40
0
 40
0
 40
0
 40
1
 40
1
 40
1
 40
1
 10
113.200000
 20
537.120000
 30
0.0
 10
113.920000
 20
539.840000
 30
0.0
 10
114.800000
 20
546.160000
 30
0.0
 10
115.120000
 20
551.120000
 30
0.0
  0
SPLINE
  5
137
100
AcDbEntity
  8
0
 62
7
100
AcDbSpline
 70
8
 71
3
 72
8
 73
4
 74
0
 40
0
 40
0
 40
0
 40
0
 40
1
 40
1
 40
1
 40
1
 10
115.120000
 20
551.120000
 30
0.0
 10
115.760000
 20
560.960000
 30
0.0
 10
118.240000
 20
572.640000
 30
0.0
 10
120.240000
 20
575.440000
 30
0.0
  0
SPLINE
  5
138
100
AcDbEntity
  8
0
 62
7
100
AcDbSpline
 70
8
 71
3
 72
8
 73
4
 74
0
 40
0
 40
0
 40
0
 40
0
 40
1
 40
1
 40
1
 40
1
 10
120.240000
 20
575.440000
 30
0.0
 10
120.960000
 20
576.480000
 30
0.0
 10
121.520000
 20
578.160000
 30
0.0
 10
121.520000
 20
579.360000
 30
0.0
  0
SPLINE
  5
139
100
AcDbEntity
  8
0
 62
7
100
AcDbSpline
 70
8
 71
3
 72
8
 73
4
 74
0
 40
0
 40
0
 40
0
 40
0
 40
1
 40
1
 40
1
 40
1
 10
121.520000
 20
579.360000
 30
0.0
 10
121.520000
 20
581.920000
 30
0.0
 10
128.080000
 20
592.720000
 30
0.0
 10
131.760000
 20
596.160000
 30
0.0
  0
SPLINE
  5
13a
100
AcDbEntity
  8
0
 62
7
100
AcDbSpline
 70
8
 71
3
 72
8
 73
4
 74
0
 40
0
 40
0
 40
0
 40
0
 40
1
 40
1
 40
1
 40
1
 10
131.760000
 20
596.160000
 30
0.0
 10
133.280000
 20
597.600000
 30
0.0
 10
135.200000
 20
598.720000
 30
0.0
 10
136.080000
 20
598.720000
 30
0.0
  0
SPLINE
  5
13b
100
AcDbEntity
  8
0
 62
7
100
AcDbSpline
 70
8
 71
3
 72
8
 73
4
 74
0
 40
0
 40
0
 40
0
 40
0
 40
1
 40
1
 40
1
 40
1
 10
136.080000
 20
598.720000
 30
0.0
 10
138.240000
 20
598.720000
 30
0.0
 10
139.440000
 20
601.680000
 30
0.0
 10
139.440000
 20
607.120000
 30
0.0
  0
SPLINE
  5
13c
100
AcDbEntity
  8
0
 62
7
100
AcDbSpline
 70
8
 71
3
 72
8
 73
4
 74
0
 40
0
 40
0
 40
0
 40
0
 40
1
 40
1
 40
1
 40
1
 10
139.440000
 20
607.120000
 30
0.0
 10
139.520000
 20
614.480000
 30
0.0
 10
140.960000
 20
621.120000
 30
0.0
 10
143.600000
 20
626.240000
 30
0.0
  0
SPLINE
  5
13d
100
AcDbEntity
  8
0
 62
7
100
AcDbSpline
 70
8
 71
3
 72
8
 73
4
 74
0
 40
0
 40
0
 40
0
 40
0
 40
1
 40
1
 40
1
 40
1
 10
143.600000
 20
626.240000
 30
0.0
 10
146.080000
 20
630.880000
 30
0.0
 10
146.160000
 20
631.600000
 30
0.0
 10
146.400000
 20
644.320000
 30
0.0
  0
SPLINE
  5
13e
100
AcDbEntity
  8
0
 62
7
100
AcDbSpline
 70
8
 71
3
 72
8
 73
4
 74
0
 40
0
 40
0
 40
0
 40
0
 40
1
 40
1
 40
1
 40
1
 10
146.400000
 20
644.320000
 30
0.0
 10
146.880000
 20
677.280000
 30
0.0
 10
155.600000
 20
695.920000
 30
0.0
 10
174.160000
 20
703.920000
 30
0.0
  0
SPLINE
  5
13f
100
AcDbEntity
  8
0
 62
7
100
AcDbSpline
 70
8
 71
3
 72
8
 73
4
 74
0
 40
0
 40
0
 40
0
 40
0
 40
1
 40
1
 40
1
 40
1
 10
174.160000
 20
703.920000
 30
0.0
 10
180.320000
 20
706.640000
 30
0.0
 10
181.680000
 20
706.720000
 30
0.0
 10
199.200000
 20
706.000000
 30
0.0
  0
SPLINE
  5
140
100
AcDbEntity
  8
0
 62
7
100
AcDbSpline
 70
8
 71
3
 72
8
 73
4
 74
0
 40
0
 40
0
 40
0
 40
0
 40
1
 40
1
 40
1
 40
1
 10
199.200000
 20
706.000000
 30
0.0
 10
209.520000
 20
705.600000
 30
0.0
 10
209.760000
 20
705.600000
 30
0.0
 10
208.320000
 20
707.040000
 30
0.0
  0
SPLINE
  5
141
100
AcDbEntity
  8
0
 62
7
100
AcDbSpline
 70
8
 71
3
 72
8
 73
4
 74
0
 40
0
 40
0
 40
0
 40
0
 40
1
 40
1
 40
1
 40
1
 10
208.320000
 20
707.040000
 30
0.0
 10
207.520000
 20
707.840000
 30
0.0
 10
206.800000
 20
709.200000
 30
0.0
 10
206.800000
 20
710.160000
 30
0.0
  0
SPLINE
  5
142
100
AcDbEntity
  8
0
 62
7
100
AcDbSpline
 70
8
 71
3
 72
8
 73
4
 74
0
 40
0
 40
0
 40
0
 40
0
 40
1
 40
1
 40
1
 40
1
 10
206.800000
 20
710.160000
 30
0.0
 10
206.800000
 20
712.560000
 30
0.0
 10
210.640000
 20
718.960000
 30
0.0
 10
214.080000
 20
722.400000
 30
0.0
  0
SPLINE
  5
143
100
AcDbEntity
  8
0
 62
7
100
AcDbSpline
 70
8
 71
3
 72
8
 73
4
 74
0
 40
0
 40
0
 40
0
 40
0
 40
1
 40
1
 40
1
 40
1
 10
214.080000
 20
722.400000
 30
0.0
 10
217.360000
 20
725.680000
 30
0.0
 10
231.840000
 20
734.320000
 30
0.0
 10
238.720000
 20
737.040000
 30
0.0
  0
SPLINE
  5
144
100
AcDbEntity
  8
0
 62
7
100
AcDbSpline
 70
8
 71
3
 72
8
 73
4
 74
0
 40
0
 40
0
 40
0
 40
0
 40
1
 40
1
 40
1
 40
1
 10
238.720000
 20
737.040000
 30
0.0
 10
246.320000
 20
740.160000
 30
0.0
 10
260.080000
 20
744.400000
 30
0.0
 10
264.240000
 20
744.960000
 30
0.0
  0
SPLINE
  5
145
100
AcDbEntity
  8
0
 62
7
100
AcDbSpline
 70
8
 71
3
 72
8
 73
4
 74
0
 40
0
 40
0
 40
0
 40
0
 40
1
 40
1
 40
1
 40
1
 10
264.240000
 20
744.960000
 30
0.0
 10
268.320000
 20
745.600000
 30
0.0
 10
268.800000
 20
746.400000
 30
0.0
 10
266.560000
 20
748.640000
 30
0.0
  0
SPLINE
  5
146
100
AcDbEntity
  8
0
 62
7
100
AcDbSpline
 70
8
 71
3
 72
8
 73
4
 74
0
 40
0
 40
0
 40
0
 40
0
 40
1
 40
1
 40
1
 40
1
 10
266.560000
 20
748.640000
 30
0.0
 10
265.760000
 20
749.440000
 30
0.0
 10
264.960000
 20
751.840000
 30
0.0
 10
264.720000
 20
754.160000
 30
0.0
  0
SPLINE
  5
147
100
AcDbEntity
  8
0
 62
7
100
AcDbSpline
 70
8
 71
3
 72
8
 73
4
 74
0
 40
0
 40
0
 40
0
 40
0
 40
1
 40
1
 40
1
 40
1
 10
264.720000
 20
754.160000
 30
0.0
 10
264.560000
 20
756.400000
 30
0.0
 10
263.760000
 20
761.280000
 30
0.0
 10
263.040000
 20
764.880000
 30
0.0
  0
SPLINE
  5
148
100
AcDbEntity
  8
0
 62
7
100
AcDbSpline
 70
8
 71
3
 72
8
 73
4
 74
0
 40
0
 40
0
 40
0
 40
0
 40
1
 40
1
 40
1
 40
1
 10
263.040000
 20
764.880000
 30
0.0
 10
262.240000
 20
768.560000
 30
0.0
 10
261.440000
 20
773.200000
 30
0.0
 10
261.200000
 20
775.280000
 30
0.0
  0
SPLINE
  5
149
100
AcDbEntity
  8
0
 62
7
100
AcDbSpline
 70
8
 71
3
 72
8
 73
4
 74
0
 40
0
 40
0
 40
0
 40
0
 40
1
 40
1
 40
1
 40
1
 10
261.200000
 20
775.280000
 30
0.0
 10
260.800000
 20
777.840000
 30
0.0
 10
260.320000
 20
778.960000
 30
0.0
 10
259.360000
 20
778.960000
 30
0.0
  0
SPLINE
  5
14a
100
AcDbEntity
  8
0
 62
7
100
AcDbSpline
 70
8
 71
3
 72
8
 73
4
 74
0
 40
0
 40
0
 40
0
 40
0
 40
1
 40
1
 40
1
 40
1
 10
259.360000
 20
778.960000
 30
0.0
 10
258.240000
 20
778.960000
 30
0.0
 10
258.160000
 20
779.600000
 30
0.0
 10
258.720000
 20
782.640000
 30
0.0
  0
SPLINE
  5
14b
100
AcDbEntity
  8
0
 62
7
100
AcDbSpline
 70
8
 71
3
 72
8
 73
4
 74
0
 40
0
 40
0
 40
0
 40
0
 40
1
 40
1
 40
1
 40
1
 10
258.720000
 20
782.640000
 30
0.0
 10
259.040000
 20
784.720000
 30
0.0
 10
259.600000
 20
788.160000
 30
0.0
 10
260.000000
 20
790.240000
 30
0.0
  0
SPLINE
  5
14c
100
AcDbEntity
  8
0
 62
7
100
AcDbSpline
 70
8
 71
3
 72
8
 73
4
 74
0
 40
0
 40
0
 40
0
 40
0
 40
1
 40
1
 40
1
 40
1
 10
260.000000
 20
790.240000
 30
0.0
 10
260.720000
 20
794.880000
 30
0.0
 10
266.640000
 20
805.520000
 30
0.0
 10
268.480000
 20
805.520000
 30
0.0
  0
SPLINE
  5
14d
100
AcDbEntity
  8
0
 62
7
100
AcDbSpline
 70
8
 71
3
 72
8
 73
4
 74
0
 40
0
 40
0
 40
0
 40
0
 40
1
 40
1
 40
1
 40
1
 10
268.480000
 20
805.520000
 30
0.0
 10
269.360000
 20
805.520000
 30
0.0
 10
269.760000
 20
806.320000
 30
0.0
 10
269.760000
 20
807.840000
 30
0.0
  0
SPLINE
  5
14e
100
AcDbEntity
  8
0
 62
7
100
AcDbSpline
 70
8
 71
3
 72
8
 73
4
 74
0
 40
0
 40
0
 40
0
 40
0
 40
1
 40
1
 40
1
 40
1
 10
269.760000
 20
807.840000
 30
0.0
 10
269.760000
 20
809.600000
 30
0.0
 10
270.160000
 20
810.160000
 30
0.0
 10
271.440000
 20
810.160000
 30
0.0
  0
SPLINE
  5
14f
100
AcDbEntity
  8
0
 62
7
100
AcDbSpline
 70
8
 71
3
 72
8
 73
4
 74
0
 40
0
 40
0
 40
0
 40
0
 40
1
 40
1
 40
1
 40
1
 10
271.440000
 20
810.160000
 30
0.0
 10
273.120000
 20
810.160000
 30
0.0
 10
276.000000
 20
812.480000
 30
0.0
 10
276.000000
 20
813.840000
 30
0.0
  0
SPLINE
  5
150
100
AcDbEntity
  8
0
 62
7
100
AcDbSpline
 70
8
 71
3
 72
8
 73
4
 74
0
 40
0
 40
0
 40
0
 40
0
 40
1
 40
1
 40
1
 40
1
 10
276.000000
 20
813.840000
 30
0.0
 10
276.000000
 20
815.040000
 30
0.0
 10
278.240000
 20
815.680000
 30
0.0
 10
279.360000
 20
814.720000
 30
0.0
  0
SPLINE
  5
151
100
AcDbEntity
  8
0
 62
7
100
AcDbSpline
 70
8
 71
3
 72
8
 73
4
 74
0
 40
0
 40
0
 40
0
 40
0
 40
1
 40
1
 40
1
 40
1
 10
279.360000
 20
814.720000
 30
0.0
 10
280.000000
 20
814.160000
 30
0.0
 10
280.560000
 20
814.400000
 30
0.0
 10
281.280000
 20
815.600000
 30
0.0
  0
SPLINE
  5
152
100
AcDbEntity
  8
0
 62
7
100
AcDbSpline
 70
8
 71
3
 72
8
 73
4
 74
0
 40
0
 40
0
 40
0
 40
0
 40
1
 40
1
 40
1
 40
1
 10
281.280000
 20
815.600000
 30
0.0
 10
282.000000
 20
816.720000
 30
0.0
 10
282.800000
 20
817.120000
 30
0.0
 10
284.000000
 20
816.800000
 30
0.0
  0
SPLINE
  5
153
100
AcDbEntity
  8
0
 62
7
100
AcDbSpline
 70
8
 71
3
 72
8
 73
4
 74
0
 40
0
 40
0
 40
0
 40
0
 40
1
 40
1
 40
1
 40
1
 10
284.000000
 20
816.800000
 30
0.0
 10
285.040000
 20
816.480000
 30
0.0
 10
286.400000
 20
816.880000
 30
0.0
 10
287.680000
 20
817.920000
 30
0.0
  0
SPLINE
  5
154
100
AcDbEntity
  8
0
 62
7
100
AcDbSpline
 70
8
 71
3
 72
8
 73
4
 74
0
 40
0
 40
0
 40
0
 40
0
 40
1
 40
1
 40
1
 40
1
 10
287.680000
 20
817.920000
 30
0.0
 10
288.800000
 20
818.800000
 30
0.0
 10
290.160000
 20
819.440000
 30
0.0
 10
290.720000
 20
819.200000
 30
0.0
  0
SPLINE
  5
155
100
AcDbEntity
  8
0
 62
7
100
AcDbSpline
 70
8
 71
3
 72
8
 73
4
 74
0
 40
0
 40
0
 40
0
 40
0
 40
1
 40
1
 40
1
 40
1
 10
290.720000
 20
819.200000
 30
0.0
 10
291.360000
 20
819.040000
 30
0.0
 10
292.320000
 20
819.360000
 30
0.0
 10
292.960000
 20
820.000000
 30
0.0
  0
SPLINE
  5
156
100
AcDbEntity
  8
0
 62
7
100
AcDbSpline
 70
8
 71
3
 72
8
 73
4
 74
0
 40
0
 40
0
 40
0
 40
0
 40
1
 40
1
 40
1
 40
1
 10
292.960000
 20
820.000000
 30
0.0
 10
293.520000
 20
820.640000
 30
0.0
 10
295.200000
 20
821.760000
 30
0.0
 10
296.640000
 20
822.400000
 30
0.0
  0
SPLINE
  5
157
100
AcDbEntity
  8
0
 62
7
100
AcDbSpline
 70
8
 71
3
 72
8
 73
4
 74
0
 40
0
 40
0
 40
0
 40
0
 40
1
 40
1
 40
1
 40
1
 10
296.640000
 20
822.400000
 30
0.0
 10
299.280000
 20
823.600000
 30
0.0
 10
299.280000
 20
823.520000
 30
0.0
 10
298.880000
 20
821.680000
 30
0.0
  0
SPLINE
  5
158
100
AcDbEntity
  8
0
 62
7
100
AcDbSpline
 70
8
 71
3
 72
8
 73
4
 74
0
 40
0
 40
0
 40
0
 40
0
 40
1
 40
1
 40
1
 40
1
 10
298.880000
 20
821.680000
 30
0.0
 10
298.480000
 20
819.920000
 30
0.0
 10
298.800000
 20
819.680000
 30
0.0
 10
301.920000
 20
819.280000
 30
0.0
  0
SPLINE
  5
159
100
AcDbEntity
  8
0
 62
7
100
AcDbSpline
 70
8
 71
3
 72
8
 73
4
 74
0
 40
0
 40
0
 40
0
 40
0
 40
1
 40
1
 40
1
 40
1
 10
301.920000
 20
819.280000
 30
0.0
 10
303.840000
 20
819.040000
 30
0.0
 10
306.160000
 20
818.240000
 30
0.0
 10
307.120000
 20
817.520000
 30
0.0
  0
SPLINE
  5
15a
100
AcDbEntity
  8
0
 62
7
100
AcDbSpline
 70
8
 71
3
 72
8
 73
4
 74
0
 40
0
 40
0
 40
0
 40
0
 40
1
 40
1
 40
1
 40
1
 10
307.120000
 20
817.520000
 30
0.0
 10
308.640000
 20
816.320000
 30
0.0
 10
309.040000
 20
816.240000
 30
0.0
 10
309.680000
 20
817.200000
 30
0.0
  0
SPLINE
  5
15b
100
AcDbEntity
  8
0
 62
7
100
AcDbSpline
 70
8
 71
3
 72
8
 73
4
 74
0
 40
0
 40
0
 40
0
 40
0
 40
1
 40
1
 40
1
 40
1
 10
309.680000
 20
817.200000
 30
0.0
 10
310.160000
 20
817.840000
 30
0.0
 10
310.560000
 20
818.560000
 30
0.0
 10
310.560000
 20
818.880000
 30
0.0
  0
SPLINE
  5
15c
100
AcDbEntity
  8
0
 62
7
100
AcDbSpline
 70
8
 71
3
 72
8
 73
4
 74
0
 40
0
 40
0
 40
0
 40
0
 40
1
 40
1
 40
1
 40
1
 10
310.560000
 20
818.880000
 30
0.0
 10
310.560000
 20
819.120000
 30
0.0
 10
311.120000
 20
819.600000
 30
0.0
 10
311.840000
 20
819.840000
 30
0.0
  0
SPLINE
  5
15d
100
AcDbEntity
  8
0
 62
7
100
AcDbSpline
 70
8
 71
3
 72
8
 73
4
 74
0
 40
0
 40
0
 40
0
 40
0
 40
1
 40
1
 40
1
 40
1
 10
311.840000
 20
819.840000
 30
0.0
 10
312.880000
 20
820.160000
 30
0.0
 10
312.960000
 20
819.840000
 30
0.0
 10
312.320000
 20
818.240000
 30
0.0
  0
SPLINE
  5
15e
100
AcDbEntity
  8
0
 62
7
100
AcDbSpline
 70
8
 71
3
 72
8
 73
4
 74
0
 40
0
 40
0
 40
0
 40
0
 40
1
 40
1
 40
1
 40
1
 10
312.320000
 20
818.240000
 30
0.0
 10
311.200000
 20
815.760000
 30
0.0
 10
312.000000
 20
814.640000
 30
0.0
 10
314.240000
 20
815.280000
 30
0.0
  0
SPLINE
  5
15f
100
AcDbEntity
  8
0
 62
7
100
AcDbSpline
 70
8
 71
3
 72
8
 73
4
 74
0
 40
0
 40
0
 40
0
 40
0
 40
1
 40
1
 40
1
 40
1
 10
314.240000
 20
815.280000
 30
0.0
 10
315.200000
 20
815.520000
 30
0.0
 10
316.560000
 20
815.360000
 30
0.0
 10
317.200000
 20
814.800000
 30
0.0
  0
SPLINE
  5
160
100
AcDbEntity
  8
0
 62
7
100
AcDbSpline
 70
8
 71
3
 72
8
 73
4
 74
0
 40
0
 40
0
 40
0
 40
0
 40
1
 40
1
 40
1
 40
1
 10
317.200000
 20
814.800000
 30
0.0
 10
317.920000
 20
814.320000
 30
0.0
 10
320.240000
 20
814.000000
 30
0.0
 10
322.480000
 20
814.160000
 30
0.0
  0
SPLINE
  5
161
100
AcDbEntity
  8
0
 62
7
100
AcDbSpline
 70
8
 71
3
 72
8
 73
4
 74
0
 40
0
 40
0
 40
0
 40
0
 40
1
 40
1
 40
1
 40
1
 10
322.480000
 20
814.160000
 30
0.0
 10
326.560000
 20
814.480000
 30
0.0
 10
327.200000
 20
814.240000
 30
0.0
 10
325.680000
 20
812.880000
 30
0.0
  0
SPLINE
  5
162
100
AcDbEntity
  8
0
 62
7
100
AcDbSpline
 70
8
 71
3
 72
8
 73
4
 74
0
 40
0
 40
0
 40
0
 40
0
 40
1
 40
1
 40
1
 40
1
 10
325.680000
 20
812.880000
 30
0.0
 10
325.280000
 20
812.480000
 30
0.0
 10
324.800000
 20
811.280000
 30
0.0
 10
324.640000
 20
810.160000
 30
0.0
  0
SPLINE
  5
163
100
AcDbEntity
  8
0
 62
7
100
AcDbSpline
 70
8
 71
3
 72
8
 73
4
 74
0
 40
0
 40
0
 40
0
 40
0
 40
1
 40
1
 40
1
 40
1
 10
324.640000
 20
810.160000
 30
0.0
 10
324.400000
 20
808.640000
 30
0.0
 10
324.720000
 20
808.160000
 30
0.0
 10
326.320000
 20
808.000000
 30
0.0
  0
SPLINE
  5
164
100
AcDbEntity
  8
0
 62
7
100
AcDbSpline
 70
8
 71
3
 72
8
 73
4
 74
0
 40
0
 40
0
 40
0
 40
0
 40
1
 40
1
 40
1
 40
1
 10
326.320000
 20
808.000000
 30
0.0
 10
328.400000
 20
807.680000
 30
0.0
 10
331.840000
 20
802.640000
 30
0.0
 10
331.840000
 20
799.920000
 30
0.0
  0
SPLINE
  5
165
100
AcDbEntity
  8
0
 62
7
100
AcDbSpline
 70
8
 71
3
 72
8
 73
4
 74
0
 40
0
 40
0
 40
0
 40
0
 40
1
 40
1
 40
1
 40
1
 10
331.840000
 20
799.920000
 30
0.0
 10
331.840000
 20
799.200000
 30
0.0
 10
332.240000
 20
798.320000
 30
0.0
 10
332.720000
 20
798.080000
 30
0.0
  0
SPLINE
  5
166
100
AcDbEntity
  8
0
 62
7
100
AcDbSpline
 70
8
 71
3
 72
8
 73
4
 74
0
 40
0
 40
0
 40
0
 40
0
 40
1
 40
1
 40
1
 40
1
 10
332.720000
 20
798.080000
 30
0.0
 10
333.200000
 20
797.840000
 30
0.0
 10
334.400000
 20
796.000000
 30
0.0
 10
335.360000
 20
794.080000
 30
0.0
  0
SPLINE
  5
167
100
AcDbEntity
  8
0
 62
7
100
AcDbSpline
 70
8
 71
3
 72
8
 73
4
 74
0
 40
0
 40
0
 40
0
 40
0
 40
1
 40
1
 40
1
 40
1
 10
335.360000
 20
794.080000
 30
0.0
 10
337.360000
 20
790.080000
 30
0.0
 10
338.560000
 20
778.160000
 30
0.0
 10
336.960000
 20
778.160000
 30
0.0
  0
SPLINE
  5
168
100
AcDbEntity
  8
0
 62
7
100
AcDbSpline
 70
8
 71
3
 72
8
 73
4
 74
0
 40
0
 40
0
 40
0
 40
0
 40
1
 40
1
 40
1
 40
1
 10
336.960000
 20
778.160000
 30
0.0
 10
336.400000
 20
778.160000
 30
0.0
 10
336.240000
 20
776.800000
 30
0.0
 10
336.480000
 20
774.720000
 30
0.0
  0
SPLINE
  5
169
100
AcDbEntity
  8
0
 62
7
100
AcDbSpline
 70
8
 71
3
 72
8
 73
4
 74
0
 40
0
 40
0
 40
0
 40
0
 40
1
 40
1
 40
1
 40
1
 10
336.480000
 20
774.720000
 30
0.0
 10
336.800000
 20
772.560000
 30
0.0
 10
336.560000
 20
771.120000
 30
0.0
 10
336.000000
 20
770.960000
 30
0.0
  0
SPLINE
  5
16a
100
AcDbEntity
  8
0
 62
7
100
AcDbSpline
 70
8
 71
3
 72
8
 73
4
 74
0
 40
0
 40
0
 40
0
 40
0
 40
1
 40
1
 40
1
 40
1
 10
336.000000
 20
770.960000
 30
0.0
 10
335.120000
 20
770.720000
 30
0.0
 10
333.760000
 20
764.400000
 30
0.0
 10
332.160000
 20
753.600000
 30
0.0
  0
SPLINE
  5
16b
100
AcDbEntity
  8
0
 62
7
100
AcDbSpline
 70
8
 71
3
 72
8
 73
4
 74
0
 40
0
 40
0
 40
0
 40
0
 40
1
 40
1
 40
1
 40
1
 10
332.160000
 20
753.600000
 30
0.0
 10
331.840000
 20
751.360000
 30
0.0
 10
330.880000
 20
748.960000
 30
0.0
 10
329.840000
 20
747.920000
 30
0.0
  0
SPLINE
  5
16c
100
AcDbEntity
  8
0
 62
7
100
AcDbSpline
 70
8
 71
3
 72
8
 73
4
 74
0
 40
0
 40
0
 40
0
 40
0
 40
1
 40
1
 40
1
 40
1
 10
329.840000
 20
747.920000
 30
0.0
 10
328.800000
 20
746.960000
 30
0.0
 10
328.160000
 20
746.080000
 30
0.0
 10
328.400000
 20
745.920000
 30
0.0
  0
SPLINE
  5
16d
100
AcDbEntity
  8
0
 62
7
100
AcDbSpline
 70
8
 71
3
 72
8
 73
4
 74
0
 40
0
 40
0
 40
0
 40
0
 40
1
 40
1
 40
1
 40
1
 10
328.400000
 20
745.920000
 30
0.0
 10
328.560000
 20
745.760000
 30
0.0
 10
331.120000
 20
745.200000
 30
0.0
 10
334.080000
 20
744.640000
 30
0.0
  0
SPLINE
  5
16e
100
AcDbEntity
  8
0
 62
7
100
AcDbSpline
 70
8
 71
3
 72
8
 73
4
 74
0
 40
0
 40
0
 40
0
 40
0
 40
1
 40
1
 40
1
 40
1
 10
334.080000
 20
744.640000
 30
0.0
 10
344.240000
 20
742.720000
 30
0.0
 10
361.200000
 20
736.320000
 30
0.0
 10
370.480000
 20
730.880000
 30
0.0
  0
SPLINE
  5
16f
100
AcDbEntity
  8
0
 62
7
100
AcDbSpline
 70
8
 71
3
 72
8
 73
4
 74
0
 40
0
 40
0
 40
0
 40
0
 40
1
 40
1
 40
1
 40
1
 10
370.480000
 20
730.880000
 30
0.0
 10
375.360000
 20
728.080000
 30
0.0
 10
380.560000
 20
724.640000
 30
0.0
 10
382.080000
 20
723.280000
 30
0.0
  0
SPLINE
  5
170
100
AcDbEntity
  8
0
 62
7
100
AcDbSpline
 70
8
 71
3
 72
8
 73
4
 74
0
 40
0
 40
0
 40
0
 40
0
 40
1
 40
1
 40
1
 40
1
 10
382.080000
 20
723.280000
 30
0.0
 10
385.840000
 20
720.080000
 30
0.0
 10
391.280000
 20
712.080000
 30
0.0
 10
391.280000
 20
709.760000
 30
0.0
  0
SPLINE
  5
171
100
AcDbEntity
  8
0
 62
7
100
AcDbSpline
 70
8
 71
3
 72
8
 73
4
 74
0
 40
0
 40
0
 40
0
 40
0
 40
1
 40
1
 40
1
 40
1
 10
391.280000
 20
709.760000
 30
0.0
 10
391.280000
 20
708.080000
 30
0.0
 10
391.600000
 20
708.000000
 30
0.0
 10
397.680000
 20
708.000000
 30
0.0
  0
SPLINE
  5
172
100
AcDbEntity
  8
0
 62
7
100
AcDbSpline
 70
8
 71
3
 72
8
 73
4
 74
0
 40
0
 40
0
 40
0
 40
0
 40
1
 40
1
 40
1
 40
1
 10
397.680000
 20
708.000000
 30
0.0
 10
407.440000
 20
708.000000
 30
0.0
 10
418.880000
 20
706.080000
 30
0.0
 10
424.240000
 20
703.520000
 30
0.0
  0
SPLINE
  5
173
100
AcDbEntity
  8
0
 62
7
100
AcDbSpline
 70
8
 71
3
 72
8
 73
4
 74
0
 40
0
 40
0
 40
0
 40
0
 40
1
 40
1
 40
1
 40
1
 10
424.240000
 20
703.520000
 30
0.0
 10
436.000000
 20
697.920000
 30
0.0
 10
443.600000
 20
687.600000
 30
0.0
 10
448.000000
 20
671.200000
 30
0.0
  0
SPLINE
  5
174
100
AcDbEntity
  8
0
 62
7
100
AcDbSpline
 70
8
 71
3
 72
8
 73
4
 74
0
 40
0
 40
0
 40
0
 40
0
 40
1
 40
1
 40
1
 40
1
 10
448.000000
 20
671.200000
 30
0.0
 10
450.080000
 20
663.520000
 30
0.0
 10
451.600000
 20
641.520000
 30
0.0
 10
450.560000
 20
635.760000
 30
0.0
  0
SPLINE
  5
175
100
AcDbEntity
  8
0
 62
7
100
AcDbSpline
 70
8
 71
3
 72
8
 73
4
 74
0
 40
0
 40
0
 40
0
 40
0
 40
1
 40
1
 40
1
 40
1
 10
450.560000
 20
635.760000
 30
0.0
 10
450.080000
 20
633.360000
 30
0.0
 10
450.560000
 20
631.680000
 30
0.0
 10
452.960000
 20
627.280000
 30
0.0
  0
SPLINE
  5
176
100
AcDbEntity
  8
0
 62
7
100
AcDbSpline
 70
8
 71
3
 72
8
 73
4
 74
0
 40
0
 40
0
 40
0
 40
0
 40
1
 40
1
 40
1
 40
1
 10
452.960000
 20
627.280000
 30
0.0
 10
456.000000
 20
621.600000
 30
0.0
 10
457.680000
 20
614.320000
 30
0.0
 10
457.760000
 20
606.480000
 30
0.0
  0
SPLINE
  5
177
100
AcDbEntity
  8
0
 62
7
100
AcDbSpline
 70
8
 71
3
 72
8
 73
4
 74
0
 40
0
 40
0
 40
0
 40
0
 40
1
 40
1
 40
1
 40
1
 10
457.760000
 20
606.480000
 30
0.0
 10
457.760000
 20
600.320000
 30
0.0
 10
458.320000
 20
599.280000
 30
0.0
 10
462.480000
 20
597.520000
 30
0.0
  0
SPLINE
  5
178
100
AcDbEntity
  8
0
 62
7
100
AcDbSpline
 70
8
 71
3
 72
8
 73
4
 74
0
 40
0
 40
0
 40
0
 40
0
 40
1
 40
1
 40
1
 40
1
 10
462.480000
 20
597.520000
 30
0.0
 10
465.440000
 20
596.320000
 30
0.0
 10
466.880000
 20
594.880000
 30
0.0
 10
469.920000
 20
590.160000
 30
0.0
  0
SPLINE
  5
179
100
AcDbEntity
  8
0
 62
7
100
AcDbSpline
 70
8
 71
3
 72
8
 73
4
 74
0
 40
0
 40
0
 40
0
 40
0
 40
1
 40
1
 40
1
 40
1
 10
469.920000
 20
590.160000
 30
0.0
 10
472.000000
 20
586.880000
 30
0.0
 10
474.400000
 20
582.320000
 30
0.0
 10
475.200000
 20
580.000000
 30
0.0
  0
SPLINE
  5
17a
100
AcDbEntity
  8
0
 62
7
100
AcDbSpline
 70
8
 71
3
 72
8
 73
4
 74
0
 40
0
 40
0
 40
0
 40
0
 40
1
 40
1
 40
1
 40
1
 10
475.200000
 20
580.000000
 30
0.0
 10
476.000000
 20
577.600000
 30
0.0
 10
477.200000
 20
574.560000
 30
0.0
 10
477.840000
 20
573.120000
 30
0.0
  0
SPLINE
  5
17b
100
AcDbEntity
  8
0
 62
7
100
AcDbSpline
 70
8
 71
3
 72
8
 73
4
 74
0
 40
0
 40
0
 40
0
 40
0
 40
1
 40
1
 40
1
 40
1
 10
477.840000
 20
573.120000
 30
0.0
 10
479.760000
 20
569.280000
 30
0.0
 10
481.440000
 20
560.320000
 30
0.0
 10
482.080000
 20
550.320000
 30
0.0
  0
SPLINE
  5
17c
100
AcDbEntity
  8
0
 62
7
100
AcDbSpline
 70
8
 71
3
 72
8
 73
4
 74
0
 40
0
 40
0
 40
0
 40
0
 40
1
 40
1
 40
1
 40
1
 10
482.080000
 20
550.320000
 30
0.0
 10
482.400000
 20
545.360000
 30
0.0
 10
483.280000
 20
539.200000
 30
0.0
 10
483.920000
 20
536.480000
 30
0.0
  0
SPLINE
  5
17d
100
AcDbEntity
  8
0
 62
7
100
AcDbSpline
 70
8
 71
3
 72
8
 73
4
 74
0
 40
0
 40
0
 40
0
 40
0
 40
1
 40
1
 40
1
 40
1
 10
483.920000
 20
536.480000
 30
0.0
 10
484.640000
 20
533.760000
 30
0.0
 10
486.000000
 20
524.480000
 30
0.0
 10
486.960000
 20
515.760000
 30
0.0
  0
SPLINE
  5
17e
100
AcDbEntity
  8
0
 62
7
100
AcDbSpline
 70
8
 71
3
 72
8
 73
4
 74
0
 40
0
 40
0
 40
0
 40
0
 40
1
 40
1
 40
1
 40
1
 10
486.960000
 20
515.760000
 30
0.0
 10
488.000000
 20
506.800000
 30
0.0
 10
489.520000
 20
497.680000
 30
0.0
 10
490.560000
 20
494.560000
 30
0.0
  0
SPLINE
  5
17f
100
AcDbEntity
  8
0
 62
7
100
AcDbSpline
 70
8
 71
3
 72
8
 73
4
 74
0
 40
0
 40
0
 40
0
 40
0
 40
1
 40
1
 40
1
 40
1
 10
490.560000
 20
494.560000
 30
0.0
 10
492.320000
 20
489.280000
 30
0.0
 10
492.320000
 20
488.320000
 30
0.0
 10
491.360000
 20
468.800000
 30
0.0
  0
SPLINE
  5
180
100
AcDbEntity
  8
0
 62
7
100
AcDbSpline
 70
8
 71
3
 72
8
 73
4
 74
0
 40
0
 40
0
 40
0
 40
0
 40
1
 40
1
 40
1
 40
1
 10
491.360000
 20
468.800000
 30
0.0
 10
490.720000
 20
454.480000
 30
0.0
 10
490.640000
 20
446.400000
 30
0.0
 10
491.360000
 20
441.280000
 30
0.0
  0
SPLINE
  5
181
100
AcDbEntity
  8
0
 62
7
100
AcDbSpline
 70
8
 71
3
 72
8
 73
4
 74
0
 40
0
 40
0
 40
0
 40
0
 40
1
 40
1
 40
1
 40
1
 10
491.360000
 20
441.280000
 30
0.0
 10
492.560000
 20
431.280000
 30
0.0
 10
491.680000
 20
428.960000
 30
0.0
 10
485.440000
 20
426.240000
 30
0.0
  0
SPLINE
  5
182
100
AcDbEntity
  8
0
 62
7
100
AcDbSpline
 70
8
 71
3
 72
8
 73
4
 74
0
 40
0
 40
0
 40
0
 40
0
 40
1
 40
1
 40
1
 40
1
 10
485.440000
 20
426.240000
 30
0.0
 10
482.000000
 20
424.720000
 30
0.0
 10
478.800000
 20
424.000000
 30
0.0
 10
473.440000
 20
423.680000
 30
0.0
  0
SPLINE
  5
183
100
AcDbEntity
  8
0
 62
7
100
AcDbSpline
 70
8
 71
3
 72
8
 73
4
 74
0
 40
0
 40
0
 40
0
 40
0
 40
1
 40
1
 40
1
 40
1
 10
473.440000
 20
423.680000
 30
0.0
 10
469.440000
 20
423.440000
 30
0.0
 10
464.480000
 20
422.720000
 30
0.0
 10
462.480000
 20
422.080000
 30
0.0
  0
SPLINE
  5
184
100
AcDbEntity
  8
0
 62
7
100
AcDbSpline
 70
8
 71
3
 72
8
 73
4
 74
0
 40
0
 40
0
 40
0
 40
0
 40
1
 40
1
 40
1
 40
1
 10
462.480000
 20
422.080000
 30
0.0
 10
460.480000
 20
421.440000
 30
0.0
 10
455.840000
 20
420.720000
 30
0.0
 10
452.240000
 20
420.400000
 30
0.0
  0
LINE
  5
185
100
AcDbEntity
  8
0
 62
7
100
AcDbLine
 10
452.240000
 20
420.400000
 30
0.0
 11
445.680000
 21
419.920000
 31
0.0
  0
LINE
  5
186
100
AcDbEntity
  8
0
 62
7
100
AcDbLine
 10
445.680000
 20
419.920000
 30
0.0
 11
441.760000
 21
422.800000
 31
0.0
  0
SPLINE
  5
187
100
AcDbEntity
  8
0
 62
7
100
AcDbSpline
 70
8
 71
3
 72
8
 73
4
 74
0
 40
0
 40
0
 40
0
 40
0
 40
1
 40
1
 40
1
 40
1
 10
441.760000
 20
422.800000
 30
0.0
 10
439.600000
 20
424.400000
 30
0.0
 10
437.600000
 20
425.920000
 30
0.0
 10
437.360000
 20
426.320000
 30
0.0
  0
SPLINE
  5
188
100
AcDbEntity
  8
0
 62
7
100
AcDbSpline
 70
8
 71
3
 72
8
 73
4
 74
0
 40
0
 40
0
 40
0
 40
0
 40
1
 40
1
 40
1
 40
1
 10
437.360000
 20
426.320000
 30
0.0
 10
437.120000
 20
426.640000
 30
0.0
 10
435.680000
 20
427.200000
 30
0.0
 10
434.240000
 20
427.440000
 30
0.0
  0
SPLINE
  5
189
100
AcDbEntity
  8
0
 62
7
100
AcDbSpline
 70
8
 71
3
 72
8
 73
4
 74
0
 40
0
 40
0
 40
0
 40
0
 40
1
 40
1
 40
1
 40
1
 10
434.240000
 20
427.440000
 30
0.0
 10
432.800000
 20
427.760000
 30
0.0
 10
430.400000
 20
429.040000
 30
0.0
 10
428.960000
 20
430.160000
 30
0.0
  0
SPLINE
  5
18a
100
AcDbEntity
  8
0
 62
7
100
AcDbSpline
 70
8
 71
3
 72
8
 73
4
 74
0
 40
0
 40
0
 40
0
 40
0
 40
1
 40
1
 40
1
 40
1
 10
428.960000
 20
430.160000
 30
0.0
 10
427.440000
 20
431.360000
 30
0.0
 10
424.880000
 20
432.880000
 30
0.0
 10
423.120000
 20
433.520000
 30
0.0
  0
SPLINE
  5
18b
100
AcDbEntity
  8
0
 62
7
100
AcDbSpline
 70
8
 71
3
 72
8
 73
4
 74
0
 40
0
 40
0
 40
0
 40
0
 40
1
 40
1
 40
1
 40
1
 10
423.120000
 20
433.520000
 30
0.0
 10
418.960000
 20
435.040000
 30
0.0
 10
416.080000
 20
438.320000
 30
0.0
 10
416.080000
 20
441.520000
 30
0.0
  0
SPLINE
  5
18c
100
AcDbEntity
  8
0
 62
7
100
AcDbSpline
 70
8
 71
3
 72
8
 73
4
 74
0
 40
0
 40
0
 40
0
 40
0
 40
1
 40
1
 40
1
 40
1
 10
416.080000
 20
441.520000
 30
0.0
 10
416.080000
 20
442.880000
 30
0.0
 10
417.040000
 20
446.720000
 30
0.0
 10
418.320000
 20
450.000000
 30
0.0
  0
SPLINE
  5
18d
100
AcDbEntity
  8
0
 62
7
100
AcDbSpline
 70
8
 71
3
 72
8
 73
4
 74
0
 40
0
 40
0
 40
0
 40
0
 40
1
 40
1
 40
1
 40
1
 10
418.320000
 20
450.000000
 30
0.0
 10
419.520000
 20
453.280000
 30
0.0
 10
420.480000
 20
456.960000
 30
0.0
 10
420.480000
 20
458.080000
 30
0.0
  0
SPLINE
  5
18e
100
AcDbEntity
  8
0
 62
7
100
AcDbSpline
 70
8
 71
3
 72
8
 73
4
 74
0
 40
0
 40
0
 40
0
 40
0
 40
1
 40
1
 40
1
 40
1
 10
420.480000
 20
458.080000
 30
0.0
 10
420.480000
 20
461.360000
 30
0.0
 10
429.600000
 20
476.960000
 30
0.0
 10
434.080000
 20
481.360000
 30
0.0
  0
SPLINE
  5
18f
100
AcDbEntity
  8
0
 62
7
100
AcDbSpline
 70
8
 71
3
 72
8
 73
4
 74
0
 40
0
 40
0
 40
0
 40
0
 40
1
 40
1
 40
1
 40
1
 10
434.080000
 20
481.360000
 30
0.0
 10
440.080000
 20
487.280000
 30
0.0
 10
440.720000
 20
488.880000
 30
0.0
 10
440.000000
 20
495.680000
 30
0.0
  0
SPLINE
  5
190
100
AcDbEntity
  8
0
 62
7
100
AcDbSpline
 70
8
 71
3
 72
8
 73
4
 74
0
 40
0
 40
0
 40
0
 40
0
 40
1
 40
1
 40
1
 40
1
 10
440.000000
 20
495.680000
 30
0.0
 10
439.120000
 20
503.280000
 30
0.0
 10
437.680000
 20
508.000000
 30
0.0
 10
435.520000
 20
510.000000
 30
0.0
  0
SPLINE
  5
191
100
AcDbEntity
  8
0
 62
7
100
AcDbSpline
 70
8
 71
3
 72
8
 73
4
 74
0
 40
0
 40
0
 40
0
 40
0
 40
1
 40
1
 40
1
 40
1
 10
435.520000
 20
510.000000
 30
0.0
 10
434.560000
 20
510.880000
 30
0.0
 10
433.840000
 20
511.920000
 30
0.0
 10
433.840000
 20
512.240000
 30
0.0
  0
SPLINE
  5
192
100
AcDbEntity
  8
0
 62
7
100
AcDbSpline
 70
8
 71
3
 72
8
 73
4
 74
0
 40
0
 40
0
 40
0
 40
0
 40
1
 40
1
 40
1
 40
1
 10
433.840000
 20
512.240000
 30
0.0
 10
433.840000
 20
512.560000
 30
0.0
 10
431.920000
 20
514.800000
 30
0.0
 10
429.600000
 20
517.040000
 30
0.0
  0
SPLINE
  5
193
100
AcDbEntity
  8
0
 62
7
100
AcDbSpline
 70
8
 71
3
 72
8
 73
4
 74
0
 40
0
 40
0
 40
0
 40
0
 40
1
 40
1
 40
1
 40
1
 10
429.600000
 20
517.040000
 30
0.0
 10
419.040000
 20
527.680000
 30
0.0
 10
407.200000
 20
543.200000
 30
0.0
 10
407.200000
 20
546.480000
 30
0.0
  0
SPLINE
  5
194
100
AcDbEntity
  8
0
 62
7
100
AcDbSpline
 70
8
 71
3
 72
8
 73
4
 74
0
 40
0
 40
0
 40
0
 40
0
 40
1
 40
1
 40
1
 40
1
 10
407.200000
 20
546.480000
 30
0.0
 10
407.200000
 20
547.360000
 30
0.0
 10
406.800000
 20
548.800000
 30
0.0
 10
406.240000
 20
549.600000
 30
0.0
  0
SPLINE
  5
195
100
AcDbEntity
  8
0
 62
7
100
AcDbSpline
 70
8
 71
3
 72
8
 73
4
 74
0
 40
0
 40
0
 40
0
 40
0
 40
1
 40
1
 40
1
 40
1
 10
406.240000
 20
549.600000
 30
0.0
 10
405.440000
 20
550.960000
 30
0.0
 10
404.080000
 20
556.000000
 30
0.0
 10
402.160000
 20
564.960000
 30
0.0
  0
SPLINE
  5
196
100
AcDbEntity
  8
0
 62
7
100
AcDbSpline
 70
8
 71
3
 72
8
 73
4
 74
0
 40
0
 40
0
 40
0
 40
0
 40
1
 40
1
 40
1
 40
1
 10
402.160000
 20
564.960000
 30
0.0
 10
401.840000
 20
566.560000
 30
0.0
 10
402.400000
 20
570.400000
 30
0.0
 10
403.680000
 20
574.960000
 30
0.0
  0
SPLINE
  5
197
100
AcDbEntity
  8
0
 62
7
100
AcDbSpline
 70
8
 71
3
 72
8
 73
4
 74
0
 40
0
 40
0
 40
0
 40
0
 40
1
 40
1
 40
1
 40
1
 10
403.680000
 20
574.960000
 30
0.0
 10
405.680000
 20
582.240000
 30
0.0
 10
405.680000
 20
582.480000
 30
0.0
 10
404.320000
 20
591.120000
 30
0.0
  0
SPLINE
  5
198
100
AcDbEntity
  8
0
 62
7
100
AcDbSpline
 70
8
 71
3
 72
8
 73
4
 74
0
 40
0
 40
0
 40
0
 40
0
 40
1
 40
1
 40
1
 40
1
 10
404.320000
 20
591.120000
 30
0.0
 10
403.520000
 20
595.920000
 30
0.0
 10
402.240000
 20
602.720000
 30
0.0
 10
401.520000
 20
606.160000
 30
0.0
  0
SPLINE
  5
199
100
AcDbEntity
  8
0
 62
7
100
AcDbSpline
 70
8
 71
3
 72
8
 73
4
 74
0
 40
0
 40
0
 40
0
 40
0
 40
1
 40
1
 40
1
 40
1
 10
401.520000
 20
606.160000
 30
0.0
 10
400.720000
 20
609.520000
 30
0.0
 10
399.840000
 20
614.400000
 30
0.0
 10
399.600000
 20
616.880000
 30
0.0
  0
SPLINE
  5
19a
100
AcDbEntity
  8
0
 62
7
100
AcDbSpline
 70
8
 71
3
 72
8
 73
4
 74
0
 40
0
 40
0
 40
0
 40
0
 40
1
 40
1
 40
1
 40
1
 10
399.600000
 20
616.880000
 30
0.0
 10
399.280000
 20
620.080000
 30
0.0
 10
398.560000
 20
621.840000
 30
0.0
 10
397.200000
 20
622.880000
 30
0.0
  0
SPLINE
  5
19b
100
AcDbEntity
  8
0
 62
7
100
AcDbSpline
 70
8
 71
3
 72
8
 73
4
 74
0
 40
0
 40
0
 40
0
 40
0
 40
1
 40
1
 40
1
 40
1
 10
397.200000
 20
622.880000
 30
0.0
 10
396.240000
 20
623.760000
 30
0.0
 10
395.280000
 20
624.320000
 30
0.0
 10
395.120000
 20
624.240000
 30
0.0
  0
SPLINE
  5
19c
100
AcDbEntity
  8
0
 62
7
100
AcDbSpline
 70
8
 71
3
 72
8
 73
4
 74
0
 40
0
 40
0
 40
0
 40
0
 40
1
 40
1
 40
1
 40
1
 10
395.120000
 20
624.240000
 30
0.0
 10
394.960000
 20
624.080000
 30
0.0
 10
394.640000
 20
618.960000
 30
0.0
 10
394.400000
 20
612.800000
 30
0.0
  0
SPLINE
  5
19d
100
AcDbEntity
  8
0
 62
7
100
AcDbSpline
 70
8
 71
3
 72
8
 73
4
 74
0
 40
0
 40
0
 40
0
 40
0
 40
1
 40
1
 40
1
 40
1
 10
394.400000
 20
612.800000
 30
0.0
 10
393.520000
 20
593.040000
 30
0.0
 10
389.440000
 20
582.320000
 30
0.0
 10
382.480000
 20
581.440000
 30
0.0
  0
SPLINE
  5
19e
100
AcDbEntity
  8
0
 62
7
100
AcDbSpline
 70
8
 71
3
 72
8
 73
4
 74
0
 40
0
 40
0
 40
0
 40
0
 40
1
 40
1
 40
1
 40
1
 10
382.480000
 20
581.440000
 30
0.0
 10
380.960000
 20
581.200000
 30
0.0
 10
379.920000
 20
580.080000
 30
0.0
 10
378.160000
 20
576.480000
 30
0.0
  0
SPLINE
  5
19f
100
AcDbEntity
  8
0
 62
7
100
AcDbSpline
 70
8
 71
3
 72
8
 73
4
 74
0
 40
0
 40
0
 40
0
 40
0
 40
1
 40
1
 40
1
 40
1
 10
378.160000
 20
576.480000
 30
0.0
 10
375.600000
 20
571.360000
 30
0.0
 10
375.600000
 20
572.080000
 30
0.0
 10
376.320000
 20
544.080000
 30
0.0
  0
SPLINE
  5
1a0
100
AcDbEntity
  8
0
 62
7
100
AcDbSpline
 70
8
 71
3
 72
8
 73
4
 74
0
 40
0
 40
0
 40
0
 40
0
 40
1
 40
1
 40
1
 40
1
 10
376.320000
 20
544.080000
 30
0.0
 10
376.480000
 20
536.160000
 30
0.0
 10
376.960000
 20
529.200000
 30
0.0
 10
377.360000
 20
528.720000
 30
0.0
  0
SPLINE
  5
1a1
100
AcDbEntity
  8
0
 62
7
100
AcDbSpline
 70
8
 71
3
 72
8
 73
4
 74
0
 40
0
 40
0
 40
0
 40
0
 40
1
 40
1
 40
1
 40
1
 10
377.360000
 20
528.720000
 30
0.0
 10
377.760000
 20
528.160000
 30
0.0
 10
377.600000
 20
526.320000
 30
0.0
 10
376.960000
 20
524.640000
 30
0.0
  0
SPLINE
  5
1a2
100
AcDbEntity
  8
0
 62
7
100
AcDbSpline
 70
8
 71
3
 72
8
 73
4
 74
0
 40
0
 40
0
 40
0
 40
0
 40
1
 40
1
 40
1
 40
1
 10
376.960000
 20
524.640000
 30
0.0
 10
376.080000
 20
522.080000
 30
0.0
 10
376.160000
 20
521.040000
 30
0.0
 10
377.280000
 20
518.560000
 30
0.0
  0
SPLINE
  5
1a3
100
AcDbEntity
  8
0
 62
7
100
AcDbSpline
 70
8
 71
3
 72
8
 73
4
 74
0
 40
0
 40
0
 40
0
 40
0
 40
1
 40
1
 40
1
 40
1
 10
377.280000
 20
518.560000
 30
0.0
 10
380.240000
 20
512.080000
 30
0.0
 10
383.360000
 20
499.040000
 30
0.0
 10
383.840000
 20
491.440000
 30
0.0
  0
SPLINE
  5
1a4
100
AcDbEntity
  8
0
 62
7
100
AcDbSpline
 70
8
 71
3
 72
8
 73
4
 74
0
 40
0
 40
0
 40
0
 40
0
 40
1
 40
1
 40
1
 40
1
 10
383.840000
 20
491.440000
 30
0.0
 10
384.160000
 20
485.600000
 30
0.0
 10
384.800000
 20
482.560000
 30
0.0
 10
386.400000
 20
479.360000
 30
0.0
  0
SPLINE
  5
1a5
100
AcDbEntity
  8
0
 62
7
100
AcDbSpline
 70
8
 71
3
 72
8
 73
4
 74
0
 40
0
 40
0
 40
0
 40
0
 40
1
 40
1
 40
1
 40
1
 10
386.400000
 20
479.360000
 30
0.0
 10
387.520000
 20
476.960000
 30
0.0
 10
390.080000
 20
471.760000
 30
0.0
 10
392.080000
 20
467.840000
 30
0.0
  0
SPLINE
  5
1a6
100
AcDbEntity
  8
0
 62
7
100
AcDbSpline
 70
8
 71
3
 72
8
 73
4
 74
0
 40
0
 40
0
 40
0
 40
0
 40
1
 40
1
 40
1
 40
1
 10
392.080000
 20
467.840000
 30
0.0
 10
394.080000
 20
463.840000
 30
0.0
 10
396.880000
 20
456.800000
 30
0.0
 10
398.400000
 20
452.240000
 30
0.0
  0
SPLINE
  5
1a7
100
AcDbEntity
  8
0
 62
7
100
AcDbSpline
 70
8
 71
3
 72
8
 73
4
 74
0
 40
0
 40
0
 40
0
 40
0
 40
1
 40
1
 40
1
 40
1
 10
398.400000
 20
452.240000
 30
0.0
 10
399.840000
 20
447.600000
 30
0.0
 10
402.000000
 20
441.040000
 30
0.0
 10
403.200000
 20
437.600000
 30
0.0
  0
SPLINE
  5
1a8
100
AcDbEntity
  8
0
 62
7
100
AcDbSpline
 70
8
 71
3
 72
8
 73
4
 74
0
 40
0
 40
0
 40
0
 40
0
 40
1
 40
1
 40
1
 40
1
 10
403.200000
 20
437.600000
 30
0.0
 10
406.800000
 20
426.640000
 30
0.0
 10
409.440000
 20
407.200000
 30
0.0
 10
408.720000
 20
395.920000
 30
0.0
  0
SPLINE
  5
1a9
100
AcDbEntity
  8
0
 62
7
100
AcDbSpline
 70
8
 71
3
 72
8
 73
4
 74
0
 40
0
 40
0
 40
0
 40
0
 40
1
 40
1
 40
1
 40
1
 10
408.720000
 20
395.920000
 30
0.0
 10
408.240000
 20
387.920000
 30
0.0
 10
405.280000
 20
373.200000
 30
0.0
 10
402.240000
 20
364.080000
 30
0.0
  0
SPLINE
  5
1aa
100
AcDbEntity
  8
0
 62
7
100
AcDbSpline
 70
8
 71
3
 72
8
 73
4
 74
0
 40
0
 40
0
 40
0
 40
0
 40
1
 40
1
 40
1
 40
1
 10
402.240000
 20
364.080000
 30
0.0
 10
401.040000
 20
360.400000
 30
0.0
 10
400.720000
 20
356.240000
 30
0.0
 10
400.800000
 20
342.400000
 30
0.0
  0
SPLINE
  5
1ab
100
AcDbEntity
  8
0
 62
7
100
AcDbSpline
 70
8
 71
3
 72
8
 73
4
 74
0
 40
0
 40
0
 40
0
 40
0
 40
1
 40
1
 40
1
 40
1
 10
400.800000
 20
342.400000
 30
0.0
 10
400.800000
 20
327.120000
 30
0.0
 10
401.040000
 20
324.480000
 30
0.0
 10
402.720000
 20
319.360000
 30
0.0
  0
SPLINE
  5
1ac
100
AcDbEntity
  8
0
 62
7
100
AcDbSpline
 70
8
 71
3
 72
8
 73
4
 74
0
 40
0
 40
0
 40
0
 40
0
 40
1
 40
1
 40
1
 40
1
 10
402.720000
 20
319.360000
 30
0.0
 10
403.760000
 20
316.160000
 30
0.0
 10
405.200000
 20
312.400000
 30
0.0
 10
405.920000
 20
310.960000
 30
0.0
  0
SPLINE
  5
1ad
100
AcDbEntity
  8
0
 62
7
100
AcDbSpline
 70
8
 71
3
 72
8
 73
4
 74
0
 40
0
 40
0
 40
0
 40
0
 40
1
 40
1
 40
1
 40
1
 10
405.920000
 20
310.960000
 30
0.0
 10
406.640000
 20
309.600000
 30
0.0
 10
408.400000
 20
304.080000
 30
0.0
 10
409.840000
 20
298.800000
 30
0.0
  0
SPLINE
  5
1ae
100
AcDbEntity
  8
0
 62
7
100
AcDbSpline
 70
8
 71
3
 72
8
 73
4
 74
0
 40
0
 40
0
 40
0
 40
0
 40
1
 40
1
 40
1
 40
1
 10
409.840000
 20
298.800000
 30
0.0
 10
412.240000
 20
290.080000
 30
0.0
 10
412.560000
 20
287.760000
 30
0.0
 10
412.480000
 20
277.120000
 30
0.0
  0
SPLINE
  5
1af
100
AcDbEntity
  8
0
 62
7
100
AcDbSpline
 70
8
 71
3
 72
8
 73
4
 74
0
 40
0
 40
0
 40
0
 40
0
 40
1
 40
1
 40
1
 40
1
 10
412.480000
 20
277.120000
 30
0.0
 10
412.480000
 20
264.400000
 30
0.0
 10
411.440000
 20
257.120000
 30
0.0
 10
407.600000
 20
243.280000
 30
0.0
  0
SPLINE
  5
1b0
100
AcDbEntity
  8
0
 62
7
100
AcDbSpline
 70
8
 71
3
 72
8
 73
4
 74
0
 40
0
 40
0
 40
0
 40
0
 40
1
 40
1
 40
1
 40
1
 10
407.600000
 20
243.280000
 30
0.0
 10
405.200000
 20
234.800000
 30
0.0
 10
405.200000
 20
234.480000
 30
0.0
 10
405.840000
 20
217.520000
 30
0.0
  0
SPLINE
  5
1b1
100
AcDbEntity
  8
0
 62
7
100
AcDbSpline
 70
8
 71
3
 72
8
 73
4
 74
0
 40
0
 40
0
 40
0
 40
0
 40
1
 40
1
 40
1
 40
1
 10
405.840000
 20
217.520000
 30
0.0
 10
406.240000
 20
208.080000
 30
0.0
 10
406.480000
 20
198.640000
 30
0.0
 10
406.400000
 20
196.400000
 30
0.0
  0
SPLINE
  5
1b2
100
AcDbEntity
  8
0
 62
7
100
AcDbSpline
 70
8
 71
3
 72
8
 73
4
 74
0
 40
0
 40
0
 40
0
 40
0
 40
1
 40
1
 40
1
 40
1
 10
406.400000
 20
196.400000
 30
0.0
 10
406.240000
 20
193.120000
 30
0.0
 10
406.880000
 20
191.360000
 30
0.0
 10
410.400000
 20
185.520000
 30
0.0
  0
SPLINE
  5
1b3
100
AcDbEntity
  8
0
 62
7
100
AcDbSpline
 70
8
 71
3
 72
8
 73
4
 74
0
 40
0
 40
0
 40
0
 40
0
 40
1
 40
1
 40
1
 40
1
 10
410.400000
 20
185.520000
 30
0.0
 10
413.840000
 20
179.840000
 30
0.0
 10
416.400000
 20
176.960000
 30
0.0
 10
423.840000
 20
170.320000
 30
0.0
  0
SPLINE
  5
1b4
100
AcDbEntity
  8
0
 62
7
100
AcDbSpline
 70
8
 71
3
 72
8
 73
4
 74
0
 40
0
 40
0
 40
0
 40
0
 40
1
 40
1
 40
1
 40
1
 10
423.840000
 20
170.320000
 30
0.0
 10
440.240000
 20
155.840000
 30
0.0
 10
439.920000
 20
156.160000
 30
0.0
 10
441.040000
 20
151.440000
 30
0.0
  0
SPLINE
  5
1b5
100
AcDbEntity
  8
0
 62
7
100
AcDbSpline
 70
8
 71
3
 72
8
 73
4
 74
0
 40
0
 40
0
 40
0
 40
0
 40
1
 40
1
 40
1
 40
1
 10
441.040000
 20
151.440000
 30
0.0
 10
442.320000
 20
146.160000
 30
0.0
 10
441.760000
 20
144.560000
 30
0.0
 10
438.400000
 20
144.560000
 30
0.0
  0
SPLINE
  5
1b6
100
AcDbEntity
  8
0
 62
7
100
AcDbSpline
 70
8
 71
3
 72
8
 73
4
 74
0
 40
0
 40
0
 40
0
 40
0
 40
1
 40
1
 40
1
 40
1
 10
438.400000
 20
144.560000
 30
0.0
 10
437.040000
 20
144.560000
 30
0.0
 10
435.120000
 20
144.080000
 30
0.0
 10
434.160000
 20
143.440000
 30
0.0
  0
SPLINE
  5
1b7
100
AcDbEntity
  8
0
 62
7
100
AcDbSpline
 70
8
 71
3
 72
8
 73
4
 74
0
 40
0
 40
0
 40
0
 40
0
 40
1
 40
1
 40
1
 40
1
 10
434.160000
 20
143.440000
 30
0.0
 10
433.200000
 20
142.800000
 30
0.0
 10
430.480000
 20
142.320000
 30
0.0
 10
427.840000
 20
142.240000
 30
0.0
  0
SPLINE
  5
1b8
100
AcDbEntity
  8
0
 62
7
100
AcDbSpline
 70
8
 71
3
 72
8
 73
4
 74
0
 40
0
 40
0
 40
0
 40
0
 40
1
 40
1
 40
1
 40
1
 10
427.840000
 20
142.240000
 30
0.0
 10
425.360000
 20
142.240000
 30
0.0
 10
422.960000
 20
141.840000
 30
0.0
 10
422.640000
 20
141.360000
 30
0.0
  0
SPLINE
  5
1b9
100
AcDbEntity
  8
0
 62
7
100
AcDbSpline
 70
8
 71
3
 72
8
 73
4
 74
0
 40
0
 40
0
 40
0
 40
0
 40
1
 40
1
 40
1
 40
1
 10
422.640000
 20
141.360000
 30
0.0
 10
422.240000
 20
140.800000
 30
0.0
 10
420.160000
 20
140.640000
 30
0.0
 10
416.400000
 20
140.960000
 30
0.0
  0
SPLINE
  5
1ba
100
AcDbEntity
  8
0
 62
7
100
AcDbSpline
 70
8
 71
3
 72
8
 73
4
 74
0
 40
0
 40
0
 40
0
 40
0
 40
1
 40
1
 40
1
 40
1
 10
416.400000
 20
140.960000
 30
0.0
 10
413.200000
 20
141.200000
 30
0.0
 10
410.560000
 20
141.120000
 30
0.0
 10
410.320000
 20
140.640000
 30
0.0
  0
SPLINE
  5
1bb
100
AcDbEntity
  8
0
 62
7
100
AcDbSpline
 70
8
 71
3
 72
8
 73
4
 74
0
 40
0
 40
0
 40
0
 40
0
 40
1
 40
1
 40
1
 40
1
 10
410.320000
 20
140.640000
 30
0.0
 10
409.440000
 20
139.440000
 30
0.0
 10
399.760000
 20
139.760000
 30
0.0
 10
397.840000
 20
141.040000
 30
0.0
  0
SPLINE
  5
1bc
100
AcDbEntity
  8
0
 62
7
100
AcDbSpline
 70
8
 71
3
 72
8
 73
4
 74
0
 40
0
 40
0
 40
0
 40
0
 40
1
 40
1
 40
1
 40
1
 10
397.840000
 20
141.040000
 30
0.0
 10
395.200000
 20
142.800000
 30
0.0
 10
392.160000
 20
142.480000
 30
0.0
 10
390.240000
 20
140.320000
 30
0.0
  0
SPLINE
  5
1bd
100
AcDbEntity
  8
0
 62
7
100
AcDbSpline
 70
8
 71
3
 72
8
 73
4
 74
0
 40
0
 40
0
 40
0
 40
0
 40
1
 40
1
 40
1
 40
1
 10
390.240000
 20
140.320000
 30
0.0
 10
388.640000
 20
138.480000
 30
0.0
 10
387.840000
 20
138.320000
 30
0.0
 10
381.360000
 20
138.320000
 30
0.0
  0
SPLINE
  5
1be
100
AcDbEntity
  8
0
 62
7
100
AcDbSpline
 70
8
 71
3
 72
8
 73
4
 74
0
 40
0
 40
0
 40
0
 40
0
 40
1
 40
1
 40
1
 40
1
 10
381.360000
 20
138.320000
 30
0.0
 10
374.720000
 20
138.320000
 30
0.0
 10
374.080000
 20
138.480000
 30
0.0
 10
371.840000
 20
140.560000
 30
0.0
  0
SPLINE
  5
1bf
100
AcDbEntity
  8
0
 62
7
100
AcDbSpline
 70
8
 71
3
 72
8
 73
4
 74
0
 40
0
 40
0
 40
0
 40
0
 40
1
 40
1
 40
1
 40
1
 10
371.840000
 20
140.560000
 30
0.0
 10
370.560000
 20
141.760000
 30
0.0
 10
367.600000
 20
143.360000
 30
0.0
 10
365.280000
 20
144.080000
 30
0.0
  0
SPLINE
  5
1c0
100
AcDbEntity
  8
0
 62
7
100
AcDbSpline
 70
8
 71
3
 72
8
 73
4
 74
0
 40
0
 40
0
 40
0
 40
0
 40
1
 40
1
 40
1
 40
1
 10
365.280000
 20
144.080000
 30
0.0
 10
360.640000
 20
145.600000
 30
0.0
 10
359.360000
 20
147.120000
 30
0.0
 10
358.000000
 20
152.320000
 30
0.0
  0
SPLINE
  5
1c1
100
AcDbEntity
  8
0
 62
7
100
AcDbSpline
 70
8
 71
3
 72
8
 73
4
 74
0
 40
0
 40
0
 40
0
 40
0
 40
1
 40
1
 40
1
 40
1
 10
358.000000
 20
152.320000
 30
0.0
 10
357.280000
 20
155.280000
 30
0.0
 10
356.640000
 20
155.920000
 30
0.0
 10
354.160000
 20
156.640000
 30
0.0
  0
SPLINE
  5
1c2
100
AcDbEntity
  8
0
 62
7
100
AcDbSpline
 70
8
 71
3
 72
8
 73
4
 74
0
 40
0
 40
0
 40
0
 40
0
 40
1
 40
1
 40
1
 40
1
 10
354.160000
 20
156.640000
 30
0.0
 10
350.160000
 20
157.840000
 30
0.0
 10
347.120000
 20
160.560000
 30
0.0
 10
346.080000
 20
164.000000
 30
0.0
  0
SPLINE
  5
1c3
100
AcDbEntity
  8
0
 62
7
100
AcDbSpline
 70
8
 71
3
 72
8
 73
4
 74
0
 40
0
 40
0
 40
0
 40
0
 40
1
 40
1
 40
1
 40
1
 10
346.080000
 20
164.000000
 30
0.0
 10
344.800000
 20
168.000000
 30
0.0
 10
344.960000
 20
179.760000
 30
0.0
 10
346.480000
 20
187.120000
 30
0.0
  0
SPLINE
  5
1c4
100
AcDbEntity
  8
0
 62
7
100
AcDbSpline
 70
8
 71
3
 72
8
 73
4
 74
0
 40
0
 40
0
 40
0
 40
0
 40
1
 40
1
 40
1
 40
1
 10
346.480000
 20
187.120000
 30
0.0
 10
347.680000
 20
193.120000
 30
0.0
 10
347.680000
 20
193.520000
 30
0.0
 10
345.840000
 20
196.800000
 30
0.0
  0
SPLINE
  5
1c5
100
AcDbEntity
  8
0
 62
7
100
AcDbSpline
 70
8
 71
3
 72
8
 73
4
 74
0
 40
0
 40
0
 40
0
 40
0
 40
1
 40
1
 40
1
 40
1
 10
345.840000
 20
196.800000
 30
0.0
 10
343.040000
 20
202.000000
 30
0.0
 10
342.960000
 20
206.320000
 30
0.0
 10
345.520000
 20
216.320000
 30
0.0
  0
SPLINE
  5
1c6
100
AcDbEntity
  8
0
 62
7
100
AcDbSpline
 70
8
 71
3
 72
8
 73
4
 74
0
 40
0
 40
0
 40
0
 40
0
 40
1
 40
1
 40
1
 40
1
 10
345.520000
 20
216.320000
 30
0.0
 10
347.280000
 20
223.200000
 30
0.0
 10
347.840000
 20
227.280000
 30
0.0
 10
347.840000
 20
234.640000
 30
0.0
  0
SPLINE
  5
1c7
100
AcDbEntity
  8
0
 62
7
100
AcDbSpline
 70
8
 71
3
 72
8
 73
4
 74
0
 40
0
 40
0
 40
0
 40
0
 40
1
 40
1
 40
1
 40
1
 10
347.840000
 20
234.640000
 30
0.0
 10
347.840000
 20
246.240000
 30
0.0
 10
346.320000
 20
251.920000
 30
0.0
 10
342.400000
 20
255.440000
 30
0.0
  0
SPLINE
  5
1c8
100
AcDbEntity
  8
0
 62
7
100
AcDbSpline
 70
8
 71
3
 72
8
 73
4
 74
0
 40
0
 40
0
 40
0
 40
0
 40
1
 40
1
 40
1
 40
1
 10
342.400000
 20
255.440000
 30
0.0
 10
337.840000
 20
259.600000
 30
0.0
 10
334.880000
 20
266.400000
 30
0.0
 10
332.240000
 20
278.800000
 30
0.0
  0
SPLINE
  5
1c9
100
AcDbEntity
  8
0
 62
7
100
AcDbSpline
 70
8
 71
3
 72
8
 73
4
 74
0
 40
0
 40
0
 40
0
 40
0
 40
1
 40
1
 40
1
 40
1
 10
332.240000
 20
278.800000
 30
0.0
 10
330.160000
 20
288.880000
 30
0.0
 10
329.920000
 20
291.120000
 30
0.0
 10
330.560000
 20
299.840000
 30
0.0
  0
SPLINE
  5
1ca
100
AcDbEntity
  8
0
 62
7
100
AcDbSpline
 70
8
 71
3
 72
8
 73
4
 74
0
 40
0
 40
0
 40
0
 40
0
 40
1
 40
1
 40
1
 40
1
 10
330.560000
 20
299.840000
 30
0.0
 10
330.880000
 20
305.360000
 30
0.0
 10
331.760000
 20
310.880000
 30
0.0
 10
332.480000
 20
312.560000
 30
0.0
  0
SPLINE
  5
1cb
100
AcDbEntity
  8
0
 62
7
100
AcDbSpline
 70
8
 71
3
 72
8
 73
4
 74
0
 40
0
 40
0
 40
0
 40
0
 40
1
 40
1
 40
1
 40
1
 10
332.480000
 20
312.560000
 30
0.0
 10
334.320000
 20
316.640000
 30
0.0
 10
334.240000
 20
320.160000
 30
0.0
 10
332.000000
 20
329.520000
 30
0.0
  0
SPLINE
  5
1cc
100
AcDbEntity
  8
0
 62
7
100
AcDbSpline
 70
8
 71
3
 72
8
 73
4
 74
0
 40
0
 40
0
 40
0
 40
0
 40
1
 40
1
 40
1
 40
1
 10
332.000000
 20
329.520000
 30
0.0
 10
328.880000
 20
342.800000
 30
0.0
 10
324.960000
 20
353.440000
 30
0.0
 10
319.360000
 20
363.920000
 30
0.0
  0
SPLINE
  5
1cd
100
AcDbEntity
  8
0
 62
7
100
AcDbSpline
 70
8
 71
3
 72
8
 73
4
 74
0
 40
0
 40
0
 40
0
 40
0
 40
1
 40
1
 40
1
 40
1
 10
319.360000
 20
363.920000
 30
0.0
 10
310.640000
 20
380.320000
 30
0.0
 10
306.800000
 20
393.280000
 30
0.0
 10
306.640000
 20
406.880000
 30
0.0
  0
SPLINE
  5
1ce
100
AcDbEntity
  8
0
 62
7
100
AcDbSpline
 70
8
 71
3
 72
8
 73
4
 74
0
 40
0
 40
0
 40
0
 40
0
 40
1
 40
1
 40
1
 40
1
 10
306.640000
 20
406.880000
 30
0.0
 10
306.560000
 20
415.200000
 30
0.0
 10
306.720000
 20
416.160000
 30
0.0
 10
308.560000
 20
418.400000
 30
0.0
  0
SPLINE
  5
1cf
100
AcDbEntity
  8
0
 62
7
100
AcDbSpline
 70
8
 71
3
 72
8
 73
4
 74
0
 40
0
 40
0
 40
0
 40
0
 40
1
 40
1
 40
1
 40
1
 10
308.560000
 20
418.400000
 30
0.0
 10
309.680000
 20
419.680000
 30
0.0
 10
310.560000
 20
420.960000
 30
0.0
 10
310.560000
 20
421.200000
 30
0.0
  0
SPLINE
  5
1d0
100
AcDbEntity
  8
0
 62
7
100
AcDbSpline
 70
8
 71
3
 72
8
 73
4
 74
0
 40
0
 40
0
 40
0
 40
0
 40
1
 40
1
 40
1
 40
1
 10
310.560000
 20
421.200000
 30
0.0
 10
310.560000
 20
421.360000
 30
0.0
 10
308.240000
 20
421.600000
 30
0.0
 10
305.280000
 20
421.600000
 30
0.0
  0
SPLINE
  5
1d1
100
AcDbEntity
  8
0
 62
7
100
AcDbSpline
 70
8
 71
3
 72
8
 73
4
 74
0
 40
0
 40
0
 40
0
 40
0
 40
1
 40
1
 40
1
 40
1
 10
305.280000
 20
421.600000
 30
0.0
 10
301.920000
 20
421.600000
 30
0.0
 10
299.920000
 20
421.920000
 30
0.0
 10
299.680000
 20
422.560000
 30
0.0
  0
SPLINE
  5
1d2
100
AcDbEntity
  8
0
 62
7
100
AcDbSpline
 70
8
 71
3
 72
8
 73
4
 74
0
 40
0
 40
0
 40
0
 40
0
 40
1
 40
1
 40
1
 40
1
 10
299.680000
 20
422.560000
 30
0.0
 10
299.360000
 20
423.360000
 30
0.0
 10
299.040000
 20
423.360000
 30
0.0
 10
298.080000
 20
422.560000
 30
0.0
  0
SPLINE
  5
1d3
100
AcDbEntity
  8
0
 62
7
100
AcDbSpline
 70
8
 71
3
 72
8
 73
4
 74
0
 40
0
 40
0
 40
0
 40
0
 40
1
 40
1
 40
1
 40
1
 10
298.080000
 20
422.560000
 30
0.0
 10
297.440000
 20
422.000000
 30
0.0
 10
294.640000
 20
421.600000
 30
0.0
 10
291.760000
 20
421.600000
 30
0.0
  0
SPLINE
  5
1d4
100
AcDbEntity
  8
0
 62
7
100
AcDbSpline
 70
8
 71
3
 72
8
 73
4
 74
0
 40
0
 40
0
 40
0
 40
0
 40
1
 40
1
 40
1
 40
1
 10
291.760000
 20
421.600000
 30
0.0
 10
288.960000
 20
421.600000
 30
0.0
 10
286.640000
 20
421.360000
 30
0.0
 10
286.640000
 20
421.200000
 30
0.0
  0
SPLINE
  5
1d5
100
AcDbEntity
  8
0
 62
7
100
AcDbSpline
 70
8
 71
3
 72
8
 73
4
 74
0
 40
0
 40
0
 40
0
 40
0
 40
1
 40
1
 40
1
 40
1
 10
286.640000
 20
421.200000
 30
0.0
 10
286.640000
 20
420.960000
 30
0.0
 10
287.520000
 20
419.680000
 30
0.0
 10
288.640000
 20
418.400000
 30
0.0
  0
SPLINE
  5
1d6
100
AcDbEntity
  8
0
 62
7
100
AcDbSpline
 70
8
 71
3
 72
8
 73
4
 74
0
 40
0
 40
0
 40
0
 40
0
 40
1
 40
1
 40
1
 40
1
 10
288.640000
 20
418.400000
 30
0.0
 10
294.400000
 20
411.520000
 30
0.0
 10
289.360000
 20
385.680000
 30
0.0
 10
278.160000
 20
364.880000
 30
0.0
  0
SPLINE
  5
1d7
100
AcDbEntity
  8
0
 62
7
100
AcDbSpline
 70
8
 71
3
 72
8
 73
4
 74
0
 40
0
 40
0
 40
0
 40
0
 40
1
 40
1
 40
1
 40
1
 10
278.160000
 20
364.880000
 30
0.0
 10
273.200000
 20
355.680000
 30
0.0
 10
269.200000
 20
345.200000
 30
0.0
 10
266.720000
 20
335.360000
 30
0.0
  0
SPLINE
  5
1d8
100
AcDbEntity
  8
0
 62
7
100
AcDbSpline
 70
8
 71
3
 72
8
 73
4
 74
0
 40
0
 40
0
 40
0
 40
0
 40
1
 40
1
 40
1
 40
1
 10
266.720000
 20
335.360000
 30
0.0
 10
265.920000
 20
332.400000
 30
0.0
 10
264.720000
 20
327.360000
 30
0.0
 10
263.920000
 20
324.320000
 30
0.0
  0
SPLINE
  5
1d9
100
AcDbEntity
  8
0
 62
7
100
AcDbSpline
 70
8
 71
3
 72
8
 73
4
 74
0
 40
0
 40
0
 40
0
 40
0
 40
1
 40
1
 40
1
 40
1
 10
263.920000
 20
324.320000
 30
0.0
 10
262.560000
 20
318.960000
 30
0.0
 10
262.560000
 20
318.560000
 30
0.0
 10
264.320000
 20
313.440000
 30
0.0
  0
SPLINE
  5
1da
100
AcDbEntity
  8
0
 62
7
100
AcDbSpline
 70
8
 71
3
 72
8
 73
4
 74
0
 40
0
 40
0
 40
0
 40
0
 40
1
 40
1
 40
1
 40
1
 10
264.320000
 20
313.440000
 30
0.0
 10
265.520000
 20
310.000000
 30
0.0
 10
266.400000
 20
304.720000
 30
0.0
 10
266.720000
 20
298.720000
 30
0.0
  0
SPLINE
  5
1db
100
AcDbEntity
  8
0
 62
7
100
AcDbSpline
 70
8
 71
3
 72
8
 73
4
 74
0
 40
0
 40
0
 40
0
 40
0
 40
1
 40
1
 40
1
 40
1
 10
266.720000
 20
298.720000
 30
0.0
 10
267.280000
 20
290.480000
 30
0.0
 10
267.040000
 20
288.080000
 30
0.0
 10
265.040000
 20
279.200000
 30
0.0
  0
SPLINE
  5
1dc
100
AcDbEntity
  8
0
 62
7
100
AcDbSpline
 70
8
 71
3
 72
8
 73
4
 74
0
 40
0
 40
0
 40
0
 40
0
 40
1
 40
1
 40
1
 40
1
 10
265.040000
 20
279.200000
 30
0.0
 10
261.600000
 20
264.000000
 30
0.0
 10
260.400000
 20
261.280000
 30
0.0
 10
255.120000
 20
256.000000
 30
0.0
  0
SPLINE
  5
1dd
100
AcDbEntity
  8
0
 62
7
100
AcDbSpline
 70
8
 71
3
 72
8
 73
4
 74
0
 40
0
 40
0
 40
0
 40
0
 40
1
 40
1
 40
1
 40
1
 10
255.120000
 20
256.000000
 30
0.0
 10
250.720000
 20
251.760000
 30
0.0
 10
249.360000
 20
246.720000
 30
0.0
 10
249.360000
 20
234.480000
 30
0.0
  0
SPLINE
  5
1de
100
AcDbEntity
  8
0
 62
7
100
AcDbSpline
 70
8
 71
3
 72
8
 73
4
 74
0
 40
0
 40
0
 40
0
 40
0
 40
1
 40
1
 40
1
 40
1
 10
249.360000
 20
234.480000
 30
0.0
 10
249.360000
 20
226.320000
 30
0.0
 10
249.840000
 20
222.640000
 30
0.0
 10
251.360000
 20
217.280000
 30
0.0
  0
SPLINE
  5
1df
100
AcDbEntity
  8
0
 62
7
100
AcDbSpline
 70
8
 71
3
 72
8
 73
4
 74
0
 40
0
 40
0
 40
0
 40
0
 40
1
 40
1
 40
1
 40
1
 10
251.360000
 20
217.280000
 30
0.0
 10
254.000000
 20
208.000000
 30
0.0
 10
254.000000
 20
200.560000
 30
0.0
 10
251.280000
 20
196.400000
 30
0.0
  0
SPLINE
  5
1e0
100
AcDbEntity
  8
0
 62
7
100
AcDbSpline
 70
8
 71
3
 72
8
 73
4
 74
0
 40
0
 40
0
 40
0
 40
0
 40
1
 40
1
 40
1
 40
1
 10
251.280000
 20
196.400000
 30
0.0
 10
249.200000
 20
193.200000
 30
0.0
 10
249.200000
 20
193.120000
 30
0.0
 10
250.640000
 20
187.120000
 30
0.0
  0
SPLINE
  5
1e1
100
AcDbEntity
  8
0
 62
7
100
AcDbSpline
 70
8
 71
3
 72
8
 73
4
 74
0
 40
0
 40
0
 40
0
 40
0
 40
1
 40
1
 40
1
 40
1
 10
250.640000
 20
187.120000
 30
0.0
 10
252.240000
 20
180.240000
 30
0.0
 10
252.480000
 20
166.880000
 30
0.0
 10
251.120000
 20
163.520000
 30
0.0
  0
SPLINE
  5
1e2
100
AcDbEntity
  8
0
 62
7
100
AcDbSpline
 70
8
 71
3
 72
8
 73
4
 74
0
 40
0
 40
0
 40
0
 40
0
 40
1
 40
1
 40
1
 40
1
 10
251.120000
 20
163.520000
 30
0.0
 10
249.760000
 20
160.400000
 30
0.0
 10
246.000000
 20
157.200000
 30
0.0
 10
242.960000
 20
156.640000
 30
0.0
  0
SPLINE
  5
1e3
100
AcDbEntity
  8
0
 62
7
100
AcDbSpline
 70
8
 71
3
 72
8
 73
4
 74
0
 40
0
 40
0
 40
0
 40
0
 40
1
 40
1
 40
1
 40
1
 10
242.960000
 20
156.640000
 30
0.0
 10
241.600000
 20
156.400000
 30
0.0
 10
240.240000
 20
155.760000
 30
0.0
 10
240.080000
 20
155.280000
 30
0.0
  0
SPLINE
  5
1e4
100
AcDbEntity
  8
0
 62
7
100
AcDbSpline
 70
8
 71
3
 72
8
 73
4
 74
0
 40
0
 40
0
 40
0
 40
0
 40
1
 40
1
 40
1
 40
1
 10
240.080000
 20
155.280000
 30
0.0
 10
240.000000
 20
154.720000
 30
0.0
 10
239.360000
 20
152.880000
 30
0.0
 10
238.800000
 20
151.040000
 30
0.0
  0
SPLINE
  5
1e5
100
AcDbEntity
  8
0
 62
7
100
AcDbSpline
 70
8
 71
3
 72
8
 73
4
 74
0
 40
0
 40
0
 40
0
 40
0
 40
1
 40
1
 40
1
 40
1
 10
238.800000
 20
151.040000
 30
0.0
 10
237.600000
 20
147.040000
 30
0.0
 10
235.120000
 20
144.880000
 30
0.0
 10
230.560000
 20
143.680000
 30
0.0
  0
SPLINE
  5
1e6
100
AcDbEntity
  8
0
 62
7
100
AcDbSpline
 70
8
 71
3
 72
8
 73
4
 74
0
 40
0
 40
0
 40
0
 40
0
 40
1
 40
1
 40
1
 40
1
 10
230.560000
 20
143.680000
 30
0.0
 10
228.640000
 20
143.120000
 30
0.0
 10
226.320000
 20
141.760000
 30
0.0
 10
225.360000
 20
140.560000
 30
0.0
  0
SPLINE
  5
1e7
100
AcDbEntity
  8
0
 62
7
100
AcDbSpline
 70
8
 71
3
 72
8
 73
4
 74
0
 40
0
 40
0
 40
0
 40
0
 40
1
 40
1
 40
1
 40
1
 10
225.360000
 20
140.560000
 30
0.0
 10
223.600000
 20
138.400000
 30
0.0
 10
223.280000
 20
138.320000
 30
0.0
 10
216.160000
 20
138.320000
 30
0.0
  0
SPLINE
  5
1e8
100
AcDbEntity
  8
0
 62
7
100
AcDbSpline
 70
8
 71
3
 72
8
 73
4
 74
0
 40
0
 40
0
 40
0
 40
0
 40
1
 40
1
 40
1
 40
1
 10
216.160000
 20
138.320000
 30
0.0
 10
209.280000
 20
138.320000
 30
0.0
 10
208.560000
 20
138.480000
 30
0.0
 10
206.960000
 20
140.320000
 30
0.0
  0
LINE
  5
1e9
100
AcDbEntity
  8
0
 62
7
100
AcDbLine
 10
206.960000
 20
140.320000
 30
0.0
 11
206.960000
 21
140.320000
 31
0.0
  0
SPLINE
  5
1ea
100
AcDbEntity
  8
0
 62
7
100
AcDbSpline
 70
8
 71
3
 72
8
 73
4
 74
0
 40
0
 40
0
 40
0
 40
0
 40
1
 40
1
 40
1
 40
1
 10
69.120000
 20
65.120000
 30
0.0
 10
72.320000
 20
64.160000
 30
0.0
 10
74.800000
 20
62.560000
 30
0.0
 10
76.400000
 20
60.320000
 30
0.0
  0
SPLINE
  5
1eb
100
AcDbEntity
  8
0
 62
7
100
AcDbSpline
 70
8
 71
3
 72
8
 73
4
 74
0
 40
0
 40
0
 40
0
 40
0
 40
1
 40
1
 40
1
 40
1
 10
76.400000
 20
60.320000
 30
0.0
 10
78.000000
 20
58.080000
 30
0.0
 10
78.800000
 20
55.520000
 30
0.0
 10
78.800000
 20
52.640000
 30
0.0
  0
SPLINE
  5
1ec
100
AcDbEntity
  8
0
 62
7
100
AcDbSpline
 70
8
 71
3
 72
8
 73
4
 74
0
 40
0
 40
0
 40
0
 40
0
 40
1
 40
1
 40
1
 40
1
 10
78.800000
 20
52.640000
 30
0.0
 10
78.800000
 20
49.760000
 30
0.0
 10
78.080000
 20
47.120000
 30
0.0
 10
76.640000
 20
44.720000
 30
0.0
  0
SPLINE
  5
1ed
100
AcDbEntity
  8
0
 62
7
100
AcDbSpline
 70
8
 71
3
 72
8
 73
4
 74
0
 40
0
 40
0
 40
0
 40
0
 40
1
 40
1
 40
1
 40
1
 10
76.640000
 20
44.720000
 30
0.0
 10
75.120000
 20
42.320000
 30
0.0
 10
73.120000
 20
40.560000
 30
0.0
 10
70.400000
 20
39.360000
 30
0.0
  0
SPLINE
  5
1ee
100
AcDbEntity
  8
0
 62
7
100
AcDbSpline
 70
8
 71
3
 72
8
 73
4
 74
0
 40
0
 40
0
 40
0
 40
0
 40
1
 40
1
 40
1
 40
1
 10
70.400000
 20
39.360000
 30
0.0
 10
67.760000
 20
38.240000
 30
0.0
 10
64.160000
 20
37.680000
 30
0.0
 10
59.520000
 20
37.680000
 30
0.0
  0
LINE
  5
1ef
100
AcDbEntity
  8
0
 62
7
100
AcDbLine
 10
59.520000
 20
37.680000
 30
0.0
 11
39.840000
 21
37.680000
 31
0.0
  0
LINE
  5
1f0
100
AcDbEntity
  8
0
 62
7
100
AcDbLine
 10
39.840000
 20
37.680000
 30
0.0
 11
39.840000
 21
89.200000
 31
0.0
  0
LINE
  5
1f1
100
AcDbEntity
  8
0
 62
7
100
AcDbLine
 10
39.840000
 20
89.200000
 30
0.0
 11
59.200000
 21
89.200000
 31
0.0
  0
SPLINE
  5
1f2
100
AcDbEntity
  8
0
 62
7
100
AcDbSpline
 70
8
 71
3
 72
8
 73
4
 74
0
 40
0
 40
0
 40
0
 40
0
 40
1
 40
1
 40
1
 40
1
 10
59.200000
 20
89.200000
 30
0.0
 10
65.440000
 20
89.200000
 30
0.0
 10
69.840000
 20
87.840000
 30
0.0
 10
72.400000
 20
85.120000
 30
0.0
  0
SPLINE
  5
1f3
100
AcDbEntity
  8
0
 62
7
100
AcDbSpline
 70
8
 71
3
 72
8
 73
4
 74
0
 40
0
 40
0
 40
0
 40
0
 40
1
 40
1
 40
1
 40
1
 10
72.400000
 20
85.120000
 30
0.0
 10
74.960000
 20
82.400000
 30
0.0
 10
76.240000
 20
79.440000
 30
0.0
 10
76.240000
 20
76.080000
 30
0.0
  0
SPLINE
  5
1f4
100
AcDbEntity
  8
0
 62
7
100
AcDbSpline
 70
8
 71
3
 72
8
 73
4
 74
0
 40
0
 40
0
 40
0
 40
0
 40
1
 40
1
 40
1
 40
1
 10
76.240000
 20
76.080000
 30
0.0
 10
76.240000
 20
73.840000
 30
0.0
 10
75.680000
 20
71.760000
 30
0.0
 10
74.480000
 20
69.840000
 30
0.0
  0
SPLINE
  5
1f5
100
AcDbEntity
  8
0
 62
7
100
AcDbSpline
 70
8
 71
3
 72
8
 73
4
 74
0
 40
0
 40
0
 40
0
 40
0
 40
1
 40
1
 40
1
 40
1
 10
74.480000
 20
69.840000
 30
0.0
 10
73.280000
 20
67.920000
 30
0.0
 10
71.520000
 20
66.320000
 30
0.0
 10
69.120000
 20
65.120000
 30
0.0
  0
LINE
  5
1f6
100
AcDbEntity
  8
0
 62
7
100
AcDbLine
 10
69.120000
 20
65.120000
 30
0.0
 11
69.120000
 21
65.120000
 31
0.0
  0
LINE
  5
1f7
100
AcDbEntity
  8
0
 62
7
100
AcDbLine
 10
46.640000
 20
67.680000
 30
0.0
 11
57.840000
 21
67.680000
 31
0.0
  0
SPLINE
  5
1f8
100
AcDbEntity
  8
0
 62
7
100
AcDbSpline
 70
8
 71
3
 72
8
 73
4
 74
0
 40
0
 40
0
 40
0
 40
0
 40
1
 40
1
 40
1
 40
1
 10
57.840000
 20
67.680000
 30
0.0
 10
60.160000
 20
67.680000
 30
0.0
 10
62.080000
 20
67.760000
 30
0.0
 10
63.600000
 20
68.000000
 30
0.0
  0
SPLINE
  5
1f9
100
AcDbEntity
  8
0
 62
7
100
AcDbSpline
 70
8
 71
3
 72
8
 73
4
 74
0
 40
0
 40
0
 40
0
 40
0
 40
1
 40
1
 40
1
 40
1
 10
63.600000
 20
68.000000
 30
0.0
 10
65.200000
 20
68.320000
 30
0.0
 10
66.560000
 20
68.960000
 30
0.0
 10
67.760000
 20
70.080000
 30
0.0
  0
SPLINE
  5
1fa
100
AcDbEntity
  8
0
 62
7
100
AcDbSpline
 70
8
 71
3
 72
8
 73
4
 74
0
 40
0
 40
0
 40
0
 40
0
 40
1
 40
1
 40
1
 40
1
 10
67.760000
 20
70.080000
 30
0.0
 10
68.960000
 20
71.200000
 30
0.0
 10
69.520000
 20
72.880000
 30
0.0
 10
69.520000
 20
75.200000
 30
0.0
  0
SPLINE
  5
1fb
100
AcDbEntity
  8
0
 62
7
100
AcDbSpline
 70
8
 71
3
 72
8
 73
4
 74
0
 40
0
 40
0
 40
0
 40
0
 40
1
 40
1
 40
1
 40
1
 10
69.520000
 20
75.200000
 30
0.0
 10
69.520000
 20
77.680000
 30
0.0
 10
68.960000
 20
79.440000
 30
0.0
 10
67.760000
 20
80.640000
 30
0.0
  0
SPLINE
  5
1fc
100
AcDbEntity
  8
0
 62
7
100
AcDbSpline
 70
8
 71
3
 72
8
 73
4
 74
0
 40
0
 40
0
 40
0
 40
0
 40
1
 40
1
 40
1
 40
1
 10
67.760000
 20
80.640000
 30
0.0
 10
66.560000
 20
81.760000
 30
0.0
 10
65.120000
 20
82.480000
 30
0.0
 10
63.440000
 20
82.720000
 30
0.0
  0
SPLINE
  5
1fd
100
AcDbEntity
  8
0
 62
7
100
AcDbSpline
 70
8
 71
3
 72
8
 73
4
 74
0
 40
0
 40
0
 40
0
 40
0
 40
1
 40
1
 40
1
 40
1
 10
63.440000
 20
82.720000
 30
0.0
 10
61.760000
 20
82.960000
 30
0.0
 10
59.600000
 20
83.120000
 30
0.0
 10
56.960000
 20
83.120000
 30
0.0
  0
LINE
  5
1fe
100
AcDbEntity
  8
0
 62
7
100
AcDbLine
 10
56.960000
 20
83.120000
 30
0.0
 11
46.640000
 21
83.120000
 31
0.0
  0
LINE
  5
1ff
100
AcDbEntity
  8
0
 62
7
100
AcDbLine
 10
46.640000
 20
83.120000
 30
0.0
 11
46.640000
 21
67.680000
 31
0.0
  0
LINE
  5
200
100
AcDbEntity
  8
0
 62
7
100
AcDbLine
 10
46.640000
 20
67.680000
 30
0.0
 11
46.640000
 21
67.680000
 31
0.0
  0
LINE
  5
201
100
AcDbEntity
  8
0
 62
7
100
AcDbLine
 10
46.640000
 20
43.840000
 30
0.0
 11
59.520000
 21
43.840000
 31
0.0
  0
SPLINE
  5
202
100
AcDbEntity
  8
0
 62
7
100
AcDbSpline
 70
8
 71
3
 72
8
 73
4
 74
0
 40
0
 40
0
 40
0
 40
0
 40
1
 40
1
 40
1
 40
1
 10
59.520000
 20
43.840000
 30
0.0
 10
64.080000
 20
43.840000
 30
0.0
 10
67.280000
 20
44.560000
 30
0.0
 10
69.040000
 20
46.160000
 30
0.0
  0
SPLINE
  5
203
100
AcDbEntity
  8
0
 62
7
100
AcDbSpline
 70
8
 71
3
 72
8
 73
4
 74
0
 40
0
 40
0
 40
0
 40
0
 40
1
 40
1
 40
1
 40
1
 10
69.040000
 20
46.160000
 30
0.0
 10
70.800000
 20
47.760000
 30
0.0
 10
71.760000
 20
49.920000
 30
0.0
 10
71.760000
 20
52.640000
 30
0.0
  0
SPLINE
  5
204
100
AcDbEntity
  8
0
 62
7
100
AcDbSpline
 70
8
 71
3
 72
8
 73
4
 74
0
 40
0
 40
0
 40
0
 40
0
 40
1
 40
1
 40
1
 40
1
 10
71.760000
 20
52.640000
 30
0.0
 10
71.760000
 20
55.440000
 30
0.0
 10
70.800000
 20
57.600000
 30
0.0
 10
68.880000
 20
59.200000
 30
0.0
  0
SPLINE
  5
205
100
AcDbEntity
  8
0
 62
7
100
AcDbSpline
 70
8
 71
3
 72
8
 73
4
 74
0
 40
0
 40
0
 40
0
 40
0
 40
1
 40
1
 40
1
 40
1
 10
68.880000
 20
59.200000
 30
0.0
 10
66.960000
 20
60.720000
 30
0.0
 10
63.520000
 20
61.520000
 30
0.0
 10
58.640000
 20
61.520000
 30
0.0
  0
LINE
  5
206
100
AcDbEntity
  8
0
 62
7
100
AcDbLine
 10
58.640000
 20
61.520000
 30
0.0
 11
46.640000
 21
61.520000
 31
0.0
  0
LINE
  5
207
100
AcDbEntity
  8
0
 62
7
100
AcDbLine
 10
46.640000
 20
61.520000
 30
0.0
 11
46.640000
 21
43.840000
 31
0.0
  0
LINE
  5
208
100
AcDbEntity
  8
0
 62
7
100
AcDbLine
 10
46.640000
 20
43.840000
 30
0.0
 11
46.640000
 21
43.840000
 31
0.0
  0
LINE
  5
209
100
AcDbEntity
  8
0
 62
7
100
AcDbLine
 10
93.680000
 20
37.680000
 30
0.0
 11
87.360000
 21
37.680000
 31
0.0
  0
LINE
  5
20a
100
AcDbEntity
  8
0
 62
7
100
AcDbLine
 10
87.360000
 20
37.680000
 30
0.0
 11
87.360000
 21
74.960000
 31
0.0
  0
LINE
  5
20b
100
AcDbEntity
  8
0
 62
7
100
AcDbLine
 10
87.360000
 20
74.960000
 30
0.0
 11
93.680000
 21
74.960000
 31
0.0
  0
LINE
  5
20c
100
AcDbEntity
  8
0
 62
7
100
AcDbLine
 10
93.680000
 20
74.960000
 30
0.0
 11
93.680000
 21
37.680000
 31
0.0
  0
LINE
  5
20d
100
AcDbEntity
  8
0
 62
7
100
AcDbLine
 10
93.680000
 20
37.680000
 30
0.0
 11
93.680000
 21
37.680000
 31
0.0
  0
LINE
  5
20e
100
AcDbEntity
  8
0
 62
7
100
AcDbLine
 10
93.680000
 20
82.080000
 30
0.0
 11
87.360000
 21
82.080000
 31
0.0
  0
LINE
  5
20f
100
AcDbEntity
  8
0
 62
7
100
AcDbLine
 10
87.360000
 20
82.080000
 30
0.0
 11
87.360000
 21
89.200000
 31
0.0
  0
LINE
  5
210
100
AcDbEntity
  8
0
 62
7
100
AcDbLine
 10
87.360000
 20
89.200000
 30
0.0
 11
93.680000
 21
89.200000
 31
0.0
  0
LINE
  5
211
100
AcDbEntity
  8
0
 62
7
100
AcDbLine
 10
93.680000
 20
89.200000
 30
0.0
 11
93.680000
 21
82.080000
 31
0.0
  0
LINE
  5
212
100
AcDbEntity
  8
0
 62
7
100
AcDbLine
 10
93.680000
 20
82.080000
 30
0.0
 11
93.680000
 21
82.080000
 31
0.0
  0
SPLINE
  5
213
100
AcDbEntity
  8
0
 62
7
100
AcDbSpline
 70
8
 71
3
 72
8
 73
4
 74
0
 40
0
 40
0
 40
0
 40
0
 40
1
 40
1
 40
1
 40
1
 10
124.160000
 20
64.560000
 30
0.0
 10
123.840000
 20
66.560000
 30
0.0
 10
123.040000
 20
68.160000
 30
0.0
 10
121.680000
 20
69.120000
 30
0.0
  0
SPLINE
  5
214
100
AcDbEntity
  8
0
 62
7
100
AcDbSpline
 70
8
 71
3
 72
8
 73
4
 74
0
 40
0
 40
0
 40
0
 40
0
 40
1
 40
1
 40
1
 40
1
 10
121.680000
 20
69.120000
 30
0.0
 10
120.320000
 20
70.160000
 30
0.0
 10
118.400000
 20
70.640000
 30
0.0
 10
115.920000
 20
70.640000
 30
0.0
  0
SPLINE
  5
215
100
AcDbEntity
  8
0
 62
7
100
AcDbSpline
 70
8
 71
3
 72
8
 73
4
 74
0
 40
0
 40
0
 40
0
 40
0
 40
1
 40
1
 40
1
 40
1
 10
115.920000
 20
70.640000
 30
0.0
 10
113.520000
 20
70.640000
 30
0.0
 10
111.600000
 20
70.240000
 30
0.0
 10
110.080000
 20
69.440000
 30
0.0
  0
SPLINE
  5
216
100
AcDbEntity
  8
0
 62
7
100
AcDbSpline
 70
8
 71
3
 72
8
 73
4
 74
0
 40
0
 40
0
 40
0
 40
0
 40
1
 40
1
 40
1
 40
1
 10
110.080000
 20
69.440000
 30
0.0
 10
108.640000
 20
68.640000
 30
0.0
 10
107.840000
 20
67.440000
 30
0.0
 10
107.840000
 20
65.840000
 30
0.0
  0
SPLINE
  5
217
100
AcDbEntity
  8
0
 62
7
100
AcDbSpline
 70
8
 71
3
 72
8
 73
4
 74
0
 40
0
 40
0
 40
0
 40
0
 40
1
 40
1
 40
1
 40
1
 10
107.840000
 20
65.840000
 30
0.0
 10
107.840000
 20
64.400000
 30
0.0
 10
108.480000
 20
63.360000
 30
0.0
 10
109.600000
 20
62.720000
 30
0.0
  0
SPLINE
  5
218
100
AcDbEntity
  8
0
 62
7
100
AcDbSpline
 70
8
 71
3
 72
8
 73
4
 74
0
 40
0
 40
0
 40
0
 40
0
 40
1
 40
1
 40
1
 40
1
 10
109.600000
 20
62.720000
 30
0.0
 10
110.800000
 20
62.080000
 30
0.0
 10
113.120000
 20
61.280000
 30
0.0
 10
116.640000
 20
60.400000
 30
0.0
  0
SPLINE
  5
219
100
AcDbEntity
  8
0
 62
7
100
AcDbSpline
 70
8
 71
3
 72
8
 73
4
 74
0
 40
0
 40
0
 40
0
 40
0
 40
1
 40
1
 40
1
 40
1
 10
116.640000
 20
60.400000
 30
0.0
 10
120.560000
 20
59.360000
 30
0.0
 10
123.520000
 20
58.480000
 30
0.0
 10
125.520000
 20
57.680000
 30
0.0
  0
SPLINE
  5
21a
100
AcDbEntity
  8
0
 62
7
100
AcDbSpline
 70
8
 71
3
 72
8
 73
4
 74
0
 40
0
 40
0
 40
0
 40
0
 40
1
 40
1
 40
1
 40
1
 10
125.520000
 20
57.680000
 30
0.0
 10
127.440000
 20
56.960000
 30
0.0
 10
128.960000
 20
55.840000
 30
0.0
 10
130.080000
 20
54.480000
 30
0.0
  0
SPLINE
  5
21b
100
AcDbEntity
  8
0
 62
7
100
AcDbSpline
 70
8
 71
3
 72
8
 73
4
 74
0
 40
0
 40
0
 40
0
 40
0
 40
1
 40
1
 40
1
 40
1
 10
130.080000
 20
54.480000
 30
0.0
 10
131.120000
 20
53.040000
 30
0.0
 10
131.680000
 20
51.120000
 30
0.0
 10
131.680000
 20
48.640000
 30
0.0
  0
SPLINE
  5
21c
100
AcDbEntity
  8
0
 62
7
100
AcDbSpline
 70
8
 71
3
 72
8
 73
4
 74
0
 40
0
 40
0
 40
0
 40
0
 40
1
 40
1
 40
1
 40
1
 10
131.680000
 20
48.640000
 30
0.0
 10
131.680000
 20
45.280000
 30
0.0
 10
130.320000
 20
42.480000
 30
0.0
 10
127.600000
 20
40.240000
 30
0.0
  0
SPLINE
  5
21d
100
AcDbEntity
  8
0
 62
7
100
AcDbSpline
 70
8
 71
3
 72
8
 73
4
 74
0
 40
0
 40
0
 40
0
 40
0
 40
1
 40
1
 40
1
 40
1
 10
127.600000
 20
40.240000
 30
0.0
 10
124.880000
 20
37.920000
 30
0.0
 10
121.280000
 20
36.800000
 30
0.0
 10
116.720000
 20
36.800000
 30
0.0
  0
SPLINE
  5
21e
100
AcDbEntity
  8
0
 62
7
100
AcDbSpline
 70
8
 71
3
 72
8
 73
4
 74
0
 40
0
 40
0
 40
0
 40
0
 40
1
 40
1
 40
1
 40
1
 10
116.720000
 20
36.800000
 30
0.0
 10
112.000000
 20
36.800000
 30
0.0
 10
108.320000
 20
37.840000
 30
0.0
 10
105.600000
 20
39.840000
 30
0.0
  0
SPLINE
  5
21f
100
AcDbEntity
  8
0
 62
7
100
AcDbSpline
 70
8
 71
3
 72
8
 73
4
 74
0
 40
0
 40
0
 40
0
 40
0
 40
1
 40
1
 40
1
 40
1
 10
105.600000
 20
39.840000
 30
0.0
 10
102.960000
 20
41.840000
 30
0.0
 10
101.360000
 20
44.800000
 30
0.0
 10
100.720000
 20
48.800000
 30
0.0
  0
LINE
  5
220
100
AcDbEntity
  8
0
 62
7
100
AcDbLine
 10
100.720000
 20
48.800000
 30
0.0
 11
107.040000
 21
49.760000
 31
0.0
  0
SPLINE
  5
221
100
AcDbEntity
  8
0
 62
7
100
AcDbSpline
 70
8
 71
3
 72
8
 73
4
 74
0
 40
0
 40
0
 40
0
 40
0
 40
1
 40
1
 40
1
 40
1
 10
107.040000
 20
49.760000
 30
0.0
 10
107.360000
 20
47.200000
 30
0.0
 10
108.320000
 20
45.280000
 30
0.0
 10
109.920000
 20
43.920000
 30
0.0
  0
SPLINE
  5
222
100
AcDbEntity
  8
0
 62
7
100
AcDbSpline
 70
8
 71
3
 72
8
 73
4
 74
0
 40
0
 40
0
 40
0
 40
0
 40
1
 40
1
 40
1
 40
1
 10
109.920000
 20
43.920000
 30
0.0
 10
111.520000
 20
42.640000
 30
0.0
 10
113.760000
 20
42.000000
 30
0.0
 10
116.640000
 20
42.000000
 30
0.0
  0
SPLINE
  5
223
100
AcDbEntity
  8
0
 62
7
100
AcDbSpline
 70
8
 71
3
 72
8
 73
4
 74
0
 40
0
 40
0
 40
0
 40
0
 40
1
 40
1
 40
1
 40
1
 10
116.640000
 20
42.000000
 30
0.0
 10
119.440000
 20
42.000000
 30
0.0
 10
121.520000
 20
42.560000
 30
0.0
 10
123.040000
 20
43.760000
 30
0.0
  0
SPLINE
  5
224
100
AcDbEntity
  8
0
 62
7
100
AcDbSpline
 70
8
 71
3
 72
8
 73
4
 74
0
 40
0
 40
0
 40
0
 40
0
 40
1
 40
1
 40
1
 40
1
 10
123.040000
 20
43.760000
 30
0.0
 10
124.480000
 20
44.880000
 30
0.0
 10
125.200000
 20
46.320000
 30
0.0
 10
125.200000
 20
48.000000
 30
0.0
  0
SPLINE
  5
225
100
AcDbEntity
  8
0
 62
7
100
AcDbSpline
 70
8
 71
3
 72
8
 73
4
 74
0
 40
0
 40
0
 40
0
 40
0
 40
1
 40
1
 40
1
 40
1
 10
125.200000
 20
48.000000
 30
0.0
 10
125.200000
 20
49.120000
 30
0.0
 10
124.880000
 20
50.000000
 30
0.0
 10
124.240000
 20
50.720000
 30
0.0
  0
SPLINE
  5
226
100
AcDbEntity
  8
0
 62
7
100
AcDbSpline
 70
8
 71
3
 72
8
 73
4
 74
0
 40
0
 40
0
 40
0
 40
0
 40
1
 40
1
 40
1
 40
1
 10
124.240000
 20
50.720000
 30
0.0
 10
123.520000
 20
51.360000
 30
0.0
 10
122.640000
 20
51.920000
 30
0.0
 10
121.680000
 20
52.240000
 30
0.0
  0
SPLINE
  5
227
100
AcDbEntity
  8
0
 62
7
100
AcDbSpline
 70
8
 71
3
 72
8
 73
4
 74
0
 40
0
 40
0
 40
0
 40
0
 40
1
 40
1
 40
1
 40
1
 10
121.680000
 20
52.240000
 30
0.0
 10
120.640000
 20
52.560000
 30
0.0
 10
118.320000
 20
53.200000
 30
0.0
 10
114.800000
 20
54.080000
 30
0.0
  0
SPLINE
  5
228
100
AcDbEntity
  8
0
 62
7
100
AcDbSpline
 70
8
 71
3
 72
8
 73
4
 74
0
 40
0
 40
0
 40
0
 40
0
 40
1
 40
1
 40
1
 40
1
 10
114.800000
 20
54.080000
 30
0.0
 10
109.520000
 20
55.280000
 30
0.0
 10
106.000000
 20
56.880000
 30
0.0
 10
104.320000
 20
58.640000
 30
0.0
  0
SPLINE
  5
229
100
AcDbEntity
  8
0
 62
7
100
AcDbSpline
 70
8
 71
3
 72
8
 73
4
 74
0
 40
0
 40
0
 40
0
 40
0
 40
1
 40
1
 40
1
 40
1
 10
104.320000
 20
58.640000
 30
0.0
 10
102.560000
 20
60.480000
 30
0.0
 10
101.760000
 20
62.640000
 30
0.0
 10
101.760000
 20
65.120000
 30
0.0
  0
SPLINE
  5
22a
100
AcDbEntity
  8
0
 62
7
100
AcDbSpline
 70
8
 71
3
 72
8
 73
4
 74
0
 40
0
 40
0
 40
0
 40
0
 40
1
 40
1
 40
1
 40
1
 10
101.760000
 20
65.120000
 30
0.0
 10
101.760000
 20
68.240000
 30
0.0
 10
102.960000
 20
70.800000
 30
0.0
 10
105.440000
 20
72.800000
 30
0.0
  0
SPLINE
  5
22b
100
AcDbEntity
  8
0
 62
7
100
AcDbSpline
 70
8
 71
3
 72
8
 73
4
 74
0
 40
0
 40
0
 40
0
 40
0
 40
1
 40
1
 40
1
 40
1
 10
105.440000
 20
72.800000
 30
0.0
 10
107.920000
 20
74.800000
 30
0.0
 10
111.280000
 20
75.840000
 30
0.0
 10
115.520000
 20
75.840000
 30
0.0
  0
SPLINE
  5
22c
100
AcDbEntity
  8
0
 62
7
100
AcDbSpline
 70
8
 71
3
 72
8
 73
4
 74
0
 40
0
 40
0
 40
0
 40
0
 40
1
 40
1
 40
1
 40
1
 10
115.520000
 20
75.840000
 30
0.0
 10
119.920000
 20
75.840000
 30
0.0
 10
123.440000
 20
74.960000
 30
0.0
 10
125.840000
 20
73.200000
 30
0.0
  0
SPLINE
  5
22d
100
AcDbEntity
  8
0
 62
7
100
AcDbSpline
 70
8
 71
3
 72
8
 73
4
 74
0
 40
0
 40
0
 40
0
 40
0
 40
1
 40
1
 40
1
 40
1
 10
125.840000
 20
73.200000
 30
0.0
 10
128.320000
 20
71.440000
 30
0.0
 10
129.840000
 20
68.880000
 30
0.0
 10
130.320000
 20
65.360000
 30
0.0
  0
LINE
  5
22e
100
AcDbEntity
  8
0
 62
7
100
AcDbLine
 10
130.320000
 20
65.360000
 30
0.0
 11
124.160000
 21
64.560000
 31
0.0
  0
LINE
  5
22f
100
AcDbEntity
  8
0
 62
7
100
AcDbLine
 10
124.160000
 20
64.560000
 30
0.0
 11
124.160000
 21
64.560000
 31
0.0
  0
SPLINE
  5
230
100
AcDbEntity
  8
0
 62
7
100
AcDbSpline
 70
8
 71
3
 72
8
 73
4
 74
0
 40
0
 40
0
 40
0
 40
0
 40
1
 40
1
 40
1
 40
1
 10
153.920000
 20
37.760000
 30
0.0
 10
152.000000
 20
37.360000
 30
0.0
 10
150.400000
 20
37.200000
 30
0.0
 10
149.120000
 20
37.200000
 30
0.0
  0
SPLINE
  5
231
100
AcDbEntity
  8
0
 62
7
100
AcDbSpline
 70
8
 71
3
 72
8
 73
4
 74
0
 40
0
 40
0
 40
0
 40
0
 40
1
 40
1
 40
1
 40
1
 10
149.120000
 20
37.200000
 30
0.0
 10
146.400000
 20
37.200000
 30
0.0
 10
144.320000
 20
37.680000
 30
0.0
 10
143.120000
 20
38.640000
 30
0.0
  0
SPLINE
  5
232
100
AcDbEntity
  8
0
 62
7
100
AcDbSpline
 70
8
 71
3
 72
8
 73
4
 74
0
 40
0
 40
0
 40
0
 40
0
 40
1
 40
1
 40
1
 40
1
 10
143.120000
 20
38.640000
 30
0.0
 10
141.840000
 20
39.600000
 30
0.0
 10
141.040000
 20
40.880000
 30
0.0
 10
140.800000
 20
42.400000
 30
0.0
  0
SPLINE
  5
233
100
AcDbEntity
  8
0
 62
7
100
AcDbSpline
 70
8
 71
3
 72
8
 73
4
 74
0
 40
0
 40
0
 40
0
 40
0
 40
1
 40
1
 40
1
 40
1
 10
140.800000
 20
42.400000
 30
0.0
 10
140.480000
 20
43.840000
 30
0.0
 10
140.320000
 20
45.920000
 30
0.0
 10
140.320000
 20
48.640000
 30
0.0
  0
LINE
  5
234
100
AcDbEntity
  8
0
 62
7
100
AcDbLine
 10
140.320000
 20
48.640000
 30
0.0
 11
140.320000
 21
70.080000
 31
0.0
  0
LINE
  5
235
100
AcDbEntity
  8
0
 62
7
100
AcDbLine
 10
140.320000
 20
70.080000
 30
0.0
 11
135.760000
 21
70.080000
 31
0.0
  0
LINE
  5
236
100
AcDbEntity
  8
0
 62
7
100
AcDbLine
 10
135.760000
 20
70.080000
 30
0.0
 11
135.760000
 21
74.960000
 31
0.0
  0
LINE
  5
237
100
AcDbEntity
  8
0
 62
7
100
AcDbLine
 10
135.760000
 20
74.960000
 30
0.0
 11
140.320000
 21
74.960000
 31
0.0
  0
LINE
  5
238
100
AcDbEntity
  8
0
 62
7
100
AcDbLine
 10
140.320000
 20
74.960000
 30
0.0
 11
140.320000
 21
84.240000
 31
0.0
  0
LINE
  5
239
100
AcDbEntity
  8
0
 62
7
100
AcDbLine
 10
140.320000
 20
84.240000
 30
0.0
 11
146.640000
 21
88.080000
 31
0.0
  0
LINE
  5
23a
100
AcDbEntity
  8
0
 62
7
100
AcDbLine
 10
146.640000
 20
88.080000
 30
0.0
 11
146.640000
 21
74.960000
 31
0.0
  0
LINE
  5
23b
100
AcDbEntity
  8
0
 62
7
100
AcDbLine
 10
146.640000
 20
74.960000
 30
0.0
 11
153.040000
 21
74.960000
 31
0.0
  0
LINE
  5
23c
100
AcDbEntity
  8
0
 62
7
100
AcDbLine
 10
153.040000
 20
74.960000
 30
0.0
 11
153.040000
 21
70.080000
 31
0.0
  0
LINE
  5
23d
100
AcDbEntity
  8
0
 62
7
100
AcDbLine
 10
153.040000
 20
70.080000
 30
0.0
 11
146.640000
 21
70.080000
 31
0.0
  0
LINE
  5
23e
100
AcDbEntity
  8
0
 62
7
100
AcDbLine
 10
146.640000
 20
70.080000
 30
0.0
 11
146.640000
 21
48.240000
 31
0.0
  0
SPLINE
  5
23f
100
AcDbEntity
  8
0
 62
7
100
AcDbSpline
 70
8
 71
3
 72
8
 73
4
 74
0
 40
0
 40
0
 40
0
 40
0
 40
1
 40
1
 40
1
 40
1
 10
146.640000
 20
48.240000
 30
0.0
 10
146.640000
 20
46.400000
 30
0.0
 10
146.880000
 20
45.040000
 30
0.0
 10
147.280000
 20
44.320000
 30
0.0
  0
SPLINE
  5
240
100
AcDbEntity
  8
0
 62
7
100
AcDbSpline
 70
8
 71
3
 72
8
 73
4
 74
0
 40
0
 40
0
 40
0
 40
0
 40
1
 40
1
 40
1
 40
1
 10
147.280000
 20
44.320000
 30
0.0
 10
147.680000
 20
43.520000
 30
0.0
 10
148.640000
 20
43.120000
 30
0.0
 10
150.160000
 20
43.120000
 30
0.0
  0
SPLINE
  5
241
100
AcDbEntity
  8
0
 62
7
100
AcDbSpline
 70
8
 71
3
 72
8
 73
4
 74
0
 40
0
 40
0
 40
0
 40
0
 40
1
 40
1
 40
1
 40
1
 10
150.160000
 20
43.120000
 30
0.0
 10
151.120000
 20
43.120000
 30
0.0
 10
152.080000
 20
43.200000
 30
0.0
 10
153.040000
 20
43.360000
 30
0.0
  0
LINE
  5
242
100
AcDbEntity
  8
0
 62
7
100
AcDbLine
 10
153.040000
 20
43.360000
 30
0.0
 11
153.920000
 21
37.760000
 31
0.0
  0
LINE
  5
243
100
AcDbEntity
  8
0
 62
7
100
AcDbLine
 10
153.920000
 20
37.760000
 30
0.0
 11
153.920000
 21
37.760000
 31
0.0
  0
SPLINE
  5
244
100
AcDbEntity
  8
0
 62
7
100
AcDbSpline
 70
8
 71
3
 72
8
 73
4
 74
0
 40
0
 40
0
 40
0
 40
0
 40
1
 40
1
 40
1
 40
1
 10
174.480000
 20
75.840000
 30
0.0
 10
179.520000
 20
75.840000
 30
0.0
 10
183.760000
 20
74.160000
 30
0.0
 10
187.040000
 20
70.880000
 30
0.0
  0
SPLINE
  5
245
100
AcDbEntity
  8
0
 62
7
100
AcDbSpline
 70
8
 71
3
 72
8
 73
4
 74
0
 40
0
 40
0
 40
0
 40
0
 40
1
 40
1
 40
1
 40
1
 10
187.040000
 20
70.880000
 30
0.0
 10
190.400000
 20
67.600000
 30
0.0
 10
192.000000
 20
62.960000
 30
0.0
 10
192.000000
 20
56.960000
 30
0.0
  0
SPLINE
  5
246
100
AcDbEntity
  8
0
 62
7
100
AcDbSpline
 70
8
 71
3
 72
8
 73
4
 74
0
 40
0
 40
0
 40
0
 40
0
 40
1
 40
1
 40
1
 40
1
 10
192.000000
 20
56.960000
 30
0.0
 10
192.000000
 20
49.600000
 30
0.0
 10
190.240000
 20
44.400000
 30
0.0
 10
186.640000
 20
41.360000
 30
0.0
  0
SPLINE
  5
247
100
AcDbEntity
  8
0
 62
7
100
AcDbSpline
 70
8
 71
3
 72
8
 73
4
 74
0
 40
0
 40
0
 40
0
 40
0
 40
1
 40
1
 40
1
 40
1
 10
186.640000
 20
41.360000
 30
0.0
 10
183.040000
 20
38.320000
 30
0.0
 10
179.040000
 20
36.800000
 30
0.0
 10
174.480000
 20
36.800000
 30
0.0
  0
SPLINE
  5
248
100
AcDbEntity
  8
0
 62
7
100
AcDbSpline
 70
8
 71
3
 72
8
 73
4
 74
0
 40
0
 40
0
 40
0
 40
0
 40
1
 40
1
 40
1
 40
1
 10
174.480000
 20
36.800000
 30
0.0
 10
169.840000
 20
36.800000
 30
0.0
 10
165.680000
 20
38.400000
 30
0.0
 10
162.240000
 20
41.520000
 30
0.0
  0
SPLINE
  5
249
100
AcDbEntity
  8
0
 62
7
100
AcDbSpline
 70
8
 71
3
 72
8
 73
4
 74
0
 40
0
 40
0
 40
0
 40
0
 40
1
 40
1
 40
1
 40
1
 10
162.240000
 20
41.520000
 30
0.0
 10
158.800000
 20
44.640000
 30
0.0
 10
157.040000
 20
49.520000
 30
0.0
 10
157.040000
 20
56.320000
 30
0.0
  0
SPLINE
  5
24a
100
AcDbEntity
  8
0
 62
7
100
AcDbSpline
 70
8
 71
3
 72
8
 73
4
 74
0
 40
0
 40
0
 40
0
 40
0
 40
1
 40
1
 40
1
 40
1
 10
157.040000
 20
56.320000
 30
0.0
 10
157.040000
 20
62.880000
 30
0.0
 10
158.720000
 20
67.760000
 30
0.0
 10
162.080000
 20
71.040000
 30
0.0
  0
SPLINE
  5
24b
100
AcDbEntity
  8
0
 62
7
100
AcDbSpline
 70
8
 71
3
 72
8
 73
4
 74
0
 40
0
 40
0
 40
0
 40
0
 40
1
 40
1
 40
1
 40
1
 10
162.080000
 20
71.040000
 30
0.0
 10
165.440000
 20
74.240000
 30
0.0
 10
169.600000
 20
75.840000
 30
0.0
 10
174.480000
 20
75.840000
 30
0.0
  0
LINE
  5
24c
100
AcDbEntity
  8
0
 62
7
100
AcDbLine
 10
174.480000
 20
75.840000
 30
0.0
 11
174.480000
 21
75.840000
 31
0.0
  0
SPLINE
  5
24d
100
AcDbEntity
  8
0
 62
7
100
AcDbSpline
 70
8
 71
3
 72
8
 73
4
 74
0
 40
0
 40
0
 40
0
 40
0
 40
1
 40
1
 40
1
 40
1
 10
174.480000
 20
42.000000
 30
0.0
 10
178.160000
 20
42.000000
 30
0.0
 10
180.880000
 20
43.360000
 30
0.0
 10
182.720000
 20
46.000000
 30
0.0
  0
SPLINE
  5
24e
100
AcDbEntity
  8
0
 62
7
100
AcDbSpline
 70
8
 71
3
 72
8
 73
4
 74
0
 40
0
 40
0
 40
0
 40
0
 40
1
 40
1
 40
1
 40
1
 10
182.720000
 20
46.000000
 30
0.0
 10
184.640000
 20
48.720000
 30
0.0
 10
185.520000
 20
52.240000
 30
0.0
 10
185.520000
 20
56.560000
 30
0.0
  0
SPLINE
  5
24f
100
AcDbEntity
  8
0
 62
7
100
AcDbSpline
 70
8
 71
3
 72
8
 73
4
 74
0
 40
0
 40
0
 40
0
 40
0
 40
1
 40
1
 40
1
 40
1
 10
185.520000
 20
56.560000
 30
0.0
 10
185.520000
 20
61.200000
 30
0.0
 10
184.480000
 20
64.720000
 30
0.0
 10
182.400000
 20
67.120000
 30
0.0
  0
SPLINE
  5
250
100
AcDbEntity
  8
0
 62
7
100
AcDbSpline
 70
8
 71
3
 72
8
 73
4
 74
0
 40
0
 40
0
 40
0
 40
0
 40
1
 40
1
 40
1
 40
1
 10
182.400000
 20
67.120000
 30
0.0
 10
180.240000
 20
69.520000
 30
0.0
 10
177.600000
 20
70.640000
 30
0.0
 10
174.480000
 20
70.640000
 30
0.0
  0
SPLINE
  5
251
100
AcDbEntity
  8
0
 62
7
100
AcDbSpline
 70
8
 71
3
 72
8
 73
4
 74
0
 40
0
 40
0
 40
0
 40
0
 40
1
 40
1
 40
1
 40
1
 10
174.480000
 20
70.640000
 30
0.0
 10
171.280000
 20
70.640000
 30
0.0
 10
168.640000
 20
69.440000
 30
0.0
 10
166.640000
 20
67.040000
 30
0.0
  0
SPLINE
  5
252
100
AcDbEntity
  8
0
 62
7
100
AcDbSpline
 70
8
 71
3
 72
8
 73
4
 74
0
 40
0
 40
0
 40
0
 40
0
 40
1
 40
1
 40
1
 40
1
 10
166.640000
 20
67.040000
 30
0.0
 10
164.560000
 20
64.640000
 30
0.0
 10
163.520000
 20
61.120000
 30
0.0
 10
163.520000
 20
56.320000
 30
0.0
  0
SPLINE
  5
253
100
AcDbEntity
  8
0
 62
7
100
AcDbSpline
 70
8
 71
3
 72
8
 73
4
 74
0
 40
0
 40
0
 40
0
 40
0
 40
1
 40
1
 40
1
 40
1
 10
163.520000
 20
56.320000
 30
0.0
 10
163.520000
 20
51.600000
 30
0.0
 10
164.560000
 20
48.000000
 30
0.0
 10
166.640000
 20
45.600000
 30
0.0
  0
SPLINE
  5
254
100
AcDbEntity
  8
0
 62
7
100
AcDbSpline
 70
8
 71
3
 72
8
 73
4
 74
0
 40
0
 40
0
 40
0
 40
0
 40
1
 40
1
 40
1
 40
1
 10
166.640000
 20
45.600000
 30
0.0
 10
168.720000
 20
43.200000
 30
0.0
 10
171.360000
 20
42.000000
 30
0.0
 10
174.480000
 20
42.000000
 30
0.0
  0
LINE
  5
255
100
AcDbEntity
  8
0
 62
7
100
AcDbLine
 10
174.480000
 20
42.000000
 30
0.0
 11
174.480000
 21
42.000000
 31
0.0
  0
LINE
  5
256
100
AcDbEntity
  8
0
 62
7
100
AcDbLine
 10
229.600000
 20
37.680000
 30
0.0
 11
223.920000
 21
37.680000
 31
0.0
  0
LINE
  5
257
100
AcDbEntity
  8
0
 62
7
100
AcDbLine
 10
223.920000
 20
37.680000
 30
0.0
 11
223.920000
 21
43.200000
 31
0.0
  0
LINE
  5
258
100
AcDbEntity
  8
0
 62
7
100
AcDbLine
 10
223.920000
 20
43.200000
 30
0.0
 11
223.760000
 21
43.200000
 31
0.0
  0
SPLINE
  5
259
100
AcDbEntity
  8
0
 62
7
100
AcDbSpline
 70
8
 71
3
 72
8
 73
4
 74
0
 40
0
 40
0
 40
0
 40
0
 40
1
 40
1
 40
1
 40
1
 10
223.760000
 20
43.200000
 30
0.0
 10
220.880000
 20
38.960000
 30
0.0
 10
217.040000
 20
36.800000
 30
0.0
 10
212.080000
 20
36.800000
 30
0.0
  0
SPLINE
  5
25a
100
AcDbEntity
  8
0
 62
7
100
AcDbSpline
 70
8
 71
3
 72
8
 73
4
 74
0
 40
0
 40
0
 40
0
 40
0
 40
1
 40
1
 40
1
 40
1
 10
212.080000
 20
36.800000
 30
0.0
 10
209.440000
 20
36.800000
 30
0.0
 10
207.040000
 20
37.440000
 30
0.0
 10
204.800000
 20
38.640000
 30
0.0
  0
SPLINE
  5
25b
100
AcDbEntity
  8
0
 62
7
100
AcDbSpline
 70
8
 71
3
 72
8
 73
4
 74
0
 40
0
 40
0
 40
0
 40
0
 40
1
 40
1
 40
1
 40
1
 10
204.800000
 20
38.640000
 30
0.0
 10
202.640000
 20
39.840000
 30
0.0
 10
201.120000
 20
41.520000
 30
0.0
 10
200.400000
 20
43.600000
 30
0.0
  0
SPLINE
  5
25c
100
AcDbEntity
  8
0
 62
7
100
AcDbSpline
 70
8
 71
3
 72
8
 73
4
 74
0
 40
0
 40
0
 40
0
 40
0
 40
1
 40
1
 40
1
 40
1
 10
200.400000
 20
43.600000
 30
0.0
 10
199.680000
 20
45.760000
 30
0.0
 10
199.280000
 20
48.480000
 30
0.0
 10
199.280000
 20
51.840000
 30
0.0
  0
LINE
  5
25d
100
AcDbEntity
  8
0
 62
7
100
AcDbLine
 10
199.280000
 20
51.840000
 30
0.0
 11
199.280000
 21
74.960000
 31
0.0
  0
LINE
  5
25e
100
AcDbEntity
  8
0
 62
7
100
AcDbLine
 10
199.280000
 20
74.960000
 30
0.0
 11
205.600000
 21
74.960000
 31
0.0
  0
LINE
  5
25f
100
AcDbEntity
  8
0
 62
7
100
AcDbLine
 10
205.600000
 20
74.960000
 30
0.0
 11
205.600000
 21
54.320000
 31
0.0
  0
SPLINE
  5
260
100
AcDbEntity
  8
0
 62
7
100
AcDbSpline
 70
8
 71
3
 72
8
 73
4
 74
0
 40
0
 40
0
 40
0
 40
0
 40
1
 40
1
 40
1
 40
1
 10
205.600000
 20
54.320000
 30
0.0
 10
205.600000
 20
51.040000
 30
0.0
 10
205.760000
 20
48.640000
 30
0.0
 10
206.080000
 20
47.200000
 30
0.0
  0
SPLINE
  5
261
100
AcDbEntity
  8
0
 62
7
100
AcDbSpline
 70
8
 71
3
 72
8
 73
4
 74
0
 40
0
 40
0
 40
0
 40
0
 40
1
 40
1
 40
1
 40
1
 10
206.080000
 20
47.200000
 30
0.0
 10
206.400000
 20
45.760000
 30
0.0
 10
207.280000
 20
44.640000
 30
0.0
 10
208.560000
 20
43.680000
 30
0.0
  0
SPLINE
  5
262
100
AcDbEntity
  8
0
 62
7
100
AcDbSpline
 70
8
 71
3
 72
8
 73
4
 74
0
 40
0
 40
0
 40
0
 40
0
 40
1
 40
1
 40
1
 40
1
 10
208.560000
 20
43.680000
 30
0.0
 10
209.920000
 20
42.800000
 30
0.0
 10
211.520000
 20
42.320000
 30
0.0
 10
213.360000
 20
42.320000
 30
0.0
  0
SPLINE
  5
263
100
AcDbEntity
  8
0
 62
7
100
AcDbSpline
 70
8
 71
3
 72
8
 73
4
 74
0
 40
0
 40
0
 40
0
 40
0
 40
1
 40
1
 40
1
 40
1
 10
213.360000
 20
42.320000
 30
0.0
 10
215.760000
 20
42.320000
 30
0.0
 10
218.000000
 20
43.120000
 30
0.0
 10
220.080000
 20
44.800000
 30
0.0
  0
SPLINE
  5
264
100
AcDbEntity
  8
0
 62
7
100
AcDbSpline
 70
8
 71
3
 72
8
 73
4
 74
0
 40
0
 40
0
 40
0
 40
0
 40
1
 40
1
 40
1
 40
1
 10
220.080000
 20
44.800000
 30
0.0
 10
222.240000
 20
46.400000
 30
0.0
 10
223.280000
 20
49.840000
 30
0.0
 10
223.280000
 20
55.040000
 30
0.0
  0
LINE
  5
265
100
AcDbEntity
  8
0
 62
7
100
AcDbLine
 10
223.280000
 20
55.040000
 30
0.0
 11
223.280000
 21
74.960000
 31
0.0
  0
LINE
  5
266
100
AcDbEntity
  8
0
 62
7
100
AcDbLine
 10
223.280000
 20
74.960000
 30
0.0
 11
229.600000
 21
74.960000
 31
0.0
  0
LINE
  5
267
100
AcDbEntity
  8
0
 62
7
100
AcDbLine
 10
229.600000
 20
74.960000
 30
0.0
 11
229.600000
 21
37.680000
 31
0.0
  0
LINE
  5
268
100
AcDbEntity
  8
0
 62
7
100
AcDbLine
 10
229.600000
 20
37.680000
 30
0.0
 11
229.600000
 21
37.680000
 31
0.0
  0
LINE
  5
269
100
AcDbEntity
  8
0
 62
7
100
AcDbLine
 10
245.760000
 20
37.680000
 30
0.0
 11
239.440000
 21
37.680000
 31
0.0
  0
LINE
  5
26a
100
AcDbEntity
  8
0
 62
7
100
AcDbLine
 10
239.440000
 20
37.680000
 30
0.0
 11
239.440000
 21
74.960000
 31
0.0
  0
LINE
  5
26b
100
AcDbEntity
  8
0
 62
7
100
AcDbLine
 10
239.440000
 20
74.960000
 30
0.0
 11
245.760000
 21
74.960000
 31
0.0
  0
LINE
  5
26c
100
AcDbEntity
  8
0
 62
7
100
AcDbLine
 10
245.760000
 20
74.960000
 30
0.0
 11
245.760000
 21
37.680000
 31
0.0
  0
LINE
  5
26d
100
AcDbEntity
  8
0
 62
7
100
AcDbLine
 10
245.760000
 20
37.680000
 30
0.0
 11
245.760000
 21
37.680000
 31
0.0
  0
LINE
  5
26e
100
AcDbEntity
  8
0
 62
7
100
AcDbLine
 10
245.760000
 20
82.080000
 30
0.0
 11
239.440000
 21
82.080000
 31
0.0
  0
LINE
  5
26f
100
AcDbEntity
  8
0
 62
7
100
AcDbLine
 10
239.440000
 20
82.080000
 30
0.0
 11
239.440000
 21
89.200000
 31
0.0
  0
LINE
  5
270
100
AcDbEntity
  8
0
 62
7
100
AcDbLine
 10
239.440000
 20
89.200000
 30
0.0
 11
245.760000
 21
89.200000
 31
0.0
  0
LINE
  5
271
100
AcDbEntity
  8
0
 62
7
100
AcDbLine
 10
245.760000
 20
89.200000
 30
0.0
 11
245.760000
 21
82.080000
 31
0.0
  0
LINE
  5
272
100
AcDbEntity
  8
0
 62
7
100
AcDbLine
 10
245.760000
 20
82.080000
 30
0.0
 11
245.760000
 21
82.080000
 31
0.0
  0
LINE
  5
273
100
AcDbEntity
  8
0
 62
7
100
AcDbLine
 10
261.760000
 20
37.680000
 30
0.0
 11
255.440000
 21
37.680000
 31
0.0
  0
LINE
  5
274
100
AcDbEntity
  8
0
 62
7
100
AcDbLine
 10
255.440000
 20
37.680000
 30
0.0
 11
255.440000
 21
89.200000
 31
0.0
  0
LINE
  5
275
100
AcDbEntity
  8
0
 62
7
100
AcDbLine
 10
255.440000
 20
89.200000
 30
0.0
 11
261.760000
 21
89.200000
 31
0.0
  0
LINE
  5
276
100
AcDbEntity
  8
0
 62
7
100
AcDbLine
 10
261.760000
 20
89.200000
 30
0.0
 11
261.760000
 21
37.680000
 31
0.0
  0
LINE
  5
277
100
AcDbEntity
  8
0
 62
7
100
AcDbLine
 10
261.760000
 20
37.680000
 30
0.0
 11
261.760000
 21
37.680000
 31
0.0
  0
LINE
  5
278
100
AcDbEntity
  8
0
 62
7
100
AcDbLine
 10
277.760000
 20
37.680000
 30
0.0
 11
271.440000
 21
37.680000
 31
0.0
  0
LINE
  5
279
100
AcDbEntity
  8
0
 62
7
100
AcDbLine
 10
271.440000
 20
37.680000
 30
0.0
 11
271.440000
 21
89.200000
 31
0.0
  0
LINE
  5
27a
100
AcDbEntity
  8
0
 62
7
100
AcDbLine
 10
271.440000
 20
89.200000
 30
0.0
 11
277.760000
 21
89.200000
 31
0.0
  0
LINE
  5
27b
100
AcDbEntity
  8
0
 62
7
100
AcDbLine
 10
277.760000
 20
89.200000
 30
0.0
 11
277.760000
 21
37.680000
 31
0.0
  0
LINE
  5
27c
100
AcDbEntity
  8
0
 62
7
100
AcDbLine
 10
277.760000
 20
37.680000
 30
0.0
 11
277.760000
 21
37.680000
 31
0.0
  0
LINE
  5
27d
100
AcDbEntity
  8
0
 62
7
100
AcDbLine
 10
319.840000
 20
54.720000
 30
0.0
 11
291.840000
 21
54.720000
 31
0.0
  0
SPLINE
  5
27e
100
AcDbEntity
  8
0
 62
7
100
AcDbSpline
 70
8
 71
3
 72
8
 73
4
 74
0
 40
0
 40
0
 40
0
 40
0
 40
1
 40
1
 40
1
 40
1
 10
291.840000
 20
54.720000
 30
0.0
 10
292.160000
 20
50.640000
 30
0.0
 10
293.280000
 20
47.440000
 30
0.0
 10
295.440000
 20
45.280000
 30
0.0
  0
SPLINE
  5
27f
100
AcDbEntity
  8
0
 62
7
100
AcDbSpline
 70
8
 71
3
 72
8
 73
4
 74
0
 40
0
 40
0
 40
0
 40
0
 40
1
 40
1
 40
1
 40
1
 10
295.440000
 20
45.280000
 30
0.0
 10
297.520000
 20
43.120000
 30
0.0
 10
300.080000
 20
42.000000
 30
0.0
 10
303.280000
 20
42.000000
 30
0.0
  0
SPLINE
  5
280
100
AcDbEntity
  8
0
 62
7
100
AcDbSpline
 70
8
 71
3
 72
8
 73
4
 74
0
 40
0
 40
0
 40
0
 40
0
 40
1
 40
1
 40
1
 40
1
 10
303.280000
 20
42.000000
 30
0.0
 10
305.680000
 20
42.000000
 30
0.0
 10
307.680000
 20
42.640000
 30
0.0
 10
309.360000
 20
43.920000
 30
0.0
  0
SPLINE
  5
281
100
AcDbEntity
  8
0
 62
7
100
AcDbSpline
 70
8
 71
3
 72
8
 73
4
 74
0
 40
0
 40
0
 40
0
 40
0
 40
1
 40
1
 40
1
 40
1
 10
309.360000
 20
43.920000
 30
0.0
 10
310.960000
 20
45.200000
 30
0.0
 10
312.240000
 20
47.120000
 30
0.0
 10
313.120000
 20
49.680000
 30
0.0
  0
LINE
  5
282
100
AcDbEntity
  8
0
 62
7
100
AcDbLine
 10
313.120000
 20
49.680000
 30
0.0
 11
319.600000
 21
48.880000
 31
0.0
  0
SPLINE
  5
283
100
AcDbEntity
  8
0
 62
7
100
AcDbSpline
 70
8
 71
3
 72
8
 73
4
 74
0
 40
0
 40
0
 40
0
 40
0
 40
1
 40
1
 40
1
 40
1
 10
319.600000
 20
48.880000
 30
0.0
 10
318.560000
 20
45.040000
 30
0.0
 10
316.640000
 20
42.000000
 30
0.0
 10
313.840000
 20
39.920000
 30
0.0
  0
SPLINE
  5
284
100
AcDbEntity
  8
0
 62
7
100
AcDbSpline
 70
8
 71
3
 72
8
 73
4
 74
0
 40
0
 40
0
 40
0
 40
0
 40
1
 40
1
 40
1
 40
1
 10
313.840000
 20
39.920000
 30
0.0
 10
310.960000
 20
37.840000
 30
0.0
 10
307.440000
 20
36.800000
 30
0.0
 10
303.280000
 20
36.800000
 30
0.0
  0
SPLINE
  5
285
100
AcDbEntity
  8
0
 62
7
100
AcDbSpline
 70
8
 71
3
 72
8
 73
4
 74
0
 40
0
 40
0
 40
0
 40
0
 40
1
 40
1
 40
1
 40
1
 10
303.280000
 20
36.800000
 30
0.0
 10
297.680000
 20
36.800000
 30
0.0
 10
293.280000
 20
38.560000
 30
0.0
 10
290.160000
 20
42.000000
 30
0.0
  0
SPLINE
  5
286
100
AcDbEntity
  8
0
 62
7
100
AcDbSpline
 70
8
 71
3
 72
8
 73
4
 74
0
 40
0
 40
0
 40
0
 40
0
 40
1
 40
1
 40
1
 40
1
 10
290.160000
 20
42.000000
 30
0.0
 10
286.960000
 20
45.360000
 30
0.0
 10
285.440000
 20
50.080000
 30
0.0
 10
285.440000
 20
56.080000
 30
0.0
  0
SPLINE
  5
287
100
AcDbEntity
  8
0
 62
7
100
AcDbSpline
 70
8
 71
3
 72
8
 73
4
 74
0
 40
0
 40
0
 40
0
 40
0
 40
1
 40
1
 40
1
 40
1
 10
285.440000
 20
56.080000
 30
0.0
 10
285.440000
 20
61.920000
 30
0.0
 10
286.960000
 20
66.720000
 30
0.0
 10
290.000000
 20
70.320000
 30
0.0
  0
SPLINE
  5
288
100
AcDbEntity
  8
0
 62
7
100
AcDbSpline
 70
8
 71
3
 72
8
 73
4
 74
0
 40
0
 40
0
 40
0
 40
0
 40
1
 40
1
 40
1
 40
1
 10
290.000000
 20
70.320000
 30
0.0
 10
293.040000
 20
74.000000
 30
0.0
 10
297.360000
 20
75.840000
 30
0.0
 10
302.880000
 20
75.840000
 30
0.0
  0
SPLINE
  5
289
100
AcDbEntity
  8
0
 62
7
100
AcDbSpline
 70
8
 71
3
 72
8
 73
4
 74
0
 40
0
 40
0
 40
0
 40
0
 40
1
 40
1
 40
1
 40
1
 10
302.880000
 20
75.840000
 30
0.0
 10
305.600000
 20
75.840000
 30
0.0
 10
308.240000
 20
75.280000
 30
0.0
 10
310.800000
 20
74.080000
 30
0.0
  0
SPLINE
  5
28a
100
AcDbEntity
  8
0
 62
7
100
AcDbSpline
 70
8
 71
3
 72
8
 73
4
 74
0
 40
0
 40
0
 40
0
 40
0
 40
1
 40
1
 40
1
 40
1
 10
310.800000
 20
74.080000
 30
0.0
 10
313.280000
 20
72.880000
 30
0.0
 10
315.440000
 20
70.800000
 30
0.0
 10
317.200000
 20
67.920000
 30
0.0
  0
SPLINE
  5
28b
100
AcDbEntity
  8
0
 62
7
100
AcDbSpline
 70
8
 71
3
 72
8
 73
4
 74
0
 40
0
 40
0
 40
0
 40
0
 40
1
 40
1
 40
1
 40
1
 10
317.200000
 20
67.920000
 30
0.0
 10
318.960000
 20
65.040000
 30
0.0
 10
319.840000
 20
60.640000
 30
0.0
 10
319.840000
 20
54.720000
 30
0.0
  0
LINE
  5
28c
100
AcDbEntity
  8
0
 62
7
100
AcDbLine
 10
319.840000
 20
54.720000
 30
0.0
 11
319.840000
 21
54.720000
 31
0.0
  0
SPLINE
  5
28d
100
AcDbEntity
  8
0
 62
7
100
AcDbSpline
 70
8
 71
3
 72
8
 73
4
 74
0
 40
0
 40
0
 40
0
 40
0
 40
1
 40
1
 40
1
 40
1
 10
313.280000
 20
59.920000
 30
0.0
 10
313.040000
 20
63.760000
 30
0.0
 10
311.840000
 20
66.480000
 30
0.0
 10
309.760000
 20
68.160000
 30
0.0
  0
SPLINE
  5
28e
100
AcDbEntity
  8
0
 62
7
100
AcDbSpline
 70
8
 71
3
 72
8
 73
4
 74
0
 40
0
 40
0
 40
0
 40
0
 40
1
 40
1
 40
1
 40
1
 10
309.760000
 20
68.160000
 30
0.0
 10
307.680000
 20
69.840000
 30
0.0
 10
305.360000
 20
70.640000
 30
0.0
 10
302.880000
 20
70.640000
 30
0.0
  0
SPLINE
  5
28f
100
AcDbEntity
  8
0
 62
7
100
AcDbSpline
 70
8
 71
3
 72
8
 73
4
 74
0
 40
0
 40
0
 40
0
 40
0
 40
1
 40
1
 40
1
 40
1
 10
302.880000
 20
70.640000
 30
0.0
 10
299.920000
 20
70.640000
 30
0.0
 10
297.520000
 20
69.680000
 30
0.0
 10
295.600000
 20
67.680000
 30
0.0
  0
SPLINE
  5
290
100
AcDbEntity
  8
0
 62
7
100
AcDbSpline
 70
8
 71
3
 72
8
 73
4
 74
0
 40
0
 40
0
 40
0
 40
0
 40
1
 40
1
 40
1
 40
1
 10
295.600000
 20
67.680000
 30
0.0
 10
293.600000
 20
65.680000
 30
0.0
 10
292.560000
 20
63.120000
 30
0.0
 10
292.240000
 20
59.920000
 30
0.0
  0
LINE
  5
291
100
AcDbEntity
  8
0
 62
7
100
AcDbLine
 10
292.240000
 20
59.920000
 30
0.0
 11
313.280000
 21
59.920000
 31
0.0
  0
LINE
  5
292
100
AcDbEntity
  8
0
 62
7
100
AcDbLine
 10
313.280000
 20
59.920000
 30
0.0
 11
313.280000
 21
59.920000
 31
0.0
  0
LINE
  5
293
100
AcDbEntity
  8
0
 62
7
100
AcDbLine
 10
336.240000
 20
37.680000
 30
0.0
 11
329.040000
 21
37.680000
 31
0.0
  0
LINE
  5
294
100
AcDbEntity
  8
0
 62
7
100
AcDbLine
 10
329.040000
 20
37.680000
 30
0.0
 11
329.040000
 21
44.880000
 31
0.0
  0
LINE
  5
295
100
AcDbEntity
  8
0
 62
7
100
AcDbLine
 10
329.040000
 20
44.880000
 30
0.0
 11
336.240000
 21
44.880000
 31
0.0
  0
LINE
  5
296
100
AcDbEntity
  8
0
 62
7
100
AcDbLine
 10
336.240000
 20
44.880000
 30
0.0
 11
336.240000
 21
37.680000
 31
0.0
  0
LINE
  5
297
100
AcDbEntity
  8
0
 62
7
100
AcDbLine
 10
336.240000
 20
37.680000
 30
0.0
 11
336.240000
 21
37.680000
 31
0.0
  0
LINE
  5
298
100
AcDbEntity
  8
0
 62
7
100
AcDbLine
 10
365.040000
 20
89.520000
 30
0.0
 11
364.080000
 21
83.920000
 31
0.0
  0
SPLINE
  5
299
100
AcDbEntity
  8
0
 62
7
100
AcDbSpline
 70
8
 71
3
 72
8
 73
4
 74
0
 40
0
 40
0
 40
0
 40
0
 40
1
 40
1
 40
1
 40
1
 10
364.080000
 20
83.920000
 30
0.0
 10
362.800000
 20
84.160000
 30
0.0
 10
361.600000
 20
84.240000
 30
0.0
 10
360.320000
 20
84.240000
 30
0.0
  0
SPLINE
  5
29a
100
AcDbEntity
  8
0
 62
7
100
AcDbSpline
 70
8
 71
3
 72
8
 73
4
 74
0
 40
0
 40
0
 40
0
 40
0
 40
1
 40
1
 40
1
 40
1
 10
360.320000
 20
84.240000
 30
0.0
 10
358.800000
 20
84.240000
 30
0.0
 10
357.600000
 20
83.920000
 30
0.0
 10
356.640000
 20
83.280000
 30
0.0
  0
SPLINE
  5
29b
100
AcDbEntity
  8
0
 62
7
100
AcDbSpline
 70
8
 71
3
 72
8
 73
4
 74
0
 40
0
 40
0
 40
0
 40
0
 40
1
 40
1
 40
1
 40
1
 10
356.640000
 20
83.280000
 30
0.0
 10
355.600000
 20
82.640000
 30
0.0
 10
355.120000
 20
81.040000
 30
0.0
 10
355.120000
 20
78.480000
 30
0.0
  0
LINE
  5
29c
100
AcDbEntity
  8
0
 62
7
100
AcDbLine
 10
355.120000
 20
78.480000
 30
0.0
 11
355.120000
 21
74.960000
 31
0.0
  0
LINE
  5
29d
100
AcDbEntity
  8
0
 62
7
100
AcDbLine
 10
355.120000
 20
74.960000
 30
0.0
 11
362.320000
 21
74.960000
 31
0.0
  0
LINE
  5
29e
100
AcDbEntity
  8
0
 62
7
100
AcDbLine
 10
362.320000
 20
74.960000
 30
0.0
 11
362.320000
 21
70.080000
 31
0.0
  0
LINE
  5
29f
100
AcDbEntity
  8
0
 62
7
100
AcDbLine
 10
362.320000
 20
70.080000
 30
0.0
 11
355.120000
 21
70.080000
 31
0.0
  0
LINE
  5
2a0
100
AcDbEntity
  8
0
 62
7
100
AcDbLine
 10
355.120000
 20
70.080000
 30
0.0
 11
355.120000
 21
37.680000
 31
0.0
  0
LINE
  5
2a1
100
AcDbEntity
  8
0
 62
7
100
AcDbLine
 10
355.120000
 20
37.680000
 30
0.0
 11
348.800000
 21
37.680000
 31
0.0
  0
LINE
  5
2a2
100
AcDbEntity
  8
0
 62
7
100
AcDbLine
 10
348.800000
 20
37.680000
 30
0.0
 11
348.800000
 21
70.080000
 31
0.0
  0
LINE
  5
2a3
100
AcDbEntity
  8
0
 62
7
100
AcDbLine
 10
348.800000
 20
70.080000
 30
0.0
 11
343.200000
 21
70.080000
 31
0.0
  0
LINE
  5
2a4
100
AcDbEntity
  8
0
 62
7
100
AcDbLine
 10
343.200000
 20
70.080000
 30
0.0
 11
343.200000
 21
74.960000
 31
0.0
  0
LINE
  5
2a5
100
AcDbEntity
  8
0
 62
7
100
AcDbLine
 10
343.200000
 20
74.960000
 30
0.0
 11
348.800000
 21
74.960000
 31
0.0
  0
LINE
  5
2a6
100
AcDbEntity
  8
0
 62
7
100
AcDbLine
 10
348.800000
 20
74.960000
 30
0.0
 11
348.800000
 21
79.040000
 31
0.0
  0
SPLINE
  5
2a7
100
AcDbEntity
  8
0
 62
7
100
AcDbSpline
 70
8
 71
3
 72
8
 73
4
 74
0
 40
0
 40
0
 40
0
 40
0
 40
1
 40
1
 40
1
 40
1
 10
348.800000
 20
79.040000
 30
0.0
 10
348.800000
 20
80.880000
 30
0.0
 10
348.960000
 20
82.640000
 30
0.0
 10
349.360000
 20
84.160000
 30
0.0
  0
SPLINE
  5
2a8
100
AcDbEntity
  8
0
 62
7
100
AcDbSpline
 70
8
 71
3
 72
8
 73
4
 74
0
 40
0
 40
0
 40
0
 40
0
 40
1
 40
1
 40
1
 40
1
 10
349.360000
 20
84.160000
 30
0.0
 10
349.680000
 20
85.680000
 30
0.0
 10
350.640000
 20
87.040000
 30
0.0
 10
352.160000
 20
88.240000
 30
0.0
  0
SPLINE
  5
2a9
100
AcDbEntity
  8
0
 62
7
100
AcDbSpline
 70
8
 71
3
 72
8
 73
4
 74
0
 40
0
 40
0
 40
0
 40
0
 40
1
 40
1
 40
1
 40
1
 10
352.160000
 20
88.240000
 30
0.0
 10
353.680000
 20
89.520000
 30
0.0
 10
356.000000
 20
90.080000
 30
0.0
 10
359.120000
 20
90.080000
 30
0.0
  0
SPLINE
  5
2aa
100
AcDbEntity
  8
0
 62
7
100
AcDbSpline
 70
8
 71
3
 72
8
 73
4
 74
0
 40
0
 40
0
 40
0
 40
0
 40
1
 40
1
 40
1
 40
1
 10
359.120000
 20
90.080000
 30
0.0
 10
360.960000
 20
90.080000
 30
0.0
 10
362.960000
 20
89.920000
 30
0.0
 10
365.040000
 20
89.520000
 30
0.0
  0
LINE
  5
2ab
100
AcDbEntity
  8
0
 62
7
100
AcDbLine
 10
365.040000
 20
89.520000
 30
0.0
 11
365.040000
 21
89.520000
 31
0.0
  0
LINE
  5
2ac
100
AcDbEntity
  8
0
 62
7
100
AcDbLine
 10
387.600000
 20
73.840000
 30
0.0
 11
385.360000
 21
68.000000
 31
0.0
  0
SPLINE
  5
2ad
100
AcDbEntity
  8
0
 62
7
100
AcDbSpline
 70
8
 71
3
 72
8
 73
4
 74
0
 40
0
 40
0
 40
0
 40
0
 40
1
 40
1
 40
1
 40
1
 10
385.360000
 20
68.000000
 30
0.0
 10
383.840000
 20
68.880000
 30
0.0
 10
382.240000
 20
69.360000
 30
0.0
 10
380.800000
 20
69.360000
 30
0.0
  0
SPLINE
  5
2ae
100
AcDbEntity
  8
0
 62
7
100
AcDbSpline
 70
8
 71
3
 72
8
 73
4
 74
0
 40
0
 40
0
 40
0
 40
0
 40
1
 40
1
 40
1
 40
1
 10
380.800000
 20
69.360000
 30
0.0
 10
378.400000
 20
69.360000
 30
0.0
 10
376.640000
 20
68.320000
 30
0.0
 10
375.440000
 20
66.160000
 30
0.0
  0
SPLINE
  5
2af
100
AcDbEntity
  8
0
 62
7
100
AcDbSpline
 70
8
 71
3
 72
8
 73
4
 74
0
 40
0
 40
0
 40
0
 40
0
 40
1
 40
1
 40
1
 40
1
 10
375.440000
 20
66.160000
 30
0.0
 10
374.160000
 20
64.080000
 30
0.0
 10
373.600000
 20
61.120000
 30
0.0
 10
373.600000
 20
57.280000
 30
0.0
  0
LINE
  5
2b0
100
AcDbEntity
  8
0
 62
7
100
AcDbLine
 10
373.600000
 20
57.280000
 30
0.0
 11
373.600000
 21
37.680000
 31
0.0
  0
LINE
  5
2b1
100
AcDbEntity
  8
0
 62
7
100
AcDbLine
 10
373.600000
 20
37.680000
 30
0.0
 11
367.280000
 21
37.680000
 31
0.0
  0
LINE
  5
2b2
100
AcDbEntity
  8
0
 62
7
100
AcDbLine
 10
367.280000
 20
37.680000
 30
0.0
 11
367.280000
 21
74.960000
 31
0.0
  0
LINE
  5
2b3
100
AcDbEntity
  8
0
 62
7
100
AcDbLine
 10
367.280000
 20
74.960000
 30
0.0
 11
373.040000
 21
74.960000
 31
0.0
  0
LINE
  5
2b4
100
AcDbEntity
  8
0
 62
7
100
AcDbLine
 10
373.040000
 20
74.960000
 30
0.0
 11
373.040000
 21
69.360000
 31
0.0
  0
LINE
  5
2b5
100
AcDbEntity
  8
0
 62
7
100
AcDbLine
 10
373.040000
 20
69.360000
 30
0.0
 11
373.120000
 21
69.360000
 31
0.0
  0
SPLINE
  5
2b6
100
AcDbEntity
  8
0
 62
7
100
AcDbSpline
 70
8
 71
3
 72
8
 73
4
 74
0
 40
0
 40
0
 40
0
 40
0
 40
1
 40
1
 40
1
 40
1
 10
373.120000
 20
69.360000
 30
0.0
 10
375.200000
 20
73.680000
 30
0.0
 10
377.840000
 20
75.840000
 30
0.0
 10
381.040000
 20
75.840000
 30
0.0
  0
SPLINE
  5
2b7
100
AcDbEntity
  8
0
 62
7
100
AcDbSpline
 70
8
 71
3
 72
8
 73
4
 74
0
 40
0
 40
0
 40
0
 40
0
 40
1
 40
1
 40
1
 40
1
 10
381.040000
 20
75.840000
 30
0.0
 10
383.200000
 20
75.840000
 30
0.0
 10
385.360000
 20
75.200000
 30
0.0
 10
387.600000
 20
73.840000
 30
0.0
  0
LINE
  5
2b8
100
AcDbEntity
  8
0
 62
7
100
AcDbLine
 10
387.600000
 20
73.840000
 30
0.0
 11
387.600000
 21
73.840000
 31
0.0
  0
ENDSEC
  0
SECTION
  2
OBJECTS
  0
DICTIONARY
  5
C
330
0
100
AcDbDictionary
  3
ACAD_GROUP
350
D
  3
ACAD_MLINESTYLE
350
17
  0
DICTIONARY
  5
D
330
C
100
AcDbDictionary
  0
DICTIONARY
  5
1A
330
C
100
AcDbDictionary
  0
DICTIONARY
  5
17
330
C
100
AcDbDictionary
  3
STANDARD
350
18
  0
DICTIONARY
  5
19
330
C
100
AcDbDictionary
  0
ENDSEC
  0
EOF
