<?xml version="1.0" encoding="UTF-8" standalone="no"?>
<svg
   xmlns:dc="http://purl.org/dc/elements/1.1/"
   xmlns:cc="http://creativecommons.org/ns#"
   xmlns:rdf="http://www.w3.org/1999/02/22-rdf-syntax-ns#"
   xmlns:svg="http://www.w3.org/2000/svg"
   xmlns="http://www.w3.org/2000/svg"
   xmlns:sodipodi="http://sodipodi.sourceforge.net/DTD/sodipodi-0.dtd"
   xmlns:inkscape="http://www.inkscape.org/namespaces/inkscape"
   width="744.1"
   height="1052.4"
   version="1.1"
   id="svg31"
   sodipodi:docname="Superhero 10 (Bistouille.fr).svg"
   inkscape:version="0.92.2 (5c3e80d, 2017-08-06)">
  <metadata
     id="metadata35">
    <rdf:RDF>
      <cc:Work
         rdf:about="">
        <dc:format>image/svg+xml</dc:format>
        <dc:type
           rdf:resource="http://purl.org/dc/dcmitype/StillImage" />
      </cc:Work>
    </rdf:RDF>
  </metadata>
  <sodipodi:namedview
     pagecolor="#ffffff"
     bordercolor="#666666"
     borderopacity="1"
     objecttolerance="10"
     gridtolerance="10"
     guidetolerance="10"
     inkscape:pageopacity="0"
     inkscape:pageshadow="2"
     inkscape:window-width="756"
     inkscape:window-height="480"
     id="namedview33"
     showgrid="false"
     inkscape:zoom="0.22424933"
     inkscape:cx="372.04999"
     inkscape:cy="526.20001"
     inkscape:window-x="0"
     inkscape:window-y="0"
     inkscape:window-maximized="0"
     inkscape:current-layer="svg31" />
  <defs
     id="defs2" />
  <path
     id="0"
     stroke-width="0.9"
     stroke="#FF0000"
     stroke-opacity="1"
     fill="#111111"
     fill-opacity="1"
     fill-rule="evenodd"
     stroke-linecap="round"
     stroke-linejoin="round"
     d="M558.2,914.6 C558.2,909.7 554.3,896.8 551.4,892.2 549.1,888.5 549.2,888 552.3,883 555,878.6 555.3,877.2 553.9,874.5 552.8,872.4 552.7,870.5 553.7,868.8 556.1,864.4 555.3,861.5 550.8,858 548.4,856.2 544.7,852.5 542.7,849.8 539.2,845.1 539.1,844.6 541,838.6 542.2,834.8 542.6,829.3 542.1,824.7 541,814.7 543.3,817.2 546.7,829.8 550.3,842.9 550,842.4 555.7,844.3 560.7,845.8 560.9,846.1 564.1,857.7 570.3,879.7 574.7,898.3 575.2,903.8 575.6,909.2 575.6,909.3 570.7,910.3 567.7,910.9 564.5,912.6 562.6,914.7 560.9,916.5 559.2,918.1 558.8,918.1 558.5,918.1 558.2,916.5 558.2,914.6 Z M200.3,879.6 C197.9,876.9 208.1,864.5 216.9,859.5 222.2,856.5 236.4,852.1 246.9,850.2 255.5,848.6 257.4,845.3 252.3,840.6 250.6,839 247.3,834.6 245.1,830.9 241.5,824.9 240.4,824.1 235.2,822.9 228,821.3 225.5,820 223.7,816.8 221.4,812.9 223.6,812.3 231,815 231,815 237.8,817.6 237.8,817.6 237.8,817.6 242.2,815.3 242.2,815.3 249.1,811.8 249.2,809.3 243.1,802.5 243.1,802.5 237.8,796.5 237.8,796.5 237.8,796.5 241.4,794.2 241.4,794.2 245.7,791.6 248.8,785.8 247.4,783.3 246.6,781.8 246.7,781.8 248.7,783.1 250,784 253.1,788.1 255.6,792.4 255.6,792.4 260.3,800.1 260.3,800.1 260.3,800.1 256.9,804.3 256.9,804.3 252.6,809.5 253.8,810.4 266.8,811.2 276,811.8 277,812.1 278.6,814.6 281.1,818.7 289.5,824 298.7,827.3 303.1,828.8 306.9,830.2 307.2,830.4 308.1,830.8 302.8,836.9 301.5,836.9 300.8,836.9 297.3,836.2 293.7,835.4 290.2,834.5 285.9,833.9 284.2,833.9 281.6,833.9 281.3,834.3 282.2,837.1 283.9,842.9 286.3,843.7 301.8,843.9 319.6,844.1 339.6,845.9 338.9,847.3 337.9,849.5 323,854.1 312.2,855.6 306.1,856.5 295.9,857.2 289.5,857.2 283,857.2 275.5,857.6 272.6,858.2 269.8,858.7 261.6,859.9 254.4,860.7 232.4,863.3 230.1,864 218.6,871.4 207.1,878.7 201.8,881.1 200.3,879.6 Z M439.4,863 C436.3,861.8 429.5,858 424.2,854.7 418.8,851.3 411.5,846.9 407.9,844.8 401.4,841.2 401.3,841 402.3,836.4 402.9,833.9 403.8,831.8 404.4,831.8 405,831.8 406.6,833.8 408.1,836.1 411.2,841 412.2,840.6 416.7,832.6 420.6,825.3 420.6,825 416.8,824.2 413.7,823.6 396.5,816.8 389.3,813.4 384,811 383.9,811 382.9,814.6 382,817.4 381.4,817.6 375.8,817.6 370.1,817.6 368.5,817 358.1,810.3 343.5,800.8 338.9,794.3 347,794.3 351.3,794.3 350.7,793.4 343.9,789.5 338.9,786.6 337.8,785.4 337.8,782.3 337.7,779.2 336.3,777.6 329.4,772.7 321.1,766.8 321,766.8 315.8,767.9 312.9,768.6 310.1,769.5 309.7,770 309.2,770.5 310.3,774.6 312,779.1 313.8,783.7 314.7,787.7 314.2,788.1 311.7,789.7 291.7,788.4 276.5,785.6 267.6,784 260.3,782.4 260.3,782 260.3,781.7 263.6,779.1 267.5,776.3 271.5,773.5 278.1,768.1 282.2,764.3 282.2,764.3 289.6,757.4 289.6,757.4 289.6,757.4 287.4,753.3 287.4,753.3 284.1,747.3 279.9,747.3 260.8,753.7 252.3,756.5 243.8,758.8 242,758.8 238.6,758.8 238.6,758.8 239.5,744.8 240,737.2 241.5,726.8 242.8,721.8 246.5,707.3 246.1,708 250.5,709.1 252.7,709.6 257.7,710.1 261.8,710.1 270.1,710.1 280.8,706 287.3,700.2 287.3,700.2 291.1,696.9 291.1,696.9 291.1,696.9 285.5,695.4 285.5,695.4 282.5,694.5 274.3,693.1 267.5,692.2 260.6,691.3 254.8,690.5 254.6,690.4 254.4,690.2 255.9,687.5 258,684.4 261.1,679.6 262.5,678.6 265.5,678.6 270.5,678.6 271.8,676.9 268.7,674.6 265.4,672.1 261.8,664.1 261.8,659 261.8,654.3 264.8,651.3 281.6,639.6 288,635.1 294.6,630.1 296.2,628.4 304,620.6 320.9,592.7 326.4,578.7 331.8,564.8 342.9,548.1 357,532.4 362.9,525.8 363.5,524.3 358.9,527.1 346.9,534.3 331,556.3 314.8,588.3 309.8,598 303.7,608.6 301.1,611.8 298.6,615 285.9,626.2 273.1,636.7 247.3,657.7 234.8,669.6 221.6,685.7 211.5,698.1 206.3,703 203.2,703 196.9,703 171.8,681.2 162.4,667.5 157.3,659.9 141.5,610 139.3,593.9 138.6,589.3 141,554.9 142.5,548.8 142.8,547.4 143.1,545.3 143.2,544.1 143.2,542.9 144.6,540.8 146.3,539.5 148.9,537.5 149.5,537.3 150.8,538.6 153.5,541.3 152.5,551 148.5,562 143.2,576.5 142.3,585.5 145.5,591.4 146.9,593.9 148.7,597.5 149.6,599.5 151.9,605.1 159,615.7 160.4,615.7 162.7,615.7 172.1,611.2 172.1,610 172.2,609.4 168.5,607.2 164,605.1 158.5,602.6 154.9,600 153,597.2 153,597.2 150.2,593.1 150.2,593.1 150.2,593.1 154.4,588.2 154.4,588.2 158.3,583.5 158.5,582.5 158.5,570.1 158.5,570.1 158.5,557 158.5,557 158.5,557 163.8,555.7 163.8,555.7 170.3,554.2 170.5,552.9 164.8,550.1 160.9,548.2 160.6,547.5 161.4,543.5 162.3,539.3 162.5,539.1 167.3,539.4 173.3,539.7 173.5,538.4 168.4,533.3 163.6,528.7 163.6,527.4 168.5,521.8 168.5,521.8 172.4,517.4 172.4,517.4 172.4,517.4 178.3,520.5 178.3,520.5 181.5,522.2 184.8,525 185.7,526.6 187.6,530.3 188.7,530.2 194.7,526.2 201,521.8 204.3,514.2 203.9,504.9 203.8,500.8 204.5,496.3 205.4,494.7 208.2,490.1 207.6,487.9 203.7,487.9 198.2,487.9 194.2,490.4 186.5,498.6 182.6,502.7 178.9,506.2 178.2,506.2 176.4,506.2 169.5,492.7 165.5,481 163.5,475.2 161.5,470.3 161.1,470.1 160.8,469.8 159.3,469.9 157.9,470.2 155.1,471 154.6,479 156.9,486.9 158.1,490.7 157.9,491.7 155.8,492.8 153.5,493.9 153,493.5 151.5,488.2 150.5,485 148.3,479.6 146.5,476.2 144.7,472.9 142.9,466.7 142.4,462.5 141.7,454.9 142.5,454.7 146.3,461.8 148,465 150.7,465.3 155.3,462.8 158.3,461.1 158.4,460.8 156.3,455.6 153.8,449.4 154.5,443.7 160.8,416.7 162.8,408 165.5,394.1 166.8,385.8 169.4,369.2 171.7,360.4 173.7,359.6 177.6,357.9 178.3,381.3 175.1,407.9 175.1,407.9 173.2,423.7 173.2,423.7 173.2,423.7 178.2,431.7 178.2,431.7 184.1,441.2 184.5,441.9 191.2,458.8 196.5,472.3 197.4,473.9 199.2,472.1 201.6,469.8 216.7,462.6 218,463.1 221.4,464.6 227,474.6 233,489.9 239.2,506.2 247.1,520.4 249.2,519 249.7,518.6 249.3,513.8 248.2,508.3 248.2,508.3 246.3,498.3 246.3,498.3 246.3,498.3 252.2,492.4 252.2,492.4 255.4,489.2 258.7,486.4 259.6,486.2 261.7,485.7 265.8,490.7 267,495.3 267.6,497.4 268.5,499 269.1,499 269.7,499 273,495 276.5,490.2 283.5,480.4 291.5,471.7 293.4,471.7 294.7,471.7 302.3,484.8 303.8,489.7 304.6,492.5 303.9,493.6 298.9,497.4 295.6,499.9 290.2,504.9 286.9,508.7 280.2,516.3 274.4,519.3 266.4,519.4 261.8,519.4 260.5,520 257,523.9 252.6,528.7 243.6,532.5 236.7,532.5 233.3,532.5 232.8,532.2 233.4,530.3 233.9,529 234.7,524.6 235.2,520.4 236.2,513.1 236,512.6 231.5,507.9 229,505.2 226.9,502.4 226.9,501.7 226.9,499.8 217.6,498.6 216,500.3 215.3,501 214.8,503.2 214.7,505.2 214.7,510.3 210.9,518.4 206.4,522.8 201.4,527.7 201.1,536.8 205.6,542.7 205.6,542.7 208.6,546.7 208.6,546.7 208.6,546.7 203.9,552 203.9,552 201.3,555 197.5,559.9 195.4,563 189.6,571.6 175.2,597.3 175.2,598.9 175.2,601 184.5,610.7 185.9,610.1 186.5,609.9 187.5,608.1 188,606.1 188.6,604.1 190.7,599.1 192.8,594.9 195.2,589.9 196.5,584.9 196.5,580.6 196.5,574.7 197,573.5 201.2,570 207.2,564.9 209.9,564 214.7,565.3 216.8,565.9 221.6,566.4 225.3,566.5 230.6,566.5 232.2,566.9 232.7,568.4 233.6,571.6 231.6,574.8 224.3,581.9 220.4,585.7 216.1,591.1 214.6,593.9 210.1,602.4 205.4,615.8 205.9,618.7 206.3,620.8 207.8,619.5 214.3,611.2 226.6,595.6 228,594.2 231.3,594.9 233.5,595.4 236.1,593.7 243.3,587.3 248.3,582.8 256.1,577.2 260.6,575 269,570.8 270.4,568.9 270.8,561.4 270.9,558.1 271.7,557 274.6,555.9 276.6,555.2 279.4,552.7 280.8,550.2 282.2,547.8 285.7,543.8 288.6,541.2 293.9,536.5 294,536.4 291.6,533.1 288.3,528.4 288.5,525.1 293.2,512.6 297,502.5 297.5,501.8 303.1,499.4 307.2,497.5 309.4,495.7 310.5,493 311.5,490.5 313.8,488.4 317.2,486.8 323.9,483.7 326.3,480.8 332.6,468.4 336.1,461.5 337.8,456.2 337.8,452.4 337.8,446 340.7,435.1 342.4,435.1 344.1,435.1 347.6,442.1 356.7,463.4 365.7,484.3 371.8,494.1 379,498.6 381.4,500.2 383.4,501.2 383.4,500.9 383.4,500.6 380.4,495.8 376.8,490.3 369,478.6 361.5,463.5 357.5,451.4 353.2,438.7 353.2,438.7 360.8,441.3 364.2,442.5 367.3,443.2 367.8,442.9 368.2,442.6 367.2,438.9 365.5,434.7 365.5,434.7 362.4,427 362.4,427 362.4,427 367.6,424.2 367.6,424.2 372.1,421.8 372.6,421 371.8,418.1 371.1,415.5 371.8,414.1 375.1,411.2 375.1,411.2 379.2,407.6 379.2,407.6 379.2,407.6 384.8,411.2 384.8,411.2 387.9,413.3 390.9,414.6 391.5,414.2 392.1,413.8 392.5,410.7 392.5,407.2 392.5,400 395.4,392.8 399.8,389.1 399.8,389.1 402.8,386.5 402.8,386.5 402.8,386.5 407.5,391.6 407.5,391.6 410,394.3 413.2,396.6 414.4,396.6 418.7,396.6 427.2,402.7 435.9,411.9 440.6,416.9 445.3,420.9 446.3,420.9 449.4,420.9 454.8,417.9 457.4,414.5 458.8,412.8 461.5,407.7 463.3,403.2 463.3,403.2 466.6,395.1 466.6,395.1 466.6,395.1 468.3,400.4 468.3,400.4 469.2,403.4 470,406.6 470,407.5 470,410.3 472.6,407.8 479.7,398.1 488,386.6 492.3,382.2 506.6,370.2 512.9,364.9 523.1,356 529.3,350.4 535.4,344.9 543.4,337.8 547,334.9 550.7,331.9 553.6,328.9 553.6,328.3 553.6,327.6 549.2,324.7 543.9,321.8 533.2,315.9 533.5,315.9 527.8,323.5 520.5,333.2 481.2,373.5 474.3,378.4 468.9,382.3 462.8,384.7 460.8,383.9 457.5,382.5 460.1,372.9 466,364.7 472.2,355.9 487.3,338.6 505.3,319.6 511.9,312.7 517.1,306.7 516.8,306.3 516.1,305.1 503.3,298.2 501.9,298.2 501.1,298.2 499.7,299.2 498.7,300.5 494,306.4 461.8,338.2 453.6,344.9 444.2,352.7 433.6,359 433.6,356.9 433.6,352.9 459,316.8 480,291.1 501,265.4 570.5,187.3 611.1,143.8 629.4,124.2 649.8,104.4 651.7,104.4 652.4,104.4 649.5,109.4 642.5,120.8 638.7,126.8 615.1,157.9 603.7,171.9 587.7,191.4 566,217.3 549.1,236.8 514.9,276.2 505,288.4 505,290.9 505,292.3 517.2,304.2 518.7,304.2 519.2,304.3 520.8,302.8 522.4,301 526,296.9 563.7,257.2 575.2,245.4 624.9,194.4 642.7,177.2 668.5,155.1 690.9,136.1 698.5,130.3 696.5,134 693.6,139.6 681.4,154.8 663.8,174.9 612,234 585.1,263.8 558,292.3 548.1,302.7 539.9,311.6 539.9,312.1 539.9,312.9 557.3,323.5 558.7,323.5 559.1,323.5 566.2,317.7 574.5,310.6 593.6,294.1 632.7,260.5 649,246.6 655.9,240.6 670.5,228.6 681.4,219.9 710.5,196.6 711.9,196.3 693.2,217.6 671,243 653.9,260.7 599.6,314.6 561.1,352.7 551.4,361.3 502.9,400.5 495.6,406.4 484.7,411.9 475.8,414.2 475.8,414.2 468.8,416 468.8,416 468.8,416 467.7,435.5 467.7,435.5 467.1,446.3 467.1,456.5 467.7,458.2 468.6,461 469.5,461.4 475.4,462 481.3,462.6 482.2,463 482.2,465.1 482.2,466.7 483.1,467.6 484.6,467.6 489.1,467.6 498.1,463.5 501.6,460 505.5,456 508.4,455.4 507.4,458.7 505.8,463.9 504.9,473.7 506,473.7 506.7,473.7 508.9,472 510.9,470 514.5,466.3 514.5,466.2 512,458.8 512,458.8 509.5,451.3 509.5,451.3 509.5,451.3 513.7,447.6 513.7,447.6 513.7,447.6 517.9,443.9 517.9,443.9 517.9,443.9 518.7,449.9 518.7,449.9 518.7,449.9 519.4,455.9 519.4,455.9 519.4,455.9 523.9,448.6 523.9,448.6 529.5,439.2 531.6,440.2 531.5,452.2 531.4,459.9 530.5,462.8 524.7,474.2 518.7,486.1 518,488.4 518,497.2 517.9,509.5 518.8,510.4 529,507.9 535.9,506.2 536.2,506.2 538.7,508.2 542.4,511.2 543.5,510.7 546,505.4 546,505.4 548.3,500.6 548.3,500.6 548.3,500.6 556.4,500.9 556.4,500.9 565.4,501.2 574.9,499.6 574.9,497.7 574.8,497.1 572.8,494.1 570.3,491 567.8,488 565.8,485.4 565.8,485.3 565.8,485.1 568.9,484.7 572.7,484.3 578.4,483.7 579.4,483.3 578.5,481.9 576.4,478.8 576.1,471.8 577.9,468.1 579.3,465.4 579.3,464.1 578,463.1 576.7,462 577.8,460.2 583,454.8 586.7,451 590.6,446.1 591.7,444.1 593.5,440.7 593.4,440.1 591.1,438.4 588.8,436.7 588.8,436.1 590.8,432.5 592.2,429.9 593.5,420.9 594.5,406.3 595.7,387.1 595.6,383.6 593.6,381.1 591.6,378.4 591.6,377.2 593.8,369.3 595.1,364.5 596.2,357.6 596.3,354 596.3,354 596.4,347.4 596.4,347.4 596.4,347.4 598.6,351.4 598.6,351.4 603,359.4 614.4,392.3 618.3,408.3 624.9,434.7 623.7,453.6 614.1,475.5 612.5,479.2 612.6,480.2 614.8,482.7 618.4,486.7 618.2,487 612.7,485.7 606.9,484.3 606,485.1 604.6,492.6 604,495.6 602.9,498 602,498 598.4,498 588.5,492.2 586.5,488.9 586.5,488.9 584.3,485.4 584.3,485.4 584.3,485.4 581.7,489.1 581.7,489.1 581.7,489.1 579,492.8 579,492.8 579,492.8 585.4,500.8 585.4,500.8 605.2,525.3 622,551.6 622,558 622,559.1 622.7,559.9 623.5,559.9 624.4,559.9 625,555.3 625,547.9 625,541.3 625.5,535.6 626.1,535.2 626.6,534.9 628.3,535.3 629.9,536.3 631.4,537.2 633,537.7 633.4,537.4 633.8,537.2 631.8,532.5 629,527.1 623.2,516.3 619.7,507.2 618.4,499.8 617.3,494.1 619.6,494.1 621.2,499.8 621.8,501.8 625.9,511.5 630.3,521.3 634.7,531.1 638.8,541.2 639.3,543.7 639.3,543.7 640.3,548.3 640.3,548.3 640.3,548.3 637.2,544.5 637.2,544.5 632.1,538.2 631.7,539.6 635.1,551.1 635.8,553.3 636.7,553.8 640.3,553.8 646.6,553.8 647,556 645.4,578.1 644.7,588.5 644,608.2 644,621.8 643.9,649.6 643.9,649.9 631.9,671 619.3,693.5 612.4,700.1 603.6,698.6 597.1,697.5 587.7,691.1 576.7,680.4 570.9,674.7 557.5,662.5 546.9,653.4 536.3,644.2 527.2,636.2 526.6,635.5 526,634.8 522.8,633.9 519.5,633.3 514.1,632.5 512.7,631.6 506.4,624.8 493.6,610.8 485.7,600.1 480.7,590.1 478.1,584.7 472.6,576.2 468.7,571.3 464.8,566.5 458.5,558.5 454.8,553.5 441.7,536.2 446.8,550.7 460.8,570.5 465.7,577.4 471.9,587.5 474.6,593 479.6,603.2 494.4,623.8 504.2,634.1 508,638.2 512.4,641.1 519.4,644.2 524.9,646.6 529.3,648.7 529.3,648.8 529.3,649 524.6,650.8 518.8,652.8 513,654.8 507.1,657.3 505.7,658.4 503.2,660.2 503.3,660.4 507.2,661.4 509.4,661.9 512.6,662.4 514.2,662.4 517.9,662.4 517.9,662.4 513.9,669.7 513.9,669.7 510.6,675.8 510.6,675.8 510.6,675.8 514.6,681.3 514.6,681.3 516.8,684.3 518.6,687.4 518.6,688 518.6,688.7 516.6,690.9 514.2,692.8 514.2,692.8 509.8,696.3 509.8,696.3 509.8,696.3 508.8,692.3 508.8,692.3 507.2,686 503.7,679.4 500.4,676.6 496.4,673.2 496.4,675.8 500.4,682.7 504.3,689.3 504.3,691.3 500.1,693.3 495.2,695.6 491.2,695.3 481.5,691.9 472.2,688.6 472.4,688.5 470.8,695.9 470.1,699.4 468.4,701.4 463.6,704.7 460.1,707.1 457.7,709.3 458.2,709.6 459.4,710.4 476.9,712.1 484.2,712.1 488.9,712.1 491.5,711.3 497,708.1 500.8,705.8 504.7,704 505.7,704 506.6,704 511.1,706.2 515.6,708.9 515.6,708.9 523.7,713.7 523.7,713.7 523.7,713.7 520.4,727.5 520.4,727.5 516.5,744 516.2,755.8 519.6,762.6 520.9,765.2 526.1,771.1 531.1,775.5 531.1,775.5 540.2,783.6 540.2,783.6 540.2,783.6 539,792.3 539,792.3 538.3,797 537.9,803.1 538,805.7 538.1,809.3 537.7,810.3 536.4,809.8 524.3,804.7 521.7,803 520.8,799.7 520.2,797.7 520.6,794.3 521.6,792.1 523.2,788.5 523.1,787.9 520.7,786.6 519.1,785.9 517.4,785.2 516.8,785.2 516.1,785.2 515.6,783.5 515.6,781.4 515.6,777.2 511.5,770.8 508.4,770.2 507.1,769.9 506.5,771 506.4,773.7 506.4,775.8 505.8,779.4 505.2,781.6 505.2,781.6 504.1,785.7 504.1,785.7 504.1,785.7 501.5,783 501.5,783 497.2,778.8 496,774.6 497.6,769.9 498.7,766.6 498.5,765.2 496.9,764 492.6,760.6 492.7,759.9 497.3,758.3 502.8,756.4 503,755.4 498.9,750.9 498.9,750.9 495.8,747.5 495.8,747.5 495.8,747.5 488.2,750.4 488.2,750.4 481.5,752.8 480.6,753.5 481.4,755.7 481.8,757.1 482.7,759.8 483.2,761.7 483.2,761.7 484.2,765.2 484.2,765.2 484.2,765.2 479,764.5 479,764.5 476.2,764.1 470,762 465.2,759.8 465.2,759.8 456.6,755.8 456.6,755.8 456.6,755.8 450.2,759.6 450.2,759.6 446.6,761.8 444.1,764 444.7,764.6 446,766 467.9,771.8 480.4,774 489.6,775.6 490.5,776 490.1,778.2 488.8,785.1 489,785.5 492.8,786.2 497.1,786.9 497.1,788.2 492.5,793.1 492.5,793.1 489.4,796.5 489.4,796.5 489.4,796.5 485.3,793.9 485.3,793.9 485.3,793.9 481.3,791.3 481.3,791.3 481.3,791.3 476.2,794.7 476.2,794.7 476.2,794.7 471.2,798.2 471.2,798.2 471.2,798.2 475.2,800.5 475.2,800.5 477.4,801.7 479.1,803.1 479.1,803.5 479.1,804 474.8,805.7 469.5,807.5 469.5,807.5 459.8,810.7 459.8,810.7 459.8,810.7 450.1,808.8 450.1,808.8 440.7,806.9 440.4,806.7 437.7,801.9 434.9,797 431.8,780.1 433.6,780.1 434.1,780.1 438.2,781.9 442.7,784.2 447.2,786.4 451.4,787.9 452,787.5 452.6,787 453.3,783.7 453.6,780.1 453.6,780.1 454.1,773.5 454.1,773.5 454.1,773.5 444.2,772.7 444.2,772.7 438.8,772.2 431.6,771.7 428.2,771.4 423.7,771 419.2,769.4 410.7,764.9 397.8,758 395.1,757.6 381.1,760.8 376.3,761.9 370.5,762.8 368.3,762.8 364.2,762.8 352.1,758.3 345.8,754.4 339,750.3 340.2,754.7 347.4,760.6 355.1,766.9 368.5,775 378.5,779.4 385,782.2 393.5,787.4 400.2,792.5 419,806.9 420.7,807.9 428.8,809.8 440.7,812.6 446.9,815.4 451.9,820.2 456.2,824.4 459.4,830.8 457.2,830.8 456.7,830.8 454.2,830.1 451.7,829.3 442.3,826 441.3,831.6 450.2,837.4 457.6,842.2 459.6,841.5 462.4,833.1 463.4,829.9 464.6,826.9 465,826.5 465.3,826.1 468.2,826.9 471.2,828.3 474.3,829.7 477.4,830.8 478.2,830.8 479.4,830.8 478.6,825.7 476.7,821.4 475.7,819.1 478.4,819.2 482.1,821.6 485,823.6 485.1,825.5 482.8,835.5 482,839.3 477.4,840.3 470.2,838.3 464.1,836.6 463.9,838.3 469.3,844 469.3,844 473.1,848.1 473.1,848.1 473.1,848.1 468.5,848.7 468.5,848.7 462.5,849.5 461.8,850.4 464.6,854.1 468.3,858.8 467.5,860 459.4,862.8 450.2,865.9 446.5,865.9 439.4,863 Z M438.6,822.2 C439.2,821.3 435.9,819.1 428.5,815.6 404.1,804.1 399.7,802.4 394.6,802.4 391.8,802.4 389.5,802.8 389.5,803.3 389.5,804.8 400.6,811 405.8,812.5 408.5,813.2 410.8,814.2 411,814.7 411.1,815.2 411.2,816.2 411.3,816.9 411.4,817.5 414,818.4 417,818.7 420,819 424.5,820.3 426.9,821.5 432,824 437.4,824.4 438.6,822.2 Z M472.9,733.4 C475.5,729.8 477.6,726.3 477.6,725.7 477.6,723.6 465,722.3 463.2,724.2 462.8,724.8 463.7,726.7 465.4,728.5 467.1,730.4 468.5,732.2 468.5,732.7 468.5,734.6 462.8,733.1 457.6,729.7 452,726.1 451.8,726 448.9,727.8 446,729.5 445.5,729.4 434.3,724.9 421.5,719.7 418.9,719.2 421.4,722.3 424.2,725.8 422.6,727.4 414.4,729.3 414.4,729.3 406.7,731.1 406.7,731.1 406.7,731.1 401.2,728.4 401.2,728.4 398.2,726.9 391.1,724.3 385.4,722.5 357.3,714.1 350.1,712.1 347.2,712.1 343.9,712.1 337.4,715.9 338.6,717.2 339,717.6 343.4,718.2 348.4,718.6 355.6,719.2 358.9,720 364,722.8 380.2,731.5 385.8,733.6 391.4,732.9 395.9,732.3 397.5,732.7 401.8,735.2 406.2,737.8 408.5,738.3 417.1,738.7 423.6,738.9 428.3,739.7 430.1,740.7 433.9,743.1 446.2,744.1 451.8,742.6 455.8,741.5 456.7,741.6 461.2,743.9 461.2,743.9 466.2,746.6 466.2,746.6 466.2,746.6 467.2,743.3 467.2,743.3 467.7,741.5 470.2,737 472.9,733.4 Z M326.5,713.7 C330,712 328.8,711 321.1,709.1 304.5,704.9 302.9,704.1 302.9,700.5 302.9,696.5 301.2,695.5 296.6,696.4 293.8,697 293.5,697.7 294.2,701.1 295.2,706 298.2,708.4 308.2,712.2 316.6,715.5 322.1,715.9 326.5,713.7 Z M436.6,710.3 C436.6,708.6 426.4,703 419.9,701.1 416.1,700 404,697.9 392.9,696.5 374.3,694.1 372.4,694 369.1,695.4 364.4,697.5 363.8,698.7 365.5,702.8 365.5,702.8 366.8,706.2 366.8,706.2 366.8,706.2 379.3,705.5 379.3,705.5 393.4,704.7 412.5,706.2 425.6,709 436,711.3 436.6,711.3 436.6,710.3 Z M343.9,696.1 C343.9,695.7 342.6,693.1 341,690.4 337.5,684.2 331.3,680.3 326.6,681.4 323.2,682.2 322.9,682.2 303.9,681.5 292.4,681 291.8,680.9 288.9,677.8 287.2,676 285.3,674.6 284.5,674.6 282.4,674.6 273.7,683.7 274.5,685.1 275.4,686.8 280,687.4 301.2,688.8 315.4,689.8 319.2,690.4 327.4,693.4 336.4,696.6 343.9,697.9 343.9,696.1 Z M610.6,642.6 C608.4,632.2 592.4,617.2 579.7,613.6 575.9,612.5 571.9,611.8 570.8,612.1 567.7,612.9 568.4,616.3 572.3,619.5 574.2,621 578.8,625.8 582.4,629.9 589.7,638.2 593.7,642.1 602.9,649.6 602.9,649.6 609,654.6 609,654.6 609,654.6 610.3,650.6 610.3,650.6 611,648.5 611.1,644.8 610.6,642.6 Z M588.4,599.9 C589.4,598.4 589.9,597 589.5,596.8 589.2,596.5 583.2,594.4 576.3,592.1 563.4,587.7 561.3,586 568,585.5 570.1,585.3 571.9,584.9 571.9,584.6 571.9,584.3 568.8,581.8 565.1,579.1 561.4,576.3 556.5,572.1 554.3,569.7 552,567.3 548.3,564.9 546.2,564.3 540,562.8 507.9,533.3 510.5,531.6 511,531.3 517.6,535.3 525.3,540.5 534.7,546.9 544.6,552.3 555.9,557.2 575,565.5 594.1,577.3 603,586.2 606.3,589.6 609.8,592.4 610.7,592.4 613.5,592.4 615.9,587.6 615.9,582.1 615.9,578.3 614.3,574.4 609.6,567.2 601.7,554.9 601.3,554.6 594.6,555.9 586.1,557.5 585.1,557.2 579.1,551 570.8,542.4 563.5,537.1 557.3,535.1 552.8,533.7 552,533 552.7,531.1 554.5,526.3 556.6,514.6 556.5,509.7 556.5,509.7 556.4,504.6 556.4,504.6 556.4,504.6 551.1,511.7 551.1,511.7 546.5,518 545.9,519.5 546.7,524.1 547.5,529.2 547.4,529.5 543.1,531 540.6,531.8 536.9,532.5 534.8,532.5 531.6,532.5 530.7,531.8 528.7,527.2 527.1,523.7 523.3,519.4 517.6,514.7 496.7,497.7 485.6,485.9 479.6,474.6 477.2,470.2 474.8,466.6 474.2,466.6 473.6,466.6 473.1,468.2 473.1,470.1 473.1,472.1 472.5,473.7 471.9,473.7 471.3,473.7 469.1,470.9 467,467.4 463.3,461.2 454,453.4 450.3,453.4 446.9,453.4 449.7,460.1 456.2,467.7 462.2,474.6 466.5,482.5 464.9,483.6 464.5,483.8 461.5,482.7 458.4,480.9 455.2,479.2 452.1,477.8 451.5,477.8 450.8,477.8 452.5,480.6 455.2,484.1 457.8,487.6 460.4,492 460.8,493.9 461.6,496.9 463.4,498.2 473.1,502.7 490.6,510.7 497.4,517.8 497.4,528.1 497.4,531.7 499.2,533.9 510.2,544.3 517.2,551 526.4,559.1 530.7,562.5 534.9,565.8 543.8,573.8 550.4,580.3 563,592.6 569.5,597.6 577.1,600.7 583.4,603.2 586.2,603 588.4,599.9 Z M386.3,578.3 C389.1,574.5 391.1,570.8 390.8,570.2 390.1,568.9 365.2,576.6 365.2,578.1 365.2,578.9 378.7,585.3 380.5,585.3 380.9,585.3 383.6,582.2 386.3,578.3 Z M456,533.4 C460.5,528.1 460.2,527.1 451.8,520.4 451.8,520.4 447.3,516.8 447.3,516.8 447.3,516.8 447.3,522.5 447.3,522.5 447.3,525.6 446.5,529.6 445.5,531.4 444.1,534.1 444.3,535 446.6,536.7 450.2,539.3 451.3,538.9 456,533.4 Z M574.5,510.3 C578.1,507.5 581,505 581,504.7 581,504.4 578.8,504.1 576.2,504.1 571.3,504.1 564.3,508 564.3,510.7 564.3,512.6 565.9,515.3 567.1,515.3 567.6,515.3 571,513 574.5,510.3 Z M233.7,466.4 C231.9,461.4 228.5,456.2 223.2,450.4 211.9,438 210.8,435.3 219.5,440.9 221.8,442.4 224.6,443.3 225.9,442.9 227.2,442.6 229.7,439.6 231.5,436.2 233.4,432.8 237.2,427.9 240,425.3 244.9,420.6 245,420.3 244.1,413.4 243.1,405.2 244.5,405.3 249.4,413.8 257.2,427.5 257.4,431.7 251,445 248.4,450.5 244.7,458.8 242.7,463.4 240.8,468.1 238.6,472.4 237.8,472.9 236.9,473.5 235.4,471 233.7,466.4 Z M550.6,464.8 C550.6,464.3 549.6,463.1 548.4,462 546.3,460 546.2,460.1 542.3,462.5 540.2,463.8 538.1,464.7 537.8,464.5 537.4,464.2 536.4,458.9 535.6,452.7 534.7,446.5 532.9,439.6 531.6,437.5 529.3,433.9 529.4,432.9 532.5,422.2 535.3,412.6 536.4,410.4 539.7,408.7 545.4,405.7 546.7,407.7 542.8,413.2 539.5,417.7 539.4,418 542,419.7 545.3,421.9 546.1,421.1 549.7,411.7 553,403.2 554.5,404 555.9,415 556.7,420.9 557.5,423 559.1,423 562.6,423 563.2,420.3 561.7,412.8 560.2,405.2 561,403.7 566.7,403.7 570.7,403.7 571.3,405.6 572.7,422 573.8,435.9 571.6,449.8 567.5,455.2 563.4,460.5 550.6,467.8 550.6,464.8 Z M337.1,432.5 C325.6,428.4 309.5,415 281.5,385.9 264.2,367.9 252.6,355.2 237.8,337.8 232.4,331.3 220,317.6 210.2,307.3 168.2,263 108.3,195.4 91.7,173.6 77.5,154.8 115.6,187.3 162.2,233.6 187,258.3 227.3,299.8 264.6,339.3 291.5,367.7 297.2,373.8 311.4,389.5 330,409.9 337.1,419.5 339.9,427.8 341.1,431.3 342,434.1 341.9,434.1 341.7,434.1 339.6,433.3 337.1,432.5 Z M358.9,409 C325.9,385.4 270,327 184.3,226.7 155.8,193.3 149.3,185.3 136.9,168.4 127.3,155.2 112.1,127.8 113.2,125.6 114.4,123.3 227.5,242.8 269.5,290.6 298,323 305.1,331.3 319.2,348.4 342.8,377.2 366.9,411 364.8,412.4 364.5,412.6 361.8,411.1 358.9,409 Z M444.2,400.4 C436.1,393.7 432,388.8 430.3,383.8 427.9,376.6 429.3,373.3 434.8,373.3 441.9,373.3 450.2,380.5 457.8,393.4 459.7,396.6 459.6,396.9 454.8,400.2 452,402.1 449.3,403.7 448.8,403.6 448.4,403.6 446.3,402.2 444.2,400.4 Z M374,391.8 C363.8,384.5 356.7,376.6 334.8,348.4 328.7,340.6 320.5,330.1 316.6,325.1 312.6,320 303,307.7 295.2,297.7 287.4,287.6 274.6,271.2 266.8,261.2 209.4,187.4 164.4,124.4 166.3,120.6 167.8,117.8 194.1,143.4 224.1,176.9 243.9,199 241.5,196.1 290.8,259.6 321.8,299.7 333.4,312.4 339.2,312.4 339.8,312.4 336.5,307.2 331.8,301 323.8,290.3 319.8,283.1 312.1,265 310,260.2 306.9,256.1 302.8,252.6 302.8,252.6 296.7,247.4 296.7,247.4 296.7,247.4 298.9,241.6 298.9,241.6 301.1,236 301,235.2 295.3,216 295.3,216 289.4,196.2 289.4,196.2 289.4,196.2 292.6,194.5 292.6,194.5 292.6,194.5 295.9,192.9 295.9,192.9 295.9,192.9 286.4,180 286.4,180 286.4,180 277,167.2 277,167.2 277,167.2 279.7,158.5 279.7,158.5 282,150.9 282,149.7 280.1,149.2 277.3,148.6 263.4,139.9 263.4,138.8 263.4,138.3 264.7,137.9 266.4,137.9 271,137.9 271.4,135.8 268.1,130.8 265.4,126.7 265.3,126 267.3,122.8 268.5,120.9 269.4,116.5 269.4,113.1 269.4,107.6 269.9,106.6 272.7,105.8 275.6,104.9 275.7,104.7 273.6,103.3 257.6,93.2 253.6,90.3 251.2,87.2 247.7,82.6 245,76 246.6,76 247.5,76 253.7,80.7 259.9,86.1 261,87.1 263.3,84.3 265.1,79.9 266.9,75.4 266.8,75 262.8,71.5 260.5,69.5 259,67.9 259.4,67.9 259.8,67.9 263.7,68.8 267.9,69.9 272.2,71 275.9,71.9 276.3,71.9 277.9,71.9 276.8,70.1 273.9,67.8 267.1,62.6 260.8,49 262.6,43.5 263.8,39.8 265.3,40.4 267.8,45.8 268.8,47.9 270.2,49.8 270.9,50.1 271.6,50.4 276.7,50 282.3,49.2 289.7,48.2 293.7,48.1 297.5,48.9 301.9,49.8 303.8,49.5 310.7,47.2 315.2,45.8 322.9,41.9 328,38.7 347.1,26.5 349.6,25.8 365,29.3 370.2,30.5 380.6,31.6 390.4,32 404.3,32.5 409,33.2 419.4,36.1 432.5,39.6 448.2,42.5 455.2,42.5 458.3,42.5 460.5,41.4 464.3,38 467,35.5 469.8,33.5 470.4,33.4 471,33.4 471.6,37 471.6,41.5 471.6,46 472.1,49.6 472.8,49.6 473.5,49.6 475.4,47.8 476.9,45.6 478.3,43.4 480.1,41.8 480.7,42 481.3,42.3 482.2,45.9 482.8,50.1 484,58.6 483.5,59.6 474.3,67.3 471.1,70 468.8,72.5 469.2,72.8 470.5,73.6 482.2,67.7 488.4,63 494.8,58.1 494.6,59.1 487.2,68.5 483.6,73 476.1,89.8 477.2,90.6 477.6,90.9 480.6,89.9 483.9,88.5 487.2,87 490.2,86.1 490.7,86.4 491.8,87.2 487.5,97.2 482.8,104.6 475.4,116.4 471.5,121.2 466.3,125.2 459.6,130.3 459.5,131.1 466.2,129.2 471.6,127.7 477.6,127.3 477.6,128.4 477.6,128.7 476,130.3 474,131.8 472,133.5 469.1,138.3 467.2,143.1 465.4,147.8 463,153.7 461.7,156.3 458.6,162.6 458.8,165.1 462.6,170.9 462.6,170.9 465.9,175.8 465.9,175.8 465.9,175.8 461.7,178 461.7,178 457.5,180.2 457.5,180.3 459.8,184.7 459.8,184.7 462,189.1 462,189.1 462,189.1 465.6,185.1 465.6,185.1 465.6,185.1 469.3,181 469.3,181 469.3,181 469.7,190 469.7,190 470,195 469.8,199.3 469.3,199.6 468.8,199.9 466.8,198.8 464.8,197.2 462.8,195.5 460.8,194.4 460.3,194.8 459.9,195.1 456.8,199.1 453.6,203.7 446.7,213.5 445.8,212.9 445.7,198.8 445.7,194 445,185.7 444.2,180.3 442.8,170.9 442.9,170.3 446.5,166.1 449.9,161.9 450.1,161.2 448.7,155.2 446.9,147.7 443.9,143.5 439.5,141.9 434.6,140.2 434.1,141.7 438.5,144.7 442.2,147.3 442.5,148.1 442.1,155.6 441.7,162.9 441,164.8 434.7,173.6 427.9,183.2 427.5,183.5 422.7,183.5 417.1,183.5 406.9,186.6 401.7,189.8 395.2,193.8 401.1,193 419.5,187.3 429.3,184.2 437.9,181.9 438.5,182.2 439.7,182.7 438.7,218.4 437.3,229 436.3,236.1 438.9,235 441.2,227.4 442.2,224.2 444,220 445.2,218 445.2,218 447.5,214.5 447.5,214.5 447.5,214.5 451.1,217.5 451.1,217.5 455.7,221.3 455.7,222.4 451.1,232.6 449.1,237.1 445.9,246.1 444.1,252.5 442.1,259.5 435.1,275.7 426.6,293 418.7,308.9 412.6,322.1 413.1,322.4 413.5,322.7 415.3,322 417.2,320.8 425.2,316 430.5,317.9 424.5,323.5 420.7,327 413.2,337.7 414.1,338.3 415.1,338.9 421.2,334.8 432.8,325.7 438.6,321.2 443.7,317.9 443.9,318.5 444.6,319.8 433.6,342.1 427.4,352.1 422.5,360 422.6,360.2 430.9,362.3 436.7,363.7 436.1,364.5 428.4,365.9 424.7,366.6 419.7,368.2 417.4,369.6 417.4,369.6 413.1,372 413.1,372 413.1,372 403.7,367.1 403.7,367.1 393.3,361.5 394.3,361.3 386.5,370.5 383.8,373.8 381.4,376.3 381.1,376.1 380.8,375.9 377.8,370.8 374.4,364.8 365.1,348.6 343.5,320.5 341.3,321.9 340.9,322.2 345.7,329.7 352,338.7 373.7,369.1 380.5,380.8 381.5,389.1 381.9,393.2 382,396.6 381.6,396.6 381.1,396.6 377.7,394.4 374,391.8 Z M356.8,303 C356.2,301.2 353.1,294 349.7,287 342.4,271.6 341,265.7 344.4,263.8 346.6,262.6 346.5,262.1 343.7,258.3 339.7,253.1 340.5,248.7 346.8,240.2 350.8,234.9 351.4,233.1 350.6,229.5 350.1,227.1 349.2,225.1 348.6,225.1 348,225.1 344.9,226.9 341.7,229.1 338.5,231.3 333.9,233.7 331.5,234.3 326.2,235.8 326.1,236.6 331,238.1 333.1,238.8 334.8,239.7 334.8,240.2 334.8,241.9 332.9,242.2 330,241.1 327.4,240 326.5,240.3 323.3,242.7 318,246.8 318.5,247.8 325.7,247.2 325.7,247.2 331.7,246.6 331.7,246.6 331.7,246.6 331.7,254.1 331.7,254.1 331.7,258.5 331.1,261.7 330.2,261.7 329.4,261.7 328.7,261.3 328.7,260.9 328.6,260.5 327.2,259 325.5,257.6 325.5,257.6 322.4,255.1 322.4,255.1 322.4,255.1 323,266.2 323,266.2 323.5,276 324.1,278.1 328,283.5 328,283.5 332.4,289.6 332.4,289.6 332.4,289.6 333.2,283 333.2,283 333.2,283 334,276.4 334,276.4 334,276.4 338.4,282 338.4,282 340.7,285 344.3,288.7 346.3,290.1 349.3,292.2 350,293.8 350,298.4 350,302.8 350.6,304.4 352.6,305.2 357,306.9 357.9,306.5 356.8,303 Z M396.1,248.7 C398.8,245.3 402.1,237.3 401.1,236.6 400.7,236.4 399,236.6 397.3,237.3 394.5,238.2 394,238 393.2,235.6 392.6,234 391.5,230.9 390.6,228.7 390.6,228.7 389,224.6 389,224.6 389,224.6 387.8,228.7 387.8,228.7 386.4,233.6 386.1,251.9 387.4,252.8 389,253.9 393.9,251.6 396.1,248.7 Z M322.7,218.4 C326,209.1 326.1,208.6 323.6,206 318,200.3 316,195.9 315.3,187.9 315,183.2 315,179.5 315.5,179.5 316,179.5 321,181.8 326.7,184.7 338.3,190.5 349.4,194.4 351,193.4 351.6,193 345.2,188.2 336.8,182.8 320.1,172 319.5,171.2 320.8,160.8 320.8,160.8 321.4,155.4 321.4,155.4 321.4,155.4 326.6,156.4 326.6,156.4 329.4,157 332.2,157.2 332.8,156.8 335.1,155.3 330.5,152.6 325.1,152.3 317.8,151.9 316.3,148.6 321.1,143.5 324.1,140.2 324.2,139.5 322.5,134.3 321.4,131.2 320,128.4 319.3,128.1 318.6,127.8 315.7,128.5 312.9,129.7 312.9,129.7 307.8,131.8 307.8,131.8 307.8,131.8 306.8,142.7 306.8,142.7 306.2,148.7 305,155.7 304.2,158.2 303.1,161.4 303.2,164 304.5,167 306,170.5 305.8,172 303.6,175.8 299.3,183.3 301.9,195.8 312.3,217 316.9,226.6 317.8,228.2 318.7,228.2 318.9,228.2 320.7,223.8 322.7,218.4 Z M407.9,176.2 C412.5,174.1 424.3,164 424.4,162 424.5,160.7 420.1,161.1 415.4,162.7 409.3,164.8 396.5,175 397.6,176.9 398.9,179.1 401.9,178.8 407.9,176.2 Z M432.2,305.9 C429.7,299.2 430.1,294.1 433.6,289.8 435.2,287.7 436.6,284.5 436.6,282.6 436.6,278 439.3,273.1 442.3,272.3 444.1,271.9 449,274.5 459.3,281.5 459.3,281.5 473.8,291.2 473.8,291.2 473.8,291.2 470,292.9 470,292.9 467.9,293.9 463.5,296.3 460.2,298.3 452.2,303.1 447.7,304.6 443.4,303.8 440.4,303.3 439.5,303.8 437.9,306.8 436.9,308.8 435.5,310.4 435,310.4 434.4,310.4 433.2,308.3 432.2,305.9 Z " />
</svg>
