<?xml version="1.0" encoding="UTF-8" standalone="no"?>
<svg
   xmlns:dc="http://purl.org/dc/elements/1.1/"
   xmlns:cc="http://creativecommons.org/ns#"
   xmlns:rdf="http://www.w3.org/1999/02/22-rdf-syntax-ns#"
   xmlns:svg="http://www.w3.org/2000/svg"
   xmlns="http://www.w3.org/2000/svg"
   xmlns:sodipodi="http://sodipodi.sourceforge.net/DTD/sodipodi-0.dtd"
   xmlns:inkscape="http://www.inkscape.org/namespaces/inkscape"
   width="744.1"
   height="1052.4"
   version="1.1"
   id="svg31"
   sodipodi:docname="Superhero 4 (Bistouille.fr).svg"
   inkscape:version="0.92.2 (5c3e80d, 2017-08-06)">
  <metadata
     id="metadata35">
    <rdf:RDF>
      <cc:Work
         rdf:about="">
        <dc:format>image/svg+xml</dc:format>
        <dc:type
           rdf:resource="http://purl.org/dc/dcmitype/StillImage" />
      </cc:Work>
    </rdf:RDF>
  </metadata>
  <sodipodi:namedview
     pagecolor="#ffffff"
     bordercolor="#666666"
     borderopacity="1"
     objecttolerance="10"
     gridtolerance="10"
     guidetolerance="10"
     inkscape:pageopacity="0"
     inkscape:pageshadow="2"
     inkscape:window-width="756"
     inkscape:window-height="480"
     id="namedview33"
     showgrid="false"
     inkscape:zoom="0.22424933"
     inkscape:cx="372.04999"
     inkscape:cy="526.20001"
     inkscape:window-x="0"
     inkscape:window-y="0"
     inkscape:window-maximized="0"
     inkscape:current-layer="svg31" />
  <defs
     id="defs2" />
  <path
     id="0"
     stroke-width="0.9"
     stroke="#FF0000"
     stroke-opacity="1"
     fill="#000000"
     fill-opacity="1"
     fill-rule="evenodd"
     stroke-linecap="round"
     stroke-linejoin="round"
     d="M371.3,662.5 C370.5,660.6 365,651.6 359.2,642.5 339,610.7 322.7,593.2 305.7,584.9 294.8,579.6 284.9,579.3 275.4,584.1 268.6,587.5 262,594.3 257.6,602.3 252.6,611.3 252.5,611.4 247,606.2 234.1,594.1 217.1,584.8 202.3,582.1 195.9,580.9 191.7,580.6 183.6,580.9 166.3,581.4 158.8,584.8 152.6,594.9 145.8,606 150.6,632.2 163.3,654.1 165.1,657.1 166.1,659.8 165.5,660 162.5,661 115.2,642.6 115.2,640.4 115.2,639.9 114.3,639.6 113.1,639.6 111.9,639.6 111,639.2 111,638.8 111,638.4 109,637.1 106.7,636 99.4,632.6 81.4,620.2 71.6,611.8 17.4,565.3 11,493.9 56.4,440.5 73.1,420.9 90.8,406.6 120.5,388.8 136,379.5 159.1,368.7 184.4,358.8 199.9,352.8 222.3,345.6 223.9,346.2 224.3,346.3 223.1,348.9 221.2,352 209.9,371.2 204.6,398.2 209.3,412.9 213.9,427.1 223.8,438.2 239.4,446.7 253.7,454.5 262.5,455.4 279.8,450.5 300.4,444.6 315.7,426.6 324.1,398.4 328,384.9 331.5,360 331.8,342.3 331.8,342.3 332,329.2 332,329.2 332,329.2 336,333.4 336,333.4 339.1,336.7 346.5,349.4 354.2,364.9 354.2,364.9 355.4,367.2 355.4,367.2 355.4,367.2 374.1,367 374.1,367 374.1,367 392.7,366.8 392.7,366.8 392.7,366.8 395.4,361.1 395.4,361.1 404.2,342.8 412.1,330.3 415,330.3 415.7,330.3 415.9,332.1 415.5,334.2 414.5,339.6 419,381.4 421.7,392.5 424.7,404.4 433.2,422.7 439.8,431.2 445.1,438.2 454.4,445.3 463.4,449.2 468.7,451.5 480.4,453.7 487.1,453.7 497.8,453.7 520.1,441.5 528.5,431 537.6,419.8 540.1,410.6 538.8,392.7 537.6,377 535.4,369.2 527.5,353.9 525.6,350.2 524.4,347 524.8,346.6 526,345.5 565.2,358.8 579,365 581.4,366.1 588,369 593.8,371.5 637,390.4 681,423.7 700.2,452.3 716.1,475.9 720.2,489.8 720.2,519 720.2,549.6 715.7,563.3 697.8,588.5 691.7,597 679.7,610.1 676.6,611.5 675.8,611.9 673.4,613.8 671.3,615.8 660.8,625.3 626.6,644.9 609.1,651.3 595.5,656.3 583.8,660.1 582.4,660.1 581.6,660.1 584,654.1 587.8,646.8 605.9,612.2 601.9,587.9 577.2,582.3 569.1,580.4 555.1,580.2 546.3,581.7 530.6,584.4 511.3,595.1 498.6,608 498.6,608 495.8,610.8 495.8,610.8 495.8,610.8 491.9,604.5 491.9,604.5 484.3,592 474.3,583.2 465.6,581.2 460.2,580 451.9,580.7 446.1,583 438.5,585.9 425.7,595 418.7,602.3 406.4,615.1 386.1,644.1 377.5,661.2 375.1,665.9 373,666.3 371.3,662.5 Z " />
</svg>
