<?xml version="1.0" encoding="UTF-8" standalone="no"?>
<svg
   xmlns:dc="http://purl.org/dc/elements/1.1/"
   xmlns:cc="http://creativecommons.org/ns#"
   xmlns:rdf="http://www.w3.org/1999/02/22-rdf-syntax-ns#"
   xmlns:svg="http://www.w3.org/2000/svg"
   xmlns="http://www.w3.org/2000/svg"
   xmlns:sodipodi="http://sodipodi.sourceforge.net/DTD/sodipodi-0.dtd"
   xmlns:inkscape="http://www.inkscape.org/namespaces/inkscape"
   width="1052.4"
   height="744.1"
   version="1.1"
   id="svg31"
   sodipodi:docname="Superhero 17 (Bistouille.fr).svg"
   inkscape:version="0.92.2 (5c3e80d, 2017-08-06)">
  <metadata
     id="metadata35">
    <rdf:RDF>
      <cc:Work
         rdf:about="">
        <dc:format>image/svg+xml</dc:format>
        <dc:type
           rdf:resource="http://purl.org/dc/dcmitype/StillImage" />
      </cc:Work>
    </rdf:RDF>
  </metadata>
  <sodipodi:namedview
     pagecolor="#ffffff"
     bordercolor="#666666"
     borderopacity="1"
     objecttolerance="10"
     gridtolerance="10"
     guidetolerance="10"
     inkscape:pageopacity="0"
     inkscape:pageshadow="2"
     inkscape:window-width="756"
     inkscape:window-height="480"
     id="namedview33"
     showgrid="false"
     inkscape:zoom="0.31716168"
     inkscape:cx="526.20001"
     inkscape:cy="372.04999"
     inkscape:window-x="0"
     inkscape:window-y="0"
     inkscape:window-maximized="0"
     inkscape:current-layer="svg31" />
  <defs
     id="defs2" />
  <path
     id="0"
     stroke-width="0.9"
     stroke="#FF0000"
     stroke-opacity="1"
     fill="#F50000"
     fill-opacity="1"
     fill-rule="evenodd"
     stroke-linecap="round"
     stroke-linejoin="round"
     d="M996.8,635.4 C996.8,635.4 987.3,633.7 987.3,633.7 987.3,633.7 987.6,630.4 987.6,630.4 987.7,628.5 988.1,625 988.4,622.5 988.8,619.3 988.3,615.7 986.9,611.1 984.3,602.6 979.1,589.2 977,585.4 975,582.1 976.2,581.7 979.3,584.7 979.3,584.7 981.5,586.8 981.5,586.8 981.5,586.8 980.9,583.4 980.9,583.4 980.5,581.5 979.3,576.7 978.2,572.7 972.8,554 972.6,552.1 975.2,537.3 979.4,513 978.7,508.7 974.1,530.2 972.8,535.8 971.2,543.3 970.4,546.9 969,552.7 967.8,562.7 966.1,581.6 965.8,585.1 965.2,587.9 964.7,587.9 963.3,587.9 959.6,579.6 957.3,571.2 955.8,565.5 954.9,558.5 954.4,546.9 953.7,530.5 954.3,520.2 957.9,487.7 958.8,479.6 959.4,472.9 959.2,472.7 959,472.6 957.5,474.9 955.9,477.8 950.9,487.1 949.7,489.2 941.2,501.6 930.9,516.6 929.1,520.3 928.3,528.2 927.2,538.6 917.9,576.9 917.4,572.7 917,568.6 914.3,555.8 913.8,555.5 913.5,555.2 913.2,558.4 913.2,562.7 913.2,568.8 913.5,570.5 914.8,571 916.1,571.5 916.2,572.1 915.2,574.1 913.9,576.8 913.7,575.9 918.7,596.7 922.4,611.9 924.4,616.3 930.1,622.2 930.1,622.2 932.1,624.3 932.1,624.3 932.1,624.3 928.9,624.8 928.9,624.8 927.1,625 923.5,624.9 920.7,624.4 918,623.9 914.6,623.5 913.2,623.3 911.7,623.2 909,622.8 907.1,622.5 903.4,621.9 903.2,621.3 903.6,614.8 903.8,612.4 903.3,611.2 901.7,610 900,608.8 899.5,607.4 899.4,604.4 899.3,597.8 897.7,602.6 896.8,612.2 896.8,612.2 896.1,620.7 896.1,620.7 896.1,620.7 892.8,620.3 892.8,620.3 891,620.1 886.1,619.7 881.8,619.4 881.8,619.4 874.2,618.9 874.2,618.9 874.2,618.9 874.8,616.5 874.8,616.5 875.5,614 876.6,612.1 883.8,601.2 883.8,601.2 888.2,594.4 888.2,594.4 888.2,594.4 886,583 886,583 883,567.8 881.5,558.8 882.1,558.5 882.6,558 883.7,559.6 888.5,567.6 890.6,571.2 892.8,574.2 893.3,574.2 893.8,574.2 894.2,574.1 894.2,574 894.2,573 889.2,559.3 885.8,551.1 879.9,536.7 877.9,530.8 875.4,521 874.1,516.2 872.9,511.6 872.7,510.8 872.4,510 871.9,502.8 871.5,494.8 870.9,482.8 870.4,479.6 868.5,475.5 863.9,465.7 856.5,450.7 854.4,446.8 851.6,441.8 838.5,410.3 838.5,408.8 838.5,406.3 834.1,397 833.2,397.7 832.7,398 831.6,400.7 830.7,403.7 829.9,406.6 827.3,413.5 825,419 825,419 820.9,429.1 820.9,429.1 820.9,429.1 823.5,433.1 823.5,433.1 832.4,446.9 843.5,465.8 847.4,473.9 850,479.2 853.7,486.8 855.8,490.9 862.3,503.7 869.9,534.6 868.1,540.5 868.1,540.5 867.2,543.5 867.2,543.5 867.2,543.5 866.5,540 866.5,540 864.4,531.1 855.9,515 853.2,515 852.6,515 852.1,517.9 852.1,522 851.9,533.2 849.2,564.4 848.4,565 847.6,565.6 847.1,563 845.4,550.3 843.5,536.6 841.6,527.7 835.8,507.4 835.8,507.4 832.3,494.9 832.3,494.9 832.3,494.9 827.3,491.6 827.3,491.6 824.5,489.8 821.9,488.4 821.5,488.4 819,488.4 818.5,508.1 820.6,523.4 821.9,533.1 821.8,537.5 820.2,534.3 815.1,524.6 804.2,508.9 802.5,508.9 802.1,508.9 801.4,509.8 801.1,511 800.7,512.1 800,514.3 799.5,515.9 798.9,517.4 798.5,528.7 798.5,541 798.5,559.1 798.8,565.2 800.5,573.9 802.7,584.8 803.9,588.1 805.8,589 806.5,589.3 807,590 807,590.7 807,591.3 808.1,593.6 809.5,595.7 819.6,611.4 819.8,611.9 817,612.7 816.2,612.9 813.7,612.7 811.5,612.3 809.3,611.8 804.2,611.1 800.3,610.7 788.4,609.4 789.1,610.3 789.1,596.1 789.1,584.9 788.8,583.3 786,576.2 784.4,572 782.4,566.7 781.6,564.5 780.9,562.4 780,560.6 779.6,560.6 777.9,560.6 774.3,575.8 774.4,582.5 774.6,588 774.3,589.7 773,590.4 771.8,591.1 771.3,593.2 771,598.7 770.8,602.7 770.4,606.2 770,606.5 769.3,607 754.8,606 741,604.5 736.1,604 733.3,603.3 733.3,602.7 733.3,601.9 742,592.9 743.9,591.7 744.4,591.4 753.3,581.7 754.7,579.9 755.5,578.9 763,531.8 763.1,527.5 763.1,525.8 761.4,520.9 759.2,516.5 751.9,501.7 750,496.5 749.4,489.4 748.9,483 748.6,482.3 745.5,479.6 741.7,476.3 739.1,476.4 737.9,479.8 737.5,481 737.8,486.9 738.5,492.9 740.8,512.1 740.8,511.6 739.6,510.4 736.8,507.4 727.8,496.7 725.1,492.9 722.2,489.1 715.1,483.1 713.5,483.1 708.8,483.1 707.5,503.2 710.7,525.4 711.1,528.5 710.9,529.4 709.9,529.4 709.1,529.4 707.9,528.6 707.2,527.7 701.7,519.8 685.5,503.7 680.8,501.3 676.8,499.2 673.4,499.3 673.4,501.4 673.4,503.3 678.7,520.2 682,528.9 683.2,532.1 684,534.9 683.7,535.2 683.3,535.4 680.8,533.8 678,531.7 675.2,529.5 672.8,528.1 672.6,528.6 672.2,529.4 673.9,533.8 679.3,546.4 680.7,549.6 681.8,552.5 681.8,552.7 681.8,553 675.9,545.7 668.7,536.6 661.4,527.4 654.1,518.9 652.4,517.6 652.4,517.6 649.2,515.4 649.2,515.4 649.2,515.4 649.2,517.8 649.2,517.8 649.2,522.7 653.7,536.9 658.7,547.6 661.5,553.7 663.6,558.8 663.4,558.9 662.7,559.4 639.1,524.4 637.6,520.7 636.8,518.8 635.8,517.2 635.5,517.2 635.1,517.2 634.2,518.8 633.4,520.7 630.6,527.9 634.8,553.7 640.4,563.6 646.8,575.2 664.3,599.3 666.2,599.3 666.7,599.3 667.1,599.9 667.1,600.6 667.1,601.3 667.7,602.4 668.5,603 670.8,605 672.4,609.1 672.4,613.5 672.4,613.5 672.4,617.6 672.4,617.6 672.4,617.6 667.4,619.2 667.4,619.2 663.3,620.5 661.3,620.7 655.2,620.3 646.6,619.7 635.4,617.2 633.1,615.4 632.3,614.7 631.4,613.4 631.2,612.6 631,611.8 629.3,610.5 627.4,609.9 621.6,607.8 620.7,606.9 621.4,604.2 622.5,600.2 616.4,561.1 614.5,559.6 614.1,559.2 613,561.3 612,564.1 608.5,575 608,579.1 608.7,589.7 608.7,589.7 609.4,600.3 609.4,600.3 609.4,600.3 594.4,599.8 594.4,599.8 586.1,599.5 577.9,599.3 576.1,599.3 574.4,599.3 572.3,599 571.6,598.6 569,597.5 572.3,592.2 578.8,586.8 586.1,581 591.1,575.8 592.5,572.9 593.4,570.8 598,546.2 599.3,535.8 599.3,535.8 600,530.4 600,530.4 600,530.4 590,513.4 590,513.4 577,491.2 574.4,486.4 570.3,475.9 566.8,467 566.1,466.3 562.2,467.8 557.2,469.8 549,471 544.2,470.5 537.1,469.8 529.6,467.8 526,465.6 522.9,463.7 522.7,463.3 510.9,439.1 509.6,436.5 508.3,434.4 507.9,434.4 507.5,434.4 505.2,434.4 502.6,434.4 499.7,434.4 497.1,434.9 495.6,435.8 495.6,435.8 493.2,437.2 493.2,437.2 493.2,437.2 495.7,442.1 495.7,442.1 497,444.8 501.1,451.6 504.7,457.3 513.2,470.8 513.3,470.9 510.3,470.9 507.8,470.9 490.9,464.3 480.9,459.4 477.7,457.9 473.9,455.5 472.4,454.1 469.1,450.9 458.2,430.8 453.7,419.6 451.9,415 450.1,410.7 449.8,410.1 449.4,409.5 447.6,413.3 445.8,418.7 445.8,418.7 442.4,428.4 442.4,428.4 442.4,428.4 443.9,436.9 443.9,436.9 445.9,448.8 447.2,471.1 446,476.6 445.5,479.1 443.4,484.1 441.3,487.6 436.9,495.1 436.9,495.3 438.7,517.8 439.9,532.4 441.4,542.9 444.7,560.3 446.1,567.3 450.8,579.5 455.7,589.1 459.1,595.6 459.9,598.6 458.8,600.2 457.8,601.5 456.8,601.6 446.5,601.1 440.3,600.8 435,600.5 434.7,600.3 434.4,600.1 434.2,593.9 434.2,586.5 434.2,573.2 434.1,573 430.1,562.8 427.8,557.2 425.1,551.1 423.9,549.2 421.8,545.5 418.7,539 416.8,533.8 416,531.9 415.2,531 414.6,531.4 414.1,531.8 410.4,538.8 406.6,546.9 406.6,546.9 399.5,561.7 399.5,561.7 399.5,561.7 399.5,579.7 399.5,579.7 399.5,590.7 399.1,598 398.4,598.4 396.1,599.9 388.5,601.1 380,601.2 371.8,601.4 361.6,602.7 346.4,605.7 338.9,607.1 324.6,607.9 320.6,607.1 317.7,606.4 317.4,606.2 317.5,602.8 317.6,599.9 318.2,598.9 320.9,596.8 324,594.5 324.3,593.8 324.7,588.6 324.9,585.5 324.6,581.2 324.1,579 322.1,571.1 305,530.4 303,529 302.6,528.7 302.1,529.3 301.8,530.3 299.2,539.3 292.4,565.4 291.2,571 289.8,577.6 289.8,578.4 291.8,585.3 291.8,585.3 294,592.6 294,592.6 294,592.6 290.7,598.6 290.7,598.6 288.9,601.9 287.5,605.3 287.5,606.1 287.5,607.3 286.8,607.7 284.2,607.7 284.2,607.7 280.9,607.7 280.9,607.7 280.9,607.7 281.5,604.2 281.5,604.2 282,601.5 281.9,600.8 280.6,600.8 278.6,600.8 270.6,606 270.6,607.3 270.6,608.5 267.3,609.2 261.7,609.2 259.4,609.2 253.8,609.7 249.3,610.3 244.7,611 240.8,611.5 240.6,611.5 240.3,611.5 240.1,610.8 240.1,610 240.1,609.2 242.4,607.3 245.1,605.7 256.8,598.9 264,591.6 270.9,579.6 278.1,567.1 280,551.6 278,520.7 276.4,494.5 276.4,479.6 278.1,471.2 279.3,465.1 279.3,464.8 276.4,459.8 272.9,453.5 262.6,430.8 261.1,426.1 258.4,417.4 258.2,417.2 254.6,416.7 252.7,416.5 250.4,416.1 249.4,415.8 247.1,415.2 246.2,416.7 242.6,427.1 242.6,427.1 240,434.7 240,434.7 240,434.7 245.6,438.8 245.6,438.8 248.7,441.1 252.5,444 254.1,445.3 255.7,446.6 258.4,448.8 260,450 266.5,454.9 273.7,462.7 274.4,465.4 276.2,472.3 269.3,498.4 264.5,502.3 263,503.5 262.5,502.9 257.5,493.9 254.5,488.6 250,481.3 247.6,477.8 247.6,477.8 243.1,471.3 243.1,471.3 243.1,471.3 241.1,473.1 241.1,473.1 238.9,475 237,479.4 237,482.3 237,483.3 238.3,486.6 239.8,489.5 243.9,497.5 244.7,503.4 242.7,511.2 241.8,514.7 240,518.8 238.8,520.3 234.2,525.8 220.3,533.9 213.4,535.2 209.4,535.9 208.8,537.4 209.8,544.5 210.5,549.8 210.4,551.2 209.1,552.2 207.2,553.7 207,555.5 207.9,562.5 208.2,565.4 208.8,572.4 209.2,578 209.2,578 209.8,588.3 209.8,588.3 209.8,588.3 216.1,598.1 216.1,598.1 219.5,603.5 222.5,608.6 222.6,609.4 222.9,611.8 216.8,613.6 206.7,614.1 206.7,614.1 197.9,614.5 197.9,614.5 197.9,614.5 198.4,601.8 198.4,601.8 198.8,589.3 198.8,589.1 195.5,581.5 190.1,569.4 185.3,559.8 184.5,559.8 183.8,559.8 178.2,573 173.8,585 172.4,588.7 171.9,593.5 171.7,603.3 171.7,603.3 171.5,616.5 171.5,616.5 171.5,616.5 164,617.4 164,617.4 159.9,617.9 152.6,618.5 147.8,618.8 147.8,618.8 139.1,619.2 139.1,619.2 139.1,619.2 139.6,617.4 139.6,617.4 139.9,616.5 140.4,614.3 140.8,612.6 141.6,609 143.8,605.7 147.1,603.1 148.4,602.1 151.9,597.8 154.8,593.6 159.2,587.4 160.5,584.4 162.3,577.3 163.5,572.6 164.4,567.6 164.4,566.2 164.4,563.9 164.2,563.8 156.3,562.1 151.8,561.2 146,559.6 143.3,558.5 138.8,556.8 138,556 132.4,547.4 123.2,533.3 119.7,527.4 116.7,520.7 115.7,518.7 115.1,519.5 113.4,524.6 111.5,530.5 111.5,533.7 113.4,534.2 114.4,534.5 115,535.7 115,537.5 115,541 110.2,556.7 107.6,561.7 105.9,565 100.6,577.5 92.7,597.4 91.1,601.3 90.4,605.8 90,614.3 90,614.3 89.5,625.9 89.5,625.9 89.5,625.9 85.7,626.6 85.7,626.6 80.5,627.6 64.4,629.7 62.1,629.7 59.5,629.7 60.3,628 67,619.2 70,615.3 73.4,610.9 74.5,609.4 75.9,607.6 76.9,604.3 77.3,600.4 77.6,597.1 78.9,588.7 80.2,581.8 83,565.8 83,563.5 79.9,559 79.9,559 77.3,555.4 77.3,555.4 77.3,555.4 79.3,545.6 79.3,545.6 82.1,532.1 82.1,532.1 86.7,528.7 91.1,525.4 91.2,525.1 90.9,519.1 90.7,516.6 91.6,513.2 93.4,509.4 95.9,504 96.1,502.5 96.1,490.8 96.1,478.9 95.8,477.5 92.4,467.5 90.4,461.6 88.7,456.2 88.6,455.3 88.6,454.5 87.5,456 86.2,458.6 84.2,462.8 83.3,463.7 79.8,465 76,466.4 75.6,466.4 72.1,465.2 70,464.5 67.3,464.2 65.6,464.4 62.9,464.9 62.8,464.7 61,459.2 59.3,454 59.3,453.4 60.8,451.2 61.8,449.9 62.2,448.1 61.9,447.3 61.1,445.4 63.2,440.5 64.9,440.4 65.6,440.4 66.7,440.4 67.5,440.5 68.3,440.5 69.6,440.2 70.5,439.6 71.4,439.1 73.1,438.3 74.3,437.9 75.6,437.4 77.3,435.4 78.4,433.2 80.2,429.3 80.2,429 77.7,418 76.3,411.8 74.6,402.4 74,397 72.9,387.5 72.9,387.3 75.5,382.8 77.5,379.5 78.2,376.9 78.2,373.1 78.2,368.2 80,352.8 82.4,335.7 84.2,323.3 84,323.5 105,316.5 121.9,311 122.9,310.5 123.2,308.4 123.4,307.1 122.6,304.7 121.4,303 119.2,300 117.4,299.4 111.9,299.9 109.2,300.2 103.9,302.2 101.4,303.9 97.6,306.4 97.6,304.7 101.4,301.3 103.4,299.5 105.4,297.5 106,296.9 106.6,296.3 111.5,292.7 116.8,288.8 122.2,284.9 126.6,281.4 126.6,280.9 126.6,280.4 125.6,279.2 124.5,278.1 124.5,278.1 122.4,276.2 122.4,276.2 122.4,276.2 125.1,272.8 125.1,272.8 126.6,270.9 129,267.8 130.4,265.8 136.2,257.7 145.8,254.9 155.6,258.3 159,259.4 160,262.2 160.1,271.2 160.2,276.8 160.9,278.7 162.7,278.7 167.3,278.7 178.5,287.6 182.1,294.2 182.1,294.2 183.9,297.6 183.9,297.6 183.9,297.6 186.4,295.7 186.4,295.7 188.6,294.1 189.7,293.9 196.9,293.9 204.3,293.8 205.2,293.7 209.4,291.4 217.2,287 219.6,285.9 224.5,284.3 228.9,282.8 229.4,282.4 229.9,279.3 230.3,277.5 230.1,275.8 229.5,275.6 228.9,275.3 228.3,273.9 228.1,272.5 227.9,271.1 227.1,267 226.4,263.5 225.6,259.9 225,254.1 224.9,250.6 224.8,247 224.6,243.8 224.3,243.3 223.9,242.6 225,239.4 228.4,232 231.7,224.9 243.7,221.4 254.3,224.3 258.2,225.4 259.1,226 259.6,228 260.8,233.2 262.4,246.7 262.6,253.6 262.9,260.1 263.4,263 266.5,273 267,274.6 267.7,277.1 268,278.3 268.4,280 270.2,281.5 273.7,283.5 276.5,285 279.1,286.3 279.5,286.3 279.9,286.3 282.9,287.5 286.1,289 286.1,289 292.1,291.7 292.1,291.7 292.1,291.7 294.9,289.3 294.9,289.3 297.5,286.9 297.7,286.2 298.4,275.9 298.4,275.9 299.1,265.1 299.1,265.1 299.1,265.1 296.4,263.1 296.4,263.1 292.1,260.1 289.6,255.3 289.6,250.2 289.6,246.1 290,245.4 293.9,241.6 296.7,238.9 298.7,236.1 299.2,233.9 300,230.8 299.7,229.9 296.5,225.1 288,212.7 288,206 296.6,194.6 301.3,188.4 301.7,187.5 301.6,182.5 301.6,177.7 301.2,176.7 297.2,171.5 294.7,168.3 292.7,164.7 292.7,163.4 292.7,158.9 305.2,146.6 315,141.4 324.6,136.3 330.1,134.8 340.8,134.5 340.8,134.5 350.5,134.1 350.5,134.1 350.5,134.1 358.1,139.3 358.1,139.3 365.3,144.4 375.8,154.7 375.8,156.8 375.8,157.4 376.2,157.9 376.7,157.9 377.2,157.9 378,158.6 378.3,159.6 379,161.2 379.1,161.1 380.9,158.6 382,157.2 383.1,153.5 383.5,150.5 383.8,147.5 384.5,144.4 385,143.7 385.6,142.9 387.4,140.2 389,137.7 390.7,135.2 394.6,131.2 397.6,128.8 400.7,126.4 403.1,124 403.1,123.5 403.1,121.8 412.7,110.5 416.7,107.5 420.3,104.7 420.8,104.6 425.5,104.9 429.3,105.1 431.7,104.8 435.3,103.5 438.8,102.2 440.7,101.9 442.9,102.4 447.3,103.3 447.5,103.3 452.7,103.2 452.7,103.2 457.7,103.1 457.7,103.1 457.7,103.1 459.8,98.4 459.8,98.4 463,91.6 468.3,73.3 468.3,69.1 468.3,68.1 467.7,66.8 466.9,66.2 465.1,65 463.6,56.2 464.7,53.7 465.1,52.7 466.1,51.5 466.9,51.1 467.9,50.6 468.4,47.1 468.9,39 469.2,32.8 469.5,27.6 469.7,27.5 469.8,27.4 473.7,26 478.2,24.2 484.7,21.8 487.7,21.1 491.8,21.1 497.9,21.1 506.4,23.8 510.5,27.2 513,29.2 513.3,30.1 513.9,38.7 514.5,45.8 515,48.3 516.4,49.3 517.7,50.4 518.1,52.1 518,56.2 517.9,59.3 517.5,62.6 517.2,63.7 516.9,64.8 517.3,68 518.2,70.9 519,73.8 520.3,78.6 521,81.5 521.7,84.4 522.7,87.7 523.3,88.7 523.3,88.7 524.2,90.6 524.2,90.6 524.2,90.6 525.8,88.5 525.8,88.5 527.5,86.1 527.7,86.1 533.4,87.5 538.1,88.7 539.3,88.4 543.9,84.7 546.2,82.9 548.2,83 554,85.4 554,85.4 558.9,87.4 558.9,87.4 558.9,87.4 564.6,85.3 564.6,85.3 564.6,85.3 570.3,83.2 570.3,83.2 570.3,83.2 574,85.2 574,85.2 579.7,88.4 584.9,92.6 588.3,96.9 590.4,99.4 592.5,101 594.1,101.3 603.6,103.1 617.6,126.5 638.3,175.7 641,182 643.6,187.4 644.1,187.8 645.7,189.1 645.1,192.5 642.9,194.5 640,197.2 640.1,198.4 643.2,197.3 647.7,195.5 657.2,189.9 664.5,184.6 671.2,179.6 672,178.7 673.6,174 677.7,161.9 678.7,158.5 680.3,149.6 681.9,140.9 681.9,139.3 680.3,126.1 679.3,118.3 678.3,110.7 678.1,109.3 677.9,107.8 677.5,103.9 677.2,100.5 676.7,95.6 676.8,94.9 677.7,97.1 678.3,98.5 679.2,100.4 679.7,101.2 680.2,102.1 682.1,106.7 683.8,111.5 685.5,116.3 687.4,121.2 688,122.3 688,122.3 689.1,124.3 689.1,124.3 689.1,124.3 694.4,122.8 694.4,122.8 700.3,121.2 706.5,121 710.8,122.2 712.4,122.6 713.9,122.8 714.1,122.6 714.8,122.1 717.4,108.7 718.2,101.7 719.4,91.2 720.8,96.9 721.4,114.5 721.7,123.1 722.4,131.2 723,132.6 723.7,134.2 723.6,135.5 722.9,136.4 722.3,137.3 722.2,138.8 722.7,140.1 723.2,141.3 723.2,145.4 722.8,149.1 722.3,152.9 721.9,159.4 721.9,163.6 721.8,169.7 721.4,171.6 720.1,172.4 718.8,173.1 718.5,174.3 718.9,177.5 719.3,181.6 719.5,181.8 725.5,185 732.8,189 749.6,195.2 760.7,198 775.2,201.7 787.6,204.2 791,204.2 798.4,204.2 799.2,204.9 800.8,213.1 803.1,225 802.5,242.6 798.9,263.3 798.9,263.3 798.2,267.3 798.2,267.3 798.2,267.3 811.5,261.8 811.5,261.8 818.9,258.7 825.1,255.7 825.4,255 827.1,251.2 831.9,228 831,227.4 830.5,227 830.1,226 830.1,225.1 830.1,224.2 828.9,222.3 827.4,220.9 825.1,218.6 825,218.2 826.4,217.4 828.8,216.2 828.5,215.8 823.3,213.4 820.7,212.2 818.8,211.1 819.2,210.8 819.9,210.3 825.6,211.7 828.8,213.2 831,214.2 831.1,214.2 831.1,211.9 831.1,204.1 835.2,199.2 842.9,197.4 846.2,196.6 847.4,196.7 850.6,197.8 858.9,200.6 869.2,214 864.7,216 864,216.3 863.8,218.4 864.3,221.9 864.7,225.7 864.4,229.5 863.2,234.2 862.2,238 861.2,242.5 860.9,244.3 860.5,246.4 859.6,247.8 858.3,248.3 855.2,249.5 856.5,253.4 860.8,255.8 862.7,256.9 865.7,258.9 867.4,260.3 872.1,264 876.5,265.7 881.5,265.7 886.3,265.7 892.5,267.3 895.6,269.4 899.1,271.6 904.4,278.1 905.9,281.8 907.2,285.2 907.4,285.3 910.7,285 913.8,284.6 914.2,284.8 916.1,287.5 917.2,289.1 919.4,293.1 921,296.4 923.7,302.2 923.8,303 923.5,315 923.5,315 923.2,327.7 923.2,327.7 923.2,327.7 927.2,335.8 927.2,335.8 929.5,340.3 931.7,344 932.1,344 932.9,344 934.7,337 936.3,328.1 936.8,324.9 937.9,321 938.7,319.3 940.2,316.3 940.1,316.2 936.8,313.2 934.9,311.6 933,309.2 932.6,308 932.6,308 931.8,305.9 931.8,305.9 931.8,305.9 935.1,307.1 935.1,307.1 939.8,308.8 939.2,307.6 933.9,304.4 929.4,301.7 923.8,295.1 925.1,294.1 925.5,293.8 926.9,294.3 928.2,295.3 931.8,297.7 932.7,297.2 929.8,294.4 924.4,289.2 919.5,280.8 916.9,272.4 916,269.4 916.9,269.8 920.1,273.9 923.4,278.1 930.4,284.4 934.1,286.6 938.7,289.4 943.6,290.1 955.8,290 968.6,289.9 969.8,290.1 975.5,293.3 979.3,295.4 979.8,295.5 982.4,294.5 985.6,293.3 995,286.8 997.6,284 998.6,283 999.6,282.4 999.9,282.6 1000.7,283.1 996.5,292.1 993.5,296.1 992.2,297.9 991.3,299.7 991.6,299.9 991.9,300.1 992.6,299.8 993.1,299.2 993.6,298.5 994.8,297.4 995.7,296.5 997.3,295.1 997.4,295.1 996.7,297.7 996.3,299.1 994.9,301.8 993.5,303.5 992.1,305.3 991.4,306.8 991.9,306.8 992.5,306.8 993.4,306.2 994,305.5 994.6,304.7 995.3,304.3 995.7,304.6 996.7,305.4 994.5,308.7 991,311.6 991,311.6 987.8,314.2 987.8,314.2 987.8,314.2 989.4,319.8 989.4,319.8 991.4,327 991.4,328.2 988.8,336 985.9,344.8 986.5,346 990.9,340.9 994.8,336.5 994.7,336.9 994.2,323.1 994,316.3 994.4,314.7 997.3,308 1001.8,298.3 1004.1,296.6 1008.5,300.1 1012.5,303.5 1016.4,311.7 1018.3,320.8 1019,324.2 1020.7,331.5 1022.1,337 1023.5,342.6 1024.6,349.4 1024.6,352.2 1024.6,361.7 1021.5,378.7 1017.6,390.9 1016.1,395.6 1016.1,396.8 1017.2,399.4 1018.5,402.2 1018.4,402.6 1015.4,406.8 1013.7,409.2 1011.3,412.6 1010.1,414.3 1008.1,417.1 1004.2,428.7 1000.8,442 999.8,446.1 999.6,450.7 1000,458.4 1000.7,468.5 999.6,481.9 997.3,494.1 993.5,513.5 993.3,514.7 994.2,521.4 994.7,525.2 995.8,530.7 996.8,533.6 998.2,537.9 998.5,543.7 998.6,565.3 998.6,579.9 998.9,591.6 999.2,591.3 999.5,591.1 1001.4,589 1003.3,586.6 1005.5,583.9 1006.7,582.9 1006.4,584.1 1006.1,585.2 1005.1,588.9 1004.1,592.5 997.9,615.1 998.3,612.8 1000.4,617.5 1003,623.3 1007.5,633.5 1008.3,635.6 1009.1,637.7 1009.2,637.7 996.8,635.4 Z M356.8,572.1 C365,566.3 371.6,561.3 371.6,560.8 371.6,560.4 372.3,559.6 373.1,559.1 373.9,558.6 374.9,557.1 375.3,555.8 375.7,554.4 376.9,550.6 378,547.2 380,541 380.5,538.6 384.3,519.5 388.1,500.1 388.3,498.6 388.5,492.9 388.6,488.9 387.9,485.6 386.3,481.9 381.5,470.7 378,459.1 376.3,448.7 374.9,440.4 373.8,436.5 371.3,432.1 369.6,429 367.8,426.1 367.4,425.7 366.2,424.6 346.7,396.3 338.4,383.9 334.5,378 329.5,369.5 327.2,364.9 323.5,357.3 321.1,353.8 321.1,355.8 321.1,356.2 319.7,362.5 317.9,369.8 316.1,377.2 313.8,388.6 312.6,395.3 305.4,438.8 305.3,440.5 309.4,458.4 310.6,463.8 311.6,471.3 311.6,474.9 311.7,481.8 312.3,483.4 316.4,487 317.8,488.2 320,491.7 321.4,495 327.9,509.8 327.6,508.3 331.7,548.8 333.3,565.5 335.5,574.7 338.7,579 340.2,581 341.6,582.6 341.8,582.6 341.9,582.6 348.7,577.9 356.8,572.1 Z M166,549.4 C166.4,544.9 166.8,540.3 166.9,539.3 167,538 166.5,537.4 165.5,537.4 162.5,537.3 157.2,534 156.6,531.7 155,526.6 149.4,527 145.5,532.5 145.5,532.5 143.3,535.6 143.3,535.6 143.3,535.6 146.5,539.5 146.5,539.5 148.2,541.7 151.8,545.7 154.5,548.4 157.1,551.1 160.3,554.5 161.4,555.8 162.6,557.2 163.9,558.1 164.4,557.9 164.8,557.7 165.5,553.9 166,549.4 Z M891.7,474.9 C891.2,473.6 888.7,458 887.4,447.9 886.2,438.9 884.8,441.4 884.8,452.4 884.8,464.9 886,471.7 888.6,474.3 890.9,476.5 892.5,476.8 891.7,474.9 Z M933.6,448.4 C934,445.4 935.2,440.8 936.3,438.2 937.5,435.5 938.4,432.9 938.4,432.4 938.4,431.1 932.6,426.7 931.8,427.3 931.4,427.6 931.1,434.2 931.1,442 931.1,456.1 932.2,458.9 933.6,448.4 Z M616.1,438 C615.2,429.5 615,429.3 611.9,431.4 610.4,432.4 609.3,433.7 609.3,434.3 609.3,436 614.7,444.3 615.8,444.3 616.4,444.3 616.5,441.8 616.1,438 Z M401.8,423.2 C403.5,418.7 403.8,416.6 403.1,413.9 401.6,408.3 402,404 404.3,398.3 407,392 407,391 403.7,372.9 402.3,365.2 400.9,356.3 400.5,353.1 400.2,350 399.4,344.1 398.8,340 396.6,326 400.8,300.3 411.1,264.2 412.8,258.3 412.9,257.4 411.6,257.4 411.1,257.4 410.1,259.2 409.5,261.4 408.4,265.2 403.8,273.3 402.8,273.3 402.5,273.3 402.7,272.1 403.3,270.6 405.1,266 403.7,265.1 401.6,269.5 399.2,274.8 395.4,279.6 391.3,282.6 391.3,282.6 388.1,284.9 388.1,284.9 388.1,284.9 389.4,291.3 389.4,291.3 390.9,298.6 390.4,305 387.3,315.7 386.2,319.6 385.6,323.7 385.9,324.8 386.2,326 385,331.9 383.3,338.1 383.3,338.1 380.2,349.2 380.2,349.2 380.2,349.2 382.3,355.1 382.3,355.1 382.3,355.1 384.4,361.1 384.4,361.1 384.4,361.1 381.5,365.3 381.5,365.3 378.4,370.1 378.4,369.3 382.7,386.9 383.5,390.3 384.9,396.9 385.9,401.8 388.2,413.8 391.1,421.2 395,425.5 396.9,427.5 398.7,429.1 399,429.1 399.4,429.1 400.6,426.5 401.8,423.2 Z M939.2,416.8 C939.2,416.8 941.7,415.1 941.7,415.1 941.7,415.1 943.7,417 943.7,417 944.7,418 946,418.6 946.4,418.3 947.6,417.4 952,406.9 952.1,404.9 952.1,403.9 950.4,401.3 948.4,399.1 946.5,396.9 944.2,394.2 943.5,393.1 942.2,390.9 941.4,390.7 938.4,391.9 936.3,392.7 934.7,398.1 933.3,409.7 932.2,418.5 933.8,420.4 939.2,416.8 Z M156.6,410.1 C157.7,408.8 155,404.9 152.6,404.4 151.2,404 149.8,404.4 148.3,405.4 146.2,407 146.2,407.1 148.1,408.6 150.4,410.4 150.7,410.3 151.9,406.9 151.9,406.9 152.8,404.4 152.8,404.4 152.8,404.4 152.4,407.2 152.4,407.2 152.2,408.7 152.3,410.2 152.6,410.4 153.6,411.1 155.8,410.9 156.6,410.1 Z M161.2,406.9 C162.4,405.5 162.3,405.2 160.7,404.3 158.5,403.1 156,403 156,404 156,405.1 158.4,408.6 159.1,408.6 159.4,408.6 160.4,407.8 161.2,406.9 Z M150.7,402 C150.8,401.3 147.7,400.3 145.2,400.2 144.3,400.2 144.2,402.7 145.1,404.3 145.6,405.4 146,405.4 148.2,404.2 149.6,403.5 150.7,402.5 150.7,402 Z M162.6,400.6 C162.3,397.8 161.9,397.6 158.7,399.1 155.4,400.7 155.3,401.6 158.4,402.5 161.8,403.5 162.9,403 162.6,400.6 Z M151.8,399.8 C151.8,399.6 151.1,398.2 150.2,396.6 148.6,393.9 148.5,393.8 147,395.3 144.9,397.3 145.1,398.4 147.9,399.3 150.6,400.2 151.8,400.4 151.8,399.8 Z M158.1,398.2 C160.7,396.6 160.8,395.4 158.4,393.7 156.7,392.5 156.6,392.5 155.9,394.2 155,396.5 154.8,399.5 155.5,399.5 155.8,399.5 156.9,398.9 158.1,398.2 Z M154.9,394 C154.9,393.1 154.2,392.6 152.9,392.6 150,392.6 149.7,393.4 151.5,396.4 153.1,399.1 153.2,399.1 154,397.2 154.4,396.2 154.8,394.7 154.9,394 Z M880.2,394.8 C879.9,394.2 879.6,394.3 879.6,395.2 879.6,396 879.8,396.5 880.2,396.2 880.5,396 880.5,395.3 880.2,394.8 Z M879.4,386.9 C878.9,383.6 878.2,373.5 877.8,364.5 877.3,351.5 877.5,346.4 878.9,339.5 880.8,329.5 881,325.8 879.5,325.8 878.9,325.8 878.5,326.1 878.5,326.4 878.5,326.8 876.3,329.4 873.6,332.3 870.9,335.1 868.1,338.9 867.3,340.7 865.4,345.3 866.6,352.9 871.1,365.7 873.1,371.2 876.9,383.9 878.1,389.2 878.7,392.3 879.5,393.7 880,393.3 880.2,393.1 879.9,390.3 879.4,386.9 Z M798.1,381.6 C799,377.8 800.9,371.4 802.4,367.2 804.6,360.8 805.1,357.9 805.1,349.3 805,339.2 803.3,331.6 801.2,331.9 799.3,332.1 795.2,344.9 796,347.8 797.3,352.6 796.8,359.6 794.3,370.2 792,380.5 792,380.7 793.9,384.7 794.9,387 795.9,388.7 796.1,388.6 796.3,388.4 797.2,385.3 798.1,381.6 Z M982.1,382.3 C988.6,377.2 982.3,365.3 973.1,365.3 963.2,365.3 964.3,379.2 974.5,383.3 977.9,384.7 979.2,384.5 982.1,382.3 Z M220.3,366.5 C218.7,357.6 217,352.4 215.9,352.4 215.4,352.4 215,357.7 215,364.3 214.9,375.6 215,376.3 217.3,378 217.3,378 219.6,379.8 219.6,379.8 219.6,379.8 220.6,376.6 220.6,376.6 221.1,374.5 221,370.8 220.3,366.5 Z M174.5,369.4 C174.7,365 175.1,361.1 175.4,360.9 175.8,360.6 177.4,361.4 179.1,362.6 183,365.3 184,364 180.7,360.5 179.3,359 178.1,357.5 178.1,357.1 178.1,355.5 182.2,354 187.6,353.5 199.2,352.5 194.8,351.1 181.5,351.6 177.8,351.7 177.3,350.9 179.2,347.4 180.7,344.4 179.5,344.1 176.6,346.6 176.6,346.6 174.2,348.8 174.2,348.8 174.2,348.8 173.5,344 173.5,344 173.2,341.4 172.8,336.8 172.8,333.9 172.8,325 171,329.1 170.6,338.8 170.4,343.7 169.8,347.9 169.4,348.3 169,348.6 167.2,347.9 165.5,346.7 162.1,344.3 161.5,344.8 163.9,347.8 166.8,351.4 166.8,351.4 154.2,352.8 147.9,353.5 149.4,354.4 157.8,355 168.1,355.7 168.6,356.1 165.7,360.4 164.4,362.4 163.5,364.1 163.8,364.3 164.1,364.5 165.7,363.5 167.4,362.1 167.4,362.1 170.6,359.6 170.6,359.6 170.6,359.6 171.1,361.5 171.1,361.5 171.4,362.5 172,366.7 172.4,370.8 172.7,374.9 173.3,378.1 173.6,377.9 173.8,377.7 174.2,373.9 174.5,369.4 Z M255.2,332.5 C267.5,327.7 269.2,310.9 258.1,303.4 255.2,301.4 253.9,301.1 248.9,301.1 243.5,301.1 242.9,301.3 239.1,304.2 230.2,311.1 230.5,323.2 239.7,330.1 243.4,332.9 244.6,333.4 248.4,333.4 250.9,333.4 253.9,333 255.2,332.5 Z M983.6,313.7 C984.2,312.9 984.7,311.6 984.7,311 984.7,309.9 984.2,309.9 981.5,311.3 979.8,312.2 978.4,313.4 978.4,314 978.4,315.7 982.3,315.4 983.6,313.7 Z M966,313.2 C966,312.8 964.3,311.5 962,310.4 955.7,307.3 954.8,307.7 958.4,312 960.1,313.9 961.1,314.4 963.2,314.2 964.6,314.1 965.9,313.7 966,313.2 Z M178.6,307.9 C179.3,305.8 180.2,303.4 180.6,302.5 181.2,301.2 180.6,300.7 177,299.6 172.9,298.2 172.7,298.2 169.9,299.7 164.8,302.5 165.5,307.2 171.5,310.2 173.7,311.2 175.9,312 176.4,311.9 177,311.7 178,309.9 178.6,307.9 Z M368.4,293.7 C368.4,292.8 367.2,292.3 364,291.9 361.5,291.6 358.3,291.1 356.9,290.7 354.4,290 354.6,289.8 360.8,287.6 364.4,286.3 367.4,285 367.4,284.6 367.4,284.1 366.6,284.1 365.6,284.4 362.2,285.4 354.3,285.9 350,285.4 344.3,284.7 342.9,285.9 346.7,288.2 351.1,291 361,299.9 363.5,303.4 363.5,303.4 365.7,306.4 365.7,306.4 365.7,306.4 367,300.7 367,300.7 367.7,297.6 368.3,294.4 368.4,293.7 Z M826.7,304.8 C827.6,303.6 827.9,303.6 830.2,304.8 831.6,305.5 834.7,306 837.3,306 845.5,306 852.2,299.4 852.2,291.2 852.2,282 844.9,275.7 835.2,276.6 830.1,277.1 828.7,277.9 825,282.4 821.4,286.8 821.1,294 824.2,299.1 825.9,301.7 826,302.6 825,303.8 823.5,305.5 823.5,306 824.8,306 825.3,306 826.2,305.5 826.7,304.8 Z M607.2,291.2 C608.1,290.4 608,284.2 606.7,265.6 605.8,252.1 604.9,238.1 604.7,234.5 604.5,230.9 604,227.6 603.6,227.1 602.6,226 578.3,233.9 577.3,235.7 576.8,236.8 580.8,251.8 584.1,260.8 585.9,265.7 593.7,280.8 603,297.3 603,297.3 604.3,299.6 604.3,299.6 604.3,299.6 605.1,295.9 605.1,295.9 605.6,293.9 606.5,291.8 607.2,291.2 Z M133.9,280.9 C135.3,280.3 135.3,280.1 133.9,279.4 132,278.5 128.7,278.4 128.7,279.3 128.7,280 130.9,281.7 131.8,281.7 132.1,281.7 133.1,281.3 133.9,280.9 Z M148.3,278.7 C150.3,276.8 148.9,276.4 144.4,277.7 139.8,279 139.3,279.7 142.1,280.8 144,281.6 145.8,281 148.3,278.7 Z M318.5,260.4 C319.4,258.4 320.6,256.5 321.1,256.3 321.9,255.9 323.4,258.1 324.8,261.8 325.8,264.4 326.8,263.8 329.5,259.1 333.8,251.4 335.5,249.8 339.7,249.8 344.1,249.8 347.4,248.6 347.4,247.1 347.4,246.5 348.3,246 349.5,246 350.6,246 352.1,245.4 352.9,244.7 353.7,243.9 355.2,243 356.3,242.5 357.4,242.1 358.5,241.3 358.8,240.7 359.1,240 356.5,239.8 346.9,240 346.9,240 334.6,240.3 334.6,240.3 334.6,240.3 331,243.1 331,243.1 331,243.1 327.5,246 327.5,246 327.5,246 325.9,243.7 325.9,243.7 323.5,240.4 322.7,240.4 319.6,243.8 319.6,243.8 316.7,246.9 316.7,246.9 316.7,246.9 314.6,244.5 314.6,244.5 312.6,242.1 312.4,242 306.9,242.5 300.5,243 291.7,245.5 291.7,246.8 291.7,247.3 292.6,247.8 293.7,248 294.9,248.3 295.5,248.9 295.2,249.5 294.9,250.1 295.5,250.8 296.6,251.1 297.6,251.4 299.2,252.1 300,252.7 300.9,253.3 302.4,253.5 303.7,253.2 308.5,252.1 308.9,252.4 312.1,258.3 313.8,261.6 315.5,264.2 316,264.2 316.4,264.2 317.5,262.5 318.5,260.4 Z M711.7,250.4 C712.8,246.4 717.3,241.7 722.5,239.2 728,236.6 732.4,236.2 738.1,238 740.6,238.7 741.8,238.8 741.8,238.2 741.8,236.8 745.1,234.6 747.4,234.6 748.5,234.6 751.5,236.1 754,238 756.5,239.9 758.6,241.1 758.6,240.7 758.6,239.2 753.2,232 748.5,227.3 743.8,222.5 733.8,215.6 731.6,215.6 730.9,215.6 730.1,216.6 729.7,217.8 728.8,220.8 726.3,222.2 720.6,222.8 715.8,223.3 715.8,223.3 715.1,221 714.5,218.8 714.3,218.7 712.3,219.6 710.6,220.3 709.8,220.3 708.1,219.6 705.9,218.6 705.9,218.5 704.3,222.3 704,223.1 702.7,223.3 699.4,222.9 694.6,222.4 690.2,219.6 690.2,217.1 690.2,214.8 688,215.3 682,219.1 676,222.9 668.8,229.8 664.6,235.9 660.9,241.2 661.1,242.4 665.1,238.9 669.4,235.1 672.9,234.2 676.2,235.7 677.5,236.4 678.7,237.4 678.7,238.1 678.7,239.1 679,239.1 681.8,238 689.1,235.3 698.9,237.7 703.9,243.5 705.7,245.5 707.7,248.6 708.4,250.3 709.7,253.9 710.7,254 711.7,250.4 Z M232.5,244.8 C232.9,243.9 227.7,242.5 226.7,243.3 226.5,243.5 226.5,244.2 226.9,244.9 227.6,246.2 231.9,246.1 232.5,244.8 Z M246.6,244 C248.4,242.8 249.3,240.7 248,240.7 246.4,240.7 240.1,243 240.1,243.5 240.1,245.5 243.9,245.8 246.6,244 Z M420.6,219.3 C420.4,212.2 420,206.2 419.8,206.1 419,205.5 407.4,217.2 407.4,218.6 407.4,222.7 417.5,233.7 420.2,232.6 420.7,232.4 420.9,226.4 420.6,219.3 Z M311.7,224.3 C311.7,224 310.2,222.5 308.5,220.9 306.8,219.4 304.4,216.1 303.1,213.8 300.9,209.6 300.9,209.4 302.7,202.9 303.7,199.2 305.7,193.5 307.2,190.2 309.2,185.4 309.7,183.2 309.2,179.9 308.4,174.9 304.6,163.8 303.2,162.8 301.8,161.8 301.9,162.7 303.8,167.3 304.7,169.5 306,173.9 306.8,177.2 308.2,182.8 308.1,183.4 305.7,189.6 300.7,202.8 299.9,206.1 300.5,209.9 301.2,214.2 308.1,224.7 310.2,224.7 311,224.7 311.7,224.5 311.7,224.3 Z M862.5,217.5 C863.6,215.7 863.5,215.6 860.6,215.6 857.3,215.6 856.5,216.9 858.7,218.5 860.5,219.8 861.2,219.6 862.5,217.5 Z M848.4,217.8 C849.9,217.3 851.1,216.7 851.1,216.4 851.1,215.8 841.4,213.3 840.5,213.7 839.9,214 844.6,218.6 845.5,218.6 845.7,218.6 847,218.2 848.4,217.8 Z M500.7,204 C501.3,203.5 506.5,197.4 512.3,190.5 518,183.6 526.7,173.4 531.5,167.7 553,142.3 556.7,137.8 556.7,136.9 556.7,136.4 552,131.8 546.2,126.8 536.2,118.1 535.6,117.7 532.3,118 530.4,118.1 518.2,118.7 505.1,119.1 492.1,119.6 475.6,120.2 468.4,120.5 468.4,120.5 455.3,121 455.3,121 455.3,121 445.6,130.9 445.6,130.9 440.2,136.3 435.8,141 435.8,141.3 435.8,141.7 456.4,162.8 470.9,177.2 476.7,182.9 483.1,189.4 490.4,196.9 494.8,201.3 498.6,204.9 499,204.9 499.3,204.9 500.1,204.5 500.7,204 Z M579.6,187.8 C579.6,187.8 583.1,182.7 583.1,182.7 583.1,182.7 580.7,180.9 580.7,180.9 577.5,178.4 576.9,178.6 576.2,182.4 575.1,189.1 574.8,192.8 575.5,192.8 575.9,192.8 577.8,190.5 579.6,187.8 Z M367.4,174.4 C366.4,171.8 364.7,168.3 363.7,166.6 361.7,163.2 355.1,157.9 352.9,157.9 352.1,157.9 352.9,158.7 354.7,159.8 359.2,162.6 362.6,167.1 365.4,174 366.7,177.2 368.1,179.6 368.6,179.5 369,179.3 368.5,177 367.4,174.4 Z M319.6,174.5 C320.4,173.6 318.5,171.8 315.7,170.7 314.1,170.1 313.8,170.2 313.8,171.4 313.8,173 316.3,175.3 318,175.3 318.5,175.3 319.2,175 319.6,174.5 Z M338.1,173.9 C340.8,173.1 344.8,168.8 343.4,168.2 342.9,168 340.7,168.7 338.4,169.8 332.8,172.4 332.3,172.8 333.2,173.7 334,174.7 335,174.8 338.1,173.9 Z M302,159.6 C301.7,158 302.4,157.2 305.2,155.8 307.2,154.8 309.9,154.1 311.3,154.1 312.6,154.1 313.8,153.7 313.8,153.2 313.8,151.8 305.9,153 302.9,154.9 300.1,156.6 299.5,158.2 300.7,160.5 301.7,162.3 302.4,161.9 302,159.6 Z M365.8,157.8 C365.4,157.2 362.7,155.3 359.7,153.5 355.1,150.7 353.7,150.3 349.6,150.3 349.6,150.3 344.8,150.4 344.8,150.4 344.8,150.4 348.7,151.1 348.7,151.1 353.3,151.9 359.5,154.6 363.1,157.4 365.7,159.4 366.8,159.6 365.8,157.8 Z M321.1,150.3 C321.1,149.2 316.1,145.3 315.4,145.8 315,146.1 316,147.3 317.6,148.6 321.1,151.2 321.1,151.2 321.1,150.3 Z M350.2,142.5 C353.7,142.8 354.9,142.6 354.3,142 353.2,140.7 345.1,140.9 342.4,142.3 341.1,143 339.1,144.9 337.9,146.7 337.9,146.7 335.8,149.9 335.8,149.9 335.8,149.9 340.5,146 340.5,146 345.2,142.1 345.3,142.1 350.2,142.5 Z M720.2,139.2 C722.4,135.7 721.7,135.2 717.7,137.4 714.3,139.4 713.6,140.8 715.7,141.4 718.1,142.1 718.4,141.9 720.2,139.2 Z M706.9,140.4 C709,140.4 707.4,139.2 702.6,137.1 697.2,134.9 693.4,133.9 693.4,134.9 693.4,135.3 695.1,136.8 697.3,138.4 700.1,140.4 701.8,141.1 703.3,140.8 704.5,140.6 706.1,140.4 706.9,140.4 Z M485.2,51.5 C488.8,50.1 487.6,48.7 482,47.9 475.9,47 474.9,48.1 479.5,50.7 482.7,52.5 482.6,52.5 485.2,51.5 Z M505,50.1 C508.7,47.7 507.9,46.7 502.8,47.2 497.3,47.9 495.9,48.7 497.8,50.3 499.6,51.9 502.2,51.8 505,50.1 Z M973.3,381.8 C972.7,381.2 972.4,380 972.7,379.1 973.1,378.1 972.9,377.4 972.2,377.4 971.5,377.4 971.3,376.6 971.7,375.2 972.2,373.4 971.9,372.9 970.6,372.9 968.3,372.9 968.4,371.1 970.8,369.6 973.1,368.1 976.3,368 978.5,369.3 980.4,370.4 983.6,376 983.6,378.2 983.6,381.6 976.1,384.2 973.3,381.8 Z M239.1,328 C239.1,327 239.9,326.2 241.2,326 242.4,325.8 243.2,325.4 243,325.1 240,321.1 239,318.3 239.6,315.5 239.9,313.7 240.9,311.7 241.7,310.9 243.8,308.9 243.7,308.3 241.1,308.3 239.5,308.3 239,307.9 239.3,306.6 239.6,305 240.2,304.9 249.3,304.6 249.3,304.6 259.1,304.4 259.1,304.4 259.1,304.4 259.1,306.3 259.1,306.3 259.1,307.8 258.5,308.3 257,308.3 255.8,308.3 254.9,308.4 254.9,308.5 254.9,308.6 255.8,310.1 257,311.7 258.1,313.4 259.1,315.7 259.1,317 259.1,318.3 258.1,320.7 257,322.4 255.8,324 254.9,325.4 254.9,325.6 254.9,325.7 255.8,325.8 257,325.8 258.5,325.8 259.1,326.3 259.1,327.7 259.1,329.6 259,329.6 249.1,329.6 239.6,329.6 239.1,329.5 239.1,328 Z M253.2,321 C255.2,319.1 255.3,316 253.7,313.3 252,310.7 248.8,310.3 245.8,312.5 241.2,315.8 243.5,322.7 249.1,322.7 250.5,322.7 252.3,322 253.2,321 Z M832.2,303 C830.9,302.4 832.1,301.2 838.5,296.5 838.5,296.5 846.3,290.8 846.3,290.8 846.3,290.8 842.4,290.8 842.4,290.8 838.7,290.8 838.4,290.7 839.1,289.1 839.5,288.2 840.9,285.9 842.2,284 842.2,284 844.5,280.7 844.5,280.7 844.5,280.7 846.3,282.7 846.3,282.7 851.8,288.7 850.3,298.1 843.1,302.2 840.2,303.8 834.9,304.2 832.2,303 Z M826,297.5 C824.3,294.1 824.6,286.6 826.4,284 828.6,280.9 833,278.7 836.8,278.7 843.1,278.7 843,279.6 835.8,285.5 826.4,293.3 826,293.9 830.1,293.9 830.1,293.9 833.3,293.9 833.3,293.9 833.3,293.9 830.9,296.9 830.9,296.9 829.6,298.6 828.2,299.9 827.8,299.9 827.5,299.9 826.6,298.9 826,297.5 Z M315.5,255.4 C315.1,255.1 314.8,254.5 314.8,254.1 314.8,253.6 315.3,253.6 316.1,254.2 316.7,254.7 317.1,255.3 316.8,255.5 316.5,255.7 315.9,255.6 315.5,255.4 Z M325.9,253.6 C325.5,253.2 325.7,252.8 326.3,252.8 326.9,252.8 327.4,253.2 327.4,253.6 327.4,254 327.2,254.4 327,254.4 326.7,254.4 326.2,254 325.9,253.6 Z M328.5,251.6 C328.5,250.8 333.6,245.2 334.4,245.2 335,245.2 334.4,245.9 330.9,249.7 329.6,251.1 328.5,252 328.5,251.6 Z M311.3,249.3 C310.9,249 310.6,248.4 310.6,248 310.6,247.5 311.1,247.6 311.8,248.1 312.5,248.6 312.8,249.2 312.6,249.4 312.3,249.6 311.7,249.6 311.3,249.3 Z M305.1,245.5 C305.9,245.3 306.8,245.3 307.2,245.5 307.5,245.8 306.9,246 305.8,245.9 304.6,245.9 304.3,245.7 305.1,245.5 Z M340.9,245.5 C341.7,245.3 342.6,245.3 342.9,245.5 343.3,245.8 342.6,246 341.5,245.9 340.3,245.9 340.1,245.7 340.9,245.5 Z M496.2,193.7 C489.2,186.8 483.1,180.5 483.1,180.2 483.1,180 485.6,180 488.6,180.3 493.7,180.7 506.3,179.9 512.3,178.6 514.5,178.2 513.8,179.3 507.4,186.8 503.4,191.5 499.7,195.5 499.2,195.6 498.7,195.7 497.4,194.9 496.2,193.7 Z M495.1,171.9 C492.8,169.4 486.3,167 482,167 479.9,167 477.8,167.7 476.1,168.9 474.6,170 473.2,170.8 473.1,170.6 472.9,170.5 470.4,168.1 467.4,165.3 461.5,159.7 460.6,158 464.4,159.5 466,160.1 475.1,160.6 491.5,160.9 516,161.3 519.9,161.7 522.2,164.2 525.6,167.9 516.6,171.9 501.8,173.4 497.3,173.8 496.7,173.7 495.1,171.9 Z M531.5,150.9 C525.1,145.3 521.2,144.6 499.4,144.5 478.4,144.5 475.1,144 472,139.6 466.6,132.1 477.5,125.2 494.9,125.2 506.5,125.2 513.4,128.6 516,135.6 516,135.6 517.2,138.9 517.2,138.9 517.2,138.9 526.1,138.7 526.1,138.7 526.1,138.7 535.1,138.5 535.1,138.5 535.1,138.5 535.4,131.4 535.4,131.4 535.4,131.4 535.7,124.4 535.7,124.4 535.7,124.4 540.7,128.8 540.7,128.8 543.4,131.2 546.4,133.8 547.5,134.6 548.5,135.4 549.3,136.5 549.3,136.9 549.3,137.6 537.4,152.2 535.8,153.4 535.4,153.7 533.5,152.6 531.5,150.9 Z M447.9,146.1 C447.9,146.1 443,141.2 443,141.2 443,141.2 450.1,133.6 450.1,133.6 457.1,126.1 457.1,126 462.3,125.5 465.1,125.3 467.7,125.2 468,125.4 468.3,125.7 466.6,127.3 464.2,129.1 457.5,134.1 453.6,141 453.4,147.9 453.4,149.6 453.2,151 453.1,151 452.9,151 450.6,148.8 447.9,146.1 Z M520.6,128.5 C519.7,127.2 518.1,125.7 517.1,125.1 515.5,124.1 515.8,124 520,123.6 522.5,123.3 525,123.4 525.5,123.7 526.7,124.5 525.7,127.3 523.7,129.3 522.3,130.7 522.2,130.7 520.6,128.5 Z " />
</svg>
