  0
SECTION
  2
HEADER
  9
$ACADVER
  1
AC1014
  9
$HANDSEED
  5
FFFF
  9
$MEASUREMENT
 70
     1
  0
ENDSEC
  0
SECTION
  2
TABLES
  0
TABLE
  2
VPORT
  5
8
330
0
100
AcDbSymbolTable
 70
     4
  0
VPORT
  5
2E
330
8
100
AcDbSymbolTableRecord
100
AcDbViewportTableRecord
  2
*ACTIVE
 70
     0
 10
0.0
 20
0.0
 11
1.0
 21
1.0
 12
210.0
 22
148.5
 13
0.0
 23
0.0
 14
10.0
 24
10.0
 15
10.0
 25
10.0
 16
0.0
 26
0.0
 36
1.0
 17
0.0
 27
0.0
 37
0.0
 40
341.0
 41
1.24
 42
50.0
 43
0.0
 44
0.0
 50
0.0
 51
0.0
 71
     0
 72
   100
 73
     1
 74
     3
 75
     0
 76
     0
 77
     0
 78
     0
  0
ENDTAB
  0
TABLE
  2
LTYPE
  5
5
330
0
100
AcDbSymbolTable
 70
     1
  0
LTYPE
  5
14
330
5
100
AcDbSymbolTableRecord
100
AcDbLinetypeTableRecord
  2
BYBLOCK
 70
     0
  3

 72
    65
 73
     0
 40
0.0
  0
LTYPE
  5
15
330
5
100
AcDbSymbolTableRecord
100
AcDbLinetypeTableRecord
  2
BYLAYER
 70
     0
  3

 72
    65
 73
     0
 40
0.0
  0
LTYPE
  5
16
330
5
100
AcDbSymbolTableRecord
100
AcDbLinetypeTableRecord
  2
CONTINUOUS
 70
     0
  3
Solid line
 72
    65
 73
     0
 40
0.0
  0
ENDTAB
  0
TABLE
  2
LAYER
  5
2
100
AcDbSymbolTable
 70
1
  0
LAYER
  5
50
100
AcDbSymbolTableRecord
100
AcDbLayerTableRecord
  2
0
 70
0
  6
CONTINUOUS
  0
ENDTAB
  0
TABLE
  2
STYLE
  5
3
330
0
100
AcDbSymbolTable
 70
     1
  0
STYLE
  5
11
330
3
100
AcDbSymbolTableRecord
100
AcDbTextStyleTableRecord
  2
STANDARD
 70
     0
 40
0.0
 41
1.0
 50
0.0
 71
     0
 42
2.5
  3
txt
  4

  0
ENDTAB
  0
TABLE
  2
VIEW
  5
6
330
0
100
AcDbSymbolTable
 70
     0
  0
ENDTAB
  0
TABLE
  2
UCS
  5
7
330
0
100
AcDbSymbolTable
 70
     0
  0
ENDTAB
  0
TABLE
  2
APPID
  5
9
330
0
100
AcDbSymbolTable
 70
     2
  0
APPID
  5
12
330
9
100
AcDbSymbolTableRecord
100
AcDbRegAppTableRecord
  2
ACAD
 70
     0
  0
ENDTAB
  0
TABLE
  2
DIMSTYLE
  5
A
330
0
100
AcDbSymbolTable
 70
     1
  0
DIMSTYLE
105
27
330
A
100
AcDbSymbolTableRecord
100
AcDbDimStyleTableRecord
  2
ISO-25
 70
     0
  3

  4

  5

  6

  7

 40
1.0
 41
2.5
 42
0.625
 43
3.75
 44
1.25
 45
0.0
 46
0.0
 47
0.0
 48
0.0
140
2.5
141
2.5
142
0.0
143
0.03937007874016
144
1.0
145
0.0
146
1.0
147
0.625
 71
     0
 72
     0
 73
     0
 74
     0
 75
     0
 76
     0
 77
     1
 78
     8
170
     0
171
     3
172
     1
173
     0
174
     0
175
     0
176
     0
177
     0
178
     0
270
     2
271
     2
272
     2
273
     2
274
     3
340
11
275
     0
280
     0
281
     0
282
     0
283
     0
284
     8
285
     0
286
     0
287
     3
288
     0
  0
ENDTAB
  0
TABLE
  2
BLOCK_RECORD
  5
1
330
0
100
AcDbSymbolTable
 70
     1
  0
BLOCK_RECORD
  5
1F
330
1
100
AcDbSymbolTableRecord
100
AcDbBlockTableRecord
  2
*MODEL_SPACE
  0
BLOCK_RECORD
  5
1B
330
1
100
AcDbSymbolTableRecord
100
AcDbBlockTableRecord
  2
*PAPER_SPACE
  0
ENDTAB
  0
ENDSEC
  0
SECTION
  2
BLOCKS
  0
BLOCK
  5
20
330
1F
100
AcDbEntity
  8
0
100
AcDbBlockBegin
  2
*MODEL_SPACE
 70
     0
 10
0.0
 20
0.0
 30
0.0
  3
*MODEL_SPACE
  1

  0
ENDBLK
  5
21
330
1F
100
AcDbEntity
  8
0
100
AcDbBlockEnd
  0
BLOCK
  5
1C
330
1B
100
AcDbEntity
 67
     1
  8
0
100
AcDbBlockBegin
  2
*PAPER_SPACE
  1

  0
ENDBLK
  5
1D
330
1B
100
AcDbEntity
 67
     1
  8
0
100
AcDbBlockEnd
  0
ENDSEC
  0
SECTION
  2
ENTITIES
  0
SPLINE
  5
100
100
AcDbEntity
  8
0
 62
7
100
AcDbSpline
 70
8
 71
3
 72
8
 73
4
 74
0
 40
0
 40
0
 40
0
 40
0
 40
1
 40
1
 40
1
 40
1
 10
87.600000
 20
144.400000
 30
0.0
 10
97.280000
 20
173.920000
 30
0.0
 10
106.000000
 20
196.880000
 30
0.0
 10
119.200000
 20
227.280000
 30
0.0
  0
SPLINE
  5
101
100
AcDbEntity
  8
0
 62
7
100
AcDbSpline
 70
8
 71
3
 72
8
 73
4
 74
0
 40
0
 40
0
 40
0
 40
0
 40
1
 40
1
 40
1
 40
1
 10
119.200000
 20
227.280000
 30
0.0
 10
134.480000
 20
262.560000
 30
0.0
 10
143.200000
 20
281.280000
 30
0.0
 10
152.000000
 20
297.760000
 30
0.0
  0
SPLINE
  5
102
100
AcDbEntity
  8
0
 62
7
100
AcDbSpline
 70
8
 71
3
 72
8
 73
4
 74
0
 40
0
 40
0
 40
0
 40
0
 40
1
 40
1
 40
1
 40
1
 10
152.000000
 20
297.760000
 30
0.0
 10
154.480000
 20
302.400000
 30
0.0
 10
156.560000
 20
306.320000
 30
0.0
 10
156.560000
 20
306.560000
 30
0.0
  0
SPLINE
  5
103
100
AcDbEntity
  8
0
 62
7
100
AcDbSpline
 70
8
 71
3
 72
8
 73
4
 74
0
 40
0
 40
0
 40
0
 40
0
 40
1
 40
1
 40
1
 40
1
 10
156.560000
 20
306.560000
 30
0.0
 10
156.560000
 20
307.120000
 30
0.0
 10
167.600000
 20
327.120000
 30
0.0
 10
182.800000
 20
354.320000
 30
0.0
  0
SPLINE
  5
104
100
AcDbEntity
  8
0
 62
7
100
AcDbSpline
 70
8
 71
3
 72
8
 73
4
 74
0
 40
0
 40
0
 40
0
 40
0
 40
1
 40
1
 40
1
 40
1
 10
182.800000
 20
354.320000
 30
0.0
 10
206.080000
 20
395.760000
 30
0.0
 10
216.480000
 20
417.280000
 30
0.0
 10
223.760000
 20
438.960000
 30
0.0
  0
SPLINE
  5
105
100
AcDbEntity
  8
0
 62
7
100
AcDbSpline
 70
8
 71
3
 72
8
 73
4
 74
0
 40
0
 40
0
 40
0
 40
0
 40
1
 40
1
 40
1
 40
1
 10
223.760000
 20
438.960000
 30
0.0
 10
227.440000
 20
450.000000
 30
0.0
 10
227.920000
 20
452.320000
 30
0.0
 10
228.320000
 20
461.520000
 30
0.0
  0
SPLINE
  5
106
100
AcDbEntity
  8
0
 62
7
100
AcDbSpline
 70
8
 71
3
 72
8
 73
4
 74
0
 40
0
 40
0
 40
0
 40
0
 40
1
 40
1
 40
1
 40
1
 10
228.320000
 20
461.520000
 30
0.0
 10
228.800000
 20
471.760000
 30
0.0
 10
228.720000
 20
471.840000
 30
0.0
 10
225.920000
 20
477.280000
 30
0.0
  0
SPLINE
  5
107
100
AcDbEntity
  8
0
 62
7
100
AcDbSpline
 70
8
 71
3
 72
8
 73
4
 74
0
 40
0
 40
0
 40
0
 40
0
 40
1
 40
1
 40
1
 40
1
 10
225.920000
 20
477.280000
 30
0.0
 10
220.400000
 20
487.920000
 30
0.0
 10
219.440000
 20
494.480000
 30
0.0
 10
218.640000
 20
528.400000
 30
0.0
  0
SPLINE
  5
108
100
AcDbEntity
  8
0
 62
7
100
AcDbSpline
 70
8
 71
3
 72
8
 73
4
 74
0
 40
0
 40
0
 40
0
 40
0
 40
1
 40
1
 40
1
 40
1
 10
218.640000
 20
528.400000
 30
0.0
 10
218.160000
 20
548.640000
 30
0.0
 10
217.440000
 20
562.320000
 30
0.0
 10
216.480000
 20
569.040000
 30
0.0
  0
SPLINE
  5
109
100
AcDbEntity
  8
0
 62
7
100
AcDbSpline
 70
8
 71
3
 72
8
 73
4
 74
0
 40
0
 40
0
 40
0
 40
0
 40
1
 40
1
 40
1
 40
1
 10
216.480000
 20
569.040000
 30
0.0
 10
215.120000
 20
578.160000
 30
0.0
 10
215.120000
 20
579.920000
 30
0.0
 10
216.320000
 20
585.680000
 30
0.0
  0
SPLINE
  5
10a
100
AcDbEntity
  8
0
 62
7
100
AcDbSpline
 70
8
 71
3
 72
8
 73
4
 74
0
 40
0
 40
0
 40
0
 40
0
 40
1
 40
1
 40
1
 40
1
 10
216.320000
 20
585.680000
 30
0.0
 10
217.040000
 20
589.200000
 30
0.0
 10
217.840000
 20
596.560000
 30
0.0
 10
218.160000
 20
602.000000
 30
0.0
  0
SPLINE
  5
10b
100
AcDbEntity
  8
0
 62
7
100
AcDbSpline
 70
8
 71
3
 72
8
 73
4
 74
0
 40
0
 40
0
 40
0
 40
0
 40
1
 40
1
 40
1
 40
1
 10
218.160000
 20
602.000000
 30
0.0
 10
218.880000
 20
614.960000
 30
0.0
 10
222.240000
 20
631.680000
 30
0.0
 10
226.000000
 20
641.200000
 30
0.0
  0
SPLINE
  5
10c
100
AcDbEntity
  8
0
 62
7
100
AcDbSpline
 70
8
 71
3
 72
8
 73
4
 74
0
 40
0
 40
0
 40
0
 40
0
 40
1
 40
1
 40
1
 40
1
 10
226.000000
 20
641.200000
 30
0.0
 10
227.440000
 20
644.720000
 30
0.0
 10
228.800000
 20
647.600000
 30
0.0
 10
232.640000
 20
654.960000
 30
0.0
  0
SPLINE
  5
10d
100
AcDbEntity
  8
0
 62
7
100
AcDbSpline
 70
8
 71
3
 72
8
 73
4
 74
0
 40
0
 40
0
 40
0
 40
0
 40
1
 40
1
 40
1
 40
1
 10
232.640000
 20
654.960000
 30
0.0
 10
235.520000
 20
660.400000
 30
0.0
 10
235.920000
 20
661.760000
 30
0.0
 10
235.040000
 20
663.040000
 30
0.0
  0
SPLINE
  5
10e
100
AcDbEntity
  8
0
 62
7
100
AcDbSpline
 70
8
 71
3
 72
8
 73
4
 74
0
 40
0
 40
0
 40
0
 40
0
 40
1
 40
1
 40
1
 40
1
 10
235.040000
 20
663.040000
 30
0.0
 10
234.480000
 20
663.840000
 30
0.0
 10
234.000000
 20
665.120000
 30
0.0
 10
234.000000
 20
665.840000
 30
0.0
  0
SPLINE
  5
10f
100
AcDbEntity
  8
0
 62
7
100
AcDbSpline
 70
8
 71
3
 72
8
 73
4
 74
0
 40
0
 40
0
 40
0
 40
0
 40
1
 40
1
 40
1
 40
1
 10
234.000000
 20
665.840000
 30
0.0
 10
234.000000
 20
667.600000
 30
0.0
 10
239.680000
 20
681.600000
 30
0.0
 10
243.120000
 20
688.240000
 30
0.0
  0
SPLINE
  5
110
100
AcDbEntity
  8
0
 62
7
100
AcDbSpline
 70
8
 71
3
 72
8
 73
4
 74
0
 40
0
 40
0
 40
0
 40
0
 40
1
 40
1
 40
1
 40
1
 10
243.120000
 20
688.240000
 30
0.0
 10
246.480000
 20
694.800000
 30
0.0
 10
246.720000
 20
696.560000
 30
0.0
 10
244.080000
 20
696.880000
 30
0.0
  0
SPLINE
  5
111
100
AcDbEntity
  8
0
 62
7
100
AcDbSpline
 70
8
 71
3
 72
8
 73
4
 74
0
 40
0
 40
0
 40
0
 40
0
 40
1
 40
1
 40
1
 40
1
 10
244.080000
 20
696.880000
 30
0.0
 10
241.680000
 20
697.200000
 30
0.0
 10
231.760000
 20
694.480000
 30
0.0
 10
225.440000
 20
691.840000
 30
0.0
  0
SPLINE
  5
112
100
AcDbEntity
  8
0
 62
7
100
AcDbSpline
 70
8
 71
3
 72
8
 73
4
 74
0
 40
0
 40
0
 40
0
 40
0
 40
1
 40
1
 40
1
 40
1
 10
225.440000
 20
691.840000
 30
0.0
 10
222.800000
 20
690.720000
 30
0.0
 10
217.600000
 20
689.600000
 30
0.0
 10
212.800000
 20
689.040000
 30
0.0
  0
SPLINE
  5
113
100
AcDbEntity
  8
0
 62
7
100
AcDbSpline
 70
8
 71
3
 72
8
 73
4
 74
0
 40
0
 40
0
 40
0
 40
0
 40
1
 40
1
 40
1
 40
1
 10
212.800000
 20
689.040000
 30
0.0
 10
206.160000
 20
688.320000
 30
0.0
 10
204.320000
 20
687.760000
 30
0.0
 10
202.720000
 20
686.160000
 30
0.0
  0
SPLINE
  5
114
100
AcDbEntity
  8
0
 62
7
100
AcDbSpline
 70
8
 71
3
 72
8
 73
4
 74
0
 40
0
 40
0
 40
0
 40
0
 40
1
 40
1
 40
1
 40
1
 10
202.720000
 20
686.160000
 30
0.0
 10
201.600000
 20
685.120000
 30
0.0
 10
200.640000
 20
683.600000
 30
0.0
 10
200.640000
 20
682.720000
 30
0.0
  0
SPLINE
  5
115
100
AcDbEntity
  8
0
 62
7
100
AcDbSpline
 70
8
 71
3
 72
8
 73
4
 74
0
 40
0
 40
0
 40
0
 40
0
 40
1
 40
1
 40
1
 40
1
 10
200.640000
 20
682.720000
 30
0.0
 10
200.640000
 20
681.840000
 30
0.0
 10
199.040000
 20
676.880000
 30
0.0
 10
197.040000
 20
671.760000
 30
0.0
  0
SPLINE
  5
116
100
AcDbEntity
  8
0
 62
7
100
AcDbSpline
 70
8
 71
3
 72
8
 73
4
 74
0
 40
0
 40
0
 40
0
 40
0
 40
1
 40
1
 40
1
 40
1
 10
197.040000
 20
671.760000
 30
0.0
 10
191.200000
 20
656.240000
 30
0.0
 10
189.760000
 20
649.280000
 30
0.0
 10
189.120000
 20
633.280000
 30
0.0
  0
LINE
  5
117
100
AcDbEntity
  8
0
 62
7
100
AcDbLine
 10
189.120000
 20
633.280000
 30
0.0
 11
188.480000
 21
619.040000
 31
0.0
  0
LINE
  5
118
100
AcDbEntity
  8
0
 62
7
100
AcDbLine
 10
188.480000
 20
619.040000
 30
0.0
 11
184.880000
 21
619.280000
 31
0.0
  0
SPLINE
  5
119
100
AcDbEntity
  8
0
 62
7
100
AcDbSpline
 70
8
 71
3
 72
8
 73
4
 74
0
 40
0
 40
0
 40
0
 40
0
 40
1
 40
1
 40
1
 40
1
 10
184.880000
 20
619.280000
 30
0.0
 10
182.960000
 20
619.360000
 30
0.0
 10
180.160000
 20
619.840000
 30
0.0
 10
178.720000
 20
620.400000
 30
0.0
  0
LINE
  5
11a
100
AcDbEntity
  8
0
 62
7
100
AcDbLine
 10
178.720000
 20
620.400000
 30
0.0
 11
176.080000
 21
621.280000
 31
0.0
  0
LINE
  5
11b
100
AcDbEntity
  8
0
 62
7
100
AcDbLine
 10
176.080000
 20
621.280000
 30
0.0
 11
176.640000
 21
630.080000
 31
0.0
  0
SPLINE
  5
11c
100
AcDbEntity
  8
0
 62
7
100
AcDbSpline
 70
8
 71
3
 72
8
 73
4
 74
0
 40
0
 40
0
 40
0
 40
0
 40
1
 40
1
 40
1
 40
1
 10
176.640000
 20
630.080000
 30
0.0
 10
177.680000
 20
648.240000
 30
0.0
 10
182.320000
 20
661.280000
 30
0.0
 10
194.800000
 20
681.120000
 30
0.0
  0
LINE
  5
11d
100
AcDbEntity
  8
0
 62
7
100
AcDbLine
 10
194.800000
 20
681.120000
 30
0.0
 11
199.040000
 21
687.840000
 31
0.0
  0
LINE
  5
11e
100
AcDbEntity
  8
0
 62
7
100
AcDbLine
 10
199.040000
 20
687.840000
 30
0.0
 11
197.600000
 21
691.680000
 31
0.0
  0
SPLINE
  5
11f
100
AcDbEntity
  8
0
 62
7
100
AcDbSpline
 70
8
 71
3
 72
8
 73
4
 74
0
 40
0
 40
0
 40
0
 40
0
 40
1
 40
1
 40
1
 40
1
 10
197.600000
 20
691.680000
 30
0.0
 10
195.840000
 20
696.400000
 30
0.0
 10
195.760000
 20
702.080000
 30
0.0
 10
197.280000
 20
703.120000
 30
0.0
  0
SPLINE
  5
120
100
AcDbEntity
  8
0
 62
7
100
AcDbSpline
 70
8
 71
3
 72
8
 73
4
 74
0
 40
0
 40
0
 40
0
 40
0
 40
1
 40
1
 40
1
 40
1
 10
197.280000
 20
703.120000
 30
0.0
 10
197.920000
 20
703.600000
 30
0.0
 10
200.800000
 20
704.560000
 30
0.0
 10
203.840000
 20
705.280000
 30
0.0
  0
SPLINE
  5
121
100
AcDbEntity
  8
0
 62
7
100
AcDbSpline
 70
8
 71
3
 72
8
 73
4
 74
0
 40
0
 40
0
 40
0
 40
0
 40
1
 40
1
 40
1
 40
1
 10
203.840000
 20
705.280000
 30
0.0
 10
206.800000
 20
706.080000
 30
0.0
 10
209.760000
 20
707.040000
 30
0.0
 10
210.320000
 20
707.520000
 30
0.0
  0
SPLINE
  5
122
100
AcDbEntity
  8
0
 62
7
100
AcDbSpline
 70
8
 71
3
 72
8
 73
4
 74
0
 40
0
 40
0
 40
0
 40
0
 40
1
 40
1
 40
1
 40
1
 10
210.320000
 20
707.520000
 30
0.0
 10
210.960000
 20
707.920000
 30
0.0
 10
214.720000
 20
708.800000
 30
0.0
 10
218.640000
 20
709.360000
 30
0.0
  0
SPLINE
  5
123
100
AcDbEntity
  8
0
 62
7
100
AcDbSpline
 70
8
 71
3
 72
8
 73
4
 74
0
 40
0
 40
0
 40
0
 40
0
 40
1
 40
1
 40
1
 40
1
 10
218.640000
 20
709.360000
 30
0.0
 10
222.480000
 20
709.840000
 30
0.0
 10
227.840000
 20
711.280000
 30
0.0
 10
230.400000
 20
712.400000
 30
0.0
  0
SPLINE
  5
124
100
AcDbEntity
  8
0
 62
7
100
AcDbSpline
 70
8
 71
3
 72
8
 73
4
 74
0
 40
0
 40
0
 40
0
 40
0
 40
1
 40
1
 40
1
 40
1
 10
230.400000
 20
712.400000
 30
0.0
 10
232.880000
 20
713.520000
 30
0.0
 10
235.760000
 20
714.400000
 30
0.0
 10
236.800000
 20
714.400000
 30
0.0
  0
SPLINE
  5
125
100
AcDbEntity
  8
0
 62
7
100
AcDbSpline
 70
8
 71
3
 72
8
 73
4
 74
0
 40
0
 40
0
 40
0
 40
0
 40
1
 40
1
 40
1
 40
1
 10
236.800000
 20
714.400000
 30
0.0
 10
240.240000
 20
714.400000
 30
0.0
 10
247.200000
 20
718.240000
 30
0.0
 10
249.280000
 20
721.360000
 30
0.0
  0
SPLINE
  5
126
100
AcDbEntity
  8
0
 62
7
100
AcDbSpline
 70
8
 71
3
 72
8
 73
4
 74
0
 40
0
 40
0
 40
0
 40
0
 40
1
 40
1
 40
1
 40
1
 10
249.280000
 20
721.360000
 30
0.0
 10
252.160000
 20
725.440000
 30
0.0
 10
256.560000
 20
729.440000
 30
0.0
 10
258.240000
 20
729.440000
 30
0.0
  0
SPLINE
  5
127
100
AcDbEntity
  8
0
 62
7
100
AcDbSpline
 70
8
 71
3
 72
8
 73
4
 74
0
 40
0
 40
0
 40
0
 40
0
 40
1
 40
1
 40
1
 40
1
 10
258.240000
 20
729.440000
 30
0.0
 10
259.120000
 20
729.440000
 30
0.0
 10
261.360000
 20
730.560000
 30
0.0
 10
263.280000
 20
731.840000
 30
0.0
  0
SPLINE
  5
128
100
AcDbEntity
  8
0
 62
7
100
AcDbSpline
 70
8
 71
3
 72
8
 73
4
 74
0
 40
0
 40
0
 40
0
 40
0
 40
1
 40
1
 40
1
 40
1
 10
263.280000
 20
731.840000
 30
0.0
 10
265.200000
 20
733.120000
 30
0.0
 10
267.920000
 20
734.160000
 30
0.0
 10
269.360000
 20
734.160000
 30
0.0
  0
SPLINE
  5
129
100
AcDbEntity
  8
0
 62
7
100
AcDbSpline
 70
8
 71
3
 72
8
 73
4
 74
0
 40
0
 40
0
 40
0
 40
0
 40
1
 40
1
 40
1
 40
1
 10
269.360000
 20
734.160000
 30
0.0
 10
270.720000
 20
734.240000
 30
0.0
 10
272.800000
 20
734.800000
 30
0.0
 10
274.080000
 20
735.520000
 30
0.0
  0
SPLINE
  5
12a
100
AcDbEntity
  8
0
 62
7
100
AcDbSpline
 70
8
 71
3
 72
8
 73
4
 74
0
 40
0
 40
0
 40
0
 40
0
 40
1
 40
1
 40
1
 40
1
 10
274.080000
 20
735.520000
 30
0.0
 10
275.680000
 20
736.400000
 30
0.0
 10
277.280000
 20
736.640000
 30
0.0
 10
280.000000
 20
736.240000
 30
0.0
  0
SPLINE
  5
12b
100
AcDbEntity
  8
0
 62
7
100
AcDbSpline
 70
8
 71
3
 72
8
 73
4
 74
0
 40
0
 40
0
 40
0
 40
0
 40
1
 40
1
 40
1
 40
1
 10
280.000000
 20
736.240000
 30
0.0
 10
282.800000
 20
735.840000
 30
0.0
 10
284.080000
 20
736.080000
 30
0.0
 10
285.360000
 20
737.040000
 30
0.0
  0
SPLINE
  5
12c
100
AcDbEntity
  8
0
 62
7
100
AcDbSpline
 70
8
 71
3
 72
8
 73
4
 74
0
 40
0
 40
0
 40
0
 40
0
 40
1
 40
1
 40
1
 40
1
 10
285.360000
 20
737.040000
 30
0.0
 10
286.880000
 20
738.320000
 30
0.0
 10
287.200000
 20
738.320000
 30
0.0
 10
289.520000
 20
736.960000
 30
0.0
  0
SPLINE
  5
12d
100
AcDbEntity
  8
0
 62
7
100
AcDbSpline
 70
8
 71
3
 72
8
 73
4
 74
0
 40
0
 40
0
 40
0
 40
0
 40
1
 40
1
 40
1
 40
1
 10
289.520000
 20
736.960000
 30
0.0
 10
290.880000
 20
736.160000
 30
0.0
 10
292.560000
 20
735.040000
 30
0.0
 10
293.200000
 20
734.480000
 30
0.0
  0
SPLINE
  5
12e
100
AcDbEntity
  8
0
 62
7
100
AcDbSpline
 70
8
 71
3
 72
8
 73
4
 74
0
 40
0
 40
0
 40
0
 40
0
 40
1
 40
1
 40
1
 40
1
 10
293.200000
 20
734.480000
 30
0.0
 10
294.960000
 20
732.960000
 30
0.0
 10
297.600000
 20
733.200000
 30
0.0
 10
300.640000
 20
735.120000
 30
0.0
  0
SPLINE
  5
12f
100
AcDbEntity
  8
0
 62
7
100
AcDbSpline
 70
8
 71
3
 72
8
 73
4
 74
0
 40
0
 40
0
 40
0
 40
0
 40
1
 40
1
 40
1
 40
1
 10
300.640000
 20
735.120000
 30
0.0
 10
302.400000
 20
736.320000
 30
0.0
 10
304.960000
 20
736.960000
 30
0.0
 10
308.800000
 20
737.200000
 30
0.0
  0
SPLINE
  5
130
100
AcDbEntity
  8
0
 62
7
100
AcDbSpline
 70
8
 71
3
 72
8
 73
4
 74
0
 40
0
 40
0
 40
0
 40
0
 40
1
 40
1
 40
1
 40
1
 10
308.800000
 20
737.200000
 30
0.0
 10
312.000000
 20
737.440000
 30
0.0
 10
317.360000
 20
738.640000
 30
0.0
 10
321.600000
 20
740.080000
 30
0.0
  0
LINE
  5
131
100
AcDbEntity
  8
0
 62
7
100
AcDbLine
 10
321.600000
 20
740.080000
 30
0.0
 11
328.880000
 21
742.560000
 31
0.0
  0
LINE
  5
132
100
AcDbEntity
  8
0
 62
7
100
AcDbLine
 10
328.880000
 20
742.560000
 30
0.0
 11
328.880000
 21
746.480000
 31
0.0
  0
SPLINE
  5
133
100
AcDbEntity
  8
0
 62
7
100
AcDbSpline
 70
8
 71
3
 72
8
 73
4
 74
0
 40
0
 40
0
 40
0
 40
0
 40
1
 40
1
 40
1
 40
1
 10
328.880000
 20
746.480000
 30
0.0
 10
328.800000
 20
748.640000
 30
0.0
 10
328.480000
 20
757.040000
 30
0.0
 10
328.000000
 20
765.120000
 30
0.0
  0
SPLINE
  5
134
100
AcDbEntity
  8
0
 62
7
100
AcDbSpline
 70
8
 71
3
 72
8
 73
4
 74
0
 40
0
 40
0
 40
0
 40
0
 40
1
 40
1
 40
1
 40
1
 10
328.000000
 20
765.120000
 30
0.0
 10
327.200000
 20
781.360000
 30
0.0
 10
326.960000
 20
780.080000
 30
0.0
 10
333.440000
 20
791.520000
 30
0.0
  0
LINE
  5
135
100
AcDbEntity
  8
0
 62
7
100
AcDbLine
 10
333.440000
 20
791.520000
 30
0.0
 11
336.080000
 21
796.320000
 31
0.0
  0
LINE
  5
136
100
AcDbEntity
  8
0
 62
7
100
AcDbLine
 10
336.080000
 20
796.320000
 30
0.0
 11
350.560000
 21
800.960000
 31
0.0
  0
SPLINE
  5
137
100
AcDbEntity
  8
0
 62
7
100
AcDbSpline
 70
8
 71
3
 72
8
 73
4
 74
0
 40
0
 40
0
 40
0
 40
0
 40
1
 40
1
 40
1
 40
1
 10
350.560000
 20
800.960000
 30
0.0
 10
369.200000
 20
807.040000
 30
0.0
 10
369.280000
 20
807.040000
 30
0.0
 10
374.560000
 20
803.280000
 30
0.0
  0
SPLINE
  5
138
100
AcDbEntity
  8
0
 62
7
100
AcDbSpline
 70
8
 71
3
 72
8
 73
4
 74
0
 40
0
 40
0
 40
0
 40
0
 40
1
 40
1
 40
1
 40
1
 10
374.560000
 20
803.280000
 30
0.0
 10
376.800000
 20
801.680000
 30
0.0
 10
382.080000
 20
798.000000
 30
0.0
 10
386.080000
 20
795.120000
 30
0.0
  0
SPLINE
  5
139
100
AcDbEntity
  8
0
 62
7
100
AcDbSpline
 70
8
 71
3
 72
8
 73
4
 74
0
 40
0
 40
0
 40
0
 40
0
 40
1
 40
1
 40
1
 40
1
 10
386.080000
 20
795.120000
 30
0.0
 10
393.120000
 20
790.320000
 30
0.0
 10
398.480000
 20
784.480000
 30
0.0
 10
401.200000
 20
779.120000
 30
0.0
  0
SPLINE
  5
13a
100
AcDbEntity
  8
0
 62
7
100
AcDbSpline
 70
8
 71
3
 72
8
 73
4
 74
0
 40
0
 40
0
 40
0
 40
0
 40
1
 40
1
 40
1
 40
1
 10
401.200000
 20
779.120000
 30
0.0
 10
402.000000
 20
777.440000
 30
0.0
 10
402.240000
 20
766.480000
 30
0.0
 10
402.240000
 20
737.040000
 30
0.0
  0
LINE
  5
13b
100
AcDbEntity
  8
0
 62
7
100
AcDbLine
 10
402.240000
 20
737.040000
 30
0.0
 11
402.240000
 21
697.200000
 31
0.0
  0
LINE
  5
13c
100
AcDbEntity
  8
0
 62
7
100
AcDbLine
 10
402.240000
 20
697.200000
 30
0.0
 11
398.560000
 21
691.760000
 31
0.0
  0
SPLINE
  5
13d
100
AcDbEntity
  8
0
 62
7
100
AcDbSpline
 70
8
 71
3
 72
8
 73
4
 74
0
 40
0
 40
0
 40
0
 40
0
 40
1
 40
1
 40
1
 40
1
 10
398.560000
 20
691.760000
 30
0.0
 10
396.480000
 20
688.800000
 30
0.0
 10
394.160000
 20
686.000000
 30
0.0
 10
393.360000
 20
685.520000
 30
0.0
  0
SPLINE
  5
13e
100
AcDbEntity
  8
0
 62
7
100
AcDbSpline
 70
8
 71
3
 72
8
 73
4
 74
0
 40
0
 40
0
 40
0
 40
0
 40
1
 40
1
 40
1
 40
1
 10
393.360000
 20
685.520000
 30
0.0
 10
391.120000
 20
684.320000
 30
0.0
 10
358.880000
 20
673.280000
 30
0.0
 10
357.600000
 20
673.280000
 30
0.0
  0
SPLINE
  5
13f
100
AcDbEntity
  8
0
 62
7
100
AcDbSpline
 70
8
 71
3
 72
8
 73
4
 74
0
 40
0
 40
0
 40
0
 40
0
 40
1
 40
1
 40
1
 40
1
 10
357.600000
 20
673.280000
 30
0.0
 10
356.960000
 20
673.280000
 30
0.0
 10
354.800000
 20
675.280000
 30
0.0
 10
352.880000
 20
677.840000
 30
0.0
  0
SPLINE
  5
140
100
AcDbEntity
  8
0
 62
7
100
AcDbSpline
 70
8
 71
3
 72
8
 73
4
 74
0
 40
0
 40
0
 40
0
 40
0
 40
1
 40
1
 40
1
 40
1
 10
352.880000
 20
677.840000
 30
0.0
 10
350.880000
 20
680.320000
 30
0.0
 10
346.720000
 20
685.360000
 30
0.0
 10
343.680000
 20
689.120000
 30
0.0
  0
SPLINE
  5
141
100
AcDbEntity
  8
0
 62
7
100
AcDbSpline
 70
8
 71
3
 72
8
 73
4
 74
0
 40
0
 40
0
 40
0
 40
0
 40
1
 40
1
 40
1
 40
1
 10
343.680000
 20
689.120000
 30
0.0
 10
331.680000
 20
703.600000
 30
0.0
 10
332.160000
 20
702.640000
 30
0.0
 10
331.520000
 20
713.040000
 30
0.0
  0
SPLINE
  5
142
100
AcDbEntity
  8
0
 62
7
100
AcDbSpline
 70
8
 71
3
 72
8
 73
4
 74
0
 40
0
 40
0
 40
0
 40
0
 40
1
 40
1
 40
1
 40
1
 10
331.520000
 20
713.040000
 30
0.0
 10
331.120000
 20
719.200000
 30
0.0
 10
330.480000
 20
722.640000
 30
0.0
 10
329.680000
 20
723.200000
 30
0.0
  0
SPLINE
  5
143
100
AcDbEntity
  8
0
 62
7
100
AcDbSpline
 70
8
 71
3
 72
8
 73
4
 74
0
 40
0
 40
0
 40
0
 40
0
 40
1
 40
1
 40
1
 40
1
 10
329.680000
 20
723.200000
 30
0.0
 10
328.400000
 20
724.160000
 30
0.0
 10
324.800000
 20
723.360000
 30
0.0
 10
317.040000
 20
720.240000
 30
0.0
  0
SPLINE
  5
144
100
AcDbEntity
  8
0
 62
7
100
AcDbSpline
 70
8
 71
3
 72
8
 73
4
 74
0
 40
0
 40
0
 40
0
 40
0
 40
1
 40
1
 40
1
 40
1
 10
317.040000
 20
720.240000
 30
0.0
 10
314.480000
 20
719.200000
 30
0.0
 10
311.840000
 20
718.400000
 30
0.0
 10
311.120000
 20
718.400000
 30
0.0
  0
SPLINE
  5
145
100
AcDbEntity
  8
0
 62
7
100
AcDbSpline
 70
8
 71
3
 72
8
 73
4
 74
0
 40
0
 40
0
 40
0
 40
0
 40
1
 40
1
 40
1
 40
1
 10
311.120000
 20
718.400000
 30
0.0
 10
308.160000
 20
718.400000
 30
0.0
 10
306.640000
 20
716.320000
 30
0.0
 10
306.720000
 20
712.480000
 30
0.0
  0
SPLINE
  5
146
100
AcDbEntity
  8
0
 62
7
100
AcDbSpline
 70
8
 71
3
 72
8
 73
4
 74
0
 40
0
 40
0
 40
0
 40
0
 40
1
 40
1
 40
1
 40
1
 10
306.720000
 20
712.480000
 30
0.0
 10
306.800000
 20
709.440000
 30
0.0
 10
306.000000
 20
707.200000
 30
0.0
 10
303.120000
 20
702.240000
 30
0.0
  0
SPLINE
  5
147
100
AcDbEntity
  8
0
 62
7
100
AcDbSpline
 70
8
 71
3
 72
8
 73
4
 74
0
 40
0
 40
0
 40
0
 40
0
 40
1
 40
1
 40
1
 40
1
 10
303.120000
 20
702.240000
 30
0.0
 10
298.080000
 20
693.360000
 30
0.0
 10
296.000000
 20
691.120000
 30
0.0
 10
290.000000
 20
688.560000
 30
0.0
  0
SPLINE
  5
148
100
AcDbEntity
  8
0
 62
7
100
AcDbSpline
 70
8
 71
3
 72
8
 73
4
 74
0
 40
0
 40
0
 40
0
 40
0
 40
1
 40
1
 40
1
 40
1
 10
290.000000
 20
688.560000
 30
0.0
 10
284.160000
 20
686.000000
 30
0.0
 10
284.640000
 20
687.040000
 30
0.0
 10
281.360000
 20
672.000000
 30
0.0
  0
SPLINE
  5
149
100
AcDbEntity
  8
0
 62
7
100
AcDbSpline
 70
8
 71
3
 72
8
 73
4
 74
0
 40
0
 40
0
 40
0
 40
0
 40
1
 40
1
 40
1
 40
1
 10
281.360000
 20
672.000000
 30
0.0
 10
280.160000
 20
666.320000
 30
0.0
 10
278.160000
 20
659.760000
 30
0.0
 10
276.880000
 20
657.360000
 30
0.0
  0
SPLINE
  5
14a
100
AcDbEntity
  8
0
 62
7
100
AcDbSpline
 70
8
 71
3
 72
8
 73
4
 74
0
 40
0
 40
0
 40
0
 40
0
 40
1
 40
1
 40
1
 40
1
 10
276.880000
 20
657.360000
 30
0.0
 10
273.840000
 20
651.520000
 30
0.0
 10
273.200000
 20
643.680000
 30
0.0
 10
274.880000
 20
631.360000
 30
0.0
  0
SPLINE
  5
14b
100
AcDbEntity
  8
0
 62
7
100
AcDbSpline
 70
8
 71
3
 72
8
 73
4
 74
0
 40
0
 40
0
 40
0
 40
0
 40
1
 40
1
 40
1
 40
1
 10
274.880000
 20
631.360000
 30
0.0
 10
276.480000
 20
619.680000
 30
0.0
 10
276.560000
 20
613.040000
 30
0.0
 10
275.280000
 20
606.000000
 30
0.0
  0
SPLINE
  5
14c
100
AcDbEntity
  8
0
 62
7
100
AcDbSpline
 70
8
 71
3
 72
8
 73
4
 74
0
 40
0
 40
0
 40
0
 40
0
 40
1
 40
1
 40
1
 40
1
 10
275.280000
 20
606.000000
 30
0.0
 10
274.320000
 20
600.480000
 30
0.0
 10
271.280000
 20
592.080000
 30
0.0
 10
269.600000
 20
590.240000
 30
0.0
  0
SPLINE
  5
14d
100
AcDbEntity
  8
0
 62
7
100
AcDbSpline
 70
8
 71
3
 72
8
 73
4
 74
0
 40
0
 40
0
 40
0
 40
0
 40
1
 40
1
 40
1
 40
1
 10
269.600000
 20
590.240000
 30
0.0
 10
269.040000
 20
589.600000
 30
0.0
 10
268.640000
 20
585.520000
 30
0.0
 10
268.640000
 20
579.920000
 30
0.0
  0
SPLINE
  5
14e
100
AcDbEntity
  8
0
 62
7
100
AcDbSpline
 70
8
 71
3
 72
8
 73
4
 74
0
 40
0
 40
0
 40
0
 40
0
 40
1
 40
1
 40
1
 40
1
 10
268.640000
 20
579.920000
 30
0.0
 10
268.640000
 20
569.760000
 30
0.0
 10
269.200000
 20
567.840000
 30
0.0
 10
274.480000
 20
560.880000
 30
0.0
  0
SPLINE
  5
14f
100
AcDbEntity
  8
0
 62
7
100
AcDbSpline
 70
8
 71
3
 72
8
 73
4
 74
0
 40
0
 40
0
 40
0
 40
0
 40
1
 40
1
 40
1
 40
1
 10
274.480000
 20
560.880000
 30
0.0
 10
276.320000
 20
558.480000
 30
0.0
 10
279.120000
 20
553.120000
 30
0.0
 10
280.800000
 20
549.040000
 30
0.0
  0
SPLINE
  5
150
100
AcDbEntity
  8
0
 62
7
100
AcDbSpline
 70
8
 71
3
 72
8
 73
4
 74
0
 40
0
 40
0
 40
0
 40
0
 40
1
 40
1
 40
1
 40
1
 10
280.800000
 20
549.040000
 30
0.0
 10
285.280000
 20
537.760000
 30
0.0
 10
288.720000
 20
533.920000
 30
0.0
 10
292.080000
 20
536.400000
 30
0.0
  0
SPLINE
  5
151
100
AcDbEntity
  8
0
 62
7
100
AcDbSpline
 70
8
 71
3
 72
8
 73
4
 74
0
 40
0
 40
0
 40
0
 40
0
 40
1
 40
1
 40
1
 40
1
 10
292.080000
 20
536.400000
 30
0.0
 10
294.480000
 20
538.160000
 30
0.0
 10
293.600000
 20
543.120000
 30
0.0
 10
289.680000
 20
549.680000
 30
0.0
  0
SPLINE
  5
152
100
AcDbEntity
  8
0
 62
7
100
AcDbSpline
 70
8
 71
3
 72
8
 73
4
 74
0
 40
0
 40
0
 40
0
 40
0
 40
1
 40
1
 40
1
 40
1
 10
289.680000
 20
549.680000
 30
0.0
 10
286.160000
 20
555.760000
 30
0.0
 10
286.080000
 20
556.080000
 30
0.0
 10
286.080000
 20
563.680000
 30
0.0
  0
SPLINE
  5
153
100
AcDbEntity
  8
0
 62
7
100
AcDbSpline
 70
8
 71
3
 72
8
 73
4
 74
0
 40
0
 40
0
 40
0
 40
0
 40
1
 40
1
 40
1
 40
1
 10
286.080000
 20
563.680000
 30
0.0
 10
286.160000
 20
568.000000
 30
0.0
 10
286.160000
 20
574.160000
 30
0.0
 10
286.080000
 20
577.440000
 30
0.0
  0
SPLINE
  5
154
100
AcDbEntity
  8
0
 62
7
100
AcDbSpline
 70
8
 71
3
 72
8
 73
4
 74
0
 40
0
 40
0
 40
0
 40
0
 40
1
 40
1
 40
1
 40
1
 10
286.080000
 20
577.440000
 30
0.0
 10
286.080000
 20
581.760000
 30
0.0
 10
286.480000
 20
583.600000
 30
0.0
 10
287.600000
 20
584.640000
 30
0.0
  0
SPLINE
  5
155
100
AcDbEntity
  8
0
 62
7
100
AcDbSpline
 70
8
 71
3
 72
8
 73
4
 74
0
 40
0
 40
0
 40
0
 40
0
 40
1
 40
1
 40
1
 40
1
 10
287.600000
 20
584.640000
 30
0.0
 10
288.560000
 20
585.680000
 30
0.0
 10
288.880000
 20
586.800000
 30
0.0
 10
288.480000
 20
588.480000
 30
0.0
  0
SPLINE
  5
156
100
AcDbEntity
  8
0
 62
7
100
AcDbSpline
 70
8
 71
3
 72
8
 73
4
 74
0
 40
0
 40
0
 40
0
 40
0
 40
1
 40
1
 40
1
 40
1
 10
288.480000
 20
588.480000
 30
0.0
 10
287.360000
 20
592.800000
 30
0.0
 10
287.680000
 20
597.280000
 30
0.0
 10
289.200000
 20
598.800000
 30
0.0
  0
SPLINE
  5
157
100
AcDbEntity
  8
0
 62
7
100
AcDbSpline
 70
8
 71
3
 72
8
 73
4
 74
0
 40
0
 40
0
 40
0
 40
0
 40
1
 40
1
 40
1
 40
1
 10
289.200000
 20
598.800000
 30
0.0
 10
290.000000
 20
599.520000
 30
0.0
 10
290.640000
 20
601.120000
 30
0.0
 10
290.640000
 20
602.240000
 30
0.0
  0
SPLINE
  5
158
100
AcDbEntity
  8
0
 62
7
100
AcDbSpline
 70
8
 71
3
 72
8
 73
4
 74
0
 40
0
 40
0
 40
0
 40
0
 40
1
 40
1
 40
1
 40
1
 10
290.640000
 20
602.240000
 30
0.0
 10
290.640000
 20
604.560000
 30
0.0
 10
293.200000
 20
611.680000
 30
0.0
 10
294.240000
 20
612.320000
 30
0.0
  0
SPLINE
  5
159
100
AcDbEntity
  8
0
 62
7
100
AcDbSpline
 70
8
 71
3
 72
8
 73
4
 74
0
 40
0
 40
0
 40
0
 40
0
 40
1
 40
1
 40
1
 40
1
 10
294.240000
 20
612.320000
 30
0.0
 10
294.560000
 20
612.560000
 30
0.0
 10
295.120000
 20
613.280000
 30
0.0
 10
295.360000
 20
613.920000
 30
0.0
  0
SPLINE
  5
15a
100
AcDbEntity
  8
0
 62
7
100
AcDbSpline
 70
8
 71
3
 72
8
 73
4
 74
0
 40
0
 40
0
 40
0
 40
0
 40
1
 40
1
 40
1
 40
1
 10
295.360000
 20
613.920000
 30
0.0
 10
295.600000
 20
614.560000
 30
0.0
 10
296.000000
 20
608.480000
 30
0.0
 10
296.320000
 20
600.480000
 30
0.0
  0
SPLINE
  5
15b
100
AcDbEntity
  8
0
 62
7
100
AcDbSpline
 70
8
 71
3
 72
8
 73
4
 74
0
 40
0
 40
0
 40
0
 40
0
 40
1
 40
1
 40
1
 40
1
 10
296.320000
 20
600.480000
 30
0.0
 10
297.040000
 20
580.480000
 30
0.0
 10
299.040000
 20
571.200000
 30
0.0
 10
305.520000
 20
558.960000
 30
0.0
  0
SPLINE
  5
15c
100
AcDbEntity
  8
0
 62
7
100
AcDbSpline
 70
8
 71
3
 72
8
 73
4
 74
0
 40
0
 40
0
 40
0
 40
0
 40
1
 40
1
 40
1
 40
1
 10
305.520000
 20
558.960000
 30
0.0
 10
307.280000
 20
555.600000
 30
0.0
 10
307.760000
 20
553.680000
 30
0.0
 10
307.360000
 20
551.760000
 30
0.0
  0
SPLINE
  5
15d
100
AcDbEntity
  8
0
 62
7
100
AcDbSpline
 70
8
 71
3
 72
8
 73
4
 74
0
 40
0
 40
0
 40
0
 40
0
 40
1
 40
1
 40
1
 40
1
 10
307.360000
 20
551.760000
 30
0.0
 10
306.800000
 20
549.040000
 30
0.0
 10
307.440000
 20
546.640000
 30
0.0
 10
308.720000
 20
546.640000
 30
0.0
  0
SPLINE
  5
15e
100
AcDbEntity
  8
0
 62
7
100
AcDbSpline
 70
8
 71
3
 72
8
 73
4
 74
0
 40
0
 40
0
 40
0
 40
0
 40
1
 40
1
 40
1
 40
1
 10
308.720000
 20
546.640000
 30
0.0
 10
309.200000
 20
546.640000
 30
0.0
 10
310.960000
 20
548.560000
 30
0.0
 10
312.640000
 20
550.960000
 30
0.0
  0
SPLINE
  5
15f
100
AcDbEntity
  8
0
 62
7
100
AcDbSpline
 70
8
 71
3
 72
8
 73
4
 74
0
 40
0
 40
0
 40
0
 40
0
 40
1
 40
1
 40
1
 40
1
 10
312.640000
 20
550.960000
 30
0.0
 10
316.880000
 20
556.800000
 30
0.0
 10
323.200000
 20
561.840000
 30
0.0
 10
329.760000
 20
564.800000
 30
0.0
  0
SPLINE
  5
160
100
AcDbEntity
  8
0
 62
7
100
AcDbSpline
 70
8
 71
3
 72
8
 73
4
 74
0
 40
0
 40
0
 40
0
 40
0
 40
1
 40
1
 40
1
 40
1
 10
329.760000
 20
564.800000
 30
0.0
 10
332.800000
 20
566.080000
 30
0.0
 10
337.440000
 20
568.960000
 30
0.0
 10
340.160000
 20
571.200000
 30
0.0
  0
LINE
  5
161
100
AcDbEntity
  8
0
 62
7
100
AcDbLine
 10
340.160000
 20
571.200000
 30
0.0
 11
345.120000
 21
575.200000
 31
0.0
  0
LINE
  5
162
100
AcDbEntity
  8
0
 62
7
100
AcDbLine
 10
345.120000
 20
575.200000
 30
0.0
 11
349.280000
 21
571.280000
 31
0.0
  0
SPLINE
  5
163
100
AcDbEntity
  8
0
 62
7
100
AcDbSpline
 70
8
 71
3
 72
8
 73
4
 74
0
 40
0
 40
0
 40
0
 40
0
 40
1
 40
1
 40
1
 40
1
 10
349.280000
 20
571.280000
 30
0.0
 10
351.600000
 20
569.120000
 30
0.0
 10
355.440000
 20
566.240000
 30
0.0
 10
357.840000
 20
564.800000
 30
0.0
  0
SPLINE
  5
164
100
AcDbEntity
  8
0
 62
7
100
AcDbSpline
 70
8
 71
3
 72
8
 73
4
 74
0
 40
0
 40
0
 40
0
 40
0
 40
1
 40
1
 40
1
 40
1
 10
357.840000
 20
564.800000
 30
0.0
 10
360.240000
 20
563.360000
 30
0.0
 10
364.640000
 20
560.080000
 30
0.0
 10
367.600000
 20
557.600000
 30
0.0
  0
SPLINE
  5
165
100
AcDbEntity
  8
0
 62
7
100
AcDbSpline
 70
8
 71
3
 72
8
 73
4
 74
0
 40
0
 40
0
 40
0
 40
0
 40
1
 40
1
 40
1
 40
1
 10
367.600000
 20
557.600000
 30
0.0
 10
370.560000
 20
555.040000
 30
0.0
 10
373.520000
 20
552.960000
 30
0.0
 10
374.080000
 20
552.960000
 30
0.0
  0
SPLINE
  5
166
100
AcDbEntity
  8
0
 62
7
100
AcDbSpline
 70
8
 71
3
 72
8
 73
4
 74
0
 40
0
 40
0
 40
0
 40
0
 40
1
 40
1
 40
1
 40
1
 10
374.080000
 20
552.960000
 30
0.0
 10
375.280000
 20
552.960000
 30
0.0
 10
379.120000
 20
562.080000
 30
0.0
 10
381.520000
 20
570.800000
 30
0.0
  0
SPLINE
  5
167
100
AcDbEntity
  8
0
 62
7
100
AcDbSpline
 70
8
 71
3
 72
8
 73
4
 74
0
 40
0
 40
0
 40
0
 40
0
 40
1
 40
1
 40
1
 40
1
 10
381.520000
 20
570.800000
 30
0.0
 10
385.520000
 20
585.360000
 30
0.0
 10
386.320000
 20
590.960000
 30
0.0
 10
385.840000
 20
602.800000
 30
0.0
  0
LINE
  5
168
100
AcDbEntity
  8
0
 62
7
100
AcDbLine
 10
385.840000
 20
602.800000
 30
0.0
 11
385.440000
 21
614.320000
 31
0.0
  0
LINE
  5
169
100
AcDbEntity
  8
0
 62
7
100
AcDbLine
 10
385.440000
 20
614.320000
 30
0.0
 11
387.600000
 21
610.160000
 31
0.0
  0
SPLINE
  5
16a
100
AcDbEntity
  8
0
 62
7
100
AcDbSpline
 70
8
 71
3
 72
8
 73
4
 74
0
 40
0
 40
0
 40
0
 40
0
 40
1
 40
1
 40
1
 40
1
 10
387.600000
 20
610.160000
 30
0.0
 10
390.000000
 20
605.600000
 30
0.0
 10
391.760000
 20
596.160000
 30
0.0
 10
393.760000
 20
576.720000
 30
0.0
  0
SPLINE
  5
16b
100
AcDbEntity
  8
0
 62
7
100
AcDbSpline
 70
8
 71
3
 72
8
 73
4
 74
0
 40
0
 40
0
 40
0
 40
0
 40
1
 40
1
 40
1
 40
1
 10
393.760000
 20
576.720000
 30
0.0
 10
394.480000
 20
570.000000
 30
0.0
 10
395.280000
 20
563.040000
 30
0.0
 10
395.600000
 20
561.280000
 30
0.0
  0
SPLINE
  5
16c
100
AcDbEntity
  8
0
 62
7
100
AcDbSpline
 70
8
 71
3
 72
8
 73
4
 74
0
 40
0
 40
0
 40
0
 40
0
 40
1
 40
1
 40
1
 40
1
 10
395.600000
 20
561.280000
 30
0.0
 10
395.920000
 20
559.200000
 30
0.0
 10
395.440000
 20
555.760000
 30
0.0
 10
394.240000
 20
551.600000
 30
0.0
  0
SPLINE
  5
16d
100
AcDbEntity
  8
0
 62
7
100
AcDbSpline
 70
8
 71
3
 72
8
 73
4
 74
0
 40
0
 40
0
 40
0
 40
0
 40
1
 40
1
 40
1
 40
1
 10
394.240000
 20
551.600000
 30
0.0
 10
390.320000
 20
538.240000
 30
0.0
 10
387.760000
 20
524.960000
 30
0.0
 10
388.400000
 20
521.200000
 30
0.0
  0
SPLINE
  5
16e
100
AcDbEntity
  8
0
 62
7
100
AcDbSpline
 70
8
 71
3
 72
8
 73
4
 74
0
 40
0
 40
0
 40
0
 40
0
 40
1
 40
1
 40
1
 40
1
 10
388.400000
 20
521.200000
 30
0.0
 10
388.720000
 20
518.800000
 30
0.0
 10
388.480000
 20
516.800000
 30
0.0
 10
387.760000
 20
515.600000
 30
0.0
  0
SPLINE
  5
16f
100
AcDbEntity
  8
0
 62
7
100
AcDbSpline
 70
8
 71
3
 72
8
 73
4
 74
0
 40
0
 40
0
 40
0
 40
0
 40
1
 40
1
 40
1
 40
1
 10
387.760000
 20
515.600000
 30
0.0
 10
386.720000
 20
513.920000
 30
0.0
 10
384.720000
 20
506.880000
 30
0.0
 10
383.600000
 20
500.720000
 30
0.0
  0
SPLINE
  5
170
100
AcDbEntity
  8
0
 62
7
100
AcDbSpline
 70
8
 71
3
 72
8
 73
4
 74
0
 40
0
 40
0
 40
0
 40
0
 40
1
 40
1
 40
1
 40
1
 10
383.600000
 20
500.720000
 30
0.0
 10
383.360000
 20
499.200000
 30
0.0
 10
382.320000
 20
497.040000
 30
0.0
 10
381.280000
 20
495.840000
 30
0.0
  0
SPLINE
  5
171
100
AcDbEntity
  8
0
 62
7
100
AcDbSpline
 70
8
 71
3
 72
8
 73
4
 74
0
 40
0
 40
0
 40
0
 40
0
 40
1
 40
1
 40
1
 40
1
 10
381.280000
 20
495.840000
 30
0.0
 10
379.680000
 20
493.840000
 30
0.0
 10
379.600000
 20
493.360000
 30
0.0
 10
380.640000
 20
490.240000
 30
0.0
  0
SPLINE
  5
172
100
AcDbEntity
  8
0
 62
7
100
AcDbSpline
 70
8
 71
3
 72
8
 73
4
 74
0
 40
0
 40
0
 40
0
 40
0
 40
1
 40
1
 40
1
 40
1
 10
380.640000
 20
490.240000
 30
0.0
 10
381.280000
 20
488.400000
 30
0.0
 10
383.280000
 20
484.560000
 30
0.0
 10
385.200000
 20
481.760000
 30
0.0
  0
SPLINE
  5
173
100
AcDbEntity
  8
0
 62
7
100
AcDbSpline
 70
8
 71
3
 72
8
 73
4
 74
0
 40
0
 40
0
 40
0
 40
0
 40
1
 40
1
 40
1
 40
1
 10
385.200000
 20
481.760000
 30
0.0
 10
391.120000
 20
472.720000
 30
0.0
 10
394.800000
 20
465.600000
 30
0.0
 10
395.920000
 20
461.200000
 30
0.0
  0
SPLINE
  5
174
100
AcDbEntity
  8
0
 62
7
100
AcDbSpline
 70
8
 71
3
 72
8
 73
4
 74
0
 40
0
 40
0
 40
0
 40
0
 40
1
 40
1
 40
1
 40
1
 10
395.920000
 20
461.200000
 30
0.0
 10
397.360000
 20
455.200000
 30
0.0
 10
400.160000
 20
451.120000
 30
0.0
 10
404.000000
 20
449.680000
 30
0.0
  0
SPLINE
  5
175
100
AcDbEntity
  8
0
 62
7
100
AcDbSpline
 70
8
 71
3
 72
8
 73
4
 74
0
 40
0
 40
0
 40
0
 40
0
 40
1
 40
1
 40
1
 40
1
 10
404.000000
 20
449.680000
 30
0.0
 10
405.760000
 20
448.960000
 30
0.0
 10
407.840000
 20
448.160000
 30
0.0
 10
408.560000
 20
447.760000
 30
0.0
  0
SPLINE
  5
176
100
AcDbEntity
  8
0
 62
7
100
AcDbSpline
 70
8
 71
3
 72
8
 73
4
 74
0
 40
0
 40
0
 40
0
 40
0
 40
1
 40
1
 40
1
 40
1
 10
408.560000
 20
447.760000
 30
0.0
 10
410.240000
 20
447.040000
 30
0.0
 10
412.400000
 20
443.200000
 30
0.0
 10
414.480000
 20
437.440000
 30
0.0
  0
SPLINE
  5
177
100
AcDbEntity
  8
0
 62
7
100
AcDbSpline
 70
8
 71
3
 72
8
 73
4
 74
0
 40
0
 40
0
 40
0
 40
0
 40
1
 40
1
 40
1
 40
1
 10
414.480000
 20
437.440000
 30
0.0
 10
417.120000
 20
429.840000
 30
0.0
 10
417.440000
 20
429.520000
 30
0.0
 10
421.600000
 20
427.920000
 30
0.0
  0
SPLINE
  5
178
100
AcDbEntity
  8
0
 62
7
100
AcDbSpline
 70
8
 71
3
 72
8
 73
4
 74
0
 40
0
 40
0
 40
0
 40
0
 40
1
 40
1
 40
1
 40
1
 10
421.600000
 20
427.920000
 30
0.0
 10
426.320000
 20
426.160000
 30
0.0
 10
428.400000
 20
423.200000
 30
0.0
 10
428.400000
 20
418.160000
 30
0.0
  0
SPLINE
  5
179
100
AcDbEntity
  8
0
 62
7
100
AcDbSpline
 70
8
 71
3
 72
8
 73
4
 74
0
 40
0
 40
0
 40
0
 40
0
 40
1
 40
1
 40
1
 40
1
 10
428.400000
 20
418.160000
 30
0.0
 10
428.400000
 20
414.160000
 30
0.0
 10
430.320000
 20
408.000000
 30
0.0
 10
433.600000
 20
401.520000
 30
0.0
  0
SPLINE
  5
17a
100
AcDbEntity
  8
0
 62
7
100
AcDbSpline
 70
8
 71
3
 72
8
 73
4
 74
0
 40
0
 40
0
 40
0
 40
0
 40
1
 40
1
 40
1
 40
1
 10
433.600000
 20
401.520000
 30
0.0
 10
435.440000
 20
397.840000
 30
0.0
 10
435.680000
 20
396.640000
 30
0.0
 10
434.880000
 20
395.600000
 30
0.0
  0
SPLINE
  5
17b
100
AcDbEntity
  8
0
 62
7
100
AcDbSpline
 70
8
 71
3
 72
8
 73
4
 74
0
 40
0
 40
0
 40
0
 40
0
 40
1
 40
1
 40
1
 40
1
 10
434.880000
 20
395.600000
 30
0.0
 10
431.200000
 20
391.040000
 30
0.0
 10
430.800000
 20
388.960000
 30
0.0
 10
430.640000
 20
374.480000
 30
0.0
  0
SPLINE
  5
17c
100
AcDbEntity
  8
0
 62
7
100
AcDbSpline
 70
8
 71
3
 72
8
 73
4
 74
0
 40
0
 40
0
 40
0
 40
0
 40
1
 40
1
 40
1
 40
1
 10
430.640000
 20
374.480000
 30
0.0
 10
430.560000
 20
362.240000
 30
0.0
 10
430.160000
 20
359.120000
 30
0.0
 10
428.240000
 20
352.080000
 30
0.0
  0
SPLINE
  5
17d
100
AcDbEntity
  8
0
 62
7
100
AcDbSpline
 70
8
 71
3
 72
8
 73
4
 74
0
 40
0
 40
0
 40
0
 40
0
 40
1
 40
1
 40
1
 40
1
 10
428.240000
 20
352.080000
 30
0.0
 10
426.080000
 20
344.400000
 30
0.0
 10
426.000000
 20
343.600000
 30
0.0
 10
427.200000
 20
338.240000
 30
0.0
  0
SPLINE
  5
17e
100
AcDbEntity
  8
0
 62
7
100
AcDbSpline
 70
8
 71
3
 72
8
 73
4
 74
0
 40
0
 40
0
 40
0
 40
0
 40
1
 40
1
 40
1
 40
1
 10
427.200000
 20
338.240000
 30
0.0
 10
428.640000
 20
331.440000
 30
0.0
 10
429.120000
 20
309.920000
 30
0.0
 10
428.080000
 20
297.520000
 30
0.0
  0
LINE
  5
17f
100
AcDbEntity
  8
0
 62
7
100
AcDbLine
 10
428.080000
 20
297.520000
 30
0.0
 11
427.360000
 21
288.640000
 31
0.0
  0
LINE
  5
180
100
AcDbEntity
  8
0
 62
7
100
AcDbLine
 10
427.360000
 20
288.640000
 30
0.0
 11
429.680000
 21
286.720000
 31
0.0
  0
SPLINE
  5
181
100
AcDbEntity
  8
0
 62
7
100
AcDbSpline
 70
8
 71
3
 72
8
 73
4
 74
0
 40
0
 40
0
 40
0
 40
0
 40
1
 40
1
 40
1
 40
1
 10
429.680000
 20
286.720000
 30
0.0
 10
430.960000
 20
285.680000
 30
0.0
 10
433.360000
 20
284.240000
 30
0.0
 10
434.960000
 20
283.600000
 30
0.0
  0
SPLINE
  5
182
100
AcDbEntity
  8
0
 62
7
100
AcDbSpline
 70
8
 71
3
 72
8
 73
4
 74
0
 40
0
 40
0
 40
0
 40
0
 40
1
 40
1
 40
1
 40
1
 10
434.960000
 20
283.600000
 30
0.0
 10
442.000000
 20
280.640000
 30
0.0
 10
448.640000
 20
271.040000
 30
0.0
 10
452.800000
 20
257.840000
 30
0.0
  0
SPLINE
  5
183
100
AcDbEntity
  8
0
 62
7
100
AcDbSpline
 70
8
 71
3
 72
8
 73
4
 74
0
 40
0
 40
0
 40
0
 40
0
 40
1
 40
1
 40
1
 40
1
 10
452.800000
 20
257.840000
 30
0.0
 10
454.320000
 20
253.200000
 30
0.0
 10
457.600000
 20
245.360000
 30
0.0
 10
460.240000
 20
240.320000
 30
0.0
  0
SPLINE
  5
184
100
AcDbEntity
  8
0
 62
7
100
AcDbSpline
 70
8
 71
3
 72
8
 73
4
 74
0
 40
0
 40
0
 40
0
 40
0
 40
1
 40
1
 40
1
 40
1
 10
460.240000
 20
240.320000
 30
0.0
 10
462.880000
 20
235.360000
 30
0.0
 10
465.600000
 20
229.280000
 30
0.0
 10
466.160000
 20
226.880000
 30
0.0
  0
SPLINE
  5
185
100
AcDbEntity
  8
0
 62
7
100
AcDbSpline
 70
8
 71
3
 72
8
 73
4
 74
0
 40
0
 40
0
 40
0
 40
0
 40
1
 40
1
 40
1
 40
1
 10
466.160000
 20
226.880000
 30
0.0
 10
468.320000
 20
218.720000
 30
0.0
 10
471.440000
 20
215.840000
 30
0.0
 10
476.480000
 20
217.440000
 30
0.0
  0
SPLINE
  5
186
100
AcDbEntity
  8
0
 62
7
100
AcDbSpline
 70
8
 71
3
 72
8
 73
4
 74
0
 40
0
 40
0
 40
0
 40
0
 40
1
 40
1
 40
1
 40
1
 10
476.480000
 20
217.440000
 30
0.0
 10
479.440000
 20
218.400000
 30
0.0
 10
479.680000
 20
218.320000
 30
0.0
 10
485.040000
 20
214.240000
 30
0.0
  0
SPLINE
  5
187
100
AcDbEntity
  8
0
 62
7
100
AcDbSpline
 70
8
 71
3
 72
8
 73
4
 74
0
 40
0
 40
0
 40
0
 40
0
 40
1
 40
1
 40
1
 40
1
 10
485.040000
 20
214.240000
 30
0.0
 10
491.360000
 20
209.440000
 30
0.0
 10
492.320000
 20
208.160000
 30
0.0
 10
492.320000
 20
204.560000
 30
0.0
  0
SPLINE
  5
188
100
AcDbEntity
  8
0
 62
7
100
AcDbSpline
 70
8
 71
3
 72
8
 73
4
 74
0
 40
0
 40
0
 40
0
 40
0
 40
1
 40
1
 40
1
 40
1
 10
492.320000
 20
204.560000
 30
0.0
 10
492.320000
 20
203.120000
 30
0.0
 10
493.280000
 20
200.160000
 30
0.0
 10
494.560000
 20
198.080000
 30
0.0
  0
SPLINE
  5
189
100
AcDbEntity
  8
0
 62
7
100
AcDbSpline
 70
8
 71
3
 72
8
 73
4
 74
0
 40
0
 40
0
 40
0
 40
0
 40
1
 40
1
 40
1
 40
1
 10
494.560000
 20
198.080000
 30
0.0
 10
495.760000
 20
195.920000
 30
0.0
 10
496.800000
 20
193.520000
 30
0.0
 10
496.800000
 20
192.720000
 30
0.0
  0
SPLINE
  5
18a
100
AcDbEntity
  8
0
 62
7
100
AcDbSpline
 70
8
 71
3
 72
8
 73
4
 74
0
 40
0
 40
0
 40
0
 40
0
 40
1
 40
1
 40
1
 40
1
 10
496.800000
 20
192.720000
 30
0.0
 10
496.800000
 20
191.920000
 30
0.0
 10
497.440000
 20
190.080000
 30
0.0
 10
498.320000
 20
188.560000
 30
0.0
  0
SPLINE
  5
18b
100
AcDbEntity
  8
0
 62
7
100
AcDbSpline
 70
8
 71
3
 72
8
 73
4
 74
0
 40
0
 40
0
 40
0
 40
0
 40
1
 40
1
 40
1
 40
1
 10
498.320000
 20
188.560000
 30
0.0
 10
499.760000
 20
185.840000
 30
0.0
 10
499.760000
 20
185.680000
 30
0.0
 10
497.760000
 20
183.760000
 30
0.0
  0
SPLINE
  5
18c
100
AcDbEntity
  8
0
 62
7
100
AcDbSpline
 70
8
 71
3
 72
8
 73
4
 74
0
 40
0
 40
0
 40
0
 40
0
 40
1
 40
1
 40
1
 40
1
 10
497.760000
 20
183.760000
 30
0.0
 10
496.640000
 20
182.720000
 30
0.0
 10
494.400000
 20
180.160000
 30
0.0
 10
492.880000
 20
178.080000
 30
0.0
  0
SPLINE
  5
18d
100
AcDbEntity
  8
0
 62
7
100
AcDbSpline
 70
8
 71
3
 72
8
 73
4
 74
0
 40
0
 40
0
 40
0
 40
0
 40
1
 40
1
 40
1
 40
1
 10
492.880000
 20
178.080000
 30
0.0
 10
490.480000
 20
174.880000
 30
0.0
 10
489.360000
 20
174.080000
 30
0.0
 10
485.840000
 20
173.360000
 30
0.0
  0
SPLINE
  5
18e
100
AcDbEntity
  8
0
 62
7
100
AcDbSpline
 70
8
 71
3
 72
8
 73
4
 74
0
 40
0
 40
0
 40
0
 40
0
 40
1
 40
1
 40
1
 40
1
 10
485.840000
 20
173.360000
 30
0.0
 10
483.600000
 20
172.880000
 30
0.0
 10
480.880000
 20
172.080000
 30
0.0
 10
479.840000
 20
171.600000
 30
0.0
  0
SPLINE
  5
18f
100
AcDbEntity
  8
0
 62
7
100
AcDbSpline
 70
8
 71
3
 72
8
 73
4
 74
0
 40
0
 40
0
 40
0
 40
0
 40
1
 40
1
 40
1
 40
1
 10
479.840000
 20
171.600000
 30
0.0
 10
478.880000
 20
171.040000
 30
0.0
 10
476.800000
 20
170.640000
 30
0.0
 10
475.280000
 20
170.640000
 30
0.0
  0
SPLINE
  5
190
100
AcDbEntity
  8
0
 62
7
100
AcDbSpline
 70
8
 71
3
 72
8
 73
4
 74
0
 40
0
 40
0
 40
0
 40
0
 40
1
 40
1
 40
1
 40
1
 10
475.280000
 20
170.640000
 30
0.0
 10
473.760000
 20
170.640000
 30
0.0
 10
470.720000
 20
170.240000
 30
0.0
 10
468.480000
 20
169.760000
 30
0.0
  0
SPLINE
  5
191
100
AcDbEntity
  8
0
 62
7
100
AcDbSpline
 70
8
 71
3
 72
8
 73
4
 74
0
 40
0
 40
0
 40
0
 40
0
 40
1
 40
1
 40
1
 40
1
 10
468.480000
 20
169.760000
 30
0.0
 10
464.800000
 20
168.880000
 30
0.0
 10
464.320000
 20
168.960000
 30
0.0
 10
460.800000
 20
170.960000
 30
0.0
  0
SPLINE
  5
192
100
AcDbEntity
  8
0
 62
7
100
AcDbSpline
 70
8
 71
3
 72
8
 73
4
 74
0
 40
0
 40
0
 40
0
 40
0
 40
1
 40
1
 40
1
 40
1
 10
460.800000
 20
170.960000
 30
0.0
 10
454.320000
 20
174.720000
 30
0.0
 10
452.160000
 20
177.440000
 30
0.0
 10
449.520000
 20
184.720000
 30
0.0
  0
SPLINE
  5
193
100
AcDbEntity
  8
0
 62
7
100
AcDbSpline
 70
8
 71
3
 72
8
 73
4
 74
0
 40
0
 40
0
 40
0
 40
0
 40
1
 40
1
 40
1
 40
1
 10
449.520000
 20
184.720000
 30
0.0
 10
447.520000
 20
190.320000
 30
0.0
 10
446.400000
 20
192.160000
 30
0.0
 10
443.600000
 20
194.480000
 30
0.0
  0
SPLINE
  5
194
100
AcDbEntity
  8
0
 62
7
100
AcDbSpline
 70
8
 71
3
 72
8
 73
4
 74
0
 40
0
 40
0
 40
0
 40
0
 40
1
 40
1
 40
1
 40
1
 10
443.600000
 20
194.480000
 30
0.0
 10
441.760000
 20
196.000000
 30
0.0
 10
439.280000
 20
198.720000
 30
0.0
 10
438.080000
 20
200.480000
 30
0.0
  0
SPLINE
  5
195
100
AcDbEntity
  8
0
 62
7
100
AcDbSpline
 70
8
 71
3
 72
8
 73
4
 74
0
 40
0
 40
0
 40
0
 40
0
 40
1
 40
1
 40
1
 40
1
 10
438.080000
 20
200.480000
 30
0.0
 10
435.840000
 20
203.920000
 30
0.0
 10
432.720000
 20
206.480000
 30
0.0
 10
427.040000
 20
209.440000
 30
0.0
  0
SPLINE
  5
196
100
AcDbEntity
  8
0
 62
7
100
AcDbSpline
 70
8
 71
3
 72
8
 73
4
 74
0
 40
0
 40
0
 40
0
 40
0
 40
1
 40
1
 40
1
 40
1
 10
427.040000
 20
209.440000
 30
0.0
 10
425.040000
 20
210.480000
 30
0.0
 10
421.760000
 20
212.960000
 30
0.0
 10
419.680000
 20
214.960000
 30
0.0
  0
SPLINE
  5
197
100
AcDbEntity
  8
0
 62
7
100
AcDbSpline
 70
8
 71
3
 72
8
 73
4
 74
0
 40
0
 40
0
 40
0
 40
0
 40
1
 40
1
 40
1
 40
1
 10
419.680000
 20
214.960000
 30
0.0
 10
416.320000
 20
218.160000
 30
0.0
 10
415.840000
 20
218.400000
 30
0.0
 10
415.200000
 20
217.040000
 30
0.0
  0
SPLINE
  5
198
100
AcDbEntity
  8
0
 62
7
100
AcDbSpline
 70
8
 71
3
 72
8
 73
4
 74
0
 40
0
 40
0
 40
0
 40
0
 40
1
 40
1
 40
1
 40
1
 10
415.200000
 20
217.040000
 30
0.0
 10
414.800000
 20
216.160000
 30
0.0
 10
415.200000
 20
213.920000
 30
0.0
 10
416.160000
 20
211.520000
 30
0.0
  0
SPLINE
  5
199
100
AcDbEntity
  8
0
 62
7
100
AcDbSpline
 70
8
 71
3
 72
8
 73
4
 74
0
 40
0
 40
0
 40
0
 40
0
 40
1
 40
1
 40
1
 40
1
 10
416.160000
 20
211.520000
 30
0.0
 10
417.840000
 20
207.440000
 30
0.0
 10
432.080000
 20
181.760000
 30
0.0
 10
436.000000
 20
175.920000
 30
0.0
  0
SPLINE
  5
19a
100
AcDbEntity
  8
0
 62
7
100
AcDbSpline
 70
8
 71
3
 72
8
 73
4
 74
0
 40
0
 40
0
 40
0
 40
0
 40
1
 40
1
 40
1
 40
1
 10
436.000000
 20
175.920000
 30
0.0
 10
440.240000
 20
169.600000
 30
0.0
 10
450.800000
 20
146.480000
 30
0.0
 10
450.880000
 20
143.600000
 30
0.0
  0
SPLINE
  5
19b
100
AcDbEntity
  8
0
 62
7
100
AcDbSpline
 70
8
 71
3
 72
8
 73
4
 74
0
 40
0
 40
0
 40
0
 40
0
 40
1
 40
1
 40
1
 40
1
 10
450.880000
 20
143.600000
 30
0.0
 10
450.880000
 20
143.280000
 30
0.0
 10
369.040000
 20
142.960000
 30
0.0
 10
269.040000
 20
142.960000
 30
0.0
  0
SPLINE
  5
19c
100
AcDbEntity
  8
0
 62
7
100
AcDbSpline
 70
8
 71
3
 72
8
 73
4
 74
0
 40
0
 40
0
 40
0
 40
0
 40
1
 40
1
 40
1
 40
1
 10
269.040000
 20
142.960000
 30
0.0
 10
96.240000
 20
142.960000
 30
0.0
 10
87.120000
 20
143.040000
 30
0.0
 10
87.600000
 20
144.400000
 30
0.0
  0
LINE
  5
19d
100
AcDbEntity
  8
0
 62
7
100
AcDbLine
 10
87.600000
 20
144.400000
 30
0.0
 11
87.600000
 21
144.400000
 31
0.0
  0
SPLINE
  5
19e
100
AcDbEntity
  8
0
 62
7
100
AcDbSpline
 70
8
 71
3
 72
8
 73
4
 74
0
 40
0
 40
0
 40
0
 40
0
 40
1
 40
1
 40
1
 40
1
 10
393.200000
 20
270.000000
 30
0.0
 10
398.560000
 20
272.400000
 30
0.0
 10
403.280000
 20
280.480000
 30
0.0
 10
404.480000
 20
289.440000
 30
0.0
  0
SPLINE
  5
19f
100
AcDbEntity
  8
0
 62
7
100
AcDbSpline
 70
8
 71
3
 72
8
 73
4
 74
0
 40
0
 40
0
 40
0
 40
0
 40
1
 40
1
 40
1
 40
1
 10
404.480000
 20
289.440000
 30
0.0
 10
405.680000
 20
298.000000
 30
0.0
 10
400.720000
 20
311.200000
 30
0.0
 10
394.960000
 20
314.800000
 30
0.0
  0
SPLINE
  5
1a0
100
AcDbEntity
  8
0
 62
7
100
AcDbSpline
 70
8
 71
3
 72
8
 73
4
 74
0
 40
0
 40
0
 40
0
 40
0
 40
1
 40
1
 40
1
 40
1
 10
394.960000
 20
314.800000
 30
0.0
 10
388.560000
 20
318.800000
 30
0.0
 10
380.080000
 20
315.360000
 30
0.0
 10
375.520000
 20
306.960000
 30
0.0
  0
SPLINE
  5
1a1
100
AcDbEntity
  8
0
 62
7
100
AcDbSpline
 70
8
 71
3
 72
8
 73
4
 74
0
 40
0
 40
0
 40
0
 40
0
 40
1
 40
1
 40
1
 40
1
 10
375.520000
 20
306.960000
 30
0.0
 10
373.360000
 20
302.880000
 30
0.0
 10
373.120000
 20
301.600000
 30
0.0
 10
373.040000
 20
292.960000
 30
0.0
  0
SPLINE
  5
1a2
100
AcDbEntity
  8
0
 62
7
100
AcDbSpline
 70
8
 71
3
 72
8
 73
4
 74
0
 40
0
 40
0
 40
0
 40
0
 40
1
 40
1
 40
1
 40
1
 10
373.040000
 20
292.960000
 30
0.0
 10
373.040000
 20
282.960000
 30
0.0
 10
373.600000
 20
280.640000
 30
0.0
 10
377.840000
 20
274.960000
 30
0.0
  0
SPLINE
  5
1a3
100
AcDbEntity
  8
0
 62
7
100
AcDbSpline
 70
8
 71
3
 72
8
 73
4
 74
0
 40
0
 40
0
 40
0
 40
0
 40
1
 40
1
 40
1
 40
1
 10
377.840000
 20
274.960000
 30
0.0
 10
381.920000
 20
269.440000
 30
0.0
 10
387.840000
 20
267.520000
 30
0.0
 10
393.200000
 20
270.000000
 30
0.0
  0
LINE
  5
1a4
100
AcDbEntity
  8
0
 62
7
100
AcDbLine
 10
393.200000
 20
270.000000
 30
0.0
 11
393.200000
 21
270.000000
 31
0.0
  0
SPLINE
  5
1a5
100
AcDbEntity
  8
0
 62
7
100
AcDbSpline
 70
8
 71
3
 72
8
 73
4
 74
0
 40
0
 40
0
 40
0
 40
0
 40
1
 40
1
 40
1
 40
1
 10
309.280000
 20
278.720000
 30
0.0
 10
314.560000
 20
281.040000
 30
0.0
 10
317.440000
 20
283.680000
 30
0.0
 10
320.160000
 20
288.640000
 30
0.0
  0
SPLINE
  5
1a6
100
AcDbEntity
  8
0
 62
7
100
AcDbSpline
 70
8
 71
3
 72
8
 73
4
 74
0
 40
0
 40
0
 40
0
 40
0
 40
1
 40
1
 40
1
 40
1
 10
320.160000
 20
288.640000
 30
0.0
 10
323.200000
 20
294.080000
 30
0.0
 10
324.160000
 20
300.080000
 30
0.0
 10
323.040000
 20
305.200000
 30
0.0
  0
SPLINE
  5
1a7
100
AcDbEntity
  8
0
 62
7
100
AcDbSpline
 70
8
 71
3
 72
8
 73
4
 74
0
 40
0
 40
0
 40
0
 40
0
 40
1
 40
1
 40
1
 40
1
 10
323.040000
 20
305.200000
 30
0.0
 10
318.880000
 20
323.040000
 30
0.0
 10
297.920000
 20
329.920000
 30
0.0
 10
284.240000
 20
317.840000
 30
0.0
  0
SPLINE
  5
1a8
100
AcDbEntity
  8
0
 62
7
100
AcDbSpline
 70
8
 71
3
 72
8
 73
4
 74
0
 40
0
 40
0
 40
0
 40
0
 40
1
 40
1
 40
1
 40
1
 10
284.240000
 20
317.840000
 30
0.0
 10
274.000000
 20
308.880000
 30
0.0
 10
273.520000
 20
293.680000
 30
0.0
 10
283.040000
 20
283.440000
 30
0.0
  0
SPLINE
  5
1a9
100
AcDbEntity
  8
0
 62
7
100
AcDbSpline
 70
8
 71
3
 72
8
 73
4
 74
0
 40
0
 40
0
 40
0
 40
0
 40
1
 40
1
 40
1
 40
1
 10
283.040000
 20
283.440000
 30
0.0
 10
289.360000
 20
276.640000
 30
0.0
 10
300.080000
 20
274.720000
 30
0.0
 10
309.280000
 20
278.720000
 30
0.0
  0
LINE
  5
1aa
100
AcDbEntity
  8
0
 62
7
100
AcDbLine
 10
309.280000
 20
278.720000
 30
0.0
 11
309.280000
 21
278.720000
 31
0.0
  0
SPLINE
  5
1ab
100
AcDbEntity
  8
0
 62
7
100
AcDbSpline
 70
8
 71
3
 72
8
 73
4
 74
0
 40
0
 40
0
 40
0
 40
0
 40
1
 40
1
 40
1
 40
1
 10
417.120000
 20
398.080000
 30
0.0
 10
417.920000
 20
399.120000
 30
0.0
 10
418.480000
 20
401.600000
 30
0.0
 10
418.480000
 20
404.160000
 30
0.0
  0
SPLINE
  5
1ac
100
AcDbEntity
  8
0
 62
7
100
AcDbSpline
 70
8
 71
3
 72
8
 73
4
 74
0
 40
0
 40
0
 40
0
 40
0
 40
1
 40
1
 40
1
 40
1
 10
418.480000
 20
404.160000
 30
0.0
 10
418.480000
 20
412.160000
 30
0.0
 10
408.080000
 20
428.400000
 30
0.0
 10
395.680000
 20
439.680000
 30
0.0
  0
SPLINE
  5
1ad
100
AcDbEntity
  8
0
 62
7
100
AcDbSpline
 70
8
 71
3
 72
8
 73
4
 74
0
 40
0
 40
0
 40
0
 40
0
 40
1
 40
1
 40
1
 40
1
 10
395.680000
 20
439.680000
 30
0.0
 10
389.040000
 20
445.680000
 30
0.0
 10
383.520000
 20
447.040000
 30
0.0
 10
379.680000
 20
443.600000
 30
0.0
  0
SPLINE
  5
1ae
100
AcDbEntity
  8
0
 62
7
100
AcDbSpline
 70
8
 71
3
 72
8
 73
4
 74
0
 40
0
 40
0
 40
0
 40
0
 40
1
 40
1
 40
1
 40
1
 10
379.680000
 20
443.600000
 30
0.0
 10
375.520000
 20
440.000000
 30
0.0
 10
379.360000
 20
425.840000
 30
0.0
 10
387.280000
 20
415.280000
 30
0.0
  0
SPLINE
  5
1af
100
AcDbEntity
  8
0
 62
7
100
AcDbSpline
 70
8
 71
3
 72
8
 73
4
 74
0
 40
0
 40
0
 40
0
 40
0
 40
1
 40
1
 40
1
 40
1
 10
387.280000
 20
415.280000
 30
0.0
 10
394.080000
 20
406.240000
 30
0.0
 10
403.200000
 20
398.480000
 30
0.0
 10
409.120000
 20
396.640000
 30
0.0
  0
SPLINE
  5
1b0
100
AcDbEntity
  8
0
 62
7
100
AcDbSpline
 70
8
 71
3
 72
8
 73
4
 74
0
 40
0
 40
0
 40
0
 40
0
 40
1
 40
1
 40
1
 40
1
 10
409.120000
 20
396.640000
 30
0.0
 10
413.120000
 20
395.440000
 30
0.0
 10
415.360000
 20
395.920000
 30
0.0
 10
417.120000
 20
398.080000
 30
0.0
  0
LINE
  5
1b1
100
AcDbEntity
  8
0
 62
7
100
AcDbLine
 10
417.120000
 20
398.080000
 30
0.0
 11
417.120000
 21
398.080000
 31
0.0
  0
SPLINE
  5
1b2
100
AcDbEntity
  8
0
 62
7
100
AcDbSpline
 70
8
 71
3
 72
8
 73
4
 74
0
 40
0
 40
0
 40
0
 40
0
 40
1
 40
1
 40
1
 40
1
 10
327.760000
 20
440.800000
 30
0.0
 10
329.600000
 20
443.040000
 30
0.0
 10
329.840000
 20
444.240000
 30
0.0
 10
329.760000
 20
451.280000
 30
0.0
  0
SPLINE
  5
1b3
100
AcDbEntity
  8
0
 62
7
100
AcDbSpline
 70
8
 71
3
 72
8
 73
4
 74
0
 40
0
 40
0
 40
0
 40
0
 40
1
 40
1
 40
1
 40
1
 10
329.760000
 20
451.280000
 30
0.0
 10
329.760000
 20
459.920000
 30
0.0
 10
329.200000
 20
461.920000
 30
0.0
 10
323.760000
 20
473.040000
 30
0.0
  0
SPLINE
  5
1b4
100
AcDbEntity
  8
0
 62
7
100
AcDbSpline
 70
8
 71
3
 72
8
 73
4
 74
0
 40
0
 40
0
 40
0
 40
0
 40
1
 40
1
 40
1
 40
1
 10
323.760000
 20
473.040000
 30
0.0
 10
320.000000
 20
480.640000
 30
0.0
 10
316.160000
 20
486.320000
 30
0.0
 10
312.720000
 20
489.360000
 30
0.0
  0
SPLINE
  5
1b5
100
AcDbEntity
  8
0
 62
7
100
AcDbSpline
 70
8
 71
3
 72
8
 73
4
 74
0
 40
0
 40
0
 40
0
 40
0
 40
1
 40
1
 40
1
 40
1
 10
312.720000
 20
489.360000
 30
0.0
 10
306.000000
 20
495.280000
 30
0.0
 10
298.000000
 20
497.040000
 30
0.0
 10
293.760000
 20
493.520000
 30
0.0
  0
SPLINE
  5
1b6
100
AcDbEntity
  8
0
 62
7
100
AcDbSpline
 70
8
 71
3
 72
8
 73
4
 74
0
 40
0
 40
0
 40
0
 40
0
 40
1
 40
1
 40
1
 40
1
 10
293.760000
 20
493.520000
 30
0.0
 10
285.120000
 20
486.400000
 30
0.0
 10
291.440000
 20
462.560000
 30
0.0
 10
306.240000
 20
446.320000
 30
0.0
  0
SPLINE
  5
1b7
100
AcDbEntity
  8
0
 62
7
100
AcDbSpline
 70
8
 71
3
 72
8
 73
4
 74
0
 40
0
 40
0
 40
0
 40
0
 40
1
 40
1
 40
1
 40
1
 10
306.240000
 20
446.320000
 30
0.0
 10
311.360000
 20
440.800000
 30
0.0
 10
316.240000
 20
438.240000
 30
0.0
 10
321.920000
 20
438.240000
 30
0.0
  0
SPLINE
  5
1b8
100
AcDbEntity
  8
0
 62
7
100
AcDbSpline
 70
8
 71
3
 72
8
 73
4
 74
0
 40
0
 40
0
 40
0
 40
0
 40
1
 40
1
 40
1
 40
1
 10
321.920000
 20
438.240000
 30
0.0
 10
325.120000
 20
438.160000
 30
0.0
 10
325.920000
 20
438.560000
 30
0.0
 10
327.760000
 20
440.800000
 30
0.0
  0
LINE
  5
1b9
100
AcDbEntity
  8
0
 62
7
100
AcDbLine
 10
327.760000
 20
440.800000
 30
0.0
 11
327.760000
 21
440.800000
 31
0.0
  0
SPLINE
  5
1ba
100
AcDbEntity
  8
0
 62
7
100
AcDbSpline
 70
8
 71
3
 72
8
 73
4
 74
0
 40
0
 40
0
 40
0
 40
0
 40
1
 40
1
 40
1
 40
1
 10
70.240000
 20
72.000000
 30
0.0
 10
73.520000
 20
70.960000
 30
0.0
 10
75.920000
 20
69.360000
 30
0.0
 10
77.520000
 20
67.200000
 30
0.0
  0
SPLINE
  5
1bb
100
AcDbEntity
  8
0
 62
7
100
AcDbSpline
 70
8
 71
3
 72
8
 73
4
 74
0
 40
0
 40
0
 40
0
 40
0
 40
1
 40
1
 40
1
 40
1
 10
77.520000
 20
67.200000
 30
0.0
 10
79.120000
 20
64.960000
 30
0.0
 10
79.920000
 20
62.400000
 30
0.0
 10
79.920000
 20
59.520000
 30
0.0
  0
SPLINE
  5
1bc
100
AcDbEntity
  8
0
 62
7
100
AcDbSpline
 70
8
 71
3
 72
8
 73
4
 74
0
 40
0
 40
0
 40
0
 40
0
 40
1
 40
1
 40
1
 40
1
 10
79.920000
 20
59.520000
 30
0.0
 10
79.920000
 20
56.640000
 30
0.0
 10
79.200000
 20
54.000000
 30
0.0
 10
77.760000
 20
51.600000
 30
0.0
  0
SPLINE
  5
1bd
100
AcDbEntity
  8
0
 62
7
100
AcDbSpline
 70
8
 71
3
 72
8
 73
4
 74
0
 40
0
 40
0
 40
0
 40
0
 40
1
 40
1
 40
1
 40
1
 10
77.760000
 20
51.600000
 30
0.0
 10
76.320000
 20
49.200000
 30
0.0
 10
74.240000
 20
47.440000
 30
0.0
 10
71.600000
 20
46.240000
 30
0.0
  0
SPLINE
  5
1be
100
AcDbEntity
  8
0
 62
7
100
AcDbSpline
 70
8
 71
3
 72
8
 73
4
 74
0
 40
0
 40
0
 40
0
 40
0
 40
1
 40
1
 40
1
 40
1
 10
71.600000
 20
46.240000
 30
0.0
 10
68.880000
 20
45.120000
 30
0.0
 10
65.280000
 20
44.560000
 30
0.0
 10
60.720000
 20
44.560000
 30
0.0
  0
LINE
  5
1bf
100
AcDbEntity
  8
0
 62
7
100
AcDbLine
 10
60.720000
 20
44.560000
 30
0.0
 11
40.960000
 21
44.560000
 31
0.0
  0
LINE
  5
1c0
100
AcDbEntity
  8
0
 62
7
100
AcDbLine
 10
40.960000
 20
44.560000
 30
0.0
 11
40.960000
 21
96.080000
 31
0.0
  0
LINE
  5
1c1
100
AcDbEntity
  8
0
 62
7
100
AcDbLine
 10
40.960000
 20
96.080000
 30
0.0
 11
60.320000
 21
96.080000
 31
0.0
  0
SPLINE
  5
1c2
100
AcDbEntity
  8
0
 62
7
100
AcDbSpline
 70
8
 71
3
 72
8
 73
4
 74
0
 40
0
 40
0
 40
0
 40
0
 40
1
 40
1
 40
1
 40
1
 10
60.320000
 20
96.080000
 30
0.0
 10
66.560000
 20
96.080000
 30
0.0
 10
70.960000
 20
94.720000
 30
0.0
 10
73.520000
 20
92.000000
 30
0.0
  0
SPLINE
  5
1c3
100
AcDbEntity
  8
0
 62
7
100
AcDbSpline
 70
8
 71
3
 72
8
 73
4
 74
0
 40
0
 40
0
 40
0
 40
0
 40
1
 40
1
 40
1
 40
1
 10
73.520000
 20
92.000000
 30
0.0
 10
76.080000
 20
89.280000
 30
0.0
 10
77.360000
 20
86.240000
 30
0.0
 10
77.360000
 20
82.960000
 30
0.0
  0
SPLINE
  5
1c4
100
AcDbEntity
  8
0
 62
7
100
AcDbSpline
 70
8
 71
3
 72
8
 73
4
 74
0
 40
0
 40
0
 40
0
 40
0
 40
1
 40
1
 40
1
 40
1
 10
77.360000
 20
82.960000
 30
0.0
 10
77.360000
 20
80.720000
 30
0.0
 10
76.800000
 20
78.640000
 30
0.0
 10
75.600000
 20
76.720000
 30
0.0
  0
SPLINE
  5
1c5
100
AcDbEntity
  8
0
 62
7
100
AcDbSpline
 70
8
 71
3
 72
8
 73
4
 74
0
 40
0
 40
0
 40
0
 40
0
 40
1
 40
1
 40
1
 40
1
 10
75.600000
 20
76.720000
 30
0.0
 10
74.480000
 20
74.800000
 30
0.0
 10
72.640000
 20
73.200000
 30
0.0
 10
70.240000
 20
72.000000
 30
0.0
  0
LINE
  5
1c6
100
AcDbEntity
  8
0
 62
7
100
AcDbLine
 10
70.240000
 20
72.000000
 30
0.0
 11
70.240000
 21
72.000000
 31
0.0
  0
LINE
  5
1c7
100
AcDbEntity
  8
0
 62
7
100
AcDbLine
 10
47.760000
 20
74.480000
 30
0.0
 11
58.960000
 21
74.480000
 31
0.0
  0
SPLINE
  5
1c8
100
AcDbEntity
  8
0
 62
7
100
AcDbSpline
 70
8
 71
3
 72
8
 73
4
 74
0
 40
0
 40
0
 40
0
 40
0
 40
1
 40
1
 40
1
 40
1
 10
58.960000
 20
74.480000
 30
0.0
 10
61.280000
 20
74.480000
 30
0.0
 10
63.200000
 20
74.640000
 30
0.0
 10
64.800000
 20
74.880000
 30
0.0
  0
SPLINE
  5
1c9
100
AcDbEntity
  8
0
 62
7
100
AcDbSpline
 70
8
 71
3
 72
8
 73
4
 74
0
 40
0
 40
0
 40
0
 40
0
 40
1
 40
1
 40
1
 40
1
 10
64.800000
 20
74.880000
 30
0.0
 10
66.320000
 20
75.120000
 30
0.0
 10
67.680000
 20
75.840000
 30
0.0
 10
68.880000
 20
76.960000
 30
0.0
  0
SPLINE
  5
1ca
100
AcDbEntity
  8
0
 62
7
100
AcDbSpline
 70
8
 71
3
 72
8
 73
4
 74
0
 40
0
 40
0
 40
0
 40
0
 40
1
 40
1
 40
1
 40
1
 10
68.880000
 20
76.960000
 30
0.0
 10
70.080000
 20
78.000000
 30
0.0
 10
70.720000
 20
79.760000
 30
0.0
 10
70.720000
 20
82.080000
 30
0.0
  0
SPLINE
  5
1cb
100
AcDbEntity
  8
0
 62
7
100
AcDbSpline
 70
8
 71
3
 72
8
 73
4
 74
0
 40
0
 40
0
 40
0
 40
0
 40
1
 40
1
 40
1
 40
1
 10
70.720000
 20
82.080000
 30
0.0
 10
70.720000
 20
84.480000
 30
0.0
 10
70.080000
 20
86.320000
 30
0.0
 10
68.880000
 20
87.440000
 30
0.0
  0
SPLINE
  5
1cc
100
AcDbEntity
  8
0
 62
7
100
AcDbSpline
 70
8
 71
3
 72
8
 73
4
 74
0
 40
0
 40
0
 40
0
 40
0
 40
1
 40
1
 40
1
 40
1
 10
68.880000
 20
87.440000
 30
0.0
 10
67.680000
 20
88.640000
 30
0.0
 10
66.240000
 20
89.360000
 30
0.0
 10
64.560000
 20
89.600000
 30
0.0
  0
SPLINE
  5
1cd
100
AcDbEntity
  8
0
 62
7
100
AcDbSpline
 70
8
 71
3
 72
8
 73
4
 74
0
 40
0
 40
0
 40
0
 40
0
 40
1
 40
1
 40
1
 40
1
 10
64.560000
 20
89.600000
 30
0.0
 10
62.880000
 20
89.840000
 30
0.0
 10
60.720000
 20
90.000000
 30
0.0
 10
58.080000
 20
90.000000
 30
0.0
  0
LINE
  5
1ce
100
AcDbEntity
  8
0
 62
7
100
AcDbLine
 10
58.080000
 20
90.000000
 30
0.0
 11
47.760000
 21
90.000000
 31
0.0
  0
LINE
  5
1cf
100
AcDbEntity
  8
0
 62
7
100
AcDbLine
 10
47.760000
 20
90.000000
 30
0.0
 11
47.760000
 21
74.480000
 31
0.0
  0
LINE
  5
1d0
100
AcDbEntity
  8
0
 62
7
100
AcDbLine
 10
47.760000
 20
74.480000
 30
0.0
 11
47.760000
 21
74.480000
 31
0.0
  0
LINE
  5
1d1
100
AcDbEntity
  8
0
 62
7
100
AcDbLine
 10
47.760000
 20
50.640000
 30
0.0
 11
60.640000
 21
50.640000
 31
0.0
  0
SPLINE
  5
1d2
100
AcDbEntity
  8
0
 62
7
100
AcDbSpline
 70
8
 71
3
 72
8
 73
4
 74
0
 40
0
 40
0
 40
0
 40
0
 40
1
 40
1
 40
1
 40
1
 10
60.640000
 20
50.640000
 30
0.0
 10
65.200000
 20
50.640000
 30
0.0
 10
68.400000
 20
51.440000
 30
0.0
 10
70.160000
 20
53.040000
 30
0.0
  0
SPLINE
  5
1d3
100
AcDbEntity
  8
0
 62
7
100
AcDbSpline
 70
8
 71
3
 72
8
 73
4
 74
0
 40
0
 40
0
 40
0
 40
0
 40
1
 40
1
 40
1
 40
1
 10
70.160000
 20
53.040000
 30
0.0
 10
72.000000
 20
54.640000
 30
0.0
 10
72.880000
 20
56.800000
 30
0.0
 10
72.880000
 20
59.520000
 30
0.0
  0
SPLINE
  5
1d4
100
AcDbEntity
  8
0
 62
7
100
AcDbSpline
 70
8
 71
3
 72
8
 73
4
 74
0
 40
0
 40
0
 40
0
 40
0
 40
1
 40
1
 40
1
 40
1
 10
72.880000
 20
59.520000
 30
0.0
 10
72.880000
 20
62.320000
 30
0.0
 10
71.920000
 20
64.480000
 30
0.0
 10
70.000000
 20
66.080000
 30
0.0
  0
SPLINE
  5
1d5
100
AcDbEntity
  8
0
 62
7
100
AcDbSpline
 70
8
 71
3
 72
8
 73
4
 74
0
 40
0
 40
0
 40
0
 40
0
 40
1
 40
1
 40
1
 40
1
 10
70.000000
 20
66.080000
 30
0.0
 10
68.080000
 20
67.600000
 30
0.0
 10
64.720000
 20
68.400000
 30
0.0
 10
59.760000
 20
68.400000
 30
0.0
  0
LINE
  5
1d6
100
AcDbEntity
  8
0
 62
7
100
AcDbLine
 10
59.760000
 20
68.400000
 30
0.0
 11
47.760000
 21
68.400000
 31
0.0
  0
LINE
  5
1d7
100
AcDbEntity
  8
0
 62
7
100
AcDbLine
 10
47.760000
 20
68.400000
 30
0.0
 11
47.760000
 21
50.640000
 31
0.0
  0
LINE
  5
1d8
100
AcDbEntity
  8
0
 62
7
100
AcDbLine
 10
47.760000
 20
50.640000
 30
0.0
 11
47.760000
 21
50.640000
 31
0.0
  0
LINE
  5
1d9
100
AcDbEntity
  8
0
 62
7
100
AcDbLine
 10
94.800000
 20
44.560000
 30
0.0
 11
88.480000
 21
44.560000
 31
0.0
  0
LINE
  5
1da
100
AcDbEntity
  8
0
 62
7
100
AcDbLine
 10
88.480000
 20
44.560000
 30
0.0
 11
88.480000
 21
81.840000
 31
0.0
  0
LINE
  5
1db
100
AcDbEntity
  8
0
 62
7
100
AcDbLine
 10
88.480000
 20
81.840000
 30
0.0
 11
94.800000
 21
81.840000
 31
0.0
  0
LINE
  5
1dc
100
AcDbEntity
  8
0
 62
7
100
AcDbLine
 10
94.800000
 20
81.840000
 30
0.0
 11
94.800000
 21
44.560000
 31
0.0
  0
LINE
  5
1dd
100
AcDbEntity
  8
0
 62
7
100
AcDbLine
 10
94.800000
 20
44.560000
 30
0.0
 11
94.800000
 21
44.560000
 31
0.0
  0
LINE
  5
1de
100
AcDbEntity
  8
0
 62
7
100
AcDbLine
 10
94.800000
 20
88.960000
 30
0.0
 11
88.480000
 21
88.960000
 31
0.0
  0
LINE
  5
1df
100
AcDbEntity
  8
0
 62
7
100
AcDbLine
 10
88.480000
 20
88.960000
 30
0.0
 11
88.480000
 21
96.080000
 31
0.0
  0
LINE
  5
1e0
100
AcDbEntity
  8
0
 62
7
100
AcDbLine
 10
88.480000
 20
96.080000
 30
0.0
 11
94.800000
 21
96.080000
 31
0.0
  0
LINE
  5
1e1
100
AcDbEntity
  8
0
 62
7
100
AcDbLine
 10
94.800000
 20
96.080000
 30
0.0
 11
94.800000
 21
88.960000
 31
0.0
  0
LINE
  5
1e2
100
AcDbEntity
  8
0
 62
7
100
AcDbLine
 10
94.800000
 20
88.960000
 30
0.0
 11
94.800000
 21
88.960000
 31
0.0
  0
SPLINE
  5
1e3
100
AcDbEntity
  8
0
 62
7
100
AcDbSpline
 70
8
 71
3
 72
8
 73
4
 74
0
 40
0
 40
0
 40
0
 40
0
 40
1
 40
1
 40
1
 40
1
 10
125.280000
 20
71.440000
 30
0.0
 10
125.040000
 20
73.440000
 30
0.0
 10
124.160000
 20
74.960000
 30
0.0
 10
122.800000
 20
76.000000
 30
0.0
  0
SPLINE
  5
1e4
100
AcDbEntity
  8
0
 62
7
100
AcDbSpline
 70
8
 71
3
 72
8
 73
4
 74
0
 40
0
 40
0
 40
0
 40
0
 40
1
 40
1
 40
1
 40
1
 10
122.800000
 20
76.000000
 30
0.0
 10
121.440000
 20
77.040000
 30
0.0
 10
119.520000
 20
77.520000
 30
0.0
 10
117.120000
 20
77.520000
 30
0.0
  0
SPLINE
  5
1e5
100
AcDbEntity
  8
0
 62
7
100
AcDbSpline
 70
8
 71
3
 72
8
 73
4
 74
0
 40
0
 40
0
 40
0
 40
0
 40
1
 40
1
 40
1
 40
1
 10
117.120000
 20
77.520000
 30
0.0
 10
114.640000
 20
77.520000
 30
0.0
 10
112.720000
 20
77.120000
 30
0.0
 10
111.200000
 20
76.320000
 30
0.0
  0
SPLINE
  5
1e6
100
AcDbEntity
  8
0
 62
7
100
AcDbSpline
 70
8
 71
3
 72
8
 73
4
 74
0
 40
0
 40
0
 40
0
 40
0
 40
1
 40
1
 40
1
 40
1
 10
111.200000
 20
76.320000
 30
0.0
 10
109.760000
 20
75.520000
 30
0.0
 10
109.040000
 20
74.320000
 30
0.0
 10
109.040000
 20
72.720000
 30
0.0
  0
SPLINE
  5
1e7
100
AcDbEntity
  8
0
 62
7
100
AcDbSpline
 70
8
 71
3
 72
8
 73
4
 74
0
 40
0
 40
0
 40
0
 40
0
 40
1
 40
1
 40
1
 40
1
 10
109.040000
 20
72.720000
 30
0.0
 10
109.040000
 20
71.280000
 30
0.0
 10
109.600000
 20
70.160000
 30
0.0
 10
110.800000
 20
69.520000
 30
0.0
  0
SPLINE
  5
1e8
100
AcDbEntity
  8
0
 62
7
100
AcDbSpline
 70
8
 71
3
 72
8
 73
4
 74
0
 40
0
 40
0
 40
0
 40
0
 40
1
 40
1
 40
1
 40
1
 10
110.800000
 20
69.520000
 30
0.0
 10
112.000000
 20
68.960000
 30
0.0
 10
114.320000
 20
68.160000
 30
0.0
 10
117.760000
 20
67.200000
 30
0.0
  0
SPLINE
  5
1e9
100
AcDbEntity
  8
0
 62
7
100
AcDbSpline
 70
8
 71
3
 72
8
 73
4
 74
0
 40
0
 40
0
 40
0
 40
0
 40
1
 40
1
 40
1
 40
1
 10
117.760000
 20
67.200000
 30
0.0
 10
121.760000
 20
66.240000
 30
0.0
 10
124.640000
 20
65.360000
 30
0.0
 10
126.640000
 20
64.560000
 30
0.0
  0
SPLINE
  5
1ea
100
AcDbEntity
  8
0
 62
7
100
AcDbSpline
 70
8
 71
3
 72
8
 73
4
 74
0
 40
0
 40
0
 40
0
 40
0
 40
1
 40
1
 40
1
 40
1
 10
126.640000
 20
64.560000
 30
0.0
 10
128.560000
 20
63.760000
 30
0.0
 10
130.080000
 20
62.720000
 30
0.0
 10
131.200000
 20
61.280000
 30
0.0
  0
SPLINE
  5
1eb
100
AcDbEntity
  8
0
 62
7
100
AcDbSpline
 70
8
 71
3
 72
8
 73
4
 74
0
 40
0
 40
0
 40
0
 40
0
 40
1
 40
1
 40
1
 40
1
 10
131.200000
 20
61.280000
 30
0.0
 10
132.320000
 20
59.920000
 30
0.0
 10
132.880000
 20
58.000000
 30
0.0
 10
132.880000
 20
55.520000
 30
0.0
  0
SPLINE
  5
1ec
100
AcDbEntity
  8
0
 62
7
100
AcDbSpline
 70
8
 71
3
 72
8
 73
4
 74
0
 40
0
 40
0
 40
0
 40
0
 40
1
 40
1
 40
1
 40
1
 10
132.880000
 20
55.520000
 30
0.0
 10
132.880000
 20
52.160000
 30
0.0
 10
131.520000
 20
49.360000
 30
0.0
 10
128.800000
 20
47.120000
 30
0.0
  0
SPLINE
  5
1ed
100
AcDbEntity
  8
0
 62
7
100
AcDbSpline
 70
8
 71
3
 72
8
 73
4
 74
0
 40
0
 40
0
 40
0
 40
0
 40
1
 40
1
 40
1
 40
1
 10
128.800000
 20
47.120000
 30
0.0
 10
126.080000
 20
44.800000
 30
0.0
 10
122.400000
 20
43.680000
 30
0.0
 10
117.840000
 20
43.680000
 30
0.0
  0
SPLINE
  5
1ee
100
AcDbEntity
  8
0
 62
7
100
AcDbSpline
 70
8
 71
3
 72
8
 73
4
 74
0
 40
0
 40
0
 40
0
 40
0
 40
1
 40
1
 40
1
 40
1
 10
117.840000
 20
43.680000
 30
0.0
 10
113.120000
 20
43.680000
 30
0.0
 10
109.440000
 20
44.720000
 30
0.0
 10
106.800000
 20
46.720000
 30
0.0
  0
SPLINE
  5
1ef
100
AcDbEntity
  8
0
 62
7
100
AcDbSpline
 70
8
 71
3
 72
8
 73
4
 74
0
 40
0
 40
0
 40
0
 40
0
 40
1
 40
1
 40
1
 40
1
 10
106.800000
 20
46.720000
 30
0.0
 10
104.080000
 20
48.720000
 30
0.0
 10
102.480000
 20
51.680000
 30
0.0
 10
101.840000
 20
55.680000
 30
0.0
  0
LINE
  5
1f0
100
AcDbEntity
  8
0
 62
7
100
AcDbLine
 10
101.840000
 20
55.680000
 30
0.0
 11
108.160000
 21
56.640000
 31
0.0
  0
SPLINE
  5
1f1
100
AcDbEntity
  8
0
 62
7
100
AcDbSpline
 70
8
 71
3
 72
8
 73
4
 74
0
 40
0
 40
0
 40
0
 40
0
 40
1
 40
1
 40
1
 40
1
 10
108.160000
 20
56.640000
 30
0.0
 10
108.480000
 20
54.080000
 30
0.0
 10
109.440000
 20
52.080000
 30
0.0
 10
111.040000
 20
50.800000
 30
0.0
  0
SPLINE
  5
1f2
100
AcDbEntity
  8
0
 62
7
100
AcDbSpline
 70
8
 71
3
 72
8
 73
4
 74
0
 40
0
 40
0
 40
0
 40
0
 40
1
 40
1
 40
1
 40
1
 10
111.040000
 20
50.800000
 30
0.0
 10
112.640000
 20
49.520000
 30
0.0
 10
114.880000
 20
48.880000
 30
0.0
 10
117.760000
 20
48.880000
 30
0.0
  0
SPLINE
  5
1f3
100
AcDbEntity
  8
0
 62
7
100
AcDbSpline
 70
8
 71
3
 72
8
 73
4
 74
0
 40
0
 40
0
 40
0
 40
0
 40
1
 40
1
 40
1
 40
1
 10
117.760000
 20
48.880000
 30
0.0
 10
120.560000
 20
48.880000
 30
0.0
 10
122.720000
 20
49.440000
 30
0.0
 10
124.160000
 20
50.640000
 30
0.0
  0
SPLINE
  5
1f4
100
AcDbEntity
  8
0
 62
7
100
AcDbSpline
 70
8
 71
3
 72
8
 73
4
 74
0
 40
0
 40
0
 40
0
 40
0
 40
1
 40
1
 40
1
 40
1
 10
124.160000
 20
50.640000
 30
0.0
 10
125.600000
 20
51.760000
 30
0.0
 10
126.400000
 20
53.200000
 30
0.0
 10
126.400000
 20
54.880000
 30
0.0
  0
SPLINE
  5
1f5
100
AcDbEntity
  8
0
 62
7
100
AcDbSpline
 70
8
 71
3
 72
8
 73
4
 74
0
 40
0
 40
0
 40
0
 40
0
 40
1
 40
1
 40
1
 40
1
 10
126.400000
 20
54.880000
 30
0.0
 10
126.400000
 20
56.000000
 30
0.0
 10
126.000000
 20
56.880000
 30
0.0
 10
125.360000
 20
57.600000
 30
0.0
  0
SPLINE
  5
1f6
100
AcDbEntity
  8
0
 62
7
100
AcDbSpline
 70
8
 71
3
 72
8
 73
4
 74
0
 40
0
 40
0
 40
0
 40
0
 40
1
 40
1
 40
1
 40
1
 10
125.360000
 20
57.600000
 30
0.0
 10
124.640000
 20
58.240000
 30
0.0
 10
123.840000
 20
58.720000
 30
0.0
 10
122.800000
 20
59.120000
 30
0.0
  0
SPLINE
  5
1f7
100
AcDbEntity
  8
0
 62
7
100
AcDbSpline
 70
8
 71
3
 72
8
 73
4
 74
0
 40
0
 40
0
 40
0
 40
0
 40
1
 40
1
 40
1
 40
1
 10
122.800000
 20
59.120000
 30
0.0
 10
121.760000
 20
59.440000
 30
0.0
 10
119.520000
 20
60.000000
 30
0.0
 10
115.920000
 20
60.880000
 30
0.0
  0
SPLINE
  5
1f8
100
AcDbEntity
  8
0
 62
7
100
AcDbSpline
 70
8
 71
3
 72
8
 73
4
 74
0
 40
0
 40
0
 40
0
 40
0
 40
1
 40
1
 40
1
 40
1
 10
115.920000
 20
60.880000
 30
0.0
 10
110.640000
 20
62.160000
 30
0.0
 10
107.120000
 20
63.680000
 30
0.0
 10
105.440000
 20
65.520000
 30
0.0
  0
SPLINE
  5
1f9
100
AcDbEntity
  8
0
 62
7
100
AcDbSpline
 70
8
 71
3
 72
8
 73
4
 74
0
 40
0
 40
0
 40
0
 40
0
 40
1
 40
1
 40
1
 40
1
 10
105.440000
 20
65.520000
 30
0.0
 10
103.760000
 20
67.280000
 30
0.0
 10
102.880000
 20
69.440000
 30
0.0
 10
102.880000
 20
72.000000
 30
0.0
  0
SPLINE
  5
1fa
100
AcDbEntity
  8
0
 62
7
100
AcDbSpline
 70
8
 71
3
 72
8
 73
4
 74
0
 40
0
 40
0
 40
0
 40
0
 40
1
 40
1
 40
1
 40
1
 10
102.880000
 20
72.000000
 30
0.0
 10
102.880000
 20
75.120000
 30
0.0
 10
104.160000
 20
77.680000
 30
0.0
 10
106.640000
 20
79.680000
 30
0.0
  0
SPLINE
  5
1fb
100
AcDbEntity
  8
0
 62
7
100
AcDbSpline
 70
8
 71
3
 72
8
 73
4
 74
0
 40
0
 40
0
 40
0
 40
0
 40
1
 40
1
 40
1
 40
1
 10
106.640000
 20
79.680000
 30
0.0
 10
109.120000
 20
81.680000
 30
0.0
 10
112.400000
 20
82.720000
 30
0.0
 10
116.640000
 20
82.720000
 30
0.0
  0
SPLINE
  5
1fc
100
AcDbEntity
  8
0
 62
7
100
AcDbSpline
 70
8
 71
3
 72
8
 73
4
 74
0
 40
0
 40
0
 40
0
 40
0
 40
1
 40
1
 40
1
 40
1
 10
116.640000
 20
82.720000
 30
0.0
 10
121.120000
 20
82.720000
 30
0.0
 10
124.560000
 20
81.840000
 30
0.0
 10
127.040000
 20
80.080000
 30
0.0
  0
SPLINE
  5
1fd
100
AcDbEntity
  8
0
 62
7
100
AcDbSpline
 70
8
 71
3
 72
8
 73
4
 74
0
 40
0
 40
0
 40
0
 40
0
 40
1
 40
1
 40
1
 40
1
 10
127.040000
 20
80.080000
 30
0.0
 10
129.520000
 20
78.320000
 30
0.0
 10
130.960000
 20
75.760000
 30
0.0
 10
131.440000
 20
72.240000
 30
0.0
  0
LINE
  5
1fe
100
AcDbEntity
  8
0
 62
7
100
AcDbLine
 10
131.440000
 20
72.240000
 30
0.0
 11
125.280000
 21
71.440000
 31
0.0
  0
LINE
  5
1ff
100
AcDbEntity
  8
0
 62
7
100
AcDbLine
 10
125.280000
 20
71.440000
 30
0.0
 11
125.280000
 21
71.440000
 31
0.0
  0
SPLINE
  5
200
100
AcDbEntity
  8
0
 62
7
100
AcDbSpline
 70
8
 71
3
 72
8
 73
4
 74
0
 40
0
 40
0
 40
0
 40
0
 40
1
 40
1
 40
1
 40
1
 10
155.040000
 20
44.640000
 30
0.0
 10
153.120000
 20
44.240000
 30
0.0
 10
151.600000
 20
44.080000
 30
0.0
 10
150.240000
 20
44.080000
 30
0.0
  0
SPLINE
  5
201
100
AcDbEntity
  8
0
 62
7
100
AcDbSpline
 70
8
 71
3
 72
8
 73
4
 74
0
 40
0
 40
0
 40
0
 40
0
 40
1
 40
1
 40
1
 40
1
 10
150.240000
 20
44.080000
 30
0.0
 10
147.520000
 20
44.080000
 30
0.0
 10
145.520000
 20
44.560000
 30
0.0
 10
144.240000
 20
45.520000
 30
0.0
  0
SPLINE
  5
202
100
AcDbEntity
  8
0
 62
7
100
AcDbSpline
 70
8
 71
3
 72
8
 73
4
 74
0
 40
0
 40
0
 40
0
 40
0
 40
1
 40
1
 40
1
 40
1
 10
144.240000
 20
45.520000
 30
0.0
 10
142.960000
 20
46.480000
 30
0.0
 10
142.160000
 20
47.760000
 30
0.0
 10
141.920000
 20
49.200000
 30
0.0
  0
SPLINE
  5
203
100
AcDbEntity
  8
0
 62
7
100
AcDbSpline
 70
8
 71
3
 72
8
 73
4
 74
0
 40
0
 40
0
 40
0
 40
0
 40
1
 40
1
 40
1
 40
1
 10
141.920000
 20
49.200000
 30
0.0
 10
141.600000
 20
50.720000
 30
0.0
 10
141.520000
 20
52.800000
 30
0.0
 10
141.520000
 20
55.520000
 30
0.0
  0
LINE
  5
204
100
AcDbEntity
  8
0
 62
7
100
AcDbLine
 10
141.520000
 20
55.520000
 30
0.0
 11
141.520000
 21
76.960000
 31
0.0
  0
LINE
  5
205
100
AcDbEntity
  8
0
 62
7
100
AcDbLine
 10
141.520000
 20
76.960000
 30
0.0
 11
136.880000
 21
76.960000
 31
0.0
  0
LINE
  5
206
100
AcDbEntity
  8
0
 62
7
100
AcDbLine
 10
136.880000
 20
76.960000
 30
0.0
 11
136.880000
 21
81.840000
 31
0.0
  0
LINE
  5
207
100
AcDbEntity
  8
0
 62
7
100
AcDbLine
 10
136.880000
 20
81.840000
 30
0.0
 11
141.520000
 21
81.840000
 31
0.0
  0
LINE
  5
208
100
AcDbEntity
  8
0
 62
7
100
AcDbLine
 10
141.520000
 20
81.840000
 30
0.0
 11
141.520000
 21
91.120000
 31
0.0
  0
LINE
  5
209
100
AcDbEntity
  8
0
 62
7
100
AcDbLine
 10
141.520000
 20
91.120000
 30
0.0
 11
147.840000
 21
94.960000
 31
0.0
  0
LINE
  5
20a
100
AcDbEntity
  8
0
 62
7
100
AcDbLine
 10
147.840000
 20
94.960000
 30
0.0
 11
147.840000
 21
81.840000
 31
0.0
  0
LINE
  5
20b
100
AcDbEntity
  8
0
 62
7
100
AcDbLine
 10
147.840000
 20
81.840000
 30
0.0
 11
154.160000
 21
81.840000
 31
0.0
  0
LINE
  5
20c
100
AcDbEntity
  8
0
 62
7
100
AcDbLine
 10
154.160000
 20
81.840000
 30
0.0
 11
154.160000
 21
76.960000
 31
0.0
  0
LINE
  5
20d
100
AcDbEntity
  8
0
 62
7
100
AcDbLine
 10
154.160000
 20
76.960000
 30
0.0
 11
147.840000
 21
76.960000
 31
0.0
  0
LINE
  5
20e
100
AcDbEntity
  8
0
 62
7
100
AcDbLine
 10
147.840000
 20
76.960000
 30
0.0
 11
147.840000
 21
55.120000
 31
0.0
  0
SPLINE
  5
20f
100
AcDbEntity
  8
0
 62
7
100
AcDbSpline
 70
8
 71
3
 72
8
 73
4
 74
0
 40
0
 40
0
 40
0
 40
0
 40
1
 40
1
 40
1
 40
1
 10
147.840000
 20
55.120000
 30
0.0
 10
147.840000
 20
53.280000
 30
0.0
 10
148.000000
 20
51.920000
 30
0.0
 10
148.400000
 20
51.120000
 30
0.0
  0
SPLINE
  5
210
100
AcDbEntity
  8
0
 62
7
100
AcDbSpline
 70
8
 71
3
 72
8
 73
4
 74
0
 40
0
 40
0
 40
0
 40
0
 40
1
 40
1
 40
1
 40
1
 10
148.400000
 20
51.120000
 30
0.0
 10
148.800000
 20
50.400000
 30
0.0
 10
149.760000
 20
50.000000
 30
0.0
 10
151.360000
 20
50.000000
 30
0.0
  0
SPLINE
  5
211
100
AcDbEntity
  8
0
 62
7
100
AcDbSpline
 70
8
 71
3
 72
8
 73
4
 74
0
 40
0
 40
0
 40
0
 40
0
 40
1
 40
1
 40
1
 40
1
 10
151.360000
 20
50.000000
 30
0.0
 10
152.240000
 20
50.000000
 30
0.0
 10
153.200000
 20
50.080000
 30
0.0
 10
154.160000
 20
50.240000
 30
0.0
  0
LINE
  5
212
100
AcDbEntity
  8
0
 62
7
100
AcDbLine
 10
154.160000
 20
50.240000
 30
0.0
 11
155.040000
 21
44.640000
 31
0.0
  0
LINE
  5
213
100
AcDbEntity
  8
0
 62
7
100
AcDbLine
 10
155.040000
 20
44.640000
 30
0.0
 11
155.040000
 21
44.640000
 31
0.0
  0
SPLINE
  5
214
100
AcDbEntity
  8
0
 62
7
100
AcDbSpline
 70
8
 71
3
 72
8
 73
4
 74
0
 40
0
 40
0
 40
0
 40
0
 40
1
 40
1
 40
1
 40
1
 10
175.680000
 20
82.720000
 30
0.0
 10
180.720000
 20
82.720000
 30
0.0
 10
184.880000
 20
81.040000
 30
0.0
 10
188.160000
 20
77.760000
 30
0.0
  0
SPLINE
  5
215
100
AcDbEntity
  8
0
 62
7
100
AcDbSpline
 70
8
 71
3
 72
8
 73
4
 74
0
 40
0
 40
0
 40
0
 40
0
 40
1
 40
1
 40
1
 40
1
 10
188.160000
 20
77.760000
 30
0.0
 10
191.520000
 20
74.480000
 30
0.0
 10
193.200000
 20
69.840000
 30
0.0
 10
193.200000
 20
63.760000
 30
0.0
  0
SPLINE
  5
216
100
AcDbEntity
  8
0
 62
7
100
AcDbSpline
 70
8
 71
3
 72
8
 73
4
 74
0
 40
0
 40
0
 40
0
 40
0
 40
1
 40
1
 40
1
 40
1
 10
193.200000
 20
63.760000
 30
0.0
 10
193.200000
 20
56.480000
 30
0.0
 10
191.360000
 20
51.280000
 30
0.0
 10
187.760000
 20
48.240000
 30
0.0
  0
SPLINE
  5
217
100
AcDbEntity
  8
0
 62
7
100
AcDbSpline
 70
8
 71
3
 72
8
 73
4
 74
0
 40
0
 40
0
 40
0
 40
0
 40
1
 40
1
 40
1
 40
1
 10
187.760000
 20
48.240000
 30
0.0
 10
184.240000
 20
45.200000
 30
0.0
 10
180.160000
 20
43.680000
 30
0.0
 10
175.680000
 20
43.680000
 30
0.0
  0
SPLINE
  5
218
100
AcDbEntity
  8
0
 62
7
100
AcDbSpline
 70
8
 71
3
 72
8
 73
4
 74
0
 40
0
 40
0
 40
0
 40
0
 40
1
 40
1
 40
1
 40
1
 10
175.680000
 20
43.680000
 30
0.0
 10
170.960000
 20
43.680000
 30
0.0
 10
166.880000
 20
45.200000
 30
0.0
 10
163.360000
 20
48.320000
 30
0.0
  0
SPLINE
  5
219
100
AcDbEntity
  8
0
 62
7
100
AcDbSpline
 70
8
 71
3
 72
8
 73
4
 74
0
 40
0
 40
0
 40
0
 40
0
 40
1
 40
1
 40
1
 40
1
 10
163.360000
 20
48.320000
 30
0.0
 10
159.920000
 20
51.440000
 30
0.0
 10
158.160000
 20
56.400000
 30
0.0
 10
158.160000
 20
63.200000
 30
0.0
  0
SPLINE
  5
21a
100
AcDbEntity
  8
0
 62
7
100
AcDbSpline
 70
8
 71
3
 72
8
 73
4
 74
0
 40
0
 40
0
 40
0
 40
0
 40
1
 40
1
 40
1
 40
1
 10
158.160000
 20
63.200000
 30
0.0
 10
158.160000
 20
69.760000
 30
0.0
 10
159.840000
 20
74.640000
 30
0.0
 10
163.200000
 20
77.840000
 30
0.0
  0
SPLINE
  5
21b
100
AcDbEntity
  8
0
 62
7
100
AcDbSpline
 70
8
 71
3
 72
8
 73
4
 74
0
 40
0
 40
0
 40
0
 40
0
 40
1
 40
1
 40
1
 40
1
 10
163.200000
 20
77.840000
 30
0.0
 10
166.560000
 20
81.120000
 30
0.0
 10
170.720000
 20
82.720000
 30
0.0
 10
175.680000
 20
82.720000
 30
0.0
  0
LINE
  5
21c
100
AcDbEntity
  8
0
 62
7
100
AcDbLine
 10
175.680000
 20
82.720000
 30
0.0
 11
175.680000
 21
82.720000
 31
0.0
  0
SPLINE
  5
21d
100
AcDbEntity
  8
0
 62
7
100
AcDbSpline
 70
8
 71
3
 72
8
 73
4
 74
0
 40
0
 40
0
 40
0
 40
0
 40
1
 40
1
 40
1
 40
1
 10
175.680000
 20
48.880000
 30
0.0
 10
179.280000
 20
48.880000
 30
0.0
 10
182.000000
 20
50.240000
 30
0.0
 10
183.920000
 20
52.880000
 30
0.0
  0
SPLINE
  5
21e
100
AcDbEntity
  8
0
 62
7
100
AcDbSpline
 70
8
 71
3
 72
8
 73
4
 74
0
 40
0
 40
0
 40
0
 40
0
 40
1
 40
1
 40
1
 40
1
 10
183.920000
 20
52.880000
 30
0.0
 10
185.760000
 20
55.600000
 30
0.0
 10
186.720000
 20
59.040000
 30
0.0
 10
186.720000
 20
63.440000
 30
0.0
  0
SPLINE
  5
21f
100
AcDbEntity
  8
0
 62
7
100
AcDbSpline
 70
8
 71
3
 72
8
 73
4
 74
0
 40
0
 40
0
 40
0
 40
0
 40
1
 40
1
 40
1
 40
1
 10
186.720000
 20
63.440000
 30
0.0
 10
186.720000
 20
68.080000
 30
0.0
 10
185.680000
 20
71.600000
 30
0.0
 10
183.520000
 20
74.000000
 30
0.0
  0
SPLINE
  5
220
100
AcDbEntity
  8
0
 62
7
100
AcDbSpline
 70
8
 71
3
 72
8
 73
4
 74
0
 40
0
 40
0
 40
0
 40
0
 40
1
 40
1
 40
1
 40
1
 10
183.520000
 20
74.000000
 30
0.0
 10
181.360000
 20
76.320000
 30
0.0
 10
178.800000
 20
77.520000
 30
0.0
 10
175.680000
 20
77.520000
 30
0.0
  0
SPLINE
  5
221
100
AcDbEntity
  8
0
 62
7
100
AcDbSpline
 70
8
 71
3
 72
8
 73
4
 74
0
 40
0
 40
0
 40
0
 40
0
 40
1
 40
1
 40
1
 40
1
 10
175.680000
 20
77.520000
 30
0.0
 10
172.480000
 20
77.520000
 30
0.0
 10
169.840000
 20
76.320000
 30
0.0
 10
167.760000
 20
73.920000
 30
0.0
  0
SPLINE
  5
222
100
AcDbEntity
  8
0
 62
7
100
AcDbSpline
 70
8
 71
3
 72
8
 73
4
 74
0
 40
0
 40
0
 40
0
 40
0
 40
1
 40
1
 40
1
 40
1
 10
167.760000
 20
73.920000
 30
0.0
 10
165.680000
 20
71.520000
 30
0.0
 10
164.640000
 20
67.920000
 30
0.0
 10
164.640000
 20
63.200000
 30
0.0
  0
SPLINE
  5
223
100
AcDbEntity
  8
0
 62
7
100
AcDbSpline
 70
8
 71
3
 72
8
 73
4
 74
0
 40
0
 40
0
 40
0
 40
0
 40
1
 40
1
 40
1
 40
1
 10
164.640000
 20
63.200000
 30
0.0
 10
164.640000
 20
58.480000
 30
0.0
 10
165.680000
 20
54.880000
 30
0.0
 10
167.840000
 20
52.480000
 30
0.0
  0
SPLINE
  5
224
100
AcDbEntity
  8
0
 62
7
100
AcDbSpline
 70
8
 71
3
 72
8
 73
4
 74
0
 40
0
 40
0
 40
0
 40
0
 40
1
 40
1
 40
1
 40
1
 10
167.840000
 20
52.480000
 30
0.0
 10
169.920000
 20
50.080000
 30
0.0
 10
172.560000
 20
48.880000
 30
0.0
 10
175.680000
 20
48.880000
 30
0.0
  0
LINE
  5
225
100
AcDbEntity
  8
0
 62
7
100
AcDbLine
 10
175.680000
 20
48.880000
 30
0.0
 11
175.680000
 21
48.880000
 31
0.0
  0
LINE
  5
226
100
AcDbEntity
  8
0
 62
7
100
AcDbLine
 10
230.720000
 20
44.560000
 30
0.0
 11
225.120000
 21
44.560000
 31
0.0
  0
LINE
  5
227
100
AcDbEntity
  8
0
 62
7
100
AcDbLine
 10
225.120000
 20
44.560000
 30
0.0
 11
225.120000
 21
50.080000
 31
0.0
  0
LINE
  5
228
100
AcDbEntity
  8
0
 62
7
100
AcDbLine
 10
225.120000
 20
50.080000
 30
0.0
 11
224.880000
 21
50.080000
 31
0.0
  0
SPLINE
  5
229
100
AcDbEntity
  8
0
 62
7
100
AcDbSpline
 70
8
 71
3
 72
8
 73
4
 74
0
 40
0
 40
0
 40
0
 40
0
 40
1
 40
1
 40
1
 40
1
 10
224.880000
 20
50.080000
 30
0.0
 10
222.080000
 20
45.840000
 30
0.0
 10
218.160000
 20
43.680000
 30
0.0
 10
213.200000
 20
43.680000
 30
0.0
  0
SPLINE
  5
22a
100
AcDbEntity
  8
0
 62
7
100
AcDbSpline
 70
8
 71
3
 72
8
 73
4
 74
0
 40
0
 40
0
 40
0
 40
0
 40
1
 40
1
 40
1
 40
1
 10
213.200000
 20
43.680000
 30
0.0
 10
210.640000
 20
43.680000
 30
0.0
 10
208.160000
 20
44.320000
 30
0.0
 10
206.000000
 20
45.520000
 30
0.0
  0
SPLINE
  5
22b
100
AcDbEntity
  8
0
 62
7
100
AcDbSpline
 70
8
 71
3
 72
8
 73
4
 74
0
 40
0
 40
0
 40
0
 40
0
 40
1
 40
1
 40
1
 40
1
 10
206.000000
 20
45.520000
 30
0.0
 10
203.760000
 20
46.720000
 30
0.0
 10
202.320000
 20
48.400000
 30
0.0
 10
201.520000
 20
50.480000
 30
0.0
  0
SPLINE
  5
22c
100
AcDbEntity
  8
0
 62
7
100
AcDbSpline
 70
8
 71
3
 72
8
 73
4
 74
0
 40
0
 40
0
 40
0
 40
0
 40
1
 40
1
 40
1
 40
1
 10
201.520000
 20
50.480000
 30
0.0
 10
200.800000
 20
52.640000
 30
0.0
 10
200.480000
 20
55.360000
 30
0.0
 10
200.480000
 20
58.720000
 30
0.0
  0
LINE
  5
22d
100
AcDbEntity
  8
0
 62
7
100
AcDbLine
 10
200.480000
 20
58.720000
 30
0.0
 11
200.480000
 21
81.840000
 31
0.0
  0
LINE
  5
22e
100
AcDbEntity
  8
0
 62
7
100
AcDbLine
 10
200.480000
 20
81.840000
 30
0.0
 11
206.800000
 21
81.840000
 31
0.0
  0
LINE
  5
22f
100
AcDbEntity
  8
0
 62
7
100
AcDbLine
 10
206.800000
 20
81.840000
 30
0.0
 11
206.800000
 21
61.200000
 31
0.0
  0
SPLINE
  5
230
100
AcDbEntity
  8
0
 62
7
100
AcDbSpline
 70
8
 71
3
 72
8
 73
4
 74
0
 40
0
 40
0
 40
0
 40
0
 40
1
 40
1
 40
1
 40
1
 10
206.800000
 20
61.200000
 30
0.0
 10
206.800000
 20
57.920000
 30
0.0
 10
206.960000
 20
55.520000
 30
0.0
 10
207.280000
 20
54.080000
 30
0.0
  0
SPLINE
  5
231
100
AcDbEntity
  8
0
 62
7
100
AcDbSpline
 70
8
 71
3
 72
8
 73
4
 74
0
 40
0
 40
0
 40
0
 40
0
 40
1
 40
1
 40
1
 40
1
 10
207.280000
 20
54.080000
 30
0.0
 10
207.600000
 20
52.640000
 30
0.0
 10
208.400000
 20
51.440000
 30
0.0
 10
209.760000
 20
50.560000
 30
0.0
  0
SPLINE
  5
232
100
AcDbEntity
  8
0
 62
7
100
AcDbSpline
 70
8
 71
3
 72
8
 73
4
 74
0
 40
0
 40
0
 40
0
 40
0
 40
1
 40
1
 40
1
 40
1
 10
209.760000
 20
50.560000
 30
0.0
 10
211.040000
 20
49.600000
 30
0.0
 10
212.640000
 20
49.200000
 30
0.0
 10
214.480000
 20
49.200000
 30
0.0
  0
SPLINE
  5
233
100
AcDbEntity
  8
0
 62
7
100
AcDbSpline
 70
8
 71
3
 72
8
 73
4
 74
0
 40
0
 40
0
 40
0
 40
0
 40
1
 40
1
 40
1
 40
1
 10
214.480000
 20
49.200000
 30
0.0
 10
216.880000
 20
49.200000
 30
0.0
 10
219.120000
 20
50.000000
 30
0.0
 10
221.280000
 20
51.680000
 30
0.0
  0
SPLINE
  5
234
100
AcDbEntity
  8
0
 62
7
100
AcDbSpline
 70
8
 71
3
 72
8
 73
4
 74
0
 40
0
 40
0
 40
0
 40
0
 40
1
 40
1
 40
1
 40
1
 10
221.280000
 20
51.680000
 30
0.0
 10
223.360000
 20
53.280000
 30
0.0
 10
224.400000
 20
56.720000
 30
0.0
 10
224.400000
 20
61.920000
 30
0.0
  0
LINE
  5
235
100
AcDbEntity
  8
0
 62
7
100
AcDbLine
 10
224.400000
 20
61.920000
 30
0.0
 11
224.400000
 21
81.840000
 31
0.0
  0
LINE
  5
236
100
AcDbEntity
  8
0
 62
7
100
AcDbLine
 10
224.400000
 20
81.840000
 30
0.0
 11
230.720000
 21
81.840000
 31
0.0
  0
LINE
  5
237
100
AcDbEntity
  8
0
 62
7
100
AcDbLine
 10
230.720000
 20
81.840000
 30
0.0
 11
230.720000
 21
44.560000
 31
0.0
  0
LINE
  5
238
100
AcDbEntity
  8
0
 62
7
100
AcDbLine
 10
230.720000
 20
44.560000
 30
0.0
 11
230.720000
 21
44.560000
 31
0.0
  0
LINE
  5
239
100
AcDbEntity
  8
0
 62
7
100
AcDbLine
 10
246.880000
 20
44.560000
 30
0.0
 11
240.560000
 21
44.560000
 31
0.0
  0
LINE
  5
23a
100
AcDbEntity
  8
0
 62
7
100
AcDbLine
 10
240.560000
 20
44.560000
 30
0.0
 11
240.560000
 21
81.840000
 31
0.0
  0
LINE
  5
23b
100
AcDbEntity
  8
0
 62
7
100
AcDbLine
 10
240.560000
 20
81.840000
 30
0.0
 11
246.880000
 21
81.840000
 31
0.0
  0
LINE
  5
23c
100
AcDbEntity
  8
0
 62
7
100
AcDbLine
 10
246.880000
 20
81.840000
 30
0.0
 11
246.880000
 21
44.560000
 31
0.0
  0
LINE
  5
23d
100
AcDbEntity
  8
0
 62
7
100
AcDbLine
 10
246.880000
 20
44.560000
 30
0.0
 11
246.880000
 21
44.560000
 31
0.0
  0
LINE
  5
23e
100
AcDbEntity
  8
0
 62
7
100
AcDbLine
 10
246.880000
 20
88.960000
 30
0.0
 11
240.560000
 21
88.960000
 31
0.0
  0
LINE
  5
23f
100
AcDbEntity
  8
0
 62
7
100
AcDbLine
 10
240.560000
 20
88.960000
 30
0.0
 11
240.560000
 21
96.080000
 31
0.0
  0
LINE
  5
240
100
AcDbEntity
  8
0
 62
7
100
AcDbLine
 10
240.560000
 20
96.080000
 30
0.0
 11
246.880000
 21
96.080000
 31
0.0
  0
LINE
  5
241
100
AcDbEntity
  8
0
 62
7
100
AcDbLine
 10
246.880000
 20
96.080000
 30
0.0
 11
246.880000
 21
88.960000
 31
0.0
  0
LINE
  5
242
100
AcDbEntity
  8
0
 62
7
100
AcDbLine
 10
246.880000
 20
88.960000
 30
0.0
 11
246.880000
 21
88.960000
 31
0.0
  0
LINE
  5
243
100
AcDbEntity
  8
0
 62
7
100
AcDbLine
 10
262.880000
 20
44.560000
 30
0.0
 11
256.560000
 21
44.560000
 31
0.0
  0
LINE
  5
244
100
AcDbEntity
  8
0
 62
7
100
AcDbLine
 10
256.560000
 20
44.560000
 30
0.0
 11
256.560000
 21
96.080000
 31
0.0
  0
LINE
  5
245
100
AcDbEntity
  8
0
 62
7
100
AcDbLine
 10
256.560000
 20
96.080000
 30
0.0
 11
262.880000
 21
96.080000
 31
0.0
  0
LINE
  5
246
100
AcDbEntity
  8
0
 62
7
100
AcDbLine
 10
262.880000
 20
96.080000
 30
0.0
 11
262.880000
 21
44.560000
 31
0.0
  0
LINE
  5
247
100
AcDbEntity
  8
0
 62
7
100
AcDbLine
 10
262.880000
 20
44.560000
 30
0.0
 11
262.880000
 21
44.560000
 31
0.0
  0
LINE
  5
248
100
AcDbEntity
  8
0
 62
7
100
AcDbLine
 10
278.880000
 20
44.560000
 30
0.0
 11
272.560000
 21
44.560000
 31
0.0
  0
LINE
  5
249
100
AcDbEntity
  8
0
 62
7
100
AcDbLine
 10
272.560000
 20
44.560000
 30
0.0
 11
272.560000
 21
96.080000
 31
0.0
  0
LINE
  5
24a
100
AcDbEntity
  8
0
 62
7
100
AcDbLine
 10
272.560000
 20
96.080000
 30
0.0
 11
278.880000
 21
96.080000
 31
0.0
  0
LINE
  5
24b
100
AcDbEntity
  8
0
 62
7
100
AcDbLine
 10
278.880000
 20
96.080000
 30
0.0
 11
278.880000
 21
44.560000
 31
0.0
  0
LINE
  5
24c
100
AcDbEntity
  8
0
 62
7
100
AcDbLine
 10
278.880000
 20
44.560000
 30
0.0
 11
278.880000
 21
44.560000
 31
0.0
  0
LINE
  5
24d
100
AcDbEntity
  8
0
 62
7
100
AcDbLine
 10
320.960000
 20
61.600000
 30
0.0
 11
293.040000
 21
61.600000
 31
0.0
  0
SPLINE
  5
24e
100
AcDbEntity
  8
0
 62
7
100
AcDbSpline
 70
8
 71
3
 72
8
 73
4
 74
0
 40
0
 40
0
 40
0
 40
0
 40
1
 40
1
 40
1
 40
1
 10
293.040000
 20
61.600000
 30
0.0
 10
293.280000
 20
57.520000
 30
0.0
 10
294.480000
 20
54.320000
 30
0.0
 10
296.560000
 20
52.160000
 30
0.0
  0
SPLINE
  5
24f
100
AcDbEntity
  8
0
 62
7
100
AcDbSpline
 70
8
 71
3
 72
8
 73
4
 74
0
 40
0
 40
0
 40
0
 40
0
 40
1
 40
1
 40
1
 40
1
 10
296.560000
 20
52.160000
 30
0.0
 10
298.640000
 20
50.000000
 30
0.0
 10
301.280000
 20
48.880000
 30
0.0
 10
304.400000
 20
48.880000
 30
0.0
  0
SPLINE
  5
250
100
AcDbEntity
  8
0
 62
7
100
AcDbSpline
 70
8
 71
3
 72
8
 73
4
 74
0
 40
0
 40
0
 40
0
 40
0
 40
1
 40
1
 40
1
 40
1
 10
304.400000
 20
48.880000
 30
0.0
 10
306.800000
 20
48.880000
 30
0.0
 10
308.880000
 20
49.520000
 30
0.0
 10
310.480000
 20
50.800000
 30
0.0
  0
SPLINE
  5
251
100
AcDbEntity
  8
0
 62
7
100
AcDbSpline
 70
8
 71
3
 72
8
 73
4
 74
0
 40
0
 40
0
 40
0
 40
0
 40
1
 40
1
 40
1
 40
1
 10
310.480000
 20
50.800000
 30
0.0
 10
312.160000
 20
52.080000
 30
0.0
 10
313.360000
 20
54.000000
 30
0.0
 10
314.240000
 20
56.560000
 30
0.0
  0
LINE
  5
252
100
AcDbEntity
  8
0
 62
7
100
AcDbLine
 10
314.240000
 20
56.560000
 30
0.0
 11
320.720000
 21
55.760000
 31
0.0
  0
SPLINE
  5
253
100
AcDbEntity
  8
0
 62
7
100
AcDbSpline
 70
8
 71
3
 72
8
 73
4
 74
0
 40
0
 40
0
 40
0
 40
0
 40
1
 40
1
 40
1
 40
1
 10
320.720000
 20
55.760000
 30
0.0
 10
319.680000
 20
51.920000
 30
0.0
 10
317.760000
 20
48.880000
 30
0.0
 10
314.960000
 20
46.800000
 30
0.0
  0
SPLINE
  5
254
100
AcDbEntity
  8
0
 62
7
100
AcDbSpline
 70
8
 71
3
 72
8
 73
4
 74
0
 40
0
 40
0
 40
0
 40
0
 40
1
 40
1
 40
1
 40
1
 10
314.960000
 20
46.800000
 30
0.0
 10
312.160000
 20
44.720000
 30
0.0
 10
308.640000
 20
43.680000
 30
0.0
 10
304.400000
 20
43.680000
 30
0.0
  0
SPLINE
  5
255
100
AcDbEntity
  8
0
 62
7
100
AcDbSpline
 70
8
 71
3
 72
8
 73
4
 74
0
 40
0
 40
0
 40
0
 40
0
 40
1
 40
1
 40
1
 40
1
 10
304.400000
 20
43.680000
 30
0.0
 10
298.800000
 20
43.680000
 30
0.0
 10
294.400000
 20
45.360000
 30
0.0
 10
291.280000
 20
48.800000
 30
0.0
  0
SPLINE
  5
256
100
AcDbEntity
  8
0
 62
7
100
AcDbSpline
 70
8
 71
3
 72
8
 73
4
 74
0
 40
0
 40
0
 40
0
 40
0
 40
1
 40
1
 40
1
 40
1
 10
291.280000
 20
48.800000
 30
0.0
 10
288.160000
 20
52.240000
 30
0.0
 10
286.560000
 20
56.960000
 30
0.0
 10
286.560000
 20
62.880000
 30
0.0
  0
SPLINE
  5
257
100
AcDbEntity
  8
0
 62
7
100
AcDbSpline
 70
8
 71
3
 72
8
 73
4
 74
0
 40
0
 40
0
 40
0
 40
0
 40
1
 40
1
 40
1
 40
1
 10
286.560000
 20
62.880000
 30
0.0
 10
286.560000
 20
68.800000
 30
0.0
 10
288.080000
 20
73.600000
 30
0.0
 10
291.120000
 20
77.200000
 30
0.0
  0
SPLINE
  5
258
100
AcDbEntity
  8
0
 62
7
100
AcDbSpline
 70
8
 71
3
 72
8
 73
4
 74
0
 40
0
 40
0
 40
0
 40
0
 40
1
 40
1
 40
1
 40
1
 10
291.120000
 20
77.200000
 30
0.0
 10
294.160000
 20
80.880000
 30
0.0
 10
298.480000
 20
82.720000
 30
0.0
 10
304.080000
 20
82.720000
 30
0.0
  0
SPLINE
  5
259
100
AcDbEntity
  8
0
 62
7
100
AcDbSpline
 70
8
 71
3
 72
8
 73
4
 74
0
 40
0
 40
0
 40
0
 40
0
 40
1
 40
1
 40
1
 40
1
 10
304.080000
 20
82.720000
 30
0.0
 10
306.800000
 20
82.720000
 30
0.0
 10
309.360000
 20
82.080000
 30
0.0
 10
311.920000
 20
80.880000
 30
0.0
  0
SPLINE
  5
25a
100
AcDbEntity
  8
0
 62
7
100
AcDbSpline
 70
8
 71
3
 72
8
 73
4
 74
0
 40
0
 40
0
 40
0
 40
0
 40
1
 40
1
 40
1
 40
1
 10
311.920000
 20
80.880000
 30
0.0
 10
314.400000
 20
79.680000
 30
0.0
 10
316.560000
 20
77.680000
 30
0.0
 10
318.320000
 20
74.800000
 30
0.0
  0
SPLINE
  5
25b
100
AcDbEntity
  8
0
 62
7
100
AcDbSpline
 70
8
 71
3
 72
8
 73
4
 74
0
 40
0
 40
0
 40
0
 40
0
 40
1
 40
1
 40
1
 40
1
 10
318.320000
 20
74.800000
 30
0.0
 10
320.080000
 20
71.920000
 30
0.0
 10
320.960000
 20
67.520000
 30
0.0
 10
320.960000
 20
61.600000
 30
0.0
  0
LINE
  5
25c
100
AcDbEntity
  8
0
 62
7
100
AcDbLine
 10
320.960000
 20
61.600000
 30
0.0
 11
320.960000
 21
61.600000
 31
0.0
  0
SPLINE
  5
25d
100
AcDbEntity
  8
0
 62
7
100
AcDbSpline
 70
8
 71
3
 72
8
 73
4
 74
0
 40
0
 40
0
 40
0
 40
0
 40
1
 40
1
 40
1
 40
1
 10
314.480000
 20
66.800000
 30
0.0
 10
314.240000
 20
70.640000
 30
0.0
 10
313.040000
 20
73.360000
 30
0.0
 10
310.960000
 20
75.040000
 30
0.0
  0
SPLINE
  5
25e
100
AcDbEntity
  8
0
 62
7
100
AcDbSpline
 70
8
 71
3
 72
8
 73
4
 74
0
 40
0
 40
0
 40
0
 40
0
 40
1
 40
1
 40
1
 40
1
 10
310.960000
 20
75.040000
 30
0.0
 10
308.800000
 20
76.720000
 30
0.0
 10
306.560000
 20
77.520000
 30
0.0
 10
304.080000
 20
77.520000
 30
0.0
  0
SPLINE
  5
25f
100
AcDbEntity
  8
0
 62
7
100
AcDbSpline
 70
8
 71
3
 72
8
 73
4
 74
0
 40
0
 40
0
 40
0
 40
0
 40
1
 40
1
 40
1
 40
1
 10
304.080000
 20
77.520000
 30
0.0
 10
301.040000
 20
77.520000
 30
0.0
 10
298.640000
 20
76.560000
 30
0.0
 10
296.720000
 20
74.560000
 30
0.0
  0
SPLINE
  5
260
100
AcDbEntity
  8
0
 62
7
100
AcDbSpline
 70
8
 71
3
 72
8
 73
4
 74
0
 40
0
 40
0
 40
0
 40
0
 40
1
 40
1
 40
1
 40
1
 10
296.720000
 20
74.560000
 30
0.0
 10
294.800000
 20
72.560000
 30
0.0
 10
293.680000
 20
70.000000
 30
0.0
 10
293.360000
 20
66.800000
 30
0.0
  0
LINE
  5
261
100
AcDbEntity
  8
0
 62
7
100
AcDbLine
 10
293.360000
 20
66.800000
 30
0.0
 11
314.480000
 21
66.800000
 31
0.0
  0
LINE
  5
262
100
AcDbEntity
  8
0
 62
7
100
AcDbLine
 10
314.480000
 20
66.800000
 30
0.0
 11
314.480000
 21
66.800000
 31
0.0
  0
LINE
  5
263
100
AcDbEntity
  8
0
 62
7
100
AcDbLine
 10
337.360000
 20
44.560000
 30
0.0
 11
330.160000
 21
44.560000
 31
0.0
  0
LINE
  5
264
100
AcDbEntity
  8
0
 62
7
100
AcDbLine
 10
330.160000
 20
44.560000
 30
0.0
 11
330.160000
 21
51.760000
 31
0.0
  0
LINE
  5
265
100
AcDbEntity
  8
0
 62
7
100
AcDbLine
 10
330.160000
 20
51.760000
 30
0.0
 11
337.360000
 21
51.760000
 31
0.0
  0
LINE
  5
266
100
AcDbEntity
  8
0
 62
7
100
AcDbLine
 10
337.360000
 20
51.760000
 30
0.0
 11
337.360000
 21
44.560000
 31
0.0
  0
LINE
  5
267
100
AcDbEntity
  8
0
 62
7
100
AcDbLine
 10
337.360000
 20
44.560000
 30
0.0
 11
337.360000
 21
44.560000
 31
0.0
  0
LINE
  5
268
100
AcDbEntity
  8
0
 62
7
100
AcDbLine
 10
366.160000
 20
96.320000
 30
0.0
 11
365.200000
 21
90.800000
 31
0.0
  0
SPLINE
  5
269
100
AcDbEntity
  8
0
 62
7
100
AcDbSpline
 70
8
 71
3
 72
8
 73
4
 74
0
 40
0
 40
0
 40
0
 40
0
 40
1
 40
1
 40
1
 40
1
 10
365.200000
 20
90.800000
 30
0.0
 10
363.920000
 20
91.040000
 30
0.0
 10
362.720000
 20
91.120000
 30
0.0
 10
361.520000
 20
91.120000
 30
0.0
  0
SPLINE
  5
26a
100
AcDbEntity
  8
0
 62
7
100
AcDbSpline
 70
8
 71
3
 72
8
 73
4
 74
0
 40
0
 40
0
 40
0
 40
0
 40
1
 40
1
 40
1
 40
1
 10
361.520000
 20
91.120000
 30
0.0
 10
360.000000
 20
91.120000
 30
0.0
 10
358.720000
 20
90.800000
 30
0.0
 10
357.760000
 20
90.160000
 30
0.0
  0
SPLINE
  5
26b
100
AcDbEntity
  8
0
 62
7
100
AcDbSpline
 70
8
 71
3
 72
8
 73
4
 74
0
 40
0
 40
0
 40
0
 40
0
 40
1
 40
1
 40
1
 40
1
 10
357.760000
 20
90.160000
 30
0.0
 10
356.800000
 20
89.520000
 30
0.0
 10
356.320000
 20
87.920000
 30
0.0
 10
356.320000
 20
85.360000
 30
0.0
  0
LINE
  5
26c
100
AcDbEntity
  8
0
 62
7
100
AcDbLine
 10
356.320000
 20
85.360000
 30
0.0
 11
356.320000
 21
81.840000
 31
0.0
  0
LINE
  5
26d
100
AcDbEntity
  8
0
 62
7
100
AcDbLine
 10
356.320000
 20
81.840000
 30
0.0
 11
363.520000
 21
81.840000
 31
0.0
  0
LINE
  5
26e
100
AcDbEntity
  8
0
 62
7
100
AcDbLine
 10
363.520000
 20
81.840000
 30
0.0
 11
363.520000
 21
76.960000
 31
0.0
  0
LINE
  5
26f
100
AcDbEntity
  8
0
 62
7
100
AcDbLine
 10
363.520000
 20
76.960000
 30
0.0
 11
356.320000
 21
76.960000
 31
0.0
  0
LINE
  5
270
100
AcDbEntity
  8
0
 62
7
100
AcDbLine
 10
356.320000
 20
76.960000
 30
0.0
 11
356.320000
 21
44.560000
 31
0.0
  0
LINE
  5
271
100
AcDbEntity
  8
0
 62
7
100
AcDbLine
 10
356.320000
 20
44.560000
 30
0.0
 11
350.000000
 21
44.560000
 31
0.0
  0
LINE
  5
272
100
AcDbEntity
  8
0
 62
7
100
AcDbLine
 10
350.000000
 20
44.560000
 30
0.0
 11
350.000000
 21
76.960000
 31
0.0
  0
LINE
  5
273
100
AcDbEntity
  8
0
 62
7
100
AcDbLine
 10
350.000000
 20
76.960000
 30
0.0
 11
344.320000
 21
76.960000
 31
0.0
  0
LINE
  5
274
100
AcDbEntity
  8
0
 62
7
100
AcDbLine
 10
344.320000
 20
76.960000
 30
0.0
 11
344.320000
 21
81.840000
 31
0.0
  0
LINE
  5
275
100
AcDbEntity
  8
0
 62
7
100
AcDbLine
 10
344.320000
 20
81.840000
 30
0.0
 11
350.000000
 21
81.840000
 31
0.0
  0
LINE
  5
276
100
AcDbEntity
  8
0
 62
7
100
AcDbLine
 10
350.000000
 20
81.840000
 30
0.0
 11
350.000000
 21
85.920000
 31
0.0
  0
SPLINE
  5
277
100
AcDbEntity
  8
0
 62
7
100
AcDbSpline
 70
8
 71
3
 72
8
 73
4
 74
0
 40
0
 40
0
 40
0
 40
0
 40
1
 40
1
 40
1
 40
1
 10
350.000000
 20
85.920000
 30
0.0
 10
350.000000
 20
87.760000
 30
0.0
 10
350.160000
 20
89.440000
 30
0.0
 10
350.480000
 20
91.040000
 30
0.0
  0
SPLINE
  5
278
100
AcDbEntity
  8
0
 62
7
100
AcDbSpline
 70
8
 71
3
 72
8
 73
4
 74
0
 40
0
 40
0
 40
0
 40
0
 40
1
 40
1
 40
1
 40
1
 10
350.480000
 20
91.040000
 30
0.0
 10
350.880000
 20
92.560000
 30
0.0
 10
351.760000
 20
93.920000
 30
0.0
 10
353.280000
 20
95.120000
 30
0.0
  0
SPLINE
  5
279
100
AcDbEntity
  8
0
 62
7
100
AcDbSpline
 70
8
 71
3
 72
8
 73
4
 74
0
 40
0
 40
0
 40
0
 40
0
 40
1
 40
1
 40
1
 40
1
 10
353.280000
 20
95.120000
 30
0.0
 10
354.800000
 20
96.400000
 30
0.0
 10
357.120000
 20
96.960000
 30
0.0
 10
360.240000
 20
96.960000
 30
0.0
  0
SPLINE
  5
27a
100
AcDbEntity
  8
0
 62
7
100
AcDbSpline
 70
8
 71
3
 72
8
 73
4
 74
0
 40
0
 40
0
 40
0
 40
0
 40
1
 40
1
 40
1
 40
1
 10
360.240000
 20
96.960000
 30
0.0
 10
362.160000
 20
96.960000
 30
0.0
 10
364.080000
 20
96.800000
 30
0.0
 10
366.160000
 20
96.320000
 30
0.0
  0
LINE
  5
27b
100
AcDbEntity
  8
0
 62
7
100
AcDbLine
 10
366.160000
 20
96.320000
 30
0.0
 11
366.160000
 21
96.320000
 31
0.0
  0
LINE
  5
27c
100
AcDbEntity
  8
0
 62
7
100
AcDbLine
 10
388.720000
 20
80.720000
 30
0.0
 11
386.560000
 21
74.880000
 31
0.0
  0
SPLINE
  5
27d
100
AcDbEntity
  8
0
 62
7
100
AcDbSpline
 70
8
 71
3
 72
8
 73
4
 74
0
 40
0
 40
0
 40
0
 40
0
 40
1
 40
1
 40
1
 40
1
 10
386.560000
 20
74.880000
 30
0.0
 10
384.960000
 20
75.760000
 30
0.0
 10
383.440000
 20
76.240000
 30
0.0
 10
381.920000
 20
76.240000
 30
0.0
  0
SPLINE
  5
27e
100
AcDbEntity
  8
0
 62
7
100
AcDbSpline
 70
8
 71
3
 72
8
 73
4
 74
0
 40
0
 40
0
 40
0
 40
0
 40
1
 40
1
 40
1
 40
1
 10
381.920000
 20
76.240000
 30
0.0
 10
379.520000
 20
76.240000
 30
0.0
 10
377.760000
 20
75.200000
 30
0.0
 10
376.560000
 20
73.040000
 30
0.0
  0
SPLINE
  5
27f
100
AcDbEntity
  8
0
 62
7
100
AcDbSpline
 70
8
 71
3
 72
8
 73
4
 74
0
 40
0
 40
0
 40
0
 40
0
 40
1
 40
1
 40
1
 40
1
 10
376.560000
 20
73.040000
 30
0.0
 10
375.360000
 20
70.960000
 30
0.0
 10
374.720000
 20
68.000000
 30
0.0
 10
374.720000
 20
64.160000
 30
0.0
  0
LINE
  5
280
100
AcDbEntity
  8
0
 62
7
100
AcDbLine
 10
374.720000
 20
64.160000
 30
0.0
 11
374.720000
 21
44.560000
 31
0.0
  0
LINE
  5
281
100
AcDbEntity
  8
0
 62
7
100
AcDbLine
 10
374.720000
 20
44.560000
 30
0.0
 11
368.400000
 21
44.560000
 31
0.0
  0
LINE
  5
282
100
AcDbEntity
  8
0
 62
7
100
AcDbLine
 10
368.400000
 20
44.560000
 30
0.0
 11
368.400000
 21
81.840000
 31
0.0
  0
LINE
  5
283
100
AcDbEntity
  8
0
 62
7
100
AcDbLine
 10
368.400000
 20
81.840000
 30
0.0
 11
374.160000
 21
81.840000
 31
0.0
  0
LINE
  5
284
100
AcDbEntity
  8
0
 62
7
100
AcDbLine
 10
374.160000
 20
81.840000
 30
0.0
 11
374.160000
 21
76.240000
 31
0.0
  0
LINE
  5
285
100
AcDbEntity
  8
0
 62
7
100
AcDbLine
 10
374.160000
 20
76.240000
 30
0.0
 11
374.320000
 21
76.240000
 31
0.0
  0
SPLINE
  5
286
100
AcDbEntity
  8
0
 62
7
100
AcDbSpline
 70
8
 71
3
 72
8
 73
4
 74
0
 40
0
 40
0
 40
0
 40
0
 40
1
 40
1
 40
1
 40
1
 10
374.320000
 20
76.240000
 30
0.0
 10
376.320000
 20
80.560000
 30
0.0
 10
378.960000
 20
82.720000
 30
0.0
 10
382.240000
 20
82.720000
 30
0.0
  0
SPLINE
  5
287
100
AcDbEntity
  8
0
 62
7
100
AcDbSpline
 70
8
 71
3
 72
8
 73
4
 74
0
 40
0
 40
0
 40
0
 40
0
 40
1
 40
1
 40
1
 40
1
 10
382.240000
 20
82.720000
 30
0.0
 10
384.400000
 20
82.720000
 30
0.0
 10
386.560000
 20
82.000000
 30
0.0
 10
388.720000
 20
80.720000
 30
0.0
  0
LINE
  5
288
100
AcDbEntity
  8
0
 62
7
100
AcDbLine
 10
388.720000
 20
80.720000
 30
0.0
 11
388.720000
 21
80.720000
 31
0.0
  0
ENDSEC
  0
SECTION
  2
OBJECTS
  0
DICTIONARY
  5
C
330
0
100
AcDbDictionary
  3
ACAD_GROUP
350
D
  3
ACAD_MLINESTYLE
350
17
  0
DICTIONARY
  5
D
330
C
100
AcDbDictionary
  0
DICTIONARY
  5
1A
330
C
100
AcDbDictionary
  0
DICTIONARY
  5
17
330
C
100
AcDbDictionary
  3
STANDARD
350
18
  0
DICTIONARY
  5
19
330
C
100
AcDbDictionary
  0
ENDSEC
  0
EOF
