  0
SECTION
  2
HEADER
  9
$ACADVER
  1
AC1014
  9
$HANDSEED
  5
FFFF
  9
$MEASUREMENT
 70
     1
  0
ENDSEC
  0
SECTION
  2
TABLES
  0
TABLE
  2
VPORT
  5
8
330
0
100
AcDbSymbolTable
 70
     4
  0
VPORT
  5
2E
330
8
100
AcDbSymbolTableRecord
100
AcDbViewportTableRecord
  2
*ACTIVE
 70
     0
 10
0.0
 20
0.0
 11
1.0
 21
1.0
 12
210.0
 22
148.5
 13
0.0
 23
0.0
 14
10.0
 24
10.0
 15
10.0
 25
10.0
 16
0.0
 26
0.0
 36
1.0
 17
0.0
 27
0.0
 37
0.0
 40
341.0
 41
1.24
 42
50.0
 43
0.0
 44
0.0
 50
0.0
 51
0.0
 71
     0
 72
   100
 73
     1
 74
     3
 75
     0
 76
     0
 77
     0
 78
     0
  0
ENDTAB
  0
TABLE
  2
LTYPE
  5
5
330
0
100
AcDbSymbolTable
 70
     1
  0
LTYPE
  5
14
330
5
100
AcDbSymbolTableRecord
100
AcDbLinetypeTableRecord
  2
BYBLOCK
 70
     0
  3

 72
    65
 73
     0
 40
0.0
  0
LTYPE
  5
15
330
5
100
AcDbSymbolTableRecord
100
AcDbLinetypeTableRecord
  2
BYLAYER
 70
     0
  3

 72
    65
 73
     0
 40
0.0
  0
LTYPE
  5
16
330
5
100
AcDbSymbolTableRecord
100
AcDbLinetypeTableRecord
  2
CONTINUOUS
 70
     0
  3
Solid line
 72
    65
 73
     0
 40
0.0
  0
ENDTAB
  0
TABLE
  2
LAYER
  5
2
100
AcDbSymbolTable
 70
1
  0
LAYER
  5
50
100
AcDbSymbolTableRecord
100
AcDbLayerTableRecord
  2
0
 70
0
  6
CONTINUOUS
  0
ENDTAB
  0
TABLE
  2
STYLE
  5
3
330
0
100
AcDbSymbolTable
 70
     1
  0
STYLE
  5
11
330
3
100
AcDbSymbolTableRecord
100
AcDbTextStyleTableRecord
  2
STANDARD
 70
     0
 40
0.0
 41
1.0
 50
0.0
 71
     0
 42
2.5
  3
txt
  4

  0
ENDTAB
  0
TABLE
  2
VIEW
  5
6
330
0
100
AcDbSymbolTable
 70
     0
  0
ENDTAB
  0
TABLE
  2
UCS
  5
7
330
0
100
AcDbSymbolTable
 70
     0
  0
ENDTAB
  0
TABLE
  2
APPID
  5
9
330
0
100
AcDbSymbolTable
 70
     2
  0
APPID
  5
12
330
9
100
AcDbSymbolTableRecord
100
AcDbRegAppTableRecord
  2
ACAD
 70
     0
  0
ENDTAB
  0
TABLE
  2
DIMSTYLE
  5
A
330
0
100
AcDbSymbolTable
 70
     1
  0
DIMSTYLE
105
27
330
A
100
AcDbSymbolTableRecord
100
AcDbDimStyleTableRecord
  2
ISO-25
 70
     0
  3

  4

  5

  6

  7

 40
1.0
 41
2.5
 42
0.625
 43
3.75
 44
1.25
 45
0.0
 46
0.0
 47
0.0
 48
0.0
140
2.5
141
2.5
142
0.0
143
0.03937007874016
144
1.0
145
0.0
146
1.0
147
0.625
 71
     0
 72
     0
 73
     0
 74
     0
 75
     0
 76
     0
 77
     1
 78
     8
170
     0
171
     3
172
     1
173
     0
174
     0
175
     0
176
     0
177
     0
178
     0
270
     2
271
     2
272
     2
273
     2
274
     3
340
11
275
     0
280
     0
281
     0
282
     0
283
     0
284
     8
285
     0
286
     0
287
     3
288
     0
  0
ENDTAB
  0
TABLE
  2
BLOCK_RECORD
  5
1
330
0
100
AcDbSymbolTable
 70
     1
  0
BLOCK_RECORD
  5
1F
330
1
100
AcDbSymbolTableRecord
100
AcDbBlockTableRecord
  2
*MODEL_SPACE
  0
BLOCK_RECORD
  5
1B
330
1
100
AcDbSymbolTableRecord
100
AcDbBlockTableRecord
  2
*PAPER_SPACE
  0
ENDTAB
  0
ENDSEC
  0
SECTION
  2
BLOCKS
  0
BLOCK
  5
20
330
1F
100
AcDbEntity
  8
0
100
AcDbBlockBegin
  2
*MODEL_SPACE
 70
     0
 10
0.0
 20
0.0
 30
0.0
  3
*MODEL_SPACE
  1

  0
ENDBLK
  5
21
330
1F
100
AcDbEntity
  8
0
100
AcDbBlockEnd
  0
BLOCK
  5
1C
330
1B
100
AcDbEntity
 67
     1
  8
0
100
AcDbBlockBegin
  2
*PAPER_SPACE
  1

  0
ENDBLK
  5
1D
330
1B
100
AcDbEntity
 67
     1
  8
0
100
AcDbBlockEnd
  0
ENDSEC
  0
SECTION
  2
ENTITIES
  0
SPLINE
  5
100
100
AcDbEntity
  8
0
 62
7
100
AcDbSpline
 70
8
 71
3
 72
8
 73
4
 74
0
 40
0
 40
0
 40
0
 40
0
 40
1
 40
1
 40
1
 40
1
 10
211.120000
 20
158.800000
 30
0.0
 10
210.160000
 20
159.280000
 30
0.0
 10
207.680000
 20
160.160000
 30
0.0
 10
205.600000
 20
160.640000
 30
0.0
  0
SPLINE
  5
101
100
AcDbEntity
  8
0
 62
7
100
AcDbSpline
 70
8
 71
3
 72
8
 73
4
 74
0
 40
0
 40
0
 40
0
 40
0
 40
1
 40
1
 40
1
 40
1
 10
205.600000
 20
160.640000
 30
0.0
 10
195.200000
 20
163.040000
 30
0.0
 10
175.040000
 20
171.040000
 30
0.0
 10
172.240000
 20
173.920000
 30
0.0
  0
SPLINE
  5
102
100
AcDbEntity
  8
0
 62
7
100
AcDbSpline
 70
8
 71
3
 72
8
 73
4
 74
0
 40
0
 40
0
 40
0
 40
0
 40
1
 40
1
 40
1
 40
1
 10
172.240000
 20
173.920000
 30
0.0
 10
170.000000
 20
176.080000
 30
0.0
 10
170.400000
 20
179.760000
 30
0.0
 10
173.360000
 20
184.800000
 30
0.0
  0
SPLINE
  5
103
100
AcDbEntity
  8
0
 62
7
100
AcDbSpline
 70
8
 71
3
 72
8
 73
4
 74
0
 40
0
 40
0
 40
0
 40
0
 40
1
 40
1
 40
1
 40
1
 10
173.360000
 20
184.800000
 30
0.0
 10
178.320000
 20
193.120000
 30
0.0
 10
181.280000
 20
196.320000
 30
0.0
 10
189.040000
 20
201.280000
 30
0.0
  0
SPLINE
  5
104
100
AcDbEntity
  8
0
 62
7
100
AcDbSpline
 70
8
 71
3
 72
8
 73
4
 74
0
 40
0
 40
0
 40
0
 40
0
 40
1
 40
1
 40
1
 40
1
 10
189.040000
 20
201.280000
 30
0.0
 10
191.360000
 20
202.800000
 30
0.0
 10
194.480000
 20
204.960000
 30
0.0
 10
195.920000
 20
206.080000
 30
0.0
  0
SPLINE
  5
105
100
AcDbEntity
  8
0
 62
7
100
AcDbSpline
 70
8
 71
3
 72
8
 73
4
 74
0
 40
0
 40
0
 40
0
 40
0
 40
1
 40
1
 40
1
 40
1
 10
195.920000
 20
206.080000
 30
0.0
 10
203.760000
 20
212.160000
 30
0.0
 10
207.760000
 20
214.800000
 30
0.0
 10
211.600000
 20
216.560000
 30
0.0
  0
SPLINE
  5
106
100
AcDbEntity
  8
0
 62
7
100
AcDbSpline
 70
8
 71
3
 72
8
 73
4
 74
0
 40
0
 40
0
 40
0
 40
0
 40
1
 40
1
 40
1
 40
1
 10
211.600000
 20
216.560000
 30
0.0
 10
216.960000
 20
218.960000
 30
0.0
 10
218.880000
 20
220.400000
 30
0.0
 10
221.680000
 20
224.080000
 30
0.0
  0
SPLINE
  5
107
100
AcDbEntity
  8
0
 62
7
100
AcDbSpline
 70
8
 71
3
 72
8
 73
4
 74
0
 40
0
 40
0
 40
0
 40
0
 40
1
 40
1
 40
1
 40
1
 10
221.680000
 20
224.080000
 30
0.0
 10
226.240000
 20
230.000000
 30
0.0
 10
229.840000
 20
233.600000
 30
0.0
 10
233.600000
 20
235.680000
 30
0.0
  0
SPLINE
  5
108
100
AcDbEntity
  8
0
 62
7
100
AcDbSpline
 70
8
 71
3
 72
8
 73
4
 74
0
 40
0
 40
0
 40
0
 40
0
 40
1
 40
1
 40
1
 40
1
 10
233.600000
 20
235.680000
 30
0.0
 10
236.320000
 20
237.200000
 30
0.0
 10
237.440000
 20
238.320000
 30
0.0
 10
237.280000
 20
239.280000
 30
0.0
  0
SPLINE
  5
109
100
AcDbEntity
  8
0
 62
7
100
AcDbSpline
 70
8
 71
3
 72
8
 73
4
 74
0
 40
0
 40
0
 40
0
 40
0
 40
1
 40
1
 40
1
 40
1
 10
237.280000
 20
239.280000
 30
0.0
 10
235.920000
 20
248.960000
 30
0.0
 10
235.920000
 20
249.120000
 30
0.0
 10
237.680000
 20
251.120000
 30
0.0
  0
SPLINE
  5
10a
100
AcDbEntity
  8
0
 62
7
100
AcDbSpline
 70
8
 71
3
 72
8
 73
4
 74
0
 40
0
 40
0
 40
0
 40
0
 40
1
 40
1
 40
1
 40
1
 10
237.680000
 20
251.120000
 30
0.0
 10
238.640000
 20
252.160000
 30
0.0
 10
239.920000
 20
254.240000
 30
0.0
 10
240.480000
 20
255.760000
 30
0.0
  0
SPLINE
  5
10b
100
AcDbEntity
  8
0
 62
7
100
AcDbSpline
 70
8
 71
3
 72
8
 73
4
 74
0
 40
0
 40
0
 40
0
 40
0
 40
1
 40
1
 40
1
 40
1
 10
240.480000
 20
255.760000
 30
0.0
 10
241.520000
 20
258.080000
 30
0.0
 10
241.440000
 20
258.960000
 30
0.0
 10
240.080000
 20
262.640000
 30
0.0
  0
SPLINE
  5
10c
100
AcDbEntity
  8
0
 62
7
100
AcDbSpline
 70
8
 71
3
 72
8
 73
4
 74
0
 40
0
 40
0
 40
0
 40
0
 40
1
 40
1
 40
1
 40
1
 10
240.080000
 20
262.640000
 30
0.0
 10
237.360000
 20
269.920000
 30
0.0
 10
237.120000
 20
271.680000
 30
0.0
 10
238.080000
 20
276.560000
 30
0.0
  0
SPLINE
  5
10d
100
AcDbEntity
  8
0
 62
7
100
AcDbSpline
 70
8
 71
3
 72
8
 73
4
 74
0
 40
0
 40
0
 40
0
 40
0
 40
1
 40
1
 40
1
 40
1
 10
238.080000
 20
276.560000
 30
0.0
 10
238.960000
 20
281.120000
 30
0.0
 10
238.960000
 20
281.520000
 30
0.0
 10
236.400000
 20
286.720000
 30
0.0
  0
SPLINE
  5
10e
100
AcDbEntity
  8
0
 62
7
100
AcDbSpline
 70
8
 71
3
 72
8
 73
4
 74
0
 40
0
 40
0
 40
0
 40
0
 40
1
 40
1
 40
1
 40
1
 10
236.400000
 20
286.720000
 30
0.0
 10
233.440000
 20
292.960000
 30
0.0
 10
232.800000
 20
294.800000
 30
0.0
 10
229.440000
 20
306.320000
 30
0.0
  0
SPLINE
  5
10f
100
AcDbEntity
  8
0
 62
7
100
AcDbSpline
 70
8
 71
3
 72
8
 73
4
 74
0
 40
0
 40
0
 40
0
 40
0
 40
1
 40
1
 40
1
 40
1
 10
229.440000
 20
306.320000
 30
0.0
 10
227.440000
 20
313.200000
 30
0.0
 10
222.960000
 20
321.920000
 30
0.0
 10
212.160000
 20
340.000000
 30
0.0
  0
SPLINE
  5
110
100
AcDbEntity
  8
0
 62
7
100
AcDbSpline
 70
8
 71
3
 72
8
 73
4
 74
0
 40
0
 40
0
 40
0
 40
0
 40
1
 40
1
 40
1
 40
1
 10
212.160000
 20
340.000000
 30
0.0
 10
209.520000
 20
344.320000
 30
0.0
 10
206.400000
 20
350.240000
 30
0.0
 10
205.200000
 20
353.040000
 30
0.0
  0
SPLINE
  5
111
100
AcDbEntity
  8
0
 62
7
100
AcDbSpline
 70
8
 71
3
 72
8
 73
4
 74
0
 40
0
 40
0
 40
0
 40
0
 40
1
 40
1
 40
1
 40
1
 10
205.200000
 20
353.040000
 30
0.0
 10
201.760000
 20
360.720000
 30
0.0
 10
196.880000
 20
370.240000
 30
0.0
 10
195.760000
 20
371.520000
 30
0.0
  0
SPLINE
  5
112
100
AcDbEntity
  8
0
 62
7
100
AcDbSpline
 70
8
 71
3
 72
8
 73
4
 74
0
 40
0
 40
0
 40
0
 40
0
 40
1
 40
1
 40
1
 40
1
 10
195.760000
 20
371.520000
 30
0.0
 10
193.280000
 20
374.160000
 30
0.0
 10
186.880000
 20
385.440000
 30
0.0
 10
184.560000
 20
391.360000
 30
0.0
  0
SPLINE
  5
113
100
AcDbEntity
  8
0
 62
7
100
AcDbSpline
 70
8
 71
3
 72
8
 73
4
 74
0
 40
0
 40
0
 40
0
 40
0
 40
1
 40
1
 40
1
 40
1
 10
184.560000
 20
391.360000
 30
0.0
 10
178.080000
 20
407.600000
 30
0.0
 10
176.560000
 20
418.960000
 30
0.0
 10
179.760000
 20
425.120000
 30
0.0
  0
SPLINE
  5
114
100
AcDbEntity
  8
0
 62
7
100
AcDbSpline
 70
8
 71
3
 72
8
 73
4
 74
0
 40
0
 40
0
 40
0
 40
0
 40
1
 40
1
 40
1
 40
1
 10
179.760000
 20
425.120000
 30
0.0
 10
182.320000
 20
429.840000
 30
0.0
 10
187.360000
 20
434.000000
 30
0.0
 10
192.400000
 20
435.600000
 30
0.0
  0
SPLINE
  5
115
100
AcDbEntity
  8
0
 62
7
100
AcDbSpline
 70
8
 71
3
 72
8
 73
4
 74
0
 40
0
 40
0
 40
0
 40
0
 40
1
 40
1
 40
1
 40
1
 10
192.400000
 20
435.600000
 30
0.0
 10
200.000000
 20
437.840000
 30
0.0
 10
202.560000
 20
438.960000
 30
0.0
 10
205.440000
 20
441.280000
 30
0.0
  0
SPLINE
  5
116
100
AcDbEntity
  8
0
 62
7
100
AcDbSpline
 70
8
 71
3
 72
8
 73
4
 74
0
 40
0
 40
0
 40
0
 40
0
 40
1
 40
1
 40
1
 40
1
 10
205.440000
 20
441.280000
 30
0.0
 10
208.400000
 20
443.600000
 30
0.0
 10
214.160000
 20
450.320000
 30
0.0
 10
216.960000
 20
454.720000
 30
0.0
  0
SPLINE
  5
117
100
AcDbEntity
  8
0
 62
7
100
AcDbSpline
 70
8
 71
3
 72
8
 73
4
 74
0
 40
0
 40
0
 40
0
 40
0
 40
1
 40
1
 40
1
 40
1
 10
216.960000
 20
454.720000
 30
0.0
 10
218.320000
 20
456.880000
 30
0.0
 10
222.480000
 20
462.000000
 30
0.0
 10
225.040000
 20
464.560000
 30
0.0
  0
SPLINE
  5
118
100
AcDbEntity
  8
0
 62
7
100
AcDbSpline
 70
8
 71
3
 72
8
 73
4
 74
0
 40
0
 40
0
 40
0
 40
0
 40
1
 40
1
 40
1
 40
1
 10
225.040000
 20
464.560000
 30
0.0
 10
225.440000
 20
465.040000
 30
0.0
 10
227.200000
 20
467.120000
 30
0.0
 10
228.960000
 20
469.280000
 30
0.0
  0
SPLINE
  5
119
100
AcDbEntity
  8
0
 62
7
100
AcDbSpline
 70
8
 71
3
 72
8
 73
4
 74
0
 40
0
 40
0
 40
0
 40
0
 40
1
 40
1
 40
1
 40
1
 10
228.960000
 20
469.280000
 30
0.0
 10
234.560000
 20
476.000000
 30
0.0
 10
248.080000
 20
486.880000
 30
0.0
 10
262.400000
 20
496.080000
 30
0.0
  0
SPLINE
  5
11a
100
AcDbEntity
  8
0
 62
7
100
AcDbSpline
 70
8
 71
3
 72
8
 73
4
 74
0
 40
0
 40
0
 40
0
 40
0
 40
1
 40
1
 40
1
 40
1
 10
262.400000
 20
496.080000
 30
0.0
 10
267.600000
 20
499.440000
 30
0.0
 10
268.800000
 20
500.560000
 30
0.0
 10
269.920000
 20
503.600000
 30
0.0
  0
SPLINE
  5
11b
100
AcDbEntity
  8
0
 62
7
100
AcDbSpline
 70
8
 71
3
 72
8
 73
4
 74
0
 40
0
 40
0
 40
0
 40
0
 40
1
 40
1
 40
1
 40
1
 10
269.920000
 20
503.600000
 30
0.0
 10
270.880000
 20
505.920000
 30
0.0
 10
271.120000
 20
508.240000
 30
0.0
 10
270.800000
 20
510.320000
 30
0.0
  0
SPLINE
  5
11c
100
AcDbEntity
  8
0
 62
7
100
AcDbSpline
 70
8
 71
3
 72
8
 73
4
 74
0
 40
0
 40
0
 40
0
 40
0
 40
1
 40
1
 40
1
 40
1
 10
270.800000
 20
510.320000
 30
0.0
 10
270.480000
 20
512.320000
 30
0.0
 10
270.800000
 20
515.040000
 30
0.0
 10
271.680000
 20
517.760000
 30
0.0
  0
SPLINE
  5
11d
100
AcDbEntity
  8
0
 62
7
100
AcDbSpline
 70
8
 71
3
 72
8
 73
4
 74
0
 40
0
 40
0
 40
0
 40
0
 40
1
 40
1
 40
1
 40
1
 10
271.680000
 20
517.760000
 30
0.0
 10
273.200000
 20
522.320000
 30
0.0
 10
273.360000
 20
520.640000
 30
0.0
 10
269.360000
 20
541.680000
 30
0.0
  0
SPLINE
  5
11e
100
AcDbEntity
  8
0
 62
7
100
AcDbSpline
 70
8
 71
3
 72
8
 73
4
 74
0
 40
0
 40
0
 40
0
 40
0
 40
1
 40
1
 40
1
 40
1
 10
269.360000
 20
541.680000
 30
0.0
 10
268.400000
 20
546.640000
 30
0.0
 10
267.280000
 20
554.320000
 30
0.0
 10
266.880000
 20
558.640000
 30
0.0
  0
SPLINE
  5
11f
100
AcDbEntity
  8
0
 62
7
100
AcDbSpline
 70
8
 71
3
 72
8
 73
4
 74
0
 40
0
 40
0
 40
0
 40
0
 40
1
 40
1
 40
1
 40
1
 10
266.880000
 20
558.640000
 30
0.0
 10
266.320000
 20
563.680000
 30
0.0
 10
265.600000
 20
567.120000
 30
0.0
 10
264.720000
 20
568.320000
 30
0.0
  0
SPLINE
  5
120
100
AcDbEntity
  8
0
 62
7
100
AcDbSpline
 70
8
 71
3
 72
8
 73
4
 74
0
 40
0
 40
0
 40
0
 40
0
 40
1
 40
1
 40
1
 40
1
 10
264.720000
 20
568.320000
 30
0.0
 10
263.280000
 20
570.160000
 30
0.0
 10
257.360000
 20
572.800000
 30
0.0
 10
254.640000
 20
572.800000
 30
0.0
  0
SPLINE
  5
121
100
AcDbEntity
  8
0
 62
7
100
AcDbSpline
 70
8
 71
3
 72
8
 73
4
 74
0
 40
0
 40
0
 40
0
 40
0
 40
1
 40
1
 40
1
 40
1
 10
254.640000
 20
572.800000
 30
0.0
 10
253.760000
 20
572.800000
 30
0.0
 10
249.920000
 20
574.080000
 30
0.0
 10
246.080000
 20
575.680000
 30
0.0
  0
SPLINE
  5
122
100
AcDbEntity
  8
0
 62
7
100
AcDbSpline
 70
8
 71
3
 72
8
 73
4
 74
0
 40
0
 40
0
 40
0
 40
0
 40
1
 40
1
 40
1
 40
1
 10
246.080000
 20
575.680000
 30
0.0
 10
239.120000
 20
578.480000
 30
0.0
 10
232.000000
 20
583.680000
 30
0.0
 10
232.000000
 20
585.840000
 30
0.0
  0
SPLINE
  5
123
100
AcDbEntity
  8
0
 62
7
100
AcDbSpline
 70
8
 71
3
 72
8
 73
4
 74
0
 40
0
 40
0
 40
0
 40
0
 40
1
 40
1
 40
1
 40
1
 10
232.000000
 20
585.840000
 30
0.0
 10
232.000000
 20
587.200000
 30
0.0
 10
226.640000
 20
594.320000
 30
0.0
 10
224.080000
 20
596.400000
 30
0.0
  0
SPLINE
  5
124
100
AcDbEntity
  8
0
 62
7
100
AcDbSpline
 70
8
 71
3
 72
8
 73
4
 74
0
 40
0
 40
0
 40
0
 40
0
 40
1
 40
1
 40
1
 40
1
 10
224.080000
 20
596.400000
 30
0.0
 10
223.040000
 20
597.200000
 30
0.0
 10
220.880000
 20
598.640000
 30
0.0
 10
219.200000
 20
599.600000
 30
0.0
  0
SPLINE
  5
125
100
AcDbEntity
  8
0
 62
7
100
AcDbSpline
 70
8
 71
3
 72
8
 73
4
 74
0
 40
0
 40
0
 40
0
 40
0
 40
1
 40
1
 40
1
 40
1
 10
219.200000
 20
599.600000
 30
0.0
 10
217.600000
 20
600.560000
 30
0.0
 10
214.720000
 20
602.480000
 30
0.0
 10
212.880000
 20
603.760000
 30
0.0
  0
SPLINE
  5
126
100
AcDbEntity
  8
0
 62
7
100
AcDbSpline
 70
8
 71
3
 72
8
 73
4
 74
0
 40
0
 40
0
 40
0
 40
0
 40
1
 40
1
 40
1
 40
1
 10
212.880000
 20
603.760000
 30
0.0
 10
207.040000
 20
608.000000
 30
0.0
 10
204.880000
 20
607.200000
 30
0.0
 10
199.200000
 20
598.880000
 30
0.0
  0
SPLINE
  5
127
100
AcDbEntity
  8
0
 62
7
100
AcDbSpline
 70
8
 71
3
 72
8
 73
4
 74
0
 40
0
 40
0
 40
0
 40
0
 40
1
 40
1
 40
1
 40
1
 10
199.200000
 20
598.880000
 30
0.0
 10
196.080000
 20
594.320000
 30
0.0
 10
190.080000
 20
587.920000
 30
0.0
 10
184.000000
 20
582.800000
 30
0.0
  0
SPLINE
  5
128
100
AcDbEntity
  8
0
 62
7
100
AcDbSpline
 70
8
 71
3
 72
8
 73
4
 74
0
 40
0
 40
0
 40
0
 40
0
 40
1
 40
1
 40
1
 40
1
 10
184.000000
 20
582.800000
 30
0.0
 10
180.960000
 20
580.240000
 30
0.0
 10
178.240000
 20
576.800000
 30
0.0
 10
175.680000
 20
572.480000
 30
0.0
  0
SPLINE
  5
129
100
AcDbEntity
  8
0
 62
7
100
AcDbSpline
 70
8
 71
3
 72
8
 73
4
 74
0
 40
0
 40
0
 40
0
 40
0
 40
1
 40
1
 40
1
 40
1
 10
175.680000
 20
572.480000
 30
0.0
 10
173.520000
 20
568.880000
 30
0.0
 10
170.080000
 20
563.040000
 30
0.0
 10
168.000000
 20
559.440000
 30
0.0
  0
SPLINE
  5
12a
100
AcDbEntity
  8
0
 62
7
100
AcDbSpline
 70
8
 71
3
 72
8
 73
4
 74
0
 40
0
 40
0
 40
0
 40
0
 40
1
 40
1
 40
1
 40
1
 10
168.000000
 20
559.440000
 30
0.0
 10
165.840000
 20
555.840000
 30
0.0
 10
162.720000
 20
550.080000
 30
0.0
 10
160.960000
 20
546.560000
 30
0.0
  0
SPLINE
  5
12b
100
AcDbEntity
  8
0
 62
7
100
AcDbSpline
 70
8
 71
3
 72
8
 73
4
 74
0
 40
0
 40
0
 40
0
 40
0
 40
1
 40
1
 40
1
 40
1
 10
160.960000
 20
546.560000
 30
0.0
 10
157.200000
 20
539.120000
 30
0.0
 10
154.320000
 20
535.520000
 30
0.0
 10
146.800000
 20
528.800000
 30
0.0
  0
SPLINE
  5
12c
100
AcDbEntity
  8
0
 62
7
100
AcDbSpline
 70
8
 71
3
 72
8
 73
4
 74
0
 40
0
 40
0
 40
0
 40
0
 40
1
 40
1
 40
1
 40
1
 10
146.800000
 20
528.800000
 30
0.0
 10
143.840000
 20
526.160000
 30
0.0
 10
140.480000
 20
522.960000
 30
0.0
 10
139.440000
 20
521.760000
 30
0.0
  0
SPLINE
  5
12d
100
AcDbEntity
  8
0
 62
7
100
AcDbSpline
 70
8
 71
3
 72
8
 73
4
 74
0
 40
0
 40
0
 40
0
 40
0
 40
1
 40
1
 40
1
 40
1
 10
139.440000
 20
521.760000
 30
0.0
 10
130.960000
 20
512.000000
 30
0.0
 10
129.440000
 20
509.920000
 30
0.0
 10
128.160000
 20
505.920000
 30
0.0
  0
SPLINE
  5
12e
100
AcDbEntity
  8
0
 62
7
100
AcDbSpline
 70
8
 71
3
 72
8
 73
4
 74
0
 40
0
 40
0
 40
0
 40
0
 40
1
 40
1
 40
1
 40
1
 10
128.160000
 20
505.920000
 30
0.0
 10
127.120000
 20
502.720000
 30
0.0
 10
126.960000
 20
500.960000
 30
0.0
 10
127.520000
 20
499.680000
 30
0.0
  0
SPLINE
  5
12f
100
AcDbEntity
  8
0
 62
7
100
AcDbSpline
 70
8
 71
3
 72
8
 73
4
 74
0
 40
0
 40
0
 40
0
 40
0
 40
1
 40
1
 40
1
 40
1
 10
127.520000
 20
499.680000
 30
0.0
 10
128.000000
 20
498.720000
 30
0.0
 10
128.400000
 20
492.320000
 30
0.0
 10
128.480000
 20
485.600000
 30
0.0
  0
SPLINE
  5
130
100
AcDbEntity
  8
0
 62
7
100
AcDbSpline
 70
8
 71
3
 72
8
 73
4
 74
0
 40
0
 40
0
 40
0
 40
0
 40
1
 40
1
 40
1
 40
1
 10
128.480000
 20
485.600000
 30
0.0
 10
128.720000
 20
462.880000
 30
0.0
 10
125.680000
 20
458.160000
 30
0.0
 10
108.640000
 20
454.720000
 30
0.0
  0
SPLINE
  5
131
100
AcDbEntity
  8
0
 62
7
100
AcDbSpline
 70
8
 71
3
 72
8
 73
4
 74
0
 40
0
 40
0
 40
0
 40
0
 40
1
 40
1
 40
1
 40
1
 10
108.640000
 20
454.720000
 30
0.0
 10
102.480000
 20
453.440000
 30
0.0
 10
100.000000
 20
452.560000
 30
0.0
 10
98.400000
 20
451.120000
 30
0.0
  0
SPLINE
  5
132
100
AcDbEntity
  8
0
 62
7
100
AcDbSpline
 70
8
 71
3
 72
8
 73
4
 74
0
 40
0
 40
0
 40
0
 40
0
 40
1
 40
1
 40
1
 40
1
 10
98.400000
 20
451.120000
 30
0.0
 10
95.920000
 20
448.880000
 30
0.0
 10
88.560000
 20
434.000000
 30
0.0
 10
82.720000
 20
419.680000
 30
0.0
  0
SPLINE
  5
133
100
AcDbEntity
  8
0
 62
7
100
AcDbSpline
 70
8
 71
3
 72
8
 73
4
 74
0
 40
0
 40
0
 40
0
 40
0
 40
1
 40
1
 40
1
 40
1
 10
82.720000
 20
419.680000
 30
0.0
 10
81.920000
 20
417.680000
 30
0.0
 10
80.960000
 20
415.520000
 30
0.0
 10
80.560000
 20
414.960000
 30
0.0
  0
SPLINE
  5
134
100
AcDbEntity
  8
0
 62
7
100
AcDbSpline
 70
8
 71
3
 72
8
 73
4
 74
0
 40
0
 40
0
 40
0
 40
0
 40
1
 40
1
 40
1
 40
1
 10
80.560000
 20
414.960000
 30
0.0
 10
80.240000
 20
414.320000
 30
0.0
 10
78.880000
 20
410.960000
 30
0.0
 10
77.600000
 20
407.360000
 30
0.0
  0
SPLINE
  5
135
100
AcDbEntity
  8
0
 62
7
100
AcDbSpline
 70
8
 71
3
 72
8
 73
4
 74
0
 40
0
 40
0
 40
0
 40
0
 40
1
 40
1
 40
1
 40
1
 10
77.600000
 20
407.360000
 30
0.0
 10
76.240000
 20
403.760000
 30
0.0
 10
74.880000
 20
400.480000
 30
0.0
 10
74.480000
 20
400.160000
 30
0.0
  0
SPLINE
  5
136
100
AcDbEntity
  8
0
 62
7
100
AcDbSpline
 70
8
 71
3
 72
8
 73
4
 74
0
 40
0
 40
0
 40
0
 40
0
 40
1
 40
1
 40
1
 40
1
 10
74.480000
 20
400.160000
 30
0.0
 10
74.080000
 20
399.760000
 30
0.0
 10
73.760000
 20
398.800000
 30
0.0
 10
73.760000
 20
398.000000
 30
0.0
  0
SPLINE
  5
137
100
AcDbEntity
  8
0
 62
7
100
AcDbSpline
 70
8
 71
3
 72
8
 73
4
 74
0
 40
0
 40
0
 40
0
 40
0
 40
1
 40
1
 40
1
 40
1
 10
73.760000
 20
398.000000
 30
0.0
 10
73.760000
 20
397.200000
 30
0.0
 10
73.200000
 20
395.200000
 30
0.0
 10
72.560000
 20
393.600000
 30
0.0
  0
SPLINE
  5
138
100
AcDbEntity
  8
0
 62
7
100
AcDbSpline
 70
8
 71
3
 72
8
 73
4
 74
0
 40
0
 40
0
 40
0
 40
0
 40
1
 40
1
 40
1
 40
1
 10
72.560000
 20
393.600000
 30
0.0
 10
71.920000
 20
392.000000
 30
0.0
 10
70.720000
 20
388.800000
 30
0.0
 10
70.000000
 20
386.480000
 30
0.0
  0
SPLINE
  5
139
100
AcDbEntity
  8
0
 62
7
100
AcDbSpline
 70
8
 71
3
 72
8
 73
4
 74
0
 40
0
 40
0
 40
0
 40
0
 40
1
 40
1
 40
1
 40
1
 10
70.000000
 20
386.480000
 30
0.0
 10
69.200000
 20
384.240000
 30
0.0
 10
68.080000
 20
380.640000
 30
0.0
 10
67.360000
 20
378.560000
 30
0.0
  0
SPLINE
  5
13a
100
AcDbEntity
  8
0
 62
7
100
AcDbSpline
 70
8
 71
3
 72
8
 73
4
 74
0
 40
0
 40
0
 40
0
 40
0
 40
1
 40
1
 40
1
 40
1
 10
67.360000
 20
378.560000
 30
0.0
 10
66.640000
 20
376.480000
 30
0.0
 10
64.720000
 20
369.600000
 30
0.0
 10
63.120000
 20
363.280000
 30
0.0
  0
SPLINE
  5
13b
100
AcDbEntity
  8
0
 62
7
100
AcDbSpline
 70
8
 71
3
 72
8
 73
4
 74
0
 40
0
 40
0
 40
0
 40
0
 40
1
 40
1
 40
1
 40
1
 10
63.120000
 20
363.280000
 30
0.0
 10
61.520000
 20
356.880000
 30
0.0
 10
60.000000
 20
351.520000
 30
0.0
 10
59.680000
 20
351.360000
 30
0.0
  0
SPLINE
  5
13c
100
AcDbEntity
  8
0
 62
7
100
AcDbSpline
 70
8
 71
3
 72
8
 73
4
 74
0
 40
0
 40
0
 40
0
 40
0
 40
1
 40
1
 40
1
 40
1
 10
59.680000
 20
351.360000
 30
0.0
 10
59.440000
 20
351.120000
 30
0.0
 10
58.800000
 20
351.280000
 30
0.0
 10
58.240000
 20
351.760000
 30
0.0
  0
SPLINE
  5
13d
100
AcDbEntity
  8
0
 62
7
100
AcDbSpline
 70
8
 71
3
 72
8
 73
4
 74
0
 40
0
 40
0
 40
0
 40
0
 40
1
 40
1
 40
1
 40
1
 10
58.240000
 20
351.760000
 30
0.0
 10
56.080000
 20
353.600000
 30
0.0
 10
62.720000
 20
383.440000
 30
0.0
 10
70.400000
 20
406.640000
 30
0.0
  0
SPLINE
  5
13e
100
AcDbEntity
  8
0
 62
7
100
AcDbSpline
 70
8
 71
3
 72
8
 73
4
 74
0
 40
0
 40
0
 40
0
 40
0
 40
1
 40
1
 40
1
 40
1
 10
70.400000
 20
406.640000
 30
0.0
 10
74.560000
 20
418.880000
 30
0.0
 10
75.600000
 20
422.000000
 30
0.0
 10
76.640000
 20
424.320000
 30
0.0
  0
SPLINE
  5
13f
100
AcDbEntity
  8
0
 62
7
100
AcDbSpline
 70
8
 71
3
 72
8
 73
4
 74
0
 40
0
 40
0
 40
0
 40
0
 40
1
 40
1
 40
1
 40
1
 10
76.640000
 20
424.320000
 30
0.0
 10
77.280000
 20
425.760000
 30
0.0
 10
78.640000
 20
429.040000
 30
0.0
 10
79.600000
 20
431.600000
 30
0.0
  0
SPLINE
  5
140
100
AcDbEntity
  8
0
 62
7
100
AcDbSpline
 70
8
 71
3
 72
8
 73
4
 74
0
 40
0
 40
0
 40
0
 40
0
 40
1
 40
1
 40
1
 40
1
 10
79.600000
 20
431.600000
 30
0.0
 10
80.560000
 20
434.160000
 30
0.0
 10
82.480000
 20
439.040000
 30
0.0
 10
84.000000
 20
442.480000
 30
0.0
  0
SPLINE
  5
141
100
AcDbEntity
  8
0
 62
7
100
AcDbSpline
 70
8
 71
3
 72
8
 73
4
 74
0
 40
0
 40
0
 40
0
 40
0
 40
1
 40
1
 40
1
 40
1
 10
84.000000
 20
442.480000
 30
0.0
 10
85.440000
 20
445.840000
 30
0.0
 10
86.800000
 20
449.200000
 30
0.0
 10
87.120000
 20
449.920000
 30
0.0
  0
SPLINE
  5
142
100
AcDbEntity
  8
0
 62
7
100
AcDbSpline
 70
8
 71
3
 72
8
 73
4
 74
0
 40
0
 40
0
 40
0
 40
0
 40
1
 40
1
 40
1
 40
1
 10
87.120000
 20
449.920000
 30
0.0
 10
87.360000
 20
450.720000
 30
0.0
 10
86.800000
 20
451.920000
 30
0.0
 10
85.600000
 20
452.960000
 30
0.0
  0
SPLINE
  5
143
100
AcDbEntity
  8
0
 62
7
100
AcDbSpline
 70
8
 71
3
 72
8
 73
4
 74
0
 40
0
 40
0
 40
0
 40
0
 40
1
 40
1
 40
1
 40
1
 10
85.600000
 20
452.960000
 30
0.0
 10
83.200000
 20
455.200000
 30
0.0
 10
81.120000
 20
454.400000
 30
0.0
 10
79.200000
 20
450.560000
 30
0.0
  0
SPLINE
  5
144
100
AcDbEntity
  8
0
 62
7
100
AcDbSpline
 70
8
 71
3
 72
8
 73
4
 74
0
 40
0
 40
0
 40
0
 40
0
 40
1
 40
1
 40
1
 40
1
 10
79.200000
 20
450.560000
 30
0.0
 10
78.080000
 20
448.320000
 30
0.0
 10
69.600000
 20
430.400000
 30
0.0
 10
67.360000
 20
425.440000
 30
0.0
  0
SPLINE
  5
145
100
AcDbEntity
  8
0
 62
7
100
AcDbSpline
 70
8
 71
3
 72
8
 73
4
 74
0
 40
0
 40
0
 40
0
 40
0
 40
1
 40
1
 40
1
 40
1
 10
67.360000
 20
425.440000
 30
0.0
 10
65.440000
 20
421.280000
 30
0.0
 10
60.720000
 20
409.920000
 30
0.0
 10
60.160000
 20
408.080000
 30
0.0
  0
SPLINE
  5
146
100
AcDbEntity
  8
0
 62
7
100
AcDbSpline
 70
8
 71
3
 72
8
 73
4
 74
0
 40
0
 40
0
 40
0
 40
0
 40
1
 40
1
 40
1
 40
1
 10
60.160000
 20
408.080000
 30
0.0
 10
59.760000
 20
406.880000
 30
0.0
 10
58.640000
 20
403.920000
 30
0.0
 10
57.600000
 20
401.520000
 30
0.0
  0
SPLINE
  5
147
100
AcDbEntity
  8
0
 62
7
100
AcDbSpline
 70
8
 71
3
 72
8
 73
4
 74
0
 40
0
 40
0
 40
0
 40
0
 40
1
 40
1
 40
1
 40
1
 10
57.600000
 20
401.520000
 30
0.0
 10
56.560000
 20
399.120000
 30
0.0
 10
55.360000
 20
395.760000
 30
0.0
 10
54.960000
 20
394.080000
 30
0.0
  0
SPLINE
  5
148
100
AcDbEntity
  8
0
 62
7
100
AcDbSpline
 70
8
 71
3
 72
8
 73
4
 74
0
 40
0
 40
0
 40
0
 40
0
 40
1
 40
1
 40
1
 40
1
 10
54.960000
 20
394.080000
 30
0.0
 10
54.560000
 20
392.320000
 30
0.0
 10
53.920000
 20
390.560000
 30
0.0
 10
53.600000
 20
390.160000
 30
0.0
  0
SPLINE
  5
149
100
AcDbEntity
  8
0
 62
7
100
AcDbSpline
 70
8
 71
3
 72
8
 73
4
 74
0
 40
0
 40
0
 40
0
 40
0
 40
1
 40
1
 40
1
 40
1
 10
53.600000
 20
390.160000
 30
0.0
 10
53.280000
 20
389.680000
 30
0.0
 10
52.720000
 20
388.160000
 30
0.0
 10
52.400000
 20
386.720000
 30
0.0
  0
SPLINE
  5
14a
100
AcDbEntity
  8
0
 62
7
100
AcDbSpline
 70
8
 71
3
 72
8
 73
4
 74
0
 40
0
 40
0
 40
0
 40
0
 40
1
 40
1
 40
1
 40
1
 10
52.400000
 20
386.720000
 30
0.0
 10
52.000000
 20
385.360000
 30
0.0
 10
50.960000
 20
381.360000
 30
0.0
 10
49.920000
 20
378.000000
 30
0.0
  0
SPLINE
  5
14b
100
AcDbEntity
  8
0
 62
7
100
AcDbSpline
 70
8
 71
3
 72
8
 73
4
 74
0
 40
0
 40
0
 40
0
 40
0
 40
1
 40
1
 40
1
 40
1
 10
49.920000
 20
378.000000
 30
0.0
 10
48.960000
 20
374.640000
 30
0.0
 10
46.800000
 20
366.720000
 30
0.0
 10
45.200000
 20
360.480000
 30
0.0
  0
SPLINE
  5
14c
100
AcDbEntity
  8
0
 62
7
100
AcDbSpline
 70
8
 71
3
 72
8
 73
4
 74
0
 40
0
 40
0
 40
0
 40
0
 40
1
 40
1
 40
1
 40
1
 10
45.200000
 20
360.480000
 30
0.0
 10
43.600000
 20
354.160000
 30
0.0
 10
42.000000
 20
348.480000
 30
0.0
 10
41.520000
 20
347.760000
 30
0.0
  0
SPLINE
  5
14d
100
AcDbEntity
  8
0
 62
7
100
AcDbSpline
 70
8
 71
3
 72
8
 73
4
 74
0
 40
0
 40
0
 40
0
 40
0
 40
1
 40
1
 40
1
 40
1
 10
41.520000
 20
347.760000
 30
0.0
 10
40.720000
 20
346.640000
 30
0.0
 10
40.560000
 20
346.720000
 30
0.0
 10
39.840000
 20
348.320000
 30
0.0
  0
SPLINE
  5
14e
100
AcDbEntity
  8
0
 62
7
100
AcDbSpline
 70
8
 71
3
 72
8
 73
4
 74
0
 40
0
 40
0
 40
0
 40
0
 40
1
 40
1
 40
1
 40
1
 10
39.840000
 20
348.320000
 30
0.0
 10
39.040000
 20
350.160000
 30
0.0
 10
39.440000
 20
352.960000
 30
0.0
 10
43.200000
 20
373.200000
 30
0.0
  0
SPLINE
  5
14f
100
AcDbEntity
  8
0
 62
7
100
AcDbSpline
 70
8
 71
3
 72
8
 73
4
 74
0
 40
0
 40
0
 40
0
 40
0
 40
1
 40
1
 40
1
 40
1
 10
43.200000
 20
373.200000
 30
0.0
 10
44.080000
 20
378.000000
 30
0.0
 10
48.560000
 20
395.280000
 30
0.0
 10
50.400000
 20
400.800000
 30
0.0
  0
SPLINE
  5
150
100
AcDbEntity
  8
0
 62
7
100
AcDbSpline
 70
8
 71
3
 72
8
 73
4
 74
0
 40
0
 40
0
 40
0
 40
0
 40
1
 40
1
 40
1
 40
1
 10
50.400000
 20
400.800000
 30
0.0
 10
51.040000
 20
402.800000
 30
0.0
 10
52.320000
 20
407.200000
 30
0.0
 10
53.360000
 20
410.560000
 30
0.0
  0
SPLINE
  5
151
100
AcDbEntity
  8
0
 62
7
100
AcDbSpline
 70
8
 71
3
 72
8
 73
4
 74
0
 40
0
 40
0
 40
0
 40
0
 40
1
 40
1
 40
1
 40
1
 10
53.360000
 20
410.560000
 30
0.0
 10
54.320000
 20
414.000000
 30
0.0
 10
55.520000
 20
417.040000
 30
0.0
 10
55.920000
 20
417.440000
 30
0.0
  0
SPLINE
  5
152
100
AcDbEntity
  8
0
 62
7
100
AcDbSpline
 70
8
 71
3
 72
8
 73
4
 74
0
 40
0
 40
0
 40
0
 40
0
 40
1
 40
1
 40
1
 40
1
 10
55.920000
 20
417.440000
 30
0.0
 10
56.400000
 20
417.840000
 30
0.0
 10
56.720000
 20
418.720000
 30
0.0
 10
56.720000
 20
419.440000
 30
0.0
  0
SPLINE
  5
153
100
AcDbEntity
  8
0
 62
7
100
AcDbSpline
 70
8
 71
3
 72
8
 73
4
 74
0
 40
0
 40
0
 40
0
 40
0
 40
1
 40
1
 40
1
 40
1
 10
56.720000
 20
419.440000
 30
0.0
 10
56.720000
 20
422.000000
 30
0.0
 10
69.600000
 20
453.600000
 30
0.0
 10
71.280000
 20
455.120000
 30
0.0
  0
SPLINE
  5
154
100
AcDbEntity
  8
0
 62
7
100
AcDbSpline
 70
8
 71
3
 72
8
 73
4
 74
0
 40
0
 40
0
 40
0
 40
0
 40
1
 40
1
 40
1
 40
1
 10
71.280000
 20
455.120000
 30
0.0
 10
72.720000
 20
456.400000
 30
0.0
 10
72.000000
 20
459.600000
 30
0.0
 10
70.000000
 20
461.200000
 30
0.0
  0
SPLINE
  5
155
100
AcDbEntity
  8
0
 62
7
100
AcDbSpline
 70
8
 71
3
 72
8
 73
4
 74
0
 40
0
 40
0
 40
0
 40
0
 40
1
 40
1
 40
1
 40
1
 10
70.000000
 20
461.200000
 30
0.0
 10
68.240000
 20
462.640000
 30
0.0
 10
67.680000
 20
462.720000
 30
0.0
 10
66.240000
 20
461.920000
 30
0.0
  0
SPLINE
  5
156
100
AcDbEntity
  8
0
 62
7
100
AcDbSpline
 70
8
 71
3
 72
8
 73
4
 74
0
 40
0
 40
0
 40
0
 40
0
 40
1
 40
1
 40
1
 40
1
 10
66.240000
 20
461.920000
 30
0.0
 10
64.720000
 20
461.120000
 30
0.0
 10
60.080000
 20
454.400000
 30
0.0
 10
60.080000
 20
452.880000
 30
0.0
  0
SPLINE
  5
157
100
AcDbEntity
  8
0
 62
7
100
AcDbSpline
 70
8
 71
3
 72
8
 73
4
 74
0
 40
0
 40
0
 40
0
 40
0
 40
1
 40
1
 40
1
 40
1
 10
60.080000
 20
452.880000
 30
0.0
 10
60.080000
 20
452.320000
 30
0.0
 10
51.280000
 20
432.880000
 30
0.0
 10
48.640000
 20
427.600000
 30
0.0
  0
SPLINE
  5
158
100
AcDbEntity
  8
0
 62
7
100
AcDbSpline
 70
8
 71
3
 72
8
 73
4
 74
0
 40
0
 40
0
 40
0
 40
0
 40
1
 40
1
 40
1
 40
1
 10
48.640000
 20
427.600000
 30
0.0
 10
45.920000
 20
422.240000
 30
0.0
 10
37.120000
 20
397.520000
 30
0.0
 10
35.040000
 20
389.200000
 30
0.0
  0
SPLINE
  5
159
100
AcDbEntity
  8
0
 62
7
100
AcDbSpline
 70
8
 71
3
 72
8
 73
4
 74
0
 40
0
 40
0
 40
0
 40
0
 40
1
 40
1
 40
1
 40
1
 10
35.040000
 20
389.200000
 30
0.0
 10
34.160000
 20
386.000000
 30
0.0
 10
33.200000
 20
382.560000
 30
0.0
 10
32.720000
 20
381.520000
 30
0.0
  0
SPLINE
  5
15a
100
AcDbEntity
  8
0
 62
7
100
AcDbSpline
 70
8
 71
3
 72
8
 73
4
 74
0
 40
0
 40
0
 40
0
 40
0
 40
1
 40
1
 40
1
 40
1
 10
32.720000
 20
381.520000
 30
0.0
 10
32.320000
 20
380.480000
 30
0.0
 10
31.600000
 20
377.840000
 30
0.0
 10
31.200000
 20
375.760000
 30
0.0
  0
SPLINE
  5
15b
100
AcDbEntity
  8
0
 62
7
100
AcDbSpline
 70
8
 71
3
 72
8
 73
4
 74
0
 40
0
 40
0
 40
0
 40
0
 40
1
 40
1
 40
1
 40
1
 10
31.200000
 20
375.760000
 30
0.0
 10
28.880000
 20
363.200000
 30
0.0
 10
28.480000
 20
362.080000
 30
0.0
 10
26.400000
 20
362.080000
 30
0.0
  0
SPLINE
  5
15c
100
AcDbEntity
  8
0
 62
7
100
AcDbSpline
 70
8
 71
3
 72
8
 73
4
 74
0
 40
0
 40
0
 40
0
 40
0
 40
1
 40
1
 40
1
 40
1
 10
26.400000
 20
362.080000
 30
0.0
 10
24.560000
 20
362.080000
 30
0.0
 10
24.400000
 20
362.400000
 30
0.0
 10
24.400000
 20
365.680000
 30
0.0
  0
SPLINE
  5
15d
100
AcDbEntity
  8
0
 62
7
100
AcDbSpline
 70
8
 71
3
 72
8
 73
4
 74
0
 40
0
 40
0
 40
0
 40
0
 40
1
 40
1
 40
1
 40
1
 10
24.400000
 20
365.680000
 30
0.0
 10
24.400000
 20
367.600000
 30
0.0
 10
24.720000
 20
369.360000
 30
0.0
 10
25.120000
 20
369.600000
 30
0.0
  0
SPLINE
  5
15e
100
AcDbEntity
  8
0
 62
7
100
AcDbSpline
 70
8
 71
3
 72
8
 73
4
 74
0
 40
0
 40
0
 40
0
 40
0
 40
1
 40
1
 40
1
 40
1
 10
25.120000
 20
369.600000
 30
0.0
 10
25.440000
 20
369.840000
 30
0.0
 10
26.240000
 20
372.320000
 30
0.0
 10
26.800000
 20
375.280000
 30
0.0
  0
SPLINE
  5
15f
100
AcDbEntity
  8
0
 62
7
100
AcDbSpline
 70
8
 71
3
 72
8
 73
4
 74
0
 40
0
 40
0
 40
0
 40
0
 40
1
 40
1
 40
1
 40
1
 10
26.800000
 20
375.280000
 30
0.0
 10
29.040000
 20
386.720000
 30
0.0
 10
30.560000
 20
393.760000
 30
0.0
 10
31.600000
 20
397.520000
 30
0.0
  0
SPLINE
  5
160
100
AcDbEntity
  8
0
 62
7
100
AcDbSpline
 70
8
 71
3
 72
8
 73
4
 74
0
 40
0
 40
0
 40
0
 40
0
 40
1
 40
1
 40
1
 40
1
 10
31.600000
 20
397.520000
 30
0.0
 10
32.240000
 20
399.760000
 30
0.0
 10
33.360000
 20
404.000000
 30
0.0
 10
34.160000
 20
406.960000
 30
0.0
  0
SPLINE
  5
161
100
AcDbEntity
  8
0
 62
7
100
AcDbSpline
 70
8
 71
3
 72
8
 73
4
 74
0
 40
0
 40
0
 40
0
 40
0
 40
1
 40
1
 40
1
 40
1
 10
34.160000
 20
406.960000
 30
0.0
 10
34.960000
 20
410.000000
 30
0.0
 10
36.160000
 20
413.840000
 30
0.0
 10
36.800000
 20
415.680000
 30
0.0
  0
SPLINE
  5
162
100
AcDbEntity
  8
0
 62
7
100
AcDbSpline
 70
8
 71
3
 72
8
 73
4
 74
0
 40
0
 40
0
 40
0
 40
0
 40
1
 40
1
 40
1
 40
1
 10
36.800000
 20
415.680000
 30
0.0
 10
37.360000
 20
417.440000
 30
0.0
 10
38.480000
 20
420.720000
 30
0.0
 10
39.200000
 20
422.880000
 30
0.0
  0
SPLINE
  5
163
100
AcDbEntity
  8
0
 62
7
100
AcDbSpline
 70
8
 71
3
 72
8
 73
4
 74
0
 40
0
 40
0
 40
0
 40
0
 40
1
 40
1
 40
1
 40
1
 10
39.200000
 20
422.880000
 30
0.0
 10
43.840000
 20
436.960000
 30
0.0
 10
57.040000
 20
471.520000
 30
0.0
 10
61.840000
 20
482.320000
 30
0.0
  0
SPLINE
  5
164
100
AcDbEntity
  8
0
 62
7
100
AcDbSpline
 70
8
 71
3
 72
8
 73
4
 74
0
 40
0
 40
0
 40
0
 40
0
 40
1
 40
1
 40
1
 40
1
 10
61.840000
 20
482.320000
 30
0.0
 10
64.800000
 20
488.880000
 30
0.0
 10
70.320000
 20
503.040000
 30
0.0
 10
70.320000
 20
503.920000
 30
0.0
  0
SPLINE
  5
165
100
AcDbEntity
  8
0
 62
7
100
AcDbSpline
 70
8
 71
3
 72
8
 73
4
 74
0
 40
0
 40
0
 40
0
 40
0
 40
1
 40
1
 40
1
 40
1
 10
70.320000
 20
503.920000
 30
0.0
 10
70.320000
 20
504.400000
 30
0.0
 10
72.000000
 20
507.760000
 30
0.0
 10
74.080000
 20
511.440000
 30
0.0
  0
SPLINE
  5
166
100
AcDbEntity
  8
0
 62
7
100
AcDbSpline
 70
8
 71
3
 72
8
 73
4
 74
0
 40
0
 40
0
 40
0
 40
0
 40
1
 40
1
 40
1
 40
1
 10
74.080000
 20
511.440000
 30
0.0
 10
77.920000
 20
518.320000
 30
0.0
 10
79.280000
 20
521.520000
 30
0.0
 10
81.840000
 20
529.040000
 30
0.0
  0
SPLINE
  5
167
100
AcDbEntity
  8
0
 62
7
100
AcDbSpline
 70
8
 71
3
 72
8
 73
4
 74
0
 40
0
 40
0
 40
0
 40
0
 40
1
 40
1
 40
1
 40
1
 10
81.840000
 20
529.040000
 30
0.0
 10
83.600000
 20
534.160000
 30
0.0
 10
88.480000
 20
543.520000
 30
0.0
 10
89.760000
 20
544.160000
 30
0.0
  0
SPLINE
  5
168
100
AcDbEntity
  8
0
 62
7
100
AcDbSpline
 70
8
 71
3
 72
8
 73
4
 74
0
 40
0
 40
0
 40
0
 40
0
 40
1
 40
1
 40
1
 40
1
 10
89.760000
 20
544.160000
 30
0.0
 10
90.240000
 20
544.400000
 30
0.0
 10
90.880000
 20
546.160000
 30
0.0
 10
91.200000
 20
548.080000
 30
0.0
  0
SPLINE
  5
169
100
AcDbEntity
  8
0
 62
7
100
AcDbSpline
 70
8
 71
3
 72
8
 73
4
 74
0
 40
0
 40
0
 40
0
 40
0
 40
1
 40
1
 40
1
 40
1
 10
91.200000
 20
548.080000
 30
0.0
 10
92.800000
 20
558.000000
 30
0.0
 10
97.200000
 20
565.120000
 30
0.0
 10
112.160000
 20
581.840000
 30
0.0
  0
SPLINE
  5
16a
100
AcDbEntity
  8
0
 62
7
100
AcDbSpline
 70
8
 71
3
 72
8
 73
4
 74
0
 40
0
 40
0
 40
0
 40
0
 40
1
 40
1
 40
1
 40
1
 10
112.160000
 20
581.840000
 30
0.0
 10
115.360000
 20
585.360000
 30
0.0
 10
118.000000
 20
588.560000
 30
0.0
 10
118.000000
 20
588.960000
 30
0.0
  0
SPLINE
  5
16b
100
AcDbEntity
  8
0
 62
7
100
AcDbSpline
 70
8
 71
3
 72
8
 73
4
 74
0
 40
0
 40
0
 40
0
 40
0
 40
1
 40
1
 40
1
 40
1
 10
118.000000
 20
588.960000
 30
0.0
 10
118.000000
 20
590.240000
 30
0.0
 10
122.320000
 20
594.640000
 30
0.0
 10
124.240000
 20
595.360000
 30
0.0
  0
SPLINE
  5
16c
100
AcDbEntity
  8
0
 62
7
100
AcDbSpline
 70
8
 71
3
 72
8
 73
4
 74
0
 40
0
 40
0
 40
0
 40
0
 40
1
 40
1
 40
1
 40
1
 10
124.240000
 20
595.360000
 30
0.0
 10
131.440000
 20
598.080000
 30
0.0
 10
133.920000
 20
601.200000
 30
0.0
 10
135.040000
 20
609.200000
 30
0.0
  0
SPLINE
  5
16d
100
AcDbEntity
  8
0
 62
7
100
AcDbSpline
 70
8
 71
3
 72
8
 73
4
 74
0
 40
0
 40
0
 40
0
 40
0
 40
1
 40
1
 40
1
 40
1
 10
135.040000
 20
609.200000
 30
0.0
 10
136.800000
 20
621.040000
 30
0.0
 10
139.360000
 20
628.160000
 30
0.0
 10
144.480000
 20
635.200000
 30
0.0
  0
SPLINE
  5
16e
100
AcDbEntity
  8
0
 62
7
100
AcDbSpline
 70
8
 71
3
 72
8
 73
4
 74
0
 40
0
 40
0
 40
0
 40
0
 40
1
 40
1
 40
1
 40
1
 10
144.480000
 20
635.200000
 30
0.0
 10
147.360000
 20
639.200000
 30
0.0
 10
147.680000
 20
644.320000
 30
0.0
 10
145.440000
 20
649.040000
 30
0.0
  0
SPLINE
  5
16f
100
AcDbEntity
  8
0
 62
7
100
AcDbSpline
 70
8
 71
3
 72
8
 73
4
 74
0
 40
0
 40
0
 40
0
 40
0
 40
1
 40
1
 40
1
 40
1
 10
145.440000
 20
649.040000
 30
0.0
 10
144.240000
 20
651.440000
 30
0.0
 10
143.920000
 20
654.240000
 30
0.0
 10
143.920000
 20
661.920000
 30
0.0
  0
SPLINE
  5
170
100
AcDbEntity
  8
0
 62
7
100
AcDbSpline
 70
8
 71
3
 72
8
 73
4
 74
0
 40
0
 40
0
 40
0
 40
0
 40
1
 40
1
 40
1
 40
1
 10
143.920000
 20
661.920000
 30
0.0
 10
143.920000
 20
670.880000
 30
0.0
 10
144.080000
 20
672.160000
 30
0.0
 10
146.320000
 20
676.880000
 30
0.0
  0
SPLINE
  5
171
100
AcDbEntity
  8
0
 62
7
100
AcDbSpline
 70
8
 71
3
 72
8
 73
4
 74
0
 40
0
 40
0
 40
0
 40
0
 40
1
 40
1
 40
1
 40
1
 10
146.320000
 20
676.880000
 30
0.0
 10
147.600000
 20
679.680000
 30
0.0
 10
149.600000
 20
683.120000
 30
0.0
 10
150.800000
 20
684.480000
 30
0.0
  0
SPLINE
  5
172
100
AcDbEntity
  8
0
 62
7
100
AcDbSpline
 70
8
 71
3
 72
8
 73
4
 74
0
 40
0
 40
0
 40
0
 40
0
 40
1
 40
1
 40
1
 40
1
 10
150.800000
 20
684.480000
 30
0.0
 10
154.560000
 20
688.640000
 30
0.0
 10
158.640000
 20
694.320000
 30
0.0
 10
161.440000
 20
698.960000
 30
0.0
  0
SPLINE
  5
173
100
AcDbEntity
  8
0
 62
7
100
AcDbSpline
 70
8
 71
3
 72
8
 73
4
 74
0
 40
0
 40
0
 40
0
 40
0
 40
1
 40
1
 40
1
 40
1
 10
161.440000
 20
698.960000
 30
0.0
 10
164.720000
 20
704.480000
 30
0.0
 10
171.840000
 20
710.640000
 30
0.0
 10
177.280000
 20
712.800000
 30
0.0
  0
SPLINE
  5
174
100
AcDbEntity
  8
0
 62
7
100
AcDbSpline
 70
8
 71
3
 72
8
 73
4
 74
0
 40
0
 40
0
 40
0
 40
0
 40
1
 40
1
 40
1
 40
1
 10
177.280000
 20
712.800000
 30
0.0
 10
180.880000
 20
714.160000
 30
0.0
 10
182.960000
 20
714.320000
 30
0.0
 10
194.080000
 20
714.400000
 30
0.0
  0
SPLINE
  5
175
100
AcDbEntity
  8
0
 62
7
100
AcDbSpline
 70
8
 71
3
 72
8
 73
4
 74
0
 40
0
 40
0
 40
0
 40
0
 40
1
 40
1
 40
1
 40
1
 10
194.080000
 20
714.400000
 30
0.0
 10
206.560000
 20
714.480000
 30
0.0
 10
206.960000
 20
714.480000
 30
0.0
 10
210.560000
 20
716.480000
 30
0.0
  0
SPLINE
  5
176
100
AcDbEntity
  8
0
 62
7
100
AcDbSpline
 70
8
 71
3
 72
8
 73
4
 74
0
 40
0
 40
0
 40
0
 40
0
 40
1
 40
1
 40
1
 40
1
 10
210.560000
 20
716.480000
 30
0.0
 10
215.520000
 20
719.200000
 30
0.0
 10
216.640000
 20
721.520000
 30
0.0
 10
214.640000
 20
724.480000
 30
0.0
  0
SPLINE
  5
177
100
AcDbEntity
  8
0
 62
7
100
AcDbSpline
 70
8
 71
3
 72
8
 73
4
 74
0
 40
0
 40
0
 40
0
 40
0
 40
1
 40
1
 40
1
 40
1
 10
214.640000
 20
724.480000
 30
0.0
 10
202.880000
 20
741.760000
 30
0.0
 10
201.120000
 20
750.160000
 30
0.0
 10
202.240000
 20
784.000000
 30
0.0
  0
SPLINE
  5
178
100
AcDbEntity
  8
0
 62
7
100
AcDbSpline
 70
8
 71
3
 72
8
 73
4
 74
0
 40
0
 40
0
 40
0
 40
0
 40
1
 40
1
 40
1
 40
1
 10
202.240000
 20
784.000000
 30
0.0
 10
202.800000
 20
801.760000
 30
0.0
 10
203.120000
 20
804.640000
 30
0.0
 10
204.560000
 20
807.520000
 30
0.0
  0
SPLINE
  5
179
100
AcDbEntity
  8
0
 62
7
100
AcDbSpline
 70
8
 71
3
 72
8
 73
4
 74
0
 40
0
 40
0
 40
0
 40
0
 40
1
 40
1
 40
1
 40
1
 10
204.560000
 20
807.520000
 30
0.0
 10
206.000000
 20
810.240000
 30
0.0
 10
206.400000
 20
810.560000
 30
0.0
 10
206.880000
 20
809.360000
 30
0.0
  0
SPLINE
  5
17a
100
AcDbEntity
  8
0
 62
7
100
AcDbSpline
 70
8
 71
3
 72
8
 73
4
 74
0
 40
0
 40
0
 40
0
 40
0
 40
1
 40
1
 40
1
 40
1
 10
206.880000
 20
809.360000
 30
0.0
 10
207.200000
 20
808.560000
 30
0.0
 10
207.760000
 20
807.120000
 30
0.0
 10
208.240000
 20
806.240000
 30
0.0
  0
SPLINE
  5
17b
100
AcDbEntity
  8
0
 62
7
100
AcDbSpline
 70
8
 71
3
 72
8
 73
4
 74
0
 40
0
 40
0
 40
0
 40
0
 40
1
 40
1
 40
1
 40
1
 10
208.240000
 20
806.240000
 30
0.0
 10
208.640000
 20
805.280000
 30
0.0
 10
209.040000
 20
803.840000
 30
0.0
 10
209.040000
 20
803.040000
 30
0.0
  0
SPLINE
  5
17c
100
AcDbEntity
  8
0
 62
7
100
AcDbSpline
 70
8
 71
3
 72
8
 73
4
 74
0
 40
0
 40
0
 40
0
 40
0
 40
1
 40
1
 40
1
 40
1
 10
209.040000
 20
803.040000
 30
0.0
 10
209.040000
 20
800.240000
 30
0.0
 10
214.640000
 20
780.400000
 30
0.0
 10
218.080000
 20
771.120000
 30
0.0
  0
SPLINE
  5
17d
100
AcDbEntity
  8
0
 62
7
100
AcDbSpline
 70
8
 71
3
 72
8
 73
4
 74
0
 40
0
 40
0
 40
0
 40
0
 40
1
 40
1
 40
1
 40
1
 10
218.080000
 20
771.120000
 30
0.0
 10
220.240000
 20
765.200000
 30
0.0
 10
222.880000
 20
761.120000
 30
0.0
 10
225.520000
 20
759.760000
 30
0.0
  0
SPLINE
  5
17e
100
AcDbEntity
  8
0
 62
7
100
AcDbSpline
 70
8
 71
3
 72
8
 73
4
 74
0
 40
0
 40
0
 40
0
 40
0
 40
1
 40
1
 40
1
 40
1
 10
225.520000
 20
759.760000
 30
0.0
 10
227.680000
 20
758.480000
 30
0.0
 10
228.560000
 20
759.520000
 30
0.0
 10
229.440000
 20
764.480000
 30
0.0
  0
SPLINE
  5
17f
100
AcDbEntity
  8
0
 62
7
100
AcDbSpline
 70
8
 71
3
 72
8
 73
4
 74
0
 40
0
 40
0
 40
0
 40
0
 40
1
 40
1
 40
1
 40
1
 10
229.440000
 20
764.480000
 30
0.0
 10
229.840000
 20
766.880000
 30
0.0
 10
230.720000
 20
770.000000
 30
0.0
 10
231.360000
 20
771.520000
 30
0.0
  0
SPLINE
  5
180
100
AcDbEntity
  8
0
 62
7
100
AcDbSpline
 70
8
 71
3
 72
8
 73
4
 74
0
 40
0
 40
0
 40
0
 40
0
 40
1
 40
1
 40
1
 40
1
 10
231.360000
 20
771.520000
 30
0.0
 10
232.720000
 20
774.640000
 30
0.0
 10
238.800000
 20
782.880000
 30
0.0
 10
239.760000
 20
782.880000
 30
0.0
  0
SPLINE
  5
181
100
AcDbEntity
  8
0
 62
7
100
AcDbSpline
 70
8
 71
3
 72
8
 73
4
 74
0
 40
0
 40
0
 40
0
 40
0
 40
1
 40
1
 40
1
 40
1
 10
239.760000
 20
782.880000
 30
0.0
 10
240.080000
 20
782.880000
 30
0.0
 10
241.680000
 20
783.920000
 30
0.0
 10
243.200000
 20
785.120000
 30
0.0
  0
SPLINE
  5
182
100
AcDbEntity
  8
0
 62
7
100
AcDbSpline
 70
8
 71
3
 72
8
 73
4
 74
0
 40
0
 40
0
 40
0
 40
0
 40
1
 40
1
 40
1
 40
1
 10
243.200000
 20
785.120000
 30
0.0
 10
247.040000
 20
788.080000
 30
0.0
 10
255.760000
 20
791.520000
 30
0.0
 10
263.280000
 20
792.880000
 30
0.0
  0
SPLINE
  5
183
100
AcDbEntity
  8
0
 62
7
100
AcDbSpline
 70
8
 71
3
 72
8
 73
4
 74
0
 40
0
 40
0
 40
0
 40
0
 40
1
 40
1
 40
1
 40
1
 10
263.280000
 20
792.880000
 30
0.0
 10
269.280000
 20
794.000000
 30
0.0
 10
269.680000
 20
794.000000
 30
0.0
 10
275.920000
 20
792.400000
 30
0.0
  0
SPLINE
  5
184
100
AcDbEntity
  8
0
 62
7
100
AcDbSpline
 70
8
 71
3
 72
8
 73
4
 74
0
 40
0
 40
0
 40
0
 40
0
 40
1
 40
1
 40
1
 40
1
 10
275.920000
 20
792.400000
 30
0.0
 10
279.360000
 20
791.520000
 30
0.0
 10
283.840000
 20
790.000000
 30
0.0
 10
285.840000
 20
788.880000
 30
0.0
  0
SPLINE
  5
185
100
AcDbEntity
  8
0
 62
7
100
AcDbSpline
 70
8
 71
3
 72
8
 73
4
 74
0
 40
0
 40
0
 40
0
 40
0
 40
1
 40
1
 40
1
 40
1
 10
285.840000
 20
788.880000
 30
0.0
 10
290.240000
 20
786.560000
 30
0.0
 10
300.080000
 20
778.160000
 30
0.0
 10
300.080000
 20
776.800000
 30
0.0
  0
SPLINE
  5
186
100
AcDbEntity
  8
0
 62
7
100
AcDbSpline
 70
8
 71
3
 72
8
 73
4
 74
0
 40
0
 40
0
 40
0
 40
0
 40
1
 40
1
 40
1
 40
1
 10
300.080000
 20
776.800000
 30
0.0
 10
300.080000
 20
775.200000
 30
0.0
 10
303.600000
 20
773.280000
 30
0.0
 10
304.720000
 20
774.240000
 30
0.0
  0
SPLINE
  5
187
100
AcDbEntity
  8
0
 62
7
100
AcDbSpline
 70
8
 71
3
 72
8
 73
4
 74
0
 40
0
 40
0
 40
0
 40
0
 40
1
 40
1
 40
1
 40
1
 10
304.720000
 20
774.240000
 30
0.0
 10
305.280000
 20
774.720000
 30
0.0
 10
305.600000
 20
782.960000
 30
0.0
 10
305.600000
 20
797.760000
 30
0.0
  0
SPLINE
  5
188
100
AcDbEntity
  8
0
 62
7
100
AcDbSpline
 70
8
 71
3
 72
8
 73
4
 74
0
 40
0
 40
0
 40
0
 40
0
 40
1
 40
1
 40
1
 40
1
 10
305.600000
 20
797.760000
 30
0.0
 10
305.600000
 20
810.240000
 30
0.0
 10
305.840000
 20
820.640000
 30
0.0
 10
306.080000
 20
820.880000
 30
0.0
  0
SPLINE
  5
189
100
AcDbEntity
  8
0
 62
7
100
AcDbSpline
 70
8
 71
3
 72
8
 73
4
 74
0
 40
0
 40
0
 40
0
 40
0
 40
1
 40
1
 40
1
 40
1
 10
306.080000
 20
820.880000
 30
0.0
 10
306.880000
 20
821.520000
 30
0.0
 10
312.320000
 20
813.680000
 30
0.0
 10
314.720000
 20
808.240000
 30
0.0
  0
SPLINE
  5
18a
100
AcDbEntity
  8
0
 62
7
100
AcDbSpline
 70
8
 71
3
 72
8
 73
4
 74
0
 40
0
 40
0
 40
0
 40
0
 40
1
 40
1
 40
1
 40
1
 10
314.720000
 20
808.240000
 30
0.0
 10
319.520000
 20
797.520000
 30
0.0
 10
323.280000
 20
786.160000
 30
0.0
 10
326.880000
 20
771.680000
 30
0.0
  0
SPLINE
  5
18b
100
AcDbEntity
  8
0
 62
7
100
AcDbSpline
 70
8
 71
3
 72
8
 73
4
 74
0
 40
0
 40
0
 40
0
 40
0
 40
1
 40
1
 40
1
 40
1
 10
326.880000
 20
771.680000
 30
0.0
 10
327.680000
 20
768.480000
 30
0.0
 10
328.640000
 20
764.400000
 30
0.0
 10
329.120000
 20
762.640000
 30
0.0
  0
SPLINE
  5
18c
100
AcDbEntity
  8
0
 62
7
100
AcDbSpline
 70
8
 71
3
 72
8
 73
4
 74
0
 40
0
 40
0
 40
0
 40
0
 40
1
 40
1
 40
1
 40
1
 10
329.120000
 20
762.640000
 30
0.0
 10
329.600000
 20
760.800000
 30
0.0
 10
330.240000
 20
756.000000
 30
0.0
 10
330.480000
 20
751.920000
 30
0.0
  0
SPLINE
  5
18d
100
AcDbEntity
  8
0
 62
7
100
AcDbSpline
 70
8
 71
3
 72
8
 73
4
 74
0
 40
0
 40
0
 40
0
 40
0
 40
1
 40
1
 40
1
 40
1
 10
330.480000
 20
751.920000
 30
0.0
 10
331.040000
 20
743.040000
 30
0.0
 10
331.600000
 20
742.320000
 30
0.0
 10
340.800000
 20
740.560000
 30
0.0
  0
SPLINE
  5
18e
100
AcDbEntity
  8
0
 62
7
100
AcDbSpline
 70
8
 71
3
 72
8
 73
4
 74
0
 40
0
 40
0
 40
0
 40
0
 40
1
 40
1
 40
1
 40
1
 10
340.800000
 20
740.560000
 30
0.0
 10
346.000000
 20
739.600000
 30
0.0
 10
347.120000
 20
739.600000
 30
0.0
 10
350.880000
 20
740.560000
 30
0.0
  0
SPLINE
  5
18f
100
AcDbEntity
  8
0
 62
7
100
AcDbSpline
 70
8
 71
3
 72
8
 73
4
 74
0
 40
0
 40
0
 40
0
 40
0
 40
1
 40
1
 40
1
 40
1
 10
350.880000
 20
740.560000
 30
0.0
 10
355.120000
 20
741.600000
 30
0.0
 10
358.160000
 20
743.280000
 30
0.0
 10
362.160000
 20
746.720000
 30
0.0
  0
SPLINE
  5
190
100
AcDbEntity
  8
0
 62
7
100
AcDbSpline
 70
8
 71
3
 72
8
 73
4
 74
0
 40
0
 40
0
 40
0
 40
0
 40
1
 40
1
 40
1
 40
1
 10
362.160000
 20
746.720000
 30
0.0
 10
363.280000
 20
747.760000
 30
0.0
 10
364.880000
 20
748.800000
 30
0.0
 10
365.520000
 20
749.120000
 30
0.0
  0
SPLINE
  5
191
100
AcDbEntity
  8
0
 62
7
100
AcDbSpline
 70
8
 71
3
 72
8
 73
4
 74
0
 40
0
 40
0
 40
0
 40
0
 40
1
 40
1
 40
1
 40
1
 10
365.520000
 20
749.120000
 30
0.0
 10
367.760000
 20
750.000000
 30
0.0
 10
372.880000
 20
752.720000
 30
0.0
 10
376.720000
 20
755.120000
 30
0.0
  0
SPLINE
  5
192
100
AcDbEntity
  8
0
 62
7
100
AcDbSpline
 70
8
 71
3
 72
8
 73
4
 74
0
 40
0
 40
0
 40
0
 40
0
 40
1
 40
1
 40
1
 40
1
 10
376.720000
 20
755.120000
 30
0.0
 10
381.440000
 20
757.920000
 30
0.0
 10
388.240000
 20
759.680000
 30
0.0
 10
394.400000
 20
759.680000
 30
0.0
  0
SPLINE
  5
193
100
AcDbEntity
  8
0
 62
7
100
AcDbSpline
 70
8
 71
3
 72
8
 73
4
 74
0
 40
0
 40
0
 40
0
 40
0
 40
1
 40
1
 40
1
 40
1
 10
394.400000
 20
759.680000
 30
0.0
 10
400.320000
 20
759.680000
 30
0.0
 10
409.440000
 20
756.640000
 30
0.0
 10
420.880000
 20
750.880000
 30
0.0
  0
SPLINE
  5
194
100
AcDbEntity
  8
0
 62
7
100
AcDbSpline
 70
8
 71
3
 72
8
 73
4
 74
0
 40
0
 40
0
 40
0
 40
0
 40
1
 40
1
 40
1
 40
1
 10
420.880000
 20
750.880000
 30
0.0
 10
436.160000
 20
743.200000
 30
0.0
 10
442.560000
 20
738.000000
 30
0.0
 10
445.200000
 20
731.200000
 30
0.0
  0
SPLINE
  5
195
100
AcDbEntity
  8
0
 62
7
100
AcDbSpline
 70
8
 71
3
 72
8
 73
4
 74
0
 40
0
 40
0
 40
0
 40
0
 40
1
 40
1
 40
1
 40
1
 10
445.200000
 20
731.200000
 30
0.0
 10
447.440000
 20
725.520000
 30
0.0
 10
449.840000
 20
722.720000
 30
0.0
 10
456.720000
 20
718.080000
 30
0.0
  0
SPLINE
  5
196
100
AcDbEntity
  8
0
 62
7
100
AcDbSpline
 70
8
 71
3
 72
8
 73
4
 74
0
 40
0
 40
0
 40
0
 40
0
 40
1
 40
1
 40
1
 40
1
 10
456.720000
 20
718.080000
 30
0.0
 10
460.160000
 20
715.760000
 30
0.0
 10
464.880000
 20
711.920000
 30
0.0
 10
467.200000
 20
709.600000
 30
0.0
  0
SPLINE
  5
197
100
AcDbEntity
  8
0
 62
7
100
AcDbSpline
 70
8
 71
3
 72
8
 73
4
 74
0
 40
0
 40
0
 40
0
 40
0
 40
1
 40
1
 40
1
 40
1
 10
467.200000
 20
709.600000
 30
0.0
 10
469.600000
 20
707.200000
 30
0.0
 10
472.320000
 20
704.480000
 30
0.0
 10
473.360000
 20
703.520000
 30
0.0
  0
SPLINE
  5
198
100
AcDbEntity
  8
0
 62
7
100
AcDbSpline
 70
8
 71
3
 72
8
 73
4
 74
0
 40
0
 40
0
 40
0
 40
0
 40
1
 40
1
 40
1
 40
1
 10
473.360000
 20
703.520000
 30
0.0
 10
475.600000
 20
701.440000
 30
0.0
 10
482.080000
 20
693.360000
 30
0.0
 10
482.080000
 20
692.720000
 30
0.0
  0
SPLINE
  5
199
100
AcDbEntity
  8
0
 62
7
100
AcDbSpline
 70
8
 71
3
 72
8
 73
4
 74
0
 40
0
 40
0
 40
0
 40
0
 40
1
 40
1
 40
1
 40
1
 10
482.080000
 20
692.720000
 30
0.0
 10
482.080000
 20
691.840000
 30
0.0
 10
491.760000
 20
681.040000
 30
0.0
 10
495.600000
 20
677.600000
 30
0.0
  0
SPLINE
  5
19a
100
AcDbEntity
  8
0
 62
7
100
AcDbSpline
 70
8
 71
3
 72
8
 73
4
 74
0
 40
0
 40
0
 40
0
 40
0
 40
1
 40
1
 40
1
 40
1
 10
495.600000
 20
677.600000
 30
0.0
 10
500.720000
 20
673.040000
 30
0.0
 10
510.000000
 20
666.720000
 30
0.0
 10
514.160000
 20
664.880000
 30
0.0
  0
SPLINE
  5
19b
100
AcDbEntity
  8
0
 62
7
100
AcDbSpline
 70
8
 71
3
 72
8
 73
4
 74
0
 40
0
 40
0
 40
0
 40
0
 40
1
 40
1
 40
1
 40
1
 10
514.160000
 20
664.880000
 30
0.0
 10
515.920000
 20
664.160000
 30
0.0
 10
519.520000
 20
662.640000
 30
0.0
 10
522.160000
 20
661.680000
 30
0.0
  0
SPLINE
  5
19c
100
AcDbEntity
  8
0
 62
7
100
AcDbSpline
 70
8
 71
3
 72
8
 73
4
 74
0
 40
0
 40
0
 40
0
 40
0
 40
1
 40
1
 40
1
 40
1
 10
522.160000
 20
661.680000
 30
0.0
 10
527.760000
 20
659.440000
 30
0.0
 10
529.600000
 20
657.920000
 30
0.0
 10
533.200000
 20
652.160000
 30
0.0
  0
SPLINE
  5
19d
100
AcDbEntity
  8
0
 62
7
100
AcDbSpline
 70
8
 71
3
 72
8
 73
4
 74
0
 40
0
 40
0
 40
0
 40
0
 40
1
 40
1
 40
1
 40
1
 10
533.200000
 20
652.160000
 30
0.0
 10
534.720000
 20
649.760000
 30
0.0
 10
536.960000
 20
646.640000
 30
0.0
 10
538.240000
 20
645.280000
 30
0.0
  0
SPLINE
  5
19e
100
AcDbEntity
  8
0
 62
7
100
AcDbSpline
 70
8
 71
3
 72
8
 73
4
 74
0
 40
0
 40
0
 40
0
 40
0
 40
1
 40
1
 40
1
 40
1
 10
538.240000
 20
645.280000
 30
0.0
 10
549.600000
 20
632.880000
 30
0.0
 10
556.880000
 20
618.960000
 30
0.0
 10
560.880000
 20
602.160000
 30
0.0
  0
SPLINE
  5
19f
100
AcDbEntity
  8
0
 62
7
100
AcDbSpline
 70
8
 71
3
 72
8
 73
4
 74
0
 40
0
 40
0
 40
0
 40
0
 40
1
 40
1
 40
1
 40
1
 10
560.880000
 20
602.160000
 30
0.0
 10
561.680000
 20
598.960000
 30
0.0
 10
562.560000
 20
595.760000
 30
0.0
 10
563.040000
 20
594.960000
 30
0.0
  0
SPLINE
  5
1a0
100
AcDbEntity
  8
0
 62
7
100
AcDbSpline
 70
8
 71
3
 72
8
 73
4
 74
0
 40
0
 40
0
 40
0
 40
0
 40
1
 40
1
 40
1
 40
1
 10
563.040000
 20
594.960000
 30
0.0
 10
566.640000
 20
587.840000
 30
0.0
 10
567.440000
 20
584.800000
 30
0.0
 10
566.960000
 20
579.040000
 30
0.0
  0
SPLINE
  5
1a1
100
AcDbEntity
  8
0
 62
7
100
AcDbSpline
 70
8
 71
3
 72
8
 73
4
 74
0
 40
0
 40
0
 40
0
 40
0
 40
1
 40
1
 40
1
 40
1
 10
566.960000
 20
579.040000
 30
0.0
 10
566.480000
 20
572.720000
 30
0.0
 10
567.120000
 20
568.480000
 30
0.0
 10
569.360000
 20
563.440000
 30
0.0
  0
SPLINE
  5
1a2
100
AcDbEntity
  8
0
 62
7
100
AcDbSpline
 70
8
 71
3
 72
8
 73
4
 74
0
 40
0
 40
0
 40
0
 40
0
 40
1
 40
1
 40
1
 40
1
 10
569.360000
 20
563.440000
 30
0.0
 10
571.280000
 20
559.040000
 30
0.0
 10
571.920000
 20
553.200000
 30
0.0
 10
570.720000
 20
551.280000
 30
0.0
  0
SPLINE
  5
1a3
100
AcDbEntity
  8
0
 62
7
100
AcDbSpline
 70
8
 71
3
 72
8
 73
4
 74
0
 40
0
 40
0
 40
0
 40
0
 40
1
 40
1
 40
1
 40
1
 10
570.720000
 20
551.280000
 30
0.0
 10
570.160000
 20
550.400000
 30
0.0
 10
569.680000
 20
547.840000
 30
0.0
 10
569.680000
 20
545.520000
 30
0.0
  0
SPLINE
  5
1a4
100
AcDbEntity
  8
0
 62
7
100
AcDbSpline
 70
8
 71
3
 72
8
 73
4
 74
0
 40
0
 40
0
 40
0
 40
0
 40
1
 40
1
 40
1
 40
1
 10
569.680000
 20
545.520000
 30
0.0
 10
569.600000
 20
542.160000
 30
0.0
 10
570.160000
 20
540.240000
 30
0.0
 10
572.560000
 20
535.920000
 30
0.0
  0
SPLINE
  5
1a5
100
AcDbEntity
  8
0
 62
7
100
AcDbSpline
 70
8
 71
3
 72
8
 73
4
 74
0
 40
0
 40
0
 40
0
 40
0
 40
1
 40
1
 40
1
 40
1
 10
572.560000
 20
535.920000
 30
0.0
 10
579.600000
 20
522.880000
 30
0.0
 10
580.640000
 20
517.600000
 30
0.0
 10
577.280000
 20
510.000000
 30
0.0
  0
SPLINE
  5
1a6
100
AcDbEntity
  8
0
 62
7
100
AcDbSpline
 70
8
 71
3
 72
8
 73
4
 74
0
 40
0
 40
0
 40
0
 40
0
 40
1
 40
1
 40
1
 40
1
 10
577.280000
 20
510.000000
 30
0.0
 10
575.760000
 20
506.480000
 30
0.0
 10
575.440000
 20
503.360000
 30
0.0
 10
574.800000
 20
489.600000
 30
0.0
  0
SPLINE
  5
1a7
100
AcDbEntity
  8
0
 62
7
100
AcDbSpline
 70
8
 71
3
 72
8
 73
4
 74
0
 40
0
 40
0
 40
0
 40
0
 40
1
 40
1
 40
1
 40
1
 10
574.800000
 20
489.600000
 30
0.0
 10
573.840000
 20
466.160000
 30
0.0
 10
569.920000
 20
438.320000
 30
0.0
 10
565.840000
 20
426.080000
 30
0.0
  0
SPLINE
  5
1a8
100
AcDbEntity
  8
0
 62
7
100
AcDbSpline
 70
8
 71
3
 72
8
 73
4
 74
0
 40
0
 40
0
 40
0
 40
0
 40
1
 40
1
 40
1
 40
1
 10
565.840000
 20
426.080000
 30
0.0
 10
565.200000
 20
424.080000
 30
0.0
 10
564.640000
 20
421.680000
 30
0.0
 10
564.640000
 20
420.880000
 30
0.0
  0
SPLINE
  5
1a9
100
AcDbEntity
  8
0
 62
7
100
AcDbSpline
 70
8
 71
3
 72
8
 73
4
 74
0
 40
0
 40
0
 40
0
 40
0
 40
1
 40
1
 40
1
 40
1
 10
564.640000
 20
420.880000
 30
0.0
 10
564.640000
 20
420.000000
 30
0.0
 10
564.080000
 20
417.360000
 30
0.0
 10
563.360000
 20
415.120000
 30
0.0
  0
SPLINE
  5
1aa
100
AcDbEntity
  8
0
 62
7
100
AcDbSpline
 70
8
 71
3
 72
8
 73
4
 74
0
 40
0
 40
0
 40
0
 40
0
 40
1
 40
1
 40
1
 40
1
 10
563.360000
 20
415.120000
 30
0.0
 10
562.720000
 20
412.800000
 30
0.0
 10
561.360000
 20
408.320000
 30
0.0
 10
560.480000
 20
405.200000
 30
0.0
  0
SPLINE
  5
1ab
100
AcDbEntity
  8
0
 62
7
100
AcDbSpline
 70
8
 71
3
 72
8
 73
4
 74
0
 40
0
 40
0
 40
0
 40
0
 40
1
 40
1
 40
1
 40
1
 10
560.480000
 20
405.200000
 30
0.0
 10
558.000000
 20
396.560000
 30
0.0
 10
555.360000
 20
388.880000
 30
0.0
 10
554.320000
 20
387.200000
 30
0.0
  0
SPLINE
  5
1ac
100
AcDbEntity
  8
0
 62
7
100
AcDbSpline
 70
8
 71
3
 72
8
 73
4
 74
0
 40
0
 40
0
 40
0
 40
0
 40
1
 40
1
 40
1
 40
1
 10
554.320000
 20
387.200000
 30
0.0
 10
553.440000
 20
385.840000
 30
0.0
 10
553.360000
 20
385.840000
 30
0.0
 10
552.560000
 20
386.960000
 30
0.0
  0
SPLINE
  5
1ad
100
AcDbEntity
  8
0
 62
7
100
AcDbSpline
 70
8
 71
3
 72
8
 73
4
 74
0
 40
0
 40
0
 40
0
 40
0
 40
1
 40
1
 40
1
 40
1
 10
552.560000
 20
386.960000
 30
0.0
 10
551.680000
 20
388.320000
 30
0.0
 10
551.920000
 20
390.000000
 30
0.0
 10
555.680000
 20
405.040000
 30
0.0
  0
SPLINE
  5
1ae
100
AcDbEntity
  8
0
 62
7
100
AcDbSpline
 70
8
 71
3
 72
8
 73
4
 74
0
 40
0
 40
0
 40
0
 40
0
 40
1
 40
1
 40
1
 40
1
 10
555.680000
 20
405.040000
 30
0.0
 10
562.320000
 20
431.920000
 30
0.0
 10
565.920000
 20
458.320000
 30
0.0
 10
565.920000
 20
479.760000
 30
0.0
  0
SPLINE
  5
1af
100
AcDbEntity
  8
0
 62
7
100
AcDbSpline
 70
8
 71
3
 72
8
 73
4
 74
0
 40
0
 40
0
 40
0
 40
0
 40
1
 40
1
 40
1
 40
1
 10
565.920000
 20
479.760000
 30
0.0
 10
565.920000
 20
493.920000
 30
0.0
 10
565.840000
 20
494.960000
 30
0.0
 10
564.400000
 20
495.200000
 30
0.0
  0
SPLINE
  5
1b0
100
AcDbEntity
  8
0
 62
7
100
AcDbSpline
 70
8
 71
3
 72
8
 73
4
 74
0
 40
0
 40
0
 40
0
 40
0
 40
1
 40
1
 40
1
 40
1
 10
564.400000
 20
495.200000
 30
0.0
 10
563.520000
 20
495.360000
 30
0.0
 10
562.160000
 20
494.960000
 30
0.0
 10
561.280000
 20
494.320000
 30
0.0
  0
SPLINE
  5
1b1
100
AcDbEntity
  8
0
 62
7
100
AcDbSpline
 70
8
 71
3
 72
8
 73
4
 74
0
 40
0
 40
0
 40
0
 40
0
 40
1
 40
1
 40
1
 40
1
 10
561.280000
 20
494.320000
 30
0.0
 10
560.000000
 20
493.360000
 30
0.0
 10
559.680000
 20
491.440000
 30
0.0
 10
559.280000
 20
482.800000
 30
0.0
  0
SPLINE
  5
1b2
100
AcDbEntity
  8
0
 62
7
100
AcDbSpline
 70
8
 71
3
 72
8
 73
4
 74
0
 40
0
 40
0
 40
0
 40
0
 40
1
 40
1
 40
1
 40
1
 10
559.280000
 20
482.800000
 30
0.0
 10
558.400000
 20
464.320000
 30
0.0
 10
552.720000
 20
433.760000
 30
0.0
 10
545.760000
 20
410.960000
 30
0.0
  0
SPLINE
  5
1b3
100
AcDbEntity
  8
0
 62
7
100
AcDbSpline
 70
8
 71
3
 72
8
 73
4
 74
0
 40
0
 40
0
 40
0
 40
0
 40
1
 40
1
 40
1
 40
1
 10
545.760000
 20
410.960000
 30
0.0
 10
544.800000
 20
407.760000
 30
0.0
 10
543.760000
 20
404.000000
 30
0.0
 10
543.440000
 20
402.640000
 30
0.0
  0
SPLINE
  5
1b4
100
AcDbEntity
  8
0
 62
7
100
AcDbSpline
 70
8
 71
3
 72
8
 73
4
 74
0
 40
0
 40
0
 40
0
 40
0
 40
1
 40
1
 40
1
 40
1
 10
543.440000
 20
402.640000
 30
0.0
 10
543.120000
 20
401.200000
 30
0.0
 10
542.400000
 20
398.960000
 30
0.0
 10
541.840000
 20
397.520000
 30
0.0
  0
SPLINE
  5
1b5
100
AcDbEntity
  8
0
 62
7
100
AcDbSpline
 70
8
 71
3
 72
8
 73
4
 74
0
 40
0
 40
0
 40
0
 40
0
 40
1
 40
1
 40
1
 40
1
 10
541.840000
 20
397.520000
 30
0.0
 10
541.360000
 20
396.160000
 30
0.0
 10
540.320000
 20
392.960000
 30
0.0
 10
539.520000
 20
390.400000
 30
0.0
  0
SPLINE
  5
1b6
100
AcDbEntity
  8
0
 62
7
100
AcDbSpline
 70
8
 71
3
 72
8
 73
4
 74
0
 40
0
 40
0
 40
0
 40
0
 40
1
 40
1
 40
1
 40
1
 10
539.520000
 20
390.400000
 30
0.0
 10
537.680000
 20
384.240000
 30
0.0
 10
535.040000
 20
379.280000
 30
0.0
 10
534.000000
 20
379.840000
 30
0.0
  0
SPLINE
  5
1b7
100
AcDbEntity
  8
0
 62
7
100
AcDbSpline
 70
8
 71
3
 72
8
 73
4
 74
0
 40
0
 40
0
 40
0
 40
0
 40
1
 40
1
 40
1
 40
1
 10
534.000000
 20
379.840000
 30
0.0
 10
532.560000
 20
380.560000
 30
0.0
 10
533.040000
 20
383.440000
 30
0.0
 10
536.560000
 20
396.400000
 30
0.0
  0
SPLINE
  5
1b8
100
AcDbEntity
  8
0
 62
7
100
AcDbSpline
 70
8
 71
3
 72
8
 73
4
 74
0
 40
0
 40
0
 40
0
 40
0
 40
1
 40
1
 40
1
 40
1
 10
536.560000
 20
396.400000
 30
0.0
 10
540.480000
 20
410.720000
 30
0.0
 10
541.920000
 20
416.480000
 30
0.0
 10
543.760000
 20
425.120000
 30
0.0
  0
SPLINE
  5
1b9
100
AcDbEntity
  8
0
 62
7
100
AcDbSpline
 70
8
 71
3
 72
8
 73
4
 74
0
 40
0
 40
0
 40
0
 40
0
 40
1
 40
1
 40
1
 40
1
 10
543.760000
 20
425.120000
 30
0.0
 10
544.480000
 20
428.480000
 30
0.0
 10
545.600000
 20
433.920000
 30
0.0
 10
546.320000
 20
437.200000
 30
0.0
  0
SPLINE
  5
1ba
100
AcDbEntity
  8
0
 62
7
100
AcDbSpline
 70
8
 71
3
 72
8
 73
4
 74
0
 40
0
 40
0
 40
0
 40
0
 40
1
 40
1
 40
1
 40
1
 10
546.320000
 20
437.200000
 30
0.0
 10
547.040000
 20
440.560000
 30
0.0
 10
547.680000
 20
444.560000
 30
0.0
 10
547.680000
 20
446.320000
 30
0.0
  0
SPLINE
  5
1bb
100
AcDbEntity
  8
0
 62
7
100
AcDbSpline
 70
8
 71
3
 72
8
 73
4
 74
0
 40
0
 40
0
 40
0
 40
0
 40
1
 40
1
 40
1
 40
1
 10
547.680000
 20
446.320000
 30
0.0
 10
547.680000
 20
448.000000
 30
0.0
 10
548.080000
 20
450.800000
 30
0.0
 10
548.560000
 20
452.640000
 30
0.0
  0
SPLINE
  5
1bc
100
AcDbEntity
  8
0
 62
7
100
AcDbSpline
 70
8
 71
3
 72
8
 73
4
 74
0
 40
0
 40
0
 40
0
 40
0
 40
1
 40
1
 40
1
 40
1
 10
548.560000
 20
452.640000
 30
0.0
 10
549.840000
 20
458.000000
 30
0.0
 10
551.200000
 20
485.760000
 30
0.0
 10
550.160000
 20
487.440000
 30
0.0
  0
SPLINE
  5
1bd
100
AcDbEntity
  8
0
 62
7
100
AcDbSpline
 70
8
 71
3
 72
8
 73
4
 74
0
 40
0
 40
0
 40
0
 40
0
 40
1
 40
1
 40
1
 40
1
 10
550.160000
 20
487.440000
 30
0.0
 10
548.960000
 20
489.280000
 30
0.0
 10
545.760000
 20
489.200000
 30
0.0
 10
543.600000
 20
487.200000
 30
0.0
  0
SPLINE
  5
1be
100
AcDbEntity
  8
0
 62
7
100
AcDbSpline
 70
8
 71
3
 72
8
 73
4
 74
0
 40
0
 40
0
 40
0
 40
0
 40
1
 40
1
 40
1
 40
1
 10
543.600000
 20
487.200000
 30
0.0
 10
542.160000
 20
485.920000
 30
0.0
 10
541.760000
 20
484.240000
 30
0.0
 10
541.280000
 20
479.040000
 30
0.0
  0
SPLINE
  5
1bf
100
AcDbEntity
  8
0
 62
7
100
AcDbSpline
 70
8
 71
3
 72
8
 73
4
 74
0
 40
0
 40
0
 40
0
 40
0
 40
1
 40
1
 40
1
 40
1
 10
541.280000
 20
479.040000
 30
0.0
 10
538.880000
 20
449.520000
 30
0.0
 10
533.600000
 20
421.680000
 30
0.0
 10
525.920000
 20
397.920000
 30
0.0
  0
SPLINE
  5
1c0
100
AcDbEntity
  8
0
 62
7
100
AcDbSpline
 70
8
 71
3
 72
8
 73
4
 74
0
 40
0
 40
0
 40
0
 40
0
 40
1
 40
1
 40
1
 40
1
 10
525.920000
 20
397.920000
 30
0.0
 10
525.280000
 20
395.920000
 30
0.0
 10
524.080000
 20
392.160000
 30
0.0
 10
523.360000
 20
389.600000
 30
0.0
  0
SPLINE
  5
1c1
100
AcDbEntity
  8
0
 62
7
100
AcDbSpline
 70
8
 71
3
 72
8
 73
4
 74
0
 40
0
 40
0
 40
0
 40
0
 40
1
 40
1
 40
1
 40
1
 10
523.360000
 20
389.600000
 30
0.0
 10
521.760000
 20
384.160000
 30
0.0
 10
519.440000
 20
379.520000
 30
0.0
 10
518.400000
 20
379.440000
 30
0.0
  0
SPLINE
  5
1c2
100
AcDbEntity
  8
0
 62
7
100
AcDbSpline
 70
8
 71
3
 72
8
 73
4
 74
0
 40
0
 40
0
 40
0
 40
0
 40
1
 40
1
 40
1
 40
1
 10
518.400000
 20
379.440000
 30
0.0
 10
517.520000
 20
379.440000
 30
0.0
 10
518.400000
 20
386.320000
 30
0.0
 10
519.680000
 20
390.640000
 30
0.0
  0
SPLINE
  5
1c3
100
AcDbEntity
  8
0
 62
7
100
AcDbSpline
 70
8
 71
3
 72
8
 73
4
 74
0
 40
0
 40
0
 40
0
 40
0
 40
1
 40
1
 40
1
 40
1
 10
519.680000
 20
390.640000
 30
0.0
 10
520.160000
 20
392.240000
 30
0.0
 10
520.880000
 20
395.200000
 30
0.0
 10
521.280000
 20
397.200000
 30
0.0
  0
SPLINE
  5
1c4
100
AcDbEntity
  8
0
 62
7
100
AcDbSpline
 70
8
 71
3
 72
8
 73
4
 74
0
 40
0
 40
0
 40
0
 40
0
 40
1
 40
1
 40
1
 40
1
 10
521.280000
 20
397.200000
 30
0.0
 10
521.920000
 20
400.720000
 30
0.0
 10
523.600000
 20
408.480000
 30
0.0
 10
525.360000
 20
416.400000
 30
0.0
  0
SPLINE
  5
1c5
100
AcDbEntity
  8
0
 62
7
100
AcDbSpline
 70
8
 71
3
 72
8
 73
4
 74
0
 40
0
 40
0
 40
0
 40
0
 40
1
 40
1
 40
1
 40
1
 10
525.360000
 20
416.400000
 30
0.0
 10
529.360000
 20
433.920000
 30
0.0
 10
533.120000
 20
464.080000
 30
0.0
 10
533.120000
 20
478.240000
 30
0.0
  0
SPLINE
  5
1c6
100
AcDbEntity
  8
0
 62
7
100
AcDbSpline
 70
8
 71
3
 72
8
 73
4
 74
0
 40
0
 40
0
 40
0
 40
0
 40
1
 40
1
 40
1
 40
1
 10
533.120000
 20
478.240000
 30
0.0
 10
533.200000
 20
484.800000
 30
0.0
 10
531.360000
 20
487.120000
 30
0.0
 10
525.680000
 20
487.760000
 30
0.0
  0
SPLINE
  5
1c7
100
AcDbEntity
  8
0
 62
7
100
AcDbSpline
 70
8
 71
3
 72
8
 73
4
 74
0
 40
0
 40
0
 40
0
 40
0
 40
1
 40
1
 40
1
 40
1
 10
525.680000
 20
487.760000
 30
0.0
 10
520.880000
 20
488.400000
 30
0.0
 10
515.360000
 20
490.400000
 30
0.0
 10
513.440000
 20
492.240000
 30
0.0
  0
SPLINE
  5
1c8
100
AcDbEntity
  8
0
 62
7
100
AcDbSpline
 70
8
 71
3
 72
8
 73
4
 74
0
 40
0
 40
0
 40
0
 40
0
 40
1
 40
1
 40
1
 40
1
 10
513.440000
 20
492.240000
 30
0.0
 10
511.920000
 20
493.680000
 30
0.0
 10
510.240000
 20
498.400000
 30
0.0
 10
510.240000
 20
501.200000
 30
0.0
  0
SPLINE
  5
1c9
100
AcDbEntity
  8
0
 62
7
100
AcDbSpline
 70
8
 71
3
 72
8
 73
4
 74
0
 40
0
 40
0
 40
0
 40
0
 40
1
 40
1
 40
1
 40
1
 10
510.240000
 20
501.200000
 30
0.0
 10
510.160000
 20
502.400000
 30
0.0
 10
509.440000
 20
503.520000
 30
0.0
 10
508.160000
 20
504.240000
 30
0.0
  0
SPLINE
  5
1ca
100
AcDbEntity
  8
0
 62
7
100
AcDbSpline
 70
8
 71
3
 72
8
 73
4
 74
0
 40
0
 40
0
 40
0
 40
0
 40
1
 40
1
 40
1
 40
1
 10
508.160000
 20
504.240000
 30
0.0
 10
507.040000
 20
504.880000
 30
0.0
 10
505.360000
 20
506.720000
 30
0.0
 10
504.320000
 20
508.320000
 30
0.0
  0
SPLINE
  5
1cb
100
AcDbEntity
  8
0
 62
7
100
AcDbSpline
 70
8
 71
3
 72
8
 73
4
 74
0
 40
0
 40
0
 40
0
 40
0
 40
1
 40
1
 40
1
 40
1
 10
504.320000
 20
508.320000
 30
0.0
 10
502.800000
 20
510.960000
 30
0.0
 10
502.560000
 20
512.560000
 30
0.0
 10
502.560000
 20
520.720000
 30
0.0
  0
SPLINE
  5
1cc
100
AcDbEntity
  8
0
 62
7
100
AcDbSpline
 70
8
 71
3
 72
8
 73
4
 74
0
 40
0
 40
0
 40
0
 40
0
 40
1
 40
1
 40
1
 40
1
 10
502.560000
 20
520.720000
 30
0.0
 10
502.560000
 20
530.720000
 30
0.0
 10
502.800000
 20
531.600000
 30
0.0
 10
507.440000
 20
535.920000
 30
0.0
  0
SPLINE
  5
1cd
100
AcDbEntity
  8
0
 62
7
100
AcDbSpline
 70
8
 71
3
 72
8
 73
4
 74
0
 40
0
 40
0
 40
0
 40
0
 40
1
 40
1
 40
1
 40
1
 10
507.440000
 20
535.920000
 30
0.0
 10
511.840000
 20
539.920000
 30
0.0
 10
513.040000
 20
542.480000
 30
0.0
 10
513.120000
 20
547.520000
 30
0.0
  0
SPLINE
  5
1ce
100
AcDbEntity
  8
0
 62
7
100
AcDbSpline
 70
8
 71
3
 72
8
 73
4
 74
0
 40
0
 40
0
 40
0
 40
0
 40
1
 40
1
 40
1
 40
1
 10
513.120000
 20
547.520000
 30
0.0
 10
513.120000
 20
550.160000
 30
0.0
 10
512.720000
 20
553.120000
 30
0.0
 10
512.160000
 20
554.080000
 30
0.0
  0
SPLINE
  5
1cf
100
AcDbEntity
  8
0
 62
7
100
AcDbSpline
 70
8
 71
3
 72
8
 73
4
 74
0
 40
0
 40
0
 40
0
 40
0
 40
1
 40
1
 40
1
 40
1
 10
512.160000
 20
554.080000
 30
0.0
 10
511.680000
 20
555.040000
 30
0.0
 10
510.400000
 20
557.440000
 30
0.0
 10
509.360000
 20
559.440000
 30
0.0
  0
SPLINE
  5
1d0
100
AcDbEntity
  8
0
 62
7
100
AcDbSpline
 70
8
 71
3
 72
8
 73
4
 74
0
 40
0
 40
0
 40
0
 40
0
 40
1
 40
1
 40
1
 40
1
 10
509.360000
 20
559.440000
 30
0.0
 10
508.400000
 20
561.440000
 30
0.0
 10
506.960000
 20
564.160000
 30
0.0
 10
506.320000
 20
565.440000
 30
0.0
  0
SPLINE
  5
1d1
100
AcDbEntity
  8
0
 62
7
100
AcDbSpline
 70
8
 71
3
 72
8
 73
4
 74
0
 40
0
 40
0
 40
0
 40
0
 40
1
 40
1
 40
1
 40
1
 10
506.320000
 20
565.440000
 30
0.0
 10
505.680000
 20
566.720000
 30
0.0
 10
504.480000
 20
569.040000
 30
0.0
 10
503.760000
 20
570.480000
 30
0.0
  0
SPLINE
  5
1d2
100
AcDbEntity
  8
0
 62
7
100
AcDbSpline
 70
8
 71
3
 72
8
 73
4
 74
0
 40
0
 40
0
 40
0
 40
0
 40
1
 40
1
 40
1
 40
1
 10
503.760000
 20
570.480000
 30
0.0
 10
503.040000
 20
572.000000
 30
0.0
 10
501.840000
 20
574.160000
 30
0.0
 10
501.200000
 20
575.280000
 30
0.0
  0
SPLINE
  5
1d3
100
AcDbEntity
  8
0
 62
7
100
AcDbSpline
 70
8
 71
3
 72
8
 73
4
 74
0
 40
0
 40
0
 40
0
 40
0
 40
1
 40
1
 40
1
 40
1
 10
501.200000
 20
575.280000
 30
0.0
 10
500.560000
 20
576.400000
 30
0.0
 10
500.000000
 20
577.600000
 30
0.0
 10
500.000000
 20
578.000000
 30
0.0
  0
SPLINE
  5
1d4
100
AcDbEntity
  8
0
 62
7
100
AcDbSpline
 70
8
 71
3
 72
8
 73
4
 74
0
 40
0
 40
0
 40
0
 40
0
 40
1
 40
1
 40
1
 40
1
 10
500.000000
 20
578.000000
 30
0.0
 10
500.000000
 20
578.320000
 30
0.0
 10
498.480000
 20
581.360000
 30
0.0
 10
496.720000
 20
584.640000
 30
0.0
  0
SPLINE
  5
1d5
100
AcDbEntity
  8
0
 62
7
100
AcDbSpline
 70
8
 71
3
 72
8
 73
4
 74
0
 40
0
 40
0
 40
0
 40
0
 40
1
 40
1
 40
1
 40
1
 10
496.720000
 20
584.640000
 30
0.0
 10
494.880000
 20
587.920000
 30
0.0
 10
491.520000
 20
594.000000
 30
0.0
 10
489.280000
 20
598.160000
 30
0.0
  0
SPLINE
  5
1d6
100
AcDbEntity
  8
0
 62
7
100
AcDbSpline
 70
8
 71
3
 72
8
 73
4
 74
0
 40
0
 40
0
 40
0
 40
0
 40
1
 40
1
 40
1
 40
1
 10
489.280000
 20
598.160000
 30
0.0
 10
484.160000
 20
607.760000
 30
0.0
 10
478.240000
 20
617.440000
 30
0.0
 10
475.680000
 20
620.400000
 30
0.0
  0
LINE
  5
1d7
100
AcDbEntity
  8
0
 62
7
100
AcDbLine
 10
475.680000
 20
620.400000
 30
0.0
 11
473.680000
 21
622.640000
 31
0.0
  0
LINE
  5
1d8
100
AcDbEntity
  8
0
 62
7
100
AcDbLine
 10
473.680000
 20
622.640000
 30
0.0
 11
462.800000
 21
623.040000
 31
0.0
  0
SPLINE
  5
1d9
100
AcDbEntity
  8
0
 62
7
100
AcDbSpline
 70
8
 71
3
 72
8
 73
4
 74
0
 40
0
 40
0
 40
0
 40
0
 40
1
 40
1
 40
1
 40
1
 10
462.800000
 20
623.040000
 30
0.0
 10
454.480000
 20
623.280000
 30
0.0
 10
450.800000
 20
623.760000
 30
0.0
 10
447.360000
 20
624.960000
 30
0.0
  0
SPLINE
  5
1da
100
AcDbEntity
  8
0
 62
7
100
AcDbSpline
 70
8
 71
3
 72
8
 73
4
 74
0
 40
0
 40
0
 40
0
 40
0
 40
1
 40
1
 40
1
 40
1
 10
447.360000
 20
624.960000
 30
0.0
 10
440.880000
 20
627.120000
 30
0.0
 10
433.120000
 20
630.640000
 30
0.0
 10
431.760000
 20
632.000000
 30
0.0
  0
SPLINE
  5
1db
100
AcDbEntity
  8
0
 62
7
100
AcDbSpline
 70
8
 71
3
 72
8
 73
4
 74
0
 40
0
 40
0
 40
0
 40
0
 40
1
 40
1
 40
1
 40
1
 10
431.760000
 20
632.000000
 30
0.0
 10
431.200000
 20
632.640000
 30
0.0
 10
430.080000
 20
633.360000
 30
0.0
 10
429.280000
 20
633.600000
 30
0.0
  0
SPLINE
  5
1dc
100
AcDbEntity
  8
0
 62
7
100
AcDbSpline
 70
8
 71
3
 72
8
 73
4
 74
0
 40
0
 40
0
 40
0
 40
0
 40
1
 40
1
 40
1
 40
1
 10
429.280000
 20
633.600000
 30
0.0
 10
427.920000
 20
634.000000
 30
0.0
 10
425.040000
 20
636.000000
 30
0.0
 10
417.200000
 20
641.840000
 30
0.0
  0
SPLINE
  5
1dd
100
AcDbEntity
  8
0
 62
7
100
AcDbSpline
 70
8
 71
3
 72
8
 73
4
 74
0
 40
0
 40
0
 40
0
 40
0
 40
1
 40
1
 40
1
 40
1
 10
417.200000
 20
641.840000
 30
0.0
 10
411.600000
 20
646.080000
 30
0.0
 10
409.600000
 20
645.360000
 30
0.0
 10
408.080000
 20
638.720000
 30
0.0
  0
SPLINE
  5
1de
100
AcDbEntity
  8
0
 62
7
100
AcDbSpline
 70
8
 71
3
 72
8
 73
4
 74
0
 40
0
 40
0
 40
0
 40
0
 40
1
 40
1
 40
1
 40
1
 10
408.080000
 20
638.720000
 30
0.0
 10
406.960000
 20
633.680000
 30
0.0
 10
405.680000
 20
629.440000
 30
0.0
 10
404.320000
 20
626.800000
 30
0.0
  0
SPLINE
  5
1df
100
AcDbEntity
  8
0
 62
7
100
AcDbSpline
 70
8
 71
3
 72
8
 73
4
 74
0
 40
0
 40
0
 40
0
 40
0
 40
1
 40
1
 40
1
 40
1
 10
404.320000
 20
626.800000
 30
0.0
 10
403.760000
 20
625.600000
 30
0.0
 10
402.800000
 20
623.440000
 30
0.0
 10
402.240000
 20
622.000000
 30
0.0
  0
SPLINE
  5
1e0
100
AcDbEntity
  8
0
 62
7
100
AcDbSpline
 70
8
 71
3
 72
8
 73
4
 74
0
 40
0
 40
0
 40
0
 40
0
 40
1
 40
1
 40
1
 40
1
 10
402.240000
 20
622.000000
 30
0.0
 10
400.800000
 20
618.160000
 30
0.0
 10
392.720000
 20
605.440000
 30
0.0
 10
385.920000
 20
596.400000
 30
0.0
  0
SPLINE
  5
1e1
100
AcDbEntity
  8
0
 62
7
100
AcDbSpline
 70
8
 71
3
 72
8
 73
4
 74
0
 40
0
 40
0
 40
0
 40
0
 40
1
 40
1
 40
1
 40
1
 10
385.920000
 20
596.400000
 30
0.0
 10
382.640000
 20
592.000000
 30
0.0
 10
378.960000
 20
586.640000
 30
0.0
 10
377.760000
 20
584.480000
 30
0.0
  0
LINE
  5
1e2
100
AcDbEntity
  8
0
 62
7
100
AcDbLine
 10
377.760000
 20
584.480000
 30
0.0
 11
375.520000
 21
580.640000
 31
0.0
  0
LINE
  5
1e3
100
AcDbEntity
  8
0
 62
7
100
AcDbLine
 10
375.520000
 20
580.640000
 30
0.0
 11
377.360000
 21
575.840000
 31
0.0
  0
SPLINE
  5
1e4
100
AcDbEntity
  8
0
 62
7
100
AcDbSpline
 70
8
 71
3
 72
8
 73
4
 74
0
 40
0
 40
0
 40
0
 40
0
 40
1
 40
1
 40
1
 40
1
 10
377.360000
 20
575.840000
 30
0.0
 10
378.320000
 20
573.200000
 30
0.0
 10
379.360000
 20
569.360000
 30
0.0
 10
379.600000
 20
567.440000
 30
0.0
  0
SPLINE
  5
1e5
100
AcDbEntity
  8
0
 62
7
100
AcDbSpline
 70
8
 71
3
 72
8
 73
4
 74
0
 40
0
 40
0
 40
0
 40
0
 40
1
 40
1
 40
1
 40
1
 10
379.600000
 20
567.440000
 30
0.0
 10
380.720000
 20
559.120000
 30
0.0
 10
382.880000
 20
548.960000
 30
0.0
 10
384.480000
 20
543.840000
 30
0.0
  0
SPLINE
  5
1e6
100
AcDbEntity
  8
0
 62
7
100
AcDbSpline
 70
8
 71
3
 72
8
 73
4
 74
0
 40
0
 40
0
 40
0
 40
0
 40
1
 40
1
 40
1
 40
1
 10
384.480000
 20
543.840000
 30
0.0
 10
385.440000
 20
540.880000
 30
0.0
 10
386.480000
 20
537.440000
 30
0.0
 10
386.800000
 20
536.240000
 30
0.0
  0
SPLINE
  5
1e7
100
AcDbEntity
  8
0
 62
7
100
AcDbSpline
 70
8
 71
3
 72
8
 73
4
 74
0
 40
0
 40
0
 40
0
 40
0
 40
1
 40
1
 40
1
 40
1
 10
386.800000
 20
536.240000
 30
0.0
 10
387.120000
 20
535.040000
 30
0.0
 10
388.400000
 20
532.000000
 30
0.0
 10
389.680000
 20
529.360000
 30
0.0
  0
SPLINE
  5
1e8
100
AcDbEntity
  8
0
 62
7
100
AcDbSpline
 70
8
 71
3
 72
8
 73
4
 74
0
 40
0
 40
0
 40
0
 40
0
 40
1
 40
1
 40
1
 40
1
 10
389.680000
 20
529.360000
 30
0.0
 10
394.240000
 20
519.600000
 30
0.0
 10
399.680000
 20
503.840000
 30
0.0
 10
400.160000
 20
499.120000
 30
0.0
  0
SPLINE
  5
1e9
100
AcDbEntity
  8
0
 62
7
100
AcDbSpline
 70
8
 71
3
 72
8
 73
4
 74
0
 40
0
 40
0
 40
0
 40
0
 40
1
 40
1
 40
1
 40
1
 10
400.160000
 20
499.120000
 30
0.0
 10
401.120000
 20
488.800000
 30
0.0
 10
395.920000
 20
477.680000
 30
0.0
 10
383.920000
 20
464.560000
 30
0.0
  0
SPLINE
  5
1ea
100
AcDbEntity
  8
0
 62
7
100
AcDbSpline
 70
8
 71
3
 72
8
 73
4
 74
0
 40
0
 40
0
 40
0
 40
0
 40
1
 40
1
 40
1
 40
1
 10
383.920000
 20
464.560000
 30
0.0
 10
379.520000
 20
459.760000
 30
0.0
 10
367.120000
 20
449.680000
 30
0.0
 10
362.160000
 20
446.880000
 30
0.0
  0
SPLINE
  5
1eb
100
AcDbEntity
  8
0
 62
7
100
AcDbSpline
 70
8
 71
3
 72
8
 73
4
 74
0
 40
0
 40
0
 40
0
 40
0
 40
1
 40
1
 40
1
 40
1
 10
362.160000
 20
446.880000
 30
0.0
 10
359.600000
 20
445.440000
 30
0.0
 10
356.960000
 20
443.840000
 30
0.0
 10
356.320000
 20
443.360000
 30
0.0
  0
SPLINE
  5
1ec
100
AcDbEntity
  8
0
 62
7
100
AcDbSpline
 70
8
 71
3
 72
8
 73
4
 74
0
 40
0
 40
0
 40
0
 40
0
 40
1
 40
1
 40
1
 40
1
 10
356.320000
 20
443.360000
 30
0.0
 10
355.760000
 20
442.880000
 30
0.0
 10
352.480000
 20
441.120000
 30
0.0
 10
349.120000
 20
439.440000
 30
0.0
  0
SPLINE
  5
1ed
100
AcDbEntity
  8
0
 62
7
100
AcDbSpline
 70
8
 71
3
 72
8
 73
4
 74
0
 40
0
 40
0
 40
0
 40
0
 40
1
 40
1
 40
1
 40
1
 10
349.120000
 20
439.440000
 30
0.0
 10
339.840000
 20
434.800000
 30
0.0
 10
335.040000
 20
430.240000
 30
0.0
 10
330.640000
 20
421.760000
 30
0.0
  0
SPLINE
  5
1ee
100
AcDbEntity
  8
0
 62
7
100
AcDbSpline
 70
8
 71
3
 72
8
 73
4
 74
0
 40
0
 40
0
 40
0
 40
0
 40
1
 40
1
 40
1
 40
1
 10
330.640000
 20
421.760000
 30
0.0
 10
327.200000
 20
414.960000
 30
0.0
 10
323.440000
 20
408.400000
 30
0.0
 10
321.040000
 20
405.200000
 30
0.0
  0
SPLINE
  5
1ef
100
AcDbEntity
  8
0
 62
7
100
AcDbSpline
 70
8
 71
3
 72
8
 73
4
 74
0
 40
0
 40
0
 40
0
 40
0
 40
1
 40
1
 40
1
 40
1
 10
321.040000
 20
405.200000
 30
0.0
 10
320.480000
 20
404.400000
 30
0.0
 10
316.480000
 20
398.960000
 30
0.0
 10
312.160000
 20
393.120000
 30
0.0
  0
SPLINE
  5
1f0
100
AcDbEntity
  8
0
 62
7
100
AcDbSpline
 70
8
 71
3
 72
8
 73
4
 74
0
 40
0
 40
0
 40
0
 40
0
 40
1
 40
1
 40
1
 40
1
 10
312.160000
 20
393.120000
 30
0.0
 10
307.840000
 20
387.280000
 30
0.0
 10
304.320000
 20
382.160000
 30
0.0
 10
304.320000
 20
381.760000
 30
0.0
  0
SPLINE
  5
1f1
100
AcDbEntity
  8
0
 62
7
100
AcDbSpline
 70
8
 71
3
 72
8
 73
4
 74
0
 40
0
 40
0
 40
0
 40
0
 40
1
 40
1
 40
1
 40
1
 10
304.320000
 20
381.760000
 30
0.0
 10
304.320000
 20
381.360000
 30
0.0
 10
305.600000
 20
380.160000
 30
0.0
 10
307.280000
 20
379.120000
 30
0.0
  0
SPLINE
  5
1f2
100
AcDbEntity
  8
0
 62
7
100
AcDbSpline
 70
8
 71
3
 72
8
 73
4
 74
0
 40
0
 40
0
 40
0
 40
0
 40
1
 40
1
 40
1
 40
1
 10
307.280000
 20
379.120000
 30
0.0
 10
309.680000
 20
377.600000
 30
0.0
 10
310.240000
 20
376.720000
 30
0.0
 10
310.240000
 20
374.720000
 30
0.0
  0
SPLINE
  5
1f3
100
AcDbEntity
  8
0
 62
7
100
AcDbSpline
 70
8
 71
3
 72
8
 73
4
 74
0
 40
0
 40
0
 40
0
 40
0
 40
1
 40
1
 40
1
 40
1
 10
310.240000
 20
374.720000
 30
0.0
 10
310.240000
 20
372.080000
 30
0.0
 10
309.680000
 20
372.400000
 30
0.0
 10
325.600000
 20
366.320000
 30
0.0
  0
SPLINE
  5
1f4
100
AcDbEntity
  8
0
 62
7
100
AcDbSpline
 70
8
 71
3
 72
8
 73
4
 74
0
 40
0
 40
0
 40
0
 40
0
 40
1
 40
1
 40
1
 40
1
 10
325.600000
 20
366.320000
 30
0.0
 10
336.240000
 20
362.160000
 30
0.0
 10
344.800000
 20
358.240000
 30
0.0
 10
349.440000
 20
355.200000
 30
0.0
  0
SPLINE
  5
1f5
100
AcDbEntity
  8
0
 62
7
100
AcDbSpline
 70
8
 71
3
 72
8
 73
4
 74
0
 40
0
 40
0
 40
0
 40
0
 40
1
 40
1
 40
1
 40
1
 10
349.440000
 20
355.200000
 30
0.0
 10
356.320000
 20
350.640000
 30
0.0
 10
369.440000
 20
339.360000
 30
0.0
 10
372.800000
 20
335.040000
 30
0.0
  0
SPLINE
  5
1f6
100
AcDbEntity
  8
0
 62
7
100
AcDbSpline
 70
8
 71
3
 72
8
 73
4
 74
0
 40
0
 40
0
 40
0
 40
0
 40
1
 40
1
 40
1
 40
1
 10
372.800000
 20
335.040000
 30
0.0
 10
374.400000
 20
332.960000
 30
0.0
 10
377.280000
 20
329.680000
 30
0.0
 10
379.200000
 20
327.680000
 30
0.0
  0
SPLINE
  5
1f7
100
AcDbEntity
  8
0
 62
7
100
AcDbSpline
 70
8
 71
3
 72
8
 73
4
 74
0
 40
0
 40
0
 40
0
 40
0
 40
1
 40
1
 40
1
 40
1
 10
379.200000
 20
327.680000
 30
0.0
 10
381.040000
 20
325.680000
 30
0.0
 10
383.200000
 20
323.200000
 30
0.0
 10
384.000000
 20
322.240000
 30
0.0
  0
SPLINE
  5
1f8
100
AcDbEntity
  8
0
 62
7
100
AcDbSpline
 70
8
 71
3
 72
8
 73
4
 74
0
 40
0
 40
0
 40
0
 40
0
 40
1
 40
1
 40
1
 40
1
 10
384.000000
 20
322.240000
 30
0.0
 10
384.800000
 20
321.200000
 30
0.0
 10
386.720000
 20
319.200000
 30
0.0
 10
388.240000
 20
317.760000
 30
0.0
  0
SPLINE
  5
1f9
100
AcDbEntity
  8
0
 62
7
100
AcDbSpline
 70
8
 71
3
 72
8
 73
4
 74
0
 40
0
 40
0
 40
0
 40
0
 40
1
 40
1
 40
1
 40
1
 10
388.240000
 20
317.760000
 30
0.0
 10
389.760000
 20
316.320000
 30
0.0
 10
392.800000
 20
312.800000
 30
0.0
 10
394.960000
 20
309.920000
 30
0.0
  0
SPLINE
  5
1fa
100
AcDbEntity
  8
0
 62
7
100
AcDbSpline
 70
8
 71
3
 72
8
 73
4
 74
0
 40
0
 40
0
 40
0
 40
0
 40
1
 40
1
 40
1
 40
1
 10
394.960000
 20
309.920000
 30
0.0
 10
402.720000
 20
299.840000
 30
0.0
 10
409.920000
 20
294.480000
 30
0.0
 10
418.000000
 20
292.560000
 30
0.0
  0
SPLINE
  5
1fb
100
AcDbEntity
  8
0
 62
7
100
AcDbSpline
 70
8
 71
3
 72
8
 73
4
 74
0
 40
0
 40
0
 40
0
 40
0
 40
1
 40
1
 40
1
 40
1
 10
418.000000
 20
292.560000
 30
0.0
 10
421.040000
 20
291.920000
 30
0.0
 10
421.760000
 20
291.360000
 30
0.0
 10
422.560000
 20
289.200000
 30
0.0
  0
SPLINE
  5
1fc
100
AcDbEntity
  8
0
 62
7
100
AcDbSpline
 70
8
 71
3
 72
8
 73
4
 74
0
 40
0
 40
0
 40
0
 40
0
 40
1
 40
1
 40
1
 40
1
 10
422.560000
 20
289.200000
 30
0.0
 10
423.120000
 20
287.840000
 30
0.0
 10
423.360000
 20
286.160000
 30
0.0
 10
423.040000
 20
285.520000
 30
0.0
  0
SPLINE
  5
1fd
100
AcDbEntity
  8
0
 62
7
100
AcDbSpline
 70
8
 71
3
 72
8
 73
4
 74
0
 40
0
 40
0
 40
0
 40
0
 40
1
 40
1
 40
1
 40
1
 10
423.040000
 20
285.520000
 30
0.0
 10
422.320000
 20
284.000000
 30
0.0
 10
423.760000
 20
279.760000
 30
0.0
 10
427.360000
 20
273.200000
 30
0.0
  0
SPLINE
  5
1fe
100
AcDbEntity
  8
0
 62
7
100
AcDbSpline
 70
8
 71
3
 72
8
 73
4
 74
0
 40
0
 40
0
 40
0
 40
0
 40
1
 40
1
 40
1
 40
1
 10
427.360000
 20
273.200000
 30
0.0
 10
431.760000
 20
264.880000
 30
0.0
 10
431.760000
 20
264.960000
 30
0.0
 10
433.120000
 20
260.640000
 30
0.0
  0
SPLINE
  5
1ff
100
AcDbEntity
  8
0
 62
7
100
AcDbSpline
 70
8
 71
3
 72
8
 73
4
 74
0
 40
0
 40
0
 40
0
 40
0
 40
1
 40
1
 40
1
 40
1
 10
433.120000
 20
260.640000
 30
0.0
 10
435.440000
 20
253.200000
 30
0.0
 10
436.880000
 20
247.280000
 30
0.0
 10
437.360000
 20
243.200000
 30
0.0
  0
SPLINE
  5
200
100
AcDbEntity
  8
0
 62
7
100
AcDbSpline
 70
8
 71
3
 72
8
 73
4
 74
0
 40
0
 40
0
 40
0
 40
0
 40
1
 40
1
 40
1
 40
1
 10
437.360000
 20
243.200000
 30
0.0
 10
437.520000
 20
240.960000
 30
0.0
 10
438.560000
 20
235.520000
 30
0.0
 10
439.600000
 20
231.120000
 30
0.0
  0
SPLINE
  5
201
100
AcDbEntity
  8
0
 62
7
100
AcDbSpline
 70
8
 71
3
 72
8
 73
4
 74
0
 40
0
 40
0
 40
0
 40
0
 40
1
 40
1
 40
1
 40
1
 10
439.600000
 20
231.120000
 30
0.0
 10
442.320000
 20
219.360000
 30
0.0
 10
441.760000
 20
218.800000
 30
0.0
 10
425.520000
 20
216.080000
 30
0.0
  0
SPLINE
  5
202
100
AcDbEntity
  8
0
 62
7
100
AcDbSpline
 70
8
 71
3
 72
8
 73
4
 74
0
 40
0
 40
0
 40
0
 40
0
 40
1
 40
1
 40
1
 40
1
 10
425.520000
 20
216.080000
 30
0.0
 10
415.040000
 20
214.320000
 30
0.0
 10
404.960000
 20
212.880000
 30
0.0
 10
388.560000
 20
210.640000
 30
0.0
  0
SPLINE
  5
203
100
AcDbEntity
  8
0
 62
7
100
AcDbSpline
 70
8
 71
3
 72
8
 73
4
 74
0
 40
0
 40
0
 40
0
 40
0
 40
1
 40
1
 40
1
 40
1
 10
388.560000
 20
210.640000
 30
0.0
 10
372.160000
 20
208.480000
 30
0.0
 10
334.560000
 20
207.520000
 30
0.0
 10
318.560000
 20
208.880000
 30
0.0
  0
SPLINE
  5
204
100
AcDbEntity
  8
0
 62
7
100
AcDbSpline
 70
8
 71
3
 72
8
 73
4
 74
0
 40
0
 40
0
 40
0
 40
0
 40
1
 40
1
 40
1
 40
1
 10
318.560000
 20
208.880000
 30
0.0
 10
313.520000
 20
209.280000
 30
0.0
 10
312.640000
 20
209.600000
 30
0.0
 10
311.040000
 20
211.440000
 30
0.0
  0
SPLINE
  5
205
100
AcDbEntity
  8
0
 62
7
100
AcDbSpline
 70
8
 71
3
 72
8
 73
4
 74
0
 40
0
 40
0
 40
0
 40
0
 40
1
 40
1
 40
1
 40
1
 10
311.040000
 20
211.440000
 30
0.0
 10
310.080000
 20
212.640000
 30
0.0
 10
308.880000
 20
213.600000
 30
0.0
 10
308.400000
 20
213.600000
 30
0.0
  0
SPLINE
  5
206
100
AcDbEntity
  8
0
 62
7
100
AcDbSpline
 70
8
 71
3
 72
8
 73
4
 74
0
 40
0
 40
0
 40
0
 40
0
 40
1
 40
1
 40
1
 40
1
 10
308.400000
 20
213.600000
 30
0.0
 10
307.520000
 20
213.600000
 30
0.0
 10
307.600000
 20
211.440000
 30
0.0
 10
309.360000
 20
199.840000
 30
0.0
  0
SPLINE
  5
207
100
AcDbEntity
  8
0
 62
7
100
AcDbSpline
 70
8
 71
3
 72
8
 73
4
 74
0
 40
0
 40
0
 40
0
 40
0
 40
1
 40
1
 40
1
 40
1
 10
309.360000
 20
199.840000
 30
0.0
 10
310.720000
 20
190.640000
 30
0.0
 10
310.000000
 20
185.920000
 30
0.0
 10
306.880000
 20
183.680000
 30
0.0
  0
SPLINE
  5
208
100
AcDbEntity
  8
0
 62
7
100
AcDbSpline
 70
8
 71
3
 72
8
 73
4
 74
0
 40
0
 40
0
 40
0
 40
0
 40
1
 40
1
 40
1
 40
1
 10
306.880000
 20
183.680000
 30
0.0
 10
304.320000
 20
181.840000
 30
0.0
 10
302.800000
 20
181.280000
 30
0.0
 10
293.440000
 20
178.960000
 30
0.0
  0
SPLINE
  5
209
100
AcDbEntity
  8
0
 62
7
100
AcDbSpline
 70
8
 71
3
 72
8
 73
4
 74
0
 40
0
 40
0
 40
0
 40
0
 40
1
 40
1
 40
1
 40
1
 10
293.440000
 20
178.960000
 30
0.0
 10
280.160000
 20
175.600000
 30
0.0
 10
274.640000
 20
174.160000
 30
0.0
 10
266.400000
 20
171.920000
 30
0.0
  0
SPLINE
  5
20a
100
AcDbEntity
  8
0
 62
7
100
AcDbSpline
 70
8
 71
3
 72
8
 73
4
 74
0
 40
0
 40
0
 40
0
 40
0
 40
1
 40
1
 40
1
 40
1
 10
266.400000
 20
171.920000
 30
0.0
 10
261.760000
 20
170.640000
 30
0.0
 10
255.040000
 20
168.880000
 30
0.0
 10
251.520000
 20
168.000000
 30
0.0
  0
SPLINE
  5
20b
100
AcDbEntity
  8
0
 62
7
100
AcDbSpline
 70
8
 71
3
 72
8
 73
4
 74
0
 40
0
 40
0
 40
0
 40
0
 40
1
 40
1
 40
1
 40
1
 10
251.520000
 20
168.000000
 30
0.0
 10
248.000000
 20
167.120000
 30
0.0
 10
243.840000
 20
166.000000
 30
0.0
 10
242.160000
 20
165.440000
 30
0.0
  0
SPLINE
  5
20c
100
AcDbEntity
  8
0
 62
7
100
AcDbSpline
 70
8
 71
3
 72
8
 73
4
 74
0
 40
0
 40
0
 40
0
 40
0
 40
1
 40
1
 40
1
 40
1
 10
242.160000
 20
165.440000
 30
0.0
 10
240.560000
 20
164.880000
 30
0.0
 10
235.920000
 20
163.360000
 30
0.0
 10
232.000000
 20
162.160000
 30
0.0
  0
SPLINE
  5
20d
100
AcDbEntity
  8
0
 62
7
100
AcDbSpline
 70
8
 71
3
 72
8
 73
4
 74
0
 40
0
 40
0
 40
0
 40
0
 40
1
 40
1
 40
1
 40
1
 10
232.000000
 20
162.160000
 30
0.0
 10
228.000000
 20
160.880000
 30
0.0
 10
224.160000
 20
159.360000
 30
0.0
 10
223.440000
 20
158.800000
 30
0.0
  0
SPLINE
  5
20e
100
AcDbEntity
  8
0
 62
7
100
AcDbSpline
 70
8
 71
3
 72
8
 73
4
 74
0
 40
0
 40
0
 40
0
 40
0
 40
1
 40
1
 40
1
 40
1
 10
223.440000
 20
158.800000
 30
0.0
 10
221.680000
 20
157.520000
 30
0.0
 10
213.360000
 20
157.520000
 30
0.0
 10
211.120000
 20
158.800000
 30
0.0
  0
LINE
  5
20f
100
AcDbEntity
  8
0
 62
7
100
AcDbLine
 10
211.120000
 20
158.800000
 30
0.0
 11
211.120000
 21
158.800000
 31
0.0
  0
SPLINE
  5
210
100
AcDbEntity
  8
0
 62
7
100
AcDbSpline
 70
8
 71
3
 72
8
 73
4
 74
0
 40
0
 40
0
 40
0
 40
0
 40
1
 40
1
 40
1
 40
1
 10
308.000000
 20
215.600000
 30
0.0
 10
308.240000
 20
216.240000
 30
0.0
 10
308.720000
 20
218.640000
 30
0.0
 10
309.040000
 20
220.800000
 30
0.0
  0
SPLINE
  5
211
100
AcDbEntity
  8
0
 62
7
100
AcDbSpline
 70
8
 71
3
 72
8
 73
4
 74
0
 40
0
 40
0
 40
0
 40
0
 40
1
 40
1
 40
1
 40
1
 10
309.040000
 20
220.800000
 30
0.0
 10
309.360000
 20
222.960000
 30
0.0
 10
309.920000
 20
225.280000
 30
0.0
 10
310.240000
 20
225.840000
 30
0.0
  0
SPLINE
  5
212
100
AcDbEntity
  8
0
 62
7
100
AcDbSpline
 70
8
 71
3
 72
8
 73
4
 74
0
 40
0
 40
0
 40
0
 40
0
 40
1
 40
1
 40
1
 40
1
 10
310.240000
 20
225.840000
 30
0.0
 10
312.720000
 20
230.320000
 30
0.0
 10
314.160000
 20
231.680000
 30
0.0
 10
319.440000
 20
234.560000
 30
0.0
  0
SPLINE
  5
213
100
AcDbEntity
  8
0
 62
7
100
AcDbSpline
 70
8
 71
3
 72
8
 73
4
 74
0
 40
0
 40
0
 40
0
 40
0
 40
1
 40
1
 40
1
 40
1
 10
319.440000
 20
234.560000
 30
0.0
 10
322.720000
 20
236.400000
 30
0.0
 10
327.440000
 20
239.200000
 30
0.0
 10
329.920000
 20
240.800000
 30
0.0
  0
SPLINE
  5
214
100
AcDbEntity
  8
0
 62
7
100
AcDbSpline
 70
8
 71
3
 72
8
 73
4
 74
0
 40
0
 40
0
 40
0
 40
0
 40
1
 40
1
 40
1
 40
1
 10
329.920000
 20
240.800000
 30
0.0
 10
336.000000
 20
244.640000
 30
0.0
 10
340.080000
 20
246.640000
 30
0.0
 10
343.280000
 20
247.200000
 30
0.0
  0
SPLINE
  5
215
100
AcDbEntity
  8
0
 62
7
100
AcDbSpline
 70
8
 71
3
 72
8
 73
4
 74
0
 40
0
 40
0
 40
0
 40
0
 40
1
 40
1
 40
1
 40
1
 10
343.280000
 20
247.200000
 30
0.0
 10
346.080000
 20
247.760000
 30
0.0
 10
349.440000
 20
250.880000
 30
0.0
 10
352.400000
 20
255.840000
 30
0.0
  0
SPLINE
  5
216
100
AcDbEntity
  8
0
 62
7
100
AcDbSpline
 70
8
 71
3
 72
8
 73
4
 74
0
 40
0
 40
0
 40
0
 40
0
 40
1
 40
1
 40
1
 40
1
 10
352.400000
 20
255.840000
 30
0.0
 10
354.160000
 20
258.640000
 30
0.0
 10
361.760000
 20
265.760000
 30
0.0
 10
363.040000
 20
265.760000
 30
0.0
  0
SPLINE
  5
217
100
AcDbEntity
  8
0
 62
7
100
AcDbSpline
 70
8
 71
3
 72
8
 73
4
 74
0
 40
0
 40
0
 40
0
 40
0
 40
1
 40
1
 40
1
 40
1
 10
363.040000
 20
265.760000
 30
0.0
 10
364.320000
 20
265.760000
 30
0.0
 10
365.280000
 20
270.240000
 30
0.0
 10
364.640000
 20
272.880000
 30
0.0
  0
SPLINE
  5
218
100
AcDbEntity
  8
0
 62
7
100
AcDbSpline
 70
8
 71
3
 72
8
 73
4
 74
0
 40
0
 40
0
 40
0
 40
0
 40
1
 40
1
 40
1
 40
1
 10
364.640000
 20
272.880000
 30
0.0
 10
363.760000
 20
276.240000
 30
0.0
 10
361.920000
 20
277.680000
 30
0.0
 10
355.920000
 20
279.520000
 30
0.0
  0
SPLINE
  5
219
100
AcDbEntity
  8
0
 62
7
100
AcDbSpline
 70
8
 71
3
 72
8
 73
4
 74
0
 40
0
 40
0
 40
0
 40
0
 40
1
 40
1
 40
1
 40
1
 10
355.920000
 20
279.520000
 30
0.0
 10
350.000000
 20
281.280000
 30
0.0
 10
347.120000
 20
283.280000
 30
0.0
 10
342.960000
 20
288.640000
 30
0.0
  0
SPLINE
  5
21a
100
AcDbEntity
  8
0
 62
7
100
AcDbSpline
 70
8
 71
3
 72
8
 73
4
 74
0
 40
0
 40
0
 40
0
 40
0
 40
1
 40
1
 40
1
 40
1
 10
342.960000
 20
288.640000
 30
0.0
 10
339.520000
 20
293.040000
 30
0.0
 10
334.640000
 20
296.880000
 30
0.0
 10
332.400000
 20
296.880000
 30
0.0
  0
SPLINE
  5
21b
100
AcDbEntity
  8
0
 62
7
100
AcDbSpline
 70
8
 71
3
 72
8
 73
4
 74
0
 40
0
 40
0
 40
0
 40
0
 40
1
 40
1
 40
1
 40
1
 10
332.400000
 20
296.880000
 30
0.0
 10
329.040000
 20
296.880000
 30
0.0
 10
321.360000
 20
300.880000
 30
0.0
 10
318.320000
 20
304.240000
 30
0.0
  0
SPLINE
  5
21c
100
AcDbEntity
  8
0
 62
7
100
AcDbSpline
 70
8
 71
3
 72
8
 73
4
 74
0
 40
0
 40
0
 40
0
 40
0
 40
1
 40
1
 40
1
 40
1
 10
318.320000
 20
304.240000
 30
0.0
 10
312.640000
 20
310.640000
 30
0.0
 10
311.040000
 20
311.840000
 30
0.0
 10
306.320000
 20
313.440000
 30
0.0
  0
SPLINE
  5
21d
100
AcDbEntity
  8
0
 62
7
100
AcDbSpline
 70
8
 71
3
 72
8
 73
4
 74
0
 40
0
 40
0
 40
0
 40
0
 40
1
 40
1
 40
1
 40
1
 10
306.320000
 20
313.440000
 30
0.0
 10
303.600000
 20
314.320000
 30
0.0
 10
299.520000
 20
315.840000
 30
0.0
 10
297.360000
 20
316.800000
 30
0.0
  0
SPLINE
  5
21e
100
AcDbEntity
  8
0
 62
7
100
AcDbSpline
 70
8
 71
3
 72
8
 73
4
 74
0
 40
0
 40
0
 40
0
 40
0
 40
1
 40
1
 40
1
 40
1
 10
297.360000
 20
316.800000
 30
0.0
 10
290.080000
 20
320.080000
 30
0.0
 10
289.440000
 20
319.360000
 30
0.0
 10
290.640000
 20
308.880000
 30
0.0
  0
SPLINE
  5
21f
100
AcDbEntity
  8
0
 62
7
100
AcDbSpline
 70
8
 71
3
 72
8
 73
4
 74
0
 40
0
 40
0
 40
0
 40
0
 40
1
 40
1
 40
1
 40
1
 10
290.640000
 20
308.880000
 30
0.0
 10
292.640000
 20
291.680000
 30
0.0
 10
293.440000
 20
272.000000
 30
0.0
 10
292.480000
 20
263.760000
 30
0.0
  0
SPLINE
  5
220
100
AcDbEntity
  8
0
 62
7
100
AcDbSpline
 70
8
 71
3
 72
8
 73
4
 74
0
 40
0
 40
0
 40
0
 40
0
 40
1
 40
1
 40
1
 40
1
 10
292.480000
 20
263.760000
 30
0.0
 10
291.360000
 20
254.480000
 30
0.0
 10
291.920000
 20
252.320000
 30
0.0
 10
296.960000
 20
247.600000
 30
0.0
  0
SPLINE
  5
221
100
AcDbEntity
  8
0
 62
7
100
AcDbSpline
 70
8
 71
3
 72
8
 73
4
 74
0
 40
0
 40
0
 40
0
 40
0
 40
1
 40
1
 40
1
 40
1
 10
296.960000
 20
247.600000
 30
0.0
 10
300.240000
 20
244.560000
 30
0.0
 10
301.440000
 20
241.200000
 30
0.0
 10
300.080000
 20
239.040000
 30
0.0
  0
SPLINE
  5
222
100
AcDbEntity
  8
0
 62
7
100
AcDbSpline
 70
8
 71
3
 72
8
 73
4
 74
0
 40
0
 40
0
 40
0
 40
0
 40
1
 40
1
 40
1
 40
1
 10
300.080000
 20
239.040000
 30
0.0
 10
298.240000
 20
236.080000
 30
0.0
 10
299.120000
 20
231.760000
 30
0.0
 10
303.440000
 20
222.240000
 30
0.0
  0
SPLINE
  5
223
100
AcDbEntity
  8
0
 62
7
100
AcDbSpline
 70
8
 71
3
 72
8
 73
4
 74
0
 40
0
 40
0
 40
0
 40
0
 40
1
 40
1
 40
1
 40
1
 10
303.440000
 20
222.240000
 30
0.0
 10
304.320000
 20
220.480000
 30
0.0
 10
305.200000
 20
217.920000
 30
0.0
 10
305.520000
 20
216.640000
 30
0.0
  0
SPLINE
  5
224
100
AcDbEntity
  8
0
 62
7
100
AcDbSpline
 70
8
 71
3
 72
8
 73
4
 74
0
 40
0
 40
0
 40
0
 40
0
 40
1
 40
1
 40
1
 40
1
 10
305.520000
 20
216.640000
 30
0.0
 10
306.160000
 20
214.080000
 30
0.0
 10
307.360000
 20
213.600000
 30
0.0
 10
308.000000
 20
215.600000
 30
0.0
  0
LINE
  5
225
100
AcDbEntity
  8
0
 62
7
100
AcDbLine
 10
308.000000
 20
215.600000
 30
0.0
 11
308.000000
 21
215.600000
 31
0.0
  0
SPLINE
  5
226
100
AcDbEntity
  8
0
 62
7
100
AcDbSpline
 70
8
 71
3
 72
8
 73
4
 74
0
 40
0
 40
0
 40
0
 40
0
 40
1
 40
1
 40
1
 40
1
 10
63.360000
 20
66.240000
 30
0.0
 10
66.640000
 20
65.280000
 30
0.0
 10
69.040000
 20
63.680000
 30
0.0
 10
70.640000
 20
61.440000
 30
0.0
  0
SPLINE
  5
227
100
AcDbEntity
  8
0
 62
7
100
AcDbSpline
 70
8
 71
3
 72
8
 73
4
 74
0
 40
0
 40
0
 40
0
 40
0
 40
1
 40
1
 40
1
 40
1
 10
70.640000
 20
61.440000
 30
0.0
 10
72.240000
 20
59.280000
 30
0.0
 10
73.040000
 20
56.720000
 30
0.0
 10
73.040000
 20
53.840000
 30
0.0
  0
SPLINE
  5
228
100
AcDbEntity
  8
0
 62
7
100
AcDbSpline
 70
8
 71
3
 72
8
 73
4
 74
0
 40
0
 40
0
 40
0
 40
0
 40
1
 40
1
 40
1
 40
1
 10
73.040000
 20
53.840000
 30
0.0
 10
73.040000
 20
50.960000
 30
0.0
 10
72.320000
 20
48.320000
 30
0.0
 10
70.880000
 20
45.840000
 30
0.0
  0
SPLINE
  5
229
100
AcDbEntity
  8
0
 62
7
100
AcDbSpline
 70
8
 71
3
 72
8
 73
4
 74
0
 40
0
 40
0
 40
0
 40
0
 40
1
 40
1
 40
1
 40
1
 10
70.880000
 20
45.840000
 30
0.0
 10
69.440000
 20
43.440000
 30
0.0
 10
67.360000
 20
41.680000
 30
0.0
 10
64.720000
 20
40.560000
 30
0.0
  0
SPLINE
  5
22a
100
AcDbEntity
  8
0
 62
7
100
AcDbSpline
 70
8
 71
3
 72
8
 73
4
 74
0
 40
0
 40
0
 40
0
 40
0
 40
1
 40
1
 40
1
 40
1
 10
64.720000
 20
40.560000
 30
0.0
 10
62.000000
 20
39.440000
 30
0.0
 10
58.400000
 20
38.800000
 30
0.0
 10
53.840000
 20
38.800000
 30
0.0
  0
LINE
  5
22b
100
AcDbEntity
  8
0
 62
7
100
AcDbLine
 10
53.840000
 20
38.800000
 30
0.0
 11
34.080000
 21
38.800000
 31
0.0
  0
LINE
  5
22c
100
AcDbEntity
  8
0
 62
7
100
AcDbLine
 10
34.080000
 20
38.800000
 30
0.0
 11
34.080000
 21
90.400000
 31
0.0
  0
LINE
  5
22d
100
AcDbEntity
  8
0
 62
7
100
AcDbLine
 10
34.080000
 20
90.400000
 30
0.0
 11
53.440000
 21
90.400000
 31
0.0
  0
SPLINE
  5
22e
100
AcDbEntity
  8
0
 62
7
100
AcDbSpline
 70
8
 71
3
 72
8
 73
4
 74
0
 40
0
 40
0
 40
0
 40
0
 40
1
 40
1
 40
1
 40
1
 10
53.440000
 20
90.400000
 30
0.0
 10
59.680000
 20
90.400000
 30
0.0
 10
64.080000
 20
89.040000
 30
0.0
 10
66.720000
 20
86.320000
 30
0.0
  0
SPLINE
  5
22f
100
AcDbEntity
  8
0
 62
7
100
AcDbSpline
 70
8
 71
3
 72
8
 73
4
 74
0
 40
0
 40
0
 40
0
 40
0
 40
1
 40
1
 40
1
 40
1
 10
66.720000
 20
86.320000
 30
0.0
 10
69.280000
 20
83.600000
 30
0.0
 10
70.560000
 20
80.560000
 30
0.0
 10
70.560000
 20
77.200000
 30
0.0
  0
SPLINE
  5
230
100
AcDbEntity
  8
0
 62
7
100
AcDbSpline
 70
8
 71
3
 72
8
 73
4
 74
0
 40
0
 40
0
 40
0
 40
0
 40
1
 40
1
 40
1
 40
1
 10
70.560000
 20
77.200000
 30
0.0
 10
70.560000
 20
74.960000
 30
0.0
 10
69.920000
 20
72.880000
 30
0.0
 10
68.720000
 20
70.960000
 30
0.0
  0
SPLINE
  5
231
100
AcDbEntity
  8
0
 62
7
100
AcDbSpline
 70
8
 71
3
 72
8
 73
4
 74
0
 40
0
 40
0
 40
0
 40
0
 40
1
 40
1
 40
1
 40
1
 10
68.720000
 20
70.960000
 30
0.0
 10
67.600000
 20
69.040000
 30
0.0
 10
65.760000
 20
67.520000
 30
0.0
 10
63.360000
 20
66.240000
 30
0.0
  0
LINE
  5
232
100
AcDbEntity
  8
0
 62
7
100
AcDbLine
 10
63.360000
 20
66.240000
 30
0.0
 11
63.360000
 21
66.240000
 31
0.0
  0
LINE
  5
233
100
AcDbEntity
  8
0
 62
7
100
AcDbLine
 10
40.960000
 20
68.800000
 30
0.0
 11
52.080000
 21
68.800000
 31
0.0
  0
SPLINE
  5
234
100
AcDbEntity
  8
0
 62
7
100
AcDbSpline
 70
8
 71
3
 72
8
 73
4
 74
0
 40
0
 40
0
 40
0
 40
0
 40
1
 40
1
 40
1
 40
1
 10
52.080000
 20
68.800000
 30
0.0
 10
54.400000
 20
68.800000
 30
0.0
 10
56.320000
 20
68.960000
 30
0.0
 10
57.920000
 20
69.200000
 30
0.0
  0
SPLINE
  5
235
100
AcDbEntity
  8
0
 62
7
100
AcDbSpline
 70
8
 71
3
 72
8
 73
4
 74
0
 40
0
 40
0
 40
0
 40
0
 40
1
 40
1
 40
1
 40
1
 10
57.920000
 20
69.200000
 30
0.0
 10
59.440000
 20
69.440000
 30
0.0
 10
60.800000
 20
70.080000
 30
0.0
 10
62.000000
 20
71.200000
 30
0.0
  0
SPLINE
  5
236
100
AcDbEntity
  8
0
 62
7
100
AcDbSpline
 70
8
 71
3
 72
8
 73
4
 74
0
 40
0
 40
0
 40
0
 40
0
 40
1
 40
1
 40
1
 40
1
 10
62.000000
 20
71.200000
 30
0.0
 10
63.200000
 20
72.320000
 30
0.0
 10
63.840000
 20
74.000000
 30
0.0
 10
63.840000
 20
76.320000
 30
0.0
  0
SPLINE
  5
237
100
AcDbEntity
  8
0
 62
7
100
AcDbSpline
 70
8
 71
3
 72
8
 73
4
 74
0
 40
0
 40
0
 40
0
 40
0
 40
1
 40
1
 40
1
 40
1
 10
63.840000
 20
76.320000
 30
0.0
 10
63.840000
 20
78.800000
 30
0.0
 10
63.200000
 20
80.560000
 30
0.0
 10
62.000000
 20
81.760000
 30
0.0
  0
SPLINE
  5
238
100
AcDbEntity
  8
0
 62
7
100
AcDbSpline
 70
8
 71
3
 72
8
 73
4
 74
0
 40
0
 40
0
 40
0
 40
0
 40
1
 40
1
 40
1
 40
1
 10
62.000000
 20
81.760000
 30
0.0
 10
60.800000
 20
82.880000
 30
0.0
 10
59.360000
 20
83.600000
 30
0.0
 10
57.680000
 20
83.840000
 30
0.0
  0
SPLINE
  5
239
100
AcDbEntity
  8
0
 62
7
100
AcDbSpline
 70
8
 71
3
 72
8
 73
4
 74
0
 40
0
 40
0
 40
0
 40
0
 40
1
 40
1
 40
1
 40
1
 10
57.680000
 20
83.840000
 30
0.0
 10
56.000000
 20
84.160000
 30
0.0
 10
53.840000
 20
84.240000
 30
0.0
 10
51.200000
 20
84.240000
 30
0.0
  0
LINE
  5
23a
100
AcDbEntity
  8
0
 62
7
100
AcDbLine
 10
51.200000
 20
84.240000
 30
0.0
 11
40.960000
 21
84.240000
 31
0.0
  0
LINE
  5
23b
100
AcDbEntity
  8
0
 62
7
100
AcDbLine
 10
40.960000
 20
84.240000
 30
0.0
 11
40.960000
 21
68.800000
 31
0.0
  0
LINE
  5
23c
100
AcDbEntity
  8
0
 62
7
100
AcDbLine
 10
40.960000
 20
68.800000
 30
0.0
 11
40.960000
 21
68.800000
 31
0.0
  0
LINE
  5
23d
100
AcDbEntity
  8
0
 62
7
100
AcDbLine
 10
40.960000
 20
44.960000
 30
0.0
 11
53.760000
 21
44.960000
 31
0.0
  0
SPLINE
  5
23e
100
AcDbEntity
  8
0
 62
7
100
AcDbSpline
 70
8
 71
3
 72
8
 73
4
 74
0
 40
0
 40
0
 40
0
 40
0
 40
1
 40
1
 40
1
 40
1
 10
53.760000
 20
44.960000
 30
0.0
 10
58.320000
 20
44.960000
 30
0.0
 10
61.520000
 20
45.760000
 30
0.0
 10
63.360000
 20
47.280000
 30
0.0
  0
SPLINE
  5
23f
100
AcDbEntity
  8
0
 62
7
100
AcDbSpline
 70
8
 71
3
 72
8
 73
4
 74
0
 40
0
 40
0
 40
0
 40
0
 40
1
 40
1
 40
1
 40
1
 10
63.360000
 20
47.280000
 30
0.0
 10
65.120000
 20
48.880000
 30
0.0
 10
66.000000
 20
51.040000
 30
0.0
 10
66.000000
 20
53.840000
 30
0.0
  0
SPLINE
  5
240
100
AcDbEntity
  8
0
 62
7
100
AcDbSpline
 70
8
 71
3
 72
8
 73
4
 74
0
 40
0
 40
0
 40
0
 40
0
 40
1
 40
1
 40
1
 40
1
 10
66.000000
 20
53.840000
 30
0.0
 10
66.000000
 20
56.640000
 30
0.0
 10
65.040000
 20
58.800000
 30
0.0
 10
63.120000
 20
60.320000
 30
0.0
  0
SPLINE
  5
241
100
AcDbEntity
  8
0
 62
7
100
AcDbSpline
 70
8
 71
3
 72
8
 73
4
 74
0
 40
0
 40
0
 40
0
 40
0
 40
1
 40
1
 40
1
 40
1
 10
63.120000
 20
60.320000
 30
0.0
 10
61.280000
 20
61.920000
 30
0.0
 10
57.840000
 20
62.640000
 30
0.0
 10
52.880000
 20
62.640000
 30
0.0
  0
LINE
  5
242
100
AcDbEntity
  8
0
 62
7
100
AcDbLine
 10
52.880000
 20
62.640000
 30
0.0
 11
40.960000
 21
62.640000
 31
0.0
  0
LINE
  5
243
100
AcDbEntity
  8
0
 62
7
100
AcDbLine
 10
40.960000
 20
62.640000
 30
0.0
 11
40.960000
 21
44.960000
 31
0.0
  0
LINE
  5
244
100
AcDbEntity
  8
0
 62
7
100
AcDbLine
 10
40.960000
 20
44.960000
 30
0.0
 11
40.960000
 21
44.960000
 31
0.0
  0
LINE
  5
245
100
AcDbEntity
  8
0
 62
7
100
AcDbLine
 10
87.920000
 20
38.800000
 30
0.0
 11
81.600000
 21
38.800000
 31
0.0
  0
LINE
  5
246
100
AcDbEntity
  8
0
 62
7
100
AcDbLine
 10
81.600000
 20
38.800000
 30
0.0
 11
81.600000
 21
76.160000
 31
0.0
  0
LINE
  5
247
100
AcDbEntity
  8
0
 62
7
100
AcDbLine
 10
81.600000
 20
76.160000
 30
0.0
 11
87.920000
 21
76.160000
 31
0.0
  0
LINE
  5
248
100
AcDbEntity
  8
0
 62
7
100
AcDbLine
 10
87.920000
 20
76.160000
 30
0.0
 11
87.920000
 21
38.800000
 31
0.0
  0
LINE
  5
249
100
AcDbEntity
  8
0
 62
7
100
AcDbLine
 10
87.920000
 20
38.800000
 30
0.0
 11
87.920000
 21
38.800000
 31
0.0
  0
LINE
  5
24a
100
AcDbEntity
  8
0
 62
7
100
AcDbLine
 10
87.920000
 20
83.200000
 30
0.0
 11
81.600000
 21
83.200000
 31
0.0
  0
LINE
  5
24b
100
AcDbEntity
  8
0
 62
7
100
AcDbLine
 10
81.600000
 20
83.200000
 30
0.0
 11
81.600000
 21
90.400000
 31
0.0
  0
LINE
  5
24c
100
AcDbEntity
  8
0
 62
7
100
AcDbLine
 10
81.600000
 20
90.400000
 30
0.0
 11
87.920000
 21
90.400000
 31
0.0
  0
LINE
  5
24d
100
AcDbEntity
  8
0
 62
7
100
AcDbLine
 10
87.920000
 20
90.400000
 30
0.0
 11
87.920000
 21
83.200000
 31
0.0
  0
LINE
  5
24e
100
AcDbEntity
  8
0
 62
7
100
AcDbLine
 10
87.920000
 20
83.200000
 30
0.0
 11
87.920000
 21
83.200000
 31
0.0
  0
SPLINE
  5
24f
100
AcDbEntity
  8
0
 62
7
100
AcDbSpline
 70
8
 71
3
 72
8
 73
4
 74
0
 40
0
 40
0
 40
0
 40
0
 40
1
 40
1
 40
1
 40
1
 10
118.400000
 20
65.680000
 30
0.0
 10
118.160000
 20
67.760000
 30
0.0
 10
117.280000
 20
69.280000
 30
0.0
 10
115.920000
 20
70.320000
 30
0.0
  0
SPLINE
  5
250
100
AcDbEntity
  8
0
 62
7
100
AcDbSpline
 70
8
 71
3
 72
8
 73
4
 74
0
 40
0
 40
0
 40
0
 40
0
 40
1
 40
1
 40
1
 40
1
 10
115.920000
 20
70.320000
 30
0.0
 10
114.560000
 20
71.280000
 30
0.0
 10
112.640000
 20
71.840000
 30
0.0
 10
110.240000
 20
71.840000
 30
0.0
  0
SPLINE
  5
251
100
AcDbEntity
  8
0
 62
7
100
AcDbSpline
 70
8
 71
3
 72
8
 73
4
 74
0
 40
0
 40
0
 40
0
 40
0
 40
1
 40
1
 40
1
 40
1
 10
110.240000
 20
71.840000
 30
0.0
 10
107.840000
 20
71.840000
 30
0.0
 10
105.840000
 20
71.440000
 30
0.0
 10
104.400000
 20
70.560000
 30
0.0
  0
SPLINE
  5
252
100
AcDbEntity
  8
0
 62
7
100
AcDbSpline
 70
8
 71
3
 72
8
 73
4
 74
0
 40
0
 40
0
 40
0
 40
0
 40
1
 40
1
 40
1
 40
1
 10
104.400000
 20
70.560000
 30
0.0
 10
102.880000
 20
69.760000
 30
0.0
 10
102.160000
 20
68.560000
 30
0.0
 10
102.160000
 20
66.960000
 30
0.0
  0
SPLINE
  5
253
100
AcDbEntity
  8
0
 62
7
100
AcDbSpline
 70
8
 71
3
 72
8
 73
4
 74
0
 40
0
 40
0
 40
0
 40
0
 40
1
 40
1
 40
1
 40
1
 10
102.160000
 20
66.960000
 30
0.0
 10
102.160000
 20
65.520000
 30
0.0
 10
102.720000
 20
64.480000
 30
0.0
 10
103.920000
 20
63.840000
 30
0.0
  0
SPLINE
  5
254
100
AcDbEntity
  8
0
 62
7
100
AcDbSpline
 70
8
 71
3
 72
8
 73
4
 74
0
 40
0
 40
0
 40
0
 40
0
 40
1
 40
1
 40
1
 40
1
 10
103.920000
 20
63.840000
 30
0.0
 10
105.120000
 20
63.200000
 30
0.0
 10
107.440000
 20
62.400000
 30
0.0
 10
110.960000
 20
61.520000
 30
0.0
  0
SPLINE
  5
255
100
AcDbEntity
  8
0
 62
7
100
AcDbSpline
 70
8
 71
3
 72
8
 73
4
 74
0
 40
0
 40
0
 40
0
 40
0
 40
1
 40
1
 40
1
 40
1
 10
110.960000
 20
61.520000
 30
0.0
 10
114.880000
 20
60.480000
 30
0.0
 10
117.840000
 20
59.600000
 30
0.0
 10
119.760000
 20
58.880000
 30
0.0
  0
SPLINE
  5
256
100
AcDbEntity
  8
0
 62
7
100
AcDbSpline
 70
8
 71
3
 72
8
 73
4
 74
0
 40
0
 40
0
 40
0
 40
0
 40
1
 40
1
 40
1
 40
1
 10
119.760000
 20
58.880000
 30
0.0
 10
121.760000
 20
58.080000
 30
0.0
 10
123.280000
 20
56.960000
 30
0.0
 10
124.320000
 20
55.600000
 30
0.0
  0
SPLINE
  5
257
100
AcDbEntity
  8
0
 62
7
100
AcDbSpline
 70
8
 71
3
 72
8
 73
4
 74
0
 40
0
 40
0
 40
0
 40
0
 40
1
 40
1
 40
1
 40
1
 10
124.320000
 20
55.600000
 30
0.0
 10
125.440000
 20
54.160000
 30
0.0
 10
126.000000
 20
52.240000
 30
0.0
 10
126.000000
 20
49.760000
 30
0.0
  0
SPLINE
  5
258
100
AcDbEntity
  8
0
 62
7
100
AcDbSpline
 70
8
 71
3
 72
8
 73
4
 74
0
 40
0
 40
0
 40
0
 40
0
 40
1
 40
1
 40
1
 40
1
 10
126.000000
 20
49.760000
 30
0.0
 10
126.000000
 20
46.480000
 30
0.0
 10
124.640000
 20
43.680000
 30
0.0
 10
121.920000
 20
41.360000
 30
0.0
  0
SPLINE
  5
259
100
AcDbEntity
  8
0
 62
7
100
AcDbSpline
 70
8
 71
3
 72
8
 73
4
 74
0
 40
0
 40
0
 40
0
 40
0
 40
1
 40
1
 40
1
 40
1
 10
121.920000
 20
41.360000
 30
0.0
 10
119.200000
 20
39.120000
 30
0.0
 10
115.520000
 20
37.920000
 30
0.0
 10
110.960000
 20
37.920000
 30
0.0
  0
SPLINE
  5
25a
100
AcDbEntity
  8
0
 62
7
100
AcDbSpline
 70
8
 71
3
 72
8
 73
4
 74
0
 40
0
 40
0
 40
0
 40
0
 40
1
 40
1
 40
1
 40
1
 10
110.960000
 20
37.920000
 30
0.0
 10
106.240000
 20
37.920000
 30
0.0
 10
102.560000
 20
38.960000
 30
0.0
 10
99.920000
 20
40.960000
 30
0.0
  0
SPLINE
  5
25b
100
AcDbEntity
  8
0
 62
7
100
AcDbSpline
 70
8
 71
3
 72
8
 73
4
 74
0
 40
0
 40
0
 40
0
 40
0
 40
1
 40
1
 40
1
 40
1
 10
99.920000
 20
40.960000
 30
0.0
 10
97.280000
 20
42.960000
 30
0.0
 10
95.600000
 20
46.000000
 30
0.0
 10
95.040000
 20
50.000000
 30
0.0
  0
LINE
  5
25c
100
AcDbEntity
  8
0
 62
7
100
AcDbLine
 10
95.040000
 20
50.000000
 30
0.0
 11
101.280000
 21
50.960000
 31
0.0
  0
SPLINE
  5
25d
100
AcDbEntity
  8
0
 62
7
100
AcDbSpline
 70
8
 71
3
 72
8
 73
4
 74
0
 40
0
 40
0
 40
0
 40
0
 40
1
 40
1
 40
1
 40
1
 10
101.280000
 20
50.960000
 30
0.0
 10
101.600000
 20
48.320000
 30
0.0
 10
102.560000
 20
46.400000
 30
0.0
 10
104.160000
 20
45.120000
 30
0.0
  0
SPLINE
  5
25e
100
AcDbEntity
  8
0
 62
7
100
AcDbSpline
 70
8
 71
3
 72
8
 73
4
 74
0
 40
0
 40
0
 40
0
 40
0
 40
1
 40
1
 40
1
 40
1
 10
104.160000
 20
45.120000
 30
0.0
 10
105.840000
 20
43.840000
 30
0.0
 10
108.080000
 20
43.200000
 30
0.0
 10
110.960000
 20
43.200000
 30
0.0
  0
SPLINE
  5
25f
100
AcDbEntity
  8
0
 62
7
100
AcDbSpline
 70
8
 71
3
 72
8
 73
4
 74
0
 40
0
 40
0
 40
0
 40
0
 40
1
 40
1
 40
1
 40
1
 10
110.960000
 20
43.200000
 30
0.0
 10
113.680000
 20
43.200000
 30
0.0
 10
115.840000
 20
43.760000
 30
0.0
 10
117.280000
 20
44.880000
 30
0.0
  0
SPLINE
  5
260
100
AcDbEntity
  8
0
 62
7
100
AcDbSpline
 70
8
 71
3
 72
8
 73
4
 74
0
 40
0
 40
0
 40
0
 40
0
 40
1
 40
1
 40
1
 40
1
 10
117.280000
 20
44.880000
 30
0.0
 10
118.800000
 20
46.080000
 30
0.0
 10
119.520000
 20
47.440000
 30
0.0
 10
119.520000
 20
49.120000
 30
0.0
  0
SPLINE
  5
261
100
AcDbEntity
  8
0
 62
7
100
AcDbSpline
 70
8
 71
3
 72
8
 73
4
 74
0
 40
0
 40
0
 40
0
 40
0
 40
1
 40
1
 40
1
 40
1
 10
119.520000
 20
49.120000
 30
0.0
 10
119.520000
 20
50.240000
 30
0.0
 10
119.200000
 20
51.200000
 30
0.0
 10
118.480000
 20
51.840000
 30
0.0
  0
SPLINE
  5
262
100
AcDbEntity
  8
0
 62
7
100
AcDbSpline
 70
8
 71
3
 72
8
 73
4
 74
0
 40
0
 40
0
 40
0
 40
0
 40
1
 40
1
 40
1
 40
1
 10
118.480000
 20
51.840000
 30
0.0
 10
117.840000
 20
52.560000
 30
0.0
 10
116.960000
 20
53.040000
 30
0.0
 10
115.920000
 20
53.360000
 30
0.0
  0
SPLINE
  5
263
100
AcDbEntity
  8
0
 62
7
100
AcDbSpline
 70
8
 71
3
 72
8
 73
4
 74
0
 40
0
 40
0
 40
0
 40
0
 40
1
 40
1
 40
1
 40
1
 10
115.920000
 20
53.360000
 30
0.0
 10
114.880000
 20
53.680000
 30
0.0
 10
112.640000
 20
54.320000
 30
0.0
 10
109.040000
 20
55.200000
 30
0.0
  0
SPLINE
  5
264
100
AcDbEntity
  8
0
 62
7
100
AcDbSpline
 70
8
 71
3
 72
8
 73
4
 74
0
 40
0
 40
0
 40
0
 40
0
 40
1
 40
1
 40
1
 40
1
 10
109.040000
 20
55.200000
 30
0.0
 10
103.760000
 20
56.480000
 30
0.0
 10
100.240000
 20
58.000000
 30
0.0
 10
98.560000
 20
59.760000
 30
0.0
  0
SPLINE
  5
265
100
AcDbEntity
  8
0
 62
7
100
AcDbSpline
 70
8
 71
3
 72
8
 73
4
 74
0
 40
0
 40
0
 40
0
 40
0
 40
1
 40
1
 40
1
 40
1
 10
98.560000
 20
59.760000
 30
0.0
 10
96.880000
 20
61.600000
 30
0.0
 10
96.000000
 20
63.760000
 30
0.0
 10
96.000000
 20
66.240000
 30
0.0
  0
SPLINE
  5
266
100
AcDbEntity
  8
0
 62
7
100
AcDbSpline
 70
8
 71
3
 72
8
 73
4
 74
0
 40
0
 40
0
 40
0
 40
0
 40
1
 40
1
 40
1
 40
1
 10
96.000000
 20
66.240000
 30
0.0
 10
96.000000
 20
69.360000
 30
0.0
 10
97.280000
 20
71.920000
 30
0.0
 10
99.760000
 20
74.000000
 30
0.0
  0
SPLINE
  5
267
100
AcDbEntity
  8
0
 62
7
100
AcDbSpline
 70
8
 71
3
 72
8
 73
4
 74
0
 40
0
 40
0
 40
0
 40
0
 40
1
 40
1
 40
1
 40
1
 10
99.760000
 20
74.000000
 30
0.0
 10
102.240000
 20
76.000000
 30
0.0
 10
105.600000
 20
76.960000
 30
0.0
 10
109.760000
 20
76.960000
 30
0.0
  0
SPLINE
  5
268
100
AcDbEntity
  8
0
 62
7
100
AcDbSpline
 70
8
 71
3
 72
8
 73
4
 74
0
 40
0
 40
0
 40
0
 40
0
 40
1
 40
1
 40
1
 40
1
 10
109.760000
 20
76.960000
 30
0.0
 10
114.240000
 20
76.960000
 30
0.0
 10
117.680000
 20
76.080000
 30
0.0
 10
120.160000
 20
74.400000
 30
0.0
  0
SPLINE
  5
269
100
AcDbEntity
  8
0
 62
7
100
AcDbSpline
 70
8
 71
3
 72
8
 73
4
 74
0
 40
0
 40
0
 40
0
 40
0
 40
1
 40
1
 40
1
 40
1
 10
120.160000
 20
74.400000
 30
0.0
 10
122.640000
 20
72.640000
 30
0.0
 10
124.080000
 20
70.000000
 30
0.0
 10
124.640000
 20
66.560000
 30
0.0
  0
LINE
  5
26a
100
AcDbEntity
  8
0
 62
7
100
AcDbLine
 10
124.640000
 20
66.560000
 30
0.0
 11
118.400000
 21
65.680000
 31
0.0
  0
LINE
  5
26b
100
AcDbEntity
  8
0
 62
7
100
AcDbLine
 10
118.400000
 20
65.680000
 30
0.0
 11
118.400000
 21
65.680000
 31
0.0
  0
SPLINE
  5
26c
100
AcDbEntity
  8
0
 62
7
100
AcDbSpline
 70
8
 71
3
 72
8
 73
4
 74
0
 40
0
 40
0
 40
0
 40
0
 40
1
 40
1
 40
1
 40
1
 10
148.160000
 20
38.880000
 30
0.0
 10
146.320000
 20
38.560000
 30
0.0
 10
144.720000
 20
38.320000
 30
0.0
 10
143.440000
 20
38.320000
 30
0.0
  0
SPLINE
  5
26d
100
AcDbEntity
  8
0
 62
7
100
AcDbSpline
 70
8
 71
3
 72
8
 73
4
 74
0
 40
0
 40
0
 40
0
 40
0
 40
1
 40
1
 40
1
 40
1
 10
143.440000
 20
38.320000
 30
0.0
 10
140.640000
 20
38.320000
 30
0.0
 10
138.640000
 20
38.800000
 30
0.0
 10
137.360000
 20
39.840000
 30
0.0
  0
SPLINE
  5
26e
100
AcDbEntity
  8
0
 62
7
100
AcDbSpline
 70
8
 71
3
 72
8
 73
4
 74
0
 40
0
 40
0
 40
0
 40
0
 40
1
 40
1
 40
1
 40
1
 10
137.360000
 20
39.840000
 30
0.0
 10
136.080000
 20
40.800000
 30
0.0
 10
135.360000
 20
42.000000
 30
0.0
 10
135.040000
 20
43.520000
 30
0.0
  0
SPLINE
  5
26f
100
AcDbEntity
  8
0
 62
7
100
AcDbSpline
 70
8
 71
3
 72
8
 73
4
 74
0
 40
0
 40
0
 40
0
 40
0
 40
1
 40
1
 40
1
 40
1
 10
135.040000
 20
43.520000
 30
0.0
 10
134.800000
 20
45.040000
 30
0.0
 10
134.640000
 20
47.120000
 30
0.0
 10
134.640000
 20
49.760000
 30
0.0
  0
LINE
  5
270
100
AcDbEntity
  8
0
 62
7
100
AcDbLine
 10
134.640000
 20
49.760000
 30
0.0
 11
134.640000
 21
71.280000
 31
0.0
  0
LINE
  5
271
100
AcDbEntity
  8
0
 62
7
100
AcDbLine
 10
134.640000
 20
71.280000
 30
0.0
 11
130.000000
 21
71.280000
 31
0.0
  0
LINE
  5
272
100
AcDbEntity
  8
0
 62
7
100
AcDbLine
 10
130.000000
 20
71.280000
 30
0.0
 11
130.000000
 21
76.160000
 31
0.0
  0
LINE
  5
273
100
AcDbEntity
  8
0
 62
7
100
AcDbLine
 10
130.000000
 20
76.160000
 30
0.0
 11
134.640000
 21
76.160000
 31
0.0
  0
LINE
  5
274
100
AcDbEntity
  8
0
 62
7
100
AcDbLine
 10
134.640000
 20
76.160000
 30
0.0
 11
134.640000
 21
85.440000
 31
0.0
  0
LINE
  5
275
100
AcDbEntity
  8
0
 62
7
100
AcDbLine
 10
134.640000
 20
85.440000
 30
0.0
 11
140.960000
 21
89.280000
 31
0.0
  0
LINE
  5
276
100
AcDbEntity
  8
0
 62
7
100
AcDbLine
 10
140.960000
 20
89.280000
 30
0.0
 11
140.960000
 21
76.160000
 31
0.0
  0
LINE
  5
277
100
AcDbEntity
  8
0
 62
7
100
AcDbLine
 10
140.960000
 20
76.160000
 30
0.0
 11
147.280000
 21
76.160000
 31
0.0
  0
LINE
  5
278
100
AcDbEntity
  8
0
 62
7
100
AcDbLine
 10
147.280000
 20
76.160000
 30
0.0
 11
147.280000
 21
71.280000
 31
0.0
  0
LINE
  5
279
100
AcDbEntity
  8
0
 62
7
100
AcDbLine
 10
147.280000
 20
71.280000
 30
0.0
 11
140.960000
 21
71.280000
 31
0.0
  0
LINE
  5
27a
100
AcDbEntity
  8
0
 62
7
100
AcDbLine
 10
140.960000
 20
71.280000
 30
0.0
 11
140.960000
 21
49.440000
 31
0.0
  0
SPLINE
  5
27b
100
AcDbEntity
  8
0
 62
7
100
AcDbSpline
 70
8
 71
3
 72
8
 73
4
 74
0
 40
0
 40
0
 40
0
 40
0
 40
1
 40
1
 40
1
 40
1
 10
140.960000
 20
49.440000
 30
0.0
 10
140.960000
 20
47.520000
 30
0.0
 10
141.120000
 20
46.240000
 30
0.0
 10
141.520000
 20
45.440000
 30
0.0
  0
SPLINE
  5
27c
100
AcDbEntity
  8
0
 62
7
100
AcDbSpline
 70
8
 71
3
 72
8
 73
4
 74
0
 40
0
 40
0
 40
0
 40
0
 40
1
 40
1
 40
1
 40
1
 10
141.520000
 20
45.440000
 30
0.0
 10
141.920000
 20
44.640000
 30
0.0
 10
142.880000
 20
44.240000
 30
0.0
 10
144.480000
 20
44.240000
 30
0.0
  0
SPLINE
  5
27d
100
AcDbEntity
  8
0
 62
7
100
AcDbSpline
 70
8
 71
3
 72
8
 73
4
 74
0
 40
0
 40
0
 40
0
 40
0
 40
1
 40
1
 40
1
 40
1
 10
144.480000
 20
44.240000
 30
0.0
 10
145.360000
 20
44.240000
 30
0.0
 10
146.320000
 20
44.320000
 30
0.0
 10
147.280000
 20
44.560000
 30
0.0
  0
LINE
  5
27e
100
AcDbEntity
  8
0
 62
7
100
AcDbLine
 10
147.280000
 20
44.560000
 30
0.0
 11
148.160000
 21
38.880000
 31
0.0
  0
LINE
  5
27f
100
AcDbEntity
  8
0
 62
7
100
AcDbLine
 10
148.160000
 20
38.880000
 30
0.0
 11
148.160000
 21
38.880000
 31
0.0
  0
SPLINE
  5
280
100
AcDbEntity
  8
0
 62
7
100
AcDbSpline
 70
8
 71
3
 72
8
 73
4
 74
0
 40
0
 40
0
 40
0
 40
0
 40
1
 40
1
 40
1
 40
1
 10
168.800000
 20
76.960000
 30
0.0
 10
173.840000
 20
76.960000
 30
0.0
 10
178.000000
 20
75.360000
 30
0.0
 10
181.360000
 20
72.080000
 30
0.0
  0
SPLINE
  5
281
100
AcDbEntity
  8
0
 62
7
100
AcDbSpline
 70
8
 71
3
 72
8
 73
4
 74
0
 40
0
 40
0
 40
0
 40
0
 40
1
 40
1
 40
1
 40
1
 10
181.360000
 20
72.080000
 30
0.0
 10
184.640000
 20
68.800000
 30
0.0
 10
186.320000
 20
64.080000
 30
0.0
 10
186.320000
 20
58.080000
 30
0.0
  0
SPLINE
  5
282
100
AcDbEntity
  8
0
 62
7
100
AcDbSpline
 70
8
 71
3
 72
8
 73
4
 74
0
 40
0
 40
0
 40
0
 40
0
 40
1
 40
1
 40
1
 40
1
 10
186.320000
 20
58.080000
 30
0.0
 10
186.320000
 20
50.720000
 30
0.0
 10
184.480000
 20
45.520000
 30
0.0
 10
180.960000
 20
42.480000
 30
0.0
  0
SPLINE
  5
283
100
AcDbEntity
  8
0
 62
7
100
AcDbSpline
 70
8
 71
3
 72
8
 73
4
 74
0
 40
0
 40
0
 40
0
 40
0
 40
1
 40
1
 40
1
 40
1
 10
180.960000
 20
42.480000
 30
0.0
 10
177.360000
 20
39.440000
 30
0.0
 10
173.280000
 20
37.920000
 30
0.0
 10
168.800000
 20
37.920000
 30
0.0
  0
SPLINE
  5
284
100
AcDbEntity
  8
0
 62
7
100
AcDbSpline
 70
8
 71
3
 72
8
 73
4
 74
0
 40
0
 40
0
 40
0
 40
0
 40
1
 40
1
 40
1
 40
1
 10
168.800000
 20
37.920000
 30
0.0
 10
164.080000
 20
37.920000
 30
0.0
 10
160.000000
 20
39.520000
 30
0.0
 10
156.560000
 20
42.640000
 30
0.0
  0
SPLINE
  5
285
100
AcDbEntity
  8
0
 62
7
100
AcDbSpline
 70
8
 71
3
 72
8
 73
4
 74
0
 40
0
 40
0
 40
0
 40
0
 40
1
 40
1
 40
1
 40
1
 10
156.560000
 20
42.640000
 30
0.0
 10
153.040000
 20
45.760000
 30
0.0
 10
151.360000
 20
50.720000
 30
0.0
 10
151.360000
 20
57.440000
 30
0.0
  0
SPLINE
  5
286
100
AcDbEntity
  8
0
 62
7
100
AcDbSpline
 70
8
 71
3
 72
8
 73
4
 74
0
 40
0
 40
0
 40
0
 40
0
 40
1
 40
1
 40
1
 40
1
 10
151.360000
 20
57.440000
 30
0.0
 10
151.360000
 20
64.000000
 30
0.0
 10
152.960000
 20
68.960000
 30
0.0
 10
156.320000
 20
72.160000
 30
0.0
  0
SPLINE
  5
287
100
AcDbEntity
  8
0
 62
7
100
AcDbSpline
 70
8
 71
3
 72
8
 73
4
 74
0
 40
0
 40
0
 40
0
 40
0
 40
1
 40
1
 40
1
 40
1
 10
156.320000
 20
72.160000
 30
0.0
 10
159.680000
 20
75.360000
 30
0.0
 10
163.840000
 20
76.960000
 30
0.0
 10
168.800000
 20
76.960000
 30
0.0
  0
LINE
  5
288
100
AcDbEntity
  8
0
 62
7
100
AcDbLine
 10
168.800000
 20
76.960000
 30
0.0
 11
168.800000
 21
76.960000
 31
0.0
  0
SPLINE
  5
289
100
AcDbEntity
  8
0
 62
7
100
AcDbSpline
 70
8
 71
3
 72
8
 73
4
 74
0
 40
0
 40
0
 40
0
 40
0
 40
1
 40
1
 40
1
 40
1
 10
168.800000
 20
43.200000
 30
0.0
 10
172.400000
 20
43.200000
 30
0.0
 10
175.120000
 20
44.480000
 30
0.0
 10
177.040000
 20
47.200000
 30
0.0
  0
SPLINE
  5
28a
100
AcDbEntity
  8
0
 62
7
100
AcDbSpline
 70
8
 71
3
 72
8
 73
4
 74
0
 40
0
 40
0
 40
0
 40
0
 40
1
 40
1
 40
1
 40
1
 10
177.040000
 20
47.200000
 30
0.0
 10
178.880000
 20
49.840000
 30
0.0
 10
179.840000
 20
53.360000
 30
0.0
 10
179.840000
 20
57.680000
 30
0.0
  0
SPLINE
  5
28b
100
AcDbEntity
  8
0
 62
7
100
AcDbSpline
 70
8
 71
3
 72
8
 73
4
 74
0
 40
0
 40
0
 40
0
 40
0
 40
1
 40
1
 40
1
 40
1
 10
179.840000
 20
57.680000
 30
0.0
 10
179.840000
 20
62.400000
 30
0.0
 10
178.800000
 20
65.920000
 30
0.0
 10
176.640000
 20
68.240000
 30
0.0
  0
SPLINE
  5
28c
100
AcDbEntity
  8
0
 62
7
100
AcDbSpline
 70
8
 71
3
 72
8
 73
4
 74
0
 40
0
 40
0
 40
0
 40
0
 40
1
 40
1
 40
1
 40
1
 10
176.640000
 20
68.240000
 30
0.0
 10
174.560000
 20
70.640000
 30
0.0
 10
171.920000
 20
71.840000
 30
0.0
 10
168.800000
 20
71.840000
 30
0.0
  0
SPLINE
  5
28d
100
AcDbEntity
  8
0
 62
7
100
AcDbSpline
 70
8
 71
3
 72
8
 73
4
 74
0
 40
0
 40
0
 40
0
 40
0
 40
1
 40
1
 40
1
 40
1
 10
168.800000
 20
71.840000
 30
0.0
 10
165.600000
 20
71.840000
 30
0.0
 10
162.960000
 20
70.640000
 30
0.0
 10
160.880000
 20
68.240000
 30
0.0
  0
SPLINE
  5
28e
100
AcDbEntity
  8
0
 62
7
100
AcDbSpline
 70
8
 71
3
 72
8
 73
4
 74
0
 40
0
 40
0
 40
0
 40
0
 40
1
 40
1
 40
1
 40
1
 10
160.880000
 20
68.240000
 30
0.0
 10
158.800000
 20
65.840000
 30
0.0
 10
157.760000
 20
62.240000
 30
0.0
 10
157.760000
 20
57.440000
 30
0.0
  0
SPLINE
  5
28f
100
AcDbEntity
  8
0
 62
7
100
AcDbSpline
 70
8
 71
3
 72
8
 73
4
 74
0
 40
0
 40
0
 40
0
 40
0
 40
1
 40
1
 40
1
 40
1
 10
157.760000
 20
57.440000
 30
0.0
 10
157.760000
 20
52.720000
 30
0.0
 10
158.880000
 20
49.200000
 30
0.0
 10
160.960000
 20
46.800000
 30
0.0
  0
SPLINE
  5
290
100
AcDbEntity
  8
0
 62
7
100
AcDbSpline
 70
8
 71
3
 72
8
 73
4
 74
0
 40
0
 40
0
 40
0
 40
0
 40
1
 40
1
 40
1
 40
1
 10
160.960000
 20
46.800000
 30
0.0
 10
163.040000
 20
44.400000
 30
0.0
 10
165.680000
 20
43.200000
 30
0.0
 10
168.800000
 20
43.200000
 30
0.0
  0
LINE
  5
291
100
AcDbEntity
  8
0
 62
7
100
AcDbLine
 10
168.800000
 20
43.200000
 30
0.0
 11
168.800000
 21
43.200000
 31
0.0
  0
LINE
  5
292
100
AcDbEntity
  8
0
 62
7
100
AcDbLine
 10
223.920000
 20
38.800000
 30
0.0
 11
218.240000
 21
38.800000
 31
0.0
  0
LINE
  5
293
100
AcDbEntity
  8
0
 62
7
100
AcDbLine
 10
218.240000
 20
38.800000
 30
0.0
 11
218.240000
 21
44.320000
 31
0.0
  0
LINE
  5
294
100
AcDbEntity
  8
0
 62
7
100
AcDbLine
 10
218.240000
 20
44.320000
 30
0.0
 11
218.080000
 21
44.320000
 31
0.0
  0
SPLINE
  5
295
100
AcDbEntity
  8
0
 62
7
100
AcDbSpline
 70
8
 71
3
 72
8
 73
4
 74
0
 40
0
 40
0
 40
0
 40
0
 40
1
 40
1
 40
1
 40
1
 10
218.080000
 20
44.320000
 30
0.0
 10
215.200000
 20
40.080000
 30
0.0
 10
211.280000
 20
37.920000
 30
0.0
 10
206.320000
 20
37.920000
 30
0.0
  0
SPLINE
  5
296
100
AcDbEntity
  8
0
 62
7
100
AcDbSpline
 70
8
 71
3
 72
8
 73
4
 74
0
 40
0
 40
0
 40
0
 40
0
 40
1
 40
1
 40
1
 40
1
 10
206.320000
 20
37.920000
 30
0.0
 10
203.760000
 20
37.920000
 30
0.0
 10
201.360000
 20
38.560000
 30
0.0
 10
199.120000
 20
39.760000
 30
0.0
  0
SPLINE
  5
297
100
AcDbEntity
  8
0
 62
7
100
AcDbSpline
 70
8
 71
3
 72
8
 73
4
 74
0
 40
0
 40
0
 40
0
 40
0
 40
1
 40
1
 40
1
 40
1
 10
199.120000
 20
39.760000
 30
0.0
 10
196.880000
 20
40.960000
 30
0.0
 10
195.440000
 20
42.640000
 30
0.0
 10
194.720000
 20
44.800000
 30
0.0
  0
SPLINE
  5
298
100
AcDbEntity
  8
0
 62
7
100
AcDbSpline
 70
8
 71
3
 72
8
 73
4
 74
0
 40
0
 40
0
 40
0
 40
0
 40
1
 40
1
 40
1
 40
1
 10
194.720000
 20
44.800000
 30
0.0
 10
193.920000
 20
46.880000
 30
0.0
 10
193.600000
 20
49.600000
 30
0.0
 10
193.600000
 20
53.040000
 30
0.0
  0
LINE
  5
299
100
AcDbEntity
  8
0
 62
7
100
AcDbLine
 10
193.600000
 20
53.040000
 30
0.0
 11
193.600000
 21
76.160000
 31
0.0
  0
LINE
  5
29a
100
AcDbEntity
  8
0
 62
7
100
AcDbLine
 10
193.600000
 20
76.160000
 30
0.0
 11
199.920000
 21
76.160000
 31
0.0
  0
LINE
  5
29b
100
AcDbEntity
  8
0
 62
7
100
AcDbLine
 10
199.920000
 20
76.160000
 30
0.0
 11
199.920000
 21
55.440000
 31
0.0
  0
SPLINE
  5
29c
100
AcDbEntity
  8
0
 62
7
100
AcDbSpline
 70
8
 71
3
 72
8
 73
4
 74
0
 40
0
 40
0
 40
0
 40
0
 40
1
 40
1
 40
1
 40
1
 10
199.920000
 20
55.440000
 30
0.0
 10
199.920000
 20
52.160000
 30
0.0
 10
200.080000
 20
49.760000
 30
0.0
 10
200.400000
 20
48.400000
 30
0.0
  0
SPLINE
  5
29d
100
AcDbEntity
  8
0
 62
7
100
AcDbSpline
 70
8
 71
3
 72
8
 73
4
 74
0
 40
0
 40
0
 40
0
 40
0
 40
1
 40
1
 40
1
 40
1
 10
200.400000
 20
48.400000
 30
0.0
 10
200.720000
 20
46.960000
 30
0.0
 10
201.520000
 20
45.760000
 30
0.0
 10
202.880000
 20
44.800000
 30
0.0
  0
SPLINE
  5
29e
100
AcDbEntity
  8
0
 62
7
100
AcDbSpline
 70
8
 71
3
 72
8
 73
4
 74
0
 40
0
 40
0
 40
0
 40
0
 40
1
 40
1
 40
1
 40
1
 10
202.880000
 20
44.800000
 30
0.0
 10
204.160000
 20
43.920000
 30
0.0
 10
205.760000
 20
43.440000
 30
0.0
 10
207.680000
 20
43.440000
 30
0.0
  0
SPLINE
  5
29f
100
AcDbEntity
  8
0
 62
7
100
AcDbSpline
 70
8
 71
3
 72
8
 73
4
 74
0
 40
0
 40
0
 40
0
 40
0
 40
1
 40
1
 40
1
 40
1
 10
207.680000
 20
43.440000
 30
0.0
 10
210.000000
 20
43.440000
 30
0.0
 10
212.320000
 20
44.240000
 30
0.0
 10
214.400000
 20
45.920000
 30
0.0
  0
SPLINE
  5
2a0
100
AcDbEntity
  8
0
 62
7
100
AcDbSpline
 70
8
 71
3
 72
8
 73
4
 74
0
 40
0
 40
0
 40
0
 40
0
 40
1
 40
1
 40
1
 40
1
 10
214.400000
 20
45.920000
 30
0.0
 10
216.480000
 20
47.600000
 30
0.0
 10
217.520000
 20
51.040000
 30
0.0
 10
217.520000
 20
56.240000
 30
0.0
  0
LINE
  5
2a1
100
AcDbEntity
  8
0
 62
7
100
AcDbLine
 10
217.520000
 20
56.240000
 30
0.0
 11
217.520000
 21
76.160000
 31
0.0
  0
LINE
  5
2a2
100
AcDbEntity
  8
0
 62
7
100
AcDbLine
 10
217.520000
 20
76.160000
 30
0.0
 11
223.920000
 21
76.160000
 31
0.0
  0
LINE
  5
2a3
100
AcDbEntity
  8
0
 62
7
100
AcDbLine
 10
223.920000
 20
76.160000
 30
0.0
 11
223.920000
 21
38.800000
 31
0.0
  0
LINE
  5
2a4
100
AcDbEntity
  8
0
 62
7
100
AcDbLine
 10
223.920000
 20
38.800000
 30
0.0
 11
223.920000
 21
38.800000
 31
0.0
  0
LINE
  5
2a5
100
AcDbEntity
  8
0
 62
7
100
AcDbLine
 10
240.000000
 20
38.800000
 30
0.0
 11
233.680000
 21
38.800000
 31
0.0
  0
LINE
  5
2a6
100
AcDbEntity
  8
0
 62
7
100
AcDbLine
 10
233.680000
 20
38.800000
 30
0.0
 11
233.680000
 21
76.160000
 31
0.0
  0
LINE
  5
2a7
100
AcDbEntity
  8
0
 62
7
100
AcDbLine
 10
233.680000
 20
76.160000
 30
0.0
 11
240.000000
 21
76.160000
 31
0.0
  0
LINE
  5
2a8
100
AcDbEntity
  8
0
 62
7
100
AcDbLine
 10
240.000000
 20
76.160000
 30
0.0
 11
240.000000
 21
38.800000
 31
0.0
  0
LINE
  5
2a9
100
AcDbEntity
  8
0
 62
7
100
AcDbLine
 10
240.000000
 20
38.800000
 30
0.0
 11
240.000000
 21
38.800000
 31
0.0
  0
LINE
  5
2aa
100
AcDbEntity
  8
0
 62
7
100
AcDbLine
 10
240.000000
 20
83.200000
 30
0.0
 11
233.680000
 21
83.200000
 31
0.0
  0
LINE
  5
2ab
100
AcDbEntity
  8
0
 62
7
100
AcDbLine
 10
233.680000
 20
83.200000
 30
0.0
 11
233.680000
 21
90.400000
 31
0.0
  0
LINE
  5
2ac
100
AcDbEntity
  8
0
 62
7
100
AcDbLine
 10
233.680000
 20
90.400000
 30
0.0
 11
240.000000
 21
90.400000
 31
0.0
  0
LINE
  5
2ad
100
AcDbEntity
  8
0
 62
7
100
AcDbLine
 10
240.000000
 20
90.400000
 30
0.0
 11
240.000000
 21
83.200000
 31
0.0
  0
LINE
  5
2ae
100
AcDbEntity
  8
0
 62
7
100
AcDbLine
 10
240.000000
 20
83.200000
 30
0.0
 11
240.000000
 21
83.200000
 31
0.0
  0
LINE
  5
2af
100
AcDbEntity
  8
0
 62
7
100
AcDbLine
 10
256.000000
 20
38.800000
 30
0.0
 11
249.680000
 21
38.800000
 31
0.0
  0
LINE
  5
2b0
100
AcDbEntity
  8
0
 62
7
100
AcDbLine
 10
249.680000
 20
38.800000
 30
0.0
 11
249.680000
 21
90.400000
 31
0.0
  0
LINE
  5
2b1
100
AcDbEntity
  8
0
 62
7
100
AcDbLine
 10
249.680000
 20
90.400000
 30
0.0
 11
256.000000
 21
90.400000
 31
0.0
  0
LINE
  5
2b2
100
AcDbEntity
  8
0
 62
7
100
AcDbLine
 10
256.000000
 20
90.400000
 30
0.0
 11
256.000000
 21
38.800000
 31
0.0
  0
LINE
  5
2b3
100
AcDbEntity
  8
0
 62
7
100
AcDbLine
 10
256.000000
 20
38.800000
 30
0.0
 11
256.000000
 21
38.800000
 31
0.0
  0
LINE
  5
2b4
100
AcDbEntity
  8
0
 62
7
100
AcDbLine
 10
272.000000
 20
38.800000
 30
0.0
 11
265.680000
 21
38.800000
 31
0.0
  0
LINE
  5
2b5
100
AcDbEntity
  8
0
 62
7
100
AcDbLine
 10
265.680000
 20
38.800000
 30
0.0
 11
265.680000
 21
90.400000
 31
0.0
  0
LINE
  5
2b6
100
AcDbEntity
  8
0
 62
7
100
AcDbLine
 10
265.680000
 20
90.400000
 30
0.0
 11
272.000000
 21
90.400000
 31
0.0
  0
LINE
  5
2b7
100
AcDbEntity
  8
0
 62
7
100
AcDbLine
 10
272.000000
 20
90.400000
 30
0.0
 11
272.000000
 21
38.800000
 31
0.0
  0
LINE
  5
2b8
100
AcDbEntity
  8
0
 62
7
100
AcDbLine
 10
272.000000
 20
38.800000
 30
0.0
 11
272.000000
 21
38.800000
 31
0.0
  0
LINE
  5
2b9
100
AcDbEntity
  8
0
 62
7
100
AcDbLine
 10
314.080000
 20
55.920000
 30
0.0
 11
286.160000
 21
55.920000
 31
0.0
  0
SPLINE
  5
2ba
100
AcDbEntity
  8
0
 62
7
100
AcDbSpline
 70
8
 71
3
 72
8
 73
4
 74
0
 40
0
 40
0
 40
0
 40
0
 40
1
 40
1
 40
1
 40
1
 10
286.160000
 20
55.920000
 30
0.0
 10
286.400000
 20
51.760000
 30
0.0
 10
287.600000
 20
48.640000
 30
0.0
 10
289.680000
 20
46.400000
 30
0.0
  0
SPLINE
  5
2bb
100
AcDbEntity
  8
0
 62
7
100
AcDbSpline
 70
8
 71
3
 72
8
 73
4
 74
0
 40
0
 40
0
 40
0
 40
0
 40
1
 40
1
 40
1
 40
1
 10
289.680000
 20
46.400000
 30
0.0
 10
291.760000
 20
44.240000
 30
0.0
 10
294.400000
 20
43.200000
 30
0.0
 10
297.520000
 20
43.200000
 30
0.0
  0
SPLINE
  5
2bc
100
AcDbEntity
  8
0
 62
7
100
AcDbSpline
 70
8
 71
3
 72
8
 73
4
 74
0
 40
0
 40
0
 40
0
 40
0
 40
1
 40
1
 40
1
 40
1
 10
297.520000
 20
43.200000
 30
0.0
 10
299.920000
 20
43.200000
 30
0.0
 10
302.000000
 20
43.840000
 30
0.0
 10
303.600000
 20
45.040000
 30
0.0
  0
SPLINE
  5
2bd
100
AcDbEntity
  8
0
 62
7
100
AcDbSpline
 70
8
 71
3
 72
8
 73
4
 74
0
 40
0
 40
0
 40
0
 40
0
 40
1
 40
1
 40
1
 40
1
 10
303.600000
 20
45.040000
 30
0.0
 10
305.280000
 20
46.320000
 30
0.0
 10
306.480000
 20
48.320000
 30
0.0
 10
307.360000
 20
50.880000
 30
0.0
  0
LINE
  5
2be
100
AcDbEntity
  8
0
 62
7
100
AcDbLine
 10
307.360000
 20
50.880000
 30
0.0
 11
313.920000
 21
50.080000
 31
0.0
  0
SPLINE
  5
2bf
100
AcDbEntity
  8
0
 62
7
100
AcDbSpline
 70
8
 71
3
 72
8
 73
4
 74
0
 40
0
 40
0
 40
0
 40
0
 40
1
 40
1
 40
1
 40
1
 10
313.920000
 20
50.080000
 30
0.0
 10
312.800000
 20
46.160000
 30
0.0
 10
310.880000
 20
43.200000
 30
0.0
 10
308.080000
 20
41.120000
 30
0.0
  0
SPLINE
  5
2c0
100
AcDbEntity
  8
0
 62
7
100
AcDbSpline
 70
8
 71
3
 72
8
 73
4
 74
0
 40
0
 40
0
 40
0
 40
0
 40
1
 40
1
 40
1
 40
1
 10
308.080000
 20
41.120000
 30
0.0
 10
305.280000
 20
39.040000
 30
0.0
 10
301.760000
 20
37.920000
 30
0.0
 10
297.520000
 20
37.920000
 30
0.0
  0
SPLINE
  5
2c1
100
AcDbEntity
  8
0
 62
7
100
AcDbSpline
 70
8
 71
3
 72
8
 73
4
 74
0
 40
0
 40
0
 40
0
 40
0
 40
1
 40
1
 40
1
 40
1
 10
297.520000
 20
37.920000
 30
0.0
 10
291.920000
 20
37.920000
 30
0.0
 10
287.600000
 20
39.680000
 30
0.0
 10
284.400000
 20
43.120000
 30
0.0
  0
SPLINE
  5
2c2
100
AcDbEntity
  8
0
 62
7
100
AcDbSpline
 70
8
 71
3
 72
8
 73
4
 74
0
 40
0
 40
0
 40
0
 40
0
 40
1
 40
1
 40
1
 40
1
 10
284.400000
 20
43.120000
 30
0.0
 10
281.280000
 20
46.560000
 30
0.0
 10
279.680000
 20
51.200000
 30
0.0
 10
279.680000
 20
57.200000
 30
0.0
  0
SPLINE
  5
2c3
100
AcDbEntity
  8
0
 62
7
100
AcDbSpline
 70
8
 71
3
 72
8
 73
4
 74
0
 40
0
 40
0
 40
0
 40
0
 40
1
 40
1
 40
1
 40
1
 10
279.680000
 20
57.200000
 30
0.0
 10
279.680000
 20
63.040000
 30
0.0
 10
281.200000
 20
67.840000
 30
0.0
 10
284.240000
 20
71.520000
 30
0.0
  0
SPLINE
  5
2c4
100
AcDbEntity
  8
0
 62
7
100
AcDbSpline
 70
8
 71
3
 72
8
 73
4
 74
0
 40
0
 40
0
 40
0
 40
0
 40
1
 40
1
 40
1
 40
1
 10
284.240000
 20
71.520000
 30
0.0
 10
287.360000
 20
75.120000
 30
0.0
 10
291.600000
 20
76.960000
 30
0.0
 10
297.200000
 20
76.960000
 30
0.0
  0
SPLINE
  5
2c5
100
AcDbEntity
  8
0
 62
7
100
AcDbSpline
 70
8
 71
3
 72
8
 73
4
 74
0
 40
0
 40
0
 40
0
 40
0
 40
1
 40
1
 40
1
 40
1
 10
297.200000
 20
76.960000
 30
0.0
 10
299.920000
 20
76.960000
 30
0.0
 10
302.560000
 20
76.400000
 30
0.0
 10
305.040000
 20
75.200000
 30
0.0
  0
SPLINE
  5
2c6
100
AcDbEntity
  8
0
 62
7
100
AcDbSpline
 70
8
 71
3
 72
8
 73
4
 74
0
 40
0
 40
0
 40
0
 40
0
 40
1
 40
1
 40
1
 40
1
 10
305.040000
 20
75.200000
 30
0.0
 10
307.600000
 20
74.000000
 30
0.0
 10
309.680000
 20
72.000000
 30
0.0
 10
311.440000
 20
69.120000
 30
0.0
  0
SPLINE
  5
2c7
100
AcDbEntity
  8
0
 62
7
100
AcDbSpline
 70
8
 71
3
 72
8
 73
4
 74
0
 40
0
 40
0
 40
0
 40
0
 40
1
 40
1
 40
1
 40
1
 10
311.440000
 20
69.120000
 30
0.0
 10
313.200000
 20
66.240000
 30
0.0
 10
314.080000
 20
61.840000
 30
0.0
 10
314.080000
 20
55.920000
 30
0.0
  0
LINE
  5
2c8
100
AcDbEntity
  8
0
 62
7
100
AcDbLine
 10
314.080000
 20
55.920000
 30
0.0
 11
314.080000
 21
55.920000
 31
0.0
  0
SPLINE
  5
2c9
100
AcDbEntity
  8
0
 62
7
100
AcDbSpline
 70
8
 71
3
 72
8
 73
4
 74
0
 40
0
 40
0
 40
0
 40
0
 40
1
 40
1
 40
1
 40
1
 10
307.600000
 20
61.120000
 30
0.0
 10
307.360000
 20
64.880000
 30
0.0
 10
306.160000
 20
67.600000
 30
0.0
 10
304.080000
 20
69.280000
 30
0.0
  0
SPLINE
  5
2ca
100
AcDbEntity
  8
0
 62
7
100
AcDbSpline
 70
8
 71
3
 72
8
 73
4
 74
0
 40
0
 40
0
 40
0
 40
0
 40
1
 40
1
 40
1
 40
1
 10
304.080000
 20
69.280000
 30
0.0
 10
302.000000
 20
70.960000
 30
0.0
 10
299.680000
 20
71.840000
 30
0.0
 10
297.200000
 20
71.840000
 30
0.0
  0
SPLINE
  5
2cb
100
AcDbEntity
  8
0
 62
7
100
AcDbSpline
 70
8
 71
3
 72
8
 73
4
 74
0
 40
0
 40
0
 40
0
 40
0
 40
1
 40
1
 40
1
 40
1
 10
297.200000
 20
71.840000
 30
0.0
 10
294.240000
 20
71.840000
 30
0.0
 10
291.760000
 20
70.800000
 30
0.0
 10
289.840000
 20
68.800000
 30
0.0
  0
SPLINE
  5
2cc
100
AcDbEntity
  8
0
 62
7
100
AcDbSpline
 70
8
 71
3
 72
8
 73
4
 74
0
 40
0
 40
0
 40
0
 40
0
 40
1
 40
1
 40
1
 40
1
 10
289.840000
 20
68.800000
 30
0.0
 10
287.920000
 20
66.800000
 30
0.0
 10
286.800000
 20
64.240000
 30
0.0
 10
286.480000
 20
61.120000
 30
0.0
  0
LINE
  5
2cd
100
AcDbEntity
  8
0
 62
7
100
AcDbLine
 10
286.480000
 20
61.120000
 30
0.0
 11
307.600000
 21
61.120000
 31
0.0
  0
LINE
  5
2ce
100
AcDbEntity
  8
0
 62
7
100
AcDbLine
 10
307.600000
 20
61.120000
 30
0.0
 11
307.600000
 21
61.120000
 31
0.0
  0
LINE
  5
2cf
100
AcDbEntity
  8
0
 62
7
100
AcDbLine
 10
330.480000
 20
38.800000
 30
0.0
 11
323.280000
 21
38.800000
 31
0.0
  0
LINE
  5
2d0
100
AcDbEntity
  8
0
 62
7
100
AcDbLine
 10
323.280000
 20
38.800000
 30
0.0
 11
323.280000
 21
46.080000
 31
0.0
  0
LINE
  5
2d1
100
AcDbEntity
  8
0
 62
7
100
AcDbLine
 10
323.280000
 20
46.080000
 30
0.0
 11
330.480000
 21
46.080000
 31
0.0
  0
LINE
  5
2d2
100
AcDbEntity
  8
0
 62
7
100
AcDbLine
 10
330.480000
 20
46.080000
 30
0.0
 11
330.480000
 21
38.800000
 31
0.0
  0
LINE
  5
2d3
100
AcDbEntity
  8
0
 62
7
100
AcDbLine
 10
330.480000
 20
38.800000
 30
0.0
 11
330.480000
 21
38.800000
 31
0.0
  0
LINE
  5
2d4
100
AcDbEntity
  8
0
 62
7
100
AcDbLine
 10
359.280000
 20
90.640000
 30
0.0
 11
358.320000
 21
85.040000
 31
0.0
  0
SPLINE
  5
2d5
100
AcDbEntity
  8
0
 62
7
100
AcDbSpline
 70
8
 71
3
 72
8
 73
4
 74
0
 40
0
 40
0
 40
0
 40
0
 40
1
 40
1
 40
1
 40
1
 10
358.320000
 20
85.040000
 30
0.0
 10
357.120000
 20
85.280000
 30
0.0
 10
355.840000
 20
85.440000
 30
0.0
 10
354.640000
 20
85.440000
 30
0.0
  0
SPLINE
  5
2d6
100
AcDbEntity
  8
0
 62
7
100
AcDbSpline
 70
8
 71
3
 72
8
 73
4
 74
0
 40
0
 40
0
 40
0
 40
0
 40
1
 40
1
 40
1
 40
1
 10
354.640000
 20
85.440000
 30
0.0
 10
353.120000
 20
85.440000
 30
0.0
 10
351.840000
 20
85.120000
 30
0.0
 10
350.880000
 20
84.480000
 30
0.0
  0
SPLINE
  5
2d7
100
AcDbEntity
  8
0
 62
7
100
AcDbSpline
 70
8
 71
3
 72
8
 73
4
 74
0
 40
0
 40
0
 40
0
 40
0
 40
1
 40
1
 40
1
 40
1
 10
350.880000
 20
84.480000
 30
0.0
 10
349.920000
 20
83.840000
 30
0.0
 10
349.440000
 20
82.240000
 30
0.0
 10
349.440000
 20
79.680000
 30
0.0
  0
LINE
  5
2d8
100
AcDbEntity
  8
0
 62
7
100
AcDbLine
 10
349.440000
 20
79.680000
 30
0.0
 11
349.440000
 21
76.160000
 31
0.0
  0
LINE
  5
2d9
100
AcDbEntity
  8
0
 62
7
100
AcDbLine
 10
349.440000
 20
76.160000
 30
0.0
 11
356.640000
 21
76.160000
 31
0.0
  0
LINE
  5
2da
100
AcDbEntity
  8
0
 62
7
100
AcDbLine
 10
356.640000
 20
76.160000
 30
0.0
 11
356.640000
 21
71.280000
 31
0.0
  0
LINE
  5
2db
100
AcDbEntity
  8
0
 62
7
100
AcDbLine
 10
356.640000
 20
71.280000
 30
0.0
 11
349.440000
 21
71.280000
 31
0.0
  0
LINE
  5
2dc
100
AcDbEntity
  8
0
 62
7
100
AcDbLine
 10
349.440000
 20
71.280000
 30
0.0
 11
349.440000
 21
38.800000
 31
0.0
  0
LINE
  5
2dd
100
AcDbEntity
  8
0
 62
7
100
AcDbLine
 10
349.440000
 20
38.800000
 30
0.0
 11
343.120000
 21
38.800000
 31
0.0
  0
LINE
  5
2de
100
AcDbEntity
  8
0
 62
7
100
AcDbLine
 10
343.120000
 20
38.800000
 30
0.0
 11
343.120000
 21
71.280000
 31
0.0
  0
LINE
  5
2df
100
AcDbEntity
  8
0
 62
7
100
AcDbLine
 10
343.120000
 20
71.280000
 30
0.0
 11
337.440000
 21
71.280000
 31
0.0
  0
LINE
  5
2e0
100
AcDbEntity
  8
0
 62
7
100
AcDbLine
 10
337.440000
 20
71.280000
 30
0.0
 11
337.440000
 21
76.160000
 31
0.0
  0
LINE
  5
2e1
100
AcDbEntity
  8
0
 62
7
100
AcDbLine
 10
337.440000
 20
76.160000
 30
0.0
 11
343.120000
 21
76.160000
 31
0.0
  0
LINE
  5
2e2
100
AcDbEntity
  8
0
 62
7
100
AcDbLine
 10
343.120000
 20
76.160000
 30
0.0
 11
343.120000
 21
80.160000
 31
0.0
  0
SPLINE
  5
2e3
100
AcDbEntity
  8
0
 62
7
100
AcDbSpline
 70
8
 71
3
 72
8
 73
4
 74
0
 40
0
 40
0
 40
0
 40
0
 40
1
 40
1
 40
1
 40
1
 10
343.120000
 20
80.160000
 30
0.0
 10
343.120000
 20
82.080000
 30
0.0
 10
343.280000
 20
83.760000
 30
0.0
 10
343.600000
 20
85.280000
 30
0.0
  0
SPLINE
  5
2e4
100
AcDbEntity
  8
0
 62
7
100
AcDbSpline
 70
8
 71
3
 72
8
 73
4
 74
0
 40
0
 40
0
 40
0
 40
0
 40
1
 40
1
 40
1
 40
1
 10
343.600000
 20
85.280000
 30
0.0
 10
344.000000
 20
86.800000
 30
0.0
 10
344.880000
 20
88.160000
 30
0.0
 10
346.400000
 20
89.440000
 30
0.0
  0
SPLINE
  5
2e5
100
AcDbEntity
  8
0
 62
7
100
AcDbSpline
 70
8
 71
3
 72
8
 73
4
 74
0
 40
0
 40
0
 40
0
 40
0
 40
1
 40
1
 40
1
 40
1
 10
346.400000
 20
89.440000
 30
0.0
 10
347.920000
 20
90.640000
 30
0.0
 10
350.240000
 20
91.280000
 30
0.0
 10
353.440000
 20
91.280000
 30
0.0
  0
SPLINE
  5
2e6
100
AcDbEntity
  8
0
 62
7
100
AcDbSpline
 70
8
 71
3
 72
8
 73
4
 74
0
 40
0
 40
0
 40
0
 40
0
 40
1
 40
1
 40
1
 40
1
 10
353.440000
 20
91.280000
 30
0.0
 10
355.280000
 20
91.280000
 30
0.0
 10
357.280000
 20
91.040000
 30
0.0
 10
359.280000
 20
90.640000
 30
0.0
  0
LINE
  5
2e7
100
AcDbEntity
  8
0
 62
7
100
AcDbLine
 10
359.280000
 20
90.640000
 30
0.0
 11
359.280000
 21
90.640000
 31
0.0
  0
LINE
  5
2e8
100
AcDbEntity
  8
0
 62
7
100
AcDbLine
 10
381.840000
 20
74.960000
 30
0.0
 11
379.680000
 21
69.120000
 31
0.0
  0
SPLINE
  5
2e9
100
AcDbEntity
  8
0
 62
7
100
AcDbSpline
 70
8
 71
3
 72
8
 73
4
 74
0
 40
0
 40
0
 40
0
 40
0
 40
1
 40
1
 40
1
 40
1
 10
379.680000
 20
69.120000
 30
0.0
 10
378.080000
 20
70.080000
 30
0.0
 10
376.560000
 20
70.480000
 30
0.0
 10
375.040000
 20
70.480000
 30
0.0
  0
SPLINE
  5
2ea
100
AcDbEntity
  8
0
 62
7
100
AcDbSpline
 70
8
 71
3
 72
8
 73
4
 74
0
 40
0
 40
0
 40
0
 40
0
 40
1
 40
1
 40
1
 40
1
 10
375.040000
 20
70.480000
 30
0.0
 10
372.720000
 20
70.480000
 30
0.0
 10
370.880000
 20
69.440000
 30
0.0
 10
369.680000
 20
67.360000
 30
0.0
  0
SPLINE
  5
2eb
100
AcDbEntity
  8
0
 62
7
100
AcDbSpline
 70
8
 71
3
 72
8
 73
4
 74
0
 40
0
 40
0
 40
0
 40
0
 40
1
 40
1
 40
1
 40
1
 10
369.680000
 20
67.360000
 30
0.0
 10
368.480000
 20
65.200000
 30
0.0
 10
367.840000
 20
62.240000
 30
0.0
 10
367.840000
 20
58.400000
 30
0.0
  0
LINE
  5
2ec
100
AcDbEntity
  8
0
 62
7
100
AcDbLine
 10
367.840000
 20
58.400000
 30
0.0
 11
367.840000
 21
38.800000
 31
0.0
  0
LINE
  5
2ed
100
AcDbEntity
  8
0
 62
7
100
AcDbLine
 10
367.840000
 20
38.800000
 30
0.0
 11
361.520000
 21
38.800000
 31
0.0
  0
LINE
  5
2ee
100
AcDbEntity
  8
0
 62
7
100
AcDbLine
 10
361.520000
 20
38.800000
 30
0.0
 11
361.520000
 21
76.160000
 31
0.0
  0
LINE
  5
2ef
100
AcDbEntity
  8
0
 62
7
100
AcDbLine
 10
361.520000
 20
76.160000
 30
0.0
 11
367.280000
 21
76.160000
 31
0.0
  0
LINE
  5
2f0
100
AcDbEntity
  8
0
 62
7
100
AcDbLine
 10
367.280000
 20
76.160000
 30
0.0
 11
367.280000
 21
70.480000
 31
0.0
  0
LINE
  5
2f1
100
AcDbEntity
  8
0
 62
7
100
AcDbLine
 10
367.280000
 20
70.480000
 30
0.0
 11
367.440000
 21
70.480000
 31
0.0
  0
SPLINE
  5
2f2
100
AcDbEntity
  8
0
 62
7
100
AcDbSpline
 70
8
 71
3
 72
8
 73
4
 74
0
 40
0
 40
0
 40
0
 40
0
 40
1
 40
1
 40
1
 40
1
 10
367.440000
 20
70.480000
 30
0.0
 10
369.440000
 20
74.800000
 30
0.0
 10
372.080000
 20
76.960000
 30
0.0
 10
375.360000
 20
76.960000
 30
0.0
  0
SPLINE
  5
2f3
100
AcDbEntity
  8
0
 62
7
100
AcDbSpline
 70
8
 71
3
 72
8
 73
4
 74
0
 40
0
 40
0
 40
0
 40
0
 40
1
 40
1
 40
1
 40
1
 10
375.360000
 20
76.960000
 30
0.0
 10
377.520000
 20
76.960000
 30
0.0
 10
379.680000
 20
76.320000
 30
0.0
 10
381.840000
 20
74.960000
 30
0.0
  0
LINE
  5
2f4
100
AcDbEntity
  8
0
 62
7
100
AcDbLine
 10
381.840000
 20
74.960000
 30
0.0
 11
381.840000
 21
74.960000
 31
0.0
  0
ENDSEC
  0
SECTION
  2
OBJECTS
  0
DICTIONARY
  5
C
330
0
100
AcDbDictionary
  3
ACAD_GROUP
350
D
  3
ACAD_MLINESTYLE
350
17
  0
DICTIONARY
  5
D
330
C
100
AcDbDictionary
  0
DICTIONARY
  5
1A
330
C
100
AcDbDictionary
  0
DICTIONARY
  5
17
330
C
100
AcDbDictionary
  3
STANDARD
350
18
  0
DICTIONARY
  5
19
330
C
100
AcDbDictionary
  0
ENDSEC
  0
EOF
