<?xml version="1.0" encoding="UTF-8" standalone="no"?>
<svg
   xmlns:dc="http://purl.org/dc/elements/1.1/"
   xmlns:cc="http://creativecommons.org/ns#"
   xmlns:rdf="http://www.w3.org/1999/02/22-rdf-syntax-ns#"
   xmlns:svg="http://www.w3.org/2000/svg"
   xmlns="http://www.w3.org/2000/svg"
   xmlns:sodipodi="http://sodipodi.sourceforge.net/DTD/sodipodi-0.dtd"
   xmlns:inkscape="http://www.inkscape.org/namespaces/inkscape"
   width="744.1"
   height="1052.4"
   version="1.1"
   id="svg31"
   sodipodi:docname="Superhero 18 (Bistouille.fr).svg"
   inkscape:version="0.92.2 (5c3e80d, 2017-08-06)">
  <metadata
     id="metadata35">
    <rdf:RDF>
      <cc:Work
         rdf:about="">
        <dc:format>image/svg+xml</dc:format>
        <dc:type
           rdf:resource="http://purl.org/dc/dcmitype/StillImage" />
      </cc:Work>
    </rdf:RDF>
  </metadata>
  <sodipodi:namedview
     pagecolor="#ffffff"
     bordercolor="#666666"
     borderopacity="1"
     objecttolerance="10"
     gridtolerance="10"
     guidetolerance="10"
     inkscape:pageopacity="0"
     inkscape:pageshadow="2"
     inkscape:window-width="756"
     inkscape:window-height="480"
     id="namedview33"
     showgrid="false"
     inkscape:zoom="0.22424933"
     inkscape:cx="372.04999"
     inkscape:cy="526.20001"
     inkscape:window-x="0"
     inkscape:window-y="0"
     inkscape:window-maximized="0"
     inkscape:current-layer="svg31" />
  <defs
     id="defs2" />
  <path
     id="0"
     stroke-width="0.9"
     stroke="#FF0000"
     stroke-opacity="1"
     fill="#000000"
     fill-opacity="1"
     fill-rule="evenodd"
     stroke-linecap="round"
     stroke-linejoin="round"
     d="M211.5,878.5 C213.7,876.8 224.9,874.2 234.3,873.1 257.9,870.5 262.7,869.1 268.7,863.5 275.9,856.6 278.4,849.7 285.4,817.1 287.1,809.2 289.4,798.4 290.6,793 301.7,742.7 301.8,737.5 291.4,675.7 290.6,670.9 290,666.1 290,665 290,662.7 286,652.4 283.8,649.1 283,647.8 281.2,644.9 279.8,642.6 278.4,640.4 276.9,638.1 276.6,637.6 273.6,632.7 270.8,622.9 270.8,617.4 270.7,615.4 271.3,611.9 271.9,609.6 272.7,606.6 273.2,599.8 273.7,585.3 274.5,563.1 275.3,551.2 276.5,544.6 276.9,542.2 279,531.2 281.1,520.1 285.7,495.3 287.4,484.6 288.9,471 290.7,455.3 294.4,441.5 298.5,435.6 299.8,433.8 299.8,433.6 298.2,429.7 294.8,421.5 293.4,417.2 292.4,412 291.4,407.3 291.4,406.1 292.4,401 293.1,397.9 294.7,392.7 296.1,389.5 296.1,389.5 298.6,383.6 298.6,383.6 298.6,383.6 297.4,378 297.4,378 289.5,339.8 286.8,321.9 287.1,308.5 287.7,282.7 287.5,270.3 286.4,268.6 285.6,267.3 285.4,264.1 285.4,253.5 285.4,242.4 285.7,238.7 287.1,231.8 289.2,221.4 292.3,209.7 295,202.6 297.8,195.1 297.3,193.8 293.1,197.7 290.3,200.2 289.2,200.6 285.7,200.6 282.2,200.6 281.3,200.3 279.6,198.2 277.2,195.3 275.3,194.2 270.5,193.3 266,192.5 260.6,188.7 258.3,184.8 256,181 254.4,181 249.8,185 247.7,186.8 245.8,188.2 245.4,188.2 244.2,188.2 240.3,180.1 238.8,174.6 236.8,167 235.9,165.6 232.6,164.8 228,163.8 221.6,154.1 217.2,141.8 213.3,130.8 214.5,117.8 220.3,106.8 222,103.5 223.3,100.3 223.1,99.6 222.6,97.9 216.9,92.6 211.1,88.5 208.5,86.6 206.4,84.7 206.5,84.2 207,82.4 210.9,81.6 221.1,81 226.8,80.6 231.2,80 231.3,79.5 231.6,78.1 222.4,70.7 215.2,66.4 211.7,64.3 208.8,62.1 208.8,61.4 208.8,56.3 239.8,56.9 261.4,62.4 282.5,67.8 296.5,74.7 315.8,89.1 324.1,95.3 328.6,98.3 333.3,100.8 339.4,104.1 349.5,110.6 355.5,115 363.7,121 365.3,121.5 377.2,122.1 388.9,122.7 388,122.4 396.8,128.7 402.3,132.5 414.5,145 421.7,154.1 429.9,164.6 438.1,177.6 442.8,187.8 450,203 449.8,202.3 455.6,243.8 456.2,248.3 457.1,253.7 457.6,255.7 458.1,257.7 460,265.6 461.9,273.2 463.7,280.7 466.4,291.9 467.9,297.9 469.4,304 472.1,315.2 473.9,322.7 475.7,330.3 477.5,337.5 477.8,338.8 478.1,340.1 479.2,344.6 480.2,348.9 481.2,353.2 482.8,360.2 483.8,364.5 484.9,368.8 486.1,374.2 486.6,376.4 487.1,378.7 490.6,393.8 494.4,409.9 498.2,426.1 501.7,441.2 502.3,443.4 502.8,445.7 503.7,449.6 504.2,452.2 504.8,454.7 506.3,460.9 507.4,465.9 508.6,471 510.4,478.8 511.4,483.4 512.5,487.9 513.8,493.5 514.2,495.8 514.7,498 516.3,505.1 517.8,511.4 522.7,532.6 530.6,568.1 535.9,592.2 537.5,599.5 539.6,608.8 540.5,612.8 541.4,616.9 542.3,621 542.5,622 542.7,623 544.8,632.5 547.1,643.1 551.1,661.3 555.1,679.5 561.4,709.2 564.5,723.7 572.4,761.8 579.1,794.6 583.3,815.1 593.5,869.6 594.4,876 594.4,876 594.9,879.5 594.9,879.5 594.9,879.5 402.6,879.5 402.6,879.5 272.7,879.4 210.6,879.1 211.5,878.5 Z " />
</svg>
