  0
SECTION
  2
HEADER
  9
$ACADVER
  1
AC1014
  9
$HANDSEED
  5
FFFF
  9
$MEASUREMENT
 70
     1
  0
ENDSEC
  0
SECTION
  2
TABLES
  0
TABLE
  2
VPORT
  5
8
330
0
100
AcDbSymbolTable
 70
     4
  0
VPORT
  5
2E
330
8
100
AcDbSymbolTableRecord
100
AcDbViewportTableRecord
  2
*ACTIVE
 70
     0
 10
0.0
 20
0.0
 11
1.0
 21
1.0
 12
210.0
 22
148.5
 13
0.0
 23
0.0
 14
10.0
 24
10.0
 15
10.0
 25
10.0
 16
0.0
 26
0.0
 36
1.0
 17
0.0
 27
0.0
 37
0.0
 40
341.0
 41
1.24
 42
50.0
 43
0.0
 44
0.0
 50
0.0
 51
0.0
 71
     0
 72
   100
 73
     1
 74
     3
 75
     0
 76
     0
 77
     0
 78
     0
  0
ENDTAB
  0
TABLE
  2
LTYPE
  5
5
330
0
100
AcDbSymbolTable
 70
     1
  0
LTYPE
  5
14
330
5
100
AcDbSymbolTableRecord
100
AcDbLinetypeTableRecord
  2
BYBLOCK
 70
     0
  3

 72
    65
 73
     0
 40
0.0
  0
LTYPE
  5
15
330
5
100
AcDbSymbolTableRecord
100
AcDbLinetypeTableRecord
  2
BYLAYER
 70
     0
  3

 72
    65
 73
     0
 40
0.0
  0
LTYPE
  5
16
330
5
100
AcDbSymbolTableRecord
100
AcDbLinetypeTableRecord
  2
CONTINUOUS
 70
     0
  3
Solid line
 72
    65
 73
     0
 40
0.0
  0
ENDTAB
  0
TABLE
  2
LAYER
  5
2
100
AcDbSymbolTable
 70
1
  0
LAYER
  5
50
100
AcDbSymbolTableRecord
100
AcDbLayerTableRecord
  2
0
 70
0
  6
CONTINUOUS
  0
ENDTAB
  0
TABLE
  2
STYLE
  5
3
330
0
100
AcDbSymbolTable
 70
     1
  0
STYLE
  5
11
330
3
100
AcDbSymbolTableRecord
100
AcDbTextStyleTableRecord
  2
STANDARD
 70
     0
 40
0.0
 41
1.0
 50
0.0
 71
     0
 42
2.5
  3
txt
  4

  0
ENDTAB
  0
TABLE
  2
VIEW
  5
6
330
0
100
AcDbSymbolTable
 70
     0
  0
ENDTAB
  0
TABLE
  2
UCS
  5
7
330
0
100
AcDbSymbolTable
 70
     0
  0
ENDTAB
  0
TABLE
  2
APPID
  5
9
330
0
100
AcDbSymbolTable
 70
     2
  0
APPID
  5
12
330
9
100
AcDbSymbolTableRecord
100
AcDbRegAppTableRecord
  2
ACAD
 70
     0
  0
ENDTAB
  0
TABLE
  2
DIMSTYLE
  5
A
330
0
100
AcDbSymbolTable
 70
     1
  0
DIMSTYLE
105
27
330
A
100
AcDbSymbolTableRecord
100
AcDbDimStyleTableRecord
  2
ISO-25
 70
     0
  3

  4

  5

  6

  7

 40
1.0
 41
2.5
 42
0.625
 43
3.75
 44
1.25
 45
0.0
 46
0.0
 47
0.0
 48
0.0
140
2.5
141
2.5
142
0.0
143
0.03937007874016
144
1.0
145
0.0
146
1.0
147
0.625
 71
     0
 72
     0
 73
     0
 74
     0
 75
     0
 76
     0
 77
     1
 78
     8
170
     0
171
     3
172
     1
173
     0
174
     0
175
     0
176
     0
177
     0
178
     0
270
     2
271
     2
272
     2
273
     2
274
     3
340
11
275
     0
280
     0
281
     0
282
     0
283
     0
284
     8
285
     0
286
     0
287
     3
288
     0
  0
ENDTAB
  0
TABLE
  2
BLOCK_RECORD
  5
1
330
0
100
AcDbSymbolTable
 70
     1
  0
BLOCK_RECORD
  5
1F
330
1
100
AcDbSymbolTableRecord
100
AcDbBlockTableRecord
  2
*MODEL_SPACE
  0
BLOCK_RECORD
  5
1B
330
1
100
AcDbSymbolTableRecord
100
AcDbBlockTableRecord
  2
*PAPER_SPACE
  0
ENDTAB
  0
ENDSEC
  0
SECTION
  2
BLOCKS
  0
BLOCK
  5
20
330
1F
100
AcDbEntity
  8
0
100
AcDbBlockBegin
  2
*MODEL_SPACE
 70
     0
 10
0.0
 20
0.0
 30
0.0
  3
*MODEL_SPACE
  1

  0
ENDBLK
  5
21
330
1F
100
AcDbEntity
  8
0
100
AcDbBlockEnd
  0
BLOCK
  5
1C
330
1B
100
AcDbEntity
 67
     1
  8
0
100
AcDbBlockBegin
  2
*PAPER_SPACE
  1

  0
ENDBLK
  5
1D
330
1B
100
AcDbEntity
 67
     1
  8
0
100
AcDbBlockEnd
  0
ENDSEC
  0
SECTION
  2
ENTITIES
  0
SPLINE
  5
100
100
AcDbEntity
  8
0
 62
7
100
AcDbSpline
 70
8
 71
3
 72
8
 73
4
 74
0
 40
0
 40
0
 40
0
 40
0
 40
1
 40
1
 40
1
 40
1
 10
280.800000
 20
168.080000
 30
0.0
 10
272.880000
 20
169.440000
 30
0.0
 10
258.480000
 20
174.080000
 30
0.0
 10
257.120000
 20
175.680000
 30
0.0
  0
SPLINE
  5
101
100
AcDbEntity
  8
0
 62
7
100
AcDbSpline
 70
8
 71
3
 72
8
 73
4
 74
0
 40
0
 40
0
 40
0
 40
0
 40
1
 40
1
 40
1
 40
1
 10
257.120000
 20
175.680000
 30
0.0
 10
256.800000
 20
176.000000
 30
0.0
 10
256.240000
 20
176.240000
 30
0.0
 10
255.680000
 20
176.240000
 30
0.0
  0
SPLINE
  5
102
100
AcDbEntity
  8
0
 62
7
100
AcDbSpline
 70
8
 71
3
 72
8
 73
4
 74
0
 40
0
 40
0
 40
0
 40
0
 40
1
 40
1
 40
1
 40
1
 10
255.680000
 20
176.240000
 30
0.0
 10
253.840000
 20
176.240000
 30
0.0
 10
238.400000
 20
185.840000
 30
0.0
 10
231.040000
 20
191.600000
 30
0.0
  0
SPLINE
  5
103
100
AcDbEntity
  8
0
 62
7
100
AcDbSpline
 70
8
 71
3
 72
8
 73
4
 74
0
 40
0
 40
0
 40
0
 40
0
 40
1
 40
1
 40
1
 40
1
 10
231.040000
 20
191.600000
 30
0.0
 10
224.160000
 20
196.960000
 30
0.0
 10
208.560000
 20
211.440000
 30
0.0
 10
207.520000
 20
213.360000
 30
0.0
  0
SPLINE
  5
104
100
AcDbEntity
  8
0
 62
7
100
AcDbSpline
 70
8
 71
3
 72
8
 73
4
 74
0
 40
0
 40
0
 40
0
 40
0
 40
1
 40
1
 40
1
 40
1
 10
207.520000
 20
213.360000
 30
0.0
 10
207.280000
 20
213.840000
 30
0.0
 10
207.360000
 20
214.960000
 30
0.0
 10
207.680000
 20
216.000000
 30
0.0
  0
SPLINE
  5
105
100
AcDbEntity
  8
0
 62
7
100
AcDbSpline
 70
8
 71
3
 72
8
 73
4
 74
0
 40
0
 40
0
 40
0
 40
0
 40
1
 40
1
 40
1
 40
1
 10
207.680000
 20
216.000000
 30
0.0
 10
208.320000
 20
217.840000
 30
0.0
 10
208.560000
 20
218.640000
 30
0.0
 10
211.120000
 20
229.040000
 30
0.0
  0
SPLINE
  5
106
100
AcDbEntity
  8
0
 62
7
100
AcDbSpline
 70
8
 71
3
 72
8
 73
4
 74
0
 40
0
 40
0
 40
0
 40
0
 40
1
 40
1
 40
1
 40
1
 10
211.120000
 20
229.040000
 30
0.0
 10
211.920000
 20
232.240000
 30
0.0
 10
213.440000
 20
237.840000
 30
0.0
 10
214.400000
 20
241.440000
 30
0.0
  0
SPLINE
  5
107
100
AcDbEntity
  8
0
 62
7
100
AcDbSpline
 70
8
 71
3
 72
8
 73
4
 74
0
 40
0
 40
0
 40
0
 40
0
 40
1
 40
1
 40
1
 40
1
 10
214.400000
 20
241.440000
 30
0.0
 10
215.440000
 20
245.120000
 30
0.0
 10
217.360000
 20
252.160000
 30
0.0
 10
218.720000
 20
257.200000
 30
0.0
  0
SPLINE
  5
108
100
AcDbEntity
  8
0
 62
7
100
AcDbSpline
 70
8
 71
3
 72
8
 73
4
 74
0
 40
0
 40
0
 40
0
 40
0
 40
1
 40
1
 40
1
 40
1
 10
218.720000
 20
257.200000
 30
0.0
 10
220.080000
 20
262.240000
 30
0.0
 10
221.600000
 20
266.800000
 30
0.0
 10
222.000000
 20
267.440000
 30
0.0
  0
SPLINE
  5
109
100
AcDbEntity
  8
0
 62
7
100
AcDbSpline
 70
8
 71
3
 72
8
 73
4
 74
0
 40
0
 40
0
 40
0
 40
0
 40
1
 40
1
 40
1
 40
1
 10
222.000000
 20
267.440000
 30
0.0
 10
222.800000
 20
268.560000
 30
0.0
 10
229.600000
 20
270.160000
 30
0.0
 10
243.920000
 20
272.480000
 30
0.0
  0
SPLINE
  5
10a
100
AcDbEntity
  8
0
 62
7
100
AcDbSpline
 70
8
 71
3
 72
8
 73
4
 74
0
 40
0
 40
0
 40
0
 40
0
 40
1
 40
1
 40
1
 40
1
 10
243.920000
 20
272.480000
 30
0.0
 10
264.320000
 20
275.840000
 30
0.0
 10
267.040000
 20
276.080000
 30
0.0
 10
288.960000
 20
276.000000
 30
0.0
  0
SPLINE
  5
10b
100
AcDbEntity
  8
0
 62
7
100
AcDbSpline
 70
8
 71
3
 72
8
 73
4
 74
0
 40
0
 40
0
 40
0
 40
0
 40
1
 40
1
 40
1
 40
1
 10
288.960000
 20
276.000000
 30
0.0
 10
308.400000
 20
276.000000
 30
0.0
 10
311.920000
 20
275.760000
 30
0.0
 10
320.480000
 20
274.240000
 30
0.0
  0
SPLINE
  5
10c
100
AcDbEntity
  8
0
 62
7
100
AcDbSpline
 70
8
 71
3
 72
8
 73
4
 74
0
 40
0
 40
0
 40
0
 40
0
 40
1
 40
1
 40
1
 40
1
 10
320.480000
 20
274.240000
 30
0.0
 10
330.800000
 20
272.320000
 30
0.0
 10
334.960000
 20
271.360000
 30
0.0
 10
335.520000
 20
270.720000
 30
0.0
  0
SPLINE
  5
10d
100
AcDbEntity
  8
0
 62
7
100
AcDbSpline
 70
8
 71
3
 72
8
 73
4
 74
0
 40
0
 40
0
 40
0
 40
0
 40
1
 40
1
 40
1
 40
1
 10
335.520000
 20
270.720000
 30
0.0
 10
335.840000
 20
270.320000
 30
0.0
 10
339.360000
 20
247.040000
 30
0.0
 10
340.720000
 20
235.680000
 30
0.0
  0
SPLINE
  5
10e
100
AcDbEntity
  8
0
 62
7
100
AcDbSpline
 70
8
 71
3
 72
8
 73
4
 74
0
 40
0
 40
0
 40
0
 40
0
 40
1
 40
1
 40
1
 40
1
 10
340.720000
 20
235.680000
 30
0.0
 10
341.200000
 20
231.360000
 30
0.0
 10
341.920000
 20
225.600000
 30
0.0
 10
342.320000
 20
222.800000
 30
0.0
  0
SPLINE
  5
10f
100
AcDbEntity
  8
0
 62
7
100
AcDbSpline
 70
8
 71
3
 72
8
 73
4
 74
0
 40
0
 40
0
 40
0
 40
0
 40
1
 40
1
 40
1
 40
1
 10
342.320000
 20
222.800000
 30
0.0
 10
342.960000
 20
217.920000
 30
0.0
 10
343.600000
 20
211.680000
 30
0.0
 10
344.960000
 20
198.000000
 30
0.0
  0
SPLINE
  5
110
100
AcDbEntity
  8
0
 62
7
100
AcDbSpline
 70
8
 71
3
 72
8
 73
4
 74
0
 40
0
 40
0
 40
0
 40
0
 40
1
 40
1
 40
1
 40
1
 10
344.960000
 20
198.000000
 30
0.0
 10
345.360000
 20
194.480000
 30
0.0
 10
345.680000
 20
189.360000
 30
0.0
 10
345.680000
 20
186.720000
 30
0.0
  0
LINE
  5
111
100
AcDbEntity
  8
0
 62
7
100
AcDbLine
 10
345.680000
 20
186.720000
 30
0.0
 11
345.680000
 21
181.920000
 31
0.0
  0
LINE
  5
112
100
AcDbEntity
  8
0
 62
7
100
AcDbLine
 10
345.680000
 20
181.920000
 30
0.0
 11
342.160000
 21
180.160000
 31
0.0
  0
SPLINE
  5
113
100
AcDbEntity
  8
0
 62
7
100
AcDbSpline
 70
8
 71
3
 72
8
 73
4
 74
0
 40
0
 40
0
 40
0
 40
0
 40
1
 40
1
 40
1
 40
1
 10
342.160000
 20
180.160000
 30
0.0
 10
340.240000
 20
179.120000
 30
0.0
 10
337.200000
 20
177.520000
 30
0.0
 10
335.360000
 20
176.560000
 30
0.0
  0
SPLINE
  5
114
100
AcDbEntity
  8
0
 62
7
100
AcDbSpline
 70
8
 71
3
 72
8
 73
4
 74
0
 40
0
 40
0
 40
0
 40
0
 40
1
 40
1
 40
1
 40
1
 10
335.360000
 20
176.560000
 30
0.0
 10
319.760000
 20
168.400000
 30
0.0
 10
298.400000
 20
165.120000
 30
0.0
 10
280.800000
 20
168.080000
 30
0.0
  0
LINE
  5
115
100
AcDbEntity
  8
0
 62
7
100
AcDbLine
 10
280.800000
 20
168.080000
 30
0.0
 11
280.800000
 21
168.080000
 31
0.0
  0
SPLINE
  5
116
100
AcDbEntity
  8
0
 62
7
100
AcDbSpline
 70
8
 71
3
 72
8
 73
4
 74
0
 40
0
 40
0
 40
0
 40
0
 40
1
 40
1
 40
1
 40
1
 10
361.920000
 20
194.960000
 30
0.0
 10
361.760000
 20
195.520000
 30
0.0
 10
360.720000
 20
202.160000
 30
0.0
 10
359.600000
 20
209.600000
 30
0.0
  0
SPLINE
  5
117
100
AcDbEntity
  8
0
 62
7
100
AcDbSpline
 70
8
 71
3
 72
8
 73
4
 74
0
 40
0
 40
0
 40
0
 40
0
 40
1
 40
1
 40
1
 40
1
 10
359.600000
 20
209.600000
 30
0.0
 10
357.680000
 20
222.240000
 30
0.0
 10
356.640000
 20
228.880000
 30
0.0
 10
354.960000
 20
238.720000
 30
0.0
  0
SPLINE
  5
118
100
AcDbEntity
  8
0
 62
7
100
AcDbSpline
 70
8
 71
3
 72
8
 73
4
 74
0
 40
0
 40
0
 40
0
 40
0
 40
1
 40
1
 40
1
 40
1
 10
354.960000
 20
238.720000
 30
0.0
 10
354.640000
 20
240.880000
 30
0.0
 10
354.000000
 20
244.400000
 30
0.0
 10
353.680000
 20
246.560000
 30
0.0
  0
SPLINE
  5
119
100
AcDbEntity
  8
0
 62
7
100
AcDbSpline
 70
8
 71
3
 72
8
 73
4
 74
0
 40
0
 40
0
 40
0
 40
0
 40
1
 40
1
 40
1
 40
1
 10
353.680000
 20
246.560000
 30
0.0
 10
352.320000
 20
255.120000
 30
0.0
 10
351.520000
 20
259.920000
 30
0.0
 10
350.800000
 20
263.040000
 30
0.0
  0
SPLINE
  5
11a
100
AcDbEntity
  8
0
 62
7
100
AcDbSpline
 70
8
 71
3
 72
8
 73
4
 74
0
 40
0
 40
0
 40
0
 40
0
 40
1
 40
1
 40
1
 40
1
 10
350.800000
 20
263.040000
 30
0.0
 10
350.160000
 20
266.240000
 30
0.0
 10
350.240000
 20
266.640000
 30
0.0
 10
352.320000
 20
270.080000
 30
0.0
  0
SPLINE
  5
11b
100
AcDbEntity
  8
0
 62
7
100
AcDbSpline
 70
8
 71
3
 72
8
 73
4
 74
0
 40
0
 40
0
 40
0
 40
0
 40
1
 40
1
 40
1
 40
1
 10
352.320000
 20
270.080000
 30
0.0
 10
353.520000
 20
272.080000
 30
0.0
 10
354.720000
 20
273.920000
 30
0.0
 10
354.880000
 20
274.080000
 30
0.0
  0
SPLINE
  5
11c
100
AcDbEntity
  8
0
 62
7
100
AcDbSpline
 70
8
 71
3
 72
8
 73
4
 74
0
 40
0
 40
0
 40
0
 40
0
 40
1
 40
1
 40
1
 40
1
 10
354.880000
 20
274.080000
 30
0.0
 10
355.120000
 20
274.320000
 30
0.0
 10
357.440000
 20
277.440000
 30
0.0
 10
360.000000
 20
281.120000
 30
0.0
  0
SPLINE
  5
11d
100
AcDbEntity
  8
0
 62
7
100
AcDbSpline
 70
8
 71
3
 72
8
 73
4
 74
0
 40
0
 40
0
 40
0
 40
0
 40
1
 40
1
 40
1
 40
1
 10
360.000000
 20
281.120000
 30
0.0
 10
366.480000
 20
290.080000
 30
0.0
 10
382.960000
 20
308.320000
 30
0.0
 10
384.640000
 20
308.320000
 30
0.0
  0
SPLINE
  5
11e
100
AcDbEntity
  8
0
 62
7
100
AcDbSpline
 70
8
 71
3
 72
8
 73
4
 74
0
 40
0
 40
0
 40
0
 40
0
 40
1
 40
1
 40
1
 40
1
 10
384.640000
 20
308.320000
 30
0.0
 10
384.880000
 20
308.320000
 30
0.0
 10
385.840000
 20
309.120000
 30
0.0
 10
386.720000
 20
310.080000
 30
0.0
  0
SPLINE
  5
11f
100
AcDbEntity
  8
0
 62
7
100
AcDbSpline
 70
8
 71
3
 72
8
 73
4
 74
0
 40
0
 40
0
 40
0
 40
0
 40
1
 40
1
 40
1
 40
1
 10
386.720000
 20
310.080000
 30
0.0
 10
388.320000
 20
311.760000
 30
0.0
 10
391.520000
 20
314.240000
 30
0.0
 10
399.440000
 20
320.160000
 30
0.0
  0
SPLINE
  5
120
100
AcDbEntity
  8
0
 62
7
100
AcDbSpline
 70
8
 71
3
 72
8
 73
4
 74
0
 40
0
 40
0
 40
0
 40
0
 40
1
 40
1
 40
1
 40
1
 10
399.440000
 20
320.160000
 30
0.0
 10
404.080000
 20
323.600000
 30
0.0
 10
419.760000
 20
332.560000
 30
0.0
 10
420.560000
 20
332.240000
 30
0.0
  0
SPLINE
  5
121
100
AcDbEntity
  8
0
 62
7
100
AcDbSpline
 70
8
 71
3
 72
8
 73
4
 74
0
 40
0
 40
0
 40
0
 40
0
 40
1
 40
1
 40
1
 40
1
 10
420.560000
 20
332.240000
 30
0.0
 10
421.760000
 20
331.760000
 30
0.0
 10
441.760000
 20
307.920000
 30
0.0
 10
441.760000
 20
306.960000
 30
0.0
  0
SPLINE
  5
122
100
AcDbEntity
  8
0
 62
7
100
AcDbSpline
 70
8
 71
3
 72
8
 73
4
 74
0
 40
0
 40
0
 40
0
 40
0
 40
1
 40
1
 40
1
 40
1
 10
441.760000
 20
306.960000
 30
0.0
 10
441.760000
 20
304.320000
 30
0.0
 10
420.320000
 20
264.000000
 30
0.0
 10
414.320000
 20
255.440000
 30
0.0
  0
SPLINE
  5
123
100
AcDbEntity
  8
0
 62
7
100
AcDbSpline
 70
8
 71
3
 72
8
 73
4
 74
0
 40
0
 40
0
 40
0
 40
0
 40
1
 40
1
 40
1
 40
1
 10
414.320000
 20
255.440000
 30
0.0
 10
413.520000
 20
254.320000
 30
0.0
 10
412.160000
 20
252.240000
 30
0.0
 10
411.280000
 20
250.800000
 30
0.0
  0
SPLINE
  5
124
100
AcDbEntity
  8
0
 62
7
100
AcDbSpline
 70
8
 71
3
 72
8
 73
4
 74
0
 40
0
 40
0
 40
0
 40
0
 40
1
 40
1
 40
1
 40
1
 10
411.280000
 20
250.800000
 30
0.0
 10
399.440000
 20
232.240000
 30
0.0
 10
381.840000
 20
211.120000
 30
0.0
 10
368.160000
 20
199.120000
 30
0.0
  0
SPLINE
  5
125
100
AcDbEntity
  8
0
 62
7
100
AcDbSpline
 70
8
 71
3
 72
8
 73
4
 74
0
 40
0
 40
0
 40
0
 40
0
 40
1
 40
1
 40
1
 40
1
 10
368.160000
 20
199.120000
 30
0.0
 10
365.840000
 20
197.040000
 30
0.0
 10
363.520000
 20
195.040000
 30
0.0
 10
363.040000
 20
194.640000
 30
0.0
  0
SPLINE
  5
126
100
AcDbEntity
  8
0
 62
7
100
AcDbSpline
 70
8
 71
3
 72
8
 73
4
 74
0
 40
0
 40
0
 40
0
 40
0
 40
1
 40
1
 40
1
 40
1
 10
363.040000
 20
194.640000
 30
0.0
 10
362.480000
 20
194.160000
 30
0.0
 10
362.160000
 20
194.240000
 30
0.0
 10
361.920000
 20
194.960000
 30
0.0
  0
LINE
  5
127
100
AcDbEntity
  8
0
 62
7
100
AcDbLine
 10
361.920000
 20
194.960000
 30
0.0
 11
361.920000
 21
194.960000
 31
0.0
  0
SPLINE
  5
128
100
AcDbEntity
  8
0
 62
7
100
AcDbSpline
 70
8
 71
3
 72
8
 73
4
 74
0
 40
0
 40
0
 40
0
 40
0
 40
1
 40
1
 40
1
 40
1
 10
194.160000
 20
229.200000
 30
0.0
 10
192.400000
 20
231.520000
 30
0.0
 10
189.520000
 20
235.200000
 30
0.0
 10
187.920000
 20
237.600000
 30
0.0
  0
SPLINE
  5
129
100
AcDbEntity
  8
0
 62
7
100
AcDbSpline
 70
8
 71
3
 72
8
 73
4
 74
0
 40
0
 40
0
 40
0
 40
0
 40
1
 40
1
 40
1
 40
1
 10
187.920000
 20
237.600000
 30
0.0
 10
186.320000
 20
239.920000
 30
0.0
 10
184.560000
 20
242.320000
 30
0.0
 10
184.080000
 20
242.880000
 30
0.0
  0
SPLINE
  5
12a
100
AcDbEntity
  8
0
 62
7
100
AcDbSpline
 70
8
 71
3
 72
8
 73
4
 74
0
 40
0
 40
0
 40
0
 40
0
 40
1
 40
1
 40
1
 40
1
 10
184.080000
 20
242.880000
 30
0.0
 10
183.680000
 20
243.440000
 30
0.0
 10
182.480000
 20
245.200000
 30
0.0
 10
181.440000
 20
246.800000
 30
0.0
  0
SPLINE
  5
12b
100
AcDbEntity
  8
0
 62
7
100
AcDbSpline
 70
8
 71
3
 72
8
 73
4
 74
0
 40
0
 40
0
 40
0
 40
0
 40
1
 40
1
 40
1
 40
1
 10
181.440000
 20
246.800000
 30
0.0
 10
180.480000
 20
248.320000
 30
0.0
 10
179.520000
 20
249.840000
 30
0.0
 10
179.280000
 20
250.000000
 30
0.0
  0
SPLINE
  5
12c
100
AcDbEntity
  8
0
 62
7
100
AcDbSpline
 70
8
 71
3
 72
8
 73
4
 74
0
 40
0
 40
0
 40
0
 40
0
 40
1
 40
1
 40
1
 40
1
 10
179.280000
 20
250.000000
 30
0.0
 10
179.040000
 20
250.240000
 30
0.0
 10
177.920000
 20
252.160000
 30
0.0
 10
176.640000
 20
254.320000
 30
0.0
  0
SPLINE
  5
12d
100
AcDbEntity
  8
0
 62
7
100
AcDbSpline
 70
8
 71
3
 72
8
 73
4
 74
0
 40
0
 40
0
 40
0
 40
0
 40
1
 40
1
 40
1
 40
1
 10
176.640000
 20
254.320000
 30
0.0
 10
175.440000
 20
256.400000
 30
0.0
 10
174.240000
 20
258.320000
 30
0.0
 10
174.000000
 20
258.560000
 30
0.0
  0
SPLINE
  5
12e
100
AcDbEntity
  8
0
 62
7
100
AcDbSpline
 70
8
 71
3
 72
8
 73
4
 74
0
 40
0
 40
0
 40
0
 40
0
 40
1
 40
1
 40
1
 40
1
 10
174.000000
 20
258.560000
 30
0.0
 10
172.960000
 20
259.520000
 30
0.0
 10
159.040000
 20
284.240000
 30
0.0
 10
155.360000
 20
291.760000
 30
0.0
  0
SPLINE
  5
12f
100
AcDbEntity
  8
0
 62
7
100
AcDbSpline
 70
8
 71
3
 72
8
 73
4
 74
0
 40
0
 40
0
 40
0
 40
0
 40
1
 40
1
 40
1
 40
1
 10
155.360000
 20
291.760000
 30
0.0
 10
154.720000
 20
293.200000
 30
0.0
 10
153.600000
 20
295.440000
 30
0.0
 10
152.880000
 20
296.800000
 30
0.0
  0
SPLINE
  5
130
100
AcDbEntity
  8
0
 62
7
100
AcDbSpline
 70
8
 71
3
 72
8
 73
4
 74
0
 40
0
 40
0
 40
0
 40
0
 40
1
 40
1
 40
1
 40
1
 10
152.880000
 20
296.800000
 30
0.0
 10
152.240000
 20
298.240000
 30
0.0
 10
150.880000
 20
300.960000
 30
0.0
 10
149.920000
 20
302.880000
 30
0.0
  0
SPLINE
  5
131
100
AcDbEntity
  8
0
 62
7
100
AcDbSpline
 70
8
 71
3
 72
8
 73
4
 74
0
 40
0
 40
0
 40
0
 40
0
 40
1
 40
1
 40
1
 40
1
 10
149.920000
 20
302.880000
 30
0.0
 10
148.960000
 20
304.800000
 30
0.0
 10
145.440000
 20
312.800000
 30
0.0
 10
142.080000
 20
320.560000
 30
0.0
  0
LINE
  5
132
100
AcDbEntity
  8
0
 62
7
100
AcDbLine
 10
142.080000
 20
320.560000
 30
0.0
 11
136.000000
 21
334.880000
 31
0.0
  0
LINE
  5
133
100
AcDbEntity
  8
0
 62
7
100
AcDbLine
 10
136.000000
 20
334.880000
 30
0.0
 11
137.600000
 21
336.320000
 31
0.0
  0
SPLINE
  5
134
100
AcDbEntity
  8
0
 62
7
100
AcDbSpline
 70
8
 71
3
 72
8
 73
4
 74
0
 40
0
 40
0
 40
0
 40
0
 40
1
 40
1
 40
1
 40
1
 10
137.600000
 20
336.320000
 30
0.0
 10
138.480000
 20
337.120000
 30
0.0
 10
139.440000
 20
337.760000
 30
0.0
 10
139.760000
 20
337.760000
 30
0.0
  0
SPLINE
  5
135
100
AcDbEntity
  8
0
 62
7
100
AcDbSpline
 70
8
 71
3
 72
8
 73
4
 74
0
 40
0
 40
0
 40
0
 40
0
 40
1
 40
1
 40
1
 40
1
 10
139.760000
 20
337.760000
 30
0.0
 10
140.080000
 20
337.840000
 30
0.0
 10
141.280000
 20
338.720000
 30
0.0
 10
142.480000
 20
339.760000
 30
0.0
  0
SPLINE
  5
136
100
AcDbEntity
  8
0
 62
7
100
AcDbSpline
 70
8
 71
3
 72
8
 73
4
 74
0
 40
0
 40
0
 40
0
 40
0
 40
1
 40
1
 40
1
 40
1
 10
142.480000
 20
339.760000
 30
0.0
 10
143.680000
 20
340.800000
 30
0.0
 10
144.960000
 20
341.680000
 30
0.0
 10
145.360000
 20
341.680000
 30
0.0
  0
SPLINE
  5
137
100
AcDbEntity
  8
0
 62
7
100
AcDbSpline
 70
8
 71
3
 72
8
 73
4
 74
0
 40
0
 40
0
 40
0
 40
0
 40
1
 40
1
 40
1
 40
1
 10
145.360000
 20
341.680000
 30
0.0
 10
145.760000
 20
341.680000
 30
0.0
 10
146.160000
 20
341.920000
 30
0.0
 10
146.320000
 20
342.240000
 30
0.0
  0
SPLINE
  5
138
100
AcDbEntity
  8
0
 62
7
100
AcDbSpline
 70
8
 71
3
 72
8
 73
4
 74
0
 40
0
 40
0
 40
0
 40
0
 40
1
 40
1
 40
1
 40
1
 10
146.320000
 20
342.240000
 30
0.0
 10
146.400000
 20
342.640000
 30
0.0
 10
148.720000
 20
344.560000
 30
0.0
 10
151.360000
 20
346.560000
 30
0.0
  0
SPLINE
  5
139
100
AcDbEntity
  8
0
 62
7
100
AcDbSpline
 70
8
 71
3
 72
8
 73
4
 74
0
 40
0
 40
0
 40
0
 40
0
 40
1
 40
1
 40
1
 40
1
 10
151.360000
 20
346.560000
 30
0.0
 10
156.560000
 20
350.640000
 30
0.0
 10
156.320000
 20
350.640000
 30
0.0
 10
159.840000
 20
346.720000
 30
0.0
  0
SPLINE
  5
13a
100
AcDbEntity
  8
0
 62
7
100
AcDbSpline
 70
8
 71
3
 72
8
 73
4
 74
0
 40
0
 40
0
 40
0
 40
0
 40
1
 40
1
 40
1
 40
1
 10
159.840000
 20
346.720000
 30
0.0
 10
162.400000
 20
343.920000
 30
0.0
 10
174.320000
 20
328.960000
 30
0.0
 10
177.760000
 20
324.240000
 30
0.0
  0
SPLINE
  5
13b
100
AcDbEntity
  8
0
 62
7
100
AcDbSpline
 70
8
 71
3
 72
8
 73
4
 74
0
 40
0
 40
0
 40
0
 40
0
 40
1
 40
1
 40
1
 40
1
 10
177.760000
 20
324.240000
 30
0.0
 10
181.040000
 20
319.840000
 30
0.0
 10
182.000000
 20
318.480000
 30
0.0
 10
184.800000
 20
314.560000
 30
0.0
  0
SPLINE
  5
13c
100
AcDbEntity
  8
0
 62
7
100
AcDbSpline
 70
8
 71
3
 72
8
 73
4
 74
0
 40
0
 40
0
 40
0
 40
0
 40
1
 40
1
 40
1
 40
1
 10
184.800000
 20
314.560000
 30
0.0
 10
187.920000
 20
310.160000
 30
0.0
 10
198.480000
 20
294.400000
 30
0.0
 10
199.840000
 20
292.000000
 30
0.0
  0
SPLINE
  5
13d
100
AcDbEntity
  8
0
 62
7
100
AcDbSpline
 70
8
 71
3
 72
8
 73
4
 74
0
 40
0
 40
0
 40
0
 40
0
 40
1
 40
1
 40
1
 40
1
 10
199.840000
 20
292.000000
 30
0.0
 10
200.720000
 20
290.480000
 30
0.0
 10
201.600000
 20
289.040000
 30
0.0
 10
201.840000
 20
288.880000
 30
0.0
  0
SPLINE
  5
13e
100
AcDbEntity
  8
0
 62
7
100
AcDbSpline
 70
8
 71
3
 72
8
 73
4
 74
0
 40
0
 40
0
 40
0
 40
0
 40
1
 40
1
 40
1
 40
1
 10
201.840000
 20
288.880000
 30
0.0
 10
202.560000
 20
288.080000
 30
0.0
 10
207.840000
 20
279.600000
 30
0.0
 10
207.840000
 20
279.120000
 30
0.0
  0
SPLINE
  5
13f
100
AcDbEntity
  8
0
 62
7
100
AcDbSpline
 70
8
 71
3
 72
8
 73
4
 74
0
 40
0
 40
0
 40
0
 40
0
 40
1
 40
1
 40
1
 40
1
 10
207.840000
 20
279.120000
 30
0.0
 10
207.840000
 20
278.880000
 30
0.0
 10
208.400000
 20
277.920000
 30
0.0
 10
209.200000
 20
276.960000
 30
0.0
  0
SPLINE
  5
140
100
AcDbEntity
  8
0
 62
7
100
AcDbSpline
 70
8
 71
3
 72
8
 73
4
 74
0
 40
0
 40
0
 40
0
 40
0
 40
1
 40
1
 40
1
 40
1
 10
209.200000
 20
276.960000
 30
0.0
 10
210.720000
 20
275.040000
 30
0.0
 10
210.800000
 20
275.440000
 30
0.0
 10
207.280000
 20
262.080000
 30
0.0
  0
SPLINE
  5
141
100
AcDbEntity
  8
0
 62
7
100
AcDbSpline
 70
8
 71
3
 72
8
 73
4
 74
0
 40
0
 40
0
 40
0
 40
0
 40
1
 40
1
 40
1
 40
1
 10
207.280000
 20
262.080000
 30
0.0
 10
203.600000
 20
247.920000
 30
0.0
 10
200.160000
 20
234.880000
 30
0.0
 10
198.880000
 20
229.600000
 30
0.0
  0
SPLINE
  5
142
100
AcDbEntity
  8
0
 62
7
100
AcDbSpline
 70
8
 71
3
 72
8
 73
4
 74
0
 40
0
 40
0
 40
0
 40
0
 40
1
 40
1
 40
1
 40
1
 10
198.880000
 20
229.600000
 30
0.0
 10
198.320000
 20
227.200000
 30
0.0
 10
197.760000
 20
225.120000
 30
0.0
 10
197.600000
 20
225.120000
 30
0.0
  0
SPLINE
  5
143
100
AcDbEntity
  8
0
 62
7
100
AcDbSpline
 70
8
 71
3
 72
8
 73
4
 74
0
 40
0
 40
0
 40
0
 40
0
 40
1
 40
1
 40
1
 40
1
 10
197.600000
 20
225.120000
 30
0.0
 10
197.520000
 20
225.120000
 30
0.0
 10
196.000000
 20
226.960000
 30
0.0
 10
194.160000
 20
229.200000
 30
0.0
  0
LINE
  5
144
100
AcDbEntity
  8
0
 62
7
100
AcDbLine
 10
194.160000
 20
229.200000
 30
0.0
 11
194.160000
 21
229.200000
 31
0.0
  0
SPLINE
  5
145
100
AcDbEntity
  8
0
 62
7
100
AcDbSpline
 70
8
 71
3
 72
8
 73
4
 74
0
 40
0
 40
0
 40
0
 40
0
 40
1
 40
1
 40
1
 40
1
 10
229.040000
 20
291.200000
 30
0.0
 10
229.040000
 20
292.400000
 30
0.0
 10
237.680000
 20
320.800000
 30
0.0
 10
240.320000
 20
328.080000
 30
0.0
  0
SPLINE
  5
146
100
AcDbEntity
  8
0
 62
7
100
AcDbSpline
 70
8
 71
3
 72
8
 73
4
 74
0
 40
0
 40
0
 40
0
 40
0
 40
1
 40
1
 40
1
 40
1
 10
240.320000
 20
328.080000
 30
0.0
 10
240.640000
 20
328.960000
 30
0.0
 10
241.920000
 20
333.120000
 30
0.0
 10
243.280000
 20
337.440000
 30
0.0
  0
SPLINE
  5
147
100
AcDbEntity
  8
0
 62
7
100
AcDbSpline
 70
8
 71
3
 72
8
 73
4
 74
0
 40
0
 40
0
 40
0
 40
0
 40
1
 40
1
 40
1
 40
1
 10
243.280000
 20
337.440000
 30
0.0
 10
244.640000
 20
341.680000
 30
0.0
 10
246.640000
 20
348.000000
 30
0.0
 10
247.680000
 20
351.440000
 30
0.0
  0
SPLINE
  5
148
100
AcDbEntity
  8
0
 62
7
100
AcDbSpline
 70
8
 71
3
 72
8
 73
4
 74
0
 40
0
 40
0
 40
0
 40
0
 40
1
 40
1
 40
1
 40
1
 10
247.680000
 20
351.440000
 30
0.0
 10
248.800000
 20
354.800000
 30
0.0
 10
250.160000
 20
359.280000
 30
0.0
 10
250.800000
 20
361.280000
 30
0.0
  0
SPLINE
  5
149
100
AcDbEntity
  8
0
 62
7
100
AcDbSpline
 70
8
 71
3
 72
8
 73
4
 74
0
 40
0
 40
0
 40
0
 40
0
 40
1
 40
1
 40
1
 40
1
 10
250.800000
 20
361.280000
 30
0.0
 10
251.360000
 20
363.360000
 30
0.0
 10
252.240000
 20
364.960000
 30
0.0
 10
252.640000
 20
364.960000
 30
0.0
  0
SPLINE
  5
14a
100
AcDbEntity
  8
0
 62
7
100
AcDbSpline
 70
8
 71
3
 72
8
 73
4
 74
0
 40
0
 40
0
 40
0
 40
0
 40
1
 40
1
 40
1
 40
1
 10
252.640000
 20
364.960000
 30
0.0
 10
253.040000
 20
365.040000
 30
0.0
 10
255.360000
 20
362.560000
 30
0.0
 10
257.680000
 20
359.600000
 30
0.0
  0
SPLINE
  5
14b
100
AcDbEntity
  8
0
 62
7
100
AcDbSpline
 70
8
 71
3
 72
8
 73
4
 74
0
 40
0
 40
0
 40
0
 40
0
 40
1
 40
1
 40
1
 40
1
 10
257.680000
 20
359.600000
 30
0.0
 10
260.080000
 20
356.560000
 30
0.0
 10
262.320000
 20
354.160000
 30
0.0
 10
262.640000
 20
354.160000
 30
0.0
  0
SPLINE
  5
14c
100
AcDbEntity
  8
0
 62
7
100
AcDbSpline
 70
8
 71
3
 72
8
 73
4
 74
0
 40
0
 40
0
 40
0
 40
0
 40
1
 40
1
 40
1
 40
1
 10
262.640000
 20
354.160000
 30
0.0
 10
263.040000
 20
354.160000
 30
0.0
 10
266.160000
 20
355.680000
 30
0.0
 10
269.600000
 20
357.600000
 30
0.0
  0
SPLINE
  5
14d
100
AcDbEntity
  8
0
 62
7
100
AcDbSpline
 70
8
 71
3
 72
8
 73
4
 74
0
 40
0
 40
0
 40
0
 40
0
 40
1
 40
1
 40
1
 40
1
 10
269.600000
 20
357.600000
 30
0.0
 10
282.720000
 20
364.880000
 30
0.0
 10
297.120000
 20
368.880000
 30
0.0
 10
310.480000
 20
368.880000
 30
0.0
  0
SPLINE
  5
14e
100
AcDbEntity
  8
0
 62
7
100
AcDbSpline
 70
8
 71
3
 72
8
 73
4
 74
0
 40
0
 40
0
 40
0
 40
0
 40
1
 40
1
 40
1
 40
1
 10
310.480000
 20
368.880000
 30
0.0
 10
316.800000
 20
368.880000
 30
0.0
 10
317.760000
 20
368.720000
 30
0.0
 10
318.080000
 20
367.520000
 30
0.0
  0
SPLINE
  5
14f
100
AcDbEntity
  8
0
 62
7
100
AcDbSpline
 70
8
 71
3
 72
8
 73
4
 74
0
 40
0
 40
0
 40
0
 40
0
 40
1
 40
1
 40
1
 40
1
 10
318.080000
 20
367.520000
 30
0.0
 10
318.240000
 20
366.800000
 30
0.0
 10
318.720000
 20
364.400000
 30
0.0
 10
319.120000
 20
362.320000
 30
0.0
  0
SPLINE
  5
150
100
AcDbEntity
  8
0
 62
7
100
AcDbSpline
 70
8
 71
3
 72
8
 73
4
 74
0
 40
0
 40
0
 40
0
 40
0
 40
1
 40
1
 40
1
 40
1
 10
319.120000
 20
362.320000
 30
0.0
 10
319.520000
 20
360.160000
 30
0.0
 10
320.160000
 20
357.200000
 30
0.0
 10
320.480000
 20
355.680000
 30
0.0
  0
SPLINE
  5
151
100
AcDbEntity
  8
0
 62
7
100
AcDbSpline
 70
8
 71
3
 72
8
 73
4
 74
0
 40
0
 40
0
 40
0
 40
0
 40
1
 40
1
 40
1
 40
1
 10
320.480000
 20
355.680000
 30
0.0
 10
320.800000
 20
354.160000
 30
0.0
 10
321.680000
 20
349.680000
 30
0.0
 10
322.480000
 20
345.600000
 30
0.0
  0
SPLINE
  5
152
100
AcDbEntity
  8
0
 62
7
100
AcDbSpline
 70
8
 71
3
 72
8
 73
4
 74
0
 40
0
 40
0
 40
0
 40
0
 40
1
 40
1
 40
1
 40
1
 10
322.480000
 20
345.600000
 30
0.0
 10
323.200000
 20
341.520000
 30
0.0
 10
324.080000
 20
336.800000
 30
0.0
 10
324.400000
 20
335.120000
 30
0.0
  0
SPLINE
  5
153
100
AcDbEntity
  8
0
 62
7
100
AcDbSpline
 70
8
 71
3
 72
8
 73
4
 74
0
 40
0
 40
0
 40
0
 40
0
 40
1
 40
1
 40
1
 40
1
 10
324.400000
 20
335.120000
 30
0.0
 10
328.400000
 20
314.640000
 30
0.0
 10
331.760000
 20
295.280000
 30
0.0
 10
331.760000
 20
292.880000
 30
0.0
  0
SPLINE
  5
154
100
AcDbEntity
  8
0
 62
7
100
AcDbSpline
 70
8
 71
3
 72
8
 73
4
 74
0
 40
0
 40
0
 40
0
 40
0
 40
1
 40
1
 40
1
 40
1
 10
331.760000
 20
292.880000
 30
0.0
 10
331.760000
 20
291.360000
 30
0.0
 10
331.520000
 20
291.200000
 30
0.0
 10
329.600000
 20
291.600000
 30
0.0
  0
SPLINE
  5
155
100
AcDbEntity
  8
0
 62
7
100
AcDbSpline
 70
8
 71
3
 72
8
 73
4
 74
0
 40
0
 40
0
 40
0
 40
0
 40
1
 40
1
 40
1
 40
1
 10
329.600000
 20
291.600000
 30
0.0
 10
318.880000
 20
293.760000
 30
0.0
 10
264.400000
 20
295.120000
 30
0.0
 10
248.560000
 20
293.600000
 30
0.0
  0
SPLINE
  5
156
100
AcDbEntity
  8
0
 62
7
100
AcDbSpline
 70
8
 71
3
 72
8
 73
4
 74
0
 40
0
 40
0
 40
0
 40
0
 40
1
 40
1
 40
1
 40
1
 10
248.560000
 20
293.600000
 30
0.0
 10
239.840000
 20
292.720000
 30
0.0
 10
236.560000
 20
292.240000
 30
0.0
 10
230.480000
 20
290.720000
 30
0.0
  0
SPLINE
  5
157
100
AcDbEntity
  8
0
 62
7
100
AcDbSpline
 70
8
 71
3
 72
8
 73
4
 74
0
 40
0
 40
0
 40
0
 40
0
 40
1
 40
1
 40
1
 40
1
 10
230.480000
 20
290.720000
 30
0.0
 10
229.680000
 20
290.560000
 30
0.0
 10
229.040000
 20
290.720000
 30
0.0
 10
229.040000
 20
291.200000
 30
0.0
  0
LINE
  5
158
100
AcDbEntity
  8
0
 62
7
100
AcDbLine
 10
229.040000
 20
291.200000
 30
0.0
 11
229.040000
 21
291.200000
 31
0.0
  0
SPLINE
  5
159
100
AcDbEntity
  8
0
 62
7
100
AcDbSpline
 70
8
 71
3
 72
8
 73
4
 74
0
 40
0
 40
0
 40
0
 40
0
 40
1
 40
1
 40
1
 40
1
 10
344.720000
 20
298.000000
 30
0.0
 10
344.080000
 20
301.760000
 30
0.0
 10
343.280000
 20
306.000000
 30
0.0
 10
342.960000
 20
307.520000
 30
0.0
  0
SPLINE
  5
15a
100
AcDbEntity
  8
0
 62
7
100
AcDbSpline
 70
8
 71
3
 72
8
 73
4
 74
0
 40
0
 40
0
 40
0
 40
0
 40
1
 40
1
 40
1
 40
1
 10
342.960000
 20
307.520000
 30
0.0
 10
342.640000
 20
309.040000
 30
0.0
 10
341.920000
 20
312.480000
 30
0.0
 10
341.440000
 20
315.280000
 30
0.0
  0
SPLINE
  5
15b
100
AcDbEntity
  8
0
 62
7
100
AcDbSpline
 70
8
 71
3
 72
8
 73
4
 74
0
 40
0
 40
0
 40
0
 40
0
 40
1
 40
1
 40
1
 40
1
 10
341.440000
 20
315.280000
 30
0.0
 10
339.600000
 20
324.800000
 30
0.0
 10
336.960000
 20
337.440000
 30
0.0
 10
334.240000
 20
349.840000
 30
0.0
  0
SPLINE
  5
15c
100
AcDbEntity
  8
0
 62
7
100
AcDbSpline
 70
8
 71
3
 72
8
 73
4
 74
0
 40
0
 40
0
 40
0
 40
0
 40
1
 40
1
 40
1
 40
1
 10
334.240000
 20
349.840000
 30
0.0
 10
330.320000
 20
367.920000
 30
0.0
 10
330.400000
 20
366.080000
 30
0.0
 10
333.840000
 20
365.520000
 30
0.0
  0
SPLINE
  5
15d
100
AcDbEntity
  8
0
 62
7
100
AcDbSpline
 70
8
 71
3
 72
8
 73
4
 74
0
 40
0
 40
0
 40
0
 40
0
 40
1
 40
1
 40
1
 40
1
 10
333.840000
 20
365.520000
 30
0.0
 10
336.480000
 20
365.040000
 30
0.0
 10
336.960000
 20
365.200000
 30
0.0
 10
340.320000
 20
368.160000
 30
0.0
  0
SPLINE
  5
15e
100
AcDbEntity
  8
0
 62
7
100
AcDbSpline
 70
8
 71
3
 72
8
 73
4
 74
0
 40
0
 40
0
 40
0
 40
0
 40
1
 40
1
 40
1
 40
1
 10
340.320000
 20
368.160000
 30
0.0
 10
342.400000
 20
369.920000
 30
0.0
 10
344.640000
 20
372.000000
 30
0.0
 10
345.440000
 20
372.800000
 30
0.0
  0
SPLINE
  5
15f
100
AcDbEntity
  8
0
 62
7
100
AcDbSpline
 70
8
 71
3
 72
8
 73
4
 74
0
 40
0
 40
0
 40
0
 40
0
 40
1
 40
1
 40
1
 40
1
 10
345.440000
 20
372.800000
 30
0.0
 10
346.240000
 20
373.600000
 30
0.0
 10
348.240000
 20
375.280000
 30
0.0
 10
349.760000
 20
376.400000
 30
0.0
  0
SPLINE
  5
160
100
AcDbEntity
  8
0
 62
7
100
AcDbSpline
 70
8
 71
3
 72
8
 73
4
 74
0
 40
0
 40
0
 40
0
 40
0
 40
1
 40
1
 40
1
 40
1
 10
349.760000
 20
376.400000
 30
0.0
 10
351.360000
 20
377.600000
 30
0.0
 10
352.800000
 20
378.800000
 30
0.0
 10
352.960000
 20
379.040000
 30
0.0
  0
SPLINE
  5
161
100
AcDbEntity
  8
0
 62
7
100
AcDbSpline
 70
8
 71
3
 72
8
 73
4
 74
0
 40
0
 40
0
 40
0
 40
0
 40
1
 40
1
 40
1
 40
1
 10
352.960000
 20
379.040000
 30
0.0
 10
354.160000
 20
380.640000
 30
0.0
 10
367.760000
 20
390.720000
 30
0.0
 10
368.480000
 20
390.480000
 30
0.0
  0
SPLINE
  5
162
100
AcDbEntity
  8
0
 62
7
100
AcDbSpline
 70
8
 71
3
 72
8
 73
4
 74
0
 40
0
 40
0
 40
0
 40
0
 40
1
 40
1
 40
1
 40
1
 10
368.480000
 20
390.480000
 30
0.0
 10
368.960000
 20
390.400000
 30
0.0
 10
372.240000
 20
387.120000
 30
0.0
 10
375.680000
 20
383.280000
 30
0.0
  0
SPLINE
  5
163
100
AcDbEntity
  8
0
 62
7
100
AcDbSpline
 70
8
 71
3
 72
8
 73
4
 74
0
 40
0
 40
0
 40
0
 40
0
 40
1
 40
1
 40
1
 40
1
 10
375.680000
 20
383.280000
 30
0.0
 10
397.280000
 20
359.040000
 30
0.0
 10
405.200000
 20
350.240000
 30
0.0
 10
406.960000
 20
348.400000
 30
0.0
  0
LINE
  5
164
100
AcDbEntity
  8
0
 62
7
100
AcDbLine
 10
406.960000
 20
348.400000
 30
0.0
 11
408.960000
 21
346.320000
 31
0.0
  0
LINE
  5
165
100
AcDbEntity
  8
0
 62
7
100
AcDbLine
 10
408.960000
 20
346.320000
 30
0.0
 11
407.520000
 21
344.960000
 31
0.0
  0
SPLINE
  5
166
100
AcDbEntity
  8
0
 62
7
100
AcDbSpline
 70
8
 71
3
 72
8
 73
4
 74
0
 40
0
 40
0
 40
0
 40
0
 40
1
 40
1
 40
1
 40
1
 10
407.520000
 20
344.960000
 30
0.0
 10
406.720000
 20
344.240000
 30
0.0
 10
403.840000
 20
341.680000
 30
0.0
 10
401.040000
 20
339.360000
 30
0.0
  0
SPLINE
  5
167
100
AcDbEntity
  8
0
 62
7
100
AcDbSpline
 70
8
 71
3
 72
8
 73
4
 74
0
 40
0
 40
0
 40
0
 40
0
 40
1
 40
1
 40
1
 40
1
 10
401.040000
 20
339.360000
 30
0.0
 10
398.240000
 20
337.040000
 30
0.0
 10
393.920000
 20
333.360000
 30
0.0
 10
391.520000
 20
331.200000
 30
0.0
  0
SPLINE
  5
168
100
AcDbEntity
  8
0
 62
7
100
AcDbSpline
 70
8
 71
3
 72
8
 73
4
 74
0
 40
0
 40
0
 40
0
 40
0
 40
1
 40
1
 40
1
 40
1
 10
391.520000
 20
331.200000
 30
0.0
 10
389.040000
 20
328.960000
 30
0.0
 10
386.640000
 20
326.880000
 30
0.0
 10
386.000000
 20
326.480000
 30
0.0
  0
SPLINE
  5
169
100
AcDbEntity
  8
0
 62
7
100
AcDbSpline
 70
8
 71
3
 72
8
 73
4
 74
0
 40
0
 40
0
 40
0
 40
0
 40
1
 40
1
 40
1
 40
1
 10
386.000000
 20
326.480000
 30
0.0
 10
385.440000
 20
326.080000
 30
0.0
 10
383.920000
 20
324.800000
 30
0.0
 10
382.720000
 20
323.680000
 30
0.0
  0
SPLINE
  5
16a
100
AcDbEntity
  8
0
 62
7
100
AcDbSpline
 70
8
 71
3
 72
8
 73
4
 74
0
 40
0
 40
0
 40
0
 40
0
 40
1
 40
1
 40
1
 40
1
 10
382.720000
 20
323.680000
 30
0.0
 10
379.440000
 20
320.640000
 30
0.0
 10
367.360000
 20
309.920000
 30
0.0
 10
363.440000
 20
306.560000
 30
0.0
  0
SPLINE
  5
16b
100
AcDbEntity
  8
0
 62
7
100
AcDbSpline
 70
8
 71
3
 72
8
 73
4
 74
0
 40
0
 40
0
 40
0
 40
0
 40
1
 40
1
 40
1
 40
1
 10
363.440000
 20
306.560000
 30
0.0
 10
361.520000
 20
304.880000
 30
0.0
 10
359.040000
 20
302.640000
 30
0.0
 10
357.920000
 20
301.440000
 30
0.0
  0
SPLINE
  5
16c
100
AcDbEntity
  8
0
 62
7
100
AcDbSpline
 70
8
 71
3
 72
8
 73
4
 74
0
 40
0
 40
0
 40
0
 40
0
 40
1
 40
1
 40
1
 40
1
 10
357.920000
 20
301.440000
 30
0.0
 10
354.560000
 20
297.840000
 30
0.0
 10
347.040000
 20
291.200000
 30
0.0
 10
346.480000
 20
291.200000
 30
0.0
  0
SPLINE
  5
16d
100
AcDbEntity
  8
0
 62
7
100
AcDbSpline
 70
8
 71
3
 72
8
 73
4
 74
0
 40
0
 40
0
 40
0
 40
0
 40
1
 40
1
 40
1
 40
1
 10
346.480000
 20
291.200000
 30
0.0
 10
346.160000
 20
291.200000
 30
0.0
 10
345.360000
 20
294.240000
 30
0.0
 10
344.720000
 20
298.000000
 30
0.0
  0
LINE
  5
16e
100
AcDbEntity
  8
0
 62
7
100
AcDbLine
 10
344.720000
 20
298.000000
 30
0.0
 11
344.720000
 21
298.000000
 31
0.0
  0
SPLINE
  5
16f
100
AcDbEntity
  8
0
 62
7
100
AcDbSpline
 70
8
 71
3
 72
8
 73
4
 74
0
 40
0
 40
0
 40
0
 40
0
 40
1
 40
1
 40
1
 40
1
 10
217.760000
 20
305.920000
 30
0.0
 10
217.760000
 20
306.720000
 30
0.0
 10
216.880000
 20
308.160000
 30
0.0
 10
213.760000
 20
312.160000
 30
0.0
  0
SPLINE
  5
170
100
AcDbEntity
  8
0
 62
7
100
AcDbSpline
 70
8
 71
3
 72
8
 73
4
 74
0
 40
0
 40
0
 40
0
 40
0
 40
1
 40
1
 40
1
 40
1
 10
213.760000
 20
312.160000
 30
0.0
 10
212.880000
 20
313.360000
 30
0.0
 10
211.200000
 20
315.680000
 30
0.0
 10
210.080000
 20
317.360000
 30
0.0
  0
SPLINE
  5
171
100
AcDbEntity
  8
0
 62
7
100
AcDbSpline
 70
8
 71
3
 72
8
 73
4
 74
0
 40
0
 40
0
 40
0
 40
0
 40
1
 40
1
 40
1
 40
1
 10
210.080000
 20
317.360000
 30
0.0
 10
204.160000
 20
325.840000
 30
0.0
 10
193.680000
 20
337.840000
 30
0.0
 10
183.760000
 20
347.680000
 30
0.0
  0
SPLINE
  5
172
100
AcDbEntity
  8
0
 62
7
100
AcDbSpline
 70
8
 71
3
 72
8
 73
4
 74
0
 40
0
 40
0
 40
0
 40
0
 40
1
 40
1
 40
1
 40
1
 10
183.760000
 20
347.680000
 30
0.0
 10
181.440000
 20
349.920000
 30
0.0
 10
171.520000
 20
357.200000
 30
0.0
 10
170.800000
 20
357.200000
 30
0.0
  0
SPLINE
  5
173
100
AcDbEntity
  8
0
 62
7
100
AcDbSpline
 70
8
 71
3
 72
8
 73
4
 74
0
 40
0
 40
0
 40
0
 40
0
 40
1
 40
1
 40
1
 40
1
 10
170.800000
 20
357.200000
 30
0.0
 10
170.480000
 20
357.200000
 30
0.0
 10
169.840000
 20
357.760000
 30
0.0
 10
169.440000
 20
358.320000
 30
0.0
  0
SPLINE
  5
174
100
AcDbEntity
  8
0
 62
7
100
AcDbSpline
 70
8
 71
3
 72
8
 73
4
 74
0
 40
0
 40
0
 40
0
 40
0
 40
1
 40
1
 40
1
 40
1
 10
169.440000
 20
358.320000
 30
0.0
 10
168.800000
 20
359.200000
 30
0.0
 10
170.320000
 20
360.720000
 30
0.0
 10
177.440000
 20
366.240000
 30
0.0
  0
SPLINE
  5
175
100
AcDbEntity
  8
0
 62
7
100
AcDbSpline
 70
8
 71
3
 72
8
 73
4
 74
0
 40
0
 40
0
 40
0
 40
0
 40
1
 40
1
 40
1
 40
1
 10
177.440000
 20
366.240000
 30
0.0
 10
182.320000
 20
370.080000
 30
0.0
 10
186.400000
 20
373.360000
 30
0.0
 10
186.640000
 20
373.520000
 30
0.0
  0
SPLINE
  5
176
100
AcDbEntity
  8
0
 62
7
100
AcDbSpline
 70
8
 71
3
 72
8
 73
4
 74
0
 40
0
 40
0
 40
0
 40
0
 40
1
 40
1
 40
1
 40
1
 10
186.640000
 20
373.520000
 30
0.0
 10
186.800000
 20
373.760000
 30
0.0
 10
190.880000
 20
377.040000
 30
0.0
 10
195.680000
 20
380.800000
 30
0.0
  0
LINE
  5
177
100
AcDbEntity
  8
0
 62
7
100
AcDbLine
 10
195.680000
 20
380.800000
 30
0.0
 11
204.320000
 21
387.680000
 31
0.0
  0
LINE
  5
178
100
AcDbEntity
  8
0
 62
7
100
AcDbLine
 10
204.320000
 20
387.680000
 30
0.0
 11
211.200000
 21
386.320000
 31
0.0
  0
SPLINE
  5
179
100
AcDbEntity
  8
0
 62
7
100
AcDbSpline
 70
8
 71
3
 72
8
 73
4
 74
0
 40
0
 40
0
 40
0
 40
0
 40
1
 40
1
 40
1
 40
1
 10
211.200000
 20
386.320000
 30
0.0
 10
218.160000
 20
384.960000
 30
0.0
 10
229.600000
 20
381.040000
 30
0.0
 10
234.960000
 20
378.080000
 30
0.0
  0
SPLINE
  5
17a
100
AcDbEntity
  8
0
 62
7
100
AcDbSpline
 70
8
 71
3
 72
8
 73
4
 74
0
 40
0
 40
0
 40
0
 40
0
 40
1
 40
1
 40
1
 40
1
 10
234.960000
 20
378.080000
 30
0.0
 10
236.560000
 20
377.200000
 30
0.0
 10
238.640000
 20
376.160000
 30
0.0
 10
239.440000
 20
375.840000
 30
0.0
  0
SPLINE
  5
17b
100
AcDbEntity
  8
0
 62
7
100
AcDbSpline
 70
8
 71
3
 72
8
 73
4
 74
0
 40
0
 40
0
 40
0
 40
0
 40
1
 40
1
 40
1
 40
1
 10
239.440000
 20
375.840000
 30
0.0
 10
240.240000
 20
375.440000
 30
0.0
 10
240.960000
 20
374.800000
 30
0.0
 10
240.960000
 20
374.400000
 30
0.0
  0
SPLINE
  5
17c
100
AcDbEntity
  8
0
 62
7
100
AcDbSpline
 70
8
 71
3
 72
8
 73
4
 74
0
 40
0
 40
0
 40
0
 40
0
 40
1
 40
1
 40
1
 40
1
 10
240.960000
 20
374.400000
 30
0.0
 10
240.960000
 20
373.600000
 30
0.0
 10
238.880000
 20
367.200000
 30
0.0
 10
237.280000
 20
363.040000
 30
0.0
  0
SPLINE
  5
17d
100
AcDbEntity
  8
0
 62
7
100
AcDbSpline
 70
8
 71
3
 72
8
 73
4
 74
0
 40
0
 40
0
 40
0
 40
0
 40
1
 40
1
 40
1
 40
1
 10
237.280000
 20
363.040000
 30
0.0
 10
236.400000
 20
360.720000
 30
0.0
 10
228.160000
 20
335.520000
 30
0.0
 10
226.880000
 20
331.200000
 30
0.0
  0
SPLINE
  5
17e
100
AcDbEntity
  8
0
 62
7
100
AcDbSpline
 70
8
 71
3
 72
8
 73
4
 74
0
 40
0
 40
0
 40
0
 40
0
 40
1
 40
1
 40
1
 40
1
 10
226.880000
 20
331.200000
 30
0.0
 10
226.560000
 20
329.920000
 30
0.0
 10
226.000000
 20
328.160000
 30
0.0
 10
225.680000
 20
327.360000
 30
0.0
  0
SPLINE
  5
17f
100
AcDbEntity
  8
0
 62
7
100
AcDbSpline
 70
8
 71
3
 72
8
 73
4
 74
0
 40
0
 40
0
 40
0
 40
0
 40
1
 40
1
 40
1
 40
1
 10
225.680000
 20
327.360000
 30
0.0
 10
225.360000
 20
326.480000
 30
0.0
 10
224.480000
 20
323.520000
 30
0.0
 10
223.680000
 20
320.720000
 30
0.0
  0
SPLINE
  5
180
100
AcDbEntity
  8
0
 62
7
100
AcDbSpline
 70
8
 71
3
 72
8
 73
4
 74
0
 40
0
 40
0
 40
0
 40
0
 40
1
 40
1
 40
1
 40
1
 10
223.680000
 20
320.720000
 30
0.0
 10
222.960000
 20
317.920000
 30
0.0
 10
222.080000
 20
314.960000
 30
0.0
 10
221.680000
 20
314.080000
 30
0.0
  0
SPLINE
  5
181
100
AcDbEntity
  8
0
 62
7
100
AcDbSpline
 70
8
 71
3
 72
8
 73
4
 74
0
 40
0
 40
0
 40
0
 40
0
 40
1
 40
1
 40
1
 40
1
 10
221.680000
 20
314.080000
 30
0.0
 10
221.360000
 20
313.280000
 30
0.0
 10
220.720000
 20
311.040000
 30
0.0
 10
220.160000
 20
309.120000
 30
0.0
  0
SPLINE
  5
182
100
AcDbEntity
  8
0
 62
7
100
AcDbSpline
 70
8
 71
3
 72
8
 73
4
 74
0
 40
0
 40
0
 40
0
 40
0
 40
1
 40
1
 40
1
 40
1
 10
220.160000
 20
309.120000
 30
0.0
 10
219.280000
 20
305.920000
 30
0.0
 10
217.760000
 20
303.840000
 30
0.0
 10
217.760000
 20
305.920000
 30
0.0
  0
LINE
  5
183
100
AcDbEntity
  8
0
 62
7
100
AcDbLine
 10
217.760000
 20
305.920000
 30
0.0
 11
217.760000
 21
305.920000
 31
0.0
  0
SPLINE
  5
184
100
AcDbEntity
  8
0
 62
7
100
AcDbSpline
 70
8
 71
3
 72
8
 73
4
 74
0
 40
0
 40
0
 40
0
 40
0
 40
1
 40
1
 40
1
 40
1
 10
440.880000
 20
329.120000
 30
0.0
 10
432.800000
 20
338.640000
 30
0.0
 10
433.040000
 20
337.840000
 30
0.0
 10
434.800000
 20
349.920000
 30
0.0
  0
SPLINE
  5
185
100
AcDbEntity
  8
0
 62
7
100
AcDbSpline
 70
8
 71
3
 72
8
 73
4
 74
0
 40
0
 40
0
 40
0
 40
0
 40
1
 40
1
 40
1
 40
1
 10
434.800000
 20
349.920000
 30
0.0
 10
436.800000
 20
363.600000
 30
0.0
 10
441.600000
 20
384.960000
 30
0.0
 10
444.400000
 20
392.560000
 30
0.0
  0
SPLINE
  5
186
100
AcDbEntity
  8
0
 62
7
100
AcDbSpline
 70
8
 71
3
 72
8
 73
4
 74
0
 40
0
 40
0
 40
0
 40
0
 40
1
 40
1
 40
1
 40
1
 10
444.400000
 20
392.560000
 30
0.0
 10
444.720000
 20
393.440000
 30
0.0
 10
445.280000
 20
395.360000
 30
0.0
 10
445.760000
 20
396.880000
 30
0.0
  0
SPLINE
  5
187
100
AcDbEntity
  8
0
 62
7
100
AcDbSpline
 70
8
 71
3
 72
8
 73
4
 74
0
 40
0
 40
0
 40
0
 40
0
 40
1
 40
1
 40
1
 40
1
 10
445.760000
 20
396.880000
 30
0.0
 10
446.640000
 20
399.840000
 30
0.0
 10
450.960000
 20
410.880000
 30
0.0
 10
453.200000
 20
415.920000
 30
0.0
  0
SPLINE
  5
188
100
AcDbEntity
  8
0
 62
7
100
AcDbSpline
 70
8
 71
3
 72
8
 73
4
 74
0
 40
0
 40
0
 40
0
 40
0
 40
1
 40
1
 40
1
 40
1
 10
453.200000
 20
415.920000
 30
0.0
 10
453.920000
 20
417.600000
 30
0.0
 10
455.200000
 20
420.560000
 30
0.0
 10
456.000000
 20
422.480000
 30
0.0
  0
SPLINE
  5
189
100
AcDbEntity
  8
0
 62
7
100
AcDbSpline
 70
8
 71
3
 72
8
 73
4
 74
0
 40
0
 40
0
 40
0
 40
0
 40
1
 40
1
 40
1
 40
1
 10
456.000000
 20
422.480000
 30
0.0
 10
456.960000
 20
424.640000
 30
0.0
 10
460.000000
 20
428.640000
 30
0.0
 10
464.000000
 20
432.960000
 30
0.0
  0
SPLINE
  5
18a
100
AcDbEntity
  8
0
 62
7
100
AcDbSpline
 70
8
 71
3
 72
8
 73
4
 74
0
 40
0
 40
0
 40
0
 40
0
 40
1
 40
1
 40
1
 40
1
 10
464.000000
 20
432.960000
 30
0.0
 10
469.440000
 20
438.800000
 30
0.0
 10
472.560000
 20
442.720000
 30
0.0
 10
477.760000
 20
450.480000
 30
0.0
  0
SPLINE
  5
18b
100
AcDbEntity
  8
0
 62
7
100
AcDbSpline
 70
8
 71
3
 72
8
 73
4
 74
0
 40
0
 40
0
 40
0
 40
0
 40
1
 40
1
 40
1
 40
1
 10
477.760000
 20
450.480000
 30
0.0
 10
482.160000
 20
456.800000
 30
0.0
 10
488.080000
 20
469.280000
 30
0.0
 10
493.040000
 20
482.480000
 30
0.0
  0
SPLINE
  5
18c
100
AcDbEntity
  8
0
 62
7
100
AcDbSpline
 70
8
 71
3
 72
8
 73
4
 74
0
 40
0
 40
0
 40
0
 40
0
 40
1
 40
1
 40
1
 40
1
 10
493.040000
 20
482.480000
 30
0.0
 10
495.120000
 20
487.840000
 30
0.0
 10
495.200000
 20
485.760000
 30
0.0
 10
493.440000
 20
476.080000
 30
0.0
  0
SPLINE
  5
18d
100
AcDbEntity
  8
0
 62
7
100
AcDbSpline
 70
8
 71
3
 72
8
 73
4
 74
0
 40
0
 40
0
 40
0
 40
0
 40
1
 40
1
 40
1
 40
1
 10
493.440000
 20
476.080000
 30
0.0
 10
489.040000
 20
452.160000
 30
0.0
 10
486.640000
 20
440.240000
 30
0.0
 10
483.440000
 20
427.360000
 30
0.0
  0
SPLINE
  5
18e
100
AcDbEntity
  8
0
 62
7
100
AcDbSpline
 70
8
 71
3
 72
8
 73
4
 74
0
 40
0
 40
0
 40
0
 40
0
 40
1
 40
1
 40
1
 40
1
 10
483.440000
 20
427.360000
 30
0.0
 10
483.120000
 20
426.000000
 30
0.0
 10
482.560000
 20
423.680000
 30
0.0
 10
482.240000
 20
422.320000
 30
0.0
  0
SPLINE
  5
18f
100
AcDbEntity
  8
0
 62
7
100
AcDbSpline
 70
8
 71
3
 72
8
 73
4
 74
0
 40
0
 40
0
 40
0
 40
0
 40
1
 40
1
 40
1
 40
1
 10
482.240000
 20
422.320000
 30
0.0
 10
476.640000
 20
399.040000
 30
0.0
 10
465.360000
 20
363.520000
 30
0.0
 10
456.240000
 20
340.160000
 30
0.0
  0
SPLINE
  5
190
100
AcDbEntity
  8
0
 62
7
100
AcDbSpline
 70
8
 71
3
 72
8
 73
4
 74
0
 40
0
 40
0
 40
0
 40
0
 40
1
 40
1
 40
1
 40
1
 10
456.240000
 20
340.160000
 30
0.0
 10
453.840000
 20
334.080000
 30
0.0
 10
448.240000
 20
320.720000
 30
0.0
 10
448.160000
 20
320.720000
 30
0.0
  0
SPLINE
  5
191
100
AcDbEntity
  8
0
 62
7
100
AcDbSpline
 70
8
 71
3
 72
8
 73
4
 74
0
 40
0
 40
0
 40
0
 40
0
 40
1
 40
1
 40
1
 40
1
 10
448.160000
 20
320.720000
 30
0.0
 10
448.080000
 20
320.720000
 30
0.0
 10
444.800000
 20
324.480000
 30
0.0
 10
440.880000
 20
329.120000
 30
0.0
  0
LINE
  5
192
100
AcDbEntity
  8
0
 62
7
100
AcDbLine
 10
440.880000
 20
329.120000
 30
0.0
 11
440.880000
 21
329.120000
 31
0.0
  0
SPLINE
  5
193
100
AcDbEntity
  8
0
 62
7
100
AcDbSpline
 70
8
 71
3
 72
8
 73
4
 74
0
 40
0
 40
0
 40
0
 40
0
 40
1
 40
1
 40
1
 40
1
 10
129.760000
 20
351.200000
 30
0.0
 10
129.040000
 20
353.040000
 30
0.0
 10
126.320000
 20
360.960000
 30
0.0
 10
123.680000
 20
368.880000
 30
0.0
  0
SPLINE
  5
194
100
AcDbEntity
  8
0
 62
7
100
AcDbSpline
 70
8
 71
3
 72
8
 73
4
 74
0
 40
0
 40
0
 40
0
 40
0
 40
1
 40
1
 40
1
 40
1
 10
123.680000
 20
368.880000
 30
0.0
 10
121.040000
 20
376.800000
 30
0.0
 10
118.640000
 20
384.000000
 30
0.0
 10
118.320000
 20
384.800000
 30
0.0
  0
SPLINE
  5
195
100
AcDbEntity
  8
0
 62
7
100
AcDbSpline
 70
8
 71
3
 72
8
 73
4
 74
0
 40
0
 40
0
 40
0
 40
0
 40
1
 40
1
 40
1
 40
1
 10
118.320000
 20
384.800000
 30
0.0
 10
116.160000
 20
390.960000
 30
0.0
 10
108.960000
 20
417.600000
 30
0.0
 10
105.760000
 20
431.840000
 30
0.0
  0
SPLINE
  5
196
100
AcDbEntity
  8
0
 62
7
100
AcDbSpline
 70
8
 71
3
 72
8
 73
4
 74
0
 40
0
 40
0
 40
0
 40
0
 40
1
 40
1
 40
1
 40
1
 10
105.760000
 20
431.840000
 30
0.0
 10
102.800000
 20
444.560000
 30
0.0
 10
102.080000
 20
448.000000
 30
0.0
 10
100.480000
 20
455.920000
 30
0.0
  0
SPLINE
  5
197
100
AcDbEntity
  8
0
 62
7
100
AcDbSpline
 70
8
 71
3
 72
8
 73
4
 74
0
 40
0
 40
0
 40
0
 40
0
 40
1
 40
1
 40
1
 40
1
 10
100.480000
 20
455.920000
 30
0.0
 10
99.760000
 20
460.000000
 30
0.0
 10
98.800000
 20
464.720000
 30
0.0
 10
98.480000
 20
466.400000
 30
0.0
  0
SPLINE
  5
198
100
AcDbEntity
  8
0
 62
7
100
AcDbSpline
 70
8
 71
3
 72
8
 73
4
 74
0
 40
0
 40
0
 40
0
 40
0
 40
1
 40
1
 40
1
 40
1
 10
98.480000
 20
466.400000
 30
0.0
 10
96.800000
 20
474.960000
 30
0.0
 10
95.840000
 20
480.880000
 30
0.0
 10
95.840000
 20
482.480000
 30
0.0
  0
SPLINE
  5
199
100
AcDbEntity
  8
0
 62
7
100
AcDbSpline
 70
8
 71
3
 72
8
 73
4
 74
0
 40
0
 40
0
 40
0
 40
0
 40
1
 40
1
 40
1
 40
1
 10
95.840000
 20
482.480000
 30
0.0
 10
95.920000
 20
483.600000
 30
0.0
 10
96.080000
 20
483.840000
 30
0.0
 10
96.240000
 20
483.120000
 30
0.0
  0
SPLINE
  5
19a
100
AcDbEntity
  8
0
 62
7
100
AcDbSpline
 70
8
 71
3
 72
8
 73
4
 74
0
 40
0
 40
0
 40
0
 40
0
 40
1
 40
1
 40
1
 40
1
 10
96.240000
 20
483.120000
 30
0.0
 10
103.120000
 20
461.040000
 30
0.0
 10
109.440000
 20
446.480000
 30
0.0
 10
116.960000
 20
435.440000
 30
0.0
  0
SPLINE
  5
19b
100
AcDbEntity
  8
0
 62
7
100
AcDbSpline
 70
8
 71
3
 72
8
 73
4
 74
0
 40
0
 40
0
 40
0
 40
0
 40
1
 40
1
 40
1
 40
1
 10
116.960000
 20
435.440000
 30
0.0
 10
122.640000
 20
427.120000
 30
0.0
 10
132.960000
 20
416.160000
 30
0.0
 10
140.080000
 20
410.880000
 30
0.0
  0
SPLINE
  5
19c
100
AcDbEntity
  8
0
 62
7
100
AcDbSpline
 70
8
 71
3
 72
8
 73
4
 74
0
 40
0
 40
0
 40
0
 40
0
 40
1
 40
1
 40
1
 40
1
 10
140.080000
 20
410.880000
 30
0.0
 10
152.240000
 20
401.920000
 30
0.0
 10
172.080000
 20
394.560000
 30
0.0
 10
184.240000
 20
394.480000
 30
0.0
  0
SPLINE
  5
19d
100
AcDbEntity
  8
0
 62
7
100
AcDbSpline
 70
8
 71
3
 72
8
 73
4
 74
0
 40
0
 40
0
 40
0
 40
0
 40
1
 40
1
 40
1
 40
1
 10
184.240000
 20
394.480000
 30
0.0
 10
190.160000
 20
394.480000
 30
0.0
 10
189.920000
 20
393.680000
 30
0.0
 10
181.520000
 20
386.880000
 30
0.0
  0
SPLINE
  5
19e
100
AcDbEntity
  8
0
 62
7
100
AcDbSpline
 70
8
 71
3
 72
8
 73
4
 74
0
 40
0
 40
0
 40
0
 40
0
 40
1
 40
1
 40
1
 40
1
 10
181.520000
 20
386.880000
 30
0.0
 10
177.200000
 20
383.440000
 30
0.0
 10
173.360000
 20
380.320000
 30
0.0
 10
173.040000
 20
379.920000
 30
0.0
  0
SPLINE
  5
19f
100
AcDbEntity
  8
0
 62
7
100
AcDbSpline
 70
8
 71
3
 72
8
 73
4
 74
0
 40
0
 40
0
 40
0
 40
0
 40
1
 40
1
 40
1
 40
1
 10
173.040000
 20
379.920000
 30
0.0
 10
172.640000
 20
379.600000
 30
0.0
 10
167.920000
 20
375.840000
 30
0.0
 10
162.400000
 20
371.600000
 30
0.0
  0
SPLINE
  5
1a0
100
AcDbEntity
  8
0
 62
7
100
AcDbSpline
 70
8
 71
3
 72
8
 73
4
 74
0
 40
0
 40
0
 40
0
 40
0
 40
1
 40
1
 40
1
 40
1
 10
162.400000
 20
371.600000
 30
0.0
 10
156.960000
 20
367.360000
 30
0.0
 10
152.320000
 20
363.600000
 30
0.0
 10
152.160000
 20
363.360000
 30
0.0
  0
SPLINE
  5
1a1
100
AcDbEntity
  8
0
 62
7
100
AcDbSpline
 70
8
 71
3
 72
8
 73
4
 74
0
 40
0
 40
0
 40
0
 40
0
 40
1
 40
1
 40
1
 40
1
 10
152.160000
 20
363.360000
 30
0.0
 10
151.680000
 20
362.800000
 30
0.0
 10
142.080000
 20
355.360000
 30
0.0
 10
141.200000
 20
354.960000
 30
0.0
  0
SPLINE
  5
1a2
100
AcDbEntity
  8
0
 62
7
100
AcDbSpline
 70
8
 71
3
 72
8
 73
4
 74
0
 40
0
 40
0
 40
0
 40
0
 40
1
 40
1
 40
1
 40
1
 10
141.200000
 20
354.960000
 30
0.0
 10
140.880000
 20
354.800000
 30
0.0
 10
140.400000
 20
354.400000
 30
0.0
 10
140.240000
 20
354.160000
 30
0.0
  0
SPLINE
  5
1a3
100
AcDbEntity
  8
0
 62
7
100
AcDbSpline
 70
8
 71
3
 72
8
 73
4
 74
0
 40
0
 40
0
 40
0
 40
0
 40
1
 40
1
 40
1
 40
1
 10
140.240000
 20
354.160000
 30
0.0
 10
139.680000
 20
353.280000
 30
0.0
 10
132.320000
 20
347.920000
 30
0.0
 10
131.600000
 20
347.920000
 30
0.0
  0
SPLINE
  5
1a4
100
AcDbEntity
  8
0
 62
7
100
AcDbSpline
 70
8
 71
3
 72
8
 73
4
 74
0
 40
0
 40
0
 40
0
 40
0
 40
1
 40
1
 40
1
 40
1
 10
131.600000
 20
347.920000
 30
0.0
 10
131.280000
 20
347.920000
 30
0.0
 10
130.400000
 20
349.360000
 30
0.0
 10
129.760000
 20
351.200000
 30
0.0
  0
LINE
  5
1a5
100
AcDbEntity
  8
0
 62
7
100
AcDbLine
 10
129.760000
 20
351.200000
 30
0.0
 11
129.760000
 21
351.200000
 31
0.0
  0
SPLINE
  5
1a6
100
AcDbEntity
  8
0
 62
7
100
AcDbSpline
 70
8
 71
3
 72
8
 73
4
 74
0
 40
0
 40
0
 40
0
 40
0
 40
1
 40
1
 40
1
 40
1
 10
405.600000
 20
370.240000
 30
0.0
 10
400.880000
 20
375.680000
 30
0.0
 10
393.600000
 20
383.840000
 30
0.0
 10
389.360000
 20
388.240000
 30
0.0
  0
SPLINE
  5
1a7
100
AcDbEntity
  8
0
 62
7
100
AcDbSpline
 70
8
 71
3
 72
8
 73
4
 74
0
 40
0
 40
0
 40
0
 40
0
 40
1
 40
1
 40
1
 40
1
 10
389.360000
 20
388.240000
 30
0.0
 10
385.200000
 20
392.720000
 30
0.0
 10
381.280000
 20
397.040000
 30
0.0
 10
380.640000
 20
397.920000
 30
0.0
  0
SPLINE
  5
1a8
100
AcDbEntity
  8
0
 62
7
100
AcDbSpline
 70
8
 71
3
 72
8
 73
4
 74
0
 40
0
 40
0
 40
0
 40
0
 40
1
 40
1
 40
1
 40
1
 10
380.640000
 20
397.920000
 30
0.0
 10
379.520000
 20
399.360000
 30
0.0
 10
379.520000
 20
399.440000
 30
0.0
 10
381.040000
 20
400.320000
 30
0.0
  0
SPLINE
  5
1a9
100
AcDbEntity
  8
0
 62
7
100
AcDbSpline
 70
8
 71
3
 72
8
 73
4
 74
0
 40
0
 40
0
 40
0
 40
0
 40
1
 40
1
 40
1
 40
1
 10
381.040000
 20
400.320000
 30
0.0
 10
381.920000
 20
400.880000
 30
0.0
 10
387.040000
 20
401.440000
 30
0.0
 10
393.760000
 20
401.760000
 30
0.0
  0
SPLINE
  5
1aa
100
AcDbEntity
  8
0
 62
7
100
AcDbSpline
 70
8
 71
3
 72
8
 73
4
 74
0
 40
0
 40
0
 40
0
 40
0
 40
1
 40
1
 40
1
 40
1
 10
393.760000
 20
401.760000
 30
0.0
 10
401.200000
 20
402.000000
 30
0.0
 10
407.360000
 20
402.720000
 30
0.0
 10
411.920000
 20
403.840000
 30
0.0
  0
SPLINE
  5
1ab
100
AcDbEntity
  8
0
 62
7
100
AcDbSpline
 70
8
 71
3
 72
8
 73
4
 74
0
 40
0
 40
0
 40
0
 40
0
 40
1
 40
1
 40
1
 40
1
 10
411.920000
 20
403.840000
 30
0.0
 10
419.520000
 20
405.600000
 30
0.0
 10
429.440000
 20
408.880000
 30
0.0
 10
431.360000
 20
410.160000
 30
0.0
  0
SPLINE
  5
1ac
100
AcDbEntity
  8
0
 62
7
100
AcDbSpline
 70
8
 71
3
 72
8
 73
4
 74
0
 40
0
 40
0
 40
0
 40
0
 40
1
 40
1
 40
1
 40
1
 10
431.360000
 20
410.160000
 30
0.0
 10
432.080000
 20
410.560000
 30
0.0
 10
432.800000
 20
410.800000
 30
0.0
 10
432.960000
 20
410.560000
 30
0.0
  0
SPLINE
  5
1ad
100
AcDbEntity
  8
0
 62
7
100
AcDbSpline
 70
8
 71
3
 72
8
 73
4
 74
0
 40
0
 40
0
 40
0
 40
0
 40
1
 40
1
 40
1
 40
1
 10
432.960000
 20
410.560000
 30
0.0
 10
433.120000
 20
410.320000
 30
0.0
 10
432.080000
 20
407.200000
 30
0.0
 10
430.640000
 20
403.680000
 30
0.0
  0
SPLINE
  5
1ae
100
AcDbEntity
  8
0
 62
7
100
AcDbSpline
 70
8
 71
3
 72
8
 73
4
 74
0
 40
0
 40
0
 40
0
 40
0
 40
1
 40
1
 40
1
 40
1
 10
430.640000
 20
403.680000
 30
0.0
 10
429.120000
 20
400.080000
 30
0.0
 10
427.360000
 20
395.600000
 30
0.0
 10
426.640000
 20
393.680000
 30
0.0
  0
SPLINE
  5
1af
100
AcDbEntity
  8
0
 62
7
100
AcDbSpline
 70
8
 71
3
 72
8
 73
4
 74
0
 40
0
 40
0
 40
0
 40
0
 40
1
 40
1
 40
1
 40
1
 10
426.640000
 20
393.680000
 30
0.0
 10
425.920000
 20
391.840000
 30
0.0
 10
424.720000
 20
388.480000
 30
0.0
 10
423.920000
 20
386.400000
 30
0.0
  0
SPLINE
  5
1b0
100
AcDbEntity
  8
0
 62
7
100
AcDbSpline
 70
8
 71
3
 72
8
 73
4
 74
0
 40
0
 40
0
 40
0
 40
0
 40
1
 40
1
 40
1
 40
1
 10
423.920000
 20
386.400000
 30
0.0
 10
422.320000
 20
382.320000
 30
0.0
 10
421.360000
 20
379.600000
 30
0.0
 10
420.560000
 20
377.040000
 30
0.0
  0
SPLINE
  5
1b1
100
AcDbEntity
  8
0
 62
7
100
AcDbSpline
 70
8
 71
3
 72
8
 73
4
 74
0
 40
0
 40
0
 40
0
 40
0
 40
1
 40
1
 40
1
 40
1
 10
420.560000
 20
377.040000
 30
0.0
 10
418.560000
 20
370.960000
 30
0.0
 10
417.200000
 20
366.480000
 30
0.0
 10
416.400000
 20
363.680000
 30
0.0
  0
SPLINE
  5
1b2
100
AcDbEntity
  8
0
 62
7
100
AcDbSpline
 70
8
 71
3
 72
8
 73
4
 74
0
 40
0
 40
0
 40
0
 40
0
 40
1
 40
1
 40
1
 40
1
 10
416.400000
 20
363.680000
 30
0.0
 10
416.000000
 20
361.840000
 30
0.0
 10
415.280000
 20
360.320000
 30
0.0
 10
414.960000
 20
360.400000
 30
0.0
  0
SPLINE
  5
1b3
100
AcDbEntity
  8
0
 62
7
100
AcDbSpline
 70
8
 71
3
 72
8
 73
4
 74
0
 40
0
 40
0
 40
0
 40
0
 40
1
 40
1
 40
1
 40
1
 10
414.960000
 20
360.400000
 30
0.0
 10
414.560000
 20
360.400000
 30
0.0
 10
410.400000
 20
364.800000
 30
0.0
 10
405.600000
 20
370.240000
 30
0.0
  0
LINE
  5
1b4
100
AcDbEntity
  8
0
 62
7
100
AcDbLine
 10
405.600000
 20
370.240000
 30
0.0
 11
405.600000
 21
370.240000
 31
0.0
  0
SPLINE
  5
1b5
100
AcDbEntity
  8
0
 62
7
100
AcDbSpline
 70
8
 71
3
 72
8
 73
4
 74
0
 40
0
 40
0
 40
0
 40
0
 40
1
 40
1
 40
1
 40
1
 10
260.320000
 20
374.160000
 30
0.0
 10
258.400000
 20
375.760000
 30
0.0
 10
256.880000
 20
377.600000
 30
0.0
 10
256.880000
 20
378.240000
 30
0.0
  0
SPLINE
  5
1b6
100
AcDbEntity
  8
0
 62
7
100
AcDbSpline
 70
8
 71
3
 72
8
 73
4
 74
0
 40
0
 40
0
 40
0
 40
0
 40
1
 40
1
 40
1
 40
1
 10
256.880000
 20
378.240000
 30
0.0
 10
256.880000
 20
378.880000
 30
0.0
 10
259.120000
 20
386.080000
 30
0.0
 10
261.920000
 20
394.240000
 30
0.0
  0
LINE
  5
1b7
100
AcDbEntity
  8
0
 62
7
100
AcDbLine
 10
261.920000
 20
394.240000
 30
0.0
 11
267.040000
 21
409.120000
 31
0.0
  0
LINE
  5
1b8
100
AcDbEntity
  8
0
 62
7
100
AcDbLine
 10
267.040000
 20
409.120000
 30
0.0
 11
272.400000
 21
411.120000
 31
0.0
  0
SPLINE
  5
1b9
100
AcDbEntity
  8
0
 62
7
100
AcDbSpline
 70
8
 71
3
 72
8
 73
4
 74
0
 40
0
 40
0
 40
0
 40
0
 40
1
 40
1
 40
1
 40
1
 10
272.400000
 20
411.120000
 30
0.0
 10
276.640000
 20
412.720000
 30
0.0
 10
280.080000
 20
413.280000
 30
0.0
 10
289.360000
 20
413.920000
 30
0.0
  0
SPLINE
  5
1ba
100
AcDbEntity
  8
0
 62
7
100
AcDbSpline
 70
8
 71
3
 72
8
 73
4
 74
0
 40
0
 40
0
 40
0
 40
0
 40
1
 40
1
 40
1
 40
1
 10
289.360000
 20
413.920000
 30
0.0
 10
295.680000
 20
414.400000
 30
0.0
 10
302.480000
 20
414.960000
 30
0.0
 10
304.400000
 20
415.120000
 30
0.0
  0
SPLINE
  5
1bb
100
AcDbEntity
  8
0
 62
7
100
AcDbSpline
 70
8
 71
3
 72
8
 73
4
 74
0
 40
0
 40
0
 40
0
 40
0
 40
1
 40
1
 40
1
 40
1
 10
304.400000
 20
415.120000
 30
0.0
 10
307.440000
 20
415.440000
 30
0.0
 10
307.840000
 20
415.360000
 30
0.0
 10
308.240000
 20
413.840000
 30
0.0
  0
SPLINE
  5
1bc
100
AcDbEntity
  8
0
 62
7
100
AcDbSpline
 70
8
 71
3
 72
8
 73
4
 74
0
 40
0
 40
0
 40
0
 40
0
 40
1
 40
1
 40
1
 40
1
 10
308.240000
 20
413.840000
 30
0.0
 10
309.040000
 20
410.960000
 30
0.0
 10
313.840000
 20
387.920000
 30
0.0
 10
313.840000
 20
387.040000
 30
0.0
  0
SPLINE
  5
1bd
100
AcDbEntity
  8
0
 62
7
100
AcDbSpline
 70
8
 71
3
 72
8
 73
4
 74
0
 40
0
 40
0
 40
0
 40
0
 40
1
 40
1
 40
1
 40
1
 10
313.840000
 20
387.040000
 30
0.0
 10
313.840000
 20
386.640000
 30
0.0
 10
311.280000
 20
385.760000
 30
0.0
 10
308.080000
 20
385.280000
 30
0.0
  0
SPLINE
  5
1be
100
AcDbEntity
  8
0
 62
7
100
AcDbSpline
 70
8
 71
3
 72
8
 73
4
 74
0
 40
0
 40
0
 40
0
 40
0
 40
1
 40
1
 40
1
 40
1
 10
308.080000
 20
385.280000
 30
0.0
 10
290.000000
 20
382.160000
 30
0.0
 10
279.520000
 20
379.120000
 30
0.0
 10
270.960000
 20
374.240000
 30
0.0
  0
SPLINE
  5
1bf
100
AcDbEntity
  8
0
 62
7
100
AcDbSpline
 70
8
 71
3
 72
8
 73
4
 74
0
 40
0
 40
0
 40
0
 40
0
 40
1
 40
1
 40
1
 40
1
 10
270.960000
 20
374.240000
 30
0.0
 10
268.000000
 20
372.560000
 30
0.0
 10
265.120000
 20
371.280000
 30
0.0
 10
264.720000
 20
371.280000
 30
0.0
  0
SPLINE
  5
1c0
100
AcDbEntity
  8
0
 62
7
100
AcDbSpline
 70
8
 71
3
 72
8
 73
4
 74
0
 40
0
 40
0
 40
0
 40
0
 40
1
 40
1
 40
1
 40
1
 10
264.720000
 20
371.280000
 30
0.0
 10
264.240000
 20
371.280000
 30
0.0
 10
262.240000
 20
372.640000
 30
0.0
 10
260.320000
 20
374.160000
 30
0.0
  0
LINE
  5
1c1
100
AcDbEntity
  8
0
 62
7
100
AcDbLine
 10
260.320000
 20
374.160000
 30
0.0
 11
260.320000
 21
374.160000
 31
0.0
  0
SPLINE
  5
1c2
100
AcDbEntity
  8
0
 62
7
100
AcDbSpline
 70
8
 71
3
 72
8
 73
4
 74
0
 40
0
 40
0
 40
0
 40
0
 40
1
 40
1
 40
1
 40
1
 10
241.600000
 20
387.840000
 30
0.0
 10
238.560000
 20
390.080000
 30
0.0
 10
228.720000
 20
395.280000
 30
0.0
 10
227.360000
 20
395.280000
 30
0.0
  0
SPLINE
  5
1c3
100
AcDbEntity
  8
0
 62
7
100
AcDbSpline
 70
8
 71
3
 72
8
 73
4
 74
0
 40
0
 40
0
 40
0
 40
0
 40
1
 40
1
 40
1
 40
1
 10
227.360000
 20
395.280000
 30
0.0
 10
225.840000
 20
395.280000
 30
0.0
 10
226.160000
 20
396.800000
 30
0.0
 10
227.840000
 20
397.200000
 30
0.0
  0
SPLINE
  5
1c4
100
AcDbEntity
  8
0
 62
7
100
AcDbSpline
 70
8
 71
3
 72
8
 73
4
 74
0
 40
0
 40
0
 40
0
 40
0
 40
1
 40
1
 40
1
 40
1
 10
227.840000
 20
397.200000
 30
0.0
 10
228.640000
 20
397.360000
 30
0.0
 10
231.760000
 20
398.080000
 30
0.0
 10
234.640000
 20
398.800000
 30
0.0
  0
SPLINE
  5
1c5
100
AcDbEntity
  8
0
 62
7
100
AcDbSpline
 70
8
 71
3
 72
8
 73
4
 74
0
 40
0
 40
0
 40
0
 40
0
 40
1
 40
1
 40
1
 40
1
 10
234.640000
 20
398.800000
 30
0.0
 10
237.600000
 20
399.520000
 30
0.0
 10
242.400000
 20
400.800000
 30
0.0
 10
245.440000
 20
401.600000
 30
0.0
  0
SPLINE
  5
1c6
100
AcDbEntity
  8
0
 62
7
100
AcDbSpline
 70
8
 71
3
 72
8
 73
4
 74
0
 40
0
 40
0
 40
0
 40
0
 40
1
 40
1
 40
1
 40
1
 10
245.440000
 20
401.600000
 30
0.0
 10
248.480000
 20
402.480000
 30
0.0
 10
251.120000
 20
403.040000
 30
0.0
 10
251.360000
 20
402.800000
 30
0.0
  0
SPLINE
  5
1c7
100
AcDbEntity
  8
0
 62
7
100
AcDbSpline
 70
8
 71
3
 72
8
 73
4
 74
0
 40
0
 40
0
 40
0
 40
0
 40
1
 40
1
 40
1
 40
1
 10
251.360000
 20
402.800000
 30
0.0
 10
251.520000
 20
402.560000
 30
0.0
 10
250.960000
 20
400.560000
 30
0.0
 10
250.000000
 20
398.240000
 30
0.0
  0
SPLINE
  5
1c8
100
AcDbEntity
  8
0
 62
7
100
AcDbSpline
 70
8
 71
3
 72
8
 73
4
 74
0
 40
0
 40
0
 40
0
 40
0
 40
1
 40
1
 40
1
 40
1
 10
250.000000
 20
398.240000
 30
0.0
 10
249.120000
 20
396.000000
 30
0.0
 10
247.680000
 20
392.320000
 30
0.0
 10
246.880000
 20
390.080000
 30
0.0
  0
SPLINE
  5
1c9
100
AcDbEntity
  8
0
 62
7
100
AcDbSpline
 70
8
 71
3
 72
8
 73
4
 74
0
 40
0
 40
0
 40
0
 40
0
 40
1
 40
1
 40
1
 40
1
 10
246.880000
 20
390.080000
 30
0.0
 10
246.000000
 20
387.840000
 30
0.0
 10
245.040000
 20
386.000000
 30
0.0
 10
244.640000
 20
386.000000
 30
0.0
  0
SPLINE
  5
1ca
100
AcDbEntity
  8
0
 62
7
100
AcDbSpline
 70
8
 71
3
 72
8
 73
4
 74
0
 40
0
 40
0
 40
0
 40
0
 40
1
 40
1
 40
1
 40
1
 10
244.640000
 20
386.000000
 30
0.0
 10
244.240000
 20
386.080000
 30
0.0
 10
242.880000
 20
386.880000
 30
0.0
 10
241.600000
 20
387.840000
 30
0.0
  0
LINE
  5
1cb
100
AcDbEntity
  8
0
 62
7
100
AcDbLine
 10
241.600000
 20
387.840000
 30
0.0
 11
241.600000
 21
387.840000
 31
0.0
  0
SPLINE
  5
1cc
100
AcDbEntity
  8
0
 62
7
100
AcDbSpline
 70
8
 71
3
 72
8
 73
4
 74
0
 40
0
 40
0
 40
0
 40
0
 40
1
 40
1
 40
1
 40
1
 10
326.000000
 20
387.360000
 30
0.0
 10
325.600000
 20
387.680000
 30
0.0
 10
324.880000
 20
389.520000
 30
0.0
 10
324.480000
 20
391.440000
 30
0.0
  0
SPLINE
  5
1cd
100
AcDbEntity
  8
0
 62
7
100
AcDbSpline
 70
8
 71
3
 72
8
 73
4
 74
0
 40
0
 40
0
 40
0
 40
0
 40
1
 40
1
 40
1
 40
1
 10
324.480000
 20
391.440000
 30
0.0
 10
324.000000
 20
393.360000
 30
0.0
 10
322.480000
 20
399.040000
 30
0.0
 10
321.040000
 20
404.160000
 30
0.0
  0
SPLINE
  5
1ce
100
AcDbEntity
  8
0
 62
7
100
AcDbSpline
 70
8
 71
3
 72
8
 73
4
 74
0
 40
0
 40
0
 40
0
 40
0
 40
1
 40
1
 40
1
 40
1
 10
321.040000
 20
404.160000
 30
0.0
 10
319.600000
 20
409.200000
 30
0.0
 10
318.560000
 20
413.520000
 30
0.0
 10
318.720000
 20
413.680000
 30
0.0
  0
SPLINE
  5
1cf
100
AcDbEntity
  8
0
 62
7
100
AcDbSpline
 70
8
 71
3
 72
8
 73
4
 74
0
 40
0
 40
0
 40
0
 40
0
 40
1
 40
1
 40
1
 40
1
 10
318.720000
 20
413.680000
 30
0.0
 10
318.880000
 20
413.920000
 30
0.0
 10
321.680000
 20
413.120000
 30
0.0
 10
324.880000
 20
412.000000
 30
0.0
  0
SPLINE
  5
1d0
100
AcDbEntity
  8
0
 62
7
100
AcDbSpline
 70
8
 71
3
 72
8
 73
4
 74
0
 40
0
 40
0
 40
0
 40
0
 40
1
 40
1
 40
1
 40
1
 10
324.880000
 20
412.000000
 30
0.0
 10
328.080000
 20
410.880000
 30
0.0
 10
332.240000
 20
409.520000
 30
0.0
 10
334.080000
 20
408.880000
 30
0.0
  0
SPLINE
  5
1d1
100
AcDbEntity
  8
0
 62
7
100
AcDbSpline
 70
8
 71
3
 72
8
 73
4
 74
0
 40
0
 40
0
 40
0
 40
0
 40
1
 40
1
 40
1
 40
1
 10
334.080000
 20
408.880000
 30
0.0
 10
338.160000
 20
407.600000
 30
0.0
 10
354.000000
 20
403.840000
 30
0.0
 10
355.360000
 20
403.840000
 30
0.0
  0
SPLINE
  5
1d2
100
AcDbEntity
  8
0
 62
7
100
AcDbSpline
 70
8
 71
3
 72
8
 73
4
 74
0
 40
0
 40
0
 40
0
 40
0
 40
1
 40
1
 40
1
 40
1
 10
355.360000
 20
403.840000
 30
0.0
 10
356.880000
 20
403.840000
 30
0.0
 10
359.520000
 20
401.520000
 30
0.0
 10
359.200000
 20
400.400000
 30
0.0
  0
SPLINE
  5
1d3
100
AcDbEntity
  8
0
 62
7
100
AcDbSpline
 70
8
 71
3
 72
8
 73
4
 74
0
 40
0
 40
0
 40
0
 40
0
 40
1
 40
1
 40
1
 40
1
 10
359.200000
 20
400.400000
 30
0.0
 10
358.960000
 20
399.840000
 30
0.0
 10
358.000000
 20
398.960000
 30
0.0
 10
357.040000
 20
398.480000
 30
0.0
  0
SPLINE
  5
1d4
100
AcDbEntity
  8
0
 62
7
100
AcDbSpline
 70
8
 71
3
 72
8
 73
4
 74
0
 40
0
 40
0
 40
0
 40
0
 40
1
 40
1
 40
1
 40
1
 10
357.040000
 20
398.480000
 30
0.0
 10
354.960000
 20
397.360000
 30
0.0
 10
345.120000
 20
389.920000
 30
0.0
 10
343.760000
 20
388.480000
 30
0.0
  0
SPLINE
  5
1d5
100
AcDbEntity
  8
0
 62
7
100
AcDbSpline
 70
8
 71
3
 72
8
 73
4
 74
0
 40
0
 40
0
 40
0
 40
0
 40
1
 40
1
 40
1
 40
1
 10
343.760000
 20
388.480000
 30
0.0
 10
343.200000
 20
387.840000
 30
0.0
 10
340.640000
 20
387.520000
 30
0.0
 10
336.160000
 20
387.520000
 30
0.0
  0
SPLINE
  5
1d6
100
AcDbEntity
  8
0
 62
7
100
AcDbSpline
 70
8
 71
3
 72
8
 73
4
 74
0
 40
0
 40
0
 40
0
 40
0
 40
1
 40
1
 40
1
 40
1
 10
336.160000
 20
387.520000
 30
0.0
 10
332.480000
 20
387.520000
 30
0.0
 10
328.800000
 20
387.360000
 30
0.0
 10
328.080000
 20
387.120000
 30
0.0
  0
SPLINE
  5
1d7
100
AcDbEntity
  8
0
 62
7
100
AcDbSpline
 70
8
 71
3
 72
8
 73
4
 74
0
 40
0
 40
0
 40
0
 40
0
 40
1
 40
1
 40
1
 40
1
 10
328.080000
 20
387.120000
 30
0.0
 10
327.360000
 20
386.880000
 30
0.0
 10
326.400000
 20
387.040000
 30
0.0
 10
326.000000
 20
387.360000
 30
0.0
  0
LINE
  5
1d8
100
AcDbEntity
  8
0
 62
7
100
AcDbLine
 10
326.000000
 20
387.360000
 30
0.0
 11
326.000000
 21
387.360000
 31
0.0
  0
SPLINE
  5
1d9
100
AcDbEntity
  8
0
 62
7
100
AcDbSpline
 70
8
 71
3
 72
8
 73
4
 74
0
 40
0
 40
0
 40
0
 40
0
 40
1
 40
1
 40
1
 40
1
 10
400.320000
 20
415.200000
 30
0.0
 10
384.080000
 20
418.080000
 30
0.0
 10
365.280000
 20
429.920000
 30
0.0
 10
348.480000
 20
447.840000
 30
0.0
  0
LINE
  5
1da
100
AcDbEntity
  8
0
 62
7
100
AcDbLine
 10
348.480000
 20
447.840000
 30
0.0
 11
345.440000
 21
450.960000
 31
0.0
  0
LINE
  5
1db
100
AcDbEntity
  8
0
 62
7
100
AcDbLine
 10
345.440000
 20
450.960000
 30
0.0
 11
359.200000
 21
464.480000
 31
0.0
  0
SPLINE
  5
1dc
100
AcDbEntity
  8
0
 62
7
100
AcDbSpline
 70
8
 71
3
 72
8
 73
4
 74
0
 40
0
 40
0
 40
0
 40
0
 40
1
 40
1
 40
1
 40
1
 10
359.200000
 20
464.480000
 30
0.0
 10
366.800000
 20
471.920000
 30
0.0
 10
374.960000
 20
479.920000
 30
0.0
 10
377.360000
 20
482.240000
 30
0.0
  0
SPLINE
  5
1dd
100
AcDbEntity
  8
0
 62
7
100
AcDbSpline
 70
8
 71
3
 72
8
 73
4
 74
0
 40
0
 40
0
 40
0
 40
0
 40
1
 40
1
 40
1
 40
1
 10
377.360000
 20
482.240000
 30
0.0
 10
382.880000
 20
487.440000
 30
0.0
 10
384.400000
 20
488.880000
 30
0.0
 10
388.480000
 20
492.960000
 30
0.0
  0
SPLINE
  5
1de
100
AcDbEntity
  8
0
 62
7
100
AcDbSpline
 70
8
 71
3
 72
8
 73
4
 74
0
 40
0
 40
0
 40
0
 40
0
 40
1
 40
1
 40
1
 40
1
 10
388.480000
 20
492.960000
 30
0.0
 10
390.240000
 20
494.720000
 30
0.0
 10
395.920000
 20
500.240000
 30
0.0
 10
401.040000
 20
505.280000
 30
0.0
  0
SPLINE
  5
1df
100
AcDbEntity
  8
0
 62
7
100
AcDbSpline
 70
8
 71
3
 72
8
 73
4
 74
0
 40
0
 40
0
 40
0
 40
0
 40
1
 40
1
 40
1
 40
1
 10
401.040000
 20
505.280000
 30
0.0
 10
406.080000
 20
510.320000
 30
0.0
 10
411.600000
 20
515.760000
 30
0.0
 10
413.280000
 20
517.360000
 30
0.0
  0
SPLINE
  5
1e0
100
AcDbEntity
  8
0
 62
7
100
AcDbSpline
 70
8
 71
3
 72
8
 73
4
 74
0
 40
0
 40
0
 40
0
 40
0
 40
1
 40
1
 40
1
 40
1
 10
413.280000
 20
517.360000
 30
0.0
 10
420.800000
 20
524.880000
 30
0.0
 10
437.920000
 20
541.520000
 30
0.0
 10
443.040000
 20
546.320000
 30
0.0
  0
SPLINE
  5
1e1
100
AcDbEntity
  8
0
 62
7
100
AcDbSpline
 70
8
 71
3
 72
8
 73
4
 74
0
 40
0
 40
0
 40
0
 40
0
 40
1
 40
1
 40
1
 40
1
 10
443.040000
 20
546.320000
 30
0.0
 10
446.080000
 20
549.280000
 30
0.0
 10
448.960000
 20
552.080000
 30
0.0
 10
449.360000
 20
552.560000
 30
0.0
  0
SPLINE
  5
1e2
100
AcDbEntity
  8
0
 62
7
100
AcDbSpline
 70
8
 71
3
 72
8
 73
4
 74
0
 40
0
 40
0
 40
0
 40
0
 40
1
 40
1
 40
1
 40
1
 10
449.360000
 20
552.560000
 30
0.0
 10
449.840000
 20
553.040000
 30
0.0
 10
451.440000
 20
554.640000
 30
0.0
 10
453.040000
 20
556.160000
 30
0.0
  0
SPLINE
  5
1e3
100
AcDbEntity
  8
0
 62
7
100
AcDbSpline
 70
8
 71
3
 72
8
 73
4
 74
0
 40
0
 40
0
 40
0
 40
0
 40
1
 40
1
 40
1
 40
1
 10
453.040000
 20
556.160000
 30
0.0
 10
454.640000
 20
557.600000
 30
0.0
 10
456.240000
 20
559.200000
 30
0.0
 10
456.640000
 20
559.680000
 30
0.0
  0
SPLINE
  5
1e4
100
AcDbEntity
  8
0
 62
7
100
AcDbSpline
 70
8
 71
3
 72
8
 73
4
 74
0
 40
0
 40
0
 40
0
 40
0
 40
1
 40
1
 40
1
 40
1
 10
456.640000
 20
559.680000
 30
0.0
 10
457.040000
 20
560.080000
 30
0.0
 10
460.000000
 20
563.040000
 30
0.0
 10
463.280000
 20
566.240000
 30
0.0
  0
SPLINE
  5
1e5
100
AcDbEntity
  8
0
 62
7
100
AcDbSpline
 70
8
 71
3
 72
8
 73
4
 74
0
 40
0
 40
0
 40
0
 40
0
 40
1
 40
1
 40
1
 40
1
 10
463.280000
 20
566.240000
 30
0.0
 10
466.560000
 20
569.360000
 30
0.0
 10
469.440000
 20
572.160000
 30
0.0
 10
469.600000
 20
572.400000
 30
0.0
  0
SPLINE
  5
1e6
100
AcDbEntity
  8
0
 62
7
100
AcDbSpline
 70
8
 71
3
 72
8
 73
4
 74
0
 40
0
 40
0
 40
0
 40
0
 40
1
 40
1
 40
1
 40
1
 10
469.600000
 20
572.400000
 30
0.0
 10
469.760000
 20
572.640000
 30
0.0
 10
473.600000
 20
576.480000
 30
0.0
 10
478.080000
 20
580.800000
 30
0.0
  0
SPLINE
  5
1e7
100
AcDbEntity
  8
0
 62
7
100
AcDbSpline
 70
8
 71
3
 72
8
 73
4
 74
0
 40
0
 40
0
 40
0
 40
0
 40
1
 40
1
 40
1
 40
1
 10
478.080000
 20
580.800000
 30
0.0
 10
484.880000
 20
587.520000
 30
0.0
 10
487.520000
 20
589.680000
 30
0.0
 10
487.520000
 20
588.560000
 30
0.0
  0
SPLINE
  5
1e8
100
AcDbEntity
  8
0
 62
7
100
AcDbSpline
 70
8
 71
3
 72
8
 73
4
 74
0
 40
0
 40
0
 40
0
 40
0
 40
1
 40
1
 40
1
 40
1
 10
487.520000
 20
588.560000
 30
0.0
 10
487.440000
 20
588.400000
 30
0.0
 10
486.640000
 20
581.120000
 30
0.0
 10
484.800000
 20
565.040000
 30
0.0
  0
SPLINE
  5
1e9
100
AcDbEntity
  8
0
 62
7
100
AcDbSpline
 70
8
 71
3
 72
8
 73
4
 74
0
 40
0
 40
0
 40
0
 40
0
 40
1
 40
1
 40
1
 40
1
 10
484.800000
 20
565.040000
 30
0.0
 10
483.360000
 20
552.080000
 30
0.0
 10
480.320000
 20
534.560000
 30
0.0
 10
476.880000
 20
518.720000
 30
0.0
  0
SPLINE
  5
1ea
100
AcDbEntity
  8
0
 62
7
100
AcDbSpline
 70
8
 71
3
 72
8
 73
4
 74
0
 40
0
 40
0
 40
0
 40
0
 40
1
 40
1
 40
1
 40
1
 10
476.880000
 20
518.720000
 30
0.0
 10
471.920000
 20
495.920000
 30
0.0
 10
463.920000
 20
471.440000
 30
0.0
 10
456.560000
 20
456.720000
 30
0.0
  0
SPLINE
  5
1eb
100
AcDbEntity
  8
0
 62
7
100
AcDbSpline
 70
8
 71
3
 72
8
 73
4
 74
0
 40
0
 40
0
 40
0
 40
0
 40
1
 40
1
 40
1
 40
1
 10
456.560000
 20
456.720000
 30
0.0
 10
454.400000
 20
452.320000
 30
0.0
 10
448.480000
 20
441.920000
 30
0.0
 10
447.520000
 20
440.720000
 30
0.0
  0
SPLINE
  5
1ec
100
AcDbEntity
  8
0
 62
7
100
AcDbSpline
 70
8
 71
3
 72
8
 73
4
 74
0
 40
0
 40
0
 40
0
 40
0
 40
1
 40
1
 40
1
 40
1
 10
447.520000
 20
440.720000
 30
0.0
 10
447.040000
 20
440.240000
 30
0.0
 10
445.520000
 20
438.240000
 30
0.0
 10
444.080000
 20
436.160000
 30
0.0
  0
SPLINE
  5
1ed
100
AcDbEntity
  8
0
 62
7
100
AcDbSpline
 70
8
 71
3
 72
8
 73
4
 74
0
 40
0
 40
0
 40
0
 40
0
 40
1
 40
1
 40
1
 40
1
 10
444.080000
 20
436.160000
 30
0.0
 10
435.280000
 20
423.840000
 30
0.0
 10
421.600000
 20
415.760000
 30
0.0
 10
408.640000
 20
415.120000
 30
0.0
  0
SPLINE
  5
1ee
100
AcDbEntity
  8
0
 62
7
100
AcDbSpline
 70
8
 71
3
 72
8
 73
4
 74
0
 40
0
 40
0
 40
0
 40
0
 40
1
 40
1
 40
1
 40
1
 10
408.640000
 20
415.120000
 30
0.0
 10
405.120000
 20
414.960000
 30
0.0
 10
401.440000
 20
415.040000
 30
0.0
 10
400.320000
 20
415.200000
 30
0.0
  0
LINE
  5
1ef
100
AcDbEntity
  8
0
 62
7
100
AcDbLine
 10
400.320000
 20
415.200000
 30
0.0
 11
400.320000
 21
415.200000
 31
0.0
  0
SPLINE
  5
1f0
100
AcDbEntity
  8
0
 62
7
100
AcDbSpline
 70
8
 71
3
 72
8
 73
4
 74
0
 40
0
 40
0
 40
0
 40
0
 40
1
 40
1
 40
1
 40
1
 10
182.000000
 20
417.120000
 30
0.0
 10
172.160000
 20
420.080000
 30
0.0
 10
163.760000
 20
426.080000
 30
0.0
 10
155.200000
 20
436.000000
 30
0.0
  0
SPLINE
  5
1f1
100
AcDbEntity
  8
0
 62
7
100
AcDbSpline
 70
8
 71
3
 72
8
 73
4
 74
0
 40
0
 40
0
 40
0
 40
0
 40
1
 40
1
 40
1
 40
1
 10
155.200000
 20
436.000000
 30
0.0
 10
149.520000
 20
442.720000
 30
0.0
 10
149.120000
 20
443.200000
 30
0.0
 10
145.520000
 20
449.280000
 30
0.0
  0
SPLINE
  5
1f2
100
AcDbEntity
  8
0
 62
7
100
AcDbSpline
 70
8
 71
3
 72
8
 73
4
 74
0
 40
0
 40
0
 40
0
 40
0
 40
1
 40
1
 40
1
 40
1
 10
145.520000
 20
449.280000
 30
0.0
 10
144.240000
 20
451.440000
 30
0.0
 10
142.960000
 20
453.280000
 30
0.0
 10
142.720000
 20
453.440000
 30
0.0
  0
SPLINE
  5
1f3
100
AcDbEntity
  8
0
 62
7
100
AcDbSpline
 70
8
 71
3
 72
8
 73
4
 74
0
 40
0
 40
0
 40
0
 40
0
 40
1
 40
1
 40
1
 40
1
 10
142.720000
 20
453.440000
 30
0.0
 10
142.400000
 20
453.600000
 30
0.0
 10
142.240000
 20
454.080000
 30
0.0
 10
142.240000
 20
454.480000
 30
0.0
  0
SPLINE
  5
1f4
100
AcDbEntity
  8
0
 62
7
100
AcDbSpline
 70
8
 71
3
 72
8
 73
4
 74
0
 40
0
 40
0
 40
0
 40
0
 40
1
 40
1
 40
1
 40
1
 10
142.240000
 20
454.480000
 30
0.0
 10
142.240000
 20
454.880000
 30
0.0
 10
141.360000
 20
456.720000
 30
0.0
 10
140.320000
 20
458.480000
 30
0.0
  0
SPLINE
  5
1f5
100
AcDbEntity
  8
0
 62
7
100
AcDbSpline
 70
8
 71
3
 72
8
 73
4
 74
0
 40
0
 40
0
 40
0
 40
0
 40
1
 40
1
 40
1
 40
1
 10
140.320000
 20
458.480000
 30
0.0
 10
133.040000
 20
470.880000
 30
0.0
 10
122.080000
 20
500.800000
 30
0.0
 10
117.040000
 20
521.920000
 30
0.0
  0
SPLINE
  5
1f6
100
AcDbEntity
  8
0
 62
7
100
AcDbSpline
 70
8
 71
3
 72
8
 73
4
 74
0
 40
0
 40
0
 40
0
 40
0
 40
1
 40
1
 40
1
 40
1
 10
117.040000
 20
521.920000
 30
0.0
 10
116.560000
 20
523.840000
 30
0.0
 10
116.000000
 20
526.320000
 30
0.0
 10
115.680000
 20
527.360000
 30
0.0
  0
SPLINE
  5
1f7
100
AcDbEntity
  8
0
 62
7
100
AcDbSpline
 70
8
 71
3
 72
8
 73
4
 74
0
 40
0
 40
0
 40
0
 40
0
 40
1
 40
1
 40
1
 40
1
 10
115.680000
 20
527.360000
 30
0.0
 10
115.440000
 20
528.480000
 30
0.0
 10
114.880000
 20
530.560000
 30
0.0
 10
114.560000
 20
532.080000
 30
0.0
  0
SPLINE
  5
1f8
100
AcDbEntity
  8
0
 62
7
100
AcDbSpline
 70
8
 71
3
 72
8
 73
4
 74
0
 40
0
 40
0
 40
0
 40
0
 40
1
 40
1
 40
1
 40
1
 10
114.560000
 20
532.080000
 30
0.0
 10
114.160000
 20
533.520000
 30
0.0
 10
113.200000
 20
537.920000
 30
0.0
 10
112.400000
 20
541.760000
 30
0.0
  0
SPLINE
  5
1f9
100
AcDbEntity
  8
0
 62
7
100
AcDbSpline
 70
8
 71
3
 72
8
 73
4
 74
0
 40
0
 40
0
 40
0
 40
0
 40
1
 40
1
 40
1
 40
1
 10
112.400000
 20
541.760000
 30
0.0
 10
111.600000
 20
545.600000
 30
0.0
 10
110.720000
 20
550.000000
 30
0.0
 10
110.400000
 20
551.440000
 30
0.0
  0
SPLINE
  5
1fa
100
AcDbEntity
  8
0
 62
7
100
AcDbSpline
 70
8
 71
3
 72
8
 73
4
 74
0
 40
0
 40
0
 40
0
 40
0
 40
1
 40
1
 40
1
 40
1
 10
110.400000
 20
551.440000
 30
0.0
 10
109.840000
 20
554.000000
 30
0.0
 10
109.360000
 20
556.560000
 30
0.0
 10
107.680000
 20
567.040000
 30
0.0
  0
SPLINE
  5
1fb
100
AcDbEntity
  8
0
 62
7
100
AcDbSpline
 70
8
 71
3
 72
8
 73
4
 74
0
 40
0
 40
0
 40
0
 40
0
 40
1
 40
1
 40
1
 40
1
 10
107.680000
 20
567.040000
 30
0.0
 10
106.240000
 20
575.680000
 30
0.0
 10
105.840000
 20
578.320000
 30
0.0
 10
105.440000
 20
581.360000
 30
0.0
  0
SPLINE
  5
1fc
100
AcDbEntity
  8
0
 62
7
100
AcDbSpline
 70
8
 71
3
 72
8
 73
4
 74
0
 40
0
 40
0
 40
0
 40
0
 40
1
 40
1
 40
1
 40
1
 10
105.440000
 20
581.360000
 30
0.0
 10
105.200000
 20
583.120000
 30
0.0
 10
104.880000
 20
585.440000
 30
0.0
 10
104.720000
 20
586.640000
 30
0.0
  0
SPLINE
  5
1fd
100
AcDbEntity
  8
0
 62
7
100
AcDbSpline
 70
8
 71
3
 72
8
 73
4
 74
0
 40
0
 40
0
 40
0
 40
0
 40
1
 40
1
 40
1
 40
1
 10
104.720000
 20
586.640000
 30
0.0
 10
104.480000
 20
587.840000
 30
0.0
 10
104.640000
 20
588.800000
 30
0.0
 10
105.040000
 20
588.800000
 30
0.0
  0
SPLINE
  5
1fe
100
AcDbEntity
  8
0
 62
7
100
AcDbSpline
 70
8
 71
3
 72
8
 73
4
 74
0
 40
0
 40
0
 40
0
 40
0
 40
1
 40
1
 40
1
 40
1
 10
105.040000
 20
588.800000
 30
0.0
 10
105.600000
 20
588.800000
 30
0.0
 10
115.680000
 20
580.560000
 30
0.0
 10
119.040000
 20
577.280000
 30
0.0
  0
SPLINE
  5
1ff
100
AcDbEntity
  8
0
 62
7
100
AcDbSpline
 70
8
 71
3
 72
8
 73
4
 74
0
 40
0
 40
0
 40
0
 40
0
 40
1
 40
1
 40
1
 40
1
 10
119.040000
 20
577.280000
 30
0.0
 10
119.520000
 20
576.800000
 30
0.0
 10
123.040000
 20
573.840000
 30
0.0
 10
126.720000
 20
570.720000
 30
0.0
  0
SPLINE
  5
200
100
AcDbEntity
  8
0
 62
7
100
AcDbSpline
 70
8
 71
3
 72
8
 73
4
 74
0
 40
0
 40
0
 40
0
 40
0
 40
1
 40
1
 40
1
 40
1
 10
126.720000
 20
570.720000
 30
0.0
 10
144.240000
 20
555.920000
 30
0.0
 10
150.080000
 20
550.960000
 30
0.0
 10
153.440000
 20
547.920000
 30
0.0
  0
SPLINE
  5
201
100
AcDbEntity
  8
0
 62
7
100
AcDbSpline
 70
8
 71
3
 72
8
 73
4
 74
0
 40
0
 40
0
 40
0
 40
0
 40
1
 40
1
 40
1
 40
1
 10
153.440000
 20
547.920000
 30
0.0
 10
155.440000
 20
546.160000
 30
0.0
 10
163.200000
 20
539.520000
 30
0.0
 10
170.720000
 20
533.200000
 30
0.0
  0
SPLINE
  5
202
100
AcDbEntity
  8
0
 62
7
100
AcDbSpline
 70
8
 71
3
 72
8
 73
4
 74
0
 40
0
 40
0
 40
0
 40
0
 40
1
 40
1
 40
1
 40
1
 10
170.720000
 20
533.200000
 30
0.0
 10
178.160000
 20
526.880000
 30
0.0
 10
184.400000
 20
521.440000
 30
0.0
 10
184.640000
 20
521.200000
 30
0.0
  0
SPLINE
  5
203
100
AcDbEntity
  8
0
 62
7
100
AcDbSpline
 70
8
 71
3
 72
8
 73
4
 74
0
 40
0
 40
0
 40
0
 40
0
 40
1
 40
1
 40
1
 40
1
 10
184.640000
 20
521.200000
 30
0.0
 10
184.800000
 20
520.960000
 30
0.0
 10
185.440000
 20
520.400000
 30
0.0
 10
186.000000
 20
520.000000
 30
0.0
  0
SPLINE
  5
204
100
AcDbEntity
  8
0
 62
7
100
AcDbSpline
 70
8
 71
3
 72
8
 73
4
 74
0
 40
0
 40
0
 40
0
 40
0
 40
1
 40
1
 40
1
 40
1
 10
186.000000
 20
520.000000
 30
0.0
 10
186.640000
 20
519.600000
 30
0.0
 10
190.080000
 20
516.720000
 30
0.0
 10
193.680000
 20
513.600000
 30
0.0
  0
SPLINE
  5
205
100
AcDbEntity
  8
0
 62
7
100
AcDbSpline
 70
8
 71
3
 72
8
 73
4
 74
0
 40
0
 40
0
 40
0
 40
0
 40
1
 40
1
 40
1
 40
1
 10
193.680000
 20
513.600000
 30
0.0
 10
197.280000
 20
510.480000
 30
0.0
 10
201.520000
 20
506.880000
 30
0.0
 10
203.200000
 20
505.440000
 30
0.0
  0
SPLINE
  5
206
100
AcDbEntity
  8
0
 62
7
100
AcDbSpline
 70
8
 71
3
 72
8
 73
4
 74
0
 40
0
 40
0
 40
0
 40
0
 40
1
 40
1
 40
1
 40
1
 10
203.200000
 20
505.440000
 30
0.0
 10
204.800000
 20
504.080000
 30
0.0
 10
209.600000
 20
499.920000
 30
0.0
 10
213.760000
 20
496.320000
 30
0.0
  0
SPLINE
  5
207
100
AcDbEntity
  8
0
 62
7
100
AcDbSpline
 70
8
 71
3
 72
8
 73
4
 74
0
 40
0
 40
0
 40
0
 40
0
 40
1
 40
1
 40
1
 40
1
 10
213.760000
 20
496.320000
 30
0.0
 10
218.000000
 20
492.640000
 30
0.0
 10
224.560000
 20
487.040000
 30
0.0
 10
228.320000
 20
483.840000
 30
0.0
  0
SPLINE
  5
208
100
AcDbEntity
  8
0
 62
7
100
AcDbSpline
 70
8
 71
3
 72
8
 73
4
 74
0
 40
0
 40
0
 40
0
 40
0
 40
1
 40
1
 40
1
 40
1
 10
228.320000
 20
483.840000
 30
0.0
 10
232.160000
 20
480.640000
 30
0.0
 10
237.760000
 20
475.920000
 30
0.0
 10
240.720000
 20
473.360000
 30
0.0
  0
SPLINE
  5
209
100
AcDbEntity
  8
0
 62
7
100
AcDbSpline
 70
8
 71
3
 72
8
 73
4
 74
0
 40
0
 40
0
 40
0
 40
0
 40
1
 40
1
 40
1
 40
1
 10
240.720000
 20
473.360000
 30
0.0
 10
243.680000
 20
470.800000
 30
0.0
 10
249.120000
 20
466.160000
 30
0.0
 10
252.800000
 20
462.960000
 30
0.0
  0
SPLINE
  5
20a
100
AcDbEntity
  8
0
 62
7
100
AcDbSpline
 70
8
 71
3
 72
8
 73
4
 74
0
 40
0
 40
0
 40
0
 40
0
 40
1
 40
1
 40
1
 40
1
 10
252.800000
 20
462.960000
 30
0.0
 10
256.480000
 20
459.760000
 30
0.0
 10
259.520000
 20
456.880000
 30
0.0
 10
259.520000
 20
456.560000
 30
0.0
  0
SPLINE
  5
20b
100
AcDbEntity
  8
0
 62
7
100
AcDbSpline
 70
8
 71
3
 72
8
 73
4
 74
0
 40
0
 40
0
 40
0
 40
0
 40
1
 40
1
 40
1
 40
1
 10
259.520000
 20
456.560000
 30
0.0
 10
259.520000
 20
456.240000
 30
0.0
 10
259.120000
 20
455.680000
 30
0.0
 10
258.560000
 20
455.360000
 30
0.0
  0
SPLINE
  5
20c
100
AcDbEntity
  8
0
 62
7
100
AcDbSpline
 70
8
 71
3
 72
8
 73
4
 74
0
 40
0
 40
0
 40
0
 40
0
 40
1
 40
1
 40
1
 40
1
 10
258.560000
 20
455.360000
 30
0.0
 10
258.080000
 20
455.040000
 30
0.0
 10
256.000000
 20
452.960000
 30
0.0
 10
254.080000
 20
450.800000
 30
0.0
  0
SPLINE
  5
20d
100
AcDbEntity
  8
0
 62
7
100
AcDbSpline
 70
8
 71
3
 72
8
 73
4
 74
0
 40
0
 40
0
 40
0
 40
0
 40
1
 40
1
 40
1
 40
1
 10
254.080000
 20
450.800000
 30
0.0
 10
247.360000
 20
443.280000
 30
0.0
 10
235.520000
 20
432.800000
 30
0.0
 10
228.720000
 20
428.320000
 30
0.0
  0
SPLINE
  5
20e
100
AcDbEntity
  8
0
 62
7
100
AcDbSpline
 70
8
 71
3
 72
8
 73
4
 74
0
 40
0
 40
0
 40
0
 40
0
 40
1
 40
1
 40
1
 40
1
 10
228.720000
 20
428.320000
 30
0.0
 10
223.440000
 20
424.880000
 30
0.0
 10
216.480000
 20
420.960000
 30
0.0
 10
215.520000
 20
420.960000
 30
0.0
  0
SPLINE
  5
20f
100
AcDbEntity
  8
0
 62
7
100
AcDbSpline
 70
8
 71
3
 72
8
 73
4
 74
0
 40
0
 40
0
 40
0
 40
0
 40
1
 40
1
 40
1
 40
1
 10
215.520000
 20
420.960000
 30
0.0
 10
215.120000
 20
420.960000
 30
0.0
 10
214.400000
 20
420.640000
 30
0.0
 10
214.080000
 20
420.320000
 30
0.0
  0
SPLINE
  5
210
100
AcDbEntity
  8
0
 62
7
100
AcDbSpline
 70
8
 71
3
 72
8
 73
4
 74
0
 40
0
 40
0
 40
0
 40
0
 40
1
 40
1
 40
1
 40
1
 10
214.080000
 20
420.320000
 30
0.0
 10
213.280000
 20
419.520000
 30
0.0
 10
208.800000
 20
418.000000
 30
0.0
 10
203.200000
 20
416.560000
 30
0.0
  0
SPLINE
  5
211
100
AcDbEntity
  8
0
 62
7
100
AcDbSpline
 70
8
 71
3
 72
8
 73
4
 74
0
 40
0
 40
0
 40
0
 40
0
 40
1
 40
1
 40
1
 40
1
 10
203.200000
 20
416.560000
 30
0.0
 10
197.200000
 20
415.120000
 30
0.0
 10
188.000000
 20
415.360000
 30
0.0
 10
182.000000
 20
417.120000
 30
0.0
  0
LINE
  5
212
100
AcDbEntity
  8
0
 62
7
100
AcDbLine
 10
182.000000
 20
417.120000
 30
0.0
 11
182.000000
 21
417.120000
 31
0.0
  0
SPLINE
  5
213
100
AcDbEntity
  8
0
 62
7
100
AcDbSpline
 70
8
 71
3
 72
8
 73
4
 74
0
 40
0
 40
0
 40
0
 40
0
 40
1
 40
1
 40
1
 40
1
 10
309.200000
 20
424.800000
 30
0.0
 10
305.360000
 20
425.120000
 30
0.0
 10
295.920000
 20
425.840000
 30
0.0
 10
288.160000
 20
426.400000
 30
0.0
  0
SPLINE
  5
214
100
AcDbEntity
  8
0
 62
7
100
AcDbSpline
 70
8
 71
3
 72
8
 73
4
 74
0
 40
0
 40
0
 40
0
 40
0
 40
1
 40
1
 40
1
 40
1
 10
288.160000
 20
426.400000
 30
0.0
 10
280.400000
 20
426.960000
 30
0.0
 10
274.080000
 20
427.680000
 30
0.0
 10
274.080000
 20
428.000000
 30
0.0
  0
SPLINE
  5
215
100
AcDbEntity
  8
0
 62
7
100
AcDbSpline
 70
8
 71
3
 72
8
 73
4
 74
0
 40
0
 40
0
 40
0
 40
0
 40
1
 40
1
 40
1
 40
1
 10
274.080000
 20
428.000000
 30
0.0
 10
274.080000
 20
428.240000
 30
0.0
 10
276.400000
 20
430.720000
 30
0.0
 10
279.200000
 20
433.440000
 30
0.0
  0
LINE
  5
216
100
AcDbEntity
  8
0
 62
7
100
AcDbLine
 10
279.200000
 20
433.440000
 30
0.0
 11
284.320000
 21
438.400000
 31
0.0
  0
LINE
  5
217
100
AcDbEntity
  8
0
 62
7
100
AcDbLine
 10
284.320000
 20
438.400000
 30
0.0
 11
293.280000
 21
438.720000
 31
0.0
  0
LINE
  5
218
100
AcDbEntity
  8
0
 62
7
100
AcDbLine
 10
293.280000
 20
438.720000
 30
0.0
 11
302.240000
 21
438.960000
 31
0.0
  0
LINE
  5
219
100
AcDbEntity
  8
0
 62
7
100
AcDbLine
 10
302.240000
 20
438.960000
 30
0.0
 11
310.800000
 21
432.240000
 31
0.0
  0
SPLINE
  5
21a
100
AcDbEntity
  8
0
 62
7
100
AcDbSpline
 70
8
 71
3
 72
8
 73
4
 74
0
 40
0
 40
0
 40
0
 40
0
 40
1
 40
1
 40
1
 40
1
 10
310.800000
 20
432.240000
 30
0.0
 10
315.520000
 20
428.640000
 30
0.0
 10
319.600000
 20
425.600000
 30
0.0
 10
319.920000
 20
425.600000
 30
0.0
  0
SPLINE
  5
21b
100
AcDbEntity
  8
0
 62
7
100
AcDbSpline
 70
8
 71
3
 72
8
 73
4
 74
0
 40
0
 40
0
 40
0
 40
0
 40
1
 40
1
 40
1
 40
1
 10
319.920000
 20
425.600000
 30
0.0
 10
320.240000
 20
425.600000
 30
0.0
 10
320.480000
 20
425.280000
 30
0.0
 10
320.480000
 20
424.800000
 30
0.0
  0
SPLINE
  5
21c
100
AcDbEntity
  8
0
 62
7
100
AcDbSpline
 70
8
 71
3
 72
8
 73
4
 74
0
 40
0
 40
0
 40
0
 40
0
 40
1
 40
1
 40
1
 40
1
 10
320.480000
 20
424.800000
 30
0.0
 10
320.480000
 20
424.000000
 30
0.0
 10
320.320000
 20
424.000000
 30
0.0
 10
309.200000
 20
424.800000
 30
0.0
  0
LINE
  5
21d
100
AcDbEntity
  8
0
 62
7
100
AcDbLine
 10
309.200000
 20
424.800000
 30
0.0
 11
309.200000
 21
424.800000
 31
0.0
  0
SPLINE
  5
21e
100
AcDbEntity
  8
0
 62
7
100
AcDbSpline
 70
8
 71
3
 72
8
 73
4
 74
0
 40
0
 40
0
 40
0
 40
0
 40
1
 40
1
 40
1
 40
1
 10
294.480000
 20
448.320000
 30
0.0
 10
293.120000
 20
450.800000
 30
0.0
 10
292.000000
 20
452.960000
 30
0.0
 10
292.000000
 20
453.120000
 30
0.0
  0
SPLINE
  5
21f
100
AcDbEntity
  8
0
 62
7
100
AcDbSpline
 70
8
 71
3
 72
8
 73
4
 74
0
 40
0
 40
0
 40
0
 40
0
 40
1
 40
1
 40
1
 40
1
 10
292.000000
 20
453.120000
 30
0.0
 10
292.000000
 20
453.280000
 30
0.0
 10
289.920000
 20
457.360000
 30
0.0
 10
287.440000
 20
462.240000
 30
0.0
  0
SPLINE
  5
220
100
AcDbEntity
  8
0
 62
7
100
AcDbSpline
 70
8
 71
3
 72
8
 73
4
 74
0
 40
0
 40
0
 40
0
 40
0
 40
1
 40
1
 40
1
 40
1
 10
287.440000
 20
462.240000
 30
0.0
 10
283.440000
 20
469.920000
 30
0.0
 10
283.040000
 20
471.200000
 30
0.0
 10
283.920000
 20
471.920000
 30
0.0
  0
SPLINE
  5
221
100
AcDbEntity
  8
0
 62
7
100
AcDbSpline
 70
8
 71
3
 72
8
 73
4
 74
0
 40
0
 40
0
 40
0
 40
0
 40
1
 40
1
 40
1
 40
1
 10
283.920000
 20
471.920000
 30
0.0
 10
285.120000
 20
472.800000
 30
0.0
 10
297.280000
 20
476.320000
 30
0.0
 10
297.760000
 20
475.840000
 30
0.0
  0
SPLINE
  5
222
100
AcDbEntity
  8
0
 62
7
100
AcDbSpline
 70
8
 71
3
 72
8
 73
4
 74
0
 40
0
 40
0
 40
0
 40
0
 40
1
 40
1
 40
1
 40
1
 10
297.760000
 20
475.840000
 30
0.0
 10
297.840000
 20
475.680000
 30
0.0
 10
297.760000
 20
468.400000
 30
0.0
 10
297.440000
 20
459.680000
 30
0.0
  0
LINE
  5
223
100
AcDbEntity
  8
0
 62
7
100
AcDbLine
 10
297.440000
 20
459.680000
 30
0.0
 11
296.960000
 21
443.840000
 31
0.0
  0
LINE
  5
224
100
AcDbEntity
  8
0
 62
7
100
AcDbLine
 10
296.960000
 20
443.840000
 30
0.0
 11
294.480000
 21
448.320000
 31
0.0
  0
LINE
  5
225
100
AcDbEntity
  8
0
 62
7
100
AcDbLine
 10
294.480000
 20
448.320000
 30
0.0
 11
294.480000
 21
448.320000
 31
0.0
  0
SPLINE
  5
226
100
AcDbEntity
  8
0
 62
7
100
AcDbSpline
 70
8
 71
3
 72
8
 73
4
 74
0
 40
0
 40
0
 40
0
 40
0
 40
1
 40
1
 40
1
 40
1
 10
308.480000
 20
444.320000
 30
0.0
 10
308.480000
 20
444.480000
 30
0.0
 10
308.320000
 20
447.600000
 30
0.0
 10
308.160000
 20
451.280000
 30
0.0
  0
SPLINE
  5
227
100
AcDbEntity
  8
0
 62
7
100
AcDbSpline
 70
8
 71
3
 72
8
 73
4
 74
0
 40
0
 40
0
 40
0
 40
0
 40
1
 40
1
 40
1
 40
1
 10
308.160000
 20
451.280000
 30
0.0
 10
308.080000
 20
454.880000
 30
0.0
 10
307.760000
 20
461.920000
 30
0.0
 10
307.600000
 20
466.960000
 30
0.0
  0
SPLINE
  5
228
100
AcDbEntity
  8
0
 62
7
100
AcDbSpline
 70
8
 71
3
 72
8
 73
4
 74
0
 40
0
 40
0
 40
0
 40
0
 40
1
 40
1
 40
1
 40
1
 10
307.600000
 20
466.960000
 30
0.0
 10
307.360000
 20
472.240000
 30
0.0
 10
307.440000
 20
476.080000
 30
0.0
 10
307.760000
 20
476.080000
 30
0.0
  0
SPLINE
  5
229
100
AcDbEntity
  8
0
 62
7
100
AcDbSpline
 70
8
 71
3
 72
8
 73
4
 74
0
 40
0
 40
0
 40
0
 40
0
 40
1
 40
1
 40
1
 40
1
 10
307.760000
 20
476.080000
 30
0.0
 10
308.720000
 20
476.080000
 30
0.0
 10
321.120000
 20
472.320000
 30
0.0
 10
321.760000
 20
471.840000
 30
0.0
  0
SPLINE
  5
22a
100
AcDbEntity
  8
0
 62
7
100
AcDbSpline
 70
8
 71
3
 72
8
 73
4
 74
0
 40
0
 40
0
 40
0
 40
0
 40
1
 40
1
 40
1
 40
1
 10
321.760000
 20
471.840000
 30
0.0
 10
322.080000
 20
471.600000
 30
0.0
 10
320.880000
 20
468.320000
 30
0.0
 10
319.040000
 20
464.640000
 30
0.0
  0
SPLINE
  5
22b
100
AcDbEntity
  8
0
 62
7
100
AcDbSpline
 70
8
 71
3
 72
8
 73
4
 74
0
 40
0
 40
0
 40
0
 40
0
 40
1
 40
1
 40
1
 40
1
 10
319.040000
 20
464.640000
 30
0.0
 10
317.200000
 20
460.880000
 30
0.0
 10
315.120000
 20
456.800000
 30
0.0
 10
314.560000
 20
455.520000
 30
0.0
  0
SPLINE
  5
22c
100
AcDbEntity
  8
0
 62
7
100
AcDbSpline
 70
8
 71
3
 72
8
 73
4
 74
0
 40
0
 40
0
 40
0
 40
0
 40
1
 40
1
 40
1
 40
1
 10
314.560000
 20
455.520000
 30
0.0
 10
309.840000
 20
446.000000
 30
0.0
 10
308.640000
 20
443.680000
 30
0.0
 10
308.480000
 20
444.320000
 30
0.0
  0
LINE
  5
22d
100
AcDbEntity
  8
0
 62
7
100
AcDbLine
 10
308.480000
 20
444.320000
 30
0.0
 11
308.480000
 21
444.320000
 31
0.0
  0
SPLINE
  5
22e
100
AcDbEntity
  8
0
 62
7
100
AcDbSpline
 70
8
 71
3
 72
8
 73
4
 74
0
 40
0
 40
0
 40
0
 40
0
 40
1
 40
1
 40
1
 40
1
 10
332.800000
 20
479.680000
 30
0.0
 10
331.360000
 20
480.320000
 30
0.0
 10
327.520000
 20
481.200000
 30
0.0
 10
324.160000
 20
481.680000
 30
0.0
  0
SPLINE
  5
22f
100
AcDbEntity
  8
0
 62
7
100
AcDbSpline
 70
8
 71
3
 72
8
 73
4
 74
0
 40
0
 40
0
 40
0
 40
0
 40
1
 40
1
 40
1
 40
1
 10
324.160000
 20
481.680000
 30
0.0
 10
317.600000
 20
482.640000
 30
0.0
 10
316.640000
 20
483.120000
 30
0.0
 10
318.000000
 20
484.720000
 30
0.0
  0
SPLINE
  5
230
100
AcDbEntity
  8
0
 62
7
100
AcDbSpline
 70
8
 71
3
 72
8
 73
4
 74
0
 40
0
 40
0
 40
0
 40
0
 40
1
 40
1
 40
1
 40
1
 10
318.000000
 20
484.720000
 30
0.0
 10
319.760000
 20
486.880000
 30
0.0
 10
329.680000
 20
501.520000
 30
0.0
 10
332.640000
 20
506.400000
 30
0.0
  0
SPLINE
  5
231
100
AcDbEntity
  8
0
 62
7
100
AcDbSpline
 70
8
 71
3
 72
8
 73
4
 74
0
 40
0
 40
0
 40
0
 40
0
 40
1
 40
1
 40
1
 40
1
 10
332.640000
 20
506.400000
 30
0.0
 10
337.520000
 20
514.400000
 30
0.0
 10
346.320000
 20
529.600000
 30
0.0
 10
346.320000
 20
530.160000
 30
0.0
  0
SPLINE
  5
232
100
AcDbEntity
  8
0
 62
7
100
AcDbSpline
 70
8
 71
3
 72
8
 73
4
 74
0
 40
0
 40
0
 40
0
 40
0
 40
1
 40
1
 40
1
 40
1
 10
346.320000
 20
530.160000
 30
0.0
 10
346.320000
 20
530.400000
 30
0.0
 10
347.520000
 20
532.640000
 30
0.0
 10
348.960000
 20
535.120000
 30
0.0
  0
SPLINE
  5
233
100
AcDbEntity
  8
0
 62
7
100
AcDbSpline
 70
8
 71
3
 72
8
 73
4
 74
0
 40
0
 40
0
 40
0
 40
0
 40
1
 40
1
 40
1
 40
1
 10
348.960000
 20
535.120000
 30
0.0
 10
350.400000
 20
537.680000
 30
0.0
 10
351.600000
 20
539.920000
 30
0.0
 10
351.600000
 20
540.240000
 30
0.0
  0
SPLINE
  5
234
100
AcDbEntity
  8
0
 62
7
100
AcDbSpline
 70
8
 71
3
 72
8
 73
4
 74
0
 40
0
 40
0
 40
0
 40
0
 40
1
 40
1
 40
1
 40
1
 10
351.600000
 20
540.240000
 30
0.0
 10
351.600000
 20
540.480000
 30
0.0
 10
352.560000
 20
542.240000
 30
0.0
 10
353.600000
 20
544.080000
 30
0.0
  0
SPLINE
  5
235
100
AcDbEntity
  8
0
 62
7
100
AcDbSpline
 70
8
 71
3
 72
8
 73
4
 74
0
 40
0
 40
0
 40
0
 40
0
 40
1
 40
1
 40
1
 40
1
 10
353.600000
 20
544.080000
 30
0.0
 10
354.720000
 20
545.920000
 30
0.0
 10
355.600000
 20
547.600000
 30
0.0
 10
355.600000
 20
547.840000
 30
0.0
  0
SPLINE
  5
236
100
AcDbEntity
  8
0
 62
7
100
AcDbSpline
 70
8
 71
3
 72
8
 73
4
 74
0
 40
0
 40
0
 40
0
 40
0
 40
1
 40
1
 40
1
 40
1
 10
355.600000
 20
547.840000
 30
0.0
 10
355.600000
 20
548.000000
 30
0.0
 10
356.720000
 20
550.400000
 30
0.0
 10
358.160000
 20
553.120000
 30
0.0
  0
SPLINE
  5
237
100
AcDbEntity
  8
0
 62
7
100
AcDbSpline
 70
8
 71
3
 72
8
 73
4
 74
0
 40
0
 40
0
 40
0
 40
0
 40
1
 40
1
 40
1
 40
1
 10
358.160000
 20
553.120000
 30
0.0
 10
360.480000
 20
557.680000
 30
0.0
 10
366.480000
 20
570.240000
 30
0.0
 10
372.080000
 20
582.560000
 30
0.0
  0
SPLINE
  5
238
100
AcDbEntity
  8
0
 62
7
100
AcDbSpline
 70
8
 71
3
 72
8
 73
4
 74
0
 40
0
 40
0
 40
0
 40
0
 40
1
 40
1
 40
1
 40
1
 10
372.080000
 20
582.560000
 30
0.0
 10
373.280000
 20
585.360000
 30
0.0
 10
376.720000
 20
593.120000
 30
0.0
 10
379.520000
 20
599.760000
 30
0.0
  0
SPLINE
  5
239
100
AcDbEntity
  8
0
 62
7
100
AcDbSpline
 70
8
 71
3
 72
8
 73
4
 74
0
 40
0
 40
0
 40
0
 40
0
 40
1
 40
1
 40
1
 40
1
 10
379.520000
 20
599.760000
 30
0.0
 10
382.400000
 20
606.480000
 30
0.0
 10
385.040000
 20
612.160000
 30
0.0
 10
385.360000
 20
612.400000
 30
0.0
  0
SPLINE
  5
23a
100
AcDbEntity
  8
0
 62
7
100
AcDbSpline
 70
8
 71
3
 72
8
 73
4
 74
0
 40
0
 40
0
 40
0
 40
0
 40
1
 40
1
 40
1
 40
1
 10
385.360000
 20
612.400000
 30
0.0
 10
385.600000
 20
612.640000
 30
0.0
 10
388.080000
 20
610.080000
 30
0.0
 10
390.800000
 20
606.800000
 30
0.0
  0
SPLINE
  5
23b
100
AcDbEntity
  8
0
 62
7
100
AcDbSpline
 70
8
 71
3
 72
8
 73
4
 74
0
 40
0
 40
0
 40
0
 40
0
 40
1
 40
1
 40
1
 40
1
 10
390.800000
 20
606.800000
 30
0.0
 10
403.680000
 20
591.200000
 30
0.0
 10
420.400000
 20
574.800000
 30
0.0
 10
428.880000
 20
569.680000
 30
0.0
  0
SPLINE
  5
23c
100
AcDbEntity
  8
0
 62
7
100
AcDbSpline
 70
8
 71
3
 72
8
 73
4
 74
0
 40
0
 40
0
 40
0
 40
0
 40
1
 40
1
 40
1
 40
1
 10
428.880000
 20
569.680000
 30
0.0
 10
430.880000
 20
568.480000
 30
0.0
 10
432.480000
 20
567.280000
 30
0.0
 10
432.480000
 20
567.040000
 30
0.0
  0
SPLINE
  5
23d
100
AcDbEntity
  8
0
 62
7
100
AcDbSpline
 70
8
 71
3
 72
8
 73
4
 74
0
 40
0
 40
0
 40
0
 40
0
 40
1
 40
1
 40
1
 40
1
 10
432.480000
 20
567.040000
 30
0.0
 10
432.480000
 20
566.480000
 30
0.0
 10
428.880000
 20
563.040000
 30
0.0
 10
421.840000
 20
556.880000
 30
0.0
  0
SPLINE
  5
23e
100
AcDbEntity
  8
0
 62
7
100
AcDbSpline
 70
8
 71
3
 72
8
 73
4
 74
0
 40
0
 40
0
 40
0
 40
0
 40
1
 40
1
 40
1
 40
1
 10
421.840000
 20
556.880000
 30
0.0
 10
418.800000
 20
554.160000
 30
0.0
 10
416.080000
 20
551.680000
 30
0.0
 10
415.920000
 20
551.440000
 30
0.0
  0
SPLINE
  5
23f
100
AcDbEntity
  8
0
 62
7
100
AcDbSpline
 70
8
 71
3
 72
8
 73
4
 74
0
 40
0
 40
0
 40
0
 40
0
 40
1
 40
1
 40
1
 40
1
 10
415.920000
 20
551.440000
 30
0.0
 10
415.760000
 20
551.200000
 30
0.0
 10
411.680000
 20
547.520000
 30
0.0
 10
406.960000
 20
543.360000
 30
0.0
  0
SPLINE
  5
240
100
AcDbEntity
  8
0
 62
7
100
AcDbSpline
 70
8
 71
3
 72
8
 73
4
 74
0
 40
0
 40
0
 40
0
 40
0
 40
1
 40
1
 40
1
 40
1
 10
406.960000
 20
543.360000
 30
0.0
 10
402.240000
 20
539.120000
 30
0.0
 10
398.240000
 20
535.440000
 30
0.0
 10
398.000000
 20
535.120000
 30
0.0
  0
SPLINE
  5
241
100
AcDbEntity
  8
0
 62
7
100
AcDbSpline
 70
8
 71
3
 72
8
 73
4
 74
0
 40
0
 40
0
 40
0
 40
0
 40
1
 40
1
 40
1
 40
1
 10
398.000000
 20
535.120000
 30
0.0
 10
397.840000
 20
534.880000
 30
0.0
 10
395.120000
 20
532.400000
 30
0.0
 10
392.080000
 20
529.680000
 30
0.0
  0
SPLINE
  5
242
100
AcDbEntity
  8
0
 62
7
100
AcDbSpline
 70
8
 71
3
 72
8
 73
4
 74
0
 40
0
 40
0
 40
0
 40
0
 40
1
 40
1
 40
1
 40
1
 10
392.080000
 20
529.680000
 30
0.0
 10
388.960000
 20
526.960000
 30
0.0
 10
386.240000
 20
524.480000
 30
0.0
 10
386.080000
 20
524.240000
 30
0.0
  0
SPLINE
  5
243
100
AcDbEntity
  8
0
 62
7
100
AcDbSpline
 70
8
 71
3
 72
8
 73
4
 74
0
 40
0
 40
0
 40
0
 40
0
 40
1
 40
1
 40
1
 40
1
 10
386.080000
 20
524.240000
 30
0.0
 10
385.920000
 20
524.000000
 30
0.0
 10
383.200000
 20
521.600000
 30
0.0
 10
380.160000
 20
518.800000
 30
0.0
  0
SPLINE
  5
244
100
AcDbEntity
  8
0
 62
7
100
AcDbSpline
 70
8
 71
3
 72
8
 73
4
 74
0
 40
0
 40
0
 40
0
 40
0
 40
1
 40
1
 40
1
 40
1
 10
380.160000
 20
518.800000
 30
0.0
 10
373.440000
 20
512.960000
 30
0.0
 10
354.080000
 20
495.360000
 30
0.0
 10
353.600000
 20
494.800000
 30
0.0
  0
SPLINE
  5
245
100
AcDbEntity
  8
0
 62
7
100
AcDbSpline
 70
8
 71
3
 72
8
 73
4
 74
0
 40
0
 40
0
 40
0
 40
0
 40
1
 40
1
 40
1
 40
1
 10
353.600000
 20
494.800000
 30
0.0
 10
352.400000
 20
493.280000
 30
0.0
 10
346.960000
 20
488.560000
 30
0.0
 10
346.400000
 20
488.560000
 30
0.0
  0
SPLINE
  5
246
100
AcDbEntity
  8
0
 62
7
100
AcDbSpline
 70
8
 71
3
 72
8
 73
4
 74
0
 40
0
 40
0
 40
0
 40
0
 40
1
 40
1
 40
1
 40
1
 10
346.400000
 20
488.560000
 30
0.0
 10
346.080000
 20
488.560000
 30
0.0
 10
345.680000
 20
488.240000
 30
0.0
 10
345.520000
 20
487.920000
 30
0.0
  0
SPLINE
  5
247
100
AcDbEntity
  8
0
 62
7
100
AcDbSpline
 70
8
 71
3
 72
8
 73
4
 74
0
 40
0
 40
0
 40
0
 40
0
 40
1
 40
1
 40
1
 40
1
 10
345.520000
 20
487.920000
 30
0.0
 10
345.360000
 20
487.360000
 30
0.0
 10
337.280000
 20
479.840000
 30
0.0
 10
336.080000
 20
479.040000
 30
0.0
  0
SPLINE
  5
248
100
AcDbEntity
  8
0
 62
7
100
AcDbSpline
 70
8
 71
3
 72
8
 73
4
 74
0
 40
0
 40
0
 40
0
 40
0
 40
1
 40
1
 40
1
 40
1
 10
336.080000
 20
479.040000
 30
0.0
 10
335.680000
 20
478.800000
 30
0.0
 10
334.240000
 20
479.120000
 30
0.0
 10
332.800000
 20
479.680000
 30
0.0
  0
LINE
  5
249
100
AcDbEntity
  8
0
 62
7
100
AcDbLine
 10
332.800000
 20
479.680000
 30
0.0
 11
332.800000
 21
479.680000
 31
0.0
  0
SPLINE
  5
24a
100
AcDbEntity
  8
0
 62
7
100
AcDbSpline
 70
8
 71
3
 72
8
 73
4
 74
0
 40
0
 40
0
 40
0
 40
0
 40
1
 40
1
 40
1
 40
1
 10
246.000000
 20
503.040000
 30
0.0
 10
234.640000
 20
516.240000
 30
0.0
 10
215.920000
 20
538.080000
 30
0.0
 10
204.320000
 20
551.440000
 30
0.0
  0
SPLINE
  5
24b
100
AcDbEntity
  8
0
 62
7
100
AcDbSpline
 70
8
 71
3
 72
8
 73
4
 74
0
 40
0
 40
0
 40
0
 40
0
 40
1
 40
1
 40
1
 40
1
 10
204.320000
 20
551.440000
 30
0.0
 10
192.720000
 20
564.880000
 30
0.0
 10
183.360000
 20
576.080000
 30
0.0
 10
183.440000
 20
576.400000
 30
0.0
  0
SPLINE
  5
24c
100
AcDbEntity
  8
0
 62
7
100
AcDbSpline
 70
8
 71
3
 72
8
 73
4
 74
0
 40
0
 40
0
 40
0
 40
0
 40
1
 40
1
 40
1
 40
1
 10
183.440000
 20
576.400000
 30
0.0
 10
183.520000
 20
576.640000
 30
0.0
 10
186.720000
 20
579.920000
 30
0.0
 10
190.560000
 20
583.680000
 30
0.0
  0
SPLINE
  5
24d
100
AcDbEntity
  8
0
 62
7
100
AcDbSpline
 70
8
 71
3
 72
8
 73
4
 74
0
 40
0
 40
0
 40
0
 40
0
 40
1
 40
1
 40
1
 40
1
 10
190.560000
 20
583.680000
 30
0.0
 10
194.400000
 20
587.360000
 30
0.0
 10
200.160000
 20
593.360000
 30
0.0
 10
203.360000
 20
596.960000
 30
0.0
  0
SPLINE
  5
24e
100
AcDbEntity
  8
0
 62
7
100
AcDbSpline
 70
8
 71
3
 72
8
 73
4
 74
0
 40
0
 40
0
 40
0
 40
0
 40
1
 40
1
 40
1
 40
1
 10
203.360000
 20
596.960000
 30
0.0
 10
206.560000
 20
600.560000
 30
0.0
 10
209.360000
 20
603.520000
 30
0.0
 10
209.600000
 20
603.520000
 30
0.0
  0
SPLINE
  5
24f
100
AcDbEntity
  8
0
 62
7
100
AcDbSpline
 70
8
 71
3
 72
8
 73
4
 74
0
 40
0
 40
0
 40
0
 40
0
 40
1
 40
1
 40
1
 40
1
 10
209.600000
 20
603.520000
 30
0.0
 10
209.920000
 20
603.520000
 30
0.0
 10
212.160000
 20
598.720000
 30
0.0
 10
214.640000
 20
592.800000
 30
0.0
  0
SPLINE
  5
250
100
AcDbEntity
  8
0
 62
7
100
AcDbSpline
 70
8
 71
3
 72
8
 73
4
 74
0
 40
0
 40
0
 40
0
 40
0
 40
1
 40
1
 40
1
 40
1
 10
214.640000
 20
592.800000
 30
0.0
 10
217.040000
 20
586.960000
 30
0.0
 10
220.160000
 20
579.920000
 30
0.0
 10
221.440000
 20
577.120000
 30
0.0
  0
SPLINE
  5
251
100
AcDbEntity
  8
0
 62
7
100
AcDbSpline
 70
8
 71
3
 72
8
 73
4
 74
0
 40
0
 40
0
 40
0
 40
0
 40
1
 40
1
 40
1
 40
1
 10
221.440000
 20
577.120000
 30
0.0
 10
228.240000
 20
562.400000
 30
0.0
 10
233.040000
 20
552.480000
 30
0.0
 10
237.200000
 20
544.480000
 30
0.0
  0
SPLINE
  5
252
100
AcDbEntity
  8
0
 62
7
100
AcDbSpline
 70
8
 71
3
 72
8
 73
4
 74
0
 40
0
 40
0
 40
0
 40
0
 40
1
 40
1
 40
1
 40
1
 10
237.200000
 20
544.480000
 30
0.0
 10
239.680000
 20
539.600000
 30
0.0
 10
242.320000
 20
534.400000
 30
0.0
 10
243.040000
 20
533.040000
 30
0.0
  0
SPLINE
  5
253
100
AcDbEntity
  8
0
 62
7
100
AcDbSpline
 70
8
 71
3
 72
8
 73
4
 74
0
 40
0
 40
0
 40
0
 40
0
 40
1
 40
1
 40
1
 40
1
 10
243.040000
 20
533.040000
 30
0.0
 10
248.080000
 20
522.720000
 30
0.0
 10
264.160000
 20
496.240000
 30
0.0
 10
271.280000
 20
486.560000
 30
0.0
  0
SPLINE
  5
254
100
AcDbEntity
  8
0
 62
7
100
AcDbSpline
 70
8
 71
3
 72
8
 73
4
 74
0
 40
0
 40
0
 40
0
 40
0
 40
1
 40
1
 40
1
 40
1
 10
271.280000
 20
486.560000
 30
0.0
 10
273.840000
 20
483.120000
 30
0.0
 10
275.040000
 20
480.960000
 30
0.0
 10
274.560000
 20
480.640000
 30
0.0
  0
SPLINE
  5
255
100
AcDbEntity
  8
0
 62
7
100
AcDbSpline
 70
8
 71
3
 72
8
 73
4
 74
0
 40
0
 40
0
 40
0
 40
0
 40
1
 40
1
 40
1
 40
1
 10
274.560000
 20
480.640000
 30
0.0
 10
274.080000
 20
480.400000
 30
0.0
 10
272.160000
 20
479.920000
 30
0.0
 10
270.240000
 20
479.600000
 30
0.0
  0
LINE
  5
256
100
AcDbEntity
  8
0
 62
7
100
AcDbLine
 10
270.240000
 20
479.600000
 30
0.0
 11
266.720000
 21
479.040000
 31
0.0
  0
LINE
  5
257
100
AcDbEntity
  8
0
 62
7
100
AcDbLine
 10
266.720000
 20
479.040000
 30
0.0
 11
246.000000
 21
503.040000
 31
0.0
  0
LINE
  5
258
100
AcDbEntity
  8
0
 62
7
100
AcDbLine
 10
246.000000
 20
503.040000
 30
0.0
 11
246.000000
 21
503.040000
 31
0.0
  0
SPLINE
  5
259
100
AcDbEntity
  8
0
 62
7
100
AcDbSpline
 70
8
 71
3
 72
8
 73
4
 74
0
 40
0
 40
0
 40
0
 40
0
 40
1
 40
1
 40
1
 40
1
 10
277.440000
 20
486.320000
 30
0.0
 10
276.240000
 20
489.040000
 30
0.0
 10
274.320000
 20
493.200000
 30
0.0
 10
273.200000
 20
495.520000
 30
0.0
  0
SPLINE
  5
25a
100
AcDbEntity
  8
0
 62
7
100
AcDbSpline
 70
8
 71
3
 72
8
 73
4
 74
0
 40
0
 40
0
 40
0
 40
0
 40
1
 40
1
 40
1
 40
1
 10
273.200000
 20
495.520000
 30
0.0
 10
270.400000
 20
501.520000
 30
0.0
 10
263.920000
 20
515.600000
 30
0.0
 10
260.160000
 20
523.920000
 30
0.0
  0
SPLINE
  5
25b
100
AcDbEntity
  8
0
 62
7
100
AcDbSpline
 70
8
 71
3
 72
8
 73
4
 74
0
 40
0
 40
0
 40
0
 40
0
 40
1
 40
1
 40
1
 40
1
 10
260.160000
 20
523.920000
 30
0.0
 10
258.400000
 20
527.760000
 30
0.0
 10
255.920000
 20
533.200000
 30
0.0
 10
254.640000
 20
535.920000
 30
0.0
  0
SPLINE
  5
25c
100
AcDbEntity
  8
0
 62
7
100
AcDbSpline
 70
8
 71
3
 72
8
 73
4
 74
0
 40
0
 40
0
 40
0
 40
0
 40
1
 40
1
 40
1
 40
1
 10
254.640000
 20
535.920000
 30
0.0
 10
253.280000
 20
538.720000
 30
0.0
 10
250.800000
 20
544.320000
 30
0.0
 10
249.120000
 20
548.320000
 30
0.0
  0
SPLINE
  5
25d
100
AcDbEntity
  8
0
 62
7
100
AcDbSpline
 70
8
 71
3
 72
8
 73
4
 74
0
 40
0
 40
0
 40
0
 40
0
 40
1
 40
1
 40
1
 40
1
 10
249.120000
 20
548.320000
 30
0.0
 10
247.360000
 20
552.400000
 30
0.0
 10
245.760000
 20
555.920000
 30
0.0
 10
245.600000
 20
556.160000
 30
0.0
  0
SPLINE
  5
25e
100
AcDbEntity
  8
0
 62
7
100
AcDbSpline
 70
8
 71
3
 72
8
 73
4
 74
0
 40
0
 40
0
 40
0
 40
0
 40
1
 40
1
 40
1
 40
1
 10
245.600000
 20
556.160000
 30
0.0
 10
245.360000
 20
556.320000
 30
0.0
 10
243.440000
 20
560.720000
 30
0.0
 10
241.200000
 20
565.840000
 30
0.0
  0
SPLINE
  5
25f
100
AcDbEntity
  8
0
 62
7
100
AcDbSpline
 70
8
 71
3
 72
8
 73
4
 74
0
 40
0
 40
0
 40
0
 40
0
 40
1
 40
1
 40
1
 40
1
 10
241.200000
 20
565.840000
 30
0.0
 10
238.960000
 20
570.960000
 30
0.0
 10
234.320000
 20
581.680000
 30
0.0
 10
230.800000
 20
589.760000
 30
0.0
  0
SPLINE
  5
260
100
AcDbEntity
  8
0
 62
7
100
AcDbSpline
 70
8
 71
3
 72
8
 73
4
 74
0
 40
0
 40
0
 40
0
 40
0
 40
1
 40
1
 40
1
 40
1
 10
230.800000
 20
589.760000
 30
0.0
 10
227.280000
 20
597.760000
 30
0.0
 10
224.400000
 20
604.560000
 30
0.0
 10
224.400000
 20
604.960000
 30
0.0
  0
SPLINE
  5
261
100
AcDbEntity
  8
0
 62
7
100
AcDbSpline
 70
8
 71
3
 72
8
 73
4
 74
0
 40
0
 40
0
 40
0
 40
0
 40
1
 40
1
 40
1
 40
1
 10
224.400000
 20
604.960000
 30
0.0
 10
224.400000
 20
605.280000
 30
0.0
 10
228.160000
 20
606.240000
 30
0.0
 10
232.800000
 20
606.960000
 30
0.0
  0
SPLINE
  5
262
100
AcDbEntity
  8
0
 62
7
100
AcDbSpline
 70
8
 71
3
 72
8
 73
4
 74
0
 40
0
 40
0
 40
0
 40
0
 40
1
 40
1
 40
1
 40
1
 10
232.800000
 20
606.960000
 30
0.0
 10
237.440000
 20
607.680000
 30
0.0
 10
242.640000
 20
608.640000
 30
0.0
 10
244.240000
 20
609.040000
 30
0.0
  0
SPLINE
  5
263
100
AcDbEntity
  8
0
 62
7
100
AcDbSpline
 70
8
 71
3
 72
8
 73
4
 74
0
 40
0
 40
0
 40
0
 40
0
 40
1
 40
1
 40
1
 40
1
 10
244.240000
 20
609.040000
 30
0.0
 10
245.920000
 20
609.440000
 30
0.0
 10
249.760000
 20
610.240000
 30
0.0
 10
252.880000
 20
610.960000
 30
0.0
  0
SPLINE
  5
264
100
AcDbEntity
  8
0
 62
7
100
AcDbSpline
 70
8
 71
3
 72
8
 73
4
 74
0
 40
0
 40
0
 40
0
 40
0
 40
1
 40
1
 40
1
 40
1
 10
252.880000
 20
610.960000
 30
0.0
 10
259.440000
 20
612.320000
 30
0.0
 10
277.120000
 20
617.280000
 30
0.0
 10
279.040000
 20
618.240000
 30
0.0
  0
SPLINE
  5
265
100
AcDbEntity
  8
0
 62
7
100
AcDbSpline
 70
8
 71
3
 72
8
 73
4
 74
0
 40
0
 40
0
 40
0
 40
0
 40
1
 40
1
 40
1
 40
1
 10
279.040000
 20
618.240000
 30
0.0
 10
279.760000
 20
618.560000
 30
0.0
 10
282.480000
 20
619.680000
 30
0.0
 10
285.040000
 20
620.640000
 30
0.0
  0
SPLINE
  5
266
100
AcDbEntity
  8
0
 62
7
100
AcDbSpline
 70
8
 71
3
 72
8
 73
4
 74
0
 40
0
 40
0
 40
0
 40
0
 40
1
 40
1
 40
1
 40
1
 10
285.040000
 20
620.640000
 30
0.0
 10
287.600000
 20
621.600000
 30
0.0
 10
290.560000
 20
622.800000
 30
0.0
 10
291.680000
 20
623.360000
 30
0.0
  0
SPLINE
  5
267
100
AcDbEntity
  8
0
 62
7
100
AcDbSpline
 70
8
 71
3
 72
8
 73
4
 74
0
 40
0
 40
0
 40
0
 40
0
 40
1
 40
1
 40
1
 40
1
 10
291.680000
 20
623.360000
 30
0.0
 10
296.880000
 20
626.080000
 30
0.0
 10
302.480000
 20
629.200000
 30
0.0
 10
304.720000
 20
630.800000
 30
0.0
  0
SPLINE
  5
268
100
AcDbEntity
  8
0
 62
7
100
AcDbSpline
 70
8
 71
3
 72
8
 73
4
 74
0
 40
0
 40
0
 40
0
 40
0
 40
1
 40
1
 40
1
 40
1
 10
304.720000
 20
630.800000
 30
0.0
 10
306.080000
 20
631.760000
 30
0.0
 10
307.280000
 20
632.400000
 30
0.0
 10
307.440000
 20
632.240000
 30
0.0
  0
SPLINE
  5
269
100
AcDbEntity
  8
0
 62
7
100
AcDbSpline
 70
8
 71
3
 72
8
 73
4
 74
0
 40
0
 40
0
 40
0
 40
0
 40
1
 40
1
 40
1
 40
1
 10
307.440000
 20
632.240000
 30
0.0
 10
308.160000
 20
631.120000
 30
0.0
 10
304.480000
 20
538.800000
 30
0.0
 10
302.560000
 20
511.840000
 30
0.0
  0
SPLINE
  5
26a
100
AcDbEntity
  8
0
 62
7
100
AcDbSpline
 70
8
 71
3
 72
8
 73
4
 74
0
 40
0
 40
0
 40
0
 40
0
 40
1
 40
1
 40
1
 40
1
 10
302.560000
 20
511.840000
 30
0.0
 10
302.240000
 20
506.960000
 30
0.0
 10
301.760000
 20
499.600000
 30
0.0
 10
301.520000
 20
495.600000
 30
0.0
  0
SPLINE
  5
26b
100
AcDbEntity
  8
0
 62
7
100
AcDbSpline
 70
8
 71
3
 72
8
 73
4
 74
0
 40
0
 40
0
 40
0
 40
0
 40
1
 40
1
 40
1
 40
1
 10
301.520000
 20
495.600000
 30
0.0
 10
301.040000
 20
488.640000
 30
0.0
 10
300.880000
 20
488.080000
 30
0.0
 10
298.960000
 20
486.000000
 30
0.0
  0
SPLINE
  5
26c
100
AcDbEntity
  8
0
 62
7
100
AcDbSpline
 70
8
 71
3
 72
8
 73
4
 74
0
 40
0
 40
0
 40
0
 40
0
 40
1
 40
1
 40
1
 40
1
 10
298.960000
 20
486.000000
 30
0.0
 10
296.080000
 20
482.800000
 30
0.0
 10
294.880000
 20
482.400000
 30
0.0
 10
286.800000
 20
481.840000
 30
0.0
  0
LINE
  5
26d
100
AcDbEntity
  8
0
 62
7
100
AcDbLine
 10
286.800000
 20
481.840000
 30
0.0
 11
279.600000
 21
481.360000
 31
0.0
  0
LINE
  5
26e
100
AcDbEntity
  8
0
 62
7
100
AcDbLine
 10
279.600000
 20
481.360000
 30
0.0
 11
277.440000
 21
486.320000
 31
0.0
  0
LINE
  5
26f
100
AcDbEntity
  8
0
 62
7
100
AcDbLine
 10
277.440000
 20
486.320000
 30
0.0
 11
277.440000
 21
486.320000
 31
0.0
  0
SPLINE
  5
270
100
AcDbEntity
  8
0
 62
7
100
AcDbSpline
 70
8
 71
3
 72
8
 73
4
 74
0
 40
0
 40
0
 40
0
 40
0
 40
1
 40
1
 40
1
 40
1
 10
304.560000
 20
483.840000
 30
0.0
 10
304.560000
 20
484.240000
 30
0.0
 10
304.880000
 20
485.520000
 30
0.0
 10
305.280000
 20
486.720000
 30
0.0
  0
SPLINE
  5
271
100
AcDbEntity
  8
0
 62
7
100
AcDbSpline
 70
8
 71
3
 72
8
 73
4
 74
0
 40
0
 40
0
 40
0
 40
0
 40
1
 40
1
 40
1
 40
1
 10
305.280000
 20
486.720000
 30
0.0
 10
305.760000
 20
487.920000
 30
0.0
 10
306.320000
 20
489.600000
 30
0.0
 10
306.560000
 20
490.480000
 30
0.0
  0
SPLINE
  5
272
100
AcDbEntity
  8
0
 62
7
100
AcDbSpline
 70
8
 71
3
 72
8
 73
4
 74
0
 40
0
 40
0
 40
0
 40
0
 40
1
 40
1
 40
1
 40
1
 10
306.560000
 20
490.480000
 30
0.0
 10
307.120000
 20
492.160000
 30
0.0
 10
309.120000
 20
501.920000
 30
0.0
 10
309.920000
 20
506.800000
 30
0.0
  0
SPLINE
  5
273
100
AcDbEntity
  8
0
 62
7
100
AcDbSpline
 70
8
 71
3
 72
8
 73
4
 74
0
 40
0
 40
0
 40
0
 40
0
 40
1
 40
1
 40
1
 40
1
 10
309.920000
 20
506.800000
 30
0.0
 10
313.600000
 20
529.760000
 30
0.0
 10
315.760000
 20
548.720000
 30
0.0
 10
317.200000
 20
569.760000
 30
0.0
  0
SPLINE
  5
274
100
AcDbEntity
  8
0
 62
7
100
AcDbSpline
 70
8
 71
3
 72
8
 73
4
 74
0
 40
0
 40
0
 40
0
 40
0
 40
1
 40
1
 40
1
 40
1
 10
317.200000
 20
569.760000
 30
0.0
 10
319.280000
 20
600.800000
 30
0.0
 10
319.280000
 20
601.760000
 30
0.0
 10
320.240000
 20
624.480000
 30
0.0
  0
SPLINE
  5
275
100
AcDbEntity
  8
0
 62
7
100
AcDbSpline
 70
8
 71
3
 72
8
 73
4
 74
0
 40
0
 40
0
 40
0
 40
0
 40
1
 40
1
 40
1
 40
1
 10
320.240000
 20
624.480000
 30
0.0
 10
320.400000
 20
629.440000
 30
0.0
 10
320.720000
 20
633.600000
 30
0.0
 10
320.880000
 20
633.760000
 30
0.0
  0
SPLINE
  5
276
100
AcDbEntity
  8
0
 62
7
100
AcDbSpline
 70
8
 71
3
 72
8
 73
4
 74
0
 40
0
 40
0
 40
0
 40
0
 40
1
 40
1
 40
1
 40
1
 10
320.880000
 20
633.760000
 30
0.0
 10
321.040000
 20
633.920000
 30
0.0
 10
321.840000
 20
633.680000
 30
0.0
 10
322.640000
 20
633.200000
 30
0.0
  0
SPLINE
  5
277
100
AcDbEntity
  8
0
 62
7
100
AcDbSpline
 70
8
 71
3
 72
8
 73
4
 74
0
 40
0
 40
0
 40
0
 40
0
 40
1
 40
1
 40
1
 40
1
 10
322.640000
 20
633.200000
 30
0.0
 10
324.800000
 20
631.920000
 30
0.0
 10
334.160000
 20
627.680000
 30
0.0
 10
338.400000
 20
626.000000
 30
0.0
  0
SPLINE
  5
278
100
AcDbEntity
  8
0
 62
7
100
AcDbSpline
 70
8
 71
3
 72
8
 73
4
 74
0
 40
0
 40
0
 40
0
 40
0
 40
1
 40
1
 40
1
 40
1
 10
338.400000
 20
626.000000
 30
0.0
 10
351.280000
 20
621.120000
 30
0.0
 10
359.760000
 20
619.040000
 30
0.0
 10
367.680000
 20
619.040000
 30
0.0
  0
SPLINE
  5
279
100
AcDbEntity
  8
0
 62
7
100
AcDbSpline
 70
8
 71
3
 72
8
 73
4
 74
0
 40
0
 40
0
 40
0
 40
0
 40
1
 40
1
 40
1
 40
1
 10
367.680000
 20
619.040000
 30
0.0
 10
370.560000
 20
619.040000
 30
0.0
 10
372.800000
 20
618.880000
 30
0.0
 10
372.800000
 20
618.640000
 30
0.0
  0
SPLINE
  5
27a
100
AcDbEntity
  8
0
 62
7
100
AcDbSpline
 70
8
 71
3
 72
8
 73
4
 74
0
 40
0
 40
0
 40
0
 40
0
 40
1
 40
1
 40
1
 40
1
 10
372.800000
 20
618.640000
 30
0.0
 10
372.800000
 20
618.480000
 30
0.0
 10
370.320000
 20
612.640000
 30
0.0
 10
367.280000
 20
605.680000
 30
0.0
  0
SPLINE
  5
27b
100
AcDbEntity
  8
0
 62
7
100
AcDbSpline
 70
8
 71
3
 72
8
 73
4
 74
0
 40
0
 40
0
 40
0
 40
0
 40
1
 40
1
 40
1
 40
1
 10
367.280000
 20
605.680000
 30
0.0
 10
364.240000
 20
598.720000
 30
0.0
 10
358.560000
 20
585.680000
 30
0.0
 10
354.640000
 20
576.720000
 30
0.0
  0
SPLINE
  5
27c
100
AcDbEntity
  8
0
 62
7
100
AcDbSpline
 70
8
 71
3
 72
8
 73
4
 74
0
 40
0
 40
0
 40
0
 40
0
 40
1
 40
1
 40
1
 40
1
 10
354.640000
 20
576.720000
 30
0.0
 10
346.000000
 20
556.960000
 30
0.0
 10
341.680000
 20
547.440000
 30
0.0
 10
331.040000
 20
524.240000
 30
0.0
  0
SPLINE
  5
27d
100
AcDbEntity
  8
0
 62
7
100
AcDbSpline
 70
8
 71
3
 72
8
 73
4
 74
0
 40
0
 40
0
 40
0
 40
0
 40
1
 40
1
 40
1
 40
1
 10
331.040000
 20
524.240000
 30
0.0
 10
328.400000
 20
518.480000
 30
0.0
 10
325.040000
 20
511.200000
 30
0.0
 10
323.600000
 20
508.080000
 30
0.0
  0
SPLINE
  5
27e
100
AcDbEntity
  8
0
 62
7
100
AcDbSpline
 70
8
 71
3
 72
8
 73
4
 74
0
 40
0
 40
0
 40
0
 40
0
 40
1
 40
1
 40
1
 40
1
 10
323.600000
 20
508.080000
 30
0.0
 10
322.240000
 20
504.880000
 30
0.0
 10
320.320000
 20
500.880000
 30
0.0
 10
319.440000
 20
499.120000
 30
0.0
  0
SPLINE
  5
27f
100
AcDbEntity
  8
0
 62
7
100
AcDbSpline
 70
8
 71
3
 72
8
 73
4
 74
0
 40
0
 40
0
 40
0
 40
0
 40
1
 40
1
 40
1
 40
1
 10
319.440000
 20
499.120000
 30
0.0
 10
318.560000
 20
497.360000
 30
0.0
 10
316.640000
 20
493.040000
 30
0.0
 10
315.040000
 20
489.520000
 30
0.0
  0
LINE
  5
280
100
AcDbEntity
  8
0
 62
7
100
AcDbLine
 10
315.040000
 20
489.520000
 30
0.0
 11
312.240000
 21
483.120000
 31
0.0
  0
LINE
  5
281
100
AcDbEntity
  8
0
 62
7
100
AcDbLine
 10
312.240000
 20
483.120000
 30
0.0
 11
308.400000
 21
483.120000
 31
0.0
  0
SPLINE
  5
282
100
AcDbEntity
  8
0
 62
7
100
AcDbSpline
 70
8
 71
3
 72
8
 73
4
 74
0
 40
0
 40
0
 40
0
 40
0
 40
1
 40
1
 40
1
 40
1
 10
308.400000
 20
483.120000
 30
0.0
 10
306.320000
 20
483.120000
 30
0.0
 10
304.560000
 20
483.440000
 30
0.0
 10
304.560000
 20
483.840000
 30
0.0
  0
LINE
  5
283
100
AcDbEntity
  8
0
 62
7
100
AcDbLine
 10
304.560000
 20
483.840000
 30
0.0
 11
304.560000
 21
483.840000
 31
0.0
  0
SPLINE
  5
284
100
AcDbEntity
  8
0
 62
7
100
AcDbSpline
 70
8
 71
3
 72
8
 73
4
 74
0
 40
0
 40
0
 40
0
 40
0
 40
1
 40
1
 40
1
 40
1
 10
434.640000
 20
578.640000
 30
0.0
 10
428.880000
 20
583.680000
 30
0.0
 10
416.880000
 20
597.200000
 30
0.0
 10
411.200000
 20
604.960000
 30
0.0
  0
SPLINE
  5
285
100
AcDbEntity
  8
0
 62
7
100
AcDbSpline
 70
8
 71
3
 72
8
 73
4
 74
0
 40
0
 40
0
 40
0
 40
0
 40
1
 40
1
 40
1
 40
1
 10
411.200000
 20
604.960000
 30
0.0
 10
406.640000
 20
611.120000
 30
0.0
 10
396.560000
 20
627.040000
 30
0.0
 10
394.800000
 20
630.640000
 30
0.0
  0
LINE
  5
286
100
AcDbEntity
  8
0
 62
7
100
AcDbLine
 10
394.800000
 20
630.640000
 30
0.0
 11
393.520000
 21
633.440000
 31
0.0
  0
LINE
  5
287
100
AcDbEntity
  8
0
 62
7
100
AcDbLine
 10
393.520000
 20
633.440000
 30
0.0
 11
395.680000
 21
638.880000
 31
0.0
  0
SPLINE
  5
288
100
AcDbEntity
  8
0
 62
7
100
AcDbSpline
 70
8
 71
3
 72
8
 73
4
 74
0
 40
0
 40
0
 40
0
 40
0
 40
1
 40
1
 40
1
 40
1
 10
395.680000
 20
638.880000
 30
0.0
 10
396.880000
 20
641.840000
 30
0.0
 10
400.000000
 20
649.920000
 30
0.0
 10
402.640000
 20
656.720000
 30
0.0
  0
SPLINE
  5
289
100
AcDbEntity
  8
0
 62
7
100
AcDbSpline
 70
8
 71
3
 72
8
 73
4
 74
0
 40
0
 40
0
 40
0
 40
0
 40
1
 40
1
 40
1
 40
1
 10
402.640000
 20
656.720000
 30
0.0
 10
405.280000
 20
663.600000
 30
0.0
 10
408.000000
 20
670.640000
 30
0.0
 10
408.640000
 20
672.480000
 30
0.0
  0
SPLINE
  5
28a
100
AcDbEntity
  8
0
 62
7
100
AcDbSpline
 70
8
 71
3
 72
8
 73
4
 74
0
 40
0
 40
0
 40
0
 40
0
 40
1
 40
1
 40
1
 40
1
 10
408.640000
 20
672.480000
 30
0.0
 10
409.360000
 20
674.240000
 30
0.0
 10
409.920000
 20
675.920000
 30
0.0
 10
409.920000
 20
676.160000
 30
0.0
  0
SPLINE
  5
28b
100
AcDbEntity
  8
0
 62
7
100
AcDbSpline
 70
8
 71
3
 72
8
 73
4
 74
0
 40
0
 40
0
 40
0
 40
0
 40
1
 40
1
 40
1
 40
1
 10
409.920000
 20
676.160000
 30
0.0
 10
409.920000
 20
676.320000
 30
0.0
 10
410.880000
 20
678.880000
 30
0.0
 10
412.000000
 20
681.760000
 30
0.0
  0
SPLINE
  5
28c
100
AcDbEntity
  8
0
 62
7
100
AcDbSpline
 70
8
 71
3
 72
8
 73
4
 74
0
 40
0
 40
0
 40
0
 40
0
 40
1
 40
1
 40
1
 40
1
 10
412.000000
 20
681.760000
 30
0.0
 10
413.120000
 20
684.640000
 30
0.0
 10
414.320000
 20
687.760000
 30
0.0
 10
414.560000
 20
688.560000
 30
0.0
  0
SPLINE
  5
28d
100
AcDbEntity
  8
0
 62
7
100
AcDbSpline
 70
8
 71
3
 72
8
 73
4
 74
0
 40
0
 40
0
 40
0
 40
0
 40
1
 40
1
 40
1
 40
1
 10
414.560000
 20
688.560000
 30
0.0
 10
414.880000
 20
689.440000
 30
0.0
 10
415.760000
 20
691.840000
 30
0.0
 10
416.480000
 20
693.840000
 30
0.0
  0
SPLINE
  5
28e
100
AcDbEntity
  8
0
 62
7
100
AcDbSpline
 70
8
 71
3
 72
8
 73
4
 74
0
 40
0
 40
0
 40
0
 40
0
 40
1
 40
1
 40
1
 40
1
 10
416.480000
 20
693.840000
 30
0.0
 10
417.280000
 20
695.840000
 30
0.0
 10
417.920000
 20
697.680000
 30
0.0
 10
417.920000
 20
697.920000
 30
0.0
  0
SPLINE
  5
28f
100
AcDbEntity
  8
0
 62
7
100
AcDbSpline
 70
8
 71
3
 72
8
 73
4
 74
0
 40
0
 40
0
 40
0
 40
0
 40
1
 40
1
 40
1
 40
1
 10
417.920000
 20
697.920000
 30
0.0
 10
417.920000
 20
698.160000
 30
0.0
 10
418.560000
 20
700.000000
 30
0.0
 10
419.280000
 20
702.000000
 30
0.0
  0
SPLINE
  5
290
100
AcDbEntity
  8
0
 62
7
100
AcDbSpline
 70
8
 71
3
 72
8
 73
4
 74
0
 40
0
 40
0
 40
0
 40
0
 40
1
 40
1
 40
1
 40
1
 10
419.280000
 20
702.000000
 30
0.0
 10
420.080000
 20
704.000000
 30
0.0
 10
420.960000
 20
706.400000
 30
0.0
 10
421.200000
 20
707.280000
 30
0.0
  0
SPLINE
  5
291
100
AcDbEntity
  8
0
 62
7
100
AcDbSpline
 70
8
 71
3
 72
8
 73
4
 74
0
 40
0
 40
0
 40
0
 40
0
 40
1
 40
1
 40
1
 40
1
 10
421.200000
 20
707.280000
 30
0.0
 10
424.640000
 20
717.120000
 30
0.0
 10
426.560000
 20
722.000000
 30
0.0
 10
427.120000
 20
722.240000
 30
0.0
  0
SPLINE
  5
292
100
AcDbEntity
  8
0
 62
7
100
AcDbSpline
 70
8
 71
3
 72
8
 73
4
 74
0
 40
0
 40
0
 40
0
 40
0
 40
1
 40
1
 40
1
 40
1
 10
427.120000
 20
722.240000
 30
0.0
 10
427.520000
 20
722.400000
 30
0.0
 10
427.840000
 20
722.160000
 30
0.0
 10
427.840000
 20
721.760000
 30
0.0
  0
SPLINE
  5
293
100
AcDbEntity
  8
0
 62
7
100
AcDbSpline
 70
8
 71
3
 72
8
 73
4
 74
0
 40
0
 40
0
 40
0
 40
0
 40
1
 40
1
 40
1
 40
1
 10
427.840000
 20
721.760000
 30
0.0
 10
427.840000
 20
720.960000
 30
0.0
 10
437.840000
 20
703.360000
 30
0.0
 10
442.000000
 20
696.720000
 30
0.0
  0
SPLINE
  5
294
100
AcDbEntity
  8
0
 62
7
100
AcDbSpline
 70
8
 71
3
 72
8
 73
4
 74
0
 40
0
 40
0
 40
0
 40
0
 40
1
 40
1
 40
1
 40
1
 10
442.000000
 20
696.720000
 30
0.0
 10
449.600000
 20
684.800000
 30
0.0
 10
458.640000
 20
672.240000
 30
0.0
 10
464.560000
 20
665.280000
 30
0.0
  0
SPLINE
  5
295
100
AcDbEntity
  8
0
 62
7
100
AcDbSpline
 70
8
 71
3
 72
8
 73
4
 74
0
 40
0
 40
0
 40
0
 40
0
 40
1
 40
1
 40
1
 40
1
 10
464.560000
 20
665.280000
 30
0.0
 10
472.400000
 20
656.160000
 30
0.0
 10
473.120000
 20
655.440000
 30
0.0
 10
479.120000
 20
651.040000
 30
0.0
  0
SPLINE
  5
296
100
AcDbEntity
  8
0
 62
7
100
AcDbSpline
 70
8
 71
3
 72
8
 73
4
 74
0
 40
0
 40
0
 40
0
 40
0
 40
1
 40
1
 40
1
 40
1
 10
479.120000
 20
651.040000
 30
0.0
 10
484.560000
 20
647.040000
 30
0.0
 10
487.920000
 20
645.520000
 30
0.0
 10
492.800000
 20
644.800000
 30
0.0
  0
LINE
  5
297
100
AcDbEntity
  8
0
 62
7
100
AcDbLine
 10
492.800000
 20
644.800000
 30
0.0
 11
496.400000
 21
644.320000
 31
0.0
  0
LINE
  5
298
100
AcDbEntity
  8
0
 62
7
100
AcDbLine
 10
496.400000
 20
644.320000
 30
0.0
 11
497.840000
 21
636.160000
 31
0.0
  0
SPLINE
  5
299
100
AcDbEntity
  8
0
 62
7
100
AcDbSpline
 70
8
 71
3
 72
8
 73
4
 74
0
 40
0
 40
0
 40
0
 40
0
 40
1
 40
1
 40
1
 40
1
 10
497.840000
 20
636.160000
 30
0.0
 10
498.560000
 20
631.680000
 30
0.0
 10
499.120000
 20
627.680000
 30
0.0
 10
498.960000
 20
627.200000
 30
0.0
  0
SPLINE
  5
29a
100
AcDbEntity
  8
0
 62
7
100
AcDbSpline
 70
8
 71
3
 72
8
 73
4
 74
0
 40
0
 40
0
 40
0
 40
0
 40
1
 40
1
 40
1
 40
1
 10
498.960000
 20
627.200000
 30
0.0
 10
498.800000
 20
626.800000
 30
0.0
 10
497.040000
 20
624.960000
 30
0.0
 10
494.880000
 20
623.200000
 30
0.0
  0
SPLINE
  5
29b
100
AcDbEntity
  8
0
 62
7
100
AcDbSpline
 70
8
 71
3
 72
8
 73
4
 74
0
 40
0
 40
0
 40
0
 40
0
 40
1
 40
1
 40
1
 40
1
 10
494.880000
 20
623.200000
 30
0.0
 10
491.760000
 20
620.480000
 30
0.0
 10
482.320000
 20
612.000000
 30
0.0
 10
478.880000
 20
608.720000
 30
0.0
  0
SPLINE
  5
29c
100
AcDbEntity
  8
0
 62
7
100
AcDbSpline
 70
8
 71
3
 72
8
 73
4
 74
0
 40
0
 40
0
 40
0
 40
0
 40
1
 40
1
 40
1
 40
1
 10
478.880000
 20
608.720000
 30
0.0
 10
476.320000
 20
606.320000
 30
0.0
 10
465.680000
 20
596.640000
 30
0.0
 10
463.280000
 20
594.640000
 30
0.0
  0
SPLINE
  5
29d
100
AcDbEntity
  8
0
 62
7
100
AcDbSpline
 70
8
 71
3
 72
8
 73
4
 74
0
 40
0
 40
0
 40
0
 40
0
 40
1
 40
1
 40
1
 40
1
 10
463.280000
 20
594.640000
 30
0.0
 10
461.840000
 20
593.360000
 30
0.0
 10
460.320000
 20
591.920000
 30
0.0
 10
459.920000
 20
591.520000
 30
0.0
  0
SPLINE
  5
29e
100
AcDbEntity
  8
0
 62
7
100
AcDbSpline
 70
8
 71
3
 72
8
 73
4
 74
0
 40
0
 40
0
 40
0
 40
0
 40
1
 40
1
 40
1
 40
1
 10
459.920000
 20
591.520000
 30
0.0
 10
459.520000
 20
591.040000
 30
0.0
 10
456.800000
 20
588.560000
 30
0.0
 10
453.920000
 20
586.000000
 30
0.0
  0
SPLINE
  5
29f
100
AcDbEntity
  8
0
 62
7
100
AcDbSpline
 70
8
 71
3
 72
8
 73
4
 74
0
 40
0
 40
0
 40
0
 40
0
 40
1
 40
1
 40
1
 40
1
 10
453.920000
 20
586.000000
 30
0.0
 10
451.040000
 20
583.440000
 30
0.0
 10
448.560000
 20
581.200000
 30
0.0
 10
448.400000
 20
580.960000
 30
0.0
  0
SPLINE
  5
2a0
100
AcDbEntity
  8
0
 62
7
100
AcDbSpline
 70
8
 71
3
 72
8
 73
4
 74
0
 40
0
 40
0
 40
0
 40
0
 40
1
 40
1
 40
1
 40
1
 10
448.400000
 20
580.960000
 30
0.0
 10
447.680000
 20
580.000000
 30
0.0
 10
440.640000
 20
574.000000
 30
0.0
 10
440.240000
 20
574.000000
 30
0.0
  0
SPLINE
  5
2a1
100
AcDbEntity
  8
0
 62
7
100
AcDbSpline
 70
8
 71
3
 72
8
 73
4
 74
0
 40
0
 40
0
 40
0
 40
0
 40
1
 40
1
 40
1
 40
1
 10
440.240000
 20
574.000000
 30
0.0
 10
440.000000
 20
574.000000
 30
0.0
 10
437.520000
 20
576.080000
 30
0.0
 10
434.640000
 20
578.640000
 30
0.0
  0
LINE
  5
2a2
100
AcDbEntity
  8
0
 62
7
100
AcDbLine
 10
434.640000
 20
578.640000
 30
0.0
 11
434.640000
 21
578.640000
 31
0.0
  0
SPLINE
  5
2a3
100
AcDbEntity
  8
0
 62
7
100
AcDbSpline
 70
8
 71
3
 72
8
 73
4
 74
0
 40
0
 40
0
 40
0
 40
0
 40
1
 40
1
 40
1
 40
1
 10
148.320000
 20
616.240000
 30
0.0
 10
135.280000
 20
631.360000
 30
0.0
 10
121.120000
 20
647.760000
 30
0.0
 10
116.800000
 20
652.720000
 30
0.0
  0
SPLINE
  5
2a4
100
AcDbEntity
  8
0
 62
7
100
AcDbSpline
 70
8
 71
3
 72
8
 73
4
 74
0
 40
0
 40
0
 40
0
 40
0
 40
1
 40
1
 40
1
 40
1
 10
116.800000
 20
652.720000
 30
0.0
 10
112.480000
 20
657.680000
 30
0.0
 10
109.120000
 20
662.080000
 30
0.0
 10
109.360000
 20
662.480000
 30
0.0
  0
SPLINE
  5
2a5
100
AcDbEntity
  8
0
 62
7
100
AcDbSpline
 70
8
 71
3
 72
8
 73
4
 74
0
 40
0
 40
0
 40
0
 40
0
 40
1
 40
1
 40
1
 40
1
 10
109.360000
 20
662.480000
 30
0.0
 10
109.600000
 20
662.880000
 30
0.0
 10
112.240000
 20
665.200000
 30
0.0
 10
115.200000
 20
667.680000
 30
0.0
  0
SPLINE
  5
2a6
100
AcDbEntity
  8
0
 62
7
100
AcDbSpline
 70
8
 71
3
 72
8
 73
4
 74
0
 40
0
 40
0
 40
0
 40
0
 40
1
 40
1
 40
1
 40
1
 10
115.200000
 20
667.680000
 30
0.0
 10
118.240000
 20
670.160000
 30
0.0
 10
121.440000
 20
672.880000
 30
0.0
 10
122.400000
 20
673.760000
 30
0.0
  0
SPLINE
  5
2a7
100
AcDbEntity
  8
0
 62
7
100
AcDbSpline
 70
8
 71
3
 72
8
 73
4
 74
0
 40
0
 40
0
 40
0
 40
0
 40
1
 40
1
 40
1
 40
1
 10
122.400000
 20
673.760000
 30
0.0
 10
123.360000
 20
674.640000
 30
0.0
 10
125.200000
 20
676.240000
 30
0.0
 10
126.400000
 20
677.360000
 30
0.0
  0
SPLINE
  5
2a8
100
AcDbEntity
  8
0
 62
7
100
AcDbSpline
 70
8
 71
3
 72
8
 73
4
 74
0
 40
0
 40
0
 40
0
 40
0
 40
1
 40
1
 40
1
 40
1
 10
126.400000
 20
677.360000
 30
0.0
 10
138.320000
 20
687.840000
 30
0.0
 10
152.640000
 20
704.000000
 30
0.0
 10
160.080000
 20
715.200000
 30
0.0
  0
SPLINE
  5
2a9
100
AcDbEntity
  8
0
 62
7
100
AcDbSpline
 70
8
 71
3
 72
8
 73
4
 74
0
 40
0
 40
0
 40
0
 40
0
 40
1
 40
1
 40
1
 40
1
 10
160.080000
 20
715.200000
 30
0.0
 10
162.400000
 20
718.720000
 30
0.0
 10
164.480000
 20
721.600000
 30
0.0
 10
164.640000
 20
721.600000
 30
0.0
  0
SPLINE
  5
2aa
100
AcDbEntity
  8
0
 62
7
100
AcDbSpline
 70
8
 71
3
 72
8
 73
4
 74
0
 40
0
 40
0
 40
0
 40
0
 40
1
 40
1
 40
1
 40
1
 10
164.640000
 20
721.600000
 30
0.0
 10
164.880000
 20
721.600000
 30
0.0
 10
166.800000
 20
716.480000
 30
0.0
 10
168.960000
 20
710.160000
 30
0.0
  0
SPLINE
  5
2ab
100
AcDbEntity
  8
0
 62
7
100
AcDbSpline
 70
8
 71
3
 72
8
 73
4
 74
0
 40
0
 40
0
 40
0
 40
0
 40
1
 40
1
 40
1
 40
1
 10
168.960000
 20
710.160000
 30
0.0
 10
171.120000
 20
703.840000
 30
0.0
 10
173.680000
 20
696.800000
 30
0.0
 10
174.560000
 20
694.400000
 30
0.0
  0
SPLINE
  5
2ac
100
AcDbEntity
  8
0
 62
7
100
AcDbSpline
 70
8
 71
3
 72
8
 73
4
 74
0
 40
0
 40
0
 40
0
 40
0
 40
1
 40
1
 40
1
 40
1
 10
174.560000
 20
694.400000
 30
0.0
 10
176.560000
 20
688.960000
 30
0.0
 10
178.000000
 20
685.120000
 30
0.0
 10
178.640000
 20
683.120000
 30
0.0
  0
SPLINE
  5
2ad
100
AcDbEntity
  8
0
 62
7
100
AcDbSpline
 70
8
 71
3
 72
8
 73
4
 74
0
 40
0
 40
0
 40
0
 40
0
 40
1
 40
1
 40
1
 40
1
 10
178.640000
 20
683.120000
 30
0.0
 10
178.880000
 20
682.320000
 30
0.0
 10
179.840000
 20
679.840000
 30
0.0
 10
180.640000
 20
677.680000
 30
0.0
  0
SPLINE
  5
2ae
100
AcDbEntity
  8
0
 62
7
100
AcDbSpline
 70
8
 71
3
 72
8
 73
4
 74
0
 40
0
 40
0
 40
0
 40
0
 40
1
 40
1
 40
1
 40
1
 10
180.640000
 20
677.680000
 30
0.0
 10
181.440000
 20
675.600000
 30
0.0
 10
182.400000
 20
673.120000
 30
0.0
 10
182.640000
 20
672.240000
 30
0.0
  0
SPLINE
  5
2af
100
AcDbEntity
  8
0
 62
7
100
AcDbSpline
 70
8
 71
3
 72
8
 73
4
 74
0
 40
0
 40
0
 40
0
 40
0
 40
1
 40
1
 40
1
 40
1
 10
182.640000
 20
672.240000
 30
0.0
 10
182.960000
 20
671.440000
 30
0.0
 10
183.920000
 20
668.800000
 30
0.0
 10
184.800000
 20
666.480000
 30
0.0
  0
SPLINE
  5
2b0
100
AcDbEntity
  8
0
 62
7
100
AcDbSpline
 70
8
 71
3
 72
8
 73
4
 74
0
 40
0
 40
0
 40
0
 40
0
 40
1
 40
1
 40
1
 40
1
 10
184.800000
 20
666.480000
 30
0.0
 10
185.680000
 20
664.080000
 30
0.0
 10
186.960000
 20
660.960000
 30
0.0
 10
187.520000
 20
659.440000
 30
0.0
  0
SPLINE
  5
2b1
100
AcDbEntity
  8
0
 62
7
100
AcDbSpline
 70
8
 71
3
 72
8
 73
4
 74
0
 40
0
 40
0
 40
0
 40
0
 40
1
 40
1
 40
1
 40
1
 10
187.520000
 20
659.440000
 30
0.0
 10
188.080000
 20
658.000000
 30
0.0
 10
189.680000
 20
653.680000
 30
0.0
 10
191.200000
 20
649.840000
 30
0.0
  0
SPLINE
  5
2b2
100
AcDbEntity
  8
0
 62
7
100
AcDbSpline
 70
8
 71
3
 72
8
 73
4
 74
0
 40
0
 40
0
 40
0
 40
0
 40
1
 40
1
 40
1
 40
1
 10
191.200000
 20
649.840000
 30
0.0
 10
192.720000
 20
646.080000
 30
0.0
 10
193.920000
 20
642.880000
 30
0.0
 10
193.920000
 20
642.720000
 30
0.0
  0
SPLINE
  5
2b3
100
AcDbEntity
  8
0
 62
7
100
AcDbSpline
 70
8
 71
3
 72
8
 73
4
 74
0
 40
0
 40
0
 40
0
 40
0
 40
1
 40
1
 40
1
 40
1
 10
193.920000
 20
642.720000
 30
0.0
 10
193.920000
 20
642.560000
 30
0.0
 10
195.680000
 20
638.000000
 30
0.0
 10
197.920000
 20
632.560000
 30
0.0
  0
SPLINE
  5
2b4
100
AcDbEntity
  8
0
 62
7
100
AcDbSpline
 70
8
 71
3
 72
8
 73
4
 74
0
 40
0
 40
0
 40
0
 40
0
 40
1
 40
1
 40
1
 40
1
 10
197.920000
 20
632.560000
 30
0.0
 10
200.160000
 20
626.960000
 30
0.0
 10
201.680000
 20
622.160000
 30
0.0
 10
201.520000
 20
621.360000
 30
0.0
  0
SPLINE
  5
2b5
100
AcDbEntity
  8
0
 62
7
100
AcDbSpline
 70
8
 71
3
 72
8
 73
4
 74
0
 40
0
 40
0
 40
0
 40
0
 40
1
 40
1
 40
1
 40
1
 10
201.520000
 20
621.360000
 30
0.0
 10
200.960000
 20
619.360000
 30
0.0
 10
174.240000
 20
588.800000
 30
0.0
 10
173.040000
 20
588.800000
 30
0.0
  0
SPLINE
  5
2b6
100
AcDbEntity
  8
0
 62
7
100
AcDbSpline
 70
8
 71
3
 72
8
 73
4
 74
0
 40
0
 40
0
 40
0
 40
0
 40
1
 40
1
 40
1
 40
1
 10
173.040000
 20
588.800000
 30
0.0
 10
172.400000
 20
588.800000
 30
0.0
 10
161.280000
 20
601.120000
 30
0.0
 10
148.320000
 20
616.240000
 30
0.0
  0
LINE
  5
2b7
100
AcDbEntity
  8
0
 62
7
100
AcDbLine
 10
148.320000
 20
616.240000
 30
0.0
 11
148.320000
 21
616.240000
 31
0.0
  0
SPLINE
  5
2b8
100
AcDbEntity
  8
0
 62
7
100
AcDbSpline
 70
8
 71
3
 72
8
 73
4
 74
0
 40
0
 40
0
 40
0
 40
0
 40
1
 40
1
 40
1
 40
1
 10
219.440000
 20
633.120000
 30
0.0
 10
216.160000
 20
633.280000
 30
0.0
 10
212.960000
 20
633.760000
 30
0.0
 10
212.480000
 20
634.080000
 30
0.0
  0
SPLINE
  5
2b9
100
AcDbEntity
  8
0
 62
7
100
AcDbSpline
 70
8
 71
3
 72
8
 73
4
 74
0
 40
0
 40
0
 40
0
 40
0
 40
1
 40
1
 40
1
 40
1
 10
212.480000
 20
634.080000
 30
0.0
 10
211.920000
 20
634.400000
 30
0.0
 10
210.480000
 20
637.040000
 30
0.0
 10
209.360000
 20
639.840000
 30
0.0
  0
SPLINE
  5
2ba
100
AcDbEntity
  8
0
 62
7
100
AcDbSpline
 70
8
 71
3
 72
8
 73
4
 74
0
 40
0
 40
0
 40
0
 40
0
 40
1
 40
1
 40
1
 40
1
 10
209.360000
 20
639.840000
 30
0.0
 10
208.160000
 20
642.720000
 30
0.0
 10
204.800000
 20
650.960000
 30
0.0
 10
201.920000
 20
658.160000
 30
0.0
  0
SPLINE
  5
2bb
100
AcDbEntity
  8
0
 62
7
100
AcDbSpline
 70
8
 71
3
 72
8
 73
4
 74
0
 40
0
 40
0
 40
0
 40
0
 40
1
 40
1
 40
1
 40
1
 10
201.920000
 20
658.160000
 30
0.0
 10
198.960000
 20
665.360000
 30
0.0
 10
196.560000
 20
671.280000
 30
0.0
 10
196.560000
 20
671.440000
 30
0.0
  0
SPLINE
  5
2bc
100
AcDbEntity
  8
0
 62
7
100
AcDbSpline
 70
8
 71
3
 72
8
 73
4
 74
0
 40
0
 40
0
 40
0
 40
0
 40
1
 40
1
 40
1
 40
1
 10
196.560000
 20
671.440000
 30
0.0
 10
196.560000
 20
671.600000
 30
0.0
 10
195.120000
 20
675.360000
 30
0.0
 10
193.280000
 20
679.760000
 30
0.0
  0
SPLINE
  5
2bd
100
AcDbEntity
  8
0
 62
7
100
AcDbSpline
 70
8
 71
3
 72
8
 73
4
 74
0
 40
0
 40
0
 40
0
 40
0
 40
1
 40
1
 40
1
 40
1
 10
193.280000
 20
679.760000
 30
0.0
 10
191.520000
 20
684.160000
 30
0.0
 10
189.440000
 20
689.440000
 30
0.0
 10
188.640000
 20
691.520000
 30
0.0
  0
SPLINE
  5
2be
100
AcDbEntity
  8
0
 62
7
100
AcDbSpline
 70
8
 71
3
 72
8
 73
4
 74
0
 40
0
 40
0
 40
0
 40
0
 40
1
 40
1
 40
1
 40
1
 10
188.640000
 20
691.520000
 30
0.0
 10
186.480000
 20
697.280000
 30
0.0
 10
184.560000
 20
702.320000
 30
0.0
 10
183.600000
 20
704.880000
 30
0.0
  0
SPLINE
  5
2bf
100
AcDbEntity
  8
0
 62
7
100
AcDbSpline
 70
8
 71
3
 72
8
 73
4
 74
0
 40
0
 40
0
 40
0
 40
0
 40
1
 40
1
 40
1
 40
1
 10
183.600000
 20
704.880000
 30
0.0
 10
183.200000
 20
706.160000
 30
0.0
 10
182.160000
 20
708.880000
 30
0.0
 10
181.360000
 20
710.960000
 30
0.0
  0
SPLINE
  5
2c0
100
AcDbEntity
  8
0
 62
7
100
AcDbSpline
 70
8
 71
3
 72
8
 73
4
 74
0
 40
0
 40
0
 40
0
 40
0
 40
1
 40
1
 40
1
 40
1
 10
181.360000
 20
710.960000
 30
0.0
 10
180.640000
 20
712.960000
 30
0.0
 10
180.000000
 20
714.800000
 30
0.0
 10
180.000000
 20
715.040000
 30
0.0
  0
SPLINE
  5
2c1
100
AcDbEntity
  8
0
 62
7
100
AcDbSpline
 70
8
 71
3
 72
8
 73
4
 74
0
 40
0
 40
0
 40
0
 40
0
 40
1
 40
1
 40
1
 40
1
 10
180.000000
 20
715.040000
 30
0.0
 10
180.000000
 20
715.200000
 30
0.0
 10
179.440000
 20
716.880000
 30
0.0
 10
178.720000
 20
718.720000
 30
0.0
  0
SPLINE
  5
2c2
100
AcDbEntity
  8
0
 62
7
100
AcDbSpline
 70
8
 71
3
 72
8
 73
4
 74
0
 40
0
 40
0
 40
0
 40
0
 40
1
 40
1
 40
1
 40
1
 10
178.720000
 20
718.720000
 30
0.0
 10
176.480000
 20
724.640000
 30
0.0
 10
176.400000
 20
724.480000
 30
0.0
 10
179.840000
 20
725.040000
 30
0.0
  0
SPLINE
  5
2c3
100
AcDbEntity
  8
0
 62
7
100
AcDbSpline
 70
8
 71
3
 72
8
 73
4
 74
0
 40
0
 40
0
 40
0
 40
0
 40
1
 40
1
 40
1
 40
1
 10
179.840000
 20
725.040000
 30
0.0
 10
189.280000
 20
726.560000
 30
0.0
 10
214.240000
 20
731.520000
 30
0.0
 10
222.080000
 20
733.360000
 30
0.0
  0
SPLINE
  5
2c4
100
AcDbEntity
  8
0
 62
7
100
AcDbSpline
 70
8
 71
3
 72
8
 73
4
 74
0
 40
0
 40
0
 40
0
 40
0
 40
1
 40
1
 40
1
 40
1
 10
222.080000
 20
733.360000
 30
0.0
 10
244.720000
 20
738.800000
 30
0.0
 10
271.120000
 20
747.280000
 30
0.0
 10
280.080000
 20
752.000000
 30
0.0
  0
SPLINE
  5
2c5
100
AcDbEntity
  8
0
 62
7
100
AcDbSpline
 70
8
 71
3
 72
8
 73
4
 74
0
 40
0
 40
0
 40
0
 40
0
 40
1
 40
1
 40
1
 40
1
 10
280.080000
 20
752.000000
 30
0.0
 10
280.960000
 20
752.480000
 30
0.0
 10
282.320000
 20
753.200000
 30
0.0
 10
283.040000
 20
753.520000
 30
0.0
  0
SPLINE
  5
2c6
100
AcDbEntity
  8
0
 62
7
100
AcDbSpline
 70
8
 71
3
 72
8
 73
4
 74
0
 40
0
 40
0
 40
0
 40
0
 40
1
 40
1
 40
1
 40
1
 10
283.040000
 20
753.520000
 30
0.0
 10
286.160000
 20
754.880000
 30
0.0
 10
297.760000
 20
761.600000
 30
0.0
 10
300.080000
 20
763.280000
 30
0.0
  0
SPLINE
  5
2c7
100
AcDbEntity
  8
0
 62
7
100
AcDbSpline
 70
8
 71
3
 72
8
 73
4
 74
0
 40
0
 40
0
 40
0
 40
0
 40
1
 40
1
 40
1
 40
1
 10
300.080000
 20
763.280000
 30
0.0
 10
301.440000
 20
764.320000
 30
0.0
 10
302.800000
 20
765.120000
 30
0.0
 10
303.120000
 20
765.120000
 30
0.0
  0
SPLINE
  5
2c8
100
AcDbEntity
  8
0
 62
7
100
AcDbSpline
 70
8
 71
3
 72
8
 73
4
 74
0
 40
0
 40
0
 40
0
 40
0
 40
1
 40
1
 40
1
 40
1
 10
303.120000
 20
765.120000
 30
0.0
 10
304.720000
 20
765.120000
 30
0.0
 10
307.840000
 20
707.440000
 30
0.0
 10
307.840000
 20
679.200000
 30
0.0
  0
LINE
  5
2c9
100
AcDbEntity
  8
0
 62
7
100
AcDbLine
 10
307.840000
 20
679.200000
 30
0.0
 11
307.920000
 21
665.120000
 31
0.0
  0
LINE
  5
2ca
100
AcDbEntity
  8
0
 62
7
100
AcDbLine
 10
307.920000
 20
665.120000
 30
0.0
 11
305.760000
 21
663.200000
 31
0.0
  0
SPLINE
  5
2cb
100
AcDbEntity
  8
0
 62
7
100
AcDbSpline
 70
8
 71
3
 72
8
 73
4
 74
0
 40
0
 40
0
 40
0
 40
0
 40
1
 40
1
 40
1
 40
1
 10
305.760000
 20
663.200000
 30
0.0
 10
299.600000
 20
657.840000
 30
0.0
 10
280.160000
 20
645.440000
 30
0.0
 10
277.920000
 20
645.440000
 30
0.0
  0
SPLINE
  5
2cc
100
AcDbEntity
  8
0
 62
7
100
AcDbSpline
 70
8
 71
3
 72
8
 73
4
 74
0
 40
0
 40
0
 40
0
 40
0
 40
1
 40
1
 40
1
 40
1
 10
277.920000
 20
645.440000
 30
0.0
 10
277.440000
 20
645.440000
 30
0.0
 10
276.720000
 20
645.120000
 30
0.0
 10
276.400000
 20
644.720000
 30
0.0
  0
SPLINE
  5
2cd
100
AcDbEntity
  8
0
 62
7
100
AcDbSpline
 70
8
 71
3
 72
8
 73
4
 74
0
 40
0
 40
0
 40
0
 40
0
 40
1
 40
1
 40
1
 40
1
 10
276.400000
 20
644.720000
 30
0.0
 10
275.440000
 20
643.680000
 30
0.0
 10
262.640000
 20
638.800000
 30
0.0
 10
256.160000
 20
636.960000
 30
0.0
  0
SPLINE
  5
2ce
100
AcDbEntity
  8
0
 62
7
100
AcDbSpline
 70
8
 71
3
 72
8
 73
4
 74
0
 40
0
 40
0
 40
0
 40
0
 40
1
 40
1
 40
1
 40
1
 10
256.160000
 20
636.960000
 30
0.0
 10
243.440000
 20
633.520000
 30
0.0
 10
231.520000
 20
632.240000
 30
0.0
 10
219.440000
 20
633.120000
 30
0.0
  0
LINE
  5
2cf
100
AcDbEntity
  8
0
 62
7
100
AcDbLine
 10
219.440000
 20
633.120000
 30
0.0
 11
219.440000
 21
633.120000
 31
0.0
  0
SPLINE
  5
2d0
100
AcDbEntity
  8
0
 62
7
100
AcDbSpline
 70
8
 71
3
 72
8
 73
4
 74
0
 40
0
 40
0
 40
0
 40
0
 40
1
 40
1
 40
1
 40
1
 10
363.520000
 20
636.960000
 30
0.0
 10
355.280000
 20
638.240000
 30
0.0
 10
342.240000
 20
642.240000
 30
0.0
 10
336.720000
 20
645.120000
 30
0.0
  0
SPLINE
  5
2d1
100
AcDbEntity
  8
0
 62
7
100
AcDbSpline
 70
8
 71
3
 72
8
 73
4
 74
0
 40
0
 40
0
 40
0
 40
0
 40
1
 40
1
 40
1
 40
1
 10
336.720000
 20
645.120000
 30
0.0
 10
335.600000
 20
645.680000
 30
0.0
 10
333.280000
 20
646.880000
 30
0.0
 10
331.600000
 20
647.680000
 30
0.0
  0
SPLINE
  5
2d2
100
AcDbEntity
  8
0
 62
7
100
AcDbSpline
 70
8
 71
3
 72
8
 73
4
 74
0
 40
0
 40
0
 40
0
 40
0
 40
1
 40
1
 40
1
 40
1
 10
331.600000
 20
647.680000
 30
0.0
 10
329.840000
 20
648.560000
 30
0.0
 10
326.880000
 20
650.480000
 30
0.0
 10
324.960000
 20
651.920000
 30
0.0
  0
LINE
  5
2d3
100
AcDbEntity
  8
0
 62
7
100
AcDbLine
 10
324.960000
 20
651.920000
 30
0.0
 11
321.440000
 21
654.560000
 31
0.0
  0
LINE
  5
2d4
100
AcDbEntity
  8
0
 62
7
100
AcDbLine
 10
321.440000
 20
654.560000
 30
0.0
 11
321.520000
 21
707.920000
 31
0.0
  0
SPLINE
  5
2d5
100
AcDbEntity
  8
0
 62
7
100
AcDbSpline
 70
8
 71
3
 72
8
 73
4
 74
0
 40
0
 40
0
 40
0
 40
0
 40
1
 40
1
 40
1
 40
1
 10
321.520000
 20
707.920000
 30
0.0
 10
321.600000
 20
737.280000
 30
0.0
 10
321.760000
 20
761.520000
 30
0.0
 10
322.000000
 20
761.680000
 30
0.0
  0
SPLINE
  5
2d6
100
AcDbEntity
  8
0
 62
7
100
AcDbSpline
 70
8
 71
3
 72
8
 73
4
 74
0
 40
0
 40
0
 40
0
 40
0
 40
1
 40
1
 40
1
 40
1
 10
322.000000
 20
761.680000
 30
0.0
 10
322.240000
 20
762.000000
 30
0.0
 10
325.200000
 20
760.800000
 30
0.0
 10
329.440000
 20
758.560000
 30
0.0
  0
SPLINE
  5
2d7
100
AcDbEntity
  8
0
 62
7
100
AcDbSpline
 70
8
 71
3
 72
8
 73
4
 74
0
 40
0
 40
0
 40
0
 40
0
 40
1
 40
1
 40
1
 40
1
 10
329.440000
 20
758.560000
 30
0.0
 10
333.360000
 20
756.400000
 30
0.0
 10
349.840000
 20
749.600000
 30
0.0
 10
359.920000
 20
746.000000
 30
0.0
  0
SPLINE
  5
2d8
100
AcDbEntity
  8
0
 62
7
100
AcDbSpline
 70
8
 71
3
 72
8
 73
4
 74
0
 40
0
 40
0
 40
0
 40
0
 40
1
 40
1
 40
1
 40
1
 10
359.920000
 20
746.000000
 30
0.0
 10
381.440000
 20
738.160000
 30
0.0
 10
401.920000
 20
734.400000
 30
0.0
 10
412.960000
 20
736.160000
 30
0.0
  0
SPLINE
  5
2d9
100
AcDbEntity
  8
0
 62
7
100
AcDbSpline
 70
8
 71
3
 72
8
 73
4
 74
0
 40
0
 40
0
 40
0
 40
0
 40
1
 40
1
 40
1
 40
1
 10
412.960000
 20
736.160000
 30
0.0
 10
415.840000
 20
736.640000
 30
0.0
 10
418.320000
 20
736.880000
 30
0.0
 10
418.480000
 20
736.720000
 30
0.0
  0
SPLINE
  5
2da
100
AcDbEntity
  8
0
 62
7
100
AcDbSpline
 70
8
 71
3
 72
8
 73
4
 74
0
 40
0
 40
0
 40
0
 40
0
 40
1
 40
1
 40
1
 40
1
 10
418.480000
 20
736.720000
 30
0.0
 10
418.720000
 20
736.480000
 30
0.0
 10
415.360000
 20
726.320000
 30
0.0
 10
412.800000
 20
719.280000
 30
0.0
  0
SPLINE
  5
2db
100
AcDbEntity
  8
0
 62
7
100
AcDbSpline
 70
8
 71
3
 72
8
 73
4
 74
0
 40
0
 40
0
 40
0
 40
0
 40
1
 40
1
 40
1
 40
1
 10
412.800000
 20
719.280000
 30
0.0
 10
412.240000
 20
717.760000
 30
0.0
 10
411.600000
 20
715.840000
 30
0.0
 10
411.280000
 20
715.040000
 30
0.0
  0
SPLINE
  5
2dc
100
AcDbEntity
  8
0
 62
7
100
AcDbSpline
 70
8
 71
3
 72
8
 73
4
 74
0
 40
0
 40
0
 40
0
 40
0
 40
1
 40
1
 40
1
 40
1
 10
411.280000
 20
715.040000
 30
0.0
 10
411.040000
 20
714.160000
 30
0.0
 10
410.160000
 20
711.920000
 30
0.0
 10
409.440000
 20
710.000000
 30
0.0
  0
SPLINE
  5
2dd
100
AcDbEntity
  8
0
 62
7
100
AcDbSpline
 70
8
 71
3
 72
8
 73
4
 74
0
 40
0
 40
0
 40
0
 40
0
 40
1
 40
1
 40
1
 40
1
 10
409.440000
 20
710.000000
 30
0.0
 10
408.640000
 20
708.000000
 30
0.0
 10
405.520000
 20
699.840000
 30
0.0
 10
402.400000
 20
691.680000
 30
0.0
  0
SPLINE
  5
2de
100
AcDbEntity
  8
0
 62
7
100
AcDbSpline
 70
8
 71
3
 72
8
 73
4
 74
0
 40
0
 40
0
 40
0
 40
0
 40
1
 40
1
 40
1
 40
1
 10
402.400000
 20
691.680000
 30
0.0
 10
396.800000
 20
676.800000
 30
0.0
 10
394.240000
 20
670.400000
 30
0.0
 10
386.400000
 20
651.040000
 30
0.0
  0
SPLINE
  5
2df
100
AcDbEntity
  8
0
 62
7
100
AcDbSpline
 70
8
 71
3
 72
8
 73
4
 74
0
 40
0
 40
0
 40
0
 40
0
 40
1
 40
1
 40
1
 40
1
 10
386.400000
 20
651.040000
 30
0.0
 10
379.840000
 20
634.880000
 30
0.0
 10
381.200000
 20
636.560000
 30
0.0
 10
374.000000
 20
636.400000
 30
0.0
  0
SPLINE
  5
2e0
100
AcDbEntity
  8
0
 62
7
100
AcDbSpline
 70
8
 71
3
 72
8
 73
4
 74
0
 40
0
 40
0
 40
0
 40
0
 40
1
 40
1
 40
1
 40
1
 10
374.000000
 20
636.400000
 30
0.0
 10
370.640000
 20
636.400000
 30
0.0
 10
365.920000
 20
636.640000
 30
0.0
 10
363.520000
 20
636.960000
 30
0.0
  0
LINE
  5
2e1
100
AcDbEntity
  8
0
 62
7
100
AcDbLine
 10
363.520000
 20
636.960000
 30
0.0
 11
363.520000
 21
636.960000
 31
0.0
  0
SPLINE
  5
2e2
100
AcDbEntity
  8
0
 62
7
100
AcDbSpline
 70
8
 71
3
 72
8
 73
4
 74
0
 40
0
 40
0
 40
0
 40
0
 40
1
 40
1
 40
1
 40
1
 10
490.480000
 20
656.080000
 30
0.0
 10
475.760000
 20
671.760000
 30
0.0
 10
464.560000
 20
687.280000
 30
0.0
 10
456.720000
 20
703.040000
 30
0.0
  0
SPLINE
  5
2e3
100
AcDbEntity
  8
0
 62
7
100
AcDbSpline
 70
8
 71
3
 72
8
 73
4
 74
0
 40
0
 40
0
 40
0
 40
0
 40
1
 40
1
 40
1
 40
1
 10
456.720000
 20
703.040000
 30
0.0
 10
455.040000
 20
706.400000
 30
0.0
 10
447.760000
 20
723.600000
 30
0.0
 10
445.360000
 20
729.760000
 30
0.0
  0
SPLINE
  5
2e4
100
AcDbEntity
  8
0
 62
7
100
AcDbSpline
 70
8
 71
3
 72
8
 73
4
 74
0
 40
0
 40
0
 40
0
 40
0
 40
1
 40
1
 40
1
 40
1
 10
445.360000
 20
729.760000
 30
0.0
 10
444.080000
 20
733.120000
 30
0.0
 10
438.480000
 20
753.200000
 30
0.0
 10
438.480000
 20
754.320000
 30
0.0
  0
SPLINE
  5
2e5
100
AcDbEntity
  8
0
 62
7
100
AcDbSpline
 70
8
 71
3
 72
8
 73
4
 74
0
 40
0
 40
0
 40
0
 40
0
 40
1
 40
1
 40
1
 40
1
 10
438.480000
 20
754.320000
 30
0.0
 10
438.480000
 20
758.000000
 30
0.0
 10
457.040000
 20
737.680000
 30
0.0
 10
466.000000
 20
724.320000
 30
0.0
  0
SPLINE
  5
2e6
100
AcDbEntity
  8
0
 62
7
100
AcDbSpline
 70
8
 71
3
 72
8
 73
4
 74
0
 40
0
 40
0
 40
0
 40
0
 40
1
 40
1
 40
1
 40
1
 10
466.000000
 20
724.320000
 30
0.0
 10
470.320000
 20
717.840000
 30
0.0
 10
478.240000
 20
703.840000
 30
0.0
 10
478.240000
 20
702.560000
 30
0.0
  0
SPLINE
  5
2e7
100
AcDbEntity
  8
0
 62
7
100
AcDbSpline
 70
8
 71
3
 72
8
 73
4
 74
0
 40
0
 40
0
 40
0
 40
0
 40
1
 40
1
 40
1
 40
1
 10
478.240000
 20
702.560000
 30
0.0
 10
478.240000
 20
702.000000
 30
0.0
 10
478.480000
 20
701.440000
 30
0.0
 10
478.720000
 20
701.280000
 30
0.0
  0
SPLINE
  5
2e8
100
AcDbEntity
  8
0
 62
7
100
AcDbSpline
 70
8
 71
3
 72
8
 73
4
 74
0
 40
0
 40
0
 40
0
 40
0
 40
1
 40
1
 40
1
 40
1
 10
478.720000
 20
701.280000
 30
0.0
 10
479.040000
 20
701.120000
 30
0.0
 10
480.640000
 20
697.680000
 30
0.0
 10
482.320000
 20
693.600000
 30
0.0
  0
SPLINE
  5
2e9
100
AcDbEntity
  8
0
 62
7
100
AcDbSpline
 70
8
 71
3
 72
8
 73
4
 74
0
 40
0
 40
0
 40
0
 40
0
 40
1
 40
1
 40
1
 40
1
 10
482.320000
 20
693.600000
 30
0.0
 10
487.280000
 20
681.680000
 30
0.0
 10
490.800000
 20
670.320000
 30
0.0
 10
494.560000
 20
654.640000
 30
0.0
  0
SPLINE
  5
2ea
100
AcDbEntity
  8
0
 62
7
100
AcDbSpline
 70
8
 71
3
 72
8
 73
4
 74
0
 40
0
 40
0
 40
0
 40
0
 40
1
 40
1
 40
1
 40
1
 10
494.560000
 20
654.640000
 30
0.0
 10
495.040000
 20
652.400000
 30
0.0
 10
493.360000
 20
653.040000
 30
0.0
 10
490.480000
 20
656.080000
 30
0.0
  0
LINE
  5
2eb
100
AcDbEntity
  8
0
 62
7
100
AcDbLine
 10
490.480000
 20
656.080000
 30
0.0
 11
490.480000
 21
656.080000
 31
0.0
  0
SPLINE
  5
2ec
100
AcDbEntity
  8
0
 62
7
100
AcDbSpline
 70
8
 71
3
 72
8
 73
4
 74
0
 40
0
 40
0
 40
0
 40
0
 40
1
 40
1
 40
1
 40
1
 10
101.120000
 20
674.160000
 30
0.0
 10
101.120000
 20
676.560000
 30
0.0
 10
109.120000
 20
697.360000
 30
0.0
 10
113.440000
 20
706.000000
 30
0.0
  0
SPLINE
  5
2ed
100
AcDbEntity
  8
0
 62
7
100
AcDbSpline
 70
8
 71
3
 72
8
 73
4
 74
0
 40
0
 40
0
 40
0
 40
0
 40
1
 40
1
 40
1
 40
1
 10
113.440000
 20
706.000000
 30
0.0
 10
119.760000
 20
718.720000
 30
0.0
 10
130.000000
 20
733.520000
 30
0.0
 10
139.680000
 20
743.920000
 30
0.0
  0
SPLINE
  5
2ee
100
AcDbEntity
  8
0
 62
7
100
AcDbSpline
 70
8
 71
3
 72
8
 73
4
 74
0
 40
0
 40
0
 40
0
 40
0
 40
1
 40
1
 40
1
 40
1
 10
139.680000
 20
743.920000
 30
0.0
 10
141.600000
 20
746.000000
 30
0.0
 10
143.360000
 20
747.840000
 30
0.0
 10
143.520000
 20
748.080000
 30
0.0
  0
SPLINE
  5
2ef
100
AcDbEntity
  8
0
 62
7
100
AcDbSpline
 70
8
 71
3
 72
8
 73
4
 74
0
 40
0
 40
0
 40
0
 40
0
 40
1
 40
1
 40
1
 40
1
 10
143.520000
 20
748.080000
 30
0.0
 10
143.680000
 20
748.320000
 30
0.0
 10
145.920000
 20
750.400000
 30
0.0
 10
148.480000
 20
752.640000
 30
0.0
  0
LINE
  5
2f0
100
AcDbEntity
  8
0
 62
7
100
AcDbLine
 10
148.480000
 20
752.640000
 30
0.0
 11
153.040000
 21
756.720000
 31
0.0
  0
LINE
  5
2f1
100
AcDbEntity
  8
0
 62
7
100
AcDbLine
 10
153.040000
 20
756.720000
 30
0.0
 11
154.240000
 21
753.040000
 31
0.0
  0
SPLINE
  5
2f2
100
AcDbEntity
  8
0
 62
7
100
AcDbSpline
 70
8
 71
3
 72
8
 73
4
 74
0
 40
0
 40
0
 40
0
 40
0
 40
1
 40
1
 40
1
 40
1
 10
154.240000
 20
753.040000
 30
0.0
 10
155.840000
 20
748.480000
 30
0.0
 10
155.360000
 20
743.760000
 30
0.0
 10
152.640000
 20
735.200000
 30
0.0
  0
SPLINE
  5
2f3
100
AcDbEntity
  8
0
 62
7
100
AcDbSpline
 70
8
 71
3
 72
8
 73
4
 74
0
 40
0
 40
0
 40
0
 40
0
 40
1
 40
1
 40
1
 40
1
 10
152.640000
 20
735.200000
 30
0.0
 10
146.480000
 20
716.240000
 30
0.0
 10
132.080000
 20
697.760000
 30
0.0
 10
109.040000
 20
679.280000
 30
0.0
  0
SPLINE
  5
2f4
100
AcDbEntity
  8
0
 62
7
100
AcDbSpline
 70
8
 71
3
 72
8
 73
4
 74
0
 40
0
 40
0
 40
0
 40
0
 40
1
 40
1
 40
1
 40
1
 10
109.040000
 20
679.280000
 30
0.0
 10
101.440000
 20
673.200000
 30
0.0
 10
101.120000
 20
672.960000
 30
0.0
 10
101.120000
 20
674.160000
 30
0.0
  0
LINE
  5
2f5
100
AcDbEntity
  8
0
 62
7
100
AcDbLine
 10
101.120000
 20
674.160000
 30
0.0
 11
101.120000
 21
674.160000
 31
0.0
  0
SPLINE
  5
2f6
100
AcDbEntity
  8
0
 62
7
100
AcDbSpline
 70
8
 71
3
 72
8
 73
4
 74
0
 40
0
 40
0
 40
0
 40
0
 40
1
 40
1
 40
1
 40
1
 10
168.960000
 20
749.360000
 30
0.0
 10
167.760000
 20
750.320000
 30
0.0
 10
163.760000
 20
764.320000
 30
0.0
 10
164.480000
 20
765.120000
 30
0.0
  0
SPLINE
  5
2f7
100
AcDbEntity
  8
0
 62
7
100
AcDbSpline
 70
8
 71
3
 72
8
 73
4
 74
0
 40
0
 40
0
 40
0
 40
0
 40
1
 40
1
 40
1
 40
1
 10
164.480000
 20
765.120000
 30
0.0
 10
165.360000
 20
766.080000
 30
0.0
 10
169.680000
 20
768.880000
 30
0.0
 10
175.680000
 20
772.320000
 30
0.0
  0
SPLINE
  5
2f8
100
AcDbEntity
  8
0
 62
7
100
AcDbSpline
 70
8
 71
3
 72
8
 73
4
 74
0
 40
0
 40
0
 40
0
 40
0
 40
1
 40
1
 40
1
 40
1
 10
175.680000
 20
772.320000
 30
0.0
 10
196.960000
 20
784.640000
 30
0.0
 10
222.400000
 20
792.560000
 30
0.0
 10
253.680000
 20
796.640000
 30
0.0
  0
SPLINE
  5
2f9
100
AcDbEntity
  8
0
 62
7
100
AcDbSpline
 70
8
 71
3
 72
8
 73
4
 74
0
 40
0
 40
0
 40
0
 40
0
 40
1
 40
1
 40
1
 40
1
 10
253.680000
 20
796.640000
 30
0.0
 10
262.960000
 20
797.840000
 30
0.0
 10
296.720000
 20
799.520000
 30
0.0
 10
298.240000
 20
798.880000
 30
0.0
  0
SPLINE
  5
2fa
100
AcDbEntity
  8
0
 62
7
100
AcDbSpline
 70
8
 71
3
 72
8
 73
4
 74
0
 40
0
 40
0
 40
0
 40
0
 40
1
 40
1
 40
1
 40
1
 10
298.240000
 20
798.880000
 30
0.0
 10
298.720000
 20
798.640000
 30
0.0
 10
299.360000
 20
796.880000
 30
0.0
 10
299.600000
 20
794.960000
 30
0.0
  0
SPLINE
  5
2fb
100
AcDbEntity
  8
0
 62
7
100
AcDbSpline
 70
8
 71
3
 72
8
 73
4
 74
0
 40
0
 40
0
 40
0
 40
0
 40
1
 40
1
 40
1
 40
1
 10
299.600000
 20
794.960000
 30
0.0
 10
300.000000
 20
791.520000
 30
0.0
 10
299.680000
 20
790.000000
 30
0.0
 10
298.560000
 20
790.000000
 30
0.0
  0
SPLINE
  5
2fc
100
AcDbEntity
  8
0
 62
7
100
AcDbSpline
 70
8
 71
3
 72
8
 73
4
 74
0
 40
0
 40
0
 40
0
 40
0
 40
1
 40
1
 40
1
 40
1
 10
298.560000
 20
790.000000
 30
0.0
 10
298.240000
 20
790.000000
 30
0.0
 10
296.400000
 20
788.800000
 30
0.0
 10
294.480000
 20
787.360000
 30
0.0
  0
SPLINE
  5
2fd
100
AcDbEntity
  8
0
 62
7
100
AcDbSpline
 70
8
 71
3
 72
8
 73
4
 74
0
 40
0
 40
0
 40
0
 40
0
 40
1
 40
1
 40
1
 40
1
 10
294.480000
 20
787.360000
 30
0.0
 10
290.800000
 20
784.640000
 30
0.0
 10
273.600000
 20
774.480000
 30
0.0
 10
267.440000
 20
771.440000
 30
0.0
  0
SPLINE
  5
2fe
100
AcDbEntity
  8
0
 62
7
100
AcDbSpline
 70
8
 71
3
 72
8
 73
4
 74
0
 40
0
 40
0
 40
0
 40
0
 40
1
 40
1
 40
1
 40
1
 10
267.440000
 20
771.440000
 30
0.0
 10
265.440000
 20
770.480000
 30
0.0
 10
263.200000
 20
769.360000
 30
0.0
 10
262.480000
 20
768.960000
 30
0.0
  0
SPLINE
  5
2ff
100
AcDbEntity
  8
0
 62
7
100
AcDbSpline
 70
8
 71
3
 72
8
 73
4
 74
0
 40
0
 40
0
 40
0
 40
0
 40
1
 40
1
 40
1
 40
1
 10
262.480000
 20
768.960000
 30
0.0
 10
257.360000
 20
766.320000
 30
0.0
 10
242.800000
 20
760.400000
 30
0.0
 10
236.320000
 20
758.400000
 30
0.0
  0
SPLINE
  5
300
100
AcDbEntity
  8
0
 62
7
100
AcDbSpline
 70
8
 71
3
 72
8
 73
4
 74
0
 40
0
 40
0
 40
0
 40
0
 40
1
 40
1
 40
1
 40
1
 10
236.320000
 20
758.400000
 30
0.0
 10
234.320000
 20
757.760000
 30
0.0
 10
230.000000
 20
756.480000
 30
0.0
 10
226.720000
 20
755.440000
 30
0.0
  0
SPLINE
  5
301
100
AcDbEntity
  8
0
 62
7
100
AcDbSpline
 70
8
 71
3
 72
8
 73
4
 74
0
 40
0
 40
0
 40
0
 40
0
 40
1
 40
1
 40
1
 40
1
 10
226.720000
 20
755.440000
 30
0.0
 10
223.440000
 20
754.400000
 30
0.0
 10
217.600000
 20
753.040000
 30
0.0
 10
213.760000
 20
752.320000
 30
0.0
  0
SPLINE
  5
302
100
AcDbEntity
  8
0
 62
7
100
AcDbSpline
 70
8
 71
3
 72
8
 73
4
 74
0
 40
0
 40
0
 40
0
 40
0
 40
1
 40
1
 40
1
 40
1
 10
213.760000
 20
752.320000
 30
0.0
 10
209.920000
 20
751.600000
 30
0.0
 10
205.200000
 20
750.640000
 30
0.0
 10
203.200000
 20
750.240000
 30
0.0
  0
SPLINE
  5
303
100
AcDbEntity
  8
0
 62
7
100
AcDbSpline
 70
8
 71
3
 72
8
 73
4
 74
0
 40
0
 40
0
 40
0
 40
0
 40
1
 40
1
 40
1
 40
1
 10
203.200000
 20
750.240000
 30
0.0
 10
198.560000
 20
749.200000
 30
0.0
 10
170.000000
 20
748.480000
 30
0.0
 10
168.960000
 20
749.360000
 30
0.0
  0
LINE
  5
304
100
AcDbEntity
  8
0
 62
7
100
AcDbLine
 10
168.960000
 20
749.360000
 30
0.0
 11
168.960000
 21
749.360000
 31
0.0
  0
SPLINE
  5
305
100
AcDbEntity
  8
0
 62
7
100
AcDbSpline
 70
8
 71
3
 72
8
 73
4
 74
0
 40
0
 40
0
 40
0
 40
0
 40
1
 40
1
 40
1
 40
1
 10
402.640000
 20
757.120000
 30
0.0
 10
375.040000
 20
759.600000
 30
0.0
 10
350.400000
 20
767.280000
 30
0.0
 10
328.560000
 20
780.160000
 30
0.0
  0
SPLINE
  5
306
100
AcDbEntity
  8
0
 62
7
100
AcDbSpline
 70
8
 71
3
 72
8
 73
4
 74
0
 40
0
 40
0
 40
0
 40
0
 40
1
 40
1
 40
1
 40
1
 10
328.560000
 20
780.160000
 30
0.0
 10
320.640000
 20
784.800000
 30
0.0
 10
320.480000
 20
785.040000
 30
0.0
 10
320.480000
 20
791.920000
 30
0.0
  0
LINE
  5
307
100
AcDbEntity
  8
0
 62
7
100
AcDbLine
 10
320.480000
 20
791.920000
 30
0.0
 11
320.480000
 21
797.760000
 31
0.0
  0
LINE
  5
308
100
AcDbEntity
  8
0
 62
7
100
AcDbLine
 10
320.480000
 20
797.760000
 30
0.0
 11
324.080000
 21
797.760000
 31
0.0
  0
SPLINE
  5
309
100
AcDbEntity
  8
0
 62
7
100
AcDbSpline
 70
8
 71
3
 72
8
 73
4
 74
0
 40
0
 40
0
 40
0
 40
0
 40
1
 40
1
 40
1
 40
1
 10
324.080000
 20
797.760000
 30
0.0
 10
332.640000
 20
797.760000
 30
0.0
 10
360.400000
 20
793.120000
 30
0.0
 10
370.880000
 20
790.000000
 30
0.0
  0
SPLINE
  5
30a
100
AcDbEntity
  8
0
 62
7
100
AcDbSpline
 70
8
 71
3
 72
8
 73
4
 74
0
 40
0
 40
0
 40
0
 40
0
 40
1
 40
1
 40
1
 40
1
 10
370.880000
 20
790.000000
 30
0.0
 10
372.160000
 20
789.600000
 30
0.0
 10
375.680000
 20
788.560000
 30
0.0
 10
378.800000
 20
787.600000
 30
0.0
  0
SPLINE
  5
30b
100
AcDbEntity
  8
0
 62
7
100
AcDbSpline
 70
8
 71
3
 72
8
 73
4
 74
0
 40
0
 40
0
 40
0
 40
0
 40
1
 40
1
 40
1
 40
1
 10
378.800000
 20
787.600000
 30
0.0
 10
392.480000
 20
783.520000
 30
0.0
 10
410.960000
 20
775.200000
 30
0.0
 10
420.880000
 20
768.640000
 30
0.0
  0
SPLINE
  5
30c
100
AcDbEntity
  8
0
 62
7
100
AcDbSpline
 70
8
 71
3
 72
8
 73
4
 74
0
 40
0
 40
0
 40
0
 40
0
 40
1
 40
1
 40
1
 40
1
 10
420.880000
 20
768.640000
 30
0.0
 10
423.760000
 20
766.720000
 30
0.0
 10
426.320000
 20
765.120000
 30
0.0
 10
426.640000
 20
765.120000
 30
0.0
  0
SPLINE
  5
30d
100
AcDbEntity
  8
0
 62
7
100
AcDbSpline
 70
8
 71
3
 72
8
 73
4
 74
0
 40
0
 40
0
 40
0
 40
0
 40
1
 40
1
 40
1
 40
1
 10
426.640000
 20
765.120000
 30
0.0
 10
427.440000
 20
765.120000
 30
0.0
 10
427.360000
 20
764.400000
 30
0.0
 10
426.080000
 20
760.240000
 30
0.0
  0
LINE
  5
30e
100
AcDbEntity
  8
0
 62
7
100
AcDbLine
 10
426.080000
 20
760.240000
 30
0.0
 11
424.960000
 21
756.560000
 31
0.0
  0
LINE
  5
30f
100
AcDbEntity
  8
0
 62
7
100
AcDbLine
 10
424.960000
 20
756.560000
 30
0.0
 11
415.280000
 21
756.720000
 31
0.0
  0
SPLINE
  5
310
100
AcDbEntity
  8
0
 62
7
100
AcDbSpline
 70
8
 71
3
 72
8
 73
4
 74
0
 40
0
 40
0
 40
0
 40
0
 40
1
 40
1
 40
1
 40
1
 10
415.280000
 20
756.720000
 30
0.0
 10
410.000000
 20
756.800000
 30
0.0
 10
404.320000
 20
756.960000
 30
0.0
 10
402.640000
 20
757.120000
 30
0.0
  0
LINE
  5
311
100
AcDbEntity
  8
0
 62
7
100
AcDbLine
 10
402.640000
 20
757.120000
 30
0.0
 11
402.640000
 21
757.120000
 31
0.0
  0
SPLINE
  5
312
100
AcDbEntity
  8
0
 62
7
100
AcDbSpline
 70
8
 71
3
 72
8
 73
4
 74
0
 40
0
 40
0
 40
0
 40
0
 40
1
 40
1
 40
1
 40
1
 10
64.560000
 20
69.680000
 30
0.0
 10
67.760000
 20
68.720000
 30
0.0
 10
70.160000
 20
67.120000
 30
0.0
 10
71.840000
 20
64.880000
 30
0.0
  0
SPLINE
  5
313
100
AcDbEntity
  8
0
 62
7
100
AcDbSpline
 70
8
 71
3
 72
8
 73
4
 74
0
 40
0
 40
0
 40
0
 40
0
 40
1
 40
1
 40
1
 40
1
 10
71.840000
 20
64.880000
 30
0.0
 10
73.440000
 20
62.640000
 30
0.0
 10
74.240000
 20
60.160000
 30
0.0
 10
74.240000
 20
57.280000
 30
0.0
  0
SPLINE
  5
314
100
AcDbEntity
  8
0
 62
7
100
AcDbSpline
 70
8
 71
3
 72
8
 73
4
 74
0
 40
0
 40
0
 40
0
 40
0
 40
1
 40
1
 40
1
 40
1
 10
74.240000
 20
57.280000
 30
0.0
 10
74.240000
 20
54.400000
 30
0.0
 10
73.520000
 20
51.680000
 30
0.0
 10
72.000000
 20
49.280000
 30
0.0
  0
SPLINE
  5
315
100
AcDbEntity
  8
0
 62
7
100
AcDbSpline
 70
8
 71
3
 72
8
 73
4
 74
0
 40
0
 40
0
 40
0
 40
0
 40
1
 40
1
 40
1
 40
1
 10
72.000000
 20
49.280000
 30
0.0
 10
70.560000
 20
46.880000
 30
0.0
 10
68.480000
 20
45.120000
 30
0.0
 10
65.840000
 20
44.000000
 30
0.0
  0
SPLINE
  5
316
100
AcDbEntity
  8
0
 62
7
100
AcDbSpline
 70
8
 71
3
 72
8
 73
4
 74
0
 40
0
 40
0
 40
0
 40
0
 40
1
 40
1
 40
1
 40
1
 10
65.840000
 20
44.000000
 30
0.0
 10
63.200000
 20
42.800000
 30
0.0
 10
59.520000
 20
42.240000
 30
0.0
 10
54.960000
 20
42.240000
 30
0.0
  0
LINE
  5
317
100
AcDbEntity
  8
0
 62
7
100
AcDbLine
 10
54.960000
 20
42.240000
 30
0.0
 11
35.280000
 21
42.240000
 31
0.0
  0
LINE
  5
318
100
AcDbEntity
  8
0
 62
7
100
AcDbLine
 10
35.280000
 20
42.240000
 30
0.0
 11
35.280000
 21
93.840000
 31
0.0
  0
LINE
  5
319
100
AcDbEntity
  8
0
 62
7
100
AcDbLine
 10
35.280000
 20
93.840000
 30
0.0
 11
54.560000
 21
93.840000
 31
0.0
  0
SPLINE
  5
31a
100
AcDbEntity
  8
0
 62
7
100
AcDbSpline
 70
8
 71
3
 72
8
 73
4
 74
0
 40
0
 40
0
 40
0
 40
0
 40
1
 40
1
 40
1
 40
1
 10
54.560000
 20
93.840000
 30
0.0
 10
60.880000
 20
93.840000
 30
0.0
 10
65.280000
 20
92.480000
 30
0.0
 10
67.840000
 20
89.760000
 30
0.0
  0
SPLINE
  5
31b
100
AcDbEntity
  8
0
 62
7
100
AcDbSpline
 70
8
 71
3
 72
8
 73
4
 74
0
 40
0
 40
0
 40
0
 40
0
 40
1
 40
1
 40
1
 40
1
 10
67.840000
 20
89.760000
 30
0.0
 10
70.400000
 20
87.040000
 30
0.0
 10
71.680000
 20
84.000000
 30
0.0
 10
71.680000
 20
80.640000
 30
0.0
  0
SPLINE
  5
31c
100
AcDbEntity
  8
0
 62
7
100
AcDbSpline
 70
8
 71
3
 72
8
 73
4
 74
0
 40
0
 40
0
 40
0
 40
0
 40
1
 40
1
 40
1
 40
1
 10
71.680000
 20
80.640000
 30
0.0
 10
71.680000
 20
78.400000
 30
0.0
 10
71.120000
 20
76.320000
 30
0.0
 10
69.920000
 20
74.400000
 30
0.0
  0
SPLINE
  5
31d
100
AcDbEntity
  8
0
 62
7
100
AcDbSpline
 70
8
 71
3
 72
8
 73
4
 74
0
 40
0
 40
0
 40
0
 40
0
 40
1
 40
1
 40
1
 40
1
 10
69.920000
 20
74.400000
 30
0.0
 10
68.720000
 20
72.480000
 30
0.0
 10
66.960000
 20
70.960000
 30
0.0
 10
64.560000
 20
69.680000
 30
0.0
  0
LINE
  5
31e
100
AcDbEntity
  8
0
 62
7
100
AcDbLine
 10
64.560000
 20
69.680000
 30
0.0
 11
64.560000
 21
69.680000
 31
0.0
  0
LINE
  5
31f
100
AcDbEntity
  8
0
 62
7
100
AcDbLine
 10
42.080000
 20
72.240000
 30
0.0
 11
53.280000
 21
72.240000
 31
0.0
  0
SPLINE
  5
320
100
AcDbEntity
  8
0
 62
7
100
AcDbSpline
 70
8
 71
3
 72
8
 73
4
 74
0
 40
0
 40
0
 40
0
 40
0
 40
1
 40
1
 40
1
 40
1
 10
53.280000
 20
72.240000
 30
0.0
 10
55.520000
 20
72.240000
 30
0.0
 10
57.520000
 20
72.320000
 30
0.0
 10
59.040000
 20
72.640000
 30
0.0
  0
SPLINE
  5
321
100
AcDbEntity
  8
0
 62
7
100
AcDbSpline
 70
8
 71
3
 72
8
 73
4
 74
0
 40
0
 40
0
 40
0
 40
0
 40
1
 40
1
 40
1
 40
1
 10
59.040000
 20
72.640000
 30
0.0
 10
60.560000
 20
72.880000
 30
0.0
 10
62.000000
 20
73.520000
 30
0.0
 10
63.200000
 20
74.640000
 30
0.0
  0
SPLINE
  5
322
100
AcDbEntity
  8
0
 62
7
100
AcDbSpline
 70
8
 71
3
 72
8
 73
4
 74
0
 40
0
 40
0
 40
0
 40
0
 40
1
 40
1
 40
1
 40
1
 10
63.200000
 20
74.640000
 30
0.0
 10
64.400000
 20
75.760000
 30
0.0
 10
64.960000
 20
77.440000
 30
0.0
 10
64.960000
 20
79.760000
 30
0.0
  0
SPLINE
  5
323
100
AcDbEntity
  8
0
 62
7
100
AcDbSpline
 70
8
 71
3
 72
8
 73
4
 74
0
 40
0
 40
0
 40
0
 40
0
 40
1
 40
1
 40
1
 40
1
 10
64.960000
 20
79.760000
 30
0.0
 10
64.960000
 20
82.240000
 30
0.0
 10
64.400000
 20
84.000000
 30
0.0
 10
63.120000
 20
85.200000
 30
0.0
  0
SPLINE
  5
324
100
AcDbEntity
  8
0
 62
7
100
AcDbSpline
 70
8
 71
3
 72
8
 73
4
 74
0
 40
0
 40
0
 40
0
 40
0
 40
1
 40
1
 40
1
 40
1
 10
63.120000
 20
85.200000
 30
0.0
 10
61.920000
 20
86.320000
 30
0.0
 10
60.480000
 20
87.040000
 30
0.0
 10
58.800000
 20
87.280000
 30
0.0
  0
SPLINE
  5
325
100
AcDbEntity
  8
0
 62
7
100
AcDbSpline
 70
8
 71
3
 72
8
 73
4
 74
0
 40
0
 40
0
 40
0
 40
0
 40
1
 40
1
 40
1
 40
1
 10
58.800000
 20
87.280000
 30
0.0
 10
57.120000
 20
87.600000
 30
0.0
 10
55.040000
 20
87.680000
 30
0.0
 10
52.400000
 20
87.680000
 30
0.0
  0
LINE
  5
326
100
AcDbEntity
  8
0
 62
7
100
AcDbLine
 10
52.400000
 20
87.680000
 30
0.0
 11
42.080000
 21
87.680000
 31
0.0
  0
LINE
  5
327
100
AcDbEntity
  8
0
 62
7
100
AcDbLine
 10
42.080000
 20
87.680000
 30
0.0
 11
42.080000
 21
72.240000
 31
0.0
  0
LINE
  5
328
100
AcDbEntity
  8
0
 62
7
100
AcDbLine
 10
42.080000
 20
72.240000
 30
0.0
 11
42.080000
 21
72.240000
 31
0.0
  0
LINE
  5
329
100
AcDbEntity
  8
0
 62
7
100
AcDbLine
 10
42.080000
 20
48.400000
 30
0.0
 11
54.880000
 21
48.400000
 31
0.0
  0
SPLINE
  5
32a
100
AcDbEntity
  8
0
 62
7
100
AcDbSpline
 70
8
 71
3
 72
8
 73
4
 74
0
 40
0
 40
0
 40
0
 40
0
 40
1
 40
1
 40
1
 40
1
 10
54.880000
 20
48.400000
 30
0.0
 10
59.520000
 20
48.400000
 30
0.0
 10
62.720000
 20
49.200000
 30
0.0
 10
64.480000
 20
50.720000
 30
0.0
  0
SPLINE
  5
32b
100
AcDbEntity
  8
0
 62
7
100
AcDbSpline
 70
8
 71
3
 72
8
 73
4
 74
0
 40
0
 40
0
 40
0
 40
0
 40
1
 40
1
 40
1
 40
1
 10
64.480000
 20
50.720000
 30
0.0
 10
66.240000
 20
52.320000
 30
0.0
 10
67.120000
 20
54.480000
 30
0.0
 10
67.120000
 20
57.280000
 30
0.0
  0
SPLINE
  5
32c
100
AcDbEntity
  8
0
 62
7
100
AcDbSpline
 70
8
 71
3
 72
8
 73
4
 74
0
 40
0
 40
0
 40
0
 40
0
 40
1
 40
1
 40
1
 40
1
 10
67.120000
 20
57.280000
 30
0.0
 10
67.120000
 20
60.000000
 30
0.0
 10
66.160000
 20
62.240000
 30
0.0
 10
64.320000
 20
63.760000
 30
0.0
  0
SPLINE
  5
32d
100
AcDbEntity
  8
0
 62
7
100
AcDbSpline
 70
8
 71
3
 72
8
 73
4
 74
0
 40
0
 40
0
 40
0
 40
0
 40
1
 40
1
 40
1
 40
1
 10
64.320000
 20
63.760000
 30
0.0
 10
62.400000
 20
65.360000
 30
0.0
 10
58.960000
 20
66.080000
 30
0.0
 10
54.000000
 20
66.080000
 30
0.0
  0
LINE
  5
32e
100
AcDbEntity
  8
0
 62
7
100
AcDbLine
 10
54.000000
 20
66.080000
 30
0.0
 11
42.080000
 21
66.080000
 31
0.0
  0
LINE
  5
32f
100
AcDbEntity
  8
0
 62
7
100
AcDbLine
 10
42.080000
 20
66.080000
 30
0.0
 11
42.080000
 21
48.400000
 31
0.0
  0
LINE
  5
330
100
AcDbEntity
  8
0
 62
7
100
AcDbLine
 10
42.080000
 20
48.400000
 30
0.0
 11
42.080000
 21
48.400000
 31
0.0
  0
LINE
  5
331
100
AcDbEntity
  8
0
 62
7
100
AcDbLine
 10
89.120000
 20
42.240000
 30
0.0
 11
82.720000
 21
42.240000
 31
0.0
  0
LINE
  5
332
100
AcDbEntity
  8
0
 62
7
100
AcDbLine
 10
82.720000
 20
42.240000
 30
0.0
 11
82.720000
 21
79.600000
 31
0.0
  0
LINE
  5
333
100
AcDbEntity
  8
0
 62
7
100
AcDbLine
 10
82.720000
 20
79.600000
 30
0.0
 11
89.120000
 21
79.600000
 31
0.0
  0
LINE
  5
334
100
AcDbEntity
  8
0
 62
7
100
AcDbLine
 10
89.120000
 20
79.600000
 30
0.0
 11
89.120000
 21
42.240000
 31
0.0
  0
LINE
  5
335
100
AcDbEntity
  8
0
 62
7
100
AcDbLine
 10
89.120000
 20
42.240000
 30
0.0
 11
89.120000
 21
42.240000
 31
0.0
  0
LINE
  5
336
100
AcDbEntity
  8
0
 62
7
100
AcDbLine
 10
89.120000
 20
86.640000
 30
0.0
 11
82.720000
 21
86.640000
 31
0.0
  0
LINE
  5
337
100
AcDbEntity
  8
0
 62
7
100
AcDbLine
 10
82.720000
 20
86.640000
 30
0.0
 11
82.720000
 21
93.840000
 31
0.0
  0
LINE
  5
338
100
AcDbEntity
  8
0
 62
7
100
AcDbLine
 10
82.720000
 20
93.840000
 30
0.0
 11
89.120000
 21
93.840000
 31
0.0
  0
LINE
  5
339
100
AcDbEntity
  8
0
 62
7
100
AcDbLine
 10
89.120000
 20
93.840000
 30
0.0
 11
89.120000
 21
86.640000
 31
0.0
  0
LINE
  5
33a
100
AcDbEntity
  8
0
 62
7
100
AcDbLine
 10
89.120000
 20
86.640000
 30
0.0
 11
89.120000
 21
86.640000
 31
0.0
  0
SPLINE
  5
33b
100
AcDbEntity
  8
0
 62
7
100
AcDbSpline
 70
8
 71
3
 72
8
 73
4
 74
0
 40
0
 40
0
 40
0
 40
0
 40
1
 40
1
 40
1
 40
1
 10
119.600000
 20
69.120000
 30
0.0
 10
119.280000
 20
71.200000
 30
0.0
 10
118.480000
 20
72.720000
 30
0.0
 10
117.120000
 20
73.680000
 30
0.0
  0
SPLINE
  5
33c
100
AcDbEntity
  8
0
 62
7
100
AcDbSpline
 70
8
 71
3
 72
8
 73
4
 74
0
 40
0
 40
0
 40
0
 40
0
 40
1
 40
1
 40
1
 40
1
 10
117.120000
 20
73.680000
 30
0.0
 10
115.680000
 20
74.720000
 30
0.0
 10
113.840000
 20
75.280000
 30
0.0
 10
111.360000
 20
75.280000
 30
0.0
  0
SPLINE
  5
33d
100
AcDbEntity
  8
0
 62
7
100
AcDbSpline
 70
8
 71
3
 72
8
 73
4
 74
0
 40
0
 40
0
 40
0
 40
0
 40
1
 40
1
 40
1
 40
1
 10
111.360000
 20
75.280000
 30
0.0
 10
108.960000
 20
75.280000
 30
0.0
 10
107.040000
 20
74.800000
 30
0.0
 10
105.520000
 20
74.000000
 30
0.0
  0
SPLINE
  5
33e
100
AcDbEntity
  8
0
 62
7
100
AcDbSpline
 70
8
 71
3
 72
8
 73
4
 74
0
 40
0
 40
0
 40
0
 40
0
 40
1
 40
1
 40
1
 40
1
 10
105.520000
 20
74.000000
 30
0.0
 10
104.000000
 20
73.200000
 30
0.0
 10
103.280000
 20
72.000000
 30
0.0
 10
103.280000
 20
70.400000
 30
0.0
  0
SPLINE
  5
33f
100
AcDbEntity
  8
0
 62
7
100
AcDbSpline
 70
8
 71
3
 72
8
 73
4
 74
0
 40
0
 40
0
 40
0
 40
0
 40
1
 40
1
 40
1
 40
1
 10
103.280000
 20
70.400000
 30
0.0
 10
103.280000
 20
68.960000
 30
0.0
 10
103.840000
 20
67.920000
 30
0.0
 10
105.040000
 20
67.280000
 30
0.0
  0
SPLINE
  5
340
100
AcDbEntity
  8
0
 62
7
100
AcDbSpline
 70
8
 71
3
 72
8
 73
4
 74
0
 40
0
 40
0
 40
0
 40
0
 40
1
 40
1
 40
1
 40
1
 10
105.040000
 20
67.280000
 30
0.0
 10
106.240000
 20
66.640000
 30
0.0
 10
108.560000
 20
65.840000
 30
0.0
 10
112.080000
 20
64.960000
 30
0.0
  0
SPLINE
  5
341
100
AcDbEntity
  8
0
 62
7
100
AcDbSpline
 70
8
 71
3
 72
8
 73
4
 74
0
 40
0
 40
0
 40
0
 40
0
 40
1
 40
1
 40
1
 40
1
 10
112.080000
 20
64.960000
 30
0.0
 10
116.000000
 20
63.920000
 30
0.0
 10
118.960000
 20
63.040000
 30
0.0
 10
120.880000
 20
62.240000
 30
0.0
  0
SPLINE
  5
342
100
AcDbEntity
  8
0
 62
7
100
AcDbSpline
 70
8
 71
3
 72
8
 73
4
 74
0
 40
0
 40
0
 40
0
 40
0
 40
1
 40
1
 40
1
 40
1
 10
120.880000
 20
62.240000
 30
0.0
 10
122.880000
 20
61.520000
 30
0.0
 10
124.400000
 20
60.400000
 30
0.0
 10
125.520000
 20
59.040000
 30
0.0
  0
SPLINE
  5
343
100
AcDbEntity
  8
0
 62
7
100
AcDbSpline
 70
8
 71
3
 72
8
 73
4
 74
0
 40
0
 40
0
 40
0
 40
0
 40
1
 40
1
 40
1
 40
1
 10
125.520000
 20
59.040000
 30
0.0
 10
126.560000
 20
57.600000
 30
0.0
 10
127.120000
 20
55.680000
 30
0.0
 10
127.120000
 20
53.200000
 30
0.0
  0
SPLINE
  5
344
100
AcDbEntity
  8
0
 62
7
100
AcDbSpline
 70
8
 71
3
 72
8
 73
4
 74
0
 40
0
 40
0
 40
0
 40
0
 40
1
 40
1
 40
1
 40
1
 10
127.120000
 20
53.200000
 30
0.0
 10
127.120000
 20
49.840000
 30
0.0
 10
125.760000
 20
47.040000
 30
0.0
 10
123.040000
 20
44.800000
 30
0.0
  0
SPLINE
  5
345
100
AcDbEntity
  8
0
 62
7
100
AcDbSpline
 70
8
 71
3
 72
8
 73
4
 74
0
 40
0
 40
0
 40
0
 40
0
 40
1
 40
1
 40
1
 40
1
 10
123.040000
 20
44.800000
 30
0.0
 10
120.320000
 20
42.560000
 30
0.0
 10
116.720000
 20
41.360000
 30
0.0
 10
112.160000
 20
41.360000
 30
0.0
  0
SPLINE
  5
346
100
AcDbEntity
  8
0
 62
7
100
AcDbSpline
 70
8
 71
3
 72
8
 73
4
 74
0
 40
0
 40
0
 40
0
 40
0
 40
1
 40
1
 40
1
 40
1
 10
112.160000
 20
41.360000
 30
0.0
 10
107.440000
 20
41.360000
 30
0.0
 10
103.680000
 20
42.400000
 30
0.0
 10
101.040000
 20
44.400000
 30
0.0
  0
SPLINE
  5
347
100
AcDbEntity
  8
0
 62
7
100
AcDbSpline
 70
8
 71
3
 72
8
 73
4
 74
0
 40
0
 40
0
 40
0
 40
0
 40
1
 40
1
 40
1
 40
1
 10
101.040000
 20
44.400000
 30
0.0
 10
98.400000
 20
46.400000
 30
0.0
 10
96.720000
 20
49.440000
 30
0.0
 10
96.160000
 20
53.440000
 30
0.0
  0
LINE
  5
348
100
AcDbEntity
  8
0
 62
7
100
AcDbLine
 10
96.160000
 20
53.440000
 30
0.0
 11
102.480000
 21
54.400000
 31
0.0
  0
SPLINE
  5
349
100
AcDbEntity
  8
0
 62
7
100
AcDbSpline
 70
8
 71
3
 72
8
 73
4
 74
0
 40
0
 40
0
 40
0
 40
0
 40
1
 40
1
 40
1
 40
1
 10
102.480000
 20
54.400000
 30
0.0
 10
102.800000
 20
51.760000
 30
0.0
 10
103.760000
 20
49.840000
 30
0.0
 10
105.360000
 20
48.560000
 30
0.0
  0
SPLINE
  5
34a
100
AcDbEntity
  8
0
 62
7
100
AcDbSpline
 70
8
 71
3
 72
8
 73
4
 74
0
 40
0
 40
0
 40
0
 40
0
 40
1
 40
1
 40
1
 40
1
 10
105.360000
 20
48.560000
 30
0.0
 10
106.960000
 20
47.280000
 30
0.0
 10
109.200000
 20
46.560000
 30
0.0
 10
112.080000
 20
46.560000
 30
0.0
  0
SPLINE
  5
34b
100
AcDbEntity
  8
0
 62
7
100
AcDbSpline
 70
8
 71
3
 72
8
 73
4
 74
0
 40
0
 40
0
 40
0
 40
0
 40
1
 40
1
 40
1
 40
1
 10
112.080000
 20
46.560000
 30
0.0
 10
114.800000
 20
46.560000
 30
0.0
 10
116.960000
 20
47.200000
 30
0.0
 10
118.400000
 20
48.320000
 30
0.0
  0
SPLINE
  5
34c
100
AcDbEntity
  8
0
 62
7
100
AcDbSpline
 70
8
 71
3
 72
8
 73
4
 74
0
 40
0
 40
0
 40
0
 40
0
 40
1
 40
1
 40
1
 40
1
 10
118.400000
 20
48.320000
 30
0.0
 10
119.920000
 20
49.520000
 30
0.0
 10
120.640000
 20
50.880000
 30
0.0
 10
120.640000
 20
52.560000
 30
0.0
  0
SPLINE
  5
34d
100
AcDbEntity
  8
0
 62
7
100
AcDbSpline
 70
8
 71
3
 72
8
 73
4
 74
0
 40
0
 40
0
 40
0
 40
0
 40
1
 40
1
 40
1
 40
1
 10
120.640000
 20
52.560000
 30
0.0
 10
120.640000
 20
53.680000
 30
0.0
 10
120.320000
 20
54.560000
 30
0.0
 10
119.600000
 20
55.280000
 30
0.0
  0
SPLINE
  5
34e
100
AcDbEntity
  8
0
 62
7
100
AcDbSpline
 70
8
 71
3
 72
8
 73
4
 74
0
 40
0
 40
0
 40
0
 40
0
 40
1
 40
1
 40
1
 40
1
 10
119.600000
 20
55.280000
 30
0.0
 10
118.960000
 20
55.920000
 30
0.0
 10
118.080000
 20
56.480000
 30
0.0
 10
117.120000
 20
56.800000
 30
0.0
  0
SPLINE
  5
34f
100
AcDbEntity
  8
0
 62
7
100
AcDbSpline
 70
8
 71
3
 72
8
 73
4
 74
0
 40
0
 40
0
 40
0
 40
0
 40
1
 40
1
 40
1
 40
1
 10
117.120000
 20
56.800000
 30
0.0
 10
116.080000
 20
57.120000
 30
0.0
 10
113.760000
 20
57.760000
 30
0.0
 10
110.240000
 20
58.640000
 30
0.0
  0
SPLINE
  5
350
100
AcDbEntity
  8
0
 62
7
100
AcDbSpline
 70
8
 71
3
 72
8
 73
4
 74
0
 40
0
 40
0
 40
0
 40
0
 40
1
 40
1
 40
1
 40
1
 10
110.240000
 20
58.640000
 30
0.0
 10
104.880000
 20
59.920000
 30
0.0
 10
101.440000
 20
61.440000
 30
0.0
 10
99.680000
 20
63.200000
 30
0.0
  0
SPLINE
  5
351
100
AcDbEntity
  8
0
 62
7
100
AcDbSpline
 70
8
 71
3
 72
8
 73
4
 74
0
 40
0
 40
0
 40
0
 40
0
 40
1
 40
1
 40
1
 40
1
 10
99.680000
 20
63.200000
 30
0.0
 10
98.000000
 20
65.040000
 30
0.0
 10
97.200000
 20
67.200000
 30
0.0
 10
97.200000
 20
69.680000
 30
0.0
  0
SPLINE
  5
352
100
AcDbEntity
  8
0
 62
7
100
AcDbSpline
 70
8
 71
3
 72
8
 73
4
 74
0
 40
0
 40
0
 40
0
 40
0
 40
1
 40
1
 40
1
 40
1
 10
97.200000
 20
69.680000
 30
0.0
 10
97.200000
 20
72.800000
 30
0.0
 10
98.400000
 20
75.360000
 30
0.0
 10
100.880000
 20
77.360000
 30
0.0
  0
SPLINE
  5
353
100
AcDbEntity
  8
0
 62
7
100
AcDbSpline
 70
8
 71
3
 72
8
 73
4
 74
0
 40
0
 40
0
 40
0
 40
0
 40
1
 40
1
 40
1
 40
1
 10
100.880000
 20
77.360000
 30
0.0
 10
103.360000
 20
79.440000
 30
0.0
 10
106.720000
 20
80.400000
 30
0.0
 10
110.880000
 20
80.400000
 30
0.0
  0
SPLINE
  5
354
100
AcDbEntity
  8
0
 62
7
100
AcDbSpline
 70
8
 71
3
 72
8
 73
4
 74
0
 40
0
 40
0
 40
0
 40
0
 40
1
 40
1
 40
1
 40
1
 10
110.880000
 20
80.400000
 30
0.0
 10
115.360000
 20
80.400000
 30
0.0
 10
118.800000
 20
79.520000
 30
0.0
 10
121.280000
 20
77.760000
 30
0.0
  0
SPLINE
  5
355
100
AcDbEntity
  8
0
 62
7
100
AcDbSpline
 70
8
 71
3
 72
8
 73
4
 74
0
 40
0
 40
0
 40
0
 40
0
 40
1
 40
1
 40
1
 40
1
 10
121.280000
 20
77.760000
 30
0.0
 10
123.760000
 20
76.080000
 30
0.0
 10
125.280000
 20
73.440000
 30
0.0
 10
125.760000
 20
70.000000
 30
0.0
  0
LINE
  5
356
100
AcDbEntity
  8
0
 62
7
100
AcDbLine
 10
125.760000
 20
70.000000
 30
0.0
 11
119.600000
 21
69.120000
 31
0.0
  0
LINE
  5
357
100
AcDbEntity
  8
0
 62
7
100
AcDbLine
 10
119.600000
 20
69.120000
 30
0.0
 11
119.600000
 21
69.120000
 31
0.0
  0
SPLINE
  5
358
100
AcDbEntity
  8
0
 62
7
100
AcDbSpline
 70
8
 71
3
 72
8
 73
4
 74
0
 40
0
 40
0
 40
0
 40
0
 40
1
 40
1
 40
1
 40
1
 10
149.280000
 20
42.320000
 30
0.0
 10
147.440000
 20
42.000000
 30
0.0
 10
145.840000
 20
41.760000
 30
0.0
 10
144.560000
 20
41.760000
 30
0.0
  0
SPLINE
  5
359
100
AcDbEntity
  8
0
 62
7
100
AcDbSpline
 70
8
 71
3
 72
8
 73
4
 74
0
 40
0
 40
0
 40
0
 40
0
 40
1
 40
1
 40
1
 40
1
 10
144.560000
 20
41.760000
 30
0.0
 10
141.760000
 20
41.760000
 30
0.0
 10
139.760000
 20
42.240000
 30
0.0
 10
138.480000
 20
43.200000
 30
0.0
  0
SPLINE
  5
35a
100
AcDbEntity
  8
0
 62
7
100
AcDbSpline
 70
8
 71
3
 72
8
 73
4
 74
0
 40
0
 40
0
 40
0
 40
0
 40
1
 40
1
 40
1
 40
1
 10
138.480000
 20
43.200000
 30
0.0
 10
137.280000
 20
44.240000
 30
0.0
 10
136.480000
 20
45.440000
 30
0.0
 10
136.160000
 20
46.960000
 30
0.0
  0
SPLINE
  5
35b
100
AcDbEntity
  8
0
 62
7
100
AcDbSpline
 70
8
 71
3
 72
8
 73
4
 74
0
 40
0
 40
0
 40
0
 40
0
 40
1
 40
1
 40
1
 40
1
 10
136.160000
 20
46.960000
 30
0.0
 10
135.920000
 20
48.480000
 30
0.0
 10
135.760000
 20
50.560000
 30
0.0
 10
135.760000
 20
53.200000
 30
0.0
  0
LINE
  5
35c
100
AcDbEntity
  8
0
 62
7
100
AcDbLine
 10
135.760000
 20
53.200000
 30
0.0
 11
135.760000
 21
74.720000
 31
0.0
  0
LINE
  5
35d
100
AcDbEntity
  8
0
 62
7
100
AcDbLine
 10
135.760000
 20
74.720000
 30
0.0
 11
131.200000
 21
74.720000
 31
0.0
  0
LINE
  5
35e
100
AcDbEntity
  8
0
 62
7
100
AcDbLine
 10
131.200000
 20
74.720000
 30
0.0
 11
131.200000
 21
79.600000
 31
0.0
  0
LINE
  5
35f
100
AcDbEntity
  8
0
 62
7
100
AcDbLine
 10
131.200000
 20
79.600000
 30
0.0
 11
135.760000
 21
79.600000
 31
0.0
  0
LINE
  5
360
100
AcDbEntity
  8
0
 62
7
100
AcDbLine
 10
135.760000
 20
79.600000
 30
0.0
 11
135.760000
 21
88.880000
 31
0.0
  0
LINE
  5
361
100
AcDbEntity
  8
0
 62
7
100
AcDbLine
 10
135.760000
 20
88.880000
 30
0.0
 11
142.080000
 21
92.720000
 31
0.0
  0
LINE
  5
362
100
AcDbEntity
  8
0
 62
7
100
AcDbLine
 10
142.080000
 20
92.720000
 30
0.0
 11
142.080000
 21
79.600000
 31
0.0
  0
LINE
  5
363
100
AcDbEntity
  8
0
 62
7
100
AcDbLine
 10
142.080000
 20
79.600000
 30
0.0
 11
148.400000
 21
79.600000
 31
0.0
  0
LINE
  5
364
100
AcDbEntity
  8
0
 62
7
100
AcDbLine
 10
148.400000
 20
79.600000
 30
0.0
 11
148.400000
 21
74.720000
 31
0.0
  0
LINE
  5
365
100
AcDbEntity
  8
0
 62
7
100
AcDbLine
 10
148.400000
 20
74.720000
 30
0.0
 11
142.080000
 21
74.720000
 31
0.0
  0
LINE
  5
366
100
AcDbEntity
  8
0
 62
7
100
AcDbLine
 10
142.080000
 20
74.720000
 30
0.0
 11
142.080000
 21
52.880000
 31
0.0
  0
SPLINE
  5
367
100
AcDbEntity
  8
0
 62
7
100
AcDbSpline
 70
8
 71
3
 72
8
 73
4
 74
0
 40
0
 40
0
 40
0
 40
0
 40
1
 40
1
 40
1
 40
1
 10
142.080000
 20
52.880000
 30
0.0
 10
142.080000
 20
50.960000
 30
0.0
 10
142.320000
 20
49.680000
 30
0.0
 10
142.640000
 20
48.880000
 30
0.0
  0
SPLINE
  5
368
100
AcDbEntity
  8
0
 62
7
100
AcDbSpline
 70
8
 71
3
 72
8
 73
4
 74
0
 40
0
 40
0
 40
0
 40
0
 40
1
 40
1
 40
1
 40
1
 10
142.640000
 20
48.880000
 30
0.0
 10
143.040000
 20
48.080000
 30
0.0
 10
144.080000
 20
47.680000
 30
0.0
 10
145.600000
 20
47.680000
 30
0.0
  0
SPLINE
  5
369
100
AcDbEntity
  8
0
 62
7
100
AcDbSpline
 70
8
 71
3
 72
8
 73
4
 74
0
 40
0
 40
0
 40
0
 40
0
 40
1
 40
1
 40
1
 40
1
 10
145.600000
 20
47.680000
 30
0.0
 10
146.560000
 20
47.680000
 30
0.0
 10
147.440000
 20
47.760000
 30
0.0
 10
148.400000
 20
48.000000
 30
0.0
  0
LINE
  5
36a
100
AcDbEntity
  8
0
 62
7
100
AcDbLine
 10
148.400000
 20
48.000000
 30
0.0
 11
149.280000
 21
42.320000
 31
0.0
  0
LINE
  5
36b
100
AcDbEntity
  8
0
 62
7
100
AcDbLine
 10
149.280000
 20
42.320000
 30
0.0
 11
149.280000
 21
42.320000
 31
0.0
  0
SPLINE
  5
36c
100
AcDbEntity
  8
0
 62
7
100
AcDbSpline
 70
8
 71
3
 72
8
 73
4
 74
0
 40
0
 40
0
 40
0
 40
0
 40
1
 40
1
 40
1
 40
1
 10
169.920000
 20
80.400000
 30
0.0
 10
174.960000
 20
80.400000
 30
0.0
 10
179.120000
 20
78.800000
 30
0.0
 10
182.480000
 20
75.520000
 30
0.0
  0
SPLINE
  5
36d
100
AcDbEntity
  8
0
 62
7
100
AcDbSpline
 70
8
 71
3
 72
8
 73
4
 74
0
 40
0
 40
0
 40
0
 40
0
 40
1
 40
1
 40
1
 40
1
 10
182.480000
 20
75.520000
 30
0.0
 10
185.760000
 20
72.240000
 30
0.0
 10
187.440000
 20
67.520000
 30
0.0
 10
187.440000
 20
61.520000
 30
0.0
  0
SPLINE
  5
36e
100
AcDbEntity
  8
0
 62
7
100
AcDbSpline
 70
8
 71
3
 72
8
 73
4
 74
0
 40
0
 40
0
 40
0
 40
0
 40
1
 40
1
 40
1
 40
1
 10
187.440000
 20
61.520000
 30
0.0
 10
187.440000
 20
54.160000
 30
0.0
 10
185.680000
 20
48.960000
 30
0.0
 10
182.080000
 20
45.920000
 30
0.0
  0
SPLINE
  5
36f
100
AcDbEntity
  8
0
 62
7
100
AcDbSpline
 70
8
 71
3
 72
8
 73
4
 74
0
 40
0
 40
0
 40
0
 40
0
 40
1
 40
1
 40
1
 40
1
 10
182.080000
 20
45.920000
 30
0.0
 10
178.480000
 20
42.880000
 30
0.0
 10
174.480000
 20
41.360000
 30
0.0
 10
169.920000
 20
41.360000
 30
0.0
  0
SPLINE
  5
370
100
AcDbEntity
  8
0
 62
7
100
AcDbSpline
 70
8
 71
3
 72
8
 73
4
 74
0
 40
0
 40
0
 40
0
 40
0
 40
1
 40
1
 40
1
 40
1
 10
169.920000
 20
41.360000
 30
0.0
 10
165.200000
 20
41.360000
 30
0.0
 10
161.120000
 20
42.960000
 30
0.0
 10
157.680000
 20
46.080000
 30
0.0
  0
SPLINE
  5
371
100
AcDbEntity
  8
0
 62
7
100
AcDbSpline
 70
8
 71
3
 72
8
 73
4
 74
0
 40
0
 40
0
 40
0
 40
0
 40
1
 40
1
 40
1
 40
1
 10
157.680000
 20
46.080000
 30
0.0
 10
154.240000
 20
49.200000
 30
0.0
 10
152.480000
 20
54.160000
 30
0.0
 10
152.480000
 20
60.880000
 30
0.0
  0
SPLINE
  5
372
100
AcDbEntity
  8
0
 62
7
100
AcDbSpline
 70
8
 71
3
 72
8
 73
4
 74
0
 40
0
 40
0
 40
0
 40
0
 40
1
 40
1
 40
1
 40
1
 10
152.480000
 20
60.880000
 30
0.0
 10
152.480000
 20
67.440000
 30
0.0
 10
154.160000
 20
72.320000
 30
0.0
 10
157.520000
 20
75.600000
 30
0.0
  0
SPLINE
  5
373
100
AcDbEntity
  8
0
 62
7
100
AcDbSpline
 70
8
 71
3
 72
8
 73
4
 74
0
 40
0
 40
0
 40
0
 40
0
 40
1
 40
1
 40
1
 40
1
 10
157.520000
 20
75.600000
 30
0.0
 10
160.880000
 20
78.800000
 30
0.0
 10
164.960000
 20
80.400000
 30
0.0
 10
169.920000
 20
80.400000
 30
0.0
  0
LINE
  5
374
100
AcDbEntity
  8
0
 62
7
100
AcDbLine
 10
169.920000
 20
80.400000
 30
0.0
 11
169.920000
 21
80.400000
 31
0.0
  0
SPLINE
  5
375
100
AcDbEntity
  8
0
 62
7
100
AcDbSpline
 70
8
 71
3
 72
8
 73
4
 74
0
 40
0
 40
0
 40
0
 40
0
 40
1
 40
1
 40
1
 40
1
 10
169.920000
 20
46.560000
 30
0.0
 10
173.520000
 20
46.560000
 30
0.0
 10
176.320000
 20
47.920000
 30
0.0
 10
178.160000
 20
50.640000
 30
0.0
  0
SPLINE
  5
376
100
AcDbEntity
  8
0
 62
7
100
AcDbSpline
 70
8
 71
3
 72
8
 73
4
 74
0
 40
0
 40
0
 40
0
 40
0
 40
1
 40
1
 40
1
 40
1
 10
178.160000
 20
50.640000
 30
0.0
 10
180.080000
 20
53.280000
 30
0.0
 10
180.960000
 20
56.800000
 30
0.0
 10
180.960000
 20
61.120000
 30
0.0
  0
SPLINE
  5
377
100
AcDbEntity
  8
0
 62
7
100
AcDbSpline
 70
8
 71
3
 72
8
 73
4
 74
0
 40
0
 40
0
 40
0
 40
0
 40
1
 40
1
 40
1
 40
1
 10
180.960000
 20
61.120000
 30
0.0
 10
180.960000
 20
65.840000
 30
0.0
 10
179.920000
 20
69.360000
 30
0.0
 10
177.760000
 20
71.680000
 30
0.0
  0
SPLINE
  5
378
100
AcDbEntity
  8
0
 62
7
100
AcDbSpline
 70
8
 71
3
 72
8
 73
4
 74
0
 40
0
 40
0
 40
0
 40
0
 40
1
 40
1
 40
1
 40
1
 10
177.760000
 20
71.680000
 30
0.0
 10
175.680000
 20
74.080000
 30
0.0
 10
173.040000
 20
75.280000
 30
0.0
 10
169.920000
 20
75.280000
 30
0.0
  0
SPLINE
  5
379
100
AcDbEntity
  8
0
 62
7
100
AcDbSpline
 70
8
 71
3
 72
8
 73
4
 74
0
 40
0
 40
0
 40
0
 40
0
 40
1
 40
1
 40
1
 40
1
 10
169.920000
 20
75.280000
 30
0.0
 10
166.720000
 20
75.280000
 30
0.0
 10
164.080000
 20
74.080000
 30
0.0
 10
162.000000
 20
71.680000
 30
0.0
  0
SPLINE
  5
37a
100
AcDbEntity
  8
0
 62
7
100
AcDbSpline
 70
8
 71
3
 72
8
 73
4
 74
0
 40
0
 40
0
 40
0
 40
0
 40
1
 40
1
 40
1
 40
1
 10
162.000000
 20
71.680000
 30
0.0
 10
160.000000
 20
69.280000
 30
0.0
 10
158.960000
 20
65.680000
 30
0.0
 10
158.960000
 20
60.880000
 30
0.0
  0
SPLINE
  5
37b
100
AcDbEntity
  8
0
 62
7
100
AcDbSpline
 70
8
 71
3
 72
8
 73
4
 74
0
 40
0
 40
0
 40
0
 40
0
 40
1
 40
1
 40
1
 40
1
 10
158.960000
 20
60.880000
 30
0.0
 10
158.960000
 20
56.160000
 30
0.0
 10
160.000000
 20
52.640000
 30
0.0
 10
162.080000
 20
50.160000
 30
0.0
  0
SPLINE
  5
37c
100
AcDbEntity
  8
0
 62
7
100
AcDbSpline
 70
8
 71
3
 72
8
 73
4
 74
0
 40
0
 40
0
 40
0
 40
0
 40
1
 40
1
 40
1
 40
1
 10
162.080000
 20
50.160000
 30
0.0
 10
164.160000
 20
47.760000
 30
0.0
 10
166.800000
 20
46.560000
 30
0.0
 10
169.920000
 20
46.560000
 30
0.0
  0
LINE
  5
37d
100
AcDbEntity
  8
0
 62
7
100
AcDbLine
 10
169.920000
 20
46.560000
 30
0.0
 11
169.920000
 21
46.560000
 31
0.0
  0
LINE
  5
37e
100
AcDbEntity
  8
0
 62
7
100
AcDbLine
 10
225.040000
 20
42.240000
 30
0.0
 11
219.360000
 21
42.240000
 31
0.0
  0
LINE
  5
37f
100
AcDbEntity
  8
0
 62
7
100
AcDbLine
 10
219.360000
 20
42.240000
 30
0.0
 11
219.360000
 21
47.760000
 31
0.0
  0
LINE
  5
380
100
AcDbEntity
  8
0
 62
7
100
AcDbLine
 10
219.360000
 20
47.760000
 30
0.0
 11
219.200000
 21
47.760000
 31
0.0
  0
SPLINE
  5
381
100
AcDbEntity
  8
0
 62
7
100
AcDbSpline
 70
8
 71
3
 72
8
 73
4
 74
0
 40
0
 40
0
 40
0
 40
0
 40
1
 40
1
 40
1
 40
1
 10
219.200000
 20
47.760000
 30
0.0
 10
216.320000
 20
43.520000
 30
0.0
 10
212.400000
 20
41.360000
 30
0.0
 10
207.520000
 20
41.360000
 30
0.0
  0
SPLINE
  5
382
100
AcDbEntity
  8
0
 62
7
100
AcDbSpline
 70
8
 71
3
 72
8
 73
4
 74
0
 40
0
 40
0
 40
0
 40
0
 40
1
 40
1
 40
1
 40
1
 10
207.520000
 20
41.360000
 30
0.0
 10
204.880000
 20
41.360000
 30
0.0
 10
202.480000
 20
42.000000
 30
0.0
 10
200.240000
 20
43.200000
 30
0.0
  0
SPLINE
  5
383
100
AcDbEntity
  8
0
 62
7
100
AcDbSpline
 70
8
 71
3
 72
8
 73
4
 74
0
 40
0
 40
0
 40
0
 40
0
 40
1
 40
1
 40
1
 40
1
 10
200.240000
 20
43.200000
 30
0.0
 10
198.080000
 20
44.400000
 30
0.0
 10
196.560000
 20
46.080000
 30
0.0
 10
195.840000
 20
48.160000
 30
0.0
  0
SPLINE
  5
384
100
AcDbEntity
  8
0
 62
7
100
AcDbSpline
 70
8
 71
3
 72
8
 73
4
 74
0
 40
0
 40
0
 40
0
 40
0
 40
1
 40
1
 40
1
 40
1
 10
195.840000
 20
48.160000
 30
0.0
 10
195.120000
 20
50.320000
 30
0.0
 10
194.720000
 20
53.040000
 30
0.0
 10
194.720000
 20
56.400000
 30
0.0
  0
LINE
  5
385
100
AcDbEntity
  8
0
 62
7
100
AcDbLine
 10
194.720000
 20
56.400000
 30
0.0
 11
194.720000
 21
79.600000
 31
0.0
  0
LINE
  5
386
100
AcDbEntity
  8
0
 62
7
100
AcDbLine
 10
194.720000
 20
79.600000
 30
0.0
 11
201.040000
 21
79.600000
 31
0.0
  0
LINE
  5
387
100
AcDbEntity
  8
0
 62
7
100
AcDbLine
 10
201.040000
 20
79.600000
 30
0.0
 11
201.040000
 21
58.880000
 31
0.0
  0
SPLINE
  5
388
100
AcDbEntity
  8
0
 62
7
100
AcDbSpline
 70
8
 71
3
 72
8
 73
4
 74
0
 40
0
 40
0
 40
0
 40
0
 40
1
 40
1
 40
1
 40
1
 10
201.040000
 20
58.880000
 30
0.0
 10
201.040000
 20
55.600000
 30
0.0
 10
201.200000
 20
53.200000
 30
0.0
 10
201.520000
 20
51.760000
 30
0.0
  0
SPLINE
  5
389
100
AcDbEntity
  8
0
 62
7
100
AcDbSpline
 70
8
 71
3
 72
8
 73
4
 74
0
 40
0
 40
0
 40
0
 40
0
 40
1
 40
1
 40
1
 40
1
 10
201.520000
 20
51.760000
 30
0.0
 10
201.840000
 20
50.400000
 30
0.0
 10
202.640000
 20
49.200000
 30
0.0
 10
204.000000
 20
48.240000
 30
0.0
  0
SPLINE
  5
38a
100
AcDbEntity
  8
0
 62
7
100
AcDbSpline
 70
8
 71
3
 72
8
 73
4
 74
0
 40
0
 40
0
 40
0
 40
0
 40
1
 40
1
 40
1
 40
1
 10
204.000000
 20
48.240000
 30
0.0
 10
205.360000
 20
47.360000
 30
0.0
 10
206.960000
 20
46.880000
 30
0.0
 10
208.800000
 20
46.880000
 30
0.0
  0
SPLINE
  5
38b
100
AcDbEntity
  8
0
 62
7
100
AcDbSpline
 70
8
 71
3
 72
8
 73
4
 74
0
 40
0
 40
0
 40
0
 40
0
 40
1
 40
1
 40
1
 40
1
 10
208.800000
 20
46.880000
 30
0.0
 10
211.200000
 20
46.880000
 30
0.0
 10
213.440000
 20
47.680000
 30
0.0
 10
215.520000
 20
49.360000
 30
0.0
  0
SPLINE
  5
38c
100
AcDbEntity
  8
0
 62
7
100
AcDbSpline
 70
8
 71
3
 72
8
 73
4
 74
0
 40
0
 40
0
 40
0
 40
0
 40
1
 40
1
 40
1
 40
1
 10
215.520000
 20
49.360000
 30
0.0
 10
217.680000
 20
51.040000
 30
0.0
 10
218.720000
 20
54.400000
 30
0.0
 10
218.720000
 20
59.600000
 30
0.0
  0
LINE
  5
38d
100
AcDbEntity
  8
0
 62
7
100
AcDbLine
 10
218.720000
 20
59.600000
 30
0.0
 11
218.720000
 21
79.600000
 31
0.0
  0
LINE
  5
38e
100
AcDbEntity
  8
0
 62
7
100
AcDbLine
 10
218.720000
 20
79.600000
 30
0.0
 11
225.040000
 21
79.600000
 31
0.0
  0
LINE
  5
38f
100
AcDbEntity
  8
0
 62
7
100
AcDbLine
 10
225.040000
 20
79.600000
 30
0.0
 11
225.040000
 21
42.240000
 31
0.0
  0
LINE
  5
390
100
AcDbEntity
  8
0
 62
7
100
AcDbLine
 10
225.040000
 20
42.240000
 30
0.0
 11
225.040000
 21
42.240000
 31
0.0
  0
LINE
  5
391
100
AcDbEntity
  8
0
 62
7
100
AcDbLine
 10
241.200000
 20
42.240000
 30
0.0
 11
234.800000
 21
42.240000
 31
0.0
  0
LINE
  5
392
100
AcDbEntity
  8
0
 62
7
100
AcDbLine
 10
234.800000
 20
42.240000
 30
0.0
 11
234.800000
 21
79.600000
 31
0.0
  0
LINE
  5
393
100
AcDbEntity
  8
0
 62
7
100
AcDbLine
 10
234.800000
 20
79.600000
 30
0.0
 11
241.200000
 21
79.600000
 31
0.0
  0
LINE
  5
394
100
AcDbEntity
  8
0
 62
7
100
AcDbLine
 10
241.200000
 20
79.600000
 30
0.0
 11
241.200000
 21
42.240000
 31
0.0
  0
LINE
  5
395
100
AcDbEntity
  8
0
 62
7
100
AcDbLine
 10
241.200000
 20
42.240000
 30
0.0
 11
241.200000
 21
42.240000
 31
0.0
  0
LINE
  5
396
100
AcDbEntity
  8
0
 62
7
100
AcDbLine
 10
241.200000
 20
86.640000
 30
0.0
 11
234.800000
 21
86.640000
 31
0.0
  0
LINE
  5
397
100
AcDbEntity
  8
0
 62
7
100
AcDbLine
 10
234.800000
 20
86.640000
 30
0.0
 11
234.800000
 21
93.840000
 31
0.0
  0
LINE
  5
398
100
AcDbEntity
  8
0
 62
7
100
AcDbLine
 10
234.800000
 20
93.840000
 30
0.0
 11
241.200000
 21
93.840000
 31
0.0
  0
LINE
  5
399
100
AcDbEntity
  8
0
 62
7
100
AcDbLine
 10
241.200000
 20
93.840000
 30
0.0
 11
241.200000
 21
86.640000
 31
0.0
  0
LINE
  5
39a
100
AcDbEntity
  8
0
 62
7
100
AcDbLine
 10
241.200000
 20
86.640000
 30
0.0
 11
241.200000
 21
86.640000
 31
0.0
  0
LINE
  5
39b
100
AcDbEntity
  8
0
 62
7
100
AcDbLine
 10
257.200000
 20
42.240000
 30
0.0
 11
250.800000
 21
42.240000
 31
0.0
  0
LINE
  5
39c
100
AcDbEntity
  8
0
 62
7
100
AcDbLine
 10
250.800000
 20
42.240000
 30
0.0
 11
250.800000
 21
93.840000
 31
0.0
  0
LINE
  5
39d
100
AcDbEntity
  8
0
 62
7
100
AcDbLine
 10
250.800000
 20
93.840000
 30
0.0
 11
257.200000
 21
93.840000
 31
0.0
  0
LINE
  5
39e
100
AcDbEntity
  8
0
 62
7
100
AcDbLine
 10
257.200000
 20
93.840000
 30
0.0
 11
257.200000
 21
42.240000
 31
0.0
  0
LINE
  5
39f
100
AcDbEntity
  8
0
 62
7
100
AcDbLine
 10
257.200000
 20
42.240000
 30
0.0
 11
257.200000
 21
42.240000
 31
0.0
  0
LINE
  5
3a0
100
AcDbEntity
  8
0
 62
7
100
AcDbLine
 10
273.120000
 20
42.240000
 30
0.0
 11
266.800000
 21
42.240000
 31
0.0
  0
LINE
  5
3a1
100
AcDbEntity
  8
0
 62
7
100
AcDbLine
 10
266.800000
 20
42.240000
 30
0.0
 11
266.800000
 21
93.840000
 31
0.0
  0
LINE
  5
3a2
100
AcDbEntity
  8
0
 62
7
100
AcDbLine
 10
266.800000
 20
93.840000
 30
0.0
 11
273.120000
 21
93.840000
 31
0.0
  0
LINE
  5
3a3
100
AcDbEntity
  8
0
 62
7
100
AcDbLine
 10
273.120000
 20
93.840000
 30
0.0
 11
273.120000
 21
42.240000
 31
0.0
  0
LINE
  5
3a4
100
AcDbEntity
  8
0
 62
7
100
AcDbLine
 10
273.120000
 20
42.240000
 30
0.0
 11
273.120000
 21
42.240000
 31
0.0
  0
LINE
  5
3a5
100
AcDbEntity
  8
0
 62
7
100
AcDbLine
 10
315.280000
 20
59.360000
 30
0.0
 11
287.280000
 21
59.360000
 31
0.0
  0
SPLINE
  5
3a6
100
AcDbEntity
  8
0
 62
7
100
AcDbSpline
 70
8
 71
3
 72
8
 73
4
 74
0
 40
0
 40
0
 40
0
 40
0
 40
1
 40
1
 40
1
 40
1
 10
287.280000
 20
59.360000
 30
0.0
 10
287.520000
 20
55.200000
 30
0.0
 10
288.720000
 20
52.080000
 30
0.0
 10
290.800000
 20
49.840000
 30
0.0
  0
SPLINE
  5
3a7
100
AcDbEntity
  8
0
 62
7
100
AcDbSpline
 70
8
 71
3
 72
8
 73
4
 74
0
 40
0
 40
0
 40
0
 40
0
 40
1
 40
1
 40
1
 40
1
 10
290.800000
 20
49.840000
 30
0.0
 10
292.960000
 20
47.680000
 30
0.0
 10
295.520000
 20
46.560000
 30
0.0
 10
298.720000
 20
46.560000
 30
0.0
  0
SPLINE
  5
3a8
100
AcDbEntity
  8
0
 62
7
100
AcDbSpline
 70
8
 71
3
 72
8
 73
4
 74
0
 40
0
 40
0
 40
0
 40
0
 40
1
 40
1
 40
1
 40
1
 10
298.720000
 20
46.560000
 30
0.0
 10
301.120000
 20
46.560000
 30
0.0
 10
303.120000
 20
47.200000
 30
0.0
 10
304.800000
 20
48.480000
 30
0.0
  0
SPLINE
  5
3a9
100
AcDbEntity
  8
0
 62
7
100
AcDbSpline
 70
8
 71
3
 72
8
 73
4
 74
0
 40
0
 40
0
 40
0
 40
0
 40
1
 40
1
 40
1
 40
1
 10
304.800000
 20
48.480000
 30
0.0
 10
306.400000
 20
49.760000
 30
0.0
 10
307.680000
 20
51.680000
 30
0.0
 10
308.560000
 20
54.320000
 30
0.0
  0
LINE
  5
3aa
100
AcDbEntity
  8
0
 62
7
100
AcDbLine
 10
308.560000
 20
54.320000
 30
0.0
 11
315.040000
 21
53.520000
 31
0.0
  0
SPLINE
  5
3ab
100
AcDbEntity
  8
0
 62
7
100
AcDbSpline
 70
8
 71
3
 72
8
 73
4
 74
0
 40
0
 40
0
 40
0
 40
0
 40
1
 40
1
 40
1
 40
1
 10
315.040000
 20
53.520000
 30
0.0
 10
314.000000
 20
49.600000
 30
0.0
 10
312.080000
 20
46.640000
 30
0.0
 10
309.200000
 20
44.560000
 30
0.0
  0
SPLINE
  5
3ac
100
AcDbEntity
  8
0
 62
7
100
AcDbSpline
 70
8
 71
3
 72
8
 73
4
 74
0
 40
0
 40
0
 40
0
 40
0
 40
1
 40
1
 40
1
 40
1
 10
309.200000
 20
44.560000
 30
0.0
 10
306.400000
 20
42.400000
 30
0.0
 10
302.880000
 20
41.360000
 30
0.0
 10
298.720000
 20
41.360000
 30
0.0
  0
SPLINE
  5
3ad
100
AcDbEntity
  8
0
 62
7
100
AcDbSpline
 70
8
 71
3
 72
8
 73
4
 74
0
 40
0
 40
0
 40
0
 40
0
 40
1
 40
1
 40
1
 40
1
 10
298.720000
 20
41.360000
 30
0.0
 10
293.120000
 20
41.360000
 30
0.0
 10
288.720000
 20
43.120000
 30
0.0
 10
285.520000
 20
46.560000
 30
0.0
  0
SPLINE
  5
3ae
100
AcDbEntity
  8
0
 62
7
100
AcDbSpline
 70
8
 71
3
 72
8
 73
4
 74
0
 40
0
 40
0
 40
0
 40
0
 40
1
 40
1
 40
1
 40
1
 10
285.520000
 20
46.560000
 30
0.0
 10
282.400000
 20
50.000000
 30
0.0
 10
280.800000
 20
54.640000
 30
0.0
 10
280.800000
 20
60.640000
 30
0.0
  0
SPLINE
  5
3af
100
AcDbEntity
  8
0
 62
7
100
AcDbSpline
 70
8
 71
3
 72
8
 73
4
 74
0
 40
0
 40
0
 40
0
 40
0
 40
1
 40
1
 40
1
 40
1
 10
280.800000
 20
60.640000
 30
0.0
 10
280.800000
 20
66.480000
 30
0.0
 10
282.320000
 20
71.280000
 30
0.0
 10
285.440000
 20
74.960000
 30
0.0
  0
SPLINE
  5
3b0
100
AcDbEntity
  8
0
 62
7
100
AcDbSpline
 70
8
 71
3
 72
8
 73
4
 74
0
 40
0
 40
0
 40
0
 40
0
 40
1
 40
1
 40
1
 40
1
 10
285.440000
 20
74.960000
 30
0.0
 10
288.480000
 20
78.560000
 30
0.0
 10
292.800000
 20
80.400000
 30
0.0
 10
298.320000
 20
80.400000
 30
0.0
  0
SPLINE
  5
3b1
100
AcDbEntity
  8
0
 62
7
100
AcDbSpline
 70
8
 71
3
 72
8
 73
4
 74
0
 40
0
 40
0
 40
0
 40
0
 40
1
 40
1
 40
1
 40
1
 10
298.320000
 20
80.400000
 30
0.0
 10
301.040000
 20
80.400000
 30
0.0
 10
303.680000
 20
79.840000
 30
0.0
 10
306.160000
 20
78.640000
 30
0.0
  0
SPLINE
  5
3b2
100
AcDbEntity
  8
0
 62
7
100
AcDbSpline
 70
8
 71
3
 72
8
 73
4
 74
0
 40
0
 40
0
 40
0
 40
0
 40
1
 40
1
 40
1
 40
1
 10
306.160000
 20
78.640000
 30
0.0
 10
308.720000
 20
77.440000
 30
0.0
 10
310.880000
 20
75.360000
 30
0.0
 10
312.640000
 20
72.560000
 30
0.0
  0
SPLINE
  5
3b3
100
AcDbEntity
  8
0
 62
7
100
AcDbSpline
 70
8
 71
3
 72
8
 73
4
 74
0
 40
0
 40
0
 40
0
 40
0
 40
1
 40
1
 40
1
 40
1
 10
312.640000
 20
72.560000
 30
0.0
 10
314.400000
 20
69.680000
 30
0.0
 10
315.280000
 20
65.280000
 30
0.0
 10
315.280000
 20
59.360000
 30
0.0
  0
LINE
  5
3b4
100
AcDbEntity
  8
0
 62
7
100
AcDbLine
 10
315.280000
 20
59.360000
 30
0.0
 11
315.280000
 21
59.360000
 31
0.0
  0
SPLINE
  5
3b5
100
AcDbEntity
  8
0
 62
7
100
AcDbSpline
 70
8
 71
3
 72
8
 73
4
 74
0
 40
0
 40
0
 40
0
 40
0
 40
1
 40
1
 40
1
 40
1
 10
308.720000
 20
64.560000
 30
0.0
 10
308.480000
 20
68.320000
 30
0.0
 10
307.280000
 20
71.040000
 30
0.0
 10
305.200000
 20
72.720000
 30
0.0
  0
SPLINE
  5
3b6
100
AcDbEntity
  8
0
 62
7
100
AcDbSpline
 70
8
 71
3
 72
8
 73
4
 74
0
 40
0
 40
0
 40
0
 40
0
 40
1
 40
1
 40
1
 40
1
 10
305.200000
 20
72.720000
 30
0.0
 10
303.120000
 20
74.400000
 30
0.0
 10
300.800000
 20
75.280000
 30
0.0
 10
298.320000
 20
75.280000
 30
0.0
  0
SPLINE
  5
3b7
100
AcDbEntity
  8
0
 62
7
100
AcDbSpline
 70
8
 71
3
 72
8
 73
4
 74
0
 40
0
 40
0
 40
0
 40
0
 40
1
 40
1
 40
1
 40
1
 10
298.320000
 20
75.280000
 30
0.0
 10
295.360000
 20
75.280000
 30
0.0
 10
292.880000
 20
74.240000
 30
0.0
 10
290.960000
 20
72.240000
 30
0.0
  0
SPLINE
  5
3b8
100
AcDbEntity
  8
0
 62
7
100
AcDbSpline
 70
8
 71
3
 72
8
 73
4
 74
0
 40
0
 40
0
 40
0
 40
0
 40
1
 40
1
 40
1
 40
1
 10
290.960000
 20
72.240000
 30
0.0
 10
289.040000
 20
70.240000
 30
0.0
 10
287.920000
 20
67.680000
 30
0.0
 10
287.680000
 20
64.560000
 30
0.0
  0
LINE
  5
3b9
100
AcDbEntity
  8
0
 62
7
100
AcDbLine
 10
287.680000
 20
64.560000
 30
0.0
 11
308.720000
 21
64.560000
 31
0.0
  0
LINE
  5
3ba
100
AcDbEntity
  8
0
 62
7
100
AcDbLine
 10
308.720000
 20
64.560000
 30
0.0
 11
308.720000
 21
64.560000
 31
0.0
  0
LINE
  5
3bb
100
AcDbEntity
  8
0
 62
7
100
AcDbLine
 10
331.680000
 20
42.240000
 30
0.0
 11
324.480000
 21
42.240000
 31
0.0
  0
LINE
  5
3bc
100
AcDbEntity
  8
0
 62
7
100
AcDbLine
 10
324.480000
 20
42.240000
 30
0.0
 11
324.480000
 21
49.440000
 31
0.0
  0
LINE
  5
3bd
100
AcDbEntity
  8
0
 62
7
100
AcDbLine
 10
324.480000
 20
49.440000
 30
0.0
 11
331.680000
 21
49.440000
 31
0.0
  0
LINE
  5
3be
100
AcDbEntity
  8
0
 62
7
100
AcDbLine
 10
331.680000
 20
49.440000
 30
0.0
 11
331.680000
 21
42.240000
 31
0.0
  0
LINE
  5
3bf
100
AcDbEntity
  8
0
 62
7
100
AcDbLine
 10
331.680000
 20
42.240000
 30
0.0
 11
331.680000
 21
42.240000
 31
0.0
  0
LINE
  5
3c0
100
AcDbEntity
  8
0
 62
7
100
AcDbLine
 10
360.480000
 20
94.080000
 30
0.0
 11
359.520000
 21
88.480000
 31
0.0
  0
SPLINE
  5
3c1
100
AcDbEntity
  8
0
 62
7
100
AcDbSpline
 70
8
 71
3
 72
8
 73
4
 74
0
 40
0
 40
0
 40
0
 40
0
 40
1
 40
1
 40
1
 40
1
 10
359.520000
 20
88.480000
 30
0.0
 10
358.240000
 20
88.720000
 30
0.0
 10
356.960000
 20
88.880000
 30
0.0
 10
355.760000
 20
88.880000
 30
0.0
  0
SPLINE
  5
3c2
100
AcDbEntity
  8
0
 62
7
100
AcDbSpline
 70
8
 71
3
 72
8
 73
4
 74
0
 40
0
 40
0
 40
0
 40
0
 40
1
 40
1
 40
1
 40
1
 10
355.760000
 20
88.880000
 30
0.0
 10
354.240000
 20
88.880000
 30
0.0
 10
353.040000
 20
88.560000
 30
0.0
 10
352.000000
 20
87.920000
 30
0.0
  0
SPLINE
  5
3c3
100
AcDbEntity
  8
0
 62
7
100
AcDbSpline
 70
8
 71
3
 72
8
 73
4
 74
0
 40
0
 40
0
 40
0
 40
0
 40
1
 40
1
 40
1
 40
1
 10
352.000000
 20
87.920000
 30
0.0
 10
351.040000
 20
87.280000
 30
0.0
 10
350.560000
 20
85.680000
 30
0.0
 10
350.560000
 20
83.120000
 30
0.0
  0
LINE
  5
3c4
100
AcDbEntity
  8
0
 62
7
100
AcDbLine
 10
350.560000
 20
83.120000
 30
0.0
 11
350.560000
 21
79.600000
 31
0.0
  0
LINE
  5
3c5
100
AcDbEntity
  8
0
 62
7
100
AcDbLine
 10
350.560000
 20
79.600000
 30
0.0
 11
357.760000
 21
79.600000
 31
0.0
  0
LINE
  5
3c6
100
AcDbEntity
  8
0
 62
7
100
AcDbLine
 10
357.760000
 20
79.600000
 30
0.0
 11
357.760000
 21
74.720000
 31
0.0
  0
LINE
  5
3c7
100
AcDbEntity
  8
0
 62
7
100
AcDbLine
 10
357.760000
 20
74.720000
 30
0.0
 11
350.560000
 21
74.720000
 31
0.0
  0
LINE
  5
3c8
100
AcDbEntity
  8
0
 62
7
100
AcDbLine
 10
350.560000
 20
74.720000
 30
0.0
 11
350.560000
 21
42.240000
 31
0.0
  0
LINE
  5
3c9
100
AcDbEntity
  8
0
 62
7
100
AcDbLine
 10
350.560000
 20
42.240000
 30
0.0
 11
344.240000
 21
42.240000
 31
0.0
  0
LINE
  5
3ca
100
AcDbEntity
  8
0
 62
7
100
AcDbLine
 10
344.240000
 20
42.240000
 30
0.0
 11
344.240000
 21
74.720000
 31
0.0
  0
LINE
  5
3cb
100
AcDbEntity
  8
0
 62
7
100
AcDbLine
 10
344.240000
 20
74.720000
 30
0.0
 11
338.640000
 21
74.720000
 31
0.0
  0
LINE
  5
3cc
100
AcDbEntity
  8
0
 62
7
100
AcDbLine
 10
338.640000
 20
74.720000
 30
0.0
 11
338.640000
 21
79.600000
 31
0.0
  0
LINE
  5
3cd
100
AcDbEntity
  8
0
 62
7
100
AcDbLine
 10
338.640000
 20
79.600000
 30
0.0
 11
344.240000
 21
79.600000
 31
0.0
  0
LINE
  5
3ce
100
AcDbEntity
  8
0
 62
7
100
AcDbLine
 10
344.240000
 20
79.600000
 30
0.0
 11
344.240000
 21
83.600000
 31
0.0
  0
SPLINE
  5
3cf
100
AcDbEntity
  8
0
 62
7
100
AcDbSpline
 70
8
 71
3
 72
8
 73
4
 74
0
 40
0
 40
0
 40
0
 40
0
 40
1
 40
1
 40
1
 40
1
 10
344.240000
 20
83.600000
 30
0.0
 10
344.240000
 20
85.520000
 30
0.0
 10
344.400000
 20
87.200000
 30
0.0
 10
344.800000
 20
88.720000
 30
0.0
  0
SPLINE
  5
3d0
100
AcDbEntity
  8
0
 62
7
100
AcDbSpline
 70
8
 71
3
 72
8
 73
4
 74
0
 40
0
 40
0
 40
0
 40
0
 40
1
 40
1
 40
1
 40
1
 10
344.800000
 20
88.720000
 30
0.0
 10
345.120000
 20
90.240000
 30
0.0
 10
346.080000
 20
91.600000
 30
0.0
 10
347.600000
 20
92.880000
 30
0.0
  0
SPLINE
  5
3d1
100
AcDbEntity
  8
0
 62
7
100
AcDbSpline
 70
8
 71
3
 72
8
 73
4
 74
0
 40
0
 40
0
 40
0
 40
0
 40
1
 40
1
 40
1
 40
1
 10
347.600000
 20
92.880000
 30
0.0
 10
349.040000
 20
94.080000
 30
0.0
 10
351.440000
 20
94.720000
 30
0.0
 10
354.560000
 20
94.720000
 30
0.0
  0
SPLINE
  5
3d2
100
AcDbEntity
  8
0
 62
7
100
AcDbSpline
 70
8
 71
3
 72
8
 73
4
 74
0
 40
0
 40
0
 40
0
 40
0
 40
1
 40
1
 40
1
 40
1
 10
354.560000
 20
94.720000
 30
0.0
 10
356.400000
 20
94.720000
 30
0.0
 10
358.400000
 20
94.480000
 30
0.0
 10
360.480000
 20
94.080000
 30
0.0
  0
LINE
  5
3d3
100
AcDbEntity
  8
0
 62
7
100
AcDbLine
 10
360.480000
 20
94.080000
 30
0.0
 11
360.480000
 21
94.080000
 31
0.0
  0
LINE
  5
3d4
100
AcDbEntity
  8
0
 62
7
100
AcDbLine
 10
382.960000
 20
78.400000
 30
0.0
 11
380.800000
 21
72.560000
 31
0.0
  0
SPLINE
  5
3d5
100
AcDbEntity
  8
0
 62
7
100
AcDbSpline
 70
8
 71
3
 72
8
 73
4
 74
0
 40
0
 40
0
 40
0
 40
0
 40
1
 40
1
 40
1
 40
1
 10
380.800000
 20
72.560000
 30
0.0
 10
379.200000
 20
73.520000
 30
0.0
 10
377.680000
 20
73.920000
 30
0.0
 10
376.240000
 20
73.920000
 30
0.0
  0
SPLINE
  5
3d6
100
AcDbEntity
  8
0
 62
7
100
AcDbSpline
 70
8
 71
3
 72
8
 73
4
 74
0
 40
0
 40
0
 40
0
 40
0
 40
1
 40
1
 40
1
 40
1
 10
376.240000
 20
73.920000
 30
0.0
 10
373.840000
 20
73.920000
 30
0.0
 10
372.080000
 20
72.880000
 30
0.0
 10
370.800000
 20
70.800000
 30
0.0
  0
SPLINE
  5
3d7
100
AcDbEntity
  8
0
 62
7
100
AcDbSpline
 70
8
 71
3
 72
8
 73
4
 74
0
 40
0
 40
0
 40
0
 40
0
 40
1
 40
1
 40
1
 40
1
 10
370.800000
 20
70.800000
 30
0.0
 10
369.600000
 20
68.640000
 30
0.0
 10
368.960000
 20
65.680000
 30
0.0
 10
368.960000
 20
61.840000
 30
0.0
  0
LINE
  5
3d8
100
AcDbEntity
  8
0
 62
7
100
AcDbLine
 10
368.960000
 20
61.840000
 30
0.0
 11
368.960000
 21
42.240000
 31
0.0
  0
LINE
  5
3d9
100
AcDbEntity
  8
0
 62
7
100
AcDbLine
 10
368.960000
 20
42.240000
 30
0.0
 11
362.640000
 21
42.240000
 31
0.0
  0
LINE
  5
3da
100
AcDbEntity
  8
0
 62
7
100
AcDbLine
 10
362.640000
 20
42.240000
 30
0.0
 11
362.640000
 21
79.600000
 31
0.0
  0
LINE
  5
3db
100
AcDbEntity
  8
0
 62
7
100
AcDbLine
 10
362.640000
 20
79.600000
 30
0.0
 11
368.400000
 21
79.600000
 31
0.0
  0
LINE
  5
3dc
100
AcDbEntity
  8
0
 62
7
100
AcDbLine
 10
368.400000
 20
79.600000
 30
0.0
 11
368.400000
 21
73.920000
 31
0.0
  0
LINE
  5
3dd
100
AcDbEntity
  8
0
 62
7
100
AcDbLine
 10
368.400000
 20
73.920000
 30
0.0
 11
368.560000
 21
73.920000
 31
0.0
  0
SPLINE
  5
3de
100
AcDbEntity
  8
0
 62
7
100
AcDbSpline
 70
8
 71
3
 72
8
 73
4
 74
0
 40
0
 40
0
 40
0
 40
0
 40
1
 40
1
 40
1
 40
1
 10
368.560000
 20
73.920000
 30
0.0
 10
370.560000
 20
78.240000
 30
0.0
 10
373.200000
 20
80.400000
 30
0.0
 10
376.480000
 20
80.400000
 30
0.0
  0
SPLINE
  5
3df
100
AcDbEntity
  8
0
 62
7
100
AcDbSpline
 70
8
 71
3
 72
8
 73
4
 74
0
 40
0
 40
0
 40
0
 40
0
 40
1
 40
1
 40
1
 40
1
 10
376.480000
 20
80.400000
 30
0.0
 10
378.640000
 20
80.400000
 30
0.0
 10
380.800000
 20
79.760000
 30
0.0
 10
382.960000
 20
78.400000
 30
0.0
  0
LINE
  5
3e0
100
AcDbEntity
  8
0
 62
7
100
AcDbLine
 10
382.960000
 20
78.400000
 30
0.0
 11
382.960000
 21
78.400000
 31
0.0
  0
ENDSEC
  0
SECTION
  2
OBJECTS
  0
DICTIONARY
  5
C
330
0
100
AcDbDictionary
  3
ACAD_GROUP
350
D
  3
ACAD_MLINESTYLE
350
17
  0
DICTIONARY
  5
D
330
C
100
AcDbDictionary
  0
DICTIONARY
  5
1A
330
C
100
AcDbDictionary
  0
DICTIONARY
  5
17
330
C
100
AcDbDictionary
  3
STANDARD
350
18
  0
DICTIONARY
  5
19
330
C
100
AcDbDictionary
  0
ENDSEC
  0
EOF
