<?xml version="1.0" encoding="UTF-8" standalone="no"?>
<svg
   xmlns:dc="http://purl.org/dc/elements/1.1/"
   xmlns:cc="http://creativecommons.org/ns#"
   xmlns:rdf="http://www.w3.org/1999/02/22-rdf-syntax-ns#"
   xmlns:svg="http://www.w3.org/2000/svg"
   xmlns="http://www.w3.org/2000/svg"
   xmlns:sodipodi="http://sodipodi.sourceforge.net/DTD/sodipodi-0.dtd"
   xmlns:inkscape="http://www.inkscape.org/namespaces/inkscape"
   width="744.1"
   height="1052.4"
   version="1.1"
   id="svg31"
   sodipodi:docname="Superhero 7 (Bistouille.fr).svg"
   inkscape:version="0.92.2 (5c3e80d, 2017-08-06)">
  <metadata
     id="metadata35">
    <rdf:RDF>
      <cc:Work
         rdf:about="">
        <dc:format>image/svg+xml</dc:format>
        <dc:type
           rdf:resource="http://purl.org/dc/dcmitype/StillImage" />
      </cc:Work>
    </rdf:RDF>
  </metadata>
  <sodipodi:namedview
     pagecolor="#ffffff"
     bordercolor="#666666"
     borderopacity="1"
     objecttolerance="10"
     gridtolerance="10"
     guidetolerance="10"
     inkscape:pageopacity="0"
     inkscape:pageshadow="2"
     inkscape:window-width="1680"
     inkscape:window-height="981"
     id="namedview33"
     showgrid="false"
     inkscape:zoom="0.22424933"
     inkscape:cx="372.04999"
     inkscape:cy="526.20001"
     inkscape:window-x="-8"
     inkscape:window-y="-8"
     inkscape:window-maximized="1"
     inkscape:current-layer="svg31" />
  <defs
     id="defs2" />
  <path
     id="0"
     stroke-width="0.9"
     stroke="#FF0000"
     stroke-opacity="1"
     fill="#F50000"
     fill-opacity="1"
     fill-rule="evenodd"
     stroke-linecap="round"
     stroke-linejoin="round"
     d="M548,863.9 C546.7,863.7 545,863.2 544.2,862.7 543.4,862.3 542.2,862.2 541.6,862.4 540,863.1 521.8,859.2 519.7,857.7 518.7,857.1 517.4,856.6 516.7,856.6 516,856.6 513.7,854.9 511.6,852.9 509.5,850.9 506,848 503.8,846.4 503.8,846.4 499.9,843.7 499.9,843.7 499.9,843.7 497.3,845.3 497.3,845.3 495.9,846.1 494,846.7 493.2,846.5 492.4,846.3 491.7,846.7 491.7,847.3 491.7,850.2 484.2,849.8 483,846.9 482.4,845.4 482.1,845.3 481.1,846.3 479.6,847.8 475.9,846.4 475.4,843.9 475,842.3 474.9,842.3 473.4,843.6 472.1,844.8 471.6,844.8 470,843.9 468.9,843.4 468.1,842.4 468.1,841.9 468.1,841.3 467,840.7 465.7,840.5 464.4,840.3 462.5,838.8 461.4,837.2 459.6,834.7 459.5,833.6 460.7,828.2 461.4,824.9 462.6,820.5 463.3,818.5 464,816.6 465.1,812.9 465.8,810.3 466.4,807.7 468.6,803.4 470.5,800.8 472.4,798.1 474,795.2 474,794.1 474,793.1 474.5,791.6 475.2,790.7 479,786 496.9,738.1 501.8,719.5 503.3,713.6 505.1,707.3 505.8,705.3 507.3,700.9 506.7,700.3 501.7,700.9 497.3,701.4 484.6,702.5 466.4,703.7 457.9,704.3 453.8,705 451.7,706.1 448.4,707.9 445.2,707.6 441.2,705.1 436.8,702.4 428.8,702.4 417.2,705.1 417.2,705.1 407.1,707.4 407.1,707.4 407.1,707.4 406.4,710.7 406.4,710.7 405.6,714.5 404.8,715.3 402.7,714.2 401.8,713.7 399.6,713.2 397.6,713.1 394.7,712.8 394,712.4 393.5,710.4 392.6,707.2 388.7,706.8 385.3,709.7 383.9,710.9 382.8,712.4 382.8,713 382.8,715.5 374.6,717.6 372.7,715.5 372.3,715.1 370.3,714.9 368,715.2 364.6,715.7 363.8,715.4 361.4,713.2 359.9,711.9 358.1,710.9 357.4,711.1 356.7,711.3 353.5,709.9 350.3,708 344.8,704.8 344.5,704.5 344,699.9 343.5,695.6 342.9,694.7 337.6,690.3 332.2,685.8 331.4,685.4 328.3,685.9 325.6,686.3 324.8,686.1 324.8,685.2 324.8,684.5 323.8,683.8 322.7,683.5 321.5,683.3 318.9,681.5 316.8,679.6 314.8,677.6 311.5,675.5 309.6,674.9 306.2,673.7 306,673.7 290.9,680.5 282.5,684.2 270.7,690.2 264.5,693.7 252.8,700.5 236.4,708.4 234.2,708.4 231.4,708.4 211.8,715.9 202.5,720.5 197,723.2 187.6,727.7 181.7,730.5 175.8,733.3 170.9,736.1 170.9,736.7 170.9,737.3 168.8,739.2 166.2,740.9 163.6,742.7 161.4,744.8 161.4,745.7 161.4,746.8 160.7,747.2 158.8,747 157.3,746.9 155.8,746.5 155.4,746.2 154.3,745.2 152,746.3 151.9,747.9 151.9,748.6 148.1,751.2 143.6,753.5 136.1,757.4 135.4,758 136,760 137,763.1 133.2,764.8 127.6,763.8 124.2,763.1 122.6,763.4 116.5,765.5 110,767.8 109.3,768.2 109.3,770.5 109.3,773.4 107.5,775.1 105,774.4 103.9,774.1 103,774.6 102.6,775.7 102,777.2 101.4,777.4 97.4,776.9 93,776.4 92.8,776.5 89.3,780.3 87.3,782.4 85.7,784.6 85.7,785.1 85.6,787.4 78.3,796.8 75.3,798.4 72.6,799.9 72.3,800.6 72.1,806.3 71.9,809.8 71.1,814 70.3,815.8 69.4,817.5 68.6,821.4 68.4,824.5 68.1,831.7 65.8,845.5 64.9,846.1 64.6,846.4 59.1,846.7 52.8,846.9 41,847.2 29.8,846.3 24.5,844.5 24.5,844.5 21.5,843.5 21.5,843.5 21.5,843.5 21.7,831.4 21.7,831.4 21.8,823 22.4,818.4 23.5,816.7 24.4,815.3 28.4,807.1 32.5,798.4 36.5,789.7 41.8,779.9 44.4,776.6 49.5,769.9 62.1,759.4 66.3,758.3 70.5,757.2 75,752 73.7,749.7 72.8,748.2 73.2,747.3 75.6,745.2 80,741.3 84.1,740.1 83.4,742.8 83.3,743.1 83.9,743.3 84.7,743.1 85.6,742.9 87.1,741.4 88,739.6 90.6,735.1 98,727.4 102.3,724.7 108.4,720.8 114.3,714.9 120.6,706.3 124.2,701.4 127.2,698.2 128.3,698.2 129.3,698.1 131.8,697.4 133.9,696.6 136.1,695.7 138.6,695 139.6,695 140.6,695 144.2,693.5 147.6,691.7 154.5,688.1 175.1,679.9 177.3,679.9 178.1,679.9 179.5,679 180.4,677.9 182.4,675.5 191.2,671.8 193.6,672.4 194.5,672.7 198.6,670.7 203.5,667.6 208,664.7 213.3,661.5 215.3,660.4 219.6,657.9 234.6,643.8 235.6,641.2 236.2,639.7 235.1,638.6 229.4,634.9 225.5,632.4 220.5,628.8 218.1,626.8 214.8,624.1 212.3,622.9 207.2,621.7 199.7,620 198.8,619 197,610.3 196.2,606.5 194.6,604.2 188,597.4 170.4,579.2 156,570.1 139.3,566.7 129.9,564.7 115.1,564.4 107.9,566.1 95.3,569 93.7,569.2 92.4,568.3 90.5,567 95.6,563.8 104.6,560.9 111.9,558.5 113,558.3 125.9,558.3 138.6,558.3 140,558.5 146.6,560.7 150.5,562 154.1,563 154.6,562.9 155.1,562.8 156.1,563.5 156.8,564.4 157.6,565.4 161.7,568.5 166.1,571.4 171.2,574.8 179.3,581.9 189.3,592 206.7,609.6 210.4,613 218.2,618.5 227.2,625 240.9,633.2 242.6,633.2 243.4,633.2 247.6,629.9 251.9,625.9 264.2,614.5 275.1,605.3 287.7,595.8 294.1,591 299.2,586.7 299.1,586.3 298.9,586 299.4,585.7 300.3,585.7 302.5,585.7 318.9,574.4 318.9,572.8 318.9,572.1 320.8,569 323.2,565.9 327.3,560.5 327.4,559.9 327.3,552.6 327.2,548.3 327.7,543.1 328.5,540.9 329.4,538.4 330.2,524.6 330.7,502.9 331.3,473.6 331.8,467.3 334,457.7 335.4,451.6 336.7,445.9 336.9,445.1 337,444.2 336.2,441.4 335,438.8 332,432.5 332.8,418.5 336.4,412.4 339.4,407.2 344.2,402.9 348.3,401.7 352.6,400.4 357.3,397.2 359.6,394.2 360.7,392.8 362.6,391.2 363.9,390.6 365.2,390.1 366.2,389.1 366.2,388.5 366.3,386.2 371,382.1 376.1,379.9 378.8,378.7 383.7,376.4 386.8,374.6 391.6,372 392.4,371.2 391.7,369.5 390.6,366.5 388.5,353.9 388.3,348.9 388.1,346.5 387.4,343.2 386.7,341.7 386,340.2 384.8,336.2 384,332.7 382.7,326.9 382.8,326.5 384.9,325.5 386.8,324.5 387.4,322.9 388.2,315 389.4,303.4 389.3,302 387.4,296.8 386.4,294.1 385.2,292.5 383.8,292.2 382.6,291.9 381.6,291.4 381.6,290.9 381.6,289.3 385.3,285.5 386.9,285.5 387.8,285.5 388.9,284.8 389.3,283.9 389.7,283 390.5,282.3 391.1,282.3 391.7,282.3 392.4,281.7 392.8,280.9 393.2,280.1 396,278.6 399,277.5 408.5,274.2 410.6,273.4 412.2,272.3 413,271.7 415.4,271.3 417.5,271.2 434.3,271.1 446.9,271.7 447.8,272.6 448.2,273.1 451.9,274.9 456.1,276.5 462.6,279.2 463.9,280.1 465.9,283.5 468.4,288 469.1,289 473,294.6 475.6,298.3 475.8,299.5 475.8,313.9 475.8,324.4 476.1,328.8 476.9,327.8 481.3,322.9 483.2,321.5 486,321.3 488.1,321.1 489.6,320.2 490.9,318.3 492,316.8 493.4,315.6 494,315.6 495.4,315.6 494.5,317.6 492.1,319.9 490.4,321.6 490,324.3 491.4,324.3 491.9,324.3 493.6,322.7 495.1,320.8 496.7,318.8 498.4,317.4 499,317.6 499.9,318 499,319.9 495.2,325.3 494.1,326.9 494,327.7 495,328.4 496,329.1 497.4,328.2 500.2,325.1 503.8,321.2 506.5,320.6 503.6,324.3 502.8,325.3 502.4,326.2 502.7,326.4 503.8,327.1 506.9,325.7 507.5,324.2 507.8,323.4 508.7,322.7 509.4,322.7 510.2,322.7 509.8,324 508.3,325.9 505.9,329.1 505,332.4 507,331 507.6,330.6 509.8,328.1 512,325.5 514.1,322.9 517.2,319.3 518.9,317.6 520.6,315.8 525.1,310.2 528.9,305.2 535.6,296.3 535.8,295.9 533.8,294.5 532.2,293.4 531.9,292.4 532.4,289.6 532.8,287.7 533.2,284 533.2,281.4 533.2,277.3 533.4,276.8 535.5,276.8 537.6,276.8 537.9,276.2 537.9,272.1 537.9,266.7 540.2,264.5 543.5,266.7 545.4,268 545.6,267.9 546.8,265.9 546.8,265.9 548.1,263.8 548.1,263.8 548.1,263.8 550.5,265.4 550.5,265.4 551.9,266.3 553.3,267.6 553.6,268.2 554.5,269.7 556.2,268.1 559.3,262.6 560.6,260.2 563.5,256.2 565.8,253.7 568,251.1 570.2,248 570.6,246.8 571.7,243.7 574.5,241.9 578.3,241.9 580.8,241.9 582.1,241.3 583.5,239.6 584.5,238.2 585.9,237.2 586.6,237.2 587.3,237.2 586.7,238.4 585.4,239.8 584,241.3 582.9,243.5 582.9,244.8 582.9,246 581.8,248.6 580.6,250.4 578.1,254 569,263.4 567.1,264.2 566.3,264.6 567.1,266 568.9,267.8 573.2,272.2 573.9,273.9 574,282.3 574.2,289.4 578.1,301.5 581.6,305.9 582.2,306.7 584.1,311.2 585.8,315.9 587.5,320.7 589.9,325.5 591.2,326.7 592.5,327.9 598.6,339.2 604.8,351.7 615.3,372.9 619.5,383.5 621.4,393.6 621.8,395.8 623.5,402.3 625.2,408.1 628.6,420 628.6,419.9 620.5,426.8 615.1,431.4 608.7,434.1 598.3,436.4 594.7,437.2 588.8,438.5 585.3,439.4 581.7,440.2 573,441.4 565.9,442 550.7,443.2 539.9,442.4 532.6,439.5 526.9,437.4 514.7,434.9 513.1,435.6 508.6,437.4 503.3,451.5 498.8,473.2 496.7,483.3 495.8,486.2 493.8,488.8 492.7,490.2 491.5,493.4 491.1,495.9 490.2,501.8 488.3,507 486,510 485,511.3 483.8,514.7 483.4,517.6 482.4,524 476.8,541.1 473.8,546.9 472.6,549.3 471,554.8 470.3,559.1 469.7,563.5 468.4,568.7 467.5,570.7 466.6,572.8 465.5,576.4 465.1,578.8 464.3,583 464.5,583.4 468.1,586.5 471.4,589.3 472.4,589.7 475,589.2 480.3,588.2 482.1,588.6 492.1,593 503.8,598.2 504.4,598.4 509.1,597.1 512.4,596.1 513.4,596.2 518.8,598 522.8,599.4 524.5,600.4 524.1,601.1 523.3,602.6 526,604.3 533.8,607.5 542.1,610.8 562.9,622.1 571.1,627.8 574.6,630.2 578.8,632.5 580.2,632.8 583.6,633.4 587.8,637.1 591.7,642.7 595.6,648.3 595.8,656.7 592.3,665.8 591,669.3 590.1,672.5 590.3,672.9 590.5,673.4 597.2,670.4 605.3,666.3 626.5,655.6 630.9,653.6 643.4,649.1 653.5,645.5 655.5,645.1 662.1,645.1 667.7,645.1 670.2,644.7 672.8,643.4 676.1,641.8 676.4,641.8 685.5,643 701.9,645.2 714.9,650.7 724.4,659.4 727.6,662.2 728.5,663.6 727.6,664.2 726.7,664.9 724.6,664.3 720.6,662.2 707.2,655.4 701.1,653.1 692.1,651.5 667.2,647 648.8,651.3 614.8,669.3 601.5,676.4 601.2,676.6 598.8,681.6 598.8,681.6 596.4,686.7 596.4,686.7 596.4,686.7 590.1,686.7 590.1,686.7 585.7,686.7 583.5,687 582.8,687.8 579.7,691.6 573.8,704.5 574.3,706.3 575.5,710.7 564,730 552,743.6 549.3,746.6 546.4,751 545.4,753.5 544.5,755.9 542.8,758.6 541.7,759.4 540.6,760.2 539.6,762.3 539.5,764.2 539.4,767.9 529,785.2 526.5,785.8 525.6,786 524.9,786.7 524.9,787.3 524.9,787.9 523.6,789 522,789.8 519.4,791.2 519.2,791.8 519.5,797 519.7,800.7 520.4,803.2 521.6,804.1 522.6,804.8 523.7,806.7 524.1,808.2 525,811.3 531.3,820.3 534.6,823.3 538.4,826.6 547.7,832.9 549.7,833.5 554.6,834.9 567.5,841 567.5,841.9 567.5,842.5 568.6,844.2 569.8,845.6 571.2,847.2 572.5,850.6 573,854 573,854 573.8,859.7 573.8,859.7 573.8,859.7 569.2,861 569.2,861 566.6,861.7 561.9,862.5 558.6,862.8 555.3,863.1 552.1,863.6 551.5,863.8 550.9,864 549.3,864 548,863.9 Z M419.3,698.7 C420.1,698.2 420.7,697 420.5,695.8 420.2,694.2 419.4,693.7 416.5,693.6 411.4,693.2 408,695.8 409.8,698.6 411,700.2 411.7,700.5 414.5,700 416.3,699.7 418.4,699.1 419.3,698.7 Z M465.7,693.8 C469.9,693.1 474.9,692.2 476.8,691.9 482.1,691.1 481.7,689.9 475.3,687.6 465.3,683.9 458,685.1 455.2,690.9 453.3,694.8 453.5,695.9 455.9,695.5 457.1,695.3 461.5,694.5 465.7,693.8 Z M431.1,690.9 C435.9,689.9 438.1,687.8 434.2,687.8 431.7,687.8 423.1,691.1 423.1,692 423.1,692.4 423.7,692.5 424.6,692.3 425.4,692.1 428.3,691.4 431.1,690.9 Z M424.4,686.9 C426.9,686.4 432.1,684.2 435.8,681.9 445.4,676.1 448.6,675.2 458.8,675.2 466,675.2 468.8,675.6 475.1,677.6 482.6,680 482.9,680 484.6,678.5 485.6,677.7 487.9,676.4 489.6,675.7 492.7,674.3 492.8,674.3 497.3,677 503.1,680.5 516.8,684.7 517.5,683.2 517.8,682.6 520.4,679.8 523.3,676.9 530.7,669.6 529.9,669.3 507.1,670.1 482.6,671 473.2,670.8 464.5,669.2 455.3,667.5 430.6,661.1 418.5,657.3 418.5,657.3 409.8,654.5 409.8,654.5 409.8,654.5 393,654.8 393,654.8 393,654.8 376.3,655 376.3,655 376.3,655 375.9,657.2 375.9,657.2 375.7,658.6 376.6,660.4 378.3,662 379.8,663.3 383.2,668.8 385.7,674 388.3,679.2 390.6,683.6 390.7,683.8 390.9,684 391.8,683.7 392.8,683.2 394.1,682.4 394.6,682.5 395.2,683.8 396.1,685.8 398,686 399,684.3 400.2,682.2 406.4,682.8 409.9,685.4 413.4,688 417,688.4 424.4,686.9 Z M348.5,662.3 C348.5,661.5 347.7,660.9 346.8,660.9 344.3,660.9 343.9,661.8 345.1,664.1 346,665.7 346.4,665.8 347.3,664.9 348,664.2 348.5,663.1 348.5,662.3 Z M580,393.1 C581.4,387.3 579.3,365.8 576.3,355.4 574.7,350.1 573.4,345.1 573.4,344.3 573.4,343.5 571.6,340.5 569.3,337.5 567.1,334.5 564.1,329.8 562.7,327 560.6,322.8 559.1,321.2 553.3,317.7 547.8,314.4 546.1,312.8 545.2,310.2 544,306.7 538.7,300.5 536.8,300.5 535.2,300.5 534,301.9 525.5,312.8 521,318.5 516.1,324.5 514.4,326.3 512.8,328 509.6,331.8 507.3,334.6 505.1,337.4 502.6,340.3 501.8,340.9 501,341.6 499.7,343.3 499,344.8 498.2,346.3 496.9,348.1 496,348.8 495.1,349.5 491.4,353.9 487.7,358.6 482.8,364.9 481.1,367.8 481.6,369.1 482,370.2 482.8,371 483.4,371 484.8,371 495.5,357 499.4,350 503.3,343 507.9,337.8 510.1,337.8 511,337.8 512.4,338.6 513.2,339.5 513.9,340.5 515.3,341.6 516.2,342 517.1,342.3 517.8,343.5 517.8,344.5 517.8,345.6 518.3,346.5 519,346.5 519.7,346.5 520,348.8 519.8,352.2 519.8,352.2 519.5,358 519.5,358 519.5,358 510.2,367.1 510.2,367.1 505.1,372.1 499.5,377.2 497.6,378.6 495.1,380.4 494.6,381.3 495.3,382.6 496.5,384.8 506.3,386.5 513.4,385.8 517.8,385.3 519.7,385.8 530.2,389.4 530.2,389.4 542,393.4 542,393.4 542,393.4 555.8,393.6 555.8,393.6 566.3,393.7 570.3,394.1 572.4,395.1 577,397.3 579,396.8 580,393.1 Z M494.7,375 C495.5,373.5 496.8,371.1 497.5,369.8 498.7,367.7 498.7,367.6 497.1,369 496.1,369.8 495.3,370.9 495.3,371.4 495.2,371.8 494.2,373.1 492.9,374.2 490.4,376.4 489.8,378.5 491.9,378 492.6,377.8 493.8,376.5 494.7,375 Z M491.7,372 C493.5,367.7 493.2,367.4 490,369.4 487.1,371.2 486.2,373.4 487.8,374.5 489.4,375.6 490.5,374.9 491.7,372 Z M502.8,361.7 C503.9,359.9 504.5,358.4 504.2,358.4 503.7,358.4 498.8,365.3 498.8,366.1 498.8,367.2 501,364.8 502.8,361.7 Z M484.8,359.2 C487.4,356.1 489.3,353.3 489,353.1 488.2,352.5 477.5,363.7 477.5,365.1 477.5,366.8 480.7,364.3 484.8,359.2 Z M476.2,360.8 C474.5,360.4 473.6,361.3 474.6,362.4 475.2,363 475.7,363 476.5,362.2 477,361.6 476.9,361 476.2,360.8 Z M474.6,357.1 C477.1,352.9 476.8,352.4 473.3,355.1 471.6,356.5 470.5,358.1 470.9,358.8 471.9,360.5 472.6,360.2 474.6,357.1 Z " />
</svg>
