  0
SECTION
  2
HEADER
  9
$ACADVER
  1
AC1014
  9
$HANDSEED
  5
FFFF
  9
$MEASUREMENT
 70
     1
  0
ENDSEC
  0
SECTION
  2
TABLES
  0
TABLE
  2
VPORT
  5
8
330
0
100
AcDbSymbolTable
 70
     4
  0
VPORT
  5
2E
330
8
100
AcDbSymbolTableRecord
100
AcDbViewportTableRecord
  2
*ACTIVE
 70
     0
 10
0.0
 20
0.0
 11
1.0
 21
1.0
 12
210.0
 22
148.5
 13
0.0
 23
0.0
 14
10.0
 24
10.0
 15
10.0
 25
10.0
 16
0.0
 26
0.0
 36
1.0
 17
0.0
 27
0.0
 37
0.0
 40
341.0
 41
1.24
 42
50.0
 43
0.0
 44
0.0
 50
0.0
 51
0.0
 71
     0
 72
   100
 73
     1
 74
     3
 75
     0
 76
     0
 77
     0
 78
     0
  0
ENDTAB
  0
TABLE
  2
LTYPE
  5
5
330
0
100
AcDbSymbolTable
 70
     1
  0
LTYPE
  5
14
330
5
100
AcDbSymbolTableRecord
100
AcDbLinetypeTableRecord
  2
BYBLOCK
 70
     0
  3

 72
    65
 73
     0
 40
0.0
  0
LTYPE
  5
15
330
5
100
AcDbSymbolTableRecord
100
AcDbLinetypeTableRecord
  2
BYLAYER
 70
     0
  3

 72
    65
 73
     0
 40
0.0
  0
LTYPE
  5
16
330
5
100
AcDbSymbolTableRecord
100
AcDbLinetypeTableRecord
  2
CONTINUOUS
 70
     0
  3
Solid line
 72
    65
 73
     0
 40
0.0
  0
ENDTAB
  0
TABLE
  2
LAYER
  5
2
100
AcDbSymbolTable
 70
1
  0
LAYER
  5
50
100
AcDbSymbolTableRecord
100
AcDbLayerTableRecord
  2
0
 70
0
  6
CONTINUOUS
  0
ENDTAB
  0
TABLE
  2
STYLE
  5
3
330
0
100
AcDbSymbolTable
 70
     1
  0
STYLE
  5
11
330
3
100
AcDbSymbolTableRecord
100
AcDbTextStyleTableRecord
  2
STANDARD
 70
     0
 40
0.0
 41
1.0
 50
0.0
 71
     0
 42
2.5
  3
txt
  4

  0
ENDTAB
  0
TABLE
  2
VIEW
  5
6
330
0
100
AcDbSymbolTable
 70
     0
  0
ENDTAB
  0
TABLE
  2
UCS
  5
7
330
0
100
AcDbSymbolTable
 70
     0
  0
ENDTAB
  0
TABLE
  2
APPID
  5
9
330
0
100
AcDbSymbolTable
 70
     2
  0
APPID
  5
12
330
9
100
AcDbSymbolTableRecord
100
AcDbRegAppTableRecord
  2
ACAD
 70
     0
  0
ENDTAB
  0
TABLE
  2
DIMSTYLE
  5
A
330
0
100
AcDbSymbolTable
 70
     1
  0
DIMSTYLE
105
27
330
A
100
AcDbSymbolTableRecord
100
AcDbDimStyleTableRecord
  2
ISO-25
 70
     0
  3

  4

  5

  6

  7

 40
1.0
 41
2.5
 42
0.625
 43
3.75
 44
1.25
 45
0.0
 46
0.0
 47
0.0
 48
0.0
140
2.5
141
2.5
142
0.0
143
0.03937007874016
144
1.0
145
0.0
146
1.0
147
0.625
 71
     0
 72
     0
 73
     0
 74
     0
 75
     0
 76
     0
 77
     1
 78
     8
170
     0
171
     3
172
     1
173
     0
174
     0
175
     0
176
     0
177
     0
178
     0
270
     2
271
     2
272
     2
273
     2
274
     3
340
11
275
     0
280
     0
281
     0
282
     0
283
     0
284
     8
285
     0
286
     0
287
     3
288
     0
  0
ENDTAB
  0
TABLE
  2
BLOCK_RECORD
  5
1
330
0
100
AcDbSymbolTable
 70
     1
  0
BLOCK_RECORD
  5
1F
330
1
100
AcDbSymbolTableRecord
100
AcDbBlockTableRecord
  2
*MODEL_SPACE
  0
BLOCK_RECORD
  5
1B
330
1
100
AcDbSymbolTableRecord
100
AcDbBlockTableRecord
  2
*PAPER_SPACE
  0
ENDTAB
  0
ENDSEC
  0
SECTION
  2
BLOCKS
  0
BLOCK
  5
20
330
1F
100
AcDbEntity
  8
0
100
AcDbBlockBegin
  2
*MODEL_SPACE
 70
     0
 10
0.0
 20
0.0
 30
0.0
  3
*MODEL_SPACE
  1

  0
ENDBLK
  5
21
330
1F
100
AcDbEntity
  8
0
100
AcDbBlockEnd
  0
BLOCK
  5
1C
330
1B
100
AcDbEntity
 67
     1
  8
0
100
AcDbBlockBegin
  2
*PAPER_SPACE
  1

  0
ENDBLK
  5
1D
330
1B
100
AcDbEntity
 67
     1
  8
0
100
AcDbBlockEnd
  0
ENDSEC
  0
SECTION
  2
ENTITIES
  0
SPLINE
  5
100
100
AcDbEntity
  8
0
 62
7
100
AcDbSpline
 70
8
 71
3
 72
8
 73
4
 74
0
 40
0
 40
0
 40
0
 40
0
 40
1
 40
1
 40
1
 40
1
 10
22.560000
 20
178.400000
 30
0.0
 10
22.560000
 20
178.560000
 30
0.0
 10
23.440000
 20
180.480000
 30
0.0
 10
24.560000
 20
182.640000
 30
0.0
  0
SPLINE
  5
101
100
AcDbEntity
  8
0
 62
7
100
AcDbSpline
 70
8
 71
3
 72
8
 73
4
 74
0
 40
0
 40
0
 40
0
 40
0
 40
1
 40
1
 40
1
 40
1
 10
24.560000
 20
182.640000
 30
0.0
 10
25.680000
 20
184.880000
 30
0.0
 10
48.160000
 20
232.080000
 30
0.0
 10
74.480000
 20
287.680000
 30
0.0
  0
SPLINE
  5
102
100
AcDbEntity
  8
0
 62
7
100
AcDbSpline
 70
8
 71
3
 72
8
 73
4
 74
0
 40
0
 40
0
 40
0
 40
0
 40
1
 40
1
 40
1
 40
1
 10
74.480000
 20
287.680000
 30
0.0
 10
100.880000
 20
343.200000
 30
0.0
 10
135.200000
 20
415.360000
 30
0.0
 10
150.720000
 20
448.080000
 30
0.0
  0
SPLINE
  5
103
100
AcDbEntity
  8
0
 62
7
100
AcDbSpline
 70
8
 71
3
 72
8
 73
4
 74
0
 40
0
 40
0
 40
0
 40
0
 40
1
 40
1
 40
1
 40
1
 10
150.720000
 20
448.080000
 30
0.0
 10
166.240000
 20
480.720000
 30
0.0
 10
188.880000
 20
528.400000
 30
0.0
 10
200.960000
 20
553.840000
 30
0.0
  0
SPLINE
  5
104
100
AcDbEntity
  8
0
 62
7
100
AcDbSpline
 70
8
 71
3
 72
8
 73
4
 74
0
 40
0
 40
0
 40
0
 40
0
 40
1
 40
1
 40
1
 40
1
 10
200.960000
 20
553.840000
 30
0.0
 10
213.040000
 20
579.360000
 30
0.0
 10
231.920000
 20
618.960000
 30
0.0
 10
242.800000
 20
641.920000
 30
0.0
  0
SPLINE
  5
105
100
AcDbEntity
  8
0
 62
7
100
AcDbSpline
 70
8
 71
3
 72
8
 73
4
 74
0
 40
0
 40
0
 40
0
 40
0
 40
1
 40
1
 40
1
 40
1
 10
242.800000
 20
641.920000
 30
0.0
 10
253.680000
 20
664.800000
 30
0.0
 10
262.640000
 20
683.840000
 30
0.0
 10
262.640000
 20
684.240000
 30
0.0
  0
SPLINE
  5
106
100
AcDbEntity
  8
0
 62
7
100
AcDbSpline
 70
8
 71
3
 72
8
 73
4
 74
0
 40
0
 40
0
 40
0
 40
0
 40
1
 40
1
 40
1
 40
1
 10
262.640000
 20
684.240000
 30
0.0
 10
262.640000
 20
686.400000
 30
0.0
 10
256.320000
 20
685.440000
 30
0.0
 10
242.320000
 20
681.120000
 30
0.0
  0
SPLINE
  5
107
100
AcDbEntity
  8
0
 62
7
100
AcDbSpline
 70
8
 71
3
 72
8
 73
4
 74
0
 40
0
 40
0
 40
0
 40
0
 40
1
 40
1
 40
1
 40
1
 10
242.320000
 20
681.120000
 30
0.0
 10
200.000000
 20
668.080000
 30
0.0
 10
167.760000
 20
650.560000
 30
0.0
 10
146.160000
 20
628.720000
 30
0.0
  0
SPLINE
  5
108
100
AcDbEntity
  8
0
 62
7
100
AcDbSpline
 70
8
 71
3
 72
8
 73
4
 74
0
 40
0
 40
0
 40
0
 40
0
 40
1
 40
1
 40
1
 40
1
 10
146.160000
 20
628.720000
 30
0.0
 10
116.480000
 20
598.640000
 30
0.0
 10
91.840000
 20
552.880000
 30
0.0
 10
83.680000
 20
512.400000
 30
0.0
  0
SPLINE
  5
109
100
AcDbEntity
  8
0
 62
7
100
AcDbSpline
 70
8
 71
3
 72
8
 73
4
 74
0
 40
0
 40
0
 40
0
 40
0
 40
1
 40
1
 40
1
 40
1
 10
83.680000
 20
512.400000
 30
0.0
 10
78.320000
 20
485.680000
 30
0.0
 10
78.480000
 20
452.320000
 30
0.0
 10
84.080000
 20
422.400000
 30
0.0
  0
SPLINE
  5
10a
100
AcDbEntity
  8
0
 62
7
100
AcDbSpline
 70
8
 71
3
 72
8
 73
4
 74
0
 40
0
 40
0
 40
0
 40
0
 40
1
 40
1
 40
1
 40
1
 10
84.080000
 20
422.400000
 30
0.0
 10
89.120000
 20
395.520000
 30
0.0
 10
96.720000
 20
371.840000
 30
0.0
 10
102.080000
 20
366.400000
 30
0.0
  0
SPLINE
  5
10b
100
AcDbEntity
  8
0
 62
7
100
AcDbSpline
 70
8
 71
3
 72
8
 73
4
 74
0
 40
0
 40
0
 40
0
 40
0
 40
1
 40
1
 40
1
 40
1
 10
102.080000
 20
366.400000
 30
0.0
 10
103.200000
 20
365.280000
 30
0.0
 10
103.040000
 20
364.800000
 30
0.0
 10
101.200000
 20
361.920000
 30
0.0
  0
SPLINE
  5
10c
100
AcDbEntity
  8
0
 62
7
100
AcDbSpline
 70
8
 71
3
 72
8
 73
4
 74
0
 40
0
 40
0
 40
0
 40
0
 40
1
 40
1
 40
1
 40
1
 10
101.200000
 20
361.920000
 30
0.0
 10
99.200000
 20
358.880000
 30
0.0
 10
87.600000
 20
334.640000
 30
0.0
 10
76.960000
 20
311.360000
 30
0.0
  0
SPLINE
  5
10d
100
AcDbEntity
  8
0
 62
7
100
AcDbSpline
 70
8
 71
3
 72
8
 73
4
 74
0
 40
0
 40
0
 40
0
 40
0
 40
1
 40
1
 40
1
 40
1
 10
76.960000
 20
311.360000
 30
0.0
 10
74.320000
 20
305.520000
 30
0.0
 10
71.840000
 20
300.720000
 30
0.0
 10
71.440000
 20
300.720000
 30
0.0
  0
SPLINE
  5
10e
100
AcDbEntity
  8
0
 62
7
100
AcDbSpline
 70
8
 71
3
 72
8
 73
4
 74
0
 40
0
 40
0
 40
0
 40
0
 40
1
 40
1
 40
1
 40
1
 10
71.440000
 20
300.720000
 30
0.0
 10
68.800000
 20
300.720000
 30
0.0
 10
47.120000
 20
337.840000
 30
0.0
 10
38.000000
 20
357.920000
 30
0.0
  0
SPLINE
  5
10f
100
AcDbEntity
  8
0
 62
7
100
AcDbSpline
 70
8
 71
3
 72
8
 73
4
 74
0
 40
0
 40
0
 40
0
 40
0
 40
1
 40
1
 40
1
 40
1
 10
38.000000
 20
357.920000
 30
0.0
 10
30.080000
 20
375.360000
 30
0.0
 10
24.080000
 20
393.440000
 30
0.0
 10
20.960000
 20
408.960000
 30
0.0
  0
SPLINE
  5
110
100
AcDbEntity
  8
0
 62
7
100
AcDbSpline
 70
8
 71
3
 72
8
 73
4
 74
0
 40
0
 40
0
 40
0
 40
0
 40
1
 40
1
 40
1
 40
1
 10
20.960000
 20
408.960000
 30
0.0
 10
17.360000
 20
427.040000
 30
0.0
 10
16.400000
 20
438.400000
 30
0.0
 10
16.480000
 20
462.240000
 30
0.0
  0
SPLINE
  5
111
100
AcDbEntity
  8
0
 62
7
100
AcDbSpline
 70
8
 71
3
 72
8
 73
4
 74
0
 40
0
 40
0
 40
0
 40
0
 40
1
 40
1
 40
1
 40
1
 10
16.480000
 20
462.240000
 30
0.0
 10
16.560000
 20
545.760000
 30
0.0
 10
40.000000
 20
604.640000
 30
0.0
 10
96.160000
 20
663.040000
 30
0.0
  0
SPLINE
  5
112
100
AcDbEntity
  8
0
 62
7
100
AcDbSpline
 70
8
 71
3
 72
8
 73
4
 74
0
 40
0
 40
0
 40
0
 40
0
 40
1
 40
1
 40
1
 40
1
 10
96.160000
 20
663.040000
 30
0.0
 10
137.280000
 20
705.840000
 30
0.0
 10
179.840000
 20
730.000000
 30
0.0
 10
234.800000
 20
742.000000
 30
0.0
  0
SPLINE
  5
113
100
AcDbEntity
  8
0
 62
7
100
AcDbSpline
 70
8
 71
3
 72
8
 73
4
 74
0
 40
0
 40
0
 40
0
 40
0
 40
1
 40
1
 40
1
 40
1
 10
234.800000
 20
742.000000
 30
0.0
 10
252.320000
 20
745.760000
 30
0.0
 10
266.480000
 20
747.520000
 30
0.0
 10
286.240000
 20
748.240000
 30
0.0
  0
SPLINE
  5
114
100
AcDbEntity
  8
0
 62
7
100
AcDbSpline
 70
8
 71
3
 72
8
 73
4
 74
0
 40
0
 40
0
 40
0
 40
0
 40
1
 40
1
 40
1
 40
1
 10
286.240000
 20
748.240000
 30
0.0
 10
291.200000
 20
748.480000
 30
0.0
 10
295.360000
 20
748.720000
 30
0.0
 10
295.520000
 20
748.880000
 30
0.0
  0
SPLINE
  5
115
100
AcDbEntity
  8
0
 62
7
100
AcDbSpline
 70
8
 71
3
 72
8
 73
4
 74
0
 40
0
 40
0
 40
0
 40
0
 40
1
 40
1
 40
1
 40
1
 10
295.520000
 20
748.880000
 30
0.0
 10
295.600000
 20
748.960000
 30
0.0
 10
298.880000
 20
755.280000
 30
0.0
 10
302.720000
 20
762.880000
 30
0.0
  0
SPLINE
  5
116
100
AcDbEntity
  8
0
 62
7
100
AcDbSpline
 70
8
 71
3
 72
8
 73
4
 74
0
 40
0
 40
0
 40
0
 40
0
 40
1
 40
1
 40
1
 40
1
 10
302.720000
 20
762.880000
 30
0.0
 10
313.360000
 20
783.840000
 30
0.0
 10
314.720000
 20
786.560000
 30
0.0
 10
324.160000
 20
805.120000
 30
0.0
  0
LINE
  5
117
100
AcDbEntity
  8
0
 62
7
100
AcDbLine
 10
324.160000
 20
805.120000
 30
0.0
 11
332.880000
 21
822.320000
 31
0.0
  0
LINE
  5
118
100
AcDbEntity
  8
0
 62
7
100
AcDbLine
 10
332.880000
 20
822.320000
 30
0.0
 11
379.360000
 21
822.320000
 31
0.0
  0
LINE
  5
119
100
AcDbEntity
  8
0
 62
7
100
AcDbLine
 10
379.360000
 20
822.320000
 30
0.0
 11
425.840000
 21
822.320000
 31
0.0
  0
LINE
  5
11a
100
AcDbEntity
  8
0
 62
7
100
AcDbLine
 10
425.840000
 20
822.320000
 30
0.0
 11
426.080000
 21
769.680000
 31
0.0
  0
SPLINE
  5
11b
100
AcDbEntity
  8
0
 62
7
100
AcDbSpline
 70
8
 71
3
 72
8
 73
4
 74
0
 40
0
 40
0
 40
0
 40
0
 40
1
 40
1
 40
1
 40
1
 10
426.080000
 20
769.680000
 30
0.0
 10
426.240000
 20
721.520000
 30
0.0
 10
426.400000
 20
716.880000
 30
0.0
 10
427.680000
 20
715.600000
 30
0.0
  0
SPLINE
  5
11c
100
AcDbEntity
  8
0
 62
7
100
AcDbSpline
 70
8
 71
3
 72
8
 73
4
 74
0
 40
0
 40
0
 40
0
 40
0
 40
1
 40
1
 40
1
 40
1
 10
427.680000
 20
715.600000
 30
0.0
 10
428.480000
 20
714.880000
 30
0.0
 10
434.000000
 20
711.440000
 30
0.0
 10
439.920000
 20
708.080000
 30
0.0
  0
SPLINE
  5
11d
100
AcDbEntity
  8
0
 62
7
100
AcDbSpline
 70
8
 71
3
 72
8
 73
4
 74
0
 40
0
 40
0
 40
0
 40
0
 40
1
 40
1
 40
1
 40
1
 10
439.920000
 20
708.080000
 30
0.0
 10
466.560000
 20
693.040000
 30
0.0
 10
484.080000
 20
678.720000
 30
0.0
 10
505.760000
 20
654.320000
 30
0.0
  0
SPLINE
  5
11e
100
AcDbEntity
  8
0
 62
7
100
AcDbSpline
 70
8
 71
3
 72
8
 73
4
 74
0
 40
0
 40
0
 40
0
 40
0
 40
1
 40
1
 40
1
 40
1
 10
505.760000
 20
654.320000
 30
0.0
 10
546.800000
 20
608.000000
 30
0.0
 10
571.120000
 20
554.960000
 30
0.0
 10
577.040000
 20
498.560000
 30
0.0
  0
SPLINE
  5
11f
100
AcDbEntity
  8
0
 62
7
100
AcDbSpline
 70
8
 71
3
 72
8
 73
4
 74
0
 40
0
 40
0
 40
0
 40
0
 40
1
 40
1
 40
1
 40
1
 10
577.040000
 20
498.560000
 30
0.0
 10
578.480000
 20
484.880000
 30
0.0
 10
578.720000
 20
456.000000
 30
0.0
 10
577.440000
 20
443.920000
 30
0.0
  0
SPLINE
  5
120
100
AcDbEntity
  8
0
 62
7
100
AcDbSpline
 70
8
 71
3
 72
8
 73
4
 74
0
 40
0
 40
0
 40
0
 40
0
 40
1
 40
1
 40
1
 40
1
 10
577.440000
 20
443.920000
 30
0.0
 10
576.080000
 20
430.880000
 30
0.0
 10
575.840000
 20
429.360000
 30
0.0
 10
574.880000
 20
422.960000
 30
0.0
  0
SPLINE
  5
121
100
AcDbEntity
  8
0
 62
7
100
AcDbSpline
 70
8
 71
3
 72
8
 73
4
 74
0
 40
0
 40
0
 40
0
 40
0
 40
1
 40
1
 40
1
 40
1
 10
574.880000
 20
422.960000
 30
0.0
 10
572.080000
 20
403.840000
 30
0.0
 10
567.200000
 20
385.280000
 30
0.0
 10
560.080000
 20
365.760000
 30
0.0
  0
SPLINE
  5
122
100
AcDbEntity
  8
0
 62
7
100
AcDbSpline
 70
8
 71
3
 72
8
 73
4
 74
0
 40
0
 40
0
 40
0
 40
0
 40
1
 40
1
 40
1
 40
1
 10
560.080000
 20
365.760000
 30
0.0
 10
544.000000
 20
322.080000
 30
0.0
 10
520.080000
 20
286.880000
 30
0.0
 10
486.000000
 20
256.960000
 30
0.0
  0
SPLINE
  5
123
100
AcDbEntity
  8
0
 62
7
100
AcDbSpline
 70
8
 71
3
 72
8
 73
4
 74
0
 40
0
 40
0
 40
0
 40
0
 40
1
 40
1
 40
1
 40
1
 10
486.000000
 20
256.960000
 30
0.0
 10
468.800000
 20
241.920000
 30
0.0
 10
457.920000
 20
234.000000
 30
0.0
 10
440.080000
 20
223.360000
 30
0.0
  0
SPLINE
  5
124
100
AcDbEntity
  8
0
 62
7
100
AcDbSpline
 70
8
 71
3
 72
8
 73
4
 74
0
 40
0
 40
0
 40
0
 40
0
 40
1
 40
1
 40
1
 40
1
 10
440.080000
 20
223.360000
 30
0.0
 10
379.440000
 20
187.440000
 30
0.0
 10
323.840000
 20
178.000000
 30
0.0
 10
245.200000
 20
190.400000
 30
0.0
  0
SPLINE
  5
125
100
AcDbEntity
  8
0
 62
7
100
AcDbSpline
 70
8
 71
3
 72
8
 73
4
 74
0
 40
0
 40
0
 40
0
 40
0
 40
1
 40
1
 40
1
 40
1
 10
245.200000
 20
190.400000
 30
0.0
 10
209.200000
 20
196.080000
 30
0.0
 10
182.400000
 20
203.600000
 30
0.0
 10
167.760000
 20
212.000000
 30
0.0
  0
SPLINE
  5
126
100
AcDbEntity
  8
0
 62
7
100
AcDbSpline
 70
8
 71
3
 72
8
 73
4
 74
0
 40
0
 40
0
 40
0
 40
0
 40
1
 40
1
 40
1
 40
1
 10
167.760000
 20
212.000000
 30
0.0
 10
165.120000
 20
213.520000
 30
0.0
 10
162.960000
 20
215.040000
 30
0.0
 10
162.960000
 20
215.280000
 30
0.0
  0
SPLINE
  5
127
100
AcDbEntity
  8
0
 62
7
100
AcDbSpline
 70
8
 71
3
 72
8
 73
4
 74
0
 40
0
 40
0
 40
0
 40
0
 40
1
 40
1
 40
1
 40
1
 10
162.960000
 20
215.280000
 30
0.0
 10
162.960000
 20
215.760000
 30
0.0
 10
190.320000
 20
273.840000
 30
0.0
 10
190.720000
 20
274.400000
 30
0.0
  0
SPLINE
  5
128
100
AcDbEntity
  8
0
 62
7
100
AcDbSpline
 70
8
 71
3
 72
8
 73
4
 74
0
 40
0
 40
0
 40
0
 40
0
 40
1
 40
1
 40
1
 40
1
 10
190.720000
 20
274.400000
 30
0.0
 10
190.800000
 20
274.480000
 30
0.0
 10
192.160000
 20
273.680000
 30
0.0
 10
193.760000
 20
272.640000
 30
0.0
  0
SPLINE
  5
129
100
AcDbEntity
  8
0
 62
7
100
AcDbSpline
 70
8
 71
3
 72
8
 73
4
 74
0
 40
0
 40
0
 40
0
 40
0
 40
1
 40
1
 40
1
 40
1
 10
193.760000
 20
272.640000
 30
0.0
 10
213.360000
 20
259.440000
 30
0.0
 10
250.880000
 20
249.200000
 30
0.0
 10
288.400000
 20
246.800000
 30
0.0
  0
SPLINE
  5
12a
100
AcDbEntity
  8
0
 62
7
100
AcDbSpline
 70
8
 71
3
 72
8
 73
4
 74
0
 40
0
 40
0
 40
0
 40
0
 40
1
 40
1
 40
1
 40
1
 10
288.400000
 20
246.800000
 30
0.0
 10
309.360000
 20
245.520000
 30
0.0
 10
326.560000
 20
247.040000
 30
0.0
 10
349.840000
 20
252.160000
 30
0.0
  0
SPLINE
  5
12b
100
AcDbEntity
  8
0
 62
7
100
AcDbSpline
 70
8
 71
3
 72
8
 73
4
 74
0
 40
0
 40
0
 40
0
 40
0
 40
1
 40
1
 40
1
 40
1
 10
349.840000
 20
252.160000
 30
0.0
 10
428.880000
 20
269.840000
 30
0.0
 10
492.240000
 20
332.960000
 30
0.0
 10
510.160000
 20
412.000000
 30
0.0
  0
SPLINE
  5
12c
100
AcDbEntity
  8
0
 62
7
100
AcDbSpline
 70
8
 71
3
 72
8
 73
4
 74
0
 40
0
 40
0
 40
0
 40
0
 40
1
 40
1
 40
1
 40
1
 10
510.160000
 20
412.000000
 30
0.0
 10
514.480000
 20
431.360000
 30
0.0
 10
515.440000
 20
440.400000
 30
0.0
 10
515.520000
 20
463.040000
 30
0.0
  0
SPLINE
  5
12d
100
AcDbEntity
  8
0
 62
7
100
AcDbSpline
 70
8
 71
3
 72
8
 73
4
 74
0
 40
0
 40
0
 40
0
 40
0
 40
1
 40
1
 40
1
 40
1
 10
515.520000
 20
463.040000
 30
0.0
 10
515.520000
 20
478.480000
 30
0.0
 10
515.200000
 20
486.160000
 30
0.0
 10
514.080000
 20
494.080000
 30
0.0
  0
SPLINE
  5
12e
100
AcDbEntity
  8
0
 62
7
100
AcDbSpline
 70
8
 71
3
 72
8
 73
4
 74
0
 40
0
 40
0
 40
0
 40
0
 40
1
 40
1
 40
1
 40
1
 10
514.080000
 20
494.080000
 30
0.0
 10
507.600000
 20
539.600000
 30
0.0
 10
490.400000
 20
577.840000
 30
0.0
 10
460.720000
 20
612.720000
 30
0.0
  0
SPLINE
  5
12f
100
AcDbEntity
  8
0
 62
7
100
AcDbSpline
 70
8
 71
3
 72
8
 73
4
 74
0
 40
0
 40
0
 40
0
 40
0
 40
1
 40
1
 40
1
 40
1
 10
460.720000
 20
612.720000
 30
0.0
 10
449.440000
 20
626.000000
 30
0.0
 10
437.040000
 20
636.400000
 30
0.0
 10
431.040000
 20
637.680000
 30
0.0
  0
LINE
  5
130
100
AcDbEntity
  8
0
 62
7
100
AcDbLine
 10
431.040000
 20
637.680000
 30
0.0
 11
428.800000
 21
638.160000
 31
0.0
  0
LINE
  5
131
100
AcDbEntity
  8
0
 62
7
100
AcDbLine
 10
428.800000
 20
638.160000
 30
0.0
 11
428.560000
 21
526.240000
 31
0.0
  0
LINE
  5
132
100
AcDbEntity
  8
0
 62
7
100
AcDbLine
 10
428.560000
 20
526.240000
 30
0.0
 11
428.320000
 21
414.320000
 31
0.0
  0
LINE
  5
133
100
AcDbEntity
  8
0
 62
7
100
AcDbLine
 10
428.320000
 20
414.320000
 30
0.0
 11
418.080000
 21
424.240000
 31
0.0
  0
SPLINE
  5
134
100
AcDbEntity
  8
0
 62
7
100
AcDbSpline
 70
8
 71
3
 72
8
 73
4
 74
0
 40
0
 40
0
 40
0
 40
0
 40
1
 40
1
 40
1
 40
1
 10
418.080000
 20
424.240000
 30
0.0
 10
412.400000
 20
429.760000
 30
0.0
 10
405.120000
 20
436.720000
 30
0.0
 10
401.840000
 20
439.840000
 30
0.0
  0
SPLINE
  5
135
100
AcDbEntity
  8
0
 62
7
100
AcDbSpline
 70
8
 71
3
 72
8
 73
4
 74
0
 40
0
 40
0
 40
0
 40
0
 40
1
 40
1
 40
1
 40
1
 10
401.840000
 20
439.840000
 30
0.0
 10
398.560000
 20
442.880000
 30
0.0
 10
390.320000
 20
450.800000
 30
0.0
 10
383.520000
 20
457.360000
 30
0.0
  0
SPLINE
  5
136
100
AcDbEntity
  8
0
 62
7
100
AcDbSpline
 70
8
 71
3
 72
8
 73
4
 74
0
 40
0
 40
0
 40
0
 40
0
 40
1
 40
1
 40
1
 40
1
 10
383.520000
 20
457.360000
 30
0.0
 10
376.720000
 20
464.000000
 30
0.0
 10
368.640000
 20
471.680000
 30
0.0
 10
365.680000
 20
474.560000
 30
0.0
  0
SPLINE
  5
137
100
AcDbEntity
  8
0
 62
7
100
AcDbSpline
 70
8
 71
3
 72
8
 73
4
 74
0
 40
0
 40
0
 40
0
 40
0
 40
1
 40
1
 40
1
 40
1
 10
365.680000
 20
474.560000
 30
0.0
 10
362.640000
 20
477.440000
 30
0.0
 10
356.800000
 20
483.040000
 30
0.0
 10
352.720000
 20
486.960000
 30
0.0
  0
SPLINE
  5
138
100
AcDbEntity
  8
0
 62
7
100
AcDbSpline
 70
8
 71
3
 72
8
 73
4
 74
0
 40
0
 40
0
 40
0
 40
0
 40
1
 40
1
 40
1
 40
1
 10
352.720000
 20
486.960000
 30
0.0
 10
348.720000
 20
490.880000
 30
0.0
 10
342.480000
 20
496.800000
 30
0.0
 10
338.880000
 20
500.160000
 30
0.0
  0
LINE
  5
139
100
AcDbEntity
  8
0
 62
7
100
AcDbLine
 10
338.880000
 20
500.160000
 30
0.0
 11
332.480000
 21
506.320000
 31
0.0
  0
LINE
  5
13a
100
AcDbEntity
  8
0
 62
7
100
AcDbLine
 10
332.480000
 20
506.320000
 30
0.0
 11
332.400000
 21
557.680000
 31
0.0
  0
SPLINE
  5
13b
100
AcDbEntity
  8
0
 62
7
100
AcDbSpline
 70
8
 71
3
 72
8
 73
4
 74
0
 40
0
 40
0
 40
0
 40
0
 40
1
 40
1
 40
1
 40
1
 10
332.400000
 20
557.680000
 30
0.0
 10
332.400000
 20
586.000000
 30
0.0
 10
332.240000
 20
609.200000
 30
0.0
 10
332.160000
 20
609.360000
 30
0.0
  0
SPLINE
  5
13c
100
AcDbEntity
  8
0
 62
7
100
AcDbSpline
 70
8
 71
3
 72
8
 73
4
 74
0
 40
0
 40
0
 40
0
 40
0
 40
1
 40
1
 40
1
 40
1
 10
332.160000
 20
609.360000
 30
0.0
 10
332.000000
 20
609.440000
 30
0.0
 10
330.560000
 20
606.640000
 30
0.0
 10
328.960000
 20
603.040000
 30
0.0
  0
SPLINE
  5
13d
100
AcDbEntity
  8
0
 62
7
100
AcDbSpline
 70
8
 71
3
 72
8
 73
4
 74
0
 40
0
 40
0
 40
0
 40
0
 40
1
 40
1
 40
1
 40
1
 10
328.960000
 20
603.040000
 30
0.0
 10
327.360000
 20
599.440000
 30
0.0
 10
316.640000
 20
575.600000
 30
0.0
 10
305.200000
 20
550.160000
 30
0.0
  0
SPLINE
  5
13e
100
AcDbEntity
  8
0
 62
7
100
AcDbSpline
 70
8
 71
3
 72
8
 73
4
 74
0
 40
0
 40
0
 40
0
 40
0
 40
1
 40
1
 40
1
 40
1
 10
305.200000
 20
550.160000
 30
0.0
 10
267.440000
 20
466.160000
 30
0.0
 10
264.320000
 20
459.040000
 30
0.0
 10
264.640000
 20
458.720000
 30
0.0
  0
SPLINE
  5
13f
100
AcDbEntity
  8
0
 62
7
100
AcDbSpline
 70
8
 71
3
 72
8
 73
4
 74
0
 40
0
 40
0
 40
0
 40
0
 40
1
 40
1
 40
1
 40
1
 10
264.640000
 20
458.720000
 30
0.0
 10
264.800000
 20
458.560000
 30
0.0
 10
309.200000
 20
458.400000
 30
0.0
 10
330.720000
 20
458.480000
 30
0.0
  0
SPLINE
  5
140
100
AcDbEntity
  8
0
 62
7
100
AcDbSpline
 70
8
 71
3
 72
8
 73
4
 74
0
 40
0
 40
0
 40
0
 40
0
 40
1
 40
1
 40
1
 40
1
 10
330.720000
 20
458.480000
 30
0.0
 10
332.400000
 20
458.560000
 30
0.0
 10
332.400000
 20
459.040000
 30
0.0
 10
332.400000
 20
478.560000
 30
0.0
  0
LINE
  5
141
100
AcDbEntity
  8
0
 62
7
100
AcDbLine
 10
332.400000
 20
478.560000
 30
0.0
 11
332.480000
 21
498.560000
 31
0.0
  0
LINE
  5
142
100
AcDbEntity
  8
0
 62
7
100
AcDbLine
 10
332.480000
 20
498.560000
 30
0.0
 11
336.800000
 21
494.400000
 31
0.0
  0
SPLINE
  5
143
100
AcDbEntity
  8
0
 62
7
100
AcDbSpline
 70
8
 71
3
 72
8
 73
4
 74
0
 40
0
 40
0
 40
0
 40
0
 40
1
 40
1
 40
1
 40
1
 10
336.800000
 20
494.400000
 30
0.0
 10
339.200000
 20
492.160000
 30
0.0
 10
346.560000
 20
484.880000
 30
0.0
 10
353.200000
 20
478.320000
 30
0.0
  0
SPLINE
  5
144
100
AcDbEntity
  8
0
 62
7
100
AcDbSpline
 70
8
 71
3
 72
8
 73
4
 74
0
 40
0
 40
0
 40
0
 40
0
 40
1
 40
1
 40
1
 40
1
 10
353.200000
 20
478.320000
 30
0.0
 10
359.840000
 20
471.680000
 30
0.0
 10
372.160000
 20
459.440000
 30
0.0
 10
380.560000
 20
451.040000
 30
0.0
  0
SPLINE
  5
145
100
AcDbEntity
  8
0
 62
7
100
AcDbSpline
 70
8
 71
3
 72
8
 73
4
 74
0
 40
0
 40
0
 40
0
 40
0
 40
1
 40
1
 40
1
 40
1
 10
380.560000
 20
451.040000
 30
0.0
 10
389.040000
 20
442.720000
 30
0.0
 10
400.240000
 20
431.600000
 30
0.0
 10
405.440000
 20
426.480000
 30
0.0
  0
SPLINE
  5
146
100
AcDbEntity
  8
0
 62
7
100
AcDbSpline
 70
8
 71
3
 72
8
 73
4
 74
0
 40
0
 40
0
 40
0
 40
0
 40
1
 40
1
 40
1
 40
1
 10
405.440000
 20
426.480000
 30
0.0
 10
410.640000
 20
421.280000
 30
0.0
 10
418.080000
 20
413.920000
 30
0.0
 10
421.920000
 20
410.080000
 30
0.0
  0
SPLINE
  5
147
100
AcDbEntity
  8
0
 62
7
100
AcDbSpline
 70
8
 71
3
 72
8
 73
4
 74
0
 40
0
 40
0
 40
0
 40
0
 40
1
 40
1
 40
1
 40
1
 10
421.920000
 20
410.080000
 30
0.0
 10
428.880000
 20
403.280000
 30
0.0
 10
428.960000
 20
403.200000
 30
0.0
 10
427.280000
 20
401.840000
 30
0.0
  0
SPLINE
  5
148
100
AcDbEntity
  8
0
 62
7
100
AcDbSpline
 70
8
 71
3
 72
8
 73
4
 74
0
 40
0
 40
0
 40
0
 40
0
 40
1
 40
1
 40
1
 40
1
 10
427.280000
 20
401.840000
 30
0.0
 10
426.320000
 20
401.120000
 30
0.0
 10
404.800000
 20
383.600000
 30
0.0
 10
379.360000
 20
362.800000
 30
0.0
  0
SPLINE
  5
149
100
AcDbEntity
  8
0
 62
7
100
AcDbSpline
 70
8
 71
3
 72
8
 73
4
 74
0
 40
0
 40
0
 40
0
 40
0
 40
1
 40
1
 40
1
 40
1
 10
379.360000
 20
362.800000
 30
0.0
 10
353.920000
 20
342.000000
 30
0.0
 10
332.800000
 20
324.960000
 30
0.0
 10
332.320000
 20
324.800000
 30
0.0
  0
SPLINE
  5
14a
100
AcDbEntity
  8
0
 62
7
100
AcDbSpline
 70
8
 71
3
 72
8
 73
4
 74
0
 40
0
 40
0
 40
0
 40
0
 40
1
 40
1
 40
1
 40
1
 10
332.320000
 20
324.800000
 30
0.0
 10
331.920000
 20
324.640000
 30
0.0
 10
331.600000
 20
332.720000
 30
0.0
 10
331.600000
 20
344.400000
 30
0.0
  0
LINE
  5
14b
100
AcDbEntity
  8
0
 62
7
100
AcDbLine
 10
331.600000
 20
344.400000
 30
0.0
 11
331.600000
 21
364.320000
 31
0.0
  0
LINE
  5
14c
100
AcDbEntity
  8
0
 62
7
100
AcDbLine
 10
331.600000
 20
364.320000
 30
0.0
 11
275.760000
 21
364.320000
 31
0.0
  0
LINE
  5
14d
100
AcDbEntity
  8
0
 62
7
100
AcDbLine
 10
275.760000
 20
364.320000
 30
0.0
 11
219.840000
 21
364.320000
 31
0.0
  0
LINE
  5
14e
100
AcDbEntity
  8
0
 62
7
100
AcDbLine
 10
219.840000
 20
364.320000
 30
0.0
 11
183.920000
 21
281.840000
 31
0.0
  0
SPLINE
  5
14f
100
AcDbEntity
  8
0
 62
7
100
AcDbSpline
 70
8
 71
3
 72
8
 73
4
 74
0
 40
0
 40
0
 40
0
 40
0
 40
1
 40
1
 40
1
 40
1
 10
183.920000
 20
281.840000
 30
0.0
 10
164.160000
 20
236.480000
 30
0.0
 10
145.920000
 20
194.640000
 30
0.0
 10
143.360000
 20
188.720000
 30
0.0
  0
LINE
  5
150
100
AcDbEntity
  8
0
 62
7
100
AcDbLine
 10
143.360000
 20
188.720000
 30
0.0
 11
138.720000
 21
178.080000
 31
0.0
  0
LINE
  5
151
100
AcDbEntity
  8
0
 62
7
100
AcDbLine
 10
138.720000
 20
178.080000
 30
0.0
 11
80.640000
 21
178.080000
 31
0.0
  0
SPLINE
  5
152
100
AcDbEntity
  8
0
 62
7
100
AcDbSpline
 70
8
 71
3
 72
8
 73
4
 74
0
 40
0
 40
0
 40
0
 40
0
 40
1
 40
1
 40
1
 40
1
 10
80.640000
 20
178.080000
 30
0.0
 10
48.720000
 20
178.080000
 30
0.0
 10
22.560000
 20
178.240000
 30
0.0
 10
22.560000
 20
178.400000
 30
0.0
  0
LINE
  5
153
100
AcDbEntity
  8
0
 62
7
100
AcDbLine
 10
22.560000
 20
178.400000
 30
0.0
 11
22.560000
 21
178.400000
 31
0.0
  0
LINE
  5
154
100
AcDbEntity
  8
0
 62
7
100
AcDbLine
 10
332.400000
 20
309.600000
 30
0.0
 11
332.400000
 21
316.160000
 31
0.0
  0
LINE
  5
155
100
AcDbEntity
  8
0
 62
7
100
AcDbLine
 10
332.400000
 20
316.160000
 30
0.0
 11
353.360000
 21
333.360000
 31
0.0
  0
SPLINE
  5
156
100
AcDbEntity
  8
0
 62
7
100
AcDbSpline
 70
8
 71
3
 72
8
 73
4
 74
0
 40
0
 40
0
 40
0
 40
0
 40
1
 40
1
 40
1
 40
1
 10
353.360000
 20
333.360000
 30
0.0
 10
364.960000
 20
342.800000
 30
0.0
 10
385.360000
 20
359.600000
 30
0.0
 10
398.880000
 20
370.640000
 30
0.0
  0
SPLINE
  5
157
100
AcDbEntity
  8
0
 62
7
100
AcDbSpline
 70
8
 71
3
 72
8
 73
4
 74
0
 40
0
 40
0
 40
0
 40
0
 40
1
 40
1
 40
1
 40
1
 10
398.880000
 20
370.640000
 30
0.0
 10
412.320000
 20
381.680000
 30
0.0
 10
424.400000
 20
391.520000
 30
0.0
 10
425.680000
 20
392.560000
 30
0.0
  0
LINE
  5
158
100
AcDbEntity
  8
0
 62
7
100
AcDbLine
 10
425.680000
 20
392.560000
 30
0.0
 11
427.920000
 21
394.480000
 31
0.0
  0
LINE
  5
159
100
AcDbEntity
  8
0
 62
7
100
AcDbLine
 10
427.920000
 20
394.480000
 30
0.0
 11
427.920000
 21
348.720000
 31
0.0
  0
LINE
  5
15a
100
AcDbEntity
  8
0
 62
7
100
AcDbLine
 10
427.920000
 20
348.720000
 30
0.0
 11
427.920000
 21
302.960000
 31
0.0
  0
LINE
  5
15b
100
AcDbEntity
  8
0
 62
7
100
AcDbLine
 10
427.920000
 20
302.960000
 30
0.0
 11
380.160000
 21
302.960000
 31
0.0
  0
LINE
  5
15c
100
AcDbEntity
  8
0
 62
7
100
AcDbLine
 10
380.160000
 20
302.960000
 30
0.0
 11
332.400000
 21
302.960000
 31
0.0
  0
LINE
  5
15d
100
AcDbEntity
  8
0
 62
7
100
AcDbLine
 10
332.400000
 20
302.960000
 30
0.0
 11
332.400000
 21
309.600000
 31
0.0
  0
LINE
  5
15e
100
AcDbEntity
  8
0
 62
7
100
AcDbLine
 10
332.400000
 20
309.600000
 30
0.0
 11
332.400000
 21
309.600000
 31
0.0
  0
SPLINE
  5
15f
100
AcDbEntity
  8
0
 62
7
100
AcDbSpline
 70
8
 71
3
 72
8
 73
4
 74
0
 40
0
 40
0
 40
0
 40
0
 40
1
 40
1
 40
1
 40
1
 10
63.360000
 20
67.440000
 30
0.0
 10
66.640000
 20
66.400000
 30
0.0
 10
69.040000
 20
64.800000
 30
0.0
 10
70.640000
 20
62.640000
 30
0.0
  0
SPLINE
  5
160
100
AcDbEntity
  8
0
 62
7
100
AcDbSpline
 70
8
 71
3
 72
8
 73
4
 74
0
 40
0
 40
0
 40
0
 40
0
 40
1
 40
1
 40
1
 40
1
 10
70.640000
 20
62.640000
 30
0.0
 10
72.240000
 20
60.400000
 30
0.0
 10
73.040000
 20
57.840000
 30
0.0
 10
73.040000
 20
54.960000
 30
0.0
  0
SPLINE
  5
161
100
AcDbEntity
  8
0
 62
7
100
AcDbSpline
 70
8
 71
3
 72
8
 73
4
 74
0
 40
0
 40
0
 40
0
 40
0
 40
1
 40
1
 40
1
 40
1
 10
73.040000
 20
54.960000
 30
0.0
 10
73.040000
 20
52.080000
 30
0.0
 10
72.320000
 20
49.440000
 30
0.0
 10
70.880000
 20
47.040000
 30
0.0
  0
SPLINE
  5
162
100
AcDbEntity
  8
0
 62
7
100
AcDbSpline
 70
8
 71
3
 72
8
 73
4
 74
0
 40
0
 40
0
 40
0
 40
0
 40
1
 40
1
 40
1
 40
1
 10
70.880000
 20
47.040000
 30
0.0
 10
69.440000
 20
44.640000
 30
0.0
 10
67.360000
 20
42.800000
 30
0.0
 10
64.720000
 20
41.680000
 30
0.0
  0
SPLINE
  5
163
100
AcDbEntity
  8
0
 62
7
100
AcDbSpline
 70
8
 71
3
 72
8
 73
4
 74
0
 40
0
 40
0
 40
0
 40
0
 40
1
 40
1
 40
1
 40
1
 10
64.720000
 20
41.680000
 30
0.0
 10
62.000000
 20
40.560000
 30
0.0
 10
58.400000
 20
40.000000
 30
0.0
 10
53.840000
 20
40.000000
 30
0.0
  0
LINE
  5
164
100
AcDbEntity
  8
0
 62
7
100
AcDbLine
 10
53.840000
 20
40.000000
 30
0.0
 11
34.080000
 21
40.000000
 31
0.0
  0
LINE
  5
165
100
AcDbEntity
  8
0
 62
7
100
AcDbLine
 10
34.080000
 20
40.000000
 30
0.0
 11
34.080000
 21
91.520000
 31
0.0
  0
LINE
  5
166
100
AcDbEntity
  8
0
 62
7
100
AcDbLine
 10
34.080000
 20
91.520000
 30
0.0
 11
53.440000
 21
91.520000
 31
0.0
  0
SPLINE
  5
167
100
AcDbEntity
  8
0
 62
7
100
AcDbSpline
 70
8
 71
3
 72
8
 73
4
 74
0
 40
0
 40
0
 40
0
 40
0
 40
1
 40
1
 40
1
 40
1
 10
53.440000
 20
91.520000
 30
0.0
 10
59.680000
 20
91.520000
 30
0.0
 10
64.080000
 20
90.160000
 30
0.0
 10
66.720000
 20
87.440000
 30
0.0
  0
SPLINE
  5
168
100
AcDbEntity
  8
0
 62
7
100
AcDbSpline
 70
8
 71
3
 72
8
 73
4
 74
0
 40
0
 40
0
 40
0
 40
0
 40
1
 40
1
 40
1
 40
1
 10
66.720000
 20
87.440000
 30
0.0
 10
69.280000
 20
84.720000
 30
0.0
 10
70.560000
 20
81.680000
 30
0.0
 10
70.560000
 20
78.400000
 30
0.0
  0
SPLINE
  5
169
100
AcDbEntity
  8
0
 62
7
100
AcDbSpline
 70
8
 71
3
 72
8
 73
4
 74
0
 40
0
 40
0
 40
0
 40
0
 40
1
 40
1
 40
1
 40
1
 10
70.560000
 20
78.400000
 30
0.0
 10
70.560000
 20
76.160000
 30
0.0
 10
69.920000
 20
74.080000
 30
0.0
 10
68.720000
 20
72.160000
 30
0.0
  0
SPLINE
  5
16a
100
AcDbEntity
  8
0
 62
7
100
AcDbSpline
 70
8
 71
3
 72
8
 73
4
 74
0
 40
0
 40
0
 40
0
 40
0
 40
1
 40
1
 40
1
 40
1
 10
68.720000
 20
72.160000
 30
0.0
 10
67.600000
 20
70.240000
 30
0.0
 10
65.760000
 20
68.640000
 30
0.0
 10
63.360000
 20
67.440000
 30
0.0
  0
LINE
  5
16b
100
AcDbEntity
  8
0
 62
7
100
AcDbLine
 10
63.360000
 20
67.440000
 30
0.0
 11
63.360000
 21
67.440000
 31
0.0
  0
LINE
  5
16c
100
AcDbEntity
  8
0
 62
7
100
AcDbLine
 10
40.960000
 20
69.920000
 30
0.0
 11
52.080000
 21
69.920000
 31
0.0
  0
SPLINE
  5
16d
100
AcDbEntity
  8
0
 62
7
100
AcDbSpline
 70
8
 71
3
 72
8
 73
4
 74
0
 40
0
 40
0
 40
0
 40
0
 40
1
 40
1
 40
1
 40
1
 10
52.080000
 20
69.920000
 30
0.0
 10
54.400000
 20
69.920000
 30
0.0
 10
56.320000
 20
70.080000
 30
0.0
 10
57.920000
 20
70.320000
 30
0.0
  0
SPLINE
  5
16e
100
AcDbEntity
  8
0
 62
7
100
AcDbSpline
 70
8
 71
3
 72
8
 73
4
 74
0
 40
0
 40
0
 40
0
 40
0
 40
1
 40
1
 40
1
 40
1
 10
57.920000
 20
70.320000
 30
0.0
 10
59.440000
 20
70.560000
 30
0.0
 10
60.800000
 20
71.280000
 30
0.0
 10
62.000000
 20
72.400000
 30
0.0
  0
SPLINE
  5
16f
100
AcDbEntity
  8
0
 62
7
100
AcDbSpline
 70
8
 71
3
 72
8
 73
4
 74
0
 40
0
 40
0
 40
0
 40
0
 40
1
 40
1
 40
1
 40
1
 10
62.000000
 20
72.400000
 30
0.0
 10
63.200000
 20
73.440000
 30
0.0
 10
63.840000
 20
75.200000
 30
0.0
 10
63.840000
 20
77.520000
 30
0.0
  0
SPLINE
  5
170
100
AcDbEntity
  8
0
 62
7
100
AcDbSpline
 70
8
 71
3
 72
8
 73
4
 74
0
 40
0
 40
0
 40
0
 40
0
 40
1
 40
1
 40
1
 40
1
 10
63.840000
 20
77.520000
 30
0.0
 10
63.840000
 20
79.920000
 30
0.0
 10
63.200000
 20
81.760000
 30
0.0
 10
62.000000
 20
82.880000
 30
0.0
  0
SPLINE
  5
171
100
AcDbEntity
  8
0
 62
7
100
AcDbSpline
 70
8
 71
3
 72
8
 73
4
 74
0
 40
0
 40
0
 40
0
 40
0
 40
1
 40
1
 40
1
 40
1
 10
62.000000
 20
82.880000
 30
0.0
 10
60.800000
 20
84.080000
 30
0.0
 10
59.360000
 20
84.800000
 30
0.0
 10
57.680000
 20
85.040000
 30
0.0
  0
SPLINE
  5
172
100
AcDbEntity
  8
0
 62
7
100
AcDbSpline
 70
8
 71
3
 72
8
 73
4
 74
0
 40
0
 40
0
 40
0
 40
0
 40
1
 40
1
 40
1
 40
1
 10
57.680000
 20
85.040000
 30
0.0
 10
56.000000
 20
85.280000
 30
0.0
 10
53.840000
 20
85.440000
 30
0.0
 10
51.200000
 20
85.440000
 30
0.0
  0
LINE
  5
173
100
AcDbEntity
  8
0
 62
7
100
AcDbLine
 10
51.200000
 20
85.440000
 30
0.0
 11
40.960000
 21
85.440000
 31
0.0
  0
LINE
  5
174
100
AcDbEntity
  8
0
 62
7
100
AcDbLine
 10
40.960000
 20
85.440000
 30
0.0
 11
40.960000
 21
69.920000
 31
0.0
  0
LINE
  5
175
100
AcDbEntity
  8
0
 62
7
100
AcDbLine
 10
40.960000
 20
69.920000
 30
0.0
 11
40.960000
 21
69.920000
 31
0.0
  0
LINE
  5
176
100
AcDbEntity
  8
0
 62
7
100
AcDbLine
 10
40.960000
 20
46.080000
 30
0.0
 11
53.760000
 21
46.080000
 31
0.0
  0
SPLINE
  5
177
100
AcDbEntity
  8
0
 62
7
100
AcDbSpline
 70
8
 71
3
 72
8
 73
4
 74
0
 40
0
 40
0
 40
0
 40
0
 40
1
 40
1
 40
1
 40
1
 10
53.760000
 20
46.080000
 30
0.0
 10
58.320000
 20
46.080000
 30
0.0
 10
61.520000
 20
46.880000
 30
0.0
 10
63.360000
 20
48.480000
 30
0.0
  0
SPLINE
  5
178
100
AcDbEntity
  8
0
 62
7
100
AcDbSpline
 70
8
 71
3
 72
8
 73
4
 74
0
 40
0
 40
0
 40
0
 40
0
 40
1
 40
1
 40
1
 40
1
 10
63.360000
 20
48.480000
 30
0.0
 10
65.120000
 20
50.000000
 30
0.0
 10
66.000000
 20
52.160000
 30
0.0
 10
66.000000
 20
54.960000
 30
0.0
  0
SPLINE
  5
179
100
AcDbEntity
  8
0
 62
7
100
AcDbSpline
 70
8
 71
3
 72
8
 73
4
 74
0
 40
0
 40
0
 40
0
 40
0
 40
1
 40
1
 40
1
 40
1
 10
66.000000
 20
54.960000
 30
0.0
 10
66.000000
 20
57.760000
 30
0.0
 10
65.040000
 20
59.920000
 30
0.0
 10
63.120000
 20
61.520000
 30
0.0
  0
SPLINE
  5
17a
100
AcDbEntity
  8
0
 62
7
100
AcDbSpline
 70
8
 71
3
 72
8
 73
4
 74
0
 40
0
 40
0
 40
0
 40
0
 40
1
 40
1
 40
1
 40
1
 10
63.120000
 20
61.520000
 30
0.0
 10
61.280000
 20
63.040000
 30
0.0
 10
57.840000
 20
63.840000
 30
0.0
 10
52.880000
 20
63.840000
 30
0.0
  0
LINE
  5
17b
100
AcDbEntity
  8
0
 62
7
100
AcDbLine
 10
52.880000
 20
63.840000
 30
0.0
 11
40.960000
 21
63.840000
 31
0.0
  0
LINE
  5
17c
100
AcDbEntity
  8
0
 62
7
100
AcDbLine
 10
40.960000
 20
63.840000
 30
0.0
 11
40.960000
 21
46.080000
 31
0.0
  0
LINE
  5
17d
100
AcDbEntity
  8
0
 62
7
100
AcDbLine
 10
40.960000
 20
46.080000
 30
0.0
 11
40.960000
 21
46.080000
 31
0.0
  0
LINE
  5
17e
100
AcDbEntity
  8
0
 62
7
100
AcDbLine
 10
87.920000
 20
40.000000
 30
0.0
 11
81.600000
 21
40.000000
 31
0.0
  0
LINE
  5
17f
100
AcDbEntity
  8
0
 62
7
100
AcDbLine
 10
81.600000
 20
40.000000
 30
0.0
 11
81.600000
 21
77.280000
 31
0.0
  0
LINE
  5
180
100
AcDbEntity
  8
0
 62
7
100
AcDbLine
 10
81.600000
 20
77.280000
 30
0.0
 11
87.920000
 21
77.280000
 31
0.0
  0
LINE
  5
181
100
AcDbEntity
  8
0
 62
7
100
AcDbLine
 10
87.920000
 20
77.280000
 30
0.0
 11
87.920000
 21
40.000000
 31
0.0
  0
LINE
  5
182
100
AcDbEntity
  8
0
 62
7
100
AcDbLine
 10
87.920000
 20
40.000000
 30
0.0
 11
87.920000
 21
40.000000
 31
0.0
  0
LINE
  5
183
100
AcDbEntity
  8
0
 62
7
100
AcDbLine
 10
87.920000
 20
84.320000
 30
0.0
 11
81.600000
 21
84.320000
 31
0.0
  0
LINE
  5
184
100
AcDbEntity
  8
0
 62
7
100
AcDbLine
 10
81.600000
 20
84.320000
 30
0.0
 11
81.600000
 21
91.520000
 31
0.0
  0
LINE
  5
185
100
AcDbEntity
  8
0
 62
7
100
AcDbLine
 10
81.600000
 20
91.520000
 30
0.0
 11
87.920000
 21
91.520000
 31
0.0
  0
LINE
  5
186
100
AcDbEntity
  8
0
 62
7
100
AcDbLine
 10
87.920000
 20
91.520000
 30
0.0
 11
87.920000
 21
84.320000
 31
0.0
  0
LINE
  5
187
100
AcDbEntity
  8
0
 62
7
100
AcDbLine
 10
87.920000
 20
84.320000
 30
0.0
 11
87.920000
 21
84.320000
 31
0.0
  0
SPLINE
  5
188
100
AcDbEntity
  8
0
 62
7
100
AcDbSpline
 70
8
 71
3
 72
8
 73
4
 74
0
 40
0
 40
0
 40
0
 40
0
 40
1
 40
1
 40
1
 40
1
 10
118.400000
 20
66.880000
 30
0.0
 10
118.160000
 20
68.880000
 30
0.0
 10
117.280000
 20
70.400000
 30
0.0
 10
115.920000
 20
71.440000
 30
0.0
  0
SPLINE
  5
189
100
AcDbEntity
  8
0
 62
7
100
AcDbSpline
 70
8
 71
3
 72
8
 73
4
 74
0
 40
0
 40
0
 40
0
 40
0
 40
1
 40
1
 40
1
 40
1
 10
115.920000
 20
71.440000
 30
0.0
 10
114.560000
 20
72.480000
 30
0.0
 10
112.640000
 20
72.960000
 30
0.0
 10
110.240000
 20
72.960000
 30
0.0
  0
SPLINE
  5
18a
100
AcDbEntity
  8
0
 62
7
100
AcDbSpline
 70
8
 71
3
 72
8
 73
4
 74
0
 40
0
 40
0
 40
0
 40
0
 40
1
 40
1
 40
1
 40
1
 10
110.240000
 20
72.960000
 30
0.0
 10
107.840000
 20
72.960000
 30
0.0
 10
105.840000
 20
72.560000
 30
0.0
 10
104.400000
 20
71.760000
 30
0.0
  0
SPLINE
  5
18b
100
AcDbEntity
  8
0
 62
7
100
AcDbSpline
 70
8
 71
3
 72
8
 73
4
 74
0
 40
0
 40
0
 40
0
 40
0
 40
1
 40
1
 40
1
 40
1
 10
104.400000
 20
71.760000
 30
0.0
 10
102.880000
 20
70.880000
 30
0.0
 10
102.160000
 20
69.680000
 30
0.0
 10
102.160000
 20
68.160000
 30
0.0
  0
SPLINE
  5
18c
100
AcDbEntity
  8
0
 62
7
100
AcDbSpline
 70
8
 71
3
 72
8
 73
4
 74
0
 40
0
 40
0
 40
0
 40
0
 40
1
 40
1
 40
1
 40
1
 10
102.160000
 20
68.160000
 30
0.0
 10
102.160000
 20
66.640000
 30
0.0
 10
102.720000
 20
65.600000
 30
0.0
 10
103.920000
 20
64.960000
 30
0.0
  0
SPLINE
  5
18d
100
AcDbEntity
  8
0
 62
7
100
AcDbSpline
 70
8
 71
3
 72
8
 73
4
 74
0
 40
0
 40
0
 40
0
 40
0
 40
1
 40
1
 40
1
 40
1
 10
103.920000
 20
64.960000
 30
0.0
 10
105.120000
 20
64.320000
 30
0.0
 10
107.440000
 20
63.600000
 30
0.0
 10
110.960000
 20
62.640000
 30
0.0
  0
SPLINE
  5
18e
100
AcDbEntity
  8
0
 62
7
100
AcDbSpline
 70
8
 71
3
 72
8
 73
4
 74
0
 40
0
 40
0
 40
0
 40
0
 40
1
 40
1
 40
1
 40
1
 10
110.960000
 20
62.640000
 30
0.0
 10
114.880000
 20
61.680000
 30
0.0
 10
117.840000
 20
60.800000
 30
0.0
 10
119.760000
 20
60.000000
 30
0.0
  0
SPLINE
  5
18f
100
AcDbEntity
  8
0
 62
7
100
AcDbSpline
 70
8
 71
3
 72
8
 73
4
 74
0
 40
0
 40
0
 40
0
 40
0
 40
1
 40
1
 40
1
 40
1
 10
119.760000
 20
60.000000
 30
0.0
 10
121.760000
 20
59.200000
 30
0.0
 10
123.280000
 20
58.160000
 30
0.0
 10
124.320000
 20
56.720000
 30
0.0
  0
SPLINE
  5
190
100
AcDbEntity
  8
0
 62
7
100
AcDbSpline
 70
8
 71
3
 72
8
 73
4
 74
0
 40
0
 40
0
 40
0
 40
0
 40
1
 40
1
 40
1
 40
1
 10
124.320000
 20
56.720000
 30
0.0
 10
125.440000
 20
55.360000
 30
0.0
 10
126.000000
 20
53.440000
 30
0.0
 10
126.000000
 20
50.880000
 30
0.0
  0
SPLINE
  5
191
100
AcDbEntity
  8
0
 62
7
100
AcDbSpline
 70
8
 71
3
 72
8
 73
4
 74
0
 40
0
 40
0
 40
0
 40
0
 40
1
 40
1
 40
1
 40
1
 10
126.000000
 20
50.880000
 30
0.0
 10
126.000000
 20
47.600000
 30
0.0
 10
124.640000
 20
44.800000
 30
0.0
 10
121.920000
 20
42.480000
 30
0.0
  0
SPLINE
  5
192
100
AcDbEntity
  8
0
 62
7
100
AcDbSpline
 70
8
 71
3
 72
8
 73
4
 74
0
 40
0
 40
0
 40
0
 40
0
 40
1
 40
1
 40
1
 40
1
 10
121.920000
 20
42.480000
 30
0.0
 10
119.200000
 20
40.240000
 30
0.0
 10
115.520000
 20
39.120000
 30
0.0
 10
110.960000
 20
39.120000
 30
0.0
  0
SPLINE
  5
193
100
AcDbEntity
  8
0
 62
7
100
AcDbSpline
 70
8
 71
3
 72
8
 73
4
 74
0
 40
0
 40
0
 40
0
 40
0
 40
1
 40
1
 40
1
 40
1
 10
110.960000
 20
39.120000
 30
0.0
 10
106.240000
 20
39.120000
 30
0.0
 10
102.560000
 20
40.080000
 30
0.0
 10
99.920000
 20
42.080000
 30
0.0
  0
SPLINE
  5
194
100
AcDbEntity
  8
0
 62
7
100
AcDbSpline
 70
8
 71
3
 72
8
 73
4
 74
0
 40
0
 40
0
 40
0
 40
0
 40
1
 40
1
 40
1
 40
1
 10
99.920000
 20
42.080000
 30
0.0
 10
97.280000
 20
44.080000
 30
0.0
 10
95.600000
 20
47.120000
 30
0.0
 10
95.040000
 20
51.120000
 30
0.0
  0
LINE
  5
195
100
AcDbEntity
  8
0
 62
7
100
AcDbLine
 10
95.040000
 20
51.120000
 30
0.0
 11
101.280000
 21
52.080000
 31
0.0
  0
SPLINE
  5
196
100
AcDbEntity
  8
0
 62
7
100
AcDbSpline
 70
8
 71
3
 72
8
 73
4
 74
0
 40
0
 40
0
 40
0
 40
0
 40
1
 40
1
 40
1
 40
1
 10
101.280000
 20
52.080000
 30
0.0
 10
101.600000
 20
49.440000
 30
0.0
 10
102.560000
 20
47.520000
 30
0.0
 10
104.160000
 20
46.240000
 30
0.0
  0
SPLINE
  5
197
100
AcDbEntity
  8
0
 62
7
100
AcDbSpline
 70
8
 71
3
 72
8
 73
4
 74
0
 40
0
 40
0
 40
0
 40
0
 40
1
 40
1
 40
1
 40
1
 10
104.160000
 20
46.240000
 30
0.0
 10
105.840000
 20
44.960000
 30
0.0
 10
108.080000
 20
44.320000
 30
0.0
 10
110.960000
 20
44.320000
 30
0.0
  0
SPLINE
  5
198
100
AcDbEntity
  8
0
 62
7
100
AcDbSpline
 70
8
 71
3
 72
8
 73
4
 74
0
 40
0
 40
0
 40
0
 40
0
 40
1
 40
1
 40
1
 40
1
 10
110.960000
 20
44.320000
 30
0.0
 10
113.680000
 20
44.320000
 30
0.0
 10
115.840000
 20
44.880000
 30
0.0
 10
117.280000
 20
46.080000
 30
0.0
  0
SPLINE
  5
199
100
AcDbEntity
  8
0
 62
7
100
AcDbSpline
 70
8
 71
3
 72
8
 73
4
 74
0
 40
0
 40
0
 40
0
 40
0
 40
1
 40
1
 40
1
 40
1
 10
117.280000
 20
46.080000
 30
0.0
 10
118.800000
 20
47.200000
 30
0.0
 10
119.520000
 20
48.640000
 30
0.0
 10
119.520000
 20
50.320000
 30
0.0
  0
SPLINE
  5
19a
100
AcDbEntity
  8
0
 62
7
100
AcDbSpline
 70
8
 71
3
 72
8
 73
4
 74
0
 40
0
 40
0
 40
0
 40
0
 40
1
 40
1
 40
1
 40
1
 10
119.520000
 20
50.320000
 30
0.0
 10
119.520000
 20
51.440000
 30
0.0
 10
119.200000
 20
52.320000
 30
0.0
 10
118.480000
 20
52.960000
 30
0.0
  0
SPLINE
  5
19b
100
AcDbEntity
  8
0
 62
7
100
AcDbSpline
 70
8
 71
3
 72
8
 73
4
 74
0
 40
0
 40
0
 40
0
 40
0
 40
1
 40
1
 40
1
 40
1
 10
118.480000
 20
52.960000
 30
0.0
 10
117.840000
 20
53.680000
 30
0.0
 10
116.960000
 20
54.160000
 30
0.0
 10
115.920000
 20
54.560000
 30
0.0
  0
SPLINE
  5
19c
100
AcDbEntity
  8
0
 62
7
100
AcDbSpline
 70
8
 71
3
 72
8
 73
4
 74
0
 40
0
 40
0
 40
0
 40
0
 40
1
 40
1
 40
1
 40
1
 10
115.920000
 20
54.560000
 30
0.0
 10
114.880000
 20
54.880000
 30
0.0
 10
112.640000
 20
55.440000
 30
0.0
 10
109.040000
 20
56.320000
 30
0.0
  0
SPLINE
  5
19d
100
AcDbEntity
  8
0
 62
7
100
AcDbSpline
 70
8
 71
3
 72
8
 73
4
 74
0
 40
0
 40
0
 40
0
 40
0
 40
1
 40
1
 40
1
 40
1
 10
109.040000
 20
56.320000
 30
0.0
 10
103.760000
 20
57.600000
 30
0.0
 10
100.240000
 20
59.120000
 30
0.0
 10
98.560000
 20
60.960000
 30
0.0
  0
SPLINE
  5
19e
100
AcDbEntity
  8
0
 62
7
100
AcDbSpline
 70
8
 71
3
 72
8
 73
4
 74
0
 40
0
 40
0
 40
0
 40
0
 40
1
 40
1
 40
1
 40
1
 10
98.560000
 20
60.960000
 30
0.0
 10
96.880000
 20
62.720000
 30
0.0
 10
96.000000
 20
64.880000
 30
0.0
 10
96.000000
 20
67.440000
 30
0.0
  0
SPLINE
  5
19f
100
AcDbEntity
  8
0
 62
7
100
AcDbSpline
 70
8
 71
3
 72
8
 73
4
 74
0
 40
0
 40
0
 40
0
 40
0
 40
1
 40
1
 40
1
 40
1
 10
96.000000
 20
67.440000
 30
0.0
 10
96.000000
 20
70.560000
 30
0.0
 10
97.280000
 20
73.120000
 30
0.0
 10
99.760000
 20
75.120000
 30
0.0
  0
SPLINE
  5
1a0
100
AcDbEntity
  8
0
 62
7
100
AcDbSpline
 70
8
 71
3
 72
8
 73
4
 74
0
 40
0
 40
0
 40
0
 40
0
 40
1
 40
1
 40
1
 40
1
 10
99.760000
 20
75.120000
 30
0.0
 10
102.240000
 20
77.120000
 30
0.0
 10
105.600000
 20
78.160000
 30
0.0
 10
109.760000
 20
78.160000
 30
0.0
  0
SPLINE
  5
1a1
100
AcDbEntity
  8
0
 62
7
100
AcDbSpline
 70
8
 71
3
 72
8
 73
4
 74
0
 40
0
 40
0
 40
0
 40
0
 40
1
 40
1
 40
1
 40
1
 10
109.760000
 20
78.160000
 30
0.0
 10
114.240000
 20
78.160000
 30
0.0
 10
117.680000
 20
77.280000
 30
0.0
 10
120.160000
 20
75.520000
 30
0.0
  0
SPLINE
  5
1a2
100
AcDbEntity
  8
0
 62
7
100
AcDbSpline
 70
8
 71
3
 72
8
 73
4
 74
0
 40
0
 40
0
 40
0
 40
0
 40
1
 40
1
 40
1
 40
1
 10
120.160000
 20
75.520000
 30
0.0
 10
122.640000
 20
73.760000
 30
0.0
 10
124.080000
 20
71.120000
 30
0.0
 10
124.640000
 20
67.680000
 30
0.0
  0
LINE
  5
1a3
100
AcDbEntity
  8
0
 62
7
100
AcDbLine
 10
124.640000
 20
67.680000
 30
0.0
 11
118.400000
 21
66.880000
 31
0.0
  0
LINE
  5
1a4
100
AcDbEntity
  8
0
 62
7
100
AcDbLine
 10
118.400000
 20
66.880000
 30
0.0
 11
118.400000
 21
66.880000
 31
0.0
  0
SPLINE
  5
1a5
100
AcDbEntity
  8
0
 62
7
100
AcDbSpline
 70
8
 71
3
 72
8
 73
4
 74
0
 40
0
 40
0
 40
0
 40
0
 40
1
 40
1
 40
1
 40
1
 10
148.160000
 20
40.080000
 30
0.0
 10
146.320000
 20
39.680000
 30
0.0
 10
144.720000
 20
39.520000
 30
0.0
 10
143.440000
 20
39.520000
 30
0.0
  0
SPLINE
  5
1a6
100
AcDbEntity
  8
0
 62
7
100
AcDbSpline
 70
8
 71
3
 72
8
 73
4
 74
0
 40
0
 40
0
 40
0
 40
0
 40
1
 40
1
 40
1
 40
1
 10
143.440000
 20
39.520000
 30
0.0
 10
140.640000
 20
39.520000
 30
0.0
 10
138.640000
 20
40.000000
 30
0.0
 10
137.360000
 20
40.960000
 30
0.0
  0
SPLINE
  5
1a7
100
AcDbEntity
  8
0
 62
7
100
AcDbSpline
 70
8
 71
3
 72
8
 73
4
 74
0
 40
0
 40
0
 40
0
 40
0
 40
1
 40
1
 40
1
 40
1
 10
137.360000
 20
40.960000
 30
0.0
 10
136.080000
 20
41.920000
 30
0.0
 10
135.360000
 20
43.120000
 30
0.0
 10
135.040000
 20
44.640000
 30
0.0
  0
SPLINE
  5
1a8
100
AcDbEntity
  8
0
 62
7
100
AcDbSpline
 70
8
 71
3
 72
8
 73
4
 74
0
 40
0
 40
0
 40
0
 40
0
 40
1
 40
1
 40
1
 40
1
 10
135.040000
 20
44.640000
 30
0.0
 10
134.800000
 20
46.160000
 30
0.0
 10
134.640000
 20
48.240000
 30
0.0
 10
134.640000
 20
50.880000
 30
0.0
  0
LINE
  5
1a9
100
AcDbEntity
  8
0
 62
7
100
AcDbLine
 10
134.640000
 20
50.880000
 30
0.0
 11
134.640000
 21
72.400000
 31
0.0
  0
LINE
  5
1aa
100
AcDbEntity
  8
0
 62
7
100
AcDbLine
 10
134.640000
 20
72.400000
 30
0.0
 11
130.000000
 21
72.400000
 31
0.0
  0
LINE
  5
1ab
100
AcDbEntity
  8
0
 62
7
100
AcDbLine
 10
130.000000
 20
72.400000
 30
0.0
 11
130.000000
 21
77.280000
 31
0.0
  0
LINE
  5
1ac
100
AcDbEntity
  8
0
 62
7
100
AcDbLine
 10
130.000000
 20
77.280000
 30
0.0
 11
134.640000
 21
77.280000
 31
0.0
  0
LINE
  5
1ad
100
AcDbEntity
  8
0
 62
7
100
AcDbLine
 10
134.640000
 20
77.280000
 30
0.0
 11
134.640000
 21
86.560000
 31
0.0
  0
LINE
  5
1ae
100
AcDbEntity
  8
0
 62
7
100
AcDbLine
 10
134.640000
 20
86.560000
 30
0.0
 11
140.960000
 21
90.400000
 31
0.0
  0
LINE
  5
1af
100
AcDbEntity
  8
0
 62
7
100
AcDbLine
 10
140.960000
 20
90.400000
 30
0.0
 11
140.960000
 21
77.280000
 31
0.0
  0
LINE
  5
1b0
100
AcDbEntity
  8
0
 62
7
100
AcDbLine
 10
140.960000
 20
77.280000
 30
0.0
 11
147.280000
 21
77.280000
 31
0.0
  0
LINE
  5
1b1
100
AcDbEntity
  8
0
 62
7
100
AcDbLine
 10
147.280000
 20
77.280000
 30
0.0
 11
147.280000
 21
72.400000
 31
0.0
  0
LINE
  5
1b2
100
AcDbEntity
  8
0
 62
7
100
AcDbLine
 10
147.280000
 20
72.400000
 30
0.0
 11
140.960000
 21
72.400000
 31
0.0
  0
LINE
  5
1b3
100
AcDbEntity
  8
0
 62
7
100
AcDbLine
 10
140.960000
 20
72.400000
 30
0.0
 11
140.960000
 21
50.560000
 31
0.0
  0
SPLINE
  5
1b4
100
AcDbEntity
  8
0
 62
7
100
AcDbSpline
 70
8
 71
3
 72
8
 73
4
 74
0
 40
0
 40
0
 40
0
 40
0
 40
1
 40
1
 40
1
 40
1
 10
140.960000
 20
50.560000
 30
0.0
 10
140.960000
 20
48.720000
 30
0.0
 10
141.120000
 20
47.360000
 30
0.0
 10
141.520000
 20
46.560000
 30
0.0
  0
SPLINE
  5
1b5
100
AcDbEntity
  8
0
 62
7
100
AcDbSpline
 70
8
 71
3
 72
8
 73
4
 74
0
 40
0
 40
0
 40
0
 40
0
 40
1
 40
1
 40
1
 40
1
 10
141.520000
 20
46.560000
 30
0.0
 10
141.920000
 20
45.760000
 30
0.0
 10
142.880000
 20
45.360000
 30
0.0
 10
144.480000
 20
45.360000
 30
0.0
  0
SPLINE
  5
1b6
100
AcDbEntity
  8
0
 62
7
100
AcDbSpline
 70
8
 71
3
 72
8
 73
4
 74
0
 40
0
 40
0
 40
0
 40
0
 40
1
 40
1
 40
1
 40
1
 10
144.480000
 20
45.360000
 30
0.0
 10
145.360000
 20
45.360000
 30
0.0
 10
146.320000
 20
45.520000
 30
0.0
 10
147.280000
 20
45.680000
 30
0.0
  0
LINE
  5
1b7
100
AcDbEntity
  8
0
 62
7
100
AcDbLine
 10
147.280000
 20
45.680000
 30
0.0
 11
148.160000
 21
40.080000
 31
0.0
  0
LINE
  5
1b8
100
AcDbEntity
  8
0
 62
7
100
AcDbLine
 10
148.160000
 20
40.080000
 30
0.0
 11
148.160000
 21
40.080000
 31
0.0
  0
SPLINE
  5
1b9
100
AcDbEntity
  8
0
 62
7
100
AcDbSpline
 70
8
 71
3
 72
8
 73
4
 74
0
 40
0
 40
0
 40
0
 40
0
 40
1
 40
1
 40
1
 40
1
 10
168.800000
 20
78.160000
 30
0.0
 10
173.840000
 20
78.160000
 30
0.0
 10
178.000000
 20
76.480000
 30
0.0
 10
181.360000
 20
73.200000
 30
0.0
  0
SPLINE
  5
1ba
100
AcDbEntity
  8
0
 62
7
100
AcDbSpline
 70
8
 71
3
 72
8
 73
4
 74
0
 40
0
 40
0
 40
0
 40
0
 40
1
 40
1
 40
1
 40
1
 10
181.360000
 20
73.200000
 30
0.0
 10
184.640000
 20
69.920000
 30
0.0
 10
186.320000
 20
65.280000
 30
0.0
 10
186.320000
 20
59.200000
 30
0.0
  0
SPLINE
  5
1bb
100
AcDbEntity
  8
0
 62
7
100
AcDbSpline
 70
8
 71
3
 72
8
 73
4
 74
0
 40
0
 40
0
 40
0
 40
0
 40
1
 40
1
 40
1
 40
1
 10
186.320000
 20
59.200000
 30
0.0
 10
186.320000
 20
51.840000
 30
0.0
 10
184.480000
 20
46.720000
 30
0.0
 10
180.960000
 20
43.680000
 30
0.0
  0
SPLINE
  5
1bc
100
AcDbEntity
  8
0
 62
7
100
AcDbSpline
 70
8
 71
3
 72
8
 73
4
 74
0
 40
0
 40
0
 40
0
 40
0
 40
1
 40
1
 40
1
 40
1
 10
180.960000
 20
43.680000
 30
0.0
 10
177.360000
 20
40.640000
 30
0.0
 10
173.280000
 20
39.120000
 30
0.0
 10
168.800000
 20
39.120000
 30
0.0
  0
SPLINE
  5
1bd
100
AcDbEntity
  8
0
 62
7
100
AcDbSpline
 70
8
 71
3
 72
8
 73
4
 74
0
 40
0
 40
0
 40
0
 40
0
 40
1
 40
1
 40
1
 40
1
 10
168.800000
 20
39.120000
 30
0.0
 10
164.080000
 20
39.120000
 30
0.0
 10
160.000000
 20
40.640000
 30
0.0
 10
156.560000
 20
43.760000
 30
0.0
  0
SPLINE
  5
1be
100
AcDbEntity
  8
0
 62
7
100
AcDbSpline
 70
8
 71
3
 72
8
 73
4
 74
0
 40
0
 40
0
 40
0
 40
0
 40
1
 40
1
 40
1
 40
1
 10
156.560000
 20
43.760000
 30
0.0
 10
153.040000
 20
46.880000
 30
0.0
 10
151.360000
 20
51.840000
 30
0.0
 10
151.360000
 20
58.640000
 30
0.0
  0
SPLINE
  5
1bf
100
AcDbEntity
  8
0
 62
7
100
AcDbSpline
 70
8
 71
3
 72
8
 73
4
 74
0
 40
0
 40
0
 40
0
 40
0
 40
1
 40
1
 40
1
 40
1
 10
151.360000
 20
58.640000
 30
0.0
 10
151.360000
 20
65.200000
 30
0.0
 10
152.960000
 20
70.080000
 30
0.0
 10
156.320000
 20
73.280000
 30
0.0
  0
SPLINE
  5
1c0
100
AcDbEntity
  8
0
 62
7
100
AcDbSpline
 70
8
 71
3
 72
8
 73
4
 74
0
 40
0
 40
0
 40
0
 40
0
 40
1
 40
1
 40
1
 40
1
 10
156.320000
 20
73.280000
 30
0.0
 10
159.680000
 20
76.480000
 30
0.0
 10
163.840000
 20
78.160000
 30
0.0
 10
168.800000
 20
78.160000
 30
0.0
  0
LINE
  5
1c1
100
AcDbEntity
  8
0
 62
7
100
AcDbLine
 10
168.800000
 20
78.160000
 30
0.0
 11
168.800000
 21
78.160000
 31
0.0
  0
SPLINE
  5
1c2
100
AcDbEntity
  8
0
 62
7
100
AcDbSpline
 70
8
 71
3
 72
8
 73
4
 74
0
 40
0
 40
0
 40
0
 40
0
 40
1
 40
1
 40
1
 40
1
 10
168.800000
 20
44.320000
 30
0.0
 10
172.400000
 20
44.320000
 30
0.0
 10
175.120000
 20
45.680000
 30
0.0
 10
177.040000
 20
48.320000
 30
0.0
  0
SPLINE
  5
1c3
100
AcDbEntity
  8
0
 62
7
100
AcDbSpline
 70
8
 71
3
 72
8
 73
4
 74
0
 40
0
 40
0
 40
0
 40
0
 40
1
 40
1
 40
1
 40
1
 10
177.040000
 20
48.320000
 30
0.0
 10
178.880000
 20
50.960000
 30
0.0
 10
179.840000
 20
54.480000
 30
0.0
 10
179.840000
 20
58.880000
 30
0.0
  0
SPLINE
  5
1c4
100
AcDbEntity
  8
0
 62
7
100
AcDbSpline
 70
8
 71
3
 72
8
 73
4
 74
0
 40
0
 40
0
 40
0
 40
0
 40
1
 40
1
 40
1
 40
1
 10
179.840000
 20
58.880000
 30
0.0
 10
179.840000
 20
63.520000
 30
0.0
 10
178.800000
 20
67.040000
 30
0.0
 10
176.640000
 20
69.440000
 30
0.0
  0
SPLINE
  5
1c5
100
AcDbEntity
  8
0
 62
7
100
AcDbSpline
 70
8
 71
3
 72
8
 73
4
 74
0
 40
0
 40
0
 40
0
 40
0
 40
1
 40
1
 40
1
 40
1
 10
176.640000
 20
69.440000
 30
0.0
 10
174.560000
 20
71.760000
 30
0.0
 10
171.920000
 20
72.960000
 30
0.0
 10
168.800000
 20
72.960000
 30
0.0
  0
SPLINE
  5
1c6
100
AcDbEntity
  8
0
 62
7
100
AcDbSpline
 70
8
 71
3
 72
8
 73
4
 74
0
 40
0
 40
0
 40
0
 40
0
 40
1
 40
1
 40
1
 40
1
 10
168.800000
 20
72.960000
 30
0.0
 10
165.600000
 20
72.960000
 30
0.0
 10
162.960000
 20
71.760000
 30
0.0
 10
160.880000
 20
69.360000
 30
0.0
  0
SPLINE
  5
1c7
100
AcDbEntity
  8
0
 62
7
100
AcDbSpline
 70
8
 71
3
 72
8
 73
4
 74
0
 40
0
 40
0
 40
0
 40
0
 40
1
 40
1
 40
1
 40
1
 10
160.880000
 20
69.360000
 30
0.0
 10
158.800000
 20
66.960000
 30
0.0
 10
157.760000
 20
63.360000
 30
0.0
 10
157.760000
 20
58.640000
 30
0.0
  0
SPLINE
  5
1c8
100
AcDbEntity
  8
0
 62
7
100
AcDbSpline
 70
8
 71
3
 72
8
 73
4
 74
0
 40
0
 40
0
 40
0
 40
0
 40
1
 40
1
 40
1
 40
1
 10
157.760000
 20
58.640000
 30
0.0
 10
157.760000
 20
53.920000
 30
0.0
 10
158.880000
 20
50.320000
 30
0.0
 10
160.960000
 20
47.920000
 30
0.0
  0
SPLINE
  5
1c9
100
AcDbEntity
  8
0
 62
7
100
AcDbSpline
 70
8
 71
3
 72
8
 73
4
 74
0
 40
0
 40
0
 40
0
 40
0
 40
1
 40
1
 40
1
 40
1
 10
160.960000
 20
47.920000
 30
0.0
 10
163.040000
 20
45.520000
 30
0.0
 10
165.680000
 20
44.320000
 30
0.0
 10
168.800000
 20
44.320000
 30
0.0
  0
LINE
  5
1ca
100
AcDbEntity
  8
0
 62
7
100
AcDbLine
 10
168.800000
 20
44.320000
 30
0.0
 11
168.800000
 21
44.320000
 31
0.0
  0
LINE
  5
1cb
100
AcDbEntity
  8
0
 62
7
100
AcDbLine
 10
223.920000
 20
40.000000
 30
0.0
 11
218.240000
 21
40.000000
 31
0.0
  0
LINE
  5
1cc
100
AcDbEntity
  8
0
 62
7
100
AcDbLine
 10
218.240000
 20
40.000000
 30
0.0
 11
218.240000
 21
45.440000
 31
0.0
  0
LINE
  5
1cd
100
AcDbEntity
  8
0
 62
7
100
AcDbLine
 10
218.240000
 20
45.440000
 30
0.0
 11
218.080000
 21
45.440000
 31
0.0
  0
SPLINE
  5
1ce
100
AcDbEntity
  8
0
 62
7
100
AcDbSpline
 70
8
 71
3
 72
8
 73
4
 74
0
 40
0
 40
0
 40
0
 40
0
 40
1
 40
1
 40
1
 40
1
 10
218.080000
 20
45.440000
 30
0.0
 10
215.200000
 20
41.200000
 30
0.0
 10
211.280000
 20
39.120000
 30
0.0
 10
206.320000
 20
39.120000
 30
0.0
  0
SPLINE
  5
1cf
100
AcDbEntity
  8
0
 62
7
100
AcDbSpline
 70
8
 71
3
 72
8
 73
4
 74
0
 40
0
 40
0
 40
0
 40
0
 40
1
 40
1
 40
1
 40
1
 10
206.320000
 20
39.120000
 30
0.0
 10
203.760000
 20
39.120000
 30
0.0
 10
201.360000
 20
39.680000
 30
0.0
 10
199.120000
 20
40.880000
 30
0.0
  0
SPLINE
  5
1d0
100
AcDbEntity
  8
0
 62
7
100
AcDbSpline
 70
8
 71
3
 72
8
 73
4
 74
0
 40
0
 40
0
 40
0
 40
0
 40
1
 40
1
 40
1
 40
1
 10
199.120000
 20
40.880000
 30
0.0
 10
196.880000
 20
42.160000
 30
0.0
 10
195.440000
 20
43.760000
 30
0.0
 10
194.720000
 20
45.920000
 30
0.0
  0
SPLINE
  5
1d1
100
AcDbEntity
  8
0
 62
7
100
AcDbSpline
 70
8
 71
3
 72
8
 73
4
 74
0
 40
0
 40
0
 40
0
 40
0
 40
1
 40
1
 40
1
 40
1
 10
194.720000
 20
45.920000
 30
0.0
 10
193.920000
 20
48.000000
 30
0.0
 10
193.600000
 20
50.800000
 30
0.0
 10
193.600000
 20
54.160000
 30
0.0
  0
LINE
  5
1d2
100
AcDbEntity
  8
0
 62
7
100
AcDbLine
 10
193.600000
 20
54.160000
 30
0.0
 11
193.600000
 21
77.280000
 31
0.0
  0
LINE
  5
1d3
100
AcDbEntity
  8
0
 62
7
100
AcDbLine
 10
193.600000
 20
77.280000
 30
0.0
 11
199.920000
 21
77.280000
 31
0.0
  0
LINE
  5
1d4
100
AcDbEntity
  8
0
 62
7
100
AcDbLine
 10
199.920000
 20
77.280000
 30
0.0
 11
199.920000
 21
56.640000
 31
0.0
  0
SPLINE
  5
1d5
100
AcDbEntity
  8
0
 62
7
100
AcDbSpline
 70
8
 71
3
 72
8
 73
4
 74
0
 40
0
 40
0
 40
0
 40
0
 40
1
 40
1
 40
1
 40
1
 10
199.920000
 20
56.640000
 30
0.0
 10
199.920000
 20
53.280000
 30
0.0
 10
200.080000
 20
50.960000
 30
0.0
 10
200.400000
 20
49.520000
 30
0.0
  0
SPLINE
  5
1d6
100
AcDbEntity
  8
0
 62
7
100
AcDbSpline
 70
8
 71
3
 72
8
 73
4
 74
0
 40
0
 40
0
 40
0
 40
0
 40
1
 40
1
 40
1
 40
1
 10
200.400000
 20
49.520000
 30
0.0
 10
200.720000
 20
48.080000
 30
0.0
 10
201.520000
 20
46.880000
 30
0.0
 10
202.880000
 20
46.000000
 30
0.0
  0
SPLINE
  5
1d7
100
AcDbEntity
  8
0
 62
7
100
AcDbSpline
 70
8
 71
3
 72
8
 73
4
 74
0
 40
0
 40
0
 40
0
 40
0
 40
1
 40
1
 40
1
 40
1
 10
202.880000
 20
46.000000
 30
0.0
 10
204.160000
 20
45.040000
 30
0.0
 10
205.760000
 20
44.560000
 30
0.0
 10
207.680000
 20
44.560000
 30
0.0
  0
SPLINE
  5
1d8
100
AcDbEntity
  8
0
 62
7
100
AcDbSpline
 70
8
 71
3
 72
8
 73
4
 74
0
 40
0
 40
0
 40
0
 40
0
 40
1
 40
1
 40
1
 40
1
 10
207.680000
 20
44.560000
 30
0.0
 10
210.000000
 20
44.560000
 30
0.0
 10
212.320000
 20
45.440000
 30
0.0
 10
214.400000
 20
47.040000
 30
0.0
  0
SPLINE
  5
1d9
100
AcDbEntity
  8
0
 62
7
100
AcDbSpline
 70
8
 71
3
 72
8
 73
4
 74
0
 40
0
 40
0
 40
0
 40
0
 40
1
 40
1
 40
1
 40
1
 10
214.400000
 20
47.040000
 30
0.0
 10
216.480000
 20
48.720000
 30
0.0
 10
217.520000
 20
52.160000
 30
0.0
 10
217.520000
 20
57.360000
 30
0.0
  0
LINE
  5
1da
100
AcDbEntity
  8
0
 62
7
100
AcDbLine
 10
217.520000
 20
57.360000
 30
0.0
 11
217.520000
 21
77.280000
 31
0.0
  0
LINE
  5
1db
100
AcDbEntity
  8
0
 62
7
100
AcDbLine
 10
217.520000
 20
77.280000
 30
0.0
 11
223.920000
 21
77.280000
 31
0.0
  0
LINE
  5
1dc
100
AcDbEntity
  8
0
 62
7
100
AcDbLine
 10
223.920000
 20
77.280000
 30
0.0
 11
223.920000
 21
40.000000
 31
0.0
  0
LINE
  5
1dd
100
AcDbEntity
  8
0
 62
7
100
AcDbLine
 10
223.920000
 20
40.000000
 30
0.0
 11
223.920000
 21
40.000000
 31
0.0
  0
LINE
  5
1de
100
AcDbEntity
  8
0
 62
7
100
AcDbLine
 10
240.000000
 20
40.000000
 30
0.0
 11
233.680000
 21
40.000000
 31
0.0
  0
LINE
  5
1df
100
AcDbEntity
  8
0
 62
7
100
AcDbLine
 10
233.680000
 20
40.000000
 30
0.0
 11
233.680000
 21
77.280000
 31
0.0
  0
LINE
  5
1e0
100
AcDbEntity
  8
0
 62
7
100
AcDbLine
 10
233.680000
 20
77.280000
 30
0.0
 11
240.000000
 21
77.280000
 31
0.0
  0
LINE
  5
1e1
100
AcDbEntity
  8
0
 62
7
100
AcDbLine
 10
240.000000
 20
77.280000
 30
0.0
 11
240.000000
 21
40.000000
 31
0.0
  0
LINE
  5
1e2
100
AcDbEntity
  8
0
 62
7
100
AcDbLine
 10
240.000000
 20
40.000000
 30
0.0
 11
240.000000
 21
40.000000
 31
0.0
  0
LINE
  5
1e3
100
AcDbEntity
  8
0
 62
7
100
AcDbLine
 10
240.000000
 20
84.320000
 30
0.0
 11
233.680000
 21
84.320000
 31
0.0
  0
LINE
  5
1e4
100
AcDbEntity
  8
0
 62
7
100
AcDbLine
 10
233.680000
 20
84.320000
 30
0.0
 11
233.680000
 21
91.520000
 31
0.0
  0
LINE
  5
1e5
100
AcDbEntity
  8
0
 62
7
100
AcDbLine
 10
233.680000
 20
91.520000
 30
0.0
 11
240.000000
 21
91.520000
 31
0.0
  0
LINE
  5
1e6
100
AcDbEntity
  8
0
 62
7
100
AcDbLine
 10
240.000000
 20
91.520000
 30
0.0
 11
240.000000
 21
84.320000
 31
0.0
  0
LINE
  5
1e7
100
AcDbEntity
  8
0
 62
7
100
AcDbLine
 10
240.000000
 20
84.320000
 30
0.0
 11
240.000000
 21
84.320000
 31
0.0
  0
LINE
  5
1e8
100
AcDbEntity
  8
0
 62
7
100
AcDbLine
 10
256.000000
 20
40.000000
 30
0.0
 11
249.680000
 21
40.000000
 31
0.0
  0
LINE
  5
1e9
100
AcDbEntity
  8
0
 62
7
100
AcDbLine
 10
249.680000
 20
40.000000
 30
0.0
 11
249.680000
 21
91.520000
 31
0.0
  0
LINE
  5
1ea
100
AcDbEntity
  8
0
 62
7
100
AcDbLine
 10
249.680000
 20
91.520000
 30
0.0
 11
256.000000
 21
91.520000
 31
0.0
  0
LINE
  5
1eb
100
AcDbEntity
  8
0
 62
7
100
AcDbLine
 10
256.000000
 20
91.520000
 30
0.0
 11
256.000000
 21
40.000000
 31
0.0
  0
LINE
  5
1ec
100
AcDbEntity
  8
0
 62
7
100
AcDbLine
 10
256.000000
 20
40.000000
 30
0.0
 11
256.000000
 21
40.000000
 31
0.0
  0
LINE
  5
1ed
100
AcDbEntity
  8
0
 62
7
100
AcDbLine
 10
272.000000
 20
40.000000
 30
0.0
 11
265.680000
 21
40.000000
 31
0.0
  0
LINE
  5
1ee
100
AcDbEntity
  8
0
 62
7
100
AcDbLine
 10
265.680000
 20
40.000000
 30
0.0
 11
265.680000
 21
91.520000
 31
0.0
  0
LINE
  5
1ef
100
AcDbEntity
  8
0
 62
7
100
AcDbLine
 10
265.680000
 20
91.520000
 30
0.0
 11
272.000000
 21
91.520000
 31
0.0
  0
LINE
  5
1f0
100
AcDbEntity
  8
0
 62
7
100
AcDbLine
 10
272.000000
 20
91.520000
 30
0.0
 11
272.000000
 21
40.000000
 31
0.0
  0
LINE
  5
1f1
100
AcDbEntity
  8
0
 62
7
100
AcDbLine
 10
272.000000
 20
40.000000
 30
0.0
 11
272.000000
 21
40.000000
 31
0.0
  0
LINE
  5
1f2
100
AcDbEntity
  8
0
 62
7
100
AcDbLine
 10
314.080000
 20
57.040000
 30
0.0
 11
286.160000
 21
57.040000
 31
0.0
  0
SPLINE
  5
1f3
100
AcDbEntity
  8
0
 62
7
100
AcDbSpline
 70
8
 71
3
 72
8
 73
4
 74
0
 40
0
 40
0
 40
0
 40
0
 40
1
 40
1
 40
1
 40
1
 10
286.160000
 20
57.040000
 30
0.0
 10
286.400000
 20
52.880000
 30
0.0
 10
287.600000
 20
49.760000
 30
0.0
 10
289.680000
 20
47.600000
 30
0.0
  0
SPLINE
  5
1f4
100
AcDbEntity
  8
0
 62
7
100
AcDbSpline
 70
8
 71
3
 72
8
 73
4
 74
0
 40
0
 40
0
 40
0
 40
0
 40
1
 40
1
 40
1
 40
1
 10
289.680000
 20
47.600000
 30
0.0
 10
291.760000
 20
45.360000
 30
0.0
 10
294.400000
 20
44.320000
 30
0.0
 10
297.520000
 20
44.320000
 30
0.0
  0
SPLINE
  5
1f5
100
AcDbEntity
  8
0
 62
7
100
AcDbSpline
 70
8
 71
3
 72
8
 73
4
 74
0
 40
0
 40
0
 40
0
 40
0
 40
1
 40
1
 40
1
 40
1
 10
297.520000
 20
44.320000
 30
0.0
 10
299.920000
 20
44.320000
 30
0.0
 10
302.000000
 20
44.960000
 30
0.0
 10
303.600000
 20
46.240000
 30
0.0
  0
SPLINE
  5
1f6
100
AcDbEntity
  8
0
 62
7
100
AcDbSpline
 70
8
 71
3
 72
8
 73
4
 74
0
 40
0
 40
0
 40
0
 40
0
 40
1
 40
1
 40
1
 40
1
 10
303.600000
 20
46.240000
 30
0.0
 10
305.280000
 20
47.520000
 30
0.0
 10
306.480000
 20
49.440000
 30
0.0
 10
307.360000
 20
52.000000
 30
0.0
  0
LINE
  5
1f7
100
AcDbEntity
  8
0
 62
7
100
AcDbLine
 10
307.360000
 20
52.000000
 30
0.0
 11
313.920000
 21
51.200000
 31
0.0
  0
SPLINE
  5
1f8
100
AcDbEntity
  8
0
 62
7
100
AcDbSpline
 70
8
 71
3
 72
8
 73
4
 74
0
 40
0
 40
0
 40
0
 40
0
 40
1
 40
1
 40
1
 40
1
 10
313.920000
 20
51.200000
 30
0.0
 10
312.800000
 20
47.280000
 30
0.0
 10
310.880000
 20
44.320000
 30
0.0
 10
308.080000
 20
42.240000
 30
0.0
  0
SPLINE
  5
1f9
100
AcDbEntity
  8
0
 62
7
100
AcDbSpline
 70
8
 71
3
 72
8
 73
4
 74
0
 40
0
 40
0
 40
0
 40
0
 40
1
 40
1
 40
1
 40
1
 10
308.080000
 20
42.240000
 30
0.0
 10
305.280000
 20
40.160000
 30
0.0
 10
301.760000
 20
39.120000
 30
0.0
 10
297.520000
 20
39.120000
 30
0.0
  0
SPLINE
  5
1fa
100
AcDbEntity
  8
0
 62
7
100
AcDbSpline
 70
8
 71
3
 72
8
 73
4
 74
0
 40
0
 40
0
 40
0
 40
0
 40
1
 40
1
 40
1
 40
1
 10
297.520000
 20
39.120000
 30
0.0
 10
291.920000
 20
39.120000
 30
0.0
 10
287.600000
 20
40.800000
 30
0.0
 10
284.400000
 20
44.240000
 30
0.0
  0
SPLINE
  5
1fb
100
AcDbEntity
  8
0
 62
7
100
AcDbSpline
 70
8
 71
3
 72
8
 73
4
 74
0
 40
0
 40
0
 40
0
 40
0
 40
1
 40
1
 40
1
 40
1
 10
284.400000
 20
44.240000
 30
0.0
 10
281.280000
 20
47.680000
 30
0.0
 10
279.680000
 20
52.400000
 30
0.0
 10
279.680000
 20
58.320000
 30
0.0
  0
SPLINE
  5
1fc
100
AcDbEntity
  8
0
 62
7
100
AcDbSpline
 70
8
 71
3
 72
8
 73
4
 74
0
 40
0
 40
0
 40
0
 40
0
 40
1
 40
1
 40
1
 40
1
 10
279.680000
 20
58.320000
 30
0.0
 10
279.680000
 20
64.240000
 30
0.0
 10
281.200000
 20
68.960000
 30
0.0
 10
284.240000
 20
72.640000
 30
0.0
  0
SPLINE
  5
1fd
100
AcDbEntity
  8
0
 62
7
100
AcDbSpline
 70
8
 71
3
 72
8
 73
4
 74
0
 40
0
 40
0
 40
0
 40
0
 40
1
 40
1
 40
1
 40
1
 10
284.240000
 20
72.640000
 30
0.0
 10
287.360000
 20
76.320000
 30
0.0
 10
291.600000
 20
78.160000
 30
0.0
 10
297.200000
 20
78.160000
 30
0.0
  0
SPLINE
  5
1fe
100
AcDbEntity
  8
0
 62
7
100
AcDbSpline
 70
8
 71
3
 72
8
 73
4
 74
0
 40
0
 40
0
 40
0
 40
0
 40
1
 40
1
 40
1
 40
1
 10
297.200000
 20
78.160000
 30
0.0
 10
299.920000
 20
78.160000
 30
0.0
 10
302.560000
 20
77.520000
 30
0.0
 10
305.040000
 20
76.320000
 30
0.0
  0
SPLINE
  5
1ff
100
AcDbEntity
  8
0
 62
7
100
AcDbSpline
 70
8
 71
3
 72
8
 73
4
 74
0
 40
0
 40
0
 40
0
 40
0
 40
1
 40
1
 40
1
 40
1
 10
305.040000
 20
76.320000
 30
0.0
 10
307.600000
 20
75.120000
 30
0.0
 10
309.680000
 20
73.120000
 30
0.0
 10
311.440000
 20
70.240000
 30
0.0
  0
SPLINE
  5
200
100
AcDbEntity
  8
0
 62
7
100
AcDbSpline
 70
8
 71
3
 72
8
 73
4
 74
0
 40
0
 40
0
 40
0
 40
0
 40
1
 40
1
 40
1
 40
1
 10
311.440000
 20
70.240000
 30
0.0
 10
313.200000
 20
67.360000
 30
0.0
 10
314.080000
 20
62.960000
 30
0.0
 10
314.080000
 20
57.040000
 30
0.0
  0
LINE
  5
201
100
AcDbEntity
  8
0
 62
7
100
AcDbLine
 10
314.080000
 20
57.040000
 30
0.0
 11
314.080000
 21
57.040000
 31
0.0
  0
SPLINE
  5
202
100
AcDbEntity
  8
0
 62
7
100
AcDbSpline
 70
8
 71
3
 72
8
 73
4
 74
0
 40
0
 40
0
 40
0
 40
0
 40
1
 40
1
 40
1
 40
1
 10
307.600000
 20
62.240000
 30
0.0
 10
307.360000
 20
66.000000
 30
0.0
 10
306.160000
 20
68.800000
 30
0.0
 10
304.080000
 20
70.480000
 30
0.0
  0
SPLINE
  5
203
100
AcDbEntity
  8
0
 62
7
100
AcDbSpline
 70
8
 71
3
 72
8
 73
4
 74
0
 40
0
 40
0
 40
0
 40
0
 40
1
 40
1
 40
1
 40
1
 10
304.080000
 20
70.480000
 30
0.0
 10
302.000000
 20
72.160000
 30
0.0
 10
299.680000
 20
72.960000
 30
0.0
 10
297.200000
 20
72.960000
 30
0.0
  0
SPLINE
  5
204
100
AcDbEntity
  8
0
 62
7
100
AcDbSpline
 70
8
 71
3
 72
8
 73
4
 74
0
 40
0
 40
0
 40
0
 40
0
 40
1
 40
1
 40
1
 40
1
 10
297.200000
 20
72.960000
 30
0.0
 10
294.240000
 20
72.960000
 30
0.0
 10
291.760000
 20
72.000000
 30
0.0
 10
289.840000
 20
70.000000
 30
0.0
  0
SPLINE
  5
205
100
AcDbEntity
  8
0
 62
7
100
AcDbSpline
 70
8
 71
3
 72
8
 73
4
 74
0
 40
0
 40
0
 40
0
 40
0
 40
1
 40
1
 40
1
 40
1
 10
289.840000
 20
70.000000
 30
0.0
 10
287.920000
 20
68.000000
 30
0.0
 10
286.800000
 20
65.440000
 30
0.0
 10
286.480000
 20
62.240000
 30
0.0
  0
LINE
  5
206
100
AcDbEntity
  8
0
 62
7
100
AcDbLine
 10
286.480000
 20
62.240000
 30
0.0
 11
307.600000
 21
62.240000
 31
0.0
  0
LINE
  5
207
100
AcDbEntity
  8
0
 62
7
100
AcDbLine
 10
307.600000
 20
62.240000
 30
0.0
 11
307.600000
 21
62.240000
 31
0.0
  0
LINE
  5
208
100
AcDbEntity
  8
0
 62
7
100
AcDbLine
 10
330.480000
 20
40.000000
 30
0.0
 11
323.280000
 21
40.000000
 31
0.0
  0
LINE
  5
209
100
AcDbEntity
  8
0
 62
7
100
AcDbLine
 10
323.280000
 20
40.000000
 30
0.0
 11
323.280000
 21
47.200000
 31
0.0
  0
LINE
  5
20a
100
AcDbEntity
  8
0
 62
7
100
AcDbLine
 10
323.280000
 20
47.200000
 30
0.0
 11
330.480000
 21
47.200000
 31
0.0
  0
LINE
  5
20b
100
AcDbEntity
  8
0
 62
7
100
AcDbLine
 10
330.480000
 20
47.200000
 30
0.0
 11
330.480000
 21
40.000000
 31
0.0
  0
LINE
  5
20c
100
AcDbEntity
  8
0
 62
7
100
AcDbLine
 10
330.480000
 20
40.000000
 30
0.0
 11
330.480000
 21
40.000000
 31
0.0
  0
LINE
  5
20d
100
AcDbEntity
  8
0
 62
7
100
AcDbLine
 10
359.280000
 20
91.760000
 30
0.0
 11
358.320000
 21
86.240000
 31
0.0
  0
SPLINE
  5
20e
100
AcDbEntity
  8
0
 62
7
100
AcDbSpline
 70
8
 71
3
 72
8
 73
4
 74
0
 40
0
 40
0
 40
0
 40
0
 40
1
 40
1
 40
1
 40
1
 10
358.320000
 20
86.240000
 30
0.0
 10
357.120000
 20
86.480000
 30
0.0
 10
355.840000
 20
86.560000
 30
0.0
 10
354.640000
 20
86.560000
 30
0.0
  0
SPLINE
  5
20f
100
AcDbEntity
  8
0
 62
7
100
AcDbSpline
 70
8
 71
3
 72
8
 73
4
 74
0
 40
0
 40
0
 40
0
 40
0
 40
1
 40
1
 40
1
 40
1
 10
354.640000
 20
86.560000
 30
0.0
 10
353.120000
 20
86.560000
 30
0.0
 10
351.840000
 20
86.240000
 30
0.0
 10
350.880000
 20
85.600000
 30
0.0
  0
SPLINE
  5
210
100
AcDbEntity
  8
0
 62
7
100
AcDbSpline
 70
8
 71
3
 72
8
 73
4
 74
0
 40
0
 40
0
 40
0
 40
0
 40
1
 40
1
 40
1
 40
1
 10
350.880000
 20
85.600000
 30
0.0
 10
349.920000
 20
84.960000
 30
0.0
 10
349.440000
 20
83.360000
 30
0.0
 10
349.440000
 20
80.800000
 30
0.0
  0
LINE
  5
211
100
AcDbEntity
  8
0
 62
7
100
AcDbLine
 10
349.440000
 20
80.800000
 30
0.0
 11
349.440000
 21
77.280000
 31
0.0
  0
LINE
  5
212
100
AcDbEntity
  8
0
 62
7
100
AcDbLine
 10
349.440000
 20
77.280000
 30
0.0
 11
356.640000
 21
77.280000
 31
0.0
  0
LINE
  5
213
100
AcDbEntity
  8
0
 62
7
100
AcDbLine
 10
356.640000
 20
77.280000
 30
0.0
 11
356.640000
 21
72.400000
 31
0.0
  0
LINE
  5
214
100
AcDbEntity
  8
0
 62
7
100
AcDbLine
 10
356.640000
 20
72.400000
 30
0.0
 11
349.440000
 21
72.400000
 31
0.0
  0
LINE
  5
215
100
AcDbEntity
  8
0
 62
7
100
AcDbLine
 10
349.440000
 20
72.400000
 30
0.0
 11
349.440000
 21
40.000000
 31
0.0
  0
LINE
  5
216
100
AcDbEntity
  8
0
 62
7
100
AcDbLine
 10
349.440000
 20
40.000000
 30
0.0
 11
343.120000
 21
40.000000
 31
0.0
  0
LINE
  5
217
100
AcDbEntity
  8
0
 62
7
100
AcDbLine
 10
343.120000
 20
40.000000
 30
0.0
 11
343.120000
 21
72.400000
 31
0.0
  0
LINE
  5
218
100
AcDbEntity
  8
0
 62
7
100
AcDbLine
 10
343.120000
 20
72.400000
 30
0.0
 11
337.440000
 21
72.400000
 31
0.0
  0
LINE
  5
219
100
AcDbEntity
  8
0
 62
7
100
AcDbLine
 10
337.440000
 20
72.400000
 30
0.0
 11
337.440000
 21
77.280000
 31
0.0
  0
LINE
  5
21a
100
AcDbEntity
  8
0
 62
7
100
AcDbLine
 10
337.440000
 20
77.280000
 30
0.0
 11
343.120000
 21
77.280000
 31
0.0
  0
LINE
  5
21b
100
AcDbEntity
  8
0
 62
7
100
AcDbLine
 10
343.120000
 20
77.280000
 30
0.0
 11
343.120000
 21
81.360000
 31
0.0
  0
SPLINE
  5
21c
100
AcDbEntity
  8
0
 62
7
100
AcDbSpline
 70
8
 71
3
 72
8
 73
4
 74
0
 40
0
 40
0
 40
0
 40
0
 40
1
 40
1
 40
1
 40
1
 10
343.120000
 20
81.360000
 30
0.0
 10
343.120000
 20
83.200000
 30
0.0
 10
343.280000
 20
84.880000
 30
0.0
 10
343.600000
 20
86.400000
 30
0.0
  0
SPLINE
  5
21d
100
AcDbEntity
  8
0
 62
7
100
AcDbSpline
 70
8
 71
3
 72
8
 73
4
 74
0
 40
0
 40
0
 40
0
 40
0
 40
1
 40
1
 40
1
 40
1
 10
343.600000
 20
86.400000
 30
0.0
 10
344.000000
 20
87.920000
 30
0.0
 10
344.880000
 20
89.360000
 30
0.0
 10
346.400000
 20
90.560000
 30
0.0
  0
SPLINE
  5
21e
100
AcDbEntity
  8
0
 62
7
100
AcDbSpline
 70
8
 71
3
 72
8
 73
4
 74
0
 40
0
 40
0
 40
0
 40
0
 40
1
 40
1
 40
1
 40
1
 10
346.400000
 20
90.560000
 30
0.0
 10
347.920000
 20
91.760000
 30
0.0
 10
350.240000
 20
92.400000
 30
0.0
 10
353.440000
 20
92.400000
 30
0.0
  0
SPLINE
  5
21f
100
AcDbEntity
  8
0
 62
7
100
AcDbSpline
 70
8
 71
3
 72
8
 73
4
 74
0
 40
0
 40
0
 40
0
 40
0
 40
1
 40
1
 40
1
 40
1
 10
353.440000
 20
92.400000
 30
0.0
 10
355.280000
 20
92.400000
 30
0.0
 10
357.280000
 20
92.160000
 30
0.0
 10
359.280000
 20
91.760000
 30
0.0
  0
LINE
  5
220
100
AcDbEntity
  8
0
 62
7
100
AcDbLine
 10
359.280000
 20
91.760000
 30
0.0
 11
359.280000
 21
91.760000
 31
0.0
  0
LINE
  5
221
100
AcDbEntity
  8
0
 62
7
100
AcDbLine
 10
381.840000
 20
76.160000
 30
0.0
 11
379.680000
 21
70.320000
 31
0.0
  0
SPLINE
  5
222
100
AcDbEntity
  8
0
 62
7
100
AcDbSpline
 70
8
 71
3
 72
8
 73
4
 74
0
 40
0
 40
0
 40
0
 40
0
 40
1
 40
1
 40
1
 40
1
 10
379.680000
 20
70.320000
 30
0.0
 10
378.080000
 20
71.200000
 30
0.0
 10
376.560000
 20
71.680000
 30
0.0
 10
375.040000
 20
71.680000
 30
0.0
  0
SPLINE
  5
223
100
AcDbEntity
  8
0
 62
7
100
AcDbSpline
 70
8
 71
3
 72
8
 73
4
 74
0
 40
0
 40
0
 40
0
 40
0
 40
1
 40
1
 40
1
 40
1
 10
375.040000
 20
71.680000
 30
0.0
 10
372.720000
 20
71.680000
 30
0.0
 10
370.880000
 20
70.560000
 30
0.0
 10
369.680000
 20
68.480000
 30
0.0
  0
SPLINE
  5
224
100
AcDbEntity
  8
0
 62
7
100
AcDbSpline
 70
8
 71
3
 72
8
 73
4
 74
0
 40
0
 40
0
 40
0
 40
0
 40
1
 40
1
 40
1
 40
1
 10
369.680000
 20
68.480000
 30
0.0
 10
368.480000
 20
66.320000
 30
0.0
 10
367.840000
 20
63.360000
 30
0.0
 10
367.840000
 20
59.600000
 30
0.0
  0
LINE
  5
225
100
AcDbEntity
  8
0
 62
7
100
AcDbLine
 10
367.840000
 20
59.600000
 30
0.0
 11
367.840000
 21
40.000000
 31
0.0
  0
LINE
  5
226
100
AcDbEntity
  8
0
 62
7
100
AcDbLine
 10
367.840000
 20
40.000000
 30
0.0
 11
361.520000
 21
40.000000
 31
0.0
  0
LINE
  5
227
100
AcDbEntity
  8
0
 62
7
100
AcDbLine
 10
361.520000
 20
40.000000
 30
0.0
 11
361.520000
 21
77.280000
 31
0.0
  0
LINE
  5
228
100
AcDbEntity
  8
0
 62
7
100
AcDbLine
 10
361.520000
 20
77.280000
 30
0.0
 11
367.280000
 21
77.280000
 31
0.0
  0
LINE
  5
229
100
AcDbEntity
  8
0
 62
7
100
AcDbLine
 10
367.280000
 20
77.280000
 30
0.0
 11
367.280000
 21
71.680000
 31
0.0
  0
LINE
  5
22a
100
AcDbEntity
  8
0
 62
7
100
AcDbLine
 10
367.280000
 20
71.680000
 30
0.0
 11
367.440000
 21
71.680000
 31
0.0
  0
SPLINE
  5
22b
100
AcDbEntity
  8
0
 62
7
100
AcDbSpline
 70
8
 71
3
 72
8
 73
4
 74
0
 40
0
 40
0
 40
0
 40
0
 40
1
 40
1
 40
1
 40
1
 10
367.440000
 20
71.680000
 30
0.0
 10
369.440000
 20
76.000000
 30
0.0
 10
372.080000
 20
78.160000
 30
0.0
 10
375.360000
 20
78.160000
 30
0.0
  0
SPLINE
  5
22c
100
AcDbEntity
  8
0
 62
7
100
AcDbSpline
 70
8
 71
3
 72
8
 73
4
 74
0
 40
0
 40
0
 40
0
 40
0
 40
1
 40
1
 40
1
 40
1
 10
375.360000
 20
78.160000
 30
0.0
 10
377.520000
 20
78.160000
 30
0.0
 10
379.680000
 20
77.440000
 30
0.0
 10
381.840000
 20
76.160000
 30
0.0
  0
LINE
  5
22d
100
AcDbEntity
  8
0
 62
7
100
AcDbLine
 10
381.840000
 20
76.160000
 30
0.0
 11
381.840000
 21
76.160000
 31
0.0
  0
ENDSEC
  0
SECTION
  2
OBJECTS
  0
DICTIONARY
  5
C
330
0
100
AcDbDictionary
  3
ACAD_GROUP
350
D
  3
ACAD_MLINESTYLE
350
17
  0
DICTIONARY
  5
D
330
C
100
AcDbDictionary
  0
DICTIONARY
  5
1A
330
C
100
AcDbDictionary
  0
DICTIONARY
  5
17
330
C
100
AcDbDictionary
  3
STANDARD
350
18
  0
DICTIONARY
  5
19
330
C
100
AcDbDictionary
  0
ENDSEC
  0
EOF
