  0
SECTION
  2
HEADER
  9
$ACADVER
  1
AC1014
  9
$HANDSEED
  5
FFFF
  9
$MEASUREMENT
 70
     1
  0
ENDSEC
  0
SECTION
  2
TABLES
  0
TABLE
  2
VPORT
  5
8
330
0
100
AcDbSymbolTable
 70
     4
  0
VPORT
  5
2E
330
8
100
AcDbSymbolTableRecord
100
AcDbViewportTableRecord
  2
*ACTIVE
 70
     0
 10
0.0
 20
0.0
 11
1.0
 21
1.0
 12
210.0
 22
148.5
 13
0.0
 23
0.0
 14
10.0
 24
10.0
 15
10.0
 25
10.0
 16
0.0
 26
0.0
 36
1.0
 17
0.0
 27
0.0
 37
0.0
 40
341.0
 41
1.24
 42
50.0
 43
0.0
 44
0.0
 50
0.0
 51
0.0
 71
     0
 72
   100
 73
     1
 74
     3
 75
     0
 76
     0
 77
     0
 78
     0
  0
ENDTAB
  0
TABLE
  2
LTYPE
  5
5
330
0
100
AcDbSymbolTable
 70
     1
  0
LTYPE
  5
14
330
5
100
AcDbSymbolTableRecord
100
AcDbLinetypeTableRecord
  2
BYBLOCK
 70
     0
  3

 72
    65
 73
     0
 40
0.0
  0
LTYPE
  5
15
330
5
100
AcDbSymbolTableRecord
100
AcDbLinetypeTableRecord
  2
BYLAYER
 70
     0
  3

 72
    65
 73
     0
 40
0.0
  0
LTYPE
  5
16
330
5
100
AcDbSymbolTableRecord
100
AcDbLinetypeTableRecord
  2
CONTINUOUS
 70
     0
  3
Solid line
 72
    65
 73
     0
 40
0.0
  0
ENDTAB
  0
TABLE
  2
LAYER
  5
2
100
AcDbSymbolTable
 70
1
  0
LAYER
  5
50
100
AcDbSymbolTableRecord
100
AcDbLayerTableRecord
  2
0
 70
0
  6
CONTINUOUS
  0
ENDTAB
  0
TABLE
  2
STYLE
  5
3
330
0
100
AcDbSymbolTable
 70
     1
  0
STYLE
  5
11
330
3
100
AcDbSymbolTableRecord
100
AcDbTextStyleTableRecord
  2
STANDARD
 70
     0
 40
0.0
 41
1.0
 50
0.0
 71
     0
 42
2.5
  3
txt
  4

  0
ENDTAB
  0
TABLE
  2
VIEW
  5
6
330
0
100
AcDbSymbolTable
 70
     0
  0
ENDTAB
  0
TABLE
  2
UCS
  5
7
330
0
100
AcDbSymbolTable
 70
     0
  0
ENDTAB
  0
TABLE
  2
APPID
  5
9
330
0
100
AcDbSymbolTable
 70
     2
  0
APPID
  5
12
330
9
100
AcDbSymbolTableRecord
100
AcDbRegAppTableRecord
  2
ACAD
 70
     0
  0
ENDTAB
  0
TABLE
  2
DIMSTYLE
  5
A
330
0
100
AcDbSymbolTable
 70
     1
  0
DIMSTYLE
105
27
330
A
100
AcDbSymbolTableRecord
100
AcDbDimStyleTableRecord
  2
ISO-25
 70
     0
  3

  4

  5

  6

  7

 40
1.0
 41
2.5
 42
0.625
 43
3.75
 44
1.25
 45
0.0
 46
0.0
 47
0.0
 48
0.0
140
2.5
141
2.5
142
0.0
143
0.03937007874016
144
1.0
145
0.0
146
1.0
147
0.625
 71
     0
 72
     0
 73
     0
 74
     0
 75
     0
 76
     0
 77
     1
 78
     8
170
     0
171
     3
172
     1
173
     0
174
     0
175
     0
176
     0
177
     0
178
     0
270
     2
271
     2
272
     2
273
     2
274
     3
340
11
275
     0
280
     0
281
     0
282
     0
283
     0
284
     8
285
     0
286
     0
287
     3
288
     0
  0
ENDTAB
  0
TABLE
  2
BLOCK_RECORD
  5
1
330
0
100
AcDbSymbolTable
 70
     1
  0
BLOCK_RECORD
  5
1F
330
1
100
AcDbSymbolTableRecord
100
AcDbBlockTableRecord
  2
*MODEL_SPACE
  0
BLOCK_RECORD
  5
1B
330
1
100
AcDbSymbolTableRecord
100
AcDbBlockTableRecord
  2
*PAPER_SPACE
  0
ENDTAB
  0
ENDSEC
  0
SECTION
  2
BLOCKS
  0
BLOCK
  5
20
330
1F
100
AcDbEntity
  8
0
100
AcDbBlockBegin
  2
*MODEL_SPACE
 70
     0
 10
0.0
 20
0.0
 30
0.0
  3
*MODEL_SPACE
  1

  0
ENDBLK
  5
21
330
1F
100
AcDbEntity
  8
0
100
AcDbBlockEnd
  0
BLOCK
  5
1C
330
1B
100
AcDbEntity
 67
     1
  8
0
100
AcDbBlockBegin
  2
*PAPER_SPACE
  1

  0
ENDBLK
  5
1D
330
1B
100
AcDbEntity
 67
     1
  8
0
100
AcDbBlockEnd
  0
ENDSEC
  0
SECTION
  2
ENTITIES
  0
SPLINE
  5
100
100
AcDbEntity
  8
0
 62
7
100
AcDbSpline
 70
8
 71
3
 72
8
 73
4
 74
0
 40
0
 40
0
 40
0
 40
0
 40
1
 40
1
 40
1
 40
1
 10
92.000000
 20
187.920000
 30
0.0
 10
90.320000
 20
188.480000
 30
0.0
 10
88.240000
 20
189.920000
 30
0.0
 10
87.360000
 20
190.960000
 30
0.0
  0
SPLINE
  5
101
100
AcDbEntity
  8
0
 62
7
100
AcDbSpline
 70
8
 71
3
 72
8
 73
4
 74
0
 40
0
 40
0
 40
0
 40
0
 40
1
 40
1
 40
1
 40
1
 10
87.360000
 20
190.960000
 30
0.0
 10
85.520000
 20
193.360000
 30
0.0
 10
83.600000
 20
193.520000
 30
0.0
 10
79.360000
 20
191.760000
 30
0.0
  0
SPLINE
  5
102
100
AcDbEntity
  8
0
 62
7
100
AcDbSpline
 70
8
 71
3
 72
8
 73
4
 74
0
 40
0
 40
0
 40
0
 40
0
 40
1
 40
1
 40
1
 40
1
 10
79.360000
 20
191.760000
 30
0.0
 10
74.880000
 20
189.920000
 30
0.0
 10
69.280000
 20
190.880000
 30
0.0
 10
64.880000
 20
194.080000
 30
0.0
  0
SPLINE
  5
103
100
AcDbEntity
  8
0
 62
7
100
AcDbSpline
 70
8
 71
3
 72
8
 73
4
 74
0
 40
0
 40
0
 40
0
 40
0
 40
1
 40
1
 40
1
 40
1
 10
64.880000
 20
194.080000
 30
0.0
 10
62.240000
 20
196.000000
 30
0.0
 10
60.640000
 20
196.640000
 30
0.0
 10
58.960000
 20
196.320000
 30
0.0
  0
SPLINE
  5
104
100
AcDbEntity
  8
0
 62
7
100
AcDbSpline
 70
8
 71
3
 72
8
 73
4
 74
0
 40
0
 40
0
 40
0
 40
0
 40
1
 40
1
 40
1
 40
1
 10
58.960000
 20
196.320000
 30
0.0
 10
55.600000
 20
195.840000
 30
0.0
 10
51.120000
 20
197.920000
 30
0.0
 10
48.640000
 20
201.200000
 30
0.0
  0
SPLINE
  5
105
100
AcDbEntity
  8
0
 62
7
100
AcDbSpline
 70
8
 71
3
 72
8
 73
4
 74
0
 40
0
 40
0
 40
0
 40
0
 40
1
 40
1
 40
1
 40
1
 10
48.640000
 20
201.200000
 30
0.0
 10
46.240000
 20
204.320000
 30
0.0
 10
42.320000
 20
206.240000
 30
0.0
 10
38.320000
 20
206.240000
 30
0.0
  0
SPLINE
  5
106
100
AcDbEntity
  8
0
 62
7
100
AcDbSpline
 70
8
 71
3
 72
8
 73
4
 74
0
 40
0
 40
0
 40
0
 40
0
 40
1
 40
1
 40
1
 40
1
 10
38.320000
 20
206.240000
 30
0.0
 10
35.360000
 20
206.240000
 30
0.0
 10
33.440000
 20
207.680000
 30
0.0
 10
31.600000
 20
211.200000
 30
0.0
  0
SPLINE
  5
107
100
AcDbEntity
  8
0
 62
7
100
AcDbSpline
 70
8
 71
3
 72
8
 73
4
 74
0
 40
0
 40
0
 40
0
 40
0
 40
1
 40
1
 40
1
 40
1
 10
31.600000
 20
211.200000
 30
0.0
 10
29.920000
 20
214.320000
 30
0.0
 10
30.160000
 20
215.760000
 30
0.0
 10
32.640000
 20
218.000000
 30
0.0
  0
SPLINE
  5
108
100
AcDbEntity
  8
0
 62
7
100
AcDbSpline
 70
8
 71
3
 72
8
 73
4
 74
0
 40
0
 40
0
 40
0
 40
0
 40
1
 40
1
 40
1
 40
1
 10
32.640000
 20
218.000000
 30
0.0
 10
36.560000
 20
221.440000
 30
0.0
 10
38.080000
 20
223.760000
 30
0.0
 10
38.160000
 20
226.160000
 30
0.0
  0
SPLINE
  5
109
100
AcDbEntity
  8
0
 62
7
100
AcDbSpline
 70
8
 71
3
 72
8
 73
4
 74
0
 40
0
 40
0
 40
0
 40
0
 40
1
 40
1
 40
1
 40
1
 10
38.160000
 20
226.160000
 30
0.0
 10
38.240000
 20
229.600000
 30
0.0
 10
39.920000
 20
232.240000
 30
0.0
 10
44.800000
 20
236.480000
 30
0.0
  0
SPLINE
  5
10a
100
AcDbEntity
  8
0
 62
7
100
AcDbSpline
 70
8
 71
3
 72
8
 73
4
 74
0
 40
0
 40
0
 40
0
 40
0
 40
1
 40
1
 40
1
 40
1
 10
44.800000
 20
236.480000
 30
0.0
 10
50.880000
 20
241.760000
 30
0.0
 10
51.920000
 20
243.280000
 30
0.0
 10
54.160000
 20
250.400000
 30
0.0
  0
SPLINE
  5
10b
100
AcDbEntity
  8
0
 62
7
100
AcDbSpline
 70
8
 71
3
 72
8
 73
4
 74
0
 40
0
 40
0
 40
0
 40
0
 40
1
 40
1
 40
1
 40
1
 10
54.160000
 20
250.400000
 30
0.0
 10
55.200000
 20
253.760000
 30
0.0
 10
57.760000
 20
259.200000
 30
0.0
 10
59.760000
 20
262.480000
 30
0.0
  0
LINE
  5
10c
100
AcDbEntity
  8
0
 62
7
100
AcDbLine
 10
59.760000
 20
262.480000
 30
0.0
 11
63.440000
 21
268.320000
 31
0.0
  0
LINE
  5
10d
100
AcDbEntity
  8
0
 62
7
100
AcDbLine
 10
63.440000
 20
268.320000
 30
0.0
 11
63.520000
 21
279.200000
 31
0.0
  0
LINE
  5
10e
100
AcDbEntity
  8
0
 62
7
100
AcDbLine
 10
63.520000
 20
279.200000
 30
0.0
 11
63.520000
 21
290.160000
 31
0.0
  0
LINE
  5
10f
100
AcDbEntity
  8
0
 62
7
100
AcDbLine
 10
63.520000
 20
290.160000
 30
0.0
 11
67.920000
 21
298.320000
 31
0.0
  0
SPLINE
  5
110
100
AcDbEntity
  8
0
 62
7
100
AcDbSpline
 70
8
 71
3
 72
8
 73
4
 74
0
 40
0
 40
0
 40
0
 40
0
 40
1
 40
1
 40
1
 40
1
 10
67.920000
 20
298.320000
 30
0.0
 10
73.520000
 20
308.880000
 30
0.0
 10
74.160000
 20
313.120000
 30
0.0
 10
72.080000
 20
328.800000
 30
0.0
  0
SPLINE
  5
111
100
AcDbEntity
  8
0
 62
7
100
AcDbSpline
 70
8
 71
3
 72
8
 73
4
 74
0
 40
0
 40
0
 40
0
 40
0
 40
1
 40
1
 40
1
 40
1
 10
72.080000
 20
328.800000
 30
0.0
 10
70.720000
 20
339.040000
 30
0.0
 10
70.640000
 20
341.920000
 30
0.0
 10
71.680000
 20
348.240000
 30
0.0
  0
SPLINE
  5
112
100
AcDbEntity
  8
0
 62
7
100
AcDbSpline
 70
8
 71
3
 72
8
 73
4
 74
0
 40
0
 40
0
 40
0
 40
0
 40
1
 40
1
 40
1
 40
1
 10
71.680000
 20
348.240000
 30
0.0
 10
72.320000
 20
352.320000
 30
0.0
 10
73.440000
 20
357.040000
 30
0.0
 10
74.160000
 20
358.720000
 30
0.0
  0
SPLINE
  5
113
100
AcDbEntity
  8
0
 62
7
100
AcDbSpline
 70
8
 71
3
 72
8
 73
4
 74
0
 40
0
 40
0
 40
0
 40
0
 40
1
 40
1
 40
1
 40
1
 10
74.160000
 20
358.720000
 30
0.0
 10
74.880000
 20
360.400000
 30
0.0
 10
75.440000
 20
362.240000
 30
0.0
 10
75.440000
 20
362.800000
 30
0.0
  0
SPLINE
  5
114
100
AcDbEntity
  8
0
 62
7
100
AcDbSpline
 70
8
 71
3
 72
8
 73
4
 74
0
 40
0
 40
0
 40
0
 40
0
 40
1
 40
1
 40
1
 40
1
 10
75.440000
 20
362.800000
 30
0.0
 10
75.440000
 20
364.240000
 30
0.0
 10
73.040000
 20
364.160000
 30
0.0
 10
70.240000
 20
362.640000
 30
0.0
  0
SPLINE
  5
115
100
AcDbEntity
  8
0
 62
7
100
AcDbSpline
 70
8
 71
3
 72
8
 73
4
 74
0
 40
0
 40
0
 40
0
 40
0
 40
1
 40
1
 40
1
 40
1
 10
70.240000
 20
362.640000
 30
0.0
 10
66.800000
 20
360.880000
 30
0.0
 10
66.400000
 20
362.320000
 30
0.0
 10
68.400000
 20
369.200000
 30
0.0
  0
SPLINE
  5
116
100
AcDbEntity
  8
0
 62
7
100
AcDbSpline
 70
8
 71
3
 72
8
 73
4
 74
0
 40
0
 40
0
 40
0
 40
0
 40
1
 40
1
 40
1
 40
1
 10
68.400000
 20
369.200000
 30
0.0
 10
70.080000
 20
375.040000
 30
0.0
 10
70.320000
 20
375.360000
 30
0.0
 10
77.920000
 20
381.520000
 30
0.0
  0
SPLINE
  5
117
100
AcDbEntity
  8
0
 62
7
100
AcDbSpline
 70
8
 71
3
 72
8
 73
4
 74
0
 40
0
 40
0
 40
0
 40
0
 40
1
 40
1
 40
1
 40
1
 10
77.920000
 20
381.520000
 30
0.0
 10
86.400000
 20
388.560000
 30
0.0
 10
87.600000
 20
389.200000
 30
0.0
 10
93.040000
 20
390.000000
 30
0.0
  0
SPLINE
  5
118
100
AcDbEntity
  8
0
 62
7
100
AcDbSpline
 70
8
 71
3
 72
8
 73
4
 74
0
 40
0
 40
0
 40
0
 40
0
 40
1
 40
1
 40
1
 40
1
 10
93.040000
 20
390.000000
 30
0.0
 10
98.480000
 20
390.800000
 30
0.0
 10
108.800000
 20
394.960000
 30
0.0
 10
110.000000
 20
396.800000
 30
0.0
  0
SPLINE
  5
119
100
AcDbEntity
  8
0
 62
7
100
AcDbSpline
 70
8
 71
3
 72
8
 73
4
 74
0
 40
0
 40
0
 40
0
 40
0
 40
1
 40
1
 40
1
 40
1
 10
110.000000
 20
396.800000
 30
0.0
 10
110.560000
 20
397.760000
 30
0.0
 10
112.640000
 20
399.680000
 30
0.0
 10
114.640000
 20
401.280000
 30
0.0
  0
SPLINE
  5
11a
100
AcDbEntity
  8
0
 62
7
100
AcDbSpline
 70
8
 71
3
 72
8
 73
4
 74
0
 40
0
 40
0
 40
0
 40
0
 40
1
 40
1
 40
1
 40
1
 10
114.640000
 20
401.280000
 30
0.0
 10
116.560000
 20
402.800000
 30
0.0
 10
120.000000
 20
406.560000
 30
0.0
 10
122.160000
 20
409.520000
 30
0.0
  0
SPLINE
  5
11b
100
AcDbEntity
  8
0
 62
7
100
AcDbSpline
 70
8
 71
3
 72
8
 73
4
 74
0
 40
0
 40
0
 40
0
 40
0
 40
1
 40
1
 40
1
 40
1
 10
122.160000
 20
409.520000
 30
0.0
 10
125.520000
 20
414.240000
 30
0.0
 10
126.240000
 20
416.000000
 30
0.0
 10
127.120000
 20
422.000000
 30
0.0
  0
SPLINE
  5
11c
100
AcDbEntity
  8
0
 62
7
100
AcDbSpline
 70
8
 71
3
 72
8
 73
4
 74
0
 40
0
 40
0
 40
0
 40
0
 40
1
 40
1
 40
1
 40
1
 10
127.120000
 20
422.000000
 30
0.0
 10
127.600000
 20
425.920000
 30
0.0
 10
128.480000
 20
432.000000
 30
0.0
 10
129.040000
 20
435.680000
 30
0.0
  0
SPLINE
  5
11d
100
AcDbEntity
  8
0
 62
7
100
AcDbSpline
 70
8
 71
3
 72
8
 73
4
 74
0
 40
0
 40
0
 40
0
 40
0
 40
1
 40
1
 40
1
 40
1
 10
129.040000
 20
435.680000
 30
0.0
 10
132.560000
 20
460.560000
 30
0.0
 10
137.280000
 20
475.360000
 30
0.0
 10
146.960000
 20
491.760000
 30
0.0
  0
SPLINE
  5
11e
100
AcDbEntity
  8
0
 62
7
100
AcDbSpline
 70
8
 71
3
 72
8
 73
4
 74
0
 40
0
 40
0
 40
0
 40
0
 40
1
 40
1
 40
1
 40
1
 10
146.960000
 20
491.760000
 30
0.0
 10
152.640000
 20
501.360000
 30
0.0
 10
152.640000
 20
502.880000
 30
0.0
 10
147.120000
 20
501.280000
 30
0.0
  0
SPLINE
  5
11f
100
AcDbEntity
  8
0
 62
7
100
AcDbSpline
 70
8
 71
3
 72
8
 73
4
 74
0
 40
0
 40
0
 40
0
 40
0
 40
1
 40
1
 40
1
 40
1
 10
147.120000
 20
501.280000
 30
0.0
 10
142.000000
 20
499.840000
 30
0.0
 10
135.520000
 20
500.160000
 30
0.0
 10
120.880000
 20
502.640000
 30
0.0
  0
SPLINE
  5
120
100
AcDbEntity
  8
0
 62
7
100
AcDbSpline
 70
8
 71
3
 72
8
 73
4
 74
0
 40
0
 40
0
 40
0
 40
0
 40
1
 40
1
 40
1
 40
1
 10
120.880000
 20
502.640000
 30
0.0
 10
112.880000
 20
504.000000
 30
0.0
 10
97.520000
 20
512.240000
 30
0.0
 10
93.520000
 20
517.360000
 30
0.0
  0
SPLINE
  5
121
100
AcDbEntity
  8
0
 62
7
100
AcDbSpline
 70
8
 71
3
 72
8
 73
4
 74
0
 40
0
 40
0
 40
0
 40
0
 40
1
 40
1
 40
1
 40
1
 10
93.520000
 20
517.360000
 30
0.0
 10
90.720000
 20
520.880000
 30
0.0
 10
85.280000
 20
526.000000
 30
0.0
 10
79.520000
 20
530.480000
 30
0.0
  0
SPLINE
  5
122
100
AcDbEntity
  8
0
 62
7
100
AcDbSpline
 70
8
 71
3
 72
8
 73
4
 74
0
 40
0
 40
0
 40
0
 40
0
 40
1
 40
1
 40
1
 40
1
 10
79.520000
 20
530.480000
 30
0.0
 10
75.760000
 20
533.440000
 30
0.0
 10
72.720000
 20
536.720000
 30
0.0
 10
71.200000
 20
539.440000
 30
0.0
  0
LINE
  5
123
100
AcDbEntity
  8
0
 62
7
100
AcDbLine
 10
71.200000
 20
539.440000
 30
0.0
 11
68.800000
 21
543.680000
 31
0.0
  0
LINE
  5
124
100
AcDbEntity
  8
0
 62
7
100
AcDbLine
 10
68.800000
 20
543.680000
 30
0.0
 11
69.360000
 21
563.600000
 31
0.0
  0
SPLINE
  5
125
100
AcDbEntity
  8
0
 62
7
100
AcDbSpline
 70
8
 71
3
 72
8
 73
4
 74
0
 40
0
 40
0
 40
0
 40
0
 40
1
 40
1
 40
1
 40
1
 10
69.360000
 20
563.600000
 30
0.0
 10
69.920000
 20
584.640000
 30
0.0
 10
70.480000
 20
588.080000
 30
0.0
 10
74.800000
 20
593.280000
 30
0.0
  0
SPLINE
  5
126
100
AcDbEntity
  8
0
 62
7
100
AcDbSpline
 70
8
 71
3
 72
8
 73
4
 74
0
 40
0
 40
0
 40
0
 40
0
 40
1
 40
1
 40
1
 40
1
 10
74.800000
 20
593.280000
 30
0.0
 10
77.520000
 20
596.640000
 30
0.0
 10
81.360000
 20
604.480000
 30
0.0
 10
83.600000
 20
611.200000
 30
0.0
  0
SPLINE
  5
127
100
AcDbEntity
  8
0
 62
7
100
AcDbSpline
 70
8
 71
3
 72
8
 73
4
 74
0
 40
0
 40
0
 40
0
 40
0
 40
1
 40
1
 40
1
 40
1
 10
83.600000
 20
611.200000
 30
0.0
 10
84.560000
 20
614.000000
 30
0.0
 10
87.680000
 20
620.320000
 30
0.0
 10
90.480000
 20
625.280000
 30
0.0
  0
SPLINE
  5
128
100
AcDbEntity
  8
0
 62
7
100
AcDbSpline
 70
8
 71
3
 72
8
 73
4
 74
0
 40
0
 40
0
 40
0
 40
0
 40
1
 40
1
 40
1
 40
1
 10
90.480000
 20
625.280000
 30
0.0
 10
97.280000
 20
636.960000
 30
0.0
 10
98.880000
 20
640.960000
 30
0.0
 10
100.800000
 20
651.760000
 30
0.0
  0
SPLINE
  5
129
100
AcDbEntity
  8
0
 62
7
100
AcDbSpline
 70
8
 71
3
 72
8
 73
4
 74
0
 40
0
 40
0
 40
0
 40
0
 40
1
 40
1
 40
1
 40
1
 10
100.800000
 20
651.760000
 30
0.0
 10
101.760000
 20
657.520000
 30
0.0
 10
103.200000
 20
662.240000
 30
0.0
 10
104.800000
 20
665.040000
 30
0.0
  0
SPLINE
  5
12a
100
AcDbEntity
  8
0
 62
7
100
AcDbSpline
 70
8
 71
3
 72
8
 73
4
 74
0
 40
0
 40
0
 40
0
 40
0
 40
1
 40
1
 40
1
 40
1
 10
104.800000
 20
665.040000
 30
0.0
 10
107.280000
 20
669.360000
 30
0.0
 10
114.720000
 20
677.040000
 30
0.0
 10
119.760000
 20
680.560000
 30
0.0
  0
SPLINE
  5
12b
100
AcDbEntity
  8
0
 62
7
100
AcDbSpline
 70
8
 71
3
 72
8
 73
4
 74
0
 40
0
 40
0
 40
0
 40
0
 40
1
 40
1
 40
1
 40
1
 10
119.760000
 20
680.560000
 30
0.0
 10
123.520000
 20
683.200000
 30
0.0
 10
124.000000
 20
684.240000
 30
0.0
 10
125.680000
 20
693.280000
 30
0.0
  0
SPLINE
  5
12c
100
AcDbEntity
  8
0
 62
7
100
AcDbSpline
 70
8
 71
3
 72
8
 73
4
 74
0
 40
0
 40
0
 40
0
 40
0
 40
1
 40
1
 40
1
 40
1
 10
125.680000
 20
693.280000
 30
0.0
 10
126.560000
 20
697.680000
 30
0.0
 10
127.680000
 20
702.400000
 30
0.0
 10
128.320000
 20
703.680000
 30
0.0
  0
SPLINE
  5
12d
100
AcDbEntity
  8
0
 62
7
100
AcDbSpline
 70
8
 71
3
 72
8
 73
4
 74
0
 40
0
 40
0
 40
0
 40
0
 40
1
 40
1
 40
1
 40
1
 10
128.320000
 20
703.680000
 30
0.0
 10
130.000000
 20
707.360000
 30
0.0
 10
138.320000
 20
718.000000
 30
0.0
 10
143.520000
 20
723.280000
 30
0.0
  0
SPLINE
  5
12e
100
AcDbEntity
  8
0
 62
7
100
AcDbSpline
 70
8
 71
3
 72
8
 73
4
 74
0
 40
0
 40
0
 40
0
 40
0
 40
1
 40
1
 40
1
 40
1
 10
143.520000
 20
723.280000
 30
0.0
 10
148.560000
 20
728.320000
 30
0.0
 10
163.600000
 20
739.440000
 30
0.0
 10
168.000000
 20
741.360000
 30
0.0
  0
SPLINE
  5
12f
100
AcDbEntity
  8
0
 62
7
100
AcDbSpline
 70
8
 71
3
 72
8
 73
4
 74
0
 40
0
 40
0
 40
0
 40
0
 40
1
 40
1
 40
1
 40
1
 10
168.000000
 20
741.360000
 30
0.0
 10
176.000000
 20
744.800000
 30
0.0
 10
197.360000
 20
746.480000
 30
0.0
 10
207.360000
 20
744.400000
 30
0.0
  0
SPLINE
  5
130
100
AcDbEntity
  8
0
 62
7
100
AcDbSpline
 70
8
 71
3
 72
8
 73
4
 74
0
 40
0
 40
0
 40
0
 40
0
 40
1
 40
1
 40
1
 40
1
 10
207.360000
 20
744.400000
 30
0.0
 10
210.720000
 20
743.680000
 30
0.0
 10
214.480000
 20
743.120000
 30
0.0
 10
215.760000
 20
743.120000
 30
0.0
  0
SPLINE
  5
131
100
AcDbEntity
  8
0
 62
7
100
AcDbSpline
 70
8
 71
3
 72
8
 73
4
 74
0
 40
0
 40
0
 40
0
 40
0
 40
1
 40
1
 40
1
 40
1
 10
215.760000
 20
743.120000
 30
0.0
 10
217.120000
 20
743.120000
 30
0.0
 10
222.080000
 20
744.960000
 30
0.0
 10
226.960000
 20
747.280000
 30
0.0
  0
SPLINE
  5
132
100
AcDbEntity
  8
0
 62
7
100
AcDbSpline
 70
8
 71
3
 72
8
 73
4
 74
0
 40
0
 40
0
 40
0
 40
0
 40
1
 40
1
 40
1
 40
1
 10
226.960000
 20
747.280000
 30
0.0
 10
241.120000
 20
754.000000
 30
0.0
 10
265.120000
 20
760.240000
 30
0.0
 10
276.800000
 20
760.240000
 30
0.0
  0
SPLINE
  5
133
100
AcDbEntity
  8
0
 62
7
100
AcDbSpline
 70
8
 71
3
 72
8
 73
4
 74
0
 40
0
 40
0
 40
0
 40
0
 40
1
 40
1
 40
1
 40
1
 10
276.800000
 20
760.240000
 30
0.0
 10
280.320000
 20
760.240000
 30
0.0
 10
281.840000
 20
760.800000
 30
0.0
 10
285.680000
 20
763.280000
 30
0.0
  0
SPLINE
  5
134
100
AcDbEntity
  8
0
 62
7
100
AcDbSpline
 70
8
 71
3
 72
8
 73
4
 74
0
 40
0
 40
0
 40
0
 40
0
 40
1
 40
1
 40
1
 40
1
 10
285.680000
 20
763.280000
 30
0.0
 10
294.400000
 20
768.960000
 30
0.0
 10
296.560000
 20
771.360000
 30
0.0
 10
297.360000
 20
776.000000
 30
0.0
  0
SPLINE
  5
135
100
AcDbEntity
  8
0
 62
7
100
AcDbSpline
 70
8
 71
3
 72
8
 73
4
 74
0
 40
0
 40
0
 40
0
 40
0
 40
1
 40
1
 40
1
 40
1
 10
297.360000
 20
776.000000
 30
0.0
 10
297.760000
 20
778.320000
 30
0.0
 10
299.040000
 20
781.600000
 30
0.0
 10
300.160000
 20
783.280000
 30
0.0
  0
SPLINE
  5
136
100
AcDbEntity
  8
0
 62
7
100
AcDbSpline
 70
8
 71
3
 72
8
 73
4
 74
0
 40
0
 40
0
 40
0
 40
0
 40
1
 40
1
 40
1
 40
1
 10
300.160000
 20
783.280000
 30
0.0
 10
301.360000
 20
784.960000
 30
0.0
 10
302.240000
 20
786.880000
 30
0.0
 10
302.240000
 20
787.440000
 30
0.0
  0
SPLINE
  5
137
100
AcDbEntity
  8
0
 62
7
100
AcDbSpline
 70
8
 71
3
 72
8
 73
4
 74
0
 40
0
 40
0
 40
0
 40
0
 40
1
 40
1
 40
1
 40
1
 10
302.240000
 20
787.440000
 30
0.0
 10
302.240000
 20
788.080000
 30
0.0
 10
303.760000
 20
791.040000
 30
0.0
 10
305.520000
 20
794.160000
 30
0.0
  0
SPLINE
  5
138
100
AcDbEntity
  8
0
 62
7
100
AcDbSpline
 70
8
 71
3
 72
8
 73
4
 74
0
 40
0
 40
0
 40
0
 40
0
 40
1
 40
1
 40
1
 40
1
 10
305.520000
 20
794.160000
 30
0.0
 10
307.360000
 20
797.200000
 30
0.0
 10
309.520000
 20
800.960000
 30
0.0
 10
310.320000
 20
802.640000
 30
0.0
  0
SPLINE
  5
139
100
AcDbEntity
  8
0
 62
7
100
AcDbSpline
 70
8
 71
3
 72
8
 73
4
 74
0
 40
0
 40
0
 40
0
 40
0
 40
1
 40
1
 40
1
 40
1
 10
310.320000
 20
802.640000
 30
0.0
 10
311.600000
 20
805.200000
 30
0.0
 10
312.160000
 20
805.520000
 30
0.0
 10
315.040000
 20
805.520000
 30
0.0
  0
SPLINE
  5
13a
100
AcDbEntity
  8
0
 62
7
100
AcDbSpline
 70
8
 71
3
 72
8
 73
4
 74
0
 40
0
 40
0
 40
0
 40
0
 40
1
 40
1
 40
1
 40
1
 10
315.040000
 20
805.520000
 30
0.0
 10
317.040000
 20
805.520000
 30
0.0
 10
320.640000
 20
806.560000
 30
0.0
 10
324.080000
 20
808.160000
 30
0.0
  0
SPLINE
  5
13b
100
AcDbEntity
  8
0
 62
7
100
AcDbSpline
 70
8
 71
3
 72
8
 73
4
 74
0
 40
0
 40
0
 40
0
 40
0
 40
1
 40
1
 40
1
 40
1
 10
324.080000
 20
808.160000
 30
0.0
 10
328.320000
 20
810.160000
 30
0.0
 10
330.160000
 20
810.560000
 30
0.0
 10
331.440000
 20
810.000000
 30
0.0
  0
SPLINE
  5
13c
100
AcDbEntity
  8
0
 62
7
100
AcDbSpline
 70
8
 71
3
 72
8
 73
4
 74
0
 40
0
 40
0
 40
0
 40
0
 40
1
 40
1
 40
1
 40
1
 10
331.440000
 20
810.000000
 30
0.0
 10
332.480000
 20
809.520000
 30
0.0
 10
334.000000
 20
809.600000
 30
0.0
 10
335.840000
 20
810.240000
 30
0.0
  0
SPLINE
  5
13d
100
AcDbEntity
  8
0
 62
7
100
AcDbSpline
 70
8
 71
3
 72
8
 73
4
 74
0
 40
0
 40
0
 40
0
 40
0
 40
1
 40
1
 40
1
 40
1
 10
335.840000
 20
810.240000
 30
0.0
 10
339.760000
 20
811.600000
 30
0.0
 10
348.000000
 20
810.480000
 30
0.0
 10
351.440000
 20
808.160000
 30
0.0
  0
SPLINE
  5
13e
100
AcDbEntity
  8
0
 62
7
100
AcDbSpline
 70
8
 71
3
 72
8
 73
4
 74
0
 40
0
 40
0
 40
0
 40
0
 40
1
 40
1
 40
1
 40
1
 10
351.440000
 20
808.160000
 30
0.0
 10
352.880000
 20
807.120000
 30
0.0
 10
354.880000
 20
806.320000
 30
0.0
 10
355.840000
 20
806.320000
 30
0.0
  0
SPLINE
  5
13f
100
AcDbEntity
  8
0
 62
7
100
AcDbSpline
 70
8
 71
3
 72
8
 73
4
 74
0
 40
0
 40
0
 40
0
 40
0
 40
1
 40
1
 40
1
 40
1
 10
355.840000
 20
806.320000
 30
0.0
 10
356.720000
 20
806.320000
 30
0.0
 10
358.320000
 20
805.600000
 30
0.0
 10
359.360000
 20
804.640000
 30
0.0
  0
SPLINE
  5
140
100
AcDbEntity
  8
0
 62
7
100
AcDbSpline
 70
8
 71
3
 72
8
 73
4
 74
0
 40
0
 40
0
 40
0
 40
0
 40
1
 40
1
 40
1
 40
1
 10
359.360000
 20
804.640000
 30
0.0
 10
360.320000
 20
803.760000
 30
0.0
 10
362.720000
 20
802.480000
 30
0.0
 10
364.640000
 20
801.920000
 30
0.0
  0
SPLINE
  5
141
100
AcDbEntity
  8
0
 62
7
100
AcDbSpline
 70
8
 71
3
 72
8
 73
4
 74
0
 40
0
 40
0
 40
0
 40
0
 40
1
 40
1
 40
1
 40
1
 10
364.640000
 20
801.920000
 30
0.0
 10
366.560000
 20
801.280000
 30
0.0
 10
369.440000
 20
799.360000
 30
0.0
 10
371.120000
 20
797.680000
 30
0.0
  0
SPLINE
  5
142
100
AcDbEntity
  8
0
 62
7
100
AcDbSpline
 70
8
 71
3
 72
8
 73
4
 74
0
 40
0
 40
0
 40
0
 40
0
 40
1
 40
1
 40
1
 40
1
 10
371.120000
 20
797.680000
 30
0.0
 10
372.800000
 20
796.000000
 30
0.0
 10
375.440000
 20
794.080000
 30
0.0
 10
376.960000
 20
793.440000
 30
0.0
  0
SPLINE
  5
143
100
AcDbEntity
  8
0
 62
7
100
AcDbSpline
 70
8
 71
3
 72
8
 73
4
 74
0
 40
0
 40
0
 40
0
 40
0
 40
1
 40
1
 40
1
 40
1
 10
376.960000
 20
793.440000
 30
0.0
 10
378.880000
 20
792.640000
 30
0.0
 10
379.840000
 20
791.600000
 30
0.0
 10
379.840000
 20
790.400000
 30
0.0
  0
SPLINE
  5
144
100
AcDbEntity
  8
0
 62
7
100
AcDbSpline
 70
8
 71
3
 72
8
 73
4
 74
0
 40
0
 40
0
 40
0
 40
0
 40
1
 40
1
 40
1
 40
1
 10
379.840000
 20
790.400000
 30
0.0
 10
379.840000
 20
789.360000
 30
0.0
 10
380.640000
 20
787.040000
 30
0.0
 10
381.680000
 20
785.120000
 30
0.0
  0
SPLINE
  5
145
100
AcDbEntity
  8
0
 62
7
100
AcDbSpline
 70
8
 71
3
 72
8
 73
4
 74
0
 40
0
 40
0
 40
0
 40
0
 40
1
 40
1
 40
1
 40
1
 10
381.680000
 20
785.120000
 30
0.0
 10
384.400000
 20
780.320000
 30
0.0
 10
384.400000
 20
770.160000
 30
0.0
 10
381.760000
 20
766.880000
 30
0.0
  0
SPLINE
  5
146
100
AcDbEntity
  8
0
 62
7
100
AcDbSpline
 70
8
 71
3
 72
8
 73
4
 74
0
 40
0
 40
0
 40
0
 40
0
 40
1
 40
1
 40
1
 40
1
 10
381.760000
 20
766.880000
 30
0.0
 10
380.640000
 20
765.600000
 30
0.0
 10
379.840000
 20
763.680000
 30
0.0
 10
379.840000
 20
762.560000
 30
0.0
  0
SPLINE
  5
147
100
AcDbEntity
  8
0
 62
7
100
AcDbSpline
 70
8
 71
3
 72
8
 73
4
 74
0
 40
0
 40
0
 40
0
 40
0
 40
1
 40
1
 40
1
 40
1
 10
379.840000
 20
762.560000
 30
0.0
 10
379.840000
 20
760.560000
 30
0.0
 10
375.200000
 20
753.920000
 30
0.0
 10
373.120000
 20
752.880000
 30
0.0
  0
SPLINE
  5
148
100
AcDbEntity
  8
0
 62
7
100
AcDbSpline
 70
8
 71
3
 72
8
 73
4
 74
0
 40
0
 40
0
 40
0
 40
0
 40
1
 40
1
 40
1
 40
1
 10
373.120000
 20
752.880000
 30
0.0
 10
372.480000
 20
752.560000
 30
0.0
 10
372.080000
 20
750.400000
 30
0.0
 10
372.240000
 20
747.520000
 30
0.0
  0
SPLINE
  5
149
100
AcDbEntity
  8
0
 62
7
100
AcDbSpline
 70
8
 71
3
 72
8
 73
4
 74
0
 40
0
 40
0
 40
0
 40
0
 40
1
 40
1
 40
1
 40
1
 10
372.240000
 20
747.520000
 30
0.0
 10
372.320000
 20
744.880000
 30
0.0
 10
372.080000
 20
740.960000
 30
0.0
 10
371.680000
 20
738.800000
 30
0.0
  0
SPLINE
  5
14a
100
AcDbEntity
  8
0
 62
7
100
AcDbSpline
 70
8
 71
3
 72
8
 73
4
 74
0
 40
0
 40
0
 40
0
 40
0
 40
1
 40
1
 40
1
 40
1
 10
371.680000
 20
738.800000
 30
0.0
 10
371.120000
 20
735.360000
 30
0.0
 10
371.280000
 20
734.720000
 30
0.0
 10
373.280000
 20
733.280000
 30
0.0
  0
SPLINE
  5
14b
100
AcDbEntity
  8
0
 62
7
100
AcDbSpline
 70
8
 71
3
 72
8
 73
4
 74
0
 40
0
 40
0
 40
0
 40
0
 40
1
 40
1
 40
1
 40
1
 10
373.280000
 20
733.280000
 30
0.0
 10
375.040000
 20
731.920000
 30
0.0
 10
377.120000
 20
731.520000
 30
0.0
 10
383.600000
 20
731.200000
 30
0.0
  0
SPLINE
  5
14c
100
AcDbEntity
  8
0
 62
7
100
AcDbSpline
 70
8
 71
3
 72
8
 73
4
 74
0
 40
0
 40
0
 40
0
 40
0
 40
1
 40
1
 40
1
 40
1
 10
383.600000
 20
731.200000
 30
0.0
 10
397.760000
 20
730.480000
 30
0.0
 10
409.120000
 20
726.800000
 30
0.0
 10
417.360000
 20
720.160000
 30
0.0
  0
SPLINE
  5
14d
100
AcDbEntity
  8
0
 62
7
100
AcDbSpline
 70
8
 71
3
 72
8
 73
4
 74
0
 40
0
 40
0
 40
0
 40
0
 40
1
 40
1
 40
1
 40
1
 10
417.360000
 20
720.160000
 30
0.0
 10
420.160000
 20
718.000000
 30
0.0
 10
423.040000
 20
715.120000
 30
0.0
 10
423.840000
 20
713.840000
 30
0.0
  0
SPLINE
  5
14e
100
AcDbEntity
  8
0
 62
7
100
AcDbSpline
 70
8
 71
3
 72
8
 73
4
 74
0
 40
0
 40
0
 40
0
 40
0
 40
1
 40
1
 40
1
 40
1
 10
423.840000
 20
713.840000
 30
0.0
 10
424.640000
 20
712.560000
 30
0.0
 10
425.520000
 20
711.360000
 30
0.0
 10
425.840000
 20
711.120000
 30
0.0
  0
SPLINE
  5
14f
100
AcDbEntity
  8
0
 62
7
100
AcDbSpline
 70
8
 71
3
 72
8
 73
4
 74
0
 40
0
 40
0
 40
0
 40
0
 40
1
 40
1
 40
1
 40
1
 10
425.840000
 20
711.120000
 30
0.0
 10
427.440000
 20
710.000000
 30
0.0
 10
435.840000
 20
694.480000
 30
0.0
 10
438.640000
 20
687.440000
 30
0.0
  0
SPLINE
  5
150
100
AcDbEntity
  8
0
 62
7
100
AcDbSpline
 70
8
 71
3
 72
8
 73
4
 74
0
 40
0
 40
0
 40
0
 40
0
 40
1
 40
1
 40
1
 40
1
 10
438.640000
 20
687.440000
 30
0.0
 10
443.120000
 20
676.000000
 30
0.0
 10
444.320000
 20
669.360000
 30
0.0
 10
443.440000
 20
660.000000
 30
0.0
  0
SPLINE
  5
151
100
AcDbEntity
  8
0
 62
7
100
AcDbSpline
 70
8
 71
3
 72
8
 73
4
 74
0
 40
0
 40
0
 40
0
 40
0
 40
1
 40
1
 40
1
 40
1
 10
443.440000
 20
660.000000
 30
0.0
 10
442.480000
 20
649.840000
 30
0.0
 10
442.560000
 20
649.520000
 30
0.0
 10
444.880000
 20
647.040000
 30
0.0
  0
SPLINE
  5
152
100
AcDbEntity
  8
0
 62
7
100
AcDbSpline
 70
8
 71
3
 72
8
 73
4
 74
0
 40
0
 40
0
 40
0
 40
0
 40
1
 40
1
 40
1
 40
1
 10
444.880000
 20
647.040000
 30
0.0
 10
445.920000
 20
645.840000
 30
0.0
 10
447.600000
 20
643.120000
 30
0.0
 10
448.640000
 20
641.040000
 30
0.0
  0
SPLINE
  5
153
100
AcDbEntity
  8
0
 62
7
100
AcDbSpline
 70
8
 71
3
 72
8
 73
4
 74
0
 40
0
 40
0
 40
0
 40
0
 40
1
 40
1
 40
1
 40
1
 10
448.640000
 20
641.040000
 30
0.0
 10
449.680000
 20
638.960000
 30
0.0
 10
452.720000
 20
634.800000
 30
0.0
 10
455.360000
 20
631.920000
 30
0.0
  0
SPLINE
  5
154
100
AcDbEntity
  8
0
 62
7
100
AcDbSpline
 70
8
 71
3
 72
8
 73
4
 74
0
 40
0
 40
0
 40
0
 40
0
 40
1
 40
1
 40
1
 40
1
 10
455.360000
 20
631.920000
 30
0.0
 10
458.000000
 20
629.040000
 30
0.0
 10
460.240000
 20
626.320000
 30
0.0
 10
460.240000
 20
625.920000
 30
0.0
  0
SPLINE
  5
155
100
AcDbEntity
  8
0
 62
7
100
AcDbSpline
 70
8
 71
3
 72
8
 73
4
 74
0
 40
0
 40
0
 40
0
 40
0
 40
1
 40
1
 40
1
 40
1
 10
460.240000
 20
625.920000
 30
0.0
 10
460.240000
 20
625.600000
 30
0.0
 10
461.040000
 20
624.560000
 30
0.0
 10
462.160000
 20
623.760000
 30
0.0
  0
SPLINE
  5
156
100
AcDbEntity
  8
0
 62
7
100
AcDbSpline
 70
8
 71
3
 72
8
 73
4
 74
0
 40
0
 40
0
 40
0
 40
0
 40
1
 40
1
 40
1
 40
1
 10
462.160000
 20
623.760000
 30
0.0
 10
463.680000
 20
622.400000
 30
0.0
 10
465.280000
 20
622.160000
 30
0.0
 10
471.360000
 20
622.160000
 30
0.0
  0
SPLINE
  5
157
100
AcDbEntity
  8
0
 62
7
100
AcDbSpline
 70
8
 71
3
 72
8
 73
4
 74
0
 40
0
 40
0
 40
0
 40
0
 40
1
 40
1
 40
1
 40
1
 10
471.360000
 20
622.160000
 30
0.0
 10
477.440000
 20
622.160000
 30
0.0
 10
479.520000
 20
621.760000
 30
0.0
 10
484.800000
 20
619.760000
 30
0.0
  0
SPLINE
  5
158
100
AcDbEntity
  8
0
 62
7
100
AcDbSpline
 70
8
 71
3
 72
8
 73
4
 74
0
 40
0
 40
0
 40
0
 40
0
 40
1
 40
1
 40
1
 40
1
 10
484.800000
 20
619.760000
 30
0.0
 10
488.160000
 20
618.400000
 30
0.0
 10
491.520000
 20
617.520000
 30
0.0
 10
492.240000
 20
617.760000
 30
0.0
  0
SPLINE
  5
159
100
AcDbEntity
  8
0
 62
7
100
AcDbSpline
 70
8
 71
3
 72
8
 73
4
 74
0
 40
0
 40
0
 40
0
 40
0
 40
1
 40
1
 40
1
 40
1
 10
492.240000
 20
617.760000
 30
0.0
 10
492.960000
 20
618.000000
 30
0.0
 10
493.840000
 20
619.200000
 30
0.0
 10
494.160000
 20
620.480000
 30
0.0
  0
SPLINE
  5
15a
100
AcDbEntity
  8
0
 62
7
100
AcDbSpline
 70
8
 71
3
 72
8
 73
4
 74
0
 40
0
 40
0
 40
0
 40
0
 40
1
 40
1
 40
1
 40
1
 10
494.160000
 20
620.480000
 30
0.0
 10
495.520000
 20
625.440000
 30
0.0
 10
503.920000
 20
629.200000
 30
0.0
 10
511.200000
 20
628.080000
 30
0.0
  0
SPLINE
  5
15b
100
AcDbEntity
  8
0
 62
7
100
AcDbSpline
 70
8
 71
3
 72
8
 73
4
 74
0
 40
0
 40
0
 40
0
 40
0
 40
1
 40
1
 40
1
 40
1
 10
511.200000
 20
628.080000
 30
0.0
 10
514.720000
 20
627.600000
 30
0.0
 10
519.280000
 20
624.480000
 30
0.0
 10
520.560000
 20
621.680000
 30
0.0
  0
SPLINE
  5
15c
100
AcDbEntity
  8
0
 62
7
100
AcDbSpline
 70
8
 71
3
 72
8
 73
4
 74
0
 40
0
 40
0
 40
0
 40
0
 40
1
 40
1
 40
1
 40
1
 10
520.560000
 20
621.680000
 30
0.0
 10
521.760000
 20
619.040000
 30
0.0
 10
525.520000
 20
618.560000
 30
0.0
 10
529.680000
 20
620.480000
 30
0.0
  0
SPLINE
  5
15d
100
AcDbEntity
  8
0
 62
7
100
AcDbSpline
 70
8
 71
3
 72
8
 73
4
 74
0
 40
0
 40
0
 40
0
 40
0
 40
1
 40
1
 40
1
 40
1
 10
529.680000
 20
620.480000
 30
0.0
 10
533.520000
 20
622.400000
 30
0.0
 10
539.440000
 20
623.360000
 30
0.0
 10
542.720000
 20
622.640000
 30
0.0
  0
SPLINE
  5
15e
100
AcDbEntity
  8
0
 62
7
100
AcDbSpline
 70
8
 71
3
 72
8
 73
4
 74
0
 40
0
 40
0
 40
0
 40
0
 40
1
 40
1
 40
1
 40
1
 10
542.720000
 20
622.640000
 30
0.0
 10
546.400000
 20
621.920000
 30
0.0
 10
559.040000
 20
612.320000
 30
0.0
 10
561.440000
 20
608.480000
 30
0.0
  0
SPLINE
  5
15f
100
AcDbEntity
  8
0
 62
7
100
AcDbSpline
 70
8
 71
3
 72
8
 73
4
 74
0
 40
0
 40
0
 40
0
 40
0
 40
1
 40
1
 40
1
 40
1
 10
561.440000
 20
608.480000
 30
0.0
 10
564.000000
 20
604.320000
 30
0.0
 10
574.480000
 20
590.560000
 30
0.0
 10
575.280000
 20
590.320000
 30
0.0
  0
SPLINE
  5
160
100
AcDbEntity
  8
0
 62
7
100
AcDbSpline
 70
8
 71
3
 72
8
 73
4
 74
0
 40
0
 40
0
 40
0
 40
0
 40
1
 40
1
 40
1
 40
1
 10
575.280000
 20
590.320000
 30
0.0
 10
577.040000
 20
589.680000
 30
0.0
 10
575.760000
 20
585.520000
 30
0.0
 10
572.160000
 20
579.840000
 30
0.0
  0
SPLINE
  5
161
100
AcDbEntity
  8
0
 62
7
100
AcDbSpline
 70
8
 71
3
 72
8
 73
4
 74
0
 40
0
 40
0
 40
0
 40
0
 40
1
 40
1
 40
1
 40
1
 10
572.160000
 20
579.840000
 30
0.0
 10
568.640000
 20
574.320000
 30
0.0
 10
568.320000
 20
573.440000
 30
0.0
 10
569.280000
 20
571.280000
 30
0.0
  0
SPLINE
  5
162
100
AcDbEntity
  8
0
 62
7
100
AcDbSpline
 70
8
 71
3
 72
8
 73
4
 74
0
 40
0
 40
0
 40
0
 40
0
 40
1
 40
1
 40
1
 40
1
 10
569.280000
 20
571.280000
 30
0.0
 10
569.840000
 20
569.920000
 30
0.0
 10
570.320000
 20
567.280000
 30
0.0
 10
570.320000
 20
565.360000
 30
0.0
  0
SPLINE
  5
163
100
AcDbEntity
  8
0
 62
7
100
AcDbSpline
 70
8
 71
3
 72
8
 73
4
 74
0
 40
0
 40
0
 40
0
 40
0
 40
1
 40
1
 40
1
 40
1
 10
570.320000
 20
565.360000
 30
0.0
 10
570.320000
 20
562.160000
 30
0.0
 10
569.840000
 20
561.520000
 30
0.0
 10
564.720000
 20
557.360000
 30
0.0
  0
SPLINE
  5
164
100
AcDbEntity
  8
0
 62
7
100
AcDbSpline
 70
8
 71
3
 72
8
 73
4
 74
0
 40
0
 40
0
 40
0
 40
0
 40
1
 40
1
 40
1
 40
1
 10
564.720000
 20
557.360000
 30
0.0
 10
559.360000
 20
553.120000
 30
0.0
 10
559.040000
 20
552.640000
 30
0.0
 10
558.480000
 20
548.160000
 30
0.0
  0
SPLINE
  5
165
100
AcDbEntity
  8
0
 62
7
100
AcDbSpline
 70
8
 71
3
 72
8
 73
4
 74
0
 40
0
 40
0
 40
0
 40
0
 40
1
 40
1
 40
1
 40
1
 10
558.480000
 20
548.160000
 30
0.0
 10
557.760000
 20
542.320000
 30
0.0
 10
556.480000
 20
540.560000
 30
0.0
 10
551.840000
 20
538.560000
 30
0.0
  0
SPLINE
  5
166
100
AcDbEntity
  8
0
 62
7
100
AcDbSpline
 70
8
 71
3
 72
8
 73
4
 74
0
 40
0
 40
0
 40
0
 40
0
 40
1
 40
1
 40
1
 40
1
 10
551.840000
 20
538.560000
 30
0.0
 10
548.240000
 20
537.040000
 30
0.0
 10
546.800000
 20
535.200000
 30
0.0
 10
545.680000
 20
530.480000
 30
0.0
  0
SPLINE
  5
167
100
AcDbEntity
  8
0
 62
7
100
AcDbSpline
 70
8
 71
3
 72
8
 73
4
 74
0
 40
0
 40
0
 40
0
 40
0
 40
1
 40
1
 40
1
 40
1
 10
545.680000
 20
530.480000
 30
0.0
 10
544.640000
 20
526.480000
 30
0.0
 10
540.640000
 20
523.840000
 30
0.0
 10
532.800000
 20
522.080000
 30
0.0
  0
SPLINE
  5
168
100
AcDbEntity
  8
0
 62
7
100
AcDbSpline
 70
8
 71
3
 72
8
 73
4
 74
0
 40
0
 40
0
 40
0
 40
0
 40
1
 40
1
 40
1
 40
1
 10
532.800000
 20
522.080000
 30
0.0
 10
519.680000
 20
519.200000
 30
0.0
 10
514.240000
 20
519.360000
 30
0.0
 10
503.360000
 20
523.280000
 30
0.0
  0
SPLINE
  5
169
100
AcDbEntity
  8
0
 62
7
100
AcDbSpline
 70
8
 71
3
 72
8
 73
4
 74
0
 40
0
 40
0
 40
0
 40
0
 40
1
 40
1
 40
1
 40
1
 10
503.360000
 20
523.280000
 30
0.0
 10
498.880000
 20
524.880000
 30
0.0
 10
494.640000
 20
524.640000
 30
0.0
 10
489.680000
 20
522.640000
 30
0.0
  0
SPLINE
  5
16a
100
AcDbEntity
  8
0
 62
7
100
AcDbSpline
 70
8
 71
3
 72
8
 73
4
 74
0
 40
0
 40
0
 40
0
 40
0
 40
1
 40
1
 40
1
 40
1
 10
489.680000
 20
522.640000
 30
0.0
 10
487.520000
 20
521.680000
 30
0.0
 10
485.120000
 20
521.600000
 30
0.0
 10
476.240000
 20
522.240000
 30
0.0
  0
SPLINE
  5
16b
100
AcDbEntity
  8
0
 62
7
100
AcDbSpline
 70
8
 71
3
 72
8
 73
4
 74
0
 40
0
 40
0
 40
0
 40
0
 40
1
 40
1
 40
1
 40
1
 10
476.240000
 20
522.240000
 30
0.0
 10
459.920000
 20
523.440000
 30
0.0
 10
451.120000
 20
524.640000
 30
0.0
 10
448.480000
 20
526.080000
 30
0.0
  0
SPLINE
  5
16c
100
AcDbEntity
  8
0
 62
7
100
AcDbSpline
 70
8
 71
3
 72
8
 73
4
 74
0
 40
0
 40
0
 40
0
 40
0
 40
1
 40
1
 40
1
 40
1
 10
448.480000
 20
526.080000
 30
0.0
 10
447.200000
 20
526.800000
 30
0.0
 10
444.320000
 20
528.320000
 30
0.0
 10
442.080000
 20
529.520000
 30
0.0
  0
SPLINE
  5
16d
100
AcDbEntity
  8
0
 62
7
100
AcDbSpline
 70
8
 71
3
 72
8
 73
4
 74
0
 40
0
 40
0
 40
0
 40
0
 40
1
 40
1
 40
1
 40
1
 10
442.080000
 20
529.520000
 30
0.0
 10
438.480000
 20
531.520000
 30
0.0
 10
434.080000
 20
534.880000
 30
0.0
 10
414.560000
 20
550.560000
 30
0.0
  0
SPLINE
  5
16e
100
AcDbEntity
  8
0
 62
7
100
AcDbSpline
 70
8
 71
3
 72
8
 73
4
 74
0
 40
0
 40
0
 40
0
 40
0
 40
1
 40
1
 40
1
 40
1
 10
414.560000
 20
550.560000
 30
0.0
 10
409.120000
 20
554.960000
 30
0.0
 10
403.760000
 20
562.000000
 30
0.0
 10
403.760000
 20
564.640000
 30
0.0
  0
SPLINE
  5
16f
100
AcDbEntity
  8
0
 62
7
100
AcDbSpline
 70
8
 71
3
 72
8
 73
4
 74
0
 40
0
 40
0
 40
0
 40
0
 40
1
 40
1
 40
1
 40
1
 10
403.760000
 20
564.640000
 30
0.0
 10
403.760000
 20
566.800000
 30
0.0
 10
400.000000
 20
572.640000
 30
0.0
 10
397.360000
 20
574.640000
 30
0.0
  0
SPLINE
  5
170
100
AcDbEntity
  8
0
 62
7
100
AcDbSpline
 70
8
 71
3
 72
8
 73
4
 74
0
 40
0
 40
0
 40
0
 40
0
 40
1
 40
1
 40
1
 40
1
 10
397.360000
 20
574.640000
 30
0.0
 10
395.840000
 20
575.760000
 30
0.0
 10
391.280000
 20
578.720000
 30
0.0
 10
387.120000
 20
581.200000
 30
0.0
  0
SPLINE
  5
171
100
AcDbEntity
  8
0
 62
7
100
AcDbSpline
 70
8
 71
3
 72
8
 73
4
 74
0
 40
0
 40
0
 40
0
 40
0
 40
1
 40
1
 40
1
 40
1
 10
387.120000
 20
581.200000
 30
0.0
 10
383.040000
 20
583.680000
 30
0.0
 10
378.480000
 20
586.880000
 30
0.0
 10
377.120000
 20
588.320000
 30
0.0
  0
SPLINE
  5
172
100
AcDbEntity
  8
0
 62
7
100
AcDbSpline
 70
8
 71
3
 72
8
 73
4
 74
0
 40
0
 40
0
 40
0
 40
0
 40
1
 40
1
 40
1
 40
1
 10
377.120000
 20
588.320000
 30
0.0
 10
375.680000
 20
589.760000
 30
0.0
 10
374.000000
 20
590.960000
 30
0.0
 10
373.360000
 20
590.960000
 30
0.0
  0
SPLINE
  5
173
100
AcDbEntity
  8
0
 62
7
100
AcDbSpline
 70
8
 71
3
 72
8
 73
4
 74
0
 40
0
 40
0
 40
0
 40
0
 40
1
 40
1
 40
1
 40
1
 10
373.360000
 20
590.960000
 30
0.0
 10
372.720000
 20
590.960000
 30
0.0
 10
371.040000
 20
588.960000
 30
0.0
 10
369.600000
 20
586.480000
 30
0.0
  0
SPLINE
  5
174
100
AcDbEntity
  8
0
 62
7
100
AcDbSpline
 70
8
 71
3
 72
8
 73
4
 74
0
 40
0
 40
0
 40
0
 40
0
 40
1
 40
1
 40
1
 40
1
 10
369.600000
 20
586.480000
 30
0.0
 10
365.920000
 20
579.920000
 30
0.0
 10
362.400000
 20
576.080000
 30
0.0
 10
357.760000
 20
573.360000
 30
0.0
  0
SPLINE
  5
175
100
AcDbEntity
  8
0
 62
7
100
AcDbSpline
 70
8
 71
3
 72
8
 73
4
 74
0
 40
0
 40
0
 40
0
 40
0
 40
1
 40
1
 40
1
 40
1
 10
357.760000
 20
573.360000
 30
0.0
 10
355.600000
 20
572.080000
 30
0.0
 10
352.000000
 20
569.840000
 30
0.0
 10
349.920000
 20
568.400000
 30
0.0
  0
SPLINE
  5
176
100
AcDbEntity
  8
0
 62
7
100
AcDbSpline
 70
8
 71
3
 72
8
 73
4
 74
0
 40
0
 40
0
 40
0
 40
0
 40
1
 40
1
 40
1
 40
1
 10
349.920000
 20
568.400000
 30
0.0
 10
345.840000
 20
565.440000
 30
0.0
 10
345.760000
 20
565.200000
 30
0.0
 10
348.000000
 20
557.760000
 30
0.0
  0
SPLINE
  5
177
100
AcDbEntity
  8
0
 62
7
100
AcDbSpline
 70
8
 71
3
 72
8
 73
4
 74
0
 40
0
 40
0
 40
0
 40
0
 40
1
 40
1
 40
1
 40
1
 10
348.000000
 20
557.760000
 30
0.0
 10
348.560000
 20
556.080000
 30
0.0
 10
349.280000
 20
553.440000
 30
0.0
 10
349.600000
 20
551.920000
 30
0.0
  0
SPLINE
  5
178
100
AcDbEntity
  8
0
 62
7
100
AcDbSpline
 70
8
 71
3
 72
8
 73
4
 74
0
 40
0
 40
0
 40
0
 40
0
 40
1
 40
1
 40
1
 40
1
 10
349.600000
 20
551.920000
 30
0.0
 10
350.400000
 20
547.760000
 30
0.0
 10
354.960000
 20
544.400000
 30
0.0
 10
362.160000
 20
542.640000
 30
0.0
  0
SPLINE
  5
179
100
AcDbEntity
  8
0
 62
7
100
AcDbSpline
 70
8
 71
3
 72
8
 73
4
 74
0
 40
0
 40
0
 40
0
 40
0
 40
1
 40
1
 40
1
 40
1
 10
362.160000
 20
542.640000
 30
0.0
 10
372.880000
 20
539.920000
 30
0.0
 10
383.200000
 20
536.160000
 30
0.0
 10
397.520000
 20
529.760000
 30
0.0
  0
SPLINE
  5
17a
100
AcDbEntity
  8
0
 62
7
100
AcDbSpline
 70
8
 71
3
 72
8
 73
4
 74
0
 40
0
 40
0
 40
0
 40
0
 40
1
 40
1
 40
1
 40
1
 10
397.520000
 20
529.760000
 30
0.0
 10
410.400000
 20
524.000000
 30
0.0
 10
431.680000
 20
509.840000
 30
0.0
 10
437.680000
 20
503.040000
 30
0.0
  0
SPLINE
  5
17b
100
AcDbEntity
  8
0
 62
7
100
AcDbSpline
 70
8
 71
3
 72
8
 73
4
 74
0
 40
0
 40
0
 40
0
 40
0
 40
1
 40
1
 40
1
 40
1
 10
437.680000
 20
503.040000
 30
0.0
 10
440.240000
 20
500.080000
 30
0.0
 10
444.160000
 20
496.160000
 30
0.0
 10
446.240000
 20
494.160000
 30
0.0
  0
SPLINE
  5
17c
100
AcDbEntity
  8
0
 62
7
100
AcDbSpline
 70
8
 71
3
 72
8
 73
4
 74
0
 40
0
 40
0
 40
0
 40
0
 40
1
 40
1
 40
1
 40
1
 10
446.240000
 20
494.160000
 30
0.0
 10
448.400000
 20
492.240000
 30
0.0
 10
453.200000
 20
487.920000
 30
0.0
 10
456.880000
 20
484.480000
 30
0.0
  0
SPLINE
  5
17d
100
AcDbEntity
  8
0
 62
7
100
AcDbSpline
 70
8
 71
3
 72
8
 73
4
 74
0
 40
0
 40
0
 40
0
 40
0
 40
1
 40
1
 40
1
 40
1
 10
456.880000
 20
484.480000
 30
0.0
 10
460.560000
 20
481.120000
 30
0.0
 10
465.440000
 20
476.880000
 30
0.0
 10
467.680000
 20
475.120000
 30
0.0
  0
SPLINE
  5
17e
100
AcDbEntity
  8
0
 62
7
100
AcDbSpline
 70
8
 71
3
 72
8
 73
4
 74
0
 40
0
 40
0
 40
0
 40
0
 40
1
 40
1
 40
1
 40
1
 10
467.680000
 20
475.120000
 30
0.0
 10
474.080000
 20
470.320000
 30
0.0
 10
477.760000
 20
465.600000
 30
0.0
 10
480.960000
 20
458.320000
 30
0.0
  0
SPLINE
  5
17f
100
AcDbEntity
  8
0
 62
7
100
AcDbSpline
 70
8
 71
3
 72
8
 73
4
 74
0
 40
0
 40
0
 40
0
 40
0
 40
1
 40
1
 40
1
 40
1
 10
480.960000
 20
458.320000
 30
0.0
 10
485.680000
 20
447.440000
 30
0.0
 10
485.840000
 20
446.800000
 30
0.0
 10
486.000000
 20
431.040000
 30
0.0
  0
SPLINE
  5
180
100
AcDbEntity
  8
0
 62
7
100
AcDbSpline
 70
8
 71
3
 72
8
 73
4
 74
0
 40
0
 40
0
 40
0
 40
0
 40
1
 40
1
 40
1
 40
1
 10
486.000000
 20
431.040000
 30
0.0
 10
486.160000
 20
422.640000
 30
0.0
 10
486.480000
 20
415.440000
 30
0.0
 10
486.800000
 20
415.040000
 30
0.0
  0
SPLINE
  5
181
100
AcDbEntity
  8
0
 62
7
100
AcDbSpline
 70
8
 71
3
 72
8
 73
4
 74
0
 40
0
 40
0
 40
0
 40
0
 40
1
 40
1
 40
1
 40
1
 10
486.800000
 20
415.040000
 30
0.0
 10
487.120000
 20
414.640000
 30
0.0
 10
487.440000
 20
412.160000
 30
0.0
 10
487.520000
 20
409.600000
 30
0.0
  0
SPLINE
  5
182
100
AcDbEntity
  8
0
 62
7
100
AcDbSpline
 70
8
 71
3
 72
8
 73
4
 74
0
 40
0
 40
0
 40
0
 40
0
 40
1
 40
1
 40
1
 40
1
 10
487.520000
 20
409.600000
 30
0.0
 10
487.600000
 20
406.960000
 30
0.0
 10
488.240000
 20
402.880000
 30
0.0
 10
488.960000
 20
400.400000
 30
0.0
  0
SPLINE
  5
183
100
AcDbEntity
  8
0
 62
7
100
AcDbSpline
 70
8
 71
3
 72
8
 73
4
 74
0
 40
0
 40
0
 40
0
 40
0
 40
1
 40
1
 40
1
 40
1
 10
488.960000
 20
400.400000
 30
0.0
 10
490.000000
 20
396.800000
 30
0.0
 10
490.000000
 20
395.600000
 30
0.0
 10
489.040000
 20
393.840000
 30
0.0
  0
LINE
  5
184
100
AcDbEntity
  8
0
 62
7
100
AcDbLine
 10
489.040000
 20
393.840000
 30
0.0
 11
487.840000
 21
391.680000
 31
0.0
  0
LINE
  5
185
100
AcDbEntity
  8
0
 62
7
100
AcDbLine
 10
487.840000
 20
391.680000
 30
0.0
 11
484.960000
 21
394.160000
 31
0.0
  0
SPLINE
  5
186
100
AcDbEntity
  8
0
 62
7
100
AcDbSpline
 70
8
 71
3
 72
8
 73
4
 74
0
 40
0
 40
0
 40
0
 40
0
 40
1
 40
1
 40
1
 40
1
 10
484.960000
 20
394.160000
 30
0.0
 10
483.440000
 20
395.520000
 30
0.0
 10
481.760000
 20
396.640000
 30
0.0
 10
481.360000
 20
396.640000
 30
0.0
  0
SPLINE
  5
187
100
AcDbEntity
  8
0
 62
7
100
AcDbSpline
 70
8
 71
3
 72
8
 73
4
 74
0
 40
0
 40
0
 40
0
 40
0
 40
1
 40
1
 40
1
 40
1
 10
481.360000
 20
396.640000
 30
0.0
 10
480.000000
 20
396.640000
 30
0.0
 10
478.640000
 20
394.800000
 30
0.0
 10
477.520000
 20
391.520000
 30
0.0
  0
SPLINE
  5
188
100
AcDbEntity
  8
0
 62
7
100
AcDbSpline
 70
8
 71
3
 72
8
 73
4
 74
0
 40
0
 40
0
 40
0
 40
0
 40
1
 40
1
 40
1
 40
1
 10
477.520000
 20
391.520000
 30
0.0
 10
476.960000
 20
389.760000
 30
0.0
 10
475.440000
 20
387.520000
 30
0.0
 10
474.160000
 20
386.560000
 30
0.0
  0
SPLINE
  5
189
100
AcDbEntity
  8
0
 62
7
100
AcDbSpline
 70
8
 71
3
 72
8
 73
4
 74
0
 40
0
 40
0
 40
0
 40
0
 40
1
 40
1
 40
1
 40
1
 10
474.160000
 20
386.560000
 30
0.0
 10
472.800000
 20
385.520000
 30
0.0
 10
471.040000
 20
382.960000
 30
0.0
 10
470.160000
 20
380.720000
 30
0.0
  0
SPLINE
  5
18a
100
AcDbEntity
  8
0
 62
7
100
AcDbSpline
 70
8
 71
3
 72
8
 73
4
 74
0
 40
0
 40
0
 40
0
 40
0
 40
1
 40
1
 40
1
 40
1
 10
470.160000
 20
380.720000
 30
0.0
 10
469.280000
 20
378.560000
 30
0.0
 10
467.920000
 20
375.760000
 30
0.0
 10
467.200000
 20
374.560000
 30
0.0
  0
SPLINE
  5
18b
100
AcDbEntity
  8
0
 62
7
100
AcDbSpline
 70
8
 71
3
 72
8
 73
4
 74
0
 40
0
 40
0
 40
0
 40
0
 40
1
 40
1
 40
1
 40
1
 10
467.200000
 20
374.560000
 30
0.0
 10
466.480000
 20
373.360000
 30
0.0
 10
465.200000
 20
369.680000
 30
0.0
 10
464.480000
 20
366.400000
 30
0.0
  0
SPLINE
  5
18c
100
AcDbEntity
  8
0
 62
7
100
AcDbSpline
 70
8
 71
3
 72
8
 73
4
 74
0
 40
0
 40
0
 40
0
 40
0
 40
1
 40
1
 40
1
 40
1
 10
464.480000
 20
366.400000
 30
0.0
 10
463.680000
 20
363.200000
 30
0.0
 10
462.560000
 20
360.080000
 30
0.0
 10
462.000000
 20
359.520000
 30
0.0
  0
SPLINE
  5
18d
100
AcDbEntity
  8
0
 62
7
100
AcDbSpline
 70
8
 71
3
 72
8
 73
4
 74
0
 40
0
 40
0
 40
0
 40
0
 40
1
 40
1
 40
1
 40
1
 10
462.000000
 20
359.520000
 30
0.0
 10
460.640000
 20
358.160000
 30
0.0
 10
457.600000
 20
359.440000
 30
0.0
 10
456.160000
 20
362.000000
 30
0.0
  0
SPLINE
  5
18e
100
AcDbEntity
  8
0
 62
7
100
AcDbSpline
 70
8
 71
3
 72
8
 73
4
 74
0
 40
0
 40
0
 40
0
 40
0
 40
1
 40
1
 40
1
 40
1
 10
456.160000
 20
362.000000
 30
0.0
 10
454.640000
 20
364.720000
 30
0.0
 10
451.520000
 20
364.400000
 30
0.0
 10
447.200000
 20
361.120000
 30
0.0
  0
SPLINE
  5
18f
100
AcDbEntity
  8
0
 62
7
100
AcDbSpline
 70
8
 71
3
 72
8
 73
4
 74
0
 40
0
 40
0
 40
0
 40
0
 40
1
 40
1
 40
1
 40
1
 10
447.200000
 20
361.120000
 30
0.0
 10
445.120000
 20
359.600000
 30
0.0
 10
441.440000
 20
357.040000
 30
0.0
 10
438.960000
 20
355.520000
 30
0.0
  0
SPLINE
  5
190
100
AcDbEntity
  8
0
 62
7
100
AcDbSpline
 70
8
 71
3
 72
8
 73
4
 74
0
 40
0
 40
0
 40
0
 40
0
 40
1
 40
1
 40
1
 40
1
 10
438.960000
 20
355.520000
 30
0.0
 10
431.040000
 20
350.560000
 30
0.0
 10
430.640000
 20
346.800000
 30
0.0
 10
437.520000
 20
341.120000
 30
0.0
  0
SPLINE
  5
191
100
AcDbEntity
  8
0
 62
7
100
AcDbSpline
 70
8
 71
3
 72
8
 73
4
 74
0
 40
0
 40
0
 40
0
 40
0
 40
1
 40
1
 40
1
 40
1
 10
437.520000
 20
341.120000
 30
0.0
 10
439.760000
 20
339.280000
 30
0.0
 10
444.880000
 20
334.560000
 30
0.0
 10
448.880000
 20
330.720000
 30
0.0
  0
SPLINE
  5
192
100
AcDbEntity
  8
0
 62
7
100
AcDbSpline
 70
8
 71
3
 72
8
 73
4
 74
0
 40
0
 40
0
 40
0
 40
0
 40
1
 40
1
 40
1
 40
1
 10
448.880000
 20
330.720000
 30
0.0
 10
458.160000
 20
321.760000
 30
0.0
 10
459.680000
 20
320.640000
 30
0.0
 10
465.520000
 20
318.560000
 30
0.0
  0
SPLINE
  5
193
100
AcDbEntity
  8
0
 62
7
100
AcDbSpline
 70
8
 71
3
 72
8
 73
4
 74
0
 40
0
 40
0
 40
0
 40
0
 40
1
 40
1
 40
1
 40
1
 10
465.520000
 20
318.560000
 30
0.0
 10
468.080000
 20
317.600000
 30
0.0
 10
471.440000
 20
316.240000
 30
0.0
 10
472.800000
 20
315.360000
 30
0.0
  0
SPLINE
  5
194
100
AcDbEntity
  8
0
 62
7
100
AcDbSpline
 70
8
 71
3
 72
8
 73
4
 74
0
 40
0
 40
0
 40
0
 40
0
 40
1
 40
1
 40
1
 40
1
 10
472.800000
 20
315.360000
 30
0.0
 10
474.240000
 20
314.560000
 30
0.0
 10
477.600000
 20
313.600000
 30
0.0
 10
480.320000
 20
313.200000
 30
0.0
  0
SPLINE
  5
195
100
AcDbEntity
  8
0
 62
7
100
AcDbSpline
 70
8
 71
3
 72
8
 73
4
 74
0
 40
0
 40
0
 40
0
 40
0
 40
1
 40
1
 40
1
 40
1
 10
480.320000
 20
313.200000
 30
0.0
 10
488.480000
 20
311.920000
 30
0.0
 10
490.000000
 20
310.960000
 30
0.0
 10
494.000000
 20
304.560000
 30
0.0
  0
SPLINE
  5
196
100
AcDbEntity
  8
0
 62
7
100
AcDbSpline
 70
8
 71
3
 72
8
 73
4
 74
0
 40
0
 40
0
 40
0
 40
0
 40
1
 40
1
 40
1
 40
1
 10
494.000000
 20
304.560000
 30
0.0
 10
497.280000
 20
299.280000
 30
0.0
 10
497.600000
 20
298.240000
 30
0.0
 10
497.520000
 20
293.280000
 30
0.0
  0
SPLINE
  5
197
100
AcDbEntity
  8
0
 62
7
100
AcDbSpline
 70
8
 71
3
 72
8
 73
4
 74
0
 40
0
 40
0
 40
0
 40
0
 40
1
 40
1
 40
1
 40
1
 10
497.520000
 20
293.280000
 30
0.0
 10
497.360000
 20
290.240000
 30
0.0
 10
497.680000
 20
284.800000
 30
0.0
 10
498.000000
 20
281.120000
 30
0.0
  0
SPLINE
  5
198
100
AcDbEntity
  8
0
 62
7
100
AcDbSpline
 70
8
 71
3
 72
8
 73
4
 74
0
 40
0
 40
0
 40
0
 40
0
 40
1
 40
1
 40
1
 40
1
 10
498.000000
 20
281.120000
 30
0.0
 10
498.560000
 20
276.320000
 30
0.0
 10
498.400000
 20
273.920000
 30
0.0
 10
497.600000
 20
272.640000
 30
0.0
  0
SPLINE
  5
199
100
AcDbEntity
  8
0
 62
7
100
AcDbSpline
 70
8
 71
3
 72
8
 73
4
 74
0
 40
0
 40
0
 40
0
 40
0
 40
1
 40
1
 40
1
 40
1
 10
497.600000
 20
272.640000
 30
0.0
 10
496.960000
 20
271.680000
 30
0.0
 10
496.000000
 20
268.720000
 30
0.0
 10
495.600000
 20
266.080000
 30
0.0
  0
SPLINE
  5
19a
100
AcDbEntity
  8
0
 62
7
100
AcDbSpline
 70
8
 71
3
 72
8
 73
4
 74
0
 40
0
 40
0
 40
0
 40
0
 40
1
 40
1
 40
1
 40
1
 10
495.600000
 20
266.080000
 30
0.0
 10
494.560000
 20
260.400000
 30
0.0
 10
492.560000
 20
258.000000
 30
0.0
 10
486.720000
 20
255.520000
 30
0.0
  0
SPLINE
  5
19b
100
AcDbEntity
  8
0
 62
7
100
AcDbSpline
 70
8
 71
3
 72
8
 73
4
 74
0
 40
0
 40
0
 40
0
 40
0
 40
1
 40
1
 40
1
 40
1
 10
486.720000
 20
255.520000
 30
0.0
 10
478.400000
 20
252.080000
 30
0.0
 10
472.480000
 20
252.400000
 30
0.0
 10
462.160000
 20
257.120000
 30
0.0
  0
SPLINE
  5
19c
100
AcDbEntity
  8
0
 62
7
100
AcDbSpline
 70
8
 71
3
 72
8
 73
4
 74
0
 40
0
 40
0
 40
0
 40
0
 40
1
 40
1
 40
1
 40
1
 10
462.160000
 20
257.120000
 30
0.0
 10
453.040000
 20
261.280000
 30
0.0
 10
450.160000
 20
261.920000
 30
0.0
 10
439.600000
 20
262.560000
 30
0.0
  0
SPLINE
  5
19d
100
AcDbEntity
  8
0
 62
7
100
AcDbSpline
 70
8
 71
3
 72
8
 73
4
 74
0
 40
0
 40
0
 40
0
 40
0
 40
1
 40
1
 40
1
 40
1
 10
439.600000
 20
262.560000
 30
0.0
 10
432.640000
 20
262.960000
 30
0.0
 10
427.600000
 20
263.680000
 30
0.0
 10
424.720000
 20
264.640000
 30
0.0
  0
SPLINE
  5
19e
100
AcDbEntity
  8
0
 62
7
100
AcDbSpline
 70
8
 71
3
 72
8
 73
4
 74
0
 40
0
 40
0
 40
0
 40
0
 40
1
 40
1
 40
1
 40
1
 10
424.720000
 20
264.640000
 30
0.0
 10
419.760000
 20
266.400000
 30
0.0
 10
413.200000
 20
272.160000
 30
0.0
 10
409.120000
 20
278.480000
 30
0.0
  0
SPLINE
  5
19f
100
AcDbEntity
  8
0
 62
7
100
AcDbSpline
 70
8
 71
3
 72
8
 73
4
 74
0
 40
0
 40
0
 40
0
 40
0
 40
1
 40
1
 40
1
 40
1
 10
409.120000
 20
278.480000
 30
0.0
 10
405.840000
 20
283.520000
 30
0.0
 10
399.360000
 20
289.120000
 30
0.0
 10
395.120000
 20
290.800000
 30
0.0
  0
SPLINE
  5
1a0
100
AcDbEntity
  8
0
 62
7
100
AcDbSpline
 70
8
 71
3
 72
8
 73
4
 74
0
 40
0
 40
0
 40
0
 40
0
 40
1
 40
1
 40
1
 40
1
 10
395.120000
 20
290.800000
 30
0.0
 10
391.680000
 20
292.160000
 30
0.0
 10
383.200000
 20
294.160000
 30
0.0
 10
376.640000
 20
295.200000
 30
0.0
  0
SPLINE
  5
1a1
100
AcDbEntity
  8
0
 62
7
100
AcDbSpline
 70
8
 71
3
 72
8
 73
4
 74
0
 40
0
 40
0
 40
0
 40
0
 40
1
 40
1
 40
1
 40
1
 10
376.640000
 20
295.200000
 30
0.0
 10
374.640000
 20
295.520000
 30
0.0
 10
372.480000
 20
296.240000
 30
0.0
 10
371.920000
 20
296.720000
 30
0.0
  0
SPLINE
  5
1a2
100
AcDbEntity
  8
0
 62
7
100
AcDbSpline
 70
8
 71
3
 72
8
 73
4
 74
0
 40
0
 40
0
 40
0
 40
0
 40
1
 40
1
 40
1
 40
1
 10
371.920000
 20
296.720000
 30
0.0
 10
371.280000
 20
297.200000
 30
0.0
 10
370.160000
 20
297.600000
 30
0.0
 10
369.280000
 20
297.600000
 30
0.0
  0
SPLINE
  5
1a3
100
AcDbEntity
  8
0
 62
7
100
AcDbSpline
 70
8
 71
3
 72
8
 73
4
 74
0
 40
0
 40
0
 40
0
 40
0
 40
1
 40
1
 40
1
 40
1
 10
369.280000
 20
297.600000
 30
0.0
 10
368.480000
 20
297.600000
 30
0.0
 10
365.600000
 20
298.800000
 30
0.0
 10
362.800000
 20
300.320000
 30
0.0
  0
SPLINE
  5
1a4
100
AcDbEntity
  8
0
 62
7
100
AcDbSpline
 70
8
 71
3
 72
8
 73
4
 74
0
 40
0
 40
0
 40
0
 40
0
 40
1
 40
1
 40
1
 40
1
 10
362.800000
 20
300.320000
 30
0.0
 10
354.240000
 20
305.040000
 30
0.0
 10
351.280000
 20
312.160000
 30
0.0
 10
353.520000
 20
322.560000
 30
0.0
  0
SPLINE
  5
1a5
100
AcDbEntity
  8
0
 62
7
100
AcDbSpline
 70
8
 71
3
 72
8
 73
4
 74
0
 40
0
 40
0
 40
0
 40
0
 40
1
 40
1
 40
1
 40
1
 10
353.520000
 20
322.560000
 30
0.0
 10
355.520000
 20
331.440000
 30
0.0
 10
359.760000
 20
340.160000
 30
0.0
 10
366.080000
 20
348.000000
 30
0.0
  0
SPLINE
  5
1a6
100
AcDbEntity
  8
0
 62
7
100
AcDbSpline
 70
8
 71
3
 72
8
 73
4
 74
0
 40
0
 40
0
 40
0
 40
0
 40
1
 40
1
 40
1
 40
1
 10
366.080000
 20
348.000000
 30
0.0
 10
367.840000
 20
350.240000
 30
0.0
 10
369.280000
 20
352.560000
 30
0.0
 10
369.280000
 20
353.120000
 30
0.0
  0
SPLINE
  5
1a7
100
AcDbEntity
  8
0
 62
7
100
AcDbSpline
 70
8
 71
3
 72
8
 73
4
 74
0
 40
0
 40
0
 40
0
 40
0
 40
1
 40
1
 40
1
 40
1
 10
369.280000
 20
353.120000
 30
0.0
 10
369.280000
 20
353.760000
 30
0.0
 10
369.680000
 20
354.560000
 30
0.0
 10
370.160000
 20
354.960000
 30
0.0
  0
SPLINE
  5
1a8
100
AcDbEntity
  8
0
 62
7
100
AcDbSpline
 70
8
 71
3
 72
8
 73
4
 74
0
 40
0
 40
0
 40
0
 40
0
 40
1
 40
1
 40
1
 40
1
 10
370.160000
 20
354.960000
 30
0.0
 10
371.280000
 20
355.920000
 30
0.0
 10
373.120000
 20
363.280000
 30
0.0
 10
373.120000
 20
366.880000
 30
0.0
  0
SPLINE
  5
1a9
100
AcDbEntity
  8
0
 62
7
100
AcDbSpline
 70
8
 71
3
 72
8
 73
4
 74
0
 40
0
 40
0
 40
0
 40
0
 40
1
 40
1
 40
1
 40
1
 10
373.120000
 20
366.880000
 30
0.0
 10
373.120000
 20
368.480000
 30
0.0
 10
372.400000
 20
371.680000
 30
0.0
 10
371.600000
 20
374.000000
 30
0.0
  0
SPLINE
  5
1aa
100
AcDbEntity
  8
0
 62
7
100
AcDbSpline
 70
8
 71
3
 72
8
 73
4
 74
0
 40
0
 40
0
 40
0
 40
0
 40
1
 40
1
 40
1
 40
1
 10
371.600000
 20
374.000000
 30
0.0
 10
370.800000
 20
376.400000
 30
0.0
 10
369.760000
 20
380.960000
 30
0.0
 10
369.280000
 20
384.160000
 30
0.0
  0
SPLINE
  5
1ab
100
AcDbEntity
  8
0
 62
7
100
AcDbSpline
 70
8
 71
3
 72
8
 73
4
 74
0
 40
0
 40
0
 40
0
 40
0
 40
1
 40
1
 40
1
 40
1
 10
369.280000
 20
384.160000
 30
0.0
 10
368.640000
 20
388.320000
 30
0.0
 10
367.840000
 20
390.320000
 30
0.0
 10
366.560000
 20
391.200000
 30
0.0
  0
SPLINE
  5
1ac
100
AcDbEntity
  8
0
 62
7
100
AcDbSpline
 70
8
 71
3
 72
8
 73
4
 74
0
 40
0
 40
0
 40
0
 40
0
 40
1
 40
1
 40
1
 40
1
 10
366.560000
 20
391.200000
 30
0.0
 10
365.120000
 20
392.080000
 30
0.0
 10
364.560000
 20
393.920000
 30
0.0
 10
364.000000
 20
399.040000
 30
0.0
  0
SPLINE
  5
1ad
100
AcDbEntity
  8
0
 62
7
100
AcDbSpline
 70
8
 71
3
 72
8
 73
4
 74
0
 40
0
 40
0
 40
0
 40
0
 40
1
 40
1
 40
1
 40
1
 10
364.000000
 20
399.040000
 30
0.0
 10
362.880000
 20
409.680000
 30
0.0
 10
362.960000
 20
410.880000
 30
0.0
 10
365.680000
 20
414.000000
 30
0.0
  0
SPLINE
  5
1ae
100
AcDbEntity
  8
0
 62
7
100
AcDbSpline
 70
8
 71
3
 72
8
 73
4
 74
0
 40
0
 40
0
 40
0
 40
0
 40
1
 40
1
 40
1
 40
1
 10
365.680000
 20
414.000000
 30
0.0
 10
368.640000
 20
417.520000
 30
0.0
 10
369.840000
 20
422.960000
 30
0.0
 10
368.240000
 20
425.840000
 30
0.0
  0
SPLINE
  5
1af
100
AcDbEntity
  8
0
 62
7
100
AcDbSpline
 70
8
 71
3
 72
8
 73
4
 74
0
 40
0
 40
0
 40
0
 40
0
 40
1
 40
1
 40
1
 40
1
 10
368.240000
 20
425.840000
 30
0.0
 10
366.720000
 20
428.560000
 30
0.0
 10
362.080000
 20
430.640000
 30
0.0
 10
356.320000
 20
431.280000
 30
0.0
  0
SPLINE
  5
1b0
100
AcDbEntity
  8
0
 62
7
100
AcDbSpline
 70
8
 71
3
 72
8
 73
4
 74
0
 40
0
 40
0
 40
0
 40
0
 40
1
 40
1
 40
1
 40
1
 10
356.320000
 20
431.280000
 30
0.0
 10
349.520000
 20
432.080000
 30
0.0
 10
321.360000
 20
438.560000
 30
0.0
 10
315.360000
 20
440.720000
 30
0.0
  0
SPLINE
  5
1b1
100
AcDbEntity
  8
0
 62
7
100
AcDbSpline
 70
8
 71
3
 72
8
 73
4
 74
0
 40
0
 40
0
 40
0
 40
0
 40
1
 40
1
 40
1
 40
1
 10
315.360000
 20
440.720000
 30
0.0
 10
309.920000
 20
442.720000
 30
0.0
 10
304.960000
 20
445.280000
 30
0.0
 10
301.520000
 20
447.840000
 30
0.0
  0
SPLINE
  5
1b2
100
AcDbEntity
  8
0
 62
7
100
AcDbSpline
 70
8
 71
3
 72
8
 73
4
 74
0
 40
0
 40
0
 40
0
 40
0
 40
1
 40
1
 40
1
 40
1
 10
301.520000
 20
447.840000
 30
0.0
 10
300.320000
 20
448.800000
 30
0.0
 10
297.920000
 20
450.160000
 30
0.0
 10
296.160000
 20
450.880000
 30
0.0
  0
SPLINE
  5
1b3
100
AcDbEntity
  8
0
 62
7
100
AcDbSpline
 70
8
 71
3
 72
8
 73
4
 74
0
 40
0
 40
0
 40
0
 40
0
 40
1
 40
1
 40
1
 40
1
 10
296.160000
 20
450.880000
 30
0.0
 10
293.040000
 20
452.240000
 30
0.0
 10
292.720000
 20
452.240000
 30
0.0
 10
285.040000
 20
450.560000
 30
0.0
  0
SPLINE
  5
1b4
100
AcDbEntity
  8
0
 62
7
100
AcDbSpline
 70
8
 71
3
 72
8
 73
4
 74
0
 40
0
 40
0
 40
0
 40
0
 40
1
 40
1
 40
1
 40
1
 10
285.040000
 20
450.560000
 30
0.0
 10
280.720000
 20
449.600000
 30
0.0
 10
273.920000
 20
448.640000
 30
0.0
 10
270.000000
 20
448.400000
 30
0.0
  0
SPLINE
  5
1b5
100
AcDbEntity
  8
0
 62
7
100
AcDbSpline
 70
8
 71
3
 72
8
 73
4
 74
0
 40
0
 40
0
 40
0
 40
0
 40
1
 40
1
 40
1
 40
1
 10
270.000000
 20
448.400000
 30
0.0
 10
263.680000
 20
448.000000
 30
0.0
 10
262.800000
 20
447.680000
 30
0.0
 10
261.120000
 20
445.760000
 30
0.0
  0
SPLINE
  5
1b6
100
AcDbEntity
  8
0
 62
7
100
AcDbSpline
 70
8
 71
3
 72
8
 73
4
 74
0
 40
0
 40
0
 40
0
 40
0
 40
1
 40
1
 40
1
 40
1
 10
261.120000
 20
445.760000
 30
0.0
 10
260.080000
 20
444.560000
 30
0.0
 10
259.200000
 20
443.360000
 30
0.0
 10
259.200000
 20
443.120000
 30
0.0
  0
SPLINE
  5
1b7
100
AcDbEntity
  8
0
 62
7
100
AcDbSpline
 70
8
 71
3
 72
8
 73
4
 74
0
 40
0
 40
0
 40
0
 40
0
 40
1
 40
1
 40
1
 40
1
 10
259.200000
 20
443.120000
 30
0.0
 10
259.200000
 20
441.200000
 30
0.0
 10
249.840000
 20
427.280000
 30
0.0
 10
242.480000
 20
418.080000
 30
0.0
  0
SPLINE
  5
1b8
100
AcDbEntity
  8
0
 62
7
100
AcDbSpline
 70
8
 71
3
 72
8
 73
4
 74
0
 40
0
 40
0
 40
0
 40
0
 40
1
 40
1
 40
1
 40
1
 10
242.480000
 20
418.080000
 30
0.0
 10
237.600000
 20
412.080000
 30
0.0
 10
232.080000
 20
404.160000
 30
0.0
 10
230.160000
 20
400.480000
 30
0.0
  0
SPLINE
  5
1b9
100
AcDbEntity
  8
0
 62
7
100
AcDbSpline
 70
8
 71
3
 72
8
 73
4
 74
0
 40
0
 40
0
 40
0
 40
0
 40
1
 40
1
 40
1
 40
1
 10
230.160000
 20
400.480000
 30
0.0
 10
226.800000
 20
393.760000
 30
0.0
 10
218.720000
 20
381.840000
 30
0.0
 10
212.640000
 20
374.400000
 30
0.0
  0
SPLINE
  5
1ba
100
AcDbEntity
  8
0
 62
7
100
AcDbSpline
 70
8
 71
3
 72
8
 73
4
 74
0
 40
0
 40
0
 40
0
 40
0
 40
1
 40
1
 40
1
 40
1
 10
212.640000
 20
374.400000
 30
0.0
 10
210.880000
 20
372.320000
 30
0.0
 10
209.440000
 20
369.840000
 30
0.0
 10
209.440000
 20
368.960000
 30
0.0
  0
SPLINE
  5
1bb
100
AcDbEntity
  8
0
 62
7
100
AcDbSpline
 70
8
 71
3
 72
8
 73
4
 74
0
 40
0
 40
0
 40
0
 40
0
 40
1
 40
1
 40
1
 40
1
 10
209.440000
 20
368.960000
 30
0.0
 10
209.360000
 20
367.520000
 30
0.0
 10
206.880000
 20
363.200000
 30
0.0
 10
194.720000
 20
343.920000
 30
0.0
  0
SPLINE
  5
1bc
100
AcDbEntity
  8
0
 62
7
100
AcDbSpline
 70
8
 71
3
 72
8
 73
4
 74
0
 40
0
 40
0
 40
0
 40
0
 40
1
 40
1
 40
1
 40
1
 10
194.720000
 20
343.920000
 30
0.0
 10
192.240000
 20
339.920000
 30
0.0
 10
189.200000
 20
333.600000
 30
0.0
 10
188.000000
 20
329.840000
 30
0.0
  0
SPLINE
  5
1bd
100
AcDbEntity
  8
0
 62
7
100
AcDbSpline
 70
8
 71
3
 72
8
 73
4
 74
0
 40
0
 40
0
 40
0
 40
0
 40
1
 40
1
 40
1
 40
1
 10
188.000000
 20
329.840000
 30
0.0
 10
183.680000
 20
316.720000
 30
0.0
 10
181.840000
 20
312.400000
 30
0.0
 10
178.320000
 20
307.760000
 30
0.0
  0
LINE
  5
1be
100
AcDbEntity
  8
0
 62
7
100
AcDbLine
 10
178.320000
 20
307.760000
 30
0.0
 11
174.720000
 21
303.120000
 31
0.0
  0
LINE
  5
1bf
100
AcDbEntity
  8
0
 62
7
100
AcDbLine
 10
174.720000
 20
303.120000
 30
0.0
 11
172.000000
 21
304.240000
 31
0.0
  0
SPLINE
  5
1c0
100
AcDbEntity
  8
0
 62
7
100
AcDbSpline
 70
8
 71
3
 72
8
 73
4
 74
0
 40
0
 40
0
 40
0
 40
0
 40
1
 40
1
 40
1
 40
1
 10
172.000000
 20
304.240000
 30
0.0
 10
169.360000
 20
305.360000
 30
0.0
 10
169.280000
 20
305.360000
 30
0.0
 10
166.400000
 20
301.920000
 30
0.0
  0
SPLINE
  5
1c1
100
AcDbEntity
  8
0
 62
7
100
AcDbSpline
 70
8
 71
3
 72
8
 73
4
 74
0
 40
0
 40
0
 40
0
 40
0
 40
1
 40
1
 40
1
 40
1
 10
166.400000
 20
301.920000
 30
0.0
 10
164.800000
 20
300.000000
 30
0.0
 10
161.920000
 20
297.440000
 30
0.0
 10
160.080000
 20
296.160000
 30
0.0
  0
SPLINE
  5
1c2
100
AcDbEntity
  8
0
 62
7
100
AcDbSpline
 70
8
 71
3
 72
8
 73
4
 74
0
 40
0
 40
0
 40
0
 40
0
 40
1
 40
1
 40
1
 40
1
 10
160.080000
 20
296.160000
 30
0.0
 10
155.840000
 20
293.280000
 30
0.0
 10
147.680000
 20
284.320000
 30
0.0
 10
146.080000
 20
280.720000
 30
0.0
  0
SPLINE
  5
1c3
100
AcDbEntity
  8
0
 62
7
100
AcDbSpline
 70
8
 71
3
 72
8
 73
4
 74
0
 40
0
 40
0
 40
0
 40
0
 40
1
 40
1
 40
1
 40
1
 10
146.080000
 20
280.720000
 30
0.0
 10
145.440000
 20
279.280000
 30
0.0
 10
144.560000
 20
278.080000
 30
0.0
 10
144.080000
 20
278.080000
 30
0.0
  0
SPLINE
  5
1c4
100
AcDbEntity
  8
0
 62
7
100
AcDbSpline
 70
8
 71
3
 72
8
 73
4
 74
0
 40
0
 40
0
 40
0
 40
0
 40
1
 40
1
 40
1
 40
1
 10
144.080000
 20
278.080000
 30
0.0
 10
143.600000
 20
278.080000
 30
0.0
 10
142.560000
 20
279.440000
 30
0.0
 10
141.760000
 20
281.200000
 30
0.0
  0
SPLINE
  5
1c5
100
AcDbEntity
  8
0
 62
7
100
AcDbSpline
 70
8
 71
3
 72
8
 73
4
 74
0
 40
0
 40
0
 40
0
 40
0
 40
1
 40
1
 40
1
 40
1
 10
141.760000
 20
281.200000
 30
0.0
 10
140.880000
 20
282.880000
 30
0.0
 10
139.840000
 20
284.320000
 30
0.0
 10
139.360000
 20
284.320000
 30
0.0
  0
SPLINE
  5
1c6
100
AcDbEntity
  8
0
 62
7
100
AcDbSpline
 70
8
 71
3
 72
8
 73
4
 74
0
 40
0
 40
0
 40
0
 40
0
 40
1
 40
1
 40
1
 40
1
 10
139.360000
 20
284.320000
 30
0.0
 10
138.880000
 20
284.320000
 30
0.0
 10
137.200000
 20
281.920000
 30
0.0
 10
135.600000
 20
279.040000
 30
0.0
  0
SPLINE
  5
1c7
100
AcDbEntity
  8
0
 62
7
100
AcDbSpline
 70
8
 71
3
 72
8
 73
4
 74
0
 40
0
 40
0
 40
0
 40
0
 40
1
 40
1
 40
1
 40
1
 10
135.600000
 20
279.040000
 30
0.0
 10
134.080000
 20
276.160000
 30
0.0
 10
132.400000
 20
273.600000
 30
0.0
 10
132.000000
 20
273.360000
 30
0.0
  0
SPLINE
  5
1c8
100
AcDbEntity
  8
0
 62
7
100
AcDbSpline
 70
8
 71
3
 72
8
 73
4
 74
0
 40
0
 40
0
 40
0
 40
0
 40
1
 40
1
 40
1
 40
1
 10
132.000000
 20
273.360000
 30
0.0
 10
130.880000
 20
272.800000
 30
0.0
 10
128.080000
 20
268.160000
 30
0.0
 10
128.080000
 20
266.960000
 30
0.0
  0
SPLINE
  5
1c9
100
AcDbEntity
  8
0
 62
7
100
AcDbSpline
 70
8
 71
3
 72
8
 73
4
 74
0
 40
0
 40
0
 40
0
 40
0
 40
1
 40
1
 40
1
 40
1
 10
128.080000
 20
266.960000
 30
0.0
 10
128.080000
 20
266.400000
 30
0.0
 10
129.760000
 20
263.040000
 30
0.0
 10
131.920000
 20
259.600000
 30
0.0
  0
SPLINE
  5
1ca
100
AcDbEntity
  8
0
 62
7
100
AcDbSpline
 70
8
 71
3
 72
8
 73
4
 74
0
 40
0
 40
0
 40
0
 40
0
 40
1
 40
1
 40
1
 40
1
 10
131.920000
 20
259.600000
 30
0.0
 10
134.720000
 20
254.960000
 30
0.0
 10
136.080000
 20
251.440000
 30
0.0
 10
137.120000
 20
246.000000
 30
0.0
  0
SPLINE
  5
1cb
100
AcDbEntity
  8
0
 62
7
100
AcDbSpline
 70
8
 71
3
 72
8
 73
4
 74
0
 40
0
 40
0
 40
0
 40
0
 40
1
 40
1
 40
1
 40
1
 10
137.120000
 20
246.000000
 30
0.0
 10
137.920000
 20
241.920000
 30
0.0
 10
139.440000
 20
236.000000
 30
0.0
 10
140.480000
 20
232.800000
 30
0.0
  0
SPLINE
  5
1cc
100
AcDbEntity
  8
0
 62
7
100
AcDbSpline
 70
8
 71
3
 72
8
 73
4
 74
0
 40
0
 40
0
 40
0
 40
0
 40
1
 40
1
 40
1
 40
1
 10
140.480000
 20
232.800000
 30
0.0
 10
141.760000
 20
228.800000
 30
0.0
 10
142.400000
 20
224.480000
 30
0.0
 10
142.400000
 20
219.040000
 30
0.0
  0
SPLINE
  5
1cd
100
AcDbEntity
  8
0
 62
7
100
AcDbSpline
 70
8
 71
3
 72
8
 73
4
 74
0
 40
0
 40
0
 40
0
 40
0
 40
1
 40
1
 40
1
 40
1
 10
142.400000
 20
219.040000
 30
0.0
 10
142.400000
 20
214.400000
 30
0.0
 10
143.040000
 20
209.680000
 30
0.0
 10
143.840000
 20
207.360000
 30
0.0
  0
SPLINE
  5
1ce
100
AcDbEntity
  8
0
 62
7
100
AcDbSpline
 70
8
 71
3
 72
8
 73
4
 74
0
 40
0
 40
0
 40
0
 40
0
 40
1
 40
1
 40
1
 40
1
 10
143.840000
 20
207.360000
 30
0.0
 10
144.640000
 20
205.280000
 30
0.0
 10
145.280000
 20
201.360000
 30
0.0
 10
145.280000
 20
198.720000
 30
0.0
  0
SPLINE
  5
1cf
100
AcDbEntity
  8
0
 62
7
100
AcDbSpline
 70
8
 71
3
 72
8
 73
4
 74
0
 40
0
 40
0
 40
0
 40
0
 40
1
 40
1
 40
1
 40
1
 10
145.280000
 20
198.720000
 30
0.0
 10
145.280000
 20
194.800000
 30
0.0
 10
144.880000
 20
193.520000
 30
0.0
 10
143.120000
 20
191.760000
 30
0.0
  0
SPLINE
  5
1d0
100
AcDbEntity
  8
0
 62
7
100
AcDbSpline
 70
8
 71
3
 72
8
 73
4
 74
0
 40
0
 40
0
 40
0
 40
0
 40
1
 40
1
 40
1
 40
1
 10
143.120000
 20
191.760000
 30
0.0
 10
140.320000
 20
189.200000
 30
0.0
 10
135.120000
 20
187.600000
 30
0.0
 10
126.800000
 20
187.040000
 30
0.0
  0
SPLINE
  5
1d1
100
AcDbEntity
  8
0
 62
7
100
AcDbSpline
 70
8
 71
3
 72
8
 73
4
 74
0
 40
0
 40
0
 40
0
 40
0
 40
1
 40
1
 40
1
 40
1
 10
126.800000
 20
187.040000
 30
0.0
 10
120.640000
 20
186.560000
 30
0.0
 10
120.240000
 20
186.640000
 30
0.0
 10
117.440000
 20
188.800000
 30
0.0
  0
SPLINE
  5
1d2
100
AcDbEntity
  8
0
 62
7
100
AcDbSpline
 70
8
 71
3
 72
8
 73
4
 74
0
 40
0
 40
0
 40
0
 40
0
 40
1
 40
1
 40
1
 40
1
 10
117.440000
 20
188.800000
 30
0.0
 10
115.760000
 20
190.000000
 30
0.0
 10
114.080000
 20
191.840000
 30
0.0
 10
113.680000
 20
192.800000
 30
0.0
  0
SPLINE
  5
1d3
100
AcDbEntity
  8
0
 62
7
100
AcDbSpline
 70
8
 71
3
 72
8
 73
4
 74
0
 40
0
 40
0
 40
0
 40
0
 40
1
 40
1
 40
1
 40
1
 10
113.680000
 20
192.800000
 30
0.0
 10
112.480000
 20
195.280000
 30
0.0
 10
110.320000
 20
194.960000
 30
0.0
 10
108.880000
 20
192.160000
 30
0.0
  0
SPLINE
  5
1d4
100
AcDbEntity
  8
0
 62
7
100
AcDbSpline
 70
8
 71
3
 72
8
 73
4
 74
0
 40
0
 40
0
 40
0
 40
0
 40
1
 40
1
 40
1
 40
1
 10
108.880000
 20
192.160000
 30
0.0
 10
108.080000
 20
190.480000
 30
0.0
 10
106.320000
 20
189.200000
 30
0.0
 10
103.760000
 20
188.240000
 30
0.0
  0
SPLINE
  5
1d5
100
AcDbEntity
  8
0
 62
7
100
AcDbSpline
 70
8
 71
3
 72
8
 73
4
 74
0
 40
0
 40
0
 40
0
 40
0
 40
1
 40
1
 40
1
 40
1
 10
103.760000
 20
188.240000
 30
0.0
 10
99.120000
 20
186.560000
 30
0.0
 10
96.160000
 20
186.480000
 30
0.0
 10
92.000000
 20
187.920000
 30
0.0
  0
LINE
  5
1d6
100
AcDbEntity
  8
0
 62
7
100
AcDbLine
 10
92.000000
 20
187.920000
 30
0.0
 11
92.000000
 21
187.920000
 31
0.0
  0
SPLINE
  5
1d7
100
AcDbEntity
  8
0
 62
7
100
AcDbSpline
 70
8
 71
3
 72
8
 73
4
 74
0
 40
0
 40
0
 40
0
 40
0
 40
1
 40
1
 40
1
 40
1
 10
61.120000
 20
67.440000
 30
0.0
 10
64.320000
 20
66.400000
 30
0.0
 10
66.800000
 20
64.800000
 30
0.0
 10
68.400000
 20
62.640000
 30
0.0
  0
SPLINE
  5
1d8
100
AcDbEntity
  8
0
 62
7
100
AcDbSpline
 70
8
 71
3
 72
8
 73
4
 74
0
 40
0
 40
0
 40
0
 40
0
 40
1
 40
1
 40
1
 40
1
 10
68.400000
 20
62.640000
 30
0.0
 10
70.000000
 20
60.400000
 30
0.0
 10
70.800000
 20
57.840000
 30
0.0
 10
70.800000
 20
54.960000
 30
0.0
  0
SPLINE
  5
1d9
100
AcDbEntity
  8
0
 62
7
100
AcDbSpline
 70
8
 71
3
 72
8
 73
4
 74
0
 40
0
 40
0
 40
0
 40
0
 40
1
 40
1
 40
1
 40
1
 10
70.800000
 20
54.960000
 30
0.0
 10
70.800000
 20
52.080000
 30
0.0
 10
70.080000
 20
49.440000
 30
0.0
 10
68.560000
 20
47.040000
 30
0.0
  0
SPLINE
  5
1da
100
AcDbEntity
  8
0
 62
7
100
AcDbSpline
 70
8
 71
3
 72
8
 73
4
 74
0
 40
0
 40
0
 40
0
 40
0
 40
1
 40
1
 40
1
 40
1
 10
68.560000
 20
47.040000
 30
0.0
 10
67.120000
 20
44.640000
 30
0.0
 10
65.120000
 20
42.800000
 30
0.0
 10
62.400000
 20
41.680000
 30
0.0
  0
SPLINE
  5
1db
100
AcDbEntity
  8
0
 62
7
100
AcDbSpline
 70
8
 71
3
 72
8
 73
4
 74
0
 40
0
 40
0
 40
0
 40
0
 40
1
 40
1
 40
1
 40
1
 10
62.400000
 20
41.680000
 30
0.0
 10
59.760000
 20
40.560000
 30
0.0
 10
56.080000
 20
40.000000
 30
0.0
 10
51.520000
 20
40.000000
 30
0.0
  0
LINE
  5
1dc
100
AcDbEntity
  8
0
 62
7
100
AcDbLine
 10
51.520000
 20
40.000000
 30
0.0
 11
31.840000
 21
40.000000
 31
0.0
  0
LINE
  5
1dd
100
AcDbEntity
  8
0
 62
7
100
AcDbLine
 10
31.840000
 20
40.000000
 30
0.0
 11
31.840000
 21
91.520000
 31
0.0
  0
LINE
  5
1de
100
AcDbEntity
  8
0
 62
7
100
AcDbLine
 10
31.840000
 20
91.520000
 30
0.0
 11
51.200000
 21
91.520000
 31
0.0
  0
SPLINE
  5
1df
100
AcDbEntity
  8
0
 62
7
100
AcDbSpline
 70
8
 71
3
 72
8
 73
4
 74
0
 40
0
 40
0
 40
0
 40
0
 40
1
 40
1
 40
1
 40
1
 10
51.200000
 20
91.520000
 30
0.0
 10
57.440000
 20
91.520000
 30
0.0
 10
61.840000
 20
90.160000
 30
0.0
 10
64.400000
 20
87.440000
 30
0.0
  0
SPLINE
  5
1e0
100
AcDbEntity
  8
0
 62
7
100
AcDbSpline
 70
8
 71
3
 72
8
 73
4
 74
0
 40
0
 40
0
 40
0
 40
0
 40
1
 40
1
 40
1
 40
1
 10
64.400000
 20
87.440000
 30
0.0
 10
66.960000
 20
84.720000
 30
0.0
 10
68.240000
 20
81.680000
 30
0.0
 10
68.240000
 20
78.400000
 30
0.0
  0
SPLINE
  5
1e1
100
AcDbEntity
  8
0
 62
7
100
AcDbSpline
 70
8
 71
3
 72
8
 73
4
 74
0
 40
0
 40
0
 40
0
 40
0
 40
1
 40
1
 40
1
 40
1
 10
68.240000
 20
78.400000
 30
0.0
 10
68.240000
 20
76.160000
 30
0.0
 10
67.680000
 20
74.080000
 30
0.0
 10
66.480000
 20
72.160000
 30
0.0
  0
SPLINE
  5
1e2
100
AcDbEntity
  8
0
 62
7
100
AcDbSpline
 70
8
 71
3
 72
8
 73
4
 74
0
 40
0
 40
0
 40
0
 40
0
 40
1
 40
1
 40
1
 40
1
 10
66.480000
 20
72.160000
 30
0.0
 10
65.280000
 20
70.240000
 30
0.0
 10
63.520000
 20
68.640000
 30
0.0
 10
61.120000
 20
67.440000
 30
0.0
  0
LINE
  5
1e3
100
AcDbEntity
  8
0
 62
7
100
AcDbLine
 10
61.120000
 20
67.440000
 30
0.0
 11
61.120000
 21
67.440000
 31
0.0
  0
LINE
  5
1e4
100
AcDbEntity
  8
0
 62
7
100
AcDbLine
 10
38.640000
 20
69.920000
 30
0.0
 11
49.840000
 21
69.920000
 31
0.0
  0
SPLINE
  5
1e5
100
AcDbEntity
  8
0
 62
7
100
AcDbSpline
 70
8
 71
3
 72
8
 73
4
 74
0
 40
0
 40
0
 40
0
 40
0
 40
1
 40
1
 40
1
 40
1
 10
49.840000
 20
69.920000
 30
0.0
 10
52.160000
 20
69.920000
 30
0.0
 10
54.080000
 20
70.080000
 30
0.0
 10
55.600000
 20
70.320000
 30
0.0
  0
SPLINE
  5
1e6
100
AcDbEntity
  8
0
 62
7
100
AcDbSpline
 70
8
 71
3
 72
8
 73
4
 74
0
 40
0
 40
0
 40
0
 40
0
 40
1
 40
1
 40
1
 40
1
 10
55.600000
 20
70.320000
 30
0.0
 10
57.200000
 20
70.560000
 30
0.0
 10
58.560000
 20
71.280000
 30
0.0
 10
59.760000
 20
72.400000
 30
0.0
  0
SPLINE
  5
1e7
100
AcDbEntity
  8
0
 62
7
100
AcDbSpline
 70
8
 71
3
 72
8
 73
4
 74
0
 40
0
 40
0
 40
0
 40
0
 40
1
 40
1
 40
1
 40
1
 10
59.760000
 20
72.400000
 30
0.0
 10
60.960000
 20
73.440000
 30
0.0
 10
61.520000
 20
75.200000
 30
0.0
 10
61.520000
 20
77.520000
 30
0.0
  0
SPLINE
  5
1e8
100
AcDbEntity
  8
0
 62
7
100
AcDbSpline
 70
8
 71
3
 72
8
 73
4
 74
0
 40
0
 40
0
 40
0
 40
0
 40
1
 40
1
 40
1
 40
1
 10
61.520000
 20
77.520000
 30
0.0
 10
61.520000
 20
79.920000
 30
0.0
 10
60.960000
 20
81.760000
 30
0.0
 10
59.760000
 20
82.880000
 30
0.0
  0
SPLINE
  5
1e9
100
AcDbEntity
  8
0
 62
7
100
AcDbSpline
 70
8
 71
3
 72
8
 73
4
 74
0
 40
0
 40
0
 40
0
 40
0
 40
1
 40
1
 40
1
 40
1
 10
59.760000
 20
82.880000
 30
0.0
 10
58.480000
 20
84.080000
 30
0.0
 10
57.040000
 20
84.800000
 30
0.0
 10
55.360000
 20
85.040000
 30
0.0
  0
SPLINE
  5
1ea
100
AcDbEntity
  8
0
 62
7
100
AcDbSpline
 70
8
 71
3
 72
8
 73
4
 74
0
 40
0
 40
0
 40
0
 40
0
 40
1
 40
1
 40
1
 40
1
 10
55.360000
 20
85.040000
 30
0.0
 10
53.760000
 20
85.280000
 30
0.0
 10
51.600000
 20
85.440000
 30
0.0
 10
48.960000
 20
85.440000
 30
0.0
  0
LINE
  5
1eb
100
AcDbEntity
  8
0
 62
7
100
AcDbLine
 10
48.960000
 20
85.440000
 30
0.0
 11
38.640000
 21
85.440000
 31
0.0
  0
LINE
  5
1ec
100
AcDbEntity
  8
0
 62
7
100
AcDbLine
 10
38.640000
 20
85.440000
 30
0.0
 11
38.640000
 21
69.920000
 31
0.0
  0
LINE
  5
1ed
100
AcDbEntity
  8
0
 62
7
100
AcDbLine
 10
38.640000
 20
69.920000
 30
0.0
 11
38.640000
 21
69.920000
 31
0.0
  0
LINE
  5
1ee
100
AcDbEntity
  8
0
 62
7
100
AcDbLine
 10
38.640000
 20
46.080000
 30
0.0
 11
51.440000
 21
46.080000
 31
0.0
  0
SPLINE
  5
1ef
100
AcDbEntity
  8
0
 62
7
100
AcDbSpline
 70
8
 71
3
 72
8
 73
4
 74
0
 40
0
 40
0
 40
0
 40
0
 40
1
 40
1
 40
1
 40
1
 10
51.440000
 20
46.080000
 30
0.0
 10
56.080000
 20
46.080000
 30
0.0
 10
59.280000
 20
46.880000
 30
0.0
 10
61.040000
 20
48.480000
 30
0.0
  0
SPLINE
  5
1f0
100
AcDbEntity
  8
0
 62
7
100
AcDbSpline
 70
8
 71
3
 72
8
 73
4
 74
0
 40
0
 40
0
 40
0
 40
0
 40
1
 40
1
 40
1
 40
1
 10
61.040000
 20
48.480000
 30
0.0
 10
62.800000
 20
50.000000
 30
0.0
 10
63.680000
 20
52.160000
 30
0.0
 10
63.680000
 20
54.960000
 30
0.0
  0
SPLINE
  5
1f1
100
AcDbEntity
  8
0
 62
7
100
AcDbSpline
 70
8
 71
3
 72
8
 73
4
 74
0
 40
0
 40
0
 40
0
 40
0
 40
1
 40
1
 40
1
 40
1
 10
63.680000
 20
54.960000
 30
0.0
 10
63.680000
 20
57.760000
 30
0.0
 10
62.800000
 20
59.920000
 30
0.0
 10
60.880000
 20
61.520000
 30
0.0
  0
SPLINE
  5
1f2
100
AcDbEntity
  8
0
 62
7
100
AcDbSpline
 70
8
 71
3
 72
8
 73
4
 74
0
 40
0
 40
0
 40
0
 40
0
 40
1
 40
1
 40
1
 40
1
 10
60.880000
 20
61.520000
 30
0.0
 10
58.960000
 20
63.040000
 30
0.0
 10
55.520000
 20
63.840000
 30
0.0
 10
50.560000
 20
63.840000
 30
0.0
  0
LINE
  5
1f3
100
AcDbEntity
  8
0
 62
7
100
AcDbLine
 10
50.560000
 20
63.840000
 30
0.0
 11
38.640000
 21
63.840000
 31
0.0
  0
LINE
  5
1f4
100
AcDbEntity
  8
0
 62
7
100
AcDbLine
 10
38.640000
 20
63.840000
 30
0.0
 11
38.640000
 21
46.080000
 31
0.0
  0
LINE
  5
1f5
100
AcDbEntity
  8
0
 62
7
100
AcDbLine
 10
38.640000
 20
46.080000
 30
0.0
 11
38.640000
 21
46.080000
 31
0.0
  0
LINE
  5
1f6
100
AcDbEntity
  8
0
 62
7
100
AcDbLine
 10
85.680000
 20
40.000000
 30
0.0
 11
79.360000
 21
40.000000
 31
0.0
  0
LINE
  5
1f7
100
AcDbEntity
  8
0
 62
7
100
AcDbLine
 10
79.360000
 20
40.000000
 30
0.0
 11
79.360000
 21
77.280000
 31
0.0
  0
LINE
  5
1f8
100
AcDbEntity
  8
0
 62
7
100
AcDbLine
 10
79.360000
 20
77.280000
 30
0.0
 11
85.680000
 21
77.280000
 31
0.0
  0
LINE
  5
1f9
100
AcDbEntity
  8
0
 62
7
100
AcDbLine
 10
85.680000
 20
77.280000
 30
0.0
 11
85.680000
 21
40.000000
 31
0.0
  0
LINE
  5
1fa
100
AcDbEntity
  8
0
 62
7
100
AcDbLine
 10
85.680000
 20
40.000000
 30
0.0
 11
85.680000
 21
40.000000
 31
0.0
  0
LINE
  5
1fb
100
AcDbEntity
  8
0
 62
7
100
AcDbLine
 10
85.680000
 20
84.320000
 30
0.0
 11
79.360000
 21
84.320000
 31
0.0
  0
LINE
  5
1fc
100
AcDbEntity
  8
0
 62
7
100
AcDbLine
 10
79.360000
 20
84.320000
 30
0.0
 11
79.360000
 21
91.520000
 31
0.0
  0
LINE
  5
1fd
100
AcDbEntity
  8
0
 62
7
100
AcDbLine
 10
79.360000
 20
91.520000
 30
0.0
 11
85.680000
 21
91.520000
 31
0.0
  0
LINE
  5
1fe
100
AcDbEntity
  8
0
 62
7
100
AcDbLine
 10
85.680000
 20
91.520000
 30
0.0
 11
85.680000
 21
84.320000
 31
0.0
  0
LINE
  5
1ff
100
AcDbEntity
  8
0
 62
7
100
AcDbLine
 10
85.680000
 20
84.320000
 30
0.0
 11
85.680000
 21
84.320000
 31
0.0
  0
SPLINE
  5
200
100
AcDbEntity
  8
0
 62
7
100
AcDbSpline
 70
8
 71
3
 72
8
 73
4
 74
0
 40
0
 40
0
 40
0
 40
0
 40
1
 40
1
 40
1
 40
1
 10
116.160000
 20
66.880000
 30
0.0
 10
115.840000
 20
68.880000
 30
0.0
 10
115.040000
 20
70.400000
 30
0.0
 10
113.680000
 20
71.440000
 30
0.0
  0
SPLINE
  5
201
100
AcDbEntity
  8
0
 62
7
100
AcDbSpline
 70
8
 71
3
 72
8
 73
4
 74
0
 40
0
 40
0
 40
0
 40
0
 40
1
 40
1
 40
1
 40
1
 10
113.680000
 20
71.440000
 30
0.0
 10
112.320000
 20
72.480000
 30
0.0
 10
110.400000
 20
72.960000
 30
0.0
 10
107.920000
 20
72.960000
 30
0.0
  0
SPLINE
  5
202
100
AcDbEntity
  8
0
 62
7
100
AcDbSpline
 70
8
 71
3
 72
8
 73
4
 74
0
 40
0
 40
0
 40
0
 40
0
 40
1
 40
1
 40
1
 40
1
 10
107.920000
 20
72.960000
 30
0.0
 10
105.520000
 20
72.960000
 30
0.0
 10
103.600000
 20
72.560000
 30
0.0
 10
102.080000
 20
71.760000
 30
0.0
  0
SPLINE
  5
203
100
AcDbEntity
  8
0
 62
7
100
AcDbSpline
 70
8
 71
3
 72
8
 73
4
 74
0
 40
0
 40
0
 40
0
 40
0
 40
1
 40
1
 40
1
 40
1
 10
102.080000
 20
71.760000
 30
0.0
 10
100.560000
 20
70.880000
 30
0.0
 10
99.840000
 20
69.680000
 30
0.0
 10
99.840000
 20
68.160000
 30
0.0
  0
SPLINE
  5
204
100
AcDbEntity
  8
0
 62
7
100
AcDbSpline
 70
8
 71
3
 72
8
 73
4
 74
0
 40
0
 40
0
 40
0
 40
0
 40
1
 40
1
 40
1
 40
1
 10
99.840000
 20
68.160000
 30
0.0
 10
99.840000
 20
66.640000
 30
0.0
 10
100.480000
 20
65.600000
 30
0.0
 10
101.600000
 20
64.960000
 30
0.0
  0
SPLINE
  5
205
100
AcDbEntity
  8
0
 62
7
100
AcDbSpline
 70
8
 71
3
 72
8
 73
4
 74
0
 40
0
 40
0
 40
0
 40
0
 40
1
 40
1
 40
1
 40
1
 10
101.600000
 20
64.960000
 30
0.0
 10
102.800000
 20
64.320000
 30
0.0
 10
105.120000
 20
63.600000
 30
0.0
 10
108.640000
 20
62.640000
 30
0.0
  0
SPLINE
  5
206
100
AcDbEntity
  8
0
 62
7
100
AcDbSpline
 70
8
 71
3
 72
8
 73
4
 74
0
 40
0
 40
0
 40
0
 40
0
 40
1
 40
1
 40
1
 40
1
 10
108.640000
 20
62.640000
 30
0.0
 10
112.560000
 20
61.680000
 30
0.0
 10
115.520000
 20
60.800000
 30
0.0
 10
117.520000
 20
60.000000
 30
0.0
  0
SPLINE
  5
207
100
AcDbEntity
  8
0
 62
7
100
AcDbSpline
 70
8
 71
3
 72
8
 73
4
 74
0
 40
0
 40
0
 40
0
 40
0
 40
1
 40
1
 40
1
 40
1
 10
117.520000
 20
60.000000
 30
0.0
 10
119.440000
 20
59.200000
 30
0.0
 10
120.960000
 20
58.160000
 30
0.0
 10
122.080000
 20
56.720000
 30
0.0
  0
SPLINE
  5
208
100
AcDbEntity
  8
0
 62
7
100
AcDbSpline
 70
8
 71
3
 72
8
 73
4
 74
0
 40
0
 40
0
 40
0
 40
0
 40
1
 40
1
 40
1
 40
1
 10
122.080000
 20
56.720000
 30
0.0
 10
123.120000
 20
55.360000
 30
0.0
 10
123.680000
 20
53.440000
 30
0.0
 10
123.680000
 20
50.880000
 30
0.0
  0
SPLINE
  5
209
100
AcDbEntity
  8
0
 62
7
100
AcDbSpline
 70
8
 71
3
 72
8
 73
4
 74
0
 40
0
 40
0
 40
0
 40
0
 40
1
 40
1
 40
1
 40
1
 10
123.680000
 20
50.880000
 30
0.0
 10
123.680000
 20
47.600000
 30
0.0
 10
122.320000
 20
44.800000
 30
0.0
 10
119.600000
 20
42.480000
 30
0.0
  0
SPLINE
  5
20a
100
AcDbEntity
  8
0
 62
7
100
AcDbSpline
 70
8
 71
3
 72
8
 73
4
 74
0
 40
0
 40
0
 40
0
 40
0
 40
1
 40
1
 40
1
 40
1
 10
119.600000
 20
42.480000
 30
0.0
 10
116.880000
 20
40.240000
 30
0.0
 10
113.280000
 20
39.120000
 30
0.0
 10
108.720000
 20
39.120000
 30
0.0
  0
SPLINE
  5
20b
100
AcDbEntity
  8
0
 62
7
100
AcDbSpline
 70
8
 71
3
 72
8
 73
4
 74
0
 40
0
 40
0
 40
0
 40
0
 40
1
 40
1
 40
1
 40
1
 10
108.720000
 20
39.120000
 30
0.0
 10
104.000000
 20
39.120000
 30
0.0
 10
100.320000
 20
40.080000
 30
0.0
 10
97.600000
 20
42.080000
 30
0.0
  0
SPLINE
  5
20c
100
AcDbEntity
  8
0
 62
7
100
AcDbSpline
 70
8
 71
3
 72
8
 73
4
 74
0
 40
0
 40
0
 40
0
 40
0
 40
1
 40
1
 40
1
 40
1
 10
97.600000
 20
42.080000
 30
0.0
 10
94.960000
 20
44.080000
 30
0.0
 10
93.360000
 20
47.120000
 30
0.0
 10
92.720000
 20
51.120000
 30
0.0
  0
LINE
  5
20d
100
AcDbEntity
  8
0
 62
7
100
AcDbLine
 10
92.720000
 20
51.120000
 30
0.0
 11
99.040000
 21
52.080000
 31
0.0
  0
SPLINE
  5
20e
100
AcDbEntity
  8
0
 62
7
100
AcDbSpline
 70
8
 71
3
 72
8
 73
4
 74
0
 40
0
 40
0
 40
0
 40
0
 40
1
 40
1
 40
1
 40
1
 10
99.040000
 20
52.080000
 30
0.0
 10
99.360000
 20
49.440000
 30
0.0
 10
100.320000
 20
47.520000
 30
0.0
 10
101.920000
 20
46.240000
 30
0.0
  0
SPLINE
  5
20f
100
AcDbEntity
  8
0
 62
7
100
AcDbSpline
 70
8
 71
3
 72
8
 73
4
 74
0
 40
0
 40
0
 40
0
 40
0
 40
1
 40
1
 40
1
 40
1
 10
101.920000
 20
46.240000
 30
0.0
 10
103.520000
 20
44.960000
 30
0.0
 10
105.760000
 20
44.320000
 30
0.0
 10
108.640000
 20
44.320000
 30
0.0
  0
SPLINE
  5
210
100
AcDbEntity
  8
0
 62
7
100
AcDbSpline
 70
8
 71
3
 72
8
 73
4
 74
0
 40
0
 40
0
 40
0
 40
0
 40
1
 40
1
 40
1
 40
1
 10
108.640000
 20
44.320000
 30
0.0
 10
111.440000
 20
44.320000
 30
0.0
 10
113.520000
 20
44.880000
 30
0.0
 10
115.040000
 20
46.080000
 30
0.0
  0
SPLINE
  5
211
100
AcDbEntity
  8
0
 62
7
100
AcDbSpline
 70
8
 71
3
 72
8
 73
4
 74
0
 40
0
 40
0
 40
0
 40
0
 40
1
 40
1
 40
1
 40
1
 10
115.040000
 20
46.080000
 30
0.0
 10
116.480000
 20
47.200000
 30
0.0
 10
117.200000
 20
48.640000
 30
0.0
 10
117.200000
 20
50.320000
 30
0.0
  0
SPLINE
  5
212
100
AcDbEntity
  8
0
 62
7
100
AcDbSpline
 70
8
 71
3
 72
8
 73
4
 74
0
 40
0
 40
0
 40
0
 40
0
 40
1
 40
1
 40
1
 40
1
 10
117.200000
 20
50.320000
 30
0.0
 10
117.200000
 20
51.440000
 30
0.0
 10
116.880000
 20
52.320000
 30
0.0
 10
116.160000
 20
52.960000
 30
0.0
  0
SPLINE
  5
213
100
AcDbEntity
  8
0
 62
7
100
AcDbSpline
 70
8
 71
3
 72
8
 73
4
 74
0
 40
0
 40
0
 40
0
 40
0
 40
1
 40
1
 40
1
 40
1
 10
116.160000
 20
52.960000
 30
0.0
 10
115.520000
 20
53.680000
 30
0.0
 10
114.640000
 20
54.160000
 30
0.0
 10
113.680000
 20
54.560000
 30
0.0
  0
SPLINE
  5
214
100
AcDbEntity
  8
0
 62
7
100
AcDbSpline
 70
8
 71
3
 72
8
 73
4
 74
0
 40
0
 40
0
 40
0
 40
0
 40
1
 40
1
 40
1
 40
1
 10
113.680000
 20
54.560000
 30
0.0
 10
112.640000
 20
54.880000
 30
0.0
 10
110.320000
 20
55.440000
 30
0.0
 10
106.800000
 20
56.320000
 30
0.0
  0
SPLINE
  5
215
100
AcDbEntity
  8
0
 62
7
100
AcDbSpline
 70
8
 71
3
 72
8
 73
4
 74
0
 40
0
 40
0
 40
0
 40
0
 40
1
 40
1
 40
1
 40
1
 10
106.800000
 20
56.320000
 30
0.0
 10
101.520000
 20
57.600000
 30
0.0
 10
98.000000
 20
59.120000
 30
0.0
 10
96.320000
 20
60.960000
 30
0.0
  0
SPLINE
  5
216
100
AcDbEntity
  8
0
 62
7
100
AcDbSpline
 70
8
 71
3
 72
8
 73
4
 74
0
 40
0
 40
0
 40
0
 40
0
 40
1
 40
1
 40
1
 40
1
 10
96.320000
 20
60.960000
 30
0.0
 10
94.560000
 20
62.720000
 30
0.0
 10
93.760000
 20
64.880000
 30
0.0
 10
93.760000
 20
67.440000
 30
0.0
  0
SPLINE
  5
217
100
AcDbEntity
  8
0
 62
7
100
AcDbSpline
 70
8
 71
3
 72
8
 73
4
 74
0
 40
0
 40
0
 40
0
 40
0
 40
1
 40
1
 40
1
 40
1
 10
93.760000
 20
67.440000
 30
0.0
 10
93.760000
 20
70.560000
 30
0.0
 10
94.960000
 20
73.120000
 30
0.0
 10
97.440000
 20
75.120000
 30
0.0
  0
SPLINE
  5
218
100
AcDbEntity
  8
0
 62
7
100
AcDbSpline
 70
8
 71
3
 72
8
 73
4
 74
0
 40
0
 40
0
 40
0
 40
0
 40
1
 40
1
 40
1
 40
1
 10
97.440000
 20
75.120000
 30
0.0
 10
99.920000
 20
77.120000
 30
0.0
 10
103.280000
 20
78.160000
 30
0.0
 10
107.520000
 20
78.160000
 30
0.0
  0
SPLINE
  5
219
100
AcDbEntity
  8
0
 62
7
100
AcDbSpline
 70
8
 71
3
 72
8
 73
4
 74
0
 40
0
 40
0
 40
0
 40
0
 40
1
 40
1
 40
1
 40
1
 10
107.520000
 20
78.160000
 30
0.0
 10
111.920000
 20
78.160000
 30
0.0
 10
115.360000
 20
77.280000
 30
0.0
 10
117.840000
 20
75.520000
 30
0.0
  0
SPLINE
  5
21a
100
AcDbEntity
  8
0
 62
7
100
AcDbSpline
 70
8
 71
3
 72
8
 73
4
 74
0
 40
0
 40
0
 40
0
 40
0
 40
1
 40
1
 40
1
 40
1
 10
117.840000
 20
75.520000
 30
0.0
 10
120.320000
 20
73.760000
 30
0.0
 10
121.840000
 20
71.120000
 30
0.0
 10
122.320000
 20
67.680000
 30
0.0
  0
LINE
  5
21b
100
AcDbEntity
  8
0
 62
7
100
AcDbLine
 10
122.320000
 20
67.680000
 30
0.0
 11
116.160000
 21
66.880000
 31
0.0
  0
LINE
  5
21c
100
AcDbEntity
  8
0
 62
7
100
AcDbLine
 10
116.160000
 20
66.880000
 30
0.0
 11
116.160000
 21
66.880000
 31
0.0
  0
SPLINE
  5
21d
100
AcDbEntity
  8
0
 62
7
100
AcDbSpline
 70
8
 71
3
 72
8
 73
4
 74
0
 40
0
 40
0
 40
0
 40
0
 40
1
 40
1
 40
1
 40
1
 10
145.840000
 20
40.080000
 30
0.0
 10
144.000000
 20
39.680000
 30
0.0
 10
142.400000
 20
39.520000
 30
0.0
 10
141.120000
 20
39.520000
 30
0.0
  0
SPLINE
  5
21e
100
AcDbEntity
  8
0
 62
7
100
AcDbSpline
 70
8
 71
3
 72
8
 73
4
 74
0
 40
0
 40
0
 40
0
 40
0
 40
1
 40
1
 40
1
 40
1
 10
141.120000
 20
39.520000
 30
0.0
 10
138.400000
 20
39.520000
 30
0.0
 10
136.320000
 20
40.000000
 30
0.0
 10
135.040000
 20
40.960000
 30
0.0
  0
SPLINE
  5
21f
100
AcDbEntity
  8
0
 62
7
100
AcDbSpline
 70
8
 71
3
 72
8
 73
4
 74
0
 40
0
 40
0
 40
0
 40
0
 40
1
 40
1
 40
1
 40
1
 10
135.040000
 20
40.960000
 30
0.0
 10
133.840000
 20
41.920000
 30
0.0
 10
133.040000
 20
43.120000
 30
0.0
 10
132.720000
 20
44.640000
 30
0.0
  0
SPLINE
  5
220
100
AcDbEntity
  8
0
 62
7
100
AcDbSpline
 70
8
 71
3
 72
8
 73
4
 74
0
 40
0
 40
0
 40
0
 40
0
 40
1
 40
1
 40
1
 40
1
 10
132.720000
 20
44.640000
 30
0.0
 10
132.480000
 20
46.160000
 30
0.0
 10
132.320000
 20
48.240000
 30
0.0
 10
132.320000
 20
50.880000
 30
0.0
  0
LINE
  5
221
100
AcDbEntity
  8
0
 62
7
100
AcDbLine
 10
132.320000
 20
50.880000
 30
0.0
 11
132.320000
 21
72.400000
 31
0.0
  0
LINE
  5
222
100
AcDbEntity
  8
0
 62
7
100
AcDbLine
 10
132.320000
 20
72.400000
 30
0.0
 11
127.760000
 21
72.400000
 31
0.0
  0
LINE
  5
223
100
AcDbEntity
  8
0
 62
7
100
AcDbLine
 10
127.760000
 20
72.400000
 30
0.0
 11
127.760000
 21
77.280000
 31
0.0
  0
LINE
  5
224
100
AcDbEntity
  8
0
 62
7
100
AcDbLine
 10
127.760000
 20
77.280000
 30
0.0
 11
132.320000
 21
77.280000
 31
0.0
  0
LINE
  5
225
100
AcDbEntity
  8
0
 62
7
100
AcDbLine
 10
132.320000
 20
77.280000
 30
0.0
 11
132.320000
 21
86.560000
 31
0.0
  0
LINE
  5
226
100
AcDbEntity
  8
0
 62
7
100
AcDbLine
 10
132.320000
 20
86.560000
 30
0.0
 11
138.640000
 21
90.400000
 31
0.0
  0
LINE
  5
227
100
AcDbEntity
  8
0
 62
7
100
AcDbLine
 10
138.640000
 20
90.400000
 30
0.0
 11
138.640000
 21
77.280000
 31
0.0
  0
LINE
  5
228
100
AcDbEntity
  8
0
 62
7
100
AcDbLine
 10
138.640000
 20
77.280000
 30
0.0
 11
144.960000
 21
77.280000
 31
0.0
  0
LINE
  5
229
100
AcDbEntity
  8
0
 62
7
100
AcDbLine
 10
144.960000
 20
77.280000
 30
0.0
 11
144.960000
 21
72.400000
 31
0.0
  0
LINE
  5
22a
100
AcDbEntity
  8
0
 62
7
100
AcDbLine
 10
144.960000
 20
72.400000
 30
0.0
 11
138.640000
 21
72.400000
 31
0.0
  0
LINE
  5
22b
100
AcDbEntity
  8
0
 62
7
100
AcDbLine
 10
138.640000
 20
72.400000
 30
0.0
 11
138.640000
 21
50.560000
 31
0.0
  0
SPLINE
  5
22c
100
AcDbEntity
  8
0
 62
7
100
AcDbSpline
 70
8
 71
3
 72
8
 73
4
 74
0
 40
0
 40
0
 40
0
 40
0
 40
1
 40
1
 40
1
 40
1
 10
138.640000
 20
50.560000
 30
0.0
 10
138.640000
 20
48.720000
 30
0.0
 10
138.880000
 20
47.360000
 30
0.0
 10
139.280000
 20
46.560000
 30
0.0
  0
SPLINE
  5
22d
100
AcDbEntity
  8
0
 62
7
100
AcDbSpline
 70
8
 71
3
 72
8
 73
4
 74
0
 40
0
 40
0
 40
0
 40
0
 40
1
 40
1
 40
1
 40
1
 10
139.280000
 20
46.560000
 30
0.0
 10
139.600000
 20
45.760000
 30
0.0
 10
140.640000
 20
45.360000
 30
0.0
 10
142.160000
 20
45.360000
 30
0.0
  0
SPLINE
  5
22e
100
AcDbEntity
  8
0
 62
7
100
AcDbSpline
 70
8
 71
3
 72
8
 73
4
 74
0
 40
0
 40
0
 40
0
 40
0
 40
1
 40
1
 40
1
 40
1
 10
142.160000
 20
45.360000
 30
0.0
 10
143.120000
 20
45.360000
 30
0.0
 10
144.000000
 20
45.520000
 30
0.0
 10
144.960000
 20
45.680000
 30
0.0
  0
LINE
  5
22f
100
AcDbEntity
  8
0
 62
7
100
AcDbLine
 10
144.960000
 20
45.680000
 30
0.0
 11
145.840000
 21
40.080000
 31
0.0
  0
LINE
  5
230
100
AcDbEntity
  8
0
 62
7
100
AcDbLine
 10
145.840000
 20
40.080000
 30
0.0
 11
145.840000
 21
40.080000
 31
0.0
  0
SPLINE
  5
231
100
AcDbEntity
  8
0
 62
7
100
AcDbSpline
 70
8
 71
3
 72
8
 73
4
 74
0
 40
0
 40
0
 40
0
 40
0
 40
1
 40
1
 40
1
 40
1
 10
166.480000
 20
78.160000
 30
0.0
 10
171.520000
 20
78.160000
 30
0.0
 10
175.760000
 20
76.480000
 30
0.0
 10
179.040000
 20
73.200000
 30
0.0
  0
SPLINE
  5
232
100
AcDbEntity
  8
0
 62
7
100
AcDbSpline
 70
8
 71
3
 72
8
 73
4
 74
0
 40
0
 40
0
 40
0
 40
0
 40
1
 40
1
 40
1
 40
1
 10
179.040000
 20
73.200000
 30
0.0
 10
182.320000
 20
69.920000
 30
0.0
 10
184.000000
 20
65.280000
 30
0.0
 10
184.000000
 20
59.200000
 30
0.0
  0
SPLINE
  5
233
100
AcDbEntity
  8
0
 62
7
100
AcDbSpline
 70
8
 71
3
 72
8
 73
4
 74
0
 40
0
 40
0
 40
0
 40
0
 40
1
 40
1
 40
1
 40
1
 10
184.000000
 20
59.200000
 30
0.0
 10
184.000000
 20
51.840000
 30
0.0
 10
182.240000
 20
46.720000
 30
0.0
 10
178.640000
 20
43.680000
 30
0.0
  0
SPLINE
  5
234
100
AcDbEntity
  8
0
 62
7
100
AcDbSpline
 70
8
 71
3
 72
8
 73
4
 74
0
 40
0
 40
0
 40
0
 40
0
 40
1
 40
1
 40
1
 40
1
 10
178.640000
 20
43.680000
 30
0.0
 10
175.040000
 20
40.640000
 30
0.0
 10
171.040000
 20
39.120000
 30
0.0
 10
166.480000
 20
39.120000
 30
0.0
  0
SPLINE
  5
235
100
AcDbEntity
  8
0
 62
7
100
AcDbSpline
 70
8
 71
3
 72
8
 73
4
 74
0
 40
0
 40
0
 40
0
 40
0
 40
1
 40
1
 40
1
 40
1
 10
166.480000
 20
39.120000
 30
0.0
 10
161.760000
 20
39.120000
 30
0.0
 10
157.680000
 20
40.640000
 30
0.0
 10
154.240000
 20
43.760000
 30
0.0
  0
SPLINE
  5
236
100
AcDbEntity
  8
0
 62
7
100
AcDbSpline
 70
8
 71
3
 72
8
 73
4
 74
0
 40
0
 40
0
 40
0
 40
0
 40
1
 40
1
 40
1
 40
1
 10
154.240000
 20
43.760000
 30
0.0
 10
150.800000
 20
46.880000
 30
0.0
 10
149.040000
 20
51.840000
 30
0.0
 10
149.040000
 20
58.640000
 30
0.0
  0
SPLINE
  5
237
100
AcDbEntity
  8
0
 62
7
100
AcDbSpline
 70
8
 71
3
 72
8
 73
4
 74
0
 40
0
 40
0
 40
0
 40
0
 40
1
 40
1
 40
1
 40
1
 10
149.040000
 20
58.640000
 30
0.0
 10
149.040000
 20
65.200000
 30
0.0
 10
150.720000
 20
70.080000
 30
0.0
 10
154.080000
 20
73.280000
 30
0.0
  0
SPLINE
  5
238
100
AcDbEntity
  8
0
 62
7
100
AcDbSpline
 70
8
 71
3
 72
8
 73
4
 74
0
 40
0
 40
0
 40
0
 40
0
 40
1
 40
1
 40
1
 40
1
 10
154.080000
 20
73.280000
 30
0.0
 10
157.440000
 20
76.480000
 30
0.0
 10
161.600000
 20
78.160000
 30
0.0
 10
166.480000
 20
78.160000
 30
0.0
  0
LINE
  5
239
100
AcDbEntity
  8
0
 62
7
100
AcDbLine
 10
166.480000
 20
78.160000
 30
0.0
 11
166.480000
 21
78.160000
 31
0.0
  0
SPLINE
  5
23a
100
AcDbEntity
  8
0
 62
7
100
AcDbSpline
 70
8
 71
3
 72
8
 73
4
 74
0
 40
0
 40
0
 40
0
 40
0
 40
1
 40
1
 40
1
 40
1
 10
166.480000
 20
44.320000
 30
0.0
 10
170.080000
 20
44.320000
 30
0.0
 10
172.880000
 20
45.680000
 30
0.0
 10
174.720000
 20
48.320000
 30
0.0
  0
SPLINE
  5
23b
100
AcDbEntity
  8
0
 62
7
100
AcDbSpline
 70
8
 71
3
 72
8
 73
4
 74
0
 40
0
 40
0
 40
0
 40
0
 40
1
 40
1
 40
1
 40
1
 10
174.720000
 20
48.320000
 30
0.0
 10
176.640000
 20
50.960000
 30
0.0
 10
177.520000
 20
54.480000
 30
0.0
 10
177.520000
 20
58.880000
 30
0.0
  0
SPLINE
  5
23c
100
AcDbEntity
  8
0
 62
7
100
AcDbSpline
 70
8
 71
3
 72
8
 73
4
 74
0
 40
0
 40
0
 40
0
 40
0
 40
1
 40
1
 40
1
 40
1
 10
177.520000
 20
58.880000
 30
0.0
 10
177.520000
 20
63.520000
 30
0.0
 10
176.480000
 20
67.040000
 30
0.0
 10
174.400000
 20
69.440000
 30
0.0
  0
SPLINE
  5
23d
100
AcDbEntity
  8
0
 62
7
100
AcDbSpline
 70
8
 71
3
 72
8
 73
4
 74
0
 40
0
 40
0
 40
0
 40
0
 40
1
 40
1
 40
1
 40
1
 10
174.400000
 20
69.440000
 30
0.0
 10
172.240000
 20
71.760000
 30
0.0
 10
169.600000
 20
72.960000
 30
0.0
 10
166.480000
 20
72.960000
 30
0.0
  0
SPLINE
  5
23e
100
AcDbEntity
  8
0
 62
7
100
AcDbSpline
 70
8
 71
3
 72
8
 73
4
 74
0
 40
0
 40
0
 40
0
 40
0
 40
1
 40
1
 40
1
 40
1
 10
166.480000
 20
72.960000
 30
0.0
 10
163.280000
 20
72.960000
 30
0.0
 10
160.640000
 20
71.760000
 30
0.0
 10
158.560000
 20
69.360000
 30
0.0
  0
SPLINE
  5
23f
100
AcDbEntity
  8
0
 62
7
100
AcDbSpline
 70
8
 71
3
 72
8
 73
4
 74
0
 40
0
 40
0
 40
0
 40
0
 40
1
 40
1
 40
1
 40
1
 10
158.560000
 20
69.360000
 30
0.0
 10
156.560000
 20
66.960000
 30
0.0
 10
155.520000
 20
63.360000
 30
0.0
 10
155.520000
 20
58.640000
 30
0.0
  0
SPLINE
  5
240
100
AcDbEntity
  8
0
 62
7
100
AcDbSpline
 70
8
 71
3
 72
8
 73
4
 74
0
 40
0
 40
0
 40
0
 40
0
 40
1
 40
1
 40
1
 40
1
 10
155.520000
 20
58.640000
 30
0.0
 10
155.520000
 20
53.920000
 30
0.0
 10
156.560000
 20
50.320000
 30
0.0
 10
158.640000
 20
47.920000
 30
0.0
  0
SPLINE
  5
241
100
AcDbEntity
  8
0
 62
7
100
AcDbSpline
 70
8
 71
3
 72
8
 73
4
 74
0
 40
0
 40
0
 40
0
 40
0
 40
1
 40
1
 40
1
 40
1
 10
158.640000
 20
47.920000
 30
0.0
 10
160.720000
 20
45.520000
 30
0.0
 10
163.360000
 20
44.320000
 30
0.0
 10
166.480000
 20
44.320000
 30
0.0
  0
LINE
  5
242
100
AcDbEntity
  8
0
 62
7
100
AcDbLine
 10
166.480000
 20
44.320000
 30
0.0
 11
166.480000
 21
44.320000
 31
0.0
  0
LINE
  5
243
100
AcDbEntity
  8
0
 62
7
100
AcDbLine
 10
221.600000
 20
40.000000
 30
0.0
 11
215.920000
 21
40.000000
 31
0.0
  0
LINE
  5
244
100
AcDbEntity
  8
0
 62
7
100
AcDbLine
 10
215.920000
 20
40.000000
 30
0.0
 11
215.920000
 21
45.440000
 31
0.0
  0
LINE
  5
245
100
AcDbEntity
  8
0
 62
7
100
AcDbLine
 10
215.920000
 20
45.440000
 30
0.0
 11
215.760000
 21
45.440000
 31
0.0
  0
SPLINE
  5
246
100
AcDbEntity
  8
0
 62
7
100
AcDbSpline
 70
8
 71
3
 72
8
 73
4
 74
0
 40
0
 40
0
 40
0
 40
0
 40
1
 40
1
 40
1
 40
1
 10
215.760000
 20
45.440000
 30
0.0
 10
212.880000
 20
41.200000
 30
0.0
 10
209.040000
 20
39.120000
 30
0.0
 10
204.080000
 20
39.120000
 30
0.0
  0
SPLINE
  5
247
100
AcDbEntity
  8
0
 62
7
100
AcDbSpline
 70
8
 71
3
 72
8
 73
4
 74
0
 40
0
 40
0
 40
0
 40
0
 40
1
 40
1
 40
1
 40
1
 10
204.080000
 20
39.120000
 30
0.0
 10
201.440000
 20
39.120000
 30
0.0
 10
199.040000
 20
39.680000
 30
0.0
 10
196.800000
 20
40.880000
 30
0.0
  0
SPLINE
  5
248
100
AcDbEntity
  8
0
 62
7
100
AcDbSpline
 70
8
 71
3
 72
8
 73
4
 74
0
 40
0
 40
0
 40
0
 40
0
 40
1
 40
1
 40
1
 40
1
 10
196.800000
 20
40.880000
 30
0.0
 10
194.640000
 20
42.160000
 30
0.0
 10
193.120000
 20
43.760000
 30
0.0
 10
192.400000
 20
45.920000
 30
0.0
  0
SPLINE
  5
249
100
AcDbEntity
  8
0
 62
7
100
AcDbSpline
 70
8
 71
3
 72
8
 73
4
 74
0
 40
0
 40
0
 40
0
 40
0
 40
1
 40
1
 40
1
 40
1
 10
192.400000
 20
45.920000
 30
0.0
 10
191.680000
 20
48.000000
 30
0.0
 10
191.280000
 20
50.800000
 30
0.0
 10
191.280000
 20
54.160000
 30
0.0
  0
LINE
  5
24a
100
AcDbEntity
  8
0
 62
7
100
AcDbLine
 10
191.280000
 20
54.160000
 30
0.0
 11
191.280000
 21
77.280000
 31
0.0
  0
LINE
  5
24b
100
AcDbEntity
  8
0
 62
7
100
AcDbLine
 10
191.280000
 20
77.280000
 30
0.0
 11
197.600000
 21
77.280000
 31
0.0
  0
LINE
  5
24c
100
AcDbEntity
  8
0
 62
7
100
AcDbLine
 10
197.600000
 20
77.280000
 30
0.0
 11
197.600000
 21
56.640000
 31
0.0
  0
SPLINE
  5
24d
100
AcDbEntity
  8
0
 62
7
100
AcDbSpline
 70
8
 71
3
 72
8
 73
4
 74
0
 40
0
 40
0
 40
0
 40
0
 40
1
 40
1
 40
1
 40
1
 10
197.600000
 20
56.640000
 30
0.0
 10
197.600000
 20
53.280000
 30
0.0
 10
197.760000
 20
50.960000
 30
0.0
 10
198.080000
 20
49.520000
 30
0.0
  0
SPLINE
  5
24e
100
AcDbEntity
  8
0
 62
7
100
AcDbSpline
 70
8
 71
3
 72
8
 73
4
 74
0
 40
0
 40
0
 40
0
 40
0
 40
1
 40
1
 40
1
 40
1
 10
198.080000
 20
49.520000
 30
0.0
 10
198.400000
 20
48.080000
 30
0.0
 10
199.200000
 20
46.880000
 30
0.0
 10
200.560000
 20
46.000000
 30
0.0
  0
SPLINE
  5
24f
100
AcDbEntity
  8
0
 62
7
100
AcDbSpline
 70
8
 71
3
 72
8
 73
4
 74
0
 40
0
 40
0
 40
0
 40
0
 40
1
 40
1
 40
1
 40
1
 10
200.560000
 20
46.000000
 30
0.0
 10
201.920000
 20
45.040000
 30
0.0
 10
203.520000
 20
44.560000
 30
0.0
 10
205.360000
 20
44.560000
 30
0.0
  0
SPLINE
  5
250
100
AcDbEntity
  8
0
 62
7
100
AcDbSpline
 70
8
 71
3
 72
8
 73
4
 74
0
 40
0
 40
0
 40
0
 40
0
 40
1
 40
1
 40
1
 40
1
 10
205.360000
 20
44.560000
 30
0.0
 10
207.760000
 20
44.560000
 30
0.0
 10
210.000000
 20
45.440000
 30
0.0
 10
212.080000
 20
47.040000
 30
0.0
  0
SPLINE
  5
251
100
AcDbEntity
  8
0
 62
7
100
AcDbSpline
 70
8
 71
3
 72
8
 73
4
 74
0
 40
0
 40
0
 40
0
 40
0
 40
1
 40
1
 40
1
 40
1
 10
212.080000
 20
47.040000
 30
0.0
 10
214.240000
 20
48.720000
 30
0.0
 10
215.280000
 20
52.160000
 30
0.0
 10
215.280000
 20
57.360000
 30
0.0
  0
LINE
  5
252
100
AcDbEntity
  8
0
 62
7
100
AcDbLine
 10
215.280000
 20
57.360000
 30
0.0
 11
215.280000
 21
77.280000
 31
0.0
  0
LINE
  5
253
100
AcDbEntity
  8
0
 62
7
100
AcDbLine
 10
215.280000
 20
77.280000
 30
0.0
 11
221.600000
 21
77.280000
 31
0.0
  0
LINE
  5
254
100
AcDbEntity
  8
0
 62
7
100
AcDbLine
 10
221.600000
 20
77.280000
 30
0.0
 11
221.600000
 21
40.000000
 31
0.0
  0
LINE
  5
255
100
AcDbEntity
  8
0
 62
7
100
AcDbLine
 10
221.600000
 20
40.000000
 30
0.0
 11
221.600000
 21
40.000000
 31
0.0
  0
LINE
  5
256
100
AcDbEntity
  8
0
 62
7
100
AcDbLine
 10
237.760000
 20
40.000000
 30
0.0
 11
231.440000
 21
40.000000
 31
0.0
  0
LINE
  5
257
100
AcDbEntity
  8
0
 62
7
100
AcDbLine
 10
231.440000
 20
40.000000
 30
0.0
 11
231.440000
 21
77.280000
 31
0.0
  0
LINE
  5
258
100
AcDbEntity
  8
0
 62
7
100
AcDbLine
 10
231.440000
 20
77.280000
 30
0.0
 11
237.760000
 21
77.280000
 31
0.0
  0
LINE
  5
259
100
AcDbEntity
  8
0
 62
7
100
AcDbLine
 10
237.760000
 20
77.280000
 30
0.0
 11
237.760000
 21
40.000000
 31
0.0
  0
LINE
  5
25a
100
AcDbEntity
  8
0
 62
7
100
AcDbLine
 10
237.760000
 20
40.000000
 30
0.0
 11
237.760000
 21
40.000000
 31
0.0
  0
LINE
  5
25b
100
AcDbEntity
  8
0
 62
7
100
AcDbLine
 10
237.760000
 20
84.320000
 30
0.0
 11
231.440000
 21
84.320000
 31
0.0
  0
LINE
  5
25c
100
AcDbEntity
  8
0
 62
7
100
AcDbLine
 10
231.440000
 20
84.320000
 30
0.0
 11
231.440000
 21
91.520000
 31
0.0
  0
LINE
  5
25d
100
AcDbEntity
  8
0
 62
7
100
AcDbLine
 10
231.440000
 20
91.520000
 30
0.0
 11
237.760000
 21
91.520000
 31
0.0
  0
LINE
  5
25e
100
AcDbEntity
  8
0
 62
7
100
AcDbLine
 10
237.760000
 20
91.520000
 30
0.0
 11
237.760000
 21
84.320000
 31
0.0
  0
LINE
  5
25f
100
AcDbEntity
  8
0
 62
7
100
AcDbLine
 10
237.760000
 20
84.320000
 30
0.0
 11
237.760000
 21
84.320000
 31
0.0
  0
LINE
  5
260
100
AcDbEntity
  8
0
 62
7
100
AcDbLine
 10
253.760000
 20
40.000000
 30
0.0
 11
247.440000
 21
40.000000
 31
0.0
  0
LINE
  5
261
100
AcDbEntity
  8
0
 62
7
100
AcDbLine
 10
247.440000
 20
40.000000
 30
0.0
 11
247.440000
 21
91.520000
 31
0.0
  0
LINE
  5
262
100
AcDbEntity
  8
0
 62
7
100
AcDbLine
 10
247.440000
 20
91.520000
 30
0.0
 11
253.760000
 21
91.520000
 31
0.0
  0
LINE
  5
263
100
AcDbEntity
  8
0
 62
7
100
AcDbLine
 10
253.760000
 20
91.520000
 30
0.0
 11
253.760000
 21
40.000000
 31
0.0
  0
LINE
  5
264
100
AcDbEntity
  8
0
 62
7
100
AcDbLine
 10
253.760000
 20
40.000000
 30
0.0
 11
253.760000
 21
40.000000
 31
0.0
  0
LINE
  5
265
100
AcDbEntity
  8
0
 62
7
100
AcDbLine
 10
269.760000
 20
40.000000
 30
0.0
 11
263.360000
 21
40.000000
 31
0.0
  0
LINE
  5
266
100
AcDbEntity
  8
0
 62
7
100
AcDbLine
 10
263.360000
 20
40.000000
 30
0.0
 11
263.360000
 21
91.520000
 31
0.0
  0
LINE
  5
267
100
AcDbEntity
  8
0
 62
7
100
AcDbLine
 10
263.360000
 20
91.520000
 30
0.0
 11
269.760000
 21
91.520000
 31
0.0
  0
LINE
  5
268
100
AcDbEntity
  8
0
 62
7
100
AcDbLine
 10
269.760000
 20
91.520000
 30
0.0
 11
269.760000
 21
40.000000
 31
0.0
  0
LINE
  5
269
100
AcDbEntity
  8
0
 62
7
100
AcDbLine
 10
269.760000
 20
40.000000
 30
0.0
 11
269.760000
 21
40.000000
 31
0.0
  0
LINE
  5
26a
100
AcDbEntity
  8
0
 62
7
100
AcDbLine
 10
311.840000
 20
57.040000
 30
0.0
 11
283.840000
 21
57.040000
 31
0.0
  0
SPLINE
  5
26b
100
AcDbEntity
  8
0
 62
7
100
AcDbSpline
 70
8
 71
3
 72
8
 73
4
 74
0
 40
0
 40
0
 40
0
 40
0
 40
1
 40
1
 40
1
 40
1
 10
283.840000
 20
57.040000
 30
0.0
 10
284.080000
 20
52.880000
 30
0.0
 10
285.280000
 20
49.760000
 30
0.0
 10
287.360000
 20
47.600000
 30
0.0
  0
SPLINE
  5
26c
100
AcDbEntity
  8
0
 62
7
100
AcDbSpline
 70
8
 71
3
 72
8
 73
4
 74
0
 40
0
 40
0
 40
0
 40
0
 40
1
 40
1
 40
1
 40
1
 10
287.360000
 20
47.600000
 30
0.0
 10
289.520000
 20
45.360000
 30
0.0
 10
292.080000
 20
44.320000
 30
0.0
 10
295.280000
 20
44.320000
 30
0.0
  0
SPLINE
  5
26d
100
AcDbEntity
  8
0
 62
7
100
AcDbSpline
 70
8
 71
3
 72
8
 73
4
 74
0
 40
0
 40
0
 40
0
 40
0
 40
1
 40
1
 40
1
 40
1
 10
295.280000
 20
44.320000
 30
0.0
 10
297.680000
 20
44.320000
 30
0.0
 10
299.680000
 20
44.960000
 30
0.0
 10
301.360000
 20
46.240000
 30
0.0
  0
SPLINE
  5
26e
100
AcDbEntity
  8
0
 62
7
100
AcDbSpline
 70
8
 71
3
 72
8
 73
4
 74
0
 40
0
 40
0
 40
0
 40
0
 40
1
 40
1
 40
1
 40
1
 10
301.360000
 20
46.240000
 30
0.0
 10
302.960000
 20
47.520000
 30
0.0
 10
304.240000
 20
49.440000
 30
0.0
 10
305.120000
 20
52.000000
 30
0.0
  0
LINE
  5
26f
100
AcDbEntity
  8
0
 62
7
100
AcDbLine
 10
305.120000
 20
52.000000
 30
0.0
 11
311.600000
 21
51.200000
 31
0.0
  0
SPLINE
  5
270
100
AcDbEntity
  8
0
 62
7
100
AcDbSpline
 70
8
 71
3
 72
8
 73
4
 74
0
 40
0
 40
0
 40
0
 40
0
 40
1
 40
1
 40
1
 40
1
 10
311.600000
 20
51.200000
 30
0.0
 10
310.560000
 20
47.280000
 30
0.0
 10
308.640000
 20
44.320000
 30
0.0
 10
305.760000
 20
42.240000
 30
0.0
  0
SPLINE
  5
271
100
AcDbEntity
  8
0
 62
7
100
AcDbSpline
 70
8
 71
3
 72
8
 73
4
 74
0
 40
0
 40
0
 40
0
 40
0
 40
1
 40
1
 40
1
 40
1
 10
305.760000
 20
42.240000
 30
0.0
 10
302.960000
 20
40.160000
 30
0.0
 10
299.440000
 20
39.120000
 30
0.0
 10
295.280000
 20
39.120000
 30
0.0
  0
SPLINE
  5
272
100
AcDbEntity
  8
0
 62
7
100
AcDbSpline
 70
8
 71
3
 72
8
 73
4
 74
0
 40
0
 40
0
 40
0
 40
0
 40
1
 40
1
 40
1
 40
1
 10
295.280000
 20
39.120000
 30
0.0
 10
289.680000
 20
39.120000
 30
0.0
 10
285.280000
 20
40.800000
 30
0.0
 10
282.080000
 20
44.240000
 30
0.0
  0
SPLINE
  5
273
100
AcDbEntity
  8
0
 62
7
100
AcDbSpline
 70
8
 71
3
 72
8
 73
4
 74
0
 40
0
 40
0
 40
0
 40
0
 40
1
 40
1
 40
1
 40
1
 10
282.080000
 20
44.240000
 30
0.0
 10
278.960000
 20
47.680000
 30
0.0
 10
277.360000
 20
52.400000
 30
0.0
 10
277.360000
 20
58.320000
 30
0.0
  0
SPLINE
  5
274
100
AcDbEntity
  8
0
 62
7
100
AcDbSpline
 70
8
 71
3
 72
8
 73
4
 74
0
 40
0
 40
0
 40
0
 40
0
 40
1
 40
1
 40
1
 40
1
 10
277.360000
 20
58.320000
 30
0.0
 10
277.360000
 20
64.240000
 30
0.0
 10
278.960000
 20
68.960000
 30
0.0
 10
282.000000
 20
72.640000
 30
0.0
  0
SPLINE
  5
275
100
AcDbEntity
  8
0
 62
7
100
AcDbSpline
 70
8
 71
3
 72
8
 73
4
 74
0
 40
0
 40
0
 40
0
 40
0
 40
1
 40
1
 40
1
 40
1
 10
282.000000
 20
72.640000
 30
0.0
 10
285.040000
 20
76.320000
 30
0.0
 10
289.360000
 20
78.160000
 30
0.0
 10
294.880000
 20
78.160000
 30
0.0
  0
SPLINE
  5
276
100
AcDbEntity
  8
0
 62
7
100
AcDbSpline
 70
8
 71
3
 72
8
 73
4
 74
0
 40
0
 40
0
 40
0
 40
0
 40
1
 40
1
 40
1
 40
1
 10
294.880000
 20
78.160000
 30
0.0
 10
297.600000
 20
78.160000
 30
0.0
 10
300.240000
 20
77.520000
 30
0.0
 10
302.720000
 20
76.320000
 30
0.0
  0
SPLINE
  5
277
100
AcDbEntity
  8
0
 62
7
100
AcDbSpline
 70
8
 71
3
 72
8
 73
4
 74
0
 40
0
 40
0
 40
0
 40
0
 40
1
 40
1
 40
1
 40
1
 10
302.720000
 20
76.320000
 30
0.0
 10
305.280000
 20
75.120000
 30
0.0
 10
307.440000
 20
73.120000
 30
0.0
 10
309.200000
 20
70.240000
 30
0.0
  0
SPLINE
  5
278
100
AcDbEntity
  8
0
 62
7
100
AcDbSpline
 70
8
 71
3
 72
8
 73
4
 74
0
 40
0
 40
0
 40
0
 40
0
 40
1
 40
1
 40
1
 40
1
 10
309.200000
 20
70.240000
 30
0.0
 10
310.960000
 20
67.360000
 30
0.0
 10
311.840000
 20
62.960000
 30
0.0
 10
311.840000
 20
57.040000
 30
0.0
  0
LINE
  5
279
100
AcDbEntity
  8
0
 62
7
100
AcDbLine
 10
311.840000
 20
57.040000
 30
0.0
 11
311.840000
 21
57.040000
 31
0.0
  0
SPLINE
  5
27a
100
AcDbEntity
  8
0
 62
7
100
AcDbSpline
 70
8
 71
3
 72
8
 73
4
 74
0
 40
0
 40
0
 40
0
 40
0
 40
1
 40
1
 40
1
 40
1
 10
305.280000
 20
62.240000
 30
0.0
 10
305.040000
 20
66.000000
 30
0.0
 10
303.840000
 20
68.800000
 30
0.0
 10
301.760000
 20
70.480000
 30
0.0
  0
SPLINE
  5
27b
100
AcDbEntity
  8
0
 62
7
100
AcDbSpline
 70
8
 71
3
 72
8
 73
4
 74
0
 40
0
 40
0
 40
0
 40
0
 40
1
 40
1
 40
1
 40
1
 10
301.760000
 20
70.480000
 30
0.0
 10
299.680000
 20
72.160000
 30
0.0
 10
297.360000
 20
72.960000
 30
0.0
 10
294.880000
 20
72.960000
 30
0.0
  0
SPLINE
  5
27c
100
AcDbEntity
  8
0
 62
7
100
AcDbSpline
 70
8
 71
3
 72
8
 73
4
 74
0
 40
0
 40
0
 40
0
 40
0
 40
1
 40
1
 40
1
 40
1
 10
294.880000
 20
72.960000
 30
0.0
 10
291.920000
 20
72.960000
 30
0.0
 10
289.440000
 20
72.000000
 30
0.0
 10
287.520000
 20
70.000000
 30
0.0
  0
SPLINE
  5
27d
100
AcDbEntity
  8
0
 62
7
100
AcDbSpline
 70
8
 71
3
 72
8
 73
4
 74
0
 40
0
 40
0
 40
0
 40
0
 40
1
 40
1
 40
1
 40
1
 10
287.520000
 20
70.000000
 30
0.0
 10
285.600000
 20
68.000000
 30
0.0
 10
284.480000
 20
65.440000
 30
0.0
 10
284.240000
 20
62.240000
 30
0.0
  0
LINE
  5
27e
100
AcDbEntity
  8
0
 62
7
100
AcDbLine
 10
284.240000
 20
62.240000
 30
0.0
 11
305.280000
 21
62.240000
 31
0.0
  0
LINE
  5
27f
100
AcDbEntity
  8
0
 62
7
100
AcDbLine
 10
305.280000
 20
62.240000
 30
0.0
 11
305.280000
 21
62.240000
 31
0.0
  0
LINE
  5
280
100
AcDbEntity
  8
0
 62
7
100
AcDbLine
 10
328.240000
 20
40.000000
 30
0.0
 11
321.040000
 21
40.000000
 31
0.0
  0
LINE
  5
281
100
AcDbEntity
  8
0
 62
7
100
AcDbLine
 10
321.040000
 20
40.000000
 30
0.0
 11
321.040000
 21
47.200000
 31
0.0
  0
LINE
  5
282
100
AcDbEntity
  8
0
 62
7
100
AcDbLine
 10
321.040000
 20
47.200000
 30
0.0
 11
328.240000
 21
47.200000
 31
0.0
  0
LINE
  5
283
100
AcDbEntity
  8
0
 62
7
100
AcDbLine
 10
328.240000
 20
47.200000
 30
0.0
 11
328.240000
 21
40.000000
 31
0.0
  0
LINE
  5
284
100
AcDbEntity
  8
0
 62
7
100
AcDbLine
 10
328.240000
 20
40.000000
 30
0.0
 11
328.240000
 21
40.000000
 31
0.0
  0
LINE
  5
285
100
AcDbEntity
  8
0
 62
7
100
AcDbLine
 10
357.040000
 20
91.760000
 30
0.0
 11
356.080000
 21
86.240000
 31
0.0
  0
SPLINE
  5
286
100
AcDbEntity
  8
0
 62
7
100
AcDbSpline
 70
8
 71
3
 72
8
 73
4
 74
0
 40
0
 40
0
 40
0
 40
0
 40
1
 40
1
 40
1
 40
1
 10
356.080000
 20
86.240000
 30
0.0
 10
354.800000
 20
86.480000
 30
0.0
 10
353.600000
 20
86.560000
 30
0.0
 10
352.320000
 20
86.560000
 30
0.0
  0
SPLINE
  5
287
100
AcDbEntity
  8
0
 62
7
100
AcDbSpline
 70
8
 71
3
 72
8
 73
4
 74
0
 40
0
 40
0
 40
0
 40
0
 40
1
 40
1
 40
1
 40
1
 10
352.320000
 20
86.560000
 30
0.0
 10
350.800000
 20
86.560000
 30
0.0
 10
349.600000
 20
86.240000
 30
0.0
 10
348.640000
 20
85.600000
 30
0.0
  0
SPLINE
  5
288
100
AcDbEntity
  8
0
 62
7
100
AcDbSpline
 70
8
 71
3
 72
8
 73
4
 74
0
 40
0
 40
0
 40
0
 40
0
 40
1
 40
1
 40
1
 40
1
 10
348.640000
 20
85.600000
 30
0.0
 10
347.600000
 20
84.960000
 30
0.0
 10
347.120000
 20
83.360000
 30
0.0
 10
347.120000
 20
80.800000
 30
0.0
  0
LINE
  5
289
100
AcDbEntity
  8
0
 62
7
100
AcDbLine
 10
347.120000
 20
80.800000
 30
0.0
 11
347.120000
 21
77.280000
 31
0.0
  0
LINE
  5
28a
100
AcDbEntity
  8
0
 62
7
100
AcDbLine
 10
347.120000
 20
77.280000
 30
0.0
 11
354.320000
 21
77.280000
 31
0.0
  0
LINE
  5
28b
100
AcDbEntity
  8
0
 62
7
100
AcDbLine
 10
354.320000
 20
77.280000
 30
0.0
 11
354.320000
 21
72.400000
 31
0.0
  0
LINE
  5
28c
100
AcDbEntity
  8
0
 62
7
100
AcDbLine
 10
354.320000
 20
72.400000
 30
0.0
 11
347.120000
 21
72.400000
 31
0.0
  0
LINE
  5
28d
100
AcDbEntity
  8
0
 62
7
100
AcDbLine
 10
347.120000
 20
72.400000
 30
0.0
 11
347.120000
 21
40.000000
 31
0.0
  0
LINE
  5
28e
100
AcDbEntity
  8
0
 62
7
100
AcDbLine
 10
347.120000
 20
40.000000
 30
0.0
 11
340.800000
 21
40.000000
 31
0.0
  0
LINE
  5
28f
100
AcDbEntity
  8
0
 62
7
100
AcDbLine
 10
340.800000
 20
40.000000
 30
0.0
 11
340.800000
 21
72.400000
 31
0.0
  0
LINE
  5
290
100
AcDbEntity
  8
0
 62
7
100
AcDbLine
 10
340.800000
 20
72.400000
 30
0.0
 11
335.200000
 21
72.400000
 31
0.0
  0
LINE
  5
291
100
AcDbEntity
  8
0
 62
7
100
AcDbLine
 10
335.200000
 20
72.400000
 30
0.0
 11
335.200000
 21
77.280000
 31
0.0
  0
LINE
  5
292
100
AcDbEntity
  8
0
 62
7
100
AcDbLine
 10
335.200000
 20
77.280000
 30
0.0
 11
340.800000
 21
77.280000
 31
0.0
  0
LINE
  5
293
100
AcDbEntity
  8
0
 62
7
100
AcDbLine
 10
340.800000
 20
77.280000
 30
0.0
 11
340.800000
 21
81.360000
 31
0.0
  0
SPLINE
  5
294
100
AcDbEntity
  8
0
 62
7
100
AcDbSpline
 70
8
 71
3
 72
8
 73
4
 74
0
 40
0
 40
0
 40
0
 40
0
 40
1
 40
1
 40
1
 40
1
 10
340.800000
 20
81.360000
 30
0.0
 10
340.800000
 20
83.200000
 30
0.0
 10
340.960000
 20
84.880000
 30
0.0
 10
341.360000
 20
86.400000
 30
0.0
  0
SPLINE
  5
295
100
AcDbEntity
  8
0
 62
7
100
AcDbSpline
 70
8
 71
3
 72
8
 73
4
 74
0
 40
0
 40
0
 40
0
 40
0
 40
1
 40
1
 40
1
 40
1
 10
341.360000
 20
86.400000
 30
0.0
 10
341.680000
 20
87.920000
 30
0.0
 10
342.640000
 20
89.360000
 30
0.0
 10
344.160000
 20
90.560000
 30
0.0
  0
SPLINE
  5
296
100
AcDbEntity
  8
0
 62
7
100
AcDbSpline
 70
8
 71
3
 72
8
 73
4
 74
0
 40
0
 40
0
 40
0
 40
0
 40
1
 40
1
 40
1
 40
1
 10
344.160000
 20
90.560000
 30
0.0
 10
345.680000
 20
91.760000
 30
0.0
 10
348.000000
 20
92.400000
 30
0.0
 10
351.120000
 20
92.400000
 30
0.0
  0
SPLINE
  5
297
100
AcDbEntity
  8
0
 62
7
100
AcDbSpline
 70
8
 71
3
 72
8
 73
4
 74
0
 40
0
 40
0
 40
0
 40
0
 40
1
 40
1
 40
1
 40
1
 10
351.120000
 20
92.400000
 30
0.0
 10
352.960000
 20
92.400000
 30
0.0
 10
354.960000
 20
92.160000
 30
0.0
 10
357.040000
 20
91.760000
 30
0.0
  0
LINE
  5
298
100
AcDbEntity
  8
0
 62
7
100
AcDbLine
 10
357.040000
 20
91.760000
 30
0.0
 11
357.040000
 21
91.760000
 31
0.0
  0
LINE
  5
299
100
AcDbEntity
  8
0
 62
7
100
AcDbLine
 10
379.520000
 20
76.160000
 30
0.0
 11
377.360000
 21
70.320000
 31
0.0
  0
SPLINE
  5
29a
100
AcDbEntity
  8
0
 62
7
100
AcDbSpline
 70
8
 71
3
 72
8
 73
4
 74
0
 40
0
 40
0
 40
0
 40
0
 40
1
 40
1
 40
1
 40
1
 10
377.360000
 20
70.320000
 30
0.0
 10
375.840000
 20
71.200000
 30
0.0
 10
374.240000
 20
71.680000
 30
0.0
 10
372.800000
 20
71.680000
 30
0.0
  0
SPLINE
  5
29b
100
AcDbEntity
  8
0
 62
7
100
AcDbSpline
 70
8
 71
3
 72
8
 73
4
 74
0
 40
0
 40
0
 40
0
 40
0
 40
1
 40
1
 40
1
 40
1
 10
372.800000
 20
71.680000
 30
0.0
 10
370.400000
 20
71.680000
 30
0.0
 10
368.640000
 20
70.560000
 30
0.0
 10
367.360000
 20
68.480000
 30
0.0
  0
SPLINE
  5
29c
100
AcDbEntity
  8
0
 62
7
100
AcDbSpline
 70
8
 71
3
 72
8
 73
4
 74
0
 40
0
 40
0
 40
0
 40
0
 40
1
 40
1
 40
1
 40
1
 10
367.360000
 20
68.480000
 30
0.0
 10
366.160000
 20
66.320000
 30
0.0
 10
365.600000
 20
63.360000
 30
0.0
 10
365.600000
 20
59.600000
 30
0.0
  0
LINE
  5
29d
100
AcDbEntity
  8
0
 62
7
100
AcDbLine
 10
365.600000
 20
59.600000
 30
0.0
 11
365.600000
 21
40.000000
 31
0.0
  0
LINE
  5
29e
100
AcDbEntity
  8
0
 62
7
100
AcDbLine
 10
365.600000
 20
40.000000
 30
0.0
 11
359.200000
 21
40.000000
 31
0.0
  0
LINE
  5
29f
100
AcDbEntity
  8
0
 62
7
100
AcDbLine
 10
359.200000
 20
40.000000
 30
0.0
 11
359.200000
 21
77.280000
 31
0.0
  0
LINE
  5
2a0
100
AcDbEntity
  8
0
 62
7
100
AcDbLine
 10
359.200000
 20
77.280000
 30
0.0
 11
365.040000
 21
77.280000
 31
0.0
  0
LINE
  5
2a1
100
AcDbEntity
  8
0
 62
7
100
AcDbLine
 10
365.040000
 20
77.280000
 30
0.0
 11
365.040000
 21
71.680000
 31
0.0
  0
LINE
  5
2a2
100
AcDbEntity
  8
0
 62
7
100
AcDbLine
 10
365.040000
 20
71.680000
 30
0.0
 11
365.120000
 21
71.680000
 31
0.0
  0
SPLINE
  5
2a3
100
AcDbEntity
  8
0
 62
7
100
AcDbSpline
 70
8
 71
3
 72
8
 73
4
 74
0
 40
0
 40
0
 40
0
 40
0
 40
1
 40
1
 40
1
 40
1
 10
365.120000
 20
71.680000
 30
0.0
 10
367.120000
 20
76.000000
 30
0.0
 10
369.760000
 20
78.160000
 30
0.0
 10
373.040000
 20
78.160000
 30
0.0
  0
SPLINE
  5
2a4
100
AcDbEntity
  8
0
 62
7
100
AcDbSpline
 70
8
 71
3
 72
8
 73
4
 74
0
 40
0
 40
0
 40
0
 40
0
 40
1
 40
1
 40
1
 40
1
 10
373.040000
 20
78.160000
 30
0.0
 10
375.200000
 20
78.160000
 30
0.0
 10
377.360000
 20
77.440000
 30
0.0
 10
379.520000
 20
76.160000
 30
0.0
  0
LINE
  5
2a5
100
AcDbEntity
  8
0
 62
7
100
AcDbLine
 10
379.520000
 20
76.160000
 30
0.0
 11
379.520000
 21
76.160000
 31
0.0
  0
ENDSEC
  0
SECTION
  2
OBJECTS
  0
DICTIONARY
  5
C
330
0
100
AcDbDictionary
  3
ACAD_GROUP
350
D
  3
ACAD_MLINESTYLE
350
17
  0
DICTIONARY
  5
D
330
C
100
AcDbDictionary
  0
DICTIONARY
  5
1A
330
C
100
AcDbDictionary
  0
DICTIONARY
  5
17
330
C
100
AcDbDictionary
  3
STANDARD
350
18
  0
DICTIONARY
  5
19
330
C
100
AcDbDictionary
  0
ENDSEC
  0
EOF
