  0
SECTION
  2
HEADER
  9
$ACADVER
  1
AC1014
  9
$HANDSEED
  5
FFFF
  9
$MEASUREMENT
 70
     1
  0
ENDSEC
  0
SECTION
  2
TABLES
  0
TABLE
  2
VPORT
  5
8
330
0
100
AcDbSymbolTable
 70
     4
  0
VPORT
  5
2E
330
8
100
AcDbSymbolTableRecord
100
AcDbViewportTableRecord
  2
*ACTIVE
 70
     0
 10
0.0
 20
0.0
 11
1.0
 21
1.0
 12
210.0
 22
148.5
 13
0.0
 23
0.0
 14
10.0
 24
10.0
 15
10.0
 25
10.0
 16
0.0
 26
0.0
 36
1.0
 17
0.0
 27
0.0
 37
0.0
 40
341.0
 41
1.24
 42
50.0
 43
0.0
 44
0.0
 50
0.0
 51
0.0
 71
     0
 72
   100
 73
     1
 74
     3
 75
     0
 76
     0
 77
     0
 78
     0
  0
ENDTAB
  0
TABLE
  2
LTYPE
  5
5
330
0
100
AcDbSymbolTable
 70
     1
  0
LTYPE
  5
14
330
5
100
AcDbSymbolTableRecord
100
AcDbLinetypeTableRecord
  2
BYBLOCK
 70
     0
  3

 72
    65
 73
     0
 40
0.0
  0
LTYPE
  5
15
330
5
100
AcDbSymbolTableRecord
100
AcDbLinetypeTableRecord
  2
BYLAYER
 70
     0
  3

 72
    65
 73
     0
 40
0.0
  0
LTYPE
  5
16
330
5
100
AcDbSymbolTableRecord
100
AcDbLinetypeTableRecord
  2
CONTINUOUS
 70
     0
  3
Solid line
 72
    65
 73
     0
 40
0.0
  0
ENDTAB
  0
TABLE
  2
LAYER
  5
2
100
AcDbSymbolTable
 70
1
  0
LAYER
  5
50
100
AcDbSymbolTableRecord
100
AcDbLayerTableRecord
  2
0
 70
0
  6
CONTINUOUS
  0
ENDTAB
  0
TABLE
  2
STYLE
  5
3
330
0
100
AcDbSymbolTable
 70
     1
  0
STYLE
  5
11
330
3
100
AcDbSymbolTableRecord
100
AcDbTextStyleTableRecord
  2
STANDARD
 70
     0
 40
0.0
 41
1.0
 50
0.0
 71
     0
 42
2.5
  3
txt
  4

  0
ENDTAB
  0
TABLE
  2
VIEW
  5
6
330
0
100
AcDbSymbolTable
 70
     0
  0
ENDTAB
  0
TABLE
  2
UCS
  5
7
330
0
100
AcDbSymbolTable
 70
     0
  0
ENDTAB
  0
TABLE
  2
APPID
  5
9
330
0
100
AcDbSymbolTable
 70
     2
  0
APPID
  5
12
330
9
100
AcDbSymbolTableRecord
100
AcDbRegAppTableRecord
  2
ACAD
 70
     0
  0
ENDTAB
  0
TABLE
  2
DIMSTYLE
  5
A
330
0
100
AcDbSymbolTable
 70
     1
  0
DIMSTYLE
105
27
330
A
100
AcDbSymbolTableRecord
100
AcDbDimStyleTableRecord
  2
ISO-25
 70
     0
  3

  4

  5

  6

  7

 40
1.0
 41
2.5
 42
0.625
 43
3.75
 44
1.25
 45
0.0
 46
0.0
 47
0.0
 48
0.0
140
2.5
141
2.5
142
0.0
143
0.03937007874016
144
1.0
145
0.0
146
1.0
147
0.625
 71
     0
 72
     0
 73
     0
 74
     0
 75
     0
 76
     0
 77
     1
 78
     8
170
     0
171
     3
172
     1
173
     0
174
     0
175
     0
176
     0
177
     0
178
     0
270
     2
271
     2
272
     2
273
     2
274
     3
340
11
275
     0
280
     0
281
     0
282
     0
283
     0
284
     8
285
     0
286
     0
287
     3
288
     0
  0
ENDTAB
  0
TABLE
  2
BLOCK_RECORD
  5
1
330
0
100
AcDbSymbolTable
 70
     1
  0
BLOCK_RECORD
  5
1F
330
1
100
AcDbSymbolTableRecord
100
AcDbBlockTableRecord
  2
*MODEL_SPACE
  0
BLOCK_RECORD
  5
1B
330
1
100
AcDbSymbolTableRecord
100
AcDbBlockTableRecord
  2
*PAPER_SPACE
  0
ENDTAB
  0
ENDSEC
  0
SECTION
  2
BLOCKS
  0
BLOCK
  5
20
330
1F
100
AcDbEntity
  8
0
100
AcDbBlockBegin
  2
*MODEL_SPACE
 70
     0
 10
0.0
 20
0.0
 30
0.0
  3
*MODEL_SPACE
  1

  0
ENDBLK
  5
21
330
1F
100
AcDbEntity
  8
0
100
AcDbBlockEnd
  0
BLOCK
  5
1C
330
1B
100
AcDbEntity
 67
     1
  8
0
100
AcDbBlockBegin
  2
*PAPER_SPACE
  1

  0
ENDBLK
  5
1D
330
1B
100
AcDbEntity
 67
     1
  8
0
100
AcDbBlockEnd
  0
ENDSEC
  0
SECTION
  2
ENTITIES
  0
SPLINE
  5
100
100
AcDbEntity
  8
0
 62
7
100
AcDbSpline
 70
8
 71
3
 72
8
 73
4
 74
0
 40
0
 40
0
 40
0
 40
0
 40
1
 40
1
 40
1
 40
1
 10
219.680000
 20
190.880000
 30
0.0
 10
218.720000
 20
194.480000
 30
0.0
 10
220.880000
 20
217.760000
 30
0.0
 10
223.120000
 20
227.840000
 30
0.0
  0
SPLINE
  5
101
100
AcDbEntity
  8
0
 62
7
100
AcDbSpline
 70
8
 71
3
 72
8
 73
4
 74
0
 40
0
 40
0
 40
0
 40
0
 40
1
 40
1
 40
1
 40
1
 10
223.120000
 20
227.840000
 30
0.0
 10
224.320000
 20
233.520000
 30
0.0
 10
225.280000
 20
242.880000
 30
0.0
 10
226.000000
 20
255.760000
 30
0.0
  0
SPLINE
  5
102
100
AcDbEntity
  8
0
 62
7
100
AcDbSpline
 70
8
 71
3
 72
8
 73
4
 74
0
 40
0
 40
0
 40
0
 40
0
 40
1
 40
1
 40
1
 40
1
 10
226.000000
 20
255.760000
 30
0.0
 10
226.480000
 20
266.480000
 30
0.0
 10
227.200000
 20
278.480000
 30
0.0
 10
227.520000
 20
282.400000
 30
0.0
  0
LINE
  5
103
100
AcDbEntity
  8
0
 62
7
100
AcDbLine
 10
227.520000
 20
282.400000
 30
0.0
 11
228.000000
 21
289.520000
 31
0.0
  0
LINE
  5
104
100
AcDbEntity
  8
0
 62
7
100
AcDbLine
 10
228.000000
 20
289.520000
 30
0.0
 11
235.680000
 21
300.080000
 31
0.0
  0
SPLINE
  5
105
100
AcDbEntity
  8
0
 62
7
100
AcDbSpline
 70
8
 71
3
 72
8
 73
4
 74
0
 40
0
 40
0
 40
0
 40
0
 40
1
 40
1
 40
1
 40
1
 10
235.680000
 20
300.080000
 30
0.0
 10
248.240000
 20
317.600000
 30
0.0
 10
252.160000
 20
323.440000
 30
0.0
 10
253.200000
 20
326.720000
 30
0.0
  0
SPLINE
  5
106
100
AcDbEntity
  8
0
 62
7
100
AcDbSpline
 70
8
 71
3
 72
8
 73
4
 74
0
 40
0
 40
0
 40
0
 40
0
 40
1
 40
1
 40
1
 40
1
 10
253.200000
 20
326.720000
 30
0.0
 10
254.960000
 20
332.160000
 30
0.0
 10
257.040000
 20
344.560000
 30
0.0
 10
257.600000
 20
353.280000
 30
0.0
  0
SPLINE
  5
107
100
AcDbEntity
  8
0
 62
7
100
AcDbSpline
 70
8
 71
3
 72
8
 73
4
 74
0
 40
0
 40
0
 40
0
 40
0
 40
1
 40
1
 40
1
 40
1
 10
257.600000
 20
353.280000
 30
0.0
 10
259.280000
 20
377.360000
 30
0.0
 10
263.920000
 20
403.360000
 30
0.0
 10
268.080000
 20
412.000000
 30
0.0
  0
SPLINE
  5
108
100
AcDbEntity
  8
0
 62
7
100
AcDbSpline
 70
8
 71
3
 72
8
 73
4
 74
0
 40
0
 40
0
 40
0
 40
0
 40
1
 40
1
 40
1
 40
1
 10
268.080000
 20
412.000000
 30
0.0
 10
269.200000
 20
414.240000
 30
0.0
 10
269.040000
 20
414.800000
 30
0.0
 10
266.800000
 20
418.080000
 30
0.0
  0
SPLINE
  5
109
100
AcDbEntity
  8
0
 62
7
100
AcDbSpline
 70
8
 71
3
 72
8
 73
4
 74
0
 40
0
 40
0
 40
0
 40
0
 40
1
 40
1
 40
1
 40
1
 10
266.800000
 20
418.080000
 30
0.0
 10
264.000000
 20
422.160000
 30
0.0
 10
263.280000
 20
421.760000
 30
0.0
 10
264.560000
 20
416.640000
 30
0.0
  0
SPLINE
  5
10a
100
AcDbEntity
  8
0
 62
7
100
AcDbSpline
 70
8
 71
3
 72
8
 73
4
 74
0
 40
0
 40
0
 40
0
 40
0
 40
1
 40
1
 40
1
 40
1
 10
264.560000
 20
416.640000
 30
0.0
 10
265.360000
 20
413.600000
 30
0.0
 10
265.120000
 20
412.240000
 30
0.0
 10
263.120000
 20
407.520000
 30
0.0
  0
SPLINE
  5
10b
100
AcDbEntity
  8
0
 62
7
100
AcDbSpline
 70
8
 71
3
 72
8
 73
4
 74
0
 40
0
 40
0
 40
0
 40
0
 40
1
 40
1
 40
1
 40
1
 10
263.120000
 20
407.520000
 30
0.0
 10
260.000000
 20
400.000000
 30
0.0
 10
254.000000
 20
382.640000
 30
0.0
 10
249.520000
 20
368.480000
 30
0.0
  0
SPLINE
  5
10c
100
AcDbEntity
  8
0
 62
7
100
AcDbSpline
 70
8
 71
3
 72
8
 73
4
 74
0
 40
0
 40
0
 40
0
 40
0
 40
1
 40
1
 40
1
 40
1
 10
249.520000
 20
368.480000
 30
0.0
 10
245.680000
 20
355.920000
 30
0.0
 10
243.280000
 20
351.600000
 30
0.0
 10
233.360000
 20
339.840000
 30
0.0
  0
SPLINE
  5
10d
100
AcDbEntity
  8
0
 62
7
100
AcDbSpline
 70
8
 71
3
 72
8
 73
4
 74
0
 40
0
 40
0
 40
0
 40
0
 40
1
 40
1
 40
1
 40
1
 10
233.360000
 20
339.840000
 30
0.0
 10
228.160000
 20
333.600000
 30
0.0
 10
216.080000
 20
321.680000
 30
0.0
 10
213.040000
 20
319.760000
 30
0.0
  0
SPLINE
  5
10e
100
AcDbEntity
  8
0
 62
7
100
AcDbSpline
 70
8
 71
3
 72
8
 73
4
 74
0
 40
0
 40
0
 40
0
 40
0
 40
1
 40
1
 40
1
 40
1
 10
213.040000
 20
319.760000
 30
0.0
 10
210.000000
 20
317.760000
 30
0.0
 10
204.480000
 20
316.480000
 30
0.0
 10
199.440000
 20
316.480000
 30
0.0
  0
SPLINE
  5
10f
100
AcDbEntity
  8
0
 62
7
100
AcDbSpline
 70
8
 71
3
 72
8
 73
4
 74
0
 40
0
 40
0
 40
0
 40
0
 40
1
 40
1
 40
1
 40
1
 10
199.440000
 20
316.480000
 30
0.0
 10
195.040000
 20
316.480000
 30
0.0
 10
194.320000
 20
316.720000
 30
0.0
 10
190.480000
 20
319.520000
 30
0.0
  0
SPLINE
  5
110
100
AcDbEntity
  8
0
 62
7
100
AcDbSpline
 70
8
 71
3
 72
8
 73
4
 74
0
 40
0
 40
0
 40
0
 40
0
 40
1
 40
1
 40
1
 40
1
 10
190.480000
 20
319.520000
 30
0.0
 10
188.160000
 20
321.120000
 30
0.0
 10
186.000000
 20
323.360000
 30
0.0
 10
185.600000
 20
324.400000
 30
0.0
  0
SPLINE
  5
111
100
AcDbEntity
  8
0
 62
7
100
AcDbSpline
 70
8
 71
3
 72
8
 73
4
 74
0
 40
0
 40
0
 40
0
 40
0
 40
1
 40
1
 40
1
 40
1
 10
185.600000
 20
324.400000
 30
0.0
 10
185.200000
 20
325.520000
 30
0.0
 10
185.440000
 20
330.480000
 30
0.0
 10
186.000000
 20
335.520000
 30
0.0
  0
SPLINE
  5
112
100
AcDbEntity
  8
0
 62
7
100
AcDbSpline
 70
8
 71
3
 72
8
 73
4
 74
0
 40
0
 40
0
 40
0
 40
0
 40
1
 40
1
 40
1
 40
1
 10
186.000000
 20
335.520000
 30
0.0
 10
186.800000
 20
342.080000
 30
0.0
 10
186.880000
 20
347.520000
 30
0.0
 10
186.240000
 20
354.000000
 30
0.0
  0
SPLINE
  5
113
100
AcDbEntity
  8
0
 62
7
100
AcDbSpline
 70
8
 71
3
 72
8
 73
4
 74
0
 40
0
 40
0
 40
0
 40
0
 40
1
 40
1
 40
1
 40
1
 10
186.240000
 20
354.000000
 30
0.0
 10
184.320000
 20
373.360000
 30
0.0
 10
185.600000
 20
389.200000
 30
0.0
 10
189.520000
 20
394.560000
 30
0.0
  0
SPLINE
  5
114
100
AcDbEntity
  8
0
 62
7
100
AcDbSpline
 70
8
 71
3
 72
8
 73
4
 74
0
 40
0
 40
0
 40
0
 40
0
 40
1
 40
1
 40
1
 40
1
 10
189.520000
 20
394.560000
 30
0.0
 10
190.240000
 20
395.680000
 30
0.0
 10
190.960000
 20
396.800000
 30
0.0
 10
190.960000
 20
397.040000
 30
0.0
  0
SPLINE
  5
115
100
AcDbEntity
  8
0
 62
7
100
AcDbSpline
 70
8
 71
3
 72
8
 73
4
 74
0
 40
0
 40
0
 40
0
 40
0
 40
1
 40
1
 40
1
 40
1
 10
190.960000
 20
397.040000
 30
0.0
 10
190.960000
 20
398.560000
 30
0.0
 10
205.920000
 20
422.640000
 30
0.0
 10
217.360000
 20
439.520000
 30
0.0
  0
SPLINE
  5
116
100
AcDbEntity
  8
0
 62
7
100
AcDbSpline
 70
8
 71
3
 72
8
 73
4
 74
0
 40
0
 40
0
 40
0
 40
0
 40
1
 40
1
 40
1
 40
1
 10
217.360000
 20
439.520000
 30
0.0
 10
226.720000
 20
453.360000
 30
0.0
 10
228.320000
 20
457.600000
 30
0.0
 10
229.360000
 20
472.240000
 30
0.0
  0
SPLINE
  5
117
100
AcDbEntity
  8
0
 62
7
100
AcDbSpline
 70
8
 71
3
 72
8
 73
4
 74
0
 40
0
 40
0
 40
0
 40
0
 40
1
 40
1
 40
1
 40
1
 10
229.360000
 20
472.240000
 30
0.0
 10
229.920000
 20
479.440000
 30
0.0
 10
229.680000
 20
481.600000
 30
0.0
 10
227.440000
 20
490.000000
 30
0.0
  0
SPLINE
  5
118
100
AcDbEntity
  8
0
 62
7
100
AcDbSpline
 70
8
 71
3
 72
8
 73
4
 74
0
 40
0
 40
0
 40
0
 40
0
 40
1
 40
1
 40
1
 40
1
 10
227.440000
 20
490.000000
 30
0.0
 10
226.080000
 20
495.200000
 30
0.0
 10
224.560000
 20
501.200000
 30
0.0
 10
224.000000
 20
503.280000
 30
0.0
  0
SPLINE
  5
119
100
AcDbEntity
  8
0
 62
7
100
AcDbSpline
 70
8
 71
3
 72
8
 73
4
 74
0
 40
0
 40
0
 40
0
 40
0
 40
1
 40
1
 40
1
 40
1
 10
224.000000
 20
503.280000
 30
0.0
 10
222.560000
 20
508.880000
 30
0.0
 10
219.280000
 20
526.240000
 30
0.0
 10
219.280000
 20
528.240000
 30
0.0
  0
LINE
  5
11a
100
AcDbEntity
  8
0
 62
7
100
AcDbLine
 10
219.280000
 20
528.240000
 30
0.0
 11
219.280000
 21
529.920000
 31
0.0
  0
LINE
  5
11b
100
AcDbEntity
  8
0
 62
7
100
AcDbLine
 10
219.280000
 20
529.920000
 30
0.0
 11
222.480000
 21
528.160000
 31
0.0
  0
SPLINE
  5
11c
100
AcDbEntity
  8
0
 62
7
100
AcDbSpline
 70
8
 71
3
 72
8
 73
4
 74
0
 40
0
 40
0
 40
0
 40
0
 40
1
 40
1
 40
1
 40
1
 10
222.480000
 20
528.160000
 30
0.0
 10
225.440000
 20
526.560000
 30
0.0
 10
229.680000
 20
525.840000
 30
0.0
 10
229.680000
 20
526.960000
 30
0.0
  0
SPLINE
  5
11d
100
AcDbEntity
  8
0
 62
7
100
AcDbSpline
 70
8
 71
3
 72
8
 73
4
 74
0
 40
0
 40
0
 40
0
 40
0
 40
1
 40
1
 40
1
 40
1
 10
229.680000
 20
526.960000
 30
0.0
 10
229.680000
 20
527.280000
 30
0.0
 10
227.760000
 20
529.200000
 30
0.0
 10
225.440000
 20
531.200000
 30
0.0
  0
SPLINE
  5
11e
100
AcDbEntity
  8
0
 62
7
100
AcDbSpline
 70
8
 71
3
 72
8
 73
4
 74
0
 40
0
 40
0
 40
0
 40
0
 40
1
 40
1
 40
1
 40
1
 10
225.440000
 20
531.200000
 30
0.0
 10
219.200000
 20
536.640000
 30
0.0
 10
208.880000
 20
547.120000
 30
0.0
 10
201.840000
 20
555.200000
 30
0.0
  0
LINE
  5
11f
100
AcDbEntity
  8
0
 62
7
100
AcDbLine
 10
201.840000
 20
555.200000
 30
0.0
 11
195.680000
 21
562.240000
 31
0.0
  0
LINE
  5
120
100
AcDbEntity
  8
0
 62
7
100
AcDbLine
 10
195.680000
 20
562.240000
 30
0.0
 11
198.240000
 21
563.600000
 31
0.0
  0
SPLINE
  5
121
100
AcDbEntity
  8
0
 62
7
100
AcDbSpline
 70
8
 71
3
 72
8
 73
4
 74
0
 40
0
 40
0
 40
0
 40
0
 40
1
 40
1
 40
1
 40
1
 10
198.240000
 20
563.600000
 30
0.0
 10
199.680000
 20
564.400000
 30
0.0
 10
202.320000
 20
566.000000
 30
0.0
 10
204.080000
 20
567.200000
 30
0.0
  0
SPLINE
  5
122
100
AcDbEntity
  8
0
 62
7
100
AcDbSpline
 70
8
 71
3
 72
8
 73
4
 74
0
 40
0
 40
0
 40
0
 40
0
 40
1
 40
1
 40
1
 40
1
 10
204.080000
 20
567.200000
 30
0.0
 10
208.000000
 20
569.920000
 30
0.0
 10
207.120000
 20
571.040000
 30
0.0
 10
201.840000
 20
570.000000
 30
0.0
  0
SPLINE
  5
123
100
AcDbEntity
  8
0
 62
7
100
AcDbSpline
 70
8
 71
3
 72
8
 73
4
 74
0
 40
0
 40
0
 40
0
 40
0
 40
1
 40
1
 40
1
 40
1
 10
201.840000
 20
570.000000
 30
0.0
 10
198.320000
 20
569.280000
 30
0.0
 10
185.440000
 20
569.520000
 30
0.0
 10
177.120000
 20
570.480000
 30
0.0
  0
SPLINE
  5
124
100
AcDbEntity
  8
0
 62
7
100
AcDbSpline
 70
8
 71
3
 72
8
 73
4
 74
0
 40
0
 40
0
 40
0
 40
0
 40
1
 40
1
 40
1
 40
1
 10
177.120000
 20
570.480000
 30
0.0
 10
173.440000
 20
570.880000
 30
0.0
 10
173.200000
 20
570.800000
 30
0.0
 10
172.560000
 20
568.960000
 30
0.0
  0
SPLINE
  5
125
100
AcDbEntity
  8
0
 62
7
100
AcDbSpline
 70
8
 71
3
 72
8
 73
4
 74
0
 40
0
 40
0
 40
0
 40
0
 40
1
 40
1
 40
1
 40
1
 10
172.560000
 20
568.960000
 30
0.0
 10
171.520000
 20
566.080000
 30
0.0
 10
158.320000
 20
547.360000
 30
0.0
 10
153.680000
 20
542.160000
 30
0.0
  0
SPLINE
  5
126
100
AcDbEntity
  8
0
 62
7
100
AcDbSpline
 70
8
 71
3
 72
8
 73
4
 74
0
 40
0
 40
0
 40
0
 40
0
 40
1
 40
1
 40
1
 40
1
 10
153.680000
 20
542.160000
 30
0.0
 10
150.160000
 20
538.320000
 30
0.0
 10
149.040000
 20
537.600000
 30
0.0
 10
145.440000
 20
536.800000
 30
0.0
  0
SPLINE
  5
127
100
AcDbEntity
  8
0
 62
7
100
AcDbSpline
 70
8
 71
3
 72
8
 73
4
 74
0
 40
0
 40
0
 40
0
 40
0
 40
1
 40
1
 40
1
 40
1
 10
145.440000
 20
536.800000
 30
0.0
 10
139.680000
 20
535.520000
 30
0.0
 10
128.240000
 20
535.120000
 30
0.0
 10
120.960000
 20
535.920000
 30
0.0
  0
LINE
  5
128
100
AcDbEntity
  8
0
 62
7
100
AcDbLine
 10
120.960000
 20
535.920000
 30
0.0
 11
114.800000
 21
536.560000
 31
0.0
  0
LINE
  5
129
100
AcDbEntity
  8
0
 62
7
100
AcDbLine
 10
114.800000
 20
536.560000
 30
0.0
 11
111.760000
 21
534.080000
 31
0.0
  0
SPLINE
  5
12a
100
AcDbEntity
  8
0
 62
7
100
AcDbSpline
 70
8
 71
3
 72
8
 73
4
 74
0
 40
0
 40
0
 40
0
 40
0
 40
1
 40
1
 40
1
 40
1
 10
111.760000
 20
534.080000
 30
0.0
 10
108.160000
 20
531.120000
 30
0.0
 10
108.000000
 20
530.320000
 30
0.0
 10
110.400000
 20
527.920000
 30
0.0
  0
SPLINE
  5
12b
100
AcDbEntity
  8
0
 62
7
100
AcDbSpline
 70
8
 71
3
 72
8
 73
4
 74
0
 40
0
 40
0
 40
0
 40
0
 40
1
 40
1
 40
1
 40
1
 10
110.400000
 20
527.920000
 30
0.0
 10
111.360000
 20
526.960000
 30
0.0
 10
114.880000
 20
522.160000
 30
0.0
 10
118.240000
 20
517.280000
 30
0.0
  0
LINE
  5
12c
100
AcDbEntity
  8
0
 62
7
100
AcDbLine
 10
118.240000
 20
517.280000
 30
0.0
 11
124.240000
 21
508.400000
 31
0.0
  0
LINE
  5
12d
100
AcDbEntity
  8
0
 62
7
100
AcDbLine
 10
124.240000
 20
508.400000
 30
0.0
 11
124.800000
 21
493.760000
 31
0.0
  0
SPLINE
  5
12e
100
AcDbEntity
  8
0
 62
7
100
AcDbSpline
 70
8
 71
3
 72
8
 73
4
 74
0
 40
0
 40
0
 40
0
 40
0
 40
1
 40
1
 40
1
 40
1
 10
124.800000
 20
493.760000
 30
0.0
 10
125.120000
 20
485.680000
 30
0.0
 10
125.840000
 20
478.080000
 30
0.0
 10
126.400000
 20
476.880000
 30
0.0
  0
SPLINE
  5
12f
100
AcDbEntity
  8
0
 62
7
100
AcDbSpline
 70
8
 71
3
 72
8
 73
4
 74
0
 40
0
 40
0
 40
0
 40
0
 40
1
 40
1
 40
1
 40
1
 10
126.400000
 20
476.880000
 30
0.0
 10
128.160000
 20
473.040000
 30
0.0
 10
132.560000
 20
466.480000
 30
0.0
 10
133.280000
 20
466.480000
 30
0.0
  0
SPLINE
  5
130
100
AcDbEntity
  8
0
 62
7
100
AcDbSpline
 70
8
 71
3
 72
8
 73
4
 74
0
 40
0
 40
0
 40
0
 40
0
 40
1
 40
1
 40
1
 40
1
 10
133.280000
 20
466.480000
 30
0.0
 10
133.760000
 20
466.480000
 30
0.0
 10
135.920000
 20
467.920000
 30
0.0
 10
138.160000
 20
469.680000
 30
0.0
  0
SPLINE
  5
131
100
AcDbEntity
  8
0
 62
7
100
AcDbSpline
 70
8
 71
3
 72
8
 73
4
 74
0
 40
0
 40
0
 40
0
 40
0
 40
1
 40
1
 40
1
 40
1
 10
138.160000
 20
469.680000
 30
0.0
 10
147.280000
 20
476.960000
 30
0.0
 10
150.480000
 20
478.480000
 30
0.0
 10
154.640000
 20
477.920000
 30
0.0
  0
SPLINE
  5
132
100
AcDbEntity
  8
0
 62
7
100
AcDbSpline
 70
8
 71
3
 72
8
 73
4
 74
0
 40
0
 40
0
 40
0
 40
0
 40
1
 40
1
 40
1
 40
1
 10
154.640000
 20
477.920000
 30
0.0
 10
156.960000
 20
477.600000
 30
0.0
 10
158.320000
 20
475.440000
 30
0.0
 10
160.720000
 20
468.160000
 30
0.0
  0
SPLINE
  5
133
100
AcDbEntity
  8
0
 62
7
100
AcDbSpline
 70
8
 71
3
 72
8
 73
4
 74
0
 40
0
 40
0
 40
0
 40
0
 40
1
 40
1
 40
1
 40
1
 10
160.720000
 20
468.160000
 30
0.0
 10
161.840000
 20
464.800000
 30
0.0
 10
164.000000
 20
459.120000
 30
0.0
 10
165.520000
 20
455.520000
 30
0.0
  0
SPLINE
  5
134
100
AcDbEntity
  8
0
 62
7
100
AcDbSpline
 70
8
 71
3
 72
8
 73
4
 74
0
 40
0
 40
0
 40
0
 40
0
 40
1
 40
1
 40
1
 40
1
 10
165.520000
 20
455.520000
 30
0.0
 10
168.960000
 20
447.680000
 30
0.0
 10
169.920000
 20
440.880000
 30
0.0
 10
168.240000
 20
437.680000
 30
0.0
  0
SPLINE
  5
135
100
AcDbEntity
  8
0
 62
7
100
AcDbSpline
 70
8
 71
3
 72
8
 73
4
 74
0
 40
0
 40
0
 40
0
 40
0
 40
1
 40
1
 40
1
 40
1
 10
168.240000
 20
437.680000
 30
0.0
 10
165.840000
 20
433.360000
 30
0.0
 10
158.400000
 20
426.560000
 30
0.0
 10
147.040000
 20
418.240000
 30
0.0
  0
SPLINE
  5
136
100
AcDbEntity
  8
0
 62
7
100
AcDbSpline
 70
8
 71
3
 72
8
 73
4
 74
0
 40
0
 40
0
 40
0
 40
0
 40
1
 40
1
 40
1
 40
1
 10
147.040000
 20
418.240000
 30
0.0
 10
140.800000
 20
413.600000
 30
0.0
 10
135.040000
 20
409.840000
 30
0.0
 10
134.240000
 20
409.840000
 30
0.0
  0
SPLINE
  5
137
100
AcDbEntity
  8
0
 62
7
100
AcDbSpline
 70
8
 71
3
 72
8
 73
4
 74
0
 40
0
 40
0
 40
0
 40
0
 40
1
 40
1
 40
1
 40
1
 10
134.240000
 20
409.840000
 30
0.0
 10
132.400000
 20
409.840000
 30
0.0
 10
119.200000
 20
419.200000
 30
0.0
 10
112.000000
 20
425.520000
 30
0.0
  0
SPLINE
  5
138
100
AcDbEntity
  8
0
 62
7
100
AcDbSpline
 70
8
 71
3
 72
8
 73
4
 74
0
 40
0
 40
0
 40
0
 40
0
 40
1
 40
1
 40
1
 40
1
 10
112.000000
 20
425.520000
 30
0.0
 10
109.120000
 20
428.000000
 30
0.0
 10
105.680000
 20
431.840000
 30
0.0
 10
104.400000
 20
433.920000
 30
0.0
  0
SPLINE
  5
139
100
AcDbEntity
  8
0
 62
7
100
AcDbSpline
 70
8
 71
3
 72
8
 73
4
 74
0
 40
0
 40
0
 40
0
 40
0
 40
1
 40
1
 40
1
 40
1
 10
104.400000
 20
433.920000
 30
0.0
 10
102.240000
 20
437.280000
 30
0.0
 10
102.080000
 20
438.000000
 30
0.0
 10
102.960000
 20
440.880000
 30
0.0
  0
SPLINE
  5
13a
100
AcDbEntity
  8
0
 62
7
100
AcDbSpline
 70
8
 71
3
 72
8
 73
4
 74
0
 40
0
 40
0
 40
0
 40
0
 40
1
 40
1
 40
1
 40
1
 10
102.960000
 20
440.880000
 30
0.0
 10
103.520000
 20
442.640000
 30
0.0
 10
104.560000
 20
445.200000
 30
0.0
 10
105.360000
 20
446.560000
 30
0.0
  0
SPLINE
  5
13b
100
AcDbEntity
  8
0
 62
7
100
AcDbSpline
 70
8
 71
3
 72
8
 73
4
 74
0
 40
0
 40
0
 40
0
 40
0
 40
1
 40
1
 40
1
 40
1
 10
105.360000
 20
446.560000
 30
0.0
 10
106.800000
 20
448.960000
 30
0.0
 10
106.720000
 20
449.040000
 30
0.0
 10
103.200000
 20
452.720000
 30
0.0
  0
SPLINE
  5
13c
100
AcDbEntity
  8
0
 62
7
100
AcDbSpline
 70
8
 71
3
 72
8
 73
4
 74
0
 40
0
 40
0
 40
0
 40
0
 40
1
 40
1
 40
1
 40
1
 10
103.200000
 20
452.720000
 30
0.0
 10
96.720000
 20
459.600000
 30
0.0
 10
90.640000
 20
463.760000
 30
0.0
 10
86.000000
 20
464.480000
 30
0.0
  0
SPLINE
  5
13d
100
AcDbEntity
  8
0
 62
7
100
AcDbSpline
 70
8
 71
3
 72
8
 73
4
 74
0
 40
0
 40
0
 40
0
 40
0
 40
1
 40
1
 40
1
 40
1
 10
86.000000
 20
464.480000
 30
0.0
 10
71.520000
 20
466.800000
 30
0.0
 10
56.000000
 20
477.280000
 30
0.0
 10
47.680000
 20
490.400000
 30
0.0
  0
SPLINE
  5
13e
100
AcDbEntity
  8
0
 62
7
100
AcDbSpline
 70
8
 71
3
 72
8
 73
4
 74
0
 40
0
 40
0
 40
0
 40
0
 40
1
 40
1
 40
1
 40
1
 10
47.680000
 20
490.400000
 30
0.0
 10
44.160000
 20
496.000000
 30
0.0
 10
39.120000
 20
506.480000
 30
0.0
 10
38.160000
 20
510.080000
 30
0.0
  0
SPLINE
  5
13f
100
AcDbEntity
  8
0
 62
7
100
AcDbSpline
 70
8
 71
3
 72
8
 73
4
 74
0
 40
0
 40
0
 40
0
 40
0
 40
1
 40
1
 40
1
 40
1
 10
38.160000
 20
510.080000
 30
0.0
 10
37.840000
 20
511.440000
 30
0.0
 10
36.640000
 20
513.840000
 30
0.0
 10
35.600000
 20
515.520000
 30
0.0
  0
SPLINE
  5
140
100
AcDbEntity
  8
0
 62
7
100
AcDbSpline
 70
8
 71
3
 72
8
 73
4
 74
0
 40
0
 40
0
 40
0
 40
0
 40
1
 40
1
 40
1
 40
1
 10
35.600000
 20
515.520000
 30
0.0
 10
33.120000
 20
519.440000
 30
0.0
 10
30.160000
 20
526.320000
 30
0.0
 10
30.160000
 20
528.240000
 30
0.0
  0
SPLINE
  5
141
100
AcDbEntity
  8
0
 62
7
100
AcDbSpline
 70
8
 71
3
 72
8
 73
4
 74
0
 40
0
 40
0
 40
0
 40
0
 40
1
 40
1
 40
1
 40
1
 10
30.160000
 20
528.240000
 30
0.0
 10
30.160000
 20
529.040000
 30
0.0
 10
32.320000
 20
533.040000
 30
0.0
 10
34.960000
 20
537.040000
 30
0.0
  0
SPLINE
  5
142
100
AcDbEntity
  8
0
 62
7
100
AcDbSpline
 70
8
 71
3
 72
8
 73
4
 74
0
 40
0
 40
0
 40
0
 40
0
 40
1
 40
1
 40
1
 40
1
 10
34.960000
 20
537.040000
 30
0.0
 10
37.600000
 20
541.040000
 30
0.0
 10
41.200000
 20
547.440000
 30
0.0
 10
42.960000
 20
551.280000
 30
0.0
  0
SPLINE
  5
143
100
AcDbEntity
  8
0
 62
7
100
AcDbSpline
 70
8
 71
3
 72
8
 73
4
 74
0
 40
0
 40
0
 40
0
 40
0
 40
1
 40
1
 40
1
 40
1
 10
42.960000
 20
551.280000
 30
0.0
 10
55.120000
 20
578.000000
 30
0.0
 10
56.480000
 20
580.320000
 30
0.0
 10
63.200000
 20
586.800000
 30
0.0
  0
SPLINE
  5
144
100
AcDbEntity
  8
0
 62
7
100
AcDbSpline
 70
8
 71
3
 72
8
 73
4
 74
0
 40
0
 40
0
 40
0
 40
0
 40
1
 40
1
 40
1
 40
1
 10
63.200000
 20
586.800000
 30
0.0
 10
76.960000
 20
600.000000
 30
0.0
 10
77.600000
 20
601.040000
 30
0.0
 10
81.600000
 20
615.120000
 30
0.0
  0
SPLINE
  5
145
100
AcDbEntity
  8
0
 62
7
100
AcDbSpline
 70
8
 71
3
 72
8
 73
4
 74
0
 40
0
 40
0
 40
0
 40
0
 40
1
 40
1
 40
1
 40
1
 10
81.600000
 20
615.120000
 30
0.0
 10
87.120000
 20
634.800000
 30
0.0
 10
87.280000
 20
635.120000
 30
0.0
 10
94.400000
 20
640.560000
 30
0.0
  0
SPLINE
  5
146
100
AcDbEntity
  8
0
 62
7
100
AcDbSpline
 70
8
 71
3
 72
8
 73
4
 74
0
 40
0
 40
0
 40
0
 40
0
 40
1
 40
1
 40
1
 40
1
 10
94.400000
 20
640.560000
 30
0.0
 10
97.760000
 20
643.120000
 30
0.0
 10
103.360000
 20
646.640000
 30
0.0
 10
106.720000
 20
648.400000
 30
0.0
  0
SPLINE
  5
147
100
AcDbEntity
  8
0
 62
7
100
AcDbSpline
 70
8
 71
3
 72
8
 73
4
 74
0
 40
0
 40
0
 40
0
 40
0
 40
1
 40
1
 40
1
 40
1
 10
106.720000
 20
648.400000
 30
0.0
 10
110.080000
 20
650.080000
 30
0.0
 10
113.120000
 20
651.680000
 30
0.0
 10
113.360000
 20
651.840000
 30
0.0
  0
SPLINE
  5
148
100
AcDbEntity
  8
0
 62
7
100
AcDbSpline
 70
8
 71
3
 72
8
 73
4
 74
0
 40
0
 40
0
 40
0
 40
0
 40
1
 40
1
 40
1
 40
1
 10
113.360000
 20
651.840000
 30
0.0
 10
114.240000
 20
652.560000
 30
0.0
 10
119.360000
 20
654.560000
 30
0.0
 10
126.400000
 20
657.120000
 30
0.0
  0
LINE
  5
149
100
AcDbEntity
  8
0
 62
7
100
AcDbLine
 10
126.400000
 20
657.120000
 30
0.0
 11
133.280000
 21
659.600000
 31
0.0
  0
LINE
  5
14a
100
AcDbEntity
  8
0
 62
7
100
AcDbLine
 10
133.280000
 20
659.600000
 30
0.0
 11
137.040000
 21
665.440000
 31
0.0
  0
SPLINE
  5
14b
100
AcDbEntity
  8
0
 62
7
100
AcDbSpline
 70
8
 71
3
 72
8
 73
4
 74
0
 40
0
 40
0
 40
0
 40
0
 40
1
 40
1
 40
1
 40
1
 10
137.040000
 20
665.440000
 30
0.0
 10
142.880000
 20
674.480000
 30
0.0
 10
150.560000
 20
683.200000
 30
0.0
 10
157.600000
 20
689.120000
 30
0.0
  0
SPLINE
  5
14c
100
AcDbEntity
  8
0
 62
7
100
AcDbSpline
 70
8
 71
3
 72
8
 73
4
 74
0
 40
0
 40
0
 40
0
 40
0
 40
1
 40
1
 40
1
 40
1
 10
157.600000
 20
689.120000
 30
0.0
 10
162.880000
 20
693.520000
 30
0.0
 10
165.360000
 20
694.960000
 30
0.0
 10
171.120000
 20
697.040000
 30
0.0
  0
SPLINE
  5
14d
100
AcDbEntity
  8
0
 62
7
100
AcDbSpline
 70
8
 71
3
 72
8
 73
4
 74
0
 40
0
 40
0
 40
0
 40
0
 40
1
 40
1
 40
1
 40
1
 10
171.120000
 20
697.040000
 30
0.0
 10
183.120000
 20
701.440000
 30
0.0
 10
203.360000
 20
704.400000
 30
0.0
 10
221.200000
 20
704.400000
 30
0.0
  0
SPLINE
  5
14e
100
AcDbEntity
  8
0
 62
7
100
AcDbSpline
 70
8
 71
3
 72
8
 73
4
 74
0
 40
0
 40
0
 40
0
 40
0
 40
1
 40
1
 40
1
 40
1
 10
221.200000
 20
704.400000
 30
0.0
 10
230.400000
 20
704.400000
 30
0.0
 10
242.160000
 20
703.360000
 30
0.0
 10
254.000000
 20
701.680000
 30
0.0
  0
LINE
  5
14f
100
AcDbEntity
  8
0
 62
7
100
AcDbLine
 10
254.000000
 20
701.680000
 30
0.0
 11
258.880000
 21
700.960000
 31
0.0
  0
LINE
  5
150
100
AcDbEntity
  8
0
 62
7
100
AcDbLine
 10
258.880000
 20
700.960000
 30
0.0
 11
265.360000
 21
704.320000
 31
0.0
  0
SPLINE
  5
151
100
AcDbEntity
  8
0
 62
7
100
AcDbSpline
 70
8
 71
3
 72
8
 73
4
 74
0
 40
0
 40
0
 40
0
 40
0
 40
1
 40
1
 40
1
 40
1
 10
265.360000
 20
704.320000
 30
0.0
 10
272.400000
 20
708.000000
 30
0.0
 10
291.920000
 20
715.680000
 30
0.0
 10
292.720000
 20
715.120000
 30
0.0
  0
SPLINE
  5
152
100
AcDbEntity
  8
0
 62
7
100
AcDbSpline
 70
8
 71
3
 72
8
 73
4
 74
0
 40
0
 40
0
 40
0
 40
0
 40
1
 40
1
 40
1
 40
1
 10
292.720000
 20
715.120000
 30
0.0
 10
293.040000
 20
714.880000
 30
0.0
 10
294.160000
 20
711.040000
 30
0.0
 10
295.280000
 20
706.480000
 30
0.0
  0
SPLINE
  5
153
100
AcDbEntity
  8
0
 62
7
100
AcDbSpline
 70
8
 71
3
 72
8
 73
4
 74
0
 40
0
 40
0
 40
0
 40
0
 40
1
 40
1
 40
1
 40
1
 10
295.280000
 20
706.480000
 30
0.0
 10
296.320000
 20
702.000000
 30
0.0
 10
297.440000
 20
698.400000
 30
0.0
 10
297.680000
 20
698.560000
 30
0.0
  0
SPLINE
  5
154
100
AcDbEntity
  8
0
 62
7
100
AcDbSpline
 70
8
 71
3
 72
8
 73
4
 74
0
 40
0
 40
0
 40
0
 40
0
 40
1
 40
1
 40
1
 40
1
 10
297.680000
 20
698.560000
 30
0.0
 10
297.920000
 20
698.800000
 30
0.0
 10
298.160000
 20
710.560000
 30
0.0
 10
298.240000
 20
724.720000
 30
0.0
  0
SPLINE
  5
155
100
AcDbEntity
  8
0
 62
7
100
AcDbSpline
 70
8
 71
3
 72
8
 73
4
 74
0
 40
0
 40
0
 40
0
 40
0
 40
1
 40
1
 40
1
 40
1
 10
298.240000
 20
724.720000
 30
0.0
 10
298.240000
 20
744.960000
 30
0.0
 10
298.560000
 20
750.800000
 30
0.0
 10
299.520000
 20
751.600000
 30
0.0
  0
SPLINE
  5
156
100
AcDbEntity
  8
0
 62
7
100
AcDbSpline
 70
8
 71
3
 72
8
 73
4
 74
0
 40
0
 40
0
 40
0
 40
0
 40
1
 40
1
 40
1
 40
1
 10
299.520000
 20
751.600000
 30
0.0
 10
301.200000
 20
753.120000
 30
0.0
 10
314.640000
 20
757.680000
 30
0.0
 10
324.080000
 20
760.000000
 30
0.0
  0
LINE
  5
157
100
AcDbEntity
  8
0
 62
7
100
AcDbLine
 10
324.080000
 20
760.000000
 30
0.0
 11
331.920000
 21
761.920000
 31
0.0
  0
LINE
  5
158
100
AcDbEntity
  8
0
 62
7
100
AcDbLine
 10
331.920000
 20
761.920000
 30
0.0
 11
338.320000
 21
760.320000
 31
0.0
  0
SPLINE
  5
159
100
AcDbEntity
  8
0
 62
7
100
AcDbSpline
 70
8
 71
3
 72
8
 73
4
 74
0
 40
0
 40
0
 40
0
 40
0
 40
1
 40
1
 40
1
 40
1
 10
338.320000
 20
760.320000
 30
0.0
 10
346.320000
 20
758.400000
 30
0.0
 10
356.000000
 20
754.320000
 30
0.0
 10
360.160000
 20
751.200000
 30
0.0
  0
LINE
  5
15a
100
AcDbEntity
  8
0
 62
7
100
AcDbLine
 10
360.160000
 20
751.200000
 30
0.0
 11
363.360000
 21
748.800000
 31
0.0
  0
LINE
  5
15b
100
AcDbEntity
  8
0
 62
7
100
AcDbLine
 10
363.360000
 20
748.800000
 30
0.0
 11
362.720000
 21
734.240000
 31
0.0
  0
SPLINE
  5
15c
100
AcDbEntity
  8
0
 62
7
100
AcDbSpline
 70
8
 71
3
 72
8
 73
4
 74
0
 40
0
 40
0
 40
0
 40
0
 40
1
 40
1
 40
1
 40
1
 10
362.720000
 20
734.240000
 30
0.0
 10
362.400000
 20
726.240000
 30
0.0
 10
361.840000
 20
718.480000
 30
0.0
 10
361.600000
 20
716.960000
 30
0.0
  0
LINE
  5
15d
100
AcDbEntity
  8
0
 62
7
100
AcDbLine
 10
361.600000
 20
716.960000
 30
0.0
 11
361.040000
 21
714.080000
 31
0.0
  0
LINE
  5
15e
100
AcDbEntity
  8
0
 62
7
100
AcDbLine
 10
361.040000
 20
714.080000
 30
0.0
 11
366.560000
 21
711.680000
 31
0.0
  0
SPLINE
  5
15f
100
AcDbEntity
  8
0
 62
7
100
AcDbSpline
 70
8
 71
3
 72
8
 73
4
 74
0
 40
0
 40
0
 40
0
 40
0
 40
1
 40
1
 40
1
 40
1
 10
366.560000
 20
711.680000
 30
0.0
 10
369.600000
 20
710.320000
 30
0.0
 10
376.000000
 20
707.120000
 30
0.0
 10
380.800000
 20
704.560000
 30
0.0
  0
LINE
  5
160
100
AcDbEntity
  8
0
 62
7
100
AcDbLine
 10
380.800000
 20
704.560000
 30
0.0
 11
389.600000
 21
699.760000
 31
0.0
  0
LINE
  5
161
100
AcDbEntity
  8
0
 62
7
100
AcDbLine
 10
389.600000
 20
699.760000
 30
0.0
 11
400.240000
 21
699.360000
 31
0.0
  0
SPLINE
  5
162
100
AcDbEntity
  8
0
 62
7
100
AcDbSpline
 70
8
 71
3
 72
8
 73
4
 74
0
 40
0
 40
0
 40
0
 40
0
 40
1
 40
1
 40
1
 40
1
 10
400.240000
 20
699.360000
 30
0.0
 10
414.240000
 20
698.720000
 30
0.0
 10
427.680000
 20
697.680000
 30
0.0
 10
433.600000
 20
696.800000
 30
0.0
  0
SPLINE
  5
163
100
AcDbEntity
  8
0
 62
7
100
AcDbSpline
 70
8
 71
3
 72
8
 73
4
 74
0
 40
0
 40
0
 40
0
 40
0
 40
1
 40
1
 40
1
 40
1
 10
433.600000
 20
696.800000
 30
0.0
 10
442.000000
 20
695.440000
 30
0.0
 10
443.040000
 20
694.720000
 30
0.0
 10
445.440000
 20
689.280000
 30
0.0
  0
SPLINE
  5
164
100
AcDbEntity
  8
0
 62
7
100
AcDbSpline
 70
8
 71
3
 72
8
 73
4
 74
0
 40
0
 40
0
 40
0
 40
0
 40
1
 40
1
 40
1
 40
1
 10
445.440000
 20
689.280000
 30
0.0
 10
449.840000
 20
678.800000
 30
0.0
 10
454.320000
 20
660.080000
 30
0.0
 10
455.920000
 20
645.600000
 30
0.0
  0
SPLINE
  5
165
100
AcDbEntity
  8
0
 62
7
100
AcDbSpline
 70
8
 71
3
 72
8
 73
4
 74
0
 40
0
 40
0
 40
0
 40
0
 40
1
 40
1
 40
1
 40
1
 10
455.920000
 20
645.600000
 30
0.0
 10
456.880000
 20
637.120000
 30
0.0
 10
457.200000
 20
635.760000
 30
0.0
 10
458.320000
 20
636.720000
 30
0.0
  0
SPLINE
  5
166
100
AcDbEntity
  8
0
 62
7
100
AcDbSpline
 70
8
 71
3
 72
8
 73
4
 74
0
 40
0
 40
0
 40
0
 40
0
 40
1
 40
1
 40
1
 40
1
 10
458.320000
 20
636.720000
 30
0.0
 10
458.960000
 20
637.360000
 30
0.0
 10
459.520000
 20
638.720000
 30
0.0
 10
459.600000
 20
639.600000
 30
0.0
  0
SPLINE
  5
167
100
AcDbEntity
  8
0
 62
7
100
AcDbSpline
 70
8
 71
3
 72
8
 73
4
 74
0
 40
0
 40
0
 40
0
 40
0
 40
1
 40
1
 40
1
 40
1
 10
459.600000
 20
639.600000
 30
0.0
 10
459.680000
 20
642.720000
 30
0.0
 10
461.200000
 20
639.600000
 30
0.0
 10
462.320000
 20
633.840000
 30
0.0
  0
SPLINE
  5
168
100
AcDbEntity
  8
0
 62
7
100
AcDbSpline
 70
8
 71
3
 72
8
 73
4
 74
0
 40
0
 40
0
 40
0
 40
0
 40
1
 40
1
 40
1
 40
1
 10
462.320000
 20
633.840000
 30
0.0
 10
464.080000
 20
624.800000
 30
0.0
 10
465.360000
 20
606.640000
 30
0.0
 10
465.120000
 20
593.440000
 30
0.0
  0
SPLINE
  5
169
100
AcDbEntity
  8
0
 62
7
100
AcDbSpline
 70
8
 71
3
 72
8
 73
4
 74
0
 40
0
 40
0
 40
0
 40
0
 40
1
 40
1
 40
1
 40
1
 10
465.120000
 20
593.440000
 30
0.0
 10
464.960000
 20
586.640000
 30
0.0
 10
465.120000
 20
580.880000
 30
0.0
 10
465.440000
 20
580.640000
 30
0.0
  0
SPLINE
  5
16a
100
AcDbEntity
  8
0
 62
7
100
AcDbSpline
 70
8
 71
3
 72
8
 73
4
 74
0
 40
0
 40
0
 40
0
 40
0
 40
1
 40
1
 40
1
 40
1
 10
465.440000
 20
580.640000
 30
0.0
 10
465.840000
 20
580.400000
 30
0.0
 10
466.720000
 20
581.280000
 30
0.0
 10
467.520000
 20
582.640000
 30
0.0
  0
SPLINE
  5
16b
100
AcDbEntity
  8
0
 62
7
100
AcDbSpline
 70
8
 71
3
 72
8
 73
4
 74
0
 40
0
 40
0
 40
0
 40
0
 40
1
 40
1
 40
1
 40
1
 10
467.520000
 20
582.640000
 30
0.0
 10
468.320000
 20
584.000000
 30
0.0
 10
469.360000
 20
585.120000
 30
0.0
 10
469.840000
 20
585.120000
 30
0.0
  0
SPLINE
  5
16c
100
AcDbEntity
  8
0
 62
7
100
AcDbSpline
 70
8
 71
3
 72
8
 73
4
 74
0
 40
0
 40
0
 40
0
 40
0
 40
1
 40
1
 40
1
 40
1
 10
469.840000
 20
585.120000
 30
0.0
 10
471.200000
 20
585.120000
 30
0.0
 10
490.000000
 20
571.680000
 30
0.0
 10
495.040000
 20
567.040000
 30
0.0
  0
SPLINE
  5
16d
100
AcDbEntity
  8
0
 62
7
100
AcDbSpline
 70
8
 71
3
 72
8
 73
4
 74
0
 40
0
 40
0
 40
0
 40
0
 40
1
 40
1
 40
1
 40
1
 10
495.040000
 20
567.040000
 30
0.0
 10
501.360000
 20
561.360000
 30
0.0
 10
502.720000
 20
558.560000
 30
0.0
 10
506.960000
 20
543.520000
 30
0.0
  0
SPLINE
  5
16e
100
AcDbEntity
  8
0
 62
7
100
AcDbSpline
 70
8
 71
3
 72
8
 73
4
 74
0
 40
0
 40
0
 40
0
 40
0
 40
1
 40
1
 40
1
 40
1
 10
506.960000
 20
543.520000
 30
0.0
 10
509.600000
 20
534.000000
 30
0.0
 10
511.520000
 20
528.960000
 30
0.0
 10
513.600000
 20
525.920000
 30
0.0
  0
SPLINE
  5
16f
100
AcDbEntity
  8
0
 62
7
100
AcDbSpline
 70
8
 71
3
 72
8
 73
4
 74
0
 40
0
 40
0
 40
0
 40
0
 40
1
 40
1
 40
1
 40
1
 10
513.600000
 20
525.920000
 30
0.0
 10
516.480000
 20
521.680000
 30
0.0
 10
524.640000
 20
513.600000
 30
0.0
 10
526.080000
 20
513.520000
 30
0.0
  0
SPLINE
  5
170
100
AcDbEntity
  8
0
 62
7
100
AcDbSpline
 70
8
 71
3
 72
8
 73
4
 74
0
 40
0
 40
0
 40
0
 40
0
 40
1
 40
1
 40
1
 40
1
 10
526.080000
 20
513.520000
 30
0.0
 10
526.560000
 20
513.520000
 30
0.0
 10
531.440000
 20
515.040000
 30
0.0
 10
537.040000
 20
516.880000
 30
0.0
  0
SPLINE
  5
171
100
AcDbEntity
  8
0
 62
7
100
AcDbSpline
 70
8
 71
3
 72
8
 73
4
 74
0
 40
0
 40
0
 40
0
 40
0
 40
1
 40
1
 40
1
 40
1
 10
537.040000
 20
516.880000
 30
0.0
 10
542.640000
 20
518.800000
 30
0.0
 10
548.480000
 20
520.480000
 30
0.0
 10
550.000000
 20
520.720000
 30
0.0
  0
SPLINE
  5
172
100
AcDbEntity
  8
0
 62
7
100
AcDbSpline
 70
8
 71
3
 72
8
 73
4
 74
0
 40
0
 40
0
 40
0
 40
0
 40
1
 40
1
 40
1
 40
1
 10
550.000000
 20
520.720000
 30
0.0
 10
556.320000
 20
521.600000
 30
0.0
 10
559.440000
 20
516.640000
 30
0.0
 10
560.480000
 20
503.920000
 30
0.0
  0
LINE
  5
173
100
AcDbEntity
  8
0
 62
7
100
AcDbLine
 10
560.480000
 20
503.920000
 30
0.0
 11
561.040000
 21
496.800000
 31
0.0
  0
LINE
  5
174
100
AcDbEntity
  8
0
 62
7
100
AcDbLine
 10
561.040000
 20
496.800000
 30
0.0
 11
556.320000
 21
489.600000
 31
0.0
  0
SPLINE
  5
175
100
AcDbEntity
  8
0
 62
7
100
AcDbSpline
 70
8
 71
3
 72
8
 73
4
 74
0
 40
0
 40
0
 40
0
 40
0
 40
1
 40
1
 40
1
 40
1
 10
556.320000
 20
489.600000
 30
0.0
 10
550.480000
 20
480.880000
 30
0.0
 10
548.880000
 20
477.520000
 30
0.0
 10
548.080000
 20
472.240000
 30
0.0
  0
SPLINE
  5
176
100
AcDbEntity
  8
0
 62
7
100
AcDbSpline
 70
8
 71
3
 72
8
 73
4
 74
0
 40
0
 40
0
 40
0
 40
0
 40
1
 40
1
 40
1
 40
1
 10
548.080000
 20
472.240000
 30
0.0
 10
547.040000
 20
465.200000
 30
0.0
 10
546.960000
 20
465.120000
 30
0.0
 10
543.360000
 20
465.120000
 30
0.0
  0
SPLINE
  5
177
100
AcDbEntity
  8
0
 62
7
100
AcDbSpline
 70
8
 71
3
 72
8
 73
4
 74
0
 40
0
 40
0
 40
0
 40
0
 40
1
 40
1
 40
1
 40
1
 10
543.360000
 20
465.120000
 30
0.0
 10
541.600000
 20
465.120000
 30
0.0
 10
539.200000
 20
465.680000
 30
0.0
 10
538.000000
 20
466.400000
 30
0.0
  0
SPLINE
  5
178
100
AcDbEntity
  8
0
 62
7
100
AcDbSpline
 70
8
 71
3
 72
8
 73
4
 74
0
 40
0
 40
0
 40
0
 40
0
 40
1
 40
1
 40
1
 40
1
 10
538.000000
 20
466.400000
 30
0.0
 10
535.760000
 20
467.680000
 30
0.0
 10
535.760000
 20
468.000000
 30
0.0
 10
535.440000
 20
480.000000
 30
0.0
  0
SPLINE
  5
179
100
AcDbEntity
  8
0
 62
7
100
AcDbSpline
 70
8
 71
3
 72
8
 73
4
 74
0
 40
0
 40
0
 40
0
 40
0
 40
1
 40
1
 40
1
 40
1
 10
535.440000
 20
480.000000
 30
0.0
 10
535.280000
 20
486.800000
 30
0.0
 10
534.960000
 20
492.400000
 30
0.0
 10
534.720000
 20
492.400000
 30
0.0
  0
SPLINE
  5
17a
100
AcDbEntity
  8
0
 62
7
100
AcDbSpline
 70
8
 71
3
 72
8
 73
4
 74
0
 40
0
 40
0
 40
0
 40
0
 40
1
 40
1
 40
1
 40
1
 10
534.720000
 20
492.400000
 30
0.0
 10
534.160000
 20
492.400000
 30
0.0
 10
528.800000
 20
488.000000
 30
0.0
 10
526.960000
 20
486.160000
 30
0.0
  0
SPLINE
  5
17b
100
AcDbEntity
  8
0
 62
7
100
AcDbSpline
 70
8
 71
3
 72
8
 73
4
 74
0
 40
0
 40
0
 40
0
 40
0
 40
1
 40
1
 40
1
 40
1
 10
526.960000
 20
486.160000
 30
0.0
 10
525.200000
 20
484.320000
 30
0.0
 10
526.720000
 20
484.560000
 30
0.0
 10
530.000000
 20
486.560000
 30
0.0
  0
SPLINE
  5
17c
100
AcDbEntity
  8
0
 62
7
100
AcDbSpline
 70
8
 71
3
 72
8
 73
4
 74
0
 40
0
 40
0
 40
0
 40
0
 40
1
 40
1
 40
1
 40
1
 10
530.000000
 20
486.560000
 30
0.0
 10
531.520000
 20
487.520000
 30
0.0
 10
532.800000
 20
488.240000
 30
0.0
 10
532.800000
 20
488.240000
 30
0.0
  0
SPLINE
  5
17d
100
AcDbEntity
  8
0
 62
7
100
AcDbSpline
 70
8
 71
3
 72
8
 73
4
 74
0
 40
0
 40
0
 40
0
 40
0
 40
1
 40
1
 40
1
 40
1
 10
532.800000
 20
488.240000
 30
0.0
 10
532.880000
 20
488.240000
 30
0.0
 10
532.880000
 20
483.040000
 30
0.0
 10
532.880000
 20
476.640000
 30
0.0
  0
LINE
  5
17e
100
AcDbEntity
  8
0
 62
7
100
AcDbLine
 10
532.880000
 20
476.640000
 30
0.0
 11
532.880000
 21
464.960000
 31
0.0
  0
LINE
  5
17f
100
AcDbEntity
  8
0
 62
7
100
AcDbLine
 10
532.880000
 20
464.960000
 30
0.0
 11
536.000000
 21
462.960000
 31
0.0
  0
SPLINE
  5
180
100
AcDbEntity
  8
0
 62
7
100
AcDbSpline
 70
8
 71
3
 72
8
 73
4
 74
0
 40
0
 40
0
 40
0
 40
0
 40
1
 40
1
 40
1
 40
1
 10
536.000000
 20
462.960000
 30
0.0
 10
538.640000
 20
461.280000
 30
0.0
 10
539.840000
 20
461.040000
 30
0.0
 10
544.320000
 20
461.040000
 30
0.0
  0
SPLINE
  5
181
100
AcDbEntity
  8
0
 62
7
100
AcDbSpline
 70
8
 71
3
 72
8
 73
4
 74
0
 40
0
 40
0
 40
0
 40
0
 40
1
 40
1
 40
1
 40
1
 10
544.320000
 20
461.040000
 30
0.0
 10
550.640000
 20
461.040000
 30
0.0
 10
550.720000
 20
461.200000
 30
0.0
 10
552.240000
 20
470.880000
 30
0.0
  0
SPLINE
  5
182
100
AcDbEntity
  8
0
 62
7
100
AcDbSpline
 70
8
 71
3
 72
8
 73
4
 74
0
 40
0
 40
0
 40
0
 40
0
 40
1
 40
1
 40
1
 40
1
 10
552.240000
 20
470.880000
 30
0.0
 10
553.040000
 20
476.320000
 30
0.0
 10
553.920000
 20
478.720000
 30
0.0
 10
556.480000
 20
482.480000
 30
0.0
  0
SPLINE
  5
183
100
AcDbEntity
  8
0
 62
7
100
AcDbSpline
 70
8
 71
3
 72
8
 73
4
 74
0
 40
0
 40
0
 40
0
 40
0
 40
1
 40
1
 40
1
 40
1
 10
556.480000
 20
482.480000
 30
0.0
 10
558.320000
 20
485.200000
 30
0.0
 10
560.640000
 20
487.920000
 30
0.0
 10
561.680000
 20
488.560000
 30
0.0
  0
SPLINE
  5
184
100
AcDbEntity
  8
0
 62
7
100
AcDbSpline
 70
8
 71
3
 72
8
 73
4
 74
0
 40
0
 40
0
 40
0
 40
0
 40
1
 40
1
 40
1
 40
1
 10
561.680000
 20
488.560000
 30
0.0
 10
563.440000
 20
489.760000
 30
0.0
 10
563.520000
 20
489.680000
 30
0.0
 10
564.880000
 20
486.400000
 30
0.0
  0
SPLINE
  5
185
100
AcDbEntity
  8
0
 62
7
100
AcDbSpline
 70
8
 71
3
 72
8
 73
4
 74
0
 40
0
 40
0
 40
0
 40
0
 40
1
 40
1
 40
1
 40
1
 10
564.880000
 20
486.400000
 30
0.0
 10
567.680000
 20
479.680000
 30
0.0
 10
569.600000
 20
471.440000
 30
0.0
 10
569.680000
 20
465.680000
 30
0.0
  0
SPLINE
  5
186
100
AcDbEntity
  8
0
 62
7
100
AcDbSpline
 70
8
 71
3
 72
8
 73
4
 74
0
 40
0
 40
0
 40
0
 40
0
 40
1
 40
1
 40
1
 40
1
 10
569.680000
 20
465.680000
 30
0.0
 10
569.840000
 20
458.800000
 30
0.0
 10
568.640000
 20
457.040000
 30
0.0
 10
561.680000
 20
454.160000
 30
0.0
  0
SPLINE
  5
187
100
AcDbEntity
  8
0
 62
7
100
AcDbSpline
 70
8
 71
3
 72
8
 73
4
 74
0
 40
0
 40
0
 40
0
 40
0
 40
1
 40
1
 40
1
 40
1
 10
561.680000
 20
454.160000
 30
0.0
 10
558.000000
 20
452.640000
 30
0.0
 10
557.280000
 20
451.920000
 30
0.0
 10
556.080000
 20
448.720000
 30
0.0
  0
SPLINE
  5
188
100
AcDbEntity
  8
0
 62
7
100
AcDbSpline
 70
8
 71
3
 72
8
 73
4
 74
0
 40
0
 40
0
 40
0
 40
0
 40
1
 40
1
 40
1
 40
1
 10
556.080000
 20
448.720000
 30
0.0
 10
553.920000
 20
443.040000
 30
0.0
 10
552.000000
 20
441.360000
 30
0.0
 10
546.800000
 20
440.800000
 30
0.0
  0
SPLINE
  5
189
100
AcDbEntity
  8
0
 62
7
100
AcDbSpline
 70
8
 71
3
 72
8
 73
4
 74
0
 40
0
 40
0
 40
0
 40
0
 40
1
 40
1
 40
1
 40
1
 10
546.800000
 20
440.800000
 30
0.0
 10
544.320000
 20
440.560000
 30
0.0
 10
540.480000
 20
439.600000
 30
0.0
 10
538.160000
 20
438.640000
 30
0.0
  0
SPLINE
  5
18a
100
AcDbEntity
  8
0
 62
7
100
AcDbSpline
 70
8
 71
3
 72
8
 73
4
 74
0
 40
0
 40
0
 40
0
 40
0
 40
1
 40
1
 40
1
 40
1
 10
538.160000
 20
438.640000
 30
0.0
 10
534.560000
 20
437.120000
 30
0.0
 10
532.720000
 20
436.800000
 30
0.0
 10
526.560000
 20
436.800000
 30
0.0
  0
LINE
  5
18b
100
AcDbEntity
  8
0
 62
7
100
AcDbLine
 10
526.560000
 20
436.800000
 30
0.0
 11
519.280000
 21
436.800000
 31
0.0
  0
LINE
  5
18c
100
AcDbEntity
  8
0
 62
7
100
AcDbLine
 10
519.280000
 20
436.800000
 30
0.0
 11
514.880000
 21
439.840000
 31
0.0
  0
SPLINE
  5
18d
100
AcDbEntity
  8
0
 62
7
100
AcDbSpline
 70
8
 71
3
 72
8
 73
4
 74
0
 40
0
 40
0
 40
0
 40
0
 40
1
 40
1
 40
1
 40
1
 10
514.880000
 20
439.840000
 30
0.0
 10
505.040000
 20
446.800000
 30
0.0
 10
494.560000
 20
458.480000
 30
0.0
 10
494.560000
 20
462.640000
 30
0.0
  0
SPLINE
  5
18e
100
AcDbEntity
  8
0
 62
7
100
AcDbSpline
 70
8
 71
3
 72
8
 73
4
 74
0
 40
0
 40
0
 40
0
 40
0
 40
1
 40
1
 40
1
 40
1
 10
494.560000
 20
462.640000
 30
0.0
 10
494.560000
 20
465.120000
 30
0.0
 10
497.040000
 20
472.240000
 30
0.0
 10
500.640000
 20
480.560000
 30
0.0
  0
SPLINE
  5
18f
100
AcDbEntity
  8
0
 62
7
100
AcDbSpline
 70
8
 71
3
 72
8
 73
4
 74
0
 40
0
 40
0
 40
0
 40
0
 40
1
 40
1
 40
1
 40
1
 10
500.640000
 20
480.560000
 30
0.0
 10
502.960000
 20
485.680000
 30
0.0
 10
503.040000
 20
486.320000
 30
0.0
 10
501.840000
 20
488.880000
 30
0.0
  0
SPLINE
  5
190
100
AcDbEntity
  8
0
 62
7
100
AcDbSpline
 70
8
 71
3
 72
8
 73
4
 74
0
 40
0
 40
0
 40
0
 40
0
 40
1
 40
1
 40
1
 40
1
 10
501.840000
 20
488.880000
 30
0.0
 10
498.880000
 20
494.960000
 30
0.0
 10
491.360000
 20
501.280000
 30
0.0
 10
483.680000
 20
504.080000
 30
0.0
  0
SPLINE
  5
191
100
AcDbEntity
  8
0
 62
7
100
AcDbSpline
 70
8
 71
3
 72
8
 73
4
 74
0
 40
0
 40
0
 40
0
 40
0
 40
1
 40
1
 40
1
 40
1
 10
483.680000
 20
504.080000
 30
0.0
 10
482.160000
 20
504.640000
 30
0.0
 10
475.360000
 20
506.480000
 30
0.0
 10
468.560000
 20
508.080000
 30
0.0
  0
SPLINE
  5
192
100
AcDbEntity
  8
0
 62
7
100
AcDbSpline
 70
8
 71
3
 72
8
 73
4
 74
0
 40
0
 40
0
 40
0
 40
0
 40
1
 40
1
 40
1
 40
1
 10
468.560000
 20
508.080000
 30
0.0
 10
453.120000
 20
511.680000
 30
0.0
 10
440.960000
 20
515.040000
 30
0.0
 10
435.760000
 20
517.120000
 30
0.0
  0
SPLINE
  5
193
100
AcDbEntity
  8
0
 62
7
100
AcDbSpline
 70
8
 71
3
 72
8
 73
4
 74
0
 40
0
 40
0
 40
0
 40
0
 40
1
 40
1
 40
1
 40
1
 10
435.760000
 20
517.120000
 30
0.0
 10
427.840000
 20
520.320000
 30
0.0
 10
422.640000
 20
527.280000
 30
0.0
 10
421.120000
 20
536.720000
 30
0.0
  0
SPLINE
  5
194
100
AcDbEntity
  8
0
 62
7
100
AcDbSpline
 70
8
 71
3
 72
8
 73
4
 74
0
 40
0
 40
0
 40
0
 40
0
 40
1
 40
1
 40
1
 40
1
 10
421.120000
 20
536.720000
 30
0.0
 10
420.640000
 20
539.600000
 30
0.0
 10
419.600000
 20
541.120000
 30
0.0
 10
416.080000
 20
544.480000
 30
0.0
  0
SPLINE
  5
195
100
AcDbEntity
  8
0
 62
7
100
AcDbSpline
 70
8
 71
3
 72
8
 73
4
 74
0
 40
0
 40
0
 40
0
 40
0
 40
1
 40
1
 40
1
 40
1
 10
416.080000
 20
544.480000
 30
0.0
 10
411.680000
 20
548.560000
 30
0.0
 10
411.600000
 20
548.720000
 30
0.0
 10
410.560000
 20
556.080000
 30
0.0
  0
LINE
  5
196
100
AcDbEntity
  8
0
 62
7
100
AcDbLine
 10
410.560000
 20
556.080000
 30
0.0
 11
409.440000
 21
563.600000
 31
0.0
  0
LINE
  5
197
100
AcDbEntity
  8
0
 62
7
100
AcDbLine
 10
409.440000
 20
563.600000
 30
0.0
 11
412.640000
 21
567.360000
 31
0.0
  0
SPLINE
  5
198
100
AcDbEntity
  8
0
 62
7
100
AcDbSpline
 70
8
 71
3
 72
8
 73
4
 74
0
 40
0
 40
0
 40
0
 40
0
 40
1
 40
1
 40
1
 40
1
 10
412.640000
 20
567.360000
 30
0.0
 10
418.560000
 20
574.160000
 30
0.0
 10
422.560000
 20
580.320000
 30
0.0
 10
424.640000
 20
585.280000
 30
0.0
  0
SPLINE
  5
199
100
AcDbEntity
  8
0
 62
7
100
AcDbSpline
 70
8
 71
3
 72
8
 73
4
 74
0
 40
0
 40
0
 40
0
 40
0
 40
1
 40
1
 40
1
 40
1
 10
424.640000
 20
585.280000
 30
0.0
 10
425.840000
 20
588.080000
 30
0.0
 10
424.480000
 20
587.040000
 30
0.0
 10
418.800000
 20
580.880000
 30
0.0
  0
SPLINE
  5
19a
100
AcDbEntity
  8
0
 62
7
100
AcDbSpline
 70
8
 71
3
 72
8
 73
4
 74
0
 40
0
 40
0
 40
0
 40
0
 40
1
 40
1
 40
1
 40
1
 10
418.800000
 20
580.880000
 30
0.0
 10
416.000000
 20
577.760000
 30
0.0
 10
413.200000
 20
574.800000
 30
0.0
 10
412.560000
 20
574.320000
 30
0.0
  0
SPLINE
  5
19b
100
AcDbEntity
  8
0
 62
7
100
AcDbSpline
 70
8
 71
3
 72
8
 73
4
 74
0
 40
0
 40
0
 40
0
 40
0
 40
1
 40
1
 40
1
 40
1
 10
412.560000
 20
574.320000
 30
0.0
 10
411.840000
 20
573.840000
 30
0.0
 10
411.360000
 20
573.200000
 30
0.0
 10
411.360000
 20
572.880000
 30
0.0
  0
SPLINE
  5
19c
100
AcDbEntity
  8
0
 62
7
100
AcDbSpline
 70
8
 71
3
 72
8
 73
4
 74
0
 40
0
 40
0
 40
0
 40
0
 40
1
 40
1
 40
1
 40
1
 10
411.360000
 20
572.880000
 30
0.0
 10
411.360000
 20
571.840000
 30
0.0
 10
386.000000
 20
547.760000
 30
0.0
 10
373.920000
 20
537.360000
 30
0.0
  0
SPLINE
  5
19d
100
AcDbEntity
  8
0
 62
7
100
AcDbSpline
 70
8
 71
3
 72
8
 73
4
 74
0
 40
0
 40
0
 40
0
 40
0
 40
1
 40
1
 40
1
 40
1
 10
373.920000
 20
537.360000
 30
0.0
 10
371.520000
 20
535.280000
 30
0.0
 10
364.960000
 20
530.160000
 30
0.0
 10
359.440000
 20
525.840000
 30
0.0
  0
SPLINE
  5
19e
100
AcDbEntity
  8
0
 62
7
100
AcDbSpline
 70
8
 71
3
 72
8
 73
4
 74
0
 40
0
 40
0
 40
0
 40
0
 40
1
 40
1
 40
1
 40
1
 10
359.440000
 20
525.840000
 30
0.0
 10
353.920000
 20
521.600000
 30
0.0
 10
348.400000
 20
516.800000
 30
0.0
 10
347.280000
 20
515.280000
 30
0.0
  0
SPLINE
  5
19f
100
AcDbEntity
  8
0
 62
7
100
AcDbSpline
 70
8
 71
3
 72
8
 73
4
 74
0
 40
0
 40
0
 40
0
 40
0
 40
1
 40
1
 40
1
 40
1
 10
347.280000
 20
515.280000
 30
0.0
 10
343.920000
 20
510.800000
 30
0.0
 10
337.680000
 20
496.080000
 30
0.0
 10
335.520000
 20
487.600000
 30
0.0
  0
SPLINE
  5
1a0
100
AcDbEntity
  8
0
 62
7
100
AcDbSpline
 70
8
 71
3
 72
8
 73
4
 74
0
 40
0
 40
0
 40
0
 40
0
 40
1
 40
1
 40
1
 40
1
 10
335.520000
 20
487.600000
 30
0.0
 10
333.680000
 20
480.400000
 30
0.0
 10
333.600000
 20
478.960000
 30
0.0
 10
334.640000
 20
470.240000
 30
0.0
  0
SPLINE
  5
1a1
100
AcDbEntity
  8
0
 62
7
100
AcDbSpline
 70
8
 71
3
 72
8
 73
4
 74
0
 40
0
 40
0
 40
0
 40
0
 40
1
 40
1
 40
1
 40
1
 10
334.640000
 20
470.240000
 30
0.0
 10
336.160000
 20
456.480000
 30
0.0
 10
336.000000
 20
430.240000
 30
0.0
 10
334.240000
 20
419.280000
 30
0.0
  0
SPLINE
  5
1a2
100
AcDbEntity
  8
0
 62
7
100
AcDbSpline
 70
8
 71
3
 72
8
 73
4
 74
0
 40
0
 40
0
 40
0
 40
0
 40
1
 40
1
 40
1
 40
1
 10
334.240000
 20
419.280000
 30
0.0
 10
329.760000
 20
391.680000
 30
0.0
 10
317.760000
 20
354.800000
 30
0.0
 10
311.520000
 20
349.840000
 30
0.0
  0
SPLINE
  5
1a3
100
AcDbEntity
  8
0
 62
7
100
AcDbSpline
 70
8
 71
3
 72
8
 73
4
 74
0
 40
0
 40
0
 40
0
 40
0
 40
1
 40
1
 40
1
 40
1
 10
311.520000
 20
349.840000
 30
0.0
 10
310.320000
 20
348.960000
 30
0.0
 10
303.840000
 20
342.560000
 30
0.0
 10
297.040000
 20
335.680000
 30
0.0
  0
SPLINE
  5
1a4
100
AcDbEntity
  8
0
 62
7
100
AcDbSpline
 70
8
 71
3
 72
8
 73
4
 74
0
 40
0
 40
0
 40
0
 40
0
 40
1
 40
1
 40
1
 40
1
 10
297.040000
 20
335.680000
 30
0.0
 10
286.320000
 20
324.880000
 30
0.0
 10
284.640000
 20
322.800000
 30
0.0
 10
284.080000
 20
319.760000
 30
0.0
  0
SPLINE
  5
1a5
100
AcDbEntity
  8
0
 62
7
100
AcDbSpline
 70
8
 71
3
 72
8
 73
4
 74
0
 40
0
 40
0
 40
0
 40
0
 40
1
 40
1
 40
1
 40
1
 10
284.080000
 20
319.760000
 30
0.0
 10
282.960000
 20
313.680000
 30
0.0
 10
279.200000
 20
306.160000
 30
0.0
 10
276.560000
 20
304.560000
 30
0.0
  0
SPLINE
  5
1a6
100
AcDbEntity
  8
0
 62
7
100
AcDbSpline
 70
8
 71
3
 72
8
 73
4
 74
0
 40
0
 40
0
 40
0
 40
0
 40
1
 40
1
 40
1
 40
1
 10
276.560000
 20
304.560000
 30
0.0
 10
273.920000
 20
303.040000
 30
0.0
 10
273.120000
 20
300.800000
 30
0.0
 10
270.880000
 20
288.480000
 30
0.0
  0
SPLINE
  5
1a7
100
AcDbEntity
  8
0
 62
7
100
AcDbSpline
 70
8
 71
3
 72
8
 73
4
 74
0
 40
0
 40
0
 40
0
 40
0
 40
1
 40
1
 40
1
 40
1
 10
270.880000
 20
288.480000
 30
0.0
 10
267.840000
 20
271.920000
 30
0.0
 10
266.240000
 20
268.240000
 30
0.0
 10
258.320000
 20
259.360000
 30
0.0
  0
SPLINE
  5
1a8
100
AcDbEntity
  8
0
 62
7
100
AcDbSpline
 70
8
 71
3
 72
8
 73
4
 74
0
 40
0
 40
0
 40
0
 40
0
 40
1
 40
1
 40
1
 40
1
 10
258.320000
 20
259.360000
 30
0.0
 10
248.640000
 20
248.400000
 30
0.0
 10
241.760000
 20
234.880000
 30
0.0
 10
240.640000
 20
224.400000
 30
0.0
  0
LINE
  5
1a9
100
AcDbEntity
  8
0
 62
7
100
AcDbLine
 10
240.640000
 20
224.400000
 30
0.0
 11
240.000000
 21
218.640000
 31
0.0
  0
LINE
  5
1aa
100
AcDbEntity
  8
0
 62
7
100
AcDbLine
 10
240.000000
 20
218.640000
 30
0.0
 11
246.480000
 21
211.360000
 31
0.0
  0
SPLINE
  5
1ab
100
AcDbEntity
  8
0
 62
7
100
AcDbSpline
 70
8
 71
3
 72
8
 73
4
 74
0
 40
0
 40
0
 40
0
 40
0
 40
1
 40
1
 40
1
 40
1
 10
246.480000
 20
211.360000
 30
0.0
 10
250.000000
 20
207.360000
 30
0.0
 10
254.080000
 20
203.040000
 30
0.0
 10
255.440000
 20
201.840000
 30
0.0
  0
SPLINE
  5
1ac
100
AcDbEntity
  8
0
 62
7
100
AcDbSpline
 70
8
 71
3
 72
8
 73
4
 74
0
 40
0
 40
0
 40
0
 40
0
 40
1
 40
1
 40
1
 40
1
 10
255.440000
 20
201.840000
 30
0.0
 10
263.120000
 20
195.040000
 30
0.0
 10
263.920000
 20
193.680000
 30
0.0
 10
261.600000
 20
191.440000
 30
0.0
  0
SPLINE
  5
1ad
100
AcDbEntity
  8
0
 62
7
100
AcDbSpline
 70
8
 71
3
 72
8
 73
4
 74
0
 40
0
 40
0
 40
0
 40
0
 40
1
 40
1
 40
1
 40
1
 10
261.600000
 20
191.440000
 30
0.0
 10
260.640000
 20
190.480000
 30
0.0
 10
257.680000
 20
190.080000
 30
0.0
 10
245.760000
 20
189.280000
 30
0.0
  0
SPLINE
  5
1ae
100
AcDbEntity
  8
0
 62
7
100
AcDbSpline
 70
8
 71
3
 72
8
 73
4
 74
0
 40
0
 40
0
 40
0
 40
0
 40
1
 40
1
 40
1
 40
1
 10
245.760000
 20
189.280000
 30
0.0
 10
237.680000
 20
188.800000
 30
0.0
 10
228.720000
 20
188.320000
 30
0.0
 10
225.760000
 20
188.320000
 30
0.0
  0
LINE
  5
1af
100
AcDbEntity
  8
0
 62
7
100
AcDbLine
 10
225.760000
 20
188.320000
 30
0.0
 11
220.320000
 21
188.320000
 31
0.0
  0
LINE
  5
1b0
100
AcDbEntity
  8
0
 62
7
100
AcDbLine
 10
220.320000
 20
188.320000
 30
0.0
 11
219.680000
 21
190.880000
 31
0.0
  0
LINE
  5
1b1
100
AcDbEntity
  8
0
 62
7
100
AcDbLine
 10
219.680000
 20
190.880000
 30
0.0
 11
219.680000
 21
190.880000
 31
0.0
  0
SPLINE
  5
1b2
100
AcDbEntity
  8
0
 62
7
100
AcDbSpline
 70
8
 71
3
 72
8
 73
4
 74
0
 40
0
 40
0
 40
0
 40
0
 40
1
 40
1
 40
1
 40
1
 10
72.560000
 20
93.680000
 30
0.0
 10
75.760000
 20
92.720000
 30
0.0
 10
78.240000
 20
91.120000
 30
0.0
 10
79.840000
 20
88.960000
 30
0.0
  0
SPLINE
  5
1b3
100
AcDbEntity
  8
0
 62
7
100
AcDbSpline
 70
8
 71
3
 72
8
 73
4
 74
0
 40
0
 40
0
 40
0
 40
0
 40
1
 40
1
 40
1
 40
1
 10
79.840000
 20
88.960000
 30
0.0
 10
81.440000
 20
86.720000
 30
0.0
 10
82.240000
 20
84.160000
 30
0.0
 10
82.240000
 20
81.280000
 30
0.0
  0
SPLINE
  5
1b4
100
AcDbEntity
  8
0
 62
7
100
AcDbSpline
 70
8
 71
3
 72
8
 73
4
 74
0
 40
0
 40
0
 40
0
 40
0
 40
1
 40
1
 40
1
 40
1
 10
82.240000
 20
81.280000
 30
0.0
 10
82.240000
 20
78.400000
 30
0.0
 10
81.520000
 20
75.760000
 30
0.0
 10
80.000000
 20
73.360000
 30
0.0
  0
SPLINE
  5
1b5
100
AcDbEntity
  8
0
 62
7
100
AcDbSpline
 70
8
 71
3
 72
8
 73
4
 74
0
 40
0
 40
0
 40
0
 40
0
 40
1
 40
1
 40
1
 40
1
 10
80.000000
 20
73.360000
 30
0.0
 10
78.560000
 20
70.880000
 30
0.0
 10
76.560000
 20
69.120000
 30
0.0
 10
73.840000
 20
68.000000
 30
0.0
  0
SPLINE
  5
1b6
100
AcDbEntity
  8
0
 62
7
100
AcDbSpline
 70
8
 71
3
 72
8
 73
4
 74
0
 40
0
 40
0
 40
0
 40
0
 40
1
 40
1
 40
1
 40
1
 10
73.840000
 20
68.000000
 30
0.0
 10
71.200000
 20
66.880000
 30
0.0
 10
67.520000
 20
66.320000
 30
0.0
 10
62.960000
 20
66.320000
 30
0.0
  0
LINE
  5
1b7
100
AcDbEntity
  8
0
 62
7
100
AcDbLine
 10
62.960000
 20
66.320000
 30
0.0
 11
43.280000
 21
66.320000
 31
0.0
  0
LINE
  5
1b8
100
AcDbEntity
  8
0
 62
7
100
AcDbLine
 10
43.280000
 20
66.320000
 30
0.0
 11
43.280000
 21
117.840000
 31
0.0
  0
LINE
  5
1b9
100
AcDbEntity
  8
0
 62
7
100
AcDbLine
 10
43.280000
 20
117.840000
 30
0.0
 11
62.640000
 21
117.840000
 31
0.0
  0
SPLINE
  5
1ba
100
AcDbEntity
  8
0
 62
7
100
AcDbSpline
 70
8
 71
3
 72
8
 73
4
 74
0
 40
0
 40
0
 40
0
 40
0
 40
1
 40
1
 40
1
 40
1
 10
62.640000
 20
117.840000
 30
0.0
 10
68.880000
 20
117.840000
 30
0.0
 10
73.280000
 20
116.480000
 30
0.0
 10
75.840000
 20
113.760000
 30
0.0
  0
SPLINE
  5
1bb
100
AcDbEntity
  8
0
 62
7
100
AcDbSpline
 70
8
 71
3
 72
8
 73
4
 74
0
 40
0
 40
0
 40
0
 40
0
 40
1
 40
1
 40
1
 40
1
 10
75.840000
 20
113.760000
 30
0.0
 10
78.400000
 20
111.040000
 30
0.0
 10
79.680000
 20
108.000000
 30
0.0
 10
79.680000
 20
104.720000
 30
0.0
  0
SPLINE
  5
1bc
100
AcDbEntity
  8
0
 62
7
100
AcDbSpline
 70
8
 71
3
 72
8
 73
4
 74
0
 40
0
 40
0
 40
0
 40
0
 40
1
 40
1
 40
1
 40
1
 10
79.680000
 20
104.720000
 30
0.0
 10
79.680000
 20
102.400000
 30
0.0
 10
79.120000
 20
100.320000
 30
0.0
 10
77.920000
 20
98.480000
 30
0.0
  0
SPLINE
  5
1bd
100
AcDbEntity
  8
0
 62
7
100
AcDbSpline
 70
8
 71
3
 72
8
 73
4
 74
0
 40
0
 40
0
 40
0
 40
0
 40
1
 40
1
 40
1
 40
1
 10
77.920000
 20
98.480000
 30
0.0
 10
76.720000
 20
96.560000
 30
0.0
 10
74.960000
 20
94.960000
 30
0.0
 10
72.560000
 20
93.680000
 30
0.0
  0
LINE
  5
1be
100
AcDbEntity
  8
0
 62
7
100
AcDbLine
 10
72.560000
 20
93.680000
 30
0.0
 11
72.560000
 21
93.680000
 31
0.0
  0
LINE
  5
1bf
100
AcDbEntity
  8
0
 62
7
100
AcDbLine
 10
50.080000
 20
96.240000
 30
0.0
 11
61.280000
 21
96.240000
 31
0.0
  0
SPLINE
  5
1c0
100
AcDbEntity
  8
0
 62
7
100
AcDbSpline
 70
8
 71
3
 72
8
 73
4
 74
0
 40
0
 40
0
 40
0
 40
0
 40
1
 40
1
 40
1
 40
1
 10
61.280000
 20
96.240000
 30
0.0
 10
63.600000
 20
96.240000
 30
0.0
 10
65.520000
 20
96.400000
 30
0.0
 10
67.040000
 20
96.640000
 30
0.0
  0
SPLINE
  5
1c1
100
AcDbEntity
  8
0
 62
7
100
AcDbSpline
 70
8
 71
3
 72
8
 73
4
 74
0
 40
0
 40
0
 40
0
 40
0
 40
1
 40
1
 40
1
 40
1
 10
67.040000
 20
96.640000
 30
0.0
 10
68.640000
 20
96.880000
 30
0.0
 10
70.000000
 20
97.600000
 30
0.0
 10
71.200000
 20
98.640000
 30
0.0
  0
SPLINE
  5
1c2
100
AcDbEntity
  8
0
 62
7
100
AcDbSpline
 70
8
 71
3
 72
8
 73
4
 74
0
 40
0
 40
0
 40
0
 40
0
 40
1
 40
1
 40
1
 40
1
 10
71.200000
 20
98.640000
 30
0.0
 10
72.400000
 20
99.760000
 30
0.0
 10
72.960000
 20
101.520000
 30
0.0
 10
72.960000
 20
103.840000
 30
0.0
  0
SPLINE
  5
1c3
100
AcDbEntity
  8
0
 62
7
100
AcDbSpline
 70
8
 71
3
 72
8
 73
4
 74
0
 40
0
 40
0
 40
0
 40
0
 40
1
 40
1
 40
1
 40
1
 10
72.960000
 20
103.840000
 30
0.0
 10
72.960000
 20
106.240000
 30
0.0
 10
72.400000
 20
108.080000
 30
0.0
 10
71.200000
 20
109.200000
 30
0.0
  0
SPLINE
  5
1c4
100
AcDbEntity
  8
0
 62
7
100
AcDbSpline
 70
8
 71
3
 72
8
 73
4
 74
0
 40
0
 40
0
 40
0
 40
0
 40
1
 40
1
 40
1
 40
1
 10
71.200000
 20
109.200000
 30
0.0
 10
69.920000
 20
110.400000
 30
0.0
 10
68.480000
 20
111.040000
 30
0.0
 10
66.800000
 20
111.360000
 30
0.0
  0
SPLINE
  5
1c5
100
AcDbEntity
  8
0
 62
7
100
AcDbSpline
 70
8
 71
3
 72
8
 73
4
 74
0
 40
0
 40
0
 40
0
 40
0
 40
1
 40
1
 40
1
 40
1
 10
66.800000
 20
111.360000
 30
0.0
 10
65.200000
 20
111.600000
 30
0.0
 10
63.040000
 20
111.680000
 30
0.0
 10
60.400000
 20
111.680000
 30
0.0
  0
LINE
  5
1c6
100
AcDbEntity
  8
0
 62
7
100
AcDbLine
 10
60.400000
 20
111.680000
 30
0.0
 11
50.080000
 21
111.680000
 31
0.0
  0
LINE
  5
1c7
100
AcDbEntity
  8
0
 62
7
100
AcDbLine
 10
50.080000
 20
111.680000
 30
0.0
 11
50.080000
 21
96.240000
 31
0.0
  0
LINE
  5
1c8
100
AcDbEntity
  8
0
 62
7
100
AcDbLine
 10
50.080000
 20
96.240000
 30
0.0
 11
50.080000
 21
96.240000
 31
0.0
  0
LINE
  5
1c9
100
AcDbEntity
  8
0
 62
7
100
AcDbLine
 10
50.080000
 20
72.400000
 30
0.0
 11
62.880000
 21
72.400000
 31
0.0
  0
SPLINE
  5
1ca
100
AcDbEntity
  8
0
 62
7
100
AcDbSpline
 70
8
 71
3
 72
8
 73
4
 74
0
 40
0
 40
0
 40
0
 40
0
 40
1
 40
1
 40
1
 40
1
 10
62.880000
 20
72.400000
 30
0.0
 10
67.520000
 20
72.400000
 30
0.0
 10
70.720000
 20
73.200000
 30
0.0
 10
72.480000
 20
74.800000
 30
0.0
  0
SPLINE
  5
1cb
100
AcDbEntity
  8
0
 62
7
100
AcDbSpline
 70
8
 71
3
 72
8
 73
4
 74
0
 40
0
 40
0
 40
0
 40
0
 40
1
 40
1
 40
1
 40
1
 10
72.480000
 20
74.800000
 30
0.0
 10
74.240000
 20
76.320000
 30
0.0
 10
75.120000
 20
78.480000
 30
0.0
 10
75.120000
 20
81.280000
 30
0.0
  0
SPLINE
  5
1cc
100
AcDbEntity
  8
0
 62
7
100
AcDbSpline
 70
8
 71
3
 72
8
 73
4
 74
0
 40
0
 40
0
 40
0
 40
0
 40
1
 40
1
 40
1
 40
1
 10
75.120000
 20
81.280000
 30
0.0
 10
75.120000
 20
84.080000
 30
0.0
 10
74.240000
 20
86.240000
 30
0.0
 10
72.320000
 20
87.760000
 30
0.0
  0
SPLINE
  5
1cd
100
AcDbEntity
  8
0
 62
7
100
AcDbSpline
 70
8
 71
3
 72
8
 73
4
 74
0
 40
0
 40
0
 40
0
 40
0
 40
1
 40
1
 40
1
 40
1
 10
72.320000
 20
87.760000
 30
0.0
 10
70.400000
 20
89.360000
 30
0.0
 10
66.960000
 20
90.160000
 30
0.0
 10
62.000000
 20
90.160000
 30
0.0
  0
LINE
  5
1ce
100
AcDbEntity
  8
0
 62
7
100
AcDbLine
 10
62.000000
 20
90.160000
 30
0.0
 11
50.080000
 21
90.160000
 31
0.0
  0
LINE
  5
1cf
100
AcDbEntity
  8
0
 62
7
100
AcDbLine
 10
50.080000
 20
90.160000
 30
0.0
 11
50.080000
 21
72.400000
 31
0.0
  0
LINE
  5
1d0
100
AcDbEntity
  8
0
 62
7
100
AcDbLine
 10
50.080000
 20
72.400000
 30
0.0
 11
50.080000
 21
72.400000
 31
0.0
  0
LINE
  5
1d1
100
AcDbEntity
  8
0
 62
7
100
AcDbLine
 10
97.120000
 20
66.320000
 30
0.0
 11
90.800000
 21
66.320000
 31
0.0
  0
LINE
  5
1d2
100
AcDbEntity
  8
0
 62
7
100
AcDbLine
 10
90.800000
 20
66.320000
 30
0.0
 11
90.800000
 21
103.600000
 31
0.0
  0
LINE
  5
1d3
100
AcDbEntity
  8
0
 62
7
100
AcDbLine
 10
90.800000
 20
103.600000
 30
0.0
 11
97.120000
 21
103.600000
 31
0.0
  0
LINE
  5
1d4
100
AcDbEntity
  8
0
 62
7
100
AcDbLine
 10
97.120000
 20
103.600000
 30
0.0
 11
97.120000
 21
66.320000
 31
0.0
  0
LINE
  5
1d5
100
AcDbEntity
  8
0
 62
7
100
AcDbLine
 10
97.120000
 20
66.320000
 30
0.0
 11
97.120000
 21
66.320000
 31
0.0
  0
LINE
  5
1d6
100
AcDbEntity
  8
0
 62
7
100
AcDbLine
 10
97.120000
 20
110.640000
 30
0.0
 11
90.800000
 21
110.640000
 31
0.0
  0
LINE
  5
1d7
100
AcDbEntity
  8
0
 62
7
100
AcDbLine
 10
90.800000
 20
110.640000
 30
0.0
 11
90.800000
 21
117.840000
 31
0.0
  0
LINE
  5
1d8
100
AcDbEntity
  8
0
 62
7
100
AcDbLine
 10
90.800000
 20
117.840000
 30
0.0
 11
97.120000
 21
117.840000
 31
0.0
  0
LINE
  5
1d9
100
AcDbEntity
  8
0
 62
7
100
AcDbLine
 10
97.120000
 20
117.840000
 30
0.0
 11
97.120000
 21
110.640000
 31
0.0
  0
LINE
  5
1da
100
AcDbEntity
  8
0
 62
7
100
AcDbLine
 10
97.120000
 20
110.640000
 30
0.0
 11
97.120000
 21
110.640000
 31
0.0
  0
SPLINE
  5
1db
100
AcDbEntity
  8
0
 62
7
100
AcDbSpline
 70
8
 71
3
 72
8
 73
4
 74
0
 40
0
 40
0
 40
0
 40
0
 40
1
 40
1
 40
1
 40
1
 10
127.600000
 20
93.120000
 30
0.0
 10
127.280000
 20
95.200000
 30
0.0
 10
126.480000
 20
96.720000
 30
0.0
 10
125.120000
 20
97.760000
 30
0.0
  0
SPLINE
  5
1dc
100
AcDbEntity
  8
0
 62
7
100
AcDbSpline
 70
8
 71
3
 72
8
 73
4
 74
0
 40
0
 40
0
 40
0
 40
0
 40
1
 40
1
 40
1
 40
1
 10
125.120000
 20
97.760000
 30
0.0
 10
123.760000
 20
98.800000
 30
0.0
 10
121.840000
 20
99.280000
 30
0.0
 10
119.360000
 20
99.280000
 30
0.0
  0
SPLINE
  5
1dd
100
AcDbEntity
  8
0
 62
7
100
AcDbSpline
 70
8
 71
3
 72
8
 73
4
 74
0
 40
0
 40
0
 40
0
 40
0
 40
1
 40
1
 40
1
 40
1
 10
119.360000
 20
99.280000
 30
0.0
 10
116.960000
 20
99.280000
 30
0.0
 10
115.040000
 20
98.880000
 30
0.0
 10
113.520000
 20
98.080000
 30
0.0
  0
SPLINE
  5
1de
100
AcDbEntity
  8
0
 62
7
100
AcDbSpline
 70
8
 71
3
 72
8
 73
4
 74
0
 40
0
 40
0
 40
0
 40
0
 40
1
 40
1
 40
1
 40
1
 10
113.520000
 20
98.080000
 30
0.0
 10
112.000000
 20
97.200000
 30
0.0
 10
111.280000
 20
96.000000
 30
0.0
 10
111.280000
 20
94.480000
 30
0.0
  0
SPLINE
  5
1df
100
AcDbEntity
  8
0
 62
7
100
AcDbSpline
 70
8
 71
3
 72
8
 73
4
 74
0
 40
0
 40
0
 40
0
 40
0
 40
1
 40
1
 40
1
 40
1
 10
111.280000
 20
94.480000
 30
0.0
 10
111.280000
 20
92.960000
 30
0.0
 10
111.920000
 20
91.920000
 30
0.0
 10
113.040000
 20
91.280000
 30
0.0
  0
SPLINE
  5
1e0
100
AcDbEntity
  8
0
 62
7
100
AcDbSpline
 70
8
 71
3
 72
8
 73
4
 74
0
 40
0
 40
0
 40
0
 40
0
 40
1
 40
1
 40
1
 40
1
 10
113.040000
 20
91.280000
 30
0.0
 10
114.240000
 20
90.640000
 30
0.0
 10
116.560000
 20
89.920000
 30
0.0
 10
120.080000
 20
88.960000
 30
0.0
  0
SPLINE
  5
1e1
100
AcDbEntity
  8
0
 62
7
100
AcDbSpline
 70
8
 71
3
 72
8
 73
4
 74
0
 40
0
 40
0
 40
0
 40
0
 40
1
 40
1
 40
1
 40
1
 10
120.080000
 20
88.960000
 30
0.0
 10
124.000000
 20
88.000000
 30
0.0
 10
126.960000
 20
87.040000
 30
0.0
 10
128.960000
 20
86.320000
 30
0.0
  0
SPLINE
  5
1e2
100
AcDbEntity
  8
0
 62
7
100
AcDbSpline
 70
8
 71
3
 72
8
 73
4
 74
0
 40
0
 40
0
 40
0
 40
0
 40
1
 40
1
 40
1
 40
1
 10
128.960000
 20
86.320000
 30
0.0
 10
130.880000
 20
85.520000
 30
0.0
 10
132.400000
 20
84.480000
 30
0.0
 10
133.520000
 20
83.040000
 30
0.0
  0
SPLINE
  5
1e3
100
AcDbEntity
  8
0
 62
7
100
AcDbSpline
 70
8
 71
3
 72
8
 73
4
 74
0
 40
0
 40
0
 40
0
 40
0
 40
1
 40
1
 40
1
 40
1
 10
133.520000
 20
83.040000
 30
0.0
 10
134.560000
 20
81.680000
 30
0.0
 10
135.120000
 20
79.680000
 30
0.0
 10
135.120000
 20
77.200000
 30
0.0
  0
SPLINE
  5
1e4
100
AcDbEntity
  8
0
 62
7
100
AcDbSpline
 70
8
 71
3
 72
8
 73
4
 74
0
 40
0
 40
0
 40
0
 40
0
 40
1
 40
1
 40
1
 40
1
 10
135.120000
 20
77.200000
 30
0.0
 10
135.120000
 20
73.920000
 30
0.0
 10
133.760000
 20
71.120000
 30
0.0
 10
131.040000
 20
68.800000
 30
0.0
  0
SPLINE
  5
1e5
100
AcDbEntity
  8
0
 62
7
100
AcDbSpline
 70
8
 71
3
 72
8
 73
4
 74
0
 40
0
 40
0
 40
0
 40
0
 40
1
 40
1
 40
1
 40
1
 10
131.040000
 20
68.800000
 30
0.0
 10
128.320000
 20
66.560000
 30
0.0
 10
124.720000
 20
65.440000
 30
0.0
 10
120.160000
 20
65.440000
 30
0.0
  0
SPLINE
  5
1e6
100
AcDbEntity
  8
0
 62
7
100
AcDbSpline
 70
8
 71
3
 72
8
 73
4
 74
0
 40
0
 40
0
 40
0
 40
0
 40
1
 40
1
 40
1
 40
1
 10
120.160000
 20
65.440000
 30
0.0
 10
115.440000
 20
65.440000
 30
0.0
 10
111.760000
 20
66.400000
 30
0.0
 10
109.040000
 20
68.400000
 30
0.0
  0
SPLINE
  5
1e7
100
AcDbEntity
  8
0
 62
7
100
AcDbSpline
 70
8
 71
3
 72
8
 73
4
 74
0
 40
0
 40
0
 40
0
 40
0
 40
1
 40
1
 40
1
 40
1
 10
109.040000
 20
68.400000
 30
0.0
 10
106.400000
 20
70.400000
 30
0.0
 10
104.800000
 20
73.440000
 30
0.0
 10
104.160000
 20
77.440000
 30
0.0
  0
LINE
  5
1e8
100
AcDbEntity
  8
0
 62
7
100
AcDbLine
 10
104.160000
 20
77.440000
 30
0.0
 11
110.480000
 21
78.400000
 31
0.0
  0
SPLINE
  5
1e9
100
AcDbEntity
  8
0
 62
7
100
AcDbSpline
 70
8
 71
3
 72
8
 73
4
 74
0
 40
0
 40
0
 40
0
 40
0
 40
1
 40
1
 40
1
 40
1
 10
110.480000
 20
78.400000
 30
0.0
 10
110.800000
 20
75.760000
 30
0.0
 10
111.760000
 20
73.840000
 30
0.0
 10
113.360000
 20
72.560000
 30
0.0
  0
SPLINE
  5
1ea
100
AcDbEntity
  8
0
 62
7
100
AcDbSpline
 70
8
 71
3
 72
8
 73
4
 74
0
 40
0
 40
0
 40
0
 40
0
 40
1
 40
1
 40
1
 40
1
 10
113.360000
 20
72.560000
 30
0.0
 10
114.960000
 20
71.280000
 30
0.0
 10
117.200000
 20
70.640000
 30
0.0
 10
120.080000
 20
70.640000
 30
0.0
  0
SPLINE
  5
1eb
100
AcDbEntity
  8
0
 62
7
100
AcDbSpline
 70
8
 71
3
 72
8
 73
4
 74
0
 40
0
 40
0
 40
0
 40
0
 40
1
 40
1
 40
1
 40
1
 10
120.080000
 20
70.640000
 30
0.0
 10
122.880000
 20
70.640000
 30
0.0
 10
124.960000
 20
71.200000
 30
0.0
 10
126.480000
 20
72.400000
 30
0.0
  0
SPLINE
  5
1ec
100
AcDbEntity
  8
0
 62
7
100
AcDbSpline
 70
8
 71
3
 72
8
 73
4
 74
0
 40
0
 40
0
 40
0
 40
0
 40
1
 40
1
 40
1
 40
1
 10
126.480000
 20
72.400000
 30
0.0
 10
127.920000
 20
73.520000
 30
0.0
 10
128.640000
 20
74.960000
 30
0.0
 10
128.640000
 20
76.560000
 30
0.0
  0
SPLINE
  5
1ed
100
AcDbEntity
  8
0
 62
7
100
AcDbSpline
 70
8
 71
3
 72
8
 73
4
 74
0
 40
0
 40
0
 40
0
 40
0
 40
1
 40
1
 40
1
 40
1
 10
128.640000
 20
76.560000
 30
0.0
 10
128.640000
 20
77.760000
 30
0.0
 10
128.320000
 20
78.640000
 30
0.0
 10
127.680000
 20
79.280000
 30
0.0
  0
SPLINE
  5
1ee
100
AcDbEntity
  8
0
 62
7
100
AcDbSpline
 70
8
 71
3
 72
8
 73
4
 74
0
 40
0
 40
0
 40
0
 40
0
 40
1
 40
1
 40
1
 40
1
 10
127.680000
 20
79.280000
 30
0.0
 10
126.960000
 20
80.000000
 30
0.0
 10
126.080000
 20
80.480000
 30
0.0
 10
125.120000
 20
80.800000
 30
0.0
  0
SPLINE
  5
1ef
100
AcDbEntity
  8
0
 62
7
100
AcDbSpline
 70
8
 71
3
 72
8
 73
4
 74
0
 40
0
 40
0
 40
0
 40
0
 40
1
 40
1
 40
1
 40
1
 10
125.120000
 20
80.800000
 30
0.0
 10
124.080000
 20
81.200000
 30
0.0
 10
121.760000
 20
81.760000
 30
0.0
 10
118.240000
 20
82.640000
 30
0.0
  0
SPLINE
  5
1f0
100
AcDbEntity
  8
0
 62
7
100
AcDbSpline
 70
8
 71
3
 72
8
 73
4
 74
0
 40
0
 40
0
 40
0
 40
0
 40
1
 40
1
 40
1
 40
1
 10
118.240000
 20
82.640000
 30
0.0
 10
112.960000
 20
83.920000
 30
0.0
 10
109.440000
 20
85.440000
 30
0.0
 10
107.760000
 20
87.280000
 30
0.0
  0
SPLINE
  5
1f1
100
AcDbEntity
  8
0
 62
7
100
AcDbSpline
 70
8
 71
3
 72
8
 73
4
 74
0
 40
0
 40
0
 40
0
 40
0
 40
1
 40
1
 40
1
 40
1
 10
107.760000
 20
87.280000
 30
0.0
 10
106.000000
 20
89.040000
 30
0.0
 10
105.200000
 20
91.200000
 30
0.0
 10
105.200000
 20
93.680000
 30
0.0
  0
SPLINE
  5
1f2
100
AcDbEntity
  8
0
 62
7
100
AcDbSpline
 70
8
 71
3
 72
8
 73
4
 74
0
 40
0
 40
0
 40
0
 40
0
 40
1
 40
1
 40
1
 40
1
 10
105.200000
 20
93.680000
 30
0.0
 10
105.200000
 20
96.800000
 30
0.0
 10
106.400000
 20
99.440000
 30
0.0
 10
108.880000
 20
101.440000
 30
0.0
  0
SPLINE
  5
1f3
100
AcDbEntity
  8
0
 62
7
100
AcDbSpline
 70
8
 71
3
 72
8
 73
4
 74
0
 40
0
 40
0
 40
0
 40
0
 40
1
 40
1
 40
1
 40
1
 10
108.880000
 20
101.440000
 30
0.0
 10
111.360000
 20
103.440000
 30
0.0
 10
114.720000
 20
104.480000
 30
0.0
 10
118.960000
 20
104.480000
 30
0.0
  0
SPLINE
  5
1f4
100
AcDbEntity
  8
0
 62
7
100
AcDbSpline
 70
8
 71
3
 72
8
 73
4
 74
0
 40
0
 40
0
 40
0
 40
0
 40
1
 40
1
 40
1
 40
1
 10
118.960000
 20
104.480000
 30
0.0
 10
123.360000
 20
104.480000
 30
0.0
 10
126.800000
 20
103.600000
 30
0.0
 10
129.280000
 20
101.840000
 30
0.0
  0
SPLINE
  5
1f5
100
AcDbEntity
  8
0
 62
7
100
AcDbSpline
 70
8
 71
3
 72
8
 73
4
 74
0
 40
0
 40
0
 40
0
 40
0
 40
1
 40
1
 40
1
 40
1
 10
129.280000
 20
101.840000
 30
0.0
 10
131.760000
 20
100.080000
 30
0.0
 10
133.280000
 20
97.440000
 30
0.0
 10
133.760000
 20
94.000000
 30
0.0
  0
LINE
  5
1f6
100
AcDbEntity
  8
0
 62
7
100
AcDbLine
 10
133.760000
 20
94.000000
 30
0.0
 11
127.600000
 21
93.120000
 31
0.0
  0
LINE
  5
1f7
100
AcDbEntity
  8
0
 62
7
100
AcDbLine
 10
127.600000
 20
93.120000
 30
0.0
 11
127.600000
 21
93.120000
 31
0.0
  0
SPLINE
  5
1f8
100
AcDbEntity
  8
0
 62
7
100
AcDbSpline
 70
8
 71
3
 72
8
 73
4
 74
0
 40
0
 40
0
 40
0
 40
0
 40
1
 40
1
 40
1
 40
1
 10
157.280000
 20
66.400000
 30
0.0
 10
155.440000
 20
66.000000
 30
0.0
 10
153.840000
 20
65.840000
 30
0.0
 10
152.560000
 20
65.840000
 30
0.0
  0
SPLINE
  5
1f9
100
AcDbEntity
  8
0
 62
7
100
AcDbSpline
 70
8
 71
3
 72
8
 73
4
 74
0
 40
0
 40
0
 40
0
 40
0
 40
1
 40
1
 40
1
 40
1
 10
152.560000
 20
65.840000
 30
0.0
 10
149.840000
 20
65.840000
 30
0.0
 10
147.760000
 20
66.320000
 30
0.0
 10
146.560000
 20
67.280000
 30
0.0
  0
SPLINE
  5
1fa
100
AcDbEntity
  8
0
 62
7
100
AcDbSpline
 70
8
 71
3
 72
8
 73
4
 74
0
 40
0
 40
0
 40
0
 40
0
 40
1
 40
1
 40
1
 40
1
 10
146.560000
 20
67.280000
 30
0.0
 10
145.280000
 20
68.240000
 30
0.0
 10
144.480000
 20
69.440000
 30
0.0
 10
144.160000
 20
70.960000
 30
0.0
  0
SPLINE
  5
1fb
100
AcDbEntity
  8
0
 62
7
100
AcDbSpline
 70
8
 71
3
 72
8
 73
4
 74
0
 40
0
 40
0
 40
0
 40
0
 40
1
 40
1
 40
1
 40
1
 10
144.160000
 20
70.960000
 30
0.0
 10
143.920000
 20
72.480000
 30
0.0
 10
143.760000
 20
74.560000
 30
0.0
 10
143.760000
 20
77.200000
 30
0.0
  0
LINE
  5
1fc
100
AcDbEntity
  8
0
 62
7
100
AcDbLine
 10
143.760000
 20
77.200000
 30
0.0
 11
143.760000
 21
98.720000
 31
0.0
  0
LINE
  5
1fd
100
AcDbEntity
  8
0
 62
7
100
AcDbLine
 10
143.760000
 20
98.720000
 30
0.0
 11
139.200000
 21
98.720000
 31
0.0
  0
LINE
  5
1fe
100
AcDbEntity
  8
0
 62
7
100
AcDbLine
 10
139.200000
 20
98.720000
 30
0.0
 11
139.200000
 21
103.600000
 31
0.0
  0
LINE
  5
1ff
100
AcDbEntity
  8
0
 62
7
100
AcDbLine
 10
139.200000
 20
103.600000
 30
0.0
 11
143.760000
 21
103.600000
 31
0.0
  0
LINE
  5
200
100
AcDbEntity
  8
0
 62
7
100
AcDbLine
 10
143.760000
 20
103.600000
 30
0.0
 11
143.760000
 21
112.880000
 31
0.0
  0
LINE
  5
201
100
AcDbEntity
  8
0
 62
7
100
AcDbLine
 10
143.760000
 20
112.880000
 30
0.0
 11
150.080000
 21
116.720000
 31
0.0
  0
LINE
  5
202
100
AcDbEntity
  8
0
 62
7
100
AcDbLine
 10
150.080000
 20
116.720000
 30
0.0
 11
150.080000
 21
103.600000
 31
0.0
  0
LINE
  5
203
100
AcDbEntity
  8
0
 62
7
100
AcDbLine
 10
150.080000
 20
103.600000
 30
0.0
 11
156.400000
 21
103.600000
 31
0.0
  0
LINE
  5
204
100
AcDbEntity
  8
0
 62
7
100
AcDbLine
 10
156.400000
 20
103.600000
 30
0.0
 11
156.400000
 21
98.720000
 31
0.0
  0
LINE
  5
205
100
AcDbEntity
  8
0
 62
7
100
AcDbLine
 10
156.400000
 20
98.720000
 30
0.0
 11
150.080000
 21
98.720000
 31
0.0
  0
LINE
  5
206
100
AcDbEntity
  8
0
 62
7
100
AcDbLine
 10
150.080000
 20
98.720000
 30
0.0
 11
150.080000
 21
76.880000
 31
0.0
  0
SPLINE
  5
207
100
AcDbEntity
  8
0
 62
7
100
AcDbSpline
 70
8
 71
3
 72
8
 73
4
 74
0
 40
0
 40
0
 40
0
 40
0
 40
1
 40
1
 40
1
 40
1
 10
150.080000
 20
76.880000
 30
0.0
 10
150.080000
 20
75.040000
 30
0.0
 10
150.320000
 20
73.680000
 30
0.0
 10
150.720000
 20
72.880000
 30
0.0
  0
SPLINE
  5
208
100
AcDbEntity
  8
0
 62
7
100
AcDbSpline
 70
8
 71
3
 72
8
 73
4
 74
0
 40
0
 40
0
 40
0
 40
0
 40
1
 40
1
 40
1
 40
1
 10
150.720000
 20
72.880000
 30
0.0
 10
151.040000
 20
72.080000
 30
0.0
 10
152.080000
 20
71.680000
 30
0.0
 10
153.600000
 20
71.680000
 30
0.0
  0
SPLINE
  5
209
100
AcDbEntity
  8
0
 62
7
100
AcDbSpline
 70
8
 71
3
 72
8
 73
4
 74
0
 40
0
 40
0
 40
0
 40
0
 40
1
 40
1
 40
1
 40
1
 10
153.600000
 20
71.680000
 30
0.0
 10
154.560000
 20
71.680000
 30
0.0
 10
155.440000
 20
71.840000
 30
0.0
 10
156.400000
 20
72.000000
 30
0.0
  0
LINE
  5
20a
100
AcDbEntity
  8
0
 62
7
100
AcDbLine
 10
156.400000
 20
72.000000
 30
0.0
 11
157.280000
 21
66.400000
 31
0.0
  0
LINE
  5
20b
100
AcDbEntity
  8
0
 62
7
100
AcDbLine
 10
157.280000
 20
66.400000
 30
0.0
 11
157.280000
 21
66.400000
 31
0.0
  0
SPLINE
  5
20c
100
AcDbEntity
  8
0
 62
7
100
AcDbSpline
 70
8
 71
3
 72
8
 73
4
 74
0
 40
0
 40
0
 40
0
 40
0
 40
1
 40
1
 40
1
 40
1
 10
177.920000
 20
104.480000
 30
0.0
 10
182.960000
 20
104.480000
 30
0.0
 10
187.200000
 20
102.800000
 30
0.0
 10
190.480000
 20
99.520000
 30
0.0
  0
SPLINE
  5
20d
100
AcDbEntity
  8
0
 62
7
100
AcDbSpline
 70
8
 71
3
 72
8
 73
4
 74
0
 40
0
 40
0
 40
0
 40
0
 40
1
 40
1
 40
1
 40
1
 10
190.480000
 20
99.520000
 30
0.0
 10
193.760000
 20
96.240000
 30
0.0
 10
195.440000
 20
91.600000
 30
0.0
 10
195.440000
 20
85.520000
 30
0.0
  0
SPLINE
  5
20e
100
AcDbEntity
  8
0
 62
7
100
AcDbSpline
 70
8
 71
3
 72
8
 73
4
 74
0
 40
0
 40
0
 40
0
 40
0
 40
1
 40
1
 40
1
 40
1
 10
195.440000
 20
85.520000
 30
0.0
 10
195.440000
 20
78.160000
 30
0.0
 10
193.680000
 20
73.040000
 30
0.0
 10
190.080000
 20
70.000000
 30
0.0
  0
SPLINE
  5
20f
100
AcDbEntity
  8
0
 62
7
100
AcDbSpline
 70
8
 71
3
 72
8
 73
4
 74
0
 40
0
 40
0
 40
0
 40
0
 40
1
 40
1
 40
1
 40
1
 10
190.080000
 20
70.000000
 30
0.0
 10
186.480000
 20
66.960000
 30
0.0
 10
182.480000
 20
65.440000
 30
0.0
 10
177.920000
 20
65.440000
 30
0.0
  0
SPLINE
  5
210
100
AcDbEntity
  8
0
 62
7
100
AcDbSpline
 70
8
 71
3
 72
8
 73
4
 74
0
 40
0
 40
0
 40
0
 40
0
 40
1
 40
1
 40
1
 40
1
 10
177.920000
 20
65.440000
 30
0.0
 10
173.200000
 20
65.440000
 30
0.0
 10
169.120000
 20
66.960000
 30
0.0
 10
165.680000
 20
70.080000
 30
0.0
  0
SPLINE
  5
211
100
AcDbEntity
  8
0
 62
7
100
AcDbSpline
 70
8
 71
3
 72
8
 73
4
 74
0
 40
0
 40
0
 40
0
 40
0
 40
1
 40
1
 40
1
 40
1
 10
165.680000
 20
70.080000
 30
0.0
 10
162.240000
 20
73.200000
 30
0.0
 10
160.480000
 20
78.160000
 30
0.0
 10
160.480000
 20
84.960000
 30
0.0
  0
SPLINE
  5
212
100
AcDbEntity
  8
0
 62
7
100
AcDbSpline
 70
8
 71
3
 72
8
 73
4
 74
0
 40
0
 40
0
 40
0
 40
0
 40
1
 40
1
 40
1
 40
1
 10
160.480000
 20
84.960000
 30
0.0
 10
160.480000
 20
91.520000
 30
0.0
 10
162.160000
 20
96.400000
 30
0.0
 10
165.520000
 20
99.600000
 30
0.0
  0
SPLINE
  5
213
100
AcDbEntity
  8
0
 62
7
100
AcDbSpline
 70
8
 71
3
 72
8
 73
4
 74
0
 40
0
 40
0
 40
0
 40
0
 40
1
 40
1
 40
1
 40
1
 10
165.520000
 20
99.600000
 30
0.0
 10
168.880000
 20
102.800000
 30
0.0
 10
173.040000
 20
104.480000
 30
0.0
 10
177.920000
 20
104.480000
 30
0.0
  0
LINE
  5
214
100
AcDbEntity
  8
0
 62
7
100
AcDbLine
 10
177.920000
 20
104.480000
 30
0.0
 11
177.920000
 21
104.480000
 31
0.0
  0
SPLINE
  5
215
100
AcDbEntity
  8
0
 62
7
100
AcDbSpline
 70
8
 71
3
 72
8
 73
4
 74
0
 40
0
 40
0
 40
0
 40
0
 40
1
 40
1
 40
1
 40
1
 10
177.920000
 20
70.640000
 30
0.0
 10
181.520000
 20
70.640000
 30
0.0
 10
184.320000
 20
71.920000
 30
0.0
 10
186.160000
 20
74.640000
 30
0.0
  0
SPLINE
  5
216
100
AcDbEntity
  8
0
 62
7
100
AcDbSpline
 70
8
 71
3
 72
8
 73
4
 74
0
 40
0
 40
0
 40
0
 40
0
 40
1
 40
1
 40
1
 40
1
 10
186.160000
 20
74.640000
 30
0.0
 10
188.080000
 20
77.280000
 30
0.0
 10
188.960000
 20
80.800000
 30
0.0
 10
188.960000
 20
85.200000
 30
0.0
  0
SPLINE
  5
217
100
AcDbEntity
  8
0
 62
7
100
AcDbSpline
 70
8
 71
3
 72
8
 73
4
 74
0
 40
0
 40
0
 40
0
 40
0
 40
1
 40
1
 40
1
 40
1
 10
188.960000
 20
85.200000
 30
0.0
 10
188.960000
 20
89.840000
 30
0.0
 10
187.920000
 20
93.360000
 30
0.0
 10
185.840000
 20
95.760000
 30
0.0
  0
SPLINE
  5
218
100
AcDbEntity
  8
0
 62
7
100
AcDbSpline
 70
8
 71
3
 72
8
 73
4
 74
0
 40
0
 40
0
 40
0
 40
0
 40
1
 40
1
 40
1
 40
1
 10
185.840000
 20
95.760000
 30
0.0
 10
183.680000
 20
98.080000
 30
0.0
 10
181.040000
 20
99.280000
 30
0.0
 10
177.920000
 20
99.280000
 30
0.0
  0
SPLINE
  5
219
100
AcDbEntity
  8
0
 62
7
100
AcDbSpline
 70
8
 71
3
 72
8
 73
4
 74
0
 40
0
 40
0
 40
0
 40
0
 40
1
 40
1
 40
1
 40
1
 10
177.920000
 20
99.280000
 30
0.0
 10
174.720000
 20
99.280000
 30
0.0
 10
172.080000
 20
98.080000
 30
0.0
 10
170.000000
 20
95.680000
 30
0.0
  0
SPLINE
  5
21a
100
AcDbEntity
  8
0
 62
7
100
AcDbSpline
 70
8
 71
3
 72
8
 73
4
 74
0
 40
0
 40
0
 40
0
 40
0
 40
1
 40
1
 40
1
 40
1
 10
170.000000
 20
95.680000
 30
0.0
 10
168.000000
 20
93.280000
 30
0.0
 10
166.960000
 20
89.680000
 30
0.0
 10
166.960000
 20
84.960000
 30
0.0
  0
SPLINE
  5
21b
100
AcDbEntity
  8
0
 62
7
100
AcDbSpline
 70
8
 71
3
 72
8
 73
4
 74
0
 40
0
 40
0
 40
0
 40
0
 40
1
 40
1
 40
1
 40
1
 10
166.960000
 20
84.960000
 30
0.0
 10
166.960000
 20
80.160000
 30
0.0
 10
168.000000
 20
76.640000
 30
0.0
 10
170.080000
 20
74.240000
 30
0.0
  0
SPLINE
  5
21c
100
AcDbEntity
  8
0
 62
7
100
AcDbSpline
 70
8
 71
3
 72
8
 73
4
 74
0
 40
0
 40
0
 40
0
 40
0
 40
1
 40
1
 40
1
 40
1
 10
170.080000
 20
74.240000
 30
0.0
 10
172.160000
 20
71.840000
 30
0.0
 10
174.800000
 20
70.640000
 30
0.0
 10
177.920000
 20
70.640000
 30
0.0
  0
LINE
  5
21d
100
AcDbEntity
  8
0
 62
7
100
AcDbLine
 10
177.920000
 20
70.640000
 30
0.0
 11
177.920000
 21
70.640000
 31
0.0
  0
LINE
  5
21e
100
AcDbEntity
  8
0
 62
7
100
AcDbLine
 10
233.040000
 20
66.320000
 30
0.0
 11
227.360000
 21
66.320000
 31
0.0
  0
LINE
  5
21f
100
AcDbEntity
  8
0
 62
7
100
AcDbLine
 10
227.360000
 20
66.320000
 30
0.0
 11
227.360000
 21
71.760000
 31
0.0
  0
LINE
  5
220
100
AcDbEntity
  8
0
 62
7
100
AcDbLine
 10
227.360000
 20
71.760000
 30
0.0
 11
227.200000
 21
71.760000
 31
0.0
  0
SPLINE
  5
221
100
AcDbEntity
  8
0
 62
7
100
AcDbSpline
 70
8
 71
3
 72
8
 73
4
 74
0
 40
0
 40
0
 40
0
 40
0
 40
1
 40
1
 40
1
 40
1
 10
227.200000
 20
71.760000
 30
0.0
 10
224.320000
 20
67.520000
 30
0.0
 10
220.480000
 20
65.440000
 30
0.0
 10
215.520000
 20
65.440000
 30
0.0
  0
SPLINE
  5
222
100
AcDbEntity
  8
0
 62
7
100
AcDbSpline
 70
8
 71
3
 72
8
 73
4
 74
0
 40
0
 40
0
 40
0
 40
0
 40
1
 40
1
 40
1
 40
1
 10
215.520000
 20
65.440000
 30
0.0
 10
212.880000
 20
65.440000
 30
0.0
 10
210.480000
 20
66.000000
 30
0.0
 10
208.240000
 20
67.200000
 30
0.0
  0
SPLINE
  5
223
100
AcDbEntity
  8
0
 62
7
100
AcDbSpline
 70
8
 71
3
 72
8
 73
4
 74
0
 40
0
 40
0
 40
0
 40
0
 40
1
 40
1
 40
1
 40
1
 10
208.240000
 20
67.200000
 30
0.0
 10
206.080000
 20
68.400000
 30
0.0
 10
204.560000
 20
70.080000
 30
0.0
 10
203.840000
 20
72.240000
 30
0.0
  0
SPLINE
  5
224
100
AcDbEntity
  8
0
 62
7
100
AcDbSpline
 70
8
 71
3
 72
8
 73
4
 74
0
 40
0
 40
0
 40
0
 40
0
 40
1
 40
1
 40
1
 40
1
 10
203.840000
 20
72.240000
 30
0.0
 10
203.120000
 20
74.320000
 30
0.0
 10
202.720000
 20
77.120000
 30
0.0
 10
202.720000
 20
80.480000
 30
0.0
  0
LINE
  5
225
100
AcDbEntity
  8
0
 62
7
100
AcDbLine
 10
202.720000
 20
80.480000
 30
0.0
 11
202.720000
 21
103.600000
 31
0.0
  0
LINE
  5
226
100
AcDbEntity
  8
0
 62
7
100
AcDbLine
 10
202.720000
 20
103.600000
 30
0.0
 11
209.040000
 21
103.600000
 31
0.0
  0
LINE
  5
227
100
AcDbEntity
  8
0
 62
7
100
AcDbLine
 10
209.040000
 20
103.600000
 30
0.0
 11
209.040000
 21
82.960000
 31
0.0
  0
SPLINE
  5
228
100
AcDbEntity
  8
0
 62
7
100
AcDbSpline
 70
8
 71
3
 72
8
 73
4
 74
0
 40
0
 40
0
 40
0
 40
0
 40
1
 40
1
 40
1
 40
1
 10
209.040000
 20
82.960000
 30
0.0
 10
209.040000
 20
79.600000
 30
0.0
 10
209.200000
 20
77.280000
 30
0.0
 10
209.520000
 20
75.840000
 30
0.0
  0
SPLINE
  5
229
100
AcDbEntity
  8
0
 62
7
100
AcDbSpline
 70
8
 71
3
 72
8
 73
4
 74
0
 40
0
 40
0
 40
0
 40
0
 40
1
 40
1
 40
1
 40
1
 10
209.520000
 20
75.840000
 30
0.0
 10
209.840000
 20
74.400000
 30
0.0
 10
210.720000
 20
73.200000
 30
0.0
 10
212.000000
 20
72.320000
 30
0.0
  0
SPLINE
  5
22a
100
AcDbEntity
  8
0
 62
7
100
AcDbSpline
 70
8
 71
3
 72
8
 73
4
 74
0
 40
0
 40
0
 40
0
 40
0
 40
1
 40
1
 40
1
 40
1
 10
212.000000
 20
72.320000
 30
0.0
 10
213.360000
 20
71.360000
 30
0.0
 10
214.960000
 20
70.880000
 30
0.0
 10
216.800000
 20
70.880000
 30
0.0
  0
SPLINE
  5
22b
100
AcDbEntity
  8
0
 62
7
100
AcDbSpline
 70
8
 71
3
 72
8
 73
4
 74
0
 40
0
 40
0
 40
0
 40
0
 40
1
 40
1
 40
1
 40
1
 10
216.800000
 20
70.880000
 30
0.0
 10
219.200000
 20
70.880000
 30
0.0
 10
221.440000
 20
71.760000
 30
0.0
 10
223.520000
 20
73.360000
 30
0.0
  0
SPLINE
  5
22c
100
AcDbEntity
  8
0
 62
7
100
AcDbSpline
 70
8
 71
3
 72
8
 73
4
 74
0
 40
0
 40
0
 40
0
 40
0
 40
1
 40
1
 40
1
 40
1
 10
223.520000
 20
73.360000
 30
0.0
 10
225.680000
 20
75.040000
 30
0.0
 10
226.720000
 20
78.480000
 30
0.0
 10
226.720000
 20
83.680000
 30
0.0
  0
LINE
  5
22d
100
AcDbEntity
  8
0
 62
7
100
AcDbLine
 10
226.720000
 20
83.680000
 30
0.0
 11
226.720000
 21
103.600000
 31
0.0
  0
LINE
  5
22e
100
AcDbEntity
  8
0
 62
7
100
AcDbLine
 10
226.720000
 20
103.600000
 30
0.0
 11
233.040000
 21
103.600000
 31
0.0
  0
LINE
  5
22f
100
AcDbEntity
  8
0
 62
7
100
AcDbLine
 10
233.040000
 20
103.600000
 30
0.0
 11
233.040000
 21
66.320000
 31
0.0
  0
LINE
  5
230
100
AcDbEntity
  8
0
 62
7
100
AcDbLine
 10
233.040000
 20
66.320000
 30
0.0
 11
233.040000
 21
66.320000
 31
0.0
  0
LINE
  5
231
100
AcDbEntity
  8
0
 62
7
100
AcDbLine
 10
249.200000
 20
66.320000
 30
0.0
 11
242.880000
 21
66.320000
 31
0.0
  0
LINE
  5
232
100
AcDbEntity
  8
0
 62
7
100
AcDbLine
 10
242.880000
 20
66.320000
 30
0.0
 11
242.880000
 21
103.600000
 31
0.0
  0
LINE
  5
233
100
AcDbEntity
  8
0
 62
7
100
AcDbLine
 10
242.880000
 20
103.600000
 30
0.0
 11
249.200000
 21
103.600000
 31
0.0
  0
LINE
  5
234
100
AcDbEntity
  8
0
 62
7
100
AcDbLine
 10
249.200000
 20
103.600000
 30
0.0
 11
249.200000
 21
66.320000
 31
0.0
  0
LINE
  5
235
100
AcDbEntity
  8
0
 62
7
100
AcDbLine
 10
249.200000
 20
66.320000
 30
0.0
 11
249.200000
 21
66.320000
 31
0.0
  0
LINE
  5
236
100
AcDbEntity
  8
0
 62
7
100
AcDbLine
 10
249.200000
 20
110.640000
 30
0.0
 11
242.880000
 21
110.640000
 31
0.0
  0
LINE
  5
237
100
AcDbEntity
  8
0
 62
7
100
AcDbLine
 10
242.880000
 20
110.640000
 30
0.0
 11
242.880000
 21
117.840000
 31
0.0
  0
LINE
  5
238
100
AcDbEntity
  8
0
 62
7
100
AcDbLine
 10
242.880000
 20
117.840000
 30
0.0
 11
249.200000
 21
117.840000
 31
0.0
  0
LINE
  5
239
100
AcDbEntity
  8
0
 62
7
100
AcDbLine
 10
249.200000
 20
117.840000
 30
0.0
 11
249.200000
 21
110.640000
 31
0.0
  0
LINE
  5
23a
100
AcDbEntity
  8
0
 62
7
100
AcDbLine
 10
249.200000
 20
110.640000
 30
0.0
 11
249.200000
 21
110.640000
 31
0.0
  0
LINE
  5
23b
100
AcDbEntity
  8
0
 62
7
100
AcDbLine
 10
265.200000
 20
66.320000
 30
0.0
 11
258.880000
 21
66.320000
 31
0.0
  0
LINE
  5
23c
100
AcDbEntity
  8
0
 62
7
100
AcDbLine
 10
258.880000
 20
66.320000
 30
0.0
 11
258.880000
 21
117.840000
 31
0.0
  0
LINE
  5
23d
100
AcDbEntity
  8
0
 62
7
100
AcDbLine
 10
258.880000
 20
117.840000
 30
0.0
 11
265.200000
 21
117.840000
 31
0.0
  0
LINE
  5
23e
100
AcDbEntity
  8
0
 62
7
100
AcDbLine
 10
265.200000
 20
117.840000
 30
0.0
 11
265.200000
 21
66.320000
 31
0.0
  0
LINE
  5
23f
100
AcDbEntity
  8
0
 62
7
100
AcDbLine
 10
265.200000
 20
66.320000
 30
0.0
 11
265.200000
 21
66.320000
 31
0.0
  0
LINE
  5
240
100
AcDbEntity
  8
0
 62
7
100
AcDbLine
 10
281.200000
 20
66.320000
 30
0.0
 11
274.880000
 21
66.320000
 31
0.0
  0
LINE
  5
241
100
AcDbEntity
  8
0
 62
7
100
AcDbLine
 10
274.880000
 20
66.320000
 30
0.0
 11
274.880000
 21
117.840000
 31
0.0
  0
LINE
  5
242
100
AcDbEntity
  8
0
 62
7
100
AcDbLine
 10
274.880000
 20
117.840000
 30
0.0
 11
281.200000
 21
117.840000
 31
0.0
  0
LINE
  5
243
100
AcDbEntity
  8
0
 62
7
100
AcDbLine
 10
281.200000
 20
117.840000
 30
0.0
 11
281.200000
 21
66.320000
 31
0.0
  0
LINE
  5
244
100
AcDbEntity
  8
0
 62
7
100
AcDbLine
 10
281.200000
 20
66.320000
 30
0.0
 11
281.200000
 21
66.320000
 31
0.0
  0
LINE
  5
245
100
AcDbEntity
  8
0
 62
7
100
AcDbLine
 10
323.280000
 20
83.360000
 30
0.0
 11
295.280000
 21
83.360000
 31
0.0
  0
SPLINE
  5
246
100
AcDbEntity
  8
0
 62
7
100
AcDbSpline
 70
8
 71
3
 72
8
 73
4
 74
0
 40
0
 40
0
 40
0
 40
0
 40
1
 40
1
 40
1
 40
1
 10
295.280000
 20
83.360000
 30
0.0
 10
295.520000
 20
79.200000
 30
0.0
 10
296.720000
 20
76.080000
 30
0.0
 10
298.800000
 20
73.920000
 30
0.0
  0
SPLINE
  5
247
100
AcDbEntity
  8
0
 62
7
100
AcDbSpline
 70
8
 71
3
 72
8
 73
4
 74
0
 40
0
 40
0
 40
0
 40
0
 40
1
 40
1
 40
1
 40
1
 10
298.800000
 20
73.920000
 30
0.0
 10
300.960000
 20
71.680000
 30
0.0
 10
303.520000
 20
70.640000
 30
0.0
 10
306.720000
 20
70.640000
 30
0.0
  0
SPLINE
  5
248
100
AcDbEntity
  8
0
 62
7
100
AcDbSpline
 70
8
 71
3
 72
8
 73
4
 74
0
 40
0
 40
0
 40
0
 40
0
 40
1
 40
1
 40
1
 40
1
 10
306.720000
 20
70.640000
 30
0.0
 10
309.120000
 20
70.640000
 30
0.0
 10
311.120000
 20
71.280000
 30
0.0
 10
312.800000
 20
72.560000
 30
0.0
  0
SPLINE
  5
249
100
AcDbEntity
  8
0
 62
7
100
AcDbSpline
 70
8
 71
3
 72
8
 73
4
 74
0
 40
0
 40
0
 40
0
 40
0
 40
1
 40
1
 40
1
 40
1
 10
312.800000
 20
72.560000
 30
0.0
 10
314.400000
 20
73.840000
 30
0.0
 10
315.680000
 20
75.760000
 30
0.0
 10
316.560000
 20
78.320000
 30
0.0
  0
LINE
  5
24a
100
AcDbEntity
  8
0
 62
7
100
AcDbLine
 10
316.560000
 20
78.320000
 30
0.0
 11
323.040000
 21
77.520000
 31
0.0
  0
SPLINE
  5
24b
100
AcDbEntity
  8
0
 62
7
100
AcDbSpline
 70
8
 71
3
 72
8
 73
4
 74
0
 40
0
 40
0
 40
0
 40
0
 40
1
 40
1
 40
1
 40
1
 10
323.040000
 20
77.520000
 30
0.0
 10
322.000000
 20
73.600000
 30
0.0
 10
320.080000
 20
70.640000
 30
0.0
 10
317.200000
 20
68.560000
 30
0.0
  0
SPLINE
  5
24c
100
AcDbEntity
  8
0
 62
7
100
AcDbSpline
 70
8
 71
3
 72
8
 73
4
 74
0
 40
0
 40
0
 40
0
 40
0
 40
1
 40
1
 40
1
 40
1
 10
317.200000
 20
68.560000
 30
0.0
 10
314.400000
 20
66.480000
 30
0.0
 10
310.880000
 20
65.440000
 30
0.0
 10
306.720000
 20
65.440000
 30
0.0
  0
SPLINE
  5
24d
100
AcDbEntity
  8
0
 62
7
100
AcDbSpline
 70
8
 71
3
 72
8
 73
4
 74
0
 40
0
 40
0
 40
0
 40
0
 40
1
 40
1
 40
1
 40
1
 10
306.720000
 20
65.440000
 30
0.0
 10
301.120000
 20
65.440000
 30
0.0
 10
296.720000
 20
67.120000
 30
0.0
 10
293.600000
 20
70.560000
 30
0.0
  0
SPLINE
  5
24e
100
AcDbEntity
  8
0
 62
7
100
AcDbSpline
 70
8
 71
3
 72
8
 73
4
 74
0
 40
0
 40
0
 40
0
 40
0
 40
1
 40
1
 40
1
 40
1
 10
293.600000
 20
70.560000
 30
0.0
 10
290.400000
 20
74.000000
 30
0.0
 10
288.800000
 20
78.720000
 30
0.0
 10
288.800000
 20
84.640000
 30
0.0
  0
SPLINE
  5
24f
100
AcDbEntity
  8
0
 62
7
100
AcDbSpline
 70
8
 71
3
 72
8
 73
4
 74
0
 40
0
 40
0
 40
0
 40
0
 40
1
 40
1
 40
1
 40
1
 10
288.800000
 20
84.640000
 30
0.0
 10
288.800000
 20
90.560000
 30
0.0
 10
290.400000
 20
95.280000
 30
0.0
 10
293.440000
 20
98.960000
 30
0.0
  0
SPLINE
  5
250
100
AcDbEntity
  8
0
 62
7
100
AcDbSpline
 70
8
 71
3
 72
8
 73
4
 74
0
 40
0
 40
0
 40
0
 40
0
 40
1
 40
1
 40
1
 40
1
 10
293.440000
 20
98.960000
 30
0.0
 10
296.480000
 20
102.640000
 30
0.0
 10
300.800000
 20
104.480000
 30
0.0
 10
306.320000
 20
104.480000
 30
0.0
  0
SPLINE
  5
251
100
AcDbEntity
  8
0
 62
7
100
AcDbSpline
 70
8
 71
3
 72
8
 73
4
 74
0
 40
0
 40
0
 40
0
 40
0
 40
1
 40
1
 40
1
 40
1
 10
306.320000
 20
104.480000
 30
0.0
 10
309.040000
 20
104.480000
 30
0.0
 10
311.680000
 20
103.840000
 30
0.0
 10
314.160000
 20
102.640000
 30
0.0
  0
SPLINE
  5
252
100
AcDbEntity
  8
0
 62
7
100
AcDbSpline
 70
8
 71
3
 72
8
 73
4
 74
0
 40
0
 40
0
 40
0
 40
0
 40
1
 40
1
 40
1
 40
1
 10
314.160000
 20
102.640000
 30
0.0
 10
316.720000
 20
101.440000
 30
0.0
 10
318.880000
 20
99.440000
 30
0.0
 10
320.640000
 20
96.560000
 30
0.0
  0
SPLINE
  5
253
100
AcDbEntity
  8
0
 62
7
100
AcDbSpline
 70
8
 71
3
 72
8
 73
4
 74
0
 40
0
 40
0
 40
0
 40
0
 40
1
 40
1
 40
1
 40
1
 10
320.640000
 20
96.560000
 30
0.0
 10
322.400000
 20
93.680000
 30
0.0
 10
323.280000
 20
89.280000
 30
0.0
 10
323.280000
 20
83.360000
 30
0.0
  0
LINE
  5
254
100
AcDbEntity
  8
0
 62
7
100
AcDbLine
 10
323.280000
 20
83.360000
 30
0.0
 11
323.280000
 21
83.360000
 31
0.0
  0
SPLINE
  5
255
100
AcDbEntity
  8
0
 62
7
100
AcDbSpline
 70
8
 71
3
 72
8
 73
4
 74
0
 40
0
 40
0
 40
0
 40
0
 40
1
 40
1
 40
1
 40
1
 10
316.720000
 20
88.560000
 30
0.0
 10
316.480000
 20
92.320000
 30
0.0
 10
315.280000
 20
95.120000
 30
0.0
 10
313.200000
 20
96.800000
 30
0.0
  0
SPLINE
  5
256
100
AcDbEntity
  8
0
 62
7
100
AcDbSpline
 70
8
 71
3
 72
8
 73
4
 74
0
 40
0
 40
0
 40
0
 40
0
 40
1
 40
1
 40
1
 40
1
 10
313.200000
 20
96.800000
 30
0.0
 10
311.120000
 20
98.400000
 30
0.0
 10
308.800000
 20
99.280000
 30
0.0
 10
306.320000
 20
99.280000
 30
0.0
  0
SPLINE
  5
257
100
AcDbEntity
  8
0
 62
7
100
AcDbSpline
 70
8
 71
3
 72
8
 73
4
 74
0
 40
0
 40
0
 40
0
 40
0
 40
1
 40
1
 40
1
 40
1
 10
306.320000
 20
99.280000
 30
0.0
 10
303.360000
 20
99.280000
 30
0.0
 10
300.880000
 20
98.240000
 30
0.0
 10
298.960000
 20
96.320000
 30
0.0
  0
SPLINE
  5
258
100
AcDbEntity
  8
0
 62
7
100
AcDbSpline
 70
8
 71
3
 72
8
 73
4
 74
0
 40
0
 40
0
 40
0
 40
0
 40
1
 40
1
 40
1
 40
1
 10
298.960000
 20
96.320000
 30
0.0
 10
297.040000
 20
94.320000
 30
0.0
 10
295.920000
 20
91.680000
 30
0.0
 10
295.680000
 20
88.560000
 30
0.0
  0
LINE
  5
259
100
AcDbEntity
  8
0
 62
7
100
AcDbLine
 10
295.680000
 20
88.560000
 30
0.0
 11
316.720000
 21
88.560000
 31
0.0
  0
LINE
  5
25a
100
AcDbEntity
  8
0
 62
7
100
AcDbLine
 10
316.720000
 20
88.560000
 30
0.0
 11
316.720000
 21
88.560000
 31
0.0
  0
LINE
  5
25b
100
AcDbEntity
  8
0
 62
7
100
AcDbLine
 10
339.680000
 20
66.320000
 30
0.0
 11
332.480000
 21
66.320000
 31
0.0
  0
LINE
  5
25c
100
AcDbEntity
  8
0
 62
7
100
AcDbLine
 10
332.480000
 20
66.320000
 30
0.0
 11
332.480000
 21
73.520000
 31
0.0
  0
LINE
  5
25d
100
AcDbEntity
  8
0
 62
7
100
AcDbLine
 10
332.480000
 20
73.520000
 30
0.0
 11
339.680000
 21
73.520000
 31
0.0
  0
LINE
  5
25e
100
AcDbEntity
  8
0
 62
7
100
AcDbLine
 10
339.680000
 20
73.520000
 30
0.0
 11
339.680000
 21
66.320000
 31
0.0
  0
LINE
  5
25f
100
AcDbEntity
  8
0
 62
7
100
AcDbLine
 10
339.680000
 20
66.320000
 30
0.0
 11
339.680000
 21
66.320000
 31
0.0
  0
LINE
  5
260
100
AcDbEntity
  8
0
 62
7
100
AcDbLine
 10
368.480000
 20
118.080000
 30
0.0
 11
367.520000
 21
112.560000
 31
0.0
  0
SPLINE
  5
261
100
AcDbEntity
  8
0
 62
7
100
AcDbSpline
 70
8
 71
3
 72
8
 73
4
 74
0
 40
0
 40
0
 40
0
 40
0
 40
1
 40
1
 40
1
 40
1
 10
367.520000
 20
112.560000
 30
0.0
 10
366.240000
 20
112.800000
 30
0.0
 10
365.040000
 20
112.880000
 30
0.0
 10
363.760000
 20
112.880000
 30
0.0
  0
SPLINE
  5
262
100
AcDbEntity
  8
0
 62
7
100
AcDbSpline
 70
8
 71
3
 72
8
 73
4
 74
0
 40
0
 40
0
 40
0
 40
0
 40
1
 40
1
 40
1
 40
1
 10
363.760000
 20
112.880000
 30
0.0
 10
362.240000
 20
112.880000
 30
0.0
 10
361.040000
 20
112.560000
 30
0.0
 10
360.080000
 20
111.920000
 30
0.0
  0
SPLINE
  5
263
100
AcDbEntity
  8
0
 62
7
100
AcDbSpline
 70
8
 71
3
 72
8
 73
4
 74
0
 40
0
 40
0
 40
0
 40
0
 40
1
 40
1
 40
1
 40
1
 10
360.080000
 20
111.920000
 30
0.0
 10
359.040000
 20
111.280000
 30
0.0
 10
358.560000
 20
109.680000
 30
0.0
 10
358.560000
 20
107.120000
 30
0.0
  0
LINE
  5
264
100
AcDbEntity
  8
0
 62
7
100
AcDbLine
 10
358.560000
 20
107.120000
 30
0.0
 11
358.560000
 21
103.600000
 31
0.0
  0
LINE
  5
265
100
AcDbEntity
  8
0
 62
7
100
AcDbLine
 10
358.560000
 20
103.600000
 30
0.0
 11
365.760000
 21
103.600000
 31
0.0
  0
LINE
  5
266
100
AcDbEntity
  8
0
 62
7
100
AcDbLine
 10
365.760000
 20
103.600000
 30
0.0
 11
365.760000
 21
98.720000
 31
0.0
  0
LINE
  5
267
100
AcDbEntity
  8
0
 62
7
100
AcDbLine
 10
365.760000
 20
98.720000
 30
0.0
 11
358.560000
 21
98.720000
 31
0.0
  0
LINE
  5
268
100
AcDbEntity
  8
0
 62
7
100
AcDbLine
 10
358.560000
 20
98.720000
 30
0.0
 11
358.560000
 21
66.320000
 31
0.0
  0
LINE
  5
269
100
AcDbEntity
  8
0
 62
7
100
AcDbLine
 10
358.560000
 20
66.320000
 30
0.0
 11
352.240000
 21
66.320000
 31
0.0
  0
LINE
  5
26a
100
AcDbEntity
  8
0
 62
7
100
AcDbLine
 10
352.240000
 20
66.320000
 30
0.0
 11
352.240000
 21
98.720000
 31
0.0
  0
LINE
  5
26b
100
AcDbEntity
  8
0
 62
7
100
AcDbLine
 10
352.240000
 20
98.720000
 30
0.0
 11
346.640000
 21
98.720000
 31
0.0
  0
LINE
  5
26c
100
AcDbEntity
  8
0
 62
7
100
AcDbLine
 10
346.640000
 20
98.720000
 30
0.0
 11
346.640000
 21
103.600000
 31
0.0
  0
LINE
  5
26d
100
AcDbEntity
  8
0
 62
7
100
AcDbLine
 10
346.640000
 20
103.600000
 30
0.0
 11
352.240000
 21
103.600000
 31
0.0
  0
LINE
  5
26e
100
AcDbEntity
  8
0
 62
7
100
AcDbLine
 10
352.240000
 20
103.600000
 30
0.0
 11
352.240000
 21
107.680000
 31
0.0
  0
SPLINE
  5
26f
100
AcDbEntity
  8
0
 62
7
100
AcDbSpline
 70
8
 71
3
 72
8
 73
4
 74
0
 40
0
 40
0
 40
0
 40
0
 40
1
 40
1
 40
1
 40
1
 10
352.240000
 20
107.680000
 30
0.0
 10
352.240000
 20
109.520000
 30
0.0
 10
352.400000
 20
111.200000
 30
0.0
 10
352.800000
 20
112.720000
 30
0.0
  0
SPLINE
  5
270
100
AcDbEntity
  8
0
 62
7
100
AcDbSpline
 70
8
 71
3
 72
8
 73
4
 74
0
 40
0
 40
0
 40
0
 40
0
 40
1
 40
1
 40
1
 40
1
 10
352.800000
 20
112.720000
 30
0.0
 10
353.120000
 20
114.240000
 30
0.0
 10
354.080000
 20
115.600000
 30
0.0
 10
355.600000
 20
116.880000
 30
0.0
  0
SPLINE
  5
271
100
AcDbEntity
  8
0
 62
7
100
AcDbSpline
 70
8
 71
3
 72
8
 73
4
 74
0
 40
0
 40
0
 40
0
 40
0
 40
1
 40
1
 40
1
 40
1
 10
355.600000
 20
116.880000
 30
0.0
 10
357.120000
 20
118.080000
 30
0.0
 10
359.440000
 20
118.720000
 30
0.0
 10
362.560000
 20
118.720000
 30
0.0
  0
SPLINE
  5
272
100
AcDbEntity
  8
0
 62
7
100
AcDbSpline
 70
8
 71
3
 72
8
 73
4
 74
0
 40
0
 40
0
 40
0
 40
0
 40
1
 40
1
 40
1
 40
1
 10
362.560000
 20
118.720000
 30
0.0
 10
364.400000
 20
118.720000
 30
0.0
 10
366.400000
 20
118.480000
 30
0.0
 10
368.480000
 20
118.080000
 30
0.0
  0
LINE
  5
273
100
AcDbEntity
  8
0
 62
7
100
AcDbLine
 10
368.480000
 20
118.080000
 30
0.0
 11
368.480000
 21
118.080000
 31
0.0
  0
LINE
  5
274
100
AcDbEntity
  8
0
 62
7
100
AcDbLine
 10
390.960000
 20
102.400000
 30
0.0
 11
388.800000
 21
96.640000
 31
0.0
  0
SPLINE
  5
275
100
AcDbEntity
  8
0
 62
7
100
AcDbSpline
 70
8
 71
3
 72
8
 73
4
 74
0
 40
0
 40
0
 40
0
 40
0
 40
1
 40
1
 40
1
 40
1
 10
388.800000
 20
96.640000
 30
0.0
 10
387.280000
 20
97.520000
 30
0.0
 10
385.680000
 20
98.000000
 30
0.0
 10
384.240000
 20
98.000000
 30
0.0
  0
SPLINE
  5
276
100
AcDbEntity
  8
0
 62
7
100
AcDbSpline
 70
8
 71
3
 72
8
 73
4
 74
0
 40
0
 40
0
 40
0
 40
0
 40
1
 40
1
 40
1
 40
1
 10
384.240000
 20
98.000000
 30
0.0
 10
381.840000
 20
98.000000
 30
0.0
 10
380.080000
 20
96.880000
 30
0.0
 10
378.800000
 20
94.800000
 30
0.0
  0
SPLINE
  5
277
100
AcDbEntity
  8
0
 62
7
100
AcDbSpline
 70
8
 71
3
 72
8
 73
4
 74
0
 40
0
 40
0
 40
0
 40
0
 40
1
 40
1
 40
1
 40
1
 10
378.800000
 20
94.800000
 30
0.0
 10
377.600000
 20
92.640000
 30
0.0
 10
377.040000
 20
89.680000
 30
0.0
 10
377.040000
 20
85.840000
 30
0.0
  0
LINE
  5
278
100
AcDbEntity
  8
0
 62
7
100
AcDbLine
 10
377.040000
 20
85.840000
 30
0.0
 11
377.040000
 21
66.320000
 31
0.0
  0
LINE
  5
279
100
AcDbEntity
  8
0
 62
7
100
AcDbLine
 10
377.040000
 20
66.320000
 30
0.0
 11
370.640000
 21
66.320000
 31
0.0
  0
LINE
  5
27a
100
AcDbEntity
  8
0
 62
7
100
AcDbLine
 10
370.640000
 20
66.320000
 30
0.0
 11
370.640000
 21
103.600000
 31
0.0
  0
LINE
  5
27b
100
AcDbEntity
  8
0
 62
7
100
AcDbLine
 10
370.640000
 20
103.600000
 30
0.0
 11
376.480000
 21
103.600000
 31
0.0
  0
LINE
  5
27c
100
AcDbEntity
  8
0
 62
7
100
AcDbLine
 10
376.480000
 20
103.600000
 30
0.0
 11
376.480000
 21
98.000000
 31
0.0
  0
LINE
  5
27d
100
AcDbEntity
  8
0
 62
7
100
AcDbLine
 10
376.480000
 20
98.000000
 30
0.0
 11
376.560000
 21
98.000000
 31
0.0
  0
SPLINE
  5
27e
100
AcDbEntity
  8
0
 62
7
100
AcDbSpline
 70
8
 71
3
 72
8
 73
4
 74
0
 40
0
 40
0
 40
0
 40
0
 40
1
 40
1
 40
1
 40
1
 10
376.560000
 20
98.000000
 30
0.0
 10
378.560000
 20
102.320000
 30
0.0
 10
381.200000
 20
104.480000
 30
0.0
 10
384.480000
 20
104.480000
 30
0.0
  0
SPLINE
  5
27f
100
AcDbEntity
  8
0
 62
7
100
AcDbSpline
 70
8
 71
3
 72
8
 73
4
 74
0
 40
0
 40
0
 40
0
 40
0
 40
1
 40
1
 40
1
 40
1
 10
384.480000
 20
104.480000
 30
0.0
 10
386.640000
 20
104.480000
 30
0.0
 10
388.800000
 20
103.760000
 30
0.0
 10
390.960000
 20
102.400000
 30
0.0
  0
LINE
  5
280
100
AcDbEntity
  8
0
 62
7
100
AcDbLine
 10
390.960000
 20
102.400000
 30
0.0
 11
390.960000
 21
102.400000
 31
0.0
  0
ENDSEC
  0
SECTION
  2
OBJECTS
  0
DICTIONARY
  5
C
330
0
100
AcDbDictionary
  3
ACAD_GROUP
350
D
  3
ACAD_MLINESTYLE
350
17
  0
DICTIONARY
  5
D
330
C
100
AcDbDictionary
  0
DICTIONARY
  5
1A
330
C
100
AcDbDictionary
  0
DICTIONARY
  5
17
330
C
100
AcDbDictionary
  3
STANDARD
350
18
  0
DICTIONARY
  5
19
330
C
100
AcDbDictionary
  0
ENDSEC
  0
EOF
