  0
SECTION
  2
HEADER
  9
$ACADVER
  1
AC1014
  9
$HANDSEED
  5
FFFF
  9
$MEASUREMENT
 70
     1
  0
ENDSEC
  0
SECTION
  2
TABLES
  0
TABLE
  2
VPORT
  5
8
330
0
100
AcDbSymbolTable
 70
     4
  0
VPORT
  5
2E
330
8
100
AcDbSymbolTableRecord
100
AcDbViewportTableRecord
  2
*ACTIVE
 70
     0
 10
0.0
 20
0.0
 11
1.0
 21
1.0
 12
210.0
 22
148.5
 13
0.0
 23
0.0
 14
10.0
 24
10.0
 15
10.0
 25
10.0
 16
0.0
 26
0.0
 36
1.0
 17
0.0
 27
0.0
 37
0.0
 40
341.0
 41
1.24
 42
50.0
 43
0.0
 44
0.0
 50
0.0
 51
0.0
 71
     0
 72
   100
 73
     1
 74
     3
 75
     0
 76
     0
 77
     0
 78
     0
  0
ENDTAB
  0
TABLE
  2
LTYPE
  5
5
330
0
100
AcDbSymbolTable
 70
     1
  0
LTYPE
  5
14
330
5
100
AcDbSymbolTableRecord
100
AcDbLinetypeTableRecord
  2
BYBLOCK
 70
     0
  3

 72
    65
 73
     0
 40
0.0
  0
LTYPE
  5
15
330
5
100
AcDbSymbolTableRecord
100
AcDbLinetypeTableRecord
  2
BYLAYER
 70
     0
  3

 72
    65
 73
     0
 40
0.0
  0
LTYPE
  5
16
330
5
100
AcDbSymbolTableRecord
100
AcDbLinetypeTableRecord
  2
CONTINUOUS
 70
     0
  3
Solid line
 72
    65
 73
     0
 40
0.0
  0
ENDTAB
  0
TABLE
  2
LAYER
  5
2
100
AcDbSymbolTable
 70
1
  0
LAYER
  5
50
100
AcDbSymbolTableRecord
100
AcDbLayerTableRecord
  2
0
 70
0
  6
CONTINUOUS
  0
ENDTAB
  0
TABLE
  2
STYLE
  5
3
330
0
100
AcDbSymbolTable
 70
     1
  0
STYLE
  5
11
330
3
100
AcDbSymbolTableRecord
100
AcDbTextStyleTableRecord
  2
STANDARD
 70
     0
 40
0.0
 41
1.0
 50
0.0
 71
     0
 42
2.5
  3
txt
  4

  0
ENDTAB
  0
TABLE
  2
VIEW
  5
6
330
0
100
AcDbSymbolTable
 70
     0
  0
ENDTAB
  0
TABLE
  2
UCS
  5
7
330
0
100
AcDbSymbolTable
 70
     0
  0
ENDTAB
  0
TABLE
  2
APPID
  5
9
330
0
100
AcDbSymbolTable
 70
     2
  0
APPID
  5
12
330
9
100
AcDbSymbolTableRecord
100
AcDbRegAppTableRecord
  2
ACAD
 70
     0
  0
ENDTAB
  0
TABLE
  2
DIMSTYLE
  5
A
330
0
100
AcDbSymbolTable
 70
     1
  0
DIMSTYLE
105
27
330
A
100
AcDbSymbolTableRecord
100
AcDbDimStyleTableRecord
  2
ISO-25
 70
     0
  3

  4

  5

  6

  7

 40
1.0
 41
2.5
 42
0.625
 43
3.75
 44
1.25
 45
0.0
 46
0.0
 47
0.0
 48
0.0
140
2.5
141
2.5
142
0.0
143
0.03937007874016
144
1.0
145
0.0
146
1.0
147
0.625
 71
     0
 72
     0
 73
     0
 74
     0
 75
     0
 76
     0
 77
     1
 78
     8
170
     0
171
     3
172
     1
173
     0
174
     0
175
     0
176
     0
177
     0
178
     0
270
     2
271
     2
272
     2
273
     2
274
     3
340
11
275
     0
280
     0
281
     0
282
     0
283
     0
284
     8
285
     0
286
     0
287
     3
288
     0
  0
ENDTAB
  0
TABLE
  2
BLOCK_RECORD
  5
1
330
0
100
AcDbSymbolTable
 70
     1
  0
BLOCK_RECORD
  5
1F
330
1
100
AcDbSymbolTableRecord
100
AcDbBlockTableRecord
  2
*MODEL_SPACE
  0
BLOCK_RECORD
  5
1B
330
1
100
AcDbSymbolTableRecord
100
AcDbBlockTableRecord
  2
*PAPER_SPACE
  0
ENDTAB
  0
ENDSEC
  0
SECTION
  2
BLOCKS
  0
BLOCK
  5
20
330
1F
100
AcDbEntity
  8
0
100
AcDbBlockBegin
  2
*MODEL_SPACE
 70
     0
 10
0.0
 20
0.0
 30
0.0
  3
*MODEL_SPACE
  1

  0
ENDBLK
  5
21
330
1F
100
AcDbEntity
  8
0
100
AcDbBlockEnd
  0
BLOCK
  5
1C
330
1B
100
AcDbEntity
 67
     1
  8
0
100
AcDbBlockBegin
  2
*PAPER_SPACE
  1

  0
ENDBLK
  5
1D
330
1B
100
AcDbEntity
 67
     1
  8
0
100
AcDbBlockEnd
  0
ENDSEC
  0
SECTION
  2
ENTITIES
  0
SPLINE
  5
100
100
AcDbEntity
  8
0
 62
7
100
AcDbSpline
 70
8
 71
3
 72
8
 73
4
 74
0
 40
0
 40
0
 40
0
 40
0
 40
1
 40
1
 40
1
 40
1
 10
343.840000
 20
167.280000
 30
0.0
 10
343.360000
 20
167.840000
 30
0.0
 10
340.640000
 20
168.800000
 30
0.0
 10
337.760000
 20
169.520000
 30
0.0
  0
SPLINE
  5
101
100
AcDbEntity
  8
0
 62
7
100
AcDbSpline
 70
8
 71
3
 72
8
 73
4
 74
0
 40
0
 40
0
 40
0
 40
0
 40
1
 40
1
 40
1
 40
1
 10
337.760000
 20
169.520000
 30
0.0
 10
330.080000
 20
171.280000
 30
0.0
 10
328.000000
 20
173.680000
 30
0.0
 10
328.000000
 20
180.800000
 30
0.0
  0
SPLINE
  5
102
100
AcDbEntity
  8
0
 62
7
100
AcDbSpline
 70
8
 71
3
 72
8
 73
4
 74
0
 40
0
 40
0
 40
0
 40
0
 40
1
 40
1
 40
1
 40
1
 10
328.000000
 20
180.800000
 30
0.0
 10
328.000000
 20
184.160000
 30
0.0
 10
327.600000
 20
186.400000
 30
0.0
 10
326.800000
 20
186.880000
 30
0.0
  0
SPLINE
  5
103
100
AcDbEntity
  8
0
 62
7
100
AcDbSpline
 70
8
 71
3
 72
8
 73
4
 74
0
 40
0
 40
0
 40
0
 40
0
 40
1
 40
1
 40
1
 40
1
 10
326.800000
 20
186.880000
 30
0.0
 10
326.160000
 20
187.360000
 30
0.0
 10
323.200000
 20
188.320000
 30
0.0
 10
320.320000
 20
189.200000
 30
0.0
  0
SPLINE
  5
104
100
AcDbEntity
  8
0
 62
7
100
AcDbSpline
 70
8
 71
3
 72
8
 73
4
 74
0
 40
0
 40
0
 40
0
 40
0
 40
1
 40
1
 40
1
 40
1
 10
320.320000
 20
189.200000
 30
0.0
 10
316.000000
 20
190.320000
 30
0.0
 10
314.640000
 20
191.120000
 30
0.0
 10
313.200000
 20
193.200000
 30
0.0
  0
SPLINE
  5
105
100
AcDbEntity
  8
0
 62
7
100
AcDbSpline
 70
8
 71
3
 72
8
 73
4
 74
0
 40
0
 40
0
 40
0
 40
0
 40
1
 40
1
 40
1
 40
1
 10
313.200000
 20
193.200000
 30
0.0
 10
311.520000
 20
195.680000
 30
0.0
 10
311.440000
 20
196.320000
 30
0.0
 10
312.960000
 20
208.480000
 30
0.0
  0
SPLINE
  5
106
100
AcDbEntity
  8
0
 62
7
100
AcDbSpline
 70
8
 71
3
 72
8
 73
4
 74
0
 40
0
 40
0
 40
0
 40
0
 40
1
 40
1
 40
1
 40
1
 10
312.960000
 20
208.480000
 30
0.0
 10
314.480000
 20
220.640000
 30
0.0
 10
314.400000
 20
221.840000
 30
0.0
 10
312.640000
 20
234.400000
 30
0.0
  0
SPLINE
  5
107
100
AcDbEntity
  8
0
 62
7
100
AcDbSpline
 70
8
 71
3
 72
8
 73
4
 74
0
 40
0
 40
0
 40
0
 40
0
 40
1
 40
1
 40
1
 40
1
 10
312.640000
 20
234.400000
 30
0.0
 10
311.600000
 20
241.680000
 30
0.0
 10
310.480000
 20
250.240000
 30
0.0
 10
310.080000
 20
253.440000
 30
0.0
  0
SPLINE
  5
108
100
AcDbEntity
  8
0
 62
7
100
AcDbSpline
 70
8
 71
3
 72
8
 73
4
 74
0
 40
0
 40
0
 40
0
 40
0
 40
1
 40
1
 40
1
 40
1
 10
310.080000
 20
253.440000
 30
0.0
 10
309.360000
 20
260.880000
 30
0.0
 10
306.960000
 20
270.240000
 30
0.0
 10
305.040000
 20
273.360000
 30
0.0
  0
SPLINE
  5
109
100
AcDbEntity
  8
0
 62
7
100
AcDbSpline
 70
8
 71
3
 72
8
 73
4
 74
0
 40
0
 40
0
 40
0
 40
0
 40
1
 40
1
 40
1
 40
1
 10
305.040000
 20
273.360000
 30
0.0
 10
302.720000
 20
277.280000
 30
0.0
 10
298.640000
 20
287.600000
 30
0.0
 10
296.560000
 20
295.200000
 30
0.0
  0
SPLINE
  5
10a
100
AcDbEntity
  8
0
 62
7
100
AcDbSpline
 70
8
 71
3
 72
8
 73
4
 74
0
 40
0
 40
0
 40
0
 40
0
 40
1
 40
1
 40
1
 40
1
 10
296.560000
 20
295.200000
 30
0.0
 10
293.920000
 20
304.560000
 30
0.0
 10
294.480000
 20
303.760000
 30
0.0
 10
290.480000
 20
303.280000
 30
0.0
  0
SPLINE
  5
10b
100
AcDbEntity
  8
0
 62
7
100
AcDbSpline
 70
8
 71
3
 72
8
 73
4
 74
0
 40
0
 40
0
 40
0
 40
0
 40
1
 40
1
 40
1
 40
1
 10
290.480000
 20
303.280000
 30
0.0
 10
288.480000
 20
303.040000
 30
0.0
 10
284.720000
 20
302.560000
 30
0.0
 10
282.000000
 20
302.240000
 30
0.0
  0
SPLINE
  5
10c
100
AcDbEntity
  8
0
 62
7
100
AcDbSpline
 70
8
 71
3
 72
8
 73
4
 74
0
 40
0
 40
0
 40
0
 40
0
 40
1
 40
1
 40
1
 40
1
 10
282.000000
 20
302.240000
 30
0.0
 10
274.560000
 20
301.200000
 30
0.0
 10
259.680000
 20
301.280000
 30
0.0
 10
258.480000
 20
302.320000
 30
0.0
  0
SPLINE
  5
10d
100
AcDbEntity
  8
0
 62
7
100
AcDbSpline
 70
8
 71
3
 72
8
 73
4
 74
0
 40
0
 40
0
 40
0
 40
0
 40
1
 40
1
 40
1
 40
1
 10
258.480000
 20
302.320000
 30
0.0
 10
257.920000
 20
302.880000
 30
0.0
 10
256.960000
 20
306.640000
 30
0.0
 10
256.400000
 20
310.720000
 30
0.0
  0
SPLINE
  5
10e
100
AcDbEntity
  8
0
 62
7
100
AcDbSpline
 70
8
 71
3
 72
8
 73
4
 74
0
 40
0
 40
0
 40
0
 40
0
 40
1
 40
1
 40
1
 40
1
 10
256.400000
 20
310.720000
 30
0.0
 10
253.520000
 20
330.640000
 30
0.0
 10
247.040000
 20
354.080000
 30
0.0
 10
237.520000
 20
379.360000
 30
0.0
  0
SPLINE
  5
10f
100
AcDbEntity
  8
0
 62
7
100
AcDbSpline
 70
8
 71
3
 72
8
 73
4
 74
0
 40
0
 40
0
 40
0
 40
0
 40
1
 40
1
 40
1
 40
1
 10
237.520000
 20
379.360000
 30
0.0
 10
235.760000
 20
384.000000
 30
0.0
 10
226.560000
 20
403.440000
 30
0.0
 10
225.200000
 20
405.280000
 30
0.0
  0
SPLINE
  5
110
100
AcDbEntity
  8
0
 62
7
100
AcDbSpline
 70
8
 71
3
 72
8
 73
4
 74
0
 40
0
 40
0
 40
0
 40
0
 40
1
 40
1
 40
1
 40
1
 10
225.200000
 20
405.280000
 30
0.0
 10
224.720000
 20
405.920000
 30
0.0
 10
223.920000
 20
406.320000
 30
0.0
 10
223.440000
 20
406.160000
 30
0.0
  0
SPLINE
  5
111
100
AcDbEntity
  8
0
 62
7
100
AcDbSpline
 70
8
 71
3
 72
8
 73
4
 74
0
 40
0
 40
0
 40
0
 40
0
 40
1
 40
1
 40
1
 40
1
 10
223.440000
 20
406.160000
 30
0.0
 10
222.960000
 20
405.920000
 30
0.0
 10
220.080000
 20
400.240000
 30
0.0
 10
217.120000
 20
393.600000
 30
0.0
  0
SPLINE
  5
112
100
AcDbEntity
  8
0
 62
7
100
AcDbSpline
 70
8
 71
3
 72
8
 73
4
 74
0
 40
0
 40
0
 40
0
 40
0
 40
1
 40
1
 40
1
 40
1
 10
217.120000
 20
393.600000
 30
0.0
 10
209.680000
 20
377.040000
 30
0.0
 10
209.200000
 20
375.920000
 30
0.0
 10
207.840000
 20
370.800000
 30
0.0
  0
SPLINE
  5
113
100
AcDbEntity
  8
0
 62
7
100
AcDbSpline
 70
8
 71
3
 72
8
 73
4
 74
0
 40
0
 40
0
 40
0
 40
0
 40
1
 40
1
 40
1
 40
1
 10
207.840000
 20
370.800000
 30
0.0
 10
206.000000
 20
363.680000
 30
0.0
 10
201.360000
 20
350.320000
 30
0.0
 10
198.640000
 20
344.400000
 30
0.0
  0
SPLINE
  5
114
100
AcDbEntity
  8
0
 62
7
100
AcDbSpline
 70
8
 71
3
 72
8
 73
4
 74
0
 40
0
 40
0
 40
0
 40
0
 40
1
 40
1
 40
1
 40
1
 10
198.640000
 20
344.400000
 30
0.0
 10
196.320000
 20
339.360000
 30
0.0
 10
196.080000
 20
337.680000
 30
0.0
 10
195.840000
 20
326.080000
 30
0.0
  0
SPLINE
  5
115
100
AcDbEntity
  8
0
 62
7
100
AcDbSpline
 70
8
 71
3
 72
8
 73
4
 74
0
 40
0
 40
0
 40
0
 40
0
 40
1
 40
1
 40
1
 40
1
 10
195.840000
 20
326.080000
 30
0.0
 10
195.440000
 20
308.000000
 30
0.0
 10
193.520000
 20
297.680000
 30
0.0
 10
186.640000
 20
277.760000
 30
0.0
  0
SPLINE
  5
116
100
AcDbEntity
  8
0
 62
7
100
AcDbSpline
 70
8
 71
3
 72
8
 73
4
 74
0
 40
0
 40
0
 40
0
 40
0
 40
1
 40
1
 40
1
 40
1
 10
186.640000
 20
277.760000
 30
0.0
 10
179.760000
 20
257.840000
 30
0.0
 10
177.600000
 20
244.160000
 30
0.0
 10
177.520000
 20
219.840000
 30
0.0
  0
LINE
  5
117
100
AcDbEntity
  8
0
 62
7
100
AcDbLine
 10
177.520000
 20
219.840000
 30
0.0
 11
177.440000
 21
201.600000
 31
0.0
  0
LINE
  5
118
100
AcDbEntity
  8
0
 62
7
100
AcDbLine
 10
177.440000
 20
201.600000
 30
0.0
 11
174.560000
 21
198.720000
 31
0.0
  0
SPLINE
  5
119
100
AcDbEntity
  8
0
 62
7
100
AcDbSpline
 70
8
 71
3
 72
8
 73
4
 74
0
 40
0
 40
0
 40
0
 40
0
 40
1
 40
1
 40
1
 40
1
 10
174.560000
 20
198.720000
 30
0.0
 10
172.560000
 20
196.720000
 30
0.0
 10
170.560000
 20
195.600000
 30
0.0
 10
168.160000
 20
195.120000
 30
0.0
  0
SPLINE
  5
11a
100
AcDbEntity
  8
0
 62
7
100
AcDbSpline
 70
8
 71
3
 72
8
 73
4
 74
0
 40
0
 40
0
 40
0
 40
0
 40
1
 40
1
 40
1
 40
1
 10
168.160000
 20
195.120000
 30
0.0
 10
164.880000
 20
194.480000
 30
0.0
 10
164.480000
 20
194.080000
 30
0.0
 10
163.120000
 20
190.480000
 30
0.0
  0
SPLINE
  5
11b
100
AcDbEntity
  8
0
 62
7
100
AcDbSpline
 70
8
 71
3
 72
8
 73
4
 74
0
 40
0
 40
0
 40
0
 40
0
 40
1
 40
1
 40
1
 40
1
 10
163.120000
 20
190.480000
 30
0.0
 10
162.320000
 20
188.320000
 30
0.0
 10
161.360000
 20
185.200000
 30
0.0
 10
160.960000
 20
183.520000
 30
0.0
  0
SPLINE
  5
11c
100
AcDbEntity
  8
0
 62
7
100
AcDbSpline
 70
8
 71
3
 72
8
 73
4
 74
0
 40
0
 40
0
 40
0
 40
0
 40
1
 40
1
 40
1
 40
1
 10
160.960000
 20
183.520000
 30
0.0
 10
159.280000
 20
176.000000
 30
0.0
 10
143.280000
 20
169.920000
 30
0.0
 10
135.040000
 20
173.760000
 30
0.0
  0
SPLINE
  5
11d
100
AcDbEntity
  8
0
 62
7
100
AcDbSpline
 70
8
 71
3
 72
8
 73
4
 74
0
 40
0
 40
0
 40
0
 40
0
 40
1
 40
1
 40
1
 40
1
 10
135.040000
 20
173.760000
 30
0.0
 10
131.680000
 20
175.360000
 30
0.0
 10
127.920000
 20
178.880000
 30
0.0
 10
126.480000
 20
181.920000
 30
0.0
  0
SPLINE
  5
11e
100
AcDbEntity
  8
0
 62
7
100
AcDbSpline
 70
8
 71
3
 72
8
 73
4
 74
0
 40
0
 40
0
 40
0
 40
0
 40
1
 40
1
 40
1
 40
1
 10
126.480000
 20
181.920000
 30
0.0
 10
124.160000
 20
186.960000
 30
0.0
 10
126.080000
 20
191.040000
 30
0.0
 10
142.320000
 20
215.040000
 30
0.0
  0
SPLINE
  5
11f
100
AcDbEntity
  8
0
 62
7
100
AcDbSpline
 70
8
 71
3
 72
8
 73
4
 74
0
 40
0
 40
0
 40
0
 40
0
 40
1
 40
1
 40
1
 40
1
 10
142.320000
 20
215.040000
 30
0.0
 10
145.520000
 20
219.760000
 30
0.0
 10
148.720000
 20
224.800000
 30
0.0
 10
149.440000
 20
226.240000
 30
0.0
  0
SPLINE
  5
120
100
AcDbEntity
  8
0
 62
7
100
AcDbSpline
 70
8
 71
3
 72
8
 73
4
 74
0
 40
0
 40
0
 40
0
 40
0
 40
1
 40
1
 40
1
 40
1
 10
149.440000
 20
226.240000
 30
0.0
 10
151.920000
 20
231.120000
 30
0.0
 10
154.720000
 20
246.400000
 30
0.0
 10
154.720000
 20
255.440000
 30
0.0
  0
SPLINE
  5
121
100
AcDbEntity
  8
0
 62
7
100
AcDbSpline
 70
8
 71
3
 72
8
 73
4
 74
0
 40
0
 40
0
 40
0
 40
0
 40
1
 40
1
 40
1
 40
1
 10
154.720000
 20
255.440000
 30
0.0
 10
154.720000
 20
260.160000
 30
0.0
 10
155.360000
 20
270.240000
 30
0.0
 10
156.160000
 20
277.760000
 30
0.0
  0
SPLINE
  5
122
100
AcDbEntity
  8
0
 62
7
100
AcDbSpline
 70
8
 71
3
 72
8
 73
4
 74
0
 40
0
 40
0
 40
0
 40
0
 40
1
 40
1
 40
1
 40
1
 10
156.160000
 20
277.760000
 30
0.0
 10
156.960000
 20
285.360000
 30
0.0
 10
157.600000
 20
298.000000
 30
0.0
 10
157.600000
 20
305.920000
 30
0.0
  0
SPLINE
  5
123
100
AcDbEntity
  8
0
 62
7
100
AcDbSpline
 70
8
 71
3
 72
8
 73
4
 74
0
 40
0
 40
0
 40
0
 40
0
 40
1
 40
1
 40
1
 40
1
 10
157.600000
 20
305.920000
 30
0.0
 10
157.680000
 20
323.520000
 30
0.0
 10
158.800000
 20
329.440000
 30
0.0
 10
165.360000
 20
345.440000
 30
0.0
  0
SPLINE
  5
124
100
AcDbEntity
  8
0
 62
7
100
AcDbSpline
 70
8
 71
3
 72
8
 73
4
 74
0
 40
0
 40
0
 40
0
 40
0
 40
1
 40
1
 40
1
 40
1
 10
165.360000
 20
345.440000
 30
0.0
 10
170.400000
 20
357.600000
 30
0.0
 10
172.320000
 20
368.080000
 30
0.0
 10
171.680000
 20
379.600000
 30
0.0
  0
SPLINE
  5
125
100
AcDbEntity
  8
0
 62
7
100
AcDbSpline
 70
8
 71
3
 72
8
 73
4
 74
0
 40
0
 40
0
 40
0
 40
0
 40
1
 40
1
 40
1
 40
1
 10
171.680000
 20
379.600000
 30
0.0
 10
171.440000
 20
385.280000
 30
0.0
 10
170.960000
 20
390.320000
 30
0.0
 10
170.720000
 20
390.800000
 30
0.0
  0
SPLINE
  5
126
100
AcDbEntity
  8
0
 62
7
100
AcDbSpline
 70
8
 71
3
 72
8
 73
4
 74
0
 40
0
 40
0
 40
0
 40
0
 40
1
 40
1
 40
1
 40
1
 10
170.720000
 20
390.800000
 30
0.0
 10
170.480000
 20
391.280000
 30
0.0
 10
169.840000
 20
396.960000
 30
0.0
 10
169.200000
 20
403.360000
 30
0.0
  0
SPLINE
  5
127
100
AcDbEntity
  8
0
 62
7
100
AcDbSpline
 70
8
 71
3
 72
8
 73
4
 74
0
 40
0
 40
0
 40
0
 40
0
 40
1
 40
1
 40
1
 40
1
 10
169.200000
 20
403.360000
 30
0.0
 10
167.760000
 20
420.160000
 30
0.0
 10
170.400000
 20
445.360000
 30
0.0
 10
175.440000
 20
462.720000
 30
0.0
  0
SPLINE
  5
128
100
AcDbEntity
  8
0
 62
7
100
AcDbSpline
 70
8
 71
3
 72
8
 73
4
 74
0
 40
0
 40
0
 40
0
 40
0
 40
1
 40
1
 40
1
 40
1
 10
175.440000
 20
462.720000
 30
0.0
 10
177.200000
 20
468.880000
 30
0.0
 10
182.640000
 20
485.840000
 30
0.0
 10
183.840000
 20
489.040000
 30
0.0
  0
SPLINE
  5
129
100
AcDbEntity
  8
0
 62
7
100
AcDbSpline
 70
8
 71
3
 72
8
 73
4
 74
0
 40
0
 40
0
 40
0
 40
0
 40
1
 40
1
 40
1
 40
1
 10
183.840000
 20
489.040000
 30
0.0
 10
184.400000
 20
490.480000
 30
0.0
 10
185.200000
 20
493.280000
 30
0.0
 10
185.680000
 20
495.200000
 30
0.0
  0
SPLINE
  5
12a
100
AcDbEntity
  8
0
 62
7
100
AcDbSpline
 70
8
 71
3
 72
8
 73
4
 74
0
 40
0
 40
0
 40
0
 40
0
 40
1
 40
1
 40
1
 40
1
 10
185.680000
 20
495.200000
 30
0.0
 10
186.160000
 20
497.200000
 30
0.0
 10
187.440000
 20
501.680000
 30
0.0
 10
188.560000
 20
505.280000
 30
0.0
  0
SPLINE
  5
12b
100
AcDbEntity
  8
0
 62
7
100
AcDbSpline
 70
8
 71
3
 72
8
 73
4
 74
0
 40
0
 40
0
 40
0
 40
0
 40
1
 40
1
 40
1
 40
1
 10
188.560000
 20
505.280000
 30
0.0
 10
190.560000
 20
511.760000
 30
0.0
 10
190.960000
 20
513.440000
 30
0.0
 10
193.920000
 20
525.520000
 30
0.0
  0
SPLINE
  5
12c
100
AcDbEntity
  8
0
 62
7
100
AcDbSpline
 70
8
 71
3
 72
8
 73
4
 74
0
 40
0
 40
0
 40
0
 40
0
 40
1
 40
1
 40
1
 40
1
 10
193.920000
 20
525.520000
 30
0.0
 10
198.800000
 20
546.080000
 30
0.0
 10
201.600000
 20
568.720000
 30
0.0
 10
200.800000
 20
582.480000
 30
0.0
  0
SPLINE
  5
12d
100
AcDbEntity
  8
0
 62
7
100
AcDbSpline
 70
8
 71
3
 72
8
 73
4
 74
0
 40
0
 40
0
 40
0
 40
0
 40
1
 40
1
 40
1
 40
1
 10
200.800000
 20
582.480000
 30
0.0
 10
199.920000
 20
598.880000
 30
0.0
 10
198.720000
 20
604.800000
 30
0.0
 10
196.400000
 20
603.760000
 30
0.0
  0
SPLINE
  5
12e
100
AcDbEntity
  8
0
 62
7
100
AcDbSpline
 70
8
 71
3
 72
8
 73
4
 74
0
 40
0
 40
0
 40
0
 40
0
 40
1
 40
1
 40
1
 40
1
 10
196.400000
 20
603.760000
 30
0.0
 10
192.960000
 20
602.320000
 30
0.0
 10
181.840000
 20
584.480000
 30
0.0
 10
180.240000
 20
578.000000
 30
0.0
  0
SPLINE
  5
12f
100
AcDbEntity
  8
0
 62
7
100
AcDbSpline
 70
8
 71
3
 72
8
 73
4
 74
0
 40
0
 40
0
 40
0
 40
0
 40
1
 40
1
 40
1
 40
1
 10
180.240000
 20
578.000000
 30
0.0
 10
178.080000
 20
569.280000
 30
0.0
 10
176.240000
 20
563.840000
 30
0.0
 10
174.560000
 20
561.600000
 30
0.0
  0
SPLINE
  5
130
100
AcDbEntity
  8
0
 62
7
100
AcDbSpline
 70
8
 71
3
 72
8
 73
4
 74
0
 40
0
 40
0
 40
0
 40
0
 40
1
 40
1
 40
1
 40
1
 10
174.560000
 20
561.600000
 30
0.0
 10
173.680000
 20
560.400000
 30
0.0
 10
171.280000
 20
556.560000
 30
0.0
 10
169.280000
 20
553.120000
 30
0.0
  0
SPLINE
  5
131
100
AcDbEntity
  8
0
 62
7
100
AcDbSpline
 70
8
 71
3
 72
8
 73
4
 74
0
 40
0
 40
0
 40
0
 40
0
 40
1
 40
1
 40
1
 40
1
 10
169.280000
 20
553.120000
 30
0.0
 10
166.080000
 20
547.600000
 30
0.0
 10
159.360000
 20
539.600000
 30
0.0
 10
149.840000
 20
530.160000
 30
0.0
  0
SPLINE
  5
132
100
AcDbEntity
  8
0
 62
7
100
AcDbSpline
 70
8
 71
3
 72
8
 73
4
 74
0
 40
0
 40
0
 40
0
 40
0
 40
1
 40
1
 40
1
 40
1
 10
149.840000
 20
530.160000
 30
0.0
 10
148.240000
 20
528.640000
 30
0.0
 10
146.960000
 20
527.120000
 30
0.0
 10
146.960000
 20
526.880000
 30
0.0
  0
SPLINE
  5
133
100
AcDbEntity
  8
0
 62
7
100
AcDbSpline
 70
8
 71
3
 72
8
 73
4
 74
0
 40
0
 40
0
 40
0
 40
0
 40
1
 40
1
 40
1
 40
1
 10
146.960000
 20
526.880000
 30
0.0
 10
146.960000
 20
526.640000
 30
0.0
 10
145.600000
 20
525.040000
 30
0.0
 10
143.920000
 20
523.360000
 30
0.0
  0
SPLINE
  5
134
100
AcDbEntity
  8
0
 62
7
100
AcDbSpline
 70
8
 71
3
 72
8
 73
4
 74
0
 40
0
 40
0
 40
0
 40
0
 40
1
 40
1
 40
1
 40
1
 10
143.920000
 20
523.360000
 30
0.0
 10
139.600000
 20
518.880000
 30
0.0
 10
131.680000
 20
506.800000
 30
0.0
 10
130.880000
 20
503.440000
 30
0.0
  0
SPLINE
  5
135
100
AcDbEntity
  8
0
 62
7
100
AcDbSpline
 70
8
 71
3
 72
8
 73
4
 74
0
 40
0
 40
0
 40
0
 40
0
 40
1
 40
1
 40
1
 40
1
 10
130.880000
 20
503.440000
 30
0.0
 10
130.480000
 20
501.440000
 30
0.0
 10
130.720000
 20
500.000000
 30
0.0
 10
131.760000
 20
498.640000
 30
0.0
  0
SPLINE
  5
136
100
AcDbEntity
  8
0
 62
7
100
AcDbSpline
 70
8
 71
3
 72
8
 73
4
 74
0
 40
0
 40
0
 40
0
 40
0
 40
1
 40
1
 40
1
 40
1
 10
131.760000
 20
498.640000
 30
0.0
 10
135.040000
 20
494.320000
 30
0.0
 10
136.320000
 20
489.680000
 30
0.0
 10
136.240000
 20
481.520000
 30
0.0
  0
SPLINE
  5
137
100
AcDbEntity
  8
0
 62
7
100
AcDbSpline
 70
8
 71
3
 72
8
 73
4
 74
0
 40
0
 40
0
 40
0
 40
0
 40
1
 40
1
 40
1
 40
1
 10
136.240000
 20
481.520000
 30
0.0
 10
136.240000
 20
472.640000
 30
0.0
 10
135.200000
 20
470.480000
 30
0.0
 10
131.600000
 20
471.280000
 30
0.0
  0
SPLINE
  5
138
100
AcDbEntity
  8
0
 62
7
100
AcDbSpline
 70
8
 71
3
 72
8
 73
4
 74
0
 40
0
 40
0
 40
0
 40
0
 40
1
 40
1
 40
1
 40
1
 10
131.600000
 20
471.280000
 30
0.0
 10
130.160000
 20
471.600000
 30
0.0
 10
128.880000
 20
471.200000
 30
0.0
 10
126.960000
 20
469.600000
 30
0.0
  0
SPLINE
  5
139
100
AcDbEntity
  8
0
 62
7
100
AcDbSpline
 70
8
 71
3
 72
8
 73
4
 74
0
 40
0
 40
0
 40
0
 40
0
 40
1
 40
1
 40
1
 40
1
 10
126.960000
 20
469.600000
 30
0.0
 10
123.840000
 20
467.120000
 30
0.0
 10
123.120000
 20
467.120000
 30
0.0
 10
116.880000
 20
468.960000
 30
0.0
  0
SPLINE
  5
13a
100
AcDbEntity
  8
0
 62
7
100
AcDbSpline
 70
8
 71
3
 72
8
 73
4
 74
0
 40
0
 40
0
 40
0
 40
0
 40
1
 40
1
 40
1
 40
1
 10
116.880000
 20
468.960000
 30
0.0
 10
108.000000
 20
471.680000
 30
0.0
 10
106.720000
 20
475.680000
 30
0.0
 10
110.560000
 20
489.520000
 30
0.0
  0
SPLINE
  5
13b
100
AcDbEntity
  8
0
 62
7
100
AcDbSpline
 70
8
 71
3
 72
8
 73
4
 74
0
 40
0
 40
0
 40
0
 40
0
 40
1
 40
1
 40
1
 40
1
 10
110.560000
 20
489.520000
 30
0.0
 10
111.920000
 20
494.640000
 30
0.0
 10
113.760000
 20
501.360000
 30
0.0
 10
114.560000
 20
504.640000
 30
0.0
  0
SPLINE
  5
13c
100
AcDbEntity
  8
0
 62
7
100
AcDbSpline
 70
8
 71
3
 72
8
 73
4
 74
0
 40
0
 40
0
 40
0
 40
0
 40
1
 40
1
 40
1
 40
1
 10
114.560000
 20
504.640000
 30
0.0
 10
116.480000
 20
511.920000
 30
0.0
 10
117.600000
 20
515.680000
 30
0.0
 10
119.360000
 20
520.080000
 30
0.0
  0
SPLINE
  5
13d
100
AcDbEntity
  8
0
 62
7
100
AcDbSpline
 70
8
 71
3
 72
8
 73
4
 74
0
 40
0
 40
0
 40
0
 40
0
 40
1
 40
1
 40
1
 40
1
 10
119.360000
 20
520.080000
 30
0.0
 10
130.320000
 20
547.680000
 30
0.0
 10
137.280000
 20
564.560000
 30
0.0
 10
140.880000
 20
571.840000
 30
0.0
  0
SPLINE
  5
13e
100
AcDbEntity
  8
0
 62
7
100
AcDbSpline
 70
8
 71
3
 72
8
 73
4
 74
0
 40
0
 40
0
 40
0
 40
0
 40
1
 40
1
 40
1
 40
1
 10
140.880000
 20
571.840000
 30
0.0
 10
141.760000
 20
573.520000
 30
0.0
 10
145.120000
 20
578.960000
 30
0.0
 10
148.480000
 20
583.920000
 30
0.0
  0
SPLINE
  5
13f
100
AcDbEntity
  8
0
 62
7
100
AcDbSpline
 70
8
 71
3
 72
8
 73
4
 74
0
 40
0
 40
0
 40
0
 40
0
 40
1
 40
1
 40
1
 40
1
 10
148.480000
 20
583.920000
 30
0.0
 10
154.800000
 20
593.280000
 30
0.0
 10
155.840000
 20
595.760000
 30
0.0
 10
159.920000
 20
610.640000
 30
0.0
  0
SPLINE
  5
140
100
AcDbEntity
  8
0
 62
7
100
AcDbSpline
 70
8
 71
3
 72
8
 73
4
 74
0
 40
0
 40
0
 40
0
 40
0
 40
1
 40
1
 40
1
 40
1
 10
159.920000
 20
610.640000
 30
0.0
 10
164.240000
 20
626.640000
 30
0.0
 10
165.200000
 20
631.120000
 30
0.0
 10
166.320000
 20
639.760000
 30
0.0
  0
SPLINE
  5
141
100
AcDbEntity
  8
0
 62
7
100
AcDbSpline
 70
8
 71
3
 72
8
 73
4
 74
0
 40
0
 40
0
 40
0
 40
0
 40
1
 40
1
 40
1
 40
1
 10
166.320000
 20
639.760000
 30
0.0
 10
167.840000
 20
652.160000
 30
0.0
 10
170.160000
 20
663.600000
 30
0.0
 10
171.760000
 20
667.600000
 30
0.0
  0
SPLINE
  5
142
100
AcDbEntity
  8
0
 62
7
100
AcDbSpline
 70
8
 71
3
 72
8
 73
4
 74
0
 40
0
 40
0
 40
0
 40
0
 40
1
 40
1
 40
1
 40
1
 10
171.760000
 20
667.600000
 30
0.0
 10
176.160000
 20
678.000000
 30
0.0
 10
182.240000
 20
683.760000
 30
0.0
 10
190.320000
 20
685.200000
 30
0.0
  0
SPLINE
  5
143
100
AcDbEntity
  8
0
 62
7
100
AcDbSpline
 70
8
 71
3
 72
8
 73
4
 74
0
 40
0
 40
0
 40
0
 40
0
 40
1
 40
1
 40
1
 40
1
 10
190.320000
 20
685.200000
 30
0.0
 10
192.320000
 20
685.600000
 30
0.0
 10
195.600000
 20
686.160000
 30
0.0
 10
197.680000
 20
686.560000
 30
0.0
  0
SPLINE
  5
144
100
AcDbEntity
  8
0
 62
7
100
AcDbSpline
 70
8
 71
3
 72
8
 73
4
 74
0
 40
0
 40
0
 40
0
 40
0
 40
1
 40
1
 40
1
 40
1
 10
197.680000
 20
686.560000
 30
0.0
 10
199.760000
 20
686.880000
 30
0.0
 10
204.880000
 20
687.360000
 30
0.0
 10
209.120000
 20
687.520000
 30
0.0
  0
SPLINE
  5
145
100
AcDbEntity
  8
0
 62
7
100
AcDbSpline
 70
8
 71
3
 72
8
 73
4
 74
0
 40
0
 40
0
 40
0
 40
0
 40
1
 40
1
 40
1
 40
1
 10
209.120000
 20
687.520000
 30
0.0
 10
217.280000
 20
687.760000
 30
0.0
 10
220.000000
 20
688.640000
 30
0.0
 10
228.000000
 20
693.200000
 30
0.0
  0
SPLINE
  5
146
100
AcDbEntity
  8
0
 62
7
100
AcDbSpline
 70
8
 71
3
 72
8
 73
4
 74
0
 40
0
 40
0
 40
0
 40
0
 40
1
 40
1
 40
1
 40
1
 10
228.000000
 20
693.200000
 30
0.0
 10
235.200000
 20
697.280000
 30
0.0
 10
236.400000
 20
699.280000
 30
0.0
 10
235.840000
 20
706.560000
 30
0.0
  0
SPLINE
  5
147
100
AcDbEntity
  8
0
 62
7
100
AcDbSpline
 70
8
 71
3
 72
8
 73
4
 74
0
 40
0
 40
0
 40
0
 40
0
 40
1
 40
1
 40
1
 40
1
 10
235.840000
 20
706.560000
 30
0.0
 10
235.360000
 20
712.480000
 30
0.0
 10
233.200000
 20
719.600000
 30
0.0
 10
231.120000
 20
722.320000
 30
0.0
  0
SPLINE
  5
148
100
AcDbEntity
  8
0
 62
7
100
AcDbSpline
 70
8
 71
3
 72
8
 73
4
 74
0
 40
0
 40
0
 40
0
 40
0
 40
1
 40
1
 40
1
 40
1
 10
231.120000
 20
722.320000
 30
0.0
 10
230.640000
 20
722.960000
 30
0.0
 10
230.240000
 20
723.840000
 30
0.0
 10
230.240000
 20
724.320000
 30
0.0
  0
SPLINE
  5
149
100
AcDbEntity
  8
0
 62
7
100
AcDbSpline
 70
8
 71
3
 72
8
 73
4
 74
0
 40
0
 40
0
 40
0
 40
0
 40
1
 40
1
 40
1
 40
1
 10
230.240000
 20
724.320000
 30
0.0
 10
230.240000
 20
724.720000
 30
0.0
 10
228.880000
 20
726.640000
 30
0.0
 10
227.200000
 20
728.480000
 30
0.0
  0
SPLINE
  5
14a
100
AcDbEntity
  8
0
 62
7
100
AcDbSpline
 70
8
 71
3
 72
8
 73
4
 74
0
 40
0
 40
0
 40
0
 40
0
 40
1
 40
1
 40
1
 40
1
 10
227.200000
 20
728.480000
 30
0.0
 10
223.360000
 20
732.640000
 30
0.0
 10
219.600000
 20
741.360000
 30
0.0
 10
219.600000
 20
745.840000
 30
0.0
  0
SPLINE
  5
14b
100
AcDbEntity
  8
0
 62
7
100
AcDbSpline
 70
8
 71
3
 72
8
 73
4
 74
0
 40
0
 40
0
 40
0
 40
0
 40
1
 40
1
 40
1
 40
1
 10
219.600000
 20
745.840000
 30
0.0
 10
219.600000
 20
747.680000
 30
0.0
 10
219.120000
 20
750.320000
 30
0.0
 10
218.560000
 20
751.680000
 30
0.0
  0
SPLINE
  5
14c
100
AcDbEntity
  8
0
 62
7
100
AcDbSpline
 70
8
 71
3
 72
8
 73
4
 74
0
 40
0
 40
0
 40
0
 40
0
 40
1
 40
1
 40
1
 40
1
 10
218.560000
 20
751.680000
 30
0.0
 10
215.280000
 20
759.680000
 30
0.0
 10
215.760000
 20
766.400000
 30
0.0
 10
220.000000
 20
772.560000
 30
0.0
  0
SPLINE
  5
14d
100
AcDbEntity
  8
0
 62
7
100
AcDbSpline
 70
8
 71
3
 72
8
 73
4
 74
0
 40
0
 40
0
 40
0
 40
0
 40
1
 40
1
 40
1
 40
1
 10
220.000000
 20
772.560000
 30
0.0
 10
223.120000
 20
777.040000
 30
0.0
 10
231.920000
 20
784.480000
 30
0.0
 10
236.720000
 20
786.720000
 30
0.0
  0
SPLINE
  5
14e
100
AcDbEntity
  8
0
 62
7
100
AcDbSpline
 70
8
 71
3
 72
8
 73
4
 74
0
 40
0
 40
0
 40
0
 40
0
 40
1
 40
1
 40
1
 40
1
 10
236.720000
 20
786.720000
 30
0.0
 10
251.600000
 20
793.760000
 30
0.0
 10
253.840000
 20
793.920000
 30
0.0
 10
261.840000
 20
788.640000
 30
0.0
  0
SPLINE
  5
14f
100
AcDbEntity
  8
0
 62
7
100
AcDbSpline
 70
8
 71
3
 72
8
 73
4
 74
0
 40
0
 40
0
 40
0
 40
0
 40
1
 40
1
 40
1
 40
1
 10
261.840000
 20
788.640000
 30
0.0
 10
265.200000
 20
786.480000
 30
0.0
 10
266.720000
 20
786.000000
 30
0.0
 10
269.760000
 20
786.000000
 30
0.0
  0
SPLINE
  5
150
100
AcDbEntity
  8
0
 62
7
100
AcDbSpline
 70
8
 71
3
 72
8
 73
4
 74
0
 40
0
 40
0
 40
0
 40
0
 40
1
 40
1
 40
1
 40
1
 10
269.760000
 20
786.000000
 30
0.0
 10
274.480000
 20
786.000000
 30
0.0
 10
275.920000
 20
784.880000
 30
0.0
 10
279.120000
 20
778.880000
 30
0.0
  0
SPLINE
  5
151
100
AcDbEntity
  8
0
 62
7
100
AcDbSpline
 70
8
 71
3
 72
8
 73
4
 74
0
 40
0
 40
0
 40
0
 40
0
 40
1
 40
1
 40
1
 40
1
 10
279.120000
 20
778.880000
 30
0.0
 10
282.560000
 20
772.400000
 30
0.0
 10
283.040000
 20
768.160000
 30
0.0
 10
281.200000
 20
759.840000
 30
0.0
  0
SPLINE
  5
152
100
AcDbEntity
  8
0
 62
7
100
AcDbSpline
 70
8
 71
3
 72
8
 73
4
 74
0
 40
0
 40
0
 40
0
 40
0
 40
1
 40
1
 40
1
 40
1
 10
281.200000
 20
759.840000
 30
0.0
 10
280.400000
 20
755.920000
 30
0.0
 10
279.440000
 20
747.600000
 30
0.0
 10
279.200000
 20
741.360000
 30
0.0
  0
SPLINE
  5
153
100
AcDbEntity
  8
0
 62
7
100
AcDbSpline
 70
8
 71
3
 72
8
 73
4
 74
0
 40
0
 40
0
 40
0
 40
0
 40
1
 40
1
 40
1
 40
1
 10
279.200000
 20
741.360000
 30
0.0
 10
278.480000
 20
726.160000
 30
0.0
 10
277.360000
 20
718.400000
 30
0.0
 10
275.280000
 20
714.240000
 30
0.0
  0
SPLINE
  5
154
100
AcDbEntity
  8
0
 62
7
100
AcDbSpline
 70
8
 71
3
 72
8
 73
4
 74
0
 40
0
 40
0
 40
0
 40
0
 40
1
 40
1
 40
1
 40
1
 10
275.280000
 20
714.240000
 30
0.0
 10
272.720000
 20
709.200000
 30
0.0
 10
273.600000
 20
707.680000
 30
0.0
 10
283.280000
 20
700.960000
 30
0.0
  0
SPLINE
  5
155
100
AcDbEntity
  8
0
 62
7
100
AcDbSpline
 70
8
 71
3
 72
8
 73
4
 74
0
 40
0
 40
0
 40
0
 40
0
 40
1
 40
1
 40
1
 40
1
 10
283.280000
 20
700.960000
 30
0.0
 10
287.920000
 20
697.680000
 30
0.0
 10
295.200000
 20
692.320000
 30
0.0
 10
299.360000
 20
689.040000
 30
0.0
  0
SPLINE
  5
156
100
AcDbEntity
  8
0
 62
7
100
AcDbSpline
 70
8
 71
3
 72
8
 73
4
 74
0
 40
0
 40
0
 40
0
 40
0
 40
1
 40
1
 40
1
 40
1
 10
299.360000
 20
689.040000
 30
0.0
 10
305.440000
 20
684.240000
 30
0.0
 10
307.840000
 20
682.880000
 30
0.0
 10
311.040000
 20
682.240000
 30
0.0
  0
SPLINE
  5
157
100
AcDbEntity
  8
0
 62
7
100
AcDbSpline
 70
8
 71
3
 72
8
 73
4
 74
0
 40
0
 40
0
 40
0
 40
0
 40
1
 40
1
 40
1
 40
1
 10
311.040000
 20
682.240000
 30
0.0
 10
316.720000
 20
681.200000
 30
0.0
 10
321.920000
 20
679.200000
 30
0.0
 10
328.320000
 20
675.680000
 30
0.0
  0
SPLINE
  5
158
100
AcDbEntity
  8
0
 62
7
100
AcDbSpline
 70
8
 71
3
 72
8
 73
4
 74
0
 40
0
 40
0
 40
0
 40
0
 40
1
 40
1
 40
1
 40
1
 10
328.320000
 20
675.680000
 30
0.0
 10
332.320000
 20
673.520000
 30
0.0
 10
335.600000
 20
672.320000
 30
0.0
 10
339.760000
 20
671.680000
 30
0.0
  0
SPLINE
  5
159
100
AcDbEntity
  8
0
 62
7
100
AcDbSpline
 70
8
 71
3
 72
8
 73
4
 74
0
 40
0
 40
0
 40
0
 40
0
 40
1
 40
1
 40
1
 40
1
 10
339.760000
 20
671.680000
 30
0.0
 10
351.600000
 20
669.680000
 30
0.0
 10
360.240000
 20
664.800000
 30
0.0
 10
365.600000
 20
656.960000
 30
0.0
  0
SPLINE
  5
15a
100
AcDbEntity
  8
0
 62
7
100
AcDbSpline
 70
8
 71
3
 72
8
 73
4
 74
0
 40
0
 40
0
 40
0
 40
0
 40
1
 40
1
 40
1
 40
1
 10
365.600000
 20
656.960000
 30
0.0
 10
369.920000
 20
650.640000
 30
0.0
 10
371.360000
 20
644.720000
 30
0.0
 10
372.080000
 20
630.160000
 30
0.0
  0
SPLINE
  5
15b
100
AcDbEntity
  8
0
 62
7
100
AcDbSpline
 70
8
 71
3
 72
8
 73
4
 74
0
 40
0
 40
0
 40
0
 40
0
 40
1
 40
1
 40
1
 40
1
 10
372.080000
 20
630.160000
 30
0.0
 10
372.400000
 20
623.200000
 30
0.0
 10
373.120000
 20
615.360000
 30
0.0
 10
373.680000
 20
612.720000
 30
0.0
  0
SPLINE
  5
15c
100
AcDbEntity
  8
0
 62
7
100
AcDbSpline
 70
8
 71
3
 72
8
 73
4
 74
0
 40
0
 40
0
 40
0
 40
0
 40
1
 40
1
 40
1
 40
1
 10
373.680000
 20
612.720000
 30
0.0
 10
377.600000
 20
593.920000
 30
0.0
 10
381.760000
 20
584.000000
 30
0.0
 10
390.800000
 20
571.520000
 30
0.0
  0
SPLINE
  5
15d
100
AcDbEntity
  8
0
 62
7
100
AcDbSpline
 70
8
 71
3
 72
8
 73
4
 74
0
 40
0
 40
0
 40
0
 40
0
 40
1
 40
1
 40
1
 40
1
 10
390.800000
 20
571.520000
 30
0.0
 10
395.280000
 20
565.440000
 30
0.0
 10
397.760000
 20
562.960000
 30
0.0
 10
403.760000
 20
558.640000
 30
0.0
  0
SPLINE
  5
15e
100
AcDbEntity
  8
0
 62
7
100
AcDbSpline
 70
8
 71
3
 72
8
 73
4
 74
0
 40
0
 40
0
 40
0
 40
0
 40
1
 40
1
 40
1
 40
1
 10
403.760000
 20
558.640000
 30
0.0
 10
407.840000
 20
555.760000
 30
0.0
 10
411.680000
 20
553.360000
 30
0.0
 10
412.320000
 20
553.360000
 30
0.0
  0
SPLINE
  5
15f
100
AcDbEntity
  8
0
 62
7
100
AcDbSpline
 70
8
 71
3
 72
8
 73
4
 74
0
 40
0
 40
0
 40
0
 40
0
 40
1
 40
1
 40
1
 40
1
 10
412.320000
 20
553.360000
 30
0.0
 10
413.840000
 20
553.360000
 30
0.0
 10
424.240000
 20
547.280000
 30
0.0
 10
432.640000
 20
541.520000
 30
0.0
  0
SPLINE
  5
160
100
AcDbEntity
  8
0
 62
7
100
AcDbSpline
 70
8
 71
3
 72
8
 73
4
 74
0
 40
0
 40
0
 40
0
 40
0
 40
1
 40
1
 40
1
 40
1
 10
432.640000
 20
541.520000
 30
0.0
 10
440.800000
 20
536.000000
 30
0.0
 10
450.400000
 20
528.240000
 30
0.0
 10
455.280000
 20
523.280000
 30
0.0
  0
SPLINE
  5
161
100
AcDbEntity
  8
0
 62
7
100
AcDbSpline
 70
8
 71
3
 72
8
 73
4
 74
0
 40
0
 40
0
 40
0
 40
0
 40
1
 40
1
 40
1
 40
1
 10
455.280000
 20
523.280000
 30
0.0
 10
457.360000
 20
521.120000
 30
0.0
 10
460.720000
 20
517.840000
 30
0.0
 10
462.720000
 20
515.920000
 30
0.0
  0
SPLINE
  5
162
100
AcDbEntity
  8
0
 62
7
100
AcDbSpline
 70
8
 71
3
 72
8
 73
4
 74
0
 40
0
 40
0
 40
0
 40
0
 40
1
 40
1
 40
1
 40
1
 10
462.720000
 20
515.920000
 30
0.0
 10
481.760000
 20
498.080000
 30
0.0
 10
486.000000
 20
494.560000
 30
0.0
 10
507.520000
 20
478.560000
 30
0.0
  0
SPLINE
  5
163
100
AcDbEntity
  8
0
 62
7
100
AcDbSpline
 70
8
 71
3
 72
8
 73
4
 74
0
 40
0
 40
0
 40
0
 40
0
 40
1
 40
1
 40
1
 40
1
 10
507.520000
 20
478.560000
 30
0.0
 10
524.800000
 20
465.680000
 30
0.0
 10
531.360000
 20
458.800000
 30
0.0
 10
535.600000
 20
449.360000
 30
0.0
  0
SPLINE
  5
164
100
AcDbEntity
  8
0
 62
7
100
AcDbSpline
 70
8
 71
3
 72
8
 73
4
 74
0
 40
0
 40
0
 40
0
 40
0
 40
1
 40
1
 40
1
 40
1
 10
535.600000
 20
449.360000
 30
0.0
 10
538.480000
 20
442.880000
 30
0.0
 10
540.800000
 20
434.400000
 30
0.0
 10
541.680000
 20
426.560000
 30
0.0
  0
SPLINE
  5
165
100
AcDbEntity
  8
0
 62
7
100
AcDbSpline
 70
8
 71
3
 72
8
 73
4
 74
0
 40
0
 40
0
 40
0
 40
0
 40
1
 40
1
 40
1
 40
1
 10
541.680000
 20
426.560000
 30
0.0
 10
542.000000
 20
423.360000
 30
0.0
 10
542.720000
 20
420.640000
 30
0.0
 10
543.120000
 20
420.480000
 30
0.0
  0
SPLINE
  5
166
100
AcDbEntity
  8
0
 62
7
100
AcDbSpline
 70
8
 71
3
 72
8
 73
4
 74
0
 40
0
 40
0
 40
0
 40
0
 40
1
 40
1
 40
1
 40
1
 10
543.120000
 20
420.480000
 30
0.0
 10
543.600000
 20
420.240000
 30
0.0
 10
543.920000
 20
412.800000
 30
0.0
 10
543.920000
 20
403.840000
 30
0.0
  0
SPLINE
  5
167
100
AcDbEntity
  8
0
 62
7
100
AcDbSpline
 70
8
 71
3
 72
8
 73
4
 74
0
 40
0
 40
0
 40
0
 40
0
 40
1
 40
1
 40
1
 40
1
 10
543.920000
 20
403.840000
 30
0.0
 10
543.760000
 20
382.160000
 30
0.0
 10
544.400000
 20
382.880000
 30
0.0
 10
524.160000
 20
378.400000
 30
0.0
  0
SPLINE
  5
168
100
AcDbEntity
  8
0
 62
7
100
AcDbSpline
 70
8
 71
3
 72
8
 73
4
 74
0
 40
0
 40
0
 40
0
 40
0
 40
1
 40
1
 40
1
 40
1
 10
524.160000
 20
378.400000
 30
0.0
 10
511.200000
 20
375.600000
 30
0.0
 10
503.200000
 20
374.720000
 30
0.0
 10
489.280000
 20
374.640000
 30
0.0
  0
SPLINE
  5
169
100
AcDbEntity
  8
0
 62
7
100
AcDbSpline
 70
8
 71
3
 72
8
 73
4
 74
0
 40
0
 40
0
 40
0
 40
0
 40
1
 40
1
 40
1
 40
1
 10
489.280000
 20
374.640000
 30
0.0
 10
475.920000
 20
374.560000
 30
0.0
 10
469.600000
 20
375.280000
 30
0.0
 10
460.240000
 20
377.840000
 30
0.0
  0
SPLINE
  5
16a
100
AcDbEntity
  8
0
 62
7
100
AcDbSpline
 70
8
 71
3
 72
8
 73
4
 74
0
 40
0
 40
0
 40
0
 40
0
 40
1
 40
1
 40
1
 40
1
 10
460.240000
 20
377.840000
 30
0.0
 10
455.920000
 20
379.040000
 30
0.0
 10
437.120000
 20
378.800000
 30
0.0
 10
429.680000
 20
377.520000
 30
0.0
  0
SPLINE
  5
16b
100
AcDbEntity
  8
0
 62
7
100
AcDbSpline
 70
8
 71
3
 72
8
 73
4
 74
0
 40
0
 40
0
 40
0
 40
0
 40
1
 40
1
 40
1
 40
1
 10
429.680000
 20
377.520000
 30
0.0
 10
414.560000
 20
374.800000
 30
0.0
 10
403.200000
 20
371.040000
 30
0.0
 10
388.080000
 20
363.680000
 30
0.0
  0
SPLINE
  5
16c
100
AcDbEntity
  8
0
 62
7
100
AcDbSpline
 70
8
 71
3
 72
8
 73
4
 74
0
 40
0
 40
0
 40
0
 40
0
 40
1
 40
1
 40
1
 40
1
 10
388.080000
 20
363.680000
 30
0.0
 10
377.840000
 20
358.720000
 30
0.0
 10
369.120000
 20
352.640000
 30
0.0
 10
359.280000
 20
343.760000
 30
0.0
  0
SPLINE
  5
16d
100
AcDbEntity
  8
0
 62
7
100
AcDbSpline
 70
8
 71
3
 72
8
 73
4
 74
0
 40
0
 40
0
 40
0
 40
0
 40
1
 40
1
 40
1
 40
1
 10
359.280000
 20
343.760000
 30
0.0
 10
349.520000
 20
334.960000
 30
0.0
 10
333.840000
 20
322.080000
 30
0.0
 10
332.800000
 20
322.080000
 30
0.0
  0
SPLINE
  5
16e
100
AcDbEntity
  8
0
 62
7
100
AcDbSpline
 70
8
 71
3
 72
8
 73
4
 74
0
 40
0
 40
0
 40
0
 40
0
 40
1
 40
1
 40
1
 40
1
 10
332.800000
 20
322.080000
 30
0.0
 10
331.360000
 20
322.080000
 30
0.0
 10
330.960000
 20
318.400000
 30
0.0
 10
331.920000
 20
314.000000
 30
0.0
  0
SPLINE
  5
16f
100
AcDbEntity
  8
0
 62
7
100
AcDbSpline
 70
8
 71
3
 72
8
 73
4
 74
0
 40
0
 40
0
 40
0
 40
0
 40
1
 40
1
 40
1
 40
1
 10
331.920000
 20
314.000000
 30
0.0
 10
332.560000
 20
311.440000
 30
0.0
 10
332.960000
 20
303.360000
 30
0.0
 10
332.960000
 20
296.000000
 30
0.0
  0
SPLINE
  5
170
100
AcDbEntity
  8
0
 62
7
100
AcDbSpline
 70
8
 71
3
 72
8
 73
4
 74
0
 40
0
 40
0
 40
0
 40
0
 40
1
 40
1
 40
1
 40
1
 10
332.960000
 20
296.000000
 30
0.0
 10
332.960000
 20
288.480000
 30
0.0
 10
333.440000
 20
281.440000
 30
0.0
 10
334.000000
 20
279.840000
 30
0.0
  0
SPLINE
  5
171
100
AcDbEntity
  8
0
 62
7
100
AcDbSpline
 70
8
 71
3
 72
8
 73
4
 74
0
 40
0
 40
0
 40
0
 40
0
 40
1
 40
1
 40
1
 40
1
 10
334.000000
 20
279.840000
 30
0.0
 10
334.560000
 20
278.320000
 30
0.0
 10
335.360000
 20
268.000000
 30
0.0
 10
335.760000
 20
256.880000
 30
0.0
  0
SPLINE
  5
172
100
AcDbEntity
  8
0
 62
7
100
AcDbSpline
 70
8
 71
3
 72
8
 73
4
 74
0
 40
0
 40
0
 40
0
 40
0
 40
1
 40
1
 40
1
 40
1
 10
335.760000
 20
256.880000
 30
0.0
 10
336.480000
 20
237.600000
 30
0.0
 10
337.760000
 20
228.080000
 30
0.0
 10
340.800000
 20
219.120000
 30
0.0
  0
SPLINE
  5
173
100
AcDbEntity
  8
0
 62
7
100
AcDbSpline
 70
8
 71
3
 72
8
 73
4
 74
0
 40
0
 40
0
 40
0
 40
0
 40
1
 40
1
 40
1
 40
1
 10
340.800000
 20
219.120000
 30
0.0
 10
341.440000
 20
217.440000
 30
0.0
 10
345.680000
 20
210.160000
 30
0.0
 10
350.400000
 20
202.960000
 30
0.0
  0
SPLINE
  5
174
100
AcDbEntity
  8
0
 62
7
100
AcDbSpline
 70
8
 71
3
 72
8
 73
4
 74
0
 40
0
 40
0
 40
0
 40
0
 40
1
 40
1
 40
1
 40
1
 10
350.400000
 20
202.960000
 30
0.0
 10
360.400000
 20
187.520000
 30
0.0
 10
362.880000
 20
182.640000
 30
0.0
 10
362.880000
 20
178.000000
 30
0.0
  0
SPLINE
  5
175
100
AcDbEntity
  8
0
 62
7
100
AcDbSpline
 70
8
 71
3
 72
8
 73
4
 74
0
 40
0
 40
0
 40
0
 40
0
 40
1
 40
1
 40
1
 40
1
 10
362.880000
 20
178.000000
 30
0.0
 10
362.880000
 20
175.120000
 30
0.0
 10
362.400000
 20
174.160000
 30
0.0
 10
359.920000
 20
172.160000
 30
0.0
  0
SPLINE
  5
176
100
AcDbEntity
  8
0
 62
7
100
AcDbSpline
 70
8
 71
3
 72
8
 73
4
 74
0
 40
0
 40
0
 40
0
 40
0
 40
1
 40
1
 40
1
 40
1
 10
359.920000
 20
172.160000
 30
0.0
 10
358.320000
 20
170.880000
 30
0.0
 10
355.520000
 20
169.440000
 30
0.0
 10
353.760000
 20
169.040000
 30
0.0
  0
SPLINE
  5
177
100
AcDbEntity
  8
0
 62
7
100
AcDbSpline
 70
8
 71
3
 72
8
 73
4
 74
0
 40
0
 40
0
 40
0
 40
0
 40
1
 40
1
 40
1
 40
1
 10
353.760000
 20
169.040000
 30
0.0
 10
351.920000
 20
168.640000
 30
0.0
 10
350.240000
 20
167.840000
 30
0.0
 10
349.920000
 20
167.280000
 30
0.0
  0
SPLINE
  5
178
100
AcDbEntity
  8
0
 62
7
100
AcDbSpline
 70
8
 71
3
 72
8
 73
4
 74
0
 40
0
 40
0
 40
0
 40
0
 40
1
 40
1
 40
1
 40
1
 10
349.920000
 20
167.280000
 30
0.0
 10
349.280000
 20
166.000000
 30
0.0
 10
344.800000
 20
166.000000
 30
0.0
 10
343.840000
 20
167.280000
 30
0.0
  0
LINE
  5
179
100
AcDbEntity
  8
0
 62
7
100
AcDbLine
 10
343.840000
 20
167.280000
 30
0.0
 11
343.840000
 21
167.280000
 31
0.0
  0
SPLINE
  5
17a
100
AcDbEntity
  8
0
 62
7
100
AcDbSpline
 70
8
 71
3
 72
8
 73
4
 74
0
 40
0
 40
0
 40
0
 40
0
 40
1
 40
1
 40
1
 40
1
 10
69.120000
 20
73.120000
 30
0.0
 10
72.320000
 20
72.160000
 30
0.0
 10
74.800000
 20
70.560000
 30
0.0
 10
76.400000
 20
68.320000
 30
0.0
  0
SPLINE
  5
17b
100
AcDbEntity
  8
0
 62
7
100
AcDbSpline
 70
8
 71
3
 72
8
 73
4
 74
0
 40
0
 40
0
 40
0
 40
0
 40
1
 40
1
 40
1
 40
1
 10
76.400000
 20
68.320000
 30
0.0
 10
78.000000
 20
66.080000
 30
0.0
 10
78.800000
 20
63.600000
 30
0.0
 10
78.800000
 20
60.720000
 30
0.0
  0
SPLINE
  5
17c
100
AcDbEntity
  8
0
 62
7
100
AcDbSpline
 70
8
 71
3
 72
8
 73
4
 74
0
 40
0
 40
0
 40
0
 40
0
 40
1
 40
1
 40
1
 40
1
 10
78.800000
 20
60.720000
 30
0.0
 10
78.800000
 20
57.760000
 30
0.0
 10
78.080000
 20
55.120000
 30
0.0
 10
76.640000
 20
52.720000
 30
0.0
  0
SPLINE
  5
17d
100
AcDbEntity
  8
0
 62
7
100
AcDbSpline
 70
8
 71
3
 72
8
 73
4
 74
0
 40
0
 40
0
 40
0
 40
0
 40
1
 40
1
 40
1
 40
1
 10
76.640000
 20
52.720000
 30
0.0
 10
75.120000
 20
50.320000
 30
0.0
 10
73.120000
 20
48.560000
 30
0.0
 10
70.400000
 20
47.440000
 30
0.0
  0
SPLINE
  5
17e
100
AcDbEntity
  8
0
 62
7
100
AcDbSpline
 70
8
 71
3
 72
8
 73
4
 74
0
 40
0
 40
0
 40
0
 40
0
 40
1
 40
1
 40
1
 40
1
 10
70.400000
 20
47.440000
 30
0.0
 10
67.760000
 20
46.240000
 30
0.0
 10
64.160000
 20
45.680000
 30
0.0
 10
59.520000
 20
45.680000
 30
0.0
  0
LINE
  5
17f
100
AcDbEntity
  8
0
 62
7
100
AcDbLine
 10
59.520000
 20
45.680000
 30
0.0
 11
39.840000
 21
45.680000
 31
0.0
  0
LINE
  5
180
100
AcDbEntity
  8
0
 62
7
100
AcDbLine
 10
39.840000
 20
45.680000
 30
0.0
 11
39.840000
 21
97.280000
 31
0.0
  0
LINE
  5
181
100
AcDbEntity
  8
0
 62
7
100
AcDbLine
 10
39.840000
 20
97.280000
 30
0.0
 11
59.200000
 21
97.280000
 31
0.0
  0
SPLINE
  5
182
100
AcDbEntity
  8
0
 62
7
100
AcDbSpline
 70
8
 71
3
 72
8
 73
4
 74
0
 40
0
 40
0
 40
0
 40
0
 40
1
 40
1
 40
1
 40
1
 10
59.200000
 20
97.280000
 30
0.0
 10
65.440000
 20
97.280000
 30
0.0
 10
69.840000
 20
95.920000
 30
0.0
 10
72.400000
 20
93.200000
 30
0.0
  0
SPLINE
  5
183
100
AcDbEntity
  8
0
 62
7
100
AcDbSpline
 70
8
 71
3
 72
8
 73
4
 74
0
 40
0
 40
0
 40
0
 40
0
 40
1
 40
1
 40
1
 40
1
 10
72.400000
 20
93.200000
 30
0.0
 10
74.960000
 20
90.480000
 30
0.0
 10
76.240000
 20
87.440000
 30
0.0
 10
76.240000
 20
84.080000
 30
0.0
  0
SPLINE
  5
184
100
AcDbEntity
  8
0
 62
7
100
AcDbSpline
 70
8
 71
3
 72
8
 73
4
 74
0
 40
0
 40
0
 40
0
 40
0
 40
1
 40
1
 40
1
 40
1
 10
76.240000
 20
84.080000
 30
0.0
 10
76.240000
 20
81.840000
 30
0.0
 10
75.680000
 20
79.760000
 30
0.0
 10
74.480000
 20
77.840000
 30
0.0
  0
SPLINE
  5
185
100
AcDbEntity
  8
0
 62
7
100
AcDbSpline
 70
8
 71
3
 72
8
 73
4
 74
0
 40
0
 40
0
 40
0
 40
0
 40
1
 40
1
 40
1
 40
1
 10
74.480000
 20
77.840000
 30
0.0
 10
73.280000
 20
75.920000
 30
0.0
 10
71.520000
 20
74.400000
 30
0.0
 10
69.120000
 20
73.120000
 30
0.0
  0
LINE
  5
186
100
AcDbEntity
  8
0
 62
7
100
AcDbLine
 10
69.120000
 20
73.120000
 30
0.0
 11
69.120000
 21
73.120000
 31
0.0
  0
LINE
  5
187
100
AcDbEntity
  8
0
 62
7
100
AcDbLine
 10
46.640000
 20
75.680000
 30
0.0
 11
57.840000
 21
75.680000
 31
0.0
  0
SPLINE
  5
188
100
AcDbEntity
  8
0
 62
7
100
AcDbSpline
 70
8
 71
3
 72
8
 73
4
 74
0
 40
0
 40
0
 40
0
 40
0
 40
1
 40
1
 40
1
 40
1
 10
57.840000
 20
75.680000
 30
0.0
 10
60.160000
 20
75.680000
 30
0.0
 10
62.080000
 20
75.760000
 30
0.0
 10
63.600000
 20
76.080000
 30
0.0
  0
SPLINE
  5
189
100
AcDbEntity
  8
0
 62
7
100
AcDbSpline
 70
8
 71
3
 72
8
 73
4
 74
0
 40
0
 40
0
 40
0
 40
0
 40
1
 40
1
 40
1
 40
1
 10
63.600000
 20
76.080000
 30
0.0
 10
65.200000
 20
76.320000
 30
0.0
 10
66.560000
 20
76.960000
 30
0.0
 10
67.760000
 20
78.080000
 30
0.0
  0
SPLINE
  5
18a
100
AcDbEntity
  8
0
 62
7
100
AcDbSpline
 70
8
 71
3
 72
8
 73
4
 74
0
 40
0
 40
0
 40
0
 40
0
 40
1
 40
1
 40
1
 40
1
 10
67.760000
 20
78.080000
 30
0.0
 10
68.960000
 20
79.200000
 30
0.0
 10
69.520000
 20
80.880000
 30
0.0
 10
69.520000
 20
83.200000
 30
0.0
  0
SPLINE
  5
18b
100
AcDbEntity
  8
0
 62
7
100
AcDbSpline
 70
8
 71
3
 72
8
 73
4
 74
0
 40
0
 40
0
 40
0
 40
0
 40
1
 40
1
 40
1
 40
1
 10
69.520000
 20
83.200000
 30
0.0
 10
69.520000
 20
85.680000
 30
0.0
 10
68.960000
 20
87.440000
 30
0.0
 10
67.760000
 20
88.640000
 30
0.0
  0
SPLINE
  5
18c
100
AcDbEntity
  8
0
 62
7
100
AcDbSpline
 70
8
 71
3
 72
8
 73
4
 74
0
 40
0
 40
0
 40
0
 40
0
 40
1
 40
1
 40
1
 40
1
 10
67.760000
 20
88.640000
 30
0.0
 10
66.560000
 20
89.760000
 30
0.0
 10
65.120000
 20
90.480000
 30
0.0
 10
63.440000
 20
90.720000
 30
0.0
  0
SPLINE
  5
18d
100
AcDbEntity
  8
0
 62
7
100
AcDbSpline
 70
8
 71
3
 72
8
 73
4
 74
0
 40
0
 40
0
 40
0
 40
0
 40
1
 40
1
 40
1
 40
1
 10
63.440000
 20
90.720000
 30
0.0
 10
61.760000
 20
90.960000
 30
0.0
 10
59.600000
 20
91.120000
 30
0.0
 10
56.960000
 20
91.120000
 30
0.0
  0
LINE
  5
18e
100
AcDbEntity
  8
0
 62
7
100
AcDbLine
 10
56.960000
 20
91.120000
 30
0.0
 11
46.640000
 21
91.120000
 31
0.0
  0
LINE
  5
18f
100
AcDbEntity
  8
0
 62
7
100
AcDbLine
 10
46.640000
 20
91.120000
 30
0.0
 11
46.640000
 21
75.680000
 31
0.0
  0
LINE
  5
190
100
AcDbEntity
  8
0
 62
7
100
AcDbLine
 10
46.640000
 20
75.680000
 30
0.0
 11
46.640000
 21
75.680000
 31
0.0
  0
LINE
  5
191
100
AcDbEntity
  8
0
 62
7
100
AcDbLine
 10
46.640000
 20
51.840000
 30
0.0
 11
59.520000
 21
51.840000
 31
0.0
  0
SPLINE
  5
192
100
AcDbEntity
  8
0
 62
7
100
AcDbSpline
 70
8
 71
3
 72
8
 73
4
 74
0
 40
0
 40
0
 40
0
 40
0
 40
1
 40
1
 40
1
 40
1
 10
59.520000
 20
51.840000
 30
0.0
 10
64.080000
 20
51.840000
 30
0.0
 10
67.280000
 20
52.640000
 30
0.0
 10
69.040000
 20
54.160000
 30
0.0
  0
SPLINE
  5
193
100
AcDbEntity
  8
0
 62
7
100
AcDbSpline
 70
8
 71
3
 72
8
 73
4
 74
0
 40
0
 40
0
 40
0
 40
0
 40
1
 40
1
 40
1
 40
1
 10
69.040000
 20
54.160000
 30
0.0
 10
70.800000
 20
55.760000
 30
0.0
 10
71.760000
 20
57.920000
 30
0.0
 10
71.760000
 20
60.720000
 30
0.0
  0
SPLINE
  5
194
100
AcDbEntity
  8
0
 62
7
100
AcDbSpline
 70
8
 71
3
 72
8
 73
4
 74
0
 40
0
 40
0
 40
0
 40
0
 40
1
 40
1
 40
1
 40
1
 10
71.760000
 20
60.720000
 30
0.0
 10
71.760000
 20
63.440000
 30
0.0
 10
70.800000
 20
65.680000
 30
0.0
 10
68.880000
 20
67.200000
 30
0.0
  0
SPLINE
  5
195
100
AcDbEntity
  8
0
 62
7
100
AcDbSpline
 70
8
 71
3
 72
8
 73
4
 74
0
 40
0
 40
0
 40
0
 40
0
 40
1
 40
1
 40
1
 40
1
 10
68.880000
 20
67.200000
 30
0.0
 10
66.960000
 20
68.800000
 30
0.0
 10
63.520000
 20
69.520000
 30
0.0
 10
58.640000
 20
69.520000
 30
0.0
  0
LINE
  5
196
100
AcDbEntity
  8
0
 62
7
100
AcDbLine
 10
58.640000
 20
69.520000
 30
0.0
 11
46.640000
 21
69.520000
 31
0.0
  0
LINE
  5
197
100
AcDbEntity
  8
0
 62
7
100
AcDbLine
 10
46.640000
 20
69.520000
 30
0.0
 11
46.640000
 21
51.840000
 31
0.0
  0
LINE
  5
198
100
AcDbEntity
  8
0
 62
7
100
AcDbLine
 10
46.640000
 20
51.840000
 30
0.0
 11
46.640000
 21
51.840000
 31
0.0
  0
LINE
  5
199
100
AcDbEntity
  8
0
 62
7
100
AcDbLine
 10
93.680000
 20
45.680000
 30
0.0
 11
87.360000
 21
45.680000
 31
0.0
  0
LINE
  5
19a
100
AcDbEntity
  8
0
 62
7
100
AcDbLine
 10
87.360000
 20
45.680000
 30
0.0
 11
87.360000
 21
83.040000
 31
0.0
  0
LINE
  5
19b
100
AcDbEntity
  8
0
 62
7
100
AcDbLine
 10
87.360000
 20
83.040000
 30
0.0
 11
93.680000
 21
83.040000
 31
0.0
  0
LINE
  5
19c
100
AcDbEntity
  8
0
 62
7
100
AcDbLine
 10
93.680000
 20
83.040000
 30
0.0
 11
93.680000
 21
45.680000
 31
0.0
  0
LINE
  5
19d
100
AcDbEntity
  8
0
 62
7
100
AcDbLine
 10
93.680000
 20
45.680000
 30
0.0
 11
93.680000
 21
45.680000
 31
0.0
  0
LINE
  5
19e
100
AcDbEntity
  8
0
 62
7
100
AcDbLine
 10
93.680000
 20
90.080000
 30
0.0
 11
87.360000
 21
90.080000
 31
0.0
  0
LINE
  5
19f
100
AcDbEntity
  8
0
 62
7
100
AcDbLine
 10
87.360000
 20
90.080000
 30
0.0
 11
87.360000
 21
97.280000
 31
0.0
  0
LINE
  5
1a0
100
AcDbEntity
  8
0
 62
7
100
AcDbLine
 10
87.360000
 20
97.280000
 30
0.0
 11
93.680000
 21
97.280000
 31
0.0
  0
LINE
  5
1a1
100
AcDbEntity
  8
0
 62
7
100
AcDbLine
 10
93.680000
 20
97.280000
 30
0.0
 11
93.680000
 21
90.080000
 31
0.0
  0
LINE
  5
1a2
100
AcDbEntity
  8
0
 62
7
100
AcDbLine
 10
93.680000
 20
90.080000
 30
0.0
 11
93.680000
 21
90.080000
 31
0.0
  0
SPLINE
  5
1a3
100
AcDbEntity
  8
0
 62
7
100
AcDbSpline
 70
8
 71
3
 72
8
 73
4
 74
0
 40
0
 40
0
 40
0
 40
0
 40
1
 40
1
 40
1
 40
1
 10
124.160000
 20
72.560000
 30
0.0
 10
123.840000
 20
74.640000
 30
0.0
 10
123.040000
 20
76.160000
 30
0.0
 10
121.680000
 20
77.120000
 30
0.0
  0
SPLINE
  5
1a4
100
AcDbEntity
  8
0
 62
7
100
AcDbSpline
 70
8
 71
3
 72
8
 73
4
 74
0
 40
0
 40
0
 40
0
 40
0
 40
1
 40
1
 40
1
 40
1
 10
121.680000
 20
77.120000
 30
0.0
 10
120.320000
 20
78.160000
 30
0.0
 10
118.400000
 20
78.720000
 30
0.0
 10
115.920000
 20
78.720000
 30
0.0
  0
SPLINE
  5
1a5
100
AcDbEntity
  8
0
 62
7
100
AcDbSpline
 70
8
 71
3
 72
8
 73
4
 74
0
 40
0
 40
0
 40
0
 40
0
 40
1
 40
1
 40
1
 40
1
 10
115.920000
 20
78.720000
 30
0.0
 10
113.520000
 20
78.720000
 30
0.0
 10
111.600000
 20
78.240000
 30
0.0
 10
110.080000
 20
77.440000
 30
0.0
  0
SPLINE
  5
1a6
100
AcDbEntity
  8
0
 62
7
100
AcDbSpline
 70
8
 71
3
 72
8
 73
4
 74
0
 40
0
 40
0
 40
0
 40
0
 40
1
 40
1
 40
1
 40
1
 10
110.080000
 20
77.440000
 30
0.0
 10
108.640000
 20
76.640000
 30
0.0
 10
107.840000
 20
75.440000
 30
0.0
 10
107.840000
 20
73.840000
 30
0.0
  0
SPLINE
  5
1a7
100
AcDbEntity
  8
0
 62
7
100
AcDbSpline
 70
8
 71
3
 72
8
 73
4
 74
0
 40
0
 40
0
 40
0
 40
0
 40
1
 40
1
 40
1
 40
1
 10
107.840000
 20
73.840000
 30
0.0
 10
107.840000
 20
72.400000
 30
0.0
 10
108.480000
 20
71.360000
 30
0.0
 10
109.600000
 20
70.720000
 30
0.0
  0
SPLINE
  5
1a8
100
AcDbEntity
  8
0
 62
7
100
AcDbSpline
 70
8
 71
3
 72
8
 73
4
 74
0
 40
0
 40
0
 40
0
 40
0
 40
1
 40
1
 40
1
 40
1
 10
109.600000
 20
70.720000
 30
0.0
 10
110.800000
 20
70.080000
 30
0.0
 10
113.120000
 20
69.280000
 30
0.0
 10
116.640000
 20
68.400000
 30
0.0
  0
SPLINE
  5
1a9
100
AcDbEntity
  8
0
 62
7
100
AcDbSpline
 70
8
 71
3
 72
8
 73
4
 74
0
 40
0
 40
0
 40
0
 40
0
 40
1
 40
1
 40
1
 40
1
 10
116.640000
 20
68.400000
 30
0.0
 10
120.560000
 20
67.360000
 30
0.0
 10
123.520000
 20
66.480000
 30
0.0
 10
125.520000
 20
65.680000
 30
0.0
  0
SPLINE
  5
1aa
100
AcDbEntity
  8
0
 62
7
100
AcDbSpline
 70
8
 71
3
 72
8
 73
4
 74
0
 40
0
 40
0
 40
0
 40
0
 40
1
 40
1
 40
1
 40
1
 10
125.520000
 20
65.680000
 30
0.0
 10
127.440000
 20
64.960000
 30
0.0
 10
128.960000
 20
63.840000
 30
0.0
 10
130.080000
 20
62.480000
 30
0.0
  0
SPLINE
  5
1ab
100
AcDbEntity
  8
0
 62
7
100
AcDbSpline
 70
8
 71
3
 72
8
 73
4
 74
0
 40
0
 40
0
 40
0
 40
0
 40
1
 40
1
 40
1
 40
1
 10
130.080000
 20
62.480000
 30
0.0
 10
131.120000
 20
61.040000
 30
0.0
 10
131.680000
 20
59.120000
 30
0.0
 10
131.680000
 20
56.640000
 30
0.0
  0
SPLINE
  5
1ac
100
AcDbEntity
  8
0
 62
7
100
AcDbSpline
 70
8
 71
3
 72
8
 73
4
 74
0
 40
0
 40
0
 40
0
 40
0
 40
1
 40
1
 40
1
 40
1
 10
131.680000
 20
56.640000
 30
0.0
 10
131.680000
 20
53.280000
 30
0.0
 10
130.320000
 20
50.480000
 30
0.0
 10
127.600000
 20
48.240000
 30
0.0
  0
SPLINE
  5
1ad
100
AcDbEntity
  8
0
 62
7
100
AcDbSpline
 70
8
 71
3
 72
8
 73
4
 74
0
 40
0
 40
0
 40
0
 40
0
 40
1
 40
1
 40
1
 40
1
 10
127.600000
 20
48.240000
 30
0.0
 10
124.880000
 20
46.000000
 30
0.0
 10
121.280000
 20
44.800000
 30
0.0
 10
116.720000
 20
44.800000
 30
0.0
  0
SPLINE
  5
1ae
100
AcDbEntity
  8
0
 62
7
100
AcDbSpline
 70
8
 71
3
 72
8
 73
4
 74
0
 40
0
 40
0
 40
0
 40
0
 40
1
 40
1
 40
1
 40
1
 10
116.720000
 20
44.800000
 30
0.0
 10
112.000000
 20
44.800000
 30
0.0
 10
108.320000
 20
45.840000
 30
0.0
 10
105.600000
 20
47.840000
 30
0.0
  0
SPLINE
  5
1af
100
AcDbEntity
  8
0
 62
7
100
AcDbSpline
 70
8
 71
3
 72
8
 73
4
 74
0
 40
0
 40
0
 40
0
 40
0
 40
1
 40
1
 40
1
 40
1
 10
105.600000
 20
47.840000
 30
0.0
 10
102.960000
 20
49.840000
 30
0.0
 10
101.360000
 20
52.880000
 30
0.0
 10
100.720000
 20
56.880000
 30
0.0
  0
LINE
  5
1b0
100
AcDbEntity
  8
0
 62
7
100
AcDbLine
 10
100.720000
 20
56.880000
 30
0.0
 11
107.040000
 21
57.760000
 31
0.0
  0
SPLINE
  5
1b1
100
AcDbEntity
  8
0
 62
7
100
AcDbSpline
 70
8
 71
3
 72
8
 73
4
 74
0
 40
0
 40
0
 40
0
 40
0
 40
1
 40
1
 40
1
 40
1
 10
107.040000
 20
57.760000
 30
0.0
 10
107.360000
 20
55.200000
 30
0.0
 10
108.320000
 20
53.280000
 30
0.0
 10
109.920000
 20
52.000000
 30
0.0
  0
SPLINE
  5
1b2
100
AcDbEntity
  8
0
 62
7
100
AcDbSpline
 70
8
 71
3
 72
8
 73
4
 74
0
 40
0
 40
0
 40
0
 40
0
 40
1
 40
1
 40
1
 40
1
 10
109.920000
 20
52.000000
 30
0.0
 10
111.520000
 20
50.640000
 30
0.0
 10
113.760000
 20
50.000000
 30
0.0
 10
116.640000
 20
50.000000
 30
0.0
  0
SPLINE
  5
1b3
100
AcDbEntity
  8
0
 62
7
100
AcDbSpline
 70
8
 71
3
 72
8
 73
4
 74
0
 40
0
 40
0
 40
0
 40
0
 40
1
 40
1
 40
1
 40
1
 10
116.640000
 20
50.000000
 30
0.0
 10
119.440000
 20
50.000000
 30
0.0
 10
121.520000
 20
50.640000
 30
0.0
 10
123.040000
 20
51.760000
 30
0.0
  0
SPLINE
  5
1b4
100
AcDbEntity
  8
0
 62
7
100
AcDbSpline
 70
8
 71
3
 72
8
 73
4
 74
0
 40
0
 40
0
 40
0
 40
0
 40
1
 40
1
 40
1
 40
1
 10
123.040000
 20
51.760000
 30
0.0
 10
124.480000
 20
52.960000
 30
0.0
 10
125.200000
 20
54.320000
 30
0.0
 10
125.200000
 20
56.000000
 30
0.0
  0
SPLINE
  5
1b5
100
AcDbEntity
  8
0
 62
7
100
AcDbSpline
 70
8
 71
3
 72
8
 73
4
 74
0
 40
0
 40
0
 40
0
 40
0
 40
1
 40
1
 40
1
 40
1
 10
125.200000
 20
56.000000
 30
0.0
 10
125.200000
 20
57.120000
 30
0.0
 10
124.880000
 20
58.000000
 30
0.0
 10
124.240000
 20
58.720000
 30
0.0
  0
SPLINE
  5
1b6
100
AcDbEntity
  8
0
 62
7
100
AcDbSpline
 70
8
 71
3
 72
8
 73
4
 74
0
 40
0
 40
0
 40
0
 40
0
 40
1
 40
1
 40
1
 40
1
 10
124.240000
 20
58.720000
 30
0.0
 10
123.520000
 20
59.360000
 30
0.0
 10
122.640000
 20
59.920000
 30
0.0
 10
121.680000
 20
60.240000
 30
0.0
  0
SPLINE
  5
1b7
100
AcDbEntity
  8
0
 62
7
100
AcDbSpline
 70
8
 71
3
 72
8
 73
4
 74
0
 40
0
 40
0
 40
0
 40
0
 40
1
 40
1
 40
1
 40
1
 10
121.680000
 20
60.240000
 30
0.0
 10
120.640000
 20
60.560000
 30
0.0
 10
118.320000
 20
61.200000
 30
0.0
 10
114.800000
 20
62.080000
 30
0.0
  0
SPLINE
  5
1b8
100
AcDbEntity
  8
0
 62
7
100
AcDbSpline
 70
8
 71
3
 72
8
 73
4
 74
0
 40
0
 40
0
 40
0
 40
0
 40
1
 40
1
 40
1
 40
1
 10
114.800000
 20
62.080000
 30
0.0
 10
109.520000
 20
63.280000
 30
0.0
 10
106.000000
 20
64.880000
 30
0.0
 10
104.320000
 20
66.640000
 30
0.0
  0
SPLINE
  5
1b9
100
AcDbEntity
  8
0
 62
7
100
AcDbSpline
 70
8
 71
3
 72
8
 73
4
 74
0
 40
0
 40
0
 40
0
 40
0
 40
1
 40
1
 40
1
 40
1
 10
104.320000
 20
66.640000
 30
0.0
 10
102.560000
 20
68.480000
 30
0.0
 10
101.760000
 20
70.640000
 30
0.0
 10
101.760000
 20
73.120000
 30
0.0
  0
SPLINE
  5
1ba
100
AcDbEntity
  8
0
 62
7
100
AcDbSpline
 70
8
 71
3
 72
8
 73
4
 74
0
 40
0
 40
0
 40
0
 40
0
 40
1
 40
1
 40
1
 40
1
 10
101.760000
 20
73.120000
 30
0.0
 10
101.760000
 20
76.240000
 30
0.0
 10
102.960000
 20
78.800000
 30
0.0
 10
105.440000
 20
80.800000
 30
0.0
  0
SPLINE
  5
1bb
100
AcDbEntity
  8
0
 62
7
100
AcDbSpline
 70
8
 71
3
 72
8
 73
4
 74
0
 40
0
 40
0
 40
0
 40
0
 40
1
 40
1
 40
1
 40
1
 10
105.440000
 20
80.800000
 30
0.0
 10
107.920000
 20
82.880000
 30
0.0
 10
111.280000
 20
83.840000
 30
0.0
 10
115.520000
 20
83.840000
 30
0.0
  0
SPLINE
  5
1bc
100
AcDbEntity
  8
0
 62
7
100
AcDbSpline
 70
8
 71
3
 72
8
 73
4
 74
0
 40
0
 40
0
 40
0
 40
0
 40
1
 40
1
 40
1
 40
1
 10
115.520000
 20
83.840000
 30
0.0
 10
119.920000
 20
83.840000
 30
0.0
 10
123.440000
 20
82.960000
 30
0.0
 10
125.840000
 20
81.200000
 30
0.0
  0
SPLINE
  5
1bd
100
AcDbEntity
  8
0
 62
7
100
AcDbSpline
 70
8
 71
3
 72
8
 73
4
 74
0
 40
0
 40
0
 40
0
 40
0
 40
1
 40
1
 40
1
 40
1
 10
125.840000
 20
81.200000
 30
0.0
 10
128.320000
 20
79.520000
 30
0.0
 10
129.840000
 20
76.880000
 30
0.0
 10
130.320000
 20
73.440000
 30
0.0
  0
LINE
  5
1be
100
AcDbEntity
  8
0
 62
7
100
AcDbLine
 10
130.320000
 20
73.440000
 30
0.0
 11
124.160000
 21
72.560000
 31
0.0
  0
LINE
  5
1bf
100
AcDbEntity
  8
0
 62
7
100
AcDbLine
 10
124.160000
 20
72.560000
 30
0.0
 11
124.160000
 21
72.560000
 31
0.0
  0
SPLINE
  5
1c0
100
AcDbEntity
  8
0
 62
7
100
AcDbSpline
 70
8
 71
3
 72
8
 73
4
 74
0
 40
0
 40
0
 40
0
 40
0
 40
1
 40
1
 40
1
 40
1
 10
153.920000
 20
45.760000
 30
0.0
 10
152.000000
 20
45.360000
 30
0.0
 10
150.400000
 20
45.200000
 30
0.0
 10
149.120000
 20
45.200000
 30
0.0
  0
SPLINE
  5
1c1
100
AcDbEntity
  8
0
 62
7
100
AcDbSpline
 70
8
 71
3
 72
8
 73
4
 74
0
 40
0
 40
0
 40
0
 40
0
 40
1
 40
1
 40
1
 40
1
 10
149.120000
 20
45.200000
 30
0.0
 10
146.400000
 20
45.200000
 30
0.0
 10
144.320000
 20
45.680000
 30
0.0
 10
143.120000
 20
46.640000
 30
0.0
  0
SPLINE
  5
1c2
100
AcDbEntity
  8
0
 62
7
100
AcDbSpline
 70
8
 71
3
 72
8
 73
4
 74
0
 40
0
 40
0
 40
0
 40
0
 40
1
 40
1
 40
1
 40
1
 10
143.120000
 20
46.640000
 30
0.0
 10
141.840000
 20
47.680000
 30
0.0
 10
141.040000
 20
48.880000
 30
0.0
 10
140.800000
 20
50.400000
 30
0.0
  0
SPLINE
  5
1c3
100
AcDbEntity
  8
0
 62
7
100
AcDbSpline
 70
8
 71
3
 72
8
 73
4
 74
0
 40
0
 40
0
 40
0
 40
0
 40
1
 40
1
 40
1
 40
1
 10
140.800000
 20
50.400000
 30
0.0
 10
140.480000
 20
51.840000
 30
0.0
 10
140.320000
 20
54.000000
 30
0.0
 10
140.320000
 20
56.640000
 30
0.0
  0
LINE
  5
1c4
100
AcDbEntity
  8
0
 62
7
100
AcDbLine
 10
140.320000
 20
56.640000
 30
0.0
 11
140.320000
 21
78.080000
 31
0.0
  0
LINE
  5
1c5
100
AcDbEntity
  8
0
 62
7
100
AcDbLine
 10
140.320000
 20
78.080000
 30
0.0
 11
135.760000
 21
78.080000
 31
0.0
  0
LINE
  5
1c6
100
AcDbEntity
  8
0
 62
7
100
AcDbLine
 10
135.760000
 20
78.080000
 30
0.0
 11
135.760000
 21
83.040000
 31
0.0
  0
LINE
  5
1c7
100
AcDbEntity
  8
0
 62
7
100
AcDbLine
 10
135.760000
 20
83.040000
 30
0.0
 11
140.320000
 21
83.040000
 31
0.0
  0
LINE
  5
1c8
100
AcDbEntity
  8
0
 62
7
100
AcDbLine
 10
140.320000
 20
83.040000
 30
0.0
 11
140.320000
 21
92.320000
 31
0.0
  0
LINE
  5
1c9
100
AcDbEntity
  8
0
 62
7
100
AcDbLine
 10
140.320000
 20
92.320000
 30
0.0
 11
146.640000
 21
96.080000
 31
0.0
  0
LINE
  5
1ca
100
AcDbEntity
  8
0
 62
7
100
AcDbLine
 10
146.640000
 20
96.080000
 30
0.0
 11
146.640000
 21
83.040000
 31
0.0
  0
LINE
  5
1cb
100
AcDbEntity
  8
0
 62
7
100
AcDbLine
 10
146.640000
 20
83.040000
 30
0.0
 11
153.040000
 21
83.040000
 31
0.0
  0
LINE
  5
1cc
100
AcDbEntity
  8
0
 62
7
100
AcDbLine
 10
153.040000
 20
83.040000
 30
0.0
 11
153.040000
 21
78.080000
 31
0.0
  0
LINE
  5
1cd
100
AcDbEntity
  8
0
 62
7
100
AcDbLine
 10
153.040000
 20
78.080000
 30
0.0
 11
146.640000
 21
78.080000
 31
0.0
  0
LINE
  5
1ce
100
AcDbEntity
  8
0
 62
7
100
AcDbLine
 10
146.640000
 20
78.080000
 30
0.0
 11
146.640000
 21
56.320000
 31
0.0
  0
SPLINE
  5
1cf
100
AcDbEntity
  8
0
 62
7
100
AcDbSpline
 70
8
 71
3
 72
8
 73
4
 74
0
 40
0
 40
0
 40
0
 40
0
 40
1
 40
1
 40
1
 40
1
 10
146.640000
 20
56.320000
 30
0.0
 10
146.640000
 20
54.400000
 30
0.0
 10
146.880000
 20
53.120000
 30
0.0
 10
147.280000
 20
52.320000
 30
0.0
  0
SPLINE
  5
1d0
100
AcDbEntity
  8
0
 62
7
100
AcDbSpline
 70
8
 71
3
 72
8
 73
4
 74
0
 40
0
 40
0
 40
0
 40
0
 40
1
 40
1
 40
1
 40
1
 10
147.280000
 20
52.320000
 30
0.0
 10
147.680000
 20
51.520000
 30
0.0
 10
148.640000
 20
51.120000
 30
0.0
 10
150.160000
 20
51.120000
 30
0.0
  0
SPLINE
  5
1d1
100
AcDbEntity
  8
0
 62
7
100
AcDbSpline
 70
8
 71
3
 72
8
 73
4
 74
0
 40
0
 40
0
 40
0
 40
0
 40
1
 40
1
 40
1
 40
1
 10
150.160000
 20
51.120000
 30
0.0
 10
151.120000
 20
51.120000
 30
0.0
 10
152.080000
 20
51.200000
 30
0.0
 10
153.040000
 20
51.360000
 30
0.0
  0
LINE
  5
1d2
100
AcDbEntity
  8
0
 62
7
100
AcDbLine
 10
153.040000
 20
51.360000
 30
0.0
 11
153.920000
 21
45.760000
 31
0.0
  0
LINE
  5
1d3
100
AcDbEntity
  8
0
 62
7
100
AcDbLine
 10
153.920000
 20
45.760000
 30
0.0
 11
153.920000
 21
45.760000
 31
0.0
  0
SPLINE
  5
1d4
100
AcDbEntity
  8
0
 62
7
100
AcDbSpline
 70
8
 71
3
 72
8
 73
4
 74
0
 40
0
 40
0
 40
0
 40
0
 40
1
 40
1
 40
1
 40
1
 10
174.480000
 20
83.840000
 30
0.0
 10
179.520000
 20
83.840000
 30
0.0
 10
183.760000
 20
82.240000
 30
0.0
 10
187.040000
 20
78.960000
 30
0.0
  0
SPLINE
  5
1d5
100
AcDbEntity
  8
0
 62
7
100
AcDbSpline
 70
8
 71
3
 72
8
 73
4
 74
0
 40
0
 40
0
 40
0
 40
0
 40
1
 40
1
 40
1
 40
1
 10
187.040000
 20
78.960000
 30
0.0
 10
190.400000
 20
75.680000
 30
0.0
 10
192.000000
 20
70.960000
 30
0.0
 10
192.000000
 20
64.960000
 30
0.0
  0
SPLINE
  5
1d6
100
AcDbEntity
  8
0
 62
7
100
AcDbSpline
 70
8
 71
3
 72
8
 73
4
 74
0
 40
0
 40
0
 40
0
 40
0
 40
1
 40
1
 40
1
 40
1
 10
192.000000
 20
64.960000
 30
0.0
 10
192.000000
 20
57.600000
 30
0.0
 10
190.240000
 20
52.400000
 30
0.0
 10
186.640000
 20
49.360000
 30
0.0
  0
SPLINE
  5
1d7
100
AcDbEntity
  8
0
 62
7
100
AcDbSpline
 70
8
 71
3
 72
8
 73
4
 74
0
 40
0
 40
0
 40
0
 40
0
 40
1
 40
1
 40
1
 40
1
 10
186.640000
 20
49.360000
 30
0.0
 10
183.040000
 20
46.320000
 30
0.0
 10
179.040000
 20
44.800000
 30
0.0
 10
174.480000
 20
44.800000
 30
0.0
  0
SPLINE
  5
1d8
100
AcDbEntity
  8
0
 62
7
100
AcDbSpline
 70
8
 71
3
 72
8
 73
4
 74
0
 40
0
 40
0
 40
0
 40
0
 40
1
 40
1
 40
1
 40
1
 10
174.480000
 20
44.800000
 30
0.0
 10
169.840000
 20
44.800000
 30
0.0
 10
165.680000
 20
46.400000
 30
0.0
 10
162.240000
 20
49.520000
 30
0.0
  0
SPLINE
  5
1d9
100
AcDbEntity
  8
0
 62
7
100
AcDbSpline
 70
8
 71
3
 72
8
 73
4
 74
0
 40
0
 40
0
 40
0
 40
0
 40
1
 40
1
 40
1
 40
1
 10
162.240000
 20
49.520000
 30
0.0
 10
158.800000
 20
52.640000
 30
0.0
 10
157.040000
 20
57.600000
 30
0.0
 10
157.040000
 20
64.320000
 30
0.0
  0
SPLINE
  5
1da
100
AcDbEntity
  8
0
 62
7
100
AcDbSpline
 70
8
 71
3
 72
8
 73
4
 74
0
 40
0
 40
0
 40
0
 40
0
 40
1
 40
1
 40
1
 40
1
 10
157.040000
 20
64.320000
 30
0.0
 10
157.040000
 20
70.880000
 30
0.0
 10
158.720000
 20
75.760000
 30
0.0
 10
162.080000
 20
79.040000
 30
0.0
  0
SPLINE
  5
1db
100
AcDbEntity
  8
0
 62
7
100
AcDbSpline
 70
8
 71
3
 72
8
 73
4
 74
0
 40
0
 40
0
 40
0
 40
0
 40
1
 40
1
 40
1
 40
1
 10
162.080000
 20
79.040000
 30
0.0
 10
165.440000
 20
82.240000
 30
0.0
 10
169.600000
 20
83.840000
 30
0.0
 10
174.480000
 20
83.840000
 30
0.0
  0
LINE
  5
1dc
100
AcDbEntity
  8
0
 62
7
100
AcDbLine
 10
174.480000
 20
83.840000
 30
0.0
 11
174.480000
 21
83.840000
 31
0.0
  0
SPLINE
  5
1dd
100
AcDbEntity
  8
0
 62
7
100
AcDbSpline
 70
8
 71
3
 72
8
 73
4
 74
0
 40
0
 40
0
 40
0
 40
0
 40
1
 40
1
 40
1
 40
1
 10
174.480000
 20
50.000000
 30
0.0
 10
178.160000
 20
50.000000
 30
0.0
 10
180.880000
 20
51.360000
 30
0.0
 10
182.720000
 20
54.000000
 30
0.0
  0
SPLINE
  5
1de
100
AcDbEntity
  8
0
 62
7
100
AcDbSpline
 70
8
 71
3
 72
8
 73
4
 74
0
 40
0
 40
0
 40
0
 40
0
 40
1
 40
1
 40
1
 40
1
 10
182.720000
 20
54.000000
 30
0.0
 10
184.640000
 20
56.720000
 30
0.0
 10
185.520000
 20
60.240000
 30
0.0
 10
185.520000
 20
64.560000
 30
0.0
  0
SPLINE
  5
1df
100
AcDbEntity
  8
0
 62
7
100
AcDbSpline
 70
8
 71
3
 72
8
 73
4
 74
0
 40
0
 40
0
 40
0
 40
0
 40
1
 40
1
 40
1
 40
1
 10
185.520000
 20
64.560000
 30
0.0
 10
185.520000
 20
69.280000
 30
0.0
 10
184.480000
 20
72.800000
 30
0.0
 10
182.400000
 20
75.120000
 30
0.0
  0
SPLINE
  5
1e0
100
AcDbEntity
  8
0
 62
7
100
AcDbSpline
 70
8
 71
3
 72
8
 73
4
 74
0
 40
0
 40
0
 40
0
 40
0
 40
1
 40
1
 40
1
 40
1
 10
182.400000
 20
75.120000
 30
0.0
 10
180.240000
 20
77.520000
 30
0.0
 10
177.600000
 20
78.720000
 30
0.0
 10
174.480000
 20
78.720000
 30
0.0
  0
SPLINE
  5
1e1
100
AcDbEntity
  8
0
 62
7
100
AcDbSpline
 70
8
 71
3
 72
8
 73
4
 74
0
 40
0
 40
0
 40
0
 40
0
 40
1
 40
1
 40
1
 40
1
 10
174.480000
 20
78.720000
 30
0.0
 10
171.280000
 20
78.720000
 30
0.0
 10
168.640000
 20
77.440000
 30
0.0
 10
166.640000
 20
75.040000
 30
0.0
  0
SPLINE
  5
1e2
100
AcDbEntity
  8
0
 62
7
100
AcDbSpline
 70
8
 71
3
 72
8
 73
4
 74
0
 40
0
 40
0
 40
0
 40
0
 40
1
 40
1
 40
1
 40
1
 10
166.640000
 20
75.040000
 30
0.0
 10
164.560000
 20
72.640000
 30
0.0
 10
163.520000
 20
69.120000
 30
0.0
 10
163.520000
 20
64.320000
 30
0.0
  0
SPLINE
  5
1e3
100
AcDbEntity
  8
0
 62
7
100
AcDbSpline
 70
8
 71
3
 72
8
 73
4
 74
0
 40
0
 40
0
 40
0
 40
0
 40
1
 40
1
 40
1
 40
1
 10
163.520000
 20
64.320000
 30
0.0
 10
163.520000
 20
59.600000
 30
0.0
 10
164.560000
 20
56.000000
 30
0.0
 10
166.640000
 20
53.600000
 30
0.0
  0
SPLINE
  5
1e4
100
AcDbEntity
  8
0
 62
7
100
AcDbSpline
 70
8
 71
3
 72
8
 73
4
 74
0
 40
0
 40
0
 40
0
 40
0
 40
1
 40
1
 40
1
 40
1
 10
166.640000
 20
53.600000
 30
0.0
 10
168.720000
 20
51.200000
 30
0.0
 10
171.360000
 20
50.000000
 30
0.0
 10
174.480000
 20
50.000000
 30
0.0
  0
LINE
  5
1e5
100
AcDbEntity
  8
0
 62
7
100
AcDbLine
 10
174.480000
 20
50.000000
 30
0.0
 11
174.480000
 21
50.000000
 31
0.0
  0
LINE
  5
1e6
100
AcDbEntity
  8
0
 62
7
100
AcDbLine
 10
229.600000
 20
45.680000
 30
0.0
 11
223.920000
 21
45.680000
 31
0.0
  0
LINE
  5
1e7
100
AcDbEntity
  8
0
 62
7
100
AcDbLine
 10
223.920000
 20
45.680000
 30
0.0
 11
223.920000
 21
51.200000
 31
0.0
  0
LINE
  5
1e8
100
AcDbEntity
  8
0
 62
7
100
AcDbLine
 10
223.920000
 20
51.200000
 30
0.0
 11
223.760000
 21
51.200000
 31
0.0
  0
SPLINE
  5
1e9
100
AcDbEntity
  8
0
 62
7
100
AcDbSpline
 70
8
 71
3
 72
8
 73
4
 74
0
 40
0
 40
0
 40
0
 40
0
 40
1
 40
1
 40
1
 40
1
 10
223.760000
 20
51.200000
 30
0.0
 10
220.880000
 20
46.960000
 30
0.0
 10
217.040000
 20
44.800000
 30
0.0
 10
212.080000
 20
44.800000
 30
0.0
  0
SPLINE
  5
1ea
100
AcDbEntity
  8
0
 62
7
100
AcDbSpline
 70
8
 71
3
 72
8
 73
4
 74
0
 40
0
 40
0
 40
0
 40
0
 40
1
 40
1
 40
1
 40
1
 10
212.080000
 20
44.800000
 30
0.0
 10
209.440000
 20
44.800000
 30
0.0
 10
207.040000
 20
45.440000
 30
0.0
 10
204.800000
 20
46.640000
 30
0.0
  0
SPLINE
  5
1eb
100
AcDbEntity
  8
0
 62
7
100
AcDbSpline
 70
8
 71
3
 72
8
 73
4
 74
0
 40
0
 40
0
 40
0
 40
0
 40
1
 40
1
 40
1
 40
1
 10
204.800000
 20
46.640000
 30
0.0
 10
202.640000
 20
47.840000
 30
0.0
 10
201.120000
 20
49.520000
 30
0.0
 10
200.400000
 20
51.600000
 30
0.0
  0
SPLINE
  5
1ec
100
AcDbEntity
  8
0
 62
7
100
AcDbSpline
 70
8
 71
3
 72
8
 73
4
 74
0
 40
0
 40
0
 40
0
 40
0
 40
1
 40
1
 40
1
 40
1
 10
200.400000
 20
51.600000
 30
0.0
 10
199.680000
 20
53.760000
 30
0.0
 10
199.280000
 20
56.480000
 30
0.0
 10
199.280000
 20
59.840000
 30
0.0
  0
LINE
  5
1ed
100
AcDbEntity
  8
0
 62
7
100
AcDbLine
 10
199.280000
 20
59.840000
 30
0.0
 11
199.280000
 21
83.040000
 31
0.0
  0
LINE
  5
1ee
100
AcDbEntity
  8
0
 62
7
100
AcDbLine
 10
199.280000
 20
83.040000
 30
0.0
 11
205.600000
 21
83.040000
 31
0.0
  0
LINE
  5
1ef
100
AcDbEntity
  8
0
 62
7
100
AcDbLine
 10
205.600000
 20
83.040000
 30
0.0
 11
205.600000
 21
62.320000
 31
0.0
  0
SPLINE
  5
1f0
100
AcDbEntity
  8
0
 62
7
100
AcDbSpline
 70
8
 71
3
 72
8
 73
4
 74
0
 40
0
 40
0
 40
0
 40
0
 40
1
 40
1
 40
1
 40
1
 10
205.600000
 20
62.320000
 30
0.0
 10
205.600000
 20
59.040000
 30
0.0
 10
205.760000
 20
56.640000
 30
0.0
 10
206.080000
 20
55.200000
 30
0.0
  0
SPLINE
  5
1f1
100
AcDbEntity
  8
0
 62
7
100
AcDbSpline
 70
8
 71
3
 72
8
 73
4
 74
0
 40
0
 40
0
 40
0
 40
0
 40
1
 40
1
 40
1
 40
1
 10
206.080000
 20
55.200000
 30
0.0
 10
206.400000
 20
53.840000
 30
0.0
 10
207.280000
 20
52.640000
 30
0.0
 10
208.560000
 20
51.680000
 30
0.0
  0
SPLINE
  5
1f2
100
AcDbEntity
  8
0
 62
7
100
AcDbSpline
 70
8
 71
3
 72
8
 73
4
 74
0
 40
0
 40
0
 40
0
 40
0
 40
1
 40
1
 40
1
 40
1
 10
208.560000
 20
51.680000
 30
0.0
 10
209.920000
 20
50.800000
 30
0.0
 10
211.520000
 20
50.320000
 30
0.0
 10
213.360000
 20
50.320000
 30
0.0
  0
SPLINE
  5
1f3
100
AcDbEntity
  8
0
 62
7
100
AcDbSpline
 70
8
 71
3
 72
8
 73
4
 74
0
 40
0
 40
0
 40
0
 40
0
 40
1
 40
1
 40
1
 40
1
 10
213.360000
 20
50.320000
 30
0.0
 10
215.760000
 20
50.320000
 30
0.0
 10
218.000000
 20
51.120000
 30
0.0
 10
220.080000
 20
52.800000
 30
0.0
  0
SPLINE
  5
1f4
100
AcDbEntity
  8
0
 62
7
100
AcDbSpline
 70
8
 71
3
 72
8
 73
4
 74
0
 40
0
 40
0
 40
0
 40
0
 40
1
 40
1
 40
1
 40
1
 10
220.080000
 20
52.800000
 30
0.0
 10
222.240000
 20
54.400000
 30
0.0
 10
223.280000
 20
57.840000
 30
0.0
 10
223.280000
 20
63.040000
 30
0.0
  0
LINE
  5
1f5
100
AcDbEntity
  8
0
 62
7
100
AcDbLine
 10
223.280000
 20
63.040000
 30
0.0
 11
223.280000
 21
83.040000
 31
0.0
  0
LINE
  5
1f6
100
AcDbEntity
  8
0
 62
7
100
AcDbLine
 10
223.280000
 20
83.040000
 30
0.0
 11
229.600000
 21
83.040000
 31
0.0
  0
LINE
  5
1f7
100
AcDbEntity
  8
0
 62
7
100
AcDbLine
 10
229.600000
 20
83.040000
 30
0.0
 11
229.600000
 21
45.680000
 31
0.0
  0
LINE
  5
1f8
100
AcDbEntity
  8
0
 62
7
100
AcDbLine
 10
229.600000
 20
45.680000
 30
0.0
 11
229.600000
 21
45.680000
 31
0.0
  0
LINE
  5
1f9
100
AcDbEntity
  8
0
 62
7
100
AcDbLine
 10
245.760000
 20
45.680000
 30
0.0
 11
239.440000
 21
45.680000
 31
0.0
  0
LINE
  5
1fa
100
AcDbEntity
  8
0
 62
7
100
AcDbLine
 10
239.440000
 20
45.680000
 30
0.0
 11
239.440000
 21
83.040000
 31
0.0
  0
LINE
  5
1fb
100
AcDbEntity
  8
0
 62
7
100
AcDbLine
 10
239.440000
 20
83.040000
 30
0.0
 11
245.760000
 21
83.040000
 31
0.0
  0
LINE
  5
1fc
100
AcDbEntity
  8
0
 62
7
100
AcDbLine
 10
245.760000
 20
83.040000
 30
0.0
 11
245.760000
 21
45.680000
 31
0.0
  0
LINE
  5
1fd
100
AcDbEntity
  8
0
 62
7
100
AcDbLine
 10
245.760000
 20
45.680000
 30
0.0
 11
245.760000
 21
45.680000
 31
0.0
  0
LINE
  5
1fe
100
AcDbEntity
  8
0
 62
7
100
AcDbLine
 10
245.760000
 20
90.080000
 30
0.0
 11
239.440000
 21
90.080000
 31
0.0
  0
LINE
  5
1ff
100
AcDbEntity
  8
0
 62
7
100
AcDbLine
 10
239.440000
 20
90.080000
 30
0.0
 11
239.440000
 21
97.280000
 31
0.0
  0
LINE
  5
200
100
AcDbEntity
  8
0
 62
7
100
AcDbLine
 10
239.440000
 20
97.280000
 30
0.0
 11
245.760000
 21
97.280000
 31
0.0
  0
LINE
  5
201
100
AcDbEntity
  8
0
 62
7
100
AcDbLine
 10
245.760000
 20
97.280000
 30
0.0
 11
245.760000
 21
90.080000
 31
0.0
  0
LINE
  5
202
100
AcDbEntity
  8
0
 62
7
100
AcDbLine
 10
245.760000
 20
90.080000
 30
0.0
 11
245.760000
 21
90.080000
 31
0.0
  0
LINE
  5
203
100
AcDbEntity
  8
0
 62
7
100
AcDbLine
 10
261.760000
 20
45.680000
 30
0.0
 11
255.440000
 21
45.680000
 31
0.0
  0
LINE
  5
204
100
AcDbEntity
  8
0
 62
7
100
AcDbLine
 10
255.440000
 20
45.680000
 30
0.0
 11
255.440000
 21
97.280000
 31
0.0
  0
LINE
  5
205
100
AcDbEntity
  8
0
 62
7
100
AcDbLine
 10
255.440000
 20
97.280000
 30
0.0
 11
261.760000
 21
97.280000
 31
0.0
  0
LINE
  5
206
100
AcDbEntity
  8
0
 62
7
100
AcDbLine
 10
261.760000
 20
97.280000
 30
0.0
 11
261.760000
 21
45.680000
 31
0.0
  0
LINE
  5
207
100
AcDbEntity
  8
0
 62
7
100
AcDbLine
 10
261.760000
 20
45.680000
 30
0.0
 11
261.760000
 21
45.680000
 31
0.0
  0
LINE
  5
208
100
AcDbEntity
  8
0
 62
7
100
AcDbLine
 10
277.760000
 20
45.680000
 30
0.0
 11
271.440000
 21
45.680000
 31
0.0
  0
LINE
  5
209
100
AcDbEntity
  8
0
 62
7
100
AcDbLine
 10
271.440000
 20
45.680000
 30
0.0
 11
271.440000
 21
97.280000
 31
0.0
  0
LINE
  5
20a
100
AcDbEntity
  8
0
 62
7
100
AcDbLine
 10
271.440000
 20
97.280000
 30
0.0
 11
277.760000
 21
97.280000
 31
0.0
  0
LINE
  5
20b
100
AcDbEntity
  8
0
 62
7
100
AcDbLine
 10
277.760000
 20
97.280000
 30
0.0
 11
277.760000
 21
45.680000
 31
0.0
  0
LINE
  5
20c
100
AcDbEntity
  8
0
 62
7
100
AcDbLine
 10
277.760000
 20
45.680000
 30
0.0
 11
277.760000
 21
45.680000
 31
0.0
  0
LINE
  5
20d
100
AcDbEntity
  8
0
 62
7
100
AcDbLine
 10
319.840000
 20
62.720000
 30
0.0
 11
291.840000
 21
62.720000
 31
0.0
  0
SPLINE
  5
20e
100
AcDbEntity
  8
0
 62
7
100
AcDbSpline
 70
8
 71
3
 72
8
 73
4
 74
0
 40
0
 40
0
 40
0
 40
0
 40
1
 40
1
 40
1
 40
1
 10
291.840000
 20
62.720000
 30
0.0
 10
292.160000
 20
58.640000
 30
0.0
 10
293.280000
 20
55.440000
 30
0.0
 10
295.440000
 20
53.280000
 30
0.0
  0
SPLINE
  5
20f
100
AcDbEntity
  8
0
 62
7
100
AcDbSpline
 70
8
 71
3
 72
8
 73
4
 74
0
 40
0
 40
0
 40
0
 40
0
 40
1
 40
1
 40
1
 40
1
 10
295.440000
 20
53.280000
 30
0.0
 10
297.520000
 20
51.120000
 30
0.0
 10
300.080000
 20
50.000000
 30
0.0
 10
303.280000
 20
50.000000
 30
0.0
  0
SPLINE
  5
210
100
AcDbEntity
  8
0
 62
7
100
AcDbSpline
 70
8
 71
3
 72
8
 73
4
 74
0
 40
0
 40
0
 40
0
 40
0
 40
1
 40
1
 40
1
 40
1
 10
303.280000
 20
50.000000
 30
0.0
 10
305.680000
 20
50.000000
 30
0.0
 10
307.680000
 20
50.640000
 30
0.0
 10
309.360000
 20
51.920000
 30
0.0
  0
SPLINE
  5
211
100
AcDbEntity
  8
0
 62
7
100
AcDbSpline
 70
8
 71
3
 72
8
 73
4
 74
0
 40
0
 40
0
 40
0
 40
0
 40
1
 40
1
 40
1
 40
1
 10
309.360000
 20
51.920000
 30
0.0
 10
310.960000
 20
53.200000
 30
0.0
 10
312.240000
 20
55.120000
 30
0.0
 10
313.120000
 20
57.760000
 30
0.0
  0
LINE
  5
212
100
AcDbEntity
  8
0
 62
7
100
AcDbLine
 10
313.120000
 20
57.760000
 30
0.0
 11
319.600000
 21
56.880000
 31
0.0
  0
SPLINE
  5
213
100
AcDbEntity
  8
0
 62
7
100
AcDbSpline
 70
8
 71
3
 72
8
 73
4
 74
0
 40
0
 40
0
 40
0
 40
0
 40
1
 40
1
 40
1
 40
1
 10
319.600000
 20
56.880000
 30
0.0
 10
318.560000
 20
53.040000
 30
0.0
 10
316.640000
 20
50.000000
 30
0.0
 10
313.840000
 20
47.920000
 30
0.0
  0
SPLINE
  5
214
100
AcDbEntity
  8
0
 62
7
100
AcDbSpline
 70
8
 71
3
 72
8
 73
4
 74
0
 40
0
 40
0
 40
0
 40
0
 40
1
 40
1
 40
1
 40
1
 10
313.840000
 20
47.920000
 30
0.0
 10
310.960000
 20
45.840000
 30
0.0
 10
307.440000
 20
44.800000
 30
0.0
 10
303.280000
 20
44.800000
 30
0.0
  0
SPLINE
  5
215
100
AcDbEntity
  8
0
 62
7
100
AcDbSpline
 70
8
 71
3
 72
8
 73
4
 74
0
 40
0
 40
0
 40
0
 40
0
 40
1
 40
1
 40
1
 40
1
 10
303.280000
 20
44.800000
 30
0.0
 10
297.680000
 20
44.800000
 30
0.0
 10
293.280000
 20
46.560000
 30
0.0
 10
290.160000
 20
50.000000
 30
0.0
  0
SPLINE
  5
216
100
AcDbEntity
  8
0
 62
7
100
AcDbSpline
 70
8
 71
3
 72
8
 73
4
 74
0
 40
0
 40
0
 40
0
 40
0
 40
1
 40
1
 40
1
 40
1
 10
290.160000
 20
50.000000
 30
0.0
 10
286.960000
 20
53.440000
 30
0.0
 10
285.440000
 20
58.080000
 30
0.0
 10
285.440000
 20
64.080000
 30
0.0
  0
SPLINE
  5
217
100
AcDbEntity
  8
0
 62
7
100
AcDbSpline
 70
8
 71
3
 72
8
 73
4
 74
0
 40
0
 40
0
 40
0
 40
0
 40
1
 40
1
 40
1
 40
1
 10
285.440000
 20
64.080000
 30
0.0
 10
285.440000
 20
69.920000
 30
0.0
 10
286.960000
 20
74.720000
 30
0.0
 10
290.000000
 20
78.400000
 30
0.0
  0
SPLINE
  5
218
100
AcDbEntity
  8
0
 62
7
100
AcDbSpline
 70
8
 71
3
 72
8
 73
4
 74
0
 40
0
 40
0
 40
0
 40
0
 40
1
 40
1
 40
1
 40
1
 10
290.000000
 20
78.400000
 30
0.0
 10
293.040000
 20
82.000000
 30
0.0
 10
297.360000
 20
83.840000
 30
0.0
 10
302.880000
 20
83.840000
 30
0.0
  0
SPLINE
  5
219
100
AcDbEntity
  8
0
 62
7
100
AcDbSpline
 70
8
 71
3
 72
8
 73
4
 74
0
 40
0
 40
0
 40
0
 40
0
 40
1
 40
1
 40
1
 40
1
 10
302.880000
 20
83.840000
 30
0.0
 10
305.600000
 20
83.840000
 30
0.0
 10
308.240000
 20
83.280000
 30
0.0
 10
310.800000
 20
82.080000
 30
0.0
  0
SPLINE
  5
21a
100
AcDbEntity
  8
0
 62
7
100
AcDbSpline
 70
8
 71
3
 72
8
 73
4
 74
0
 40
0
 40
0
 40
0
 40
0
 40
1
 40
1
 40
1
 40
1
 10
310.800000
 20
82.080000
 30
0.0
 10
313.280000
 20
80.880000
 30
0.0
 10
315.440000
 20
78.800000
 30
0.0
 10
317.200000
 20
75.920000
 30
0.0
  0
SPLINE
  5
21b
100
AcDbEntity
  8
0
 62
7
100
AcDbSpline
 70
8
 71
3
 72
8
 73
4
 74
0
 40
0
 40
0
 40
0
 40
0
 40
1
 40
1
 40
1
 40
1
 10
317.200000
 20
75.920000
 30
0.0
 10
318.960000
 20
73.120000
 30
0.0
 10
319.840000
 20
68.720000
 30
0.0
 10
319.840000
 20
62.720000
 30
0.0
  0
LINE
  5
21c
100
AcDbEntity
  8
0
 62
7
100
AcDbLine
 10
319.840000
 20
62.720000
 30
0.0
 11
319.840000
 21
62.720000
 31
0.0
  0
SPLINE
  5
21d
100
AcDbEntity
  8
0
 62
7
100
AcDbSpline
 70
8
 71
3
 72
8
 73
4
 74
0
 40
0
 40
0
 40
0
 40
0
 40
1
 40
1
 40
1
 40
1
 10
313.280000
 20
67.920000
 30
0.0
 10
313.040000
 20
71.760000
 30
0.0
 10
311.840000
 20
74.480000
 30
0.0
 10
309.760000
 20
76.160000
 30
0.0
  0
SPLINE
  5
21e
100
AcDbEntity
  8
0
 62
7
100
AcDbSpline
 70
8
 71
3
 72
8
 73
4
 74
0
 40
0
 40
0
 40
0
 40
0
 40
1
 40
1
 40
1
 40
1
 10
309.760000
 20
76.160000
 30
0.0
 10
307.680000
 20
77.840000
 30
0.0
 10
305.360000
 20
78.720000
 30
0.0
 10
302.880000
 20
78.720000
 30
0.0
  0
SPLINE
  5
21f
100
AcDbEntity
  8
0
 62
7
100
AcDbSpline
 70
8
 71
3
 72
8
 73
4
 74
0
 40
0
 40
0
 40
0
 40
0
 40
1
 40
1
 40
1
 40
1
 10
302.880000
 20
78.720000
 30
0.0
 10
299.920000
 20
78.720000
 30
0.0
 10
297.520000
 20
77.680000
 30
0.0
 10
295.600000
 20
75.680000
 30
0.0
  0
SPLINE
  5
220
100
AcDbEntity
  8
0
 62
7
100
AcDbSpline
 70
8
 71
3
 72
8
 73
4
 74
0
 40
0
 40
0
 40
0
 40
0
 40
1
 40
1
 40
1
 40
1
 10
295.600000
 20
75.680000
 30
0.0
 10
293.600000
 20
73.680000
 30
0.0
 10
292.560000
 20
71.120000
 30
0.0
 10
292.240000
 20
67.920000
 30
0.0
  0
LINE
  5
221
100
AcDbEntity
  8
0
 62
7
100
AcDbLine
 10
292.240000
 20
67.920000
 30
0.0
 11
313.280000
 21
67.920000
 31
0.0
  0
LINE
  5
222
100
AcDbEntity
  8
0
 62
7
100
AcDbLine
 10
313.280000
 20
67.920000
 30
0.0
 11
313.280000
 21
67.920000
 31
0.0
  0
LINE
  5
223
100
AcDbEntity
  8
0
 62
7
100
AcDbLine
 10
336.240000
 20
45.680000
 30
0.0
 11
329.040000
 21
45.680000
 31
0.0
  0
LINE
  5
224
100
AcDbEntity
  8
0
 62
7
100
AcDbLine
 10
329.040000
 20
45.680000
 30
0.0
 11
329.040000
 21
52.880000
 31
0.0
  0
LINE
  5
225
100
AcDbEntity
  8
0
 62
7
100
AcDbLine
 10
329.040000
 20
52.880000
 30
0.0
 11
336.240000
 21
52.880000
 31
0.0
  0
LINE
  5
226
100
AcDbEntity
  8
0
 62
7
100
AcDbLine
 10
336.240000
 20
52.880000
 30
0.0
 11
336.240000
 21
45.680000
 31
0.0
  0
LINE
  5
227
100
AcDbEntity
  8
0
 62
7
100
AcDbLine
 10
336.240000
 20
45.680000
 30
0.0
 11
336.240000
 21
45.680000
 31
0.0
  0
LINE
  5
228
100
AcDbEntity
  8
0
 62
7
100
AcDbLine
 10
365.040000
 20
97.520000
 30
0.0
 11
364.080000
 21
91.920000
 31
0.0
  0
SPLINE
  5
229
100
AcDbEntity
  8
0
 62
7
100
AcDbSpline
 70
8
 71
3
 72
8
 73
4
 74
0
 40
0
 40
0
 40
0
 40
0
 40
1
 40
1
 40
1
 40
1
 10
364.080000
 20
91.920000
 30
0.0
 10
362.800000
 20
92.160000
 30
0.0
 10
361.600000
 20
92.320000
 30
0.0
 10
360.320000
 20
92.320000
 30
0.0
  0
SPLINE
  5
22a
100
AcDbEntity
  8
0
 62
7
100
AcDbSpline
 70
8
 71
3
 72
8
 73
4
 74
0
 40
0
 40
0
 40
0
 40
0
 40
1
 40
1
 40
1
 40
1
 10
360.320000
 20
92.320000
 30
0.0
 10
358.800000
 20
92.320000
 30
0.0
 10
357.600000
 20
92.000000
 30
0.0
 10
356.640000
 20
91.280000
 30
0.0
  0
SPLINE
  5
22b
100
AcDbEntity
  8
0
 62
7
100
AcDbSpline
 70
8
 71
3
 72
8
 73
4
 74
0
 40
0
 40
0
 40
0
 40
0
 40
1
 40
1
 40
1
 40
1
 10
356.640000
 20
91.280000
 30
0.0
 10
355.600000
 20
90.640000
 30
0.0
 10
355.120000
 20
89.040000
 30
0.0
 10
355.120000
 20
86.480000
 30
0.0
  0
LINE
  5
22c
100
AcDbEntity
  8
0
 62
7
100
AcDbLine
 10
355.120000
 20
86.480000
 30
0.0
 11
355.120000
 21
83.040000
 31
0.0
  0
LINE
  5
22d
100
AcDbEntity
  8
0
 62
7
100
AcDbLine
 10
355.120000
 20
83.040000
 30
0.0
 11
362.320000
 21
83.040000
 31
0.0
  0
LINE
  5
22e
100
AcDbEntity
  8
0
 62
7
100
AcDbLine
 10
362.320000
 20
83.040000
 30
0.0
 11
362.320000
 21
78.080000
 31
0.0
  0
LINE
  5
22f
100
AcDbEntity
  8
0
 62
7
100
AcDbLine
 10
362.320000
 20
78.080000
 30
0.0
 11
355.120000
 21
78.080000
 31
0.0
  0
LINE
  5
230
100
AcDbEntity
  8
0
 62
7
100
AcDbLine
 10
355.120000
 20
78.080000
 30
0.0
 11
355.120000
 21
45.680000
 31
0.0
  0
LINE
  5
231
100
AcDbEntity
  8
0
 62
7
100
AcDbLine
 10
355.120000
 20
45.680000
 30
0.0
 11
348.800000
 21
45.680000
 31
0.0
  0
LINE
  5
232
100
AcDbEntity
  8
0
 62
7
100
AcDbLine
 10
348.800000
 20
45.680000
 30
0.0
 11
348.800000
 21
78.080000
 31
0.0
  0
LINE
  5
233
100
AcDbEntity
  8
0
 62
7
100
AcDbLine
 10
348.800000
 20
78.080000
 30
0.0
 11
343.200000
 21
78.080000
 31
0.0
  0
LINE
  5
234
100
AcDbEntity
  8
0
 62
7
100
AcDbLine
 10
343.200000
 20
78.080000
 30
0.0
 11
343.200000
 21
83.040000
 31
0.0
  0
LINE
  5
235
100
AcDbEntity
  8
0
 62
7
100
AcDbLine
 10
343.200000
 20
83.040000
 30
0.0
 11
348.800000
 21
83.040000
 31
0.0
  0
LINE
  5
236
100
AcDbEntity
  8
0
 62
7
100
AcDbLine
 10
348.800000
 20
83.040000
 30
0.0
 11
348.800000
 21
87.040000
 31
0.0
  0
SPLINE
  5
237
100
AcDbEntity
  8
0
 62
7
100
AcDbSpline
 70
8
 71
3
 72
8
 73
4
 74
0
 40
0
 40
0
 40
0
 40
0
 40
1
 40
1
 40
1
 40
1
 10
348.800000
 20
87.040000
 30
0.0
 10
348.800000
 20
88.960000
 30
0.0
 10
348.960000
 20
90.640000
 30
0.0
 10
349.360000
 20
92.160000
 30
0.0
  0
SPLINE
  5
238
100
AcDbEntity
  8
0
 62
7
100
AcDbSpline
 70
8
 71
3
 72
8
 73
4
 74
0
 40
0
 40
0
 40
0
 40
0
 40
1
 40
1
 40
1
 40
1
 10
349.360000
 20
92.160000
 30
0.0
 10
349.680000
 20
93.680000
 30
0.0
 10
350.640000
 20
95.040000
 30
0.0
 10
352.160000
 20
96.240000
 30
0.0
  0
SPLINE
  5
239
100
AcDbEntity
  8
0
 62
7
100
AcDbSpline
 70
8
 71
3
 72
8
 73
4
 74
0
 40
0
 40
0
 40
0
 40
0
 40
1
 40
1
 40
1
 40
1
 10
352.160000
 20
96.240000
 30
0.0
 10
353.680000
 20
97.520000
 30
0.0
 10
356.000000
 20
98.160000
 30
0.0
 10
359.120000
 20
98.160000
 30
0.0
  0
SPLINE
  5
23a
100
AcDbEntity
  8
0
 62
7
100
AcDbSpline
 70
8
 71
3
 72
8
 73
4
 74
0
 40
0
 40
0
 40
0
 40
0
 40
1
 40
1
 40
1
 40
1
 10
359.120000
 20
98.160000
 30
0.0
 10
360.960000
 20
98.160000
 30
0.0
 10
362.960000
 20
97.920000
 30
0.0
 10
365.040000
 20
97.520000
 30
0.0
  0
LINE
  5
23b
100
AcDbEntity
  8
0
 62
7
100
AcDbLine
 10
365.040000
 20
97.520000
 30
0.0
 11
365.040000
 21
97.520000
 31
0.0
  0
LINE
  5
23c
100
AcDbEntity
  8
0
 62
7
100
AcDbLine
 10
387.600000
 20
81.840000
 30
0.0
 11
385.360000
 21
76.000000
 31
0.0
  0
SPLINE
  5
23d
100
AcDbEntity
  8
0
 62
7
100
AcDbSpline
 70
8
 71
3
 72
8
 73
4
 74
0
 40
0
 40
0
 40
0
 40
0
 40
1
 40
1
 40
1
 40
1
 10
385.360000
 20
76.000000
 30
0.0
 10
383.840000
 20
76.960000
 30
0.0
 10
382.240000
 20
77.360000
 30
0.0
 10
380.800000
 20
77.360000
 30
0.0
  0
SPLINE
  5
23e
100
AcDbEntity
  8
0
 62
7
100
AcDbSpline
 70
8
 71
3
 72
8
 73
4
 74
0
 40
0
 40
0
 40
0
 40
0
 40
1
 40
1
 40
1
 40
1
 10
380.800000
 20
77.360000
 30
0.0
 10
378.400000
 20
77.360000
 30
0.0
 10
376.640000
 20
76.320000
 30
0.0
 10
375.440000
 20
74.160000
 30
0.0
  0
SPLINE
  5
23f
100
AcDbEntity
  8
0
 62
7
100
AcDbSpline
 70
8
 71
3
 72
8
 73
4
 74
0
 40
0
 40
0
 40
0
 40
0
 40
1
 40
1
 40
1
 40
1
 10
375.440000
 20
74.160000
 30
0.0
 10
374.160000
 20
72.080000
 30
0.0
 10
373.600000
 20
69.120000
 30
0.0
 10
373.600000
 20
65.280000
 30
0.0
  0
LINE
  5
240
100
AcDbEntity
  8
0
 62
7
100
AcDbLine
 10
373.600000
 20
65.280000
 30
0.0
 11
373.600000
 21
45.680000
 31
0.0
  0
LINE
  5
241
100
AcDbEntity
  8
0
 62
7
100
AcDbLine
 10
373.600000
 20
45.680000
 30
0.0
 11
367.280000
 21
45.680000
 31
0.0
  0
LINE
  5
242
100
AcDbEntity
  8
0
 62
7
100
AcDbLine
 10
367.280000
 20
45.680000
 30
0.0
 11
367.280000
 21
83.040000
 31
0.0
  0
LINE
  5
243
100
AcDbEntity
  8
0
 62
7
100
AcDbLine
 10
367.280000
 20
83.040000
 30
0.0
 11
373.040000
 21
83.040000
 31
0.0
  0
LINE
  5
244
100
AcDbEntity
  8
0
 62
7
100
AcDbLine
 10
373.040000
 20
83.040000
 30
0.0
 11
373.040000
 21
77.360000
 31
0.0
  0
LINE
  5
245
100
AcDbEntity
  8
0
 62
7
100
AcDbLine
 10
373.040000
 20
77.360000
 30
0.0
 11
373.120000
 21
77.360000
 31
0.0
  0
SPLINE
  5
246
100
AcDbEntity
  8
0
 62
7
100
AcDbSpline
 70
8
 71
3
 72
8
 73
4
 74
0
 40
0
 40
0
 40
0
 40
0
 40
1
 40
1
 40
1
 40
1
 10
373.120000
 20
77.360000
 30
0.0
 10
375.200000
 20
81.680000
 30
0.0
 10
377.840000
 20
83.840000
 30
0.0
 10
381.040000
 20
83.840000
 30
0.0
  0
SPLINE
  5
247
100
AcDbEntity
  8
0
 62
7
100
AcDbSpline
 70
8
 71
3
 72
8
 73
4
 74
0
 40
0
 40
0
 40
0
 40
0
 40
1
 40
1
 40
1
 40
1
 10
381.040000
 20
83.840000
 30
0.0
 10
383.200000
 20
83.840000
 30
0.0
 10
385.360000
 20
83.200000
 30
0.0
 10
387.600000
 20
81.840000
 30
0.0
  0
LINE
  5
248
100
AcDbEntity
  8
0
 62
7
100
AcDbLine
 10
387.600000
 20
81.840000
 30
0.0
 11
387.600000
 21
81.840000
 31
0.0
  0
ENDSEC
  0
SECTION
  2
OBJECTS
  0
DICTIONARY
  5
C
330
0
100
AcDbDictionary
  3
ACAD_GROUP
350
D
  3
ACAD_MLINESTYLE
350
17
  0
DICTIONARY
  5
D
330
C
100
AcDbDictionary
  0
DICTIONARY
  5
1A
330
C
100
AcDbDictionary
  0
DICTIONARY
  5
17
330
C
100
AcDbDictionary
  3
STANDARD
350
18
  0
DICTIONARY
  5
19
330
C
100
AcDbDictionary
  0
ENDSEC
  0
EOF
