<?xml version="1.0" encoding="UTF-8" standalone="no"?>
<svg
   xmlns:dc="http://purl.org/dc/elements/1.1/"
   xmlns:cc="http://creativecommons.org/ns#"
   xmlns:rdf="http://www.w3.org/1999/02/22-rdf-syntax-ns#"
   xmlns:svg="http://www.w3.org/2000/svg"
   xmlns="http://www.w3.org/2000/svg"
   xmlns:sodipodi="http://sodipodi.sourceforge.net/DTD/sodipodi-0.dtd"
   xmlns:inkscape="http://www.inkscape.org/namespaces/inkscape"
   width="744.1"
   height="1052.4"
   version="1.1"
   id="svg31"
   sodipodi:docname="Superhero 14 (Bistouille.fr).svg"
   inkscape:version="0.92.2 (5c3e80d, 2017-08-06)">
  <metadata
     id="metadata35">
    <rdf:RDF>
      <cc:Work
         rdf:about="">
        <dc:format>image/svg+xml</dc:format>
        <dc:type
           rdf:resource="http://purl.org/dc/dcmitype/StillImage" />
      </cc:Work>
    </rdf:RDF>
  </metadata>
  <sodipodi:namedview
     pagecolor="#ffffff"
     bordercolor="#666666"
     borderopacity="1"
     objecttolerance="10"
     gridtolerance="10"
     guidetolerance="10"
     inkscape:pageopacity="0"
     inkscape:pageshadow="2"
     inkscape:window-width="756"
     inkscape:window-height="480"
     id="namedview33"
     showgrid="false"
     inkscape:zoom="0.22424933"
     inkscape:cx="372.04999"
     inkscape:cy="526.20001"
     inkscape:window-x="0"
     inkscape:window-y="0"
     inkscape:window-maximized="0"
     inkscape:current-layer="svg31" />
  <defs
     id="defs2" />
  <path
     id="0"
     stroke-width="0.9"
     stroke="#FF0000"
     stroke-opacity="1"
     fill="#F50000"
     fill-opacity="1"
     fill-rule="evenodd"
     stroke-linecap="round"
     stroke-linejoin="round"
     d="M351,842.3 C341.1,840.6 323.1,834.8 321.4,832.8 321,832.4 320.3,832.1 319.6,832.1 317.3,832.1 298,820.1 288.8,812.9 280.2,806.2 260.7,788.1 259.4,785.7 259.1,785.1 259.2,783.7 259.6,782.4 260.4,780.1 260.7,779.1 263.9,766.1 264.9,762.1 266.8,755.1 268,750.6 269.3,746 271.7,737.2 273.4,730.9 275.1,724.6 277,718.9 277.5,718.1 278.5,716.7 287,714.7 304.9,711.8 330.4,707.6 333.8,707.3 361.2,707.4 385.5,707.4 389.9,707.7 400.6,709.6 413.5,712 418.7,713.2 419.4,714 419.8,714.5 424.2,743.6 425.9,757.8 426.5,763.2 427.4,770.4 427.9,773.9 428.7,780 429.5,787.8 431.2,804.9 431.7,809.3 432.1,815.7 432.1,819 432.1,819 432.1,825 432.1,825 432.1,825 427.7,827.2 427.7,827.2 425.3,828.5 421.5,830.5 419.2,831.7 399.7,841.9 373,846 351,842.3 Z M452.4,808.7 C452.2,808 450.9,799.7 449.5,790.4 447.1,774.6 445.8,766.3 443.7,754 443.3,751.3 442.5,746.9 442.1,744.2 440.4,733.5 439.4,727.5 438.5,723.6 437.7,719.6 437.8,719.1 440.4,714.8 441.9,712.3 443.4,710 443.6,709.8 443.9,709.5 446.8,705.6 450,701 458.1,689.8 478.7,667 480.8,667 481.1,667 482.3,666 483.4,664.8 485.4,662.7 489.4,659.6 499.3,652.2 505.1,647.9 524.7,636.7 525.7,637.1 527.2,637.7 552.2,667.5 552.2,668.7 552.2,672 525.4,722.4 517.9,733.1 516.9,734.5 515.2,737.1 514.1,738.9 499.3,762.1 477.3,788.5 460.2,803.5 457.3,806.1 454.4,808.6 453.8,809.1 453.1,809.7 452.7,809.6 452.4,808.7 Z M242.7,765.9 C240.5,763 236.9,758.4 234.9,755.4 232.9,752.5 230.7,749.5 230.1,748.8 229.6,748.1 228.1,745.9 226.8,743.9 225.6,742 224.4,740.1 224.1,739.9 223.8,739.6 222.4,737.2 220.8,734.5 219.3,731.9 217.8,729.5 217.5,729.2 216.2,728 198.8,697.1 194.2,687.7 193.4,685.9 192,683.1 191.1,681.4 190.3,679.6 188.6,676.2 187.4,673.8 186.2,671.4 181.8,661.4 177.6,651.7 177.6,651.7 170,633.8 170,633.8 170,633.8 172,632 172,632 173.1,631 174.3,630.2 174.7,630.2 175.1,630.1 176.6,629 178.1,627.7 179.6,626.4 181.2,625.3 181.7,625.3 182.2,625.3 182.7,625 182.9,624.6 183,624.1 185.9,621.7 189.2,619.2 195.7,614.1 195.4,614.1 199.8,619 203,622.5 217.9,641.2 222.2,647.1 226.3,652.6 227.5,654.3 231,659.2 234.9,664.7 248.1,684.4 249.8,687.4 250.9,689.3 252,691.1 252.3,691.3 253.2,692.3 259.8,702.9 259.8,703.5 259.8,703.8 260.5,705 261.5,706.2 263.4,708.6 263.5,708.1 259.1,724.8 254.5,742.5 250.2,758.8 248.6,765.4 247.9,768.4 247.2,771 247,771 246.9,771 245,768.7 242.7,765.9 Z M286.3,688.4 C286.3,686.9 297.1,651.4 300.4,642.3 300.8,641.2 302.4,636 304.1,630.6 305.8,625.3 308.3,617.4 309.6,613.1 311,608.9 312.7,603.3 313.5,600.8 314.2,598.2 315.3,596.2 315.8,596.2 316.3,596.1 319.2,599.2 322.1,602.9 325.1,606.7 327.9,609.7 328.3,609.7 328.8,609.7 332.7,607.8 337,605.4 353.4,596.3 371.4,591.3 388.1,591.3 396,591.3 397.2,591.5 397.6,593 397.8,593.9 398.4,596.9 398.9,599.5 399.4,602.2 400.2,605.9 400.6,607.8 401,609.7 402.1,615.3 403.1,620.4 404,625.5 405.1,631.4 405.5,633.5 410.5,659.1 414.7,683.3 414.7,686.3 414.7,688.2 414.4,688.4 412,687.9 398.6,685.2 330.5,683.5 310.7,685.4 299.8,686.5 295.7,687.1 288.1,689 287.1,689.2 286.3,689 286.3,688.4 Z M430.9,679.9 C430.1,675.2 429.1,669.9 428.7,668 428.3,666.1 427.4,661.8 426.8,658.3 424.5,646.4 421.2,630.6 417.8,615.1 412.9,592.5 413,594.8 417.3,595.5 420.6,596.1 421.2,595.9 425.4,592.2 428,590 430.8,587.4 431.8,586.4 432.8,585.4 435.3,583.3 437.2,581.9 439.2,580.4 441,578.9 441.2,578.6 442.7,576.6 459.7,564 460.6,564.3 461.2,564.4 465.3,568.5 469.6,573.3 496.6,603.6 506.5,614.6 508.7,616.9 508.7,616.9 511.2,619.5 511.2,619.5 511.2,619.5 509.4,621.2 509.4,621.2 508.4,622.1 504.8,625.3 501.3,628.2 497.8,631.1 492.4,635.7 489.4,638.4 486.3,641.2 483.3,643.8 482.5,644.3 481.8,644.8 479.9,646.4 478.4,647.8 474.3,651.6 459.2,665 454.3,669.2 451.9,671.3 448.8,674.1 447.4,675.6 443.2,680.1 433.8,688.4 433.1,688.4 432.7,688.4 431.7,684.6 430.9,679.9 Z M272.2,670 C272.2,669 271.1,667.2 267.2,662.2 266.1,660.7 264,657.8 262.6,655.7 255.2,645.1 242.1,630.1 229.7,617.8 226.8,615 214.4,605.9 213.5,605.9 213.1,605.9 212.3,605.2 211.8,604.5 211,603.4 212.9,601.5 221.8,594.6 227.9,589.8 233,585.7 233.3,585.5 233.5,585.2 238.6,581.1 244.6,576.4 244.6,576.4 255.4,567.8 255.4,567.8 255.4,567.8 264,569.5 264,569.5 272.7,571.2 287,576.1 293.7,579.8 295.7,580.9 298.3,582.2 299.3,582.6 300.3,583.1 301.2,583.9 301.2,584.4 301.2,585.4 298.6,593.4 296.6,598.6 295.5,601.5 285.2,633 283.6,638.4 283.2,640 282.5,642.2 282.1,643.2 281.7,644.3 280.6,648 279.6,651.5 278.7,655 277.6,658.7 277.1,659.8 276.7,660.8 275.9,663.6 275.2,666 274.1,670 272.2,672.6 272.2,670 Z M551.1,641 C541,629.1 541.3,630.1 543.5,615 546,597.9 552,571.2 555.5,561.7 555.9,560.6 556.6,558.2 557.2,556.3 558.3,552.6 563.7,538.8 566.5,532.5 567.4,530.4 569,526.7 570,524.3 571.2,521.6 575,516.6 580,511.2 586.8,503.9 590.7,499 597.2,489.3 602.7,481.4 610.1,465.8 616.3,449.3 618.9,442.6 619,445.2 616.8,457.3 611.3,487.2 608.3,502.1 604.3,518.2 603.9,519.9 603.2,522.8 602.8,524.5 595.8,553.6 581.7,598 570.3,627.2 567.3,634.8 560.3,651.5 560.2,651.5 560.1,651.5 556,646.8 551.1,641 Z M162.2,613.4 C161.3,611.1 157.9,601.2 154.6,591.3 151.3,581.4 148.3,572.4 147.9,571.4 145.2,563.7 136.2,530.4 132.2,512.6 128.5,496.7 127.6,492.4 125.6,482.5 124.7,477.4 123.5,471.5 123.1,469.4 121,458.7 119.8,451.3 119.8,449.3 119.9,447.9 120.1,447.6 120.3,448.5 128.9,476.1 136.8,494.3 146.2,508.1 153.3,518.5 166.2,532.2 175.1,538.8 190.3,550 215.1,559.2 230.3,559.3 237.7,559.3 237.4,560.3 226.9,568.8 221.5,573.1 216.7,577 216.3,577.5 215.8,577.9 209.9,582.6 203,587.9 196.2,593.2 190.4,597.9 190.2,598.2 189.6,598.9 177.6,608.2 176.5,608.7 176.1,608.9 175.5,609.4 175.3,609.7 174.6,610.8 165.4,617.5 164.5,617.5 164.1,617.5 163,615.7 162.2,613.4 Z M507,589.6 C501.1,582.8 492,572.6 486.7,567.1 481.5,561.5 476.6,556.1 475.8,555 474.4,553.2 474.4,553.1 476.3,552 477.4,551.3 483.8,550.6 492.2,550.2 501.5,549.9 509.2,549 514.9,547.6 524.4,545.4 536.8,541.3 539.2,539.7 540.1,539.2 541,538.9 541.2,539.2 541.4,539.5 540.1,543.4 538.3,547.8 536.4,552.3 534.2,557.9 533.3,560.3 532.4,562.6 530.9,566.8 529.9,569.4 527.9,574.5 526.7,577.9 525.7,581.1 523.2,588.7 521.5,594.3 520.5,597.8 520,600.1 519.1,602 518.7,601.9 518.2,601.9 513,596.4 507,589.6 Z M325.4,584.7 C323,582.7 321.1,580.4 321.1,579.6 321.1,578.8 323.9,569.8 327.4,559.6 327.4,559.6 333.8,541 333.8,541 333.8,541 340.5,538.5 340.5,538.5 345.8,536.5 350.1,535.8 361.7,535 369.6,534.4 378.1,533.7 380.5,533.5 384.3,533.1 384.8,533.2 385.3,535.1 386.3,538.7 392.3,567.5 392.3,568.6 392.3,569.1 389.1,570.2 385.1,570.8 362.5,574.7 349.4,578.5 338.7,584.6 335,586.7 331.4,588.3 330.9,588.3 330.3,588.3 327.8,586.6 325.4,584.7 Z M302,567.6 C298.2,564.8 285.9,558.3 284.2,558.3 282.3,558.3 282.7,556.4 284.8,555.9 285.8,555.7 289.7,554.8 293.3,553.9 297,553 303,551.4 306.8,550.4 310.6,549.3 313.9,548.6 314.2,548.9 314.4,549.2 313.7,551.7 312.5,554.6 311.4,557.4 309.6,562 308.6,564.8 307.5,567.6 306.3,569.9 305.8,569.9 305.3,569.8 303.6,568.8 302,567.6 Z M407.5,568.2 C407,567.8 406.1,565.5 405.6,563.1 405,560.7 403.1,553.6 401.3,547.2 399.5,540.9 398.2,535.5 398.4,535.3 398.6,535 402.1,536 406.1,537.4 410.1,538.8 415.3,540.5 417.6,541.3 422.7,542.9 442.5,547.6 444.2,547.6 446.1,547.6 449.4,550.5 449,551.9 448.7,552.6 447.5,553.7 446.3,554.3 443.7,555.7 431.4,565 429.7,566.8 429,567.6 425.8,568 420.2,568 415.6,568 411,568.2 410.1,568.5 409.2,568.8 408,568.6 407.5,568.2 Z M500.4,533.4 C480.1,529.8 456.6,515 435.6,492.6 435.6,492.6 431.8,488.7 431.8,488.7 431.8,488.7 449,471.8 449,471.8 458.5,462.5 468.7,452.5 471.7,449.6 478.6,443.1 480.5,441.3 485.6,436.2 487.8,434 494.9,427.1 501.3,420.8 507.6,414.5 514.5,407.7 516.6,405.7 526,396.3 547.4,375.5 553.8,369.5 557.6,365.8 561.2,362.3 561.7,361.7 562.3,361.1 564.3,359.1 566.3,357.2 568.3,355.4 570.3,353.4 570.8,352.8 571.3,352.3 575,348.6 579.1,344.6 583.2,340.7 586.8,337.2 587,336.9 587.2,336.6 592,331.8 597.6,326.4 606.1,318 609.4,315.3 609.4,316.7 609.3,316.9 608.3,326 606,346.1 604.2,362.3 600.4,384.2 596.1,404 589.9,432.5 579.9,463.1 570.7,481.5 568,487 560.6,500 559.4,501.5 558.8,502.1 556.9,504.6 555.1,507.2 544.1,522.6 527,532.7 510.8,533.5 506.4,533.7 501.8,533.6 500.4,533.4 Z M227.5,531 C215.2,527.3 204.7,519.8 194,507.4 186.9,499 186.4,498.4 181.9,490.8 180.3,488.1 178.7,485.8 178.4,485.6 178,485.4 177.8,484.8 177.8,484.3 177.8,483.8 176.7,481.5 175.4,479.3 166.3,463.8 152.6,426.4 146.3,400 145.7,397.6 145,394.5 144.6,393.2 144.3,391.8 143.6,389.2 143.2,387.3 142.7,385.5 141.5,380 140.5,375.2 139.5,370.4 138.4,364.9 138,363.1 137.3,359.9 136.7,356.7 134.6,343.6 132.8,332.8 132.3,329.5 131.8,325.7 131.5,323.5 131.1,320.6 130.9,319.1 130.6,317.6 130.8,316.4 131.3,316.4 132,316.4 144.6,326.7 148.8,330.8 149.4,331.4 153.8,335.1 158.4,339 180.3,357.5 187.6,363.7 191.8,367.5 194.3,369.7 204,378 213.4,385.9 222.7,393.8 230.5,400.6 230.8,400.9 231,401.2 231.8,401.9 232.5,402.4 233.3,402.9 237.6,406.5 242.1,410.4 246.6,414.3 251.9,418.8 254,420.6 256,422.3 262,427.5 267.2,432 272.5,436.6 280.7,443.6 285.4,447.6 290.2,451.6 297.2,457.5 300.9,460.7 304.6,463.9 311.4,469.7 316,473.7 320.6,477.7 324.4,481.3 324.4,481.7 324.4,482.1 323.9,482.8 323.2,483.2 322.6,483.6 320,486.2 317.6,488.9 309.2,498.3 294.4,511.4 285.9,517 279.3,521.3 270.6,526.2 269.4,526.2 268.9,526.2 268,526.6 267.6,527 266.6,528 261,529.9 254,531.7 246.5,533.5 235,533.2 227.5,531 Z M386.5,521.4 C381.7,521 369.9,520.1 360.2,519.4 350.5,518.7 342.6,517.8 342.6,517.4 342.6,517.1 345.5,514 349,510.6 349,510.6 355.4,504.4 355.4,504.4 355.4,504.4 366.6,504 366.6,504 366.6,504 377.8,503.7 377.8,503.7 377.8,503.7 388.5,512.1 388.5,512.1 394.4,516.6 399.5,520.4 399.9,520.4 400.3,520.4 400.6,520.8 400.6,521.4 400.6,522.4 400.4,522.4 386.5,521.4 Z M368.1,492 C366.4,488.9 365,486.2 365,486 365,485.8 362.4,480.7 359.3,474.6 354.3,465 353.8,463.4 354.9,462.5 356.4,461.4 371.6,457 372.2,457.6 372.3,457.8 372.2,466.9 371.8,477.8 371.8,477.8 371.2,497.6 371.2,497.6 371.2,497.6 368.1,492 368.1,492 Z M385.6,497 C385.6,496.8 385.4,492.9 385.2,488.3 385.1,483.8 384.7,475 384.5,468.7 384.2,462.1 384.3,457.3 384.7,457.3 385.9,457.3 401.4,462 402.2,462.6 402.6,462.9 401.1,467 398.8,471.6 396.5,476.3 393.9,481.4 393.2,483 387.3,494.9 385.8,497.8 385.6,497 Z M416,452.8 C414.2,452 409.4,450.9 405.2,450.3 397,449.1 395.8,448.5 397.5,446.5 399.7,443.8 412.1,425.5 415.8,419.4 421.9,409.4 432.9,390.4 432.9,389.7 432.9,389.4 434.4,386.6 436.2,383.5 438,380.3 439.5,377.5 439.5,377.1 439.5,376.8 440.7,374.6 442,372.3 443.4,370 444.5,367.9 444.5,367.6 444.5,367.4 445.9,364.4 447.7,361 450.6,355.3 458.1,339.6 465.1,324.2 466.6,320.7 470.9,311 474.4,302.7 478,294.3 481.3,287.2 481.7,286.9 482,286.6 485.1,289.8 488.5,293.9 504.6,313.4 525.5,333.9 536.1,340.3 538.6,341.8 540.6,343.3 540.6,343.6 540.6,344.3 536.1,348.6 527.3,356.3 523.5,359.7 520.1,362.8 519.9,363.1 519.7,363.4 514.6,368 508.7,373.2 502.8,378.5 497.8,383.1 497.5,383.5 497.3,383.8 493.9,386.9 490.1,390.3 486.2,393.7 482.8,396.8 482.6,397.1 482.4,397.4 479,400.4 475.2,403.9 466.8,411.2 442.6,433.2 442,433.9 440.5,435.8 433.7,441.7 433,441.7 432.6,441.7 432.1,442.1 431.9,442.5 431.7,443.2 421.6,452.6 420.1,453.6 419.6,453.9 417.8,453.5 416,452.8 Z M307.5,423.6 C293.3,407.1 269.9,379.8 255.4,363.1 240.9,346.3 229.2,332.3 229.3,331.9 229.4,331.6 233.4,327.5 238.2,322.8 243,318.2 250.2,310.7 254.2,306.2 258.2,301.7 261.7,298 262,298 262.4,298 265.2,304 268.3,311.4 271.3,318.7 275.2,327.5 276.8,331 285.3,349.4 291.3,361.8 296.5,371.8 299.6,377.9 302.9,384.4 303.8,386.1 310.1,399 330.2,432.1 339.1,444.2 342.3,448.5 343.8,451.2 343.2,451.6 342.6,451.9 340.2,452.5 337.8,452.9 337.8,452.9 333.4,453.6 333.4,453.6 333.4,453.6 307.5,423.6 307.5,423.6 Z M346.8,444.5 C345.3,441.1 342.9,435.9 341.5,433 338,425.5 329.9,407.9 325.2,397.5 323,392.7 319.9,385.9 318.3,382.5 316.6,379 313.5,372 311.4,367 309.2,361.9 307.2,357.5 307,357.2 306.7,357 304.3,351.5 301.5,345.1 298.7,338.7 292.9,325.3 288.5,315.2 284.1,305.2 280.5,296.7 280.5,296.2 280.5,295.8 285.2,294.6 291,293.7 296.8,292.8 303.3,291.6 305.3,291.1 307.4,290.6 312.2,289.6 316.1,288.7 324.3,287 346.4,280.8 348.8,279.6 349.7,279.2 353.1,277.8 356.3,276.6 359.5,275.4 363.2,273.9 364.6,273.2 371.1,269.8 378.1,265.9 380.9,263.9 382.6,262.7 384.1,261.9 384.3,262.1 385.2,263.5 380.6,378.9 378.2,412.6 377.8,418.7 377.2,427.9 376.9,432.9 376.3,441.6 376.1,442.3 373.7,444.9 370.1,448.9 368.6,449.4 358.5,450.1 358.5,450.1 349.5,450.7 349.5,450.7 349.5,450.7 346.8,444.5 346.8,444.5 Z M380.7,447.6 C380.7,447.1 381.1,445.5 381.6,444 382.2,442.5 382.9,440.4 383.2,439.3 383.9,437.2 386.4,425 387.4,418.9 392,390.2 394.7,366.5 396.5,340.2 399.1,301.4 399.1,300.2 400.3,271.8 400.5,265.6 400.9,260.4 401.1,260.2 401.3,260 402.3,260.3 403.3,260.9 406,262.5 417.7,267.8 423,269.9 439.1,276 449.7,278.6 459.6,278.6 463.2,278.6 466,278.8 466,279.1 466,279.3 462.9,286.6 459.1,295.3 455.3,304 448.2,320.3 443.3,331.5 432.5,356.2 427.1,368.1 413.8,397.1 410.5,404.3 406.3,413.4 404.5,417.3 402.8,421.3 400.4,426.3 399.3,428.5 398.2,430.7 395.8,436.1 393.8,440.5 393.8,440.5 390.3,448.5 390.3,448.5 390.3,448.5 385.5,448.5 385.5,448.5 382.9,448.5 380.7,448.1 380.7,447.6 Z M543.3,329.1 C536.1,322.8 521.1,305.9 514,296.2 508.3,288.5 495.7,268.6 493.5,264.1 493.5,264.1 491.9,260.6 491.9,260.6 491.9,260.6 494.6,253.8 494.6,253.8 496.1,250.1 500,240 503.3,231.5 506.6,222.9 510,214.1 510.8,211.8 511.7,209.6 512.4,207.5 512.4,207.2 512.4,207 513.6,203.8 515,200.2 516.4,196.6 517.9,192.7 518.2,191.7 518.6,190.6 519.7,187.6 520.6,185.1 521.6,182.6 522.4,180.3 522.4,180 522.4,179.7 523.2,177.4 524.1,174.9 525.1,172.4 526.2,169.4 526.5,168.3 530.8,156 533.2,149.9 533.9,149.6 534.4,149.4 534.8,149.7 534.8,150.2 534.8,151.2 547.3,173.2 552.5,181.5 562,196.4 573.3,212.1 580.7,220.8 590.5,232.2 591.4,233.1 598.9,238.6 605.7,243.6 609.9,245.5 616,246.4 616,246.4 620.5,247 620.5,247 620.5,247 622.3,257.2 622.3,257.2 623.2,262.8 623.9,267.8 623.7,268.4 623.5,268.9 621.3,271.2 618.6,273.4 614.7,276.8 602.9,287.4 598.6,291.5 595.4,294.5 582.1,306.6 579.1,309.1 577.3,310.7 575.4,312.5 574.9,313 574.4,313.6 571,316.7 567.4,319.9 563.8,323.1 560.7,325.9 560.5,326.2 559.6,327.4 550.8,334.9 550.3,334.9 550,334.9 546.9,332.3 543.3,329.1 Z M185.4,282.1 C169.1,263.2 151.4,242.7 146,236.5 140.6,230.3 136.4,224.8 136.7,224.3 137,223.8 140.3,220.9 144,217.8 147.8,214.7 151.8,211.3 153,210.2 154.2,209.1 156.5,207.1 158,205.7 172.9,192.6 190.8,172.4 200.1,158.4 203,154 205.6,150.4 205.8,150.4 206.1,150.4 208.5,156.8 211.2,164.7 213.9,172.6 217.1,181.4 218.2,184.4 220.7,191.2 222.5,196 223.3,198.5 223.6,199.5 224.8,202.6 225.8,205.3 226.8,207.9 228,211 228.3,212.1 228.7,213.1 229.9,216.4 231,219.3 232.1,222.3 233.7,226.2 234.4,228.1 235.1,229.9 237.1,235.3 239,240.1 240.9,244.8 242.4,248.8 242.4,249 242.4,249.2 244.6,254.9 247.4,261.7 250.2,268.7 252.1,274.7 251.9,275.7 251.2,278.2 217.8,316.4 216.3,316.4 215.5,316.4 201.6,301 185.4,282.1 Z M274.3,261 C270.2,260.8 266.2,260.2 265.6,259.8 264.9,259.4 263.1,256.1 261.7,252.6 260.2,249 256,238.7 252.4,229.7 248.7,220.7 245.7,213.3 245.7,213.1 245.7,212.9 243.9,208.2 241.6,202.7 239.4,197.2 236.8,190.6 235.8,188 233.1,180.8 230.7,174.5 229.5,171.3 229,169.7 227.7,166.3 226.7,163.7 225.8,161.2 225,158.9 225,158.6 225,158.4 224.3,156.3 223.4,154 220.6,146.6 220.5,146.8 224.8,146.1 236.6,144.2 267.8,138 277.6,135.7 305.9,128.9 338.9,118.3 350.1,112.4 351.2,111.8 352.9,110.9 353.8,110.5 357.7,108.8 372.2,100.4 375.1,98.3 376.8,97 378.5,96 378.9,96 380.9,96 384.8,168.1 384.8,203.4 384.8,203.4 384.9,221 384.9,221 384.9,221 382.2,223.4 382.2,223.4 374.5,230.1 350.2,245.6 347.4,245.6 346.8,245.6 345.9,246 345.5,246.5 344.3,247.8 328.3,253.9 320.2,256.2 304.3,260.5 289.4,262.1 274.3,261 Z M454.4,256.2 C444.1,254.6 427.8,249.6 420.9,246 419.5,245.3 416.6,243.8 414.5,242.8 412.3,241.7 408.6,239.3 406.2,237.5 406.2,237.5 401.8,234.2 401.8,234.2 401.8,234.2 401.9,167.5 401.9,167.5 402,130.8 402.2,100.5 402.5,100.3 402.8,99.9 406.5,101.4 411.8,104.2 416.7,106.9 437.3,115.4 449.9,119.9 476.8,129.7 502.4,134.4 516.2,132.2 519.8,131.6 522.9,131.3 523.1,131.5 523.4,131.8 519.2,144.5 516,153.3 515.3,155.2 514.5,157.6 514.1,158.6 513.8,159.7 512.7,162.5 511.8,164.9 510.8,167.4 506.9,177.6 503,187.8 496,206.4 492.8,214.4 483,238.6 474.8,258.8 476.5,256.7 467.5,256.9 463.3,256.9 457.4,256.6 454.4,256.2 Z M613.1,232.3 C594.7,212.7 580.7,193.3 570.9,173.6 568.8,169.4 559.7,147.9 556.7,140.2 555.1,136 548.1,110.9 548.1,109.5 548.1,104.9 571.3,130.3 582.5,147 587.9,155.1 597.8,172.6 597.8,174.2 597.8,174.9 598.1,175.6 598.4,175.8 598.8,176 600.8,180.3 602.9,185.4 609.1,200.3 613.5,214.5 618.2,234.1 618.8,236.9 616.7,236.1 613.1,232.3 Z M126.4,209.7 C126.4,206.7 136.4,180.7 141.8,169.9 149.7,154 162.5,135.5 174.6,122.5 177,119.9 179.2,117.6 179.4,117.3 179.6,117 182.4,114.4 185.6,111.6 185.6,111.6 191.3,106.5 191.3,106.5 191.3,106.5 192.8,111.1 192.8,111.1 194.8,116.8 194.2,122.7 190.8,133.4 183.1,157.1 165.1,180.2 136.3,203.3 126.8,210.9 126.4,211.2 126.4,209.7 Z M211.2,115.7 C209.7,114.5 204.7,97 205.6,96 206.7,94.8 212.1,91.3 219.6,87 246.2,71.6 278,61.7 317.1,56.6 328.7,55.1 370.9,53 372.8,53.8 373.4,54.1 374.2,56.3 374.5,58.7 375,63 374.6,64.9 373.2,64.9 372.8,64.9 370.5,66.4 368.1,68.2 363.5,71.6 342,84.3 334.3,88.1 331.8,89.3 329,90.7 328.1,91.2 321.7,94.5 303.5,101.9 295.4,104.4 292.9,105.2 287.5,106.8 283.4,108.1 279.3,109.4 272,111.1 267.2,112 262.4,112.9 256.5,114.1 254,114.6 248.2,115.9 212.5,116.8 211.2,115.7 Z M503.3,106 C468.8,102.9 438,93.3 410.7,77.2 400.8,71.4 400.6,71.1 400.6,62.5 400.6,62.5 400.6,55.2 400.6,55.2 400.6,55.2 405.1,55.2 405.1,55.2 415.8,55.2 450.5,61 463.6,64.9 465.2,65.4 469.6,66.7 473.5,67.9 490.6,73 513.7,83.4 526.1,91.6 529.7,94 532.9,96 533.3,96 534.3,96 534.2,96.9 532.6,102.1 532.6,102.1 531.2,106.7 531.2,106.7 531.2,106.7 519.1,106.5 519.1,106.5 512.5,106.4 505.4,106.2 503.3,106 Z " />
</svg>
