  0
SECTION
  2
HEADER
  9
$ACADVER
  1
AC1014
  9
$HANDSEED
  5
FFFF
  9
$MEASUREMENT
 70
     1
  0
ENDSEC
  0
SECTION
  2
TABLES
  0
TABLE
  2
VPORT
  5
8
330
0
100
AcDbSymbolTable
 70
     4
  0
VPORT
  5
2E
330
8
100
AcDbSymbolTableRecord
100
AcDbViewportTableRecord
  2
*ACTIVE
 70
     0
 10
0.0
 20
0.0
 11
1.0
 21
1.0
 12
210.0
 22
148.5
 13
0.0
 23
0.0
 14
10.0
 24
10.0
 15
10.0
 25
10.0
 16
0.0
 26
0.0
 36
1.0
 17
0.0
 27
0.0
 37
0.0
 40
341.0
 41
1.24
 42
50.0
 43
0.0
 44
0.0
 50
0.0
 51
0.0
 71
     0
 72
   100
 73
     1
 74
     3
 75
     0
 76
     0
 77
     0
 78
     0
  0
ENDTAB
  0
TABLE
  2
LTYPE
  5
5
330
0
100
AcDbSymbolTable
 70
     1
  0
LTYPE
  5
14
330
5
100
AcDbSymbolTableRecord
100
AcDbLinetypeTableRecord
  2
BYBLOCK
 70
     0
  3

 72
    65
 73
     0
 40
0.0
  0
LTYPE
  5
15
330
5
100
AcDbSymbolTableRecord
100
AcDbLinetypeTableRecord
  2
BYLAYER
 70
     0
  3

 72
    65
 73
     0
 40
0.0
  0
LTYPE
  5
16
330
5
100
AcDbSymbolTableRecord
100
AcDbLinetypeTableRecord
  2
CONTINUOUS
 70
     0
  3
Solid line
 72
    65
 73
     0
 40
0.0
  0
ENDTAB
  0
TABLE
  2
LAYER
  5
2
100
AcDbSymbolTable
 70
1
  0
LAYER
  5
50
100
AcDbSymbolTableRecord
100
AcDbLayerTableRecord
  2
0
 70
0
  6
CONTINUOUS
  0
ENDTAB
  0
TABLE
  2
STYLE
  5
3
330
0
100
AcDbSymbolTable
 70
     1
  0
STYLE
  5
11
330
3
100
AcDbSymbolTableRecord
100
AcDbTextStyleTableRecord
  2
STANDARD
 70
     0
 40
0.0
 41
1.0
 50
0.0
 71
     0
 42
2.5
  3
txt
  4

  0
ENDTAB
  0
TABLE
  2
VIEW
  5
6
330
0
100
AcDbSymbolTable
 70
     0
  0
ENDTAB
  0
TABLE
  2
UCS
  5
7
330
0
100
AcDbSymbolTable
 70
     0
  0
ENDTAB
  0
TABLE
  2
APPID
  5
9
330
0
100
AcDbSymbolTable
 70
     2
  0
APPID
  5
12
330
9
100
AcDbSymbolTableRecord
100
AcDbRegAppTableRecord
  2
ACAD
 70
     0
  0
ENDTAB
  0
TABLE
  2
DIMSTYLE
  5
A
330
0
100
AcDbSymbolTable
 70
     1
  0
DIMSTYLE
105
27
330
A
100
AcDbSymbolTableRecord
100
AcDbDimStyleTableRecord
  2
ISO-25
 70
     0
  3

  4

  5

  6

  7

 40
1.0
 41
2.5
 42
0.625
 43
3.75
 44
1.25
 45
0.0
 46
0.0
 47
0.0
 48
0.0
140
2.5
141
2.5
142
0.0
143
0.03937007874016
144
1.0
145
0.0
146
1.0
147
0.625
 71
     0
 72
     0
 73
     0
 74
     0
 75
     0
 76
     0
 77
     1
 78
     8
170
     0
171
     3
172
     1
173
     0
174
     0
175
     0
176
     0
177
     0
178
     0
270
     2
271
     2
272
     2
273
     2
274
     3
340
11
275
     0
280
     0
281
     0
282
     0
283
     0
284
     8
285
     0
286
     0
287
     3
288
     0
  0
ENDTAB
  0
TABLE
  2
BLOCK_RECORD
  5
1
330
0
100
AcDbSymbolTable
 70
     1
  0
BLOCK_RECORD
  5
1F
330
1
100
AcDbSymbolTableRecord
100
AcDbBlockTableRecord
  2
*MODEL_SPACE
  0
BLOCK_RECORD
  5
1B
330
1
100
AcDbSymbolTableRecord
100
AcDbBlockTableRecord
  2
*PAPER_SPACE
  0
ENDTAB
  0
ENDSEC
  0
SECTION
  2
BLOCKS
  0
BLOCK
  5
20
330
1F
100
AcDbEntity
  8
0
100
AcDbBlockBegin
  2
*MODEL_SPACE
 70
     0
 10
0.0
 20
0.0
 30
0.0
  3
*MODEL_SPACE
  1

  0
ENDBLK
  5
21
330
1F
100
AcDbEntity
  8
0
100
AcDbBlockEnd
  0
BLOCK
  5
1C
330
1B
100
AcDbEntity
 67
     1
  8
0
100
AcDbBlockBegin
  2
*PAPER_SPACE
  1

  0
ENDBLK
  5
1D
330
1B
100
AcDbEntity
 67
     1
  8
0
100
AcDbBlockEnd
  0
ENDSEC
  0
SECTION
  2
ENTITIES
  0
SPLINE
  5
100
100
AcDbEntity
  8
0
 62
7
100
AcDbSpline
 70
8
 71
3
 72
8
 73
4
 74
0
 40
0
 40
0
 40
0
 40
0
 40
1
 40
1
 40
1
 40
1
 10
297.040000
 20
311.920000
 30
0.0
 10
296.400000
 20
313.440000
 30
0.0
 10
292.000000
 20
320.640000
 30
0.0
 10
287.360000
 20
327.920000
 30
0.0
  0
SPLINE
  5
101
100
AcDbEntity
  8
0
 62
7
100
AcDbSpline
 70
8
 71
3
 72
8
 73
4
 74
0
 40
0
 40
0
 40
0
 40
0
 40
1
 40
1
 40
1
 40
1
 10
287.360000
 20
327.920000
 30
0.0
 10
271.200000
 20
353.360000
 30
0.0
 10
258.160000
 20
367.360000
 30
0.0
 10
244.560000
 20
374.000000
 30
0.0
  0
SPLINE
  5
102
100
AcDbEntity
  8
0
 62
7
100
AcDbSpline
 70
8
 71
3
 72
8
 73
4
 74
0
 40
0
 40
0
 40
0
 40
0
 40
1
 40
1
 40
1
 40
1
 10
244.560000
 20
374.000000
 30
0.0
 10
235.840000
 20
378.240000
 30
0.0
 10
227.920000
 20
378.480000
 30
0.0
 10
220.320000
 20
374.640000
 30
0.0
  0
SPLINE
  5
103
100
AcDbEntity
  8
0
 62
7
100
AcDbSpline
 70
8
 71
3
 72
8
 73
4
 74
0
 40
0
 40
0
 40
0
 40
0
 40
1
 40
1
 40
1
 40
1
 10
220.320000
 20
374.640000
 30
0.0
 10
214.880000
 20
371.920000
 30
0.0
 10
209.600000
 20
366.480000
 30
0.0
 10
206.080000
 20
360.080000
 30
0.0
  0
SPLINE
  5
104
100
AcDbEntity
  8
0
 62
7
100
AcDbSpline
 70
8
 71
3
 72
8
 73
4
 74
0
 40
0
 40
0
 40
0
 40
0
 40
1
 40
1
 40
1
 40
1
 10
206.080000
 20
360.080000
 30
0.0
 10
202.080000
 20
352.880000
 30
0.0
 10
202.000000
 20
352.800000
 30
0.0
 10
197.600000
 20
356.960000
 30
0.0
  0
SPLINE
  5
105
100
AcDbEntity
  8
0
 62
7
100
AcDbSpline
 70
8
 71
3
 72
8
 73
4
 74
0
 40
0
 40
0
 40
0
 40
0
 40
1
 40
1
 40
1
 40
1
 10
197.600000
 20
356.960000
 30
0.0
 10
187.280000
 20
366.640000
 30
0.0
 10
173.680000
 20
374.080000
 30
0.0
 10
161.840000
 20
376.240000
 30
0.0
  0
SPLINE
  5
106
100
AcDbEntity
  8
0
 62
7
100
AcDbSpline
 70
8
 71
3
 72
8
 73
4
 74
0
 40
0
 40
0
 40
0
 40
0
 40
1
 40
1
 40
1
 40
1
 10
161.840000
 20
376.240000
 30
0.0
 10
156.720000
 20
377.200000
 30
0.0
 10
153.360000
 20
377.440000
 30
0.0
 10
146.880000
 20
377.200000
 30
0.0
  0
SPLINE
  5
107
100
AcDbEntity
  8
0
 62
7
100
AcDbSpline
 70
8
 71
3
 72
8
 73
4
 74
0
 40
0
 40
0
 40
0
 40
0
 40
1
 40
1
 40
1
 40
1
 10
146.880000
 20
377.200000
 30
0.0
 10
133.040000
 20
376.800000
 30
0.0
 10
127.040000
 20
374.080000
 30
0.0
 10
122.080000
 20
366.000000
 30
0.0
  0
SPLINE
  5
108
100
AcDbEntity
  8
0
 62
7
100
AcDbSpline
 70
8
 71
3
 72
8
 73
4
 74
0
 40
0
 40
0
 40
0
 40
0
 40
1
 40
1
 40
1
 40
1
 10
122.080000
 20
366.000000
 30
0.0
 10
116.640000
 20
357.120000
 30
0.0
 10
120.480000
 20
336.160000
 30
0.0
 10
130.640000
 20
318.640000
 30
0.0
  0
SPLINE
  5
109
100
AcDbEntity
  8
0
 62
7
100
AcDbSpline
 70
8
 71
3
 72
8
 73
4
 74
0
 40
0
 40
0
 40
0
 40
0
 40
1
 40
1
 40
1
 40
1
 10
130.640000
 20
318.640000
 30
0.0
 10
132.080000
 20
316.240000
 30
0.0
 10
132.880000
 20
314.080000
 30
0.0
 10
132.400000
 20
313.920000
 30
0.0
  0
SPLINE
  5
10a
100
AcDbEntity
  8
0
 62
7
100
AcDbSpline
 70
8
 71
3
 72
8
 73
4
 74
0
 40
0
 40
0
 40
0
 40
0
 40
1
 40
1
 40
1
 40
1
 10
132.400000
 20
313.920000
 30
0.0
 10
130.000000
 20
313.120000
 30
0.0
 10
92.160000
 20
327.840000
 30
0.0
 10
92.160000
 20
329.600000
 30
0.0
  0
SPLINE
  5
10b
100
AcDbEntity
  8
0
 62
7
100
AcDbSpline
 70
8
 71
3
 72
8
 73
4
 74
0
 40
0
 40
0
 40
0
 40
0
 40
1
 40
1
 40
1
 40
1
 10
92.160000
 20
329.600000
 30
0.0
 10
92.160000
 20
330.000000
 30
0.0
 10
91.440000
 20
330.240000
 30
0.0
 10
90.480000
 20
330.240000
 30
0.0
  0
SPLINE
  5
10c
100
AcDbEntity
  8
0
 62
7
100
AcDbSpline
 70
8
 71
3
 72
8
 73
4
 74
0
 40
0
 40
0
 40
0
 40
0
 40
1
 40
1
 40
1
 40
1
 10
90.480000
 20
330.240000
 30
0.0
 10
89.520000
 20
330.240000
 30
0.0
 10
88.800000
 20
330.560000
 30
0.0
 10
88.800000
 20
330.880000
 30
0.0
  0
SPLINE
  5
10d
100
AcDbEntity
  8
0
 62
7
100
AcDbSpline
 70
8
 71
3
 72
8
 73
4
 74
0
 40
0
 40
0
 40
0
 40
0
 40
1
 40
1
 40
1
 40
1
 10
88.800000
 20
330.880000
 30
0.0
 10
88.800000
 20
331.200000
 30
0.0
 10
87.200000
 20
332.240000
 30
0.0
 10
85.360000
 20
333.120000
 30
0.0
  0
SPLINE
  5
10e
100
AcDbEntity
  8
0
 62
7
100
AcDbSpline
 70
8
 71
3
 72
8
 73
4
 74
0
 40
0
 40
0
 40
0
 40
0
 40
1
 40
1
 40
1
 40
1
 10
85.360000
 20
333.120000
 30
0.0
 10
79.520000
 20
335.840000
 30
0.0
 10
65.120000
 20
345.760000
 30
0.0
 10
57.280000
 20
352.480000
 30
0.0
  0
SPLINE
  5
10f
100
AcDbEntity
  8
0
 62
7
100
AcDbSpline
 70
8
 71
3
 72
8
 73
4
 74
0
 40
0
 40
0
 40
0
 40
0
 40
1
 40
1
 40
1
 40
1
 10
57.280000
 20
352.480000
 30
0.0
 10
13.920000
 20
389.680000
 30
0.0
 10
8.800000
 20
446.800000
 30
0.0
 10
45.120000
 20
489.520000
 30
0.0
  0
SPLINE
  5
110
100
AcDbEntity
  8
0
 62
7
100
AcDbSpline
 70
8
 71
3
 72
8
 73
4
 74
0
 40
0
 40
0
 40
0
 40
0
 40
1
 40
1
 40
1
 40
1
 10
45.120000
 20
489.520000
 30
0.0
 10
58.480000
 20
505.200000
 30
0.0
 10
72.640000
 20
516.640000
 30
0.0
 10
96.400000
 20
530.880000
 30
0.0
  0
SPLINE
  5
111
100
AcDbEntity
  8
0
 62
7
100
AcDbSpline
 70
8
 71
3
 72
8
 73
4
 74
0
 40
0
 40
0
 40
0
 40
0
 40
1
 40
1
 40
1
 40
1
 10
96.400000
 20
530.880000
 30
0.0
 10
108.800000
 20
538.320000
 30
0.0
 10
127.280000
 20
546.960000
 30
0.0
 10
147.520000
 20
554.880000
 30
0.0
  0
SPLINE
  5
112
100
AcDbEntity
  8
0
 62
7
100
AcDbSpline
 70
8
 71
3
 72
8
 73
4
 74
0
 40
0
 40
0
 40
0
 40
0
 40
1
 40
1
 40
1
 40
1
 10
147.520000
 20
554.880000
 30
0.0
 10
159.920000
 20
559.680000
 30
0.0
 10
177.840000
 20
565.440000
 30
0.0
 10
179.120000
 20
564.960000
 30
0.0
  0
SPLINE
  5
113
100
AcDbEntity
  8
0
 62
7
100
AcDbSpline
 70
8
 71
3
 72
8
 73
4
 74
0
 40
0
 40
0
 40
0
 40
0
 40
1
 40
1
 40
1
 40
1
 10
179.120000
 20
564.960000
 30
0.0
 10
179.440000
 20
564.880000
 30
0.0
 10
178.480000
 20
562.800000
 30
0.0
 10
176.960000
 20
560.320000
 30
0.0
  0
SPLINE
  5
114
100
AcDbEntity
  8
0
 62
7
100
AcDbSpline
 70
8
 71
3
 72
8
 73
4
 74
0
 40
0
 40
0
 40
0
 40
0
 40
1
 40
1
 40
1
 40
1
 10
176.960000
 20
560.320000
 30
0.0
 10
167.920000
 20
544.960000
 30
0.0
 10
163.680000
 20
523.360000
 30
0.0
 10
167.440000
 20
511.600000
 30
0.0
  0
SPLINE
  5
115
100
AcDbEntity
  8
0
 62
7
100
AcDbSpline
 70
8
 71
3
 72
8
 73
4
 74
0
 40
0
 40
0
 40
0
 40
0
 40
1
 40
1
 40
1
 40
1
 10
167.440000
 20
511.600000
 30
0.0
 10
171.120000
 20
500.240000
 30
0.0
 10
179.040000
 20
491.360000
 30
0.0
 10
191.520000
 20
484.560000
 30
0.0
  0
SPLINE
  5
116
100
AcDbEntity
  8
0
 62
7
100
AcDbSpline
 70
8
 71
3
 72
8
 73
4
 74
0
 40
0
 40
0
 40
0
 40
0
 40
1
 40
1
 40
1
 40
1
 10
191.520000
 20
484.560000
 30
0.0
 10
202.960000
 20
478.320000
 30
0.0
 10
210.000000
 20
477.600000
 30
0.0
 10
223.840000
 20
481.520000
 30
0.0
  0
SPLINE
  5
117
100
AcDbEntity
  8
0
 62
7
100
AcDbSpline
 70
8
 71
3
 72
8
 73
4
 74
0
 40
0
 40
0
 40
0
 40
0
 40
1
 40
1
 40
1
 40
1
 10
223.840000
 20
481.520000
 30
0.0
 10
240.320000
 20
486.240000
 30
0.0
 10
252.560000
 20
500.640000
 30
0.0
 10
259.280000
 20
523.200000
 30
0.0
  0
SPLINE
  5
118
100
AcDbEntity
  8
0
 62
7
100
AcDbSpline
 70
8
 71
3
 72
8
 73
4
 74
0
 40
0
 40
0
 40
0
 40
0
 40
1
 40
1
 40
1
 40
1
 10
259.280000
 20
523.200000
 30
0.0
 10
262.400000
 20
534.000000
 30
0.0
 10
265.200000
 20
553.920000
 30
0.0
 10
265.440000
 20
568.080000
 30
0.0
  0
LINE
  5
119
100
AcDbEntity
  8
0
 62
7
100
AcDbLine
 10
265.440000
 20
568.080000
 30
0.0
 11
265.600000
 21
578.560000
 31
0.0
  0
LINE
  5
11a
100
AcDbEntity
  8
0
 62
7
100
AcDbLine
 10
265.600000
 20
578.560000
 30
0.0
 11
268.800000
 21
575.200000
 31
0.0
  0
SPLINE
  5
11b
100
AcDbEntity
  8
0
 62
7
100
AcDbSpline
 70
8
 71
3
 72
8
 73
4
 74
0
 40
0
 40
0
 40
0
 40
0
 40
1
 40
1
 40
1
 40
1
 10
268.800000
 20
575.200000
 30
0.0
 10
271.280000
 20
572.560000
 30
0.0
 10
277.200000
 20
562.400000
 30
0.0
 10
283.360000
 20
550.000000
 30
0.0
  0
LINE
  5
11c
100
AcDbEntity
  8
0
 62
7
100
AcDbLine
 10
283.360000
 20
550.000000
 30
0.0
 11
284.320000
 21
548.160000
 31
0.0
  0
LINE
  5
11d
100
AcDbEntity
  8
0
 62
7
100
AcDbLine
 10
284.320000
 20
548.160000
 30
0.0
 11
299.280000
 21
548.320000
 31
0.0
  0
LINE
  5
11e
100
AcDbEntity
  8
0
 62
7
100
AcDbLine
 10
299.280000
 20
548.320000
 30
0.0
 11
314.160000
 21
548.480000
 31
0.0
  0
LINE
  5
11f
100
AcDbEntity
  8
0
 62
7
100
AcDbLine
 10
314.160000
 20
548.480000
 30
0.0
 11
316.320000
 21
553.040000
 31
0.0
  0
SPLINE
  5
120
100
AcDbEntity
  8
0
 62
7
100
AcDbSpline
 70
8
 71
3
 72
8
 73
4
 74
0
 40
0
 40
0
 40
0
 40
0
 40
1
 40
1
 40
1
 40
1
 10
316.320000
 20
553.040000
 30
0.0
 10
323.360000
 20
567.680000
 30
0.0
 10
329.680000
 20
577.680000
 30
0.0
 10
332.000000
 20
577.680000
 30
0.0
  0
SPLINE
  5
121
100
AcDbEntity
  8
0
 62
7
100
AcDbSpline
 70
8
 71
3
 72
8
 73
4
 74
0
 40
0
 40
0
 40
0
 40
0
 40
1
 40
1
 40
1
 40
1
 10
332.000000
 20
577.680000
 30
0.0
 10
332.560000
 20
577.680000
 30
0.0
 10
332.720000
 20
576.240000
 30
0.0
 10
332.400000
 20
574.560000
 30
0.0
  0
SPLINE
  5
122
100
AcDbEntity
  8
0
 62
7
100
AcDbSpline
 70
8
 71
3
 72
8
 73
4
 74
0
 40
0
 40
0
 40
0
 40
0
 40
1
 40
1
 40
1
 40
1
 10
332.400000
 20
574.560000
 30
0.0
 10
331.600000
 20
570.240000
 30
0.0
 10
335.200000
 20
536.800000
 30
0.0
 10
337.360000
 20
527.920000
 30
0.0
  0
SPLINE
  5
123
100
AcDbEntity
  8
0
 62
7
100
AcDbSpline
 70
8
 71
3
 72
8
 73
4
 74
0
 40
0
 40
0
 40
0
 40
0
 40
1
 40
1
 40
1
 40
1
 10
337.360000
 20
527.920000
 30
0.0
 10
339.760000
 20
518.400000
 30
0.0
 10
346.560000
 20
503.760000
 30
0.0
 10
351.840000
 20
496.960000
 30
0.0
  0
SPLINE
  5
124
100
AcDbEntity
  8
0
 62
7
100
AcDbSpline
 70
8
 71
3
 72
8
 73
4
 74
0
 40
0
 40
0
 40
0
 40
0
 40
1
 40
1
 40
1
 40
1
 10
351.840000
 20
496.960000
 30
0.0
 10
356.080000
 20
491.360000
 30
0.0
 10
363.520000
 20
485.680000
 30
0.0
 10
370.720000
 20
482.560000
 30
0.0
  0
SPLINE
  5
125
100
AcDbEntity
  8
0
 62
7
100
AcDbSpline
 70
8
 71
3
 72
8
 73
4
 74
0
 40
0
 40
0
 40
0
 40
0
 40
1
 40
1
 40
1
 40
1
 10
370.720000
 20
482.560000
 30
0.0
 10
374.960000
 20
480.720000
 30
0.0
 10
384.320000
 20
478.960000
 30
0.0
 10
389.680000
 20
478.960000
 30
0.0
  0
SPLINE
  5
126
100
AcDbEntity
  8
0
 62
7
100
AcDbSpline
 70
8
 71
3
 72
8
 73
4
 74
0
 40
0
 40
0
 40
0
 40
0
 40
1
 40
1
 40
1
 40
1
 10
389.680000
 20
478.960000
 30
0.0
 10
398.240000
 20
478.960000
 30
0.0
 10
416.080000
 20
488.720000
 30
0.0
 10
422.800000
 20
497.120000
 30
0.0
  0
SPLINE
  5
127
100
AcDbEntity
  8
0
 62
7
100
AcDbSpline
 70
8
 71
3
 72
8
 73
4
 74
0
 40
0
 40
0
 40
0
 40
0
 40
1
 40
1
 40
1
 40
1
 10
422.800000
 20
497.120000
 30
0.0
 10
430.080000
 20
506.080000
 30
0.0
 10
432.080000
 20
513.440000
 30
0.0
 10
431.040000
 20
527.760000
 30
0.0
  0
SPLINE
  5
128
100
AcDbEntity
  8
0
 62
7
100
AcDbSpline
 70
8
 71
3
 72
8
 73
4
 74
0
 40
0
 40
0
 40
0
 40
0
 40
1
 40
1
 40
1
 40
1
 10
431.040000
 20
527.760000
 30
0.0
 10
430.080000
 20
540.320000
 30
0.0
 10
428.320000
 20
546.560000
 30
0.0
 10
422.000000
 20
558.800000
 30
0.0
  0
SPLINE
  5
129
100
AcDbEntity
  8
0
 62
7
100
AcDbSpline
 70
8
 71
3
 72
8
 73
4
 74
0
 40
0
 40
0
 40
0
 40
0
 40
1
 40
1
 40
1
 40
1
 10
422.000000
 20
558.800000
 30
0.0
 10
420.480000
 20
561.760000
 30
0.0
 10
419.520000
 20
564.320000
 30
0.0
 10
419.840000
 20
564.640000
 30
0.0
  0
SPLINE
  5
12a
100
AcDbEntity
  8
0
 62
7
100
AcDbSpline
 70
8
 71
3
 72
8
 73
4
 74
0
 40
0
 40
0
 40
0
 40
0
 40
1
 40
1
 40
1
 40
1
 10
419.840000
 20
564.640000
 30
0.0
 10
420.800000
 20
565.520000
 30
0.0
 10
452.160000
 20
554.880000
 30
0.0
 10
463.200000
 20
549.920000
 30
0.0
  0
SPLINE
  5
12b
100
AcDbEntity
  8
0
 62
7
100
AcDbSpline
 70
8
 71
3
 72
8
 73
4
 74
0
 40
0
 40
0
 40
0
 40
0
 40
1
 40
1
 40
1
 40
1
 10
463.200000
 20
549.920000
 30
0.0
 10
465.120000
 20
549.040000
 30
0.0
 10
470.400000
 20
546.720000
 30
0.0
 10
475.040000
 20
544.720000
 30
0.0
  0
SPLINE
  5
12c
100
AcDbEntity
  8
0
 62
7
100
AcDbSpline
 70
8
 71
3
 72
8
 73
4
 74
0
 40
0
 40
0
 40
0
 40
0
 40
1
 40
1
 40
1
 40
1
 10
475.040000
 20
544.720000
 30
0.0
 10
509.600000
 20
529.600000
 30
0.0
 10
544.800000
 20
502.960000
 30
0.0
 10
560.160000
 20
480.080000
 30
0.0
  0
SPLINE
  5
12d
100
AcDbEntity
  8
0
 62
7
100
AcDbSpline
 70
8
 71
3
 72
8
 73
4
 74
0
 40
0
 40
0
 40
0
 40
0
 40
1
 40
1
 40
1
 40
1
 10
560.160000
 20
480.080000
 30
0.0
 10
572.880000
 20
461.200000
 30
0.0
 10
576.160000
 20
450.080000
 30
0.0
 10
576.160000
 20
426.720000
 30
0.0
  0
SPLINE
  5
12e
100
AcDbEntity
  8
0
 62
7
100
AcDbSpline
 70
8
 71
3
 72
8
 73
4
 74
0
 40
0
 40
0
 40
0
 40
0
 40
1
 40
1
 40
1
 40
1
 10
576.160000
 20
426.720000
 30
0.0
 10
576.160000
 20
402.240000
 30
0.0
 10
572.560000
 20
391.280000
 30
0.0
 10
558.240000
 20
371.120000
 30
0.0
  0
SPLINE
  5
12f
100
AcDbEntity
  8
0
 62
7
100
AcDbSpline
 70
8
 71
3
 72
8
 73
4
 74
0
 40
0
 40
0
 40
0
 40
0
 40
1
 40
1
 40
1
 40
1
 10
558.240000
 20
371.120000
 30
0.0
 10
553.360000
 20
364.320000
 30
0.0
 10
543.760000
 20
353.840000
 30
0.0
 10
541.280000
 20
352.720000
 30
0.0
  0
SPLINE
  5
130
100
AcDbEntity
  8
0
 62
7
100
AcDbSpline
 70
8
 71
3
 72
8
 73
4
 74
0
 40
0
 40
0
 40
0
 40
0
 40
1
 40
1
 40
1
 40
1
 10
541.280000
 20
352.720000
 30
0.0
 10
540.640000
 20
352.400000
 30
0.0
 10
538.720000
 20
350.880000
 30
0.0
 10
537.040000
 20
349.280000
 30
0.0
  0
SPLINE
  5
131
100
AcDbEntity
  8
0
 62
7
100
AcDbSpline
 70
8
 71
3
 72
8
 73
4
 74
0
 40
0
 40
0
 40
0
 40
0
 40
1
 40
1
 40
1
 40
1
 10
537.040000
 20
349.280000
 30
0.0
 10
528.640000
 20
341.680000
 30
0.0
 10
501.280000
 20
326.000000
 30
0.0
 10
487.280000
 20
320.880000
 30
0.0
  0
SPLINE
  5
132
100
AcDbEntity
  8
0
 62
7
100
AcDbSpline
 70
8
 71
3
 72
8
 73
4
 74
0
 40
0
 40
0
 40
0
 40
0
 40
1
 40
1
 40
1
 40
1
 10
487.280000
 20
320.880000
 30
0.0
 10
476.400000
 20
316.880000
 30
0.0
 10
467.040000
 20
313.840000
 30
0.0
 10
465.920000
 20
313.840000
 30
0.0
  0
SPLINE
  5
133
100
AcDbEntity
  8
0
 62
7
100
AcDbSpline
 70
8
 71
3
 72
8
 73
4
 74
0
 40
0
 40
0
 40
0
 40
0
 40
1
 40
1
 40
1
 40
1
 10
465.920000
 20
313.840000
 30
0.0
 10
465.280000
 20
313.840000
 30
0.0
 10
467.200000
 20
318.640000
 30
0.0
 10
470.240000
 20
324.480000
 30
0.0
  0
SPLINE
  5
134
100
AcDbEntity
  8
0
 62
7
100
AcDbSpline
 70
8
 71
3
 72
8
 73
4
 74
0
 40
0
 40
0
 40
0
 40
0
 40
1
 40
1
 40
1
 40
1
 10
470.240000
 20
324.480000
 30
0.0
 10
484.720000
 20
352.160000
 30
0.0
 10
481.520000
 20
371.600000
 30
0.0
 10
461.760000
 20
376.080000
 30
0.0
  0
SPLINE
  5
135
100
AcDbEntity
  8
0
 62
7
100
AcDbSpline
 70
8
 71
3
 72
8
 73
4
 74
0
 40
0
 40
0
 40
0
 40
0
 40
1
 40
1
 40
1
 40
1
 10
461.760000
 20
376.080000
 30
0.0
 10
455.280000
 20
377.600000
 30
0.0
 10
444.080000
 20
377.760000
 30
0.0
 10
437.040000
 20
376.560000
 30
0.0
  0
SPLINE
  5
136
100
AcDbEntity
  8
0
 62
7
100
AcDbSpline
 70
8
 71
3
 72
8
 73
4
 74
0
 40
0
 40
0
 40
0
 40
0
 40
1
 40
1
 40
1
 40
1
 10
437.040000
 20
376.560000
 30
0.0
 10
424.480000
 20
374.400000
 30
0.0
 10
409.040000
 20
365.840000
 30
0.0
 10
398.880000
 20
355.520000
 30
0.0
  0
LINE
  5
137
100
AcDbEntity
  8
0
 62
7
100
AcDbLine
 10
398.880000
 20
355.520000
 30
0.0
 11
396.640000
 21
353.280000
 31
0.0
  0
LINE
  5
138
100
AcDbEntity
  8
0
 62
7
100
AcDbLine
 10
396.640000
 20
353.280000
 30
0.0
 11
393.520000
 21
358.320000
 31
0.0
  0
SPLINE
  5
139
100
AcDbEntity
  8
0
 62
7
100
AcDbSpline
 70
8
 71
3
 72
8
 73
4
 74
0
 40
0
 40
0
 40
0
 40
0
 40
1
 40
1
 40
1
 40
1
 10
393.520000
 20
358.320000
 30
0.0
 10
387.440000
 20
368.320000
 30
0.0
 10
379.440000
 20
375.360000
 30
0.0
 10
372.480000
 20
376.960000
 30
0.0
  0
SPLINE
  5
13a
100
AcDbEntity
  8
0
 62
7
100
AcDbSpline
 70
8
 71
3
 72
8
 73
4
 74
0
 40
0
 40
0
 40
0
 40
0
 40
1
 40
1
 40
1
 40
1
 10
372.480000
 20
376.960000
 30
0.0
 10
368.160000
 20
377.920000
 30
0.0
 10
361.520000
 20
377.360000
 30
0.0
 10
356.880000
 20
375.520000
 30
0.0
  0
SPLINE
  5
13b
100
AcDbEntity
  8
0
 62
7
100
AcDbSpline
 70
8
 71
3
 72
8
 73
4
 74
0
 40
0
 40
0
 40
0
 40
0
 40
1
 40
1
 40
1
 40
1
 10
356.880000
 20
375.520000
 30
0.0
 10
350.800000
 20
373.200000
 30
0.0
 10
340.560000
 20
365.920000
 30
0.0
 10
334.960000
 20
360.080000
 30
0.0
  0
SPLINE
  5
13c
100
AcDbEntity
  8
0
 62
7
100
AcDbSpline
 70
8
 71
3
 72
8
 73
4
 74
0
 40
0
 40
0
 40
0
 40
0
 40
1
 40
1
 40
1
 40
1
 10
334.960000
 20
360.080000
 30
0.0
 10
325.120000
 20
349.840000
 30
0.0
 10
308.880000
 20
326.640000
 30
0.0
 10
302.000000
 20
312.960000
 30
0.0
  0
SPLINE
  5
13d
100
AcDbEntity
  8
0
 62
7
100
AcDbSpline
 70
8
 71
3
 72
8
 73
4
 74
0
 40
0
 40
0
 40
0
 40
0
 40
1
 40
1
 40
1
 40
1
 10
302.000000
 20
312.960000
 30
0.0
 10
300.080000
 20
309.200000
 30
0.0
 10
298.400000
 20
308.880000
 30
0.0
 10
297.040000
 20
311.920000
 30
0.0
  0
LINE
  5
13e
100
AcDbEntity
  8
0
 62
7
100
AcDbLine
 10
297.040000
 20
311.920000
 30
0.0
 11
297.040000
 21
311.920000
 31
0.0
  0
SPLINE
  5
13f
100
AcDbEntity
  8
0
 62
7
100
AcDbSpline
 70
8
 71
3
 72
8
 73
4
 74
0
 40
0
 40
0
 40
0
 40
0
 40
1
 40
1
 40
1
 40
1
 10
66.800000
 20
82.240000
 30
0.0
 10
70.080000
 20
81.280000
 30
0.0
 10
72.480000
 20
79.680000
 30
0.0
 10
74.080000
 20
77.440000
 30
0.0
  0
SPLINE
  5
140
100
AcDbEntity
  8
0
 62
7
100
AcDbSpline
 70
8
 71
3
 72
8
 73
4
 74
0
 40
0
 40
0
 40
0
 40
0
 40
1
 40
1
 40
1
 40
1
 10
74.080000
 20
77.440000
 30
0.0
 10
75.680000
 20
75.280000
 30
0.0
 10
76.480000
 20
72.720000
 30
0.0
 10
76.480000
 20
69.840000
 30
0.0
  0
SPLINE
  5
141
100
AcDbEntity
  8
0
 62
7
100
AcDbSpline
 70
8
 71
3
 72
8
 73
4
 74
0
 40
0
 40
0
 40
0
 40
0
 40
1
 40
1
 40
1
 40
1
 10
76.480000
 20
69.840000
 30
0.0
 10
76.480000
 20
66.960000
 30
0.0
 10
75.760000
 20
64.320000
 30
0.0
 10
74.320000
 20
61.920000
 30
0.0
  0
SPLINE
  5
142
100
AcDbEntity
  8
0
 62
7
100
AcDbSpline
 70
8
 71
3
 72
8
 73
4
 74
0
 40
0
 40
0
 40
0
 40
0
 40
1
 40
1
 40
1
 40
1
 10
74.320000
 20
61.920000
 30
0.0
 10
72.880000
 20
59.440000
 30
0.0
 10
70.800000
 20
57.680000
 30
0.0
 10
68.160000
 20
56.560000
 30
0.0
  0
SPLINE
  5
143
100
AcDbEntity
  8
0
 62
7
100
AcDbSpline
 70
8
 71
3
 72
8
 73
4
 74
0
 40
0
 40
0
 40
0
 40
0
 40
1
 40
1
 40
1
 40
1
 10
68.160000
 20
56.560000
 30
0.0
 10
65.440000
 20
55.440000
 30
0.0
 10
61.840000
 20
54.880000
 30
0.0
 10
57.280000
 20
54.880000
 30
0.0
  0
LINE
  5
144
100
AcDbEntity
  8
0
 62
7
100
AcDbLine
 10
57.280000
 20
54.880000
 30
0.0
 11
37.520000
 21
54.880000
 31
0.0
  0
LINE
  5
145
100
AcDbEntity
  8
0
 62
7
100
AcDbLine
 10
37.520000
 20
54.880000
 30
0.0
 11
37.520000
 21
106.400000
 31
0.0
  0
LINE
  5
146
100
AcDbEntity
  8
0
 62
7
100
AcDbLine
 10
37.520000
 20
106.400000
 30
0.0
 11
56.880000
 21
106.400000
 31
0.0
  0
SPLINE
  5
147
100
AcDbEntity
  8
0
 62
7
100
AcDbSpline
 70
8
 71
3
 72
8
 73
4
 74
0
 40
0
 40
0
 40
0
 40
0
 40
1
 40
1
 40
1
 40
1
 10
56.880000
 20
106.400000
 30
0.0
 10
63.120000
 20
106.400000
 30
0.0
 10
67.520000
 20
105.040000
 30
0.0
 10
70.080000
 20
102.320000
 30
0.0
  0
SPLINE
  5
148
100
AcDbEntity
  8
0
 62
7
100
AcDbSpline
 70
8
 71
3
 72
8
 73
4
 74
0
 40
0
 40
0
 40
0
 40
0
 40
1
 40
1
 40
1
 40
1
 10
70.080000
 20
102.320000
 30
0.0
 10
72.720000
 20
99.600000
 30
0.0
 10
74.000000
 20
96.560000
 30
0.0
 10
74.000000
 20
93.280000
 30
0.0
  0
SPLINE
  5
149
100
AcDbEntity
  8
0
 62
7
100
AcDbSpline
 70
8
 71
3
 72
8
 73
4
 74
0
 40
0
 40
0
 40
0
 40
0
 40
1
 40
1
 40
1
 40
1
 10
74.000000
 20
93.280000
 30
0.0
 10
74.000000
 20
90.960000
 30
0.0
 10
73.360000
 20
88.880000
 30
0.0
 10
72.160000
 20
87.040000
 30
0.0
  0
SPLINE
  5
14a
100
AcDbEntity
  8
0
 62
7
100
AcDbSpline
 70
8
 71
3
 72
8
 73
4
 74
0
 40
0
 40
0
 40
0
 40
0
 40
1
 40
1
 40
1
 40
1
 10
72.160000
 20
87.040000
 30
0.0
 10
71.040000
 20
85.120000
 30
0.0
 10
69.200000
 20
83.520000
 30
0.0
 10
66.800000
 20
82.240000
 30
0.0
  0
LINE
  5
14b
100
AcDbEntity
  8
0
 62
7
100
AcDbLine
 10
66.800000
 20
82.240000
 30
0.0
 11
66.800000
 21
82.240000
 31
0.0
  0
LINE
  5
14c
100
AcDbEntity
  8
0
 62
7
100
AcDbLine
 10
44.400000
 20
84.800000
 30
0.0
 11
55.520000
 21
84.800000
 31
0.0
  0
SPLINE
  5
14d
100
AcDbEntity
  8
0
 62
7
100
AcDbSpline
 70
8
 71
3
 72
8
 73
4
 74
0
 40
0
 40
0
 40
0
 40
0
 40
1
 40
1
 40
1
 40
1
 10
55.520000
 20
84.800000
 30
0.0
 10
57.840000
 20
84.800000
 30
0.0
 10
59.760000
 20
84.960000
 30
0.0
 10
61.360000
 20
85.200000
 30
0.0
  0
SPLINE
  5
14e
100
AcDbEntity
  8
0
 62
7
100
AcDbSpline
 70
8
 71
3
 72
8
 73
4
 74
0
 40
0
 40
0
 40
0
 40
0
 40
1
 40
1
 40
1
 40
1
 10
61.360000
 20
85.200000
 30
0.0
 10
62.880000
 20
85.440000
 30
0.0
 10
64.240000
 20
86.160000
 30
0.0
 10
65.440000
 20
87.200000
 30
0.0
  0
SPLINE
  5
14f
100
AcDbEntity
  8
0
 62
7
100
AcDbSpline
 70
8
 71
3
 72
8
 73
4
 74
0
 40
0
 40
0
 40
0
 40
0
 40
1
 40
1
 40
1
 40
1
 10
65.440000
 20
87.200000
 30
0.0
 10
66.640000
 20
88.320000
 30
0.0
 10
67.280000
 20
90.080000
 30
0.0
 10
67.280000
 20
92.400000
 30
0.0
  0
SPLINE
  5
150
100
AcDbEntity
  8
0
 62
7
100
AcDbSpline
 70
8
 71
3
 72
8
 73
4
 74
0
 40
0
 40
0
 40
0
 40
0
 40
1
 40
1
 40
1
 40
1
 10
67.280000
 20
92.400000
 30
0.0
 10
67.280000
 20
94.800000
 30
0.0
 10
66.640000
 20
96.640000
 30
0.0
 10
65.440000
 20
97.760000
 30
0.0
  0
SPLINE
  5
151
100
AcDbEntity
  8
0
 62
7
100
AcDbSpline
 70
8
 71
3
 72
8
 73
4
 74
0
 40
0
 40
0
 40
0
 40
0
 40
1
 40
1
 40
1
 40
1
 10
65.440000
 20
97.760000
 30
0.0
 10
64.240000
 20
98.960000
 30
0.0
 10
62.800000
 20
99.600000
 30
0.0
 10
61.120000
 20
99.920000
 30
0.0
  0
SPLINE
  5
152
100
AcDbEntity
  8
0
 62
7
100
AcDbSpline
 70
8
 71
3
 72
8
 73
4
 74
0
 40
0
 40
0
 40
0
 40
0
 40
1
 40
1
 40
1
 40
1
 10
61.120000
 20
99.920000
 30
0.0
 10
59.440000
 20
100.160000
 30
0.0
 10
57.280000
 20
100.240000
 30
0.0
 10
54.640000
 20
100.240000
 30
0.0
  0
LINE
  5
153
100
AcDbEntity
  8
0
 62
7
100
AcDbLine
 10
54.640000
 20
100.240000
 30
0.0
 11
44.400000
 21
100.240000
 31
0.0
  0
LINE
  5
154
100
AcDbEntity
  8
0
 62
7
100
AcDbLine
 10
44.400000
 20
100.240000
 30
0.0
 11
44.400000
 21
84.800000
 31
0.0
  0
LINE
  5
155
100
AcDbEntity
  8
0
 62
7
100
AcDbLine
 10
44.400000
 20
84.800000
 30
0.0
 11
44.400000
 21
84.800000
 31
0.0
  0
LINE
  5
156
100
AcDbEntity
  8
0
 62
7
100
AcDbLine
 10
44.400000
 20
60.960000
 30
0.0
 11
57.200000
 21
60.960000
 31
0.0
  0
SPLINE
  5
157
100
AcDbEntity
  8
0
 62
7
100
AcDbSpline
 70
8
 71
3
 72
8
 73
4
 74
0
 40
0
 40
0
 40
0
 40
0
 40
1
 40
1
 40
1
 40
1
 10
57.200000
 20
60.960000
 30
0.0
 10
61.760000
 20
60.960000
 30
0.0
 10
64.960000
 20
61.760000
 30
0.0
 10
66.800000
 20
63.360000
 30
0.0
  0
SPLINE
  5
158
100
AcDbEntity
  8
0
 62
7
100
AcDbSpline
 70
8
 71
3
 72
8
 73
4
 74
0
 40
0
 40
0
 40
0
 40
0
 40
1
 40
1
 40
1
 40
1
 10
66.800000
 20
63.360000
 30
0.0
 10
68.560000
 20
64.880000
 30
0.0
 10
69.440000
 20
67.040000
 30
0.0
 10
69.440000
 20
69.840000
 30
0.0
  0
SPLINE
  5
159
100
AcDbEntity
  8
0
 62
7
100
AcDbSpline
 70
8
 71
3
 72
8
 73
4
 74
0
 40
0
 40
0
 40
0
 40
0
 40
1
 40
1
 40
1
 40
1
 10
69.440000
 20
69.840000
 30
0.0
 10
69.440000
 20
72.640000
 30
0.0
 10
68.480000
 20
74.800000
 30
0.0
 10
66.560000
 20
76.320000
 30
0.0
  0
SPLINE
  5
15a
100
AcDbEntity
  8
0
 62
7
100
AcDbSpline
 70
8
 71
3
 72
8
 73
4
 74
0
 40
0
 40
0
 40
0
 40
0
 40
1
 40
1
 40
1
 40
1
 10
66.560000
 20
76.320000
 30
0.0
 10
64.720000
 20
77.920000
 30
0.0
 10
61.280000
 20
78.720000
 30
0.0
 10
56.320000
 20
78.720000
 30
0.0
  0
LINE
  5
15b
100
AcDbEntity
  8
0
 62
7
100
AcDbLine
 10
56.320000
 20
78.720000
 30
0.0
 11
44.400000
 21
78.720000
 31
0.0
  0
LINE
  5
15c
100
AcDbEntity
  8
0
 62
7
100
AcDbLine
 10
44.400000
 20
78.720000
 30
0.0
 11
44.400000
 21
60.960000
 31
0.0
  0
LINE
  5
15d
100
AcDbEntity
  8
0
 62
7
100
AcDbLine
 10
44.400000
 20
60.960000
 30
0.0
 11
44.400000
 21
60.960000
 31
0.0
  0
LINE
  5
15e
100
AcDbEntity
  8
0
 62
7
100
AcDbLine
 10
91.360000
 20
54.880000
 30
0.0
 11
85.040000
 21
54.880000
 31
0.0
  0
LINE
  5
15f
100
AcDbEntity
  8
0
 62
7
100
AcDbLine
 10
85.040000
 20
54.880000
 30
0.0
 11
85.040000
 21
92.160000
 31
0.0
  0
LINE
  5
160
100
AcDbEntity
  8
0
 62
7
100
AcDbLine
 10
85.040000
 20
92.160000
 30
0.0
 11
91.360000
 21
92.160000
 31
0.0
  0
LINE
  5
161
100
AcDbEntity
  8
0
 62
7
100
AcDbLine
 10
91.360000
 20
92.160000
 30
0.0
 11
91.360000
 21
54.880000
 31
0.0
  0
LINE
  5
162
100
AcDbEntity
  8
0
 62
7
100
AcDbLine
 10
91.360000
 20
54.880000
 30
0.0
 11
91.360000
 21
54.880000
 31
0.0
  0
LINE
  5
163
100
AcDbEntity
  8
0
 62
7
100
AcDbLine
 10
91.360000
 20
99.200000
 30
0.0
 11
85.040000
 21
99.200000
 31
0.0
  0
LINE
  5
164
100
AcDbEntity
  8
0
 62
7
100
AcDbLine
 10
85.040000
 20
99.200000
 30
0.0
 11
85.040000
 21
106.400000
 31
0.0
  0
LINE
  5
165
100
AcDbEntity
  8
0
 62
7
100
AcDbLine
 10
85.040000
 20
106.400000
 30
0.0
 11
91.360000
 21
106.400000
 31
0.0
  0
LINE
  5
166
100
AcDbEntity
  8
0
 62
7
100
AcDbLine
 10
91.360000
 20
106.400000
 30
0.0
 11
91.360000
 21
99.200000
 31
0.0
  0
LINE
  5
167
100
AcDbEntity
  8
0
 62
7
100
AcDbLine
 10
91.360000
 20
99.200000
 30
0.0
 11
91.360000
 21
99.200000
 31
0.0
  0
SPLINE
  5
168
100
AcDbEntity
  8
0
 62
7
100
AcDbSpline
 70
8
 71
3
 72
8
 73
4
 74
0
 40
0
 40
0
 40
0
 40
0
 40
1
 40
1
 40
1
 40
1
 10
121.840000
 20
81.680000
 30
0.0
 10
121.600000
 20
83.760000
 30
0.0
 10
120.720000
 20
85.280000
 30
0.0
 10
119.360000
 20
86.320000
 30
0.0
  0
SPLINE
  5
169
100
AcDbEntity
  8
0
 62
7
100
AcDbSpline
 70
8
 71
3
 72
8
 73
4
 74
0
 40
0
 40
0
 40
0
 40
0
 40
1
 40
1
 40
1
 40
1
 10
119.360000
 20
86.320000
 30
0.0
 10
118.000000
 20
87.360000
 30
0.0
 10
116.080000
 20
87.840000
 30
0.0
 10
113.680000
 20
87.840000
 30
0.0
  0
SPLINE
  5
16a
100
AcDbEntity
  8
0
 62
7
100
AcDbSpline
 70
8
 71
3
 72
8
 73
4
 74
0
 40
0
 40
0
 40
0
 40
0
 40
1
 40
1
 40
1
 40
1
 10
113.680000
 20
87.840000
 30
0.0
 10
111.280000
 20
87.840000
 30
0.0
 10
109.280000
 20
87.440000
 30
0.0
 10
107.840000
 20
86.640000
 30
0.0
  0
SPLINE
  5
16b
100
AcDbEntity
  8
0
 62
7
100
AcDbSpline
 70
8
 71
3
 72
8
 73
4
 74
0
 40
0
 40
0
 40
0
 40
0
 40
1
 40
1
 40
1
 40
1
 10
107.840000
 20
86.640000
 30
0.0
 10
106.320000
 20
85.760000
 30
0.0
 10
105.600000
 20
84.560000
 30
0.0
 10
105.600000
 20
83.040000
 30
0.0
  0
SPLINE
  5
16c
100
AcDbEntity
  8
0
 62
7
100
AcDbSpline
 70
8
 71
3
 72
8
 73
4
 74
0
 40
0
 40
0
 40
0
 40
0
 40
1
 40
1
 40
1
 40
1
 10
105.600000
 20
83.040000
 30
0.0
 10
105.600000
 20
81.520000
 30
0.0
 10
106.160000
 20
80.480000
 30
0.0
 10
107.360000
 20
79.840000
 30
0.0
  0
SPLINE
  5
16d
100
AcDbEntity
  8
0
 62
7
100
AcDbSpline
 70
8
 71
3
 72
8
 73
4
 74
0
 40
0
 40
0
 40
0
 40
0
 40
1
 40
1
 40
1
 40
1
 10
107.360000
 20
79.840000
 30
0.0
 10
108.560000
 20
79.200000
 30
0.0
 10
110.880000
 20
78.480000
 30
0.0
 10
114.400000
 20
77.520000
 30
0.0
  0
SPLINE
  5
16e
100
AcDbEntity
  8
0
 62
7
100
AcDbSpline
 70
8
 71
3
 72
8
 73
4
 74
0
 40
0
 40
0
 40
0
 40
0
 40
1
 40
1
 40
1
 40
1
 10
114.400000
 20
77.520000
 30
0.0
 10
118.320000
 20
76.560000
 30
0.0
 10
121.280000
 20
75.600000
 30
0.0
 10
123.200000
 20
74.880000
 30
0.0
  0
SPLINE
  5
16f
100
AcDbEntity
  8
0
 62
7
100
AcDbSpline
 70
8
 71
3
 72
8
 73
4
 74
0
 40
0
 40
0
 40
0
 40
0
 40
1
 40
1
 40
1
 40
1
 10
123.200000
 20
74.880000
 30
0.0
 10
125.200000
 20
74.080000
 30
0.0
 10
126.720000
 20
73.040000
 30
0.0
 10
127.760000
 20
71.600000
 30
0.0
  0
SPLINE
  5
170
100
AcDbEntity
  8
0
 62
7
100
AcDbSpline
 70
8
 71
3
 72
8
 73
4
 74
0
 40
0
 40
0
 40
0
 40
0
 40
1
 40
1
 40
1
 40
1
 10
127.760000
 20
71.600000
 30
0.0
 10
128.880000
 20
70.240000
 30
0.0
 10
129.440000
 20
68.240000
 30
0.0
 10
129.440000
 20
65.760000
 30
0.0
  0
SPLINE
  5
171
100
AcDbEntity
  8
0
 62
7
100
AcDbSpline
 70
8
 71
3
 72
8
 73
4
 74
0
 40
0
 40
0
 40
0
 40
0
 40
1
 40
1
 40
1
 40
1
 10
129.440000
 20
65.760000
 30
0.0
 10
129.440000
 20
62.480000
 30
0.0
 10
128.080000
 20
59.680000
 30
0.0
 10
125.360000
 20
57.360000
 30
0.0
  0
SPLINE
  5
172
100
AcDbEntity
  8
0
 62
7
100
AcDbSpline
 70
8
 71
3
 72
8
 73
4
 74
0
 40
0
 40
0
 40
0
 40
0
 40
1
 40
1
 40
1
 40
1
 10
125.360000
 20
57.360000
 30
0.0
 10
122.640000
 20
55.120000
 30
0.0
 10
118.960000
 20
54.000000
 30
0.0
 10
114.400000
 20
54.000000
 30
0.0
  0
SPLINE
  5
173
100
AcDbEntity
  8
0
 62
7
100
AcDbSpline
 70
8
 71
3
 72
8
 73
4
 74
0
 40
0
 40
0
 40
0
 40
0
 40
1
 40
1
 40
1
 40
1
 10
114.400000
 20
54.000000
 30
0.0
 10
109.680000
 20
54.000000
 30
0.0
 10
106.000000
 20
54.960000
 30
0.0
 10
103.360000
 20
56.960000
 30
0.0
  0
SPLINE
  5
174
100
AcDbEntity
  8
0
 62
7
100
AcDbSpline
 70
8
 71
3
 72
8
 73
4
 74
0
 40
0
 40
0
 40
0
 40
0
 40
1
 40
1
 40
1
 40
1
 10
103.360000
 20
56.960000
 30
0.0
 10
100.720000
 20
58.960000
 30
0.0
 10
99.040000
 20
62.000000
 30
0.0
 10
98.400000
 20
66.000000
 30
0.0
  0
LINE
  5
175
100
AcDbEntity
  8
0
 62
7
100
AcDbLine
 10
98.400000
 20
66.000000
 30
0.0
 11
104.720000
 21
66.960000
 31
0.0
  0
SPLINE
  5
176
100
AcDbEntity
  8
0
 62
7
100
AcDbSpline
 70
8
 71
3
 72
8
 73
4
 74
0
 40
0
 40
0
 40
0
 40
0
 40
1
 40
1
 40
1
 40
1
 10
104.720000
 20
66.960000
 30
0.0
 10
105.040000
 20
64.320000
 30
0.0
 10
106.000000
 20
62.400000
 30
0.0
 10
107.600000
 20
61.120000
 30
0.0
  0
SPLINE
  5
177
100
AcDbEntity
  8
0
 62
7
100
AcDbSpline
 70
8
 71
3
 72
8
 73
4
 74
0
 40
0
 40
0
 40
0
 40
0
 40
1
 40
1
 40
1
 40
1
 10
107.600000
 20
61.120000
 30
0.0
 10
109.200000
 20
59.840000
 30
0.0
 10
111.440000
 20
59.200000
 30
0.0
 10
114.400000
 20
59.200000
 30
0.0
  0
SPLINE
  5
178
100
AcDbEntity
  8
0
 62
7
100
AcDbSpline
 70
8
 71
3
 72
8
 73
4
 74
0
 40
0
 40
0
 40
0
 40
0
 40
1
 40
1
 40
1
 40
1
 10
114.400000
 20
59.200000
 30
0.0
 10
117.120000
 20
59.200000
 30
0.0
 10
119.280000
 20
59.760000
 30
0.0
 10
120.720000
 20
60.960000
 30
0.0
  0
SPLINE
  5
179
100
AcDbEntity
  8
0
 62
7
100
AcDbSpline
 70
8
 71
3
 72
8
 73
4
 74
0
 40
0
 40
0
 40
0
 40
0
 40
1
 40
1
 40
1
 40
1
 10
120.720000
 20
60.960000
 30
0.0
 10
122.240000
 20
62.080000
 30
0.0
 10
122.960000
 20
63.520000
 30
0.0
 10
122.960000
 20
65.120000
 30
0.0
  0
SPLINE
  5
17a
100
AcDbEntity
  8
0
 62
7
100
AcDbSpline
 70
8
 71
3
 72
8
 73
4
 74
0
 40
0
 40
0
 40
0
 40
0
 40
1
 40
1
 40
1
 40
1
 10
122.960000
 20
65.120000
 30
0.0
 10
122.960000
 20
66.320000
 30
0.0
 10
122.640000
 20
67.200000
 30
0.0
 10
121.920000
 20
67.840000
 30
0.0
  0
SPLINE
  5
17b
100
AcDbEntity
  8
0
 62
7
100
AcDbSpline
 70
8
 71
3
 72
8
 73
4
 74
0
 40
0
 40
0
 40
0
 40
0
 40
1
 40
1
 40
1
 40
1
 10
121.920000
 20
67.840000
 30
0.0
 10
121.280000
 20
68.560000
 30
0.0
 10
120.400000
 20
69.040000
 30
0.0
 10
119.360000
 20
69.360000
 30
0.0
  0
SPLINE
  5
17c
100
AcDbEntity
  8
0
 62
7
100
AcDbSpline
 70
8
 71
3
 72
8
 73
4
 74
0
 40
0
 40
0
 40
0
 40
0
 40
1
 40
1
 40
1
 40
1
 10
119.360000
 20
69.360000
 30
0.0
 10
118.320000
 20
69.760000
 30
0.0
 10
116.080000
 20
70.320000
 30
0.0
 10
112.480000
 20
71.200000
 30
0.0
  0
SPLINE
  5
17d
100
AcDbEntity
  8
0
 62
7
100
AcDbSpline
 70
8
 71
3
 72
8
 73
4
 74
0
 40
0
 40
0
 40
0
 40
0
 40
1
 40
1
 40
1
 40
1
 10
112.480000
 20
71.200000
 30
0.0
 10
107.200000
 20
72.480000
 30
0.0
 10
103.680000
 20
74.000000
 30
0.0
 10
102.000000
 20
75.840000
 30
0.0
  0
SPLINE
  5
17e
100
AcDbEntity
  8
0
 62
7
100
AcDbSpline
 70
8
 71
3
 72
8
 73
4
 74
0
 40
0
 40
0
 40
0
 40
0
 40
1
 40
1
 40
1
 40
1
 10
102.000000
 20
75.840000
 30
0.0
 10
100.320000
 20
77.600000
 30
0.0
 10
99.440000
 20
79.760000
 30
0.0
 10
99.440000
 20
82.240000
 30
0.0
  0
SPLINE
  5
17f
100
AcDbEntity
  8
0
 62
7
100
AcDbSpline
 70
8
 71
3
 72
8
 73
4
 74
0
 40
0
 40
0
 40
0
 40
0
 40
1
 40
1
 40
1
 40
1
 10
99.440000
 20
82.240000
 30
0.0
 10
99.440000
 20
85.360000
 30
0.0
 10
100.720000
 20
88.000000
 30
0.0
 10
103.200000
 20
90.000000
 30
0.0
  0
SPLINE
  5
180
100
AcDbEntity
  8
0
 62
7
100
AcDbSpline
 70
8
 71
3
 72
8
 73
4
 74
0
 40
0
 40
0
 40
0
 40
0
 40
1
 40
1
 40
1
 40
1
 10
103.200000
 20
90.000000
 30
0.0
 10
105.680000
 20
92.000000
 30
0.0
 10
109.040000
 20
93.040000
 30
0.0
 10
113.200000
 20
93.040000
 30
0.0
  0
SPLINE
  5
181
100
AcDbEntity
  8
0
 62
7
100
AcDbSpline
 70
8
 71
3
 72
8
 73
4
 74
0
 40
0
 40
0
 40
0
 40
0
 40
1
 40
1
 40
1
 40
1
 10
113.200000
 20
93.040000
 30
0.0
 10
117.680000
 20
93.040000
 30
0.0
 10
121.120000
 20
92.160000
 30
0.0
 10
123.600000
 20
90.400000
 30
0.0
  0
SPLINE
  5
182
100
AcDbEntity
  8
0
 62
7
100
AcDbSpline
 70
8
 71
3
 72
8
 73
4
 74
0
 40
0
 40
0
 40
0
 40
0
 40
1
 40
1
 40
1
 40
1
 10
123.600000
 20
90.400000
 30
0.0
 10
126.080000
 20
88.640000
 30
0.0
 10
127.520000
 20
86.000000
 30
0.0
 10
128.000000
 20
82.560000
 30
0.0
  0
LINE
  5
183
100
AcDbEntity
  8
0
 62
7
100
AcDbLine
 10
128.000000
 20
82.560000
 30
0.0
 11
121.840000
 21
81.680000
 31
0.0
  0
LINE
  5
184
100
AcDbEntity
  8
0
 62
7
100
AcDbLine
 10
121.840000
 20
81.680000
 30
0.0
 11
121.840000
 21
81.680000
 31
0.0
  0
SPLINE
  5
185
100
AcDbEntity
  8
0
 62
7
100
AcDbSpline
 70
8
 71
3
 72
8
 73
4
 74
0
 40
0
 40
0
 40
0
 40
0
 40
1
 40
1
 40
1
 40
1
 10
151.600000
 20
54.960000
 30
0.0
 10
149.680000
 20
54.560000
 30
0.0
 10
148.160000
 20
54.400000
 30
0.0
 10
146.880000
 20
54.400000
 30
0.0
  0
SPLINE
  5
186
100
AcDbEntity
  8
0
 62
7
100
AcDbSpline
 70
8
 71
3
 72
8
 73
4
 74
0
 40
0
 40
0
 40
0
 40
0
 40
1
 40
1
 40
1
 40
1
 10
146.880000
 20
54.400000
 30
0.0
 10
144.080000
 20
54.400000
 30
0.0
 10
142.080000
 20
54.880000
 30
0.0
 10
140.800000
 20
55.840000
 30
0.0
  0
SPLINE
  5
187
100
AcDbEntity
  8
0
 62
7
100
AcDbSpline
 70
8
 71
3
 72
8
 73
4
 74
0
 40
0
 40
0
 40
0
 40
0
 40
1
 40
1
 40
1
 40
1
 10
140.800000
 20
55.840000
 30
0.0
 10
139.520000
 20
56.800000
 30
0.0
 10
138.800000
 20
58.000000
 30
0.0
 10
138.480000
 20
59.520000
 30
0.0
  0
SPLINE
  5
188
100
AcDbEntity
  8
0
 62
7
100
AcDbSpline
 70
8
 71
3
 72
8
 73
4
 74
0
 40
0
 40
0
 40
0
 40
0
 40
1
 40
1
 40
1
 40
1
 10
138.480000
 20
59.520000
 30
0.0
 10
138.160000
 20
61.040000
 30
0.0
 10
138.080000
 20
63.120000
 30
0.0
 10
138.080000
 20
65.760000
 30
0.0
  0
LINE
  5
189
100
AcDbEntity
  8
0
 62
7
100
AcDbLine
 10
138.080000
 20
65.760000
 30
0.0
 11
138.080000
 21
87.280000
 31
0.0
  0
LINE
  5
18a
100
AcDbEntity
  8
0
 62
7
100
AcDbLine
 10
138.080000
 20
87.280000
 30
0.0
 11
133.440000
 21
87.280000
 31
0.0
  0
LINE
  5
18b
100
AcDbEntity
  8
0
 62
7
100
AcDbLine
 10
133.440000
 20
87.280000
 30
0.0
 11
133.440000
 21
92.160000
 31
0.0
  0
LINE
  5
18c
100
AcDbEntity
  8
0
 62
7
100
AcDbLine
 10
133.440000
 20
92.160000
 30
0.0
 11
138.080000
 21
92.160000
 31
0.0
  0
LINE
  5
18d
100
AcDbEntity
  8
0
 62
7
100
AcDbLine
 10
138.080000
 20
92.160000
 30
0.0
 11
138.080000
 21
101.440000
 31
0.0
  0
LINE
  5
18e
100
AcDbEntity
  8
0
 62
7
100
AcDbLine
 10
138.080000
 20
101.440000
 30
0.0
 11
144.400000
 21
105.280000
 31
0.0
  0
LINE
  5
18f
100
AcDbEntity
  8
0
 62
7
100
AcDbLine
 10
144.400000
 20
105.280000
 30
0.0
 11
144.400000
 21
92.160000
 31
0.0
  0
LINE
  5
190
100
AcDbEntity
  8
0
 62
7
100
AcDbLine
 10
144.400000
 20
92.160000
 30
0.0
 11
150.720000
 21
92.160000
 31
0.0
  0
LINE
  5
191
100
AcDbEntity
  8
0
 62
7
100
AcDbLine
 10
150.720000
 20
92.160000
 30
0.0
 11
150.720000
 21
87.280000
 31
0.0
  0
LINE
  5
192
100
AcDbEntity
  8
0
 62
7
100
AcDbLine
 10
150.720000
 20
87.280000
 30
0.0
 11
144.400000
 21
87.280000
 31
0.0
  0
LINE
  5
193
100
AcDbEntity
  8
0
 62
7
100
AcDbLine
 10
144.400000
 20
87.280000
 30
0.0
 11
144.400000
 21
65.440000
 31
0.0
  0
SPLINE
  5
194
100
AcDbEntity
  8
0
 62
7
100
AcDbSpline
 70
8
 71
3
 72
8
 73
4
 74
0
 40
0
 40
0
 40
0
 40
0
 40
1
 40
1
 40
1
 40
1
 10
144.400000
 20
65.440000
 30
0.0
 10
144.400000
 20
63.600000
 30
0.0
 10
144.560000
 20
62.240000
 30
0.0
 10
144.960000
 20
61.440000
 30
0.0
  0
SPLINE
  5
195
100
AcDbEntity
  8
0
 62
7
100
AcDbSpline
 70
8
 71
3
 72
8
 73
4
 74
0
 40
0
 40
0
 40
0
 40
0
 40
1
 40
1
 40
1
 40
1
 10
144.960000
 20
61.440000
 30
0.0
 10
145.360000
 20
60.640000
 30
0.0
 10
146.320000
 20
60.240000
 30
0.0
 10
147.920000
 20
60.240000
 30
0.0
  0
SPLINE
  5
196
100
AcDbEntity
  8
0
 62
7
100
AcDbSpline
 70
8
 71
3
 72
8
 73
4
 74
0
 40
0
 40
0
 40
0
 40
0
 40
1
 40
1
 40
1
 40
1
 10
147.920000
 20
60.240000
 30
0.0
 10
148.800000
 20
60.240000
 30
0.0
 10
149.760000
 20
60.400000
 30
0.0
 10
150.720000
 20
60.560000
 30
0.0
  0
LINE
  5
197
100
AcDbEntity
  8
0
 62
7
100
AcDbLine
 10
150.720000
 20
60.560000
 30
0.0
 11
151.600000
 21
54.960000
 31
0.0
  0
LINE
  5
198
100
AcDbEntity
  8
0
 62
7
100
AcDbLine
 10
151.600000
 20
54.960000
 30
0.0
 11
151.600000
 21
54.960000
 31
0.0
  0
SPLINE
  5
199
100
AcDbEntity
  8
0
 62
7
100
AcDbSpline
 70
8
 71
3
 72
8
 73
4
 74
0
 40
0
 40
0
 40
0
 40
0
 40
1
 40
1
 40
1
 40
1
 10
172.240000
 20
93.040000
 30
0.0
 10
177.280000
 20
93.040000
 30
0.0
 10
181.440000
 20
91.360000
 30
0.0
 10
184.800000
 20
88.080000
 30
0.0
  0
SPLINE
  5
19a
100
AcDbEntity
  8
0
 62
7
100
AcDbSpline
 70
8
 71
3
 72
8
 73
4
 74
0
 40
0
 40
0
 40
0
 40
0
 40
1
 40
1
 40
1
 40
1
 10
184.800000
 20
88.080000
 30
0.0
 10
188.080000
 20
84.800000
 30
0.0
 10
189.760000
 20
80.160000
 30
0.0
 10
189.760000
 20
74.080000
 30
0.0
  0
SPLINE
  5
19b
100
AcDbEntity
  8
0
 62
7
100
AcDbSpline
 70
8
 71
3
 72
8
 73
4
 74
0
 40
0
 40
0
 40
0
 40
0
 40
1
 40
1
 40
1
 40
1
 10
189.760000
 20
74.080000
 30
0.0
 10
189.760000
 20
66.720000
 30
0.0
 10
187.920000
 20
61.600000
 30
0.0
 10
184.320000
 20
58.560000
 30
0.0
  0
SPLINE
  5
19c
100
AcDbEntity
  8
0
 62
7
100
AcDbSpline
 70
8
 71
3
 72
8
 73
4
 74
0
 40
0
 40
0
 40
0
 40
0
 40
1
 40
1
 40
1
 40
1
 10
184.320000
 20
58.560000
 30
0.0
 10
180.800000
 20
55.520000
 30
0.0
 10
176.720000
 20
54.000000
 30
0.0
 10
172.240000
 20
54.000000
 30
0.0
  0
SPLINE
  5
19d
100
AcDbEntity
  8
0
 62
7
100
AcDbSpline
 70
8
 71
3
 72
8
 73
4
 74
0
 40
0
 40
0
 40
0
 40
0
 40
1
 40
1
 40
1
 40
1
 10
172.240000
 20
54.000000
 30
0.0
 10
167.520000
 20
54.000000
 30
0.0
 10
163.440000
 20
55.520000
 30
0.0
 10
159.920000
 20
58.640000
 30
0.0
  0
SPLINE
  5
19e
100
AcDbEntity
  8
0
 62
7
100
AcDbSpline
 70
8
 71
3
 72
8
 73
4
 74
0
 40
0
 40
0
 40
0
 40
0
 40
1
 40
1
 40
1
 40
1
 10
159.920000
 20
58.640000
 30
0.0
 10
156.480000
 20
61.760000
 30
0.0
 10
154.720000
 20
66.720000
 30
0.0
 10
154.720000
 20
73.520000
 30
0.0
  0
SPLINE
  5
19f
100
AcDbEntity
  8
0
 62
7
100
AcDbSpline
 70
8
 71
3
 72
8
 73
4
 74
0
 40
0
 40
0
 40
0
 40
0
 40
1
 40
1
 40
1
 40
1
 10
154.720000
 20
73.520000
 30
0.0
 10
154.720000
 20
80.080000
 30
0.0
 10
156.400000
 20
84.960000
 30
0.0
 10
159.760000
 20
88.160000
 30
0.0
  0
SPLINE
  5
1a0
100
AcDbEntity
  8
0
 62
7
100
AcDbSpline
 70
8
 71
3
 72
8
 73
4
 74
0
 40
0
 40
0
 40
0
 40
0
 40
1
 40
1
 40
1
 40
1
 10
159.760000
 20
88.160000
 30
0.0
 10
163.120000
 20
91.360000
 30
0.0
 10
167.280000
 20
93.040000
 30
0.0
 10
172.240000
 20
93.040000
 30
0.0
  0
LINE
  5
1a1
100
AcDbEntity
  8
0
 62
7
100
AcDbLine
 10
172.240000
 20
93.040000
 30
0.0
 11
172.240000
 21
93.040000
 31
0.0
  0
SPLINE
  5
1a2
100
AcDbEntity
  8
0
 62
7
100
AcDbSpline
 70
8
 71
3
 72
8
 73
4
 74
0
 40
0
 40
0
 40
0
 40
0
 40
1
 40
1
 40
1
 40
1
 10
172.240000
 20
59.200000
 30
0.0
 10
175.840000
 20
59.200000
 30
0.0
 10
178.560000
 20
60.480000
 30
0.0
 10
180.480000
 20
63.200000
 30
0.0
  0
SPLINE
  5
1a3
100
AcDbEntity
  8
0
 62
7
100
AcDbSpline
 70
8
 71
3
 72
8
 73
4
 74
0
 40
0
 40
0
 40
0
 40
0
 40
1
 40
1
 40
1
 40
1
 10
180.480000
 20
63.200000
 30
0.0
 10
182.320000
 20
65.840000
 30
0.0
 10
183.280000
 20
69.360000
 30
0.0
 10
183.280000
 20
73.760000
 30
0.0
  0
SPLINE
  5
1a4
100
AcDbEntity
  8
0
 62
7
100
AcDbSpline
 70
8
 71
3
 72
8
 73
4
 74
0
 40
0
 40
0
 40
0
 40
0
 40
1
 40
1
 40
1
 40
1
 10
183.280000
 20
73.760000
 30
0.0
 10
183.280000
 20
78.400000
 30
0.0
 10
182.240000
 20
81.920000
 30
0.0
 10
180.080000
 20
84.320000
 30
0.0
  0
SPLINE
  5
1a5
100
AcDbEntity
  8
0
 62
7
100
AcDbSpline
 70
8
 71
3
 72
8
 73
4
 74
0
 40
0
 40
0
 40
0
 40
0
 40
1
 40
1
 40
1
 40
1
 10
180.080000
 20
84.320000
 30
0.0
 10
178.000000
 20
86.640000
 30
0.0
 10
175.360000
 20
87.840000
 30
0.0
 10
172.240000
 20
87.840000
 30
0.0
  0
SPLINE
  5
1a6
100
AcDbEntity
  8
0
 62
7
100
AcDbSpline
 70
8
 71
3
 72
8
 73
4
 74
0
 40
0
 40
0
 40
0
 40
0
 40
1
 40
1
 40
1
 40
1
 10
172.240000
 20
87.840000
 30
0.0
 10
169.040000
 20
87.840000
 30
0.0
 10
166.400000
 20
86.640000
 30
0.0
 10
164.320000
 20
84.240000
 30
0.0
  0
SPLINE
  5
1a7
100
AcDbEntity
  8
0
 62
7
100
AcDbSpline
 70
8
 71
3
 72
8
 73
4
 74
0
 40
0
 40
0
 40
0
 40
0
 40
1
 40
1
 40
1
 40
1
 10
164.320000
 20
84.240000
 30
0.0
 10
162.240000
 20
81.840000
 30
0.0
 10
161.200000
 20
78.240000
 30
0.0
 10
161.200000
 20
73.520000
 30
0.0
  0
SPLINE
  5
1a8
100
AcDbEntity
  8
0
 62
7
100
AcDbSpline
 70
8
 71
3
 72
8
 73
4
 74
0
 40
0
 40
0
 40
0
 40
0
 40
1
 40
1
 40
1
 40
1
 10
161.200000
 20
73.520000
 30
0.0
 10
161.200000
 20
68.720000
 30
0.0
 10
162.240000
 20
65.200000
 30
0.0
 10
164.400000
 20
62.800000
 30
0.0
  0
SPLINE
  5
1a9
100
AcDbEntity
  8
0
 62
7
100
AcDbSpline
 70
8
 71
3
 72
8
 73
4
 74
0
 40
0
 40
0
 40
0
 40
0
 40
1
 40
1
 40
1
 40
1
 10
164.400000
 20
62.800000
 30
0.0
 10
166.480000
 20
60.400000
 30
0.0
 10
169.120000
 20
59.200000
 30
0.0
 10
172.240000
 20
59.200000
 30
0.0
  0
LINE
  5
1aa
100
AcDbEntity
  8
0
 62
7
100
AcDbLine
 10
172.240000
 20
59.200000
 30
0.0
 11
172.240000
 21
59.200000
 31
0.0
  0
LINE
  5
1ab
100
AcDbEntity
  8
0
 62
7
100
AcDbLine
 10
227.280000
 20
54.880000
 30
0.0
 11
221.680000
 21
54.880000
 31
0.0
  0
LINE
  5
1ac
100
AcDbEntity
  8
0
 62
7
100
AcDbLine
 10
221.680000
 20
54.880000
 30
0.0
 11
221.680000
 21
60.320000
 31
0.0
  0
LINE
  5
1ad
100
AcDbEntity
  8
0
 62
7
100
AcDbLine
 10
221.680000
 20
60.320000
 30
0.0
 11
221.520000
 21
60.320000
 31
0.0
  0
SPLINE
  5
1ae
100
AcDbEntity
  8
0
 62
7
100
AcDbSpline
 70
8
 71
3
 72
8
 73
4
 74
0
 40
0
 40
0
 40
0
 40
0
 40
1
 40
1
 40
1
 40
1
 10
221.520000
 20
60.320000
 30
0.0
 10
218.640000
 20
56.080000
 30
0.0
 10
214.720000
 20
54.000000
 30
0.0
 10
209.760000
 20
54.000000
 30
0.0
  0
SPLINE
  5
1af
100
AcDbEntity
  8
0
 62
7
100
AcDbSpline
 70
8
 71
3
 72
8
 73
4
 74
0
 40
0
 40
0
 40
0
 40
0
 40
1
 40
1
 40
1
 40
1
 10
209.760000
 20
54.000000
 30
0.0
 10
207.200000
 20
54.000000
 30
0.0
 10
204.800000
 20
54.560000
 30
0.0
 10
202.560000
 20
55.760000
 30
0.0
  0
SPLINE
  5
1b0
100
AcDbEntity
  8
0
 62
7
100
AcDbSpline
 70
8
 71
3
 72
8
 73
4
 74
0
 40
0
 40
0
 40
0
 40
0
 40
1
 40
1
 40
1
 40
1
 10
202.560000
 20
55.760000
 30
0.0
 10
200.320000
 20
56.960000
 30
0.0
 10
198.880000
 20
58.640000
 30
0.0
 10
198.160000
 20
60.800000
 30
0.0
  0
SPLINE
  5
1b1
100
AcDbEntity
  8
0
 62
7
100
AcDbSpline
 70
8
 71
3
 72
8
 73
4
 74
0
 40
0
 40
0
 40
0
 40
0
 40
1
 40
1
 40
1
 40
1
 10
198.160000
 20
60.800000
 30
0.0
 10
197.360000
 20
62.880000
 30
0.0
 10
197.040000
 20
65.680000
 30
0.0
 10
197.040000
 20
69.040000
 30
0.0
  0
LINE
  5
1b2
100
AcDbEntity
  8
0
 62
7
100
AcDbLine
 10
197.040000
 20
69.040000
 30
0.0
 11
197.040000
 21
92.160000
 31
0.0
  0
LINE
  5
1b3
100
AcDbEntity
  8
0
 62
7
100
AcDbLine
 10
197.040000
 20
92.160000
 30
0.0
 11
203.360000
 21
92.160000
 31
0.0
  0
LINE
  5
1b4
100
AcDbEntity
  8
0
 62
7
100
AcDbLine
 10
203.360000
 20
92.160000
 30
0.0
 11
203.360000
 21
71.520000
 31
0.0
  0
SPLINE
  5
1b5
100
AcDbEntity
  8
0
 62
7
100
AcDbSpline
 70
8
 71
3
 72
8
 73
4
 74
0
 40
0
 40
0
 40
0
 40
0
 40
1
 40
1
 40
1
 40
1
 10
203.360000
 20
71.520000
 30
0.0
 10
203.360000
 20
68.160000
 30
0.0
 10
203.520000
 20
65.840000
 30
0.0
 10
203.840000
 20
64.400000
 30
0.0
  0
SPLINE
  5
1b6
100
AcDbEntity
  8
0
 62
7
100
AcDbSpline
 70
8
 71
3
 72
8
 73
4
 74
0
 40
0
 40
0
 40
0
 40
0
 40
1
 40
1
 40
1
 40
1
 10
203.840000
 20
64.400000
 30
0.0
 10
204.160000
 20
62.960000
 30
0.0
 10
204.960000
 20
61.760000
 30
0.0
 10
206.320000
 20
60.880000
 30
0.0
  0
SPLINE
  5
1b7
100
AcDbEntity
  8
0
 62
7
100
AcDbSpline
 70
8
 71
3
 72
8
 73
4
 74
0
 40
0
 40
0
 40
0
 40
0
 40
1
 40
1
 40
1
 40
1
 10
206.320000
 20
60.880000
 30
0.0
 10
207.600000
 20
59.920000
 30
0.0
 10
209.200000
 20
59.440000
 30
0.0
 10
211.040000
 20
59.440000
 30
0.0
  0
SPLINE
  5
1b8
100
AcDbEntity
  8
0
 62
7
100
AcDbSpline
 70
8
 71
3
 72
8
 73
4
 74
0
 40
0
 40
0
 40
0
 40
0
 40
1
 40
1
 40
1
 40
1
 10
211.040000
 20
59.440000
 30
0.0
 10
213.440000
 20
59.440000
 30
0.0
 10
215.680000
 20
60.320000
 30
0.0
 10
217.840000
 20
61.920000
 30
0.0
  0
SPLINE
  5
1b9
100
AcDbEntity
  8
0
 62
7
100
AcDbSpline
 70
8
 71
3
 72
8
 73
4
 74
0
 40
0
 40
0
 40
0
 40
0
 40
1
 40
1
 40
1
 40
1
 10
217.840000
 20
61.920000
 30
0.0
 10
219.920000
 20
63.600000
 30
0.0
 10
220.960000
 20
67.040000
 30
0.0
 10
220.960000
 20
72.240000
 30
0.0
  0
LINE
  5
1ba
100
AcDbEntity
  8
0
 62
7
100
AcDbLine
 10
220.960000
 20
72.240000
 30
0.0
 11
220.960000
 21
92.160000
 31
0.0
  0
LINE
  5
1bb
100
AcDbEntity
  8
0
 62
7
100
AcDbLine
 10
220.960000
 20
92.160000
 30
0.0
 11
227.280000
 21
92.160000
 31
0.0
  0
LINE
  5
1bc
100
AcDbEntity
  8
0
 62
7
100
AcDbLine
 10
227.280000
 20
92.160000
 30
0.0
 11
227.280000
 21
54.880000
 31
0.0
  0
LINE
  5
1bd
100
AcDbEntity
  8
0
 62
7
100
AcDbLine
 10
227.280000
 20
54.880000
 30
0.0
 11
227.280000
 21
54.880000
 31
0.0
  0
LINE
  5
1be
100
AcDbEntity
  8
0
 62
7
100
AcDbLine
 10
243.440000
 20
54.880000
 30
0.0
 11
237.120000
 21
54.880000
 31
0.0
  0
LINE
  5
1bf
100
AcDbEntity
  8
0
 62
7
100
AcDbLine
 10
237.120000
 20
54.880000
 30
0.0
 11
237.120000
 21
92.160000
 31
0.0
  0
LINE
  5
1c0
100
AcDbEntity
  8
0
 62
7
100
AcDbLine
 10
237.120000
 20
92.160000
 30
0.0
 11
243.440000
 21
92.160000
 31
0.0
  0
LINE
  5
1c1
100
AcDbEntity
  8
0
 62
7
100
AcDbLine
 10
243.440000
 20
92.160000
 30
0.0
 11
243.440000
 21
54.880000
 31
0.0
  0
LINE
  5
1c2
100
AcDbEntity
  8
0
 62
7
100
AcDbLine
 10
243.440000
 20
54.880000
 30
0.0
 11
243.440000
 21
54.880000
 31
0.0
  0
LINE
  5
1c3
100
AcDbEntity
  8
0
 62
7
100
AcDbLine
 10
243.440000
 20
99.200000
 30
0.0
 11
237.120000
 21
99.200000
 31
0.0
  0
LINE
  5
1c4
100
AcDbEntity
  8
0
 62
7
100
AcDbLine
 10
237.120000
 20
99.200000
 30
0.0
 11
237.120000
 21
106.400000
 31
0.0
  0
LINE
  5
1c5
100
AcDbEntity
  8
0
 62
7
100
AcDbLine
 10
237.120000
 20
106.400000
 30
0.0
 11
243.440000
 21
106.400000
 31
0.0
  0
LINE
  5
1c6
100
AcDbEntity
  8
0
 62
7
100
AcDbLine
 10
243.440000
 20
106.400000
 30
0.0
 11
243.440000
 21
99.200000
 31
0.0
  0
LINE
  5
1c7
100
AcDbEntity
  8
0
 62
7
100
AcDbLine
 10
243.440000
 20
99.200000
 30
0.0
 11
243.440000
 21
99.200000
 31
0.0
  0
LINE
  5
1c8
100
AcDbEntity
  8
0
 62
7
100
AcDbLine
 10
259.440000
 20
54.880000
 30
0.0
 11
253.120000
 21
54.880000
 31
0.0
  0
LINE
  5
1c9
100
AcDbEntity
  8
0
 62
7
100
AcDbLine
 10
253.120000
 20
54.880000
 30
0.0
 11
253.120000
 21
106.400000
 31
0.0
  0
LINE
  5
1ca
100
AcDbEntity
  8
0
 62
7
100
AcDbLine
 10
253.120000
 20
106.400000
 30
0.0
 11
259.440000
 21
106.400000
 31
0.0
  0
LINE
  5
1cb
100
AcDbEntity
  8
0
 62
7
100
AcDbLine
 10
259.440000
 20
106.400000
 30
0.0
 11
259.440000
 21
54.880000
 31
0.0
  0
LINE
  5
1cc
100
AcDbEntity
  8
0
 62
7
100
AcDbLine
 10
259.440000
 20
54.880000
 30
0.0
 11
259.440000
 21
54.880000
 31
0.0
  0
LINE
  5
1cd
100
AcDbEntity
  8
0
 62
7
100
AcDbLine
 10
275.440000
 20
54.880000
 30
0.0
 11
269.120000
 21
54.880000
 31
0.0
  0
LINE
  5
1ce
100
AcDbEntity
  8
0
 62
7
100
AcDbLine
 10
269.120000
 20
54.880000
 30
0.0
 11
269.120000
 21
106.400000
 31
0.0
  0
LINE
  5
1cf
100
AcDbEntity
  8
0
 62
7
100
AcDbLine
 10
269.120000
 20
106.400000
 30
0.0
 11
275.440000
 21
106.400000
 31
0.0
  0
LINE
  5
1d0
100
AcDbEntity
  8
0
 62
7
100
AcDbLine
 10
275.440000
 20
106.400000
 30
0.0
 11
275.440000
 21
54.880000
 31
0.0
  0
LINE
  5
1d1
100
AcDbEntity
  8
0
 62
7
100
AcDbLine
 10
275.440000
 20
54.880000
 30
0.0
 11
275.440000
 21
54.880000
 31
0.0
  0
LINE
  5
1d2
100
AcDbEntity
  8
0
 62
7
100
AcDbLine
 10
317.520000
 20
71.920000
 30
0.0
 11
289.600000
 21
71.920000
 31
0.0
  0
SPLINE
  5
1d3
100
AcDbEntity
  8
0
 62
7
100
AcDbSpline
 70
8
 71
3
 72
8
 73
4
 74
0
 40
0
 40
0
 40
0
 40
0
 40
1
 40
1
 40
1
 40
1
 10
289.600000
 20
71.920000
 30
0.0
 10
289.840000
 20
67.760000
 30
0.0
 10
291.040000
 20
64.640000
 30
0.0
 10
293.120000
 20
62.480000
 30
0.0
  0
SPLINE
  5
1d4
100
AcDbEntity
  8
0
 62
7
100
AcDbSpline
 70
8
 71
3
 72
8
 73
4
 74
0
 40
0
 40
0
 40
0
 40
0
 40
1
 40
1
 40
1
 40
1
 10
293.120000
 20
62.480000
 30
0.0
 10
295.200000
 20
60.240000
 30
0.0
 10
297.840000
 20
59.200000
 30
0.0
 10
300.960000
 20
59.200000
 30
0.0
  0
SPLINE
  5
1d5
100
AcDbEntity
  8
0
 62
7
100
AcDbSpline
 70
8
 71
3
 72
8
 73
4
 74
0
 40
0
 40
0
 40
0
 40
0
 40
1
 40
1
 40
1
 40
1
 10
300.960000
 20
59.200000
 30
0.0
 10
303.360000
 20
59.200000
 30
0.0
 10
305.440000
 20
59.840000
 30
0.0
 10
307.040000
 20
61.120000
 30
0.0
  0
SPLINE
  5
1d6
100
AcDbEntity
  8
0
 62
7
100
AcDbSpline
 70
8
 71
3
 72
8
 73
4
 74
0
 40
0
 40
0
 40
0
 40
0
 40
1
 40
1
 40
1
 40
1
 10
307.040000
 20
61.120000
 30
0.0
 10
308.720000
 20
62.400000
 30
0.0
 10
309.920000
 20
64.320000
 30
0.0
 10
310.800000
 20
66.880000
 30
0.0
  0
LINE
  5
1d7
100
AcDbEntity
  8
0
 62
7
100
AcDbLine
 10
310.800000
 20
66.880000
 30
0.0
 11
317.280000
 21
66.080000
 31
0.0
  0
SPLINE
  5
1d8
100
AcDbEntity
  8
0
 62
7
100
AcDbSpline
 70
8
 71
3
 72
8
 73
4
 74
0
 40
0
 40
0
 40
0
 40
0
 40
1
 40
1
 40
1
 40
1
 10
317.280000
 20
66.080000
 30
0.0
 10
316.240000
 20
62.160000
 30
0.0
 10
314.320000
 20
59.200000
 30
0.0
 10
311.520000
 20
57.120000
 30
0.0
  0
SPLINE
  5
1d9
100
AcDbEntity
  8
0
 62
7
100
AcDbSpline
 70
8
 71
3
 72
8
 73
4
 74
0
 40
0
 40
0
 40
0
 40
0
 40
1
 40
1
 40
1
 40
1
 10
311.520000
 20
57.120000
 30
0.0
 10
308.720000
 20
55.040000
 30
0.0
 10
305.200000
 20
54.000000
 30
0.0
 10
300.960000
 20
54.000000
 30
0.0
  0
SPLINE
  5
1da
100
AcDbEntity
  8
0
 62
7
100
AcDbSpline
 70
8
 71
3
 72
8
 73
4
 74
0
 40
0
 40
0
 40
0
 40
0
 40
1
 40
1
 40
1
 40
1
 10
300.960000
 20
54.000000
 30
0.0
 10
295.360000
 20
54.000000
 30
0.0
 10
290.960000
 20
55.680000
 30
0.0
 10
287.840000
 20
59.120000
 30
0.0
  0
SPLINE
  5
1db
100
AcDbEntity
  8
0
 62
7
100
AcDbSpline
 70
8
 71
3
 72
8
 73
4
 74
0
 40
0
 40
0
 40
0
 40
0
 40
1
 40
1
 40
1
 40
1
 10
287.840000
 20
59.120000
 30
0.0
 10
284.720000
 20
62.560000
 30
0.0
 10
283.120000
 20
67.280000
 30
0.0
 10
283.120000
 20
73.200000
 30
0.0
  0
SPLINE
  5
1dc
100
AcDbEntity
  8
0
 62
7
100
AcDbSpline
 70
8
 71
3
 72
8
 73
4
 74
0
 40
0
 40
0
 40
0
 40
0
 40
1
 40
1
 40
1
 40
1
 10
283.120000
 20
73.200000
 30
0.0
 10
283.120000
 20
79.120000
 30
0.0
 10
284.640000
 20
83.840000
 30
0.0
 10
287.680000
 20
87.520000
 30
0.0
  0
SPLINE
  5
1dd
100
AcDbEntity
  8
0
 62
7
100
AcDbSpline
 70
8
 71
3
 72
8
 73
4
 74
0
 40
0
 40
0
 40
0
 40
0
 40
1
 40
1
 40
1
 40
1
 10
287.680000
 20
87.520000
 30
0.0
 10
290.720000
 20
91.200000
 30
0.0
 10
295.040000
 20
93.040000
 30
0.0
 10
300.640000
 20
93.040000
 30
0.0
  0
SPLINE
  5
1de
100
AcDbEntity
  8
0
 62
7
100
AcDbSpline
 70
8
 71
3
 72
8
 73
4
 74
0
 40
0
 40
0
 40
0
 40
0
 40
1
 40
1
 40
1
 40
1
 10
300.640000
 20
93.040000
 30
0.0
 10
303.360000
 20
93.040000
 30
0.0
 10
305.920000
 20
92.400000
 30
0.0
 10
308.480000
 20
91.200000
 30
0.0
  0
SPLINE
  5
1df
100
AcDbEntity
  8
0
 62
7
100
AcDbSpline
 70
8
 71
3
 72
8
 73
4
 74
0
 40
0
 40
0
 40
0
 40
0
 40
1
 40
1
 40
1
 40
1
 10
308.480000
 20
91.200000
 30
0.0
 10
310.960000
 20
90.000000
 30
0.0
 10
313.120000
 20
88.000000
 30
0.0
 10
314.880000
 20
85.120000
 30
0.0
  0
SPLINE
  5
1e0
100
AcDbEntity
  8
0
 62
7
100
AcDbSpline
 70
8
 71
3
 72
8
 73
4
 74
0
 40
0
 40
0
 40
0
 40
0
 40
1
 40
1
 40
1
 40
1
 10
314.880000
 20
85.120000
 30
0.0
 10
316.640000
 20
82.240000
 30
0.0
 10
317.520000
 20
77.840000
 30
0.0
 10
317.520000
 20
71.920000
 30
0.0
  0
LINE
  5
1e1
100
AcDbEntity
  8
0
 62
7
100
AcDbLine
 10
317.520000
 20
71.920000
 30
0.0
 11
317.520000
 21
71.920000
 31
0.0
  0
SPLINE
  5
1e2
100
AcDbEntity
  8
0
 62
7
100
AcDbSpline
 70
8
 71
3
 72
8
 73
4
 74
0
 40
0
 40
0
 40
0
 40
0
 40
1
 40
1
 40
1
 40
1
 10
311.040000
 20
77.120000
 30
0.0
 10
310.800000
 20
80.880000
 30
0.0
 10
309.600000
 20
83.680000
 30
0.0
 10
307.520000
 20
85.280000
 30
0.0
  0
SPLINE
  5
1e3
100
AcDbEntity
  8
0
 62
7
100
AcDbSpline
 70
8
 71
3
 72
8
 73
4
 74
0
 40
0
 40
0
 40
0
 40
0
 40
1
 40
1
 40
1
 40
1
 10
307.520000
 20
85.280000
 30
0.0
 10
305.360000
 20
86.960000
 30
0.0
 10
303.120000
 20
87.840000
 30
0.0
 10
300.640000
 20
87.840000
 30
0.0
  0
SPLINE
  5
1e4
100
AcDbEntity
  8
0
 62
7
100
AcDbSpline
 70
8
 71
3
 72
8
 73
4
 74
0
 40
0
 40
0
 40
0
 40
0
 40
1
 40
1
 40
1
 40
1
 10
300.640000
 20
87.840000
 30
0.0
 10
297.680000
 20
87.840000
 30
0.0
 10
295.200000
 20
86.800000
 30
0.0
 10
293.280000
 20
84.880000
 30
0.0
  0
SPLINE
  5
1e5
100
AcDbEntity
  8
0
 62
7
100
AcDbSpline
 70
8
 71
3
 72
8
 73
4
 74
0
 40
0
 40
0
 40
0
 40
0
 40
1
 40
1
 40
1
 40
1
 10
293.280000
 20
84.880000
 30
0.0
 10
291.360000
 20
82.880000
 30
0.0
 10
290.240000
 20
80.240000
 30
0.0
 10
289.920000
 20
77.120000
 30
0.0
  0
LINE
  5
1e6
100
AcDbEntity
  8
0
 62
7
100
AcDbLine
 10
289.920000
 20
77.120000
 30
0.0
 11
311.040000
 21
77.120000
 31
0.0
  0
LINE
  5
1e7
100
AcDbEntity
  8
0
 62
7
100
AcDbLine
 10
311.040000
 20
77.120000
 30
0.0
 11
311.040000
 21
77.120000
 31
0.0
  0
LINE
  5
1e8
100
AcDbEntity
  8
0
 62
7
100
AcDbLine
 10
333.920000
 20
54.880000
 30
0.0
 11
326.720000
 21
54.880000
 31
0.0
  0
LINE
  5
1e9
100
AcDbEntity
  8
0
 62
7
100
AcDbLine
 10
326.720000
 20
54.880000
 30
0.0
 11
326.720000
 21
62.080000
 31
0.0
  0
LINE
  5
1ea
100
AcDbEntity
  8
0
 62
7
100
AcDbLine
 10
326.720000
 20
62.080000
 30
0.0
 11
333.920000
 21
62.080000
 31
0.0
  0
LINE
  5
1eb
100
AcDbEntity
  8
0
 62
7
100
AcDbLine
 10
333.920000
 20
62.080000
 30
0.0
 11
333.920000
 21
54.880000
 31
0.0
  0
LINE
  5
1ec
100
AcDbEntity
  8
0
 62
7
100
AcDbLine
 10
333.920000
 20
54.880000
 30
0.0
 11
333.920000
 21
54.880000
 31
0.0
  0
LINE
  5
1ed
100
AcDbEntity
  8
0
 62
7
100
AcDbLine
 10
362.720000
 20
106.640000
 30
0.0
 11
361.760000
 21
101.120000
 31
0.0
  0
SPLINE
  5
1ee
100
AcDbEntity
  8
0
 62
7
100
AcDbSpline
 70
8
 71
3
 72
8
 73
4
 74
0
 40
0
 40
0
 40
0
 40
0
 40
1
 40
1
 40
1
 40
1
 10
361.760000
 20
101.120000
 30
0.0
 10
360.560000
 20
101.360000
 30
0.0
 10
359.280000
 20
101.440000
 30
0.0
 10
358.080000
 20
101.440000
 30
0.0
  0
SPLINE
  5
1ef
100
AcDbEntity
  8
0
 62
7
100
AcDbSpline
 70
8
 71
3
 72
8
 73
4
 74
0
 40
0
 40
0
 40
0
 40
0
 40
1
 40
1
 40
1
 40
1
 10
358.080000
 20
101.440000
 30
0.0
 10
356.560000
 20
101.440000
 30
0.0
 10
355.280000
 20
101.120000
 30
0.0
 10
354.320000
 20
100.480000
 30
0.0
  0
SPLINE
  5
1f0
100
AcDbEntity
  8
0
 62
7
100
AcDbSpline
 70
8
 71
3
 72
8
 73
4
 74
0
 40
0
 40
0
 40
0
 40
0
 40
1
 40
1
 40
1
 40
1
 10
354.320000
 20
100.480000
 30
0.0
 10
353.360000
 20
99.840000
 30
0.0
 10
352.880000
 20
98.240000
 30
0.0
 10
352.880000
 20
95.680000
 30
0.0
  0
LINE
  5
1f1
100
AcDbEntity
  8
0
 62
7
100
AcDbLine
 10
352.880000
 20
95.680000
 30
0.0
 11
352.880000
 21
92.160000
 31
0.0
  0
LINE
  5
1f2
100
AcDbEntity
  8
0
 62
7
100
AcDbLine
 10
352.880000
 20
92.160000
 30
0.0
 11
360.080000
 21
92.160000
 31
0.0
  0
LINE
  5
1f3
100
AcDbEntity
  8
0
 62
7
100
AcDbLine
 10
360.080000
 20
92.160000
 30
0.0
 11
360.080000
 21
87.280000
 31
0.0
  0
LINE
  5
1f4
100
AcDbEntity
  8
0
 62
7
100
AcDbLine
 10
360.080000
 20
87.280000
 30
0.0
 11
352.880000
 21
87.280000
 31
0.0
  0
LINE
  5
1f5
100
AcDbEntity
  8
0
 62
7
100
AcDbLine
 10
352.880000
 20
87.280000
 30
0.0
 11
352.880000
 21
54.880000
 31
0.0
  0
LINE
  5
1f6
100
AcDbEntity
  8
0
 62
7
100
AcDbLine
 10
352.880000
 20
54.880000
 30
0.0
 11
346.560000
 21
54.880000
 31
0.0
  0
LINE
  5
1f7
100
AcDbEntity
  8
0
 62
7
100
AcDbLine
 10
346.560000
 20
54.880000
 30
0.0
 11
346.560000
 21
87.280000
 31
0.0
  0
LINE
  5
1f8
100
AcDbEntity
  8
0
 62
7
100
AcDbLine
 10
346.560000
 20
87.280000
 30
0.0
 11
340.880000
 21
87.280000
 31
0.0
  0
LINE
  5
1f9
100
AcDbEntity
  8
0
 62
7
100
AcDbLine
 10
340.880000
 20
87.280000
 30
0.0
 11
340.880000
 21
92.160000
 31
0.0
  0
LINE
  5
1fa
100
AcDbEntity
  8
0
 62
7
100
AcDbLine
 10
340.880000
 20
92.160000
 30
0.0
 11
346.560000
 21
92.160000
 31
0.0
  0
LINE
  5
1fb
100
AcDbEntity
  8
0
 62
7
100
AcDbLine
 10
346.560000
 20
92.160000
 30
0.0
 11
346.560000
 21
96.240000
 31
0.0
  0
SPLINE
  5
1fc
100
AcDbEntity
  8
0
 62
7
100
AcDbSpline
 70
8
 71
3
 72
8
 73
4
 74
0
 40
0
 40
0
 40
0
 40
0
 40
1
 40
1
 40
1
 40
1
 10
346.560000
 20
96.240000
 30
0.0
 10
346.560000
 20
98.080000
 30
0.0
 10
346.720000
 20
99.760000
 30
0.0
 10
347.040000
 20
101.280000
 30
0.0
  0
SPLINE
  5
1fd
100
AcDbEntity
  8
0
 62
7
100
AcDbSpline
 70
8
 71
3
 72
8
 73
4
 74
0
 40
0
 40
0
 40
0
 40
0
 40
1
 40
1
 40
1
 40
1
 10
347.040000
 20
101.280000
 30
0.0
 10
347.440000
 20
102.800000
 30
0.0
 10
348.320000
 20
104.160000
 30
0.0
 10
349.840000
 20
105.440000
 30
0.0
  0
SPLINE
  5
1fe
100
AcDbEntity
  8
0
 62
7
100
AcDbSpline
 70
8
 71
3
 72
8
 73
4
 74
0
 40
0
 40
0
 40
0
 40
0
 40
1
 40
1
 40
1
 40
1
 10
349.840000
 20
105.440000
 30
0.0
 10
351.360000
 20
106.640000
 30
0.0
 10
353.680000
 20
107.280000
 30
0.0
 10
356.800000
 20
107.280000
 30
0.0
  0
SPLINE
  5
1ff
100
AcDbEntity
  8
0
 62
7
100
AcDbSpline
 70
8
 71
3
 72
8
 73
4
 74
0
 40
0
 40
0
 40
0
 40
0
 40
1
 40
1
 40
1
 40
1
 10
356.800000
 20
107.280000
 30
0.0
 10
358.720000
 20
107.280000
 30
0.0
 10
360.640000
 20
107.040000
 30
0.0
 10
362.720000
 20
106.640000
 30
0.0
  0
LINE
  5
200
100
AcDbEntity
  8
0
 62
7
100
AcDbLine
 10
362.720000
 20
106.640000
 30
0.0
 11
362.720000
 21
106.640000
 31
0.0
  0
LINE
  5
201
100
AcDbEntity
  8
0
 62
7
100
AcDbLine
 10
385.280000
 20
90.960000
 30
0.0
 11
383.120000
 21
85.200000
 31
0.0
  0
SPLINE
  5
202
100
AcDbEntity
  8
0
 62
7
100
AcDbSpline
 70
8
 71
3
 72
8
 73
4
 74
0
 40
0
 40
0
 40
0
 40
0
 40
1
 40
1
 40
1
 40
1
 10
383.120000
 20
85.200000
 30
0.0
 10
381.520000
 20
86.080000
 30
0.0
 10
380.000000
 20
86.560000
 30
0.0
 10
378.480000
 20
86.560000
 30
0.0
  0
SPLINE
  5
203
100
AcDbEntity
  8
0
 62
7
100
AcDbSpline
 70
8
 71
3
 72
8
 73
4
 74
0
 40
0
 40
0
 40
0
 40
0
 40
1
 40
1
 40
1
 40
1
 10
378.480000
 20
86.560000
 30
0.0
 10
376.160000
 20
86.560000
 30
0.0
 10
374.320000
 20
85.440000
 30
0.0
 10
373.120000
 20
83.360000
 30
0.0
  0
SPLINE
  5
204
100
AcDbEntity
  8
0
 62
7
100
AcDbSpline
 70
8
 71
3
 72
8
 73
4
 74
0
 40
0
 40
0
 40
0
 40
0
 40
1
 40
1
 40
1
 40
1
 10
373.120000
 20
83.360000
 30
0.0
 10
371.920000
 20
81.200000
 30
0.0
 10
371.280000
 20
78.240000
 30
0.0
 10
371.280000
 20
74.400000
 30
0.0
  0
LINE
  5
205
100
AcDbEntity
  8
0
 62
7
100
AcDbLine
 10
371.280000
 20
74.400000
 30
0.0
 11
371.280000
 21
54.880000
 31
0.0
  0
LINE
  5
206
100
AcDbEntity
  8
0
 62
7
100
AcDbLine
 10
371.280000
 20
54.880000
 30
0.0
 11
364.960000
 21
54.880000
 31
0.0
  0
LINE
  5
207
100
AcDbEntity
  8
0
 62
7
100
AcDbLine
 10
364.960000
 20
54.880000
 30
0.0
 11
364.960000
 21
92.160000
 31
0.0
  0
LINE
  5
208
100
AcDbEntity
  8
0
 62
7
100
AcDbLine
 10
364.960000
 20
92.160000
 30
0.0
 11
370.720000
 21
92.160000
 31
0.0
  0
LINE
  5
209
100
AcDbEntity
  8
0
 62
7
100
AcDbLine
 10
370.720000
 20
92.160000
 30
0.0
 11
370.720000
 21
86.560000
 31
0.0
  0
LINE
  5
20a
100
AcDbEntity
  8
0
 62
7
100
AcDbLine
 10
370.720000
 20
86.560000
 30
0.0
 11
370.880000
 21
86.560000
 31
0.0
  0
SPLINE
  5
20b
100
AcDbEntity
  8
0
 62
7
100
AcDbSpline
 70
8
 71
3
 72
8
 73
4
 74
0
 40
0
 40
0
 40
0
 40
0
 40
1
 40
1
 40
1
 40
1
 10
370.880000
 20
86.560000
 30
0.0
 10
372.880000
 20
90.880000
 30
0.0
 10
375.520000
 20
93.040000
 30
0.0
 10
378.800000
 20
93.040000
 30
0.0
  0
SPLINE
  5
20c
100
AcDbEntity
  8
0
 62
7
100
AcDbSpline
 70
8
 71
3
 72
8
 73
4
 74
0
 40
0
 40
0
 40
0
 40
0
 40
1
 40
1
 40
1
 40
1
 10
378.800000
 20
93.040000
 30
0.0
 10
380.960000
 20
93.040000
 30
0.0
 10
383.120000
 20
92.320000
 30
0.0
 10
385.280000
 20
90.960000
 30
0.0
  0
LINE
  5
20d
100
AcDbEntity
  8
0
 62
7
100
AcDbLine
 10
385.280000
 20
90.960000
 30
0.0
 11
385.280000
 21
90.960000
 31
0.0
  0
ENDSEC
  0
SECTION
  2
OBJECTS
  0
DICTIONARY
  5
C
330
0
100
AcDbDictionary
  3
ACAD_GROUP
350
D
  3
ACAD_MLINESTYLE
350
17
  0
DICTIONARY
  5
D
330
C
100
AcDbDictionary
  0
DICTIONARY
  5
1A
330
C
100
AcDbDictionary
  0
DICTIONARY
  5
17
330
C
100
AcDbDictionary
  3
STANDARD
350
18
  0
DICTIONARY
  5
19
330
C
100
AcDbDictionary
  0
ENDSEC
  0
EOF
