<?xml version="1.0" encoding="UTF-8" standalone="no"?>
<svg
   xmlns:dc="http://purl.org/dc/elements/1.1/"
   xmlns:cc="http://creativecommons.org/ns#"
   xmlns:rdf="http://www.w3.org/1999/02/22-rdf-syntax-ns#"
   xmlns:svg="http://www.w3.org/2000/svg"
   xmlns="http://www.w3.org/2000/svg"
   xmlns:sodipodi="http://sodipodi.sourceforge.net/DTD/sodipodi-0.dtd"
   xmlns:inkscape="http://www.inkscape.org/namespaces/inkscape"
   width="744.1"
   height="1052.4"
   version="1.1"
   id="svg31"
   sodipodi:docname="Superhero 13 (Bistouille.fr).svg"
   inkscape:version="0.92.2 (5c3e80d, 2017-08-06)">
  <metadata
     id="metadata35">
    <rdf:RDF>
      <cc:Work
         rdf:about="">
        <dc:format>image/svg+xml</dc:format>
        <dc:type
           rdf:resource="http://purl.org/dc/dcmitype/StillImage" />
      </cc:Work>
    </rdf:RDF>
  </metadata>
  <sodipodi:namedview
     pagecolor="#ffffff"
     bordercolor="#666666"
     borderopacity="1"
     objecttolerance="10"
     gridtolerance="10"
     guidetolerance="10"
     inkscape:pageopacity="0"
     inkscape:pageshadow="2"
     inkscape:window-width="756"
     inkscape:window-height="480"
     id="namedview33"
     showgrid="false"
     inkscape:zoom="0.22424933"
     inkscape:cx="372.04999"
     inkscape:cy="526.20001"
     inkscape:window-x="0"
     inkscape:window-y="0"
     inkscape:window-maximized="0"
     inkscape:current-layer="svg31" />
  <defs
     id="defs2" />
  <path
     id="0"
     stroke-width="0.9"
     stroke="#FF0000"
     stroke-opacity="1"
     fill="#000000"
     fill-opacity="1"
     fill-rule="evenodd"
     stroke-linecap="round"
     stroke-linejoin="round"
     d="M416.4,856.6 C415.3,839.4 413.9,769.6 411.9,645.8 410,528.1 411.6,428.8 416.2,383.1 418.2,362 422.2,327.7 423.1,323.8 425,314.7 428.6,285.5 428.8,276.4 429.1,265.9 429.2,265.4 433.4,260 435.7,256.9 439.5,250.1 441.9,244.8 445.5,236.8 446.3,233.8 446.7,225.5 446.7,225.5 447.2,215.7 447.2,215.7 447.2,215.7 439.5,208.9 439.5,208.9 430.9,201.4 414.7,189.5 408,185.9 404.4,184 403.3,183.8 400.7,184.9 398.2,186 397.8,186.6 398.4,189.7 398.7,191.6 401.2,196.7 403.9,201 406.7,205.3 410.1,210.9 411.7,213.3 411.7,213.3 414.5,217.8 414.5,217.8 414.5,217.8 412.6,227.1 412.6,227.1 409.8,240.3 402.4,268.1 397.5,284.1 391.2,304.6 381.5,332.2 380.5,332.2 380.1,332.2 379.4,329.6 379.1,326.4 378.7,323.3 378.1,320.2 377.7,319.6 377.3,319 372.8,318.5 367.8,318.5 357.9,318.5 357.4,318.8 357.2,325.2 357.2,327 356.7,329.5 356.2,330.7 353.5,336.9 323.9,237.2 323.2,219.6 323,216.2 323.8,214.1 326.6,210.4 331.6,203.8 338.7,190.8 338.7,188.2 338.7,186.9 337.5,185.5 335.8,184.8 332.1,183.3 327.1,185.9 310.7,198 288.9,213.9 287.1,217 290.3,231.9 291.9,239.7 298.9,254.5 305,263.1 306.9,265.8 307.5,268.6 307.8,277.9 308.1,284.2 309.1,294.3 310,300.5 318.3,352.7 321.8,390.8 323.7,448.8 325.9,517.7 323.7,763.2 320.1,849.2 320.1,849.2 319.2,870.9 319.2,870.9 319.2,870.9 319,854 319,854 315.7,559.9 310.8,409.1 303.1,355.5 300.1,335.5 294.7,310.7 289.2,292 288.2,288.8 282.8,270.4 277.1,251.2 277.1,251.2 266.7,216.2 266.7,216.2 266.7,216.2 271.4,207 271.4,207 275.6,198.7 276.5,197.7 280.3,196.5 296.7,191.7 329,171.8 326.5,168.2 325.1,166.1 317.1,165.6 305.7,166.9 290.5,168.6 276.1,172.5 265.4,177.7 254.3,183.2 225.2,201.5 209.4,212.9 195.9,222.8 192.2,227.2 194.1,231.8 196,236.2 202.1,241.8 211.6,247.9 223.1,255.2 225.3,256.3 231,257 235.6,257.6 235.6,257.6 236.5,263.4 237,266.6 238.7,275.4 240.2,283 248.1,321.2 252.4,358.9 254.8,412.2 257.2,463.9 255.7,613.5 252.7,625.7 252.2,627.8 251.4,605.2 251,574.3 249.3,440.7 237.7,342.4 217.5,290.3 213,278.8 208.3,271.7 199.1,262.4 190.4,253.7 169.3,236.3 165.2,234.4 161.7,232.9 161,229.5 163,224.9 164.8,220.8 176.7,206.2 178.2,206.2 178.8,206.2 180.7,205.3 182.4,204.2 185,202.5 205.2,191.4 259,162.1 262.3,160.3 265.8,159.8 276.2,159.2 283.3,158.9 293.1,157.9 297.9,157.1 302.7,156.2 310.2,155.2 314.6,154.8 322.5,154.1 325.4,152.3 322.7,149.9 318.9,146.5 286.8,143.2 264.8,144 251.9,144.4 248.4,144.9 241.5,147.4 237,149 230.7,151 227.5,151.8 224.3,152.7 219.3,154.8 216.3,156.5 209.7,160.3 206.8,160.4 203.8,156.7 202.6,155.1 198.5,152.4 194.7,150.6 187.9,147.4 187.9,147.4 187.5,142.1 186.7,131.7 191.6,99 197.2,76.6 202.1,56.8 208.9,46.4 222.7,37.6 232.4,31.4 250.2,22.8 250.2,24.4 250.2,24.6 246.4,27.4 241.7,30.6 221.9,44.2 215.6,52.2 210.6,70.1 207.7,80.5 206.5,100.9 207.6,120.7 208.8,139.7 209,140.1 221.1,137.9 232.9,135.8 251,131.5 256.3,129.4 262.5,127.1 266.4,127.3 286.5,131.5 317.6,138.1 322.2,138.9 323.2,138 324.3,136.9 318.8,132.5 307.8,125.7 294.9,117.8 294.1,117.5 274.9,116.1 274.9,116.1 257.1,114.7 257.1,114.7 257.1,114.7 255.8,110.6 255.8,110.6 254.8,107.5 254.8,105.7 255.7,103.6 256.4,102 260.4,93.1 264.6,83.6 276.3,57.3 278,54.6 286.5,49.1 294.7,43.8 308.1,37.1 309,37.9 309.3,38.2 307.3,39.9 304.6,41.7 301.8,43.5 295.4,48.7 290.2,53.3 281.2,61.3 280.8,61.8 278.4,70.1 273.7,86.2 271,100.2 272.2,102.2 273.6,104.5 280,105.5 292.7,105.5 300.5,105.5 301.4,105.8 304,108.5 308.9,113.7 331.2,128.9 334,128.9 334.8,128.9 335.2,127.6 335,125.9 334.7,123.5 335.8,122 341.3,117.4 345,114.4 348.5,111.9 349.1,111.9 349.7,111.9 348.3,114.6 346.2,117.9 341.5,125 341.4,125.9 344.6,130 347.5,133.8 349.8,133.9 353.3,130.4 356.8,127 358.5,127.1 362.5,131 366.8,135 369.2,135 373.8,131 378.2,127.1 379.8,127 383.6,130.4 387.4,133.9 389.2,133.8 392.3,129.9 395.3,125.9 394.8,123.6 389.4,116.3 384.7,109.9 386.6,110.4 396,118 401.1,122 402,123.4 401.7,125.9 401.4,128.3 401.8,129 403.2,128.7 406.4,128.1 430.3,111.5 432.3,108.6 434,105.9 434.5,105.8 448.3,105.3 460.2,104.9 462.7,104.5 464,102.9 464.8,101.8 465.3,100 465,98.8 460.5,78.9 456.8,65.1 455.1,62.1 452.8,58.1 447.6,53.4 435,44.2 430.7,41 427.4,38.2 427.7,38 428.8,36.9 444,44.9 451.2,50.3 457.5,55 459.4,57.3 462.8,64 468.3,74.7 481.9,106 481.9,107.8 481.9,108.6 480.9,110.6 479.8,112.2 477.9,115 477.3,115.2 467.5,115.7 447.7,116.6 442.8,117.7 432.7,123.2 423.1,128.5 413.2,135.7 413.2,137.4 413.2,139.1 417.7,138.5 434.6,134.7 455.8,130 467.7,127.8 471.8,127.8 473.7,127.8 479.2,129 484.1,130.4 500.9,135.3 505.6,136.4 514.9,137.9 520.7,138.9 524.7,139 525.4,138.4 528.5,135.6 530.4,103.5 528.5,86.5 525.3,58 519.7,48.4 496.4,31.8 491.6,28.4 488.2,25.4 488.8,25.2 490.1,24.8 500.2,29.5 509.5,34.8 523,42.5 534.2,56.7 538.2,71.1 543.6,90.7 550,136.1 548.5,144.5 548,147.6 547.1,148.4 542.5,150.2 539.6,151.3 535.5,153.9 533.5,155.9 528.9,160.4 525.3,160.6 520.4,156.8 518.4,155.3 513.7,153.2 510.1,152.1 506.4,151.1 499.7,148.9 495.3,147.2 487.2,144.2 486.9,144.2 462.7,144.3 444.4,144.3 435.6,144.8 427.7,146.2 408.8,149.6 407.2,153.2 424,155.2 429.9,155.9 439.7,157.1 445.8,158 451.9,158.9 460.5,159.6 465,159.6 474,159.6 472.2,158.9 495.5,172.1 503.1,176.4 520.2,185.8 533.7,193 560.2,207.3 566.5,212.1 572.1,222.5 575.8,229.4 575.6,232.7 571.3,234.6 567,236.4 545.5,254.2 536.4,263.4 525.3,274.7 521,282.1 515.1,301 507.8,324.1 502.7,349.3 496,395.3 494.5,405.6 490.6,447.1 488.9,471 487.3,493.3 485.7,534.9 484.6,585.4 483.5,632.4 482.9,627.2 480.7,553.1 477.5,446.2 483,348.6 495.8,284.3 497.8,274.6 499.3,265 499.3,263.1 499.3,258.8 501.1,257 505.2,257 509.4,257 517.9,252.8 528.2,245.6 542.4,235.8 545.8,228.7 539.2,222.4 528.2,211.9 481,181.6 465.4,175.1 448.5,168.1 417.2,163.6 411.5,167.3 409.5,168.7 409.6,169 413.2,172.6 418.4,178.1 433.9,187.2 448.6,193.5 448.6,193.5 461.1,198.9 461.1,198.9 461.1,198.9 465.5,207.6 465.5,207.6 469.7,215.9 469.8,216.4 468.4,221 467.6,223.6 463.6,237 459.4,250.7 442.5,305.8 435,338.5 431.3,372.9 424.7,433 419.7,606.4 417.5,846.5 417.5,846.5 417.3,872 417.3,872 417.3,872 416.4,856.6 416.4,856.6 Z " />
</svg>
