<?xml version="1.0" encoding="UTF-8" standalone="no"?>
<svg
   xmlns:dc="http://purl.org/dc/elements/1.1/"
   xmlns:cc="http://creativecommons.org/ns#"
   xmlns:rdf="http://www.w3.org/1999/02/22-rdf-syntax-ns#"
   xmlns:svg="http://www.w3.org/2000/svg"
   xmlns="http://www.w3.org/2000/svg"
   xmlns:sodipodi="http://sodipodi.sourceforge.net/DTD/sodipodi-0.dtd"
   xmlns:inkscape="http://www.inkscape.org/namespaces/inkscape"
   width="744.1"
   height="1052.4"
   version="1.1"
   id="svg31"
   sodipodi:docname="Superhero 1 (Bistouille.fr).svg"
   inkscape:version="0.92.2 (5c3e80d, 2017-08-06)">
  <metadata
     id="metadata35">
    <rdf:RDF>
      <cc:Work
         rdf:about="">
        <dc:format>image/svg+xml</dc:format>
        <dc:type
           rdf:resource="http://purl.org/dc/dcmitype/StillImage" />
      </cc:Work>
    </rdf:RDF>
  </metadata>
  <sodipodi:namedview
     pagecolor="#ffffff"
     bordercolor="#666666"
     borderopacity="1"
     objecttolerance="10"
     gridtolerance="10"
     guidetolerance="10"
     inkscape:pageopacity="0"
     inkscape:pageshadow="2"
     inkscape:window-width="756"
     inkscape:window-height="480"
     id="namedview33"
     showgrid="false"
     inkscape:zoom="0.22424933"
     inkscape:cx="372.04999"
     inkscape:cy="526.20001"
     inkscape:window-x="0"
     inkscape:window-y="0"
     inkscape:window-maximized="0"
     inkscape:current-layer="svg31" />
  <defs
     id="defs2" />
  <path
     id="0"
     stroke-width="0.9"
     stroke="#FF0000"
     stroke-opacity="1"
     fill="#F50000"
     fill-opacity="1"
     fill-rule="evenodd"
     stroke-linecap="round"
     stroke-linejoin="round"
     d="M429.8,843.3 C429.2,842.6 425.8,841.4 422.2,840.5 412.6,838.3 410,835.3 410,826.4 410,822.2 409.5,819.4 408.5,818.8 407.7,818.2 404,817 400.4,815.9 395,814.5 393.3,813.5 391.5,810.9 389.4,807.8 389.3,807 391.2,791.8 393.1,776.6 393,775.1 390.8,759.4 389.5,750.3 388.1,739.6 387.6,735.6 386.7,726.3 383.7,714.6 381.3,710.7 378.4,705.8 373.3,692.9 370.7,683.4 367.4,671.7 368.1,672.7 363.1,673.3 360.6,673.6 355.9,674.2 352.5,674.6 343.2,675.9 324.6,675.8 323.1,674.5 322.4,673.8 321.2,669.1 320.5,664 316.9,639.1 308.8,609.8 296.9,578.2 294.7,572.4 283.2,548.1 281.5,545.8 280.9,545 279.9,544.5 279.3,544.7 278.7,545 275.1,552.1 271.4,560.4 262.1,581.1 261.5,582.5 259.8,588.9 257.5,597.8 251.7,614.5 248.3,621.9 245.4,628.2 245.1,630.3 244.8,644.8 244.3,667.4 241.9,680.3 233.3,705.2 224.7,730.1 222,747.2 221.9,777.6 221.9,777.6 221.8,800.4 221.8,800.4 221.8,800.4 218.2,804 218.2,804 215.7,806.5 213.2,807.9 210.2,808.5 206.1,809.3 205.6,809.8 203.9,814.3 202.9,817 201.7,820.9 201.2,823 199.1,832.4 179.1,840 168.8,835.2 164.6,833.2 159.9,828.8 158.1,825 155.2,818.7 157.6,813.6 177.9,783.6 181.9,777.7 185.9,771.4 186.8,769.6 189.9,763.5 193.4,744.4 193.4,733.1 193.4,727.2 194.2,714.6 195.2,705.2 196.2,695.7 197,679.9 197,670 197.1,648 198.5,640.6 206.7,620.6 213,605.4 215.4,592.3 214.6,577.9 214.3,570.8 213.7,564.5 213.4,563.9 213.1,563.3 212.3,556.2 211.5,548.2 209.7,527.2 213,495.7 219.3,474 221.5,466.3 228.3,445.1 229.8,441.1 230.5,439.3 231.5,435.8 232.1,433.4 232.7,430.9 234.3,425.3 235.7,420.8 238.2,412.7 238.7,410.6 242.4,395.5 248.5,369.8 252,341.5 251,324.3 249.9,303.8 248.4,296.4 245.5,297.7 241.2,299.5 227.3,321.8 225.3,329.9 222.6,340.8 220.3,347.6 218.2,350.4 217.1,351.9 214.1,356.7 211.6,361 207.6,367.9 199.2,377.9 187.3,389.7 185.3,391.6 183.7,393.5 183.7,393.8 183.7,394.1 182,396.1 179.9,398.2 174.5,403.8 164.6,418.9 163.6,423.1 163.1,425.6 163.4,427.4 164.7,429.1 168.8,434.5 170.4,440.3 170.3,450.5 170.3,461.6 169,464.3 164.5,463.3 162.7,462.9 161.1,463.4 158.7,465.4 154.8,468.5 153.9,468.5 146.1,466.2 135,462.8 133.4,457.8 138.2,440.5 139.9,434.1 142.2,425.7 143.2,421.6 145.6,412.5 147,407.8 149.2,402.3 162.9,367.8 171.6,346.7 176.1,337.6 177.2,335.5 181.4,328.7 185.6,322.5 193.5,310.8 194.8,307.7 199.9,289.1 205.3,269.1 206.5,263.5 207.9,252.7 209.8,237.2 212.7,222.9 214.7,217.9 220.2,204.9 227.8,197.7 237.9,195.9 240.4,195.4 244.5,194.7 247.1,194.2 249.7,193.8 256.1,193.2 261.4,193 271.6,192.7 275,191.6 285,185.9 294,180.8 295.5,178.3 294.8,169.2 294.2,161.8 291.5,152.9 288.9,149.5 288.3,148.7 287.8,147.6 287.8,147 287.8,146.5 286.1,144.1 284,141.8 279.2,136.6 274.5,125.7 274.5,120.1 274.5,117.8 273.9,114.5 273.2,112.8 269.1,102.8 269.7,94.4 275,86.7 278.9,81.1 289.9,71.8 295.9,69 314.5,60.2 317.3,60 327.3,66.6 331.5,69.3 333.4,69.9 337.2,69.9 343.1,69.9 344.9,71.3 348.9,78.8 353.2,86.9 353.8,92.2 351.5,102.6 350.5,107.5 349.3,117.9 349,125.7 348.1,144.7 346.7,154.4 344.1,159.6 340.9,165.9 342,167.8 354.1,176.2 359.9,180.3 369,187 374.2,191.1 381.8,197.1 384.8,198.8 388.8,199.6 395.9,200.9 402.4,203.4 410.4,207.8 415.4,210.5 419.5,212 424.7,212.8 439.5,215.3 450.3,221.4 457,231.2 462.4,239.1 464.2,246.5 465.1,264.7 465.5,273.4 466.4,283.2 467.1,286.5 472,310 477.2,322.4 488.5,338 494.1,345.6 497.2,348.7 504.7,354.1 509.8,357.7 514.6,360.7 515.4,360.7 517.3,360.7 530.3,368.3 540.8,375.5 551,382.4 563,392.1 569.1,398.3 571.7,401 575.9,405.1 578.4,407.5 602.2,429.8 607.5,434.2 634.4,454.2 656,470.3 664.2,478.9 669.5,490.7 673.1,498.8 676,509.4 677.1,519.2 677.5,523.2 678.4,526.6 678.9,526.8 679.5,527.1 679.9,536.4 679.9,547.6 679.7,574.7 680.5,573.8 655.2,579.4 639,582.9 629,584 611.6,584.1 594.9,584.2 587,583.3 575.3,580.1 569.9,578.6 546.4,578.9 537.1,580.5 518.2,583.9 504,588.6 485.1,597.8 472.3,604 461.4,611.6 449.1,622.7 436.9,633.7 417.3,649.8 416,649.8 414.2,649.8 413.7,654.4 414.9,659.9 415.7,663.1 416.2,673.2 416.2,682.4 416.2,691.8 416.8,700.6 417.5,702.6 418.2,704.5 419.2,717.4 419.7,731.3 420.6,755.4 422.2,767.3 426,778.5 426.8,780.6 432.1,789.7 438,798.7 450.5,818 453.6,824.1 453.6,829.9 453.6,833.5 453,834.7 449.9,837.2 447.9,838.8 444.4,840.6 442.2,841.1 439.9,841.6 437.8,842.6 437.4,843.3 436.6,844.9 431,844.9 429.8,843.3 Z " />
</svg>
