  0
SECTION
  2
HEADER
  9
$ACADVER
  1
AC1014
  9
$HANDSEED
  5
FFFF
  9
$MEASUREMENT
 70
     1
  0
ENDSEC
  0
SECTION
  2
TABLES
  0
TABLE
  2
VPORT
  5
8
330
0
100
AcDbSymbolTable
 70
     4
  0
VPORT
  5
2E
330
8
100
AcDbSymbolTableRecord
100
AcDbViewportTableRecord
  2
*ACTIVE
 70
     0
 10
0.0
 20
0.0
 11
1.0
 21
1.0
 12
210.0
 22
148.5
 13
0.0
 23
0.0
 14
10.0
 24
10.0
 15
10.0
 25
10.0
 16
0.0
 26
0.0
 36
1.0
 17
0.0
 27
0.0
 37
0.0
 40
341.0
 41
1.24
 42
50.0
 43
0.0
 44
0.0
 50
0.0
 51
0.0
 71
     0
 72
   100
 73
     1
 74
     3
 75
     0
 76
     0
 77
     0
 78
     0
  0
ENDTAB
  0
TABLE
  2
LTYPE
  5
5
330
0
100
AcDbSymbolTable
 70
     1
  0
LTYPE
  5
14
330
5
100
AcDbSymbolTableRecord
100
AcDbLinetypeTableRecord
  2
BYBLOCK
 70
     0
  3

 72
    65
 73
     0
 40
0.0
  0
LTYPE
  5
15
330
5
100
AcDbSymbolTableRecord
100
AcDbLinetypeTableRecord
  2
BYLAYER
 70
     0
  3

 72
    65
 73
     0
 40
0.0
  0
LTYPE
  5
16
330
5
100
AcDbSymbolTableRecord
100
AcDbLinetypeTableRecord
  2
CONTINUOUS
 70
     0
  3
Solid line
 72
    65
 73
     0
 40
0.0
  0
ENDTAB
  0
TABLE
  2
LAYER
  5
2
100
AcDbSymbolTable
 70
1
  0
LAYER
  5
50
100
AcDbSymbolTableRecord
100
AcDbLayerTableRecord
  2
0
 70
0
  6
CONTINUOUS
  0
ENDTAB
  0
TABLE
  2
STYLE
  5
3
330
0
100
AcDbSymbolTable
 70
     1
  0
STYLE
  5
11
330
3
100
AcDbSymbolTableRecord
100
AcDbTextStyleTableRecord
  2
STANDARD
 70
     0
 40
0.0
 41
1.0
 50
0.0
 71
     0
 42
2.5
  3
txt
  4

  0
ENDTAB
  0
TABLE
  2
VIEW
  5
6
330
0
100
AcDbSymbolTable
 70
     0
  0
ENDTAB
  0
TABLE
  2
UCS
  5
7
330
0
100
AcDbSymbolTable
 70
     0
  0
ENDTAB
  0
TABLE
  2
APPID
  5
9
330
0
100
AcDbSymbolTable
 70
     2
  0
APPID
  5
12
330
9
100
AcDbSymbolTableRecord
100
AcDbRegAppTableRecord
  2
ACAD
 70
     0
  0
ENDTAB
  0
TABLE
  2
DIMSTYLE
  5
A
330
0
100
AcDbSymbolTable
 70
     1
  0
DIMSTYLE
105
27
330
A
100
AcDbSymbolTableRecord
100
AcDbDimStyleTableRecord
  2
ISO-25
 70
     0
  3

  4

  5

  6

  7

 40
1.0
 41
2.5
 42
0.625
 43
3.75
 44
1.25
 45
0.0
 46
0.0
 47
0.0
 48
0.0
140
2.5
141
2.5
142
0.0
143
0.03937007874016
144
1.0
145
0.0
146
1.0
147
0.625
 71
     0
 72
     0
 73
     0
 74
     0
 75
     0
 76
     0
 77
     1
 78
     8
170
     0
171
     3
172
     1
173
     0
174
     0
175
     0
176
     0
177
     0
178
     0
270
     2
271
     2
272
     2
273
     2
274
     3
340
11
275
     0
280
     0
281
     0
282
     0
283
     0
284
     8
285
     0
286
     0
287
     3
288
     0
  0
ENDTAB
  0
TABLE
  2
BLOCK_RECORD
  5
1
330
0
100
AcDbSymbolTable
 70
     1
  0
BLOCK_RECORD
  5
1F
330
1
100
AcDbSymbolTableRecord
100
AcDbBlockTableRecord
  2
*MODEL_SPACE
  0
BLOCK_RECORD
  5
1B
330
1
100
AcDbSymbolTableRecord
100
AcDbBlockTableRecord
  2
*PAPER_SPACE
  0
ENDTAB
  0
ENDSEC
  0
SECTION
  2
BLOCKS
  0
BLOCK
  5
20
330
1F
100
AcDbEntity
  8
0
100
AcDbBlockBegin
  2
*MODEL_SPACE
 70
     0
 10
0.0
 20
0.0
 30
0.0
  3
*MODEL_SPACE
  1

  0
ENDBLK
  5
21
330
1F
100
AcDbEntity
  8
0
100
AcDbBlockEnd
  0
BLOCK
  5
1C
330
1B
100
AcDbEntity
 67
     1
  8
0
100
AcDbBlockBegin
  2
*PAPER_SPACE
  1

  0
ENDBLK
  5
1D
330
1B
100
AcDbEntity
 67
     1
  8
0
100
AcDbBlockEnd
  0
ENDSEC
  0
SECTION
  2
ENTITIES
  0
SPLINE
  5
100
100
AcDbEntity
  8
0
 62
7
100
AcDbSpline
 70
8
 71
3
 72
8
 73
4
 74
0
 40
0
 40
0
 40
0
 40
0
 40
1
 40
1
 40
1
 40
1
 10
143.280000
 20
172.160000
 30
0.0
 10
142.320000
 20
174.160000
 30
0.0
 10
142.640000
 20
182.400000
 30
0.0
 10
143.760000
 20
187.440000
 30
0.0
  0
SPLINE
  5
101
100
AcDbEntity
  8
0
 62
7
100
AcDbSpline
 70
8
 71
3
 72
8
 73
4
 74
0
 40
0
 40
0
 40
0
 40
0
 40
1
 40
1
 40
1
 40
1
 10
143.760000
 20
187.440000
 30
0.0
 10
145.600000
 20
195.200000
 30
0.0
 10
148.400000
 20
201.440000
 30
0.0
 10
152.240000
 20
206.160000
 30
0.0
  0
SPLINE
  5
102
100
AcDbEntity
  8
0
 62
7
100
AcDbSpline
 70
8
 71
3
 72
8
 73
4
 74
0
 40
0
 40
0
 40
0
 40
0
 40
1
 40
1
 40
1
 40
1
 10
152.240000
 20
206.160000
 30
0.0
 10
157.040000
 20
212.000000
 30
0.0
 10
160.880000
 20
215.200000
 30
0.0
 10
169.680000
 20
220.400000
 30
0.0
  0
SPLINE
  5
103
100
AcDbEntity
  8
0
 62
7
100
AcDbSpline
 70
8
 71
3
 72
8
 73
4
 74
0
 40
0
 40
0
 40
0
 40
0
 40
1
 40
1
 40
1
 40
1
 10
169.680000
 20
220.400000
 30
0.0
 10
176.080000
 20
224.240000
 30
0.0
 10
177.360000
 20
225.360000
 30
0.0
 10
179.280000
 20
229.200000
 30
0.0
  0
SPLINE
  5
104
100
AcDbEntity
  8
0
 62
7
100
AcDbSpline
 70
8
 71
3
 72
8
 73
4
 74
0
 40
0
 40
0
 40
0
 40
0
 40
1
 40
1
 40
1
 40
1
 10
179.280000
 20
229.200000
 30
0.0
 10
185.360000
 20
241.280000
 30
0.0
 10
195.200000
 20
253.840000
 30
0.0
 10
203.040000
 20
259.600000
 30
0.0
  0
SPLINE
  5
105
100
AcDbEntity
  8
0
 62
7
100
AcDbSpline
 70
8
 71
3
 72
8
 73
4
 74
0
 40
0
 40
0
 40
0
 40
0
 40
1
 40
1
 40
1
 40
1
 10
203.040000
 20
259.600000
 30
0.0
 10
209.680000
 20
264.480000
 30
0.0
 10
213.040000
 20
265.680000
 30
0.0
 10
220.080000
 20
265.680000
 30
0.0
  0
SPLINE
  5
106
100
AcDbEntity
  8
0
 62
7
100
AcDbSpline
 70
8
 71
3
 72
8
 73
4
 74
0
 40
0
 40
0
 40
0
 40
0
 40
1
 40
1
 40
1
 40
1
 10
220.080000
 20
265.680000
 30
0.0
 10
224.480000
 20
265.680000
 30
0.0
 10
226.240000
 20
265.280000
 30
0.0
 10
229.600000
 20
263.360000
 30
0.0
  0
SPLINE
  5
107
100
AcDbEntity
  8
0
 62
7
100
AcDbSpline
 70
8
 71
3
 72
8
 73
4
 74
0
 40
0
 40
0
 40
0
 40
0
 40
1
 40
1
 40
1
 40
1
 10
229.600000
 20
263.360000
 30
0.0
 10
231.840000
 20
262.160000
 30
0.0
 10
234.880000
 20
260.000000
 30
0.0
 10
236.320000
 20
258.640000
 30
0.0
  0
LINE
  5
108
100
AcDbEntity
  8
0
 62
7
100
AcDbLine
 10
236.320000
 20
258.640000
 30
0.0
 11
238.880000
 21
256.240000
 31
0.0
  0
LINE
  5
109
100
AcDbEntity
  8
0
 62
7
100
AcDbLine
 10
238.880000
 20
256.240000
 30
0.0
 11
244.240000
 21
257.200000
 31
0.0
  0
SPLINE
  5
10a
100
AcDbEntity
  8
0
 62
7
100
AcDbSpline
 70
8
 71
3
 72
8
 73
4
 74
0
 40
0
 40
0
 40
0
 40
0
 40
1
 40
1
 40
1
 40
1
 10
244.240000
 20
257.200000
 30
0.0
 10
254.160000
 20
259.120000
 30
0.0
 10
263.200000
 20
264.480000
 30
0.0
 10
271.040000
 20
272.960000
 30
0.0
  0
SPLINE
  5
10b
100
AcDbEntity
  8
0
 62
7
100
AcDbSpline
 70
8
 71
3
 72
8
 73
4
 74
0
 40
0
 40
0
 40
0
 40
0
 40
1
 40
1
 40
1
 40
1
 10
271.040000
 20
272.960000
 30
0.0
 10
273.360000
 20
275.520000
 30
0.0
 10
275.600000
 20
277.920000
 30
0.0
 10
276.000000
 20
278.400000
 30
0.0
  0
SPLINE
  5
10c
100
AcDbEntity
  8
0
 62
7
100
AcDbSpline
 70
8
 71
3
 72
8
 73
4
 74
0
 40
0
 40
0
 40
0
 40
0
 40
1
 40
1
 40
1
 40
1
 10
276.000000
 20
278.400000
 30
0.0
 10
276.720000
 20
279.120000
 30
0.0
 10
280.240000
 20
284.000000
 30
0.0
 10
285.600000
 20
291.840000
 30
0.0
  0
SPLINE
  5
10d
100
AcDbEntity
  8
0
 62
7
100
AcDbSpline
 70
8
 71
3
 72
8
 73
4
 74
0
 40
0
 40
0
 40
0
 40
0
 40
1
 40
1
 40
1
 40
1
 10
285.600000
 20
291.840000
 30
0.0
 10
293.920000
 20
303.920000
 30
0.0
 10
305.120000
 20
314.880000
 30
0.0
 10
315.440000
 20
321.120000
 30
0.0
  0
SPLINE
  5
10e
100
AcDbEntity
  8
0
 62
7
100
AcDbSpline
 70
8
 71
3
 72
8
 73
4
 74
0
 40
0
 40
0
 40
0
 40
0
 40
1
 40
1
 40
1
 40
1
 10
315.440000
 20
321.120000
 30
0.0
 10
319.200000
 20
323.440000
 30
0.0
 10
331.920000
 20
328.800000
 30
0.0
 10
333.600000
 20
328.800000
 30
0.0
  0
SPLINE
  5
10f
100
AcDbEntity
  8
0
 62
7
100
AcDbSpline
 70
8
 71
3
 72
8
 73
4
 74
0
 40
0
 40
0
 40
0
 40
0
 40
1
 40
1
 40
1
 40
1
 10
333.600000
 20
328.800000
 30
0.0
 10
334.240000
 20
328.800000
 30
0.0
 10
334.800000
 20
329.200000
 30
0.0
 10
334.800000
 20
329.680000
 30
0.0
  0
SPLINE
  5
110
100
AcDbEntity
  8
0
 62
7
100
AcDbSpline
 70
8
 71
3
 72
8
 73
4
 74
0
 40
0
 40
0
 40
0
 40
0
 40
1
 40
1
 40
1
 40
1
 10
334.800000
 20
329.680000
 30
0.0
 10
334.800000
 20
331.040000
 30
0.0
 10
323.920000
 20
338.880000
 30
0.0
 10
315.600000
 20
343.440000
 30
0.0
  0
SPLINE
  5
111
100
AcDbEntity
  8
0
 62
7
100
AcDbSpline
 70
8
 71
3
 72
8
 73
4
 74
0
 40
0
 40
0
 40
0
 40
0
 40
1
 40
1
 40
1
 40
1
 10
315.600000
 20
343.440000
 30
0.0
 10
296.000000
 20
354.240000
 30
0.0
 10
280.960000
 20
364.240000
 30
0.0
 10
262.320000
 20
378.960000
 30
0.0
  0
SPLINE
  5
112
100
AcDbEntity
  8
0
 62
7
100
AcDbSpline
 70
8
 71
3
 72
8
 73
4
 74
0
 40
0
 40
0
 40
0
 40
0
 40
1
 40
1
 40
1
 40
1
 10
262.320000
 20
378.960000
 30
0.0
 10
251.200000
 20
387.760000
 30
0.0
 10
240.640000
 20
395.920000
 30
0.0
 10
238.800000
 20
397.120000
 30
0.0
  0
SPLINE
  5
113
100
AcDbEntity
  8
0
 62
7
100
AcDbSpline
 70
8
 71
3
 72
8
 73
4
 74
0
 40
0
 40
0
 40
0
 40
0
 40
1
 40
1
 40
1
 40
1
 10
238.800000
 20
397.120000
 30
0.0
 10
236.880000
 20
398.320000
 30
0.0
 10
234.560000
 20
399.920000
 30
0.0
 10
233.520000
 20
400.720000
 30
0.0
  0
SPLINE
  5
114
100
AcDbEntity
  8
0
 62
7
100
AcDbSpline
 70
8
 71
3
 72
8
 73
4
 74
0
 40
0
 40
0
 40
0
 40
0
 40
1
 40
1
 40
1
 40
1
 10
233.520000
 20
400.720000
 30
0.0
 10
231.120000
 20
402.400000
 30
0.0
 10
214.000000
 20
410.480000
 30
0.0
 10
212.800000
 20
410.480000
 30
0.0
  0
SPLINE
  5
115
100
AcDbEntity
  8
0
 62
7
100
AcDbSpline
 70
8
 71
3
 72
8
 73
4
 74
0
 40
0
 40
0
 40
0
 40
0
 40
1
 40
1
 40
1
 40
1
 10
212.800000
 20
410.480000
 30
0.0
 10
212.240000
 20
410.480000
 30
0.0
 10
210.000000
 20
411.120000
 30
0.0
 10
207.760000
 20
412.000000
 30
0.0
  0
SPLINE
  5
116
100
AcDbEntity
  8
0
 62
7
100
AcDbSpline
 70
8
 71
3
 72
8
 73
4
 74
0
 40
0
 40
0
 40
0
 40
0
 40
1
 40
1
 40
1
 40
1
 10
207.760000
 20
412.000000
 30
0.0
 10
205.520000
 20
412.800000
 30
0.0
 10
197.040000
 20
415.200000
 30
0.0
 10
188.800000
 20
417.440000
 30
0.0
  0
SPLINE
  5
117
100
AcDbEntity
  8
0
 62
7
100
AcDbSpline
 70
8
 71
3
 72
8
 73
4
 74
0
 40
0
 40
0
 40
0
 40
0
 40
1
 40
1
 40
1
 40
1
 10
188.800000
 20
417.440000
 30
0.0
 10
169.920000
 20
422.400000
 30
0.0
 10
162.240000
 20
424.720000
 30
0.0
 10
153.440000
 20
427.920000
 30
0.0
  0
SPLINE
  5
118
100
AcDbEntity
  8
0
 62
7
100
AcDbSpline
 70
8
 71
3
 72
8
 73
4
 74
0
 40
0
 40
0
 40
0
 40
0
 40
1
 40
1
 40
1
 40
1
 10
153.440000
 20
427.920000
 30
0.0
 10
149.520000
 20
429.360000
 30
0.0
 10
146.000000
 20
430.320000
 30
0.0
 10
145.520000
 20
430.080000
 30
0.0
  0
SPLINE
  5
119
100
AcDbEntity
  8
0
 62
7
100
AcDbSpline
 70
8
 71
3
 72
8
 73
4
 74
0
 40
0
 40
0
 40
0
 40
0
 40
1
 40
1
 40
1
 40
1
 10
145.520000
 20
430.080000
 30
0.0
 10
144.320000
 20
429.520000
 30
0.0
 10
144.400000
 20
414.800000
 30
0.0
 10
145.600000
 20
409.600000
 30
0.0
  0
SPLINE
  5
11a
100
AcDbEntity
  8
0
 62
7
100
AcDbSpline
 70
8
 71
3
 72
8
 73
4
 74
0
 40
0
 40
0
 40
0
 40
0
 40
1
 40
1
 40
1
 40
1
 10
145.600000
 20
409.600000
 30
0.0
 10
146.320000
 20
406.640000
 30
0.0
 10
147.760000
 20
404.240000
 30
0.0
 10
150.800000
 20
401.200000
 30
0.0
  0
SPLINE
  5
11b
100
AcDbEntity
  8
0
 62
7
100
AcDbSpline
 70
8
 71
3
 72
8
 73
4
 74
0
 40
0
 40
0
 40
0
 40
0
 40
1
 40
1
 40
1
 40
1
 10
150.800000
 20
401.200000
 30
0.0
 10
155.760000
 20
396.000000
 30
0.0
 10
157.520000
 20
393.120000
 30
0.0
 10
159.520000
 20
387.040000
 30
0.0
  0
SPLINE
  5
11c
100
AcDbEntity
  8
0
 62
7
100
AcDbSpline
 70
8
 71
3
 72
8
 73
4
 74
0
 40
0
 40
0
 40
0
 40
0
 40
1
 40
1
 40
1
 40
1
 10
159.520000
 20
387.040000
 30
0.0
 10
161.120000
 20
381.840000
 30
0.0
 10
161.360000
 20
370.800000
 30
0.0
 10
159.920000
 20
366.160000
 30
0.0
  0
SPLINE
  5
11d
100
AcDbEntity
  8
0
 62
7
100
AcDbSpline
 70
8
 71
3
 72
8
 73
4
 74
0
 40
0
 40
0
 40
0
 40
0
 40
1
 40
1
 40
1
 40
1
 10
159.920000
 20
366.160000
 30
0.0
 10
158.320000
 20
360.800000
 30
0.0
 10
156.320000
 20
351.680000
 30
0.0
 10
156.720000
 20
350.800000
 30
0.0
  0
SPLINE
  5
11e
100
AcDbEntity
  8
0
 62
7
100
AcDbSpline
 70
8
 71
3
 72
8
 73
4
 74
0
 40
0
 40
0
 40
0
 40
0
 40
1
 40
1
 40
1
 40
1
 10
156.720000
 20
350.800000
 30
0.0
 10
156.880000
 20
350.400000
 30
0.0
 10
157.520000
 20
347.440000
 30
0.0
 10
158.000000
 20
344.240000
 30
0.0
  0
SPLINE
  5
11f
100
AcDbEntity
  8
0
 62
7
100
AcDbSpline
 70
8
 71
3
 72
8
 73
4
 74
0
 40
0
 40
0
 40
0
 40
0
 40
1
 40
1
 40
1
 40
1
 10
158.000000
 20
344.240000
 30
0.0
 10
158.560000
 20
341.040000
 30
0.0
 10
159.840000
 20
333.760000
 30
0.0
 10
160.880000
 20
328.080000
 30
0.0
  0
SPLINE
  5
120
100
AcDbEntity
  8
0
 62
7
100
AcDbSpline
 70
8
 71
3
 72
8
 73
4
 74
0
 40
0
 40
0
 40
0
 40
0
 40
1
 40
1
 40
1
 40
1
 10
160.880000
 20
328.080000
 30
0.0
 10
162.000000
 20
322.320000
 30
0.0
 10
162.880000
 20
314.720000
 30
0.0
 10
162.880000
 20
311.120000
 30
0.0
  0
SPLINE
  5
121
100
AcDbEntity
  8
0
 62
7
100
AcDbSpline
 70
8
 71
3
 72
8
 73
4
 74
0
 40
0
 40
0
 40
0
 40
0
 40
1
 40
1
 40
1
 40
1
 10
162.880000
 20
311.120000
 30
0.0
 10
162.880000
 20
303.120000
 30
0.0
 10
160.000000
 20
290.160000
 30
0.0
 10
156.800000
 20
283.840000
 30
0.0
  0
SPLINE
  5
122
100
AcDbEntity
  8
0
 62
7
100
AcDbSpline
 70
8
 71
3
 72
8
 73
4
 74
0
 40
0
 40
0
 40
0
 40
0
 40
1
 40
1
 40
1
 40
1
 10
156.800000
 20
283.840000
 30
0.0
 10
151.920000
 20
274.240000
 30
0.0
 10
148.560000
 20
272.240000
 30
0.0
 10
136.880000
 20
272.240000
 30
0.0
  0
SPLINE
  5
123
100
AcDbEntity
  8
0
 62
7
100
AcDbSpline
 70
8
 71
3
 72
8
 73
4
 74
0
 40
0
 40
0
 40
0
 40
0
 40
1
 40
1
 40
1
 40
1
 10
136.880000
 20
272.240000
 30
0.0
 10
130.480000
 20
272.240000
 30
0.0
 10
129.120000
 20
272.480000
 30
0.0
 10
125.520000
 20
274.400000
 30
0.0
  0
SPLINE
  5
124
100
AcDbEntity
  8
0
 62
7
100
AcDbSpline
 70
8
 71
3
 72
8
 73
4
 74
0
 40
0
 40
0
 40
0
 40
0
 40
1
 40
1
 40
1
 40
1
 10
125.520000
 20
274.400000
 30
0.0
 10
123.200000
 20
275.600000
 30
0.0
 10
121.120000
 20
277.280000
 30
0.0
 10
120.880000
 20
278.080000
 30
0.0
  0
SPLINE
  5
125
100
AcDbEntity
  8
0
 62
7
100
AcDbSpline
 70
8
 71
3
 72
8
 73
4
 74
0
 40
0
 40
0
 40
0
 40
0
 40
1
 40
1
 40
1
 40
1
 10
120.880000
 20
278.080000
 30
0.0
 10
120.640000
 20
278.880000
 30
0.0
 10
120.080000
 20
279.520000
 30
0.0
 10
119.680000
 20
279.520000
 30
0.0
  0
SPLINE
  5
126
100
AcDbEntity
  8
0
 62
7
100
AcDbSpline
 70
8
 71
3
 72
8
 73
4
 74
0
 40
0
 40
0
 40
0
 40
0
 40
1
 40
1
 40
1
 40
1
 10
119.680000
 20
279.520000
 30
0.0
 10
119.360000
 20
279.520000
 30
0.0
 10
117.760000
 20
282.400000
 30
0.0
 10
116.240000
 20
285.920000
 30
0.0
  0
LINE
  5
127
100
AcDbEntity
  8
0
 62
7
100
AcDbLine
 10
116.240000
 20
285.920000
 30
0.0
 11
113.440000
 21
292.240000
 31
0.0
  0
LINE
  5
128
100
AcDbEntity
  8
0
 62
7
100
AcDbLine
 10
113.440000
 20
292.240000
 30
0.0
 11
113.440000
 21
315.360000
 31
0.0
  0
SPLINE
  5
129
100
AcDbEntity
  8
0
 62
7
100
AcDbSpline
 70
8
 71
3
 72
8
 73
4
 74
0
 40
0
 40
0
 40
0
 40
0
 40
1
 40
1
 40
1
 40
1
 10
113.440000
 20
315.360000
 30
0.0
 10
113.440000
 20
328.080000
 30
0.0
 10
113.600000
 20
348.640000
 30
0.0
 10
113.840000
 20
361.200000
 30
0.0
  0
SPLINE
  5
12a
100
AcDbEntity
  8
0
 62
7
100
AcDbSpline
 70
8
 71
3
 72
8
 73
4
 74
0
 40
0
 40
0
 40
0
 40
0
 40
1
 40
1
 40
1
 40
1
 10
113.840000
 20
361.200000
 30
0.0
 10
114.160000
 20
380.880000
 30
0.0
 10
114.000000
 20
384.560000
 30
0.0
 10
112.560000
 20
388.880000
 30
0.0
  0
SPLINE
  5
12b
100
AcDbEntity
  8
0
 62
7
100
AcDbSpline
 70
8
 71
3
 72
8
 73
4
 74
0
 40
0
 40
0
 40
0
 40
0
 40
1
 40
1
 40
1
 40
1
 10
112.560000
 20
388.880000
 30
0.0
 10
110.960000
 20
393.680000
 30
0.0
 10
102.000000
 20
409.680000
 30
0.0
 10
100.400000
 20
410.480000
 30
0.0
  0
SPLINE
  5
12c
100
AcDbEntity
  8
0
 62
7
100
AcDbSpline
 70
8
 71
3
 72
8
 73
4
 74
0
 40
0
 40
0
 40
0
 40
0
 40
1
 40
1
 40
1
 40
1
 10
100.400000
 20
410.480000
 30
0.0
 10
100.000000
 20
410.720000
 30
0.0
 10
96.640000
 20
415.920000
 30
0.0
 10
92.960000
 20
422.000000
 30
0.0
  0
SPLINE
  5
12d
100
AcDbEntity
  8
0
 62
7
100
AcDbSpline
 70
8
 71
3
 72
8
 73
4
 74
0
 40
0
 40
0
 40
0
 40
0
 40
1
 40
1
 40
1
 40
1
 10
92.960000
 20
422.000000
 30
0.0
 10
77.760000
 20
447.120000
 30
0.0
 10
71.840000
 20
463.200000
 30
0.0
 10
66.880000
 20
492.880000
 30
0.0
  0
SPLINE
  5
12e
100
AcDbEntity
  8
0
 62
7
100
AcDbSpline
 70
8
 71
3
 72
8
 73
4
 74
0
 40
0
 40
0
 40
0
 40
0
 40
1
 40
1
 40
1
 40
1
 10
66.880000
 20
492.880000
 30
0.0
 10
66.320000
 20
496.080000
 30
0.0
 10
65.360000
 20
507.360000
 30
0.0
 10
64.720000
 20
518.000000
 30
0.0
  0
SPLINE
  5
12f
100
AcDbEntity
  8
0
 62
7
100
AcDbSpline
 70
8
 71
3
 72
8
 73
4
 74
0
 40
0
 40
0
 40
0
 40
0
 40
1
 40
1
 40
1
 40
1
 10
64.720000
 20
518.000000
 30
0.0
 10
62.480000
 20
556.800000
 30
0.0
 10
66.720000
 20
578.000000
 30
0.0
 10
78.800000
 20
588.000000
 30
0.0
  0
SPLINE
  5
130
100
AcDbEntity
  8
0
 62
7
100
AcDbSpline
 70
8
 71
3
 72
8
 73
4
 74
0
 40
0
 40
0
 40
0
 40
0
 40
1
 40
1
 40
1
 40
1
 10
78.800000
 20
588.000000
 30
0.0
 10
86.320000
 20
594.240000
 30
0.0
 10
92.240000
 20
596.320000
 30
0.0
 10
103.440000
 20
596.720000
 30
0.0
  0
SPLINE
  5
131
100
AcDbEntity
  8
0
 62
7
100
AcDbSpline
 70
8
 71
3
 72
8
 73
4
 74
0
 40
0
 40
0
 40
0
 40
0
 40
1
 40
1
 40
1
 40
1
 10
103.440000
 20
596.720000
 30
0.0
 10
116.480000
 20
597.200000
 30
0.0
 10
125.360000
 20
594.880000
 30
0.0
 10
138.240000
 20
587.680000
 30
0.0
  0
SPLINE
  5
132
100
AcDbEntity
  8
0
 62
7
100
AcDbSpline
 70
8
 71
3
 72
8
 73
4
 74
0
 40
0
 40
0
 40
0
 40
0
 40
1
 40
1
 40
1
 40
1
 10
138.240000
 20
587.680000
 30
0.0
 10
144.720000
 20
584.000000
 30
0.0
 10
158.080000
 20
572.160000
 30
0.0
 10
158.080000
 20
570.000000
 30
0.0
  0
SPLINE
  5
133
100
AcDbEntity
  8
0
 62
7
100
AcDbSpline
 70
8
 71
3
 72
8
 73
4
 74
0
 40
0
 40
0
 40
0
 40
0
 40
1
 40
1
 40
1
 40
1
 10
158.080000
 20
570.000000
 30
0.0
 10
158.080000
 20
569.520000
 30
0.0
 10
158.480000
 20
569.120000
 30
0.0
 10
158.960000
 20
569.120000
 30
0.0
  0
SPLINE
  5
134
100
AcDbEntity
  8
0
 62
7
100
AcDbSpline
 70
8
 71
3
 72
8
 73
4
 74
0
 40
0
 40
0
 40
0
 40
0
 40
1
 40
1
 40
1
 40
1
 10
158.960000
 20
569.120000
 30
0.0
 10
159.440000
 20
569.120000
 30
0.0
 10
160.080000
 20
568.560000
 30
0.0
 10
160.400000
 20
567.760000
 30
0.0
  0
SPLINE
  5
135
100
AcDbEntity
  8
0
 62
7
100
AcDbSpline
 70
8
 71
3
 72
8
 73
4
 74
0
 40
0
 40
0
 40
0
 40
0
 40
1
 40
1
 40
1
 40
1
 10
160.400000
 20
567.760000
 30
0.0
 10
161.600000
 20
564.560000
 30
0.0
 10
159.680000
 20
575.360000
 30
0.0
 10
158.160000
 20
580.640000
 30
0.0
  0
SPLINE
  5
136
100
AcDbEntity
  8
0
 62
7
100
AcDbSpline
 70
8
 71
3
 72
8
 73
4
 74
0
 40
0
 40
0
 40
0
 40
0
 40
1
 40
1
 40
1
 40
1
 10
158.160000
 20
580.640000
 30
0.0
 10
155.600000
 20
588.880000
 30
0.0
 10
155.280000
 20
589.520000
 30
0.0
 10
147.600000
 20
597.520000
 30
0.0
  0
SPLINE
  5
137
100
AcDbEntity
  8
0
 62
7
100
AcDbSpline
 70
8
 71
3
 72
8
 73
4
 74
0
 40
0
 40
0
 40
0
 40
0
 40
1
 40
1
 40
1
 40
1
 10
147.600000
 20
597.520000
 30
0.0
 10
138.960000
 20
606.480000
 30
0.0
 10
135.840000
 20
610.960000
 30
0.0
 10
132.560000
 20
618.800000
 30
0.0
  0
SPLINE
  5
138
100
AcDbEntity
  8
0
 62
7
100
AcDbSpline
 70
8
 71
3
 72
8
 73
4
 74
0
 40
0
 40
0
 40
0
 40
0
 40
1
 40
1
 40
1
 40
1
 10
132.560000
 20
618.800000
 30
0.0
 10
130.160000
 20
624.400000
 30
0.0
 10
129.920000
 20
626.000000
 30
0.0
 10
129.920000
 20
636.560000
 30
0.0
  0
SPLINE
  5
139
100
AcDbEntity
  8
0
 62
7
100
AcDbSpline
 70
8
 71
3
 72
8
 73
4
 74
0
 40
0
 40
0
 40
0
 40
0
 40
1
 40
1
 40
1
 40
1
 10
129.920000
 20
636.560000
 30
0.0
 10
129.920000
 20
642.880000
 30
0.0
 10
130.400000
 20
649.600000
 30
0.0
 10
131.040000
 20
651.520000
 30
0.0
  0
SPLINE
  5
13a
100
AcDbEntity
  8
0
 62
7
100
AcDbSpline
 70
8
 71
3
 72
8
 73
4
 74
0
 40
0
 40
0
 40
0
 40
0
 40
1
 40
1
 40
1
 40
1
 10
131.040000
 20
651.520000
 30
0.0
 10
131.920000
 20
654.560000
 30
0.0
 10
131.920000
 20
655.120000
 30
0.0
 10
130.560000
 20
655.760000
 30
0.0
  0
SPLINE
  5
13b
100
AcDbEntity
  8
0
 62
7
100
AcDbSpline
 70
8
 71
3
 72
8
 73
4
 74
0
 40
0
 40
0
 40
0
 40
0
 40
1
 40
1
 40
1
 40
1
 10
130.560000
 20
655.760000
 30
0.0
 10
114.320000
 20
663.680000
 30
0.0
 10
107.680000
 20
668.400000
 30
0.0
 10
97.680000
 20
679.040000
 30
0.0
  0
SPLINE
  5
13c
100
AcDbEntity
  8
0
 62
7
100
AcDbSpline
 70
8
 71
3
 72
8
 73
4
 74
0
 40
0
 40
0
 40
0
 40
0
 40
1
 40
1
 40
1
 40
1
 10
97.680000
 20
679.040000
 30
0.0
 10
87.920000
 20
689.440000
 30
0.0
 10
81.760000
 20
702.880000
 30
0.0
 10
83.840000
 20
709.360000
 30
0.0
  0
SPLINE
  5
13d
100
AcDbEntity
  8
0
 62
7
100
AcDbSpline
 70
8
 71
3
 72
8
 73
4
 74
0
 40
0
 40
0
 40
0
 40
0
 40
1
 40
1
 40
1
 40
1
 10
83.840000
 20
709.360000
 30
0.0
 10
84.880000
 20
712.560000
 30
0.0
 10
86.720000
 20
712.960000
 30
0.0
 10
92.480000
 20
711.200000
 30
0.0
  0
SPLINE
  5
13e
100
AcDbEntity
  8
0
 62
7
100
AcDbSpline
 70
8
 71
3
 72
8
 73
4
 74
0
 40
0
 40
0
 40
0
 40
0
 40
1
 40
1
 40
1
 40
1
 10
92.480000
 20
711.200000
 30
0.0
 10
95.920000
 20
710.160000
 30
0.0
 10
114.000000
 20
699.760000
 30
0.0
 10
115.840000
 20
697.760000
 30
0.0
  0
SPLINE
  5
13f
100
AcDbEntity
  8
0
 62
7
100
AcDbSpline
 70
8
 71
3
 72
8
 73
4
 74
0
 40
0
 40
0
 40
0
 40
0
 40
1
 40
1
 40
1
 40
1
 10
115.840000
 20
697.760000
 30
0.0
 10
116.640000
 20
696.880000
 30
0.0
 10
130.560000
 20
689.680000
 30
0.0
 10
133.360000
 20
688.640000
 30
0.0
  0
SPLINE
  5
140
100
AcDbEntity
  8
0
 62
7
100
AcDbSpline
 70
8
 71
3
 72
8
 73
4
 74
0
 40
0
 40
0
 40
0
 40
0
 40
1
 40
1
 40
1
 40
1
 10
133.360000
 20
688.640000
 30
0.0
 10
137.040000
 20
687.440000
 30
0.0
 10
144.640000
 20
687.520000
 30
0.0
 10
148.640000
 20
688.880000
 30
0.0
  0
SPLINE
  5
141
100
AcDbEntity
  8
0
 62
7
100
AcDbSpline
 70
8
 71
3
 72
8
 73
4
 74
0
 40
0
 40
0
 40
0
 40
0
 40
1
 40
1
 40
1
 40
1
 10
148.640000
 20
688.880000
 30
0.0
 10
151.440000
 20
689.760000
 30
0.0
 10
157.120000
 20
695.040000
 30
0.0
 10
157.120000
 20
696.640000
 30
0.0
  0
SPLINE
  5
142
100
AcDbEntity
  8
0
 62
7
100
AcDbSpline
 70
8
 71
3
 72
8
 73
4
 74
0
 40
0
 40
0
 40
0
 40
0
 40
1
 40
1
 40
1
 40
1
 10
157.120000
 20
696.640000
 30
0.0
 10
157.120000
 20
696.960000
 30
0.0
 10
158.640000
 20
698.880000
 30
0.0
 10
160.560000
 20
700.960000
 30
0.0
  0
SPLINE
  5
143
100
AcDbEntity
  8
0
 62
7
100
AcDbSpline
 70
8
 71
3
 72
8
 73
4
 74
0
 40
0
 40
0
 40
0
 40
0
 40
1
 40
1
 40
1
 40
1
 10
160.560000
 20
700.960000
 30
0.0
 10
163.680000
 20
704.320000
 30
0.0
 10
164.400000
 20
704.720000
 30
0.0
 10
167.760000
 20
704.720000
 30
0.0
  0
SPLINE
  5
144
100
AcDbEntity
  8
0
 62
7
100
AcDbSpline
 70
8
 71
3
 72
8
 73
4
 74
0
 40
0
 40
0
 40
0
 40
0
 40
1
 40
1
 40
1
 40
1
 10
167.760000
 20
704.720000
 30
0.0
 10
171.760000
 20
704.720000
 30
0.0
 10
182.320000
 20
707.600000
 30
0.0
 10
192.960000
 20
711.600000
 30
0.0
  0
SPLINE
  5
145
100
AcDbEntity
  8
0
 62
7
100
AcDbSpline
 70
8
 71
3
 72
8
 73
4
 74
0
 40
0
 40
0
 40
0
 40
0
 40
1
 40
1
 40
1
 40
1
 10
192.960000
 20
711.600000
 30
0.0
 10
207.280000
 20
716.960000
 30
0.0
 10
214.160000
 20
716.960000
 30
0.0
 10
222.000000
 20
711.440000
 30
0.0
  0
SPLINE
  5
146
100
AcDbEntity
  8
0
 62
7
100
AcDbSpline
 70
8
 71
3
 72
8
 73
4
 74
0
 40
0
 40
0
 40
0
 40
0
 40
1
 40
1
 40
1
 40
1
 10
222.000000
 20
711.440000
 30
0.0
 10
224.240000
 20
709.840000
 30
0.0
 10
226.320000
 20
708.560000
 30
0.0
 10
226.560000
 20
708.560000
 30
0.0
  0
SPLINE
  5
147
100
AcDbEntity
  8
0
 62
7
100
AcDbSpline
 70
8
 71
3
 72
8
 73
4
 74
0
 40
0
 40
0
 40
0
 40
0
 40
1
 40
1
 40
1
 40
1
 10
226.560000
 20
708.560000
 30
0.0
 10
227.200000
 20
708.560000
 30
0.0
 10
228.720000
 20
713.760000
 30
0.0
 10
231.040000
 20
723.760000
 30
0.0
  0
SPLINE
  5
148
100
AcDbEntity
  8
0
 62
7
100
AcDbSpline
 70
8
 71
3
 72
8
 73
4
 74
0
 40
0
 40
0
 40
0
 40
0
 40
1
 40
1
 40
1
 40
1
 10
231.040000
 20
723.760000
 30
0.0
 10
235.760000
 20
744.160000
 30
0.0
 10
242.640000
 20
753.760000
 30
0.0
 10
253.760000
 20
755.440000
 30
0.0
  0
SPLINE
  5
149
100
AcDbEntity
  8
0
 62
7
100
AcDbSpline
 70
8
 71
3
 72
8
 73
4
 74
0
 40
0
 40
0
 40
0
 40
0
 40
1
 40
1
 40
1
 40
1
 10
253.760000
 20
755.440000
 30
0.0
 10
257.600000
 20
756.000000
 30
0.0
 10
259.040000
 20
755.920000
 30
0.0
 10
262.560000
 20
754.560000
 30
0.0
  0
SPLINE
  5
14a
100
AcDbEntity
  8
0
 62
7
100
AcDbSpline
 70
8
 71
3
 72
8
 73
4
 74
0
 40
0
 40
0
 40
0
 40
0
 40
1
 40
1
 40
1
 40
1
 10
262.560000
 20
754.560000
 30
0.0
 10
267.680000
 20
752.640000
 30
0.0
 10
269.040000
 20
750.640000
 30
0.0
 10
270.480000
 20
742.800000
 30
0.0
  0
SPLINE
  5
14b
100
AcDbEntity
  8
0
 62
7
100
AcDbSpline
 70
8
 71
3
 72
8
 73
4
 74
0
 40
0
 40
0
 40
0
 40
0
 40
1
 40
1
 40
1
 40
1
 10
270.480000
 20
742.800000
 30
0.0
 10
271.360000
 20
737.600000
 30
0.0
 10
271.280000
 20
734.240000
 30
0.0
 10
269.600000
 20
720.880000
 30
0.0
  0
SPLINE
  5
14c
100
AcDbEntity
  8
0
 62
7
100
AcDbSpline
 70
8
 71
3
 72
8
 73
4
 74
0
 40
0
 40
0
 40
0
 40
0
 40
1
 40
1
 40
1
 40
1
 10
269.600000
 20
720.880000
 30
0.0
 10
267.280000
 20
702.800000
 30
0.0
 10
267.200000
 20
699.680000
 30
0.0
 10
268.640000
 20
696.320000
 30
0.0
  0
SPLINE
  5
14d
100
AcDbEntity
  8
0
 62
7
100
AcDbSpline
 70
8
 71
3
 72
8
 73
4
 74
0
 40
0
 40
0
 40
0
 40
0
 40
1
 40
1
 40
1
 40
1
 10
268.640000
 20
696.320000
 30
0.0
 10
270.960000
 20
690.960000
 30
0.0
 10
276.080000
 20
694.560000
 30
0.0
 10
278.560000
 20
703.360000
 30
0.0
  0
SPLINE
  5
14e
100
AcDbEntity
  8
0
 62
7
100
AcDbSpline
 70
8
 71
3
 72
8
 73
4
 74
0
 40
0
 40
0
 40
0
 40
0
 40
1
 40
1
 40
1
 40
1
 10
278.560000
 20
703.360000
 30
0.0
 10
283.440000
 20
720.480000
 30
0.0
 10
284.880000
 20
722.960000
 30
0.0
 10
295.120000
 20
732.080000
 30
0.0
  0
SPLINE
  5
14f
100
AcDbEntity
  8
0
 62
7
100
AcDbSpline
 70
8
 71
3
 72
8
 73
4
 74
0
 40
0
 40
0
 40
0
 40
0
 40
1
 40
1
 40
1
 40
1
 10
295.120000
 20
732.080000
 30
0.0
 10
300.080000
 20
736.560000
 30
0.0
 10
308.800000
 20
740.800000
 30
0.0
 10
319.120000
 20
743.680000
 30
0.0
  0
SPLINE
  5
150
100
AcDbEntity
  8
0
 62
7
100
AcDbSpline
 70
8
 71
3
 72
8
 73
4
 74
0
 40
0
 40
0
 40
0
 40
0
 40
1
 40
1
 40
1
 40
1
 10
319.120000
 20
743.680000
 30
0.0
 10
325.120000
 20
745.440000
 30
0.0
 10
346.800000
 20
745.680000
 30
0.0
 10
352.560000
 20
744.080000
 30
0.0
  0
SPLINE
  5
151
100
AcDbEntity
  8
0
 62
7
100
AcDbSpline
 70
8
 71
3
 72
8
 73
4
 74
0
 40
0
 40
0
 40
0
 40
0
 40
1
 40
1
 40
1
 40
1
 10
352.560000
 20
744.080000
 30
0.0
 10
376.160000
 20
737.600000
 30
0.0
 10
389.760000
 20
724.560000
 30
0.0
 10
394.320000
 20
704.080000
 30
0.0
  0
SPLINE
  5
152
100
AcDbEntity
  8
0
 62
7
100
AcDbSpline
 70
8
 71
3
 72
8
 73
4
 74
0
 40
0
 40
0
 40
0
 40
0
 40
1
 40
1
 40
1
 40
1
 10
394.320000
 20
704.080000
 30
0.0
 10
394.720000
 20
702.320000
 30
0.0
 10
395.360000
 20
700.560000
 30
0.0
 10
395.760000
 20
700.240000
 30
0.0
  0
SPLINE
  5
153
100
AcDbEntity
  8
0
 62
7
100
AcDbSpline
 70
8
 71
3
 72
8
 73
4
 74
0
 40
0
 40
0
 40
0
 40
0
 40
1
 40
1
 40
1
 40
1
 10
395.760000
 20
700.240000
 30
0.0
 10
397.040000
 20
699.200000
 30
0.0
 10
407.600000
 20
699.840000
 30
0.0
 10
410.960000
 20
701.120000
 30
0.0
  0
SPLINE
  5
154
100
AcDbEntity
  8
0
 62
7
100
AcDbSpline
 70
8
 71
3
 72
8
 73
4
 74
0
 40
0
 40
0
 40
0
 40
0
 40
1
 40
1
 40
1
 40
1
 10
410.960000
 20
701.120000
 30
0.0
 10
416.400000
 20
703.200000
 30
0.0
 10
425.920000
 20
710.320000
 30
0.0
 10
433.440000
 20
718.080000
 30
0.0
  0
SPLINE
  5
155
100
AcDbEntity
  8
0
 62
7
100
AcDbSpline
 70
8
 71
3
 72
8
 73
4
 74
0
 40
0
 40
0
 40
0
 40
0
 40
1
 40
1
 40
1
 40
1
 10
433.440000
 20
718.080000
 30
0.0
 10
439.360000
 20
724.240000
 30
0.0
 10
449.360000
 20
729.200000
 30
0.0
 10
462.080000
 20
732.400000
 30
0.0
  0
SPLINE
  5
156
100
AcDbEntity
  8
0
 62
7
100
AcDbSpline
 70
8
 71
3
 72
8
 73
4
 74
0
 40
0
 40
0
 40
0
 40
0
 40
1
 40
1
 40
1
 40
1
 10
462.080000
 20
732.400000
 30
0.0
 10
465.760000
 20
733.360000
 30
0.0
 10
469.520000
 20
734.480000
 30
0.0
 10
470.480000
 20
734.800000
 30
0.0
  0
SPLINE
  5
157
100
AcDbEntity
  8
0
 62
7
100
AcDbSpline
 70
8
 71
3
 72
8
 73
4
 74
0
 40
0
 40
0
 40
0
 40
0
 40
1
 40
1
 40
1
 40
1
 10
470.480000
 20
734.800000
 30
0.0
 10
471.360000
 20
735.200000
 30
0.0
 10
472.720000
 20
735.520000
 30
0.0
 10
473.440000
 20
735.520000
 30
0.0
  0
SPLINE
  5
158
100
AcDbEntity
  8
0
 62
7
100
AcDbSpline
 70
8
 71
3
 72
8
 73
4
 74
0
 40
0
 40
0
 40
0
 40
0
 40
1
 40
1
 40
1
 40
1
 10
473.440000
 20
735.520000
 30
0.0
 10
476.000000
 20
735.520000
 30
0.0
 10
489.360000
 20
741.440000
 30
0.0
 10
494.400000
 20
744.800000
 30
0.0
  0
SPLINE
  5
159
100
AcDbEntity
  8
0
 62
7
100
AcDbSpline
 70
8
 71
3
 72
8
 73
4
 74
0
 40
0
 40
0
 40
0
 40
0
 40
1
 40
1
 40
1
 40
1
 10
494.400000
 20
744.800000
 30
0.0
 10
501.840000
 20
749.680000
 30
0.0
 10
505.120000
 20
752.960000
 30
0.0
 10
504.960000
 20
755.360000
 30
0.0
  0
SPLINE
  5
15a
100
AcDbEntity
  8
0
 62
7
100
AcDbSpline
 70
8
 71
3
 72
8
 73
4
 74
0
 40
0
 40
0
 40
0
 40
0
 40
1
 40
1
 40
1
 40
1
 10
504.960000
 20
755.360000
 30
0.0
 10
504.880000
 20
756.480000
 30
0.0
 10
504.720000
 20
762.880000
 30
0.0
 10
504.560000
 20
769.520000
 30
0.0
  0
LINE
  5
15b
100
AcDbEntity
  8
0
 62
7
100
AcDbLine
 10
504.560000
 20
769.520000
 30
0.0
 11
504.240000
 21
781.520000
 31
0.0
  0
LINE
  5
15c
100
AcDbEntity
  8
0
 62
7
100
AcDbLine
 10
504.240000
 20
781.520000
 30
0.0
 11
499.440000
 21
786.560000
 31
0.0
  0
SPLINE
  5
15d
100
AcDbEntity
  8
0
 62
7
100
AcDbSpline
 70
8
 71
3
 72
8
 73
4
 74
0
 40
0
 40
0
 40
0
 40
0
 40
1
 40
1
 40
1
 40
1
 10
499.440000
 20
786.560000
 30
0.0
 10
496.800000
 20
789.360000
 30
0.0
 10
493.360000
 20
793.600000
 30
0.0
 10
491.840000
 20
796.080000
 30
0.0
  0
SPLINE
  5
15e
100
AcDbEntity
  8
0
 62
7
100
AcDbSpline
 70
8
 71
3
 72
8
 73
4
 74
0
 40
0
 40
0
 40
0
 40
0
 40
1
 40
1
 40
1
 40
1
 10
491.840000
 20
796.080000
 30
0.0
 10
490.400000
 20
798.560000
 30
0.0
 10
488.800000
 20
801.200000
 30
0.0
 10
488.320000
 20
801.920000
 30
0.0
  0
SPLINE
  5
15f
100
AcDbEntity
  8
0
 62
7
100
AcDbSpline
 70
8
 71
3
 72
8
 73
4
 74
0
 40
0
 40
0
 40
0
 40
0
 40
1
 40
1
 40
1
 40
1
 10
488.320000
 20
801.920000
 30
0.0
 10
487.120000
 20
804.000000
 30
0.0
 10
487.360000
 20
807.120000
 30
0.0
 10
488.800000
 20
807.120000
 30
0.0
  0
SPLINE
  5
160
100
AcDbEntity
  8
0
 62
7
100
AcDbSpline
 70
8
 71
3
 72
8
 73
4
 74
0
 40
0
 40
0
 40
0
 40
0
 40
1
 40
1
 40
1
 40
1
 10
488.800000
 20
807.120000
 30
0.0
 10
489.520000
 20
807.120000
 30
0.0
 10
493.200000
 20
805.040000
 30
0.0
 10
496.960000
 20
802.560000
 30
0.0
  0
SPLINE
  5
161
100
AcDbEntity
  8
0
 62
7
100
AcDbSpline
 70
8
 71
3
 72
8
 73
4
 74
0
 40
0
 40
0
 40
0
 40
0
 40
1
 40
1
 40
1
 40
1
 10
496.960000
 20
802.560000
 30
0.0
 10
510.720000
 20
793.200000
 30
0.0
 10
522.240000
 20
787.600000
 30
0.0
 10
526.480000
 20
788.000000
 30
0.0
  0
LINE
  5
162
100
AcDbEntity
  8
0
 62
7
100
AcDbLine
 10
526.480000
 20
788.000000
 30
0.0
 11
529.280000
 21
788.240000
 31
0.0
  0
LINE
  5
163
100
AcDbEntity
  8
0
 62
7
100
AcDbLine
 10
529.280000
 20
788.240000
 30
0.0
 11
529.040000
 21
794.400000
 31
0.0
  0
SPLINE
  5
164
100
AcDbEntity
  8
0
 62
7
100
AcDbSpline
 70
8
 71
3
 72
8
 73
4
 74
0
 40
0
 40
0
 40
0
 40
0
 40
1
 40
1
 40
1
 40
1
 10
529.040000
 20
794.400000
 30
0.0
 10
528.800000
 20
798.720000
 30
0.0
 10
529.120000
 20
801.040000
 30
0.0
 10
530.000000
 20
802.000000
 30
0.0
  0
SPLINE
  5
165
100
AcDbEntity
  8
0
 62
7
100
AcDbSpline
 70
8
 71
3
 72
8
 73
4
 74
0
 40
0
 40
0
 40
0
 40
0
 40
1
 40
1
 40
1
 40
1
 10
530.000000
 20
802.000000
 30
0.0
 10
531.280000
 20
803.360000
 30
0.0
 10
531.440000
 20
803.280000
 30
0.0
 10
533.760000
 20
801.840000
 30
0.0
  0
SPLINE
  5
166
100
AcDbEntity
  8
0
 62
7
100
AcDbSpline
 70
8
 71
3
 72
8
 73
4
 74
0
 40
0
 40
0
 40
0
 40
0
 40
1
 40
1
 40
1
 40
1
 10
533.760000
 20
801.840000
 30
0.0
 10
539.040000
 20
798.560000
 30
0.0
 10
542.800000
 20
787.760000
 30
0.0
 10
545.680000
 20
768.240000
 30
0.0
  0
SPLINE
  5
167
100
AcDbEntity
  8
0
 62
7
100
AcDbSpline
 70
8
 71
3
 72
8
 73
4
 74
0
 40
0
 40
0
 40
0
 40
0
 40
1
 40
1
 40
1
 40
1
 10
545.680000
 20
768.240000
 30
0.0
 10
546.960000
 20
759.440000
 30
0.0
 10
547.600000
 20
757.200000
 30
0.0
 10
549.120000
 20
756.160000
 30
0.0
  0
SPLINE
  5
168
100
AcDbEntity
  8
0
 62
7
100
AcDbSpline
 70
8
 71
3
 72
8
 73
4
 74
0
 40
0
 40
0
 40
0
 40
0
 40
1
 40
1
 40
1
 40
1
 10
549.120000
 20
756.160000
 30
0.0
 10
550.560000
 20
755.120000
 30
0.0
 10
551.600000
 20
754.960000
 30
0.0
 10
553.440000
 20
755.520000
 30
0.0
  0
SPLINE
  5
169
100
AcDbEntity
  8
0
 62
7
100
AcDbSpline
 70
8
 71
3
 72
8
 73
4
 74
0
 40
0
 40
0
 40
0
 40
0
 40
1
 40
1
 40
1
 40
1
 10
553.440000
 20
755.520000
 30
0.0
 10
557.040000
 20
756.640000
 30
0.0
 10
562.080000
 20
756.480000
 30
0.0
 10
563.440000
 20
755.120000
 30
0.0
  0
SPLINE
  5
16a
100
AcDbEntity
  8
0
 62
7
100
AcDbSpline
 70
8
 71
3
 72
8
 73
4
 74
0
 40
0
 40
0
 40
0
 40
0
 40
1
 40
1
 40
1
 40
1
 10
563.440000
 20
755.120000
 30
0.0
 10
564.880000
 20
753.680000
 30
0.0
 10
564.080000
 20
750.880000
 30
0.0
 10
560.880000
 20
746.560000
 30
0.0
  0
SPLINE
  5
16b
100
AcDbEntity
  8
0
 62
7
100
AcDbSpline
 70
8
 71
3
 72
8
 73
4
 74
0
 40
0
 40
0
 40
0
 40
0
 40
1
 40
1
 40
1
 40
1
 10
560.880000
 20
746.560000
 30
0.0
 10
557.200000
 20
741.520000
 30
0.0
 10
552.880000
 20
738.880000
 30
0.0
 10
537.600000
 20
732.320000
 30
0.0
  0
SPLINE
  5
16c
100
AcDbEntity
  8
0
 62
7
100
AcDbSpline
 70
8
 71
3
 72
8
 73
4
 74
0
 40
0
 40
0
 40
0
 40
0
 40
1
 40
1
 40
1
 40
1
 10
537.600000
 20
732.320000
 30
0.0
 10
534.160000
 20
730.880000
 30
0.0
 10
528.960000
 20
727.840000
 30
0.0
 10
525.920000
 20
725.520000
 30
0.0
  0
SPLINE
  5
16d
100
AcDbEntity
  8
0
 62
7
100
AcDbSpline
 70
8
 71
3
 72
8
 73
4
 74
0
 40
0
 40
0
 40
0
 40
0
 40
1
 40
1
 40
1
 40
1
 10
525.920000
 20
725.520000
 30
0.0
 10
520.400000
 20
721.280000
 30
0.0
 10
518.400000
 20
719.200000
 30
0.0
 10
508.080000
 20
707.040000
 30
0.0
  0
SPLINE
  5
16e
100
AcDbEntity
  8
0
 62
7
100
AcDbSpline
 70
8
 71
3
 72
8
 73
4
 74
0
 40
0
 40
0
 40
0
 40
0
 40
1
 40
1
 40
1
 40
1
 10
508.080000
 20
707.040000
 30
0.0
 10
494.240000
 20
690.800000
 30
0.0
 10
463.840000
 20
670.720000
 30
0.0
 10
447.200000
 20
666.880000
 30
0.0
  0
SPLINE
  5
16f
100
AcDbEntity
  8
0
 62
7
100
AcDbSpline
 70
8
 71
3
 72
8
 73
4
 74
0
 40
0
 40
0
 40
0
 40
0
 40
1
 40
1
 40
1
 40
1
 10
447.200000
 20
666.880000
 30
0.0
 10
438.960000
 20
664.960000
 30
0.0
 10
437.840000
 20
663.920000
 30
0.0
 10
433.760000
 20
653.760000
 30
0.0
  0
SPLINE
  5
170
100
AcDbEntity
  8
0
 62
7
100
AcDbSpline
 70
8
 71
3
 72
8
 73
4
 74
0
 40
0
 40
0
 40
0
 40
0
 40
1
 40
1
 40
1
 40
1
 10
433.760000
 20
653.760000
 30
0.0
 10
429.120000
 20
642.080000
 30
0.0
 10
413.040000
 20
626.400000
 30
0.0
 10
374.800000
 20
596.160000
 30
0.0
  0
SPLINE
  5
171
100
AcDbEntity
  8
0
 62
7
100
AcDbSpline
 70
8
 71
3
 72
8
 73
4
 74
0
 40
0
 40
0
 40
0
 40
0
 40
1
 40
1
 40
1
 40
1
 10
374.800000
 20
596.160000
 30
0.0
 10
366.960000
 20
590.000000
 30
0.0
 10
351.840000
 20
578.080000
 30
0.0
 10
341.200000
 20
569.600000
 30
0.0
  0
SPLINE
  5
172
100
AcDbEntity
  8
0
 62
7
100
AcDbSpline
 70
8
 71
3
 72
8
 73
4
 74
0
 40
0
 40
0
 40
0
 40
0
 40
1
 40
1
 40
1
 40
1
 10
341.200000
 20
569.600000
 30
0.0
 10
330.560000
 20
561.200000
 30
0.0
 10
309.600000
 20
544.560000
 30
0.0
 10
294.640000
 20
532.640000
 30
0.0
  0
LINE
  5
173
100
AcDbEntity
  8
0
 62
7
100
AcDbLine
 10
294.640000
 20
532.640000
 30
0.0
 11
267.360000
 21
510.960000
 31
0.0
  0
LINE
  5
174
100
AcDbEntity
  8
0
 62
7
100
AcDbLine
 10
267.360000
 20
510.960000
 30
0.0
 11
267.840000
 21
501.360000
 31
0.0
  0
SPLINE
  5
175
100
AcDbEntity
  8
0
 62
7
100
AcDbSpline
 70
8
 71
3
 72
8
 73
4
 74
0
 40
0
 40
0
 40
0
 40
0
 40
1
 40
1
 40
1
 40
1
 10
267.840000
 20
501.360000
 30
0.0
 10
268.320000
 20
489.600000
 30
0.0
 10
270.240000
 20
485.520000
 30
0.0
 10
278.240000
 20
479.040000
 30
0.0
  0
SPLINE
  5
176
100
AcDbEntity
  8
0
 62
7
100
AcDbSpline
 70
8
 71
3
 72
8
 73
4
 74
0
 40
0
 40
0
 40
0
 40
0
 40
1
 40
1
 40
1
 40
1
 10
278.240000
 20
479.040000
 30
0.0
 10
285.280000
 20
473.360000
 30
0.0
 10
285.440000
 20
473.280000
 30
0.0
 10
306.320000
 20
462.320000
 30
0.0
  0
SPLINE
  5
177
100
AcDbEntity
  8
0
 62
7
100
AcDbSpline
 70
8
 71
3
 72
8
 73
4
 74
0
 40
0
 40
0
 40
0
 40
0
 40
1
 40
1
 40
1
 40
1
 10
306.320000
 20
462.320000
 30
0.0
 10
316.320000
 20
457.040000
 30
0.0
 10
325.040000
 20
452.320000
 30
0.0
 10
325.680000
 20
451.840000
 30
0.0
  0
SPLINE
  5
178
100
AcDbEntity
  8
0
 62
7
100
AcDbSpline
 70
8
 71
3
 72
8
 73
4
 74
0
 40
0
 40
0
 40
0
 40
0
 40
1
 40
1
 40
1
 40
1
 10
325.680000
 20
451.840000
 30
0.0
 10
326.400000
 20
451.280000
 30
0.0
 10
328.800000
 20
449.680000
 30
0.0
 10
331.120000
 20
448.240000
 30
0.0
  0
SPLINE
  5
179
100
AcDbEntity
  8
0
 62
7
100
AcDbSpline
 70
8
 71
3
 72
8
 73
4
 74
0
 40
0
 40
0
 40
0
 40
0
 40
1
 40
1
 40
1
 40
1
 10
331.120000
 20
448.240000
 30
0.0
 10
337.680000
 20
444.080000
 30
0.0
 10
357.760000
 20
427.680000
 30
0.0
 10
364.560000
 20
420.880000
 30
0.0
  0
SPLINE
  5
17a
100
AcDbEntity
  8
0
 62
7
100
AcDbSpline
 70
8
 71
3
 72
8
 73
4
 74
0
 40
0
 40
0
 40
0
 40
0
 40
1
 40
1
 40
1
 40
1
 10
364.560000
 20
420.880000
 30
0.0
 10
368.000000
 20
417.440000
 30
0.0
 10
370.960000
 20
414.560000
 30
0.0
 10
371.280000
 20
414.320000
 30
0.0
  0
SPLINE
  5
17b
100
AcDbEntity
  8
0
 62
7
100
AcDbSpline
 70
8
 71
3
 72
8
 73
4
 74
0
 40
0
 40
0
 40
0
 40
0
 40
1
 40
1
 40
1
 40
1
 10
371.280000
 20
414.320000
 30
0.0
 10
371.600000
 20
414.080000
 30
0.0
 10
372.240000
 20
413.360000
 30
0.0
 10
372.720000
 20
412.640000
 30
0.0
  0
SPLINE
  5
17c
100
AcDbEntity
  8
0
 62
7
100
AcDbSpline
 70
8
 71
3
 72
8
 73
4
 74
0
 40
0
 40
0
 40
0
 40
0
 40
1
 40
1
 40
1
 40
1
 10
372.720000
 20
412.640000
 30
0.0
 10
373.280000
 20
411.920000
 30
0.0
 10
375.520000
 20
409.360000
 30
0.0
 10
377.680000
 20
406.880000
 30
0.0
  0
SPLINE
  5
17d
100
AcDbEntity
  8
0
 62
7
100
AcDbSpline
 70
8
 71
3
 72
8
 73
4
 74
0
 40
0
 40
0
 40
0
 40
0
 40
1
 40
1
 40
1
 40
1
 10
377.680000
 20
406.880000
 30
0.0
 10
393.760000
 20
388.400000
 30
0.0
 10
408.960000
 20
363.920000
 30
0.0
 10
420.080000
 20
338.480000
 30
0.0
  0
SPLINE
  5
17e
100
AcDbEntity
  8
0
 62
7
100
AcDbSpline
 70
8
 71
3
 72
8
 73
4
 74
0
 40
0
 40
0
 40
0
 40
0
 40
1
 40
1
 40
1
 40
1
 10
420.080000
 20
338.480000
 30
0.0
 10
423.120000
 20
331.520000
 30
0.0
 10
423.520000
 20
329.920000
 30
0.0
 10
423.600000
 20
322.320000
 30
0.0
  0
SPLINE
  5
17f
100
AcDbEntity
  8
0
 62
7
100
AcDbSpline
 70
8
 71
3
 72
8
 73
4
 74
0
 40
0
 40
0
 40
0
 40
0
 40
1
 40
1
 40
1
 40
1
 10
423.600000
 20
322.320000
 30
0.0
 10
423.680000
 20
314.240000
 30
0.0
 10
423.520000
 20
313.600000
 30
0.0
 10
420.800000
 20
309.600000
 30
0.0
  0
SPLINE
  5
180
100
AcDbEntity
  8
0
 62
7
100
AcDbSpline
 70
8
 71
3
 72
8
 73
4
 74
0
 40
0
 40
0
 40
0
 40
0
 40
1
 40
1
 40
1
 40
1
 10
420.800000
 20
309.600000
 30
0.0
 10
411.520000
 20
295.760000
 30
0.0
 10
389.360000
 20
278.800000
 30
0.0
 10
360.480000
 20
263.200000
 30
0.0
  0
SPLINE
  5
181
100
AcDbEntity
  8
0
 62
7
100
AcDbSpline
 70
8
 71
3
 72
8
 73
4
 74
0
 40
0
 40
0
 40
0
 40
0
 40
1
 40
1
 40
1
 40
1
 10
360.480000
 20
263.200000
 30
0.0
 10
352.080000
 20
258.640000
 30
0.0
 10
331.760000
 20
250.000000
 30
0.0
 10
321.360000
 20
246.480000
 30
0.0
  0
SPLINE
  5
182
100
AcDbEntity
  8
0
 62
7
100
AcDbSpline
 70
8
 71
3
 72
8
 73
4
 74
0
 40
0
 40
0
 40
0
 40
0
 40
1
 40
1
 40
1
 40
1
 10
321.360000
 20
246.480000
 30
0.0
 10
304.480000
 20
240.800000
 30
0.0
 10
276.080000
 20
228.480000
 30
0.0
 10
257.520000
 20
218.880000
 30
0.0
  0
SPLINE
  5
183
100
AcDbEntity
  8
0
 62
7
100
AcDbSpline
 70
8
 71
3
 72
8
 73
4
 74
0
 40
0
 40
0
 40
0
 40
0
 40
1
 40
1
 40
1
 40
1
 10
257.520000
 20
218.880000
 30
0.0
 10
252.800000
 20
216.480000
 30
0.0
 10
247.840000
 20
213.920000
 30
0.0
 10
246.480000
 20
213.280000
 30
0.0
  0
SPLINE
  5
184
100
AcDbEntity
  8
0
 62
7
100
AcDbSpline
 70
8
 71
3
 72
8
 73
4
 74
0
 40
0
 40
0
 40
0
 40
0
 40
1
 40
1
 40
1
 40
1
 10
246.480000
 20
213.280000
 30
0.0
 10
245.120000
 20
212.640000
 30
0.0
 10
235.600000
 20
207.760000
 30
0.0
 10
225.280000
 20
202.400000
 30
0.0
  0
SPLINE
  5
185
100
AcDbEntity
  8
0
 62
7
100
AcDbSpline
 70
8
 71
3
 72
8
 73
4
 74
0
 40
0
 40
0
 40
0
 40
0
 40
1
 40
1
 40
1
 40
1
 10
225.280000
 20
202.400000
 30
0.0
 10
215.040000
 20
197.120000
 30
0.0
 10
204.640000
 20
191.840000
 30
0.0
 10
202.240000
 20
190.800000
 30
0.0
  0
SPLINE
  5
186
100
AcDbEntity
  8
0
 62
7
100
AcDbSpline
 70
8
 71
3
 72
8
 73
4
 74
0
 40
0
 40
0
 40
0
 40
0
 40
1
 40
1
 40
1
 40
1
 10
202.240000
 20
190.800000
 30
0.0
 10
199.920000
 20
189.760000
 30
0.0
 10
195.600000
 20
187.760000
 30
0.0
 10
192.640000
 20
186.320000
 30
0.0
  0
SPLINE
  5
187
100
AcDbEntity
  8
0
 62
7
100
AcDbSpline
 70
8
 71
3
 72
8
 73
4
 74
0
 40
0
 40
0
 40
0
 40
0
 40
1
 40
1
 40
1
 40
1
 10
192.640000
 20
186.320000
 30
0.0
 10
185.360000
 20
182.880000
 30
0.0
 10
166.560000
 20
175.360000
 30
0.0
 10
159.120000
 20
172.960000
 30
0.0
  0
SPLINE
  5
188
100
AcDbEntity
  8
0
 62
7
100
AcDbSpline
 70
8
 71
3
 72
8
 73
4
 74
0
 40
0
 40
0
 40
0
 40
0
 40
1
 40
1
 40
1
 40
1
 10
159.120000
 20
172.960000
 30
0.0
 10
151.920000
 20
170.640000
 30
0.0
 10
144.240000
 20
170.240000
 30
0.0
 10
143.280000
 20
172.160000
 30
0.0
  0
LINE
  5
189
100
AcDbEntity
  8
0
 62
7
100
AcDbLine
 10
143.280000
 20
172.160000
 30
0.0
 11
143.280000
 21
172.160000
 31
0.0
  0
SPLINE
  5
18a
100
AcDbEntity
  8
0
 62
7
100
AcDbSpline
 70
8
 71
3
 72
8
 73
4
 74
0
 40
0
 40
0
 40
0
 40
0
 40
1
 40
1
 40
1
 40
1
 10
367.920000
 20
625.760000
 30
0.0
 10
375.600000
 20
629.040000
 30
0.0
 10
382.080000
 20
644.160000
 30
0.0
 10
383.040000
 20
661.120000
 30
0.0
  0
SPLINE
  5
18b
100
AcDbEntity
  8
0
 62
7
100
AcDbSpline
 70
8
 71
3
 72
8
 73
4
 74
0
 40
0
 40
0
 40
0
 40
0
 40
1
 40
1
 40
1
 40
1
 10
383.040000
 20
661.120000
 30
0.0
 10
383.440000
 20
667.600000
 30
0.0
 10
381.680000
 20
667.600000
 30
0.0
 10
374.160000
 20
661.280000
 30
0.0
  0
SPLINE
  5
18c
100
AcDbEntity
  8
0
 62
7
100
AcDbSpline
 70
8
 71
3
 72
8
 73
4
 74
0
 40
0
 40
0
 40
0
 40
0
 40
1
 40
1
 40
1
 40
1
 10
374.160000
 20
661.280000
 30
0.0
 10
360.960000
 20
650.080000
 30
0.0
 10
351.120000
 20
637.680000
 30
0.0
 10
351.120000
 20
632.240000
 30
0.0
  0
SPLINE
  5
18d
100
AcDbEntity
  8
0
 62
7
100
AcDbSpline
 70
8
 71
3
 72
8
 73
4
 74
0
 40
0
 40
0
 40
0
 40
0
 40
1
 40
1
 40
1
 40
1
 10
351.120000
 20
632.240000
 30
0.0
 10
351.120000
 20
629.600000
 30
0.0
 10
353.920000
 20
627.200000
 30
0.0
 10
358.080000
 20
626.160000
 30
0.0
  0
SPLINE
  5
18e
100
AcDbEntity
  8
0
 62
7
100
AcDbSpline
 70
8
 71
3
 72
8
 73
4
 74
0
 40
0
 40
0
 40
0
 40
0
 40
1
 40
1
 40
1
 40
1
 10
358.080000
 20
626.160000
 30
0.0
 10
360.320000
 20
625.600000
 30
0.0
 10
362.640000
 20
625.040000
 30
0.0
 10
363.120000
 20
624.960000
 30
0.0
  0
SPLINE
  5
18f
100
AcDbEntity
  8
0
 62
7
100
AcDbSpline
 70
8
 71
3
 72
8
 73
4
 74
0
 40
0
 40
0
 40
0
 40
0
 40
1
 40
1
 40
1
 40
1
 10
363.120000
 20
624.960000
 30
0.0
 10
364.800000
 20
624.560000
 30
0.0
 10
365.040000
 20
624.560000
 30
0.0
 10
367.920000
 20
625.760000
 30
0.0
  0
LINE
  5
190
100
AcDbEntity
  8
0
 62
7
100
AcDbLine
 10
367.920000
 20
625.760000
 30
0.0
 11
367.920000
 21
625.760000
 31
0.0
  0
SPLINE
  5
191
100
AcDbEntity
  8
0
 62
7
100
AcDbSpline
 70
8
 71
3
 72
8
 73
4
 74
0
 40
0
 40
0
 40
0
 40
0
 40
1
 40
1
 40
1
 40
1
 10
319.520000
 20
631.680000
 30
0.0
 10
322.000000
 20
632.800000
 30
0.0
 10
323.360000
 20
634.000000
 30
0.0
 10
323.840000
 20
635.520000
 30
0.0
  0
SPLINE
  5
192
100
AcDbEntity
  8
0
 62
7
100
AcDbSpline
 70
8
 71
3
 72
8
 73
4
 74
0
 40
0
 40
0
 40
0
 40
0
 40
1
 40
1
 40
1
 40
1
 10
323.840000
 20
635.520000
 30
0.0
 10
326.240000
 20
644.320000
 30
0.0
 10
312.480000
 20
670.480000
 30
0.0
 10
303.200000
 20
674.880000
 30
0.0
  0
SPLINE
  5
193
100
AcDbEntity
  8
0
 62
7
100
AcDbSpline
 70
8
 71
3
 72
8
 73
4
 74
0
 40
0
 40
0
 40
0
 40
0
 40
1
 40
1
 40
1
 40
1
 10
303.200000
 20
674.880000
 30
0.0
 10
299.760000
 20
676.480000
 30
0.0
 10
298.400000
 20
676.160000
 30
0.0
 10
295.680000
 20
672.800000
 30
0.0
  0
SPLINE
  5
194
100
AcDbEntity
  8
0
 62
7
100
AcDbSpline
 70
8
 71
3
 72
8
 73
4
 74
0
 40
0
 40
0
 40
0
 40
0
 40
1
 40
1
 40
1
 40
1
 10
295.680000
 20
672.800000
 30
0.0
 10
290.240000
 20
666.080000
 30
0.0
 10
290.800000
 20
651.920000
 30
0.0
 10
296.960000
 20
641.920000
 30
0.0
  0
SPLINE
  5
195
100
AcDbEntity
  8
0
 62
7
100
AcDbSpline
 70
8
 71
3
 72
8
 73
4
 74
0
 40
0
 40
0
 40
0
 40
0
 40
1
 40
1
 40
1
 40
1
 10
296.960000
 20
641.920000
 30
0.0
 10
300.800000
 20
635.600000
 30
0.0
 10
302.560000
 20
633.760000
 30
0.0
 10
307.040000
 20
631.600000
 30
0.0
  0
SPLINE
  5
196
100
AcDbEntity
  8
0
 62
7
100
AcDbSpline
 70
8
 71
3
 72
8
 73
4
 74
0
 40
0
 40
0
 40
0
 40
0
 40
1
 40
1
 40
1
 40
1
 10
307.040000
 20
631.600000
 30
0.0
 10
311.200000
 20
629.520000
 30
0.0
 10
314.880000
 20
629.520000
 30
0.0
 10
319.520000
 20
631.680000
 30
0.0
  0
LINE
  5
197
100
AcDbEntity
  8
0
 62
7
100
AcDbLine
 10
319.520000
 20
631.680000
 30
0.0
 11
319.520000
 21
631.680000
 31
0.0
  0
SPLINE
  5
198
100
AcDbEntity
  8
0
 62
7
100
AcDbSpline
 70
8
 71
3
 72
8
 73
4
 74
0
 40
0
 40
0
 40
0
 40
0
 40
1
 40
1
 40
1
 40
1
 10
66.800000
 20
69.680000
 30
0.0
 10
70.080000
 20
68.720000
 30
0.0
 10
72.480000
 20
67.120000
 30
0.0
 10
74.080000
 20
64.880000
 30
0.0
  0
SPLINE
  5
199
100
AcDbEntity
  8
0
 62
7
100
AcDbSpline
 70
8
 71
3
 72
8
 73
4
 74
0
 40
0
 40
0
 40
0
 40
0
 40
1
 40
1
 40
1
 40
1
 10
74.080000
 20
64.880000
 30
0.0
 10
75.680000
 20
62.640000
 30
0.0
 10
76.480000
 20
60.160000
 30
0.0
 10
76.480000
 20
57.280000
 30
0.0
  0
SPLINE
  5
19a
100
AcDbEntity
  8
0
 62
7
100
AcDbSpline
 70
8
 71
3
 72
8
 73
4
 74
0
 40
0
 40
0
 40
0
 40
0
 40
1
 40
1
 40
1
 40
1
 10
76.480000
 20
57.280000
 30
0.0
 10
76.480000
 20
54.400000
 30
0.0
 10
75.760000
 20
51.680000
 30
0.0
 10
74.320000
 20
49.280000
 30
0.0
  0
SPLINE
  5
19b
100
AcDbEntity
  8
0
 62
7
100
AcDbSpline
 70
8
 71
3
 72
8
 73
4
 74
0
 40
0
 40
0
 40
0
 40
0
 40
1
 40
1
 40
1
 40
1
 10
74.320000
 20
49.280000
 30
0.0
 10
72.880000
 20
46.880000
 30
0.0
 10
70.800000
 20
45.120000
 30
0.0
 10
68.160000
 20
44.000000
 30
0.0
  0
SPLINE
  5
19c
100
AcDbEntity
  8
0
 62
7
100
AcDbSpline
 70
8
 71
3
 72
8
 73
4
 74
0
 40
0
 40
0
 40
0
 40
0
 40
1
 40
1
 40
1
 40
1
 10
68.160000
 20
44.000000
 30
0.0
 10
65.440000
 20
42.800000
 30
0.0
 10
61.840000
 20
42.240000
 30
0.0
 10
57.280000
 20
42.240000
 30
0.0
  0
LINE
  5
19d
100
AcDbEntity
  8
0
 62
7
100
AcDbLine
 10
57.280000
 20
42.240000
 30
0.0
 11
37.520000
 21
42.240000
 31
0.0
  0
LINE
  5
19e
100
AcDbEntity
  8
0
 62
7
100
AcDbLine
 10
37.520000
 20
42.240000
 30
0.0
 11
37.520000
 21
93.840000
 31
0.0
  0
LINE
  5
19f
100
AcDbEntity
  8
0
 62
7
100
AcDbLine
 10
37.520000
 20
93.840000
 30
0.0
 11
56.880000
 21
93.840000
 31
0.0
  0
SPLINE
  5
1a0
100
AcDbEntity
  8
0
 62
7
100
AcDbSpline
 70
8
 71
3
 72
8
 73
4
 74
0
 40
0
 40
0
 40
0
 40
0
 40
1
 40
1
 40
1
 40
1
 10
56.880000
 20
93.840000
 30
0.0
 10
63.120000
 20
93.840000
 30
0.0
 10
67.520000
 20
92.480000
 30
0.0
 10
70.080000
 20
89.760000
 30
0.0
  0
SPLINE
  5
1a1
100
AcDbEntity
  8
0
 62
7
100
AcDbSpline
 70
8
 71
3
 72
8
 73
4
 74
0
 40
0
 40
0
 40
0
 40
0
 40
1
 40
1
 40
1
 40
1
 10
70.080000
 20
89.760000
 30
0.0
 10
72.720000
 20
87.040000
 30
0.0
 10
74.000000
 20
84.000000
 30
0.0
 10
74.000000
 20
80.640000
 30
0.0
  0
SPLINE
  5
1a2
100
AcDbEntity
  8
0
 62
7
100
AcDbSpline
 70
8
 71
3
 72
8
 73
4
 74
0
 40
0
 40
0
 40
0
 40
0
 40
1
 40
1
 40
1
 40
1
 10
74.000000
 20
80.640000
 30
0.0
 10
74.000000
 20
78.400000
 30
0.0
 10
73.360000
 20
76.320000
 30
0.0
 10
72.160000
 20
74.400000
 30
0.0
  0
SPLINE
  5
1a3
100
AcDbEntity
  8
0
 62
7
100
AcDbSpline
 70
8
 71
3
 72
8
 73
4
 74
0
 40
0
 40
0
 40
0
 40
0
 40
1
 40
1
 40
1
 40
1
 10
72.160000
 20
74.400000
 30
0.0
 10
71.040000
 20
72.480000
 30
0.0
 10
69.200000
 20
70.960000
 30
0.0
 10
66.800000
 20
69.680000
 30
0.0
  0
LINE
  5
1a4
100
AcDbEntity
  8
0
 62
7
100
AcDbLine
 10
66.800000
 20
69.680000
 30
0.0
 11
66.800000
 21
69.680000
 31
0.0
  0
LINE
  5
1a5
100
AcDbEntity
  8
0
 62
7
100
AcDbLine
 10
44.400000
 20
72.240000
 30
0.0
 11
55.520000
 21
72.240000
 31
0.0
  0
SPLINE
  5
1a6
100
AcDbEntity
  8
0
 62
7
100
AcDbSpline
 70
8
 71
3
 72
8
 73
4
 74
0
 40
0
 40
0
 40
0
 40
0
 40
1
 40
1
 40
1
 40
1
 10
55.520000
 20
72.240000
 30
0.0
 10
57.840000
 20
72.240000
 30
0.0
 10
59.760000
 20
72.320000
 30
0.0
 10
61.360000
 20
72.640000
 30
0.0
  0
SPLINE
  5
1a7
100
AcDbEntity
  8
0
 62
7
100
AcDbSpline
 70
8
 71
3
 72
8
 73
4
 74
0
 40
0
 40
0
 40
0
 40
0
 40
1
 40
1
 40
1
 40
1
 10
61.360000
 20
72.640000
 30
0.0
 10
62.880000
 20
72.880000
 30
0.0
 10
64.240000
 20
73.520000
 30
0.0
 10
65.440000
 20
74.640000
 30
0.0
  0
SPLINE
  5
1a8
100
AcDbEntity
  8
0
 62
7
100
AcDbSpline
 70
8
 71
3
 72
8
 73
4
 74
0
 40
0
 40
0
 40
0
 40
0
 40
1
 40
1
 40
1
 40
1
 10
65.440000
 20
74.640000
 30
0.0
 10
66.640000
 20
75.760000
 30
0.0
 10
67.280000
 20
77.440000
 30
0.0
 10
67.280000
 20
79.760000
 30
0.0
  0
SPLINE
  5
1a9
100
AcDbEntity
  8
0
 62
7
100
AcDbSpline
 70
8
 71
3
 72
8
 73
4
 74
0
 40
0
 40
0
 40
0
 40
0
 40
1
 40
1
 40
1
 40
1
 10
67.280000
 20
79.760000
 30
0.0
 10
67.280000
 20
82.240000
 30
0.0
 10
66.640000
 20
84.000000
 30
0.0
 10
65.440000
 20
85.200000
 30
0.0
  0
SPLINE
  5
1aa
100
AcDbEntity
  8
0
 62
7
100
AcDbSpline
 70
8
 71
3
 72
8
 73
4
 74
0
 40
0
 40
0
 40
0
 40
0
 40
1
 40
1
 40
1
 40
1
 10
65.440000
 20
85.200000
 30
0.0
 10
64.240000
 20
86.320000
 30
0.0
 10
62.800000
 20
87.040000
 30
0.0
 10
61.120000
 20
87.280000
 30
0.0
  0
SPLINE
  5
1ab
100
AcDbEntity
  8
0
 62
7
100
AcDbSpline
 70
8
 71
3
 72
8
 73
4
 74
0
 40
0
 40
0
 40
0
 40
0
 40
1
 40
1
 40
1
 40
1
 10
61.120000
 20
87.280000
 30
0.0
 10
59.440000
 20
87.600000
 30
0.0
 10
57.280000
 20
87.680000
 30
0.0
 10
54.640000
 20
87.680000
 30
0.0
  0
LINE
  5
1ac
100
AcDbEntity
  8
0
 62
7
100
AcDbLine
 10
54.640000
 20
87.680000
 30
0.0
 11
44.400000
 21
87.680000
 31
0.0
  0
LINE
  5
1ad
100
AcDbEntity
  8
0
 62
7
100
AcDbLine
 10
44.400000
 20
87.680000
 30
0.0
 11
44.400000
 21
72.240000
 31
0.0
  0
LINE
  5
1ae
100
AcDbEntity
  8
0
 62
7
100
AcDbLine
 10
44.400000
 20
72.240000
 30
0.0
 11
44.400000
 21
72.240000
 31
0.0
  0
LINE
  5
1af
100
AcDbEntity
  8
0
 62
7
100
AcDbLine
 10
44.400000
 20
48.400000
 30
0.0
 11
57.200000
 21
48.400000
 31
0.0
  0
SPLINE
  5
1b0
100
AcDbEntity
  8
0
 62
7
100
AcDbSpline
 70
8
 71
3
 72
8
 73
4
 74
0
 40
0
 40
0
 40
0
 40
0
 40
1
 40
1
 40
1
 40
1
 10
57.200000
 20
48.400000
 30
0.0
 10
61.760000
 20
48.400000
 30
0.0
 10
64.960000
 20
49.200000
 30
0.0
 10
66.800000
 20
50.720000
 30
0.0
  0
SPLINE
  5
1b1
100
AcDbEntity
  8
0
 62
7
100
AcDbSpline
 70
8
 71
3
 72
8
 73
4
 74
0
 40
0
 40
0
 40
0
 40
0
 40
1
 40
1
 40
1
 40
1
 10
66.800000
 20
50.720000
 30
0.0
 10
68.560000
 20
52.320000
 30
0.0
 10
69.440000
 20
54.480000
 30
0.0
 10
69.440000
 20
57.280000
 30
0.0
  0
SPLINE
  5
1b2
100
AcDbEntity
  8
0
 62
7
100
AcDbSpline
 70
8
 71
3
 72
8
 73
4
 74
0
 40
0
 40
0
 40
0
 40
0
 40
1
 40
1
 40
1
 40
1
 10
69.440000
 20
57.280000
 30
0.0
 10
69.440000
 20
60.000000
 30
0.0
 10
68.480000
 20
62.240000
 30
0.0
 10
66.560000
 20
63.760000
 30
0.0
  0
SPLINE
  5
1b3
100
AcDbEntity
  8
0
 62
7
100
AcDbSpline
 70
8
 71
3
 72
8
 73
4
 74
0
 40
0
 40
0
 40
0
 40
0
 40
1
 40
1
 40
1
 40
1
 10
66.560000
 20
63.760000
 30
0.0
 10
64.720000
 20
65.360000
 30
0.0
 10
61.280000
 20
66.080000
 30
0.0
 10
56.320000
 20
66.080000
 30
0.0
  0
LINE
  5
1b4
100
AcDbEntity
  8
0
 62
7
100
AcDbLine
 10
56.320000
 20
66.080000
 30
0.0
 11
44.400000
 21
66.080000
 31
0.0
  0
LINE
  5
1b5
100
AcDbEntity
  8
0
 62
7
100
AcDbLine
 10
44.400000
 20
66.080000
 30
0.0
 11
44.400000
 21
48.400000
 31
0.0
  0
LINE
  5
1b6
100
AcDbEntity
  8
0
 62
7
100
AcDbLine
 10
44.400000
 20
48.400000
 30
0.0
 11
44.400000
 21
48.400000
 31
0.0
  0
LINE
  5
1b7
100
AcDbEntity
  8
0
 62
7
100
AcDbLine
 10
91.360000
 20
42.240000
 30
0.0
 11
85.040000
 21
42.240000
 31
0.0
  0
LINE
  5
1b8
100
AcDbEntity
  8
0
 62
7
100
AcDbLine
 10
85.040000
 20
42.240000
 30
0.0
 11
85.040000
 21
79.600000
 31
0.0
  0
LINE
  5
1b9
100
AcDbEntity
  8
0
 62
7
100
AcDbLine
 10
85.040000
 20
79.600000
 30
0.0
 11
91.360000
 21
79.600000
 31
0.0
  0
LINE
  5
1ba
100
AcDbEntity
  8
0
 62
7
100
AcDbLine
 10
91.360000
 20
79.600000
 30
0.0
 11
91.360000
 21
42.240000
 31
0.0
  0
LINE
  5
1bb
100
AcDbEntity
  8
0
 62
7
100
AcDbLine
 10
91.360000
 20
42.240000
 30
0.0
 11
91.360000
 21
42.240000
 31
0.0
  0
LINE
  5
1bc
100
AcDbEntity
  8
0
 62
7
100
AcDbLine
 10
91.360000
 20
86.640000
 30
0.0
 11
85.040000
 21
86.640000
 31
0.0
  0
LINE
  5
1bd
100
AcDbEntity
  8
0
 62
7
100
AcDbLine
 10
85.040000
 20
86.640000
 30
0.0
 11
85.040000
 21
93.840000
 31
0.0
  0
LINE
  5
1be
100
AcDbEntity
  8
0
 62
7
100
AcDbLine
 10
85.040000
 20
93.840000
 30
0.0
 11
91.360000
 21
93.840000
 31
0.0
  0
LINE
  5
1bf
100
AcDbEntity
  8
0
 62
7
100
AcDbLine
 10
91.360000
 20
93.840000
 30
0.0
 11
91.360000
 21
86.640000
 31
0.0
  0
LINE
  5
1c0
100
AcDbEntity
  8
0
 62
7
100
AcDbLine
 10
91.360000
 20
86.640000
 30
0.0
 11
91.360000
 21
86.640000
 31
0.0
  0
SPLINE
  5
1c1
100
AcDbEntity
  8
0
 62
7
100
AcDbSpline
 70
8
 71
3
 72
8
 73
4
 74
0
 40
0
 40
0
 40
0
 40
0
 40
1
 40
1
 40
1
 40
1
 10
121.840000
 20
69.120000
 30
0.0
 10
121.600000
 20
71.200000
 30
0.0
 10
120.720000
 20
72.720000
 30
0.0
 10
119.360000
 20
73.680000
 30
0.0
  0
SPLINE
  5
1c2
100
AcDbEntity
  8
0
 62
7
100
AcDbSpline
 70
8
 71
3
 72
8
 73
4
 74
0
 40
0
 40
0
 40
0
 40
0
 40
1
 40
1
 40
1
 40
1
 10
119.360000
 20
73.680000
 30
0.0
 10
118.000000
 20
74.720000
 30
0.0
 10
116.080000
 20
75.280000
 30
0.0
 10
113.680000
 20
75.280000
 30
0.0
  0
SPLINE
  5
1c3
100
AcDbEntity
  8
0
 62
7
100
AcDbSpline
 70
8
 71
3
 72
8
 73
4
 74
0
 40
0
 40
0
 40
0
 40
0
 40
1
 40
1
 40
1
 40
1
 10
113.680000
 20
75.280000
 30
0.0
 10
111.280000
 20
75.280000
 30
0.0
 10
109.280000
 20
74.800000
 30
0.0
 10
107.840000
 20
74.000000
 30
0.0
  0
SPLINE
  5
1c4
100
AcDbEntity
  8
0
 62
7
100
AcDbSpline
 70
8
 71
3
 72
8
 73
4
 74
0
 40
0
 40
0
 40
0
 40
0
 40
1
 40
1
 40
1
 40
1
 10
107.840000
 20
74.000000
 30
0.0
 10
106.320000
 20
73.200000
 30
0.0
 10
105.600000
 20
72.000000
 30
0.0
 10
105.600000
 20
70.400000
 30
0.0
  0
SPLINE
  5
1c5
100
AcDbEntity
  8
0
 62
7
100
AcDbSpline
 70
8
 71
3
 72
8
 73
4
 74
0
 40
0
 40
0
 40
0
 40
0
 40
1
 40
1
 40
1
 40
1
 10
105.600000
 20
70.400000
 30
0.0
 10
105.600000
 20
68.960000
 30
0.0
 10
106.160000
 20
67.920000
 30
0.0
 10
107.360000
 20
67.280000
 30
0.0
  0
SPLINE
  5
1c6
100
AcDbEntity
  8
0
 62
7
100
AcDbSpline
 70
8
 71
3
 72
8
 73
4
 74
0
 40
0
 40
0
 40
0
 40
0
 40
1
 40
1
 40
1
 40
1
 10
107.360000
 20
67.280000
 30
0.0
 10
108.560000
 20
66.640000
 30
0.0
 10
110.880000
 20
65.840000
 30
0.0
 10
114.400000
 20
64.960000
 30
0.0
  0
SPLINE
  5
1c7
100
AcDbEntity
  8
0
 62
7
100
AcDbSpline
 70
8
 71
3
 72
8
 73
4
 74
0
 40
0
 40
0
 40
0
 40
0
 40
1
 40
1
 40
1
 40
1
 10
114.400000
 20
64.960000
 30
0.0
 10
118.320000
 20
63.920000
 30
0.0
 10
121.280000
 20
63.040000
 30
0.0
 10
123.200000
 20
62.240000
 30
0.0
  0
SPLINE
  5
1c8
100
AcDbEntity
  8
0
 62
7
100
AcDbSpline
 70
8
 71
3
 72
8
 73
4
 74
0
 40
0
 40
0
 40
0
 40
0
 40
1
 40
1
 40
1
 40
1
 10
123.200000
 20
62.240000
 30
0.0
 10
125.200000
 20
61.520000
 30
0.0
 10
126.720000
 20
60.400000
 30
0.0
 10
127.760000
 20
59.040000
 30
0.0
  0
SPLINE
  5
1c9
100
AcDbEntity
  8
0
 62
7
100
AcDbSpline
 70
8
 71
3
 72
8
 73
4
 74
0
 40
0
 40
0
 40
0
 40
0
 40
1
 40
1
 40
1
 40
1
 10
127.760000
 20
59.040000
 30
0.0
 10
128.880000
 20
57.600000
 30
0.0
 10
129.440000
 20
55.680000
 30
0.0
 10
129.440000
 20
53.200000
 30
0.0
  0
SPLINE
  5
1ca
100
AcDbEntity
  8
0
 62
7
100
AcDbSpline
 70
8
 71
3
 72
8
 73
4
 74
0
 40
0
 40
0
 40
0
 40
0
 40
1
 40
1
 40
1
 40
1
 10
129.440000
 20
53.200000
 30
0.0
 10
129.440000
 20
49.840000
 30
0.0
 10
128.080000
 20
47.040000
 30
0.0
 10
125.360000
 20
44.800000
 30
0.0
  0
SPLINE
  5
1cb
100
AcDbEntity
  8
0
 62
7
100
AcDbSpline
 70
8
 71
3
 72
8
 73
4
 74
0
 40
0
 40
0
 40
0
 40
0
 40
1
 40
1
 40
1
 40
1
 10
125.360000
 20
44.800000
 30
0.0
 10
122.640000
 20
42.560000
 30
0.0
 10
118.960000
 20
41.360000
 30
0.0
 10
114.400000
 20
41.360000
 30
0.0
  0
SPLINE
  5
1cc
100
AcDbEntity
  8
0
 62
7
100
AcDbSpline
 70
8
 71
3
 72
8
 73
4
 74
0
 40
0
 40
0
 40
0
 40
0
 40
1
 40
1
 40
1
 40
1
 10
114.400000
 20
41.360000
 30
0.0
 10
109.680000
 20
41.360000
 30
0.0
 10
106.000000
 20
42.400000
 30
0.0
 10
103.360000
 20
44.400000
 30
0.0
  0
SPLINE
  5
1cd
100
AcDbEntity
  8
0
 62
7
100
AcDbSpline
 70
8
 71
3
 72
8
 73
4
 74
0
 40
0
 40
0
 40
0
 40
0
 40
1
 40
1
 40
1
 40
1
 10
103.360000
 20
44.400000
 30
0.0
 10
100.720000
 20
46.400000
 30
0.0
 10
99.040000
 20
49.440000
 30
0.0
 10
98.400000
 20
53.440000
 30
0.0
  0
LINE
  5
1ce
100
AcDbEntity
  8
0
 62
7
100
AcDbLine
 10
98.400000
 20
53.440000
 30
0.0
 11
104.720000
 21
54.400000
 31
0.0
  0
SPLINE
  5
1cf
100
AcDbEntity
  8
0
 62
7
100
AcDbSpline
 70
8
 71
3
 72
8
 73
4
 74
0
 40
0
 40
0
 40
0
 40
0
 40
1
 40
1
 40
1
 40
1
 10
104.720000
 20
54.400000
 30
0.0
 10
105.040000
 20
51.760000
 30
0.0
 10
106.000000
 20
49.840000
 30
0.0
 10
107.600000
 20
48.560000
 30
0.0
  0
SPLINE
  5
1d0
100
AcDbEntity
  8
0
 62
7
100
AcDbSpline
 70
8
 71
3
 72
8
 73
4
 74
0
 40
0
 40
0
 40
0
 40
0
 40
1
 40
1
 40
1
 40
1
 10
107.600000
 20
48.560000
 30
0.0
 10
109.200000
 20
47.200000
 30
0.0
 10
111.440000
 20
46.560000
 30
0.0
 10
114.400000
 20
46.560000
 30
0.0
  0
SPLINE
  5
1d1
100
AcDbEntity
  8
0
 62
7
100
AcDbSpline
 70
8
 71
3
 72
8
 73
4
 74
0
 40
0
 40
0
 40
0
 40
0
 40
1
 40
1
 40
1
 40
1
 10
114.400000
 20
46.560000
 30
0.0
 10
117.120000
 20
46.560000
 30
0.0
 10
119.280000
 20
47.200000
 30
0.0
 10
120.720000
 20
48.320000
 30
0.0
  0
SPLINE
  5
1d2
100
AcDbEntity
  8
0
 62
7
100
AcDbSpline
 70
8
 71
3
 72
8
 73
4
 74
0
 40
0
 40
0
 40
0
 40
0
 40
1
 40
1
 40
1
 40
1
 10
120.720000
 20
48.320000
 30
0.0
 10
122.240000
 20
49.520000
 30
0.0
 10
122.960000
 20
50.880000
 30
0.0
 10
122.960000
 20
52.560000
 30
0.0
  0
SPLINE
  5
1d3
100
AcDbEntity
  8
0
 62
7
100
AcDbSpline
 70
8
 71
3
 72
8
 73
4
 74
0
 40
0
 40
0
 40
0
 40
0
 40
1
 40
1
 40
1
 40
1
 10
122.960000
 20
52.560000
 30
0.0
 10
122.960000
 20
53.680000
 30
0.0
 10
122.640000
 20
54.560000
 30
0.0
 10
121.920000
 20
55.280000
 30
0.0
  0
SPLINE
  5
1d4
100
AcDbEntity
  8
0
 62
7
100
AcDbSpline
 70
8
 71
3
 72
8
 73
4
 74
0
 40
0
 40
0
 40
0
 40
0
 40
1
 40
1
 40
1
 40
1
 10
121.920000
 20
55.280000
 30
0.0
 10
121.280000
 20
55.920000
 30
0.0
 10
120.400000
 20
56.480000
 30
0.0
 10
119.360000
 20
56.800000
 30
0.0
  0
SPLINE
  5
1d5
100
AcDbEntity
  8
0
 62
7
100
AcDbSpline
 70
8
 71
3
 72
8
 73
4
 74
0
 40
0
 40
0
 40
0
 40
0
 40
1
 40
1
 40
1
 40
1
 10
119.360000
 20
56.800000
 30
0.0
 10
118.320000
 20
57.120000
 30
0.0
 10
116.080000
 20
57.760000
 30
0.0
 10
112.480000
 20
58.640000
 30
0.0
  0
SPLINE
  5
1d6
100
AcDbEntity
  8
0
 62
7
100
AcDbSpline
 70
8
 71
3
 72
8
 73
4
 74
0
 40
0
 40
0
 40
0
 40
0
 40
1
 40
1
 40
1
 40
1
 10
112.480000
 20
58.640000
 30
0.0
 10
107.200000
 20
59.920000
 30
0.0
 10
103.680000
 20
61.440000
 30
0.0
 10
102.000000
 20
63.200000
 30
0.0
  0
SPLINE
  5
1d7
100
AcDbEntity
  8
0
 62
7
100
AcDbSpline
 70
8
 71
3
 72
8
 73
4
 74
0
 40
0
 40
0
 40
0
 40
0
 40
1
 40
1
 40
1
 40
1
 10
102.000000
 20
63.200000
 30
0.0
 10
100.320000
 20
65.040000
 30
0.0
 10
99.440000
 20
67.200000
 30
0.0
 10
99.440000
 20
69.680000
 30
0.0
  0
SPLINE
  5
1d8
100
AcDbEntity
  8
0
 62
7
100
AcDbSpline
 70
8
 71
3
 72
8
 73
4
 74
0
 40
0
 40
0
 40
0
 40
0
 40
1
 40
1
 40
1
 40
1
 10
99.440000
 20
69.680000
 30
0.0
 10
99.440000
 20
72.800000
 30
0.0
 10
100.720000
 20
75.360000
 30
0.0
 10
103.200000
 20
77.360000
 30
0.0
  0
SPLINE
  5
1d9
100
AcDbEntity
  8
0
 62
7
100
AcDbSpline
 70
8
 71
3
 72
8
 73
4
 74
0
 40
0
 40
0
 40
0
 40
0
 40
1
 40
1
 40
1
 40
1
 10
103.200000
 20
77.360000
 30
0.0
 10
105.680000
 20
79.440000
 30
0.0
 10
109.040000
 20
80.400000
 30
0.0
 10
113.200000
 20
80.400000
 30
0.0
  0
SPLINE
  5
1da
100
AcDbEntity
  8
0
 62
7
100
AcDbSpline
 70
8
 71
3
 72
8
 73
4
 74
0
 40
0
 40
0
 40
0
 40
0
 40
1
 40
1
 40
1
 40
1
 10
113.200000
 20
80.400000
 30
0.0
 10
117.680000
 20
80.400000
 30
0.0
 10
121.120000
 20
79.520000
 30
0.0
 10
123.600000
 20
77.760000
 30
0.0
  0
SPLINE
  5
1db
100
AcDbEntity
  8
0
 62
7
100
AcDbSpline
 70
8
 71
3
 72
8
 73
4
 74
0
 40
0
 40
0
 40
0
 40
0
 40
1
 40
1
 40
1
 40
1
 10
123.600000
 20
77.760000
 30
0.0
 10
126.080000
 20
76.080000
 30
0.0
 10
127.520000
 20
73.440000
 30
0.0
 10
128.000000
 20
70.000000
 30
0.0
  0
LINE
  5
1dc
100
AcDbEntity
  8
0
 62
7
100
AcDbLine
 10
128.000000
 20
70.000000
 30
0.0
 11
121.840000
 21
69.120000
 31
0.0
  0
LINE
  5
1dd
100
AcDbEntity
  8
0
 62
7
100
AcDbLine
 10
121.840000
 20
69.120000
 30
0.0
 11
121.840000
 21
69.120000
 31
0.0
  0
SPLINE
  5
1de
100
AcDbEntity
  8
0
 62
7
100
AcDbSpline
 70
8
 71
3
 72
8
 73
4
 74
0
 40
0
 40
0
 40
0
 40
0
 40
1
 40
1
 40
1
 40
1
 10
151.600000
 20
42.320000
 30
0.0
 10
149.680000
 20
42.000000
 30
0.0
 10
148.160000
 20
41.760000
 30
0.0
 10
146.880000
 20
41.760000
 30
0.0
  0
SPLINE
  5
1df
100
AcDbEntity
  8
0
 62
7
100
AcDbSpline
 70
8
 71
3
 72
8
 73
4
 74
0
 40
0
 40
0
 40
0
 40
0
 40
1
 40
1
 40
1
 40
1
 10
146.880000
 20
41.760000
 30
0.0
 10
144.080000
 20
41.760000
 30
0.0
 10
142.080000
 20
42.240000
 30
0.0
 10
140.800000
 20
43.200000
 30
0.0
  0
SPLINE
  5
1e0
100
AcDbEntity
  8
0
 62
7
100
AcDbSpline
 70
8
 71
3
 72
8
 73
4
 74
0
 40
0
 40
0
 40
0
 40
0
 40
1
 40
1
 40
1
 40
1
 10
140.800000
 20
43.200000
 30
0.0
 10
139.520000
 20
44.240000
 30
0.0
 10
138.800000
 20
45.440000
 30
0.0
 10
138.480000
 20
46.960000
 30
0.0
  0
SPLINE
  5
1e1
100
AcDbEntity
  8
0
 62
7
100
AcDbSpline
 70
8
 71
3
 72
8
 73
4
 74
0
 40
0
 40
0
 40
0
 40
0
 40
1
 40
1
 40
1
 40
1
 10
138.480000
 20
46.960000
 30
0.0
 10
138.160000
 20
48.480000
 30
0.0
 10
138.080000
 20
50.560000
 30
0.0
 10
138.080000
 20
53.200000
 30
0.0
  0
LINE
  5
1e2
100
AcDbEntity
  8
0
 62
7
100
AcDbLine
 10
138.080000
 20
53.200000
 30
0.0
 11
138.080000
 21
74.720000
 31
0.0
  0
LINE
  5
1e3
100
AcDbEntity
  8
0
 62
7
100
AcDbLine
 10
138.080000
 20
74.720000
 30
0.0
 11
133.440000
 21
74.720000
 31
0.0
  0
LINE
  5
1e4
100
AcDbEntity
  8
0
 62
7
100
AcDbLine
 10
133.440000
 20
74.720000
 30
0.0
 11
133.440000
 21
79.600000
 31
0.0
  0
LINE
  5
1e5
100
AcDbEntity
  8
0
 62
7
100
AcDbLine
 10
133.440000
 20
79.600000
 30
0.0
 11
138.080000
 21
79.600000
 31
0.0
  0
LINE
  5
1e6
100
AcDbEntity
  8
0
 62
7
100
AcDbLine
 10
138.080000
 20
79.600000
 30
0.0
 11
138.080000
 21
88.880000
 31
0.0
  0
LINE
  5
1e7
100
AcDbEntity
  8
0
 62
7
100
AcDbLine
 10
138.080000
 20
88.880000
 30
0.0
 11
144.400000
 21
92.720000
 31
0.0
  0
LINE
  5
1e8
100
AcDbEntity
  8
0
 62
7
100
AcDbLine
 10
144.400000
 20
92.720000
 30
0.0
 11
144.400000
 21
79.600000
 31
0.0
  0
LINE
  5
1e9
100
AcDbEntity
  8
0
 62
7
100
AcDbLine
 10
144.400000
 20
79.600000
 30
0.0
 11
150.720000
 21
79.600000
 31
0.0
  0
LINE
  5
1ea
100
AcDbEntity
  8
0
 62
7
100
AcDbLine
 10
150.720000
 20
79.600000
 30
0.0
 11
150.720000
 21
74.720000
 31
0.0
  0
LINE
  5
1eb
100
AcDbEntity
  8
0
 62
7
100
AcDbLine
 10
150.720000
 20
74.720000
 30
0.0
 11
144.400000
 21
74.720000
 31
0.0
  0
LINE
  5
1ec
100
AcDbEntity
  8
0
 62
7
100
AcDbLine
 10
144.400000
 20
74.720000
 30
0.0
 11
144.400000
 21
52.880000
 31
0.0
  0
SPLINE
  5
1ed
100
AcDbEntity
  8
0
 62
7
100
AcDbSpline
 70
8
 71
3
 72
8
 73
4
 74
0
 40
0
 40
0
 40
0
 40
0
 40
1
 40
1
 40
1
 40
1
 10
144.400000
 20
52.880000
 30
0.0
 10
144.400000
 20
50.960000
 30
0.0
 10
144.560000
 20
49.680000
 30
0.0
 10
144.960000
 20
48.880000
 30
0.0
  0
SPLINE
  5
1ee
100
AcDbEntity
  8
0
 62
7
100
AcDbSpline
 70
8
 71
3
 72
8
 73
4
 74
0
 40
0
 40
0
 40
0
 40
0
 40
1
 40
1
 40
1
 40
1
 10
144.960000
 20
48.880000
 30
0.0
 10
145.360000
 20
48.080000
 30
0.0
 10
146.320000
 20
47.680000
 30
0.0
 10
147.920000
 20
47.680000
 30
0.0
  0
SPLINE
  5
1ef
100
AcDbEntity
  8
0
 62
7
100
AcDbSpline
 70
8
 71
3
 72
8
 73
4
 74
0
 40
0
 40
0
 40
0
 40
0
 40
1
 40
1
 40
1
 40
1
 10
147.920000
 20
47.680000
 30
0.0
 10
148.800000
 20
47.680000
 30
0.0
 10
149.760000
 20
47.760000
 30
0.0
 10
150.720000
 20
48.000000
 30
0.0
  0
LINE
  5
1f0
100
AcDbEntity
  8
0
 62
7
100
AcDbLine
 10
150.720000
 20
48.000000
 30
0.0
 11
151.600000
 21
42.320000
 31
0.0
  0
LINE
  5
1f1
100
AcDbEntity
  8
0
 62
7
100
AcDbLine
 10
151.600000
 20
42.320000
 30
0.0
 11
151.600000
 21
42.320000
 31
0.0
  0
SPLINE
  5
1f2
100
AcDbEntity
  8
0
 62
7
100
AcDbSpline
 70
8
 71
3
 72
8
 73
4
 74
0
 40
0
 40
0
 40
0
 40
0
 40
1
 40
1
 40
1
 40
1
 10
172.240000
 20
80.400000
 30
0.0
 10
177.280000
 20
80.400000
 30
0.0
 10
181.440000
 20
78.800000
 30
0.0
 10
184.800000
 20
75.520000
 30
0.0
  0
SPLINE
  5
1f3
100
AcDbEntity
  8
0
 62
7
100
AcDbSpline
 70
8
 71
3
 72
8
 73
4
 74
0
 40
0
 40
0
 40
0
 40
0
 40
1
 40
1
 40
1
 40
1
 10
184.800000
 20
75.520000
 30
0.0
 10
188.080000
 20
72.240000
 30
0.0
 10
189.760000
 20
67.520000
 30
0.0
 10
189.760000
 20
61.520000
 30
0.0
  0
SPLINE
  5
1f4
100
AcDbEntity
  8
0
 62
7
100
AcDbSpline
 70
8
 71
3
 72
8
 73
4
 74
0
 40
0
 40
0
 40
0
 40
0
 40
1
 40
1
 40
1
 40
1
 10
189.760000
 20
61.520000
 30
0.0
 10
189.760000
 20
54.160000
 30
0.0
 10
187.920000
 20
48.960000
 30
0.0
 10
184.320000
 20
45.920000
 30
0.0
  0
SPLINE
  5
1f5
100
AcDbEntity
  8
0
 62
7
100
AcDbSpline
 70
8
 71
3
 72
8
 73
4
 74
0
 40
0
 40
0
 40
0
 40
0
 40
1
 40
1
 40
1
 40
1
 10
184.320000
 20
45.920000
 30
0.0
 10
180.800000
 20
42.880000
 30
0.0
 10
176.720000
 20
41.360000
 30
0.0
 10
172.240000
 20
41.360000
 30
0.0
  0
SPLINE
  5
1f6
100
AcDbEntity
  8
0
 62
7
100
AcDbSpline
 70
8
 71
3
 72
8
 73
4
 74
0
 40
0
 40
0
 40
0
 40
0
 40
1
 40
1
 40
1
 40
1
 10
172.240000
 20
41.360000
 30
0.0
 10
167.520000
 20
41.360000
 30
0.0
 10
163.440000
 20
42.960000
 30
0.0
 10
159.920000
 20
46.080000
 30
0.0
  0
SPLINE
  5
1f7
100
AcDbEntity
  8
0
 62
7
100
AcDbSpline
 70
8
 71
3
 72
8
 73
4
 74
0
 40
0
 40
0
 40
0
 40
0
 40
1
 40
1
 40
1
 40
1
 10
159.920000
 20
46.080000
 30
0.0
 10
156.480000
 20
49.200000
 30
0.0
 10
154.720000
 20
54.160000
 30
0.0
 10
154.720000
 20
60.880000
 30
0.0
  0
SPLINE
  5
1f8
100
AcDbEntity
  8
0
 62
7
100
AcDbSpline
 70
8
 71
3
 72
8
 73
4
 74
0
 40
0
 40
0
 40
0
 40
0
 40
1
 40
1
 40
1
 40
1
 10
154.720000
 20
60.880000
 30
0.0
 10
154.720000
 20
67.440000
 30
0.0
 10
156.400000
 20
72.320000
 30
0.0
 10
159.760000
 20
75.600000
 30
0.0
  0
SPLINE
  5
1f9
100
AcDbEntity
  8
0
 62
7
100
AcDbSpline
 70
8
 71
3
 72
8
 73
4
 74
0
 40
0
 40
0
 40
0
 40
0
 40
1
 40
1
 40
1
 40
1
 10
159.760000
 20
75.600000
 30
0.0
 10
163.120000
 20
78.800000
 30
0.0
 10
167.280000
 20
80.400000
 30
0.0
 10
172.240000
 20
80.400000
 30
0.0
  0
LINE
  5
1fa
100
AcDbEntity
  8
0
 62
7
100
AcDbLine
 10
172.240000
 20
80.400000
 30
0.0
 11
172.240000
 21
80.400000
 31
0.0
  0
SPLINE
  5
1fb
100
AcDbEntity
  8
0
 62
7
100
AcDbSpline
 70
8
 71
3
 72
8
 73
4
 74
0
 40
0
 40
0
 40
0
 40
0
 40
1
 40
1
 40
1
 40
1
 10
172.240000
 20
46.560000
 30
0.0
 10
175.840000
 20
46.560000
 30
0.0
 10
178.560000
 20
47.920000
 30
0.0
 10
180.480000
 20
50.640000
 30
0.0
  0
SPLINE
  5
1fc
100
AcDbEntity
  8
0
 62
7
100
AcDbSpline
 70
8
 71
3
 72
8
 73
4
 74
0
 40
0
 40
0
 40
0
 40
0
 40
1
 40
1
 40
1
 40
1
 10
180.480000
 20
50.640000
 30
0.0
 10
182.320000
 20
53.280000
 30
0.0
 10
183.280000
 20
56.800000
 30
0.0
 10
183.280000
 20
61.120000
 30
0.0
  0
SPLINE
  5
1fd
100
AcDbEntity
  8
0
 62
7
100
AcDbSpline
 70
8
 71
3
 72
8
 73
4
 74
0
 40
0
 40
0
 40
0
 40
0
 40
1
 40
1
 40
1
 40
1
 10
183.280000
 20
61.120000
 30
0.0
 10
183.280000
 20
65.840000
 30
0.0
 10
182.240000
 20
69.360000
 30
0.0
 10
180.080000
 20
71.680000
 30
0.0
  0
SPLINE
  5
1fe
100
AcDbEntity
  8
0
 62
7
100
AcDbSpline
 70
8
 71
3
 72
8
 73
4
 74
0
 40
0
 40
0
 40
0
 40
0
 40
1
 40
1
 40
1
 40
1
 10
180.080000
 20
71.680000
 30
0.0
 10
178.000000
 20
74.080000
 30
0.0
 10
175.360000
 20
75.280000
 30
0.0
 10
172.240000
 20
75.280000
 30
0.0
  0
SPLINE
  5
1ff
100
AcDbEntity
  8
0
 62
7
100
AcDbSpline
 70
8
 71
3
 72
8
 73
4
 74
0
 40
0
 40
0
 40
0
 40
0
 40
1
 40
1
 40
1
 40
1
 10
172.240000
 20
75.280000
 30
0.0
 10
169.040000
 20
75.280000
 30
0.0
 10
166.400000
 20
74.080000
 30
0.0
 10
164.320000
 20
71.680000
 30
0.0
  0
SPLINE
  5
200
100
AcDbEntity
  8
0
 62
7
100
AcDbSpline
 70
8
 71
3
 72
8
 73
4
 74
0
 40
0
 40
0
 40
0
 40
0
 40
1
 40
1
 40
1
 40
1
 10
164.320000
 20
71.680000
 30
0.0
 10
162.240000
 20
69.280000
 30
0.0
 10
161.200000
 20
65.680000
 30
0.0
 10
161.200000
 20
60.880000
 30
0.0
  0
SPLINE
  5
201
100
AcDbEntity
  8
0
 62
7
100
AcDbSpline
 70
8
 71
3
 72
8
 73
4
 74
0
 40
0
 40
0
 40
0
 40
0
 40
1
 40
1
 40
1
 40
1
 10
161.200000
 20
60.880000
 30
0.0
 10
161.200000
 20
56.160000
 30
0.0
 10
162.240000
 20
52.640000
 30
0.0
 10
164.400000
 20
50.160000
 30
0.0
  0
SPLINE
  5
202
100
AcDbEntity
  8
0
 62
7
100
AcDbSpline
 70
8
 71
3
 72
8
 73
4
 74
0
 40
0
 40
0
 40
0
 40
0
 40
1
 40
1
 40
1
 40
1
 10
164.400000
 20
50.160000
 30
0.0
 10
166.480000
 20
47.760000
 30
0.0
 10
169.120000
 20
46.560000
 30
0.0
 10
172.240000
 20
46.560000
 30
0.0
  0
LINE
  5
203
100
AcDbEntity
  8
0
 62
7
100
AcDbLine
 10
172.240000
 20
46.560000
 30
0.0
 11
172.240000
 21
46.560000
 31
0.0
  0
LINE
  5
204
100
AcDbEntity
  8
0
 62
7
100
AcDbLine
 10
227.280000
 20
42.240000
 30
0.0
 11
221.680000
 21
42.240000
 31
0.0
  0
LINE
  5
205
100
AcDbEntity
  8
0
 62
7
100
AcDbLine
 10
221.680000
 20
42.240000
 30
0.0
 11
221.680000
 21
47.760000
 31
0.0
  0
LINE
  5
206
100
AcDbEntity
  8
0
 62
7
100
AcDbLine
 10
221.680000
 20
47.760000
 30
0.0
 11
221.520000
 21
47.760000
 31
0.0
  0
SPLINE
  5
207
100
AcDbEntity
  8
0
 62
7
100
AcDbSpline
 70
8
 71
3
 72
8
 73
4
 74
0
 40
0
 40
0
 40
0
 40
0
 40
1
 40
1
 40
1
 40
1
 10
221.520000
 20
47.760000
 30
0.0
 10
218.640000
 20
43.520000
 30
0.0
 10
214.720000
 20
41.360000
 30
0.0
 10
209.760000
 20
41.360000
 30
0.0
  0
SPLINE
  5
208
100
AcDbEntity
  8
0
 62
7
100
AcDbSpline
 70
8
 71
3
 72
8
 73
4
 74
0
 40
0
 40
0
 40
0
 40
0
 40
1
 40
1
 40
1
 40
1
 10
209.760000
 20
41.360000
 30
0.0
 10
207.200000
 20
41.360000
 30
0.0
 10
204.800000
 20
42.000000
 30
0.0
 10
202.560000
 20
43.200000
 30
0.0
  0
SPLINE
  5
209
100
AcDbEntity
  8
0
 62
7
100
AcDbSpline
 70
8
 71
3
 72
8
 73
4
 74
0
 40
0
 40
0
 40
0
 40
0
 40
1
 40
1
 40
1
 40
1
 10
202.560000
 20
43.200000
 30
0.0
 10
200.320000
 20
44.400000
 30
0.0
 10
198.880000
 20
46.080000
 30
0.0
 10
198.160000
 20
48.160000
 30
0.0
  0
SPLINE
  5
20a
100
AcDbEntity
  8
0
 62
7
100
AcDbSpline
 70
8
 71
3
 72
8
 73
4
 74
0
 40
0
 40
0
 40
0
 40
0
 40
1
 40
1
 40
1
 40
1
 10
198.160000
 20
48.160000
 30
0.0
 10
197.360000
 20
50.320000
 30
0.0
 10
197.040000
 20
53.040000
 30
0.0
 10
197.040000
 20
56.400000
 30
0.0
  0
LINE
  5
20b
100
AcDbEntity
  8
0
 62
7
100
AcDbLine
 10
197.040000
 20
56.400000
 30
0.0
 11
197.040000
 21
79.600000
 31
0.0
  0
LINE
  5
20c
100
AcDbEntity
  8
0
 62
7
100
AcDbLine
 10
197.040000
 20
79.600000
 30
0.0
 11
203.360000
 21
79.600000
 31
0.0
  0
LINE
  5
20d
100
AcDbEntity
  8
0
 62
7
100
AcDbLine
 10
203.360000
 20
79.600000
 30
0.0
 11
203.360000
 21
58.880000
 31
0.0
  0
SPLINE
  5
20e
100
AcDbEntity
  8
0
 62
7
100
AcDbSpline
 70
8
 71
3
 72
8
 73
4
 74
0
 40
0
 40
0
 40
0
 40
0
 40
1
 40
1
 40
1
 40
1
 10
203.360000
 20
58.880000
 30
0.0
 10
203.360000
 20
55.600000
 30
0.0
 10
203.520000
 20
53.200000
 30
0.0
 10
203.840000
 20
51.760000
 30
0.0
  0
SPLINE
  5
20f
100
AcDbEntity
  8
0
 62
7
100
AcDbSpline
 70
8
 71
3
 72
8
 73
4
 74
0
 40
0
 40
0
 40
0
 40
0
 40
1
 40
1
 40
1
 40
1
 10
203.840000
 20
51.760000
 30
0.0
 10
204.160000
 20
50.400000
 30
0.0
 10
204.960000
 20
49.200000
 30
0.0
 10
206.320000
 20
48.240000
 30
0.0
  0
SPLINE
  5
210
100
AcDbEntity
  8
0
 62
7
100
AcDbSpline
 70
8
 71
3
 72
8
 73
4
 74
0
 40
0
 40
0
 40
0
 40
0
 40
1
 40
1
 40
1
 40
1
 10
206.320000
 20
48.240000
 30
0.0
 10
207.600000
 20
47.360000
 30
0.0
 10
209.200000
 20
46.880000
 30
0.0
 10
211.040000
 20
46.880000
 30
0.0
  0
SPLINE
  5
211
100
AcDbEntity
  8
0
 62
7
100
AcDbSpline
 70
8
 71
3
 72
8
 73
4
 74
0
 40
0
 40
0
 40
0
 40
0
 40
1
 40
1
 40
1
 40
1
 10
211.040000
 20
46.880000
 30
0.0
 10
213.440000
 20
46.880000
 30
0.0
 10
215.680000
 20
47.680000
 30
0.0
 10
217.840000
 20
49.360000
 30
0.0
  0
SPLINE
  5
212
100
AcDbEntity
  8
0
 62
7
100
AcDbSpline
 70
8
 71
3
 72
8
 73
4
 74
0
 40
0
 40
0
 40
0
 40
0
 40
1
 40
1
 40
1
 40
1
 10
217.840000
 20
49.360000
 30
0.0
 10
219.920000
 20
51.040000
 30
0.0
 10
220.960000
 20
54.400000
 30
0.0
 10
220.960000
 20
59.600000
 30
0.0
  0
LINE
  5
213
100
AcDbEntity
  8
0
 62
7
100
AcDbLine
 10
220.960000
 20
59.600000
 30
0.0
 11
220.960000
 21
79.600000
 31
0.0
  0
LINE
  5
214
100
AcDbEntity
  8
0
 62
7
100
AcDbLine
 10
220.960000
 20
79.600000
 30
0.0
 11
227.280000
 21
79.600000
 31
0.0
  0
LINE
  5
215
100
AcDbEntity
  8
0
 62
7
100
AcDbLine
 10
227.280000
 20
79.600000
 30
0.0
 11
227.280000
 21
42.240000
 31
0.0
  0
LINE
  5
216
100
AcDbEntity
  8
0
 62
7
100
AcDbLine
 10
227.280000
 20
42.240000
 30
0.0
 11
227.280000
 21
42.240000
 31
0.0
  0
LINE
  5
217
100
AcDbEntity
  8
0
 62
7
100
AcDbLine
 10
243.440000
 20
42.240000
 30
0.0
 11
237.120000
 21
42.240000
 31
0.0
  0
LINE
  5
218
100
AcDbEntity
  8
0
 62
7
100
AcDbLine
 10
237.120000
 20
42.240000
 30
0.0
 11
237.120000
 21
79.600000
 31
0.0
  0
LINE
  5
219
100
AcDbEntity
  8
0
 62
7
100
AcDbLine
 10
237.120000
 20
79.600000
 30
0.0
 11
243.440000
 21
79.600000
 31
0.0
  0
LINE
  5
21a
100
AcDbEntity
  8
0
 62
7
100
AcDbLine
 10
243.440000
 20
79.600000
 30
0.0
 11
243.440000
 21
42.240000
 31
0.0
  0
LINE
  5
21b
100
AcDbEntity
  8
0
 62
7
100
AcDbLine
 10
243.440000
 20
42.240000
 30
0.0
 11
243.440000
 21
42.240000
 31
0.0
  0
LINE
  5
21c
100
AcDbEntity
  8
0
 62
7
100
AcDbLine
 10
243.440000
 20
86.640000
 30
0.0
 11
237.120000
 21
86.640000
 31
0.0
  0
LINE
  5
21d
100
AcDbEntity
  8
0
 62
7
100
AcDbLine
 10
237.120000
 20
86.640000
 30
0.0
 11
237.120000
 21
93.840000
 31
0.0
  0
LINE
  5
21e
100
AcDbEntity
  8
0
 62
7
100
AcDbLine
 10
237.120000
 20
93.840000
 30
0.0
 11
243.440000
 21
93.840000
 31
0.0
  0
LINE
  5
21f
100
AcDbEntity
  8
0
 62
7
100
AcDbLine
 10
243.440000
 20
93.840000
 30
0.0
 11
243.440000
 21
86.640000
 31
0.0
  0
LINE
  5
220
100
AcDbEntity
  8
0
 62
7
100
AcDbLine
 10
243.440000
 20
86.640000
 30
0.0
 11
243.440000
 21
86.640000
 31
0.0
  0
LINE
  5
221
100
AcDbEntity
  8
0
 62
7
100
AcDbLine
 10
259.440000
 20
42.240000
 30
0.0
 11
253.120000
 21
42.240000
 31
0.0
  0
LINE
  5
222
100
AcDbEntity
  8
0
 62
7
100
AcDbLine
 10
253.120000
 20
42.240000
 30
0.0
 11
253.120000
 21
93.840000
 31
0.0
  0
LINE
  5
223
100
AcDbEntity
  8
0
 62
7
100
AcDbLine
 10
253.120000
 20
93.840000
 30
0.0
 11
259.440000
 21
93.840000
 31
0.0
  0
LINE
  5
224
100
AcDbEntity
  8
0
 62
7
100
AcDbLine
 10
259.440000
 20
93.840000
 30
0.0
 11
259.440000
 21
42.240000
 31
0.0
  0
LINE
  5
225
100
AcDbEntity
  8
0
 62
7
100
AcDbLine
 10
259.440000
 20
42.240000
 30
0.0
 11
259.440000
 21
42.240000
 31
0.0
  0
LINE
  5
226
100
AcDbEntity
  8
0
 62
7
100
AcDbLine
 10
275.440000
 20
42.240000
 30
0.0
 11
269.120000
 21
42.240000
 31
0.0
  0
LINE
  5
227
100
AcDbEntity
  8
0
 62
7
100
AcDbLine
 10
269.120000
 20
42.240000
 30
0.0
 11
269.120000
 21
93.840000
 31
0.0
  0
LINE
  5
228
100
AcDbEntity
  8
0
 62
7
100
AcDbLine
 10
269.120000
 20
93.840000
 30
0.0
 11
275.440000
 21
93.840000
 31
0.0
  0
LINE
  5
229
100
AcDbEntity
  8
0
 62
7
100
AcDbLine
 10
275.440000
 20
93.840000
 30
0.0
 11
275.440000
 21
42.240000
 31
0.0
  0
LINE
  5
22a
100
AcDbEntity
  8
0
 62
7
100
AcDbLine
 10
275.440000
 20
42.240000
 30
0.0
 11
275.440000
 21
42.240000
 31
0.0
  0
LINE
  5
22b
100
AcDbEntity
  8
0
 62
7
100
AcDbLine
 10
317.520000
 20
59.360000
 30
0.0
 11
289.600000
 21
59.360000
 31
0.0
  0
SPLINE
  5
22c
100
AcDbEntity
  8
0
 62
7
100
AcDbSpline
 70
8
 71
3
 72
8
 73
4
 74
0
 40
0
 40
0
 40
0
 40
0
 40
1
 40
1
 40
1
 40
1
 10
289.600000
 20
59.360000
 30
0.0
 10
289.840000
 20
55.200000
 30
0.0
 10
291.040000
 20
52.080000
 30
0.0
 10
293.120000
 20
49.840000
 30
0.0
  0
SPLINE
  5
22d
100
AcDbEntity
  8
0
 62
7
100
AcDbSpline
 70
8
 71
3
 72
8
 73
4
 74
0
 40
0
 40
0
 40
0
 40
0
 40
1
 40
1
 40
1
 40
1
 10
293.120000
 20
49.840000
 30
0.0
 10
295.200000
 20
47.680000
 30
0.0
 10
297.840000
 20
46.560000
 30
0.0
 10
300.960000
 20
46.560000
 30
0.0
  0
SPLINE
  5
22e
100
AcDbEntity
  8
0
 62
7
100
AcDbSpline
 70
8
 71
3
 72
8
 73
4
 74
0
 40
0
 40
0
 40
0
 40
0
 40
1
 40
1
 40
1
 40
1
 10
300.960000
 20
46.560000
 30
0.0
 10
303.360000
 20
46.560000
 30
0.0
 10
305.440000
 20
47.200000
 30
0.0
 10
307.040000
 20
48.480000
 30
0.0
  0
SPLINE
  5
22f
100
AcDbEntity
  8
0
 62
7
100
AcDbSpline
 70
8
 71
3
 72
8
 73
4
 74
0
 40
0
 40
0
 40
0
 40
0
 40
1
 40
1
 40
1
 40
1
 10
307.040000
 20
48.480000
 30
0.0
 10
308.720000
 20
49.760000
 30
0.0
 10
309.920000
 20
51.680000
 30
0.0
 10
310.800000
 20
54.320000
 30
0.0
  0
LINE
  5
230
100
AcDbEntity
  8
0
 62
7
100
AcDbLine
 10
310.800000
 20
54.320000
 30
0.0
 11
317.280000
 21
53.520000
 31
0.0
  0
SPLINE
  5
231
100
AcDbEntity
  8
0
 62
7
100
AcDbSpline
 70
8
 71
3
 72
8
 73
4
 74
0
 40
0
 40
0
 40
0
 40
0
 40
1
 40
1
 40
1
 40
1
 10
317.280000
 20
53.520000
 30
0.0
 10
316.240000
 20
49.600000
 30
0.0
 10
314.320000
 20
46.640000
 30
0.0
 10
311.520000
 20
44.560000
 30
0.0
  0
SPLINE
  5
232
100
AcDbEntity
  8
0
 62
7
100
AcDbSpline
 70
8
 71
3
 72
8
 73
4
 74
0
 40
0
 40
0
 40
0
 40
0
 40
1
 40
1
 40
1
 40
1
 10
311.520000
 20
44.560000
 30
0.0
 10
308.720000
 20
42.400000
 30
0.0
 10
305.200000
 20
41.360000
 30
0.0
 10
300.960000
 20
41.360000
 30
0.0
  0
SPLINE
  5
233
100
AcDbEntity
  8
0
 62
7
100
AcDbSpline
 70
8
 71
3
 72
8
 73
4
 74
0
 40
0
 40
0
 40
0
 40
0
 40
1
 40
1
 40
1
 40
1
 10
300.960000
 20
41.360000
 30
0.0
 10
295.360000
 20
41.360000
 30
0.0
 10
290.960000
 20
43.120000
 30
0.0
 10
287.840000
 20
46.560000
 30
0.0
  0
SPLINE
  5
234
100
AcDbEntity
  8
0
 62
7
100
AcDbSpline
 70
8
 71
3
 72
8
 73
4
 74
0
 40
0
 40
0
 40
0
 40
0
 40
1
 40
1
 40
1
 40
1
 10
287.840000
 20
46.560000
 30
0.0
 10
284.720000
 20
50.000000
 30
0.0
 10
283.120000
 20
54.640000
 30
0.0
 10
283.120000
 20
60.640000
 30
0.0
  0
SPLINE
  5
235
100
AcDbEntity
  8
0
 62
7
100
AcDbSpline
 70
8
 71
3
 72
8
 73
4
 74
0
 40
0
 40
0
 40
0
 40
0
 40
1
 40
1
 40
1
 40
1
 10
283.120000
 20
60.640000
 30
0.0
 10
283.120000
 20
66.480000
 30
0.0
 10
284.640000
 20
71.280000
 30
0.0
 10
287.680000
 20
74.960000
 30
0.0
  0
SPLINE
  5
236
100
AcDbEntity
  8
0
 62
7
100
AcDbSpline
 70
8
 71
3
 72
8
 73
4
 74
0
 40
0
 40
0
 40
0
 40
0
 40
1
 40
1
 40
1
 40
1
 10
287.680000
 20
74.960000
 30
0.0
 10
290.720000
 20
78.560000
 30
0.0
 10
295.040000
 20
80.400000
 30
0.0
 10
300.640000
 20
80.400000
 30
0.0
  0
SPLINE
  5
237
100
AcDbEntity
  8
0
 62
7
100
AcDbSpline
 70
8
 71
3
 72
8
 73
4
 74
0
 40
0
 40
0
 40
0
 40
0
 40
1
 40
1
 40
1
 40
1
 10
300.640000
 20
80.400000
 30
0.0
 10
303.360000
 20
80.400000
 30
0.0
 10
305.920000
 20
79.840000
 30
0.0
 10
308.480000
 20
78.640000
 30
0.0
  0
SPLINE
  5
238
100
AcDbEntity
  8
0
 62
7
100
AcDbSpline
 70
8
 71
3
 72
8
 73
4
 74
0
 40
0
 40
0
 40
0
 40
0
 40
1
 40
1
 40
1
 40
1
 10
308.480000
 20
78.640000
 30
0.0
 10
310.960000
 20
77.440000
 30
0.0
 10
313.120000
 20
75.360000
 30
0.0
 10
314.880000
 20
72.560000
 30
0.0
  0
SPLINE
  5
239
100
AcDbEntity
  8
0
 62
7
100
AcDbSpline
 70
8
 71
3
 72
8
 73
4
 74
0
 40
0
 40
0
 40
0
 40
0
 40
1
 40
1
 40
1
 40
1
 10
314.880000
 20
72.560000
 30
0.0
 10
316.640000
 20
69.680000
 30
0.0
 10
317.520000
 20
65.280000
 30
0.0
 10
317.520000
 20
59.360000
 30
0.0
  0
LINE
  5
23a
100
AcDbEntity
  8
0
 62
7
100
AcDbLine
 10
317.520000
 20
59.360000
 30
0.0
 11
317.520000
 21
59.360000
 31
0.0
  0
SPLINE
  5
23b
100
AcDbEntity
  8
0
 62
7
100
AcDbSpline
 70
8
 71
3
 72
8
 73
4
 74
0
 40
0
 40
0
 40
0
 40
0
 40
1
 40
1
 40
1
 40
1
 10
311.040000
 20
64.560000
 30
0.0
 10
310.800000
 20
68.320000
 30
0.0
 10
309.600000
 20
71.040000
 30
0.0
 10
307.520000
 20
72.720000
 30
0.0
  0
SPLINE
  5
23c
100
AcDbEntity
  8
0
 62
7
100
AcDbSpline
 70
8
 71
3
 72
8
 73
4
 74
0
 40
0
 40
0
 40
0
 40
0
 40
1
 40
1
 40
1
 40
1
 10
307.520000
 20
72.720000
 30
0.0
 10
305.360000
 20
74.400000
 30
0.0
 10
303.120000
 20
75.280000
 30
0.0
 10
300.640000
 20
75.280000
 30
0.0
  0
SPLINE
  5
23d
100
AcDbEntity
  8
0
 62
7
100
AcDbSpline
 70
8
 71
3
 72
8
 73
4
 74
0
 40
0
 40
0
 40
0
 40
0
 40
1
 40
1
 40
1
 40
1
 10
300.640000
 20
75.280000
 30
0.0
 10
297.680000
 20
75.280000
 30
0.0
 10
295.200000
 20
74.240000
 30
0.0
 10
293.280000
 20
72.240000
 30
0.0
  0
SPLINE
  5
23e
100
AcDbEntity
  8
0
 62
7
100
AcDbSpline
 70
8
 71
3
 72
8
 73
4
 74
0
 40
0
 40
0
 40
0
 40
0
 40
1
 40
1
 40
1
 40
1
 10
293.280000
 20
72.240000
 30
0.0
 10
291.360000
 20
70.240000
 30
0.0
 10
290.240000
 20
67.680000
 30
0.0
 10
289.920000
 20
64.560000
 30
0.0
  0
LINE
  5
23f
100
AcDbEntity
  8
0
 62
7
100
AcDbLine
 10
289.920000
 20
64.560000
 30
0.0
 11
311.040000
 21
64.560000
 31
0.0
  0
LINE
  5
240
100
AcDbEntity
  8
0
 62
7
100
AcDbLine
 10
311.040000
 20
64.560000
 30
0.0
 11
311.040000
 21
64.560000
 31
0.0
  0
LINE
  5
241
100
AcDbEntity
  8
0
 62
7
100
AcDbLine
 10
333.920000
 20
42.240000
 30
0.0
 11
326.720000
 21
42.240000
 31
0.0
  0
LINE
  5
242
100
AcDbEntity
  8
0
 62
7
100
AcDbLine
 10
326.720000
 20
42.240000
 30
0.0
 11
326.720000
 21
49.440000
 31
0.0
  0
LINE
  5
243
100
AcDbEntity
  8
0
 62
7
100
AcDbLine
 10
326.720000
 20
49.440000
 30
0.0
 11
333.920000
 21
49.440000
 31
0.0
  0
LINE
  5
244
100
AcDbEntity
  8
0
 62
7
100
AcDbLine
 10
333.920000
 20
49.440000
 30
0.0
 11
333.920000
 21
42.240000
 31
0.0
  0
LINE
  5
245
100
AcDbEntity
  8
0
 62
7
100
AcDbLine
 10
333.920000
 20
42.240000
 30
0.0
 11
333.920000
 21
42.240000
 31
0.0
  0
LINE
  5
246
100
AcDbEntity
  8
0
 62
7
100
AcDbLine
 10
362.720000
 20
94.080000
 30
0.0
 11
361.760000
 21
88.480000
 31
0.0
  0
SPLINE
  5
247
100
AcDbEntity
  8
0
 62
7
100
AcDbSpline
 70
8
 71
3
 72
8
 73
4
 74
0
 40
0
 40
0
 40
0
 40
0
 40
1
 40
1
 40
1
 40
1
 10
361.760000
 20
88.480000
 30
0.0
 10
360.560000
 20
88.720000
 30
0.0
 10
359.280000
 20
88.880000
 30
0.0
 10
358.080000
 20
88.880000
 30
0.0
  0
SPLINE
  5
248
100
AcDbEntity
  8
0
 62
7
100
AcDbSpline
 70
8
 71
3
 72
8
 73
4
 74
0
 40
0
 40
0
 40
0
 40
0
 40
1
 40
1
 40
1
 40
1
 10
358.080000
 20
88.880000
 30
0.0
 10
356.560000
 20
88.880000
 30
0.0
 10
355.280000
 20
88.560000
 30
0.0
 10
354.320000
 20
87.920000
 30
0.0
  0
SPLINE
  5
249
100
AcDbEntity
  8
0
 62
7
100
AcDbSpline
 70
8
 71
3
 72
8
 73
4
 74
0
 40
0
 40
0
 40
0
 40
0
 40
1
 40
1
 40
1
 40
1
 10
354.320000
 20
87.920000
 30
0.0
 10
353.360000
 20
87.280000
 30
0.0
 10
352.880000
 20
85.680000
 30
0.0
 10
352.880000
 20
83.120000
 30
0.0
  0
LINE
  5
24a
100
AcDbEntity
  8
0
 62
7
100
AcDbLine
 10
352.880000
 20
83.120000
 30
0.0
 11
352.880000
 21
79.600000
 31
0.0
  0
LINE
  5
24b
100
AcDbEntity
  8
0
 62
7
100
AcDbLine
 10
352.880000
 20
79.600000
 30
0.0
 11
360.080000
 21
79.600000
 31
0.0
  0
LINE
  5
24c
100
AcDbEntity
  8
0
 62
7
100
AcDbLine
 10
360.080000
 20
79.600000
 30
0.0
 11
360.080000
 21
74.720000
 31
0.0
  0
LINE
  5
24d
100
AcDbEntity
  8
0
 62
7
100
AcDbLine
 10
360.080000
 20
74.720000
 30
0.0
 11
352.880000
 21
74.720000
 31
0.0
  0
LINE
  5
24e
100
AcDbEntity
  8
0
 62
7
100
AcDbLine
 10
352.880000
 20
74.720000
 30
0.0
 11
352.880000
 21
42.240000
 31
0.0
  0
LINE
  5
24f
100
AcDbEntity
  8
0
 62
7
100
AcDbLine
 10
352.880000
 20
42.240000
 30
0.0
 11
346.560000
 21
42.240000
 31
0.0
  0
LINE
  5
250
100
AcDbEntity
  8
0
 62
7
100
AcDbLine
 10
346.560000
 20
42.240000
 30
0.0
 11
346.560000
 21
74.720000
 31
0.0
  0
LINE
  5
251
100
AcDbEntity
  8
0
 62
7
100
AcDbLine
 10
346.560000
 20
74.720000
 30
0.0
 11
340.880000
 21
74.720000
 31
0.0
  0
LINE
  5
252
100
AcDbEntity
  8
0
 62
7
100
AcDbLine
 10
340.880000
 20
74.720000
 30
0.0
 11
340.880000
 21
79.600000
 31
0.0
  0
LINE
  5
253
100
AcDbEntity
  8
0
 62
7
100
AcDbLine
 10
340.880000
 20
79.600000
 30
0.0
 11
346.560000
 21
79.600000
 31
0.0
  0
LINE
  5
254
100
AcDbEntity
  8
0
 62
7
100
AcDbLine
 10
346.560000
 20
79.600000
 30
0.0
 11
346.560000
 21
83.600000
 31
0.0
  0
SPLINE
  5
255
100
AcDbEntity
  8
0
 62
7
100
AcDbSpline
 70
8
 71
3
 72
8
 73
4
 74
0
 40
0
 40
0
 40
0
 40
0
 40
1
 40
1
 40
1
 40
1
 10
346.560000
 20
83.600000
 30
0.0
 10
346.560000
 20
85.520000
 30
0.0
 10
346.720000
 20
87.200000
 30
0.0
 10
347.040000
 20
88.720000
 30
0.0
  0
SPLINE
  5
256
100
AcDbEntity
  8
0
 62
7
100
AcDbSpline
 70
8
 71
3
 72
8
 73
4
 74
0
 40
0
 40
0
 40
0
 40
0
 40
1
 40
1
 40
1
 40
1
 10
347.040000
 20
88.720000
 30
0.0
 10
347.440000
 20
90.240000
 30
0.0
 10
348.320000
 20
91.600000
 30
0.0
 10
349.840000
 20
92.880000
 30
0.0
  0
SPLINE
  5
257
100
AcDbEntity
  8
0
 62
7
100
AcDbSpline
 70
8
 71
3
 72
8
 73
4
 74
0
 40
0
 40
0
 40
0
 40
0
 40
1
 40
1
 40
1
 40
1
 10
349.840000
 20
92.880000
 30
0.0
 10
351.360000
 20
94.080000
 30
0.0
 10
353.680000
 20
94.720000
 30
0.0
 10
356.800000
 20
94.720000
 30
0.0
  0
SPLINE
  5
258
100
AcDbEntity
  8
0
 62
7
100
AcDbSpline
 70
8
 71
3
 72
8
 73
4
 74
0
 40
0
 40
0
 40
0
 40
0
 40
1
 40
1
 40
1
 40
1
 10
356.800000
 20
94.720000
 30
0.0
 10
358.720000
 20
94.720000
 30
0.0
 10
360.640000
 20
94.480000
 30
0.0
 10
362.720000
 20
94.080000
 30
0.0
  0
LINE
  5
259
100
AcDbEntity
  8
0
 62
7
100
AcDbLine
 10
362.720000
 20
94.080000
 30
0.0
 11
362.720000
 21
94.080000
 31
0.0
  0
LINE
  5
25a
100
AcDbEntity
  8
0
 62
7
100
AcDbLine
 10
385.280000
 20
78.400000
 30
0.0
 11
383.120000
 21
72.560000
 31
0.0
  0
SPLINE
  5
25b
100
AcDbEntity
  8
0
 62
7
100
AcDbSpline
 70
8
 71
3
 72
8
 73
4
 74
0
 40
0
 40
0
 40
0
 40
0
 40
1
 40
1
 40
1
 40
1
 10
383.120000
 20
72.560000
 30
0.0
 10
381.520000
 20
73.520000
 30
0.0
 10
380.000000
 20
73.920000
 30
0.0
 10
378.480000
 20
73.920000
 30
0.0
  0
SPLINE
  5
25c
100
AcDbEntity
  8
0
 62
7
100
AcDbSpline
 70
8
 71
3
 72
8
 73
4
 74
0
 40
0
 40
0
 40
0
 40
0
 40
1
 40
1
 40
1
 40
1
 10
378.480000
 20
73.920000
 30
0.0
 10
376.160000
 20
73.920000
 30
0.0
 10
374.320000
 20
72.880000
 30
0.0
 10
373.120000
 20
70.800000
 30
0.0
  0
SPLINE
  5
25d
100
AcDbEntity
  8
0
 62
7
100
AcDbSpline
 70
8
 71
3
 72
8
 73
4
 74
0
 40
0
 40
0
 40
0
 40
0
 40
1
 40
1
 40
1
 40
1
 10
373.120000
 20
70.800000
 30
0.0
 10
371.920000
 20
68.640000
 30
0.0
 10
371.280000
 20
65.680000
 30
0.0
 10
371.280000
 20
61.840000
 30
0.0
  0
LINE
  5
25e
100
AcDbEntity
  8
0
 62
7
100
AcDbLine
 10
371.280000
 20
61.840000
 30
0.0
 11
371.280000
 21
42.240000
 31
0.0
  0
LINE
  5
25f
100
AcDbEntity
  8
0
 62
7
100
AcDbLine
 10
371.280000
 20
42.240000
 30
0.0
 11
364.960000
 21
42.240000
 31
0.0
  0
LINE
  5
260
100
AcDbEntity
  8
0
 62
7
100
AcDbLine
 10
364.960000
 20
42.240000
 30
0.0
 11
364.960000
 21
79.600000
 31
0.0
  0
LINE
  5
261
100
AcDbEntity
  8
0
 62
7
100
AcDbLine
 10
364.960000
 20
79.600000
 30
0.0
 11
370.720000
 21
79.600000
 31
0.0
  0
LINE
  5
262
100
AcDbEntity
  8
0
 62
7
100
AcDbLine
 10
370.720000
 20
79.600000
 30
0.0
 11
370.720000
 21
73.920000
 31
0.0
  0
LINE
  5
263
100
AcDbEntity
  8
0
 62
7
100
AcDbLine
 10
370.720000
 20
73.920000
 30
0.0
 11
370.880000
 21
73.920000
 31
0.0
  0
SPLINE
  5
264
100
AcDbEntity
  8
0
 62
7
100
AcDbSpline
 70
8
 71
3
 72
8
 73
4
 74
0
 40
0
 40
0
 40
0
 40
0
 40
1
 40
1
 40
1
 40
1
 10
370.880000
 20
73.920000
 30
0.0
 10
372.880000
 20
78.240000
 30
0.0
 10
375.520000
 20
80.400000
 30
0.0
 10
378.800000
 20
80.400000
 30
0.0
  0
SPLINE
  5
265
100
AcDbEntity
  8
0
 62
7
100
AcDbSpline
 70
8
 71
3
 72
8
 73
4
 74
0
 40
0
 40
0
 40
0
 40
0
 40
1
 40
1
 40
1
 40
1
 10
378.800000
 20
80.400000
 30
0.0
 10
380.960000
 20
80.400000
 30
0.0
 10
383.120000
 20
79.760000
 30
0.0
 10
385.280000
 20
78.400000
 30
0.0
  0
LINE
  5
266
100
AcDbEntity
  8
0
 62
7
100
AcDbLine
 10
385.280000
 20
78.400000
 30
0.0
 11
385.280000
 21
78.400000
 31
0.0
  0
ENDSEC
  0
SECTION
  2
OBJECTS
  0
DICTIONARY
  5
C
330
0
100
AcDbDictionary
  3
ACAD_GROUP
350
D
  3
ACAD_MLINESTYLE
350
17
  0
DICTIONARY
  5
D
330
C
100
AcDbDictionary
  0
DICTIONARY
  5
1A
330
C
100
AcDbDictionary
  0
DICTIONARY
  5
17
330
C
100
AcDbDictionary
  3
STANDARD
350
18
  0
DICTIONARY
  5
19
330
C
100
AcDbDictionary
  0
ENDSEC
  0
EOF
