  0
SECTION
  2
HEADER
  9
$ACADVER
  1
AC1014
  9
$HANDSEED
  5
FFFF
  9
$MEASUREMENT
 70
     1
  0
ENDSEC
  0
SECTION
  2
TABLES
  0
TABLE
  2
VPORT
  5
8
330
0
100
AcDbSymbolTable
 70
     4
  0
VPORT
  5
2E
330
8
100
AcDbSymbolTableRecord
100
AcDbViewportTableRecord
  2
*ACTIVE
 70
     0
 10
0.0
 20
0.0
 11
1.0
 21
1.0
 12
210.0
 22
148.5
 13
0.0
 23
0.0
 14
10.0
 24
10.0
 15
10.0
 25
10.0
 16
0.0
 26
0.0
 36
1.0
 17
0.0
 27
0.0
 37
0.0
 40
341.0
 41
1.24
 42
50.0
 43
0.0
 44
0.0
 50
0.0
 51
0.0
 71
     0
 72
   100
 73
     1
 74
     3
 75
     0
 76
     0
 77
     0
 78
     0
  0
ENDTAB
  0
TABLE
  2
LTYPE
  5
5
330
0
100
AcDbSymbolTable
 70
     1
  0
LTYPE
  5
14
330
5
100
AcDbSymbolTableRecord
100
AcDbLinetypeTableRecord
  2
BYBLOCK
 70
     0
  3

 72
    65
 73
     0
 40
0.0
  0
LTYPE
  5
15
330
5
100
AcDbSymbolTableRecord
100
AcDbLinetypeTableRecord
  2
BYLAYER
 70
     0
  3

 72
    65
 73
     0
 40
0.0
  0
LTYPE
  5
16
330
5
100
AcDbSymbolTableRecord
100
AcDbLinetypeTableRecord
  2
CONTINUOUS
 70
     0
  3
Solid line
 72
    65
 73
     0
 40
0.0
  0
ENDTAB
  0
TABLE
  2
LAYER
  5
2
100
AcDbSymbolTable
 70
1
  0
LAYER
  5
50
100
AcDbSymbolTableRecord
100
AcDbLayerTableRecord
  2
0
 70
0
  6
CONTINUOUS
  0
ENDTAB
  0
TABLE
  2
STYLE
  5
3
330
0
100
AcDbSymbolTable
 70
     1
  0
STYLE
  5
11
330
3
100
AcDbSymbolTableRecord
100
AcDbTextStyleTableRecord
  2
STANDARD
 70
     0
 40
0.0
 41
1.0
 50
0.0
 71
     0
 42
2.5
  3
txt
  4

  0
ENDTAB
  0
TABLE
  2
VIEW
  5
6
330
0
100
AcDbSymbolTable
 70
     0
  0
ENDTAB
  0
TABLE
  2
UCS
  5
7
330
0
100
AcDbSymbolTable
 70
     0
  0
ENDTAB
  0
TABLE
  2
APPID
  5
9
330
0
100
AcDbSymbolTable
 70
     2
  0
APPID
  5
12
330
9
100
AcDbSymbolTableRecord
100
AcDbRegAppTableRecord
  2
ACAD
 70
     0
  0
ENDTAB
  0
TABLE
  2
DIMSTYLE
  5
A
330
0
100
AcDbSymbolTable
 70
     1
  0
DIMSTYLE
105
27
330
A
100
AcDbSymbolTableRecord
100
AcDbDimStyleTableRecord
  2
ISO-25
 70
     0
  3

  4

  5

  6

  7

 40
1.0
 41
2.5
 42
0.625
 43
3.75
 44
1.25
 45
0.0
 46
0.0
 47
0.0
 48
0.0
140
2.5
141
2.5
142
0.0
143
0.03937007874016
144
1.0
145
0.0
146
1.0
147
0.625
 71
     0
 72
     0
 73
     0
 74
     0
 75
     0
 76
     0
 77
     1
 78
     8
170
     0
171
     3
172
     1
173
     0
174
     0
175
     0
176
     0
177
     0
178
     0
270
     2
271
     2
272
     2
273
     2
274
     3
340
11
275
     0
280
     0
281
     0
282
     0
283
     0
284
     8
285
     0
286
     0
287
     3
288
     0
  0
ENDTAB
  0
TABLE
  2
BLOCK_RECORD
  5
1
330
0
100
AcDbSymbolTable
 70
     1
  0
BLOCK_RECORD
  5
1F
330
1
100
AcDbSymbolTableRecord
100
AcDbBlockTableRecord
  2
*MODEL_SPACE
  0
BLOCK_RECORD
  5
1B
330
1
100
AcDbSymbolTableRecord
100
AcDbBlockTableRecord
  2
*PAPER_SPACE
  0
ENDTAB
  0
ENDSEC
  0
SECTION
  2
BLOCKS
  0
BLOCK
  5
20
330
1F
100
AcDbEntity
  8
0
100
AcDbBlockBegin
  2
*MODEL_SPACE
 70
     0
 10
0.0
 20
0.0
 30
0.0
  3
*MODEL_SPACE
  1

  0
ENDBLK
  5
21
330
1F
100
AcDbEntity
  8
0
100
AcDbBlockEnd
  0
BLOCK
  5
1C
330
1B
100
AcDbEntity
 67
     1
  8
0
100
AcDbBlockBegin
  2
*PAPER_SPACE
  1

  0
ENDBLK
  5
1D
330
1B
100
AcDbEntity
 67
     1
  8
0
100
AcDbBlockEnd
  0
ENDSEC
  0
SECTION
  2
ENTITIES
  0
SPLINE
  5
100
100
AcDbEntity
  8
0
 62
7
100
AcDbSpline
 70
8
 71
3
 72
8
 73
4
 74
0
 40
0
 40
0
 40
0
 40
0
 40
1
 40
1
 40
1
 40
1
 10
54.560000
 20
257.920000
 30
0.0
 10
48.800000
 20
258.960000
 30
0.0
 10
42.720000
 20
264.160000
 30
0.0
 10
39.280000
 20
271.040000
 30
0.0
  0
SPLINE
  5
101
100
AcDbEntity
  8
0
 62
7
100
AcDbSpline
 70
8
 71
3
 72
8
 73
4
 74
0
 40
0
 40
0
 40
0
 40
0
 40
1
 40
1
 40
1
 40
1
 10
39.280000
 20
271.040000
 30
0.0
 10
36.800000
 20
276.160000
 30
0.0
 10
36.400000
 20
277.440000
 30
0.0
 10
34.480000
 20
288.160000
 30
0.0
  0
SPLINE
  5
102
100
AcDbEntity
  8
0
 62
7
100
AcDbSpline
 70
8
 71
3
 72
8
 73
4
 74
0
 40
0
 40
0
 40
0
 40
0
 40
1
 40
1
 40
1
 40
1
 10
34.480000
 20
288.160000
 30
0.0
 10
31.760000
 20
303.520000
 30
0.0
 10
30.400000
 20
317.120000
 30
0.0
 10
30.560000
 20
326.720000
 30
0.0
  0
SPLINE
  5
103
100
AcDbEntity
  8
0
 62
7
100
AcDbSpline
 70
8
 71
3
 72
8
 73
4
 74
0
 40
0
 40
0
 40
0
 40
0
 40
1
 40
1
 40
1
 40
1
 10
30.560000
 20
326.720000
 30
0.0
 10
30.640000
 20
332.160000
 30
0.0
 10
30.320000
 20
337.920000
 30
0.0
 10
29.760000
 20
340.560000
 30
0.0
  0
SPLINE
  5
104
100
AcDbEntity
  8
0
 62
7
100
AcDbSpline
 70
8
 71
3
 72
8
 73
4
 74
0
 40
0
 40
0
 40
0
 40
0
 40
1
 40
1
 40
1
 40
1
 10
29.760000
 20
340.560000
 30
0.0
 10
28.720000
 20
346.160000
 30
0.0
 10
29.120000
 20
350.000000
 30
0.0
 10
31.280000
 20
353.120000
 30
0.0
  0
SPLINE
  5
105
100
AcDbEntity
  8
0
 62
7
100
AcDbSpline
 70
8
 71
3
 72
8
 73
4
 74
0
 40
0
 40
0
 40
0
 40
0
 40
1
 40
1
 40
1
 40
1
 10
31.280000
 20
353.120000
 30
0.0
 10
32.160000
 20
354.400000
 30
0.0
 10
33.360000
 20
356.560000
 30
0.0
 10
33.840000
 20
357.920000
 30
0.0
  0
SPLINE
  5
106
100
AcDbEntity
  8
0
 62
7
100
AcDbSpline
 70
8
 71
3
 72
8
 73
4
 74
0
 40
0
 40
0
 40
0
 40
0
 40
1
 40
1
 40
1
 40
1
 10
33.840000
 20
357.920000
 30
0.0
 10
35.200000
 20
361.440000
 30
0.0
 10
39.200000
 20
364.240000
 30
0.0
 10
45.040000
 20
365.600000
 30
0.0
  0
SPLINE
  5
107
100
AcDbEntity
  8
0
 62
7
100
AcDbSpline
 70
8
 71
3
 72
8
 73
4
 74
0
 40
0
 40
0
 40
0
 40
0
 40
1
 40
1
 40
1
 40
1
 10
45.040000
 20
365.600000
 30
0.0
 10
48.320000
 20
366.320000
 30
0.0
 10
49.920000
 20
367.840000
 30
0.0
 10
50.400000
 20
370.480000
 30
0.0
  0
LINE
  5
108
100
AcDbEntity
  8
0
 62
7
100
AcDbLine
 10
50.400000
 20
370.480000
 30
0.0
 11
50.880000
 21
373.040000
 31
0.0
  0
LINE
  5
109
100
AcDbEntity
  8
0
 62
7
100
AcDbLine
 10
50.880000
 20
373.040000
 30
0.0
 11
64.960000
 21
373.280000
 31
0.0
  0
SPLINE
  5
10a
100
AcDbEntity
  8
0
 62
7
100
AcDbSpline
 70
8
 71
3
 72
8
 73
4
 74
0
 40
0
 40
0
 40
0
 40
0
 40
1
 40
1
 40
1
 40
1
 10
64.960000
 20
373.280000
 30
0.0
 10
77.040000
 20
373.520000
 30
0.0
 10
79.760000
 20
373.760000
 30
0.0
 10
84.560000
 20
375.200000
 30
0.0
  0
SPLINE
  5
10b
100
AcDbEntity
  8
0
 62
7
100
AcDbSpline
 70
8
 71
3
 72
8
 73
4
 74
0
 40
0
 40
0
 40
0
 40
0
 40
1
 40
1
 40
1
 40
1
 10
84.560000
 20
375.200000
 30
0.0
 10
90.640000
 20
377.040000
 30
0.0
 10
92.160000
 20
378.240000
 30
0.0
 10
98.080000
 20
386.000000
 30
0.0
  0
SPLINE
  5
10c
100
AcDbEntity
  8
0
 62
7
100
AcDbSpline
 70
8
 71
3
 72
8
 73
4
 74
0
 40
0
 40
0
 40
0
 40
0
 40
1
 40
1
 40
1
 40
1
 10
98.080000
 20
386.000000
 30
0.0
 10
102.080000
 20
391.360000
 30
0.0
 10
120.000000
 20
410.000000
 30
0.0
 10
128.400000
 20
417.600000
 30
0.0
  0
SPLINE
  5
10d
100
AcDbEntity
  8
0
 62
7
100
AcDbSpline
 70
8
 71
3
 72
8
 73
4
 74
0
 40
0
 40
0
 40
0
 40
0
 40
1
 40
1
 40
1
 40
1
 10
128.400000
 20
417.600000
 30
0.0
 10
131.680000
 20
420.560000
 30
0.0
 10
134.560000
 20
423.520000
 30
0.0
 10
134.720000
 20
424.080000
 30
0.0
  0
SPLINE
  5
10e
100
AcDbEntity
  8
0
 62
7
100
AcDbSpline
 70
8
 71
3
 72
8
 73
4
 74
0
 40
0
 40
0
 40
0
 40
0
 40
1
 40
1
 40
1
 40
1
 10
134.720000
 20
424.080000
 30
0.0
 10
134.960000
 20
424.720000
 30
0.0
 10
134.640000
 20
425.680000
 30
0.0
 10
134.080000
 20
426.400000
 30
0.0
  0
SPLINE
  5
10f
100
AcDbEntity
  8
0
 62
7
100
AcDbSpline
 70
8
 71
3
 72
8
 73
4
 74
0
 40
0
 40
0
 40
0
 40
0
 40
1
 40
1
 40
1
 40
1
 10
134.080000
 20
426.400000
 30
0.0
 10
132.560000
 20
428.160000
 30
0.0
 10
132.800000
 20
429.040000
 30
0.0
 10
135.280000
 20
430.960000
 30
0.0
  0
SPLINE
  5
110
100
AcDbEntity
  8
0
 62
7
100
AcDbSpline
 70
8
 71
3
 72
8
 73
4
 74
0
 40
0
 40
0
 40
0
 40
0
 40
1
 40
1
 40
1
 40
1
 10
135.280000
 20
430.960000
 30
0.0
 10
139.360000
 20
434.240000
 30
0.0
 10
148.400000
 20
437.840000
 30
0.0
 10
156.640000
 20
439.440000
 30
0.0
  0
SPLINE
  5
111
100
AcDbEntity
  8
0
 62
7
100
AcDbSpline
 70
8
 71
3
 72
8
 73
4
 74
0
 40
0
 40
0
 40
0
 40
0
 40
1
 40
1
 40
1
 40
1
 10
156.640000
 20
439.440000
 30
0.0
 10
163.920000
 20
440.960000
 30
0.0
 10
165.200000
 20
440.960000
 30
0.0
 10
173.760000
 20
440.240000
 30
0.0
  0
SPLINE
  5
112
100
AcDbEntity
  8
0
 62
7
100
AcDbSpline
 70
8
 71
3
 72
8
 73
4
 74
0
 40
0
 40
0
 40
0
 40
0
 40
1
 40
1
 40
1
 40
1
 10
173.760000
 20
440.240000
 30
0.0
 10
178.880000
 20
439.840000
 30
0.0
 10
186.480000
 20
438.800000
 30
0.0
 10
190.800000
 20
437.920000
 30
0.0
  0
SPLINE
  5
113
100
AcDbEntity
  8
0
 62
7
100
AcDbSpline
 70
8
 71
3
 72
8
 73
4
 74
0
 40
0
 40
0
 40
0
 40
0
 40
1
 40
1
 40
1
 40
1
 10
190.800000
 20
437.920000
 30
0.0
 10
200.960000
 20
436.000000
 30
0.0
 10
208.880000
 20
436.960000
 30
0.0
 10
219.440000
 20
441.520000
 30
0.0
  0
SPLINE
  5
114
100
AcDbEntity
  8
0
 62
7
100
AcDbSpline
 70
8
 71
3
 72
8
 73
4
 74
0
 40
0
 40
0
 40
0
 40
0
 40
1
 40
1
 40
1
 40
1
 10
219.440000
 20
441.520000
 30
0.0
 10
228.640000
 20
445.440000
 30
0.0
 10
239.520000
 20
453.360000
 30
0.0
 10
250.240000
 20
463.840000
 30
0.0
  0
SPLINE
  5
115
100
AcDbEntity
  8
0
 62
7
100
AcDbSpline
 70
8
 71
3
 72
8
 73
4
 74
0
 40
0
 40
0
 40
0
 40
0
 40
1
 40
1
 40
1
 40
1
 10
250.240000
 20
463.840000
 30
0.0
 10
260.400000
 20
473.680000
 30
0.0
 10
280.160000
 20
487.360000
 30
0.0
 10
301.600000
 20
499.280000
 30
0.0
  0
SPLINE
  5
116
100
AcDbEntity
  8
0
 62
7
100
AcDbSpline
 70
8
 71
3
 72
8
 73
4
 74
0
 40
0
 40
0
 40
0
 40
0
 40
1
 40
1
 40
1
 40
1
 10
301.600000
 20
499.280000
 30
0.0
 10
315.280000
 20
506.880000
 30
0.0
 10
322.320000
 20
511.680000
 30
0.0
 10
326.160000
 20
515.840000
 30
0.0
  0
SPLINE
  5
117
100
AcDbEntity
  8
0
 62
7
100
AcDbSpline
 70
8
 71
3
 72
8
 73
4
 74
0
 40
0
 40
0
 40
0
 40
0
 40
1
 40
1
 40
1
 40
1
 10
326.160000
 20
515.840000
 30
0.0
 10
327.200000
 20
517.040000
 30
0.0
 10
329.760000
 20
521.680000
 30
0.0
 10
331.840000
 20
526.080000
 30
0.0
  0
SPLINE
  5
118
100
AcDbEntity
  8
0
 62
7
100
AcDbSpline
 70
8
 71
3
 72
8
 73
4
 74
0
 40
0
 40
0
 40
0
 40
0
 40
1
 40
1
 40
1
 40
1
 10
331.840000
 20
526.080000
 30
0.0
 10
334.960000
 20
532.960000
 30
0.0
 10
336.240000
 20
534.880000
 30
0.0
 10
340.160000
 20
538.800000
 30
0.0
  0
SPLINE
  5
119
100
AcDbEntity
  8
0
 62
7
100
AcDbSpline
 70
8
 71
3
 72
8
 73
4
 74
0
 40
0
 40
0
 40
0
 40
0
 40
1
 40
1
 40
1
 40
1
 10
340.160000
 20
538.800000
 30
0.0
 10
346.400000
 20
545.040000
 30
0.0
 10
353.840000
 20
548.960000
 30
0.0
 10
364.160000
 20
551.280000
 30
0.0
  0
SPLINE
  5
11a
100
AcDbEntity
  8
0
 62
7
100
AcDbSpline
 70
8
 71
3
 72
8
 73
4
 74
0
 40
0
 40
0
 40
0
 40
0
 40
1
 40
1
 40
1
 40
1
 10
364.160000
 20
551.280000
 30
0.0
 10
368.400000
 20
552.320000
 30
0.0
 10
373.120000
 20
553.760000
 30
0.0
 10
374.640000
 20
554.560000
 30
0.0
  0
SPLINE
  5
11b
100
AcDbEntity
  8
0
 62
7
100
AcDbSpline
 70
8
 71
3
 72
8
 73
4
 74
0
 40
0
 40
0
 40
0
 40
0
 40
1
 40
1
 40
1
 40
1
 10
374.640000
 20
554.560000
 30
0.0
 10
378.960000
 20
556.880000
 30
0.0
 10
390.080000
 20
570.480000
 30
0.0
 10
395.920000
 20
580.800000
 30
0.0
  0
SPLINE
  5
11c
100
AcDbEntity
  8
0
 62
7
100
AcDbSpline
 70
8
 71
3
 72
8
 73
4
 74
0
 40
0
 40
0
 40
0
 40
0
 40
1
 40
1
 40
1
 40
1
 10
395.920000
 20
580.800000
 30
0.0
 10
397.840000
 20
584.080000
 30
0.0
 10
398.080000
 20
585.120000
 30
0.0
 10
398.240000
 20
591.280000
 30
0.0
  0
SPLINE
  5
11d
100
AcDbEntity
  8
0
 62
7
100
AcDbSpline
 70
8
 71
3
 72
8
 73
4
 74
0
 40
0
 40
0
 40
0
 40
0
 40
1
 40
1
 40
1
 40
1
 10
398.240000
 20
591.280000
 30
0.0
 10
398.400000
 20
595.040000
 30
0.0
 10
398.880000
 20
598.800000
 30
0.0
 10
399.280000
 20
599.680000
 30
0.0
  0
SPLINE
  5
11e
100
AcDbEntity
  8
0
 62
7
100
AcDbSpline
 70
8
 71
3
 72
8
 73
4
 74
0
 40
0
 40
0
 40
0
 40
0
 40
1
 40
1
 40
1
 40
1
 10
399.280000
 20
599.680000
 30
0.0
 10
399.760000
 20
600.480000
 30
0.0
 10
400.080000
 20
603.040000
 30
0.0
 10
400.080000
 20
605.360000
 30
0.0
  0
SPLINE
  5
11f
100
AcDbEntity
  8
0
 62
7
100
AcDbSpline
 70
8
 71
3
 72
8
 73
4
 74
0
 40
0
 40
0
 40
0
 40
0
 40
1
 40
1
 40
1
 40
1
 10
400.080000
 20
605.360000
 30
0.0
 10
400.080000
 20
609.120000
 30
0.0
 10
399.920000
 20
609.680000
 30
0.0
 10
397.760000
 20
611.840000
 30
0.0
  0
SPLINE
  5
120
100
AcDbEntity
  8
0
 62
7
100
AcDbSpline
 70
8
 71
3
 72
8
 73
4
 74
0
 40
0
 40
0
 40
0
 40
0
 40
1
 40
1
 40
1
 40
1
 10
397.760000
 20
611.840000
 30
0.0
 10
394.880000
 20
614.800000
 30
0.0
 10
393.440000
 20
614.880000
 30
0.0
 10
388.800000
 20
612.080000
 30
0.0
  0
SPLINE
  5
121
100
AcDbEntity
  8
0
 62
7
100
AcDbSpline
 70
8
 71
3
 72
8
 73
4
 74
0
 40
0
 40
0
 40
0
 40
0
 40
1
 40
1
 40
1
 40
1
 10
388.800000
 20
612.080000
 30
0.0
 10
386.800000
 20
610.960000
 30
0.0
 10
384.240000
 20
609.920000
 30
0.0
 10
383.040000
 20
609.920000
 30
0.0
  0
SPLINE
  5
122
100
AcDbEntity
  8
0
 62
7
100
AcDbSpline
 70
8
 71
3
 72
8
 73
4
 74
0
 40
0
 40
0
 40
0
 40
0
 40
1
 40
1
 40
1
 40
1
 10
383.040000
 20
609.920000
 30
0.0
 10
379.600000
 20
609.920000
 30
0.0
 10
374.560000
 20
606.560000
 30
0.0
 10
371.440000
 20
602.080000
 30
0.0
  0
SPLINE
  5
123
100
AcDbEntity
  8
0
 62
7
100
AcDbSpline
 70
8
 71
3
 72
8
 73
4
 74
0
 40
0
 40
0
 40
0
 40
0
 40
1
 40
1
 40
1
 40
1
 10
371.440000
 20
602.080000
 30
0.0
 10
365.040000
 20
592.960000
 30
0.0
 10
355.920000
 20
585.600000
 30
0.0
 10
349.360000
 20
584.160000
 30
0.0
  0
SPLINE
  5
124
100
AcDbEntity
  8
0
 62
7
100
AcDbSpline
 70
8
 71
3
 72
8
 73
4
 74
0
 40
0
 40
0
 40
0
 40
0
 40
1
 40
1
 40
1
 40
1
 10
349.360000
 20
584.160000
 30
0.0
 10
342.800000
 20
582.720000
 30
0.0
 10
333.520000
 20
579.040000
 30
0.0
 10
324.800000
 20
574.400000
 30
0.0
  0
SPLINE
  5
125
100
AcDbEntity
  8
0
 62
7
100
AcDbSpline
 70
8
 71
3
 72
8
 73
4
 74
0
 40
0
 40
0
 40
0
 40
0
 40
1
 40
1
 40
1
 40
1
 10
324.800000
 20
574.400000
 30
0.0
 10
307.360000
 20
565.200000
 30
0.0
 10
297.200000
 20
558.320000
 30
0.0
 10
290.480000
 20
551.120000
 30
0.0
  0
SPLINE
  5
126
100
AcDbEntity
  8
0
 62
7
100
AcDbSpline
 70
8
 71
3
 72
8
 73
4
 74
0
 40
0
 40
0
 40
0
 40
0
 40
1
 40
1
 40
1
 40
1
 10
290.480000
 20
551.120000
 30
0.0
 10
286.640000
 20
546.960000
 30
0.0
 10
286.560000
 20
546.720000
 30
0.0
 10
285.680000
 20
541.120000
 30
0.0
  0
SPLINE
  5
127
100
AcDbEntity
  8
0
 62
7
100
AcDbSpline
 70
8
 71
3
 72
8
 73
4
 74
0
 40
0
 40
0
 40
0
 40
0
 40
1
 40
1
 40
1
 40
1
 10
285.680000
 20
541.120000
 30
0.0
 10
284.640000
 20
534.320000
 30
0.0
 10
284.320000
 20
533.680000
 30
0.0
 10
282.240000
 20
533.680000
 30
0.0
  0
SPLINE
  5
128
100
AcDbEntity
  8
0
 62
7
100
AcDbSpline
 70
8
 71
3
 72
8
 73
4
 74
0
 40
0
 40
0
 40
0
 40
0
 40
1
 40
1
 40
1
 40
1
 10
282.240000
 20
533.680000
 30
0.0
 10
279.840000
 20
533.680000
 30
0.0
 10
278.880000
 20
535.520000
 30
0.0
 10
278.400000
 20
541.360000
 30
0.0
  0
SPLINE
  5
129
100
AcDbEntity
  8
0
 62
7
100
AcDbSpline
 70
8
 71
3
 72
8
 73
4
 74
0
 40
0
 40
0
 40
0
 40
0
 40
1
 40
1
 40
1
 40
1
 10
278.400000
 20
541.360000
 30
0.0
 10
277.760000
 20
549.440000
 30
0.0
 10
277.280000
 20
549.760000
 30
0.0
 10
266.800000
 20
549.440000
 30
0.0
  0
SPLINE
  5
12a
100
AcDbEntity
  8
0
 62
7
100
AcDbSpline
 70
8
 71
3
 72
8
 73
4
 74
0
 40
0
 40
0
 40
0
 40
0
 40
1
 40
1
 40
1
 40
1
 10
266.800000
 20
549.440000
 30
0.0
 10
262.160000
 20
549.280000
 30
0.0
 10
254.160000
 20
549.120000
 30
0.0
 10
248.880000
 20
549.120000
 30
0.0
  0
SPLINE
  5
12b
100
AcDbEntity
  8
0
 62
7
100
AcDbSpline
 70
8
 71
3
 72
8
 73
4
 74
0
 40
0
 40
0
 40
0
 40
0
 40
1
 40
1
 40
1
 40
1
 10
248.880000
 20
549.120000
 30
0.0
 10
239.920000
 20
549.120000
 30
0.0
 10
239.200000
 20
549.280000
 30
0.0
 10
235.520000
 20
551.120000
 30
0.0
  0
SPLINE
  5
12c
100
AcDbEntity
  8
0
 62
7
100
AcDbSpline
 70
8
 71
3
 72
8
 73
4
 74
0
 40
0
 40
0
 40
0
 40
0
 40
1
 40
1
 40
1
 40
1
 10
235.520000
 20
551.120000
 30
0.0
 10
233.440000
 20
552.240000
 30
0.0
 10
230.880000
 20
553.120000
 30
0.0
 10
229.920000
 20
553.120000
 30
0.0
  0
SPLINE
  5
12d
100
AcDbEntity
  8
0
 62
7
100
AcDbSpline
 70
8
 71
3
 72
8
 73
4
 74
0
 40
0
 40
0
 40
0
 40
0
 40
1
 40
1
 40
1
 40
1
 10
229.920000
 20
553.120000
 30
0.0
 10
228.960000
 20
553.120000
 30
0.0
 10
227.040000
 20
553.600000
 30
0.0
 10
225.760000
 20
554.160000
 30
0.0
  0
SPLINE
  5
12e
100
AcDbEntity
  8
0
 62
7
100
AcDbSpline
 70
8
 71
3
 72
8
 73
4
 74
0
 40
0
 40
0
 40
0
 40
0
 40
1
 40
1
 40
1
 40
1
 10
225.760000
 20
554.160000
 30
0.0
 10
223.840000
 20
554.960000
 30
0.0
 10
223.440000
 20
555.520000
 30
0.0
 10
223.440000
 20
557.280000
 30
0.0
  0
SPLINE
  5
12f
100
AcDbEntity
  8
0
 62
7
100
AcDbSpline
 70
8
 71
3
 72
8
 73
4
 74
0
 40
0
 40
0
 40
0
 40
0
 40
1
 40
1
 40
1
 40
1
 10
223.440000
 20
557.280000
 30
0.0
 10
223.440000
 20
561.520000
 30
0.0
 10
231.680000
 20
566.560000
 30
0.0
 10
242.160000
 20
568.560000
 30
0.0
  0
SPLINE
  5
130
100
AcDbEntity
  8
0
 62
7
100
AcDbSpline
 70
8
 71
3
 72
8
 73
4
 74
0
 40
0
 40
0
 40
0
 40
0
 40
1
 40
1
 40
1
 40
1
 10
242.160000
 20
568.560000
 30
0.0
 10
250.480000
 20
570.240000
 30
0.0
 10
253.440000
 20
571.680000
 30
0.0
 10
255.920000
 20
575.600000
 30
0.0
  0
SPLINE
  5
131
100
AcDbEntity
  8
0
 62
7
100
AcDbSpline
 70
8
 71
3
 72
8
 73
4
 74
0
 40
0
 40
0
 40
0
 40
0
 40
1
 40
1
 40
1
 40
1
 10
255.920000
 20
575.600000
 30
0.0
 10
257.120000
 20
577.440000
 30
0.0
 10
259.840000
 20
580.480000
 30
0.0
 10
262.000000
 20
582.400000
 30
0.0
  0
SPLINE
  5
132
100
AcDbEntity
  8
0
 62
7
100
AcDbSpline
 70
8
 71
3
 72
8
 73
4
 74
0
 40
0
 40
0
 40
0
 40
0
 40
1
 40
1
 40
1
 40
1
 10
262.000000
 20
582.400000
 30
0.0
 10
264.160000
 20
584.240000
 30
0.0
 10
266.080000
 20
586.000000
 30
0.0
 10
266.240000
 20
586.240000
 30
0.0
  0
SPLINE
  5
133
100
AcDbEntity
  8
0
 62
7
100
AcDbSpline
 70
8
 71
3
 72
8
 73
4
 74
0
 40
0
 40
0
 40
0
 40
0
 40
1
 40
1
 40
1
 40
1
 10
266.240000
 20
586.240000
 30
0.0
 10
269.200000
 20
589.440000
 30
0.0
 10
282.480000
 20
596.160000
 30
0.0
 10
294.080000
 20
600.320000
 30
0.0
  0
SPLINE
  5
134
100
AcDbEntity
  8
0
 62
7
100
AcDbSpline
 70
8
 71
3
 72
8
 73
4
 74
0
 40
0
 40
0
 40
0
 40
0
 40
1
 40
1
 40
1
 40
1
 10
294.080000
 20
600.320000
 30
0.0
 10
306.160000
 20
604.640000
 30
0.0
 10
307.040000
 20
605.440000
 30
0.0
 10
305.680000
 20
609.920000
 30
0.0
  0
SPLINE
  5
135
100
AcDbEntity
  8
0
 62
7
100
AcDbSpline
 70
8
 71
3
 72
8
 73
4
 74
0
 40
0
 40
0
 40
0
 40
0
 40
1
 40
1
 40
1
 40
1
 10
305.680000
 20
609.920000
 30
0.0
 10
304.320000
 20
614.160000
 30
0.0
 10
305.200000
 20
616.160000
 30
0.0
 10
311.280000
 20
622.400000
 30
0.0
  0
SPLINE
  5
136
100
AcDbEntity
  8
0
 62
7
100
AcDbSpline
 70
8
 71
3
 72
8
 73
4
 74
0
 40
0
 40
0
 40
0
 40
0
 40
1
 40
1
 40
1
 40
1
 10
311.280000
 20
622.400000
 30
0.0
 10
321.600000
 20
633.120000
 30
0.0
 10
334.000000
 20
640.560000
 30
0.0
 10
350.160000
 20
646.000000
 30
0.0
  0
SPLINE
  5
137
100
AcDbEntity
  8
0
 62
7
100
AcDbSpline
 70
8
 71
3
 72
8
 73
4
 74
0
 40
0
 40
0
 40
0
 40
0
 40
1
 40
1
 40
1
 40
1
 10
350.160000
 20
646.000000
 30
0.0
 10
355.040000
 20
647.600000
 30
0.0
 10
360.240000
 20
649.520000
 30
0.0
 10
361.680000
 20
650.160000
 30
0.0
  0
SPLINE
  5
138
100
AcDbEntity
  8
0
 62
7
100
AcDbSpline
 70
8
 71
3
 72
8
 73
4
 74
0
 40
0
 40
0
 40
0
 40
0
 40
1
 40
1
 40
1
 40
1
 10
361.680000
 20
650.160000
 30
0.0
 10
371.280000
 20
654.400000
 30
0.0
 10
378.640000
 20
660.480000
 30
0.0
 10
384.800000
 20
669.280000
 30
0.0
  0
SPLINE
  5
139
100
AcDbEntity
  8
0
 62
7
100
AcDbSpline
 70
8
 71
3
 72
8
 73
4
 74
0
 40
0
 40
0
 40
0
 40
0
 40
1
 40
1
 40
1
 40
1
 10
384.800000
 20
669.280000
 30
0.0
 10
393.040000
 20
681.120000
 30
0.0
 10
402.320000
 20
688.640000
 30
0.0
 10
413.840000
 20
692.800000
 30
0.0
  0
SPLINE
  5
13a
100
AcDbEntity
  8
0
 62
7
100
AcDbSpline
 70
8
 71
3
 72
8
 73
4
 74
0
 40
0
 40
0
 40
0
 40
0
 40
1
 40
1
 40
1
 40
1
 10
413.840000
 20
692.800000
 30
0.0
 10
417.840000
 20
694.320000
 30
0.0
 10
423.920000
 20
698.240000
 30
0.0
 10
425.040000
 20
700.240000
 30
0.0
  0
SPLINE
  5
13b
100
AcDbEntity
  8
0
 62
7
100
AcDbSpline
 70
8
 71
3
 72
8
 73
4
 74
0
 40
0
 40
0
 40
0
 40
0
 40
1
 40
1
 40
1
 40
1
 10
425.040000
 20
700.240000
 30
0.0
 10
425.680000
 20
701.280000
 30
0.0
 10
432.800000
 20
706.960000
 30
0.0
 10
436.240000
 20
709.200000
 30
0.0
  0
SPLINE
  5
13c
100
AcDbEntity
  8
0
 62
7
100
AcDbSpline
 70
8
 71
3
 72
8
 73
4
 74
0
 40
0
 40
0
 40
0
 40
0
 40
1
 40
1
 40
1
 40
1
 10
436.240000
 20
709.200000
 30
0.0
 10
439.600000
 20
711.360000
 30
0.0
 10
447.520000
 20
714.160000
 30
0.0
 10
451.920000
 20
714.640000
 30
0.0
  0
SPLINE
  5
13d
100
AcDbEntity
  8
0
 62
7
100
AcDbSpline
 70
8
 71
3
 72
8
 73
4
 74
0
 40
0
 40
0
 40
0
 40
0
 40
1
 40
1
 40
1
 40
1
 10
451.920000
 20
714.640000
 30
0.0
 10
454.480000
 20
715.040000
 30
0.0
 10
456.960000
 20
714.720000
 30
0.0
 10
460.880000
 20
713.680000
 30
0.0
  0
SPLINE
  5
13e
100
AcDbEntity
  8
0
 62
7
100
AcDbSpline
 70
8
 71
3
 72
8
 73
4
 74
0
 40
0
 40
0
 40
0
 40
0
 40
1
 40
1
 40
1
 40
1
 10
460.880000
 20
713.680000
 30
0.0
 10
467.440000
 20
711.840000
 30
0.0
 10
469.920000
 20
711.840000
 30
0.0
 10
475.520000
 20
713.840000
 30
0.0
  0
SPLINE
  5
13f
100
AcDbEntity
  8
0
 62
7
100
AcDbSpline
 70
8
 71
3
 72
8
 73
4
 74
0
 40
0
 40
0
 40
0
 40
0
 40
1
 40
1
 40
1
 40
1
 10
475.520000
 20
713.840000
 30
0.0
 10
478.480000
 20
714.880000
 30
0.0
 10
480.000000
 20
715.840000
 30
0.0
 10
480.160000
 20
716.720000
 30
0.0
  0
SPLINE
  5
140
100
AcDbEntity
  8
0
 62
7
100
AcDbSpline
 70
8
 71
3
 72
8
 73
4
 74
0
 40
0
 40
0
 40
0
 40
0
 40
1
 40
1
 40
1
 40
1
 10
480.160000
 20
716.720000
 30
0.0
 10
480.320000
 20
717.440000
 30
0.0
 10
478.880000
 20
720.480000
 30
0.0
 10
476.960000
 20
723.520000
 30
0.0
  0
SPLINE
  5
141
100
AcDbEntity
  8
0
 62
7
100
AcDbSpline
 70
8
 71
3
 72
8
 73
4
 74
0
 40
0
 40
0
 40
0
 40
0
 40
1
 40
1
 40
1
 40
1
 10
476.960000
 20
723.520000
 30
0.0
 10
472.960000
 20
730.080000
 30
0.0
 10
471.360000
 20
735.360000
 30
0.0
 10
471.360000
 20
742.400000
 30
0.0
  0
SPLINE
  5
142
100
AcDbEntity
  8
0
 62
7
100
AcDbSpline
 70
8
 71
3
 72
8
 73
4
 74
0
 40
0
 40
0
 40
0
 40
0
 40
1
 40
1
 40
1
 40
1
 10
471.360000
 20
742.400000
 30
0.0
 10
471.360000
 20
746.560000
 30
0.0
 10
471.760000
 20
748.320000
 30
0.0
 10
473.360000
 20
752.000000
 30
0.0
  0
SPLINE
  5
143
100
AcDbEntity
  8
0
 62
7
100
AcDbSpline
 70
8
 71
3
 72
8
 73
4
 74
0
 40
0
 40
0
 40
0
 40
0
 40
1
 40
1
 40
1
 40
1
 10
473.360000
 20
752.000000
 30
0.0
 10
479.200000
 20
765.120000
 30
0.0
 10
492.960000
 20
778.000000
 30
0.0
 10
504.400000
 20
780.960000
 30
0.0
  0
SPLINE
  5
144
100
AcDbEntity
  8
0
 62
7
100
AcDbSpline
 70
8
 71
3
 72
8
 73
4
 74
0
 40
0
 40
0
 40
0
 40
0
 40
1
 40
1
 40
1
 40
1
 10
504.400000
 20
780.960000
 30
0.0
 10
510.000000
 20
782.400000
 30
0.0
 10
519.200000
 20
782.080000
 30
0.0
 10
525.120000
 20
780.160000
 30
0.0
  0
SPLINE
  5
145
100
AcDbEntity
  8
0
 62
7
100
AcDbSpline
 70
8
 71
3
 72
8
 73
4
 74
0
 40
0
 40
0
 40
0
 40
0
 40
1
 40
1
 40
1
 40
1
 10
525.120000
 20
780.160000
 30
0.0
 10
537.680000
 20
776.160000
 30
0.0
 10
549.280000
 20
766.080000
 30
0.0
 10
554.880000
 20
754.320000
 30
0.0
  0
SPLINE
  5
146
100
AcDbEntity
  8
0
 62
7
100
AcDbSpline
 70
8
 71
3
 72
8
 73
4
 74
0
 40
0
 40
0
 40
0
 40
0
 40
1
 40
1
 40
1
 40
1
 10
554.880000
 20
754.320000
 30
0.0
 10
558.000000
 20
747.600000
 30
0.0
 10
561.120000
 20
732.720000
 30
0.0
 10
561.120000
 20
724.160000
 30
0.0
  0
SPLINE
  5
147
100
AcDbEntity
  8
0
 62
7
100
AcDbSpline
 70
8
 71
3
 72
8
 73
4
 74
0
 40
0
 40
0
 40
0
 40
0
 40
1
 40
1
 40
1
 40
1
 10
561.120000
 20
724.160000
 30
0.0
 10
561.120000
 20
721.680000
 30
0.0
 10
561.840000
 20
718.960000
 30
0.0
 10
563.520000
 20
715.040000
 30
0.0
  0
SPLINE
  5
148
100
AcDbEntity
  8
0
 62
7
100
AcDbSpline
 70
8
 71
3
 72
8
 73
4
 74
0
 40
0
 40
0
 40
0
 40
0
 40
1
 40
1
 40
1
 40
1
 10
563.520000
 20
715.040000
 30
0.0
 10
564.880000
 20
712.000000
 30
0.0
 10
565.920000
 20
708.960000
 30
0.0
 10
565.920000
 20
708.400000
 30
0.0
  0
SPLINE
  5
149
100
AcDbEntity
  8
0
 62
7
100
AcDbSpline
 70
8
 71
3
 72
8
 73
4
 74
0
 40
0
 40
0
 40
0
 40
0
 40
1
 40
1
 40
1
 40
1
 10
565.920000
 20
708.400000
 30
0.0
 10
565.920000
 20
706.960000
 30
0.0
 10
557.680000
 20
702.480000
 30
0.0
 10
552.960000
 20
701.360000
 30
0.0
  0
SPLINE
  5
14a
100
AcDbEntity
  8
0
 62
7
100
AcDbSpline
 70
8
 71
3
 72
8
 73
4
 74
0
 40
0
 40
0
 40
0
 40
0
 40
1
 40
1
 40
1
 40
1
 10
552.960000
 20
701.360000
 30
0.0
 10
550.960000
 20
700.960000
 30
0.0
 10
547.280000
 20
700.240000
 30
0.0
 10
544.880000
 20
699.920000
 30
0.0
  0
SPLINE
  5
14b
100
AcDbEntity
  8
0
 62
7
100
AcDbSpline
 70
8
 71
3
 72
8
 73
4
 74
0
 40
0
 40
0
 40
0
 40
0
 40
1
 40
1
 40
1
 40
1
 10
544.880000
 20
699.920000
 30
0.0
 10
539.840000
 20
699.200000
 30
0.0
 10
538.080000
 20
697.680000
 30
0.0
 10
538.080000
 20
694.000000
 30
0.0
  0
SPLINE
  5
14c
100
AcDbEntity
  8
0
 62
7
100
AcDbSpline
 70
8
 71
3
 72
8
 73
4
 74
0
 40
0
 40
0
 40
0
 40
0
 40
1
 40
1
 40
1
 40
1
 10
538.080000
 20
694.000000
 30
0.0
 10
538.080000
 20
690.960000
 30
0.0
 10
535.520000
 20
681.600000
 30
0.0
 10
533.600000
 20
677.600000
 30
0.0
  0
SPLINE
  5
14d
100
AcDbEntity
  8
0
 62
7
100
AcDbSpline
 70
8
 71
3
 72
8
 73
4
 74
0
 40
0
 40
0
 40
0
 40
0
 40
1
 40
1
 40
1
 40
1
 10
533.600000
 20
677.600000
 30
0.0
 10
531.600000
 20
673.360000
 30
0.0
 10
527.120000
 20
667.120000
 30
0.0
 10
523.680000
 20
663.840000
 30
0.0
  0
LINE
  5
14e
100
AcDbEntity
  8
0
 62
7
100
AcDbLine
 10
523.680000
 20
663.840000
 30
0.0
 11
520.960000
 21
661.280000
 31
0.0
  0
LINE
  5
14f
100
AcDbEntity
  8
0
 62
7
100
AcDbLine
 10
520.960000
 20
661.280000
 30
0.0
 11
524.000000
 21
651.520000
 31
0.0
  0
SPLINE
  5
150
100
AcDbEntity
  8
0
 62
7
100
AcDbSpline
 70
8
 71
3
 72
8
 73
4
 74
0
 40
0
 40
0
 40
0
 40
0
 40
1
 40
1
 40
1
 40
1
 10
524.000000
 20
651.520000
 30
0.0
 10
529.440000
 20
634.480000
 30
0.0
 10
530.960000
 20
624.400000
 30
0.0
 10
530.400000
 20
609.760000
 30
0.0
  0
SPLINE
  5
151
100
AcDbEntity
  8
0
 62
7
100
AcDbSpline
 70
8
 71
3
 72
8
 73
4
 74
0
 40
0
 40
0
 40
0
 40
0
 40
1
 40
1
 40
1
 40
1
 10
530.400000
 20
609.760000
 30
0.0
 10
529.440000
 20
585.920000
 30
0.0
 10
521.520000
 20
566.400000
 30
0.0
 10
505.680000
 20
549.280000
 30
0.0
  0
SPLINE
  5
152
100
AcDbEntity
  8
0
 62
7
100
AcDbSpline
 70
8
 71
3
 72
8
 73
4
 74
0
 40
0
 40
0
 40
0
 40
0
 40
1
 40
1
 40
1
 40
1
 10
505.680000
 20
549.280000
 30
0.0
 10
499.040000
 20
542.080000
 30
0.0
 10
497.280000
 20
540.880000
 30
0.0
 10
493.920000
 20
541.360000
 30
0.0
  0
SPLINE
  5
153
100
AcDbEntity
  8
0
 62
7
100
AcDbSpline
 70
8
 71
3
 72
8
 73
4
 74
0
 40
0
 40
0
 40
0
 40
0
 40
1
 40
1
 40
1
 40
1
 10
493.920000
 20
541.360000
 30
0.0
 10
491.440000
 20
541.760000
 30
0.0
 10
491.280000
 20
541.600000
 30
0.0
 10
486.480000
 20
535.520000
 30
0.0
  0
SPLINE
  5
154
100
AcDbEntity
  8
0
 62
7
100
AcDbSpline
 70
8
 71
3
 72
8
 73
4
 74
0
 40
0
 40
0
 40
0
 40
0
 40
1
 40
1
 40
1
 40
1
 10
486.480000
 20
535.520000
 30
0.0
 10
481.760000
 20
529.600000
 30
0.0
 10
479.360000
 20
527.920000
 30
0.0
 10
475.760000
 20
527.920000
 30
0.0
  0
SPLINE
  5
155
100
AcDbEntity
  8
0
 62
7
100
AcDbSpline
 70
8
 71
3
 72
8
 73
4
 74
0
 40
0
 40
0
 40
0
 40
0
 40
1
 40
1
 40
1
 40
1
 10
475.760000
 20
527.920000
 30
0.0
 10
475.280000
 20
527.920000
 30
0.0
 10
474.080000
 20
526.720000
 30
0.0
 10
473.040000
 20
525.200000
 30
0.0
  0
SPLINE
  5
156
100
AcDbEntity
  8
0
 62
7
100
AcDbSpline
 70
8
 71
3
 72
8
 73
4
 74
0
 40
0
 40
0
 40
0
 40
0
 40
1
 40
1
 40
1
 40
1
 10
473.040000
 20
525.200000
 30
0.0
 10
468.240000
 20
518.400000
 30
0.0
 10
461.360000
 20
511.040000
 30
0.0
 10
454.320000
 20
505.360000
 30
0.0
  0
SPLINE
  5
157
100
AcDbEntity
  8
0
 62
7
100
AcDbSpline
 70
8
 71
3
 72
8
 73
4
 74
0
 40
0
 40
0
 40
0
 40
0
 40
1
 40
1
 40
1
 40
1
 10
454.320000
 20
505.360000
 30
0.0
 10
446.240000
 20
498.880000
 30
0.0
 10
434.800000
 20
491.200000
 30
0.0
 10
427.120000
 20
487.120000
 30
0.0
  0
SPLINE
  5
158
100
AcDbEntity
  8
0
 62
7
100
AcDbSpline
 70
8
 71
3
 72
8
 73
4
 74
0
 40
0
 40
0
 40
0
 40
0
 40
1
 40
1
 40
1
 40
1
 10
427.120000
 20
487.120000
 30
0.0
 10
424.480000
 20
485.760000
 30
0.0
 10
421.440000
 20
483.360000
 30
0.0
 10
420.000000
 20
481.600000
 30
0.0
  0
SPLINE
  5
159
100
AcDbEntity
  8
0
 62
7
100
AcDbSpline
 70
8
 71
3
 72
8
 73
4
 74
0
 40
0
 40
0
 40
0
 40
0
 40
1
 40
1
 40
1
 40
1
 10
420.000000
 20
481.600000
 30
0.0
 10
418.560000
 20
480.000000
 30
0.0
 10
413.280000
 20
474.160000
 30
0.0
 10
408.160000
 20
468.720000
 30
0.0
  0
SPLINE
  5
15a
100
AcDbEntity
  8
0
 62
7
100
AcDbSpline
 70
8
 71
3
 72
8
 73
4
 74
0
 40
0
 40
0
 40
0
 40
0
 40
1
 40
1
 40
1
 40
1
 10
408.160000
 20
468.720000
 30
0.0
 10
389.040000
 20
448.560000
 30
0.0
 10
363.760000
 20
431.280000
 30
0.0
 10
331.840000
 20
416.560000
 30
0.0
  0
SPLINE
  5
15b
100
AcDbEntity
  8
0
 62
7
100
AcDbSpline
 70
8
 71
3
 72
8
 73
4
 74
0
 40
0
 40
0
 40
0
 40
0
 40
1
 40
1
 40
1
 40
1
 10
331.840000
 20
416.560000
 30
0.0
 10
319.520000
 20
410.880000
 30
0.0
 10
293.440000
 20
401.040000
 30
0.0
 10
279.840000
 20
397.040000
 30
0.0
  0
SPLINE
  5
15c
100
AcDbEntity
  8
0
 62
7
100
AcDbSpline
 70
8
 71
3
 72
8
 73
4
 74
0
 40
0
 40
0
 40
0
 40
0
 40
1
 40
1
 40
1
 40
1
 10
279.840000
 20
397.040000
 30
0.0
 10
250.640000
 20
388.320000
 30
0.0
 10
230.960000
 20
383.840000
 30
0.0
 10
201.520000
 20
379.360000
 30
0.0
  0
LINE
  5
15d
100
AcDbEntity
  8
0
 62
7
100
AcDbLine
 10
201.520000
 20
379.360000
 30
0.0
 11
190.080000
 21
377.600000
 31
0.0
  0
LINE
  5
15e
100
AcDbEntity
  8
0
 62
7
100
AcDbLine
 10
190.080000
 20
377.600000
 30
0.0
 11
177.360000
 21
370.160000
 31
0.0
  0
SPLINE
  5
15f
100
AcDbEntity
  8
0
 62
7
100
AcDbSpline
 70
8
 71
3
 72
8
 73
4
 74
0
 40
0
 40
0
 40
0
 40
0
 40
1
 40
1
 40
1
 40
1
 10
177.360000
 20
370.160000
 30
0.0
 10
170.400000
 20
366.080000
 30
0.0
 10
162.480000
 20
361.280000
 30
0.0
 10
159.840000
 20
359.360000
 30
0.0
  0
SPLINE
  5
160
100
AcDbEntity
  8
0
 62
7
100
AcDbSpline
 70
8
 71
3
 72
8
 73
4
 74
0
 40
0
 40
0
 40
0
 40
0
 40
1
 40
1
 40
1
 40
1
 10
159.840000
 20
359.360000
 30
0.0
 10
149.280000
 20
351.920000
 30
0.0
 10
138.720000
 20
341.840000
 30
0.0
 10
128.800000
 20
329.680000
 30
0.0
  0
SPLINE
  5
161
100
AcDbEntity
  8
0
 62
7
100
AcDbSpline
 70
8
 71
3
 72
8
 73
4
 74
0
 40
0
 40
0
 40
0
 40
0
 40
1
 40
1
 40
1
 40
1
 10
128.800000
 20
329.680000
 30
0.0
 10
122.240000
 20
321.680000
 30
0.0
 10
121.760000
 20
321.200000
 30
0.0
 10
119.760000
 20
321.680000
 30
0.0
  0
SPLINE
  5
162
100
AcDbEntity
  8
0
 62
7
100
AcDbSpline
 70
8
 71
3
 72
8
 73
4
 74
0
 40
0
 40
0
 40
0
 40
0
 40
1
 40
1
 40
1
 40
1
 10
119.760000
 20
321.680000
 30
0.0
 10
114.480000
 20
322.800000
 30
0.0
 10
113.680000
 20
322.800000
 30
0.0
 10
111.520000
 20
321.360000
 30
0.0
  0
SPLINE
  5
163
100
AcDbEntity
  8
0
 62
7
100
AcDbSpline
 70
8
 71
3
 72
8
 73
4
 74
0
 40
0
 40
0
 40
0
 40
0
 40
1
 40
1
 40
1
 40
1
 10
111.520000
 20
321.360000
 30
0.0
 10
108.000000
 20
319.040000
 30
0.0
 10
101.840000
 20
310.640000
 30
0.0
 10
98.960000
 20
304.320000
 30
0.0
  0
SPLINE
  5
164
100
AcDbEntity
  8
0
 62
7
100
AcDbSpline
 70
8
 71
3
 72
8
 73
4
 74
0
 40
0
 40
0
 40
0
 40
0
 40
1
 40
1
 40
1
 40
1
 10
98.960000
 20
304.320000
 30
0.0
 10
95.360000
 20
296.160000
 30
0.0
 10
94.400000
 20
291.680000
 30
0.0
 10
93.760000
 20
278.560000
 30
0.0
  0
LINE
  5
165
100
AcDbEntity
  8
0
 62
7
100
AcDbLine
 10
93.760000
 20
278.560000
 30
0.0
 11
93.200000
 21
267.120000
 31
0.0
  0
LINE
  5
166
100
AcDbEntity
  8
0
 62
7
100
AcDbLine
 10
93.200000
 20
267.120000
 30
0.0
 11
91.040000
 21
265.120000
 31
0.0
  0
SPLINE
  5
167
100
AcDbEntity
  8
0
 62
7
100
AcDbSpline
 70
8
 71
3
 72
8
 73
4
 74
0
 40
0
 40
0
 40
0
 40
0
 40
1
 40
1
 40
1
 40
1
 10
91.040000
 20
265.120000
 30
0.0
 10
88.320000
 20
262.480000
 30
0.0
 10
84.640000
 20
261.760000
 30
0.0
 10
81.760000
 20
263.200000
 30
0.0
  0
SPLINE
  5
168
100
AcDbEntity
  8
0
 62
7
100
AcDbSpline
 70
8
 71
3
 72
8
 73
4
 74
0
 40
0
 40
0
 40
0
 40
0
 40
1
 40
1
 40
1
 40
1
 10
81.760000
 20
263.200000
 30
0.0
 10
79.600000
 20
264.320000
 30
0.0
 10
72.560000
 20
274.320000
 30
0.0
 10
72.560000
 20
276.320000
 30
0.0
  0
SPLINE
  5
169
100
AcDbEntity
  8
0
 62
7
100
AcDbSpline
 70
8
 71
3
 72
8
 73
4
 74
0
 40
0
 40
0
 40
0
 40
0
 40
1
 40
1
 40
1
 40
1
 10
72.560000
 20
276.320000
 30
0.0
 10
72.560000
 20
277.600000
 30
0.0
 10
70.960000
 20
278.880000
 30
0.0
 10
70.080000
 20
278.240000
 30
0.0
  0
SPLINE
  5
16a
100
AcDbEntity
  8
0
 62
7
100
AcDbSpline
 70
8
 71
3
 72
8
 73
4
 74
0
 40
0
 40
0
 40
0
 40
0
 40
1
 40
1
 40
1
 40
1
 10
70.080000
 20
278.240000
 30
0.0
 10
69.680000
 20
278.000000
 30
0.0
 10
69.120000
 20
275.840000
 30
0.0
 10
68.800000
 20
273.440000
 30
0.0
  0
SPLINE
  5
16b
100
AcDbEntity
  8
0
 62
7
100
AcDbSpline
 70
8
 71
3
 72
8
 73
4
 74
0
 40
0
 40
0
 40
0
 40
0
 40
1
 40
1
 40
1
 40
1
 10
68.800000
 20
273.440000
 30
0.0
 10
68.240000
 20
268.560000
 30
0.0
 10
67.120000
 20
265.200000
 30
0.0
 10
65.040000
 20
262.400000
 30
0.0
  0
SPLINE
  5
16c
100
AcDbEntity
  8
0
 62
7
100
AcDbSpline
 70
8
 71
3
 72
8
 73
4
 74
0
 40
0
 40
0
 40
0
 40
0
 40
1
 40
1
 40
1
 40
1
 10
65.040000
 20
262.400000
 30
0.0
 10
63.520000
 20
260.400000
 30
0.0
 10
59.120000
 20
257.200000
 30
0.0
 10
58.000000
 20
257.360000
 30
0.0
  0
SPLINE
  5
16d
100
AcDbEntity
  8
0
 62
7
100
AcDbSpline
 70
8
 71
3
 72
8
 73
4
 74
0
 40
0
 40
0
 40
0
 40
0
 40
1
 40
1
 40
1
 40
1
 10
58.000000
 20
257.360000
 30
0.0
 10
57.600000
 20
257.360000
 30
0.0
 10
56.080000
 20
257.680000
 30
0.0
 10
54.560000
 20
257.920000
 30
0.0
  0
LINE
  5
16e
100
AcDbEntity
  8
0
 62
7
100
AcDbLine
 10
54.560000
 20
257.920000
 30
0.0
 11
54.560000
 21
257.920000
 31
0.0
  0
SPLINE
  5
16f
100
AcDbEntity
  8
0
 62
7
100
AcDbSpline
 70
8
 71
3
 72
8
 73
4
 74
0
 40
0
 40
0
 40
0
 40
0
 40
1
 40
1
 40
1
 40
1
 10
507.680000
 20
573.520000
 30
0.0
 10
511.280000
 20
576.320000
 30
0.0
 10
516.000000
 20
585.040000
 30
0.0
 10
517.360000
 20
591.200000
 30
0.0
  0
SPLINE
  5
170
100
AcDbEntity
  8
0
 62
7
100
AcDbSpline
 70
8
 71
3
 72
8
 73
4
 74
0
 40
0
 40
0
 40
0
 40
0
 40
1
 40
1
 40
1
 40
1
 10
517.360000
 20
591.200000
 30
0.0
 10
519.520000
 20
601.360000
 30
0.0
 10
519.200000
 20
604.560000
 30
0.0
 10
515.920000
 20
606.800000
 30
0.0
  0
SPLINE
  5
171
100
AcDbEntity
  8
0
 62
7
100
AcDbSpline
 70
8
 71
3
 72
8
 73
4
 74
0
 40
0
 40
0
 40
0
 40
0
 40
1
 40
1
 40
1
 40
1
 10
515.920000
 20
606.800000
 30
0.0
 10
513.200000
 20
608.720000
 30
0.0
 10
510.480000
 20
606.960000
 30
0.0
 10
506.320000
 20
600.320000
 30
0.0
  0
SPLINE
  5
172
100
AcDbEntity
  8
0
 62
7
100
AcDbSpline
 70
8
 71
3
 72
8
 73
4
 74
0
 40
0
 40
0
 40
0
 40
0
 40
1
 40
1
 40
1
 40
1
 10
506.320000
 20
600.320000
 30
0.0
 10
501.280000
 20
592.480000
 30
0.0
 10
499.840000
 20
588.000000
 30
0.0
 10
499.760000
 20
579.760000
 30
0.0
  0
SPLINE
  5
173
100
AcDbEntity
  8
0
 62
7
100
AcDbSpline
 70
8
 71
3
 72
8
 73
4
 74
0
 40
0
 40
0
 40
0
 40
0
 40
1
 40
1
 40
1
 40
1
 10
499.760000
 20
579.760000
 30
0.0
 10
499.680000
 20
573.200000
 30
0.0
 10
499.680000
 20
572.960000
 30
0.0
 10
501.360000
 20
572.000000
 30
0.0
  0
SPLINE
  5
174
100
AcDbEntity
  8
0
 62
7
100
AcDbSpline
 70
8
 71
3
 72
8
 73
4
 74
0
 40
0
 40
0
 40
0
 40
0
 40
1
 40
1
 40
1
 40
1
 10
501.360000
 20
572.000000
 30
0.0
 10
503.280000
 20
570.960000
 30
0.0
 10
504.960000
 20
571.360000
 30
0.0
 10
507.680000
 20
573.520000
 30
0.0
  0
LINE
  5
175
100
AcDbEntity
  8
0
 62
7
100
AcDbLine
 10
507.680000
 20
573.520000
 30
0.0
 11
507.680000
 21
573.520000
 31
0.0
  0
SPLINE
  5
176
100
AcDbEntity
  8
0
 62
7
100
AcDbSpline
 70
8
 71
3
 72
8
 73
4
 74
0
 40
0
 40
0
 40
0
 40
0
 40
1
 40
1
 40
1
 40
1
 10
557.760000
 20
712.880000
 30
0.0
 10
557.760000
 20
713.920000
 30
0.0
 10
556.800000
 20
714.240000
 30
0.0
 10
551.600000
 20
715.040000
 30
0.0
  0
SPLINE
  5
177
100
AcDbEntity
  8
0
 62
7
100
AcDbSpline
 70
8
 71
3
 72
8
 73
4
 74
0
 40
0
 40
0
 40
0
 40
0
 40
1
 40
1
 40
1
 40
1
 10
551.600000
 20
715.040000
 30
0.0
 10
547.360000
 20
715.680000
 30
0.0
 10
546.240000
 20
716.160000
 30
0.0
 10
544.400000
 20
718.080000
 30
0.0
  0
SPLINE
  5
178
100
AcDbEntity
  8
0
 62
7
100
AcDbSpline
 70
8
 71
3
 72
8
 73
4
 74
0
 40
0
 40
0
 40
0
 40
0
 40
1
 40
1
 40
1
 40
1
 10
544.400000
 20
718.080000
 30
0.0
 10
543.120000
 20
719.360000
 30
0.0
 10
541.760000
 20
721.520000
 30
0.0
 10
541.360000
 20
722.960000
 30
0.0
  0
SPLINE
  5
179
100
AcDbEntity
  8
0
 62
7
100
AcDbSpline
 70
8
 71
3
 72
8
 73
4
 74
0
 40
0
 40
0
 40
0
 40
0
 40
1
 40
1
 40
1
 40
1
 10
541.360000
 20
722.960000
 30
0.0
 10
539.760000
 20
728.160000
 30
0.0
 10
536.000000
 20
733.840000
 30
0.0
 10
531.600000
 20
738.080000
 30
0.0
  0
SPLINE
  5
17a
100
AcDbEntity
  8
0
 62
7
100
AcDbSpline
 70
8
 71
3
 72
8
 73
4
 74
0
 40
0
 40
0
 40
0
 40
0
 40
1
 40
1
 40
1
 40
1
 10
531.600000
 20
738.080000
 30
0.0
 10
530.160000
 20
739.440000
 30
0.0
 10
527.840000
 20
741.600000
 30
0.0
 10
526.560000
 20
742.880000
 30
0.0
  0
LINE
  5
17b
100
AcDbEntity
  8
0
 62
7
100
AcDbLine
 10
526.560000
 20
742.880000
 30
0.0
 11
524.240000
 21
745.040000
 31
0.0
  0
LINE
  5
17c
100
AcDbEntity
  8
0
 62
7
100
AcDbLine
 10
524.240000
 20
745.040000
 30
0.0
 11
525.120000
 21
751.440000
 31
0.0
  0
SPLINE
  5
17d
100
AcDbEntity
  8
0
 62
7
100
AcDbSpline
 70
8
 71
3
 72
8
 73
4
 74
0
 40
0
 40
0
 40
0
 40
0
 40
1
 40
1
 40
1
 40
1
 10
525.120000
 20
751.440000
 30
0.0
 10
525.600000
 20
755.040000
 30
0.0
 10
526.240000
 20
759.440000
 30
0.0
 10
526.480000
 20
761.280000
 30
0.0
  0
SPLINE
  5
17e
100
AcDbEntity
  8
0
 62
7
100
AcDbSpline
 70
8
 71
3
 72
8
 73
4
 74
0
 40
0
 40
0
 40
0
 40
0
 40
1
 40
1
 40
1
 40
1
 10
526.480000
 20
761.280000
 30
0.0
 10
526.720000
 20
763.120000
 30
0.0
 10
526.640000
 20
765.200000
 30
0.0
 10
526.320000
 20
765.920000
 30
0.0
  0
SPLINE
  5
17f
100
AcDbEntity
  8
0
 62
7
100
AcDbSpline
 70
8
 71
3
 72
8
 73
4
 74
0
 40
0
 40
0
 40
0
 40
0
 40
1
 40
1
 40
1
 40
1
 10
526.320000
 20
765.920000
 30
0.0
 10
525.200000
 20
768.080000
 30
0.0
 10
521.520000
 20
771.920000
 30
0.0
 10
520.560000
 20
771.920000
 30
0.0
  0
SPLINE
  5
180
100
AcDbEntity
  8
0
 62
7
100
AcDbSpline
 70
8
 71
3
 72
8
 73
4
 74
0
 40
0
 40
0
 40
0
 40
0
 40
1
 40
1
 40
1
 40
1
 10
520.560000
 20
771.920000
 30
0.0
 10
518.960000
 20
771.920000
 30
0.0
 10
519.680000
 20
769.200000
 30
0.0
 10
521.680000
 20
767.440000
 30
0.0
  0
SPLINE
  5
181
100
AcDbEntity
  8
0
 62
7
100
AcDbSpline
 70
8
 71
3
 72
8
 73
4
 74
0
 40
0
 40
0
 40
0
 40
0
 40
1
 40
1
 40
1
 40
1
 10
521.680000
 20
767.440000
 30
0.0
 10
522.720000
 20
766.560000
 30
0.0
 10
523.920000
 20
765.120000
 30
0.0
 10
524.320000
 20
764.320000
 30
0.0
  0
SPLINE
  5
182
100
AcDbEntity
  8
0
 62
7
100
AcDbSpline
 70
8
 71
3
 72
8
 73
4
 74
0
 40
0
 40
0
 40
0
 40
0
 40
1
 40
1
 40
1
 40
1
 10
524.320000
 20
764.320000
 30
0.0
 10
525.200000
 20
762.560000
 30
0.0
 10
524.400000
 20
757.360000
 30
0.0
 10
521.920000
 20
748.960000
 30
0.0
  0
SPLINE
  5
183
100
AcDbEntity
  8
0
 62
7
100
AcDbSpline
 70
8
 71
3
 72
8
 73
4
 74
0
 40
0
 40
0
 40
0
 40
0
 40
1
 40
1
 40
1
 40
1
 10
521.920000
 20
748.960000
 30
0.0
 10
520.720000
 20
744.800000
 30
0.0
 10
520.400000
 20
742.560000
 30
0.0
 10
520.800000
 20
741.840000
 30
0.0
  0
SPLINE
  5
184
100
AcDbEntity
  8
0
 62
7
100
AcDbSpline
 70
8
 71
3
 72
8
 73
4
 74
0
 40
0
 40
0
 40
0
 40
0
 40
1
 40
1
 40
1
 40
1
 10
520.800000
 20
741.840000
 30
0.0
 10
521.200000
 20
741.200000
 30
0.0
 10
522.960000
 20
739.920000
 30
0.0
 10
524.800000
 20
738.880000
 30
0.0
  0
SPLINE
  5
185
100
AcDbEntity
  8
0
 62
7
100
AcDbSpline
 70
8
 71
3
 72
8
 73
4
 74
0
 40
0
 40
0
 40
0
 40
0
 40
1
 40
1
 40
1
 40
1
 10
524.800000
 20
738.880000
 30
0.0
 10
531.760000
 20
734.960000
 30
0.0
 10
539.920000
 20
724.240000
 30
0.0
 10
541.200000
 20
717.360000
 30
0.0
  0
SPLINE
  5
186
100
AcDbEntity
  8
0
 62
7
100
AcDbSpline
 70
8
 71
3
 72
8
 73
4
 74
0
 40
0
 40
0
 40
0
 40
0
 40
1
 40
1
 40
1
 40
1
 10
541.200000
 20
717.360000
 30
0.0
 10
541.680000
 20
714.560000
 30
0.0
 10
542.880000
 20
713.840000
 30
0.0
 10
548.560000
 20
712.960000
 30
0.0
  0
SPLINE
  5
187
100
AcDbEntity
  8
0
 62
7
100
AcDbSpline
 70
8
 71
3
 72
8
 73
4
 74
0
 40
0
 40
0
 40
0
 40
0
 40
1
 40
1
 40
1
 40
1
 10
548.560000
 20
712.960000
 30
0.0
 10
554.320000
 20
712.080000
 30
0.0
 10
557.760000
 20
712.080000
 30
0.0
 10
557.760000
 20
712.880000
 30
0.0
  0
LINE
  5
188
100
AcDbEntity
  8
0
 62
7
100
AcDbLine
 10
557.760000
 20
712.880000
 30
0.0
 11
557.760000
 21
712.880000
 31
0.0
  0
SPLINE
  5
189
100
AcDbEntity
  8
0
 62
7
100
AcDbSpline
 70
8
 71
3
 72
8
 73
4
 74
0
 40
0
 40
0
 40
0
 40
0
 40
1
 40
1
 40
1
 40
1
 10
509.920000
 20
734.480000
 30
0.0
 10
513.200000
 20
739.520000
 30
0.0
 10
511.840000
 20
744.480000
 30
0.0
 10
505.120000
 20
752.240000
 30
0.0
  0
SPLINE
  5
18a
100
AcDbEntity
  8
0
 62
7
100
AcDbSpline
 70
8
 71
3
 72
8
 73
4
 74
0
 40
0
 40
0
 40
0
 40
0
 40
1
 40
1
 40
1
 40
1
 10
505.120000
 20
752.240000
 30
0.0
 10
502.160000
 20
755.680000
 30
0.0
 10
501.280000
 20
754.960000
 30
0.0
 10
503.920000
 20
751.200000
 30
0.0
  0
SPLINE
  5
18b
100
AcDbEntity
  8
0
 62
7
100
AcDbSpline
 70
8
 71
3
 72
8
 73
4
 74
0
 40
0
 40
0
 40
0
 40
0
 40
1
 40
1
 40
1
 40
1
 10
503.920000
 20
751.200000
 30
0.0
 10
506.800000
 20
746.960000
 30
0.0
 10
507.920000
 20
742.880000
 30
0.0
 10
506.880000
 20
740.000000
 30
0.0
  0
SPLINE
  5
18c
100
AcDbEntity
  8
0
 62
7
100
AcDbSpline
 70
8
 71
3
 72
8
 73
4
 74
0
 40
0
 40
0
 40
0
 40
0
 40
1
 40
1
 40
1
 40
1
 10
506.880000
 20
740.000000
 30
0.0
 10
506.480000
 20
738.720000
 30
0.0
 10
506.080000
 20
736.800000
 30
0.0
 10
506.080000
 20
735.680000
 30
0.0
  0
SPLINE
  5
18d
100
AcDbEntity
  8
0
 62
7
100
AcDbSpline
 70
8
 71
3
 72
8
 73
4
 74
0
 40
0
 40
0
 40
0
 40
0
 40
1
 40
1
 40
1
 40
1
 10
506.080000
 20
735.680000
 30
0.0
 10
506.080000
 20
734.480000
 30
0.0
 10
505.200000
 20
732.720000
 30
0.0
 10
503.760000
 20
730.960000
 30
0.0
  0
SPLINE
  5
18e
100
AcDbEntity
  8
0
 62
7
100
AcDbSpline
 70
8
 71
3
 72
8
 73
4
 74
0
 40
0
 40
0
 40
0
 40
0
 40
1
 40
1
 40
1
 40
1
 10
503.760000
 20
730.960000
 30
0.0
 10
502.480000
 20
729.440000
 30
0.0
 10
501.600000
 20
728.000000
 30
0.0
 10
501.760000
 20
727.760000
 30
0.0
  0
SPLINE
  5
18f
100
AcDbEntity
  8
0
 62
7
100
AcDbSpline
 70
8
 71
3
 72
8
 73
4
 74
0
 40
0
 40
0
 40
0
 40
0
 40
1
 40
1
 40
1
 40
1
 10
501.760000
 20
727.760000
 30
0.0
 10
502.480000
 20
727.040000
 30
0.0
 10
508.160000
 20
731.760000
 30
0.0
 10
509.920000
 20
734.480000
 30
0.0
  0
LINE
  5
190
100
AcDbEntity
  8
0
 62
7
100
AcDbLine
 10
509.920000
 20
734.480000
 30
0.0
 11
509.920000
 21
734.480000
 31
0.0
  0
SPLINE
  5
191
100
AcDbEntity
  8
0
 62
7
100
AcDbSpline
 70
8
 71
3
 72
8
 73
4
 74
0
 40
0
 40
0
 40
0
 40
0
 40
1
 40
1
 40
1
 40
1
 10
549.520000
 20
749.920000
 30
0.0
 10
550.080000
 20
750.480000
 30
0.0
 10
550.320000
 20
751.360000
 30
0.0
 10
550.080000
 20
751.920000
 30
0.0
  0
SPLINE
  5
192
100
AcDbEntity
  8
0
 62
7
100
AcDbSpline
 70
8
 71
3
 72
8
 73
4
 74
0
 40
0
 40
0
 40
0
 40
0
 40
1
 40
1
 40
1
 40
1
 10
550.080000
 20
751.920000
 30
0.0
 10
549.600000
 20
753.360000
 30
0.0
 10
541.040000
 20
757.520000
 30
0.0
 10
538.560000
 20
757.520000
 30
0.0
  0
SPLINE
  5
193
100
AcDbEntity
  8
0
 62
7
100
AcDbSpline
 70
8
 71
3
 72
8
 73
4
 74
0
 40
0
 40
0
 40
0
 40
0
 40
1
 40
1
 40
1
 40
1
 10
538.560000
 20
757.520000
 30
0.0
 10
537.680000
 20
757.520000
 30
0.0
 10
534.640000
 20
753.840000
 30
0.0
 10
534.640000
 20
752.720000
 30
0.0
  0
SPLINE
  5
194
100
AcDbEntity
  8
0
 62
7
100
AcDbSpline
 70
8
 71
3
 72
8
 73
4
 74
0
 40
0
 40
0
 40
0
 40
0
 40
1
 40
1
 40
1
 40
1
 10
534.640000
 20
752.720000
 30
0.0
 10
534.640000
 20
751.680000
 30
0.0
 10
538.720000
 20
748.800000
 30
0.0
 10
541.760000
 20
747.680000
 30
0.0
  0
SPLINE
  5
195
100
AcDbEntity
  8
0
 62
7
100
AcDbSpline
 70
8
 71
3
 72
8
 73
4
 74
0
 40
0
 40
0
 40
0
 40
0
 40
1
 40
1
 40
1
 40
1
 10
541.760000
 20
747.680000
 30
0.0
 10
543.920000
 20
746.880000
 30
0.0
 10
547.600000
 20
747.920000
 30
0.0
 10
549.520000
 20
749.920000
 30
0.0
  0
LINE
  5
196
100
AcDbEntity
  8
0
 62
7
100
AcDbLine
 10
549.520000
 20
749.920000
 30
0.0
 11
549.520000
 21
749.920000
 31
0.0
  0
SPLINE
  5
197
100
AcDbEntity
  8
0
 62
7
100
AcDbSpline
 70
8
 71
3
 72
8
 73
4
 74
0
 40
0
 40
0
 40
0
 40
0
 40
1
 40
1
 40
1
 40
1
 10
65.680000
 20
70.800000
 30
0.0
 10
68.960000
 20
69.840000
 30
0.0
 10
71.360000
 20
68.240000
 30
0.0
 10
72.960000
 20
66.000000
 30
0.0
  0
SPLINE
  5
198
100
AcDbEntity
  8
0
 62
7
100
AcDbSpline
 70
8
 71
3
 72
8
 73
4
 74
0
 40
0
 40
0
 40
0
 40
0
 40
1
 40
1
 40
1
 40
1
 10
72.960000
 20
66.000000
 30
0.0
 10
74.560000
 20
63.840000
 30
0.0
 10
75.360000
 20
61.280000
 30
0.0
 10
75.360000
 20
58.400000
 30
0.0
  0
SPLINE
  5
199
100
AcDbEntity
  8
0
 62
7
100
AcDbSpline
 70
8
 71
3
 72
8
 73
4
 74
0
 40
0
 40
0
 40
0
 40
0
 40
1
 40
1
 40
1
 40
1
 10
75.360000
 20
58.400000
 30
0.0
 10
75.360000
 20
55.520000
 30
0.0
 10
74.640000
 20
52.880000
 30
0.0
 10
73.200000
 20
50.480000
 30
0.0
  0
SPLINE
  5
19a
100
AcDbEntity
  8
0
 62
7
100
AcDbSpline
 70
8
 71
3
 72
8
 73
4
 74
0
 40
0
 40
0
 40
0
 40
0
 40
1
 40
1
 40
1
 40
1
 10
73.200000
 20
50.480000
 30
0.0
 10
71.760000
 20
48.000000
 30
0.0
 10
69.680000
 20
46.240000
 30
0.0
 10
66.960000
 20
45.120000
 30
0.0
  0
SPLINE
  5
19b
100
AcDbEntity
  8
0
 62
7
100
AcDbSpline
 70
8
 71
3
 72
8
 73
4
 74
0
 40
0
 40
0
 40
0
 40
0
 40
1
 40
1
 40
1
 40
1
 10
66.960000
 20
45.120000
 30
0.0
 10
64.320000
 20
44.000000
 30
0.0
 10
60.720000
 20
43.440000
 30
0.0
 10
56.160000
 20
43.440000
 30
0.0
  0
LINE
  5
19c
100
AcDbEntity
  8
0
 62
7
100
AcDbLine
 10
56.160000
 20
43.440000
 30
0.0
 11
36.400000
 21
43.440000
 31
0.0
  0
LINE
  5
19d
100
AcDbEntity
  8
0
 62
7
100
AcDbLine
 10
36.400000
 20
43.440000
 30
0.0
 11
36.400000
 21
94.960000
 31
0.0
  0
LINE
  5
19e
100
AcDbEntity
  8
0
 62
7
100
AcDbLine
 10
36.400000
 20
94.960000
 30
0.0
 11
55.760000
 21
94.960000
 31
0.0
  0
SPLINE
  5
19f
100
AcDbEntity
  8
0
 62
7
100
AcDbSpline
 70
8
 71
3
 72
8
 73
4
 74
0
 40
0
 40
0
 40
0
 40
0
 40
1
 40
1
 40
1
 40
1
 10
55.760000
 20
94.960000
 30
0.0
 10
62.000000
 20
94.960000
 30
0.0
 10
66.400000
 20
93.600000
 30
0.0
 10
68.960000
 20
90.880000
 30
0.0
  0
SPLINE
  5
1a0
100
AcDbEntity
  8
0
 62
7
100
AcDbSpline
 70
8
 71
3
 72
8
 73
4
 74
0
 40
0
 40
0
 40
0
 40
0
 40
1
 40
1
 40
1
 40
1
 10
68.960000
 20
90.880000
 30
0.0
 10
71.520000
 20
88.160000
 30
0.0
 10
72.800000
 20
85.120000
 30
0.0
 10
72.800000
 20
81.840000
 30
0.0
  0
SPLINE
  5
1a1
100
AcDbEntity
  8
0
 62
7
100
AcDbSpline
 70
8
 71
3
 72
8
 73
4
 74
0
 40
0
 40
0
 40
0
 40
0
 40
1
 40
1
 40
1
 40
1
 10
72.800000
 20
81.840000
 30
0.0
 10
72.800000
 20
79.520000
 30
0.0
 10
72.240000
 20
77.440000
 30
0.0
 10
71.040000
 20
75.600000
 30
0.0
  0
SPLINE
  5
1a2
100
AcDbEntity
  8
0
 62
7
100
AcDbSpline
 70
8
 71
3
 72
8
 73
4
 74
0
 40
0
 40
0
 40
0
 40
0
 40
1
 40
1
 40
1
 40
1
 10
71.040000
 20
75.600000
 30
0.0
 10
69.840000
 20
73.680000
 30
0.0
 10
68.080000
 20
72.080000
 30
0.0
 10
65.680000
 20
70.800000
 30
0.0
  0
LINE
  5
1a3
100
AcDbEntity
  8
0
 62
7
100
AcDbLine
 10
65.680000
 20
70.800000
 30
0.0
 11
65.680000
 21
70.800000
 31
0.0
  0
LINE
  5
1a4
100
AcDbEntity
  8
0
 62
7
100
AcDbLine
 10
43.200000
 20
73.360000
 30
0.0
 11
54.400000
 21
73.360000
 31
0.0
  0
SPLINE
  5
1a5
100
AcDbEntity
  8
0
 62
7
100
AcDbSpline
 70
8
 71
3
 72
8
 73
4
 74
0
 40
0
 40
0
 40
0
 40
0
 40
1
 40
1
 40
1
 40
1
 10
54.400000
 20
73.360000
 30
0.0
 10
56.720000
 20
73.360000
 30
0.0
 10
58.640000
 20
73.520000
 30
0.0
 10
60.160000
 20
73.760000
 30
0.0
  0
SPLINE
  5
1a6
100
AcDbEntity
  8
0
 62
7
100
AcDbSpline
 70
8
 71
3
 72
8
 73
4
 74
0
 40
0
 40
0
 40
0
 40
0
 40
1
 40
1
 40
1
 40
1
 10
60.160000
 20
73.760000
 30
0.0
 10
61.760000
 20
74.000000
 30
0.0
 10
63.120000
 20
74.720000
 30
0.0
 10
64.320000
 20
75.760000
 30
0.0
  0
SPLINE
  5
1a7
100
AcDbEntity
  8
0
 62
7
100
AcDbSpline
 70
8
 71
3
 72
8
 73
4
 74
0
 40
0
 40
0
 40
0
 40
0
 40
1
 40
1
 40
1
 40
1
 10
64.320000
 20
75.760000
 30
0.0
 10
65.520000
 20
76.880000
 30
0.0
 10
66.080000
 20
78.640000
 30
0.0
 10
66.080000
 20
80.960000
 30
0.0
  0
SPLINE
  5
1a8
100
AcDbEntity
  8
0
 62
7
100
AcDbSpline
 70
8
 71
3
 72
8
 73
4
 74
0
 40
0
 40
0
 40
0
 40
0
 40
1
 40
1
 40
1
 40
1
 10
66.080000
 20
80.960000
 30
0.0
 10
66.080000
 20
83.360000
 30
0.0
 10
65.520000
 20
85.200000
 30
0.0
 10
64.320000
 20
86.320000
 30
0.0
  0
SPLINE
  5
1a9
100
AcDbEntity
  8
0
 62
7
100
AcDbSpline
 70
8
 71
3
 72
8
 73
4
 74
0
 40
0
 40
0
 40
0
 40
0
 40
1
 40
1
 40
1
 40
1
 10
64.320000
 20
86.320000
 30
0.0
 10
63.120000
 20
87.520000
 30
0.0
 10
61.680000
 20
88.160000
 30
0.0
 10
60.000000
 20
88.480000
 30
0.0
  0
SPLINE
  5
1aa
100
AcDbEntity
  8
0
 62
7
100
AcDbSpline
 70
8
 71
3
 72
8
 73
4
 74
0
 40
0
 40
0
 40
0
 40
0
 40
1
 40
1
 40
1
 40
1
 10
60.000000
 20
88.480000
 30
0.0
 10
58.320000
 20
88.720000
 30
0.0
 10
56.160000
 20
88.800000
 30
0.0
 10
53.520000
 20
88.800000
 30
0.0
  0
LINE
  5
1ab
100
AcDbEntity
  8
0
 62
7
100
AcDbLine
 10
53.520000
 20
88.800000
 30
0.0
 11
43.200000
 21
88.800000
 31
0.0
  0
LINE
  5
1ac
100
AcDbEntity
  8
0
 62
7
100
AcDbLine
 10
43.200000
 20
88.800000
 30
0.0
 11
43.200000
 21
73.360000
 31
0.0
  0
LINE
  5
1ad
100
AcDbEntity
  8
0
 62
7
100
AcDbLine
 10
43.200000
 20
73.360000
 30
0.0
 11
43.200000
 21
73.360000
 31
0.0
  0
LINE
  5
1ae
100
AcDbEntity
  8
0
 62
7
100
AcDbLine
 10
43.200000
 20
49.520000
 30
0.0
 11
56.080000
 21
49.520000
 31
0.0
  0
SPLINE
  5
1af
100
AcDbEntity
  8
0
 62
7
100
AcDbSpline
 70
8
 71
3
 72
8
 73
4
 74
0
 40
0
 40
0
 40
0
 40
0
 40
1
 40
1
 40
1
 40
1
 10
56.080000
 20
49.520000
 30
0.0
 10
60.640000
 20
49.520000
 30
0.0
 10
63.840000
 20
50.320000
 30
0.0
 10
65.600000
 20
51.920000
 30
0.0
  0
SPLINE
  5
1b0
100
AcDbEntity
  8
0
 62
7
100
AcDbSpline
 70
8
 71
3
 72
8
 73
4
 74
0
 40
0
 40
0
 40
0
 40
0
 40
1
 40
1
 40
1
 40
1
 10
65.600000
 20
51.920000
 30
0.0
 10
67.360000
 20
53.440000
 30
0.0
 10
68.320000
 20
55.600000
 30
0.0
 10
68.320000
 20
58.400000
 30
0.0
  0
SPLINE
  5
1b1
100
AcDbEntity
  8
0
 62
7
100
AcDbSpline
 70
8
 71
3
 72
8
 73
4
 74
0
 40
0
 40
0
 40
0
 40
0
 40
1
 40
1
 40
1
 40
1
 10
68.320000
 20
58.400000
 30
0.0
 10
68.320000
 20
61.200000
 30
0.0
 10
67.360000
 20
63.360000
 30
0.0
 10
65.440000
 20
64.880000
 30
0.0
  0
SPLINE
  5
1b2
100
AcDbEntity
  8
0
 62
7
100
AcDbSpline
 70
8
 71
3
 72
8
 73
4
 74
0
 40
0
 40
0
 40
0
 40
0
 40
1
 40
1
 40
1
 40
1
 10
65.440000
 20
64.880000
 30
0.0
 10
63.520000
 20
66.480000
 30
0.0
 10
60.160000
 20
67.280000
 30
0.0
 10
55.200000
 20
67.280000
 30
0.0
  0
LINE
  5
1b3
100
AcDbEntity
  8
0
 62
7
100
AcDbLine
 10
55.200000
 20
67.280000
 30
0.0
 11
43.200000
 21
67.280000
 31
0.0
  0
LINE
  5
1b4
100
AcDbEntity
  8
0
 62
7
100
AcDbLine
 10
43.200000
 20
67.280000
 30
0.0
 11
43.200000
 21
49.520000
 31
0.0
  0
LINE
  5
1b5
100
AcDbEntity
  8
0
 62
7
100
AcDbLine
 10
43.200000
 20
49.520000
 30
0.0
 11
43.200000
 21
49.520000
 31
0.0
  0
LINE
  5
1b6
100
AcDbEntity
  8
0
 62
7
100
AcDbLine
 10
90.240000
 20
43.440000
 30
0.0
 11
83.920000
 21
43.440000
 31
0.0
  0
LINE
  5
1b7
100
AcDbEntity
  8
0
 62
7
100
AcDbLine
 10
83.920000
 20
43.440000
 30
0.0
 11
83.920000
 21
80.720000
 31
0.0
  0
LINE
  5
1b8
100
AcDbEntity
  8
0
 62
7
100
AcDbLine
 10
83.920000
 20
80.720000
 30
0.0
 11
90.240000
 21
80.720000
 31
0.0
  0
LINE
  5
1b9
100
AcDbEntity
  8
0
 62
7
100
AcDbLine
 10
90.240000
 20
80.720000
 30
0.0
 11
90.240000
 21
43.440000
 31
0.0
  0
LINE
  5
1ba
100
AcDbEntity
  8
0
 62
7
100
AcDbLine
 10
90.240000
 20
43.440000
 30
0.0
 11
90.240000
 21
43.440000
 31
0.0
  0
LINE
  5
1bb
100
AcDbEntity
  8
0
 62
7
100
AcDbLine
 10
90.240000
 20
87.760000
 30
0.0
 11
83.920000
 21
87.760000
 31
0.0
  0
LINE
  5
1bc
100
AcDbEntity
  8
0
 62
7
100
AcDbLine
 10
83.920000
 20
87.760000
 30
0.0
 11
83.920000
 21
94.960000
 31
0.0
  0
LINE
  5
1bd
100
AcDbEntity
  8
0
 62
7
100
AcDbLine
 10
83.920000
 20
94.960000
 30
0.0
 11
90.240000
 21
94.960000
 31
0.0
  0
LINE
  5
1be
100
AcDbEntity
  8
0
 62
7
100
AcDbLine
 10
90.240000
 20
94.960000
 30
0.0
 11
90.240000
 21
87.760000
 31
0.0
  0
LINE
  5
1bf
100
AcDbEntity
  8
0
 62
7
100
AcDbLine
 10
90.240000
 20
87.760000
 30
0.0
 11
90.240000
 21
87.760000
 31
0.0
  0
SPLINE
  5
1c0
100
AcDbEntity
  8
0
 62
7
100
AcDbSpline
 70
8
 71
3
 72
8
 73
4
 74
0
 40
0
 40
0
 40
0
 40
0
 40
1
 40
1
 40
1
 40
1
 10
120.720000
 20
70.240000
 30
0.0
 10
120.400000
 20
72.320000
 30
0.0
 10
119.600000
 20
73.840000
 30
0.0
 10
118.240000
 20
74.880000
 30
0.0
  0
SPLINE
  5
1c1
100
AcDbEntity
  8
0
 62
7
100
AcDbSpline
 70
8
 71
3
 72
8
 73
4
 74
0
 40
0
 40
0
 40
0
 40
0
 40
1
 40
1
 40
1
 40
1
 10
118.240000
 20
74.880000
 30
0.0
 10
116.880000
 20
75.920000
 30
0.0
 10
114.960000
 20
76.400000
 30
0.0
 10
112.480000
 20
76.400000
 30
0.0
  0
SPLINE
  5
1c2
100
AcDbEntity
  8
0
 62
7
100
AcDbSpline
 70
8
 71
3
 72
8
 73
4
 74
0
 40
0
 40
0
 40
0
 40
0
 40
1
 40
1
 40
1
 40
1
 10
112.480000
 20
76.400000
 30
0.0
 10
110.080000
 20
76.400000
 30
0.0
 10
108.160000
 20
76.000000
 30
0.0
 10
106.640000
 20
75.200000
 30
0.0
  0
SPLINE
  5
1c3
100
AcDbEntity
  8
0
 62
7
100
AcDbSpline
 70
8
 71
3
 72
8
 73
4
 74
0
 40
0
 40
0
 40
0
 40
0
 40
1
 40
1
 40
1
 40
1
 10
106.640000
 20
75.200000
 30
0.0
 10
105.200000
 20
74.320000
 30
0.0
 10
104.400000
 20
73.120000
 30
0.0
 10
104.400000
 20
71.600000
 30
0.0
  0
SPLINE
  5
1c4
100
AcDbEntity
  8
0
 62
7
100
AcDbSpline
 70
8
 71
3
 72
8
 73
4
 74
0
 40
0
 40
0
 40
0
 40
0
 40
1
 40
1
 40
1
 40
1
 10
104.400000
 20
71.600000
 30
0.0
 10
104.400000
 20
70.080000
 30
0.0
 10
105.040000
 20
69.040000
 30
0.0
 10
106.240000
 20
68.400000
 30
0.0
  0
SPLINE
  5
1c5
100
AcDbEntity
  8
0
 62
7
100
AcDbSpline
 70
8
 71
3
 72
8
 73
4
 74
0
 40
0
 40
0
 40
0
 40
0
 40
1
 40
1
 40
1
 40
1
 10
106.240000
 20
68.400000
 30
0.0
 10
107.360000
 20
67.760000
 30
0.0
 10
109.760000
 20
67.040000
 30
0.0
 10
113.200000
 20
66.080000
 30
0.0
  0
SPLINE
  5
1c6
100
AcDbEntity
  8
0
 62
7
100
AcDbSpline
 70
8
 71
3
 72
8
 73
4
 74
0
 40
0
 40
0
 40
0
 40
0
 40
1
 40
1
 40
1
 40
1
 10
113.200000
 20
66.080000
 30
0.0
 10
117.120000
 20
65.120000
 30
0.0
 10
120.080000
 20
64.160000
 30
0.0
 10
122.080000
 20
63.440000
 30
0.0
  0
SPLINE
  5
1c7
100
AcDbEntity
  8
0
 62
7
100
AcDbSpline
 70
8
 71
3
 72
8
 73
4
 74
0
 40
0
 40
0
 40
0
 40
0
 40
1
 40
1
 40
1
 40
1
 10
122.080000
 20
63.440000
 30
0.0
 10
124.000000
 20
62.640000
 30
0.0
 10
125.520000
 20
61.600000
 30
0.0
 10
126.640000
 20
60.160000
 30
0.0
  0
SPLINE
  5
1c8
100
AcDbEntity
  8
0
 62
7
100
AcDbSpline
 70
8
 71
3
 72
8
 73
4
 74
0
 40
0
 40
0
 40
0
 40
0
 40
1
 40
1
 40
1
 40
1
 10
126.640000
 20
60.160000
 30
0.0
 10
127.680000
 20
58.800000
 30
0.0
 10
128.240000
 20
56.800000
 30
0.0
 10
128.240000
 20
54.320000
 30
0.0
  0
SPLINE
  5
1c9
100
AcDbEntity
  8
0
 62
7
100
AcDbSpline
 70
8
 71
3
 72
8
 73
4
 74
0
 40
0
 40
0
 40
0
 40
0
 40
1
 40
1
 40
1
 40
1
 10
128.240000
 20
54.320000
 30
0.0
 10
128.240000
 20
51.040000
 30
0.0
 10
126.880000
 20
48.240000
 30
0.0
 10
124.160000
 20
45.920000
 30
0.0
  0
SPLINE
  5
1ca
100
AcDbEntity
  8
0
 62
7
100
AcDbSpline
 70
8
 71
3
 72
8
 73
4
 74
0
 40
0
 40
0
 40
0
 40
0
 40
1
 40
1
 40
1
 40
1
 10
124.160000
 20
45.920000
 30
0.0
 10
121.440000
 20
43.680000
 30
0.0
 10
117.840000
 20
42.560000
 30
0.0
 10
113.280000
 20
42.560000
 30
0.0
  0
SPLINE
  5
1cb
100
AcDbEntity
  8
0
 62
7
100
AcDbSpline
 70
8
 71
3
 72
8
 73
4
 74
0
 40
0
 40
0
 40
0
 40
0
 40
1
 40
1
 40
1
 40
1
 10
113.280000
 20
42.560000
 30
0.0
 10
108.560000
 20
42.560000
 30
0.0
 10
104.880000
 20
43.520000
 30
0.0
 10
102.160000
 20
45.520000
 30
0.0
  0
SPLINE
  5
1cc
100
AcDbEntity
  8
0
 62
7
100
AcDbSpline
 70
8
 71
3
 72
8
 73
4
 74
0
 40
0
 40
0
 40
0
 40
0
 40
1
 40
1
 40
1
 40
1
 10
102.160000
 20
45.520000
 30
0.0
 10
99.520000
 20
47.520000
 30
0.0
 10
97.920000
 20
50.560000
 30
0.0
 10
97.280000
 20
54.560000
 30
0.0
  0
LINE
  5
1cd
100
AcDbEntity
  8
0
 62
7
100
AcDbLine
 10
97.280000
 20
54.560000
 30
0.0
 11
103.600000
 21
55.520000
 31
0.0
  0
SPLINE
  5
1ce
100
AcDbEntity
  8
0
 62
7
100
AcDbSpline
 70
8
 71
3
 72
8
 73
4
 74
0
 40
0
 40
0
 40
0
 40
0
 40
1
 40
1
 40
1
 40
1
 10
103.600000
 20
55.520000
 30
0.0
 10
103.920000
 20
52.880000
 30
0.0
 10
104.880000
 20
50.960000
 30
0.0
 10
106.480000
 20
49.680000
 30
0.0
  0
SPLINE
  5
1cf
100
AcDbEntity
  8
0
 62
7
100
AcDbSpline
 70
8
 71
3
 72
8
 73
4
 74
0
 40
0
 40
0
 40
0
 40
0
 40
1
 40
1
 40
1
 40
1
 10
106.480000
 20
49.680000
 30
0.0
 10
108.080000
 20
48.400000
 30
0.0
 10
110.320000
 20
47.760000
 30
0.0
 10
113.200000
 20
47.760000
 30
0.0
  0
SPLINE
  5
1d0
100
AcDbEntity
  8
0
 62
7
100
AcDbSpline
 70
8
 71
3
 72
8
 73
4
 74
0
 40
0
 40
0
 40
0
 40
0
 40
1
 40
1
 40
1
 40
1
 10
113.200000
 20
47.760000
 30
0.0
 10
116.000000
 20
47.760000
 30
0.0
 10
118.080000
 20
48.320000
 30
0.0
 10
119.600000
 20
49.440000
 30
0.0
  0
SPLINE
  5
1d1
100
AcDbEntity
  8
0
 62
7
100
AcDbSpline
 70
8
 71
3
 72
8
 73
4
 74
0
 40
0
 40
0
 40
0
 40
0
 40
1
 40
1
 40
1
 40
1
 10
119.600000
 20
49.440000
 30
0.0
 10
121.040000
 20
50.640000
 30
0.0
 10
121.760000
 20
52.080000
 30
0.0
 10
121.760000
 20
53.680000
 30
0.0
  0
SPLINE
  5
1d2
100
AcDbEntity
  8
0
 62
7
100
AcDbSpline
 70
8
 71
3
 72
8
 73
4
 74
0
 40
0
 40
0
 40
0
 40
0
 40
1
 40
1
 40
1
 40
1
 10
121.760000
 20
53.680000
 30
0.0
 10
121.760000
 20
54.880000
 30
0.0
 10
121.440000
 20
55.760000
 30
0.0
 10
120.800000
 20
56.400000
 30
0.0
  0
SPLINE
  5
1d3
100
AcDbEntity
  8
0
 62
7
100
AcDbSpline
 70
8
 71
3
 72
8
 73
4
 74
0
 40
0
 40
0
 40
0
 40
0
 40
1
 40
1
 40
1
 40
1
 10
120.800000
 20
56.400000
 30
0.0
 10
120.080000
 20
57.120000
 30
0.0
 10
119.280000
 20
57.600000
 30
0.0
 10
118.240000
 20
57.920000
 30
0.0
  0
SPLINE
  5
1d4
100
AcDbEntity
  8
0
 62
7
100
AcDbSpline
 70
8
 71
3
 72
8
 73
4
 74
0
 40
0
 40
0
 40
0
 40
0
 40
1
 40
1
 40
1
 40
1
 10
118.240000
 20
57.920000
 30
0.0
 10
117.200000
 20
58.320000
 30
0.0
 10
114.880000
 20
58.880000
 30
0.0
 10
111.360000
 20
59.760000
 30
0.0
  0
SPLINE
  5
1d5
100
AcDbEntity
  8
0
 62
7
100
AcDbSpline
 70
8
 71
3
 72
8
 73
4
 74
0
 40
0
 40
0
 40
0
 40
0
 40
1
 40
1
 40
1
 40
1
 10
111.360000
 20
59.760000
 30
0.0
 10
106.080000
 20
61.040000
 30
0.0
 10
102.560000
 20
62.560000
 30
0.0
 10
100.880000
 20
64.400000
 30
0.0
  0
SPLINE
  5
1d6
100
AcDbEntity
  8
0
 62
7
100
AcDbSpline
 70
8
 71
3
 72
8
 73
4
 74
0
 40
0
 40
0
 40
0
 40
0
 40
1
 40
1
 40
1
 40
1
 10
100.880000
 20
64.400000
 30
0.0
 10
99.200000
 20
66.160000
 30
0.0
 10
98.320000
 20
68.320000
 30
0.0
 10
98.320000
 20
70.800000
 30
0.0
  0
SPLINE
  5
1d7
100
AcDbEntity
  8
0
 62
7
100
AcDbSpline
 70
8
 71
3
 72
8
 73
4
 74
0
 40
0
 40
0
 40
0
 40
0
 40
1
 40
1
 40
1
 40
1
 10
98.320000
 20
70.800000
 30
0.0
 10
98.320000
 20
73.920000
 30
0.0
 10
99.520000
 20
76.560000
 30
0.0
 10
102.000000
 20
78.560000
 30
0.0
  0
SPLINE
  5
1d8
100
AcDbEntity
  8
0
 62
7
100
AcDbSpline
 70
8
 71
3
 72
8
 73
4
 74
0
 40
0
 40
0
 40
0
 40
0
 40
1
 40
1
 40
1
 40
1
 10
102.000000
 20
78.560000
 30
0.0
 10
104.560000
 20
80.560000
 30
0.0
 10
107.840000
 20
81.600000
 30
0.0
 10
112.080000
 20
81.600000
 30
0.0
  0
SPLINE
  5
1d9
100
AcDbEntity
  8
0
 62
7
100
AcDbSpline
 70
8
 71
3
 72
8
 73
4
 74
0
 40
0
 40
0
 40
0
 40
0
 40
1
 40
1
 40
1
 40
1
 10
112.080000
 20
81.600000
 30
0.0
 10
116.480000
 20
81.600000
 30
0.0
 10
120.000000
 20
80.720000
 30
0.0
 10
122.480000
 20
78.960000
 30
0.0
  0
SPLINE
  5
1da
100
AcDbEntity
  8
0
 62
7
100
AcDbSpline
 70
8
 71
3
 72
8
 73
4
 74
0
 40
0
 40
0
 40
0
 40
0
 40
1
 40
1
 40
1
 40
1
 10
122.480000
 20
78.960000
 30
0.0
 10
124.880000
 20
77.200000
 30
0.0
 10
126.400000
 20
74.560000
 30
0.0
 10
126.880000
 20
71.120000
 30
0.0
  0
LINE
  5
1db
100
AcDbEntity
  8
0
 62
7
100
AcDbLine
 10
126.880000
 20
71.120000
 30
0.0
 11
120.720000
 21
70.240000
 31
0.0
  0
LINE
  5
1dc
100
AcDbEntity
  8
0
 62
7
100
AcDbLine
 10
120.720000
 20
70.240000
 30
0.0
 11
120.720000
 21
70.240000
 31
0.0
  0
SPLINE
  5
1dd
100
AcDbEntity
  8
0
 62
7
100
AcDbSpline
 70
8
 71
3
 72
8
 73
4
 74
0
 40
0
 40
0
 40
0
 40
0
 40
1
 40
1
 40
1
 40
1
 10
150.480000
 20
43.520000
 30
0.0
 10
148.560000
 20
43.120000
 30
0.0
 10
146.960000
 20
42.960000
 30
0.0
 10
145.680000
 20
42.960000
 30
0.0
  0
SPLINE
  5
1de
100
AcDbEntity
  8
0
 62
7
100
AcDbSpline
 70
8
 71
3
 72
8
 73
4
 74
0
 40
0
 40
0
 40
0
 40
0
 40
1
 40
1
 40
1
 40
1
 10
145.680000
 20
42.960000
 30
0.0
 10
142.960000
 20
42.960000
 30
0.0
 10
140.960000
 20
43.440000
 30
0.0
 10
139.680000
 20
44.400000
 30
0.0
  0
SPLINE
  5
1df
100
AcDbEntity
  8
0
 62
7
100
AcDbSpline
 70
8
 71
3
 72
8
 73
4
 74
0
 40
0
 40
0
 40
0
 40
0
 40
1
 40
1
 40
1
 40
1
 10
139.680000
 20
44.400000
 30
0.0
 10
138.400000
 20
45.360000
 30
0.0
 10
137.600000
 20
46.560000
 30
0.0
 10
137.360000
 20
48.080000
 30
0.0
  0
SPLINE
  5
1e0
100
AcDbEntity
  8
0
 62
7
100
AcDbSpline
 70
8
 71
3
 72
8
 73
4
 74
0
 40
0
 40
0
 40
0
 40
0
 40
1
 40
1
 40
1
 40
1
 10
137.360000
 20
48.080000
 30
0.0
 10
137.040000
 20
49.600000
 30
0.0
 10
136.880000
 20
51.680000
 30
0.0
 10
136.880000
 20
54.320000
 30
0.0
  0
LINE
  5
1e1
100
AcDbEntity
  8
0
 62
7
100
AcDbLine
 10
136.880000
 20
54.320000
 30
0.0
 11
136.880000
 21
75.840000
 31
0.0
  0
LINE
  5
1e2
100
AcDbEntity
  8
0
 62
7
100
AcDbLine
 10
136.880000
 20
75.840000
 30
0.0
 11
132.320000
 21
75.840000
 31
0.0
  0
LINE
  5
1e3
100
AcDbEntity
  8
0
 62
7
100
AcDbLine
 10
132.320000
 20
75.840000
 30
0.0
 11
132.320000
 21
80.720000
 31
0.0
  0
LINE
  5
1e4
100
AcDbEntity
  8
0
 62
7
100
AcDbLine
 10
132.320000
 20
80.720000
 30
0.0
 11
136.880000
 21
80.720000
 31
0.0
  0
LINE
  5
1e5
100
AcDbEntity
  8
0
 62
7
100
AcDbLine
 10
136.880000
 20
80.720000
 30
0.0
 11
136.880000
 21
90.000000
 31
0.0
  0
LINE
  5
1e6
100
AcDbEntity
  8
0
 62
7
100
AcDbLine
 10
136.880000
 20
90.000000
 30
0.0
 11
143.280000
 21
93.840000
 31
0.0
  0
LINE
  5
1e7
100
AcDbEntity
  8
0
 62
7
100
AcDbLine
 10
143.280000
 20
93.840000
 30
0.0
 11
143.280000
 21
80.720000
 31
0.0
  0
LINE
  5
1e8
100
AcDbEntity
  8
0
 62
7
100
AcDbLine
 10
143.280000
 20
80.720000
 30
0.0
 11
149.600000
 21
80.720000
 31
0.0
  0
LINE
  5
1e9
100
AcDbEntity
  8
0
 62
7
100
AcDbLine
 10
149.600000
 20
80.720000
 30
0.0
 11
149.600000
 21
75.840000
 31
0.0
  0
LINE
  5
1ea
100
AcDbEntity
  8
0
 62
7
100
AcDbLine
 10
149.600000
 20
75.840000
 30
0.0
 11
143.280000
 21
75.840000
 31
0.0
  0
LINE
  5
1eb
100
AcDbEntity
  8
0
 62
7
100
AcDbLine
 10
143.280000
 20
75.840000
 30
0.0
 11
143.280000
 21
54.000000
 31
0.0
  0
SPLINE
  5
1ec
100
AcDbEntity
  8
0
 62
7
100
AcDbSpline
 70
8
 71
3
 72
8
 73
4
 74
0
 40
0
 40
0
 40
0
 40
0
 40
1
 40
1
 40
1
 40
1
 10
143.280000
 20
54.000000
 30
0.0
 10
143.280000
 20
52.160000
 30
0.0
 10
143.440000
 20
50.800000
 30
0.0
 10
143.840000
 20
50.000000
 30
0.0
  0
SPLINE
  5
1ed
100
AcDbEntity
  8
0
 62
7
100
AcDbSpline
 70
8
 71
3
 72
8
 73
4
 74
0
 40
0
 40
0
 40
0
 40
0
 40
1
 40
1
 40
1
 40
1
 10
143.840000
 20
50.000000
 30
0.0
 10
144.240000
 20
49.200000
 30
0.0
 10
145.200000
 20
48.800000
 30
0.0
 10
146.720000
 20
48.800000
 30
0.0
  0
SPLINE
  5
1ee
100
AcDbEntity
  8
0
 62
7
100
AcDbSpline
 70
8
 71
3
 72
8
 73
4
 74
0
 40
0
 40
0
 40
0
 40
0
 40
1
 40
1
 40
1
 40
1
 10
146.720000
 20
48.800000
 30
0.0
 10
147.680000
 20
48.800000
 30
0.0
 10
148.640000
 20
48.960000
 30
0.0
 10
149.600000
 20
49.120000
 30
0.0
  0
LINE
  5
1ef
100
AcDbEntity
  8
0
 62
7
100
AcDbLine
 10
149.600000
 20
49.120000
 30
0.0
 11
150.480000
 21
43.520000
 31
0.0
  0
LINE
  5
1f0
100
AcDbEntity
  8
0
 62
7
100
AcDbLine
 10
150.480000
 20
43.520000
 30
0.0
 11
150.480000
 21
43.520000
 31
0.0
  0
SPLINE
  5
1f1
100
AcDbEntity
  8
0
 62
7
100
AcDbSpline
 70
8
 71
3
 72
8
 73
4
 74
0
 40
0
 40
0
 40
0
 40
0
 40
1
 40
1
 40
1
 40
1
 10
171.120000
 20
81.600000
 30
0.0
 10
176.160000
 20
81.600000
 30
0.0
 10
180.320000
 20
79.920000
 30
0.0
 10
183.600000
 20
76.640000
 30
0.0
  0
SPLINE
  5
1f2
100
AcDbEntity
  8
0
 62
7
100
AcDbSpline
 70
8
 71
3
 72
8
 73
4
 74
0
 40
0
 40
0
 40
0
 40
0
 40
1
 40
1
 40
1
 40
1
 10
183.600000
 20
76.640000
 30
0.0
 10
186.960000
 20
73.360000
 30
0.0
 10
188.560000
 20
68.720000
 30
0.0
 10
188.560000
 20
62.640000
 30
0.0
  0
SPLINE
  5
1f3
100
AcDbEntity
  8
0
 62
7
100
AcDbSpline
 70
8
 71
3
 72
8
 73
4
 74
0
 40
0
 40
0
 40
0
 40
0
 40
1
 40
1
 40
1
 40
1
 10
188.560000
 20
62.640000
 30
0.0
 10
188.560000
 20
55.280000
 30
0.0
 10
186.800000
 20
50.160000
 30
0.0
 10
183.200000
 20
47.120000
 30
0.0
  0
SPLINE
  5
1f4
100
AcDbEntity
  8
0
 62
7
100
AcDbSpline
 70
8
 71
3
 72
8
 73
4
 74
0
 40
0
 40
0
 40
0
 40
0
 40
1
 40
1
 40
1
 40
1
 10
183.200000
 20
47.120000
 30
0.0
 10
179.600000
 20
44.080000
 30
0.0
 10
175.600000
 20
42.560000
 30
0.0
 10
171.120000
 20
42.560000
 30
0.0
  0
SPLINE
  5
1f5
100
AcDbEntity
  8
0
 62
7
100
AcDbSpline
 70
8
 71
3
 72
8
 73
4
 74
0
 40
0
 40
0
 40
0
 40
0
 40
1
 40
1
 40
1
 40
1
 10
171.120000
 20
42.560000
 30
0.0
 10
166.400000
 20
42.560000
 30
0.0
 10
162.320000
 20
44.080000
 30
0.0
 10
158.800000
 20
47.200000
 30
0.0
  0
SPLINE
  5
1f6
100
AcDbEntity
  8
0
 62
7
100
AcDbSpline
 70
8
 71
3
 72
8
 73
4
 74
0
 40
0
 40
0
 40
0
 40
0
 40
1
 40
1
 40
1
 40
1
 10
158.800000
 20
47.200000
 30
0.0
 10
155.360000
 20
50.320000
 30
0.0
 10
153.600000
 20
55.280000
 30
0.0
 10
153.600000
 20
62.080000
 30
0.0
  0
SPLINE
  5
1f7
100
AcDbEntity
  8
0
 62
7
100
AcDbSpline
 70
8
 71
3
 72
8
 73
4
 74
0
 40
0
 40
0
 40
0
 40
0
 40
1
 40
1
 40
1
 40
1
 10
153.600000
 20
62.080000
 30
0.0
 10
153.600000
 20
68.640000
 30
0.0
 10
155.280000
 20
73.520000
 30
0.0
 10
158.640000
 20
76.720000
 30
0.0
  0
SPLINE
  5
1f8
100
AcDbEntity
  8
0
 62
7
100
AcDbSpline
 70
8
 71
3
 72
8
 73
4
 74
0
 40
0
 40
0
 40
0
 40
0
 40
1
 40
1
 40
1
 40
1
 10
158.640000
 20
76.720000
 30
0.0
 10
162.000000
 20
79.920000
 30
0.0
 10
166.160000
 20
81.600000
 30
0.0
 10
171.120000
 20
81.600000
 30
0.0
  0
LINE
  5
1f9
100
AcDbEntity
  8
0
 62
7
100
AcDbLine
 10
171.120000
 20
81.600000
 30
0.0
 11
171.120000
 21
81.600000
 31
0.0
  0
SPLINE
  5
1fa
100
AcDbEntity
  8
0
 62
7
100
AcDbSpline
 70
8
 71
3
 72
8
 73
4
 74
0
 40
0
 40
0
 40
0
 40
0
 40
1
 40
1
 40
1
 40
1
 10
171.120000
 20
47.760000
 30
0.0
 10
174.720000
 20
47.760000
 30
0.0
 10
177.440000
 20
49.040000
 30
0.0
 10
179.280000
 20
51.760000
 30
0.0
  0
SPLINE
  5
1fb
100
AcDbEntity
  8
0
 62
7
100
AcDbSpline
 70
8
 71
3
 72
8
 73
4
 74
0
 40
0
 40
0
 40
0
 40
0
 40
1
 40
1
 40
1
 40
1
 10
179.280000
 20
51.760000
 30
0.0
 10
181.200000
 20
54.400000
 30
0.0
 10
182.160000
 20
57.920000
 30
0.0
 10
182.160000
 20
62.320000
 30
0.0
  0
SPLINE
  5
1fc
100
AcDbEntity
  8
0
 62
7
100
AcDbSpline
 70
8
 71
3
 72
8
 73
4
 74
0
 40
0
 40
0
 40
0
 40
0
 40
1
 40
1
 40
1
 40
1
 10
182.160000
 20
62.320000
 30
0.0
 10
182.160000
 20
66.960000
 30
0.0
 10
181.040000
 20
70.480000
 30
0.0
 10
178.960000
 20
72.880000
 30
0.0
  0
SPLINE
  5
1fd
100
AcDbEntity
  8
0
 62
7
100
AcDbSpline
 70
8
 71
3
 72
8
 73
4
 74
0
 40
0
 40
0
 40
0
 40
0
 40
1
 40
1
 40
1
 40
1
 10
178.960000
 20
72.880000
 30
0.0
 10
176.800000
 20
75.200000
 30
0.0
 10
174.240000
 20
76.400000
 30
0.0
 10
171.120000
 20
76.400000
 30
0.0
  0
SPLINE
  5
1fe
100
AcDbEntity
  8
0
 62
7
100
AcDbSpline
 70
8
 71
3
 72
8
 73
4
 74
0
 40
0
 40
0
 40
0
 40
0
 40
1
 40
1
 40
1
 40
1
 10
171.120000
 20
76.400000
 30
0.0
 10
167.840000
 20
76.400000
 30
0.0
 10
165.200000
 20
75.200000
 30
0.0
 10
163.200000
 20
72.800000
 30
0.0
  0
SPLINE
  5
1ff
100
AcDbEntity
  8
0
 62
7
100
AcDbSpline
 70
8
 71
3
 72
8
 73
4
 74
0
 40
0
 40
0
 40
0
 40
0
 40
1
 40
1
 40
1
 40
1
 10
163.200000
 20
72.800000
 30
0.0
 10
161.120000
 20
70.400000
 30
0.0
 10
160.080000
 20
66.800000
 30
0.0
 10
160.080000
 20
62.080000
 30
0.0
  0
SPLINE
  5
200
100
AcDbEntity
  8
0
 62
7
100
AcDbSpline
 70
8
 71
3
 72
8
 73
4
 74
0
 40
0
 40
0
 40
0
 40
0
 40
1
 40
1
 40
1
 40
1
 10
160.080000
 20
62.080000
 30
0.0
 10
160.080000
 20
57.280000
 30
0.0
 10
161.120000
 20
53.760000
 30
0.0
 10
163.200000
 20
51.360000
 30
0.0
  0
SPLINE
  5
201
100
AcDbEntity
  8
0
 62
7
100
AcDbSpline
 70
8
 71
3
 72
8
 73
4
 74
0
 40
0
 40
0
 40
0
 40
0
 40
1
 40
1
 40
1
 40
1
 10
163.200000
 20
51.360000
 30
0.0
 10
165.360000
 20
48.960000
 30
0.0
 10
167.920000
 20
47.760000
 30
0.0
 10
171.120000
 20
47.760000
 30
0.0
  0
LINE
  5
202
100
AcDbEntity
  8
0
 62
7
100
AcDbLine
 10
171.120000
 20
47.760000
 30
0.0
 11
171.120000
 21
47.760000
 31
0.0
  0
LINE
  5
203
100
AcDbEntity
  8
0
 62
7
100
AcDbLine
 10
226.160000
 20
43.440000
 30
0.0
 11
220.480000
 21
43.440000
 31
0.0
  0
LINE
  5
204
100
AcDbEntity
  8
0
 62
7
100
AcDbLine
 10
220.480000
 20
43.440000
 30
0.0
 11
220.480000
 21
48.880000
 31
0.0
  0
LINE
  5
205
100
AcDbEntity
  8
0
 62
7
100
AcDbLine
 10
220.480000
 20
48.880000
 30
0.0
 11
220.320000
 21
48.880000
 31
0.0
  0
SPLINE
  5
206
100
AcDbEntity
  8
0
 62
7
100
AcDbSpline
 70
8
 71
3
 72
8
 73
4
 74
0
 40
0
 40
0
 40
0
 40
0
 40
1
 40
1
 40
1
 40
1
 10
220.320000
 20
48.880000
 30
0.0
 10
217.440000
 20
44.640000
 30
0.0
 10
213.600000
 20
42.560000
 30
0.0
 10
208.640000
 20
42.560000
 30
0.0
  0
SPLINE
  5
207
100
AcDbEntity
  8
0
 62
7
100
AcDbSpline
 70
8
 71
3
 72
8
 73
4
 74
0
 40
0
 40
0
 40
0
 40
0
 40
1
 40
1
 40
1
 40
1
 10
208.640000
 20
42.560000
 30
0.0
 10
206.000000
 20
42.560000
 30
0.0
 10
203.600000
 20
43.120000
 30
0.0
 10
201.440000
 20
44.320000
 30
0.0
  0
SPLINE
  5
208
100
AcDbEntity
  8
0
 62
7
100
AcDbSpline
 70
8
 71
3
 72
8
 73
4
 74
0
 40
0
 40
0
 40
0
 40
0
 40
1
 40
1
 40
1
 40
1
 10
201.440000
 20
44.320000
 30
0.0
 10
199.200000
 20
45.520000
 30
0.0
 10
197.680000
 20
47.200000
 30
0.0
 10
196.960000
 20
49.360000
 30
0.0
  0
SPLINE
  5
209
100
AcDbEntity
  8
0
 62
7
100
AcDbSpline
 70
8
 71
3
 72
8
 73
4
 74
0
 40
0
 40
0
 40
0
 40
0
 40
1
 40
1
 40
1
 40
1
 10
196.960000
 20
49.360000
 30
0.0
 10
196.240000
 20
51.440000
 30
0.0
 10
195.840000
 20
54.240000
 30
0.0
 10
195.840000
 20
57.600000
 30
0.0
  0
LINE
  5
20a
100
AcDbEntity
  8
0
 62
7
100
AcDbLine
 10
195.840000
 20
57.600000
 30
0.0
 11
195.840000
 21
80.720000
 31
0.0
  0
LINE
  5
20b
100
AcDbEntity
  8
0
 62
7
100
AcDbLine
 10
195.840000
 20
80.720000
 30
0.0
 11
202.160000
 21
80.720000
 31
0.0
  0
LINE
  5
20c
100
AcDbEntity
  8
0
 62
7
100
AcDbLine
 10
202.160000
 20
80.720000
 30
0.0
 11
202.160000
 21
60.080000
 31
0.0
  0
SPLINE
  5
20d
100
AcDbEntity
  8
0
 62
7
100
AcDbSpline
 70
8
 71
3
 72
8
 73
4
 74
0
 40
0
 40
0
 40
0
 40
0
 40
1
 40
1
 40
1
 40
1
 10
202.160000
 20
60.080000
 30
0.0
 10
202.160000
 20
56.720000
 30
0.0
 10
202.320000
 20
54.400000
 30
0.0
 10
202.640000
 20
52.960000
 30
0.0
  0
SPLINE
  5
20e
100
AcDbEntity
  8
0
 62
7
100
AcDbSpline
 70
8
 71
3
 72
8
 73
4
 74
0
 40
0
 40
0
 40
0
 40
0
 40
1
 40
1
 40
1
 40
1
 10
202.640000
 20
52.960000
 30
0.0
 10
202.960000
 20
51.520000
 30
0.0
 10
203.840000
 20
50.320000
 30
0.0
 10
205.120000
 20
49.440000
 30
0.0
  0
SPLINE
  5
20f
100
AcDbEntity
  8
0
 62
7
100
AcDbSpline
 70
8
 71
3
 72
8
 73
4
 74
0
 40
0
 40
0
 40
0
 40
0
 40
1
 40
1
 40
1
 40
1
 10
205.120000
 20
49.440000
 30
0.0
 10
206.480000
 20
48.480000
 30
0.0
 10
208.080000
 20
48.000000
 30
0.0
 10
209.920000
 20
48.000000
 30
0.0
  0
SPLINE
  5
210
100
AcDbEntity
  8
0
 62
7
100
AcDbSpline
 70
8
 71
3
 72
8
 73
4
 74
0
 40
0
 40
0
 40
0
 40
0
 40
1
 40
1
 40
1
 40
1
 10
209.920000
 20
48.000000
 30
0.0
 10
212.320000
 20
48.000000
 30
0.0
 10
214.560000
 20
48.880000
 30
0.0
 10
216.720000
 20
50.480000
 30
0.0
  0
SPLINE
  5
211
100
AcDbEntity
  8
0
 62
7
100
AcDbSpline
 70
8
 71
3
 72
8
 73
4
 74
0
 40
0
 40
0
 40
0
 40
0
 40
1
 40
1
 40
1
 40
1
 10
216.720000
 20
50.480000
 30
0.0
 10
218.800000
 20
52.160000
 30
0.0
 10
219.840000
 20
55.600000
 30
0.0
 10
219.840000
 20
60.800000
 30
0.0
  0
LINE
  5
212
100
AcDbEntity
  8
0
 62
7
100
AcDbLine
 10
219.840000
 20
60.800000
 30
0.0
 11
219.840000
 21
80.720000
 31
0.0
  0
LINE
  5
213
100
AcDbEntity
  8
0
 62
7
100
AcDbLine
 10
219.840000
 20
80.720000
 30
0.0
 11
226.160000
 21
80.720000
 31
0.0
  0
LINE
  5
214
100
AcDbEntity
  8
0
 62
7
100
AcDbLine
 10
226.160000
 20
80.720000
 30
0.0
 11
226.160000
 21
43.440000
 31
0.0
  0
LINE
  5
215
100
AcDbEntity
  8
0
 62
7
100
AcDbLine
 10
226.160000
 20
43.440000
 30
0.0
 11
226.160000
 21
43.440000
 31
0.0
  0
LINE
  5
216
100
AcDbEntity
  8
0
 62
7
100
AcDbLine
 10
242.320000
 20
43.440000
 30
0.0
 11
236.000000
 21
43.440000
 31
0.0
  0
LINE
  5
217
100
AcDbEntity
  8
0
 62
7
100
AcDbLine
 10
236.000000
 20
43.440000
 30
0.0
 11
236.000000
 21
80.720000
 31
0.0
  0
LINE
  5
218
100
AcDbEntity
  8
0
 62
7
100
AcDbLine
 10
236.000000
 20
80.720000
 30
0.0
 11
242.320000
 21
80.720000
 31
0.0
  0
LINE
  5
219
100
AcDbEntity
  8
0
 62
7
100
AcDbLine
 10
242.320000
 20
80.720000
 30
0.0
 11
242.320000
 21
43.440000
 31
0.0
  0
LINE
  5
21a
100
AcDbEntity
  8
0
 62
7
100
AcDbLine
 10
242.320000
 20
43.440000
 30
0.0
 11
242.320000
 21
43.440000
 31
0.0
  0
LINE
  5
21b
100
AcDbEntity
  8
0
 62
7
100
AcDbLine
 10
242.320000
 20
87.760000
 30
0.0
 11
236.000000
 21
87.760000
 31
0.0
  0
LINE
  5
21c
100
AcDbEntity
  8
0
 62
7
100
AcDbLine
 10
236.000000
 20
87.760000
 30
0.0
 11
236.000000
 21
94.960000
 31
0.0
  0
LINE
  5
21d
100
AcDbEntity
  8
0
 62
7
100
AcDbLine
 10
236.000000
 20
94.960000
 30
0.0
 11
242.320000
 21
94.960000
 31
0.0
  0
LINE
  5
21e
100
AcDbEntity
  8
0
 62
7
100
AcDbLine
 10
242.320000
 20
94.960000
 30
0.0
 11
242.320000
 21
87.760000
 31
0.0
  0
LINE
  5
21f
100
AcDbEntity
  8
0
 62
7
100
AcDbLine
 10
242.320000
 20
87.760000
 30
0.0
 11
242.320000
 21
87.760000
 31
0.0
  0
LINE
  5
220
100
AcDbEntity
  8
0
 62
7
100
AcDbLine
 10
258.320000
 20
43.440000
 30
0.0
 11
252.000000
 21
43.440000
 31
0.0
  0
LINE
  5
221
100
AcDbEntity
  8
0
 62
7
100
AcDbLine
 10
252.000000
 20
43.440000
 30
0.0
 11
252.000000
 21
94.960000
 31
0.0
  0
LINE
  5
222
100
AcDbEntity
  8
0
 62
7
100
AcDbLine
 10
252.000000
 20
94.960000
 30
0.0
 11
258.320000
 21
94.960000
 31
0.0
  0
LINE
  5
223
100
AcDbEntity
  8
0
 62
7
100
AcDbLine
 10
258.320000
 20
94.960000
 30
0.0
 11
258.320000
 21
43.440000
 31
0.0
  0
LINE
  5
224
100
AcDbEntity
  8
0
 62
7
100
AcDbLine
 10
258.320000
 20
43.440000
 30
0.0
 11
258.320000
 21
43.440000
 31
0.0
  0
LINE
  5
225
100
AcDbEntity
  8
0
 62
7
100
AcDbLine
 10
274.320000
 20
43.440000
 30
0.0
 11
268.000000
 21
43.440000
 31
0.0
  0
LINE
  5
226
100
AcDbEntity
  8
0
 62
7
100
AcDbLine
 10
268.000000
 20
43.440000
 30
0.0
 11
268.000000
 21
94.960000
 31
0.0
  0
LINE
  5
227
100
AcDbEntity
  8
0
 62
7
100
AcDbLine
 10
268.000000
 20
94.960000
 30
0.0
 11
274.320000
 21
94.960000
 31
0.0
  0
LINE
  5
228
100
AcDbEntity
  8
0
 62
7
100
AcDbLine
 10
274.320000
 20
94.960000
 30
0.0
 11
274.320000
 21
43.440000
 31
0.0
  0
LINE
  5
229
100
AcDbEntity
  8
0
 62
7
100
AcDbLine
 10
274.320000
 20
43.440000
 30
0.0
 11
274.320000
 21
43.440000
 31
0.0
  0
LINE
  5
22a
100
AcDbEntity
  8
0
 62
7
100
AcDbLine
 10
316.400000
 20
60.480000
 30
0.0
 11
288.400000
 21
60.480000
 31
0.0
  0
SPLINE
  5
22b
100
AcDbEntity
  8
0
 62
7
100
AcDbSpline
 70
8
 71
3
 72
8
 73
4
 74
0
 40
0
 40
0
 40
0
 40
0
 40
1
 40
1
 40
1
 40
1
 10
288.400000
 20
60.480000
 30
0.0
 10
288.720000
 20
56.320000
 30
0.0
 10
289.840000
 20
53.200000
 30
0.0
 10
292.000000
 20
51.040000
 30
0.0
  0
SPLINE
  5
22c
100
AcDbEntity
  8
0
 62
7
100
AcDbSpline
 70
8
 71
3
 72
8
 73
4
 74
0
 40
0
 40
0
 40
0
 40
0
 40
1
 40
1
 40
1
 40
1
 10
292.000000
 20
51.040000
 30
0.0
 10
294.080000
 20
48.800000
 30
0.0
 10
296.720000
 20
47.760000
 30
0.0
 10
299.840000
 20
47.760000
 30
0.0
  0
SPLINE
  5
22d
100
AcDbEntity
  8
0
 62
7
100
AcDbSpline
 70
8
 71
3
 72
8
 73
4
 74
0
 40
0
 40
0
 40
0
 40
0
 40
1
 40
1
 40
1
 40
1
 10
299.840000
 20
47.760000
 30
0.0
 10
302.240000
 20
47.760000
 30
0.0
 10
304.240000
 20
48.400000
 30
0.0
 10
305.920000
 20
49.680000
 30
0.0
  0
SPLINE
  5
22e
100
AcDbEntity
  8
0
 62
7
100
AcDbSpline
 70
8
 71
3
 72
8
 73
4
 74
0
 40
0
 40
0
 40
0
 40
0
 40
1
 40
1
 40
1
 40
1
 10
305.920000
 20
49.680000
 30
0.0
 10
307.520000
 20
50.960000
 30
0.0
 10
308.800000
 20
52.880000
 30
0.0
 10
309.680000
 20
55.440000
 30
0.0
  0
LINE
  5
22f
100
AcDbEntity
  8
0
 62
7
100
AcDbLine
 10
309.680000
 20
55.440000
 30
0.0
 11
316.160000
 21
54.640000
 31
0.0
  0
SPLINE
  5
230
100
AcDbEntity
  8
0
 62
7
100
AcDbSpline
 70
8
 71
3
 72
8
 73
4
 74
0
 40
0
 40
0
 40
0
 40
0
 40
1
 40
1
 40
1
 40
1
 10
316.160000
 20
54.640000
 30
0.0
 10
315.120000
 20
50.720000
 30
0.0
 10
313.200000
 20
47.760000
 30
0.0
 10
310.400000
 20
45.680000
 30
0.0
  0
SPLINE
  5
231
100
AcDbEntity
  8
0
 62
7
100
AcDbSpline
 70
8
 71
3
 72
8
 73
4
 74
0
 40
0
 40
0
 40
0
 40
0
 40
1
 40
1
 40
1
 40
1
 10
310.400000
 20
45.680000
 30
0.0
 10
307.600000
 20
43.600000
 30
0.0
 10
304.080000
 20
42.560000
 30
0.0
 10
299.840000
 20
42.560000
 30
0.0
  0
SPLINE
  5
232
100
AcDbEntity
  8
0
 62
7
100
AcDbSpline
 70
8
 71
3
 72
8
 73
4
 74
0
 40
0
 40
0
 40
0
 40
0
 40
1
 40
1
 40
1
 40
1
 10
299.840000
 20
42.560000
 30
0.0
 10
294.240000
 20
42.560000
 30
0.0
 10
289.840000
 20
44.240000
 30
0.0
 10
286.720000
 20
47.680000
 30
0.0
  0
SPLINE
  5
233
100
AcDbEntity
  8
0
 62
7
100
AcDbSpline
 70
8
 71
3
 72
8
 73
4
 74
0
 40
0
 40
0
 40
0
 40
0
 40
1
 40
1
 40
1
 40
1
 10
286.720000
 20
47.680000
 30
0.0
 10
283.520000
 20
51.120000
 30
0.0
 10
282.000000
 20
55.840000
 30
0.0
 10
282.000000
 20
61.760000
 30
0.0
  0
SPLINE
  5
234
100
AcDbEntity
  8
0
 62
7
100
AcDbSpline
 70
8
 71
3
 72
8
 73
4
 74
0
 40
0
 40
0
 40
0
 40
0
 40
1
 40
1
 40
1
 40
1
 10
282.000000
 20
61.760000
 30
0.0
 10
282.000000
 20
67.680000
 30
0.0
 10
283.520000
 20
72.400000
 30
0.0
 10
286.560000
 20
76.080000
 30
0.0
  0
SPLINE
  5
235
100
AcDbEntity
  8
0
 62
7
100
AcDbSpline
 70
8
 71
3
 72
8
 73
4
 74
0
 40
0
 40
0
 40
0
 40
0
 40
1
 40
1
 40
1
 40
1
 10
286.560000
 20
76.080000
 30
0.0
 10
289.600000
 20
79.760000
 30
0.0
 10
293.920000
 20
81.600000
 30
0.0
 10
299.440000
 20
81.600000
 30
0.0
  0
SPLINE
  5
236
100
AcDbEntity
  8
0
 62
7
100
AcDbSpline
 70
8
 71
3
 72
8
 73
4
 74
0
 40
0
 40
0
 40
0
 40
0
 40
1
 40
1
 40
1
 40
1
 10
299.440000
 20
81.600000
 30
0.0
 10
302.160000
 20
81.600000
 30
0.0
 10
304.800000
 20
80.960000
 30
0.0
 10
307.360000
 20
79.760000
 30
0.0
  0
SPLINE
  5
237
100
AcDbEntity
  8
0
 62
7
100
AcDbSpline
 70
8
 71
3
 72
8
 73
4
 74
0
 40
0
 40
0
 40
0
 40
0
 40
1
 40
1
 40
1
 40
1
 10
307.360000
 20
79.760000
 30
0.0
 10
309.840000
 20
78.560000
 30
0.0
 10
312.000000
 20
76.560000
 30
0.0
 10
313.760000
 20
73.680000
 30
0.0
  0
SPLINE
  5
238
100
AcDbEntity
  8
0
 62
7
100
AcDbSpline
 70
8
 71
3
 72
8
 73
4
 74
0
 40
0
 40
0
 40
0
 40
0
 40
1
 40
1
 40
1
 40
1
 10
313.760000
 20
73.680000
 30
0.0
 10
315.520000
 20
70.800000
 30
0.0
 10
316.400000
 20
66.400000
 30
0.0
 10
316.400000
 20
60.480000
 30
0.0
  0
LINE
  5
239
100
AcDbEntity
  8
0
 62
7
100
AcDbLine
 10
316.400000
 20
60.480000
 30
0.0
 11
316.400000
 21
60.480000
 31
0.0
  0
SPLINE
  5
23a
100
AcDbEntity
  8
0
 62
7
100
AcDbSpline
 70
8
 71
3
 72
8
 73
4
 74
0
 40
0
 40
0
 40
0
 40
0
 40
1
 40
1
 40
1
 40
1
 10
309.920000
 20
65.680000
 30
0.0
 10
309.600000
 20
69.440000
 30
0.0
 10
308.480000
 20
72.240000
 30
0.0
 10
306.320000
 20
73.840000
 30
0.0
  0
SPLINE
  5
23b
100
AcDbEntity
  8
0
 62
7
100
AcDbSpline
 70
8
 71
3
 72
8
 73
4
 74
0
 40
0
 40
0
 40
0
 40
0
 40
1
 40
1
 40
1
 40
1
 10
306.320000
 20
73.840000
 30
0.0
 10
304.240000
 20
75.520000
 30
0.0
 10
302.000000
 20
76.400000
 30
0.0
 10
299.440000
 20
76.400000
 30
0.0
  0
SPLINE
  5
23c
100
AcDbEntity
  8
0
 62
7
100
AcDbSpline
 70
8
 71
3
 72
8
 73
4
 74
0
 40
0
 40
0
 40
0
 40
0
 40
1
 40
1
 40
1
 40
1
 10
299.440000
 20
76.400000
 30
0.0
 10
296.480000
 20
76.400000
 30
0.0
 10
294.080000
 20
75.360000
 30
0.0
 10
292.160000
 20
73.440000
 30
0.0
  0
SPLINE
  5
23d
100
AcDbEntity
  8
0
 62
7
100
AcDbSpline
 70
8
 71
3
 72
8
 73
4
 74
0
 40
0
 40
0
 40
0
 40
0
 40
1
 40
1
 40
1
 40
1
 10
292.160000
 20
73.440000
 30
0.0
 10
290.240000
 20
71.440000
 30
0.0
 10
289.120000
 20
68.800000
 30
0.0
 10
288.800000
 20
65.680000
 30
0.0
  0
LINE
  5
23e
100
AcDbEntity
  8
0
 62
7
100
AcDbLine
 10
288.800000
 20
65.680000
 30
0.0
 11
309.920000
 21
65.680000
 31
0.0
  0
LINE
  5
23f
100
AcDbEntity
  8
0
 62
7
100
AcDbLine
 10
309.920000
 20
65.680000
 30
0.0
 11
309.920000
 21
65.680000
 31
0.0
  0
LINE
  5
240
100
AcDbEntity
  8
0
 62
7
100
AcDbLine
 10
332.800000
 20
43.440000
 30
0.0
 11
325.600000
 21
43.440000
 31
0.0
  0
LINE
  5
241
100
AcDbEntity
  8
0
 62
7
100
AcDbLine
 10
325.600000
 20
43.440000
 30
0.0
 11
325.600000
 21
50.640000
 31
0.0
  0
LINE
  5
242
100
AcDbEntity
  8
0
 62
7
100
AcDbLine
 10
325.600000
 20
50.640000
 30
0.0
 11
332.800000
 21
50.640000
 31
0.0
  0
LINE
  5
243
100
AcDbEntity
  8
0
 62
7
100
AcDbLine
 10
332.800000
 20
50.640000
 30
0.0
 11
332.800000
 21
43.440000
 31
0.0
  0
LINE
  5
244
100
AcDbEntity
  8
0
 62
7
100
AcDbLine
 10
332.800000
 20
43.440000
 30
0.0
 11
332.800000
 21
43.440000
 31
0.0
  0
LINE
  5
245
100
AcDbEntity
  8
0
 62
7
100
AcDbLine
 10
361.600000
 20
95.200000
 30
0.0
 11
360.640000
 21
89.680000
 31
0.0
  0
SPLINE
  5
246
100
AcDbEntity
  8
0
 62
7
100
AcDbSpline
 70
8
 71
3
 72
8
 73
4
 74
0
 40
0
 40
0
 40
0
 40
0
 40
1
 40
1
 40
1
 40
1
 10
360.640000
 20
89.680000
 30
0.0
 10
359.360000
 20
89.920000
 30
0.0
 10
358.160000
 20
90.000000
 30
0.0
 10
356.960000
 20
90.000000
 30
0.0
  0
SPLINE
  5
247
100
AcDbEntity
  8
0
 62
7
100
AcDbSpline
 70
8
 71
3
 72
8
 73
4
 74
0
 40
0
 40
0
 40
0
 40
0
 40
1
 40
1
 40
1
 40
1
 10
356.960000
 20
90.000000
 30
0.0
 10
355.360000
 20
90.000000
 30
0.0
 10
354.160000
 20
89.680000
 30
0.0
 10
353.200000
 20
89.040000
 30
0.0
  0
SPLINE
  5
248
100
AcDbEntity
  8
0
 62
7
100
AcDbSpline
 70
8
 71
3
 72
8
 73
4
 74
0
 40
0
 40
0
 40
0
 40
0
 40
1
 40
1
 40
1
 40
1
 10
353.200000
 20
89.040000
 30
0.0
 10
352.240000
 20
88.400000
 30
0.0
 10
351.680000
 20
86.800000
 30
0.0
 10
351.680000
 20
84.240000
 30
0.0
  0
LINE
  5
249
100
AcDbEntity
  8
0
 62
7
100
AcDbLine
 10
351.680000
 20
84.240000
 30
0.0
 11
351.680000
 21
80.720000
 31
0.0
  0
LINE
  5
24a
100
AcDbEntity
  8
0
 62
7
100
AcDbLine
 10
351.680000
 20
80.720000
 30
0.0
 11
358.960000
 21
80.720000
 31
0.0
  0
LINE
  5
24b
100
AcDbEntity
  8
0
 62
7
100
AcDbLine
 10
358.960000
 20
80.720000
 30
0.0
 11
358.960000
 21
75.840000
 31
0.0
  0
LINE
  5
24c
100
AcDbEntity
  8
0
 62
7
100
AcDbLine
 10
358.960000
 20
75.840000
 30
0.0
 11
351.680000
 21
75.840000
 31
0.0
  0
LINE
  5
24d
100
AcDbEntity
  8
0
 62
7
100
AcDbLine
 10
351.680000
 20
75.840000
 30
0.0
 11
351.680000
 21
43.440000
 31
0.0
  0
LINE
  5
24e
100
AcDbEntity
  8
0
 62
7
100
AcDbLine
 10
351.680000
 20
43.440000
 30
0.0
 11
345.360000
 21
43.440000
 31
0.0
  0
LINE
  5
24f
100
AcDbEntity
  8
0
 62
7
100
AcDbLine
 10
345.360000
 20
43.440000
 30
0.0
 11
345.360000
 21
75.840000
 31
0.0
  0
LINE
  5
250
100
AcDbEntity
  8
0
 62
7
100
AcDbLine
 10
345.360000
 20
75.840000
 30
0.0
 11
339.760000
 21
75.840000
 31
0.0
  0
LINE
  5
251
100
AcDbEntity
  8
0
 62
7
100
AcDbLine
 10
339.760000
 20
75.840000
 30
0.0
 11
339.760000
 21
80.720000
 31
0.0
  0
LINE
  5
252
100
AcDbEntity
  8
0
 62
7
100
AcDbLine
 10
339.760000
 20
80.720000
 30
0.0
 11
345.360000
 21
80.720000
 31
0.0
  0
LINE
  5
253
100
AcDbEntity
  8
0
 62
7
100
AcDbLine
 10
345.360000
 20
80.720000
 30
0.0
 11
345.360000
 21
84.720000
 31
0.0
  0
SPLINE
  5
254
100
AcDbEntity
  8
0
 62
7
100
AcDbSpline
 70
8
 71
3
 72
8
 73
4
 74
0
 40
0
 40
0
 40
0
 40
0
 40
1
 40
1
 40
1
 40
1
 10
345.360000
 20
84.720000
 30
0.0
 10
345.360000
 20
86.640000
 30
0.0
 10
345.600000
 20
88.320000
 30
0.0
 10
345.920000
 20
89.840000
 30
0.0
  0
SPLINE
  5
255
100
AcDbEntity
  8
0
 62
7
100
AcDbSpline
 70
8
 71
3
 72
8
 73
4
 74
0
 40
0
 40
0
 40
0
 40
0
 40
1
 40
1
 40
1
 40
1
 10
345.920000
 20
89.840000
 30
0.0
 10
346.240000
 20
91.360000
 30
0.0
 10
347.200000
 20
92.720000
 30
0.0
 10
348.720000
 20
94.000000
 30
0.0
  0
SPLINE
  5
256
100
AcDbEntity
  8
0
 62
7
100
AcDbSpline
 70
8
 71
3
 72
8
 73
4
 74
0
 40
0
 40
0
 40
0
 40
0
 40
1
 40
1
 40
1
 40
1
 10
348.720000
 20
94.000000
 30
0.0
 10
350.240000
 20
95.200000
 30
0.0
 10
352.560000
 20
95.840000
 30
0.0
 10
355.680000
 20
95.840000
 30
0.0
  0
SPLINE
  5
257
100
AcDbEntity
  8
0
 62
7
100
AcDbSpline
 70
8
 71
3
 72
8
 73
4
 74
0
 40
0
 40
0
 40
0
 40
0
 40
1
 40
1
 40
1
 40
1
 10
355.680000
 20
95.840000
 30
0.0
 10
357.600000
 20
95.840000
 30
0.0
 10
359.520000
 20
95.600000
 30
0.0
 10
361.600000
 20
95.200000
 30
0.0
  0
LINE
  5
258
100
AcDbEntity
  8
0
 62
7
100
AcDbLine
 10
361.600000
 20
95.200000
 30
0.0
 11
361.600000
 21
95.200000
 31
0.0
  0
LINE
  5
259
100
AcDbEntity
  8
0
 62
7
100
AcDbLine
 10
384.160000
 20
79.520000
 30
0.0
 11
381.920000
 21
73.760000
 31
0.0
  0
SPLINE
  5
25a
100
AcDbEntity
  8
0
 62
7
100
AcDbSpline
 70
8
 71
3
 72
8
 73
4
 74
0
 40
0
 40
0
 40
0
 40
0
 40
1
 40
1
 40
1
 40
1
 10
381.920000
 20
73.760000
 30
0.0
 10
380.400000
 20
74.640000
 30
0.0
 10
378.880000
 20
75.120000
 30
0.0
 10
377.360000
 20
75.120000
 30
0.0
  0
SPLINE
  5
25b
100
AcDbEntity
  8
0
 62
7
100
AcDbSpline
 70
8
 71
3
 72
8
 73
4
 74
0
 40
0
 40
0
 40
0
 40
0
 40
1
 40
1
 40
1
 40
1
 10
377.360000
 20
75.120000
 30
0.0
 10
374.960000
 20
75.120000
 30
0.0
 10
373.200000
 20
74.000000
 30
0.0
 10
372.000000
 20
71.920000
 30
0.0
  0
SPLINE
  5
25c
100
AcDbEntity
  8
0
 62
7
100
AcDbSpline
 70
8
 71
3
 72
8
 73
4
 74
0
 40
0
 40
0
 40
0
 40
0
 40
1
 40
1
 40
1
 40
1
 10
372.000000
 20
71.920000
 30
0.0
 10
370.720000
 20
69.760000
 30
0.0
 10
370.160000
 20
66.800000
 30
0.0
 10
370.160000
 20
62.960000
 30
0.0
  0
LINE
  5
25d
100
AcDbEntity
  8
0
 62
7
100
AcDbLine
 10
370.160000
 20
62.960000
 30
0.0
 11
370.160000
 21
43.440000
 31
0.0
  0
LINE
  5
25e
100
AcDbEntity
  8
0
 62
7
100
AcDbLine
 10
370.160000
 20
43.440000
 30
0.0
 11
363.840000
 21
43.440000
 31
0.0
  0
LINE
  5
25f
100
AcDbEntity
  8
0
 62
7
100
AcDbLine
 10
363.840000
 20
43.440000
 30
0.0
 11
363.840000
 21
80.720000
 31
0.0
  0
LINE
  5
260
100
AcDbEntity
  8
0
 62
7
100
AcDbLine
 10
363.840000
 20
80.720000
 30
0.0
 11
369.600000
 21
80.720000
 31
0.0
  0
LINE
  5
261
100
AcDbEntity
  8
0
 62
7
100
AcDbLine
 10
369.600000
 20
80.720000
 30
0.0
 11
369.600000
 21
75.120000
 31
0.0
  0
LINE
  5
262
100
AcDbEntity
  8
0
 62
7
100
AcDbLine
 10
369.600000
 20
75.120000
 30
0.0
 11
369.680000
 21
75.120000
 31
0.0
  0
SPLINE
  5
263
100
AcDbEntity
  8
0
 62
7
100
AcDbSpline
 70
8
 71
3
 72
8
 73
4
 74
0
 40
0
 40
0
 40
0
 40
0
 40
1
 40
1
 40
1
 40
1
 10
369.680000
 20
75.120000
 30
0.0
 10
371.760000
 20
79.440000
 30
0.0
 10
374.400000
 20
81.600000
 30
0.0
 10
377.600000
 20
81.600000
 30
0.0
  0
SPLINE
  5
264
100
AcDbEntity
  8
0
 62
7
100
AcDbSpline
 70
8
 71
3
 72
8
 73
4
 74
0
 40
0
 40
0
 40
0
 40
0
 40
1
 40
1
 40
1
 40
1
 10
377.600000
 20
81.600000
 30
0.0
 10
379.760000
 20
81.600000
 30
0.0
 10
381.920000
 20
80.880000
 30
0.0
 10
384.160000
 20
79.520000
 30
0.0
  0
LINE
  5
265
100
AcDbEntity
  8
0
 62
7
100
AcDbLine
 10
384.160000
 20
79.520000
 30
0.0
 11
384.160000
 21
79.520000
 31
0.0
  0
ENDSEC
  0
SECTION
  2
OBJECTS
  0
DICTIONARY
  5
C
330
0
100
AcDbDictionary
  3
ACAD_GROUP
350
D
  3
ACAD_MLINESTYLE
350
17
  0
DICTIONARY
  5
D
330
C
100
AcDbDictionary
  0
DICTIONARY
  5
1A
330
C
100
AcDbDictionary
  0
DICTIONARY
  5
17
330
C
100
AcDbDictionary
  3
STANDARD
350
18
  0
DICTIONARY
  5
19
330
C
100
AcDbDictionary
  0
ENDSEC
  0
EOF
