<?xml version="1.0" encoding="UTF-8" standalone="no"?>
<svg
   xmlns:dc="http://purl.org/dc/elements/1.1/"
   xmlns:cc="http://creativecommons.org/ns#"
   xmlns:rdf="http://www.w3.org/1999/02/22-rdf-syntax-ns#"
   xmlns:svg="http://www.w3.org/2000/svg"
   xmlns="http://www.w3.org/2000/svg"
   xmlns:sodipodi="http://sodipodi.sourceforge.net/DTD/sodipodi-0.dtd"
   xmlns:inkscape="http://www.inkscape.org/namespaces/inkscape"
   width="744.1"
   height="1052.4"
   version="1.1"
   id="svg31"
   sodipodi:docname="Superhero 11 (Bistouille.fr).svg"
   inkscape:version="0.92.2 (5c3e80d, 2017-08-06)">
  <metadata
     id="metadata35">
    <rdf:RDF>
      <cc:Work
         rdf:about="">
        <dc:format>image/svg+xml</dc:format>
        <dc:type
           rdf:resource="http://purl.org/dc/dcmitype/StillImage" />
      </cc:Work>
    </rdf:RDF>
  </metadata>
  <sodipodi:namedview
     pagecolor="#ffffff"
     bordercolor="#666666"
     borderopacity="1"
     objecttolerance="10"
     gridtolerance="10"
     guidetolerance="10"
     inkscape:pageopacity="0"
     inkscape:pageshadow="2"
     inkscape:window-width="756"
     inkscape:window-height="480"
     id="namedview33"
     showgrid="false"
     inkscape:zoom="0.22424933"
     inkscape:cx="372.04999"
     inkscape:cy="526.20001"
     inkscape:window-x="0"
     inkscape:window-y="0"
     inkscape:window-maximized="0"
     inkscape:current-layer="svg31" />
  <defs
     id="defs2" />
  <path
     id="0"
     stroke-width="0.9"
     stroke="#FF0000"
     stroke-opacity="1"
     fill="#000000"
     fill-opacity="1"
     fill-rule="evenodd"
     stroke-linecap="round"
     stroke-linejoin="round"
     d="M396,879.2 C388.1,867.7 386.5,858.6 390.3,846.9 391.4,843.7 392.8,839.4 393.4,837.5 394,835.7 394.9,829 395.4,822.8 395.9,816.5 396.6,809.6 397,807.4 397.6,803.9 397.3,803 394.5,800.2 389,794.6 388.3,789 390.5,764.1 392.6,739.6 392.2,712.7 389.6,700.6 388,693.7 386.9,689.9 381.3,673 378.8,665.2 378.7,656.4 380.8,636 382.2,622.1 382.1,617.8 380.3,615.4 378.6,613.2 377.9,608.8 377.2,596.2 376.7,588.9 375.4,577.6 374.1,571.1 372.8,564.6 371.2,553.5 370.6,546.4 369.6,535.4 367.5,522.9 366,518.2 360.4,501.5 359.2,496.4 357.2,478.6 356.7,474.5 356.1,473 355.1,473.2 354.3,473.4 348,478.4 341.1,484.3 334.2,490.3 327.4,496 325.9,497 323.5,498.8 318.9,504.6 313.3,513 312.1,514.8 308.8,518.8 305.8,521.9 298,530.2 297.8,530.4 297.8,534.2 297.8,538.2 296,539.3 287.9,540.5 285.3,540.9 283.4,541.9 282.6,543.3 281.5,545.2 281.9,545.8 286.6,549.4 293.8,554.8 307.4,567.4 307.4,568.7 307.4,569.3 308.1,570.4 309,571.2 309.8,572 311.4,575 312.4,578 314.4,583.7 314.1,586.9 309.4,617.4 307.5,629.3 309.7,646 314.2,654 315.7,656.7 320.3,660.8 329.3,667.5 332.3,669.6 333.1,671 333.1,673.5 333.1,676.2 334.3,677.6 340.2,682.7 346.9,688.4 347.3,688.9 346.6,692 346.1,694.5 346.5,696 348.1,697.8 354.6,705.5 351.8,709.6 330,724.4 325.3,727.7 321.6,728.6 319.7,727.2 318.5,726.3 317.5,726.7 315,729.2 313.3,731 311.3,733.8 310.6,735.5 308.6,740.5 306.7,743.3 297.7,755 287.4,768.3 287.9,767.8 279.8,774.3 274.7,778.3 272.5,779.4 269.7,779.4 267.7,779.4 259.5,779.9 251.4,780.6 236.7,781.8 236.6,781.8 234.2,779.6 232.2,777.7 232.1,777.1 233.2,775.5 234.4,773.7 234.3,773.4 231.3,772.9 229.1,772.5 228.1,771.7 228.1,770.4 228.1,767.9 239,757.4 243.6,755.4 246.9,753.9 254.3,747.2 257.6,742.5 258.4,741.4 259.8,736 260.6,730.5 261.5,724.9 262.9,719.4 263.8,718.2 265.9,715 269.4,695.8 268,694.6 267.4,694 267.2,689.1 267.5,682.4 267.9,675 267.6,669.5 266.7,666.4 264.3,657.8 257.9,640.2 255.4,635.1 254,632.4 251.9,627.9 250.8,625.2 248.9,620.7 243.3,610.2 234.5,594.2 232.8,591.1 230.7,588.1 229.8,587.4 228.9,586.7 228.1,585.7 228.1,585.2 228.1,584.7 227.1,583.3 225.9,582.1 221.9,578.2 215.3,568.5 214.2,564.8 211.8,557.2 208.8,542.3 208.8,537.8 208.8,532.6 210.7,530.9 213.9,533.3 216.8,535.4 220.4,537.1 222,537.1 223.6,537.1 224.6,535.5 228.2,526.7 229.6,523.5 232.5,517.6 234.8,513.7 238.1,508 238.8,505.9 238.3,503.5 237.7,501.2 238.2,499.6 240.6,496.4 246.2,488.7 247,486.7 250.6,470.6 252,464.1 252.3,463.4 256.5,454.8 258.1,451.6 260.3,446.9 261.3,444.5 273.7,415.7 291,388.3 296.8,388.3 297.9,388.3 298.9,388.2 298.9,388.1 301.8,377.1 304,346.4 302.3,342 301.4,339.8 301.1,340 299.5,345.2 297.9,350.2 296.7,351.7 285.7,361.3 271,374.1 270.4,374.5 264.2,374.9 259.3,375.2 256.3,376.8 247.9,383.3 246.1,384.7 243.3,386.7 241.6,387.8 240,388.9 236.7,392.3 234.4,395.4 232.2,398.5 228.9,402.4 227.2,404.1 225.3,406 223.8,408.9 223.3,411.3 221.8,420 211.8,433.7 204.7,436.8 202.5,437.8 201.6,439.1 200.9,442.9 200.1,447.1 200.3,448.3 202.9,453.3 205.3,458 205.6,459.3 204.6,461.1 202.9,463.9 200.6,463.7 197.6,460.5 197.6,460.5 195,457.8 195,457.8 195,457.8 194,460.3 194,460.3 191.9,465.3 190.3,465.5 184.6,461.5 177.6,456.6 176.3,455.3 174.1,451.1 171.9,446.8 170.2,447.1 170.2,451.7 170.2,453.4 169.2,456.3 168,458.1 166.3,460.7 165.3,461.3 163,461 160.6,460.8 159.8,459.8 157.6,453.9 155.2,447.7 155.1,446.7 156.3,442.1 157.5,437.3 157.4,436.7 154.8,431.7 151.6,425.6 151.3,422.5 153.6,416.1 154.9,412.5 156.7,410.4 161.8,406.5 167.9,401.9 177.8,391.5 179,388.3 179.3,387.5 178.4,385.6 176.8,384.1 174.1,381.5 174.1,381.4 175.9,377.9 176.9,376 177.7,373.2 177.7,371.6 177.7,367.9 181.5,365.1 188.5,363.8 195.6,362.4 200.8,362.4 205.3,363.9 208.5,365 209.2,364.9 210.2,363.6 213.2,359.9 218.1,354.3 221,351.5 226.5,346 229,342.6 234.4,332.9 237.3,327.7 240.5,322.7 241.4,321.7 242.3,320.7 244.5,318.1 246.3,316 251.4,310 259,302.8 261.3,301.6 263.1,300.8 263.5,299.5 263.5,294.9 263.5,286.8 269.2,263.8 274.7,249.5 276.2,245.7 277,240.1 275.6,243.3 274.7,245.2 271,244.7 270.1,242.4 269,239.8 271.3,222.1 273.7,213.7 276.1,205.4 281.1,195.6 285.5,190.7 289.7,186 300.4,180.5 305.3,180.5 307.8,180.5 310.2,179.1 315.8,174.3 326.5,165.2 333.5,160.2 341.2,156.2 343.9,154.8 344.5,152.2 342.5,150.1 340.5,148 338.8,140.8 337.9,130.7 337.4,125.4 336.4,121.5 334.8,118.9 331.8,113.9 331.9,105.8 335.1,89.4 338.5,72.4 339.2,70.4 343.7,66.4 353.8,57.1 378,56.4 391.2,65 395.5,67.9 396.7,69.9 398.4,77.5 399,80.2 400.3,86.2 401.3,90.8 404.8,106.7 404.5,117.1 400.6,120.1 399.4,121.1 398.4,123.7 397.9,126.9 397.2,131.9 397.4,132.3 400.5,135 402.4,136.6 403.9,138.6 403.9,139.5 403.9,141.8 407.2,148.9 408.3,148.9 408.8,148.9 411.4,147.6 414.2,146 420.5,142.3 428.8,140.1 435.9,140.1 440.9,140.1 441.5,139.8 443,137.1 445.8,132.1 449.7,131 459.9,132.1 475.2,133.9 482.3,133.5 486.9,130.7 489,129.3 491.1,128.2 491.6,128.2 492,128.2 493.7,126.3 495.3,124 497,121.7 499.8,118.1 501.5,115.9 505.7,110.7 506.7,104.1 506.8,82.1 506.8,63.8 507.7,58.8 511.7,54.8 513.8,52.7 514.6,52.5 516.8,53.5 521,55.2 522.9,60.3 522.9,69.9 522.9,82.5 525.7,100.7 527.7,100.8 528.9,100.9 533.3,93.5 538,83.4 547.7,62.7 552.1,57.3 557.5,59.2 563.7,61.4 564,67.6 558.8,80.1 556.7,85 555,89.4 555,89.9 555,90.4 553.3,94.2 551.2,98.4 546.8,107.1 545.6,111.5 547.4,111.5 550.6,111.5 563.7,103.7 577.9,93.4 582.5,90.1 584.2,90.4 586.7,95.2 589.9,101.3 587.7,105.3 574.6,117.2 568.5,122.8 563.7,128 564,128.7 564.9,130.9 573.9,132.5 582.2,131.9 591.1,131.3 593.2,132 594.2,136.2 595.6,142.3 587.7,148.9 578.8,148.9 576.5,148.9 571.9,150 568.7,151.3 564,153.2 562.7,154.3 562.2,156.5 561.9,158 560.7,160.2 559.7,161.3 558.6,162.4 556,165.3 554,167.7 551.9,170.1 549.2,172.9 547.9,173.8 546.6,174.7 544.3,177.5 542.8,179.9 541.3,182.3 539.1,184.5 537.9,184.9 536.1,185.4 535.9,186.3 536,192.6 536.2,198.6 535.7,200.5 533.2,205 531.4,208.2 530.4,211.1 530.8,212.4 531.2,213.8 529.9,217.4 527.2,222.4 522.9,230.7 523.1,230.5 511.3,234.7 507.1,236.2 505.2,235.7 503.2,232.7 500.9,229.1 500.3,229.1 494.8,231.9 491.3,233.7 490.2,233.9 488.5,232.9 484.3,230.4 480.7,231.4 475.2,236.6 468,243.3 464.3,244.1 456.3,241.2 452.9,239.9 449.7,239.1 449.1,239.5 448.6,239.8 447.9,244.3 447.5,249.4 445.9,271 433.2,293.5 416.8,303.7 413.9,305.6 411.2,307.6 410.9,308.3 410.6,309 410,316.8 409.7,325.5 409,340.2 409.2,342 411.3,347.8 412.5,351.3 413.5,356.3 413.5,359 413.5,362.1 414.3,364.9 415.5,366.5 422.1,375.6 426.4,386.8 428.6,401.4 429.9,409.7 429.9,410.2 427.6,412.9 424.2,417.2 424.7,419.4 429.5,422.3 434.3,425 434,423.9 436.1,445.9 436.8,453.1 437.1,462.2 436.6,466.6 435.9,474 435.8,480.2 436.1,488.1 436.5,497.2 432.8,526.5 430.2,536.1 428.8,540.8 428.8,542.3 430.1,547.4 431.5,552.8 431.5,554.1 429.4,563.2 426.5,575.7 426.2,589.3 428.7,591.9 434.3,597.7 441.6,613.4 446.8,631.2 449.9,641.3 450.3,659.4 447.6,666.2 444.8,673.3 440.3,694.1 438.6,707 435.4,732.5 437.9,760.6 444.6,774.9 447.6,781.3 447.6,794.1 444.6,804 442.9,809.6 442.5,812.7 443.1,817.9 443.7,823.8 443.6,824.6 441.4,826.5 439.1,828.4 439.1,828.6 440.9,833.3 441.9,835.9 443.1,841.6 443.6,845.9 444.2,850.3 444.9,855.3 445.3,857.1 445.8,859.6 445.3,861.3 442.8,864.9 441.1,867.5 438.6,871.8 437.3,874.5 433.6,882.1 433.5,882.3 427.9,884.2 422.8,885.9 422.7,885.9 421,883.8 419.5,881.9 418.5,881.7 415.1,882.2 412.9,882.5 410.3,883.5 409.3,884.3 408.3,885.1 405.9,885.8 404,885.8 401,885.8 400.1,885.1 396,879.2 Z M203.5,421.8 C208.3,419.4 210.7,408.9 207.1,405.6 205.1,403.8 205,403.8 202,405.2 193.6,409.2 191,416.7 196.6,420.8 199.8,423.1 200.6,423.2 203.5,421.8 Z M329.1,223.6 C337.9,217.2 339.9,215.4 341.4,212.1 342.5,209.7 342.6,208.5 341.8,207.7 341.2,207.1 336.1,206.5 330.5,206.2 330.5,206.2 320.4,205.8 320.4,205.8 320.4,205.8 318.7,209.5 318.7,209.5 317.3,212.7 317.2,213.7 318.6,217.3 322.7,228.4 322.6,228.3 329.1,223.6 Z M531.8,157.6 C535,156.1 535.7,154.9 535.7,150.8 535.7,146.6 532.9,142.8 528,140.6 523.8,138.7 521.3,138.7 518,140.7 515.9,141.9 515.4,143.1 515.4,146.1 515.4,150.9 517.8,154.4 522.8,156.8 527.3,159 528.7,159.2 531.8,157.6 Z M359.3,115.9 C360,114.1 359.2,113.8 351.9,112.6 345.9,111.5 345.7,111.6 346.6,113.8 347.9,116.8 358.2,118.5 359.3,115.9 Z M388.2,115.5 C390,113.8 388,113 382.2,113.3 376.3,113.5 374.2,114.5 375.5,116.5 376.4,117.8 386.4,117.1 388.2,115.5 Z " />
</svg>
