  0
SECTION
  2
HEADER
  9
$ACADVER
  1
AC1014
  9
$HANDSEED
  5
FFFF
  9
$MEASUREMENT
 70
     1
  0
ENDSEC
  0
SECTION
  2
TABLES
  0
TABLE
  2
VPORT
  5
8
330
0
100
AcDbSymbolTable
 70
     4
  0
VPORT
  5
2E
330
8
100
AcDbSymbolTableRecord
100
AcDbViewportTableRecord
  2
*ACTIVE
 70
     0
 10
0.0
 20
0.0
 11
1.0
 21
1.0
 12
210.0
 22
148.5
 13
0.0
 23
0.0
 14
10.0
 24
10.0
 15
10.0
 25
10.0
 16
0.0
 26
0.0
 36
1.0
 17
0.0
 27
0.0
 37
0.0
 40
341.0
 41
1.24
 42
50.0
 43
0.0
 44
0.0
 50
0.0
 51
0.0
 71
     0
 72
   100
 73
     1
 74
     3
 75
     0
 76
     0
 77
     0
 78
     0
  0
ENDTAB
  0
TABLE
  2
LTYPE
  5
5
330
0
100
AcDbSymbolTable
 70
     1
  0
LTYPE
  5
14
330
5
100
AcDbSymbolTableRecord
100
AcDbLinetypeTableRecord
  2
BYBLOCK
 70
     0
  3

 72
    65
 73
     0
 40
0.0
  0
LTYPE
  5
15
330
5
100
AcDbSymbolTableRecord
100
AcDbLinetypeTableRecord
  2
BYLAYER
 70
     0
  3

 72
    65
 73
     0
 40
0.0
  0
LTYPE
  5
16
330
5
100
AcDbSymbolTableRecord
100
AcDbLinetypeTableRecord
  2
CONTINUOUS
 70
     0
  3
Solid line
 72
    65
 73
     0
 40
0.0
  0
ENDTAB
  0
TABLE
  2
LAYER
  5
2
100
AcDbSymbolTable
 70
1
  0
LAYER
  5
50
100
AcDbSymbolTableRecord
100
AcDbLayerTableRecord
  2
0
 70
0
  6
CONTINUOUS
  0
ENDTAB
  0
TABLE
  2
STYLE
  5
3
330
0
100
AcDbSymbolTable
 70
     1
  0
STYLE
  5
11
330
3
100
AcDbSymbolTableRecord
100
AcDbTextStyleTableRecord
  2
STANDARD
 70
     0
 40
0.0
 41
1.0
 50
0.0
 71
     0
 42
2.5
  3
txt
  4

  0
ENDTAB
  0
TABLE
  2
VIEW
  5
6
330
0
100
AcDbSymbolTable
 70
     0
  0
ENDTAB
  0
TABLE
  2
UCS
  5
7
330
0
100
AcDbSymbolTable
 70
     0
  0
ENDTAB
  0
TABLE
  2
APPID
  5
9
330
0
100
AcDbSymbolTable
 70
     2
  0
APPID
  5
12
330
9
100
AcDbSymbolTableRecord
100
AcDbRegAppTableRecord
  2
ACAD
 70
     0
  0
ENDTAB
  0
TABLE
  2
DIMSTYLE
  5
A
330
0
100
AcDbSymbolTable
 70
     1
  0
DIMSTYLE
105
27
330
A
100
AcDbSymbolTableRecord
100
AcDbDimStyleTableRecord
  2
ISO-25
 70
     0
  3

  4

  5

  6

  7

 40
1.0
 41
2.5
 42
0.625
 43
3.75
 44
1.25
 45
0.0
 46
0.0
 47
0.0
 48
0.0
140
2.5
141
2.5
142
0.0
143
0.03937007874016
144
1.0
145
0.0
146
1.0
147
0.625
 71
     0
 72
     0
 73
     0
 74
     0
 75
     0
 76
     0
 77
     1
 78
     8
170
     0
171
     3
172
     1
173
     0
174
     0
175
     0
176
     0
177
     0
178
     0
270
     2
271
     2
272
     2
273
     2
274
     3
340
11
275
     0
280
     0
281
     0
282
     0
283
     0
284
     8
285
     0
286
     0
287
     3
288
     0
  0
ENDTAB
  0
TABLE
  2
BLOCK_RECORD
  5
1
330
0
100
AcDbSymbolTable
 70
     1
  0
BLOCK_RECORD
  5
1F
330
1
100
AcDbSymbolTableRecord
100
AcDbBlockTableRecord
  2
*MODEL_SPACE
  0
BLOCK_RECORD
  5
1B
330
1
100
AcDbSymbolTableRecord
100
AcDbBlockTableRecord
  2
*PAPER_SPACE
  0
ENDTAB
  0
ENDSEC
  0
SECTION
  2
BLOCKS
  0
BLOCK
  5
20
330
1F
100
AcDbEntity
  8
0
100
AcDbBlockBegin
  2
*MODEL_SPACE
 70
     0
 10
0.0
 20
0.0
 30
0.0
  3
*MODEL_SPACE
  1

  0
ENDBLK
  5
21
330
1F
100
AcDbEntity
  8
0
100
AcDbBlockEnd
  0
BLOCK
  5
1C
330
1B
100
AcDbEntity
 67
     1
  8
0
100
AcDbBlockBegin
  2
*PAPER_SPACE
  1

  0
ENDBLK
  5
1D
330
1B
100
AcDbEntity
 67
     1
  8
0
100
AcDbBlockEnd
  0
ENDSEC
  0
SECTION
  2
ENTITIES
  0
SPLINE
  5
100
100
AcDbEntity
  8
0
 62
7
100
AcDbSpline
 70
8
 71
3
 72
8
 73
4
 74
0
 40
0
 40
0
 40
0
 40
0
 40
1
 40
1
 40
1
 40
1
 10
200.800000
 20
208.320000
 30
0.0
 10
194.560000
 20
212.240000
 30
0.0
 10
185.840000
 20
217.280000
 30
0.0
 10
175.280000
 20
223.120000
 30
0.0
  0
SPLINE
  5
101
100
AcDbEntity
  8
0
 62
7
100
AcDbSpline
 70
8
 71
3
 72
8
 73
4
 74
0
 40
0
 40
0
 40
0
 40
0
 40
1
 40
1
 40
1
 40
1
 10
175.280000
 20
223.120000
 30
0.0
 10
169.920000
 20
226.080000
 30
0.0
 10
155.840000
 20
231.680000
 30
0.0
 10
149.280000
 20
233.440000
 30
0.0
  0
SPLINE
  5
102
100
AcDbEntity
  8
0
 62
7
100
AcDbSpline
 70
8
 71
3
 72
8
 73
4
 74
0
 40
0
 40
0
 40
0
 40
0
 40
1
 40
1
 40
1
 40
1
 10
149.280000
 20
233.440000
 30
0.0
 10
146.240000
 20
234.240000
 30
0.0
 10
138.800000
 20
235.920000
 30
0.0
 10
132.720000
 20
237.200000
 30
0.0
  0
SPLINE
  5
103
100
AcDbEntity
  8
0
 62
7
100
AcDbSpline
 70
8
 71
3
 72
8
 73
4
 74
0
 40
0
 40
0
 40
0
 40
0
 40
1
 40
1
 40
1
 40
1
 10
132.720000
 20
237.200000
 30
0.0
 10
119.360000
 20
240.080000
 30
0.0
 10
113.200000
 20
242.000000
 30
0.0
 10
108.880000
 20
244.560000
 30
0.0
  0
SPLINE
  5
104
100
AcDbEntity
  8
0
 62
7
100
AcDbSpline
 70
8
 71
3
 72
8
 73
4
 74
0
 40
0
 40
0
 40
0
 40
0
 40
1
 40
1
 40
1
 40
1
 10
108.880000
 20
244.560000
 30
0.0
 10
98.480000
 20
250.960000
 30
0.0
 10
95.040000
 20
255.840000
 30
0.0
 10
88.880000
 20
273.520000
 30
0.0
  0
SPLINE
  5
105
100
AcDbEntity
  8
0
 62
7
100
AcDbSpline
 70
8
 71
3
 72
8
 73
4
 74
0
 40
0
 40
0
 40
0
 40
0
 40
1
 40
1
 40
1
 40
1
 10
88.880000
 20
273.520000
 30
0.0
 10
87.600000
 20
277.200000
 30
0.0
 10
84.800000
 20
283.200000
 30
0.0
 10
82.640000
 20
286.960000
 30
0.0
  0
SPLINE
  5
106
100
AcDbEntity
  8
0
 62
7
100
AcDbSpline
 70
8
 71
3
 72
8
 73
4
 74
0
 40
0
 40
0
 40
0
 40
0
 40
1
 40
1
 40
1
 40
1
 10
82.640000
 20
286.960000
 30
0.0
 10
79.040000
 20
293.200000
 30
0.0
 10
78.720000
 20
294.080000
 30
0.0
 10
78.880000
 20
299.600000
 30
0.0
  0
SPLINE
  5
107
100
AcDbEntity
  8
0
 62
7
100
AcDbSpline
 70
8
 71
3
 72
8
 73
4
 74
0
 40
0
 40
0
 40
0
 40
0
 40
1
 40
1
 40
1
 40
1
 10
78.880000
 20
299.600000
 30
0.0
 10
78.960000
 20
307.520000
 30
0.0
 10
81.520000
 20
313.200000
 30
0.0
 10
92.320000
 20
329.360000
 30
0.0
  0
SPLINE
  5
108
100
AcDbEntity
  8
0
 62
7
100
AcDbSpline
 70
8
 71
3
 72
8
 73
4
 74
0
 40
0
 40
0
 40
0
 40
0
 40
1
 40
1
 40
1
 40
1
 10
92.320000
 20
329.360000
 30
0.0
 10
98.640000
 20
338.880000
 30
0.0
 10
101.680000
 20
344.320000
 30
0.0
 10
103.920000
 20
350.400000
 30
0.0
  0
SPLINE
  5
109
100
AcDbEntity
  8
0
 62
7
100
AcDbSpline
 70
8
 71
3
 72
8
 73
4
 74
0
 40
0
 40
0
 40
0
 40
0
 40
1
 40
1
 40
1
 40
1
 10
103.920000
 20
350.400000
 30
0.0
 10
107.200000
 20
359.360000
 30
0.0
 10
109.600000
 20
365.120000
 30
0.0
 10
114.880000
 20
376.560000
 30
0.0
  0
SPLINE
  5
10a
100
AcDbEntity
  8
0
 62
7
100
AcDbSpline
 70
8
 71
3
 72
8
 73
4
 74
0
 40
0
 40
0
 40
0
 40
0
 40
1
 40
1
 40
1
 40
1
 10
114.880000
 20
376.560000
 30
0.0
 10
116.800000
 20
380.640000
 30
0.0
 10
120.160000
 20
387.840000
 30
0.0
 10
122.320000
 20
392.640000
 30
0.0
  0
SPLINE
  5
10b
100
AcDbEntity
  8
0
 62
7
100
AcDbSpline
 70
8
 71
3
 72
8
 73
4
 74
0
 40
0
 40
0
 40
0
 40
0
 40
1
 40
1
 40
1
 40
1
 10
122.320000
 20
392.640000
 30
0.0
 10
127.440000
 20
403.600000
 30
0.0
 10
130.560000
 20
415.200000
 30
0.0
 10
133.520000
 20
434.000000
 30
0.0
  0
SPLINE
  5
10c
100
AcDbEntity
  8
0
 62
7
100
AcDbSpline
 70
8
 71
3
 72
8
 73
4
 74
0
 40
0
 40
0
 40
0
 40
0
 40
1
 40
1
 40
1
 40
1
 10
133.520000
 20
434.000000
 30
0.0
 10
135.040000
 20
443.600000
 30
0.0
 10
136.720000
 20
450.880000
 30
0.0
 10
138.240000
 20
454.320000
 30
0.0
  0
LINE
  5
10d
100
AcDbEntity
  8
0
 62
7
100
AcDbLine
 10
138.240000
 20
454.320000
 30
0.0
 11
140.480000
 21
459.600000
 31
0.0
  0
LINE
  5
10e
100
AcDbEntity
  8
0
 62
7
100
AcDbLine
 10
140.480000
 20
459.600000
 30
0.0
 11
136.240000
 21
470.000000
 31
0.0
  0
SPLINE
  5
10f
100
AcDbEntity
  8
0
 62
7
100
AcDbSpline
 70
8
 71
3
 72
8
 73
4
 74
0
 40
0
 40
0
 40
0
 40
0
 40
1
 40
1
 40
1
 40
1
 10
136.240000
 20
470.000000
 30
0.0
 10
133.920000
 20
475.680000
 30
0.0
 10
130.960000
 20
482.160000
 30
0.0
 10
129.680000
 20
484.320000
 30
0.0
  0
SPLINE
  5
110
100
AcDbEntity
  8
0
 62
7
100
AcDbSpline
 70
8
 71
3
 72
8
 73
4
 74
0
 40
0
 40
0
 40
0
 40
0
 40
1
 40
1
 40
1
 40
1
 10
129.680000
 20
484.320000
 30
0.0
 10
128.400000
 20
486.560000
 30
0.0
 10
126.880000
 20
490.000000
 30
0.0
 10
126.320000
 20
492.080000
 30
0.0
  0
SPLINE
  5
111
100
AcDbEntity
  8
0
 62
7
100
AcDbSpline
 70
8
 71
3
 72
8
 73
4
 74
0
 40
0
 40
0
 40
0
 40
0
 40
1
 40
1
 40
1
 40
1
 10
126.320000
 20
492.080000
 30
0.0
 10
125.600000
 20
494.640000
 30
0.0
 10
124.640000
 20
495.920000
 30
0.0
 10
123.360000
 20
496.400000
 30
0.0
  0
SPLINE
  5
112
100
AcDbEntity
  8
0
 62
7
100
AcDbSpline
 70
8
 71
3
 72
8
 73
4
 74
0
 40
0
 40
0
 40
0
 40
0
 40
1
 40
1
 40
1
 40
1
 10
123.360000
 20
496.400000
 30
0.0
 10
120.480000
 20
497.200000
 30
0.0
 10
118.960000
 20
498.960000
 30
0.0
 10
113.200000
 20
507.840000
 30
0.0
  0
SPLINE
  5
113
100
AcDbEntity
  8
0
 62
7
100
AcDbSpline
 70
8
 71
3
 72
8
 73
4
 74
0
 40
0
 40
0
 40
0
 40
0
 40
1
 40
1
 40
1
 40
1
 10
113.200000
 20
507.840000
 30
0.0
 10
108.000000
 20
515.840000
 30
0.0
 10
107.200000
 20
518.480000
 30
0.0
 10
108.880000
 20
522.000000
 30
0.0
  0
SPLINE
  5
114
100
AcDbEntity
  8
0
 62
7
100
AcDbSpline
 70
8
 71
3
 72
8
 73
4
 74
0
 40
0
 40
0
 40
0
 40
0
 40
1
 40
1
 40
1
 40
1
 10
108.880000
 20
522.000000
 30
0.0
 10
109.440000
 20
523.200000
 30
0.0
 10
109.360000
 20
524.800000
 30
0.0
 10
108.720000
 20
526.400000
 30
0.0
  0
SPLINE
  5
115
100
AcDbEntity
  8
0
 62
7
100
AcDbSpline
 70
8
 71
3
 72
8
 73
4
 74
0
 40
0
 40
0
 40
0
 40
0
 40
1
 40
1
 40
1
 40
1
 10
108.720000
 20
526.400000
 30
0.0
 10
107.840000
 20
528.640000
 30
0.0
 10
108.160000
 20
529.840000
 30
0.0
 10
110.560000
 20
534.880000
 30
0.0
  0
SPLINE
  5
116
100
AcDbEntity
  8
0
 62
7
100
AcDbSpline
 70
8
 71
3
 72
8
 73
4
 74
0
 40
0
 40
0
 40
0
 40
0
 40
1
 40
1
 40
1
 40
1
 10
110.560000
 20
534.880000
 30
0.0
 10
114.880000
 20
543.760000
 30
0.0
 10
114.960000
 20
544.240000
 30
0.0
 10
112.720000
 20
544.640000
 30
0.0
  0
SPLINE
  5
117
100
AcDbEntity
  8
0
 62
7
100
AcDbSpline
 70
8
 71
3
 72
8
 73
4
 74
0
 40
0
 40
0
 40
0
 40
0
 40
1
 40
1
 40
1
 40
1
 10
112.720000
 20
544.640000
 30
0.0
 10
111.680000
 20
544.880000
 30
0.0
 10
108.480000
 20
547.600000
 30
0.0
 10
105.440000
 20
550.720000
 30
0.0
  0
SPLINE
  5
118
100
AcDbEntity
  8
0
 62
7
100
AcDbSpline
 70
8
 71
3
 72
8
 73
4
 74
0
 40
0
 40
0
 40
0
 40
0
 40
1
 40
1
 40
1
 40
1
 10
105.440000
 20
550.720000
 30
0.0
 10
95.680000
 20
561.040000
 30
0.0
 10
95.280000
 20
561.360000
 30
0.0
 10
92.400000
 20
560.240000
 30
0.0
  0
SPLINE
  5
119
100
AcDbEntity
  8
0
 62
7
100
AcDbSpline
 70
8
 71
3
 72
8
 73
4
 74
0
 40
0
 40
0
 40
0
 40
0
 40
1
 40
1
 40
1
 40
1
 10
92.400000
 20
560.240000
 30
0.0
 10
91.040000
 20
559.680000
 30
0.0
 10
87.760000
 20
558.480000
 30
0.0
 10
85.200000
 20
557.600000
 30
0.0
  0
SPLINE
  5
11a
100
AcDbEntity
  8
0
 62
7
100
AcDbSpline
 70
8
 71
3
 72
8
 73
4
 74
0
 40
0
 40
0
 40
0
 40
0
 40
1
 40
1
 40
1
 40
1
 10
85.200000
 20
557.600000
 30
0.0
 10
79.520000
 20
555.680000
 30
0.0
 10
79.120000
 20
555.520000
 30
0.0
 10
66.720000
 20
550.880000
 30
0.0
  0
SPLINE
  5
11b
100
AcDbEntity
  8
0
 62
7
100
AcDbSpline
 70
8
 71
3
 72
8
 73
4
 74
0
 40
0
 40
0
 40
0
 40
0
 40
1
 40
1
 40
1
 40
1
 10
66.720000
 20
550.880000
 30
0.0
 10
61.200000
 20
548.800000
 30
0.0
 10
56.320000
 20
547.360000
 30
0.0
 10
56.000000
 20
547.680000
 30
0.0
  0
SPLINE
  5
11c
100
AcDbEntity
  8
0
 62
7
100
AcDbSpline
 70
8
 71
3
 72
8
 73
4
 74
0
 40
0
 40
0
 40
0
 40
0
 40
1
 40
1
 40
1
 40
1
 10
56.000000
 20
547.680000
 30
0.0
 10
55.600000
 20
548.000000
 30
0.0
 10
50.240000
 20
553.280000
 30
0.0
 10
44.080000
 20
559.440000
 30
0.0
  0
SPLINE
  5
11d
100
AcDbEntity
  8
0
 62
7
100
AcDbSpline
 70
8
 71
3
 72
8
 73
4
 74
0
 40
0
 40
0
 40
0
 40
0
 40
1
 40
1
 40
1
 40
1
 10
44.080000
 20
559.440000
 30
0.0
 10
37.920000
 20
565.600000
 30
0.0
 10
30.960000
 20
572.320000
 30
0.0
 10
28.800000
 20
574.400000
 30
0.0
  0
SPLINE
  5
11e
100
AcDbEntity
  8
0
 62
7
100
AcDbSpline
 70
8
 71
3
 72
8
 73
4
 74
0
 40
0
 40
0
 40
0
 40
0
 40
1
 40
1
 40
1
 40
1
 10
28.800000
 20
574.400000
 30
0.0
 10
21.360000
 20
581.280000
 30
0.0
 10
22.000000
 20
577.200000
 30
0.0
 10
20.800000
 20
624.640000
 30
0.0
  0
LINE
  5
11f
100
AcDbEntity
  8
0
 62
7
100
AcDbLine
 10
20.800000
 20
624.640000
 30
0.0
 11
19.680000
 21
667.440000
 31
0.0
  0
LINE
  5
120
100
AcDbEntity
  8
0
 62
7
100
AcDbLine
 10
19.680000
 20
667.440000
 30
0.0
 11
22.160000
 21
671.360000
 31
0.0
  0
SPLINE
  5
121
100
AcDbEntity
  8
0
 62
7
100
AcDbSpline
 70
8
 71
3
 72
8
 73
4
 74
0
 40
0
 40
0
 40
0
 40
0
 40
1
 40
1
 40
1
 40
1
 10
22.160000
 20
671.360000
 30
0.0
 10
25.360000
 20
676.320000
 30
0.0
 10
25.280000
 20
676.240000
 30
0.0
 10
35.120000
 20
680.640000
 30
0.0
  0
SPLINE
  5
122
100
AcDbEntity
  8
0
 62
7
100
AcDbSpline
 70
8
 71
3
 72
8
 73
4
 74
0
 40
0
 40
0
 40
0
 40
0
 40
1
 40
1
 40
1
 40
1
 10
35.120000
 20
680.640000
 30
0.0
 10
46.560000
 20
685.680000
 30
0.0
 10
51.680000
 20
688.000000
 30
0.0
 10
58.960000
 20
691.280000
 30
0.0
  0
LINE
  5
123
100
AcDbEntity
  8
0
 62
7
100
AcDbLine
 10
58.960000
 20
691.280000
 30
0.0
 11
65.120000
 21
694.080000
 31
0.0
  0
LINE
  5
124
100
AcDbEntity
  8
0
 62
7
100
AcDbLine
 10
65.120000
 20
694.080000
 30
0.0
 11
69.920000
 21
688.000000
 31
0.0
  0
SPLINE
  5
125
100
AcDbEntity
  8
0
 62
7
100
AcDbSpline
 70
8
 71
3
 72
8
 73
4
 74
0
 40
0
 40
0
 40
0
 40
0
 40
1
 40
1
 40
1
 40
1
 10
69.920000
 20
688.000000
 30
0.0
 10
72.560000
 20
684.640000
 30
0.0
 10
78.560000
 20
676.960000
 30
0.0
 10
83.360000
 20
670.880000
 30
0.0
  0
SPLINE
  5
126
100
AcDbEntity
  8
0
 62
7
100
AcDbSpline
 70
8
 71
3
 72
8
 73
4
 74
0
 40
0
 40
0
 40
0
 40
0
 40
1
 40
1
 40
1
 40
1
 10
83.360000
 20
670.880000
 30
0.0
 10
88.080000
 20
664.800000
 30
0.0
 10
92.240000
 20
658.800000
 30
0.0
 10
92.560000
 20
657.440000
 30
0.0
  0
SPLINE
  5
127
100
AcDbEntity
  8
0
 62
7
100
AcDbSpline
 70
8
 71
3
 72
8
 73
4
 74
0
 40
0
 40
0
 40
0
 40
0
 40
1
 40
1
 40
1
 40
1
 10
92.560000
 20
657.440000
 30
0.0
 10
94.000000
 20
650.800000
 30
0.0
 10
98.320000
 20
622.160000
 30
0.0
 10
99.680000
 20
609.840000
 30
0.0
  0
SPLINE
  5
128
100
AcDbEntity
  8
0
 62
7
100
AcDbSpline
 70
8
 71
3
 72
8
 73
4
 74
0
 40
0
 40
0
 40
0
 40
0
 40
1
 40
1
 40
1
 40
1
 10
99.680000
 20
609.840000
 30
0.0
 10
100.160000
 20
605.600000
 30
0.0
 10
101.120000
 20
598.000000
 30
0.0
 10
101.840000
 20
593.040000
 30
0.0
  0
LINE
  5
129
100
AcDbEntity
  8
0
 62
7
100
AcDbLine
 10
101.840000
 20
593.040000
 30
0.0
 11
103.120000
 21
584.080000
 31
0.0
  0
LINE
  5
12a
100
AcDbEntity
  8
0
 62
7
100
AcDbLine
 10
103.120000
 20
584.080000
 30
0.0
 11
113.040000
 21
569.920000
 31
0.0
  0
SPLINE
  5
12b
100
AcDbEntity
  8
0
 62
7
100
AcDbSpline
 70
8
 71
3
 72
8
 73
4
 74
0
 40
0
 40
0
 40
0
 40
0
 40
1
 40
1
 40
1
 40
1
 10
113.040000
 20
569.920000
 30
0.0
 10
118.480000
 20
562.160000
 30
0.0
 10
123.760000
 20
555.040000
 30
0.0
 10
124.800000
 20
554.080000
 30
0.0
  0
SPLINE
  5
12c
100
AcDbEntity
  8
0
 62
7
100
AcDbSpline
 70
8
 71
3
 72
8
 73
4
 74
0
 40
0
 40
0
 40
0
 40
0
 40
1
 40
1
 40
1
 40
1
 10
124.800000
 20
554.080000
 30
0.0
 10
126.720000
 20
552.480000
 30
0.0
 10
129.200000
 20
551.440000
 30
0.0
 10
136.480000
 20
548.960000
 30
0.0
  0
SPLINE
  5
12d
100
AcDbEntity
  8
0
 62
7
100
AcDbSpline
 70
8
 71
3
 72
8
 73
4
 74
0
 40
0
 40
0
 40
0
 40
0
 40
1
 40
1
 40
1
 40
1
 10
136.480000
 20
548.960000
 30
0.0
 10
146.320000
 20
545.680000
 30
0.0
 10
150.240000
 20
543.680000
 30
0.0
 10
152.800000
 20
540.640000
 30
0.0
  0
SPLINE
  5
12e
100
AcDbEntity
  8
0
 62
7
100
AcDbSpline
 70
8
 71
3
 72
8
 73
4
 74
0
 40
0
 40
0
 40
0
 40
0
 40
1
 40
1
 40
1
 40
1
 10
152.800000
 20
540.640000
 30
0.0
 10
154.240000
 20
538.880000
 30
0.0
 10
156.160000
 20
537.440000
 30
0.0
 10
157.040000
 20
537.440000
 30
0.0
  0
SPLINE
  5
12f
100
AcDbEntity
  8
0
 62
7
100
AcDbSpline
 70
8
 71
3
 72
8
 73
4
 74
0
 40
0
 40
0
 40
0
 40
0
 40
1
 40
1
 40
1
 40
1
 10
157.040000
 20
537.440000
 30
0.0
 10
157.920000
 20
537.440000
 30
0.0
 10
159.840000
 20
536.480000
 30
0.0
 10
161.280000
 20
535.280000
 30
0.0
  0
SPLINE
  5
130
100
AcDbEntity
  8
0
 62
7
100
AcDbSpline
 70
8
 71
3
 72
8
 73
4
 74
0
 40
0
 40
0
 40
0
 40
0
 40
1
 40
1
 40
1
 40
1
 10
161.280000
 20
535.280000
 30
0.0
 10
162.720000
 20
534.080000
 30
0.0
 10
165.040000
 20
532.720000
 30
0.0
 10
166.400000
 20
532.240000
 30
0.0
  0
SPLINE
  5
131
100
AcDbEntity
  8
0
 62
7
100
AcDbSpline
 70
8
 71
3
 72
8
 73
4
 74
0
 40
0
 40
0
 40
0
 40
0
 40
1
 40
1
 40
1
 40
1
 10
166.400000
 20
532.240000
 30
0.0
 10
167.840000
 20
531.760000
 30
0.0
 10
169.440000
 20
530.480000
 30
0.0
 10
170.080000
 20
529.440000
 30
0.0
  0
SPLINE
  5
132
100
AcDbEntity
  8
0
 62
7
100
AcDbSpline
 70
8
 71
3
 72
8
 73
4
 74
0
 40
0
 40
0
 40
0
 40
0
 40
1
 40
1
 40
1
 40
1
 10
170.080000
 20
529.440000
 30
0.0
 10
171.760000
 20
526.480000
 30
0.0
 10
169.600000
 20
520.560000
 30
0.0
 10
165.760000
 20
517.280000
 30
0.0
  0
SPLINE
  5
133
100
AcDbEntity
  8
0
 62
7
100
AcDbSpline
 70
8
 71
3
 72
8
 73
4
 74
0
 40
0
 40
0
 40
0
 40
0
 40
1
 40
1
 40
1
 40
1
 10
165.760000
 20
517.280000
 30
0.0
 10
160.960000
 20
513.200000
 30
0.0
 10
160.960000
 20
512.000000
 30
0.0
 10
165.920000
 20
506.960000
 30
0.0
  0
SPLINE
  5
134
100
AcDbEntity
  8
0
 62
7
100
AcDbSpline
 70
8
 71
3
 72
8
 73
4
 74
0
 40
0
 40
0
 40
0
 40
0
 40
1
 40
1
 40
1
 40
1
 10
165.920000
 20
506.960000
 30
0.0
 10
169.200000
 20
503.600000
 30
0.0
 10
170.800000
 20
502.560000
 30
0.0
 10
172.640000
 20
502.560000
 30
0.0
  0
SPLINE
  5
135
100
AcDbEntity
  8
0
 62
7
100
AcDbSpline
 70
8
 71
3
 72
8
 73
4
 74
0
 40
0
 40
0
 40
0
 40
0
 40
1
 40
1
 40
1
 40
1
 10
172.640000
 20
502.560000
 30
0.0
 10
173.920000
 20
502.560000
 30
0.0
 10
176.800000
 20
501.520000
 30
0.0
 10
179.120000
 20
500.240000
 30
0.0
  0
SPLINE
  5
136
100
AcDbEntity
  8
0
 62
7
100
AcDbSpline
 70
8
 71
3
 72
8
 73
4
 74
0
 40
0
 40
0
 40
0
 40
0
 40
1
 40
1
 40
1
 40
1
 10
179.120000
 20
500.240000
 30
0.0
 10
181.360000
 20
498.880000
 30
0.0
 10
183.440000
 20
497.840000
 30
0.0
 10
183.680000
 20
497.840000
 30
0.0
  0
SPLINE
  5
137
100
AcDbEntity
  8
0
 62
7
100
AcDbSpline
 70
8
 71
3
 72
8
 73
4
 74
0
 40
0
 40
0
 40
0
 40
0
 40
1
 40
1
 40
1
 40
1
 10
183.680000
 20
497.840000
 30
0.0
 10
184.000000
 20
497.840000
 30
0.0
 10
185.200000
 20
498.800000
 30
0.0
 10
186.480000
 20
500.000000
 30
0.0
  0
SPLINE
  5
138
100
AcDbEntity
  8
0
 62
7
100
AcDbSpline
 70
8
 71
3
 72
8
 73
4
 74
0
 40
0
 40
0
 40
0
 40
0
 40
1
 40
1
 40
1
 40
1
 10
186.480000
 20
500.000000
 30
0.0
 10
189.680000
 20
503.120000
 30
0.0
 10
194.240000
 20
504.560000
 30
0.0
 10
200.320000
 20
504.560000
 30
0.0
  0
LINE
  5
139
100
AcDbEntity
  8
0
 62
7
100
AcDbLine
 10
200.320000
 20
504.560000
 30
0.0
 11
205.680000
 21
504.560000
 31
0.0
  0
LINE
  5
13a
100
AcDbEntity
  8
0
 62
7
100
AcDbLine
 10
205.680000
 20
504.560000
 30
0.0
 11
201.360000
 21
507.840000
 31
0.0
  0
SPLINE
  5
13b
100
AcDbEntity
  8
0
 62
7
100
AcDbSpline
 70
8
 71
3
 72
8
 73
4
 74
0
 40
0
 40
0
 40
0
 40
0
 40
1
 40
1
 40
1
 40
1
 10
201.360000
 20
507.840000
 30
0.0
 10
199.040000
 20
509.600000
 30
0.0
 10
197.040000
 20
511.600000
 30
0.0
 10
197.040000
 20
512.240000
 30
0.0
  0
SPLINE
  5
13c
100
AcDbEntity
  8
0
 62
7
100
AcDbSpline
 70
8
 71
3
 72
8
 73
4
 74
0
 40
0
 40
0
 40
0
 40
0
 40
1
 40
1
 40
1
 40
1
 10
197.040000
 20
512.240000
 30
0.0
 10
197.040000
 20
512.880000
 30
0.0
 10
195.680000
 20
514.240000
 30
0.0
 10
194.080000
 20
515.200000
 30
0.0
  0
SPLINE
  5
13d
100
AcDbEntity
  8
0
 62
7
100
AcDbSpline
 70
8
 71
3
 72
8
 73
4
 74
0
 40
0
 40
0
 40
0
 40
0
 40
1
 40
1
 40
1
 40
1
 10
194.080000
 20
515.200000
 30
0.0
 10
192.400000
 20
516.240000
 30
0.0
 10
190.400000
 20
518.080000
 30
0.0
 10
189.600000
 20
519.200000
 30
0.0
  0
SPLINE
  5
13e
100
AcDbEntity
  8
0
 62
7
100
AcDbSpline
 70
8
 71
3
 72
8
 73
4
 74
0
 40
0
 40
0
 40
0
 40
0
 40
1
 40
1
 40
1
 40
1
 10
189.600000
 20
519.200000
 30
0.0
 10
188.880000
 20
520.400000
 30
0.0
 10
187.120000
 20
522.160000
 30
0.0
 10
185.760000
 20
523.120000
 30
0.0
  0
SPLINE
  5
13f
100
AcDbEntity
  8
0
 62
7
100
AcDbSpline
 70
8
 71
3
 72
8
 73
4
 74
0
 40
0
 40
0
 40
0
 40
0
 40
1
 40
1
 40
1
 40
1
 10
185.760000
 20
523.120000
 30
0.0
 10
182.560000
 20
525.280000
 30
0.0
 10
179.120000
 20
529.760000
 30
0.0
 10
179.840000
 20
530.720000
 30
0.0
  0
SPLINE
  5
140
100
AcDbEntity
  8
0
 62
7
100
AcDbSpline
 70
8
 71
3
 72
8
 73
4
 74
0
 40
0
 40
0
 40
0
 40
0
 40
1
 40
1
 40
1
 40
1
 10
179.840000
 20
530.720000
 30
0.0
 10
180.160000
 20
531.120000
 30
0.0
 10
179.360000
 20
532.880000
 30
0.0
 10
178.080000
 20
534.720000
 30
0.0
  0
SPLINE
  5
141
100
AcDbEntity
  8
0
 62
7
100
AcDbSpline
 70
8
 71
3
 72
8
 73
4
 74
0
 40
0
 40
0
 40
0
 40
0
 40
1
 40
1
 40
1
 40
1
 10
178.080000
 20
534.720000
 30
0.0
 10
176.800000
 20
536.480000
 30
0.0
 10
175.760000
 20
538.320000
 30
0.0
 10
175.760000
 20
538.800000
 30
0.0
  0
SPLINE
  5
142
100
AcDbEntity
  8
0
 62
7
100
AcDbSpline
 70
8
 71
3
 72
8
 73
4
 74
0
 40
0
 40
0
 40
0
 40
0
 40
1
 40
1
 40
1
 40
1
 10
175.760000
 20
538.800000
 30
0.0
 10
175.760000
 20
539.920000
 30
0.0
 10
181.520000
 20
537.600000
 30
0.0
 10
187.600000
 20
534.080000
 30
0.0
  0
SPLINE
  5
143
100
AcDbEntity
  8
0
 62
7
100
AcDbSpline
 70
8
 71
3
 72
8
 73
4
 74
0
 40
0
 40
0
 40
0
 40
0
 40
1
 40
1
 40
1
 40
1
 10
187.600000
 20
534.080000
 30
0.0
 10
191.920000
 20
531.680000
 30
0.0
 10
200.560000
 20
527.760000
 30
0.0
 10
203.840000
 20
526.720000
 30
0.0
  0
SPLINE
  5
144
100
AcDbEntity
  8
0
 62
7
100
AcDbSpline
 70
8
 71
3
 72
8
 73
4
 74
0
 40
0
 40
0
 40
0
 40
0
 40
1
 40
1
 40
1
 40
1
 10
203.840000
 20
526.720000
 30
0.0
 10
205.360000
 20
526.320000
 30
0.0
 10
205.520000
 20
526.560000
 30
0.0
 10
204.880000
 20
528.640000
 30
0.0
  0
LINE
  5
145
100
AcDbEntity
  8
0
 62
7
100
AcDbLine
 10
204.880000
 20
528.640000
 30
0.0
 11
204.240000
 21
531.120000
 31
0.0
  0
LINE
  5
146
100
AcDbEntity
  8
0
 62
7
100
AcDbLine
 10
204.240000
 20
531.120000
 30
0.0
 11
209.680000
 21
527.120000
 31
0.0
  0
SPLINE
  5
147
100
AcDbEntity
  8
0
 62
7
100
AcDbSpline
 70
8
 71
3
 72
8
 73
4
 74
0
 40
0
 40
0
 40
0
 40
0
 40
1
 40
1
 40
1
 40
1
 10
209.680000
 20
527.120000
 30
0.0
 10
220.240000
 20
519.520000
 30
0.0
 10
221.680000
 20
518.320000
 30
0.0
 10
223.280000
 20
515.760000
 30
0.0
  0
SPLINE
  5
148
100
AcDbEntity
  8
0
 62
7
100
AcDbSpline
 70
8
 71
3
 72
8
 73
4
 74
0
 40
0
 40
0
 40
0
 40
0
 40
1
 40
1
 40
1
 40
1
 10
223.280000
 20
515.760000
 30
0.0
 10
224.160000
 20
514.320000
 30
0.0
 10
225.360000
 20
511.680000
 30
0.0
 10
226.000000
 20
509.840000
 30
0.0
  0
LINE
  5
149
100
AcDbEntity
  8
0
 62
7
100
AcDbLine
 10
226.000000
 20
509.840000
 30
0.0
 11
227.120000
 21
506.480000
 31
0.0
  0
LINE
  5
14a
100
AcDbEntity
  8
0
 62
7
100
AcDbLine
 10
227.120000
 20
506.480000
 30
0.0
 11
227.840000
 21
510.240000
 31
0.0
  0
SPLINE
  5
14b
100
AcDbEntity
  8
0
 62
7
100
AcDbSpline
 70
8
 71
3
 72
8
 73
4
 74
0
 40
0
 40
0
 40
0
 40
0
 40
1
 40
1
 40
1
 40
1
 10
227.840000
 20
510.240000
 30
0.0
 10
228.640000
 20
514.480000
 30
0.0
 10
231.360000
 20
520.080000
 30
0.0
 10
234.160000
 20
523.200000
 30
0.0
  0
SPLINE
  5
14c
100
AcDbEntity
  8
0
 62
7
100
AcDbSpline
 70
8
 71
3
 72
8
 73
4
 74
0
 40
0
 40
0
 40
0
 40
0
 40
1
 40
1
 40
1
 40
1
 10
234.160000
 20
523.200000
 30
0.0
 10
235.120000
 20
524.320000
 30
0.0
 10
236.720000
 20
526.800000
 30
0.0
 10
237.680000
 20
528.720000
 30
0.0
  0
LINE
  5
14d
100
AcDbEntity
  8
0
 62
7
100
AcDbLine
 10
237.680000
 20
528.720000
 30
0.0
 11
239.360000
 21
532.240000
 31
0.0
  0
LINE
  5
14e
100
AcDbEntity
  8
0
 62
7
100
AcDbLine
 10
239.360000
 20
532.240000
 30
0.0
 11
250.240000
 21
532.560000
 31
0.0
  0
SPLINE
  5
14f
100
AcDbEntity
  8
0
 62
7
100
AcDbSpline
 70
8
 71
3
 72
8
 73
4
 74
0
 40
0
 40
0
 40
0
 40
0
 40
1
 40
1
 40
1
 40
1
 10
250.240000
 20
532.560000
 30
0.0
 10
259.920000
 20
532.960000
 30
0.0
 10
261.600000
 20
532.800000
 30
0.0
 10
264.800000
 20
531.440000
 30
0.0
  0
SPLINE
  5
150
100
AcDbEntity
  8
0
 62
7
100
AcDbSpline
 70
8
 71
3
 72
8
 73
4
 74
0
 40
0
 40
0
 40
0
 40
0
 40
1
 40
1
 40
1
 40
1
 10
264.800000
 20
531.440000
 30
0.0
 10
271.520000
 20
528.720000
 30
0.0
 10
272.720000
 20
529.840000
 30
0.0
 10
269.760000
 20
536.080000
 30
0.0
  0
SPLINE
  5
151
100
AcDbEntity
  8
0
 62
7
100
AcDbSpline
 70
8
 71
3
 72
8
 73
4
 74
0
 40
0
 40
0
 40
0
 40
0
 40
1
 40
1
 40
1
 40
1
 10
269.760000
 20
536.080000
 30
0.0
 10
268.640000
 20
538.480000
 30
0.0
 10
268.320000
 20
541.280000
 30
0.0
 10
268.480000
 20
547.120000
 30
0.0
  0
SPLINE
  5
152
100
AcDbEntity
  8
0
 62
7
100
AcDbSpline
 70
8
 71
3
 72
8
 73
4
 74
0
 40
0
 40
0
 40
0
 40
0
 40
1
 40
1
 40
1
 40
1
 10
268.480000
 20
547.120000
 30
0.0
 10
268.640000
 20
551.440000
 30
0.0
 10
268.800000
 20
556.960000
 30
0.0
 10
268.880000
 20
559.280000
 30
0.0
  0
SPLINE
  5
153
100
AcDbEntity
  8
0
 62
7
100
AcDbSpline
 70
8
 71
3
 72
8
 73
4
 74
0
 40
0
 40
0
 40
0
 40
0
 40
1
 40
1
 40
1
 40
1
 10
268.880000
 20
559.280000
 30
0.0
 10
268.960000
 20
561.680000
 30
0.0
 10
269.120000
 20
563.600000
 30
0.0
 10
269.280000
 20
563.600000
 30
0.0
  0
SPLINE
  5
154
100
AcDbEntity
  8
0
 62
7
100
AcDbSpline
 70
8
 71
3
 72
8
 73
4
 74
0
 40
0
 40
0
 40
0
 40
0
 40
1
 40
1
 40
1
 40
1
 10
269.280000
 20
563.600000
 30
0.0
 10
269.440000
 20
563.600000
 30
0.0
 10
270.320000
 20
562.880000
 30
0.0
 10
271.200000
 20
562.000000
 30
0.0
  0
SPLINE
  5
155
100
AcDbEntity
  8
0
 62
7
100
AcDbSpline
 70
8
 71
3
 72
8
 73
4
 74
0
 40
0
 40
0
 40
0
 40
0
 40
1
 40
1
 40
1
 40
1
 10
271.200000
 20
562.000000
 30
0.0
 10
272.800000
 20
560.400000
 30
0.0
 10
272.880000
 20
560.480000
 30
0.0
 10
274.800000
 20
565.920000
 30
0.0
  0
SPLINE
  5
156
100
AcDbEntity
  8
0
 62
7
100
AcDbSpline
 70
8
 71
3
 72
8
 73
4
 74
0
 40
0
 40
0
 40
0
 40
0
 40
1
 40
1
 40
1
 40
1
 10
274.800000
 20
565.920000
 30
0.0
 10
275.840000
 20
568.960000
 30
0.0
 10
277.040000
 20
572.560000
 30
0.0
 10
277.360000
 20
574.000000
 30
0.0
  0
SPLINE
  5
157
100
AcDbEntity
  8
0
 62
7
100
AcDbSpline
 70
8
 71
3
 72
8
 73
4
 74
0
 40
0
 40
0
 40
0
 40
0
 40
1
 40
1
 40
1
 40
1
 10
277.360000
 20
574.000000
 30
0.0
 10
278.880000
 20
581.200000
 30
0.0
 10
281.920000
 20
591.200000
 30
0.0
 10
282.560000
 20
591.200000
 30
0.0
  0
SPLINE
  5
158
100
AcDbEntity
  8
0
 62
7
100
AcDbSpline
 70
8
 71
3
 72
8
 73
4
 74
0
 40
0
 40
0
 40
0
 40
0
 40
1
 40
1
 40
1
 40
1
 10
282.560000
 20
591.200000
 30
0.0
 10
283.200000
 20
591.200000
 30
0.0
 10
283.600000
 20
590.000000
 30
0.0
 10
284.880000
 20
584.240000
 30
0.0
  0
SPLINE
  5
159
100
AcDbEntity
  8
0
 62
7
100
AcDbSpline
 70
8
 71
3
 72
8
 73
4
 74
0
 40
0
 40
0
 40
0
 40
0
 40
1
 40
1
 40
1
 40
1
 10
284.880000
 20
584.240000
 30
0.0
 10
285.280000
 20
582.400000
 30
0.0
 10
285.760000
 20
581.680000
 30
0.0
 10
286.240000
 20
582.320000
 30
0.0
  0
SPLINE
  5
15a
100
AcDbEntity
  8
0
 62
7
100
AcDbSpline
 70
8
 71
3
 72
8
 73
4
 74
0
 40
0
 40
0
 40
0
 40
0
 40
1
 40
1
 40
1
 40
1
 10
286.240000
 20
582.320000
 30
0.0
 10
287.280000
 20
583.760000
 30
0.0
 10
287.920000
 20
579.600000
 30
0.0
 10
288.640000
 20
566.960000
 30
0.0
  0
SPLINE
  5
15b
100
AcDbEntity
  8
0
 62
7
100
AcDbSpline
 70
8
 71
3
 72
8
 73
4
 74
0
 40
0
 40
0
 40
0
 40
0
 40
1
 40
1
 40
1
 40
1
 10
288.640000
 20
566.960000
 30
0.0
 10
289.200000
 20
554.720000
 30
0.0
 10
289.280000
 20
552.560000
 30
0.0
 10
289.200000
 20
548.640000
 30
0.0
  0
SPLINE
  5
15c
100
AcDbEntity
  8
0
 62
7
100
AcDbSpline
 70
8
 71
3
 72
8
 73
4
 74
0
 40
0
 40
0
 40
0
 40
0
 40
1
 40
1
 40
1
 40
1
 10
289.200000
 20
548.640000
 30
0.0
 10
289.040000
 20
540.000000
 30
0.0
 10
289.280000
 20
537.440000
 30
0.0
 10
290.480000
 20
537.440000
 30
0.0
  0
SPLINE
  5
15d
100
AcDbEntity
  8
0
 62
7
100
AcDbSpline
 70
8
 71
3
 72
8
 73
4
 74
0
 40
0
 40
0
 40
0
 40
0
 40
1
 40
1
 40
1
 40
1
 10
290.480000
 20
537.440000
 30
0.0
 10
291.200000
 20
537.440000
 30
0.0
 10
291.760000
 20
537.120000
 30
0.0
 10
291.760000
 20
536.640000
 30
0.0
  0
SPLINE
  5
15e
100
AcDbEntity
  8
0
 62
7
100
AcDbSpline
 70
8
 71
3
 72
8
 73
4
 74
0
 40
0
 40
0
 40
0
 40
0
 40
1
 40
1
 40
1
 40
1
 10
291.760000
 20
536.640000
 30
0.0
 10
291.760000
 20
534.640000
 30
0.0
 10
293.520000
 20
537.120000
 30
0.0
 10
294.880000
 20
541.120000
 30
0.0
  0
SPLINE
  5
15f
100
AcDbEntity
  8
0
 62
7
100
AcDbSpline
 70
8
 71
3
 72
8
 73
4
 74
0
 40
0
 40
0
 40
0
 40
0
 40
1
 40
1
 40
1
 40
1
 10
294.880000
 20
541.120000
 30
0.0
 10
296.880000
 20
546.960000
 30
0.0
 10
302.000000
 20
552.080000
 30
0.0
 10
309.840000
 20
556.240000
 30
0.0
  0
SPLINE
  5
160
100
AcDbEntity
  8
0
 62
7
100
AcDbSpline
 70
8
 71
3
 72
8
 73
4
 74
0
 40
0
 40
0
 40
0
 40
0
 40
1
 40
1
 40
1
 40
1
 10
309.840000
 20
556.240000
 30
0.0
 10
315.280000
 20
559.120000
 30
0.0
 10
315.920000
 20
559.680000
 30
0.0
 10
315.440000
 20
561.360000
 30
0.0
  0
SPLINE
  5
161
100
AcDbEntity
  8
0
 62
7
100
AcDbSpline
 70
8
 71
3
 72
8
 73
4
 74
0
 40
0
 40
0
 40
0
 40
0
 40
1
 40
1
 40
1
 40
1
 10
315.440000
 20
561.360000
 30
0.0
 10
313.040000
 20
570.080000
 30
0.0
 10
312.960000
 20
571.040000
 30
0.0
 10
314.640000
 20
578.320000
 30
0.0
  0
SPLINE
  5
162
100
AcDbEntity
  8
0
 62
7
100
AcDbSpline
 70
8
 71
3
 72
8
 73
4
 74
0
 40
0
 40
0
 40
0
 40
0
 40
1
 40
1
 40
1
 40
1
 10
314.640000
 20
578.320000
 30
0.0
 10
316.400000
 20
585.920000
 30
0.0
 10
316.800000
 20
604.960000
 30
0.0
 10
315.280000
 20
606.160000
 30
0.0
  0
SPLINE
  5
163
100
AcDbEntity
  8
0
 62
7
100
AcDbSpline
 70
8
 71
3
 72
8
 73
4
 74
0
 40
0
 40
0
 40
0
 40
0
 40
1
 40
1
 40
1
 40
1
 10
315.280000
 20
606.160000
 30
0.0
 10
314.800000
 20
606.480000
 30
0.0
 10
312.720000
 20
606.480000
 30
0.0
 10
310.560000
 20
606.160000
 30
0.0
  0
SPLINE
  5
164
100
AcDbEntity
  8
0
 62
7
100
AcDbSpline
 70
8
 71
3
 72
8
 73
4
 74
0
 40
0
 40
0
 40
0
 40
0
 40
1
 40
1
 40
1
 40
1
 10
310.560000
 20
606.160000
 30
0.0
 10
307.360000
 20
605.680000
 30
0.0
 10
305.680000
 20
605.920000
 30
0.0
 10
302.000000
 20
607.280000
 30
0.0
  0
SPLINE
  5
165
100
AcDbEntity
  8
0
 62
7
100
AcDbSpline
 70
8
 71
3
 72
8
 73
4
 74
0
 40
0
 40
0
 40
0
 40
0
 40
1
 40
1
 40
1
 40
1
 10
302.000000
 20
607.280000
 30
0.0
 10
296.880000
 20
609.200000
 30
0.0
 10
295.920000
 20
610.320000
 30
0.0
 10
295.200000
 20
614.960000
 30
0.0
  0
SPLINE
  5
166
100
AcDbEntity
  8
0
 62
7
100
AcDbSpline
 70
8
 71
3
 72
8
 73
4
 74
0
 40
0
 40
0
 40
0
 40
0
 40
1
 40
1
 40
1
 40
1
 10
295.200000
 20
614.960000
 30
0.0
 10
294.880000
 20
616.720000
 30
0.0
 10
294.000000
 20
618.560000
 30
0.0
 10
293.200000
 20
619.040000
 30
0.0
  0
SPLINE
  5
167
100
AcDbEntity
  8
0
 62
7
100
AcDbSpline
 70
8
 71
3
 72
8
 73
4
 74
0
 40
0
 40
0
 40
0
 40
0
 40
1
 40
1
 40
1
 40
1
 10
293.200000
 20
619.040000
 30
0.0
 10
291.040000
 20
620.400000
 30
0.0
 10
288.000000
 20
628.240000
 30
0.0
 10
288.000000
 20
632.640000
 30
0.0
  0
SPLINE
  5
168
100
AcDbEntity
  8
0
 62
7
100
AcDbSpline
 70
8
 71
3
 72
8
 73
4
 74
0
 40
0
 40
0
 40
0
 40
0
 40
1
 40
1
 40
1
 40
1
 10
288.000000
 20
632.640000
 30
0.0
 10
288.000000
 20
636.560000
 30
0.0
 10
289.760000
 20
638.960000
 30
0.0
 10
292.640000
 20
638.960000
 30
0.0
  0
SPLINE
  5
169
100
AcDbEntity
  8
0
 62
7
100
AcDbSpline
 70
8
 71
3
 72
8
 73
4
 74
0
 40
0
 40
0
 40
0
 40
0
 40
1
 40
1
 40
1
 40
1
 10
292.640000
 20
638.960000
 30
0.0
 10
294.640000
 20
638.960000
 30
0.0
 10
301.040000
 20
635.200000
 30
0.0
 10
301.040000
 20
634.000000
 30
0.0
  0
SPLINE
  5
16a
100
AcDbEntity
  8
0
 62
7
100
AcDbSpline
 70
8
 71
3
 72
8
 73
4
 74
0
 40
0
 40
0
 40
0
 40
0
 40
1
 40
1
 40
1
 40
1
 10
301.040000
 20
634.000000
 30
0.0
 10
301.040000
 20
633.440000
 30
0.0
 10
301.520000
 20
633.040000
 30
0.0
 10
302.160000
 20
633.040000
 30
0.0
  0
SPLINE
  5
16b
100
AcDbEntity
  8
0
 62
7
100
AcDbSpline
 70
8
 71
3
 72
8
 73
4
 74
0
 40
0
 40
0
 40
0
 40
0
 40
1
 40
1
 40
1
 40
1
 10
302.160000
 20
633.040000
 30
0.0
 10
303.200000
 20
633.040000
 30
0.0
 10
303.040000
 20
640.480000
 30
0.0
 10
301.760000
 20
653.200000
 30
0.0
  0
SPLINE
  5
16c
100
AcDbEntity
  8
0
 62
7
100
AcDbSpline
 70
8
 71
3
 72
8
 73
4
 74
0
 40
0
 40
0
 40
0
 40
0
 40
1
 40
1
 40
1
 40
1
 10
301.760000
 20
653.200000
 30
0.0
 10
301.680000
 20
654.240000
 30
0.0
 10
301.680000
 20
657.040000
 30
0.0
 10
301.760000
 20
659.360000
 30
0.0
  0
SPLINE
  5
16d
100
AcDbEntity
  8
0
 62
7
100
AcDbSpline
 70
8
 71
3
 72
8
 73
4
 74
0
 40
0
 40
0
 40
0
 40
0
 40
1
 40
1
 40
1
 40
1
 10
301.760000
 20
659.360000
 30
0.0
 10
301.920000
 20
663.120000
 30
0.0
 10
302.320000
 20
664.080000
 30
0.0
 10
304.720000
 20
666.000000
 30
0.0
  0
SPLINE
  5
16e
100
AcDbEntity
  8
0
 62
7
100
AcDbSpline
 70
8
 71
3
 72
8
 73
4
 74
0
 40
0
 40
0
 40
0
 40
0
 40
1
 40
1
 40
1
 40
1
 10
304.720000
 20
666.000000
 30
0.0
 10
306.240000
 20
667.200000
 30
0.0
 10
307.520000
 20
668.720000
 30
0.0
 10
307.520000
 20
669.360000
 30
0.0
  0
SPLINE
  5
16f
100
AcDbEntity
  8
0
 62
7
100
AcDbSpline
 70
8
 71
3
 72
8
 73
4
 74
0
 40
0
 40
0
 40
0
 40
0
 40
1
 40
1
 40
1
 40
1
 10
307.520000
 20
669.360000
 30
0.0
 10
307.520000
 20
670.800000
 30
0.0
 10
311.680000
 20
674.080000
 30
0.0
 10
313.600000
 20
674.080000
 30
0.0
  0
SPLINE
  5
170
100
AcDbEntity
  8
0
 62
7
100
AcDbSpline
 70
8
 71
3
 72
8
 73
4
 74
0
 40
0
 40
0
 40
0
 40
0
 40
1
 40
1
 40
1
 40
1
 10
313.600000
 20
674.080000
 30
0.0
 10
314.400000
 20
674.080000
 30
0.0
 10
316.320000
 20
673.040000
 30
0.0
 10
317.760000
 20
671.760000
 30
0.0
  0
SPLINE
  5
171
100
AcDbEntity
  8
0
 62
7
100
AcDbSpline
 70
8
 71
3
 72
8
 73
4
 74
0
 40
0
 40
0
 40
0
 40
0
 40
1
 40
1
 40
1
 40
1
 10
317.760000
 20
671.760000
 30
0.0
 10
319.600000
 20
670.240000
 30
0.0
 10
320.960000
 20
669.600000
 30
0.0
 10
322.160000
 20
669.920000
 30
0.0
  0
SPLINE
  5
172
100
AcDbEntity
  8
0
 62
7
100
AcDbSpline
 70
8
 71
3
 72
8
 73
4
 74
0
 40
0
 40
0
 40
0
 40
0
 40
1
 40
1
 40
1
 40
1
 10
322.160000
 20
669.920000
 30
0.0
 10
323.040000
 20
670.160000
 30
0.0
 10
324.640000
 20
669.840000
 30
0.0
 10
325.680000
 20
669.280000
 30
0.0
  0
SPLINE
  5
173
100
AcDbEntity
  8
0
 62
7
100
AcDbSpline
 70
8
 71
3
 72
8
 73
4
 74
0
 40
0
 40
0
 40
0
 40
0
 40
1
 40
1
 40
1
 40
1
 10
325.680000
 20
669.280000
 30
0.0
 10
326.640000
 20
668.640000
 30
0.0
 10
328.960000
 20
668.160000
 30
0.0
 10
330.800000
 20
668.160000
 30
0.0
  0
SPLINE
  5
174
100
AcDbEntity
  8
0
 62
7
100
AcDbSpline
 70
8
 71
3
 72
8
 73
4
 74
0
 40
0
 40
0
 40
0
 40
0
 40
1
 40
1
 40
1
 40
1
 10
330.800000
 20
668.160000
 30
0.0
 10
334.720000
 20
668.080000
 30
0.0
 10
336.880000
 20
666.480000
 30
0.0
 10
338.240000
 20
662.560000
 30
0.0
  0
SPLINE
  5
175
100
AcDbEntity
  8
0
 62
7
100
AcDbSpline
 70
8
 71
3
 72
8
 73
4
 74
0
 40
0
 40
0
 40
0
 40
0
 40
1
 40
1
 40
1
 40
1
 10
338.240000
 20
662.560000
 30
0.0
 10
338.800000
 20
661.040000
 30
0.0
 10
340.800000
 20
656.960000
 30
0.0
 10
342.880000
 20
653.520000
 30
0.0
  0
SPLINE
  5
176
100
AcDbEntity
  8
0
 62
7
100
AcDbSpline
 70
8
 71
3
 72
8
 73
4
 74
0
 40
0
 40
0
 40
0
 40
0
 40
1
 40
1
 40
1
 40
1
 10
342.880000
 20
653.520000
 30
0.0
 10
344.880000
 20
650.080000
 30
0.0
 10
346.480000
 20
647.120000
 30
0.0
 10
346.480000
 20
646.880000
 30
0.0
  0
SPLINE
  5
177
100
AcDbEntity
  8
0
 62
7
100
AcDbSpline
 70
8
 71
3
 72
8
 73
4
 74
0
 40
0
 40
0
 40
0
 40
0
 40
1
 40
1
 40
1
 40
1
 10
346.480000
 20
646.880000
 30
0.0
 10
346.480000
 20
646.320000
 30
0.0
 10
349.600000
 20
640.640000
 30
0.0
 10
354.160000
 20
633.120000
 30
0.0
  0
SPLINE
  5
178
100
AcDbEntity
  8
0
 62
7
100
AcDbSpline
 70
8
 71
3
 72
8
 73
4
 74
0
 40
0
 40
0
 40
0
 40
0
 40
1
 40
1
 40
1
 40
1
 10
354.160000
 20
633.120000
 30
0.0
 10
357.520000
 20
627.520000
 30
0.0
 10
357.840000
 20
626.560000
 30
0.0
 10
357.280000
 20
622.960000
 30
0.0
  0
SPLINE
  5
179
100
AcDbEntity
  8
0
 62
7
100
AcDbSpline
 70
8
 71
3
 72
8
 73
4
 74
0
 40
0
 40
0
 40
0
 40
0
 40
1
 40
1
 40
1
 40
1
 10
357.280000
 20
622.960000
 30
0.0
 10
356.960000
 20
620.800000
 30
0.0
 10
356.080000
 20
617.680000
 30
0.0
 10
355.360000
 20
616.000000
 30
0.0
  0
SPLINE
  5
17a
100
AcDbEntity
  8
0
 62
7
100
AcDbSpline
 70
8
 71
3
 72
8
 73
4
 74
0
 40
0
 40
0
 40
0
 40
0
 40
1
 40
1
 40
1
 40
1
 10
355.360000
 20
616.000000
 30
0.0
 10
354.160000
 20
613.200000
 30
0.0
 10
354.240000
 20
612.640000
 30
0.0
 10
357.120000
 20
605.680000
 30
0.0
  0
SPLINE
  5
17b
100
AcDbEntity
  8
0
 62
7
100
AcDbSpline
 70
8
 71
3
 72
8
 73
4
 74
0
 40
0
 40
0
 40
0
 40
0
 40
1
 40
1
 40
1
 40
1
 10
357.120000
 20
605.680000
 30
0.0
 10
358.800000
 20
601.600000
 30
0.0
 10
362.080000
 20
594.800000
 30
0.0
 10
364.400000
 20
590.480000
 30
0.0
  0
SPLINE
  5
17c
100
AcDbEntity
  8
0
 62
7
100
AcDbSpline
 70
8
 71
3
 72
8
 73
4
 74
0
 40
0
 40
0
 40
0
 40
0
 40
1
 40
1
 40
1
 40
1
 10
364.400000
 20
590.480000
 30
0.0
 10
369.840000
 20
580.240000
 30
0.0
 10
372.480000
 20
573.280000
 30
0.0
 10
372.480000
 20
568.720000
 30
0.0
  0
LINE
  5
17d
100
AcDbEntity
  8
0
 62
7
100
AcDbLine
 10
372.480000
 20
568.720000
 30
0.0
 11
372.480000
 21
565.040000
 31
0.0
  0
LINE
  5
17e
100
AcDbEntity
  8
0
 62
7
100
AcDbLine
 10
372.480000
 20
565.040000
 30
0.0
 11
378.240000
 21
565.040000
 31
0.0
  0
SPLINE
  5
17f
100
AcDbEntity
  8
0
 62
7
100
AcDbSpline
 70
8
 71
3
 72
8
 73
4
 74
0
 40
0
 40
0
 40
0
 40
0
 40
1
 40
1
 40
1
 40
1
 10
378.240000
 20
565.040000
 30
0.0
 10
384.560000
 20
565.040000
 30
0.0
 10
390.320000
 20
564.000000
 30
0.0
 10
401.200000
 20
561.120000
 30
0.0
  0
SPLINE
  5
180
100
AcDbEntity
  8
0
 62
7
100
AcDbSpline
 70
8
 71
3
 72
8
 73
4
 74
0
 40
0
 40
0
 40
0
 40
0
 40
1
 40
1
 40
1
 40
1
 10
401.200000
 20
561.120000
 30
0.0
 10
412.000000
 20
558.240000
 30
0.0
 10
424.880000
 20
556.240000
 30
0.0
 10
435.600000
 20
555.760000
 30
0.0
  0
SPLINE
  5
181
100
AcDbEntity
  8
0
 62
7
100
AcDbSpline
 70
8
 71
3
 72
8
 73
4
 74
0
 40
0
 40
0
 40
0
 40
0
 40
1
 40
1
 40
1
 40
1
 10
435.600000
 20
555.760000
 30
0.0
 10
452.400000
 20
554.960000
 30
0.0
 10
471.920000
 20
553.120000
 30
0.0
 10
479.840000
 20
551.520000
 30
0.0
  0
SPLINE
  5
182
100
AcDbEntity
  8
0
 62
7
100
AcDbSpline
 70
8
 71
3
 72
8
 73
4
 74
0
 40
0
 40
0
 40
0
 40
0
 40
1
 40
1
 40
1
 40
1
 10
479.840000
 20
551.520000
 30
0.0
 10
487.040000
 20
550.080000
 30
0.0
 10
488.480000
 20
550.080000
 30
0.0
 10
503.280000
 20
550.800000
 30
0.0
  0
SPLINE
  5
183
100
AcDbEntity
  8
0
 62
7
100
AcDbSpline
 70
8
 71
3
 72
8
 73
4
 74
0
 40
0
 40
0
 40
0
 40
0
 40
1
 40
1
 40
1
 40
1
 10
503.280000
 20
550.800000
 30
0.0
 10
521.840000
 20
551.760000
 30
0.0
 10
528.000000
 20
551.360000
 30
0.0
 10
534.720000
 20
548.800000
 30
0.0
  0
SPLINE
  5
184
100
AcDbEntity
  8
0
 62
7
100
AcDbSpline
 70
8
 71
3
 72
8
 73
4
 74
0
 40
0
 40
0
 40
0
 40
0
 40
1
 40
1
 40
1
 40
1
 10
534.720000
 20
548.800000
 30
0.0
 10
540.880000
 20
546.400000
 30
0.0
 10
544.160000
 20
543.360000
 30
0.0
 10
548.640000
 20
536.080000
 30
0.0
  0
SPLINE
  5
185
100
AcDbEntity
  8
0
 62
7
100
AcDbSpline
 70
8
 71
3
 72
8
 73
4
 74
0
 40
0
 40
0
 40
0
 40
0
 40
1
 40
1
 40
1
 40
1
 10
548.640000
 20
536.080000
 30
0.0
 10
553.120000
 20
528.800000
 30
0.0
 10
556.240000
 20
524.800000
 30
0.0
 10
562.000000
 20
518.960000
 30
0.0
  0
SPLINE
  5
186
100
AcDbEntity
  8
0
 62
7
100
AcDbSpline
 70
8
 71
3
 72
8
 73
4
 74
0
 40
0
 40
0
 40
0
 40
0
 40
1
 40
1
 40
1
 40
1
 10
562.000000
 20
518.960000
 30
0.0
 10
573.840000
 20
506.880000
 30
0.0
 10
576.800000
 20
492.640000
 30
0.0
 10
571.520000
 20
473.200000
 30
0.0
  0
SPLINE
  5
187
100
AcDbEntity
  8
0
 62
7
100
AcDbSpline
 70
8
 71
3
 72
8
 73
4
 74
0
 40
0
 40
0
 40
0
 40
0
 40
1
 40
1
 40
1
 40
1
 10
571.520000
 20
473.200000
 30
0.0
 10
564.000000
 20
446.080000
 30
0.0
 10
562.160000
 20
433.040000
 30
0.0
 10
563.120000
 20
415.360000
 30
0.0
  0
SPLINE
  5
188
100
AcDbEntity
  8
0
 62
7
100
AcDbSpline
 70
8
 71
3
 72
8
 73
4
 74
0
 40
0
 40
0
 40
0
 40
0
 40
1
 40
1
 40
1
 40
1
 10
563.120000
 20
415.360000
 30
0.0
 10
563.920000
 20
402.160000
 30
0.0
 10
566.160000
 20
380.160000
 30
0.0
 10
567.360000
 20
374.320000
 30
0.0
  0
SPLINE
  5
189
100
AcDbEntity
  8
0
 62
7
100
AcDbSpline
 70
8
 71
3
 72
8
 73
4
 74
0
 40
0
 40
0
 40
0
 40
0
 40
1
 40
1
 40
1
 40
1
 10
567.360000
 20
374.320000
 30
0.0
 10
567.840000
 20
371.840000
 30
0.0
 10
568.240000
 20
368.960000
 30
0.0
 10
568.240000
 20
367.920000
 30
0.0
  0
SPLINE
  5
18a
100
AcDbEntity
  8
0
 62
7
100
AcDbSpline
 70
8
 71
3
 72
8
 73
4
 74
0
 40
0
 40
0
 40
0
 40
0
 40
1
 40
1
 40
1
 40
1
 10
568.240000
 20
367.920000
 30
0.0
 10
568.160000
 20
365.680000
 30
0.0
 10
568.640000
 20
364.960000
 30
0.0
 10
561.280000
 20
379.120000
 30
0.0
  0
SPLINE
  5
18b
100
AcDbEntity
  8
0
 62
7
100
AcDbSpline
 70
8
 71
3
 72
8
 73
4
 74
0
 40
0
 40
0
 40
0
 40
0
 40
1
 40
1
 40
1
 40
1
 10
561.280000
 20
379.120000
 30
0.0
 10
541.440000
 20
417.520000
 30
0.0
 10
524.240000
 20
448.800000
 30
0.0
 10
522.320000
 20
450.080000
 30
0.0
  0
SPLINE
  5
18c
100
AcDbEntity
  8
0
 62
7
100
AcDbSpline
 70
8
 71
3
 72
8
 73
4
 74
0
 40
0
 40
0
 40
0
 40
0
 40
1
 40
1
 40
1
 40
1
 10
522.320000
 20
450.080000
 30
0.0
 10
521.120000
 20
450.880000
 30
0.0
 10
520.240000
 20
449.680000
 30
0.0
 10
517.200000
 20
443.360000
 30
0.0
  0
SPLINE
  5
18d
100
AcDbEntity
  8
0
 62
7
100
AcDbSpline
 70
8
 71
3
 72
8
 73
4
 74
0
 40
0
 40
0
 40
0
 40
0
 40
1
 40
1
 40
1
 40
1
 10
517.200000
 20
443.360000
 30
0.0
 10
514.080000
 20
436.880000
 30
0.0
 10
511.840000
 20
427.520000
 30
0.0
 10
510.240000
 20
414.640000
 30
0.0
  0
SPLINE
  5
18e
100
AcDbEntity
  8
0
 62
7
100
AcDbSpline
 70
8
 71
3
 72
8
 73
4
 74
0
 40
0
 40
0
 40
0
 40
0
 40
1
 40
1
 40
1
 40
1
 10
510.240000
 20
414.640000
 30
0.0
 10
507.440000
 20
390.960000
 30
0.0
 10
502.560000
 20
376.960000
 30
0.0
 10
496.960000
 20
376.320000
 30
0.0
  0
SPLINE
  5
18f
100
AcDbEntity
  8
0
 62
7
100
AcDbSpline
 70
8
 71
3
 72
8
 73
4
 74
0
 40
0
 40
0
 40
0
 40
0
 40
1
 40
1
 40
1
 40
1
 10
496.960000
 20
376.320000
 30
0.0
 10
491.920000
 20
375.680000
 30
0.0
 10
482.880000
 20
383.760000
 30
0.0
 10
475.440000
 20
395.600000
 30
0.0
  0
SPLINE
  5
190
100
AcDbEntity
  8
0
 62
7
100
AcDbSpline
 70
8
 71
3
 72
8
 73
4
 74
0
 40
0
 40
0
 40
0
 40
0
 40
1
 40
1
 40
1
 40
1
 10
475.440000
 20
395.600000
 30
0.0
 10
474.320000
 20
397.440000
 30
0.0
 10
472.000000
 20
400.240000
 30
0.0
 10
470.320000
 20
401.920000
 30
0.0
  0
SPLINE
  5
191
100
AcDbEntity
  8
0
 62
7
100
AcDbSpline
 70
8
 71
3
 72
8
 73
4
 74
0
 40
0
 40
0
 40
0
 40
0
 40
1
 40
1
 40
1
 40
1
 10
470.320000
 20
401.920000
 30
0.0
 10
467.040000
 20
405.120000
 30
0.0
 10
444.320000
 20
432.320000
 30
0.0
 10
443.680000
 20
433.840000
 30
0.0
  0
SPLINE
  5
192
100
AcDbEntity
  8
0
 62
7
100
AcDbSpline
 70
8
 71
3
 72
8
 73
4
 74
0
 40
0
 40
0
 40
0
 40
0
 40
1
 40
1
 40
1
 40
1
 10
443.680000
 20
433.840000
 30
0.0
 10
443.360000
 20
434.560000
 30
0.0
 10
442.800000
 20
434.560000
 30
0.0
 10
441.520000
 20
433.920000
 30
0.0
  0
SPLINE
  5
193
100
AcDbEntity
  8
0
 62
7
100
AcDbSpline
 70
8
 71
3
 72
8
 73
4
 74
0
 40
0
 40
0
 40
0
 40
0
 40
1
 40
1
 40
1
 40
1
 10
441.520000
 20
433.920000
 30
0.0
 10
438.240000
 20
432.400000
 30
0.0
 10
436.960000
 20
429.200000
 30
0.0
 10
437.040000
 20
422.480000
 30
0.0
  0
SPLINE
  5
194
100
AcDbEntity
  8
0
 62
7
100
AcDbSpline
 70
8
 71
3
 72
8
 73
4
 74
0
 40
0
 40
0
 40
0
 40
0
 40
1
 40
1
 40
1
 40
1
 10
437.040000
 20
422.480000
 30
0.0
 10
437.120000
 20
416.000000
 30
0.0
 10
439.200000
 20
410.000000
 30
0.0
 10
447.280000
 20
392.640000
 30
0.0
  0
SPLINE
  5
195
100
AcDbEntity
  8
0
 62
7
100
AcDbSpline
 70
8
 71
3
 72
8
 73
4
 74
0
 40
0
 40
0
 40
0
 40
0
 40
1
 40
1
 40
1
 40
1
 10
447.280000
 20
392.640000
 30
0.0
 10
451.520000
 20
383.680000
 30
0.0
 10
452.640000
 20
370.240000
 30
0.0
 10
450.000000
 20
362.160000
 30
0.0
  0
SPLINE
  5
196
100
AcDbEntity
  8
0
 62
7
100
AcDbSpline
 70
8
 71
3
 72
8
 73
4
 74
0
 40
0
 40
0
 40
0
 40
0
 40
1
 40
1
 40
1
 40
1
 10
450.000000
 20
362.160000
 30
0.0
 10
447.760000
 20
355.120000
 30
0.0
 10
446.800000
 20
353.840000
 30
0.0
 10
443.280000
 20
353.040000
 30
0.0
  0
SPLINE
  5
197
100
AcDbEntity
  8
0
 62
7
100
AcDbSpline
 70
8
 71
3
 72
8
 73
4
 74
0
 40
0
 40
0
 40
0
 40
0
 40
1
 40
1
 40
1
 40
1
 10
443.280000
 20
353.040000
 30
0.0
 10
438.640000
 20
352.000000
 30
0.0
 10
435.120000
 20
353.600000
 30
0.0
 10
427.600000
 20
359.760000
 30
0.0
  0
SPLINE
  5
198
100
AcDbEntity
  8
0
 62
7
100
AcDbSpline
 70
8
 71
3
 72
8
 73
4
 74
0
 40
0
 40
0
 40
0
 40
0
 40
1
 40
1
 40
1
 40
1
 10
427.600000
 20
359.760000
 30
0.0
 10
419.840000
 20
366.240000
 30
0.0
 10
413.440000
 20
369.440000
 30
0.0
 10
408.160000
 20
369.440000
 30
0.0
  0
SPLINE
  5
199
100
AcDbEntity
  8
0
 62
7
100
AcDbSpline
 70
8
 71
3
 72
8
 73
4
 74
0
 40
0
 40
0
 40
0
 40
0
 40
1
 40
1
 40
1
 40
1
 10
408.160000
 20
369.440000
 30
0.0
 10
406.000000
 20
369.440000
 30
0.0
 10
404.080000
 20
369.200000
 30
0.0
 10
403.760000
 20
368.960000
 30
0.0
  0
SPLINE
  5
19a
100
AcDbEntity
  8
0
 62
7
100
AcDbSpline
 70
8
 71
3
 72
8
 73
4
 74
0
 40
0
 40
0
 40
0
 40
0
 40
1
 40
1
 40
1
 40
1
 10
403.760000
 20
368.960000
 30
0.0
 10
403.440000
 20
368.720000
 30
0.0
 10
404.720000
 20
367.040000
 30
0.0
 10
406.640000
 20
365.280000
 30
0.0
  0
SPLINE
  5
19b
100
AcDbEntity
  8
0
 62
7
100
AcDbSpline
 70
8
 71
3
 72
8
 73
4
 74
0
 40
0
 40
0
 40
0
 40
0
 40
1
 40
1
 40
1
 40
1
 10
406.640000
 20
365.280000
 30
0.0
 10
408.560000
 20
363.520000
 30
0.0
 10
410.960000
 20
360.800000
 30
0.0
 10
411.920000
 20
359.280000
 30
0.0
  0
SPLINE
  5
19c
100
AcDbEntity
  8
0
 62
7
100
AcDbSpline
 70
8
 71
3
 72
8
 73
4
 74
0
 40
0
 40
0
 40
0
 40
0
 40
1
 40
1
 40
1
 40
1
 10
411.920000
 20
359.280000
 30
0.0
 10
412.960000
 20
357.680000
 30
0.0
 10
415.520000
 20
354.480000
 30
0.0
 10
417.600000
 20
352.240000
 30
0.0
  0
SPLINE
  5
19d
100
AcDbEntity
  8
0
 62
7
100
AcDbSpline
 70
8
 71
3
 72
8
 73
4
 74
0
 40
0
 40
0
 40
0
 40
0
 40
1
 40
1
 40
1
 40
1
 10
417.600000
 20
352.240000
 30
0.0
 10
429.680000
 20
339.360000
 30
0.0
 10
432.080000
 20
326.160000
 30
0.0
 10
424.560000
 20
313.840000
 30
0.0
  0
SPLINE
  5
19e
100
AcDbEntity
  8
0
 62
7
100
AcDbSpline
 70
8
 71
3
 72
8
 73
4
 74
0
 40
0
 40
0
 40
0
 40
0
 40
1
 40
1
 40
1
 40
1
 10
424.560000
 20
313.840000
 30
0.0
 10
422.240000
 20
310.160000
 30
0.0
 10
422.000000
 20
309.120000
 30
0.0
 10
422.880000
 20
307.840000
 30
0.0
  0
SPLINE
  5
19f
100
AcDbEntity
  8
0
 62
7
100
AcDbSpline
 70
8
 71
3
 72
8
 73
4
 74
0
 40
0
 40
0
 40
0
 40
0
 40
1
 40
1
 40
1
 40
1
 10
422.880000
 20
307.840000
 30
0.0
 10
423.680000
 20
306.800000
 30
0.0
 10
423.920000
 20
302.160000
 30
0.0
 10
423.680000
 20
292.560000
 30
0.0
  0
SPLINE
  5
1a0
100
AcDbEntity
  8
0
 62
7
100
AcDbSpline
 70
8
 71
3
 72
8
 73
4
 74
0
 40
0
 40
0
 40
0
 40
0
 40
1
 40
1
 40
1
 40
1
 10
423.680000
 20
292.560000
 30
0.0
 10
423.440000
 20
280.160000
 30
0.0
 10
423.920000
 20
275.360000
 30
0.0
 10
425.840000
 20
270.480000
 30
0.0
  0
SPLINE
  5
1a1
100
AcDbEntity
  8
0
 62
7
100
AcDbSpline
 70
8
 71
3
 72
8
 73
4
 74
0
 40
0
 40
0
 40
0
 40
0
 40
1
 40
1
 40
1
 40
1
 10
425.840000
 20
270.480000
 30
0.0
 10
426.400000
 20
268.960000
 30
0.0
 10
426.160000
 20
268.880000
 30
0.0
 10
418.720000
 20
269.200000
 30
0.0
  0
SPLINE
  5
1a2
100
AcDbEntity
  8
0
 62
7
100
AcDbSpline
 70
8
 71
3
 72
8
 73
4
 74
0
 40
0
 40
0
 40
0
 40
0
 40
1
 40
1
 40
1
 40
1
 10
418.720000
 20
269.200000
 30
0.0
 10
413.760000
 20
269.440000
 30
0.0
 10
408.400000
 20
269.120000
 30
0.0
 10
403.840000
 20
268.320000
 30
0.0
  0
SPLINE
  5
1a3
100
AcDbEntity
  8
0
 62
7
100
AcDbSpline
 70
8
 71
3
 72
8
 73
4
 74
0
 40
0
 40
0
 40
0
 40
0
 40
1
 40
1
 40
1
 40
1
 10
403.840000
 20
268.320000
 30
0.0
 10
399.920000
 20
267.680000
 30
0.0
 10
395.200000
 20
267.120000
 30
0.0
 10
393.440000
 20
267.120000
 30
0.0
  0
SPLINE
  5
1a4
100
AcDbEntity
  8
0
 62
7
100
AcDbSpline
 70
8
 71
3
 72
8
 73
4
 74
0
 40
0
 40
0
 40
0
 40
0
 40
1
 40
1
 40
1
 40
1
 10
393.440000
 20
267.120000
 30
0.0
 10
389.440000
 20
267.120000
 30
0.0
 10
388.960000
 20
266.000000
 30
0.0
 10
391.520000
 20
262.880000
 30
0.0
  0
SPLINE
  5
1a5
100
AcDbEntity
  8
0
 62
7
100
AcDbSpline
 70
8
 71
3
 72
8
 73
4
 74
0
 40
0
 40
0
 40
0
 40
0
 40
1
 40
1
 40
1
 40
1
 10
391.520000
 20
262.880000
 30
0.0
 10
395.600000
 20
258.080000
 30
0.0
 10
395.520000
 20
247.120000
 30
0.0
 10
391.440000
 20
243.360000
 30
0.0
  0
SPLINE
  5
1a6
100
AcDbEntity
  8
0
 62
7
100
AcDbSpline
 70
8
 71
3
 72
8
 73
4
 74
0
 40
0
 40
0
 40
0
 40
0
 40
1
 40
1
 40
1
 40
1
 10
391.440000
 20
243.360000
 30
0.0
 10
389.520000
 20
241.600000
 30
0.0
 10
389.040000
 20
241.520000
 30
0.0
 10
387.360000
 20
242.320000
 30
0.0
  0
SPLINE
  5
1a7
100
AcDbEntity
  8
0
 62
7
100
AcDbSpline
 70
8
 71
3
 72
8
 73
4
 74
0
 40
0
 40
0
 40
0
 40
0
 40
1
 40
1
 40
1
 40
1
 10
387.360000
 20
242.320000
 30
0.0
 10
385.680000
 20
243.120000
 30
0.0
 10
385.360000
 20
243.120000
 30
0.0
 10
384.880000
 20
241.920000
 30
0.0
  0
SPLINE
  5
1a8
100
AcDbEntity
  8
0
 62
7
100
AcDbSpline
 70
8
 71
3
 72
8
 73
4
 74
0
 40
0
 40
0
 40
0
 40
0
 40
1
 40
1
 40
1
 40
1
 10
384.880000
 20
241.920000
 30
0.0
 10
383.920000
 20
239.360000
 30
0.0
 10
382.880000
 20
238.400000
 30
0.0
 10
380.960000
 20
238.160000
 30
0.0
  0
SPLINE
  5
1a9
100
AcDbEntity
  8
0
 62
7
100
AcDbSpline
 70
8
 71
3
 72
8
 73
4
 74
0
 40
0
 40
0
 40
0
 40
0
 40
1
 40
1
 40
1
 40
1
 10
380.960000
 20
238.160000
 30
0.0
 10
378.400000
 20
237.840000
 30
0.0
 10
372.240000
 20
240.640000
 30
0.0
 10
369.840000
 20
243.200000
 30
0.0
  0
SPLINE
  5
1aa
100
AcDbEntity
  8
0
 62
7
100
AcDbSpline
 70
8
 71
3
 72
8
 73
4
 74
0
 40
0
 40
0
 40
0
 40
0
 40
1
 40
1
 40
1
 40
1
 10
369.840000
 20
243.200000
 30
0.0
 10
367.760000
 20
245.520000
 30
0.0
 10
365.760000
 20
250.720000
 30
0.0
 10
366.000000
 20
253.200000
 30
0.0
  0
SPLINE
  5
1ab
100
AcDbEntity
  8
0
 62
7
100
AcDbSpline
 70
8
 71
3
 72
8
 73
4
 74
0
 40
0
 40
0
 40
0
 40
0
 40
1
 40
1
 40
1
 40
1
 10
366.000000
 20
253.200000
 30
0.0
 10
366.400000
 20
257.200000
 30
0.0
 10
365.920000
 20
261.920000
 30
0.0
 10
365.040000
 20
261.920000
 30
0.0
  0
SPLINE
  5
1ac
100
AcDbEntity
  8
0
 62
7
100
AcDbSpline
 70
8
 71
3
 72
8
 73
4
 74
0
 40
0
 40
0
 40
0
 40
0
 40
1
 40
1
 40
1
 40
1
 10
365.040000
 20
261.920000
 30
0.0
 10
364.560000
 20
261.920000
 30
0.0
 10
364.080000
 20
261.520000
 30
0.0
 10
364.080000
 20
261.120000
 30
0.0
  0
SPLINE
  5
1ad
100
AcDbEntity
  8
0
 62
7
100
AcDbSpline
 70
8
 71
3
 72
8
 73
4
 74
0
 40
0
 40
0
 40
0
 40
0
 40
1
 40
1
 40
1
 40
1
 10
364.080000
 20
261.120000
 30
0.0
 10
364.080000
 20
259.360000
 30
0.0
 10
358.800000
 20
254.880000
 30
0.0
 10
352.080000
 20
251.120000
 30
0.0
  0
SPLINE
  5
1ae
100
AcDbEntity
  8
0
 62
7
100
AcDbSpline
 70
8
 71
3
 72
8
 73
4
 74
0
 40
0
 40
0
 40
0
 40
0
 40
1
 40
1
 40
1
 40
1
 10
352.080000
 20
251.120000
 30
0.0
 10
344.080000
 20
246.560000
 30
0.0
 10
339.920000
 20
243.440000
 30
0.0
 10
336.480000
 20
239.360000
 30
0.0
  0
SPLINE
  5
1af
100
AcDbEntity
  8
0
 62
7
100
AcDbSpline
 70
8
 71
3
 72
8
 73
4
 74
0
 40
0
 40
0
 40
0
 40
0
 40
1
 40
1
 40
1
 40
1
 10
336.480000
 20
239.360000
 30
0.0
 10
335.200000
 20
237.760000
 30
0.0
 10
333.920000
 20
236.560000
 30
0.0
 10
333.520000
 20
236.560000
 30
0.0
  0
SPLINE
  5
1b0
100
AcDbEntity
  8
0
 62
7
100
AcDbSpline
 70
8
 71
3
 72
8
 73
4
 74
0
 40
0
 40
0
 40
0
 40
0
 40
1
 40
1
 40
1
 40
1
 10
333.520000
 20
236.560000
 30
0.0
 10
333.200000
 20
236.560000
 30
0.0
 10
332.400000
 20
238.240000
 30
0.0
 10
331.680000
 20
240.400000
 30
0.0
  0
SPLINE
  5
1b1
100
AcDbEntity
  8
0
 62
7
100
AcDbSpline
 70
8
 71
3
 72
8
 73
4
 74
0
 40
0
 40
0
 40
0
 40
0
 40
1
 40
1
 40
1
 40
1
 10
331.680000
 20
240.400000
 30
0.0
 10
329.760000
 20
246.480000
 30
0.0
 10
323.760000
 20
255.360000
 30
0.0
 10
318.080000
 20
260.480000
 30
0.0
  0
LINE
  5
1b2
100
AcDbEntity
  8
0
 62
7
100
AcDbLine
 10
318.080000
 20
260.480000
 30
0.0
 11
312.880000
 21
265.120000
 31
0.0
  0
LINE
  5
1b3
100
AcDbEntity
  8
0
 62
7
100
AcDbLine
 10
312.880000
 20
265.120000
 30
0.0
 11
313.280000
 21
270.240000
 31
0.0
  0
SPLINE
  5
1b4
100
AcDbEntity
  8
0
 62
7
100
AcDbSpline
 70
8
 71
3
 72
8
 73
4
 74
0
 40
0
 40
0
 40
0
 40
0
 40
1
 40
1
 40
1
 40
1
 10
313.280000
 20
270.240000
 30
0.0
 10
313.760000
 20
275.280000
 30
0.0
 10
313.680000
 20
275.360000
 30
0.0
 10
311.360000
 20
275.840000
 30
0.0
  0
SPLINE
  5
1b5
100
AcDbEntity
  8
0
 62
7
100
AcDbSpline
 70
8
 71
3
 72
8
 73
4
 74
0
 40
0
 40
0
 40
0
 40
0
 40
1
 40
1
 40
1
 40
1
 10
311.360000
 20
275.840000
 30
0.0
 10
300.240000
 20
278.000000
 30
0.0
 10
292.960000
 20
285.280000
 30
0.0
 10
290.720000
 20
296.480000
 30
0.0
  0
SPLINE
  5
1b6
100
AcDbEntity
  8
0
 62
7
100
AcDbSpline
 70
8
 71
3
 72
8
 73
4
 74
0
 40
0
 40
0
 40
0
 40
0
 40
1
 40
1
 40
1
 40
1
 10
290.720000
 20
296.480000
 30
0.0
 10
289.760000
 20
301.280000
 30
0.0
 10
289.040000
 20
302.560000
 30
0.0
 10
288.240000
 20
300.880000
 30
0.0
  0
SPLINE
  5
1b7
100
AcDbEntity
  8
0
 62
7
100
AcDbSpline
 70
8
 71
3
 72
8
 73
4
 74
0
 40
0
 40
0
 40
0
 40
0
 40
1
 40
1
 40
1
 40
1
 10
288.240000
 20
300.880000
 30
0.0
 10
288.000000
 20
300.320000
 30
0.0
 10
286.480000
 20
298.640000
 30
0.0
 10
284.960000
 20
297.200000
 30
0.0
  0
SPLINE
  5
1b8
100
AcDbEntity
  8
0
 62
7
100
AcDbSpline
 70
8
 71
3
 72
8
 73
4
 74
0
 40
0
 40
0
 40
0
 40
0
 40
1
 40
1
 40
1
 40
1
 10
284.960000
 20
297.200000
 30
0.0
 10
282.080000
 20
294.640000
 30
0.0
 10
282.080000
 20
294.640000
 30
0.0
 10
275.440000
 20
294.880000
 30
0.0
  0
SPLINE
  5
1b9
100
AcDbEntity
  8
0
 62
7
100
AcDbSpline
 70
8
 71
3
 72
8
 73
4
 74
0
 40
0
 40
0
 40
0
 40
0
 40
1
 40
1
 40
1
 40
1
 10
275.440000
 20
294.880000
 30
0.0
 10
269.280000
 20
295.120000
 30
0.0
 10
268.400000
 20
295.360000
 30
0.0
 10
263.760000
 20
298.320000
 30
0.0
  0
SPLINE
  5
1ba
100
AcDbEntity
  8
0
 62
7
100
AcDbSpline
 70
8
 71
3
 72
8
 73
4
 74
0
 40
0
 40
0
 40
0
 40
0
 40
1
 40
1
 40
1
 40
1
 10
263.760000
 20
298.320000
 30
0.0
 10
260.560000
 20
300.240000
 30
0.0
 10
257.360000
 20
303.280000
 30
0.0
 10
255.120000
 20
306.160000
 30
0.0
  0
SPLINE
  5
1bb
100
AcDbEntity
  8
0
 62
7
100
AcDbSpline
 70
8
 71
3
 72
8
 73
4
 74
0
 40
0
 40
0
 40
0
 40
0
 40
1
 40
1
 40
1
 40
1
 10
255.120000
 20
306.160000
 30
0.0
 10
253.200000
 20
308.720000
 30
0.0
 10
250.400000
 20
312.480000
 30
0.0
 10
248.880000
 20
314.560000
 30
0.0
  0
SPLINE
  5
1bc
100
AcDbEntity
  8
0
 62
7
100
AcDbSpline
 70
8
 71
3
 72
8
 73
4
 74
0
 40
0
 40
0
 40
0
 40
0
 40
1
 40
1
 40
1
 40
1
 10
248.880000
 20
314.560000
 30
0.0
 10
242.240000
 20
323.440000
 30
0.0
 10
232.880000
 20
327.680000
 30
0.0
 10
227.200000
 20
324.320000
 30
0.0
  0
SPLINE
  5
1bd
100
AcDbEntity
  8
0
 62
7
100
AcDbSpline
 70
8
 71
3
 72
8
 73
4
 74
0
 40
0
 40
0
 40
0
 40
0
 40
1
 40
1
 40
1
 40
1
 10
227.200000
 20
324.320000
 30
0.0
 10
225.680000
 20
323.440000
 30
0.0
 10
225.600000
 20
322.960000
 30
0.0
 10
226.480000
 20
321.840000
 30
0.0
  0
SPLINE
  5
1be
100
AcDbEntity
  8
0
 62
7
100
AcDbSpline
 70
8
 71
3
 72
8
 73
4
 74
0
 40
0
 40
0
 40
0
 40
0
 40
1
 40
1
 40
1
 40
1
 10
226.480000
 20
321.840000
 30
0.0
 10
227.840000
 20
320.000000
 30
0.0
 10
233.600000
 20
302.560000
 30
0.0
 10
236.000000
 20
292.880000
 30
0.0
  0
SPLINE
  5
1bf
100
AcDbEntity
  8
0
 62
7
100
AcDbSpline
 70
8
 71
3
 72
8
 73
4
 74
0
 40
0
 40
0
 40
0
 40
0
 40
1
 40
1
 40
1
 40
1
 10
236.000000
 20
292.880000
 30
0.0
 10
237.040000
 20
288.800000
 30
0.0
 10
238.720000
 20
283.280000
 30
0.0
 10
239.760000
 20
280.560000
 30
0.0
  0
SPLINE
  5
1c0
100
AcDbEntity
  8
0
 62
7
100
AcDbSpline
 70
8
 71
3
 72
8
 73
4
 74
0
 40
0
 40
0
 40
0
 40
0
 40
1
 40
1
 40
1
 40
1
 10
239.760000
 20
280.560000
 30
0.0
 10
243.680000
 20
270.560000
 30
0.0
 10
243.120000
 20
263.520000
 30
0.0
 10
238.160000
 20
260.400000
 30
0.0
  0
SPLINE
  5
1c1
100
AcDbEntity
  8
0
 62
7
100
AcDbSpline
 70
8
 71
3
 72
8
 73
4
 74
0
 40
0
 40
0
 40
0
 40
0
 40
1
 40
1
 40
1
 40
1
 10
238.160000
 20
260.400000
 30
0.0
 10
233.440000
 20
257.440000
 30
0.0
 10
220.480000
 20
258.640000
 30
0.0
 10
205.520000
 20
263.440000
 30
0.0
  0
SPLINE
  5
1c2
100
AcDbEntity
  8
0
 62
7
100
AcDbSpline
 70
8
 71
3
 72
8
 73
4
 74
0
 40
0
 40
0
 40
0
 40
0
 40
1
 40
1
 40
1
 40
1
 10
205.520000
 20
263.440000
 30
0.0
 10
195.520000
 20
266.720000
 30
0.0
 10
186.480000
 20
268.560000
 30
0.0
 10
178.960000
 20
269.040000
 30
0.0
  0
SPLINE
  5
1c3
100
AcDbEntity
  8
0
 62
7
100
AcDbSpline
 70
8
 71
3
 72
8
 73
4
 74
0
 40
0
 40
0
 40
0
 40
0
 40
1
 40
1
 40
1
 40
1
 10
178.960000
 20
269.040000
 30
0.0
 10
170.720000
 20
269.600000
 30
0.0
 10
169.360000
 20
268.960000
 30
0.0
 10
171.360000
 20
265.520000
 30
0.0
  0
SPLINE
  5
1c4
100
AcDbEntity
  8
0
 62
7
100
AcDbSpline
 70
8
 71
3
 72
8
 73
4
 74
0
 40
0
 40
0
 40
0
 40
0
 40
1
 40
1
 40
1
 40
1
 10
171.360000
 20
265.520000
 30
0.0
 10
172.160000
 20
264.160000
 30
0.0
 10
178.720000
 20
253.280000
 30
0.0
 10
186.000000
 20
241.360000
 30
0.0
  0
SPLINE
  5
1c5
100
AcDbEntity
  8
0
 62
7
100
AcDbSpline
 70
8
 71
3
 72
8
 73
4
 74
0
 40
0
 40
0
 40
0
 40
0
 40
1
 40
1
 40
1
 40
1
 10
186.000000
 20
241.360000
 30
0.0
 10
202.480000
 20
214.160000
 30
0.0
 10
208.320000
 20
204.240000
 30
0.0
 10
208.000000
 20
204.080000
 30
0.0
  0
SPLINE
  5
1c6
100
AcDbEntity
  8
0
 62
7
100
AcDbSpline
 70
8
 71
3
 72
8
 73
4
 74
0
 40
0
 40
0
 40
0
 40
0
 40
1
 40
1
 40
1
 40
1
 10
208.000000
 20
204.080000
 30
0.0
 10
207.840000
 20
204.000000
 30
0.0
 10
204.640000
 20
205.840000
 30
0.0
 10
200.800000
 20
208.320000
 30
0.0
  0
LINE
  5
1c7
100
AcDbEntity
  8
0
 62
7
100
AcDbLine
 10
200.800000
 20
208.320000
 30
0.0
 11
200.800000
 21
208.320000
 31
0.0
  0
SPLINE
  5
1c8
100
AcDbEntity
  8
0
 62
7
100
AcDbSpline
 70
8
 71
3
 72
8
 73
4
 74
0
 40
0
 40
0
 40
0
 40
0
 40
1
 40
1
 40
1
 40
1
 10
68.000000
 20
69.680000
 30
0.0
 10
71.200000
 20
68.720000
 30
0.0
 10
73.600000
 20
67.120000
 30
0.0
 10
75.200000
 20
64.880000
 30
0.0
  0
SPLINE
  5
1c9
100
AcDbEntity
  8
0
 62
7
100
AcDbSpline
 70
8
 71
3
 72
8
 73
4
 74
0
 40
0
 40
0
 40
0
 40
0
 40
1
 40
1
 40
1
 40
1
 10
75.200000
 20
64.880000
 30
0.0
 10
76.880000
 20
62.640000
 30
0.0
 10
77.680000
 20
60.160000
 30
0.0
 10
77.680000
 20
57.280000
 30
0.0
  0
SPLINE
  5
1ca
100
AcDbEntity
  8
0
 62
7
100
AcDbSpline
 70
8
 71
3
 72
8
 73
4
 74
0
 40
0
 40
0
 40
0
 40
0
 40
1
 40
1
 40
1
 40
1
 10
77.680000
 20
57.280000
 30
0.0
 10
77.680000
 20
54.400000
 30
0.0
 10
76.880000
 20
51.680000
 30
0.0
 10
75.440000
 20
49.280000
 30
0.0
  0
SPLINE
  5
1cb
100
AcDbEntity
  8
0
 62
7
100
AcDbSpline
 70
8
 71
3
 72
8
 73
4
 74
0
 40
0
 40
0
 40
0
 40
0
 40
1
 40
1
 40
1
 40
1
 10
75.440000
 20
49.280000
 30
0.0
 10
74.000000
 20
46.880000
 30
0.0
 10
71.920000
 20
45.120000
 30
0.0
 10
69.280000
 20
44.000000
 30
0.0
  0
SPLINE
  5
1cc
100
AcDbEntity
  8
0
 62
7
100
AcDbSpline
 70
8
 71
3
 72
8
 73
4
 74
0
 40
0
 40
0
 40
0
 40
0
 40
1
 40
1
 40
1
 40
1
 10
69.280000
 20
44.000000
 30
0.0
 10
66.640000
 20
42.800000
 30
0.0
 10
62.960000
 20
42.240000
 30
0.0
 10
58.400000
 20
42.240000
 30
0.0
  0
LINE
  5
1cd
100
AcDbEntity
  8
0
 62
7
100
AcDbLine
 10
58.400000
 20
42.240000
 30
0.0
 11
38.720000
 21
42.240000
 31
0.0
  0
LINE
  5
1ce
100
AcDbEntity
  8
0
 62
7
100
AcDbLine
 10
38.720000
 20
42.240000
 30
0.0
 11
38.720000
 21
93.840000
 31
0.0
  0
LINE
  5
1cf
100
AcDbEntity
  8
0
 62
7
100
AcDbLine
 10
38.720000
 20
93.840000
 30
0.0
 11
58.000000
 21
93.840000
 31
0.0
  0
SPLINE
  5
1d0
100
AcDbEntity
  8
0
 62
7
100
AcDbSpline
 70
8
 71
3
 72
8
 73
4
 74
0
 40
0
 40
0
 40
0
 40
0
 40
1
 40
1
 40
1
 40
1
 10
58.000000
 20
93.840000
 30
0.0
 10
64.320000
 20
93.840000
 30
0.0
 10
68.720000
 20
92.480000
 30
0.0
 10
71.280000
 20
89.760000
 30
0.0
  0
SPLINE
  5
1d1
100
AcDbEntity
  8
0
 62
7
100
AcDbSpline
 70
8
 71
3
 72
8
 73
4
 74
0
 40
0
 40
0
 40
0
 40
0
 40
1
 40
1
 40
1
 40
1
 10
71.280000
 20
89.760000
 30
0.0
 10
73.840000
 20
87.040000
 30
0.0
 10
75.120000
 20
84.000000
 30
0.0
 10
75.120000
 20
80.640000
 30
0.0
  0
SPLINE
  5
1d2
100
AcDbEntity
  8
0
 62
7
100
AcDbSpline
 70
8
 71
3
 72
8
 73
4
 74
0
 40
0
 40
0
 40
0
 40
0
 40
1
 40
1
 40
1
 40
1
 10
75.120000
 20
80.640000
 30
0.0
 10
75.120000
 20
78.400000
 30
0.0
 10
74.480000
 20
76.320000
 30
0.0
 10
73.360000
 20
74.400000
 30
0.0
  0
SPLINE
  5
1d3
100
AcDbEntity
  8
0
 62
7
100
AcDbSpline
 70
8
 71
3
 72
8
 73
4
 74
0
 40
0
 40
0
 40
0
 40
0
 40
1
 40
1
 40
1
 40
1
 10
73.360000
 20
74.400000
 30
0.0
 10
72.160000
 20
72.480000
 30
0.0
 10
70.400000
 20
70.960000
 30
0.0
 10
68.000000
 20
69.680000
 30
0.0
  0
LINE
  5
1d4
100
AcDbEntity
  8
0
 62
7
100
AcDbLine
 10
68.000000
 20
69.680000
 30
0.0
 11
68.000000
 21
69.680000
 31
0.0
  0
LINE
  5
1d5
100
AcDbEntity
  8
0
 62
7
100
AcDbLine
 10
45.520000
 20
72.240000
 30
0.0
 11
56.720000
 21
72.240000
 31
0.0
  0
SPLINE
  5
1d6
100
AcDbEntity
  8
0
 62
7
100
AcDbSpline
 70
8
 71
3
 72
8
 73
4
 74
0
 40
0
 40
0
 40
0
 40
0
 40
1
 40
1
 40
1
 40
1
 10
56.720000
 20
72.240000
 30
0.0
 10
58.960000
 20
72.240000
 30
0.0
 10
60.880000
 20
72.320000
 30
0.0
 10
62.480000
 20
72.640000
 30
0.0
  0
SPLINE
  5
1d7
100
AcDbEntity
  8
0
 62
7
100
AcDbSpline
 70
8
 71
3
 72
8
 73
4
 74
0
 40
0
 40
0
 40
0
 40
0
 40
1
 40
1
 40
1
 40
1
 10
62.480000
 20
72.640000
 30
0.0
 10
64.000000
 20
72.880000
 30
0.0
 10
65.440000
 20
73.520000
 30
0.0
 10
66.640000
 20
74.640000
 30
0.0
  0
SPLINE
  5
1d8
100
AcDbEntity
  8
0
 62
7
100
AcDbSpline
 70
8
 71
3
 72
8
 73
4
 74
0
 40
0
 40
0
 40
0
 40
0
 40
1
 40
1
 40
1
 40
1
 10
66.640000
 20
74.640000
 30
0.0
 10
67.760000
 20
75.760000
 30
0.0
 10
68.400000
 20
77.440000
 30
0.0
 10
68.400000
 20
79.760000
 30
0.0
  0
SPLINE
  5
1d9
100
AcDbEntity
  8
0
 62
7
100
AcDbSpline
 70
8
 71
3
 72
8
 73
4
 74
0
 40
0
 40
0
 40
0
 40
0
 40
1
 40
1
 40
1
 40
1
 10
68.400000
 20
79.760000
 30
0.0
 10
68.400000
 20
82.240000
 30
0.0
 10
67.760000
 20
84.000000
 30
0.0
 10
66.560000
 20
85.200000
 30
0.0
  0
SPLINE
  5
1da
100
AcDbEntity
  8
0
 62
7
100
AcDbSpline
 70
8
 71
3
 72
8
 73
4
 74
0
 40
0
 40
0
 40
0
 40
0
 40
1
 40
1
 40
1
 40
1
 10
66.560000
 20
85.200000
 30
0.0
 10
65.360000
 20
86.320000
 30
0.0
 10
63.920000
 20
87.040000
 30
0.0
 10
62.240000
 20
87.280000
 30
0.0
  0
SPLINE
  5
1db
100
AcDbEntity
  8
0
 62
7
100
AcDbSpline
 70
8
 71
3
 72
8
 73
4
 74
0
 40
0
 40
0
 40
0
 40
0
 40
1
 40
1
 40
1
 40
1
 10
62.240000
 20
87.280000
 30
0.0
 10
60.560000
 20
87.600000
 30
0.0
 10
58.400000
 20
87.680000
 30
0.0
 10
55.840000
 20
87.680000
 30
0.0
  0
LINE
  5
1dc
100
AcDbEntity
  8
0
 62
7
100
AcDbLine
 10
55.840000
 20
87.680000
 30
0.0
 11
45.520000
 21
87.680000
 31
0.0
  0
LINE
  5
1dd
100
AcDbEntity
  8
0
 62
7
100
AcDbLine
 10
45.520000
 20
87.680000
 30
0.0
 11
45.520000
 21
72.240000
 31
0.0
  0
LINE
  5
1de
100
AcDbEntity
  8
0
 62
7
100
AcDbLine
 10
45.520000
 20
72.240000
 30
0.0
 11
45.520000
 21
72.240000
 31
0.0
  0
LINE
  5
1df
100
AcDbEntity
  8
0
 62
7
100
AcDbLine
 10
45.520000
 20
48.400000
 30
0.0
 11
58.320000
 21
48.400000
 31
0.0
  0
SPLINE
  5
1e0
100
AcDbEntity
  8
0
 62
7
100
AcDbSpline
 70
8
 71
3
 72
8
 73
4
 74
0
 40
0
 40
0
 40
0
 40
0
 40
1
 40
1
 40
1
 40
1
 10
58.320000
 20
48.400000
 30
0.0
 10
62.960000
 20
48.400000
 30
0.0
 10
66.160000
 20
49.200000
 30
0.0
 10
67.920000
 20
50.720000
 30
0.0
  0
SPLINE
  5
1e1
100
AcDbEntity
  8
0
 62
7
100
AcDbSpline
 70
8
 71
3
 72
8
 73
4
 74
0
 40
0
 40
0
 40
0
 40
0
 40
1
 40
1
 40
1
 40
1
 10
67.920000
 20
50.720000
 30
0.0
 10
69.680000
 20
52.320000
 30
0.0
 10
70.560000
 20
54.480000
 30
0.0
 10
70.560000
 20
57.280000
 30
0.0
  0
SPLINE
  5
1e2
100
AcDbEntity
  8
0
 62
7
100
AcDbSpline
 70
8
 71
3
 72
8
 73
4
 74
0
 40
0
 40
0
 40
0
 40
0
 40
1
 40
1
 40
1
 40
1
 10
70.560000
 20
57.280000
 30
0.0
 10
70.560000
 20
60.000000
 30
0.0
 10
69.600000
 20
62.240000
 30
0.0
 10
67.760000
 20
63.760000
 30
0.0
  0
SPLINE
  5
1e3
100
AcDbEntity
  8
0
 62
7
100
AcDbSpline
 70
8
 71
3
 72
8
 73
4
 74
0
 40
0
 40
0
 40
0
 40
0
 40
1
 40
1
 40
1
 40
1
 10
67.760000
 20
63.760000
 30
0.0
 10
65.840000
 20
65.360000
 30
0.0
 10
62.400000
 20
66.080000
 30
0.0
 10
57.440000
 20
66.080000
 30
0.0
  0
LINE
  5
1e4
100
AcDbEntity
  8
0
 62
7
100
AcDbLine
 10
57.440000
 20
66.080000
 30
0.0
 11
45.520000
 21
66.080000
 31
0.0
  0
LINE
  5
1e5
100
AcDbEntity
  8
0
 62
7
100
AcDbLine
 10
45.520000
 20
66.080000
 30
0.0
 11
45.520000
 21
48.400000
 31
0.0
  0
LINE
  5
1e6
100
AcDbEntity
  8
0
 62
7
100
AcDbLine
 10
45.520000
 20
48.400000
 30
0.0
 11
45.520000
 21
48.400000
 31
0.0
  0
LINE
  5
1e7
100
AcDbEntity
  8
0
 62
7
100
AcDbLine
 10
92.480000
 20
42.240000
 30
0.0
 11
86.160000
 21
42.240000
 31
0.0
  0
LINE
  5
1e8
100
AcDbEntity
  8
0
 62
7
100
AcDbLine
 10
86.160000
 20
42.240000
 30
0.0
 11
86.160000
 21
79.600000
 31
0.0
  0
LINE
  5
1e9
100
AcDbEntity
  8
0
 62
7
100
AcDbLine
 10
86.160000
 20
79.600000
 30
0.0
 11
92.480000
 21
79.600000
 31
0.0
  0
LINE
  5
1ea
100
AcDbEntity
  8
0
 62
7
100
AcDbLine
 10
92.480000
 20
79.600000
 30
0.0
 11
92.480000
 21
42.240000
 31
0.0
  0
LINE
  5
1eb
100
AcDbEntity
  8
0
 62
7
100
AcDbLine
 10
92.480000
 20
42.240000
 30
0.0
 11
92.480000
 21
42.240000
 31
0.0
  0
LINE
  5
1ec
100
AcDbEntity
  8
0
 62
7
100
AcDbLine
 10
92.480000
 20
86.640000
 30
0.0
 11
86.160000
 21
86.640000
 31
0.0
  0
LINE
  5
1ed
100
AcDbEntity
  8
0
 62
7
100
AcDbLine
 10
86.160000
 20
86.640000
 30
0.0
 11
86.160000
 21
93.840000
 31
0.0
  0
LINE
  5
1ee
100
AcDbEntity
  8
0
 62
7
100
AcDbLine
 10
86.160000
 20
93.840000
 30
0.0
 11
92.480000
 21
93.840000
 31
0.0
  0
LINE
  5
1ef
100
AcDbEntity
  8
0
 62
7
100
AcDbLine
 10
92.480000
 20
93.840000
 30
0.0
 11
92.480000
 21
86.640000
 31
0.0
  0
LINE
  5
1f0
100
AcDbEntity
  8
0
 62
7
100
AcDbLine
 10
92.480000
 20
86.640000
 30
0.0
 11
92.480000
 21
86.640000
 31
0.0
  0
SPLINE
  5
1f1
100
AcDbEntity
  8
0
 62
7
100
AcDbSpline
 70
8
 71
3
 72
8
 73
4
 74
0
 40
0
 40
0
 40
0
 40
0
 40
1
 40
1
 40
1
 40
1
 10
122.960000
 20
69.120000
 30
0.0
 10
122.720000
 20
71.200000
 30
0.0
 10
121.920000
 20
72.720000
 30
0.0
 10
120.480000
 20
73.680000
 30
0.0
  0
SPLINE
  5
1f2
100
AcDbEntity
  8
0
 62
7
100
AcDbSpline
 70
8
 71
3
 72
8
 73
4
 74
0
 40
0
 40
0
 40
0
 40
0
 40
1
 40
1
 40
1
 40
1
 10
120.480000
 20
73.680000
 30
0.0
 10
119.120000
 20
74.720000
 30
0.0
 10
117.280000
 20
75.280000
 30
0.0
 10
114.800000
 20
75.280000
 30
0.0
  0
SPLINE
  5
1f3
100
AcDbEntity
  8
0
 62
7
100
AcDbSpline
 70
8
 71
3
 72
8
 73
4
 74
0
 40
0
 40
0
 40
0
 40
0
 40
1
 40
1
 40
1
 40
1
 10
114.800000
 20
75.280000
 30
0.0
 10
112.400000
 20
75.280000
 30
0.0
 10
110.400000
 20
74.800000
 30
0.0
 10
108.960000
 20
74.000000
 30
0.0
  0
SPLINE
  5
1f4
100
AcDbEntity
  8
0
 62
7
100
AcDbSpline
 70
8
 71
3
 72
8
 73
4
 74
0
 40
0
 40
0
 40
0
 40
0
 40
1
 40
1
 40
1
 40
1
 10
108.960000
 20
74.000000
 30
0.0
 10
107.440000
 20
73.200000
 30
0.0
 10
106.720000
 20
72.000000
 30
0.0
 10
106.720000
 20
70.400000
 30
0.0
  0
SPLINE
  5
1f5
100
AcDbEntity
  8
0
 62
7
100
AcDbSpline
 70
8
 71
3
 72
8
 73
4
 74
0
 40
0
 40
0
 40
0
 40
0
 40
1
 40
1
 40
1
 40
1
 10
106.720000
 20
70.400000
 30
0.0
 10
106.720000
 20
68.960000
 30
0.0
 10
107.280000
 20
67.920000
 30
0.0
 10
108.480000
 20
67.280000
 30
0.0
  0
SPLINE
  5
1f6
100
AcDbEntity
  8
0
 62
7
100
AcDbSpline
 70
8
 71
3
 72
8
 73
4
 74
0
 40
0
 40
0
 40
0
 40
0
 40
1
 40
1
 40
1
 40
1
 10
108.480000
 20
67.280000
 30
0.0
 10
109.680000
 20
66.640000
 30
0.0
 10
112.000000
 20
65.840000
 30
0.0
 10
115.520000
 20
64.960000
 30
0.0
  0
SPLINE
  5
1f7
100
AcDbEntity
  8
0
 62
7
100
AcDbSpline
 70
8
 71
3
 72
8
 73
4
 74
0
 40
0
 40
0
 40
0
 40
0
 40
1
 40
1
 40
1
 40
1
 10
115.520000
 20
64.960000
 30
0.0
 10
119.440000
 20
63.920000
 30
0.0
 10
122.400000
 20
63.040000
 30
0.0
 10
124.320000
 20
62.240000
 30
0.0
  0
SPLINE
  5
1f8
100
AcDbEntity
  8
0
 62
7
100
AcDbSpline
 70
8
 71
3
 72
8
 73
4
 74
0
 40
0
 40
0
 40
0
 40
0
 40
1
 40
1
 40
1
 40
1
 10
124.320000
 20
62.240000
 30
0.0
 10
126.320000
 20
61.520000
 30
0.0
 10
127.840000
 20
60.400000
 30
0.0
 10
128.880000
 20
59.040000
 30
0.0
  0
SPLINE
  5
1f9
100
AcDbEntity
  8
0
 62
7
100
AcDbSpline
 70
8
 71
3
 72
8
 73
4
 74
0
 40
0
 40
0
 40
0
 40
0
 40
1
 40
1
 40
1
 40
1
 10
128.880000
 20
59.040000
 30
0.0
 10
130.000000
 20
57.600000
 30
0.0
 10
130.560000
 20
55.680000
 30
0.0
 10
130.560000
 20
53.200000
 30
0.0
  0
SPLINE
  5
1fa
100
AcDbEntity
  8
0
 62
7
100
AcDbSpline
 70
8
 71
3
 72
8
 73
4
 74
0
 40
0
 40
0
 40
0
 40
0
 40
1
 40
1
 40
1
 40
1
 10
130.560000
 20
53.200000
 30
0.0
 10
130.560000
 20
49.840000
 30
0.0
 10
129.200000
 20
47.040000
 30
0.0
 10
126.480000
 20
44.800000
 30
0.0
  0
SPLINE
  5
1fb
100
AcDbEntity
  8
0
 62
7
100
AcDbSpline
 70
8
 71
3
 72
8
 73
4
 74
0
 40
0
 40
0
 40
0
 40
0
 40
1
 40
1
 40
1
 40
1
 10
126.480000
 20
44.800000
 30
0.0
 10
123.760000
 20
42.560000
 30
0.0
 10
120.160000
 20
41.360000
 30
0.0
 10
115.600000
 20
41.360000
 30
0.0
  0
SPLINE
  5
1fc
100
AcDbEntity
  8
0
 62
7
100
AcDbSpline
 70
8
 71
3
 72
8
 73
4
 74
0
 40
0
 40
0
 40
0
 40
0
 40
1
 40
1
 40
1
 40
1
 10
115.600000
 20
41.360000
 30
0.0
 10
110.880000
 20
41.360000
 30
0.0
 10
107.120000
 20
42.400000
 30
0.0
 10
104.480000
 20
44.400000
 30
0.0
  0
SPLINE
  5
1fd
100
AcDbEntity
  8
0
 62
7
100
AcDbSpline
 70
8
 71
3
 72
8
 73
4
 74
0
 40
0
 40
0
 40
0
 40
0
 40
1
 40
1
 40
1
 40
1
 10
104.480000
 20
44.400000
 30
0.0
 10
101.840000
 20
46.400000
 30
0.0
 10
100.160000
 20
49.440000
 30
0.0
 10
99.600000
 20
53.440000
 30
0.0
  0
LINE
  5
1fe
100
AcDbEntity
  8
0
 62
7
100
AcDbLine
 10
99.600000
 20
53.440000
 30
0.0
 11
105.840000
 21
54.400000
 31
0.0
  0
SPLINE
  5
1ff
100
AcDbEntity
  8
0
 62
7
100
AcDbSpline
 70
8
 71
3
 72
8
 73
4
 74
0
 40
0
 40
0
 40
0
 40
0
 40
1
 40
1
 40
1
 40
1
 10
105.840000
 20
54.400000
 30
0.0
 10
106.240000
 20
51.760000
 30
0.0
 10
107.200000
 20
49.840000
 30
0.0
 10
108.800000
 20
48.560000
 30
0.0
  0
SPLINE
  5
200
100
AcDbEntity
  8
0
 62
7
100
AcDbSpline
 70
8
 71
3
 72
8
 73
4
 74
0
 40
0
 40
0
 40
0
 40
0
 40
1
 40
1
 40
1
 40
1
 10
108.800000
 20
48.560000
 30
0.0
 10
110.400000
 20
47.280000
 30
0.0
 10
112.640000
 20
46.560000
 30
0.0
 10
115.520000
 20
46.560000
 30
0.0
  0
SPLINE
  5
201
100
AcDbEntity
  8
0
 62
7
100
AcDbSpline
 70
8
 71
3
 72
8
 73
4
 74
0
 40
0
 40
0
 40
0
 40
0
 40
1
 40
1
 40
1
 40
1
 10
115.520000
 20
46.560000
 30
0.0
 10
118.240000
 20
46.560000
 30
0.0
 10
120.400000
 20
47.200000
 30
0.0
 10
121.840000
 20
48.320000
 30
0.0
  0
SPLINE
  5
202
100
AcDbEntity
  8
0
 62
7
100
AcDbSpline
 70
8
 71
3
 72
8
 73
4
 74
0
 40
0
 40
0
 40
0
 40
0
 40
1
 40
1
 40
1
 40
1
 10
121.840000
 20
48.320000
 30
0.0
 10
123.360000
 20
49.520000
 30
0.0
 10
124.080000
 20
50.880000
 30
0.0
 10
124.080000
 20
52.560000
 30
0.0
  0
SPLINE
  5
203
100
AcDbEntity
  8
0
 62
7
100
AcDbSpline
 70
8
 71
3
 72
8
 73
4
 74
0
 40
0
 40
0
 40
0
 40
0
 40
1
 40
1
 40
1
 40
1
 10
124.080000
 20
52.560000
 30
0.0
 10
124.080000
 20
53.680000
 30
0.0
 10
123.760000
 20
54.560000
 30
0.0
 10
123.040000
 20
55.280000
 30
0.0
  0
SPLINE
  5
204
100
AcDbEntity
  8
0
 62
7
100
AcDbSpline
 70
8
 71
3
 72
8
 73
4
 74
0
 40
0
 40
0
 40
0
 40
0
 40
1
 40
1
 40
1
 40
1
 10
123.040000
 20
55.280000
 30
0.0
 10
122.400000
 20
55.920000
 30
0.0
 10
121.520000
 20
56.480000
 30
0.0
 10
120.480000
 20
56.800000
 30
0.0
  0
SPLINE
  5
205
100
AcDbEntity
  8
0
 62
7
100
AcDbSpline
 70
8
 71
3
 72
8
 73
4
 74
0
 40
0
 40
0
 40
0
 40
0
 40
1
 40
1
 40
1
 40
1
 10
120.480000
 20
56.800000
 30
0.0
 10
119.520000
 20
57.120000
 30
0.0
 10
117.200000
 20
57.760000
 30
0.0
 10
113.680000
 20
58.640000
 30
0.0
  0
SPLINE
  5
206
100
AcDbEntity
  8
0
 62
7
100
AcDbSpline
 70
8
 71
3
 72
8
 73
4
 74
0
 40
0
 40
0
 40
0
 40
0
 40
1
 40
1
 40
1
 40
1
 10
113.680000
 20
58.640000
 30
0.0
 10
108.320000
 20
59.920000
 30
0.0
 10
104.880000
 20
61.440000
 30
0.0
 10
103.120000
 20
63.200000
 30
0.0
  0
SPLINE
  5
207
100
AcDbEntity
  8
0
 62
7
100
AcDbSpline
 70
8
 71
3
 72
8
 73
4
 74
0
 40
0
 40
0
 40
0
 40
0
 40
1
 40
1
 40
1
 40
1
 10
103.120000
 20
63.200000
 30
0.0
 10
101.440000
 20
65.040000
 30
0.0
 10
100.560000
 20
67.200000
 30
0.0
 10
100.560000
 20
69.680000
 30
0.0
  0
SPLINE
  5
208
100
AcDbEntity
  8
0
 62
7
100
AcDbSpline
 70
8
 71
3
 72
8
 73
4
 74
0
 40
0
 40
0
 40
0
 40
0
 40
1
 40
1
 40
1
 40
1
 10
100.560000
 20
69.680000
 30
0.0
 10
100.560000
 20
72.800000
 30
0.0
 10
101.840000
 20
75.360000
 30
0.0
 10
104.320000
 20
77.360000
 30
0.0
  0
SPLINE
  5
209
100
AcDbEntity
  8
0
 62
7
100
AcDbSpline
 70
8
 71
3
 72
8
 73
4
 74
0
 40
0
 40
0
 40
0
 40
0
 40
1
 40
1
 40
1
 40
1
 10
104.320000
 20
77.360000
 30
0.0
 10
106.800000
 20
79.440000
 30
0.0
 10
110.160000
 20
80.400000
 30
0.0
 10
114.320000
 20
80.400000
 30
0.0
  0
SPLINE
  5
20a
100
AcDbEntity
  8
0
 62
7
100
AcDbSpline
 70
8
 71
3
 72
8
 73
4
 74
0
 40
0
 40
0
 40
0
 40
0
 40
1
 40
1
 40
1
 40
1
 10
114.320000
 20
80.400000
 30
0.0
 10
118.800000
 20
80.400000
 30
0.0
 10
122.240000
 20
79.520000
 30
0.0
 10
124.720000
 20
77.760000
 30
0.0
  0
SPLINE
  5
20b
100
AcDbEntity
  8
0
 62
7
100
AcDbSpline
 70
8
 71
3
 72
8
 73
4
 74
0
 40
0
 40
0
 40
0
 40
0
 40
1
 40
1
 40
1
 40
1
 10
124.720000
 20
77.760000
 30
0.0
 10
127.200000
 20
76.080000
 30
0.0
 10
128.720000
 20
73.440000
 30
0.0
 10
129.200000
 20
70.000000
 30
0.0
  0
LINE
  5
20c
100
AcDbEntity
  8
0
 62
7
100
AcDbLine
 10
129.200000
 20
70.000000
 30
0.0
 11
122.960000
 21
69.120000
 31
0.0
  0
LINE
  5
20d
100
AcDbEntity
  8
0
 62
7
100
AcDbLine
 10
122.960000
 20
69.120000
 30
0.0
 11
122.960000
 21
69.120000
 31
0.0
  0
SPLINE
  5
20e
100
AcDbEntity
  8
0
 62
7
100
AcDbSpline
 70
8
 71
3
 72
8
 73
4
 74
0
 40
0
 40
0
 40
0
 40
0
 40
1
 40
1
 40
1
 40
1
 10
152.720000
 20
42.320000
 30
0.0
 10
150.880000
 20
42.000000
 30
0.0
 10
149.280000
 20
41.760000
 30
0.0
 10
148.000000
 20
41.760000
 30
0.0
  0
SPLINE
  5
20f
100
AcDbEntity
  8
0
 62
7
100
AcDbSpline
 70
8
 71
3
 72
8
 73
4
 74
0
 40
0
 40
0
 40
0
 40
0
 40
1
 40
1
 40
1
 40
1
 10
148.000000
 20
41.760000
 30
0.0
 10
145.200000
 20
41.760000
 30
0.0
 10
143.200000
 20
42.240000
 30
0.0
 10
141.920000
 20
43.200000
 30
0.0
  0
SPLINE
  5
210
100
AcDbEntity
  8
0
 62
7
100
AcDbSpline
 70
8
 71
3
 72
8
 73
4
 74
0
 40
0
 40
0
 40
0
 40
0
 40
1
 40
1
 40
1
 40
1
 10
141.920000
 20
43.200000
 30
0.0
 10
140.640000
 20
44.240000
 30
0.0
 10
139.920000
 20
45.440000
 30
0.0
 10
139.600000
 20
46.960000
 30
0.0
  0
SPLINE
  5
211
100
AcDbEntity
  8
0
 62
7
100
AcDbSpline
 70
8
 71
3
 72
8
 73
4
 74
0
 40
0
 40
0
 40
0
 40
0
 40
1
 40
1
 40
1
 40
1
 10
139.600000
 20
46.960000
 30
0.0
 10
139.360000
 20
48.480000
 30
0.0
 10
139.200000
 20
50.560000
 30
0.0
 10
139.200000
 20
53.200000
 30
0.0
  0
LINE
  5
212
100
AcDbEntity
  8
0
 62
7
100
AcDbLine
 10
139.200000
 20
53.200000
 30
0.0
 11
139.200000
 21
74.720000
 31
0.0
  0
LINE
  5
213
100
AcDbEntity
  8
0
 62
7
100
AcDbLine
 10
139.200000
 20
74.720000
 30
0.0
 11
134.560000
 21
74.720000
 31
0.0
  0
LINE
  5
214
100
AcDbEntity
  8
0
 62
7
100
AcDbLine
 10
134.560000
 20
74.720000
 30
0.0
 11
134.560000
 21
79.600000
 31
0.0
  0
LINE
  5
215
100
AcDbEntity
  8
0
 62
7
100
AcDbLine
 10
134.560000
 20
79.600000
 30
0.0
 11
139.200000
 21
79.600000
 31
0.0
  0
LINE
  5
216
100
AcDbEntity
  8
0
 62
7
100
AcDbLine
 10
139.200000
 20
79.600000
 30
0.0
 11
139.200000
 21
88.880000
 31
0.0
  0
LINE
  5
217
100
AcDbEntity
  8
0
 62
7
100
AcDbLine
 10
139.200000
 20
88.880000
 30
0.0
 11
145.520000
 21
92.720000
 31
0.0
  0
LINE
  5
218
100
AcDbEntity
  8
0
 62
7
100
AcDbLine
 10
145.520000
 20
92.720000
 30
0.0
 11
145.520000
 21
79.600000
 31
0.0
  0
LINE
  5
219
100
AcDbEntity
  8
0
 62
7
100
AcDbLine
 10
145.520000
 20
79.600000
 30
0.0
 11
151.840000
 21
79.600000
 31
0.0
  0
LINE
  5
21a
100
AcDbEntity
  8
0
 62
7
100
AcDbLine
 10
151.840000
 20
79.600000
 30
0.0
 11
151.840000
 21
74.720000
 31
0.0
  0
LINE
  5
21b
100
AcDbEntity
  8
0
 62
7
100
AcDbLine
 10
151.840000
 20
74.720000
 30
0.0
 11
145.520000
 21
74.720000
 31
0.0
  0
LINE
  5
21c
100
AcDbEntity
  8
0
 62
7
100
AcDbLine
 10
145.520000
 20
74.720000
 30
0.0
 11
145.520000
 21
52.880000
 31
0.0
  0
SPLINE
  5
21d
100
AcDbEntity
  8
0
 62
7
100
AcDbSpline
 70
8
 71
3
 72
8
 73
4
 74
0
 40
0
 40
0
 40
0
 40
0
 40
1
 40
1
 40
1
 40
1
 10
145.520000
 20
52.880000
 30
0.0
 10
145.520000
 20
50.960000
 30
0.0
 10
145.760000
 20
49.680000
 30
0.0
 10
146.080000
 20
48.880000
 30
0.0
  0
SPLINE
  5
21e
100
AcDbEntity
  8
0
 62
7
100
AcDbSpline
 70
8
 71
3
 72
8
 73
4
 74
0
 40
0
 40
0
 40
0
 40
0
 40
1
 40
1
 40
1
 40
1
 10
146.080000
 20
48.880000
 30
0.0
 10
146.480000
 20
48.080000
 30
0.0
 10
147.440000
 20
47.680000
 30
0.0
 10
149.040000
 20
47.680000
 30
0.0
  0
SPLINE
  5
21f
100
AcDbEntity
  8
0
 62
7
100
AcDbSpline
 70
8
 71
3
 72
8
 73
4
 74
0
 40
0
 40
0
 40
0
 40
0
 40
1
 40
1
 40
1
 40
1
 10
149.040000
 20
47.680000
 30
0.0
 10
149.920000
 20
47.680000
 30
0.0
 10
150.880000
 20
47.760000
 30
0.0
 10
151.840000
 20
48.000000
 30
0.0
  0
LINE
  5
220
100
AcDbEntity
  8
0
 62
7
100
AcDbLine
 10
151.840000
 20
48.000000
 30
0.0
 11
152.720000
 21
42.320000
 31
0.0
  0
LINE
  5
221
100
AcDbEntity
  8
0
 62
7
100
AcDbLine
 10
152.720000
 20
42.320000
 30
0.0
 11
152.720000
 21
42.320000
 31
0.0
  0
SPLINE
  5
222
100
AcDbEntity
  8
0
 62
7
100
AcDbSpline
 70
8
 71
3
 72
8
 73
4
 74
0
 40
0
 40
0
 40
0
 40
0
 40
1
 40
1
 40
1
 40
1
 10
173.360000
 20
80.400000
 30
0.0
 10
178.400000
 20
80.400000
 30
0.0
 10
182.560000
 20
78.800000
 30
0.0
 10
185.920000
 20
75.520000
 30
0.0
  0
SPLINE
  5
223
100
AcDbEntity
  8
0
 62
7
100
AcDbSpline
 70
8
 71
3
 72
8
 73
4
 74
0
 40
0
 40
0
 40
0
 40
0
 40
1
 40
1
 40
1
 40
1
 10
185.920000
 20
75.520000
 30
0.0
 10
189.200000
 20
72.240000
 30
0.0
 10
190.880000
 20
67.520000
 30
0.0
 10
190.880000
 20
61.520000
 30
0.0
  0
SPLINE
  5
224
100
AcDbEntity
  8
0
 62
7
100
AcDbSpline
 70
8
 71
3
 72
8
 73
4
 74
0
 40
0
 40
0
 40
0
 40
0
 40
1
 40
1
 40
1
 40
1
 10
190.880000
 20
61.520000
 30
0.0
 10
190.880000
 20
54.160000
 30
0.0
 10
189.120000
 20
48.960000
 30
0.0
 10
185.520000
 20
45.920000
 30
0.0
  0
SPLINE
  5
225
100
AcDbEntity
  8
0
 62
7
100
AcDbSpline
 70
8
 71
3
 72
8
 73
4
 74
0
 40
0
 40
0
 40
0
 40
0
 40
1
 40
1
 40
1
 40
1
 10
185.520000
 20
45.920000
 30
0.0
 10
181.920000
 20
42.880000
 30
0.0
 10
177.840000
 20
41.360000
 30
0.0
 10
173.360000
 20
41.360000
 30
0.0
  0
SPLINE
  5
226
100
AcDbEntity
  8
0
 62
7
100
AcDbSpline
 70
8
 71
3
 72
8
 73
4
 74
0
 40
0
 40
0
 40
0
 40
0
 40
1
 40
1
 40
1
 40
1
 10
173.360000
 20
41.360000
 30
0.0
 10
168.640000
 20
41.360000
 30
0.0
 10
164.560000
 20
42.960000
 30
0.0
 10
161.120000
 20
46.080000
 30
0.0
  0
SPLINE
  5
227
100
AcDbEntity
  8
0
 62
7
100
AcDbSpline
 70
8
 71
3
 72
8
 73
4
 74
0
 40
0
 40
0
 40
0
 40
0
 40
1
 40
1
 40
1
 40
1
 10
161.120000
 20
46.080000
 30
0.0
 10
157.600000
 20
49.200000
 30
0.0
 10
155.920000
 20
54.160000
 30
0.0
 10
155.920000
 20
60.880000
 30
0.0
  0
SPLINE
  5
228
100
AcDbEntity
  8
0
 62
7
100
AcDbSpline
 70
8
 71
3
 72
8
 73
4
 74
0
 40
0
 40
0
 40
0
 40
0
 40
1
 40
1
 40
1
 40
1
 10
155.920000
 20
60.880000
 30
0.0
 10
155.920000
 20
67.440000
 30
0.0
 10
157.600000
 20
72.320000
 30
0.0
 10
160.960000
 20
75.600000
 30
0.0
  0
SPLINE
  5
229
100
AcDbEntity
  8
0
 62
7
100
AcDbSpline
 70
8
 71
3
 72
8
 73
4
 74
0
 40
0
 40
0
 40
0
 40
0
 40
1
 40
1
 40
1
 40
1
 10
160.960000
 20
75.600000
 30
0.0
 10
164.240000
 20
78.800000
 30
0.0
 10
168.400000
 20
80.400000
 30
0.0
 10
173.360000
 20
80.400000
 30
0.0
  0
LINE
  5
22a
100
AcDbEntity
  8
0
 62
7
100
AcDbLine
 10
173.360000
 20
80.400000
 30
0.0
 11
173.360000
 21
80.400000
 31
0.0
  0
SPLINE
  5
22b
100
AcDbEntity
  8
0
 62
7
100
AcDbSpline
 70
8
 71
3
 72
8
 73
4
 74
0
 40
0
 40
0
 40
0
 40
0
 40
1
 40
1
 40
1
 40
1
 10
173.360000
 20
46.560000
 30
0.0
 10
176.960000
 20
46.560000
 30
0.0
 10
179.760000
 20
47.920000
 30
0.0
 10
181.600000
 20
50.640000
 30
0.0
  0
SPLINE
  5
22c
100
AcDbEntity
  8
0
 62
7
100
AcDbSpline
 70
8
 71
3
 72
8
 73
4
 74
0
 40
0
 40
0
 40
0
 40
0
 40
1
 40
1
 40
1
 40
1
 10
181.600000
 20
50.640000
 30
0.0
 10
183.440000
 20
53.280000
 30
0.0
 10
184.400000
 20
56.800000
 30
0.0
 10
184.400000
 20
61.120000
 30
0.0
  0
SPLINE
  5
22d
100
AcDbEntity
  8
0
 62
7
100
AcDbSpline
 70
8
 71
3
 72
8
 73
4
 74
0
 40
0
 40
0
 40
0
 40
0
 40
1
 40
1
 40
1
 40
1
 10
184.400000
 20
61.120000
 30
0.0
 10
184.400000
 20
65.840000
 30
0.0
 10
183.360000
 20
69.360000
 30
0.0
 10
181.200000
 20
71.680000
 30
0.0
  0
SPLINE
  5
22e
100
AcDbEntity
  8
0
 62
7
100
AcDbSpline
 70
8
 71
3
 72
8
 73
4
 74
0
 40
0
 40
0
 40
0
 40
0
 40
1
 40
1
 40
1
 40
1
 10
181.200000
 20
71.680000
 30
0.0
 10
179.120000
 20
74.080000
 30
0.0
 10
176.480000
 20
75.280000
 30
0.0
 10
173.360000
 20
75.280000
 30
0.0
  0
SPLINE
  5
22f
100
AcDbEntity
  8
0
 62
7
100
AcDbSpline
 70
8
 71
3
 72
8
 73
4
 74
0
 40
0
 40
0
 40
0
 40
0
 40
1
 40
1
 40
1
 40
1
 10
173.360000
 20
75.280000
 30
0.0
 10
170.160000
 20
75.280000
 30
0.0
 10
167.520000
 20
74.080000
 30
0.0
 10
165.440000
 20
71.680000
 30
0.0
  0
SPLINE
  5
230
100
AcDbEntity
  8
0
 62
7
100
AcDbSpline
 70
8
 71
3
 72
8
 73
4
 74
0
 40
0
 40
0
 40
0
 40
0
 40
1
 40
1
 40
1
 40
1
 10
165.440000
 20
71.680000
 30
0.0
 10
163.440000
 20
69.280000
 30
0.0
 10
162.400000
 20
65.680000
 30
0.0
 10
162.400000
 20
60.880000
 30
0.0
  0
SPLINE
  5
231
100
AcDbEntity
  8
0
 62
7
100
AcDbSpline
 70
8
 71
3
 72
8
 73
4
 74
0
 40
0
 40
0
 40
0
 40
0
 40
1
 40
1
 40
1
 40
1
 10
162.400000
 20
60.880000
 30
0.0
 10
162.400000
 20
56.160000
 30
0.0
 10
163.440000
 20
52.640000
 30
0.0
 10
165.520000
 20
50.160000
 30
0.0
  0
SPLINE
  5
232
100
AcDbEntity
  8
0
 62
7
100
AcDbSpline
 70
8
 71
3
 72
8
 73
4
 74
0
 40
0
 40
0
 40
0
 40
0
 40
1
 40
1
 40
1
 40
1
 10
165.520000
 20
50.160000
 30
0.0
 10
167.600000
 20
47.760000
 30
0.0
 10
170.240000
 20
46.560000
 30
0.0
 10
173.360000
 20
46.560000
 30
0.0
  0
LINE
  5
233
100
AcDbEntity
  8
0
 62
7
100
AcDbLine
 10
173.360000
 20
46.560000
 30
0.0
 11
173.360000
 21
46.560000
 31
0.0
  0
LINE
  5
234
100
AcDbEntity
  8
0
 62
7
100
AcDbLine
 10
228.480000
 20
42.240000
 30
0.0
 11
222.800000
 21
42.240000
 31
0.0
  0
LINE
  5
235
100
AcDbEntity
  8
0
 62
7
100
AcDbLine
 10
222.800000
 20
42.240000
 30
0.0
 11
222.800000
 21
47.760000
 31
0.0
  0
LINE
  5
236
100
AcDbEntity
  8
0
 62
7
100
AcDbLine
 10
222.800000
 20
47.760000
 30
0.0
 11
222.640000
 21
47.760000
 31
0.0
  0
SPLINE
  5
237
100
AcDbEntity
  8
0
 62
7
100
AcDbSpline
 70
8
 71
3
 72
8
 73
4
 74
0
 40
0
 40
0
 40
0
 40
0
 40
1
 40
1
 40
1
 40
1
 10
222.640000
 20
47.760000
 30
0.0
 10
219.760000
 20
43.520000
 30
0.0
 10
215.840000
 20
41.360000
 30
0.0
 10
210.960000
 20
41.360000
 30
0.0
  0
SPLINE
  5
238
100
AcDbEntity
  8
0
 62
7
100
AcDbSpline
 70
8
 71
3
 72
8
 73
4
 74
0
 40
0
 40
0
 40
0
 40
0
 40
1
 40
1
 40
1
 40
1
 10
210.960000
 20
41.360000
 30
0.0
 10
208.320000
 20
41.360000
 30
0.0
 10
205.920000
 20
42.000000
 30
0.0
 10
203.680000
 20
43.200000
 30
0.0
  0
SPLINE
  5
239
100
AcDbEntity
  8
0
 62
7
100
AcDbSpline
 70
8
 71
3
 72
8
 73
4
 74
0
 40
0
 40
0
 40
0
 40
0
 40
1
 40
1
 40
1
 40
1
 10
203.680000
 20
43.200000
 30
0.0
 10
201.520000
 20
44.400000
 30
0.0
 10
200.000000
 20
46.080000
 30
0.0
 10
199.280000
 20
48.160000
 30
0.0
  0
SPLINE
  5
23a
100
AcDbEntity
  8
0
 62
7
100
AcDbSpline
 70
8
 71
3
 72
8
 73
4
 74
0
 40
0
 40
0
 40
0
 40
0
 40
1
 40
1
 40
1
 40
1
 10
199.280000
 20
48.160000
 30
0.0
 10
198.560000
 20
50.320000
 30
0.0
 10
198.160000
 20
53.040000
 30
0.0
 10
198.160000
 20
56.400000
 30
0.0
  0
LINE
  5
23b
100
AcDbEntity
  8
0
 62
7
100
AcDbLine
 10
198.160000
 20
56.400000
 30
0.0
 11
198.160000
 21
79.600000
 31
0.0
  0
LINE
  5
23c
100
AcDbEntity
  8
0
 62
7
100
AcDbLine
 10
198.160000
 20
79.600000
 30
0.0
 11
204.480000
 21
79.600000
 31
0.0
  0
LINE
  5
23d
100
AcDbEntity
  8
0
 62
7
100
AcDbLine
 10
204.480000
 20
79.600000
 30
0.0
 11
204.480000
 21
58.880000
 31
0.0
  0
SPLINE
  5
23e
100
AcDbEntity
  8
0
 62
7
100
AcDbSpline
 70
8
 71
3
 72
8
 73
4
 74
0
 40
0
 40
0
 40
0
 40
0
 40
1
 40
1
 40
1
 40
1
 10
204.480000
 20
58.880000
 30
0.0
 10
204.480000
 20
55.600000
 30
0.0
 10
204.640000
 20
53.200000
 30
0.0
 10
204.960000
 20
51.760000
 30
0.0
  0
SPLINE
  5
23f
100
AcDbEntity
  8
0
 62
7
100
AcDbSpline
 70
8
 71
3
 72
8
 73
4
 74
0
 40
0
 40
0
 40
0
 40
0
 40
1
 40
1
 40
1
 40
1
 10
204.960000
 20
51.760000
 30
0.0
 10
205.280000
 20
50.400000
 30
0.0
 10
206.080000
 20
49.200000
 30
0.0
 10
207.440000
 20
48.240000
 30
0.0
  0
SPLINE
  5
240
100
AcDbEntity
  8
0
 62
7
100
AcDbSpline
 70
8
 71
3
 72
8
 73
4
 74
0
 40
0
 40
0
 40
0
 40
0
 40
1
 40
1
 40
1
 40
1
 10
207.440000
 20
48.240000
 30
0.0
 10
208.800000
 20
47.360000
 30
0.0
 10
210.400000
 20
46.880000
 30
0.0
 10
212.240000
 20
46.880000
 30
0.0
  0
SPLINE
  5
241
100
AcDbEntity
  8
0
 62
7
100
AcDbSpline
 70
8
 71
3
 72
8
 73
4
 74
0
 40
0
 40
0
 40
0
 40
0
 40
1
 40
1
 40
1
 40
1
 10
212.240000
 20
46.880000
 30
0.0
 10
214.640000
 20
46.880000
 30
0.0
 10
216.880000
 20
47.680000
 30
0.0
 10
218.960000
 20
49.360000
 30
0.0
  0
SPLINE
  5
242
100
AcDbEntity
  8
0
 62
7
100
AcDbSpline
 70
8
 71
3
 72
8
 73
4
 74
0
 40
0
 40
0
 40
0
 40
0
 40
1
 40
1
 40
1
 40
1
 10
218.960000
 20
49.360000
 30
0.0
 10
221.120000
 20
51.040000
 30
0.0
 10
222.160000
 20
54.400000
 30
0.0
 10
222.160000
 20
59.600000
 30
0.0
  0
LINE
  5
243
100
AcDbEntity
  8
0
 62
7
100
AcDbLine
 10
222.160000
 20
59.600000
 30
0.0
 11
222.160000
 21
79.600000
 31
0.0
  0
LINE
  5
244
100
AcDbEntity
  8
0
 62
7
100
AcDbLine
 10
222.160000
 20
79.600000
 30
0.0
 11
228.480000
 21
79.600000
 31
0.0
  0
LINE
  5
245
100
AcDbEntity
  8
0
 62
7
100
AcDbLine
 10
228.480000
 20
79.600000
 30
0.0
 11
228.480000
 21
42.240000
 31
0.0
  0
LINE
  5
246
100
AcDbEntity
  8
0
 62
7
100
AcDbLine
 10
228.480000
 20
42.240000
 30
0.0
 11
228.480000
 21
42.240000
 31
0.0
  0
LINE
  5
247
100
AcDbEntity
  8
0
 62
7
100
AcDbLine
 10
244.560000
 20
42.240000
 30
0.0
 11
238.240000
 21
42.240000
 31
0.0
  0
LINE
  5
248
100
AcDbEntity
  8
0
 62
7
100
AcDbLine
 10
238.240000
 20
42.240000
 30
0.0
 11
238.240000
 21
79.600000
 31
0.0
  0
LINE
  5
249
100
AcDbEntity
  8
0
 62
7
100
AcDbLine
 10
238.240000
 20
79.600000
 30
0.0
 11
244.560000
 21
79.600000
 31
0.0
  0
LINE
  5
24a
100
AcDbEntity
  8
0
 62
7
100
AcDbLine
 10
244.560000
 20
79.600000
 30
0.0
 11
244.560000
 21
42.240000
 31
0.0
  0
LINE
  5
24b
100
AcDbEntity
  8
0
 62
7
100
AcDbLine
 10
244.560000
 20
42.240000
 30
0.0
 11
244.560000
 21
42.240000
 31
0.0
  0
LINE
  5
24c
100
AcDbEntity
  8
0
 62
7
100
AcDbLine
 10
244.560000
 20
86.640000
 30
0.0
 11
238.240000
 21
86.640000
 31
0.0
  0
LINE
  5
24d
100
AcDbEntity
  8
0
 62
7
100
AcDbLine
 10
238.240000
 20
86.640000
 30
0.0
 11
238.240000
 21
93.840000
 31
0.0
  0
LINE
  5
24e
100
AcDbEntity
  8
0
 62
7
100
AcDbLine
 10
238.240000
 20
93.840000
 30
0.0
 11
244.560000
 21
93.840000
 31
0.0
  0
LINE
  5
24f
100
AcDbEntity
  8
0
 62
7
100
AcDbLine
 10
244.560000
 20
93.840000
 30
0.0
 11
244.560000
 21
86.640000
 31
0.0
  0
LINE
  5
250
100
AcDbEntity
  8
0
 62
7
100
AcDbLine
 10
244.560000
 20
86.640000
 30
0.0
 11
244.560000
 21
86.640000
 31
0.0
  0
LINE
  5
251
100
AcDbEntity
  8
0
 62
7
100
AcDbLine
 10
260.560000
 20
42.240000
 30
0.0
 11
254.240000
 21
42.240000
 31
0.0
  0
LINE
  5
252
100
AcDbEntity
  8
0
 62
7
100
AcDbLine
 10
254.240000
 20
42.240000
 30
0.0
 11
254.240000
 21
93.840000
 31
0.0
  0
LINE
  5
253
100
AcDbEntity
  8
0
 62
7
100
AcDbLine
 10
254.240000
 20
93.840000
 30
0.0
 11
260.560000
 21
93.840000
 31
0.0
  0
LINE
  5
254
100
AcDbEntity
  8
0
 62
7
100
AcDbLine
 10
260.560000
 20
93.840000
 30
0.0
 11
260.560000
 21
42.240000
 31
0.0
  0
LINE
  5
255
100
AcDbEntity
  8
0
 62
7
100
AcDbLine
 10
260.560000
 20
42.240000
 30
0.0
 11
260.560000
 21
42.240000
 31
0.0
  0
LINE
  5
256
100
AcDbEntity
  8
0
 62
7
100
AcDbLine
 10
276.560000
 20
42.240000
 30
0.0
 11
270.240000
 21
42.240000
 31
0.0
  0
LINE
  5
257
100
AcDbEntity
  8
0
 62
7
100
AcDbLine
 10
270.240000
 20
42.240000
 30
0.0
 11
270.240000
 21
93.840000
 31
0.0
  0
LINE
  5
258
100
AcDbEntity
  8
0
 62
7
100
AcDbLine
 10
270.240000
 20
93.840000
 30
0.0
 11
276.560000
 21
93.840000
 31
0.0
  0
LINE
  5
259
100
AcDbEntity
  8
0
 62
7
100
AcDbLine
 10
276.560000
 20
93.840000
 30
0.0
 11
276.560000
 21
42.240000
 31
0.0
  0
LINE
  5
25a
100
AcDbEntity
  8
0
 62
7
100
AcDbLine
 10
276.560000
 20
42.240000
 30
0.0
 11
276.560000
 21
42.240000
 31
0.0
  0
LINE
  5
25b
100
AcDbEntity
  8
0
 62
7
100
AcDbLine
 10
318.640000
 20
59.360000
 30
0.0
 11
290.720000
 21
59.360000
 31
0.0
  0
SPLINE
  5
25c
100
AcDbEntity
  8
0
 62
7
100
AcDbSpline
 70
8
 71
3
 72
8
 73
4
 74
0
 40
0
 40
0
 40
0
 40
0
 40
1
 40
1
 40
1
 40
1
 10
290.720000
 20
59.360000
 30
0.0
 10
290.960000
 20
55.200000
 30
0.0
 10
292.160000
 20
52.080000
 30
0.0
 10
294.240000
 20
49.840000
 30
0.0
  0
SPLINE
  5
25d
100
AcDbEntity
  8
0
 62
7
100
AcDbSpline
 70
8
 71
3
 72
8
 73
4
 74
0
 40
0
 40
0
 40
0
 40
0
 40
1
 40
1
 40
1
 40
1
 10
294.240000
 20
49.840000
 30
0.0
 10
296.320000
 20
47.680000
 30
0.0
 10
298.960000
 20
46.560000
 30
0.0
 10
302.080000
 20
46.560000
 30
0.0
  0
SPLINE
  5
25e
100
AcDbEntity
  8
0
 62
7
100
AcDbSpline
 70
8
 71
3
 72
8
 73
4
 74
0
 40
0
 40
0
 40
0
 40
0
 40
1
 40
1
 40
1
 40
1
 10
302.080000
 20
46.560000
 30
0.0
 10
304.560000
 20
46.560000
 30
0.0
 10
306.560000
 20
47.200000
 30
0.0
 10
308.160000
 20
48.480000
 30
0.0
  0
SPLINE
  5
25f
100
AcDbEntity
  8
0
 62
7
100
AcDbSpline
 70
8
 71
3
 72
8
 73
4
 74
0
 40
0
 40
0
 40
0
 40
0
 40
1
 40
1
 40
1
 40
1
 10
308.160000
 20
48.480000
 30
0.0
 10
309.840000
 20
49.760000
 30
0.0
 10
311.120000
 20
51.680000
 30
0.0
 10
311.920000
 20
54.320000
 30
0.0
  0
LINE
  5
260
100
AcDbEntity
  8
0
 62
7
100
AcDbLine
 10
311.920000
 20
54.320000
 30
0.0
 11
318.480000
 21
53.520000
 31
0.0
  0
SPLINE
  5
261
100
AcDbEntity
  8
0
 62
7
100
AcDbSpline
 70
8
 71
3
 72
8
 73
4
 74
0
 40
0
 40
0
 40
0
 40
0
 40
1
 40
1
 40
1
 40
1
 10
318.480000
 20
53.520000
 30
0.0
 10
317.440000
 20
49.600000
 30
0.0
 10
315.440000
 20
46.640000
 30
0.0
 10
312.640000
 20
44.560000
 30
0.0
  0
SPLINE
  5
262
100
AcDbEntity
  8
0
 62
7
100
AcDbSpline
 70
8
 71
3
 72
8
 73
4
 74
0
 40
0
 40
0
 40
0
 40
0
 40
1
 40
1
 40
1
 40
1
 10
312.640000
 20
44.560000
 30
0.0
 10
309.840000
 20
42.400000
 30
0.0
 10
306.320000
 20
41.360000
 30
0.0
 10
302.080000
 20
41.360000
 30
0.0
  0
SPLINE
  5
263
100
AcDbEntity
  8
0
 62
7
100
AcDbSpline
 70
8
 71
3
 72
8
 73
4
 74
0
 40
0
 40
0
 40
0
 40
0
 40
1
 40
1
 40
1
 40
1
 10
302.080000
 20
41.360000
 30
0.0
 10
296.480000
 20
41.360000
 30
0.0
 10
292.160000
 20
43.120000
 30
0.0
 10
288.960000
 20
46.560000
 30
0.0
  0
SPLINE
  5
264
100
AcDbEntity
  8
0
 62
7
100
AcDbSpline
 70
8
 71
3
 72
8
 73
4
 74
0
 40
0
 40
0
 40
0
 40
0
 40
1
 40
1
 40
1
 40
1
 10
288.960000
 20
46.560000
 30
0.0
 10
285.840000
 20
50.000000
 30
0.0
 10
284.240000
 20
54.640000
 30
0.0
 10
284.240000
 20
60.640000
 30
0.0
  0
SPLINE
  5
265
100
AcDbEntity
  8
0
 62
7
100
AcDbSpline
 70
8
 71
3
 72
8
 73
4
 74
0
 40
0
 40
0
 40
0
 40
0
 40
1
 40
1
 40
1
 40
1
 10
284.240000
 20
60.640000
 30
0.0
 10
284.240000
 20
66.480000
 30
0.0
 10
285.760000
 20
71.280000
 30
0.0
 10
288.880000
 20
74.960000
 30
0.0
  0
SPLINE
  5
266
100
AcDbEntity
  8
0
 62
7
100
AcDbSpline
 70
8
 71
3
 72
8
 73
4
 74
0
 40
0
 40
0
 40
0
 40
0
 40
1
 40
1
 40
1
 40
1
 10
288.880000
 20
74.960000
 30
0.0
 10
291.920000
 20
78.560000
 30
0.0
 10
296.240000
 20
80.400000
 30
0.0
 10
301.760000
 20
80.400000
 30
0.0
  0
SPLINE
  5
267
100
AcDbEntity
  8
0
 62
7
100
AcDbSpline
 70
8
 71
3
 72
8
 73
4
 74
0
 40
0
 40
0
 40
0
 40
0
 40
1
 40
1
 40
1
 40
1
 10
301.760000
 20
80.400000
 30
0.0
 10
304.480000
 20
80.400000
 30
0.0
 10
307.120000
 20
79.840000
 30
0.0
 10
309.600000
 20
78.640000
 30
0.0
  0
SPLINE
  5
268
100
AcDbEntity
  8
0
 62
7
100
AcDbSpline
 70
8
 71
3
 72
8
 73
4
 74
0
 40
0
 40
0
 40
0
 40
0
 40
1
 40
1
 40
1
 40
1
 10
309.600000
 20
78.640000
 30
0.0
 10
312.160000
 20
77.440000
 30
0.0
 10
314.240000
 20
75.360000
 30
0.0
 10
316.000000
 20
72.560000
 30
0.0
  0
SPLINE
  5
269
100
AcDbEntity
  8
0
 62
7
100
AcDbSpline
 70
8
 71
3
 72
8
 73
4
 74
0
 40
0
 40
0
 40
0
 40
0
 40
1
 40
1
 40
1
 40
1
 10
316.000000
 20
72.560000
 30
0.0
 10
317.760000
 20
69.680000
 30
0.0
 10
318.640000
 20
65.280000
 30
0.0
 10
318.640000
 20
59.360000
 30
0.0
  0
LINE
  5
26a
100
AcDbEntity
  8
0
 62
7
100
AcDbLine
 10
318.640000
 20
59.360000
 30
0.0
 11
318.640000
 21
59.360000
 31
0.0
  0
SPLINE
  5
26b
100
AcDbEntity
  8
0
 62
7
100
AcDbSpline
 70
8
 71
3
 72
8
 73
4
 74
0
 40
0
 40
0
 40
0
 40
0
 40
1
 40
1
 40
1
 40
1
 10
312.160000
 20
64.560000
 30
0.0
 10
311.920000
 20
68.320000
 30
0.0
 10
310.720000
 20
71.040000
 30
0.0
 10
308.640000
 20
72.720000
 30
0.0
  0
SPLINE
  5
26c
100
AcDbEntity
  8
0
 62
7
100
AcDbSpline
 70
8
 71
3
 72
8
 73
4
 74
0
 40
0
 40
0
 40
0
 40
0
 40
1
 40
1
 40
1
 40
1
 10
308.640000
 20
72.720000
 30
0.0
 10
306.560000
 20
74.400000
 30
0.0
 10
304.240000
 20
75.280000
 30
0.0
 10
301.760000
 20
75.280000
 30
0.0
  0
SPLINE
  5
26d
100
AcDbEntity
  8
0
 62
7
100
AcDbSpline
 70
8
 71
3
 72
8
 73
4
 74
0
 40
0
 40
0
 40
0
 40
0
 40
1
 40
1
 40
1
 40
1
 10
301.760000
 20
75.280000
 30
0.0
 10
298.800000
 20
75.280000
 30
0.0
 10
296.320000
 20
74.240000
 30
0.0
 10
294.400000
 20
72.240000
 30
0.0
  0
SPLINE
  5
26e
100
AcDbEntity
  8
0
 62
7
100
AcDbSpline
 70
8
 71
3
 72
8
 73
4
 74
0
 40
0
 40
0
 40
0
 40
0
 40
1
 40
1
 40
1
 40
1
 10
294.400000
 20
72.240000
 30
0.0
 10
292.480000
 20
70.240000
 30
0.0
 10
291.360000
 20
67.680000
 30
0.0
 10
291.040000
 20
64.560000
 30
0.0
  0
LINE
  5
26f
100
AcDbEntity
  8
0
 62
7
100
AcDbLine
 10
291.040000
 20
64.560000
 30
0.0
 11
312.160000
 21
64.560000
 31
0.0
  0
LINE
  5
270
100
AcDbEntity
  8
0
 62
7
100
AcDbLine
 10
312.160000
 20
64.560000
 30
0.0
 11
312.160000
 21
64.560000
 31
0.0
  0
LINE
  5
271
100
AcDbEntity
  8
0
 62
7
100
AcDbLine
 10
335.120000
 20
42.240000
 30
0.0
 11
327.920000
 21
42.240000
 31
0.0
  0
LINE
  5
272
100
AcDbEntity
  8
0
 62
7
100
AcDbLine
 10
327.920000
 20
42.240000
 30
0.0
 11
327.920000
 21
49.440000
 31
0.0
  0
LINE
  5
273
100
AcDbEntity
  8
0
 62
7
100
AcDbLine
 10
327.920000
 20
49.440000
 30
0.0
 11
335.120000
 21
49.440000
 31
0.0
  0
LINE
  5
274
100
AcDbEntity
  8
0
 62
7
100
AcDbLine
 10
335.120000
 20
49.440000
 30
0.0
 11
335.120000
 21
42.240000
 31
0.0
  0
LINE
  5
275
100
AcDbEntity
  8
0
 62
7
100
AcDbLine
 10
335.120000
 20
42.240000
 30
0.0
 11
335.120000
 21
42.240000
 31
0.0
  0
LINE
  5
276
100
AcDbEntity
  8
0
 62
7
100
AcDbLine
 10
363.920000
 20
94.080000
 30
0.0
 11
362.960000
 21
88.480000
 31
0.0
  0
SPLINE
  5
277
100
AcDbEntity
  8
0
 62
7
100
AcDbSpline
 70
8
 71
3
 72
8
 73
4
 74
0
 40
0
 40
0
 40
0
 40
0
 40
1
 40
1
 40
1
 40
1
 10
362.960000
 20
88.480000
 30
0.0
 10
361.680000
 20
88.720000
 30
0.0
 10
360.400000
 20
88.880000
 30
0.0
 10
359.200000
 20
88.880000
 30
0.0
  0
SPLINE
  5
278
100
AcDbEntity
  8
0
 62
7
100
AcDbSpline
 70
8
 71
3
 72
8
 73
4
 74
0
 40
0
 40
0
 40
0
 40
0
 40
1
 40
1
 40
1
 40
1
 10
359.200000
 20
88.880000
 30
0.0
 10
357.680000
 20
88.880000
 30
0.0
 10
356.400000
 20
88.560000
 30
0.0
 10
355.440000
 20
87.920000
 30
0.0
  0
SPLINE
  5
279
100
AcDbEntity
  8
0
 62
7
100
AcDbSpline
 70
8
 71
3
 72
8
 73
4
 74
0
 40
0
 40
0
 40
0
 40
0
 40
1
 40
1
 40
1
 40
1
 10
355.440000
 20
87.920000
 30
0.0
 10
354.480000
 20
87.280000
 30
0.0
 10
354.000000
 20
85.680000
 30
0.0
 10
354.000000
 20
83.120000
 30
0.0
  0
LINE
  5
27a
100
AcDbEntity
  8
0
 62
7
100
AcDbLine
 10
354.000000
 20
83.120000
 30
0.0
 11
354.000000
 21
79.600000
 31
0.0
  0
LINE
  5
27b
100
AcDbEntity
  8
0
 62
7
100
AcDbLine
 10
354.000000
 20
79.600000
 30
0.0
 11
361.200000
 21
79.600000
 31
0.0
  0
LINE
  5
27c
100
AcDbEntity
  8
0
 62
7
100
AcDbLine
 10
361.200000
 20
79.600000
 30
0.0
 11
361.200000
 21
74.720000
 31
0.0
  0
LINE
  5
27d
100
AcDbEntity
  8
0
 62
7
100
AcDbLine
 10
361.200000
 20
74.720000
 30
0.0
 11
354.000000
 21
74.720000
 31
0.0
  0
LINE
  5
27e
100
AcDbEntity
  8
0
 62
7
100
AcDbLine
 10
354.000000
 20
74.720000
 30
0.0
 11
354.000000
 21
42.240000
 31
0.0
  0
LINE
  5
27f
100
AcDbEntity
  8
0
 62
7
100
AcDbLine
 10
354.000000
 20
42.240000
 30
0.0
 11
347.680000
 21
42.240000
 31
0.0
  0
LINE
  5
280
100
AcDbEntity
  8
0
 62
7
100
AcDbLine
 10
347.680000
 20
42.240000
 30
0.0
 11
347.680000
 21
74.720000
 31
0.0
  0
LINE
  5
281
100
AcDbEntity
  8
0
 62
7
100
AcDbLine
 10
347.680000
 20
74.720000
 30
0.0
 11
342.080000
 21
74.720000
 31
0.0
  0
LINE
  5
282
100
AcDbEntity
  8
0
 62
7
100
AcDbLine
 10
342.080000
 20
74.720000
 30
0.0
 11
342.080000
 21
79.600000
 31
0.0
  0
LINE
  5
283
100
AcDbEntity
  8
0
 62
7
100
AcDbLine
 10
342.080000
 20
79.600000
 30
0.0
 11
347.680000
 21
79.600000
 31
0.0
  0
LINE
  5
284
100
AcDbEntity
  8
0
 62
7
100
AcDbLine
 10
347.680000
 20
79.600000
 30
0.0
 11
347.680000
 21
83.600000
 31
0.0
  0
SPLINE
  5
285
100
AcDbEntity
  8
0
 62
7
100
AcDbSpline
 70
8
 71
3
 72
8
 73
4
 74
0
 40
0
 40
0
 40
0
 40
0
 40
1
 40
1
 40
1
 40
1
 10
347.680000
 20
83.600000
 30
0.0
 10
347.680000
 20
85.520000
 30
0.0
 10
347.840000
 20
87.200000
 30
0.0
 10
348.240000
 20
88.720000
 30
0.0
  0
SPLINE
  5
286
100
AcDbEntity
  8
0
 62
7
100
AcDbSpline
 70
8
 71
3
 72
8
 73
4
 74
0
 40
0
 40
0
 40
0
 40
0
 40
1
 40
1
 40
1
 40
1
 10
348.240000
 20
88.720000
 30
0.0
 10
348.560000
 20
90.240000
 30
0.0
 10
349.520000
 20
91.600000
 30
0.0
 10
351.040000
 20
92.880000
 30
0.0
  0
SPLINE
  5
287
100
AcDbEntity
  8
0
 62
7
100
AcDbSpline
 70
8
 71
3
 72
8
 73
4
 74
0
 40
0
 40
0
 40
0
 40
0
 40
1
 40
1
 40
1
 40
1
 10
351.040000
 20
92.880000
 30
0.0
 10
352.480000
 20
94.080000
 30
0.0
 10
354.800000
 20
94.720000
 30
0.0
 10
358.000000
 20
94.720000
 30
0.0
  0
SPLINE
  5
288
100
AcDbEntity
  8
0
 62
7
100
AcDbSpline
 70
8
 71
3
 72
8
 73
4
 74
0
 40
0
 40
0
 40
0
 40
0
 40
1
 40
1
 40
1
 40
1
 10
358.000000
 20
94.720000
 30
0.0
 10
359.840000
 20
94.720000
 30
0.0
 10
361.840000
 20
94.480000
 30
0.0
 10
363.920000
 20
94.080000
 30
0.0
  0
LINE
  5
289
100
AcDbEntity
  8
0
 62
7
100
AcDbLine
 10
363.920000
 20
94.080000
 30
0.0
 11
363.920000
 21
94.080000
 31
0.0
  0
LINE
  5
28a
100
AcDbEntity
  8
0
 62
7
100
AcDbLine
 10
386.400000
 20
78.400000
 30
0.0
 11
384.240000
 21
72.560000
 31
0.0
  0
SPLINE
  5
28b
100
AcDbEntity
  8
0
 62
7
100
AcDbSpline
 70
8
 71
3
 72
8
 73
4
 74
0
 40
0
 40
0
 40
0
 40
0
 40
1
 40
1
 40
1
 40
1
 10
384.240000
 20
72.560000
 30
0.0
 10
382.640000
 20
73.520000
 30
0.0
 10
381.120000
 20
73.920000
 30
0.0
 10
379.600000
 20
73.920000
 30
0.0
  0
SPLINE
  5
28c
100
AcDbEntity
  8
0
 62
7
100
AcDbSpline
 70
8
 71
3
 72
8
 73
4
 74
0
 40
0
 40
0
 40
0
 40
0
 40
1
 40
1
 40
1
 40
1
 10
379.600000
 20
73.920000
 30
0.0
 10
377.280000
 20
73.920000
 30
0.0
 10
375.440000
 20
72.880000
 30
0.0
 10
374.240000
 20
70.800000
 30
0.0
  0
SPLINE
  5
28d
100
AcDbEntity
  8
0
 62
7
100
AcDbSpline
 70
8
 71
3
 72
8
 73
4
 74
0
 40
0
 40
0
 40
0
 40
0
 40
1
 40
1
 40
1
 40
1
 10
374.240000
 20
70.800000
 30
0.0
 10
373.040000
 20
68.640000
 30
0.0
 10
372.400000
 20
65.680000
 30
0.0
 10
372.400000
 20
61.840000
 30
0.0
  0
LINE
  5
28e
100
AcDbEntity
  8
0
 62
7
100
AcDbLine
 10
372.400000
 20
61.840000
 30
0.0
 11
372.400000
 21
42.240000
 31
0.0
  0
LINE
  5
28f
100
AcDbEntity
  8
0
 62
7
100
AcDbLine
 10
372.400000
 20
42.240000
 30
0.0
 11
366.080000
 21
42.240000
 31
0.0
  0
LINE
  5
290
100
AcDbEntity
  8
0
 62
7
100
AcDbLine
 10
366.080000
 20
42.240000
 30
0.0
 11
366.080000
 21
79.600000
 31
0.0
  0
LINE
  5
291
100
AcDbEntity
  8
0
 62
7
100
AcDbLine
 10
366.080000
 20
79.600000
 30
0.0
 11
371.840000
 21
79.600000
 31
0.0
  0
LINE
  5
292
100
AcDbEntity
  8
0
 62
7
100
AcDbLine
 10
371.840000
 20
79.600000
 30
0.0
 11
371.840000
 21
73.920000
 31
0.0
  0
LINE
  5
293
100
AcDbEntity
  8
0
 62
7
100
AcDbLine
 10
371.840000
 20
73.920000
 30
0.0
 11
372.000000
 21
73.920000
 31
0.0
  0
SPLINE
  5
294
100
AcDbEntity
  8
0
 62
7
100
AcDbSpline
 70
8
 71
3
 72
8
 73
4
 74
0
 40
0
 40
0
 40
0
 40
0
 40
1
 40
1
 40
1
 40
1
 10
372.000000
 20
73.920000
 30
0.0
 10
374.000000
 20
78.240000
 30
0.0
 10
376.640000
 20
80.400000
 30
0.0
 10
379.920000
 20
80.400000
 30
0.0
  0
SPLINE
  5
295
100
AcDbEntity
  8
0
 62
7
100
AcDbSpline
 70
8
 71
3
 72
8
 73
4
 74
0
 40
0
 40
0
 40
0
 40
0
 40
1
 40
1
 40
1
 40
1
 10
379.920000
 20
80.400000
 30
0.0
 10
382.080000
 20
80.400000
 30
0.0
 10
384.240000
 20
79.760000
 30
0.0
 10
386.400000
 20
78.400000
 30
0.0
  0
LINE
  5
296
100
AcDbEntity
  8
0
 62
7
100
AcDbLine
 10
386.400000
 20
78.400000
 30
0.0
 11
386.400000
 21
78.400000
 31
0.0
  0
ENDSEC
  0
SECTION
  2
OBJECTS
  0
DICTIONARY
  5
C
330
0
100
AcDbDictionary
  3
ACAD_GROUP
350
D
  3
ACAD_MLINESTYLE
350
17
  0
DICTIONARY
  5
D
330
C
100
AcDbDictionary
  0
DICTIONARY
  5
1A
330
C
100
AcDbDictionary
  0
DICTIONARY
  5
17
330
C
100
AcDbDictionary
  3
STANDARD
350
18
  0
DICTIONARY
  5
19
330
C
100
AcDbDictionary
  0
ENDSEC
  0
EOF
