  0
SECTION
  2
HEADER
  9
$ACADVER
  1
AC1014
  9
$HANDSEED
  5
FFFF
  9
$MEASUREMENT
 70
     1
  0
ENDSEC
  0
SECTION
  2
TABLES
  0
TABLE
  2
VPORT
  5
8
330
0
100
AcDbSymbolTable
 70
     4
  0
VPORT
  5
2E
330
8
100
AcDbSymbolTableRecord
100
AcDbViewportTableRecord
  2
*ACTIVE
 70
     0
 10
0.0
 20
0.0
 11
1.0
 21
1.0
 12
210.0
 22
148.5
 13
0.0
 23
0.0
 14
10.0
 24
10.0
 15
10.0
 25
10.0
 16
0.0
 26
0.0
 36
1.0
 17
0.0
 27
0.0
 37
0.0
 40
341.0
 41
1.24
 42
50.0
 43
0.0
 44
0.0
 50
0.0
 51
0.0
 71
     0
 72
   100
 73
     1
 74
     3
 75
     0
 76
     0
 77
     0
 78
     0
  0
ENDTAB
  0
TABLE
  2
LTYPE
  5
5
330
0
100
AcDbSymbolTable
 70
     1
  0
LTYPE
  5
14
330
5
100
AcDbSymbolTableRecord
100
AcDbLinetypeTableRecord
  2
BYBLOCK
 70
     0
  3

 72
    65
 73
     0
 40
0.0
  0
LTYPE
  5
15
330
5
100
AcDbSymbolTableRecord
100
AcDbLinetypeTableRecord
  2
BYLAYER
 70
     0
  3

 72
    65
 73
     0
 40
0.0
  0
LTYPE
  5
16
330
5
100
AcDbSymbolTableRecord
100
AcDbLinetypeTableRecord
  2
CONTINUOUS
 70
     0
  3
Solid line
 72
    65
 73
     0
 40
0.0
  0
ENDTAB
  0
TABLE
  2
LAYER
  5
2
100
AcDbSymbolTable
 70
1
  0
LAYER
  5
50
100
AcDbSymbolTableRecord
100
AcDbLayerTableRecord
  2
0
 70
0
  6
CONTINUOUS
  0
ENDTAB
  0
TABLE
  2
STYLE
  5
3
330
0
100
AcDbSymbolTable
 70
     1
  0
STYLE
  5
11
330
3
100
AcDbSymbolTableRecord
100
AcDbTextStyleTableRecord
  2
STANDARD
 70
     0
 40
0.0
 41
1.0
 50
0.0
 71
     0
 42
2.5
  3
txt
  4

  0
ENDTAB
  0
TABLE
  2
VIEW
  5
6
330
0
100
AcDbSymbolTable
 70
     0
  0
ENDTAB
  0
TABLE
  2
UCS
  5
7
330
0
100
AcDbSymbolTable
 70
     0
  0
ENDTAB
  0
TABLE
  2
APPID
  5
9
330
0
100
AcDbSymbolTable
 70
     2
  0
APPID
  5
12
330
9
100
AcDbSymbolTableRecord
100
AcDbRegAppTableRecord
  2
ACAD
 70
     0
  0
ENDTAB
  0
TABLE
  2
DIMSTYLE
  5
A
330
0
100
AcDbSymbolTable
 70
     1
  0
DIMSTYLE
105
27
330
A
100
AcDbSymbolTableRecord
100
AcDbDimStyleTableRecord
  2
ISO-25
 70
     0
  3

  4

  5

  6

  7

 40
1.0
 41
2.5
 42
0.625
 43
3.75
 44
1.25
 45
0.0
 46
0.0
 47
0.0
 48
0.0
140
2.5
141
2.5
142
0.0
143
0.03937007874016
144
1.0
145
0.0
146
1.0
147
0.625
 71
     0
 72
     0
 73
     0
 74
     0
 75
     0
 76
     0
 77
     1
 78
     8
170
     0
171
     3
172
     1
173
     0
174
     0
175
     0
176
     0
177
     0
178
     0
270
     2
271
     2
272
     2
273
     2
274
     3
340
11
275
     0
280
     0
281
     0
282
     0
283
     0
284
     8
285
     0
286
     0
287
     3
288
     0
  0
ENDTAB
  0
TABLE
  2
BLOCK_RECORD
  5
1
330
0
100
AcDbSymbolTable
 70
     1
  0
BLOCK_RECORD
  5
1F
330
1
100
AcDbSymbolTableRecord
100
AcDbBlockTableRecord
  2
*MODEL_SPACE
  0
BLOCK_RECORD
  5
1B
330
1
100
AcDbSymbolTableRecord
100
AcDbBlockTableRecord
  2
*PAPER_SPACE
  0
ENDTAB
  0
ENDSEC
  0
SECTION
  2
BLOCKS
  0
BLOCK
  5
20
330
1F
100
AcDbEntity
  8
0
100
AcDbBlockBegin
  2
*MODEL_SPACE
 70
     0
 10
0.0
 20
0.0
 30
0.0
  3
*MODEL_SPACE
  1

  0
ENDBLK
  5
21
330
1F
100
AcDbEntity
  8
0
100
AcDbBlockEnd
  0
BLOCK
  5
1C
330
1B
100
AcDbEntity
 67
     1
  8
0
100
AcDbBlockBegin
  2
*PAPER_SPACE
  1

  0
ENDBLK
  5
1D
330
1B
100
AcDbEntity
 67
     1
  8
0
100
AcDbBlockEnd
  0
ENDSEC
  0
SECTION
  2
ENTITIES
  0
SPLINE
  5
100
100
AcDbEntity
  8
0
 62
7
100
AcDbSpline
 70
8
 71
3
 72
8
 73
4
 74
0
 40
0
 40
0
 40
0
 40
0
 40
1
 40
1
 40
1
 40
1
 10
438.400000
 20
150.800000
 30
0.0
 10
437.360000
 20
150.960000
 30
0.0
 10
436.000000
 20
151.360000
 30
0.0
 10
435.360000
 20
151.760000
 30
0.0
  0
SPLINE
  5
101
100
AcDbEntity
  8
0
 62
7
100
AcDbSpline
 70
8
 71
3
 72
8
 73
4
 74
0
 40
0
 40
0
 40
0
 40
0
 40
1
 40
1
 40
1
 40
1
 10
435.360000
 20
151.760000
 30
0.0
 10
434.720000
 20
152.080000
 30
0.0
 10
433.760000
 20
152.160000
 30
0.0
 10
433.280000
 20
152.000000
 30
0.0
  0
SPLINE
  5
102
100
AcDbEntity
  8
0
 62
7
100
AcDbSpline
 70
8
 71
3
 72
8
 73
4
 74
0
 40
0
 40
0
 40
0
 40
0
 40
1
 40
1
 40
1
 40
1
 10
433.280000
 20
152.000000
 30
0.0
 10
432.000000
 20
151.440000
 30
0.0
 10
417.440000
 20
154.560000
 30
0.0
 10
415.760000
 20
155.760000
 30
0.0
  0
SPLINE
  5
103
100
AcDbEntity
  8
0
 62
7
100
AcDbSpline
 70
8
 71
3
 72
8
 73
4
 74
0
 40
0
 40
0
 40
0
 40
0
 40
1
 40
1
 40
1
 40
1
 10
415.760000
 20
155.760000
 30
0.0
 10
414.960000
 20
156.240000
 30
0.0
 10
413.920000
 20
156.640000
 30
0.0
 10
413.360000
 20
156.640000
 30
0.0
  0
SPLINE
  5
104
100
AcDbEntity
  8
0
 62
7
100
AcDbSpline
 70
8
 71
3
 72
8
 73
4
 74
0
 40
0
 40
0
 40
0
 40
0
 40
1
 40
1
 40
1
 40
1
 10
413.360000
 20
156.640000
 30
0.0
 10
412.800000
 20
156.640000
 30
0.0
 10
410.960000
 20
158.000000
 30
0.0
 10
409.280000
 20
159.600000
 30
0.0
  0
SPLINE
  5
105
100
AcDbEntity
  8
0
 62
7
100
AcDbSpline
 70
8
 71
3
 72
8
 73
4
 74
0
 40
0
 40
0
 40
0
 40
0
 40
1
 40
1
 40
1
 40
1
 10
409.280000
 20
159.600000
 30
0.0
 10
407.600000
 20
161.200000
 30
0.0
 10
404.800000
 20
163.520000
 30
0.0
 10
403.040000
 20
164.800000
 30
0.0
  0
LINE
  5
106
100
AcDbEntity
  8
0
 62
7
100
AcDbLine
 10
403.040000
 20
164.800000
 30
0.0
 11
399.920000
 21
166.960000
 31
0.0
  0
LINE
  5
107
100
AcDbEntity
  8
0
 62
7
100
AcDbLine
 10
399.920000
 20
166.960000
 30
0.0
 11
397.840000
 21
165.680000
 31
0.0
  0
SPLINE
  5
108
100
AcDbEntity
  8
0
 62
7
100
AcDbSpline
 70
8
 71
3
 72
8
 73
4
 74
0
 40
0
 40
0
 40
0
 40
0
 40
1
 40
1
 40
1
 40
1
 10
397.840000
 20
165.680000
 30
0.0
 10
396.720000
 20
165.040000
 30
0.0
 10
395.200000
 20
164.560000
 30
0.0
 10
394.560000
 20
164.720000
 30
0.0
  0
SPLINE
  5
109
100
AcDbEntity
  8
0
 62
7
100
AcDbSpline
 70
8
 71
3
 72
8
 73
4
 74
0
 40
0
 40
0
 40
0
 40
0
 40
1
 40
1
 40
1
 40
1
 10
394.560000
 20
164.720000
 30
0.0
 10
393.920000
 20
164.880000
 30
0.0
 10
393.360000
 20
164.560000
 30
0.0
 10
393.360000
 20
164.080000
 30
0.0
  0
SPLINE
  5
10a
100
AcDbEntity
  8
0
 62
7
100
AcDbSpline
 70
8
 71
3
 72
8
 73
4
 74
0
 40
0
 40
0
 40
0
 40
0
 40
1
 40
1
 40
1
 40
1
 10
393.360000
 20
164.080000
 30
0.0
 10
393.360000
 20
161.760000
 30
0.0
 10
387.360000
 20
162.080000
 30
0.0
 10
386.400000
 20
164.400000
 30
0.0
  0
SPLINE
  5
10b
100
AcDbEntity
  8
0
 62
7
100
AcDbSpline
 70
8
 71
3
 72
8
 73
4
 74
0
 40
0
 40
0
 40
0
 40
0
 40
1
 40
1
 40
1
 40
1
 10
386.400000
 20
164.400000
 30
0.0
 10
385.920000
 20
165.600000
 30
0.0
 10
385.680000
 20
165.680000
 30
0.0
 10
384.880000
 20
164.880000
 30
0.0
  0
SPLINE
  5
10c
100
AcDbEntity
  8
0
 62
7
100
AcDbSpline
 70
8
 71
3
 72
8
 73
4
 74
0
 40
0
 40
0
 40
0
 40
0
 40
1
 40
1
 40
1
 40
1
 10
384.880000
 20
164.880000
 30
0.0
 10
383.680000
 20
163.680000
 30
0.0
 10
380.720000
 20
164.800000
 30
0.0
 10
380.320000
 20
166.800000
 30
0.0
  0
SPLINE
  5
10d
100
AcDbEntity
  8
0
 62
7
100
AcDbSpline
 70
8
 71
3
 72
8
 73
4
 74
0
 40
0
 40
0
 40
0
 40
0
 40
1
 40
1
 40
1
 40
1
 10
380.320000
 20
166.800000
 30
0.0
 10
380.000000
 20
168.080000
 30
0.0
 10
379.920000
 20
168.080000
 30
0.0
 10
378.720000
 20
167.040000
 30
0.0
  0
SPLINE
  5
10e
100
AcDbEntity
  8
0
 62
7
100
AcDbSpline
 70
8
 71
3
 72
8
 73
4
 74
0
 40
0
 40
0
 40
0
 40
0
 40
1
 40
1
 40
1
 40
1
 10
378.720000
 20
167.040000
 30
0.0
 10
377.680000
 20
166.080000
 30
0.0
 10
377.280000
 20
166.080000
 30
0.0
 10
376.000000
 20
166.800000
 30
0.0
  0
SPLINE
  5
10f
100
AcDbEntity
  8
0
 62
7
100
AcDbSpline
 70
8
 71
3
 72
8
 73
4
 74
0
 40
0
 40
0
 40
0
 40
0
 40
1
 40
1
 40
1
 40
1
 10
376.000000
 20
166.800000
 30
0.0
 10
375.120000
 20
167.200000
 30
0.0
 10
374.480000
 20
168.000000
 30
0.0
 10
374.480000
 20
168.400000
 30
0.0
  0
SPLINE
  5
110
100
AcDbEntity
  8
0
 62
7
100
AcDbSpline
 70
8
 71
3
 72
8
 73
4
 74
0
 40
0
 40
0
 40
0
 40
0
 40
1
 40
1
 40
1
 40
1
 10
374.480000
 20
168.400000
 30
0.0
 10
374.480000
 20
168.880000
 30
0.0
 10
373.600000
 20
169.360000
 30
0.0
 10
372.560000
 20
169.520000
 30
0.0
  0
SPLINE
  5
111
100
AcDbEntity
  8
0
 62
7
100
AcDbSpline
 70
8
 71
3
 72
8
 73
4
 74
0
 40
0
 40
0
 40
0
 40
0
 40
1
 40
1
 40
1
 40
1
 10
372.560000
 20
169.520000
 30
0.0
 10
371.520000
 20
169.680000
 30
0.0
 10
370.000000
 20
170.880000
 30
0.0
 10
369.120000
 20
172.160000
 30
0.0
  0
SPLINE
  5
112
100
AcDbEntity
  8
0
 62
7
100
AcDbSpline
 70
8
 71
3
 72
8
 73
4
 74
0
 40
0
 40
0
 40
0
 40
0
 40
1
 40
1
 40
1
 40
1
 10
369.120000
 20
172.160000
 30
0.0
 10
367.680000
 20
174.160000
 30
0.0
 10
367.600000
 20
175.040000
 30
0.0
 10
368.560000
 20
179.360000
 30
0.0
  0
SPLINE
  5
113
100
AcDbEntity
  8
0
 62
7
100
AcDbSpline
 70
8
 71
3
 72
8
 73
4
 74
0
 40
0
 40
0
 40
0
 40
0
 40
1
 40
1
 40
1
 40
1
 10
368.560000
 20
179.360000
 30
0.0
 10
369.120000
 20
182.000000
 30
0.0
 10
370.080000
 20
185.520000
 30
0.0
 10
370.640000
 20
187.120000
 30
0.0
  0
SPLINE
  5
114
100
AcDbEntity
  8
0
 62
7
100
AcDbSpline
 70
8
 71
3
 72
8
 73
4
 74
0
 40
0
 40
0
 40
0
 40
0
 40
1
 40
1
 40
1
 40
1
 10
370.640000
 20
187.120000
 30
0.0
 10
371.200000
 20
188.640000
 30
0.0
 10
372.080000
 20
191.600000
 30
0.0
 10
372.640000
 20
193.680000
 30
0.0
  0
SPLINE
  5
115
100
AcDbEntity
  8
0
 62
7
100
AcDbSpline
 70
8
 71
3
 72
8
 73
4
 74
0
 40
0
 40
0
 40
0
 40
0
 40
1
 40
1
 40
1
 40
1
 10
372.640000
 20
193.680000
 30
0.0
 10
373.120000
 20
195.760000
 30
0.0
 10
374.880000
 20
199.200000
 30
0.0
 10
376.400000
 20
201.280000
 30
0.0
  0
SPLINE
  5
116
100
AcDbEntity
  8
0
 62
7
100
AcDbSpline
 70
8
 71
3
 72
8
 73
4
 74
0
 40
0
 40
0
 40
0
 40
0
 40
1
 40
1
 40
1
 40
1
 10
376.400000
 20
201.280000
 30
0.0
 10
377.920000
 20
203.440000
 30
0.0
 10
379.200000
 20
205.760000
 30
0.0
 10
379.200000
 20
206.640000
 30
0.0
  0
SPLINE
  5
117
100
AcDbEntity
  8
0
 62
7
100
AcDbSpline
 70
8
 71
3
 72
8
 73
4
 74
0
 40
0
 40
0
 40
0
 40
0
 40
1
 40
1
 40
1
 40
1
 10
379.200000
 20
206.640000
 30
0.0
 10
379.200000
 20
207.440000
 30
0.0
 10
379.600000
 20
208.640000
 30
0.0
 10
380.160000
 20
209.360000
 30
0.0
  0
SPLINE
  5
118
100
AcDbEntity
  8
0
 62
7
100
AcDbSpline
 70
8
 71
3
 72
8
 73
4
 74
0
 40
0
 40
0
 40
0
 40
0
 40
1
 40
1
 40
1
 40
1
 10
380.160000
 20
209.360000
 30
0.0
 10
383.200000
 20
213.120000
 30
0.0
 10
397.520000
 20
251.440000
 30
0.0
 10
401.440000
 20
266.320000
 30
0.0
  0
SPLINE
  5
119
100
AcDbEntity
  8
0
 62
7
100
AcDbSpline
 70
8
 71
3
 72
8
 73
4
 74
0
 40
0
 40
0
 40
0
 40
0
 40
1
 40
1
 40
1
 40
1
 10
401.440000
 20
266.320000
 30
0.0
 10
402.640000
 20
271.040000
 30
0.0
 10
404.080000
 20
276.080000
 30
0.0
 10
404.640000
 20
277.680000
 30
0.0
  0
SPLINE
  5
11a
100
AcDbEntity
  8
0
 62
7
100
AcDbSpline
 70
8
 71
3
 72
8
 73
4
 74
0
 40
0
 40
0
 40
0
 40
0
 40
1
 40
1
 40
1
 40
1
 10
404.640000
 20
277.680000
 30
0.0
 10
405.840000
 20
281.200000
 30
0.0
 10
405.360000
 20
281.680000
 30
0.0
 10
401.360000
 20
281.200000
 30
0.0
  0
SPLINE
  5
11b
100
AcDbEntity
  8
0
 62
7
100
AcDbSpline
 70
8
 71
3
 72
8
 73
4
 74
0
 40
0
 40
0
 40
0
 40
0
 40
1
 40
1
 40
1
 40
1
 10
401.360000
 20
281.200000
 30
0.0
 10
397.840000
 20
280.800000
 30
0.0
 10
387.680000
 20
279.920000
 30
0.0
 10
373.120000
 20
278.960000
 30
0.0
  0
SPLINE
  5
11c
100
AcDbEntity
  8
0
 62
7
100
AcDbSpline
 70
8
 71
3
 72
8
 73
4
 74
0
 40
0
 40
0
 40
0
 40
0
 40
1
 40
1
 40
1
 40
1
 10
373.120000
 20
278.960000
 30
0.0
 10
366.320000
 20
278.480000
 30
0.0
 10
363.040000
 20
277.920000
 30
0.0
 10
361.360000
 20
277.040000
 30
0.0
  0
SPLINE
  5
11d
100
AcDbEntity
  8
0
 62
7
100
AcDbSpline
 70
8
 71
3
 72
8
 73
4
 74
0
 40
0
 40
0
 40
0
 40
0
 40
1
 40
1
 40
1
 40
1
 10
361.360000
 20
277.040000
 30
0.0
 10
358.720000
 20
275.600000
 30
0.0
 10
356.160000
 20
275.840000
 30
0.0
 10
352.960000
 20
277.840000
 30
0.0
  0
SPLINE
  5
11e
100
AcDbEntity
  8
0
 62
7
100
AcDbSpline
 70
8
 71
3
 72
8
 73
4
 74
0
 40
0
 40
0
 40
0
 40
0
 40
1
 40
1
 40
1
 40
1
 10
352.960000
 20
277.840000
 30
0.0
 10
349.440000
 20
280.000000
 30
0.0
 10
343.040000
 20
280.000000
 30
0.0
 10
333.760000
 20
277.840000
 30
0.0
  0
LINE
  5
11f
100
AcDbEntity
  8
0
 62
7
100
AcDbLine
 10
333.760000
 20
277.840000
 30
0.0
 11
325.680000
 21
276.000000
 31
0.0
  0
LINE
  5
120
100
AcDbEntity
  8
0
 62
7
100
AcDbLine
 10
325.680000
 20
276.000000
 30
0.0
 11
325.120000
 21
273.360000
 31
0.0
  0
SPLINE
  5
121
100
AcDbEntity
  8
0
 62
7
100
AcDbSpline
 70
8
 71
3
 72
8
 73
4
 74
0
 40
0
 40
0
 40
0
 40
0
 40
1
 40
1
 40
1
 40
1
 10
325.120000
 20
273.360000
 30
0.0
 10
324.480000
 20
270.320000
 30
0.0
 10
323.840000
 20
269.680000
 30
0.0
 10
322.160000
 20
270.560000
 30
0.0
  0
SPLINE
  5
122
100
AcDbEntity
  8
0
 62
7
100
AcDbSpline
 70
8
 71
3
 72
8
 73
4
 74
0
 40
0
 40
0
 40
0
 40
0
 40
1
 40
1
 40
1
 40
1
 10
322.160000
 20
270.560000
 30
0.0
 10
321.440000
 20
270.960000
 30
0.0
 10
319.680000
 20
271.360000
 30
0.0
 10
318.080000
 20
271.440000
 30
0.0
  0
SPLINE
  5
123
100
AcDbEntity
  8
0
 62
7
100
AcDbSpline
 70
8
 71
3
 72
8
 73
4
 74
0
 40
0
 40
0
 40
0
 40
0
 40
1
 40
1
 40
1
 40
1
 10
318.080000
 20
271.440000
 30
0.0
 10
315.760000
 20
271.680000
 30
0.0
 10
315.200000
 20
272.000000
 30
0.0
 10
314.800000
 20
273.600000
 30
0.0
  0
SPLINE
  5
124
100
AcDbEntity
  8
0
 62
7
100
AcDbSpline
 70
8
 71
3
 72
8
 73
4
 74
0
 40
0
 40
0
 40
0
 40
0
 40
1
 40
1
 40
1
 40
1
 10
314.800000
 20
273.600000
 30
0.0
 10
314.080000
 20
276.160000
 30
0.0
 10
310.960000
 20
276.480000
 30
0.0
 10
308.240000
 20
274.160000
 30
0.0
  0
SPLINE
  5
125
100
AcDbEntity
  8
0
 62
7
100
AcDbSpline
 70
8
 71
3
 72
8
 73
4
 74
0
 40
0
 40
0
 40
0
 40
0
 40
1
 40
1
 40
1
 40
1
 10
308.240000
 20
274.160000
 30
0.0
 10
307.120000
 20
273.200000
 30
0.0
 10
306.240000
 20
272.000000
 30
0.0
 10
306.240000
 20
271.520000
 30
0.0
  0
SPLINE
  5
126
100
AcDbEntity
  8
0
 62
7
100
AcDbSpline
 70
8
 71
3
 72
8
 73
4
 74
0
 40
0
 40
0
 40
0
 40
0
 40
1
 40
1
 40
1
 40
1
 10
306.240000
 20
271.520000
 30
0.0
 10
306.240000
 20
269.520000
 30
0.0
 10
299.680000
 20
267.840000
 30
0.0
 10
298.160000
 20
269.520000
 30
0.0
  0
SPLINE
  5
127
100
AcDbEntity
  8
0
 62
7
100
AcDbSpline
 70
8
 71
3
 72
8
 73
4
 74
0
 40
0
 40
0
 40
0
 40
0
 40
1
 40
1
 40
1
 40
1
 10
298.160000
 20
269.520000
 30
0.0
 10
297.840000
 20
269.840000
 30
0.0
 10
296.240000
 20
270.000000
 30
0.0
 10
294.400000
 20
269.760000
 30
0.0
  0
SPLINE
  5
128
100
AcDbEntity
  8
0
 62
7
100
AcDbSpline
 70
8
 71
3
 72
8
 73
4
 74
0
 40
0
 40
0
 40
0
 40
0
 40
1
 40
1
 40
1
 40
1
 10
294.400000
 20
269.760000
 30
0.0
 10
291.680000
 20
269.360000
 30
0.0
 10
291.040000
 20
269.600000
 30
0.0
 10
289.120000
 20
271.360000
 30
0.0
  0
SPLINE
  5
129
100
AcDbEntity
  8
0
 62
7
100
AcDbSpline
 70
8
 71
3
 72
8
 73
4
 74
0
 40
0
 40
0
 40
0
 40
0
 40
1
 40
1
 40
1
 40
1
 10
289.120000
 20
271.360000
 30
0.0
 10
287.920000
 20
272.400000
 30
0.0
 10
286.480000
 20
273.200000
 30
0.0
 10
285.920000
 20
273.040000
 30
0.0
  0
SPLINE
  5
12a
100
AcDbEntity
  8
0
 62
7
100
AcDbSpline
 70
8
 71
3
 72
8
 73
4
 74
0
 40
0
 40
0
 40
0
 40
0
 40
1
 40
1
 40
1
 40
1
 10
285.920000
 20
273.040000
 30
0.0
 10
285.360000
 20
272.880000
 30
0.0
 10
282.800000
 20
274.000000
 30
0.0
 10
280.240000
 20
275.520000
 30
0.0
  0
SPLINE
  5
12b
100
AcDbEntity
  8
0
 62
7
100
AcDbSpline
 70
8
 71
3
 72
8
 73
4
 74
0
 40
0
 40
0
 40
0
 40
0
 40
1
 40
1
 40
1
 40
1
 10
280.240000
 20
275.520000
 30
0.0
 10
275.840000
 20
278.080000
 30
0.0
 10
275.600000
 20
278.320000
 30
0.0
 10
275.200000
 20
282.000000
 30
0.0
  0
SPLINE
  5
12c
100
AcDbEntity
  8
0
 62
7
100
AcDbSpline
 70
8
 71
3
 72
8
 73
4
 74
0
 40
0
 40
0
 40
0
 40
0
 40
1
 40
1
 40
1
 40
1
 10
275.200000
 20
282.000000
 30
0.0
 10
274.800000
 20
285.440000
 30
0.0
 10
274.320000
 20
286.160000
 30
0.0
 10
270.080000
 20
289.680000
 30
0.0
  0
SPLINE
  5
12d
100
AcDbEntity
  8
0
 62
7
100
AcDbSpline
 70
8
 71
3
 72
8
 73
4
 74
0
 40
0
 40
0
 40
0
 40
0
 40
1
 40
1
 40
1
 40
1
 10
270.080000
 20
289.680000
 30
0.0
 10
265.760000
 20
293.280000
 30
0.0
 10
265.120000
 20
293.600000
 30
0.0
 10
262.640000
 20
293.200000
 30
0.0
  0
SPLINE
  5
12e
100
AcDbEntity
  8
0
 62
7
100
AcDbSpline
 70
8
 71
3
 72
8
 73
4
 74
0
 40
0
 40
0
 40
0
 40
0
 40
1
 40
1
 40
1
 40
1
 10
262.640000
 20
293.200000
 30
0.0
 10
260.480000
 20
292.880000
 30
0.0
 10
259.840000
 20
293.040000
 30
0.0
 10
259.840000
 20
293.760000
 30
0.0
  0
SPLINE
  5
12f
100
AcDbEntity
  8
0
 62
7
100
AcDbSpline
 70
8
 71
3
 72
8
 73
4
 74
0
 40
0
 40
0
 40
0
 40
0
 40
1
 40
1
 40
1
 40
1
 10
259.840000
 20
293.760000
 30
0.0
 10
259.840000
 20
294.320000
 30
0.0
 10
259.040000
 20
294.880000
 30
0.0
 10
258.160000
 20
295.120000
 30
0.0
  0
SPLINE
  5
130
100
AcDbEntity
  8
0
 62
7
100
AcDbSpline
 70
8
 71
3
 72
8
 73
4
 74
0
 40
0
 40
0
 40
0
 40
0
 40
1
 40
1
 40
1
 40
1
 10
258.160000
 20
295.120000
 30
0.0
 10
257.200000
 20
295.280000
 30
0.0
 10
255.120000
 20
296.720000
 30
0.0
 10
253.440000
 20
298.240000
 30
0.0
  0
SPLINE
  5
131
100
AcDbEntity
  8
0
 62
7
100
AcDbSpline
 70
8
 71
3
 72
8
 73
4
 74
0
 40
0
 40
0
 40
0
 40
0
 40
1
 40
1
 40
1
 40
1
 10
253.440000
 20
298.240000
 30
0.0
 10
251.840000
 20
299.840000
 30
0.0
 10
249.200000
 20
301.520000
 30
0.0
 10
247.680000
 20
302.000000
 30
0.0
  0
SPLINE
  5
132
100
AcDbEntity
  8
0
 62
7
100
AcDbSpline
 70
8
 71
3
 72
8
 73
4
 74
0
 40
0
 40
0
 40
0
 40
0
 40
1
 40
1
 40
1
 40
1
 10
247.680000
 20
302.000000
 30
0.0
 10
244.960000
 20
302.960000
 30
0.0
 10
244.800000
 20
302.960000
 30
0.0
 10
232.720000
 20
297.520000
 30
0.0
  0
SPLINE
  5
133
100
AcDbEntity
  8
0
 62
7
100
AcDbSpline
 70
8
 71
3
 72
8
 73
4
 74
0
 40
0
 40
0
 40
0
 40
0
 40
1
 40
1
 40
1
 40
1
 10
232.720000
 20
297.520000
 30
0.0
 10
226.000000
 20
294.560000
 30
0.0
 10
216.560000
 20
289.760000
 30
0.0
 10
211.600000
 20
286.960000
 30
0.0
  0
SPLINE
  5
134
100
AcDbEntity
  8
0
 62
7
100
AcDbSpline
 70
8
 71
3
 72
8
 73
4
 74
0
 40
0
 40
0
 40
0
 40
0
 40
1
 40
1
 40
1
 40
1
 10
211.600000
 20
286.960000
 30
0.0
 10
202.240000
 20
281.520000
 30
0.0
 10
189.120000
 20
275.200000
 30
0.0
 10
187.360000
 20
275.200000
 30
0.0
  0
SPLINE
  5
135
100
AcDbEntity
  8
0
 62
7
100
AcDbSpline
 70
8
 71
3
 72
8
 73
4
 74
0
 40
0
 40
0
 40
0
 40
0
 40
1
 40
1
 40
1
 40
1
 10
187.360000
 20
275.200000
 30
0.0
 10
185.120000
 20
275.200000
 30
0.0
 10
169.440000
 20
269.200000
 30
0.0
 10
162.000000
 20
265.520000
 30
0.0
  0
SPLINE
  5
136
100
AcDbEntity
  8
0
 62
7
100
AcDbSpline
 70
8
 71
3
 72
8
 73
4
 74
0
 40
0
 40
0
 40
0
 40
0
 40
1
 40
1
 40
1
 40
1
 10
162.000000
 20
265.520000
 30
0.0
 10
157.600000
 20
263.360000
 30
0.0
 10
150.080000
 20
259.760000
 30
0.0
 10
145.360000
 20
257.520000
 30
0.0
  0
SPLINE
  5
137
100
AcDbEntity
  8
0
 62
7
100
AcDbSpline
 70
8
 71
3
 72
8
 73
4
 74
0
 40
0
 40
0
 40
0
 40
0
 40
1
 40
1
 40
1
 40
1
 10
145.360000
 20
257.520000
 30
0.0
 10
140.640000
 20
255.280000
 30
0.0
 10
136.720000
 20
253.040000
 30
0.0
 10
136.720000
 20
252.560000
 30
0.0
  0
SPLINE
  5
138
100
AcDbEntity
  8
0
 62
7
100
AcDbSpline
 70
8
 71
3
 72
8
 73
4
 74
0
 40
0
 40
0
 40
0
 40
0
 40
1
 40
1
 40
1
 40
1
 10
136.720000
 20
252.560000
 30
0.0
 10
136.720000
 20
252.080000
 30
0.0
 10
135.040000
 20
250.560000
 30
0.0
 10
132.960000
 20
249.200000
 30
0.0
  0
SPLINE
  5
139
100
AcDbEntity
  8
0
 62
7
100
AcDbSpline
 70
8
 71
3
 72
8
 73
4
 74
0
 40
0
 40
0
 40
0
 40
0
 40
1
 40
1
 40
1
 40
1
 10
132.960000
 20
249.200000
 30
0.0
 10
130.880000
 20
247.760000
 30
0.0
 10
129.120000
 20
246.080000
 30
0.0
 10
129.120000
 20
245.360000
 30
0.0
  0
SPLINE
  5
13a
100
AcDbEntity
  8
0
 62
7
100
AcDbSpline
 70
8
 71
3
 72
8
 73
4
 74
0
 40
0
 40
0
 40
0
 40
0
 40
1
 40
1
 40
1
 40
1
 10
129.120000
 20
245.360000
 30
0.0
 10
129.120000
 20
244.480000
 30
0.0
 10
128.560000
 20
244.160000
 30
0.0
 10
127.040000
 20
244.320000
 30
0.0
  0
SPLINE
  5
13b
100
AcDbEntity
  8
0
 62
7
100
AcDbSpline
 70
8
 71
3
 72
8
 73
4
 74
0
 40
0
 40
0
 40
0
 40
0
 40
1
 40
1
 40
1
 40
1
 10
127.040000
 20
244.320000
 30
0.0
 10
125.840000
 20
244.400000
 30
0.0
 10
124.640000
 20
244.720000
 30
0.0
 10
124.320000
 20
244.960000
 30
0.0
  0
SPLINE
  5
13c
100
AcDbEntity
  8
0
 62
7
100
AcDbSpline
 70
8
 71
3
 72
8
 73
4
 74
0
 40
0
 40
0
 40
0
 40
0
 40
1
 40
1
 40
1
 40
1
 10
124.320000
 20
244.960000
 30
0.0
 10
123.440000
 20
245.760000
 30
0.0
 10
121.600000
 20
244.880000
 30
0.0
 10
121.520000
 20
243.600000
 30
0.0
  0
SPLINE
  5
13d
100
AcDbEntity
  8
0
 62
7
100
AcDbSpline
 70
8
 71
3
 72
8
 73
4
 74
0
 40
0
 40
0
 40
0
 40
0
 40
1
 40
1
 40
1
 40
1
 10
121.520000
 20
243.600000
 30
0.0
 10
121.520000
 20
243.040000
 30
0.0
 10
118.480000
 20
240.960000
 30
0.0
 10
114.880000
 20
239.120000
 30
0.0
  0
SPLINE
  5
13e
100
AcDbEntity
  8
0
 62
7
100
AcDbSpline
 70
8
 71
3
 72
8
 73
4
 74
0
 40
0
 40
0
 40
0
 40
0
 40
1
 40
1
 40
1
 40
1
 10
114.880000
 20
239.120000
 30
0.0
 10
108.880000
 20
236.000000
 30
0.0
 10
108.320000
 20
235.520000
 30
0.0
 10
108.800000
 20
233.920000
 30
0.0
  0
SPLINE
  5
13f
100
AcDbEntity
  8
0
 62
7
100
AcDbSpline
 70
8
 71
3
 72
8
 73
4
 74
0
 40
0
 40
0
 40
0
 40
0
 40
1
 40
1
 40
1
 40
1
 10
108.800000
 20
233.920000
 30
0.0
 10
109.600000
 20
231.440000
 30
0.0
 10
106.560000
 20
230.080000
 30
0.0
 10
102.080000
 20
230.880000
 30
0.0
  0
SPLINE
  5
140
100
AcDbEntity
  8
0
 62
7
100
AcDbSpline
 70
8
 71
3
 72
8
 73
4
 74
0
 40
0
 40
0
 40
0
 40
0
 40
1
 40
1
 40
1
 40
1
 10
102.080000
 20
230.880000
 30
0.0
 10
99.360000
 20
231.440000
 30
0.0
 10
98.080000
 20
231.200000
 30
0.0
 10
93.200000
 20
229.520000
 30
0.0
  0
SPLINE
  5
141
100
AcDbEntity
  8
0
 62
7
100
AcDbSpline
 70
8
 71
3
 72
8
 73
4
 74
0
 40
0
 40
0
 40
0
 40
0
 40
1
 40
1
 40
1
 40
1
 10
93.200000
 20
229.520000
 30
0.0
 10
88.000000
 20
227.680000
 30
0.0
 10
87.440000
 20
227.360000
 30
0.0
 10
87.440000
 20
225.520000
 30
0.0
  0
SPLINE
  5
142
100
AcDbEntity
  8
0
 62
7
100
AcDbSpline
 70
8
 71
3
 72
8
 73
4
 74
0
 40
0
 40
0
 40
0
 40
0
 40
1
 40
1
 40
1
 40
1
 10
87.440000
 20
225.520000
 30
0.0
 10
87.440000
 20
223.200000
 30
0.0
 10
86.000000
 20
221.840000
 30
0.0
 10
84.000000
 20
222.400000
 30
0.0
  0
SPLINE
  5
143
100
AcDbEntity
  8
0
 62
7
100
AcDbSpline
 70
8
 71
3
 72
8
 73
4
 74
0
 40
0
 40
0
 40
0
 40
0
 40
1
 40
1
 40
1
 40
1
 10
84.000000
 20
222.400000
 30
0.0
 10
83.120000
 20
222.640000
 30
0.0
 10
82.400000
 20
222.240000
 30
0.0
 10
82.080000
 20
221.360000
 30
0.0
  0
SPLINE
  5
144
100
AcDbEntity
  8
0
 62
7
100
AcDbSpline
 70
8
 71
3
 72
8
 73
4
 74
0
 40
0
 40
0
 40
0
 40
0
 40
1
 40
1
 40
1
 40
1
 10
82.080000
 20
221.360000
 30
0.0
 10
81.600000
 20
220.160000
 30
0.0
 10
81.120000
 20
220.000000
 30
0.0
 10
77.920000
 20
220.400000
 30
0.0
  0
SPLINE
  5
145
100
AcDbEntity
  8
0
 62
7
100
AcDbSpline
 70
8
 71
3
 72
8
 73
4
 74
0
 40
0
 40
0
 40
0
 40
0
 40
1
 40
1
 40
1
 40
1
 10
77.920000
 20
220.400000
 30
0.0
 10
74.400000
 20
220.800000
 30
0.0
 10
74.240000
 20
220.720000
 30
0.0
 10
71.440000
 20
217.680000
 30
0.0
  0
SPLINE
  5
146
100
AcDbEntity
  8
0
 62
7
100
AcDbSpline
 70
8
 71
3
 72
8
 73
4
 74
0
 40
0
 40
0
 40
0
 40
0
 40
1
 40
1
 40
1
 40
1
 10
71.440000
 20
217.680000
 30
0.0
 10
69.840000
 20
216.000000
 30
0.0
 10
68.560000
 20
214.240000
 30
0.0
 10
68.560000
 20
213.840000
 30
0.0
  0
SPLINE
  5
147
100
AcDbEntity
  8
0
 62
7
100
AcDbSpline
 70
8
 71
3
 72
8
 73
4
 74
0
 40
0
 40
0
 40
0
 40
0
 40
1
 40
1
 40
1
 40
1
 10
68.560000
 20
213.840000
 30
0.0
 10
68.480000
 20
212.000000
 30
0.0
 10
62.640000
 20
204.480000
 30
0.0
 10
60.240000
 20
203.200000
 30
0.0
  0
SPLINE
  5
148
100
AcDbEntity
  8
0
 62
7
100
AcDbSpline
 70
8
 71
3
 72
8
 73
4
 74
0
 40
0
 40
0
 40
0
 40
0
 40
1
 40
1
 40
1
 40
1
 10
60.240000
 20
203.200000
 30
0.0
 10
58.080000
 20
202.000000
 30
0.0
 10
57.840000
 20
201.440000
 30
0.0
 10
57.680000
 20
196.880000
 30
0.0
  0
SPLINE
  5
149
100
AcDbEntity
  8
0
 62
7
100
AcDbSpline
 70
8
 71
3
 72
8
 73
4
 74
0
 40
0
 40
0
 40
0
 40
0
 40
1
 40
1
 40
1
 40
1
 10
57.680000
 20
196.880000
 30
0.0
 10
57.520000
 20
194.080000
 30
0.0
 10
56.880000
 20
190.720000
 30
0.0
 10
56.240000
 20
189.280000
 30
0.0
  0
SPLINE
  5
14a
100
AcDbEntity
  8
0
 62
7
100
AcDbSpline
 70
8
 71
3
 72
8
 73
4
 74
0
 40
0
 40
0
 40
0
 40
0
 40
1
 40
1
 40
1
 40
1
 10
56.240000
 20
189.280000
 30
0.0
 10
55.520000
 20
187.920000
 30
0.0
 10
54.880000
 20
184.800000
 30
0.0
 10
54.720000
 20
182.320000
 30
0.0
  0
SPLINE
  5
14b
100
AcDbEntity
  8
0
 62
7
100
AcDbSpline
 70
8
 71
3
 72
8
 73
4
 74
0
 40
0
 40
0
 40
0
 40
0
 40
1
 40
1
 40
1
 40
1
 10
54.720000
 20
182.320000
 30
0.0
 10
54.480000
 20
176.560000
 30
0.0
 10
52.640000
 20
165.520000
 30
0.0
 10
51.920000
 20
165.040000
 30
0.0
  0
SPLINE
  5
14c
100
AcDbEntity
  8
0
 62
7
100
AcDbSpline
 70
8
 71
3
 72
8
 73
4
 74
0
 40
0
 40
0
 40
0
 40
0
 40
1
 40
1
 40
1
 40
1
 10
51.920000
 20
165.040000
 30
0.0
 10
51.680000
 20
164.800000
 30
0.0
 10
47.280000
 20
164.560000
 30
0.0
 10
42.240000
 20
164.400000
 30
0.0
  0
SPLINE
  5
14d
100
AcDbEntity
  8
0
 62
7
100
AcDbSpline
 70
8
 71
3
 72
8
 73
4
 74
0
 40
0
 40
0
 40
0
 40
0
 40
1
 40
1
 40
1
 40
1
 10
42.240000
 20
164.400000
 30
0.0
 10
32.800000
 20
164.160000
 30
0.0
 10
23.840000
 20
164.880000
 30
0.0
 10
19.600000
 20
166.320000
 30
0.0
  0
LINE
  5
14e
100
AcDbEntity
  8
0
 62
7
100
AcDbLine
 10
19.600000
 20
166.320000
 30
0.0
 11
17.200000
 21
167.120000
 31
0.0
  0
LINE
  5
14f
100
AcDbEntity
  8
0
 62
7
100
AcDbLine
 10
17.200000
 20
167.120000
 30
0.0
 11
17.360000
 21
176.800000
 31
0.0
  0
SPLINE
  5
150
100
AcDbEntity
  8
0
 62
7
100
AcDbSpline
 70
8
 71
3
 72
8
 73
4
 74
0
 40
0
 40
0
 40
0
 40
0
 40
1
 40
1
 40
1
 40
1
 10
17.360000
 20
176.800000
 30
0.0
 10
17.440000
 20
183.520000
 30
0.0
 10
17.920000
 20
187.200000
 30
0.0
 10
18.800000
 20
188.560000
 30
0.0
  0
SPLINE
  5
151
100
AcDbEntity
  8
0
 62
7
100
AcDbSpline
 70
8
 71
3
 72
8
 73
4
 74
0
 40
0
 40
0
 40
0
 40
0
 40
1
 40
1
 40
1
 40
1
 10
18.800000
 20
188.560000
 30
0.0
 10
19.520000
 20
189.680000
 30
0.0
 10
22.720000
 20
196.240000
 30
0.0
 10
26.000000
 20
203.200000
 30
0.0
  0
SPLINE
  5
152
100
AcDbEntity
  8
0
 62
7
100
AcDbSpline
 70
8
 71
3
 72
8
 73
4
 74
0
 40
0
 40
0
 40
0
 40
0
 40
1
 40
1
 40
1
 40
1
 10
26.000000
 20
203.200000
 30
0.0
 10
29.200000
 20
210.160000
 30
0.0
 10
33.440000
 20
218.000000
 30
0.0
 10
35.520000
 20
220.640000
 30
0.0
  0
SPLINE
  5
153
100
AcDbEntity
  8
0
 62
7
100
AcDbSpline
 70
8
 71
3
 72
8
 73
4
 74
0
 40
0
 40
0
 40
0
 40
0
 40
1
 40
1
 40
1
 40
1
 10
35.520000
 20
220.640000
 30
0.0
 10
39.600000
 20
226.000000
 30
0.0
 10
49.680000
 20
234.400000
 30
0.0
 10
53.040000
 20
235.280000
 30
0.0
  0
SPLINE
  5
154
100
AcDbEntity
  8
0
 62
7
100
AcDbSpline
 70
8
 71
3
 72
8
 73
4
 74
0
 40
0
 40
0
 40
0
 40
0
 40
1
 40
1
 40
1
 40
1
 10
53.040000
 20
235.280000
 30
0.0
 10
56.400000
 20
236.160000
 30
0.0
 10
60.000000
 20
240.320000
 30
0.0
 10
58.960000
 20
242.160000
 30
0.0
  0
SPLINE
  5
155
100
AcDbEntity
  8
0
 62
7
100
AcDbSpline
 70
8
 71
3
 72
8
 73
4
 74
0
 40
0
 40
0
 40
0
 40
0
 40
1
 40
1
 40
1
 40
1
 10
58.960000
 20
242.160000
 30
0.0
 10
58.240000
 20
243.360000
 30
0.0
 10
58.560000
 20
244.080000
 30
0.0
 10
60.480000
 20
245.760000
 30
0.0
  0
SPLINE
  5
156
100
AcDbEntity
  8
0
 62
7
100
AcDbSpline
 70
8
 71
3
 72
8
 73
4
 74
0
 40
0
 40
0
 40
0
 40
0
 40
1
 40
1
 40
1
 40
1
 10
60.480000
 20
245.760000
 30
0.0
 10
64.000000
 20
248.880000
 30
0.0
 10
67.280000
 20
249.840000
 30
0.0
 10
66.720000
 20
247.680000
 30
0.0
  0
SPLINE
  5
157
100
AcDbEntity
  8
0
 62
7
100
AcDbSpline
 70
8
 71
3
 72
8
 73
4
 74
0
 40
0
 40
0
 40
0
 40
0
 40
1
 40
1
 40
1
 40
1
 10
66.720000
 20
247.680000
 30
0.0
 10
66.640000
 20
247.440000
 30
0.0
 10
67.120000
 20
247.280000
 30
0.0
 10
67.760000
 20
247.440000
 30
0.0
  0
SPLINE
  5
158
100
AcDbEntity
  8
0
 62
7
100
AcDbSpline
 70
8
 71
3
 72
8
 73
4
 74
0
 40
0
 40
0
 40
0
 40
0
 40
1
 40
1
 40
1
 40
1
 10
67.760000
 20
247.440000
 30
0.0
 10
68.480000
 20
247.600000
 30
0.0
 10
69.680000
 20
248.800000
 30
0.0
 10
70.400000
 20
250.240000
 30
0.0
  0
SPLINE
  5
159
100
AcDbEntity
  8
0
 62
7
100
AcDbSpline
 70
8
 71
3
 72
8
 73
4
 74
0
 40
0
 40
0
 40
0
 40
0
 40
1
 40
1
 40
1
 40
1
 10
70.400000
 20
250.240000
 30
0.0
 10
72.480000
 20
253.840000
 30
0.0
 10
78.400000
 20
260.000000
 30
0.0
 10
81.840000
 20
262.160000
 30
0.0
  0
SPLINE
  5
15a
100
AcDbEntity
  8
0
 62
7
100
AcDbSpline
 70
8
 71
3
 72
8
 73
4
 74
0
 40
0
 40
0
 40
0
 40
0
 40
1
 40
1
 40
1
 40
1
 10
81.840000
 20
262.160000
 30
0.0
 10
86.720000
 20
265.280000
 30
0.0
 10
91.440000
 20
270.000000
 30
0.0
 10
96.480000
 20
276.880000
 30
0.0
  0
SPLINE
  5
15b
100
AcDbEntity
  8
0
 62
7
100
AcDbSpline
 70
8
 71
3
 72
8
 73
4
 74
0
 40
0
 40
0
 40
0
 40
0
 40
1
 40
1
 40
1
 40
1
 10
96.480000
 20
276.880000
 30
0.0
 10
99.360000
 20
280.800000
 30
0.0
 10
101.760000
 20
283.360000
 30
0.0
 10
102.640000
 20
283.360000
 30
0.0
  0
SPLINE
  5
15c
100
AcDbEntity
  8
0
 62
7
100
AcDbSpline
 70
8
 71
3
 72
8
 73
4
 74
0
 40
0
 40
0
 40
0
 40
0
 40
1
 40
1
 40
1
 40
1
 10
102.640000
 20
283.360000
 30
0.0
 10
103.440000
 20
283.440000
 30
0.0
 10
105.440000
 20
284.000000
 30
0.0
 10
107.120000
 20
284.640000
 30
0.0
  0
SPLINE
  5
15d
100
AcDbEntity
  8
0
 62
7
100
AcDbSpline
 70
8
 71
3
 72
8
 73
4
 74
0
 40
0
 40
0
 40
0
 40
0
 40
1
 40
1
 40
1
 40
1
 10
107.120000
 20
284.640000
 30
0.0
 10
108.880000
 20
285.360000
 30
0.0
 10
110.880000
 20
285.920000
 30
0.0
 10
111.680000
 20
285.920000
 30
0.0
  0
SPLINE
  5
15e
100
AcDbEntity
  8
0
 62
7
100
AcDbSpline
 70
8
 71
3
 72
8
 73
4
 74
0
 40
0
 40
0
 40
0
 40
0
 40
1
 40
1
 40
1
 40
1
 10
111.680000
 20
285.920000
 30
0.0
 10
112.480000
 20
285.920000
 30
0.0
 10
115.360000
 20
287.120000
 30
0.0
 10
118.080000
 20
288.560000
 30
0.0
  0
SPLINE
  5
15f
100
AcDbEntity
  8
0
 62
7
100
AcDbSpline
 70
8
 71
3
 72
8
 73
4
 74
0
 40
0
 40
0
 40
0
 40
0
 40
1
 40
1
 40
1
 40
1
 10
118.080000
 20
288.560000
 30
0.0
 10
123.600000
 20
291.440000
 30
0.0
 10
140.080000
 20
298.000000
 30
0.0
 10
141.840000
 20
298.000000
 30
0.0
  0
SPLINE
  5
160
100
AcDbEntity
  8
0
 62
7
100
AcDbSpline
 70
8
 71
3
 72
8
 73
4
 74
0
 40
0
 40
0
 40
0
 40
0
 40
1
 40
1
 40
1
 40
1
 10
141.840000
 20
298.000000
 30
0.0
 10
142.480000
 20
298.000000
 30
0.0
 10
143.600000
 20
298.720000
 30
0.0
 10
144.320000
 20
299.600000
 30
0.0
  0
SPLINE
  5
161
100
AcDbEntity
  8
0
 62
7
100
AcDbSpline
 70
8
 71
3
 72
8
 73
4
 74
0
 40
0
 40
0
 40
0
 40
0
 40
1
 40
1
 40
1
 40
1
 10
144.320000
 20
299.600000
 30
0.0
 10
145.920000
 20
301.520000
 30
0.0
 10
152.960000
 20
304.480000
 30
0.0
 10
154.880000
 20
304.000000
 30
0.0
  0
SPLINE
  5
162
100
AcDbEntity
  8
0
 62
7
100
AcDbSpline
 70
8
 71
3
 72
8
 73
4
 74
0
 40
0
 40
0
 40
0
 40
0
 40
1
 40
1
 40
1
 40
1
 10
154.880000
 20
304.000000
 30
0.0
 10
155.600000
 20
303.760000
 30
0.0
 10
158.880000
 20
305.360000
 30
0.0
 10
162.800000
 20
307.840000
 30
0.0
  0
SPLINE
  5
163
100
AcDbEntity
  8
0
 62
7
100
AcDbSpline
 70
8
 71
3
 72
8
 73
4
 74
0
 40
0
 40
0
 40
0
 40
0
 40
1
 40
1
 40
1
 40
1
 10
162.800000
 20
307.840000
 30
0.0
 10
166.400000
 20
310.160000
 30
0.0
 10
170.640000
 20
312.720000
 30
0.0
 10
172.240000
 20
313.600000
 30
0.0
  0
SPLINE
  5
164
100
AcDbEntity
  8
0
 62
7
100
AcDbSpline
 70
8
 71
3
 72
8
 73
4
 74
0
 40
0
 40
0
 40
0
 40
0
 40
1
 40
1
 40
1
 40
1
 10
172.240000
 20
313.600000
 30
0.0
 10
175.680000
 20
315.600000
 30
0.0
 10
187.680000
 20
326.880000
 30
0.0
 10
188.480000
 20
328.960000
 30
0.0
  0
SPLINE
  5
165
100
AcDbEntity
  8
0
 62
7
100
AcDbSpline
 70
8
 71
3
 72
8
 73
4
 74
0
 40
0
 40
0
 40
0
 40
0
 40
1
 40
1
 40
1
 40
1
 10
188.480000
 20
328.960000
 30
0.0
 10
188.960000
 20
330.160000
 30
0.0
 10
188.080000
 20
331.040000
 30
0.0
 10
183.520000
 20
334.000000
 30
0.0
  0
SPLINE
  5
166
100
AcDbEntity
  8
0
 62
7
100
AcDbSpline
 70
8
 71
3
 72
8
 73
4
 74
0
 40
0
 40
0
 40
0
 40
0
 40
1
 40
1
 40
1
 40
1
 10
183.520000
 20
334.000000
 30
0.0
 10
180.400000
 20
336.000000
 30
0.0
 10
176.400000
 20
338.880000
 30
0.0
 10
174.480000
 20
340.480000
 30
0.0
  0
SPLINE
  5
167
100
AcDbEntity
  8
0
 62
7
100
AcDbSpline
 70
8
 71
3
 72
8
 73
4
 74
0
 40
0
 40
0
 40
0
 40
0
 40
1
 40
1
 40
1
 40
1
 10
174.480000
 20
340.480000
 30
0.0
 10
171.840000
 20
342.640000
 30
0.0
 10
169.840000
 20
343.600000
 30
0.0
 10
165.760000
 20
344.560000
 30
0.0
  0
SPLINE
  5
168
100
AcDbEntity
  8
0
 62
7
100
AcDbSpline
 70
8
 71
3
 72
8
 73
4
 74
0
 40
0
 40
0
 40
0
 40
0
 40
1
 40
1
 40
1
 40
1
 10
165.760000
 20
344.560000
 30
0.0
 10
159.760000
 20
345.920000
 30
0.0
 10
159.040000
 20
346.720000
 30
0.0
 10
157.600000
 20
353.680000
 30
0.0
  0
SPLINE
  5
169
100
AcDbEntity
  8
0
 62
7
100
AcDbSpline
 70
8
 71
3
 72
8
 73
4
 74
0
 40
0
 40
0
 40
0
 40
0
 40
1
 40
1
 40
1
 40
1
 10
157.600000
 20
353.680000
 30
0.0
 10
156.960000
 20
356.720000
 30
0.0
 10
155.680000
 20
358.560000
 30
0.0
 10
150.400000
 20
364.000000
 30
0.0
  0
SPLINE
  5
16a
100
AcDbEntity
  8
0
 62
7
100
AcDbSpline
 70
8
 71
3
 72
8
 73
4
 74
0
 40
0
 40
0
 40
0
 40
0
 40
1
 40
1
 40
1
 40
1
 10
150.400000
 20
364.000000
 30
0.0
 10
136.320000
 20
378.560000
 30
0.0
 10
124.800000
 20
385.840000
 30
0.0
 10
111.440000
 20
388.560000
 30
0.0
  0
SPLINE
  5
16b
100
AcDbEntity
  8
0
 62
7
100
AcDbSpline
 70
8
 71
3
 72
8
 73
4
 74
0
 40
0
 40
0
 40
0
 40
0
 40
1
 40
1
 40
1
 40
1
 10
111.440000
 20
388.560000
 30
0.0
 10
103.920000
 20
390.160000
 30
0.0
 10
92.080000
 20
390.400000
 30
0.0
 10
86.320000
 20
389.040000
 30
0.0
  0
SPLINE
  5
16c
100
AcDbEntity
  8
0
 62
7
100
AcDbSpline
 70
8
 71
3
 72
8
 73
4
 74
0
 40
0
 40
0
 40
0
 40
0
 40
1
 40
1
 40
1
 40
1
 10
86.320000
 20
389.040000
 30
0.0
 10
76.240000
 20
386.720000
 30
0.0
 10
74.960000
 20
386.560000
 30
0.0
 10
73.920000
 20
387.280000
 30
0.0
  0
SPLINE
  5
16d
100
AcDbEntity
  8
0
 62
7
100
AcDbSpline
 70
8
 71
3
 72
8
 73
4
 74
0
 40
0
 40
0
 40
0
 40
0
 40
1
 40
1
 40
1
 40
1
 10
73.920000
 20
387.280000
 30
0.0
 10
72.400000
 20
388.320000
 30
0.0
 10
76.480000
 20
390.880000
 30
0.0
 10
83.680000
 20
393.200000
 30
0.0
  0
SPLINE
  5
16e
100
AcDbEntity
  8
0
 62
7
100
AcDbSpline
 70
8
 71
3
 72
8
 73
4
 74
0
 40
0
 40
0
 40
0
 40
0
 40
1
 40
1
 40
1
 40
1
 10
83.680000
 20
393.200000
 30
0.0
 10
89.520000
 20
395.120000
 30
0.0
 10
90.400000
 20
395.280000
 30
0.0
 10
100.720000
 20
395.280000
 30
0.0
  0
SPLINE
  5
16f
100
AcDbEntity
  8
0
 62
7
100
AcDbSpline
 70
8
 71
3
 72
8
 73
4
 74
0
 40
0
 40
0
 40
0
 40
0
 40
1
 40
1
 40
1
 40
1
 10
100.720000
 20
395.280000
 30
0.0
 10
110.880000
 20
395.280000
 30
0.0
 10
112.000000
 20
395.120000
 30
0.0
 10
117.280000
 20
393.360000
 30
0.0
  0
SPLINE
  5
170
100
AcDbEntity
  8
0
 62
7
100
AcDbSpline
 70
8
 71
3
 72
8
 73
4
 74
0
 40
0
 40
0
 40
0
 40
0
 40
1
 40
1
 40
1
 40
1
 10
117.280000
 20
393.360000
 30
0.0
 10
120.400000
 20
392.320000
 30
0.0
 10
123.280000
 20
391.520000
 30
0.0
 10
123.680000
 20
391.600000
 30
0.0
  0
SPLINE
  5
171
100
AcDbEntity
  8
0
 62
7
100
AcDbSpline
 70
8
 71
3
 72
8
 73
4
 74
0
 40
0
 40
0
 40
0
 40
0
 40
1
 40
1
 40
1
 40
1
 10
123.680000
 20
391.600000
 30
0.0
 10
124.080000
 20
391.680000
 30
0.0
 10
124.880000
 20
391.120000
 30
0.0
 10
125.440000
 20
390.400000
 30
0.0
  0
SPLINE
  5
172
100
AcDbEntity
  8
0
 62
7
100
AcDbSpline
 70
8
 71
3
 72
8
 73
4
 74
0
 40
0
 40
0
 40
0
 40
0
 40
1
 40
1
 40
1
 40
1
 10
125.440000
 20
390.400000
 30
0.0
 10
126.080000
 20
389.600000
 30
0.0
 10
129.360000
 20
387.120000
 30
0.0
 10
132.880000
 20
384.800000
 30
0.0
  0
SPLINE
  5
173
100
AcDbEntity
  8
0
 62
7
100
AcDbSpline
 70
8
 71
3
 72
8
 73
4
 74
0
 40
0
 40
0
 40
0
 40
0
 40
1
 40
1
 40
1
 40
1
 10
132.880000
 20
384.800000
 30
0.0
 10
136.960000
 20
382.080000
 30
0.0
 10
143.440000
 20
376.400000
 30
0.0
 10
151.440000
 20
368.320000
 30
0.0
  0
SPLINE
  5
174
100
AcDbEntity
  8
0
 62
7
100
AcDbSpline
 70
8
 71
3
 72
8
 73
4
 74
0
 40
0
 40
0
 40
0
 40
0
 40
1
 40
1
 40
1
 40
1
 10
151.440000
 20
368.320000
 30
0.0
 10
165.360000
 20
354.240000
 30
0.0
 10
168.320000
 20
351.520000
 30
0.0
 10
174.560000
 20
347.120000
 30
0.0
  0
SPLINE
  5
175
100
AcDbEntity
  8
0
 62
7
100
AcDbSpline
 70
8
 71
3
 72
8
 73
4
 74
0
 40
0
 40
0
 40
0
 40
0
 40
1
 40
1
 40
1
 40
1
 10
174.560000
 20
347.120000
 30
0.0
 10
181.760000
 20
341.920000
 30
0.0
 10
192.720000
 20
335.360000
 30
0.0
 10
194.080000
 20
335.360000
 30
0.0
  0
SPLINE
  5
176
100
AcDbEntity
  8
0
 62
7
100
AcDbSpline
 70
8
 71
3
 72
8
 73
4
 74
0
 40
0
 40
0
 40
0
 40
0
 40
1
 40
1
 40
1
 40
1
 10
194.080000
 20
335.360000
 30
0.0
 10
194.720000
 20
335.360000
 30
0.0
 10
198.080000
 20
338.000000
 30
0.0
 10
201.520000
 20
341.200000
 30
0.0
  0
SPLINE
  5
177
100
AcDbEntity
  8
0
 62
7
100
AcDbSpline
 70
8
 71
3
 72
8
 73
4
 74
0
 40
0
 40
0
 40
0
 40
0
 40
1
 40
1
 40
1
 40
1
 10
201.520000
 20
341.200000
 30
0.0
 10
211.360000
 20
350.320000
 30
0.0
 10
220.080000
 20
357.680000
 30
0.0
 10
230.160000
 20
365.280000
 30
0.0
  0
SPLINE
  5
178
100
AcDbEntity
  8
0
 62
7
100
AcDbSpline
 70
8
 71
3
 72
8
 73
4
 74
0
 40
0
 40
0
 40
0
 40
0
 40
1
 40
1
 40
1
 40
1
 10
230.160000
 20
365.280000
 30
0.0
 10
235.280000
 20
369.120000
 30
0.0
 10
239.360000
 20
372.560000
 30
0.0
 10
239.280000
 20
372.880000
 30
0.0
  0
SPLINE
  5
179
100
AcDbEntity
  8
0
 62
7
100
AcDbSpline
 70
8
 71
3
 72
8
 73
4
 74
0
 40
0
 40
0
 40
0
 40
0
 40
1
 40
1
 40
1
 40
1
 10
239.280000
 20
372.880000
 30
0.0
 10
239.120000
 20
373.120000
 30
0.0
 10
239.520000
 20
373.360000
 30
0.0
 10
240.240000
 20
373.360000
 30
0.0
  0
SPLINE
  5
17a
100
AcDbEntity
  8
0
 62
7
100
AcDbSpline
 70
8
 71
3
 72
8
 73
4
 74
0
 40
0
 40
0
 40
0
 40
0
 40
1
 40
1
 40
1
 40
1
 10
240.240000
 20
373.360000
 30
0.0
 10
242.000000
 20
373.360000
 30
0.0
 10
255.120000
 20
382.400000
 30
0.0
 10
255.120000
 20
383.680000
 30
0.0
  0
SPLINE
  5
17b
100
AcDbEntity
  8
0
 62
7
100
AcDbSpline
 70
8
 71
3
 72
8
 73
4
 74
0
 40
0
 40
0
 40
0
 40
0
 40
1
 40
1
 40
1
 40
1
 10
255.120000
 20
383.680000
 30
0.0
 10
255.120000
 20
384.240000
 30
0.0
 10
256.640000
 20
386.720000
 30
0.0
 10
258.560000
 20
389.200000
 30
0.0
  0
SPLINE
  5
17c
100
AcDbEntity
  8
0
 62
7
100
AcDbSpline
 70
8
 71
3
 72
8
 73
4
 74
0
 40
0
 40
0
 40
0
 40
0
 40
1
 40
1
 40
1
 40
1
 10
258.560000
 20
389.200000
 30
0.0
 10
261.840000
 20
393.520000
 30
0.0
 10
261.920000
 20
394.000000
 30
0.0
 10
261.840000
 20
399.840000
 30
0.0
  0
SPLINE
  5
17d
100
AcDbEntity
  8
0
 62
7
100
AcDbSpline
 70
8
 71
3
 72
8
 73
4
 74
0
 40
0
 40
0
 40
0
 40
0
 40
1
 40
1
 40
1
 40
1
 10
261.840000
 20
399.840000
 30
0.0
 10
261.760000
 20
403.280000
 30
0.0
 10
262.160000
 20
407.440000
 30
0.0
 10
262.800000
 20
409.200000
 30
0.0
  0
SPLINE
  5
17e
100
AcDbEntity
  8
0
 62
7
100
AcDbSpline
 70
8
 71
3
 72
8
 73
4
 74
0
 40
0
 40
0
 40
0
 40
0
 40
1
 40
1
 40
1
 40
1
 10
262.800000
 20
409.200000
 30
0.0
 10
263.520000
 20
411.200000
 30
0.0
 10
264.160000
 20
422.240000
 30
0.0
 10
264.560000
 20
439.600000
 30
0.0
  0
SPLINE
  5
17f
100
AcDbEntity
  8
0
 62
7
100
AcDbSpline
 70
8
 71
3
 72
8
 73
4
 74
0
 40
0
 40
0
 40
0
 40
0
 40
1
 40
1
 40
1
 40
1
 10
264.560000
 20
439.600000
 30
0.0
 10
265.040000
 20
463.040000
 30
0.0
 10
265.440000
 20
468.080000
 30
0.0
 10
267.200000
 20
475.760000
 30
0.0
  0
SPLINE
  5
180
100
AcDbEntity
  8
0
 62
7
100
AcDbSpline
 70
8
 71
3
 72
8
 73
4
 74
0
 40
0
 40
0
 40
0
 40
0
 40
1
 40
1
 40
1
 40
1
 10
267.200000
 20
475.760000
 30
0.0
 10
268.320000
 20
480.640000
 30
0.0
 10
269.360000
 20
485.200000
 30
0.0
 10
269.520000
 20
485.840000
 30
0.0
  0
SPLINE
  5
181
100
AcDbEntity
  8
0
 62
7
100
AcDbSpline
 70
8
 71
3
 72
8
 73
4
 74
0
 40
0
 40
0
 40
0
 40
0
 40
1
 40
1
 40
1
 40
1
 10
269.520000
 20
485.840000
 30
0.0
 10
269.600000
 20
486.560000
 30
0.0
 10
268.960000
 20
488.800000
 30
0.0
 10
268.000000
 20
490.880000
 30
0.0
  0
SPLINE
  5
182
100
AcDbEntity
  8
0
 62
7
100
AcDbSpline
 70
8
 71
3
 72
8
 73
4
 74
0
 40
0
 40
0
 40
0
 40
0
 40
1
 40
1
 40
1
 40
1
 10
268.000000
 20
490.880000
 30
0.0
 10
265.600000
 20
495.920000
 30
0.0
 10
266.240000
 20
507.120000
 30
0.0
 10
269.120000
 20
512.000000
 30
0.0
  0
SPLINE
  5
183
100
AcDbEntity
  8
0
 62
7
100
AcDbSpline
 70
8
 71
3
 72
8
 73
4
 74
0
 40
0
 40
0
 40
0
 40
0
 40
1
 40
1
 40
1
 40
1
 10
269.120000
 20
512.000000
 30
0.0
 10
271.520000
 20
516.160000
 30
0.0
 10
275.360000
 20
519.600000
 30
0.0
 10
278.640000
 20
520.560000
 30
0.0
  0
SPLINE
  5
184
100
AcDbEntity
  8
0
 62
7
100
AcDbSpline
 70
8
 71
3
 72
8
 73
4
 74
0
 40
0
 40
0
 40
0
 40
0
 40
1
 40
1
 40
1
 40
1
 10
278.640000
 20
520.560000
 30
0.0
 10
282.080000
 20
521.600000
 30
0.0
 10
285.840000
 20
524.160000
 30
0.0
 10
287.680000
 20
526.560000
 30
0.0
  0
SPLINE
  5
185
100
AcDbEntity
  8
0
 62
7
100
AcDbSpline
 70
8
 71
3
 72
8
 73
4
 74
0
 40
0
 40
0
 40
0
 40
0
 40
1
 40
1
 40
1
 40
1
 10
287.680000
 20
526.560000
 30
0.0
 10
288.560000
 20
527.680000
 30
0.0
 10
290.080000
 20
528.960000
 30
0.0
 10
291.120000
 20
529.440000
 30
0.0
  0
SPLINE
  5
186
100
AcDbEntity
  8
0
 62
7
100
AcDbSpline
 70
8
 71
3
 72
8
 73
4
 74
0
 40
0
 40
0
 40
0
 40
0
 40
1
 40
1
 40
1
 40
1
 10
291.120000
 20
529.440000
 30
0.0
 10
292.160000
 20
529.840000
 30
0.0
 10
292.960000
 20
530.640000
 30
0.0
 10
292.960000
 20
531.120000
 30
0.0
  0
SPLINE
  5
187
100
AcDbEntity
  8
0
 62
7
100
AcDbSpline
 70
8
 71
3
 72
8
 73
4
 74
0
 40
0
 40
0
 40
0
 40
0
 40
1
 40
1
 40
1
 40
1
 10
292.960000
 20
531.120000
 30
0.0
 10
293.040000
 20
532.960000
 30
0.0
 10
296.800000
 20
536.240000
 30
0.0
 10
300.880000
 20
538.000000
 30
0.0
  0
SPLINE
  5
188
100
AcDbEntity
  8
0
 62
7
100
AcDbSpline
 70
8
 71
3
 72
8
 73
4
 74
0
 40
0
 40
0
 40
0
 40
0
 40
1
 40
1
 40
1
 40
1
 10
300.880000
 20
538.000000
 30
0.0
 10
303.040000
 20
538.960000
 30
0.0
 10
306.960000
 20
540.800000
 30
0.0
 10
309.440000
 20
542.240000
 30
0.0
  0
SPLINE
  5
189
100
AcDbEntity
  8
0
 62
7
100
AcDbSpline
 70
8
 71
3
 72
8
 73
4
 74
0
 40
0
 40
0
 40
0
 40
0
 40
1
 40
1
 40
1
 40
1
 10
309.440000
 20
542.240000
 30
0.0
 10
313.280000
 20
544.320000
 30
0.0
 10
313.920000
 20
544.960000
 30
0.0
 10
313.360000
 20
546.320000
 30
0.0
  0
SPLINE
  5
18a
100
AcDbEntity
  8
0
 62
7
100
AcDbSpline
 70
8
 71
3
 72
8
 73
4
 74
0
 40
0
 40
0
 40
0
 40
0
 40
1
 40
1
 40
1
 40
1
 10
313.360000
 20
546.320000
 30
0.0
 10
312.480000
 20
548.720000
 30
0.0
 10
310.800000
 20
558.800000
 30
0.0
 10
310.640000
 20
562.800000
 30
0.0
  0
SPLINE
  5
18b
100
AcDbEntity
  8
0
 62
7
100
AcDbSpline
 70
8
 71
3
 72
8
 73
4
 74
0
 40
0
 40
0
 40
0
 40
0
 40
1
 40
1
 40
1
 40
1
 10
310.640000
 20
562.800000
 30
0.0
 10
310.480000
 20
564.720000
 30
0.0
 10
309.920000
 20
567.360000
 30
0.0
 10
309.360000
 20
568.560000
 30
0.0
  0
SPLINE
  5
18c
100
AcDbEntity
  8
0
 62
7
100
AcDbSpline
 70
8
 71
3
 72
8
 73
4
 74
0
 40
0
 40
0
 40
0
 40
0
 40
1
 40
1
 40
1
 40
1
 10
309.360000
 20
568.560000
 30
0.0
 10
308.800000
 20
569.760000
 30
0.0
 10
307.840000
 20
572.960000
 30
0.0
 10
307.200000
 20
575.760000
 30
0.0
  0
SPLINE
  5
18d
100
AcDbEntity
  8
0
 62
7
100
AcDbSpline
 70
8
 71
3
 72
8
 73
4
 74
0
 40
0
 40
0
 40
0
 40
0
 40
1
 40
1
 40
1
 40
1
 10
307.200000
 20
575.760000
 30
0.0
 10
306.160000
 20
580.400000
 30
0.0
 10
306.240000
 20
580.720000
 30
0.0
 10
307.920000
 20
581.520000
 30
0.0
  0
SPLINE
  5
18e
100
AcDbEntity
  8
0
 62
7
100
AcDbSpline
 70
8
 71
3
 72
8
 73
4
 74
0
 40
0
 40
0
 40
0
 40
0
 40
1
 40
1
 40
1
 40
1
 10
307.920000
 20
581.520000
 30
0.0
 10
309.440000
 20
582.320000
 30
0.0
 10
309.920000
 20
583.600000
 30
0.0
 10
310.560000
 20
589.920000
 30
0.0
  0
SPLINE
  5
18f
100
AcDbEntity
  8
0
 62
7
100
AcDbSpline
 70
8
 71
3
 72
8
 73
4
 74
0
 40
0
 40
0
 40
0
 40
0
 40
1
 40
1
 40
1
 40
1
 10
310.560000
 20
589.920000
 30
0.0
 10
311.520000
 20
599.200000
 30
0.0
 10
311.440000
 20
600.320000
 30
0.0
 10
309.920000
 20
604.480000
 30
0.0
  0
SPLINE
  5
190
100
AcDbEntity
  8
0
 62
7
100
AcDbSpline
 70
8
 71
3
 72
8
 73
4
 74
0
 40
0
 40
0
 40
0
 40
0
 40
1
 40
1
 40
1
 40
1
 10
309.920000
 20
604.480000
 30
0.0
 10
309.120000
 20
606.640000
 30
0.0
 10
308.160000
 20
607.920000
 30
0.0
 10
307.040000
 20
608.160000
 30
0.0
  0
SPLINE
  5
191
100
AcDbEntity
  8
0
 62
7
100
AcDbSpline
 70
8
 71
3
 72
8
 73
4
 74
0
 40
0
 40
0
 40
0
 40
0
 40
1
 40
1
 40
1
 40
1
 10
307.040000
 20
608.160000
 30
0.0
 10
306.080000
 20
608.400000
 30
0.0
 10
305.280000
 20
608.800000
 30
0.0
 10
305.280000
 20
609.200000
 30
0.0
  0
SPLINE
  5
192
100
AcDbEntity
  8
0
 62
7
100
AcDbSpline
 70
8
 71
3
 72
8
 73
4
 74
0
 40
0
 40
0
 40
0
 40
0
 40
1
 40
1
 40
1
 40
1
 10
305.280000
 20
609.200000
 30
0.0
 10
305.280000
 20
610.480000
 30
0.0
 10
308.240000
 20
613.520000
 30
0.0
 10
309.520000
 20
613.520000
 30
0.0
  0
SPLINE
  5
193
100
AcDbEntity
  8
0
 62
7
100
AcDbSpline
 70
8
 71
3
 72
8
 73
4
 74
0
 40
0
 40
0
 40
0
 40
0
 40
1
 40
1
 40
1
 40
1
 10
309.520000
 20
613.520000
 30
0.0
 10
310.240000
 20
613.520000
 30
0.0
 10
311.120000
 20
614.080000
 30
0.0
 10
311.440000
 20
614.800000
 30
0.0
  0
SPLINE
  5
194
100
AcDbEntity
  8
0
 62
7
100
AcDbSpline
 70
8
 71
3
 72
8
 73
4
 74
0
 40
0
 40
0
 40
0
 40
0
 40
1
 40
1
 40
1
 40
1
 10
311.440000
 20
614.800000
 30
0.0
 10
311.760000
 20
615.520000
 30
0.0
 10
312.400000
 20
616.080000
 30
0.0
 10
312.880000
 20
616.080000
 30
0.0
  0
SPLINE
  5
195
100
AcDbEntity
  8
0
 62
7
100
AcDbSpline
 70
8
 71
3
 72
8
 73
4
 74
0
 40
0
 40
0
 40
0
 40
0
 40
1
 40
1
 40
1
 40
1
 10
312.880000
 20
616.080000
 30
0.0
 10
313.360000
 20
616.080000
 30
0.0
 10
313.920000
 20
616.560000
 30
0.0
 10
314.240000
 20
617.200000
 30
0.0
  0
SPLINE
  5
196
100
AcDbEntity
  8
0
 62
7
100
AcDbSpline
 70
8
 71
3
 72
8
 73
4
 74
0
 40
0
 40
0
 40
0
 40
0
 40
1
 40
1
 40
1
 40
1
 10
314.240000
 20
617.200000
 30
0.0
 10
314.560000
 20
617.840000
 30
0.0
 10
316.800000
 20
619.040000
 30
0.0
 10
319.200000
 20
619.920000
 30
0.0
  0
SPLINE
  5
197
100
AcDbEntity
  8
0
 62
7
100
AcDbSpline
 70
8
 71
3
 72
8
 73
4
 74
0
 40
0
 40
0
 40
0
 40
0
 40
1
 40
1
 40
1
 40
1
 10
319.200000
 20
619.920000
 30
0.0
 10
326.800000
 20
622.560000
 30
0.0
 10
328.480000
 20
623.200000
 30
0.0
 10
329.760000
 20
624.080000
 30
0.0
  0
SPLINE
  5
198
100
AcDbEntity
  8
0
 62
7
100
AcDbSpline
 70
8
 71
3
 72
8
 73
4
 74
0
 40
0
 40
0
 40
0
 40
0
 40
1
 40
1
 40
1
 40
1
 10
329.760000
 20
624.080000
 30
0.0
 10
330.400000
 20
624.560000
 30
0.0
 10
332.320000
 20
624.880000
 30
0.0
 10
334.000000
 20
624.960000
 30
0.0
  0
SPLINE
  5
199
100
AcDbEntity
  8
0
 62
7
100
AcDbSpline
 70
8
 71
3
 72
8
 73
4
 74
0
 40
0
 40
0
 40
0
 40
0
 40
1
 40
1
 40
1
 40
1
 10
334.000000
 20
624.960000
 30
0.0
 10
347.440000
 20
625.040000
 30
0.0
 10
357.520000
 20
624.560000
 30
0.0
 10
358.240000
 20
623.840000
 30
0.0
  0
SPLINE
  5
19a
100
AcDbEntity
  8
0
 62
7
100
AcDbSpline
 70
8
 71
3
 72
8
 73
4
 74
0
 40
0
 40
0
 40
0
 40
0
 40
1
 40
1
 40
1
 40
1
 10
358.240000
 20
623.840000
 30
0.0
 10
358.560000
 20
623.440000
 30
0.0
 10
361.520000
 20
622.000000
 30
0.0
 10
364.880000
 20
620.720000
 30
0.0
  0
SPLINE
  5
19b
100
AcDbEntity
  8
0
 62
7
100
AcDbSpline
 70
8
 71
3
 72
8
 73
4
 74
0
 40
0
 40
0
 40
0
 40
0
 40
1
 40
1
 40
1
 40
1
 10
364.880000
 20
620.720000
 30
0.0
 10
370.080000
 20
618.560000
 30
0.0
 10
371.120000
 20
617.840000
 30
0.0
 10
372.720000
 20
615.120000
 30
0.0
  0
SPLINE
  5
19c
100
AcDbEntity
  8
0
 62
7
100
AcDbSpline
 70
8
 71
3
 72
8
 73
4
 74
0
 40
0
 40
0
 40
0
 40
0
 40
1
 40
1
 40
1
 40
1
 10
372.720000
 20
615.120000
 30
0.0
 10
374.720000
 20
611.520000
 30
0.0
 10
375.280000
 20
610.720000
 30
0.0
 10
378.400000
 20
606.240000
 30
0.0
  0
SPLINE
  5
19d
100
AcDbEntity
  8
0
 62
7
100
AcDbSpline
 70
8
 71
3
 72
8
 73
4
 74
0
 40
0
 40
0
 40
0
 40
0
 40
1
 40
1
 40
1
 40
1
 10
378.400000
 20
606.240000
 30
0.0
 10
380.480000
 20
603.280000
 30
0.0
 10
380.640000
 20
602.320000
 30
0.0
 10
380.640000
 20
590.800000
 30
0.0
  0
SPLINE
  5
19e
100
AcDbEntity
  8
0
 62
7
100
AcDbSpline
 70
8
 71
3
 72
8
 73
4
 74
0
 40
0
 40
0
 40
0
 40
0
 40
1
 40
1
 40
1
 40
1
 10
380.640000
 20
590.800000
 30
0.0
 10
380.640000
 20
582.400000
 30
0.0
 10
380.880000
 20
578.880000
 30
0.0
 10
381.520000
 20
579.680000
 30
0.0
  0
SPLINE
  5
19f
100
AcDbEntity
  8
0
 62
7
100
AcDbSpline
 70
8
 71
3
 72
8
 73
4
 74
0
 40
0
 40
0
 40
0
 40
0
 40
1
 40
1
 40
1
 40
1
 10
381.520000
 20
579.680000
 30
0.0
 10
385.040000
 20
583.600000
 30
0.0
 10
386.560000
 20
584.720000
 30
0.0
 10
388.800000
 20
584.880000
 30
0.0
  0
SPLINE
  5
1a0
100
AcDbEntity
  8
0
 62
7
100
AcDbSpline
 70
8
 71
3
 72
8
 73
4
 74
0
 40
0
 40
0
 40
0
 40
0
 40
1
 40
1
 40
1
 40
1
 10
388.800000
 20
584.880000
 30
0.0
 10
390.480000
 20
585.040000
 30
0.0
 10
391.680000
 20
585.760000
 30
0.0
 10
392.720000
 20
587.280000
 30
0.0
  0
SPLINE
  5
1a1
100
AcDbEntity
  8
0
 62
7
100
AcDbSpline
 70
8
 71
3
 72
8
 73
4
 74
0
 40
0
 40
0
 40
0
 40
0
 40
1
 40
1
 40
1
 40
1
 10
392.720000
 20
587.280000
 30
0.0
 10
393.600000
 20
588.480000
 30
0.0
 10
394.720000
 20
589.440000
 30
0.0
 10
395.200000
 20
589.440000
 30
0.0
  0
SPLINE
  5
1a2
100
AcDbEntity
  8
0
 62
7
100
AcDbSpline
 70
8
 71
3
 72
8
 73
4
 74
0
 40
0
 40
0
 40
0
 40
0
 40
1
 40
1
 40
1
 40
1
 10
395.200000
 20
589.440000
 30
0.0
 10
396.320000
 20
589.440000
 30
0.0
 10
395.600000
 20
587.840000
 30
0.0
 10
393.680000
 20
586.000000
 30
0.0
  0
SPLINE
  5
1a3
100
AcDbEntity
  8
0
 62
7
100
AcDbSpline
 70
8
 71
3
 72
8
 73
4
 74
0
 40
0
 40
0
 40
0
 40
0
 40
1
 40
1
 40
1
 40
1
 10
393.680000
 20
586.000000
 30
0.0
 10
392.320000
 20
584.640000
 30
0.0
 10
392.000000
 20
582.480000
 30
0.0
 10
393.120000
 20
582.480000
 30
0.0
  0
SPLINE
  5
1a4
100
AcDbEntity
  8
0
 62
7
100
AcDbSpline
 70
8
 71
3
 72
8
 73
4
 74
0
 40
0
 40
0
 40
0
 40
0
 40
1
 40
1
 40
1
 40
1
 10
393.120000
 20
582.480000
 30
0.0
 10
393.520000
 20
582.480000
 30
0.0
 10
394.880000
 20
583.760000
 30
0.0
 10
396.080000
 20
585.280000
 30
0.0
  0
SPLINE
  5
1a5
100
AcDbEntity
  8
0
 62
7
100
AcDbSpline
 70
8
 71
3
 72
8
 73
4
 74
0
 40
0
 40
0
 40
0
 40
0
 40
1
 40
1
 40
1
 40
1
 10
396.080000
 20
585.280000
 30
0.0
 10
397.360000
 20
586.880000
 30
0.0
 10
398.720000
 20
588.000000
 30
0.0
 10
399.200000
 20
587.840000
 30
0.0
  0
SPLINE
  5
1a6
100
AcDbEntity
  8
0
 62
7
100
AcDbSpline
 70
8
 71
3
 72
8
 73
4
 74
0
 40
0
 40
0
 40
0
 40
0
 40
1
 40
1
 40
1
 40
1
 10
399.200000
 20
587.840000
 30
0.0
 10
399.920000
 20
587.520000
 30
0.0
 10
399.200000
 20
586.000000
 30
0.0
 10
396.160000
 20
581.680000
 30
0.0
  0
SPLINE
  5
1a7
100
AcDbEntity
  8
0
 62
7
100
AcDbSpline
 70
8
 71
3
 72
8
 73
4
 74
0
 40
0
 40
0
 40
0
 40
0
 40
1
 40
1
 40
1
 40
1
 10
396.160000
 20
581.680000
 30
0.0
 10
395.280000
 20
580.400000
 30
0.0
 10
395.200000
 20
579.760000
 30
0.0
 10
396.000000
 20
579.200000
 30
0.0
  0
SPLINE
  5
1a8
100
AcDbEntity
  8
0
 62
7
100
AcDbSpline
 70
8
 71
3
 72
8
 73
4
 74
0
 40
0
 40
0
 40
0
 40
0
 40
1
 40
1
 40
1
 40
1
 10
396.000000
 20
579.200000
 30
0.0
 10
396.800000
 20
578.640000
 30
0.0
 10
397.920000
 20
579.360000
 30
0.0
 10
400.160000
 20
581.840000
 30
0.0
  0
SPLINE
  5
1a9
100
AcDbEntity
  8
0
 62
7
100
AcDbSpline
 70
8
 71
3
 72
8
 73
4
 74
0
 40
0
 40
0
 40
0
 40
0
 40
1
 40
1
 40
1
 40
1
 10
400.160000
 20
581.840000
 30
0.0
 10
403.040000
 20
584.960000
 30
0.0
 10
405.200000
 20
585.440000
 30
0.0
 10
402.880000
 20
582.480000
 30
0.0
  0
SPLINE
  5
1aa
100
AcDbEntity
  8
0
 62
7
100
AcDbSpline
 70
8
 71
3
 72
8
 73
4
 74
0
 40
0
 40
0
 40
0
 40
0
 40
1
 40
1
 40
1
 40
1
 10
402.880000
 20
582.480000
 30
0.0
 10
402.240000
 20
581.680000
 30
0.0
 10
401.920000
 20
580.960000
 30
0.0
 10
402.160000
 20
580.800000
 30
0.0
  0
SPLINE
  5
1ab
100
AcDbEntity
  8
0
 62
7
100
AcDbSpline
 70
8
 71
3
 72
8
 73
4
 74
0
 40
0
 40
0
 40
0
 40
0
 40
1
 40
1
 40
1
 40
1
 10
402.160000
 20
580.800000
 30
0.0
 10
403.040000
 20
580.240000
 30
0.0
 10
405.520000
 20
581.360000
 30
0.0
 10
406.000000
 20
582.560000
 30
0.0
  0
SPLINE
  5
1ac
100
AcDbEntity
  8
0
 62
7
100
AcDbSpline
 70
8
 71
3
 72
8
 73
4
 74
0
 40
0
 40
0
 40
0
 40
0
 40
1
 40
1
 40
1
 40
1
 10
406.000000
 20
582.560000
 30
0.0
 10
406.240000
 20
583.200000
 30
0.0
 10
406.960000
 20
583.760000
 30
0.0
 10
407.520000
 20
583.760000
 30
0.0
  0
SPLINE
  5
1ad
100
AcDbEntity
  8
0
 62
7
100
AcDbSpline
 70
8
 71
3
 72
8
 73
4
 74
0
 40
0
 40
0
 40
0
 40
0
 40
1
 40
1
 40
1
 40
1
 10
407.520000
 20
583.760000
 30
0.0
 10
408.160000
 20
583.760000
 30
0.0
 10
407.840000
 20
582.720000
 30
0.0
 10
406.640000
 20
581.200000
 30
0.0
  0
SPLINE
  5
1ae
100
AcDbEntity
  8
0
 62
7
100
AcDbSpline
 70
8
 71
3
 72
8
 73
4
 74
0
 40
0
 40
0
 40
0
 40
0
 40
1
 40
1
 40
1
 40
1
 10
406.640000
 20
581.200000
 30
0.0
 10
404.720000
 20
578.640000
 30
0.0
 10
404.000000
 20
576.000000
 30
0.0
 10
405.600000
 20
577.120000
 30
0.0
  0
SPLINE
  5
1af
100
AcDbEntity
  8
0
 62
7
100
AcDbSpline
 70
8
 71
3
 72
8
 73
4
 74
0
 40
0
 40
0
 40
0
 40
0
 40
1
 40
1
 40
1
 40
1
 10
405.600000
 20
577.120000
 30
0.0
 10
406.080000
 20
577.440000
 30
0.0
 10
407.840000
 20
579.440000
 30
0.0
 10
409.600000
 20
581.520000
 30
0.0
  0
SPLINE
  5
1b0
100
AcDbEntity
  8
0
 62
7
100
AcDbSpline
 70
8
 71
3
 72
8
 73
4
 74
0
 40
0
 40
0
 40
0
 40
0
 40
1
 40
1
 40
1
 40
1
 10
409.600000
 20
581.520000
 30
0.0
 10
411.280000
 20
583.600000
 30
0.0
 10
413.760000
 20
586.480000
 30
0.0
 10
415.120000
 20
587.840000
 30
0.0
  0
SPLINE
  5
1b1
100
AcDbEntity
  8
0
 62
7
100
AcDbSpline
 70
8
 71
3
 72
8
 73
4
 74
0
 40
0
 40
0
 40
0
 40
0
 40
1
 40
1
 40
1
 40
1
 10
415.120000
 20
587.840000
 30
0.0
 10
416.480000
 20
589.280000
 30
0.0
 10
420.080000
 20
593.760000
 30
0.0
 10
423.120000
 20
597.760000
 30
0.0
  0
SPLINE
  5
1b2
100
AcDbEntity
  8
0
 62
7
100
AcDbSpline
 70
8
 71
3
 72
8
 73
4
 74
0
 40
0
 40
0
 40
0
 40
0
 40
1
 40
1
 40
1
 40
1
 10
423.120000
 20
597.760000
 30
0.0
 10
428.480000
 20
604.880000
 30
0.0
 10
428.640000
 20
605.200000
 30
0.0
 10
427.040000
 20
606.320000
 30
0.0
  0
SPLINE
  5
1b3
100
AcDbEntity
  8
0
 62
7
100
AcDbSpline
 70
8
 71
3
 72
8
 73
4
 74
0
 40
0
 40
0
 40
0
 40
0
 40
1
 40
1
 40
1
 40
1
 10
427.040000
 20
606.320000
 30
0.0
 10
425.760000
 20
607.200000
 30
0.0
 10
425.520000
 20
608.000000
 30
0.0
 10
425.920000
 20
610.240000
 30
0.0
  0
SPLINE
  5
1b4
100
AcDbEntity
  8
0
 62
7
100
AcDbSpline
 70
8
 71
3
 72
8
 73
4
 74
0
 40
0
 40
0
 40
0
 40
0
 40
1
 40
1
 40
1
 40
1
 10
425.920000
 20
610.240000
 30
0.0
 10
426.240000
 20
611.760000
 30
0.0
 10
426.560000
 20
614.720000
 30
0.0
 10
426.560000
 20
616.800000
 30
0.0
  0
SPLINE
  5
1b5
100
AcDbEntity
  8
0
 62
7
100
AcDbSpline
 70
8
 71
3
 72
8
 73
4
 74
0
 40
0
 40
0
 40
0
 40
0
 40
1
 40
1
 40
1
 40
1
 10
426.560000
 20
616.800000
 30
0.0
 10
426.560000
 20
620.080000
 30
0.0
 10
426.720000
 20
620.480000
 30
0.0
 10
428.400000
 20
620.480000
 30
0.0
  0
SPLINE
  5
1b6
100
AcDbEntity
  8
0
 62
7
100
AcDbSpline
 70
8
 71
3
 72
8
 73
4
 74
0
 40
0
 40
0
 40
0
 40
0
 40
1
 40
1
 40
1
 40
1
 10
428.400000
 20
620.480000
 30
0.0
 10
430.080000
 20
620.480000
 30
0.0
 10
430.320000
 20
620.960000
 30
0.0
 10
430.320000
 20
624.240000
 30
0.0
  0
SPLINE
  5
1b7
100
AcDbEntity
  8
0
 62
7
100
AcDbSpline
 70
8
 71
3
 72
8
 73
4
 74
0
 40
0
 40
0
 40
0
 40
0
 40
1
 40
1
 40
1
 40
1
 10
430.320000
 20
624.240000
 30
0.0
 10
430.320000
 20
628.560000
 30
0.0
 10
432.160000
 20
630.320000
 30
0.0
 10
434.800000
 20
628.560000
 30
0.0
  0
SPLINE
  5
1b8
100
AcDbEntity
  8
0
 62
7
100
AcDbSpline
 70
8
 71
3
 72
8
 73
4
 74
0
 40
0
 40
0
 40
0
 40
0
 40
1
 40
1
 40
1
 40
1
 10
434.800000
 20
628.560000
 30
0.0
 10
436.320000
 20
627.520000
 30
0.0
 10
436.480000
 20
627.600000
 30
0.0
 10
437.440000
 20
629.200000
 30
0.0
  0
LINE
  5
1b9
100
AcDbEntity
  8
0
 62
7
100
AcDbLine
 10
437.440000
 20
629.200000
 30
0.0
 11
438.480000
 21
630.880000
 31
0.0
  0
LINE
  5
1ba
100
AcDbEntity
  8
0
 62
7
100
AcDbLine
 10
438.480000
 20
630.880000
 30
0.0
 11
440.400000
 21
629.600000
 31
0.0
  0
SPLINE
  5
1bb
100
AcDbEntity
  8
0
 62
7
100
AcDbSpline
 70
8
 71
3
 72
8
 73
4
 74
0
 40
0
 40
0
 40
0
 40
0
 40
1
 40
1
 40
1
 40
1
 10
440.400000
 20
629.600000
 30
0.0
 10
441.520000
 20
628.880000
 30
0.0
 10
442.640000
 20
627.840000
 30
0.0
 10
442.880000
 20
627.360000
 30
0.0
  0
SPLINE
  5
1bc
100
AcDbEntity
  8
0
 62
7
100
AcDbSpline
 70
8
 71
3
 72
8
 73
4
 74
0
 40
0
 40
0
 40
0
 40
0
 40
1
 40
1
 40
1
 40
1
 10
442.880000
 20
627.360000
 30
0.0
 10
443.600000
 20
626.160000
 30
0.0
 10
444.960000
 20
627.440000
 30
0.0
 10
447.440000
 20
631.840000
 30
0.0
  0
SPLINE
  5
1bd
100
AcDbEntity
  8
0
 62
7
100
AcDbSpline
 70
8
 71
3
 72
8
 73
4
 74
0
 40
0
 40
0
 40
0
 40
0
 40
1
 40
1
 40
1
 40
1
 10
447.440000
 20
631.840000
 30
0.0
 10
448.480000
 20
633.760000
 30
0.0
 10
450.800000
 20
636.960000
 30
0.0
 10
452.640000
 20
638.960000
 30
0.0
  0
SPLINE
  5
1be
100
AcDbEntity
  8
0
 62
7
100
AcDbSpline
 70
8
 71
3
 72
8
 73
4
 74
0
 40
0
 40
0
 40
0
 40
0
 40
1
 40
1
 40
1
 40
1
 10
452.640000
 20
638.960000
 30
0.0
 10
454.400000
 20
641.040000
 30
0.0
 10
456.160000
 20
643.520000
 30
0.0
 10
456.480000
 20
644.480000
 30
0.0
  0
SPLINE
  5
1bf
100
AcDbEntity
  8
0
 62
7
100
AcDbSpline
 70
8
 71
3
 72
8
 73
4
 74
0
 40
0
 40
0
 40
0
 40
0
 40
1
 40
1
 40
1
 40
1
 10
456.480000
 20
644.480000
 30
0.0
 10
457.360000
 20
646.960000
 30
0.0
 10
459.600000
 20
648.400000
 30
0.0
 10
462.640000
 20
648.400000
 30
0.0
  0
SPLINE
  5
1c0
100
AcDbEntity
  8
0
 62
7
100
AcDbSpline
 70
8
 71
3
 72
8
 73
4
 74
0
 40
0
 40
0
 40
0
 40
0
 40
1
 40
1
 40
1
 40
1
 10
462.640000
 20
648.400000
 30
0.0
 10
464.640000
 20
648.400000
 30
0.0
 10
465.680000
 20
648.880000
 30
0.0
 10
466.800000
 20
650.240000
 30
0.0
  0
SPLINE
  5
1c1
100
AcDbEntity
  8
0
 62
7
100
AcDbSpline
 70
8
 71
3
 72
8
 73
4
 74
0
 40
0
 40
0
 40
0
 40
0
 40
1
 40
1
 40
1
 40
1
 10
466.800000
 20
650.240000
 30
0.0
 10
467.600000
 20
651.360000
 30
0.0
 10
468.720000
 20
652.160000
 30
0.0
 10
469.280000
 20
652.160000
 30
0.0
  0
SPLINE
  5
1c2
100
AcDbEntity
  8
0
 62
7
100
AcDbSpline
 70
8
 71
3
 72
8
 73
4
 74
0
 40
0
 40
0
 40
0
 40
0
 40
1
 40
1
 40
1
 40
1
 10
469.280000
 20
652.160000
 30
0.0
 10
469.840000
 20
652.160000
 30
0.0
 10
469.360000
 20
651.200000
 30
0.0
 10
468.320000
 20
650.080000
 30
0.0
  0
SPLINE
  5
1c3
100
AcDbEntity
  8
0
 62
7
100
AcDbSpline
 70
8
 71
3
 72
8
 73
4
 74
0
 40
0
 40
0
 40
0
 40
0
 40
1
 40
1
 40
1
 40
1
 10
468.320000
 20
650.080000
 30
0.0
 10
467.200000
 20
648.880000
 30
0.0
 10
466.320000
 20
647.120000
 30
0.0
 10
466.320000
 20
646.080000
 30
0.0
  0
SPLINE
  5
1c4
100
AcDbEntity
  8
0
 62
7
100
AcDbSpline
 70
8
 71
3
 72
8
 73
4
 74
0
 40
0
 40
0
 40
0
 40
0
 40
1
 40
1
 40
1
 40
1
 10
466.320000
 20
646.080000
 30
0.0
 10
466.320000
 20
645.120000
 30
0.0
 10
465.440000
 20
643.040000
 30
0.0
 10
464.480000
 20
641.600000
 30
0.0
  0
SPLINE
  5
1c5
100
AcDbEntity
  8
0
 62
7
100
AcDbSpline
 70
8
 71
3
 72
8
 73
4
 74
0
 40
0
 40
0
 40
0
 40
0
 40
1
 40
1
 40
1
 40
1
 10
464.480000
 20
641.600000
 30
0.0
 10
462.480000
 20
638.720000
 30
0.0
 10
455.200000
 20
631.200000
 30
0.0
 10
453.680000
 20
630.560000
 30
0.0
  0
SPLINE
  5
1c6
100
AcDbEntity
  8
0
 62
7
100
AcDbSpline
 70
8
 71
3
 72
8
 73
4
 74
0
 40
0
 40
0
 40
0
 40
0
 40
1
 40
1
 40
1
 40
1
 10
453.680000
 20
630.560000
 30
0.0
 10
453.040000
 20
630.240000
 30
0.0
 10
453.680000
 20
629.120000
 30
0.0
 10
455.120000
 20
627.680000
 30
0.0
  0
SPLINE
  5
1c7
100
AcDbEntity
  8
0
 62
7
100
AcDbSpline
 70
8
 71
3
 72
8
 73
4
 74
0
 40
0
 40
0
 40
0
 40
0
 40
1
 40
1
 40
1
 40
1
 10
455.120000
 20
627.680000
 30
0.0
 10
458.560000
 20
624.160000
 30
0.0
 10
459.120000
 20
622.800000
 30
0.0
 10
459.200000
 20
616.080000
 30
0.0
  0
SPLINE
  5
1c8
100
AcDbEntity
  8
0
 62
7
100
AcDbSpline
 70
8
 71
3
 72
8
 73
4
 74
0
 40
0
 40
0
 40
0
 40
0
 40
1
 40
1
 40
1
 40
1
 10
459.200000
 20
616.080000
 30
0.0
 10
459.360000
 20
610.400000
 30
0.0
 10
462.480000
 20
600.720000
 30
0.0
 10
465.280000
 20
597.200000
 30
0.0
  0
SPLINE
  5
1c9
100
AcDbEntity
  8
0
 62
7
100
AcDbSpline
 70
8
 71
3
 72
8
 73
4
 74
0
 40
0
 40
0
 40
0
 40
0
 40
1
 40
1
 40
1
 40
1
 10
465.280000
 20
597.200000
 30
0.0
 10
465.760000
 20
596.560000
 30
0.0
 10
467.280000
 20
592.960000
 30
0.0
 10
468.640000
 20
589.200000
 30
0.0
  0
SPLINE
  5
1ca
100
AcDbEntity
  8
0
 62
7
100
AcDbSpline
 70
8
 71
3
 72
8
 73
4
 74
0
 40
0
 40
0
 40
0
 40
0
 40
1
 40
1
 40
1
 40
1
 10
468.640000
 20
589.200000
 30
0.0
 10
470.000000
 20
585.360000
 30
0.0
 10
471.920000
 20
581.520000
 30
0.0
 10
472.960000
 20
580.560000
 30
0.0
  0
SPLINE
  5
1cb
100
AcDbEntity
  8
0
 62
7
100
AcDbSpline
 70
8
 71
3
 72
8
 73
4
 74
0
 40
0
 40
0
 40
0
 40
0
 40
1
 40
1
 40
1
 40
1
 10
472.960000
 20
580.560000
 30
0.0
 10
474.000000
 20
579.600000
 30
0.0
 10
478.880000
 20
570.560000
 30
0.0
 10
483.840000
 20
560.560000
 30
0.0
  0
SPLINE
  5
1cc
100
AcDbEntity
  8
0
 62
7
100
AcDbSpline
 70
8
 71
3
 72
8
 73
4
 74
0
 40
0
 40
0
 40
0
 40
0
 40
1
 40
1
 40
1
 40
1
 10
483.840000
 20
560.560000
 30
0.0
 10
492.240000
 20
543.600000
 30
0.0
 10
495.600000
 20
535.120000
 30
0.0
 10
497.120000
 20
527.040000
 30
0.0
  0
SPLINE
  5
1cd
100
AcDbEntity
  8
0
 62
7
100
AcDbSpline
 70
8
 71
3
 72
8
 73
4
 74
0
 40
0
 40
0
 40
0
 40
0
 40
1
 40
1
 40
1
 40
1
 10
497.120000
 20
527.040000
 30
0.0
 10
497.440000
 20
525.280000
 30
0.0
 10
498.800000
 20
520.080000
 30
0.0
 10
500.160000
 20
515.440000
 30
0.0
  0
SPLINE
  5
1ce
100
AcDbEntity
  8
0
 62
7
100
AcDbSpline
 70
8
 71
3
 72
8
 73
4
 74
0
 40
0
 40
0
 40
0
 40
0
 40
1
 40
1
 40
1
 40
1
 10
500.160000
 20
515.440000
 30
0.0
 10
502.880000
 20
505.920000
 30
0.0
 10
502.880000
 20
506.000000
 30
0.0
 10
496.400000
 20
500.480000
 30
0.0
  0
SPLINE
  5
1cf
100
AcDbEntity
  8
0
 62
7
100
AcDbSpline
 70
8
 71
3
 72
8
 73
4
 74
0
 40
0
 40
0
 40
0
 40
0
 40
1
 40
1
 40
1
 40
1
 10
496.400000
 20
500.480000
 30
0.0
 10
492.080000
 20
496.800000
 30
0.0
 10
486.960000
 20
494.640000
 30
0.0
 10
478.640000
 20
492.800000
 30
0.0
  0
SPLINE
  5
1d0
100
AcDbEntity
  8
0
 62
7
100
AcDbSpline
 70
8
 71
3
 72
8
 73
4
 74
0
 40
0
 40
0
 40
0
 40
0
 40
1
 40
1
 40
1
 40
1
 10
478.640000
 20
492.800000
 30
0.0
 10
475.760000
 20
492.160000
 30
0.0
 10
471.040000
 20
491.120000
 30
0.0
 10
468.240000
 20
490.400000
 30
0.0
  0
SPLINE
  5
1d1
100
AcDbEntity
  8
0
 62
7
100
AcDbSpline
 70
8
 71
3
 72
8
 73
4
 74
0
 40
0
 40
0
 40
0
 40
0
 40
1
 40
1
 40
1
 40
1
 10
468.240000
 20
490.400000
 30
0.0
 10
465.360000
 20
489.760000
 30
0.0
 10
458.400000
 20
488.800000
 30
0.0
 10
452.720000
 20
488.320000
 30
0.0
  0
SPLINE
  5
1d2
100
AcDbEntity
  8
0
 62
7
100
AcDbSpline
 70
8
 71
3
 72
8
 73
4
 74
0
 40
0
 40
0
 40
0
 40
0
 40
1
 40
1
 40
1
 40
1
 10
452.720000
 20
488.320000
 30
0.0
 10
440.560000
 20
487.360000
 30
0.0
 10
431.920000
 20
488.000000
 30
0.0
 10
426.080000
 20
490.320000
 30
0.0
  0
SPLINE
  5
1d3
100
AcDbEntity
  8
0
 62
7
100
AcDbSpline
 70
8
 71
3
 72
8
 73
4
 74
0
 40
0
 40
0
 40
0
 40
0
 40
1
 40
1
 40
1
 40
1
 10
426.080000
 20
490.320000
 30
0.0
 10
421.520000
 20
492.000000
 30
0.0
 10
411.760000
 20
494.000000
 30
0.0
 10
410.480000
 20
493.440000
 30
0.0
  0
SPLINE
  5
1d4
100
AcDbEntity
  8
0
 62
7
100
AcDbSpline
 70
8
 71
3
 72
8
 73
4
 74
0
 40
0
 40
0
 40
0
 40
0
 40
1
 40
1
 40
1
 40
1
 10
410.480000
 20
493.440000
 30
0.0
 10
406.880000
 20
492.000000
 30
0.0
 10
402.640000
 20
480.720000
 30
0.0
 10
399.040000
 20
463.360000
 30
0.0
  0
SPLINE
  5
1d5
100
AcDbEntity
  8
0
 62
7
100
AcDbSpline
 70
8
 71
3
 72
8
 73
4
 74
0
 40
0
 40
0
 40
0
 40
0
 40
1
 40
1
 40
1
 40
1
 10
399.040000
 20
463.360000
 30
0.0
 10
397.360000
 20
455.280000
 30
0.0
 10
396.640000
 20
452.960000
 30
0.0
 10
395.040000
 20
450.880000
 30
0.0
  0
SPLINE
  5
1d6
100
AcDbEntity
  8
0
 62
7
100
AcDbSpline
 70
8
 71
3
 72
8
 73
4
 74
0
 40
0
 40
0
 40
0
 40
0
 40
1
 40
1
 40
1
 40
1
 10
395.040000
 20
450.880000
 30
0.0
 10
394.160000
 20
449.760000
 30
0.0
 10
393.200000
 20
447.200000
 30
0.0
 10
392.880000
 20
445.200000
 30
0.0
  0
SPLINE
  5
1d7
100
AcDbEntity
  8
0
 62
7
100
AcDbSpline
 70
8
 71
3
 72
8
 73
4
 74
0
 40
0
 40
0
 40
0
 40
0
 40
1
 40
1
 40
1
 40
1
 10
392.880000
 20
445.200000
 30
0.0
 10
392.160000
 20
440.480000
 30
0.0
 10
390.640000
 20
436.320000
 30
0.0
 10
388.800000
 20
433.920000
 30
0.0
  0
SPLINE
  5
1d8
100
AcDbEntity
  8
0
 62
7
100
AcDbSpline
 70
8
 71
3
 72
8
 73
4
 74
0
 40
0
 40
0
 40
0
 40
0
 40
1
 40
1
 40
1
 40
1
 10
388.800000
 20
433.920000
 30
0.0
 10
388.000000
 20
432.880000
 30
0.0
 10
387.040000
 20
430.160000
 30
0.0
 10
386.720000
 20
427.840000
 30
0.0
  0
SPLINE
  5
1d9
100
AcDbEntity
  8
0
 62
7
100
AcDbSpline
 70
8
 71
3
 72
8
 73
4
 74
0
 40
0
 40
0
 40
0
 40
0
 40
1
 40
1
 40
1
 40
1
 10
386.720000
 20
427.840000
 30
0.0
 10
385.920000
 20
422.720000
 30
0.0
 10
381.440000
 20
409.040000
 30
0.0
 10
379.040000
 20
404.400000
 30
0.0
  0
SPLINE
  5
1da
100
AcDbEntity
  8
0
 62
7
100
AcDbSpline
 70
8
 71
3
 72
8
 73
4
 74
0
 40
0
 40
0
 40
0
 40
0
 40
1
 40
1
 40
1
 40
1
 10
379.040000
 20
404.400000
 30
0.0
 10
378.080000
 20
402.480000
 30
0.0
 10
376.800000
 20
398.080000
 30
0.0
 10
376.240000
 20
394.640000
 30
0.0
  0
SPLINE
  5
1db
100
AcDbEntity
  8
0
 62
7
100
AcDbSpline
 70
8
 71
3
 72
8
 73
4
 74
0
 40
0
 40
0
 40
0
 40
0
 40
1
 40
1
 40
1
 40
1
 10
376.240000
 20
394.640000
 30
0.0
 10
375.760000
 20
391.120000
 30
0.0
 10
374.720000
 20
386.960000
 30
0.0
 10
374.000000
 20
385.360000
 30
0.0
  0
SPLINE
  5
1dc
100
AcDbEntity
  8
0
 62
7
100
AcDbSpline
 70
8
 71
3
 72
8
 73
4
 74
0
 40
0
 40
0
 40
0
 40
0
 40
1
 40
1
 40
1
 40
1
 10
374.000000
 20
385.360000
 30
0.0
 10
373.280000
 20
383.680000
 30
0.0
 10
372.400000
 20
380.800000
 30
0.0
 10
372.080000
 20
378.880000
 30
0.0
  0
SPLINE
  5
1dd
100
AcDbEntity
  8
0
 62
7
100
AcDbSpline
 70
8
 71
3
 72
8
 73
4
 74
0
 40
0
 40
0
 40
0
 40
0
 40
1
 40
1
 40
1
 40
1
 10
372.080000
 20
378.880000
 30
0.0
 10
371.440000
 20
375.520000
 30
0.0
 10
371.600000
 20
375.200000
 30
0.0
 10
374.480000
 20
372.720000
 30
0.0
  0
SPLINE
  5
1de
100
AcDbEntity
  8
0
 62
7
100
AcDbSpline
 70
8
 71
3
 72
8
 73
4
 74
0
 40
0
 40
0
 40
0
 40
0
 40
1
 40
1
 40
1
 40
1
 10
374.480000
 20
372.720000
 30
0.0
 10
377.120000
 20
370.480000
 30
0.0
 10
377.920000
 20
370.160000
 30
0.0
 10
380.000000
 20
370.560000
 30
0.0
  0
SPLINE
  5
1df
100
AcDbEntity
  8
0
 62
7
100
AcDbSpline
 70
8
 71
3
 72
8
 73
4
 74
0
 40
0
 40
0
 40
0
 40
0
 40
1
 40
1
 40
1
 40
1
 10
380.000000
 20
370.560000
 30
0.0
 10
384.240000
 20
371.360000
 30
0.0
 10
385.680000
 20
371.040000
 30
0.0
 10
393.680000
 20
367.520000
 30
0.0
  0
SPLINE
  5
1e0
100
AcDbEntity
  8
0
 62
7
100
AcDbSpline
 70
8
 71
3
 72
8
 73
4
 74
0
 40
0
 40
0
 40
0
 40
0
 40
1
 40
1
 40
1
 40
1
 10
393.680000
 20
367.520000
 30
0.0
 10
403.040000
 20
363.360000
 30
0.0
 10
403.520000
 20
363.200000
 30
0.0
 10
407.280000
 20
364.240000
 30
0.0
  0
SPLINE
  5
1e1
100
AcDbEntity
  8
0
 62
7
100
AcDbSpline
 70
8
 71
3
 72
8
 73
4
 74
0
 40
0
 40
0
 40
0
 40
0
 40
1
 40
1
 40
1
 40
1
 10
407.280000
 20
364.240000
 30
0.0
 10
409.920000
 20
365.040000
 30
0.0
 10
410.720000
 20
364.960000
 30
0.0
 10
415.040000
 20
363.520000
 30
0.0
  0
SPLINE
  5
1e2
100
AcDbEntity
  8
0
 62
7
100
AcDbSpline
 70
8
 71
3
 72
8
 73
4
 74
0
 40
0
 40
0
 40
0
 40
0
 40
1
 40
1
 40
1
 40
1
 10
415.040000
 20
363.520000
 30
0.0
 10
418.240000
 20
362.400000
 30
0.0
 10
419.600000
 20
361.600000
 30
0.0
 10
419.280000
 20
361.040000
 30
0.0
  0
SPLINE
  5
1e3
100
AcDbEntity
  8
0
 62
7
100
AcDbSpline
 70
8
 71
3
 72
8
 73
4
 74
0
 40
0
 40
0
 40
0
 40
0
 40
1
 40
1
 40
1
 40
1
 10
419.280000
 20
361.040000
 30
0.0
 10
418.640000
 20
359.840000
 30
0.0
 10
420.800000
 20
358.480000
 30
0.0
 10
427.040000
 20
355.920000
 30
0.0
  0
SPLINE
  5
1e4
100
AcDbEntity
  8
0
 62
7
100
AcDbSpline
 70
8
 71
3
 72
8
 73
4
 74
0
 40
0
 40
0
 40
0
 40
0
 40
1
 40
1
 40
1
 40
1
 10
427.040000
 20
355.920000
 30
0.0
 10
433.680000
 20
353.280000
 30
0.0
 10
450.320000
 20
344.240000
 30
0.0
 10
456.880000
 20
339.680000
 30
0.0
  0
SPLINE
  5
1e5
100
AcDbEntity
  8
0
 62
7
100
AcDbSpline
 70
8
 71
3
 72
8
 73
4
 74
0
 40
0
 40
0
 40
0
 40
0
 40
1
 40
1
 40
1
 40
1
 10
456.880000
 20
339.680000
 30
0.0
 10
459.680000
 20
337.760000
 30
0.0
 10
463.040000
 20
335.920000
 30
0.0
 10
464.160000
 20
335.680000
 30
0.0
  0
SPLINE
  5
1e6
100
AcDbEntity
  8
0
 62
7
100
AcDbSpline
 70
8
 71
3
 72
8
 73
4
 74
0
 40
0
 40
0
 40
0
 40
0
 40
1
 40
1
 40
1
 40
1
 10
464.160000
 20
335.680000
 30
0.0
 10
466.880000
 20
335.200000
 30
0.0
 10
470.240000
 20
332.240000
 30
0.0
 10
473.360000
 20
327.760000
 30
0.0
  0
SPLINE
  5
1e7
100
AcDbEntity
  8
0
 62
7
100
AcDbSpline
 70
8
 71
3
 72
8
 73
4
 74
0
 40
0
 40
0
 40
0
 40
0
 40
1
 40
1
 40
1
 40
1
 10
473.360000
 20
327.760000
 30
0.0
 10
476.480000
 20
323.280000
 30
0.0
 10
476.640000
 20
316.560000
 30
0.0
 10
473.840000
 20
309.280000
 30
0.0
  0
SPLINE
  5
1e8
100
AcDbEntity
  8
0
 62
7
100
AcDbSpline
 70
8
 71
3
 72
8
 73
4
 74
0
 40
0
 40
0
 40
0
 40
0
 40
1
 40
1
 40
1
 40
1
 10
473.840000
 20
309.280000
 30
0.0
 10
472.800000
 20
306.480000
 30
0.0
 10
472.080000
 20
303.920000
 30
0.0
 10
472.240000
 20
303.600000
 30
0.0
  0
SPLINE
  5
1e9
100
AcDbEntity
  8
0
 62
7
100
AcDbSpline
 70
8
 71
3
 72
8
 73
4
 74
0
 40
0
 40
0
 40
0
 40
0
 40
1
 40
1
 40
1
 40
1
 10
472.240000
 20
303.600000
 30
0.0
 10
472.400000
 20
303.200000
 30
0.0
 10
477.760000
 20
305.600000
 30
0.0
 10
484.240000
 20
308.880000
 30
0.0
  0
SPLINE
  5
1ea
100
AcDbEntity
  8
0
 62
7
100
AcDbSpline
 70
8
 71
3
 72
8
 73
4
 74
0
 40
0
 40
0
 40
0
 40
0
 40
1
 40
1
 40
1
 40
1
 10
484.240000
 20
308.880000
 30
0.0
 10
501.200000
 20
317.440000
 30
0.0
 10
504.720000
 20
319.040000
 30
0.0
 10
514.720000
 20
322.640000
 30
0.0
  0
SPLINE
  5
1eb
100
AcDbEntity
  8
0
 62
7
100
AcDbSpline
 70
8
 71
3
 72
8
 73
4
 74
0
 40
0
 40
0
 40
0
 40
0
 40
1
 40
1
 40
1
 40
1
 10
514.720000
 20
322.640000
 30
0.0
 10
522.800000
 20
325.520000
 30
0.0
 10
524.400000
 20
325.840000
 30
0.0
 10
529.680000
 20
325.840000
 30
0.0
  0
SPLINE
  5
1ec
100
AcDbEntity
  8
0
 62
7
100
AcDbSpline
 70
8
 71
3
 72
8
 73
4
 74
0
 40
0
 40
0
 40
0
 40
0
 40
1
 40
1
 40
1
 40
1
 10
529.680000
 20
325.840000
 30
0.0
 10
534.160000
 20
325.840000
 30
0.0
 10
536.160000
 20
326.160000
 30
0.0
 10
538.240000
 20
327.200000
 30
0.0
  0
SPLINE
  5
1ed
100
AcDbEntity
  8
0
 62
7
100
AcDbSpline
 70
8
 71
3
 72
8
 73
4
 74
0
 40
0
 40
0
 40
0
 40
0
 40
1
 40
1
 40
1
 40
1
 10
538.240000
 20
327.200000
 30
0.0
 10
540.880000
 20
328.480000
 30
0.0
 10
541.120000
 20
328.480000
 30
0.0
 10
548.400000
 20
327.520000
 30
0.0
  0
SPLINE
  5
1ee
100
AcDbEntity
  8
0
 62
7
100
AcDbSpline
 70
8
 71
3
 72
8
 73
4
 74
0
 40
0
 40
0
 40
0
 40
0
 40
1
 40
1
 40
1
 40
1
 10
548.400000
 20
327.520000
 30
0.0
 10
561.520000
 20
325.760000
 30
0.0
 10
571.920000
 20
321.360000
 30
0.0
 10
579.520000
 20
314.400000
 30
0.0
  0
SPLINE
  5
1ef
100
AcDbEntity
  8
0
 62
7
100
AcDbSpline
 70
8
 71
3
 72
8
 73
4
 74
0
 40
0
 40
0
 40
0
 40
0
 40
1
 40
1
 40
1
 40
1
 10
579.520000
 20
314.400000
 30
0.0
 10
582.080000
 20
312.160000
 30
0.0
 10
582.800000
 20
311.040000
 30
0.0
 10
582.080000
 20
310.560000
 30
0.0
  0
SPLINE
  5
1f0
100
AcDbEntity
  8
0
 62
7
100
AcDbSpline
 70
8
 71
3
 72
8
 73
4
 74
0
 40
0
 40
0
 40
0
 40
0
 40
1
 40
1
 40
1
 40
1
 10
582.080000
 20
310.560000
 30
0.0
 10
581.360000
 20
310.000000
 30
0.0
 10
579.680000
 20
310.480000
 30
0.0
 10
576.480000
 20
312.160000
 30
0.0
  0
SPLINE
  5
1f1
100
AcDbEntity
  8
0
 62
7
100
AcDbSpline
 70
8
 71
3
 72
8
 73
4
 74
0
 40
0
 40
0
 40
0
 40
0
 40
1
 40
1
 40
1
 40
1
 10
576.480000
 20
312.160000
 30
0.0
 10
565.760000
 20
317.600000
 30
0.0
 10
560.880000
 20
319.440000
 30
0.0
 10
553.680000
 20
320.720000
 30
0.0
  0
SPLINE
  5
1f2
100
AcDbEntity
  8
0
 62
7
100
AcDbSpline
 70
8
 71
3
 72
8
 73
4
 74
0
 40
0
 40
0
 40
0
 40
0
 40
1
 40
1
 40
1
 40
1
 10
553.680000
 20
320.720000
 30
0.0
 10
533.760000
 20
324.320000
 30
0.0
 10
519.040000
 20
320.880000
 30
0.0
 10
491.840000
 20
306.480000
 30
0.0
  0
SPLINE
  5
1f3
100
AcDbEntity
  8
0
 62
7
100
AcDbSpline
 70
8
 71
3
 72
8
 73
4
 74
0
 40
0
 40
0
 40
0
 40
0
 40
1
 40
1
 40
1
 40
1
 10
491.840000
 20
306.480000
 30
0.0
 10
481.200000
 20
300.800000
 30
0.0
 10
480.960000
 20
300.640000
 30
0.0
 10
479.040000
 20
296.640000
 30
0.0
  0
LINE
  5
1f4
100
AcDbEntity
  8
0
 62
7
100
AcDbLine
 10
479.040000
 20
296.640000
 30
0.0
 11
477.120000
 21
292.560000
 31
0.0
  0
LINE
  5
1f5
100
AcDbEntity
  8
0
 62
7
100
AcDbLine
 10
477.120000
 20
292.560000
 30
0.0
 11
472.080000
 21
292.560000
 31
0.0
  0
SPLINE
  5
1f6
100
AcDbEntity
  8
0
 62
7
100
AcDbSpline
 70
8
 71
3
 72
8
 73
4
 74
0
 40
0
 40
0
 40
0
 40
0
 40
1
 40
1
 40
1
 40
1
 10
472.080000
 20
292.560000
 30
0.0
 10
468.560000
 20
292.560000
 30
0.0
 10
466.800000
 20
292.320000
 30
0.0
 10
466.240000
 20
291.680000
 30
0.0
  0
SPLINE
  5
1f7
100
AcDbEntity
  8
0
 62
7
100
AcDbSpline
 70
8
 71
3
 72
8
 73
4
 74
0
 40
0
 40
0
 40
0
 40
0
 40
1
 40
1
 40
1
 40
1
 10
466.240000
 20
291.680000
 30
0.0
 10
463.760000
 20
288.640000
 30
0.0
 10
459.040000
 20
278.320000
 30
0.0
 10
459.440000
 20
276.880000
 30
0.0
  0
SPLINE
  5
1f8
100
AcDbEntity
  8
0
 62
7
100
AcDbSpline
 70
8
 71
3
 72
8
 73
4
 74
0
 40
0
 40
0
 40
0
 40
0
 40
1
 40
1
 40
1
 40
1
 10
459.440000
 20
276.880000
 30
0.0
 10
460.400000
 20
273.360000
 30
0.0
 10
451.200000
 20
257.920000
 30
0.0
 10
441.600000
 20
247.040000
 30
0.0
  0
SPLINE
  5
1f9
100
AcDbEntity
  8
0
 62
7
100
AcDbSpline
 70
8
 71
3
 72
8
 73
4
 74
0
 40
0
 40
0
 40
0
 40
0
 40
1
 40
1
 40
1
 40
1
 10
441.600000
 20
247.040000
 30
0.0
 10
439.440000
 20
244.640000
 30
0.0
 10
437.120000
 20
241.120000
 30
0.0
 10
436.320000
 20
239.120000
 30
0.0
  0
SPLINE
  5
1fa
100
AcDbEntity
  8
0
 62
7
100
AcDbSpline
 70
8
 71
3
 72
8
 73
4
 74
0
 40
0
 40
0
 40
0
 40
0
 40
1
 40
1
 40
1
 40
1
 10
436.320000
 20
239.120000
 30
0.0
 10
435.600000
 20
237.200000
 30
0.0
 10
434.240000
 20
235.040000
 30
0.0
 10
433.360000
 20
234.400000
 30
0.0
  0
SPLINE
  5
1fb
100
AcDbEntity
  8
0
 62
7
100
AcDbSpline
 70
8
 71
3
 72
8
 73
4
 74
0
 40
0
 40
0
 40
0
 40
0
 40
1
 40
1
 40
1
 40
1
 10
433.360000
 20
234.400000
 30
0.0
 10
432.480000
 20
233.760000
 30
0.0
 10
431.680000
 20
232.080000
 30
0.0
 10
431.600000
 20
230.560000
 30
0.0
  0
SPLINE
  5
1fc
100
AcDbEntity
  8
0
 62
7
100
AcDbSpline
 70
8
 71
3
 72
8
 73
4
 74
0
 40
0
 40
0
 40
0
 40
0
 40
1
 40
1
 40
1
 40
1
 10
431.600000
 20
230.560000
 30
0.0
 10
431.520000
 20
227.600000
 30
0.0
 10
423.200000
 20
213.760000
 30
0.0
 10
421.200000
 20
213.280000
 30
0.0
  0
SPLINE
  5
1fd
100
AcDbEntity
  8
0
 62
7
100
AcDbSpline
 70
8
 71
3
 72
8
 73
4
 74
0
 40
0
 40
0
 40
0
 40
0
 40
1
 40
1
 40
1
 40
1
 10
421.200000
 20
213.280000
 30
0.0
 10
420.480000
 20
213.120000
 30
0.0
 10
419.920000
 20
212.560000
 30
0.0
 10
419.920000
 20
212.080000
 30
0.0
  0
SPLINE
  5
1fe
100
AcDbEntity
  8
0
 62
7
100
AcDbSpline
 70
8
 71
3
 72
8
 73
4
 74
0
 40
0
 40
0
 40
0
 40
0
 40
1
 40
1
 40
1
 40
1
 10
419.920000
 20
212.080000
 30
0.0
 10
419.920000
 20
211.600000
 30
0.0
 10
418.880000
 20
210.720000
 30
0.0
 10
417.600000
 20
210.080000
 30
0.0
  0
SPLINE
  5
1ff
100
AcDbEntity
  8
0
 62
7
100
AcDbSpline
 70
8
 71
3
 72
8
 73
4
 74
0
 40
0
 40
0
 40
0
 40
0
 40
1
 40
1
 40
1
 40
1
 10
417.600000
 20
210.080000
 30
0.0
 10
415.520000
 20
208.960000
 30
0.0
 10
415.360000
 20
208.480000
 30
0.0
 10
415.600000
 20
204.320000
 30
0.0
  0
SPLINE
  5
200
100
AcDbEntity
  8
0
 62
7
100
AcDbSpline
 70
8
 71
3
 72
8
 73
4
 74
0
 40
0
 40
0
 40
0
 40
0
 40
1
 40
1
 40
1
 40
1
 10
415.600000
 20
204.320000
 30
0.0
 10
415.760000
 20
201.360000
 30
0.0
 10
416.320000
 20
199.360000
 30
0.0
 10
417.280000
 20
198.640000
 30
0.0
  0
SPLINE
  5
201
100
AcDbEntity
  8
0
 62
7
100
AcDbSpline
 70
8
 71
3
 72
8
 73
4
 74
0
 40
0
 40
0
 40
0
 40
0
 40
1
 40
1
 40
1
 40
1
 10
417.280000
 20
198.640000
 30
0.0
 10
418.080000
 20
198.080000
 30
0.0
 10
418.960000
 20
196.560000
 30
0.0
 10
419.280000
 20
195.360000
 30
0.0
  0
SPLINE
  5
202
100
AcDbEntity
  8
0
 62
7
100
AcDbSpline
 70
8
 71
3
 72
8
 73
4
 74
0
 40
0
 40
0
 40
0
 40
0
 40
1
 40
1
 40
1
 40
1
 10
419.280000
 20
195.360000
 30
0.0
 10
420.000000
 20
192.880000
 30
0.0
 10
425.040000
 20
185.680000
 30
0.0
 10
427.680000
 20
183.280000
 30
0.0
  0
SPLINE
  5
203
100
AcDbEntity
  8
0
 62
7
100
AcDbSpline
 70
8
 71
3
 72
8
 73
4
 74
0
 40
0
 40
0
 40
0
 40
0
 40
1
 40
1
 40
1
 40
1
 10
427.680000
 20
183.280000
 30
0.0
 10
430.720000
 20
180.640000
 30
0.0
 10
438.160000
 20
175.600000
 30
0.0
 10
439.760000
 20
175.120000
 30
0.0
  0
SPLINE
  5
204
100
AcDbEntity
  8
0
 62
7
100
AcDbSpline
 70
8
 71
3
 72
8
 73
4
 74
0
 40
0
 40
0
 40
0
 40
0
 40
1
 40
1
 40
1
 40
1
 10
439.760000
 20
175.120000
 30
0.0
 10
443.680000
 20
174.000000
 30
0.0
 10
454.000000
 20
169.120000
 30
0.0
 10
454.000000
 20
168.400000
 30
0.0
  0
SPLINE
  5
205
100
AcDbEntity
  8
0
 62
7
100
AcDbSpline
 70
8
 71
3
 72
8
 73
4
 74
0
 40
0
 40
0
 40
0
 40
0
 40
1
 40
1
 40
1
 40
1
 10
454.000000
 20
168.400000
 30
0.0
 10
454.000000
 20
167.920000
 30
0.0
 10
454.880000
 20
166.560000
 30
0.0
 10
455.840000
 20
165.440000
 30
0.0
  0
SPLINE
  5
206
100
AcDbEntity
  8
0
 62
7
100
AcDbSpline
 70
8
 71
3
 72
8
 73
4
 74
0
 40
0
 40
0
 40
0
 40
0
 40
1
 40
1
 40
1
 40
1
 10
455.840000
 20
165.440000
 30
0.0
 10
456.960000
 20
164.160000
 30
0.0
 10
458.000000
 20
161.440000
 30
0.0
 10
458.400000
 20
158.720000
 30
0.0
  0
LINE
  5
207
100
AcDbEntity
  8
0
 62
7
100
AcDbLine
 10
458.400000
 20
158.720000
 30
0.0
 11
459.040000
 21
154.160000
 31
0.0
  0
LINE
  5
208
100
AcDbEntity
  8
0
 62
7
100
AcDbLine
 10
459.040000
 20
154.160000
 30
0.0
 11
455.360000
 21
153.120000
 31
0.0
  0
SPLINE
  5
209
100
AcDbEntity
  8
0
 62
7
100
AcDbSpline
 70
8
 71
3
 72
8
 73
4
 74
0
 40
0
 40
0
 40
0
 40
0
 40
1
 40
1
 40
1
 40
1
 10
455.360000
 20
153.120000
 30
0.0
 10
453.280000
 20
152.560000
 30
0.0
 10
449.520000
 20
151.920000
 30
0.0
 10
446.880000
 20
151.680000
 30
0.0
  0
SPLINE
  5
20a
100
AcDbEntity
  8
0
 62
7
100
AcDbSpline
 70
8
 71
3
 72
8
 73
4
 74
0
 40
0
 40
0
 40
0
 40
0
 40
1
 40
1
 40
1
 40
1
 10
446.880000
 20
151.680000
 30
0.0
 10
444.240000
 20
151.440000
 30
0.0
 10
441.680000
 20
151.040000
 30
0.0
 10
441.200000
 20
150.880000
 30
0.0
  0
SPLINE
  5
20b
100
AcDbEntity
  8
0
 62
7
100
AcDbSpline
 70
8
 71
3
 72
8
 73
4
 74
0
 40
0
 40
0
 40
0
 40
0
 40
1
 40
1
 40
1
 40
1
 10
441.200000
 20
150.880000
 30
0.0
 10
440.720000
 20
150.720000
 30
0.0
 10
439.440000
 20
150.720000
 30
0.0
 10
438.400000
 20
150.800000
 30
0.0
  0
LINE
  5
20c
100
AcDbEntity
  8
0
 62
7
100
AcDbLine
 10
438.400000
 20
150.800000
 30
0.0
 11
438.400000
 21
150.800000
 31
0.0
  0
SPLINE
  5
20d
100
AcDbEntity
  8
0
 62
7
100
AcDbSpline
 70
8
 71
3
 72
8
 73
4
 74
0
 40
0
 40
0
 40
0
 40
0
 40
1
 40
1
 40
1
 40
1
 10
335.440000
 20
282.960000
 30
0.0
 10
336.080000
 20
283.360000
 30
0.0
 10
336.560000
 20
284.320000
 30
0.0
 10
336.400000
 20
285.280000
 30
0.0
  0
SPLINE
  5
20e
100
AcDbEntity
  8
0
 62
7
100
AcDbSpline
 70
8
 71
3
 72
8
 73
4
 74
0
 40
0
 40
0
 40
0
 40
0
 40
1
 40
1
 40
1
 40
1
 10
336.400000
 20
285.280000
 30
0.0
 10
336.160000
 20
286.560000
 30
0.0
 10
335.520000
 20
286.960000
 30
0.0
 10
333.200000
 20
287.040000
 30
0.0
  0
SPLINE
  5
20f
100
AcDbEntity
  8
0
 62
7
100
AcDbSpline
 70
8
 71
3
 72
8
 73
4
 74
0
 40
0
 40
0
 40
0
 40
0
 40
1
 40
1
 40
1
 40
1
 10
333.200000
 20
287.040000
 30
0.0
 10
329.120000
 20
287.360000
 30
0.0
 10
326.400000
 20
285.280000
 30
0.0
 10
327.840000
 20
283.040000
 30
0.0
  0
SPLINE
  5
210
100
AcDbEntity
  8
0
 62
7
100
AcDbSpline
 70
8
 71
3
 72
8
 73
4
 74
0
 40
0
 40
0
 40
0
 40
0
 40
1
 40
1
 40
1
 40
1
 10
327.840000
 20
283.040000
 30
0.0
 10
328.800000
 20
281.760000
 30
0.0
 10
329.360000
 20
281.520000
 30
0.0
 10
331.600000
 20
281.920000
 30
0.0
  0
SPLINE
  5
211
100
AcDbEntity
  8
0
 62
7
100
AcDbSpline
 70
8
 71
3
 72
8
 73
4
 74
0
 40
0
 40
0
 40
0
 40
0
 40
1
 40
1
 40
1
 40
1
 10
331.600000
 20
281.920000
 30
0.0
 10
333.040000
 20
282.160000
 30
0.0
 10
334.720000
 20
282.640000
 30
0.0
 10
335.440000
 20
282.960000
 30
0.0
  0
LINE
  5
212
100
AcDbEntity
  8
0
 62
7
100
AcDbLine
 10
335.440000
 20
282.960000
 30
0.0
 11
335.440000
 21
282.960000
 31
0.0
  0
SPLINE
  5
213
100
AcDbEntity
  8
0
 62
7
100
AcDbSpline
 70
8
 71
3
 72
8
 73
4
 74
0
 40
0
 40
0
 40
0
 40
0
 40
1
 40
1
 40
1
 40
1
 10
372.560000
 20
286.880000
 30
0.0
 10
375.920000
 20
287.440000
 30
0.0
 10
379.920000
 20
288.160000
 30
0.0
 10
381.440000
 20
288.400000
 30
0.0
  0
SPLINE
  5
214
100
AcDbEntity
  8
0
 62
7
100
AcDbSpline
 70
8
 71
3
 72
8
 73
4
 74
0
 40
0
 40
0
 40
0
 40
0
 40
1
 40
1
 40
1
 40
1
 10
381.440000
 20
288.400000
 30
0.0
 10
385.680000
 20
289.040000
 30
0.0
 10
385.360000
 20
290.000000
 30
0.0
 10
380.240000
 20
291.840000
 30
0.0
  0
SPLINE
  5
215
100
AcDbEntity
  8
0
 62
7
100
AcDbSpline
 70
8
 71
3
 72
8
 73
4
 74
0
 40
0
 40
0
 40
0
 40
0
 40
1
 40
1
 40
1
 40
1
 10
380.240000
 20
291.840000
 30
0.0
 10
372.240000
 20
294.800000
 30
0.0
 10
366.400000
 20
293.840000
 30
0.0
 10
364.160000
 20
289.200000
 30
0.0
  0
SPLINE
  5
216
100
AcDbEntity
  8
0
 62
7
100
AcDbSpline
 70
8
 71
3
 72
8
 73
4
 74
0
 40
0
 40
0
 40
0
 40
0
 40
1
 40
1
 40
1
 40
1
 10
364.160000
 20
289.200000
 30
0.0
 10
362.640000
 20
286.080000
 30
0.0
 10
362.800000
 20
285.200000
 30
0.0
 10
364.720000
 20
285.520000
 30
0.0
  0
SPLINE
  5
217
100
AcDbEntity
  8
0
 62
7
100
AcDbSpline
 70
8
 71
3
 72
8
 73
4
 74
0
 40
0
 40
0
 40
0
 40
0
 40
1
 40
1
 40
1
 40
1
 10
364.720000
 20
285.520000
 30
0.0
 10
365.680000
 20
285.680000
 30
0.0
 10
369.200000
 20
286.320000
 30
0.0
 10
372.560000
 20
286.880000
 30
0.0
  0
LINE
  5
218
100
AcDbEntity
  8
0
 62
7
100
AcDbLine
 10
372.560000
 20
286.880000
 30
0.0
 11
372.560000
 21
286.880000
 31
0.0
  0
SPLINE
  5
219
100
AcDbEntity
  8
0
 62
7
100
AcDbSpline
 70
8
 71
3
 72
8
 73
4
 74
0
 40
0
 40
0
 40
0
 40
0
 40
1
 40
1
 40
1
 40
1
 10
344.880000
 20
289.200000
 30
0.0
 10
348.720000
 20
290.000000
 30
0.0
 10
350.480000
 20
291.680000
 30
0.0
 10
347.360000
 20
291.680000
 30
0.0
  0
SPLINE
  5
21a
100
AcDbEntity
  8
0
 62
7
100
AcDbSpline
 70
8
 71
3
 72
8
 73
4
 74
0
 40
0
 40
0
 40
0
 40
0
 40
1
 40
1
 40
1
 40
1
 10
347.360000
 20
291.680000
 30
0.0
 10
345.360000
 20
291.680000
 30
0.0
 10
338.480000
 20
289.040000
 30
0.0
 10
338.480000
 20
288.320000
 30
0.0
  0
SPLINE
  5
21b
100
AcDbEntity
  8
0
 62
7
100
AcDbSpline
 70
8
 71
3
 72
8
 73
4
 74
0
 40
0
 40
0
 40
0
 40
0
 40
1
 40
1
 40
1
 40
1
 10
338.480000
 20
288.320000
 30
0.0
 10
338.480000
 20
288.000000
 30
0.0
 10
338.960000
 20
287.920000
 30
0.0
 10
339.680000
 20
288.080000
 30
0.0
  0
SPLINE
  5
21c
100
AcDbEntity
  8
0
 62
7
100
AcDbSpline
 70
8
 71
3
 72
8
 73
4
 74
0
 40
0
 40
0
 40
0
 40
0
 40
1
 40
1
 40
1
 40
1
 10
339.680000
 20
288.080000
 30
0.0
 10
340.320000
 20
288.240000
 30
0.0
 10
342.640000
 20
288.800000
 30
0.0
 10
344.880000
 20
289.200000
 30
0.0
  0
LINE
  5
21d
100
AcDbEntity
  8
0
 62
7
100
AcDbLine
 10
344.880000
 20
289.200000
 30
0.0
 11
344.880000
 21
289.200000
 31
0.0
  0
SPLINE
  5
21e
100
AcDbEntity
  8
0
 62
7
100
AcDbSpline
 70
8
 71
3
 72
8
 73
4
 74
0
 40
0
 40
0
 40
0
 40
0
 40
1
 40
1
 40
1
 40
1
 10
339.520000
 20
292.400000
 30
0.0
 10
341.520000
 20
292.800000
 30
0.0
 10
345.680000
 20
294.560000
 30
0.0
 10
348.640000
 20
296.400000
 30
0.0
  0
SPLINE
  5
21f
100
AcDbEntity
  8
0
 62
7
100
AcDbSpline
 70
8
 71
3
 72
8
 73
4
 74
0
 40
0
 40
0
 40
0
 40
0
 40
1
 40
1
 40
1
 40
1
 10
348.640000
 20
296.400000
 30
0.0
 10
356.320000
 20
301.040000
 30
0.0
 10
358.880000
 20
301.760000
 30
0.0
 10
367.040000
 20
301.760000
 30
0.0
  0
SPLINE
  5
220
100
AcDbEntity
  8
0
 62
7
100
AcDbSpline
 70
8
 71
3
 72
8
 73
4
 74
0
 40
0
 40
0
 40
0
 40
0
 40
1
 40
1
 40
1
 40
1
 10
367.040000
 20
301.760000
 30
0.0
 10
372.800000
 20
301.760000
 30
0.0
 10
375.040000
 20
301.440000
 30
0.0
 10
380.080000
 20
299.840000
 30
0.0
  0
SPLINE
  5
221
100
AcDbEntity
  8
0
 62
7
100
AcDbSpline
 70
8
 71
3
 72
8
 73
4
 74
0
 40
0
 40
0
 40
0
 40
0
 40
1
 40
1
 40
1
 40
1
 10
380.080000
 20
299.840000
 30
0.0
 10
386.080000
 20
297.920000
 30
0.0
 10
386.320000
 20
297.920000
 30
0.0
 10
387.680000
 20
299.120000
 30
0.0
  0
SPLINE
  5
222
100
AcDbEntity
  8
0
 62
7
100
AcDbSpline
 70
8
 71
3
 72
8
 73
4
 74
0
 40
0
 40
0
 40
0
 40
0
 40
1
 40
1
 40
1
 40
1
 10
387.680000
 20
299.120000
 30
0.0
 10
388.480000
 20
299.760000
 30
0.0
 10
390.320000
 20
300.800000
 30
0.0
 10
391.680000
 20
301.360000
 30
0.0
  0
SPLINE
  5
223
100
AcDbEntity
  8
0
 62
7
100
AcDbSpline
 70
8
 71
3
 72
8
 73
4
 74
0
 40
0
 40
0
 40
0
 40
0
 40
1
 40
1
 40
1
 40
1
 10
391.680000
 20
301.360000
 30
0.0
 10
394.160000
 20
302.480000
 30
0.0
 10
394.240000
 20
302.480000
 30
0.0
 10
397.840000
 20
300.320000
 30
0.0
  0
SPLINE
  5
224
100
AcDbEntity
  8
0
 62
7
100
AcDbSpline
 70
8
 71
3
 72
8
 73
4
 74
0
 40
0
 40
0
 40
0
 40
0
 40
1
 40
1
 40
1
 40
1
 10
397.840000
 20
300.320000
 30
0.0
 10
402.480000
 20
297.520000
 30
0.0
 10
413.440000
 20
294.160000
 30
0.0
 10
414.000000
 20
295.360000
 30
0.0
  0
SPLINE
  5
225
100
AcDbEntity
  8
0
 62
7
100
AcDbSpline
 70
8
 71
3
 72
8
 73
4
 74
0
 40
0
 40
0
 40
0
 40
0
 40
1
 40
1
 40
1
 40
1
 10
414.000000
 20
295.360000
 30
0.0
 10
414.240000
 20
295.840000
 30
0.0
 10
416.320000
 20
298.080000
 30
0.0
 10
418.640000
 20
300.400000
 30
0.0
  0
SPLINE
  5
226
100
AcDbEntity
  8
0
 62
7
100
AcDbSpline
 70
8
 71
3
 72
8
 73
4
 74
0
 40
0
 40
0
 40
0
 40
0
 40
1
 40
1
 40
1
 40
1
 10
418.640000
 20
300.400000
 30
0.0
 10
424.560000
 20
306.240000
 30
0.0
 10
423.920000
 20
306.480000
 30
0.0
 10
405.680000
 20
305.840000
 30
0.0
  0
SPLINE
  5
227
100
AcDbEntity
  8
0
 62
7
100
AcDbSpline
 70
8
 71
3
 72
8
 73
4
 74
0
 40
0
 40
0
 40
0
 40
0
 40
1
 40
1
 40
1
 40
1
 10
405.680000
 20
305.840000
 30
0.0
 10
386.080000
 20
305.120000
 30
0.0
 10
378.560000
 20
305.280000
 30
0.0
 10
371.600000
 20
306.560000
 30
0.0
  0
SPLINE
  5
228
100
AcDbEntity
  8
0
 62
7
100
AcDbSpline
 70
8
 71
3
 72
8
 73
4
 74
0
 40
0
 40
0
 40
0
 40
0
 40
1
 40
1
 40
1
 40
1
 10
371.600000
 20
306.560000
 30
0.0
 10
364.240000
 20
307.920000
 30
0.0
 10
344.480000
 20
313.040000
 30
0.0
 10
334.800000
 20
316.080000
 30
0.0
  0
LINE
  5
229
100
AcDbEntity
  8
0
 62
7
100
AcDbLine
 10
334.800000
 20
316.080000
 30
0.0
 11
327.840000
 21
318.320000
 31
0.0
  0
LINE
  5
22a
100
AcDbEntity
  8
0
 62
7
100
AcDbLine
 10
327.840000
 20
318.320000
 30
0.0
 11
314.400000
 21
318.080000
 31
0.0
  0
LINE
  5
22b
100
AcDbEntity
  8
0
 62
7
100
AcDbLine
 10
314.400000
 20
318.080000
 30
0.0
 11
301.040000
 21
317.920000
 31
0.0
  0
LINE
  5
22c
100
AcDbEntity
  8
0
 62
7
100
AcDbLine
 10
301.040000
 20
317.920000
 30
0.0
 11
300.720000
 21
316.160000
 31
0.0
  0
SPLINE
  5
22d
100
AcDbEntity
  8
0
 62
7
100
AcDbSpline
 70
8
 71
3
 72
8
 73
4
 74
0
 40
0
 40
0
 40
0
 40
0
 40
1
 40
1
 40
1
 40
1
 10
300.720000
 20
316.160000
 30
0.0
 10
300.560000
 20
315.040000
 30
0.0
 10
301.280000
 20
313.600000
 30
0.0
 10
302.640000
 20
312.320000
 30
0.0
  0
SPLINE
  5
22e
100
AcDbEntity
  8
0
 62
7
100
AcDbSpline
 70
8
 71
3
 72
8
 73
4
 74
0
 40
0
 40
0
 40
0
 40
0
 40
1
 40
1
 40
1
 40
1
 10
302.640000
 20
312.320000
 30
0.0
 10
303.840000
 20
311.280000
 30
0.0
 10
306.560000
 20
306.880000
 30
0.0
 10
308.560000
 20
302.720000
 30
0.0
  0
SPLINE
  5
22f
100
AcDbEntity
  8
0
 62
7
100
AcDbSpline
 70
8
 71
3
 72
8
 73
4
 74
0
 40
0
 40
0
 40
0
 40
0
 40
1
 40
1
 40
1
 40
1
 10
308.560000
 20
302.720000
 30
0.0
 10
310.640000
 20
298.560000
 30
0.0
 10
312.480000
 20
295.040000
 30
0.0
 10
312.560000
 20
294.880000
 30
0.0
  0
SPLINE
  5
230
100
AcDbEntity
  8
0
 62
7
100
AcDbSpline
 70
8
 71
3
 72
8
 73
4
 74
0
 40
0
 40
0
 40
0
 40
0
 40
1
 40
1
 40
1
 40
1
 10
312.560000
 20
294.880000
 30
0.0
 10
312.720000
 20
294.720000
 30
0.0
 10
313.440000
 20
294.960000
 30
0.0
 10
314.240000
 20
295.360000
 30
0.0
  0
SPLINE
  5
231
100
AcDbEntity
  8
0
 62
7
100
AcDbSpline
 70
8
 71
3
 72
8
 73
4
 74
0
 40
0
 40
0
 40
0
 40
0
 40
1
 40
1
 40
1
 40
1
 10
314.240000
 20
295.360000
 30
0.0
 10
315.280000
 20
296.000000
 30
0.0
 10
315.680000
 20
295.920000
 30
0.0
 10
316.160000
 20
294.880000
 30
0.0
  0
SPLINE
  5
232
100
AcDbEntity
  8
0
 62
7
100
AcDbSpline
 70
8
 71
3
 72
8
 73
4
 74
0
 40
0
 40
0
 40
0
 40
0
 40
1
 40
1
 40
1
 40
1
 10
316.160000
 20
294.880000
 30
0.0
 10
316.880000
 20
293.280000
 30
0.0
 10
318.400000
 20
293.120000
 30
0.0
 10
319.200000
 20
294.480000
 30
0.0
  0
SPLINE
  5
233
100
AcDbEntity
  8
0
 62
7
100
AcDbSpline
 70
8
 71
3
 72
8
 73
4
 74
0
 40
0
 40
0
 40
0
 40
0
 40
1
 40
1
 40
1
 40
1
 10
319.200000
 20
294.480000
 30
0.0
 10
320.160000
 20
296.160000
 30
0.0
 10
325.120000
 20
295.680000
 30
0.0
 10
327.920000
 20
293.600000
 30
0.0
  0
SPLINE
  5
234
100
AcDbEntity
  8
0
 62
7
100
AcDbSpline
 70
8
 71
3
 72
8
 73
4
 74
0
 40
0
 40
0
 40
0
 40
0
 40
1
 40
1
 40
1
 40
1
 10
327.920000
 20
293.600000
 30
0.0
 10
330.720000
 20
291.520000
 30
0.0
 10
333.600000
 20
291.200000
 30
0.0
 10
339.520000
 20
292.400000
 30
0.0
  0
LINE
  5
235
100
AcDbEntity
  8
0
 62
7
100
AcDbLine
 10
339.520000
 20
292.400000
 30
0.0
 11
339.520000
 21
292.400000
 31
0.0
  0
SPLINE
  5
236
100
AcDbEntity
  8
0
 62
7
100
AcDbSpline
 70
8
 71
3
 72
8
 73
4
 74
0
 40
0
 40
0
 40
0
 40
0
 40
1
 40
1
 40
1
 40
1
 10
278.800000
 20
312.080000
 30
0.0
 10
278.800000
 20
312.720000
 30
0.0
 10
278.160000
 20
313.200000
 30
0.0
 10
277.440000
 20
313.200000
 30
0.0
  0
SPLINE
  5
237
100
AcDbEntity
  8
0
 62
7
100
AcDbSpline
 70
8
 71
3
 72
8
 73
4
 74
0
 40
0
 40
0
 40
0
 40
0
 40
1
 40
1
 40
1
 40
1
 10
277.440000
 20
313.200000
 30
0.0
 10
275.440000
 20
313.200000
 30
0.0
 10
275.120000
 20
312.480000
 30
0.0
 10
276.080000
 20
310.640000
 30
0.0
  0
SPLINE
  5
238
100
AcDbEntity
  8
0
 62
7
100
AcDbSpline
 70
8
 71
3
 72
8
 73
4
 74
0
 40
0
 40
0
 40
0
 40
0
 40
1
 40
1
 40
1
 40
1
 10
276.080000
 20
310.640000
 30
0.0
 10
276.800000
 20
309.360000
 30
0.0
 10
277.120000
 20
309.280000
 30
0.0
 10
277.840000
 20
310.000000
 30
0.0
  0
SPLINE
  5
239
100
AcDbEntity
  8
0
 62
7
100
AcDbSpline
 70
8
 71
3
 72
8
 73
4
 74
0
 40
0
 40
0
 40
0
 40
0
 40
1
 40
1
 40
1
 40
1
 10
277.840000
 20
310.000000
 30
0.0
 10
278.400000
 20
310.560000
 30
0.0
 10
278.800000
 20
311.440000
 30
0.0
 10
278.800000
 20
312.080000
 30
0.0
  0
LINE
  5
23a
100
AcDbEntity
  8
0
 62
7
100
AcDbLine
 10
278.800000
 20
312.080000
 30
0.0
 11
278.800000
 21
312.080000
 31
0.0
  0
SPLINE
  5
23b
100
AcDbEntity
  8
0
 62
7
100
AcDbSpline
 70
8
 71
3
 72
8
 73
4
 74
0
 40
0
 40
0
 40
0
 40
0
 40
1
 40
1
 40
1
 40
1
 10
464.000000
 20
527.440000
 30
0.0
 10
465.120000
 20
532.080000
 30
0.0
 10
463.440000
 20
549.280000
 30
0.0
 10
461.040000
 20
557.600000
 30
0.0
  0
SPLINE
  5
23c
100
AcDbEntity
  8
0
 62
7
100
AcDbSpline
 70
8
 71
3
 72
8
 73
4
 74
0
 40
0
 40
0
 40
0
 40
0
 40
1
 40
1
 40
1
 40
1
 10
461.040000
 20
557.600000
 30
0.0
 10
459.760000
 20
561.840000
 30
0.0
 10
458.720000
 20
565.840000
 30
0.0
 10
458.720000
 20
566.480000
 30
0.0
  0
SPLINE
  5
23d
100
AcDbEntity
  8
0
 62
7
100
AcDbSpline
 70
8
 71
3
 72
8
 73
4
 74
0
 40
0
 40
0
 40
0
 40
0
 40
1
 40
1
 40
1
 40
1
 10
458.720000
 20
566.480000
 30
0.0
 10
458.720000
 20
567.120000
 30
0.0
 10
457.280000
 20
569.520000
 30
0.0
 10
455.440000
 20
571.920000
 30
0.0
  0
SPLINE
  5
23e
100
AcDbEntity
  8
0
 62
7
100
AcDbSpline
 70
8
 71
3
 72
8
 73
4
 74
0
 40
0
 40
0
 40
0
 40
0
 40
1
 40
1
 40
1
 40
1
 10
455.440000
 20
571.920000
 30
0.0
 10
453.680000
 20
574.320000
 30
0.0
 10
451.280000
 20
578.080000
 30
0.0
 10
450.160000
 20
580.320000
 30
0.0
  0
SPLINE
  5
23f
100
AcDbEntity
  8
0
 62
7
100
AcDbSpline
 70
8
 71
3
 72
8
 73
4
 74
0
 40
0
 40
0
 40
0
 40
0
 40
1
 40
1
 40
1
 40
1
 10
450.160000
 20
580.320000
 30
0.0
 10
448.480000
 20
583.680000
 30
0.0
 10
447.280000
 20
584.960000
 30
0.0
 10
442.640000
 20
587.760000
 30
0.0
  0
SPLINE
  5
240
100
AcDbEntity
  8
0
 62
7
100
AcDbSpline
 70
8
 71
3
 72
8
 73
4
 74
0
 40
0
 40
0
 40
0
 40
0
 40
1
 40
1
 40
1
 40
1
 10
442.640000
 20
587.760000
 30
0.0
 10
438.240000
 20
590.400000
 30
0.0
 10
436.880000
 20
591.680000
 30
0.0
 10
436.160000
 20
593.760000
 30
0.0
  0
SPLINE
  5
241
100
AcDbEntity
  8
0
 62
7
100
AcDbSpline
 70
8
 71
3
 72
8
 73
4
 74
0
 40
0
 40
0
 40
0
 40
0
 40
1
 40
1
 40
1
 40
1
 10
436.160000
 20
593.760000
 30
0.0
 10
435.200000
 20
596.560000
 30
0.0
 10
430.960000
 20
601.520000
 30
0.0
 10
429.440000
 20
601.520000
 30
0.0
  0
SPLINE
  5
242
100
AcDbEntity
  8
0
 62
7
100
AcDbSpline
 70
8
 71
3
 72
8
 73
4
 74
0
 40
0
 40
0
 40
0
 40
0
 40
1
 40
1
 40
1
 40
1
 10
429.440000
 20
601.520000
 30
0.0
 10
428.160000
 20
601.520000
 30
0.0
 10
427.200000
 20
600.400000
 30
0.0
 10
420.400000
 20
591.680000
 30
0.0
  0
SPLINE
  5
243
100
AcDbEntity
  8
0
 62
7
100
AcDbSpline
 70
8
 71
3
 72
8
 73
4
 74
0
 40
0
 40
0
 40
0
 40
0
 40
1
 40
1
 40
1
 40
1
 10
420.400000
 20
591.680000
 30
0.0
 10
416.800000
 20
587.120000
 30
0.0
 10
412.880000
 20
582.320000
 30
0.0
 10
411.520000
 20
580.880000
 30
0.0
  0
SPLINE
  5
244
100
AcDbEntity
  8
0
 62
7
100
AcDbSpline
 70
8
 71
3
 72
8
 73
4
 74
0
 40
0
 40
0
 40
0
 40
0
 40
1
 40
1
 40
1
 40
1
 10
411.520000
 20
580.880000
 30
0.0
 10
410.240000
 20
579.520000
 30
0.0
 10
407.680000
 20
576.480000
 30
0.0
 10
405.840000
 20
574.240000
 30
0.0
  0
SPLINE
  5
245
100
AcDbEntity
  8
0
 62
7
100
AcDbSpline
 70
8
 71
3
 72
8
 73
4
 74
0
 40
0
 40
0
 40
0
 40
0
 40
1
 40
1
 40
1
 40
1
 10
405.840000
 20
574.240000
 30
0.0
 10
404.080000
 20
572.000000
 30
0.0
 10
402.080000
 20
569.680000
 30
0.0
 10
401.440000
 20
569.200000
 30
0.0
  0
SPLINE
  5
246
100
AcDbEntity
  8
0
 62
7
100
AcDbSpline
 70
8
 71
3
 72
8
 73
4
 74
0
 40
0
 40
0
 40
0
 40
0
 40
1
 40
1
 40
1
 40
1
 10
401.440000
 20
569.200000
 30
0.0
 10
400.800000
 20
568.640000
 30
0.0
 10
399.760000
 20
567.280000
 30
0.0
 10
399.200000
 20
566.080000
 30
0.0
  0
SPLINE
  5
247
100
AcDbEntity
  8
0
 62
7
100
AcDbSpline
 70
8
 71
3
 72
8
 73
4
 74
0
 40
0
 40
0
 40
0
 40
0
 40
1
 40
1
 40
1
 40
1
 10
399.200000
 20
566.080000
 30
0.0
 10
398.560000
 20
564.880000
 30
0.0
 10
397.520000
 20
563.440000
 30
0.0
 10
396.800000
 20
562.880000
 30
0.0
  0
SPLINE
  5
248
100
AcDbEntity
  8
0
 62
7
100
AcDbSpline
 70
8
 71
3
 72
8
 73
4
 74
0
 40
0
 40
0
 40
0
 40
0
 40
1
 40
1
 40
1
 40
1
 10
396.800000
 20
562.880000
 30
0.0
 10
396.080000
 20
562.320000
 30
0.0
 10
393.120000
 20
558.800000
 30
0.0
 10
390.160000
 20
555.040000
 30
0.0
  0
SPLINE
  5
249
100
AcDbEntity
  8
0
 62
7
100
AcDbSpline
 70
8
 71
3
 72
8
 73
4
 74
0
 40
0
 40
0
 40
0
 40
0
 40
1
 40
1
 40
1
 40
1
 10
390.160000
 20
555.040000
 30
0.0
 10
386.240000
 20
550.000000
 30
0.0
 10
384.880000
 20
547.680000
 30
0.0
 10
385.280000
 20
546.640000
 30
0.0
  0
SPLINE
  5
24a
100
AcDbEntity
  8
0
 62
7
100
AcDbSpline
 70
8
 71
3
 72
8
 73
4
 74
0
 40
0
 40
0
 40
0
 40
0
 40
1
 40
1
 40
1
 40
1
 10
385.280000
 20
546.640000
 30
0.0
 10
385.600000
 20
545.760000
 30
0.0
 10
386.240000
 20
545.120000
 30
0.0
 10
386.720000
 20
545.120000
 30
0.0
  0
SPLINE
  5
24b
100
AcDbEntity
  8
0
 62
7
100
AcDbSpline
 70
8
 71
3
 72
8
 73
4
 74
0
 40
0
 40
0
 40
0
 40
0
 40
1
 40
1
 40
1
 40
1
 10
386.720000
 20
545.120000
 30
0.0
 10
387.840000
 20
545.120000
 30
0.0
 10
396.400000
 20
556.320000
 30
0.0
 10
399.520000
 20
561.920000
 30
0.0
  0
SPLINE
  5
24c
100
AcDbEntity
  8
0
 62
7
100
AcDbSpline
 70
8
 71
3
 72
8
 73
4
 74
0
 40
0
 40
0
 40
0
 40
0
 40
1
 40
1
 40
1
 40
1
 10
399.520000
 20
561.920000
 30
0.0
 10
402.640000
 20
567.520000
 30
0.0
 10
406.320000
 20
571.680000
 30
0.0
 10
408.080000
 20
571.680000
 30
0.0
  0
SPLINE
  5
24d
100
AcDbEntity
  8
0
 62
7
100
AcDbSpline
 70
8
 71
3
 72
8
 73
4
 74
0
 40
0
 40
0
 40
0
 40
0
 40
1
 40
1
 40
1
 40
1
 10
408.080000
 20
571.680000
 30
0.0
 10
408.800000
 20
571.680000
 30
0.0
 10
409.920000
 20
571.040000
 30
0.0
 10
410.560000
 20
570.320000
 30
0.0
  0
SPLINE
  5
24e
100
AcDbEntity
  8
0
 62
7
100
AcDbSpline
 70
8
 71
3
 72
8
 73
4
 74
0
 40
0
 40
0
 40
0
 40
0
 40
1
 40
1
 40
1
 40
1
 10
410.560000
 20
570.320000
 30
0.0
 10
411.120000
 20
569.520000
 30
0.0
 10
412.240000
 20
568.640000
 30
0.0
 10
412.960000
 20
568.320000
 30
0.0
  0
SPLINE
  5
24f
100
AcDbEntity
  8
0
 62
7
100
AcDbSpline
 70
8
 71
3
 72
8
 73
4
 74
0
 40
0
 40
0
 40
0
 40
0
 40
1
 40
1
 40
1
 40
1
 10
412.960000
 20
568.320000
 30
0.0
 10
413.680000
 20
568.080000
 30
0.0
 10
414.240000
 20
567.120000
 30
0.0
 10
414.240000
 20
566.320000
 30
0.0
  0
SPLINE
  5
250
100
AcDbEntity
  8
0
 62
7
100
AcDbSpline
 70
8
 71
3
 72
8
 73
4
 74
0
 40
0
 40
0
 40
0
 40
0
 40
1
 40
1
 40
1
 40
1
 10
414.240000
 20
566.320000
 30
0.0
 10
414.240000
 20
565.440000
 30
0.0
 10
414.640000
 20
564.720000
 30
0.0
 10
415.200000
 20
564.720000
 30
0.0
  0
SPLINE
  5
251
100
AcDbEntity
  8
0
 62
7
100
AcDbSpline
 70
8
 71
3
 72
8
 73
4
 74
0
 40
0
 40
0
 40
0
 40
0
 40
1
 40
1
 40
1
 40
1
 10
415.200000
 20
564.720000
 30
0.0
 10
415.760000
 20
564.720000
 30
0.0
 10
416.000000
 20
562.880000
 30
0.0
 10
415.840000
 20
560.160000
 30
0.0
  0
LINE
  5
252
100
AcDbEntity
  8
0
 62
7
100
AcDbLine
 10
415.840000
 20
560.160000
 30
0.0
 11
415.600000
 21
555.520000
 31
0.0
  0
LINE
  5
253
100
AcDbEntity
  8
0
 62
7
100
AcDbLine
 10
415.600000
 20
555.520000
 30
0.0
 11
408.160000
 21
548.240000
 31
0.0
  0
SPLINE
  5
254
100
AcDbEntity
  8
0
 62
7
100
AcDbSpline
 70
8
 71
3
 72
8
 73
4
 74
0
 40
0
 40
0
 40
0
 40
0
 40
1
 40
1
 40
1
 40
1
 10
408.160000
 20
548.240000
 30
0.0
 10
404.080000
 20
544.240000
 30
0.0
 10
399.600000
 20
540.160000
 30
0.0
 10
398.080000
 20
539.040000
 30
0.0
  0
SPLINE
  5
255
100
AcDbEntity
  8
0
 62
7
100
AcDbSpline
 70
8
 71
3
 72
8
 73
4
 74
0
 40
0
 40
0
 40
0
 40
0
 40
1
 40
1
 40
1
 40
1
 10
398.080000
 20
539.040000
 30
0.0
 10
396.080000
 20
537.600000
 30
0.0
 10
395.680000
 20
536.880000
 30
0.0
 10
396.240000
 20
535.840000
 30
0.0
  0
SPLINE
  5
256
100
AcDbEntity
  8
0
 62
7
100
AcDbSpline
 70
8
 71
3
 72
8
 73
4
 74
0
 40
0
 40
0
 40
0
 40
0
 40
1
 40
1
 40
1
 40
1
 10
396.240000
 20
535.840000
 30
0.0
 10
397.200000
 20
534.080000
 30
0.0
 10
405.040000
 20
532.720000
 30
0.0
 10
410.720000
 20
533.280000
 30
0.0
  0
SPLINE
  5
257
100
AcDbEntity
  8
0
 62
7
100
AcDbSpline
 70
8
 71
3
 72
8
 73
4
 74
0
 40
0
 40
0
 40
0
 40
0
 40
1
 40
1
 40
1
 40
1
 10
410.720000
 20
533.280000
 30
0.0
 10
414.240000
 20
533.680000
 30
0.0
 10
415.760000
 20
533.280000
 30
0.0
 10
424.160000
 20
530.400000
 30
0.0
  0
LINE
  5
258
100
AcDbEntity
  8
0
 62
7
100
AcDbLine
 10
424.160000
 20
530.400000
 30
0.0
 11
433.600000
 21
527.200000
 31
0.0
  0
LINE
  5
259
100
AcDbEntity
  8
0
 62
7
100
AcDbLine
 10
433.600000
 20
527.200000
 30
0.0
 11
444.640000
 21
527.040000
 31
0.0
  0
SPLINE
  5
25a
100
AcDbEntity
  8
0
 62
7
100
AcDbSpline
 70
8
 71
3
 72
8
 73
4
 74
0
 40
0
 40
0
 40
0
 40
0
 40
1
 40
1
 40
1
 40
1
 10
444.640000
 20
527.040000
 30
0.0
 10
453.040000
 20
526.960000
 30
0.0
 10
456.240000
 20
526.640000
 30
0.0
 10
457.920000
 20
525.840000
 30
0.0
  0
SPLINE
  5
25b
100
AcDbEntity
  8
0
 62
7
100
AcDbSpline
 70
8
 71
3
 72
8
 73
4
 74
0
 40
0
 40
0
 40
0
 40
0
 40
1
 40
1
 40
1
 40
1
 10
457.920000
 20
525.840000
 30
0.0
 10
461.600000
 20
524.080000
 30
0.0
 10
463.200000
 20
524.480000
 30
0.0
 10
464.000000
 20
527.440000
 30
0.0
  0
LINE
  5
25c
100
AcDbEntity
  8
0
 62
7
100
AcDbLine
 10
464.000000
 20
527.440000
 30
0.0
 11
464.000000
 21
527.440000
 31
0.0
  0
SPLINE
  5
25d
100
AcDbEntity
  8
0
 62
7
100
AcDbSpline
 70
8
 71
3
 72
8
 73
4
 74
0
 40
0
 40
0
 40
0
 40
0
 40
1
 40
1
 40
1
 40
1
 10
395.760000
 20
541.920000
 30
0.0
 10
396.400000
 20
543.120000
 30
0.0
 10
397.440000
 20
545.040000
 30
0.0
 10
398.000000
 20
546.080000
 30
0.0
  0
SPLINE
  5
25e
100
AcDbEntity
  8
0
 62
7
100
AcDbSpline
 70
8
 71
3
 72
8
 73
4
 74
0
 40
0
 40
0
 40
0
 40
0
 40
1
 40
1
 40
1
 40
1
 10
398.000000
 20
546.080000
 30
0.0
 10
398.960000
 20
547.760000
 30
0.0
 10
398.960000
 20
547.840000
 30
0.0
 10
397.680000
 20
546.720000
 30
0.0
  0
SPLINE
  5
25f
100
AcDbEntity
  8
0
 62
7
100
AcDbSpline
 70
8
 71
3
 72
8
 73
4
 74
0
 40
0
 40
0
 40
0
 40
0
 40
1
 40
1
 40
1
 40
1
 10
397.680000
 20
546.720000
 30
0.0
 10
396.880000
 20
546.080000
 30
0.0
 10
396.240000
 20
545.200000
 30
0.0
 10
396.240000
 20
544.800000
 30
0.0
  0
SPLINE
  5
260
100
AcDbEntity
  8
0
 62
7
100
AcDbSpline
 70
8
 71
3
 72
8
 73
4
 74
0
 40
0
 40
0
 40
0
 40
0
 40
1
 40
1
 40
1
 40
1
 10
396.240000
 20
544.800000
 30
0.0
 10
396.160000
 20
544.480000
 30
0.0
 10
395.360000
 20
543.440000
 30
0.0
 10
394.320000
 20
542.560000
 30
0.0
  0
SPLINE
  5
261
100
AcDbEntity
  8
0
 62
7
100
AcDbSpline
 70
8
 71
3
 72
8
 73
4
 74
0
 40
0
 40
0
 40
0
 40
0
 40
1
 40
1
 40
1
 40
1
 10
394.320000
 20
542.560000
 30
0.0
 10
392.320000
 20
540.800000
 30
0.0
 10
391.840000
 20
539.120000
 30
0.0
 10
393.520000
 20
539.520000
 30
0.0
  0
SPLINE
  5
262
100
AcDbEntity
  8
0
 62
7
100
AcDbSpline
 70
8
 71
3
 72
8
 73
4
 74
0
 40
0
 40
0
 40
0
 40
0
 40
1
 40
1
 40
1
 40
1
 10
393.520000
 20
539.520000
 30
0.0
 10
394.080000
 20
539.680000
 30
0.0
 10
395.040000
 20
540.720000
 30
0.0
 10
395.760000
 20
541.920000
 30
0.0
  0
LINE
  5
263
100
AcDbEntity
  8
0
 62
7
100
AcDbLine
 10
395.760000
 20
541.920000
 30
0.0
 11
395.760000
 21
541.920000
 31
0.0
  0
SPLINE
  5
264
100
AcDbEntity
  8
0
 62
7
100
AcDbSpline
 70
8
 71
3
 72
8
 73
4
 74
0
 40
0
 40
0
 40
0
 40
0
 40
1
 40
1
 40
1
 40
1
 10
393.360000
 20
544.320000
 30
0.0
 10
394.800000
 20
547.760000
 30
0.0
 10
394.560000
 20
548.000000
 30
0.0
 10
392.000000
 20
546.400000
 30
0.0
  0
SPLINE
  5
265
100
AcDbEntity
  8
0
 62
7
100
AcDbSpline
 70
8
 71
3
 72
8
 73
4
 74
0
 40
0
 40
0
 40
0
 40
0
 40
1
 40
1
 40
1
 40
1
 10
392.000000
 20
546.400000
 30
0.0
 10
389.680000
 20
544.960000
 30
0.0
 10
388.960000
 20
543.200000
 30
0.0
 10
390.240000
 20
542.320000
 30
0.0
  0
SPLINE
  5
266
100
AcDbEntity
  8
0
 62
7
100
AcDbSpline
 70
8
 71
3
 72
8
 73
4
 74
0
 40
0
 40
0
 40
0
 40
0
 40
1
 40
1
 40
1
 40
1
 10
390.240000
 20
542.320000
 30
0.0
 10
391.520000
 20
541.440000
 30
0.0
 10
392.400000
 20
542.000000
 30
0.0
 10
393.360000
 20
544.320000
 30
0.0
  0
LINE
  5
267
100
AcDbEntity
  8
0
 62
7
100
AcDbLine
 10
393.360000
 20
544.320000
 30
0.0
 11
393.360000
 21
544.320000
 31
0.0
  0
SPLINE
  5
268
100
AcDbEntity
  8
0
 62
7
100
AcDbSpline
 70
8
 71
3
 72
8
 73
4
 74
0
 40
0
 40
0
 40
0
 40
0
 40
1
 40
1
 40
1
 40
1
 10
402.240000
 20
552.560000
 30
0.0
 10
403.120000
 20
554.000000
 30
0.0
 10
403.600000
 20
555.200000
 30
0.0
 10
403.360000
 20
555.200000
 30
0.0
  0
SPLINE
  5
269
100
AcDbEntity
  8
0
 62
7
100
AcDbSpline
 70
8
 71
3
 72
8
 73
4
 74
0
 40
0
 40
0
 40
0
 40
0
 40
1
 40
1
 40
1
 40
1
 10
403.360000
 20
555.200000
 30
0.0
 10
402.960000
 20
555.200000
 30
0.0
 10
399.040000
 20
549.680000
 30
0.0
 10
399.040000
 20
549.040000
 30
0.0
  0
SPLINE
  5
26a
100
AcDbEntity
  8
0
 62
7
100
AcDbSpline
 70
8
 71
3
 72
8
 73
4
 74
0
 40
0
 40
0
 40
0
 40
0
 40
1
 40
1
 40
1
 40
1
 10
399.040000
 20
549.040000
 30
0.0
 10
399.040000
 20
548.160000
 30
0.0
 10
400.800000
 20
550.080000
 30
0.0
 10
402.240000
 20
552.560000
 30
0.0
  0
LINE
  5
26b
100
AcDbEntity
  8
0
 62
7
100
AcDbLine
 10
402.240000
 20
552.560000
 30
0.0
 11
402.240000
 21
552.560000
 31
0.0
  0
SPLINE
  5
26c
100
AcDbEntity
  8
0
 62
7
100
AcDbSpline
 70
8
 71
3
 72
8
 73
4
 74
0
 40
0
 40
0
 40
0
 40
0
 40
1
 40
1
 40
1
 40
1
 10
387.840000
 20
554.560000
 30
0.0
 10
389.920000
 20
557.040000
 30
0.0
 10
391.440000
 20
559.280000
 30
0.0
 10
391.200000
 20
559.440000
 30
0.0
  0
SPLINE
  5
26d
100
AcDbEntity
  8
0
 62
7
100
AcDbSpline
 70
8
 71
3
 72
8
 73
4
 74
0
 40
0
 40
0
 40
0
 40
0
 40
1
 40
1
 40
1
 40
1
 10
391.200000
 20
559.440000
 30
0.0
 10
390.560000
 20
559.920000
 30
0.0
 10
382.000000
 20
550.960000
 30
0.0
 10
382.000000
 20
549.840000
 30
0.0
  0
SPLINE
  5
26e
100
AcDbEntity
  8
0
 62
7
100
AcDbSpline
 70
8
 71
3
 72
8
 73
4
 74
0
 40
0
 40
0
 40
0
 40
0
 40
1
 40
1
 40
1
 40
1
 10
382.000000
 20
549.840000
 30
0.0
 10
382.000000
 20
548.480000
 30
0.0
 10
384.560000
 20
550.480000
 30
0.0
 10
387.840000
 20
554.560000
 30
0.0
  0
LINE
  5
26f
100
AcDbEntity
  8
0
 62
7
100
AcDbLine
 10
387.840000
 20
554.560000
 30
0.0
 11
387.840000
 21
554.560000
 31
0.0
  0
SPLINE
  5
270
100
AcDbEntity
  8
0
 62
7
100
AcDbSpline
 70
8
 71
3
 72
8
 73
4
 74
0
 40
0
 40
0
 40
0
 40
0
 40
1
 40
1
 40
1
 40
1
 10
380.960000
 20
553.280000
 30
0.0
 10
379.600000
 20
553.600000
 30
0.0
 10
378.880000
 20
552.880000
 30
0.0
 10
379.680000
 20
552.000000
 30
0.0
  0
SPLINE
  5
271
100
AcDbEntity
  8
0
 62
7
100
AcDbSpline
 70
8
 71
3
 72
8
 73
4
 74
0
 40
0
 40
0
 40
0
 40
0
 40
1
 40
1
 40
1
 40
1
 10
379.680000
 20
552.000000
 30
0.0
 10
380.160000
 20
551.520000
 30
0.0
 10
380.560000
 20
551.520000
 30
0.0
 10
381.200000
 20
552.160000
 30
0.0
  0
SPLINE
  5
272
100
AcDbEntity
  8
0
 62
7
100
AcDbSpline
 70
8
 71
3
 72
8
 73
4
 74
0
 40
0
 40
0
 40
0
 40
0
 40
1
 40
1
 40
1
 40
1
 10
381.200000
 20
552.160000
 30
0.0
 10
381.600000
 20
552.640000
 30
0.0
 10
381.520000
 20
553.120000
 30
0.0
 10
380.960000
 20
553.280000
 30
0.0
  0
LINE
  5
273
100
AcDbEntity
  8
0
 62
7
100
AcDbLine
 10
380.960000
 20
553.280000
 30
0.0
 11
380.960000
 21
553.280000
 31
0.0
  0
SPLINE
  5
274
100
AcDbEntity
  8
0
 62
7
100
AcDbSpline
 70
8
 71
3
 72
8
 73
4
 74
0
 40
0
 40
0
 40
0
 40
0
 40
1
 40
1
 40
1
 40
1
 10
379.680000
 20
556.240000
 30
0.0
 10
381.680000
 20
559.600000
 30
0.0
 10
381.440000
 20
560.000000
 30
0.0
 10
378.640000
 20
557.840000
 30
0.0
  0
SPLINE
  5
275
100
AcDbEntity
  8
0
 62
7
100
AcDbSpline
 70
8
 71
3
 72
8
 73
4
 74
0
 40
0
 40
0
 40
0
 40
0
 40
1
 40
1
 40
1
 40
1
 10
378.640000
 20
557.840000
 30
0.0
 10
377.280000
 20
556.720000
 30
0.0
 10
376.400000
 20
555.440000
 30
0.0
 10
376.720000
 20
554.880000
 30
0.0
  0
SPLINE
  5
276
100
AcDbEntity
  8
0
 62
7
100
AcDbSpline
 70
8
 71
3
 72
8
 73
4
 74
0
 40
0
 40
0
 40
0
 40
0
 40
1
 40
1
 40
1
 40
1
 10
376.720000
 20
554.880000
 30
0.0
 10
377.520000
 20
553.520000
 30
0.0
 10
378.080000
 20
553.760000
 30
0.0
 10
379.680000
 20
556.240000
 30
0.0
  0
LINE
  5
277
100
AcDbEntity
  8
0
 62
7
100
AcDbLine
 10
379.680000
 20
556.240000
 30
0.0
 11
379.680000
 21
556.240000
 31
0.0
  0
SPLINE
  5
278
100
AcDbEntity
  8
0
 62
7
100
AcDbSpline
 70
8
 71
3
 72
8
 73
4
 74
0
 40
0
 40
0
 40
0
 40
0
 40
1
 40
1
 40
1
 40
1
 10
61.120000
 20
69.680000
 30
0.0
 10
64.320000
 20
68.720000
 30
0.0
 10
66.800000
 20
67.120000
 30
0.0
 10
68.400000
 20
64.880000
 30
0.0
  0
SPLINE
  5
279
100
AcDbEntity
  8
0
 62
7
100
AcDbSpline
 70
8
 71
3
 72
8
 73
4
 74
0
 40
0
 40
0
 40
0
 40
0
 40
1
 40
1
 40
1
 40
1
 10
68.400000
 20
64.880000
 30
0.0
 10
70.000000
 20
62.640000
 30
0.0
 10
70.800000
 20
60.160000
 30
0.0
 10
70.800000
 20
57.280000
 30
0.0
  0
SPLINE
  5
27a
100
AcDbEntity
  8
0
 62
7
100
AcDbSpline
 70
8
 71
3
 72
8
 73
4
 74
0
 40
0
 40
0
 40
0
 40
0
 40
1
 40
1
 40
1
 40
1
 10
70.800000
 20
57.280000
 30
0.0
 10
70.800000
 20
54.400000
 30
0.0
 10
70.080000
 20
51.680000
 30
0.0
 10
68.560000
 20
49.280000
 30
0.0
  0
SPLINE
  5
27b
100
AcDbEntity
  8
0
 62
7
100
AcDbSpline
 70
8
 71
3
 72
8
 73
4
 74
0
 40
0
 40
0
 40
0
 40
0
 40
1
 40
1
 40
1
 40
1
 10
68.560000
 20
49.280000
 30
0.0
 10
67.120000
 20
46.880000
 30
0.0
 10
65.120000
 20
45.120000
 30
0.0
 10
62.400000
 20
44.000000
 30
0.0
  0
SPLINE
  5
27c
100
AcDbEntity
  8
0
 62
7
100
AcDbSpline
 70
8
 71
3
 72
8
 73
4
 74
0
 40
0
 40
0
 40
0
 40
0
 40
1
 40
1
 40
1
 40
1
 10
62.400000
 20
44.000000
 30
0.0
 10
59.760000
 20
42.800000
 30
0.0
 10
56.080000
 20
42.240000
 30
0.0
 10
51.520000
 20
42.240000
 30
0.0
  0
LINE
  5
27d
100
AcDbEntity
  8
0
 62
7
100
AcDbLine
 10
51.520000
 20
42.240000
 30
0.0
 11
31.840000
 21
42.240000
 31
0.0
  0
LINE
  5
27e
100
AcDbEntity
  8
0
 62
7
100
AcDbLine
 10
31.840000
 20
42.240000
 30
0.0
 11
31.840000
 21
93.840000
 31
0.0
  0
LINE
  5
27f
100
AcDbEntity
  8
0
 62
7
100
AcDbLine
 10
31.840000
 20
93.840000
 30
0.0
 11
51.200000
 21
93.840000
 31
0.0
  0
SPLINE
  5
280
100
AcDbEntity
  8
0
 62
7
100
AcDbSpline
 70
8
 71
3
 72
8
 73
4
 74
0
 40
0
 40
0
 40
0
 40
0
 40
1
 40
1
 40
1
 40
1
 10
51.200000
 20
93.840000
 30
0.0
 10
57.440000
 20
93.840000
 30
0.0
 10
61.840000
 20
92.480000
 30
0.0
 10
64.400000
 20
89.760000
 30
0.0
  0
SPLINE
  5
281
100
AcDbEntity
  8
0
 62
7
100
AcDbSpline
 70
8
 71
3
 72
8
 73
4
 74
0
 40
0
 40
0
 40
0
 40
0
 40
1
 40
1
 40
1
 40
1
 10
64.400000
 20
89.760000
 30
0.0
 10
66.960000
 20
87.040000
 30
0.0
 10
68.240000
 20
84.000000
 30
0.0
 10
68.240000
 20
80.640000
 30
0.0
  0
SPLINE
  5
282
100
AcDbEntity
  8
0
 62
7
100
AcDbSpline
 70
8
 71
3
 72
8
 73
4
 74
0
 40
0
 40
0
 40
0
 40
0
 40
1
 40
1
 40
1
 40
1
 10
68.240000
 20
80.640000
 30
0.0
 10
68.240000
 20
78.400000
 30
0.0
 10
67.680000
 20
76.320000
 30
0.0
 10
66.480000
 20
74.400000
 30
0.0
  0
SPLINE
  5
283
100
AcDbEntity
  8
0
 62
7
100
AcDbSpline
 70
8
 71
3
 72
8
 73
4
 74
0
 40
0
 40
0
 40
0
 40
0
 40
1
 40
1
 40
1
 40
1
 10
66.480000
 20
74.400000
 30
0.0
 10
65.280000
 20
72.480000
 30
0.0
 10
63.520000
 20
70.960000
 30
0.0
 10
61.120000
 20
69.680000
 30
0.0
  0
LINE
  5
284
100
AcDbEntity
  8
0
 62
7
100
AcDbLine
 10
61.120000
 20
69.680000
 30
0.0
 11
61.120000
 21
69.680000
 31
0.0
  0
LINE
  5
285
100
AcDbEntity
  8
0
 62
7
100
AcDbLine
 10
38.640000
 20
72.240000
 30
0.0
 11
49.840000
 21
72.240000
 31
0.0
  0
SPLINE
  5
286
100
AcDbEntity
  8
0
 62
7
100
AcDbSpline
 70
8
 71
3
 72
8
 73
4
 74
0
 40
0
 40
0
 40
0
 40
0
 40
1
 40
1
 40
1
 40
1
 10
49.840000
 20
72.240000
 30
0.0
 10
52.160000
 20
72.240000
 30
0.0
 10
54.080000
 20
72.320000
 30
0.0
 10
55.600000
 20
72.640000
 30
0.0
  0
SPLINE
  5
287
100
AcDbEntity
  8
0
 62
7
100
AcDbSpline
 70
8
 71
3
 72
8
 73
4
 74
0
 40
0
 40
0
 40
0
 40
0
 40
1
 40
1
 40
1
 40
1
 10
55.600000
 20
72.640000
 30
0.0
 10
57.200000
 20
72.880000
 30
0.0
 10
58.560000
 20
73.520000
 30
0.0
 10
59.760000
 20
74.640000
 30
0.0
  0
SPLINE
  5
288
100
AcDbEntity
  8
0
 62
7
100
AcDbSpline
 70
8
 71
3
 72
8
 73
4
 74
0
 40
0
 40
0
 40
0
 40
0
 40
1
 40
1
 40
1
 40
1
 10
59.760000
 20
74.640000
 30
0.0
 10
60.960000
 20
75.760000
 30
0.0
 10
61.520000
 20
77.440000
 30
0.0
 10
61.520000
 20
79.760000
 30
0.0
  0
SPLINE
  5
289
100
AcDbEntity
  8
0
 62
7
100
AcDbSpline
 70
8
 71
3
 72
8
 73
4
 74
0
 40
0
 40
0
 40
0
 40
0
 40
1
 40
1
 40
1
 40
1
 10
61.520000
 20
79.760000
 30
0.0
 10
61.520000
 20
82.240000
 30
0.0
 10
60.960000
 20
84.000000
 30
0.0
 10
59.760000
 20
85.200000
 30
0.0
  0
SPLINE
  5
28a
100
AcDbEntity
  8
0
 62
7
100
AcDbSpline
 70
8
 71
3
 72
8
 73
4
 74
0
 40
0
 40
0
 40
0
 40
0
 40
1
 40
1
 40
1
 40
1
 10
59.760000
 20
85.200000
 30
0.0
 10
58.480000
 20
86.320000
 30
0.0
 10
57.040000
 20
87.040000
 30
0.0
 10
55.360000
 20
87.280000
 30
0.0
  0
SPLINE
  5
28b
100
AcDbEntity
  8
0
 62
7
100
AcDbSpline
 70
8
 71
3
 72
8
 73
4
 74
0
 40
0
 40
0
 40
0
 40
0
 40
1
 40
1
 40
1
 40
1
 10
55.360000
 20
87.280000
 30
0.0
 10
53.760000
 20
87.600000
 30
0.0
 10
51.600000
 20
87.680000
 30
0.0
 10
48.960000
 20
87.680000
 30
0.0
  0
LINE
  5
28c
100
AcDbEntity
  8
0
 62
7
100
AcDbLine
 10
48.960000
 20
87.680000
 30
0.0
 11
38.640000
 21
87.680000
 31
0.0
  0
LINE
  5
28d
100
AcDbEntity
  8
0
 62
7
100
AcDbLine
 10
38.640000
 20
87.680000
 30
0.0
 11
38.640000
 21
72.240000
 31
0.0
  0
LINE
  5
28e
100
AcDbEntity
  8
0
 62
7
100
AcDbLine
 10
38.640000
 20
72.240000
 30
0.0
 11
38.640000
 21
72.240000
 31
0.0
  0
LINE
  5
28f
100
AcDbEntity
  8
0
 62
7
100
AcDbLine
 10
38.640000
 20
48.400000
 30
0.0
 11
51.440000
 21
48.400000
 31
0.0
  0
SPLINE
  5
290
100
AcDbEntity
  8
0
 62
7
100
AcDbSpline
 70
8
 71
3
 72
8
 73
4
 74
0
 40
0
 40
0
 40
0
 40
0
 40
1
 40
1
 40
1
 40
1
 10
51.440000
 20
48.400000
 30
0.0
 10
56.080000
 20
48.400000
 30
0.0
 10
59.280000
 20
49.200000
 30
0.0
 10
61.040000
 20
50.720000
 30
0.0
  0
SPLINE
  5
291
100
AcDbEntity
  8
0
 62
7
100
AcDbSpline
 70
8
 71
3
 72
8
 73
4
 74
0
 40
0
 40
0
 40
0
 40
0
 40
1
 40
1
 40
1
 40
1
 10
61.040000
 20
50.720000
 30
0.0
 10
62.800000
 20
52.320000
 30
0.0
 10
63.680000
 20
54.480000
 30
0.0
 10
63.680000
 20
57.280000
 30
0.0
  0
SPLINE
  5
292
100
AcDbEntity
  8
0
 62
7
100
AcDbSpline
 70
8
 71
3
 72
8
 73
4
 74
0
 40
0
 40
0
 40
0
 40
0
 40
1
 40
1
 40
1
 40
1
 10
63.680000
 20
57.280000
 30
0.0
 10
63.680000
 20
60.000000
 30
0.0
 10
62.800000
 20
62.240000
 30
0.0
 10
60.880000
 20
63.760000
 30
0.0
  0
SPLINE
  5
293
100
AcDbEntity
  8
0
 62
7
100
AcDbSpline
 70
8
 71
3
 72
8
 73
4
 74
0
 40
0
 40
0
 40
0
 40
0
 40
1
 40
1
 40
1
 40
1
 10
60.880000
 20
63.760000
 30
0.0
 10
58.960000
 20
65.360000
 30
0.0
 10
55.520000
 20
66.080000
 30
0.0
 10
50.560000
 20
66.080000
 30
0.0
  0
LINE
  5
294
100
AcDbEntity
  8
0
 62
7
100
AcDbLine
 10
50.560000
 20
66.080000
 30
0.0
 11
38.640000
 21
66.080000
 31
0.0
  0
LINE
  5
295
100
AcDbEntity
  8
0
 62
7
100
AcDbLine
 10
38.640000
 20
66.080000
 30
0.0
 11
38.640000
 21
48.400000
 31
0.0
  0
LINE
  5
296
100
AcDbEntity
  8
0
 62
7
100
AcDbLine
 10
38.640000
 20
48.400000
 30
0.0
 11
38.640000
 21
48.400000
 31
0.0
  0
LINE
  5
297
100
AcDbEntity
  8
0
 62
7
100
AcDbLine
 10
85.680000
 20
42.240000
 30
0.0
 11
79.360000
 21
42.240000
 31
0.0
  0
LINE
  5
298
100
AcDbEntity
  8
0
 62
7
100
AcDbLine
 10
79.360000
 20
42.240000
 30
0.0
 11
79.360000
 21
79.600000
 31
0.0
  0
LINE
  5
299
100
AcDbEntity
  8
0
 62
7
100
AcDbLine
 10
79.360000
 20
79.600000
 30
0.0
 11
85.680000
 21
79.600000
 31
0.0
  0
LINE
  5
29a
100
AcDbEntity
  8
0
 62
7
100
AcDbLine
 10
85.680000
 20
79.600000
 30
0.0
 11
85.680000
 21
42.240000
 31
0.0
  0
LINE
  5
29b
100
AcDbEntity
  8
0
 62
7
100
AcDbLine
 10
85.680000
 20
42.240000
 30
0.0
 11
85.680000
 21
42.240000
 31
0.0
  0
LINE
  5
29c
100
AcDbEntity
  8
0
 62
7
100
AcDbLine
 10
85.680000
 20
86.640000
 30
0.0
 11
79.360000
 21
86.640000
 31
0.0
  0
LINE
  5
29d
100
AcDbEntity
  8
0
 62
7
100
AcDbLine
 10
79.360000
 20
86.640000
 30
0.0
 11
79.360000
 21
93.840000
 31
0.0
  0
LINE
  5
29e
100
AcDbEntity
  8
0
 62
7
100
AcDbLine
 10
79.360000
 20
93.840000
 30
0.0
 11
85.680000
 21
93.840000
 31
0.0
  0
LINE
  5
29f
100
AcDbEntity
  8
0
 62
7
100
AcDbLine
 10
85.680000
 20
93.840000
 30
0.0
 11
85.680000
 21
86.640000
 31
0.0
  0
LINE
  5
2a0
100
AcDbEntity
  8
0
 62
7
100
AcDbLine
 10
85.680000
 20
86.640000
 30
0.0
 11
85.680000
 21
86.640000
 31
0.0
  0
SPLINE
  5
2a1
100
AcDbEntity
  8
0
 62
7
100
AcDbSpline
 70
8
 71
3
 72
8
 73
4
 74
0
 40
0
 40
0
 40
0
 40
0
 40
1
 40
1
 40
1
 40
1
 10
116.160000
 20
69.120000
 30
0.0
 10
115.840000
 20
71.200000
 30
0.0
 10
115.040000
 20
72.720000
 30
0.0
 10
113.680000
 20
73.680000
 30
0.0
  0
SPLINE
  5
2a2
100
AcDbEntity
  8
0
 62
7
100
AcDbSpline
 70
8
 71
3
 72
8
 73
4
 74
0
 40
0
 40
0
 40
0
 40
0
 40
1
 40
1
 40
1
 40
1
 10
113.680000
 20
73.680000
 30
0.0
 10
112.320000
 20
74.720000
 30
0.0
 10
110.400000
 20
75.280000
 30
0.0
 10
107.920000
 20
75.280000
 30
0.0
  0
SPLINE
  5
2a3
100
AcDbEntity
  8
0
 62
7
100
AcDbSpline
 70
8
 71
3
 72
8
 73
4
 74
0
 40
0
 40
0
 40
0
 40
0
 40
1
 40
1
 40
1
 40
1
 10
107.920000
 20
75.280000
 30
0.0
 10
105.520000
 20
75.280000
 30
0.0
 10
103.600000
 20
74.800000
 30
0.0
 10
102.080000
 20
74.000000
 30
0.0
  0
SPLINE
  5
2a4
100
AcDbEntity
  8
0
 62
7
100
AcDbSpline
 70
8
 71
3
 72
8
 73
4
 74
0
 40
0
 40
0
 40
0
 40
0
 40
1
 40
1
 40
1
 40
1
 10
102.080000
 20
74.000000
 30
0.0
 10
100.560000
 20
73.200000
 30
0.0
 10
99.840000
 20
72.000000
 30
0.0
 10
99.840000
 20
70.400000
 30
0.0
  0
SPLINE
  5
2a5
100
AcDbEntity
  8
0
 62
7
100
AcDbSpline
 70
8
 71
3
 72
8
 73
4
 74
0
 40
0
 40
0
 40
0
 40
0
 40
1
 40
1
 40
1
 40
1
 10
99.840000
 20
70.400000
 30
0.0
 10
99.840000
 20
68.960000
 30
0.0
 10
100.480000
 20
67.920000
 30
0.0
 10
101.600000
 20
67.280000
 30
0.0
  0
SPLINE
  5
2a6
100
AcDbEntity
  8
0
 62
7
100
AcDbSpline
 70
8
 71
3
 72
8
 73
4
 74
0
 40
0
 40
0
 40
0
 40
0
 40
1
 40
1
 40
1
 40
1
 10
101.600000
 20
67.280000
 30
0.0
 10
102.800000
 20
66.640000
 30
0.0
 10
105.120000
 20
65.840000
 30
0.0
 10
108.640000
 20
64.960000
 30
0.0
  0
SPLINE
  5
2a7
100
AcDbEntity
  8
0
 62
7
100
AcDbSpline
 70
8
 71
3
 72
8
 73
4
 74
0
 40
0
 40
0
 40
0
 40
0
 40
1
 40
1
 40
1
 40
1
 10
108.640000
 20
64.960000
 30
0.0
 10
112.560000
 20
63.920000
 30
0.0
 10
115.520000
 20
63.040000
 30
0.0
 10
117.520000
 20
62.240000
 30
0.0
  0
SPLINE
  5
2a8
100
AcDbEntity
  8
0
 62
7
100
AcDbSpline
 70
8
 71
3
 72
8
 73
4
 74
0
 40
0
 40
0
 40
0
 40
0
 40
1
 40
1
 40
1
 40
1
 10
117.520000
 20
62.240000
 30
0.0
 10
119.440000
 20
61.520000
 30
0.0
 10
120.960000
 20
60.400000
 30
0.0
 10
122.080000
 20
59.040000
 30
0.0
  0
SPLINE
  5
2a9
100
AcDbEntity
  8
0
 62
7
100
AcDbSpline
 70
8
 71
3
 72
8
 73
4
 74
0
 40
0
 40
0
 40
0
 40
0
 40
1
 40
1
 40
1
 40
1
 10
122.080000
 20
59.040000
 30
0.0
 10
123.120000
 20
57.600000
 30
0.0
 10
123.680000
 20
55.680000
 30
0.0
 10
123.680000
 20
53.200000
 30
0.0
  0
SPLINE
  5
2aa
100
AcDbEntity
  8
0
 62
7
100
AcDbSpline
 70
8
 71
3
 72
8
 73
4
 74
0
 40
0
 40
0
 40
0
 40
0
 40
1
 40
1
 40
1
 40
1
 10
123.680000
 20
53.200000
 30
0.0
 10
123.680000
 20
49.840000
 30
0.0
 10
122.320000
 20
47.040000
 30
0.0
 10
119.600000
 20
44.800000
 30
0.0
  0
SPLINE
  5
2ab
100
AcDbEntity
  8
0
 62
7
100
AcDbSpline
 70
8
 71
3
 72
8
 73
4
 74
0
 40
0
 40
0
 40
0
 40
0
 40
1
 40
1
 40
1
 40
1
 10
119.600000
 20
44.800000
 30
0.0
 10
116.880000
 20
42.560000
 30
0.0
 10
113.280000
 20
41.360000
 30
0.0
 10
108.720000
 20
41.360000
 30
0.0
  0
SPLINE
  5
2ac
100
AcDbEntity
  8
0
 62
7
100
AcDbSpline
 70
8
 71
3
 72
8
 73
4
 74
0
 40
0
 40
0
 40
0
 40
0
 40
1
 40
1
 40
1
 40
1
 10
108.720000
 20
41.360000
 30
0.0
 10
104.000000
 20
41.360000
 30
0.0
 10
100.320000
 20
42.400000
 30
0.0
 10
97.600000
 20
44.400000
 30
0.0
  0
SPLINE
  5
2ad
100
AcDbEntity
  8
0
 62
7
100
AcDbSpline
 70
8
 71
3
 72
8
 73
4
 74
0
 40
0
 40
0
 40
0
 40
0
 40
1
 40
1
 40
1
 40
1
 10
97.600000
 20
44.400000
 30
0.0
 10
94.960000
 20
46.400000
 30
0.0
 10
93.360000
 20
49.440000
 30
0.0
 10
92.720000
 20
53.440000
 30
0.0
  0
LINE
  5
2ae
100
AcDbEntity
  8
0
 62
7
100
AcDbLine
 10
92.720000
 20
53.440000
 30
0.0
 11
99.040000
 21
54.400000
 31
0.0
  0
SPLINE
  5
2af
100
AcDbEntity
  8
0
 62
7
100
AcDbSpline
 70
8
 71
3
 72
8
 73
4
 74
0
 40
0
 40
0
 40
0
 40
0
 40
1
 40
1
 40
1
 40
1
 10
99.040000
 20
54.400000
 30
0.0
 10
99.360000
 20
51.760000
 30
0.0
 10
100.320000
 20
49.840000
 30
0.0
 10
101.920000
 20
48.560000
 30
0.0
  0
SPLINE
  5
2b0
100
AcDbEntity
  8
0
 62
7
100
AcDbSpline
 70
8
 71
3
 72
8
 73
4
 74
0
 40
0
 40
0
 40
0
 40
0
 40
1
 40
1
 40
1
 40
1
 10
101.920000
 20
48.560000
 30
0.0
 10
103.520000
 20
47.200000
 30
0.0
 10
105.760000
 20
46.560000
 30
0.0
 10
108.640000
 20
46.560000
 30
0.0
  0
SPLINE
  5
2b1
100
AcDbEntity
  8
0
 62
7
100
AcDbSpline
 70
8
 71
3
 72
8
 73
4
 74
0
 40
0
 40
0
 40
0
 40
0
 40
1
 40
1
 40
1
 40
1
 10
108.640000
 20
46.560000
 30
0.0
 10
111.440000
 20
46.560000
 30
0.0
 10
113.520000
 20
47.200000
 30
0.0
 10
115.040000
 20
48.320000
 30
0.0
  0
SPLINE
  5
2b2
100
AcDbEntity
  8
0
 62
7
100
AcDbSpline
 70
8
 71
3
 72
8
 73
4
 74
0
 40
0
 40
0
 40
0
 40
0
 40
1
 40
1
 40
1
 40
1
 10
115.040000
 20
48.320000
 30
0.0
 10
116.480000
 20
49.520000
 30
0.0
 10
117.200000
 20
50.880000
 30
0.0
 10
117.200000
 20
52.560000
 30
0.0
  0
SPLINE
  5
2b3
100
AcDbEntity
  8
0
 62
7
100
AcDbSpline
 70
8
 71
3
 72
8
 73
4
 74
0
 40
0
 40
0
 40
0
 40
0
 40
1
 40
1
 40
1
 40
1
 10
117.200000
 20
52.560000
 30
0.0
 10
117.200000
 20
53.680000
 30
0.0
 10
116.880000
 20
54.560000
 30
0.0
 10
116.160000
 20
55.280000
 30
0.0
  0
SPLINE
  5
2b4
100
AcDbEntity
  8
0
 62
7
100
AcDbSpline
 70
8
 71
3
 72
8
 73
4
 74
0
 40
0
 40
0
 40
0
 40
0
 40
1
 40
1
 40
1
 40
1
 10
116.160000
 20
55.280000
 30
0.0
 10
115.520000
 20
55.920000
 30
0.0
 10
114.640000
 20
56.480000
 30
0.0
 10
113.680000
 20
56.800000
 30
0.0
  0
SPLINE
  5
2b5
100
AcDbEntity
  8
0
 62
7
100
AcDbSpline
 70
8
 71
3
 72
8
 73
4
 74
0
 40
0
 40
0
 40
0
 40
0
 40
1
 40
1
 40
1
 40
1
 10
113.680000
 20
56.800000
 30
0.0
 10
112.640000
 20
57.120000
 30
0.0
 10
110.320000
 20
57.760000
 30
0.0
 10
106.800000
 20
58.640000
 30
0.0
  0
SPLINE
  5
2b6
100
AcDbEntity
  8
0
 62
7
100
AcDbSpline
 70
8
 71
3
 72
8
 73
4
 74
0
 40
0
 40
0
 40
0
 40
0
 40
1
 40
1
 40
1
 40
1
 10
106.800000
 20
58.640000
 30
0.0
 10
101.520000
 20
59.920000
 30
0.0
 10
98.000000
 20
61.440000
 30
0.0
 10
96.320000
 20
63.200000
 30
0.0
  0
SPLINE
  5
2b7
100
AcDbEntity
  8
0
 62
7
100
AcDbSpline
 70
8
 71
3
 72
8
 73
4
 74
0
 40
0
 40
0
 40
0
 40
0
 40
1
 40
1
 40
1
 40
1
 10
96.320000
 20
63.200000
 30
0.0
 10
94.560000
 20
65.040000
 30
0.0
 10
93.760000
 20
67.200000
 30
0.0
 10
93.760000
 20
69.680000
 30
0.0
  0
SPLINE
  5
2b8
100
AcDbEntity
  8
0
 62
7
100
AcDbSpline
 70
8
 71
3
 72
8
 73
4
 74
0
 40
0
 40
0
 40
0
 40
0
 40
1
 40
1
 40
1
 40
1
 10
93.760000
 20
69.680000
 30
0.0
 10
93.760000
 20
72.800000
 30
0.0
 10
94.960000
 20
75.360000
 30
0.0
 10
97.440000
 20
77.360000
 30
0.0
  0
SPLINE
  5
2b9
100
AcDbEntity
  8
0
 62
7
100
AcDbSpline
 70
8
 71
3
 72
8
 73
4
 74
0
 40
0
 40
0
 40
0
 40
0
 40
1
 40
1
 40
1
 40
1
 10
97.440000
 20
77.360000
 30
0.0
 10
99.920000
 20
79.440000
 30
0.0
 10
103.280000
 20
80.400000
 30
0.0
 10
107.520000
 20
80.400000
 30
0.0
  0
SPLINE
  5
2ba
100
AcDbEntity
  8
0
 62
7
100
AcDbSpline
 70
8
 71
3
 72
8
 73
4
 74
0
 40
0
 40
0
 40
0
 40
0
 40
1
 40
1
 40
1
 40
1
 10
107.520000
 20
80.400000
 30
0.0
 10
111.920000
 20
80.400000
 30
0.0
 10
115.360000
 20
79.520000
 30
0.0
 10
117.840000
 20
77.760000
 30
0.0
  0
SPLINE
  5
2bb
100
AcDbEntity
  8
0
 62
7
100
AcDbSpline
 70
8
 71
3
 72
8
 73
4
 74
0
 40
0
 40
0
 40
0
 40
0
 40
1
 40
1
 40
1
 40
1
 10
117.840000
 20
77.760000
 30
0.0
 10
120.320000
 20
76.080000
 30
0.0
 10
121.840000
 20
73.440000
 30
0.0
 10
122.320000
 20
70.000000
 30
0.0
  0
LINE
  5
2bc
100
AcDbEntity
  8
0
 62
7
100
AcDbLine
 10
122.320000
 20
70.000000
 30
0.0
 11
116.160000
 21
69.120000
 31
0.0
  0
LINE
  5
2bd
100
AcDbEntity
  8
0
 62
7
100
AcDbLine
 10
116.160000
 20
69.120000
 30
0.0
 11
116.160000
 21
69.120000
 31
0.0
  0
SPLINE
  5
2be
100
AcDbEntity
  8
0
 62
7
100
AcDbSpline
 70
8
 71
3
 72
8
 73
4
 74
0
 40
0
 40
0
 40
0
 40
0
 40
1
 40
1
 40
1
 40
1
 10
145.840000
 20
42.320000
 30
0.0
 10
144.000000
 20
42.000000
 30
0.0
 10
142.400000
 20
41.760000
 30
0.0
 10
141.120000
 20
41.760000
 30
0.0
  0
SPLINE
  5
2bf
100
AcDbEntity
  8
0
 62
7
100
AcDbSpline
 70
8
 71
3
 72
8
 73
4
 74
0
 40
0
 40
0
 40
0
 40
0
 40
1
 40
1
 40
1
 40
1
 10
141.120000
 20
41.760000
 30
0.0
 10
138.400000
 20
41.760000
 30
0.0
 10
136.320000
 20
42.240000
 30
0.0
 10
135.040000
 20
43.200000
 30
0.0
  0
SPLINE
  5
2c0
100
AcDbEntity
  8
0
 62
7
100
AcDbSpline
 70
8
 71
3
 72
8
 73
4
 74
0
 40
0
 40
0
 40
0
 40
0
 40
1
 40
1
 40
1
 40
1
 10
135.040000
 20
43.200000
 30
0.0
 10
133.840000
 20
44.240000
 30
0.0
 10
133.040000
 20
45.440000
 30
0.0
 10
132.720000
 20
46.960000
 30
0.0
  0
SPLINE
  5
2c1
100
AcDbEntity
  8
0
 62
7
100
AcDbSpline
 70
8
 71
3
 72
8
 73
4
 74
0
 40
0
 40
0
 40
0
 40
0
 40
1
 40
1
 40
1
 40
1
 10
132.720000
 20
46.960000
 30
0.0
 10
132.480000
 20
48.480000
 30
0.0
 10
132.320000
 20
50.560000
 30
0.0
 10
132.320000
 20
53.200000
 30
0.0
  0
LINE
  5
2c2
100
AcDbEntity
  8
0
 62
7
100
AcDbLine
 10
132.320000
 20
53.200000
 30
0.0
 11
132.320000
 21
74.720000
 31
0.0
  0
LINE
  5
2c3
100
AcDbEntity
  8
0
 62
7
100
AcDbLine
 10
132.320000
 20
74.720000
 30
0.0
 11
127.760000
 21
74.720000
 31
0.0
  0
LINE
  5
2c4
100
AcDbEntity
  8
0
 62
7
100
AcDbLine
 10
127.760000
 20
74.720000
 30
0.0
 11
127.760000
 21
79.600000
 31
0.0
  0
LINE
  5
2c5
100
AcDbEntity
  8
0
 62
7
100
AcDbLine
 10
127.760000
 20
79.600000
 30
0.0
 11
132.320000
 21
79.600000
 31
0.0
  0
LINE
  5
2c6
100
AcDbEntity
  8
0
 62
7
100
AcDbLine
 10
132.320000
 20
79.600000
 30
0.0
 11
132.320000
 21
88.880000
 31
0.0
  0
LINE
  5
2c7
100
AcDbEntity
  8
0
 62
7
100
AcDbLine
 10
132.320000
 20
88.880000
 30
0.0
 11
138.640000
 21
92.720000
 31
0.0
  0
LINE
  5
2c8
100
AcDbEntity
  8
0
 62
7
100
AcDbLine
 10
138.640000
 20
92.720000
 30
0.0
 11
138.640000
 21
79.600000
 31
0.0
  0
LINE
  5
2c9
100
AcDbEntity
  8
0
 62
7
100
AcDbLine
 10
138.640000
 20
79.600000
 30
0.0
 11
144.960000
 21
79.600000
 31
0.0
  0
LINE
  5
2ca
100
AcDbEntity
  8
0
 62
7
100
AcDbLine
 10
144.960000
 20
79.600000
 30
0.0
 11
144.960000
 21
74.720000
 31
0.0
  0
LINE
  5
2cb
100
AcDbEntity
  8
0
 62
7
100
AcDbLine
 10
144.960000
 20
74.720000
 30
0.0
 11
138.640000
 21
74.720000
 31
0.0
  0
LINE
  5
2cc
100
AcDbEntity
  8
0
 62
7
100
AcDbLine
 10
138.640000
 20
74.720000
 30
0.0
 11
138.640000
 21
52.880000
 31
0.0
  0
SPLINE
  5
2cd
100
AcDbEntity
  8
0
 62
7
100
AcDbSpline
 70
8
 71
3
 72
8
 73
4
 74
0
 40
0
 40
0
 40
0
 40
0
 40
1
 40
1
 40
1
 40
1
 10
138.640000
 20
52.880000
 30
0.0
 10
138.640000
 20
50.960000
 30
0.0
 10
138.880000
 20
49.680000
 30
0.0
 10
139.280000
 20
48.880000
 30
0.0
  0
SPLINE
  5
2ce
100
AcDbEntity
  8
0
 62
7
100
AcDbSpline
 70
8
 71
3
 72
8
 73
4
 74
0
 40
0
 40
0
 40
0
 40
0
 40
1
 40
1
 40
1
 40
1
 10
139.280000
 20
48.880000
 30
0.0
 10
139.600000
 20
48.080000
 30
0.0
 10
140.640000
 20
47.680000
 30
0.0
 10
142.160000
 20
47.680000
 30
0.0
  0
SPLINE
  5
2cf
100
AcDbEntity
  8
0
 62
7
100
AcDbSpline
 70
8
 71
3
 72
8
 73
4
 74
0
 40
0
 40
0
 40
0
 40
0
 40
1
 40
1
 40
1
 40
1
 10
142.160000
 20
47.680000
 30
0.0
 10
143.120000
 20
47.680000
 30
0.0
 10
144.000000
 20
47.760000
 30
0.0
 10
144.960000
 20
48.000000
 30
0.0
  0
LINE
  5
2d0
100
AcDbEntity
  8
0
 62
7
100
AcDbLine
 10
144.960000
 20
48.000000
 30
0.0
 11
145.840000
 21
42.320000
 31
0.0
  0
LINE
  5
2d1
100
AcDbEntity
  8
0
 62
7
100
AcDbLine
 10
145.840000
 20
42.320000
 30
0.0
 11
145.840000
 21
42.320000
 31
0.0
  0
SPLINE
  5
2d2
100
AcDbEntity
  8
0
 62
7
100
AcDbSpline
 70
8
 71
3
 72
8
 73
4
 74
0
 40
0
 40
0
 40
0
 40
0
 40
1
 40
1
 40
1
 40
1
 10
166.480000
 20
80.400000
 30
0.0
 10
171.520000
 20
80.400000
 30
0.0
 10
175.760000
 20
78.800000
 30
0.0
 10
179.040000
 20
75.520000
 30
0.0
  0
SPLINE
  5
2d3
100
AcDbEntity
  8
0
 62
7
100
AcDbSpline
 70
8
 71
3
 72
8
 73
4
 74
0
 40
0
 40
0
 40
0
 40
0
 40
1
 40
1
 40
1
 40
1
 10
179.040000
 20
75.520000
 30
0.0
 10
182.320000
 20
72.240000
 30
0.0
 10
184.000000
 20
67.520000
 30
0.0
 10
184.000000
 20
61.520000
 30
0.0
  0
SPLINE
  5
2d4
100
AcDbEntity
  8
0
 62
7
100
AcDbSpline
 70
8
 71
3
 72
8
 73
4
 74
0
 40
0
 40
0
 40
0
 40
0
 40
1
 40
1
 40
1
 40
1
 10
184.000000
 20
61.520000
 30
0.0
 10
184.000000
 20
54.160000
 30
0.0
 10
182.240000
 20
48.960000
 30
0.0
 10
178.640000
 20
45.920000
 30
0.0
  0
SPLINE
  5
2d5
100
AcDbEntity
  8
0
 62
7
100
AcDbSpline
 70
8
 71
3
 72
8
 73
4
 74
0
 40
0
 40
0
 40
0
 40
0
 40
1
 40
1
 40
1
 40
1
 10
178.640000
 20
45.920000
 30
0.0
 10
175.040000
 20
42.880000
 30
0.0
 10
171.040000
 20
41.360000
 30
0.0
 10
166.480000
 20
41.360000
 30
0.0
  0
SPLINE
  5
2d6
100
AcDbEntity
  8
0
 62
7
100
AcDbSpline
 70
8
 71
3
 72
8
 73
4
 74
0
 40
0
 40
0
 40
0
 40
0
 40
1
 40
1
 40
1
 40
1
 10
166.480000
 20
41.360000
 30
0.0
 10
161.760000
 20
41.360000
 30
0.0
 10
157.680000
 20
42.960000
 30
0.0
 10
154.240000
 20
46.080000
 30
0.0
  0
SPLINE
  5
2d7
100
AcDbEntity
  8
0
 62
7
100
AcDbSpline
 70
8
 71
3
 72
8
 73
4
 74
0
 40
0
 40
0
 40
0
 40
0
 40
1
 40
1
 40
1
 40
1
 10
154.240000
 20
46.080000
 30
0.0
 10
150.800000
 20
49.200000
 30
0.0
 10
149.040000
 20
54.160000
 30
0.0
 10
149.040000
 20
60.880000
 30
0.0
  0
SPLINE
  5
2d8
100
AcDbEntity
  8
0
 62
7
100
AcDbSpline
 70
8
 71
3
 72
8
 73
4
 74
0
 40
0
 40
0
 40
0
 40
0
 40
1
 40
1
 40
1
 40
1
 10
149.040000
 20
60.880000
 30
0.0
 10
149.040000
 20
67.440000
 30
0.0
 10
150.720000
 20
72.320000
 30
0.0
 10
154.080000
 20
75.600000
 30
0.0
  0
SPLINE
  5
2d9
100
AcDbEntity
  8
0
 62
7
100
AcDbSpline
 70
8
 71
3
 72
8
 73
4
 74
0
 40
0
 40
0
 40
0
 40
0
 40
1
 40
1
 40
1
 40
1
 10
154.080000
 20
75.600000
 30
0.0
 10
157.440000
 20
78.800000
 30
0.0
 10
161.600000
 20
80.400000
 30
0.0
 10
166.480000
 20
80.400000
 30
0.0
  0
LINE
  5
2da
100
AcDbEntity
  8
0
 62
7
100
AcDbLine
 10
166.480000
 20
80.400000
 30
0.0
 11
166.480000
 21
80.400000
 31
0.0
  0
SPLINE
  5
2db
100
AcDbEntity
  8
0
 62
7
100
AcDbSpline
 70
8
 71
3
 72
8
 73
4
 74
0
 40
0
 40
0
 40
0
 40
0
 40
1
 40
1
 40
1
 40
1
 10
166.480000
 20
46.560000
 30
0.0
 10
170.080000
 20
46.560000
 30
0.0
 10
172.880000
 20
47.920000
 30
0.0
 10
174.720000
 20
50.640000
 30
0.0
  0
SPLINE
  5
2dc
100
AcDbEntity
  8
0
 62
7
100
AcDbSpline
 70
8
 71
3
 72
8
 73
4
 74
0
 40
0
 40
0
 40
0
 40
0
 40
1
 40
1
 40
1
 40
1
 10
174.720000
 20
50.640000
 30
0.0
 10
176.640000
 20
53.280000
 30
0.0
 10
177.520000
 20
56.800000
 30
0.0
 10
177.520000
 20
61.120000
 30
0.0
  0
SPLINE
  5
2dd
100
AcDbEntity
  8
0
 62
7
100
AcDbSpline
 70
8
 71
3
 72
8
 73
4
 74
0
 40
0
 40
0
 40
0
 40
0
 40
1
 40
1
 40
1
 40
1
 10
177.520000
 20
61.120000
 30
0.0
 10
177.520000
 20
65.840000
 30
0.0
 10
176.480000
 20
69.360000
 30
0.0
 10
174.400000
 20
71.680000
 30
0.0
  0
SPLINE
  5
2de
100
AcDbEntity
  8
0
 62
7
100
AcDbSpline
 70
8
 71
3
 72
8
 73
4
 74
0
 40
0
 40
0
 40
0
 40
0
 40
1
 40
1
 40
1
 40
1
 10
174.400000
 20
71.680000
 30
0.0
 10
172.240000
 20
74.080000
 30
0.0
 10
169.600000
 20
75.280000
 30
0.0
 10
166.480000
 20
75.280000
 30
0.0
  0
SPLINE
  5
2df
100
AcDbEntity
  8
0
 62
7
100
AcDbSpline
 70
8
 71
3
 72
8
 73
4
 74
0
 40
0
 40
0
 40
0
 40
0
 40
1
 40
1
 40
1
 40
1
 10
166.480000
 20
75.280000
 30
0.0
 10
163.280000
 20
75.280000
 30
0.0
 10
160.640000
 20
74.080000
 30
0.0
 10
158.560000
 20
71.680000
 30
0.0
  0
SPLINE
  5
2e0
100
AcDbEntity
  8
0
 62
7
100
AcDbSpline
 70
8
 71
3
 72
8
 73
4
 74
0
 40
0
 40
0
 40
0
 40
0
 40
1
 40
1
 40
1
 40
1
 10
158.560000
 20
71.680000
 30
0.0
 10
156.560000
 20
69.280000
 30
0.0
 10
155.520000
 20
65.680000
 30
0.0
 10
155.520000
 20
60.880000
 30
0.0
  0
SPLINE
  5
2e1
100
AcDbEntity
  8
0
 62
7
100
AcDbSpline
 70
8
 71
3
 72
8
 73
4
 74
0
 40
0
 40
0
 40
0
 40
0
 40
1
 40
1
 40
1
 40
1
 10
155.520000
 20
60.880000
 30
0.0
 10
155.520000
 20
56.160000
 30
0.0
 10
156.560000
 20
52.640000
 30
0.0
 10
158.640000
 20
50.160000
 30
0.0
  0
SPLINE
  5
2e2
100
AcDbEntity
  8
0
 62
7
100
AcDbSpline
 70
8
 71
3
 72
8
 73
4
 74
0
 40
0
 40
0
 40
0
 40
0
 40
1
 40
1
 40
1
 40
1
 10
158.640000
 20
50.160000
 30
0.0
 10
160.720000
 20
47.760000
 30
0.0
 10
163.360000
 20
46.560000
 30
0.0
 10
166.480000
 20
46.560000
 30
0.0
  0
LINE
  5
2e3
100
AcDbEntity
  8
0
 62
7
100
AcDbLine
 10
166.480000
 20
46.560000
 30
0.0
 11
166.480000
 21
46.560000
 31
0.0
  0
LINE
  5
2e4
100
AcDbEntity
  8
0
 62
7
100
AcDbLine
 10
221.600000
 20
42.240000
 30
0.0
 11
215.920000
 21
42.240000
 31
0.0
  0
LINE
  5
2e5
100
AcDbEntity
  8
0
 62
7
100
AcDbLine
 10
215.920000
 20
42.240000
 30
0.0
 11
215.920000
 21
47.760000
 31
0.0
  0
LINE
  5
2e6
100
AcDbEntity
  8
0
 62
7
100
AcDbLine
 10
215.920000
 20
47.760000
 30
0.0
 11
215.760000
 21
47.760000
 31
0.0
  0
SPLINE
  5
2e7
100
AcDbEntity
  8
0
 62
7
100
AcDbSpline
 70
8
 71
3
 72
8
 73
4
 74
0
 40
0
 40
0
 40
0
 40
0
 40
1
 40
1
 40
1
 40
1
 10
215.760000
 20
47.760000
 30
0.0
 10
212.880000
 20
43.520000
 30
0.0
 10
209.040000
 20
41.360000
 30
0.0
 10
204.080000
 20
41.360000
 30
0.0
  0
SPLINE
  5
2e8
100
AcDbEntity
  8
0
 62
7
100
AcDbSpline
 70
8
 71
3
 72
8
 73
4
 74
0
 40
0
 40
0
 40
0
 40
0
 40
1
 40
1
 40
1
 40
1
 10
204.080000
 20
41.360000
 30
0.0
 10
201.440000
 20
41.360000
 30
0.0
 10
199.040000
 20
42.000000
 30
0.0
 10
196.800000
 20
43.200000
 30
0.0
  0
SPLINE
  5
2e9
100
AcDbEntity
  8
0
 62
7
100
AcDbSpline
 70
8
 71
3
 72
8
 73
4
 74
0
 40
0
 40
0
 40
0
 40
0
 40
1
 40
1
 40
1
 40
1
 10
196.800000
 20
43.200000
 30
0.0
 10
194.640000
 20
44.400000
 30
0.0
 10
193.120000
 20
46.080000
 30
0.0
 10
192.400000
 20
48.160000
 30
0.0
  0
SPLINE
  5
2ea
100
AcDbEntity
  8
0
 62
7
100
AcDbSpline
 70
8
 71
3
 72
8
 73
4
 74
0
 40
0
 40
0
 40
0
 40
0
 40
1
 40
1
 40
1
 40
1
 10
192.400000
 20
48.160000
 30
0.0
 10
191.680000
 20
50.320000
 30
0.0
 10
191.280000
 20
53.040000
 30
0.0
 10
191.280000
 20
56.400000
 30
0.0
  0
LINE
  5
2eb
100
AcDbEntity
  8
0
 62
7
100
AcDbLine
 10
191.280000
 20
56.400000
 30
0.0
 11
191.280000
 21
79.600000
 31
0.0
  0
LINE
  5
2ec
100
AcDbEntity
  8
0
 62
7
100
AcDbLine
 10
191.280000
 20
79.600000
 30
0.0
 11
197.600000
 21
79.600000
 31
0.0
  0
LINE
  5
2ed
100
AcDbEntity
  8
0
 62
7
100
AcDbLine
 10
197.600000
 20
79.600000
 30
0.0
 11
197.600000
 21
58.880000
 31
0.0
  0
SPLINE
  5
2ee
100
AcDbEntity
  8
0
 62
7
100
AcDbSpline
 70
8
 71
3
 72
8
 73
4
 74
0
 40
0
 40
0
 40
0
 40
0
 40
1
 40
1
 40
1
 40
1
 10
197.600000
 20
58.880000
 30
0.0
 10
197.600000
 20
55.600000
 30
0.0
 10
197.760000
 20
53.200000
 30
0.0
 10
198.080000
 20
51.760000
 30
0.0
  0
SPLINE
  5
2ef
100
AcDbEntity
  8
0
 62
7
100
AcDbSpline
 70
8
 71
3
 72
8
 73
4
 74
0
 40
0
 40
0
 40
0
 40
0
 40
1
 40
1
 40
1
 40
1
 10
198.080000
 20
51.760000
 30
0.0
 10
198.400000
 20
50.400000
 30
0.0
 10
199.200000
 20
49.200000
 30
0.0
 10
200.560000
 20
48.240000
 30
0.0
  0
SPLINE
  5
2f0
100
AcDbEntity
  8
0
 62
7
100
AcDbSpline
 70
8
 71
3
 72
8
 73
4
 74
0
 40
0
 40
0
 40
0
 40
0
 40
1
 40
1
 40
1
 40
1
 10
200.560000
 20
48.240000
 30
0.0
 10
201.920000
 20
47.360000
 30
0.0
 10
203.520000
 20
46.880000
 30
0.0
 10
205.360000
 20
46.880000
 30
0.0
  0
SPLINE
  5
2f1
100
AcDbEntity
  8
0
 62
7
100
AcDbSpline
 70
8
 71
3
 72
8
 73
4
 74
0
 40
0
 40
0
 40
0
 40
0
 40
1
 40
1
 40
1
 40
1
 10
205.360000
 20
46.880000
 30
0.0
 10
207.760000
 20
46.880000
 30
0.0
 10
210.000000
 20
47.680000
 30
0.0
 10
212.080000
 20
49.360000
 30
0.0
  0
SPLINE
  5
2f2
100
AcDbEntity
  8
0
 62
7
100
AcDbSpline
 70
8
 71
3
 72
8
 73
4
 74
0
 40
0
 40
0
 40
0
 40
0
 40
1
 40
1
 40
1
 40
1
 10
212.080000
 20
49.360000
 30
0.0
 10
214.240000
 20
51.040000
 30
0.0
 10
215.280000
 20
54.400000
 30
0.0
 10
215.280000
 20
59.600000
 30
0.0
  0
LINE
  5
2f3
100
AcDbEntity
  8
0
 62
7
100
AcDbLine
 10
215.280000
 20
59.600000
 30
0.0
 11
215.280000
 21
79.600000
 31
0.0
  0
LINE
  5
2f4
100
AcDbEntity
  8
0
 62
7
100
AcDbLine
 10
215.280000
 20
79.600000
 30
0.0
 11
221.600000
 21
79.600000
 31
0.0
  0
LINE
  5
2f5
100
AcDbEntity
  8
0
 62
7
100
AcDbLine
 10
221.600000
 20
79.600000
 30
0.0
 11
221.600000
 21
42.240000
 31
0.0
  0
LINE
  5
2f6
100
AcDbEntity
  8
0
 62
7
100
AcDbLine
 10
221.600000
 20
42.240000
 30
0.0
 11
221.600000
 21
42.240000
 31
0.0
  0
LINE
  5
2f7
100
AcDbEntity
  8
0
 62
7
100
AcDbLine
 10
237.760000
 20
42.240000
 30
0.0
 11
231.440000
 21
42.240000
 31
0.0
  0
LINE
  5
2f8
100
AcDbEntity
  8
0
 62
7
100
AcDbLine
 10
231.440000
 20
42.240000
 30
0.0
 11
231.440000
 21
79.600000
 31
0.0
  0
LINE
  5
2f9
100
AcDbEntity
  8
0
 62
7
100
AcDbLine
 10
231.440000
 20
79.600000
 30
0.0
 11
237.760000
 21
79.600000
 31
0.0
  0
LINE
  5
2fa
100
AcDbEntity
  8
0
 62
7
100
AcDbLine
 10
237.760000
 20
79.600000
 30
0.0
 11
237.760000
 21
42.240000
 31
0.0
  0
LINE
  5
2fb
100
AcDbEntity
  8
0
 62
7
100
AcDbLine
 10
237.760000
 20
42.240000
 30
0.0
 11
237.760000
 21
42.240000
 31
0.0
  0
LINE
  5
2fc
100
AcDbEntity
  8
0
 62
7
100
AcDbLine
 10
237.760000
 20
86.640000
 30
0.0
 11
231.440000
 21
86.640000
 31
0.0
  0
LINE
  5
2fd
100
AcDbEntity
  8
0
 62
7
100
AcDbLine
 10
231.440000
 20
86.640000
 30
0.0
 11
231.440000
 21
93.840000
 31
0.0
  0
LINE
  5
2fe
100
AcDbEntity
  8
0
 62
7
100
AcDbLine
 10
231.440000
 20
93.840000
 30
0.0
 11
237.760000
 21
93.840000
 31
0.0
  0
LINE
  5
2ff
100
AcDbEntity
  8
0
 62
7
100
AcDbLine
 10
237.760000
 20
93.840000
 30
0.0
 11
237.760000
 21
86.640000
 31
0.0
  0
LINE
  5
300
100
AcDbEntity
  8
0
 62
7
100
AcDbLine
 10
237.760000
 20
86.640000
 30
0.0
 11
237.760000
 21
86.640000
 31
0.0
  0
LINE
  5
301
100
AcDbEntity
  8
0
 62
7
100
AcDbLine
 10
253.760000
 20
42.240000
 30
0.0
 11
247.440000
 21
42.240000
 31
0.0
  0
LINE
  5
302
100
AcDbEntity
  8
0
 62
7
100
AcDbLine
 10
247.440000
 20
42.240000
 30
0.0
 11
247.440000
 21
93.840000
 31
0.0
  0
LINE
  5
303
100
AcDbEntity
  8
0
 62
7
100
AcDbLine
 10
247.440000
 20
93.840000
 30
0.0
 11
253.760000
 21
93.840000
 31
0.0
  0
LINE
  5
304
100
AcDbEntity
  8
0
 62
7
100
AcDbLine
 10
253.760000
 20
93.840000
 30
0.0
 11
253.760000
 21
42.240000
 31
0.0
  0
LINE
  5
305
100
AcDbEntity
  8
0
 62
7
100
AcDbLine
 10
253.760000
 20
42.240000
 30
0.0
 11
253.760000
 21
42.240000
 31
0.0
  0
LINE
  5
306
100
AcDbEntity
  8
0
 62
7
100
AcDbLine
 10
269.760000
 20
42.240000
 30
0.0
 11
263.360000
 21
42.240000
 31
0.0
  0
LINE
  5
307
100
AcDbEntity
  8
0
 62
7
100
AcDbLine
 10
263.360000
 20
42.240000
 30
0.0
 11
263.360000
 21
93.840000
 31
0.0
  0
LINE
  5
308
100
AcDbEntity
  8
0
 62
7
100
AcDbLine
 10
263.360000
 20
93.840000
 30
0.0
 11
269.760000
 21
93.840000
 31
0.0
  0
LINE
  5
309
100
AcDbEntity
  8
0
 62
7
100
AcDbLine
 10
269.760000
 20
93.840000
 30
0.0
 11
269.760000
 21
42.240000
 31
0.0
  0
LINE
  5
30a
100
AcDbEntity
  8
0
 62
7
100
AcDbLine
 10
269.760000
 20
42.240000
 30
0.0
 11
269.760000
 21
42.240000
 31
0.0
  0
LINE
  5
30b
100
AcDbEntity
  8
0
 62
7
100
AcDbLine
 10
311.840000
 20
59.360000
 30
0.0
 11
283.840000
 21
59.360000
 31
0.0
  0
SPLINE
  5
30c
100
AcDbEntity
  8
0
 62
7
100
AcDbSpline
 70
8
 71
3
 72
8
 73
4
 74
0
 40
0
 40
0
 40
0
 40
0
 40
1
 40
1
 40
1
 40
1
 10
283.840000
 20
59.360000
 30
0.0
 10
284.080000
 20
55.200000
 30
0.0
 10
285.280000
 20
52.080000
 30
0.0
 10
287.360000
 20
49.840000
 30
0.0
  0
SPLINE
  5
30d
100
AcDbEntity
  8
0
 62
7
100
AcDbSpline
 70
8
 71
3
 72
8
 73
4
 74
0
 40
0
 40
0
 40
0
 40
0
 40
1
 40
1
 40
1
 40
1
 10
287.360000
 20
49.840000
 30
0.0
 10
289.520000
 20
47.680000
 30
0.0
 10
292.080000
 20
46.560000
 30
0.0
 10
295.280000
 20
46.560000
 30
0.0
  0
SPLINE
  5
30e
100
AcDbEntity
  8
0
 62
7
100
AcDbSpline
 70
8
 71
3
 72
8
 73
4
 74
0
 40
0
 40
0
 40
0
 40
0
 40
1
 40
1
 40
1
 40
1
 10
295.280000
 20
46.560000
 30
0.0
 10
297.680000
 20
46.560000
 30
0.0
 10
299.680000
 20
47.200000
 30
0.0
 10
301.360000
 20
48.480000
 30
0.0
  0
SPLINE
  5
30f
100
AcDbEntity
  8
0
 62
7
100
AcDbSpline
 70
8
 71
3
 72
8
 73
4
 74
0
 40
0
 40
0
 40
0
 40
0
 40
1
 40
1
 40
1
 40
1
 10
301.360000
 20
48.480000
 30
0.0
 10
302.960000
 20
49.760000
 30
0.0
 10
304.240000
 20
51.680000
 30
0.0
 10
305.120000
 20
54.320000
 30
0.0
  0
LINE
  5
310
100
AcDbEntity
  8
0
 62
7
100
AcDbLine
 10
305.120000
 20
54.320000
 30
0.0
 11
311.600000
 21
53.520000
 31
0.0
  0
SPLINE
  5
311
100
AcDbEntity
  8
0
 62
7
100
AcDbSpline
 70
8
 71
3
 72
8
 73
4
 74
0
 40
0
 40
0
 40
0
 40
0
 40
1
 40
1
 40
1
 40
1
 10
311.600000
 20
53.520000
 30
0.0
 10
310.560000
 20
49.600000
 30
0.0
 10
308.640000
 20
46.640000
 30
0.0
 10
305.760000
 20
44.560000
 30
0.0
  0
SPLINE
  5
312
100
AcDbEntity
  8
0
 62
7
100
AcDbSpline
 70
8
 71
3
 72
8
 73
4
 74
0
 40
0
 40
0
 40
0
 40
0
 40
1
 40
1
 40
1
 40
1
 10
305.760000
 20
44.560000
 30
0.0
 10
302.960000
 20
42.400000
 30
0.0
 10
299.440000
 20
41.360000
 30
0.0
 10
295.280000
 20
41.360000
 30
0.0
  0
SPLINE
  5
313
100
AcDbEntity
  8
0
 62
7
100
AcDbSpline
 70
8
 71
3
 72
8
 73
4
 74
0
 40
0
 40
0
 40
0
 40
0
 40
1
 40
1
 40
1
 40
1
 10
295.280000
 20
41.360000
 30
0.0
 10
289.680000
 20
41.360000
 30
0.0
 10
285.280000
 20
43.120000
 30
0.0
 10
282.080000
 20
46.560000
 30
0.0
  0
SPLINE
  5
314
100
AcDbEntity
  8
0
 62
7
100
AcDbSpline
 70
8
 71
3
 72
8
 73
4
 74
0
 40
0
 40
0
 40
0
 40
0
 40
1
 40
1
 40
1
 40
1
 10
282.080000
 20
46.560000
 30
0.0
 10
278.960000
 20
50.000000
 30
0.0
 10
277.360000
 20
54.640000
 30
0.0
 10
277.360000
 20
60.640000
 30
0.0
  0
SPLINE
  5
315
100
AcDbEntity
  8
0
 62
7
100
AcDbSpline
 70
8
 71
3
 72
8
 73
4
 74
0
 40
0
 40
0
 40
0
 40
0
 40
1
 40
1
 40
1
 40
1
 10
277.360000
 20
60.640000
 30
0.0
 10
277.360000
 20
66.480000
 30
0.0
 10
278.960000
 20
71.280000
 30
0.0
 10
282.000000
 20
74.960000
 30
0.0
  0
SPLINE
  5
316
100
AcDbEntity
  8
0
 62
7
100
AcDbSpline
 70
8
 71
3
 72
8
 73
4
 74
0
 40
0
 40
0
 40
0
 40
0
 40
1
 40
1
 40
1
 40
1
 10
282.000000
 20
74.960000
 30
0.0
 10
285.040000
 20
78.560000
 30
0.0
 10
289.360000
 20
80.400000
 30
0.0
 10
294.880000
 20
80.400000
 30
0.0
  0
SPLINE
  5
317
100
AcDbEntity
  8
0
 62
7
100
AcDbSpline
 70
8
 71
3
 72
8
 73
4
 74
0
 40
0
 40
0
 40
0
 40
0
 40
1
 40
1
 40
1
 40
1
 10
294.880000
 20
80.400000
 30
0.0
 10
297.600000
 20
80.400000
 30
0.0
 10
300.240000
 20
79.840000
 30
0.0
 10
302.720000
 20
78.640000
 30
0.0
  0
SPLINE
  5
318
100
AcDbEntity
  8
0
 62
7
100
AcDbSpline
 70
8
 71
3
 72
8
 73
4
 74
0
 40
0
 40
0
 40
0
 40
0
 40
1
 40
1
 40
1
 40
1
 10
302.720000
 20
78.640000
 30
0.0
 10
305.280000
 20
77.440000
 30
0.0
 10
307.440000
 20
75.360000
 30
0.0
 10
309.200000
 20
72.560000
 30
0.0
  0
SPLINE
  5
319
100
AcDbEntity
  8
0
 62
7
100
AcDbSpline
 70
8
 71
3
 72
8
 73
4
 74
0
 40
0
 40
0
 40
0
 40
0
 40
1
 40
1
 40
1
 40
1
 10
309.200000
 20
72.560000
 30
0.0
 10
310.960000
 20
69.680000
 30
0.0
 10
311.840000
 20
65.280000
 30
0.0
 10
311.840000
 20
59.360000
 30
0.0
  0
LINE
  5
31a
100
AcDbEntity
  8
0
 62
7
100
AcDbLine
 10
311.840000
 20
59.360000
 30
0.0
 11
311.840000
 21
59.360000
 31
0.0
  0
SPLINE
  5
31b
100
AcDbEntity
  8
0
 62
7
100
AcDbSpline
 70
8
 71
3
 72
8
 73
4
 74
0
 40
0
 40
0
 40
0
 40
0
 40
1
 40
1
 40
1
 40
1
 10
305.280000
 20
64.560000
 30
0.0
 10
305.040000
 20
68.320000
 30
0.0
 10
303.840000
 20
71.040000
 30
0.0
 10
301.760000
 20
72.720000
 30
0.0
  0
SPLINE
  5
31c
100
AcDbEntity
  8
0
 62
7
100
AcDbSpline
 70
8
 71
3
 72
8
 73
4
 74
0
 40
0
 40
0
 40
0
 40
0
 40
1
 40
1
 40
1
 40
1
 10
301.760000
 20
72.720000
 30
0.0
 10
299.680000
 20
74.400000
 30
0.0
 10
297.360000
 20
75.280000
 30
0.0
 10
294.880000
 20
75.280000
 30
0.0
  0
SPLINE
  5
31d
100
AcDbEntity
  8
0
 62
7
100
AcDbSpline
 70
8
 71
3
 72
8
 73
4
 74
0
 40
0
 40
0
 40
0
 40
0
 40
1
 40
1
 40
1
 40
1
 10
294.880000
 20
75.280000
 30
0.0
 10
291.920000
 20
75.280000
 30
0.0
 10
289.440000
 20
74.240000
 30
0.0
 10
287.520000
 20
72.240000
 30
0.0
  0
SPLINE
  5
31e
100
AcDbEntity
  8
0
 62
7
100
AcDbSpline
 70
8
 71
3
 72
8
 73
4
 74
0
 40
0
 40
0
 40
0
 40
0
 40
1
 40
1
 40
1
 40
1
 10
287.520000
 20
72.240000
 30
0.0
 10
285.600000
 20
70.240000
 30
0.0
 10
284.480000
 20
67.680000
 30
0.0
 10
284.240000
 20
64.560000
 30
0.0
  0
LINE
  5
31f
100
AcDbEntity
  8
0
 62
7
100
AcDbLine
 10
284.240000
 20
64.560000
 30
0.0
 11
305.280000
 21
64.560000
 31
0.0
  0
LINE
  5
320
100
AcDbEntity
  8
0
 62
7
100
AcDbLine
 10
305.280000
 20
64.560000
 30
0.0
 11
305.280000
 21
64.560000
 31
0.0
  0
LINE
  5
321
100
AcDbEntity
  8
0
 62
7
100
AcDbLine
 10
328.240000
 20
42.240000
 30
0.0
 11
321.040000
 21
42.240000
 31
0.0
  0
LINE
  5
322
100
AcDbEntity
  8
0
 62
7
100
AcDbLine
 10
321.040000
 20
42.240000
 30
0.0
 11
321.040000
 21
49.440000
 31
0.0
  0
LINE
  5
323
100
AcDbEntity
  8
0
 62
7
100
AcDbLine
 10
321.040000
 20
49.440000
 30
0.0
 11
328.240000
 21
49.440000
 31
0.0
  0
LINE
  5
324
100
AcDbEntity
  8
0
 62
7
100
AcDbLine
 10
328.240000
 20
49.440000
 30
0.0
 11
328.240000
 21
42.240000
 31
0.0
  0
LINE
  5
325
100
AcDbEntity
  8
0
 62
7
100
AcDbLine
 10
328.240000
 20
42.240000
 30
0.0
 11
328.240000
 21
42.240000
 31
0.0
  0
LINE
  5
326
100
AcDbEntity
  8
0
 62
7
100
AcDbLine
 10
357.040000
 20
94.080000
 30
0.0
 11
356.080000
 21
88.480000
 31
0.0
  0
SPLINE
  5
327
100
AcDbEntity
  8
0
 62
7
100
AcDbSpline
 70
8
 71
3
 72
8
 73
4
 74
0
 40
0
 40
0
 40
0
 40
0
 40
1
 40
1
 40
1
 40
1
 10
356.080000
 20
88.480000
 30
0.0
 10
354.800000
 20
88.720000
 30
0.0
 10
353.600000
 20
88.880000
 30
0.0
 10
352.320000
 20
88.880000
 30
0.0
  0
SPLINE
  5
328
100
AcDbEntity
  8
0
 62
7
100
AcDbSpline
 70
8
 71
3
 72
8
 73
4
 74
0
 40
0
 40
0
 40
0
 40
0
 40
1
 40
1
 40
1
 40
1
 10
352.320000
 20
88.880000
 30
0.0
 10
350.800000
 20
88.880000
 30
0.0
 10
349.600000
 20
88.560000
 30
0.0
 10
348.640000
 20
87.920000
 30
0.0
  0
SPLINE
  5
329
100
AcDbEntity
  8
0
 62
7
100
AcDbSpline
 70
8
 71
3
 72
8
 73
4
 74
0
 40
0
 40
0
 40
0
 40
0
 40
1
 40
1
 40
1
 40
1
 10
348.640000
 20
87.920000
 30
0.0
 10
347.600000
 20
87.280000
 30
0.0
 10
347.120000
 20
85.680000
 30
0.0
 10
347.120000
 20
83.120000
 30
0.0
  0
LINE
  5
32a
100
AcDbEntity
  8
0
 62
7
100
AcDbLine
 10
347.120000
 20
83.120000
 30
0.0
 11
347.120000
 21
79.600000
 31
0.0
  0
LINE
  5
32b
100
AcDbEntity
  8
0
 62
7
100
AcDbLine
 10
347.120000
 20
79.600000
 30
0.0
 11
354.320000
 21
79.600000
 31
0.0
  0
LINE
  5
32c
100
AcDbEntity
  8
0
 62
7
100
AcDbLine
 10
354.320000
 20
79.600000
 30
0.0
 11
354.320000
 21
74.720000
 31
0.0
  0
LINE
  5
32d
100
AcDbEntity
  8
0
 62
7
100
AcDbLine
 10
354.320000
 20
74.720000
 30
0.0
 11
347.120000
 21
74.720000
 31
0.0
  0
LINE
  5
32e
100
AcDbEntity
  8
0
 62
7
100
AcDbLine
 10
347.120000
 20
74.720000
 30
0.0
 11
347.120000
 21
42.240000
 31
0.0
  0
LINE
  5
32f
100
AcDbEntity
  8
0
 62
7
100
AcDbLine
 10
347.120000
 20
42.240000
 30
0.0
 11
340.800000
 21
42.240000
 31
0.0
  0
LINE
  5
330
100
AcDbEntity
  8
0
 62
7
100
AcDbLine
 10
340.800000
 20
42.240000
 30
0.0
 11
340.800000
 21
74.720000
 31
0.0
  0
LINE
  5
331
100
AcDbEntity
  8
0
 62
7
100
AcDbLine
 10
340.800000
 20
74.720000
 30
0.0
 11
335.200000
 21
74.720000
 31
0.0
  0
LINE
  5
332
100
AcDbEntity
  8
0
 62
7
100
AcDbLine
 10
335.200000
 20
74.720000
 30
0.0
 11
335.200000
 21
79.600000
 31
0.0
  0
LINE
  5
333
100
AcDbEntity
  8
0
 62
7
100
AcDbLine
 10
335.200000
 20
79.600000
 30
0.0
 11
340.800000
 21
79.600000
 31
0.0
  0
LINE
  5
334
100
AcDbEntity
  8
0
 62
7
100
AcDbLine
 10
340.800000
 20
79.600000
 30
0.0
 11
340.800000
 21
83.600000
 31
0.0
  0
SPLINE
  5
335
100
AcDbEntity
  8
0
 62
7
100
AcDbSpline
 70
8
 71
3
 72
8
 73
4
 74
0
 40
0
 40
0
 40
0
 40
0
 40
1
 40
1
 40
1
 40
1
 10
340.800000
 20
83.600000
 30
0.0
 10
340.800000
 20
85.520000
 30
0.0
 10
340.960000
 20
87.200000
 30
0.0
 10
341.360000
 20
88.720000
 30
0.0
  0
SPLINE
  5
336
100
AcDbEntity
  8
0
 62
7
100
AcDbSpline
 70
8
 71
3
 72
8
 73
4
 74
0
 40
0
 40
0
 40
0
 40
0
 40
1
 40
1
 40
1
 40
1
 10
341.360000
 20
88.720000
 30
0.0
 10
341.680000
 20
90.240000
 30
0.0
 10
342.640000
 20
91.600000
 30
0.0
 10
344.160000
 20
92.880000
 30
0.0
  0
SPLINE
  5
337
100
AcDbEntity
  8
0
 62
7
100
AcDbSpline
 70
8
 71
3
 72
8
 73
4
 74
0
 40
0
 40
0
 40
0
 40
0
 40
1
 40
1
 40
1
 40
1
 10
344.160000
 20
92.880000
 30
0.0
 10
345.680000
 20
94.080000
 30
0.0
 10
348.000000
 20
94.720000
 30
0.0
 10
351.120000
 20
94.720000
 30
0.0
  0
SPLINE
  5
338
100
AcDbEntity
  8
0
 62
7
100
AcDbSpline
 70
8
 71
3
 72
8
 73
4
 74
0
 40
0
 40
0
 40
0
 40
0
 40
1
 40
1
 40
1
 40
1
 10
351.120000
 20
94.720000
 30
0.0
 10
352.960000
 20
94.720000
 30
0.0
 10
354.960000
 20
94.480000
 30
0.0
 10
357.040000
 20
94.080000
 30
0.0
  0
LINE
  5
339
100
AcDbEntity
  8
0
 62
7
100
AcDbLine
 10
357.040000
 20
94.080000
 30
0.0
 11
357.040000
 21
94.080000
 31
0.0
  0
LINE
  5
33a
100
AcDbEntity
  8
0
 62
7
100
AcDbLine
 10
379.520000
 20
78.400000
 30
0.0
 11
377.360000
 21
72.560000
 31
0.0
  0
SPLINE
  5
33b
100
AcDbEntity
  8
0
 62
7
100
AcDbSpline
 70
8
 71
3
 72
8
 73
4
 74
0
 40
0
 40
0
 40
0
 40
0
 40
1
 40
1
 40
1
 40
1
 10
377.360000
 20
72.560000
 30
0.0
 10
375.840000
 20
73.520000
 30
0.0
 10
374.240000
 20
73.920000
 30
0.0
 10
372.800000
 20
73.920000
 30
0.0
  0
SPLINE
  5
33c
100
AcDbEntity
  8
0
 62
7
100
AcDbSpline
 70
8
 71
3
 72
8
 73
4
 74
0
 40
0
 40
0
 40
0
 40
0
 40
1
 40
1
 40
1
 40
1
 10
372.800000
 20
73.920000
 30
0.0
 10
370.400000
 20
73.920000
 30
0.0
 10
368.640000
 20
72.880000
 30
0.0
 10
367.360000
 20
70.800000
 30
0.0
  0
SPLINE
  5
33d
100
AcDbEntity
  8
0
 62
7
100
AcDbSpline
 70
8
 71
3
 72
8
 73
4
 74
0
 40
0
 40
0
 40
0
 40
0
 40
1
 40
1
 40
1
 40
1
 10
367.360000
 20
70.800000
 30
0.0
 10
366.160000
 20
68.640000
 30
0.0
 10
365.600000
 20
65.680000
 30
0.0
 10
365.600000
 20
61.840000
 30
0.0
  0
LINE
  5
33e
100
AcDbEntity
  8
0
 62
7
100
AcDbLine
 10
365.600000
 20
61.840000
 30
0.0
 11
365.600000
 21
42.240000
 31
0.0
  0
LINE
  5
33f
100
AcDbEntity
  8
0
 62
7
100
AcDbLine
 10
365.600000
 20
42.240000
 30
0.0
 11
359.200000
 21
42.240000
 31
0.0
  0
LINE
  5
340
100
AcDbEntity
  8
0
 62
7
100
AcDbLine
 10
359.200000
 20
42.240000
 30
0.0
 11
359.200000
 21
79.600000
 31
0.0
  0
LINE
  5
341
100
AcDbEntity
  8
0
 62
7
100
AcDbLine
 10
359.200000
 20
79.600000
 30
0.0
 11
365.040000
 21
79.600000
 31
0.0
  0
LINE
  5
342
100
AcDbEntity
  8
0
 62
7
100
AcDbLine
 10
365.040000
 20
79.600000
 30
0.0
 11
365.040000
 21
73.920000
 31
0.0
  0
LINE
  5
343
100
AcDbEntity
  8
0
 62
7
100
AcDbLine
 10
365.040000
 20
73.920000
 30
0.0
 11
365.120000
 21
73.920000
 31
0.0
  0
SPLINE
  5
344
100
AcDbEntity
  8
0
 62
7
100
AcDbSpline
 70
8
 71
3
 72
8
 73
4
 74
0
 40
0
 40
0
 40
0
 40
0
 40
1
 40
1
 40
1
 40
1
 10
365.120000
 20
73.920000
 30
0.0
 10
367.120000
 20
78.240000
 30
0.0
 10
369.760000
 20
80.400000
 30
0.0
 10
373.040000
 20
80.400000
 30
0.0
  0
SPLINE
  5
345
100
AcDbEntity
  8
0
 62
7
100
AcDbSpline
 70
8
 71
3
 72
8
 73
4
 74
0
 40
0
 40
0
 40
0
 40
0
 40
1
 40
1
 40
1
 40
1
 10
373.040000
 20
80.400000
 30
0.0
 10
375.200000
 20
80.400000
 30
0.0
 10
377.360000
 20
79.760000
 30
0.0
 10
379.520000
 20
78.400000
 30
0.0
  0
LINE
  5
346
100
AcDbEntity
  8
0
 62
7
100
AcDbLine
 10
379.520000
 20
78.400000
 30
0.0
 11
379.520000
 21
78.400000
 31
0.0
  0
ENDSEC
  0
SECTION
  2
OBJECTS
  0
DICTIONARY
  5
C
330
0
100
AcDbDictionary
  3
ACAD_GROUP
350
D
  3
ACAD_MLINESTYLE
350
17
  0
DICTIONARY
  5
D
330
C
100
AcDbDictionary
  0
DICTIONARY
  5
1A
330
C
100
AcDbDictionary
  0
DICTIONARY
  5
17
330
C
100
AcDbDictionary
  3
STANDARD
350
18
  0
DICTIONARY
  5
19
330
C
100
AcDbDictionary
  0
ENDSEC
  0
EOF
