  0
SECTION
  2
HEADER
  9
$ACADVER
  1
AC1014
  9
$HANDSEED
  5
FFFF
  9
$MEASUREMENT
 70
     1
  0
ENDSEC
  0
SECTION
  2
TABLES
  0
TABLE
  2
VPORT
  5
8
330
0
100
AcDbSymbolTable
 70
     4
  0
VPORT
  5
2E
330
8
100
AcDbSymbolTableRecord
100
AcDbViewportTableRecord
  2
*ACTIVE
 70
     0
 10
0.0
 20
0.0
 11
1.0
 21
1.0
 12
210.0
 22
148.5
 13
0.0
 23
0.0
 14
10.0
 24
10.0
 15
10.0
 25
10.0
 16
0.0
 26
0.0
 36
1.0
 17
0.0
 27
0.0
 37
0.0
 40
341.0
 41
1.24
 42
50.0
 43
0.0
 44
0.0
 50
0.0
 51
0.0
 71
     0
 72
   100
 73
     1
 74
     3
 75
     0
 76
     0
 77
     0
 78
     0
  0
ENDTAB
  0
TABLE
  2
LTYPE
  5
5
330
0
100
AcDbSymbolTable
 70
     1
  0
LTYPE
  5
14
330
5
100
AcDbSymbolTableRecord
100
AcDbLinetypeTableRecord
  2
BYBLOCK
 70
     0
  3

 72
    65
 73
     0
 40
0.0
  0
LTYPE
  5
15
330
5
100
AcDbSymbolTableRecord
100
AcDbLinetypeTableRecord
  2
BYLAYER
 70
     0
  3

 72
    65
 73
     0
 40
0.0
  0
LTYPE
  5
16
330
5
100
AcDbSymbolTableRecord
100
AcDbLinetypeTableRecord
  2
CONTINUOUS
 70
     0
  3
Solid line
 72
    65
 73
     0
 40
0.0
  0
ENDTAB
  0
TABLE
  2
LAYER
  5
2
100
AcDbSymbolTable
 70
1
  0
LAYER
  5
50
100
AcDbSymbolTableRecord
100
AcDbLayerTableRecord
  2
0
 70
0
  6
CONTINUOUS
  0
ENDTAB
  0
TABLE
  2
STYLE
  5
3
330
0
100
AcDbSymbolTable
 70
     1
  0
STYLE
  5
11
330
3
100
AcDbSymbolTableRecord
100
AcDbTextStyleTableRecord
  2
STANDARD
 70
     0
 40
0.0
 41
1.0
 50
0.0
 71
     0
 42
2.5
  3
txt
  4

  0
ENDTAB
  0
TABLE
  2
VIEW
  5
6
330
0
100
AcDbSymbolTable
 70
     0
  0
ENDTAB
  0
TABLE
  2
UCS
  5
7
330
0
100
AcDbSymbolTable
 70
     0
  0
ENDTAB
  0
TABLE
  2
APPID
  5
9
330
0
100
AcDbSymbolTable
 70
     2
  0
APPID
  5
12
330
9
100
AcDbSymbolTableRecord
100
AcDbRegAppTableRecord
  2
ACAD
 70
     0
  0
ENDTAB
  0
TABLE
  2
DIMSTYLE
  5
A
330
0
100
AcDbSymbolTable
 70
     1
  0
DIMSTYLE
105
27
330
A
100
AcDbSymbolTableRecord
100
AcDbDimStyleTableRecord
  2
ISO-25
 70
     0
  3

  4

  5

  6

  7

 40
1.0
 41
2.5
 42
0.625
 43
3.75
 44
1.25
 45
0.0
 46
0.0
 47
0.0
 48
0.0
140
2.5
141
2.5
142
0.0
143
0.03937007874016
144
1.0
145
0.0
146
1.0
147
0.625
 71
     0
 72
     0
 73
     0
 74
     0
 75
     0
 76
     0
 77
     1
 78
     8
170
     0
171
     3
172
     1
173
     0
174
     0
175
     0
176
     0
177
     0
178
     0
270
     2
271
     2
272
     2
273
     2
274
     3
340
11
275
     0
280
     0
281
     0
282
     0
283
     0
284
     8
285
     0
286
     0
287
     3
288
     0
  0
ENDTAB
  0
TABLE
  2
BLOCK_RECORD
  5
1
330
0
100
AcDbSymbolTable
 70
     1
  0
BLOCK_RECORD
  5
1F
330
1
100
AcDbSymbolTableRecord
100
AcDbBlockTableRecord
  2
*MODEL_SPACE
  0
BLOCK_RECORD
  5
1B
330
1
100
AcDbSymbolTableRecord
100
AcDbBlockTableRecord
  2
*PAPER_SPACE
  0
ENDTAB
  0
ENDSEC
  0
SECTION
  2
BLOCKS
  0
BLOCK
  5
20
330
1F
100
AcDbEntity
  8
0
100
AcDbBlockBegin
  2
*MODEL_SPACE
 70
     0
 10
0.0
 20
0.0
 30
0.0
  3
*MODEL_SPACE
  1

  0
ENDBLK
  5
21
330
1F
100
AcDbEntity
  8
0
100
AcDbBlockEnd
  0
BLOCK
  5
1C
330
1B
100
AcDbEntity
 67
     1
  8
0
100
AcDbBlockBegin
  2
*PAPER_SPACE
  1

  0
ENDBLK
  5
1D
330
1B
100
AcDbEntity
 67
     1
  8
0
100
AcDbBlockEnd
  0
ENDSEC
  0
SECTION
  2
ENTITIES
  0
SPLINE
  5
100
100
AcDbEntity
  8
0
 62
7
100
AcDbSpline
 70
8
 71
3
 72
8
 73
4
 74
0
 40
0
 40
0
 40
0
 40
0
 40
1
 40
1
 40
1
 40
1
 10
333.120000
 20
156.640000
 30
0.0
 10
332.240000
 20
170.400000
 30
0.0
 10
331.120000
 20
226.240000
 30
0.0
 10
329.520000
 20
325.280000
 30
0.0
  0
SPLINE
  5
101
100
AcDbEntity
  8
0
 62
7
100
AcDbSpline
 70
8
 71
3
 72
8
 73
4
 74
0
 40
0
 40
0
 40
0
 40
0
 40
1
 40
1
 40
1
 40
1
 10
329.520000
 20
325.280000
 30
0.0
 10
328.000000
 20
419.440000
 30
0.0
 10
329.280000
 20
498.880000
 30
0.0
 10
332.960000
 20
535.440000
 30
0.0
  0
SPLINE
  5
102
100
AcDbEntity
  8
0
 62
7
100
AcDbSpline
 70
8
 71
3
 72
8
 73
4
 74
0
 40
0
 40
0
 40
0
 40
0
 40
1
 40
1
 40
1
 40
1
 10
332.960000
 20
535.440000
 30
0.0
 10
334.560000
 20
552.320000
 30
0.0
 10
337.760000
 20
579.760000
 30
0.0
 10
338.480000
 20
582.880000
 30
0.0
  0
SPLINE
  5
103
100
AcDbEntity
  8
0
 62
7
100
AcDbSpline
 70
8
 71
3
 72
8
 73
4
 74
0
 40
0
 40
0
 40
0
 40
0
 40
1
 40
1
 40
1
 40
1
 10
338.480000
 20
582.880000
 30
0.0
 10
340.000000
 20
590.160000
 30
0.0
 10
342.880000
 20
613.520000
 30
0.0
 10
343.040000
 20
620.800000
 30
0.0
  0
SPLINE
  5
104
100
AcDbEntity
  8
0
 62
7
100
AcDbSpline
 70
8
 71
3
 72
8
 73
4
 74
0
 40
0
 40
0
 40
0
 40
0
 40
1
 40
1
 40
1
 40
1
 10
343.040000
 20
620.800000
 30
0.0
 10
343.280000
 20
629.200000
 30
0.0
 10
343.360000
 20
629.600000
 30
0.0
 10
346.720000
 20
633.920000
 30
0.0
  0
SPLINE
  5
105
100
AcDbEntity
  8
0
 62
7
100
AcDbSpline
 70
8
 71
3
 72
8
 73
4
 74
0
 40
0
 40
0
 40
0
 40
0
 40
1
 40
1
 40
1
 40
1
 10
346.720000
 20
633.920000
 30
0.0
 10
348.560000
 20
636.400000
 30
0.0
 10
351.600000
 20
641.840000
 30
0.0
 10
353.520000
 20
646.080000
 30
0.0
  0
SPLINE
  5
106
100
AcDbEntity
  8
0
 62
7
100
AcDbSpline
 70
8
 71
3
 72
8
 73
4
 74
0
 40
0
 40
0
 40
0
 40
0
 40
1
 40
1
 40
1
 40
1
 10
353.520000
 20
646.080000
 30
0.0
 10
356.400000
 20
652.480000
 30
0.0
 10
357.040000
 20
654.880000
 30
0.0
 10
357.360000
 20
661.520000
 30
0.0
  0
LINE
  5
107
100
AcDbEntity
  8
0
 62
7
100
AcDbLine
 10
357.360000
 20
661.520000
 30
0.0
 11
357.760000
 21
669.360000
 31
0.0
  0
LINE
  5
108
100
AcDbEntity
  8
0
 62
7
100
AcDbLine
 10
357.760000
 20
669.360000
 30
0.0
 11
351.600000
 21
674.800000
 31
0.0
  0
SPLINE
  5
109
100
AcDbEntity
  8
0
 62
7
100
AcDbSpline
 70
8
 71
3
 72
8
 73
4
 74
0
 40
0
 40
0
 40
0
 40
0
 40
1
 40
1
 40
1
 40
1
 10
351.600000
 20
674.800000
 30
0.0
 10
344.720000
 20
680.800000
 30
0.0
 10
331.760000
 20
690.320000
 30
0.0
 10
326.400000
 20
693.200000
 30
0.0
  0
SPLINE
  5
10a
100
AcDbEntity
  8
0
 62
7
100
AcDbSpline
 70
8
 71
3
 72
8
 73
4
 74
0
 40
0
 40
0
 40
0
 40
0
 40
1
 40
1
 40
1
 40
1
 10
326.400000
 20
693.200000
 30
0.0
 10
323.520000
 20
694.720000
 30
0.0
 10
322.640000
 20
694.880000
 30
0.0
 10
320.560000
 20
694.000000
 30
0.0
  0
SPLINE
  5
10b
100
AcDbEntity
  8
0
 62
7
100
AcDbSpline
 70
8
 71
3
 72
8
 73
4
 74
0
 40
0
 40
0
 40
0
 40
0
 40
1
 40
1
 40
1
 40
1
 10
320.560000
 20
694.000000
 30
0.0
 10
318.560000
 20
693.120000
 30
0.0
 10
318.240000
 20
692.640000
 30
0.0
 10
318.720000
 20
690.160000
 30
0.0
  0
SPLINE
  5
10c
100
AcDbEntity
  8
0
 62
7
100
AcDbSpline
 70
8
 71
3
 72
8
 73
4
 74
0
 40
0
 40
0
 40
0
 40
0
 40
1
 40
1
 40
1
 40
1
 10
318.720000
 20
690.160000
 30
0.0
 10
318.960000
 20
688.640000
 30
0.0
 10
320.960000
 20
684.560000
 30
0.0
 10
323.120000
 20
681.120000
 30
0.0
  0
SPLINE
  5
10d
100
AcDbEntity
  8
0
 62
7
100
AcDbSpline
 70
8
 71
3
 72
8
 73
4
 74
0
 40
0
 40
0
 40
0
 40
0
 40
1
 40
1
 40
1
 40
1
 10
323.120000
 20
681.120000
 30
0.0
 10
325.360000
 20
677.680000
 30
0.0
 10
328.080000
 20
673.200000
 30
0.0
 10
329.360000
 20
671.280000
 30
0.0
  0
LINE
  5
10e
100
AcDbEntity
  8
0
 62
7
100
AcDbLine
 10
329.360000
 20
671.280000
 30
0.0
 11
331.600000
 21
667.680000
 31
0.0
  0
LINE
  5
10f
100
AcDbEntity
  8
0
 62
7
100
AcDbLine
 10
331.600000
 20
667.680000
 30
0.0
 11
330.080000
 21
660.240000
 31
0.0
  0
SPLINE
  5
110
100
AcDbEntity
  8
0
 62
7
100
AcDbSpline
 70
8
 71
3
 72
8
 73
4
 74
0
 40
0
 40
0
 40
0
 40
0
 40
1
 40
1
 40
1
 40
1
 10
330.080000
 20
660.240000
 30
0.0
 10
327.840000
 20
649.680000
 30
0.0
 10
321.920000
 20
627.440000
 30
0.0
 10
318.000000
 20
614.640000
 30
0.0
  0
SPLINE
  5
111
100
AcDbEntity
  8
0
 62
7
100
AcDbSpline
 70
8
 71
3
 72
8
 73
4
 74
0
 40
0
 40
0
 40
0
 40
0
 40
1
 40
1
 40
1
 40
1
 10
318.000000
 20
614.640000
 30
0.0
 10
312.960000
 20
598.240000
 30
0.0
 10
305.200000
 20
576.160000
 30
0.0
 10
304.400000
 20
576.160000
 30
0.0
  0
SPLINE
  5
112
100
AcDbEntity
  8
0
 62
7
100
AcDbSpline
 70
8
 71
3
 72
8
 73
4
 74
0
 40
0
 40
0
 40
0
 40
0
 40
1
 40
1
 40
1
 40
1
 10
304.400000
 20
576.160000
 30
0.0
 10
304.080000
 20
576.160000
 30
0.0
 10
303.520000
 20
578.240000
 30
0.0
 10
303.280000
 20
580.800000
 30
0.0
  0
SPLINE
  5
113
100
AcDbEntity
  8
0
 62
7
100
AcDbSpline
 70
8
 71
3
 72
8
 73
4
 74
0
 40
0
 40
0
 40
0
 40
0
 40
1
 40
1
 40
1
 40
1
 10
303.280000
 20
580.800000
 30
0.0
 10
302.960000
 20
583.280000
 30
0.0
 10
302.480000
 20
585.760000
 30
0.0
 10
302.160000
 20
586.240000
 30
0.0
  0
SPLINE
  5
114
100
AcDbEntity
  8
0
 62
7
100
AcDbSpline
 70
8
 71
3
 72
8
 73
4
 74
0
 40
0
 40
0
 40
0
 40
0
 40
1
 40
1
 40
1
 40
1
 10
302.160000
 20
586.240000
 30
0.0
 10
301.840000
 20
586.720000
 30
0.0
 10
298.240000
 20
587.120000
 30
0.0
 10
294.240000
 20
587.120000
 30
0.0
  0
SPLINE
  5
115
100
AcDbEntity
  8
0
 62
7
100
AcDbSpline
 70
8
 71
3
 72
8
 73
4
 74
0
 40
0
 40
0
 40
0
 40
0
 40
1
 40
1
 40
1
 40
1
 10
294.240000
 20
587.120000
 30
0.0
 10
286.320000
 20
587.120000
 30
0.0
 10
285.920000
 20
586.880000
 30
0.0
 10
285.760000
 20
581.760000
 30
0.0
  0
SPLINE
  5
116
100
AcDbEntity
  8
0
 62
7
100
AcDbSpline
 70
8
 71
3
 72
8
 73
4
 74
0
 40
0
 40
0
 40
0
 40
0
 40
1
 40
1
 40
1
 40
1
 10
285.760000
 20
581.760000
 30
0.0
 10
285.760000
 20
580.320000
 30
0.0
 10
285.360000
 20
578.320000
 30
0.0
 10
284.960000
 20
577.360000
 30
0.0
  0
SPLINE
  5
117
100
AcDbEntity
  8
0
 62
7
100
AcDbSpline
 70
8
 71
3
 72
8
 73
4
 74
0
 40
0
 40
0
 40
0
 40
0
 40
1
 40
1
 40
1
 40
1
 10
284.960000
 20
577.360000
 30
0.0
 10
282.800000
 20
572.400000
 30
0.0
 10
259.120000
 20
652.160000
 30
0.0
 10
258.560000
 20
666.240000
 30
0.0
  0
SPLINE
  5
118
100
AcDbEntity
  8
0
 62
7
100
AcDbSpline
 70
8
 71
3
 72
8
 73
4
 74
0
 40
0
 40
0
 40
0
 40
0
 40
1
 40
1
 40
1
 40
1
 10
258.560000
 20
666.240000
 30
0.0
 10
258.400000
 20
668.960000
 30
0.0
 10
259.040000
 20
670.640000
 30
0.0
 10
261.280000
 20
673.600000
 30
0.0
  0
SPLINE
  5
119
100
AcDbEntity
  8
0
 62
7
100
AcDbSpline
 70
8
 71
3
 72
8
 73
4
 74
0
 40
0
 40
0
 40
0
 40
0
 40
1
 40
1
 40
1
 40
1
 10
261.280000
 20
673.600000
 30
0.0
 10
265.280000
 20
678.880000
 30
0.0
 10
270.960000
 20
689.280000
 30
0.0
 10
270.960000
 20
691.360000
 30
0.0
  0
SPLINE
  5
11a
100
AcDbEntity
  8
0
 62
7
100
AcDbSpline
 70
8
 71
3
 72
8
 73
4
 74
0
 40
0
 40
0
 40
0
 40
0
 40
1
 40
1
 40
1
 40
1
 10
270.960000
 20
691.360000
 30
0.0
 10
270.960000
 20
692.400000
 30
0.0
 10
270.000000
 20
693.520000
 30
0.0
 10
268.640000
 20
694.080000
 30
0.0
  0
SPLINE
  5
11b
100
AcDbEntity
  8
0
 62
7
100
AcDbSpline
 70
8
 71
3
 72
8
 73
4
 74
0
 40
0
 40
0
 40
0
 40
0
 40
1
 40
1
 40
1
 40
1
 10
268.640000
 20
694.080000
 30
0.0
 10
265.680000
 20
695.280000
 30
0.0
 10
261.680000
 20
693.200000
 30
0.0
 10
248.560000
 20
683.520000
 30
0.0
  0
SPLINE
  5
11c
100
AcDbEntity
  8
0
 62
7
100
AcDbSpline
 70
8
 71
3
 72
8
 73
4
 74
0
 40
0
 40
0
 40
0
 40
0
 40
1
 40
1
 40
1
 40
1
 10
248.560000
 20
683.520000
 30
0.0
 10
231.120000
 20
670.800000
 30
0.0
 10
229.680000
 20
668.320000
 30
0.0
 10
232.240000
 20
656.400000
 30
0.0
  0
SPLINE
  5
11d
100
AcDbEntity
  8
0
 62
7
100
AcDbSpline
 70
8
 71
3
 72
8
 73
4
 74
0
 40
0
 40
0
 40
0
 40
0
 40
1
 40
1
 40
1
 40
1
 10
232.240000
 20
656.400000
 30
0.0
 10
233.520000
 20
650.160000
 30
0.0
 10
239.120000
 20
638.320000
 30
0.0
 10
244.000000
 20
631.440000
 30
0.0
  0
SPLINE
  5
11e
100
AcDbEntity
  8
0
 62
7
100
AcDbSpline
 70
8
 71
3
 72
8
 73
4
 74
0
 40
0
 40
0
 40
0
 40
0
 40
1
 40
1
 40
1
 40
1
 10
244.000000
 20
631.440000
 30
0.0
 10
245.520000
 20
629.280000
 30
0.0
 10
246.000000
 20
627.040000
 30
0.0
 10
246.240000
 20
619.600000
 30
0.0
  0
SPLINE
  5
11f
100
AcDbEntity
  8
0
 62
7
100
AcDbSpline
 70
8
 71
3
 72
8
 73
4
 74
0
 40
0
 40
0
 40
0
 40
0
 40
1
 40
1
 40
1
 40
1
 10
246.240000
 20
619.600000
 30
0.0
 10
246.480000
 20
614.560000
 30
0.0
 10
247.280000
 20
606.480000
 30
0.0
 10
248.000000
 20
601.520000
 30
0.0
  0
SPLINE
  5
120
100
AcDbEntity
  8
0
 62
7
100
AcDbSpline
 70
8
 71
3
 72
8
 73
4
 74
0
 40
0
 40
0
 40
0
 40
0
 40
1
 40
1
 40
1
 40
1
 10
248.000000
 20
601.520000
 30
0.0
 10
254.640000
 20
559.760000
 30
0.0
 10
257.440000
 20
529.280000
 30
0.0
 10
258.960000
 20
482.880000
 30
0.0
  0
SPLINE
  5
121
100
AcDbEntity
  8
0
 62
7
100
AcDbSpline
 70
8
 71
3
 72
8
 73
4
 74
0
 40
0
 40
0
 40
0
 40
0
 40
1
 40
1
 40
1
 40
1
 10
258.960000
 20
482.880000
 30
0.0
 10
260.720000
 20
427.760000
 30
0.0
 10
258.960000
 20
231.360000
 30
0.0
 10
256.080000
 20
162.560000
 30
0.0
  0
LINE
  5
122
100
AcDbEntity
  8
0
 62
7
100
AcDbLine
 10
256.080000
 20
162.560000
 30
0.0
 11
255.360000
 21
145.200000
 31
0.0
  0
LINE
  5
123
100
AcDbEntity
  8
0
 62
7
100
AcDbLine
 10
255.360000
 20
145.200000
 30
0.0
 11
255.200000
 21
158.720000
 31
0.0
  0
SPLINE
  5
124
100
AcDbEntity
  8
0
 62
7
100
AcDbSpline
 70
8
 71
3
 72
8
 73
4
 74
0
 40
0
 40
0
 40
0
 40
0
 40
1
 40
1
 40
1
 40
1
 10
255.200000
 20
158.720000
 30
0.0
 10
252.560000
 20
394.000000
 30
0.0
 10
248.640000
 20
514.640000
 30
0.0
 10
242.480000
 20
557.520000
 30
0.0
  0
SPLINE
  5
125
100
AcDbEntity
  8
0
 62
7
100
AcDbSpline
 70
8
 71
3
 72
8
 73
4
 74
0
 40
0
 40
0
 40
0
 40
0
 40
1
 40
1
 40
1
 40
1
 10
242.480000
 20
557.520000
 30
0.0
 10
240.080000
 20
573.520000
 30
0.0
 10
235.760000
 20
593.360000
 30
0.0
 10
231.360000
 20
608.320000
 30
0.0
  0
SPLINE
  5
126
100
AcDbEntity
  8
0
 62
7
100
AcDbSpline
 70
8
 71
3
 72
8
 73
4
 74
0
 40
0
 40
0
 40
0
 40
0
 40
1
 40
1
 40
1
 40
1
 10
231.360000
 20
608.320000
 30
0.0
 10
230.560000
 20
610.880000
 30
0.0
 10
226.240000
 20
625.600000
 30
0.0
 10
221.680000
 20
640.960000
 30
0.0
  0
LINE
  5
127
100
AcDbEntity
  8
0
 62
7
100
AcDbLine
 10
221.680000
 20
640.960000
 30
0.0
 11
213.360000
 21
668.960000
 31
0.0
  0
LINE
  5
128
100
AcDbEntity
  8
0
 62
7
100
AcDbLine
 10
213.360000
 20
668.960000
 30
0.0
 11
217.120000
 21
676.320000
 31
0.0
  0
SPLINE
  5
129
100
AcDbEntity
  8
0
 62
7
100
AcDbSpline
 70
8
 71
3
 72
8
 73
4
 74
0
 40
0
 40
0
 40
0
 40
0
 40
1
 40
1
 40
1
 40
1
 10
217.120000
 20
676.320000
 30
0.0
 10
220.480000
 20
682.960000
 30
0.0
 10
221.200000
 20
683.760000
 30
0.0
 10
224.240000
 20
684.720000
 30
0.0
  0
SPLINE
  5
12a
100
AcDbEntity
  8
0
 62
7
100
AcDbSpline
 70
8
 71
3
 72
8
 73
4
 74
0
 40
0
 40
0
 40
0
 40
0
 40
1
 40
1
 40
1
 40
1
 10
224.240000
 20
684.720000
 30
0.0
 10
237.360000
 20
688.560000
 30
0.0
 10
263.200000
 20
704.480000
 30
0.0
 10
261.200000
 20
707.360000
 30
0.0
  0
SPLINE
  5
12b
100
AcDbEntity
  8
0
 62
7
100
AcDbSpline
 70
8
 71
3
 72
8
 73
4
 74
0
 40
0
 40
0
 40
0
 40
0
 40
1
 40
1
 40
1
 40
1
 10
261.200000
 20
707.360000
 30
0.0
 10
260.080000
 20
709.040000
 30
0.0
 10
253.680000
 20
709.440000
 30
0.0
 10
244.560000
 20
708.400000
 30
0.0
  0
SPLINE
  5
12c
100
AcDbEntity
  8
0
 62
7
100
AcDbSpline
 70
8
 71
3
 72
8
 73
4
 74
0
 40
0
 40
0
 40
0
 40
0
 40
1
 40
1
 40
1
 40
1
 10
244.560000
 20
708.400000
 30
0.0
 10
232.400000
 20
707.040000
 30
0.0
 10
220.880000
 20
703.920000
 30
0.0
 10
212.320000
 20
699.760000
 30
0.0
  0
SPLINE
  5
12d
100
AcDbEntity
  8
0
 62
7
100
AcDbSpline
 70
8
 71
3
 72
8
 73
4
 74
0
 40
0
 40
0
 40
0
 40
0
 40
1
 40
1
 40
1
 40
1
 10
212.320000
 20
699.760000
 30
0.0
 10
203.440000
 20
695.360000
 30
0.0
 10
180.160000
 20
680.720000
 30
0.0
 10
167.520000
 20
671.600000
 30
0.0
  0
SPLINE
  5
12e
100
AcDbEntity
  8
0
 62
7
100
AcDbSpline
 70
8
 71
3
 72
8
 73
4
 74
0
 40
0
 40
0
 40
0
 40
0
 40
1
 40
1
 40
1
 40
1
 10
167.520000
 20
671.600000
 30
0.0
 10
156.720000
 20
663.680000
 30
0.0
 10
153.760000
 20
660.160000
 30
0.0
 10
155.280000
 20
656.480000
 30
0.0
  0
SPLINE
  5
12f
100
AcDbEntity
  8
0
 62
7
100
AcDbSpline
 70
8
 71
3
 72
8
 73
4
 74
0
 40
0
 40
0
 40
0
 40
0
 40
1
 40
1
 40
1
 40
1
 10
155.280000
 20
656.480000
 30
0.0
 10
156.800000
 20
652.960000
 30
0.0
 10
161.680000
 20
648.480000
 30
0.0
 10
169.280000
 20
643.600000
 30
0.0
  0
SPLINE
  5
130
100
AcDbEntity
  8
0
 62
7
100
AcDbSpline
 70
8
 71
3
 72
8
 73
4
 74
0
 40
0
 40
0
 40
0
 40
0
 40
1
 40
1
 40
1
 40
1
 10
169.280000
 20
643.600000
 30
0.0
 10
178.480000
 20
637.760000
 30
0.0
 10
180.240000
 20
636.880000
 30
0.0
 10
184.800000
 20
636.320000
 30
0.0
  0
SPLINE
  5
131
100
AcDbEntity
  8
0
 62
7
100
AcDbSpline
 70
8
 71
3
 72
8
 73
4
 74
0
 40
0
 40
0
 40
0
 40
0
 40
1
 40
1
 40
1
 40
1
 10
184.800000
 20
636.320000
 30
0.0
 10
188.480000
 20
635.840000
 30
0.0
 10
188.480000
 20
635.840000
 30
0.0
 10
189.200000
 20
631.200000
 30
0.0
  0
SPLINE
  5
132
100
AcDbEntity
  8
0
 62
7
100
AcDbSpline
 70
8
 71
3
 72
8
 73
4
 74
0
 40
0
 40
0
 40
0
 40
0
 40
1
 40
1
 40
1
 40
1
 10
189.200000
 20
631.200000
 30
0.0
 10
189.600000
 20
628.640000
 30
0.0
 10
190.960000
 20
621.600000
 30
0.0
 10
192.160000
 20
615.520000
 30
0.0
  0
SPLINE
  5
133
100
AcDbEntity
  8
0
 62
7
100
AcDbSpline
 70
8
 71
3
 72
8
 73
4
 74
0
 40
0
 40
0
 40
0
 40
0
 40
1
 40
1
 40
1
 40
1
 10
192.160000
 20
615.520000
 30
0.0
 10
198.480000
 20
584.960000
 30
0.0
 10
201.920000
 20
554.800000
 30
0.0
 10
203.840000
 20
512.160000
 30
0.0
  0
SPLINE
  5
134
100
AcDbEntity
  8
0
 62
7
100
AcDbSpline
 70
8
 71
3
 72
8
 73
4
 74
0
 40
0
 40
0
 40
0
 40
0
 40
1
 40
1
 40
1
 40
1
 10
203.840000
 20
512.160000
 30
0.0
 10
205.760000
 20
470.800000
 30
0.0
 10
204.560000
 20
351.120000
 30
0.0
 10
202.160000
 20
341.360000
 30
0.0
  0
SPLINE
  5
135
100
AcDbEntity
  8
0
 62
7
100
AcDbSpline
 70
8
 71
3
 72
8
 73
4
 74
0
 40
0
 40
0
 40
0
 40
0
 40
1
 40
1
 40
1
 40
1
 10
202.160000
 20
341.360000
 30
0.0
 10
201.760000
 20
339.680000
 30
0.0
 10
201.120000
 20
357.760000
 30
0.0
 10
200.800000
 20
382.480000
 30
0.0
  0
SPLINE
  5
136
100
AcDbEntity
  8
0
 62
7
100
AcDbSpline
 70
8
 71
3
 72
8
 73
4
 74
0
 40
0
 40
0
 40
0
 40
0
 40
1
 40
1
 40
1
 40
1
 10
200.800000
 20
382.480000
 30
0.0
 10
199.440000
 20
489.360000
 30
0.0
 10
190.160000
 20
568.000000
 30
0.0
 10
174.000000
 20
609.680000
 30
0.0
  0
SPLINE
  5
137
100
AcDbEntity
  8
0
 62
7
100
AcDbSpline
 70
8
 71
3
 72
8
 73
4
 74
0
 40
0
 40
0
 40
0
 40
0
 40
1
 40
1
 40
1
 40
1
 10
174.000000
 20
609.680000
 30
0.0
 10
170.400000
 20
618.880000
 30
0.0
 10
166.640000
 20
624.560000
 30
0.0
 10
159.280000
 20
632.000000
 30
0.0
  0
SPLINE
  5
138
100
AcDbEntity
  8
0
 62
7
100
AcDbSpline
 70
8
 71
3
 72
8
 73
4
 74
0
 40
0
 40
0
 40
0
 40
0
 40
1
 40
1
 40
1
 40
1
 10
159.280000
 20
632.000000
 30
0.0
 10
152.320000
 20
638.960000
 30
0.0
 10
135.440000
 20
652.880000
 30
0.0
 10
132.160000
 20
654.400000
 30
0.0
  0
SPLINE
  5
139
100
AcDbEntity
  8
0
 62
7
100
AcDbSpline
 70
8
 71
3
 72
8
 73
4
 74
0
 40
0
 40
0
 40
0
 40
0
 40
1
 40
1
 40
1
 40
1
 10
132.160000
 20
654.400000
 30
0.0
 10
129.360000
 20
655.600000
 30
0.0
 10
128.800000
 20
658.320000
 30
0.0
 10
130.400000
 20
662.000000
 30
0.0
  0
SPLINE
  5
13a
100
AcDbEntity
  8
0
 62
7
100
AcDbSpline
 70
8
 71
3
 72
8
 73
4
 74
0
 40
0
 40
0
 40
0
 40
0
 40
1
 40
1
 40
1
 40
1
 10
130.400000
 20
662.000000
 30
0.0
 10
131.840000
 20
665.280000
 30
0.0
 10
141.360000
 20
676.960000
 30
0.0
 10
142.560000
 20
676.960000
 30
0.0
  0
SPLINE
  5
13b
100
AcDbEntity
  8
0
 62
7
100
AcDbSpline
 70
8
 71
3
 72
8
 73
4
 74
0
 40
0
 40
0
 40
0
 40
0
 40
1
 40
1
 40
1
 40
1
 10
142.560000
 20
676.960000
 30
0.0
 10
143.040000
 20
676.960000
 30
0.0
 10
144.560000
 20
677.680000
 30
0.0
 10
145.920000
 20
678.560000
 30
0.0
  0
SPLINE
  5
13c
100
AcDbEntity
  8
0
 62
7
100
AcDbSpline
 70
8
 71
3
 72
8
 73
4
 74
0
 40
0
 40
0
 40
0
 40
0
 40
1
 40
1
 40
1
 40
1
 10
145.920000
 20
678.560000
 30
0.0
 10
148.000000
 20
679.920000
 30
0.0
 10
164.160000
 20
688.800000
 30
0.0
 10
207.200000
 20
712.240000
 30
0.0
  0
SPLINE
  5
13d
100
AcDbEntity
  8
0
 62
7
100
AcDbSpline
 70
8
 71
3
 72
8
 73
4
 74
0
 40
0
 40
0
 40
0
 40
0
 40
1
 40
1
 40
1
 40
1
 10
207.200000
 20
712.240000
 30
0.0
 10
209.840000
 20
713.680000
 30
0.0
 10
212.640000
 20
714.080000
 30
0.0
 10
220.960000
 20
714.560000
 30
0.0
  0
SPLINE
  5
13e
100
AcDbEntity
  8
0
 62
7
100
AcDbSpline
 70
8
 71
3
 72
8
 73
4
 74
0
 40
0
 40
0
 40
0
 40
0
 40
1
 40
1
 40
1
 40
1
 10
220.960000
 20
714.560000
 30
0.0
 10
226.640000
 20
714.800000
 30
0.0
 10
234.480000
 20
715.600000
 30
0.0
 10
238.320000
 20
716.240000
 30
0.0
  0
SPLINE
  5
13f
100
AcDbEntity
  8
0
 62
7
100
AcDbSpline
 70
8
 71
3
 72
8
 73
4
 74
0
 40
0
 40
0
 40
0
 40
0
 40
1
 40
1
 40
1
 40
1
 10
238.320000
 20
716.240000
 30
0.0
 10
242.160000
 20
716.960000
 30
0.0
 10
248.160000
 20
717.760000
 30
0.0
 10
251.680000
 20
718.080000
 30
0.0
  0
SPLINE
  5
140
100
AcDbEntity
  8
0
 62
7
100
AcDbSpline
 70
8
 71
3
 72
8
 73
4
 74
0
 40
0
 40
0
 40
0
 40
0
 40
1
 40
1
 40
1
 40
1
 10
251.680000
 20
718.080000
 30
0.0
 10
258.000000
 20
718.640000
 30
0.0
 10
260.320000
 20
720.080000
 30
0.0
 10
258.160000
 20
722.000000
 30
0.0
  0
SPLINE
  5
141
100
AcDbEntity
  8
0
 62
7
100
AcDbSpline
 70
8
 71
3
 72
8
 73
4
 74
0
 40
0
 40
0
 40
0
 40
0
 40
1
 40
1
 40
1
 40
1
 10
258.160000
 20
722.000000
 30
0.0
 10
255.120000
 20
724.720000
 30
0.0
 10
229.440000
 20
727.360000
 30
0.0
 10
211.840000
 20
726.720000
 30
0.0
  0
SPLINE
  5
142
100
AcDbEntity
  8
0
 62
7
100
AcDbSpline
 70
8
 71
3
 72
8
 73
4
 74
0
 40
0
 40
0
 40
0
 40
0
 40
1
 40
1
 40
1
 40
1
 10
211.840000
 20
726.720000
 30
0.0
 10
201.520000
 20
726.400000
 30
0.0
 10
198.720000
 20
726.000000
 30
0.0
 10
193.200000
 20
724.000000
 30
0.0
  0
SPLINE
  5
143
100
AcDbEntity
  8
0
 62
7
100
AcDbSpline
 70
8
 71
3
 72
8
 73
4
 74
0
 40
0
 40
0
 40
0
 40
0
 40
1
 40
1
 40
1
 40
1
 10
193.200000
 20
724.000000
 30
0.0
 10
189.600000
 20
722.720000
 30
0.0
 10
184.560000
 20
721.120000
 30
0.0
 10
182.000000
 20
720.480000
 30
0.0
  0
SPLINE
  5
144
100
AcDbEntity
  8
0
 62
7
100
AcDbSpline
 70
8
 71
3
 72
8
 73
4
 74
0
 40
0
 40
0
 40
0
 40
0
 40
1
 40
1
 40
1
 40
1
 10
182.000000
 20
720.480000
 30
0.0
 10
179.440000
 20
719.760000
 30
0.0
 10
175.440000
 20
718.080000
 30
0.0
 10
173.040000
 20
716.720000
 30
0.0
  0
SPLINE
  5
145
100
AcDbEntity
  8
0
 62
7
100
AcDbSpline
 70
8
 71
3
 72
8
 73
4
 74
0
 40
0
 40
0
 40
0
 40
0
 40
1
 40
1
 40
1
 40
1
 10
173.040000
 20
716.720000
 30
0.0
 10
167.760000
 20
713.680000
 30
0.0
 10
165.440000
 20
713.600000
 30
0.0
 10
163.040000
 20
716.560000
 30
0.0
  0
SPLINE
  5
146
100
AcDbEntity
  8
0
 62
7
100
AcDbSpline
 70
8
 71
3
 72
8
 73
4
 74
0
 40
0
 40
0
 40
0
 40
0
 40
1
 40
1
 40
1
 40
1
 10
163.040000
 20
716.560000
 30
0.0
 10
162.080000
 20
717.840000
 30
0.0
 10
158.800000
 20
720.000000
 30
0.0
 10
155.760000
 20
721.440000
 30
0.0
  0
SPLINE
  5
147
100
AcDbEntity
  8
0
 62
7
100
AcDbSpline
 70
8
 71
3
 72
8
 73
4
 74
0
 40
0
 40
0
 40
0
 40
0
 40
1
 40
1
 40
1
 40
1
 10
155.760000
 20
721.440000
 30
0.0
 10
150.320000
 20
724.000000
 30
0.0
 10
150.320000
 20
724.000000
 30
0.0
 10
150.000000
 20
728.240000
 30
0.0
  0
SPLINE
  5
148
100
AcDbEntity
  8
0
 62
7
100
AcDbSpline
 70
8
 71
3
 72
8
 73
4
 74
0
 40
0
 40
0
 40
0
 40
0
 40
1
 40
1
 40
1
 40
1
 10
150.000000
 20
728.240000
 30
0.0
 10
149.360000
 20
736.560000
 30
0.0
 10
153.280000
 20
762.720000
 30
0.0
 10
157.760000
 20
780.640000
 30
0.0
  0
SPLINE
  5
149
100
AcDbEntity
  8
0
 62
7
100
AcDbSpline
 70
8
 71
3
 72
8
 73
4
 74
0
 40
0
 40
0
 40
0
 40
0
 40
1
 40
1
 40
1
 40
1
 10
157.760000
 20
780.640000
 30
0.0
 10
161.680000
 20
796.480000
 30
0.0
 10
167.120000
 20
804.800000
 30
0.0
 10
178.160000
 20
811.840000
 30
0.0
  0
SPLINE
  5
14a
100
AcDbEntity
  8
0
 62
7
100
AcDbSpline
 70
8
 71
3
 72
8
 73
4
 74
0
 40
0
 40
0
 40
0
 40
0
 40
1
 40
1
 40
1
 40
1
 10
178.160000
 20
811.840000
 30
0.0
 10
185.920000
 20
816.800000
 30
0.0
 10
200.160000
 20
823.680000
 30
0.0
 10
200.160000
 20
822.400000
 30
0.0
  0
SPLINE
  5
14b
100
AcDbEntity
  8
0
 62
7
100
AcDbSpline
 70
8
 71
3
 72
8
 73
4
 74
0
 40
0
 40
0
 40
0
 40
0
 40
1
 40
1
 40
1
 40
1
 10
200.160000
 20
822.400000
 30
0.0
 10
200.160000
 20
822.240000
 30
0.0
 10
197.120000
 20
820.000000
 30
0.0
 10
193.360000
 20
817.440000
 30
0.0
  0
SPLINE
  5
14c
100
AcDbEntity
  8
0
 62
7
100
AcDbSpline
 70
8
 71
3
 72
8
 73
4
 74
0
 40
0
 40
0
 40
0
 40
0
 40
1
 40
1
 40
1
 40
1
 10
193.360000
 20
817.440000
 30
0.0
 10
177.520000
 20
806.560000
 30
0.0
 10
172.480000
 20
800.160000
 30
0.0
 10
168.480000
 20
785.840000
 30
0.0
  0
SPLINE
  5
14d
100
AcDbEntity
  8
0
 62
7
100
AcDbSpline
 70
8
 71
3
 72
8
 73
4
 74
0
 40
0
 40
0
 40
0
 40
0
 40
1
 40
1
 40
1
 40
1
 10
168.480000
 20
785.840000
 30
0.0
 10
166.160000
 20
777.520000
 30
0.0
 10
165.200000
 20
761.200000
 30
0.0
 10
166.080000
 20
745.360000
 30
0.0
  0
SPLINE
  5
14e
100
AcDbEntity
  8
0
 62
7
100
AcDbSpline
 70
8
 71
3
 72
8
 73
4
 74
0
 40
0
 40
0
 40
0
 40
0
 40
1
 40
1
 40
1
 40
1
 10
166.080000
 20
745.360000
 30
0.0
 10
167.040000
 20
730.160000
 30
0.0
 10
167.200000
 20
729.840000
 30
0.0
 10
176.880000
 20
731.600000
 30
0.0
  0
SPLINE
  5
14f
100
AcDbEntity
  8
0
 62
7
100
AcDbSpline
 70
8
 71
3
 72
8
 73
4
 74
0
 40
0
 40
0
 40
0
 40
0
 40
1
 40
1
 40
1
 40
1
 10
176.880000
 20
731.600000
 30
0.0
 10
186.320000
 20
733.280000
 30
0.0
 10
200.800000
 20
736.720000
 30
0.0
 10
205.040000
 20
738.400000
 30
0.0
  0
SPLINE
  5
150
100
AcDbEntity
  8
0
 62
7
100
AcDbSpline
 70
8
 71
3
 72
8
 73
4
 74
0
 40
0
 40
0
 40
0
 40
0
 40
1
 40
1
 40
1
 40
1
 10
205.040000
 20
738.400000
 30
0.0
 10
210.000000
 20
740.240000
 30
0.0
 10
213.120000
 20
740.080000
 30
0.0
 10
229.200000
 20
736.720000
 30
0.0
  0
SPLINE
  5
151
100
AcDbEntity
  8
0
 62
7
100
AcDbSpline
 70
8
 71
3
 72
8
 73
4
 74
0
 40
0
 40
0
 40
0
 40
0
 40
1
 40
1
 40
1
 40
1
 10
229.200000
 20
736.720000
 30
0.0
 10
254.080000
 20
731.440000
 30
0.0
 10
257.760000
 20
730.800000
 30
0.0
 10
258.560000
 20
731.520000
 30
0.0
  0
SPLINE
  5
152
100
AcDbEntity
  8
0
 62
7
100
AcDbSpline
 70
8
 71
3
 72
8
 73
4
 74
0
 40
0
 40
0
 40
0
 40
0
 40
1
 40
1
 40
1
 40
1
 10
258.560000
 20
731.520000
 30
0.0
 10
259.440000
 20
732.400000
 30
0.0
 10
255.040000
 20
735.920000
 30
0.0
 10
246.240000
 20
741.360000
 30
0.0
  0
SPLINE
  5
153
100
AcDbEntity
  8
0
 62
7
100
AcDbSpline
 70
8
 71
3
 72
8
 73
4
 74
0
 40
0
 40
0
 40
0
 40
0
 40
1
 40
1
 40
1
 40
1
 10
246.240000
 20
741.360000
 30
0.0
 10
235.920000
 20
747.680000
 30
0.0
 10
235.280000
 20
747.920000
 30
0.0
 10
219.920000
 20
749.040000
 30
0.0
  0
LINE
  5
154
100
AcDbEntity
  8
0
 62
7
100
AcDbLine
 10
219.920000
 20
749.040000
 30
0.0
 11
205.680000
 21
750.160000
 31
0.0
  0
LINE
  5
155
100
AcDbEntity
  8
0
 62
7
100
AcDbLine
 10
205.680000
 20
750.160000
 30
0.0
 11
204.640000
 21
753.440000
 31
0.0
  0
SPLINE
  5
156
100
AcDbEntity
  8
0
 62
7
100
AcDbSpline
 70
8
 71
3
 72
8
 73
4
 74
0
 40
0
 40
0
 40
0
 40
0
 40
1
 40
1
 40
1
 40
1
 10
204.640000
 20
753.440000
 30
0.0
 10
203.840000
 20
755.920000
 30
0.0
 10
203.840000
 20
757.360000
 30
0.0
 10
204.560000
 20
759.040000
 30
0.0
  0
SPLINE
  5
157
100
AcDbEntity
  8
0
 62
7
100
AcDbSpline
 70
8
 71
3
 72
8
 73
4
 74
0
 40
0
 40
0
 40
0
 40
0
 40
1
 40
1
 40
1
 40
1
 10
204.560000
 20
759.040000
 30
0.0
 10
205.120000
 20
760.320000
 30
0.0
 10
208.320000
 20
767.440000
 30
0.0
 10
211.680000
 20
775.040000
 30
0.0
  0
SPLINE
  5
158
100
AcDbEntity
  8
0
 62
7
100
AcDbSpline
 70
8
 71
3
 72
8
 73
4
 74
0
 40
0
 40
0
 40
0
 40
0
 40
1
 40
1
 40
1
 40
1
 10
211.680000
 20
775.040000
 30
0.0
 10
221.040000
 20
796.080000
 30
0.0
 10
222.400000
 20
798.240000
 30
0.0
 10
229.200000
 20
802.640000
 30
0.0
  0
SPLINE
  5
159
100
AcDbEntity
  8
0
 62
7
100
AcDbSpline
 70
8
 71
3
 72
8
 73
4
 74
0
 40
0
 40
0
 40
0
 40
0
 40
1
 40
1
 40
1
 40
1
 10
229.200000
 20
802.640000
 30
0.0
 10
235.760000
 20
806.880000
 30
0.0
 10
246.480000
 20
812.240000
 30
0.0
 10
247.200000
 20
811.600000
 30
0.0
  0
SPLINE
  5
15a
100
AcDbEntity
  8
0
 62
7
100
AcDbSpline
 70
8
 71
3
 72
8
 73
4
 74
0
 40
0
 40
0
 40
0
 40
0
 40
1
 40
1
 40
1
 40
1
 10
247.200000
 20
811.600000
 30
0.0
 10
247.440000
 20
811.360000
 30
0.0
 10
245.840000
 20
810.000000
 30
0.0
 10
243.680000
 20
808.560000
 30
0.0
  0
SPLINE
  5
15b
100
AcDbEntity
  8
0
 62
7
100
AcDbSpline
 70
8
 71
3
 72
8
 73
4
 74
0
 40
0
 40
0
 40
0
 40
0
 40
1
 40
1
 40
1
 40
1
 10
243.680000
 20
808.560000
 30
0.0
 10
241.440000
 20
807.120000
 30
0.0
 10
236.320000
 20
802.960000
 30
0.0
 10
232.160000
 20
799.280000
 30
0.0
  0
SPLINE
  5
15c
100
AcDbEntity
  8
0
 62
7
100
AcDbSpline
 70
8
 71
3
 72
8
 73
4
 74
0
 40
0
 40
0
 40
0
 40
0
 40
1
 40
1
 40
1
 40
1
 10
232.160000
 20
799.280000
 30
0.0
 10
224.960000
 20
792.880000
 30
0.0
 10
224.640000
 20
792.480000
 30
0.0
 10
222.720000
 20
785.840000
 30
0.0
  0
SPLINE
  5
15d
100
AcDbEntity
  8
0
 62
7
100
AcDbSpline
 70
8
 71
3
 72
8
 73
4
 74
0
 40
0
 40
0
 40
0
 40
0
 40
1
 40
1
 40
1
 40
1
 10
222.720000
 20
785.840000
 30
0.0
 10
218.960000
 20
772.960000
 30
0.0
 10
216.800000
 20
761.760000
 30
0.0
 10
217.760000
 20
760.160000
 30
0.0
  0
SPLINE
  5
15e
100
AcDbEntity
  8
0
 62
7
100
AcDbSpline
 70
8
 71
3
 72
8
 73
4
 74
0
 40
0
 40
0
 40
0
 40
0
 40
1
 40
1
 40
1
 40
1
 10
217.760000
 20
760.160000
 30
0.0
 10
218.880000
 20
758.320000
 30
0.0
 10
224.000000
 20
757.520000
 30
0.0
 10
234.160000
 20
757.520000
 30
0.0
  0
SPLINE
  5
15f
100
AcDbEntity
  8
0
 62
7
100
AcDbSpline
 70
8
 71
3
 72
8
 73
4
 74
0
 40
0
 40
0
 40
0
 40
0
 40
1
 40
1
 40
1
 40
1
 10
234.160000
 20
757.520000
 30
0.0
 10
240.400000
 20
757.520000
 30
0.0
 10
241.120000
 20
757.280000
 30
0.0
 10
243.200000
 20
755.120000
 30
0.0
  0
SPLINE
  5
160
100
AcDbEntity
  8
0
 62
7
100
AcDbSpline
 70
8
 71
3
 72
8
 73
4
 74
0
 40
0
 40
0
 40
0
 40
0
 40
1
 40
1
 40
1
 40
1
 10
243.200000
 20
755.120000
 30
0.0
 10
247.120000
 20
750.960000
 30
0.0
 10
264.960000
 20
738.800000
 30
0.0
 10
267.200000
 20
738.800000
 30
0.0
  0
SPLINE
  5
161
100
AcDbEntity
  8
0
 62
7
100
AcDbSpline
 70
8
 71
3
 72
8
 73
4
 74
0
 40
0
 40
0
 40
0
 40
0
 40
1
 40
1
 40
1
 40
1
 10
267.200000
 20
738.800000
 30
0.0
 10
267.840000
 20
738.800000
 30
0.0
 10
268.160000
 20
739.840000
 30
0.0
 10
268.000000
 20
741.200000
 30
0.0
  0
SPLINE
  5
162
100
AcDbEntity
  8
0
 62
7
100
AcDbSpline
 70
8
 71
3
 72
8
 73
4
 74
0
 40
0
 40
0
 40
0
 40
0
 40
1
 40
1
 40
1
 40
1
 10
268.000000
 20
741.200000
 30
0.0
 10
267.760000
 20
743.120000
 30
0.0
 10
268.640000
 20
744.320000
 30
0.0
 10
273.040000
 20
748.000000
 30
0.0
  0
SPLINE
  5
163
100
AcDbEntity
  8
0
 62
7
100
AcDbSpline
 70
8
 71
3
 72
8
 73
4
 74
0
 40
0
 40
0
 40
0
 40
0
 40
1
 40
1
 40
1
 40
1
 10
273.040000
 20
748.000000
 30
0.0
 10
276.000000
 20
750.400000
 30
0.0
 10
278.800000
 20
752.400000
 30
0.0
 10
279.280000
 20
752.400000
 30
0.0
  0
SPLINE
  5
164
100
AcDbEntity
  8
0
 62
7
100
AcDbSpline
 70
8
 71
3
 72
8
 73
4
 74
0
 40
0
 40
0
 40
0
 40
0
 40
1
 40
1
 40
1
 40
1
 10
279.280000
 20
752.400000
 30
0.0
 10
279.760000
 20
752.400000
 30
0.0
 10
278.640000
 20
750.240000
 30
0.0
 10
276.960000
 20
747.600000
 30
0.0
  0
SPLINE
  5
165
100
AcDbEntity
  8
0
 62
7
100
AcDbSpline
 70
8
 71
3
 72
8
 73
4
 74
0
 40
0
 40
0
 40
0
 40
0
 40
1
 40
1
 40
1
 40
1
 10
276.960000
 20
747.600000
 30
0.0
 10
273.200000
 20
741.920000
 30
0.0
 10
273.120000
 20
741.200000
 30
0.0
 10
275.680000
 20
737.920000
 30
0.0
  0
SPLINE
  5
166
100
AcDbEntity
  8
0
 62
7
100
AcDbSpline
 70
8
 71
3
 72
8
 73
4
 74
0
 40
0
 40
0
 40
0
 40
0
 40
1
 40
1
 40
1
 40
1
 10
275.680000
 20
737.920000
 30
0.0
 10
278.000000
 20
734.880000
 30
0.0
 10
279.840000
 20
734.800000
 30
0.0
 10
282.640000
 20
737.600000
 30
0.0
  0
SPLINE
  5
167
100
AcDbEntity
  8
0
 62
7
100
AcDbSpline
 70
8
 71
3
 72
8
 73
4
 74
0
 40
0
 40
0
 40
0
 40
0
 40
1
 40
1
 40
1
 40
1
 10
282.640000
 20
737.600000
 30
0.0
 10
285.440000
 20
740.320000
 30
0.0
 10
286.800000
 20
740.240000
 30
0.0
 10
290.000000
 20
737.120000
 30
0.0
  0
SPLINE
  5
168
100
AcDbEntity
  8
0
 62
7
100
AcDbSpline
 70
8
 71
3
 72
8
 73
4
 74
0
 40
0
 40
0
 40
0
 40
0
 40
1
 40
1
 40
1
 40
1
 10
290.000000
 20
737.120000
 30
0.0
 10
293.440000
 20
733.920000
 30
0.0
 10
295.360000
 20
733.920000
 30
0.0
 10
299.040000
 20
737.120000
 30
0.0
  0
SPLINE
  5
169
100
AcDbEntity
  8
0
 62
7
100
AcDbSpline
 70
8
 71
3
 72
8
 73
4
 74
0
 40
0
 40
0
 40
0
 40
0
 40
1
 40
1
 40
1
 40
1
 10
299.040000
 20
737.120000
 30
0.0
 10
302.560000
 20
740.240000
 30
0.0
 10
303.840000
 20
740.320000
 30
0.0
 10
306.880000
 20
737.600000
 30
0.0
  0
SPLINE
  5
16a
100
AcDbEntity
  8
0
 62
7
100
AcDbSpline
 70
8
 71
3
 72
8
 73
4
 74
0
 40
0
 40
0
 40
0
 40
0
 40
1
 40
1
 40
1
 40
1
 10
306.880000
 20
737.600000
 30
0.0
 10
309.920000
 20
734.800000
 30
0.0
 10
311.360000
 20
734.880000
 30
0.0
 10
313.840000
 20
738.000000
 30
0.0
  0
SPLINE
  5
16b
100
AcDbEntity
  8
0
 62
7
100
AcDbSpline
 70
8
 71
3
 72
8
 73
4
 74
0
 40
0
 40
0
 40
0
 40
0
 40
1
 40
1
 40
1
 40
1
 10
313.840000
 20
738.000000
 30
0.0
 10
316.240000
 20
741.200000
 30
0.0
 10
315.840000
 20
743.040000
 30
0.0
 10
311.520000
 20
748.880000
 30
0.0
  0
SPLINE
  5
16c
100
AcDbEntity
  8
0
 62
7
100
AcDbSpline
 70
8
 71
3
 72
8
 73
4
 74
0
 40
0
 40
0
 40
0
 40
0
 40
1
 40
1
 40
1
 40
1
 10
311.520000
 20
748.880000
 30
0.0
 10
307.760000
 20
754.000000
 30
0.0
 10
309.280000
 20
753.600000
 30
0.0
 10
316.800000
 20
747.520000
 30
0.0
  0
SPLINE
  5
16d
100
AcDbEntity
  8
0
 62
7
100
AcDbSpline
 70
8
 71
3
 72
8
 73
4
 74
0
 40
0
 40
0
 40
0
 40
0
 40
1
 40
1
 40
1
 40
1
 10
316.800000
 20
747.520000
 30
0.0
 10
320.880000
 20
744.320000
 30
0.0
 10
321.600000
 20
743.200000
 30
0.0
 10
321.360000
 20
741.200000
 30
0.0
  0
SPLINE
  5
16e
100
AcDbEntity
  8
0
 62
7
100
AcDbSpline
 70
8
 71
3
 72
8
 73
4
 74
0
 40
0
 40
0
 40
0
 40
0
 40
1
 40
1
 40
1
 40
1
 10
321.360000
 20
741.200000
 30
0.0
 10
321.120000
 20
739.280000
 30
0.0
 10
321.440000
 20
738.720000
 30
0.0
 10
322.560000
 20
738.960000
 30
0.0
  0
SPLINE
  5
16f
100
AcDbEntity
  8
0
 62
7
100
AcDbSpline
 70
8
 71
3
 72
8
 73
4
 74
0
 40
0
 40
0
 40
0
 40
0
 40
1
 40
1
 40
1
 40
1
 10
322.560000
 20
738.960000
 30
0.0
 10
325.120000
 20
739.440000
 30
0.0
 10
344.240000
 20
752.720000
 30
0.0
 10
345.840000
 20
755.040000
 30
0.0
  0
SPLINE
  5
170
100
AcDbEntity
  8
0
 62
7
100
AcDbSpline
 70
8
 71
3
 72
8
 73
4
 74
0
 40
0
 40
0
 40
0
 40
0
 40
1
 40
1
 40
1
 40
1
 10
345.840000
 20
755.040000
 30
0.0
 10
347.200000
 20
757.200000
 30
0.0
 10
347.600000
 20
757.280000
 30
0.0
 10
358.640000
 20
757.680000
 30
0.0
  0
SPLINE
  5
171
100
AcDbEntity
  8
0
 62
7
100
AcDbSpline
 70
8
 71
3
 72
8
 73
4
 74
0
 40
0
 40
0
 40
0
 40
0
 40
1
 40
1
 40
1
 40
1
 10
358.640000
 20
757.680000
 30
0.0
 10
368.160000
 20
758.000000
 30
0.0
 10
370.160000
 20
758.320000
 30
0.0
 10
371.200000
 20
759.600000
 30
0.0
  0
SPLINE
  5
172
100
AcDbEntity
  8
0
 62
7
100
AcDbSpline
 70
8
 71
3
 72
8
 73
4
 74
0
 40
0
 40
0
 40
0
 40
0
 40
1
 40
1
 40
1
 40
1
 10
371.200000
 20
759.600000
 30
0.0
 10
371.840000
 20
760.480000
 30
0.0
 10
372.240000
 20
761.920000
 30
0.0
 10
372.000000
 20
762.880000
 30
0.0
  0
SPLINE
  5
173
100
AcDbEntity
  8
0
 62
7
100
AcDbSpline
 70
8
 71
3
 72
8
 73
4
 74
0
 40
0
 40
0
 40
0
 40
0
 40
1
 40
1
 40
1
 40
1
 10
372.000000
 20
762.880000
 30
0.0
 10
368.400000
 20
778.800000
 30
0.0
 10
365.440000
 20
789.840000
 30
0.0
 10
364.080000
 20
792.240000
 30
0.0
  0
SPLINE
  5
174
100
AcDbEntity
  8
0
 62
7
100
AcDbSpline
 70
8
 71
3
 72
8
 73
4
 74
0
 40
0
 40
0
 40
0
 40
0
 40
1
 40
1
 40
1
 40
1
 10
364.080000
 20
792.240000
 30
0.0
 10
362.240000
 20
795.440000
 30
0.0
 10
358.080000
 20
799.200000
 30
0.0
 10
348.000000
 20
806.560000
 30
0.0
  0
SPLINE
  5
175
100
AcDbEntity
  8
0
 62
7
100
AcDbSpline
 70
8
 71
3
 72
8
 73
4
 74
0
 40
0
 40
0
 40
0
 40
0
 40
1
 40
1
 40
1
 40
1
 10
348.000000
 20
806.560000
 30
0.0
 10
344.560000
 20
809.120000
 30
0.0
 10
341.920000
 20
811.360000
 30
0.0
 10
342.160000
 20
811.520000
 30
0.0
  0
SPLINE
  5
176
100
AcDbEntity
  8
0
 62
7
100
AcDbSpline
 70
8
 71
3
 72
8
 73
4
 74
0
 40
0
 40
0
 40
0
 40
0
 40
1
 40
1
 40
1
 40
1
 10
342.160000
 20
811.520000
 30
0.0
 10
343.040000
 20
812.400000
 30
0.0
 10
355.200000
 20
806.000000
 30
0.0
 10
360.960000
 20
801.680000
 30
0.0
  0
SPLINE
  5
177
100
AcDbEntity
  8
0
 62
7
100
AcDbSpline
 70
8
 71
3
 72
8
 73
4
 74
0
 40
0
 40
0
 40
0
 40
0
 40
1
 40
1
 40
1
 40
1
 10
360.960000
 20
801.680000
 30
0.0
 10
366.000000
 20
797.920000
 30
0.0
 10
367.520000
 20
796.080000
 30
0.0
 10
370.240000
 20
790.720000
 30
0.0
  0
SPLINE
  5
178
100
AcDbEntity
  8
0
 62
7
100
AcDbSpline
 70
8
 71
3
 72
8
 73
4
 74
0
 40
0
 40
0
 40
0
 40
0
 40
1
 40
1
 40
1
 40
1
 10
370.240000
 20
790.720000
 30
0.0
 10
374.640000
 20
782.160000
 30
0.0
 10
385.520000
 20
757.120000
 30
0.0
 10
385.520000
 20
755.680000
 30
0.0
  0
SPLINE
  5
179
100
AcDbEntity
  8
0
 62
7
100
AcDbSpline
 70
8
 71
3
 72
8
 73
4
 74
0
 40
0
 40
0
 40
0
 40
0
 40
1
 40
1
 40
1
 40
1
 10
385.520000
 20
755.680000
 30
0.0
 10
385.520000
 20
755.040000
 30
0.0
 10
384.720000
 20
753.440000
 30
0.0
 10
383.840000
 20
752.160000
 30
0.0
  0
SPLINE
  5
17a
100
AcDbEntity
  8
0
 62
7
100
AcDbSpline
 70
8
 71
3
 72
8
 73
4
 74
0
 40
0
 40
0
 40
0
 40
0
 40
1
 40
1
 40
1
 40
1
 10
383.840000
 20
752.160000
 30
0.0
 10
382.320000
 20
749.920000
 30
0.0
 10
381.840000
 20
749.760000
 30
0.0
 10
374.000000
 20
749.360000
 30
0.0
  0
SPLINE
  5
17b
100
AcDbEntity
  8
0
 62
7
100
AcDbSpline
 70
8
 71
3
 72
8
 73
4
 74
0
 40
0
 40
0
 40
0
 40
0
 40
1
 40
1
 40
1
 40
1
 10
374.000000
 20
749.360000
 30
0.0
 10
358.160000
 20
748.640000
 30
0.0
 10
354.240000
 20
747.760000
 30
0.0
 10
346.160000
 20
743.360000
 30
0.0
  0
SPLINE
  5
17c
100
AcDbEntity
  8
0
 62
7
100
AcDbSpline
 70
8
 71
3
 72
8
 73
4
 74
0
 40
0
 40
0
 40
0
 40
0
 40
1
 40
1
 40
1
 40
1
 10
346.160000
 20
743.360000
 30
0.0
 10
338.480000
 20
739.120000
 30
0.0
 10
330.560000
 20
733.360000
 30
0.0
 10
330.560000
 20
732.000000
 30
0.0
  0
SPLINE
  5
17d
100
AcDbEntity
  8
0
 62
7
100
AcDbSpline
 70
8
 71
3
 72
8
 73
4
 74
0
 40
0
 40
0
 40
0
 40
0
 40
1
 40
1
 40
1
 40
1
 10
330.560000
 20
732.000000
 30
0.0
 10
330.560000
 20
730.640000
 30
0.0
 10
334.160000
 20
731.120000
 30
0.0
 10
347.680000
 20
734.160000
 30
0.0
  0
SPLINE
  5
17e
100
AcDbEntity
  8
0
 62
7
100
AcDbSpline
 70
8
 71
3
 72
8
 73
4
 74
0
 40
0
 40
0
 40
0
 40
0
 40
1
 40
1
 40
1
 40
1
 10
347.680000
 20
734.160000
 30
0.0
 10
364.640000
 20
737.920000
 30
0.0
 10
374.160000
 20
739.680000
 30
0.0
 10
377.440000
 20
739.680000
 30
0.0
  0
SPLINE
  5
17f
100
AcDbEntity
  8
0
 62
7
100
AcDbSpline
 70
8
 71
3
 72
8
 73
4
 74
0
 40
0
 40
0
 40
0
 40
0
 40
1
 40
1
 40
1
 40
1
 10
377.440000
 20
739.680000
 30
0.0
 10
378.960000
 20
739.680000
 30
0.0
 10
383.360000
 20
738.720000
 30
0.0
 10
387.280000
 20
737.600000
 30
0.0
  0
SPLINE
  5
180
100
AcDbEntity
  8
0
 62
7
100
AcDbSpline
 70
8
 71
3
 72
8
 73
4
 74
0
 40
0
 40
0
 40
0
 40
0
 40
1
 40
1
 40
1
 40
1
 10
387.280000
 20
737.600000
 30
0.0
 10
400.720000
 20
733.680000
 30
0.0
 10
404.480000
 20
732.800000
 30
0.0
 10
411.920000
 20
731.600000
 30
0.0
  0
SPLINE
  5
181
100
AcDbEntity
  8
0
 62
7
100
AcDbSpline
 70
8
 71
3
 72
8
 73
4
 74
0
 40
0
 40
0
 40
0
 40
0
 40
1
 40
1
 40
1
 40
1
 10
411.920000
 20
731.600000
 30
0.0
 10
416.560000
 20
730.800000
 30
0.0
 10
419.760000
 20
730.720000
 30
0.0
 10
420.320000
 20
731.200000
 30
0.0
  0
SPLINE
  5
182
100
AcDbEntity
  8
0
 62
7
100
AcDbSpline
 70
8
 71
3
 72
8
 73
4
 74
0
 40
0
 40
0
 40
0
 40
0
 40
1
 40
1
 40
1
 40
1
 10
420.320000
 20
731.200000
 30
0.0
 10
422.800000
 20
733.440000
 30
0.0
 10
424.320000
 20
759.120000
 30
0.0
 10
422.800000
 20
772.720000
 30
0.0
  0
SPLINE
  5
183
100
AcDbEntity
  8
0
 62
7
100
AcDbSpline
 70
8
 71
3
 72
8
 73
4
 74
0
 40
0
 40
0
 40
0
 40
0
 40
1
 40
1
 40
1
 40
1
 10
422.800000
 20
772.720000
 30
0.0
 10
420.240000
 20
795.520000
 30
0.0
 10
415.760000
 20
803.200000
 30
0.0
 10
397.120000
 20
816.480000
 30
0.0
  0
SPLINE
  5
184
100
AcDbEntity
  8
0
 62
7
100
AcDbSpline
 70
8
 71
3
 72
8
 73
4
 74
0
 40
0
 40
0
 40
0
 40
0
 40
1
 40
1
 40
1
 40
1
 10
397.120000
 20
816.480000
 30
0.0
 10
393.280000
 20
819.200000
 30
0.0
 10
390.560000
 20
821.600000
 30
0.0
 10
391.040000
 20
821.760000
 30
0.0
  0
SPLINE
  5
185
100
AcDbEntity
  8
0
 62
7
100
AcDbSpline
 70
8
 71
3
 72
8
 73
4
 74
0
 40
0
 40
0
 40
0
 40
0
 40
1
 40
1
 40
1
 40
1
 10
391.040000
 20
821.760000
 30
0.0
 10
392.080000
 20
822.080000
 30
0.0
 10
400.160000
 20
818.320000
 30
0.0
 10
407.600000
 20
814.080000
 30
0.0
  0
SPLINE
  5
186
100
AcDbEntity
  8
0
 62
7
100
AcDbSpline
 70
8
 71
3
 72
8
 73
4
 74
0
 40
0
 40
0
 40
0
 40
0
 40
1
 40
1
 40
1
 40
1
 10
407.600000
 20
814.080000
 30
0.0
 10
418.400000
 20
807.920000
 30
0.0
 10
427.360000
 20
796.560000
 30
0.0
 10
430.560000
 20
785.040000
 30
0.0
  0
SPLINE
  5
187
100
AcDbEntity
  8
0
 62
7
100
AcDbSpline
 70
8
 71
3
 72
8
 73
4
 74
0
 40
0
 40
0
 40
0
 40
0
 40
1
 40
1
 40
1
 40
1
 10
430.560000
 20
785.040000
 30
0.0
 10
434.880000
 20
769.360000
 30
0.0
 10
440.000000
 20
733.040000
 30
0.0
 10
438.800000
 20
726.320000
 30
0.0
  0
SPLINE
  5
188
100
AcDbEntity
  8
0
 62
7
100
AcDbSpline
 70
8
 71
3
 72
8
 73
4
 74
0
 40
0
 40
0
 40
0
 40
0
 40
1
 40
1
 40
1
 40
1
 10
438.800000
 20
726.320000
 30
0.0
 10
438.400000
 20
723.840000
 30
0.0
 10
437.680000
 20
723.200000
 30
0.0
 10
434.000000
 20
721.760000
 30
0.0
  0
SPLINE
  5
189
100
AcDbEntity
  8
0
 62
7
100
AcDbSpline
 70
8
 71
3
 72
8
 73
4
 74
0
 40
0
 40
0
 40
0
 40
0
 40
1
 40
1
 40
1
 40
1
 10
434.000000
 20
721.760000
 30
0.0
 10
431.680000
 20
720.880000
 30
0.0
 10
428.400000
 20
718.800000
 30
0.0
 10
426.800000
 20
717.200000
 30
0.0
  0
SPLINE
  5
18a
100
AcDbEntity
  8
0
 62
7
100
AcDbSpline
 70
8
 71
3
 72
8
 73
4
 74
0
 40
0
 40
0
 40
0
 40
0
 40
1
 40
1
 40
1
 40
1
 10
426.800000
 20
717.200000
 30
0.0
 10
423.120000
 20
713.600000
 30
0.0
 10
420.240000
 20
713.440000
 30
0.0
 10
416.320000
 20
716.480000
 30
0.0
  0
SPLINE
  5
18b
100
AcDbEntity
  8
0
 62
7
100
AcDbSpline
 70
8
 71
3
 72
8
 73
4
 74
0
 40
0
 40
0
 40
0
 40
0
 40
1
 40
1
 40
1
 40
1
 10
416.320000
 20
716.480000
 30
0.0
 10
414.720000
 20
717.680000
 30
0.0
 10
410.960000
 20
719.360000
 30
0.0
 10
408.080000
 20
720.240000
 30
0.0
  0
SPLINE
  5
18c
100
AcDbEntity
  8
0
 62
7
100
AcDbSpline
 70
8
 71
3
 72
8
 73
4
 74
0
 40
0
 40
0
 40
0
 40
0
 40
1
 40
1
 40
1
 40
1
 10
408.080000
 20
720.240000
 30
0.0
 10
405.120000
 20
721.040000
 30
0.0
 10
399.760000
 20
722.800000
 30
0.0
 10
396.240000
 20
724.160000
 30
0.0
  0
SPLINE
  5
18d
100
AcDbEntity
  8
0
 62
7
100
AcDbSpline
 70
8
 71
3
 72
8
 73
4
 74
0
 40
0
 40
0
 40
0
 40
0
 40
1
 40
1
 40
1
 40
1
 10
396.240000
 20
724.160000
 30
0.0
 10
389.760000
 20
726.560000
 30
0.0
 10
389.520000
 20
726.560000
 30
0.0
 10
370.160000
 20
726.480000
 30
0.0
  0
SPLINE
  5
18e
100
AcDbEntity
  8
0
 62
7
100
AcDbSpline
 70
8
 71
3
 72
8
 73
4
 74
0
 40
0
 40
0
 40
0
 40
0
 40
1
 40
1
 40
1
 40
1
 10
370.160000
 20
726.480000
 30
0.0
 10
355.520000
 20
726.480000
 30
0.0
 10
348.480000
 20
726.080000
 30
0.0
 10
342.160000
 20
724.960000
 30
0.0
  0
SPLINE
  5
18f
100
AcDbEntity
  8
0
 62
7
100
AcDbSpline
 70
8
 71
3
 72
8
 73
4
 74
0
 40
0
 40
0
 40
0
 40
0
 40
1
 40
1
 40
1
 40
1
 10
342.160000
 20
724.960000
 30
0.0
 10
327.040000
 20
722.240000
 30
0.0
 10
325.760000
 20
719.360000
 30
0.0
 10
339.200000
 20
717.760000
 30
0.0
  0
SPLINE
  5
190
100
AcDbEntity
  8
0
 62
7
100
AcDbSpline
 70
8
 71
3
 72
8
 73
4
 74
0
 40
0
 40
0
 40
0
 40
0
 40
1
 40
1
 40
1
 40
1
 10
339.200000
 20
717.760000
 30
0.0
 10
343.920000
 20
717.200000
 30
0.0
 10
351.760000
 20
716.240000
 30
0.0
 10
356.640000
 20
715.520000
 30
0.0
  0
SPLINE
  5
191
100
AcDbEntity
  8
0
 62
7
100
AcDbSpline
 70
8
 71
3
 72
8
 73
4
 74
0
 40
0
 40
0
 40
0
 40
0
 40
1
 40
1
 40
1
 40
1
 10
356.640000
 20
715.520000
 30
0.0
 10
361.520000
 20
714.800000
 30
0.0
 10
368.400000
 20
714.240000
 30
0.0
 10
372.000000
 20
714.240000
 30
0.0
  0
SPLINE
  5
192
100
AcDbEntity
  8
0
 62
7
100
AcDbSpline
 70
8
 71
3
 72
8
 73
4
 74
0
 40
0
 40
0
 40
0
 40
0
 40
1
 40
1
 40
1
 40
1
 10
372.000000
 20
714.240000
 30
0.0
 10
379.200000
 20
714.240000
 30
0.0
 10
377.760000
 20
714.800000
 30
0.0
 10
396.400000
 20
704.240000
 30
0.0
  0
SPLINE
  5
193
100
AcDbEntity
  8
0
 62
7
100
AcDbSpline
 70
8
 71
3
 72
8
 73
4
 74
0
 40
0
 40
0
 40
0
 40
0
 40
1
 40
1
 40
1
 40
1
 10
396.400000
 20
704.240000
 30
0.0
 10
402.480000
 20
700.800000
 30
0.0
 10
416.160000
 20
693.280000
 30
0.0
 10
426.960000
 20
687.520000
 30
0.0
  0
SPLINE
  5
194
100
AcDbEntity
  8
0
 62
7
100
AcDbSpline
 70
8
 71
3
 72
8
 73
4
 74
0
 40
0
 40
0
 40
0
 40
0
 40
1
 40
1
 40
1
 40
1
 10
426.960000
 20
687.520000
 30
0.0
 10
448.160000
 20
676.080000
 30
0.0
 10
453.200000
 20
672.240000
 30
0.0
 10
457.680000
 20
663.920000
 30
0.0
  0
SPLINE
  5
195
100
AcDbEntity
  8
0
 62
7
100
AcDbSpline
 70
8
 71
3
 72
8
 73
4
 74
0
 40
0
 40
0
 40
0
 40
0
 40
1
 40
1
 40
1
 40
1
 10
457.680000
 20
663.920000
 30
0.0
 10
460.640000
 20
658.400000
 30
0.0
 10
460.480000
 20
655.760000
 30
0.0
 10
457.040000
 20
654.240000
 30
0.0
  0
SPLINE
  5
196
100
AcDbEntity
  8
0
 62
7
100
AcDbSpline
 70
8
 71
3
 72
8
 73
4
 74
0
 40
0
 40
0
 40
0
 40
0
 40
1
 40
1
 40
1
 40
1
 10
457.040000
 20
654.240000
 30
0.0
 10
453.600000
 20
652.800000
 30
0.0
 10
436.400000
 20
638.560000
 30
0.0
 10
429.120000
 20
631.200000
 30
0.0
  0
SPLINE
  5
197
100
AcDbEntity
  8
0
 62
7
100
AcDbSpline
 70
8
 71
3
 72
8
 73
4
 74
0
 40
0
 40
0
 40
0
 40
0
 40
1
 40
1
 40
1
 40
1
 10
429.120000
 20
631.200000
 30
0.0
 10
420.240000
 20
622.160000
 30
0.0
 10
416.800000
 20
616.240000
 30
0.0
 10
412.080000
 20
601.120000
 30
0.0
  0
SPLINE
  5
198
100
AcDbEntity
  8
0
 62
7
100
AcDbSpline
 70
8
 71
3
 72
8
 73
4
 74
0
 40
0
 40
0
 40
0
 40
0
 40
1
 40
1
 40
1
 40
1
 10
412.080000
 20
601.120000
 30
0.0
 10
406.240000
 20
582.640000
 30
0.0
 10
402.160000
 20
562.480000
 30
0.0
 10
396.800000
 20
525.680000
 30
0.0
  0
SPLINE
  5
199
100
AcDbEntity
  8
0
 62
7
100
AcDbSpline
 70
8
 71
3
 72
8
 73
4
 74
0
 40
0
 40
0
 40
0
 40
0
 40
1
 40
1
 40
1
 40
1
 10
396.800000
 20
525.680000
 30
0.0
 10
395.600000
 20
517.440000
 30
0.0
 10
392.480000
 20
484.240000
 30
0.0
 10
391.120000
 20
465.120000
 30
0.0
  0
SPLINE
  5
19a
100
AcDbEntity
  8
0
 62
7
100
AcDbSpline
 70
8
 71
3
 72
8
 73
4
 74
0
 40
0
 40
0
 40
0
 40
0
 40
1
 40
1
 40
1
 40
1
 10
391.120000
 20
465.120000
 30
0.0
 10
389.840000
 20
447.280000
 30
0.0
 10
388.560000
 20
414.000000
 30
0.0
 10
387.680000
 20
373.600000
 30
0.0
  0
SPLINE
  5
19b
100
AcDbEntity
  8
0
 62
7
100
AcDbSpline
 70
8
 71
3
 72
8
 73
4
 74
0
 40
0
 40
0
 40
0
 40
0
 40
1
 40
1
 40
1
 40
1
 10
387.680000
 20
373.600000
 30
0.0
 10
386.800000
 20
336.000000
 30
0.0
 10
386.320000
 20
340.160000
 30
0.0
 10
384.560000
 20
399.440000
 30
0.0
  0
SPLINE
  5
19c
100
AcDbEntity
  8
0
 62
7
100
AcDbSpline
 70
8
 71
3
 72
8
 73
4
 74
0
 40
0
 40
0
 40
0
 40
0
 40
1
 40
1
 40
1
 40
1
 10
384.560000
 20
399.440000
 30
0.0
 10
382.000000
 20
484.960000
 30
0.0
 10
386.400000
 20
563.040000
 30
0.0
 10
396.640000
 20
614.480000
 30
0.0
  0
SPLINE
  5
19d
100
AcDbEntity
  8
0
 62
7
100
AcDbSpline
 70
8
 71
3
 72
8
 73
4
 74
0
 40
0
 40
0
 40
0
 40
0
 40
1
 40
1
 40
1
 40
1
 10
396.640000
 20
614.480000
 30
0.0
 10
398.240000
 20
622.240000
 30
0.0
 10
399.440000
 20
629.920000
 30
0.0
 10
399.440000
 20
631.440000
 30
0.0
  0
SPLINE
  5
19e
100
AcDbEntity
  8
0
 62
7
100
AcDbSpline
 70
8
 71
3
 72
8
 73
4
 74
0
 40
0
 40
0
 40
0
 40
0
 40
1
 40
1
 40
1
 40
1
 10
399.440000
 20
631.440000
 30
0.0
 10
399.440000
 20
634.880000
 30
0.0
 10
400.880000
 20
636.320000
 30
0.0
 10
404.160000
 20
636.320000
 30
0.0
  0
SPLINE
  5
19f
100
AcDbEntity
  8
0
 62
7
100
AcDbSpline
 70
8
 71
3
 72
8
 73
4
 74
0
 40
0
 40
0
 40
0
 40
0
 40
1
 40
1
 40
1
 40
1
 10
404.160000
 20
636.320000
 30
0.0
 10
407.520000
 20
636.320000
 30
0.0
 10
414.320000
 20
639.680000
 30
0.0
 10
422.560000
 20
645.440000
 30
0.0
  0
SPLINE
  5
1a0
100
AcDbEntity
  8
0
 62
7
100
AcDbSpline
 70
8
 71
3
 72
8
 73
4
 74
0
 40
0
 40
0
 40
0
 40
0
 40
1
 40
1
 40
1
 40
1
 10
422.560000
 20
645.440000
 30
0.0
 10
433.920000
 20
653.280000
 30
0.0
 10
436.640000
 20
658.960000
 30
0.0
 10
431.360000
 20
664.000000
 30
0.0
  0
SPLINE
  5
1a1
100
AcDbEntity
  8
0
 62
7
100
AcDbSpline
 70
8
 71
3
 72
8
 73
4
 74
0
 40
0
 40
0
 40
0
 40
0
 40
1
 40
1
 40
1
 40
1
 10
431.360000
 20
664.000000
 30
0.0
 10
422.560000
 20
672.400000
 30
0.0
 10
384.800000
 20
696.640000
 30
0.0
 10
372.320000
 20
701.840000
 30
0.0
  0
SPLINE
  5
1a2
100
AcDbEntity
  8
0
 62
7
100
AcDbSpline
 70
8
 71
3
 72
8
 73
4
 74
0
 40
0
 40
0
 40
0
 40
0
 40
1
 40
1
 40
1
 40
1
 10
372.320000
 20
701.840000
 30
0.0
 10
358.800000
 20
707.440000
 30
0.0
 10
333.760000
 20
711.040000
 30
0.0
 10
329.200000
 20
708.080000
 30
0.0
  0
SPLINE
  5
1a3
100
AcDbEntity
  8
0
 62
7
100
AcDbSpline
 70
8
 71
3
 72
8
 73
4
 74
0
 40
0
 40
0
 40
0
 40
0
 40
1
 40
1
 40
1
 40
1
 10
329.200000
 20
708.080000
 30
0.0
 10
327.600000
 20
706.960000
 30
0.0
 10
327.680000
 20
706.720000
 30
0.0
 10
330.560000
 20
703.840000
 30
0.0
  0
SPLINE
  5
1a4
100
AcDbEntity
  8
0
 62
7
100
AcDbSpline
 70
8
 71
3
 72
8
 73
4
 74
0
 40
0
 40
0
 40
0
 40
0
 40
1
 40
1
 40
1
 40
1
 10
330.560000
 20
703.840000
 30
0.0
 10
334.720000
 20
699.440000
 30
0.0
 10
347.120000
 20
692.160000
 30
0.0
 10
358.880000
 20
687.120000
 30
0.0
  0
LINE
  5
1a5
100
AcDbEntity
  8
0
 62
7
100
AcDbLine
 10
358.880000
 20
687.120000
 30
0.0
 11
368.880000
 21
682.800000
 31
0.0
  0
LINE
  5
1a6
100
AcDbEntity
  8
0
 62
7
100
AcDbLine
 10
368.880000
 20
682.800000
 30
0.0
 11
372.400000
 21
675.840000
 31
0.0
  0
SPLINE
  5
1a7
100
AcDbEntity
  8
0
 62
7
100
AcDbSpline
 70
8
 71
3
 72
8
 73
4
 74
0
 40
0
 40
0
 40
0
 40
0
 40
1
 40
1
 40
1
 40
1
 10
372.400000
 20
675.840000
 30
0.0
 10
375.760000
 20
669.200000
 30
0.0
 10
375.840000
 20
668.800000
 30
0.0
 10
374.720000
 20
665.120000
 30
0.0
  0
SPLINE
  5
1a8
100
AcDbEntity
  8
0
 62
7
100
AcDbSpline
 70
8
 71
3
 72
8
 73
4
 74
0
 40
0
 40
0
 40
0
 40
0
 40
1
 40
1
 40
1
 40
1
 10
374.720000
 20
665.120000
 30
0.0
 10
374.080000
 20
663.040000
 30
0.0
 10
370.880000
 20
652.320000
 30
0.0
 10
367.520000
 20
641.360000
 30
0.0
  0
SPLINE
  5
1a9
100
AcDbEntity
  8
0
 62
7
100
AcDbSpline
 70
8
 71
3
 72
8
 73
4
 74
0
 40
0
 40
0
 40
0
 40
0
 40
1
 40
1
 40
1
 40
1
 10
367.520000
 20
641.360000
 30
0.0
 10
354.000000
 20
597.280000
 30
0.0
 10
348.000000
 20
571.120000
 30
0.0
 10
345.040000
 20
543.600000
 30
0.0
  0
SPLINE
  5
1aa
100
AcDbEntity
  8
0
 62
7
100
AcDbSpline
 70
8
 71
3
 72
8
 73
4
 74
0
 40
0
 40
0
 40
0
 40
0
 40
1
 40
1
 40
1
 40
1
 10
345.040000
 20
543.600000
 30
0.0
 10
339.760000
 20
495.520000
 30
0.0
 10
335.760000
 20
356.800000
 30
0.0
 10
334.000000
 20
164.720000
 30
0.0
  0
LINE
  5
1ab
100
AcDbEntity
  8
0
 62
7
100
AcDbLine
 10
334.000000
 20
164.720000
 30
0.0
 11
333.840000
 21
144.320000
 31
0.0
  0
LINE
  5
1ac
100
AcDbEntity
  8
0
 62
7
100
AcDbLine
 10
333.840000
 20
144.320000
 30
0.0
 11
333.120000
 21
156.640000
 31
0.0
  0
LINE
  5
1ad
100
AcDbEntity
  8
0
 62
7
100
AcDbLine
 10
333.120000
 20
156.640000
 30
0.0
 11
333.120000
 21
156.640000
 31
0.0
  0
SPLINE
  5
1ae
100
AcDbEntity
  8
0
 62
7
100
AcDbSpline
 70
8
 71
3
 72
8
 73
4
 74
0
 40
0
 40
0
 40
0
 40
0
 40
1
 40
1
 40
1
 40
1
 10
58.800000
 20
62.800000
 30
0.0
 10
62.080000
 20
61.840000
 30
0.0
 10
64.480000
 20
60.240000
 30
0.0
 10
66.080000
 20
58.000000
 30
0.0
  0
SPLINE
  5
1af
100
AcDbEntity
  8
0
 62
7
100
AcDbSpline
 70
8
 71
3
 72
8
 73
4
 74
0
 40
0
 40
0
 40
0
 40
0
 40
1
 40
1
 40
1
 40
1
 10
66.080000
 20
58.000000
 30
0.0
 10
67.680000
 20
55.840000
 30
0.0
 10
68.480000
 20
53.280000
 30
0.0
 10
68.480000
 20
50.400000
 30
0.0
  0
SPLINE
  5
1b0
100
AcDbEntity
  8
0
 62
7
100
AcDbSpline
 70
8
 71
3
 72
8
 73
4
 74
0
 40
0
 40
0
 40
0
 40
0
 40
1
 40
1
 40
1
 40
1
 10
68.480000
 20
50.400000
 30
0.0
 10
68.480000
 20
47.520000
 30
0.0
 10
67.760000
 20
44.880000
 30
0.0
 10
66.320000
 20
42.400000
 30
0.0
  0
SPLINE
  5
1b1
100
AcDbEntity
  8
0
 62
7
100
AcDbSpline
 70
8
 71
3
 72
8
 73
4
 74
0
 40
0
 40
0
 40
0
 40
0
 40
1
 40
1
 40
1
 40
1
 10
66.320000
 20
42.400000
 30
0.0
 10
64.880000
 20
40.000000
 30
0.0
 10
62.800000
 20
38.240000
 30
0.0
 10
60.160000
 20
37.120000
 30
0.0
  0
SPLINE
  5
1b2
100
AcDbEntity
  8
0
 62
7
100
AcDbSpline
 70
8
 71
3
 72
8
 73
4
 74
0
 40
0
 40
0
 40
0
 40
0
 40
1
 40
1
 40
1
 40
1
 10
60.160000
 20
37.120000
 30
0.0
 10
57.440000
 20
36.000000
 30
0.0
 10
53.840000
 20
35.440000
 30
0.0
 10
49.280000
 20
35.440000
 30
0.0
  0
LINE
  5
1b3
100
AcDbEntity
  8
0
 62
7
100
AcDbLine
 10
49.280000
 20
35.440000
 30
0.0
 11
29.520000
 21
35.440000
 31
0.0
  0
LINE
  5
1b4
100
AcDbEntity
  8
0
 62
7
100
AcDbLine
 10
29.520000
 20
35.440000
 30
0.0
 11
29.520000
 21
86.960000
 31
0.0
  0
LINE
  5
1b5
100
AcDbEntity
  8
0
 62
7
100
AcDbLine
 10
29.520000
 20
86.960000
 30
0.0
 11
48.880000
 21
86.960000
 31
0.0
  0
SPLINE
  5
1b6
100
AcDbEntity
  8
0
 62
7
100
AcDbSpline
 70
8
 71
3
 72
8
 73
4
 74
0
 40
0
 40
0
 40
0
 40
0
 40
1
 40
1
 40
1
 40
1
 10
48.880000
 20
86.960000
 30
0.0
 10
55.120000
 20
86.960000
 30
0.0
 10
59.520000
 20
85.600000
 30
0.0
 10
62.080000
 20
82.880000
 30
0.0
  0
SPLINE
  5
1b7
100
AcDbEntity
  8
0
 62
7
100
AcDbSpline
 70
8
 71
3
 72
8
 73
4
 74
0
 40
0
 40
0
 40
0
 40
0
 40
1
 40
1
 40
1
 40
1
 10
62.080000
 20
82.880000
 30
0.0
 10
64.640000
 20
80.160000
 30
0.0
 10
65.920000
 20
77.120000
 30
0.0
 10
65.920000
 20
73.760000
 30
0.0
  0
SPLINE
  5
1b8
100
AcDbEntity
  8
0
 62
7
100
AcDbSpline
 70
8
 71
3
 72
8
 73
4
 74
0
 40
0
 40
0
 40
0
 40
0
 40
1
 40
1
 40
1
 40
1
 10
65.920000
 20
73.760000
 30
0.0
 10
65.920000
 20
71.520000
 30
0.0
 10
65.360000
 20
69.440000
 30
0.0
 10
64.160000
 20
67.520000
 30
0.0
  0
SPLINE
  5
1b9
100
AcDbEntity
  8
0
 62
7
100
AcDbSpline
 70
8
 71
3
 72
8
 73
4
 74
0
 40
0
 40
0
 40
0
 40
0
 40
1
 40
1
 40
1
 40
1
 10
64.160000
 20
67.520000
 30
0.0
 10
62.960000
 20
65.680000
 30
0.0
 10
61.200000
 20
64.080000
 30
0.0
 10
58.800000
 20
62.800000
 30
0.0
  0
LINE
  5
1ba
100
AcDbEntity
  8
0
 62
7
100
AcDbLine
 10
58.800000
 20
62.800000
 30
0.0
 11
58.800000
 21
62.800000
 31
0.0
  0
LINE
  5
1bb
100
AcDbEntity
  8
0
 62
7
100
AcDbLine
 10
36.320000
 20
65.360000
 30
0.0
 11
47.520000
 21
65.360000
 31
0.0
  0
SPLINE
  5
1bc
100
AcDbEntity
  8
0
 62
7
100
AcDbSpline
 70
8
 71
3
 72
8
 73
4
 74
0
 40
0
 40
0
 40
0
 40
0
 40
1
 40
1
 40
1
 40
1
 10
47.520000
 20
65.360000
 30
0.0
 10
49.840000
 20
65.360000
 30
0.0
 10
51.760000
 20
65.520000
 30
0.0
 10
53.280000
 20
65.760000
 30
0.0
  0
SPLINE
  5
1bd
100
AcDbEntity
  8
0
 62
7
100
AcDbSpline
 70
8
 71
3
 72
8
 73
4
 74
0
 40
0
 40
0
 40
0
 40
0
 40
1
 40
1
 40
1
 40
1
 10
53.280000
 20
65.760000
 30
0.0
 10
54.880000
 20
66.000000
 30
0.0
 10
56.240000
 20
66.720000
 30
0.0
 10
57.440000
 20
67.760000
 30
0.0
  0
SPLINE
  5
1be
100
AcDbEntity
  8
0
 62
7
100
AcDbSpline
 70
8
 71
3
 72
8
 73
4
 74
0
 40
0
 40
0
 40
0
 40
0
 40
1
 40
1
 40
1
 40
1
 10
57.440000
 20
67.760000
 30
0.0
 10
58.640000
 20
68.880000
 30
0.0
 10
59.280000
 20
70.560000
 30
0.0
 10
59.280000
 20
72.880000
 30
0.0
  0
SPLINE
  5
1bf
100
AcDbEntity
  8
0
 62
7
100
AcDbSpline
 70
8
 71
3
 72
8
 73
4
 74
0
 40
0
 40
0
 40
0
 40
0
 40
1
 40
1
 40
1
 40
1
 10
59.280000
 20
72.880000
 30
0.0
 10
59.280000
 20
75.360000
 30
0.0
 10
58.640000
 20
77.120000
 30
0.0
 10
57.440000
 20
78.320000
 30
0.0
  0
SPLINE
  5
1c0
100
AcDbEntity
  8
0
 62
7
100
AcDbSpline
 70
8
 71
3
 72
8
 73
4
 74
0
 40
0
 40
0
 40
0
 40
0
 40
1
 40
1
 40
1
 40
1
 10
57.440000
 20
78.320000
 30
0.0
 10
56.240000
 20
79.440000
 30
0.0
 10
54.800000
 20
80.160000
 30
0.0
 10
53.120000
 20
80.480000
 30
0.0
  0
SPLINE
  5
1c1
100
AcDbEntity
  8
0
 62
7
100
AcDbSpline
 70
8
 71
3
 72
8
 73
4
 74
0
 40
0
 40
0
 40
0
 40
0
 40
1
 40
1
 40
1
 40
1
 10
53.120000
 20
80.480000
 30
0.0
 10
51.440000
 20
80.720000
 30
0.0
 10
49.280000
 20
80.800000
 30
0.0
 10
46.640000
 20
80.800000
 30
0.0
  0
LINE
  5
1c2
100
AcDbEntity
  8
0
 62
7
100
AcDbLine
 10
46.640000
 20
80.800000
 30
0.0
 11
36.320000
 21
80.800000
 31
0.0
  0
LINE
  5
1c3
100
AcDbEntity
  8
0
 62
7
100
AcDbLine
 10
36.320000
 20
80.800000
 30
0.0
 11
36.320000
 21
65.360000
 31
0.0
  0
LINE
  5
1c4
100
AcDbEntity
  8
0
 62
7
100
AcDbLine
 10
36.320000
 20
65.360000
 30
0.0
 11
36.320000
 21
65.360000
 31
0.0
  0
LINE
  5
1c5
100
AcDbEntity
  8
0
 62
7
100
AcDbLine
 10
36.320000
 20
41.520000
 30
0.0
 11
49.200000
 21
41.520000
 31
0.0
  0
SPLINE
  5
1c6
100
AcDbEntity
  8
0
 62
7
100
AcDbSpline
 70
8
 71
3
 72
8
 73
4
 74
0
 40
0
 40
0
 40
0
 40
0
 40
1
 40
1
 40
1
 40
1
 10
49.200000
 20
41.520000
 30
0.0
 10
53.760000
 20
41.520000
 30
0.0
 10
56.960000
 20
42.320000
 30
0.0
 10
58.720000
 20
43.840000
 30
0.0
  0
SPLINE
  5
1c7
100
AcDbEntity
  8
0
 62
7
100
AcDbSpline
 70
8
 71
3
 72
8
 73
4
 74
0
 40
0
 40
0
 40
0
 40
0
 40
1
 40
1
 40
1
 40
1
 10
58.720000
 20
43.840000
 30
0.0
 10
60.560000
 20
45.440000
 30
0.0
 10
61.440000
 20
47.600000
 30
0.0
 10
61.440000
 20
50.400000
 30
0.0
  0
SPLINE
  5
1c8
100
AcDbEntity
  8
0
 62
7
100
AcDbSpline
 70
8
 71
3
 72
8
 73
4
 74
0
 40
0
 40
0
 40
0
 40
0
 40
1
 40
1
 40
1
 40
1
 10
61.440000
 20
50.400000
 30
0.0
 10
61.440000
 20
53.200000
 30
0.0
 10
60.480000
 20
55.360000
 30
0.0
 10
58.560000
 20
56.880000
 30
0.0
  0
SPLINE
  5
1c9
100
AcDbEntity
  8
0
 62
7
100
AcDbSpline
 70
8
 71
3
 72
8
 73
4
 74
0
 40
0
 40
0
 40
0
 40
0
 40
1
 40
1
 40
1
 40
1
 10
58.560000
 20
56.880000
 30
0.0
 10
56.640000
 20
58.480000
 30
0.0
 10
53.280000
 20
59.280000
 30
0.0
 10
48.320000
 20
59.280000
 30
0.0
  0
LINE
  5
1ca
100
AcDbEntity
  8
0
 62
7
100
AcDbLine
 10
48.320000
 20
59.280000
 30
0.0
 11
36.320000
 21
59.280000
 31
0.0
  0
LINE
  5
1cb
100
AcDbEntity
  8
0
 62
7
100
AcDbLine
 10
36.320000
 20
59.280000
 30
0.0
 11
36.320000
 21
41.520000
 31
0.0
  0
LINE
  5
1cc
100
AcDbEntity
  8
0
 62
7
100
AcDbLine
 10
36.320000
 20
41.520000
 30
0.0
 11
36.320000
 21
41.520000
 31
0.0
  0
LINE
  5
1cd
100
AcDbEntity
  8
0
 62
7
100
AcDbLine
 10
83.360000
 20
35.440000
 30
0.0
 11
77.040000
 21
35.440000
 31
0.0
  0
LINE
  5
1ce
100
AcDbEntity
  8
0
 62
7
100
AcDbLine
 10
77.040000
 20
35.440000
 30
0.0
 11
77.040000
 21
72.720000
 31
0.0
  0
LINE
  5
1cf
100
AcDbEntity
  8
0
 62
7
100
AcDbLine
 10
77.040000
 20
72.720000
 30
0.0
 11
83.360000
 21
72.720000
 31
0.0
  0
LINE
  5
1d0
100
AcDbEntity
  8
0
 62
7
100
AcDbLine
 10
83.360000
 20
72.720000
 30
0.0
 11
83.360000
 21
35.440000
 31
0.0
  0
LINE
  5
1d1
100
AcDbEntity
  8
0
 62
7
100
AcDbLine
 10
83.360000
 20
35.440000
 30
0.0
 11
83.360000
 21
35.440000
 31
0.0
  0
LINE
  5
1d2
100
AcDbEntity
  8
0
 62
7
100
AcDbLine
 10
83.360000
 20
79.760000
 30
0.0
 11
77.040000
 21
79.760000
 31
0.0
  0
LINE
  5
1d3
100
AcDbEntity
  8
0
 62
7
100
AcDbLine
 10
77.040000
 20
79.760000
 30
0.0
 11
77.040000
 21
86.960000
 31
0.0
  0
LINE
  5
1d4
100
AcDbEntity
  8
0
 62
7
100
AcDbLine
 10
77.040000
 20
86.960000
 30
0.0
 11
83.360000
 21
86.960000
 31
0.0
  0
LINE
  5
1d5
100
AcDbEntity
  8
0
 62
7
100
AcDbLine
 10
83.360000
 20
86.960000
 30
0.0
 11
83.360000
 21
79.760000
 31
0.0
  0
LINE
  5
1d6
100
AcDbEntity
  8
0
 62
7
100
AcDbLine
 10
83.360000
 20
79.760000
 30
0.0
 11
83.360000
 21
79.760000
 31
0.0
  0
SPLINE
  5
1d7
100
AcDbEntity
  8
0
 62
7
100
AcDbSpline
 70
8
 71
3
 72
8
 73
4
 74
0
 40
0
 40
0
 40
0
 40
0
 40
1
 40
1
 40
1
 40
1
 10
113.840000
 20
62.240000
 30
0.0
 10
113.600000
 20
64.320000
 30
0.0
 10
112.720000
 20
65.840000
 30
0.0
 10
111.360000
 20
66.880000
 30
0.0
  0
SPLINE
  5
1d8
100
AcDbEntity
  8
0
 62
7
100
AcDbSpline
 70
8
 71
3
 72
8
 73
4
 74
0
 40
0
 40
0
 40
0
 40
0
 40
1
 40
1
 40
1
 40
1
 10
111.360000
 20
66.880000
 30
0.0
 10
110.000000
 20
67.840000
 30
0.0
 10
108.080000
 20
68.400000
 30
0.0
 10
105.680000
 20
68.400000
 30
0.0
  0
SPLINE
  5
1d9
100
AcDbEntity
  8
0
 62
7
100
AcDbSpline
 70
8
 71
3
 72
8
 73
4
 74
0
 40
0
 40
0
 40
0
 40
0
 40
1
 40
1
 40
1
 40
1
 10
105.680000
 20
68.400000
 30
0.0
 10
103.200000
 20
68.400000
 30
0.0
 10
101.280000
 20
68.000000
 30
0.0
 10
99.760000
 20
67.120000
 30
0.0
  0
SPLINE
  5
1da
100
AcDbEntity
  8
0
 62
7
100
AcDbSpline
 70
8
 71
3
 72
8
 73
4
 74
0
 40
0
 40
0
 40
0
 40
0
 40
1
 40
1
 40
1
 40
1
 10
99.760000
 20
67.120000
 30
0.0
 10
98.320000
 20
66.320000
 30
0.0
 10
97.600000
 20
65.120000
 30
0.0
 10
97.600000
 20
63.600000
 30
0.0
  0
SPLINE
  5
1db
100
AcDbEntity
  8
0
 62
7
100
AcDbSpline
 70
8
 71
3
 72
8
 73
4
 74
0
 40
0
 40
0
 40
0
 40
0
 40
1
 40
1
 40
1
 40
1
 10
97.600000
 20
63.600000
 30
0.0
 10
97.600000
 20
62.080000
 30
0.0
 10
98.160000
 20
61.040000
 30
0.0
 10
99.360000
 20
60.400000
 30
0.0
  0
SPLINE
  5
1dc
100
AcDbEntity
  8
0
 62
7
100
AcDbSpline
 70
8
 71
3
 72
8
 73
4
 74
0
 40
0
 40
0
 40
0
 40
0
 40
1
 40
1
 40
1
 40
1
 10
99.360000
 20
60.400000
 30
0.0
 10
100.560000
 20
59.760000
 30
0.0
 10
102.880000
 20
58.960000
 30
0.0
 10
106.320000
 20
58.080000
 30
0.0
  0
SPLINE
  5
1dd
100
AcDbEntity
  8
0
 62
7
100
AcDbSpline
 70
8
 71
3
 72
8
 73
4
 74
0
 40
0
 40
0
 40
0
 40
0
 40
1
 40
1
 40
1
 40
1
 10
106.320000
 20
58.080000
 30
0.0
 10
110.320000
 20
57.040000
 30
0.0
 10
113.200000
 20
56.160000
 30
0.0
 10
115.200000
 20
55.440000
 30
0.0
  0
SPLINE
  5
1de
100
AcDbEntity
  8
0
 62
7
100
AcDbSpline
 70
8
 71
3
 72
8
 73
4
 74
0
 40
0
 40
0
 40
0
 40
0
 40
1
 40
1
 40
1
 40
1
 10
115.200000
 20
55.440000
 30
0.0
 10
117.120000
 20
54.640000
 30
0.0
 10
118.640000
 20
53.520000
 30
0.0
 10
119.760000
 20
52.160000
 30
0.0
  0
SPLINE
  5
1df
100
AcDbEntity
  8
0
 62
7
100
AcDbSpline
 70
8
 71
3
 72
8
 73
4
 74
0
 40
0
 40
0
 40
0
 40
0
 40
1
 40
1
 40
1
 40
1
 10
119.760000
 20
52.160000
 30
0.0
 10
120.880000
 20
50.800000
 30
0.0
 10
121.360000
 20
48.800000
 30
0.0
 10
121.360000
 20
46.320000
 30
0.0
  0
SPLINE
  5
1e0
100
AcDbEntity
  8
0
 62
7
100
AcDbSpline
 70
8
 71
3
 72
8
 73
4
 74
0
 40
0
 40
0
 40
0
 40
0
 40
1
 40
1
 40
1
 40
1
 10
121.360000
 20
46.320000
 30
0.0
 10
121.360000
 20
43.040000
 30
0.0
 10
120.080000
 20
40.240000
 30
0.0
 10
117.360000
 20
37.920000
 30
0.0
  0
SPLINE
  5
1e1
100
AcDbEntity
  8
0
 62
7
100
AcDbSpline
 70
8
 71
3
 72
8
 73
4
 74
0
 40
0
 40
0
 40
0
 40
0
 40
1
 40
1
 40
1
 40
1
 10
117.360000
 20
37.920000
 30
0.0
 10
114.640000
 20
35.680000
 30
0.0
 10
110.960000
 20
34.560000
 30
0.0
 10
106.400000
 20
34.560000
 30
0.0
  0
SPLINE
  5
1e2
100
AcDbEntity
  8
0
 62
7
100
AcDbSpline
 70
8
 71
3
 72
8
 73
4
 74
0
 40
0
 40
0
 40
0
 40
0
 40
1
 40
1
 40
1
 40
1
 10
106.400000
 20
34.560000
 30
0.0
 10
101.680000
 20
34.560000
 30
0.0
 10
98.000000
 20
35.520000
 30
0.0
 10
95.360000
 20
37.520000
 30
0.0
  0
SPLINE
  5
1e3
100
AcDbEntity
  8
0
 62
7
100
AcDbSpline
 70
8
 71
3
 72
8
 73
4
 74
0
 40
0
 40
0
 40
0
 40
0
 40
1
 40
1
 40
1
 40
1
 10
95.360000
 20
37.520000
 30
0.0
 10
92.640000
 20
39.520000
 30
0.0
 10
91.040000
 20
42.560000
 30
0.0
 10
90.400000
 20
46.560000
 30
0.0
  0
LINE
  5
1e4
100
AcDbEntity
  8
0
 62
7
100
AcDbLine
 10
90.400000
 20
46.560000
 30
0.0
 11
96.720000
 21
47.520000
 31
0.0
  0
SPLINE
  5
1e5
100
AcDbEntity
  8
0
 62
7
100
AcDbSpline
 70
8
 71
3
 72
8
 73
4
 74
0
 40
0
 40
0
 40
0
 40
0
 40
1
 40
1
 40
1
 40
1
 10
96.720000
 20
47.520000
 30
0.0
 10
97.040000
 20
44.880000
 30
0.0
 10
98.000000
 20
42.960000
 30
0.0
 10
99.600000
 20
41.680000
 30
0.0
  0
SPLINE
  5
1e6
100
AcDbEntity
  8
0
 62
7
100
AcDbSpline
 70
8
 71
3
 72
8
 73
4
 74
0
 40
0
 40
0
 40
0
 40
0
 40
1
 40
1
 40
1
 40
1
 10
99.600000
 20
41.680000
 30
0.0
 10
101.200000
 20
40.400000
 30
0.0
 10
103.440000
 20
39.760000
 30
0.0
 10
106.320000
 20
39.760000
 30
0.0
  0
SPLINE
  5
1e7
100
AcDbEntity
  8
0
 62
7
100
AcDbSpline
 70
8
 71
3
 72
8
 73
4
 74
0
 40
0
 40
0
 40
0
 40
0
 40
1
 40
1
 40
1
 40
1
 10
106.320000
 20
39.760000
 30
0.0
 10
109.120000
 20
39.760000
 30
0.0
 10
111.200000
 20
40.320000
 30
0.0
 10
112.720000
 20
41.440000
 30
0.0
  0
SPLINE
  5
1e8
100
AcDbEntity
  8
0
 62
7
100
AcDbSpline
 70
8
 71
3
 72
8
 73
4
 74
0
 40
0
 40
0
 40
0
 40
0
 40
1
 40
1
 40
1
 40
1
 10
112.720000
 20
41.440000
 30
0.0
 10
114.160000
 20
42.640000
 30
0.0
 10
114.960000
 20
44.080000
 30
0.0
 10
114.960000
 20
45.680000
 30
0.0
  0
SPLINE
  5
1e9
100
AcDbEntity
  8
0
 62
7
100
AcDbSpline
 70
8
 71
3
 72
8
 73
4
 74
0
 40
0
 40
0
 40
0
 40
0
 40
1
 40
1
 40
1
 40
1
 10
114.960000
 20
45.680000
 30
0.0
 10
114.960000
 20
46.800000
 30
0.0
 10
114.560000
 20
47.760000
 30
0.0
 10
113.920000
 20
48.400000
 30
0.0
  0
SPLINE
  5
1ea
100
AcDbEntity
  8
0
 62
7
100
AcDbSpline
 70
8
 71
3
 72
8
 73
4
 74
0
 40
0
 40
0
 40
0
 40
0
 40
1
 40
1
 40
1
 40
1
 10
113.920000
 20
48.400000
 30
0.0
 10
113.200000
 20
49.120000
 30
0.0
 10
112.400000
 20
49.600000
 30
0.0
 10
111.360000
 20
49.920000
 30
0.0
  0
SPLINE
  5
1eb
100
AcDbEntity
  8
0
 62
7
100
AcDbSpline
 70
8
 71
3
 72
8
 73
4
 74
0
 40
0
 40
0
 40
0
 40
0
 40
1
 40
1
 40
1
 40
1
 10
111.360000
 20
49.920000
 30
0.0
 10
110.320000
 20
50.320000
 30
0.0
 10
108.080000
 20
50.880000
 30
0.0
 10
104.480000
 20
51.760000
 30
0.0
  0
SPLINE
  5
1ec
100
AcDbEntity
  8
0
 62
7
100
AcDbSpline
 70
8
 71
3
 72
8
 73
4
 74
0
 40
0
 40
0
 40
0
 40
0
 40
1
 40
1
 40
1
 40
1
 10
104.480000
 20
51.760000
 30
0.0
 10
99.200000
 20
53.040000
 30
0.0
 10
95.680000
 20
54.560000
 30
0.0
 10
94.000000
 20
56.320000
 30
0.0
  0
SPLINE
  5
1ed
100
AcDbEntity
  8
0
 62
7
100
AcDbSpline
 70
8
 71
3
 72
8
 73
4
 74
0
 40
0
 40
0
 40
0
 40
0
 40
1
 40
1
 40
1
 40
1
 10
94.000000
 20
56.320000
 30
0.0
 10
92.320000
 20
58.160000
 30
0.0
 10
91.440000
 20
60.320000
 30
0.0
 10
91.440000
 20
62.800000
 30
0.0
  0
SPLINE
  5
1ee
100
AcDbEntity
  8
0
 62
7
100
AcDbSpline
 70
8
 71
3
 72
8
 73
4
 74
0
 40
0
 40
0
 40
0
 40
0
 40
1
 40
1
 40
1
 40
1
 10
91.440000
 20
62.800000
 30
0.0
 10
91.440000
 20
65.920000
 30
0.0
 10
92.720000
 20
68.480000
 30
0.0
 10
95.200000
 20
70.560000
 30
0.0
  0
SPLINE
  5
1ef
100
AcDbEntity
  8
0
 62
7
100
AcDbSpline
 70
8
 71
3
 72
8
 73
4
 74
0
 40
0
 40
0
 40
0
 40
0
 40
1
 40
1
 40
1
 40
1
 10
95.200000
 20
70.560000
 30
0.0
 10
97.680000
 20
72.560000
 30
0.0
 10
100.960000
 20
73.520000
 30
0.0
 10
105.200000
 20
73.520000
 30
0.0
  0
SPLINE
  5
1f0
100
AcDbEntity
  8
0
 62
7
100
AcDbSpline
 70
8
 71
3
 72
8
 73
4
 74
0
 40
0
 40
0
 40
0
 40
0
 40
1
 40
1
 40
1
 40
1
 10
105.200000
 20
73.520000
 30
0.0
 10
109.680000
 20
73.520000
 30
0.0
 10
113.120000
 20
72.640000
 30
0.0
 10
115.600000
 20
70.960000
 30
0.0
  0
SPLINE
  5
1f1
100
AcDbEntity
  8
0
 62
7
100
AcDbSpline
 70
8
 71
3
 72
8
 73
4
 74
0
 40
0
 40
0
 40
0
 40
0
 40
1
 40
1
 40
1
 40
1
 10
115.600000
 20
70.960000
 30
0.0
 10
118.080000
 20
69.200000
 30
0.0
 10
119.520000
 20
66.560000
 30
0.0
 10
120.000000
 20
63.120000
 30
0.0
  0
LINE
  5
1f2
100
AcDbEntity
  8
0
 62
7
100
AcDbLine
 10
120.000000
 20
63.120000
 30
0.0
 11
113.840000
 21
62.240000
 31
0.0
  0
LINE
  5
1f3
100
AcDbEntity
  8
0
 62
7
100
AcDbLine
 10
113.840000
 20
62.240000
 30
0.0
 11
113.840000
 21
62.240000
 31
0.0
  0
SPLINE
  5
1f4
100
AcDbEntity
  8
0
 62
7
100
AcDbSpline
 70
8
 71
3
 72
8
 73
4
 74
0
 40
0
 40
0
 40
0
 40
0
 40
1
 40
1
 40
1
 40
1
 10
143.600000
 20
35.440000
 30
0.0
 10
141.680000
 20
35.120000
 30
0.0
 10
140.160000
 20
34.880000
 30
0.0
 10
138.800000
 20
34.880000
 30
0.0
  0
SPLINE
  5
1f5
100
AcDbEntity
  8
0
 62
7
100
AcDbSpline
 70
8
 71
3
 72
8
 73
4
 74
0
 40
0
 40
0
 40
0
 40
0
 40
1
 40
1
 40
1
 40
1
 10
138.800000
 20
34.880000
 30
0.0
 10
136.080000
 20
34.880000
 30
0.0
 10
134.080000
 20
35.440000
 30
0.0
 10
132.800000
 20
36.400000
 30
0.0
  0
SPLINE
  5
1f6
100
AcDbEntity
  8
0
 62
7
100
AcDbSpline
 70
8
 71
3
 72
8
 73
4
 74
0
 40
0
 40
0
 40
0
 40
0
 40
1
 40
1
 40
1
 40
1
 10
132.800000
 20
36.400000
 30
0.0
 10
131.520000
 20
37.360000
 30
0.0
 10
130.720000
 20
38.560000
 30
0.0
 10
130.480000
 20
40.080000
 30
0.0
  0
SPLINE
  5
1f7
100
AcDbEntity
  8
0
 62
7
100
AcDbSpline
 70
8
 71
3
 72
8
 73
4
 74
0
 40
0
 40
0
 40
0
 40
0
 40
1
 40
1
 40
1
 40
1
 10
130.480000
 20
40.080000
 30
0.0
 10
130.160000
 20
41.600000
 30
0.0
 10
130.080000
 20
43.680000
 30
0.0
 10
130.080000
 20
46.320000
 30
0.0
  0
LINE
  5
1f8
100
AcDbEntity
  8
0
 62
7
100
AcDbLine
 10
130.080000
 20
46.320000
 30
0.0
 11
130.080000
 21
67.840000
 31
0.0
  0
LINE
  5
1f9
100
AcDbEntity
  8
0
 62
7
100
AcDbLine
 10
130.080000
 20
67.840000
 30
0.0
 11
125.440000
 21
67.840000
 31
0.0
  0
LINE
  5
1fa
100
AcDbEntity
  8
0
 62
7
100
AcDbLine
 10
125.440000
 20
67.840000
 30
0.0
 11
125.440000
 21
72.720000
 31
0.0
  0
LINE
  5
1fb
100
AcDbEntity
  8
0
 62
7
100
AcDbLine
 10
125.440000
 20
72.720000
 30
0.0
 11
130.080000
 21
72.720000
 31
0.0
  0
LINE
  5
1fc
100
AcDbEntity
  8
0
 62
7
100
AcDbLine
 10
130.080000
 20
72.720000
 30
0.0
 11
130.080000
 21
82.000000
 31
0.0
  0
LINE
  5
1fd
100
AcDbEntity
  8
0
 62
7
100
AcDbLine
 10
130.080000
 20
82.000000
 30
0.0
 11
136.400000
 21
85.840000
 31
0.0
  0
LINE
  5
1fe
100
AcDbEntity
  8
0
 62
7
100
AcDbLine
 10
136.400000
 20
85.840000
 30
0.0
 11
136.400000
 21
72.720000
 31
0.0
  0
LINE
  5
1ff
100
AcDbEntity
  8
0
 62
7
100
AcDbLine
 10
136.400000
 20
72.720000
 30
0.0
 11
142.720000
 21
72.720000
 31
0.0
  0
LINE
  5
200
100
AcDbEntity
  8
0
 62
7
100
AcDbLine
 10
142.720000
 20
72.720000
 30
0.0
 11
142.720000
 21
67.840000
 31
0.0
  0
LINE
  5
201
100
AcDbEntity
  8
0
 62
7
100
AcDbLine
 10
142.720000
 20
67.840000
 30
0.0
 11
136.400000
 21
67.840000
 31
0.0
  0
LINE
  5
202
100
AcDbEntity
  8
0
 62
7
100
AcDbLine
 10
136.400000
 20
67.840000
 30
0.0
 11
136.400000
 21
46.000000
 31
0.0
  0
SPLINE
  5
203
100
AcDbEntity
  8
0
 62
7
100
AcDbSpline
 70
8
 71
3
 72
8
 73
4
 74
0
 40
0
 40
0
 40
0
 40
0
 40
1
 40
1
 40
1
 40
1
 10
136.400000
 20
46.000000
 30
0.0
 10
136.400000
 20
44.080000
 30
0.0
 10
136.560000
 20
42.800000
 30
0.0
 10
136.960000
 20
42.000000
 30
0.0
  0
SPLINE
  5
204
100
AcDbEntity
  8
0
 62
7
100
AcDbSpline
 70
8
 71
3
 72
8
 73
4
 74
0
 40
0
 40
0
 40
0
 40
0
 40
1
 40
1
 40
1
 40
1
 10
136.960000
 20
42.000000
 30
0.0
 10
137.360000
 20
41.200000
 30
0.0
 10
138.320000
 20
40.800000
 30
0.0
 10
139.920000
 20
40.800000
 30
0.0
  0
SPLINE
  5
205
100
AcDbEntity
  8
0
 62
7
100
AcDbSpline
 70
8
 71
3
 72
8
 73
4
 74
0
 40
0
 40
0
 40
0
 40
0
 40
1
 40
1
 40
1
 40
1
 10
139.920000
 20
40.800000
 30
0.0
 10
140.800000
 20
40.800000
 30
0.0
 10
141.760000
 20
40.880000
 30
0.0
 10
142.720000
 20
41.120000
 30
0.0
  0
LINE
  5
206
100
AcDbEntity
  8
0
 62
7
100
AcDbLine
 10
142.720000
 20
41.120000
 30
0.0
 11
143.600000
 21
35.440000
 31
0.0
  0
LINE
  5
207
100
AcDbEntity
  8
0
 62
7
100
AcDbLine
 10
143.600000
 20
35.440000
 30
0.0
 11
143.600000
 21
35.440000
 31
0.0
  0
SPLINE
  5
208
100
AcDbEntity
  8
0
 62
7
100
AcDbSpline
 70
8
 71
3
 72
8
 73
4
 74
0
 40
0
 40
0
 40
0
 40
0
 40
1
 40
1
 40
1
 40
1
 10
164.240000
 20
73.520000
 30
0.0
 10
169.280000
 20
73.520000
 30
0.0
 10
173.440000
 20
71.920000
 30
0.0
 10
176.720000
 20
68.640000
 30
0.0
  0
SPLINE
  5
209
100
AcDbEntity
  8
0
 62
7
100
AcDbSpline
 70
8
 71
3
 72
8
 73
4
 74
0
 40
0
 40
0
 40
0
 40
0
 40
1
 40
1
 40
1
 40
1
 10
176.720000
 20
68.640000
 30
0.0
 10
180.080000
 20
65.360000
 30
0.0
 10
181.760000
 20
60.720000
 30
0.0
 10
181.760000
 20
54.640000
 30
0.0
  0
SPLINE
  5
20a
100
AcDbEntity
  8
0
 62
7
100
AcDbSpline
 70
8
 71
3
 72
8
 73
4
 74
0
 40
0
 40
0
 40
0
 40
0
 40
1
 40
1
 40
1
 40
1
 10
181.760000
 20
54.640000
 30
0.0
 10
181.760000
 20
47.280000
 30
0.0
 10
179.920000
 20
42.080000
 30
0.0
 10
176.320000
 20
39.120000
 30
0.0
  0
SPLINE
  5
20b
100
AcDbEntity
  8
0
 62
7
100
AcDbSpline
 70
8
 71
3
 72
8
 73
4
 74
0
 40
0
 40
0
 40
0
 40
0
 40
1
 40
1
 40
1
 40
1
 10
176.320000
 20
39.120000
 30
0.0
 10
172.800000
 20
36.080000
 30
0.0
 10
168.720000
 20
34.560000
 30
0.0
 10
164.240000
 20
34.560000
 30
0.0
  0
SPLINE
  5
20c
100
AcDbEntity
  8
0
 62
7
100
AcDbSpline
 70
8
 71
3
 72
8
 73
4
 74
0
 40
0
 40
0
 40
0
 40
0
 40
1
 40
1
 40
1
 40
1
 10
164.240000
 20
34.560000
 30
0.0
 10
159.520000
 20
34.560000
 30
0.0
 10
155.440000
 20
36.080000
 30
0.0
 10
151.920000
 20
39.200000
 30
0.0
  0
SPLINE
  5
20d
100
AcDbEntity
  8
0
 62
7
100
AcDbSpline
 70
8
 71
3
 72
8
 73
4
 74
0
 40
0
 40
0
 40
0
 40
0
 40
1
 40
1
 40
1
 40
1
 10
151.920000
 20
39.200000
 30
0.0
 10
148.480000
 20
42.320000
 30
0.0
 10
146.720000
 20
47.280000
 30
0.0
 10
146.720000
 20
54.000000
 30
0.0
  0
SPLINE
  5
20e
100
AcDbEntity
  8
0
 62
7
100
AcDbSpline
 70
8
 71
3
 72
8
 73
4
 74
0
 40
0
 40
0
 40
0
 40
0
 40
1
 40
1
 40
1
 40
1
 10
146.720000
 20
54.000000
 30
0.0
 10
146.720000
 20
60.640000
 30
0.0
 10
148.400000
 20
65.520000
 30
0.0
 10
151.760000
 20
68.720000
 30
0.0
  0
SPLINE
  5
20f
100
AcDbEntity
  8
0
 62
7
100
AcDbSpline
 70
8
 71
3
 72
8
 73
4
 74
0
 40
0
 40
0
 40
0
 40
0
 40
1
 40
1
 40
1
 40
1
 10
151.760000
 20
68.720000
 30
0.0
 10
155.120000
 20
71.920000
 30
0.0
 10
159.280000
 20
73.520000
 30
0.0
 10
164.240000
 20
73.520000
 30
0.0
  0
LINE
  5
210
100
AcDbEntity
  8
0
 62
7
100
AcDbLine
 10
164.240000
 20
73.520000
 30
0.0
 11
164.240000
 21
73.520000
 31
0.0
  0
SPLINE
  5
211
100
AcDbEntity
  8
0
 62
7
100
AcDbSpline
 70
8
 71
3
 72
8
 73
4
 74
0
 40
0
 40
0
 40
0
 40
0
 40
1
 40
1
 40
1
 40
1
 10
164.240000
 20
39.760000
 30
0.0
 10
167.840000
 20
39.760000
 30
0.0
 10
170.560000
 20
41.040000
 30
0.0
 10
172.480000
 20
43.760000
 30
0.0
  0
SPLINE
  5
212
100
AcDbEntity
  8
0
 62
7
100
AcDbSpline
 70
8
 71
3
 72
8
 73
4
 74
0
 40
0
 40
0
 40
0
 40
0
 40
1
 40
1
 40
1
 40
1
 10
172.480000
 20
43.760000
 30
0.0
 10
174.320000
 20
46.400000
 30
0.0
 10
175.280000
 20
49.920000
 30
0.0
 10
175.280000
 20
54.320000
 30
0.0
  0
SPLINE
  5
213
100
AcDbEntity
  8
0
 62
7
100
AcDbSpline
 70
8
 71
3
 72
8
 73
4
 74
0
 40
0
 40
0
 40
0
 40
0
 40
1
 40
1
 40
1
 40
1
 10
175.280000
 20
54.320000
 30
0.0
 10
175.280000
 20
58.960000
 30
0.0
 10
174.160000
 20
62.480000
 30
0.0
 10
172.080000
 20
64.800000
 30
0.0
  0
SPLINE
  5
214
100
AcDbEntity
  8
0
 62
7
100
AcDbSpline
 70
8
 71
3
 72
8
 73
4
 74
0
 40
0
 40
0
 40
0
 40
0
 40
1
 40
1
 40
1
 40
1
 10
172.080000
 20
64.800000
 30
0.0
 10
169.920000
 20
67.200000
 30
0.0
 10
167.360000
 20
68.400000
 30
0.0
 10
164.240000
 20
68.400000
 30
0.0
  0
SPLINE
  5
215
100
AcDbEntity
  8
0
 62
7
100
AcDbSpline
 70
8
 71
3
 72
8
 73
4
 74
0
 40
0
 40
0
 40
0
 40
0
 40
1
 40
1
 40
1
 40
1
 10
164.240000
 20
68.400000
 30
0.0
 10
161.040000
 20
68.400000
 30
0.0
 10
158.400000
 20
67.200000
 30
0.0
 10
156.320000
 20
64.800000
 30
0.0
  0
SPLINE
  5
216
100
AcDbEntity
  8
0
 62
7
100
AcDbSpline
 70
8
 71
3
 72
8
 73
4
 74
0
 40
0
 40
0
 40
0
 40
0
 40
1
 40
1
 40
1
 40
1
 10
156.320000
 20
64.800000
 30
0.0
 10
154.240000
 20
62.400000
 30
0.0
 10
153.200000
 20
58.800000
 30
0.0
 10
153.200000
 20
54.000000
 30
0.0
  0
SPLINE
  5
217
100
AcDbEntity
  8
0
 62
7
100
AcDbSpline
 70
8
 71
3
 72
8
 73
4
 74
0
 40
0
 40
0
 40
0
 40
0
 40
1
 40
1
 40
1
 40
1
 10
153.200000
 20
54.000000
 30
0.0
 10
153.200000
 20
49.280000
 30
0.0
 10
154.240000
 20
45.760000
 30
0.0
 10
156.400000
 20
43.360000
 30
0.0
  0
SPLINE
  5
218
100
AcDbEntity
  8
0
 62
7
100
AcDbSpline
 70
8
 71
3
 72
8
 73
4
 74
0
 40
0
 40
0
 40
0
 40
0
 40
1
 40
1
 40
1
 40
1
 10
156.400000
 20
43.360000
 30
0.0
 10
158.480000
 20
40.960000
 30
0.0
 10
161.040000
 20
39.760000
 30
0.0
 10
164.240000
 20
39.760000
 30
0.0
  0
LINE
  5
219
100
AcDbEntity
  8
0
 62
7
100
AcDbLine
 10
164.240000
 20
39.760000
 30
0.0
 11
164.240000
 21
39.760000
 31
0.0
  0
LINE
  5
21a
100
AcDbEntity
  8
0
 62
7
100
AcDbLine
 10
219.280000
 20
35.440000
 30
0.0
 11
213.680000
 21
35.440000
 31
0.0
  0
LINE
  5
21b
100
AcDbEntity
  8
0
 62
7
100
AcDbLine
 10
213.680000
 20
35.440000
 30
0.0
 11
213.680000
 21
40.880000
 31
0.0
  0
LINE
  5
21c
100
AcDbEntity
  8
0
 62
7
100
AcDbLine
 10
213.680000
 20
40.880000
 30
0.0
 11
213.440000
 21
40.880000
 31
0.0
  0
SPLINE
  5
21d
100
AcDbEntity
  8
0
 62
7
100
AcDbSpline
 70
8
 71
3
 72
8
 73
4
 74
0
 40
0
 40
0
 40
0
 40
0
 40
1
 40
1
 40
1
 40
1
 10
213.440000
 20
40.880000
 30
0.0
 10
210.640000
 20
36.640000
 30
0.0
 10
206.720000
 20
34.560000
 30
0.0
 10
201.760000
 20
34.560000
 30
0.0
  0
SPLINE
  5
21e
100
AcDbEntity
  8
0
 62
7
100
AcDbSpline
 70
8
 71
3
 72
8
 73
4
 74
0
 40
0
 40
0
 40
0
 40
0
 40
1
 40
1
 40
1
 40
1
 10
201.760000
 20
34.560000
 30
0.0
 10
199.200000
 20
34.560000
 30
0.0
 10
196.720000
 20
35.120000
 30
0.0
 10
194.560000
 20
36.320000
 30
0.0
  0
SPLINE
  5
21f
100
AcDbEntity
  8
0
 62
7
100
AcDbSpline
 70
8
 71
3
 72
8
 73
4
 74
0
 40
0
 40
0
 40
0
 40
0
 40
1
 40
1
 40
1
 40
1
 10
194.560000
 20
36.320000
 30
0.0
 10
192.320000
 20
37.520000
 30
0.0
 10
190.880000
 20
39.200000
 30
0.0
 10
190.080000
 20
41.360000
 30
0.0
  0
SPLINE
  5
220
100
AcDbEntity
  8
0
 62
7
100
AcDbSpline
 70
8
 71
3
 72
8
 73
4
 74
0
 40
0
 40
0
 40
0
 40
0
 40
1
 40
1
 40
1
 40
1
 10
190.080000
 20
41.360000
 30
0.0
 10
189.360000
 20
43.440000
 30
0.0
 10
189.040000
 20
46.160000
 30
0.0
 10
189.040000
 20
49.600000
 30
0.0
  0
LINE
  5
221
100
AcDbEntity
  8
0
 62
7
100
AcDbLine
 10
189.040000
 20
49.600000
 30
0.0
 11
189.040000
 21
72.720000
 31
0.0
  0
LINE
  5
222
100
AcDbEntity
  8
0
 62
7
100
AcDbLine
 10
189.040000
 20
72.720000
 30
0.0
 11
195.360000
 21
72.720000
 31
0.0
  0
LINE
  5
223
100
AcDbEntity
  8
0
 62
7
100
AcDbLine
 10
195.360000
 20
72.720000
 30
0.0
 11
195.360000
 21
52.000000
 31
0.0
  0
SPLINE
  5
224
100
AcDbEntity
  8
0
 62
7
100
AcDbSpline
 70
8
 71
3
 72
8
 73
4
 74
0
 40
0
 40
0
 40
0
 40
0
 40
1
 40
1
 40
1
 40
1
 10
195.360000
 20
52.000000
 30
0.0
 10
195.360000
 20
48.720000
 30
0.0
 10
195.520000
 20
46.400000
 30
0.0
 10
195.840000
 20
44.960000
 30
0.0
  0
SPLINE
  5
225
100
AcDbEntity
  8
0
 62
7
100
AcDbSpline
 70
8
 71
3
 72
8
 73
4
 74
0
 40
0
 40
0
 40
0
 40
0
 40
1
 40
1
 40
1
 40
1
 10
195.840000
 20
44.960000
 30
0.0
 10
196.160000
 20
43.520000
 30
0.0
 10
196.960000
 20
42.320000
 30
0.0
 10
198.320000
 20
41.440000
 30
0.0
  0
SPLINE
  5
226
100
AcDbEntity
  8
0
 62
7
100
AcDbSpline
 70
8
 71
3
 72
8
 73
4
 74
0
 40
0
 40
0
 40
0
 40
0
 40
1
 40
1
 40
1
 40
1
 10
198.320000
 20
41.440000
 30
0.0
 10
199.600000
 20
40.480000
 30
0.0
 10
201.200000
 20
40.000000
 30
0.0
 10
203.040000
 20
40.000000
 30
0.0
  0
SPLINE
  5
227
100
AcDbEntity
  8
0
 62
7
100
AcDbSpline
 70
8
 71
3
 72
8
 73
4
 74
0
 40
0
 40
0
 40
0
 40
0
 40
1
 40
1
 40
1
 40
1
 10
203.040000
 20
40.000000
 30
0.0
 10
205.440000
 20
40.000000
 30
0.0
 10
207.680000
 20
40.800000
 30
0.0
 10
209.840000
 20
42.480000
 30
0.0
  0
SPLINE
  5
228
100
AcDbEntity
  8
0
 62
7
100
AcDbSpline
 70
8
 71
3
 72
8
 73
4
 74
0
 40
0
 40
0
 40
0
 40
0
 40
1
 40
1
 40
1
 40
1
 10
209.840000
 20
42.480000
 30
0.0
 10
211.920000
 20
44.160000
 30
0.0
 10
212.960000
 20
47.600000
 30
0.0
 10
212.960000
 20
52.800000
 30
0.0
  0
LINE
  5
229
100
AcDbEntity
  8
0
 62
7
100
AcDbLine
 10
212.960000
 20
52.800000
 30
0.0
 11
212.960000
 21
72.720000
 31
0.0
  0
LINE
  5
22a
100
AcDbEntity
  8
0
 62
7
100
AcDbLine
 10
212.960000
 20
72.720000
 30
0.0
 11
219.280000
 21
72.720000
 31
0.0
  0
LINE
  5
22b
100
AcDbEntity
  8
0
 62
7
100
AcDbLine
 10
219.280000
 20
72.720000
 30
0.0
 11
219.280000
 21
35.440000
 31
0.0
  0
LINE
  5
22c
100
AcDbEntity
  8
0
 62
7
100
AcDbLine
 10
219.280000
 20
35.440000
 30
0.0
 11
219.280000
 21
35.440000
 31
0.0
  0
LINE
  5
22d
100
AcDbEntity
  8
0
 62
7
100
AcDbLine
 10
235.440000
 20
35.440000
 30
0.0
 11
229.120000
 21
35.440000
 31
0.0
  0
LINE
  5
22e
100
AcDbEntity
  8
0
 62
7
100
AcDbLine
 10
229.120000
 20
35.440000
 30
0.0
 11
229.120000
 21
72.720000
 31
0.0
  0
LINE
  5
22f
100
AcDbEntity
  8
0
 62
7
100
AcDbLine
 10
229.120000
 20
72.720000
 30
0.0
 11
235.440000
 21
72.720000
 31
0.0
  0
LINE
  5
230
100
AcDbEntity
  8
0
 62
7
100
AcDbLine
 10
235.440000
 20
72.720000
 30
0.0
 11
235.440000
 21
35.440000
 31
0.0
  0
LINE
  5
231
100
AcDbEntity
  8
0
 62
7
100
AcDbLine
 10
235.440000
 20
35.440000
 30
0.0
 11
235.440000
 21
35.440000
 31
0.0
  0
LINE
  5
232
100
AcDbEntity
  8
0
 62
7
100
AcDbLine
 10
235.440000
 20
79.760000
 30
0.0
 11
229.120000
 21
79.760000
 31
0.0
  0
LINE
  5
233
100
AcDbEntity
  8
0
 62
7
100
AcDbLine
 10
229.120000
 20
79.760000
 30
0.0
 11
229.120000
 21
86.960000
 31
0.0
  0
LINE
  5
234
100
AcDbEntity
  8
0
 62
7
100
AcDbLine
 10
229.120000
 20
86.960000
 30
0.0
 11
235.440000
 21
86.960000
 31
0.0
  0
LINE
  5
235
100
AcDbEntity
  8
0
 62
7
100
AcDbLine
 10
235.440000
 20
86.960000
 30
0.0
 11
235.440000
 21
79.760000
 31
0.0
  0
LINE
  5
236
100
AcDbEntity
  8
0
 62
7
100
AcDbLine
 10
235.440000
 20
79.760000
 30
0.0
 11
235.440000
 21
79.760000
 31
0.0
  0
LINE
  5
237
100
AcDbEntity
  8
0
 62
7
100
AcDbLine
 10
251.440000
 20
35.440000
 30
0.0
 11
245.120000
 21
35.440000
 31
0.0
  0
LINE
  5
238
100
AcDbEntity
  8
0
 62
7
100
AcDbLine
 10
245.120000
 20
35.440000
 30
0.0
 11
245.120000
 21
86.960000
 31
0.0
  0
LINE
  5
239
100
AcDbEntity
  8
0
 62
7
100
AcDbLine
 10
245.120000
 20
86.960000
 30
0.0
 11
251.440000
 21
86.960000
 31
0.0
  0
LINE
  5
23a
100
AcDbEntity
  8
0
 62
7
100
AcDbLine
 10
251.440000
 20
86.960000
 30
0.0
 11
251.440000
 21
35.440000
 31
0.0
  0
LINE
  5
23b
100
AcDbEntity
  8
0
 62
7
100
AcDbLine
 10
251.440000
 20
35.440000
 30
0.0
 11
251.440000
 21
35.440000
 31
0.0
  0
LINE
  5
23c
100
AcDbEntity
  8
0
 62
7
100
AcDbLine
 10
267.440000
 20
35.440000
 30
0.0
 11
261.120000
 21
35.440000
 31
0.0
  0
LINE
  5
23d
100
AcDbEntity
  8
0
 62
7
100
AcDbLine
 10
261.120000
 20
35.440000
 30
0.0
 11
261.120000
 21
86.960000
 31
0.0
  0
LINE
  5
23e
100
AcDbEntity
  8
0
 62
7
100
AcDbLine
 10
261.120000
 20
86.960000
 30
0.0
 11
267.440000
 21
86.960000
 31
0.0
  0
LINE
  5
23f
100
AcDbEntity
  8
0
 62
7
100
AcDbLine
 10
267.440000
 20
86.960000
 30
0.0
 11
267.440000
 21
35.440000
 31
0.0
  0
LINE
  5
240
100
AcDbEntity
  8
0
 62
7
100
AcDbLine
 10
267.440000
 20
35.440000
 30
0.0
 11
267.440000
 21
35.440000
 31
0.0
  0
LINE
  5
241
100
AcDbEntity
  8
0
 62
7
100
AcDbLine
 10
309.520000
 20
52.480000
 30
0.0
 11
281.600000
 21
52.480000
 31
0.0
  0
SPLINE
  5
242
100
AcDbEntity
  8
0
 62
7
100
AcDbSpline
 70
8
 71
3
 72
8
 73
4
 74
0
 40
0
 40
0
 40
0
 40
0
 40
1
 40
1
 40
1
 40
1
 10
281.600000
 20
52.480000
 30
0.0
 10
281.840000
 20
48.320000
 30
0.0
 10
283.040000
 20
45.200000
 30
0.0
 10
285.120000
 20
43.040000
 30
0.0
  0
SPLINE
  5
243
100
AcDbEntity
  8
0
 62
7
100
AcDbSpline
 70
8
 71
3
 72
8
 73
4
 74
0
 40
0
 40
0
 40
0
 40
0
 40
1
 40
1
 40
1
 40
1
 10
285.120000
 20
43.040000
 30
0.0
 10
287.200000
 20
40.800000
 30
0.0
 10
289.840000
 20
39.760000
 30
0.0
 10
292.960000
 20
39.760000
 30
0.0
  0
SPLINE
  5
244
100
AcDbEntity
  8
0
 62
7
100
AcDbSpline
 70
8
 71
3
 72
8
 73
4
 74
0
 40
0
 40
0
 40
0
 40
0
 40
1
 40
1
 40
1
 40
1
 10
292.960000
 20
39.760000
 30
0.0
 10
295.360000
 20
39.760000
 30
0.0
 10
297.440000
 20
40.400000
 30
0.0
 10
299.040000
 20
41.680000
 30
0.0
  0
SPLINE
  5
245
100
AcDbEntity
  8
0
 62
7
100
AcDbSpline
 70
8
 71
3
 72
8
 73
4
 74
0
 40
0
 40
0
 40
0
 40
0
 40
1
 40
1
 40
1
 40
1
 10
299.040000
 20
41.680000
 30
0.0
 10
300.720000
 20
42.960000
 30
0.0
 10
301.920000
 20
44.880000
 30
0.0
 10
302.800000
 20
47.440000
 30
0.0
  0
LINE
  5
246
100
AcDbEntity
  8
0
 62
7
100
AcDbLine
 10
302.800000
 20
47.440000
 30
0.0
 11
309.280000
 21
46.640000
 31
0.0
  0
SPLINE
  5
247
100
AcDbEntity
  8
0
 62
7
100
AcDbSpline
 70
8
 71
3
 72
8
 73
4
 74
0
 40
0
 40
0
 40
0
 40
0
 40
1
 40
1
 40
1
 40
1
 10
309.280000
 20
46.640000
 30
0.0
 10
308.240000
 20
42.720000
 30
0.0
 10
306.320000
 20
39.760000
 30
0.0
 10
303.520000
 20
37.680000
 30
0.0
  0
SPLINE
  5
248
100
AcDbEntity
  8
0
 62
7
100
AcDbSpline
 70
8
 71
3
 72
8
 73
4
 74
0
 40
0
 40
0
 40
0
 40
0
 40
1
 40
1
 40
1
 40
1
 10
303.520000
 20
37.680000
 30
0.0
 10
300.720000
 20
35.600000
 30
0.0
 10
297.200000
 20
34.560000
 30
0.0
 10
292.960000
 20
34.560000
 30
0.0
  0
SPLINE
  5
249
100
AcDbEntity
  8
0
 62
7
100
AcDbSpline
 70
8
 71
3
 72
8
 73
4
 74
0
 40
0
 40
0
 40
0
 40
0
 40
1
 40
1
 40
1
 40
1
 10
292.960000
 20
34.560000
 30
0.0
 10
287.360000
 20
34.560000
 30
0.0
 10
282.960000
 20
36.240000
 30
0.0
 10
279.840000
 20
39.680000
 30
0.0
  0
SPLINE
  5
24a
100
AcDbEntity
  8
0
 62
7
100
AcDbSpline
 70
8
 71
3
 72
8
 73
4
 74
0
 40
0
 40
0
 40
0
 40
0
 40
1
 40
1
 40
1
 40
1
 10
279.840000
 20
39.680000
 30
0.0
 10
276.640000
 20
43.120000
 30
0.0
 10
275.120000
 20
47.840000
 30
0.0
 10
275.120000
 20
53.760000
 30
0.0
  0
SPLINE
  5
24b
100
AcDbEntity
  8
0
 62
7
100
AcDbSpline
 70
8
 71
3
 72
8
 73
4
 74
0
 40
0
 40
0
 40
0
 40
0
 40
1
 40
1
 40
1
 40
1
 10
275.120000
 20
53.760000
 30
0.0
 10
275.120000
 20
59.680000
 30
0.0
 10
276.640000
 20
64.400000
 30
0.0
 10
279.680000
 20
68.080000
 30
0.0
  0
SPLINE
  5
24c
100
AcDbEntity
  8
0
 62
7
100
AcDbSpline
 70
8
 71
3
 72
8
 73
4
 74
0
 40
0
 40
0
 40
0
 40
0
 40
1
 40
1
 40
1
 40
1
 10
279.680000
 20
68.080000
 30
0.0
 10
282.720000
 20
71.760000
 30
0.0
 10
287.040000
 20
73.520000
 30
0.0
 10
292.640000
 20
73.520000
 30
0.0
  0
SPLINE
  5
24d
100
AcDbEntity
  8
0
 62
7
100
AcDbSpline
 70
8
 71
3
 72
8
 73
4
 74
0
 40
0
 40
0
 40
0
 40
0
 40
1
 40
1
 40
1
 40
1
 10
292.640000
 20
73.520000
 30
0.0
 10
295.360000
 20
73.520000
 30
0.0
 10
297.920000
 20
72.960000
 30
0.0
 10
300.480000
 20
71.760000
 30
0.0
  0
SPLINE
  5
24e
100
AcDbEntity
  8
0
 62
7
100
AcDbSpline
 70
8
 71
3
 72
8
 73
4
 74
0
 40
0
 40
0
 40
0
 40
0
 40
1
 40
1
 40
1
 40
1
 10
300.480000
 20
71.760000
 30
0.0
 10
302.960000
 20
70.560000
 30
0.0
 10
305.120000
 20
68.560000
 30
0.0
 10
306.880000
 20
65.680000
 30
0.0
  0
SPLINE
  5
24f
100
AcDbEntity
  8
0
 62
7
100
AcDbSpline
 70
8
 71
3
 72
8
 73
4
 74
0
 40
0
 40
0
 40
0
 40
0
 40
1
 40
1
 40
1
 40
1
 10
306.880000
 20
65.680000
 30
0.0
 10
308.640000
 20
62.800000
 30
0.0
 10
309.520000
 20
58.400000
 30
0.0
 10
309.520000
 20
52.480000
 30
0.0
  0
LINE
  5
250
100
AcDbEntity
  8
0
 62
7
100
AcDbLine
 10
309.520000
 20
52.480000
 30
0.0
 11
309.520000
 21
52.480000
 31
0.0
  0
SPLINE
  5
251
100
AcDbEntity
  8
0
 62
7
100
AcDbSpline
 70
8
 71
3
 72
8
 73
4
 74
0
 40
0
 40
0
 40
0
 40
0
 40
1
 40
1
 40
1
 40
1
 10
303.040000
 20
57.680000
 30
0.0
 10
302.720000
 20
61.440000
 30
0.0
 10
301.600000
 20
64.160000
 30
0.0
 10
299.520000
 20
65.840000
 30
0.0
  0
SPLINE
  5
252
100
AcDbEntity
  8
0
 62
7
100
AcDbSpline
 70
8
 71
3
 72
8
 73
4
 74
0
 40
0
 40
0
 40
0
 40
0
 40
1
 40
1
 40
1
 40
1
 10
299.520000
 20
65.840000
 30
0.0
 10
297.360000
 20
67.520000
 30
0.0
 10
295.120000
 20
68.400000
 30
0.0
 10
292.640000
 20
68.400000
 30
0.0
  0
SPLINE
  5
253
100
AcDbEntity
  8
0
 62
7
100
AcDbSpline
 70
8
 71
3
 72
8
 73
4
 74
0
 40
0
 40
0
 40
0
 40
0
 40
1
 40
1
 40
1
 40
1
 10
292.640000
 20
68.400000
 30
0.0
 10
289.600000
 20
68.400000
 30
0.0
 10
287.200000
 20
67.360000
 30
0.0
 10
285.280000
 20
65.360000
 30
0.0
  0
SPLINE
  5
254
100
AcDbEntity
  8
0
 62
7
100
AcDbSpline
 70
8
 71
3
 72
8
 73
4
 74
0
 40
0
 40
0
 40
0
 40
0
 40
1
 40
1
 40
1
 40
1
 10
285.280000
 20
65.360000
 30
0.0
 10
283.360000
 20
63.440000
 30
0.0
 10
282.240000
 20
60.800000
 30
0.0
 10
281.920000
 20
57.680000
 30
0.0
  0
LINE
  5
255
100
AcDbEntity
  8
0
 62
7
100
AcDbLine
 10
281.920000
 20
57.680000
 30
0.0
 11
303.040000
 21
57.680000
 31
0.0
  0
LINE
  5
256
100
AcDbEntity
  8
0
 62
7
100
AcDbLine
 10
303.040000
 20
57.680000
 30
0.0
 11
303.040000
 21
57.680000
 31
0.0
  0
LINE
  5
257
100
AcDbEntity
  8
0
 62
7
100
AcDbLine
 10
325.920000
 20
35.440000
 30
0.0
 11
318.720000
 21
35.440000
 31
0.0
  0
LINE
  5
258
100
AcDbEntity
  8
0
 62
7
100
AcDbLine
 10
318.720000
 20
35.440000
 30
0.0
 11
318.720000
 21
42.640000
 31
0.0
  0
LINE
  5
259
100
AcDbEntity
  8
0
 62
7
100
AcDbLine
 10
318.720000
 20
42.640000
 30
0.0
 11
325.920000
 21
42.640000
 31
0.0
  0
LINE
  5
25a
100
AcDbEntity
  8
0
 62
7
100
AcDbLine
 10
325.920000
 20
42.640000
 30
0.0
 11
325.920000
 21
35.440000
 31
0.0
  0
LINE
  5
25b
100
AcDbEntity
  8
0
 62
7
100
AcDbLine
 10
325.920000
 20
35.440000
 30
0.0
 11
325.920000
 21
35.440000
 31
0.0
  0
LINE
  5
25c
100
AcDbEntity
  8
0
 62
7
100
AcDbLine
 10
354.720000
 20
87.200000
 30
0.0
 11
353.760000
 21
81.600000
 31
0.0
  0
SPLINE
  5
25d
100
AcDbEntity
  8
0
 62
7
100
AcDbSpline
 70
8
 71
3
 72
8
 73
4
 74
0
 40
0
 40
0
 40
0
 40
0
 40
1
 40
1
 40
1
 40
1
 10
353.760000
 20
81.600000
 30
0.0
 10
352.480000
 20
81.840000
 30
0.0
 10
351.280000
 20
82.000000
 30
0.0
 10
350.080000
 20
82.000000
 30
0.0
  0
SPLINE
  5
25e
100
AcDbEntity
  8
0
 62
7
100
AcDbSpline
 70
8
 71
3
 72
8
 73
4
 74
0
 40
0
 40
0
 40
0
 40
0
 40
1
 40
1
 40
1
 40
1
 10
350.080000
 20
82.000000
 30
0.0
 10
348.560000
 20
82.000000
 30
0.0
 10
347.280000
 20
81.680000
 30
0.0
 10
346.320000
 20
81.040000
 30
0.0
  0
SPLINE
  5
25f
100
AcDbEntity
  8
0
 62
7
100
AcDbSpline
 70
8
 71
3
 72
8
 73
4
 74
0
 40
0
 40
0
 40
0
 40
0
 40
1
 40
1
 40
1
 40
1
 10
346.320000
 20
81.040000
 30
0.0
 10
345.360000
 20
80.400000
 30
0.0
 10
344.880000
 20
78.800000
 30
0.0
 10
344.880000
 20
76.240000
 30
0.0
  0
LINE
  5
260
100
AcDbEntity
  8
0
 62
7
100
AcDbLine
 10
344.880000
 20
76.240000
 30
0.0
 11
344.880000
 21
72.720000
 31
0.0
  0
LINE
  5
261
100
AcDbEntity
  8
0
 62
7
100
AcDbLine
 10
344.880000
 20
72.720000
 30
0.0
 11
352.080000
 21
72.720000
 31
0.0
  0
LINE
  5
262
100
AcDbEntity
  8
0
 62
7
100
AcDbLine
 10
352.080000
 20
72.720000
 30
0.0
 11
352.080000
 21
67.840000
 31
0.0
  0
LINE
  5
263
100
AcDbEntity
  8
0
 62
7
100
AcDbLine
 10
352.080000
 20
67.840000
 30
0.0
 11
344.880000
 21
67.840000
 31
0.0
  0
LINE
  5
264
100
AcDbEntity
  8
0
 62
7
100
AcDbLine
 10
344.880000
 20
67.840000
 30
0.0
 11
344.880000
 21
35.440000
 31
0.0
  0
LINE
  5
265
100
AcDbEntity
  8
0
 62
7
100
AcDbLine
 10
344.880000
 20
35.440000
 30
0.0
 11
338.560000
 21
35.440000
 31
0.0
  0
LINE
  5
266
100
AcDbEntity
  8
0
 62
7
100
AcDbLine
 10
338.560000
 20
35.440000
 30
0.0
 11
338.560000
 21
67.840000
 31
0.0
  0
LINE
  5
267
100
AcDbEntity
  8
0
 62
7
100
AcDbLine
 10
338.560000
 20
67.840000
 30
0.0
 11
332.880000
 21
67.840000
 31
0.0
  0
LINE
  5
268
100
AcDbEntity
  8
0
 62
7
100
AcDbLine
 10
332.880000
 20
67.840000
 30
0.0
 11
332.880000
 21
72.720000
 31
0.0
  0
LINE
  5
269
100
AcDbEntity
  8
0
 62
7
100
AcDbLine
 10
332.880000
 20
72.720000
 30
0.0
 11
338.560000
 21
72.720000
 31
0.0
  0
LINE
  5
26a
100
AcDbEntity
  8
0
 62
7
100
AcDbLine
 10
338.560000
 20
72.720000
 30
0.0
 11
338.560000
 21
76.720000
 31
0.0
  0
SPLINE
  5
26b
100
AcDbEntity
  8
0
 62
7
100
AcDbSpline
 70
8
 71
3
 72
8
 73
4
 74
0
 40
0
 40
0
 40
0
 40
0
 40
1
 40
1
 40
1
 40
1
 10
338.560000
 20
76.720000
 30
0.0
 10
338.560000
 20
78.640000
 30
0.0
 10
338.720000
 20
80.320000
 30
0.0
 10
339.040000
 20
81.840000
 30
0.0
  0
SPLINE
  5
26c
100
AcDbEntity
  8
0
 62
7
100
AcDbSpline
 70
8
 71
3
 72
8
 73
4
 74
0
 40
0
 40
0
 40
0
 40
0
 40
1
 40
1
 40
1
 40
1
 10
339.040000
 20
81.840000
 30
0.0
 10
339.440000
 20
83.360000
 30
0.0
 10
340.320000
 20
84.720000
 30
0.0
 10
341.840000
 20
86.000000
 30
0.0
  0
SPLINE
  5
26d
100
AcDbEntity
  8
0
 62
7
100
AcDbSpline
 70
8
 71
3
 72
8
 73
4
 74
0
 40
0
 40
0
 40
0
 40
0
 40
1
 40
1
 40
1
 40
1
 10
341.840000
 20
86.000000
 30
0.0
 10
343.360000
 20
87.200000
 30
0.0
 10
345.680000
 20
87.840000
 30
0.0
 10
348.800000
 20
87.840000
 30
0.0
  0
SPLINE
  5
26e
100
AcDbEntity
  8
0
 62
7
100
AcDbSpline
 70
8
 71
3
 72
8
 73
4
 74
0
 40
0
 40
0
 40
0
 40
0
 40
1
 40
1
 40
1
 40
1
 10
348.800000
 20
87.840000
 30
0.0
 10
350.720000
 20
87.840000
 30
0.0
 10
352.640000
 20
87.600000
 30
0.0
 10
354.720000
 20
87.200000
 30
0.0
  0
LINE
  5
26f
100
AcDbEntity
  8
0
 62
7
100
AcDbLine
 10
354.720000
 20
87.200000
 30
0.0
 11
354.720000
 21
87.200000
 31
0.0
  0
LINE
  5
270
100
AcDbEntity
  8
0
 62
7
100
AcDbLine
 10
377.280000
 20
71.520000
 30
0.0
 11
375.120000
 21
65.680000
 31
0.0
  0
SPLINE
  5
271
100
AcDbEntity
  8
0
 62
7
100
AcDbSpline
 70
8
 71
3
 72
8
 73
4
 74
0
 40
0
 40
0
 40
0
 40
0
 40
1
 40
1
 40
1
 40
1
 10
375.120000
 20
65.680000
 30
0.0
 10
373.520000
 20
66.640000
 30
0.0
 10
372.000000
 20
67.120000
 30
0.0
 10
370.480000
 20
67.120000
 30
0.0
  0
SPLINE
  5
272
100
AcDbEntity
  8
0
 62
7
100
AcDbSpline
 70
8
 71
3
 72
8
 73
4
 74
0
 40
0
 40
0
 40
0
 40
0
 40
1
 40
1
 40
1
 40
1
 10
370.480000
 20
67.120000
 30
0.0
 10
368.080000
 20
67.120000
 30
0.0
 10
366.320000
 20
66.000000
 30
0.0
 10
365.120000
 20
63.920000
 30
0.0
  0
SPLINE
  5
273
100
AcDbEntity
  8
0
 62
7
100
AcDbSpline
 70
8
 71
3
 72
8
 73
4
 74
0
 40
0
 40
0
 40
0
 40
0
 40
1
 40
1
 40
1
 40
1
 10
365.120000
 20
63.920000
 30
0.0
 10
363.920000
 20
61.760000
 30
0.0
 10
363.280000
 20
58.800000
 30
0.0
 10
363.280000
 20
54.960000
 30
0.0
  0
LINE
  5
274
100
AcDbEntity
  8
0
 62
7
100
AcDbLine
 10
363.280000
 20
54.960000
 30
0.0
 11
363.280000
 21
35.440000
 31
0.0
  0
LINE
  5
275
100
AcDbEntity
  8
0
 62
7
100
AcDbLine
 10
363.280000
 20
35.440000
 30
0.0
 11
356.960000
 21
35.440000
 31
0.0
  0
LINE
  5
276
100
AcDbEntity
  8
0
 62
7
100
AcDbLine
 10
356.960000
 20
35.440000
 30
0.0
 11
356.960000
 21
72.720000
 31
0.0
  0
LINE
  5
277
100
AcDbEntity
  8
0
 62
7
100
AcDbLine
 10
356.960000
 20
72.720000
 30
0.0
 11
362.720000
 21
72.720000
 31
0.0
  0
LINE
  5
278
100
AcDbEntity
  8
0
 62
7
100
AcDbLine
 10
362.720000
 20
72.720000
 30
0.0
 11
362.720000
 21
67.120000
 31
0.0
  0
LINE
  5
279
100
AcDbEntity
  8
0
 62
7
100
AcDbLine
 10
362.720000
 20
67.120000
 30
0.0
 11
362.880000
 21
67.120000
 31
0.0
  0
SPLINE
  5
27a
100
AcDbEntity
  8
0
 62
7
100
AcDbSpline
 70
8
 71
3
 72
8
 73
4
 74
0
 40
0
 40
0
 40
0
 40
0
 40
1
 40
1
 40
1
 40
1
 10
362.880000
 20
67.120000
 30
0.0
 10
364.880000
 20
71.360000
 30
0.0
 10
367.520000
 20
73.520000
 30
0.0
 10
370.800000
 20
73.520000
 30
0.0
  0
SPLINE
  5
27b
100
AcDbEntity
  8
0
 62
7
100
AcDbSpline
 70
8
 71
3
 72
8
 73
4
 74
0
 40
0
 40
0
 40
0
 40
0
 40
1
 40
1
 40
1
 40
1
 10
370.800000
 20
73.520000
 30
0.0
 10
372.880000
 20
73.520000
 30
0.0
 10
375.120000
 20
72.880000
 30
0.0
 10
377.280000
 20
71.520000
 30
0.0
  0
LINE
  5
27c
100
AcDbEntity
  8
0
 62
7
100
AcDbLine
 10
377.280000
 20
71.520000
 30
0.0
 11
377.280000
 21
71.520000
 31
0.0
  0
ENDSEC
  0
SECTION
  2
OBJECTS
  0
DICTIONARY
  5
C
330
0
100
AcDbDictionary
  3
ACAD_GROUP
350
D
  3
ACAD_MLINESTYLE
350
17
  0
DICTIONARY
  5
D
330
C
100
AcDbDictionary
  0
DICTIONARY
  5
1A
330
C
100
AcDbDictionary
  0
DICTIONARY
  5
17
330
C
100
AcDbDictionary
  3
STANDARD
350
18
  0
DICTIONARY
  5
19
330
C
100
AcDbDictionary
  0
ENDSEC
  0
EOF
