  0
SECTION
  2
HEADER
  9
$ACADVER
  1
AC1014
  9
$HANDSEED
  5
FFFF
  9
$MEASUREMENT
 70
     1
  0
ENDSEC
  0
SECTION
  2
TABLES
  0
TABLE
  2
VPORT
  5
8
330
0
100
AcDbSymbolTable
 70
     4
  0
VPORT
  5
2E
330
8
100
AcDbSymbolTableRecord
100
AcDbViewportTableRecord
  2
*ACTIVE
 70
     0
 10
0.0
 20
0.0
 11
1.0
 21
1.0
 12
210.0
 22
148.5
 13
0.0
 23
0.0
 14
10.0
 24
10.0
 15
10.0
 25
10.0
 16
0.0
 26
0.0
 36
1.0
 17
0.0
 27
0.0
 37
0.0
 40
341.0
 41
1.24
 42
50.0
 43
0.0
 44
0.0
 50
0.0
 51
0.0
 71
     0
 72
   100
 73
     1
 74
     3
 75
     0
 76
     0
 77
     0
 78
     0
  0
ENDTAB
  0
TABLE
  2
LTYPE
  5
5
330
0
100
AcDbSymbolTable
 70
     1
  0
LTYPE
  5
14
330
5
100
AcDbSymbolTableRecord
100
AcDbLinetypeTableRecord
  2
BYBLOCK
 70
     0
  3

 72
    65
 73
     0
 40
0.0
  0
LTYPE
  5
15
330
5
100
AcDbSymbolTableRecord
100
AcDbLinetypeTableRecord
  2
BYLAYER
 70
     0
  3

 72
    65
 73
     0
 40
0.0
  0
LTYPE
  5
16
330
5
100
AcDbSymbolTableRecord
100
AcDbLinetypeTableRecord
  2
CONTINUOUS
 70
     0
  3
Solid line
 72
    65
 73
     0
 40
0.0
  0
ENDTAB
  0
TABLE
  2
LAYER
  5
2
100
AcDbSymbolTable
 70
1
  0
LAYER
  5
50
100
AcDbSymbolTableRecord
100
AcDbLayerTableRecord
  2
0
 70
0
  6
CONTINUOUS
  0
ENDTAB
  0
TABLE
  2
STYLE
  5
3
330
0
100
AcDbSymbolTable
 70
     1
  0
STYLE
  5
11
330
3
100
AcDbSymbolTableRecord
100
AcDbTextStyleTableRecord
  2
STANDARD
 70
     0
 40
0.0
 41
1.0
 50
0.0
 71
     0
 42
2.5
  3
txt
  4

  0
ENDTAB
  0
TABLE
  2
VIEW
  5
6
330
0
100
AcDbSymbolTable
 70
     0
  0
ENDTAB
  0
TABLE
  2
UCS
  5
7
330
0
100
AcDbSymbolTable
 70
     0
  0
ENDTAB
  0
TABLE
  2
APPID
  5
9
330
0
100
AcDbSymbolTable
 70
     2
  0
APPID
  5
12
330
9
100
AcDbSymbolTableRecord
100
AcDbRegAppTableRecord
  2
ACAD
 70
     0
  0
ENDTAB
  0
TABLE
  2
DIMSTYLE
  5
A
330
0
100
AcDbSymbolTable
 70
     1
  0
DIMSTYLE
105
27
330
A
100
AcDbSymbolTableRecord
100
AcDbDimStyleTableRecord
  2
ISO-25
 70
     0
  3

  4

  5

  6

  7

 40
1.0
 41
2.5
 42
0.625
 43
3.75
 44
1.25
 45
0.0
 46
0.0
 47
0.0
 48
0.0
140
2.5
141
2.5
142
0.0
143
0.03937007874016
144
1.0
145
0.0
146
1.0
147
0.625
 71
     0
 72
     0
 73
     0
 74
     0
 75
     0
 76
     0
 77
     1
 78
     8
170
     0
171
     3
172
     1
173
     0
174
     0
175
     0
176
     0
177
     0
178
     0
270
     2
271
     2
272
     2
273
     2
274
     3
340
11
275
     0
280
     0
281
     0
282
     0
283
     0
284
     8
285
     0
286
     0
287
     3
288
     0
  0
ENDTAB
  0
TABLE
  2
BLOCK_RECORD
  5
1
330
0
100
AcDbSymbolTable
 70
     1
  0
BLOCK_RECORD
  5
1F
330
1
100
AcDbSymbolTableRecord
100
AcDbBlockTableRecord
  2
*MODEL_SPACE
  0
BLOCK_RECORD
  5
1B
330
1
100
AcDbSymbolTableRecord
100
AcDbBlockTableRecord
  2
*PAPER_SPACE
  0
ENDTAB
  0
ENDSEC
  0
SECTION
  2
BLOCKS
  0
BLOCK
  5
20
330
1F
100
AcDbEntity
  8
0
100
AcDbBlockBegin
  2
*MODEL_SPACE
 70
     0
 10
0.0
 20
0.0
 30
0.0
  3
*MODEL_SPACE
  1

  0
ENDBLK
  5
21
330
1F
100
AcDbEntity
  8
0
100
AcDbBlockEnd
  0
BLOCK
  5
1C
330
1B
100
AcDbEntity
 67
     1
  8
0
100
AcDbBlockBegin
  2
*PAPER_SPACE
  1

  0
ENDBLK
  5
1D
330
1B
100
AcDbEntity
 67
     1
  8
0
100
AcDbBlockEnd
  0
ENDSEC
  0
SECTION
  2
ENTITIES
  0
SPLINE
  5
100
100
AcDbEntity
  8
0
 62
7
100
AcDbSpline
 70
8
 71
3
 72
8
 73
4
 74
0
 40
0
 40
0
 40
0
 40
0
 40
1
 40
1
 40
1
 40
1
 10
316.800000
 20
138.560000
 30
0.0
 10
310.480000
 20
147.760000
 30
0.0
 10
309.200000
 20
155.040000
 30
0.0
 10
312.240000
 20
164.400000
 30
0.0
  0
SPLINE
  5
101
100
AcDbEntity
  8
0
 62
7
100
AcDbSpline
 70
8
 71
3
 72
8
 73
4
 74
0
 40
0
 40
0
 40
0
 40
0
 40
1
 40
1
 40
1
 40
1
 10
312.240000
 20
164.400000
 30
0.0
 10
313.120000
 20
166.960000
 30
0.0
 10
314.240000
 20
170.400000
 30
0.0
 10
314.720000
 20
171.920000
 30
0.0
  0
SPLINE
  5
102
100
AcDbEntity
  8
0
 62
7
100
AcDbSpline
 70
8
 71
3
 72
8
 73
4
 74
0
 40
0
 40
0
 40
0
 40
0
 40
1
 40
1
 40
1
 40
1
 10
314.720000
 20
171.920000
 30
0.0
 10
315.200000
 20
173.360000
 30
0.0
 10
315.920000
 20
178.720000
 30
0.0
 10
316.320000
 20
183.680000
 30
0.0
  0
SPLINE
  5
103
100
AcDbEntity
  8
0
 62
7
100
AcDbSpline
 70
8
 71
3
 72
8
 73
4
 74
0
 40
0
 40
0
 40
0
 40
0
 40
1
 40
1
 40
1
 40
1
 10
316.320000
 20
183.680000
 30
0.0
 10
316.720000
 20
188.720000
 30
0.0
 10
317.280000
 20
194.240000
 30
0.0
 10
317.600000
 20
196.000000
 30
0.0
  0
SPLINE
  5
104
100
AcDbEntity
  8
0
 62
7
100
AcDbSpline
 70
8
 71
3
 72
8
 73
4
 74
0
 40
0
 40
0
 40
0
 40
0
 40
1
 40
1
 40
1
 40
1
 10
317.600000
 20
196.000000
 30
0.0
 10
318.080000
 20
198.800000
 30
0.0
 10
317.840000
 20
199.520000
 30
0.0
 10
315.600000
 20
201.760000
 30
0.0
  0
SPLINE
  5
105
100
AcDbEntity
  8
0
 62
7
100
AcDbSpline
 70
8
 71
3
 72
8
 73
4
 74
0
 40
0
 40
0
 40
0
 40
0
 40
1
 40
1
 40
1
 40
1
 10
315.600000
 20
201.760000
 30
0.0
 10
311.200000
 20
206.240000
 30
0.0
 10
310.640000
 20
210.720000
 30
0.0
 10
312.400000
 20
230.640000
 30
0.0
  0
SPLINE
  5
106
100
AcDbEntity
  8
0
 62
7
100
AcDbSpline
 70
8
 71
3
 72
8
 73
4
 74
0
 40
0
 40
0
 40
0
 40
0
 40
1
 40
1
 40
1
 40
1
 10
312.400000
 20
230.640000
 30
0.0
 10
314.080000
 20
250.240000
 30
0.0
 10
313.760000
 20
271.760000
 30
0.0
 10
311.680000
 20
281.440000
 30
0.0
  0
SPLINE
  5
107
100
AcDbEntity
  8
0
 62
7
100
AcDbSpline
 70
8
 71
3
 72
8
 73
4
 74
0
 40
0
 40
0
 40
0
 40
0
 40
1
 40
1
 40
1
 40
1
 10
311.680000
 20
281.440000
 30
0.0
 10
310.400000
 20
286.960000
 30
0.0
 10
309.520000
 20
290.000000
 30
0.0
 10
305.040000
 20
303.520000
 30
0.0
  0
SPLINE
  5
108
100
AcDbEntity
  8
0
 62
7
100
AcDbSpline
 70
8
 71
3
 72
8
 73
4
 74
0
 40
0
 40
0
 40
0
 40
0
 40
1
 40
1
 40
1
 40
1
 10
305.040000
 20
303.520000
 30
0.0
 10
303.040000
 20
309.760000
 30
0.0
 10
302.960000
 20
316.800000
 30
0.0
 10
304.640000
 20
333.120000
 30
0.0
  0
SPLINE
  5
109
100
AcDbEntity
  8
0
 62
7
100
AcDbSpline
 70
8
 71
3
 72
8
 73
4
 74
0
 40
0
 40
0
 40
0
 40
0
 40
1
 40
1
 40
1
 40
1
 10
304.640000
 20
333.120000
 30
0.0
 10
305.760000
 20
344.240000
 30
0.0
 10
305.680000
 20
347.680000
 30
0.0
 10
304.240000
 20
349.600000
 30
0.0
  0
SPLINE
  5
10a
100
AcDbEntity
  8
0
 62
7
100
AcDbSpline
 70
8
 71
3
 72
8
 73
4
 74
0
 40
0
 40
0
 40
0
 40
0
 40
1
 40
1
 40
1
 40
1
 10
304.240000
 20
349.600000
 30
0.0
 10
302.880000
 20
351.360000
 30
0.0
 10
302.320000
 20
354.880000
 30
0.0
 10
301.760000
 20
364.960000
 30
0.0
  0
SPLINE
  5
10b
100
AcDbEntity
  8
0
 62
7
100
AcDbSpline
 70
8
 71
3
 72
8
 73
4
 74
0
 40
0
 40
0
 40
0
 40
0
 40
1
 40
1
 40
1
 40
1
 10
301.760000
 20
364.960000
 30
0.0
 10
301.360000
 20
370.800000
 30
0.0
 10
300.320000
 20
379.840000
 30
0.0
 10
299.280000
 20
385.040000
 30
0.0
  0
SPLINE
  5
10c
100
AcDbEntity
  8
0
 62
7
100
AcDbSpline
 70
8
 71
3
 72
8
 73
4
 74
0
 40
0
 40
0
 40
0
 40
0
 40
1
 40
1
 40
1
 40
1
 10
299.280000
 20
385.040000
 30
0.0
 10
298.240000
 20
390.240000
 30
0.0
 10
296.960000
 20
399.120000
 30
0.0
 10
296.480000
 20
404.800000
 30
0.0
  0
SPLINE
  5
10d
100
AcDbEntity
  8
0
 62
7
100
AcDbSpline
 70
8
 71
3
 72
8
 73
4
 74
0
 40
0
 40
0
 40
0
 40
0
 40
1
 40
1
 40
1
 40
1
 10
296.480000
 20
404.800000
 30
0.0
 10
295.680000
 20
413.600000
 30
0.0
 10
294.000000
 20
423.600000
 30
0.0
 10
292.800000
 20
427.360000
 30
0.0
  0
SPLINE
  5
10e
100
AcDbEntity
  8
0
 62
7
100
AcDbSpline
 70
8
 71
3
 72
8
 73
4
 74
0
 40
0
 40
0
 40
0
 40
0
 40
1
 40
1
 40
1
 40
1
 10
292.800000
 20
427.360000
 30
0.0
 10
288.320000
 20
440.720000
 30
0.0
 10
287.360000
 20
444.800000
 30
0.0
 10
285.760000
 20
459.040000
 30
0.0
  0
SPLINE
  5
10f
100
AcDbEntity
  8
0
 62
7
100
AcDbSpline
 70
8
 71
3
 72
8
 73
4
 74
0
 40
0
 40
0
 40
0
 40
0
 40
1
 40
1
 40
1
 40
1
 10
285.760000
 20
459.040000
 30
0.0
 10
285.360000
 20
462.320000
 30
0.0
 10
284.880000
 20
463.520000
 30
0.0
 10
284.080000
 20
463.360000
 30
0.0
  0
SPLINE
  5
110
100
AcDbEntity
  8
0
 62
7
100
AcDbSpline
 70
8
 71
3
 72
8
 73
4
 74
0
 40
0
 40
0
 40
0
 40
0
 40
1
 40
1
 40
1
 40
1
 10
284.080000
 20
463.360000
 30
0.0
 10
283.440000
 20
463.200000
 30
0.0
 10
278.400000
 20
459.200000
 30
0.0
 10
272.880000
 20
454.480000
 30
0.0
  0
SPLINE
  5
111
100
AcDbEntity
  8
0
 62
7
100
AcDbSpline
 70
8
 71
3
 72
8
 73
4
 74
0
 40
0
 40
0
 40
0
 40
0
 40
1
 40
1
 40
1
 40
1
 10
272.880000
 20
454.480000
 30
0.0
 10
267.360000
 20
449.680000
 30
0.0
 10
261.920000
 20
445.120000
 30
0.0
 10
260.720000
 20
444.320000
 30
0.0
  0
SPLINE
  5
112
100
AcDbEntity
  8
0
 62
7
100
AcDbSpline
 70
8
 71
3
 72
8
 73
4
 74
0
 40
0
 40
0
 40
0
 40
0
 40
1
 40
1
 40
1
 40
1
 10
260.720000
 20
444.320000
 30
0.0
 10
258.800000
 20
442.880000
 30
0.0
 10
255.120000
 20
438.240000
 30
0.0
 10
250.640000
 20
431.520000
 30
0.0
  0
SPLINE
  5
113
100
AcDbEntity
  8
0
 62
7
100
AcDbSpline
 70
8
 71
3
 72
8
 73
4
 74
0
 40
0
 40
0
 40
0
 40
0
 40
1
 40
1
 40
1
 40
1
 10
250.640000
 20
431.520000
 30
0.0
 10
249.680000
 20
430.080000
 30
0.0
 10
247.040000
 20
426.880000
 30
0.0
 10
244.640000
 20
424.400000
 30
0.0
  0
SPLINE
  5
114
100
AcDbEntity
  8
0
 62
7
100
AcDbSpline
 70
8
 71
3
 72
8
 73
4
 74
0
 40
0
 40
0
 40
0
 40
0
 40
1
 40
1
 40
1
 40
1
 10
244.640000
 20
424.400000
 30
0.0
 10
238.400000
 20
417.760000
 30
0.0
 10
238.240000
 20
417.600000
 30
0.0
 10
238.240000
 20
414.560000
 30
0.0
  0
SPLINE
  5
115
100
AcDbEntity
  8
0
 62
7
100
AcDbSpline
 70
8
 71
3
 72
8
 73
4
 74
0
 40
0
 40
0
 40
0
 40
0
 40
1
 40
1
 40
1
 40
1
 10
238.240000
 20
414.560000
 30
0.0
 10
238.240000
 20
411.360000
 30
0.0
 10
236.800000
 20
410.480000
 30
0.0
 10
230.320000
 20
409.520000
 30
0.0
  0
SPLINE
  5
116
100
AcDbEntity
  8
0
 62
7
100
AcDbSpline
 70
8
 71
3
 72
8
 73
4
 74
0
 40
0
 40
0
 40
0
 40
0
 40
1
 40
1
 40
1
 40
1
 10
230.320000
 20
409.520000
 30
0.0
 10
228.240000
 20
409.200000
 30
0.0
 10
226.720000
 20
408.400000
 30
0.0
 10
226.080000
 20
407.280000
 30
0.0
  0
SPLINE
  5
117
100
AcDbEntity
  8
0
 62
7
100
AcDbSpline
 70
8
 71
3
 72
8
 73
4
 74
0
 40
0
 40
0
 40
0
 40
0
 40
1
 40
1
 40
1
 40
1
 10
226.080000
 20
407.280000
 30
0.0
 10
225.200000
 20
405.760000
 30
0.0
 10
225.520000
 20
405.280000
 30
0.0
 10
229.280000
 20
402.400000
 30
0.0
  0
SPLINE
  5
118
100
AcDbEntity
  8
0
 62
7
100
AcDbSpline
 70
8
 71
3
 72
8
 73
4
 74
0
 40
0
 40
0
 40
0
 40
0
 40
1
 40
1
 40
1
 40
1
 10
229.280000
 20
402.400000
 30
0.0
 10
235.040000
 20
398.080000
 30
0.0
 10
245.920000
 20
388.000000
 30
0.0
 10
245.920000
 20
386.960000
 30
0.0
  0
SPLINE
  5
119
100
AcDbEntity
  8
0
 62
7
100
AcDbSpline
 70
8
 71
3
 72
8
 73
4
 74
0
 40
0
 40
0
 40
0
 40
0
 40
1
 40
1
 40
1
 40
1
 10
245.920000
 20
386.960000
 30
0.0
 10
245.920000
 20
386.480000
 30
0.0
 10
246.480000
 20
385.600000
 30
0.0
 10
247.200000
 20
384.960000
 30
0.0
  0
SPLINE
  5
11a
100
AcDbEntity
  8
0
 62
7
100
AcDbSpline
 70
8
 71
3
 72
8
 73
4
 74
0
 40
0
 40
0
 40
0
 40
0
 40
1
 40
1
 40
1
 40
1
 10
247.200000
 20
384.960000
 30
0.0
 10
247.840000
 20
384.320000
 30
0.0
 10
249.120000
 20
381.920000
 30
0.0
 10
249.920000
 20
379.520000
 30
0.0
  0
SPLINE
  5
11b
100
AcDbEntity
  8
0
 62
7
100
AcDbSpline
 70
8
 71
3
 72
8
 73
4
 74
0
 40
0
 40
0
 40
0
 40
0
 40
1
 40
1
 40
1
 40
1
 10
249.920000
 20
379.520000
 30
0.0
 10
251.520000
 20
374.960000
 30
0.0
 10
251.280000
 20
372.400000
 30
0.0
 10
247.520000
 20
348.000000
 30
0.0
  0
SPLINE
  5
11c
100
AcDbEntity
  8
0
 62
7
100
AcDbSpline
 70
8
 71
3
 72
8
 73
4
 74
0
 40
0
 40
0
 40
0
 40
0
 40
1
 40
1
 40
1
 40
1
 10
247.520000
 20
348.000000
 30
0.0
 10
246.000000
 20
338.480000
 30
0.0
 10
247.760000
 20
325.120000
 30
0.0
 10
251.360000
 20
318.720000
 30
0.0
  0
SPLINE
  5
11d
100
AcDbEntity
  8
0
 62
7
100
AcDbSpline
 70
8
 71
3
 72
8
 73
4
 74
0
 40
0
 40
0
 40
0
 40
0
 40
1
 40
1
 40
1
 40
1
 10
251.360000
 20
318.720000
 30
0.0
 10
252.560000
 20
316.560000
 30
0.0
 10
256.240000
 20
313.280000
 30
0.0
 10
263.440000
 20
307.920000
 30
0.0
  0
SPLINE
  5
11e
100
AcDbEntity
  8
0
 62
7
100
AcDbSpline
 70
8
 71
3
 72
8
 73
4
 74
0
 40
0
 40
0
 40
0
 40
0
 40
1
 40
1
 40
1
 40
1
 10
263.440000
 20
307.920000
 30
0.0
 10
265.840000
 20
306.240000
 30
0.0
 10
266.480000
 20
305.120000
 30
0.0
 10
266.480000
 20
303.120000
 30
0.0
  0
SPLINE
  5
11f
100
AcDbEntity
  8
0
 62
7
100
AcDbSpline
 70
8
 71
3
 72
8
 73
4
 74
0
 40
0
 40
0
 40
0
 40
0
 40
1
 40
1
 40
1
 40
1
 10
266.480000
 20
303.120000
 30
0.0
 10
266.480000
 20
300.960000
 30
0.0
 10
267.440000
 20
299.840000
 30
0.0
 10
272.160000
 20
295.760000
 30
0.0
  0
SPLINE
  5
120
100
AcDbEntity
  8
0
 62
7
100
AcDbSpline
 70
8
 71
3
 72
8
 73
4
 74
0
 40
0
 40
0
 40
0
 40
0
 40
1
 40
1
 40
1
 40
1
 10
272.160000
 20
295.760000
 30
0.0
 10
277.520000
 20
291.200000
 30
0.0
 10
277.840000
 20
290.800000
 30
0.0
 10
277.280000
 20
288.320000
 30
0.0
  0
SPLINE
  5
121
100
AcDbEntity
  8
0
 62
7
100
AcDbSpline
 70
8
 71
3
 72
8
 73
4
 74
0
 40
0
 40
0
 40
0
 40
0
 40
1
 40
1
 40
1
 40
1
 10
277.280000
 20
288.320000
 30
0.0
 10
276.880000
 20
286.320000
 30
0.0
 10
277.200000
 20
285.120000
 30
0.0
 10
278.480000
 20
283.680000
 30
0.0
  0
SPLINE
  5
122
100
AcDbEntity
  8
0
 62
7
100
AcDbSpline
 70
8
 71
3
 72
8
 73
4
 74
0
 40
0
 40
0
 40
0
 40
0
 40
1
 40
1
 40
1
 40
1
 10
278.480000
 20
283.680000
 30
0.0
 10
283.680000
 20
277.520000
 30
0.0
 10
281.440000
 20
274.240000
 30
0.0
 10
264.000000
 20
262.400000
 30
0.0
  0
SPLINE
  5
123
100
AcDbEntity
  8
0
 62
7
100
AcDbSpline
 70
8
 71
3
 72
8
 73
4
 74
0
 40
0
 40
0
 40
0
 40
0
 40
1
 40
1
 40
1
 40
1
 10
264.000000
 20
262.400000
 30
0.0
 10
260.240000
 20
259.760000
 30
0.0
 10
257.280000
 20
259.040000
 30
0.0
 10
255.760000
 20
260.160000
 30
0.0
  0
SPLINE
  5
124
100
AcDbEntity
  8
0
 62
7
100
AcDbSpline
 70
8
 71
3
 72
8
 73
4
 74
0
 40
0
 40
0
 40
0
 40
0
 40
1
 40
1
 40
1
 40
1
 10
255.760000
 20
260.160000
 30
0.0
 10
254.800000
 20
260.880000
 30
0.0
 10
254.000000
 20
260.560000
 30
0.0
 10
252.000000
 20
258.560000
 30
0.0
  0
SPLINE
  5
125
100
AcDbEntity
  8
0
 62
7
100
AcDbSpline
 70
8
 71
3
 72
8
 73
4
 74
0
 40
0
 40
0
 40
0
 40
0
 40
1
 40
1
 40
1
 40
1
 10
252.000000
 20
258.560000
 30
0.0
 10
250.640000
 20
257.120000
 30
0.0
 10
249.040000
 20
254.880000
 30
0.0
 10
248.480000
 20
253.520000
 30
0.0
  0
SPLINE
  5
126
100
AcDbEntity
  8
0
 62
7
100
AcDbSpline
 70
8
 71
3
 72
8
 73
4
 74
0
 40
0
 40
0
 40
0
 40
0
 40
1
 40
1
 40
1
 40
1
 10
248.480000
 20
253.520000
 30
0.0
 10
246.880000
 20
249.520000
 30
0.0
 10
245.360000
 20
247.280000
 30
0.0
 10
238.160000
 20
237.920000
 30
0.0
  0
SPLINE
  5
127
100
AcDbEntity
  8
0
 62
7
100
AcDbSpline
 70
8
 71
3
 72
8
 73
4
 74
0
 40
0
 40
0
 40
0
 40
0
 40
1
 40
1
 40
1
 40
1
 10
238.160000
 20
237.920000
 30
0.0
 10
229.920000
 20
227.280000
 30
0.0
 10
230.320000
 20
227.680000
 30
0.0
 10
223.840000
 20
222.480000
 30
0.0
  0
SPLINE
  5
128
100
AcDbEntity
  8
0
 62
7
100
AcDbSpline
 70
8
 71
3
 72
8
 73
4
 74
0
 40
0
 40
0
 40
0
 40
0
 40
1
 40
1
 40
1
 40
1
 10
223.840000
 20
222.480000
 30
0.0
 10
219.760000
 20
219.280000
 30
0.0
 10
218.000000
 20
218.400000
 30
0.0
 10
215.760000
 20
218.400000
 30
0.0
  0
SPLINE
  5
129
100
AcDbEntity
  8
0
 62
7
100
AcDbSpline
 70
8
 71
3
 72
8
 73
4
 74
0
 40
0
 40
0
 40
0
 40
0
 40
1
 40
1
 40
1
 40
1
 10
215.760000
 20
218.400000
 30
0.0
 10
214.160000
 20
218.400000
 30
0.0
 10
207.600000
 20
218.000000
 30
0.0
 10
201.120000
 20
217.440000
 30
0.0
  0
SPLINE
  5
12a
100
AcDbEntity
  8
0
 62
7
100
AcDbSpline
 70
8
 71
3
 72
8
 73
4
 74
0
 40
0
 40
0
 40
0
 40
0
 40
1
 40
1
 40
1
 40
1
 10
201.120000
 20
217.440000
 30
0.0
 10
189.360000
 20
216.480000
 30
0.0
 10
189.280000
 20
216.480000
 30
0.0
 10
187.360000
 20
218.240000
 30
0.0
  0
SPLINE
  5
12b
100
AcDbEntity
  8
0
 62
7
100
AcDbSpline
 70
8
 71
3
 72
8
 73
4
 74
0
 40
0
 40
0
 40
0
 40
0
 40
1
 40
1
 40
1
 40
1
 10
187.360000
 20
218.240000
 30
0.0
 10
185.760000
 20
219.760000
 30
0.0
 10
185.680000
 20
220.240000
 30
0.0
 10
186.560000
 20
221.520000
 30
0.0
  0
SPLINE
  5
12c
100
AcDbEntity
  8
0
 62
7
100
AcDbSpline
 70
8
 71
3
 72
8
 73
4
 74
0
 40
0
 40
0
 40
0
 40
0
 40
1
 40
1
 40
1
 40
1
 10
186.560000
 20
221.520000
 30
0.0
 10
187.520000
 20
222.960000
 30
0.0
 10
187.440000
 20
223.200000
 30
0.0
 10
185.040000
 20
223.600000
 30
0.0
  0
SPLINE
  5
12d
100
AcDbEntity
  8
0
 62
7
100
AcDbSpline
 70
8
 71
3
 72
8
 73
4
 74
0
 40
0
 40
0
 40
0
 40
0
 40
1
 40
1
 40
1
 40
1
 10
185.040000
 20
223.600000
 30
0.0
 10
183.280000
 20
223.920000
 30
0.0
 10
182.480000
 20
224.560000
 30
0.0
 10
182.480000
 20
225.600000
 30
0.0
  0
SPLINE
  5
12e
100
AcDbEntity
  8
0
 62
7
100
AcDbSpline
 70
8
 71
3
 72
8
 73
4
 74
0
 40
0
 40
0
 40
0
 40
0
 40
1
 40
1
 40
1
 40
1
 10
182.480000
 20
225.600000
 30
0.0
 10
182.480000
 20
227.600000
 30
0.0
 10
191.200000
 20
236.000000
 30
0.0
 10
194.880000
 20
237.600000
 30
0.0
  0
SPLINE
  5
12f
100
AcDbEntity
  8
0
 62
7
100
AcDbSpline
 70
8
 71
3
 72
8
 73
4
 74
0
 40
0
 40
0
 40
0
 40
0
 40
1
 40
1
 40
1
 40
1
 10
194.880000
 20
237.600000
 30
0.0
 10
197.520000
 20
238.800000
 30
0.0
 10
203.440000
 20
244.160000
 30
0.0
 10
206.080000
 20
247.920000
 30
0.0
  0
SPLINE
  5
130
100
AcDbEntity
  8
0
 62
7
100
AcDbSpline
 70
8
 71
3
 72
8
 73
4
 74
0
 40
0
 40
0
 40
0
 40
0
 40
1
 40
1
 40
1
 40
1
 10
206.080000
 20
247.920000
 30
0.0
 10
206.720000
 20
248.800000
 30
0.0
 10
207.840000
 20
253.120000
 30
0.0
 10
208.480000
 20
257.520000
 30
0.0
  0
SPLINE
  5
131
100
AcDbEntity
  8
0
 62
7
100
AcDbSpline
 70
8
 71
3
 72
8
 73
4
 74
0
 40
0
 40
0
 40
0
 40
0
 40
1
 40
1
 40
1
 40
1
 10
208.480000
 20
257.520000
 30
0.0
 10
209.200000
 20
262.000000
 30
0.0
 10
210.320000
 20
266.400000
 30
0.0
 10
211.040000
 20
267.360000
 30
0.0
  0
SPLINE
  5
132
100
AcDbEntity
  8
0
 62
7
100
AcDbSpline
 70
8
 71
3
 72
8
 73
4
 74
0
 40
0
 40
0
 40
0
 40
0
 40
1
 40
1
 40
1
 40
1
 10
211.040000
 20
267.360000
 30
0.0
 10
212.720000
 20
269.920000
 30
0.0
 10
215.520000
 20
285.280000
 30
0.0
 10
214.400000
 20
286.240000
 30
0.0
  0
SPLINE
  5
133
100
AcDbEntity
  8
0
 62
7
100
AcDbSpline
 70
8
 71
3
 72
8
 73
4
 74
0
 40
0
 40
0
 40
0
 40
0
 40
1
 40
1
 40
1
 40
1
 10
214.400000
 20
286.240000
 30
0.0
 10
213.920000
 20
286.720000
 30
0.0
 10
213.760000
 20
290.640000
 30
0.0
 10
214.000000
 20
296.000000
 30
0.0
  0
SPLINE
  5
134
100
AcDbEntity
  8
0
 62
7
100
AcDbSpline
 70
8
 71
3
 72
8
 73
4
 74
0
 40
0
 40
0
 40
0
 40
0
 40
1
 40
1
 40
1
 40
1
 10
214.000000
 20
296.000000
 30
0.0
 10
214.320000
 20
301.920000
 30
0.0
 10
214.080000
 20
306.320000
 30
0.0
 10
213.360000
 20
308.800000
 30
0.0
  0
SPLINE
  5
135
100
AcDbEntity
  8
0
 62
7
100
AcDbSpline
 70
8
 71
3
 72
8
 73
4
 74
0
 40
0
 40
0
 40
0
 40
0
 40
1
 40
1
 40
1
 40
1
 10
213.360000
 20
308.800000
 30
0.0
 10
211.440000
 20
315.680000
 30
0.0
 10
206.320000
 20
329.760000
 30
0.0
 10
204.320000
 20
333.840000
 30
0.0
  0
SPLINE
  5
136
100
AcDbEntity
  8
0
 62
7
100
AcDbSpline
 70
8
 71
3
 72
8
 73
4
 74
0
 40
0
 40
0
 40
0
 40
0
 40
1
 40
1
 40
1
 40
1
 10
204.320000
 20
333.840000
 30
0.0
 10
203.200000
 20
336.000000
 30
0.0
 10
201.520000
 20
339.600000
 30
0.0
 10
200.640000
 20
341.760000
 30
0.0
  0
SPLINE
  5
137
100
AcDbEntity
  8
0
 62
7
100
AcDbSpline
 70
8
 71
3
 72
8
 73
4
 74
0
 40
0
 40
0
 40
0
 40
0
 40
1
 40
1
 40
1
 40
1
 10
200.640000
 20
341.760000
 30
0.0
 10
199.120000
 20
345.360000
 30
0.0
 10
194.640000
 20
353.760000
 30
0.0
 10
187.600000
 20
366.560000
 30
0.0
  0
SPLINE
  5
138
100
AcDbEntity
  8
0
 62
7
100
AcDbSpline
 70
8
 71
3
 72
8
 73
4
 74
0
 40
0
 40
0
 40
0
 40
0
 40
1
 40
1
 40
1
 40
1
 10
187.600000
 20
366.560000
 30
0.0
 10
186.240000
 20
369.040000
 30
0.0
 10
184.560000
 20
371.440000
 30
0.0
 10
183.840000
 20
372.000000
 30
0.0
  0
SPLINE
  5
139
100
AcDbEntity
  8
0
 62
7
100
AcDbSpline
 70
8
 71
3
 72
8
 73
4
 74
0
 40
0
 40
0
 40
0
 40
0
 40
1
 40
1
 40
1
 40
1
 10
183.840000
 20
372.000000
 30
0.0
 10
183.120000
 20
372.560000
 30
0.0
 10
182.480000
 20
373.360000
 30
0.0
 10
182.480000
 20
373.760000
 30
0.0
  0
SPLINE
  5
13a
100
AcDbEntity
  8
0
 62
7
100
AcDbSpline
 70
8
 71
3
 72
8
 73
4
 74
0
 40
0
 40
0
 40
0
 40
0
 40
1
 40
1
 40
1
 40
1
 10
182.480000
 20
373.760000
 30
0.0
 10
182.480000
 20
374.160000
 30
0.0
 10
181.680000
 20
375.280000
 30
0.0
 10
180.720000
 20
376.240000
 30
0.0
  0
SPLINE
  5
13b
100
AcDbEntity
  8
0
 62
7
100
AcDbSpline
 70
8
 71
3
 72
8
 73
4
 74
0
 40
0
 40
0
 40
0
 40
0
 40
1
 40
1
 40
1
 40
1
 10
180.720000
 20
376.240000
 30
0.0
 10
177.520000
 20
379.360000
 30
0.0
 10
172.240000
 20
387.120000
 30
0.0
 10
171.360000
 20
390.080000
 30
0.0
  0
SPLINE
  5
13c
100
AcDbEntity
  8
0
 62
7
100
AcDbSpline
 70
8
 71
3
 72
8
 73
4
 74
0
 40
0
 40
0
 40
0
 40
0
 40
1
 40
1
 40
1
 40
1
 10
171.360000
 20
390.080000
 30
0.0
 10
169.440000
 20
396.160000
 30
0.0
 10
167.040000
 20
408.080000
 30
0.0
 10
167.040000
 20
411.680000
 30
0.0
  0
SPLINE
  5
13d
100
AcDbEntity
  8
0
 62
7
100
AcDbSpline
 70
8
 71
3
 72
8
 73
4
 74
0
 40
0
 40
0
 40
0
 40
0
 40
1
 40
1
 40
1
 40
1
 10
167.040000
 20
411.680000
 30
0.0
 10
167.040000
 20
415.840000
 30
0.0
 10
168.560000
 20
417.200000
 30
0.0
 10
171.120000
 20
415.280000
 30
0.0
  0
SPLINE
  5
13e
100
AcDbEntity
  8
0
 62
7
100
AcDbSpline
 70
8
 71
3
 72
8
 73
4
 74
0
 40
0
 40
0
 40
0
 40
0
 40
1
 40
1
 40
1
 40
1
 10
171.120000
 20
415.280000
 30
0.0
 10
173.440000
 20
413.600000
 30
0.0
 10
176.320000
 20
412.240000
 30
0.0
 10
177.600000
 20
412.240000
 30
0.0
  0
SPLINE
  5
13f
100
AcDbEntity
  8
0
 62
7
100
AcDbSpline
 70
8
 71
3
 72
8
 73
4
 74
0
 40
0
 40
0
 40
0
 40
0
 40
1
 40
1
 40
1
 40
1
 10
177.600000
 20
412.240000
 30
0.0
 10
178.880000
 20
412.240000
 30
0.0
 10
179.680000
 20
413.520000
 30
0.0
 10
182.560000
 20
420.560000
 30
0.0
  0
SPLINE
  5
140
100
AcDbEntity
  8
0
 62
7
100
AcDbSpline
 70
8
 71
3
 72
8
 73
4
 74
0
 40
0
 40
0
 40
0
 40
0
 40
1
 40
1
 40
1
 40
1
 10
182.560000
 20
420.560000
 30
0.0
 10
183.680000
 20
423.120000
 30
0.0
 10
186.000000
 20
427.840000
 30
0.0
 10
187.840000
 20
430.960000
 30
0.0
  0
SPLINE
  5
141
100
AcDbEntity
  8
0
 62
7
100
AcDbSpline
 70
8
 71
3
 72
8
 73
4
 74
0
 40
0
 40
0
 40
0
 40
0
 40
1
 40
1
 40
1
 40
1
 10
187.840000
 20
430.960000
 30
0.0
 10
190.480000
 20
435.520000
 30
0.0
 10
191.040000
 20
437.200000
 30
0.0
 10
190.640000
 20
439.120000
 30
0.0
  0
SPLINE
  5
142
100
AcDbEntity
  8
0
 62
7
100
AcDbSpline
 70
8
 71
3
 72
8
 73
4
 74
0
 40
0
 40
0
 40
0
 40
0
 40
1
 40
1
 40
1
 40
1
 10
190.640000
 20
439.120000
 30
0.0
 10
190.160000
 20
440.960000
 30
0.0
 10
190.560000
 20
442.240000
 30
0.0
 10
192.480000
 20
444.800000
 30
0.0
  0
SPLINE
  5
143
100
AcDbEntity
  8
0
 62
7
100
AcDbSpline
 70
8
 71
3
 72
8
 73
4
 74
0
 40
0
 40
0
 40
0
 40
0
 40
1
 40
1
 40
1
 40
1
 10
192.480000
 20
444.800000
 30
0.0
 10
196.960000
 20
450.960000
 30
0.0
 10
197.600000
 20
452.560000
 30
0.0
 10
200.480000
 20
465.440000
 30
0.0
  0
SPLINE
  5
144
100
AcDbEntity
  8
0
 62
7
100
AcDbSpline
 70
8
 71
3
 72
8
 73
4
 74
0
 40
0
 40
0
 40
0
 40
0
 40
1
 40
1
 40
1
 40
1
 10
200.480000
 20
465.440000
 30
0.0
 10
201.600000
 20
470.640000
 30
0.0
 10
201.840000
 20
471.200000
 30
0.0
 10
205.200000
 20
478.080000
 30
0.0
  0
SPLINE
  5
145
100
AcDbEntity
  8
0
 62
7
100
AcDbSpline
 70
8
 71
3
 72
8
 73
4
 74
0
 40
0
 40
0
 40
0
 40
0
 40
1
 40
1
 40
1
 40
1
 10
205.200000
 20
478.080000
 30
0.0
 10
206.480000
 20
480.640000
 30
0.0
 10
208.240000
 20
484.400000
 30
0.0
 10
209.040000
 20
486.320000
 30
0.0
  0
SPLINE
  5
146
100
AcDbEntity
  8
0
 62
7
100
AcDbSpline
 70
8
 71
3
 72
8
 73
4
 74
0
 40
0
 40
0
 40
0
 40
0
 40
1
 40
1
 40
1
 40
1
 10
209.040000
 20
486.320000
 30
0.0
 10
218.960000
 20
509.360000
 30
0.0
 10
232.800000
 20
531.280000
 30
0.0
 10
237.440000
 20
531.280000
 30
0.0
  0
SPLINE
  5
147
100
AcDbEntity
  8
0
 62
7
100
AcDbSpline
 70
8
 71
3
 72
8
 73
4
 74
0
 40
0
 40
0
 40
0
 40
0
 40
1
 40
1
 40
1
 40
1
 10
237.440000
 20
531.280000
 30
0.0
 10
238.320000
 20
531.280000
 30
0.0
 10
239.120000
 20
531.360000
 30
0.0
 10
239.120000
 20
531.440000
 30
0.0
  0
SPLINE
  5
148
100
AcDbEntity
  8
0
 62
7
100
AcDbSpline
 70
8
 71
3
 72
8
 73
4
 74
0
 40
0
 40
0
 40
0
 40
0
 40
1
 40
1
 40
1
 40
1
 10
239.120000
 20
531.440000
 30
0.0
 10
241.440000
 20
540.240000
 30
0.0
 10
243.200000
 20
564.800000
 30
0.0
 10
241.840000
 20
568.320000
 30
0.0
  0
SPLINE
  5
149
100
AcDbEntity
  8
0
 62
7
100
AcDbSpline
 70
8
 71
3
 72
8
 73
4
 74
0
 40
0
 40
0
 40
0
 40
0
 40
1
 40
1
 40
1
 40
1
 10
241.840000
 20
568.320000
 30
0.0
 10
241.120000
 20
570.080000
 30
0.0
 10
240.880000
 20
569.920000
 30
0.0
 10
239.600000
 20
565.760000
 30
0.0
  0
SPLINE
  5
14a
100
AcDbEntity
  8
0
 62
7
100
AcDbSpline
 70
8
 71
3
 72
8
 73
4
 74
0
 40
0
 40
0
 40
0
 40
0
 40
1
 40
1
 40
1
 40
1
 10
239.600000
 20
565.760000
 30
0.0
 10
238.320000
 20
561.760000
 30
0.0
 10
237.360000
 20
560.560000
 30
0.0
 10
228.560000
 20
552.880000
 30
0.0
  0
SPLINE
  5
14b
100
AcDbEntity
  8
0
 62
7
100
AcDbSpline
 70
8
 71
3
 72
8
 73
4
 74
0
 40
0
 40
0
 40
0
 40
0
 40
1
 40
1
 40
1
 40
1
 10
228.560000
 20
552.880000
 30
0.0
 10
216.800000
 20
542.640000
 30
0.0
 10
216.320000
 20
542.320000
 30
0.0
 10
211.360000
 20
542.000000
 30
0.0
  0
SPLINE
  5
14c
100
AcDbEntity
  8
0
 62
7
100
AcDbSpline
 70
8
 71
3
 72
8
 73
4
 74
0
 40
0
 40
0
 40
0
 40
0
 40
1
 40
1
 40
1
 40
1
 10
211.360000
 20
542.000000
 30
0.0
 10
207.440000
 20
541.760000
 30
0.0
 10
205.040000
 20
540.480000
 30
0.0
 10
198.320000
 20
535.280000
 30
0.0
  0
SPLINE
  5
14d
100
AcDbEntity
  8
0
 62
7
100
AcDbSpline
 70
8
 71
3
 72
8
 73
4
 74
0
 40
0
 40
0
 40
0
 40
0
 40
1
 40
1
 40
1
 40
1
 10
198.320000
 20
535.280000
 30
0.0
 10
196.880000
 20
534.160000
 30
0.0
 10
194.640000
 20
532.560000
 30
0.0
 10
193.280000
 20
531.680000
 30
0.0
  0
SPLINE
  5
14e
100
AcDbEntity
  8
0
 62
7
100
AcDbSpline
 70
8
 71
3
 72
8
 73
4
 74
0
 40
0
 40
0
 40
0
 40
0
 40
1
 40
1
 40
1
 40
1
 10
193.280000
 20
531.680000
 30
0.0
 10
192.000000
 20
530.800000
 30
0.0
 10
189.360000
 20
528.080000
 30
0.0
 10
187.520000
 20
525.600000
 30
0.0
  0
SPLINE
  5
14f
100
AcDbEntity
  8
0
 62
7
100
AcDbSpline
 70
8
 71
3
 72
8
 73
4
 74
0
 40
0
 40
0
 40
0
 40
0
 40
1
 40
1
 40
1
 40
1
 10
187.520000
 20
525.600000
 30
0.0
 10
185.760000
 20
523.120000
 30
0.0
 10
183.120000
 20
520.000000
 30
0.0
 10
181.760000
 20
518.640000
 30
0.0
  0
SPLINE
  5
150
100
AcDbEntity
  8
0
 62
7
100
AcDbSpline
 70
8
 71
3
 72
8
 73
4
 74
0
 40
0
 40
0
 40
0
 40
0
 40
1
 40
1
 40
1
 40
1
 10
181.760000
 20
518.640000
 30
0.0
 10
180.240000
 20
517.120000
 30
0.0
 10
179.040000
 20
514.800000
 30
0.0
 10
178.640000
 20
512.880000
 30
0.0
  0
SPLINE
  5
151
100
AcDbEntity
  8
0
 62
7
100
AcDbSpline
 70
8
 71
3
 72
8
 73
4
 74
0
 40
0
 40
0
 40
0
 40
0
 40
1
 40
1
 40
1
 40
1
 10
178.640000
 20
512.880000
 30
0.0
 10
177.440000
 20
505.920000
 30
0.0
 10
169.440000
 20
494.960000
 30
0.0
 10
163.760000
 20
492.480000
 30
0.0
  0
SPLINE
  5
152
100
AcDbEntity
  8
0
 62
7
100
AcDbSpline
 70
8
 71
3
 72
8
 73
4
 74
0
 40
0
 40
0
 40
0
 40
0
 40
1
 40
1
 40
1
 40
1
 10
163.760000
 20
492.480000
 30
0.0
 10
162.000000
 20
491.680000
 30
0.0
 10
161.280000
 20
490.640000
 30
0.0
 10
160.720000
 20
487.600000
 30
0.0
  0
SPLINE
  5
153
100
AcDbEntity
  8
0
 62
7
100
AcDbSpline
 70
8
 71
3
 72
8
 73
4
 74
0
 40
0
 40
0
 40
0
 40
0
 40
1
 40
1
 40
1
 40
1
 10
160.720000
 20
487.600000
 30
0.0
 10
160.080000
 20
484.240000
 30
0.0
 10
160.240000
 20
483.280000
 30
0.0
 10
162.320000
 20
479.280000
 30
0.0
  0
SPLINE
  5
154
100
AcDbEntity
  8
0
 62
7
100
AcDbSpline
 70
8
 71
3
 72
8
 73
4
 74
0
 40
0
 40
0
 40
0
 40
0
 40
1
 40
1
 40
1
 40
1
 10
162.320000
 20
479.280000
 30
0.0
 10
164.240000
 20
475.520000
 30
0.0
 10
164.480000
 20
474.480000
 30
0.0
 10
163.680000
 20
473.040000
 30
0.0
  0
SPLINE
  5
155
100
AcDbEntity
  8
0
 62
7
100
AcDbSpline
 70
8
 71
3
 72
8
 73
4
 74
0
 40
0
 40
0
 40
0
 40
0
 40
1
 40
1
 40
1
 40
1
 10
163.680000
 20
473.040000
 30
0.0
 10
162.320000
 20
470.800000
 30
0.0
 10
160.480000
 20
470.960000
 30
0.0
 10
158.080000
 20
473.520000
 30
0.0
  0
LINE
  5
156
100
AcDbEntity
  8
0
 62
7
100
AcDbLine
 10
158.080000
 20
473.520000
 30
0.0
 11
156.000000
 21
475.680000
 31
0.0
  0
LINE
  5
157
100
AcDbEntity
  8
0
 62
7
100
AcDbLine
 10
156.000000
 20
475.680000
 30
0.0
 11
155.200000
 21
473.680000
 31
0.0
  0
SPLINE
  5
158
100
AcDbEntity
  8
0
 62
7
100
AcDbSpline
 70
8
 71
3
 72
8
 73
4
 74
0
 40
0
 40
0
 40
0
 40
0
 40
1
 40
1
 40
1
 40
1
 10
155.200000
 20
473.680000
 30
0.0
 10
153.520000
 20
469.680000
 30
0.0
 10
152.240000
 20
469.520000
 30
0.0
 10
147.680000
 20
472.720000
 30
0.0
  0
SPLINE
  5
159
100
AcDbEntity
  8
0
 62
7
100
AcDbSpline
 70
8
 71
3
 72
8
 73
4
 74
0
 40
0
 40
0
 40
0
 40
0
 40
1
 40
1
 40
1
 40
1
 10
147.680000
 20
472.720000
 30
0.0
 10
142.080000
 20
476.640000
 30
0.0
 10
141.040000
 20
477.680000
 30
0.0
 10
139.280000
 20
481.040000
 30
0.0
  0
SPLINE
  5
15a
100
AcDbEntity
  8
0
 62
7
100
AcDbSpline
 70
8
 71
3
 72
8
 73
4
 74
0
 40
0
 40
0
 40
0
 40
0
 40
1
 40
1
 40
1
 40
1
 10
139.280000
 20
481.040000
 30
0.0
 10
137.520000
 20
484.480000
 30
0.0
 10
136.160000
 20
484.240000
 30
0.0
 10
136.160000
 20
480.560000
 30
0.0
  0
SPLINE
  5
15b
100
AcDbEntity
  8
0
 62
7
100
AcDbSpline
 70
8
 71
3
 72
8
 73
4
 74
0
 40
0
 40
0
 40
0
 40
0
 40
1
 40
1
 40
1
 40
1
 10
136.160000
 20
480.560000
 30
0.0
 10
136.160000
 20
479.200000
 30
0.0
 10
135.360000
 20
476.880000
 30
0.0
 10
134.400000
 20
475.440000
 30
0.0
  0
SPLINE
  5
15c
100
AcDbEntity
  8
0
 62
7
100
AcDbSpline
 70
8
 71
3
 72
8
 73
4
 74
0
 40
0
 40
0
 40
0
 40
0
 40
1
 40
1
 40
1
 40
1
 10
134.400000
 20
475.440000
 30
0.0
 10
133.040000
 20
473.360000
 30
0.0
 10
132.240000
 20
472.880000
 30
0.0
 10
130.400000
 20
473.120000
 30
0.0
  0
SPLINE
  5
15d
100
AcDbEntity
  8
0
 62
7
100
AcDbSpline
 70
8
 71
3
 72
8
 73
4
 74
0
 40
0
 40
0
 40
0
 40
0
 40
1
 40
1
 40
1
 40
1
 10
130.400000
 20
473.120000
 30
0.0
 10
128.480000
 20
473.280000
 30
0.0
 10
127.840000
 20
474.080000
 30
0.0
 10
126.080000
 20
478.800000
 30
0.0
  0
SPLINE
  5
15e
100
AcDbEntity
  8
0
 62
7
100
AcDbSpline
 70
8
 71
3
 72
8
 73
4
 74
0
 40
0
 40
0
 40
0
 40
0
 40
1
 40
1
 40
1
 40
1
 10
126.080000
 20
478.800000
 30
0.0
 10
124.160000
 20
483.760000
 30
0.0
 10
124.080000
 20
484.560000
 30
0.0
 10
125.040000
 20
488.240000
 30
0.0
  0
SPLINE
  5
15f
100
AcDbEntity
  8
0
 62
7
100
AcDbSpline
 70
8
 71
3
 72
8
 73
4
 74
0
 40
0
 40
0
 40
0
 40
0
 40
1
 40
1
 40
1
 40
1
 10
125.040000
 20
488.240000
 30
0.0
 10
126.000000
 20
492.080000
 30
0.0
 10
125.920000
 20
492.560000
 30
0.0
 10
123.840000
 20
496.560000
 30
0.0
  0
SPLINE
  5
160
100
AcDbEntity
  8
0
 62
7
100
AcDbSpline
 70
8
 71
3
 72
8
 73
4
 74
0
 40
0
 40
0
 40
0
 40
0
 40
1
 40
1
 40
1
 40
1
 10
123.840000
 20
496.560000
 30
0.0
 10
121.280000
 20
501.440000
 30
0.0
 10
121.040000
 20
503.920000
 30
0.0
 10
122.880000
 20
509.040000
 30
0.0
  0
SPLINE
  5
161
100
AcDbEntity
  8
0
 62
7
100
AcDbSpline
 70
8
 71
3
 72
8
 73
4
 74
0
 40
0
 40
0
 40
0
 40
0
 40
1
 40
1
 40
1
 40
1
 10
122.880000
 20
509.040000
 30
0.0
 10
123.920000
 20
511.920000
 30
0.0
 10
125.360000
 20
513.600000
 30
0.0
 10
129.440000
 20
516.720000
 30
0.0
  0
SPLINE
  5
162
100
AcDbEntity
  8
0
 62
7
100
AcDbSpline
 70
8
 71
3
 72
8
 73
4
 74
0
 40
0
 40
0
 40
0
 40
0
 40
1
 40
1
 40
1
 40
1
 10
129.440000
 20
516.720000
 30
0.0
 10
134.320000
 20
520.400000
 30
0.0
 10
142.240000
 20
528.720000
 30
0.0
 10
143.200000
 20
531.280000
 30
0.0
  0
SPLINE
  5
163
100
AcDbEntity
  8
0
 62
7
100
AcDbSpline
 70
8
 71
3
 72
8
 73
4
 74
0
 40
0
 40
0
 40
0
 40
0
 40
1
 40
1
 40
1
 40
1
 10
143.200000
 20
531.280000
 30
0.0
 10
143.440000
 20
531.920000
 30
0.0
 10
142.720000
 20
533.440000
 30
0.0
 10
141.440000
 20
534.640000
 30
0.0
  0
SPLINE
  5
164
100
AcDbEntity
  8
0
 62
7
100
AcDbSpline
 70
8
 71
3
 72
8
 73
4
 74
0
 40
0
 40
0
 40
0
 40
0
 40
1
 40
1
 40
1
 40
1
 10
141.440000
 20
534.640000
 30
0.0
 10
139.280000
 20
536.720000
 30
0.0
 10
139.280000
 20
536.800000
 30
0.0
 10
140.720000
 20
539.600000
 30
0.0
  0
SPLINE
  5
165
100
AcDbEntity
  8
0
 62
7
100
AcDbSpline
 70
8
 71
3
 72
8
 73
4
 74
0
 40
0
 40
0
 40
0
 40
0
 40
1
 40
1
 40
1
 40
1
 10
140.720000
 20
539.600000
 30
0.0
 10
141.520000
 20
541.120000
 30
0.0
 10
142.160000
 20
543.360000
 30
0.0
 10
142.160000
 20
544.640000
 30
0.0
  0
SPLINE
  5
166
100
AcDbEntity
  8
0
 62
7
100
AcDbSpline
 70
8
 71
3
 72
8
 73
4
 74
0
 40
0
 40
0
 40
0
 40
0
 40
1
 40
1
 40
1
 40
1
 10
142.160000
 20
544.640000
 30
0.0
 10
142.160000
 20
547.600000
 30
0.0
 10
145.200000
 20
549.840000
 30
0.0
 10
150.800000
 20
550.880000
 30
0.0
  0
SPLINE
  5
167
100
AcDbEntity
  8
0
 62
7
100
AcDbSpline
 70
8
 71
3
 72
8
 73
4
 74
0
 40
0
 40
0
 40
0
 40
0
 40
1
 40
1
 40
1
 40
1
 10
150.800000
 20
550.880000
 30
0.0
 10
156.480000
 20
552.000000
 30
0.0
 10
160.640000
 20
552.000000
 30
0.0
 10
164.240000
 20
550.800000
 30
0.0
  0
SPLINE
  5
168
100
AcDbEntity
  8
0
 62
7
100
AcDbSpline
 70
8
 71
3
 72
8
 73
4
 74
0
 40
0
 40
0
 40
0
 40
0
 40
1
 40
1
 40
1
 40
1
 10
164.240000
 20
550.800000
 30
0.0
 10
166.800000
 20
549.920000
 30
0.0
 10
167.360000
 20
550.000000
 30
0.0
 10
168.160000
 20
551.040000
 30
0.0
  0
SPLINE
  5
169
100
AcDbEntity
  8
0
 62
7
100
AcDbSpline
 70
8
 71
3
 72
8
 73
4
 74
0
 40
0
 40
0
 40
0
 40
0
 40
1
 40
1
 40
1
 40
1
 10
168.160000
 20
551.040000
 30
0.0
 10
170.560000
 20
554.000000
 30
0.0
 10
174.480000
 20
558.480000
 30
0.0
 10
176.800000
 20
560.720000
 30
0.0
  0
SPLINE
  5
16a
100
AcDbEntity
  8
0
 62
7
100
AcDbSpline
 70
8
 71
3
 72
8
 73
4
 74
0
 40
0
 40
0
 40
0
 40
0
 40
1
 40
1
 40
1
 40
1
 10
176.800000
 20
560.720000
 30
0.0
 10
181.200000
 20
565.120000
 30
0.0
 10
183.200000
 20
567.840000
 30
0.0
 10
187.520000
 20
575.600000
 30
0.0
  0
SPLINE
  5
16b
100
AcDbEntity
  8
0
 62
7
100
AcDbSpline
 70
8
 71
3
 72
8
 73
4
 74
0
 40
0
 40
0
 40
0
 40
0
 40
1
 40
1
 40
1
 40
1
 10
187.520000
 20
575.600000
 30
0.0
 10
189.840000
 20
579.760000
 30
0.0
 10
192.400000
 20
583.760000
 30
0.0
 10
193.120000
 20
584.560000
 30
0.0
  0
SPLINE
  5
16c
100
AcDbEntity
  8
0
 62
7
100
AcDbSpline
 70
8
 71
3
 72
8
 73
4
 74
0
 40
0
 40
0
 40
0
 40
0
 40
1
 40
1
 40
1
 40
1
 10
193.120000
 20
584.560000
 30
0.0
 10
193.840000
 20
585.360000
 30
0.0
 10
195.600000
 20
587.440000
 30
0.0
 10
197.040000
 20
589.120000
 30
0.0
  0
SPLINE
  5
16d
100
AcDbEntity
  8
0
 62
7
100
AcDbSpline
 70
8
 71
3
 72
8
 73
4
 74
0
 40
0
 40
0
 40
0
 40
0
 40
1
 40
1
 40
1
 40
1
 10
197.040000
 20
589.120000
 30
0.0
 10
201.120000
 20
593.920000
 30
0.0
 10
207.200000
 20
599.680000
 30
0.0
 10
209.040000
 20
600.640000
 30
0.0
  0
SPLINE
  5
16e
100
AcDbEntity
  8
0
 62
7
100
AcDbSpline
 70
8
 71
3
 72
8
 73
4
 74
0
 40
0
 40
0
 40
0
 40
0
 40
1
 40
1
 40
1
 40
1
 10
209.040000
 20
600.640000
 30
0.0
 10
210.480000
 20
601.280000
 30
0.0
 10
210.800000
 20
602.320000
 30
0.0
 10
210.800000
 20
606.000000
 30
0.0
  0
SPLINE
  5
16f
100
AcDbEntity
  8
0
 62
7
100
AcDbSpline
 70
8
 71
3
 72
8
 73
4
 74
0
 40
0
 40
0
 40
0
 40
0
 40
1
 40
1
 40
1
 40
1
 10
210.800000
 20
606.000000
 30
0.0
 10
210.800000
 20
612.480000
 30
0.0
 10
215.360000
 20
630.880000
 30
0.0
 10
219.760000
 20
642.320000
 30
0.0
  0
SPLINE
  5
170
100
AcDbEntity
  8
0
 62
7
100
AcDbSpline
 70
8
 71
3
 72
8
 73
4
 74
0
 40
0
 40
0
 40
0
 40
0
 40
1
 40
1
 40
1
 40
1
 10
219.760000
 20
642.320000
 30
0.0
 10
220.960000
 20
645.360000
 30
0.0
 10
221.600000
 20
649.840000
 30
0.0
 10
220.480000
 20
647.280000
 30
0.0
  0
SPLINE
  5
171
100
AcDbEntity
  8
0
 62
7
100
AcDbSpline
 70
8
 71
3
 72
8
 73
4
 74
0
 40
0
 40
0
 40
0
 40
0
 40
1
 40
1
 40
1
 40
1
 10
220.480000
 20
647.280000
 30
0.0
 10
219.760000
 20
645.760000
 30
0.0
 10
216.800000
 20
646.160000
 30
0.0
 10
216.080000
 20
648.000000
 30
0.0
  0
SPLINE
  5
172
100
AcDbEntity
  8
0
 62
7
100
AcDbSpline
 70
8
 71
3
 72
8
 73
4
 74
0
 40
0
 40
0
 40
0
 40
0
 40
1
 40
1
 40
1
 40
1
 10
216.080000
 20
648.000000
 30
0.0
 10
215.200000
 20
650.080000
 30
0.0
 10
217.040000
 20
664.240000
 30
0.0
 10
218.960000
 20
670.960000
 30
0.0
  0
SPLINE
  5
173
100
AcDbEntity
  8
0
 62
7
100
AcDbSpline
 70
8
 71
3
 72
8
 73
4
 74
0
 40
0
 40
0
 40
0
 40
0
 40
1
 40
1
 40
1
 40
1
 10
218.960000
 20
670.960000
 30
0.0
 10
220.880000
 20
677.600000
 30
0.0
 10
224.880000
 20
685.440000
 30
0.0
 10
228.400000
 20
689.360000
 30
0.0
  0
SPLINE
  5
174
100
AcDbEntity
  8
0
 62
7
100
AcDbSpline
 70
8
 71
3
 72
8
 73
4
 74
0
 40
0
 40
0
 40
0
 40
0
 40
1
 40
1
 40
1
 40
1
 10
228.400000
 20
689.360000
 30
0.0
 10
231.760000
 20
693.120000
 30
0.0
 10
240.320000
 20
697.520000
 30
0.0
 10
244.240000
 20
697.520000
 30
0.0
  0
SPLINE
  5
175
100
AcDbEntity
  8
0
 62
7
100
AcDbSpline
 70
8
 71
3
 72
8
 73
4
 74
0
 40
0
 40
0
 40
0
 40
0
 40
1
 40
1
 40
1
 40
1
 10
244.240000
 20
697.520000
 30
0.0
 10
246.240000
 20
697.520000
 30
0.0
 10
248.160000
 20
698.640000
 30
0.0
 10
252.640000
 20
702.480000
 30
0.0
  0
SPLINE
  5
176
100
AcDbEntity
  8
0
 62
7
100
AcDbSpline
 70
8
 71
3
 72
8
 73
4
 74
0
 40
0
 40
0
 40
0
 40
0
 40
1
 40
1
 40
1
 40
1
 10
252.640000
 20
702.480000
 30
0.0
 10
261.200000
 20
709.760000
 30
0.0
 10
266.800000
 20
713.760000
 30
0.0
 10
272.960000
 20
716.960000
 30
0.0
  0
SPLINE
  5
177
100
AcDbEntity
  8
0
 62
7
100
AcDbSpline
 70
8
 71
3
 72
8
 73
4
 74
0
 40
0
 40
0
 40
0
 40
0
 40
1
 40
1
 40
1
 40
1
 10
272.960000
 20
716.960000
 30
0.0
 10
275.120000
 20
718.080000
 30
0.0
 10
275.600000
 20
720.160000
 30
0.0
 10
274.000000
 20
721.840000
 30
0.0
  0
SPLINE
  5
178
100
AcDbEntity
  8
0
 62
7
100
AcDbSpline
 70
8
 71
3
 72
8
 73
4
 74
0
 40
0
 40
0
 40
0
 40
0
 40
1
 40
1
 40
1
 40
1
 10
274.000000
 20
721.840000
 30
0.0
 10
272.400000
 20
723.520000
 30
0.0
 10
271.040000
 20
729.280000
 30
0.0
 10
270.320000
 20
737.360000
 30
0.0
  0
SPLINE
  5
179
100
AcDbEntity
  8
0
 62
7
100
AcDbSpline
 70
8
 71
3
 72
8
 73
4
 74
0
 40
0
 40
0
 40
0
 40
0
 40
1
 40
1
 40
1
 40
1
 10
270.320000
 20
737.360000
 30
0.0
 10
269.920000
 20
741.600000
 30
0.0
 10
269.120000
 20
744.720000
 30
0.0
 10
267.840000
 20
746.800000
 30
0.0
  0
SPLINE
  5
17a
100
AcDbEntity
  8
0
 62
7
100
AcDbSpline
 70
8
 71
3
 72
8
 73
4
 74
0
 40
0
 40
0
 40
0
 40
0
 40
1
 40
1
 40
1
 40
1
 10
267.840000
 20
746.800000
 30
0.0
 10
265.440000
 20
750.800000
 30
0.0
 10
265.520000
 20
757.280000
 30
0.0
 10
268.080000
 20
770.400000
 30
0.0
  0
SPLINE
  5
17b
100
AcDbEntity
  8
0
 62
7
100
AcDbSpline
 70
8
 71
3
 72
8
 73
4
 74
0
 40
0
 40
0
 40
0
 40
0
 40
1
 40
1
 40
1
 40
1
 10
268.080000
 20
770.400000
 30
0.0
 10
270.800000
 20
784.000000
 30
0.0
 10
271.360000
 20
785.600000
 30
0.0
 10
274.960000
 20
788.800000
 30
0.0
  0
SPLINE
  5
17c
100
AcDbEntity
  8
0
 62
7
100
AcDbSpline
 70
8
 71
3
 72
8
 73
4
 74
0
 40
0
 40
0
 40
0
 40
0
 40
1
 40
1
 40
1
 40
1
 10
274.960000
 20
788.800000
 30
0.0
 10
283.040000
 20
796.240000
 30
0.0
 10
302.400000
 20
796.800000
 30
0.0
 10
312.960000
 20
789.920000
 30
0.0
  0
SPLINE
  5
17d
100
AcDbEntity
  8
0
 62
7
100
AcDbSpline
 70
8
 71
3
 72
8
 73
4
 74
0
 40
0
 40
0
 40
0
 40
0
 40
1
 40
1
 40
1
 40
1
 10
312.960000
 20
789.920000
 30
0.0
 10
316.400000
 20
787.600000
 30
0.0
 10
317.360000
 20
786.000000
 30
0.0
 10
318.720000
 20
779.920000
 30
0.0
  0
SPLINE
  5
17e
100
AcDbEntity
  8
0
 62
7
100
AcDbSpline
 70
8
 71
3
 72
8
 73
4
 74
0
 40
0
 40
0
 40
0
 40
0
 40
1
 40
1
 40
1
 40
1
 10
318.720000
 20
779.920000
 30
0.0
 10
319.200000
 20
777.760000
 30
0.0
 10
320.240000
 20
772.960000
 30
0.0
 10
321.040000
 20
769.280000
 30
0.0
  0
SPLINE
  5
17f
100
AcDbEntity
  8
0
 62
7
100
AcDbSpline
 70
8
 71
3
 72
8
 73
4
 74
0
 40
0
 40
0
 40
0
 40
0
 40
1
 40
1
 40
1
 40
1
 10
321.040000
 20
769.280000
 30
0.0
 10
323.840000
 20
756.560000
 30
0.0
 10
323.600000
 20
748.240000
 30
0.0
 10
320.480000
 20
745.840000
 30
0.0
  0
SPLINE
  5
180
100
AcDbEntity
  8
0
 62
7
100
AcDbSpline
 70
8
 71
3
 72
8
 73
4
 74
0
 40
0
 40
0
 40
0
 40
0
 40
1
 40
1
 40
1
 40
1
 10
320.480000
 20
745.840000
 30
0.0
 10
319.520000
 20
745.040000
 30
0.0
 10
318.720000
 20
742.960000
 30
0.0
 10
318.320000
 20
740.400000
 30
0.0
  0
SPLINE
  5
181
100
AcDbEntity
  8
0
 62
7
100
AcDbSpline
 70
8
 71
3
 72
8
 73
4
 74
0
 40
0
 40
0
 40
0
 40
0
 40
1
 40
1
 40
1
 40
1
 10
318.320000
 20
740.400000
 30
0.0
 10
317.760000
 20
736.400000
 30
0.0
 10
317.920000
 20
736.080000
 30
0.0
 10
320.400000
 20
733.920000
 30
0.0
  0
SPLINE
  5
182
100
AcDbEntity
  8
0
 62
7
100
AcDbSpline
 70
8
 71
3
 72
8
 73
4
 74
0
 40
0
 40
0
 40
0
 40
0
 40
1
 40
1
 40
1
 40
1
 10
320.400000
 20
733.920000
 30
0.0
 10
321.920000
 20
732.640000
 30
0.0
 10
323.120000
 20
731.040000
 30
0.0
 10
323.120000
 20
730.320000
 30
0.0
  0
SPLINE
  5
183
100
AcDbEntity
  8
0
 62
7
100
AcDbSpline
 70
8
 71
3
 72
8
 73
4
 74
0
 40
0
 40
0
 40
0
 40
0
 40
1
 40
1
 40
1
 40
1
 10
323.120000
 20
730.320000
 30
0.0
 10
323.120000
 20
728.480000
 30
0.0
 10
325.760000
 20
722.800000
 30
0.0
 10
326.640000
 20
722.800000
 30
0.0
  0
SPLINE
  5
184
100
AcDbEntity
  8
0
 62
7
100
AcDbSpline
 70
8
 71
3
 72
8
 73
4
 74
0
 40
0
 40
0
 40
0
 40
0
 40
1
 40
1
 40
1
 40
1
 10
326.640000
 20
722.800000
 30
0.0
 10
327.040000
 20
722.800000
 30
0.0
 10
329.120000
 20
723.840000
 30
0.0
 10
331.360000
 20
725.120000
 30
0.0
  0
SPLINE
  5
185
100
AcDbEntity
  8
0
 62
7
100
AcDbSpline
 70
8
 71
3
 72
8
 73
4
 74
0
 40
0
 40
0
 40
0
 40
0
 40
1
 40
1
 40
1
 40
1
 10
331.360000
 20
725.120000
 30
0.0
 10
336.400000
 20
728.080000
 30
0.0
 10
343.040000
 20
729.840000
 30
0.0
 10
348.720000
 20
729.840000
 30
0.0
  0
SPLINE
  5
186
100
AcDbEntity
  8
0
 62
7
100
AcDbSpline
 70
8
 71
3
 72
8
 73
4
 74
0
 40
0
 40
0
 40
0
 40
0
 40
1
 40
1
 40
1
 40
1
 10
348.720000
 20
729.840000
 30
0.0
 10
352.720000
 20
729.840000
 30
0.0
 10
353.200000
 20
730.080000
 30
0.0
 10
354.400000
 20
732.240000
 30
0.0
  0
SPLINE
  5
187
100
AcDbEntity
  8
0
 62
7
100
AcDbSpline
 70
8
 71
3
 72
8
 73
4
 74
0
 40
0
 40
0
 40
0
 40
0
 40
1
 40
1
 40
1
 40
1
 10
354.400000
 20
732.240000
 30
0.0
 10
356.640000
 20
736.240000
 30
0.0
 10
359.760000
 20
737.120000
 30
0.0
 10
367.920000
 20
736.240000
 30
0.0
  0
SPLINE
  5
188
100
AcDbEntity
  8
0
 62
7
100
AcDbSpline
 70
8
 71
3
 72
8
 73
4
 74
0
 40
0
 40
0
 40
0
 40
0
 40
1
 40
1
 40
1
 40
1
 10
367.920000
 20
736.240000
 30
0.0
 10
380.160000
 20
734.800000
 30
0.0
 10
385.840000
 20
735.120000
 30
0.0
 10
389.520000
 20
737.360000
 30
0.0
  0
SPLINE
  5
189
100
AcDbEntity
  8
0
 62
7
100
AcDbSpline
 70
8
 71
3
 72
8
 73
4
 74
0
 40
0
 40
0
 40
0
 40
0
 40
1
 40
1
 40
1
 40
1
 10
389.520000
 20
737.360000
 30
0.0
 10
391.200000
 20
738.480000
 30
0.0
 10
392.880000
 20
739.360000
 30
0.0
 10
393.280000
 20
739.360000
 30
0.0
  0
SPLINE
  5
18a
100
AcDbEntity
  8
0
 62
7
100
AcDbSpline
 70
8
 71
3
 72
8
 73
4
 74
0
 40
0
 40
0
 40
0
 40
0
 40
1
 40
1
 40
1
 40
1
 10
393.280000
 20
739.360000
 30
0.0
 10
393.600000
 20
739.360000
 30
0.0
 10
394.960000
 20
740.880000
 30
0.0
 10
396.240000
 20
742.720000
 30
0.0
  0
SPLINE
  5
18b
100
AcDbEntity
  8
0
 62
7
100
AcDbSpline
 70
8
 71
3
 72
8
 73
4
 74
0
 40
0
 40
0
 40
0
 40
0
 40
1
 40
1
 40
1
 40
1
 10
396.240000
 20
742.720000
 30
0.0
 10
397.600000
 20
744.560000
 30
0.0
 10
399.840000
 20
747.440000
 30
0.0
 10
401.200000
 20
749.200000
 30
0.0
  0
SPLINE
  5
18c
100
AcDbEntity
  8
0
 62
7
100
AcDbSpline
 70
8
 71
3
 72
8
 73
4
 74
0
 40
0
 40
0
 40
0
 40
0
 40
1
 40
1
 40
1
 40
1
 10
401.200000
 20
749.200000
 30
0.0
 10
404.560000
 20
753.360000
 30
0.0
 10
405.360000
 20
758.640000
 30
0.0
 10
405.440000
 20
776.240000
 30
0.0
  0
SPLINE
  5
18d
100
AcDbEntity
  8
0
 62
7
100
AcDbSpline
 70
8
 71
3
 72
8
 73
4
 74
0
 40
0
 40
0
 40
0
 40
0
 40
1
 40
1
 40
1
 40
1
 10
405.440000
 20
776.240000
 30
0.0
 10
405.440000
 20
790.880000
 30
0.0
 10
406.160000
 20
794.880000
 30
0.0
 10
409.360000
 20
798.080000
 30
0.0
  0
SPLINE
  5
18e
100
AcDbEntity
  8
0
 62
7
100
AcDbSpline
 70
8
 71
3
 72
8
 73
4
 74
0
 40
0
 40
0
 40
0
 40
0
 40
1
 40
1
 40
1
 40
1
 10
409.360000
 20
798.080000
 30
0.0
 10
411.040000
 20
799.760000
 30
0.0
 10
411.680000
 20
799.920000
 30
0.0
 10
413.440000
 20
799.120000
 30
0.0
  0
SPLINE
  5
18f
100
AcDbEntity
  8
0
 62
7
100
AcDbSpline
 70
8
 71
3
 72
8
 73
4
 74
0
 40
0
 40
0
 40
0
 40
0
 40
1
 40
1
 40
1
 40
1
 10
413.440000
 20
799.120000
 30
0.0
 10
416.800000
 20
797.760000
 30
0.0
 10
418.320000
 20
793.680000
 30
0.0
 10
418.320000
 20
786.000000
 30
0.0
  0
SPLINE
  5
190
100
AcDbEntity
  8
0
 62
7
100
AcDbSpline
 70
8
 71
3
 72
8
 73
4
 74
0
 40
0
 40
0
 40
0
 40
0
 40
1
 40
1
 40
1
 40
1
 10
418.320000
 20
786.000000
 30
0.0
 10
418.320000
 20
775.920000
 30
0.0
 10
420.560000
 20
761.360000
 30
0.0
 10
422.160000
 20
761.280000
 30
0.0
  0
SPLINE
  5
191
100
AcDbEntity
  8
0
 62
7
100
AcDbSpline
 70
8
 71
3
 72
8
 73
4
 74
0
 40
0
 40
0
 40
0
 40
0
 40
1
 40
1
 40
1
 40
1
 10
422.160000
 20
761.280000
 30
0.0
 10
423.120000
 20
761.200000
 30
0.0
 10
426.640000
 20
767.120000
 30
0.0
 10
430.400000
 20
775.200000
 30
0.0
  0
SPLINE
  5
192
100
AcDbEntity
  8
0
 62
7
100
AcDbSpline
 70
8
 71
3
 72
8
 73
4
 74
0
 40
0
 40
0
 40
0
 40
0
 40
1
 40
1
 40
1
 40
1
 10
430.400000
 20
775.200000
 30
0.0
 10
438.160000
 20
791.760000
 30
0.0
 10
441.680000
 20
796.080000
 30
0.0
 10
446.000000
 20
794.560000
 30
0.0
  0
SPLINE
  5
193
100
AcDbEntity
  8
0
 62
7
100
AcDbSpline
 70
8
 71
3
 72
8
 73
4
 74
0
 40
0
 40
0
 40
0
 40
0
 40
1
 40
1
 40
1
 40
1
 10
446.000000
 20
794.560000
 30
0.0
 10
450.960000
 20
792.800000
 30
0.0
 10
451.200000
 20
787.840000
 30
0.0
 10
447.040000
 20
777.840000
 30
0.0
  0
SPLINE
  5
194
100
AcDbEntity
  8
0
 62
7
100
AcDbSpline
 70
8
 71
3
 72
8
 73
4
 74
0
 40
0
 40
0
 40
0
 40
0
 40
1
 40
1
 40
1
 40
1
 10
447.040000
 20
777.840000
 30
0.0
 10
445.360000
 20
773.920000
 30
0.0
 10
444.000000
 20
770.400000
 30
0.0
 10
444.000000
 20
770.000000
 30
0.0
  0
SPLINE
  5
195
100
AcDbEntity
  8
0
 62
7
100
AcDbSpline
 70
8
 71
3
 72
8
 73
4
 74
0
 40
0
 40
0
 40
0
 40
0
 40
1
 40
1
 40
1
 40
1
 10
444.000000
 20
770.000000
 30
0.0
 10
444.000000
 20
769.600000
 30
0.0
 10
442.640000
 20
766.560000
 30
0.0
 10
440.960000
 20
763.200000
 30
0.0
  0
SPLINE
  5
196
100
AcDbEntity
  8
0
 62
7
100
AcDbSpline
 70
8
 71
3
 72
8
 73
4
 74
0
 40
0
 40
0
 40
0
 40
0
 40
1
 40
1
 40
1
 40
1
 10
440.960000
 20
763.200000
 30
0.0
 10
437.440000
 20
756.240000
 30
0.0
 10
436.480000
 20
752.720000
 30
0.0
 10
437.920000
 20
752.720000
 30
0.0
  0
SPLINE
  5
197
100
AcDbEntity
  8
0
 62
7
100
AcDbSpline
 70
8
 71
3
 72
8
 73
4
 74
0
 40
0
 40
0
 40
0
 40
0
 40
1
 40
1
 40
1
 40
1
 10
437.920000
 20
752.720000
 30
0.0
 10
440.480000
 20
752.720000
 30
0.0
 10
450.960000
 20
758.960000
 30
0.0
 10
462.320000
 20
767.200000
 30
0.0
  0
SPLINE
  5
198
100
AcDbEntity
  8
0
 62
7
100
AcDbSpline
 70
8
 71
3
 72
8
 73
4
 74
0
 40
0
 40
0
 40
0
 40
0
 40
1
 40
1
 40
1
 40
1
 10
462.320000
 20
767.200000
 30
0.0
 10
466.000000
 20
769.840000
 30
0.0
 10
467.360000
 20
769.600000
 30
0.0
 10
469.360000
 20
765.760000
 30
0.0
  0
SPLINE
  5
199
100
AcDbEntity
  8
0
 62
7
100
AcDbSpline
 70
8
 71
3
 72
8
 73
4
 74
0
 40
0
 40
0
 40
0
 40
0
 40
1
 40
1
 40
1
 40
1
 10
469.360000
 20
765.760000
 30
0.0
 10
471.920000
 20
760.880000
 30
0.0
 10
470.160000
 20
757.680000
 30
0.0
 10
459.680000
 20
748.160000
 30
0.0
  0
SPLINE
  5
19a
100
AcDbEntity
  8
0
 62
7
100
AcDbSpline
 70
8
 71
3
 72
8
 73
4
 74
0
 40
0
 40
0
 40
0
 40
0
 40
1
 40
1
 40
1
 40
1
 10
459.680000
 20
748.160000
 30
0.0
 10
454.800000
 20
743.680000
 30
0.0
 10
450.960000
 20
739.520000
 30
0.0
 10
451.200000
 20
738.960000
 30
0.0
  0
SPLINE
  5
19b
100
AcDbEntity
  8
0
 62
7
100
AcDbSpline
 70
8
 71
3
 72
8
 73
4
 74
0
 40
0
 40
0
 40
0
 40
0
 40
1
 40
1
 40
1
 40
1
 10
451.200000
 20
738.960000
 30
0.0
 10
451.920000
 20
737.200000
 30
0.0
 10
459.120000
 20
735.920000
 30
0.0
 10
465.760000
 20
736.400000
 30
0.0
  0
SPLINE
  5
19c
100
AcDbEntity
  8
0
 62
7
100
AcDbSpline
 70
8
 71
3
 72
8
 73
4
 74
0
 40
0
 40
0
 40
0
 40
0
 40
1
 40
1
 40
1
 40
1
 10
465.760000
 20
736.400000
 30
0.0
 10
472.880000
 20
736.880000
 30
0.0
 10
474.560000
 20
736.320000
 30
0.0
 10
475.360000
 20
732.960000
 30
0.0
  0
SPLINE
  5
19d
100
AcDbEntity
  8
0
 62
7
100
AcDbSpline
 70
8
 71
3
 72
8
 73
4
 74
0
 40
0
 40
0
 40
0
 40
0
 40
1
 40
1
 40
1
 40
1
 10
475.360000
 20
732.960000
 30
0.0
 10
476.480000
 20
728.080000
 30
0.0
 10
470.160000
 20
722.800000
 30
0.0
 10
463.040000
 20
722.800000
 30
0.0
  0
SPLINE
  5
19e
100
AcDbEntity
  8
0
 62
7
100
AcDbSpline
 70
8
 71
3
 72
8
 73
4
 74
0
 40
0
 40
0
 40
0
 40
0
 40
1
 40
1
 40
1
 40
1
 10
463.040000
 20
722.800000
 30
0.0
 10
461.200000
 20
722.800000
 30
0.0
 10
457.520000
 20
721.920000
 30
0.0
 10
454.960000
 20
720.880000
 30
0.0
  0
SPLINE
  5
19f
100
AcDbEntity
  8
0
 62
7
100
AcDbSpline
 70
8
 71
3
 72
8
 73
4
 74
0
 40
0
 40
0
 40
0
 40
0
 40
1
 40
1
 40
1
 40
1
 10
454.960000
 20
720.880000
 30
0.0
 10
451.200000
 20
719.360000
 30
0.0
 10
450.160000
 20
718.480000
 30
0.0
 10
449.760000
 20
716.720000
 30
0.0
  0
SPLINE
  5
1a0
100
AcDbEntity
  8
0
 62
7
100
AcDbSpline
 70
8
 71
3
 72
8
 73
4
 74
0
 40
0
 40
0
 40
0
 40
0
 40
1
 40
1
 40
1
 40
1
 10
449.760000
 20
716.720000
 30
0.0
 10
449.520000
 20
715.520000
 30
0.0
 10
448.560000
 20
713.760000
 30
0.0
 10
447.760000
 20
712.880000
 30
0.0
  0
SPLINE
  5
1a1
100
AcDbEntity
  8
0
 62
7
100
AcDbSpline
 70
8
 71
3
 72
8
 73
4
 74
0
 40
0
 40
0
 40
0
 40
0
 40
1
 40
1
 40
1
 40
1
 10
447.760000
 20
712.880000
 30
0.0
 10
446.880000
 20
712.000000
 30
0.0
 10
444.800000
 20
709.680000
 30
0.0
 10
443.200000
 20
707.760000
 30
0.0
  0
SPLINE
  5
1a2
100
AcDbEntity
  8
0
 62
7
100
AcDbSpline
 70
8
 71
3
 72
8
 73
4
 74
0
 40
0
 40
0
 40
0
 40
0
 40
1
 40
1
 40
1
 40
1
 10
443.200000
 20
707.760000
 30
0.0
 10
441.520000
 20
705.840000
 30
0.0
 10
439.360000
 20
703.600000
 30
0.0
 10
438.320000
 20
702.880000
 30
0.0
  0
SPLINE
  5
1a3
100
AcDbEntity
  8
0
 62
7
100
AcDbSpline
 70
8
 71
3
 72
8
 73
4
 74
0
 40
0
 40
0
 40
0
 40
0
 40
1
 40
1
 40
1
 40
1
 10
438.320000
 20
702.880000
 30
0.0
 10
437.280000
 20
702.160000
 30
0.0
 10
435.440000
 20
699.920000
 30
0.0
 10
434.240000
 20
698.000000
 30
0.0
  0
SPLINE
  5
1a4
100
AcDbEntity
  8
0
 62
7
100
AcDbSpline
 70
8
 71
3
 72
8
 73
4
 74
0
 40
0
 40
0
 40
0
 40
0
 40
1
 40
1
 40
1
 40
1
 10
434.240000
 20
698.000000
 30
0.0
 10
433.040000
 20
696.080000
 30
0.0
 10
431.280000
 20
694.320000
 30
0.0
 10
430.320000
 20
694.000000
 30
0.0
  0
SPLINE
  5
1a5
100
AcDbEntity
  8
0
 62
7
100
AcDbSpline
 70
8
 71
3
 72
8
 73
4
 74
0
 40
0
 40
0
 40
0
 40
0
 40
1
 40
1
 40
1
 40
1
 10
430.320000
 20
694.000000
 30
0.0
 10
428.880000
 20
693.600000
 30
0.0
 10
428.720000
 20
692.880000
 30
0.0
 10
428.800000
 20
687.840000
 30
0.0
  0
SPLINE
  5
1a6
100
AcDbEntity
  8
0
 62
7
100
AcDbSpline
 70
8
 71
3
 72
8
 73
4
 74
0
 40
0
 40
0
 40
0
 40
0
 40
1
 40
1
 40
1
 40
1
 10
428.800000
 20
687.840000
 30
0.0
 10
428.960000
 20
683.040000
 30
0.0
 10
428.560000
 20
681.520000
 30
0.0
 10
426.560000
 20
677.920000
 30
0.0
  0
SPLINE
  5
1a7
100
AcDbEntity
  8
0
 62
7
100
AcDbSpline
 70
8
 71
3
 72
8
 73
4
 74
0
 40
0
 40
0
 40
0
 40
0
 40
1
 40
1
 40
1
 40
1
 10
426.560000
 20
677.920000
 30
0.0
 10
425.120000
 20
675.360000
 30
0.0
 10
424.320000
 20
673.040000
 30
0.0
 10
424.640000
 20
672.000000
 30
0.0
  0
SPLINE
  5
1a8
100
AcDbEntity
  8
0
 62
7
100
AcDbSpline
 70
8
 71
3
 72
8
 73
4
 74
0
 40
0
 40
0
 40
0
 40
0
 40
1
 40
1
 40
1
 40
1
 10
424.640000
 20
672.000000
 30
0.0
 10
424.960000
 20
670.880000
 30
0.0
 10
423.920000
 20
668.000000
 30
0.0
 10
421.760000
 20
664.000000
 30
0.0
  0
SPLINE
  5
1a9
100
AcDbEntity
  8
0
 62
7
100
AcDbSpline
 70
8
 71
3
 72
8
 73
4
 74
0
 40
0
 40
0
 40
0
 40
0
 40
1
 40
1
 40
1
 40
1
 10
421.760000
 20
664.000000
 30
0.0
 10
418.320000
 20
657.360000
 30
0.0
 10
418.480000
 20
657.520000
 30
0.0
 10
409.040000
 20
654.160000
 30
0.0
  0
SPLINE
  5
1aa
100
AcDbEntity
  8
0
 62
7
100
AcDbSpline
 70
8
 71
3
 72
8
 73
4
 74
0
 40
0
 40
0
 40
0
 40
0
 40
1
 40
1
 40
1
 40
1
 10
409.040000
 20
654.160000
 30
0.0
 10
405.680000
 20
652.960000
 30
0.0
 10
404.160000
 20
653.360000
 30
0.0
 10
402.560000
 20
655.760000
 30
0.0
  0
SPLINE
  5
1ab
100
AcDbEntity
  8
0
 62
7
100
AcDbSpline
 70
8
 71
3
 72
8
 73
4
 74
0
 40
0
 40
0
 40
0
 40
0
 40
1
 40
1
 40
1
 40
1
 10
402.560000
 20
655.760000
 30
0.0
 10
400.720000
 20
658.640000
 30
0.0
 10
400.240000
 20
658.640000
 30
0.0
 10
395.840000
 20
656.400000
 30
0.0
  0
SPLINE
  5
1ac
100
AcDbEntity
  8
0
 62
7
100
AcDbSpline
 70
8
 71
3
 72
8
 73
4
 74
0
 40
0
 40
0
 40
0
 40
0
 40
1
 40
1
 40
1
 40
1
 10
395.840000
 20
656.400000
 30
0.0
 10
393.040000
 20
654.960000
 30
0.0
 10
392.160000
 20
654.800000
 30
0.0
 10
390.800000
 20
655.600000
 30
0.0
  0
SPLINE
  5
1ad
100
AcDbEntity
  8
0
 62
7
100
AcDbSpline
 70
8
 71
3
 72
8
 73
4
 74
0
 40
0
 40
0
 40
0
 40
0
 40
1
 40
1
 40
1
 40
1
 10
390.800000
 20
655.600000
 30
0.0
 10
387.440000
 20
657.600000
 30
0.0
 10
384.560000
 20
656.800000
 30
0.0
 10
380.160000
 20
652.640000
 30
0.0
  0
SPLINE
  5
1ae
100
AcDbEntity
  8
0
 62
7
100
AcDbSpline
 70
8
 71
3
 72
8
 73
4
 74
0
 40
0
 40
0
 40
0
 40
0
 40
1
 40
1
 40
1
 40
1
 10
380.160000
 20
652.640000
 30
0.0
 10
374.400000
 20
647.280000
 30
0.0
 10
371.440000
 20
646.640000
 30
0.0
 10
365.040000
 20
648.960000
 30
0.0
  0
SPLINE
  5
1af
100
AcDbEntity
  8
0
 62
7
100
AcDbSpline
 70
8
 71
3
 72
8
 73
4
 74
0
 40
0
 40
0
 40
0
 40
0
 40
1
 40
1
 40
1
 40
1
 10
365.040000
 20
648.960000
 30
0.0
 10
362.320000
 20
650.000000
 30
0.0
 10
359.760000
 20
650.640000
 30
0.0
 10
359.280000
 20
650.320000
 30
0.0
  0
SPLINE
  5
1b0
100
AcDbEntity
  8
0
 62
7
100
AcDbSpline
 70
8
 71
3
 72
8
 73
4
 74
0
 40
0
 40
0
 40
0
 40
0
 40
1
 40
1
 40
1
 40
1
 10
359.280000
 20
650.320000
 30
0.0
 10
358.880000
 20
650.080000
 30
0.0
 10
358.320000
 20
646.480000
 30
0.0
 10
358.000000
 20
642.400000
 30
0.0
  0
SPLINE
  5
1b1
100
AcDbEntity
  8
0
 62
7
100
AcDbSpline
 70
8
 71
3
 72
8
 73
4
 74
0
 40
0
 40
0
 40
0
 40
0
 40
1
 40
1
 40
1
 40
1
 10
358.000000
 20
642.400000
 30
0.0
 10
356.720000
 20
625.120000
 30
0.0
 10
346.560000
 20
607.120000
 30
0.0
 10
333.440000
 20
598.960000
 30
0.0
  0
SPLINE
  5
1b2
100
AcDbEntity
  8
0
 62
7
100
AcDbSpline
 70
8
 71
3
 72
8
 73
4
 74
0
 40
0
 40
0
 40
0
 40
0
 40
1
 40
1
 40
1
 40
1
 10
333.440000
 20
598.960000
 30
0.0
 10
331.120000
 20
597.440000
 30
0.0
 10
328.960000
 20
595.840000
 30
0.0
 10
328.720000
 20
595.280000
 30
0.0
  0
SPLINE
  5
1b3
100
AcDbEntity
  8
0
 62
7
100
AcDbSpline
 70
8
 71
3
 72
8
 73
4
 74
0
 40
0
 40
0
 40
0
 40
0
 40
1
 40
1
 40
1
 40
1
 10
328.720000
 20
595.280000
 30
0.0
 10
328.480000
 20
594.720000
 30
0.0
 10
328.000000
 20
588.480000
 30
0.0
 10
327.760000
 20
581.520000
 30
0.0
  0
SPLINE
  5
1b4
100
AcDbEntity
  8
0
 62
7
100
AcDbSpline
 70
8
 71
3
 72
8
 73
4
 74
0
 40
0
 40
0
 40
0
 40
0
 40
1
 40
1
 40
1
 40
1
 10
327.760000
 20
581.520000
 30
0.0
 10
327.200000
 20
569.760000
 30
0.0
 10
327.360000
 20
568.320000
 30
0.0
 10
329.040000
 20
563.680000
 30
0.0
  0
SPLINE
  5
1b5
100
AcDbEntity
  8
0
 62
7
100
AcDbSpline
 70
8
 71
3
 72
8
 73
4
 74
0
 40
0
 40
0
 40
0
 40
0
 40
1
 40
1
 40
1
 40
1
 10
329.040000
 20
563.680000
 30
0.0
 10
330.000000
 20
560.880000
 30
0.0
 10
330.800000
 20
556.880000
 30
0.0
 10
330.800000
 20
554.720000
 30
0.0
  0
SPLINE
  5
1b6
100
AcDbEntity
  8
0
 62
7
100
AcDbSpline
 70
8
 71
3
 72
8
 73
4
 74
0
 40
0
 40
0
 40
0
 40
0
 40
1
 40
1
 40
1
 40
1
 10
330.800000
 20
554.720000
 30
0.0
 10
330.800000
 20
552.240000
 30
0.0
 10
331.440000
 20
550.000000
 30
0.0
 10
332.400000
 20
548.720000
 30
0.0
  0
SPLINE
  5
1b7
100
AcDbEntity
  8
0
 62
7
100
AcDbSpline
 70
8
 71
3
 72
8
 73
4
 74
0
 40
0
 40
0
 40
0
 40
0
 40
1
 40
1
 40
1
 40
1
 10
332.400000
 20
548.720000
 30
0.0
 10
337.680000
 20
541.440000
 30
0.0
 10
341.120000
 20
532.480000
 30
0.0
 10
342.880000
 20
520.800000
 30
0.0
  0
SPLINE
  5
1b8
100
AcDbEntity
  8
0
 62
7
100
AcDbSpline
 70
8
 71
3
 72
8
 73
4
 74
0
 40
0
 40
0
 40
0
 40
0
 40
1
 40
1
 40
1
 40
1
 10
342.880000
 20
520.800000
 30
0.0
 10
343.920000
 20
514.160000
 30
0.0
 10
343.920000
 20
513.760000
 30
0.0
 10
342.080000
 20
511.600000
 30
0.0
  0
SPLINE
  5
1b9
100
AcDbEntity
  8
0
 62
7
100
AcDbSpline
 70
8
 71
3
 72
8
 73
4
 74
0
 40
0
 40
0
 40
0
 40
0
 40
1
 40
1
 40
1
 40
1
 10
342.080000
 20
511.600000
 30
0.0
 10
339.360000
 20
508.160000
 30
0.0
 10
339.760000
 20
506.400000
 30
0.0
 10
343.600000
 20
504.080000
 30
0.0
  0
SPLINE
  5
1ba
100
AcDbEntity
  8
0
 62
7
100
AcDbSpline
 70
8
 71
3
 72
8
 73
4
 74
0
 40
0
 40
0
 40
0
 40
0
 40
1
 40
1
 40
1
 40
1
 10
343.600000
 20
504.080000
 30
0.0
 10
347.440000
 20
501.920000
 30
0.0
 10
347.200000
 20
502.800000
 30
0.0
 10
348.880000
 20
485.200000
 30
0.0
  0
SPLINE
  5
1bb
100
AcDbEntity
  8
0
 62
7
100
AcDbSpline
 70
8
 71
3
 72
8
 73
4
 74
0
 40
0
 40
0
 40
0
 40
0
 40
1
 40
1
 40
1
 40
1
 10
348.880000
 20
485.200000
 30
0.0
 10
349.440000
 20
479.440000
 30
0.0
 10
349.680000
 20
472.160000
 30
0.0
 10
349.280000
 20
468.640000
 30
0.0
  0
SPLINE
  5
1bc
100
AcDbEntity
  8
0
 62
7
100
AcDbSpline
 70
8
 71
3
 72
8
 73
4
 74
0
 40
0
 40
0
 40
0
 40
0
 40
1
 40
1
 40
1
 40
1
 10
349.280000
 20
468.640000
 30
0.0
 10
348.720000
 20
462.720000
 30
0.0
 10
348.640000
 20
457.760000
 30
0.0
 10
348.880000
 20
451.440000
 30
0.0
  0
SPLINE
  5
1bd
100
AcDbEntity
  8
0
 62
7
100
AcDbSpline
 70
8
 71
3
 72
8
 73
4
 74
0
 40
0
 40
0
 40
0
 40
0
 40
1
 40
1
 40
1
 40
1
 10
348.880000
 20
451.440000
 30
0.0
 10
349.200000
 20
444.160000
 30
0.0
 10
346.240000
 20
420.720000
 30
0.0
 10
344.160000
 20
413.040000
 30
0.0
  0
SPLINE
  5
1be
100
AcDbEntity
  8
0
 62
7
100
AcDbSpline
 70
8
 71
3
 72
8
 73
4
 74
0
 40
0
 40
0
 40
0
 40
0
 40
1
 40
1
 40
1
 40
1
 10
344.160000
 20
413.040000
 30
0.0
 10
343.040000
 20
409.280000
 30
0.0
 10
343.040000
 20
408.080000
 30
0.0
 10
344.080000
 20
404.000000
 30
0.0
  0
SPLINE
  5
1bf
100
AcDbEntity
  8
0
 62
7
100
AcDbSpline
 70
8
 71
3
 72
8
 73
4
 74
0
 40
0
 40
0
 40
0
 40
0
 40
1
 40
1
 40
1
 40
1
 10
344.080000
 20
404.000000
 30
0.0
 10
345.200000
 20
399.680000
 30
0.0
 10
345.200000
 20
398.640000
 30
0.0
 10
343.520000
 20
391.360000
 30
0.0
  0
SPLINE
  5
1c0
100
AcDbEntity
  8
0
 62
7
100
AcDbSpline
 70
8
 71
3
 72
8
 73
4
 74
0
 40
0
 40
0
 40
0
 40
0
 40
1
 40
1
 40
1
 40
1
 10
343.520000
 20
391.360000
 30
0.0
 10
341.200000
 20
381.360000
 30
0.0
 10
340.960000
 20
370.480000
 30
0.0
 10
342.960000
 20
368.400000
 30
0.0
  0
SPLINE
  5
1c1
100
AcDbEntity
  8
0
 62
7
100
AcDbSpline
 70
8
 71
3
 72
8
 73
4
 74
0
 40
0
 40
0
 40
0
 40
0
 40
1
 40
1
 40
1
 40
1
 10
342.960000
 20
368.400000
 30
0.0
 10
347.440000
 20
363.760000
 30
0.0
 10
353.280000
 20
351.200000
 30
0.0
 10
357.440000
 20
336.960000
 30
0.0
  0
SPLINE
  5
1c2
100
AcDbEntity
  8
0
 62
7
100
AcDbSpline
 70
8
 71
3
 72
8
 73
4
 74
0
 40
0
 40
0
 40
0
 40
0
 40
1
 40
1
 40
1
 40
1
 10
357.440000
 20
336.960000
 30
0.0
 10
359.920000
 20
328.880000
 30
0.0
 10
360.240000
 20
314.400000
 30
0.0
 10
358.080000
 20
308.960000
 30
0.0
  0
SPLINE
  5
1c3
100
AcDbEntity
  8
0
 62
7
100
AcDbSpline
 70
8
 71
3
 72
8
 73
4
 74
0
 40
0
 40
0
 40
0
 40
0
 40
1
 40
1
 40
1
 40
1
 10
358.080000
 20
308.960000
 30
0.0
 10
355.840000
 20
303.280000
 30
0.0
 10
352.240000
 20
286.640000
 30
0.0
 10
350.880000
 20
276.320000
 30
0.0
  0
SPLINE
  5
1c4
100
AcDbEntity
  8
0
 62
7
100
AcDbSpline
 70
8
 71
3
 72
8
 73
4
 74
0
 40
0
 40
0
 40
0
 40
0
 40
1
 40
1
 40
1
 40
1
 10
350.880000
 20
276.320000
 30
0.0
 10
348.320000
 20
255.920000
 30
0.0
 10
350.320000
 20
233.440000
 30
0.0
 10
355.680000
 20
222.000000
 30
0.0
  0
SPLINE
  5
1c5
100
AcDbEntity
  8
0
 62
7
100
AcDbSpline
 70
8
 71
3
 72
8
 73
4
 74
0
 40
0
 40
0
 40
0
 40
0
 40
1
 40
1
 40
1
 40
1
 10
355.680000
 20
222.000000
 30
0.0
 10
358.080000
 20
216.880000
 30
0.0
 10
358.080000
 20
206.640000
 30
0.0
 10
355.680000
 20
198.720000
 30
0.0
  0
SPLINE
  5
1c6
100
AcDbEntity
  8
0
 62
7
100
AcDbSpline
 70
8
 71
3
 72
8
 73
4
 74
0
 40
0
 40
0
 40
0
 40
0
 40
1
 40
1
 40
1
 40
1
 10
355.680000
 20
198.720000
 30
0.0
 10
354.320000
 20
194.240000
 30
0.0
 10
354.000000
 20
191.760000
 30
0.0
 10
354.480000
 20
187.600000
 30
0.0
  0
SPLINE
  5
1c7
100
AcDbEntity
  8
0
 62
7
100
AcDbSpline
 70
8
 71
3
 72
8
 73
4
 74
0
 40
0
 40
0
 40
0
 40
0
 40
1
 40
1
 40
1
 40
1
 10
354.480000
 20
187.600000
 30
0.0
 10
354.960000
 20
182.880000
 30
0.0
 10
354.880000
 20
182.240000
 30
0.0
 10
353.120000
 20
180.720000
 30
0.0
  0
SPLINE
  5
1c8
100
AcDbEntity
  8
0
 62
7
100
AcDbSpline
 70
8
 71
3
 72
8
 73
4
 74
0
 40
0
 40
0
 40
0
 40
0
 40
1
 40
1
 40
1
 40
1
 10
353.120000
 20
180.720000
 30
0.0
 10
351.280000
 20
179.200000
 30
0.0
 10
351.280000
 20
179.040000
 30
0.0
 10
352.720000
 20
175.280000
 30
0.0
  0
SPLINE
  5
1c9
100
AcDbEntity
  8
0
 62
7
100
AcDbSpline
 70
8
 71
3
 72
8
 73
4
 74
0
 40
0
 40
0
 40
0
 40
0
 40
1
 40
1
 40
1
 40
1
 10
352.720000
 20
175.280000
 30
0.0
 10
353.520000
 20
173.200000
 30
0.0
 10
354.480000
 20
168.640000
 30
0.0
 10
354.880000
 20
165.200000
 30
0.0
  0
SPLINE
  5
1ca
100
AcDbEntity
  8
0
 62
7
100
AcDbSpline
 70
8
 71
3
 72
8
 73
4
 74
0
 40
0
 40
0
 40
0
 40
0
 40
1
 40
1
 40
1
 40
1
 10
354.880000
 20
165.200000
 30
0.0
 10
355.360000
 20
161.680000
 30
0.0
 10
355.920000
 20
157.680000
 30
0.0
 10
356.240000
 20
156.240000
 30
0.0
  0
SPLINE
  5
1cb
100
AcDbEntity
  8
0
 62
7
100
AcDbSpline
 70
8
 71
3
 72
8
 73
4
 74
0
 40
0
 40
0
 40
0
 40
0
 40
1
 40
1
 40
1
 40
1
 10
356.240000
 20
156.240000
 30
0.0
 10
356.640000
 20
154.240000
 30
0.0
 10
356.240000
 20
152.880000
 30
0.0
 10
354.240000
 20
150.000000
 30
0.0
  0
SPLINE
  5
1cc
100
AcDbEntity
  8
0
 62
7
100
AcDbSpline
 70
8
 71
3
 72
8
 73
4
 74
0
 40
0
 40
0
 40
0
 40
0
 40
1
 40
1
 40
1
 40
1
 10
354.240000
 20
150.000000
 30
0.0
 10
352.880000
 20
147.920000
 30
0.0
 10
350.880000
 20
144.480000
 30
0.0
 10
349.840000
 20
142.320000
 30
0.0
  0
SPLINE
  5
1cd
100
AcDbEntity
  8
0
 62
7
100
AcDbSpline
 70
8
 71
3
 72
8
 73
4
 74
0
 40
0
 40
0
 40
0
 40
0
 40
1
 40
1
 40
1
 40
1
 10
349.840000
 20
142.320000
 30
0.0
 10
346.880000
 20
136.240000
 30
0.0
 10
346.800000
 20
136.080000
 30
0.0
 10
342.320000
 20
134.560000
 30
0.0
  0
SPLINE
  5
1ce
100
AcDbEntity
  8
0
 62
7
100
AcDbSpline
 70
8
 71
3
 72
8
 73
4
 74
0
 40
0
 40
0
 40
0
 40
0
 40
1
 40
1
 40
1
 40
1
 10
342.320000
 20
134.560000
 30
0.0
 10
338.240000
 20
133.200000
 30
0.0
 10
338.160000
 20
133.200000
 30
0.0
 10
336.800000
 20
134.880000
 30
0.0
  0
SPLINE
  5
1cf
100
AcDbEntity
  8
0
 62
7
100
AcDbSpline
 70
8
 71
3
 72
8
 73
4
 74
0
 40
0
 40
0
 40
0
 40
0
 40
1
 40
1
 40
1
 40
1
 10
336.800000
 20
134.880000
 30
0.0
 10
335.600000
 20
136.400000
 30
0.0
 10
334.800000
 20
136.560000
 30
0.0
 10
332.080000
 20
136.160000
 30
0.0
  0
SPLINE
  5
1d0
100
AcDbEntity
  8
0
 62
7
100
AcDbSpline
 70
8
 71
3
 72
8
 73
4
 74
0
 40
0
 40
0
 40
0
 40
0
 40
1
 40
1
 40
1
 40
1
 10
332.080000
 20
136.160000
 30
0.0
 10
330.320000
 20
135.920000
 30
0.0
 10
328.240000
 20
135.120000
 30
0.0
 10
327.440000
 20
134.480000
 30
0.0
  0
SPLINE
  5
1d1
100
AcDbEntity
  8
0
 62
7
100
AcDbSpline
 70
8
 71
3
 72
8
 73
4
 74
0
 40
0
 40
0
 40
0
 40
0
 40
1
 40
1
 40
1
 40
1
 10
327.440000
 20
134.480000
 30
0.0
 10
326.640000
 20
133.840000
 30
0.0
 10
324.720000
 20
133.280000
 30
0.0
 10
323.200000
 20
133.280000
 30
0.0
  0
SPLINE
  5
1d2
100
AcDbEntity
  8
0
 62
7
100
AcDbSpline
 70
8
 71
3
 72
8
 73
4
 74
0
 40
0
 40
0
 40
0
 40
0
 40
1
 40
1
 40
1
 40
1
 10
323.200000
 20
133.280000
 30
0.0
 10
320.800000
 20
133.280000
 30
0.0
 10
320.080000
 20
133.840000
 30
0.0
 10
316.800000
 20
138.560000
 30
0.0
  0
LINE
  5
1d3
100
AcDbEntity
  8
0
 62
7
100
AcDbLine
 10
316.800000
 20
138.560000
 30
0.0
 11
316.800000
 21
138.560000
 31
0.0
  0
SPLINE
  5
1d4
100
AcDbEntity
  8
0
 62
7
100
AcDbSpline
 70
8
 71
3
 72
8
 73
4
 74
0
 40
0
 40
0
 40
0
 40
0
 40
1
 40
1
 40
1
 40
1
 10
162.800000
 20
504.480000
 30
0.0
 10
166.640000
 20
506.400000
 30
0.0
 10
168.560000
 20
514.800000
 30
0.0
 10
165.680000
 20
517.440000
 30
0.0
  0
SPLINE
  5
1d5
100
AcDbEntity
  8
0
 62
7
100
AcDbSpline
 70
8
 71
3
 72
8
 73
4
 74
0
 40
0
 40
0
 40
0
 40
0
 40
1
 40
1
 40
1
 40
1
 10
165.680000
 20
517.440000
 30
0.0
 10
164.080000
 20
518.880000
 30
0.0
 10
164.000000
 20
518.880000
 30
0.0
 10
161.600000
 20
517.760000
 30
0.0
  0
SPLINE
  5
1d6
100
AcDbEntity
  8
0
 62
7
100
AcDbSpline
 70
8
 71
3
 72
8
 73
4
 74
0
 40
0
 40
0
 40
0
 40
0
 40
1
 40
1
 40
1
 40
1
 10
161.600000
 20
517.760000
 30
0.0
 10
154.880000
 20
514.560000
 30
0.0
 10
152.800000
 20
508.560000
 30
0.0
 10
157.280000
 20
505.280000
 30
0.0
  0
SPLINE
  5
1d7
100
AcDbEntity
  8
0
 62
7
100
AcDbSpline
 70
8
 71
3
 72
8
 73
4
 74
0
 40
0
 40
0
 40
0
 40
0
 40
1
 40
1
 40
1
 40
1
 10
157.280000
 20
505.280000
 30
0.0
 10
159.840000
 20
503.440000
 30
0.0
 10
160.480000
 20
503.360000
 30
0.0
 10
162.800000
 20
504.480000
 30
0.0
  0
LINE
  5
1d8
100
AcDbEntity
  8
0
 62
7
100
AcDbLine
 10
162.800000
 20
504.480000
 30
0.0
 11
162.800000
 21
504.480000
 31
0.0
  0
SPLINE
  5
1d9
100
AcDbEntity
  8
0
 62
7
100
AcDbSpline
 70
8
 71
3
 72
8
 73
4
 74
0
 40
0
 40
0
 40
0
 40
0
 40
1
 40
1
 40
1
 40
1
 10
263.280000
 20
663.040000
 30
0.0
 10
270.320000
 20
668.160000
 30
0.0
 10
271.920000
 20
669.600000
 30
0.0
 10
273.120000
 20
672.240000
 30
0.0
  0
SPLINE
  5
1da
100
AcDbEntity
  8
0
 62
7
100
AcDbSpline
 70
8
 71
3
 72
8
 73
4
 74
0
 40
0
 40
0
 40
0
 40
0
 40
1
 40
1
 40
1
 40
1
 10
273.120000
 20
672.240000
 30
0.0
 10
274.000000
 20
674.160000
 30
0.0
 10
274.080000
 20
675.120000
 30
0.0
 10
273.440000
 20
675.760000
 30
0.0
  0
SPLINE
  5
1db
100
AcDbEntity
  8
0
 62
7
100
AcDbSpline
 70
8
 71
3
 72
8
 73
4
 74
0
 40
0
 40
0
 40
0
 40
0
 40
1
 40
1
 40
1
 40
1
 10
273.440000
 20
675.760000
 30
0.0
 10
272.960000
 20
676.240000
 30
0.0
 10
268.880000
 20
676.720000
 30
0.0
 10
264.400000
 20
676.960000
 30
0.0
  0
LINE
  5
1dc
100
AcDbEntity
  8
0
 62
7
100
AcDbLine
 10
264.400000
 20
676.960000
 30
0.0
 11
256.320000
 21
677.280000
 31
0.0
  0
LINE
  5
1dd
100
AcDbEntity
  8
0
 62
7
100
AcDbLine
 10
256.320000
 20
677.280000
 30
0.0
 11
254.960000
 21
674.320000
 31
0.0
  0
SPLINE
  5
1de
100
AcDbEntity
  8
0
 62
7
100
AcDbSpline
 70
8
 71
3
 72
8
 73
4
 74
0
 40
0
 40
0
 40
0
 40
0
 40
1
 40
1
 40
1
 40
1
 10
254.960000
 20
674.320000
 30
0.0
 10
253.840000
 20
671.760000
 30
0.0
 10
253.760000
 20
670.960000
 30
0.0
 10
254.880000
 20
668.080000
 30
0.0
  0
SPLINE
  5
1df
100
AcDbEntity
  8
0
 62
7
100
AcDbSpline
 70
8
 71
3
 72
8
 73
4
 74
0
 40
0
 40
0
 40
0
 40
0
 40
1
 40
1
 40
1
 40
1
 10
254.880000
 20
668.080000
 30
0.0
 10
258.160000
 20
659.200000
 30
0.0
 10
258.080000
 20
659.280000
 30
0.0
 10
263.280000
 20
663.040000
 30
0.0
  0
LINE
  5
1e0
100
AcDbEntity
  8
0
 62
7
100
AcDbLine
 10
263.280000
 20
663.040000
 30
0.0
 11
263.280000
 21
663.040000
 31
0.0
  0
SPLINE
  5
1e1
100
AcDbEntity
  8
0
 62
7
100
AcDbSpline
 70
8
 71
3
 72
8
 73
4
 74
0
 40
0
 40
0
 40
0
 40
0
 40
1
 40
1
 40
1
 40
1
 10
425.440000
 20
715.840000
 30
0.0
 10
428.000000
 20
717.040000
 30
0.0
 10
428.560000
 20
718.000000
 30
0.0
 10
428.560000
 20
721.280000
 30
0.0
  0
SPLINE
  5
1e2
100
AcDbEntity
  8
0
 62
7
100
AcDbSpline
 70
8
 71
3
 72
8
 73
4
 74
0
 40
0
 40
0
 40
0
 40
0
 40
1
 40
1
 40
1
 40
1
 10
428.560000
 20
721.280000
 30
0.0
 10
428.560000
 20
724.640000
 30
0.0
 10
426.320000
 20
727.680000
 30
0.0
 10
422.400000
 20
729.440000
 30
0.0
  0
SPLINE
  5
1e3
100
AcDbEntity
  8
0
 62
7
100
AcDbSpline
 70
8
 71
3
 72
8
 73
4
 74
0
 40
0
 40
0
 40
0
 40
0
 40
1
 40
1
 40
1
 40
1
 10
422.400000
 20
729.440000
 30
0.0
 10
419.040000
 20
730.960000
 30
0.0
 10
417.040000
 20
730.960000
 30
0.0
 10
414.400000
 20
729.360000
 30
0.0
  0
SPLINE
  5
1e4
100
AcDbEntity
  8
0
 62
7
100
AcDbSpline
 70
8
 71
3
 72
8
 73
4
 74
0
 40
0
 40
0
 40
0
 40
0
 40
1
 40
1
 40
1
 40
1
 10
414.400000
 20
729.360000
 30
0.0
 10
412.720000
 20
728.400000
 30
0.0
 10
412.320000
 20
727.440000
 30
0.0
 10
412.320000
 20
725.040000
 30
0.0
  0
SPLINE
  5
1e5
100
AcDbEntity
  8
0
 62
7
100
AcDbSpline
 70
8
 71
3
 72
8
 73
4
 74
0
 40
0
 40
0
 40
0
 40
0
 40
1
 40
1
 40
1
 40
1
 10
412.320000
 20
725.040000
 30
0.0
 10
412.320000
 20
721.200000
 30
0.0
 10
414.240000
 20
718.400000
 30
0.0
 10
418.240000
 20
716.480000
 30
0.0
  0
SPLINE
  5
1e6
100
AcDbEntity
  8
0
 62
7
100
AcDbSpline
 70
8
 71
3
 72
8
 73
4
 74
0
 40
0
 40
0
 40
0
 40
0
 40
1
 40
1
 40
1
 40
1
 10
418.240000
 20
716.480000
 30
0.0
 10
421.840000
 20
714.720000
 30
0.0
 10
422.960000
 20
714.560000
 30
0.0
 10
425.440000
 20
715.840000
 30
0.0
  0
LINE
  5
1e7
100
AcDbEntity
  8
0
 62
7
100
AcDbLine
 10
425.440000
 20
715.840000
 30
0.0
 11
425.440000
 21
715.840000
 31
0.0
  0
SPLINE
  5
1e8
100
AcDbEntity
  8
0
 62
7
100
AcDbSpline
 70
8
 71
3
 72
8
 73
4
 74
0
 40
0
 40
0
 40
0
 40
0
 40
1
 40
1
 40
1
 40
1
 10
287.440000
 20
749.200000
 30
0.0
 10
288.000000
 20
750.640000
 30
0.0
 10
287.360000
 20
750.880000
 30
0.0
 10
281.520000
 20
751.840000
 30
0.0
  0
SPLINE
  5
1e9
100
AcDbEntity
  8
0
 62
7
100
AcDbSpline
 70
8
 71
3
 72
8
 73
4
 74
0
 40
0
 40
0
 40
0
 40
0
 40
1
 40
1
 40
1
 40
1
 10
281.520000
 20
751.840000
 30
0.0
 10
276.720000
 20
752.720000
 30
0.0
 10
276.560000
 20
752.640000
 30
0.0
 10
277.280000
 20
750.880000
 30
0.0
  0
SPLINE
  5
1ea
100
AcDbEntity
  8
0
 62
7
100
AcDbSpline
 70
8
 71
3
 72
8
 73
4
 74
0
 40
0
 40
0
 40
0
 40
0
 40
1
 40
1
 40
1
 40
1
 10
277.280000
 20
750.880000
 30
0.0
 10
278.320000
 20
748.480000
 30
0.0
 10
286.560000
 20
747.120000
 30
0.0
 10
287.440000
 20
749.200000
 30
0.0
  0
LINE
  5
1eb
100
AcDbEntity
  8
0
 62
7
100
AcDbLine
 10
287.440000
 20
749.200000
 30
0.0
 11
287.440000
 21
749.200000
 31
0.0
  0
SPLINE
  5
1ec
100
AcDbEntity
  8
0
 62
7
100
AcDbSpline
 70
8
 71
3
 72
8
 73
4
 74
0
 40
0
 40
0
 40
0
 40
0
 40
1
 40
1
 40
1
 40
1
 10
310.560000
 20
749.520000
 30
0.0
 10
312.000000
 20
750.880000
 30
0.0
 10
310.400000
 20
751.520000
 30
0.0
 10
305.760000
 20
751.280000
 30
0.0
  0
SPLINE
  5
1ed
100
AcDbEntity
  8
0
 62
7
100
AcDbSpline
 70
8
 71
3
 72
8
 73
4
 74
0
 40
0
 40
0
 40
0
 40
0
 40
1
 40
1
 40
1
 40
1
 10
305.760000
 20
751.280000
 30
0.0
 10
301.040000
 20
751.120000
 30
0.0
 10
299.360000
 20
750.320000
 30
0.0
 10
300.400000
 20
748.720000
 30
0.0
  0
SPLINE
  5
1ee
100
AcDbEntity
  8
0
 62
7
100
AcDbSpline
 70
8
 71
3
 72
8
 73
4
 74
0
 40
0
 40
0
 40
0
 40
0
 40
1
 40
1
 40
1
 40
1
 10
300.400000
 20
748.720000
 30
0.0
 10
301.120000
 20
747.680000
 30
0.0
 10
309.120000
 20
748.240000
 30
0.0
 10
310.560000
 20
749.520000
 30
0.0
  0
LINE
  5
1ef
100
AcDbEntity
  8
0
 62
7
100
AcDbLine
 10
310.560000
 20
749.520000
 30
0.0
 11
310.560000
 21
749.520000
 31
0.0
  0
SPLINE
  5
1f0
100
AcDbEntity
  8
0
 62
7
100
AcDbSpline
 70
8
 71
3
 72
8
 73
4
 74
0
 40
0
 40
0
 40
0
 40
0
 40
1
 40
1
 40
1
 40
1
 10
65.680000
 20
65.120000
 30
0.0
 10
68.960000
 20
64.160000
 30
0.0
 10
71.360000
 20
62.560000
 30
0.0
 10
72.960000
 20
60.320000
 30
0.0
  0
SPLINE
  5
1f1
100
AcDbEntity
  8
0
 62
7
100
AcDbSpline
 70
8
 71
3
 72
8
 73
4
 74
0
 40
0
 40
0
 40
0
 40
0
 40
1
 40
1
 40
1
 40
1
 10
72.960000
 20
60.320000
 30
0.0
 10
74.560000
 20
58.080000
 30
0.0
 10
75.360000
 20
55.520000
 30
0.0
 10
75.360000
 20
52.640000
 30
0.0
  0
SPLINE
  5
1f2
100
AcDbEntity
  8
0
 62
7
100
AcDbSpline
 70
8
 71
3
 72
8
 73
4
 74
0
 40
0
 40
0
 40
0
 40
0
 40
1
 40
1
 40
1
 40
1
 10
75.360000
 20
52.640000
 30
0.0
 10
75.360000
 20
49.760000
 30
0.0
 10
74.640000
 20
47.120000
 30
0.0
 10
73.200000
 20
44.720000
 30
0.0
  0
SPLINE
  5
1f3
100
AcDbEntity
  8
0
 62
7
100
AcDbSpline
 70
8
 71
3
 72
8
 73
4
 74
0
 40
0
 40
0
 40
0
 40
0
 40
1
 40
1
 40
1
 40
1
 10
73.200000
 20
44.720000
 30
0.0
 10
71.760000
 20
42.320000
 30
0.0
 10
69.680000
 20
40.560000
 30
0.0
 10
66.960000
 20
39.360000
 30
0.0
  0
SPLINE
  5
1f4
100
AcDbEntity
  8
0
 62
7
100
AcDbSpline
 70
8
 71
3
 72
8
 73
4
 74
0
 40
0
 40
0
 40
0
 40
0
 40
1
 40
1
 40
1
 40
1
 10
66.960000
 20
39.360000
 30
0.0
 10
64.320000
 20
38.240000
 30
0.0
 10
60.720000
 20
37.680000
 30
0.0
 10
56.160000
 20
37.680000
 30
0.0
  0
LINE
  5
1f5
100
AcDbEntity
  8
0
 62
7
100
AcDbLine
 10
56.160000
 20
37.680000
 30
0.0
 11
36.400000
 21
37.680000
 31
0.0
  0
LINE
  5
1f6
100
AcDbEntity
  8
0
 62
7
100
AcDbLine
 10
36.400000
 20
37.680000
 30
0.0
 11
36.400000
 21
89.200000
 31
0.0
  0
LINE
  5
1f7
100
AcDbEntity
  8
0
 62
7
100
AcDbLine
 10
36.400000
 20
89.200000
 30
0.0
 11
55.760000
 21
89.200000
 31
0.0
  0
SPLINE
  5
1f8
100
AcDbEntity
  8
0
 62
7
100
AcDbSpline
 70
8
 71
3
 72
8
 73
4
 74
0
 40
0
 40
0
 40
0
 40
0
 40
1
 40
1
 40
1
 40
1
 10
55.760000
 20
89.200000
 30
0.0
 10
62.000000
 20
89.200000
 30
0.0
 10
66.400000
 20
87.840000
 30
0.0
 10
68.960000
 20
85.120000
 30
0.0
  0
SPLINE
  5
1f9
100
AcDbEntity
  8
0
 62
7
100
AcDbSpline
 70
8
 71
3
 72
8
 73
4
 74
0
 40
0
 40
0
 40
0
 40
0
 40
1
 40
1
 40
1
 40
1
 10
68.960000
 20
85.120000
 30
0.0
 10
71.520000
 20
82.400000
 30
0.0
 10
72.800000
 20
79.440000
 30
0.0
 10
72.800000
 20
76.080000
 30
0.0
  0
SPLINE
  5
1fa
100
AcDbEntity
  8
0
 62
7
100
AcDbSpline
 70
8
 71
3
 72
8
 73
4
 74
0
 40
0
 40
0
 40
0
 40
0
 40
1
 40
1
 40
1
 40
1
 10
72.800000
 20
76.080000
 30
0.0
 10
72.800000
 20
73.840000
 30
0.0
 10
72.240000
 20
71.760000
 30
0.0
 10
71.040000
 20
69.840000
 30
0.0
  0
SPLINE
  5
1fb
100
AcDbEntity
  8
0
 62
7
100
AcDbSpline
 70
8
 71
3
 72
8
 73
4
 74
0
 40
0
 40
0
 40
0
 40
0
 40
1
 40
1
 40
1
 40
1
 10
71.040000
 20
69.840000
 30
0.0
 10
69.840000
 20
67.920000
 30
0.0
 10
68.080000
 20
66.320000
 30
0.0
 10
65.680000
 20
65.120000
 30
0.0
  0
LINE
  5
1fc
100
AcDbEntity
  8
0
 62
7
100
AcDbLine
 10
65.680000
 20
65.120000
 30
0.0
 11
65.680000
 21
65.120000
 31
0.0
  0
LINE
  5
1fd
100
AcDbEntity
  8
0
 62
7
100
AcDbLine
 10
43.200000
 20
67.680000
 30
0.0
 11
54.400000
 21
67.680000
 31
0.0
  0
SPLINE
  5
1fe
100
AcDbEntity
  8
0
 62
7
100
AcDbSpline
 70
8
 71
3
 72
8
 73
4
 74
0
 40
0
 40
0
 40
0
 40
0
 40
1
 40
1
 40
1
 40
1
 10
54.400000
 20
67.680000
 30
0.0
 10
56.720000
 20
67.680000
 30
0.0
 10
58.640000
 20
67.760000
 30
0.0
 10
60.160000
 20
68.000000
 30
0.0
  0
SPLINE
  5
1ff
100
AcDbEntity
  8
0
 62
7
100
AcDbSpline
 70
8
 71
3
 72
8
 73
4
 74
0
 40
0
 40
0
 40
0
 40
0
 40
1
 40
1
 40
1
 40
1
 10
60.160000
 20
68.000000
 30
0.0
 10
61.760000
 20
68.320000
 30
0.0
 10
63.120000
 20
68.960000
 30
0.0
 10
64.320000
 20
70.080000
 30
0.0
  0
SPLINE
  5
200
100
AcDbEntity
  8
0
 62
7
100
AcDbSpline
 70
8
 71
3
 72
8
 73
4
 74
0
 40
0
 40
0
 40
0
 40
0
 40
1
 40
1
 40
1
 40
1
 10
64.320000
 20
70.080000
 30
0.0
 10
65.520000
 20
71.200000
 30
0.0
 10
66.080000
 20
72.880000
 30
0.0
 10
66.080000
 20
75.200000
 30
0.0
  0
SPLINE
  5
201
100
AcDbEntity
  8
0
 62
7
100
AcDbSpline
 70
8
 71
3
 72
8
 73
4
 74
0
 40
0
 40
0
 40
0
 40
0
 40
1
 40
1
 40
1
 40
1
 10
66.080000
 20
75.200000
 30
0.0
 10
66.080000
 20
77.680000
 30
0.0
 10
65.520000
 20
79.440000
 30
0.0
 10
64.320000
 20
80.640000
 30
0.0
  0
SPLINE
  5
202
100
AcDbEntity
  8
0
 62
7
100
AcDbSpline
 70
8
 71
3
 72
8
 73
4
 74
0
 40
0
 40
0
 40
0
 40
0
 40
1
 40
1
 40
1
 40
1
 10
64.320000
 20
80.640000
 30
0.0
 10
63.120000
 20
81.760000
 30
0.0
 10
61.680000
 20
82.480000
 30
0.0
 10
60.000000
 20
82.720000
 30
0.0
  0
SPLINE
  5
203
100
AcDbEntity
  8
0
 62
7
100
AcDbSpline
 70
8
 71
3
 72
8
 73
4
 74
0
 40
0
 40
0
 40
0
 40
0
 40
1
 40
1
 40
1
 40
1
 10
60.000000
 20
82.720000
 30
0.0
 10
58.320000
 20
82.960000
 30
0.0
 10
56.160000
 20
83.120000
 30
0.0
 10
53.520000
 20
83.120000
 30
0.0
  0
LINE
  5
204
100
AcDbEntity
  8
0
 62
7
100
AcDbLine
 10
53.520000
 20
83.120000
 30
0.0
 11
43.200000
 21
83.120000
 31
0.0
  0
LINE
  5
205
100
AcDbEntity
  8
0
 62
7
100
AcDbLine
 10
43.200000
 20
83.120000
 30
0.0
 11
43.200000
 21
67.680000
 31
0.0
  0
LINE
  5
206
100
AcDbEntity
  8
0
 62
7
100
AcDbLine
 10
43.200000
 20
67.680000
 30
0.0
 11
43.200000
 21
67.680000
 31
0.0
  0
LINE
  5
207
100
AcDbEntity
  8
0
 62
7
100
AcDbLine
 10
43.200000
 20
43.840000
 30
0.0
 11
56.080000
 21
43.840000
 31
0.0
  0
SPLINE
  5
208
100
AcDbEntity
  8
0
 62
7
100
AcDbSpline
 70
8
 71
3
 72
8
 73
4
 74
0
 40
0
 40
0
 40
0
 40
0
 40
1
 40
1
 40
1
 40
1
 10
56.080000
 20
43.840000
 30
0.0
 10
60.640000
 20
43.840000
 30
0.0
 10
63.840000
 20
44.560000
 30
0.0
 10
65.600000
 20
46.160000
 30
0.0
  0
SPLINE
  5
209
100
AcDbEntity
  8
0
 62
7
100
AcDbSpline
 70
8
 71
3
 72
8
 73
4
 74
0
 40
0
 40
0
 40
0
 40
0
 40
1
 40
1
 40
1
 40
1
 10
65.600000
 20
46.160000
 30
0.0
 10
67.360000
 20
47.760000
 30
0.0
 10
68.320000
 20
49.920000
 30
0.0
 10
68.320000
 20
52.640000
 30
0.0
  0
SPLINE
  5
20a
100
AcDbEntity
  8
0
 62
7
100
AcDbSpline
 70
8
 71
3
 72
8
 73
4
 74
0
 40
0
 40
0
 40
0
 40
0
 40
1
 40
1
 40
1
 40
1
 10
68.320000
 20
52.640000
 30
0.0
 10
68.320000
 20
55.440000
 30
0.0
 10
67.360000
 20
57.600000
 30
0.0
 10
65.440000
 20
59.200000
 30
0.0
  0
SPLINE
  5
20b
100
AcDbEntity
  8
0
 62
7
100
AcDbSpline
 70
8
 71
3
 72
8
 73
4
 74
0
 40
0
 40
0
 40
0
 40
0
 40
1
 40
1
 40
1
 40
1
 10
65.440000
 20
59.200000
 30
0.0
 10
63.520000
 20
60.720000
 30
0.0
 10
60.160000
 20
61.520000
 30
0.0
 10
55.200000
 20
61.520000
 30
0.0
  0
LINE
  5
20c
100
AcDbEntity
  8
0
 62
7
100
AcDbLine
 10
55.200000
 20
61.520000
 30
0.0
 11
43.200000
 21
61.520000
 31
0.0
  0
LINE
  5
20d
100
AcDbEntity
  8
0
 62
7
100
AcDbLine
 10
43.200000
 20
61.520000
 30
0.0
 11
43.200000
 21
43.840000
 31
0.0
  0
LINE
  5
20e
100
AcDbEntity
  8
0
 62
7
100
AcDbLine
 10
43.200000
 20
43.840000
 30
0.0
 11
43.200000
 21
43.840000
 31
0.0
  0
LINE
  5
20f
100
AcDbEntity
  8
0
 62
7
100
AcDbLine
 10
90.240000
 20
37.680000
 30
0.0
 11
83.920000
 21
37.680000
 31
0.0
  0
LINE
  5
210
100
AcDbEntity
  8
0
 62
7
100
AcDbLine
 10
83.920000
 20
37.680000
 30
0.0
 11
83.920000
 21
74.960000
 31
0.0
  0
LINE
  5
211
100
AcDbEntity
  8
0
 62
7
100
AcDbLine
 10
83.920000
 20
74.960000
 30
0.0
 11
90.240000
 21
74.960000
 31
0.0
  0
LINE
  5
212
100
AcDbEntity
  8
0
 62
7
100
AcDbLine
 10
90.240000
 20
74.960000
 30
0.0
 11
90.240000
 21
37.680000
 31
0.0
  0
LINE
  5
213
100
AcDbEntity
  8
0
 62
7
100
AcDbLine
 10
90.240000
 20
37.680000
 30
0.0
 11
90.240000
 21
37.680000
 31
0.0
  0
LINE
  5
214
100
AcDbEntity
  8
0
 62
7
100
AcDbLine
 10
90.240000
 20
82.080000
 30
0.0
 11
83.920000
 21
82.080000
 31
0.0
  0
LINE
  5
215
100
AcDbEntity
  8
0
 62
7
100
AcDbLine
 10
83.920000
 20
82.080000
 30
0.0
 11
83.920000
 21
89.200000
 31
0.0
  0
LINE
  5
216
100
AcDbEntity
  8
0
 62
7
100
AcDbLine
 10
83.920000
 20
89.200000
 30
0.0
 11
90.240000
 21
89.200000
 31
0.0
  0
LINE
  5
217
100
AcDbEntity
  8
0
 62
7
100
AcDbLine
 10
90.240000
 20
89.200000
 30
0.0
 11
90.240000
 21
82.080000
 31
0.0
  0
LINE
  5
218
100
AcDbEntity
  8
0
 62
7
100
AcDbLine
 10
90.240000
 20
82.080000
 30
0.0
 11
90.240000
 21
82.080000
 31
0.0
  0
SPLINE
  5
219
100
AcDbEntity
  8
0
 62
7
100
AcDbSpline
 70
8
 71
3
 72
8
 73
4
 74
0
 40
0
 40
0
 40
0
 40
0
 40
1
 40
1
 40
1
 40
1
 10
120.720000
 20
64.560000
 30
0.0
 10
120.400000
 20
66.560000
 30
0.0
 10
119.600000
 20
68.160000
 30
0.0
 10
118.240000
 20
69.120000
 30
0.0
  0
SPLINE
  5
21a
100
AcDbEntity
  8
0
 62
7
100
AcDbSpline
 70
8
 71
3
 72
8
 73
4
 74
0
 40
0
 40
0
 40
0
 40
0
 40
1
 40
1
 40
1
 40
1
 10
118.240000
 20
69.120000
 30
0.0
 10
116.880000
 20
70.160000
 30
0.0
 10
114.960000
 20
70.640000
 30
0.0
 10
112.480000
 20
70.640000
 30
0.0
  0
SPLINE
  5
21b
100
AcDbEntity
  8
0
 62
7
100
AcDbSpline
 70
8
 71
3
 72
8
 73
4
 74
0
 40
0
 40
0
 40
0
 40
0
 40
1
 40
1
 40
1
 40
1
 10
112.480000
 20
70.640000
 30
0.0
 10
110.080000
 20
70.640000
 30
0.0
 10
108.160000
 20
70.240000
 30
0.0
 10
106.640000
 20
69.440000
 30
0.0
  0
SPLINE
  5
21c
100
AcDbEntity
  8
0
 62
7
100
AcDbSpline
 70
8
 71
3
 72
8
 73
4
 74
0
 40
0
 40
0
 40
0
 40
0
 40
1
 40
1
 40
1
 40
1
 10
106.640000
 20
69.440000
 30
0.0
 10
105.200000
 20
68.640000
 30
0.0
 10
104.400000
 20
67.440000
 30
0.0
 10
104.400000
 20
65.840000
 30
0.0
  0
SPLINE
  5
21d
100
AcDbEntity
  8
0
 62
7
100
AcDbSpline
 70
8
 71
3
 72
8
 73
4
 74
0
 40
0
 40
0
 40
0
 40
0
 40
1
 40
1
 40
1
 40
1
 10
104.400000
 20
65.840000
 30
0.0
 10
104.400000
 20
64.400000
 30
0.0
 10
105.040000
 20
63.360000
 30
0.0
 10
106.240000
 20
62.720000
 30
0.0
  0
SPLINE
  5
21e
100
AcDbEntity
  8
0
 62
7
100
AcDbSpline
 70
8
 71
3
 72
8
 73
4
 74
0
 40
0
 40
0
 40
0
 40
0
 40
1
 40
1
 40
1
 40
1
 10
106.240000
 20
62.720000
 30
0.0
 10
107.360000
 20
62.080000
 30
0.0
 10
109.760000
 20
61.280000
 30
0.0
 10
113.200000
 20
60.400000
 30
0.0
  0
SPLINE
  5
21f
100
AcDbEntity
  8
0
 62
7
100
AcDbSpline
 70
8
 71
3
 72
8
 73
4
 74
0
 40
0
 40
0
 40
0
 40
0
 40
1
 40
1
 40
1
 40
1
 10
113.200000
 20
60.400000
 30
0.0
 10
117.120000
 20
59.360000
 30
0.0
 10
120.080000
 20
58.480000
 30
0.0
 10
122.080000
 20
57.680000
 30
0.0
  0
SPLINE
  5
220
100
AcDbEntity
  8
0
 62
7
100
AcDbSpline
 70
8
 71
3
 72
8
 73
4
 74
0
 40
0
 40
0
 40
0
 40
0
 40
1
 40
1
 40
1
 40
1
 10
122.080000
 20
57.680000
 30
0.0
 10
124.000000
 20
56.960000
 30
0.0
 10
125.520000
 20
55.840000
 30
0.0
 10
126.640000
 20
54.480000
 30
0.0
  0
SPLINE
  5
221
100
AcDbEntity
  8
0
 62
7
100
AcDbSpline
 70
8
 71
3
 72
8
 73
4
 74
0
 40
0
 40
0
 40
0
 40
0
 40
1
 40
1
 40
1
 40
1
 10
126.640000
 20
54.480000
 30
0.0
 10
127.680000
 20
53.040000
 30
0.0
 10
128.240000
 20
51.120000
 30
0.0
 10
128.240000
 20
48.640000
 30
0.0
  0
SPLINE
  5
222
100
AcDbEntity
  8
0
 62
7
100
AcDbSpline
 70
8
 71
3
 72
8
 73
4
 74
0
 40
0
 40
0
 40
0
 40
0
 40
1
 40
1
 40
1
 40
1
 10
128.240000
 20
48.640000
 30
0.0
 10
128.240000
 20
45.280000
 30
0.0
 10
126.880000
 20
42.480000
 30
0.0
 10
124.160000
 20
40.240000
 30
0.0
  0
SPLINE
  5
223
100
AcDbEntity
  8
0
 62
7
100
AcDbSpline
 70
8
 71
3
 72
8
 73
4
 74
0
 40
0
 40
0
 40
0
 40
0
 40
1
 40
1
 40
1
 40
1
 10
124.160000
 20
40.240000
 30
0.0
 10
121.440000
 20
37.920000
 30
0.0
 10
117.840000
 20
36.800000
 30
0.0
 10
113.280000
 20
36.800000
 30
0.0
  0
SPLINE
  5
224
100
AcDbEntity
  8
0
 62
7
100
AcDbSpline
 70
8
 71
3
 72
8
 73
4
 74
0
 40
0
 40
0
 40
0
 40
0
 40
1
 40
1
 40
1
 40
1
 10
113.280000
 20
36.800000
 30
0.0
 10
108.560000
 20
36.800000
 30
0.0
 10
104.880000
 20
37.840000
 30
0.0
 10
102.160000
 20
39.840000
 30
0.0
  0
SPLINE
  5
225
100
AcDbEntity
  8
0
 62
7
100
AcDbSpline
 70
8
 71
3
 72
8
 73
4
 74
0
 40
0
 40
0
 40
0
 40
0
 40
1
 40
1
 40
1
 40
1
 10
102.160000
 20
39.840000
 30
0.0
 10
99.520000
 20
41.840000
 30
0.0
 10
97.920000
 20
44.800000
 30
0.0
 10
97.280000
 20
48.800000
 30
0.0
  0
LINE
  5
226
100
AcDbEntity
  8
0
 62
7
100
AcDbLine
 10
97.280000
 20
48.800000
 30
0.0
 11
103.600000
 21
49.760000
 31
0.0
  0
SPLINE
  5
227
100
AcDbEntity
  8
0
 62
7
100
AcDbSpline
 70
8
 71
3
 72
8
 73
4
 74
0
 40
0
 40
0
 40
0
 40
0
 40
1
 40
1
 40
1
 40
1
 10
103.600000
 20
49.760000
 30
0.0
 10
103.920000
 20
47.200000
 30
0.0
 10
104.880000
 20
45.280000
 30
0.0
 10
106.480000
 20
43.920000
 30
0.0
  0
SPLINE
  5
228
100
AcDbEntity
  8
0
 62
7
100
AcDbSpline
 70
8
 71
3
 72
8
 73
4
 74
0
 40
0
 40
0
 40
0
 40
0
 40
1
 40
1
 40
1
 40
1
 10
106.480000
 20
43.920000
 30
0.0
 10
108.080000
 20
42.640000
 30
0.0
 10
110.320000
 20
42.000000
 30
0.0
 10
113.200000
 20
42.000000
 30
0.0
  0
SPLINE
  5
229
100
AcDbEntity
  8
0
 62
7
100
AcDbSpline
 70
8
 71
3
 72
8
 73
4
 74
0
 40
0
 40
0
 40
0
 40
0
 40
1
 40
1
 40
1
 40
1
 10
113.200000
 20
42.000000
 30
0.0
 10
116.000000
 20
42.000000
 30
0.0
 10
118.080000
 20
42.560000
 30
0.0
 10
119.600000
 20
43.760000
 30
0.0
  0
SPLINE
  5
22a
100
AcDbEntity
  8
0
 62
7
100
AcDbSpline
 70
8
 71
3
 72
8
 73
4
 74
0
 40
0
 40
0
 40
0
 40
0
 40
1
 40
1
 40
1
 40
1
 10
119.600000
 20
43.760000
 30
0.0
 10
121.040000
 20
44.880000
 30
0.0
 10
121.760000
 20
46.320000
 30
0.0
 10
121.760000
 20
48.000000
 30
0.0
  0
SPLINE
  5
22b
100
AcDbEntity
  8
0
 62
7
100
AcDbSpline
 70
8
 71
3
 72
8
 73
4
 74
0
 40
0
 40
0
 40
0
 40
0
 40
1
 40
1
 40
1
 40
1
 10
121.760000
 20
48.000000
 30
0.0
 10
121.760000
 20
49.120000
 30
0.0
 10
121.440000
 20
50.000000
 30
0.0
 10
120.800000
 20
50.720000
 30
0.0
  0
SPLINE
  5
22c
100
AcDbEntity
  8
0
 62
7
100
AcDbSpline
 70
8
 71
3
 72
8
 73
4
 74
0
 40
0
 40
0
 40
0
 40
0
 40
1
 40
1
 40
1
 40
1
 10
120.800000
 20
50.720000
 30
0.0
 10
120.080000
 20
51.360000
 30
0.0
 10
119.280000
 20
51.920000
 30
0.0
 10
118.240000
 20
52.240000
 30
0.0
  0
SPLINE
  5
22d
100
AcDbEntity
  8
0
 62
7
100
AcDbSpline
 70
8
 71
3
 72
8
 73
4
 74
0
 40
0
 40
0
 40
0
 40
0
 40
1
 40
1
 40
1
 40
1
 10
118.240000
 20
52.240000
 30
0.0
 10
117.200000
 20
52.560000
 30
0.0
 10
114.880000
 20
53.200000
 30
0.0
 10
111.360000
 20
54.080000
 30
0.0
  0
SPLINE
  5
22e
100
AcDbEntity
  8
0
 62
7
100
AcDbSpline
 70
8
 71
3
 72
8
 73
4
 74
0
 40
0
 40
0
 40
0
 40
0
 40
1
 40
1
 40
1
 40
1
 10
111.360000
 20
54.080000
 30
0.0
 10
106.080000
 20
55.280000
 30
0.0
 10
102.560000
 20
56.880000
 30
0.0
 10
100.880000
 20
58.640000
 30
0.0
  0
SPLINE
  5
22f
100
AcDbEntity
  8
0
 62
7
100
AcDbSpline
 70
8
 71
3
 72
8
 73
4
 74
0
 40
0
 40
0
 40
0
 40
0
 40
1
 40
1
 40
1
 40
1
 10
100.880000
 20
58.640000
 30
0.0
 10
99.200000
 20
60.480000
 30
0.0
 10
98.320000
 20
62.640000
 30
0.0
 10
98.320000
 20
65.120000
 30
0.0
  0
SPLINE
  5
230
100
AcDbEntity
  8
0
 62
7
100
AcDbSpline
 70
8
 71
3
 72
8
 73
4
 74
0
 40
0
 40
0
 40
0
 40
0
 40
1
 40
1
 40
1
 40
1
 10
98.320000
 20
65.120000
 30
0.0
 10
98.320000
 20
68.240000
 30
0.0
 10
99.520000
 20
70.800000
 30
0.0
 10
102.000000
 20
72.800000
 30
0.0
  0
SPLINE
  5
231
100
AcDbEntity
  8
0
 62
7
100
AcDbSpline
 70
8
 71
3
 72
8
 73
4
 74
0
 40
0
 40
0
 40
0
 40
0
 40
1
 40
1
 40
1
 40
1
 10
102.000000
 20
72.800000
 30
0.0
 10
104.560000
 20
74.800000
 30
0.0
 10
107.840000
 20
75.840000
 30
0.0
 10
112.080000
 20
75.840000
 30
0.0
  0
SPLINE
  5
232
100
AcDbEntity
  8
0
 62
7
100
AcDbSpline
 70
8
 71
3
 72
8
 73
4
 74
0
 40
0
 40
0
 40
0
 40
0
 40
1
 40
1
 40
1
 40
1
 10
112.080000
 20
75.840000
 30
0.0
 10
116.480000
 20
75.840000
 30
0.0
 10
120.000000
 20
74.960000
 30
0.0
 10
122.480000
 20
73.200000
 30
0.0
  0
SPLINE
  5
233
100
AcDbEntity
  8
0
 62
7
100
AcDbSpline
 70
8
 71
3
 72
8
 73
4
 74
0
 40
0
 40
0
 40
0
 40
0
 40
1
 40
1
 40
1
 40
1
 10
122.480000
 20
73.200000
 30
0.0
 10
124.880000
 20
71.440000
 30
0.0
 10
126.400000
 20
68.880000
 30
0.0
 10
126.880000
 20
65.360000
 30
0.0
  0
LINE
  5
234
100
AcDbEntity
  8
0
 62
7
100
AcDbLine
 10
126.880000
 20
65.360000
 30
0.0
 11
120.720000
 21
64.560000
 31
0.0
  0
LINE
  5
235
100
AcDbEntity
  8
0
 62
7
100
AcDbLine
 10
120.720000
 20
64.560000
 30
0.0
 11
120.720000
 21
64.560000
 31
0.0
  0
SPLINE
  5
236
100
AcDbEntity
  8
0
 62
7
100
AcDbSpline
 70
8
 71
3
 72
8
 73
4
 74
0
 40
0
 40
0
 40
0
 40
0
 40
1
 40
1
 40
1
 40
1
 10
150.480000
 20
37.760000
 30
0.0
 10
148.560000
 20
37.360000
 30
0.0
 10
146.960000
 20
37.200000
 30
0.0
 10
145.680000
 20
37.200000
 30
0.0
  0
SPLINE
  5
237
100
AcDbEntity
  8
0
 62
7
100
AcDbSpline
 70
8
 71
3
 72
8
 73
4
 74
0
 40
0
 40
0
 40
0
 40
0
 40
1
 40
1
 40
1
 40
1
 10
145.680000
 20
37.200000
 30
0.0
 10
142.960000
 20
37.200000
 30
0.0
 10
140.960000
 20
37.680000
 30
0.0
 10
139.680000
 20
38.640000
 30
0.0
  0
SPLINE
  5
238
100
AcDbEntity
  8
0
 62
7
100
AcDbSpline
 70
8
 71
3
 72
8
 73
4
 74
0
 40
0
 40
0
 40
0
 40
0
 40
1
 40
1
 40
1
 40
1
 10
139.680000
 20
38.640000
 30
0.0
 10
138.400000
 20
39.600000
 30
0.0
 10
137.600000
 20
40.880000
 30
0.0
 10
137.360000
 20
42.400000
 30
0.0
  0
SPLINE
  5
239
100
AcDbEntity
  8
0
 62
7
100
AcDbSpline
 70
8
 71
3
 72
8
 73
4
 74
0
 40
0
 40
0
 40
0
 40
0
 40
1
 40
1
 40
1
 40
1
 10
137.360000
 20
42.400000
 30
0.0
 10
137.040000
 20
43.840000
 30
0.0
 10
136.880000
 20
45.920000
 30
0.0
 10
136.880000
 20
48.640000
 30
0.0
  0
LINE
  5
23a
100
AcDbEntity
  8
0
 62
7
100
AcDbLine
 10
136.880000
 20
48.640000
 30
0.0
 11
136.880000
 21
70.080000
 31
0.0
  0
LINE
  5
23b
100
AcDbEntity
  8
0
 62
7
100
AcDbLine
 10
136.880000
 20
70.080000
 30
0.0
 11
132.320000
 21
70.080000
 31
0.0
  0
LINE
  5
23c
100
AcDbEntity
  8
0
 62
7
100
AcDbLine
 10
132.320000
 20
70.080000
 30
0.0
 11
132.320000
 21
74.960000
 31
0.0
  0
LINE
  5
23d
100
AcDbEntity
  8
0
 62
7
100
AcDbLine
 10
132.320000
 20
74.960000
 30
0.0
 11
136.880000
 21
74.960000
 31
0.0
  0
LINE
  5
23e
100
AcDbEntity
  8
0
 62
7
100
AcDbLine
 10
136.880000
 20
74.960000
 30
0.0
 11
136.880000
 21
84.240000
 31
0.0
  0
LINE
  5
23f
100
AcDbEntity
  8
0
 62
7
100
AcDbLine
 10
136.880000
 20
84.240000
 30
0.0
 11
143.280000
 21
88.080000
 31
0.0
  0
LINE
  5
240
100
AcDbEntity
  8
0
 62
7
100
AcDbLine
 10
143.280000
 20
88.080000
 30
0.0
 11
143.280000
 21
74.960000
 31
0.0
  0
LINE
  5
241
100
AcDbEntity
  8
0
 62
7
100
AcDbLine
 10
143.280000
 20
74.960000
 30
0.0
 11
149.600000
 21
74.960000
 31
0.0
  0
LINE
  5
242
100
AcDbEntity
  8
0
 62
7
100
AcDbLine
 10
149.600000
 20
74.960000
 30
0.0
 11
149.600000
 21
70.080000
 31
0.0
  0
LINE
  5
243
100
AcDbEntity
  8
0
 62
7
100
AcDbLine
 10
149.600000
 20
70.080000
 30
0.0
 11
143.280000
 21
70.080000
 31
0.0
  0
LINE
  5
244
100
AcDbEntity
  8
0
 62
7
100
AcDbLine
 10
143.280000
 20
70.080000
 30
0.0
 11
143.280000
 21
48.240000
 31
0.0
  0
SPLINE
  5
245
100
AcDbEntity
  8
0
 62
7
100
AcDbSpline
 70
8
 71
3
 72
8
 73
4
 74
0
 40
0
 40
0
 40
0
 40
0
 40
1
 40
1
 40
1
 40
1
 10
143.280000
 20
48.240000
 30
0.0
 10
143.280000
 20
46.400000
 30
0.0
 10
143.440000
 20
45.040000
 30
0.0
 10
143.840000
 20
44.320000
 30
0.0
  0
SPLINE
  5
246
100
AcDbEntity
  8
0
 62
7
100
AcDbSpline
 70
8
 71
3
 72
8
 73
4
 74
0
 40
0
 40
0
 40
0
 40
0
 40
1
 40
1
 40
1
 40
1
 10
143.840000
 20
44.320000
 30
0.0
 10
144.240000
 20
43.520000
 30
0.0
 10
145.200000
 20
43.120000
 30
0.0
 10
146.720000
 20
43.120000
 30
0.0
  0
SPLINE
  5
247
100
AcDbEntity
  8
0
 62
7
100
AcDbSpline
 70
8
 71
3
 72
8
 73
4
 74
0
 40
0
 40
0
 40
0
 40
0
 40
1
 40
1
 40
1
 40
1
 10
146.720000
 20
43.120000
 30
0.0
 10
147.680000
 20
43.120000
 30
0.0
 10
148.640000
 20
43.200000
 30
0.0
 10
149.600000
 20
43.360000
 30
0.0
  0
LINE
  5
248
100
AcDbEntity
  8
0
 62
7
100
AcDbLine
 10
149.600000
 20
43.360000
 30
0.0
 11
150.480000
 21
37.760000
 31
0.0
  0
LINE
  5
249
100
AcDbEntity
  8
0
 62
7
100
AcDbLine
 10
150.480000
 20
37.760000
 30
0.0
 11
150.480000
 21
37.760000
 31
0.0
  0
SPLINE
  5
24a
100
AcDbEntity
  8
0
 62
7
100
AcDbSpline
 70
8
 71
3
 72
8
 73
4
 74
0
 40
0
 40
0
 40
0
 40
0
 40
1
 40
1
 40
1
 40
1
 10
171.120000
 20
75.840000
 30
0.0
 10
176.160000
 20
75.840000
 30
0.0
 10
180.320000
 20
74.160000
 30
0.0
 10
183.600000
 20
70.880000
 30
0.0
  0
SPLINE
  5
24b
100
AcDbEntity
  8
0
 62
7
100
AcDbSpline
 70
8
 71
3
 72
8
 73
4
 74
0
 40
0
 40
0
 40
0
 40
0
 40
1
 40
1
 40
1
 40
1
 10
183.600000
 20
70.880000
 30
0.0
 10
186.960000
 20
67.600000
 30
0.0
 10
188.560000
 20
62.960000
 30
0.0
 10
188.560000
 20
56.960000
 30
0.0
  0
SPLINE
  5
24c
100
AcDbEntity
  8
0
 62
7
100
AcDbSpline
 70
8
 71
3
 72
8
 73
4
 74
0
 40
0
 40
0
 40
0
 40
0
 40
1
 40
1
 40
1
 40
1
 10
188.560000
 20
56.960000
 30
0.0
 10
188.560000
 20
49.600000
 30
0.0
 10
186.800000
 20
44.400000
 30
0.0
 10
183.200000
 20
41.360000
 30
0.0
  0
SPLINE
  5
24d
100
AcDbEntity
  8
0
 62
7
100
AcDbSpline
 70
8
 71
3
 72
8
 73
4
 74
0
 40
0
 40
0
 40
0
 40
0
 40
1
 40
1
 40
1
 40
1
 10
183.200000
 20
41.360000
 30
0.0
 10
179.600000
 20
38.320000
 30
0.0
 10
175.600000
 20
36.800000
 30
0.0
 10
171.120000
 20
36.800000
 30
0.0
  0
SPLINE
  5
24e
100
AcDbEntity
  8
0
 62
7
100
AcDbSpline
 70
8
 71
3
 72
8
 73
4
 74
0
 40
0
 40
0
 40
0
 40
0
 40
1
 40
1
 40
1
 40
1
 10
171.120000
 20
36.800000
 30
0.0
 10
166.400000
 20
36.800000
 30
0.0
 10
162.320000
 20
38.400000
 30
0.0
 10
158.800000
 20
41.520000
 30
0.0
  0
SPLINE
  5
24f
100
AcDbEntity
  8
0
 62
7
100
AcDbSpline
 70
8
 71
3
 72
8
 73
4
 74
0
 40
0
 40
0
 40
0
 40
0
 40
1
 40
1
 40
1
 40
1
 10
158.800000
 20
41.520000
 30
0.0
 10
155.360000
 20
44.640000
 30
0.0
 10
153.600000
 20
49.520000
 30
0.0
 10
153.600000
 20
56.320000
 30
0.0
  0
SPLINE
  5
250
100
AcDbEntity
  8
0
 62
7
100
AcDbSpline
 70
8
 71
3
 72
8
 73
4
 74
0
 40
0
 40
0
 40
0
 40
0
 40
1
 40
1
 40
1
 40
1
 10
153.600000
 20
56.320000
 30
0.0
 10
153.600000
 20
62.880000
 30
0.0
 10
155.280000
 20
67.760000
 30
0.0
 10
158.640000
 20
71.040000
 30
0.0
  0
SPLINE
  5
251
100
AcDbEntity
  8
0
 62
7
100
AcDbSpline
 70
8
 71
3
 72
8
 73
4
 74
0
 40
0
 40
0
 40
0
 40
0
 40
1
 40
1
 40
1
 40
1
 10
158.640000
 20
71.040000
 30
0.0
 10
162.000000
 20
74.240000
 30
0.0
 10
166.160000
 20
75.840000
 30
0.0
 10
171.120000
 20
75.840000
 30
0.0
  0
LINE
  5
252
100
AcDbEntity
  8
0
 62
7
100
AcDbLine
 10
171.120000
 20
75.840000
 30
0.0
 11
171.120000
 21
75.840000
 31
0.0
  0
SPLINE
  5
253
100
AcDbEntity
  8
0
 62
7
100
AcDbSpline
 70
8
 71
3
 72
8
 73
4
 74
0
 40
0
 40
0
 40
0
 40
0
 40
1
 40
1
 40
1
 40
1
 10
171.120000
 20
42.000000
 30
0.0
 10
174.720000
 20
42.000000
 30
0.0
 10
177.440000
 20
43.360000
 30
0.0
 10
179.280000
 20
46.000000
 30
0.0
  0
SPLINE
  5
254
100
AcDbEntity
  8
0
 62
7
100
AcDbSpline
 70
8
 71
3
 72
8
 73
4
 74
0
 40
0
 40
0
 40
0
 40
0
 40
1
 40
1
 40
1
 40
1
 10
179.280000
 20
46.000000
 30
0.0
 10
181.200000
 20
48.720000
 30
0.0
 10
182.160000
 20
52.240000
 30
0.0
 10
182.160000
 20
56.560000
 30
0.0
  0
SPLINE
  5
255
100
AcDbEntity
  8
0
 62
7
100
AcDbSpline
 70
8
 71
3
 72
8
 73
4
 74
0
 40
0
 40
0
 40
0
 40
0
 40
1
 40
1
 40
1
 40
1
 10
182.160000
 20
56.560000
 30
0.0
 10
182.160000
 20
61.200000
 30
0.0
 10
181.040000
 20
64.720000
 30
0.0
 10
178.960000
 20
67.120000
 30
0.0
  0
SPLINE
  5
256
100
AcDbEntity
  8
0
 62
7
100
AcDbSpline
 70
8
 71
3
 72
8
 73
4
 74
0
 40
0
 40
0
 40
0
 40
0
 40
1
 40
1
 40
1
 40
1
 10
178.960000
 20
67.120000
 30
0.0
 10
176.800000
 20
69.520000
 30
0.0
 10
174.240000
 20
70.640000
 30
0.0
 10
171.120000
 20
70.640000
 30
0.0
  0
SPLINE
  5
257
100
AcDbEntity
  8
0
 62
7
100
AcDbSpline
 70
8
 71
3
 72
8
 73
4
 74
0
 40
0
 40
0
 40
0
 40
0
 40
1
 40
1
 40
1
 40
1
 10
171.120000
 20
70.640000
 30
0.0
 10
167.840000
 20
70.640000
 30
0.0
 10
165.200000
 20
69.440000
 30
0.0
 10
163.200000
 20
67.040000
 30
0.0
  0
SPLINE
  5
258
100
AcDbEntity
  8
0
 62
7
100
AcDbSpline
 70
8
 71
3
 72
8
 73
4
 74
0
 40
0
 40
0
 40
0
 40
0
 40
1
 40
1
 40
1
 40
1
 10
163.200000
 20
67.040000
 30
0.0
 10
161.120000
 20
64.640000
 30
0.0
 10
160.080000
 20
61.120000
 30
0.0
 10
160.080000
 20
56.320000
 30
0.0
  0
SPLINE
  5
259
100
AcDbEntity
  8
0
 62
7
100
AcDbSpline
 70
8
 71
3
 72
8
 73
4
 74
0
 40
0
 40
0
 40
0
 40
0
 40
1
 40
1
 40
1
 40
1
 10
160.080000
 20
56.320000
 30
0.0
 10
160.080000
 20
51.600000
 30
0.0
 10
161.120000
 20
48.000000
 30
0.0
 10
163.200000
 20
45.600000
 30
0.0
  0
SPLINE
  5
25a
100
AcDbEntity
  8
0
 62
7
100
AcDbSpline
 70
8
 71
3
 72
8
 73
4
 74
0
 40
0
 40
0
 40
0
 40
0
 40
1
 40
1
 40
1
 40
1
 10
163.200000
 20
45.600000
 30
0.0
 10
165.360000
 20
43.200000
 30
0.0
 10
167.920000
 20
42.000000
 30
0.0
 10
171.120000
 20
42.000000
 30
0.0
  0
LINE
  5
25b
100
AcDbEntity
  8
0
 62
7
100
AcDbLine
 10
171.120000
 20
42.000000
 30
0.0
 11
171.120000
 21
42.000000
 31
0.0
  0
LINE
  5
25c
100
AcDbEntity
  8
0
 62
7
100
AcDbLine
 10
226.160000
 20
37.680000
 30
0.0
 11
220.480000
 21
37.680000
 31
0.0
  0
LINE
  5
25d
100
AcDbEntity
  8
0
 62
7
100
AcDbLine
 10
220.480000
 20
37.680000
 30
0.0
 11
220.480000
 21
43.200000
 31
0.0
  0
LINE
  5
25e
100
AcDbEntity
  8
0
 62
7
100
AcDbLine
 10
220.480000
 20
43.200000
 30
0.0
 11
220.320000
 21
43.200000
 31
0.0
  0
SPLINE
  5
25f
100
AcDbEntity
  8
0
 62
7
100
AcDbSpline
 70
8
 71
3
 72
8
 73
4
 74
0
 40
0
 40
0
 40
0
 40
0
 40
1
 40
1
 40
1
 40
1
 10
220.320000
 20
43.200000
 30
0.0
 10
217.440000
 20
38.960000
 30
0.0
 10
213.600000
 20
36.800000
 30
0.0
 10
208.640000
 20
36.800000
 30
0.0
  0
SPLINE
  5
260
100
AcDbEntity
  8
0
 62
7
100
AcDbSpline
 70
8
 71
3
 72
8
 73
4
 74
0
 40
0
 40
0
 40
0
 40
0
 40
1
 40
1
 40
1
 40
1
 10
208.640000
 20
36.800000
 30
0.0
 10
206.000000
 20
36.800000
 30
0.0
 10
203.600000
 20
37.440000
 30
0.0
 10
201.440000
 20
38.640000
 30
0.0
  0
SPLINE
  5
261
100
AcDbEntity
  8
0
 62
7
100
AcDbSpline
 70
8
 71
3
 72
8
 73
4
 74
0
 40
0
 40
0
 40
0
 40
0
 40
1
 40
1
 40
1
 40
1
 10
201.440000
 20
38.640000
 30
0.0
 10
199.200000
 20
39.840000
 30
0.0
 10
197.680000
 20
41.520000
 30
0.0
 10
196.960000
 20
43.600000
 30
0.0
  0
SPLINE
  5
262
100
AcDbEntity
  8
0
 62
7
100
AcDbSpline
 70
8
 71
3
 72
8
 73
4
 74
0
 40
0
 40
0
 40
0
 40
0
 40
1
 40
1
 40
1
 40
1
 10
196.960000
 20
43.600000
 30
0.0
 10
196.240000
 20
45.760000
 30
0.0
 10
195.840000
 20
48.480000
 30
0.0
 10
195.840000
 20
51.840000
 30
0.0
  0
LINE
  5
263
100
AcDbEntity
  8
0
 62
7
100
AcDbLine
 10
195.840000
 20
51.840000
 30
0.0
 11
195.840000
 21
74.960000
 31
0.0
  0
LINE
  5
264
100
AcDbEntity
  8
0
 62
7
100
AcDbLine
 10
195.840000
 20
74.960000
 30
0.0
 11
202.160000
 21
74.960000
 31
0.0
  0
LINE
  5
265
100
AcDbEntity
  8
0
 62
7
100
AcDbLine
 10
202.160000
 20
74.960000
 30
0.0
 11
202.160000
 21
54.320000
 31
0.0
  0
SPLINE
  5
266
100
AcDbEntity
  8
0
 62
7
100
AcDbSpline
 70
8
 71
3
 72
8
 73
4
 74
0
 40
0
 40
0
 40
0
 40
0
 40
1
 40
1
 40
1
 40
1
 10
202.160000
 20
54.320000
 30
0.0
 10
202.160000
 20
51.040000
 30
0.0
 10
202.320000
 20
48.640000
 30
0.0
 10
202.640000
 20
47.200000
 30
0.0
  0
SPLINE
  5
267
100
AcDbEntity
  8
0
 62
7
100
AcDbSpline
 70
8
 71
3
 72
8
 73
4
 74
0
 40
0
 40
0
 40
0
 40
0
 40
1
 40
1
 40
1
 40
1
 10
202.640000
 20
47.200000
 30
0.0
 10
202.960000
 20
45.760000
 30
0.0
 10
203.840000
 20
44.640000
 30
0.0
 10
205.120000
 20
43.680000
 30
0.0
  0
SPLINE
  5
268
100
AcDbEntity
  8
0
 62
7
100
AcDbSpline
 70
8
 71
3
 72
8
 73
4
 74
0
 40
0
 40
0
 40
0
 40
0
 40
1
 40
1
 40
1
 40
1
 10
205.120000
 20
43.680000
 30
0.0
 10
206.480000
 20
42.800000
 30
0.0
 10
208.080000
 20
42.320000
 30
0.0
 10
209.920000
 20
42.320000
 30
0.0
  0
SPLINE
  5
269
100
AcDbEntity
  8
0
 62
7
100
AcDbSpline
 70
8
 71
3
 72
8
 73
4
 74
0
 40
0
 40
0
 40
0
 40
0
 40
1
 40
1
 40
1
 40
1
 10
209.920000
 20
42.320000
 30
0.0
 10
212.320000
 20
42.320000
 30
0.0
 10
214.560000
 20
43.120000
 30
0.0
 10
216.720000
 20
44.800000
 30
0.0
  0
SPLINE
  5
26a
100
AcDbEntity
  8
0
 62
7
100
AcDbSpline
 70
8
 71
3
 72
8
 73
4
 74
0
 40
0
 40
0
 40
0
 40
0
 40
1
 40
1
 40
1
 40
1
 10
216.720000
 20
44.800000
 30
0.0
 10
218.800000
 20
46.400000
 30
0.0
 10
219.840000
 20
49.840000
 30
0.0
 10
219.840000
 20
55.040000
 30
0.0
  0
LINE
  5
26b
100
AcDbEntity
  8
0
 62
7
100
AcDbLine
 10
219.840000
 20
55.040000
 30
0.0
 11
219.840000
 21
74.960000
 31
0.0
  0
LINE
  5
26c
100
AcDbEntity
  8
0
 62
7
100
AcDbLine
 10
219.840000
 20
74.960000
 30
0.0
 11
226.160000
 21
74.960000
 31
0.0
  0
LINE
  5
26d
100
AcDbEntity
  8
0
 62
7
100
AcDbLine
 10
226.160000
 20
74.960000
 30
0.0
 11
226.160000
 21
37.680000
 31
0.0
  0
LINE
  5
26e
100
AcDbEntity
  8
0
 62
7
100
AcDbLine
 10
226.160000
 20
37.680000
 30
0.0
 11
226.160000
 21
37.680000
 31
0.0
  0
LINE
  5
26f
100
AcDbEntity
  8
0
 62
7
100
AcDbLine
 10
242.320000
 20
37.680000
 30
0.0
 11
236.000000
 21
37.680000
 31
0.0
  0
LINE
  5
270
100
AcDbEntity
  8
0
 62
7
100
AcDbLine
 10
236.000000
 20
37.680000
 30
0.0
 11
236.000000
 21
74.960000
 31
0.0
  0
LINE
  5
271
100
AcDbEntity
  8
0
 62
7
100
AcDbLine
 10
236.000000
 20
74.960000
 30
0.0
 11
242.320000
 21
74.960000
 31
0.0
  0
LINE
  5
272
100
AcDbEntity
  8
0
 62
7
100
AcDbLine
 10
242.320000
 20
74.960000
 30
0.0
 11
242.320000
 21
37.680000
 31
0.0
  0
LINE
  5
273
100
AcDbEntity
  8
0
 62
7
100
AcDbLine
 10
242.320000
 20
37.680000
 30
0.0
 11
242.320000
 21
37.680000
 31
0.0
  0
LINE
  5
274
100
AcDbEntity
  8
0
 62
7
100
AcDbLine
 10
242.320000
 20
82.080000
 30
0.0
 11
236.000000
 21
82.080000
 31
0.0
  0
LINE
  5
275
100
AcDbEntity
  8
0
 62
7
100
AcDbLine
 10
236.000000
 20
82.080000
 30
0.0
 11
236.000000
 21
89.200000
 31
0.0
  0
LINE
  5
276
100
AcDbEntity
  8
0
 62
7
100
AcDbLine
 10
236.000000
 20
89.200000
 30
0.0
 11
242.320000
 21
89.200000
 31
0.0
  0
LINE
  5
277
100
AcDbEntity
  8
0
 62
7
100
AcDbLine
 10
242.320000
 20
89.200000
 30
0.0
 11
242.320000
 21
82.080000
 31
0.0
  0
LINE
  5
278
100
AcDbEntity
  8
0
 62
7
100
AcDbLine
 10
242.320000
 20
82.080000
 30
0.0
 11
242.320000
 21
82.080000
 31
0.0
  0
LINE
  5
279
100
AcDbEntity
  8
0
 62
7
100
AcDbLine
 10
258.320000
 20
37.680000
 30
0.0
 11
252.000000
 21
37.680000
 31
0.0
  0
LINE
  5
27a
100
AcDbEntity
  8
0
 62
7
100
AcDbLine
 10
252.000000
 20
37.680000
 30
0.0
 11
252.000000
 21
89.200000
 31
0.0
  0
LINE
  5
27b
100
AcDbEntity
  8
0
 62
7
100
AcDbLine
 10
252.000000
 20
89.200000
 30
0.0
 11
258.320000
 21
89.200000
 31
0.0
  0
LINE
  5
27c
100
AcDbEntity
  8
0
 62
7
100
AcDbLine
 10
258.320000
 20
89.200000
 30
0.0
 11
258.320000
 21
37.680000
 31
0.0
  0
LINE
  5
27d
100
AcDbEntity
  8
0
 62
7
100
AcDbLine
 10
258.320000
 20
37.680000
 30
0.0
 11
258.320000
 21
37.680000
 31
0.0
  0
LINE
  5
27e
100
AcDbEntity
  8
0
 62
7
100
AcDbLine
 10
274.320000
 20
37.680000
 30
0.0
 11
268.000000
 21
37.680000
 31
0.0
  0
LINE
  5
27f
100
AcDbEntity
  8
0
 62
7
100
AcDbLine
 10
268.000000
 20
37.680000
 30
0.0
 11
268.000000
 21
89.200000
 31
0.0
  0
LINE
  5
280
100
AcDbEntity
  8
0
 62
7
100
AcDbLine
 10
268.000000
 20
89.200000
 30
0.0
 11
274.320000
 21
89.200000
 31
0.0
  0
LINE
  5
281
100
AcDbEntity
  8
0
 62
7
100
AcDbLine
 10
274.320000
 20
89.200000
 30
0.0
 11
274.320000
 21
37.680000
 31
0.0
  0
LINE
  5
282
100
AcDbEntity
  8
0
 62
7
100
AcDbLine
 10
274.320000
 20
37.680000
 30
0.0
 11
274.320000
 21
37.680000
 31
0.0
  0
LINE
  5
283
100
AcDbEntity
  8
0
 62
7
100
AcDbLine
 10
316.400000
 20
54.720000
 30
0.0
 11
288.400000
 21
54.720000
 31
0.0
  0
SPLINE
  5
284
100
AcDbEntity
  8
0
 62
7
100
AcDbSpline
 70
8
 71
3
 72
8
 73
4
 74
0
 40
0
 40
0
 40
0
 40
0
 40
1
 40
1
 40
1
 40
1
 10
288.400000
 20
54.720000
 30
0.0
 10
288.720000
 20
50.640000
 30
0.0
 10
289.840000
 20
47.440000
 30
0.0
 10
292.000000
 20
45.280000
 30
0.0
  0
SPLINE
  5
285
100
AcDbEntity
  8
0
 62
7
100
AcDbSpline
 70
8
 71
3
 72
8
 73
4
 74
0
 40
0
 40
0
 40
0
 40
0
 40
1
 40
1
 40
1
 40
1
 10
292.000000
 20
45.280000
 30
0.0
 10
294.080000
 20
43.120000
 30
0.0
 10
296.720000
 20
42.000000
 30
0.0
 10
299.840000
 20
42.000000
 30
0.0
  0
SPLINE
  5
286
100
AcDbEntity
  8
0
 62
7
100
AcDbSpline
 70
8
 71
3
 72
8
 73
4
 74
0
 40
0
 40
0
 40
0
 40
0
 40
1
 40
1
 40
1
 40
1
 10
299.840000
 20
42.000000
 30
0.0
 10
302.240000
 20
42.000000
 30
0.0
 10
304.240000
 20
42.640000
 30
0.0
 10
305.920000
 20
43.920000
 30
0.0
  0
SPLINE
  5
287
100
AcDbEntity
  8
0
 62
7
100
AcDbSpline
 70
8
 71
3
 72
8
 73
4
 74
0
 40
0
 40
0
 40
0
 40
0
 40
1
 40
1
 40
1
 40
1
 10
305.920000
 20
43.920000
 30
0.0
 10
307.520000
 20
45.200000
 30
0.0
 10
308.800000
 20
47.120000
 30
0.0
 10
309.680000
 20
49.680000
 30
0.0
  0
LINE
  5
288
100
AcDbEntity
  8
0
 62
7
100
AcDbLine
 10
309.680000
 20
49.680000
 30
0.0
 11
316.160000
 21
48.880000
 31
0.0
  0
SPLINE
  5
289
100
AcDbEntity
  8
0
 62
7
100
AcDbSpline
 70
8
 71
3
 72
8
 73
4
 74
0
 40
0
 40
0
 40
0
 40
0
 40
1
 40
1
 40
1
 40
1
 10
316.160000
 20
48.880000
 30
0.0
 10
315.120000
 20
45.040000
 30
0.0
 10
313.200000
 20
42.000000
 30
0.0
 10
310.400000
 20
39.920000
 30
0.0
  0
SPLINE
  5
28a
100
AcDbEntity
  8
0
 62
7
100
AcDbSpline
 70
8
 71
3
 72
8
 73
4
 74
0
 40
0
 40
0
 40
0
 40
0
 40
1
 40
1
 40
1
 40
1
 10
310.400000
 20
39.920000
 30
0.0
 10
307.600000
 20
37.840000
 30
0.0
 10
304.080000
 20
36.800000
 30
0.0
 10
299.840000
 20
36.800000
 30
0.0
  0
SPLINE
  5
28b
100
AcDbEntity
  8
0
 62
7
100
AcDbSpline
 70
8
 71
3
 72
8
 73
4
 74
0
 40
0
 40
0
 40
0
 40
0
 40
1
 40
1
 40
1
 40
1
 10
299.840000
 20
36.800000
 30
0.0
 10
294.240000
 20
36.800000
 30
0.0
 10
289.840000
 20
38.560000
 30
0.0
 10
286.720000
 20
42.000000
 30
0.0
  0
SPLINE
  5
28c
100
AcDbEntity
  8
0
 62
7
100
AcDbSpline
 70
8
 71
3
 72
8
 73
4
 74
0
 40
0
 40
0
 40
0
 40
0
 40
1
 40
1
 40
1
 40
1
 10
286.720000
 20
42.000000
 30
0.0
 10
283.520000
 20
45.360000
 30
0.0
 10
282.000000
 20
50.080000
 30
0.0
 10
282.000000
 20
56.080000
 30
0.0
  0
SPLINE
  5
28d
100
AcDbEntity
  8
0
 62
7
100
AcDbSpline
 70
8
 71
3
 72
8
 73
4
 74
0
 40
0
 40
0
 40
0
 40
0
 40
1
 40
1
 40
1
 40
1
 10
282.000000
 20
56.080000
 30
0.0
 10
282.000000
 20
61.920000
 30
0.0
 10
283.520000
 20
66.720000
 30
0.0
 10
286.560000
 20
70.320000
 30
0.0
  0
SPLINE
  5
28e
100
AcDbEntity
  8
0
 62
7
100
AcDbSpline
 70
8
 71
3
 72
8
 73
4
 74
0
 40
0
 40
0
 40
0
 40
0
 40
1
 40
1
 40
1
 40
1
 10
286.560000
 20
70.320000
 30
0.0
 10
289.600000
 20
74.000000
 30
0.0
 10
293.920000
 20
75.840000
 30
0.0
 10
299.440000
 20
75.840000
 30
0.0
  0
SPLINE
  5
28f
100
AcDbEntity
  8
0
 62
7
100
AcDbSpline
 70
8
 71
3
 72
8
 73
4
 74
0
 40
0
 40
0
 40
0
 40
0
 40
1
 40
1
 40
1
 40
1
 10
299.440000
 20
75.840000
 30
0.0
 10
302.160000
 20
75.840000
 30
0.0
 10
304.800000
 20
75.280000
 30
0.0
 10
307.360000
 20
74.080000
 30
0.0
  0
SPLINE
  5
290
100
AcDbEntity
  8
0
 62
7
100
AcDbSpline
 70
8
 71
3
 72
8
 73
4
 74
0
 40
0
 40
0
 40
0
 40
0
 40
1
 40
1
 40
1
 40
1
 10
307.360000
 20
74.080000
 30
0.0
 10
309.840000
 20
72.880000
 30
0.0
 10
312.000000
 20
70.800000
 30
0.0
 10
313.760000
 20
67.920000
 30
0.0
  0
SPLINE
  5
291
100
AcDbEntity
  8
0
 62
7
100
AcDbSpline
 70
8
 71
3
 72
8
 73
4
 74
0
 40
0
 40
0
 40
0
 40
0
 40
1
 40
1
 40
1
 40
1
 10
313.760000
 20
67.920000
 30
0.0
 10
315.520000
 20
65.040000
 30
0.0
 10
316.400000
 20
60.640000
 30
0.0
 10
316.400000
 20
54.720000
 30
0.0
  0
LINE
  5
292
100
AcDbEntity
  8
0
 62
7
100
AcDbLine
 10
316.400000
 20
54.720000
 30
0.0
 11
316.400000
 21
54.720000
 31
0.0
  0
SPLINE
  5
293
100
AcDbEntity
  8
0
 62
7
100
AcDbSpline
 70
8
 71
3
 72
8
 73
4
 74
0
 40
0
 40
0
 40
0
 40
0
 40
1
 40
1
 40
1
 40
1
 10
309.920000
 20
59.920000
 30
0.0
 10
309.600000
 20
63.760000
 30
0.0
 10
308.480000
 20
66.480000
 30
0.0
 10
306.320000
 20
68.160000
 30
0.0
  0
SPLINE
  5
294
100
AcDbEntity
  8
0
 62
7
100
AcDbSpline
 70
8
 71
3
 72
8
 73
4
 74
0
 40
0
 40
0
 40
0
 40
0
 40
1
 40
1
 40
1
 40
1
 10
306.320000
 20
68.160000
 30
0.0
 10
304.240000
 20
69.840000
 30
0.0
 10
302.000000
 20
70.640000
 30
0.0
 10
299.440000
 20
70.640000
 30
0.0
  0
SPLINE
  5
295
100
AcDbEntity
  8
0
 62
7
100
AcDbSpline
 70
8
 71
3
 72
8
 73
4
 74
0
 40
0
 40
0
 40
0
 40
0
 40
1
 40
1
 40
1
 40
1
 10
299.440000
 20
70.640000
 30
0.0
 10
296.480000
 20
70.640000
 30
0.0
 10
294.080000
 20
69.680000
 30
0.0
 10
292.160000
 20
67.680000
 30
0.0
  0
SPLINE
  5
296
100
AcDbEntity
  8
0
 62
7
100
AcDbSpline
 70
8
 71
3
 72
8
 73
4
 74
0
 40
0
 40
0
 40
0
 40
0
 40
1
 40
1
 40
1
 40
1
 10
292.160000
 20
67.680000
 30
0.0
 10
290.240000
 20
65.680000
 30
0.0
 10
289.120000
 20
63.120000
 30
0.0
 10
288.800000
 20
59.920000
 30
0.0
  0
LINE
  5
297
100
AcDbEntity
  8
0
 62
7
100
AcDbLine
 10
288.800000
 20
59.920000
 30
0.0
 11
309.920000
 21
59.920000
 31
0.0
  0
LINE
  5
298
100
AcDbEntity
  8
0
 62
7
100
AcDbLine
 10
309.920000
 20
59.920000
 30
0.0
 11
309.920000
 21
59.920000
 31
0.0
  0
LINE
  5
299
100
AcDbEntity
  8
0
 62
7
100
AcDbLine
 10
332.800000
 20
37.680000
 30
0.0
 11
325.600000
 21
37.680000
 31
0.0
  0
LINE
  5
29a
100
AcDbEntity
  8
0
 62
7
100
AcDbLine
 10
325.600000
 20
37.680000
 30
0.0
 11
325.600000
 21
44.880000
 31
0.0
  0
LINE
  5
29b
100
AcDbEntity
  8
0
 62
7
100
AcDbLine
 10
325.600000
 20
44.880000
 30
0.0
 11
332.800000
 21
44.880000
 31
0.0
  0
LINE
  5
29c
100
AcDbEntity
  8
0
 62
7
100
AcDbLine
 10
332.800000
 20
44.880000
 30
0.0
 11
332.800000
 21
37.680000
 31
0.0
  0
LINE
  5
29d
100
AcDbEntity
  8
0
 62
7
100
AcDbLine
 10
332.800000
 20
37.680000
 30
0.0
 11
332.800000
 21
37.680000
 31
0.0
  0
LINE
  5
29e
100
AcDbEntity
  8
0
 62
7
100
AcDbLine
 10
361.600000
 20
89.440000
 30
0.0
 11
360.640000
 21
83.920000
 31
0.0
  0
SPLINE
  5
29f
100
AcDbEntity
  8
0
 62
7
100
AcDbSpline
 70
8
 71
3
 72
8
 73
4
 74
0
 40
0
 40
0
 40
0
 40
0
 40
1
 40
1
 40
1
 40
1
 10
360.640000
 20
83.920000
 30
0.0
 10
359.360000
 20
84.160000
 30
0.0
 10
358.160000
 20
84.240000
 30
0.0
 10
356.960000
 20
84.240000
 30
0.0
  0
SPLINE
  5
2a0
100
AcDbEntity
  8
0
 62
7
100
AcDbSpline
 70
8
 71
3
 72
8
 73
4
 74
0
 40
0
 40
0
 40
0
 40
0
 40
1
 40
1
 40
1
 40
1
 10
356.960000
 20
84.240000
 30
0.0
 10
355.360000
 20
84.240000
 30
0.0
 10
354.160000
 20
83.920000
 30
0.0
 10
353.200000
 20
83.280000
 30
0.0
  0
SPLINE
  5
2a1
100
AcDbEntity
  8
0
 62
7
100
AcDbSpline
 70
8
 71
3
 72
8
 73
4
 74
0
 40
0
 40
0
 40
0
 40
0
 40
1
 40
1
 40
1
 40
1
 10
353.200000
 20
83.280000
 30
0.0
 10
352.240000
 20
82.640000
 30
0.0
 10
351.680000
 20
81.040000
 30
0.0
 10
351.680000
 20
78.480000
 30
0.0
  0
LINE
  5
2a2
100
AcDbEntity
  8
0
 62
7
100
AcDbLine
 10
351.680000
 20
78.480000
 30
0.0
 11
351.680000
 21
74.960000
 31
0.0
  0
LINE
  5
2a3
100
AcDbEntity
  8
0
 62
7
100
AcDbLine
 10
351.680000
 20
74.960000
 30
0.0
 11
358.960000
 21
74.960000
 31
0.0
  0
LINE
  5
2a4
100
AcDbEntity
  8
0
 62
7
100
AcDbLine
 10
358.960000
 20
74.960000
 30
0.0
 11
358.960000
 21
70.080000
 31
0.0
  0
LINE
  5
2a5
100
AcDbEntity
  8
0
 62
7
100
AcDbLine
 10
358.960000
 20
70.080000
 30
0.0
 11
351.680000
 21
70.080000
 31
0.0
  0
LINE
  5
2a6
100
AcDbEntity
  8
0
 62
7
100
AcDbLine
 10
351.680000
 20
70.080000
 30
0.0
 11
351.680000
 21
37.680000
 31
0.0
  0
LINE
  5
2a7
100
AcDbEntity
  8
0
 62
7
100
AcDbLine
 10
351.680000
 20
37.680000
 30
0.0
 11
345.360000
 21
37.680000
 31
0.0
  0
LINE
  5
2a8
100
AcDbEntity
  8
0
 62
7
100
AcDbLine
 10
345.360000
 20
37.680000
 30
0.0
 11
345.360000
 21
70.080000
 31
0.0
  0
LINE
  5
2a9
100
AcDbEntity
  8
0
 62
7
100
AcDbLine
 10
345.360000
 20
70.080000
 30
0.0
 11
339.760000
 21
70.080000
 31
0.0
  0
LINE
  5
2aa
100
AcDbEntity
  8
0
 62
7
100
AcDbLine
 10
339.760000
 20
70.080000
 30
0.0
 11
339.760000
 21
74.960000
 31
0.0
  0
LINE
  5
2ab
100
AcDbEntity
  8
0
 62
7
100
AcDbLine
 10
339.760000
 20
74.960000
 30
0.0
 11
345.360000
 21
74.960000
 31
0.0
  0
LINE
  5
2ac
100
AcDbEntity
  8
0
 62
7
100
AcDbLine
 10
345.360000
 20
74.960000
 30
0.0
 11
345.360000
 21
79.040000
 31
0.0
  0
SPLINE
  5
2ad
100
AcDbEntity
  8
0
 62
7
100
AcDbSpline
 70
8
 71
3
 72
8
 73
4
 74
0
 40
0
 40
0
 40
0
 40
0
 40
1
 40
1
 40
1
 40
1
 10
345.360000
 20
79.040000
 30
0.0
 10
345.360000
 20
80.880000
 30
0.0
 10
345.600000
 20
82.640000
 30
0.0
 10
345.920000
 20
84.160000
 30
0.0
  0
SPLINE
  5
2ae
100
AcDbEntity
  8
0
 62
7
100
AcDbSpline
 70
8
 71
3
 72
8
 73
4
 74
0
 40
0
 40
0
 40
0
 40
0
 40
1
 40
1
 40
1
 40
1
 10
345.920000
 20
84.160000
 30
0.0
 10
346.240000
 20
85.680000
 30
0.0
 10
347.200000
 20
87.040000
 30
0.0
 10
348.720000
 20
88.240000
 30
0.0
  0
SPLINE
  5
2af
100
AcDbEntity
  8
0
 62
7
100
AcDbSpline
 70
8
 71
3
 72
8
 73
4
 74
0
 40
0
 40
0
 40
0
 40
0
 40
1
 40
1
 40
1
 40
1
 10
348.720000
 20
88.240000
 30
0.0
 10
350.240000
 20
89.520000
 30
0.0
 10
352.560000
 20
90.080000
 30
0.0
 10
355.680000
 20
90.080000
 30
0.0
  0
SPLINE
  5
2b0
100
AcDbEntity
  8
0
 62
7
100
AcDbSpline
 70
8
 71
3
 72
8
 73
4
 74
0
 40
0
 40
0
 40
0
 40
0
 40
1
 40
1
 40
1
 40
1
 10
355.680000
 20
90.080000
 30
0.0
 10
357.600000
 20
90.080000
 30
0.0
 10
359.520000
 20
89.920000
 30
0.0
 10
361.600000
 20
89.440000
 30
0.0
  0
LINE
  5
2b1
100
AcDbEntity
  8
0
 62
7
100
AcDbLine
 10
361.600000
 20
89.440000
 30
0.0
 11
361.600000
 21
89.440000
 31
0.0
  0
LINE
  5
2b2
100
AcDbEntity
  8
0
 62
7
100
AcDbLine
 10
384.160000
 20
73.840000
 30
0.0
 11
381.920000
 21
68.000000
 31
0.0
  0
SPLINE
  5
2b3
100
AcDbEntity
  8
0
 62
7
100
AcDbSpline
 70
8
 71
3
 72
8
 73
4
 74
0
 40
0
 40
0
 40
0
 40
0
 40
1
 40
1
 40
1
 40
1
 10
381.920000
 20
68.000000
 30
0.0
 10
380.400000
 20
68.880000
 30
0.0
 10
378.880000
 20
69.360000
 30
0.0
 10
377.360000
 20
69.360000
 30
0.0
  0
SPLINE
  5
2b4
100
AcDbEntity
  8
0
 62
7
100
AcDbSpline
 70
8
 71
3
 72
8
 73
4
 74
0
 40
0
 40
0
 40
0
 40
0
 40
1
 40
1
 40
1
 40
1
 10
377.360000
 20
69.360000
 30
0.0
 10
374.960000
 20
69.360000
 30
0.0
 10
373.200000
 20
68.320000
 30
0.0
 10
372.000000
 20
66.160000
 30
0.0
  0
SPLINE
  5
2b5
100
AcDbEntity
  8
0
 62
7
100
AcDbSpline
 70
8
 71
3
 72
8
 73
4
 74
0
 40
0
 40
0
 40
0
 40
0
 40
1
 40
1
 40
1
 40
1
 10
372.000000
 20
66.160000
 30
0.0
 10
370.720000
 20
64.080000
 30
0.0
 10
370.160000
 20
61.120000
 30
0.0
 10
370.160000
 20
57.280000
 30
0.0
  0
LINE
  5
2b6
100
AcDbEntity
  8
0
 62
7
100
AcDbLine
 10
370.160000
 20
57.280000
 30
0.0
 11
370.160000
 21
37.680000
 31
0.0
  0
LINE
  5
2b7
100
AcDbEntity
  8
0
 62
7
100
AcDbLine
 10
370.160000
 20
37.680000
 30
0.0
 11
363.840000
 21
37.680000
 31
0.0
  0
LINE
  5
2b8
100
AcDbEntity
  8
0
 62
7
100
AcDbLine
 10
363.840000
 20
37.680000
 30
0.0
 11
363.840000
 21
74.960000
 31
0.0
  0
LINE
  5
2b9
100
AcDbEntity
  8
0
 62
7
100
AcDbLine
 10
363.840000
 20
74.960000
 30
0.0
 11
369.600000
 21
74.960000
 31
0.0
  0
LINE
  5
2ba
100
AcDbEntity
  8
0
 62
7
100
AcDbLine
 10
369.600000
 20
74.960000
 30
0.0
 11
369.600000
 21
69.360000
 31
0.0
  0
LINE
  5
2bb
100
AcDbEntity
  8
0
 62
7
100
AcDbLine
 10
369.600000
 20
69.360000
 30
0.0
 11
369.680000
 21
69.360000
 31
0.0
  0
SPLINE
  5
2bc
100
AcDbEntity
  8
0
 62
7
100
AcDbSpline
 70
8
 71
3
 72
8
 73
4
 74
0
 40
0
 40
0
 40
0
 40
0
 40
1
 40
1
 40
1
 40
1
 10
369.680000
 20
69.360000
 30
0.0
 10
371.760000
 20
73.680000
 30
0.0
 10
374.400000
 20
75.840000
 30
0.0
 10
377.600000
 20
75.840000
 30
0.0
  0
SPLINE
  5
2bd
100
AcDbEntity
  8
0
 62
7
100
AcDbSpline
 70
8
 71
3
 72
8
 73
4
 74
0
 40
0
 40
0
 40
0
 40
0
 40
1
 40
1
 40
1
 40
1
 10
377.600000
 20
75.840000
 30
0.0
 10
379.760000
 20
75.840000
 30
0.0
 10
381.920000
 20
75.200000
 30
0.0
 10
384.160000
 20
73.840000
 30
0.0
  0
LINE
  5
2be
100
AcDbEntity
  8
0
 62
7
100
AcDbLine
 10
384.160000
 20
73.840000
 30
0.0
 11
384.160000
 21
73.840000
 31
0.0
  0
ENDSEC
  0
SECTION
  2
OBJECTS
  0
DICTIONARY
  5
C
330
0
100
AcDbDictionary
  3
ACAD_GROUP
350
D
  3
ACAD_MLINESTYLE
350
17
  0
DICTIONARY
  5
D
330
C
100
AcDbDictionary
  0
DICTIONARY
  5
1A
330
C
100
AcDbDictionary
  0
DICTIONARY
  5
17
330
C
100
AcDbDictionary
  3
STANDARD
350
18
  0
DICTIONARY
  5
19
330
C
100
AcDbDictionary
  0
ENDSEC
  0
EOF
