  0
SECTION
  2
HEADER
  9
$ACADVER
  1
AC1014
  9
$HANDSEED
  5
FFFF
  9
$MEASUREMENT
 70
     1
  0
ENDSEC
  0
SECTION
  2
TABLES
  0
TABLE
  2
VPORT
  5
8
330
0
100
AcDbSymbolTable
 70
     4
  0
VPORT
  5
2E
330
8
100
AcDbSymbolTableRecord
100
AcDbViewportTableRecord
  2
*ACTIVE
 70
     0
 10
0.0
 20
0.0
 11
1.0
 21
1.0
 12
210.0
 22
148.5
 13
0.0
 23
0.0
 14
10.0
 24
10.0
 15
10.0
 25
10.0
 16
0.0
 26
0.0
 36
1.0
 17
0.0
 27
0.0
 37
0.0
 40
341.0
 41
1.24
 42
50.0
 43
0.0
 44
0.0
 50
0.0
 51
0.0
 71
     0
 72
   100
 73
     1
 74
     3
 75
     0
 76
     0
 77
     0
 78
     0
  0
ENDTAB
  0
TABLE
  2
LTYPE
  5
5
330
0
100
AcDbSymbolTable
 70
     1
  0
LTYPE
  5
14
330
5
100
AcDbSymbolTableRecord
100
AcDbLinetypeTableRecord
  2
BYBLOCK
 70
     0
  3

 72
    65
 73
     0
 40
0.0
  0
LTYPE
  5
15
330
5
100
AcDbSymbolTableRecord
100
AcDbLinetypeTableRecord
  2
BYLAYER
 70
     0
  3

 72
    65
 73
     0
 40
0.0
  0
LTYPE
  5
16
330
5
100
AcDbSymbolTableRecord
100
AcDbLinetypeTableRecord
  2
CONTINUOUS
 70
     0
  3
Solid line
 72
    65
 73
     0
 40
0.0
  0
ENDTAB
  0
TABLE
  2
LAYER
  5
2
100
AcDbSymbolTable
 70
1
  0
LAYER
  5
50
100
AcDbSymbolTableRecord
100
AcDbLayerTableRecord
  2
0
 70
0
  6
CONTINUOUS
  0
ENDTAB
  0
TABLE
  2
STYLE
  5
3
330
0
100
AcDbSymbolTable
 70
     1
  0
STYLE
  5
11
330
3
100
AcDbSymbolTableRecord
100
AcDbTextStyleTableRecord
  2
STANDARD
 70
     0
 40
0.0
 41
1.0
 50
0.0
 71
     0
 42
2.5
  3
txt
  4

  0
ENDTAB
  0
TABLE
  2
VIEW
  5
6
330
0
100
AcDbSymbolTable
 70
     0
  0
ENDTAB
  0
TABLE
  2
UCS
  5
7
330
0
100
AcDbSymbolTable
 70
     0
  0
ENDTAB
  0
TABLE
  2
APPID
  5
9
330
0
100
AcDbSymbolTable
 70
     2
  0
APPID
  5
12
330
9
100
AcDbSymbolTableRecord
100
AcDbRegAppTableRecord
  2
ACAD
 70
     0
  0
ENDTAB
  0
TABLE
  2
DIMSTYLE
  5
A
330
0
100
AcDbSymbolTable
 70
     1
  0
DIMSTYLE
105
27
330
A
100
AcDbSymbolTableRecord
100
AcDbDimStyleTableRecord
  2
ISO-25
 70
     0
  3

  4

  5

  6

  7

 40
1.0
 41
2.5
 42
0.625
 43
3.75
 44
1.25
 45
0.0
 46
0.0
 47
0.0
 48
0.0
140
2.5
141
2.5
142
0.0
143
0.03937007874016
144
1.0
145
0.0
146
1.0
147
0.625
 71
     0
 72
     0
 73
     0
 74
     0
 75
     0
 76
     0
 77
     1
 78
     8
170
     0
171
     3
172
     1
173
     0
174
     0
175
     0
176
     0
177
     0
178
     0
270
     2
271
     2
272
     2
273
     2
274
     3
340
11
275
     0
280
     0
281
     0
282
     0
283
     0
284
     8
285
     0
286
     0
287
     3
288
     0
  0
ENDTAB
  0
TABLE
  2
BLOCK_RECORD
  5
1
330
0
100
AcDbSymbolTable
 70
     1
  0
BLOCK_RECORD
  5
1F
330
1
100
AcDbSymbolTableRecord
100
AcDbBlockTableRecord
  2
*MODEL_SPACE
  0
BLOCK_RECORD
  5
1B
330
1
100
AcDbSymbolTableRecord
100
AcDbBlockTableRecord
  2
*PAPER_SPACE
  0
ENDTAB
  0
ENDSEC
  0
SECTION
  2
BLOCKS
  0
BLOCK
  5
20
330
1F
100
AcDbEntity
  8
0
100
AcDbBlockBegin
  2
*MODEL_SPACE
 70
     0
 10
0.0
 20
0.0
 30
0.0
  3
*MODEL_SPACE
  1

  0
ENDBLK
  5
21
330
1F
100
AcDbEntity
  8
0
100
AcDbBlockEnd
  0
BLOCK
  5
1C
330
1B
100
AcDbEntity
 67
     1
  8
0
100
AcDbBlockBegin
  2
*PAPER_SPACE
  1

  0
ENDBLK
  5
1D
330
1B
100
AcDbEntity
 67
     1
  8
0
100
AcDbBlockEnd
  0
ENDSEC
  0
SECTION
  2
ENTITIES
  0
SPLINE
  5
100
100
AcDbEntity
  8
0
 62
7
100
AcDbSpline
 70
8
 71
3
 72
8
 73
4
 74
0
 40
0
 40
0
 40
0
 40
0
 40
1
 40
1
 40
1
 40
1
 10
290.480000
 20
288.320000
 30
0.0
 10
273.040000
 20
308.320000
 30
0.0
 10
253.280000
 20
330.960000
 30
0.0
 10
249.680000
 20
334.880000
 30
0.0
  0
SPLINE
  5
101
100
AcDbEntity
  8
0
 62
7
100
AcDbSpline
 70
8
 71
3
 72
8
 73
4
 74
0
 40
0
 40
0
 40
0
 40
0
 40
1
 40
1
 40
1
 40
1
 10
249.680000
 20
334.880000
 30
0.0
 10
247.680000
 20
337.120000
 30
0.0
 10
237.680000
 20
348.480000
 30
0.0
 10
227.520000
 20
360.160000
 30
0.0
  0
SPLINE
  5
102
100
AcDbEntity
  8
0
 62
7
100
AcDbSpline
 70
8
 71
3
 72
8
 73
4
 74
0
 40
0
 40
0
 40
0
 40
0
 40
1
 40
1
 40
1
 40
1
 10
227.520000
 20
360.160000
 30
0.0
 10
217.280000
 20
371.840000
 30
0.0
 10
205.360000
 20
385.440000
 30
0.0
 10
201.040000
 20
390.400000
 30
0.0
  0
SPLINE
  5
103
100
AcDbEntity
  8
0
 62
7
100
AcDbSpline
 70
8
 71
3
 72
8
 73
4
 74
0
 40
0
 40
0
 40
0
 40
0
 40
1
 40
1
 40
1
 40
1
 10
201.040000
 20
390.400000
 30
0.0
 10
196.640000
 20
395.360000
 30
0.0
 10
188.400000
 20
404.800000
 30
0.0
 10
182.720000
 20
411.280000
 30
0.0
  0
SPLINE
  5
104
100
AcDbEntity
  8
0
 62
7
100
AcDbSpline
 70
8
 71
3
 72
8
 73
4
 74
0
 40
0
 40
0
 40
0
 40
0
 40
1
 40
1
 40
1
 40
1
 10
182.720000
 20
411.280000
 30
0.0
 10
177.040000
 20
417.840000
 30
0.0
 10
168.960000
 20
426.960000
 30
0.0
 10
164.880000
 20
431.600000
 30
0.0
  0
SPLINE
  5
105
100
AcDbEntity
  8
0
 62
7
100
AcDbSpline
 70
8
 71
3
 72
8
 73
4
 74
0
 40
0
 40
0
 40
0
 40
0
 40
1
 40
1
 40
1
 40
1
 10
164.880000
 20
431.600000
 30
0.0
 10
160.800000
 20
436.160000
 30
0.0
 10
154.960000
 20
442.960000
 30
0.0
 10
151.840000
 20
446.560000
 30
0.0
  0
SPLINE
  5
106
100
AcDbEntity
  8
0
 62
7
100
AcDbSpline
 70
8
 71
3
 72
8
 73
4
 74
0
 40
0
 40
0
 40
0
 40
0
 40
1
 40
1
 40
1
 40
1
 10
151.840000
 20
446.560000
 30
0.0
 10
148.800000
 20
450.160000
 30
0.0
 10
145.040000
 20
454.320000
 30
0.0
 10
143.600000
 20
455.920000
 30
0.0
  0
SPLINE
  5
107
100
AcDbEntity
  8
0
 62
7
100
AcDbSpline
 70
8
 71
3
 72
8
 73
4
 74
0
 40
0
 40
0
 40
0
 40
0
 40
1
 40
1
 40
1
 40
1
 10
143.600000
 20
455.920000
 30
0.0
 10
142.160000
 20
457.440000
 30
0.0
 10
137.280000
 20
462.880000
 30
0.0
 10
132.800000
 20
468.080000
 30
0.0
  0
SPLINE
  5
108
100
AcDbEntity
  8
0
 62
7
100
AcDbSpline
 70
8
 71
3
 72
8
 73
4
 74
0
 40
0
 40
0
 40
0
 40
0
 40
1
 40
1
 40
1
 40
1
 10
132.800000
 20
468.080000
 30
0.0
 10
128.320000
 20
473.200000
 30
0.0
 10
120.000000
 20
482.720000
 30
0.0
 10
114.320000
 20
489.280000
 30
0.0
  0
SPLINE
  5
109
100
AcDbEntity
  8
0
 62
7
100
AcDbSpline
 70
8
 71
3
 72
8
 73
4
 74
0
 40
0
 40
0
 40
0
 40
0
 40
1
 40
1
 40
1
 40
1
 10
114.320000
 20
489.280000
 30
0.0
 10
108.560000
 20
495.760000
 30
0.0
 10
102.960000
 20
502.240000
 30
0.0
 10
101.760000
 20
503.600000
 30
0.0
  0
SPLINE
  5
10a
100
AcDbEntity
  8
0
 62
7
100
AcDbSpline
 70
8
 71
3
 72
8
 73
4
 74
0
 40
0
 40
0
 40
0
 40
0
 40
1
 40
1
 40
1
 40
1
 10
101.760000
 20
503.600000
 30
0.0
 10
100.560000
 20
504.960000
 30
0.0
 10
96.800000
 20
509.200000
 30
0.0
 10
93.520000
 20
512.960000
 30
0.0
  0
SPLINE
  5
10b
100
AcDbEntity
  8
0
 62
7
100
AcDbSpline
 70
8
 71
3
 72
8
 73
4
 74
0
 40
0
 40
0
 40
0
 40
0
 40
1
 40
1
 40
1
 40
1
 10
93.520000
 20
512.960000
 30
0.0
 10
90.160000
 20
516.720000
 30
0.0
 10
86.400000
 20
521.040000
 30
0.0
 10
85.040000
 20
522.640000
 30
0.0
  0
SPLINE
  5
10c
100
AcDbEntity
  8
0
 62
7
100
AcDbSpline
 70
8
 71
3
 72
8
 73
4
 74
0
 40
0
 40
0
 40
0
 40
0
 40
1
 40
1
 40
1
 40
1
 10
85.040000
 20
522.640000
 30
0.0
 10
83.680000
 20
524.160000
 30
0.0
 10
81.840000
 20
526.240000
 30
0.0
 10
80.960000
 20
527.280000
 30
0.0
  0
SPLINE
  5
10d
100
AcDbEntity
  8
0
 62
7
100
AcDbSpline
 70
8
 71
3
 72
8
 73
4
 74
0
 40
0
 40
0
 40
0
 40
0
 40
1
 40
1
 40
1
 40
1
 10
80.960000
 20
527.280000
 30
0.0
 10
80.080000
 20
528.320000
 30
0.0
 10
74.720000
 20
534.320000
 30
0.0
 10
69.200000
 20
540.720000
 30
0.0
  0
SPLINE
  5
10e
100
AcDbEntity
  8
0
 62
7
100
AcDbSpline
 70
8
 71
3
 72
8
 73
4
 74
0
 40
0
 40
0
 40
0
 40
0
 40
1
 40
1
 40
1
 40
1
 10
69.200000
 20
540.720000
 30
0.0
 10
63.600000
 20
547.040000
 30
0.0
 10
56.560000
 20
555.040000
 30
0.0
 10
53.520000
 20
558.480000
 30
0.0
  0
SPLINE
  5
10f
100
AcDbEntity
  8
0
 62
7
100
AcDbSpline
 70
8
 71
3
 72
8
 73
4
 74
0
 40
0
 40
0
 40
0
 40
0
 40
1
 40
1
 40
1
 40
1
 10
53.520000
 20
558.480000
 30
0.0
 10
50.480000
 20
561.920000
 30
0.0
 10
46.800000
 20
566.160000
 30
0.0
 10
45.280000
 20
568.000000
 30
0.0
  0
SPLINE
  5
110
100
AcDbEntity
  8
0
 62
7
100
AcDbSpline
 70
8
 71
3
 72
8
 73
4
 74
0
 40
0
 40
0
 40
0
 40
0
 40
1
 40
1
 40
1
 40
1
 10
45.280000
 20
568.000000
 30
0.0
 10
43.680000
 20
569.760000
 30
0.0
 10
41.440000
 20
572.320000
 30
0.0
 10
40.240000
 20
573.600000
 30
0.0
  0
SPLINE
  5
111
100
AcDbEntity
  8
0
 62
7
100
AcDbSpline
 70
8
 71
3
 72
8
 73
4
 74
0
 40
0
 40
0
 40
0
 40
0
 40
1
 40
1
 40
1
 40
1
 10
40.240000
 20
573.600000
 30
0.0
 10
38.960000
 20
574.880000
 30
0.0
 10
35.680000
 20
578.640000
 30
0.0
 10
32.880000
 20
582.000000
 30
0.0
  0
LINE
  5
112
100
AcDbEntity
  8
0
 62
7
100
AcDbLine
 10
32.880000
 20
582.000000
 30
0.0
 11
27.840000
 21
588.160000
 31
0.0
  0
LINE
  5
113
100
AcDbEntity
  8
0
 62
7
100
AcDbLine
 10
27.840000
 20
588.160000
 30
0.0
 11
31.360000
 21
591.360000
 31
0.0
  0
SPLINE
  5
114
100
AcDbEntity
  8
0
 62
7
100
AcDbSpline
 70
8
 71
3
 72
8
 73
4
 74
0
 40
0
 40
0
 40
0
 40
0
 40
1
 40
1
 40
1
 40
1
 10
31.360000
 20
591.360000
 30
0.0
 10
33.280000
 20
593.200000
 30
0.0
 10
36.800000
 20
596.320000
 30
0.0
 10
39.120000
 20
598.400000
 30
0.0
  0
SPLINE
  5
115
100
AcDbEntity
  8
0
 62
7
100
AcDbSpline
 70
8
 71
3
 72
8
 73
4
 74
0
 40
0
 40
0
 40
0
 40
0
 40
1
 40
1
 40
1
 40
1
 10
39.120000
 20
598.400000
 30
0.0
 10
41.520000
 20
600.400000
 30
0.0
 10
44.160000
 20
602.800000
 30
0.0
 10
45.040000
 20
603.680000
 30
0.0
  0
SPLINE
  5
116
100
AcDbEntity
  8
0
 62
7
100
AcDbSpline
 70
8
 71
3
 72
8
 73
4
 74
0
 40
0
 40
0
 40
0
 40
0
 40
1
 40
1
 40
1
 40
1
 10
45.040000
 20
603.680000
 30
0.0
 10
46.000000
 20
604.560000
 30
0.0
 10
47.840000
 20
606.240000
 30
0.0
 10
49.200000
 20
607.440000
 30
0.0
  0
SPLINE
  5
117
100
AcDbEntity
  8
0
 62
7
100
AcDbSpline
 70
8
 71
3
 72
8
 73
4
 74
0
 40
0
 40
0
 40
0
 40
0
 40
1
 40
1
 40
1
 40
1
 10
49.200000
 20
607.440000
 30
0.0
 10
51.600000
 20
609.440000
 30
0.0
 10
55.280000
 20
612.720000
 30
0.0
 10
62.560000
 20
619.280000
 30
0.0
  0
SPLINE
  5
118
100
AcDbEntity
  8
0
 62
7
100
AcDbSpline
 70
8
 71
3
 72
8
 73
4
 74
0
 40
0
 40
0
 40
0
 40
0
 40
1
 40
1
 40
1
 40
1
 10
62.560000
 20
619.280000
 30
0.0
 10
64.320000
 20
620.800000
 30
0.0
 10
67.280000
 20
623.440000
 30
0.0
 10
69.280000
 20
625.200000
 30
0.0
  0
SPLINE
  5
119
100
AcDbEntity
  8
0
 62
7
100
AcDbSpline
 70
8
 71
3
 72
8
 73
4
 74
0
 40
0
 40
0
 40
0
 40
0
 40
1
 40
1
 40
1
 40
1
 10
69.280000
 20
625.200000
 30
0.0
 10
71.200000
 20
626.960000
 30
0.0
 10
74.720000
 20
630.160000
 30
0.0
 10
77.120000
 20
632.320000
 30
0.0
  0
SPLINE
  5
11a
100
AcDbEntity
  8
0
 62
7
100
AcDbSpline
 70
8
 71
3
 72
8
 73
4
 74
0
 40
0
 40
0
 40
0
 40
0
 40
1
 40
1
 40
1
 40
1
 10
77.120000
 20
632.320000
 30
0.0
 10
79.520000
 20
634.480000
 30
0.0
 10
84.720000
 20
639.120000
 30
0.0
 10
88.720000
 20
642.640000
 30
0.0
  0
SPLINE
  5
11b
100
AcDbEntity
  8
0
 62
7
100
AcDbSpline
 70
8
 71
3
 72
8
 73
4
 74
0
 40
0
 40
0
 40
0
 40
0
 40
1
 40
1
 40
1
 40
1
 10
88.720000
 20
642.640000
 30
0.0
 10
92.720000
 20
646.160000
 30
0.0
 10
98.320000
 20
651.200000
 30
0.0
 10
101.280000
 20
653.840000
 30
0.0
  0
SPLINE
  5
11c
100
AcDbEntity
  8
0
 62
7
100
AcDbSpline
 70
8
 71
3
 72
8
 73
4
 74
0
 40
0
 40
0
 40
0
 40
0
 40
1
 40
1
 40
1
 40
1
 10
101.280000
 20
653.840000
 30
0.0
 10
106.560000
 20
658.640000
 30
0.0
 10
116.880000
 20
667.840000
 30
0.0
 10
122.400000
 20
672.720000
 30
0.0
  0
LINE
  5
11d
100
AcDbEntity
  8
0
 62
7
100
AcDbLine
 10
122.400000
 20
672.720000
 30
0.0
 11
125.360000
 21
675.360000
 31
0.0
  0
LINE
  5
11e
100
AcDbEntity
  8
0
 62
7
100
AcDbLine
 10
125.360000
 20
675.360000
 30
0.0
 11
300.640000
 21
675.360000
 31
0.0
  0
LINE
  5
11f
100
AcDbEntity
  8
0
 62
7
100
AcDbLine
 10
300.640000
 20
675.360000
 30
0.0
 11
475.920000
 21
675.360000
 31
0.0
  0
LINE
  5
120
100
AcDbEntity
  8
0
 62
7
100
AcDbLine
 10
475.920000
 20
675.360000
 30
0.0
 11
479.760000
 21
672.080000
 31
0.0
  0
SPLINE
  5
121
100
AcDbEntity
  8
0
 62
7
100
AcDbSpline
 70
8
 71
3
 72
8
 73
4
 74
0
 40
0
 40
0
 40
0
 40
0
 40
1
 40
1
 40
1
 40
1
 10
479.760000
 20
672.080000
 30
0.0
 10
487.200000
 20
665.760000
 30
0.0
 10
505.760000
 20
649.440000
 30
0.0
 10
508.800000
 20
646.720000
 30
0.0
  0
SPLINE
  5
122
100
AcDbEntity
  8
0
 62
7
100
AcDbSpline
 70
8
 71
3
 72
8
 73
4
 74
0
 40
0
 40
0
 40
0
 40
0
 40
1
 40
1
 40
1
 40
1
 10
508.800000
 20
646.720000
 30
0.0
 10
510.480000
 20
645.120000
 30
0.0
 10
514.000000
 20
642.080000
 30
0.0
 10
516.640000
 20
639.840000
 30
0.0
  0
SPLINE
  5
123
100
AcDbEntity
  8
0
 62
7
100
AcDbSpline
 70
8
 71
3
 72
8
 73
4
 74
0
 40
0
 40
0
 40
0
 40
0
 40
1
 40
1
 40
1
 40
1
 10
516.640000
 20
639.840000
 30
0.0
 10
519.280000
 20
637.600000
 30
0.0
 10
523.920000
 20
633.520000
 30
0.0
 10
527.040000
 20
630.800000
 30
0.0
  0
SPLINE
  5
124
100
AcDbEntity
  8
0
 62
7
100
AcDbSpline
 70
8
 71
3
 72
8
 73
4
 74
0
 40
0
 40
0
 40
0
 40
0
 40
1
 40
1
 40
1
 40
1
 10
527.040000
 20
630.800000
 30
0.0
 10
530.160000
 20
628.080000
 30
0.0
 10
537.920000
 20
621.280000
 30
0.0
 10
544.160000
 20
615.840000
 30
0.0
  0
SPLINE
  5
125
100
AcDbEntity
  8
0
 62
7
100
AcDbSpline
 70
8
 71
3
 72
8
 73
4
 74
0
 40
0
 40
0
 40
0
 40
0
 40
1
 40
1
 40
1
 40
1
 10
544.160000
 20
615.840000
 30
0.0
 10
550.400000
 20
610.320000
 30
0.0
 10
558.080000
 20
603.600000
 30
0.0
 10
561.200000
 20
600.880000
 30
0.0
  0
SPLINE
  5
126
100
AcDbEntity
  8
0
 62
7
100
AcDbSpline
 70
8
 71
3
 72
8
 73
4
 74
0
 40
0
 40
0
 40
0
 40
0
 40
1
 40
1
 40
1
 40
1
 10
561.200000
 20
600.880000
 30
0.0
 10
564.320000
 20
598.080000
 30
0.0
 10
568.080000
 20
594.880000
 30
0.0
 10
569.520000
 20
593.680000
 30
0.0
  0
SPLINE
  5
127
100
AcDbEntity
  8
0
 62
7
100
AcDbSpline
 70
8
 71
3
 72
8
 73
4
 74
0
 40
0
 40
0
 40
0
 40
0
 40
1
 40
1
 40
1
 40
1
 10
569.520000
 20
593.680000
 30
0.0
 10
571.040000
 20
592.480000
 30
0.0
 10
573.040000
 20
590.640000
 30
0.0
 10
574.000000
 20
589.520000
 30
0.0
  0
LINE
  5
128
100
AcDbEntity
  8
0
 62
7
100
AcDbLine
 10
574.000000
 20
589.520000
 30
0.0
 11
575.760000
 21
587.600000
 31
0.0
  0
LINE
  5
129
100
AcDbEntity
  8
0
 62
7
100
AcDbLine
 10
575.760000
 20
587.600000
 30
0.0
 11
570.960000
 21
582.400000
 31
0.0
  0
SPLINE
  5
12a
100
AcDbEntity
  8
0
 62
7
100
AcDbSpline
 70
8
 71
3
 72
8
 73
4
 74
0
 40
0
 40
0
 40
0
 40
0
 40
1
 40
1
 40
1
 40
1
 10
570.960000
 20
582.400000
 30
0.0
 10
568.240000
 20
579.520000
 30
0.0
 10
564.160000
 20
574.880000
 30
0.0
 10
561.760000
 20
572.160000
 30
0.0
  0
SPLINE
  5
12b
100
AcDbEntity
  8
0
 62
7
100
AcDbSpline
 70
8
 71
3
 72
8
 73
4
 74
0
 40
0
 40
0
 40
0
 40
0
 40
1
 40
1
 40
1
 40
1
 10
561.760000
 20
572.160000
 30
0.0
 10
557.520000
 20
567.280000
 30
0.0
 10
544.080000
 20
552.160000
 30
0.0
 10
540.720000
 20
548.480000
 30
0.0
  0
SPLINE
  5
12c
100
AcDbEntity
  8
0
 62
7
100
AcDbSpline
 70
8
 71
3
 72
8
 73
4
 74
0
 40
0
 40
0
 40
0
 40
0
 40
1
 40
1
 40
1
 40
1
 10
540.720000
 20
548.480000
 30
0.0
 10
539.760000
 20
547.440000
 30
0.0
 10
536.640000
 20
543.920000
 30
0.0
 10
533.760000
 20
540.720000
 30
0.0
  0
SPLINE
  5
12d
100
AcDbEntity
  8
0
 62
7
100
AcDbSpline
 70
8
 71
3
 72
8
 73
4
 74
0
 40
0
 40
0
 40
0
 40
0
 40
1
 40
1
 40
1
 40
1
 10
533.760000
 20
540.720000
 30
0.0
 10
528.800000
 20
535.040000
 30
0.0
 10
512.560000
 20
516.880000
 30
0.0
 10
508.480000
 20
512.400000
 30
0.0
  0
SPLINE
  5
12e
100
AcDbEntity
  8
0
 62
7
100
AcDbSpline
 70
8
 71
3
 72
8
 73
4
 74
0
 40
0
 40
0
 40
0
 40
0
 40
1
 40
1
 40
1
 40
1
 10
508.480000
 20
512.400000
 30
0.0
 10
507.440000
 20
511.200000
 30
0.0
 10
505.040000
 20
508.480000
 30
0.0
 10
503.120000
 20
506.320000
 30
0.0
  0
SPLINE
  5
12f
100
AcDbEntity
  8
0
 62
7
100
AcDbSpline
 70
8
 71
3
 72
8
 73
4
 74
0
 40
0
 40
0
 40
0
 40
0
 40
1
 40
1
 40
1
 40
1
 10
503.120000
 20
506.320000
 30
0.0
 10
501.200000
 20
504.160000
 30
0.0
 10
495.600000
 20
497.840000
 30
0.0
 10
490.720000
 20
492.400000
 30
0.0
  0
SPLINE
  5
130
100
AcDbEntity
  8
0
 62
7
100
AcDbSpline
 70
8
 71
3
 72
8
 73
4
 74
0
 40
0
 40
0
 40
0
 40
0
 40
1
 40
1
 40
1
 40
1
 10
490.720000
 20
492.400000
 30
0.0
 10
485.760000
 20
486.880000
 30
0.0
 10
480.880000
 20
481.440000
 30
0.0
 10
479.840000
 20
480.240000
 30
0.0
  0
SPLINE
  5
131
100
AcDbEntity
  8
0
 62
7
100
AcDbSpline
 70
8
 71
3
 72
8
 73
4
 74
0
 40
0
 40
0
 40
0
 40
0
 40
1
 40
1
 40
1
 40
1
 10
479.840000
 20
480.240000
 30
0.0
 10
478.800000
 20
479.040000
 30
0.0
 10
476.480000
 20
476.480000
 30
0.0
 10
474.720000
 20
474.560000
 30
0.0
  0
SPLINE
  5
132
100
AcDbEntity
  8
0
 62
7
100
AcDbSpline
 70
8
 71
3
 72
8
 73
4
 74
0
 40
0
 40
0
 40
0
 40
0
 40
1
 40
1
 40
1
 40
1
 10
474.720000
 20
474.560000
 30
0.0
 10
471.840000
 20
471.440000
 30
0.0
 10
455.760000
 20
453.280000
 30
0.0
 10
450.640000
 20
447.440000
 30
0.0
  0
SPLINE
  5
133
100
AcDbEntity
  8
0
 62
7
100
AcDbSpline
 70
8
 71
3
 72
8
 73
4
 74
0
 40
0
 40
0
 40
0
 40
0
 40
1
 40
1
 40
1
 40
1
 10
450.640000
 20
447.440000
 30
0.0
 10
449.520000
 20
446.080000
 30
0.0
 10
446.960000
 20
443.280000
 30
0.0
 10
445.040000
 20
441.200000
 30
0.0
  0
SPLINE
  5
134
100
AcDbEntity
  8
0
 62
7
100
AcDbSpline
 70
8
 71
3
 72
8
 73
4
 74
0
 40
0
 40
0
 40
0
 40
0
 40
1
 40
1
 40
1
 40
1
 10
445.040000
 20
441.200000
 30
0.0
 10
443.200000
 20
439.200000
 30
0.0
 10
440.160000
 20
435.840000
 30
0.0
 10
438.320000
 20
433.760000
 30
0.0
  0
SPLINE
  5
135
100
AcDbEntity
  8
0
 62
7
100
AcDbSpline
 70
8
 71
3
 72
8
 73
4
 74
0
 40
0
 40
0
 40
0
 40
0
 40
1
 40
1
 40
1
 40
1
 10
438.320000
 20
433.760000
 30
0.0
 10
435.600000
 20
430.560000
 30
0.0
 10
415.760000
 20
408.320000
 30
0.0
 10
410.640000
 20
402.560000
 30
0.0
  0
SPLINE
  5
136
100
AcDbEntity
  8
0
 62
7
100
AcDbSpline
 70
8
 71
3
 72
8
 73
4
 74
0
 40
0
 40
0
 40
0
 40
0
 40
1
 40
1
 40
1
 40
1
 10
410.640000
 20
402.560000
 30
0.0
 10
409.760000
 20
401.520000
 30
0.0
 10
407.600000
 20
399.120000
 30
0.0
 10
405.840000
 20
397.280000
 30
0.0
  0
SPLINE
  5
137
100
AcDbEntity
  8
0
 62
7
100
AcDbSpline
 70
8
 71
3
 72
8
 73
4
 74
0
 40
0
 40
0
 40
0
 40
0
 40
1
 40
1
 40
1
 40
1
 10
405.840000
 20
397.280000
 30
0.0
 10
404.080000
 20
395.360000
 30
0.0
 10
400.880000
 20
391.760000
 30
0.0
 10
398.640000
 20
389.200000
 30
0.0
  0
SPLINE
  5
138
100
AcDbEntity
  8
0
 62
7
100
AcDbSpline
 70
8
 71
3
 72
8
 73
4
 74
0
 40
0
 40
0
 40
0
 40
0
 40
1
 40
1
 40
1
 40
1
 10
398.640000
 20
389.200000
 30
0.0
 10
396.400000
 20
386.560000
 30
0.0
 10
392.080000
 20
381.680000
 30
0.0
 10
388.960000
 20
378.240000
 30
0.0
  0
SPLINE
  5
139
100
AcDbEntity
  8
0
 62
7
100
AcDbSpline
 70
8
 71
3
 72
8
 73
4
 74
0
 40
0
 40
0
 40
0
 40
0
 40
1
 40
1
 40
1
 40
1
 10
388.960000
 20
378.240000
 30
0.0
 10
382.080000
 20
370.560000
 30
0.0
 10
374.160000
 20
361.680000
 30
0.0
 10
363.520000
 20
349.760000
 30
0.0
  0
SPLINE
  5
13a
100
AcDbEntity
  8
0
 62
7
100
AcDbSpline
 70
8
 71
3
 72
8
 73
4
 74
0
 40
0
 40
0
 40
0
 40
0
 40
1
 40
1
 40
1
 40
1
 10
363.520000
 20
349.760000
 30
0.0
 10
362.560000
 20
348.640000
 30
0.0
 10
360.080000
 20
345.840000
 30
0.0
 10
358.080000
 20
343.680000
 30
0.0
  0
SPLINE
  5
13b
100
AcDbEntity
  8
0
 62
7
100
AcDbSpline
 70
8
 71
3
 72
8
 73
4
 74
0
 40
0
 40
0
 40
0
 40
0
 40
1
 40
1
 40
1
 40
1
 10
358.080000
 20
343.680000
 30
0.0
 10
356.080000
 20
341.440000
 30
0.0
 10
352.000000
 20
336.800000
 30
0.0
 10
348.960000
 20
333.360000
 30
0.0
  0
SPLINE
  5
13c
100
AcDbEntity
  8
0
 62
7
100
AcDbSpline
 70
8
 71
3
 72
8
 73
4
 74
0
 40
0
 40
0
 40
0
 40
0
 40
1
 40
1
 40
1
 40
1
 10
348.960000
 20
333.360000
 30
0.0
 10
345.920000
 20
329.920000
 30
0.0
 10
341.680000
 20
325.200000
 30
0.0
 10
339.520000
 20
322.880000
 30
0.0
  0
SPLINE
  5
13d
100
AcDbEntity
  8
0
 62
7
100
AcDbSpline
 70
8
 71
3
 72
8
 73
4
 74
0
 40
0
 40
0
 40
0
 40
0
 40
1
 40
1
 40
1
 40
1
 10
339.520000
 20
322.880000
 30
0.0
 10
337.280000
 20
320.560000
 30
0.0
 10
335.440000
 20
318.480000
 30
0.0
 10
335.440000
 20
318.240000
 30
0.0
  0
SPLINE
  5
13e
100
AcDbEntity
  8
0
 62
7
100
AcDbSpline
 70
8
 71
3
 72
8
 73
4
 74
0
 40
0
 40
0
 40
0
 40
0
 40
1
 40
1
 40
1
 40
1
 10
335.440000
 20
318.240000
 30
0.0
 10
335.440000
 20
318.080000
 30
0.0
 10
334.240000
 20
316.560000
 30
0.0
 10
332.720000
 20
315.040000
 30
0.0
  0
SPLINE
  5
13f
100
AcDbEntity
  8
0
 62
7
100
AcDbSpline
 70
8
 71
3
 72
8
 73
4
 74
0
 40
0
 40
0
 40
0
 40
0
 40
1
 40
1
 40
1
 40
1
 10
332.720000
 20
315.040000
 30
0.0
 10
331.200000
 20
313.440000
 30
0.0
 10
327.280000
 20
309.040000
 30
0.0
 10
323.920000
 20
305.280000
 30
0.0
  0
SPLINE
  5
140
100
AcDbEntity
  8
0
 62
7
100
AcDbSpline
 70
8
 71
3
 72
8
 73
4
 74
0
 40
0
 40
0
 40
0
 40
0
 40
1
 40
1
 40
1
 40
1
 10
323.920000
 20
305.280000
 30
0.0
 10
320.560000
 20
301.520000
 30
0.0
 10
315.120000
 20
295.520000
 30
0.0
 10
311.840000
 20
291.920000
 30
0.0
  0
SPLINE
  5
141
100
AcDbEntity
  8
0
 62
7
100
AcDbSpline
 70
8
 71
3
 72
8
 73
4
 74
0
 40
0
 40
0
 40
0
 40
0
 40
1
 40
1
 40
1
 40
1
 10
311.840000
 20
291.920000
 30
0.0
 10
308.560000
 20
288.320000
 30
0.0
 10
304.480000
 20
283.760000
 30
0.0
 10
302.800000
 20
281.760000
 30
0.0
  0
SPLINE
  5
142
100
AcDbEntity
  8
0
 62
7
100
AcDbSpline
 70
8
 71
3
 72
8
 73
4
 74
0
 40
0
 40
0
 40
0
 40
0
 40
1
 40
1
 40
1
 40
1
 10
302.800000
 20
281.760000
 30
0.0
 10
301.040000
 20
279.760000
 30
0.0
 10
299.600000
 20
278.160000
 30
0.0
 10
299.520000
 20
278.160000
 30
0.0
  0
SPLINE
  5
143
100
AcDbEntity
  8
0
 62
7
100
AcDbSpline
 70
8
 71
3
 72
8
 73
4
 74
0
 40
0
 40
0
 40
0
 40
0
 40
1
 40
1
 40
1
 40
1
 10
299.520000
 20
278.160000
 30
0.0
 10
299.360000
 20
278.160000
 30
0.0
 10
295.360000
 20
282.720000
 30
0.0
 10
290.480000
 20
288.320000
 30
0.0
  0
LINE
  5
144
100
AcDbEntity
  8
0
 62
7
100
AcDbLine
 10
290.480000
 20
288.320000
 30
0.0
 11
290.480000
 21
288.320000
 31
0.0
  0
SPLINE
  5
145
100
AcDbEntity
  8
0
 62
7
100
AcDbSpline
 70
8
 71
3
 72
8
 73
4
 74
0
 40
0
 40
0
 40
0
 40
0
 40
1
 40
1
 40
1
 40
1
 10
306.080000
 20
349.360000
 30
0.0
 10
308.640000
 20
352.240000
 30
0.0
 10
312.640000
 20
356.560000
 30
0.0
 10
314.880000
 20
359.040000
 30
0.0
  0
SPLINE
  5
146
100
AcDbEntity
  8
0
 62
7
100
AcDbSpline
 70
8
 71
3
 72
8
 73
4
 74
0
 40
0
 40
0
 40
0
 40
0
 40
1
 40
1
 40
1
 40
1
 10
314.880000
 20
359.040000
 30
0.0
 10
317.200000
 20
361.520000
 30
0.0
 10
319.040000
 20
363.760000
 30
0.0
 10
319.040000
 20
363.920000
 30
0.0
  0
SPLINE
  5
147
100
AcDbEntity
  8
0
 62
7
100
AcDbSpline
 70
8
 71
3
 72
8
 73
4
 74
0
 40
0
 40
0
 40
0
 40
0
 40
1
 40
1
 40
1
 40
1
 10
319.040000
 20
363.920000
 30
0.0
 10
319.040000
 20
364.080000
 30
0.0
 10
320.080000
 20
365.280000
 30
0.0
 10
321.360000
 20
366.560000
 30
0.0
  0
SPLINE
  5
148
100
AcDbEntity
  8
0
 62
7
100
AcDbSpline
 70
8
 71
3
 72
8
 73
4
 74
0
 40
0
 40
0
 40
0
 40
0
 40
1
 40
1
 40
1
 40
1
 10
321.360000
 20
366.560000
 30
0.0
 10
324.320000
 20
369.600000
 30
0.0
 10
334.480000
 20
380.880000
 30
0.0
 10
336.480000
 20
383.200000
 30
0.0
  0
SPLINE
  5
149
100
AcDbEntity
  8
0
 62
7
100
AcDbSpline
 70
8
 71
3
 72
8
 73
4
 74
0
 40
0
 40
0
 40
0
 40
0
 40
1
 40
1
 40
1
 40
1
 10
336.480000
 20
383.200000
 30
0.0
 10
337.280000
 20
384.240000
 30
0.0
 10
340.000000
 20
387.280000
 30
0.0
 10
342.480000
 20
389.920000
 30
0.0
  0
SPLINE
  5
14a
100
AcDbEntity
  8
0
 62
7
100
AcDbSpline
 70
8
 71
3
 72
8
 73
4
 74
0
 40
0
 40
0
 40
0
 40
0
 40
1
 40
1
 40
1
 40
1
 10
342.480000
 20
389.920000
 30
0.0
 10
344.880000
 20
392.560000
 30
0.0
 10
346.560000
 20
394.880000
 30
0.0
 10
346.240000
 20
395.040000
 30
0.0
  0
SPLINE
  5
14b
100
AcDbEntity
  8
0
 62
7
100
AcDbSpline
 70
8
 71
3
 72
8
 73
4
 74
0
 40
0
 40
0
 40
0
 40
0
 40
1
 40
1
 40
1
 40
1
 10
346.240000
 20
395.040000
 30
0.0
 10
345.840000
 20
395.200000
 30
0.0
 10
339.440000
 20
394.800000
 30
0.0
 10
332.080000
 20
394.080000
 30
0.0
  0
SPLINE
  5
14c
100
AcDbEntity
  8
0
 62
7
100
AcDbSpline
 70
8
 71
3
 72
8
 73
4
 74
0
 40
0
 40
0
 40
0
 40
0
 40
1
 40
1
 40
1
 40
1
 10
332.080000
 20
394.080000
 30
0.0
 10
310.560000
 20
392.160000
 30
0.0
 10
284.640000
 20
392.320000
 30
0.0
 10
263.920000
 20
394.480000
 30
0.0
  0
SPLINE
  5
14d
100
AcDbEntity
  8
0
 62
7
100
AcDbSpline
 70
8
 71
3
 72
8
 73
4
 74
0
 40
0
 40
0
 40
0
 40
0
 40
1
 40
1
 40
1
 40
1
 10
263.920000
 20
394.480000
 30
0.0
 10
259.520000
 20
394.880000
 30
0.0
 10
255.680000
 20
395.120000
 30
0.0
 10
255.280000
 20
394.880000
 30
0.0
  0
SPLINE
  5
14e
100
AcDbEntity
  8
0
 62
7
100
AcDbSpline
 70
8
 71
3
 72
8
 73
4
 74
0
 40
0
 40
0
 40
0
 40
0
 40
1
 40
1
 40
1
 40
1
 10
255.280000
 20
394.880000
 30
0.0
 10
254.960000
 20
394.640000
 30
0.0
 10
256.880000
 20
391.920000
 30
0.0
 10
259.680000
 20
388.880000
 30
0.0
  0
SPLINE
  5
14f
100
AcDbEntity
  8
0
 62
7
100
AcDbSpline
 70
8
 71
3
 72
8
 73
4
 74
0
 40
0
 40
0
 40
0
 40
0
 40
1
 40
1
 40
1
 40
1
 10
259.680000
 20
388.880000
 30
0.0
 10
262.480000
 20
385.760000
 30
0.0
 10
271.040000
 20
376.240000
 30
0.0
 10
278.560000
 20
367.680000
 30
0.0
  0
SPLINE
  5
150
100
AcDbEntity
  8
0
 62
7
100
AcDbSpline
 70
8
 71
3
 72
8
 73
4
 74
0
 40
0
 40
0
 40
0
 40
0
 40
1
 40
1
 40
1
 40
1
 10
278.560000
 20
367.680000
 30
0.0
 10
286.160000
 20
359.040000
 30
0.0
 10
294.080000
 20
350.160000
 30
0.0
 10
296.160000
 20
347.840000
 30
0.0
  0
SPLINE
  5
151
100
AcDbEntity
  8
0
 62
7
100
AcDbSpline
 70
8
 71
3
 72
8
 73
4
 74
0
 40
0
 40
0
 40
0
 40
0
 40
1
 40
1
 40
1
 40
1
 10
296.160000
 20
347.840000
 30
0.0
 10
298.240000
 20
345.520000
 30
0.0
 10
300.240000
 20
343.760000
 30
0.0
 10
300.640000
 20
343.920000
 30
0.0
  0
SPLINE
  5
152
100
AcDbEntity
  8
0
 62
7
100
AcDbSpline
 70
8
 71
3
 72
8
 73
4
 74
0
 40
0
 40
0
 40
0
 40
0
 40
1
 40
1
 40
1
 40
1
 10
300.640000
 20
343.920000
 30
0.0
 10
301.040000
 20
344.080000
 30
0.0
 10
303.520000
 20
346.560000
 30
0.0
 10
306.080000
 20
349.360000
 30
0.0
  0
LINE
  5
153
100
AcDbEntity
  8
0
 62
7
100
AcDbLine
 10
306.080000
 20
349.360000
 30
0.0
 11
306.080000
 21
349.360000
 31
0.0
  0
SPLINE
  5
154
100
AcDbEntity
  8
0
 62
7
100
AcDbSpline
 70
8
 71
3
 72
8
 73
4
 74
0
 40
0
 40
0
 40
0
 40
0
 40
1
 40
1
 40
1
 40
1
 10
336.400000
 20
442.800000
 30
0.0
 10
361.040000
 20
444.560000
 30
0.0
 10
371.280000
 20
446.080000
 30
0.0
 10
382.400000
 20
449.680000
 30
0.0
  0
SPLINE
  5
155
100
AcDbEntity
  8
0
 62
7
100
AcDbSpline
 70
8
 71
3
 72
8
 73
4
 74
0
 40
0
 40
0
 40
0
 40
0
 40
1
 40
1
 40
1
 40
1
 10
382.400000
 20
449.680000
 30
0.0
 10
391.840000
 20
452.640000
 30
0.0
 10
395.440000
 20
454.480000
 30
0.0
 10
398.560000
 20
458.000000
 30
0.0
  0
SPLINE
  5
156
100
AcDbEntity
  8
0
 62
7
100
AcDbSpline
 70
8
 71
3
 72
8
 73
4
 74
0
 40
0
 40
0
 40
0
 40
0
 40
1
 40
1
 40
1
 40
1
 10
398.560000
 20
458.000000
 30
0.0
 10
408.320000
 20
468.880000
 30
0.0
 10
395.200000
 20
477.120000
 30
0.0
 10
362.480000
 20
480.560000
 30
0.0
  0
SPLINE
  5
157
100
AcDbEntity
  8
0
 62
7
100
AcDbSpline
 70
8
 71
3
 72
8
 73
4
 74
0
 40
0
 40
0
 40
0
 40
0
 40
1
 40
1
 40
1
 40
1
 10
362.480000
 20
480.560000
 30
0.0
 10
354.800000
 20
481.360000
 30
0.0
 10
342.000000
 20
481.680000
 30
0.0
 10
309.920000
 20
482.080000
 30
0.0
  0
SPLINE
  5
158
100
AcDbEntity
  8
0
 62
7
100
AcDbSpline
 70
8
 71
3
 72
8
 73
4
 74
0
 40
0
 40
0
 40
0
 40
0
 40
1
 40
1
 40
1
 40
1
 10
309.920000
 20
482.080000
 30
0.0
 10
241.600000
 20
482.880000
 30
0.0
 10
203.840000
 20
486.000000
 30
0.0
 10
174.160000
 20
493.440000
 30
0.0
  0
SPLINE
  5
159
100
AcDbEntity
  8
0
 62
7
100
AcDbSpline
 70
8
 71
3
 72
8
 73
4
 74
0
 40
0
 40
0
 40
0
 40
0
 40
1
 40
1
 40
1
 40
1
 10
174.160000
 20
493.440000
 30
0.0
 10
170.080000
 20
494.480000
 30
0.0
 10
166.400000
 20
495.120000
 30
0.0
 10
166.160000
 20
494.960000
 30
0.0
  0
SPLINE
  5
15a
100
AcDbEntity
  8
0
 62
7
100
AcDbSpline
 70
8
 71
3
 72
8
 73
4
 74
0
 40
0
 40
0
 40
0
 40
0
 40
1
 40
1
 40
1
 40
1
 10
166.160000
 20
494.960000
 30
0.0
 10
165.840000
 20
494.800000
 30
0.0
 10
166.880000
 20
493.120000
 30
0.0
 10
168.480000
 20
491.280000
 30
0.0
  0
SPLINE
  5
15b
100
AcDbEntity
  8
0
 62
7
100
AcDbSpline
 70
8
 71
3
 72
8
 73
4
 74
0
 40
0
 40
0
 40
0
 40
0
 40
1
 40
1
 40
1
 40
1
 10
168.480000
 20
491.280000
 30
0.0
 10
170.080000
 20
489.520000
 30
0.0
 10
172.880000
 20
486.160000
 30
0.0
 10
174.720000
 20
483.920000
 30
0.0
  0
SPLINE
  5
15c
100
AcDbEntity
  8
0
 62
7
100
AcDbSpline
 70
8
 71
3
 72
8
 73
4
 74
0
 40
0
 40
0
 40
0
 40
0
 40
1
 40
1
 40
1
 40
1
 10
174.720000
 20
483.920000
 30
0.0
 10
179.440000
 20
478.320000
 30
0.0
 10
192.800000
 20
462.560000
 30
0.0
 10
193.120000
 20
462.320000
 30
0.0
  0
SPLINE
  5
15d
100
AcDbEntity
  8
0
 62
7
100
AcDbSpline
 70
8
 71
3
 72
8
 73
4
 74
0
 40
0
 40
0
 40
0
 40
0
 40
1
 40
1
 40
1
 40
1
 10
193.120000
 20
462.320000
 30
0.0
 10
193.200000
 20
462.240000
 30
0.0
 10
196.960000
 20
463.200000
 30
0.0
 10
201.440000
 20
464.400000
 30
0.0
  0
SPLINE
  5
15e
100
AcDbEntity
  8
0
 62
7
100
AcDbSpline
 70
8
 71
3
 72
8
 73
4
 74
0
 40
0
 40
0
 40
0
 40
0
 40
1
 40
1
 40
1
 40
1
 10
201.440000
 20
464.400000
 30
0.0
 10
216.480000
 20
468.480000
 30
0.0
 10
226.400000
 20
469.840000
 30
0.0
 10
240.560000
 20
469.840000
 30
0.0
  0
SPLINE
  5
15f
100
AcDbEntity
  8
0
 62
7
100
AcDbSpline
 70
8
 71
3
 72
8
 73
4
 74
0
 40
0
 40
0
 40
0
 40
0
 40
1
 40
1
 40
1
 40
1
 10
240.560000
 20
469.840000
 30
0.0
 10
251.200000
 20
469.840000
 30
0.0
 10
253.920000
 20
469.600000
 30
0.0
 10
259.200000
 20
468.400000
 30
0.0
  0
SPLINE
  5
160
100
AcDbEntity
  8
0
 62
7
100
AcDbSpline
 70
8
 71
3
 72
8
 73
4
 74
0
 40
0
 40
0
 40
0
 40
0
 40
1
 40
1
 40
1
 40
1
 10
259.200000
 20
468.400000
 30
0.0
 10
273.200000
 20
465.120000
 30
0.0
 10
283.920000
 20
459.200000
 30
0.0
 10
294.800000
 20
448.720000
 30
0.0
  0
SPLINE
  5
161
100
AcDbEntity
  8
0
 62
7
100
AcDbSpline
 70
8
 71
3
 72
8
 73
4
 74
0
 40
0
 40
0
 40
0
 40
0
 40
1
 40
1
 40
1
 40
1
 10
294.800000
 20
448.720000
 30
0.0
 10
298.320000
 20
445.280000
 30
0.0
 10
301.600000
 20
442.320000
 30
0.0
 10
302.000000
 20
442.160000
 30
0.0
  0
SPLINE
  5
162
100
AcDbEntity
  8
0
 62
7
100
AcDbSpline
 70
8
 71
3
 72
8
 73
4
 74
0
 40
0
 40
0
 40
0
 40
0
 40
1
 40
1
 40
1
 40
1
 10
302.000000
 20
442.160000
 30
0.0
 10
303.040000
 20
441.600000
 30
0.0
 10
325.920000
 20
442.080000
 30
0.0
 10
336.400000
 20
442.800000
 30
0.0
  0
LINE
  5
163
100
AcDbEntity
  8
0
 62
7
100
AcDbLine
 10
336.400000
 20
442.800000
 30
0.0
 11
336.400000
 21
442.800000
 31
0.0
  0
SPLINE
  5
164
100
AcDbEntity
  8
0
 62
7
100
AcDbSpline
 70
8
 71
3
 72
8
 73
4
 74
0
 40
0
 40
0
 40
0
 40
0
 40
1
 40
1
 40
1
 40
1
 10
470.160000
 20
531.200000
 30
0.0
 10
472.320000
 20
533.520000
 30
0.0
 10
478.080000
 20
540.000000
 30
0.0
 10
482.960000
 20
545.680000
 30
0.0
  0
SPLINE
  5
165
100
AcDbEntity
  8
0
 62
7
100
AcDbSpline
 70
8
 71
3
 72
8
 73
4
 74
0
 40
0
 40
0
 40
0
 40
0
 40
1
 40
1
 40
1
 40
1
 10
482.960000
 20
545.680000
 30
0.0
 10
487.920000
 20
551.360000
 30
0.0
 10
497.280000
 20
562.000000
 30
0.0
 10
503.760000
 20
569.360000
 30
0.0
  0
SPLINE
  5
166
100
AcDbEntity
  8
0
 62
7
100
AcDbSpline
 70
8
 71
3
 72
8
 73
4
 74
0
 40
0
 40
0
 40
0
 40
0
 40
1
 40
1
 40
1
 40
1
 10
503.760000
 20
569.360000
 30
0.0
 10
514.960000
 20
582.000000
 30
0.0
 10
515.520000
 20
582.800000
 30
0.0
 10
514.240000
 20
584.320000
 30
0.0
  0
SPLINE
  5
167
100
AcDbEntity
  8
0
 62
7
100
AcDbSpline
 70
8
 71
3
 72
8
 73
4
 74
0
 40
0
 40
0
 40
0
 40
0
 40
1
 40
1
 40
1
 40
1
 10
514.240000
 20
584.320000
 30
0.0
 10
513.520000
 20
585.200000
 30
0.0
 10
507.440000
 20
590.800000
 30
0.0
 10
500.800000
 20
596.800000
 30
0.0
  0
SPLINE
  5
168
100
AcDbEntity
  8
0
 62
7
100
AcDbSpline
 70
8
 71
3
 72
8
 73
4
 74
0
 40
0
 40
0
 40
0
 40
0
 40
1
 40
1
 40
1
 40
1
 10
500.800000
 20
596.800000
 30
0.0
 10
494.080000
 20
602.800000
 30
0.0
 10
486.560000
 20
609.680000
 30
0.0
 10
484.080000
 20
612.000000
 30
0.0
  0
LINE
  5
169
100
AcDbEntity
  8
0
 62
7
100
AcDbLine
 10
484.080000
 20
612.000000
 30
0.0
 11
479.600000
 21
616.320000
 31
0.0
  0
LINE
  5
16a
100
AcDbEntity
  8
0
 62
7
100
AcDbLine
 10
479.600000
 20
616.320000
 30
0.0
 11
479.280000
 21
594.720000
 31
0.0
  0
LINE
  5
16b
100
AcDbEntity
  8
0
 62
7
100
AcDbLine
 10
479.280000
 20
594.720000
 30
0.0
 11
479.040000
 21
573.120000
 31
0.0
  0
LINE
  5
16c
100
AcDbEntity
  8
0
 62
7
100
AcDbLine
 10
479.040000
 20
573.120000
 30
0.0
 11
433.120000
 21
573.280000
 31
0.0
  0
LINE
  5
16d
100
AcDbEntity
  8
0
 62
7
100
AcDbLine
 10
433.120000
 20
573.280000
 30
0.0
 11
387.200000
 21
573.440000
 31
0.0
  0
LINE
  5
16e
100
AcDbEntity
  8
0
 62
7
100
AcDbLine
 10
387.200000
 20
573.440000
 30
0.0
 11
384.960000
 21
579.840000
 31
0.0
  0
SPLINE
  5
16f
100
AcDbEntity
  8
0
 62
7
100
AcDbSpline
 70
8
 71
3
 72
8
 73
4
 74
0
 40
0
 40
0
 40
0
 40
0
 40
1
 40
1
 40
1
 40
1
 10
384.960000
 20
579.840000
 30
0.0
 10
380.720000
 20
592.080000
 30
0.0
 10
374.640000
 20
602.240000
 30
0.0
 10
366.800000
 20
610.160000
 30
0.0
  0
SPLINE
  5
170
100
AcDbEntity
  8
0
 62
7
100
AcDbSpline
 70
8
 71
3
 72
8
 73
4
 74
0
 40
0
 40
0
 40
0
 40
0
 40
1
 40
1
 40
1
 40
1
 10
366.800000
 20
610.160000
 30
0.0
 10
363.440000
 20
613.520000
 30
0.0
 10
354.960000
 20
619.920000
 30
0.0
 10
351.120000
 20
621.920000
 30
0.0
  0
SPLINE
  5
171
100
AcDbEntity
  8
0
 62
7
100
AcDbSpline
 70
8
 71
3
 72
8
 73
4
 74
0
 40
0
 40
0
 40
0
 40
0
 40
1
 40
1
 40
1
 40
1
 10
351.120000
 20
621.920000
 30
0.0
 10
349.920000
 20
622.560000
 30
0.0
 10
348.400000
 20
623.440000
 30
0.0
 10
347.760000
 20
623.840000
 30
0.0
  0
SPLINE
  5
172
100
AcDbEntity
  8
0
 62
7
100
AcDbSpline
 70
8
 71
3
 72
8
 73
4
 74
0
 40
0
 40
0
 40
0
 40
0
 40
1
 40
1
 40
1
 40
1
 10
347.760000
 20
623.840000
 30
0.0
 10
345.600000
 20
625.200000
 30
0.0
 10
337.920000
 20
628.400000
 30
0.0
 10
332.720000
 20
630.160000
 30
0.0
  0
SPLINE
  5
173
100
AcDbEntity
  8
0
 62
7
100
AcDbSpline
 70
8
 71
3
 72
8
 73
4
 74
0
 40
0
 40
0
 40
0
 40
0
 40
1
 40
1
 40
1
 40
1
 10
332.720000
 20
630.160000
 30
0.0
 10
309.040000
 20
637.840000
 30
0.0
 10
274.640000
 20
638.640000
 30
0.0
 10
245.840000
 20
632.080000
 30
0.0
  0
SPLINE
  5
174
100
AcDbEntity
  8
0
 62
7
100
AcDbSpline
 70
8
 71
3
 72
8
 73
4
 74
0
 40
0
 40
0
 40
0
 40
0
 40
1
 40
1
 40
1
 40
1
 10
245.840000
 20
632.080000
 30
0.0
 10
233.600000
 20
629.280000
 30
0.0
 10
225.600000
 20
626.080000
 30
0.0
 10
217.440000
 20
620.800000
 30
0.0
  0
SPLINE
  5
175
100
AcDbEntity
  8
0
 62
7
100
AcDbSpline
 70
8
 71
3
 72
8
 73
4
 74
0
 40
0
 40
0
 40
0
 40
0
 40
1
 40
1
 40
1
 40
1
 10
217.440000
 20
620.800000
 30
0.0
 10
205.920000
 20
613.360000
 30
0.0
 10
201.440000
 20
606.720000
 30
0.0
 10
201.280000
 20
597.040000
 30
0.0
  0
SPLINE
  5
176
100
AcDbEntity
  8
0
 62
7
100
AcDbSpline
 70
8
 71
3
 72
8
 73
4
 74
0
 40
0
 40
0
 40
0
 40
0
 40
1
 40
1
 40
1
 40
1
 10
201.280000
 20
597.040000
 30
0.0
 10
201.200000
 20
593.360000
 30
0.0
 10
201.680000
 20
591.920000
 30
0.0
 10
203.760000
 20
589.120000
 30
0.0
  0
SPLINE
  5
177
100
AcDbEntity
  8
0
 62
7
100
AcDbSpline
 70
8
 71
3
 72
8
 73
4
 74
0
 40
0
 40
0
 40
0
 40
0
 40
1
 40
1
 40
1
 40
1
 10
203.760000
 20
589.120000
 30
0.0
 10
207.040000
 20
584.800000
 30
0.0
 10
215.040000
 20
580.000000
 30
0.0
 10
222.960000
 20
577.600000
 30
0.0
  0
SPLINE
  5
178
100
AcDbEntity
  8
0
 62
7
100
AcDbSpline
 70
8
 71
3
 72
8
 73
4
 74
0
 40
0
 40
0
 40
0
 40
0
 40
1
 40
1
 40
1
 40
1
 10
222.960000
 20
577.600000
 30
0.0
 10
244.000000
 20
571.200000
 30
0.0
 10
264.480000
 20
569.360000
 30
0.0
 10
317.120000
 20
569.360000
 30
0.0
  0
SPLINE
  5
179
100
AcDbEntity
  8
0
 62
7
100
AcDbSpline
 70
8
 71
3
 72
8
 73
4
 74
0
 40
0
 40
0
 40
0
 40
0
 40
1
 40
1
 40
1
 40
1
 10
317.120000
 20
569.360000
 30
0.0
 10
364.480000
 20
569.360000
 30
0.0
 10
385.760000
 20
567.600000
 30
0.0
 10
406.800000
 20
562.080000
 30
0.0
  0
SPLINE
  5
17a
100
AcDbEntity
  8
0
 62
7
100
AcDbSpline
 70
8
 71
3
 72
8
 73
4
 74
0
 40
0
 40
0
 40
0
 40
0
 40
1
 40
1
 40
1
 40
1
 10
406.800000
 20
562.080000
 30
0.0
 10
431.920000
 20
555.360000
 30
0.0
 10
448.320000
 20
546.240000
 30
0.0
 10
461.600000
 20
531.520000
 30
0.0
  0
SPLINE
  5
17b
100
AcDbEntity
  8
0
 62
7
100
AcDbSpline
 70
8
 71
3
 72
8
 73
4
 74
0
 40
0
 40
0
 40
0
 40
0
 40
1
 40
1
 40
1
 40
1
 10
461.600000
 20
531.520000
 30
0.0
 10
463.840000
 20
529.040000
 30
0.0
 10
465.840000
 20
526.960000
 30
0.0
 10
466.000000
 20
526.960000
 30
0.0
  0
SPLINE
  5
17c
100
AcDbEntity
  8
0
 62
7
100
AcDbSpline
 70
8
 71
3
 72
8
 73
4
 74
0
 40
0
 40
0
 40
0
 40
0
 40
1
 40
1
 40
1
 40
1
 10
466.000000
 20
526.960000
 30
0.0
 10
466.160000
 20
526.960000
 30
0.0
 10
468.080000
 20
528.880000
 30
0.0
 10
470.160000
 20
531.200000
 30
0.0
  0
LINE
  5
17d
100
AcDbEntity
  8
0
 62
7
100
AcDbLine
 10
470.160000
 20
531.200000
 30
0.0
 11
470.160000
 21
531.200000
 31
0.0
  0
SPLINE
  5
17e
100
AcDbEntity
  8
0
 62
7
100
AcDbSpline
 70
8
 71
3
 72
8
 73
4
 74
0
 40
0
 40
0
 40
0
 40
0
 40
1
 40
1
 40
1
 40
1
 10
108.640000
 20
562.640000
 30
0.0
 10
110.640000
 20
584.240000
 30
0.0
 10
123.040000
 20
604.640000
 30
0.0
 10
144.000000
 20
620.800000
 30
0.0
  0
SPLINE
  5
17f
100
AcDbEntity
  8
0
 62
7
100
AcDbSpline
 70
8
 71
3
 72
8
 73
4
 74
0
 40
0
 40
0
 40
0
 40
0
 40
1
 40
1
 40
1
 40
1
 10
144.000000
 20
620.800000
 30
0.0
 10
149.760000
 20
625.200000
 30
0.0
 10
162.160000
 20
633.280000
 30
0.0
 10
165.440000
 20
634.640000
 30
0.0
  0
SPLINE
  5
180
100
AcDbEntity
  8
0
 62
7
100
AcDbSpline
 70
8
 71
3
 72
8
 73
4
 74
0
 40
0
 40
0
 40
0
 40
0
 40
1
 40
1
 40
1
 40
1
 10
165.440000
 20
634.640000
 30
0.0
 10
166.720000
 20
635.200000
 30
0.0
 10
167.520000
 20
635.840000
 30
0.0
 10
167.200000
 20
636.160000
 30
0.0
  0
SPLINE
  5
181
100
AcDbEntity
  8
0
 62
7
100
AcDbSpline
 70
8
 71
3
 72
8
 73
4
 74
0
 40
0
 40
0
 40
0
 40
0
 40
1
 40
1
 40
1
 40
1
 10
167.200000
 20
636.160000
 30
0.0
 10
166.880000
 20
636.480000
 30
0.0
 10
161.360000
 20
636.720000
 30
0.0
 10
154.880000
 20
636.720000
 30
0.0
  0
LINE
  5
182
100
AcDbEntity
  8
0
 62
7
100
AcDbLine
 10
154.880000
 20
636.720000
 30
0.0
 11
143.040000
 21
636.720000
 31
0.0
  0
LINE
  5
183
100
AcDbEntity
  8
0
 62
7
100
AcDbLine
 10
143.040000
 20
636.720000
 30
0.0
 11
135.440000
 21
629.520000
 31
0.0
  0
SPLINE
  5
184
100
AcDbEntity
  8
0
 62
7
100
AcDbSpline
 70
8
 71
3
 72
8
 73
4
 74
0
 40
0
 40
0
 40
0
 40
0
 40
1
 40
1
 40
1
 40
1
 10
135.440000
 20
629.520000
 30
0.0
 10
128.560000
 20
623.040000
 30
0.0
 10
119.600000
 20
614.640000
 30
0.0
 10
104.640000
 20
600.560000
 30
0.0
  0
SPLINE
  5
185
100
AcDbEntity
  8
0
 62
7
100
AcDbSpline
 70
8
 71
3
 72
8
 73
4
 74
0
 40
0
 40
0
 40
0
 40
0
 40
1
 40
1
 40
1
 40
1
 10
104.640000
 20
600.560000
 30
0.0
 10
90.000000
 20
586.800000
 30
0.0
 10
86.800000
 20
583.680000
 30
0.0
 10
86.800000
 20
583.040000
 30
0.0
  0
SPLINE
  5
186
100
AcDbEntity
  8
0
 62
7
100
AcDbSpline
 70
8
 71
3
 72
8
 73
4
 74
0
 40
0
 40
0
 40
0
 40
0
 40
1
 40
1
 40
1
 40
1
 10
86.800000
 20
583.040000
 30
0.0
 10
86.800000
 20
582.400000
 30
0.0
 10
90.640000
 20
577.680000
 30
0.0
 10
99.200000
 20
567.440000
 30
0.0
  0
SPLINE
  5
187
100
AcDbEntity
  8
0
 62
7
100
AcDbSpline
 70
8
 71
3
 72
8
 73
4
 74
0
 40
0
 40
0
 40
0
 40
0
 40
1
 40
1
 40
1
 40
1
 10
99.200000
 20
567.440000
 30
0.0
 10
101.120000
 20
565.200000
 30
0.0
 10
103.760000
 20
562.080000
 30
0.0
 10
105.040000
 20
560.480000
 30
0.0
  0
SPLINE
  5
188
100
AcDbEntity
  8
0
 62
7
100
AcDbSpline
 70
8
 71
3
 72
8
 73
4
 74
0
 40
0
 40
0
 40
0
 40
0
 40
1
 40
1
 40
1
 40
1
 10
105.040000
 20
560.480000
 30
0.0
 10
106.320000
 20
558.880000
 30
0.0
 10
107.600000
 20
557.680000
 30
0.0
 10
107.840000
 20
557.840000
 30
0.0
  0
SPLINE
  5
189
100
AcDbEntity
  8
0
 62
7
100
AcDbSpline
 70
8
 71
3
 72
8
 73
4
 74
0
 40
0
 40
0
 40
0
 40
0
 40
1
 40
1
 40
1
 40
1
 10
107.840000
 20
557.840000
 30
0.0
 10
108.000000
 20
557.920000
 30
0.0
 10
108.400000
 20
560.160000
 30
0.0
 10
108.640000
 20
562.640000
 30
0.0
  0
LINE
  5
18a
100
AcDbEntity
  8
0
 62
7
100
AcDbLine
 10
108.640000
 20
562.640000
 30
0.0
 11
108.640000
 21
562.640000
 31
0.0
  0
LINE
  5
18b
100
AcDbEntity
  8
0
 62
7
100
AcDbLine
 10
419.680000
 20
630.000000
 30
0.0
 11
420.320000
 21
636.720000
 31
0.0
  0
LINE
  5
18c
100
AcDbEntity
  8
0
 62
7
100
AcDbLine
 10
420.320000
 20
636.720000
 30
0.0
 11
410.160000
 21
636.720000
 31
0.0
  0
SPLINE
  5
18d
100
AcDbEntity
  8
0
 62
7
100
AcDbSpline
 70
8
 71
3
 72
8
 73
4
 74
0
 40
0
 40
0
 40
0
 40
0
 40
1
 40
1
 40
1
 40
1
 10
410.160000
 20
636.720000
 30
0.0
 10
404.160000
 20
636.720000
 30
0.0
 10
400.080000
 20
636.480000
 30
0.0
 10
400.080000
 20
636.080000
 30
0.0
  0
SPLINE
  5
18e
100
AcDbEntity
  8
0
 62
7
100
AcDbSpline
 70
8
 71
3
 72
8
 73
4
 74
0
 40
0
 40
0
 40
0
 40
0
 40
1
 40
1
 40
1
 40
1
 10
400.080000
 20
636.080000
 30
0.0
 10
400.080000
 20
635.760000
 30
0.0
 10
401.280000
 20
634.720000
 30
0.0
 10
402.720000
 20
633.760000
 30
0.0
  0
SPLINE
  5
18f
100
AcDbEntity
  8
0
 62
7
100
AcDbSpline
 70
8
 71
3
 72
8
 73
4
 74
0
 40
0
 40
0
 40
0
 40
0
 40
1
 40
1
 40
1
 40
1
 10
402.720000
 20
633.760000
 30
0.0
 10
406.000000
 20
631.680000
 30
0.0
 10
413.440000
 20
625.360000
 30
0.0
 10
416.000000
 20
622.480000
 30
0.0
  0
SPLINE
  5
190
100
AcDbEntity
  8
0
 62
7
100
AcDbSpline
 70
8
 71
3
 72
8
 73
4
 74
0
 40
0
 40
0
 40
0
 40
0
 40
1
 40
1
 40
1
 40
1
 10
416.000000
 20
622.480000
 30
0.0
 10
417.760000
 20
620.560000
 30
0.0
 10
417.840000
 20
620.480000
 30
0.0
 10
418.400000
 20
621.920000
 30
0.0
  0
SPLINE
  5
191
100
AcDbEntity
  8
0
 62
7
100
AcDbSpline
 70
8
 71
3
 72
8
 73
4
 74
0
 40
0
 40
0
 40
0
 40
0
 40
1
 40
1
 40
1
 40
1
 10
418.400000
 20
621.920000
 30
0.0
 10
418.720000
 20
622.640000
 30
0.0
 10
419.280000
 20
626.320000
 30
0.0
 10
419.680000
 20
630.000000
 30
0.0
  0
LINE
  5
192
100
AcDbEntity
  8
0
 62
7
100
AcDbLine
 10
419.680000
 20
630.000000
 30
0.0
 11
419.680000
 21
630.000000
 31
0.0
  0
SPLINE
  5
193
100
AcDbEntity
  8
0
 62
7
100
AcDbSpline
 70
8
 71
3
 72
8
 73
4
 74
0
 40
0
 40
0
 40
0
 40
0
 40
1
 40
1
 40
1
 40
1
 10
65.680000
 20
72.000000
 30
0.0
 10
68.960000
 20
70.960000
 30
0.0
 10
71.360000
 20
69.360000
 30
0.0
 10
72.960000
 20
67.200000
 30
0.0
  0
SPLINE
  5
194
100
AcDbEntity
  8
0
 62
7
100
AcDbSpline
 70
8
 71
3
 72
8
 73
4
 74
0
 40
0
 40
0
 40
0
 40
0
 40
1
 40
1
 40
1
 40
1
 10
72.960000
 20
67.200000
 30
0.0
 10
74.560000
 20
64.960000
 30
0.0
 10
75.360000
 20
62.400000
 30
0.0
 10
75.360000
 20
59.520000
 30
0.0
  0
SPLINE
  5
195
100
AcDbEntity
  8
0
 62
7
100
AcDbSpline
 70
8
 71
3
 72
8
 73
4
 74
0
 40
0
 40
0
 40
0
 40
0
 40
1
 40
1
 40
1
 40
1
 10
75.360000
 20
59.520000
 30
0.0
 10
75.360000
 20
56.640000
 30
0.0
 10
74.640000
 20
54.000000
 30
0.0
 10
73.200000
 20
51.600000
 30
0.0
  0
SPLINE
  5
196
100
AcDbEntity
  8
0
 62
7
100
AcDbSpline
 70
8
 71
3
 72
8
 73
4
 74
0
 40
0
 40
0
 40
0
 40
0
 40
1
 40
1
 40
1
 40
1
 10
73.200000
 20
51.600000
 30
0.0
 10
71.760000
 20
49.200000
 30
0.0
 10
69.680000
 20
47.440000
 30
0.0
 10
66.960000
 20
46.240000
 30
0.0
  0
SPLINE
  5
197
100
AcDbEntity
  8
0
 62
7
100
AcDbSpline
 70
8
 71
3
 72
8
 73
4
 74
0
 40
0
 40
0
 40
0
 40
0
 40
1
 40
1
 40
1
 40
1
 10
66.960000
 20
46.240000
 30
0.0
 10
64.320000
 20
45.120000
 30
0.0
 10
60.720000
 20
44.560000
 30
0.0
 10
56.160000
 20
44.560000
 30
0.0
  0
LINE
  5
198
100
AcDbEntity
  8
0
 62
7
100
AcDbLine
 10
56.160000
 20
44.560000
 30
0.0
 11
36.400000
 21
44.560000
 31
0.0
  0
LINE
  5
199
100
AcDbEntity
  8
0
 62
7
100
AcDbLine
 10
36.400000
 20
44.560000
 30
0.0
 11
36.400000
 21
96.080000
 31
0.0
  0
LINE
  5
19a
100
AcDbEntity
  8
0
 62
7
100
AcDbLine
 10
36.400000
 20
96.080000
 30
0.0
 11
55.760000
 21
96.080000
 31
0.0
  0
SPLINE
  5
19b
100
AcDbEntity
  8
0
 62
7
100
AcDbSpline
 70
8
 71
3
 72
8
 73
4
 74
0
 40
0
 40
0
 40
0
 40
0
 40
1
 40
1
 40
1
 40
1
 10
55.760000
 20
96.080000
 30
0.0
 10
62.000000
 20
96.080000
 30
0.0
 10
66.400000
 20
94.720000
 30
0.0
 10
68.960000
 20
92.000000
 30
0.0
  0
SPLINE
  5
19c
100
AcDbEntity
  8
0
 62
7
100
AcDbSpline
 70
8
 71
3
 72
8
 73
4
 74
0
 40
0
 40
0
 40
0
 40
0
 40
1
 40
1
 40
1
 40
1
 10
68.960000
 20
92.000000
 30
0.0
 10
71.520000
 20
89.280000
 30
0.0
 10
72.800000
 20
86.240000
 30
0.0
 10
72.800000
 20
82.960000
 30
0.0
  0
SPLINE
  5
19d
100
AcDbEntity
  8
0
 62
7
100
AcDbSpline
 70
8
 71
3
 72
8
 73
4
 74
0
 40
0
 40
0
 40
0
 40
0
 40
1
 40
1
 40
1
 40
1
 10
72.800000
 20
82.960000
 30
0.0
 10
72.800000
 20
80.720000
 30
0.0
 10
72.240000
 20
78.640000
 30
0.0
 10
71.040000
 20
76.720000
 30
0.0
  0
SPLINE
  5
19e
100
AcDbEntity
  8
0
 62
7
100
AcDbSpline
 70
8
 71
3
 72
8
 73
4
 74
0
 40
0
 40
0
 40
0
 40
0
 40
1
 40
1
 40
1
 40
1
 10
71.040000
 20
76.720000
 30
0.0
 10
69.840000
 20
74.800000
 30
0.0
 10
68.080000
 20
73.200000
 30
0.0
 10
65.680000
 20
72.000000
 30
0.0
  0
LINE
  5
19f
100
AcDbEntity
  8
0
 62
7
100
AcDbLine
 10
65.680000
 20
72.000000
 30
0.0
 11
65.680000
 21
72.000000
 31
0.0
  0
LINE
  5
1a0
100
AcDbEntity
  8
0
 62
7
100
AcDbLine
 10
43.200000
 20
74.480000
 30
0.0
 11
54.400000
 21
74.480000
 31
0.0
  0
SPLINE
  5
1a1
100
AcDbEntity
  8
0
 62
7
100
AcDbSpline
 70
8
 71
3
 72
8
 73
4
 74
0
 40
0
 40
0
 40
0
 40
0
 40
1
 40
1
 40
1
 40
1
 10
54.400000
 20
74.480000
 30
0.0
 10
56.720000
 20
74.480000
 30
0.0
 10
58.640000
 20
74.640000
 30
0.0
 10
60.160000
 20
74.880000
 30
0.0
  0
SPLINE
  5
1a2
100
AcDbEntity
  8
0
 62
7
100
AcDbSpline
 70
8
 71
3
 72
8
 73
4
 74
0
 40
0
 40
0
 40
0
 40
0
 40
1
 40
1
 40
1
 40
1
 10
60.160000
 20
74.880000
 30
0.0
 10
61.760000
 20
75.120000
 30
0.0
 10
63.120000
 20
75.840000
 30
0.0
 10
64.320000
 20
76.960000
 30
0.0
  0
SPLINE
  5
1a3
100
AcDbEntity
  8
0
 62
7
100
AcDbSpline
 70
8
 71
3
 72
8
 73
4
 74
0
 40
0
 40
0
 40
0
 40
0
 40
1
 40
1
 40
1
 40
1
 10
64.320000
 20
76.960000
 30
0.0
 10
65.520000
 20
78.000000
 30
0.0
 10
66.080000
 20
79.760000
 30
0.0
 10
66.080000
 20
82.080000
 30
0.0
  0
SPLINE
  5
1a4
100
AcDbEntity
  8
0
 62
7
100
AcDbSpline
 70
8
 71
3
 72
8
 73
4
 74
0
 40
0
 40
0
 40
0
 40
0
 40
1
 40
1
 40
1
 40
1
 10
66.080000
 20
82.080000
 30
0.0
 10
66.080000
 20
84.480000
 30
0.0
 10
65.520000
 20
86.320000
 30
0.0
 10
64.320000
 20
87.440000
 30
0.0
  0
SPLINE
  5
1a5
100
AcDbEntity
  8
0
 62
7
100
AcDbSpline
 70
8
 71
3
 72
8
 73
4
 74
0
 40
0
 40
0
 40
0
 40
0
 40
1
 40
1
 40
1
 40
1
 10
64.320000
 20
87.440000
 30
0.0
 10
63.120000
 20
88.640000
 30
0.0
 10
61.680000
 20
89.360000
 30
0.0
 10
60.000000
 20
89.600000
 30
0.0
  0
SPLINE
  5
1a6
100
AcDbEntity
  8
0
 62
7
100
AcDbSpline
 70
8
 71
3
 72
8
 73
4
 74
0
 40
0
 40
0
 40
0
 40
0
 40
1
 40
1
 40
1
 40
1
 10
60.000000
 20
89.600000
 30
0.0
 10
58.320000
 20
89.840000
 30
0.0
 10
56.160000
 20
90.000000
 30
0.0
 10
53.520000
 20
90.000000
 30
0.0
  0
LINE
  5
1a7
100
AcDbEntity
  8
0
 62
7
100
AcDbLine
 10
53.520000
 20
90.000000
 30
0.0
 11
43.200000
 21
90.000000
 31
0.0
  0
LINE
  5
1a8
100
AcDbEntity
  8
0
 62
7
100
AcDbLine
 10
43.200000
 20
90.000000
 30
0.0
 11
43.200000
 21
74.480000
 31
0.0
  0
LINE
  5
1a9
100
AcDbEntity
  8
0
 62
7
100
AcDbLine
 10
43.200000
 20
74.480000
 30
0.0
 11
43.200000
 21
74.480000
 31
0.0
  0
LINE
  5
1aa
100
AcDbEntity
  8
0
 62
7
100
AcDbLine
 10
43.200000
 20
50.640000
 30
0.0
 11
56.080000
 21
50.640000
 31
0.0
  0
SPLINE
  5
1ab
100
AcDbEntity
  8
0
 62
7
100
AcDbSpline
 70
8
 71
3
 72
8
 73
4
 74
0
 40
0
 40
0
 40
0
 40
0
 40
1
 40
1
 40
1
 40
1
 10
56.080000
 20
50.640000
 30
0.0
 10
60.640000
 20
50.640000
 30
0.0
 10
63.840000
 20
51.440000
 30
0.0
 10
65.600000
 20
53.040000
 30
0.0
  0
SPLINE
  5
1ac
100
AcDbEntity
  8
0
 62
7
100
AcDbSpline
 70
8
 71
3
 72
8
 73
4
 74
0
 40
0
 40
0
 40
0
 40
0
 40
1
 40
1
 40
1
 40
1
 10
65.600000
 20
53.040000
 30
0.0
 10
67.360000
 20
54.640000
 30
0.0
 10
68.320000
 20
56.800000
 30
0.0
 10
68.320000
 20
59.520000
 30
0.0
  0
SPLINE
  5
1ad
100
AcDbEntity
  8
0
 62
7
100
AcDbSpline
 70
8
 71
3
 72
8
 73
4
 74
0
 40
0
 40
0
 40
0
 40
0
 40
1
 40
1
 40
1
 40
1
 10
68.320000
 20
59.520000
 30
0.0
 10
68.320000
 20
62.320000
 30
0.0
 10
67.360000
 20
64.480000
 30
0.0
 10
65.440000
 20
66.080000
 30
0.0
  0
SPLINE
  5
1ae
100
AcDbEntity
  8
0
 62
7
100
AcDbSpline
 70
8
 71
3
 72
8
 73
4
 74
0
 40
0
 40
0
 40
0
 40
0
 40
1
 40
1
 40
1
 40
1
 10
65.440000
 20
66.080000
 30
0.0
 10
63.520000
 20
67.600000
 30
0.0
 10
60.160000
 20
68.400000
 30
0.0
 10
55.200000
 20
68.400000
 30
0.0
  0
LINE
  5
1af
100
AcDbEntity
  8
0
 62
7
100
AcDbLine
 10
55.200000
 20
68.400000
 30
0.0
 11
43.200000
 21
68.400000
 31
0.0
  0
LINE
  5
1b0
100
AcDbEntity
  8
0
 62
7
100
AcDbLine
 10
43.200000
 20
68.400000
 30
0.0
 11
43.200000
 21
50.640000
 31
0.0
  0
LINE
  5
1b1
100
AcDbEntity
  8
0
 62
7
100
AcDbLine
 10
43.200000
 20
50.640000
 30
0.0
 11
43.200000
 21
50.640000
 31
0.0
  0
LINE
  5
1b2
100
AcDbEntity
  8
0
 62
7
100
AcDbLine
 10
90.240000
 20
44.560000
 30
0.0
 11
83.920000
 21
44.560000
 31
0.0
  0
LINE
  5
1b3
100
AcDbEntity
  8
0
 62
7
100
AcDbLine
 10
83.920000
 20
44.560000
 30
0.0
 11
83.920000
 21
81.840000
 31
0.0
  0
LINE
  5
1b4
100
AcDbEntity
  8
0
 62
7
100
AcDbLine
 10
83.920000
 20
81.840000
 30
0.0
 11
90.240000
 21
81.840000
 31
0.0
  0
LINE
  5
1b5
100
AcDbEntity
  8
0
 62
7
100
AcDbLine
 10
90.240000
 20
81.840000
 30
0.0
 11
90.240000
 21
44.560000
 31
0.0
  0
LINE
  5
1b6
100
AcDbEntity
  8
0
 62
7
100
AcDbLine
 10
90.240000
 20
44.560000
 30
0.0
 11
90.240000
 21
44.560000
 31
0.0
  0
LINE
  5
1b7
100
AcDbEntity
  8
0
 62
7
100
AcDbLine
 10
90.240000
 20
88.960000
 30
0.0
 11
83.920000
 21
88.960000
 31
0.0
  0
LINE
  5
1b8
100
AcDbEntity
  8
0
 62
7
100
AcDbLine
 10
83.920000
 20
88.960000
 30
0.0
 11
83.920000
 21
96.080000
 31
0.0
  0
LINE
  5
1b9
100
AcDbEntity
  8
0
 62
7
100
AcDbLine
 10
83.920000
 20
96.080000
 30
0.0
 11
90.240000
 21
96.080000
 31
0.0
  0
LINE
  5
1ba
100
AcDbEntity
  8
0
 62
7
100
AcDbLine
 10
90.240000
 20
96.080000
 30
0.0
 11
90.240000
 21
88.960000
 31
0.0
  0
LINE
  5
1bb
100
AcDbEntity
  8
0
 62
7
100
AcDbLine
 10
90.240000
 20
88.960000
 30
0.0
 11
90.240000
 21
88.960000
 31
0.0
  0
SPLINE
  5
1bc
100
AcDbEntity
  8
0
 62
7
100
AcDbSpline
 70
8
 71
3
 72
8
 73
4
 74
0
 40
0
 40
0
 40
0
 40
0
 40
1
 40
1
 40
1
 40
1
 10
120.720000
 20
71.440000
 30
0.0
 10
120.400000
 20
73.440000
 30
0.0
 10
119.600000
 20
74.960000
 30
0.0
 10
118.240000
 20
76.000000
 30
0.0
  0
SPLINE
  5
1bd
100
AcDbEntity
  8
0
 62
7
100
AcDbSpline
 70
8
 71
3
 72
8
 73
4
 74
0
 40
0
 40
0
 40
0
 40
0
 40
1
 40
1
 40
1
 40
1
 10
118.240000
 20
76.000000
 30
0.0
 10
116.880000
 20
77.040000
 30
0.0
 10
114.960000
 20
77.520000
 30
0.0
 10
112.480000
 20
77.520000
 30
0.0
  0
SPLINE
  5
1be
100
AcDbEntity
  8
0
 62
7
100
AcDbSpline
 70
8
 71
3
 72
8
 73
4
 74
0
 40
0
 40
0
 40
0
 40
0
 40
1
 40
1
 40
1
 40
1
 10
112.480000
 20
77.520000
 30
0.0
 10
110.080000
 20
77.520000
 30
0.0
 10
108.160000
 20
77.120000
 30
0.0
 10
106.640000
 20
76.320000
 30
0.0
  0
SPLINE
  5
1bf
100
AcDbEntity
  8
0
 62
7
100
AcDbSpline
 70
8
 71
3
 72
8
 73
4
 74
0
 40
0
 40
0
 40
0
 40
0
 40
1
 40
1
 40
1
 40
1
 10
106.640000
 20
76.320000
 30
0.0
 10
105.200000
 20
75.520000
 30
0.0
 10
104.400000
 20
74.320000
 30
0.0
 10
104.400000
 20
72.720000
 30
0.0
  0
SPLINE
  5
1c0
100
AcDbEntity
  8
0
 62
7
100
AcDbSpline
 70
8
 71
3
 72
8
 73
4
 74
0
 40
0
 40
0
 40
0
 40
0
 40
1
 40
1
 40
1
 40
1
 10
104.400000
 20
72.720000
 30
0.0
 10
104.400000
 20
71.280000
 30
0.0
 10
105.040000
 20
70.160000
 30
0.0
 10
106.240000
 20
69.520000
 30
0.0
  0
SPLINE
  5
1c1
100
AcDbEntity
  8
0
 62
7
100
AcDbSpline
 70
8
 71
3
 72
8
 73
4
 74
0
 40
0
 40
0
 40
0
 40
0
 40
1
 40
1
 40
1
 40
1
 10
106.240000
 20
69.520000
 30
0.0
 10
107.360000
 20
68.960000
 30
0.0
 10
109.760000
 20
68.160000
 30
0.0
 10
113.200000
 20
67.200000
 30
0.0
  0
SPLINE
  5
1c2
100
AcDbEntity
  8
0
 62
7
100
AcDbSpline
 70
8
 71
3
 72
8
 73
4
 74
0
 40
0
 40
0
 40
0
 40
0
 40
1
 40
1
 40
1
 40
1
 10
113.200000
 20
67.200000
 30
0.0
 10
117.120000
 20
66.240000
 30
0.0
 10
120.080000
 20
65.360000
 30
0.0
 10
122.080000
 20
64.560000
 30
0.0
  0
SPLINE
  5
1c3
100
AcDbEntity
  8
0
 62
7
100
AcDbSpline
 70
8
 71
3
 72
8
 73
4
 74
0
 40
0
 40
0
 40
0
 40
0
 40
1
 40
1
 40
1
 40
1
 10
122.080000
 20
64.560000
 30
0.0
 10
124.000000
 20
63.760000
 30
0.0
 10
125.520000
 20
62.720000
 30
0.0
 10
126.640000
 20
61.280000
 30
0.0
  0
SPLINE
  5
1c4
100
AcDbEntity
  8
0
 62
7
100
AcDbSpline
 70
8
 71
3
 72
8
 73
4
 74
0
 40
0
 40
0
 40
0
 40
0
 40
1
 40
1
 40
1
 40
1
 10
126.640000
 20
61.280000
 30
0.0
 10
127.680000
 20
59.920000
 30
0.0
 10
128.240000
 20
58.000000
 30
0.0
 10
128.240000
 20
55.520000
 30
0.0
  0
SPLINE
  5
1c5
100
AcDbEntity
  8
0
 62
7
100
AcDbSpline
 70
8
 71
3
 72
8
 73
4
 74
0
 40
0
 40
0
 40
0
 40
0
 40
1
 40
1
 40
1
 40
1
 10
128.240000
 20
55.520000
 30
0.0
 10
128.240000
 20
52.160000
 30
0.0
 10
126.880000
 20
49.360000
 30
0.0
 10
124.160000
 20
47.120000
 30
0.0
  0
SPLINE
  5
1c6
100
AcDbEntity
  8
0
 62
7
100
AcDbSpline
 70
8
 71
3
 72
8
 73
4
 74
0
 40
0
 40
0
 40
0
 40
0
 40
1
 40
1
 40
1
 40
1
 10
124.160000
 20
47.120000
 30
0.0
 10
121.440000
 20
44.800000
 30
0.0
 10
117.840000
 20
43.680000
 30
0.0
 10
113.280000
 20
43.680000
 30
0.0
  0
SPLINE
  5
1c7
100
AcDbEntity
  8
0
 62
7
100
AcDbSpline
 70
8
 71
3
 72
8
 73
4
 74
0
 40
0
 40
0
 40
0
 40
0
 40
1
 40
1
 40
1
 40
1
 10
113.280000
 20
43.680000
 30
0.0
 10
108.560000
 20
43.680000
 30
0.0
 10
104.880000
 20
44.720000
 30
0.0
 10
102.160000
 20
46.720000
 30
0.0
  0
SPLINE
  5
1c8
100
AcDbEntity
  8
0
 62
7
100
AcDbSpline
 70
8
 71
3
 72
8
 73
4
 74
0
 40
0
 40
0
 40
0
 40
0
 40
1
 40
1
 40
1
 40
1
 10
102.160000
 20
46.720000
 30
0.0
 10
99.520000
 20
48.720000
 30
0.0
 10
97.920000
 20
51.680000
 30
0.0
 10
97.280000
 20
55.680000
 30
0.0
  0
LINE
  5
1c9
100
AcDbEntity
  8
0
 62
7
100
AcDbLine
 10
97.280000
 20
55.680000
 30
0.0
 11
103.600000
 21
56.640000
 31
0.0
  0
SPLINE
  5
1ca
100
AcDbEntity
  8
0
 62
7
100
AcDbSpline
 70
8
 71
3
 72
8
 73
4
 74
0
 40
0
 40
0
 40
0
 40
0
 40
1
 40
1
 40
1
 40
1
 10
103.600000
 20
56.640000
 30
0.0
 10
103.920000
 20
54.080000
 30
0.0
 10
104.880000
 20
52.080000
 30
0.0
 10
106.480000
 20
50.800000
 30
0.0
  0
SPLINE
  5
1cb
100
AcDbEntity
  8
0
 62
7
100
AcDbSpline
 70
8
 71
3
 72
8
 73
4
 74
0
 40
0
 40
0
 40
0
 40
0
 40
1
 40
1
 40
1
 40
1
 10
106.480000
 20
50.800000
 30
0.0
 10
108.080000
 20
49.520000
 30
0.0
 10
110.320000
 20
48.880000
 30
0.0
 10
113.200000
 20
48.880000
 30
0.0
  0
SPLINE
  5
1cc
100
AcDbEntity
  8
0
 62
7
100
AcDbSpline
 70
8
 71
3
 72
8
 73
4
 74
0
 40
0
 40
0
 40
0
 40
0
 40
1
 40
1
 40
1
 40
1
 10
113.200000
 20
48.880000
 30
0.0
 10
116.000000
 20
48.880000
 30
0.0
 10
118.080000
 20
49.440000
 30
0.0
 10
119.600000
 20
50.640000
 30
0.0
  0
SPLINE
  5
1cd
100
AcDbEntity
  8
0
 62
7
100
AcDbSpline
 70
8
 71
3
 72
8
 73
4
 74
0
 40
0
 40
0
 40
0
 40
0
 40
1
 40
1
 40
1
 40
1
 10
119.600000
 20
50.640000
 30
0.0
 10
121.040000
 20
51.760000
 30
0.0
 10
121.760000
 20
53.200000
 30
0.0
 10
121.760000
 20
54.880000
 30
0.0
  0
SPLINE
  5
1ce
100
AcDbEntity
  8
0
 62
7
100
AcDbSpline
 70
8
 71
3
 72
8
 73
4
 74
0
 40
0
 40
0
 40
0
 40
0
 40
1
 40
1
 40
1
 40
1
 10
121.760000
 20
54.880000
 30
0.0
 10
121.760000
 20
56.000000
 30
0.0
 10
121.440000
 20
56.880000
 30
0.0
 10
120.800000
 20
57.600000
 30
0.0
  0
SPLINE
  5
1cf
100
AcDbEntity
  8
0
 62
7
100
AcDbSpline
 70
8
 71
3
 72
8
 73
4
 74
0
 40
0
 40
0
 40
0
 40
0
 40
1
 40
1
 40
1
 40
1
 10
120.800000
 20
57.600000
 30
0.0
 10
120.080000
 20
58.240000
 30
0.0
 10
119.280000
 20
58.720000
 30
0.0
 10
118.240000
 20
59.120000
 30
0.0
  0
SPLINE
  5
1d0
100
AcDbEntity
  8
0
 62
7
100
AcDbSpline
 70
8
 71
3
 72
8
 73
4
 74
0
 40
0
 40
0
 40
0
 40
0
 40
1
 40
1
 40
1
 40
1
 10
118.240000
 20
59.120000
 30
0.0
 10
117.200000
 20
59.440000
 30
0.0
 10
114.880000
 20
60.000000
 30
0.0
 10
111.360000
 20
60.880000
 30
0.0
  0
SPLINE
  5
1d1
100
AcDbEntity
  8
0
 62
7
100
AcDbSpline
 70
8
 71
3
 72
8
 73
4
 74
0
 40
0
 40
0
 40
0
 40
0
 40
1
 40
1
 40
1
 40
1
 10
111.360000
 20
60.880000
 30
0.0
 10
106.080000
 20
62.160000
 30
0.0
 10
102.560000
 20
63.680000
 30
0.0
 10
100.880000
 20
65.520000
 30
0.0
  0
SPLINE
  5
1d2
100
AcDbEntity
  8
0
 62
7
100
AcDbSpline
 70
8
 71
3
 72
8
 73
4
 74
0
 40
0
 40
0
 40
0
 40
0
 40
1
 40
1
 40
1
 40
1
 10
100.880000
 20
65.520000
 30
0.0
 10
99.200000
 20
67.280000
 30
0.0
 10
98.320000
 20
69.440000
 30
0.0
 10
98.320000
 20
72.000000
 30
0.0
  0
SPLINE
  5
1d3
100
AcDbEntity
  8
0
 62
7
100
AcDbSpline
 70
8
 71
3
 72
8
 73
4
 74
0
 40
0
 40
0
 40
0
 40
0
 40
1
 40
1
 40
1
 40
1
 10
98.320000
 20
72.000000
 30
0.0
 10
98.320000
 20
75.120000
 30
0.0
 10
99.520000
 20
77.680000
 30
0.0
 10
102.000000
 20
79.680000
 30
0.0
  0
SPLINE
  5
1d4
100
AcDbEntity
  8
0
 62
7
100
AcDbSpline
 70
8
 71
3
 72
8
 73
4
 74
0
 40
0
 40
0
 40
0
 40
0
 40
1
 40
1
 40
1
 40
1
 10
102.000000
 20
79.680000
 30
0.0
 10
104.560000
 20
81.680000
 30
0.0
 10
107.840000
 20
82.720000
 30
0.0
 10
112.080000
 20
82.720000
 30
0.0
  0
SPLINE
  5
1d5
100
AcDbEntity
  8
0
 62
7
100
AcDbSpline
 70
8
 71
3
 72
8
 73
4
 74
0
 40
0
 40
0
 40
0
 40
0
 40
1
 40
1
 40
1
 40
1
 10
112.080000
 20
82.720000
 30
0.0
 10
116.480000
 20
82.720000
 30
0.0
 10
120.000000
 20
81.840000
 30
0.0
 10
122.480000
 20
80.080000
 30
0.0
  0
SPLINE
  5
1d6
100
AcDbEntity
  8
0
 62
7
100
AcDbSpline
 70
8
 71
3
 72
8
 73
4
 74
0
 40
0
 40
0
 40
0
 40
0
 40
1
 40
1
 40
1
 40
1
 10
122.480000
 20
80.080000
 30
0.0
 10
124.880000
 20
78.320000
 30
0.0
 10
126.400000
 20
75.760000
 30
0.0
 10
126.880000
 20
72.240000
 30
0.0
  0
LINE
  5
1d7
100
AcDbEntity
  8
0
 62
7
100
AcDbLine
 10
126.880000
 20
72.240000
 30
0.0
 11
120.720000
 21
71.440000
 31
0.0
  0
LINE
  5
1d8
100
AcDbEntity
  8
0
 62
7
100
AcDbLine
 10
120.720000
 20
71.440000
 30
0.0
 11
120.720000
 21
71.440000
 31
0.0
  0
SPLINE
  5
1d9
100
AcDbEntity
  8
0
 62
7
100
AcDbSpline
 70
8
 71
3
 72
8
 73
4
 74
0
 40
0
 40
0
 40
0
 40
0
 40
1
 40
1
 40
1
 40
1
 10
150.480000
 20
44.640000
 30
0.0
 10
148.560000
 20
44.240000
 30
0.0
 10
146.960000
 20
44.080000
 30
0.0
 10
145.680000
 20
44.080000
 30
0.0
  0
SPLINE
  5
1da
100
AcDbEntity
  8
0
 62
7
100
AcDbSpline
 70
8
 71
3
 72
8
 73
4
 74
0
 40
0
 40
0
 40
0
 40
0
 40
1
 40
1
 40
1
 40
1
 10
145.680000
 20
44.080000
 30
0.0
 10
142.960000
 20
44.080000
 30
0.0
 10
140.960000
 20
44.560000
 30
0.0
 10
139.680000
 20
45.520000
 30
0.0
  0
SPLINE
  5
1db
100
AcDbEntity
  8
0
 62
7
100
AcDbSpline
 70
8
 71
3
 72
8
 73
4
 74
0
 40
0
 40
0
 40
0
 40
0
 40
1
 40
1
 40
1
 40
1
 10
139.680000
 20
45.520000
 30
0.0
 10
138.400000
 20
46.480000
 30
0.0
 10
137.600000
 20
47.760000
 30
0.0
 10
137.360000
 20
49.200000
 30
0.0
  0
SPLINE
  5
1dc
100
AcDbEntity
  8
0
 62
7
100
AcDbSpline
 70
8
 71
3
 72
8
 73
4
 74
0
 40
0
 40
0
 40
0
 40
0
 40
1
 40
1
 40
1
 40
1
 10
137.360000
 20
49.200000
 30
0.0
 10
137.040000
 20
50.720000
 30
0.0
 10
136.880000
 20
52.800000
 30
0.0
 10
136.880000
 20
55.520000
 30
0.0
  0
LINE
  5
1dd
100
AcDbEntity
  8
0
 62
7
100
AcDbLine
 10
136.880000
 20
55.520000
 30
0.0
 11
136.880000
 21
76.960000
 31
0.0
  0
LINE
  5
1de
100
AcDbEntity
  8
0
 62
7
100
AcDbLine
 10
136.880000
 20
76.960000
 30
0.0
 11
132.320000
 21
76.960000
 31
0.0
  0
LINE
  5
1df
100
AcDbEntity
  8
0
 62
7
100
AcDbLine
 10
132.320000
 20
76.960000
 30
0.0
 11
132.320000
 21
81.840000
 31
0.0
  0
LINE
  5
1e0
100
AcDbEntity
  8
0
 62
7
100
AcDbLine
 10
132.320000
 20
81.840000
 30
0.0
 11
136.880000
 21
81.840000
 31
0.0
  0
LINE
  5
1e1
100
AcDbEntity
  8
0
 62
7
100
AcDbLine
 10
136.880000
 20
81.840000
 30
0.0
 11
136.880000
 21
91.120000
 31
0.0
  0
LINE
  5
1e2
100
AcDbEntity
  8
0
 62
7
100
AcDbLine
 10
136.880000
 20
91.120000
 30
0.0
 11
143.280000
 21
94.960000
 31
0.0
  0
LINE
  5
1e3
100
AcDbEntity
  8
0
 62
7
100
AcDbLine
 10
143.280000
 20
94.960000
 30
0.0
 11
143.280000
 21
81.840000
 31
0.0
  0
LINE
  5
1e4
100
AcDbEntity
  8
0
 62
7
100
AcDbLine
 10
143.280000
 20
81.840000
 30
0.0
 11
149.600000
 21
81.840000
 31
0.0
  0
LINE
  5
1e5
100
AcDbEntity
  8
0
 62
7
100
AcDbLine
 10
149.600000
 20
81.840000
 30
0.0
 11
149.600000
 21
76.960000
 31
0.0
  0
LINE
  5
1e6
100
AcDbEntity
  8
0
 62
7
100
AcDbLine
 10
149.600000
 20
76.960000
 30
0.0
 11
143.280000
 21
76.960000
 31
0.0
  0
LINE
  5
1e7
100
AcDbEntity
  8
0
 62
7
100
AcDbLine
 10
143.280000
 20
76.960000
 30
0.0
 11
143.280000
 21
55.120000
 31
0.0
  0
SPLINE
  5
1e8
100
AcDbEntity
  8
0
 62
7
100
AcDbSpline
 70
8
 71
3
 72
8
 73
4
 74
0
 40
0
 40
0
 40
0
 40
0
 40
1
 40
1
 40
1
 40
1
 10
143.280000
 20
55.120000
 30
0.0
 10
143.280000
 20
53.280000
 30
0.0
 10
143.440000
 20
51.920000
 30
0.0
 10
143.840000
 20
51.120000
 30
0.0
  0
SPLINE
  5
1e9
100
AcDbEntity
  8
0
 62
7
100
AcDbSpline
 70
8
 71
3
 72
8
 73
4
 74
0
 40
0
 40
0
 40
0
 40
0
 40
1
 40
1
 40
1
 40
1
 10
143.840000
 20
51.120000
 30
0.0
 10
144.240000
 20
50.400000
 30
0.0
 10
145.200000
 20
50.000000
 30
0.0
 10
146.720000
 20
50.000000
 30
0.0
  0
SPLINE
  5
1ea
100
AcDbEntity
  8
0
 62
7
100
AcDbSpline
 70
8
 71
3
 72
8
 73
4
 74
0
 40
0
 40
0
 40
0
 40
0
 40
1
 40
1
 40
1
 40
1
 10
146.720000
 20
50.000000
 30
0.0
 10
147.680000
 20
50.000000
 30
0.0
 10
148.640000
 20
50.080000
 30
0.0
 10
149.600000
 20
50.240000
 30
0.0
  0
LINE
  5
1eb
100
AcDbEntity
  8
0
 62
7
100
AcDbLine
 10
149.600000
 20
50.240000
 30
0.0
 11
150.480000
 21
44.640000
 31
0.0
  0
LINE
  5
1ec
100
AcDbEntity
  8
0
 62
7
100
AcDbLine
 10
150.480000
 20
44.640000
 30
0.0
 11
150.480000
 21
44.640000
 31
0.0
  0
SPLINE
  5
1ed
100
AcDbEntity
  8
0
 62
7
100
AcDbSpline
 70
8
 71
3
 72
8
 73
4
 74
0
 40
0
 40
0
 40
0
 40
0
 40
1
 40
1
 40
1
 40
1
 10
171.120000
 20
82.720000
 30
0.0
 10
176.160000
 20
82.720000
 30
0.0
 10
180.320000
 20
81.040000
 30
0.0
 10
183.600000
 20
77.760000
 30
0.0
  0
SPLINE
  5
1ee
100
AcDbEntity
  8
0
 62
7
100
AcDbSpline
 70
8
 71
3
 72
8
 73
4
 74
0
 40
0
 40
0
 40
0
 40
0
 40
1
 40
1
 40
1
 40
1
 10
183.600000
 20
77.760000
 30
0.0
 10
186.960000
 20
74.480000
 30
0.0
 10
188.560000
 20
69.840000
 30
0.0
 10
188.560000
 20
63.760000
 30
0.0
  0
SPLINE
  5
1ef
100
AcDbEntity
  8
0
 62
7
100
AcDbSpline
 70
8
 71
3
 72
8
 73
4
 74
0
 40
0
 40
0
 40
0
 40
0
 40
1
 40
1
 40
1
 40
1
 10
188.560000
 20
63.760000
 30
0.0
 10
188.560000
 20
56.480000
 30
0.0
 10
186.800000
 20
51.280000
 30
0.0
 10
183.200000
 20
48.240000
 30
0.0
  0
SPLINE
  5
1f0
100
AcDbEntity
  8
0
 62
7
100
AcDbSpline
 70
8
 71
3
 72
8
 73
4
 74
0
 40
0
 40
0
 40
0
 40
0
 40
1
 40
1
 40
1
 40
1
 10
183.200000
 20
48.240000
 30
0.0
 10
179.600000
 20
45.200000
 30
0.0
 10
175.600000
 20
43.680000
 30
0.0
 10
171.120000
 20
43.680000
 30
0.0
  0
SPLINE
  5
1f1
100
AcDbEntity
  8
0
 62
7
100
AcDbSpline
 70
8
 71
3
 72
8
 73
4
 74
0
 40
0
 40
0
 40
0
 40
0
 40
1
 40
1
 40
1
 40
1
 10
171.120000
 20
43.680000
 30
0.0
 10
166.400000
 20
43.680000
 30
0.0
 10
162.320000
 20
45.200000
 30
0.0
 10
158.800000
 20
48.320000
 30
0.0
  0
SPLINE
  5
1f2
100
AcDbEntity
  8
0
 62
7
100
AcDbSpline
 70
8
 71
3
 72
8
 73
4
 74
0
 40
0
 40
0
 40
0
 40
0
 40
1
 40
1
 40
1
 40
1
 10
158.800000
 20
48.320000
 30
0.0
 10
155.360000
 20
51.440000
 30
0.0
 10
153.600000
 20
56.400000
 30
0.0
 10
153.600000
 20
63.200000
 30
0.0
  0
SPLINE
  5
1f3
100
AcDbEntity
  8
0
 62
7
100
AcDbSpline
 70
8
 71
3
 72
8
 73
4
 74
0
 40
0
 40
0
 40
0
 40
0
 40
1
 40
1
 40
1
 40
1
 10
153.600000
 20
63.200000
 30
0.0
 10
153.600000
 20
69.760000
 30
0.0
 10
155.280000
 20
74.640000
 30
0.0
 10
158.640000
 20
77.840000
 30
0.0
  0
SPLINE
  5
1f4
100
AcDbEntity
  8
0
 62
7
100
AcDbSpline
 70
8
 71
3
 72
8
 73
4
 74
0
 40
0
 40
0
 40
0
 40
0
 40
1
 40
1
 40
1
 40
1
 10
158.640000
 20
77.840000
 30
0.0
 10
162.000000
 20
81.120000
 30
0.0
 10
166.160000
 20
82.720000
 30
0.0
 10
171.120000
 20
82.720000
 30
0.0
  0
LINE
  5
1f5
100
AcDbEntity
  8
0
 62
7
100
AcDbLine
 10
171.120000
 20
82.720000
 30
0.0
 11
171.120000
 21
82.720000
 31
0.0
  0
SPLINE
  5
1f6
100
AcDbEntity
  8
0
 62
7
100
AcDbSpline
 70
8
 71
3
 72
8
 73
4
 74
0
 40
0
 40
0
 40
0
 40
0
 40
1
 40
1
 40
1
 40
1
 10
171.120000
 20
48.880000
 30
0.0
 10
174.720000
 20
48.880000
 30
0.0
 10
177.440000
 20
50.240000
 30
0.0
 10
179.280000
 20
52.880000
 30
0.0
  0
SPLINE
  5
1f7
100
AcDbEntity
  8
0
 62
7
100
AcDbSpline
 70
8
 71
3
 72
8
 73
4
 74
0
 40
0
 40
0
 40
0
 40
0
 40
1
 40
1
 40
1
 40
1
 10
179.280000
 20
52.880000
 30
0.0
 10
181.200000
 20
55.600000
 30
0.0
 10
182.160000
 20
59.040000
 30
0.0
 10
182.160000
 20
63.440000
 30
0.0
  0
SPLINE
  5
1f8
100
AcDbEntity
  8
0
 62
7
100
AcDbSpline
 70
8
 71
3
 72
8
 73
4
 74
0
 40
0
 40
0
 40
0
 40
0
 40
1
 40
1
 40
1
 40
1
 10
182.160000
 20
63.440000
 30
0.0
 10
182.160000
 20
68.080000
 30
0.0
 10
181.040000
 20
71.600000
 30
0.0
 10
178.960000
 20
74.000000
 30
0.0
  0
SPLINE
  5
1f9
100
AcDbEntity
  8
0
 62
7
100
AcDbSpline
 70
8
 71
3
 72
8
 73
4
 74
0
 40
0
 40
0
 40
0
 40
0
 40
1
 40
1
 40
1
 40
1
 10
178.960000
 20
74.000000
 30
0.0
 10
176.800000
 20
76.320000
 30
0.0
 10
174.240000
 20
77.520000
 30
0.0
 10
171.120000
 20
77.520000
 30
0.0
  0
SPLINE
  5
1fa
100
AcDbEntity
  8
0
 62
7
100
AcDbSpline
 70
8
 71
3
 72
8
 73
4
 74
0
 40
0
 40
0
 40
0
 40
0
 40
1
 40
1
 40
1
 40
1
 10
171.120000
 20
77.520000
 30
0.0
 10
167.840000
 20
77.520000
 30
0.0
 10
165.200000
 20
76.320000
 30
0.0
 10
163.200000
 20
73.920000
 30
0.0
  0
SPLINE
  5
1fb
100
AcDbEntity
  8
0
 62
7
100
AcDbSpline
 70
8
 71
3
 72
8
 73
4
 74
0
 40
0
 40
0
 40
0
 40
0
 40
1
 40
1
 40
1
 40
1
 10
163.200000
 20
73.920000
 30
0.0
 10
161.120000
 20
71.520000
 30
0.0
 10
160.080000
 20
67.920000
 30
0.0
 10
160.080000
 20
63.200000
 30
0.0
  0
SPLINE
  5
1fc
100
AcDbEntity
  8
0
 62
7
100
AcDbSpline
 70
8
 71
3
 72
8
 73
4
 74
0
 40
0
 40
0
 40
0
 40
0
 40
1
 40
1
 40
1
 40
1
 10
160.080000
 20
63.200000
 30
0.0
 10
160.080000
 20
58.480000
 30
0.0
 10
161.120000
 20
54.880000
 30
0.0
 10
163.200000
 20
52.480000
 30
0.0
  0
SPLINE
  5
1fd
100
AcDbEntity
  8
0
 62
7
100
AcDbSpline
 70
8
 71
3
 72
8
 73
4
 74
0
 40
0
 40
0
 40
0
 40
0
 40
1
 40
1
 40
1
 40
1
 10
163.200000
 20
52.480000
 30
0.0
 10
165.360000
 20
50.080000
 30
0.0
 10
167.920000
 20
48.880000
 30
0.0
 10
171.120000
 20
48.880000
 30
0.0
  0
LINE
  5
1fe
100
AcDbEntity
  8
0
 62
7
100
AcDbLine
 10
171.120000
 20
48.880000
 30
0.0
 11
171.120000
 21
48.880000
 31
0.0
  0
LINE
  5
1ff
100
AcDbEntity
  8
0
 62
7
100
AcDbLine
 10
226.160000
 20
44.560000
 30
0.0
 11
220.480000
 21
44.560000
 31
0.0
  0
LINE
  5
200
100
AcDbEntity
  8
0
 62
7
100
AcDbLine
 10
220.480000
 20
44.560000
 30
0.0
 11
220.480000
 21
50.080000
 31
0.0
  0
LINE
  5
201
100
AcDbEntity
  8
0
 62
7
100
AcDbLine
 10
220.480000
 20
50.080000
 30
0.0
 11
220.320000
 21
50.080000
 31
0.0
  0
SPLINE
  5
202
100
AcDbEntity
  8
0
 62
7
100
AcDbSpline
 70
8
 71
3
 72
8
 73
4
 74
0
 40
0
 40
0
 40
0
 40
0
 40
1
 40
1
 40
1
 40
1
 10
220.320000
 20
50.080000
 30
0.0
 10
217.440000
 20
45.840000
 30
0.0
 10
213.600000
 20
43.680000
 30
0.0
 10
208.640000
 20
43.680000
 30
0.0
  0
SPLINE
  5
203
100
AcDbEntity
  8
0
 62
7
100
AcDbSpline
 70
8
 71
3
 72
8
 73
4
 74
0
 40
0
 40
0
 40
0
 40
0
 40
1
 40
1
 40
1
 40
1
 10
208.640000
 20
43.680000
 30
0.0
 10
206.000000
 20
43.680000
 30
0.0
 10
203.600000
 20
44.320000
 30
0.0
 10
201.440000
 20
45.520000
 30
0.0
  0
SPLINE
  5
204
100
AcDbEntity
  8
0
 62
7
100
AcDbSpline
 70
8
 71
3
 72
8
 73
4
 74
0
 40
0
 40
0
 40
0
 40
0
 40
1
 40
1
 40
1
 40
1
 10
201.440000
 20
45.520000
 30
0.0
 10
199.200000
 20
46.720000
 30
0.0
 10
197.680000
 20
48.400000
 30
0.0
 10
196.960000
 20
50.480000
 30
0.0
  0
SPLINE
  5
205
100
AcDbEntity
  8
0
 62
7
100
AcDbSpline
 70
8
 71
3
 72
8
 73
4
 74
0
 40
0
 40
0
 40
0
 40
0
 40
1
 40
1
 40
1
 40
1
 10
196.960000
 20
50.480000
 30
0.0
 10
196.240000
 20
52.640000
 30
0.0
 10
195.840000
 20
55.360000
 30
0.0
 10
195.840000
 20
58.720000
 30
0.0
  0
LINE
  5
206
100
AcDbEntity
  8
0
 62
7
100
AcDbLine
 10
195.840000
 20
58.720000
 30
0.0
 11
195.840000
 21
81.840000
 31
0.0
  0
LINE
  5
207
100
AcDbEntity
  8
0
 62
7
100
AcDbLine
 10
195.840000
 20
81.840000
 30
0.0
 11
202.160000
 21
81.840000
 31
0.0
  0
LINE
  5
208
100
AcDbEntity
  8
0
 62
7
100
AcDbLine
 10
202.160000
 20
81.840000
 30
0.0
 11
202.160000
 21
61.200000
 31
0.0
  0
SPLINE
  5
209
100
AcDbEntity
  8
0
 62
7
100
AcDbSpline
 70
8
 71
3
 72
8
 73
4
 74
0
 40
0
 40
0
 40
0
 40
0
 40
1
 40
1
 40
1
 40
1
 10
202.160000
 20
61.200000
 30
0.0
 10
202.160000
 20
57.920000
 30
0.0
 10
202.320000
 20
55.520000
 30
0.0
 10
202.640000
 20
54.080000
 30
0.0
  0
SPLINE
  5
20a
100
AcDbEntity
  8
0
 62
7
100
AcDbSpline
 70
8
 71
3
 72
8
 73
4
 74
0
 40
0
 40
0
 40
0
 40
0
 40
1
 40
1
 40
1
 40
1
 10
202.640000
 20
54.080000
 30
0.0
 10
202.960000
 20
52.640000
 30
0.0
 10
203.840000
 20
51.440000
 30
0.0
 10
205.120000
 20
50.560000
 30
0.0
  0
SPLINE
  5
20b
100
AcDbEntity
  8
0
 62
7
100
AcDbSpline
 70
8
 71
3
 72
8
 73
4
 74
0
 40
0
 40
0
 40
0
 40
0
 40
1
 40
1
 40
1
 40
1
 10
205.120000
 20
50.560000
 30
0.0
 10
206.480000
 20
49.600000
 30
0.0
 10
208.080000
 20
49.200000
 30
0.0
 10
209.920000
 20
49.200000
 30
0.0
  0
SPLINE
  5
20c
100
AcDbEntity
  8
0
 62
7
100
AcDbSpline
 70
8
 71
3
 72
8
 73
4
 74
0
 40
0
 40
0
 40
0
 40
0
 40
1
 40
1
 40
1
 40
1
 10
209.920000
 20
49.200000
 30
0.0
 10
212.320000
 20
49.200000
 30
0.0
 10
214.560000
 20
50.000000
 30
0.0
 10
216.720000
 20
51.680000
 30
0.0
  0
SPLINE
  5
20d
100
AcDbEntity
  8
0
 62
7
100
AcDbSpline
 70
8
 71
3
 72
8
 73
4
 74
0
 40
0
 40
0
 40
0
 40
0
 40
1
 40
1
 40
1
 40
1
 10
216.720000
 20
51.680000
 30
0.0
 10
218.800000
 20
53.280000
 30
0.0
 10
219.840000
 20
56.720000
 30
0.0
 10
219.840000
 20
61.920000
 30
0.0
  0
LINE
  5
20e
100
AcDbEntity
  8
0
 62
7
100
AcDbLine
 10
219.840000
 20
61.920000
 30
0.0
 11
219.840000
 21
81.840000
 31
0.0
  0
LINE
  5
20f
100
AcDbEntity
  8
0
 62
7
100
AcDbLine
 10
219.840000
 20
81.840000
 30
0.0
 11
226.160000
 21
81.840000
 31
0.0
  0
LINE
  5
210
100
AcDbEntity
  8
0
 62
7
100
AcDbLine
 10
226.160000
 20
81.840000
 30
0.0
 11
226.160000
 21
44.560000
 31
0.0
  0
LINE
  5
211
100
AcDbEntity
  8
0
 62
7
100
AcDbLine
 10
226.160000
 20
44.560000
 30
0.0
 11
226.160000
 21
44.560000
 31
0.0
  0
LINE
  5
212
100
AcDbEntity
  8
0
 62
7
100
AcDbLine
 10
242.320000
 20
44.560000
 30
0.0
 11
236.000000
 21
44.560000
 31
0.0
  0
LINE
  5
213
100
AcDbEntity
  8
0
 62
7
100
AcDbLine
 10
236.000000
 20
44.560000
 30
0.0
 11
236.000000
 21
81.840000
 31
0.0
  0
LINE
  5
214
100
AcDbEntity
  8
0
 62
7
100
AcDbLine
 10
236.000000
 20
81.840000
 30
0.0
 11
242.320000
 21
81.840000
 31
0.0
  0
LINE
  5
215
100
AcDbEntity
  8
0
 62
7
100
AcDbLine
 10
242.320000
 20
81.840000
 30
0.0
 11
242.320000
 21
44.560000
 31
0.0
  0
LINE
  5
216
100
AcDbEntity
  8
0
 62
7
100
AcDbLine
 10
242.320000
 20
44.560000
 30
0.0
 11
242.320000
 21
44.560000
 31
0.0
  0
LINE
  5
217
100
AcDbEntity
  8
0
 62
7
100
AcDbLine
 10
242.320000
 20
88.960000
 30
0.0
 11
236.000000
 21
88.960000
 31
0.0
  0
LINE
  5
218
100
AcDbEntity
  8
0
 62
7
100
AcDbLine
 10
236.000000
 20
88.960000
 30
0.0
 11
236.000000
 21
96.080000
 31
0.0
  0
LINE
  5
219
100
AcDbEntity
  8
0
 62
7
100
AcDbLine
 10
236.000000
 20
96.080000
 30
0.0
 11
242.320000
 21
96.080000
 31
0.0
  0
LINE
  5
21a
100
AcDbEntity
  8
0
 62
7
100
AcDbLine
 10
242.320000
 20
96.080000
 30
0.0
 11
242.320000
 21
88.960000
 31
0.0
  0
LINE
  5
21b
100
AcDbEntity
  8
0
 62
7
100
AcDbLine
 10
242.320000
 20
88.960000
 30
0.0
 11
242.320000
 21
88.960000
 31
0.0
  0
LINE
  5
21c
100
AcDbEntity
  8
0
 62
7
100
AcDbLine
 10
258.320000
 20
44.560000
 30
0.0
 11
252.000000
 21
44.560000
 31
0.0
  0
LINE
  5
21d
100
AcDbEntity
  8
0
 62
7
100
AcDbLine
 10
252.000000
 20
44.560000
 30
0.0
 11
252.000000
 21
96.080000
 31
0.0
  0
LINE
  5
21e
100
AcDbEntity
  8
0
 62
7
100
AcDbLine
 10
252.000000
 20
96.080000
 30
0.0
 11
258.320000
 21
96.080000
 31
0.0
  0
LINE
  5
21f
100
AcDbEntity
  8
0
 62
7
100
AcDbLine
 10
258.320000
 20
96.080000
 30
0.0
 11
258.320000
 21
44.560000
 31
0.0
  0
LINE
  5
220
100
AcDbEntity
  8
0
 62
7
100
AcDbLine
 10
258.320000
 20
44.560000
 30
0.0
 11
258.320000
 21
44.560000
 31
0.0
  0
LINE
  5
221
100
AcDbEntity
  8
0
 62
7
100
AcDbLine
 10
274.320000
 20
44.560000
 30
0.0
 11
268.000000
 21
44.560000
 31
0.0
  0
LINE
  5
222
100
AcDbEntity
  8
0
 62
7
100
AcDbLine
 10
268.000000
 20
44.560000
 30
0.0
 11
268.000000
 21
96.080000
 31
0.0
  0
LINE
  5
223
100
AcDbEntity
  8
0
 62
7
100
AcDbLine
 10
268.000000
 20
96.080000
 30
0.0
 11
274.320000
 21
96.080000
 31
0.0
  0
LINE
  5
224
100
AcDbEntity
  8
0
 62
7
100
AcDbLine
 10
274.320000
 20
96.080000
 30
0.0
 11
274.320000
 21
44.560000
 31
0.0
  0
LINE
  5
225
100
AcDbEntity
  8
0
 62
7
100
AcDbLine
 10
274.320000
 20
44.560000
 30
0.0
 11
274.320000
 21
44.560000
 31
0.0
  0
LINE
  5
226
100
AcDbEntity
  8
0
 62
7
100
AcDbLine
 10
316.400000
 20
61.600000
 30
0.0
 11
288.400000
 21
61.600000
 31
0.0
  0
SPLINE
  5
227
100
AcDbEntity
  8
0
 62
7
100
AcDbSpline
 70
8
 71
3
 72
8
 73
4
 74
0
 40
0
 40
0
 40
0
 40
0
 40
1
 40
1
 40
1
 40
1
 10
288.400000
 20
61.600000
 30
0.0
 10
288.720000
 20
57.520000
 30
0.0
 10
289.840000
 20
54.320000
 30
0.0
 10
292.000000
 20
52.160000
 30
0.0
  0
SPLINE
  5
228
100
AcDbEntity
  8
0
 62
7
100
AcDbSpline
 70
8
 71
3
 72
8
 73
4
 74
0
 40
0
 40
0
 40
0
 40
0
 40
1
 40
1
 40
1
 40
1
 10
292.000000
 20
52.160000
 30
0.0
 10
294.080000
 20
50.000000
 30
0.0
 10
296.720000
 20
48.880000
 30
0.0
 10
299.840000
 20
48.880000
 30
0.0
  0
SPLINE
  5
229
100
AcDbEntity
  8
0
 62
7
100
AcDbSpline
 70
8
 71
3
 72
8
 73
4
 74
0
 40
0
 40
0
 40
0
 40
0
 40
1
 40
1
 40
1
 40
1
 10
299.840000
 20
48.880000
 30
0.0
 10
302.240000
 20
48.880000
 30
0.0
 10
304.240000
 20
49.520000
 30
0.0
 10
305.920000
 20
50.800000
 30
0.0
  0
SPLINE
  5
22a
100
AcDbEntity
  8
0
 62
7
100
AcDbSpline
 70
8
 71
3
 72
8
 73
4
 74
0
 40
0
 40
0
 40
0
 40
0
 40
1
 40
1
 40
1
 40
1
 10
305.920000
 20
50.800000
 30
0.0
 10
307.520000
 20
52.080000
 30
0.0
 10
308.800000
 20
54.000000
 30
0.0
 10
309.680000
 20
56.560000
 30
0.0
  0
LINE
  5
22b
100
AcDbEntity
  8
0
 62
7
100
AcDbLine
 10
309.680000
 20
56.560000
 30
0.0
 11
316.160000
 21
55.760000
 31
0.0
  0
SPLINE
  5
22c
100
AcDbEntity
  8
0
 62
7
100
AcDbSpline
 70
8
 71
3
 72
8
 73
4
 74
0
 40
0
 40
0
 40
0
 40
0
 40
1
 40
1
 40
1
 40
1
 10
316.160000
 20
55.760000
 30
0.0
 10
315.120000
 20
51.920000
 30
0.0
 10
313.200000
 20
48.880000
 30
0.0
 10
310.400000
 20
46.800000
 30
0.0
  0
SPLINE
  5
22d
100
AcDbEntity
  8
0
 62
7
100
AcDbSpline
 70
8
 71
3
 72
8
 73
4
 74
0
 40
0
 40
0
 40
0
 40
0
 40
1
 40
1
 40
1
 40
1
 10
310.400000
 20
46.800000
 30
0.0
 10
307.600000
 20
44.720000
 30
0.0
 10
304.080000
 20
43.680000
 30
0.0
 10
299.840000
 20
43.680000
 30
0.0
  0
SPLINE
  5
22e
100
AcDbEntity
  8
0
 62
7
100
AcDbSpline
 70
8
 71
3
 72
8
 73
4
 74
0
 40
0
 40
0
 40
0
 40
0
 40
1
 40
1
 40
1
 40
1
 10
299.840000
 20
43.680000
 30
0.0
 10
294.240000
 20
43.680000
 30
0.0
 10
289.840000
 20
45.360000
 30
0.0
 10
286.720000
 20
48.800000
 30
0.0
  0
SPLINE
  5
22f
100
AcDbEntity
  8
0
 62
7
100
AcDbSpline
 70
8
 71
3
 72
8
 73
4
 74
0
 40
0
 40
0
 40
0
 40
0
 40
1
 40
1
 40
1
 40
1
 10
286.720000
 20
48.800000
 30
0.0
 10
283.520000
 20
52.240000
 30
0.0
 10
282.000000
 20
56.960000
 30
0.0
 10
282.000000
 20
62.880000
 30
0.0
  0
SPLINE
  5
230
100
AcDbEntity
  8
0
 62
7
100
AcDbSpline
 70
8
 71
3
 72
8
 73
4
 74
0
 40
0
 40
0
 40
0
 40
0
 40
1
 40
1
 40
1
 40
1
 10
282.000000
 20
62.880000
 30
0.0
 10
282.000000
 20
68.800000
 30
0.0
 10
283.520000
 20
73.600000
 30
0.0
 10
286.560000
 20
77.200000
 30
0.0
  0
SPLINE
  5
231
100
AcDbEntity
  8
0
 62
7
100
AcDbSpline
 70
8
 71
3
 72
8
 73
4
 74
0
 40
0
 40
0
 40
0
 40
0
 40
1
 40
1
 40
1
 40
1
 10
286.560000
 20
77.200000
 30
0.0
 10
289.600000
 20
80.880000
 30
0.0
 10
293.920000
 20
82.720000
 30
0.0
 10
299.440000
 20
82.720000
 30
0.0
  0
SPLINE
  5
232
100
AcDbEntity
  8
0
 62
7
100
AcDbSpline
 70
8
 71
3
 72
8
 73
4
 74
0
 40
0
 40
0
 40
0
 40
0
 40
1
 40
1
 40
1
 40
1
 10
299.440000
 20
82.720000
 30
0.0
 10
302.160000
 20
82.720000
 30
0.0
 10
304.800000
 20
82.080000
 30
0.0
 10
307.360000
 20
80.880000
 30
0.0
  0
SPLINE
  5
233
100
AcDbEntity
  8
0
 62
7
100
AcDbSpline
 70
8
 71
3
 72
8
 73
4
 74
0
 40
0
 40
0
 40
0
 40
0
 40
1
 40
1
 40
1
 40
1
 10
307.360000
 20
80.880000
 30
0.0
 10
309.840000
 20
79.680000
 30
0.0
 10
312.000000
 20
77.680000
 30
0.0
 10
313.760000
 20
74.800000
 30
0.0
  0
SPLINE
  5
234
100
AcDbEntity
  8
0
 62
7
100
AcDbSpline
 70
8
 71
3
 72
8
 73
4
 74
0
 40
0
 40
0
 40
0
 40
0
 40
1
 40
1
 40
1
 40
1
 10
313.760000
 20
74.800000
 30
0.0
 10
315.520000
 20
71.920000
 30
0.0
 10
316.400000
 20
67.520000
 30
0.0
 10
316.400000
 20
61.600000
 30
0.0
  0
LINE
  5
235
100
AcDbEntity
  8
0
 62
7
100
AcDbLine
 10
316.400000
 20
61.600000
 30
0.0
 11
316.400000
 21
61.600000
 31
0.0
  0
SPLINE
  5
236
100
AcDbEntity
  8
0
 62
7
100
AcDbSpline
 70
8
 71
3
 72
8
 73
4
 74
0
 40
0
 40
0
 40
0
 40
0
 40
1
 40
1
 40
1
 40
1
 10
309.920000
 20
66.800000
 30
0.0
 10
309.600000
 20
70.640000
 30
0.0
 10
308.480000
 20
73.360000
 30
0.0
 10
306.320000
 20
75.040000
 30
0.0
  0
SPLINE
  5
237
100
AcDbEntity
  8
0
 62
7
100
AcDbSpline
 70
8
 71
3
 72
8
 73
4
 74
0
 40
0
 40
0
 40
0
 40
0
 40
1
 40
1
 40
1
 40
1
 10
306.320000
 20
75.040000
 30
0.0
 10
304.240000
 20
76.720000
 30
0.0
 10
302.000000
 20
77.520000
 30
0.0
 10
299.440000
 20
77.520000
 30
0.0
  0
SPLINE
  5
238
100
AcDbEntity
  8
0
 62
7
100
AcDbSpline
 70
8
 71
3
 72
8
 73
4
 74
0
 40
0
 40
0
 40
0
 40
0
 40
1
 40
1
 40
1
 40
1
 10
299.440000
 20
77.520000
 30
0.0
 10
296.480000
 20
77.520000
 30
0.0
 10
294.080000
 20
76.560000
 30
0.0
 10
292.160000
 20
74.560000
 30
0.0
  0
SPLINE
  5
239
100
AcDbEntity
  8
0
 62
7
100
AcDbSpline
 70
8
 71
3
 72
8
 73
4
 74
0
 40
0
 40
0
 40
0
 40
0
 40
1
 40
1
 40
1
 40
1
 10
292.160000
 20
74.560000
 30
0.0
 10
290.240000
 20
72.560000
 30
0.0
 10
289.120000
 20
70.000000
 30
0.0
 10
288.800000
 20
66.800000
 30
0.0
  0
LINE
  5
23a
100
AcDbEntity
  8
0
 62
7
100
AcDbLine
 10
288.800000
 20
66.800000
 30
0.0
 11
309.920000
 21
66.800000
 31
0.0
  0
LINE
  5
23b
100
AcDbEntity
  8
0
 62
7
100
AcDbLine
 10
309.920000
 20
66.800000
 30
0.0
 11
309.920000
 21
66.800000
 31
0.0
  0
LINE
  5
23c
100
AcDbEntity
  8
0
 62
7
100
AcDbLine
 10
332.800000
 20
44.560000
 30
0.0
 11
325.600000
 21
44.560000
 31
0.0
  0
LINE
  5
23d
100
AcDbEntity
  8
0
 62
7
100
AcDbLine
 10
325.600000
 20
44.560000
 30
0.0
 11
325.600000
 21
51.760000
 31
0.0
  0
LINE
  5
23e
100
AcDbEntity
  8
0
 62
7
100
AcDbLine
 10
325.600000
 20
51.760000
 30
0.0
 11
332.800000
 21
51.760000
 31
0.0
  0
LINE
  5
23f
100
AcDbEntity
  8
0
 62
7
100
AcDbLine
 10
332.800000
 20
51.760000
 30
0.0
 11
332.800000
 21
44.560000
 31
0.0
  0
LINE
  5
240
100
AcDbEntity
  8
0
 62
7
100
AcDbLine
 10
332.800000
 20
44.560000
 30
0.0
 11
332.800000
 21
44.560000
 31
0.0
  0
LINE
  5
241
100
AcDbEntity
  8
0
 62
7
100
AcDbLine
 10
361.600000
 20
96.320000
 30
0.0
 11
360.640000
 21
90.800000
 31
0.0
  0
SPLINE
  5
242
100
AcDbEntity
  8
0
 62
7
100
AcDbSpline
 70
8
 71
3
 72
8
 73
4
 74
0
 40
0
 40
0
 40
0
 40
0
 40
1
 40
1
 40
1
 40
1
 10
360.640000
 20
90.800000
 30
0.0
 10
359.360000
 20
91.040000
 30
0.0
 10
358.160000
 20
91.120000
 30
0.0
 10
356.960000
 20
91.120000
 30
0.0
  0
SPLINE
  5
243
100
AcDbEntity
  8
0
 62
7
100
AcDbSpline
 70
8
 71
3
 72
8
 73
4
 74
0
 40
0
 40
0
 40
0
 40
0
 40
1
 40
1
 40
1
 40
1
 10
356.960000
 20
91.120000
 30
0.0
 10
355.360000
 20
91.120000
 30
0.0
 10
354.160000
 20
90.800000
 30
0.0
 10
353.200000
 20
90.160000
 30
0.0
  0
SPLINE
  5
244
100
AcDbEntity
  8
0
 62
7
100
AcDbSpline
 70
8
 71
3
 72
8
 73
4
 74
0
 40
0
 40
0
 40
0
 40
0
 40
1
 40
1
 40
1
 40
1
 10
353.200000
 20
90.160000
 30
0.0
 10
352.240000
 20
89.520000
 30
0.0
 10
351.680000
 20
87.920000
 30
0.0
 10
351.680000
 20
85.360000
 30
0.0
  0
LINE
  5
245
100
AcDbEntity
  8
0
 62
7
100
AcDbLine
 10
351.680000
 20
85.360000
 30
0.0
 11
351.680000
 21
81.840000
 31
0.0
  0
LINE
  5
246
100
AcDbEntity
  8
0
 62
7
100
AcDbLine
 10
351.680000
 20
81.840000
 30
0.0
 11
358.960000
 21
81.840000
 31
0.0
  0
LINE
  5
247
100
AcDbEntity
  8
0
 62
7
100
AcDbLine
 10
358.960000
 20
81.840000
 30
0.0
 11
358.960000
 21
76.960000
 31
0.0
  0
LINE
  5
248
100
AcDbEntity
  8
0
 62
7
100
AcDbLine
 10
358.960000
 20
76.960000
 30
0.0
 11
351.680000
 21
76.960000
 31
0.0
  0
LINE
  5
249
100
AcDbEntity
  8
0
 62
7
100
AcDbLine
 10
351.680000
 20
76.960000
 30
0.0
 11
351.680000
 21
44.560000
 31
0.0
  0
LINE
  5
24a
100
AcDbEntity
  8
0
 62
7
100
AcDbLine
 10
351.680000
 20
44.560000
 30
0.0
 11
345.360000
 21
44.560000
 31
0.0
  0
LINE
  5
24b
100
AcDbEntity
  8
0
 62
7
100
AcDbLine
 10
345.360000
 20
44.560000
 30
0.0
 11
345.360000
 21
76.960000
 31
0.0
  0
LINE
  5
24c
100
AcDbEntity
  8
0
 62
7
100
AcDbLine
 10
345.360000
 20
76.960000
 30
0.0
 11
339.760000
 21
76.960000
 31
0.0
  0
LINE
  5
24d
100
AcDbEntity
  8
0
 62
7
100
AcDbLine
 10
339.760000
 20
76.960000
 30
0.0
 11
339.760000
 21
81.840000
 31
0.0
  0
LINE
  5
24e
100
AcDbEntity
  8
0
 62
7
100
AcDbLine
 10
339.760000
 20
81.840000
 30
0.0
 11
345.360000
 21
81.840000
 31
0.0
  0
LINE
  5
24f
100
AcDbEntity
  8
0
 62
7
100
AcDbLine
 10
345.360000
 20
81.840000
 30
0.0
 11
345.360000
 21
85.920000
 31
0.0
  0
SPLINE
  5
250
100
AcDbEntity
  8
0
 62
7
100
AcDbSpline
 70
8
 71
3
 72
8
 73
4
 74
0
 40
0
 40
0
 40
0
 40
0
 40
1
 40
1
 40
1
 40
1
 10
345.360000
 20
85.920000
 30
0.0
 10
345.360000
 20
87.760000
 30
0.0
 10
345.600000
 20
89.440000
 30
0.0
 10
345.920000
 20
91.040000
 30
0.0
  0
SPLINE
  5
251
100
AcDbEntity
  8
0
 62
7
100
AcDbSpline
 70
8
 71
3
 72
8
 73
4
 74
0
 40
0
 40
0
 40
0
 40
0
 40
1
 40
1
 40
1
 40
1
 10
345.920000
 20
91.040000
 30
0.0
 10
346.240000
 20
92.560000
 30
0.0
 10
347.200000
 20
93.920000
 30
0.0
 10
348.720000
 20
95.120000
 30
0.0
  0
SPLINE
  5
252
100
AcDbEntity
  8
0
 62
7
100
AcDbSpline
 70
8
 71
3
 72
8
 73
4
 74
0
 40
0
 40
0
 40
0
 40
0
 40
1
 40
1
 40
1
 40
1
 10
348.720000
 20
95.120000
 30
0.0
 10
350.240000
 20
96.400000
 30
0.0
 10
352.560000
 20
96.960000
 30
0.0
 10
355.680000
 20
96.960000
 30
0.0
  0
SPLINE
  5
253
100
AcDbEntity
  8
0
 62
7
100
AcDbSpline
 70
8
 71
3
 72
8
 73
4
 74
0
 40
0
 40
0
 40
0
 40
0
 40
1
 40
1
 40
1
 40
1
 10
355.680000
 20
96.960000
 30
0.0
 10
357.600000
 20
96.960000
 30
0.0
 10
359.520000
 20
96.800000
 30
0.0
 10
361.600000
 20
96.320000
 30
0.0
  0
LINE
  5
254
100
AcDbEntity
  8
0
 62
7
100
AcDbLine
 10
361.600000
 20
96.320000
 30
0.0
 11
361.600000
 21
96.320000
 31
0.0
  0
LINE
  5
255
100
AcDbEntity
  8
0
 62
7
100
AcDbLine
 10
384.160000
 20
80.720000
 30
0.0
 11
381.920000
 21
74.880000
 31
0.0
  0
SPLINE
  5
256
100
AcDbEntity
  8
0
 62
7
100
AcDbSpline
 70
8
 71
3
 72
8
 73
4
 74
0
 40
0
 40
0
 40
0
 40
0
 40
1
 40
1
 40
1
 40
1
 10
381.920000
 20
74.880000
 30
0.0
 10
380.400000
 20
75.760000
 30
0.0
 10
378.880000
 20
76.240000
 30
0.0
 10
377.360000
 20
76.240000
 30
0.0
  0
SPLINE
  5
257
100
AcDbEntity
  8
0
 62
7
100
AcDbSpline
 70
8
 71
3
 72
8
 73
4
 74
0
 40
0
 40
0
 40
0
 40
0
 40
1
 40
1
 40
1
 40
1
 10
377.360000
 20
76.240000
 30
0.0
 10
374.960000
 20
76.240000
 30
0.0
 10
373.200000
 20
75.200000
 30
0.0
 10
372.000000
 20
73.040000
 30
0.0
  0
SPLINE
  5
258
100
AcDbEntity
  8
0
 62
7
100
AcDbSpline
 70
8
 71
3
 72
8
 73
4
 74
0
 40
0
 40
0
 40
0
 40
0
 40
1
 40
1
 40
1
 40
1
 10
372.000000
 20
73.040000
 30
0.0
 10
370.720000
 20
70.960000
 30
0.0
 10
370.160000
 20
68.000000
 30
0.0
 10
370.160000
 20
64.160000
 30
0.0
  0
LINE
  5
259
100
AcDbEntity
  8
0
 62
7
100
AcDbLine
 10
370.160000
 20
64.160000
 30
0.0
 11
370.160000
 21
44.560000
 31
0.0
  0
LINE
  5
25a
100
AcDbEntity
  8
0
 62
7
100
AcDbLine
 10
370.160000
 20
44.560000
 30
0.0
 11
363.840000
 21
44.560000
 31
0.0
  0
LINE
  5
25b
100
AcDbEntity
  8
0
 62
7
100
AcDbLine
 10
363.840000
 20
44.560000
 30
0.0
 11
363.840000
 21
81.840000
 31
0.0
  0
LINE
  5
25c
100
AcDbEntity
  8
0
 62
7
100
AcDbLine
 10
363.840000
 20
81.840000
 30
0.0
 11
369.600000
 21
81.840000
 31
0.0
  0
LINE
  5
25d
100
AcDbEntity
  8
0
 62
7
100
AcDbLine
 10
369.600000
 20
81.840000
 30
0.0
 11
369.600000
 21
76.240000
 31
0.0
  0
LINE
  5
25e
100
AcDbEntity
  8
0
 62
7
100
AcDbLine
 10
369.600000
 20
76.240000
 30
0.0
 11
369.680000
 21
76.240000
 31
0.0
  0
SPLINE
  5
25f
100
AcDbEntity
  8
0
 62
7
100
AcDbSpline
 70
8
 71
3
 72
8
 73
4
 74
0
 40
0
 40
0
 40
0
 40
0
 40
1
 40
1
 40
1
 40
1
 10
369.680000
 20
76.240000
 30
0.0
 10
371.760000
 20
80.560000
 30
0.0
 10
374.400000
 20
82.720000
 30
0.0
 10
377.600000
 20
82.720000
 30
0.0
  0
SPLINE
  5
260
100
AcDbEntity
  8
0
 62
7
100
AcDbSpline
 70
8
 71
3
 72
8
 73
4
 74
0
 40
0
 40
0
 40
0
 40
0
 40
1
 40
1
 40
1
 40
1
 10
377.600000
 20
82.720000
 30
0.0
 10
379.760000
 20
82.720000
 30
0.0
 10
381.920000
 20
82.000000
 30
0.0
 10
384.160000
 20
80.720000
 30
0.0
  0
LINE
  5
261
100
AcDbEntity
  8
0
 62
7
100
AcDbLine
 10
384.160000
 20
80.720000
 30
0.0
 11
384.160000
 21
80.720000
 31
0.0
  0
ENDSEC
  0
SECTION
  2
OBJECTS
  0
DICTIONARY
  5
C
330
0
100
AcDbDictionary
  3
ACAD_GROUP
350
D
  3
ACAD_MLINESTYLE
350
17
  0
DICTIONARY
  5
D
330
C
100
AcDbDictionary
  0
DICTIONARY
  5
1A
330
C
100
AcDbDictionary
  0
DICTIONARY
  5
17
330
C
100
AcDbDictionary
  3
STANDARD
350
18
  0
DICTIONARY
  5
19
330
C
100
AcDbDictionary
  0
ENDSEC
  0
EOF
