<?xml version="1.0" encoding="UTF-8" standalone="no"?>
<svg
   xmlns:dc="http://purl.org/dc/elements/1.1/"
   xmlns:cc="http://creativecommons.org/ns#"
   xmlns:rdf="http://www.w3.org/1999/02/22-rdf-syntax-ns#"
   xmlns:svg="http://www.w3.org/2000/svg"
   xmlns="http://www.w3.org/2000/svg"
   xmlns:sodipodi="http://sodipodi.sourceforge.net/DTD/sodipodi-0.dtd"
   xmlns:inkscape="http://www.inkscape.org/namespaces/inkscape"
   inkscape:version="1.0 (4035a4fb49, 2020-05-01)"
   sodipodi:docname="Coffee-Cup-Inside-JenniferMaker.svg"
   xml:space="preserve"
   enable-background="new 0 0 792 612"
   viewBox="0 0 792 612"
   y="0px"
   x="0px"
   id="Layer_1"
   version="1.1"><metadata
   id="metadata51"><rdf:RDF><cc:Work
       rdf:about=""><dc:format>image/svg+xml</dc:format><dc:type
         rdf:resource="http://purl.org/dc/dcmitype/StillImage" /></cc:Work></rdf:RDF></metadata><defs
   id="defs49" /><sodipodi:namedview
   inkscape:current-layer="Layer_1"
   inkscape:window-maximized="1"
   inkscape:window-y="-11"
   inkscape:window-x="-11"
   inkscape:cy="283.22272"
   inkscape:cx="396"
   inkscape:zoom="1.7561356"
   showgrid="false"
   id="namedview47"
   inkscape:window-height="1346"
   inkscape:window-width="2160"
   inkscape:pageshadow="2"
   inkscape:pageopacity="0"
   guidetolerance="10"
   gridtolerance="10"
   objecttolerance="10"
   borderopacity="1"
   bordercolor="#666666"
   pagecolor="#ffffff" />

<path
   id="path4"
   d="m 190.32334,457.95501 c 0,0 9.7,-74.5 9.7,-169.8 0,-95.3 -12,-182.3 -12,-182.3 h -12.5 l -4.6,6.5 -3.2,-2.8 h -10.2 c 0,0 -4.2,1.9 -5.6,10.6 -1.4,8.8 -1.4,13.9 -1.4,13.9 l -34.7,3.7 c 0,0 -5.6,75.9 -5.6,142 0,66.1 9.3,147.6 9.3,147.6 l 37,4.6 c 0,0 -0.5,7.9 0.5,12 0.9,4.2 5.1,9.3 5.1,9.3 h 8.3 l 4.2,-3.7 4.2,7.9 z"
   stroke-miterlimit="10"
   stroke="#000000"
   fill="#ffffff" />




<g
   id="g932"><g
     id="g44"
     style="fill:#67ff7a;fill-opacity:1;stroke:#000000;stroke-opacity:1">
	
	
	
	
	
	
	
	
	
	
	
	
	
	
	<path
   id="path42"
   style="fill:#fffffd;fill-opacity:1;stroke:#000000;stroke-opacity:1"
   d="m 593.9,161.1 c 2.4,-0.5 4.1,-2.6 4.1,-5.1 0,-2.9 -2.3,-5.3 -5.2,-5.3 -2.9,0 -5.2,2.4 -5.2,5.3 0,2.5 1.8,4.6 4.1,5.1 l -0.1,3.7 c -4.3,-0.6 -7.6,-4.3 -7.6,-8.8 0,-4.9 4,-8.9 8.9,-8.9 4.9,0 8.9,4 8.9,8.9 0,4.5 -3.3,8.2 -7.6,8.8 z m 29.7,1.9 c 0,-1.1 0.8,-1.9 1.8,-1.9 1.1,0 1.8,0.8 1.8,1.9 0,1.1 -0.7,1.9 -1.8,1.9 -1.1,-0.1 -1.8,-0.9 -1.8,-1.9 z m 0.3,-3.3 -0.9,-12.5 h 4.7 l -0.9,12.6 z m -5.2,-1.6 c 0,4.6 -2.7,6.9 -7.3,6.9 -4.6,0 -7.3,-2.2 -7.3,-6.9 v -10.7 h 3.8 v 10.7 c 0,1.9 0.5,3.7 3.5,3.7 2.7,0 3.6,-1.2 3.6,-3.7 v -10.7 h 3.8 v 10.7 z m -44.8,-0.2 -6.3,-10.5 h 4.2 l 4,6.8 4,-6.8 h 4.2 l -6.4,10.6 v 6.6 h -3.8 v -6.7 z m -23.4,-2.4 h 1.1 c 1.8,0 3.3,-0.4 3.3,-2.6 0,-2.2 -1.5,-2.6 -3.3,-2.6 h -2.9 v 5.2 2.9 6.2 h -3.8 v -17.2 h 7.7 c 4.3,0 6,2.7 6,5.5 0,1.2 -0.1,2.6 -0.9,3.6 -0.8,1.1 -2.3,1.2 -3.5,1.6 l 5.2,6.5 h -4.6 l -4.3,-6.2 z m -15.6,5.6 c 2.4,-0.5 4.1,-2.6 4.1,-5.1 0,-2.9 -2.3,-5.3 -5.2,-5.3 -2.9,0 -5.2,2.4 -5.2,5.3 0,2.5 1.8,4.6 4.1,5.1 l -0.1,3.7 c -4.3,-0.6 -7.6,-4.3 -7.6,-8.8 0,-4.9 4,-8.9 8.9,-8.9 4.9,0 8.9,4 8.9,8.9 0,4.5 -3.3,8.2 -7.6,8.8 z m -19.7,0.3 v 3.2 h -3.6 V 147.4 H 524 v 3.2 h -8.9 v 3.9 h 7.8 v 3.3 h -7.8 v 3.6 z m -19.8,-5.9 c 1.7,0 3.3,-0.4 3.3,-2.6 0,-2.2 -1.6,-2.6 -3.3,-2.6 h -2.9 v 5.1 2.9 6.1 h -3.8 v -17.1 h 7.7 c 4.3,0 5.9,2.7 5.9,5.5 0,2.8 -1.6,5.5 -5.9,5.5 h -1 z m -10,2.6 c 0,4.6 -2.7,6.9 -7.3,6.9 -4.6,0 -7.3,-2.2 -7.3,-6.9 v -10.7 h 3.8 v 10.7 c 0,1.9 0.5,3.7 3.5,3.7 2.7,0 3.6,-1.2 3.6,-3.7 v -10.7 h 3.8 v 10.7 z m -32.6,5.4 v -1.4 -0.7 c 2.2,0 4.3,-1.3 4.3,-5.1 0,-3.5 -1.2,-5.7 -4.9,-5.7 h -2.7 v 10.8 c 0,0 -0.1,3.3 0,3.2 h -3.8 v -17.1 h 7.4 c 4.4,0 7.8,2.8 7.8,8.5 0,5 -2.8,8.8 -8,8.8 z m -19.5,-2.1 h 9.7 v 3.2 h -13.3 v -17.2 h 12.5 v 3.2 h -8.9 v 3.9 h 7.8 v 3.3 h -7.8 z m -18.4,3.1 v -17.1 h 3.7 v 13.9 h 8.8 v 3.2 z m -14.9,0 v -17.1 h 3.7 v 13.9 h 8.8 v 3.2 z m -6.5,-17.1 h 3.8 v 17.1 h -3.8 z m -11,14 v 3.2 h -3.6 v -17.2 h 12.5 v 3.2 h -8.9 v 3.9 h 7.8 v 3.3 h -7.8 z M 660.4,84.3 c 12.6,-1.4 18.9,-2.4 18.9,-2.4 V 69.4 l -6.5,-4.6 2.8,-3.2 V 51.3 c 0,0 -1.9,-4.2 -10.6,-5.6 -8.8,-1.4 -13.9,-1.4 -13.9,-1.4 L 647.4,9.6 c 0,0 -75.9,-5.6 -142,-5.6 -66.1,0 -147.6,9.3 -147.6,9.3 l -4.6,37 c 0,0 -7.9,-0.5 -12,0.5 -4.2,0.9 -9.3,5.1 -9.3,5.1 v 8.3 l 3.7,4.2 -7.9,4.2 -0.5,11.6 c 0,0 6.7,0.9 18.7,2.1 L 398.1,505.7 603.4,505.2 660,84 Z" />
</g><line
     fill="#ffffff"
     stroke="#000000"
     stroke-miterlimit="10"
     x1="420"
     y1="258.39999"
     x2="463.79999"
     y2="213.7"
     id="line6" /><line
     fill="#ffffff"
     stroke="#000000"
     stroke-miterlimit="10"
     x1="543"
     y1="211.8"
     x2="583.5"
     y2="256.79999"
     id="line8" /><line
     fill="#ffffff"
     stroke="#000000"
     stroke-miterlimit="10"
     x1="420.5"
     y1="438.79999"
     x2="457.79999"
     y2="478.79999"
     id="line10" /><line
     fill="#ffffff"
     stroke="#000000"
     stroke-miterlimit="10"
     x1="548.5"
     y1="479.10001"
     x2="582.09998"
     y2="441.20001"
     id="line12" /></g>
</svg>
