<?xml version="1.0" encoding="UTF-8" standalone="no"?>
<svg
   xmlns:dc="http://purl.org/dc/elements/1.1/"
   xmlns:cc="http://creativecommons.org/ns#"
   xmlns:rdf="http://www.w3.org/1999/02/22-rdf-syntax-ns#"
   xmlns:svg="http://www.w3.org/2000/svg"
   xmlns="http://www.w3.org/2000/svg"
   xmlns:sodipodi="http://sodipodi.sourceforge.net/DTD/sodipodi-0.dtd"
   xmlns:inkscape="http://www.inkscape.org/namespaces/inkscape"
   inkscape:version="1.0 (4035a4fb49, 2020-05-01)"
   sodipodi:docname="all symbols.svg"
   xml:space="preserve"
   style="enable-background:new 0 0 1280 1024;"
   viewBox="0 0 1280 1024"
   y="0px"
   x="0px"
   id="Jupiter"
   version="1.1"><metadata
   id="metadata10"><rdf:RDF><cc:Work
       rdf:about=""><dc:format>image/svg+xml</dc:format><dc:type
         rdf:resource="http://purl.org/dc/dcmitype/StillImage" /><dc:title></dc:title></cc:Work></rdf:RDF></metadata><defs
   id="defs8" /><sodipodi:namedview
   inkscape:current-layer="Jupiter"
   inkscape:window-maximized="1"
   inkscape:window-y="-11"
   inkscape:window-x="-11"
   inkscape:cy="512"
   inkscape:cx="640"
   inkscape:zoom="1.0495654"
   showgrid="false"
   id="namedview6"
   inkscape:window-height="1346"
   inkscape:window-width="2160"
   inkscape:pageshadow="2"
   inkscape:pageopacity="0"
   guidetolerance="10"
   gridtolerance="10"
   objecttolerance="10"
   borderopacity="1"
   bordercolor="#666666"
   pagecolor="#ffffff" />
<style
   id="style2"
   type="text/css">
	.st0{fill:#055105;}
</style>
<path
   d="M429.1,501c0,0,191.5-0.3,191.5-0.3l0-410.5c0,0,0.7-48.9,71.6-48.9c71.7,0,72.3,48.2,72.3,48.2  V502c0,0,182.9,1,243.1,0.7c24.7-0.1,70.3-2.7,70.3,69.6c0,79.8-39.8,73.7-71,73.7c-60.4-0.1-241.7-0.7-241.7-0.7l-1.3,311.4  c0,0,0.7,50.9-71.6,50.9c-73.7,0-72.3-50.2-72.3-50.2l0.7-312l-362.9,0.7C247.4,431.1,330.7,474.5,332,64c0,0-2.7-47.5,69-47.5  c71.7,0,68.3,48.5,68.3,48.5C463.3,428.3,435.2,369,429.1,501z"
   class="st0"
   id="Outline" />
<style
   type="text/css"
   id="style835">
	.st0{fill:#FF0000;stroke:#FF0000;stroke-miterlimit:10;}
</style><path
   id="Fill_3_"
   class="st0"
   d="m 713.01844,163.22036 c 0.8,-1 0.1,-2.5 -1.2,-2.6 -63.7,-3 -119,-4.7 -180.5,-7.7 -5.3,-0.3 -11.3,-4.3 -12.2,-11.4 -4.6,-34.9 10.4,-105.500004 26,-125.900004 2.6,-3.3 5.7,-6.1999996 13.1,-4.4 35.9,9 103.9,58.5 317.5,52.7 52.4,-1.4 40.3,6.1 36.6,53.400004 -13.2,169 14.7,228.3 20.4,284.9 0.2,2.2 3.2,16.4 -10.9,19.1 -7.2,1.4 -76.2,9.2 -110.2,1 -11.1,-2.7 -12.1,-13.1 -12.2,-18.7 -1,-39.2 -2.3,-74.8 -2.3,-155.1 0,-1.3 -1.5,-2.1 -2.5,-1.3 -18.7,14.5 -123.7,119.5 -178.7,172.9 -3.4,3.3 -4.8,6.5 -4.9,9.7 -0.1,5.5 6.8,16.6 9.5,22.5 26.3,58 51.9,147.2 50,216.7 1.2,152.1 -74.6,307.7 -231.2,312.8 -126.2,6.9 -237.8,-105.8 -249,-241 -0.3,-3.1 -3,-6.1 -6.1,-6.7 -147.499998,-26.3 -212.499998,-107.3 -212.199998,-230.2 0.4,-136.9 102.2,-188.9 116.7,-196.5 101.099998,-53.2 237.699998,-65.2 421.199998,30.2 9.9,5 9.7,6.2 14.1,6.2 3.4,0 7.1,-2.3 13,-8.1 54.6,-54.3 160,-152.4 176,-172.5 z m -291.5,687.5 c 106.3,1.6 133.6,-110 123.5,-229.1 -10.6,-124.3 -62.2,-208.3 -227,-228.1 -98.7,-11.9 -174.3,-0.8 -201,54.5 -47.599998,98.5 64.8,189.2 163.9,203.7 3.2,0.5 5.5,3.4 5.3,6.6 -9.1,114.6 48.5,191.1 135.3,192.4 z" /><style
   type="text/css"
   id="style847">
	.st0{fill:#00AAFF;stroke:#00AAFF;stroke-width:0.5;stroke-linecap:round;stroke-linejoin:round;}
</style><path
   id="Fill_Original"
   class="st0"
   d="m 570.25739,783.71673 c -78.5,13.6 -162.7,14.6 -164.9,14.6 -1.9,-0.2 -2.4,-0.8 -2.4,-2.1 0.5,-13.6 1.9,-18.8 6.3,-27.3 2.6,-5 4.7,-8.5 9.4,-11.5 264.2,-166 264,-330.5 210.9,-403.8 -60.1,-83 -139.1,-58.6 -152.5,-54.9 -2.1,0.6 -3,-0.5 -1.7,-1.8 0,0 95.8,-101 96.1,-101.3 7.6,-8.5 7.4,-13.1 -2.8,-17.3 -9,-3.7 -77.2,-29.3 -100.1,-38.1 -10.3,-4 -12.9,-2.6 -15.8,8 -12,43.9 -33,136.6 -61.3,174.2 -7.5,10 -19.3,22.6 -28.1,22.3 h -0.8 c -8.8,0.3 -20.6,-12.3 -28.1,-22.3 -28.2,-37.7 -49.2,-130.5 -61.2,-174.3 -2.9,-10.6 -5.5,-12 -15.8,-8 -22.9,8.8 -91.2,34.4 -100.1,38.1 -10.2,4.2 -10.4,8.9 -2.8,17.3 0.3,0.3 96.1,101.3 96.1,101.3 1.2,1.2 0.4,2.3 -1.7,1.8 -13.4,-3.6 -92.4,-28.1 -152.499996,55 -53.1,73.3 -53.3,237.8 210.899996,403.8 4.7,3 6.8,6.6 9.4,11.5 4.5,8.5 5.9,13.7 6.3,27.3 0,1.3 -0.5,1.9 -2.4,2.1 -2.3,0 -86.4,-1 -164.9,-14.6 -5.4,-0.9 -10,1 -10,7.6 0,18.5 -0.9,73.7 -0.6,96.4 0.1,5.4 1.3,7.8 3.4,10.2 0.6,0.7 1.3,1.2 2.1,1.6 1.6,0.7 4.5,1.4 8.8,0 80,-24.6 160.7,-25.7 160.7,-25.7 1.5,-0.1 2.8,1.1 2.8,2.7 -1.2,21.9 -12.6,165.79997 -38.3,233.19997 -1.9,5 -6.3,13.6 3.5,13.7 h 74.7 0.3 74.7 c 9.8,-0.1 5.4,-8.6 3.5,-13.7 -25.7,-67.4 -37.1,-211.29997 -38.3,-233.19997 -0.1,-1.6 1.2,-2.8 2.8,-2.7 0,0 80.7,1.1 160.7,25.7 4.3,1.3 7.2,0.7 8.8,0 0.8,-0.4 1.5,-0.9 2.1,-1.6 2.2,-2.5 3.3,-4.8 3.4,-10.2 0.4,-22.7 -0.6,-77.9 -0.6,-96.4 0,-6.7 -4.7,-8.6 -10,-7.6 z m -207.1,-87.6 c 0,0 0.1,0 0.1,0 -96.2,-0.1 -224.9,-161.3 -201.7,-260.7 14,-59.7 114.7,-101.7 189.3,-9.5 5.3,6.5 8.4,7.4 11.8,7.3 h 0.5 0.3 0.5 c 3.4,0 6.5,-0.8 11.8,-7.3 74.5,-92.2 175.3,-50.1 189.3,9.5 23.2,99.4 -105.5,260.6 -201.7,260.7 0,0 0.1,0 0.1,0 z" /><style
   type="text/css"
   id="style859">
	.st0{fill:#FF92F7;}
</style><path
   id="Fill"
   class="st0"
   d="m 518.21286,18.595868 c 87,43.7 146.8,133.700002 146.8,237.700002 0,146.8 -119,265.9 -265.9,265.9 -146.9,0 -265.9,-119 -265.9,-265.9 0,-104 59.8,-194.000002 146.8,-237.700002 -219.700004,53.4 -383,251.400002 -383,487.700002 0,277.3 224.8,502.20003 502.2,502.20003 277.3,0 502.2,-224.80003 502.2,-502.20003 -0.1,-236.3 -163.4,-434.300002 -383.2,-487.700002 z" /><style
   type="text/css"
   id="style871">
	.st0{fill:#FFCE00;stroke:#FFCE00;stroke-miterlimit:10;}
</style><path
   id="Fill-1"
   class="st0"
   d="m 514.89962,55.611092 m 2.4,943.099998 m -1.2,-943.099998 v 0 c -1.5,0 -2.9,-0.8 -3.7,-2.1 -15.7,-24.9 -73.4,-53.80000013 -146,-51.7000001 -48.1,1.4 -97.2,23.5000001 -128.9,52.2000001 -42.3,38.4 -65.4,86.499998 -79.3,151.299998 -30.5,141.7 70,338.9 280.1,416.8 17.8,6.6 20.5,36 19.5,35.7 -2.7,0 -140,5 -209.9,-25.3 -6,-2.6 -12,1.2 -12,9.1 0,22.1 -1.1,88.4 -0.7,115.6 0.1,6.5 1.5,9.3 4.1,12.2 0.7,0.8 1.5,1.5 2.5,1.9 1.9,0.9 5.4,1.7 10.6,0.1 95.9,-29.5 204.6,-30.8 204.6,-30.8 1.9,-0.1 3.4,1.4 3.3,3.2 -1.4,26.2 10.4,131.7 -41,235.7 -2.9,5.8 -4.6,19.1 7.1,19.2 h 89.2 -0.3 89.2 c 11.8,-0.1 10,-13.4 7.1,-19.2 -51.4,-104 -39.6,-209.5 -41,-235.7 -0.1,-1.9 1.5,-3.4 3.3,-3.2 0,0 108.7,1.3 204.6,30.8 5.2,1.6 8.6,0.8 10.6,-0.1 1,-0.4 1.8,-1.1 2.5,-1.9 2.6,-2.9 4,-5.7 4.1,-12.2 0.4,-27.2 -0.7,-93.5 -0.7,-115.6 0,-7.9 -6.1,-11.7 -12,-9.1 -69.9,30.3 -207.2,25.3 -209.9,25.3 -1,0.3 1.7,-29.1 19.5,-35.7 210.2,-77.8 310.6,-275 280.1,-416.8 -13.9,-64.8 -37,-112.899998 -79.3,-151.299998 -31.7,-28.7 -80.8,-50.9000001 -128.9,-52.2000001 -72.6,-2.00000003 -130.3,26.8000001 -146,51.7000001 -0.8,1.3 -2.2,2.1 -3.7,2.1 v 0 m -1.6,483.399998 c -113.6,-17.9 -291.2,-190.4 -243.6,-333.7 27,-81.2 134.6,-145.999998 227.1,-45.8 6.8,7.4 12.1,9.5 16.2,9.5 h 1.3 0.6 1.3 c 4.1,0 9.4,-2.1 16.2,-9.5 92.5,-100.199998 200.1,-35.4 227.1,45.8 47.6,143.3 -130,315.9 -243.6,333.7 l -1.1,0.1 z" /></svg>
