<?xml version="1.0" encoding="utf-8"?>
<!-- Generator: Adobe Illustrator 26.3.1, SVG Export Plug-In . SVG Version: 6.00 Build 0)  -->
<svg version="1.1" id="Layer_1" xmlns="http://www.w3.org/2000/svg" xmlns:xlink="http://www.w3.org/1999/xlink" x="0px" y="0px"
	 viewBox="0 0 2973.4 2097.8" style="enable-background:new 0 0 2973.4 2097.8;" xml:space="preserve">
<style type="text/css">
	.st0{fill:#18988B;stroke:#231F20;stroke-miterlimit:10;}
	.st1{fill:#18988B;stroke:#231F20;stroke-width:0.5;stroke-miterlimit:10;}
	.st2{fill:#18988B;stroke:#030202;stroke-miterlimit:10;}
	.st3{fill:#76BC21;stroke:#231F20;stroke-miterlimit:10;}
	.st4{fill:#FAE345;stroke:#231F20;stroke-miterlimit:10;}
</style>
<g>
	<g>
		<path class="st0" d="M1375.2,1009.4l163.1,1l7.8,4l173.4,0.5l55.1-48l0.4-399.1l-55.6-44.1h-171.9l-7.4,7.8h-163.8L1330,578v396
			L1375.2,1009.4L1375.2,1009.4z M1745.6,757.9c5.1,0,9.1,4.3,9.1,9.5s-4.1,9.5-9.1,9.5s-9.1-4.3-9.1-9.5S1740.5,757.9,1745.6,757.9
			z M1376.4,555.2L1376.4,555.2v12 M1376.4,537.3L1376.4,537.3v12 M1376.4,1004.5L1376.4,1004.5v5 M1376.4,986.5L1376.4,986.5v12
			 M1376.4,968.5L1376.4,968.5v12 M1376.4,950.5L1376.4,950.5v12 M1376.4,932.6L1376.4,932.6v12 M1376.4,914.6L1376.4,914.6v12
			 M1376.4,896.6L1376.4,896.6v12 M1376.4,878.7L1376.4,878.7v12 M1376.4,860.7L1376.4,860.7v12 M1376.4,842.7L1376.4,842.7v12
			 M1376.4,824.8L1376.4,824.8v12 M1376.4,806.8L1376.4,806.8v12 M1376.4,800.8v-12l0,0V800.8z M1376.4,770.9L1376.4,770.9v12
			 M1376.4,752.9L1376.4,752.9v12 M1376.4,734.9L1376.4,734.9v12 M1376.4,717L1376.4,717v12 M1376.4,699L1376.4,699v12 M1376.4,681
			L1376.4,681v12 M1376.4,663L1376.4,663v12 M1376.4,645.1L1376.4,645.1v12 M1376.4,627.1L1376.4,627.1v12 M1376.4,609.1
			L1376.4,609.1v12 M1376.4,591.2L1376.4,591.2v12 M1376.4,573.2L1376.4,573.2v12 M1547.6,549.2L1547.6,549.2v12 M1547.6,531.3
			L1547.6,531.3v12 M1547.6,998.5L1547.6,998.5v5 M1547.6,980.5L1547.6,980.5v12 M1547.6,962.5L1547.6,962.5v12 M1547.6,944.5
			L1547.6,944.5v12 M1547.6,926.6L1547.6,926.6v12 M1547.6,908.6L1547.6,908.6v12 M1547.6,890.6L1547.6,890.6v12 M1547.6,872.7
			L1547.6,872.7v12 M1547.6,854.7L1547.6,854.7v12 M1547.6,836.7L1547.6,836.7v12 M1547.6,818.8L1547.6,818.8v12 M1547.6,800.8
			L1547.6,800.8v12 M1547.6,794.8v-12l0,0V794.8z M1547.6,764.9L1547.6,764.9v12 M1547.6,746.9L1547.6,746.9v12 M1547.6,728.9
			L1547.6,728.9v12 M1547.6,711L1547.6,711v12 M1547.6,693L1547.6,693v12 M1547.6,675L1547.6,675v12 M1547.6,657L1547.6,657v12
			 M1547.6,639.1L1547.6,639.1v12 M1547.6,621.1L1547.6,621.1v12 M1547.6,603.1L1547.6,603.1v12 M1547.6,585.2L1547.6,585.2v12
			 M1547.6,567.2L1547.6,567.2v12 M1718.7,549.2L1718.7,549.2v12 M1718.7,531.3L1718.7,531.3v12 M1718.7,998.5L1718.7,998.5v5
			 M1718.7,980.5L1718.7,980.5v12 M1718.7,962.5L1718.7,962.5v12 M1718.7,944.5L1718.7,944.5v12 M1718.7,926.6L1718.7,926.6v12
			 M1718.7,908.6L1718.7,908.6v12 M1718.7,890.6L1718.7,890.6v12 M1718.7,872.7L1718.7,872.7v12 M1718.7,854.7L1718.7,854.7v12
			 M1718.7,836.7L1718.7,836.7v12 M1718.7,818.8L1718.7,818.8v12 M1718.7,800.8L1718.7,800.8v12 M1718.7,794.8v-12l0,0V794.8z
			 M1718.7,764.9L1718.7,764.9v12 M1718.7,746.9L1718.7,746.9v12 M1718.7,728.9L1718.7,728.9v12 M1718.7,711L1718.7,711v12
			 M1718.7,693L1718.7,693v12 M1718.7,675L1718.7,675v12 M1718.7,657L1718.7,657v12 M1718.7,639.1L1718.7,639.1v12 M1718.7,621.1
			L1718.7,621.1v12 M1718.7,603.1L1718.7,603.1v12 M1718.7,585.2L1718.7,585.2v12 M1718.7,567.2L1718.7,567.2v12"/>
		<path class="st0" d="M2868.2,522.9l-163.1-1l-7.8-4l-173.4-0.5l-55.1,48l-0.4,399.1l55.6,44.1h171.9l7.4-7.8h163.8l46.4-46.5v-396
			L2868.2,522.9L2868.2,522.9z M2497.8,774.4c-5.1,0-9.1-4.3-9.1-9.5s4.1-9.5,9.1-9.5s9.1,4.3,9.1,9.5S2502.9,774.4,2497.8,774.4z
			 M2524.7,549.7L2524.7,549.7v12 M2524.7,531.8L2524.7,531.8v12 M2524.7,999L2524.7,999v5 M2524.7,981L2524.7,981v12 M2524.7,963
			L2524.7,963v12 M2524.7,945L2524.7,945v12 M2524.7,927.1L2524.7,927.1v12 M2524.7,909.1L2524.7,909.1v12 M2524.7,891.1
			L2524.7,891.1v12 M2524.7,873.2L2524.7,873.2v12 M2524.7,855.2L2524.7,855.2v12 M2524.7,837.2L2524.7,837.2v12 M2524.7,819.3
			L2524.7,819.3v12 M2524.7,801.3L2524.7,801.3v12 M2524.7,795.3v-12l0,0V795.3z M2524.7,765.4L2524.7,765.4v12 M2524.7,747.4
			L2524.7,747.4v12 M2524.7,729.4L2524.7,729.4v12 M2524.7,711.5L2524.7,711.5v12 M2524.7,693.5L2524.7,693.5v12 M2524.7,675.5
			L2524.7,675.5v12 M2524.7,657.5L2524.7,657.5v12 M2524.7,639.6L2524.7,639.6v12 M2524.7,621.6L2524.7,621.6v12 M2524.7,603.6
			L2524.7,603.6v12 M2524.7,585.7L2524.7,585.7v12 M2524.7,567.7L2524.7,567.7v12 M2695.8,543.7L2695.8,543.7v12 M2695.8,525.8
			L2695.8,525.8v12 M2695.8,993L2695.8,993v5 M2695.8,975L2695.8,975v12 M2695.8,957L2695.8,957v12 M2695.8,939L2695.8,939v12
			 M2695.8,921.1L2695.8,921.1v12 M2695.8,903.1L2695.8,903.1v12 M2695.8,885.1L2695.8,885.1v12 M2695.8,867.2L2695.8,867.2v12
			 M2695.8,849.2L2695.8,849.2v12 M2695.8,831.2L2695.8,831.2v12 M2695.8,813.3L2695.8,813.3v12 M2695.8,795.3L2695.8,795.3v12
			 M2695.8,789.3v-12l0,0V789.3z M2695.8,759.4L2695.8,759.4v12 M2695.8,741.4L2695.8,741.4v12 M2695.8,723.4L2695.8,723.4v12
			 M2695.8,705.5L2695.8,705.5v12 M2695.8,687.5L2695.8,687.5v12 M2695.8,669.5L2695.8,669.5v12 M2695.8,651.5L2695.8,651.5v12
			 M2695.8,633.6L2695.8,633.6v12 M2695.8,615.6L2695.8,615.6v12 M2695.8,597.6L2695.8,597.6v12 M2695.8,579.7L2695.8,579.7v12
			 M2695.8,561.7L2695.8,561.7v12 M2866.9,543.7L2866.9,543.7v12 M2866.9,525.8L2866.9,525.8v12 M2866.9,993L2866.9,993v5
			 M2866.9,975L2866.9,975v12 M2866.9,957L2866.9,957v12 M2866.9,939L2866.9,939v12 M2866.9,921.1L2866.9,921.1v12 M2866.9,903.1
			L2866.9,903.1v12 M2866.9,885.1L2866.9,885.1v12 M2866.9,867.2L2866.9,867.2v12 M2866.9,849.2L2866.9,849.2v12 M2866.9,831.2
			L2866.9,831.2v12 M2866.9,813.3L2866.9,813.3v12 M2866.9,795.3L2866.9,795.3v12 M2866.9,789.3v-12l0,0V789.3z M2866.9,759.4
			L2866.9,759.4v12 M2866.9,741.4L2866.9,741.4v12 M2866.9,723.4L2866.9,723.4v12 M2866.9,705.5L2866.9,705.5v12 M2866.9,687.5
			L2866.9,687.5v12 M2866.9,669.5L2866.9,669.5v12 M2866.9,651.5L2866.9,651.5v12 M2866.9,633.6L2866.9,633.6v12 M2866.9,615.6
			L2866.9,615.6v12 M2866.9,597.6L2866.9,597.6v12 M2866.9,579.7L2866.9,579.7v12 M2866.9,561.7L2866.9,561.7v12"/>
		<path class="st1" d="M2489.4,325.1V158h-92l-8.5-7.7l0,0l-31.8-32.2H2169h-24h-198.1l-32.3,32.2l0,0l-8,7.7h-92v167.1h83.2
			l7.9,4.2l-7.9,4.3h-83.2v165.2h89.5l1.6,2.6v489l-7.9,8.4h-83.2V1160h83.2l7.9,4.2l-7.9,4.2h-83.2v159.2l82.6,1l8.7,4.2l41,32
			H2145h24h188.1l40.7-31.7l8-4.5h83.6v-160.2h-83.2l-7.9-4.2l7.9-4.2h83.2V998.8h-83.2l-7.9-8.4v-489l1.9-2.5l89.2-0.1V333.6h-83.2
			l-7.9-4.3l7.9-4.2H2489.4z M1908.9,158L1908.9,158h6 M1938.8,158L1938.8,158h12 M1920.9,158L1920.9,158h12 M2388.1,158L2388.1,158
			h5 M2370.1,158L2370.1,158h12 M2352.1,158L2352.1,158h12 M2334.1,158L2334.1,158h12 M2316.2,158L2316.2,158h12 M2298.2,158
			L2298.2,158h12 M2280.2,158L2280.2,158h12 M2262.3,158L2262.3,158h12 M2244.3,158L2244.3,158h12 M2226.3,158L2226.3,158h12
			 M2208.4,158L2208.4,158h12 M2190.4,158L2190.4,158h12 M2184.4,158h-12l0,0H2184.4z M2154.5,158L2154.5,158h12 M2136.5,158
			L2136.5,158h12 M2118.5,158L2118.5,158h12 M2100.6,158L2100.6,158h12 M2082.6,158L2082.6,158h12 M2064.6,158L2064.6,158h12
			 M2046.6,158L2046.6,158h12 M2028.7,158L2028.7,158h12 M2010.7,158L2010.7,158h12 M1992.7,158L1992.7,158h12 M1974.8,158
			L1974.8,158h12 M1956.8,158L1956.8,158h12 M2397.8,494.8L2397.8,494.8v5 M2397.8,476.8L2397.8,476.8v12 M2397.8,458.8
			L2397.8,458.8v12 M2397.8,440.8L2397.8,440.8v12 M2397.8,422.9L2397.8,422.9v12 M2397.8,404.9L2397.8,404.9v12 M2397.8,386.9
			L2397.8,386.9v12 M2397.8,369L2397.8,369v12 M2397.8,351L2397.8,351v12 M2397.8,333L2397.8,333v12 M2397.8,315.1L2397.8,315.1v12
			 M2397.8,297.1L2397.8,297.1v12 M2397.8,291.1v-12l0,0V291.1z M2397.8,261.2L2397.8,261.2v12 M2397.8,243.2L2397.8,243.2v12
			 M2397.8,225.2L2397.8,225.2v12 M2397.8,207.3L2397.8,207.3v12 M2397.8,189.3L2397.8,189.3v12 M2397.8,171.3L2397.8,171.3v12
			 M2397.8,162.3v-3v6 M1906.3,494.6L1906.3,494.6v5 M1906.3,476.6L1906.3,476.6v12 M1906.3,458.6L1906.3,458.6v12 M1906.3,440.6
			L1906.3,440.6v12 M1906.3,422.7L1906.3,422.7v12 M1906.3,404.7L1906.3,404.7v12 M1906.3,386.7L1906.3,386.7v12 M1906.3,368.8
			L1906.3,368.8v12 M1906.3,350.8L1906.3,350.8v12 M1906.3,332.8L1906.3,332.8v12 M1906.3,314.9L1906.3,314.9v12 M1906.3,296.9
			L1906.3,296.9v12 M1906.3,290.9v-12l0,0V290.9z M1906.3,261L1906.3,261v12 M1906.3,243L1906.3,243v12 M1906.3,225L1906.3,225v12
			 M1906.3,207.1L1906.3,207.1v12 M1906.3,189.1L1906.3,189.1v12 M1906.3,171.1L1906.3,171.1v12 M1906.3,162.1v-3v6 M1908.9,329
			L1908.9,329h6 M1938.8,329L1938.8,329h12 M1920.9,329L1920.9,329h12 M2388.1,329L2388.1,329h5 M2370.1,329L2370.1,329h12
			 M2352.1,329L2352.1,329h12 M2334.1,329L2334.1,329h12 M2316.2,329L2316.2,329h12 M2298.2,329L2298.2,329h12 M2280.2,329
			L2280.2,329h12 M2262.3,329L2262.3,329h12 M2244.3,329L2244.3,329h12 M2226.3,329L2226.3,329h12 M2208.4,329L2208.4,329h12
			 M2190.4,329L2190.4,329h12 M2184.4,329h-12l0,0H2184.4z M2154.5,329L2154.5,329h12 M2136.5,329L2136.5,329h12 M2118.5,329
			L2118.5,329h12 M2100.6,329L2100.6,329h12 M2082.6,329L2082.6,329h12 M2064.6,329L2064.6,329h12 M2046.6,329L2046.6,329h12
			 M2028.7,329L2028.7,329h12 M2010.7,329L2010.7,329h12 M1992.7,329L1992.7,329h12 M1974.8,329L1974.8,329h12 M1956.8,329
			L1956.8,329h12 M1909.9,500.3L1909.9,500.3h6 M1939.8,500.3L1939.8,500.3h12 M1921.9,500.3L1921.9,500.3h12 M2389.1,500.3
			L2389.1,500.3h5 M2371.1,500.3L2371.1,500.3h12 M2353.1,500.3L2353.1,500.3h12 M2335.1,500.3L2335.1,500.3h12 M2317.2,500.3
			L2317.2,500.3h12 M2299.2,500.3L2299.2,500.3h12 M2281.2,500.3L2281.2,500.3h12 M2263.3,500.3L2263.3,500.3h12 M2245.3,500.3
			L2245.3,500.3h12 M2227.3,500.3L2227.3,500.3h12 M2209.4,500.3L2209.4,500.3h12 M2191.4,500.3L2191.4,500.3h12 M2185.4,500.3h-12
			l0,0H2185.4z M2155.5,500.3L2155.5,500.3h12 M2137.5,500.3L2137.5,500.3h12 M2119.5,500.3L2119.5,500.3h12 M2101.6,500.3
			L2101.6,500.3h12 M2083.6,500.3L2083.6,500.3h12 M2065.6,500.3L2065.6,500.3h12 M2047.6,500.3L2047.6,500.3h12 M2029.7,500.3
			L2029.7,500.3h12 M2011.7,500.3L2011.7,500.3h12 M1993.7,500.3L1993.7,500.3h12 M1975.8,500.3L1975.8,500.3h12 M1957.8,500.3
			L1957.8,500.3h12 M1909.1,991.8L1909.1,991.8h6 M1939,991.8L1939,991.8h12 M1921.1,991.8L1921.1,991.8h12 M2388.3,991.8
			L2388.3,991.8h5 M2370.3,991.8L2370.3,991.8h12 M2352.3,991.8L2352.3,991.8h12 M2334.3,991.8L2334.3,991.8h12 M2316.4,991.8
			L2316.4,991.8h12 M2298.4,991.8L2298.4,991.8h12 M2280.4,991.8L2280.4,991.8h12 M2262.5,991.8L2262.5,991.8h12 M2244.5,991.8
			L2244.5,991.8h12 M2226.5,991.8L2226.5,991.8h12 M2208.6,991.8L2208.6,991.8h12 M2190.6,991.8L2190.6,991.8h12 M2184.6,991.8h-12
			l0,0H2184.6z M2154.7,991.8L2154.7,991.8h12 M2136.7,991.8L2136.7,991.8h12 M2118.7,991.8L2118.7,991.8h12 M2100.8,991.8
			L2100.8,991.8h12 M2082.8,991.8L2082.8,991.8h12 M2064.8,991.8L2064.8,991.8h12 M2046.8,991.8L2046.8,991.8h12 M2028.9,991.8
			L2028.9,991.8h12 M2010.9,991.8L2010.9,991.8h12 M1992.9,991.8L1992.9,991.8h12 M1975,991.8L1975,991.8h12 M1957,991.8L1957,991.8
			h12 M2398,1325.7L2398,1325.7v5 M2398,1310.6L2398,1310.6v12 M2398,1292.6L2398,1292.6v12 M2398,1274.6L2398,1274.6v12
			 M2398,1256.7L2398,1256.7v12 M2398,1238.7L2398,1238.7v12 M2398,1220.7L2398,1220.7v12 M2398,1202.8L2398,1202.8v12 M2398,1184.8
			L2398,1184.8v12 M2398,1166.8L2398,1166.8v12 M2398,1148.9L2398,1148.9v12 M2398,1130.9L2398,1130.9v12 M2398,1124.9v-12l0,0
			V1124.9z M2398,1095L2398,1095v12 M2398,1077L2398,1077v12 M2398,1059L2398,1059v12 M2398,1041.1L2398,1041.1v12 M2398,1023.1
			L2398,1023.1v12 M2398,1005.1L2398,1005.1v12 M2398,996.1v-3v6 M1906.5,1328.4L1906.5,1328.4v5 M1906.5,1310.4L1906.5,1310.4v12
			 M1906.5,1292.4L1906.5,1292.4v12 M1906.5,1274.4L1906.5,1274.4v12 M1906.5,1256.5L1906.5,1256.5v12 M1906.5,1238.5L1906.5,1238.5
			v12 M1906.5,1220.5L1906.5,1220.5v12 M1906.5,1202.6L1906.5,1202.6v12 M1906.5,1184.6L1906.5,1184.6v12 M1906.5,1166.6
			L1906.5,1166.6v12 M1906.5,1148.7L1906.5,1148.7v12 M1906.5,1130.7L1906.5,1130.7v12 M1906.5,1124.7v-12l0,0V1124.7z
			 M1906.5,1094.8L1906.5,1094.8v12 M1906.5,1076.8L1906.5,1076.8v12 M1906.5,1058.8L1906.5,1058.8v12 M1906.5,1040.9L1906.5,1040.9
			v12 M1906.5,1022.9L1906.5,1022.9v12 M1906.5,1004.9L1906.5,1004.9v12 M1906.5,995.9v-3v6 M1909.1,1162.8L1909.1,1162.8h6
			 M1939,1162.8L1939,1162.8h12 M1921.1,1162.8L1921.1,1162.8h12 M2388.3,1162.8L2388.3,1162.8h5 M2370.3,1162.8L2370.3,1162.8h12
			 M2352.3,1162.8L2352.3,1162.8h12 M2334.3,1162.8L2334.3,1162.8h12 M2316.4,1162.8L2316.4,1162.8h12 M2298.4,1162.8L2298.4,1162.8
			h12 M2280.4,1162.8L2280.4,1162.8h12 M2262.5,1162.8L2262.5,1162.8h12 M2244.5,1162.8L2244.5,1162.8h12 M2226.5,1162.8
			L2226.5,1162.8h12 M2208.6,1162.8L2208.6,1162.8h12 M2190.6,1162.8L2190.6,1162.8h12 M2184.6,1162.8h-12l0,0H2184.6z
			 M2154.7,1162.8L2154.7,1162.8h12 M2136.7,1162.8L2136.7,1162.8h12 M2118.7,1162.8L2118.7,1162.8h12 M2100.8,1162.8L2100.8,1162.8
			h12 M2082.8,1162.8L2082.8,1162.8h12 M2064.8,1162.8L2064.8,1162.8h12 M2046.8,1162.8L2046.8,1162.8h12 M2028.9,1162.8
			L2028.9,1162.8h12 M2010.9,1162.8L2010.9,1162.8h12 M1992.9,1162.8L1992.9,1162.8h12 M1975,1162.8L1975,1162.8h12 M1957,1162.8
			L1957,1162.8h12 M1910.1,1334.1L1910.1,1334.1h6 M1940,1334.1L1940,1334.1h12 M1922.1,1334.1L1922.1,1334.1h12 M2389.3,1334.1
			L2389.3,1334.1h5 M2371.3,1334.1L2371.3,1334.1h12 M2353.3,1334.1L2353.3,1334.1h12 M2335.3,1334.1L2335.3,1334.1h12
			 M2317.4,1334.1L2317.4,1334.1h12 M2299.4,1334.1L2299.4,1334.1h12 M2281.4,1334.1L2281.4,1334.1h12 M2263.5,1334.1L2263.5,1334.1
			h12 M2245.5,1334.1L2245.5,1334.1h12 M2227.5,1334.1L2227.5,1334.1h12 M2209.6,1334.1L2209.6,1334.1h12 M2191.6,1334.1
			L2191.6,1334.1h12 M2185.6,1334.1h-12l0,0H2185.6z M2155.7,1334.1L2155.7,1334.1h12 M2137.7,1334.1L2137.7,1334.1h12
			 M2119.7,1334.1L2119.7,1334.1h12 M2101.8,1334.1L2101.8,1334.1h12 M2083.8,1334.1L2083.8,1334.1h12 M2065.8,1334.1L2065.8,1334.1
			h12 M2047.8,1334.1L2047.8,1334.1h12 M2029.9,1334.1L2029.9,1334.1h12 M2011.9,1334.1L2011.9,1334.1h12 M1993.9,1334.1
			L1993.9,1334.1h12 M1976,1334.1L1976,1334.1h12 M1958,1334.1L1958,1334.1h12"/>
	</g>
	<path class="st2" d="M99.6,270.4h67.1l8-8h74.8L310,308l-1.1,393.2l-59.5,69.1l-76.4-0.5l-8.4-4.2l-66.5-1L59.4,728V318.5
		L99.6,270.4L99.6,270.4z M280.7,506.9c4.1,0,7.3-3.3,7.3-7.4s-3.3-7.4-7.3-7.4s-7.3,3.3-7.3,7.4S276.6,506.9,280.7,506.9z
		 M250.8,267.3L250.8,267.3v6 M250.8,297.2L250.8,297.2v12 M250.8,279.3L250.8,279.3v12 M250.8,746.5L250.8,746.5v12 M250.8,728.5
		L250.8,728.5v12 M250.8,710.5L250.8,710.5v12 M250.8,692.5L250.8,692.5v12 M250.8,674.6L250.8,674.6v12 M250.8,656.6L250.8,656.6
		v12 M250.8,638.6L250.8,638.6v12 M250.8,620.7L250.8,620.7v12 M250.8,602.7L250.8,602.7v12 M250.8,584.7L250.8,584.7v12
		 M250.8,566.8L250.8,566.8v12 M250.8,548.8L250.8,548.8v12 M250.8,542.8v-12l0,0V542.8z M250.8,512.9L250.8,512.9v12 M250.8,494.9
		L250.8,494.9v12 M250.8,476.9L250.8,476.9v12 M250.8,459L250.8,459v12 M250.8,441L250.8,441v12 M250.8,423L250.8,423v12 M250.8,405
		L250.8,405v12 M250.8,387.1L250.8,387.1v12 M250.8,369.1L250.8,369.1v12 M250.8,351.1L250.8,351.1v12 M250.8,333.2L250.8,333.2v12
		 M250.8,315.2L250.8,315.2v12 M179.6,270.7L179.6,270.7v6 M179.6,300.6L179.6,300.6v12 M179.6,282.7L179.6,282.7v12 M179.6,749.9
		L179.6,749.9v12 M179.6,731.9L179.6,731.9v12 M179.6,713.9L179.6,713.9v12 M179.6,695.9L179.6,695.9v12 M179.6,678L179.6,678v12
		 M179.6,660L179.6,660v12 M179.6,642L179.6,642v12 M179.6,624.1L179.6,624.1v12 M179.6,606.1L179.6,606.1v12 M179.6,588.1
		L179.6,588.1v12 M179.6,570.2L179.6,570.2v12 M179.6,552.2L179.6,552.2v12 M179.6,546.2v-12l0,0V546.2z M179.6,516.3L179.6,516.3
		v12 M179.6,498.3L179.6,498.3v12 M179.6,480.3L179.6,480.3v12 M179.6,462.4L179.6,462.4v12 M179.6,444.4L179.6,444.4v12
		 M179.6,426.4L179.6,426.4v12 M179.6,408.4L179.6,408.4v12 M179.6,390.5L179.6,390.5v12 M179.6,372.5L179.6,372.5v12 M179.6,354.5
		L179.6,354.5v12 M179.6,336.6L179.6,336.6v12 M179.6,318.6L179.6,318.6v12 M107.8,297.2L107.8,297.2v12 M107.8,279.3L107.8,279.3
		v12 M107.8,746.5L107.8,746.5v12 M107.8,728.5L107.8,728.5v12 M107.8,710.5L107.8,710.5v12 M107.8,692.5L107.8,692.5v12
		 M107.8,674.6L107.8,674.6v12 M107.8,656.6L107.8,656.6v12 M107.8,638.6L107.8,638.6v12 M107.8,620.7L107.8,620.7v12 M107.8,602.7
		L107.8,602.7v12 M107.8,584.7L107.8,584.7v12 M107.8,566.8L107.8,566.8v12 M107.8,548.8L107.8,548.8v12 M107.8,542.8v-12l0,0V542.8
		z M107.8,512.9L107.8,512.9v12 M107.8,494.9L107.8,494.9v12 M107.8,476.9L107.8,476.9v12 M107.8,459L107.8,459v12 M107.8,441
		L107.8,441v12 M107.8,423L107.8,423v12 M107.8,405L107.8,405v12 M107.8,387.1L107.8,387.1v12 M107.8,369.1L107.8,369.1v12
		 M107.8,351.1L107.8,351.1v12 M107.8,333.2L107.8,333.2v12 M107.8,315.2L107.8,315.2v12"/>
	<path class="st0" d="M1165.8,271.1l-66.5-1l-8.4-4.2l-76.4-0.5l-59.4,69.1L954,727.7l60.5,45.6h74.8l8-8h67.1l40.1-48.2V307.7
		L1165.8,271.1z M983.4,543.4c-4,0-7.3-3.2-7.3-7.3c0-4,3.2-7.3,7.3-7.3c4,0,7.3,3.3,7.3,7.3S987.4,543.4,983.4,543.4z M1013,762.7
		L1013,762.7v-6 M1013,732.8L1013,732.8v-12 M1013,750.7L1013,750.7v-12 M1013,283.5L1013,283.5v-12 M1013,301.5L1013,301.5v-12
		 M1013,319.5L1013,319.5v-12 M1013,337.5L1013,337.5v-12 M1013,355.4L1013,355.4v-12 M1013,373.4L1013,373.4v-12 M1013,391.4
		L1013,391.4v-12 M1013,409.3L1013,409.3v-12 M1013,427.3L1013,427.3v-12 M1013,445.3L1013,445.3v-12 M1013,463.2L1013,463.2v-12
		 M1013,481.2L1013,481.2v-12 M1013,487.2v12l0,0V487.2z M1013,517.1L1013,517.1v-12 M1013,535.1L1013,535.1v-12 M1013,553.1
		L1013,553.1v-12 M1013,571L1013,571v-12 M1013,589L1013,589v-12 M1013,607L1013,607v-12 M1013,625L1013,625v-12 M1013,642.9
		L1013,642.9v-12 M1013,660.9L1013,660.9v-12 M1013,678.9L1013,678.9v-12 M1013,696.8L1013,696.8v-12 M1013,714.8L1013,714.8v-12
		 M1084.2,759.3L1084.2,759.3v-6 M1084.2,729.4L1084.2,729.4v-12 M1084.2,747.3L1084.2,747.3v-12 M1084.2,280.1L1084.2,280.1v-12
		 M1084.2,298.1L1084.2,298.1v-12 M1084.2,316.1L1084.2,316.1v-12 M1084.2,334.1L1084.2,334.1v-12 M1084.2,352L1084.2,352v-12
		 M1084.2,370L1084.2,370v-12 M1084.2,388L1084.2,388v-12 M1084.2,405.9L1084.2,405.9v-12 M1084.2,423.9L1084.2,423.9v-12
		 M1084.2,441.9L1084.2,441.9v-12 M1084.2,459.8L1084.2,459.8v-12 M1084.2,477.8L1084.2,477.8v-12 M1084.2,483.8v12l0,0V483.8z
		 M1084.2,513.7L1084.2,513.7v-12 M1084.2,531.7L1084.2,531.7v-12 M1084.2,549.7L1084.2,549.7v-12 M1084.2,567.6L1084.2,567.6v-12
		 M1084.2,585.6L1084.2,585.6v-12 M1084.2,603.6L1084.2,603.6v-12 M1084.2,621.6L1084.2,621.6v-12 M1084.2,639.5L1084.2,639.5v-12
		 M1084.2,657.5L1084.2,657.5v-12 M1084.2,675.5L1084.2,675.5v-12 M1084.2,693.4L1084.2,693.4v-12 M1084.2,711.4L1084.2,711.4v-12
		 M1156,732.8L1156,732.8v-12 M1156,750.7L1156,750.7v-12 M1156,283.5L1156,283.5v-12 M1156,301.5L1156,301.5v-12 M1156,319.5
		L1156,319.5v-12 M1156,337.5L1156,337.5v-12 M1156,355.4L1156,355.4v-12 M1156,373.4L1156,373.4v-12 M1156,391.4L1156,391.4v-12
		 M1156,409.3L1156,409.3v-12 M1156,427.3L1156,427.3v-12 M1156,445.3L1156,445.3v-12 M1156,463.2L1156,463.2v-12 M1156,481.2
		L1156,481.2v-12 M1156,487.2v12l0,0V487.2z M1156,517.1L1156,517.1v-12 M1156,535.1L1156,535.1v-12 M1156,553.1L1156,553.1v-12
		 M1156,571L1156,571v-12 M1156,589L1156,589v-12 M1156,607L1156,607v-12 M1156,625L1156,625v-12 M1156,642.9L1156,642.9v-12
		 M1156,660.9L1156,660.9v-12 M1156,678.9L1156,678.9v-12 M1156,696.8L1156,696.8v-12 M1156,714.8L1156,714.8v-12"/>
	<path class="st2" d="M982.1,190.5v-67.1h-94.9l-8.2-7.9l-33.7-33.3H647.4h-24.8H424.7L391,115.5l-9.3,7.9h-93.8v67.1h86l8.3,4.4
		l-8.3,4.4h-86v67.3h92.6l1.7,4.9V772l-8.3,0.7h-86v66.1h86l8.3,4.4l-8.3,4.4h-86v67.7h93.7l43.1,39.3h197.9h24.8h197.9l43.2-39.3
		h93.6v-67.7h-86l-8.2-4.4l8.2-4.4h86v-66.1h-86l-8.2-0.7V271.5l2-4.8l92.2-0.2v-67.2h-86l-8.2-4.4l8.2-4.4L982.1,190.5L982.1,190.5
		z M387.8,123.1L387.8,123.1h6 M417.7,123.1L417.7,123.1h12 M399.8,123.1L399.8,123.1h12 M867,123.1L867,123.1h12 M849,123.1
		L849,123.1h12 M831,123.1L831,123.1h12 M813,123.1L813,123.1h12 M795.1,123.1L795.1,123.1h12 M777.1,123.1L777.1,123.1h12
		 M759.1,123.1L759.1,123.1h12 M741.2,123.1L741.2,123.1h12 M723.2,123.1L723.2,123.1h12 M705.2,123.1L705.2,123.1h12 M687.3,123.1
		L687.3,123.1h12 M669.3,123.1L669.3,123.1h12 M663.3,123.1h-12l0,0H663.3z M633.4,123.1L633.4,123.1h12 M615.4,123.1L615.4,123.1
		h12 M597.4,123.1L597.4,123.1h12 M579.5,123.1L579.5,123.1h12 M561.5,123.1L561.5,123.1h12 M543.5,123.1L543.5,123.1h12
		 M525.5,123.1L525.5,123.1h12 M507.6,123.1L507.6,123.1h12 M489.6,123.1L489.6,123.1h12 M471.6,123.1L471.6,123.1h12 M453.7,123.1
		L453.7,123.1h12 M435.7,123.1L435.7,123.1h12 M387.8,195.2L387.8,195.2h6 M417.7,195.2L417.7,195.2h12 M399.8,195.2L399.8,195.2h12
		 M867,195.2L867,195.2h12 M849,195.2L849,195.2h12 M831,195.2L831,195.2h12 M813,195.2L813,195.2h12 M795.1,195.2L795.1,195.2h12
		 M777.1,195.2L777.1,195.2h12 M759.1,195.2L759.1,195.2h12 M741.2,195.2L741.2,195.2h12 M723.2,195.2L723.2,195.2h12 M705.2,195.2
		L705.2,195.2h12 M687.3,195.2L687.3,195.2h12 M669.3,195.2L669.3,195.2h12 M663.3,195.2h-12l0,0H663.3z M633.4,195.2L633.4,195.2
		h12 M615.4,195.2L615.4,195.2h12 M597.4,195.2L597.4,195.2h12 M579.5,195.2L579.5,195.2h12 M561.5,195.2L561.5,195.2h12
		 M543.5,195.2L543.5,195.2h12 M525.5,195.2L525.5,195.2h12 M507.6,195.2L507.6,195.2h12 M489.6,195.2L489.6,195.2h12 M471.6,195.2
		L471.6,195.2h12 M453.7,195.2L453.7,195.2h12 M435.7,195.2L435.7,195.2h12 M387.8,267.3L387.8,267.3h6 M417.7,267.3L417.7,267.3h12
		 M399.8,267.3L399.8,267.3h12 M867,267.3L867,267.3h12 M849,267.3L849,267.3h12 M831,267.3L831,267.3h12 M813,267.3L813,267.3h12
		 M795.1,267.3L795.1,267.3h12 M777.1,267.3L777.1,267.3h12 M759.1,267.3L759.1,267.3h12 M741.2,267.3L741.2,267.3h12 M723.2,267.3
		L723.2,267.3h12 M705.2,267.3L705.2,267.3h12 M687.3,267.3L687.3,267.3h12 M669.3,267.3L669.3,267.3h12 M663.3,267.3h-12l0,0H663.3
		z M633.4,267.3L633.4,267.3h12 M615.4,267.3L615.4,267.3h12 M597.4,267.3L597.4,267.3h12 M579.5,267.3L579.5,267.3h12 M561.5,267.3
		L561.5,267.3h12 M543.5,267.3L543.5,267.3h12 M525.5,267.3L525.5,267.3h12 M507.6,267.3L507.6,267.3h12 M489.6,267.3L489.6,267.3
		h12 M471.6,267.3L471.6,267.3h12 M453.7,267.3L453.7,267.3h12 M435.7,267.3L435.7,267.3h12 M382.9,252.1L382.9,252.1v12
		 M382.9,234.1L382.9,234.1v12 M382.9,216.1L382.9,216.1v12 M382.9,198.1L382.9,198.1v12 M382.9,180.2L382.9,180.2v12 M382.9,162.2
		L382.9,162.2v12 M382.9,144.2L382.9,144.2v12 M382.9,126.3L382.9,126.3v12 M888.2,252.1L888.2,252.1v12 M888.2,234.1L888.2,234.1
		v12 M888.2,216.1L888.2,216.1v12 M888.2,198.1L888.2,198.1v12 M888.2,180.2L888.2,180.2v12 M888.2,162.2L888.2,162.2v12
		 M888.2,144.2L888.2,144.2v12 M888.2,126.3L888.2,126.3v12 M387.8,772.4L387.8,772.4h6 M417.7,772.4L417.7,772.4h12 M399.8,772.4
		L399.8,772.4h12 M867,772.4L867,772.4h12 M849,772.4L849,772.4h12 M831,772.4L831,772.4h12 M813,772.4L813,772.4h12 M795.1,772.4
		L795.1,772.4h12 M777.1,772.4L777.1,772.4h12 M759.1,772.4L759.1,772.4h12 M741.2,772.4L741.2,772.4h12 M723.2,772.4L723.2,772.4
		h12 M705.2,772.4L705.2,772.4h12 M687.3,772.4L687.3,772.4h12 M669.3,772.4L669.3,772.4h12 M663.3,772.4h-12l0,0H663.3z
		 M633.4,772.4L633.4,772.4h12 M615.4,772.4L615.4,772.4h12 M597.4,772.4L597.4,772.4h12 M579.5,772.4L579.5,772.4h12 M561.5,772.4
		L561.5,772.4h12 M543.5,772.4L543.5,772.4h12 M525.5,772.4L525.5,772.4h12 M507.6,772.4L507.6,772.4h12 M489.6,772.4L489.6,772.4
		h12 M471.6,772.4L471.6,772.4h12 M453.7,772.4L453.7,772.4h12 M435.7,772.4L435.7,772.4h12 M387.8,843.9L387.8,843.9h6
		 M417.7,843.9L417.7,843.9h12 M399.8,843.9L399.8,843.9h12 M867,843.9L867,843.9h12 M849,843.9L849,843.9h12 M831,843.9L831,843.9
		h12 M813,843.9L813,843.9h12 M795.1,843.9L795.1,843.9h12 M777.1,843.9L777.1,843.9h12 M759.1,843.9L759.1,843.9h12 M741.2,843.9
		L741.2,843.9h12 M723.2,843.9L723.2,843.9h12 M705.2,843.9L705.2,843.9h12 M687.3,843.9L687.3,843.9h12 M669.3,843.9L669.3,843.9
		h12 M663.3,843.9h-12l0,0H663.3z M633.4,843.9L633.4,843.9h12 M615.4,843.9L615.4,843.9h12 M597.4,843.9L597.4,843.9h12
		 M579.5,843.9L579.5,843.9h12 M561.5,843.9L561.5,843.9h12 M543.5,843.9L543.5,843.9h12 M525.5,843.9L525.5,843.9h12 M507.6,843.9
		L507.6,843.9h12 M489.6,843.9L489.6,843.9h12 M471.6,843.9L471.6,843.9h12 M453.7,843.9L453.7,843.9h12 M435.7,843.9L435.7,843.9
		h12 M389.6,915.6L389.6,915.6h6 M419.5,915.6L419.5,915.6h12 M401.6,915.6L401.6,915.6h12 M868.8,915.6L868.8,915.6h12
		 M850.8,915.6L850.8,915.6h12 M832.8,915.6L832.8,915.6h12 M814.8,915.6L814.8,915.6h12 M796.9,915.6L796.9,915.6h12 M778.9,915.6
		L778.9,915.6h12 M760.9,915.6L760.9,915.6h12 M742.9,915.6L742.9,915.6h12 M724.9,915.6L724.9,915.6h12 M706.9,915.6L706.9,915.6
		h12 M689,915.6L689,915.6h12 M671,915.6L671,915.6h12 M665,915.6h-12l0,0H665z M635.1,915.6L635.1,915.6h12 M617.1,915.6
		L617.1,915.6h12 M599.1,915.6L599.1,915.6h12 M581.3,915.6L581.3,915.6h12 M563.3,915.6L563.3,915.6h12 M545.3,915.6L545.3,915.6
		h12 M527.3,915.6L527.3,915.6h12 M509.3,915.6L509.3,915.6h12 M491.3,915.6L491.3,915.6h12 M473.3,915.6L473.3,915.6h12
		 M455.5,915.6L455.5,915.6h12 M437.5,915.6L437.5,915.6h12 M382.9,900.8L382.9,900.8v12 M382.9,882.8L382.9,882.8v12 M382.9,864.8
		L382.9,864.8v12 M382.9,846.8L382.9,846.8v12 M382.9,828.9L382.9,828.9v12 M382.9,810.9L382.9,810.9v12 M382.9,792.9L382.9,792.9
		v12 M382.9,775L382.9,775v12 M887.6,901.4L887.6,901.4v12 M887.6,883.4L887.6,883.4v12 M887.6,865.4L887.6,865.4v12 M887.6,847.4
		L887.6,847.4v12 M887.6,829.5L887.6,829.5v12 M887.6,811.5L887.6,811.5v12 M887.6,793.5L887.6,793.5v12 M887.6,775.6L887.6,775.6
		v12"/>
	<rect x="2252" y="1466.6" class="st3" width="489" height="482.4"/>
	<rect x="1726.1" y="1466.6" class="st4" width="489" height="482.4"/>
</g>
</svg>
