  0
SECTION
  2
HEADER
  9
$ACADVER
  1
AC1009
  9
$FILLMODE
 70
 0
  9
$SPLFRAME
 70
 1
  9
$EXTMIN
 10
0
 20
0
 30
0.0
  9
$EXTMAX
 10
41.6667
 20
41.6667
 30
0.0
  0
ENDSEC
  0
SECTION
  2
TABLES
  0
TABLE
  2
LAYER
 70
1
  0
LAYER
  2
0
 70
     0
 62
     7
  6
CONTINUOUS
  0
ENDTAB
  0
ENDSEC
  0
SECTION
  2
ENTITIES
  0
POLYLINE
  8
0
 62
     0
 66
     1
 10
0
 20
0
 30
0.0
 70
     1
 40
0
 41
0
  0
VERTEX
  8
0
 10
5.32081
 20
0
 30
0.0
 40
0
 41
0
  0
VERTEX
  8
0
 10
5.26426
 20
0.0283746
 30
0.0
 40
0
 41
0
  0
VERTEX
  8
0
 10
5.09868
 20
0.121202
 30
0.0
 40
0
 41
0
  0
VERTEX
  8
0
 10
4.88612
 20
0.256782
 30
0.0
 40
0
 41
0
  0
VERTEX
  8
0
 10
4.68375
 20
0.406088
 30
0.0
 40
0
 41
0
  0
VERTEX
  8
0
 10
4.49224
 20
0.568576
 30
0.0
 40
0
 41
0
  0
VERTEX
  8
0
 10
4.31222
 20
0.743435
 30
0.0
 40
0
 41
0
  0
VERTEX
  8
0
 10
4.14442
 20
0.930122
 30
0.0
 40
0
 41
0
  0
VERTEX
  8
0
 10
3.98947
 20
1.12798
 30
0.0
 40
0
 41
0
  0
VERTEX
  8
0
 10
3.84804
 20
1.33626
 30
0.0
 40
0
 41
0
  0
VERTEX
  8
0
 10
3.72076
 20
1.55436
 30
0.0
 40
0
 41
0
  0
VERTEX
  8
0
 10
3.60829
 20
1.78168
 30
0.0
 40
0
 41
0
  0
VERTEX
  8
0
 10
3.51133
 20
2.01747
 30
0.0
 40
0
 41
0
  0
VERTEX
  8
0
 10
3.4305
 20
2.26112
 30
0.0
 40
0
 41
0
  0
VERTEX
  8
0
 10
3.36649
 20
2.51193
 30
0.0
 40
0
 41
0
  0
VERTEX
  8
0
 10
3.31993
 20
2.76932
 30
0.0
 40
0
 41
0
  0
VERTEX
  8
0
 10
3.29156
 20
3.03261
 30
0.0
 40
0
 41
0
  0
VERTEX
  8
0
 10
3.28196
 20
3.23394
 30
0.0
 40
0
 41
0
  0
VERTEX
  8
0
 10
3.28196
 20
3.30106
 30
0.0
 40
0
 41
0
  0
VERTEX
  8
0
 10
3.28196
 20
3.39546
 30
0.0
 40
0
 41
0
  0
VERTEX
  8
0
 10
3.301
 20
3.67865
 30
0.0
 40
0
 41
0
  0
VERTEX
  8
0
 10
3.35693
 20
4.04525
 30
0.0
 40
0
 41
0
  0
VERTEX
  8
0
 10
3.44792
 20
4.39914
 30
0.0
 40
0
 41
0
  0
VERTEX
  8
0
 10
3.5721
 20
4.73839
 30
0.0
 40
0
 41
0
  0
VERTEX
  8
0
 10
3.7276
 20
5.06119
 30
0.0
 40
0
 41
0
  0
VERTEX
  8
0
 10
3.9126
 20
5.36567
 30
0.0
 40
0
 41
0
  0
VERTEX
  8
0
 10
4.12517
 20
5.6499
 30
0.0
 40
0
 41
0
  0
VERTEX
  8
0
 10
4.3635
 20
5.91217
 30
0.0
 40
0
 41
0
  0
VERTEX
  8
0
 10
4.62571
 20
6.1505
 30
0.0
 40
0
 41
0
  0
VERTEX
  8
0
 10
4.91
 20
6.36307
 30
0.0
 40
0
 41
0
  0
VERTEX
  8
0
 10
5.21442
 20
6.54801
 30
0.0
 40
0
 41
0
  0
VERTEX
  8
0
 10
5.53722
 20
6.7035
 30
0.0
 40
0
 41
0
  0
VERTEX
  8
0
 10
5.87646
 20
6.82769
 30
0.0
 40
0
 41
0
  0
VERTEX
  8
0
 10
6.23036
 20
6.91868
 30
0.0
 40
0
 41
0
  0
VERTEX
  8
0
 10
6.597
 20
6.97461
 30
0.0
 40
0
 41
0
  0
VERTEX
  8
0
 10
6.88015
 20
6.99365
 30
0.0
 40
0
 41
0
  0
VERTEX
  8
0
 10
6.97456
 20
6.99365
 30
0.0
 40
0
 41
0
  0
VERTEX
  8
0
 10
7.0689
 20
6.99365
 30
0.0
 40
0
 41
0
  0
VERTEX
  8
0
 10
7.35211
 20
6.97461
 30
0.0
 40
0
 41
0
  0
VERTEX
  8
0
 10
7.71875
 20
6.91868
 30
0.0
 40
0
 41
0
  0
VERTEX
  8
0
 10
8.0726
 20
6.82769
 30
0.0
 40
0
 41
0
  0
VERTEX
  8
0
 10
8.41189
 20
6.7035
 30
0.0
 40
0
 41
0
  0
VERTEX
  8
0
 10
8.73465
 20
6.54801
 30
0.0
 40
0
 41
0
  0
VERTEX
  8
0
 10
9.03911
 20
6.36307
 30
0.0
 40
0
 41
0
  0
VERTEX
  8
0
 10
9.3234
 20
6.1505
 30
0.0
 40
0
 41
0
  0
VERTEX
  8
0
 10
9.58561
 20
5.91217
 30
0.0
 40
0
 41
0
  0
VERTEX
  8
0
 10
9.82394
 20
5.6499
 30
0.0
 40
0
 41
0
  0
VERTEX
  8
0
 10
10.0365
 20
5.36567
 30
0.0
 40
0
 41
0
  0
VERTEX
  8
0
 10
10.2215
 20
5.06119
 30
0.0
 40
0
 41
0
  0
VERTEX
  8
0
 10
10.377
 20
4.73839
 30
0.0
 40
0
 41
0
  0
VERTEX
  8
0
 10
10.5012
 20
4.39914
 30
0.0
 40
0
 41
0
  0
VERTEX
  8
0
 10
10.5922
 20
4.04525
 30
0.0
 40
0
 41
0
  0
VERTEX
  8
0
 10
10.6481
 20
3.67865
 30
0.0
 40
0
 41
0
  0
VERTEX
  8
0
 10
10.6672
 20
3.39546
 30
0.0
 40
0
 41
0
  0
VERTEX
  8
0
 10
10.6672
 20
3.30106
 30
0.0
 40
0
 41
0
  0
VERTEX
  8
0
 10
10.6672
 20
3.23394
 30
0.0
 40
0
 41
0
  0
VERTEX
  8
0
 10
10.6576
 20
3.03261
 30
0.0
 40
0
 41
0
  0
VERTEX
  8
0
 10
10.6292
 20
2.76932
 30
0.0
 40
0
 41
0
  0
VERTEX
  8
0
 10
10.5826
 20
2.51193
 30
0.0
 40
0
 41
0
  0
VERTEX
  8
0
 10
10.5186
 20
2.26112
 30
0.0
 40
0
 41
0
  0
VERTEX
  8
0
 10
10.4378
 20
2.01747
 30
0.0
 40
0
 41
0
  0
VERTEX
  8
0
 10
10.3408
 20
1.78168
 30
0.0
 40
0
 41
0
  0
VERTEX
  8
0
 10
10.2283
 20
1.55436
 30
0.0
 40
0
 41
0
  0
VERTEX
  8
0
 10
10.1011
 20
1.33626
 30
0.0
 40
0
 41
0
  0
VERTEX
  8
0
 10
9.95958
 20
1.12798
 30
0.0
 40
0
 41
0
  0
VERTEX
  8
0
 10
9.80464
 20
0.930122
 30
0.0
 40
0
 41
0
  0
VERTEX
  8
0
 10
9.63683
 20
0.743435
 30
0.0
 40
0
 41
0
  0
VERTEX
  8
0
 10
9.45688
 20
0.568576
 30
0.0
 40
0
 41
0
  0
VERTEX
  8
0
 10
9.26535
 20
0.406088
 30
0.0
 40
0
 41
0
  0
VERTEX
  8
0
 10
9.06299
 20
0.256782
 30
0.0
 40
0
 41
0
  0
VERTEX
  8
0
 10
8.85042
 20
0.121202
 30
0.0
 40
0
 41
0
  0
VERTEX
  8
0
 10
8.68479
 20
0.0283746
 30
0.0
 40
0
 41
0
  0
VERTEX
  8
0
 10
8.62831
 20
0
 30
0.0
 40
0
 41
0
  0
VERTEX
  8
0
 10
8.77046
 20
0.0346137
 30
0.0
 40
0
 41
0
  0
VERTEX
  8
0
 10
9.19119
 20
0.162435
 30
0.0
 40
0
 41
0
  0
VERTEX
  8
0
 10
9.73351
 20
0.369683
 30
0.0
 40
0
 41
0
  0
VERTEX
  8
0
 10
10.2531
 20
0.619683
 30
0.0
 40
0
 41
0
  0
VERTEX
  8
0
 10
10.7477
 20
0.910157
 30
0.0
 40
0
 41
0
  0
VERTEX
  8
0
 10
11.2153
 20
1.23909
 30
0.0
 40
0
 41
0
  0
VERTEX
  8
0
 10
11.6536
 20
1.60422
 30
0.0
 40
0
 41
0
  0
VERTEX
  8
0
 10
12.0604
 20
2.00347
 30
0.0
 40
0
 41
0
  0
VERTEX
  8
0
 10
12.4337
 20
2.43457
 30
0.0
 40
0
 41
0
  0
VERTEX
  8
0
 10
12.7711
 20
2.89551
 30
0.0
 40
0
 41
0
  0
VERTEX
  8
0
 10
13.0706
 20
3.38396
 30
0.0
 40
0
 41
0
  0
VERTEX
  8
0
 10
13.33
 20
3.89789
 30
0.0
 40
0
 41
0
  0
VERTEX
  8
0
 10
13.5471
 20
4.43506
 30
0.0
 40
0
 41
0
  0
VERTEX
  8
0
 10
13.7197
 20
4.99338
 30
0.0
 40
0
 41
0
  0
VERTEX
  8
0
 10
13.8458
 20
5.57069
 30
0.0
 40
0
 41
0
  0
VERTEX
  8
0
 10
13.9229
 20
6.16476
 30
0.0
 40
0
 41
0
  0
VERTEX
  8
0
 10
13.9492
 20
6.62131
 30
0.0
 40
0
 41
0
  0
VERTEX
  8
0
 10
13.9492
 20
6.77344
 30
0.0
 40
0
 41
0
  0
VERTEX
  8
0
 10
13.9492
 20
6.86317
 30
0.0
 40
0
 41
0
  0
VERTEX
  8
0
 10
13.94
 20
7.13238
 30
0.0
 40
0
 41
0
  0
VERTEX
  8
0
 10
13.9132
 20
7.4866
 30
0.0
 40
0
 41
0
  0
VERTEX
  8
0
 10
13.8688
 20
7.83561
 30
0.0
 40
0
 41
0
  0
VERTEX
  8
0
 10
13.8075
 20
8.1791
 30
0.0
 40
0
 41
0
  0
VERTEX
  8
0
 10
13.7295
 20
8.5165
 30
0.0
 40
0
 41
0
  0
VERTEX
  8
0
 10
13.6356
 20
8.8475
 30
0.0
 40
0
 41
0
  0
VERTEX
  8
0
 10
13.5259
 20
9.17156
 30
0.0
 40
0
 41
0
  0
VERTEX
  8
0
 10
13.401
 20
9.48828
 30
0.0
 40
0
 41
0
  0
VERTEX
  8
0
 10
13.2613
 20
9.79725
 30
0.0
 40
0
 41
0
  0
VERTEX
  8
0
 10
13.1073
 20
10.098
 30
0.0
 40
0
 41
0
  0
VERTEX
  8
0
 10
12.9394
 20
10.39
 30
0.0
 40
0
 41
0
  0
VERTEX
  8
0
 10
12.758
 20
10.673
 30
0.0
 40
0
 41
0
  0
VERTEX
  8
0
 10
12.5635
 20
10.9465
 30
0.0
 40
0
 41
0
  0
VERTEX
  8
0
 10
12.3564
 20
11.21
 30
0.0
 40
0
 41
0
  0
VERTEX
  8
0
 10
12.1373
 20
11.463
 30
0.0
 40
0
 41
0
  0
VERTEX
  8
0
 10
11.9063
 20
11.7052
 30
0.0
 40
0
 41
0
  0
VERTEX
  8
0
 10
11.6641
 20
11.9362
 30
0.0
 40
0
 41
0
  0
VERTEX
  8
0
 10
11.411
 20
12.1554
 30
0.0
 40
0
 41
0
  0
VERTEX
  8
0
 10
11.1475
 20
12.3625
 30
0.0
 40
0
 41
0
  0
VERTEX
  8
0
 10
10.8741
 20
12.5569
 30
0.0
 40
0
 41
0
  0
VERTEX
  8
0
 10
10.5911
 20
12.7383
 30
0.0
 40
0
 41
0
  0
VERTEX
  8
0
 10
10.299
 20
12.9063
 30
0.0
 40
0
 41
0
  0
VERTEX
  8
0
 10
9.99832
 20
13.0603
 30
0.0
 40
0
 41
0
  0
VERTEX
  8
0
 10
9.68935
 20
13.2
 30
0.0
 40
0
 41
0
  0
VERTEX
  8
0
 10
9.37261
 20
13.3249
 30
0.0
 40
0
 41
0
  0
VERTEX
  8
0
 10
9.04856
 20
13.4345
 30
0.0
 40
0
 41
0
  0
VERTEX
  8
0
 10
8.71756
 20
13.5285
 30
0.0
 40
0
 41
0
  0
VERTEX
  8
0
 10
8.38015
 20
13.6064
 30
0.0
 40
0
 41
0
  0
VERTEX
  8
0
 10
8.03668
 20
13.6677
 30
0.0
 40
0
 41
0
  0
VERTEX
  8
0
 10
7.68767
 20
13.7121
 30
0.0
 40
0
 41
0
  0
VERTEX
  8
0
 10
7.33344
 20
13.739
 30
0.0
 40
0
 41
0
  0
VERTEX
  8
0
 10
7.06424
 20
13.748
 30
0.0
 40
0
 41
0
  0
VERTEX
  8
0
 10
6.97456
 20
13.748
 30
0.0
 40
0
 41
0
  0
VERTEX
  8
0
 10
6.88482
 20
13.748
 30
0.0
 40
0
 41
0
  0
VERTEX
  8
0
 10
6.61561
 20
13.739
 30
0.0
 40
0
 41
0
  0
VERTEX
  8
0
 10
6.26139
 20
13.7121
 30
0.0
 40
0
 41
0
  0
VERTEX
  8
0
 10
5.91238
 20
13.6677
 30
0.0
 40
0
 41
0
  0
VERTEX
  8
0
 10
5.5689
 20
13.6064
 30
0.0
 40
0
 41
0
  0
VERTEX
  8
0
 10
5.2315
 20
13.5285
 30
0.0
 40
0
 41
0
  0
VERTEX
  8
0
 10
4.9005
 20
13.4345
 30
0.0
 40
0
 41
0
  0
VERTEX
  8
0
 10
4.57644
 20
13.3249
 30
0.0
 40
0
 41
0
  0
VERTEX
  8
0
 10
4.25971
 20
13.2
 30
0.0
 40
0
 41
0
  0
VERTEX
  8
0
 10
3.95079
 20
13.0603
 30
0.0
 40
0
 41
0
  0
VERTEX
  8
0
 10
3.65007
 20
12.9063
 30
0.0
 40
0
 41
0
  0
VERTEX
  8
0
 10
3.35796
 20
12.7383
 30
0.0
 40
0
 41
0
  0
VERTEX
  8
0
 10
3.07497
 20
12.5569
 30
0.0
 40
0
 41
0
  0
VERTEX
  8
0
 10
2.80154
 20
12.3625
 30
0.0
 40
0
 41
0
  0
VERTEX
  8
0
 10
2.53808
 20
12.1554
 30
0.0
 40
0
 41
0
  0
VERTEX
  8
0
 10
2.285
 20
11.9362
 30
0.0
 40
0
 41
0
  0
VERTEX
  8
0
 10
2.04275
 20
11.7052
 30
0.0
 40
0
 41
0
  0
VERTEX
  8
0
 10
1.81185
 20
11.463
 30
0.0
 40
0
 41
0
  0
VERTEX
  8
0
 10
1.59261
 20
11.21
 30
0.0
 40
0
 41
0
  0
VERTEX
  8
0
 10
1.38558
 20
10.9465
 30
0.0
 40
0
 41
0
  0
VERTEX
  8
0
 10
1.19113
 20
10.673
 30
0.0
 40
0
 41
0
  0
VERTEX
  8
0
 10
1.00971
 20
10.39
 30
0.0
 40
0
 41
0
  0
VERTEX
  8
0
 10
0.841743
 20
10.098
 30
0.0
 40
0
 41
0
  0
VERTEX
  8
0
 10
0.687717
 20
9.79725
 30
0.0
 40
0
 41
0
  0
VERTEX
  8
0
 10
0.548068
 20
9.48828
 30
0.0
 40
0
 41
0
  0
VERTEX
  8
0
 10
0.423178
 20
9.17156
 30
0.0
 40
0
 41
0
  0
VERTEX
  8
0
 10
0.313531
 20
8.8475
 30
0.0
 40
0
 41
0
  0
VERTEX
  8
0
 10
0.219564
 20
8.5165
 30
0.0
 40
0
 41
0
  0
VERTEX
  8
0
 10
0.141656
 20
8.1791
 30
0.0
 40
0
 41
0
  0
VERTEX
  8
0
 10
0.0803494
 20
7.83561
 30
0.0
 40
0
 41
0
  0
VERTEX
  8
0
 10
0.03597
 20
7.4866
 30
0.0
 40
0
 41
0
  0
VERTEX
  8
0
 10
0.00906033
 20
7.13238
 30
0.0
 40
0
 41
0
  0
VERTEX
  8
0
 10
0
 20
6.86317
 30
0.0
 40
0
 41
0
  0
VERTEX
  8
0
 10
0
 20
6.77344
 30
0.0
 40
0
 41
0
  0
VERTEX
  8
0
 10
0
 20
6.62125
 30
0.0
 40
0
 41
0
  0
VERTEX
  8
0
 10
0.0262044
 20
6.16471
 30
0.0
 40
0
 41
0
  0
VERTEX
  8
0
 10
0.103353
 20
5.57064
 30
0.0
 40
0
 41
0
  0
VERTEX
  8
0
 10
0.229383
 20
4.99338
 30
0.0
 40
0
 41
0
  0
VERTEX
  8
0
 10
0.402018
 20
4.43506
 30
0.0
 40
0
 41
0
  0
VERTEX
  8
0
 10
0.619086
 20
3.89785
 30
0.0
 40
0
 41
0
  0
VERTEX
  8
0
 10
0.878472
 20
3.38396
 30
0.0
 40
0
 41
0
  0
VERTEX
  8
0
 10
1.17801
 20
2.89546
 30
0.0
 40
0
 41
0
  0
VERTEX
  8
0
 10
1.51546
 20
2.43457
 30
0.0
 40
0
 41
0
  0
VERTEX
  8
0
 10
1.88867
 20
2.00347
 30
0.0
 40
0
 41
0
  0
VERTEX
  8
0
 10
2.29551
 20
1.60422
 30
0.0
 40
0
 41
0
  0
VERTEX
  8
0
 10
2.73378
 20
1.23909
 30
0.0
 40
0
 41
0
  0
VERTEX
  8
0
 10
3.20133
 20
0.910157
 30
0.0
 40
0
 41
0
  0
VERTEX
  8
0
 10
3.69596
 20
0.619629
 30
0.0
 40
0
 41
0
  0
VERTEX
  8
0
 10
4.21556
 20
0.369683
 30
0.0
 40
0
 41
0
  0
VERTEX
  8
0
 10
4.75786
 20
0.162435
 30
0.0
 40
0
 41
0
  0
VERTEX
  8
0
 10
5.1786
 20
0.0346137
 30
0.0
 40
0
 41
0
  0
VERTEX
  8
0
 10
5.32081
 20
0
 30
0.0
 40
0
 41
0
  0
SEQEND
 8
0
  0
ENDSEC
  0
EOF
