<?xml version="1.0" encoding="utf-8"?>
<!-- Generator: Adobe Illustrator 23.0.3, SVG Export Plug-In . SVG Version: 6.00 Build 0)  -->
<svg version="1.1" id="Paper_Pinecone" xmlns="http://www.w3.org/2000/svg" xmlns:xlink="http://www.w3.org/1999/xlink" x="0px"
	 y="0px" viewBox="0 0 864 864" style="enable-background:new 0 0 864 864;" xml:space="preserve">
<style type="text/css">
	.st0{fill:#66471F;}
	.st1{fill:#B2906B;}
	.st2{fill:none;stroke:#000000;stroke-width:0.5;stroke-miterlimit:10;}
</style>
<g id="Scales">
	<path class="st0" d="M204.4,148.5c10.1-0.9,21.9-2.7,25-2.9c9.6-0.6,40.7-19.4,40-26.6c-0.4-4.2-2.4-10.4-2.7-16.1
		c-0.1-4.1,1.7-8.2,0.8-9.7c-0.8-1.3-4.5-1.3-7.7-3.5c-5.6-3.9-12.4-10.1-18.6-11.2c-9.6-1.7-30.4,14.1-37.2,22
		c-4,4.6-8.9,13.5-14.8,21.5c-4.3,5.9-8.1,12.1-17.8,11.4c-2.9-4.7,0.6-10.7,4-18.1c4.3-9.2,8.7-20.3,10.1-23.1
		c4.3-8.6,3.5-44.9-3.1-48c-3.9-1.8-10.3-3.1-15.3-5.7c-3.6-1.9-6.4-5.5-8.1-5.4c-1.5,0.1-3.4,3.3-6.9,4.9c-6.2,3-15,5.7-19,10.5
		c-6.2,7.5-3,33.3,0.5,43.3c2,5.7,7.3,14.4,11.3,23.5c2.5,5.6,5.4,11.1,2.9,17.6c-5-0.5-8.3-6.2-12.7-12.5
		c-5.9-8.3-13.3-17.7-15-20.2c-5.4-8.3-37.2-25.7-43.2-21.5c-3.4,2.5-7.8,7.4-12.6,10.4c-3.4,2.2-7.9,2.8-8.7,4.3
		c-0.7,1.3,1.1,4.6,0.8,8.5c-0.5,6.8-2.5,15.8-0.4,21.6c3.4,9.1,27.4,19.3,37.7,21.2c5.9,1.1,16.2,0.9,26,2
		c6.2,0.7,12.4,0.9,16.7,6.4c-2.7,4.6-9.5,4.6-17.6,5.3c-10.1,0.9-21.9,2.7-25,2.9c-9.6,0.6-40.7,19.4-40,26.6
		c0.4,4.2,2.4,10.4,2.7,16.1c0.2,4.1-1.6,8.2-0.6,9.7c0.8,1.3,4.5,1.3,7.7,3.5c5.6,3.9,12.4,10.1,18.6,11.2
		c9.6,1.7,30.4-14.1,37.2-22c4-4.6,8.9-13.5,14.8-21.5c3.9-5.3,7.3-10.8,15-11.4c2.6,4.7-0.8,10.5-4.2,17.8
		c-4.3,9.2-8.7,20.3-10.1,23.1c-4.3,8.6-3.5,44.9,3.1,48c3.9,1.8,10.3,3.1,15.3,5.7c3.6,1.9,6.4,5.5,8.1,5.4
		c1.5-0.1,3.4-3.3,6.9-4.9c6.2-3,15-5.7,19-10.5c6.2-7.5,3-33.3-0.5-43.3c-2-5.7-7.3-14.4-11.3-23.5c-2.5-5.7-5.4-11.2-2.8-17.7
		c5.2,0.3,8.5,6.1,13.1,12.6c5.9,8.3,13.3,17.7,15,20.2c5.3,8.1,37.1,25.5,43.1,21.3c3.5-2.4,7.8-7.3,12.6-10.4
		c3.4-2.2,7.9-2.8,8.7-4.3c0.7-1.3-1.1-4.6-0.8-8.5c0.5-6.8,2.5-15.8,0.4-21.6c-3.4-9.1-27.4-19.3-37.7-21.2c-5.9-1.1-16.2-0.9-26-2
		c-5.3-0.6-10.7-0.8-14.9-4.5C188.3,149.1,195.6,149.2,204.4,148.5z M159.6,156.1c-1.2,0-2.2-1-2.2-2.2s1-2.2,2.2-2.2s2.2,1,2.2,2.2
		S160.8,156.1,159.6,156.1z"/>
	<path class="st1" d="M236.5,172.2c10.1-0.9,21.9-2.7,25-2.9c9.6-0.6,40.7-19.4,40-26.6c-0.4-4.2-2.4-10.4-2.7-16.1
		c-0.1-4.3,1.6-8.4,0.7-9.9c-0.8-1.3-4.5-1.3-7.7-3.5c-5.6-3.9-12.4-10.1-18.6-11.2c-9.6-1.7-30.4,14.1-37.2,22
		c-4,4.6-8.9,13.5-14.8,21.5c-4.3,5.9-8.1,12.1-17.8,11.4c-2.9-4.7,0.6-10.7,4-18.1c4.3-9.2,8.7-20.3,10.1-23.1
		c4.3-8.6,3.5-44.9-3.1-48c-3.9-1.8-10.3-3.1-15.3-5.7c-3.6-1.9-6.4-5.5-8.1-5.4c-1.5,0.1-3.4,3.3-6.9,4.9c-6.2,3-15,5.7-19,10.5
		c-6.2,7.5-3,33.3,0.5,43.3c2,5.7,7.3,14.4,11.3,23.5c2.5,5.6,5.4,11.1,2.9,17.6c-5-0.5-8.3-6.2-12.7-12.5
		c-5.9-8.3-13.3-17.7-15-20.2c-5.3-8.1-37.1-25.5-43.1-21.3c-3.5,2.4-7.8,7.3-12.6,10.4c-3.4,2.2-7.9,2.8-8.7,4.3
		c-0.7,1.3,1.1,4.6,0.8,8.5c-0.5,6.8-2.5,15.8-0.4,21.6c3.4,9.1,27.4,19.3,37.7,21.2c5.9,1.1,16.2,0.9,26,2
		c6.2,0.7,12.4,0.9,16.7,6.4c-2.7,4.6-9.5,4.6-17.6,5.3c-10.1,0.9-21.9,2.7-25,2.9c-9.6,0.6-40.7,19.4-40,26.6
		c0.4,4.2,2.4,10.4,2.7,16.1c0.2,4.1-1.6,8.2-0.6,9.7c0.8,1.3,4.5,1.3,7.7,3.5c5.6,3.9,12.4,10.1,18.6,11.2
		c9.6,1.7,30.4-14.1,37.2-22c4-4.6,8.9-13.5,14.8-21.5c3.9-5.3,7.3-10.8,15-11.4c2.6,4.7-0.8,10.5-4.2,17.8
		c-4.3,9.2-8.7,20.3-10.1,23.1c-4.3,8.6-3.5,44.9,3.1,48c3.9,1.8,10.3,3.1,15.3,5.7c3.6,1.9,6.4,5.5,8.1,5.4
		c1.5-0.1,3.4-3.3,6.9-4.9c6.2-3,15-5.7,19-10.5c6.2-7.5,3-33.3-0.5-43.3c-2-5.7-7.3-14.4-11.3-23.5c-2.5-5.7-5.4-11.2-2.8-17.7
		c5.2,0.3,8.5,6.1,13.1,12.6c5.9,8.3,13.3,17.7,15,20.2c5.3,8.1,37.1,25.5,43.1,21.3c3.5-2.4,7.8-7.3,12.6-10.4
		c3.4-2.2,7.9-2.8,8.7-4.3c0.7-1.3-1.1-4.6-0.8-8.5c0.5-6.8,2.5-15.8,0.4-21.6c-3.4-9.1-27.4-19.3-37.7-21.2c-5.9-1.1-16.2-0.9-26-2
		c-5.3-0.6-10.7-0.8-14.9-4.5C220.4,172.8,227.7,172.9,236.5,172.2z M191.9,180.8c-1.2,0-2.2-1-2.2-2.2s1-2.2,2.2-2.2s2.2,1,2.2,2.2
		C194.1,179.7,193.1,180.8,191.9,180.8z"/>
	<path class="st0" d="M195.1,426.6c9.5-0.9,20.5-2.5,23.4-2.7c9-0.5,37.9-18.1,37.3-24.8c-0.3-4-2.3-9.7-2.5-15.1
		c-0.1-3.7,1.6-7.6,0.7-9c-0.7-1.2-4.2-1.3-7.2-3.3c-5.3-3.6-11.6-9.4-17.3-10.4c-9-1.6-28.3,13.2-34.8,20.5
		c-3.7,4.3-8.3,12.6-13.8,20.1c-4,5.5-7.5,11.3-16.6,10.6c-2.7-4.4,0.5-10,3.8-16.9c4-8.6,8.1-19.1,9.4-21.6
		c4-8.1,3.3-41.9-2.9-44.8c-3.6-1.7-9.6-2.9-14.3-5.3c-3.4-1.7-5.9-5.1-7.6-5c-1.4,0.1-3.2,3-6.5,4.6c-5.8,2.8-14,5.3-17.7,9.8
		c-5.8,7-2.8,31.1,0.4,40.4c1.9,5.3,6.8,13.5,10.6,21.9c2.3,5.3,5,10.4,2.7,16.4c-4.7-0.5-7.7-5.8-11.9-11.7
		c-5.5-7.8-12.4-16.6-14-19c-5-7.5-34.6-23.8-40.2-20c-3.2,2.3-7.3,6.8-11.8,9.7c-3.2,2.1-7.4,2.6-8.1,4c-0.7,1.2,1,4.3,0.7,7.9
		c-0.5,6.4-2.4,14.8-0.4,20.1c3.1,8.5,25.5,18,35.2,19.9c5.5,1.1,15.1,0.8,24.2,1.8c5.7,0.6,11.5,0.8,15.6,5.9
		c-2.6,4.3-8.9,4.3-16.4,4.9c-9.5,0.9-20.5,2.5-23.4,2.7c-9,0.5-37.9,18.1-37.3,24.8c0.3,4,2.3,9.7,2.5,15.1
		c0.2,3.8-1.4,7.7-0.6,9.1c0.7,1.2,4.2,1.3,7.2,3.3c5.3,3.6,11.6,9.4,17.3,10.4c9,1.6,28.3-13.2,34.8-20.5
		c3.7-4.3,8.3-12.6,13.8-20.1c3.6-4.9,6.8-10.1,14-10.6c2.4,4.4-0.8,9.8-3.9,16.7c-4,8.6-8.1,19.1-9.4,21.6
		c-4,8.1-3.3,41.9,2.9,44.8c3.6,1.7,9.6,2.9,14.3,5.3c3.4,1.7,5.9,5.1,7.6,5c1.4-0.1,3.2-3,6.5-4.6c5.8-2.8,14-5.3,17.7-9.8
		c5.8-7,2.8-31.1-0.4-40.4c-1.9-5.3-6.8-13.5-10.6-21.9c-2.3-5.3-5.1-10.5-2.6-16.6c4.9,0.2,8,5.7,12.2,11.7
		c5.5,7.8,12.4,16.6,14,19c5,7.5,34.6,23.8,40.2,20c3.2-2.3,7.3-6.8,11.8-9.7c3.2-2.1,7.4-2.6,8.1-4c0.7-1.2-1-4.3-0.8-7.9
		c0.5-6.4,2.4-14.8,0.4-20.1c-3.1-8.5-25.5-18-35.2-19.9c-5.5-1.1-15.1-0.8-24.2-1.8c-5-0.5-10-0.8-13.9-4.2
		C180.1,427.2,186.9,427.3,195.1,426.6z M152.9,434c-1.2,0-2.2-1-2.2-2.2s1-2.2,2.2-2.2s2.2,1,2.2,2.2
		C155.1,433,154.1,434,152.9,434z"/>
	<path class="st1" d="M242.2,447.9c9.5-0.9,20.5-2.5,23.4-2.7c9-0.5,37.9-18.1,37.3-24.8c-0.3-4-2.3-9.7-2.5-15.1
		c-0.1-3.7,1.5-7.6,0.7-9c-0.7-1.2-4.2-1.3-7.2-3.3c-5.3-3.6-11.6-9.4-17.3-10.4c-9-1.6-28.3,13.2-34.8,20.5
		c-3.7,4.3-8.3,12.6-13.8,20.1c-4,5.5-7.5,11.3-16.6,10.6c-2.7-4.4,0.5-10,3.8-16.9c4-8.6,8.1-19.1,9.4-21.6
		c4-8.1,3.3-41.9-2.9-44.8c-3.6-1.7-9.6-2.9-14.3-5.3c-3.4-1.7-5.9-5.1-7.6-5c-1.4,0.1-3.2,3-6.5,4.6c-5.8,2.8-14,5.3-17.7,9.8
		c-5.8,7-2.8,31.1,0.4,40.4c1.9,5.3,6.8,13.5,10.6,21.9c2.3,5.3,5,10.4,2.7,16.4c-4.7-0.5-7.7-5.8-11.9-11.7
		c-5.5-7.8-12.4-16.6-14-19c-5-7.5-34.6-23.8-40.2-20c-3.2,2.3-7.3,6.8-11.8,9.7c-3.2,2.1-7.4,2.6-8.1,4c-0.7,1.2,1,4.3,0.7,7.9
		c-0.5,6.4-2.4,14.8-0.4,20.1c3.1,8.5,25.5,18,35.2,19.9c5.5,1.1,15.1,0.8,24.2,1.8c5.7,0.6,11.5,0.8,15.6,5.9
		c-2.6,4.3-8.9,4.3-16.4,4.9c-9.5,0.9-20.5,2.5-23.4,2.7c-9,0.5-37.9,18.1-37.3,24.8c0.3,4,2.3,9.7,2.5,15.1
		c0.2,3.8-1.4,7.7-0.6,9.1c0.7,1.2,4.2,1.3,7.2,3.3c5.3,3.6,11.6,9.4,17.3,10.4c9,1.6,28.3-13.2,34.8-20.5
		c3.7-4.3,8.3-12.6,13.8-20.1c3.6-4.9,6.8-10.1,14-10.6c2.4,4.4-0.8,9.8-3.9,16.7c-4,8.6-8.1,19.1-9.4,21.6
		c-4,8.1-3.3,41.9,2.9,44.8c3.6,1.7,9.6,2.9,14.3,5.3c3.4,1.7,5.9,5.1,7.6,5c1.4-0.1,3.2-3,6.5-4.6c5.8-2.8,14-5.3,17.7-9.8
		c5.8-7,2.8-31.1-0.4-40.4c-1.9-5.3-6.8-13.5-10.6-21.9c-2.3-5.3-5.1-10.5-2.6-16.6c4.9,0.2,8,5.7,12.2,11.7
		c5.5,7.8,12.4,16.6,14,19c5,7.5,34.6,23.8,40.2,20c3.2-2.3,7.3-6.8,11.8-9.7c3.2-2.1,7.4-2.6,8.1-4c0.7-1.2-1-4.3-0.8-7.9
		c0.5-6.4,2.4-14.8,0.4-20.1c-3.1-8.5-25.5-18-35.2-19.9c-5.5-1.1-15.1-0.8-24.2-1.8c-5-0.5-10-0.8-13.9-4.2
		C227.2,448.5,234,448.6,242.2,447.9z M200.9,455.2c-1.2,0-2.2-1-2.2-2.2s1-2.2,2.2-2.2s2.2,1,2.2,2.2
		C203.2,454.2,202.2,455.2,200.9,455.2z"/>
	<path class="st0" d="M287.7,475.2c9.5-0.9,20.5-2.5,23.4-2.7c9-0.5,37.9-18.1,37.3-24.8c-0.3-4-2.3-9.7-2.5-15.1
		c-0.1-3.7,1.6-7.6,0.7-9c-0.7-1.2-4.2-1.3-7.2-3.3c-5.3-3.6-11.6-9.4-17.3-10.4c-9-1.6-28.3,13.2-34.8,20.5
		c-3.7,4.3-8.3,12.6-13.8,20.1c-4,5.5-7.5,11.3-16.6,10.6c-2.7-4.4,0.5-10,3.8-16.9c4-8.6,8.1-19.1,9.4-21.6
		c4-8.1,3.3-41.9-2.9-44.8c-3.6-1.7-9.6-2.9-14.3-5.3c-3.4-1.7-5.9-5.1-7.6-5c-1.4,0.1-3.2,3-6.5,4.6c-5.8,2.8-14,5.3-17.7,9.8
		c-5.8,7-2.8,31.1,0.4,40.4c1.9,5.3,6.8,13.5,10.6,21.9c2.3,5.3,5,10.4,2.7,16.4c-4.7-0.5-7.7-5.8-11.9-11.7
		c-5.5-7.8-12.4-16.6-14-19c-5-7.5-34.6-23.8-40.2-20c-3.2,2.3-7.3,6.8-11.8,9.7c-3.2,2.1-7.4,2.6-8.1,4c-0.7,1.2,1,4.3,0.7,7.9
		c-0.5,6.4-2.4,14.8-0.4,20.1c3.1,8.5,25.5,18,35.2,19.9c5.5,1.1,15.1,0.8,24.2,1.8c5.7,0.6,11.5,0.8,15.6,5.9
		c-2.6,4.3-8.9,4.3-16.4,4.9c-9.5,0.9-20.5,2.5-23.4,2.7c-9,0.5-37.9,18.1-37.3,24.8c0.3,4,2.3,9.7,2.5,15.1
		c0.2,3.8-1.4,7.7-0.6,9.1c0.7,1.2,4.2,1.3,7.2,3.3c5.3,3.6,11.6,9.4,17.3,10.4c9,1.6,28.3-13.2,34.8-20.5
		c3.7-4.3,8.3-12.6,13.8-20.1c3.6-4.9,6.8-10.1,14-10.6c2.4,4.4-0.8,9.8-3.9,16.7c-4,8.6-8.1,19.1-9.4,21.6
		c-4,8.1-3.3,41.9,2.9,44.8c3.6,1.7,9.6,2.9,14.3,5.3c3.4,1.7,5.9,5.1,7.6,5c1.4-0.1,3.2-3,6.5-4.6c5.8-2.8,14-5.3,17.7-9.8
		c5.8-7,2.8-31.1-0.4-40.4c-1.9-5.3-6.8-13.5-10.6-21.9c-2.3-5.3-5.1-10.5-2.6-16.6c4.9,0.2,8,5.7,12.2,11.7
		c5.5,7.8,12.4,16.6,14,19c5,7.5,34.6,23.8,40.2,20c3.2-2.3,7.3-6.8,11.8-9.7c3.2-2.1,7.4-2.6,8.1-4c0.7-1.2-1-4.3-0.8-7.9
		c0.5-6.4,2.4-14.8,0.4-20.1c-3.1-8.5-25.5-18-35.2-19.9c-5.5-1.1-15.1-0.8-24.2-1.8c-5-0.5-10-0.8-13.9-4.2
		C272.7,475.8,279.5,475.9,287.7,475.2z M245.5,482.6c-1.2,0-2.2-1-2.2-2.2s1-2.2,2.2-2.2s2.2,1,2.2,2.2S246.7,482.6,245.5,482.6z"
		/>
	<path class="st1" d="M334.8,496.5c9.5-0.9,20.5-2.5,23.4-2.7c9-0.5,37.9-18.1,37.3-24.8c-0.3-4-2.3-9.7-2.5-15.1
		c-0.1-3.7,1.5-7.6,0.7-9c-0.7-1.2-4.2-1.3-7.2-3.3c-5.3-3.6-11.6-9.4-17.3-10.4c-9-1.6-28.3,13.2-34.8,20.5
		c-3.7,4.3-8.3,12.6-13.8,20.1c-4,5.5-7.5,11.3-16.6,10.6c-2.7-4.4,0.5-10,3.8-16.9c4-8.6,8.1-19.1,9.4-21.6
		c4-8.1,3.3-41.9-2.9-44.8c-3.6-1.7-9.6-2.9-14.3-5.3c-3.4-1.7-5.9-5.1-7.6-5c-1.4,0.1-3.2,3-6.5,4.6c-5.8,2.8-14,5.3-17.7,9.8
		c-5.8,7-2.8,31.1,0.4,40.4c1.9,5.3,6.8,13.5,10.6,21.9c2.3,5.3,5,10.4,2.7,16.4c-4.7-0.5-7.7-5.8-11.9-11.7
		c-5.5-7.8-12.4-16.6-14-19c-5-7.5-34.6-23.8-40.2-20c-3.2,2.3-7.3,6.8-11.8,9.7c-3.2,2.1-7.4,2.6-8.1,4c-0.7,1.2,1,4.3,0.7,7.9
		c-0.5,6.4-2.4,14.8-0.4,20.1c3.1,8.5,25.5,18,35.2,19.9c5.5,1.1,15.1,0.8,24.2,1.8c5.7,0.6,11.5,0.8,15.6,5.9
		c-2.6,4.3-8.9,4.3-16.4,4.9c-9.5,0.9-20.5,2.5-23.4,2.7c-9,0.5-37.9,18.1-37.3,24.8c0.3,4,2.3,9.7,2.5,15.1
		c0.2,3.8-1.4,7.7-0.6,9.1c0.7,1.2,4.2,1.3,7.2,3.3c5.3,3.6,11.6,9.4,17.3,10.4c9,1.6,28.3-13.2,34.8-20.5
		c3.7-4.3,8.3-12.6,13.8-20.1c3.6-4.9,6.8-10.1,14-10.6c2.4,4.4-0.8,9.8-3.9,16.7c-4,8.6-8.1,19.1-9.4,21.6
		c-4,8.1-3.3,41.9,2.9,44.8c3.6,1.7,9.6,2.9,14.3,5.3c3.4,1.7,5.9,5.1,7.6,5c1.4-0.1,3.2-3,6.5-4.6c5.8-2.8,14-5.3,17.7-9.8
		c5.8-7,2.8-31.1-0.4-40.4c-1.9-5.3-6.8-13.5-10.6-21.9c-2.3-5.3-5.1-10.5-2.6-16.6c4.9,0.2,8,5.7,12.2,11.7
		c5.5,7.8,12.4,16.6,14,19c5,7.5,34.6,23.8,40.2,20c3.2-2.3,7.3-6.8,11.8-9.7c3.2-2.1,7.4-2.6,8.1-4c0.7-1.2-1-4.3-0.8-7.9
		c0.5-6.4,2.4-14.8,0.4-20.1c-3.1-8.5-25.5-18-35.2-19.9c-5.5-1.1-15.1-0.8-24.2-1.8c-5-0.5-10-0.8-13.9-4.2
		C319.8,497.1,326.6,497.2,334.8,496.5z M293.5,503.8c-1.2,0-2.2-1-2.2-2.2s1-2.2,2.2-2.2s2.2,1,2.2,2.2
		C295.8,502.8,294.8,503.8,293.5,503.8z"/>
	<path class="st0" d="M166.9,696.4c8.8-0.8,19.1-2.3,21.7-2.5c8.3-0.5,35.2-16.8,34.7-23.1c-0.3-3.7-2.1-9.1-2.4-14
		c-0.3-3.7,1.3-7.3,0.5-8.5c-0.7-1.1-3.9-1.2-6.7-3.1c-4.9-3.3-10.8-8.8-16.1-9.7c-8.3-1.4-26.3,12.2-32.3,19.1
		c-3.4,4-7.7,11.7-12.8,18.7c-3.7,5.1-7,10.5-15.4,9.9c-2.5-4.1,0.5-9.3,3.5-15.7c3.7-8,7.5-17.7,8.7-20c3.7-7.5,3.1-38.9-2.7-41.6
		c-3.3-1.6-8.9-2.7-13.3-4.9c-3.2-1.6-5.5-4.7-7-4.7c-1.3,0-3,2.8-6,4.3c-5.3,2.6-13,5-16.4,9.1c-5.4,6.5-2.6,28.9,0.4,37.5
		c1.7,5,6.3,12.5,9.8,20.3c2.2,4.9,4.7,9.6,2.5,15.2c-4.3-0.5-7.2-5.4-11-10.9c-5.1-7.2-11.5-15.4-13-17.6
		c-4.6-7-32.1-22.1-37.3-18.5c-3,2.1-6.8,6.4-10.9,9c-3,1.9-6.8,2.4-7.6,3.7c-0.6,1.2,1,4,0.7,7.3c-0.5,5.9-2.2,13.7-0.3,18.8
		c2.8,8,23.6,16.9,32.6,18.6c5.2,1,14,0.8,22.5,1.7c5.3,0.6,10.7,0.8,14.5,5.5c-2.4,4-8.3,4-15.2,4.6c-8.8,0.8-19.1,2.3-21.7,2.5
		c-7.9,0.4-34.9,16.6-34.4,23c0.3,3.7,2.1,9.1,2.4,14c0.2,3.5-1.3,7.1-0.5,8.4c0.7,1.1,3.9,1.2,6.7,3.1c4.9,3.3,10.8,8.8,16.1,9.7
		c8.3,1.4,26.3-12.2,32.3-19.1c3.4-4,7.7-11.7,12.8-18.7c3.3-4.6,6.3-9.4,13-9.9c2.3,4.1-0.7,9.1-3.6,15.5c-3.7,8-7.5,17.7-8.8,20
		c-3.7,7.5-3.1,38.9,2.7,41.6c3.3,1.6,8.9,2.7,13.3,4.9c3.2,1.6,5.5,4.7,7,4.7c1.3,0,3-2.8,6-4.3c5.3-2.6,13-5,16.4-9.1
		c5.4-6.5,2.6-28.9-0.4-37.5c-1.7-5-6.3-12.5-9.8-20.3c-2.2-4.9-4.7-9.7-2.4-15.4c4.5,0.2,7.4,5.3,11.4,10.9
		c5.1,7.2,11.5,15.4,13,17.6c4.6,7,32.1,22.1,37.3,18.5c3-2.1,6.8-6.4,10.9-9c3-1.9,6.8-2.4,7.6-3.7c0.6-1.2-1-4-0.7-7.3
		c0.5-5.9,2.2-13.7,0.3-18.8c-2.9-7.9-23.7-16.8-32.7-18.5c-5.2-1-14-0.8-22.5-1.7c-4.6-0.5-9.3-0.7-12.9-3.9
		C152.9,696.9,159.3,697,166.9,696.4z M128.2,702.2c-1.2,0-2.2-1-2.2-2.2s1-2.2,2.2-2.2s2.2,1,2.2,2.2S129.5,702.2,128.2,702.2z"/>
	<path class="st1" d="M222.3,704c8.8-0.8,19.1-2.3,21.7-2.5c8.3-0.5,35.2-16.8,34.7-23.1c-0.3-3.7-2.1-9.1-2.4-14
		c-0.3-3.6,1.2-7.1,0.4-8.4c-0.7-1.1-3.9-1.2-6.7-3.1c-4.9-3.3-10.8-8.8-16.1-9.7c-8.3-1.4-26.3,12.2-32.3,19.1
		c-3.4,4-7.7,11.7-12.8,18.7c-3.7,5.1-7,10.5-15.4,9.9c-2.5-4.1,0.5-9.3,3.5-15.7c3.7-8,7.5-17.7,8.7-20c3.7-7.5,3.1-38.9-2.7-41.6
		c-3.3-1.6-8.9-2.7-13.3-4.9c-3.2-1.6-5.5-4.7-7-4.7c-1.3,0-3,2.8-6,4.3c-5.3,2.6-13,5-16.4,9.1c-5.4,6.5-2.6,28.9,0.4,37.5
		c1.7,5,6.3,12.5,9.8,20.3c2.2,4.9,4.7,9.6,2.5,15.2c-4.3-0.5-7.2-5.4-11-10.9c-5.1-7.2-11.5-15.4-13-17.6
		c-4.6-7-32.1-22.1-37.3-18.5c-3,2.1-6.8,6.4-10.9,9c-3,1.9-6.8,2.4-7.6,3.7c-0.6,1.2,1,4,0.7,7.3c-0.5,5.9-2.2,13.7-0.3,18.8
		c2.9,7.9,23.7,16.8,32.7,18.5c5.2,1,14,0.8,22.5,1.7c5.3,0.6,10.7,0.8,14.5,5.5c-2.4,4-8.3,4-15.2,4.6c-8.8,0.8-19.1,2.3-21.7,2.5
		c-8.3,0.5-35.2,16.8-34.7,23.1c0.3,3.7,2.1,9.1,2.4,14c0.2,3.5-1.3,7.1-0.5,8.4c0.7,1.1,3.9,1.2,6.7,3.1c4.9,3.3,10.8,8.8,16.1,9.7
		c8.3,1.4,26.3-12.2,32.3-19.1c3.4-4,7.7-11.7,12.8-18.7c3.3-4.6,6.3-9.4,13-9.9c2.3,4.1-0.7,9.1-3.6,15.5c-3.7,8-7.5,17.7-8.8,20
		c-3.7,7.5-3.1,38.9,2.7,41.6c3.3,1.6,8.9,2.7,13.3,4.9c3.2,1.6,5.5,4.7,7,4.7c1.3,0,3-2.8,6-4.3c5.3-2.6,13-5,16.4-9.1
		c5.4-6.5,2.6-28.9-0.4-37.5c-1.7-5-6.3-12.5-9.8-20.3c-2.2-4.9-4.7-9.7-2.4-15.4c4.5,0.2,7.4,5.3,11.4,10.9
		c5.1,7.2,11.5,15.4,13,17.6c4.6,7,32.1,22.1,37.3,18.5c3-2.1,6.8-6.4,10.9-9c3-1.9,6.8-2.4,7.6-3.7c0.6-1.2-1-4-0.7-7.3
		c0.5-5.9,2.2-13.7,0.3-18.8c-2.9-7.9-23.7-16.8-32.7-18.5c-5.2-1-14-0.8-22.5-1.7c-4.6-0.5-9.3-0.7-12.9-3.9
		C208.3,704.5,214.7,704.6,222.3,704z M184.1,710.4c-1.2,0-2.2-1-2.2-2.2s1-2.2,2.2-2.2s2.2,1,2.2,2.2
		C186.4,709.4,185.4,710.4,184.1,710.4z"/>
	<path class="st0" d="M499.3,140c8.1-0.7,17.6-2.1,20-2.3c7.7-0.5,32.5-15.5,32-21.3c-0.3-3.4-2-8.4-2.2-12.9
		c-0.2-3.2,1.2-6.5,0.5-7.7c-0.6-1-3.6-1.1-6.2-2.8c-4.5-3.1-9.9-8.1-14.8-8.9c-7.7-1.3-24.3,11.3-29.8,17.7
		c-3.2,3.7-7.1,10.8-11.8,17.3c-3.4,4.7-6.4,9.7-14.2,9.1c-2.3-3.8,0.5-8.5,3.2-14.5c3.4-7.4,7-16.3,8.1-18.6
		c3.5-6.9,2.8-35.9-2.5-38.4c-3.1-1.4-8.2-2.5-12.3-4.6c-2.9-1.5-5.1-4.4-6.5-4.3c-1.2,0-2.7,2.6-5.5,3.9c-4.9,2.4-12,4.6-15.2,8.4
		c-5,6-2.4,26.7,0.4,34.6c1.6,4.6,5.8,11.6,9.1,18.9c2,4.5,4.3,8.9,2.3,14c-4-0.4-6.6-5-10.2-10c-4.7-6.7-10.7-14.2-12-16.3
		c-4.3-6.4-29.7-20.4-34.5-17.1c-2.8,2-6.3,5.9-10.1,8.3c-2.8,1.8-6.3,2.2-7,3.4c-0.6,1.1,0.9,3.7,0.6,6.8c-0.4,5.5-2,12.7-0.3,17.3
		c2.7,7.3,21.9,15.5,30.1,17c4.8,0.9,12.9,0.7,20.8,1.6c4.9,0.5,9.9,0.7,13.3,5.1c-2.2,3.7-7.6,3.7-14,4.2c-8.1,0.7-17.6,2.1-20,2.3
		c-7.7,0.5-32.5,15.5-32,21.3c0.3,3.4,2,8.4,2.2,12.9c0.2,3.3-1.2,6.6-0.5,7.8c0.6,1,3.6,1.1,6.2,2.8c4.5,3.1,9.9,8.1,14.8,8.9
		c7.7,1.3,24.3-11.3,29.8-17.7c3.2-3.7,7.1-10.8,11.8-17.3c3.1-4.2,5.8-8.7,12-9.1c2.1,3.7-0.7,8.4-3.4,14.3
		c-3.4,7.4-7,16.3-8.1,18.6c-3.5,6.9-2.8,35.9,2.5,38.4c3.1,1.4,8.2,2.5,12.3,4.6c2.9,1.5,5.1,4.4,6.5,4.3c1.2,0,2.7-2.6,5.5-3.9
		c4.9-2.4,12-4.6,15.2-8.4c5-6,2.4-26.7-0.4-34.6c-1.6-4.6-5.8-11.6-9.1-18.9c-2-4.6-4.4-9-2.2-14.2c4.2,0.2,6.8,4.9,10.5,10
		c4.7,6.7,10.7,14.2,12,16.3c4.3,6.4,29.7,20.4,34.5,17.1c2.8-2,6.3-5.9,10.1-8.3c2.8-1.8,6.3-2.2,7-3.4c0.6-1.1-0.9-3.7-0.6-6.8
		c0.4-5.5,2-12.7,0.3-17.3c-2.7-7.3-21.9-15.5-30.1-17c-4.8-0.9-12.9-0.7-20.8-1.6c-4.3-0.5-8.6-0.7-11.9-3.6
		C486.4,140.5,492.3,140.6,499.3,140z M464,144.5c-1.2,0-2.2-1-2.2-2.2s1-2.2,2.2-2.2s2.2,1,2.2,2.2S465.2,144.5,464,144.5z"/>
	<path class="st1" d="M558.2,157.8c8.1-0.7,17.6-2.1,20-2.3c7.7-0.5,32.5-15.5,32-21.3c-0.3-3.4-2-8.4-2.2-12.9
		c-0.2-3.2,1.2-6.5,0.5-7.7c-0.6-1-3.6-1.1-6.2-2.8c-4.5-3.1-9.9-8.1-14.8-8.9c-7.7-1.3-24.3,11.3-29.8,17.7
		c-3.2,3.7-7.1,10.8-11.8,17.3c-3.4,4.7-6.4,9.7-14.2,9.1c-2.3-3.8,0.5-8.5,3.2-14.5c3.4-7.4,7-16.3,8.1-18.6
		c3.5-6.9,2.8-35.9-2.5-38.4c-3.1-1.4-8.2-2.5-12.3-4.6c-2.9-1.5-5.1-4.4-6.5-4.3c-1.2,0-2.7,2.6-5.5,3.9c-4.9,2.4-12,4.6-15.2,8.4
		c-5,6-2.4,26.7,0.4,34.6c1.6,4.6,5.8,11.6,9.1,18.9c2,4.5,4.3,8.9,2.3,14c-4-0.4-6.6-5-10.2-10c-4.7-6.7-10.7-14.2-12-16.3
		c-4.3-6.4-29.7-20.4-34.5-17.1c-2.8,2-6.3,5.9-10.1,8.3c-2.8,1.8-6.3,2.2-7,3.4c-0.6,1.1,0.9,3.7,0.6,6.8c-0.4,5.5-2,12.7-0.3,17.3
		c2.7,7.3,21.9,15.5,30.1,17c4.8,0.9,12.9,0.7,20.8,1.6c4.9,0.5,9.9,0.7,13.3,5.1c-2.2,3.7-7.6,3.7-14,4.2c-8.1,0.7-17.6,2.1-20,2.3
		c-7.7,0.5-32.5,15.5-32,21.3c0.3,3.4,2,8.4,2.2,12.9c0.2,3.3-1.2,6.6-0.5,7.8c0.6,1,3.6,1.1,6.2,2.8c4.5,3.1,9.9,8.1,14.8,8.9
		c7.7,1.3,24.3-11.3,29.8-17.7c3.2-3.7,7.1-10.8,11.8-17.3c3.1-4.2,5.8-8.7,12-9.1c2.1,3.7-0.7,8.4-3.4,14.3
		c-3.4,7.4-7,16.3-8.1,18.6c-3.5,6.9-2.8,35.9,2.5,38.4c3.1,1.4,8.2,2.5,12.3,4.6c2.9,1.5,5.1,4.4,6.5,4.3c1.2,0,2.7-2.6,5.5-3.9
		c4.9-2.4,12-4.6,15.2-8.4c5-6,2.4-26.7-0.4-34.6c-1.6-4.6-5.8-11.6-9.1-18.9c-2-4.6-4.4-9-2.2-14.2c4.2,0.2,6.8,4.9,10.5,10
		c4.7,6.7,10.7,14.2,12,16.3c4.3,6.4,29.7,20.4,34.5,17.1c2.8-2,6.3-5.9,10.1-8.3c2.8-1.8,6.3-2.2,7-3.4c0.6-1.1-0.9-3.7-0.6-6.8
		c0.4-5.5,2-12.7,0.3-17.3c-2.7-7.3-21.9-15.5-30.1-17c-4.8-0.9-12.9-0.7-20.8-1.6c-4.3-0.5-8.6-0.7-11.9-3.6
		C545.3,158.3,551.2,158.4,558.2,157.8z M524.2,164.2c-1.2,0-2.2-1-2.2-2.2s1-2.2,2.2-2.2s2.2,1,2.2,2.2S525.4,164.2,524.2,164.2z"
		/>
	<path class="st0" d="M491.5,347c7.4-0.7,16.2-2,18.4-2.1c7.1-0.4,29.8-14.3,29.3-19.6c-0.3-3.1-1.8-7.7-2-11.8c-0.3-3,1-6,0.4-7.1
		c-0.6-0.9-3.3-1-5.7-2.6c-4.1-2.8-9.1-7.4-13.6-8.2c-7-1.2-22.2,10.4-27.3,16.2c-2.9,3.4-6.5,9.9-10.8,15.8
		c-3.1,4.3-5.9,8.9-13,8.3c-2.1-3.5,0.4-7.8,3-13.3c3.1-6.8,6.4-15,7.4-17c3.2-6.3,2.6-32.9-2.3-35.2c-2.8-1.3-7.5-2.3-11.2-4.2
		c-2.7-1.4-4.7-4-5.9-4c-1.1,0-2.5,2.4-5.1,3.6c-4.5,2.2-11,4.2-13.9,7.7c-4.6,5.5-2.2,24.4,0.3,31.7c1.5,4.2,5.4,10.6,8.3,17.3
		c1.8,4.1,4,8.1,2.1,12.9c-3.7-0.4-6.1-4.6-9.3-9.2c-4.3-6.1-9.8-13-11-14.9c-3.9-5.9-27.2-18.8-31.6-15.7c-2.6,1.8-5.7,5.4-9.2,7.6
		c-2.5,1.6-5.8,2-6.4,3.2c-0.5,1,0.8,3.4,0.6,6.2c-0.4,5-1.9,11.6-0.3,15.9c2.5,6.7,20,14.2,27.6,15.6c4.4,0.8,11.9,0.7,19.1,1.5
		c4.5,0.5,9.1,0.6,12.2,4.7c-2,3.4-7,3.4-12.9,3.9c-7.4,0.7-16.2,2-18.4,2.1c-7.1,0.4-29.8,14.3-29.3,19.6c0.3,3.1,1.8,7.7,2,11.8
		c0.2,3-1.1,6-0.5,7.1c0.6,0.9,3.3,1,5.7,2.6c4.1,2.8,9.1,7.4,13.6,8.2c7,1.2,22.2-10.4,27.3-16.2c2.9-3.4,6.5-9.9,10.8-15.8
		c2.8-3.9,5.3-8,11-8.4c1.9,3.4-0.6,7.7-3.1,13.1c-3.1,6.8-6.4,15-7.4,17c-3.2,6.3-2.6,32.9,2.3,35.2c2.8,1.3,7.5,2.3,11.2,4.2
		c2.7,1.4,4.7,4,5.9,4c1.1,0,2.5-2.4,5.1-3.6c4.5-2.2,11-4.2,13.9-7.7c4.6-5.5,2.2-24.4-0.3-31.7c-1.5-4.2-5.4-10.6-8.3-17.3
		c-1.8-4.2-4-8.2-2-13c3.8,0.2,6.3,4.5,9.6,9.2c4.3,6.1,9.8,13,11,14.9c3.9,5.9,27.2,18.8,31.6,15.7c2.6-1.8,5.7-5.4,9.2-7.6
		c2.5-1.6,5.8-2,6.4-3.2c0.5-1-0.8-3.4-0.6-6.2c0.4-5,1.9-11.6,0.3-15.9c-2.5-6.7-20-14.2-27.6-15.6c-4.4-0.8-11.9-0.7-19.1-1.5
		c-3.9-0.4-7.9-0.6-10.9-3.3C479.8,347.4,485,347.5,491.5,347z M459.1,352.7c-1.2,0-2.2-1-2.2-2.2s1-2.2,2.2-2.2s2.2,1,2.2,2.2
		S460.3,352.7,459.1,352.7z"/>
	<path class="st1" d="M549.8,364.9c7.4-0.7,16.2-2,18.4-2.1c7.1-0.4,29.8-14.3,29.3-19.6c-0.3-3.1-1.8-7.7-2-11.8
		c-0.2-3,1.1-6,0.4-7.1c-0.6-0.9-3.3-1-5.7-2.6c-4.1-2.8-9.1-7.4-13.6-8.2c-7-1.2-22.2,10.4-27.3,16.2c-2.9,3.4-6.5,9.9-10.8,15.8
		c-3.1,4.3-5.9,8.9-13,8.3c-2.1-3.5,0.4-7.8,3-13.3c3.1-6.8,6.4-15,7.4-17c3.2-6.3,2.6-32.9-2.3-35.2c-2.8-1.3-7.5-2.3-11.2-4.2
		c-2.7-1.4-4.7-4-5.9-4c-1.1,0-2.5,2.4-5.1,3.6c-4.5,2.2-11,4.2-13.9,7.7c-4.6,5.5-2.2,24.4,0.3,31.7c1.5,4.2,5.4,10.6,8.3,17.3
		c1.8,4.1,4,8.1,2.1,12.9c-3.7-0.4-6.1-4.6-9.3-9.2c-4.3-6.1-9.8-13-11-14.9c-3.9-5.9-27.2-18.8-31.6-15.7c-2.6,1.8-5.7,5.4-9.2,7.6
		c-2.5,1.6-5.8,2-6.4,3.2c-0.5,1,0.8,3.4,0.6,6.2c-0.4,5-1.9,11.6-0.3,15.9c2.5,6.7,20,14.2,27.6,15.6c4.4,0.8,11.9,0.7,19.1,1.5
		c4.5,0.5,9.1,0.6,12.2,4.7c-2,3.4-7,3.4-12.9,3.9c-7.4,0.7-16.2,2-18.4,2.1c-7.1,0.4-29.8,14.3-29.3,19.6c0.3,3.1,1.8,7.7,2,11.8
		c0.2,3-1.1,6-0.5,7.1c0.6,0.9,3.3,1,5.7,2.6c4.1,2.8,9.1,7.4,13.6,8.2c7,1.2,22.2-10.4,27.3-16.2c2.9-3.4,6.5-9.9,10.8-15.8
		c2.8-3.9,5.3-8,11-8.4c1.9,3.4-0.6,7.7-3.1,13.1c-3.1,6.8-6.4,15-7.4,17c-3.2,6.3-2.6,32.9,2.3,35.2c2.8,1.3,7.5,2.3,11.2,4.2
		c2.7,1.4,4.7,4,5.9,4c1.1,0,2.5-2.4,5.1-3.6c4.5-2.2,11-4.2,13.9-7.7c4.6-5.5,2.2-24.4-0.3-31.7c-1.5-4.2-5.4-10.6-8.3-17.3
		c-1.8-4.2-4-8.2-2-13c3.8,0.2,6.3,4.5,9.6,9.2c4.3,6.1,9.8,13,11,14.9c3.9,5.9,27.2,18.8,31.6,15.7c2.6-1.8,5.7-5.4,9.2-7.6
		c2.5-1.6,5.8-2,6.4-3.2c0.5-1-0.8-3.4-0.6-6.2c0.4-5,1.9-11.6,0.3-15.9c-2.5-6.7-20-14.2-27.6-15.6c-4.4-0.8-11.9-0.7-19.1-1.5
		c-3.9-0.4-7.9-0.6-10.9-3.3C538.1,365.3,543.3,365.4,549.8,364.9z M517.6,370.9c-1.2,0-2.2-1-2.2-2.2s1-2.2,2.2-2.2s2.2,1,2.2,2.2
		S518.8,370.9,517.6,370.9z"/>
	<path class="st0" d="M516,565.1c6.8-0.6,14.7-1.8,16.8-1.9c6.4-0.4,27.1-13,26.6-17.8c-0.2-2.8-1.6-7-1.8-10.8
		c-0.2-2.7,1-5.4,0.4-6.4c-0.5-0.9-3-0.9-5.2-2.4c-3.8-2.6-8.3-6.7-12.4-7.5c-6.4-1.1-20.2,9.4-24.8,14.7c-2.6,3.1-5.9,9-9.8,14.4
		c-2.9,3.9-5.4,8.1-11.8,7.6c-2-3.2,0.4-7.1,2.7-12.1c2.8-6.2,5.8-13.6,6.7-15.5c2.9-5.8,2.4-29.9-2.1-32c-2.6-1.2-6.8-2.1-10.2-3.8
		c-2.4-1.2-4.2-3.6-5.4-3.6c-1,0-2.3,2.2-4.6,3.3c-4.1,2-10,3.8-12.6,7c-4.2,5-2,22.2,0.3,28.8c1.3,3.8,4.9,9.6,7.6,15.7
		c1.7,3.8,3.6,7.4,1.9,11.7c-3.3-0.3-5.5-4.2-8.5-8.4c-3.9-5.5-8.9-11.8-10-13.6c-3.5-5.4-24.7-17-28.7-14.3c-2.3,1.6-5.2,4.9-8.4,7
		c-2.3,1.5-5.3,1.8-5.8,2.9c-0.5,0.9,0.7,3.1,0.5,5.6c-0.3,4.5-1.7,10.6-0.3,14.4c2.2,6.1,18.3,12.9,25.1,14.2
		c4,0.8,10.8,0.6,17.4,1.3c4.1,0.4,8.2,0.6,11.1,4.2c-1.8,3.1-6.4,3.1-11.7,3.5c-6.8,0.6-14.7,1.8-16.8,1.9
		c-6.4,0.4-27.1,13-26.6,17.8c0.2,2.8,1.6,7,1.8,10.8c0.1,2.7-1,5.5-0.4,6.5c0.5,0.9,3,0.9,5.2,2.4c3.8,2.6,8.3,6.7,12.4,7.5
		c6.4,1.1,20.2-9.4,24.8-14.7c2.6-3.1,5.9-9,9.8-14.4c2.6-3.5,4.9-7.2,10-7.6c1.7,3.1-0.5,7-2.8,11.9c-2.8,6.2-5.8,13.6-6.7,15.5
		c-2.9,5.8-2.4,29.9,2.1,32c2.6,1.2,6.8,2.1,10.2,3.8c2.4,1.2,4.2,3.6,5.4,3.6c1,0,2.3-2.2,4.6-3.3c4.1-2,10-3.8,12.6-7
		c4.2-5,2-22.2-0.3-28.8c-1.3-3.8-4.9-9.6-7.6-15.7c-1.7-3.8-3.6-7.5-1.9-11.8c3.5,0.2,5.7,4.1,8.7,8.4c3.9,5.5,8.9,11.8,10,13.6
		c3.5,5.4,24.7,17,28.7,14.3c2.3-1.6,5.2-4.9,8.4-7c2.3-1.5,5.3-1.8,5.8-2.9c0.5-0.9-0.7-3.1-0.5-5.6c0.3-4.5,1.7-10.6,0.3-14.4
		c-2.2-6.1-18.3-12.9-25.1-14.2c-4-0.8-10.8-0.6-17.4-1.3c-3.6-0.4-7.2-0.5-9.9-3C505.3,565.5,510.1,565.6,516,565.1z M486.2,570.7
		c-1.2,0-2.2-1-2.2-2.2s1-2.2,2.2-2.2s2.2,1,2.2,2.2S487.4,570.7,486.2,570.7z"/>
	<path class="st1" d="M558,568.5c6.8-0.6,14.7-1.8,16.8-1.9c6.4-0.4,27.1-13,26.6-17.8c-0.2-2.8-1.6-7-1.8-10.8
		c-0.1-2.7,1.1-5.5,0.4-6.4c-0.5-0.9-3-0.9-5.2-2.4c-3.8-2.6-8.3-6.7-12.4-7.5c-6.4-1.1-20.2,9.4-24.8,14.7c-2.6,3.1-5.9,9-9.8,14.4
		c-2.9,3.9-5.4,8.1-11.8,7.6c-2-3.2,0.4-7.1,2.7-12.1c2.8-6.2,5.8-13.6,6.7-15.5c2.9-5.8,2.4-29.9-2.1-32c-2.6-1.2-6.8-2.1-10.2-3.8
		c-2.4-1.2-4.2-3.6-5.4-3.6c-1,0-2.3,2.2-4.6,3.3c-4.1,2-10,3.8-12.6,7c-4.2,5-2,22.2,0.3,28.8c1.3,3.8,4.9,9.6,7.6,15.7
		c1.7,3.8,3.6,7.4,1.9,11.7c-3.3-0.3-5.5-4.2-8.5-8.4c-3.9-5.5-8.9-11.8-10-13.6c-3.5-5.4-24.7-17-28.7-14.3c-2.3,1.6-5.2,4.9-8.4,7
		c-2.3,1.5-5.3,1.8-5.8,2.9c-0.5,0.9,0.7,3.1,0.5,5.6c-0.3,4.5-1.7,10.6-0.3,14.4c2.2,6.1,18.3,12.9,25.1,14.2
		c4,0.8,10.8,0.6,17.4,1.3c4.1,0.4,8.2,0.6,11.1,4.2c-1.8,3.1-6.4,3.1-11.7,3.5c-6.8,0.6-14.7,1.8-16.8,1.9
		c-6.4,0.4-27.1,13-26.6,17.8c0.2,2.8,1.6,7,1.8,10.8c0.1,2.7-1,5.5-0.4,6.5c0.5,0.9,3,0.9,5.2,2.4c3.8,2.6,8.3,6.7,12.4,7.5
		c6.4,1.1,20.2-9.4,24.8-14.7c2.6-3.1,5.9-9,9.8-14.4c2.6-3.5,4.9-7.2,10-7.6c1.7,3.1-0.5,7-2.8,11.9c-2.8,6.2-5.8,13.6-6.7,15.5
		c-2.9,5.8-2.4,29.9,2.1,32c2.6,1.2,6.8,2.1,10.2,3.8c2.4,1.2,4.2,3.6,5.4,3.6c1,0,2.3-2.2,4.6-3.3c4.1-2,10-3.8,12.6-7
		c4.2-5,2-22.2-0.3-28.8c-1.3-3.8-4.9-9.6-7.6-15.7c-1.7-3.8-3.6-7.5-1.9-11.8c3.5,0.2,5.7,4.1,8.7,8.4c3.9,5.5,8.9,11.8,10,13.6
		c3.5,5.4,24.7,17,28.7,14.3c2.3-1.6,5.2-4.9,8.4-7c2.3-1.5,5.3-1.8,5.8-2.9c0.5-0.9-0.7-3.1-0.5-5.6c0.3-4.5,1.7-10.6,0.3-14.4
		c-2.2-6.1-18.3-12.9-25.1-14.2c-4-0.8-10.8-0.6-17.4-1.3c-3.6-0.4-7.2-0.5-9.9-3C547.3,568.9,552.1,569,558,568.5z M528.4,573.4
		c-1.2,0-2.2-1-2.2-2.2s1-2.2,2.2-2.2s2.2,1,2.2,2.2S529.6,573.4,528.4,573.4z"/>
	<path class="st0" d="M434.4,752.4c6.1-0.5,13.2-1.6,15.1-1.7c5.8-0.3,24.4-11.7,24-16c-0.2-2.5-1.5-6.3-1.6-9.7
		c-0.1-2.4,1-4.9,0.4-5.8c-0.5-0.8-2.7-0.8-4.6-2.1c-3.4-2.3-7.5-6.1-11.1-6.7c-5.8-1-18.3,8.5-22.3,13.3c-2.4,2.8-5.3,8.1-8.9,13
		c-2.6,3.5-4.8,7.3-10.7,6.8c-1.8-2.8,0.4-6.4,2.4-10.9c2.6-5.5,5.2-12.2,6.1-13.9c2.6-5.2,2.1-26.9-1.8-28.8
		c-2.3-1.1-6.2-1.9-9.2-3.4c-2.2-1.1-3.8-3.3-4.9-3.2c-0.9,0-2.1,2-4.2,3c-3.7,1.8-9,3.4-11.4,6.3c-3.7,4.5-1.8,20,0.3,25.9
		c1.2,3.4,4.4,8.7,6.8,14.2c1.5,3.4,3.2,6.7,1.7,10.5c-3-0.3-5-3.7-7.6-7.5c-3.5-5-8-10.6-9-12.2c-3.2-4.8-22.2-15.3-25.8-12.8
		c-2.1,1.5-4.7,4.4-7.6,6.3c-2.1,1.3-4.7,1.7-5.2,2.6c-0.4,0.8,0.7,2.8,0.5,5.1c-0.3,4.1-1.5,9.5-0.2,13c2,5.5,16.5,11.6,22.6,12.8
		c3.6,0.7,9.7,0.5,15.7,1.2c3.7,0.4,7.4,0.5,10,3.8c-1.6,2.8-5.7,2.7-10.5,3.2c-6.1,0.5-13.2,1.6-15.1,1.7c-5.8,0.3-24.4,11.7-24,16
		c0.2,2.5,1.5,6.3,1.6,9.7c0.1,2.5-0.9,4.9-0.4,5.8c0.5,0.8,2.7,0.8,4.6,2.1c3.4,2.3,7.5,6.1,11.1,6.7c5.8,1,18.3-8.5,22.3-13.3
		c2.4-2.8,5.3-8.1,8.9-13c2.3-3.2,4.4-6.5,9-6.8c1.6,2.8-0.5,6.3-2.5,10.7c-2.6,5.5-5.2,12.2-6.1,13.9c-2.6,5.2-2.1,26.9,1.8,28.8
		c2.3,1.1,6.2,1.9,9.2,3.4c2.2,1.1,3.8,3.3,4.9,3.2c0.9,0,2.1-2,4.2-3c3.7-1.8,9-3.4,11.4-6.3c3.7-4.5,1.8-20-0.3-25.9
		c-1.2-3.4-4.4-8.7-6.8-14.2c-1.5-3.4-3.3-6.7-1.7-10.6c3.1,0.2,5.1,3.6,7.9,7.5c3.5,5,8,10.6,9,12.2c3.2,4.8,22.2,15.3,25.8,12.8
		c2.1-1.5,4.7-4.4,7.6-6.3c2.1-1.3,4.7-1.7,5.2-2.6c0.4-0.8-0.7-2.8-0.5-5.1c0.3-4.1,1.5-9.5,0.2-13c-2-5.5-16.5-11.6-22.6-12.8
		c-3.6-0.7-9.7-0.5-15.7-1.2c-3.2-0.3-6.4-0.5-8.9-2.7C424.9,752.8,429.2,752.8,434.4,752.4z M406.9,758.6c-1.2,0-2.2-1-2.2-2.2
		s1-2.2,2.2-2.2s2.2,1,2.2,2.2C409.2,757.6,408.2,758.6,406.9,758.6z"/>
	<path class="st0" d="M533.2,750.1c6.1-0.5,13.2-1.6,15.1-1.7c5.8-0.3,24.4-11.7,24-16c-0.2-2.5-1.5-6.3-1.6-9.7
		c-0.1-2.4,1-4.9,0.4-5.8c-0.5-0.8-2.7-0.8-4.6-2.1c-3.4-2.3-7.5-6.1-11.1-6.7c-5.8-1-18.3,8.5-22.3,13.3c-2.4,2.8-5.3,8.1-8.9,13
		c-2.6,3.5-4.8,7.3-10.7,6.8c-1.8-2.8,0.4-6.4,2.4-10.9c2.6-5.5,5.2-12.2,6.1-13.9c2.6-5.2,2.1-26.9-1.8-28.8
		c-2.3-1.1-6.2-1.9-9.2-3.4c-2.2-1.1-3.8-3.3-4.9-3.2c-0.9,0-2.1,2-4.2,3c-3.7,1.8-9,3.4-11.4,6.3c-3.7,4.5-1.8,20,0.3,25.9
		c1.2,3.4,4.4,8.7,6.8,14.2c1.5,3.4,3.2,6.7,1.7,10.5c-3-0.3-5-3.7-7.6-7.5c-3.5-5-8-10.6-9-12.2c-3.2-4.8-22.2-15.3-25.8-12.8
		c-2.1,1.5-4.7,4.4-7.6,6.3c-2.1,1.3-4.7,1.7-5.2,2.6c-0.4,0.8,0.7,2.8,0.5,5.1c-0.3,4.1-1.5,9.5-0.2,13c2,5.5,16.5,11.6,22.6,12.8
		c3.6,0.7,9.7,0.5,15.7,1.2c3.7,0.4,7.4,0.5,10,3.8c-1.6,2.8-5.7,2.7-10.5,3.2c-6.1,0.5-13.2,1.6-15.1,1.7c-5.8,0.3-24.4,11.7-24,16
		c0.2,2.5,1.5,6.3,1.6,9.7c0.1,2.5-0.9,4.9-0.4,5.8c0.5,0.8,2.7,0.8,4.6,2.1c3.4,2.3,7.5,6.1,11.1,6.7c5.8,1,18.3-8.5,22.3-13.3
		c2.4-2.8,5.3-8.1,8.9-13c2.3-3.2,4.4-6.5,9-6.8c1.6,2.8-0.5,6.3-2.5,10.7c-2.6,5.5-5.2,12.2-6.1,13.9c-2.6,5.2-2.1,26.9,1.8,28.8
		c2.3,1.1,6.2,1.9,9.2,3.4c2.2,1.1,3.8,3.3,4.9,3.2c0.9,0,2.1-2,4.2-3c3.7-1.8,9-3.4,11.4-6.3c3.7-4.5,1.8-20-0.3-25.9
		c-1.2-3.4-4.4-8.7-6.8-14.2c-1.5-3.4-3.3-6.7-1.7-10.6c3.1,0.2,5.1,3.6,7.9,7.5c3.5,5,8,10.6,9,12.2c3.2,4.8,22.2,15.3,25.8,12.8
		c2.1-1.5,4.7-4.4,7.6-6.3c2.1-1.3,4.7-1.7,5.2-2.6c0.4-0.8-0.7-2.8-0.5-5.1c0.3-4.1,1.5-9.5,0.2-13c-2-5.5-16.5-11.6-22.6-12.8
		c-3.6-0.7-9.7-0.5-15.7-1.2c-3.2-0.3-6.4-0.5-8.9-2.7C523.7,750.5,528,750.5,533.2,750.1z M505.7,756.3c-1.2,0-2.2-1-2.2-2.2
		s1-2.2,2.2-2.2s2.2,1,2.2,2.2C508,755.3,507,756.3,505.7,756.3z"/>
	<path class="st1" d="M483.1,750.4c6.1-0.5,13.2-1.6,15.1-1.7c5.8-0.3,24.4-11.7,24-16c-0.2-2.5-1.5-6.3-1.6-9.7
		c-0.1-2.5,0.9-4.9,0.4-5.8c-0.5-0.8-2.7-0.8-4.6-2.1c-3.4-2.3-7.5-6.1-11.1-6.7c-5.8-1-18.3,8.5-22.3,13.3c-2.4,2.8-5.3,8.1-8.9,13
		c-2.6,3.5-4.8,7.3-10.7,6.8c-1.8-2.8,0.4-6.4,2.4-10.9c2.6-5.5,5.2-12.2,6.1-13.9c2.6-5.2,2.1-26.9-1.8-28.8
		c-2.3-1.1-6.2-1.9-9.2-3.4c-2.2-1.1-3.8-3.3-4.9-3.2c-0.9,0-2.1,2-4.2,3c-3.7,1.8-9,3.4-11.4,6.3c-3.7,4.5-1.8,20,0.3,25.9
		c1.2,3.4,4.4,8.7,6.8,14.2c1.5,3.4,3.2,6.7,1.7,10.5c-3-0.3-5-3.7-7.6-7.5c-3.5-5-8-10.6-9-12.2c-3.2-4.8-22.2-15.3-25.8-12.8
		c-2.1,1.5-4.7,4.4-7.6,6.3c-2.1,1.3-4.7,1.7-5.2,2.6c-0.4,0.8,0.7,2.8,0.5,5.1c-0.3,4.1-1.5,9.5-0.2,13c2,5.5,16.5,11.6,22.6,12.8
		c3.6,0.7,9.7,0.5,15.7,1.2c3.7,0.4,7.4,0.5,10,3.8c-1.6,2.8-5.7,2.7-10.5,3.2c-6.1,0.5-13.2,1.6-15.1,1.7c-5.8,0.3-24.4,11.7-24,16
		c0.2,2.5,1.5,6.3,1.6,9.7c0.1,2.5-0.9,4.9-0.4,5.8c0.5,0.8,2.7,0.8,4.6,2.1c3.4,2.3,7.5,6.1,11.1,6.7c5.8,1,18.3-8.5,22.3-13.3
		c2.4-2.8,5.3-8.1,8.9-13c2.3-3.2,4.4-6.5,9-6.8c1.6,2.8-0.5,6.3-2.5,10.7c-2.6,5.5-5.2,12.2-6.1,13.9c-2.6,5.2-2.1,26.9,1.8,28.8
		c2.3,1.1,6.2,1.9,9.2,3.4c2.2,1.1,3.8,3.3,4.9,3.2c0.9,0,2.1-2,4.2-3c3.7-1.8,9-3.4,11.4-6.3c3.7-4.5,1.8-20-0.3-25.9
		c-1.2-3.4-4.4-8.7-6.8-14.2c-1.5-3.4-3.3-6.7-1.7-10.6c3.1,0.2,5.1,3.6,7.9,7.5c3.5,5,8,10.6,9,12.2c3.2,4.8,22.2,15.3,25.8,12.8
		c2.1-1.5,4.7-4.4,7.6-6.3c2.1-1.3,4.7-1.7,5.2-2.6c0.4-0.8-0.7-2.8-0.5-5.1c0.3-4.1,1.5-9.5,0.2-13c-2-5.5-16.5-11.6-22.6-12.8
		c-3.6-0.7-9.7-0.5-15.7-1.2c-3.2-0.3-6.4-0.5-8.9-2.7C473.6,750.8,477.9,750.8,483.1,750.4z M456.9,756.5c-1.2,0-2.2-1-2.2-2.2
		s1-2.2,2.2-2.2s2.2,1,2.2,2.2C459.1,755.4,458.1,756.5,456.9,756.5z"/>
	<path class="st0" d="M362.5,283.6c-0.3-2.5,0.8-5.1,0.1-6c-0.5-0.8-2.9-0.7-4.9-1.9c-3.6-2.2-8-5.9-11.9-6.4
		c-6.1-0.8-18.6,9.6-22.5,14.7c-2.3,3-5.1,8.7-8.6,13.8c-1.8,2.5-3.2,5.2-6,6.6h-0.1c-2.4-1.1-4.1-4.1-6.4-7.4
		c-3.7-5.1-8.3-11.1-9.3-12.7c-3.3-5-23.1-16-26.8-13.3c-2.2,1.5-4.9,4.5-7.9,6.5c-2.1,1.3-5,1.7-5.5,2.7c-0.4,0.9,0.7,2.8,0.5,5.2
		c-0.4,4.3-1.6,9.9-0.3,13.4c2.1,5.7,17.1,12,23.5,13.3c3.7,0.7,10.1,0.5,16.3,1.3c3.2,0.4,6.6,0.6,9.2,2.8c0.1,2.5-1.6,5.4-3.2,8.9
		c-2.7,5.8-5.4,12.7-6.3,14.5c-2.8,5.3-2.3,27.9,1.8,29.8c2.4,1.1,6.4,2,9.6,3.6c2.3,1.1,4,3.4,5,3.4c0.9-0.1,2.2-2,4.4-3.1
		c3.8-1.8,9.4-3.5,11.8-6.5c3.9-4.7,2-20.8-0.2-27c-1.2-3.6-4.6-9-7-14.7c-1.3-2.9-2.8-5.7-2.3-8.8c2-1.7,5.6-1.8,9.6-2.4
		c6.3-0.8,13.6-2.2,15.6-2.5c6-0.7,24.7-13.1,24.2-17.7C364.3,290.8,362.9,287,362.5,283.6z M307.2,312.3c-1.3,0.3-2.6-0.6-2.9-1.9
		s0.6-2.6,1.9-2.9s2.6,0.6,2.9,1.9S308.5,312,307.2,312.3z"/>
</g>
<g id="Stem_1_">
	<path id="Stem-CUT" class="st0" d="M32.8,541.2l-4.3,4l-4.7-4V97.5c0.4-0.5,3.8-3.1,4.5-3.1s4.2,2.6,4.5,3
		C32.9,97.6,32.8,541.2,32.8,541.2z"/>
	<line id="STEM-SCORE" class="st2" x1="28.3" y1="94" x2="28.3" y2="545.4"/>
</g>
</svg>
