<?xml version="1.0" encoding="utf-8"?>
<!-- Generator: Adobe Illustrator 23.0.0, SVG Export Plug-In . SVG Version: 6.00 Build 0)  -->
<svg version="1.1" id="Layer_1" xmlns="http://www.w3.org/2000/svg" xmlns:xlink="http://www.w3.org/1999/xlink" x="0px" y="0px"
	 width="864px" height="864px" viewBox="0 0 864 864" style="enable-background:new 0 0 864 864;" xml:space="preserve">
<style type="text/css">
	.st0{fill:#BE202E;}
</style>
<path class="st0" d="M208.5,163c44.7-44.5,95.7-94.8,140-139c-8.7-2.3-16.6-4.3-24.2-6.4c-7.9-2.2-15.9-4-23.7-6.4
	c-2.8-0.8-4.5-0.2-6.5,1.8c-32.4,32.3-137.4,134.8-137.4,134.8C113.3,104.3,62.4,53.1,18.9,9.3c-2.5,9.5-4.8,17.7-7.2,26.1
	c-2,7.5-4,15.1-6.2,22.6c-0.8,2.7-0.3,4.3,1.7,6.2C41.3,98,141.4,199.7,141.3,199.8C98,243.5,48,293.6,4,337.9
	c8.7,2.3,16.7,4.5,24.6,6.5c7.7,2,15.4,3.8,23.1,6.2c2.8,0.8,4.5,0.3,6.7-1.7c32.4-32.4,136.5-135.4,136.6-135
	c44.7,44.3,94.2,93.7,138.8,138c2-7.2,3.8-13.9,5.7-20.6c2.5-9,4.7-18.1,7.4-26.9c0.8-2.8,0.3-4.7-1.8-6.9
	C311,264.2,208.5,162.8,208.5,163z M328.4,25.6c2.2,0,4,1.8,4,4s-1.8,4-4,4s-4-1.8-4-4S326.3,25.6,328.4,25.6z M24.1,33.6
	c-2.2,0-4-1.8-4-4s1.8-4,4-4s4,1.8,4,4S26.2,33.6,24.1,33.6z M23.6,336.6c-2.2,0-4-1.8-4-4s1.8-4,4-4s4,1.8,4,4
	C27.6,334.8,25.7,336.6,23.6,336.6z M176.2,184.9c-2.2,0-4-1.8-4-4s1.8-4,4-4s4,1.8,4,4C180.3,183.1,178.4,184.9,176.2,184.9z
	 M328.4,336.6c-2.2,0-4-1.8-4-4s1.8-4,4-4s4,1.8,4,4C332.4,334.8,330.6,336.6,328.4,336.6z"/>
<path class="st0" d="M348.5,38.1c39,38.6,79.3,78.8,119.9,118.9c10.9-11.2,21.2-21.9,30.9-31.8C459.8,85.2,420,44.9,379.9,4.1
	C369.4,15.7,359.2,26.7,348.5,38.1z M468.8,128.7c0-2.2,1.8-4,4-4s4,1.8,4,4s-1.8,4-4,4S468.8,130.9,468.8,128.7z M371.4,32.2
	c0-2.2,1.8-4,4-4s4,1.8,4,4s-1.8,4-4,4S371.4,34.4,371.4,32.2z"/>
<path class="st0" d="M602,350c-28.4-27.9-93.6-90-117.5-113.6c0,0,82.2-84.6,119.7-122.9c-6.5-1.8-13.9-3.7-21.1-5.7
	c-8.2-2.2-16.4-4.2-24.4-6.5c-3.2-1-5.4-0.7-7.9,2c-28.6,28.4-117.2,116.3-117.1,116C395.2,181,352,138.1,313.4,99.8
	c-1.5,5.7-3,10.9-4.3,16.1c-2.8,10.7-5.7,21.4-8.9,31.9c-0.8,2.7,0,4,1.7,5.9c28.9,28.6,115.4,114.8,115.5,115.1
	c-20.1,20.6-84.8,88-117,121.3c6.7,1.8,14.2,3.8,21.7,5.9c8.2,2.2,16.6,4.3,24.8,6.9c2.7,0.8,4.3,0.3,6.2-1.7
	c34.1-33.9,83.2-82.7,117.3-116.6c-0.3,0.1,82.3,81.8,120.1,119.3c0.5-1.5,0.8-2.8,1.2-4.3c3.8-14.4,7.7-28.8,11.7-43
	C604.5,353.6,604,352,602,350z M585.6,114.7c2.2,0,4,1.8,4,4s-1.8,4-4,4s-4-1.8-4-4S583.5,114.7,585.6,114.7z M319.9,123.2
	c-2.2,0-4-1.8-4-4s1.8-4,4-4s4,1.8,4,4S322.1,123.2,319.9,123.2z M319.9,388.8c-2.2,0-4-1.8-4-4s1.8-4,4-4s4,1.8,4,4
	C323.9,386.9,322.1,388.8,319.9,388.8z M452.2,256.6c-2.2,0-4-1.8-4-4s1.8-4,4-4s4,1.8,4,4C456.2,254.8,454.4,256.6,452.2,256.6z
	 M585.6,388.8c-2.2,0-4-1.8-4-4s1.8-4,4-4s4,1.8,4,4C589.7,386.9,587.8,388.8,585.6,388.8z"/>
<path class="st0" d="M711.6,115.6c32.5-32,71.5-69.8,103.4-101.4c-13.9-3.7-27.1-6.4-39.8-10.7c-8.7-3-14-1-20.4,5.4
	c-21.4,21.7-73.2,72.1-93.3,91.7c0.4-0.3-69.9-68.4-102.2-100.2c-0.5,1.2-1,2-1.2,3c-4,14.7-8,29.4-12.2,44
	c-0.8,2.7-0.2,4.3,1.7,6.2c23.6,23.1,99.7,97.4,99.5,97.3c-32.3,31.8-70.3,69.4-102.4,101.2c1.3,0.5,2.2,1,3.2,1.3
	c15.1,4,30.1,8,45.2,12.2c2.7,0.8,4.2-0.2,5.9-1.8c22.4-22.2,98-98.6,98.3-98.7c31.9,31.4,71.5,70.3,103.2,101.5c1-3.5,2-7,2.8-10.4
	c3.3-12.2,6.7-24.6,10.2-36.8c0.7-2.5,0.3-4.3-1.7-6.2C789.4,190.8,711.4,115.2,711.6,115.6z M795.3,16.4c2.2,0,4,1.8,4,4
	s-1.8,4-4,4s-4-1.8-4-4S793.1,16.4,795.3,16.4z M563.7,24.2c-2.2,0-4-1.8-4-4s1.8-4,4-4s4,1.8,4,4S565.8,24.2,563.7,24.2z
	 M564.3,250c-2.2,0-4-1.8-4-4s1.8-4,4-4s4,1.8,4,4C568.3,248.1,566.5,250,564.3,250z M680.1,138.1c-2.2,0-4-1.8-4-4s1.8-4,4-4
	s4,1.8,4,4S682.2,138.1,680.1,138.1z M795.3,250.8c-2.2,0-4-1.8-4-4s1.8-4,4-4s4,1.8,4,4S797.5,250.8,795.3,250.8z"/>
<path class="st0" d="M239.3,354.1c-31.7-0.1-140.4,1.2-139.9,1.2l-90.8,1.7l0.3,44.2l115.1-0.6c44.8-0.2,100.3-0.4,144.7-0.6
	c-1.8-3.2-3.5-6.4-5.3-9.4c-6.2-11-12.6-22.2-18.7-33.3C243.5,355.1,242.1,354.1,239.3,354.1z M24.3,383.2c-1.6,1.5-4.1,1.5-5.7,0
	c-1.5-1.6-1.5-4.1,0-5.7c1.6-1.5,4.1-1.5,5.7,0C25.8,379,25.9,381.6,24.3,383.2z"/>
<path class="st0" d="M808.2,310.7c5.9-11.3,12-22.5,18.1-33.7c1.7-3,3.4-6.2,5.2-9.5c-44.6,0.6-99.9,1.3-144.7,1.9l-115.1,1.3
	l0.5,43.9l90.8,0.5c-0.5,0.1,108.2-0.5,139.8-1.2C805.4,314.2,806.9,313,808.2,310.7z M587.3,294.5c-1.5,1.6-4.1,1.6-5.7,0.1
	c-1.6-1.5-1.6-4.1-0.1-5.7c1.5-1.6,4.1-1.6,5.7-0.1C588.8,290.3,588.8,292.9,587.3,294.5z"/>
</svg>
