<?xml version="1.0" encoding="UTF-8" standalone="no"?>
<!-- Created with Inkscape (http://www.inkscape.org/) -->

<svg
   xmlns:dc="http://purl.org/dc/elements/1.1/"
   xmlns:cc="http://creativecommons.org/ns#"
   xmlns:rdf="http://www.w3.org/1999/02/22-rdf-syntax-ns#"
   xmlns:svg="http://www.w3.org/2000/svg"
   xmlns="http://www.w3.org/2000/svg"
   xmlns:sodipodi="http://sodipodi.sourceforge.net/DTD/sodipodi-0.dtd"
   xmlns:inkscape="http://www.inkscape.org/namespaces/inkscape"
   id="svg2"
   version="1.1"
   inkscape:version="0.48.2 r9819"
   width="407.98615"
   height="594.58655"
   sodipodi:docname="barrel-hic.png">
  <metadata
     id="metadata8">
    <rdf:RDF>
      <cc:Work
         rdf:about="">
        <dc:format>image/svg+xml</dc:format>
        <dc:type
           rdf:resource="http://purl.org/dc/dcmitype/StillImage" />
        <dc:title></dc:title>
      </cc:Work>
    </rdf:RDF>
  </metadata>
  <defs
     id="defs6" />
  <sodipodi:namedview
     pagecolor="#ffffff"
     bordercolor="#666666"
     borderopacity="1"
     objecttolerance="10"
     gridtolerance="10"
     guidetolerance="10"
     inkscape:pageopacity="0"
     inkscape:pageshadow="2"
     inkscape:window-width="1600"
     inkscape:window-height="876"
     id="namedview4"
     showgrid="false"
     fit-margin-top="0"
     fit-margin-left="0"
     fit-margin-right="0"
     fit-margin-bottom="0"
     inkscape:zoom="1"
     inkscape:cx="198.92552"
     inkscape:cy="302.32422"
     inkscape:window-x="0"
     inkscape:window-y="24"
     inkscape:window-maximized="1"
     inkscape:current-layer="svg2" />
  <path
     style="fill:#000000"
     d="m 182.42552,594.06202 c -14.885,-1.35472 -44.30571,-5.58938 -50.90479,-7.32697 -4.34763,-1.14477 -15.14763,-4.69884 -24,-7.89793 -26.5171,-9.58283 -36.87274,-15.3929 -47.85521,-26.84935 -8.36965,-8.73088 -10.68876,-13.54802 -10.71804,-22.26298 -0.0173,-5.14894 -1.08314,-9.70512 -5.01818,-21.45124 -2.74793,-8.20257 -6.84265,-21.46071 -9.09939,-29.46252 -2.25674,-8.00182 -5.47423,-17.02376 -7.14997,-20.04876 -5.92867,-10.70224 -6.73639,-12.57664 -7.88578,-18.29987 -0.90701,-4.51633 -0.88611,-6.61717 0.0954,-9.59118 1.10706,-3.35441 0.834,-6.29837 -2.2918,-24.70855 -4.83703,-28.48892 -9.79365,-69.33318 -11.27384,-92.9004 -0.43705,-6.95847 -1.57792,-13.9393 -3.10517,-19 -1.3278602,-4.4 -2.67175024,-11.193 -2.98642024,-15.09557 -0.5127,-6.35857 -0.30842,-7.55303 1.96679024,-11.5 2.36651,-4.10535 2.58165,-5.59277 3.1683,-21.90443 0.34616,-9.625 1.09779,-22.45 1.67027,-28.5 1.26682,-13.38765 6.0474,-43.42479 9.04793,-56.84958 1.8845,-8.4315 2.03145,-10.48518 1.02067,-14.26435 -2.53364,-9.47301 -1.21536,-18.02938 3.74217,-24.28878 2.32282,-2.93279 3.98882,-7.37965 7.01408,-18.72184 4.14096,-15.525109 11.0097,-36.608131 15.27179,-46.875449 1.74306,-4.199 2.35939,-7.220973 2.05329,-10.067651 -0.71797,-6.676946 1.3999,-12.435291 6.03764,-16.415947 2.25326,-1.934021 5.9852,-5.397388 8.29319,-7.696371 5.10998,-5.090049 8.29771,-6.114086 33.8352,-10.869342 10.48953,-1.953222 22.24519,-4.4271624 26.12369,-5.4976444 17.27152,-4.76700702 94.74011,-7.398632 132.94818,-4.51628 60.32741,4.550997 88.66458,12.2327404 101.44774,27.5008204 5.70444,6.813329 7.03904,9.803422 7.0461,15.786384 0.004,3.404172 1.01361,7.760081 2.89818,12.504215 3.89644,9.808712 10.59881,31.330536 13.01497,41.792065 2.44453,10.58436 3.52737,13.49516 6.7778,18.2195 3.57255,5.19255 5.40312,13.77931 4.66117,21.86445 -0.47755,5.20384 -0.16186,7.96038 1.48881,13 5.57433,17.01886 11.12551,58.76366 12.75992,95.95437 0.62278,14.17136 1.04196,17.11347 3.05382,21.43376 3.22252,6.92009 3.21557,15.85361 -0.0173,22.29091 -2.00501,3.99234 -2.47719,6.86694 -3.07441,18.71676 -1.24829,24.76819 -8.8019,78.43434 -14.52691,103.20941 -2.48173,10.73968 -3.00561,15.08742 -2.88657,23.9558 0.1599,11.91262 -1.146,16.89413 -6.1172,23.33479 -4.04547,5.24131 -4.50532,6.373 -8.529,20.9904 -8.87511,32.2418 -23.6266,71.92112 -29.08204,78.22633 -4.31295,4.98476 -11.70642,10.98704 -16.60183,13.47794 -4.74559,2.41467 -24.1585,9.31099 -32.81321,11.65669 -11.28495,3.05858 -35.86095,7.62061 -46.42368,8.61759 -10.05499,0.94906 -53.76444,1.17829 -63.07632,0.3308 z"
     id="path2987"
     inkscape:connector-curvature="0" />
</svg>
