<?xml version="1.0" encoding="UTF-8" standalone="no"?>
<!-- Created with Inkscape (http://www.inkscape.org/) -->

<svg
   xmlns:dc="http://purl.org/dc/elements/1.1/"
   xmlns:cc="http://creativecommons.org/ns#"
   xmlns:rdf="http://www.w3.org/1999/02/22-rdf-syntax-ns#"
   xmlns:svg="http://www.w3.org/2000/svg"
   xmlns="http://www.w3.org/2000/svg"
   xmlns:sodipodi="http://sodipodi.sourceforge.net/DTD/sodipodi-0.dtd"
   xmlns:inkscape="http://www.inkscape.org/namespaces/inkscape"
   id="svg2"
   version="1.1"
   inkscape:version="0.48.2 r9819"
   width="789.00238"
   height="755"
   sodipodi:docname="turretstowerstem00sing_0173b.png">
  <metadata
     id="metadata8">
    <rdf:RDF>
      <cc:Work
         rdf:about="">
        <dc:format>image/svg+xml</dc:format>
        <dc:type
           rdf:resource="http://purl.org/dc/dcmitype/StillImage" />
        <dc:title></dc:title>
      </cc:Work>
    </rdf:RDF>
  </metadata>
  <defs
     id="defs6" />
  <sodipodi:namedview
     pagecolor="#ffffff"
     bordercolor="#666666"
     borderopacity="1"
     objecttolerance="10"
     gridtolerance="10"
     guidetolerance="10"
     inkscape:pageopacity="0"
     inkscape:pageshadow="2"
     inkscape:window-width="1600"
     inkscape:window-height="876"
     id="namedview4"
     showgrid="false"
     fit-margin-top="0"
     fit-margin-left="0"
     fit-margin-right="0"
     fit-margin-bottom="0"
     inkscape:zoom="0.70710678"
     inkscape:cx="393.5"
     inkscape:cy="351"
     inkscape:window-x="0"
     inkscape:window-y="24"
     inkscape:window-maximized="1"
     inkscape:current-layer="svg2" />
  <path
     style="fill:#000000"
     d="m 0,715.09974 0,-39.90026 5.25,-1.23997 c 2.8875,-0.68199 8.175,-2.72098 11.75,-4.5311 7.769,-3.93366 11,-4.96047 11,-3.4958 0,1.8212 1.73937,1.17204 2.26713,-0.84613 0.3938,-1.50588 1.7501,-2.05243 6.36664,-2.56555 8.42835,-0.93681 19.34826,-4.31168 23.07449,-7.13134 2.18217,-1.65126 3.43172,-3.62096 3.90692,-6.15865 0.38427,-2.05202 1.30305,-5.17899 2.04174,-6.94882 C 66.39562,640.51228 67,637.00244 67,634.48246 c 0,-2.51998 0.59189,-5.79693 1.31531,-7.28212 0.76459,-1.56971 1.40641,-6.93813 1.53289,-12.82163 0.11967,-5.56671 0.62137,-11.52921 1.11489,-13.25 C 71.50964,599.223 71.49678,598 70.93019,598 70.41859,598 70,597.325 70,596.5 c 0,-1.81631 1.63514,-1.99117 2.33772,-0.25 0.27741,0.6875 0.53991,0.2375 0.58333,-1 C 72.96447,594.0125 72.55,593 72,593 c -1.41586,0 -1.24651,-2.75116 0.19901,-3.233 0.84578,-0.28193 1.28414,-4.9465 1.48799,-15.83334 C 73.84594,565.44515 74.24297,554 74.56928,548.5 c 0.32632,-5.5 0.54919,-15.27627 0.49527,-21.72504 -0.0759,-9.08267 0.18744,-11.61537 1.16871,-11.2384 1.00034,0.38429 1.19881,-3.24584 0.94372,-17.26107 -0.17766,-9.76124 -0.69718,-17.97896 -1.15451,-18.2616 -1.25036,-0.77277 -0.90472,-2.3795 0.77631,-3.6087 1.73169,-1.26625 2.11218,-9.37362 2.16888,-46.21312 0.0197,-12.81936 0.41004,-23.07667 0.86737,-22.79403 0.45733,0.28265 0.63828,1.83043 0.40212,3.43951 -0.23616,1.60908 0.0639,3.23045 0.66673,3.60305 0.74912,0.46297 1.14104,-1.47814 1.23802,-6.13158 0.12778,-6.13117 0.21705,-6.41081 0.8967,-2.80902 0.62748,3.32531 0.75413,2.73495 0.75084,-3.5 -0.002,-4.125 0.32259,-10.70302 0.72169,-14.61782 0.49864,-4.89115 0.37577,-7.33404 -0.39275,-7.80901 -1.64355,-1.01578 -1.37641,-6.53692 0.34831,-7.19876 1.56831,-0.60182 1.56756,-0.25804 0.0688,-31.37441 -0.51748,-10.74397 -0.40996,-14.11144 0.41508,-13 0.82698,1.11407 0.9595,-2.10199 0.51508,-12.5 -0.36671,-8.57972 -0.24391,-13.49088 0.31717,-12.68499 0.59579,0.85575 1.11405,-2.01236 1.48394,-8.21216 0.31262,-5.23994 0.90282,-10.06828 1.31156,-10.72963 0.40874,-0.66136 0.63981,-4.05339 0.51349,-7.53784 C 88.95273,272.49883 89.26921,270 89.89421,270 c 0.58555,0 1.00767,-2.27144 0.97566,-5.25 -0.0813,-7.56385 2.26823,-26.75 3.27578,-26.75 0.46987,0 0.85432,1.60458 0.85432,3.56574 0,1.96116 0.53669,4.54866 1.19265,5.75 1.24575,2.28151 2.33101,8.04019 3.42693,18.18426 0.35652,3.3 1.05513,6.78999 1.55246,7.75553 0.49734,0.96554 1.16906,4.56554 1.49273,8 0.74872,7.94464 1.30247,8.57749 1.45354,1.66114 0.0998,-4.56943 0.23772,-4.94743 0.88169,-2.41667 0.72299,2.84132 0.76963,2.77961 0.88169,-1.16667 0.0709,-2.49582 -0.38294,-4.36892 -1.13169,-4.67105 -1,-0.40351 -1,-0.52017 0,-0.58333 0.6875,-0.0434 1.24311,-1.31645 1.23469,-2.82895 -0.0119,-2.14294 -0.22931,-2.41887 -0.98469,-1.25 -0.53316,0.825 -1.01327,1.05 -1.06692,0.5 -0.3344,-3.42821 -1.17432,-7.08224 -1.96944,-8.56793 -0.64563,-1.20639 -0.46988,-2.09696 0.58692,-2.97403 1.21618,-1.00934 1.46795,-3.60803 1.29911,-13.40946 -0.20883,-12.12353 0.64723,-16.96331 2.29628,-12.9822 0.55452,1.3387 0.68347,0.85678 0.41911,-1.56638 -0.52068,-4.77264 -0.47548,-4.68601 -1.56506,-3 -0.75538,1.16887 -0.97275,0.89294 -0.98469,-1.25 -0.008,-1.5125 0.3808,-2.75 0.86494,-2.75 0.48413,0 0.77171,-2.925 0.63907,-6.5 -0.13264,-3.575 0.11913,-6.5 0.55951,-6.5 0.44037,0 0.7933,-2.8125 0.78429,-6.25 -0.0258,-9.84784 0.0798,-10.90331 1.0323,-10.31463 0.49248,0.30437 1.22074,4.22842 1.61834,8.72012 0.39761,4.4917 1.31465,9.58293 2.03787,11.31383 0.72322,1.73091 1.54005,6.94591 1.81517,11.58889 0.76541,12.91702 1.8068,17.94179 3.71845,17.94179 1.11782,0 0.93655,-1.56102 -0.62307,-5.3654 -0.63092,-1.53901 -0.41748,-1.75519 1.21988,-1.23551 2.70959,0.85999 2.7177,-2.17333 0.0138,-5.14909 -1.12445,-1.2375 -1.51602,-2.25 -0.87014,-2.25 0.7009,0 1.17431,-1.59252 1.17431,-3.95031 0,-2.59934 0.55323,-4.25991 1.61767,-4.8556 1.48088,-0.82874 1.47115,-1.1289 -0.11501,-3.54969 -1.68512,-2.57182 -1.67463,-2.6444 0.38233,-2.6444 2.50915,0 2.89859,-3.1048 0.62602,-4.99086 -1.80202,-1.49554 -0.91293,-3.37735 1.21066,-2.56245 1.15131,0.4418 1.36905,0.095 0.89885,-1.43183 -0.34129,-1.10817 -0.898,-2.91486 -1.23715,-4.01486 -0.44075,-1.42953 -0.15551,-2 1,-2 1.99499,0 2.03068,-1.86848 0.0848,-4.44113 C 120.6136,193.10687 120.60513,192 122.441,192 c 2.21292,0 2.74585,-1.67031 1.06821,-3.34795 -1.91672,-1.91672 -1.89748,-2.64764 0.10829,-4.11429 1.48891,-1.08873 1.48687,-1.43528 -0.0257,-4.36025 C 122.1893,177.46538 122.16345,177 123.4153,177 c 2.40638,0 2.90138,-1.9926 1.01328,-4.07892 -1.69279,-1.87051 -1.68638,-2.01292 0.15204,-3.37608 1.66396,-1.2338 1.7454,-1.70788 0.61197,-3.56246 -1.00689,-1.64753 -1.03731,-2.46472 -0.13233,-3.55515 0.6463,-0.77875 0.94402,-2.62466 0.6616,-4.10204 -0.28242,-1.47738 -0.002,-3.50497 0.62287,-4.50575 0.85707,-1.37238 0.8365,-2.29976 -0.0837,-3.77324 -0.86464,-1.38449 -0.90333,-2.1494 -0.13283,-2.62559 0.66449,-0.41068 0.84635,-2.17845 0.46771,-4.54636 C 126.18012,140.2742 126.35216,139 127.11902,139 c 0.74742,0 0.9462,-1.21064 0.57469,-3.5 -0.40564,-2.49969 -0.19561,-3.5 0.73489,-3.5 0.97843,0 1.118,-1.0109 0.56049,-4.05965 -0.59589,-3.25869 -0.46831,-3.95449 0.64664,-3.52664 1.06123,0.40723 1.23784,-0.10964 0.74842,-2.19035 -1.00494,-4.2724 -0.96671,-4.73987 0.36585,-4.47336 0.6875,0.1375 1.25,-0.425 1.25,-1.25 0,-0.825 -0.45,-1.5 -1,-1.5 -0.55,0 -1,-1.60156 -1,-3.55902 0,-2.34724 0.37689,-3.32608 1.10693,-2.87489 0.77361,0.47811 0.89198,-0.29455 0.39311,-2.5659 -0.44431,-2.02296 -0.30073,-3.50534 0.3803,-3.92624 0.75195,-0.46472 0.79736,-1.71094 0.14522,-3.98483 -0.72816,-2.53895 -0.60888,-3.64866 0.51277,-4.77031 1.61703,-1.61703 1.95964,-2.74461 0.57367,-1.88803 -0.4884,0.30185 -1.09158,-0.83828 -1.3404,-2.53361 -0.28725,-1.95713 0.0212,-3.26417 0.84491,-3.58025 0.8521,-0.32698 1.09778,-1.49547 0.7159,-3.40489 -0.33793,-1.68965 -0.0592,-3.53627 0.66553,-4.40955 0.68582,-0.82636 0.85435,-1.50937 0.3745,-1.51779 -0.47984,-0.008 -0.19744,-0.49268 0.62756,-1.07613 1.07828,-0.76258 1.16265,-1.19873 0.30009,-1.55133 -0.83552,-0.34155 -0.92305,-1.21872 -0.28821,-2.88847 0.56682,-1.490867 0.54734,-2.623142 -0.0515,-2.993252 -1.49462,-0.923724 -0.39897,-10.179768 1.42035,-11.999081 1.91367,-1.913678 1.92817,-2.030746 0.56646,-4.575113 -1.44883,-2.707179 0.73945,-8.586102 3.46086,-9.297769 1.63062,-0.426416 1.80172,-0.793787 0.82471,-1.770792 -1.48069,-1.480695 -1.64356,-7.460822 -0.22704,-8.336282 0.55314,-0.34186 0.93093,-2.598522 0.83954,-5.014805 -0.15117,-3.996648 -0.43195,-4.451615 -3.11023,-5.039865 -2.7095,-0.595106 -2.88731,-0.897395 -2.23185,-3.794212 0.3917,-1.731174 0.64964,-4.610089 0.57318,-6.397589 C 136.9999,9.4625 137.40145,8 137.96867,8 138.5359,8 139,7.355324 139,6.567388 139,5.779451 139.9,4.849126 141,4.5 142.1,4.150874 143,2.995549 143,1.932612 143,0.666667 143.68991,0 145,0 c 1.20588,0 2,0.666667 2,1.679002 0,0.923451 0.5625,3.24687 1.25,5.163154 1,2.787322 1,3.568188 0,3.904331 -1.92046,0.645551 -1.4821,4.045073 0.60712,4.708163 1.30754,0.414997 1.72535,1.278666 1.41188,2.918497 -0.24488,1.280989 0.0322,4.058269 0.61578,6.171733 1.3124,4.753117 0.92225,5.237737 -1.83451,2.278705 l -2.15083,-2.308645 0.41006,3.721117 c 0.22554,2.046615 0.86112,4.293253 1.4124,4.99253 1.60967,2.041804 2.38325,6.58839 1.24109,7.294285 -1.26374,0.781035 -0.34822,4.05694 2.1099,7.549612 1.11696,1.587063 2.02077,5.185291 2.35944,9.393337 0.42064,5.226608 1.14736,7.60541 3.1092,10.177516 2.42941,3.185113 2.20282,4.701013 -0.32486,2.173333 -2.15169,-2.151694 -2.35885,-0.0988 -0.32716,3.24205 1.43172,2.35427 1.73116,3.78154 1.05748,5.04034 -1.01166,1.8903 -0.29907,4.90094 1.16,4.90094 0.49115,0 0.89301,0.92656 0.89301,2.05902 0,1.13246 -0.45,1.7809 -1,1.44098 -0.55,-0.33992 -1,0.26038 -1,1.33399 0,1.07362 0.71172,2.22514 1.58159,2.55895 1.18544,0.45489 1.45668,1.5338 1.08291,4.30737 -0.36572,2.71384 -0.0542,4.03072 1.16841,4.93917 1.39327,1.03525 1.46178,1.57499 0.41709,3.28605 -1.69207,2.77138 -1.57333,4.11392 0.5,5.65332 1.46252,1.0859 1.54732,1.6314 0.51621,3.32071 -1.42288,2.33119 -0.69492,5.10044 1.34078,5.10044 1.61105,0 1.8614,1.59249 0.39301,2.5 -0.55,0.33992 -1,1.71648 -1,3.05902 0,2.17864 0.94554,2.92326 3.25,2.5594 1.18225,-0.18667 0.88138,1.24899 -0.74979,3.57782 -1.66296,2.37421 -1.05162,5.30376 1.10678,5.30376 0.76615,0 1.39301,0.675 1.39301,1.5 0,0.825 -0.45,1.5 -1,1.5 -1.67222,0 -1.11574,3.83585 0.70423,4.85436 1.43643,0.80386 1.51932,1.35958 0.52751,3.53636 -1.01872,2.23585 -0.88575,2.85371 0.99025,4.60147 1.67987,1.56503 1.89847,2.28735 0.97249,3.21333 -1.65964,1.65964 -1.49336,4.46581 0.30552,5.15611 1.6649,0.63888 2.0771,3.63837 0.5,3.63837 -1.92114,0 -1.03406,4.17833 1,4.71025 2.16002,0.56486 2.60253,1.79933 1,2.78975 -1.60885,0.99432 -1.19924,5.5 0.5,5.5 0.825,0 1.5,0.675 1.5,1.5 0,0.825 -0.45,1.5 -1,1.5 -1.85794,0 -1.01615,3.92099 1.08296,5.0444 1.82495,0.97668 1.90873,1.32168 0.67638,2.78518 -1.6843,2.00021 -1.18521,5.17042 0.81398,5.17042 0.78468,0 1.42668,0.675 1.42668,1.5 0,0.825 -0.45,1.5 -1,1.5 -0.55,0 -1,1.125 -1,2.5 0,1.55556 0.56667,2.5 1.5,2.5 0.825,0 1.5,0.675 1.5,1.5 0,0.825 -0.45,1.5 -1,1.5 -1.85794,0 -1.01615,3.92099 1.08296,5.0444 1.92585,1.03068 1.96174,1.24872 0.47589,2.89057 -1.77797,1.96463 -1.13639,5.06503 1.04814,5.06503 0.76615,0 1.39301,0.675 1.39301,1.5 0,0.825 -0.45,1.5 -1,1.5 -0.55,0 -1,1.125 -1,2.5 0,1.55556 0.56667,2.5 1.5,2.5 0.825,0 1.5,0.675 1.5,1.5 0,0.825 -0.45,1.5 -1,1.5 -1.89538,0 -0.99566,3.69631 1.13066,4.6451 1.82457,0.81415 1.93232,1.15933 0.75,2.40281 -2.26225,2.37929 -2.23499,5.04667 0.0577,5.64622 2.21463,0.57914 2.67894,1.80632 1.06163,2.80587 -0.55,0.33992 -1,1.54658 -1,2.68146 0,1.66291 0.27387,1.83613 1.41097,0.89243 2.12494,-1.76355 2.82794,0.11531 3.10679,8.30325 0.30097,8.83784 0.2627,8.62286 1.53506,8.62286 0.65051,0 0.98551,-2.57936 0.87668,-6.75 -0.10363,-3.97126 0.5329,-9.15686 1.54623,-12.59664 1.14597,-3.89003 1.50584,-7.29057 1.07535,-10.16133 -0.38525,-2.569 -0.23489,-4.56941 0.37163,-4.94426 1.03807,-0.64157 1.95647,2.34325 1.83144,5.95223 -0.0381,1.1 0.2426,3.575 0.62379,5.5 0.38119,1.925 0.93589,6.2 1.23268,9.5 0.29678,3.3 0.93027,6.9 1.40774,8 0.47747,1.1 1.13173,4.025 1.45392,6.5 1.41912,10.9016 2.80633,25.89384 2.81006,30.36981 0.006,6.81153 1.85755,3.27187 2.06336,-3.94391 0.0849,-2.97531 0.4918,-5.41331 0.9043,-5.41778 0.4125,-0.004 0.80734,-2.82062 0.87742,-6.25812 l 0.12743,-6.25 0.95988,6.25 c 0.80306,5.22889 1.28202,6.25 2.9316,6.25 1.32717,0 1.71644,-0.40861 1.19081,-1.25 -1.21395,-1.9432 -1.32493,-4.13951 -0.24296,-4.80821 0.64207,-0.39682 0.63142,-1.53331 -0.0307,-3.27476 C 212.27207,272.58551 212.34894,272 213.4136,272 c 1.54535,0 1.60851,-3.10839 0.0864,-4.25 -0.63387,-0.47541 -0.49544,-1.07519 0.37812,-1.6382 0.75796,-0.4885 1.0689,-1.3885 0.69098,-2 -0.37792,-0.61149 -0.12058,-1.1118 0.57188,-1.1118 0.90462,0 0.9538,-0.30522 0.17469,-1.08433 -1.30576,-1.30576 -0.54166,-4.90278 1.05096,-4.94747 0.62335,-0.0175 0.25986,-0.6925 -0.80776,-1.5 -1.06762,-0.80751 -1.45761,-1.4682 -0.86663,-1.4682 1.44606,0 2.49212,-4.26802 1.23629,-5.04417 C 214.78495,248.24906 215.75982,245 217.11546,245 c 0.49582,0 0.36225,-0.86346 -0.29682,-1.9188 -0.93212,-1.49256 -0.93017,-2.24189 0.009,-3.37325 0.6639,-0.79995 0.92398,-2.19222 0.57796,-3.09394 -0.34602,-0.90171 -0.0737,-2.30875 0.60519,-3.12674 0.96608,-1.16406 0.97168,-1.80373 0.0258,-2.94347 -1.30708,-1.57493 -0.49202,-3.94345 1.03275,-3.00109 0.51199,0.31643 0.9309,-0.0997 0.9309,-0.92468 0,-0.825 -0.45,-1.77811 -1,-2.11803 -1.59111,-0.98336 -1.15935,-3.32266 0.67859,-3.67668 1.57146,-0.30268 1.57146,-0.43045 0,-2.00189 C 217.59643,216.73929 217.51515,215 219.5,215 c 1.68139,0 2.04499,-2.54515 0.5,-3.5 -1.58252,-0.97805 -1.16208,-2.77617 0.5,-2.13837 1.78945,0.68667 1.9255,-0.69807 0.3566,-3.62957 -0.85786,-1.60294 -0.85786,-2.23164 0,-2.51759 1.49917,-0.49973 1.46538,-3.49249 -0.0566,-5.01447 -0.93333,-0.93333 -0.82222,-1.2 0.5,-1.2 1.994,0 2.23409,-2.06066 0.45,-3.86228 -1.00113,-1.01096 -0.90857,-1.45496 0.46488,-2.23003 1.43807,-0.81155 1.52796,-1.378 0.55685,-3.50934 -0.89434,-1.96287 -0.87752,-2.71493 0.0739,-3.30293 0.90983,-0.56231 0.96325,-1.46796 0.20433,-3.46407 -0.80473,-2.11661 -0.71766,-2.82163 0.40151,-3.25109 1.14543,-0.43955 1.20411,-1.04211 0.29566,-3.03594 -0.70473,-1.54673 -0.77343,-2.74412 -0.18164,-3.16593 0.52347,-0.37312 0.9119,-2.81589 0.86318,-5.42839 -0.0621,-3.33005 0.309,-4.75 1.24139,-4.75 1.54482,0 1.80781,-3.58664 0.32996,-4.5 -1.45378,-0.89849 -1.22504,-3.13211 0.49713,-4.85427 C 228.15423,149.98863 227.51277,147 225.5,147 c -1.78311,0 -2.68163,-2.79211 -1.56808,-4.87279 0.50861,-0.95034 0.74097,-4.06774 0.51635,-6.92755 C 224.07865,130.49353 224.23422,130 226.08733,130 c 1.56239,0 1.90339,-0.45388 1.43938,-1.91584 -0.33444,-1.05372 -0.10055,-2.22951 0.51974,-2.61287 1.27204,-0.78616 2.97568,0.57134 3.32322,2.64801 0.12708,0.75939 1.06708,3.11015 2.08887,5.22392 1.56864,3.24502 1.63863,3.98199 0.44964,4.73469 -1.15841,0.73334 -1.11847,0.89418 0.22519,0.90678 1.91531,0.018 3.00014,3.19629 1.75937,5.15461 -0.47416,0.74839 -0.86901,2.5982 -0.87743,4.1107 -0.008,1.5125 -0.46531,2.75 -1.01531,2.75 -0.55,0 -1,0.675 -1,1.5 0,0.825 0.46852,1.5 1.04116,1.5 0.64312,0 0.86554,1.89066 0.58178,4.94543 -0.31982,3.44303 -0.0414,5.2923 0.9164,6.08722 0.8613,0.71481 1.16699,2.18568 0.81747,3.93329 -0.30706,1.53532 -0.0777,3.08852 0.50969,3.45155 0.60309,0.37273 0.81018,1.94911 0.47575,3.62128 -0.38024,1.90118 -0.1827,2.96123 0.5518,2.96123 0.73885,0 0.90799,0.94055 0.47754,2.65559 -0.47921,1.90936 -0.18675,3.0064 1.04079,3.904 1.08717,0.79496 1.32234,1.48633 0.64746,1.90343 -1.37,0.84671 -1.38182,4.53698 -0.0145,4.53698 0.65305,0 0.79892,1.31343 0.38871,3.5 -0.42303,2.25498 -0.27019,3.5 0.42969,3.5 0.67366,0 0.85838,1.13957 0.48629,3 -0.39324,1.96618 -0.1967,3 0.57031,3 0.7959,0 0.96025,1.11974 0.51371,3.5 -0.43579,2.32299 -0.27648,3.5 0.47374,3.5 0.71239,0 0.8936,0.94328 0.49006,2.55111 -0.46307,1.84501 -0.12237,2.94333 1.23094,3.96819 1.08448,0.82128 1.34567,1.43047 0.62124,1.4489 -1.45546,0.037 -1.72844,5.0318 -0.275,5.0318 0.55,0 0.71346,1.30769 0.375,3 -0.36539,1.82693 -0.18468,3 0.46213,3 0.65538,0 0.84462,1.34035 0.49416,3.5 -0.47586,2.93236 -0.27104,3.5 1.26287,3.5 1.42399,0 1.56417,0.26667 0.63084,1.2 -1.68884,1.68884 -1.49439,4.8 0.3,4.8 0.825,0 1.5,0.45 1.5,1 0,0.55 -0.45,1 -1,1 -1.64751,0 -1.12976,3.18101 0.75,4.60795 1.06875,0.8113 1.26339,1.34082 0.5,1.36025 -1.45546,0.037 -1.72844,5.0318 -0.275,5.0318 0.55,0 0.71346,1.30769 0.375,3 -0.46974,2.34872 -0.24722,3 1.025,3 0.89375,0 1.625,0.45 1.625,1 0,0.55 -0.45,1 -1,1 -0.55,0 -1,0.9 -1,2 0,1.11111 0.66667,2 1.5,2 0.825,0 1.5,0.45 1.5,1 0,0.55 -0.45,1 -1,1 -1.7061,0 -1.09749,3.74861 0.72197,4.44681 1.34921,0.51774 1.43615,0.83743 0.40161,1.47681 -1.58955,0.9824 -1.00325,4.68104 0.68581,4.32638 1.44371,-0.30314 1.58689,1.38705 0.19061,2.25 -1.68739,1.04287 -1.14962,4.5 0.7,4.5 1.32222,0 1.43333,0.26667 0.5,1.2 -1.46292,1.46292 -1.58872,4.8 -0.18095,4.8 0.59309,0 0.75141,1.06636 0.37877,2.55111 -0.46307,1.84501 -0.12237,2.94333 1.23094,3.96819 1.08448,0.82128 1.34567,1.43047 0.62124,1.4489 -1.45562,0.037 -1.7281,4.0318 -0.275,4.0318 0.55,0 0.71346,1.30769 0.375,3 -0.36539,1.82693 -0.18468,3 0.46213,3 0.65538,0 0.84462,1.34035 0.49416,3.5 -0.54353,3.34937 0.96613,5.07056 1.97347,2.25 0.24554,-0.6875 0.78863,-0.93191 1.20687,-0.54314 0.66631,0.61938 0.92034,2.89332 1.40124,12.54314 0.0617,1.2375 0.52515,2.25 1.02995,2.25 0.50481,0 0.85894,-3.7125 0.78696,-8.25 -0.20711,-13.05682 0.22328,-20.75 1.16085,-20.75 0.4761,0 1.14878,3.0375 1.49484,6.75 1.23462,13.2448 1.83171,16.75074 2.9729,17.45604 0.79886,0.49372 0.53944,1.19142 -0.83824,2.25447 -1.96811,1.51864 -1.96898,1.5597 -0.0641,3.03208 1.49483,1.15546 1.95937,2.84347 2.05661,7.47328 0.15907,7.57333 1.48551,9.19883 1.59189,1.9508 l 0.0795,-5.41667 1.29991,6 c 0.71495,3.3 1.6316,8.925 2.037,12.5 0.40541,3.575 0.96216,7.4 1.23722,8.5 0.27507,1.1 0.90932,6.5 1.40945,12 0.50013,5.5 1.34764,11.03367 1.88337,12.29705 0.53573,1.26338 0.97666,4.63838 0.97984,7.5 0.003,2.86162 0.4668,7.90295 1.03025,11.20295 0.56344,3.3 1.00777,11.79985 0.98738,18.88855 l -0.0371,12.88855 7.72884,-0.70037 c 4.25087,-0.3852 8.19144,-1.05279 8.75683,-1.48353 0.56538,-0.43074 4.17797,-0.81001 8.02797,-0.84282 l 7,-0.0597 -0.27508,-15.09535 C 315.98835,407.11335 316.16335,405 317.47492,405 318.31371,405 319,404.52344 319,403.94098 c 0,-0.58246 -0.41891,-0.80012 -0.9309,-0.48369 -0.512,0.31644 -1.21356,0.11799 -1.55902,-0.44098 -0.34546,-0.55897 0.0135,-1.01631 0.79764,-1.01631 1.14985,0 1.37669,-1.79 1.17225,-9.25 -0.13943,-5.0875 -0.38634,-9.7 -0.54868,-10.25 -0.16235,-0.55 0.23418,-2.8 0.88118,-5 0.64701,-2.2 1.17889,-5.4625 1.18195,-7.25 0.003,-1.7875 0.45558,-3.25 1.00558,-3.25 0.55,0 1,-0.86786 1,-1.92857 0,-1.06072 0.71969,-2.64826 1.59931,-3.52788 1.07472,-1.07473 1.28458,-2.00017 0.63979,-2.82143 -0.52773,-0.67217 -0.86629,-4.25962 -0.75236,-7.97212 0.12789,-4.16704 -0.19347,-6.75 -0.83979,-6.75 -0.68475,0 -0.65884,-0.38811 0.0749,-1.12186 0.61702,-0.61702 0.88387,-1.74202 0.59301,-2.5 -0.3141,-0.81852 0.1237,-1.37814 1.07814,-1.37814 0.88385,0 1.65745,0.5625 1.71912,1.25 0.0617,0.6875 0.22863,3.32971 0.37102,5.87158 0.69779,12.45616 1.7773,21.87842 2.50662,21.87842 0.44563,0 0.81023,1.58717 0.81023,3.52704 0,1.93988 0.53158,4.16756 1.18128,4.95041 1.03526,1.24741 1.45217,6.35613 1.90402,23.33157 0.0718,2.69649 0.5027,4.06921 1.15153,3.66822 0.65807,-0.40671 0.94719,0.69034 0.79144,3.00306 -0.15657,2.32473 0.28262,3.97786 1.21316,4.56647 2.16895,1.37195 2.66488,1.17873 3.32828,-1.29677 0.95241,-3.55387 0.7413,-4.75 -0.83833,-4.75 -0.83722,0 -1.24114,-0.59278 -0.93951,-1.37881 0.291,-0.75834 1.2667,-1.32084 2.16822,-1.25 2.08432,0.16379 4.38373,-5.48863 2.48991,-6.12068 C 340.59549,395.69833 340.637,393 342.3,393 c 0.715,0 1.90623,0.5625 2.64718,1.25 1.1,1.02066 1.23358,0.92733 0.72805,-0.50868 -0.34052,-0.96728 -0.19289,-2.87978 0.32807,-4.25 C 346.74747,387.53402 346.63428,387 345.47525,387 344.66386,387 344,386.3162 344,385.48044 c 0,-1.07508 0.73125,-1.38695 2.5,-1.06622 1.51017,0.27385 2.50541,-0.0154 2.51365,-0.73044 0.008,-0.65108 0.285,-2.19628 0.61664,-3.43378 0.44329,-1.65413 0.17484,-2.25 -1.01366,-2.25 C 347.72748,378 347,377.325 347,376.5 c 0,-1.77362 1.36611,-1.90962 4.16037,-0.41417 1.81446,0.97107 1.95472,0.85215 1.32712,-1.12523 -0.50796,-1.60044 -0.36642,-2.00381 0.51251,-1.4606 1.49384,0.92324 0.2728,-3.65114 -1.23317,-4.61983 -0.52999,-0.3409 -0.80684,-1.38259 -0.61522,-2.31485 0.31091,-1.51266 0.59047,-1.46868 2.59839,0.40878 l 2.25,2.10381 0.0765,-2.28895 c 0.0421,-1.25893 0.23946,-3.15955 0.43862,-4.2236 0.19915,-1.06406 -0.39778,-2.49626 -1.32651,-3.18268 -1.24425,-0.91961 -1.39539,-1.54583 -0.57433,-2.37965 0.82769,-0.84055 1.53499,-0.7109 2.75,0.50411 1.64139,1.64139 2.13245,0.99334 1.71036,-2.25714 -0.0893,-0.6875 0.35916,-1.25 0.99652,-1.25 0.75509,0 0.59615,-0.85879 -0.45616,-2.46482 C 357.45824,348.24353 357.57998,347 360.05902,347 c 1.13246,0 1.7809,0.45 1.44098,1 -0.33992,0.55 -0.25398,0.99542 0.19098,0.98983 0.91551,-0.0115 4.53064,-7.69722 4.69892,-9.98983 0.0605,-0.825 -1.0149,-2.51351 -2.3899,-3.75225 -2.4369,-2.19541 -2.45158,-2.28964 -0.58183,-3.73321 1.61775,-1.24902 1.73997,-1.87204 0.78042,-3.97804 -0.7436,-1.63201 -1.66794,-2.29363 -2.66817,-1.9098 -1.91516,0.73491 -2.06415,-1.94921 -0.21123,-3.80527 C 362.98168,320.15611 364.11483,316 362.90638,316 362.40787,316 362,315.325 362,314.5 c 0,-0.825 0.675,-1.5 1.5,-1.5 1.69545,0 2.04812,-1.65063 0.46539,-2.1782 -0.63372,-0.21124 -0.46268,-1.11536 0.44143,-2.33334 2.20189,-2.9663 5.20445,-0.84332 4.76781,3.37111 -0.24752,2.38914 0.0715,3.14043 1.33334,3.14043 0.91228,0 1.4712,0.5625 1.24203,1.25 -0.22917,0.6875 -0.94167,1.25 -1.58333,1.25 -2.4383,0 -1.54185,2.01441 1.02849,2.31113 2.05663,0.23742 2.54514,0.71125 2.06197,2 -0.34825,0.92888 -1.21751,2.13887 -1.93169,2.68887 -1.74915,1.34706 -2.93908,7.5 -1.45044,7.5 0.61875,0 1.125,0.675 1.125,1.5 0,0.825 -0.50852,1.5 -1.13005,1.5 -0.75097,0 -0.95662,1.53872 -0.61304,4.58696 0.6299,5.58843 1.88142,7.13186 4.03595,4.97733 0.86035,-0.86036 1.82143,-1.56429 2.13571,-1.56429 0.99015,0 0.62073,2.94819 -0.61795,4.93163 -0.82678,1.32389 -0.88839,2.57902 -0.20208,4.11709 0.9635,2.1593 1.03221,2.16767 2.8525,0.34738 1.82029,-1.82029 1.85232,-1.76906 1.32977,2.12683 -0.53812,4.01198 0.68402,6.48546 2.84803,5.76412 0.60254,-0.20084 1.3582,0.94816 1.67924,2.55335 0.32104,1.60519 1.2808,3.61563 2.13281,4.46764 0.85201,0.852 1.54911,2.00092 1.54911,2.55314 0,0.55223 0.85843,1.2765 1.90762,1.6095 1.6536,0.52483 3.79806,3.64996 2.90693,4.23627 -0.173,0.11383 0.43328,0.78883 1.34728,1.5 0.91401,0.71118 2.6194,3.09305 3.78976,5.29305 l 2.12792,4 -0.51448,-7.80459 c -0.28296,-4.29253 -0.75498,-8.19375 -1.04894,-8.66938 -0.29396,-0.47564 0.10307,-1.50233 0.88229,-2.28155 0.77922,-0.77922 1.73521,-3.9655 2.12441,-7.08062 0.38921,-3.11512 1.03204,-5.66386 1.4285,-5.66386 0.39646,0 0.77973,-1.9125 0.8517,-4.25 0.072,-2.3375 0.45145,-6.95 0.84327,-10.25 0.97719,-8.22996 0.98718,-8.85197 0.16138,-10.05204 -1.11006,-1.61315 0.23859,-5.44796 1.91598,-5.44796 0.91392,0 1.26773,0.58017 0.91475,1.5 -0.31658,0.825 -0.25222,1.50033 0.14301,1.50073 0.39524,4.1e-4 0.76316,3.26291 0.8176,7.25 0.0544,3.9871 0.3539,9.27427 0.66546,11.74927 0.31156,2.475 0.60452,5.2875 0.65102,6.25 0.16702,3.45736 1.58454,1.66876 1.58454,-1.99934 0,-3.16554 0.30362,-3.69779 1.94622,-3.41176 1.6355,0.28479 1.74552,0.0971 0.68913,-1.17581 -0.6914,-0.83309 -1.17639,-2.1106 -1.07774,-2.8389 0.0986,-0.72831 0.0944,-2.22419 -0.009,-3.32419 -0.18487,-1.95867 -0.20451,-1.95978 -0.95048,-0.0535 -0.73848,1.88708 -0.77835,1.88284 -1.30715,-0.1393 -0.29999,-1.14717 -0.15748,-2.69807 0.31669,-3.44645 0.70615,-1.11453 0.87635,-1.08933 0.94081,0.1393 0.0457,0.86996 0.45857,0.55495 0.98309,-0.75 0.49742,-1.2375 1.36889,-2.25 1.93662,-2.25 1.31972,0 1.34152,1.69081 0.0322,2.5 -1.63373,1.0097 -1.14115,2.07143 0.96102,2.07143 1.43247,0 1.8568,-0.54869 1.57431,-2.03572 -0.21269,-1.11964 -0.42015,-2.37321 -0.46102,-2.78571 C 416.03344,333.3375 415.325,333 414.5,333 c -0.83333,0 -1.5,-0.88889 -1.5,-2 0,-1.1 0.45,-2 1,-2 0.55,0 1,0.40186 1,0.89301 0,0.49116 0.69837,1.161 1.55194,1.48855 0.88992,0.34149 1.29132,0.17385 0.94098,-0.39301 -0.33602,-0.5437 -0.25476,-1.55105 0.1806,-2.23855 0.7269,-1.14792 1.12003,-3.54159 1.56025,-9.5 0.0914,-1.2375 0.55279,-2.25 1.02525,-2.25 0.47246,0 0.52313,-0.54346 0.11262,-1.2077 -1.13591,-1.83793 -1.3844,-6.06971 -0.42548,-7.24588 0.46922,-0.57553 0.82983,-3.31059 0.80135,-6.0779 -0.0285,-2.76732 0.48252,-6.02982 1.13554,-7.25 0.65303,-1.22019 0.78869,-2.21852 0.30148,-2.21852 -0.49436,0 -0.55762,-2.09916 -0.14315,-4.75 1.58163,-10.11559 2.57815,-20.68032 3.46646,-36.75 0.2998,-5.42351 0.33418,-5.53511 1.61716,-5.25 0.61875,0.1375 1.35213,-0.37514 1.62973,-1.1392 0.32279,-0.88843 0.0734,-1.12261 -0.69188,-0.64964 -0.72452,0.44777 -1.108,0.2068 -0.97201,-0.61081 0.12353,-0.74269 -0.15167,-2.22162 -0.61155,-3.28651 -0.58075,-1.34478 -0.37571,-2.22659 0.67128,-2.88702 1.19637,-0.75465 1.34706,-1.96528 0.73029,-5.86694 -0.42742,-2.70384 -0.37899,-5.90469 0.10762,-7.11298 0.48661,-1.2083 0.96952,-1.8594 1.07313,-1.4469 0.10362,0.4125 0.30089,1.2 0.43839,1.75 0.1375,0.55 0.30625,1.70156 0.375,2.55902 0.0688,0.85746 0.575,1.2809 1.125,0.94098 0.55,-0.33992 1,0.0835 1,0.94098 0,0.85746 -0.45,1.55902 -1,1.55902 -1.23618,0 -1.29258,4.98947 -0.0781,6.90791 0.53621,0.847 0.47774,2.31559 -0.14677,3.68623 -0.57094,1.25308 -0.70353,3.09452 -0.29464,4.09209 0.40888,0.99757 0.90221,4.51377 1.09629,7.81377 0.19408,3.3 0.54388,8.025 0.77735,10.5 0.67724,7.17953 1.64429,20.76177 2.16424,30.39663 0.26406,4.89315 0.98554,9.50565 1.6033,10.25 0.83011,1.00022 0.83031,1.35337 7.5e-4,1.35337 -1.1657,0 -1.56764,3.22147 -0.53124,4.25786 0.59272,0.59272 1.53878,14.04916 1.46864,20.88946 -0.0228,2.22088 0.50662,3.85607 1.35362,4.1811 C 440.25384,336.03464 441,335.17062 441,332.33333 441,331.05 441.45,330 442,330 c 0.55,0 1,1.82656 1,4.05902 0,2.45136 -0.39607,3.81423 -1,3.44098 -0.58106,-0.35912 -0.97055,0.55877 -0.92971,2.19098 0.0584,2.33614 0.19775,2.4835 0.82749,0.8754 0.62559,-1.5975 0.91642,-1.68441 1.67306,-0.5 1.06279,1.66363 1.08972,1.9709 1.41933,16.19863 0.13716,5.92076 0.64549,11.00981 1.12961,11.30902 0.48412,0.2992 0.88022,0.994 0.88022,1.544 0,0.55 -0.45,0.72189 -1,0.38197 -0.90553,-0.55965 -1.4609,11.27809 -1.12597,24 0.0579,2.2 0.0487,7.6 -0.0206,12 -0.14619,9.292 -0.12672,10.23498 0.27348,13.25 0.32905,2.479 1.87304,3.12312 1.87304,0.78138 0,-0.89459 0.58629,-1.24363 1.5,-0.89301 0.825,0.31659 1.5,0.0886 1.5,-0.50663 0,-0.74119 0.78784,-0.7827 2.5,-0.13174 1.62272,0.61696 2.5,0.60327 2.5,-0.039 0,-0.54423 1.29728,-0.76097 2.88285,-0.48163 1.84777,0.32553 3.32464,-0.0244 4.1133,-0.97473 0.67676,-0.81543 1.71925,-1.18052 2.31666,-0.8113 1.93684,1.19703 6.13391,0.98237 8.34459,-0.4268 1.4568,-0.92861 2.36901,-1.03281 2.80902,-0.32087 0.35839,0.57989 1.10161,1.05434 1.65161,1.05434 0.55,0 0.75103,-0.40285 0.44673,-0.89522 -0.3043,-0.49236 0.11914,-1.15324 0.94098,-1.46861 0.82184,-0.31537 1.49426,-0.23516 1.49426,0.17824 0,0.91639 4.1719,0.81542 5.71509,-0.13832 0.61275,-0.37871 1.34327,-0.12325 1.62337,0.56768 0.40699,1.00391 0.68702,1.00523 1.39425,0.007 0.48673,-0.68734 2.79049,-1.32437 5.11948,-1.41563 2.32898,-0.0913 4.43074,-0.48344 4.67059,-0.87151 0.23984,-0.38808 1.84346,-0.54173 3.56359,-0.34145 1.72013,0.20028 3.615,0.0629 4.21081,-0.30537 0.59582,-0.36823 2.58457,-0.76981 4.41946,-0.89239 1.83489,-0.12258 3.95552,-0.7369 4.71252,-1.36514 1.04362,-0.86613 1.50555,-0.83 1.91077,0.14946 0.40426,0.97711 0.87485,0.87396 1.93205,-0.42346 1.09144,-1.33945 1.662,-1.45082 2.60446,-0.50836 0.94246,0.94246 1.41679,0.88006 2.1652,-0.2848 0.84886,-1.32121 1.08132,-1.32026 2.03449,0.008 0.62891,0.87663 1.25665,1.07131 1.51051,0.46846 0.23891,-0.56735 2.47679,-0.912 4.97306,-0.76591 2.55718,0.14967 4.29179,-0.13383 3.97317,-0.64936 -0.31102,-0.50325 -0.13925,-1.17843 0.38172,-1.5004 0.52097,-0.32198 1.23062,-0.12686 1.577,0.4336 0.40999,0.66338 1.25316,0.68541 2.41586,0.0631 1.1912,-0.63751 2.1593,-0.58271 2.9066,0.16451 0.8272,0.82722 1.2872,0.68563 1.7579,-0.54106 0.3507,-0.91381 1.0602,-1.40032 1.5766,-1.08113 0.5165,0.31919 1.5152,0.1022 2.2193,-0.4822 0.7042,-0.5844 2.2595,-0.87398 3.4562,-0.64351 1.1968,0.23048 2.1759,-0.0602 2.1759,-0.64598 0,-0.75326 0.3758,-0.7532 1.2836,2.1e-4 0.7495,0.62201 1.856,0.71146 2.6593,0.21497 0.7567,-0.46765 1.9336,-0.63624 2.6153,-0.37463 0.6818,0.26161 1.5004,0.0536 1.8192,-0.46218 0.3288,-0.53204 2.2972,-0.62374 4.5493,-0.21193 2.9665,0.54247 4.1035,0.3772 4.4992,-0.65394 0.3291,-0.85771 1.4839,-1.20678 3.0518,-0.92247 1.8717,0.33941 2.5302,0.0231 2.5528,-1.22639 0.028,-1.56264 0.102,-1.56086 1.0264,0.0247 0.5478,0.93965 1.6566,1.455 2.4638,1.14521 0.8073,-0.30979 1.2189,-0.9661 0.9146,-1.45846 -0.3043,-0.49237 -0.077,-0.89522 0.5057,-0.89522 0.5825,0 1.059,0.40724 1.059,0.90499 0,0.49774 1.9125,0.67993 4.25,0.40487 2.3375,-0.27506 5.15,-0.60823 6.25,-0.74036 1.1,-0.13214 2.0058,-0.95757 2.0128,-1.8343 0.01,-0.87672 0.3445,-1.9258 0.75,-2.33129 0.4055,-0.40548 0.7372,0.2112 0.7372,1.37041 0,1.1592 0.5004,2.41686 1.1118,2.79478 1.2198,0.75384 3.0539,-1.49206 2.2632,-2.77135 -0.2711,-0.43876 -0.043,-0.79775 0.507,-0.79775 0.55,0 1.266,0.43035 1.5911,0.95633 0.966,1.56314 3.0927,0.15853 3.2672,-2.15795 0.089,-1.18219 -0.6036,-2.71184 -1.5392,-3.39921 -1.5387,-1.13049 -1.4324,-1.35232 1.114,-2.32447 3.7697,-1.43913 4.6849,-1.35605 4.6849,0.4253 0,0.825 -0.45,1.5 -1,1.5 -0.55,0 -1,2.37054 -1,5.26787 0,3.99127 0.6146,6.17229 2.5361,9 1.3948,2.05267 2.2914,3.73213 1.9923,3.73213 -0.2991,0 0.5588,1.2375 1.9065,2.75 1.3476,1.5125 2.3636,3.04026 2.2577,3.39501 -0.1059,0.35476 0.5629,1.47976 1.4862,2.5 0.9233,1.02025 1.7483,2.30499 1.8333,2.85499 0.2536,1.64013 0.9867,1.94463 1.0033,0.41667 0.013,-1.18742 0.1654,-1.17936 0.9428,0.0498 0.574,0.90757 0.5634,1.90508 -0.028,2.61732 -0.6232,0.7509 -0.5165,1.51432 0.3072,2.19667 0.9815,0.8132 1.3043,0.0222 1.4514,-3.55653 0.2325,-5.66086 1.1834,-9.68478 2.0772,-8.79093 0.3679,0.36794 0.8137,3.89287 0.9905,7.83319 0.1768,3.94031 0.8148,7.46907 1.4177,7.84168 0.6279,0.38803 0.8227,1.76693 0.4562,3.2275 -0.8034,3.20087 1.1249,7.69566 2.9937,6.97851 0.7566,-0.29045 1.3756,-1.35327 1.3756,-2.36197 0,-1.0087 0.3842,-2.07144 0.8538,-2.36166 1.1984,-0.74064 3.1462,3.91238 3.1462,7.5157 0,1.92615 0.3945,2.76818 1.0942,2.33573 0.6018,-0.37193 0.8885,-1.75209 0.6371,-3.06703 -0.2514,-1.31494 0.1403,-6.32469 0.8704,-11.13278 0.73,-4.8081 1.3433,-10.65449 1.3628,-12.99199 0.019,-2.3375 0.4784,-4.25 1.0196,-4.25 0.5665,0 0.9509,3.23976 0.9057,7.63269 -0.054,5.25397 0.3265,7.88297 1.221,8.4358 0.8215,0.5077 1.2323,2.57397 1.1168,5.61731 -0.136,3.58127 0.05,4.30199 0.7245,2.8142 0.499,-1.1 0.939,-4.5875 0.9776,-7.75 0.039,-3.1625 0.464,-5.75 0.9453,-5.75 0.4812,0 1.1594,-1.42187 1.5069,-3.15972 1.0018,-5.00875 1.6243,-2.82766 1.7191,6.0226 0.06,5.61229 0.5308,8.62602 1.4984,9.59364 0.8881,0.88811 1.2324,2.63952 0.9294,4.72715 -1.2452,8.57874 -1.4339,15.22578 -0.4652,16.39298 0.5759,0.69394 1.0859,3.99808 1.1334,7.34253 0.047,3.34445 0.4725,6.08082 0.9446,6.08082 0.4721,0 0.8584,0.75 0.8584,1.66667 0,2.22915 0.9538,1.16933 1.5,-1.66667 0.5052,-2.6235 1.4422,-3.87278 1.625,-2.16667 0.069,0.64167 0.2375,1.61667 0.375,2.16667 0.1375,0.55 0.3163,2.0125 0.3972,3.25 l 0.1473,2.25 1.8605,-2.42028 c 1.1077,-1.44102 1.8068,-3.86866 1.7277,-6 -0.073,-1.96885 0.3173,-3.57972 0.8673,-3.57972 0.55,0 0.8859,0.675 0.7465,1.5 -0.5804,3.43457 0.9187,10 2.2834,10 0.8606,0 1.1761,0.60246 0.8122,1.5508 -0.4799,1.2507 -0.079,1.42132 2.0709,0.88169 1.4662,-0.36801 2.5948,-0.27836 2.508,0.1992 -0.373,2.05175 0.1791,2.53015 1.579,1.36831 0.8419,-0.69874 1.5,-2.87861 1.5,-4.96881 0,-2.04815 0.6907,-5.10852 1.535,-6.80081 0.8442,-1.69229 1.5707,-5.24893 1.6144,-7.90364 0.044,-2.65471 0.4937,-5.34187 1.0001,-5.97148 0.5064,-0.62961 0.8166,-1.52961 0.6894,-2 -0.1272,-0.47039 0.5615,-3.50089 1.5304,-6.73444 0.9689,-3.23355 1.6244,-7.47261 1.4566,-9.42014 -0.1678,-1.94753 0.1554,-3.69445 0.7182,-3.88205 0.5961,-0.19871 1.5687,3.7335 2.33,9.42014 0.7187,5.36868 1.7533,10.30214 2.299,10.96324 0.5457,0.66111 0.7118,2.08534 0.3691,3.16496 -0.7443,2.34517 0.3069,7.13303 1.5662,7.13303 0.4904,0 0.8916,-2.25 0.8916,-5 0,-2.75 0.45,-5 1,-5 0.55,0 1.0259,1.9125 1.0576,4.25 0.068,5.00039 1.6101,13.1569 1.9381,10.25 0.1241,-1.1 0.1437,-3.0125 0.043,-4.25 -0.118,-1.45619 0.3722,-2.25 1.3893,-2.25 1.076,0 1.6182,-1.02481 1.7196,-3.25 0.2366,-5.19348 0.4013,-6.08709 1.6806,-9.11658 0.6658,-1.57662 1.0892,-4.00442 0.9409,-5.39511 -0.1482,-1.39069 0.2507,-2.71165 0.8866,-2.93547 0.7454,-0.26235 1.1497,0.94397 1.1379,3.39511 -0.027,5.59252 1.47,19.00772 1.9577,17.54582 0.9181,-2.752 2.2149,0.1125 1.6501,3.64482 -0.4378,2.73748 -0.1649,4.20551 0.9978,5.36821 1.0414,1.04142 1.6004,3.35093 1.6004,6.61275 0,4.82544 1.1804,7.2655 2.4899,5.14676 1.3776,-2.22897 2.0656,-0.77111 1.8802,3.98369 -0.1073,2.75 0.2156,5 0.7174,5 0.5019,0 0.9125,0.675 0.9125,1.5 0,0.825 0.4065,1.5 0.9034,1.5 1.0782,0 1.8163,-8.78038 1.0692,-12.71944 -0.6065,-3.19814 1.2451,-11.72948 2.3138,-10.66081 0.3925,0.39247 0.7136,-2.28642 0.7136,-5.95308 0,-3.77778 0.4333,-6.66667 1,-6.66667 0.5667,0 1,2.88889 1,6.66667 0,3.66666 0.3296,6.33706 0.7325,5.93421 0.8144,-0.8144 3.1095,10.05357 3.2058,15.1805 0.038,2.04715 0.6653,3.51302 1.6665,3.89722 1.4098,0.54097 1.5254,2.2691 0.951,14.21861 -0.655,13.62558 0.941,28.58665 3.3606,31.50208 0.6019,0.72519 0.6177,1.72359 0.042,2.63425 -0.5101,0.80655 -0.9275,2.36646 -0.9275,3.46646 0,1.65614 0.1667,1.7421 0.9694,0.5 0.6565,-1.01587 0.9743,2.27329 0.9847,10.19098 0.01,6.43004 0.3679,11.90892 0.7989,12.17529 0.431,0.26637 0.7685,-0.67565 0.75,-2.09337 -0.018,-1.41771 0.4546,-2.74682 1.0513,-2.95357 0.7244,-0.25102 0.9358,1.33772 0.6361,4.78178 -0.3158,3.62933 -0.1187,4.9537 0.6651,4.46928 0.6127,-0.37863 1.1208,-1.67437 1.1292,-2.87941 0.012,-1.78123 0.1966,-1.91046 0.9847,-0.69098 0.7025,1.08696 0.9736,0.21497 0.9847,-3.16667 0.01,-2.81034 -0.4819,-4.8673 -1.2347,-5.17105 -1,-0.40351 -1,-0.52017 0,-0.58333 0.6875,-0.0434 1.25,-0.75395 1.25,-1.57895 0,-1.7013 1.5666,-2.01035 2.5038,-0.49394 0.3419,0.55334 0.6436,2.91584 0.6704,5.25 0.027,2.33417 0.4748,5.05103 0.9957,6.03747 0.5209,0.98645 0.9418,6.16145 0.9354,11.5 -0.01,5.33856 0.225,10.50162 0.5143,11.47346 0.2893,0.97184 2.0682,2.41138 3.9532,3.19897 4.478,1.87104 4.351,3.33686 -0.3228,3.72367 l -3.75,0.31037 -0.2281,8.25 c -0.1856,6.71514 0.047,8.25 1.25,8.25 0.813,0 1.4781,0.88588 1.4781,1.96862 0,1.33903 0.4797,1.78453 1.5,1.39301 0.9289,-0.35644 1.5,0.005 1.5,0.94805 0,0.83801 0.5145,1.69516 1.1434,1.90479 0.8574,0.28579 0.8567,0.91681 0,2.52264 -0.8458,1.5804 -0.8518,2.3234 -0.023,2.8357 0.7915,0.4892 0.9268,4.27219 0.4579,12.81069 -0.7783,14.17441 -2.3498,22.62866 -4.5236,24.3347 -1.1911,0.93486 -1.2365,1.22559 -0.1951,1.25 0.7804,0.0183 1.1163,0.6589 0.7906,1.50778 -0.3115,0.81179 0.085,3.62429 0.8822,6.25 0.7967,2.62571 1.4534,5.80887 1.4594,7.07368 0.017,3.7021 2.6825,7.82171 5.9304,9.16703 1.6576,0.68662 3.2731,2.065 3.5898,3.06307 0.8021,2.52705 8.1252,8.96331 10.2435,9.00289 3.3515,0.0626 11.7993,3.51956 14.0148,5.73504 2.191,2.19069 2.2326,2.69841 2.2326,27.23231 l 0,25 -394.5,0 -394.5,0 0,-39.90026 z M 78,520.33333 c 0,-4.3332 -0.60812,-4.14106 -1.31878,0.41667 -0.27871,1.7875 -0.096,3.25 0.40602,3.25 C 77.58926,524 78,522.35 78,520.33333 z M 141.86389,6.915877 c -2.07531,-1.282607 -2.81247,1.119614 -0.99887,3.255035 1.60367,1.88823 1.64144,1.883254 1.97247,-0.259816 0.18562,-1.201704 -0.2525,-2.549552 -0.9736,-2.995219 z"
     id="path2987"
     inkscape:connector-curvature="0" />
</svg>
