<?xml version="1.0" encoding="UTF-8" standalone="no"?>
<!-- Created with Inkscape (http://www.inkscape.org/) -->

<svg
   xmlns:dc="http://purl.org/dc/elements/1.1/"
   xmlns:cc="http://creativecommons.org/ns#"
   xmlns:rdf="http://www.w3.org/1999/02/22-rdf-syntax-ns#"
   xmlns:svg="http://www.w3.org/2000/svg"
   xmlns="http://www.w3.org/2000/svg"
   xmlns:sodipodi="http://sodipodi.sourceforge.net/DTD/sodipodi-0.dtd"
   xmlns:inkscape="http://www.inkscape.org/namespaces/inkscape"
   id="svg2"
   version="1.1"
   inkscape:version="0.48.2 r9819"
   width="790.00012"
   height="725.69122"
   sodipodi:docname="turretstowerstem00sing_0099b.png">
  <metadata
     id="metadata8">
    <rdf:RDF>
      <cc:Work
         rdf:about="">
        <dc:format>image/svg+xml</dc:format>
        <dc:type
           rdf:resource="http://purl.org/dc/dcmitype/StillImage" />
        <dc:title></dc:title>
      </cc:Work>
    </rdf:RDF>
  </metadata>
  <defs
     id="defs6" />
  <sodipodi:namedview
     pagecolor="#ffffff"
     bordercolor="#666666"
     borderopacity="1"
     objecttolerance="10"
     gridtolerance="10"
     guidetolerance="10"
     inkscape:pageopacity="0"
     inkscape:pageshadow="2"
     inkscape:window-width="1600"
     inkscape:window-height="876"
     id="namedview4"
     showgrid="false"
     fit-margin-top="0"
     fit-margin-left="0"
     fit-margin-right="0"
     fit-margin-bottom="0"
     inkscape:zoom="1"
     inkscape:cx="412"
     inkscape:cy="341"
     inkscape:window-x="0"
     inkscape:window-y="24"
     inkscape:window-maximized="1"
     inkscape:current-layer="svg2" />
  <path
     style="fill:#000000"
     d="m 0,692.19119 0,-33.5 5,0 c 3.03029,0 5,0.44218 5,1.12244 0,0.80206 0.40652,0.78507 1.4242,-0.0595 0.86364,-0.71676 2.76027,-0.93133 4.81874,-0.54516 l 3.39454,0.63682 -0.34255,-4.55504 c -0.30157,-4.01016 -0.13037,-4.4776 1.43126,-3.90772 1.64829,0.60152 1.65943,0.51149 0.15741,-1.27224 -2.12551,-2.52419 -2.33805,-14.4196 -0.25765,-14.4196 0.75573,0 1.37405,0.63 1.37405,1.4 0,0.92709 1.15523,1.4 3.41992,1.4 3.3515,0 3.43521,-0.10302 4.18477,-5.15 0.42068,-2.8325 0.66199,-5.7125 0.53625,-6.4 -0.12574,-0.6875 0.20134,-1.25 0.72684,-1.25 0.5255,0 0.84169,-2.22658 0.70266,-4.94796 -0.13904,-2.72138 0.1,-5.51879 0.53118,-6.21647 0.43119,-0.69767 0.30462,-1.84609 -0.28127,-2.55203 -0.75634,-0.91133 -0.74885,-1.28354 0.02582,-1.28354 0.60163,0 0.80796,-0.73775 0.45997,-1.64461 -0.37719,-0.98293 0.0567,-2.14756 1.07851,-2.8947 2.12176,-1.55147 2.39744,-3.13444 3.03936,-17.45188 0.34742,-7.74905 0.94052,-11.81971 1.82124,-12.5 0.71832,-0.55485 1.26688,-2.58381 1.21904,-4.50881 -0.0479,-1.925 0.32846,-4.05677 0.83623,-4.73727 0.50778,-0.68049 0.66876,-1.9004 0.35774,-2.7109 -0.31101,-0.8105 0.0208,-3.73402 0.73749,-6.49671 0.71663,-2.76269 1.04662,-5.27942 0.7333,-5.59273 -0.63113,-0.63114 -0.30547,-6.96763 0.49991,-9.72691 0.86243,-2.95471 2.24845,-0.93624 2.19149,3.19146 -0.0295,2.1377 0.23116,4.34756 0.57926,4.91079 0.3481,0.56324 0.19277,1.2961 -0.34519,1.62857 -0.62169,0.38423 -0.63785,1.49942 -0.0444,3.06042 0.51356,1.35075 0.69548,3.0768 0.40428,3.83566 -0.2912,0.75886 0.15986,2.06906 1.00235,2.91155 1.34442,1.34442 1.35033,1.60146 0.0482,2.10112 -1.60073,0.61425 -1.58224,2.66203 0.035,3.87495 0.62895,0.47172 0.45818,1.09839 -0.46024,1.68895 -1.25076,0.80425 -1.19266,1.23463 0.40499,3 1.70825,1.8876 1.72098,2.06105 0.15122,2.06105 -0.94271,0 -1.43136,0.45734 -1.08589,1.01631 0.34546,0.55897 1.04702,0.75742 1.55901,0.44098 0.512,-0.31643 0.93091,0.65123 0.93091,2.15036 0,5.17859 1.69704,0.68005 2.20975,-5.85765 0.11861,-1.5125 0.79495,-2.75 1.50296,-2.75 1.62037,0 1.67127,-2.21602 0.0873,-3.8 -0.93334,-0.93333 -0.91836,-1.2 0.0674,-1.2 0.81231,0 1.03946,-0.71813 0.63261,-2 -0.38115,-1.20089 -0.1797,-2 0.50418,-2 0.62642,0 1.05694,-1.0125 0.95669,-2.25 -0.10024,-1.2375 -0.0955,-2.475 0.0107,-2.75 0.10609,-0.275 0.37857,-4.23772 0.6055,-8.80604 0.39774,-8.00723 1.54892,-12.19396 3.35283,-12.19396 0.47462,0 0.48635,1.65455 0.0262,3.6948 -0.45832,2.03214 -0.62859,4.02605 -0.37837,4.4309 0.25021,0.40486 -0.0504,1.04845 -0.66814,1.4302 -0.82537,0.51011 -0.81737,0.88304 0.0302,1.40686 0.6343,0.39202 1.22006,2.69827 1.30169,5.125 0.0816,2.42673 0.6232,4.74974 1.20349,5.16224 0.70235,0.49927 0.5751,1.05883 -0.38063,1.67378 -1.1898,0.76557 -1.21165,1.19376 -0.12756,2.5 1.0021,1.20746 1.03578,1.9044 0.14396,2.97897 -0.89391,1.0771 -0.8643,1.52683 0.12756,1.93718 0.94837,0.39237 0.77575,0.94985 -0.6494,2.09725 -1.06761,0.85955 -1.43725,1.56282 -0.82142,1.56282 3.28595,0 4.04056,2.8854 4.07582,15.58468 0.0213,7.65656 0.46052,13.0891 1.11095,13.73953 0.76772,0.76772 1.11108,0.0878 1.19903,-2.37421 0.38999,-10.91715 0.72928,-14.25068 1.50815,-14.81768 0.95048,-0.69192 1.61788,-2.79063 1.63211,-5.13232 0.005,-0.825 0.37203,-1.96509 0.81561,-2.53354 0.44357,-0.56844 0.40797,-1.67835 -0.0791,-2.46646 -0.49905,-0.80747 -0.50825,-1.8876 -0.0211,-2.47459 0.68531,-0.82575 2.06895,-12.36791 2.31068,-19.27541 0.0546,-1.56045 0.96422,-1.59619 2.4636,-0.0968 0.81946,0.81945 0.85273,1.71462 0.11497,3.09314 -0.57102,1.06697 -0.77331,2.99545 -0.44952,4.28552 0.32378,1.29006 0.13583,2.62546 -0.41768,2.96754 -0.67201,0.41533 -0.67442,1.24223 -0.007,2.48885 0.54952,1.02677 0.72539,2.5802 0.39083,3.45204 -0.33456,0.87185 -0.0767,2.22568 0.57298,3.00852 0.87515,1.0545 0.89503,1.9582 0.0767,3.48727 -0.62918,1.17513 -0.69938,2.06392 -0.16328,2.06392 0.51786,0 0.7062,0.9 0.41855,2 -0.31258,1.19529 -0.0307,2 0.70061,2 0.67682,0 0.9664,0.67031 0.64801,1.5 -0.31658,0.825 -0.20499,1.5 0.24798,1.5 0.45297,0 0.92291,2.8125 1.04431,6.25 0.12139,3.4375 0.32134,7.375 0.44432,8.75 0.12298,1.375 -0.11143,3.76108 -0.52091,5.3024 -0.50121,1.88657 -0.3428,2.95656 0.48472,3.27411 0.67607,0.25944 1.34346,2.37335 1.48308,4.6976 0.13962,2.32424 0.50713,6.36339 0.81669,8.97589 0.46724,3.94328 0.28774,4.75 -1.05692,4.75 -1.2844,0 -1.46254,0.56935 -0.86044,2.75 0.41761,1.5125 0.68371,4.92317 0.59132,7.57926 -0.13691,3.93614 0.11119,4.72213 1.34154,4.25 0.83023,-0.31859 1.89057,-0.57926 2.3563,-0.57926 2.28946,0 3.98964,-3.43963 3.98964,-8.07143 0,-2.71071 0.45,-4.92857 1,-4.92857 0.55,0 1,1.35 1,3 0,1.65 0.43588,3 0.96861,3 0.53274,0 0.67962,0.75312 0.3264,1.67361 -0.51343,1.33797 -0.25645,1.518 1.28138,0.89772 1.05799,-0.42674 3.10213,-1.20333 4.54255,-1.72575 2.39629,-0.8691 2.62327,-1.43212 2.66991,-6.62279 0.028,-3.12012 -0.24263,-6.13416 -0.60147,-6.69787 -1.01133,-1.5887 -1.0587,-6.89876 -0.0725,-8.12726 0.48671,-0.60629 1.11054,-3.75629 1.38631,-7 0.71004,-8.35202 1.49626,-20.07835 1.71962,-25.64766 0.10477,-2.6125 0.62295,-4.75 1.15151,-4.75 0.52856,0 0.68244,-0.27857 0.34197,-0.61905 -0.34048,-0.34047 0.0268,-1.26494 0.81627,-2.05436 0.98764,-0.98765 1.36266,-3.28996 1.20238,-7.38166 -0.12812,-3.27048 0.16344,-5.94602 0.6479,-5.94563 0.48447,3.8e-4 0.62526,-1.5743 0.31287,-3.4993 -0.31238,-1.925 -0.18608,-3.5 0.28068,-3.5 0.87174,0 0.81059,-2.54836 -0.0826,-3.44153 -0.64643,-0.64643 1.39682,-13.18042 2.29505,-14.07865 0.73935,-0.73936 2.42415,6.37233 1.90003,8.02018 -0.7916,2.48879 -0.66034,9.12029 0.20288,10.25 0.63028,0.82487 0.57338,1.25 -0.16732,1.25 -1.53812,0 -1.42561,4.71032 0.12756,5.34054 0.80981,0.32859 0.89785,0.79812 0.25,1.33333 -1.42526,1.17745 -1.73854,4.06067 -0.52285,4.81201 0.5666,0.35018 0.77296,1.66159 0.45856,2.91423 -0.34508,1.37495 0.30138,3.95244 1.63123,6.50382 1.41314,2.71115 1.8574,4.57173 1.23924,5.18989 -0.58504,0.58504 -0.64871,3.21139 -0.16207,6.6849 0.44086,3.14671 0.5387,7.18378 0.21743,8.97128 -0.32127,1.7875 -0.23572,4.9375 0.19009,7 l 0.77422,3.75 0.75824,-4 c 0.41703,-2.2 0.50461,-6.5875 0.19462,-9.75 -0.35839,-3.65626 -0.1871,-5.75 0.47043,-5.75 1.75441,0 2.65411,-5.74553 3.83652,-24.5 0.62024,-9.83773 2.08796,-20.48542 2.41228,-17.5 0.14937,1.375 0.34514,5.43355 0.43504,9.019 0.0899,3.58545 0.50582,7.07295 0.92425,7.75 0.41844,0.67705 0.32406,1.231 -0.20973,1.231 -0.53379,0 -0.81978,0.7875 -0.63553,1.75 0.18426,0.9625 0.40755,1.75 0.49622,1.75 0.71308,0 0.43875,12.72377 -0.28395,13.17043 -0.57658,0.35634 -0.5634,0.8203 0.0342,1.20457 0.53459,0.34375 1.28795,1.6375 1.67415,2.875 0.52272,1.67498 0.3016,2.25 -0.86522,2.25 -0.86207,0 -1.56739,0.675 -1.56739,1.5 0,1.80819 1.16679,1.93321 2.8,0.3 0.93333,-0.93333 1.2191,-0.43333 1.28595,2.25 l 0.086,3.45 0.85911,-2.86799 c 0.47252,-1.57739 1.10657,-5.09023 1.40901,-7.80631 0.30243,-2.71608 1.00215,-5.78341 1.55493,-6.81627 0.55276,-1.03287 1.00503,-3.70753 1.00503,-5.94369 0,-3.39907 0.32794,-4.06574 2,-4.06574 2.22472,0 2.43605,1.41679 1.08145,7.25 -0.63018,2.71373 -0.54333,3.75 0.3143,3.75 1.05499,0 1.65641,4.63469 1.78426,13.75 0.0174,1.2375 0.35522,2.25 0.7508,2.25 0.39558,0 0.77129,1.4625 0.83491,3.25 0.15985,4.4913 0.86038,12.33434 1.60772,18 0.34461,2.6125 0.84407,6.84251 1.10991,9.40002 0.57577,5.53912 0.94862,6.06087 2.92141,4.08808 0.825,-0.825 1.19696,-1.80304 0.82658,-2.17343 -0.37038,-0.37038 -0.0114,-1.09206 0.79762,-1.60373 1.25676,-0.7948 1.23311,-0.93254 -0.16238,-0.94563 -2.00454,-0.0188 -3.0185,-4.48554 -1.76602,-7.77979 0.49469,-1.30115 0.89944,-3.88213 0.89944,-5.73552 0,-1.85339 0.47819,-4.62754 1.06265,-6.16478 0.58446,-1.53724 1.24453,-6.12706 1.46684,-10.1996 0.2223,-4.07254 0.91189,-8.94299 1.53243,-10.82323 0.62053,-1.88023 0.84242,-4.55741 0.49308,-5.94929 -0.45741,-1.82246 -0.30041,-2.32379 0.56102,-1.7914 0.8762,0.54153 1.02736,-0.1048 0.56508,-2.41621 -0.40215,-2.01072 -0.23203,-3.15549 0.4689,-3.15549 0.68889,0 0.87576,-1.12121 0.5,-3 -0.33826,-1.6913 -0.17493,-3 0.3744,-3 0.53592,0 0.94921,-1.4625 0.91842,-3.25 -0.18771,-10.89676 2.43913,-21.75807 4.13495,-17.09695 0.36958,1.01582 0.41208,2.28904 0.0944,2.82937 -0.98573,1.6768 -0.94573,4.98678 0.0682,5.64041 0.60645,0.39096 0.53818,1.42242 -0.18338,2.77066 -0.63222,1.18132 -0.80506,2.70104 -0.3841,3.37718 0.42097,0.67613 0.6402,2.19885 0.4872,3.38382 -0.15301,1.18497 0.24642,2.47872 0.88761,2.875 0.85886,0.5308 0.80858,0.94286 -0.19095,1.565 -1.05333,0.65562 -1.10051,1.25824 -0.21095,2.6946 0.6302,1.01756 0.91524,3.05629 0.63343,4.53051 -0.34589,1.8094 -0.0846,2.6804 0.80418,2.6804 1.02401,0 1.04991,0.26667 0.11658,1.2 -1.45314,1.45314 -1.59259,4.8 -0.2,4.8 0.55,0 1,1.125 1,2.5 0,1.375 0.47656,2.5 1.05902,2.5 0.58246,0 0.80012,-0.41891 0.48369,-0.9309 -0.31644,-0.512 -0.0815,-1.23609 0.52201,-1.6091 0.60353,-0.373 0.8273,-1.7541 0.49726,-3.06909 -0.33005,-1.315 -0.21651,-2.39091 0.2523,-2.39091 1.24444,0 1.07275,-3.37326 -0.21553,-4.23469 -0.76621,-0.51233 -0.72965,-0.73932 0.1208,-0.75 0.73861,-0.009 1.16999,-1.33359 1.09388,-3.35819 -0.0691,-1.83858 0.20832,-3.88329 0.61654,-4.5438 0.40821,-0.66051 0.19837,-1.85622 -0.46632,-2.65712 -0.94703,-1.1411 -0.94158,-1.4562 0.0252,-1.4562 0.86303,0 1.04083,-1.02823 0.59176,-3.42202 -0.37234,-1.98472 -0.20907,-3.68957 0.38871,-4.05902 0.56687,-0.35035 1.03068,-1.58544 1.03068,-2.74464 0,-1.15921 0.29746,-1.81019 0.66102,-1.44663 0.97497,0.97496 1.08494,6.83118 0.17694,9.42231 -0.58621,1.67286 -0.41005,2.25 0.68679,2.25 1.96683,0 1.86304,0.98514 -0.27475,2.60795 -1.16236,0.88236 -1.31044,1.33912 -0.44098,1.36025 0.71996,0.0175 1.02893,0.48498 0.68661,1.03886 -0.34231,0.55389 0.0696,1.27259 0.91529,1.59713 1.37871,0.52906 1.37606,0.75169 -0.0256,2.15337 -1.41774,1.41775 -1.41535,1.64611 0.0257,2.45257 0.87396,0.48909 1.58901,1.34345 1.58901,1.89858 0,0.55513 -0.41891,0.75043 -0.9309,0.434 -0.512,-0.31644 -1.21356,-0.11799 -1.55902,0.44098 -0.34548,0.55897 -0.12502,1.01631 0.4899,1.01631 0.61492,0 0.85914,0.41891 0.54271,0.9309 -0.31644,0.512 -0.13765,1.20141 0.3973,1.53203 0.53496,0.33061 0.71695,1.26744 0.40444,2.08183 -0.31251,0.81439 -0.0128,2.14998 0.66612,2.96797 0.98006,1.1809 0.97788,1.48727 -0.0106,1.48727 -0.94819,0 -0.97051,0.33061 -0.0936,1.38719 0.63319,0.76296 1.30283,3.87563 1.48809,6.91706 0.28966,4.75553 0.11059,5.4443 -1.27882,4.91876 -1.35049,-0.51081 -1.32296,-0.31588 0.16769,1.18771 1.29956,1.31084 1.66194,2.85547 1.33583,5.69404 -0.24613,2.14238 -0.0361,3.89524 0.46666,3.89524 0.50279,0 0.91417,2.34 0.91417,5.2 0,3.89267 0.28663,4.91337 1.1401,4.0599 1.14954,-1.14954 2.95078,-20.28402 2.82501,-30.0099 -0.0433,-3.35093 0.35113,-5.25 1.09049,-5.25 0.67125,0 0.88888,-0.7023 0.51752,-1.67005 -0.35381,-0.92202 -0.0658,-2.02904 0.64301,-2.47153 0.96695,-0.60364 1.01088,-1.23929 0.17796,-2.57507 -0.85957,-1.37853 -0.74819,-2.0671 0.5,-3.09129 1.23538,-1.01367 1.30787,-1.44101 0.31417,-1.85213 -0.98919,-0.40925 -1.02019,-0.86162 -0.13232,-1.93143 0.63768,-0.76835 0.94181,-2.53533 0.67585,-3.92662 -0.26597,-1.39129 -0.0939,-2.77043 0.38232,-3.06476 1.30936,-0.80924 1.03695,-4.18143 -0.38411,-4.75484 -0.81829,-0.33019 -0.70542,-0.53165 0.32681,-0.58333 1.17091,-0.0586 1.46395,-0.8479 1.13838,-3.06615 -0.50634,-3.44989 0.43728,-8.0128 1.65707,-8.0128 0.45878,0 0.61337,2.29772 0.34353,5.10605 -0.35431,3.68732 -0.10513,5.35444 0.89679,6 1.16955,0.75357 1.15187,1.04858 -0.11258,1.87864 -1.33333,0.87527 -1.33333,0.98809 0,1.01531 1.33333,0.0272 1.33333,0.14004 0,1.01531 -1.33333,0.87528 -1.33333,1.0958 0,1.98469 1.33333,0.88889 1.33333,1.10941 0,1.98469 -1.0922,0.71698 -1.14412,0.98885 -0.19098,1 0.71996,0.008 1.05465,0.42688 0.74377,0.9299 -0.31089,0.50302 5e-5,1.12177 0.69098,1.375 0.9802,0.35925 0.99186,0.74126 0.053,1.73861 -0.87242,0.92681 -0.91277,1.82085 -0.14675,3.25217 0.7658,1.4309 0.73259,2.17413 -0.12069,2.70149 -0.86318,0.53347 -0.75735,1.14729 0.39675,2.30139 2.12389,2.1239 1.98421,2.70194 -0.67611,2.79797 -2.15054,0.0776 -2.13466,0.13288 0.35926,1.25 l 2.60927,1.16878 0.0263,13.46186 c 0.0193,9.88212 0.35967,13.57297 1.27994,13.87973 0.72963,0.24321 0.96178,-0.0543 0.55541,-0.71186 -0.38402,-0.62135 -0.2698,-1.12973 0.25381,-1.12973 1.53742,0 2.11066,2.65535 0.84622,3.91979 -0.76224,0.76224 -0.81652,1.40778 -0.1574,1.87185 0.55334,0.3896 0.99958,4.27086 0.99164,8.62504 -0.01,5.35993 0.38031,8.04826 1.20788,8.32411 0.81419,0.27139 1.18155,-0.70251 1.10018,-2.91668 -0.0672,-1.82826 0.22833,-4.42401 0.6567,-5.76832 0.42836,-1.34432 1.2899,-7.60903 1.91453,-13.92157 0.79835,-8.06828 1.54463,-11.61368 2.51249,-11.9363 1.01138,-0.33712 1.24335,0.23926 0.87397,2.17157 -0.27657,1.44678 -0.16774,2.63051 0.24184,2.63051 1.87471,0 2.76374,-11.39633 0.97526,-12.50167 -0.65853,-0.40699 -0.61393,-1.34616 0.12994,-2.73608 0.62295,-1.164 1.11112,-4.51169 1.08481,-7.43931 -0.0263,-2.92762 0.36523,-5.32294 0.87007,-5.32294 0.50484,0 0.91789,-2.475 0.91789,-5.5 0,-3.025 -0.45,-5.5 -1,-5.5 -0.55,0 -1,-0.66088 -1,-1.46862 0,-0.89459 0.58629,-1.24363 1.5,-0.89301 1.23242,0.47293 1.5,-0.51379 1.5,-5.53138 0,-3.40466 -0.4425,-6.10699 -1,-6.10699 -0.55,0 -1,-0.66088 -1,-1.46862 0,-0.89459 0.58629,-1.24363 1.5,-0.89301 1.23242,0.47293 1.5,-0.51379 1.5,-5.53138 0,-3.40466 -0.4425,-6.10699 -1,-6.10699 -0.55,0 -1,-0.45 -1,-1 0,-0.55 0.675,-1 1.5,-1 1.15152,0 1.5,-1.27778 1.5,-5.5 0,-3.28205 -0.43687,-5.5 -1.08333,-5.5 -0.59584,0 -0.87709,-0.5625 -0.625,-1.25 0.25208,-0.6875 0.96458,-1.1375 1.58333,-1 1.10503,0.24556 1.23758,-0.67235 1.67222,-11.5798 0.11682,-2.9314 0.69541,-5.81283 1.28578,-6.4032 0.7128,-0.7128 0.74891,-1.6797 0.10748,-2.87821 -0.74649,-1.39484 -0.5087,-2.0495 1.04681,-2.88199 2.42165,-1.29603 2.61126,-3.84865 0.40567,-5.46141 -1.42648,-1.04307 -1.31412,-1.36703 1,-2.8833 2.94245,-1.92796 3.31436,-3.83017 1.10704,-5.66209 -2.04485,-1.69708 -1.88488,-3 0.36833,-3 1.44061,0 1.99824,-0.96853 2.43578,-4.23067 0.33868,-2.52503 0.13853,-4.49576 -0.49644,-4.8882 -0.58515,-0.36164 -0.78383,-1.11068 -0.44153,-1.66454 0.34231,-0.55386 -0.05,-1.26505 -0.87188,-1.58042 -2.38488,-0.91516 -1.72829,-2.63617 1.00574,-2.63617 1.87525,0 2.54274,-0.56228 2.67104,-2.25 0.0941,-1.2375 0.23744,-3.15 0.31858,-4.25 0.0811,-1.1 0.50452,-2.79323 0.94083,-3.76273 0.43632,-0.96951 0.37174,-2.31951 -0.14349,-3 -0.51524,-0.6805 -0.74203,-2.58727 -0.50398,-4.23727 0.23804,-1.65 0.45826,-4.9125 0.48937,-7.25 0.0311,-2.3375 0.41844,-4.25 0.86072,-4.25 0.44229,0 0.54514,-0.675 0.22856,-1.5 -0.31659,-0.825 -0.17389,-1.5 0.3171,-1.5 1.85239,0 1.9234,-15.99262 0.0763,-17.18787 -0.98358,-0.63647 -0.94412,-1.01218 0.18245,-1.73702 0.79062,-0.50869 1.53651,-2.19619 1.65753,-3.75 0.12102,-1.55381 0.53334,-3.60882 0.91627,-4.56668 0.45795,-1.14555 0.14736,-1.95219 -0.90754,-2.35699 -2.1959,-0.84265 -2.02325,-2.40144 0.266,-2.40144 2.25649,0 2.39541,-3.90169 0.20004,-5.61836 -1.20233,-0.94017 -1.08282,-1.30429 0.75,-2.28519 2.17175,-1.16228 3.08281,-5.09645 1.18022,-5.09645 -0.55,0 -1,-0.675 -1,-1.5 0,-0.825 0.73425,-1.5 1.63167,-1.5 1.32637,0 1.53128,-0.74844 1.09516,-4 -0.29509,-2.2 -0.12934,-4 0.36833,-4 1.38352,0 1.07653,-4.76184 -0.34516,-5.35385 -0.9415,-0.39205 -0.86893,-0.84451 0.29405,-1.83333 0.98997,-0.84172 1.65977,-3.46592 1.86652,-7.31282 0.43604,-8.11299 0.60766,-9.5453 1.53332,-12.79635 0.74421,-2.61378 0.91301,-2.69064 2.58544,-1.17711 1.38263,1.25126 1.60128,2.27467 0.96212,4.50327 -0.45492,1.58622 -0.70378,3.69092 -0.55303,4.67711 0.16792,1.09848 -0.54181,2.045 -1.83216,2.4434 -2.0267,0.62575 -2.01904,0.65409 0.20276,0.75 1.42388,0.0615 2.04561,0.52588 1.62188,1.21148 -0.37792,0.6115 -0.0959,1.4772 0.62668,1.92379 1.01164,0.62523 1.04501,1.13587 0.14506,2.22024 -0.89784,1.08184 -0.86219,1.8275 0.1538,3.21696 1.00098,1.36891 1.05764,2.38044 0.23306,4.16015 -1.286,2.77557 -3.2547,3.08704 -3.90017,0.61706 -0.34415,-1.31691 -0.48604,-1.19317 -0.57333,0.5 -0.0903,1.75051 0.42589,2.25 2.32498,2.25 2.66407,0 4.19833,1.48685 2.57166,2.49219 -1.36593,0.84419 -0.0885,5.69475 1.903,7.22601 1.42728,1.09742 1.41086,1.22135 -0.16564,1.25 -2.23298,0.0406 -2.30118,3.33776 -0.11429,5.52466 1.22079,1.22078 1.34762,1.92381 0.5,2.77143 -1.67426,1.67426 -1.41631,5.73571 0.36429,5.73571 0.825,0 1.5,0.45 1.5,1 0,0.55 0.825,1 1.83333,1 2.18647,0 2.44005,-2.67182 0.51938,-5.47251 -1.75459,-2.55852 -1.73913,-4.09308 0.0265,-2.62776 1.10482,0.91692 1.48505,0.59313 1.91135,-1.62755 0.29268,-1.5247 0.1002,-3.29462 -0.42775,-3.93315 -0.62518,-0.75614 -0.56294,-1.4063 0.17847,-1.86452 0.71665,-0.44292 0.89624,-1.99419 0.48478,-4.18747 -0.43096,-2.29719 -0.30066,-3.26579 0.38251,-2.84356 0.66127,0.40868 0.98048,-0.91236 0.88234,-3.65157 -0.2009,-5.6067 1.04909,-9.79191 2.92449,-9.79191 0.92123,0 1.27682,0.5779 0.92297,1.5 -0.31658,0.825 -0.13972,1.5 0.39301,1.5 0.53274,0 0.96862,-0.9 0.96862,-2 0,-1.31306 -0.66667,-2 -1.94098,-2 -2.53401,0 -3.26827,-1.31808 -2.48121,-4.45401 0.82203,-3.27522 1.77021,-3.2192 3.45306,0.20401 l 1.3519,2.75 0.39611,-2.38691 c 0.21786,-1.3128 -0.20577,-2.7753 -0.94139,-3.25 -1.11032,-0.7165 -1.10219,-1.01471 0.0479,-1.75576 0.91592,-0.59018 1.1636,-1.77616 0.73095,-3.5 -0.35996,-1.43403 -0.30075,-2.60733 0.13154,-2.60733 0.43229,0 0.884,-1.6875 1.00379,-3.75 0.1198,-2.0625 0.40035,-5.325 0.62345,-7.25 0.22309,-1.925 0.45496,-4.2875 0.51525,-5.25 0.14681,-2.34354 1.34158,-2.20948 2.92649,0.32836 0.95667,1.53187 1.00715,2.42877 0.19199,3.41097 -0.60828,0.73294 -0.70935,1.57774 -0.2246,1.87733 0.48476,0.2996 0.77937,2.81466 0.6547,5.58903 -0.12468,2.77437 0.19139,5.04431 0.70237,5.04431 0.52857,0 0.47296,0.8522 -0.12899,1.97697 -0.7715,1.44156 -0.71333,2.56023 0.21481,4.13065 0.97268,1.64578 0.99132,2.25603 0.079,2.58764 -0.65661,0.23868 -0.94596,1.07988 -0.64301,1.86935 0.30974,0.80718 -0.0431,1.4487 -0.80618,1.4658 -0.97294,0.0218 -0.90086,0.29697 0.25468,0.97227 1.15002,0.67209 1.52922,2.09939 1.32382,4.98298 -0.15831,2.22262 0.0379,3.83979 0.43608,3.59371 0.39816,-0.24607 1.37744,-0.0189 2.17618,0.50491 1.23831,0.81202 1.19444,1.10425 -0.29775,1.98371 -2.39885,1.4138 -2.24035,4.99102 0.25,5.64226 2.19002,0.5727 2.78218,3.28975 0.71698,3.28975 -1.96013,0 -1.38172,5.43423 0.61982,5.82332 1.9894,0.38674 2.19409,2.03573 0.34096,2.74684 -1.30466,0.50065 -1.63127,5.80967 -0.43124,7.0097 0.33862,0.33862 0.37354,1.24668 0.0776,2.01791 -0.32406,0.84448 0.10111,1.40223 1.0689,1.40223 0.88385,0 1.60699,0.47656 1.60699,1.05902 0,0.58246 -0.4176,0.80092 -0.928,0.48548 -1.29707,-0.80164 -2.3458,3.01746 -1.53238,5.58035 0.42312,1.33313 0.16878,2.44522 -0.68261,2.98468 -0.88143,0.5585 -0.9453,0.86521 -0.18223,0.87516 0.79308,0.0103 1.06261,1.72108 0.82954,5.26531 -0.18988,2.8875 -0.39832,5.25 -0.46321,5.25 -0.0649,0 -0.31618,2.55899 -0.55843,5.68664 -0.24224,3.12765 -0.50323,6.05265 -0.57998,6.5 -0.64051,3.7334 0.23481,5.31336 2.94366,5.31336 2.87638,0 9.09086,-2.57473 9.22795,-3.82324 0.78232,-7.12475 1.94609,-10.31948 3.64031,-9.9932 0.90373,0.17404 1.5899,0.76644 1.52482,1.31644 -0.0651,0.55 0.75853,1.93338 1.83026,3.07419 1.07172,1.1408 1.64448,2.3783 1.27278,2.75 -1.72644,1.72644 2.00119,0.43354 3.92943,-1.36289 1.20356,-1.12128 3.20975,-2.29507 4.45819,-2.60841 1.24845,-0.31334 2.2699,-0.97092 2.2699,-1.4613 0,-1.33067 -2.24635,-1.01998 -4.39732,0.60818 -1.04353,0.78989 -2.28103,1.19902 -2.75,0.90918 -1.34636,-0.8321 -1.00923,-9.16923 0.39732,-9.82562 0.99811,-0.46578 0.99685,-0.7013 -0.006,-1.16874 -0.69093,-0.32198 -0.96828,-1.05132 -0.61634,-1.62077 0.35194,-0.56945 0.76242,-3.10441 0.91219,-5.63324 0.14976,-2.52884 0.76462,-4.76199 1.36634,-4.96257 1.36965,-0.45661 1.45346,-4.19801 0.0938,-4.19801 -1.62201,0 -1.14235,-2.82096 0.65023,-3.82414 1.22706,-0.68669 1.4899,-1.72519 1.025,-4.04969 -0.3583,-1.79152 -0.20897,-3.12617 0.34977,-3.12617 1.30911,0 1.24882,-3.71273 -0.0736,-4.53001 -0.68511,-0.42342 -0.71148,-1.05419 -0.0761,-1.81979 0.53485,-0.64447 1.00028,-4.5419 1.03428,-8.66098 0.089,-10.78567 1.17889,-15.08206 3.05559,-12.04549 0.47107,0.7622 0.68641,2.26892 0.47854,3.34828 -0.20786,1.07936 0.0731,2.80521 0.62434,3.83523 0.69573,1.29998 0.66761,1.87276 -0.0919,1.87276 -0.60181,0 -0.83984,0.41157 -0.52896,0.91459 0.31089,0.50302 -5e-5,1.1425 -0.69098,1.42105 -0.7873,0.31741 -0.6309,0.53594 0.41899,0.58541 1.3186,0.0621 1.6159,0.9118 1.39655,3.99133 -0.22,3.08859 0.0288,3.79439 1.18161,3.35202 1.03516,-0.39723 1.30512,-1.51645 0.92733,-3.84455 -0.38568,-2.37664 0.005,-3.90485 1.41499,-5.5302 1.32637,-1.52931 1.62189,-2.57206 0.92613,-3.26782 -1.6639,-1.6639 -1.28062,-5.65837 0.47817,-4.98346 1.12134,0.4303 1.5,-0.15823 1.5,-2.33138 0,-1.59885 -0.54,-3.44699 -1.2,-4.10699 -0.93333,-0.93333 -0.93333,-1.2 0,-1.2 1.42347,0 1.62078,-3.62191 0.24367,-4.47301 -1.3454,-0.8315 -0.12375,-3.52699 1.5985,-3.52699 1.08659,0 1.18818,-0.44848 0.42471,-1.87504 -0.55192,-1.03127 -0.74631,-3.39377 -0.43198,-5.25 0.31433,-1.85623 0.5286,-4.49996 0.47615,-5.87496 -0.0524,-1.375 0.15018,-4.38914 0.45029,-6.69809 0.406,-3.1237 0.91583,-4.05603 1.99215,-3.64301 0.79558,0.30529 1.44651,1.18193 1.44651,1.94809 0,0.76615 0.46583,1.39301 1.03518,1.39301 0.64357,0 0.7131,0.66204 0.18379,1.75 -0.46827,0.9625 -0.8216,3.2125 -0.78518,5 0.0364,1.7875 -0.38379,3.26368 -0.93379,3.28041 -0.55,0.0167 -0.15851,0.5193 0.86998,1.11683 1.50989,0.87722 1.60617,1.25354 0.5,1.95428 -1.053,0.66705 -0.92921,0.8714 0.53501,0.88317 1.78211,0.0143 1.79823,0.13327 0.25,1.84405 -2.04886,2.26396 -2.13538,3.56958 -0.18702,2.82192 2.68437,-1.03009 2.47418,0.96383 -0.47932,4.54694 -3.01601,3.65894 -2.97362,4.8024 0.17802,4.8024 1.97146,0 2.46803,1.4897 0.83333,2.5 -1.75357,1.08376 -1.07605,4.20525 1.25,5.75907 2.09473,1.39928 2.1384,1.63198 0.63282,3.37197 -1.96123,2.26658 -2.06431,5.36896 -0.17839,5.36896 1.01197,0 1.24553,1.04166 0.89171,3.97707 -0.26365,2.18738 -0.0843,4.22124 0.39861,4.51969 1.15543,0.71409 0.85037,4.50324 -0.36254,4.50324 -0.5182,0 -0.20817,0.81108 0.68897,1.80241 1.65484,1.82857 1.89049,8.47544 0.38568,10.87849 -0.40671,0.6495 -0.2748,1.46809 0.29314,1.8191 0.56794,0.35101 0.82377,0.97614 0.5685,1.38917 -1.80911,2.92719 -2.12648,10.14794 -0.49048,11.15905 0.64802,0.40049 0.869,1.22848 0.49108,1.83998 -0.38962,0.63041 -0.0257,1.1118 0.8405,1.1118 0.94444,0 1.30873,0.57045 0.95423,1.49426 -0.31537,0.82184 -0.97625,1.24528 -1.46861,0.94098 -0.49237,-0.3043 -0.89522,0.14828 -0.89522,1.00574 0,0.85746 0.37022,1.55902 0.82271,1.55902 0.45249,0 0.85539,2.0679 0.89534,4.59534 0.0843,5.33045 0.24788,5.54648 6.65947,8.79244 l 4.84011,2.45038 -0.55465,-2.77325 c -0.30505,-1.52528 -0.18712,-3.17637 0.26208,-3.66908 1.57462,-1.72713 2.18741,-6.39397 0.84399,-6.42763 -0.90621,-0.0227 -0.84018,-0.38114 0.23095,-1.25362 0.825,-0.672 1.55369,-1.67019 1.61932,-2.2182 0.0656,-0.54801 0.39187,-2.45888 0.725,-4.24638 0.47251,-2.53541 0.26304,-3.25 -0.95265,-3.25 -0.85709,0 -1.40834,-0.45 -1.225,-1 0.18333,-0.55 0.73178,-0.8875 1.21878,-0.75 1.50196,0.42407 2.7673,-4.36102 1.54322,-5.83595 -0.81885,-0.98666 -0.69427,-1.91061 0.48454,-3.5936 1.98511,-2.83414 2.03381,-4.82045 0.11817,-4.82045 -0.89208,0 -1.24351,-0.5866 -0.89521,-1.49426 0.31537,-0.82184 0.97625,-1.24528 1.46861,-0.94098 0.49237,0.3043 0.92965,0.18922 0.97173,-0.25574 0.0421,-0.44496 0.24153,-1.6937 0.44321,-2.77498 0.20169,-1.08128 -0.11284,-2.54378 -0.69895,-3.25 -0.77117,-0.92922 -0.71932,-1.28404 0.18765,-1.28404 0.87384,0 1.08133,-1.05965 0.68531,-3.5 -0.43226,-2.66375 -0.21846,-3.5 0.89484,-3.5 1.24901,0 1.22505,-0.45979 -0.16393,-3.14577 -1.51189,-2.92367 -1.50909,-3.10062 0.0397,-2.50629 1.25174,0.48034 1.53509,0.20554 1.13861,-1.10423 -1.24234,-4.10403 -0.89625,-11.98686 0.6214,-14.15362 1.66996,-2.3842 3.27528,-1.49298 1.72499,0.95766 -1.26281,1.9962 -1.17473,2.99974 0.23718,2.70225 0.80433,-0.16947 1.09861,1.16327 0.9136,4.13758 -0.17587,2.82744 0.20229,4.6888 1.06349,5.23469 1.10526,0.70059 1.09903,0.84975 -0.036,0.86242 -1.07171,0.012 -1.11434,0.32631 -0.19455,1.43459 0.93019,1.12082 0.79823,1.64639 -0.62756,2.49926 -1.72913,1.03433 -1.72436,1.14272 0.11272,2.56393 1.63172,1.26235 1.74462,1.86482 0.75607,4.03445 -0.95543,2.09696 -0.89189,2.6542 0.35736,3.13358 0.99923,0.38344 1.19869,0.97105 0.58258,1.71628 -1.42602,1.72489 -0.19653,6.60205 1.50018,5.95096 0.97489,-0.3741 1.21802,-0.0445 0.78999,1.07092 -0.34011,0.88624 -0.98039,1.61134 -1.42288,1.61134 -0.68936,0 -0.69532,0.67574 -0.0352,4 0.0546,0.275 0.81315,-0.94787 1.68567,-2.71749 1.27743,-2.59087 1.36804,-3.84384 0.46525,-6.43358 -0.73208,-2.10005 -0.77681,-3.42889 -0.1289,-3.82932 0.54572,-0.33728 0.77887,-2.27967 0.5181,-4.31642 -0.36236,-2.82989 -0.12188,-3.70319 1.01971,-3.70319 1.69369,0 2.09851,-4.50828 0.49387,-5.5 -1.43884,-0.88925 -1.2344,-3.54688 0.25,-3.25 0.8657,0.17314 1.19179,-1.05662 1.06067,-4 -0.10413,-2.3375 0.19375,-4.25 0.66195,-4.25 0.93592,0 0.67736,-3.50008 -0.46171,-6.25 -0.43897,-1.05975 -0.28075,-1.75 0.40115,-1.75 0.71413,0 0.88666,-0.95378 0.47164,-2.60733 -0.43319,-1.726 -0.18612,-2.9039 0.73095,-3.48469 1.04894,-0.6643 1.07326,-0.88107 0.10017,-0.89267 -0.92123,-0.011 -1.01566,-0.51893 -0.33344,-1.79367 0.52346,-0.9781 0.83095,-3.7906 0.68332,-6.25 -0.28782,-4.79449 0.92734,-8.40361 2.50179,-7.43055 0.53137,0.32841 0.73099,0.97758 0.44359,1.4426 -0.2874,0.46502 -0.0294,1.00986 0.57328,1.21076 1.35901,0.45301 1.87203,16.78669 0.58281,18.55555 -0.61202,0.8397 -0.44836,1.25 0.49858,1.25 0.7753,0 1.47744,0.9 1.5603,2 0.0829,1.1 -0.27138,2 -0.7872,2 -0.51582,0 -0.93785,0.6375 -0.93785,1.41667 0,0.77916 -0.5625,1.64364 -1.25,1.92105 -0.6875,0.27741 -0.26406,0.53991 0.94098,0.58333 2.47603,0.0892 3.86131,1.61958 2.32533,2.56887 -1.62094,1.0018 -1.22519,5.51008 0.48369,5.51008 0.825,0 1.44671,0.3375 1.38158,0.75 -0.28506,1.80537 0.19138,3.25 1.07186,3.25 0.52438,0 0.92868,-1.9125 0.89842,-4.25 -0.1244,-9.61167 0.8851,-21.39186 2.01383,-23.5 1.49256,-2.78769 3.5556,-2.969 2.84456,-0.25 -0.28766,1.1 -0.11514,2 0.38337,2 0.49851,0 0.90638,0.675 0.90638,1.5 0,0.825 -0.40217,1.5 -0.8937,1.5 -0.5182,0 -0.50051,1.74998 0.0421,4.16496 0.66524,2.96078 0.60364,4.37025 -0.21306,4.875 -0.79474,0.49118 -0.82118,0.91256 -0.0858,1.36707 1.51185,0.93437 0.17294,3.81558 -1.4786,3.18183 -0.76936,-0.29524 -1.37094,0.10457 -1.37094,0.91114 0,0.90696 0.59066,1.21057 1.60092,0.8229 0.88051,-0.33788 1.99862,0.0137 2.48469,0.78138 0.86786,1.3706 0.93128,0.97565 1.35373,-8.4293 0.0698,-1.55377 -0.19235,-3.02233 -0.58255,-3.26349 -0.39019,-0.24115 -0.26756,-1.89489 0.27253,-3.67497 0.88506,-2.9171 1.33006,-6.69743 2.26444,-19.23652 0.20616,-2.76667 0.80808,-4.09969 1.95215,-4.32332 1.13997,-0.22283 1.68081,0.3988 1.74004,2 0.0748,2.02167 0.20056,1.93953 0.9686,-0.63264 0.60871,-2.03856 0.4974,-3.43516 -0.35867,-4.5 -0.68272,-0.84922 -1.09722,-2.89404 -0.92112,-4.54404 0.1761,-1.65 0.33426,-4.88478 0.35146,-7.1884 0.0253,-3.39408 0.33,-4.07376 1.60647,-3.58393 1.32792,0.50957 1.48748,-0.0495 1.01641,-3.56161 -0.30733,-2.29133 -0.15161,-4.16606 0.34606,-4.16606 0.49766,0 0.90484,-0.9 0.90484,-2 0,-1.1 -0.45,-2 -1,-2 -0.55,0 -1,-0.70156 -1,-1.55902 0,-0.90046 0.47536,-1.26522 1.12534,-0.86352 0.7809,0.48262 0.9954,-0.41755 0.7008,-2.94098 -0.2335,-2.00006 -0.0761,-3.63648 0.34966,-3.63648 0.42581,0 0.49021,-1.41997 0.1431,-3.15549 -0.45115,-2.25575 -0.30145,-2.95176 0.525,-2.44098 1.584,0.97896 1.54724,-5.61239 -0.0402,-7.19978 -0.92834,-0.92834 -0.788,-1.49478 0.62661,-2.52917 1.48946,-1.08912 1.6168,-1.71794 0.69625,-3.438 -1.39556,-2.60763 -1.46177,-4.56175 -0.12661,-3.73658 0.55,0.33992 1,-0.0835 1,-0.94098 5e-5,-0.89235 -0.85519,-1.55902 -1.99995,-1.55902 -2.84709,0 -2.47538,-1.86876 0.60464,-3.03978 2.11431,-0.80386 2.49012,-1.44654 1.99633,-3.41397 -0.33457,-1.33302 -0.14932,-2.70735 0.41167,-3.05406 0.56099,-0.34671 0.76109,-1.04929 0.44465,-1.56129 -0.31643,-0.51199 -0.1146,-0.9309 0.44851,-0.9309 1.69051,0 3.18502,3.78996 2.52753,6.40963 -0.52168,2.07852 -0.31471,2.37211 1.36294,1.9334 3.10387,-0.81168 3.82043,1.67362 1.09755,3.80669 -2.32756,1.82338 -2.34113,1.9157 -0.49032,3.33527 1.71655,1.31659 1.7411,1.52229 0.25,2.09448 -2.12261,0.81452 -2.10685,2.36854 0.0399,3.9383 1.59113,1.16347 1.59104,1.34062 -10e-4,2.9331 -2.00158,2.00158 -1.49237,6.89161 0.97453,9.3585 1.05624,1.05625 1.21535,1.73001 0.46741,1.97932 -1.49193,0.49731 -1.45931,2.93618 0.046,3.43795 0.76746,0.25582 0.88876,1.07146 0.34701,2.33333 -0.4581,1.06702 -0.87655,3.82948 -0.92991,6.1388 -0.0783,3.3897 0.28837,4.30815 1.90299,4.76643 1.93872,0.55028 1.94301,0.61131 0.13978,1.99207 -1.80242,1.38015 -1.79175,1.52056 0.34319,4.51882 1.53928,2.16171 1.90064,3.46055 1.19888,4.30916 -1.14982,1.39044 -0.43229,6.44193 1.04469,7.35476 0.59314,0.36658 0.73617,-0.18215 0.35802,-1.3736 -0.39406,-1.24157 -0.0194,-2.49053 1.00107,-3.33748 1.39681,-1.15924 1.83431,-1.07511 3.04923,0.58638 1.2526,1.71304 1.21072,2.02191 -0.35822,2.64197 -1.66191,0.65681 -1.65672,0.70669 0.0804,0.77243 1.22672,0.0464 1.66163,0.5794 1.28138,1.57029 -0.31658,0.825 -0.0846,1.5 0.51546,1.5 0.75333,0 0.73069,0.43422 -0.0731,1.40275 -0.89397,1.07717 -0.86436,1.52371 0.12755,1.92387 1.00593,0.40582 0.95985,0.75583 -0.20826,1.58194 -0.96822,0.68473 -1.06797,1.06624 -0.28138,1.07613 0.67023,0.008 0.95959,0.69031 0.64301,1.51531 -0.31659,0.825 -0.0775,1.5 0.53138,1.5 0.60885,0 1.10699,-0.45 1.10699,-1 0,-0.55 0.79987,-1 1.77749,-1 3.13707,0 6.06971,-2.78759 5.77331,-5.48776 -0.15075,-1.37334 0.33369,-3.00141 1.07654,-3.61792 0.74285,-0.61651 1.12737,-1.48218 0.8545,-1.92371 -0.27288,-0.44153 -0.0333,-2.02028 0.5325,-3.50833 1.31366,-3.45649 -0.2054,-5.46228 -4.13728,-5.46228 -2.40273,0 -2.87756,-0.41253 -2.87756,-2.5 0,-2.28963 0.37197,-2.5 4.42041,-2.5 l 4.4204,0 0.66647,-6.75 c 1.30509,-13.21784 1.40876,-12.67039 -2.50728,-13.24048 -1.925,-0.28023 -3.3875,-0.84702 -3.25,-1.25952 0.1375,-0.4125 0.25,-1.45948 0.25,-2.32662 0,-1.20735 0.86204,-1.50235 3.6806,-1.25951 4.34393,0.37425 4.8823,-0.79223 5.46121,-11.83269 l 0.35819,-6.83118 -3,-0.32695 c -3.94715,-0.43017 -4.92348,-1.51326 -3.59749,-3.99089 0.85411,-1.59591 1.82749,-1.94081 4.53109,-1.60548 3.43553,0.42612 3.44463,0.41638 4.03977,-4.3248 0.32806,-2.61353 0.97317,-6.9256 1.43358,-9.58237 0.58296,-3.36397 0.49646,-4.92568 -0.28492,-5.14403 -0.61712,-0.17245 -2.55766,-0.69873 -4.31232,-1.16951 -2.92644,-0.78518 -3.07366,-1.01311 -1.78008,-2.75597 0.83841,-1.12959 2.71822,-1.94055 4.63602,-2 l 3.22581,-0.1 1.29185,-8.94866 c 1.41968,-9.83402 1.16862,-10.50759 -3.92704,-10.53603 -2.28373,-0.0127 -2.68242,-0.39253 -2.37805,-2.26531 0.31804,-1.95688 0.89392,-2.21614 4.42053,-1.99009 l 4.05486,0.25991 0.63305,-5.25991 c 0.34818,-2.89295 0.71861,-7.28491 0.82319,-9.75991 0.17712,-4.19174 0.007,-4.52119 -2.48667,-4.80936 -3.18746,-0.36838 -5.01805,-2.2573 -3.91587,-4.04066 1.03795,-1.67944 4.25545,-2.16153 5.86686,-0.87905 0.70079,0.55774 1.44424,0.83745 1.65212,0.62157 0.20787,-0.21587 1.03724,-4.58886 1.84304,-9.71774 l 1.46508,-9.32524 -2.4323,-0.92476 c -1.33777,-0.50862 -3.07801,-0.92476 -3.86721,-0.92476 -0.87395,0 -1.4349,-1.00371 -1.4349,-2.56748 0,-2.4037 0.27111,-2.54723 4.25,-2.25 l 4.25,0.31748 0.6144,-7 c 0.33792,-3.85 0.94757,-7.99209 1.35477,-9.20465 0.62586,-1.86366 0.29882,-2.30192 -2.1144,-2.83352 C 421.38678,141.05863 421,140.80145 421,138.59252 c 0,-1.96469 0.40271,-2.11604 4.42423,-1.66276 l 4.42423,0.49868 0.62812,-5.11863 c 0.34547,-2.81524 0.87618,-7.00122 1.17935,-9.30218 l 0.55123,-4.18357 -4.10358,-1.10498 c -4.27998,-1.15248 -4.65304,-1.61174 -3.18835,-3.92497 0.60257,-0.95166 1.97137,-1.22073 4.29322,-0.84395 l 3.4086,0.55315 1.02351,-6.65606 c 0.81892,-5.32562 0.72538,-7.555537 -0.46798,-11.156057 -0.82032,-2.475 -1.77425,-4.725 -2.11986,-5 -0.3456,-0.275 -0.61135,-3.5079 -0.59054,-7.18421 0.0334,-5.902381 0.35948,-7.019976 2.78782,-9.554723 1.60979,-1.680333 2.75,-3.988026 2.75,-5.565786 0,-1.482404 0.45,-2.695281 1,-2.695281 0.55,0 1,-0.45 1,-1 0,-0.55 -1.13912,-1 -2.53138,-1 -1.42656,0 -2.80683,-0.717794 -3.16248,-1.644608 -0.90074,-2.347269 2.31398,-4.381368 5.81709,-3.680745 2.41754,0.483508 2.87677,0.249436 2.87677,-1.466314 0,-1.122916 0.5625,-2.304166 1.25,-2.625 0.89495,-0.417641 0.92773,-0.738096 0.11543,-1.12819 -0.7569,-0.363489 -0.87306,-1.704382 -0.34895,-4.028233 0.4321,-1.915857 0.54648,-5.266365 0.25419,-7.445575 -0.3095,-2.307528 -0.0506,-4.541607 0.62002,-5.349624 0.9087,-1.094917 0.72536,-1.498853 -0.86961,-1.915949 -2.92318,-0.764428 -2.94039,-8.289208 -0.0211,-9.215762 1.46936,-0.466356 2,-1.513034 2,-3.944943 0,-1.820592 0.675,-3.870368 1.5,-4.555057 0.825,-0.684689 1.5,-1.809689 1.5,-2.5 0,-0.690311 0.675,-1.815311 1.5,-2.5 0.94975,-0.78822 1.5,-2.9949029 1.5,-6.0154559 0,-3.415692 0.44658,-4.94193704 1.57244,-5.37396904 2.97768,-1.142641 5.01534,1.01258204 5.26401,5.56771204 0.12977,2.376942 0.89465,4.8213219 1.69974,5.4319559 0.8051,0.610633 1.46381,2.260633 1.46381,3.666666 0,1.406034 0.39052,2.706424 0.86782,2.889758 1.29393,0.497007 2.43916,4.833333 1.27649,4.833333 -0.54475,0 0.32492,1.315385 1.93261,2.923077 4.859,4.859002 2.98616,8.874142 -3.56596,7.644957 C 458.31545,32.847347 457,32.992214 457,33.64588 c 0,0.574922 0.92045,1.045313 2.04545,1.045313 1.125,0 3.18761,1.142149 4.58357,2.53811 2.15687,2.156868 2.45198,3.153868 1.96472,6.637516 -0.31537,2.254673 -0.29766,5.823754 0.0393,7.931291 0.53038,3.316841 0.8562,3.701588 2.42408,2.862484 2.9923,-1.60143 4.68291,-1.109397 5.18337,1.508561 0.34439,1.801548 -0.0362,2.639802 -1.39431,3.070844 C 470.4309,59.689205 466,66.581404 466,68.333709 c 0,0.146772 1.4625,0.54959 3.25,0.895152 1.7875,0.345561 4.92722,2.092258 6.97716,3.881548 3.34605,2.920599 3.63937,3.559373 2.86857,6.247004 -0.47223,1.646562 -1.19306,6.32417 -1.60185,10.39469 -0.46118,4.59229 -1.29505,7.80443 -2.19727,8.46416 -0.92066,0.6732 -1.33346,2.330897 -1.12532,4.519067 0.2839,2.9848 0.72731,3.50128 3.25304,3.7891 2.18524,0.24902 2.56434,0.56108 1.5,1.23469 -1.16146,0.73507 -1.10135,0.90427 0.32567,0.91676 2.60688,0.0228 2.11575,1.7278 -0.92488,3.21074 -1.71412,0.836 -2.80179,2.27627 -3.02823,4.00991 -0.34733,2.65924 -0.306,2.68065 2.42488,1.25616 3.70934,-1.93487 6.66647,-1.91563 5.9166,0.0385 -0.31658,0.825 -0.10222,1.5 0.47635,1.5 0.57857,0 0.86248,0.5625 0.6309,1.25 -0.39142,1.16206 -1.12666,1.35978 -6.1122,1.6437 -1.43491,0.0817 -1.75605,0.68444 -1.38867,2.6063 0.26285,1.375 0.0637,2.5 -0.44244,2.5 -0.50619,0 -0.64223,0.45 -0.30231,1 0.33992,0.55 0.11492,1 -0.5,1 -0.61492,0 -0.85823,0.42037 -0.54069,0.93416 0.31753,0.51378 2.14409,0.6799 4.05901,0.36915 3.36587,-0.5462 4.98014,0.92538 2.23168,2.03441 -1,0.40351 -1,0.52017 0,0.58333 2.0154,0.12729 1.43525,2.07487 -0.87235,2.92851 -1.56799,0.58004 -2.18076,1.74703 -2.34594,4.46777 -0.12297,2.02547 0.15708,3.68267 0.62235,3.68267 0.46527,0 0.84594,-0.44143 0.84594,-0.98095 0,-0.53952 1.148,-1.26908 2.55111,-1.62123 1.84501,-0.46307 2.94333,-0.12237 3.96819,1.23094 2.05821,2.71782 1.814,3.36938 -1.2693,3.38655 -2.40438,0.0134 -7.15,1.92949 -4.87756,1.96938 0.47985,0.008 0.3455,0.65025 -0.29855,1.42628 -0.84037,1.01258 -0.86123,1.60243 -0.0739,2.08903 0.79212,0.48956 0.78304,1.05649 -0.0326,2.03933 -0.93196,1.12294 -0.45896,1.25334 2.70144,0.74479 3.48999,-0.56158 3.70897,-0.46809 2.45876,1.0497 -0.89247,1.08347 -0.9799,1.66618 -0.25,1.66618 2.05089,0 1.14932,1.4775 -1.99297,3.2661 -2.52921,1.43962 -2.88183,2.0323 -1.90759,3.20619 0.65735,0.79206 0.86107,1.9807 0.45272,2.64143 -0.52902,0.85597 -0.12256,1.0123 1.41391,0.5438 1.186,-0.36163 2.94387,-0.88837 3.90637,-1.17052 2.26322,-0.66345 3.96008,0.4985 4.40005,3.013 0.27381,1.56486 -0.22361,2.02162 -2.28627,2.09935 -4.79007,0.18052 -5.9428,1.06261 -4.91644,3.76215 0.50874,1.33807 0.6537,2.70412 0.32215,3.03568 -0.33155,0.33155 0.54469,0.60282 1.94721,0.60282 3.54251,0 4.41545,3.53969 1.36573,5.53794 -2.01454,1.31998 -2.24932,2.24752 -1.66576,6.58087 0.0458,0.34035 1.82416,0.41773 3.95183,0.17196 3.51536,-0.40606 3.9135,-0.21151 4.36133,2.13119 0.44648,2.33557 0.19237,2.57804 -2.70184,2.57804 -4.04947,0 -4.21932,0.20399 -3.72135,4.46943 0.35251,3.01952 0.7944,3.542 3.05277,3.60952 1.45232,0.0434 2.07529,0.30685 1.38436,0.58541 -0.69093,0.27855 -0.95968,0.98629 -0.59723,1.57275 0.36246,0.58647 -0.01,1.56053 -0.82759,2.16459 -0.99117,0.73228 -1.34789,2.27092 -1.07039,4.61687 0.40609,3.43294 0.51155,3.50948 4.33383,3.14496 3.62724,-0.34591 3.91761,-0.18522 3.91761,2.16808 0,2.13658 -0.51798,2.59162 -3.25,2.85503 -2.87568,0.27727 -3.24963,0.65889 -3.24677,3.31336 0.003,2.37857 0.4855,3.0684 2.33142,3.33022 2.22196,0.31515 2.24463,0.39839 0.49677,1.82416 -1.00728,0.82166 -1.30001,1.22822 -0.65052,0.90347 0.6495,-0.32476 1.46552,-0.12996 1.81338,0.4329 0.34787,0.56286 -0.071,1.29334 -0.9309,1.6233 -1.57246,0.60341 -2.05954,3.9294 -0.98537,6.72863 0.41658,1.08561 1.49816,1.35694 3.87286,0.97158 1.90642,-0.30937 3.58401,-0.0668 3.98102,0.57553 0.37738,0.61061 0.11959,1.11021 -0.57287,1.11021 -0.97924,0 -0.99235,0.26667 -0.059,1.2 2.11331,2.11331 1.29474,2.9084 -2.3,2.23402 -1.925,-0.36113 -3.53443,-0.26902 -3.57651,0.20469 -0.0421,0.47371 -0.22979,1.666 -0.41713,2.64954 -0.18734,0.98354 0.60694,2.67104 1.76507,3.75 1.15813,1.07896 1.74074,1.96175 1.29469,1.96175 -0.44606,0 -0.25523,0.66968 0.42406,1.48817 1.00022,1.20519 0.92843,1.60583 -0.37756,2.10699 -0.88694,0.34035 -1.60573,1.35817 -1.59731,2.26183 0.012,1.28154 0.20133,1.34956 0.86084,0.30916 0.68341,-1.0781 0.9597,-1.03631 1.44101,0.21798 0.32752,0.8535 0.14139,1.83247 -0.41362,2.17549 -2.13357,1.31862 -0.12474,2.90929 3.30132,2.61411 3.21844,-0.27728 3.54514,-0.069 3.54514,2.26042 0,2.01587 -0.49642,2.56585 -2.31598,2.56585 -2.54912,0 -3.72229,1.32905 -4.19291,4.75 -0.21256,1.5451 0.20464,2.25 1.33167,2.25 1.01517,0 1.43109,0.54753 1.09039,1.43539 -0.30295,0.78947 -0.0136,1.65521 0.64301,1.92387 0.85226,0.34872 0.88052,0.72484 0.0988,1.31461 -0.60227,0.45437 -1.15107,2.51363 -1.21955,4.57613 l -0.12452,3.75 4.21955,7.1e-4 c 3.79519,6.3e-4 4.23405,0.25205 4.36376,2.5 0.12666,2.19497 -0.26189,2.49929 -3.19098,2.49929 -1.83436,0 -3.54537,0.34006 -3.80224,0.7557 -0.82823,1.34011 0.54421,6.2443 1.74748,6.2443 0.64092,0 1.25842,1.125 1.37222,2.5 0.1138,1.375 -0.26522,2.5 -0.84226,2.5 -0.60087,0 -0.91655,1.6023 -0.7388,3.75 l 0.31037,3.75 5.25,-0.11023 c 2.88754,-0.0606 5.25004,0.27688 5.25004,0.75 0,0.47313 0.675,0.86023 1.5,0.86023 2.0452,0 1.897,1.63366 -0.222,2.44681 -1.4751,0.56605 -1.511,0.79423 -0.25,1.59167 0.9962,0.63 1.0679,0.93584 0.222,0.94621 -0.6875,0.008 -1.25,0.67619 -1.25,1.48393 0,0.89459 0.5862,1.24363 1.5,0.89301 0.825,-0.31659 1.5,-0.0775 1.5,0.53138 0,0.60885 -0.5625,1.1213 -1.25,1.13879 -0.7634,0.0194 -0.5688,0.54895 0.5,1.36025 2.2965,1.74332 2.2136,2.60795 -0.25,2.60795 -1.1782,0 -2,0.66667 -2,1.62244 0,1.20719 0.3285,1.3498 1.2835,0.55721 0.7183,-0.5961 1.8663,-0.70508 2.6068,-0.24745 0.9269,0.57289 0.9917,1.02265 0.2164,1.50182 -0.6087,0.37621 -1.1067,1.16256 -1.1067,1.74744 0,0.65989 0.5823,0.58009 1.5347,-0.21029 1.2715,-1.05525 1.8575,-0.92722 3.4168,0.74645 1.7402,1.86788 1.7591,2.14314 0.251,3.65128 -1.5081,1.50813 -1.483,1.63225 0.3332,1.64641 1.4904,0.0116 1.6354,0.22366 0.6011,0.87895 -1.1509,0.72914 -1.1509,0.93503 0,1.32207 1.1296,0.37988 1.1379,0.73134 0.049,2.05131 -1.1137,1.34955 -1.0092,1.7563 0.6843,2.66262 1.0993,0.58836 3.0409,1.0696 4.3145,1.06943 2.3087,-3.1e-4 2.3158,-0.0422 2.3158,-13.75 0,-7.56233 -0.3267,-14.25166 -0.7259,-14.86517 -1.0105,-1.55289 -0.471,-17.38248 0.5925,-17.38361 0.4766,-5e-4 0.6465,-1.15202 0.3775,-2.55894 -0.3693,-1.93206 -0.1371,-2.42302 0.9488,-2.00629 1.399,0.53682 1.308,-0.54188 -0.4371,-5.18568 -0.2584,-0.6875 0.028,-1.25 0.6367,-1.25 0.7372,0 0.97,-2.1698 0.6976,-6.5 -0.225,-3.575 2e-4,-6.5 0.5004,-6.5 1.3928,0 1.081,-5.76902 -0.3405,-6.30191 -0.8876,-0.33273 -0.7256,-0.87288 0.559,-1.86306 1.4556,-1.12204 1.6163,-1.90113 0.823,-3.98778 -0.6854,-1.80279 -0.6424,-2.93684 0.141,-3.72028 0.8355,-0.83596 0.6875,-1.12697 -0.5735,-1.12697 -2.4101,0 -2.1136,-2.07907 0.3898,-2.73373 1.5616,-0.40838 1.9761,-1.14131 1.6399,-2.90003 -0.497,-2.59968 1.5347,-4.93893 3.3272,-3.83105 0.651,0.40234 0.9079,1.89072 0.5958,3.45153 -0.4641,2.32021 -0.223,2.72632 1.5605,2.62872 1.1601,-0.0635 2.2993,0.44706 2.5314,1.13456 0.2321,0.6875 -0.2904,1.25 -1.1613,1.25 -1.8941,0 -2.075,2.10007 -0.3333,3.87098 1.0029,1.01971 0.7833,1.65236 -1.1108,3.2 -2.3054,1.88381 -2.3113,1.92902 -0.25,1.92902 2.5138,0 2.5832,0.6251 0.5974,5.37788 -0.8324,1.99216 -1.1099,3.62212 -0.6166,3.62212 1.4625,0 2.1684,4.35625 0.8424,5.19891 -0.9221,0.58602 -0.899,0.77413 0.097,0.78578 0.72,0.008 1.0501,0.43422 0.7337,0.94621 -0.3164,0.512 -0.082,1.23609 0.522,1.6091 0.6283,0.38834 0.8242,1.76634 0.4583,3.22424 -0.3797,1.51309 -0.1679,2.83722 0.5222,3.26373 0.8589,0.53079 0.874,1.25449 0.058,2.77911 -1.4161,2.64599 -1.4071,4.26045 0.022,3.94292 1.2588,-0.27971 1.5234,1.15286 2.4159,13.08049 0.51,6.81577 0.3353,8.6488 -0.961,10.08115 -0.8713,0.96286 -1.2873,2.04769 -0.9242,2.41073 0.363,0.36303 0.5639,3.63111 0.4463,7.26238 -0.1348,4.1632 0.1528,6.37578 0.7785,5.9891 0.5457,-0.33728 0.9776,-1.39187 0.9598,-2.34354 -0.1002,-5.35903 1.2601,-14.71721 2.2748,-15.64822 0.8795,-0.80708 1.0227,-0.63734 0.5634,0.66791 -0.4053,1.1518 -0.1137,1.75 0.8529,1.75 0.8077,0 1.4686,0.45 1.4686,1 0,0.55 -0.5051,1 -1.1225,1 -0.8101,0 -0.7984,0.39036 0.042,1.40275 0.894,1.07717 0.8644,1.52371 -0.1275,1.92387 -1.0505,0.42379 -1.052,0.69035 -0.01,1.4272 0.7061,0.49834 1.0129,1.61208 0.6818,2.47498 -0.3311,0.86289 -0.073,1.89567 0.5729,2.29505 0.8989,0.55556 0.8976,0.89757 -0.01,1.45583 -0.8732,0.5397 -0.7876,1.12275 0.329,2.23929 1.1266,1.12666 1.2215,1.7977 0.3738,2.64532 -0.8476,0.84761 -0.8041,1.13571 0.1713,1.13571 0.7962,0 1.063,0.63577 0.6828,1.62675 -0.3434,0.89471 -0.1114,2.24471 0.5154,3 0.8583,1.03414 0.8444,1.37325 -0.056,1.37325 -0.8595,0 -1.1049,2.39187 -0.8724,8.50233 0.1779,4.67629 0.039,8.50129 -0.3099,8.5 -1.0754,-0.004 -1.7344,3.9614 -0.7585,4.56452 2.4416,1.50896 8.1982,15.1258 6.7682,16.00958 -0.5133,0.3172 -0.7849,20.66441 -0.6361,47.64364 0.2263,41.02373 0.4536,47.1184 1.7643,47.31045 1.7703,0.2594 3.4955,-1.44197 3.4955,-3.44719 0,-0.77916 0.5625,-1.60416 1.25,-1.83333 0.7333,-0.24444 1.25,0.44444 1.25,1.66667 0,1.55555 0.6333,2.08333 2.5,2.08333 1.5555,0 2.5,-0.56667 2.5,-1.5 0,-0.825 0.5024,-1.5 1.1166,-1.5 0.6384,0 0.8838,0.89031 0.5729,2.07899 -0.4026,1.53989 -0.1632,1.93299 0.9236,1.51597 0.9712,-0.3727 1.3691,-0.0119 1.177,1.06727 -0.1596,0.89665 0.167,1.79186 0.7258,1.98935 1.489,0.52622 1.8294,-51.29538 0.3607,-54.90248 -0.8357,-2.05266 -0.8257,-3.10552 0.039,-4.14798 1.6224,-1.95479 2.0063,-4.45218 2.7442,-17.85112 0.4416,-8.01742 0.3104,-11.75 -0.4129,-11.75 -1.2942,0 -0.363,-4.19642 1.1649,-5.25 0.7417,-0.5114 0.6106,-1.06814 -0.4122,-1.75 -1.2584,-0.83892 -1.2781,-1.14307 -0.1219,-1.8882 0.7723,-0.49777 1.0457,-1.42605 0.6219,-2.1118 -0.4243,-0.68641 -0.1512,-1.60683 0.6218,-2.09649 0.998,-0.6321 1.0333,-0.87711 0.1282,-0.8882 -0.6818,-0.008 -1.2443,-0.46531 -1.2443,-1.01531 0,-0.55 1.6377,-1 3.6393,-1 l 3.6393,0 -0.7447,-5.25 c -1.0447,-7.36437 -0.8562,-16.9328 0.3482,-17.67714 0.6408,-0.39602 0.6703,-1.16651 0.08,-2.09925 -1.4242,-2.25204 -1.1408,-3.97361 0.6541,-3.97361 1.2043,0 1.4493,-0.57388 0.9604,-2.25 -1.2916,-4.4278 -1.4509,-5.75 -0.6928,-5.75 0.4232,0 0.5713,-1.35 0.3291,-3 -0.287,-1.95549 -0.01,-3 0.7982,-3 0.8391,0 1.0475,-0.95478 0.6462,-2.96123 -0.3257,-1.62867 -0.157,-3.23023 0.375,-3.55901 1.3501,-0.83439 1.2148,-3.53458 -0.1617,-3.22976 -1.7676,0.39139 -1.7298,-4.22493 0.043,-5.26169 0.9817,-0.57414 1.1097,-0.93908 0.336,-0.9579 -1.8654,-0.0454 -1.5122,-2.03041 0.3612,-2.03041 1.2894,0 1.4845,-0.67612 0.9765,-3.38398 -0.4956,-2.64193 -0.2635,-3.52648 1.0588,-4.03387 2.252,-0.86418 3.3583,1.14357 2.6318,4.77625 -0.4184,2.09202 -0.2536,2.74433 0.5655,2.23807 2.0777,-1.28405 3.405,0.49759 1.466,1.96773 -1.4734,1.11713 -1.5251,1.3781 -0.278,1.404 2.0527,0.0426 2.5058,5.0318 0.457,5.0318 -1.8016,0 -1.997,2.66231 -0.2388,3.25405 0.9645,0.32464 0.9241,0.81532 -0.1769,2.14891 -1.2459,1.509 -1.1985,2.11488 0.374,4.77693 1.496,2.53248 1.5683,3.19871 0.4269,3.93442 -1.0182,0.65632 -1.0709,1.08251 -0.2033,1.64571 0.6439,0.41801 1.4801,1.99301 1.8584,3.5 0.5641,2.24784 0.3539,2.74273 -1.1707,2.75529 -1.4639,0.0121 -1.5621,0.20296 -0.4627,0.89908 0.7676,0.48607 1.1304,1.5751 0.8061,2.42008 -0.3242,0.84497 -0.052,1.75613 0.6043,2.02479 0.8531,0.34906 0.7657,0.79126 -0.3061,1.5493 -1.2944,0.9154 -1.2602,1.06291 0.25,1.07613 1.5029,0.0131 1.7521,1.03895 1.7653,7.26531 0.01,4.73849 0.33,6.75265 0.9238,5.8143 0.756,-1.19488 1.1749,-1.21456 2.497,-0.11732 1.1532,0.95708 1.2978,1.66869 0.5276,2.59667 -0.7029,0.84696 -0.7218,1.48786 -0.056,1.89935 0.5527,0.34158 0.7514,1.28164 0.4416,2.08903 -0.3915,1.02011 0.1168,1.46797 1.6661,1.46797 1.7996,0 2.005,-0.27042 1.0653,-1.40275 -0.894,-1.07717 -0.8644,-1.52371 0.1275,-1.92387 1.0384,-0.41891 1.0256,-0.70766 -0.065,-1.47225 -0.9248,-0.64833 -1.012,-1.16418 -0.274,-1.62034 0.5956,-0.36806 0.9143,-2.4187 0.7084,-4.55698 -0.4153,-4.31103 0.946,-5.57652 3.7741,-3.50857 1.2497,0.91378 1.426,1.50412 0.6013,2.01376 -0.8863,0.5478 -0.8829,0.89629 0.014,1.45068 0.8631,0.53342 0.7381,1.17223 -0.4646,2.375 -1.5271,1.52709 -1.4785,1.64761 0.6761,1.67712 2.2566,0.0309 2.2672,0.0728 0.3803,1.5 -1.6927,1.28026 -1.7247,1.4682 -0.25,1.4682 1.8406,0 2.3296,1.62051 0.6572,2.17799 -1.3442,0.44806 0.1742,8.03544 1.7106,8.54755 0.7368,0.24563 1.0513,-1.26242 0.923,-4.42649 -0.1071,-2.63948 0.2351,-5.38062 0.7604,-6.09143 0.6244,-0.84478 0.5542,-1.69331 -0.2025,-2.45 -1.3743,-1.37433 -1.5718,-5.13166 -0.226,-4.29991 0.5124,0.31666 1.5249,-0.24891 2.25,-1.25683 0.7251,-1.00793 2.1375,-2.13844 3.1386,-2.51226 3.0206,-1.12796 1.757,-5.07709 -1.8202,-5.68862 -2.1965,-0.37549 -3.0891,-1.14108 -3.3329,-2.85834 -0.3142,-2.21349 -0.1094,-2.30772 3.6384,-1.67452 l 3.9713,0.67094 0.388,-4.06904 c 0.3221,-3.3773 0.086,-4.06904 -1.3883,-4.06904 -2.4528,0 -2.2235,-1.41456 0.749,-4.62201 3.1564,-3.40579 2.7582,-4.7402 -1.605,-5.37799 -1.8812,-0.275 -3.308,-0.8375 -3.1705,-1.25 0.1375,-0.4125 0.25,-1.42255 0.25,-2.24456 0,-1.14462 0.8117,-1.36555 3.4668,-0.94359 3.1709,0.50393 3.5175,0.31141 4.0602,-2.25545 1.3924,-6.58446 1.4119,-6.42179 -0.6916,-5.75414 -1.6597,0.52675 -1.9425,0.23669 -1.6667,-1.70892 0.2148,-1.51457 0.954,-2.29372 2.0903,-2.20304 1.0925,0.0872 1.9895,-0.78216 2.3696,-2.29657 0.7474,-2.97795 0.3832,-3.38674 -3.2629,-3.66254 -2.1552,-0.16302 -2.9477,-0.79184 -3.1967,-2.53642 -0.3034,-2.12604 -0.012,-2.2915 3.4912,-1.98222 3.8081,0.3362 3.8244,0.32171 4.3983,-3.91255 0.495,-3.65216 0.3203,-4.25 -1.2413,-4.25 -1.1504,0 -1.8171,-0.73372 -1.8171,-2 0,-1.32692 0.6667,-2 1.981,-2 2.1577,0 2.3364,-0.53686 3.7442,-11.25 0.8822,-6.71357 0.874,-6.75 -1.5261,-6.75 -1.7896,0 -2.2562,-0.40871 -1.8061,-1.58179 0.3339,-0.86998 0.607,-1.76998 0.607,-2 0,-0.23001 0.8697,-0.41821 1.9326,-0.41821 2.014,0 3.6632,-3.22689 2.5609,-5.0106 -0.3497,-0.56568 -0.1941,-2.4822 0.3456,-4.25895 2.4028,-7.91005 2.3815,-8.73045 -0.2264,-8.73045 -1.9331,0 -2.3193,-0.40597 -1.9024,-2 0.2876,-1.1 1.3223,-2 2.2993,-2 1.632,0 2.9904,-1.84888 2.9904,-4.06997 0,-0.49852 -1.7451,-1.18545 -3.8781,-1.52652 -3.1986,-0.51148 -3.7901,-0.95643 -3.376,-2.53964 0.3941,-1.50738 1.2557,-1.85987 4.0126,-1.64169 2.8577,0.22615 3.5668,-0.0942 3.8128,-1.72218 0.1662,-1.1 0.5444,-3.2375 0.8404,-4.75 0.466,-2.38083 0.2186,-2.75 -1.8431,-2.75 -1.889,0 -2.2732,-0.41348 -1.8583,-2 0.2894,-1.10692 1.364,-2 2.4063,-2 1.4924,0 1.8834,-0.74027 1.8834,-3.56574 0,-1.96116 0.3874,-4.32366 0.8609,-5.25 0.4735,-0.92634 1.1204,-3.3733 1.4377,-5.43767 0.5504,-3.58157 0.4652,-3.7254 -1.8609,-3.14159 -1.3407,0.3365 -2.4377,0.30845 -2.4377,-0.0623 0,-1.69762 2.2141,-4.54267 3.5352,-4.54267 0.8056,0 1.4648,-0.62686 1.4648,-1.39301 0,-1.5118 -2.0955,-2.60699 -4.9882,-2.60699 -1.3322,0 -1.6834,-0.53966 -1.3015,-2 0.2876,-1.1 0.586,-2 0.6629,-2 0.077,0 1.5297,0.39855 3.2282,0.88567 l 3.0881,0.88567 1.1281,-6.06594 c 0.7156,-3.84787 0.7811,-6.48408 0.179,-7.20946 -0.6067,-0.73102 -0.5561,-1.53639 0.1401,-2.2326 1.5491,-1.54874 0.1637,-3.26337 -2.6363,-3.26337 -2.7908,0 -3.7011,-1.05664 -2.5352,-2.94299 0.5426,-0.87807 1.8479,-1.14446 3.7468,-0.76469 2.866,0.57319 2.9346,0.4831 4.1622,-5.4604 0.6866,-3.32376 0.9958,-6.29567 0.6872,-6.60423 -0.3085,-0.30856 -1.911,-0.56102 -3.561,-0.56102 -3.3837,0 -4.0483,-1.57976 -1,-2.37692 2.2533,-0.58924 2.6317,-3.22019 0.75,-5.21475 -1,-1.06 -1,-1.41667 0,-1.78333 0.8,-0.29334 1.25,-2.50833 1.25,-6.15276 0,-5.51004 1.3645,-8.21319 4.5,-8.91507 0.55,-0.12311 1.1712,-0.73735 1.3804,-1.36497 0.2512,-0.75357 -0.4626,-0.92957 -2.1016,-0.51821 -1.365,0.34261 -2.7579,0.34695 -3.0952,0.01 -0.9301,-0.93015 1.2027,-4.35031 2.7129,-4.35031 0.8543,0 1.1657,-0.83959 0.875,-2.35989 -0.3375,-1.76562 0.075,-2.4975 1.6387,-2.90638 1.8741,-0.49009 2.7481,-2.96876 2.1604,-6.12718 -0.091,-0.4914 0.3051,-2.24552 0.8812,-3.89804 0.6596,-1.8922 0.6983,-3.42516 0.1046,-4.14058 -1.0163,-1.2246 -0.9291,-3.38207 0.2105,-5.20424 0.4188,-0.66965 -0.1061,-1.34989 -1.2781,-1.65638 -2.8938,-0.75674 -2.8846,-8.288207 0.011,-9.207307 1.4693,-0.46636 2,-1.51303 2,-3.94494 0,-1.8206 0.675,-3.87037 1.5,-4.55506 0.825,-0.68469 1.5,-1.80969 1.5,-2.5 0,-0.69031 0.675,-1.81531 1.5,-2.5 0.9497,-0.78822 1.5,-2.994903 1.5,-6.015456 0,-3.415692 0.4465,-4.941937 1.5724,-5.373969 2.9777,-1.142641 5.0153,1.012582 5.264,5.567712 0.1298,2.376942 0.8947,4.821322 1.6997,5.431953 0.8051,0.61064 1.4639,2.26064 1.4639,3.66667 0,1.40603 0.3905,2.70642 0.8678,2.88976 1.2939,0.497 2.4391,4.83333 1.2765,4.83333 -0.5448,0 0.3249,1.31538 1.9326,2.92308 4.859,4.858997 2.9861,8.874137 -3.566,7.644947 -4.4183,-0.82888 -4.6193,0.69208 -0.2609,1.97517 l 3.25,0.9568 -0.3457,8.1063 c -0.2773,6.50238 -0.049,8.22002 1.1522,8.6811 0.8239,0.31614 1.7839,0.28879 2.1335,-0.0608 0.3496,-0.34957 1.7667,-0.78705 3.1491,-0.97218 2.4225,-0.32442 2.5051,-0.15353 2.2826,4.72241 -0.2156,4.72544 -0.4333,5.11362 -3.3013,5.88728 l -3.0704,0.82828 3.6876,1.57671 c 3.6522,1.56158 3.6827,1.62301 3.1713,6.40379 -0.6072,5.67673 -1.6583,7.1535 -3.8166,5.36226 -0.8483,-0.70436 -1.5424,-0.98446 -1.5424,-0.62276 0,0.36169 -0.9,0.17596 -2,-0.41274 -1.559,-0.83433 -2,-0.76049 -2,0.33486 0,2.17558 7.8787,4.04194 11.4043,2.70151 3.3662,-1.27982 4.654,-0.67312 1.8063,0.85094 -2.8624,1.5319 -3.5827,5.20263 -1.1459,5.83986 2.2977,0.60087 2.5949,2.27283 0.4039,2.27283 -0.8422,0 -1.8003,0.70086 -2.129,1.55747 -0.3287,0.85661 -1.2146,1.32073 -1.9686,1.03139 -1.5729,-0.60358 -1.8778,0.9799 -0.3683,1.91281 0.6378,0.3942 0.6632,1.25404 0.07,2.3629 -0.5149,0.96208 -0.5576,2.35055 -0.095,3.09863 0.4607,0.74549 0.6062,1.95874 0.3232,2.69612 -0.5955,1.55204 2.2628,1.85639 3.1995,0.34068 1.0825,-1.75146 4.0672,-1.0966 4.2195,0.92579 0.098,1.29716 -0.8121,2.25946 -2.7872,2.94798 -3.1977,1.11472 -4.1286,3.67235 -1.043,2.86543 1.0392,-0.27174 2.4547,-0.14464 3.1458,0.28244 2.0355,1.25802 0.2692,3.97836 -2.5831,3.97836 -2.3206,0 -2.5471,0.30572 -2.0372,2.75 0.3155,1.5125 0.672,4.2125 0.7921,6 0.2132,3.17051 1.1236,4.14242 2.2194,2.3694 0.2993,-0.48433 1.6196,-1.08617 2.934,-1.33743 1.9684,-0.37628 2.3897,-0.0447 2.3897,1.8806 0,1.28559 -0.5636,2.33743 -1.2525,2.33743 -0.6889,0 -1.8244,0.68907 -2.5234,1.53126 -1.05,1.26521 -0.9483,1.76711 0.5857,2.88875 1.021,0.74663 2.4378,1.13442 3.1484,0.86176 0.7255,-0.27843 1.2918,0.2087 1.2918,1.11124 0,1.10444 -0.9017,1.60699 -2.8834,1.60699 -2.2888,0 -2.9829,0.52046 -3.3659,2.52387 -0.2653,1.38812 -0.1531,2.72738 0.2493,2.97613 0.4025,0.24875 0.5129,1.5975 0.2453,2.99724 -0.4585,2.39879 -0.3316,2.4861 2.2095,1.51996 2.0331,-0.773 3.1906,-0.67861 4.7075,0.38392 1.9832,1.38908 1.984,1.41768 0.057,2.02944 -1.0752,0.34127 -2.7591,1.50901 -3.7419,2.59497 -1.7328,1.91475 -1.713,1.97447 0.6553,1.97447 1.7664,0 2.4861,0.58286 2.6009,2.10623 0.1311,1.7406 -0.2806,2.02225 -2.3718,1.6225 -2.1983,-0.42024 -2.4468,-0.20448 -1.8931,1.64377 0.3506,1.17013 0.7701,3.59647 0.9323,5.39187 0.356,3.94048 1.2316,5.00352 2.8162,3.41896 1.3803,-1.38034 6.1723,-1.62168 5.3361,-0.26874 -0.3109,0.50302 10e-5,1.1137 0.691,1.35705 0.6909,0.24335 -0.3656,1.13139 -2.3478,1.97342 -2.0359,0.8648 -3.8444,2.44992 -4.1564,3.64294 -0.4754,1.81794 -0.1128,2.11413 2.604,2.12731 2.4058,0.0117 2.7997,0.24586 1.6564,0.98469 -1.2819,0.82843 -1.2455,0.9716 0.25,0.98469 0.9625,0.008 1.75,0.46531 1.75,1.01531 0,0.55 -1.0984,1 -2.441,1 -3.2222,0 -3.6816,0.97214 -2.4931,5.27637 0.9503,3.44157 1.1434,3.56755 4.7125,3.07334 2.8114,-0.38931 3.3548,-0.25427 2.2216,0.55216 -1.2952,0.92177 -1.2611,1.06959 0.25,1.08282 0.9625,0.008 1.75,0.46531 1.75,1.01531 0,0.55 -1.0699,1 -2.3775,1 -1.3077,0 -2.8177,0.5625 -3.3556,1.25 -1.6086,2.05593 -2.1902,5.74057 -0.9233,5.84854 0.6361,0.0542 2.0564,0.1667 3.1564,0.25 3.0699,0.23248 3.339,2.11222 0.3519,2.45806 -2.5851,0.29928 -4.599,3.61363 -2.8519,4.6934 0.4468,0.2761 0.5585,1.47261 0.2482,2.65893 -0.4918,1.88059 -0.2555,2.07164 1.8439,1.49118 7.6063,-2.10299 7.5033,-2.0976 6.0355,-0.31598 -0.8925,1.08324 -0.9799,1.66587 -0.25,1.66587 2.3467,0 0.986,1.62659 -2.1276,2.5432 -2.9059,0.85551 -3.2732,1.38026 -3.4693,4.9568 -0.1684,3.0702 -0.01,3.5351 0.6797,2 0.4945,-1.1 0.9307,-1.4375 0.9693,-0.75 0.039,0.6875 0.5469,1.25 1.1293,1.25 0.5825,0 0.781,-0.45 0.441,-1 -0.3399,-0.55 0.083,-1 0.941,-1 0.8924,0 1.559,0.85524 1.559,2 0,1.48478 -0.6666,2 -2.5879,2 -2.488,0 -2.5608,0.16396 -1.8857,4.25 0.8638,5.22872 1.0822,5.47555 3.5055,3.96215 2.0154,-1.25863 5.7996,-1.71023 4.6435,-0.55416 -0.3619,0.3619 -0.1612,1.25657 0.4459,1.98817 1.1683,1.40769 0.4725,1.89939 -3.6213,2.55899 -1.4815,0.23871 -2,1.09632 -2,3.30855 0,1.98631 0.4538,2.89084 1.3553,2.70121 1.7228,-0.36241 4.299,1.72639 3.5747,2.8984 -0.3014,0.48768 -1.4395,0.88669 -2.529,0.88669 -1.7242,0 -1.9435,0.58341 -1.691,4.4992 0.3073,4.7674 0.9154,5.16402 5.3391,3.48215 2.1999,-0.83639 2.5794,-0.75849 2.1212,0.4354 -0.3068,0.79972 -0.021,1.65572 0.6359,1.90222 0.6919,0.25974 0.353,0.73769 -0.8062,1.13676 -3.8698,1.33231 -5.003,2.26891 -5.3195,4.3964 -0.2719,1.82761 0.1754,2.15015 3,2.16318 2.5112,0.0116 2.9542,0.25138 1.8195,0.98469 -1,0.64625 -1.0833,0.97448 -0.25,0.98469 0.6875,0.008 1.25,0.46531 1.25,1.01531 0,0.55 -1.1825,1 -2.6278,1 -2.5278,0 -2.6022,0.16031 -1.9542,4.21246 0.8195,5.12492 0.9044,5.22059 3.4306,3.86856 2.8932,-1.54839 3.8478,-1.35002 4.4423,0.92315 0.4036,1.54343 -0.087,2.15356 -2.1334,2.65397 -3.4657,0.84742 -4.1479,2.00673 -4.0262,6.84186 0.055,2.20181 0.3274,3.10091 0.6049,2 0.2774,-1.1 1.0859,-2.83158 1.7968,-3.84796 1.2288,-1.75677 1.3748,-1.72237 2.9601,0.69702 0.9639,1.47114 1.5772,4.14962 1.4535,6.34796 -0.1177,2.09164 0.1197,4.59149 0.5276,5.55522 0.4078,0.96373 0.4624,2.86424 0.1213,4.22336 -0.4814,1.91806 -0.2888,2.34395 0.8605,1.9029 0.8145,-0.31251 1.3825,-1.03178 1.2624,-1.59836 -0.1201,-0.56658 0.3441,-1.23639 1.0316,-1.48847 0.6875,-0.25209 1.25,0.25416 1.25,1.125 0,0.87083 0.3881,1.58333 0.8625,1.58333 0.4744,0 0.739,1.125 0.5881,2.5 -0.2218,2.02027 0.166,2.5 2.0209,2.5 1.6543,0 2.4288,-0.69824 2.7733,-2.5 0.3204,-1.67641 0.029,-2.5 -0.8834,-2.5 -0.7488,0 -1.3614,-0.675 -1.3614,-1.5 0,-0.83333 0.8889,-1.5 2,-1.5 1.3333,0 2,-0.66667 2,-2 0,-1.11111 -0.6667,-2 -1.5,-2 -2.1428,0 -1.8526,-1.7409 0.5,-3 2.328,-1.24593 2.7034,-5 0.5,-5 -0.825,0 -1.5,-0.675 -1.5,-1.5 0,-0.85244 0.8977,-1.5 2.0795,-1.5 1.7902,0 1.9878,-0.41721 1.4205,-3 -0.4071,-1.85356 -0.2559,-3 0.3958,-3 0.7267,0 0.7426,-0.82093 0.051,-2.63985 -0.7869,-2.06979 -0.6445,-3.03671 0.6594,-4.47756 1.1975,-1.32325 1.5156,-2.93789 1.136,-5.76771 -0.305,-2.27422 -0.056,-4.40077 0.5903,-5.0474 0.8232,-0.8232 0.8073,-1.61399 -0.061,-3.00351 -0.954,-1.52751 -0.8801,-2.00039 0.3885,-2.48719 0.9805,-0.37625 1.3719,-1.34465 1.0465,-2.58893 -0.3496,-1.33711 -0.024,-1.98785 0.9936,-1.98785 0.9274,0 1.2928,0.57482 0.9436,1.48475 -0.3397,0.8851 0.2628,1.93034 1.4918,2.58805 1.9147,1.02474 2.0152,0.89242 1.4112,-1.85795 -0.7568,-3.44532 0.3556,-4.18704 5.2028,-3.46917 3.4119,0.5053 4.2315,1.66369 1.8294,2.58548 -1.667,0.63969 -1.4813,3.49341 0.2989,4.59367 1.4025,0.86677 0.5059,6.07517 -1.0458,6.07517 -0.5228,0 -0.6846,0.43035 -0.3595,0.95633 0.325,0.52598 1.2564,0.70099 2.0697,0.38891 1.733,-0.66501 1.5549,1.88909 -0.3768,5.40476 -1.0877,1.97954 -1.0067,2.25 0.6739,2.25 1.2943,0 2.0735,0.8866 2.4169,2.75 0.5414,2.93864 0.1425,14.08119 -0.8413,23.5 -0.4029,3.85786 -0.241,5.75 0.492,5.75 0.6009,0 1.139,-0.7875 1.1958,-1.75 0.4013,-6.80032 0.8832,-9.63642 1.7916,-10.54486 1.465,-1.46499 3.243,3.33798 1.8676,5.04486 -0.7106,0.88172 -0.603,1.25451 0.3651,1.26531 1.078,0.012 1.0506,0.22329 -0.1275,0.98469 -1.3334,0.86167 -1.3334,0.97278 0,1 0.8828,0.018 1.0886,0.33289 0.5,0.76531 -1.3777,1.01218 -1.7212,3.23469 -0.5,3.23469 0.55,0 1,0.47656 1,1.05902 0,0.58246 -0.45,0.7809 -1,0.44098 -0.55,-0.33992 -1,-0.21024 -1,0.28817 0,0.49841 1.0125,1.39451 2.25,1.99134 1.2375,0.59682 1.6324,1.11559 0.8776,1.15281 -0.9508,0.0469 -1.072,0.45178 -0.3945,1.31768 1.7853,2.28179 2.1914,5.75 0.6733,5.75 -0.7735,0 -1.4349,-0.5625 -1.4698,-1.25 -0.035,-0.6875 -0.4857,-0.19594 -1.0019,1.09235 -0.5162,1.2883 -0.6351,2.83343 -0.2641,3.43363 0.4193,0.67848 0.9608,0.35986 1.4316,-0.84236 0.6298,-1.6081 0.7691,-1.46074 0.8275,0.8754 0.041,1.63221 -0.3486,2.5501 -0.9297,2.19098 -0.55,-0.33992 -1,0.30852 -1,1.44098 0,1.13246 0.45,2.05902 1,2.05902 0.55,0 1,0.92656 1,2.05902 0,1.13246 -0.45,1.7809 -1,1.44098 -0.55,-0.33992 -1.0344,-0.25398 -1.0765,0.19098 -0.042,0.44496 -0.2273,1.59652 -0.4115,2.55902 -0.1843,0.9625 0.075,1.75 0.5765,1.75 0.5013,0 0.9275,1.0125 0.9469,2.25 0.02,1.2375 0.6786,3.375 1.4646,4.75 0.786,1.375 1.4451,3.68936 1.4646,5.14301 0.019,1.45366 0.7298,2.90948 1.5785,3.23516 1.1985,0.45989 1.3086,1.03037 0.4932,2.55398 -0.5775,1.07901 -1.0567,2.99819 -1.065,4.26484 -0.01,1.26666 -0.067,5.90301 -0.1301,10.30301 -0.063,4.4 -0.1115,15.06569 -0.1072,23.70153 0.01,13.63736 -0.2052,15.75838 -1.613,16.13399 -1.0042,0.26792 -0.7183,0.47662 0.7514,0.54848 2.0429,0.0999 2.1908,0.33498 1.0644,1.69222 -1.081,1.3025 -1.07,1.72339 0.063,2.42378 1.1601,0.71701 1.1575,1.10528 -0.017,2.52056 -1.1992,1.44489 -1.1554,1.80342 0.3209,2.62961 1.3,0.72755 1.4727,1.39878 0.721,2.80326 -0.7366,1.37648 -0.611,1.99141 0.4934,2.41522 2.1754,0.83478 1.8061,2.56542 -0.7683,3.60019 -1.9847,0.79776 -1.0088,1.5457 1.5,1.14958 1.0626,-0.16778 0.9293,1.67814 -0.2852,3.94732 -0.8145,1.52192 -0.7079,1.93426 0.5,1.93426 0.8444,0 1.5352,0.45 1.5352,1 0,0.55 -0.6788,1 -1.5085,1 -1.2581,0 -1.3012,0.33189 -0.2594,2 1.4785,2.36742 2.7679,2.60035 2.7679,0.5 0,-0.825 0.4414,-1.5 0.981,-1.5 1.1519,0 2.5415,4.81083 1.6478,5.70456 -0.3363,0.33628 -0.1102,1.21533 0.5023,1.95343 0.6126,0.73811 0.7045,1.34201 0.2042,1.34201 -0.5003,0 -0.9775,0.9 -1.0603,2 -0.083,1.1 0.1961,2 0.62,2 0.4239,0 0.6826,1.0125 0.5748,2.25 -0.1077,1.2375 0.063,2.69888 0.3792,3.24752 0.9712,1.68488 1.0486,6.50248 0.1044,6.50248 -0.4898,0 -0.6316,0.675 -0.315,1.5 0.3645,0.94984 -0.014,1.5 -1.0314,1.5 -0.8838,0 -1.607,0.41018 -1.607,0.91152 0,0.50133 0.7875,0.78461 1.75,0.62951 2.6724,-0.43062 3.3292,0.35932 2.0294,2.44065 -0.6488,1.03892 -1.5396,1.6665 -1.9795,1.39462 -1.3262,-0.81961 -0.9106,1.84907 1.1777,7.56237 1.4659,4.0106 1.693,5.75336 0.8776,6.73588 -0.8057,0.97078 -0.7903,1.32545 0.058,1.32545 0.8615,0 0.8482,0.57557 -0.052,2.25 -0.8356,1.55451 -1.2836,10.13219 -1.4492,27.75 -0.1319,14.025 -0.2912,30.9 -0.3541,37.5 -0.063,6.6 0.011,18.14506 0.164,25.65568 0.1531,7.51063 -0.1059,13.41772 -0.5754,13.12688 -0.4696,-0.29084 -0.08,0.6516 0.865,2.09432 0.9453,1.44271 2.6221,2.62312 3.7261,2.62312 1.5277,0 1.7511,0.30888 0.9349,1.29233 -0.7906,0.95268 -0.2972,2.82941 1.8776,7.14092 1.7188,3.40752 2.9501,7.43015 2.9501,9.63787 0,3.69548 0.071,3.76892 2.8661,2.96729 3.9783,-1.14098 4.8937,-0.22869 4.9586,4.94176 0.031,2.46409 0.5331,4.63909 1.1158,4.83333 0.6849,0.2283 1.0595,5.80373 1.0595,15.76983 l 0,15.41667 -395,0 -395.000000000001,0 0,-33.5 z m 186.60417,-83.22917 c -0.3323,-0.33229 -0.56864,0.25834 -0.52522,1.3125 0.048,1.16495 0.28494,1.4019 0.60416,0.60417 0.28887,-0.72187 0.25335,-1.58438 -0.0789,-1.91667 z M 362.17695,373.44348 c -0.45352,-3.09003 -0.52536,-3.13858 -1.47962,-1 -0.55163,1.23624 -1.49669,2.2546 -2.10014,2.26302 -1.39131,0.0194 1.5277,1.94873 2.97962,1.96938 0.64738,0.009 0.88671,-1.27986 0.60014,-3.2324 z"
     id="path2987"
     inkscape:connector-curvature="0" />
</svg>
