<?xml version="1.0" encoding="UTF-8" standalone="no"?>
<!-- Created with Inkscape (http://www.inkscape.org/) -->

<svg
   xmlns:dc="http://purl.org/dc/elements/1.1/"
   xmlns:cc="http://creativecommons.org/ns#"
   xmlns:rdf="http://www.w3.org/1999/02/22-rdf-syntax-ns#"
   xmlns:svg="http://www.w3.org/2000/svg"
   xmlns="http://www.w3.org/2000/svg"
   xmlns:sodipodi="http://sodipodi.sourceforge.net/DTD/sodipodi-0.dtd"
   xmlns:inkscape="http://www.inkscape.org/namespaces/inkscape"
   id="svg2"
   version="1.1"
   inkscape:version="0.48.2 r9819"
   width="947.85016"
   height="1104.4359"
   sodipodi:docname="ilamanastasicdra04ilamuoft_0056sc.png">
  <metadata
     id="metadata8">
    <rdf:RDF>
      <cc:Work
         rdf:about="">
        <dc:format>image/svg+xml</dc:format>
        <dc:type
           rdf:resource="http://purl.org/dc/dcmitype/StillImage" />
        <dc:title></dc:title>
      </cc:Work>
    </rdf:RDF>
  </metadata>
  <defs
     id="defs6" />
  <sodipodi:namedview
     pagecolor="#ffffff"
     bordercolor="#666666"
     borderopacity="1"
     objecttolerance="10"
     gridtolerance="10"
     guidetolerance="10"
     inkscape:pageopacity="0"
     inkscape:pageshadow="2"
     inkscape:window-width="1600"
     inkscape:window-height="876"
     id="namedview4"
     showgrid="false"
     fit-margin-top="0"
     fit-margin-left="0"
     fit-margin-right="0"
     fit-margin-bottom="0"
     inkscape:zoom="0.70710678"
     inkscape:cx="577.32895"
     inkscape:cy="512.25506"
     inkscape:window-x="0"
     inkscape:window-y="24"
     inkscape:window-maximized="1"
     inkscape:current-layer="svg2" />
  <path
     style="fill:#000000"
     d="m 597.84873,1104.1249 c -0.825,-0.2353 -5.55,-0.8811 -10.5,-1.4352 -4.95,-0.5541 -12.1392,-1.4935 -15.976,-2.0875 -4.96,-0.7679 -7.0793,-0.7702 -7.3333,-0.01 -0.4359,1.3075 -3.1907,1.4382 -3.1907,0.1515 0,-1.6487 -5.958,-2.3587 -7.7036,-0.918 -1.3565,1.1196 -1.6966,1.1156 -2.0801,-0.025 -0.3404,-1.0123 -0.6472,-1.0576 -1.192,-0.1761 -0.5492,0.8886 -1.0953,0.8255 -2.1718,-0.2511 -1.1841,-1.1841 -7.4369,-1.4822 -35.3953,-1.6879 -18.6765,-0.1374 -35.5322,-0.43 -37.4572,-0.6502 -8.1775,-0.9355 -14.5727,-1.04 -15.5779,-0.2546 -0.5928,0.4633 -2.4691,0.4432 -4.1696,-0.044 -1.7005,-0.4877 -6.6155,-1.1899 -10.9222,-1.5605 -4.3067,-0.3705 -9.7233,-1.366 -12.0369,-2.2121 -2.3573,-0.8621 -5.3248,-1.2577 -6.75,-0.9 -1.8885,0.4739 -2.5434,0.2471 -2.5434,-0.8807 0,-1.8323 -0.1836,-1.8482 -3.5625,-0.3087 -2.3028,1.0492 -2.8451,0.9527 -4.0719,-0.725 -1.1897,-1.6271 -1.7279,-1.7403 -3.3769,-0.7105 -2.6717,1.6686 -4.9887,1.5409 -4.9887,-0.2749 0,-1.8242 -0.4378,-1.8598 -3.0745,-0.25 -1.6999,1.0379 -2.2491,0.9806 -3.2364,-0.3378 -1.2134,-1.6202 -3.6634,-1.4194 -4.8468,0.3973 -0.439,0.6741 -1.6023,0.6464 -3.5,-0.083 -1.5633,-0.6011 -7.7923,-1.3526 -13.8423,-1.6698 -6.05,-0.3173 -12.3156,-0.7226 -13.9235,-0.9006 -1.6078,-0.1781 -4.7578,0.076 -7,0.5648 -2.2421,0.4888 -4.9722,0.8839 -6.0669,0.8781 -1.0947,-0.01 -4.4697,1.2071 -7.5,2.6953 -4.8166,2.3656 -6.6948,2.7039 -14.9318,2.6895 -6.5319,-0.012 -9.5474,-0.3922 -9.8303,-1.2411 -0.3022,-0.9065 -0.7955,-0.8373 -1.8993,0.2665 -1.6562,1.6562 -7.8425,2.0998 -6.8482,0.4911 0.7939,-1.2846 2.4223,-1.1238 -16.4855,-1.6285 -9.067,-0.2421 -20.767,-1.1378 -26,-1.9906 -5.233,-0.8528 -13.5645,-1.9186 -18.5145,-2.3685 -10.8406,-0.9853 -18.4775,-2.3237 -25.648,-4.495 -2.9436,-0.8913 -8.727,-1.8266 -12.852,-2.0784 -8.3706,-0.5108 -20.0618,-2.06 -27.2344,-3.6087 -2.6039,-0.5623 -6.9518,-0.7173 -9.6621,-0.3445 -2.7103,0.3727 -8.3847,0.1537 -12.6097,-0.4867 -7.061,-1.0704 -8.0732,-0.9961 -12.5232,0.9182 -6.7986,2.9247 -13.4903,2.563 -16.9706,-0.9173 -0.5283,-0.5283 -3.1828,-0.6528 -19.86908,-0.9319 -9.39398,-0.1572 -10.19331,-0.3145 -8.5,-1.6726 1.76334,-1.4143 1.72764,-1.4615 -0.63093,-0.8349 -1.375,0.3653 -2.927503,1.0636 -3.450003,1.5518 -0.5225,0.4882 -2.5475,0.8733 -4.5,0.8558 -3.41701,-0.031 -3.47508,-0.091 -1.55,-1.6187 1.91842,-1.5222 1.87762,-1.5587 -1,-0.8943 -1.65,0.381 -3.15,1.1094 -3.33333,1.6187 -0.91462,2.541 -15.7722,-1.7831 -15.52778,-4.5192 0.15998,-1.7908 -1.28524,-2.1157 -1.8517,-0.4163 -0.48206,1.4462 -7.72399,-0.9449 -9.50539,-3.1384 -0.83387,-1.0268 -1.22823,-1.1097 -1.25,-0.263 -0.0218,0.8476 -1.52722,0.5327 -4.7818,-1 -2.6125,-1.2303 -4.975,-2.462 -5.25,-2.737 -0.275,-0.275 -1.4,-0.6443 -2.5,-0.8206 -16.40661,-2.6304 -25.053547,-4.3939 -26.196937,-5.3428 -0.6685,-0.5548 -1.66212,-0.7327 -2.20805,-0.3953 -1.58537,0.9798 -13.6701896,-1.2919 -17.0227196,-3.2 -3.56341002,-2.028 -3.74275002,-2.8688 -1.21081,-5.6768 3.21022,-3.5603 5.59402,-13.5645 3.23214,-13.5645 -0.49851,0 -0.67103,-0.9 -0.38337,-2 0.28766,-1.1 0.93636,-2 1.44157,-2 0.53837,0 0.51615,-0.7519 -0.0537,-1.8166 -0.77411,-1.4465 -0.18761,-2.701 2.8782,-6.1567 2.1177296,-2.3871 4.1065996,-5.5071 4.4197196,-6.9334 0.31311,-1.4263 0.87233,-11.6875 1.24272,-22.80272 0.50901,-15.2751 0.3754,-20.5686 -0.54724,-21.6803 -0.99332,-1.1969 -0.83342,-1.6781 0.85849,-2.5836 2.59547,-1.389 6.81091,-7.9558 7.51408,-11.7054 0.83664,-4.4612 0.5508,-24.66956 -0.33639,-23.78238 -0.24403,0.24404 -1.07108,-0.077 -1.83787,-0.71335 -1.14698,-0.95191 -0.46013,-2.10286 3.87383,-6.49133 2.8974,-2.93384 4.833367,-5.34115 4.302157,-5.34957 -0.53121,-0.008 -0.42066,-0.36178 0.24566,-0.78523 0.83972,-0.53364 1.25017,-4.90197 1.33749,-14.23468 0.16748,-17.89722 0.16218,-17.96328 -1.44198,-17.96328 -2.501527,0 -2.543827,-2.80305 -0.0933,-6.18545 1.32072,-1.823 3.15149,-4.66455 4.06837,-6.31455 0.91687,-1.65 3.18601,-4.87573 5.04252,-7.1683 1.85651,-2.29256 3.37547,-4.4075 3.37547,-4.69986 0,-0.29237 1.4625,-2.62514 3.25,-5.18394 1.7875,-2.5588 3.7,-5.39386 4.25,-6.30013 0.55,-0.90627 1.5625,-2.00763 2.25,-2.44746 0.6875,-0.43983 1.25,-1.70389 1.25,-2.80902 0,-1.10513 0.36154,-1.78588 0.80343,-1.51278 0.84543,0.52251 11.25691,-14.58389 11.5831,-16.80634 0.10421,-0.71007 1.02239,-2.12395 2.04039,-3.14195 1.018,-1.018 2.46943,-3.33125 3.22541,-5.14056 0.75593,-1.80931 1.81842,-3.28966 2.36104,-3.28966 0.54262,0 0.98658,-0.36979 0.98658,-0.82176 0,-0.45196 3.2625,-5.75867 7.25,-11.79269 3.9875,-6.03401 8.375,-12.86228 9.75,-15.17394 1.375,-2.31166 4.77748,-7.31107 7.56108,-11.10982 2.783593,-3.79874 6.649763,-9.31317 8.591503,-12.2543 7.60468,-11.51873 10.87668,-16.42849 12.22726,-18.34749 4.11175,-5.84227 18.69887,-28.68177 21.07637,-33 1.5141,-2.75 3.1079,-5.45 3.5418,-6 0.4339,-0.55 2.1258,-3.475 3.7599,-6.5 1.6341,-3.025 3.9165,-7.17348 5.072,-9.21884 1.5956,-2.82441 2.0279,-5.07102 1.7974,-9.34089 -0.1669,-3.09213 -0.7138,-5.91865 -1.2154,-6.28116 -3.034,-2.19283 -3.5502,-4.01848 -1.8638,-6.59219 0.925,-1.4118 2.3052,-2.56692 3.0669,-2.56692 0.7916,0 1.385,-1.01859 1.385,-2.37756 0,-3.00101 2.3107,-4.97598 4.8711,-4.16333 1.3462,0.42726 2.182,1.89583 2.6477,4.65225 0.3743,2.21534 1.3107,4.26971 2.0808,4.56526 1.861,0.71411 1.8445,6.93897 -0.02,7.65454 -1.3946,0.53516 -1.5878,2.99372 -0.3338,4.24771 0.3502,0.35021 0.1544,1.40901 -0.435,2.35289 -0.8537,1.36689 -0.5364,2.25147 1.5588,4.34673 1.4469,1.44683 2.6306,3.27816 2.6306,4.06963 0,0.79147 2.1878,5.64942 4.8617,10.79545 l 4.8617,9.35643 6.3883,-0.80466 c 3.5136,-0.44257 14.4883,-2.17092 24.3883,-3.84077 9.9,-1.66986 20.6583,-3.37101 23.9072,-3.78033 4.5498,-0.57322 6.3282,-1.29916 7.7392,-3.15924 1.0075,-1.32825 2.4525,-3.09 3.211,-3.915 0.7584,-0.825 1.9591,-3.13339 2.6682,-5.12975 0.7091,-1.99636 2.5684,-5.09484 4.1318,-6.88551 1.5635,-1.79067 2.8426,-3.6637 2.8426,-4.16229 0,-1.73377 6.5118,-9.66995 8.3507,-10.17727 1.0178,-0.28081 1.6002,-0.91568 1.2942,-1.41082 -0.306,-0.49514 0.4801,-2.43793 1.7469,-4.31731 1.2668,-1.87938 3.7928,-6.11705 5.6134,-9.41705 5.1172,-9.27576 7.9298,-13.5 8.9883,-13.5 0.5326,0 1.2508,-1.125 1.5959,-2.5 0.3451,-1.375 1.2537,-2.5 2.019,-2.5 0.8088,0 1.3916,-1.0224 1.3916,-2.44098 0,-1.34254 0.4261,-2.7043 0.9468,-3.02613 1.097,-0.678 7.0532,-9.333 7.0532,-10.24909 0,-0.33876 1.9578,-3.8037 4.3506,-7.69987 2.3928,-3.89616 4.6286,-7.87143 4.9686,-8.83393 0.3399,-0.9625 1.0822,-1.75 1.6495,-1.75 0.5672,0 1.0313,-0.56539 1.0313,-1.25642 0,-0.82378 3.8347,-1.88672 11.1359,-3.08678 6.1248,-1.0067 15.2373,-2.92975 20.25,-4.27346 5.0128,-1.3437 11.8141,-2.90034 15.1141,-3.4592 3.3,-0.55885 7.35,-1.24391 9,-1.52234 1.65,-0.27843 7.2939,-1.59184 12.5419,-2.91869 5.248,-1.32684 11.098,-2.61992 13,-2.8735 2.901,-0.38677 24.7381,-5.10494 51.7415,-11.17939 3.4558,-0.77739 7.5058,-1.6318 9,-1.89868 1.4941,-0.26688 4.7416,-0.90855 7.2166,-1.42594 14.2686,-2.98277 31.4088,-6.47607 37.5,-7.64277 12.6445,-2.42186 54.4095,-12.03896 55.0457,-12.6752 0.2103,-0.21022 0.511,-22.85259 0.6683,-50.31639 0.2821,-49.25386 0.2588,-49.93942 -1.714,-50.31839 -4.2815,-0.8225 -3.9119,-5.37136 0.6271,-7.71858 3.3626,-1.73885 2.9748,4.6354 3.4029,-55.93427 0.1593,-22.55 0.5693,-54.12727 0.9111,-70.17171 0.4465,-20.96636 0.308,-29.36535 -0.4926,-29.86016 -0.6127,-0.37865 -1.9807,-2.7105 -3.0401,-5.18188 -1.5351,-3.58133 -2.2795,-4.3448 -3.6672,-3.76124 -4.0577,1.70633 -6.2412,1.72738 -6.2412,0.0602 0,-0.90638 -0.675,-1.90698 -1.5,-2.22356 -2.363,-0.90677 -1.762,-3.73639 1.4464,-6.81026 2.3664,-2.26712 3.5399,-2.70412 5.9612,-2.21985 1.6582,0.33163 3.2495,0.22336 3.5363,-0.24062 0.5997,-0.97046 1.1841,-13.87807 2.1212,-46.85222 0.5074,-17.85597 0.3726,-23.60882 -0.5801,-24.75677 -0.9639,-1.16145 -0.9846,-2.44315 -0.093,-5.73868 1.7208,-6.35851 0.8437,-20.48468 -1.3726,-22.10526 -1.4096,-1.03071 -1.5926,-1.96053 -0.9273,-4.71106 1.2952,-5.35424 1.0554,-8.24679 -0.8423,-10.16136 -0.9625,-0.97105 -1.75,-2.40991 -1.75,-3.19746 0,-1.50835 5.034,-5.56809 6.9044,-5.56809 2.4321,0 0.9324,-2.88594 -1.6544,-3.18358 -2.3887,-0.27485 -2.7908,-0.81013 -3.0608,-4.07446 -0.2297,-2.77621 0.1233,-3.92463 1.3509,-4.39571 0.914,-0.35073 2.0174,-0.0622 2.4521,0.64117 0.5326,0.86176 1.0092,0.28264 1.4613,-1.77565 0.5155,-2.34691 0.061,-4.02082 -1.9624,-7.22586 -2.5076,-3.97235 -2.5509,-4.26234 -0.9072,-6.07863 0.9494,-1.049 2.5563,-1.90728 3.5711,-1.90728 1.0147,0 1.9125,-0.675 1.995,-1.5 0.083,-0.825 0.195,-2.06191 0.25,-2.74868 0.055,-0.68678 -0.7926,-1.24928 -1.8836,-1.25 -3.0638,-0.002 -3.0323,-3.35341 0.062,-6.582957 2.7105,-2.82923 2.7276,-2.9229 0.9007,-4.94166 -1.7658,-1.95113 -1.7746,-2.20615 -0.1706,-4.92152 0.9304,-1.57507 1.6916,-3.55528 1.6916,-4.40046 0,-0.84518 0.4698,-1.82698 1.0438,-2.18179 1.462,-0.90352 3.9562,1.39741 3.9562,3.64951 0,1.03266 0.4415,1.87756 0.981,1.87756 1.6033,0 2.3595,4.88483 1.0083,6.51299 -0.8141,0.98086 -0.8641,1.48701 -0.1469,1.48701 1.841,0 3.3251,3.961047 2.6448,7.058647 -0.3554,1.61774 -1.2757,2.94135 -2.0452,2.94135 -1.1545,0 -1.1864,0.48077 -0.1827,2.75 0.669,1.5125 1.784,3.2 2.4778,3.75 0.8188,0.64914 1.1504,2.92973 0.945,6.5 -0.2154,3.74403 0.1481,6.05265 1.1385,7.23098 0.8003,0.95204 1.5847,3.36538 1.7432,5.36298 0.2289,2.88483 -0.108,3.73562 -1.6378,4.13565 -2.8442,0.74379 -2.3965,4.14101 0.7011,5.31868 2.3443,0.89132 2.5641,1.38625 2.0427,4.59928 -0.3213,1.98027 -1.281,4.37036 -2.1326,5.31133 -1.2772,1.41135 -1.3461,2.29057 -0.3937,5.02263 0.8529,2.44689 0.8629,3.77867 0.038,5.09949 -1.3718,2.19651 -2.6547,15.89749 -1.8055,19.2811 l 0.6196,2.46845 8.2439,-2.91529 c 4.5341,-1.60342 8.3601,-2.9153 8.5022,-2.9153 0.142,0 0.2582,6.525 0.2582,14.5 0,7.975 0.1566,14.5 0.348,14.5 0.1914,0 3.4539,-1.27211 7.25,-2.82692 l 6.902,-2.82692 0.3089,-14.92308 c 0.1699,-8.20769 0.6199,-15.21478 1,-15.57131 1.2299,-1.15369 29.4356,-11.85177 31.2474,-11.85177 0.5258,0 0.8178,5.74456 0.6817,13.41327 -0.1309,7.3773 0.075,13.7279 0.4578,14.11246 0.3827,0.38455 4.4327,-0.65116 9,-2.30158 l 8.3042,-3.00078 0.1769,-15.84834 0.1769,-15.84835 16.6597,-6.61939 c 13.0685,-5.19249 16.777,-6.31386 17.2036,-5.20203 0.2992,0.77954 0.3344,7.22072 0.078,14.31373 -0.2561,7.09301 -0.2013,13.3241 0.1218,13.84688 0.3357,0.54317 4.5175,-0.55419 9.7581,-2.56065 l 9.1707,-3.51114 0.1561,-13.14704 c 0.2284,-19.22625 0.2088,-19.07346 2.498,-19.45332 1.1,-0.18253 3.8,-1.13493 6,-2.11646 2.2,-0.98153 6.1607,-2.59545 8.8015,-3.58648 6.6633,-2.50051 7.6985,-5.32386 7.6985,-20.99627 0,-11.549397 -0.1199,-12.292597 -2.0653,-12.801327 -1.9224,-0.50273 -1.9658,-0.73552 -0.6267,-3.36663 2.4509,-4.81559 2.9652,-7.32305 1.5094,-7.35982 -1.6569,-0.0418 -5.8174,-3.45571 -5.8174,-4.77343 0,-0.54236 1.6416,-2.42749 3.6481,-4.18917 2.8641,-2.51472 3.3476,-3.3933 2.25,-4.08828 -0.769,-0.48687 -1.8106,-0.89212 -2.3148,-0.90054 -0.5041,-0.008 -0.6454,-0.28658 -0.3138,-0.61813 0.3315,-0.33156 0.1995,-1.66368 -0.2935,-2.96029 -0.7549,-1.9855 -0.4303,-2.68925 2.057,-4.46041 1.6243,-1.15662 3.4064,-1.82293 3.9602,-1.4807 0.5537,0.34224 1.0068,0.15427 1.0068,-0.41771 0,-0.57198 -1.0993,-1.31586 -2.4428,-1.65306 -3.7324,-0.936771 -3.6628,-4.312265 0.1793,-8.701275 2.7308,-3.119527 3.122,-4.119521 2.2494,-5.75 -0.5809,-1.085554 -1.7232,-1.973734 -2.5382,-1.973734 -1.0963,0 -1.408,-0.975771 -1.1977,-3.75 0.2237,-2.950672 0.7377,-3.815155 2.4112,-4.055669 2.9104,-0.418272 3.6009,-4.535895 1.1938,-7.119564 -1.0203,-1.095127 -1.855,-3.165281 -1.855,-4.600341 0,-2.115922 0.3622,-2.494244 1.9158,-2.001136 2.6561,0.843 3.8144,-1.466165 1.5618,-3.113353 -1.5071,-1.1019474 -1.6307,-1.7337864 -0.7044,-3.5982964 0.618,-1.243903 1.2646,-3.156473 1.4367,-4.250157 0.4923,-3.12749702 3.121,-2.83749502 5.0401,0.556033 1.9279,3.409259 2.3091,6.932483 0.75,6.932483 -1.7375,0 -1.0827,2.4672534 1,3.7679274 2.3568,1.471866 2.6086,4.482048 0.5199,6.215504 -1.654,1.372754 -1.673,6.016569 -0.024,6.016569 0.5826,0 2.2207,1.32369 3.6404,2.941533 2.6884,3.063763 2.2099,5.058467 -1.2134,5.058467 -0.9226,0 -2.2109,0.642674 -2.8628,1.428165 -1.568,1.889271 1.0196,7.097773 3.9003,7.851111 3.6987,0.967212 2.2844,9.231693 -1.4627,8.547523 -0.9843,-0.17974 -1.9876,0.23922 -2.2294,0.93101 -0.2664,0.76206 0.7613,1.49801 2.6074,1.86723 2.368,0.47361 3.3046,1.38971 4.2027,4.11101 0.7074,2.14344 0.7911,3.7464 0.2159,4.13277 -1.7,1.14187 -2.1989,3.96502 -0.8924,5.04939 0.7054,0.58544 1.5787,0.76834 1.9406,0.40645 1.0621,-1.06206 0.7539,3.62752 -0.3772,5.74108 -0.5693,1.06384 -1.6943,1.93426 -2.5,1.93426 -1.74,0 -1.972,4.18379 -0.3954,7.12966 0.7909,1.47787 0.7345,2.40169 -0.2167,3.5478 -1.8049,2.17472 -1.45,29.631647 0.4174,32.297747 0.7251,1.03524 4.6734,3.86248 8.7741,6.28276 l 7.4558,4.40051 0.5,15.09113 c 0.275,8.30012 0.725,15.29441 1,15.54287 1.3352,1.20631 15.149,7.89185 15.5264,7.5144 0.2382,-0.23813 0.4808,-6.13944 0.5392,-13.11401 0.058,-6.97457 0.5222,-12.93812 1.0306,-13.25234 0.8205,-0.50709 8.3012,3.56722 25.9038,14.10826 l 5.5,3.29359 -0.3523,14.83125 c -0.4007,16.86744 -0.9279,15.62939 8.9863,21.10235 l 5.6339,3.11016 0.1377,-10.19307 c 0.1544,-11.43393 1.0324,-19.91598 2.0166,-19.48175 1.7902,0.78982 25.0672,14.40623 28.3278,16.57099 l 3.75,2.48969 0,15.34716 0,15.34715 4.9668,2.51684 c 2.7317,1.38427 5.4317,2.51685 6,2.51685 0.6555,0 1.0332,-4.53971 1.0332,-12.41821 0,-16.15475 0.034,-16.23247 5.6006,-12.96999 l 4.3994,2.57824 0,-8.59502 c 0,-5.62377 -0.3832,-8.59502 -1.1084,-8.59502 -0.7257,0 -0.8475,-0.94961 -0.3529,-2.75 0.4155,-1.5125 0.8216,-4.50577 0.9024,-6.65171 0.1181,-3.13859 0.6272,-4.09407 2.6029,-4.88526 l 2.456,-0.98355 -2.4074,-0.63796 c -1.324,-0.35087 -2.7085,-1.49658 -3.0766,-2.54601 -0.8372,-2.38648 -0.078,-6.70183 1.0558,-6.00116 0.4636,0.28657 1.4879,-0.73117 2.276,-2.26165 1.2231,-2.37505 1.2294,-2.97159 0.043,-4.07213 -1.8232,-1.69075 -1.771,-4.64985 0.1096,-6.21057 1.791,-1.4864 1.9524,-5.3028 0.3338,-7.89454 -0.9555,-1.52991 -0.7599,-2.38399 1.0822,-4.72584 l 2.2485,-2.85845 -2.0823,-1.38256 c -2.1816,-1.44853 -2.721,-4.07429 -1.1687,-5.68861 1.2604,-1.31069 1.5518,-4.58485 0.6032,-6.77808 -0.5298,-1.22508 -0.1481,-2.68865 1.1572,-4.43695 2.5023,-3.35158 4.1556,-3.87157 4.9857,-1.56813 0.3633,1.00824 1.4985,2.64749 2.5227,3.64277 1.9264,1.87211 1.6464,3.69039 -0.5681,3.69039 -1.6676,0 -0.8927,5.52395 0.9946,7.09028 1.955,1.62255 1.732,3.56894 -0.6861,5.98704 -1.3572,1.35721 -1.8236,2.65715 -1.3453,3.75 0.6737,1.5391 0.7655,1.53293 1.1507,-0.0773 0.5831,-2.43788 1.9227,-2.18414 2.6397,0.5 0.3895,1.45837 0.036,2.67181 -1.0046,3.44889 -2.0652,1.54198 -1.0958,5.83869 1.6486,7.30743 2.4081,1.28877 2.7581,6.761 0.4882,7.63205 -0.825,0.31659 -1.5,1.66659 -1.5,3 0,1.33342 0.675,2.68342 1.5,3 1.7164,0.65864 2.0177,3.92364 0.4514,4.89164 -0.7066,0.4367 -0.6327,1.1491 0.2266,2.18443 1.7367,2.09264 1.7874,15.02719 0.073,18.58053 -0.9841,2.03953 -1.1938,5.38686 -0.7756,12.38452 0.3152,5.27425 0.8362,10.01535 1.1578,10.53577 0.3217,0.52041 0.5138,14.13318 0.427,30.2506 l -0.1578,29.30439 2.9392,1.02461 c 2.1123,0.73637 3.2865,0.69836 4.1739,-0.13513 0.9374,-0.8805 1.3405,-0.87229 1.6743,0.0341 0.2418,0.65661 1.0855,0.94596 1.875,0.64301 0.9558,-0.36676 1.4354,0.12537 1.4354,1.47285 0,1.11301 -0.5625,2.25063 -1.25,2.52804 -0.6875,0.27741 -0.3255,0.53991 0.8044,0.58333 1.7443,0.067 2.0387,0.69955 1.9511,4.19182 -0.093,3.70997 -0.4648,4.28879 -3.7953,5.90875 -2.0813,1.01234 -4.6777,1.54188 -5.9512,1.21371 -1.9839,-0.51127 -2.0974,-0.38509 -0.9322,1.03621 1.8283,2.23019 1.0995,5.98594 -1.2267,6.32146 -2.4421,0.35224 -3.5518,2.15326 -3.6397,5.907 -0.039,1.65 -0.2289,6.6 -0.4228,11 -0.3652,8.28407 -0.8216,97.96035 -0.6405,125.84362 0.098,15.06236 0.2035,15.86993 2.1429,16.3771 1.1221,0.29342 2.7529,1.91193 3.6241,3.59669 1.521,2.94112 1.4895,3.13979 -0.79,4.98484 -2.9545,2.3914 -2.7364,-5.08286 -3.4577,118.48609 l -0.5563,95.28835 3.07,3.49645 c 1.6884,1.92305 3.0867,3.81829 3.1072,4.21166 0.021,0.39336 0.2225,9.81477 0.4488,20.93646 0.381,18.72318 0.5697,20.43518 2.5463,23.10872 1.1877,1.60639 2.2129,4.61389 2.3108,6.77874 0.097,2.1402 1.4438,6.59128 2.9932,9.89128 1.5494,3.3 3.4512,7.35 4.226,9 0.7749,1.65 1.3247,3.94437 1.2219,5.0986 -0.1861,2.08775 4.7821,10.88541 8.5397,15.12208 1.7172,1.93616 1.7906,2.44867 0.5728,4 -0.7683,0.97863 -1.7029,2.01149 -2.0771,2.29524 -0.759,0.57565 -1.3754,16.7617 -0.6653,17.47177 0.2481,0.24815 0.2624,2.06793 0.032,4.04396 -0.2973,2.54646 -0.8223,3.43819 -1.8028,3.06195 -0.7608,-0.29196 -1.3833,-0.095 -1.3833,0.43778 0,0.86037 2.1702,1.41544 4.25,1.08704 0.4125,-0.0651 0.75,0.33158 0.75,0.88158 0,0.55 -0.6313,1 -1.4028,1 -1.1441,0 -1.3203,1.96763 -0.9551,10.66825 0.2463,5.86754 0.6913,11.06225 0.989,11.54381 0.2976,0.48155 0.074,1.43783 -0.4959,2.12506 -1.1502,1.38585 1.9311,10.91348 6.3491,19.63196 1.38362,2.73044 2.51572,6.07867 2.51572,7.44052 0,2.43528 2.9476,8.44091 5.7931,11.80315 0.7972,0.94202 1.1844,2.40362 0.8603,3.24802 -0.3668,0.95587 0.3194,2.13056 1.8184,3.11271 1.3241,0.8676 2.1892,2.1464 1.9223,2.84178 -0.2668,0.69537 0.2205,1.84992 1.0829,2.56567 1.4184,1.17714 1.3989,1.55037 -0.2045,3.91021 -1.4548,2.14127 -1.8141,5.11811 -2.0047,16.60886 -0.1277,7.7 -0.3043,14.9 -0.3925,16 -0.088,1.1 0.094,4.58263 0.4043,7.73917 0.3104,3.15655 0.1533,5.99328 -0.3492,6.30384 -0.5025,0.31057 -0.9196,4.92794 -0.9268,10.26083 -0.01,5.33289 -0.045,11.04615 -0.083,12.69615 -0.2096,8.9832 0.2216,13.5303 1.224,12.9107 0.7251,-0.4481 0.8074,0.1044 0.2554,1.7141 -0.4479,1.3063 -0.7343,7.9288 -0.6364,14.7166 0.1772,12.29 0.1906,12.3543 3.2073,15.4398 3.1376,3.20922 3.7885,6.43182 1.9812,9.80872 -0.9179,1.7152 -1.3087,25.3104 -0.5947,35.9101 0.252,3.7413 3.6096,12 4.8787,12 1.1276,0 0.9295,3.7798 -0.2359,4.5 -0.55,0.3399 -1,2.3649 -1,4.5 0,2.1351 0.45,4.1601 1,4.5 0.55,0.3399 1,2.4215 1,4.6257 0,4.8925 -3.8201,10.3979 -7.7862,11.2213 -1.4926,0.3099 -4.7388,0.9507 -7.2138,1.4239 -2.475,0.4733 -5.4422,1.3716 -6.59382,1.9964 -1.181,0.6407 -6.8477,1.156 -13,1.1821 -5.9984,0.025 -12.0312,0.1597 -13.4062,0.2984 -1.9061,0.1923 -2.5739,-0.2666 -2.8109,-1.9317 -0.3231,-2.2699 -5.0793,-4.12 -7.2085,-2.8041 -0.5875,0.3631 -1.6784,0.1537 -2.4243,-0.4653 -2.0066,-1.6653 -13.5589,-1.8882 -13.5575,-0.2615 9e-4,0.9753 -0.481,1.0271 -1.9988,0.2148 -1.4646,-0.7838 -2,-0.7605 -2,0.087 0,0.838 -0.4141,0.8139 -1.5,-0.087 -1.0364,-0.8601 -1.5,-0.898 -1.5,-0.1224 0,1.4001 -3.6572,1.4862 -4.5101,0.1061 -0.3454,-0.559 -1.0667,-0.7452 -1.6028,-0.4139 -0.5361,0.3313 -1.5899,0.092 -2.3419,-0.5323 -1.6468,-1.3667 -2.8242,0.072 -1.9415,2.3723 0.7416,1.9325 -0.4774,2.0016 -2.9002,0.1642 -0.988,-0.7494 -2.6322,-1.1439 -3.6536,-0.8768 -1.2291,0.3214 -2.0649,-0.169 -2.4716,-1.4504 -0.4366,-1.3758 -2.273,-2.3189 -6.3464,-3.2593 -3.1525,-0.7277 -6.3018,-1.7589 -6.9983,-2.2914 -1.1195,-0.8559 -5.0787,-1.4721 -13.2336,-2.0595 -1.375,-0.099 -2.95,0.1196 -3.5,0.486 -0.55,0.3663 -5.4833,1.8534 -10.9628,3.3046 -5.4796,1.4513 -11.3296,3.3316 -13,4.1785 -1.6705,0.8469 -5.2872,1.9236 -8.0372,2.3925 -6.7216,1.1461 -12.5,3.6957 -12.5,5.5152 0,1.8015 -2.631,1.988 -3.3377,0.2366 -0.3262,-0.8082 -0.5323,-0.6848 -0.5834,0.3493 -0.065,1.3209 -1.2538,1.5645 -6.8289,1.3992 -9.2065,-0.273 -9.25,-0.283 -9.25,-2.1293 0,-1.3037 -0.6984,-1.5175 -3.4817,-1.0659 -1.9149,0.3108 -3.755,0.1228 -4.089,-0.4177 -0.3724,-0.6025 -1.0565,-0.628 -1.7683,-0.066 -0.6386,0.5043 -2.6235,0.946 -4.411,0.9817 -2.3932,0.048 -3.2584,-0.379 -3.2818,-1.6184 -0.028,-1.4911 -0.1939,-1.4691 -1.452,0.1923 -0.8197,1.0826 -2.0746,1.6243 -2.9682,1.2814 -0.8514,-0.3267 -1.548,-0.1632 -1.548,0.3634 0,0.5266 -1.0125,0.9805 -2.25,1.0087 -1.2375,0.028 -3.4875,0.081 -5,0.117 -1.5125,0.036 -2.75,0.3962 -2.75,0.8002 0,1.4333 -10.7338,2.998 -28,4.0817 -9.625,0.6041 -20.425,1.5731 -24,2.1534 -12.0846,1.9613 -65.7972,4.4763 -70,3.2775 z m 254,-19.8517 c 0,-0.2162 -0.6984,-0.661 -1.5519,-0.9886 -0.89,-0.3415 -1.2914,-0.1738 -0.941,0.3931 0.5872,0.9502 2.4929,1.4054 2.4929,0.5955 z"
     id="path2987"
     inkscape:connector-curvature="0" />
</svg>
