<?xml version="1.0" encoding="UTF-8" standalone="no"?>
<!-- Created with Inkscape (http://www.inkscape.org/) -->

<svg
   xmlns:dc="http://purl.org/dc/elements/1.1/"
   xmlns:cc="http://creativecommons.org/ns#"
   xmlns:rdf="http://www.w3.org/1999/02/22-rdf-syntax-ns#"
   xmlns:svg="http://www.w3.org/2000/svg"
   xmlns="http://www.w3.org/2000/svg"
   xmlns:sodipodi="http://sodipodi.sourceforge.net/DTD/sodipodi-0.dtd"
   xmlns:inkscape="http://www.inkscape.org/namespaces/inkscape"
   id="svg2"
   version="1.1"
   inkscape:version="0.48.2 r9819"
   width="1447.6998"
   height="896"
   sodipodi:docname="bookofimages00hortrich_0053E.png">
  <metadata
     id="metadata8">
    <rdf:RDF>
      <cc:Work
         rdf:about="">
        <dc:format>image/svg+xml</dc:format>
        <dc:type
           rdf:resource="http://purl.org/dc/dcmitype/StillImage" />
        <dc:title></dc:title>
      </cc:Work>
    </rdf:RDF>
  </metadata>
  <defs
     id="defs6" />
  <sodipodi:namedview
     pagecolor="#ffffff"
     bordercolor="#666666"
     borderopacity="1"
     objecttolerance="10"
     gridtolerance="10"
     guidetolerance="10"
     inkscape:pageopacity="0"
     inkscape:pageshadow="2"
     inkscape:window-width="1920"
     inkscape:window-height="1176"
     id="namedview4"
     showgrid="false"
     fit-margin-top="0"
     fit-margin-left="0"
     fit-margin-right="0"
     fit-margin-bottom="0"
     inkscape:zoom="1"
     inkscape:cx="294.88589"
     inkscape:cy="435"
     inkscape:window-x="0"
     inkscape:window-y="24"
     inkscape:window-maximized="1"
     inkscape:current-layer="svg2" />
  <path
     style="fill:#000000"
     d="m 0.52834562,889.85331 c -0.98405,-9.41485 -0.946,-9.55474 3.23883998,-11.90675 3.64644,-2.04942 4.13573,-2.91555 8.0862404,-14.31399 2.31272,-6.67291 4.39652,-13.93257 4.63065,-16.13257 0.46322,-4.35249 2.99616,-10.5 4.32628,-10.5 1.9379,0 3.39407,3.55404 5.6177,13.71101 7.50104,34.26283 9.67034,36.86821 17.59706,21.13448 2.08811,-4.14468 4.60876,-10.64296 5.60145,-14.44063 1.47248,-5.63318 2.20444,-6.96232 3.97437,-7.21685 1.59201,-0.22894 2.6475,0.5696 3.96534,3 1.80337,3.32587 4.49116,10.2961 6.4807,16.8064 0.58734,1.92193 1.69137,4.38456 2.4534,5.47251 1.39292,1.98866 1.75877,-3.38838 1.86885,-27.46692 0.0269,-5.88546 0.85582,-7.72669 10.57958,-23.5 2.71246,-4.4 5.66576,-10.25 6.56289,-13 0.89713,-2.75 2.15361,-5.675 2.79218,-6.5 1.70698,-2.20532 4.58201,-8.83581 4.58201,-10.56717 0,-0.82462 1.125,-3.7194 2.5,-6.43283 1.375,-2.71343 2.5,-5.69959 2.5,-6.6359 0,-0.93631 1.35,-4.09446 3.000004,-7.01809 1.65,-2.92364 3,-6.03377 3,-6.91139 0,-0.87763 1.60054,-4.007 3.55675,-6.95416 3.02281,-4.55405 3.45616,-5.89471 2.88666,-8.93043 -0.42902,-2.28684 -0.22549,-4.10768 0.56569,-5.06099 1.55502,-1.87368 5.38077,-1.92913 6.89883,-0.1 0.94401,1.13747 6.89309,1.36387 32.84581,1.25 L 182.33262,747.5 186.28736,737 c 3.22266,-8.55629 4.06061,-12.25674 4.52664,-19.99 0.49012,-8.13317 0.83289,-9.53974 2.3974,-9.83787 2.35643,-0.44903 4.60218,2.54477 4.64269,6.18916 0.0303,2.72245 0.20095,2.82956 3.51779,2.20732 2.04493,-0.38364 4.39564,-0.16715 5.68649,0.5237 1.92683,1.03121 2.49331,0.81887 4.55478,-1.70732 1.29484,-1.58674 2.61717,-4.12249 2.9385,-5.63499 0.38549,-1.81449 1.22209,-2.75 2.45924,-2.75 1.59611,0 1.90044,0.85526 2.04604,5.75 0.0941,3.1625 0.20658,6.65 0.25,7.75 0.0434,1.1 0.81225,3.575 1.70849,5.5 0.89625,1.925 2.8702,6.3125 4.38657,9.75 1.51636,3.4375 3.10982,6.25 3.54101,6.25 0.43119,0 1.07223,-1.31241 1.42454,-2.91646 0.71036,-3.23426 2.85486,-4.6087 4.32833,-2.7741 3.20717,3.99323 13.1964,27.56256 17.13225,40.42314 1.2174,3.97791 3.50729,9.59854 5.08865,12.49029 l 2.8752,5.25771 0.29696,-36.99029 C 260.25226,736.14563 260.14903,714.1 259.8596,707.5 c -0.54094,-12.33414 0.10641,-15.66175 3.61298,-18.57194 2.56279,-2.12693 4.25583,-6.30105 3.71123,-9.14992 -0.44108,-2.30739 -0.11068,-2.78151 2.34432,-3.36399 2.41315,-0.57256 6.00308,-3.67868 9.14684,-7.91415 2.42749,-3.27047 7.21092,-11.32482 7.21092,-12.14177 0,-0.53167 1.32717,-3.0594 2.94927,-5.61718 1.62209,-2.55778 3.46395,-6.58338 4.09302,-8.94578 0.62907,-2.3624 1.70716,-4.97027 2.39574,-5.79527 1.9033,-2.28035 5.24975,-14.3304 7.08167,-25.5 3.10772,-18.94848 3.51144,-23.0568 3.98679,-40.56966 0.26228,-9.66331 0.98518,-20.01331 1.60644,-23 0.62126,-2.98669 1.26901,-8.08874 1.43945,-11.33789 0.17044,-3.24915 0.59539,-7.04506 0.94433,-8.43535 0.34894,-1.3903 0.99023,-6.7447 1.42509,-11.89869 0.73262,-8.68297 2.06799,-12.60196 3.72829,-10.94165 0.37588,0.37588 1.04191,5.97088 1.48007,12.43333 1.71783,25.33665 2.99426,39.1241 4.42067,47.74991 0.81856,4.95 1.94168,11.7 2.49584,15 0.55415,3.3 1.19606,8.475 1.42646,11.5 0.54892,7.207 1.73421,13.04784 5.47913,27 4.07802,15.19314 5.35291,21.02816 4.73045,21.65062 -0.57137,0.57137 4.41555,14.86518 6.88271,19.72762 0.87117,1.71697 2.38692,5.20614 3.36834,7.75372 1.96745,5.10715 6.71803,11.86804 8.33915,11.86804 0.69331,0 0.82947,-4.37882 0.41202,-13.25 -1.25089,-26.58198 -2.88545,-55.63919 -4.05425,-72.0718 -0.83118,-11.68573 -0.87683,-17.02887 -0.14951,-17.5 0.57584,-0.37301 2.27724,-3.1532 3.7809,-6.1782 3.67579,-7.39485 8.20574,-15.6415 9.45675,-17.21577 0.56129,-0.70632 1.5548,-2.94361 2.20779,-4.97175 0.65299,-2.02813 1.98129,-4.72813 2.95178,-6 2.1601,-2.83089 5.3755,-13.49162 8.69019,-28.81248 0.89245,-4.125 2.06253,-8.85 2.60018,-10.5 0.95583,-2.93334 2.02931,-14.31494 3.91418,-41.5 0.51481,-7.425 1.19767,-16.33133 1.51747,-19.79185 0.3198,-3.46051 0.26261,-7.06051 -0.12709,-8 -1.5173,-3.65791 1.09108,-28.82045 3.41871,-32.9797 1.69437,-3.02768 2.87437,1.62749 3.36409,13.27155 0.44428,10.56353 3.77273,35.36117 6.91257,51.5 0.58852,3.025 1.44384,8.875 1.90072,13 0.45687,4.125 1.79688,11.1 2.97781,15.5 1.18092,4.4 2.58008,10.475 3.10924,13.5 0.52916,3.025 1.61043,7.78955 2.40283,10.58789 0.79239,2.79834 1.44884,5.94834 1.45878,7 0.01,1.05166 1.84008,9.11211 4.06698,17.91211 2.22689,8.8 4.42978,17.575 4.8953,19.5 0.55722,2.30421 0.83318,-2.60315 0.80772,-14.36354 -0.0289,-13.33231 0.28127,-18.06128 1.22267,-18.6431 1.38336,-0.85496 1.60232,-17.3883 0.38037,-28.72194 -0.45256,-4.1975 -0.29056,-6.68765 0.49679,-7.63635 0.72512,-0.87372 1.07474,-4.3909 0.92159,-9.27142 -0.13571,-4.32501 0.5061,-13.03865 1.42625,-19.36365 0.92014,-6.325 1.98141,-15.44981 2.35836,-20.27735 0.99881,-12.79139 3.78041,-13.2235 4.85782,-0.75464 0.55352,6.40584 1.27541,10.98891 4.10032,26.03199 1.72546,9.18834 1.82783,14.70664 0.28237,15.2218 -0.87773,0.29257 -0.90606,2.96658 -0.11476,10.83333 0.57784,5.74468 0.74938,12.46987 0.38121,14.94487 -0.36818,2.475 -0.28664,8.1 0.18118,12.5 0.46783,4.4 1.07502,12.90562 1.34932,18.90138 0.47,10.27349 0.58201,10.74085 1.94475,8.11416 2.73108,-5.26415 7.15137,-20.02053 7.79298,-26.01554 0.35318,-3.3 1.08648,-8.025 1.62955,-10.5 3.08895,-14.0777 3.99541,-19.20029 3.53061,-19.95235 -0.28589,-0.46257 0.10652,-4.60003 0.87201,-9.19435 0.76548,-4.59431 1.65475,-15.1033 1.97614,-23.3533 0.32139,-8.25 1.04792,-19.275 1.61451,-24.5 0.56658,-5.225 1.28596,-12.5375 1.59861,-16.25 0.55701,-6.61399 0.62565,-6.75 3.40617,-6.75 2.47377,0 3.06145,0.60916 4.58246,4.75 4.27789,11.64629 3.71984,10.97234 10.08234,12.17644 3.21107,0.6077 8.22866,1.72043 11.15019,2.47274 4.53708,1.16832 5.9957,1.15962 10,-0.0596 2.9792,-0.90713 6.4196,-1.19498 9.43812,-0.78967 3.10014,0.41628 4.75,0.2668 4.75,-0.43034 0,-0.58749 1.2375,-1.71834 2.75,-2.51301 1.5125,-0.79467 4.775,-4.17173 7.25,-7.50457 2.475,-3.33283 4.8375,-6.06921 5.25,-6.08082 0.4125,-0.0117 0.75,-0.92117 0.75,-2.02117 0,-1.56778 0.66667,-2 3.08485,-2 l 3.08485,0 -0.29179,8.44259 c -0.22704,6.56881 0.0584,8.84373 1.28628,10.25 1.8173,2.08139 5.83581,13.33545 5.83581,16.34351 0,3.16308 2.83976,9.18097 3.99536,8.46677 0.57049,-0.35259 0.78185,-1.05433 0.46968,-1.55944 -1.14501,-1.85267 -0.82119,-31.40944 0.36847,-33.63235 0.64157,-1.19878 1.16649,-3.68405 1.16649,-5.52283 0,-1.83878 0.67134,-4.3017 1.49186,-5.47316 1.26224,-1.8021 2.39694,-7.10042 4.99324,-23.31509 0.4406,-2.75106 3.9076,-30.58605 5.4805,-44 0.5482,-4.675 1.4977,-14.35 2.1101,-21.5 1.1109,-12.97195 2.0871,-17.5 3.7729,-17.5 1.3963,0 2.9807,7.6536 3.6226,17.5 0.3227,4.95 0.776,11.25 1.0073,14 0.2313,2.75 0.9219,12.66299 1.5348,22.02887 0.6128,9.36587 1.2502,18.14087 1.4163,19.5 1.4049,11.49153 2.095,14.9878 3.6459,18.46872 0.9808,2.20133 1.815,3.43991 1.8539,2.75241 0.087,-1.53383 3.6976,-1.6626 4.6232,-0.16488 0.3689,0.59682 1.2555,3.63432 1.9702,6.75 1.5102,6.58268 4.5258,15.17123 7.0771,20.1555 l 1.7866,3.49061 2.5568,-5.49061 c 1.4062,-3.01984 4.0552,-7.03924 5.8867,-8.93201 2.4867,-2.56989 3.2086,-4.07651 2.8505,-5.94938 -0.2636,-1.3794 0.01,-3.65578 0.6019,-5.05862 0.5947,-1.40283 1.2491,-3.22561 1.4541,-4.05061 1.0545,-4.24292 2.0634,-24.93508 2.1575,-44.25 0.088,-18.00123 0.3491,-21.75 1.5162,-21.75 1.0604,0 1.5594,2.17066 2.0115,8.75 0.3307,4.8125 1.0303,13.925 1.5548,20.25 0.5245,6.325 1.229,17.575 1.5656,25 0.6031,13.30545 1.7713,20 3.4901,20 0.4825,0 1.1619,-1.6875 1.5098,-3.75 1.02,-6.04591 1.5126,-7.25 2.9664,-7.25 1.9937,0 2.1468,0.46389 4.0916,12.39999 1.2092,7.42122 2.4884,11.9248 4.0342,14.20266 1.245,1.83454 2.5779,5.01118 2.9621,7.05919 0.3843,2.04802 1.5767,5.21192 2.6499,7.03091 1.0733,1.81899 1.5959,3.30725 1.1615,3.30725 -0.9878,0 2.8106,2.92465 3.8549,2.9682 0.4195,0.0175 1.9101,-2.5557 3.3125,-5.7182 2.6971,-6.08211 2.6949,-6.02663 1.1583,-28.75 -0.2603,-3.85 -0.088,-16.225 0.3833,-27.5 0.4711,-11.275 1.0471,-26.8 1.28,-34.5 0.2329,-7.7 0.8583,-15.37815 1.3898,-17.06255 0.5315,-1.68439 0.9994,-8.90632 1.0397,-16.04871 0.04,-7.1424 0.5349,-14.98925 1.0991,-17.43746 0.5642,-2.4482 1.0368,-5.99433 1.0503,-7.88028 0.014,-1.88595 0.4542,-4.81095 0.9796,-6.5 0.5253,-1.68905 1.6629,-5.546 2.5279,-8.571 0.865,-3.025 2.519,-7.75 3.6755,-10.5 1.1566,-2.75 2.5414,-6.125 3.0774,-7.5 0.536,-1.375 1.5713,-3.85 2.3006,-5.5 0.7294,-1.65 1.6094,-4.125 1.9556,-5.5 0.3463,-1.375 1.9767,-7 3.6231,-12.5 1.6465,-5.5 3.4659,-11.8 4.0433,-14 1.8082,-6.89046 2.7161,-8.5 4.7943,-8.5 2.025,0 5.0471,4.45866 5.0471,7.44636 0,0.85012 0.9143,4.1877 2.0318,7.41685 1.1176,3.22914 2.2333,6.71843 2.4795,7.75398 0.8858,3.72563 4.6658,13.90095 5.4759,14.74017 1.6322,1.69099 3.0527,-3.4474 3.4755,-12.57192 0.2366,-5.10699 1.3167,-15.23087 2.4001,-22.49752 1.0834,-7.26664 1.7199,-14.16784 1.4144,-15.336 -0.3055,-1.16816 -0.044,-7.37273 0.5811,-13.78793 0.6251,-6.41519 1.3853,-19.31399 1.6893,-28.66399 0.9176,-28.21878 1.9466,-45.32751 2.776,-46.15688 1.7224,-1.7225 2.6468,2.66434 2.6669,12.65688 0.012,5.775 0.4565,13.15891 0.9887,16.40868 0.5322,3.24977 1.229,25.07477 1.5485,48.5 0.3195,23.42523 1.0356,44.61632 1.5912,47.09132 1.675,7.46048 3.0924,17.21459 3.2333,22.25 0.073,2.6125 0.4111,4.75 0.7511,4.75 0.34,0 0.8938,2.32804 1.2308,5.17342 0.337,2.84539 0.9973,5.55801 1.4674,6.02805 0.8649,0.86493 2.9065,-4.71234 5.7476,-15.70147 0.8532,-3.3 2.2241,-8.475 3.0464,-11.5 1.4274,-5.25054 1.9537,-7.83419 4.3795,-21.5 0.5858,-3.3 1.5312,-7.16648 2.101,-8.59218 1.253,-3.13553 3.4963,-14.86017 5.4351,-28.40782 0.7872,-5.5 2.1438,-12.925 3.0148,-16.5 3.7514,-15.39823 3.9825,-16.52154 7.5112,-36.5 2.6055,-14.75183 3.5732,-21.91597 5.4707,-40.5 0.8143,-7.975 2.1366,-19 2.9384,-24.5 0.8019,-5.5 1.957,-13.6 2.5669,-18 0.61,-4.4 1.5885,-9.529231 2.1745,-11.398292 0.586,-1.869061 1.426,-5.919061 1.8668,-9 1.434,-10.022432 3.9643,-22.268043 5.0018,-24.2068 C 773.49989,0.852709 774.78469,0 775.79719,0 c 2.123,0 2.7372,3.848678 3.6707,23 0.3083,6.325 1.4834,17.35 2.6113,24.5 1.1279,7.15 2.4318,16.15 2.8975,20 2.1039,17.390307 2.9176,23.65725 4.285,33 3.5311,24.12622 5.4214,40.87098 6.0961,54 0.2261,4.4 1.0627,9.575 1.8591,11.5 1.3622,3.29243 2.2152,8.83094 3.157,20.5 0.222,2.75 0.8783,7.475 1.4586,10.5 0.5802,3.025 1.4987,8.425 2.0411,12 0.5424,3.575 1.4304,8.3 1.9733,10.5 0.5428,2.2 1.1651,6.28257 1.3828,9.07239 0.2176,2.78981 0.8226,5.93981 1.3444,7 0.5218,1.06018 1.0612,3.72761 1.1986,5.92761 0.1375,2.2 1.085,5.8 2.1056,8 1.0207,2.2 2.5084,5.60705 3.306,7.57123 0.7976,1.96418 3.4192,6.58732 5.8257,10.27365 3.4423,5.2728 4.5151,6.3241 5.0298,4.92877 2.0002,-5.42303 4.8461,-15.58741 4.8461,-17.30822 0,-1.09591 0.4151,-2.77396 0.9224,-3.729 0.5073,-0.95504 2.058,-8.03643 3.446,-15.73643 3.387,-18.78993 3.575,-20.16388 4.6518,-34 0.5137,-6.6 1.485,-17.625 2.1585,-24.5 0.6735,-6.875 1.3245,-24.875 1.4466,-40 0.434,-53.767921 1.1,-71.153857 2.7902,-72.844079 0.8453,-0.84528 1.7734,-1.300372 2.0624,-1.011315 0.9182,0.918158 1.5355,10.722711 2.1002,33.355394 0.3019,12.1 0.7361,26.5 0.9651,32 0.2289,5.5 0.3739,14.5 0.3223,20 -0.052,5.5 -0.1037,11.125 -0.1157,12.5 -0.1569,17.95295 2.6597,50.33097 4.9584,57 0.8531,2.475 2.3422,6.19931 3.309,8.27625 l 1.7579,3.77626 0.6282,-3.77626 c 0.3456,-2.07694 0.8241,-5.19907 1.0634,-6.93808 0.765,-5.56009 3.6665,-13.17529 5.2517,-13.78359 2.2757,-0.87327 3.9553,1.01365 4.6415,5.2143 0.5519,3.37854 3.6064,13.28988 8.2379,26.73112 2.8553,8.28634 3.4337,9.74833 10.9964,27.79461 4.2305,10.09494 4.6964,12.45681 3.5041,17.76329 -0.6249,2.78134 -0.6368,4.60927 -0.033,4.98277 0.525,0.32445 0.9412,4.61053 0.9249,9.52462 -0.036,10.82037 -0.4666,15.03163 -1.9231,18.80241 -1.7503,4.53172 -1.4261,47.54075 0.4613,61.18857 1.7528,12.67467 1.5728,37.98709 -0.5324,74.89679 -1.5604,27.35836 -0.9811,59.71595 1.1561,64.56355 0.8527,1.93414 1.9112,5.75914 2.3522,8.5 0.7945,4.93687 0.8088,4.95267 1.5307,1.69243 0.4008,-1.81002 1.4704,-4.11052 2.3769,-5.1122 0.9065,-1.00169 2.1003,-3.34576 2.6529,-5.20905 1.273,-4.29275 3.8605,-18.74479 3.8292,-21.38779 -0.013,-1.1 0.6747,-5.04323 1.5282,-8.76273 1.7122,-7.46149 2.1944,-12.85039 3.6226,-40.49171 0.5328,-10.31006 1.4075,-23.47056 1.9439,-29.24556 0.5364,-5.775 1.2348,-26.475 1.5519,-46 0.6466,-39.80561 1.0924,-45.31144 3.7089,-45.81192 1.6108,-0.3081 1.7579,1.08325 1.8497,17.4886 0.1693,30.272 1.5341,87.73636 2.454,103.32332 0.3083,5.225 0.7131,17.6 0.8994,27.5 0.4103,21.80094 1.6315,32.13109 4.434,37.50786 1.1621,2.22955 2.1129,4.67737 2.1129,5.4396 0,0.76223 0.5625,1.57434 1.25,1.80469 0.809,0.27107 1.327,2.85826 1.4682,7.33334 0.1199,3.80298 0.588,10.28951 1.0401,14.41451 0.7775,7.09459 0.8665,7.2967 1.6452,3.73895 0.4528,-2.06857 1.2222,-4.00763 1.7099,-4.30901 0.4876,-0.30139 0.8866,-2.23935 0.8866,-4.30659 0,-2.06723 0.899,-7.10317 1.9977,-11.19098 1.7647,-6.56566 2.7981,-10.80197 7.0008,-28.69672 0.5508,-2.34539 1.0015,-5.89351 1.0015,-7.8847 0,-3.5961 0.8364,-9.51373 3.5126,-24.85095 0.7677,-4.4 1.8879,-14.525 2.4893,-22.5 0.6014,-7.975 1.522,-17.51168 2.0458,-21.19263 0.5238,-3.68094 0.9523,-9.15664 0.9523,-12.16821 0,-3.01157 0.2732,-6.18739 0.607,-7.05737 0.9311,-2.42635 3.1015,-1.87959 3.8144,0.9609 0.6726,2.67984 2.2687,17.1678 3.1901,28.95731 0.3009,3.85 0.9872,8.575 1.5251,10.5 0.5379,1.925 1.4027,12.95 1.9219,24.5 0.9374,20.85542 1.2359,23.78765 4.3777,43 1.8284,11.18077 5.2995,23.33436 7.2206,25.28215 0.6956,0.70518 1.5722,2.95518 1.948,5 0.3759,2.04482 1.9685,5.59893 3.5393,7.89803 1.5707,2.29909 2.8559,4.71026 2.8559,5.35815 0,1.34818 8.3728,14.0947 11.96271,18.21167 1.3818,1.58458 3.4255,2.75 4.8227,2.75 2.2176,0 2.3927,0.33491 2.0507,3.92122 -0.3481,3.65088 -0.172,3.9616 2.5547,4.50694 1.6108,0.32215 3.1452,0.36918 3.4099,0.1045 0.2647,-0.26468 0.4669,-7.1303 0.4495,-15.25695 -0.018,-8.61587 0.3939,-15.30081 0.9894,-16.03528 0.5616,-0.69276 0.7734,-3.10678 0.4706,-5.36449 -0.4685,-3.49288 -0.2583,-4.18135 1.4096,-4.61753 2.32,-0.60667 4.8802,-5.14132 4.8802,-8.64365 0,-3.59482 1.7359,-7.61476 3.2882,-7.61476 2.0431,0 6.7118,5.34394 6.7118,7.68259 0,2.68467 2.7706,9.31741 3.8921,9.31741 0.4759,0 0.74,11.63393 0.5868,25.85318 -0.1531,14.21925 0.068,26.41353 0.4912,27.09839 0.4232,0.68487 1.6156,1.07608 2.6497,0.86936 1.3722,-0.2743 1.8461,-1.17901 1.7541,-3.34839 -0.069,-1.6349 -0.2627,-13.32254 -0.4296,-25.97254 -0.3258,-24.6945 -0.07,-26.21049 4.7989,-28.42884 1.293,-0.58914 4.3547,-1.07116 6.8039,-1.07116 4.2694,0 4.4529,-0.1222 4.4529,-2.9652 0,-1.88454 1.1203,-4.2411 3.0738,-6.4661 2.8544,-3.25094 5.9468,-9.90755 7.9296,-17.0687 0.4569,-1.65 1.3658,-4.575 2.0198,-6.5 1.7961,-5.28599 5.2996,-52.91598 5.1025,-69.36659 -0.059,-4.87662 0.3704,-16.12662 0.953,-25 0.5826,-8.87337 1.4897,-26.93341 2.0159,-40.13341 1.0657,-26.73792 2.0642,-39.99702 3.0889,-41.01878 2.2236,-2.21719 2.5299,-0.25275 5.4603,35.01878 0.3655,4.4 0.7077,28.475 0.7604,53.5 0.091,43.37206 1.0037,82.96262 2.235,96.97981 0.568,6.46568 0.5842,6.49428 7.465,13.12054 3.7927,3.6524 6.8958,7.28913 6.8958,8.08162 0,0.9819 2.5226,2.01346 7.9193,3.23835 6.7888,1.5409 9.0954,1.63919 16.159,0.68858 10.3748,-1.39624 9.67,-1.44779 10.8703,0.79508 0.7002,1.30827 0.665,3.73308 -0.1126,7.75 -0.6223,3.21531 -1.1964,12.14602 -1.2756,19.84602 -0.079,7.7 -0.4907,15.35 -0.9144,17 -1.0377,4.04199 1.3681,7.53837 4.0454,5.87928 1.6585,-1.02768 1.7792,-2.6125 1.4544,-19.08937 C 1143.569,545.84746 1145.2066,537 1150.0078,537 c 1.3402,0 1.9266,-0.78718 2.0487,-2.75 0.094,-1.5125 0.2183,-3.56119 0.2761,-4.55263 0.058,-0.99145 0.6277,-2.12561 1.2664,-2.52036 0.6387,-0.39474 1.6407,-1.9788 2.2268,-3.52013 0.7032,-1.84964 1.6594,-2.69267 2.8125,-2.47964 2.1939,0.4053 7.1112,10.27843 7.1889,14.43409 0.051,2.72635 0.3526,3.05504 2.4379,2.65642 2.1168,-0.40465 2.4304,-0.0303 2.8394,3.38868 0.2528,2.11396 0.1013,7.44357 -0.3368,11.84357 -0.4381,4.4 -0.9905,13.68052 -1.2277,20.62337 -0.4251,12.44698 -0.481,12.70126 -3.9961,18.19631 -1.9607,3.0651 -4.752,6.35073 -6.2029,7.30138 -1.4509,0.95066 -3.0774,2.88422 -3.6145,4.29681 -1.3701,3.6036 -2.5719,62.07842 -1.7898,87.08213 0.1462,4.675 -0.2637,10.975 -0.911,14 -1.4205,6.63866 -1.9405,27.94896 -0.729,29.87842 1.5785,2.51401 2.5679,-1.19801 3.0707,-11.52053 0.3779,-7.75746 0.8997,-10.38292 2.4918,-12.53633 1.6619,-2.24787 1.8291,-3.20965 0.9569,-5.50378 -1.4113,-3.71203 -0.2736,-20.36523 1.515,-22.17566 1.5116,-1.5301 29.1632,-5.05648 42.0543,-5.36315 11.7044,-0.27843 12.0972,0.088 12.3471,11.5158 0.233,10.66118 -0.2457,11.54662 -6.7118,12.41391 -3.4135,0.45785 -3.9995,0.91276 -4.3626,3.38673 -0.2307,1.57181 0.049,3.32651 0.622,3.89932 0.5729,0.57282 1.1166,2.49584 1.2084,4.27338 0.092,1.77754 0.4924,7.95689 0.8904,13.73189 0.398,5.775 0.8316,13.52178 0.9636,17.21506 0.2313,6.47018 1.7873,10.36994 3.6728,9.20463 0.5011,-0.30968 0.6679,-5.3145 0.3746,-11.23899 -0.7721,-15.59752 -2.3374,-14.63984 24.2885,-14.86102 11.9388,-0.0992 21.9725,-0.21168 22.2969,-0.25 1.3213,-0.15606 8.0827,-28.45624 7.2914,-30.51841 -0.31,-0.80783 -0.01,-3.15036 0.6696,-5.20562 0.6783,-2.05526 1.3136,-7.13632 1.4117,-11.29124 0.098,-4.15493 0.7144,-14.30441 1.3694,-22.55441 0.655,-8.25 1.3962,-18.02922 1.647,-21.73159 0.7361,-10.86563 2.5629,-19.76841 4.0563,-19.76841 2.789,0 4.4969,12.23734 4.3285,31.01467 -0.1521,16.96193 1.5527,43.00855 2.9946,45.75153 0.5012,0.95359 1.2255,4.2088 1.6095,7.2338 0.9263,7.2969 2.5504,12.77029 4.1939,14.13432 0.736,0.61081 1.3382,1.92891 1.3382,2.92911 0,2.54847 1.9163,3.44887 3.6501,1.71507 3.0536,-3.05361 9.0095,-35.23051 7.7172,-41.69219 -0.4583,-2.29143 0.993,-13.97218 4.2121,-33.90052 0.3145,-1.94727 1.0272,-3.15416 1.728,-2.92616 2.6265,0.85462 3.7414,6.02043 4.2965,19.90894 0.8869,22.18679 1.0613,24.74155 2.3095,33.83143 3.2056,23.34428 3.2818,23.65628 6.3064,25.8317 1.348,0.96949 1.7886,2.3986 1.6201,5.25424 -0.1273,2.1574 0.3067,4.46064 0.9643,5.1183 0.7238,0.72375 1.1958,0.78636 1.1958,0.15863 0,-0.57042 0.7037,-5.49792 1.5638,-10.95 0.8601,-5.45208 1.9338,-14.56409 2.3861,-20.24891 0.8008,-10.06717 2.0167,-13.59813 3.9994,-11.61396 1.0177,1.01852 1.517,3.99269 2.9651,17.66402 0.5077,4.79271 1.1777,9.12604 1.489,9.62963 0.3112,0.50359 0.8318,6.47878 1.1568,13.27821 0.325,6.79942 0.6891,12.46073 0.809,12.5807 0.12,0.11996 1.1163,-0.0168 2.214,-0.30382 2.6642,-0.6967 5.9978,-11.77508 7.3418,-24.39874 1.9948,-18.73563 3.1761,-36.77861 3.0805,-47.05021 -0.096,-10.28186 0.7226,-22.01123 1.5965,-22.88509 0.2451,-0.24511 1.1204,0.22913 1.9451,1.05387 1.0865,1.08651 1.5133,3.82441 1.5494,9.94048 0.027,4.64252 0.6651,11.59095 1.4171,15.44095 0.752,3.85 1.6697,11.49129 2.0393,16.98065 0.3696,5.48936 1.0714,11.03115 1.5595,12.3151 0.4882,1.28395 0.891,4.89265 0.8952,8.01935 0,3.12669 0.5426,8.6099 1.1966,12.1849 0.654,3.575 1.1456,8.1875 1.0924,10.25 -0.085,3.30514 0.1842,3.75 2.2719,3.75 1.522,0 2.192,-0.46063 1.8742,-1.28861 -0.2719,-0.70873 -0.013,-4.42123 0.5745,-8.25 0.5879,-3.82876 1.2947,-8.98639 1.5708,-11.46139 0.276,-2.475 0.7559,-5.175 1.0665,-6 0.7544,-2.00431 2.1906,-30.98805 2.9813,-60.16515 0.3527,-13.01584 0.9835,-24.21891 1.4018,-24.89572 0.4183,-0.67681 1.481,-0.95411 2.3615,-0.61623 1.3968,0.53602 1.6009,3.26415 1.6009,21.40232 0,11.48839 0.4653,22.35077 1.0402,24.28138 0.5721,1.92137 1.5089,13.6184 2.0818,25.9934 0.5729,12.375 1.5673,23.85 2.2098,25.5 0.6425,1.65 1.228,4.575 1.301,6.5 0.1811,4.77126 2.3239,13.07049 3.9949,15.47251 0.7548,1.08487 1.3723,2.96705 1.3723,4.18261 0,1.28443 0.787,2.4599 1.8791,2.8065 1.6124,0.51177 1.9442,1.90475 2.3384,9.81739 0.2527,5.07154 0.078,10.57099 -0.3888,12.22099 -0.4665,1.65 -0.5543,6.9375 -0.195,11.75 l 0.6533,8.75 7.7731,0 c 5.0949,0 7.9091,-0.40762 8.1676,-1.18299 0.2494,-0.74845 3.6924,-1.34067 9.3731,-1.61227 8.4937,-0.40609 9.144,-0.29035 12.0345,2.14186 1.7497,1.47223 3.9934,5.02173 5.2498,8.3048 1.3398,3.501 3.7363,7.20068 6.1545,9.50108 4.6209,4.39574 4.8675,5.55213 1.4604,6.84752 -3.1419,1.19457 -3.2907,4.54563 -0.4178,9.41478 2.2766,3.85857 2.2839,2.5124 -0.1863,34.58522 -0.6142,7.975 -0.8168,19.03926 -0.4503,24.58725 l 0.6664,10.08724 -32.306,0.66108 c -17.7683,0.36359 -342.6294,0.66183 -721.91351,0.66275 L 1.1707956,896 0.52834562,889.85331 z M 1322.4901,732.27083 c -0.3323,-0.33229 -0.5687,0.25834 -0.5253,1.3125 0.048,1.16495 0.285,1.4019 0.6042,0.60417 0.2889,-0.72187 0.2534,-1.58438 -0.079,-1.91667 z"
     id="path2987"
     inkscape:connector-curvature="0" />
</svg>
