<?xml version="1.0" encoding="UTF-8" standalone="no"?>
<!-- Created with Inkscape (http://www.inkscape.org/) -->

<svg
   xmlns:dc="http://purl.org/dc/elements/1.1/"
   xmlns:cc="http://creativecommons.org/ns#"
   xmlns:rdf="http://www.w3.org/1999/02/22-rdf-syntax-ns#"
   xmlns:svg="http://www.w3.org/2000/svg"
   xmlns="http://www.w3.org/2000/svg"
   xmlns:sodipodi="http://sodipodi.sourceforge.net/DTD/sodipodi-0.dtd"
   xmlns:inkscape="http://www.inkscape.org/namespaces/inkscape"
   id="svg2"
   version="1.1"
   inkscape:version="0.48.2 r9819"
   width="392.67914"
   height="1355.974"
   sodipodi:docname="goodroads713leag_0040d.png">
  <metadata
     id="metadata8">
    <rdf:RDF>
      <cc:Work
         rdf:about="">
        <dc:format>image/svg+xml</dc:format>
        <dc:type
           rdf:resource="http://purl.org/dc/dcmitype/StillImage" />
        <dc:title></dc:title>
      </cc:Work>
    </rdf:RDF>
  </metadata>
  <defs
     id="defs6" />
  <sodipodi:namedview
     pagecolor="#ffffff"
     bordercolor="#666666"
     borderopacity="1"
     objecttolerance="10"
     gridtolerance="10"
     guidetolerance="10"
     inkscape:pageopacity="0"
     inkscape:pageshadow="2"
     inkscape:window-width="1600"
     inkscape:window-height="876"
     id="namedview4"
     showgrid="false"
     fit-margin-top="0"
     fit-margin-left="0"
     fit-margin-right="0"
     fit-margin-bottom="0"
     inkscape:zoom="1"
     inkscape:cx="-219.32086"
     inkscape:cy="969.40957"
     inkscape:window-x="0"
     inkscape:window-y="24"
     inkscape:window-maximized="1"
     inkscape:current-layer="svg2" />
  <path
     style="fill:#000000"
     d="m 128.67914,1355.3383 c 0,-0.5536 -1.0125,-1.1504 -2.25,-1.3261 -2.00678,-0.2851 -2.28296,-0.9682 -2.55491,-6.3196 -0.1677,-3.3 -0.7302,-6.4275 -1.25,-6.95 -0.5198,-0.5225 -0.94509,-2.3263 -0.94509,-4.0085 0,-2.3382 0.95832,-3.881 4.06855,-6.55 5.17743,-4.4431 5.87091,-5.213 11.37572,-12.6287 2.50565,-3.3755 4.55573,-6.8365 4.55573,-7.691 0,-0.8546 0.45,-1.8319 1,-2.1718 0.55,-0.3399 1,-1.6899 1,-3 0,-1.3101 0.45,-2.6601 1,-3 0.55,-0.3399 0.98503,-1.379 0.96673,-2.309 -0.0275,-1.3978 -0.35868,-1.3009 -1.91029,0.559 -1.12491,1.3484 -3.01488,2.2589 -4.71673,2.2722 -1.56184,0.012 -3.96471,0.9023 -5.33971,1.9778 -1.375,1.0755 -3.48594,1.9655 -4.69098,1.9778 -1.20504,0.012 -2.4691,0.4722 -2.80902,1.0222 -0.33992,0.55 -1.68992,1 -3,1 -1.31008,0 -2.66008,0.45 -3,1 -0.33992,0.55 -2.16648,1 -4.05902,1 -1.89254,0 -3.44098,0.45 -3.44098,1 0,0.55 -1.32344,1 -2.94098,1 -1.61754,0 -3.2191,0.45 -3.55902,1 -0.33992,0.55 -3.06648,1 -6.05902,1 -2.992537,0 -5.440977,0.45 -5.440977,1 0,1.6678 -6.83895,1.1183 -8.98857,-0.7222 -1.24192,-1.0634 -2.01143,-2.9537 -2.01143,-4.941 0,-1.7703 -0.45,-3.4969 -1,-3.8368 -0.55,-0.3399 -1,-2.3915 -1,-4.559 0,-2.1676 0.45,-3.941 1,-3.941 0.55,0 1,-0.9 1,-2 0,-1.1 0.38326,-2 0.85169,-2 0.46842,0 2.19698,-1.2375 3.84125,-2.75 4.11862,-3.7886 7.22404,-6.25 7.88524,-6.25 0.9812,0 11.421817,-9.3504 11.421817,-10.2291 0,-0.4662 2.7,-4.8631 6,-9.7709 3.3,-4.9078 6.01001,-9.503 6.02224,-10.2116 0.0122,-0.7086 0.90222,-2.4134 1.97776,-3.7884 1.07554,-1.375 1.98382,-2.95 2.0184,-3.5 0.0346,-0.55 1.39459,-2.558 3.02224,-4.4622 1.62765,-1.9042 2.95936,-4.0417 2.95936,-4.75 0,-0.7083 0.45,-1.2878 1,-1.2878 0.55,0 1.01001,-0.5625 1.02224,-1.25 0.0122,-0.6875 0.90222,-2.375 1.97776,-3.75 1.07554,-1.375 1.96553,-3.7 1.97776,-5.1667 0.0122,-1.4666 0.3654,-2.8166 0.78482,-3 0.41942,-0.1833 2.47487,-2.7392 4.56766,-5.6798 3.40529,-4.7847 3.64995,-5.5202 2.3286,-7 -2.42079,-2.711 -2.42172,-6.442 -0.002,-8.4035 1.18729,-0.9625 2.65023,-1.75 3.25098,-1.75 0.60075,0 1.09227,-0.45 1.09227,-1 0,-0.55 -0.9,-1 -2,-1 -1.1,0 -2,-0.3975 -2,-0.8834 0,-0.4858 -0.8363,-1.102 -1.85845,-1.3693 -2.14523,-0.561 -3.4011,-5.3938 -2.05518,-7.9087 0.49529,-0.9254 1.6463,-2.4284 2.55779,-3.3399 1.50204,-1.502 1.6314,-5.8412 1.38118,-46.328 -0.32336,-52.3206 -0.35627,-50.5604 0.95346,-50.997 1.38639,-0.4621 1.28868,-3.7725 -0.18081,-6.1256 -0.94822,-1.5183 -0.91822,-2.4549 0.14212,-4.4362 1.09589,-2.0477 1.11132,-3.0735 0.0836,-5.5548 -0.69331,-1.6738 -1.02439,-3.9463 -0.73574,-5.0502 0.47105,-1.8013 0.038,-2.0069 -4.22656,-2.0069 -6.19003,0 -8.34177,-2.1951 -8.02269,-8.1844 0.12645,-2.3736 0.16948,-5.3016 0.0956,-6.5068 -0.15555,-2.5361 -7.91202,-10.8088 -10.13441,-10.8088 -1.81552,0 -2.67899,-9.7267 -1.15004,-12.9548 0.53278,-1.1249 1.22037,-2.8327 1.52798,-3.7952 0.30761,-0.9625 1.44686,-1.75 2.53166,-1.75 2.46491,0 3.67902,-1.8114 2.20327,-3.2871 -0.61208,-0.6121 -1.11287,-3.2463 -1.11287,-5.8539 0,-2.6075 -0.45,-5.0191 -1,-5.359 -0.55,-0.3399 -1,-1.9149 -1,-3.5 0,-1.5851 0.45,-3.16013 1,-3.50003 0.55,-0.3399 1,-3.0399 1,-6 0,-2.9601 -0.45,-5.6601 -1,-6 -1.40665,-0.8694 -1.27845,-14.20987 0.14501,-15.08962 0.82384,-0.50916 0.93725,-3.96173 0.40432,-12.30902 -0.40737,-6.38075 -0.68244,-12.27636 -0.61126,-13.10136 0.0712,-0.825 0.35931,-6.45 0.64029,-12.5 0.45235,-9.73963 0.86859,-11.71995 3.63284,-17.28342 2.3785,-4.7871 2.84415,-6.56123 1.95538,-7.45 -0.64162,-0.64162 -1.16658,-2.20158 -1.16658,-3.46658 0,-1.265 -0.45,-2.3 -1,-2.3 -0.55,0 -1,-1.32344 -1,-2.94098 0,-1.61754 -0.45,-3.2191 -1,-3.55902 -1.30453,-0.80624 -1.30453,-18.19376 0,-19 0.55,-0.33992 1,-1.68992 1,-3 0,-1.31008 0.45,-2.66008 1,-3 0.55,-0.33992 1,-4.61492 1,-9.5 0,-4.88508 -0.45,-9.16008 -1,-9.5 -0.55,-0.33992 -1,-1.4032 -1,-2.36285 0,-1.86325 -5.89261,-8.13715 -7.64262,-8.13715 -1.56769,0 -4.35738,-3.42027 -4.35738,-5.34231 0,-0.92666 0.54634,-2.55966 1.2141,-3.62891 1.02005,-1.63335 0.86021,-2.32078 -1,-4.30088 -2.28193,-2.429 -2.98117,-5.7279 -1.2141,-5.7279 0.55,0 1,-0.9 1,-2 0,-1.1 0.45,-2 1,-2 0.55,0 1,-0.81 1,-1.8 0,-0.99 0.48695,-2.28695 1.0821,-2.8821 1.1164,-1.1164 -0.71864,-5.3179 -2.32265,-5.3179 -0.4177,0 -0.75945,-1.575 -0.75945,-3.5 0,-1.925 -0.40273,-3.5 -0.89496,-3.5 -1.19439,0 -1.99099,-5.68528 -3.15264,-22.5 -2.12819,-30.80542 -2.15406,-30.96875 -4.9524,-31.26188 -4.15448,-0.4352 -5,-1.06203 -5,-3.70674 0,-1.75923 -0.54227,-2.53138 -1.777757,-2.53138 -0.97777,0 -2.54836,-0.9 -3.49021,-2 -0.94185,-1.1 -2.54248,-2 -3.55694,-2 -1.01447,0 -3.04388,-1.3461 -4.50979,-2.99134 -2.20249,-2.47192 -2.6653,-3.94788 -2.6653,-8.5 0,-3.02976 0.3375,-5.51217 0.75,-5.51646 1.34928,-0.014 3.05196,-4.79024 2.06096,-5.78124 -0.86434,-0.86434 1.95133,-7.21512 4.28328,-9.66096 0.49817,-0.5225 0.90576,-2.04789 0.90576,-3.38976 0,-1.34186 0.7875,-3.01972 1.75,-3.72858 1.8568,-1.36748 1.77788,-1.43552 -3.45497,-2.97893 -0.66273,-0.19547 -2.78907,-2.5148 -4.72521,-5.15406 -3.26714,-4.45366 -4.50679,-9.02837 -2.88575,-10.6494 0.37624,-0.37624 0.77051,-2.73552 0.87616,-5.24283 0.10565,-2.50732 0.69782,-5.06449 1.31593,-5.6826 1.39238,-1.39238 1.48913,-9.38004 0.12384,-10.22384 -0.57479,-0.35524 -1,-5.61038 -1,-12.35902 0,-8.01729 -0.39379,-12.13477 -1.24164,-12.98262 -0.86782,-0.86782 -0.91668,-1.45491 -0.16229,-1.95 1.65653,-1.08714 2.43563,-5.20836 0.98462,-5.20836 -1.61739,0 -5.18009,-3.93537 -5.99122,-6.61792 -0.35222,-1.16485 -0.19008,-3.30235 0.36031,-4.75 0.6436,-1.69278 0.65268,-2.63208 0.02547,-2.63208 -0.53639,0 -0.97525,0.45 -0.97525,1 0,0.55399 -2.63889,1 -5.91667,1 -3.64887,0 -6.06705,0.45115 -6.30901,1.17705 -0.2158,0.64738 -0.9283,0.84582 -1.58334,0.44098 -1.37625,-0.85057 -1.62502,-4.61803 -0.30492,-4.61803 0.48733,0 1.60403,-1.51301 2.48154,-3.36224 0.87752,-1.84923 2.2788,-3.92933 3.11395,-4.62244 1.10925,-0.9206 1.51845,-3.26759 1.51845,-8.70919 0,-5.28799 0.43516,-7.88415 1.5,-8.94899 0.825,-0.825 1.5,-1.9485 1.5,-2.49666 0,-1.02649 -3.96783,1.53309 -7.5,4.83811 -2.68277,2.51026 -6.75865,5.30141 -7.74156,5.30141 -0.4381,0 -0.49955,-1.2375 -0.13655,-2.75 0.72761,-3.03172 3.57416,-6.23248 5.5863,-6.28142 0.71049,-0.0173 2.14804,-1.20556 3.19455,-2.64061 1.52431,-2.09023 1.67347,-2.97629 0.75,-4.455 -1.68369,-2.69602 -1.42115,-5.33425 0.95114,-9.55793 1.34411,-2.39307 1.70524,-3.87867 1,-4.11375 -1.38647,-0.46215 -1.45917,-6.86368 -0.0876,-7.71137 0.55897,-0.34546 0.68348,-1.15952 0.27667,-1.80902 -1.86097,-2.97121 -0.5482,-16.36142 1.8756,-19.1309 1.74602,-1.99504 0.68791,-4.92881 -3.16858,-8.78529 -2.42798,-2.42799 -4,-4.93628 -4,-6.38236 3e-5,-1.31029 -0.47856,-2.38235 -1.06351,-2.38235 -1.23244,0 -1.09816,-15.61475 0.15479,-18 0.43337,-0.825 1.04117,-2.70751 1.35067,-4.18335 0.32026,-1.52717 1.46286,-2.96904 2.65183,-3.3464 1.55082,-0.49222 1.94023,-1.21795 1.51133,-2.81665 -0.31778,-1.18448 -0.58392,-3.19266 -0.59142,-4.46262 -0.007,-1.26996 -0.38784,-2.07776 -0.84517,-1.79511 -0.45734,0.28265 -1.4275,-1.67475 -2.15593,-4.34976 -0.9031,-3.31644 -1.74932,-4.70062 -2.66006,-4.35113 -0.7346,0.28189 -1.59025,-0.15097 -1.90144,-0.96192 -0.42921,-1.11849 -1.68815,-1.34795 -5.21475,-0.95045 -4.75305,0.53574 -5.72864,1.03607 -9.70367,4.97656 l -2.27897,2.25916 -0.62684,-3.13416 c -1.46579,-7.32897 0.84237,-13.88417 4.88878,-13.88417 2.58957,0 4.48439,-1.80715 4.48439,-4.27692 0,-2.00429 5.1264,-7.72308 6.92308,-7.72308 0.5923,0 1.07692,-1.09948 1.07692,-2.4433 0,-1.34381 0.7875,-3.03679 1.75,-3.76217 2.4668,-1.8591 4.25,-5.33359 4.25,-8.28096 0,-1.38246 0.45,-2.51357 1,-2.51357 0.55,0 1,-1.09844 1,-2.44098 0,-1.34254 0.45,-2.7191 1,-3.05902 1.68911,-1.04393 1.11018,-3.23792 -1,-3.78975 -1.46699,-0.38363 -2,-0.0307 -2,1.32435 0,2.42288 -1.98174,3.59692 -3.1118,1.84352 -0.74506,-1.15602 -1.04689,-1.13638 -1.87289,0.12188 -0.54157,0.825 -0.99158,2.2324 -1,3.12756 -0.0217,2.31174 -2.51049,4.08217 -5.20005,3.6992 -3.42515,-0.48771 -3.50799,-3.69885 -0.16429,-6.36783 l 2.84903,-2.27413 -2.75,0.52418 c -6.17107,1.17627 -1.9839,-6.40993 11.97655,-21.69876 3.00429,-3.29017 2.87983,-3.82504 -0.97655,-4.19686 -3.21845,-0.31032 -3.25293,-0.36987 -3.55205,-6.13514 -0.28428,-5.47947 1.33261,-11.67822 3.04616,-11.67822 0.41574,0 0.75589,-1.37174 0.75589,-3.04831 0,-1.67656 0.9,-4.91109 2,-7.18783 2.20271,-4.55908 2.52868,-6.76386 1,-6.76386 -0.55,0 -1,-0.62252 -1,-1.38337 0,-0.76085 -0.9,-1.61872 -2,-1.90638 -2.75105,-0.71941 -2.63207,-5.40854 0.2141,-8.43815 1.86021,-1.9801 2.02004,-2.66753 1,-4.30088 -0.66776,-1.06925 -1.22099,-2.73769 -1.22941,-3.70765 -0.0117,-1.34372 -0.21605,-1.44692 -0.85851,-0.43349 -0.47892,0.75546 -2.09236,1.18747 -3.73469,1 -2.69869,-0.30807 -2.91219,-0.65611 -3.20198,-5.21959 -0.17077,-2.68923 0.16673,-5.36673 0.75,-5.95 1.34473,-1.34473 1.39231,-9.33738 0.0605,-10.16049 -0.55,-0.33992 -1,0.23939 -1,1.28734 0,2.85749 -3.03235,8.37173 -4.34844,7.90752 -1.65342,-0.5832 -1.16127,-8.80851 0.74794,-12.50052 0.88028,-1.70226 1.6005,-4.21581 1.6005,-5.58566 0,-1.36986 0.45,-2.76876 1,-3.10868 0.55,-0.33992 1,-1.58767 1,-2.77278 0,-1.82214 -0.61848,-1.46571 -4.00668,2.30902 -3.85855,4.29873 -4.06189,4.39199 -5.5,2.52263 -1.98625,-2.58187 -1.90275,-3.09165 0.86262,-5.26689 1.29576,-1.01925 2.97399,-3.63941 3.72939,-5.82258 0.7554,-2.18317 2.84523,-5.81575 4.64407,-8.07239 1.79883,-2.25665 3.2706,-4.39415 3.2706,-4.75 -10e-6,-0.35586 -1.35001,-0.64701 -3.00001,-0.64701 -1.65,0 -3,0.34015 -3,0.75589 0,1.25417 -5.94391,3.47961 -7.59818,2.84481 -2.21568,-0.85024 -1.36899,-5.00744 1.09818,-5.39203 1.9622,-0.30587 5.29313,-1.57372 8.73643,-3.32534 0.95504,-0.48583 2.41754,-0.88333 3.25,-0.88333 0.83246,0 1.51357,-0.36601 1.51357,-0.81335 0,-0.44735 1.61186,-1.4458 3.58191,-2.21879 1.97004,-0.77298 4.01088,-2.20697 4.53518,-3.18664 0.5243,-0.97967 1.49994,-1.79123 2.16809,-1.80346 1.93046,-0.0353 6.52218,-3.92888 4.66482,-3.95552 -0.8525,-0.0122 -2.07525,0.50301 -2.71722,1.14498 -0.88962,0.88962 -1.31711,0.77659 -1.79749,-0.47527 -0.55724,-1.45214 -0.93767,-1.48064 -3.28279,-0.24597 -1.45887,0.76808 -3.46047,2.361 -4.44799,3.53983 -1.83908,2.19534 -4.74312,2.40227 -5.41444,0.3858 -0.20662,-0.62061 1.23853,-2.64561 3.21144,-4.5 l 3.5871,-3.37161 -4.79431,-0.5 c -4.31392,-0.4499 -4.7943,-0.7505 -4.7943,-3 0,-2.01013 0.56273,-2.56431 2.87182,-2.82818 1.5795,-0.1805 3.35701,0.157 3.95,0.75 1.3584,1.3584 12.34667,1.42359 13.17818,0.0782 0.33992,-0.55 1.49148,-1 2.55902,-1 1.06754,-2e-5 1.94098,-0.45002 1.94098,-1.00002 0,-0.55 1.09844,-1 2.44098,-1 3.06111,0 4.0416,-1.48901 4.12109,-6.25843 0.0573,-3.43499 -0.15481,-3.7362 -2.46417,-3.5 -4.12198,0.42158 -3.93024,-2.87701 0.28406,-4.88667 2.89505,-1.38055 3.79753,-1.45082 5.07001,-0.39476 0.85142,0.70661 1.54803,1.93121 1.54803,2.72132 0,0.81338 0.49028,1.13357 1.13016,0.73809 1.87203,-1.15697 17.281737,-0.40081 22.239707,1.09132 2.62272,0.78933 4.63013,0.98065 4.63013,0.4413 0,-0.52369 -0.45,-0.95217 -1,-0.95217 -0.55,0 -1,-0.51378 -1,-1.14174 0,-0.62795 -1.35,-2.43187 -3,-4.00869 -2.97149,-2.83972 -3.89766,-6.17675 -2.034,-7.32856 1.05401,-0.65141 7.034,4.23064 7.034,5.74254 0,0.51313 1.6875,2.44077 3.75,4.28365 l 3.75,3.35069 0.33209,-2.6113 c 0.18265,-1.43622 -0.23576,-3.67234 -0.92979,-4.96915 -1.84103,-3.43999 0.2629,-5.3829 3.07407,-2.83882 1.42632,1.2908 2.05787,3.18766 2.13963,6.42637 0.0638,2.52725 0.3218,3.80751 0.57333,2.84501 0.25152,-0.9625 0.84133,-1.75 1.31067,-1.75 0.46934,0 1.05915,0.7875 1.31067,1.75 0.30396,1.16313 0.49623,0.89485 0.57333,-0.8 0.0638,-1.4025 0.5279,-2.9775 1.03132,-3.5 0.50343,-0.5225 1.06593,-2.03975 1.25,-3.37167 0.68312,-4.94296 2.61957,-3.23975 3.33615,2.93431 0.82981,7.14975 1.87682,6.99173 2.28836,-0.34538 0.46359,-8.26492 0.43116,-8.9337 -0.66277,-13.66726 -0.57198,-2.475 -1.05956,-7.73594 -1.08351,-11.69098 -0.024,-3.95504 -0.49355,-7.4691 -1.04355,-7.80902 -1.37978,-0.85275 -1.26083,-7.83917 0.15762,-9.25762 0.87682,-0.87682 0.84446,-1.53495 -0.13342,-2.71322 -0.90087,-1.08548 -1.14034,-3.66194 -0.79237,-8.52517 0.34349,-4.80077 0.0738,-7.78844 -0.86658,-9.60108 -1.6966,-3.2702 -1.76969,-8.59847 -0.14029,-10.22787 0.93827,-0.93827 0.95329,-1.65996 0.0642,-3.08367 -0.67958,-1.08819 -1.13942,-5.78278 -1.10926,-11.3246 0.0552,-10.15058 -1.05197,-13.76677 -4.21508,-13.76677 -1.08065,0 -1.96482,-0.45 -1.96482,-1 0,-0.55 -0.675,-1 -1.5,-1 -0.825,0 -1.5,-0.45 -1.5,-1 0,-0.55 -0.6791,-1 -1.5091,-1 -0.83001,0 -2.92175,-1.35 -4.64832,-3 -1.72656,-1.65 -4.00998,-3 -5.07426,-3 -1.06429,0 -3.38975,-1.4625 -5.16771,-3.25 -5.04836,-5.07546 -8.87387,-8.14039 -11.85751,-9.5 -6.794187,-3.09604 -7.743097,-3.63758 -7.743097,-4.41898 0,-0.45706 -0.9,-0.83102 -2,-0.83102 -1.1,0 -2,-0.45 -2,-1 0,-0.55 -0.9,-1 -2,-1 -1.1,0 -2,-0.45 -2,-1 0,-0.55 -0.9,-1 -2,-1 -1.1,0 -2,-0.45 -2,-1 0,-0.55 -0.9,-1 -2,-1 -1.1,0 -2,-0.45 -2,-1 0,-0.55 -0.9,-1 -2,-1 -1.1,0 -2,-0.45 -2,-1 0,-0.57143 -3,-1 -7,-1 -4,0 -7,-0.42857 -7,-1 0,-0.55 -1.125,-1 -2.5,-1 -1.375,0 -2.5,-0.45 -2.5,-1 0,-0.55 -0.60526,-1 -1.34501,-1 -0.73976,0 -2.1595,-0.899995 -3.15499,-1.999995 -0.99549,-1.1 -2.41523,-2 -3.15499,-2 -0.73975,0 -1.34501,-0.45 -1.34501,-1 0,-0.55 -0.58673,-1 -1.30383,-1 -2.06896,0 -7.69617,-6.37948 -7.69617,-8.72503 0,-1.17139 -1.17857,-3.05687 -2.61903,-4.18994 -2.56451,-2.01724 -5.85341,-6.855838 -7.02496,-10.33503 -0.3241,-0.9625 -0.87694,-1.75 -1.22853,-1.75 -0.35159,0 -1.22858,-1.4625 -1.94886,-3.25 -0.72029,-1.7875 -1.73395,-4.0375 -2.25259,-5 -0.90751,-1.68418 -0.0962,-2.29105 2.44425,-1.828329 0.47865,0.08718 -0.98385,-1.947883 -3.25,-4.522368 -2.26616,-2.574486 -4.12028,-5.292527 -4.12028,-6.040093 0,-0.747565 -0.45,-1.35921 -1,-1.35921 -0.55,0 -1,-0.9 -1,-2 0,-1.1 -0.45,-2 -1,-2 -0.55,0 -1.03289,-1.0125 -1.07309,-2.25 -0.0402,-1.2375 -0.8277,-3.415103 -1.75,-4.839118 -4.6476996,-7.175956 -6.7764996,-9.887251 -7.7719196,-9.898503 -1.72738,-0.01953 -4.95206996,-4.043638 -3.86522996,-4.823429 0.52813,-0.378922 1.45562996,-1.58895 2.06109996,-2.68895 1.16064,-2.108605 6.39914,-3.390918 6.39914,-1.566422 0,0.586532 1.3641196,1.066422 3.0313796,1.066422 1.77208,0 3.27051,0.623137 3.60699,1.5 1.04814,2.731403 4.12531,1.56122 8.52149,-3.240547 8.55913,-9.3487754 12.90521,-13.2594534 14.73573,-13.2594534 1.02325,0 2.47785,-0.862479 3.23244,-1.916619 1.74049,-2.43144 5.87197,-1.14711804 5.87197,1.825378 0,1.085264 0.45,2.251322 1,2.591241 0.55,0.339919 1,1.941476 1,3.559017 0,1.6175414 0.45,2.9409834 1,2.9409834 0.55,0 1,0.675 1,1.5 0,0.825 0.45,1.5 1,1.5 0.55,0 1,0.661313 1,1.469584 0,0.808271 0.9,3.071958 2,5.030416 1.1,1.958458 2,4.222145 2,5.030416 0,0.808271 0.45,1.469584 1,1.469584 0.55,0 1,0.484615 1,1.076923 0,1.243736 5.44019,6.909794 6.67308,6.950133 0.4548,0.01488 3.07692,2.058207 5.82692,4.540724 2.75,2.482517 6.2375,5.267365 7.75,6.188551 1.5125,0.921186 2.75,2.027861 2.75,2.459277 0,0.431415 1.35,0.784392 3,0.784392 1.65,0 3,0.45 3,1 0,0.55 0.88631,1 1.96958,1 1.08328,0 3.57196,0.9 5.53042,2 1.95846,1.1 5.128247,2 7.043987,2 1.91573,0 4.26454,0.397498 5.21958,0.883329 0.95504,0.48583 3.08643,1.475168 4.73643,2.198528 1.65,0.72336 5.55724,3.925862 8.68277,7.116672 5.28197,5.392305 6.00488,5.801471 10.25,5.801471 2.51197,0 4.56723,0.45 4.56723,1 0,0.55 1.8,1 4,1 2.2,0 4,0.378771 4,0.841712 0,1.061014 6.87407,3.158288 10.35167,3.158288 3.1048,0 11.42351,1.86815 13.88476,3.11813 0.95504,0.48503 3.22754,0.88187 5.05,0.88187 1.82246,0 3.74107,0.4072 4.26357,0.9049 0.5225,0.49769 7.475,1.17751 15.45,1.5107 26.675,1.11448 34.48461,1.76582 35.21949,2.93738 0.53156,0.84742 1.27982,0.7996 2.86475,-0.18312 2.50937,-1.55589 28.3393,-1.86122 30.24985,-0.35757 2.15467,1.69579 9.39417,2.04133 12.2059,0.58259 3.18524,-1.65253 22.46001,-1.9914 22.46001,-0.39488 0,0.55 2.025,1 4.5,1 2.475,0 4.5,0.45 4.5,1 0,0.55 1.125,1 2.5,1 1.375,0 2.5,0.45 2.5,1 0,0.55 0.69382,1 1.54181,1 0.848,0 2.47625,0.87056 3.61834,1.93457 1.61729,1.50674 2.46017,1.69498 3.81132,0.85118 1.28251,-0.80094 2.55523,-0.72024 4.88166,0.30953 1.73078,0.76612 3.14687,1.73309 3.14687,2.14883 0,0.41574 0.61284,0.75589 1.36186,0.75589 1.17845,0 4.3347,1.53989 19.88814,9.703135 1.5125,0.79384 2.75,1.86038 2.75,2.3701 0,0.50972 0.71019,0.92676 1.57819,0.92676 1.50588,0 9.42181,7.65222 9.42181,9.10793 0,0.38303 1.37054,1.17419 3.04564,1.75814 3.33562,1.1628 13.29972,9.51448 21.63495,18.13393 l 5.31865,5.5 3.8e-4,6.59636 c 2.3e-4,4.07994 -0.61801,7.83595 -1.62061,9.84572 -1.49466,2.99611 -1.49466,3.64054 0,8.26847 1.92966,5.97485 2.11593,13.86482 0.37099,15.71445 -1,1.06 -1,1.41667 0,1.78333 0.87227,0.31984 1.25,3.15278 1.25,9.375 l 0,8.91667 -3.77749,0 c -2.07763,0 -4.66513,-0.60921 -5.75,-1.35379 -1.08488,-0.74458 -3.79757,-1.59004 -6.0282,-1.87878 -2.23063,-0.28875 -6.50563,-1.6625 -9.5,-3.05278 -2.99437,-1.39028 -6.91446,-2.83226 -8.71132,-3.20441 -1.79685,-0.37214 -4.94685,-2.30166 -7,-4.28781 -5.70028,-5.51429 -9.79575,-8.11069 -11.31372,-7.17254 -1.92972,1.19264 -6.91765,-2.05881 -6.92707,-4.5155 -0.009,-2.40561 -3.9961,-4.53439 -8.4922,-4.53439 -3.28315,0 -8.47908,-1.9885 -8.4922,-3.25 -0.004,-0.4125 -0.63521,-0.75 -1.40204,-0.75 -0.76684,0 -2.83943,-1.35 -4.60576,-3 -2.23921,-2.09174 -4.22127,-3 -6.54674,-3 -1.83437,0 -3.61334,-0.45 -3.95326,-1 -0.33992,-0.55 -2.58992,-1 -5,-1 -2.41008,0 -4.66008,-0.45 -5,-1 -0.33992,-0.55 -1.71648,-1 -3.05902,-1 -1.34254,0 -2.44098,-0.45 -2.44098,-1 0,-0.55 -0.9,-1 -2,-1 -1.1,0 -2,-0.34015 -2,-0.75589 0,-0.41574 -1.41609,-1.38271 -3.14687,-2.14883 -2.41953,-1.07099 -3.57204,-1.12741 -4.98643,-0.24411 -2.06562,1.29 -5.86255,1.54778 -5.8745,0.39883 -0.01,-0.9215 -4.87234,-3.25 -6.78719,-3.25 -0.76795,0 -2.59146,-0.85105 -4.05226,-1.89123 -1.92873,-1.37338 -5.1199,-2.04766 -11.65437,-2.46251 -11.77939,-0.74784 -17.49838,-1.64705 -17.49838,-2.7513 0,-1.23355 -11.73364,-1.13495 -12.5,0.10504 -0.33992,0.55 -4.73148,1 -9.75902,1 -7.10965,0 -8.87431,0.26667 -7.94098,1.2 0.66,0.66 1.2,2.235 1.2,3.5 0,1.265 0.45,2.3 1,2.3 0.55,0 1.01001,1.9125 1.02224,4.25 0.014,2.67122 0.74867,5.1787 1.97776,6.75 1.07554,1.375 1.96553,3.48594 1.97776,4.69098 0.0122,1.20504 0.47224,2.4691 1.02224,2.80902 0.55,0.33992 1,2.16648 1,4.05902 0,1.89254 0.45,3.44098 1,3.44098 0.55,0 1,1.09844 1,2.44098 0,1.34254 0.45,2.7191 1,3.05902 0.55,0.33992 1,1.71648 1,3.05902 0,1.34254 0.45,2.44098 1,2.44098 0.55,0 1,1.09844 1,2.44098 0,1.34254 0.45,2.7191 1,3.05902 0.55,0.33992 1,1.68992 1,3 0,1.31008 0.45,2.66008 1,3 0.55,0.33992 1,1.68992 1,3 0,1.31008 0.45,2.66008 1,3 0.55,0.33992 1,1.94148 1,3.55902 0,1.61754 0.45,2.94098 1,2.94098 0.55,0 1,1.09844 1,2.44098 0,1.34254 0.45,2.7191 1,3.05902 0.55,0.33992 1,1.94148 1,3.55902 0,1.61754 0.45,2.94098 1,2.94098 0.55,0 1,0.87344 1,1.94098 0,1.06754 0.45,2.2191 1,2.55902 0.55,0.33992 1,2.13992 1,4 0,1.86008 0.45,3.66008 1,4 0.55,0.33992 1,1.49148 1,2.55902 0,1.06754 0.45,1.94098 1,1.94098 0.55,0 1,0.58529 1,1.30064 0,1.83972 2.35194,6.68222 3.25,6.69156 0.4125,0.004 0.75,1.33124 0.75,2.94878 0,1.61754 0.45,3.2191 1,3.55902 0.55,0.33992 1,2.36492 1,4.5 0,2.13508 0.45,4.16008 1,4.5 0.55,0.33992 1,1.68992 1,3 0,1.31008 0.45,2.66008 1,3 0.55,0.33992 1,1.49148 1,2.55902 0,1.06754 0.45,1.94098 1,1.94098 0.55,0 1,0.87344 1,1.94098 0,1.06754 0.45,2.2191 1,2.55902 0.55,0.33992 1,1.49148 1,2.55902 0,1.06754 0.45,1.94098 1,1.94098 0.55,0 1,1.09844 1,2.44098 0,1.34254 0.45,2.7191 1,3.05902 0.55,0.33992 1,1.71648 1,3.05902 0,1.34254 0.45,2.44098 1,2.44098 0.55,0 1,1.35 1,3 0,1.65 0.45,3 1,3 0.55,0 1,2.22344 1,4.94098 0,2.71754 0.45,5.2191 1,5.55902 0.55,0.33992 1,1.71648 1,3.05902 0,1.34254 0.45,2.44098 1,2.44098 0.55,0 1,0.9 1,2 0,1.1 0.45,2 1,2 0.55,0 1,0.9 1,2 0,1.1 0.45,2 1,2 0.55,0 1,1.35 1,3 0,1.65 0.45,3 1,3 0.55,0 1,1.32344 1,2.94098 0,1.61754 0.45,3.2191 1,3.55902 0.55,0.33992 1.01001,1.82898 1.02224,3.30902 0.0122,1.48004 0.90222,3.81598 1.97776,5.19098 1.07554,1.375 1.96553,3.5125 1.97776,4.75 0.0122,1.2375 0.47224,2.25 1.02224,2.25 0.55,0 1,0.90611 1,2.01357 0,1.94412 0.35523,2.90879 2.84387,7.72286 0.63587,1.23004 1.15613,3.11598 1.15613,4.19098 0,1.07501 0.45,2.23267 1,2.57259 0.55,0.33992 1,1.71648 1,3.05902 0,1.34254 0.45,2.44098 1,2.44098 0.55,0 1,0.87344 1,1.94098 0,1.06754 0.45,2.2191 1,2.55902 0.55,0.33992 1,1.71648 1,3.05902 0,1.34254 0.45,2.44098 1,2.44098 0.55,0 1,1.35 1,3 0,1.65 0.39249,3 0.87219,3 0.47971,0 1.16498,1.83101 1.52284,4.06891 0.38795,2.4261 1.6508,4.99583 3.12781,6.36467 1.36244,1.26267 2.47716,3.0051 2.47716,3.87207 0,0.86698 0.45,1.85443 1,2.19435 0.55,0.33992 1,1.91492 1,3.5 0,1.58508 0.45,3.16008 1,3.5 0.55,0.33992 1,1.72258 1,3.07259 0,1.35 0.45,3.34844 1,4.44098 0.55,1.09254 1.45,2.88032 2,3.97286 0.55,1.09254 1.01431,2.78004 1.0318,3.75 0.0175,0.96996 0.6925,2.63708 1.5,3.7047 0.80751,1.06762 1.4682,2.93198 1.4682,4.14301 0,1.21104 0.675,2.4609 1.5,2.77749 0.8789,0.33726 1.5,1.83642 1.5,3.62055 0,2.92673 0.28525,3.80482 2.84387,8.75425 0.63587,1.23004 1.15613,3.14254 1.15613,4.25 0,1.10746 0.45,2.01357 1,2.01357 0.55,0 1,1.11131 1,2.46958 0,1.35827 0.9,4.07196 2,6.03042 1.1,1.95846 2,4.13762 2,4.84259 0,0.70496 0.9,3.14454 2,5.42127 1.1,2.27674 2,5.03471 2,6.12882 0,1.09411 0.45,2.2674 1,2.60732 0.55,0.33992 1,1.62648 1,2.85902 0,1.23254 0.38366,2.66848 0.85257,3.19098 0.46892,0.5225 1.43065,3.09909 2.13718,5.72576 0.70653,2.62667 1.67287,5.01573 2.14742,5.30902 0.47456,0.29329 0.86283,2.3116 0.86283,4.48514 0,4.0645 1.34077,7.60576 8.11373,21.43008 2.15569,4.4 3.91198,8.76094 3.90286,9.69098 -0.009,0.93004 0.43341,1.9691 0.98341,2.30902 0.55,0.33992 1,1.47779 1,2.5286 0,1.05081 0.9,3.51294 2,5.4714 1.1,1.95846 2,4.42059 2,5.4714 0,1.05081 0.45,2.18868 1,2.5286 0.55,0.33992 1,1.71648 1,3.05902 0,1.34254 0.45,2.44098 1,2.44098 0.55,0 1,1.77344 1,3.94098 0,2.16754 0.45,4.2191 1,4.55902 0.55,0.33992 1.01001,1.37898 1.02224,2.30902 0.0122,0.93004 0.90222,2.81598 1.97776,4.19098 1.07554,1.375 1.96553,3.5125 1.97776,4.75 0.0122,1.2375 0.47224,2.25 1.02224,2.25 0.55,0 1,1.32344 1,2.94098 0,1.61754 0.45,3.2191 1,3.55902 0.55,0.33992 1,1.91492 1,3.5 0,1.58508 0.45,3.16008 1,3.5 0.55,0.33992 1,1.71648 1,3.05902 0,1.34254 0.45,2.44098 1,2.44098 0.55,0 1,1.125 1,2.5 0,1.375 0.45,2.5 1,2.5 0.55,0 1,0.63247 1,1.4055 0,0.77302 0.9639,3.36052 2.14199,5.75 1.1781,2.38947 2.46789,5.2445 2.86621,6.3445 1.05114,2.90285 3.40661,7.91852 3.9918,8.5 0.27675,0.275 1.11747,1.85 1.86827,3.5 0.75079,1.65 1.76257,3.78139 2.2484,4.73643 0.48583,0.95504 0.89334,2.53004 0.90557,3.5 0.0122,0.96996 0.90222,2.88857 1.97776,4.26357 1.07554,1.375 1.96553,3.71094 1.97776,5.19098 0.0122,1.48004 0.47224,2.9691 1.02224,3.30902 0.55,0.33992 1,1.68992 1,3 0,1.31008 0.45,2.66008 1,3 1.12682,0.69642 1.36992,6.79675 0.31296,7.8537 -1.04592,1.04593 -1.73929,9.88444 -1.10675,14.10799 0.39593,2.64369 -2.94372,3.25973 -4.74992,0.87618 -0.76597,-1.01083 -1.40699,-3.27381 -1.42449,-5.02885 -0.0175,-1.75504 -0.4818,-3.4691 -1.0318,-3.80902 -0.55,-0.33992 -1,-1.68992 -1,-3 0,-1.31008 -0.45,-2.66008 -1,-3 -0.55,-0.33992 -1,-1.49148 -1,-2.55902 0,-1.06754 -0.45,-1.94098 -1,-1.94098 -0.55,0 -1,-0.81581 -1,-1.81291 0,-0.9971 -1.35,-3.10629 -3,-4.68709 -1.65,-1.5808 -3,-3.88843 -3,-5.12807 0,-1.23964 -0.45,-2.53201 -1,-2.87193 -0.55,-0.33992 -1,-2.13992 -1,-4 0,-1.86008 -0.45,-3.66008 -1,-4 -0.55,-0.33992 -1,-1.40176 -1,-2.35965 0,-2.1878 -2.24836,-7.12213 -3.25,-7.13255 -0.4125,-0.004 -0.75,-1.10624 -0.75,-2.44878 0,-1.34254 -0.45,-2.7191 -1,-3.05902 -0.55,-0.33992 -1,-1.49148 -1,-2.55902 0,-1.06754 -0.45,-1.94098 -1,-1.94098 -0.55,0 -1,-0.87344 -1,-1.94098 0,-1.06754 -0.45,-2.2191 -1,-2.55902 -0.55,-0.33992 -1,-2.16648 -1,-4.05902 0,-1.89254 -0.45,-3.44098 -1,-3.44098 -0.55,0 -1,-1.09844 -1,-2.44098 0,-1.34254 -0.45,-2.7191 -1,-3.05902 -0.55,-0.33992 -1,-1.63162 -1,-2.87046 0,-1.23883 -0.9,-3.21845 -2,-4.39917 -1.1,-1.18071 -2,-2.814 -2,-3.62954 0,-0.81554 -0.45,-1.76091 -1,-2.10083 -0.55,-0.33992 -1,-1.91492 -1,-3.5 0,-1.58508 -0.45,-3.16008 -1,-3.5 -0.55,-0.33992 -1,-1.49148 -1,-2.55902 0,-1.06754 -0.45,-1.94098 -1,-1.94098 -0.55,0 -1,-0.81029 -1,-1.80064 0,-2.23468 -2.23533,-7.181 -3.25,-7.19156 -0.4125,-0.004 -0.75,-1.33124 -0.75,-2.94878 0,-1.61754 -0.45,-3.2191 -1,-3.55902 -0.55,-0.33992 -1,-1.94148 -1,-3.55902 0,-1.61754 -0.45,-2.94098 -1,-2.94098 -0.55,0 -1,-0.87344 -1,-1.94098 0,-1.06754 -0.45,-2.2191 -1,-2.55902 -0.55,-0.33992 -1,-1.68992 -1,-3 0,-1.31008 -0.45,-2.66008 -1,-3 -0.55,-0.33992 -1,-2.16648 -1,-4.05902 0,-1.89254 -0.45,-3.44098 -1,-3.44098 -0.55,0 -1.00297,-0.7875 -1.00659,-1.75 -0.004,-0.9625 -0.90066,-3.1 -1.99341,-4.75 -1.09275,-1.65 -1.98979,-4.21633 -1.99341,-5.70295 -0.004,-1.48662 -0.51262,-3.96162 -1.1311,-5.5 -0.61848,-1.53838 -1.57869,-3.92205 -2.1338,-5.29705 -0.5551,-1.375 -1.33887,-3.4 -1.74169,-4.5 -0.40282,-1.1 -1.31829,-3.23682 -2.03438,-4.74849 -0.71608,-1.51167 -1.00344,-3.04702 -0.63858,-3.41189 0.36487,-0.36486 -0.49778,-2.18575 -1.91698,-4.04643 -2.07771,-2.72402 -2.34513,-3.6665 -1.37277,-4.83812 0.66418,-0.80029 0.77437,-1.45507 0.24487,-1.45507 -0.5295,0 -1.5615,-2.49597 -2.29334,-5.5466 -0.73183,-3.05063 -1.70371,-5.77719 -2.15971,-6.05902 -0.45601,-0.28183 -0.82911,-1.5843 -0.82911,-2.89438 0,-1.31008 -0.45,-2.66008 -1,-3 -0.55,-0.33992 -1,-1.49758 -1,-2.57259 0,-1.075 -0.3975,-2.73594 -0.88333,-3.69098 -0.48583,-0.95504 -1.43833,-3.08643 -2.11667,-4.73643 -0.67834,-1.65 -1.63084,-3.78139 -2.11667,-4.73643 -0.48583,-0.95504 -0.88333,-2.60001 -0.88333,-3.6555 0,-2.11595 -3.92155,-10.19497 -5.49356,-11.31761 -0.54645,-0.39025 -0.85004,-2.07775 -0.67463,-3.75 0.17833,-1.70008 -0.15515,-3.04046 -0.75644,-3.04046 -0.59146,0 -1.07537,-0.87344 -1.07537,-1.94098 0,-1.06754 -0.45,-2.2191 -1,-2.55902 -0.55,-0.33992 -1,-1.49148 -1,-2.55902 0,-1.06754 -0.34015,-1.94098 -0.75589,-1.94098 -0.41574,0 -1.34521,-1.4625 -2.06549,-3.25 -0.72029,-1.7875 -1.73014,-4.03139 -2.24412,-4.98643 -0.51397,-0.95504 -0.9345,-2.61598 -0.9345,-3.69098 0,-1.07501 -0.45,-2.23267 -1,-2.57259 -0.55,-0.33992 -1,-1.94148 -1,-3.55902 0,-1.61754 -0.45,-2.94098 -1,-2.94098 -0.55,0 -1,-1.05526 -1,-2.34501 0,-1.28976 -0.9,-3.1595 -2,-4.15499 -1.24067,-1.12279 -2,-3.07997 -2,-5.15499 0,-1.83975 -0.45,-3.34501 -1,-3.34501 -0.55,0 -1,-0.87344 -1,-1.94098 0,-1.06754 -0.45,-2.2191 -1,-2.55902 -0.55,-0.33992 -1,-1.54271 -1,-2.67286 0,-1.13016 -0.95657,-3.9161 -2.12572,-6.19099 -1.16914,-2.27488 -2.51914,-4.91754 -3,-5.87258 -0.48085,-0.95504 -0.87428,-2.64254 -0.87428,-3.75 0,-1.10746 -0.45,-2.01357 -1,-2.01357 -0.55,0 -1,-0.87344 -1,-1.94098 0,-1.06754 -0.45,-2.2191 -1,-2.55902 -0.55,-0.33992 -1,-1.71648 -1,-3.05902 0,-1.34254 -0.3375,-2.44449 -0.75,-2.44878 -1.1065,-0.0115 -3.25,-5.04548 -3.25,-7.63255 0,-1.23289 -0.45,-2.51973 -1,-2.85965 -0.55,-0.33992 -1,-2.84148 -1,-5.55902 0,-2.71754 -0.45,-4.94098 -1,-4.94098 -0.55,0 -1,-0.63247 -1,-1.4055 0,-1.21157 -1.37934,-4.39563 -5.1252,-11.83093 -0.48114,-0.95504 -0.8748,-2.41754 -0.8748,-3.25 0,-0.83246 -0.45,-1.51357 -1,-1.51357 -0.55,0 -1.01001,-1.2375 -1.02224,-2.75 -0.0122,-1.5125 -0.90222,-3.875 -1.97776,-5.25 -1.07554,-1.375 -1.96553,-3.26094 -1.97776,-4.19098 -0.0122,-0.93004 -0.47224,-1.9691 -1.02224,-2.30902 -0.55,-0.33992 -1,-1.68992 -1,-3 0,-1.31008 -0.45,-2.66008 -1,-3 -0.55,-0.33992 -1,-2.16648 -1,-4.05902 0,-1.89254 -0.45,-3.44098 -1,-3.44098 -0.55,0 -1,-1.32344 -1,-2.94098 0,-1.61754 -0.45,-3.2191 -1,-3.55902 -0.55,-0.33992 -1,-1.85662 -1,-3.37046 0,-1.51383 -0.8361,-3.64986 -1.85799,-4.74674 -1.73379,-1.861 -2.37923,-3.92238 -3.79887,-12.1328 -0.30907,-1.7875 -0.96272,-3.25 -1.45255,-3.25 -0.48982,0 -0.89059,-0.68111 -0.89059,-1.51357 0,-0.83246 -0.3975,-2.29496 -0.88333,-3.25 -0.48583,-0.95504 -1.43833,-3.08643 -2.11667,-4.73643 -0.67834,-1.65 -1.63084,-3.78139 -2.11667,-4.73643 -0.48583,-0.95504 -0.88333,-3.09254 -0.88333,-4.75 0,-1.65746 -0.45,-3.01357 -1,-3.01357 -0.55,0 -1,-1.35 -1,-3 0,-1.65 -0.45,-3 -1,-3 -0.55,0 -1,-0.87344 -1,-1.94098 0,-1.06754 -0.45,-2.2191 -1,-2.55902 -0.55,-0.33992 -1,-2.1453 -1,-4.01196 0,-1.86667 -0.50687,-4.65261 -1.12638,-6.19099 -1.53437,-3.81018 -4.89549,-11.41292 -5.98306,-13.53348 -0.48981,-0.95504 -0.89056,-2.61598 -0.89056,-3.69098 0,-1.07501 -0.45,-2.23267 -1,-2.57259 -0.55,-0.33992 -1,-1.49758 -1,-2.57259 0,-1.075 -0.45,-2.84844 -1,-3.94098 -2.27549,-4.52011 -3.28292,-6.42931 -5.09404,-9.65385 -1.04828,-1.86638 -1.90596,-4.25317 -1.90596,-5.30398 0,-1.05081 -0.45,-2.18868 -1,-2.5286 -0.55,-0.33992 -1,-1.68992 -1,-3 0,-1.31008 -0.45,-2.66008 -1,-3 -0.55,-0.33992 -1,-2.36492 -1,-4.5 0,-2.13508 -0.45,-4.16008 -1,-4.5 -0.55,-0.33992 -1,-2.58992 -1,-5 0,-2.41008 -0.45,-4.66008 -1,-5 -0.55,-0.33992 -1,-1.30951 -1,-2.15465 0,-2.81379 -4.01564,-7.34535 -6.50908,-7.34535 -1.30509,0 -2.651,-0.45 -2.99092,-1 -0.33992,-0.55 -1.71648,-1 -3.05902,-1 -1.34254,0 -2.44098,-0.45 -2.44098,-1 0,-1.92801 -5.88274,-1.08762 -7,1 -1.36091,2.54289 -3.50091,2.54289 -6.23037,0 -1.18072,-1.1 -2.5119,-2 -2.95819,-2 -1.14355,0 -1.0109,1.75869 0.18856,2.5 1.47437,0.91121 1.25814,10.23985 -0.25,10.78601 -1,0.36215 -1,0.8761 0,2.56977 0.7345,1.24399 1.25,5.60377 1.25,10.57163 0,4.65001 0.45,8.73267 1,9.07259 1.315,0.81271 1.28902,10.09145 -0.0352,12.56574 -0.71358,1.33333 -0.71358,1.93426 0,1.93426 0.65325,0 1.03518,4.22109 1.03518,11.44098 0,6.36385 0.43327,11.70876 0.97635,12.0444 0.53699,0.33188 0.9385,3.29141 0.89226,6.57674 -0.0474,3.36684 0.45035,6.61727 1.14069,7.44908 0.97757,1.17791 0.88529,2.19117 -0.45725,5.02036 -1.69895,3.58027 -1.69121,3.67556 0.99269,12.21889 0.28925,0.92071 1.31871,0.73041 3.90402,-0.72167 3.4551,-1.94061 3.5276,-1.94146 4.53814,-0.0533 0.87666,1.63805 0.37761,2.36562 -3.41015,4.97167 -2.44041,1.67904 -4.91852,3.0528 -5.50693,3.0528 -0.5884,0 -1.06982,0.45 -1.06982,1 0,1.2117 3.69642,1.34774 4.16667,0.15335 0.46253,-1.17482 10.6554,-2.25026 11.30872,-1.19318 1.34087,2.16959 -0.80786,4.03983 -4.6414,4.03983 -2.38004,0 -3.70619,0.39777 -3.33399,1 0.33992,0.55 1.62648,1 2.85902,1 1.23254,0 2.66848,0.41792 3.19098,0.9287 0.5225,0.51079 2.525,1.07329 4.45,1.25 3.14144,0.28838 3.50357,0.62864 3.5349,3.3213 0.0263,2.25809 0.70635,3.32262 2.75,4.30457 2.89816,1.39252 3.78758,5.19543 1.2151,5.19543 -0.825,0 -1.48503,0.5625 -1.46673,1.25 0.0478,1.79723 3.54792,5.74432 5.12702,5.7818 2.07504,0.0493 4.62092,2.34723 4.99846,4.51172 0.29204,1.67435 -0.1614,1.91527 -3.14453,1.6707 -2.76724,-0.22687 -3.23104,-0.031 -2.25,0.95 0.67968,0.67968 1.23578,1.96093 1.23578,2.84722 0,0.88629 0.7875,2.5067 1.75,3.60092 4.07766,4.63567 5.32693,8.71841 3,9.80431 -1,0.46666 -1,0.7 0,1.16666 1.68892,0.78816 1.58982,4.34904 -0.13949,5.01264 -2.87616,1.10368 3.25494,13.83534 7.90325,16.41166 2.25482,1.24972 2.98624,2.36998 2.98624,4.57374 0,2.61087 -0.31998,2.90555 -3.03449,2.79462 -2.90106,-0.11856 -3.0164,0.0309 -2.6231,3.39982 0.37174,3.18429 0.20645,3.47023 -1.71551,2.96763 -2.16803,-0.56696 -2.93983,0.6361 -1.1269,1.75656 1.26488,0.78174 1.30585,4.19294 0.0596,4.96316 -0.51721,0.31965 -1.86721,-0.41364 -3,-1.62955 -2.02656,-2.17524 -2.05958,-2.17775 -2.05958,-0.15698 0,1.93129 3.17627,6.91369 5.46553,8.57342 0.68753,0.49847 0.60732,1.02622 -0.23916,1.57362 -0.97525,0.63067 -0.79955,1.25268 0.75,2.65499 1.11299,1.00725 2.02363,3.08506 2.02363,4.61736 0,1.5323 0.45,3.06411 1,3.40403 0.55,0.33992 1,1.84474 1,3.34404 0,1.96885 1.66651,4.46651 6,8.99241 3.3,3.44652 6,6.72223 6,7.27937 0,1.74358 15.83629,16.76058 20.5122,19.45101 1.01978,0.58676 2.33421,1.90119 2.92097,2.92097 0.58676,1.01977 1.74183,2.69178 2.56683,3.71558 0.825,1.02381 1.54403,2.18437 1.59785,2.57904 1.02093,7.48682 1.92874,9.51247 5.71579,12.75405 2.2255,1.90494 4.4038,3.46353 4.84068,3.46353 1.80673,0 3.84568,6.24875 3.84568,11.7858 l 0,5.88512 8,8.32908 c 4.4,4.58099 8,8.70504 8,9.16454 0,0.4595 0.88963,0.83546 1.97695,0.83546 1.08732,0 2.76863,1.2375 3.73625,2.75 0.96761,1.5125 2.29555,3.2 2.95097,3.75 2.19745,1.84399 3.34402,9.15168 3.39261,21.62275 0.0713,18.29509 0.0795,18.14094 -1.03012,19.25059 -1.17656,1.17656 -1.40808,7.60109 -0.27666,7.67694 9.21976,0.61806 13.25,2.29029 13.25,5.49772 0,0.68091 0.64099,1.48399 1.42443,1.78463 2.54783,0.97769 7.24283,14.00776 6.3195,17.53857 -0.39404,1.50681 0.0123,2.09539 1.60396,2.32342 1.19353,0.17098 2.29711,1.18558 2.50758,2.30538 0.20674,1.1 0.66134,2.225 1.01021,2.5 1.65423,1.30394 3.13432,5.31141 3.13432,8.48643 0,1.93246 0.49814,3.51357 1.10699,3.51357 0.60884,0 0.84797,0.675 0.53138,1.5 -0.31658,0.825 -0.13972,1.5 0.39301,1.5 0.53274,0 0.96862,-0.45 0.96862,-1 0,-0.55 1.51247,-1 3.36104,-1 2.94654,0 3.64596,0.53708 5.67135,4.35499 l 2.31032,4.35498 -2.17136,3.04939 c -2.46566,3.46271 -2.71179,5.3002 -0.94639,7.0656 0.96661,0.96661 0.96661,1.63864 0,3.18643 -0.67373,1.07881 -1.22496,3.99258 -1.22496,6.47504 0,2.48246 -0.45,4.51357 -1,4.51357 -1.58379,0 -1.12785,2.2797 1,5 1.98534,2.53811 2.89933,12.452 1.21388,13.16667 -1.61879,0.6864 -5.21388,6.72061 -5.21388,8.75127 0,1.16006 -0.41217,2.89059 -0.91593,3.84563 -0.50377,0.95504 -1.66154,3.44851 -2.57284,5.54106 -0.9113,2.09254 -2.74913,4.30227 -4.08407,4.91051 -1.33494,0.60824 -2.42716,1.44234 -2.42716,1.85355 0,0.41121 -2.0242,2.02648 -4.49821,3.58949 -2.47402,1.563 -4.49902,3.17932 -4.5,3.59182 -9.9e-4,0.4125 -0.44788,0.75 -0.99309,0.75 -0.54522,0 -2.28144,1.35 -3.85827,3 -1.57682,1.65 -3.15059,3 -3.49726,3 -0.34667,0 -1.54548,0.7875 -2.66401,1.75 -1.11854,0.9625 -2.93906,1.975 -4.04559,2.25 -1.83408,0.45581 -1.65786,0.8977 1.99389,5 3.31779,3.72714 4.01065,5.22847 4.03416,8.74153 0.0213,3.17833 -0.47295,4.55461 -1.97162,5.49054 -1.23634,0.77211 -2,2.33203 -2,4.0854 0,1.80161 -1.0664,3.90277 -2.92308,5.75945 -2.43161,2.43161 -3.74305,2.92308 -7.8,2.92308 -2.6823,0 -5.41692,0.54 -6.07692,1.2 -1.4498,1.4498 -1.60479,9.43179 -0.2,10.3 0.55,0.33992 1,2.13992 1,4 0,1.86008 0.45,3.66008 1,4 0.55,0.33992 1,2.36492 1,4.5 0,2.13508 0.45,4.16008 1,4.5 0.55,0.33992 1,1.94148 1,3.55902 0,1.61754 0.40835,2.94098 0.90745,2.94098 1.00262,0 1.95698,7.27474 2.55495,19.47555 0.21798,4.44768 0.86567,8.13381 1.46424,8.33333 0.59035,0.19678 1.07336,1.22029 1.07336,2.27445 0,1.05417 0.45,1.91667 1,1.91667 0.55,0 1,1.09844 1,2.44098 0,1.34254 -0.45,2.7191 -1,3.05902 -0.55,0.33992 -1,1.94148 -1,3.55902 0,1.61754 -0.45,2.94098 -1,2.94098 -0.55,0 -1,0.59015 -1,1.31144 0,0.72129 -0.9,2.27747 -2,3.45819 -1.65369,1.77503 -2,3.52899 -2,10.12954 0,4.39054 -0.45,8.26091 -1,8.60083 -0.55,0.33992 -1,1.26133 -1,2.04759 0,1.28173 -1.48624,3.50459 -4.55595,6.814 -1.72433,1.85897 -2.58271,4.93468 -1.55454,5.57012 0.52649,0.32539 1.26539,3.31523 1.64201,6.64409 0.68047,6.01462 0.66094,6.07709 -3.12257,9.98834 -4.10872,4.24742 -8.40895,11.68623 -8.40895,14.54632 0,0.97433 -0.45,2.04962 -1,2.38954 -0.55,0.33992 -1,2.36492 -1,4.5 0,2.13508 -0.45,4.16008 -1,4.5 -0.55,0.33992 -1,2.57898 -1,4.97568 0,2.39671 -0.49769,4.52355 -1.10599,4.72632 -0.64721,0.21573 -1.07767,2.73918 -1.03772,6.08333 0.0375,3.14307 -0.36477,5.71467 -0.89402,5.71467 -0.59718,0 -0.96227,12.68774 -0.96227,33.44098 0,18.4406 -0.39891,33.68753 -0.88932,33.99061 -0.48912,0.3023 -0.95828,5.59333 -1.04257,11.75785 -0.085,6.21351 -0.62752,11.77968 -1.21751,12.49058 -0.63412,0.76407 -0.79862,3.00766 -0.40702,5.55117 0.36148,2.34784 0.9045,6.95501 1.20671,10.23811 0.3793,4.1207 1.13793,6.4797 2.44959,7.6173 1.04507,0.9064 1.90012,2.2412 1.90012,2.9662 0,0.7251 0.99634,2.3789 2.2141,3.6751 1.86021,1.9801 2.02005,2.6675 1,4.30093 -0.66776,1.0692 -1.2141,2.6496 -1.2141,3.5119 0,0.8623 -1.34792,3.0059 -2.99537,4.7635 -1.64746,1.7577 -2.99746,3.5521 -3,3.9876 -0.003,0.4355 -0.90463,1.7579 -2.00463,2.9386 -2.82208,3.0291 -2.60315,8.2641 0.49984,11.9518 1.88642,2.2419 2.33923,3.6269 1.84529,5.6443 -0.36,1.4704 -1.03493,2.8235 -1.49984,3.0068 -0.46491,0.1834 -0.84529,0.7407 -0.84529,1.2386 0,0.4979 -0.7875,1.818 -1.75,2.9336 -0.9625,1.1155 -1.975,3.9332 -2.25,6.2614 -0.44026,3.7273 -0.82859,4.2709 -3.25,4.5495 -2.15997,0.2486 -2.75,0.8386 -2.75,2.75 0,1.3385 0.45,2.4336 1,2.4336 0.62698,0 1,6.2667 1,16.8 0,10.4978 0.39753,17.1975 1.05972,17.8597 0.7233,0.7233 0.90869,11.6598 0.58398,34.45 -0.46945,32.9487 -0.91521,40.466 -2.63232,44.3903 -0.95044,2.1722 -2.11255,8.0945 -2.06036,10.5 0.0843,3.8834 1.34578,10.5973 2.15141,11.45 2.33028,2.4664 -0.79796,9.55 -4.21744,9.55 -1.03674,0 -1.88499,0.45 -1.88499,1 0,0.55 -0.675,1 -1.5,1 -0.93333,0 -1.5,0.9444 -1.5,2.5 0,1.375 0.45,2.5 1,2.5 1.40089,0 1.25092,4.3491 -0.2,5.8 -0.93333,0.9333 -0.82222,1.2 0.5,1.2 0.935,0 1.7,0.45 1.7,1 0,0.55 0.70748,1 1.57217,1 2.52286,0 11.42783,9.0254 11.42783,11.5823 0,1.2381 0.46153,2.4049 1.02562,2.5929 0.56409,0.188 1.09359,2.9255 1.17667,6.0833 0.0831,3.1578 0.52156,5.7415 0.97439,5.7415 0.45282,0 0.82332,1.9984 0.82332,4.441 0,2.4425 0.45,4.7191 1,5.059 1.24756,0.771 1.29376,3.9663 0.0906,6.2636 -0.50019,0.955 -1.51269,3.1113 -2.25,4.7918 -2.3089,5.2625 -9.28261,15.4267 -10.59057,15.4359 -0.6875,0 -1.25,0.4587 -1.25,1.0087 0,0.55 -2.2132,1 -4.91821,1 -5.85216,0 -8.08179,0.7192 -8.08179,2.607 0,0.7661 -0.45,1.393 -1,1.393 -0.55,0 -1,0.8734 -1,1.941 0,1.0675 -0.45,2.2191 -1,2.559 -0.55,0.3399 -1,1.6899 -1,3 0,1.3101 -0.4324,2.6492 -0.96089,2.9758 -0.52849,0.3267 -0.9207,4.0464 -0.87157,8.2662 0.0568,4.8817 -0.32111,7.8092 -1.0391,8.0485 -0.62064,0.2069 -1.12844,1.2387 -1.12844,2.2928 0,1.0542 -0.34015,1.9167 -0.75589,1.9167 -0.41574,0 -1.31604,1.2655 -2.00067,2.8122 -0.68463,1.5466 -2.14448,3.7778 -3.24411,4.9581 -1.09963,1.1804 -1.99933,2.4379 -1.99933,2.7946 0,0.9344 -10.26144,10.4351 -11.27064,10.4351 -0.46565,0 -2.50775,1.3124 -4.538,2.9166 -5.01792,3.9646 -10.83934,7.0834 -13.22178,7.0834 -1.08327,0 -1.96958,0.45 -1.96958,1 0,0.55 -0.9,1 -2,1 -1.1,0 -2,0.45 -2,1 0,0.55 -2.25,1 -5,1 -2.75,0 -5,0.41 -5,0.9112 0,0.9113 -5.68677,1.668 -20.25,2.6947 -4.89572,0.3452 -7.75,0.1757 -7.75,-0.4602 z"
     id="path2987"
     inkscape:connector-curvature="0" />
</svg>
