<?xml version="1.0" encoding="UTF-8" standalone="no"?>
<!-- Created with Inkscape (http://www.inkscape.org/) -->

<svg
   xmlns:dc="http://purl.org/dc/elements/1.1/"
   xmlns:cc="http://creativecommons.org/ns#"
   xmlns:rdf="http://www.w3.org/1999/02/22-rdf-syntax-ns#"
   xmlns:svg="http://www.w3.org/2000/svg"
   xmlns="http://www.w3.org/2000/svg"
   xmlns:sodipodi="http://sodipodi.sourceforge.net/DTD/sodipodi-0.dtd"
   xmlns:inkscape="http://www.inkscape.org/namespaces/inkscape"
   id="svg2"
   version="1.1"
   inkscape:version="0.48.2 r9819"
   width="1330"
   height="1299"
   sodipodi:docname="howworldishoused00carp_0056b.png">
  <metadata
     id="metadata8">
    <rdf:RDF>
      <cc:Work
         rdf:about="">
        <dc:format>image/svg+xml</dc:format>
        <dc:type
           rdf:resource="http://purl.org/dc/dcmitype/StillImage" />
        <dc:title></dc:title>
      </cc:Work>
    </rdf:RDF>
  </metadata>
  <defs
     id="defs6" />
  <sodipodi:namedview
     pagecolor="#ffffff"
     bordercolor="#666666"
     borderopacity="1"
     objecttolerance="10"
     gridtolerance="10"
     guidetolerance="10"
     inkscape:pageopacity="0"
     inkscape:pageshadow="2"
     inkscape:window-width="1600"
     inkscape:window-height="876"
     id="namedview4"
     showgrid="false"
     fit-margin-top="0"
     fit-margin-left="0"
     fit-margin-right="0"
     fit-margin-bottom="0"
     inkscape:zoom="0.5"
     inkscape:cx="660.9998"
     inkscape:cy="652"
     inkscape:window-x="0"
     inkscape:window-y="24"
     inkscape:window-maximized="1"
     inkscape:current-layer="svg2" />
  <path
     style="fill:#000000"
     d="m 0.00993,1264.75 0.0101,-34.25 6.7398695,-2.1459 c 3.7069305,-1.1803 11.1293705,-3.9928 16.4943205,-6.25 9.74635,-4.1007 9.76543,-4.1041 23,-4.1285 7.28505,-0.014 15.04555,-0.4378 17.24555,-0.943 2.2,-0.5052 8.5,-1.3852 14,-1.9557 13.7236,-1.4234 29.5717,-7.3567 34.2064,-12.8066 1.7636,-2.0737 4.5439,-5.1203 6.1785,-6.7703 1.6347,-1.65 4.5898,-5.6909 6.5669,-8.9799 l 3.5948,-5.9798 -0.2733,-13.5202 c -0.2539,-12.562 -0.1141,-13.7681 1.973,-17.0201 2.5069,-3.9062 2.8718,-9.2576 0.8765,-12.8556 -2.242,-4.0431 0.5361,-13.4244 5.3242,-17.9792 4.6021,-4.3779 5.8661,-9.1893 4.0852,-15.5502 -1.9458,-6.9496 -0.01,-11.6862 6.5814,-16.059 6.7005,-4.4489 8.7511,-8.1671 7.9472,-14.4101 -0.3291,-2.5553 -0.2524,-5.0959 0.1705,-5.6459 0.4228,-0.55 3.6206,-2.3391 7.1063,-3.9757 3.4856,-1.6367 7.7738,-4.5617 9.5293,-6.5 3.8816,-4.2861 10.0462,-9.1945 14.2422,-11.3401 3.4106,-1.744 4.9387,-4.819 5.8064,-11.6842 0.9948,-7.8715 1.6377,-11.4034 2.7636,-15.1834 0.9559,-3.2095 0.8069,-4.1744 -1.1582,-7.5 -4.707,-7.9658 -6.3988,-20.75143 -3.4901,-26.37621 1.8278,-3.53459 1.9161,-6.41453 0.5806,-18.94039 -2.6732,-25.07307 -3.2259,-32.88587 -2.6529,-37.5 0.3415,-2.75 0.983,-11.66774 1.4256,-19.8172 0.7564,-13.92715 0.6698,-15.20319 -1.4406,-21.24285 -3.0421,-8.70599 -8.8172,-15.38079 -16.9429,-19.58244 -4.5905,-2.37366 -6.4943,-3.92431 -6.4969,-5.29179 0,-1.06385 -0.9308,-3.84946 -2.064,-6.19025 -3.2817,-6.77905 -14.0488,-14.33966 -28.2133,-19.81133 -6.4755,-2.50143 -13.501,-4.82427 -15.6121,-5.16186 -5.9708,-0.95476 -6.5745,-1.686 -6.6931,-8.10707 -0.059,-3.18736 -0.4572,-6.59935 -0.8853,-7.5822 -1.4091,-3.23547 -5.7233,-4.59583 -13.946,-4.39748 -4.6739,0.11274 -8.1227,-0.25254 -8.6757,-0.91889 -0.5048,-0.6083 -1.3458,-4.6589 -1.8688,-9.00132 -1.9131,-15.88359 -1.9147,-17.20361 -0.023,-18.91539 3.4654,-3.13614 3.1083,-6.4359 -1.1331,-10.4706 -4.78593,-4.55279 -5.02987,-7.78119 -0.97477,-12.90116 l 2.91437,-3.67965 -2.3279,-7.46426 C 83.22028,743.85892 81.59994,738.475 80.89984,736 c -1.46343,-5.17357 -1.39772,-19.90232 0.0955,-21.39549 1.66924,-1.66924 1.15316,-2.65673 -1.95463,-3.74011 -1.62753,-0.56736 -3.24856,-1.94343 -3.60229,-3.05794 -0.57277,-1.80465 0.99406,-6.91263 3.72299,-12.1372 0.74271,-1.42195 0.38484,-2.3603 -1.60266,-4.20225 -2.22613,-2.06311 -2.5589,-3.195 -2.5589,-8.70392 0,-3.76895 0.80963,-8.63595 2,-12.02277 1.1,-3.12969 2,-6.90952 2,-8.39961 0,-4.06319 -3.38005,-10.25959 -8.78919,-16.1126 C 65.69718,641.34432 65.06801,641 60.65727,641 c -6.44904,0 -10.2247,-1.79319 -16.48214,-7.82795 -6.12404,-5.9061 -11.5053,-7.94987 -16.4205,-6.23643 -1.6793,0.58541 -4.89863,1.06153 -7.15405,1.05806 -3.51406,-0.005 -4.34688,-0.43878 -5.82084,-3.02887 -1.59811,-2.80825 -1.60501,-3.26378 -0.0974,-6.42525 1.53503,-3.21898 1.50874,-3.66747 -0.48689,-8.30643 -1.80776,-4.20227 -1.94659,-5.43461 -0.97052,-8.61496 1.01448,-3.30547 2.23979,-4.32703 11.20695,-9.34345 5.53737,-3.09771 13.89294,-7.86801 18.56794,-10.60066 4.675,-2.73265 12.325,-7.08768 17,-9.67784 7.89087,-4.37191 24.8481,-14.03518 46.5,-26.49851 4.95,-2.84934 16.425,-9.35673 25.5,-14.46087 9.075,-5.10413 21,-11.87536 26.5,-15.04717 5.5,-3.17181 18.55,-10.5974 29,-16.50132 10.45,-5.90392 23.05,-13.07896 28,-15.94454 10.8132,-6.25981 16.7289,-9.63672 57.5,-32.82345 17.325,-9.85281 33.975,-19.26841 37,-20.92356 3.025,-1.65514 9.775,-5.45948 15,-8.45408 11.5773,-6.63527 8.6804,-4.98149 42,-23.97698 41.8331,-23.84901 48.1617,-27.62363 48.71,-29.0523 0.7443,-1.93966 9.0768,-7.31344 11.3401,-7.31344 4.8163,0 0.8127,-4.83193 -22.1586,-26.743 -9.3251,-8.8947 -11.3213,-10.32478 -16.5,-11.82094 -3.2403,-0.93614 -6.7791,-2.31722 -7.864,-3.06907 -1.0849,-0.75184 -2.6679,-1.36699 -3.5179,-1.36699 -0.8499,0 -3.2248,-1.14122 -5.2775,-2.53605 -3.4351,-2.33424 -3.7295,-2.91118 -3.6988,-7.25 0.039,-5.59101 2.3398,-8.88603 7.1735,-10.27526 3.8746,-1.11358 13.3322,1.55403 20.7537,5.85376 7.3489,4.25763 21.3918,15.74983 23.346,19.10553 0.9936,1.70611 2.1909,3.10202 2.6606,3.10202 0.4697,0 3.0318,2.20979 5.6935,4.91064 4.4153,4.48036 6.4624,5.53262 10.1248,5.20451 1.0092,-0.0904 1.1637,-3.06838 0.7192,-13.86515 -0.3113,-7.5625 -0.814,-16.45 -1.117,-19.75 -0.7862,-8.56163 -0.5767,-14.87254 0.5963,-17.95766 1.3618,-3.58184 1.2492,-9.73116 -0.3147,-17.19251 l -1.2891,-6.15017 4.0284,-6.09983 c 2.2156,-3.35491 4.3251,-6.09983 4.6878,-6.09983 0.3627,0 2.2313,0.65675 4.1524,1.45944 4.9196,2.05553 8.4292,9.4251 6.8849,14.45697 -0.8434,2.74791 -0.7584,4.09643 0.3964,6.29065 0.8085,1.53612 2.2423,4.25544 3.1862,6.04294 1.4341,2.71575 1.6871,5.79794 1.5393,18.75 -0.2215,19.39915 1.2625,35.80991 3.4574,38.23531 2.4113,2.66446 3.7496,2.20696 9.0507,-3.09412 2.6723,-2.67234 7.7562,-6.24843 11.2976,-7.94687 3.5413,-1.69844 10.9388,-6.48053 16.4388,-10.62686 5.5,-4.14633 13.15,-9.20304 17,-11.23712 3.85,-2.03409 9.475,-5.64026 12.5,-8.01371 3.025,-2.37346 5.95,-4.30747 6.5,-4.2978 0.55,0.01 2.9802,1.35938 5.4005,2.99937 2.4202,1.63999 5.0356,2.9818 5.8119,2.9818 1.9911,0 11.3574,-4.54412 20.2388,-9.81906 4.1518,-2.4659 10.0238,-5.82344 13.0488,-7.46119 6.2229,-3.36913 20.7155,-11.56655 42,-23.7564 7.975,-4.56737 16.8053,-9.50622 19.6229,-10.97522 2.8176,-1.46901 6.4176,-3.59082 8,-4.71513 1.5824,-1.12432 4.4678,-2.70729 6.412,-3.51772 1.9442,-0.81043 6.8942,-3.50369 11,-5.98502 4.1058,-2.48134 9.4901,-5.5266 11.9651,-6.76726 2.475,-1.24066 8.55,-4.62764 13.5,-7.52663 4.95,-2.89899 18.45,-10.57144 30,-17.0499 11.55,-6.47846 31.35,-17.60575 44,-24.72732 12.65,-7.12157 24.7172,-13.55778 26.8161,-14.30268 8.8502,-3.14108 13.013,-8.77355 10.6681,-14.43469 -0.6922,-1.67102 -2.0592,-3.46674 -3.0379,-3.99049 -0.9786,-0.52376 -5.3707,-5.60449 -9.7601,-11.29053 -4.3895,-5.68603 -11.0123,-13.00281 -14.7173,-16.2595 -7.1374,-6.27367 -11.0868,-10.12526 -15.9689,-15.57344 -1.65,-1.8413 -5.5668,-5.59782 -8.704,-8.34782 l -5.7041,-5 -8.4588,0.347747 c -7.9861,0.328309 -8.5459,0.21504 -10.0145,-2.026368 -1.3749,-2.098373 -1.3917,-2.99522 -0.1449,-7.721777 1.6335,-6.192386 4.4531,-9.647359 9.8945,-12.124202 3.7969,-1.728288 3.9681,-1.716633 9.2785,0.631919 2.9757,1.315974 6.0866,2.392681 6.9132,2.392681 0.8266,0 1.7683,0.691643 2.0927,1.536985 0.3243,0.845342 1.8999,2.214507 3.5013,3.042588 1.6013,0.828082 2.6452,1.936438 2.3198,2.463015 -0.3255,0.526577 0.01,0.957412 0.7462,0.957412 0.7358,0 4.2369,2.925 7.7801,6.5 3.5432,3.575 6.9342,6.5 7.5356,6.5 1.0823,0 15.6791,11.79123 16.2722,13.14467 0.1694,0.38634 4.4444,4.21201 9.5,8.50147 5.0557,4.28947 9.5521,8.37387 9.9919,9.07645 0.4398,0.70257 1.5294,1.27741 2.4212,1.27741 0.8919,0 2.4162,0.71908 3.3873,1.59796 0.9712,0.87888 2.2413,1.30406 2.8225,0.94485 1.4622,-0.90367 0.2453,-41.523804 -1.3016,-43.445923 -1.0251,-1.273936 -1.5363,-36.963283 -0.7124,-49.740801 0.147,-2.279152 -0.2957,-5.195649 -0.9836,-6.481103 -0.688,-1.285454 -1.3749,-3.719877 -1.5266,-5.409829 -0.1516,-1.689952 -0.3584,-3.498456 -0.4595,-4.018897 -0.1011,-0.520441 -0.1306,-1.454692 -0.065,-2.076112 C 819.0361,7.894325 829.5015,0 831.3033,0 c 2.7154,0 7.3949,3.029404 11.1748,7.234435 l 3.8343,4.265565 -2.1563,6.187416 c -2.6634,7.642535 -2.6736,10.118416 -0.1093,26.61494 1.5848,10.195417 2.5273,13.680082 4.1743,15.433221 1.17,1.245433 1.8135,2.264423 1.43,2.264423 -0.3836,0 -0.027,1.023427 0.7928,2.274283 1.3556,2.069014 1.2758,2.736773 -0.8839,7.398435 -2.342,5.054928 -2.3585,5.311272 -1.2171,18.975716 0.6363,7.618356 0.8607,18.351566 0.4987,23.851566 -0.362,5.5 -0.4442,10.7875 -0.1826,11.75 0.8545,3.14449 3.6765,1.85582 9.8543,-4.5 3.3411,-3.4375 7.7768,-7.375 9.8571,-8.75 2.0802,-1.375 4.9386,-3.5125 6.3518,-4.75 1.4133,-1.2375 2.8414,-2.25635 3.1736,-2.26412 0.3322,-0.008 2.629,-1.79595 5.104,-3.97375 5.9368,-5.22393 5.8089,-5.12315 11,-8.66651 2.475,-1.68939 5.625,-3.418356 7,-3.842139 1.375,-0.423782 4.1517,-2.069909 6.1705,-3.65806 4.9736,-3.912705 11.8255,-6.820748 17.7143,-7.518188 4.3064,-0.510026 5.5421,-0.184012 10.4664,2.761346 8.4716,5.06707 9.3937,9.081104 3.3785,14.706211 -2.6547,2.4825 -13.7744,4.81214 -18.5823,3.89306 -3.2181,-0.61519 -10.142,4.15878 -15.4806,10.67393 -1.9732,2.40797 -7.6059,7.37007 -12.5173,11.02688 -8.229,6.12703 -21.9794,20.61298 -25.0324,26.37146 -1.0419,1.96515 -0.8671,2.56707 1.3394,4.61201 1.3958,1.29354 4.4515,3.65022 6.7906,5.23707 2.3391,1.58684 4.4779,3.11246 4.7529,3.39024 0.275,0.27779 3.875,3.18669 8,6.46421 4.125,3.27753 8.4,6.96593 9.5,8.19644 1.1,1.23051 5.7483,4.51208 10.3296,7.29239 7.4031,4.49284 16.5011,10.87031 27.1704,19.04568 13.4167,10.28057 35.0759,25.8224 54.4035,39.03789 4.4531,3.04483 12.8215,8.93524 18.5965,13.08981 5.775,4.15457 12.975,9.28734 16,11.40617 3.025,2.11883 9.325,6.54676 14,9.83985 4.675,3.29309 11.7491,8.26909 15.7202,11.05778 3.9711,2.78869 12.947,9.12034 19.9465,14.07034 6.9995,4.95 16.1254,11.38206 20.2798,14.29347 11.9255,8.35737 21.9744,15.40605 27.4777,19.27394 2.7917,1.96207 9.5758,6.71519 15.0758,10.56248 5.5,3.84729 20.125,14.13589 32.5,22.86355 19.3162,13.62306 59.8711,42.13808 74.0901,52.0944 12.457,8.72254 79.9255,57.113 83.1599,59.64479 l 3.75,2.93543 0,8.83441 0,8.83441 -3.603,2.22679 c -1.9817,1.22473 -4.4018,3.54032 -5.3782,5.14575 -0.9763,1.60544 -5.9924,5.65254 -11.1469,8.99357 -10.4308,6.76096 -14.2535,7.65828 -19.8571,4.66112 -1.9783,-1.05812 -5.5122,-1.86411 -8.1733,-1.86411 -5.4895,0 -9.5954,2.85417 -12.2976,8.54876 -0.9323,1.96461 -2.321,3.81221 -3.0861,4.1058 -0.765,0.29358 -2.9537,3.30391 -4.8636,6.68961 -1.9638,3.48109 -4.7359,6.8577 -6.3798,7.77116 -1.599,0.88843 -4.2138,3.33473 -5.8108,5.43621 l -2.9036,3.82089 0.3244,18.17852 c 0.3014,16.88579 0.1757,18.45481 -1.7671,22.06379 -2.1396,3.97462 -2.132,5.3868 0.075,14.00529 0.9387,3.66568 0.769,4.65732 -1.5385,8.99204 -3.1365,5.89181 -3.1758,6.83137 -0.4947,11.83361 2.4192,4.5138 2.0813,9.32052 -1.0925,15.54182 -1.0674,2.09219 -2.8782,7.30267 -4.0242,11.57886 -2.4039,8.97059 -1.6774,12.50567 3.0754,14.96342 4.1324,2.13697 4.5708,6.03738 1.499,13.33584 -1.5385,3.65528 -2.5566,7.97781 -2.5566,10.85462 0,2.62928 -0.6672,7.93034 -1.4826,11.78013 -0.8155,3.8498 -1.4905,11.43664 -1.5,16.85965 -0.016,9.16741 -0.2432,10.28364 -3.2316,15.89054 -3.3242,6.23675 -6.8241,8.74944 -12.187,8.74944 -2.0568,0 -19.5027,7.98904 -28.5988,13.0963 -5.7257,3.21486 -13.6973,10.11122 -16.5,14.2744 -3.435,5.10242 -5.5342,6.65271 -9.7266,7.18329 -4.3518,0.55075 -9.0729,3.63186 -10.6874,6.97479 -1.1806,2.44467 -1.2085,4.0042 -0.1691,9.44955 1.384,7.24985 1.6838,29.3639 0.5586,41.20593 -0.6164,6.48732 -0.3668,8.97957 1.6021,16 1.9185,6.84067 2.3315,10.71042 2.3283,21.81574 0,7.425 -0.1234,15.525 -0.2696,18 -0.1462,2.475 0.4383,6.46908 1.299,8.87573 2.0193,5.64699 2.2982,44.94346 0.3438,48.44001 -1.0747,1.92257 -1.8941,15.81441 -1.7362,29.43426 0.027,2.3375 -0.354,4.25 -0.8468,4.25 -0.4928,0 0.1578,3.6384 1.4459,8.0854 1.288,4.4469 2.7532,10.6344 3.2559,13.75 2.0445,12.6698 6.3268,17.9635 13.4503,16.6271 2.3745,-0.4455 4.492,0.01 7.5945,1.6246 5.3003,2.7627 9.0325,9.8529 9.0475,17.1877 0.01,4.2437 -0.2836,4.8862 -2.6284,5.7777 -1.451,0.5517 -8.2601,1.288 -15.1314,1.6363 -10.9169,0.5533 -12.8173,0.9119 -15.0618,2.8426 -3.675,3.1611 -3.4945,8.232 0.4691,13.178 1.6707,2.0848 3.5068,4.6906 4.0802,5.7906 1.8963,3.6377 4.4387,16.8474 5.1965,27 0.6568,8.7983 1.1295,10.6177 3.9342,15.1401 4.8447,7.812 6.8721,15.4267 7.4177,27.8599 0.5623,12.8166 2.0239,17.0941 7.1865,21.0318 5.0946,3.8859 6.1734,6.5778 6.9577,17.3624 0.3757,5.1667 1.3371,10.9592 2.1363,12.8721 0.7993,1.9129 1.4598,5.7855 1.4679,8.6058 0.016,5.4228 1.5009,9.4166 3.9853,10.7163 8.7671,4.5866 22.1751,9.9036 25,9.9137 1.375,0.01 4.075,0.4381 6,0.9624 6.0678,1.6528 19.0077,3.1899 33.5,3.9795 14.2924,0.7786 22.4128,2.6137 38,8.5872 3.3,1.2646 8.925,2.8181 12.5,3.4522 3.575,0.634 7.5125,1.3557 8.75,1.6038 l 2.25,0.4509 0,26.981 0,26.9809 -665,0 -665,0 0.0101,-34.25 z M 321.9998,426.5 c 2.2854,-1.30647 2.3233,-1.43217 0.4411,-1.46456 -1.1324,-0.0195 -2.9324,0.62525 -4,1.43276 -2.6174,1.97972 0.1087,2.00408 3.5589,0.0318 z m 17,-10.05902 c 0,-0.24254 -0.45,-0.44098 -1,-0.44098 -0.55,0 -1,0.47656 -1,1.05902 0,0.58246 0.45,0.7809 1,0.44098 0.55,-0.33992 1,-0.81648 1,-1.05902 z"
     id="path2987"
     inkscape:connector-curvature="0" />
</svg>
