<?xml version="1.0" encoding="UTF-8" standalone="no"?>
<!-- Created with Inkscape (http://www.inkscape.org/) -->

<svg
   xmlns:dc="http://purl.org/dc/elements/1.1/"
   xmlns:cc="http://creativecommons.org/ns#"
   xmlns:rdf="http://www.w3.org/1999/02/22-rdf-syntax-ns#"
   xmlns:svg="http://www.w3.org/2000/svg"
   xmlns="http://www.w3.org/2000/svg"
   xmlns:sodipodi="http://sodipodi.sourceforge.net/DTD/sodipodi-0.dtd"
   xmlns:inkscape="http://www.inkscape.org/namespaces/inkscape"
   id="svg2"
   version="1.1"
   inkscape:version="0.48.2 r9819"
   width="943"
   height="604.99457"
   sodipodi:docname="knightstemplars00addirich_0075b.png">
  <metadata
     id="metadata8">
    <rdf:RDF>
      <cc:Work
         rdf:about="">
        <dc:format>image/svg+xml</dc:format>
        <dc:type
           rdf:resource="http://purl.org/dc/dcmitype/StillImage" />
        <dc:title></dc:title>
      </cc:Work>
    </rdf:RDF>
  </metadata>
  <defs
     id="defs6" />
  <sodipodi:namedview
     pagecolor="#ffffff"
     bordercolor="#666666"
     borderopacity="1"
     objecttolerance="10"
     gridtolerance="10"
     guidetolerance="10"
     inkscape:pageopacity="0"
     inkscape:pageshadow="2"
     inkscape:window-width="1600"
     inkscape:window-height="876"
     id="namedview4"
     showgrid="false"
     fit-margin-top="0"
     fit-margin-left="0"
     fit-margin-right="0"
     fit-margin-bottom="0"
     inkscape:zoom="1"
     inkscape:cx="470.5"
     inkscape:cy="305"
     inkscape:window-x="0"
     inkscape:window-y="24"
     inkscape:window-maximized="1"
     inkscape:current-layer="svg2" />
  <path
     style="fill:#000000"
     d="m 0,588.71015 0,-16.28439 2.90429,-1.71561 c 1.59736,-0.94359 3.40371,-1.71561 4.0141,-1.71561 0.61039,0 2.46353,-1.4625 4.11809,-3.25 2.66849,-2.8829 2.94796,-3.75829 2.47421,-7.75 -0.29374,-2.475 -0.53226,-7.1429 -0.53004,-10.3731 0.002,-3.69956 -0.73331,-7.53998 -1.98831,-10.37712 -2.33652,-5.28209 -2.53116,-9.03549 -0.61074,-11.77727 0.75988,-1.08488 1.32238,-2.42251 1.25,-2.97251 -0.0724,-0.55 0.8809,-1.44421 2.1184,-1.98713 1.2375,-0.54292 2.25,-1.5399 2.25,-2.21552 0,-0.67562 1.34265,-2.6019 2.98366,-4.28064 1.64102,-1.67873 3.16978,-4.05675 3.39725,-5.28448 0.56019,-3.02351 2.77741,-7.73223 3.64093,-7.73223 0.38545,0 0.49823,-1.05977 0.25062,-2.35505 -0.24761,-1.29527 0.21566,-4.33277 1.02949,-6.75 1.58897,-4.71954 1.07394,-11.13166 -1.29316,-16.09989 -1.56991,-3.29504 -0.45912,-6.53838 5.06706,-14.79506 2.02463,-3.025 4.45191,-7.01961 5.39396,-8.87692 0.94205,-1.8573 3.47172,-5.05013 5.6215,-7.09516 3.96848,-3.77512 4.15571,-4.40826 4.14848,-14.02792 -10e-4,-1.375 0.50709,-2.83061 1.12917,-3.23469 0.71587,-0.46501 0.48867,-0.74031 -0.61896,-0.75 -2.22179,-0.0194 -2.34768,-4.34569 -0.24384,-8.37962 C 47.32777,417.05486 48,415.32287 48,414.78136 c 0,-1.69365 3.2333,-7.88685 3.81423,-7.30592 0.30382,0.30382 1.16678,-0.90876 1.91769,-2.69463 1.08871,-2.5893 1.55489,-2.94716 2.30136,-1.76666 0.74362,1.17601 0.93924,1.01776 0.95141,-0.76961 0.008,-1.2375 0.87781,-3.1125 1.93198,-4.16667 1.05416,-1.05416 1.66476,-2.16857 1.35687,-2.47646 -0.30789,-0.30789 0.17961,-0.84353 1.08333,-1.19032 C 62.43609,393.99696 63,392.61145 63,390.37398 c 0,-1.87362 0.43582,-4.18797 0.96849,-5.14301 1.809,-3.24342 4.0316,-11.29355 4.00927,-14.52138 -0.0322,-4.64822 -2.69236,-7.28265 -9.22776,-9.13828 -3.46178,-0.98293 -5.75,-2.1862 -5.75,-3.02367 0,-2.54544 3.47477,-7.54036 5.25,-7.54678 0.9625,-0.003 1.75,-0.44775 1.75,-0.98727 0,-0.53952 1.12892,-1.26429 2.5087,-1.61059 1.52039,-0.38159 2.74497,-1.57096 3.10841,-3.01905 0.32984,-1.31418 1.03306,-2.38941 1.56273,-2.38941 1.24642,0 3.82016,-2.5747 3.82016,-3.82158 0,-0.53044 0.72639,-1.24318 1.6142,-1.58387 1.10491,-0.42399 1.46067,-1.42258 1.12758,-3.16502 -0.31053,-1.62442 -0.0804,-2.39729 0.6358,-2.13577 0.61733,0.2254 4.72242,-3.30419 9.12242,-7.84354 7.08786,-7.31235 7.99651,-8.67238 7.96937,-11.92835 -0.0169,-2.02124 0.32065,-3.89209 0.75,-4.15745 C 92.64871,308.09361 93,307.10319 93,306.15803 c 0,-2.80957 3.04785,-6.51564 4.31573,-5.24776 1.65361,1.65361 2.88413,1.29344 2.27449,-0.66573 -0.29951,-0.9625 -0.11173,-2.425 0.4173,-3.25 0.85498,-1.33333 0.96693,-1.33333 1.00758,0 0.0351,1.15214 0.28998,1.08008 1.09899,-0.31074 0.5793,-0.9959 0.7982,-2.47544 0.48645,-3.28785 -0.31175,-0.81242 0.10059,-1.73323 0.91632,-2.04625 0.81573,-0.31303 1.48314,-1.29159 1.48314,-2.17458 0,-0.883 1.2375,-2.66741 2.75,-3.96535 1.5125,-1.29794 2.1875,-2.07579 1.5,-1.72855 -0.6875,0.34725 -1.25,0.1916 -1.25,-0.34588 0,-0.53747 -0.2881,-1.72801 -0.64023,-2.64563 -0.47026,-1.22548 -0.13841,-1.61483 1.25,-1.46663 3.11627,0.33264 3.97464,-0.006 2.45453,-0.96764 -1.18527,-0.75 -1.20911,-1.18149 -0.13669,-2.47367 0.71445,-0.86087 1.65086,-1.34775 2.08091,-1.08196 0.43005,0.26578 1.04154,-0.19335 1.35887,-1.02029 0.31733,-0.82694 0.99448,-1.38686 1.50478,-1.24426 0.51031,0.14261 1.0428,-0.19072 1.18331,-0.74072 0.14052,-0.55 0.80206,-2.35 1.4701,-4 0.66804,-1.65 1.01057,-3.5625 0.76118,-4.25 -0.24938,-0.6875 -0.017,-1.25 0.51641,-1.25 0.99416,0 2.27076,-4.73519 2.35897,-8.75 0.0272,-1.2375 0.47839,-2.25 1.00266,-2.25 0.52428,0 0.69887,-0.41157 0.38799,-0.91459 -0.31089,-0.50302 5e-5,-1.17802 0.69098,-1.5 0.99552,-0.46392 0.99867,-0.70585 0.0152,-1.16577 -0.96084,-0.44931 -0.92524,-0.89618 0.15765,-1.97908 0.94702,-0.94702 1.22455,-2.69723 0.8594,-5.41964 -0.35461,-2.64355 -0.1517,-4.02092 0.59231,-4.02092 0.62242,0 1.13167,0.75 1.13167,1.66667 0,1.87577 1.04035,1.24146 1.35316,-0.82504 0.11169,-0.7379 0.48262,-1.79163 0.82428,-2.34163 0.34166,-0.55 0.52922,-2.575 0.41681,-4.5 -0.11396,-1.95151 0.87369,-5.93335 2.23236,-9 1.34022,-3.025 2.6009,-6.79922 2.80151,-8.38715 0.20062,-1.58794 1.15386,-3.48613 2.11832,-4.2182 1.23343,-0.93624 1.35106,-1.34048 0.39657,-1.36285 -0.89411,-0.0209 -1.11364,-0.62874 -0.64357,-1.7818 1.5144,-3.71475 1.69663,-8.24962 0.33214,-8.26531 -0.99628,-0.0115 -0.95387,-0.25941 0.16842,-0.98469 0.825,-0.53316 1.13036,-0.97627 0.67857,-0.98469 -0.45178,-0.008 -0.11428,-0.72245 0.75,-1.58674 1.78302,-1.78302 2.05728,-3.42857 0.57143,-3.42857 -0.55,0 -1,0.525 -1,1.16667 0,0.64166 -0.26985,0.89681 -0.59966,0.567 -0.86356,-0.86356 1.56714,-7.73367 2.73623,-7.73367 0.5398,0 0.69117,-0.46971 0.33636,-1.0438 -0.35481,-0.5741 -0.10127,-1.6991 0.56342,-2.5 0.85115,-1.02557 0.87661,-1.4562 0.0861,-1.4562 -1.37353,0 -1.50272,-2.7028 -0.15136,-3.16667 0.93394,-0.32058 1.79886,-3.44362 1.95461,-7.05765 0.0961,-2.23074 5.40286,-4.97026 8.31568,-4.29284 1.88606,0.43863 9.3932,1.23915 17.00863,1.8137 0.9625,0.0726 1.75,0.42978 1.75,0.79369 0,0.75278 17.00672,4.22093 18.51485,3.7757 0.54183,-0.15996 1.88538,0.21052 2.98567,0.82328 2.90522,1.61796 20.56646,0.94016 23.59255,-0.90542 1.32381,-0.80738 4.30451,-2.05613 6.62379,-2.775 2.31927,-0.71887 3.99416,-1.66735 3.72199,-2.10774 -0.6151,-0.99525 3.2954,-3.18333 4.43284,-2.48035 0.78673,0.48622 7.97504,-2.62927 18.28917,-7.92671 2.66375,-1.36813 5.70949,-2.20372 7.10814,-1.9501 1.73147,0.31397 3.34003,-0.40938 5.49947,-2.47306 1.6787,-1.60426 3.25342,-2.71561 3.49936,-2.46967 0.24594,0.24595 1.01639,-0.2387 1.71211,-1.07699 0.69572,-0.8383 1.88485,-1.52417 2.6425,-1.52417 0.75766,0 1.37756,-0.45 1.37756,-1 0,-0.55 0.70714,-1 1.57143,-1 1.95616,0 4.42857,-2.38588 4.42857,-4.27358 0,-0.77905 0.88939,-2.22133 1.97642,-3.20508 1.08703,-0.98375 1.73547,-2.17849 1.44098,-2.65499 -0.29449,-0.47649 0.14451,-0.86635 0.97554,-0.86635 0.83104,0 2.83022,-1.9125 4.44262,-4.25 1.61241,-2.3375 3.90036,-5.12202 5.08434,-6.18783 1.18398,-1.06581 2.97638,-3.76581 3.98312,-6 2.11847,-4.70139 5.50255,-8.82327 6.45883,-7.86698 1.02218,1.02217 3.48555,-2.92928 2.8533,-4.57691 -0.3999,-1.0421 -0.0881,-1.2835 1.07922,-0.83556 1.91058,0.73316 3.33363,-0.85654 1.46186,-1.63306 -0.89228,-0.37016 -0.66271,-1.04677 0.7924,-2.335413 1.12675,-0.99784 2.36107,-2.63027 2.74294,-3.62763 0.38187,-0.99736 1.14748,-1.5333 1.70137,-1.19099 0.55769,0.34468 1.00706,-0.34411 1.00706,-1.5436 0,-1.48066 0.4585,-1.99006 1.44907,-1.60995 0.85795,0.32923 1.27797,0.0669 1.02964,-0.64301 -0.2307,-0.65949 0.35472,-2.09907 1.30092,-3.19907 1.39068,-1.616727 2.92973,-1.992489 8.03107,-1.960808 3.47088,0.02156 6.62088,0.504379 7,1.072941 0.37911,0.568563 1.50532,1.335248 2.50268,1.703746 0.99736,0.368497 1.54552,1.103404 1.21814,1.633126 -0.32739,0.529725 0.57937,1.732775 2.01501,2.673435 2.16003,1.41531 2.34844,1.85683 1.09233,2.55979 -1.57489,0.88135 -1.54241,1.60451 0.46342,10.317773 1.24164,5.39368 2.73046,9.01413 9.51167,23.1302 2.41233,5.02161 4.38605,9.64823 4.38605,10.28138 0,0.63316 0.675,1.41021 1.5,1.72679 0.825,0.31659 1.5,1.39532 1.5,2.39719 0,1.00187 0.5815,2.41623 1.29223,3.14301 0.71073,0.72679 1.92302,2.89643 2.69398,4.82143 0.77096,1.925 2.37827,5.3 3.57181,7.5 1.19354,2.2 2.71569,5.6861 3.38255,7.7469 0.66687,2.06079 2.07519,4.35116 3.1296,5.08969 1.05441,0.73854 1.61997,1.63994 1.2568,2.0031 -0.36317,0.36317 -0.10875,0.66031 0.56538,0.66031 0.67413,0 0.94544,0.45345 0.60291,1.00767 -0.34253,0.55422 0.0851,1.7155 0.95017,2.58062 0.86513,0.86512 1.31726,1.98667 1.00474,2.49233 -0.31251,0.50566 -0.10547,0.91938 0.46008,0.91938 0.56556,0 2.57116,2.3625 4.45689,5.25 1.88572,2.8875 4.59955,6.46786 6.03073,7.95636 1.43117,1.48849 2.60213,3.40099 2.60213,4.25 0,0.849 0.3421,1.54364 0.76022,1.54364 0.41812,0 1.99312,1.14321 3.5,2.54047 1.50688,1.39726 2.73978,2.2474 2.73978,1.88922 0,-0.35819 0.89086,0.41109 1.97968,1.70953 1.69218,2.01792 2.12787,2.14293 3,0.86078 0.69969,-1.02863 1.256,-1.15633 1.77032,-0.40637 0.53767,0.78401 1.58817,0.74547 3.71054,-0.13613 2.56167,-1.06407 2.6964,-1.29684 1,-1.72763 -1.73794,-0.44134 -1.70508,-0.51104 0.28946,-0.61387 1.2375,-0.0638 2.25,0.36432 2.25,0.95139 0,0.66444 0.8494,0.78175 2.25,0.31076 1.2375,-0.41614 3.15,-0.81343 4.25,-0.88286 1.1,-0.0694 2.18288,-0.54677 2.4064,-1.06076 0.22353,-0.51399 1.79853,-1.40648 3.5,-1.9833 1.70148,-0.57682 2.9811,-1.58932 2.8436,-2.25 -0.1375,-0.66068 0.23032,-1.20123 0.81739,-1.20123 0.58706,0 0.8329,-0.7875 0.54632,-1.75 -0.28659,-0.9625 -0.19459,-6.3994 0.20445,-12.082 0.39903,-5.68259 0.42102,-10.52018 0.0489,-10.75019 -0.37216,-0.23 -0.43581,-2.2138 -0.14145,-4.40843 0.3266,-2.43503 0.0581,-4.56512 -0.68892,-5.46522 -1.14357,-1.37792 -0.85409,-8.41249 0.4318,-10.49311 1.17811,-1.90622 -1.83723,-12.64586 -4.29603,-15.30105 -1.65545,-1.78767 -2.06121,-2.75 -1.15951,-2.75 1.07885,0 1.12042,-0.26667 0.18709,-1.2 -2.01232,-2.01232 -1.48988,-5.8 0.8,-5.8 1.11111,0 2,-0.66667 2,-1.5 0,-0.825 0.675,-1.5 1.5,-1.5 1.43512,0 2.01462,-1.35793 1.49362,-3.5 -0.13377,-0.55 -0.39113,-3.3625 -0.57191,-6.25 -0.22791,-3.64034 0.0448,-5.25 0.88961,-5.25 0.67006,0 2.8975,-0.9 4.94986,-2 3.8568,-2.06712 10.46378,-2.63283 13.50239,-1.15613 0.95504,0.46413 2.69708,1.33556 3.8712,1.93652 2.90209,1.48537 6.36523,0.43979 6.36523,-1.92177 0,-1.17285 1.05968,-2.2929 2.75,-2.90666 1.5125,-0.5492 4.55,-1.88442 6.75,-2.96714 2.2,-1.082733 5.575,-2.084753 7.5,-2.226713 2.22092,-0.16378 3.76231,-0.89765 4.21778,-2.00811 0.88002,-2.14557 2.64373,-2.27448 3.42059,-0.25 0.31659,0.825 1.2455,1.5 2.06425,1.5 0.81875,0 2.68311,0.83161 4.14301,1.84802 3.66518,2.551753 11.48593,4.350153 14.34243,3.298063 3.03526,-1.11793 9.447,-0.29073 10.85001,1.39979 0.60949,0.73439 1.75599,1.08665 2.54778,0.78281 0.79179,-0.30384 2.10316,-0.002 2.91415,0.67132 0.81099,0.67306 2.1887,0.9497 3.06157,0.61475 2.74828,-1.05462 4.8534,2.18086 4.55682,7.00363 -0.23878,3.88297 0.0169,4.48257 2.27839,5.34238 3.53262,1.3431 4.44934,5.49111 1.84418,8.3446 -3.14603,3.44593 -4.09159,12.39137 -2.92741,27.69464 0.72341,9.50917 1.37578,11.06861 4.18382,10.001 1.26334,-0.48032 2.557,-0.61329 2.8748,-0.29549 0.3178,0.3178 1.37716,-0.40933 2.35413,-1.61583 0.97697,-1.20651 2.45072,-2.349 3.275,-2.53888 4.45556,-1.02638 6.09793,-1.87144 4.97999,-2.56236 -0.89139,-0.55091 -0.90794,-1.25698 -0.0663,-2.82958 0.93983,-1.75609 1.53704,-1.9375 3.68716,-1.12003 2.10736,0.80122 2.86552,0.6052 4.24411,-1.09729 1.39569,-1.7236 2.12322,-1.90365 4.31895,-1.06883 1.45229,0.55216 2.93579,1.48168 3.29668,2.06561 0.36088,0.58392 1.1696,1.06168 1.79714,1.06168 0.82185,0 0.80535,-0.33563 -0.059,-1.2 -2.04227,-2.04227 -1.33803,-2.94003 2.05,-2.61336 2.13449,0.2058 3.87363,-0.31027 5.06691,-1.50355 1.37563,-1.37563 2.14336,-1.54599 3.16097,-0.70144 0.9889,0.82071 1.52644,0.82037 2.03424,-0.001 0.3796,-0.6142 1.27567,-0.89205 1.99126,-0.61745 0.7156,0.2746 1.60758,0.19277 1.98219,-0.18183 0.3746,-0.37461 0.9811,-0.71599 1.34776,-0.75863 6.50339,-0.7563 8.73143,-2.03697 8.25997,-4.74783 -0.0789,-0.45395 0.72458,-0.54983 1.78562,-0.21307 1.34895,0.42814 3.06979,-0.43266 5.72172,-2.86215 2.0859,-1.91095 4.12299,-3.27023 4.52685,-3.02063 0.40385,0.2496 1.9561,-0.67852 3.44942,-2.06249 1.49332,-1.38396 3.29176,-2.5163 3.99653,-2.5163 0.70477,0 2.16632,-1.125 3.2479,-2.5 1.08158,-1.375 2.57674,-2.51618 3.32258,-2.53596 2.09225,-0.0555 7.19138,-4.61249 6.46904,-5.78126 -0.3531,-0.57133 0.34244,-1.35124 1.54564,-1.73312 1.20321,-0.38188 3.05911,-1.50621 4.12422,-2.49852 1.06511,-0.9923 2.6747,-1.57551 3.57687,-1.29603 1.42837,0.4425 1.41621,0.32333 -0.0942,-0.92235 -1.9582,-1.6153 -1.35591,-2.73303 1.47253,-2.73303 2.09073,0 4.7619,-2.22179 4.7619,-3.9608 0,-0.607 1.0125,-1.51062 2.25,-2.00804 1.2375,-0.49741 1.6875,-0.93291 1,-0.96777 -0.6875,-0.0349 -1.25,-0.75878 -1.25,-1.6087 0,-1.22239 0.72625,-1.40907 3.47537,-0.89333 3.08214,0.57821 4.00324,0.18733 8.14079,-3.454693 2.56598,-2.25867 5.08421,-4.10667 5.59606,-4.10667 0.51185,0 1.4943,-0.5625 2.18323,-1.25 0.68893,-0.6875 2.6777,-2.375 4.4195,-3.75 1.7418,-1.375 3.17098,-2.8375 3.17598,-3.25 0.005,-0.4125 0.90907,-1.65 2.00907,-2.75 1.1,-1.1 2,-1.480256 2,-0.845012 0,0.691042 0.73458,0.490197 1.82874,-0.5 1.00581,-0.910244 2.35581,-1.654988 3,-1.654988 0.64419,0 1.17126,-0.45 1.17126,-1 0,-0.55 0.465,-1 1.03333,-1 1.4547,0 7.96667,-6.675449 7.96667,-8.166667 0,-0.936408 0.27958,-0.953757 1.16127,-0.07206 C 683.55088,72.145414 689,69.375025 689,67.278929 c 0,-0.706415 0.45,-1.284392 1,-1.284392 0.55,0 1,-0.727484 1,-1.616631 0,-1.09435 0.61211,-1.456561 1.89469,-1.121159 1.29705,0.339186 2.22551,-0.230605 2.9435,-1.806414 0.57684,-1.266037 2.08673,-2.449015 3.35531,-2.628841 1.26857,-0.179825 2.3065,-0.809098 2.3065,-1.398384 0,-1.571709 3.14394,-4.451296 3.96429,-3.630952 0.38631,0.38631 0.55238,0.06417 0.36904,-0.715866 C 705.65,52.296255 706.625,51.059528 708,50.32801 c 1.375,-0.731519 2.392,-1.767372 2.2599,-2.301896 -0.132,-0.534524 0.768,-1.499985 2,-2.145468 1.2321,-0.645483 3.5901,-2.665184 5.2401,-4.488223 1.65,-1.82304 4.9989,-4.368317 7.4419,-5.656172 4.0435,-2.1315 9.37,-8.741714 7.0441,-8.741714 -1.2039,0 -0.7976,-2.75492 0.8481,-5.75 0.7639,-1.390386 2.1779,-2.25 3.7011,-2.25 1.3556,0 2.4648,-0.435877 2.4648,-0.968615 0,-0.532739 -0.675,-0.709594 -1.5,-0.393011 -0.9859,0.378317 -1.5,-0.03231 -1.5,-1.198052 0,-0.97551 0.3016,-1.472077 0.6702,-1.103481 0.3686,0.368596 1.7313,-0.02511 3.0282,-0.874894 1.297,-0.849787 2.779,-1.284952 3.2934,-0.967033 0.5144,0.317919 1.8983,-0.385046 3.0754,-1.562144 1.1771,-1.177098 2.8436,-2.2434195 3.7034,-2.3696025 0.8597,-0.126183 1.6765,-1.001887 1.8151,-1.946007 0.4171,-2.842109 2.4986,-4.61716 5.4143,-4.61716 1.5153,0 3.3153,-0.675 4,-1.5 1.6321,-1.96657443 7,-2.00271043 7,-0.04712 0,0.799082 1.8476,2.936582 4.1058,4.75 2.2581,1.813418 4.9143,4.8721225 5.9027,6.7971225 1.7637,3.435359 5.763,7.820088 7.2415,7.939451 0.4125,0.0333 1.2481,0.06055 1.857,0.06055 0.6088,0 0.848,0.675 0.5314,1.5 -0.3166,0.825 -0.212,1.5 0.2325,1.5 0.4444,0 1.3207,1.125 1.9471,2.5 0.8617,1.891007 0.8542,2.5 -0.031,2.5 -0.6466,0 -0.4402,0.5589 0.4617,1.25 1.8709,1.433508 5.7497,11.175582 5.7504,14.44284 5e-4,2.157206 3.5856,9.23197 5.2745,10.408592 0.4748,0.330788 1.9594,2.967181 3.299,5.858652 1.8046,3.894992 2.0542,5.110825 0.9634,4.692242 -0.8098,-0.310738 -1.7383,-0.134631 -2.0634,0.391348 -0.3247,0.525975 0.1375,0.956322 1.0274,0.956322 0.9807,0 1.3332,0.46081 0.895,1.169939 -0.4862,0.786654 -0.1779,0.960742 0.941,0.531385 1.2751,-0.48931 1.664,-0.06158 1.664,1.830061 0,1.357738 -0.5625,2.475506 -1.25,2.483928 -0.9052,0.01109 -0.8698,0.2561 0.1281,0.888196 0.758,0.480086 1.0689,1.373196 0.691,1.984688 -0.3779,0.611491 -0.1793,1.111803 0.4414,1.111803 0.6208,0 0.9848,0.998481 0.8091,2.218846 -0.1758,1.220365 0.4966,3.132865 1.4942,4.25 4.2856,4.799159 8.5411,11.502824 7.6511,12.052844 -0.5307,0.32799 -0.9649,1.10979 -0.9649,1.73733 0,0.82185 0.3356,0.80535 1.2,-0.059 0.66,-0.66 1.6752,-1.2 2.2559,-1.2 1.4876,0 3.4894,4.919793 3.8937,9.569483 0.188,2.16179 0.7172,4.80353 1.176,5.87055 0.5313,1.23546 0.4261,2.07607 -0.2895,2.31461 -0.6181,0.20602 -0.8769,1.01792 -0.5751,1.80422 0.3017,0.78631 0.9323,1.19252 1.4012,0.9027 0.4689,-0.28982 1.5583,0.83776 2.4209,2.50574 0.8625,1.66799 2.136,3.0327 2.8299,3.0327 0.6939,0 1.3645,1.35 1.4902,3 0.1257,1.65 -0.2173,3 -0.7623,3 -1.398,0 -0.032,6.32128 1.5719,7.27645 0.7173,0.42704 1.0511,1.43575 0.7419,2.24157 -0.3212,0.83717 0.158,1.74149 1.1182,2.10994 1.5898,0.61009 4.0371,5.00351 3.6886,6.62204 -0.089,0.4125 0.2885,0.75 0.8385,0.75 0.55,0 1,0.9 1,2 0,1.1 0.536,2 1.1911,2 0.6552,0 0.3466,0.61757 -0.6857,1.37237 -1.7743,1.29741 -1.7438,1.3641 0.5589,1.22082 3.0563,-0.19017 3.9046,0.98374 3.9069,5.40681 0,5.03791 4.8878,14.36978 8.3469,15.94477 1.5499,0.70572 3.2263,2.35685 3.7252,3.66918 0.499,1.31233 1.363,2.38605 1.9201,2.38605 0.5571,0 1.3008,1.8 1.6526,4 0.3518,2.2 1.0407,4 1.5309,4 0.4901,0 0.6212,1.2375 0.2913,2.75 -0.4224,1.93592 -0.3124,2.34085 0.3716,1.36787 0.7739,-1.10094 1.1173,-0.92295 1.6879,0.87485 0.4673,1.47241 0.2446,2.55587 -0.6407,3.11681 -0.7463,0.47292 -0.9971,0.86674 -0.5573,0.87516 0.4398,0.008 0.3754,0.77343 -0.1431,1.70002 -0.9598,1.71494 -0.1425,3.96449 2.7484,7.56529 0.7727,0.9625 1.0958,1.75 0.7179,1.75 -0.8864,0 3.9934,8.75919 5.9949,10.76062 0.958,0.95808 1.3026,2.42026 0.925,3.925 -0.6375,2.53976 1.4421,5.56221 3.4967,5.08224 0.6306,-0.14732 1.6672,0.63214 2.3036,1.73214 0.6363,1.1 1.7194,2.35986 2.4069,2.79969 0.6875,0.43983 1.25,2.29985 1.25,4.13337 0,2.40094 0.5169,3.46885 1.8475,3.81681 1.1943,0.31232 2.0499,1.73073 2.4201,4.01193 0.6064,3.73644 3.5306,7.98096 4.9108,7.12796 0.4519,-0.27931 0.8216,0.4453 0.8216,1.61022 0,1.16492 0.45,1.83992 1,1.5 0.55,-0.33992 1.0563,-0.14148 1.125,0.44098 0.069,0.58246 0.1813,1.45236 0.25,1.93311 0.2844,1.98899 7.0352,11.39537 7.3977,10.30784 0.2167,-0.65006 0.8546,-1.18193 1.4176,-1.18193 0.563,0 0.7857,0.62017 0.4948,1.37814 -0.6673,1.73904 1.1599,3.62186 3.5149,3.62186 2.0539,0 2.4258,1.58082 0.55,2.33772 -0.7208,0.29085 -0.4789,0.53781 0.5714,0.58333 2.859,0.12392 4.96,2.8217 4.2867,5.50425 -0.6489,2.58543 1.2848,4.04153 4.8919,3.68364 1.5352,-0.15232 1.6788,0.0189 0.6179,0.73699 -1.1,0.74443 -0.9468,1.07359 0.75,1.61213 1.1726,0.3722 2.1321,1.39639 2.1321,2.27599 0,0.87961 0.2786,1.32071 0.619,0.98024 0.8732,-0.8732 3.381,1.83802 3.381,3.65526 0,1.98909 1.6886,2.99161 2.3356,1.38668 0.372,-0.92267 0.5275,-0.93639 0.5855,-0.0517 0.087,1.32432 5.0448,6.63494 5.1348,5.5 0.08,-1.00856 3.8211,8.0665 3.8882,9.43191 0.031,0.62505 -1.9567,1.43825 -4.4165,1.80712 -4.4066,0.66082 -8.5276,4.07378 -8.5276,7.06245 0,1.48123 -9.882,3.01199 -11.1645,1.72944 -0.4797,-0.47971 -3.1183,-0.58406 -5.8634,-0.23189 -8.3807,1.07514 -8.1707,0.12136 -7.541,34.24642 0.4299,23.29675 0.28,29.75332 -0.691,29.76531 -0.8455,0.0104 -0.7821,0.30514 0.1992,0.92604 1.1008,0.69652 1.5144,3.92682 1.7584,13.73468 1.0985,44.16114 3.4345,99.7085 4.9178,116.94069 l 1.7316,20.11672 16.8265,2.26079 16.8264,2.26081 0,32.37249 0,32.37249 -471.5,0 -471.5,0 0,-16.28439 z"
     id="path2987"
     inkscape:connector-curvature="0" />
</svg>
