<?xml version="1.0" encoding="UTF-8" standalone="no"?>
<!-- Created with Inkscape (http://www.inkscape.org/) -->

<svg
   xmlns:dc="http://purl.org/dc/elements/1.1/"
   xmlns:cc="http://creativecommons.org/ns#"
   xmlns:rdf="http://www.w3.org/1999/02/22-rdf-syntax-ns#"
   xmlns:svg="http://www.w3.org/2000/svg"
   xmlns="http://www.w3.org/2000/svg"
   xmlns:sodipodi="http://sodipodi.sourceforge.net/DTD/sodipodi-0.dtd"
   xmlns:inkscape="http://www.inkscape.org/namespaces/inkscape"
   id="svg2"
   version="1.1"
   inkscape:version="0.48.2 r9819"
   width="773.54773"
   height="677.12915"
   sodipodi:docname="harrysladdertole00londiala_0028e.png">
  <metadata
     id="metadata8">
    <rdf:RDF>
      <cc:Work
         rdf:about="">
        <dc:format>image/svg+xml</dc:format>
        <dc:type
           rdf:resource="http://purl.org/dc/dcmitype/StillImage" />
        <dc:title></dc:title>
      </cc:Work>
    </rdf:RDF>
  </metadata>
  <defs
     id="defs6" />
  <sodipodi:namedview
     pagecolor="#ffffff"
     bordercolor="#666666"
     borderopacity="1"
     objecttolerance="10"
     gridtolerance="10"
     guidetolerance="10"
     inkscape:pageopacity="0"
     inkscape:pageshadow="2"
     inkscape:window-width="1600"
     inkscape:window-height="876"
     id="namedview4"
     showgrid="false"
     fit-margin-top="0"
     fit-margin-left="0"
     fit-margin-right="0"
     fit-margin-bottom="0"
     inkscape:zoom="1"
     inkscape:cx="355.90882"
     inkscape:cy="351.10686"
     inkscape:window-x="0"
     inkscape:window-y="24"
     inkscape:window-maximized="1"
     inkscape:current-layer="svg2" />
  <path
     style="fill:#000000"
     d="m 460.70472,676.1753 c -0.7832,-0.78318 -3.1068,-1.35643 -5.2043,-1.28394 -3.4874,0.12052 -3.881,-0.14787 -4.9404,-3.36905 l -1.1512,-3.5 -8.1019,-0.5 c -4.8776,-0.30102 -8.784,-1.06793 -9.8158,-1.92708 -1.3672,-1.13832 -2.3583,-1.19948 -4.8981,-0.30224 -1.7513,0.61866 -5.3699,0.90999 -8.0413,0.6474 -7.6686,-0.75382 -14.2656,-4.91946 -9.687,-6.11681 1.2302,-0.32169 1.9436,-1.12082 1.6601,-1.85958 -0.2734,-0.7125 0.1702,-1.84929 0.9858,-2.5262 2.1614,-1.79381 0.1474,-3.3868 -2.4944,-1.97295 -2.365,1.26572 -2.7334,2.68211 -0.8601,3.30657 0.7688,0.25625 0.3851,0.87726 -1,1.61852 -1.6121,0.86279 -2.8021,0.90584 -4.2101,0.1523 -2.0939,-1.12067 -1.8624,-3.20134 0.6878,-6.17936 1.2541,-1.46447 1.1659,-1.74043 -0.7507,-2.34874 -4.4825,-1.42268 -16.9743,1.93211 -16.9743,4.5586 0,0.54949 -1.125,1.4268 -2.5,1.94957 -1.8894,0.71836 -2.5,1.67332 -2.5,3.91015 0,4.68338 -1.6907,8.08985 -4.0151,8.08985 -1.1355,0 -3.8921,-0.93234 -6.1257,-2.07186 -3.7336,-1.9047 -4.0289,-2.34844 -3.661,-5.5 0.363,-3.10934 0.1631,-3.42956 -2.149,-3.44345 -3.9315,-0.0236 -5.2589,-1.30103 -4.4988,-4.32955 0.6313,-2.51538 0.4716,-2.65514 -3.0356,-2.65514 -2.8065,0 -3.8232,-0.46334 -4.2029,-1.91531 -0.6619,-2.53094 -4.684,-3.44701 -8.9513,-2.03869 -2.149,0.70924 -3.8922,0.78621 -4.6493,0.2053 -2.0774,-1.59384 -6.6971,-0.71664 -8.3034,1.57666 -0.8367,1.19462 -2.2297,2.17204 -3.0954,2.17204 -1.2406,0 -1.4538,-0.74175 -1.0062,-3.5 0.3124,-1.925 0.1463,-3.5 -0.3692,-3.5 -0.5154,0 -0.989,0.5625 -1.0524,1.25 -0.063,0.6875 -0.176,1.91764 -0.25,2.73364 -0.074,0.81601 -0.8838,1.6291 -1.7993,1.80687 -2.0278,0.39378 -3.5126,-3.5133 -1.9347,-5.09117 1.341,-1.34106 1.4677,-6.69934 0.1583,-6.69934 -1.4397,0 -2.3334,1.9472 -2.6343,5.73987 -0.3222,4.06059 -1.0431,5.04177 -2.5771,3.50773 -1.7355,-1.73549 -1.9232,-8.93994 -0.2688,-10.31303 2.3579,-1.95685 1.6107,-3.07956 -1.8288,-2.74793 -2.9853,0.28784 -3.2509,0.59842 -3.2615,3.81336 -0.01,1.925 -0.3583,4.04285 -0.7821,4.70633 -1.1367,1.7798 -3.4362,0.50626 -4.1386,-2.29211 -0.5042,-2.00908 -1.0494,-2.33144 -3.0809,-1.82158 -1.7679,0.44372 -2.6478,0.15153 -3.1011,-1.02974 -0.586,-1.52711 -0.7667,-1.52813 -2.4401,-0.0138 -1.6815,1.52177 -1.9317,1.49001 -3.5987,-0.45683 -0.9853,-1.15073 -2.5811,-2.09227 -3.5462,-2.09227 -0.9651,0 -2.4844,-1.11364 -3.3762,-2.47476 -1.4922,-2.27731 -1.8331,-2.36804 -4.2731,-1.1372 -1.4583,0.73565 -3.2161,1.13608 -3.9062,0.88984 -0.6901,-0.24623 -2.6373,0.71561 -4.327,2.13745 -2.8701,2.41496 -3.5939,2.55462 -10.9953,2.12138 -5.3815,-0.315 -7.923,-0.11053 -7.923,0.63745 0,0.73709 -1.7359,0.90507 -5.25,0.50802 -5.6493,-0.6383 -8.75,0.67384 -8.75,3.70281 0,2.23601 -4.5908,3.85973 -9.5,3.36003 -3.1046,-0.31601 -4.8954,0.1882 -8,2.25239 -2.6318,1.74985 -6.5654,3.069 -11.5,3.85659 -15.43117,2.46291 -24.96491,4.54965 -23.87203,5.22509 3.03063,1.87303 -4.51479,5.92091 -11.03683,5.92091 -2.18521,0 -4.27376,0.48646 -4.64122,1.08103 -0.36746,0.59456 -1.75325,0.80867 -3.07953,0.47579 -1.32629,-0.33287 -3.36055,-0.0973 -4.5206,0.52357 -1.5642,0.83713 -3.5849,0.83846 -7.82067,0.005 -3.14132,-0.61802 -10.39546,-1.03901 -16.12031,-0.93553 -10.19024,0.18419 -21.40146,0.0936 -35.40881,-0.28596 -5.04882,-0.13683 -7.323707,-0.62903 -8.161317,-1.76583 -1.49843,-2.03365 -1.01403,-2.713 3.620187,-5.07721 2.95973,-1.50994 6.6144,-2.06244 16.18215,-2.44637 6.79744,-0.27276 13.93398,-0.99787 15.85898,-1.61134 6.49412,-2.0696 14.48299,-3.8918 17.21955,-3.92765 2.46091,-0.0322 2.70702,-0.36891 2.5878,-3.54009 -0.0725,-1.92746 0.0537,-3.61794 0.28045,-3.75662 0.22671,-0.13869 3.9451,-2.04918 8.26309,-4.24553 4.31798,-2.19636 9.61203,-4.9151 11.76454,-6.04164 4.38173,-2.29323 7.49251,-5.95798 5.89529,-6.94511 -2.2937,-1.41759 -0.69028,-3.51298 4.60516,-6.01813 3.80483,-1.79997 5.28806,-2.98456 4.59935,-3.67327 -0.98307,-0.98307 -7.47878,0.57764 -9.57747,2.30115 -1.43352,1.17725 -23.97996,-0.2439 -25.63776,-1.616 -1.9402,-1.60583 -12.43524,-3.01364 -11.52846,-1.54643 0.35557,0.57533 2.08244,1.05294 3.83748,1.06136 1.75504,0.008 3.86598,0.45842 4.69098,1 3.1395,2.06095 -1.35119,2.71401 -16.34304,2.37668 -8.33633,-0.18757 -15.97102,-0.3525 -16.96598,-0.36651 -2.56231,-0.0361 -1.03554,-2.01119 1.61804,-2.09316 l 2.19098,-0.0677 -2.18631,-1.05671 c -2.87114,-1.38772 -6.95016,-0.30607 -7.55403,2.00312 -0.4366,1.66955 -1.57404,1.81048 -12.761027,1.58105 -9.57305,-0.19634 -12.59705,0.0635 -13.71159,1.17801 -0.81246,0.81245 -3.35607,1.42989 -5.89059,1.42989 -2.45338,0 -6.0858,0.67902 -8.07206,1.50893 -3.8185,1.59547 -16.69015,1.8919 -15.74499,0.3626 0.29625,-0.4792 2.97504,-0.87139 5.95287,-0.87139 5.65996,0 14.46773,-3.36677 14.46773,-5.53029 0,-1.63277 -4.00939,-3.44143 -7.5,-3.38329 -1.65,0.0275 -5.79215,-0.55558 -9.20478,-1.2957 -9.2727,-2.01103 -23.79286,-0.75077 -29.47241,2.55801 -3.12225,1.81895 -6.82236,2.79451 -13.32281,3.51263 -10.5669104,1.16735 -12.4431604,0.44569 -14.3063804,-5.50261 -1.13471004,-3.62253 -1.05179,-3.99649 1.3546,-6.10875 1.40982,-1.2375 3.16269,-2.25 3.89527,-2.25 1.82231,0 14.8944404,-6.12273 15.7302904,-7.36777 0.43643,-0.65008 1.1955,-0.57065 2.15477,0.22548 2.19391,1.82079 2.54816,-0.69163 4.06887,-28.85771 1.51074,-27.98119 1.57728,-35.32552 0.33369,-36.82783 -0.81597,-0.98574 -1.25312,-5.56492 -1.29637,-13.57971 -0.0359,-6.65085 -0.14635,-17.04246 -0.24548,-23.09246 -0.0991,-6.05 0.15525,-18.875 0.56526,-28.5 0.41002,-9.625 0.61242,-20.5375 0.44979,-24.25 -0.28312,-6.46308 -0.40244,-6.75 -2.80718,-6.75 -1.38132,0 -4.4951,-0.49948 -6.91952,-1.10995 -2.88299,-0.72595 -5.37147,-0.78531 -7.19282,-0.17157 -3.2855404,1.10712 -11.41284044,-0.60262 -12.05747044,-2.53653 -0.77035,-2.31105 1.89348004,-14.64134 3.84543004,-17.79966 1.05999,-1.7151 1.93776,-4.64024 1.95061,-6.50032 0.0129,-1.86379 1.31527,-5.62649 2.90127,-8.38197 1.5828504,-2.75 5.1880904,-9.1625 8.0116504,-14.25 2.82355,-5.0875 5.47908,-9.25 5.90118,-9.25 0.4221,0 1.6122,-2.3625 2.64466,-5.25 3.37543,-9.44006 9.17043,-16.70396 16.97499,-21.27773 2.44828,-1.43479 4.73929,-3.5157 5.09113,-4.62426 0.35184,-1.10855 3.36262,-5.01535 6.69063,-8.68178 6.76468,-7.45257 13.76113,-16.60187 13.76113,-17.99552 0,-1.25588 10.02205,-10.89631 13.594,-13.07637 2.80756,-1.71353 5.22251,-4.0242 9.32934,-8.92647 1.80592,-2.15571 5.07666,-13.6753 5.07666,-17.88008 0,-2.35947 2.4115,-6.83089 12.587037,-23.33895 4.59409,-7.45313 9.49827,-16.59413 10.89817,-20.31332 3.98918,-10.59827 7.24548,-16.36293 10.24794,-18.14203 1.52177,-0.90172 4.03189,-3.40435 5.57805,-5.5614 1.54616,-2.15706 4.62043,-5.38671 6.8317,-7.17701 2.21128,-1.79029 5.4029,-4.46415 7.09249,-5.9419 2.67367,-2.33845 32.14851,-17.81318 33.9289,-17.81318 0.3631,0 5.98011,-3.24747 12.48225,-7.21659 6.50214,-3.96913 16.10413,-8.88163 21.33776,-10.91667 5.2336,-2.03504 12.2157,-4.85189 15.5157,-6.25967 3.3,-1.40778 6.7268,-2.57028 7.6151,-2.58333 0.8884,-0.0131 2.6884,-0.84114 4,-1.84019 4.1377,-3.1515 24.4877,-14.18355 26.1633,-14.18355 0.882,0 1.8911,-0.46517 2.2424,-1.03371 0.3514,-0.56854 5.4405,-3.35311 11.3091,-6.18794 5.8685,-2.83482 12.3303,-6.2364 14.3595,-7.55906 2.7702,-1.80572 4.4377,-2.24046 6.6934,-1.74503 2.8244,0.62034 3.0628,0.43158 3.9866,-3.15723 0.5621,-2.18359 0.7942,-12.37573 0.5423,-23.817028 -0.6166,-28.00746 -0.9669,-33.97698 -2.1823,-37.18963 -2.1482,-5.67818 -2.2007,-10.07712 -0.1513,-12.68254 1.0657,-1.35479 2.2155,-4.49095 2.5552,-6.96924 0.6031,-4.39994 0.7618,-4.56834 6.7422,-7.15492 3.3685,-1.45692 9.5871,-4.86625 13.8192,-7.5763 4.232,-2.71006 7.9664,-4.92737 8.2986,-4.92737 0.5509,0 3.017,-1.59608 16.5067,-10.6829903 5.8528,-3.94255003 10.2645,-4.74049003 15.9742,-2.88925003 2.4892,0.80708003 10.5672,2.37352003 17.9512,3.48097003 8.273,1.24079 14.0021,2.59018 14.928,3.51607 0.8264,0.82638 1.7599,3.4309303 2.0745,5.7878903 0.3841,2.87684 1.0651,4.29078 2.0721,4.30182 3.1264,0.0343 8.8861,2.91472 9.8155,4.90882 3.6405,7.81064 3.9068,8.87448 3.1088,12.42056 -0.4525,2.01086 -1.9706,4.57301 -3.3735,5.69367 -1.4029,1.12067 -2.5508,2.47425 -2.5508,3.00796 0,0.53372 -1.1572,3.14414 -2.5715,5.80095 -2.391,4.49143 -2.5602,5.68434 -2.41,16.99204 0.089,6.68882 0.1,14.39711 0.025,17.12953 l -0.1365,4.96804 2.2965,-2.0954 c 1.2631,-1.15248 3.5769,-3.25445 5.1419,-4.67107 1.7938,-1.62377 4.5655,-2.81263 7.5,-3.21686 5.1478,-0.70913 10.107,-3.80583 17.488,-10.92017 6.607,-6.36825 8.5962,-7.01497 11.3176,-3.67956 l 2.1509,2.63626 2.2067,-1.99464 2.2067,-1.99464 2.7601,3.30381 2.7601,3.30382 4.3823,-4.5373 c 2.4129,-2.49822 5.3191,-4.54472 6.4669,-4.55381 1.1466,-0.009 3.2876,1.33348 4.7578,2.98348 2.7895,3.13079 6.921,3.99587 8.3578,1.75 0.4399,-0.6875 1.6057,-1.8829 2.5907,-2.65645 1.5972,-1.25429 2.1628,-1.04607 5.2277,1.92449 2.6329,2.552 3.1794,3.6409 2.3365,4.65645 -0.8545,1.02959 -0.6281,1.32551 1.0139,1.32551 1.1627,0 2.6803,0.93575 3.3725,2.07945 1.4264,2.35702 13.5644,9.92055 15.9205,9.92055 2.143,0 10.8379,8.70926 10.8379,10.85576 0,0.59063 0.8413,1.52415 1.8697,2.07448 1.0283,0.55033 2.588,2.51457 3.4661,4.36496 0.8781,1.850398 2.6852,4.453458 4.0158,5.784578 1.3307,1.33112 4.1179,5.34522 6.1939,8.92022 2.076,3.575 5.5026,8.11838 7.6145,10.09639 3.0383,2.84556 3.84,4.32784 3.84,7.09996 0,2.24003 1.0087,4.9101 2.7969,7.40361 2.9309,4.08693 5.4323,9.43549 5.1388,10.98775 -0.3868,2.04512 0.1345,3.41457 1.3143,3.45293 3.2089,0.10433 10.5151,8.72028 12.595,14.85284 1.1906,3.51023 6.1379,11.40535 11.8642,18.93345 1.8102,2.37982 3.5783,5.52982 3.9289,7 0.3507,1.47019 0.9519,3.12307 1.336,3.67307 0.3841,0.55 2.0049,4.13223 3.6016,7.96052 3.0548,7.32385 5.0578,9.80117 12.5987,15.58192 5.1158,3.92172 11.7595,11.85322 22.3256,26.65284 6.4787,9.07458 25.2555,28.72936 34.2052,35.80472 4.9957,3.94941 12.1447,11.13419 15.4228,15.5 2.062,2.74624 4.0003,3.89869 9,5.35126 3.5046,1.01819 7.497,2.50794 8.872,3.31054 1.375,0.80261 4.8682,2.59264 7.7627,3.97785 2.8945,1.38522 6.8949,4.05798 8.8899,5.93946 1.9949,1.88149 3.8322,3.42089 4.0829,3.42089 1.3641,0 6.2645,4.34671 6.2645,5.55666 0,1.45038 1.903,4.15377 5.5359,7.86404 3.8804,3.96308 8.4641,10.37411 8.4641,11.83835 0,0.80918 -0.8348,2.54442 -1.8551,3.85609 -1.4825,1.90576 -3.4178,8.27331 -3.3084,10.88486 0.049,1.16659 -3.271,4 -4.6868,4 -0.8471,0 -2.7658,-1.17416 -4.2637,-2.60924 -2.8981,-2.7765 -4.886,-2.50971 -4.886,0.65571 0,1.16656 -1.6014,2.93934 -4.0533,4.48718 -3.6341,2.2941 -4.7414,2.49898 -10.7063,1.98088 -3.9987,-0.34732 -7.361,-1.21872 -8.4279,-2.18421 -1.4505,-1.3127 -2.0542,-1.37465 -3.3022,-0.33886 -0.9354,0.77631 -2.8797,1.048 -5.0173,0.70111 -2.7859,-0.45209 -3.6993,-0.17555 -4.5268,1.37053 -0.5701,1.06529 -1.606,1.9369 -2.302,1.9369 -2.0687,0 -6.6505,2.42075 -6.6246,3.5 0.013,0.55 0.6847,1.87351 1.4922,2.94113 0.8075,1.06765 1.4682,4.05691 1.4682,6.64301 0,3.12356 0.4733,4.88351 1.41,5.24295 1.1741,0.45052 1.3343,4.27528 0.9574,22.85699 -0.2489,12.27375 -0.844,29.06592 -1.3224,37.31592 -0.4784,8.25 -0.7038,15.16794 -0.5009,15.37321 0.203,0.20526 2.4135,-0.23048 4.9124,-0.96832 2.9309,-0.86539 4.5435,-1.90748 4.5435,-2.93611 0,-0.87703 1.35,-2.88798 3,-4.46878 1.65,-1.5808 3,-3.45462 3,-4.16404 0,-2.47316 4.7322,-4.59888 8.7427,-3.92724 2.0665,0.34608 4.6573,0.73618 5.7573,0.86691 1.1,0.13072 2.5549,0.59401 3.233,1.02953 0.6781,0.43552 2.7078,0.51517 4.5104,0.177 4.0727,-0.76405 8.7914,0.93482 9.4353,3.397 0.2668,1.0203 2.1357,2.72117 4.1532,3.77972 2.906,1.52476 3.7337,2.59729 3.9836,5.16206 0.2708,2.77804 -0.084,3.37657 -2.5,4.21815 -2.4107,0.83972 -2.8155,1.51851 -2.8155,4.72082 l 0,3.74009 -4.75,-0.1619 c -5.3398,-0.18201 -5.6903,0.47565 -3.301,6.19402 1.2975,3.10535 1.8512,3.46788 5.297,3.46788 3.1367,0 4.5327,0.70112 7.5511,3.79216 3.1565,3.23263 3.7029,4.45397 3.7029,8.2775 0,2.46693 -0.6144,5.37296 -1.3653,6.45783 -0.7509,1.08488 -1.7041,3.09751 -2.1183,4.47251 -0.4141,1.375 -1.4445,3.2875 -2.2897,4.25 -1.8025,2.05269 -1.0353,2.26028 1.8478,0.5 1.6999,-1.0379 2.2491,-0.98059 3.2364,0.33777 0.654,0.87327 1.7516,1.39827 2.4391,1.16667 0.6875,-0.23161 1.25,0.36114 1.25,1.31721 0,1.62604 0.1295,1.62117 2.0041,-0.0753 1.6106,-1.45758 2.4661,-1.60311 4.3577,-0.74124 2.558,1.16548 3.6382,4.65524 3.6382,11.75329 0,3.46815 0.3849,4.35902 2.0742,4.80079 1.1408,0.29833 2.3102,1.44467 2.5986,2.54743 0.33,1.26208 1.0714,1.79508 2.0008,1.43844 0.9078,-0.34837 1.3868,-0.0329 1.2437,0.81919 -0.3635,2.1642 1.122,4.83646 3.352,6.02989 1.7042,0.91208 1.9334,0.82651 1.4137,-0.52778 -0.3656,-0.95283 -0.12,-1.59362 0.5984,-1.561 1.6624,0.0755 6.4178,6.21162 5.1431,6.6365 -0.5606,0.18686 -0.8329,1.93529 -0.6053,3.88541 0.2995,2.56497 -0.1397,4.151 -1.5877,5.73421 -2.6628,2.91146 -3.4677,5.87672 -2.3869,8.79362 1.282,3.45997 -1.0954,9.35846 -5.8517,14.51847 -2.1961,2.38248 -4.0276,4.67933 -4.0699,5.10412 -0.042,0.42479 -0.2872,2.65192 -0.544,4.94919 -0.2761,2.46949 0.1396,5.62851 1.0169,7.72816 0.95,2.2737 1.1235,3.77399 0.4823,4.17029 -0.5509,0.34044 -1.4127,1.70027 -1.9151,3.02184 -1.1887,3.12658 0.2857,6.99673 4.2194,11.07542 3.1936,3.31138 3.7277,5.62426 5.441,23.56421 0.7467,7.81906 -0.2364,9.74664 -4.9959,9.79503 -1.7202,0.0175 -4.0011,0.6925 -5.0687,1.5 -1.6642,1.25876 -12.0189,1.4682 -72.5872,1.4682 -59.5298,0 -72.2058,0.24856 -80.5588,1.57967 -5.4521,0.86882 -12.8379,1.95798 -16.4129,2.42036 -8.9016,1.1513 -21.3712,2.78611 -34.5824,4.53385 -6.0953,0.80637 -14.1953,1.49294 -18,1.52573 -3.8047,0.0328 -9.1676,0.48029 -11.9176,0.99445 -4.5333,0.84758 -17.7084,3.02861 -28,4.63514 -2.2,0.34343 -5.7728,1.73834 -7.9396,3.09982 -2.6501,1.66519 -6.8539,2.91076 -12.8436,3.80554 -4.8973,0.73157 -9.7146,1.58736 -10.7051,1.90173 -0.9905,0.31438 -2.4377,-0.0651 -3.2158,-0.8433 z"
     id="path2987"
     inkscape:connector-curvature="0" />
</svg>
