<?xml version="1.0" encoding="UTF-8" standalone="no"?>
<!-- Created with Inkscape (http://www.inkscape.org/) -->

<svg
   xmlns:dc="http://purl.org/dc/elements/1.1/"
   xmlns:cc="http://creativecommons.org/ns#"
   xmlns:rdf="http://www.w3.org/1999/02/22-rdf-syntax-ns#"
   xmlns:svg="http://www.w3.org/2000/svg"
   xmlns="http://www.w3.org/2000/svg"
   xmlns:sodipodi="http://sodipodi.sourceforge.net/DTD/sodipodi-0.dtd"
   xmlns:inkscape="http://www.inkscape.org/namespaces/inkscape"
   id="svg2"
   version="1.1"
   inkscape:version="0.48.2 r9819"
   width="599.73193"
   height="250.05055"
   sodipodi:docname="jail-house-key-hic.png">
  <metadata
     id="metadata8">
    <rdf:RDF>
      <cc:Work
         rdf:about="">
        <dc:format>image/svg+xml</dc:format>
        <dc:type
           rdf:resource="http://purl.org/dc/dcmitype/StillImage" />
        <dc:title></dc:title>
      </cc:Work>
    </rdf:RDF>
  </metadata>
  <defs
     id="defs6" />
  <sodipodi:namedview
     pagecolor="#ffffff"
     bordercolor="#666666"
     borderopacity="1"
     objecttolerance="10"
     gridtolerance="10"
     guidetolerance="10"
     inkscape:pageopacity="0"
     inkscape:pageshadow="2"
     inkscape:window-width="1600"
     inkscape:window-height="876"
     id="namedview4"
     showgrid="false"
     fit-margin-top="0"
     fit-margin-left="0"
     fit-margin-right="0"
     fit-margin-bottom="0"
     inkscape:zoom="1"
     inkscape:cx="289.84918"
     inkscape:cy="119"
     inkscape:window-x="0"
     inkscape:window-y="24"
     inkscape:window-maximized="1"
     inkscape:current-layer="svg2" />
  <path
     style="fill:#000000"
     d="m 96.898513,248.60999 c -0.65755,-0.79231 -1.80286,-1.20751 -2.54512,-0.92268 -0.74227,0.28483 -2.28437,-0.41692 -3.42689,-1.55944 -1.99461,-1.99461 -2.07732,-3.09388 -2.07732,-27.60944 0,-33.76489 -0.25487,-33.15116 13.999997,-33.7121 l 6.5,-0.25578 0,-5.48764 0,-5.48765 -4.53052,-0.64806 c -4.67349,-0.66852 -13.307007,-5.7079 -14.325377,-8.36174 -0.31421,-0.81881 -0.2976,-4.41964 0.0369,-8.00183 0.57728,-6.18186 0.49915,-6.51308 -1.5364,-6.51308 -1.17953,0 -3.10498,0.96039 -4.27879,2.13419 -1.90958,1.90958 -2.07619,2.90101 -1.58315,9.42026 0.71415,9.4426 -0.42834,10.65873 -10.81117,11.50798 -9.08156,0.74282 -10.47178,1.77979 -10.47053,7.81001 l 9.6e-4,4.62756 5.69703,0.16052 c 3.90913,0.11015 6.06178,0.65935 6.85928,1.75 0.63924,0.87421 1.90015,1.58948 2.80201,1.58948 0.90187,0 2.50719,0.86743 3.56739,1.92763 1.8015,1.8015 1.9337,3.66166 2.02036,28.42904 0.0923,26.37386 0.0819,26.50896 -2.15014,28.07237 -2.97422,2.08322 -14.64694,2.15234 -17.35672,0.10276 -1.06762,-0.8075 -2.92811,-1.4825 -4.13443,-1.5 -4.32865,-0.0628 -5.3067,-3.35753 -5.3067,-17.87675 0,-12.30333 -0.13415,-13.28861 -1.63917,-12.03955 -1.40942,1.16972 -1.55225,2.87975 -1.01898,12.19999 0.66638,11.64686 -0.40368,16.58597 -4.00719,18.49597 -2.67472,1.41771 -12.42798,1.19463 -15.33466,-0.35074 -1.375,-0.73103 -3.72451,-1.58907 -5.22114,-1.90674 -1.49662,-0.31768 -3.17565,-1.42687 -3.73118,-2.46488 -0.63039,-1.17791 -1.03261,-17.41674 -1.07009,-43.20279 l -0.0601,-41.31551 2.29123,-1.76316 c 1.75288,-1.34889 4.2158,-1.76839 10.48221,-1.7854 4.50504,-0.0122 8.39799,-0.35974 8.65099,-0.77224 0.253,-0.4125 0.61706,-2.325 0.80902,-4.25 0.34813,-3.49122 0.33718,-3.50136 -4.36512,-4.04199 -2.65297,-0.30501 -5.71358,-1.42395 -7,-2.55915 -1.25723,-1.10945 -3.49957,-2.53256 -4.98298,-3.16248 -4.2253,-1.79424 -6.05244,-5.41915 -5.65113,-11.21141 0.38613,-5.57301 1.23428,-5.00944 -8.15176,-5.41654 -1.78903,-0.0776 -2.59081,-0.74783 -2.81933,-2.35678 -0.30212,-2.12709 -1.3397501,-2.67133 -6.6018801,-3.46272 -2.65774,-0.3997 -4.81260001,-10.08575 -4.36999001,-19.643017 0.31511,-6.80412 0.57815,-7.56635 3.51729001,-10.19248 l 3.17672,-2.83839 29.7985901,-0.0806 c 16.38923,-0.0444 52.2986,-0.36309 79.798597,-0.7083 27.5,-0.34522 51.35,-0.61451 53,-0.59843 50.75027,0.49462 180.76063,-0.36246 185.5,-1.22288 1.375,-0.24963 4.075,-0.10521 6,0.32094 1.925,0.42615 5.975,0.38552 9,-0.0903 3.87508,-0.60952 6.65625,-0.48727 9.41367,0.4138 3.54585,1.15871 4.01577,1.10256 5,-0.59742 3.71814,-6.42205 7.4154,-7.07313 12.07997,-2.12725 l 3.2298,3.42458 11.83608,-0.58292 c 11.46121,-0.56447 11.91181,-0.67293 14.22717,-3.42458 2.90745,-3.4553 7.55453,-3.86939 9.44538,-0.84166 1.61733,2.58976 3.00595,2.52077 8.08986,-0.40196 2.29794,-1.32107 5.68728,-2.71709 7.53187,-3.10225 5.07226,-1.05912 14.00684,0.36485 16.22843,2.58644 1.05477,1.05477 2.72806,1.91777 3.71841,1.91777 3.04343,0 7.23675,-2.40258 6.69759,-3.83742 -1.34808,-3.58758 -1.57671,-9.35983 -0.64018,-16.16258 0.8658,-6.28903 2.36471,-10.16413 9.28332,-24 6.79657,-13.59179 9.24163,-17.47761 13.87228,-22.04655 13.12148,-12.94661953 33.39406,-16.6886495 49.46075,-9.1297495 3.83592,1.80468 8.42249,4.38575 10.19237,5.7357 1.76988,1.3499495 4.92505,3.0138395 7.0115,3.6975295 2.72512,0.89297 4.64243,2.53972 6.80763,5.84692 1.6578,2.53211 4.6552,6.41953 6.6609,8.63871 5.5504,6.14091 11.7492,19.37128 14.8793,31.75744 4.2306,16.74126 5.307,28.03152 4.7005,49.301117 -0.4537,15.90785 -0.9191,20.11687 -3.1178,28.19888 -1.4215,5.225 -3.079,11.525 -3.6833,14 -2.296,9.4037 -3.307,11.82522 -9.7755,23.41493 -7.314,13.10463 -12.9965,19.74048 -19.4,22.65461 -1.5125,0.68832 -2.75,1.62168 -2.75,2.07413 0,1.21725 -8.78771,5.45087 -15.04271,7.24705 -7.96129,2.28617 -21.57209,3.52736 -28.29524,2.58029 -3.21087,-0.4523 -8.16087,-1.91813 -11,-3.25739 -2.83913,-1.33927 -6.51592,-2.95731 -8.17064,-3.59565 -3.45611,-1.33326 -8.77183,-6.04126 -11.22664,-9.94315 -0.92555,-1.47115 -3.56107,-5.14982 -5.8567,-8.17482 -10.50069,-13.83698 -11.96737,-35.48775 -3.42891,-50.61707 1.67087,-2.96061 2.69659,-5.42852 2.27939,-5.48425 -0.4172,-0.0557 -2.18931,-0.024 -3.93801,0.0705 -2.00898,0.10859 -3.90489,-0.55357 -5.15,-1.79868 -1.0838,-1.0838 -2.35304,-1.63611 -2.82054,-1.22737 -2.05505,1.79678 -13.06588,4.29387 -19.4879,4.41957 -6.60937,0.12936 -7.16674,-0.0353 -9.68748,-2.86274 l -2.67462,-3 -2.14921,2.18578 c -1.18207,1.20218 -3.84935,2.50473 -5.92729,2.89455 -3.31716,0.6223 -4.06144,0.37934 -6.10079,-1.99154 -1.27744,-1.48516 -2.32266,-3.78907 -2.32266,-5.11978 0,-2.22828 -0.21733,-2.3362 -2.75,-1.36553 -4.76621,1.82668 -13.77341,1.62731 -15.9683,-0.35346 -2.60634,-2.35207 -2.93382,-2.2394 -3.63159,1.24943 -0.66037,3.30189 -5.6024,6.99049 -9.37443,6.99683 -2.37472,0.004 -5.27568,-4.30636 -5.27568,-7.8388 0,-1.88274 -0.10383,-1.88893 -3.41009,-0.2033 -3.06621,1.56324 -7.98212,1.7651 -48.75,2.00175 -24.93695,0.14475 -46.23991,0.26237 -47.33991,0.26137 -1.1,-0.001 -10.325,-0.0478 -20.5,-0.10405 -10.175,-0.0562 -39.5422,0.008 -65.26045,0.14227 -41.13311,0.21508 -46.68068,0.42502 -46.09761,1.7445 1.21336,2.74587 1.5883,7.97896 0.90036,12.56647 -0.86551,5.77167 -2.98498,6.73534 -14.73064,6.69765 -5.59754,-0.018 -8.82473,0.37477 -9.07175,1.104 -0.21089,0.62253 -0.20127,3.16948 0.0214,5.65988 l 0.40479,4.52799 6.92895,-0.39152 c 6.67319,-0.37707 7.13362,-0.25056 12.47383,3.42739 4.38162,3.01773 5.43649,4.25072 5.02826,5.87725 -0.79452,3.1656 -0.85867,77.66049 -0.0696,80.79388 1.14402,4.54275 -0.7565,5.73701 -9.12973,5.73701 -8.02225,0 -14.55053,-1.95115 -18.03545,-5.39037 -1.98228,-1.95629 -2.08898,-2.76382 -1.46795,-11.10963 0.36834,-4.95 0.49619,-11.40943 0.28411,-14.35429 l -0.38559,-5.35429 -3.07354,0.61471 c -1.69045,0.33809 -3.28634,0.82751 -3.54644,1.08761 -0.2601,0.2601 -0.44015,7.26515 -0.40011,15.56677 0.0909,18.84569 0.0332,18.93949 -11.65038,18.93949 -5.63785,0 -8.217467,-0.40957 -9.073107,-1.44056 z M 541.41135,183.11695 c 6.64693,-3.26386 13.06413,-9.97852 14.39895,-15.0664 0.64933,-2.475 2.05326,-7.2 3.11986,-10.5 1.46609,-4.53602 1.93679,-8.82877 1.92914,-17.59345 -0.0104,-11.95038 -0.87138,-15.8981 -5.88763,-26.99664 -2.11322,-4.67552 -1.94356,-7.63868 0.72258,-12.62041 4.65021,-8.689007 7.40787,-31.632647 5.1131,-42.540957 -1.1563,-5.49654 -2.02991,-6.99623 -7.25909,-12.46131 -3.26952,-3.41702 -8.41982,-7.91702 -11.44511,-10 -5.2186,-3.59312 -5.8976,-3.78589 -13.24785,-3.76115 -6.83445,0.023 -8.32229,0.37986 -12.62673,3.02843 -4.03996,2.48583 -5.52443,4.28773 -8.62882,10.47392 -5.08298,10.12898 -4.83425,12.97157 1.13505,12.97157 0.94713,0 3.22037,1.54588 5.05166,3.43529 3.12098,3.22003 3.29729,3.76831 2.81378,8.75 -0.39441,4.06374 -0.10294,5.90316 1.23831,7.81471 3.31217,4.72052 6.76308,12.50571 7.88293,17.78373 1.51668,7.148377 0.13813,12.798137 -5.45188,22.343637 -4.25399,7.26413 -4.4357,7.89131 -3.81536,13.16943 0.52961,4.5061 0.25671,6.35155 -1.45994,9.87263 -3.11595,6.39124 -9.37426,9.38386 -14.21086,6.79539 -1.73148,-0.92666 -1.9317,-0.69078 -1.90981,2.25 0.0448,6.02722 1.98555,11.8957 6.55201,19.8126 4.07769,7.06951 4.99079,8.01818 9.2246,9.58393 2.58442,0.95577 5.82394,2.54495 7.19894,3.53152 3.55202,2.5486 14.30173,2.50657 19.56217,-0.0765 z"
     id="path2987"
     inkscape:connector-curvature="0" />
</svg>
