<?xml version="1.0" encoding="UTF-8" standalone="no"?>
<!-- Created with Inkscape (http://www.inkscape.org/) -->

<svg
   xmlns:dc="http://purl.org/dc/elements/1.1/"
   xmlns:cc="http://creativecommons.org/ns#"
   xmlns:rdf="http://www.w3.org/1999/02/22-rdf-syntax-ns#"
   xmlns:svg="http://www.w3.org/2000/svg"
   xmlns="http://www.w3.org/2000/svg"
   xmlns:sodipodi="http://sodipodi.sourceforge.net/DTD/sodipodi-0.dtd"
   xmlns:inkscape="http://www.inkscape.org/namespaces/inkscape"
   id="svg2"
   version="1.1"
   inkscape:version="0.48.2 r9819"
   width="53.742558"
   height="71.592957"
   sodipodi:docname="lock.png">
  <metadata
     id="metadata8">
    <rdf:RDF>
      <cc:Work
         rdf:about="">
        <dc:format>image/svg+xml</dc:format>
        <dc:type
           rdf:resource="http://purl.org/dc/dcmitype/StillImage" />
        <dc:title></dc:title>
      </cc:Work>
    </rdf:RDF>
  </metadata>
  <defs
     id="defs6" />
  <sodipodi:namedview
     pagecolor="#ffffff"
     bordercolor="#666666"
     borderopacity="1"
     objecttolerance="10"
     gridtolerance="10"
     guidetolerance="10"
     inkscape:pageopacity="0"
     inkscape:pageshadow="2"
     inkscape:window-width="1920"
     inkscape:window-height="1176"
     id="namedview4"
     showgrid="false"
     fit-margin-top="0"
     fit-margin-left="0"
     fit-margin-right="0"
     fit-margin-bottom="0"
     inkscape:zoom="2.744186"
     inkscape:cx="-44.697502"
     inkscape:cy="22.829054"
     inkscape:window-x="0"
     inkscape:window-y="24"
     inkscape:window-maximized="1"
     inkscape:current-layer="svg2" />
  <path
     style="fill:#000000"
     d="M 20.797444,70.93846 C 16.763654,69.634044 8.3608738,60.641136 5.0252318,54.058563 1.6068498,47.312711 -0.64294622,35.921921 0.16462478,29.449153 c 0.511555,-4.100171 1.46706102,-6.16449 4.39724002,-9.5 2.059015,-2.343839 4.756798,-6.286525 5.9950742,-8.761525 1.894098,-3.7858239 7.285772,-9.7984919 9.033695,-10.074165 0.275,-0.043372 1.400004,-0.30169112 2.500004,-0.57404342 1.1,-0.2723523 4.39624,-0.5143055 7.32498,-0.5376737 4.4331,-0.035372 5.94051,0.4510084 9,2.90394822 2.02126,1.620539 4.80002,4.966004 6.17502,7.4343659 1.375,2.468362 3.99668,6.481349 5.82596,8.917749 l 3.32596,4.429819 -0.32822,11.09642 c -0.31409,10.618843 -0.49607,11.427119 -4.22828,18.780142 -4.20149,8.277592 -8.62888,12.887955 -15.04462,15.666385 -5.66682,2.454097 -9.51379,2.946468 -13.343994,1.707885 z m 6.793194,-17.316573 c 0,-0.861158 -0.48587,-2.473592 -1.07971,-3.583188 -0.83457,-1.559411 -0.72105,-2.41375 0.5,-3.762999 1.8841,-2.081909 2.02355,-4.244232 0.37971,-5.888072 -3.3674,-3.367391 -8.206628,1.048911 -5.54382,5.05931 1.20296,1.811756 1.20396,2.51557 0.007,4.91489 -1.744639,3.497265 -0.97496,4.8258 2.79583,4.8258 2.00242,0 2.94099,-0.499678 2.94099,-1.565741 z m 3.77944,-31.977526 c 1.47537,-2.277367 3.32729,-3.72808 5.25,-4.112621 4.04618,-0.809238 3.84816,-3.366948 -0.64581,-8.3412309 -3.01775,-3.340288 -4.24844,-4.002881 -7.4349,-4.002881 -5.87238,0 -8.668939,1.531232 -10.945118,5.9929109 l -2.078143,4.073499 3.037263,2.555688 c 1.670495,1.405629 3.037268,3.340687 3.037268,4.300129 0,2.461577 0.89038,3.079551 4.41666,3.065394 2.4216,-0.0097 3.57254,-0.76751 5.36278,-3.530888 z"
     id="path2987"
     inkscape:connector-curvature="0" />
</svg>
