<?xml version="1.0" encoding="UTF-8" standalone="no"?>
<!-- Created with Inkscape (http://www.inkscape.org/) -->

<svg
   xmlns:dc="http://purl.org/dc/elements/1.1/"
   xmlns:cc="http://creativecommons.org/ns#"
   xmlns:rdf="http://www.w3.org/1999/02/22-rdf-syntax-ns#"
   xmlns:svg="http://www.w3.org/2000/svg"
   xmlns="http://www.w3.org/2000/svg"
   xmlns:sodipodi="http://sodipodi.sourceforge.net/DTD/sodipodi-0.dtd"
   xmlns:inkscape="http://www.inkscape.org/namespaces/inkscape"
   id="svg2"
   version="1.1"
   inkscape:version="0.48.2 r9819"
   width="298.60248"
   height="652.54242"
   sodipodi:docname="sandowgetsphysicl00sanduoft_0272b2c.png">
  <metadata
     id="metadata8">
    <rdf:RDF>
      <cc:Work
         rdf:about="">
        <dc:format>image/svg+xml</dc:format>
        <dc:type
           rdf:resource="http://purl.org/dc/dcmitype/StillImage" />
        <dc:title></dc:title>
      </cc:Work>
    </rdf:RDF>
  </metadata>
  <defs
     id="defs6" />
  <sodipodi:namedview
     pagecolor="#ffffff"
     bordercolor="#666666"
     borderopacity="1"
     objecttolerance="10"
     gridtolerance="10"
     guidetolerance="10"
     inkscape:pageopacity="0"
     inkscape:pageshadow="2"
     inkscape:window-width="1920"
     inkscape:window-height="1176"
     id="namedview4"
     showgrid="false"
     fit-margin-top="0"
     fit-margin-left="0"
     fit-margin-right="0"
     fit-margin-bottom="0"
     inkscape:zoom="1"
     inkscape:cx="136.80123"
     inkscape:cy="345.20483"
     inkscape:window-x="0"
     inkscape:window-y="24"
     inkscape:window-maximized="1"
     inkscape:current-layer="svg2" />
  <path
     style="fill:#000000"
     d="m 30.323753,651.59085 c -8.59451,-0.43729 -10.97027,-2.10665 -10.15428,-7.13504 0.69371,-4.27485 3.87024,-7.71527 8.52881,-9.23737 1.98162,-0.64746 6.07795,-2.84548 9.10295,-4.88449 3.025,-2.03901 6.95826,-4.4567 8.74058,-5.37264 5.9942,-3.08043 7.29939,-6.55596 9.81046,-26.12372 1.26529,-9.85989 1.35108,-14.67514 0.48105,-27 -2.79066,-39.53255 -3.00722,-52.98811 -1.03758,-64.46802 1.02428,-5.96996 2.50652,-12.1319 3.29385,-13.69322 0.78734,-1.56132 3.25102,-7.78876 5.47485,-13.83876 5.8495,-15.91378 7.20166,-33.06942 3.78322,-48 -4.12228,-18.0047 -4.70036,-23.22493 -4.87246,-44 -0.1874,-22.6212 0.93208,-31.47594 5.81564,-46 2.90539,-8.64082 7.51039,-28.19845 7.51039,-31.8969 0,-2.85293 3.00343,-17.13149 5.59584,-26.6031 0.82795,-3.025 1.93828,-7.20271 2.4674,-9.28379 0.52911,-2.08109 1.50882,-4.65936 2.17712,-5.72948 0.98957,-1.58456 0.89442,-2.48855 -0.51263,-4.8705 -2.27497,-3.85121 -2.16419,-10.86665 0.30975,-19.61623 3.01594,-10.66649 3.26018,-12.198 2.06326,-12.93774 -0.60541,-0.37416 -1.10074,-3.03874 -1.10074,-5.92128 0,-2.88254 -0.38882,-5.66848 -0.86404,-6.19098 -0.47522,-0.5225 -1.36816,-3.03371 -1.9843,-5.58047 -1.66666,-6.88896 -4.58788,-13.15445 -7.91323,-16.97246 -1.62731,-1.86839 -3.56207,-5.08457 -4.29947,-7.14707 -0.73741,-2.0625 -1.59049,-3.75 -1.89574,-3.75 -0.30525,0 -1.16563,1.4625 -1.91195,3.25 -2.99641,7.17661 -6.61717,13.54615 -10.94001,19.24536 -2.5011,3.29744 -5.57204,8.82011 -6.82431,12.2726 -2.53528,6.98971 -3.02026,7.97369 -5.1574,10.46365 -1.01893,1.18715 -1.56547,4.48858 -1.73824,10.5 -0.18902,6.57666 -1.15427,11.85319 -3.86166,21.10968 -1.98531,6.78771 -3.60965,13.24345 -3.60965,14.34609 0,1.10264 -0.63573,4.32406 -1.41273,7.15871 -0.777,2.83465 -1.67689,8.38144 -1.99976,12.32619 l -0.58703,7.17229 4.24976,3.66501 c 2.33737,2.01576 5.93726,4.53488 7.99976,5.59804 2.0625,1.06317 3.75,2.6701 3.75,3.57096 0,0.90086 1.86138,5.67875 4.1364,10.61753 4.54494,9.86647 6.15562,15.40538 4.73509,16.28331 -0.50616,0.31283 -2.20018,0.28766 -3.7645,-0.0559 -2.08786,-0.45857 -3.55462,-1.92995 -5.51566,-5.53303 -3.05532,-5.61365 -6.85031,-8.99049 -10.10374,-8.99049 -4.10198,0 -4.57827,1.88834 -2.92027,11.57796 2.73127,15.96203 2.75891,16.32403 1.37388,17.99288 -0.75801,0.91336 -2.2807,1.40625 -3.57811,1.15824 -1.90763,-0.36467 -2.30551,0.0501 -2.56082,2.66958 -0.28141,2.88734 -0.56103,3.09347 -4.05227,2.98728 -2.0625,-0.0627 -3.75,0.27476 -3.75,0.75 0,0.47523 -1.07614,0.86406 -2.39142,0.86406 -1.85658,0 -2.74937,-0.8946 -3.9919,-4 -1.44979,-3.62338 -3.61668,-5.44187 -3.61668,-3.03518 0,1.45333 -3.6447397,3.10874 -5.3791897,2.44317 -1.9193,-0.73651 -2.99809,-4.12627 -5.69775,-17.9034 -2.46808,-12.59529 -2.27856,-23.01412 0.51661,-28.40008 1.40442,-2.70616 1.62497,-4.67658 1.08639,-9.7058 -0.46786,-4.36881 -0.15833,-8.84731 1.00605,-14.55614 1.48575,-7.28448 1.52363,-9.12585 0.32486,-15.79419 -0.74633,-4.15161 -1.35697,-14.07338 -1.35697,-22.04838 0,-12.76839 0.3442,-15.81364 2.8822,-25.5 1.5852,-6.05 3.4977,-11.88763 4.2499997,-12.97251 0.75229,-1.08487 1.3678,-3.23445 1.3678,-4.77684 0,-1.54238 2.45052,-7.76068 5.44561,-13.81843 2.99508,-6.05776 5.75002,-12.00818 6.12209,-13.22316 2.8664,-9.3601 8.63956,-21.41967 14.04207,-29.3325 5.58059,-8.17365 6.52159,-10.2297 7.37884,-16.12246 1.98278,-13.62974 3.4638,-16.3521 14.29539,-26.27729 7.16121,-6.56195 11.76799,-8.97681 17.12486,-8.97681 1.91021,0 3.77899,-0.49492 4.15284,-1.09983 0.37385,-0.60491 3.39518,-2.854908 6.71405,-4.999998 4.95754,-3.20421 6.92335,-3.90017 11.01646,-3.90017 4.199347,0 6.021117,-0.68353 11.594957,-4.35044 3.63706,-2.39274 8.04679,-5.08954 9.79942,-5.99289 1.75262,-0.90335 3.48249,-2.12122 3.84414,-2.70639 1.18213,-1.91274 -0.46493,-5.95028 -2.42734,-5.95028 -3.04222,0 -4.5268,-2.84301 -5.95354,-11.40121 -1.87562,-11.25082 -1.78297,-13.76646 0.56443,-15.32507 1.74956,-1.16167 1.88485,-1.92014 1.16017,-6.50443 -1.21114,-7.66161 3.07946,-22.57858 8.41917,-29.27063 3.32789,-4.170721 11.78685,-8.925227 18.39779,-10.34080201 9.85806,-2.11086799 23.95473,2.74573401 30.01497,10.34080201 5.33971,6.69205 9.63031,21.60902 8.41917,29.27063 -0.72468,4.58429 -0.58939,5.34276 1.16017,6.50443 2.3474,1.55861 2.44005,4.07425 0.56443,15.32507 -1.42674,8.5582 -2.91132,11.40121 -5.95354,11.40121 -1.96241,0 -3.60947,4.03754 -2.42734,5.95028 0.36165,0.58517 2.09152,1.80304 3.84414,2.70639 1.75263,0.90335 6.16236,3.60015 9.79942,5.99289 5.57384,3.66691 7.39561,4.35044 11.59496,4.35044 4.09311,0 6.05892,0.69596 11.01646,3.90017 3.31887,2.14509 6.3402,4.395088 6.71405,4.999998 0.37385,0.60491 2.24263,1.09983 4.15284,1.09983 5.35687,0 9.96365,2.41486 17.12486,8.97681 10.83159,9.92519 12.31261,12.64755 14.29539,26.27729 0.85725,5.89276 1.79825,7.94881 7.37884,16.12246 5.4025,7.91283 11.17567,19.9724 14.04206,29.3325 0.37208,1.21498 3.12702,7.1654 6.1221,13.22316 2.99509,6.05775 5.44561,12.27605 5.44561,13.81843 0,1.54239 0.61551,3.69197 1.3678,4.77684 0.75229,1.08488 2.66479,6.92251 4.25,12.97251 2.538,9.68636 2.8822,12.73161 2.8822,25.5 0,7.975 -0.61064,17.89677 -1.35697,22.04838 -1.19877,6.66834 -1.16089,8.50971 0.32486,15.79419 1.16438,5.70883 1.47391,10.18733 1.00605,14.55614 -0.53858,5.02922 -0.31803,6.99964 1.08639,9.7058 2.79517,5.38596 2.98469,15.80479 0.51661,28.40008 -2.69966,13.77713 -3.77845,17.16689 -5.69775,17.9034 -1.73445,0.66557 -5.37919,-0.98984 -5.37919,-2.44317 0,-2.40669 -2.16689,-0.5882 -3.61668,3.03518 -1.24253,3.1054 -2.13532,4 -3.9919,4 -1.31528,0 -2.39142,-0.38883 -2.39142,-0.86406 0,-0.47524 -1.6875,-0.81274 -3.75,-0.75 -3.49124,0.10619 -3.77086,-0.0999 -4.05227,-2.98728 -0.25531,-2.61946 -0.65319,-3.03425 -2.56082,-2.66958 -1.29741,0.24801 -2.8201,-0.24488 -3.57811,-1.15824 -1.38503,-1.66885 -1.35739,-2.03085 1.37388,-17.99288 1.658,-9.68962 1.18171,-11.57796 -2.92027,-11.57796 -3.25343,0 -7.04842,3.37684 -10.10374,8.99047 -1.96104,3.60308 -3.4278,5.07446 -5.51566,5.53303 -1.56432,0.34358 -3.25834,0.36875 -3.7645,0.0559 -1.42053,-0.87793 0.19015,-6.41684 4.73509,-16.28331 2.27502,-4.93878 4.1364,-9.71667 4.1364,-10.61753 0,-0.90086 1.6875,-2.50779 3.75,-3.57096 2.0625,-1.06316 5.66239,-3.58228 7.99976,-5.59804 l 4.24976,-3.66501 -0.58703,-7.17229 c -0.32287,-3.94475 -1.22276,-9.49154 -1.99976,-12.32619 -0.777,-2.83465 -1.41273,-6.05607 -1.41273,-7.15871 0,-1.10264 -1.62434,-7.55838 -3.60965,-14.34609 -2.70739,-9.25649 -3.67264,-14.53302 -3.86166,-21.10968 -0.17277,-6.01142 -0.71931,-9.31285 -1.73824,-10.5 -2.13714,-2.48996 -2.62212,-3.47394 -5.1574,-10.46365 -1.25226,-3.45249 -4.32321,-8.97516 -6.82431,-12.2726 -4.32284,-5.69921 -7.9436,-12.06875 -10.94001,-19.24536 -0.74632,-1.7875 -1.6067,-3.25 -1.91195,-3.25 -0.30525,0 -1.15833,1.6875 -1.89574,3.75 -0.7374,2.0625 -2.67216,5.27868 -4.29947,7.14707 -3.32535,3.81801 -6.24657,10.0835 -7.91323,16.97246 -0.61614,2.54676 -1.50908,5.05797 -1.9843,5.58047 -0.47522,0.5225 -0.86404,3.30844 -0.86404,6.19098 0,2.88254 -0.49533,5.54712 -1.10074,5.92128 -1.19692,0.73974 -0.95268,2.27125 2.06326,12.93774 2.47394,8.74958 2.58472,15.76502 0.30975,19.61623 -1.40705,2.38195 -1.5022,3.28594 -0.51263,4.8705 0.6683,1.07012 1.64801,3.64839 2.17712,5.72948 0.52912,2.08108 1.63945,6.25879 2.4674,9.28379 2.59241,9.47161 5.59584,23.75017 5.59584,26.6031 0,3.69845 4.605,23.25608 7.51039,31.8969 4.88356,14.52406 6.00304,23.3788 5.81564,46 -0.1721,20.77507 -0.75018,25.9953 -4.87246,44 -3.41844,14.93058 -2.06628,32.08622 3.78322,48 2.22383,6.05 4.68751,12.27744 5.47485,13.83876 0.78733,1.56132 2.26957,7.72326 3.29385,13.69322 1.96964,11.47991 1.75308,24.93547 -1.03758,64.46802 -0.87003,12.32486 -0.78424,17.14011 0.48105,27 2.51107,19.56776 3.81626,23.04329 9.81046,26.12372 1.78232,0.91594 5.71558,3.32732 8.74058,5.35862 3.025,2.0313 7.05564,4.22532 8.95698,4.8756 4.76261,1.62887 7.89406,4.83111 8.6465,8.84198 1.14506,6.10367 -0.69943,6.97662 -16.46591,7.79296 l -13.75073,0.71197 -13.63692,-4.60243 c -7.5003,-2.53131 -14.33734,-4.6024 -15.19342,-4.6024 -4.90657,0 -8.09083,-10.13225 -5.03898,-16.03389 1.75288,-3.38968 1.70296,-5.46507 -0.43215,-17.96611 -0.51665,-3.025 -0.97222,-10.69811 -1.01237,-17.05136 -0.10045,-15.8949 -2.18529,-22.53481 -18.04833,-57.48116 -3.42613,-7.54779 -4.22702,-12.67317 -3.97545,-25.44123 0.13575,-6.88944 0.26276,-15.22625 0.28225,-18.52625 0.0362,-6.124 -1.94388,-12.7039 -5.24266,-17.42188 -3.86484,-5.52757 -7.07798,-16.14302 -9.58008,-31.65036 -1.41347,-8.76027 -3.20231,-17.72776 -3.9752,-19.92776 -1.9105,-5.43814 -8.64099,-21.55603 -12.32491,-29.51516 -1.65856,-3.58334 -3.56602,-9.31306 -4.2388,-12.73271 -0.67277,-3.41965 -1.84121,-6.73043 -2.59652,-7.35728 -0.75532,-0.62686 -1.3733,-1.98464 -1.3733,-3.01729 0,-2.6653 -1.31438,-2.33609 -4.76522,1.1935 -2.18216,2.23197 -3.33386,4.75518 -4.21518,9.23484 -0.66696,3.39007 -2.56966,9.0956 -4.22822,12.67894 -3.68392,7.95913 -10.41441,24.07702 -12.32491,29.51516 -0.77289,2.2 -2.56173,11.16749 -3.9752,19.92776 -2.5021,15.50734 -5.71524,26.12279 -9.58008,31.65036 -3.29878,4.71798 -5.27883,11.29788 -5.24266,17.42188 0.0195,3.3 0.1465,11.63681 0.28225,18.52625 0.25157,12.76806 -0.54932,17.89344 -3.97545,25.44123 -15.863037,34.94635 -17.947877,41.58626 -18.048327,57.48116 -0.0401,6.35325 -0.49572,14.02636 -1.01237,17.05136 -2.13511,12.50104 -2.18503,14.57643 -0.43215,17.96611 3.05185,5.90164 -0.13241,16.03389 -5.03898,16.03389 -0.85608,0 -7.55655,2.025 -14.88995,4.5 -14.08071,4.7522 -14.18082,4.76325 -34.03103,3.75326 z"
     id="path2995"
     inkscape:connector-curvature="0" />
</svg>
