<?xml version="1.0" encoding="UTF-8" standalone="no"?>
<!-- Created with Inkscape (http://www.inkscape.org/) -->

<svg
   xmlns:dc="http://purl.org/dc/elements/1.1/"
   xmlns:cc="http://creativecommons.org/ns#"
   xmlns:rdf="http://www.w3.org/1999/02/22-rdf-syntax-ns#"
   xmlns:svg="http://www.w3.org/2000/svg"
   xmlns="http://www.w3.org/2000/svg"
   xmlns:sodipodi="http://sodipodi.sourceforge.net/DTD/sodipodi-0.dtd"
   xmlns:inkscape="http://www.inkscape.org/namespaces/inkscape"
   id="svg2"
   version="1.1"
   inkscape:version="0.48.2 r9819"
   width="607.00012"
   height="510.79694"
   sodipodi:docname="turretstowerstem00sing_0335c.png">
  <metadata
     id="metadata8">
    <rdf:RDF>
      <cc:Work
         rdf:about="">
        <dc:format>image/svg+xml</dc:format>
        <dc:type
           rdf:resource="http://purl.org/dc/dcmitype/StillImage" />
        <dc:title></dc:title>
      </cc:Work>
    </rdf:RDF>
  </metadata>
  <defs
     id="defs6" />
  <sodipodi:namedview
     pagecolor="#ffffff"
     bordercolor="#666666"
     borderopacity="1"
     objecttolerance="10"
     gridtolerance="10"
     guidetolerance="10"
     inkscape:pageopacity="0"
     inkscape:pageshadow="2"
     inkscape:window-width="1600"
     inkscape:window-height="876"
     id="namedview4"
     showgrid="false"
     showborder="true"
     fit-margin-top="0"
     fit-margin-left="0"
     fit-margin-right="0"
     fit-margin-bottom="0"
     inkscape:zoom="1"
     inkscape:cx="302.5001"
     inkscape:cy="258"
     inkscape:window-x="0"
     inkscape:window-y="24"
     inkscape:window-maximized="1"
     inkscape:current-layer="svg2" />
  <path
     style="fill:#000000"
     d="m 1e-4,467.82832 c 0,-37.78348 0.18101,-42.89915 1.5,-42.39301 0.825,0.31659 1.5,1.04721 1.5,1.62361 0,0.5764 0.82293,0.30325 1.82874,-0.60699 1.00581,-0.91025 2.62895,-1.65499 3.60699,-1.65499 1.20097,0 1.58372,-0.50693 1.17903,-1.56154 -0.41275,-1.0756 -0.0571,-1.50656 1.14301,-1.38485 0.95823,0.0972 2.07973,0.0686 2.49223,-0.0635 0.4125,-0.13208 1.0875,-0.33411 1.5,-0.44894 0.4125,-0.11484 2.1,-0.79485 3.75,-1.51113 1.65,-0.71629 3.7459,-1.27218 4.65756,-1.23532 3.57558,0.14456 4.59669,-2.91059 5.24033,-15.67894 0.40327,-7.99994 0.25712,-12.82658 -0.41284,-13.63383 -1.08789,-1.31083 -0.14955,-1.58918 10.26495,-3.04506 5.38264,-0.75246 4.92433,0.53886 5.20019,-14.6519 0.19061,-10.49624 1.57875,-13.71565 5.93457,-13.76361 1.16338,-0.0128 4.087,-0.30079 6.49693,-0.63995 3.29832,-0.46419 4.19623,-0.31656 3.63158,0.59707 -0.50681,0.82003 -0.14406,1.09549 1.1183,0.84922 1.16828,-0.22791 1.92519,-1.29443 2.01989,-2.84613 0.0833,-1.3649 0.1958,-3.26913 0.25,-4.23163 0.17831,-3.16674 1.61809,-1.82383 1.60821,1.5 -0.009,2.96875 0.27158,3.26411 3.24033,3.413 3.13433,0.1572 3.25,0.0254 3.25,-3.70295 0,-2.12627 0.52715,-5.02291 1.17144,-6.43697 1.19712,-2.6274 1.98805,-2.94932 9.82856,-4.00038 6.86459,-0.92024 9.9746,-2.60921 10.15843,-5.51681 0.39866,-6.30578 0.59179,-17.05683 1.2206,-67.94841 0.36997,-29.94339 0.88605,-54.65589 1.14683,-54.91667 1.16074,-1.16074 0.30841,-7.99555 -1.45166,-11.64081 -6.35678,-13.16546 -5.65427,-23.36265 1.61678,-23.4682 1.20504,-0.0175 2.42586,-0.41183 2.71293,-0.87632 1.0818,-1.7504 0.7996,-55.63459 -0.30623,-58.47058 -1.62476,-4.16685 -1.35856,-5.60891 1.25521,-6.79983 2.04282,-0.93077 2.5134,-2.21285 3.57076,-9.72856 0.66982,-4.761077 2.07425,-13.831507 3.12094,-20.156507 1.54025,-9.30746 5.73564,-37.065499 7.40593,-49 0.19244,-1.375 0.89479,-5.559323 1.56079,-9.298495 1.09178,-6.129742 1.03716,-6.990461 -0.5552,-8.75 -1.01617,-1.122814 -1.27565,-1.951465 -0.6111,-1.951465 0.76461,0 1.15499,-2.394104 1.15499,-7.0833331 0,-5.026939 0.34506,-6.96831504 1.18856,-6.68714704 1.51239,0.504129 3.67084,9.93543304 3.09818,13.53743614 -0.23897,1.503174 -0.50391,3.858044 -0.58873,5.233044 -0.19419,3.147603 1.81003,25.615619 2.76529,31 0.66398,3.742578 1.7001,11.97833 2.07582,16.5 0.1828,2.2 0.5646,6.025 0.84844,8.5 0.28384,2.475 0.76769,6.75 1.07524,9.5 0.87966,7.865823 2.67403,17.744087 3.76567,20.730587 0.54895,1.50182 0.72436,3.8212 0.38981,5.15417 -0.50501,2.01213 -0.004,2.78026 2.95249,4.5245 2.94049,1.73493 3.43874,2.49197 2.86022,4.34582 -0.3853,1.23471 -1.03857,2.46992 -1.45171,2.74492 -0.41314,0.275 -1.0597,8.6 -1.4368,18.5 -0.3771,9.9 -0.93131,19.8 -1.23158,22 -0.88493,6.48357 -0.53556,15.52438 0.65537,16.95936 0.60774,0.73229 2.66395,1.62389 4.56936,1.98135 2.06696,0.38776 3.46437,1.23669 3.46437,2.1046 0,1.78115 1.62975,1.9214 2.37859,0.20469 0.29988,-0.6875 0.36912,1.225 0.15386,4.25 -0.21527,3.025 -1.09536,6.85 -1.95576,8.5 -0.8604,1.65 -1.56714,3.80795 -1.57053,4.79545 -0.003,0.9875 -1.11307,2.90237 -2.46596,4.25526 -2.92071,2.92071 -3.83731,10.007 -1.4897,11.51697 1.25984,0.81033 1.25323,1.06116 -0.0505,1.91701 -0.825,0.54158 -1.1074,0.99158 -0.62756,1 0.47985,0.008 0.45266,0.57781 -0.0604,1.26531 -0.94065,1.26044 0.12839,98.52375 1.0935,99.48886 0.26731,0.26732 3.82073,-0.25587 7.89647,-1.16264 l 7.41045,-1.64867 2.70405,-6.89218 c 1.48723,-3.79069 2.60596,-7.48689 2.48606,-8.21377 -0.38673,-2.3445 1.25955,-4.8216 3.20443,-4.8216 1.04115,0 1.89301,-0.62252 1.89301,-1.38337 0,-1.34424 3.35306,-2.95964 5.62507,-2.70997 0.61878,0.068 1.85146,-0.98499 2.73928,-2.33998 0.88782,-1.35499 3.53155,-3.31367 5.87494,-4.35263 5.89463,-2.61343 7.13743,-4.29314 5.62783,-7.60635 -1.51537,-3.32586 -0.45522,-4.4499 2.05466,-2.17849 1.86026,1.68352 1.99095,1.64195 3.42592,-1.08946 3.08721,-5.87638 16.3291,-16.56875 26.6523,-21.5208 6.14275,-2.94669 13.60663,-5.52951 25.5,-8.82408 4.4,-1.21885 8.45,-2.50208 9,-2.85165 0.55,-0.34956 2.33968,-0.63729 3.97707,-0.63939 2.11965,-0.003 3.0846,-0.54841 3.35045,-1.89467 0.20535,-1.03996 1.5259,-2.95897 2.93455,-4.26446 1.40865,-1.30549 2.64551,-3.60461 2.74858,-5.10916 0.78088,-11.39899 1.83744,-19.23554 2.59342,-19.23554 0.49276,0 0.93222,1.9125 0.97659,4.25 0.30881,16.26816 0.50776,17.71791 2.71349,19.77285 1.19989,1.11788 2.44139,3.06749 2.75888,4.33248 0.44875,1.78793 1.73155,2.58289 5.76211,3.57083 2.85167,0.69898 6.87235,2.11932 8.93485,3.1563 2.0625,1.03699 3.75,1.67658 3.75,1.4213 0,-0.25528 1.9125,0.59686 4.25,1.89364 2.3375,1.29679 5.70734,2.67249 7.48853,3.05713 1.7812,0.38464 3.51899,1.15313 3.86178,1.70777 0.34278,0.55463 4.06044,2.54492 8.26146,4.42287 4.20103,1.87794 8.84138,4.04888 10.31189,4.82431 1.47051,0.77543 2.93301,1.15052 3.25,0.83353 0.31699,-0.31699 0.58323,-3.31384 0.59165,-6.65968 0.008,-3.34583 0.45153,-6.75833 0.98469,-7.58333 1.10196,-1.70516 1.23422,-1.25231 1.46027,5 0.50482,13.96292 -0.0219,12.56998 6.71177,17.75104 3.39462,2.61193 7.28533,5.76146 8.64602,6.99896 1.36069,1.2375 2.7964,2.25 3.19046,2.25 0.91089,0 7.60579,5.24922 19.28496,15.12063 l 3.10055,2.62063 -0.0955,10.13309 c -0.0525,5.5732 0.33828,10.40118 0.86845,10.72885 0.53018,0.32767 5.997,1.21278 12.14849,1.96692 6.15149,0.75413 17.1859,2.27141 24.52092,3.37172 7.33501,1.10031 13.63501,1.9278 14,1.83887 1.78104,-0.43399 7.18969,1.53172 7.0276,2.5541 -0.1016,0.64085 0.33224,2.4183 0.96408,3.94988 0.63184,1.53158 1.10072,3.10658 1.04195,3.5 -0.64892,4.34382 -0.35017,4.43279 11.93947,3.55538 l 7.30949,-0.52186 -0.63273,-2.88082 c -0.41808,-1.90349 -0.0434,-3.87844 1.10433,-5.82144 1.85827,-3.14581 3.10094,-3.46463 17.37469,-4.45775 3.55593,-0.2474 6.63183,-0.94951 6.83543,-1.56024 0.2036,-0.61073 0.8014,-0.84388 1.3285,-0.5181 0.5271,0.32578 1.6088,0.0526 2.4036,-0.60712 2.2702,-1.88404 7.822,-0.34758 10.0774,2.78891 2.5517,3.54857 3.0397,9.45405 0.9262,11.20811 -1.4469,1.20081 -1.4411,1.47802 0.065,3.14208 1.262,1.39451 1.5424,3.14274 1.1885,7.41024 -0.4292,5.17622 -0.2784,5.68194 2.06,6.90716 2.3219,1.21654 2.4997,1.79062 2.2291,7.19638 -0.4491,8.9703 -0.5853,29.76473 -0.2645,40.37438 0.158,5.225 0.044,10.62263 -0.2532,11.99473 -0.7686,3.5475 0.2572,6.00527 2.5063,6.00527 1.0629,0 1.9326,0.43588 1.9326,0.96862 0,0.53273 0.6807,0.70739 1.5127,0.38812 0.8321,-0.31927 2.111,-0.084 2.8421,0.52271 0.7311,0.60676 1.6188,0.81359 1.9728,0.45962 0.354,-0.35396 3.0126,-0.77728 5.908,-0.94069 2.8954,-0.16341 7.0966,-0.58451 9.3359,-0.93576 2.6994,-0.42342 5.3089,-0.12159 7.7436,0.89565 3.4612,1.44621 3.7318,1.42255 4.7137,-0.41199 0.5728,-1.07045 1.7007,-1.94628 2.5064,-1.94628 0.9609,0 1.4648,-1.03203 1.4648,-3 0,-2 0.5,-3 1.5,-3 0.825,0 1.5,-0.8449 1.5,-1.87756 0,-2.3902 2.5228,-4.51953 4.4696,-3.77248 0.8223,0.31554 2.7405,2.37381 4.2627,4.57392 3.161,4.56871 3.8264,4.8718 4.5575,2.07612 0.6952,-2.65867 1.9362,-2.52214 5.6757,0.62443 1.7154,1.44344 3.3138,2.4296 3.5519,2.19148 0.2381,-0.23813 0.5567,-24.03163 0.7078,-52.87444 0.2531,-48.30596 0.1368,-52.70988 -1.4752,-55.84511 -2.2956,-4.46482 -2.2956,-8.08644 0,-8.12816 4.4757,-0.0813 4.9898,-1.74864 5.6111,-18.19937 0.3876,-10.26467 0.2381,-15.89851 -0.433,-16.31329 -0.6446,-0.39839 -0.6779,-1.06457 -0.09,-1.79457 0.9192,-1.14078 1.6237,-4.73885 2.6749,-13.66097 0.2916,-2.475 1.1799,-9.83385 1.9741,-16.35301 0.7942,-6.51915 1.3794,-12.14415 1.3007,-12.5 -0.4336,-1.95812 1.5729,-20.14699 2.2224,-20.14699 0.425,0 0.8321,3.4875 0.9046,7.75 0.1574,9.25425 0.8093,19.07651 1.6757,25.25 0.3474,2.475 0.7647,7.425 0.9275,11 0.4661,10.24043 1.5805,16.35179 3.1974,17.53406 1.3181,0.96382 1.3051,1.63838 -0.1123,5.81309 -1.1033,3.24989 -1.6034,8.29828 -1.6034,16.1878 0,10.13172 0.2326,11.69764 2,13.46505 1.1,1.1 2.45,2 3,2 0.55,0 1,0.9 1,2 0,1.1 0.4359,2 0.9686,2 1.2487,0 0.2767,2.57416 -2.6793,7.09558 -1.2929,1.97757 -2.7949,6.35361 -3.3377,9.72454 -0.5429,3.37092 -1.0916,25.60291 -1.2193,49.40442 -0.214,39.87308 -0.091,43.57029 1.5646,47.02546 0.9883,2.0625 2.2235,3.75 2.7449,3.75 1.018,0 4.613,7.27089 5.1391,10.39402 0.4223,2.5068 5.9269,6.59237 6.5425,4.85598 0.2438,-0.6875 0.9039,-1.25 1.4669,-1.25 0.563,0 0.7647,0.675 0.4481,1.5 -0.3166,0.825 -0.1397,1.5 0.393,1.5 0.5327,0 0.9686,0.675 0.9686,1.5 0,1.76169 1.6596,2.02109 2.2178,0.34664 0.2614,-0.78424 1.3282,-0.56106 3.3333,0.69734 1.6219,1.01788 3.074,1.92449 3.2269,2.01467 0.1529,0.0902 -0.1602,1.31653 -0.6958,2.7252 -0.7343,1.93122 -0.6182,2.85638 0.472,3.76113 1.2,0.9959 1.4458,6.10963 1.4458,30.07746 l 0,28.87756 -303.5,0 -303.5,0 0,-42.96862 z m 604.25,-34.69366 c -1.9596,-0.79072 -1.4633,-2.33772 0.75,-2.33772 1.1111,0 2,0.66667 2,1.5 0,1.54095 -0.5739,1.71579 -2.75,0.83772 z"
     id="path2987"
     inkscape:connector-curvature="0" />
</svg>
