<?xml version="1.0" encoding="UTF-8" standalone="no"?>
<!-- Created with Inkscape (http://www.inkscape.org/) -->

<svg
   xmlns:dc="http://purl.org/dc/elements/1.1/"
   xmlns:cc="http://creativecommons.org/ns#"
   xmlns:rdf="http://www.w3.org/1999/02/22-rdf-syntax-ns#"
   xmlns:svg="http://www.w3.org/2000/svg"
   xmlns="http://www.w3.org/2000/svg"
   xmlns:sodipodi="http://sodipodi.sourceforge.net/DTD/sodipodi-0.dtd"
   xmlns:inkscape="http://www.inkscape.org/namespaces/inkscape"
   id="svg2"
   version="1.1"
   inkscape:version="0.48.2 r9819"
   width="139.45775"
   height="685.25098"
   sodipodi:docname="viald.png">
  <metadata
     id="metadata8">
    <rdf:RDF>
      <cc:Work
         rdf:about="">
        <dc:format>image/svg+xml</dc:format>
        <dc:type
           rdf:resource="http://purl.org/dc/dcmitype/StillImage" />
        <dc:title></dc:title>
      </cc:Work>
    </rdf:RDF>
  </metadata>
  <defs
     id="defs6" />
  <sodipodi:namedview
     pagecolor="#ffffff"
     bordercolor="#666666"
     borderopacity="1"
     objecttolerance="10"
     gridtolerance="10"
     guidetolerance="10"
     inkscape:pageopacity="0"
     inkscape:pageshadow="2"
     inkscape:window-width="1600"
     inkscape:window-height="876"
     id="namedview4"
     showgrid="false"
     fit-margin-top="0"
     fit-margin-left="0"
     fit-margin-right="0"
     fit-margin-bottom="0"
     inkscape:zoom="1"
     inkscape:cx="51.891755"
     inkscape:cy="341.82477"
     inkscape:window-x="0"
     inkscape:window-y="24"
     inkscape:window-maximized="1"
     inkscape:current-layer="svg2" />
  <path
     style="fill:#000000"
     d="m 32.391755,684.50654 c -1.1,-0.4361 -5.47438,-1.10015 -9.72085,-1.47568 -10.55495,-0.93341 -16.0233804,-2.76256 -19.7956204,-6.62151 -3.14471997,-3.217 -3.18264997,-3.37084 -2.55788997,-10.37429 C 1.3384746,654.58904 1.9079046,602.70172 2.3708146,478.9262 c 0.23861,-63.8 0.69496,-138.05 1.01412,-165 0.31917,-26.95 0.58469,-77.27958 0.59005,-111.84352 l 0.01,-62.84352 2.3156,-3.65648 c 1.27358,-2.01106 4.6798004,-6.13148 7.5693704,-9.15648 6.24205,-6.53461 9.4302,-12.8652 8.53398,-16.94565 -0.74205,-3.37831 -2.7584,-5.33774 -7.51198,-7.29986 -1.925,-0.79458 -4.07535,-2.13848 -4.77856,-2.986459 -1.3979304,-1.68572 -3.7149004,-11.322043 -5.3432604,-22.222685 -1.18743,-7.948939 -0.56549,-8.984542 5.9640504,-9.930793 13.43398,-1.94686 12.15757,-1.31001 12.15757,-6.06596 0,-2.351587 -0.45982,-6.699533 -1.02181,-9.662102 -0.562,-2.96257 -1.69553,-11.46149 -2.51896,-18.88649 -0.82342,-7.425 -1.76879,-15.607847 -2.10081,-18.184104 -0.54154,-4.202047 -0.32455,-4.9427863 2.10855,-7.1977013 1.67758,-1.554733 4.87149,-2.940074 8.37262,-3.631575 3.11323,-0.614888 7.23541,-1.623526 9.16041,-2.24142 4.82994,-1.55033001 50.70501,-1.56599121 64.158355,-0.0219 7.80529,0.89584 12.22208,1.974711 16.5,4.030386 l 5.84164,2.80709 -0.0584,5.4696133 c -0.0682,6.383009 -1.62505,19.136203 -4.60194,37.697331 -2.27121,14.160955 -1.95763,16.27228 2.41677,16.27228 1.10634,0 3.63874,0.444603 5.62755,0.988007 1.98881,0.543403 5.48225,1.448289 7.7632,2.010856 5.05442,1.246611 5.64749,2.561855 3.93115,8.718061 -0.73343,2.630692 -1.87802,8.037541 -2.54354,12.015226 -1.37647,8.22687 -4.12737,13.040339 -8.79282,15.385529 -4.43009,2.22688 -6.30138,3.90839 -7.31428,6.57251 -1.27274,3.34756 3.13537,11.40816 8.75872,16.01608 5.04733,4.1359 7.19162,8.11773 8.50522,15.79373 1.18872,6.9463 2.82573,27.6629 2.25842,28.58081 -1.08275,1.75194 -1.34647,51.444 -1.41293,266.24143 -0.068,219.8224 -0.12811,226.93574 -1.94724,230.5 -1.03238,2.02277 -2.71245,4.43091 -3.73347,5.35143 -2.79174,2.51694 -11.93371,5.56046 -20.35641,6.77701 -15.868285,2.29196 -75.089005,3.87838 -79.499995,2.12966 z m 23.625,-4.08034 c 3.41069,0 2.12748,-2.98461 -1.375,-3.1981 -12.14943,-0.74058 -10.63407,-0.54918 -21.63649,-2.73284 -8.41067,-1.66927 -12.11351,-1.4248 -12.11351,0.79975 0,1.57149 1.47167,2.13131 9.25,3.51867 10.58146,1.88734 16.99795,2.48607 21.125,1.97119 1.58125,-0.19727 3.71875,-0.35867 4.75,-0.35867 z m 24.125,-0.64185 c 3.53277,-0.58393 5.11141,-2.73768 2.61627,-3.56939 -2.15687,-0.71896 -15.19729,1.1288 -15.89128,2.25171 -0.47157,0.76301 -0.89304,0.61547 -1.30444,-0.45662 -0.59361,-1.54692 -3.74455,-2.17652 -4.93498,-0.98608 -0.32877,0.32877 -0.35563,1.22877 -0.0597,2 0.57947,1.51007 12.28699,1.96487 19.57411,0.76038 z m 19.25,-1.43453 c 2.749995,-0.52644 7.699995,-1.1901 10.999995,-1.4748 5.56733,-0.4803 10.41197,-1.89169 16.44993,-4.79235 1.34746,-0.64732 3.29756,-2.62829 4.33354,-4.40214 1.7245,-2.95275 1.91366,-6.11947 2.23933,-37.48975 0.28702,-27.64617 1.20857,-251.70354 1.83139,-445.26458 0.13513,-41.99547 -0.0721,-43.18319 -9.23352,-52.91586 -9.86503,-10.48018 -11.12067,-12.36534 -11.12067,-16.69605 0,-5.28792 2.37892,-8.62173 7.17832,-10.05966 2.17666,-0.65214 4.79816,-2.25436 5.82555,-3.56048 1.02739,-1.30612 3.08644,-7.531389 4.57567,-13.833929 3.5967,-15.221596 3.45538,-15.389983 -14.32954,-17.074897 -6.68113,-0.632959 -7.33466,-0.171636 -4.35814,3.076426 1.83412,2.001443 1.83909,2.326374 0.16289,10.646378 -2.2639,11.237133 -2.43202,11.466063 -6.55113,8.920313 -2.65783,-1.64263 -5.64733,-2.17913 -14.670815,-2.63283 -22.97893,-1.155372 -51.20184,-0.19934 -52.42253,1.77577 -0.29057,0.47015 -1.53675,0.85482 -2.76929,0.85482 -1.23254,0 -2.73267,0.49169 -3.33362,1.09264 -1.59332,1.59332 -4.80243,-0.41009 -6.094,-3.80442 -0.58352,-1.533522 -1.33029,-5.492101 -1.6595,-8.796844 -0.53723,-5.392984 -0.36822,-6.205842 1.64949,-7.933463 1.23643,-1.058661 3.38398,-2.123338 4.77235,-2.365947 3.28116,-0.573366 37.75143,-0.573176 59.7743,3.29e-4 9.487495,0.247068 17.249995,0.07988 17.249995,-0.37154 0,-0.451415 -0.675,-0.820755 -1.5,-0.820755 -0.825,0 -1.5,-0.461094 -1.5,-1.024652 0,-1.168821 -2.78546,-1.248464 -47.499995,-1.358152 -28.75733,-0.07054 -47.57871,0.695381 -49.7278904,2.023646 -1.73862,1.074526 -0.4238,11.869727 2.7937204,22.937598 1.90004,6.5359 4.58732,8.266069 9.14574,5.88836 4.76388,-2.4849 7.53407,-1.35032 3.24423,1.328729 l -2.0442,1.27663 2.0442,2.59878 c 2.63015,3.34369 2.60645,8.28657 -0.0653,13.6189 -2.06032,4.11204 -3.21693,5.53365 -10.34092,12.71016 -5.9118404,5.95542 -6.7789304,9.42269 -7.1272604,28.5 -0.17072,9.35 -0.60435,114.94924 -0.96364,234.66499 -0.46068,153.50431 -0.33876,218.20588 0.41362,219.5 0.7607,1.3084 1.07559,-29.10461 1.09727,-105.97692 l 0.03043,-107.81192 2.5864604,-5.46732 c 2.35516,-4.97841 3.15358,-5.72447 8.92839,-8.34289 3.48807,-1.58157 7.83666,-3.19537 9.66355,-3.58622 1.82688,-0.39086 4.4466,-1.29134 5.8216,-2.00107 2.09784,-1.08283 10.82241,-3.86599 22,-7.01804 1.375,-0.38775 6.775,-2.70546 12,-5.15047 5.225,-2.44501 11.525,-4.93041 14,-5.5231 6.52699,-1.56305 12.90728,-4.12804 12.38209,-4.97783 -0.24962,-0.40388 0.7998,-0.72025 2.33203,-0.70305 1.53224,0.0172 7.585325,-0.73239 13.451325,-1.66574 10.5022,-1.67104 10.70884,-1.66596 13.5,0.33186 1.63706,1.17176 3.35699,3.736 4.0712,6.06977 1.76789,5.7768 1.84156,289.43315 0.0768,295.5199 -2.25124,7.76439 -2.95123,8.36159 -16.51148,14.08676 -3.66476,1.54727 -8.97822,2.83395 -12.999995,3.14801 -10.01528,0.7821 -11.30192,1.1717 -11.30192,3.42233 0,2.28014 3.05787,2.52066 11.5,0.90457 z M 10.949385,372.79864 c 0.0317,-7.07984 0.39144,-14.67244 0.79943,-16.87244 0.73752,-3.9769 0.74585,-3.96306 1.44237,2.39669 1.27262,11.61995 0.87153,24.71654 -0.79943,26.10331 -1.32058,1.09599 -1.49311,-0.29482 -1.44237,-11.62756 z m 3.94237,-11.11342 c 0,-12.89316 -0.39649,-22.38603 -0.94927,-22.72767 -0.5434,-0.33584 -1.1039,1.88361 -1.31092,5.19099 -0.1989,3.17771 -0.44673,-3.40984 -0.55073,-14.63901 -0.10399,-11.22916 0.0678,-20.15978 0.38177,-19.84581 0.31397,0.31396 0.59016,6.01905 0.61377,12.67796 0.0236,6.65892 0.44173,12.35359 0.92915,12.65484 0.48743,0.30124 0.91825,-2.29134 0.95738,-5.7613 0.0391,-3.46996 0.26414,-18.3961 0.5,-33.16919 0.23587,-14.77309 0.42885,-31.08559 0.42885,-36.25 0,-5.82801 0.39411,-9.38983 1.03897,-9.38983 1.49276,0 0.55943,130.8016 -0.94406,132.30509 -0.79321,0.79321 -1.09491,-5.00595 -1.09491,-21.04607 z m 5.894,18.30164 c -0.29083,-0.29082 -0.41218,-9.64845 -0.26968,-20.79472 0.14251,-11.14627 0.28533,-35.90344 0.31739,-55.01594 0.0378,-22.55743 0.41062,-34.75 1.06246,-34.75 1.0985,0 1.13351,106.10481 0.0361,109.29472 -0.3396,0.98709 -0.85541,1.55677 -1.14623,1.26594 z m 24.18738,-42.64121 c 0.0501,-19.0193 0.48873,-35.2193 0.9747,-36 0.52193,-0.83848 0.8891,12.70114 0.89709,33.08055 0.008,21.07127 -0.37113,35.08386 -0.97469,36 -0.65996,1.00173 -0.95795,-9.98692 -0.8971,-33.08055 z m 11.91862,21.19858 c 0,-4.4 0.45,-8.27811 1,-8.61803 0.63484,-0.39235 1,2.30328 1,7.38197 0,4.4 -0.45,8.27811 -1,8.61803 -0.63484,0.39235 -1,-2.30328 -1,-7.38197 z m -7.22165,-5.70136 c -0.12191,-7.10417 -0.15255,-15.61667 -0.06809,-18.91667 0.0845,-3.3 0.22279,-24 0.30739,-46 0.0846,-22 0.53663,-40.9 1.0045,-42 0.47508,-1.11693 0.69385,24.64008 0.49547,58.33546 -0.19537,33.18451 -0.61676,60.59701 -0.93642,60.91667 -0.31966,0.31966 -0.68094,-5.2313 -0.80285,-12.33546 z m 46.82646,-72.09538 c 0.2929,-40.05171 0.72347,-73.41231 0.95681,-74.13467 0.23334,-0.72236 0.82661,-1.06472 1.31837,-0.76079 0.49177,0.30393 0.7351,5.61995 0.54074,11.81338 -0.19435,6.19344 -0.57935,39.15606 -0.85553,73.25028 -0.32236,39.7942 -0.85856,62.1083 -1.49755,62.32129 -0.6577,0.21924 -0.81472,-24.37373 -0.46284,-72.48949 z m 9.827945,-23.3077 c 0.43363,-64.01363 0.97949,-94.8133 1.69254,-95.5 0.73649,-0.70927 0.85566,17.90143 0.39691,61.98641 -0.36056,34.65 -0.80017,77.31211 -0.9769,94.80468 -0.17674,17.49257 -0.64337,32.11757 -1.03698,32.5 -0.3936,0.38243 -0.42761,-41.82356 -0.0756,-93.79109 z m 6.15412,-6.51359 c 0.31151,-55 0.72322,-100.51154 0.91491,-101.13675 0.19168,-0.62521 1.8447,-1.06365 3.67337,-0.97432 3.31099,0.16174 3.32713,0.18731 3.87407,6.13674 l 0.54923,5.97433 0.45077,-5 c 0.2588,-2.8706 0.87665,-4.78706 1.45077,-4.5 1.12052,0.56026 1.12982,3.55755 0.23444,75.5 -0.34226,27.5 -0.64752,60.0875 -0.67836,72.41667 -0.0309,12.32916 -0.29389,22.17885 -0.58455,21.8882 -0.29065,-0.29066 -0.57958,-35.57816 -0.64207,-78.41667 -0.0625,-42.83851 -0.45419,-75.1882 -0.87047,-71.8882 -0.41628,3.3 -1.09126,38.175 -1.49997,77.5 -0.4087,39.325 -1.0693,72.4 -1.46799,73.5 -0.39869,1.1 -0.53039,-35.50722 -0.29267,-81.34937 0.30353,-58.5323 0.11678,-83.15441 -0.62721,-82.6946 -0.66544,0.41126 -1.03932,5.65409 -1.00534,14.09785 0.0298,7.3937 -0.20925,13.8692 -0.53113,14.39 -0.32187,0.5208 -0.65577,36.99751 -0.742,81.05935 -0.12575,64.25809 -0.41557,80.44732 -1.46447,81.80461 -1.0784,1.39544 -1.20839,-15.84275 -0.74133,-98.30784 z m 4.47389,87.0942 c 0.0838,-6.91926 0.50365,-12.3634 0.93294,-12.09809 1.25743,0.77714 1.26279,23.22733 0.006,24.00424 -0.76898,0.47525 -1.0461,-3.03969 -0.93867,-11.90615 z m 10.28864,4.4058 c 0,-4.675 0.17226,-6.5875 0.3828,-4.25 0.21053,2.3375 0.21053,6.1625 0,8.5 -0.21054,2.3375 -0.3828,0.425 -0.3828,-4.25 z m -6.34941,-4.44098 c 0,-6.54864 0.42762,-11.70527 1,-12.05902 0.64555,-0.39897 1,3.65628 1,11.44098 0,7.37268 -0.38862,12.05902 -1,12.05902 -0.6084,0 -1,-4.48033 -1,-11.44098 z m -63.305385,2.80226 c -1.01366,-1.01366 -0.85157,-12.36128 0.17656,-12.36128 1.23122,0 2.37789,9.73253 1.3608,11.54997 -0.46351,0.82825 -1.15532,1.19334 -1.53736,0.81131 z M 126.93747,317.4262 c -0.008,-6.325 0.36218,-12.09504 0.8233,-12.82231 1.10771,-1.74707 1.14449,20.85739 0.0371,22.82231 -0.499,0.88543 -0.85153,-3.2117 -0.86044,-10 z m -69.565485,2.96801 c -1.03671,-1.67744 0.52992,-95.28162 1.61373,-96.41801 0.57223,-0.6 0.9134,-0.6 0.92603,0 0.0878,4.17329 -0.29423,88.88767 -0.41553,92.14256 -0.16839,4.51814 -0.97316,6.13792 -2.12423,4.27545 z M 12.027115,303.4262 c 0,-3.95102 0.13238,-4.22551 1.08514,-2.25 0.78017,1.61768 0.78017,2.88232 0,4.5 -0.95276,1.97551 -1.08514,1.70102 -1.08514,-2.25 z m 33.81909,-5.58333 c -0.0251,-1.05417 -0.008,-24.25401 0.0385,-51.55521 l 0.0841,-49.63855 -2.57873,-1.87847 c -2.75891,-2.00972 -2.29597,0.30767 -6.66121,-33.34444 -0.60642,-4.675 -1.78709,-11.875 -2.62371,-16 -0.83661,-4.125 -1.57733,-11.55 -1.64605,-16.5 -0.0687,-4.95 -0.662,-11.35818 -1.31842,-14.24041 -1.20344,-5.2841 -0.862,-8.25959 0.9478,-8.25959 0.54049,0 1.78127,-0.98617 2.75728,-2.19149 1.72068,-2.12495 2.51491,-2.20387 26.16029,-2.59923 27.02899,-0.45193 39.254315,0.90946 43.434815,4.83684 1.27966,1.20218 2.80553,1.75503 3.79545,1.37516 1.35543,-0.52012 1.65546,0.0304 1.65546,3.03747 0,2.02 -0.5455,4.65565 -1.21223,5.85699 -0.66672,1.20134 -1.29907,4.65926 -1.40521,7.68426 -0.10613,3.025 -0.5899,8.31451 -1.07502,11.75446 -0.48513,3.43996 -0.56056,6.82893 -0.16763,7.53105 0.71265,1.27346 -5.53672,48.92949 -6.653285,50.73613 -0.32363,0.52365 -3.15301,1.70024 -6.28752,2.61465 -6.46421,1.88577 -27.61936,2.4385 -37.89905,0.99021 -6.0298,-0.84954 -6.21367,-0.80837 -6.69991,1.5 -0.27497,1.30542 -0.77189,24.1854 -1.10426,50.84438 -0.33237,26.65899 -0.80492,48.67149 -1.0501,48.91667 -0.24518,0.24518 -0.46628,-0.41672 -0.49133,-1.47088 z M 12.256985,285.9262 c -0.003,-5.5 0.16319,-7.87758 0.36844,-5.28352 0.20525,2.59406 0.20738,7.09406 0.005,10 -0.20261,2.90594 -0.37054,0.78352 -0.37314,-4.71648 z m 114.896985,4.54429 c -0.13077,-2.71775 0.20673,-5.21608 0.75,-5.55185 0.60512,-0.37398 0.98778,1.54304 0.98778,4.94854 0,6.88128 -1.41209,7.37152 -1.73778,0.60331 z m 0.63552,-13.12762 c -0.52006,-12.29017 0.1572,-90.19506 0.7787,-89.57356 0.73756,0.73755 0.51879,90.795 -0.22236,91.53615 -0.24974,0.24974 -0.5001,-0.63343 -0.55634,-1.96259 z M 12.150045,256.52827 c 0.0908,-3.27712 0.51988,-5.73917 0.95343,-5.47122 1.12323,0.69419 0.97943,10.13298 -0.16515,10.84037 -0.57029,0.35246 -0.88706,-1.80513 -0.78828,-5.36915 z m 0.99389,-10.60207 c -0.0111,-2.2 0.18461,-3.21775 0.4349,-2.26166 0.25029,0.95609 0.25937,2.75609 0.0202,4 -0.23919,1.24391 -0.44398,0.46166 -0.45508,-1.73834 z m -0.64519,-8.08179 c -1.00128,-2.6093 -0.68435,-16.25236 0.39301,-16.91821 0.64003,-0.39556 1,2.82295 1,8.94098 0,9.54269 -0.24778,10.96165 -1.39301,7.97723 z m 38.47196,0.16512 c -0.0434,-1.05416 0.19293,-1.64479 0.52522,-1.3125 0.33229,0.33229 0.36782,1.19479 0.0789,1.91667 -0.31923,0.79773 -0.55619,0.56078 -0.60417,-0.60417 z m -33.92106,-2.58333 c 0,-1.375 0.22698,-1.9375 0.50439,-1.25 0.27741,0.6875 0.27741,1.8125 0,2.5 -0.27741,0.6875 -0.50439,0.125 -0.50439,-1.25 z m -0.3644,-5.5 c -0.9382,-2.73194 -0.80042,-40.86447 0.15994,-44.26655 0.71103,-2.51883 0.83039,-2.36176 1.52023,2.00053 0.88845,5.61819 -0.68373,45.16758 -1.68017,42.26602 z m 4.83151,-3.625 c -0.93324,-4.66617 -0.7554,-8.875 0.375,-8.875 0.55556,0 1,2.66667 1,6 0,6.66678 -0.43481,7.57593 -1.375,2.875 z m -8.69359,-12.27692 c -0.23759,-0.23759 -0.35521,-14.90849 -0.26138,-32.60201 0.15268,-28.7929 0.62581,-36.23437 2.05021,-32.24607 0.70495,1.97387 2.27976,1.45579 2.27976,-0.75 0,-1.1 0.45,-2 1,-2 1.205,0 1.25767,31.50658 0.0577,34.5 -0.65677,1.63834 -0.97481,1.18626 -1.75877,-2.5 -0.8059,-3.78943 -1.08059,-1.63169 -1.73959,13.66487 -0.43042,9.99067 -0.53704,18.56216 -0.23693,19.04774 0.59112,0.95646 -0.68102,3.59542 -1.39097,2.88547 z m 3.98264,-53.34808 c -0.08,-4.41964 -0.14843,-4.54135 -0.98416,-1.75 -0.81417,2.71933 -0.44338,6.5 0.6375,6.5 0.23793,0 0.39393,-2.1375 0.34666,-4.75 z m 4.67794,39.9868 c -0.74296,-7.53985 0.0644,-16.5672 1.40744,-15.73715 1.02678,0.63459 1.10893,18.44286 0.0968,20.99005 -0.55574,1.39864 -1.0026,-0.16179 -1.50427,-5.2529 z M 127.99143,172.6762 c -0.0551,-2.89979 0.34798,-5.25 0.90032,-5.25 1.16054,0 1.16054,4.37622 0,8 -0.62993,1.96696 -0.82189,1.38061 -0.90032,-2.75 z m -3.86218,-35.4125 c -1.50205,-1.50205 -1.62749,-3.8375 -0.20612,-3.8375 1.20795,0 2.31473,2.46167 1.80045,4.00451 -0.23856,0.71567 -0.76701,0.66031 -1.59433,-0.16701 z m -13.03606,-2.09275 c -0.93209,-1.12456 -0.98387,-1.76118 -0.18347,-2.25586 1.48042,-0.91495 2.23715,-0.0468 1.82043,2.08857 -0.30488,1.56224 -0.46702,1.57881 -1.63696,0.16729 z m -86.201435,-0.53897 c 0,-0.52849 0.7269,-1.56417 1.61534,-2.3015 1.39754,-1.15986 1.56608,-1.08641 1.25,0.54469 -0.37664,1.94362 -2.86534,3.4695 -2.86534,1.75681 z m 91.493475,-2.80322 c -2.29382,-3.00734 -2.44519,-3.53991 -0.92283,-3.24673 1.92148,0.37004 6.3107,6.84417 4.64009,6.84417 -0.53535,0 -2.20812,-1.61885 -3.71726,-3.59744 z m -3.74348,-31.11881 c -2.78508,-0.42191 -3.90606,-2.283749 -1.375,-2.283749 2.97322,0 7.625,1.2964 7.625,2.124999 0,0.88444 -1.24999,0.91618 -6.25,0.15875 z M 29.920715,99.493581 c -2.72141,-1.77346 0.0395,-2.52435 10.03343,-2.7288 11.42228,-0.23367 13.54882,1.29189 2.68761,1.92807 -3.9875,0.23356 -8.15,0.72496 -9.25,1.092 -1.1,0.367049 -2.66197,0.235969 -3.47104,-0.29127 z m 52.72104,-0.78363 c -2.46585,-0.37355 -4.03416,-2.28375 -1.875,-2.28375 2.7723,0 7.0122,1.37349 6.54975,2.12175 -0.29853,0.48304 -0.85373,0.81083 -1.23377,0.72842 -0.38004,-0.0824 -1.92848,-0.3373 -3.44098,-0.56642 z m 8.72301,-0.32742 c -0.32508,-0.52598 0.33551,-0.95633 1.46797,-0.95633 2.41457,0 2.65816,0.55611 0.59105,1.34934 -0.80739,0.30982 -1.73395,0.13297 -2.05902,-0.39301 z m -35.90825,-0.85155 c -0.3043,-0.49236 0.007,-1.10788 0.69098,-1.36782 1.84141,-0.69943 7.74426,0.3498 7.74426,1.37654 0,1.16176 -7.71677,1.15379 -8.43524,-0.009 z m 16.65341,-0.25928 c 0.52095,-1.56287 2.69751,-1.81686 2.96072,-0.3455 0.0984,0.55 -0.62844,1.15548 -1.61517,1.3455 -1.15018,0.22151 -1.63309,-0.13738 -1.34555,-1 z m -5.94734,-0.44967 c 0.3323,-0.33229 1.1948,-0.36781 1.91667,-0.0789 0.79773,0.31922 0.56078,0.55618 -0.60417,0.60416 -1.05416,0.0434 -1.64479,-0.19292 -1.3125,-0.52522 z M 9.2605846,667.6762 c -0.36866,-1.5125 -0.93996,-13.775 -1.26956,-27.25 -0.3296,-13.475 -0.92993,-23.99154 -1.33406,-23.37009 -0.40414,0.62144 -0.80398,12.20022 -0.88853,25.73062 -0.11569,18.51362 0.15828,24.97667 1.10724,26.12009 1.97391,2.37842 3.12038,1.78683 2.38491,-1.23062 z m 28.6311704,-266.75 c 6.31068,-0.90607 8.11184,-1.51002 7.49242,-2.51227 -0.30115,-0.48727 -1.73367,-0.46584 -3.26453,0.0488 -2.24296,0.75408 -5.97265,1.36893 -11.47789,1.89217 -0.4125,0.0392 -0.75,0.5516 -0.75,1.13867 0,0.58706 0.7875,0.84493 1.75,0.57305 0.9625,-0.27189 3.775,-0.78508 6.25,-1.14044 z m -18,-0.5 c 0,-0.55 -1.2375,-0.99311 -2.75,-0.98469 -2.14294,0.0119 -2.41888,0.22931 -1.25,0.98469 1.95653,1.26441 4,1.26441 4,0 z m 44.19393,-8.43801 c 34.10108,-14.11496 53.745645,-22.8215 56.306065,-24.95503 1.65,-1.3749 2.52235,-2.52392 1.93856,-2.55339 -0.58379,-0.0295 -1.93379,0.7506 -3,1.73347 -1.06621,0.98288 -3.51356,2.40416 -5.43856,3.15841 -1.925,0.75425 -5.88438,2.46811 -8.79861,3.80857 -2.91424,1.34047 -5.839235,2.54452 -6.499995,2.67568 -1.6046,0.31849 -6.50182,2.4246 -10.20139,4.38723 -1.65,0.87532 -3,1.46797 -3,1.31699 0,-0.15099 -1.35,0.28191 -3,0.96199 -1.65,0.68007 -3.225,1.30632 -3.5,1.39165 -1.75341,0.5441 -6.59147,3.09716 -7.04341,3.71683 -0.29887,0.40981 -1.64887,0.94803 -3,1.19605 -1.35112,0.24802 -2.68159,0.53767 -2.95659,0.64367 -0.275,0.106 -0.8375,0.13944 -1.25,0.0743 -0.4125,-0.0651 -0.75,0.33159 -0.75,0.88159 0,0.55 -0.3375,0.9044 -0.75,0.78755 -0.4125,-0.11685 -1.70333,0.31732 -2.86852,0.96481 -1.16518,0.6475 -2.33856,0.95723 -2.6075,0.68829 -0.26894,-0.26894 -1.0582,0.19689 -1.75392,1.03518 -1.74644,2.10433 -1.25692,1.98971 8.17387,-1.91384 z"
     id="path2987"
     inkscape:connector-curvature="0" />
</svg>
