<?xml version="1.0" encoding="UTF-8" standalone="no"?>
<!-- Created with Inkscape (http://www.inkscape.org/) -->

<svg
   xmlns:dc="http://purl.org/dc/elements/1.1/"
   xmlns:cc="http://creativecommons.org/ns#"
   xmlns:rdf="http://www.w3.org/1999/02/22-rdf-syntax-ns#"
   xmlns:svg="http://www.w3.org/2000/svg"
   xmlns="http://www.w3.org/2000/svg"
   xmlns:sodipodi="http://sodipodi.sourceforge.net/DTD/sodipodi-0.dtd"
   xmlns:inkscape="http://www.inkscape.org/namespaces/inkscape"
   id="svg2"
   version="1.1"
   inkscape:version="0.48.2 r9819"
   width="921"
   height="337.49078"
   sodipodi:docname="turretstowerstem00sing_0109b.png">
  <metadata
     id="metadata8">
    <rdf:RDF>
      <cc:Work
         rdf:about="">
        <dc:format>image/svg+xml</dc:format>
        <dc:type
           rdf:resource="http://purl.org/dc/dcmitype/StillImage" />
        <dc:title></dc:title>
      </cc:Work>
    </rdf:RDF>
  </metadata>
  <defs
     id="defs6" />
  <sodipodi:namedview
     pagecolor="#ffffff"
     bordercolor="#666666"
     borderopacity="1"
     objecttolerance="10"
     gridtolerance="10"
     guidetolerance="10"
     inkscape:pageopacity="0"
     inkscape:pageshadow="2"
     inkscape:window-width="1600"
     inkscape:window-height="876"
     id="namedview4"
     showgrid="false"
     fit-margin-top="0"
     fit-margin-left="0"
     fit-margin-right="0"
     fit-margin-bottom="0"
     inkscape:zoom="1"
     inkscape:cx="460.5"
     inkscape:cy="170.5"
     inkscape:window-x="0"
     inkscape:window-y="24"
     inkscape:window-maximized="1"
     inkscape:current-layer="svg2" />
  <path
     style="fill:#000000"
     d="m 0,326.94427 0,-10.54651 3.20166,-1.70349 c 1.76092,-0.93692 5.47342,-3.79109 8.25,-6.3426 2.77659,-2.5515 7.97334,-6.03855 11.54834,-7.749 3.575,-1.71044 8.04827,-4.2483 9.9406,-5.63968 1.89232,-1.39138 4.59232,-2.79366 6,-3.11618 1.40767,-0.32252 4.26641,-1.73429 6.35275,-3.13726 2.08635,-1.40297 5.46135,-2.63842 7.5,-2.74544 6.44541,-0.33835 6.78511,-0.43195 8.97628,-2.47333 1.18071,-1.1 3.1861,-2 4.45642,-2 1.27032,0 3.87664,-1.05638 5.79182,-2.34751 1.91517,-1.29114 3.99831,-2.16908 4.62919,-1.95099 0.63088,0.2181 1.08088,-0.41302 1,-1.40248 -0.10345,-1.2655 0.66848,-1.89286 2.60294,-2.11544 1.5125,-0.17403 2.75,-0.85483 2.75,-1.51287 0,-0.65805 1.0125,-1.64066 2.25,-2.18358 1.2375,-0.54292 2.39037,-1.97348 2.56194,-3.17903 0.39405,-2.76889 5.9798,-8.3081 8.3779,-8.3081 0.99559,0 1.81016,-0.675 1.81016,-1.5 0,-0.83333 0.88889,-1.5 2,-1.5 1.33333,0 2,-0.66667 2,-2 0,-1.1 0.62252,-2 1.38337,-2 0.76085,0 1.61872,-0.9 1.90638,-2 0.28766,-1.1 1.24014,-2 2.11663,-2 0.92695,0 1.59362,-0.83667 1.59362,-2 0,-1.55556 0.66667,-2 3,-2 2.38411,0 3,-0.43256 3,-2.10699 0,-1.52674 0.44375,-1.93671 1.61134,-1.48866 1.153,0.44245 1.44638,0.18844 1.03139,-0.89301 -0.39642,-1.03304 0.043,-1.51134 1.38865,-1.51134 1.30195,0 1.96862,-0.6773 1.96862,-2 0,-1.33333 0.66667,-2 2,-2 3.22413,0 3.4418,-0.14546 4.70173,-3.14194 0.66095,-1.57193 1.67345,-2.85806 2.25,-2.85806 0.57655,0 1.04827,-0.57566 1.04827,-1.27924 0,-0.70358 0.9,-1.92792 2,-2.72076 1.1,-0.79284 2,-2.01718 2,-2.72076 0,-0.70358 0.70714,-1.27924 1.57143,-1.27924 1.79599,0 4.42857,-2.33535 4.42857,-3.92857 0,-0.58929 0.66643,-1.07143 1.48095,-1.07143 0.81452,0 1.7633,-1.125 2.10841,-2.5 0.38751,-1.54397 1.33764,-2.5 2.48457,-2.5 1.56038,0 7.13076,-4.3745 7.64025,-6 0.93736,-2.99057 1.79356,-4 3.39281,-4 1.04115,0 1.89301,-0.50937 1.89301,-1.13192 0,-1.32623 6.71074,-7.86808 8.0712,-7.86808 0.51084,0 0.9288,-0.61197 0.9288,-1.35993 0,-0.74796 1.18473,-2.21046 2.63273,-3.25 4.15447,-2.98254 9.90074,-8.63631 11.83053,-11.64007 0.97172,-1.5125 2.27959,-2.75 2.90639,-2.75 0.6268,0 2.71255,-2.00796 4.63499,-4.46214 1.92245,-2.45418 4.28286,-4.47918 5.24536,-4.5 0.9625,-0.0208 1.75,-0.71286 1.75,-1.53786 0,-0.825 0.675,-1.5 1.5,-1.5 0.825,0 1.5,-0.41146 1.5,-0.91435 0,-0.50289 1.78797,-2.86539 3.97327,-5.25 2.18529,-2.38461 3.98529,-4.67315 4,-5.08565 0.0147,-0.4125 0.70173,-0.75 1.52673,-0.75 0.825,0 1.5,-0.62622 1.5,-1.39159 0,-0.76538 1.125,-1.67395 2.5,-2.01905 1.375,-0.34511 2.5,-1.10103 2.5,-1.67984 0,-1.46566 2.62743,-3.94876 3.38095,-3.19523 0.34048,0.34047 0.61905,-0.13096 0.61905,-1.04762 0,-0.91667 0.5625,-1.67444 1.25,-1.68395 1.27287,-0.0176 5.75,-4.23253 5.75,-5.41327 0,-1.34853 8.16527,-8.58534 9.0617,-8.03131 0.51607,0.31894 0.9383,-0.12166 0.9383,-0.97912 0,-0.85746 0.55779,-1.44652 1.23953,-1.30902 0.68174,0.1375 1.6748,-1.2125 2.2068,-3 0.62464,-2.0988 1.60245,-3.25 2.76047,-3.25 0.98626,0 1.7932,-0.675 1.7932,-1.5 0,-0.825 0.675,-1.5 1.5,-1.5 0.825,0 1.5,-0.675 1.5,-1.5 0,-0.84766 0.89545,-1.5 2.05902,-1.5 1.13246,0 1.80317,-0.41397 1.49047,-0.91993 -0.3127,-0.50595 0.62143,-1.85595 2.07584,-3 1.45441,-1.14404 2.2462,-2.10859 1.75953,-2.14346 -0.48667,-0.0349 0.12764,-0.47036 1.36514,-0.96777 1.2375,-0.49742 2.25,-1.593888 2.25,-2.436618 0,-0.87344 0.87339,-1.53222 2.03138,-1.53222 1.11727,0 2.29041,-0.675 2.60699,-1.5 0.31659,-0.825 1.20246,-1.5 1.96862,-1.5 0.76615,0 1.39301,-0.644676 1.39301,-1.432612 0,-0.787937 0.9,-1.718262 2,-2.067388 1.1,-0.349126 2.00557,-1.166951 2.01238,-1.817388 0.007,-0.650436 1.59889,-2.210446 3.53796,-3.466687 1.93906,-1.256241 3.3234,-2.611204 3.07629,-3.011028 -0.73602,-1.190905 2.15044,-4.460712 3.30684,-3.746018 C 282.55694,79.334992 283,78.753466 283,77.549799 c 0,-1.62113 0.638,-2.059017 3,-2.059017 2.04469,0 3,-0.49422 3,-1.55202 0,-0.85361 1.31392,-2.010054 2.91983,-2.569876 1.6059,-0.559821 3.16678,-1.661412 3.46861,-2.44798 0.73862,-1.924822 5.08328,-1.815548 7.07682,0.177991 1.01717,1.017172 2.69706,1.448292 4.57143,1.173193 2.014,-0.295593 2.96331,-0.0099 2.96331,0.891885 0,0.729744 0.41968,1.326807 0.93261,1.326807 0.51294,0 1.20163,0.847581 1.53042,1.883514 0.32879,1.035932 1.88677,3.232289 3.46216,4.880793 1.5754,1.648504 3.16704,3.950922 3.53698,5.116486 0.37956,1.195888 1.51463,2.119207 2.60522,2.119207 1.06293,0 1.93261,0.45 1.93261,1 0,0.55 0.71713,1 1.59362,1 0.87649,0 1.82897,0.9 2.11663,2 0.28766,1.1 0.92053,2 1.40638,2 0.48585,0 0.88337,0.675 0.88337,1.5 0,0.825 0.675,1.5 1.5,1.5 0.83333,0 1.5,0.888889 1.5,2 0,1.1 0.62252,2 1.38337,2 0.76085,0 1.61731,0.894578 1.90323,1.987958 0.28593,1.09338 1.71549,2.44253 3.17681,2.99813 1.46131,0.55559 2.3783,1.46101 2.03775,2.01204 -0.34056,0.55103 0.0342,1.00187 0.83283,1.00187 0.79862,0 1.71105,0.675 2.02764,1.5 0.31658,0.825 1.22897,1.5 2.02753,1.5 0.80016,0 1.74771,1.34669 2.11084,3 0.53712,2.44547 1.16674,3 3.40626,3 2.48379,0 2.70511,0.2878 2.30705,3 -0.38491,2.62251 -0.13823,3 1.96039,3 1.6878,0 2.44565,0.59688 2.5521,2.01004 0.17374,2.30638 2.71311,5.21771 3.69482,4.23601 0.36229,-0.36229 0.90746,0.29253 1.2115,1.45517 0.30403,1.16263 1.4241,2.34173 2.48904,2.62021 1.06494,0.27849 1.81887,0.88259 1.67541,1.34246 -0.33022,1.05851 3.33697,5.33611 4.57465,5.33611 0.50971,0 2.3471,1.4625 4.0831,3.25 1.736,1.7875 3.46896,3.3625 3.85102,3.5 0.38206,0.1375 0.78194,0.5875 0.88862,1 0.10667,0.4125 1.00667,1.62235 2,2.68856 0.99332,1.06621 1.80604,2.30371 1.80604,2.75 0,0.44629 0.47441,0.81144 1.05423,0.81144 2.11303,0 6.93565,5.55961 7.15637,8.25 0.16107,1.96325 0.80692,2.79358 2.25751,2.90231 1.11754,0.0838 2.70689,0.2272 3.53189,0.31873 1.71333,0.19008 2.26364,-0.27095 14.5,-12.14719 4.95,-4.80432 9.31008,-8.65173 9.68906,-8.5498 0.37898,0.10193 0.94206,-0.61182 1.25129,-1.58611 0.30923,-0.97428 3.00787,-3.00977 5.99699,-4.5233 3.62312,-1.83455 7.70615,-5.28883 12.24871,-10.3625 7.66084,-8.55654 7.10769,-8.00778 14.92059,-14.80214 C 465.90019,105.77843 471,100.43992 471,98.970542 c 0,-0.70349 2.4924,-3.556986 5.53866,-6.3411 3.04627,-2.784114 6.03992,-6.541768 6.65257,-8.350342 0.73353,-2.165389 6.7517,-8.752163 17.62326,-19.288318 26.56094,-25.741478 30.05761,-29.294563 29.4386,-29.913573 -0.32253,-0.322535 0.10792,-0.586427 0.95657,-0.586427 0.84864,0 3.82566,-2.475 6.61559,-5.5 2.78993,-3.025 5.20808,-5.501962 5.37367,-5.504361 0.1656,-0.0024 5.50168,-5.11802 11.85796,-11.368048 13.29669,-13.07441433 15.81094,-14.1526623 23.00192,-9.8644773 2.18694,1.304132 3.73584,2.76015 3.442,3.235596 -0.29384,0.475445 0.26077,1.464583 1.23247,2.198085 0.9717,0.733501 2.26577,2.226791 2.87572,3.3184223 0.60994,1.09163 1.73494,2.005238 2.5,2.030238 0.76505,0.025 1.27851,0.5875 1.14101,1.25 -0.1375,0.6625 0.425,1.204545 1.25,1.204545 0.825,0 1.3875,0.395941 1.25,0.879869 -0.36105,1.270694 13.9065,17.123167 29.3589,32.620131 0.5484,0.55 5.5162,5.5 11.0395,11 9.4169,9.377214 13.6585,15.38545 12.3528,17.49803 -0.8566,1.386019 0.5625,5.997507 1.8572,6.035239 1.5856,0.04621 5.6416,3.552531 5.6416,4.877024 0,0.599339 0.374,1.089707 0.831,1.089707 0.4571,0 1.4331,1.125 2.169,2.5 0.7359,1.375 1.8244,2.514221 2.419,2.531601 1.5195,0.04442 6.581,4.643209 6.581,5.979447 0,0.60884 0.4532,0.8269 1.0071,0.48458 0.5539,-0.34231 1.276,0.0785 1.6048,0.93524 0.3287,0.85671 1.0005,1.30867 1.4929,1.00437 0.4924,-0.3043 0.8952,0.14828 0.8952,1.00574 0,0.85746 0.7875,1.56591 1.75,1.57433 1.4956,0.0131 1.5319,0.15626 0.25,0.98469 -1.2819,0.82843 -1.2455,0.9716 0.25,0.98469 0.9625,0.008 1.75,0.46531 1.75,1.01531 0,1.4059 7.7067,8.95998 8.4167,8.25 0.3208,-0.32083 0.5833,-0.0635 0.5833,0.5719 0,1.28591 1.3164,2.93534 8.2432,10.32846 2.6088,2.7844 4.4947,5.46464 4.191,5.95609 -0.3037,0.49145 0.037,0.89623 0.7568,0.8995 0.7199,0.003 3.4918,2.46232 6.1596,5.46455 2.6679,3.00223 5.8123,5.7638 6.9875,6.13682 2.4608,0.78103 6.6906,4.3936 15.0953,12.89268 3.2633,3.3 6.2576,5.90189 6.6541,5.78197 0.3964,-0.11992 1.2689,0.44258 1.939,1.25 0.6701,0.80742 0.9005,1.46803 0.5119,1.46803 -0.3885,0 0.7192,1.8 2.4616,4 1.7424,2.2 3.6928,4.00911 4.334,4.02025 0.6413,0.0111 13.565,12.27363 28.7193,27.25 116.2106,114.84589 115.2931,113.96136 120.7252,116.37975 4.0218,1.79048 7.0693,2.35 12.7997,2.35 4.8761,0 8.588,0.5517 10.5548,1.56877 2.3281,1.20392 3.712,1.33231 5.9503,0.55202 l 2.9167,-1.01675 0,7.44798 0,7.44798 -460.5,0 -460.5,0 0,-10.54651 z"
     id="path2987"
     inkscape:connector-curvature="0" />
</svg>
