<?xml version="1.0" encoding="UTF-8" standalone="no"?>
<!-- Created with Inkscape (http://www.inkscape.org/) -->

<svg
   xmlns:dc="http://purl.org/dc/elements/1.1/"
   xmlns:cc="http://creativecommons.org/ns#"
   xmlns:rdf="http://www.w3.org/1999/02/22-rdf-syntax-ns#"
   xmlns:svg="http://www.w3.org/2000/svg"
   xmlns="http://www.w3.org/2000/svg"
   xmlns:sodipodi="http://sodipodi.sourceforge.net/DTD/sodipodi-0.dtd"
   xmlns:inkscape="http://www.inkscape.org/namespaces/inkscape"
   id="svg2"
   version="1.1"
   inkscape:version="0.48.2 r9819"
   width="304.18802"
   height="878.98083"
   sodipodi:docname="Reader2.png">
  <metadata
     id="metadata8">
    <rdf:RDF>
      <cc:Work
         rdf:about="">
        <dc:format>image/svg+xml</dc:format>
        <dc:type
           rdf:resource="http://purl.org/dc/dcmitype/StillImage" />
        <dc:title></dc:title>
      </cc:Work>
    </rdf:RDF>
  </metadata>
  <defs
     id="defs6" />
  <sodipodi:namedview
     pagecolor="#ffffff"
     bordercolor="#666666"
     borderopacity="1"
     objecttolerance="10"
     gridtolerance="10"
     guidetolerance="10"
     inkscape:pageopacity="0"
     inkscape:pageshadow="2"
     inkscape:window-width="1920"
     inkscape:window-height="1176"
     id="namedview4"
     showgrid="false"
     fit-margin-top="0"
     fit-margin-left="0"
     fit-margin-right="0"
     fit-margin-bottom="0"
     inkscape:zoom="1"
     inkscape:cx="-224.81199"
     inkscape:cy="454.83531"
     inkscape:window-x="0"
     inkscape:window-y="24"
     inkscape:window-maximized="1"
     inkscape:current-layer="svg2" />
  <path
     style="fill:#000000"
     d="m 148.4921,878.69965 -14.1959,0.2812 -0.9737,-1.17324 c -0.53554,-0.64528 -1.28366,-2.40822 -1.6625,-3.91764 l -0.68881,-2.74441 -1.14159,-0.11009 c -0.62787,-0.0606 -7.94393,-0.0192 -16.2579,0.092 l -15.1163,0.20205 -2.09135,-1.30606 -2.09134,-1.30607 -2.29235,2.08914 c -1.26079,1.14902 -3.27527,2.59537 -4.47661,3.2141 l -2.18426,1.12493 -12.1154,0 -12.1154,0 -2.82916,-1.46302 -2.82916,-1.46302 -0.62118,-1.61877 -0.62118,-1.61877 0,-16.9105 0,-16.9105 -2.90918,-2.59209 -2.90917,-2.59208 -0.6277,-5.16562 c -0.34524,-2.8411 -0.72361,-10.49594 -0.84083,-17.01074 l -0.21312,-11.8451 0.75,-0.46391 0.75,-0.46392 0,-3.88197 0,-3.88197 -0.87464,-0.54055 -0.87464,-0.54056 -0.62555,-5.26846 c -0.34406,-2.89765 -1.0602,-7.96846 -1.59142,-11.26846 -0.53123,-3.3 -1.42842,-8.7 -1.99377,-12 -0.56535,-3.3 -1.5045,-9.375 -2.08699,-13.5 -0.58249,-4.125 -1.54487,-12 -2.13863,-17.5 l -1.07954,-10 -0.008,-17 c -0.004,-9.35 0.25038,-20.73813 0.56595,-25.30696 l 0.57377,-8.30695 -1.68336,-0.4979 c -0.92585,-0.27385 -2.7901,-1.04272 -4.14278,-1.70861 l -2.45941,-1.21071 -1.92346,-3.65255 -1.92346,-3.65255 -2.11713,-0.55369 -2.11714,-0.55368 -3.5,0.54925 -3.5,0.54926 -4.25,-3.65538 -4.25,-3.65538 0,-2.78457 0,-2.78457 L 3.0939,638.53305 0,634.64555 l 0.54457,-7 c 0.29951,-3.85 1.02612,-9.475 1.61468,-12.5 0.58856,-3.025 1.48149,-11.575 1.98428,-19 0.50279,-7.425 1.14252,-14.4 1.42162,-15.5 0.2791,-1.1 0.79581,-20.675 1.14825,-43.5 0.35244,-22.825 0.59168,-42.175 0.53165,-43 -0.06,-0.825 -0.18402,-12.525 -0.27554,-26 l -0.16639,-24.5 1.1545,-20 c 0.63498,-11 1.59136,-22.7 2.1253,-26 0.53394,-3.3 1.46564,-9.15 2.07043,-13 0.6048,-3.85 1.54805,-9.7 2.09612,-13 0.54807,-3.3 1.25595,-7.69032 1.57305,-9.75627 l 0.57656,-3.75627 0.89436,-0.55274 0.89437,-0.55275 0,-2.89393 0,-2.89393 -1.16502,-2.55695 -1.16502,-2.55694 2.32834,-2.47841 2.32835,-2.47841 -1.22759,-10.2617 c -0.67517,-5.64394 -1.43177,-11.3867 -1.68133,-12.7617 -0.24957,-1.375 -0.98233,-10.375 -1.62835,-20 l -1.17458,-17.5 0.0213,-21.5 0.0213,-21.5 1.17674,-8.5 c 0.64722,-4.675 1.65343,-10.75 2.23603,-13.5 0.5826,-2.75 1.3027,-6.69032 1.60023,-8.75627 l 0.54096,-3.75627 0.89437,-0.55274 0.89437,-0.55275 0,-1.95456 c 0,-1.075 0.40272,-2.73594 0.89493,-3.69098 0.49222,-0.95504 2.34731,-4.88643 4.12243,-8.73643 1.77512,-3.85 3.73418,-8.125 4.35347,-9.5 0.61929,-1.375 1.3814,-2.725 1.69357,-3 0.31218,-0.275 1.96027,-2.525 3.66242,-5 1.70216,-2.475 6.99242,-9.18509 11.75615,-14.91131 4.76373,-5.72623 9.86636,-12.01997 11.33918,-13.9861 1.47282,-1.96614 3.80285,-4.9086 5.17785,-6.53882 1.375,-1.63021 4.4125,-5.00361 6.75,-7.49643 2.3375,-2.49281 4.25,-4.79701 4.25,-5.12042 0,-0.32342 3.01186,-3.00159 6.69302,-5.95148 3.68116,-2.9499 8.33007,-6.15439 10.33092,-7.12109 l 3.6379,-1.75765 3.57781,-3.9602 3.5778,-3.960195 1.13809,-5.48213 1.13808,-5.48212 -1.70589,-6.36602 -1.70578,-6.36603 0.10448,-6.5 c 0.0575,-3.575 0.392,-11.225 0.74341,-17 l 0.63893,-10.5 0.91566,-0.95 c 0.50362,-0.5225 0.91567,-1.566421 0.91567,-2.319825 0,-0.753403 1.35,-3.331982 3,-5.730175 1.65,-2.398193 3.01116,-4.954272 3.02479,-5.680175 0.0136,-0.725904 1.558,-3.409082 3.43192,-5.962619 l 3.40712,-4.642793 3.22172,-1.607207 c 1.77195,-0.883963 3.71509,-1.625494 4.31809,-1.647847 0.603,-0.02235 2.65436,-1.372352 4.55859,-3 l 3.46222,-2.959359 1.78778,0 1.78777,0 0,-1 0,-1 1.09563,0 c 0.6026,0 2.38291,-0.916622 3.95624,-2.036937 l 2.86062,-2.036937 9.29375,0.161973 9.29376,0.161974 3.54471,-0.697814 L 171.77742,0 l 10.4553,1.148467 10.45529,1.148467 3.19854,1.974065 3.19854,1.974065 4.10606,4.904243 4.10607,4.904244 3.09903,1.546002 c 1.70447,0.850301 3.96489,1.546002 5.02315,1.546002 l 1.92412,0 7.98294,8.25 7.98294,8.25 -0.63274,5.52474 -0.63274,5.524741 4.07205,3.272382 4.07204,3.272383 0,3.966446 0,3.966446 -1.21543,1.946214 -1.21543,1.946214 1.21543,3.361215 c 0.66849,1.848668 1.21543,4.103078 1.21543,5.009801 0,0.906722 -0.9,3.25096 -2,5.209418 l -2,3.56083 0,2.34714 0,2.34714 -1.51876,1.26046 -1.51876,1.26045 -1.96248,-1.77602 -1.96248,-1.77602 -1.51876,1.26045 -1.51876,1.26046 0,2.39112 c 0,1.31512 -0.39366,3.17252 -0.8748,4.12756 -0.48114,0.95504 -1.83114,3.69146 -3,6.080935 -1.16886,2.38948 -2.1252,4.99364 -2.1252,5.78704 l 0,1.44253 -6,5.92593 -6,5.92593 -0.0146,1.78703 c -0.008,0.98287 -0.76895,3.81204 -1.691,6.28704 l -1.67644,4.5 -0.559,7 -0.55901,7 -7.41174,0.29707 -7.41174,0.29708 -2.74263,1.95292 -2.74263,1.95293 -2.53661,0 -2.53662,0 -0.61803,1 -0.61803,1 -3.53662,0 -3.53661,0 -3.03213,2.15907 -3.03213,2.15907 -5.03009,0.48333 -5.03009,0.48332 -3.26199,-1.7567 -3.262,-1.7567 -1.65183,1.36431 c -0.90851,0.75036 -2.56366,2.19588 -3.67812,3.21226 l -2.0263,1.84797 0.63634,3.65203 c 0.34999,2.00863 0.89943,5.42441 1.22099,7.59066 l 0.58466,3.93861 1.87697,3.3418 1.87698,3.3418 0,2.56745 0,2.56744 6,5.5448 6,5.54479 0,2.85734 0,2.85735 -1,0 -1,0 0,1.94098 0,1.94099 -0.9115,0.56334 -0.91151,0.56334 1.16151,3.15198 1.1615,3.15197 -1.25,0.42704 -1.25,0.42703 0,2.91666 0,2.91667 2,0 2,0 0,1.27216 c 0,0.69968 1.43356,3.01131 3.18569,5.13695 l 3.1857,3.8648 -0.22993,7.75388 -0.22992,7.75388 2.04423,3.63958 2.04423,3.63958 0,4.45524 0,4.45523 -1.15633,4.3234 -1.15634,4.3234 0.6475,2.44095 c 0.35612,1.34252 1.0619,3.07848 1.5684,3.85769 l 0.92091,1.41674 5.33793,-4.40299 c 2.93586,-2.42165 5.56293,-4.66701 5.83793,-4.98968 0.275,-0.32268 1.19031,-0.83995 2.03401,-1.14948 l 1.53402,-0.5628 2.11424,-4.36426 c 1.16283,-2.40035 3.06002,-6.49687 4.21598,-9.10337 1.15596,-2.60651 2.10175,-5.41901 2.10175,-6.25 l 0,-1.5109 2.53138,0 2.53139,0 0.57568,-1.75 c 0.31662,-0.9625 1.19419,-3.15051 1.95016,-4.86224 0.75596,-1.71173 2.01363,-3.64269 2.79482,-4.29102 0.78119,-0.64833 1.69166,-2.25979 2.02327,-3.58104 l 0.60293,-2.40226 -2.36948,-2.55672 c -1.30317,-1.4062 -2.88034,-2.55672 -3.50477,-2.55672 l -1.13533,0 0,-1 0,-1 -1.09563,0 c -0.6026,0 -2.2901,-0.84731 -3.75,-1.88292 -1.4599,-1.0356 -4.28022,-2.79329 -6.26736,-3.90596 -1.98715,-1.11268 -4.66495,-2.62787 -5.95066,-3.36708 -1.28572,-0.73922 -3.44636,-2.32509 -4.80143,-3.52416 l -2.46375,-2.18011 3.3757,-5.56989 c 1.85664,-3.06343 3.73063,-5.56988 4.16442,-5.56988 0.43379,0 0.78871,-0.43716 0.78871,-0.97148 0,-0.53431 9,-14.486 20,-31.00375 11,-16.51776 20,-30.28998 20,-30.60495 0,-0.31496 2.25,-3.92195 5,-8.01553 2.75,-4.09359 5,-7.69062 5,-7.99341 0,-0.30279 1.35,-2.51269 3,-4.91088 1.65,-2.39819 3,-4.78667 3,-5.30773 0,-0.52106 0.69407,-1.52341 1.54238,-2.22744 l 1.54238,-1.28007 1.15762,1.15762 1.15762,1.15762 2.1,0 c 1.155,0 2.5275,0.40106 3.05,0.89125 l 0.95,0.89126 6,0.61795 c 3.3,0.33987 8.13433,0.88386 10.74296,1.20888 l 4.74296,0.59093 0.59181,-1.54224 c 0.3255,-0.84823 2.59312,-3.60139 5.03916,-6.11813 l 4.44735,-4.57589 1.86981,1.0007 1.86981,1.00069 2.40301,4.7673 c 1.32165,2.62201 3.01104,5.8923 3.75419,7.2673 0.74316,1.375 1.80803,3.4 2.36638,4.5 0.55836,1.1 2.78835,5.375 4.95554,9.5 2.16719,4.125 4.3401,7.9275 4.82868,8.45 0.48859,0.5225 0.88834,1.63169 0.88834,2.46486 0,0.83317 -1.86448,5.3312 -4.14328,9.99561 -2.27881,4.66441 -4.97881,9.37758 -6,10.4737 -1.0212,1.09613 -1.85672,2.5431 -1.85672,3.2155 l 0,1.22254 -2.84917,2.39742 -2.84916,2.39741 -7.12739,10.44148 c -3.92005,5.74282 -9.59797,13.81648 -12.61758,17.94148 -3.01961,4.125 -6.04339,8.625 -6.7195,10 l -1.22931,2.5 -0.15022,7.56411 -0.15023,7.56411 -1.04755,1.87186 -1.04754,1.87186 1.07685,2.36343 1.07685,2.36343 -1.24565,3.44477 -1.24564,3.44477 0.60738,0.98276 0.60737,0.98275 -1.09856,4.07975 -1.09856,4.07975 -3.66017,4.05137 -3.66017,4.05138 -5.73116,3.89195 c -3.15213,2.14057 -6.20584,3.89195 -6.78602,3.89195 -0.58018,0 -1.05487,0.34015 -1.05487,0.75589 0,0.41574 -1.35,1.35346 -3,2.08382 l -3,1.32793 0.0222,1.66618 0.0222,1.66618 1.95553,2.5 1.95553,2.5 0.0222,1.69098 0.0222,1.69099 1,0.61803 1,0.61803 0,2.31854 0,2.31853 -1.53692,1.27553 -1.53693,1.27554 0.15208,1.59691 c 0.0836,0.8783 0.0987,2.04691 0.0334,2.59691 l -0.11871,1 -5.49278,2.50001 c -3.02109,1.375 -5.49449,2.8375 -5.49644,3.25 -0.002,0.4125 -0.67856,0.75 -1.50356,0.75 l -1.5,0 0,1.08077 0,1.08076 -8.39553,8.32026 -8.39552,8.32026 -4.28512,6.34898 c -2.35681,3.49193 -4.65382,6.49897 -5.10447,6.6823 -0.45065,0.18334 -0.81936,0.75997 -0.81936,1.2814 0,0.52144 -1.9125,3.7824 -4.25,7.24658 l -4.25,6.29851 -7.75,6.73906 -7.75,6.73906 0,5.56501 0,5.56501 0.93949,3.61601 c 0.51672,1.98881 1.4123,8.11602 1.99018,13.61602 0.57788,5.5 1.71149,17.2 2.51912,26 0.80764,8.80001 1.94134,18.25 2.51935,21 0.578,2.75 1.48172,7.47501 2.00826,10.5 0.52654,3.025 1.38374,7.75 1.90488,10.5 0.52115,2.75 1.43808,7.7 2.03761,11 0.59954,3.30001 1.53604,8.25 2.08111,11 0.54507,2.75 1.48157,7.7 2.08111,11.00001 0.59953,3.3 1.48089,8.025 1.95856,10.5 0.47768,2.475 1.2999,6.525 1.82715,9 0.52726,2.475 1.2588,6.3 1.62565,8.5 0.36684,2.2 1.04661,4.9 1.51058,6 0.46398,1.1 1.09229,3.8 1.39626,6 0.30396,2.2 1.045,6.25 1.64674,9 0.60174,2.75 1.50786,8.825 2.0136,13.5 0.50574,4.675 1.37421,11.3125 1.92994,14.75 0.55573,3.4375 1.45977,9.0625 2.00898,12.5 0.54921,3.4375 1.25708,8.275 1.57304,10.75 0.31595,2.475 0.94031,5.4 1.38744,6.5 0.44714,1.1 1.37511,4.025 2.06214,6.5 0.68704,2.475 1.70069,6.075 2.25255,8 0.55187,1.925 1.36483,4.4 1.80659,5.5 0.44175,1.1 1.07145,3.37733 1.39932,5.06073 l 0.59612,3.06073 -1.78789,1.59809 -1.78788,1.5981 -2.5,0.34117 -2.5,0.34118 -0.34118,2.5 -0.34117,2.5 -1.54368,1.72775 c -0.84902,0.95027 -3.82135,2.86277 -6.60517,4.25 l -5.06149,2.52225 -3.09545,0 -3.09544,0 -4.17133,4.25027 -4.17133,4.25028 0.37656,24.99972 c 0.20711,13.74985 0.88019,33.32473 1.49572,43.49973 0.61554,10.175 1.28218,23.225 1.48143,29 l 0.36228,10.5 -1.41803,5.73368 -1.41802,5.73368 0.60095,2.76632 c 0.33052,1.52148 1.07614,3.89132 1.65694,5.26632 0.5808,1.375 1.50224,3.47589 2.04765,4.66864 l 0.99164,2.16864 -0.69003,3.33136 c -0.37951,1.83225 -0.93117,5.24257 -1.2259,7.57849 l -0.53588,4.24713 2.10046,3.56003 2.10047,3.56002 0,3.74284 0,3.74284 -1.17175,1.17175 -1.17175,1.17175 2.3666,4.60142 2.3666,4.60142 -1.19485,1.91326 c -0.65717,1.05231 -1.19485,2.78362 -1.19485,3.84739 l 0,1.93411 3.25,0.71234 c 1.7875,0.39179 5.275,1.724 7.75,2.96047 2.475,1.23648 7.2,3.55606 10.5,5.15462 l 6,2.90649 11.73558,0.29086 11.73559,0.29084 2.91878,-2.07835 2.91879,-2.07836 2.42132,0 2.42131,0 2.10919,2.25 2.10918,2.25 0.6855,5.1862 0.68549,5.18619 -2.76639,2.56381 c -1.52151,1.41008 -3.25919,2.5638 -3.8615,2.5638 -0.60232,0 -4.24911,1.52924 -8.10398,3.39829 -3.85487,1.86907 -8.58386,4.08125 -10.50886,4.91598 -1.925,0.8347 -5.075,1.86297 -7,2.28502 l -3.5,0.76737 -23.58999,0.14828 -23.58999,0.14828 -1.91001,0.80484 -1.91001,0.80483 -14.19591,0.2812 z m -21.30409,-34.25411 c 1.375,-0.31666 3.0625,-1.01881 3.75,-1.56031 l 1.25,-0.98456 0,-2.37755 0,-2.37756 -1.34501,0 -1.34501,0 -1.63945,-1.81157 -1.63945,-1.81157 0.31535,-13.43843 0.31536,-13.43843 -0.80367,-6 c -0.44201,-3.3 -1.24827,-8.475 -1.79168,-11.5 -0.54342,-3.025 -1.42748,-7.75 -1.9646,-10.5 -0.53711,-2.75 -1.43418,-6.8 -1.99349,-9 -0.5593,-2.2 -1.46692,-5.8 -2.01692,-8 -0.55,-2.2 -1.50721,-6.025 -2.12714,-8.5 -0.61994,-2.475 -1.3616,-6.3 -1.64815,-8.5 -0.28654,-2.2 -0.9249,-4.4275 -1.41857,-4.95 -0.49366,-0.5225 -0.89757,-1.9482 -0.89757,-3.16821 0,-1.22002 -0.27314,-2.93002 -0.60699,-3.8 l -0.60699,-1.58179 -1.22403,0 -1.22403,0 -1.11222,2.25 c -0.61173,1.2375 -1.37193,4.275 -1.68935,6.75 -0.31742,2.475 -1.00645,9.45 -1.53117,15.5 -0.52472,6.05 -1.45354,13.925 -2.06403,17.5 l -1.10999,6.5 -0.48461,16.381 -0.4846,16.38099 1.06901,1.06901 1.069,1.069 0,5.645 0,5.64501 2,1.80998 2,1.80998 0,3.6009 0,3.6009 3.25,1.34933 c 1.7875,0.74212 5.95,2.62401 9.25,4.18197 l 6,2.83266 2.5,-0.57575 z"
     id="path2989"
     inkscape:connector-curvature="0" />
</svg>
