<?xml version="1.0" encoding="UTF-8" standalone="no"?>
<!-- Created with Inkscape (http://www.inkscape.org/) -->

<svg
   xmlns:dc="http://purl.org/dc/elements/1.1/"
   xmlns:cc="http://creativecommons.org/ns#"
   xmlns:rdf="http://www.w3.org/1999/02/22-rdf-syntax-ns#"
   xmlns:svg="http://www.w3.org/2000/svg"
   xmlns="http://www.w3.org/2000/svg"
   xmlns:sodipodi="http://sodipodi.sourceforge.net/DTD/sodipodi-0.dtd"
   xmlns:inkscape="http://www.inkscape.org/namespaces/inkscape"
   id="svg2"
   version="1.1"
   inkscape:version="0.48.2 r9819"
   width="475.70938"
   height="486.59772"
   sodipodi:docname="ringc.png">
  <metadata
     id="metadata8">
    <rdf:RDF>
      <cc:Work
         rdf:about="">
        <dc:format>image/svg+xml</dc:format>
        <dc:type
           rdf:resource="http://purl.org/dc/dcmitype/StillImage" />
        <dc:title></dc:title>
      </cc:Work>
    </rdf:RDF>
  </metadata>
  <defs
     id="defs6" />
  <sodipodi:namedview
     pagecolor="#ffffff"
     bordercolor="#666666"
     borderopacity="1"
     objecttolerance="10"
     gridtolerance="10"
     guidetolerance="10"
     inkscape:pageopacity="0"
     inkscape:pageshadow="2"
     inkscape:window-width="1600"
     inkscape:window-height="876"
     id="namedview4"
     showgrid="false"
     fit-margin-top="0"
     fit-margin-left="0"
     fit-margin-right="0"
     fit-margin-bottom="0"
     inkscape:zoom="1"
     inkscape:cx="235.62626"
     inkscape:cy="244.43072"
     inkscape:window-x="0"
     inkscape:window-y="24"
     inkscape:window-maximized="1"
     inkscape:current-layer="svg2" />
  <path
     style="fill:#000000"
     d="m 221.12626,486.07928 c -28.83273,-2.41984 -50.35117,-6.9778 -66.2391,-14.03051 -2.33151,-1.03497 -4.44674,-1.88176 -4.70051,-1.88176 -0.86835,0 -22.05948,-10.3999 -22.56039,-11.07189 -0.275,-0.36893 -2.83431,-1.88609 -5.68735,-3.37149 -2.85304,-1.48539 -5.72064,-3.34329 -6.37244,-4.12866 -0.65181,-0.78538 -1.61142,-1.42796 -2.13248,-1.42796 -1.88268,0 -12.45974,-7.80527 -18.632865,-13.75 -1.85617,-1.7875 -3.68297,-3.25 -4.05956,-3.25 -3.20812,0 -21.50578,-18.781 -36.90414,-37.87899 -3.58124,-4.44168 -11.21116,-17.43231 -11.21116,-19.08802 0,-0.5656 -1.575,-3.22065 -3.5,-5.90011 -1.925,-2.67945 -3.5,-5.11539 -3.5,-5.41318 0,-1.48558 -7.18892,-15.6316 -8.49456,-16.71519 -0.82799,-0.68717 -1.50544,-1.87541 -1.50544,-2.64052 0,-0.76512 -0.3975,-2.17252 -0.88333,-3.12756 -1.30858,-2.57238 -2.68976,-6.2391 -4.04421,-10.73643 -1.23759,-4.10935 -1.99685,-6.15397 -3.89913,-10.5 -1.78661,-4.08179 -6.17333,-18.31627 -6.17333,-20.03187 0,-0.87304 -0.8602902,-5.16052 -1.9117502,-9.52774 -5.05435,-20.99303 -4.96557,-20.5429 -6.49754,-32.94039 -0.20389,-1.65 -0.82777,-5.925 -1.38638998,-9.5 -2.26886002,-14.51991 0.36226998,-55.54286 4.84241998,-75.5 0.61734,-2.75 1.35691,-6.69032 1.64348,-8.75627 0.28658,-2.06595 0.92351,-4.005 1.41541,-4.30901 0.4919,-0.30402 0.88067,-1.5387 0.86391,-2.74374 -0.0291,-2.09463 4.4642102,-17.43991 6.0895202,-20.79649 0.68546,-1.41561 5.75824,-18.18644 7.98371,-26.39449 2.14362,-7.90619 2.74182,-9.07545 5.27187,-10.30457 3.21969,-1.564144 3.42721,-2.768174 0.60435,-3.506364 -1.90472,-0.4981 -2.02733,-1.03741 -1.44741,-6.36663 1.09462,-10.059069 1.2151,-10.32244 4.72179,-10.32244 l 3.15526,0 -2.03628,-2.25 c -1.11996,-1.2375 -2.31782,-3.375 -2.66192,-4.75 -0.92559,-3.698519 0.46258,-18.026713 1.87424,-19.345405 0.73805,-0.689436 1.02276,-2.609835 0.72076,-4.861449 -0.33381,-2.488716 0.15783,-5.14176 1.48388,-8.007491 1.09069,-2.35711 2.28487,-5.537114 2.65372,-7.066674 0.75263,-3.12099 5.36704,-6.382454 10.36697,-7.327363 1.7875,-0.33781 3.25,-1.014119 3.25,-1.502909 0,-0.48879 0.68111,-0.888709 1.51357,-0.888709 0.83246,0 2.29496,-0.429369 3.25,-0.954153 3.72015,-2.04419 21.72429,-6.648698 37.23643,-9.523113 4.675,-0.866282 11.649995,-2.217081 15.499995,-3.001776 8.20488,-1.6722925 43.50343,-5.6716295 62.5,-7.0812705 15.19918,-1.127855 17.06967,-1.211179 53,-2.360963 72.25406,-2.312156 114.54796,-1.46337395 151,3.030369 4.675,0.576326 9.175,1.066889 10,1.090139 2.23934,0.06311 13.96105,2.748678 18.26926,4.18568 2.07309,0.6914795 5.76009,2.6605035 8.19333,4.3756075 5.11304,3.604009 6.54518,8.011869 4.76726,14.672838 -1.26564,4.741726 -0.9233,5.566642 2.31011,5.566642 2.53101,0 4.24839,3.503222 3.13708,6.399228 -0.31371,0.81753 0.21666,1.601218 1.27009,1.876696 1.11751,0.292235 2.46631,2.452742 3.5294,5.653407 1.42523,4.290962 1.5112,5.686074 0.50074,8.12554 -0.67095,1.619821 -1.61532,2.945129 -2.09859,2.945129 -2.1854,0 -0.57342,1.908136 2.10985,2.497481 3.63786,0.799008 3.86236,1.135496 4.66512,6.992271 l 0.63812,4.655611 -3.89588,-0.533805 c -2.14274,-0.293593 -3.10839,-0.293303 -2.14589,6.43e-4 1.03687,0.31666 1.75,1.519866 1.75,2.952649 0,1.335195 0.89571,2.977584 2,3.667223 1.1,0.686961 2,1.76329 2,2.391842 0,0.628552 0.83626,1.361508 1.85835,1.62879 1.02208,0.267283 2.48194,1.894765 3.24411,3.616635 0.76217,1.72186 1.72591,3.13066 2.14165,3.13066 0.41574,0 0.75589,0.67944 0.75589,1.50986 0,1.49363 7.84821,17.525314 9.05173,18.490144 0.34304,0.275 0.88138,1.4 1.19632,2.5 0.31494,1.1 1.9932,5.825 3.72945,10.5 4.54414,12.23544 6.0225,17.02346 6.0225,19.50529 0,1.20309 0.69052,3.57162 1.53449,5.2634 0.84397,1.69177 2.19784,5.62273 3.0086,8.73545 0.81076,3.11272 2.02995,6.63517 2.70931,7.82767 0.67936,1.19251 1.27761,3.51819 1.32945,5.16819 0.0857,2.72779 0.96059,7.84604 3.50417,20.5 2.5576,12.72372 3.06999,19.17834 2.98926,37.65566 -0.0862,19.73587 -0.92795,27.94251 -4.59948,44.84434 -2.53678,11.67801 -3.38016,15.81896 -4.07338,20 -0.36476,2.2 -1.04965,4.49023 -1.52197,5.08941 -0.47233,0.59917 -1.06421,2.84917 -1.31529,5 -0.72823,6.23815 -6.67133,26.28275 -8.57182,28.91059 -0.39776,0.55 -2.17488,4.825 -3.94914,9.5 -2.68223,7.06741 -12.9311,27.75785 -20.126,40.63041 -2.60487,4.66043 -8.68015,13.0989 -14.30511,19.86959 -7.47987,9.00341 -27.45346,28.36482 -35.11309,34.03689 -2.2,1.62913 -4.58802,3.7498 -5.3067,4.71258 -0.71869,0.96279 -1.88645,1.75053 -2.59502,1.75053 -0.70857,0 -2.10279,0.9 -3.09828,2 -0.99549,1.1 -2.18509,2 -2.64356,2 -0.75055,0 -3.07271,1.69043 -6.21803,4.52647 -2.7427,2.473 -34.04592,18.11197 -41.63841,20.80239 -31.25468,11.07517 -71.32456,16.94809 -99.5,14.58341 z m 35,-62.3867 c 22.47257,-3.54982 44.00327,-9.30579 51.21794,-13.69247 1.76986,-1.07613 5.89244,-3.00472 9.16129,-4.28577 10.12656,-3.96857 15.15442,-7.85965 33.01097,-25.54733 11.17869,-11.07296 18.37357,-19.53209 22.60646,-26.57872 1.10183,-1.83427 3.28762,-5.4269 4.8573,-7.98363 1.56968,-2.55672 2.94424,-5.16363 3.05457,-5.79312 0.11033,-0.62949 0.96355,-2.58468 1.89604,-4.34487 0.93248,-1.76019 1.69543,-3.81347 1.69543,-4.56285 0,-0.74938 1.06571,-3.58422 2.36825,-6.29966 3.83968,-8.00467 5.45562,-15.05721 7.091,-30.94758 1.60544,-15.59945 1.45304,-43.64414 -0.27473,-50.55724 -0.49041,-1.96222 -0.69893,-4.88722 -0.46338,-6.5 0.23555,-1.61278 -0.54031,-6.30733 -1.72414,-10.43233 -1.18383,-4.125 -2.39681,-8.75994 -2.69553,-10.29987 -0.97115,-5.00656 -8.92499,-19.32623 -16.03664,-28.87154 -8.10777,-10.88231 -14.01872,-16.99412 -23.92168,-24.73458 -19.48563,-15.23055 -28.03692,-19.25874 -57.34315,-27.01216 -9.16201,-2.42396 -18.33983,-3.29111 -40.18498,-3.79684 -32.04348,-0.74183 -47.32718,1.11548 -76.81502,9.33474 -3.025,0.84317 -6.4,1.94828 -7.5,2.45581 -1.1,0.50752 -4.7,1.83748 -8,2.95545 -8.15424,2.7625 -15.5,6.14973 -15.5,7.14725 0,0.45196 -0.675,0.82174 -1.5,0.82174 -0.825,0 -1.5,0.40122 -1.5,0.89159 0,0.49038 -1.11529,1.17151 -2.47843,1.51364 -4.6401,1.16459 -30.52157,24.13071 -30.52157,27.08355 0,0.63943 -1.08325,2.18025 -2.40722,3.42406 -4.540035,4.26514 -14.148755,26.02383 -17.040235,38.58716 -0.88609,3.85 -1.87159,7.9 -2.19,9 -0.31842,1.1 -0.93723,4.475 -1.37515,7.5 -0.43791,3.025 -1.34063,8.875 -2.00603,13 -0.78036,4.83764 -0.98263,11.93727 -0.56981,20 0.67851,13.25191 0.8033,14.36987 2.56719,23 0.61827,3.025 1.50568,7.525 1.97201,10 1.03684,5.50286 6.95013,22.07179 9.81951,27.51411 1.15583,2.19224 3.32895,6.57339 4.829145,9.73589 1.50019,3.1625 3.06371,5.75 3.47447,5.75 0.41076,0 2.54877,2.8125 4.75113,6.25 2.20237,3.4375 5.16771,7.46786 6.58965,8.95636 1.42194,1.48849 2.58534,2.94043 2.58534,3.22654 0,1.29444 17.44375,17.59589 20.07542,18.76078 1.62143,0.71771 3.19123,1.98025 3.48845,2.80563 1.54552,4.29202 24.10132,18.15786 35.6722,21.92897 2.05484,0.6697 3.9939,1.6348 4.30902,2.14468 0.31512,0.50987 1.49088,0.92704 2.6128,0.92704 1.12192,0 3.45786,0.63972 5.19098,1.42161 5.79899,2.61616 14.19779,4.52938 30.65113,6.98223 5.16919,0.77062 29.81592,0.17757 36.5,-0.87827 z"
     id="path2987"
     inkscape:connector-curvature="0" />
</svg>
