<?xml version="1.0" encoding="UTF-8" standalone="no"?>
<!-- Created with Inkscape (http://www.inkscape.org/) -->

<svg
   xmlns:dc="http://purl.org/dc/elements/1.1/"
   xmlns:cc="http://creativecommons.org/ns#"
   xmlns:rdf="http://www.w3.org/1999/02/22-rdf-syntax-ns#"
   xmlns:svg="http://www.w3.org/2000/svg"
   xmlns="http://www.w3.org/2000/svg"
   xmlns:sodipodi="http://sodipodi.sourceforge.net/DTD/sodipodi-0.dtd"
   xmlns:inkscape="http://www.inkscape.org/namespaces/inkscape"
   id="svg2"
   version="1.1"
   inkscape:version="0.48.2 r9819"
   width="721.2738"
   height="313.35504"
   sodipodi:docname="howworldishoused00carp_0108b.png">
  <metadata
     id="metadata8">
    <rdf:RDF>
      <cc:Work
         rdf:about="">
        <dc:format>image/svg+xml</dc:format>
        <dc:type
           rdf:resource="http://purl.org/dc/dcmitype/StillImage" />
        <dc:title></dc:title>
      </cc:Work>
    </rdf:RDF>
  </metadata>
  <defs
     id="defs6" />
  <sodipodi:namedview
     pagecolor="#ffffff"
     bordercolor="#666666"
     borderopacity="1"
     objecttolerance="10"
     gridtolerance="10"
     guidetolerance="10"
     inkscape:pageopacity="0"
     inkscape:pageshadow="2"
     inkscape:window-width="1600"
     inkscape:window-height="876"
     id="namedview4"
     showgrid="false"
     fit-margin-top="0"
     fit-margin-left="0"
     fit-margin-right="0"
     fit-margin-bottom="0"
     inkscape:zoom="1"
     inkscape:cx="360.27382"
     inkscape:cy="161"
     inkscape:window-x="0"
     inkscape:window-y="24"
     inkscape:window-maximized="1"
     inkscape:current-layer="svg2" />
  <path
     style="fill:#000000"
     d="m 0.83858,312.45982 c -0.68473,-1.10791 1.97465,-2.21875 3.71393,-1.55133 2.04021,0.7829 4.92265,-1.8652 4.16875,-3.82983 -0.36378,-0.94799 -1.14928,-1.72362 -1.74556,-1.72362 -0.59628,0 -0.21063,-0.68717 0.85699,-1.52704 1.79248,-1.4101 1.57739,-1.47799 -2.80887,-0.88646 l -4.75,0.64059 0,-6.61355 c 0,-6.51509 0.0409,-6.61557 2.75,-6.74972 2.35784,-0.11676 2.42915,-0.19798 0.5,-0.56955 -3.71207,-0.71498 -2.57926,-2.5018 1.25823,-1.98465 1.92952,0.26002 3.75608,0.0717 4.05901,-0.41842 0.30294,-0.49016 -1.56237,-0.8912 -4.14513,-0.8912 l -4.69593,0 0.52625,-6.55601 c 0.28944,-3.60581 0.7453,-6.77505 1.01301,-7.04276 0.26772,-0.26772 2.23001,-0.76295 4.36066,-1.10052 2.60544,-0.41279 4.85621,-1.68759 6.8739,-3.89327 1.65,-1.80374 4.4209,-3.55992 6.15755,-3.90263 2.89939,-0.57217 3.21229,-0.37393 3.82694,2.42457 0.79963,3.64069 1.87084,4.44924 4.89053,3.69134 1.66167,-0.41705 2.26687,-1.30386 2.28219,-3.34414 0.0115,-1.52712 0.36742,-7.05158 0.791,-12.27658 0.42358,-5.225 0.93494,-13.1 1.13635,-17.5 0.20142,-4.4 0.84217,-11.15749 1.42389,-15.01663 0.58172,-3.85915 1.03249,-9.48415 1.00172,-12.5 -0.0308,-3.01586 0.15166,-7.05837 0.40543,-8.98337 0.25377,-1.925 0.72297,-8.225 1.04267,-14 0.3197,-5.775 0.79725,-12.075 1.06121,-14 0.26397,-1.925 0.69009,-8.37461 0.94694,-14.33246 0.25684,-5.95785 0.99547,-15.63285 1.64139,-21.5 1.27676,-11.59732 1.26629,-11.30291 0.55671,-15.66754 -0.668,-4.10883 -2.31546,-8.16624 -3.65094,-8.99161 -0.77177,-0.47698 -0.90222,-3.96618 -0.42831,-11.45569 0.4816,-7.610894 0.34905,-10.975263 -0.45189,-11.470273 -1.6014,-0.989715 -1.42071,-1.945115 0.86662,-4.582431 1.24216,-1.432222 2,-3.741359 2,-6.093993 0,-4.382811 0.77966,-5.078129 5.81776,-5.188392 4.15132,-0.09085 5.78047,-1.559696 3.54386,-3.195142 C 46.81359,69.276554 45.89201,66.92728 45.58748,64.6569 l -0.55367,-4.127964 5.87,-0.720875 c 3.22851,-0.396482 6.93142,-1.118067 8.2287,-1.603523 1.96473,-0.735223 2.14971,-1.134455 1.1075,-2.390241 -1.83764,-2.214223 -0.47097,-2.935412 5.58656,-2.948011 4.40928,-0.0092 5.68954,-0.41234 6.92916,-2.182068 0.83632,-1.193949 2.86485,-2.466071 4.50786,-2.826936 1.64301,-0.360866 3.26893,-1.111811 3.61315,-1.668767 0.34421,-0.556956 2.48687,-1.840548 4.76146,-2.852426 2.53252,-1.126623 3.39266,-1.86716 2.21895,-1.910416 -1.05416,-0.03885 -1.61568,-0.371619 -1.24782,-0.739485 0.36787,-0.367867 -0.0185,-1.428345 -0.85856,-2.356618 -1.97116,-2.17811 -0.95578,-3.01902 7.19609,-5.959615 5.90119,-2.128714 6.38561,-2.15679 11,-0.637547 4.3588,1.435093 5.25406,1.44071 9.23063,0.05791 2.42202,-0.842227 5.00952,-1.298836 5.75,-1.014686 0.74048,0.28415 1.34633,-0.09609 1.34633,-0.84499 0,-2.315213 3.09737,-2.703995 8.1561,-1.023755 4.03197,1.339205 4.8439,2.018609 4.8439,4.053269 0,1.68721 -0.7744,2.738811 -2.5,3.394882 -2.79507,1.062684 -3.4405,4.701865 -1,5.638374 0.825,0.316582 1.5,1.193885 1.5,1.949563 0,1.364092 0.8089,1.646861 8.5,2.971344 4.02904,0.69384 5.58471,0.731276 22,0.529404 4.95,-0.06087 11.09624,0.07339 13.65832,0.298353 3.97,0.348594 4.9705,0.05 6.77103,-2.020793 2.05383,-2.362116 2.45348,-2.42109 14.34168,-2.11633 8.95072,0.229456 12.16195,0.640087 11.97897,1.53179 -0.1375,0.67006 0.13026,1.218293 0.59501,1.218293 1.0821,0 4.72929,-4.002497 4.42401,-4.854988 -0.35007,-0.977575 4.09254,-1.940068 7.31971,-1.585815 1.57261,0.172629 3.32098,-0.04641 3.88528,-0.486759 0.91309,-0.712531 11.86979,-1.928953 23.02599,-2.556367 2.2,-0.123725 6.025,-0.506035 8.5,-0.849577 5.01694,-0.696377 14.41054,-1.707337 20.5,-2.206258 2.2,-0.18025 5.4625,-0.638791 7.25,-1.018981 2.15037,-0.457371 3.25,-0.310615 3.25,0.433745 0,1.58708 3.7364,1.40346 4.70031,-0.23099 0.79684,-1.35116 3.8763,-1.82293 23.79969,-3.64609 5.5,-0.503296 14.5,-1.586935 20,-2.408085 5.5,-0.82115 12.30625,-1.514788 15.125,-1.541418 7.98442,-0.07543 11.42574,-1.065679 12.59097,-3.623079 1.17165,-2.571491 3.64115,-3.673597 12.13023,-5.41356 6.87583,-1.409305 11.69001,-0.734239 14.15016,1.984198 1.87054,2.066921 3.76041,1.836734 2.91915,-0.355552 -0.27343,-0.71254 -0.0348,-2.51156 0.53027,-3.997822 0.91507,-2.406805 0.75551,-2.805673 -1.45918,-3.647698 -2.45865,-0.9347767 -3.1778,-3.3592497 -1.69051,-5.6992137 0.74384,-1.170285 8.90718,-0.688413 20.70391,1.222126 2.62698,0.425452 3.5409,0.323131 2.66251,-0.298088 -0.73562,-0.52025 -1.18562,-2.020018 -1,-3.332818 0.31629,-2.236977 0.70904,-2.37384 6.25256,-2.178834 3.25329,0.114442 6.21427,0.692184 6.57995,1.28387 0.36568,0.591686 1.42369,0.784612 2.35112,0.428723 2.5323,-0.971736 12.80285,0.529245 12.04226,1.759907 -0.41349,0.669034 0.37492,0.813906 2.23649,0.410961 5.39374,-1.167497 25.7807,-0.978629 29.51966,0.273476 3.73141,1.249577 4.81493,3.097396 4.8418,8.2571787 0.012,2.302347 -0.48944,2.702639 -4.11086,3.281727 -2.26848,0.362745 -6.09348,1.556506 -8.5,2.652802 -3.45183,1.572492 -4.37549,2.515734 -4.37549,4.468272 0,1.361254 -0.0805,2.812507 -0.17889,3.225007 -0.0984,0.4125 0.68911,0.907424 1.75,1.09983 1.06089,0.192407 2.91019,1.25404 4.10956,2.359184 2.07984,1.916444 2.3804,1.935758 6.5,0.417684 2.37563,-0.875418 4.99433,-1.505583 5.81933,-1.400365 0.825,0.105218 3.63832,-0.178881 6.25182,-0.631331 7.99989,-1.384941 11.5454,2.547756 8.80206,9.763287 -0.54232,1.426413 -1.92941,2.652418 -3.25,2.872582 -1.80896,0.301582 -1.33718,0.662504 2.19612,1.680102 4.90103,1.411507 5.96136,2.437222 5.98469,5.789337 0.008,1.21017 0.62666,2.56017 1.37387,3 2.12793,1.252561 3.72976,7.485532 4.09475,15.933278 0.30441,7.045807 0.54439,7.821416 2.6624,8.604919 3.3794,1.250122 3.64354,2.053071 4.41926,13.43381 0.59081,8.667983 0.97039,10.327683 2.36197,10.327683 2.34927,0 6.10306,2.834064 6.10306,4.607734 0,0.82188 -1.56616,2.14871 -3.48036,2.94851 -5.82415,2.43348 -6.8141,4.98078 -6.08972,15.66976 0.34567,5.1007 0.88125,11.4019 1.19019,14.00267 l 0.5617,4.72867 2.85943,-1.47867 c 3.49498,-1.80732 5.95842,-1.90184 5.95976,-0.22867 6.7e-4,0.84111 1.718,1.25 5.25,1.25 4.87,0 5.2264,-0.16252 4.936,-2.2508 -0.3925,-2.82243 2.9243,-4.2492 9.8781,-4.2492 4.1586,0 4.9349,0.29496 4.9349,1.875 0,1.3022 0.9599,2.06699 3.1423,2.50346 1.7282,0.34565 3.7447,1.4144 4.481,2.375 1.1046,1.44108 1.4974,1.50552 2.2459,0.36842 0.4989,-0.75796 1.4075,-1.0689 2.019,-0.69098 1.4864,0.91868 1.4116,-0.97803 -0.1365,-3.45682 -1.0196,-1.63274 -0.9675,-2.49883 0.2844,-4.72935 1.6275,-2.89951 4.9637,-4.28932 4.9643,-2.06805 2e-4,0.87681 1.6029,1.40779 4.75,1.57367 6.8643,0.36181 8.3016,0.71981 9.3143,2.32002 0.5679,0.89744 0.9104,0.98721 0.92,0.24116 0.01,-0.79878 1.5247,-1.06548 4.6186,-0.81337 5.408,0.44069 6.1225,0.92237 4.4168,2.97767 -1.6707,2.01304 -0.1587,1.95961 2.0881,-0.0738 1.9683,-1.78122 4.3245,-0.97197 3.4914,1.19911 -0.6715,1.74967 0.2085,1.7235 3.4004,-0.10115 3.4073,-1.94778 5.6533,-1.99213 4.0666,-0.0803 -1.2871,1.55085 -0.9672,1.56049 4.191,0.12635 1.8509,-0.5146 3.8735,-0.23721 6.1512,0.84362 3.3645,1.59658 6.4959,2.18164 5.3055,0.99127 -1.193,-1.19296 2.1722,-3.38095 5.1999,-3.38095 1.6814,0 5.0886,0.54333 7.5714,1.2074 3.7282,0.99713 4.5144,1.6164 4.5144,3.55577 0,2.33817 0.011,2.33618 2.4142,-0.45741 1.3739,-1.59675 2.0614,-3.23666 1.5954,-3.80576 -0.4504,-0.55 -0.9742,-2.575 -1.1642,-4.5 -0.3336,-3.37998 -0.22,-3.51045 3.3119,-3.80484 3.1803,-0.26508 4.0109,0.15875 6.3687,3.25 1.4912,1.95516 3.4781,3.55484 4.4151,3.55484 0.9371,0 4.1461,1.32172 7.1313,2.93715 2.9852,1.61543 6.7293,3.17227 8.3202,3.45963 1.5909,0.28737 3.9049,1.47356 5.1423,2.63598 1.3903,1.30612 2.3945,1.67905 2.6288,0.97623 0.5399,-1.61972 25.8363,0.90883 25.8363,2.58253 0,0.65699 0.675,1.45354 1.5,1.77013 2.1796,0.8364 1.8381,2.63837 -0.5,2.63837 -1.3333,0 -2,0.66667 -2,2 0,1.40287 -0.6718,2.00457 -2.25,2.01531 -4.3988,0.0299 -4.7111,0.93049 -4.344,12.52546 0.1909,6.02758 0.6867,11.77543 1.102,12.773 0.5365,1.28903 0.1265,2.25394 -1.4172,3.33521 -2.2717,1.59112 -2.3503,3.67594 -0.6919,18.35102 0.2797,2.475 0.7589,8.775 1.0649,14 0.306,5.225 0.9855,15.45638 1.5099,22.7364 0.5244,7.28002 1.2557,18.30502 1.6252,24.5 0.3694,6.19498 1.133,11.5598 1.6969,11.92183 0.5639,0.36202 1.8532,0.14113 2.8652,-0.49088 1.4571,-0.90995 3.1406,-0.68269 8.0895,1.09198 3.4372,1.2326 7.2886,2.24099 8.5585,2.24088 1.27,-1.2e-4 2.0648,0.395 1.7662,0.87804 -0.2985,0.48303 0.8,1.14678 2.441,1.475 l 2.9838,0.59675 0,15.525 0,15.525 -359.94098,0 c -210.79461,0 -360.17024,-0.37094 -360.49426,-0.89522 z m 109.91639,-59.20747 c -0.0104,-7.7529 0.29926,-17.98894 0.68805,-22.74675 0.3888,-4.75781 0.97693,-13.37556 1.30696,-19.15056 0.33003,-5.775 1.02819,-16.125 1.55146,-23 0.97324,-12.78702 1.39194,-19.45983 2.54123,-40.5 0.64111,-11.73676 0.60367,-12.04717 -1.70668,-14.15017 -1.29919,-1.18259 -3.26217,-2.31219 -4.36217,-2.51022 -1.18219,-0.21282 -2.13375,-1.29947 -2.3271,-2.65746 -0.17991,-1.26358 -0.80016,-2.13973 -1.37835,-1.947 -1.35586,0.45195 -1.49204,4.36754 -2.26993,65.26485 -0.35831,28.05 -0.83939,56.5125 -1.06908,63.25 l -0.4176,12.25 3.73103,-0.003 3.73103,-0.003 -0.0189,-14.09619 z m -41.01632,-2.39731 c 0.37742,-7.7 0.87248,-16.475 1.10013,-19.5 0.22765,-3.025 0.45087,-7.075 0.49605,-9 0.0452,-1.925 0.48512,-8.675 0.97766,-15 0.94218,-12.09921 1.49543,-20.04085 2.54275,-36.5 0.34997,-5.5 0.76471,-10.675 0.92165,-11.5 0.15694,-0.825 0.6094,-7.8 1.00547,-15.5 0.65872,-12.80631 0.56116,-14.19365 -1.14421,-16.27124 -1.02538,-1.24918 -2.98933,-2.48142 -4.36433,-2.73832 -1.375,-0.25689 -2.9759,-1.11491 -3.55756,-1.90671 -0.69477,-0.94577 -1.54939,-1.13567 -2.49127,-0.55355 -1.06858,0.66042 -1.4913,3.50713 -1.65983,11.17795 -0.39263,17.87039 -1.46444,61.84761 -1.78627,73.29187 -0.17013,6.05 -0.40776,20.675 -0.52806,32.5 l -0.21872,21.5 3.62085,0.92637 c 2.12701,0.54417 3.62086,1.54121 3.62086,2.41666 0,0.81967 0.17519,1.3028 0.38931,1.07364 0.21412,-0.22917 0.6981,-6.71667 1.07552,-14.41667 z m 219.83861,-30.5 c 0.31409,-1.375 0.83288,-3.7375 1.15287,-5.25 0.56966,-2.69266 0.73256,-2.75003 7.81274,-2.75131 l 7.23095,-0.001 0,10.25132 c 0,8.44561 0.26422,10.25131 1.5,10.25131 0.92478,0 1.6298,-1.15044 1.83849,-3 0.18616,-1.65 0.7874,-3.54279 1.33609,-4.2062 0.54868,-0.6634 0.65569,-1.7594 0.23781,-2.43556 -0.41788,-0.67615 -0.70988,-10.25836 -0.64888,-21.2938 0.0712,-12.87583 -0.20986,-19.16875 -0.78442,-17.56444 -0.57962,1.61844 -0.72092,-1.20256 -0.40071,-8 0.27205,-5.775 0.68125,-17.025 0.90934,-25 0.22809,-7.975 0.73872,-17.65 1.13473,-21.5 0.39601,-3.85 0.70376,-8.575 0.68388,-10.5 -0.24281,-23.517404 -0.41787,-28.000004 -1.09353,-28.000004 -0.43295,0 -0.85882,0.95086 -0.94636,2.11303 -0.23283,3.09083 -1.24422,3.63784 -2.79781,1.51319 -1.215,-1.66161 -2.23947,-1.79487 -9.16823,-1.19257 -13.89065,1.20748 -14.2945,1.34583 -13.62985,4.6691 0.49054,2.452724 0.26062,2.897254 -1.4985,2.897254 -3.22907,0 -6.85694,2.00491 -7.88986,4.36027 -0.55462,1.26469 -0.79905,19.72459 -0.59771,45.13973 0.18735,23.65 0.33499,51.1774 0.32808,61.172 l -0.0126,18.17169 5.5435,-0.25613 c 3.04893,-0.14087 5.75777,0.0906 6.01965,0.5143 0.26188,0.42373 0.49286,6.00388 0.51329,12.40033 0.0586,18.35672 1.36156,16.75819 2.03974,-2.50251 0.33891,-9.625 0.87317,-18.625 1.18726,-20 z m 226.73998,1.25 c 0.0172,-13.6125 0.24491,-27.1445 0.50593,-30.07112 0.45205,-5.06872 0.36727,-5.30588 -1.78739,-5 -2.64035,0.37484 -2.50522,-2.77997 -1.40428,32.78467 0.73198,23.6457 1.00881,27.03645 2.20737,27.03645 0.24586,0 0.46113,-11.1375 0.47837,-24.75 z m -168.59318,16.01908 c 0.36532,-0.95201 0.18846,-1.88951 -0.39301,-2.08334 -1.63451,-0.54483 -1.24838,-2.18574 0.51434,-2.18574 1.04924,0 1.47494,-0.74781 1.28085,-2.25 -0.40106,-3.10407 0.84075,-4.75 3.58376,-4.75 2.16243,0 2.28771,-0.31908 1.86509,-4.75 -0.26112,-2.73767 -0.0943,-4.24663 0.39366,-3.56181 0.47894,0.67211 0.87716,-5.19152 0.91682,-13.5 0.0386,-8.07851 0.11035,-17.16319 0.15951,-20.18819 0.0491,-3.025 0.0598,-7.075 0.0236,-9 -0.12034,-6.40284 0.96611,-13.07686 2.40906,-14.7988 0.78406,-0.93566 1.34382,-3.37316 1.24392,-5.41666 -0.23272,-4.76025 2.28335,-7.31666 6.26712,-6.36761 1.53177,0.36491 3.46004,0.63875 4.28504,0.60852 0.825,-0.0302 2.5125,-0.0534 3.75,-0.0514 2.16359,0.003 2.25408,-0.35127 2.35615,-9.23524 0.16746,-14.57584 0.52189,-23.55321 1.30495,-33.05341 0.51914,-6.29829 0.38648,-9.224374 -0.46472,-10.250004 -0.6552,-0.78947 -0.84142,-1.4354 -0.41384,-1.4354 1.38811,0 -2.94616,-4.162533 -5.9537,-5.717789 -2.3048,-1.191861 -4.85254,-1.370692 -12.00236,-0.84247 -12.01633,0.887754 -12.57648,1.093865 -12.57648,4.627649 0,2.54744 -0.36891,2.93261 -2.80887,2.93261 -1.54488,0 -3.68238,0.64155 -4.75,1.42567 -1.86444,1.36934 -1.93359,2.821214 -1.75019,36.750004 0.23669,43.78628 1.23935,99.90252 1.80127,100.81173 0.23085,0.37352 1.85801,0.46804 3.61591,0.21004 2.86441,-0.42041 3.13821,-0.24739 2.63765,1.66673 -0.68217,2.60864 1.72076,2.96841 2.70447,0.40491 z m -125.92954,-8.62276 c 0.70235,0.26951 1.57407,0.009 1.93717,-0.57815 0.36309,-0.58749 2.60853,-1.06817 4.98986,-1.06817 4.15648,0 4.35596,-0.14002 4.98629,-3.5 0.64422,-3.43398 0.74896,-3.5 5.55228,-3.5 2.69261,0 5.16562,-0.43679 5.49555,-0.97064 0.69149,-1.11884 1.47007,-13.26419 1.9571,-30.52936 0.5338,-18.92321 2.05717,-52.63751 3.18893,-70.57533 0.49563,-7.85562 0.30198,-10.15963 -1.07829,-12.82877 -2.42404,-4.68757 -7.29923,-6.439164 -16.31219,-5.860744 -8.01128,0.514134 -9.11779,0.999114 -7.29381,3.196874 1.71944,2.0718 0.46354,3.56797 -2.995,3.56797 -1.61336,0 -4.00914,0.93537 -5.32397,2.07859 l -2.3906,2.0786 -0.15638,59.00476 c -0.0954,35.98402 0.20492,58.78145 0.76968,58.43241 0.50934,-0.31479 1.49798,0.11678 2.19699,0.95903 0.81586,0.98305 1.61618,1.18612 2.23516,0.56714 0.53033,-0.53033 1.53889,-0.74373 2.24123,-0.47421 z m -40.15607,-13.39632 c 0.34226,-2.6125 0.87351,-13.075 1.18056,-23.25 0.30706,-10.175 0.94187,-21.76631 1.41071,-25.75848 0.46883,-3.99216 0.6217,-8.14079 0.33969,-9.21917 -0.282,-1.07839 -0.0534,-3.27827 0.50795,-4.88864 0.89684,-2.57268 0.69769,-3.22596 -1.64143,-5.38423 -1.46416,-1.35096 -3.44202,-2.73023 -4.39525,-3.06503 -0.99119,-0.34814 -1.49713,-1.22379 -1.18183,-2.04545 1.06311,-2.77042 -1.45256,-2.63378 -3.46187,0.18803 -1.95012,2.7387 -2.03248,4.32828 -2.09897,40.51176 l -0.0692,37.66121 4.39367,0 4.39367,0 0.62229,-4.75 z m 191.12315,2.5 c 0.28924,-1.2375 0.65239,-7.20106 0.80699,-13.25236 0.1546,-6.05129 0.52523,-11.45129 0.82362,-12 0.909,-1.67151 0.32328,-7.86113 -0.96972,-10.24764 -0.67047,-1.2375 -1.90476,-2.25 -2.74287,-2.25 -0.83811,0 -1.23354,0.46971 -0.87873,1.0438 0.35481,0.5741 0.21416,1.5866 -0.31255,2.25 -0.52672,0.66341 -0.80726,2.1062 -0.62343,3.2062 0.18383,1.1 0.41497,7.4 0.51364,14 0.20586,13.76915 0.79596,19.5 2.00789,19.5 0.4671,0 1.08593,-1.0125 1.37516,-2.25 z m 56.01222,-59.01138 c 1.1,-0.0362 2.71633,0.25358 3.59185,0.64405 1.42176,0.63408 1.66906,-1.93946 2.31447,-24.08637 0.83723,-28.72873 1.12753,-33.73303 2.04276,-35.21391 0.36792,-0.595314 0.15664,-1.082394 -0.46952,-1.082394 -0.72114,0 -0.91795,-1.00807 -0.53688,-2.75 0.46576,-2.12914 -0.0855,-3.58248 -2.44166,-6.437291 -4.43711,-5.376143 -8.08894,-6.922696 -13.81875,-5.852252 -5.79175,1.082016 -5.68227,1.004186 -5.68227,4.039543 0,2.15721 -0.50342,2.541914 -3.67148,2.805684 -6.46436,0.538216 -7.124,2.730516 -6.80014,22.6001 0.15325,9.40182 0.37831,18.33172 0.50013,19.84422 0.12182,1.5125 0.27774,7.26114 0.34649,12.77475 0.12402,9.94621 0.14655,10.03365 2.875,11.16037 1.5125,0.62459 3.27857,1.05152 3.92459,0.94873 0.64603,-0.10279 1.39046,0.16254 1.65429,0.58963 0.26383,0.42709 3.56026,0.62003 7.32541,0.42877 3.76514,-0.19126 7.74571,-0.37739 8.84571,-0.41363 z"
     id="path2987"
     inkscape:connector-curvature="0" />
</svg>
