<?xml version="1.0" encoding="UTF-8" standalone="no"?>
<!-- Created with Inkscape (http://www.inkscape.org/) -->

<svg
   xmlns:dc="http://purl.org/dc/elements/1.1/"
   xmlns:cc="http://creativecommons.org/ns#"
   xmlns:rdf="http://www.w3.org/1999/02/22-rdf-syntax-ns#"
   xmlns:svg="http://www.w3.org/2000/svg"
   xmlns="http://www.w3.org/2000/svg"
   xmlns:sodipodi="http://sodipodi.sourceforge.net/DTD/sodipodi-0.dtd"
   xmlns:inkscape="http://www.inkscape.org/namespaces/inkscape"
   id="svg2"
   version="1.1"
   inkscape:version="0.48.2 r9819"
   width="1148.0011"
   height="818"
   sodipodi:docname="ilamanastasicdra05ilamuoft_0132sd.png">
  <metadata
     id="metadata8">
    <rdf:RDF>
      <cc:Work
         rdf:about="">
        <dc:format>image/svg+xml</dc:format>
        <dc:type
           rdf:resource="http://purl.org/dc/dcmitype/StillImage" />
        <dc:title></dc:title>
      </cc:Work>
    </rdf:RDF>
  </metadata>
  <defs
     id="defs6" />
  <sodipodi:namedview
     pagecolor="#ffffff"
     bordercolor="#666666"
     borderopacity="1"
     objecttolerance="10"
     gridtolerance="10"
     guidetolerance="10"
     inkscape:pageopacity="0"
     inkscape:pageshadow="2"
     inkscape:window-width="1600"
     inkscape:window-height="876"
     id="namedview4"
     showgrid="false"
     fit-margin-top="0"
     fit-margin-left="0"
     fit-margin-right="0"
     fit-margin-bottom="0"
     inkscape:zoom="0.5"
     inkscape:cx="574"
     inkscape:cy="416"
     inkscape:window-x="0"
     inkscape:window-y="24"
     inkscape:window-maximized="1"
     inkscape:current-layer="svg2" />
  <path
     style="fill:#000000"
     d="M 0,799.42857 C 0,780.54189 0.47773,778 4.02736,778 4.67098,778 6.45867,776.65 8,775 c 1.54133,-1.65 3.77902,-3 4.97264,-3 C 15.41232,772 18,769.83415 18,767.79219 c 0,-0.74287 0.9,-1.99935 2,-2.79219 1.1,-0.79284 2,-2.24218 2,-3.22076 C 22,760.80066 22.45,760 23,760 c 0.55,0 1,-2.15066 1,-4.77924 0,-3.63207 0.48006,-5.12525 2,-6.22076 1.1,-0.79284 2,-2.20468 2,-3.13743 0,-0.93274 0.5625,-1.9584 1.25,-2.27924 1,-0.46666 1,-0.7 0,-1.16666 -0.68794,-0.32104 -1.25,-2.34445 -1.25,-4.5 0,-3.25 0.34043,-3.91667 2,-3.91667 1.25062,0 2,-0.66667 2,-1.77924 0,-0.97858 0.9,-2.42792 2,-3.22076 1.1,-0.79284 2,-2.04932 2,-2.79219 C 36,722.84689 38.7027,722 49.42857,722 55.80952,722 60,721.6036 60,721 c 0,-0.55 1.35,-1 3,-1 1.65,0 3,0.45 3,1 0,0.55 2.25,1 5,1 2.75,0 5,-0.45 5,-1 0,-0.55 -0.45,-1 -1,-1 -0.55,0 -1,-0.45 -1,-1 0,-0.55 0.9,-1 2,-1 1.1,0 2,0.45 2,1 0,0.55 0.45,1 1,1 0.55,0 1,-0.9 1,-2 0,-1.16604 0.66667,-2 1.59879,-2 0.87933,0 2.85988,-1.35 4.40121,-3 1.54133,-1.65 3.52188,-3 4.40121,-3 C 91.33333,710 92,709.16604 92,708 c 0,-1.13725 0.66667,-2 1.54545,-2 1.76524,0 6.45455,-4.35908 6.45455,-6 0,-1.42968 4.59011,-6 6.02597,-6 C 107.65779,694 110,691.38989 110,689.57143 110,688.70714 110.71946,688 111.59879,688 c 0.87933,0 2.85988,-1.35 4.40121,-3 2.80226,-2.99983 2.80309,-3 14.40121,-3 C 137.4671,682 142,681.60919 142,681 c 0,-0.55 1.8,-1 4,-1 2.2,0 4,-0.45 4,-1 0,-0.55 0.9,-1 2,-1 1.1,0 2,-0.45 2,-1 0,-0.55 0.8625,-1 1.9167,-1 1.0541,0 2.1791,-0.5625 2.5,-1.25 0.4666,-1 0.7,-1 1.1666,0 0.6895,1.47743 8.4167,1.70695 8.4167,0.25 0,-0.55 1.35,-1 3,-1 2.6667,0 3,-0.33333 3,-3 0,-1.65 -0.45,-3 -1,-3 -0.5926,0 -1,-3.66667 -1,-9 0,-5.33333 -0.4074,-9 -1,-9 -0.55,0 -1,-2.25 -1,-5 0,-2.75 0.45,-5 1,-5 0.55,0 1,-0.45 1,-1 0,-0.55 -0.9,-1 -2,-1 -1.5556,0 -2,-0.66667 -2,-3 0,-2.33333 -0.4444,-3 -2,-3 -1.5556,0 -2,-0.66667 -2,-3 0,-2.66667 -0.3333,-3 -3,-3 -2.0606,0 -3,-0.49206 -3,-1.57143 C 158,621.12232 155.3571,620 147.5714,620 140.9798,620 140,619.76975 140,618.22076 c 0,-0.97858 -0.9,-2.42792 -2,-3.22076 -1.1,-0.79284 -2,-2.24218 -2,-3.22076 C 136,610.80066 135.55,610 135,610 c -0.55,0 -1,-0.9 -1,-2 0,-2.22272 -1.51062,-2.69153 -2.41667,-0.75 -0.46666,1 -0.7,1 -1.16666,0 -0.32084,-0.6875 -1.44584,-1.25 -2.5,-1.25 -1.25,0 -1.91667,-0.69565 -1.91667,-2 0,-1.1 -0.45,-2 -1,-2 -0.55,0 -1,-0.9 -1,-2 0,-1.1 -0.45,-2 -1,-2 -0.55,0 -1,-0.9 -1,-2 0,-1.1 -0.45,-2 -1,-2 -0.55,0 -1,-0.9 -1,-2 0,-1.1 -0.45,-2 -1,-2 -1.7679,0 -1.06567,-3.51115 1,-5 2.55014,-1.83804 2.55014,-3 0,-3 -2.25047,0 -2.83523,-3.44356 -0.75,-4.41667 1,-0.46666 1,-0.7 0,-1.16666 -0.6875,-0.32084 -1.25,-1.44584 -1.25,-2.5 C 118,572.4537 117.28986,572 115,572 c -2.03922,0 -3,-0.49495 -3,-1.54545 C 112,567.59628 107.33581,564 103.62879,564 c -1.90417,0 -3.72462,0.5625 -4.04546,1.25 -0.46666,1 -0.7,1 -1.16666,0 -0.32084,-0.6875 -1.89584,-1.25 -3.5,-1.25 C 92.34259,564 92,563.64762 92,561 c 0,-1.65 0.45,-3 1,-3 0.55,0 1,0.45 1,1 0,0.55 0.45,1 1,1 1.90542,0 0.99971,-5.26566 -1.25,-7.26734 -1.52621,-1.35793 -1.84789,-2.14627 -1,-2.45063 C 94.25387,549.7422 94.49074,540 93,540 c -0.55,0 -1,-0.9 -1,-2 0,-1.1 0.45,-2 1,-2 0.55,0 1,-1.15714 1,-2.57143 C 94,530.53498 96.06801,528 98.42857,528 99.50794,528 100,527.06061 100,525 c 0,-1.65 -0.45,-3 -1,-3 -0.55,0 -1,-0.9 -1,-2 0,-1.1 0.45,-2 1,-2 0.55,0 1,0.45 1,1 0,0.55 0.45,1 1,1 0.55,0 1,-0.9 1,-2 0,-1.15152 -0.66667,-2 -1.57143,-2 C 98.06801,516 96,513.46502 96,510.57143 96,508.66667 96.51852,508 98,508 c 1.33333,0 2,-0.66667 2,-2 0,-1.1 -0.45,-2 -1,-2 -0.55,0 -1,0.45 -1,1 0,0.55 -0.9,1 -2,1 -1.33333,0 -2,-0.66667 -2,-2 0,-1.33333 0.66667,-2 2,-2 1.1,0 2,-0.45 2,-1 0,-0.55 -0.70714,-1 -1.57143,-1 C 93.41584,500 92,497.30533 92,491.57143 92,488.50714 91.55,486 91,486 c -0.55,0 -1,0.45 -1,1 0,0.55 -0.45,1 -1,1 -0.55,0 -1,-0.9 -1,-2 0,-1.25062 0.66667,-2 1.77924,-2 0.97858,0 2.42793,-0.9 3.22076,-2 0.79283,-1.1 2.24218,-2 3.22076,-2 C 97.19934,480 98,479.55 98,479 c 0,-0.55 -0.9,-1 -2,-1 -1.33333,0 -2,-0.66667 -2,-2 0,-1.55556 0.66667,-2 3,-2 1.65,0 3,-0.45 3,-1 0,-0.55 -0.9,-1 -2,-1 -1.1,0 -2,-0.45 -2,-1 0,-0.55 1.35,-1 3,-1 2.33333,0 3,-0.44444 3,-2 0,-1.1 0.45,-2 1,-2 0.55556,0 1,-2.66667 1,-6 0,-5.33333 -0.22222,-6 -2,-6 -1.1,0 -2,-0.45 -2,-1 0,-0.55 0.45,-1 1,-1 0.55,0 1,-1.35 1,-3 0,-1.65 -0.45,-3 -1,-3 -1.48524,0 -1.21031,-2.93255 0.42857,-4.57143 0.78572,-0.78571 2.13572,-1.42857 3,-1.42857 0.86429,0 1.57143,-0.45 1.57143,-1 0,-0.55 -0.45,-1 -1,-1 -0.55,0 -1,-0.9 -1,-2 0,-1.33333 0.66667,-2 2,-2 1.30435,0 2,-0.66667 2,-1.91667 0,-1.05416 0.5625,-2.17916 1.25,-2.5 1,-0.46666 1,-0.7 0,-1.16666 C 107.73634,427.71029 107.50057,416 109,416 c 0.60606,0 1,-4.33333 1,-11 0,-6.66667 -0.39394,-11 -1,-11 -0.55,0 -1,-1.35 -1,-3 0,-1.65 0.45,-3 1,-3 0.55,0 1,-1.35 1,-3 0,-2.83333 0.22222,-3 4,-3 2.2,0 4,-0.45 4,-1 0,-0.55 0.9,-1 2,-1 1.1,0 2,-0.45 2,-1 0,-0.58333 3.33333,-1 8,-1 4.6667,0 8,-0.41667 8,-1 0,-0.55 0.9,-1 2,-1 1.1,0 2,-0.45 2,-1 0,-0.55 1.35,-1 3,-1 1.65,0 3,0.45 3,1 0,0.57143 3,1 7,1 4,0 7,-0.42857 7,-1 0,-0.55 0.9,-1 2,-1 1.1,0 2,-0.45 2,-1 0,-0.55 -0.45,-1 -1,-1 -0.55,0 -1,-0.45 -1,-1 0,-0.59259 3.6667,-1 9,-1 5.3333,0 9,-0.40741 9,-1 0,-0.55 0.9,-1 2,-1 1.1,0 2,-0.45 2,-1 0,-1.45695 7.7272,-1.22743 8.4167,0.25 0.4666,1 0.7,1 1.1666,0 0.3209,-0.6875 1.8959,-1.25 3.5,-1.25 1.6042,0 2.9167,-0.45 2.9167,-1 0,-0.55 -0.45,-1 -1,-1 -0.55,0 -1,-0.45 -1,-1 0,-0.55 0.9,-1 2,-1 1.1,0 2,0.45 2,1 0,1.7679 3.5112,1.06567 5,-1 0.8465,-1.17447 2.5887,-2 4.2208,-2 1.8599,0 2.7792,-0.5198 2.7792,-1.57143 0,-1.92738 2.3765,-4.42857 4.2078,-4.42857 0.7429,0 1.9994,-0.9 2.7922,-2 1.838,-2.55014 3,-2.55014 3,0 0,1.1 0.45,2 1,2 0.55,0 1,-0.45 1,-1 0,-0.55 1.35,-1 3,-1 2.3333,0 3,-0.44444 3,-2 0,-1.1 0.45,-2 1,-2 0.554,0 1,-2.63889 1,-5.91667 0,-3.75555 0.4566,-6.12973 1.25,-6.5 1,-0.46666 1,-0.7 0,-1.16666 -0.6875,-0.32084 -1.25,-1.73055 -1.25,-3.13271 0,-1.40215 -1.0125,-3.45024 -2.25,-4.5513 -1.5262,-1.35793 -1.8479,-2.14627 -1,-2.45063 0.6875,-0.24678 1.25,-1.7612 1.25,-3.36536 0,-1.60417 0.45,-2.91667 1,-2.91667 0.6273,0 1,-6.30556 1,-16.91667 0,-12.59616 0.3193,-17.0462 1.25,-17.42387 0.9412,-0.3819 0.8795,-0.77303 -0.25,-1.58333 -1.3333,-0.95656 -1.3333,-1.1957 0,-2.15226 1.1295,-0.8103 1.1912,-1.20143 0.25,-1.58333 -1.9057,-0.77327 -1.4911,-3.72521 0.75,-5.34054 2.4532,-1.76815 2.7735,-7 0.4286,-7 -0.8643,0 -2.2873,-0.71584 -3.1622,-1.59075 -1.3518,-1.35177 -1.3786,-1.72735 -0.1786,-2.5 1.2061,-0.77652 1.1932,-1.06634 -0.088,-1.98538 -1.1294,-0.8103 -1.1912,-1.20143 -0.25,-1.58333 C 236.2516,257.73125 236.4869,248 235,248 c -0.5556,0 -1,-2.66667 -1,-6 0,-3.33333 -0.4444,-6 -1,-6 -0.55,0 -1,-0.9 -1,-2 0,-1.15152 0.6667,-2 1.5714,-2 4.3904,0 6.2162,-8.27004 2.4286,-11 -1.1,-0.79284 -2,-2.48218 -2,-3.75409 C 234,214.08867 227.766,208 224.5333,208 223.14,208 222,207.55 222,207 c 0,-0.55 -0.7071,-1 -1.5714,-1 -3.6268,0 -6.2619,-6.97778 -3.1786,-8.41667 1,-0.46666 1,-0.7 0,-1.16666 C 214.1667,194.97778 216.8018,188 220.4286,188 c 0.9047,0 1.5714,-0.84848 1.5714,-2 0,-1.1 -0.45,-2 -1,-2 -0.55,0 -1,-1.7625 -1,-3.91667 0,-2.19616 -0.5491,-4.13947 -1.25,-4.42387 -0.9591,-0.38916 -0.9217,-0.73631 0.1607,-1.49169 1.1268,-0.78632 0.372,-1.99631 -3.75,-6.01121 C 212.3223,165.39187 210,162.42563 210,161.56492 210,160.66667 209.148,160 208,160 c -1.1,0 -2,0.45 -2,1 0,0.55 -0.9,1 -2,1 -1.5556,0 -2,-0.66667 -2,-3 0,-2.06061 -0.4921,-3 -1.5714,-3 -2.5092,0 -4.4286,-2.60044 -4.4286,-6 0,-3.39956 1.9194,-6 4.4286,-6 1.0516,0 1.5714,-0.91932 1.5714,-2.77924 0,-1.63207 0.8255,-3.37425 2,-4.22076 2.0606,-1.4852 2.8484,-7 1,-7 -0.55,0 -1,-1.8 -1,-4 0,-3.33333 0.3333,-4 2,-4 1.1,0 2,-0.45 2,-1 0,-0.57143 3,-1 7,-1 4,0 7,-0.42857 7,-1 0,-0.55 1.35,-1 3,-1 1.65,0 3,-0.45 3,-1 0,-0.55 1.1695,-1 2.5988,-1 1.5981,0 3.6779,-1.15516 5.4012,-3 1.5413,-1.65 3.5219,-3 4.4012,-3 1.1098,0 1.5988,-0.91761 1.5988,-3 0,-3.04644 1.3541,-4.02698 2.4167,-1.75 0.4666,1 0.7,1 1.1666,0 0.3209,-0.6875 1.4459,-1.25 2.5,-1.25 1.0542,0 1.9167,-0.45 1.9167,-1 0,-0.55 0.9,-1 2,-1 1.1,0 2,-0.45 2,-1 0,-0.55 0.9,-1 2,-1 1.1,0 2,0.45 2,1 0,1.44346 3.7248,1.23262 4.4167,-0.25 0.4666,-1 0.7,-1 1.1666,0 0.3209,0.6875 1.4459,1.25 2.5,1.25 1.0542,0 1.9167,0.45 1.9167,1 0,0.55 0.9,1 2,1 1.1,0 2,0.45 2,1 0,0.55 0.9,1 2,1 1.1,0 2,-0.45 2,-1 0,-0.55 0.9,-1 2,-1 1.5556,0 2,0.66667 2,3 0,2.83333 0.2222,3 4,3 3.3333,0 4,0.33333 4,2 0,2.20337 1.5836,2.72846 2.2619,0.75 0.2691,-0.78486 1.6104,0.007 3.6046,2.12851 l 3.176,3.3785 1.8461,-2.1285 c 2.3099,-2.66336 4.2549,-2.70426 6.1114,-0.12851 0.7928,1.1 2.2422,2 3.2208,2 0.9785,0 1.7792,0.45 1.7792,1 0,0.55 1.35,1 3,1 2.3333,0 3,0.44444 3,2 0,1.80723 0.6667,2 6.9167,2 4.5555,0 7.1158,-0.42671 7.5,-1.25 0.4666,-1 0.7,-1 1.1666,0 0.6903,1.47914 6.4167,1.70224 6.4167,0.25 0,-0.55 -0.45,-1 -1,-1 -0.55,0 -1,-0.9 -1,-2 0,-2.55014 1.162,-2.55014 3,0 0.7928,1.1 2.2422,2 3.2208,2 0.9785,0 1.7792,0.45 1.7792,1 0,0.55 0.9,1 2,1 1.3333,0 2,0.66667 2,2 0,1.33333 0.6667,2 2,2 1.3333,0 2,0.66667 2,2 0,1.33333 0.6667,2 2,2 1.5556,0 2,-0.66667 2,-3 0,-1.65 -0.45,-3 -1,-3 -0.55,0 -1,-0.45 -1,-1 0,-0.55 0.9,-1 2,-1 1.3333,0 2,0.66667 2,2 0,1.1 0.45,2 1,2 0.55,0 1,0.70714 1,1.57143 0,1.97928 2.8578,4.9222 3.7976,3.91071 0.3863,-0.41577 0.1399,-0.95684 -0.5476,-1.20238 C 361.2761,131.57481 361.7942,130 364,130 c 1.1,0 2,-0.45 2,-1 0,-0.55 0.9,-1 2,-1 1.5556,0 2,0.66667 2,3 0,1.65 0.45,3 1,3 0.55,0 1,0.9 1,2 0,1.1 0.45,2 1,2 0.55,0 1,0.9 1,2 0,1.1 0.45,2 1,2 0.55,0 1,-0.45 1,-1 0,-0.55 1.8,-1 4,-1 3.3333,0 4,0.33333 4,2 0,2.70302 0.7057,2.52661 4,-1 2.9079,-3.11288 7.3497,-4.03642 8.4167,-1.75 0.4666,1 0.7,1 1.1666,0 0.8241,-1.76587 2.4167,-1.55405 2.4167,0.32143 0,2.99776 2.6962,4.42857 8.3452,4.42857 3.4845,0 5.6519,0.45635 5.9368,1.25 0.3044,0.84789 1.0927,0.52621 2.4507,-1 1.5316,-1.72146 3.0901,-2.25 6.6346,-2.25 3.966,0 4.6327,0.28781 4.6327,2 0,1.73333 0.6667,2 5,2 2.75,0 5,-0.45 5,-1 0,-0.55 2.25,-1 5,-1 4.3333,0 5,0.26667 5,2 0,1.25062 0.6667,2 1.7792,2 0.9786,0 2.428,0.9 3.2208,2 1.1554,1.603 2.5887,2 7.2208,2 3.1861,0 5.7792,0.44869 5.7792,1 0,0.55 0.45,1 1,1 0.55,0 1,-1.70066 1,-3.77924 0,-2.63207 0.6071,-4.21681 2,-5.22076 2.0657,-1.48885 2.7679,-5 1,-5 -0.5782,0 -1,-3.17778 -1,-7.53333 0,-7.2624 0.1247,-7.65802 3.4667,-11 3.1202,-3.12022 4.0196,-3.46667 9,-3.46667 3.0433,0 5.5333,0.45 5.5333,1 0,1.46329 7.7395,1.23131 8.3405,-0.25 0.383,-0.94376 0.7895,-0.88251 1.6595,0.25 0.87,1.13251 1.2765,1.19376 1.6595,0.25 0.2844,-0.7009 2.2277,-1.25 4.4238,-1.25 3.1933,0 3.9167,-0.35402 3.9167,-1.91667 0,-1.05416 0.5625,-2.11858 1.25,-2.36536 0.8479,-0.30436 0.5262,-1.0927 -1,-2.45063 -1.7215,-1.53167 -2.25,-3.09018 -2.25,-6.63464 0,-2.54798 -0.45,-4.6327 -1,-4.6327 -0.55,0 -1,-0.80066 -1,-1.77924 0,-0.97858 -0.9,-2.42792 -2,-3.22076 -2.0606,-1.4852 -2.8484,-7 -1,-7 0.55,0 1,0.45 1,1 0,0.55 0.45,1 1,1 0.55,0 1,-0.9 1,-2 0,-1.33333 0.6667,-2 2,-2 1.1,0 2,-0.45 2,-1 0,-0.55 -0.9,-1 -2,-1 -1.5556,0 -2,-0.66667 -2,-3 0,-1.65 -0.45,-3 -1,-3 -0.55,0 -1,-0.9 -1,-2 0,-1.33333 0.6667,-2 2,-2 1.1,0 2,-0.45 2,-1 0,-0.55 -0.9,-1 -2,-1 -1.1372,0 -2,-0.666667 -2,-1.545455 C 502,67.560837 497.3358,64 493.5455,64 491.5955,64 490,63.55 490,63 c 0,-0.55 0.45,-1 1,-1 0.55,0 1,-1.8 1,-4 0,-4.691555 2.0455,-5.371128 5.2673,-1.75 1.358,1.526206 2.1463,1.847892 2.4507,1 0.2763,-0.769668 2.338,-1.25 5.3653,-1.25 2.7042,0 4.9167,-0.45 4.9167,-1 0,-0.55 0.9,-1 2,-1 1.1,0 2,0.45 2,1 0,0.55 0.9,1 2,1 1.1,0 2,-0.45 2,-1 0,-1.481809 9.7173,-1.248593 10.4167,0.25 0.4666,1 0.7,1 1.1666,0 C 530.7674,52.7128 532,54.115459 532,58 c 0,2.2 -0.45,4 -1,4 -0.55,0 -1,0.9 -1,2 0,1.333333 0.6667,2 2,2 1.1,0 2,-0.45 2,-1 0,-0.55 1.35,-1 3,-1 1.65,0 3,-0.45 3,-1 0,-0.55 0.8007,-1 1.7792,-1 0.9786,0 2.428,-0.9 3.2208,-2 0.7928,-1.1 1.7922,-2 2.2208,-2 0.4285,0 0.7792,0.9 0.7792,2 0,1.555556 0.6667,2 3,2 1.65,0 3,0.45 3,1 0,0.55 2.25,1 5,1 2.75,0 5,0.45 5,1 0,0.555556 2.6667,1 6,1 5.3333,0 6,0.222222 6,2 0,1.555556 0.6667,2 3,2 1.65,0 3,0.45 3,1 0,0.55 -0.45,1 -1,1 -0.55,0 -1,0.45 -1,1 0,0.55 1.8,1 4,1 4,0 4,0 4,-4 0,-3.333333 0.3333,-4 2,-4 1.3333,0 2,0.666667 2,2 0,1.1 0.3507,2 0.7792,2 0.4286,0 1.428,-0.9 2.2208,-2 0.7928,-1.1 1.7922,-2 2.2208,-2 0.4285,0 0.7792,0.9 0.7792,2 0,1.333333 0.6667,2 2,2 1.1,0 2,0.45 2,1 0,0.555556 2.6667,1 6,1 3.3333,0 6,0.444444 6,1 0,0.55 1.8,1 4,1 l 4,0 0,7 c 0,6.33333 -0.1905,7 -2,7 -1.3333,0 -2,0.66667 -2,2 0,1.70833 0.6667,2 4.5714,2 4.6712,0 7.4286,1.61293 7.4286,4.34524 0,0.81845 0.5625,1.75059 1.25,2.07143 1,0.46666 1,0.7 0,1.16666 -1.6234,0.75758 -1.6234,6.07576 0,6.83334 1,0.46666 1,0.7 0,1.16666 C 629.7674,108.27522 629.5565,112 631,112 c 0.55,0 1,2.25 1,5 0,2.75 -0.45,5 -1,5 -0.55,0 -1,1.8 -1,4 l 0,4 11,0 c 10.3333,0 11,0.12121 11,2 0,1.1 0.45,2 1,2 0.55,0 1,1.35 1,3 0,1.65 0.45,3 1,3 0.5714,0 1,3 1,7 0,6.98755 0.01,7 2.7792,7 1.6321,0 3.3743,-0.82553 4.2208,-2 1.004,-1.39291 2.5887,-2 5.2208,-2 2.0785,0 3.7792,-0.45 3.7792,-1 0,-0.55 0.9,-1 2,-1 1.1,0 2,-0.45 2,-1 0,-0.55 2.25,-1 5,-1 2.75,0 5,-0.45 5,-1 0,-0.55 2.25,-1 5,-1 2.75,0 5,0.45 5,1 0,0.55 1.35,1 3,1 1.65,0 3,0.45 3,1 0,1.7679 3.5112,1.06567 5,-1 0.8465,-1.17447 2.5887,-2 4.2208,-2 1.5285,0 2.7792,-0.45 2.7792,-1 0,-0.55 0.9,-1 2,-1 1.1,0 2,0.45 2,1 0,0.55556 2.6667,1 6,1 3.3333,0 6,0.44444 6,1 0,0.55 2.25,1 5,1 4.3333,0 5,0.26667 5,2 0,1.33333 0.6667,2 2,2 1.1,0 2,0.45 2,1 0,0.55 0.9,1 2,1 1.5556,0 2,0.66667 2,3 0,3.48923 0.9723,3.81332 3,1 0.7928,-1.1 2.2422,-2 3.2208,-2 0.9785,0 1.7792,-0.45 1.7792,-1 0,-0.55 0.9,-1 2,-1 1.1,0 2,0.45 2,1 0,0.55 0.8007,1 1.7792,1 0.9786,0 2.428,0.9 3.2208,2 1.2514,1.73616 2.5887,2 10.1374,2 6.0196,0 8.852,0.38471 9.2031,1.25 0.383,0.94376 0.7895,0.88251 1.6595,-0.25 0.87,-1.13251 1.2765,-1.19376 1.6595,-0.25 0.2789,0.6875 1.3697,1.25 2.4238,1.25 1.7275,0 1.9167,-0.7814 1.9167,-7.91667 0,-5.39616 0.398,-8.07815 1.25,-8.42387 0.9412,-0.3819 0.8795,-0.77303 -0.25,-1.58333 -1.3333,-0.95656 -1.3333,-1.1957 0,-2.15226 1.1295,-0.8103 1.1912,-1.20143 0.25,-1.58333 C 791.8186,137.75973 791.5299,134 792.9167,134 c 0.5041,0 1.1791,0.5625 1.5,1.25 0.4666,1 0.7,1 1.1666,0 0.3209,-0.6875 1.3465,-1.25 2.2793,-1.25 0.9327,0 2.3446,-0.9 3.1374,-2 0.7928,-1.1 2.2422,-2 3.2208,-2 0.9785,0 1.7792,-0.45 1.7792,-1 0,-0.55 -0.45,-1 -1,-1 -0.55,0 -1,-1.8 -1,-4 0,-2.2 0.45,-4 1,-4 0.55,0 1,0.45 1,1 0,0.55 0.45,1 1,1 0.55,0 1,-1.8 1,-4 0,-3.33333 0.3333,-4 2,-4 1.1,0 2,-0.45 2,-1 0,-0.55 1.1571,-1 2.5714,-1 5.1099,0 7.4377,-6.11043 3.4286,-9 -1.1745,-0.84651 -2,-2.58869 -2,-4.22076 0,-2.79782 1.4834,-3.82909 2.2405,-1.55765 0.2604,0.78095 1.3726,0.25627 3.0834,-1.45454 C 825.5603,91.53066 824.4387,84 819.5714,84 818.502,84 818,83.06818 818,81.08333 818,79.47917 817.4415,77.98051 816.7589,77.75298 815.2972,77.26574 818.1175,74 820,74 c 1.6217,0 4,-2.583629 4,-4.345238 0,-0.818452 0.5625,-1.716336 1.25,-1.995298 0.9412,-0.381909 0.8795,-0.773037 -0.25,-1.583333 -1.2659,-0.908185 -1.2833,-1.215762 -0.1114,-1.970829 1.0931,-0.704276 0.5761,-1.707256 -2.4291,-4.7125 -2.2751,-2.275033 -3.9812,-3.327832 -4.222,-2.605302 C 817.4828,59.051441 816,58.013119 816,55.220759 816,53.588691 816.8255,51.84651 818,51 c 2.5706,-1.852758 2.5356,-3.800866 -0.1093,-6.094813 -1.8981,-1.64617 -1.9553,-1.98344 -0.5714,-3.367295 C 818.1651,40.692051 820.0143,40 821.4286,40 823.3333,40 824,39.481481 824,38 824,35.814222 822.4124,35.26267 821.7595,37.221591 821.2285,38.814395 816,33.661511 816,31.545455 816,30.357576 814.8431,30 811,30 c -5.3962,0 -6.136,-0.739726 -3,-3 3.3269,-2.397902 2.3234,-3 -5,-3 -6.3333,0 -7,-0.190476 -7,-2 0,-1.1 0.45,-2 1,-2 0.55,0 1,-0.45 1,-1 0,-0.55 -0.9,-1 -2,-1 -1.1,0 -2,-0.45 -2,-1 0,-0.55 0.45,-1 1,-1 0.55,0 1,-0.8625 1,-1.916667 0,-1.054166 0.5625,-2.117559 1.25,-2.363095 0.7271,-0.259668 0.879,-0.81746 0.3631,-1.333333 C 797.0972,9.871032 796.5394,10.022931 796.2798,10.75 795.2378,13.667527 794,11.631478 794,7 l 0,-5 4,0 c 2.2,0 4,-0.45 4,-1 0,-0.571429 3,-1 7,-1 4,0 7,0.428571 7,1 0,0.55 1.8,1 4,1 2.2,0 4,0.45 4,1 0,0.55 0.8625,1 1.9167,1 1.0541,0 2.1791,0.5625 2.5,1.25 0.4666,1 0.7,1 1.1666,0 0.3209,-0.6875 1.8959,-1.25 3.5,-1.25 2.25,0 2.9167,0.457143 2.9167,2 0,1.1 0.3507,2 0.7792,2 0.4286,0 1.428,-0.9 2.2208,-2 0.8465,-1.17447 2.5887,-2 4.2208,-2 C 844.7493,4 846,3.55 846,3 c 0,-0.583333 3.3333,-1 8,-1 4.6667,0 8,0.416667 8,1 0,0.598495 3.9264,1 9.7792,1 8.6321,0 9.9484,0.234614 11.2208,2 0.7952,1.103239 2.5887,2 4,2 1.4113,0 3.2048,0.896761 4,2 0.7928,1.1 2.0493,2 2.7922,2 C 895.6235,12 898,14.501187 898,16.428571 898,17.333333 898.8485,18 900,18 c 1.1515,0 2,0.666667 2,1.571429 C 902,22.176597 899.3531,24 895.5714,24 892.8144,24 892,24.405711 892,25.779241 c 0,0.978582 0.9,2.427924 2,3.220759 2.0606,1.485199 2.8484,7 1,7 -0.55,0 -1,1.16028 -1,2.578401 0,1.700934 1.3613,3.886295 4,6.421599 4.8735,4.682463 5.2046,7 1,7 -2.3333,0 -3,0.444444 -3,2 0,1.1 0.45,2 1,2 1.4633,0 1.2313,7.739477 -0.25,8.340536 -0.9466,0.384077 -0.8937,0.754769 0.2179,1.527034 1.2388,0.860646 1.0877,1.349587 -0.9679,3.13243 -2.0556,1.782843 -2.2067,2.271784 -0.9679,3.13243 1.1116,0.772265 1.1645,1.142957 0.2179,1.527034 -0.7505,0.304538 -1.25,2.383556 -1.25,5.203106 0,3.54874 0.4886,5.04806 2,6.13743 1.1,0.79284 2,2.14284 2,3 0,0.85716 0.9,2.20716 2,3 1.1,0.79284 2,2.24218 2,3.22076 0,0.97858 0.45,1.77924 1,1.77924 0.5833,0 1,3.33333 1,8 0,7.33333 -0.1667,8 -2,8 -1.1,0 -2,0.45 -2,1 0,0.55 0.9,1 2,1 2.8111,0 2.5516,0.62682 -2.1155,5.11095 l -4.1155,3.95415 2.1155,1.83475 C 901.0382,127.63505 900.6281,130 897,130 c -2.9333,0 -3,0.11111 -3,5 0,2.75 0.45,5 1,5 0.5556,0 1,2.66667 1,6 0,3.33333 0.4444,6 1,6 0.55,0 1,1.8 1,4 0,3.33333 -0.3333,4 -2,4 -1.3333,0 -2,0.66667 -2,2 0,1.1 0.45,2 1,2 0.5926,0 1,3.66667 1,9 0,8.33333 -0.1481,9 -2,9 -1.1,0 -2,0.45 -2,1 0,0.55 0.45,1 1,1 0.55,0 1,0.8625 1,1.91667 0,1.05416 0.5625,2.17916 1.25,2.5 1,0.46666 1,0.7 0,1.16666 C 893.7674,190.27522 893.5565,194 895,194 c 0.55,0 1,0.9 1,2 0,1.33333 -0.6667,2 -2,2 -2.2227,0 -2.6915,1.51062 -0.75,2.41667 1,0.46666 1,0.7 0,1.16666 -0.6875,0.32084 -1.25,1.85834 -1.25,3.41667 0,1.55833 0.5625,3.09583 1.25,3.41667 1,0.46666 1,0.7 0,1.16666 C 891.1648,210.55644 891.7495,214 894,214 c 1.7288,0 2,0.66667 2,4.91667 0,2.99616 0.4883,5.11478 1.25,5.42387 0.9438,0.38294 0.8825,0.7895 -0.25,1.65946 -1.1325,0.86996 -1.1938,1.27652 -0.25,1.65946 1.4813,0.60108 1.6967,4.34054 0.25,4.34054 -0.55,0 -1,0.9 -1,2 0,1.1 0.45,2 1,2 0.55,0 1,1.35 1,3 0,1.65 -0.45,3 -1,3 -0.55,0 -1,0.8625 -1,1.91667 0,1.05416 -0.5625,2.17916 -1.25,2.5 -1,0.46666 -1,0.7 0,1.16666 1.4774,0.68947 1.707,8.41667 0.25,8.41667 -0.55,0 -1,1.35 -1,3 0,1.65 0.45,3 1,3 0.55,0 1,0.9 1,2 0,1.1 0.45,2 1,2 0.55,0 1,0.9 1,2 0,1.1 -0.45,2 -1,2 -0.55,0 -1,0.9 -1,2 0,1.1 0.45,2 1,2 0.55,0 1,1.3125 1,2.91667 0,1.60416 0.5625,3.17916 1.25,3.5 1,0.46666 1,0.7 0,1.16666 C 897.7726,282.2728 897.5431,290 899,290 c 0.55,0 1,1.8 1,4 0,3.33333 0.3333,4 2,4 1.3333,0 2,0.66667 2,2 0,1.15152 0.6667,2 1.5714,2 2.1905,0 5.3217,3.20231 3.6697,3.75298 C 907.7676,306.24412 907.5544,310 909,310 c 0.55,0 1,1.8 1,4 0,2.2 -0.45,4 -1,4 -0.55,0 -1,0.9 -1,2 0,1.33333 0.6667,2 2,2 1.2506,0 2,0.66667 2,1.77924 0,0.97858 0.9,2.42792 2,3.22076 1.1,0.79284 2,2.20468 2,3.13743 0,0.93274 0.5625,1.9584 1.25,2.27924 1,0.46666 1,0.7 0,1.16666 -1.8826,0.87856 -1.6052,6.41667 0.3214,6.41667 1.8443,0 4.4286,2.35017 4.4286,4.02736 0,0.64362 1.35,2.43131 3,3.97264 2.1882,2.04409 3,3.71651 3,6.18045 0,2.23086 0.6792,3.86757 2,4.81955 2.0657,1.48885 2.7679,5 1,5 -0.55,0 -1,0.9 -1,2 0,1.1 -0.45,2 -1,2 -0.55,0 -1,1.60714 -1,3.57143 0,3.51547 1.7953,6.42857 3.9619,6.42857 0.6076,0 2.6648,1.56 4.5714,3.46667 2.9169,2.91685 3.4667,4.17243 3.4667,7.91666 0,2.58223 0.5247,4.69484 1.25,5.03334 1,0.46666 1,0.7 0,1.16666 -0.6879,0.32104 -1.25,2.34445 -1.25,4.5 0,3.25 0.3404,3.91667 2,3.91667 2.2505,0 2.8352,3.44356 0.75,4.41667 -1,0.46666 -1,0.7 0,1.16666 2.5372,1.18403 1.1345,2.41667 -2.75,2.41667 -2.2,0 -4,0.45 -4,1 0,0.55 0.45,1 1,1 0.55,0 1,2.25 1,5 0,2.75 -0.45,5 -1,5 -0.55,0 -1,0.9 -1,2 0,1.1 -0.45,2 -1,2 -0.55,0 -1,1.35 -1,3 0,2.66667 -0.3333,3 -3,3 -1.65,0 -3,0.45 -3,1 0,0.55 0.45,1 1,1 0.55,0 1,0.9 1,2 0,1.33333 -0.6667,2 -2,2 -1.1,0 -2,-0.45 -2,-1 0,-0.55 -0.9,-1 -2,-1 -1.8316,0 -2,0.66667 -2,7.91667 0,5.42736 0.3931,8.05775 1.25,8.36536 0.8479,0.30436 0.5262,1.0927 -1,2.45063 C 919.3348,459.3265 919.174,464 922,464 c 2.5859,0 2.5248,0.79845 -0.25,3.26734 -1.5262,1.35793 -1.8479,2.14627 -1,2.45063 1.4803,0.53137 1.6993,4.28203 0.25,4.28203 -0.55,0 -1,0.9 -1,2 0,1.1 0.45,2 1,2 0.5556,0 1,2.66667 1,6 0,3.33333 -0.4444,6 -1,6 -0.55,0 -1,-0.45 -1,-1 0,-0.55 -0.45,-1 -1,-1 -0.55,0 -1,1.35 -1,3 0,1.65 0.45,3 1,3 0.55,0 1,-0.45 1,-1 0,-0.55 0.45,-1 1,-1 1.4435,0 1.2326,3.72478 -0.25,4.41667 -1,0.46666 -1,0.7 0,1.16666 1.6179,0.75501 1.6179,4.07833 0,4.83334 -1,0.46666 -1,0.7 0,1.16666 1.4774,0.68947 1.707,8.41667 0.25,8.41667 -0.6296,0 -1,6.66667 -1,18 0,11.33333 0.3704,18 1,18 0.55,0 1,0.9 1,2 0,1.1 -0.45,2 -1,2 -0.55,0 -1,2.2125 -1,4.91667 0,2.95555 -0.4986,5.14934 -1.25,5.5 -1,0.46666 -1,0.7 0,1.16666 1.6706,0.7796 1.6784,10.10721 0.01,10.66369 -1.652,0.55067 1.4792,3.75298 3.6696,3.75298 0.9048,0 1.5715,0.84848 1.5715,2 0,1.1 -0.45,2 -1,2 -0.55,0 -1,2.25 -1,5 0,4.88889 0.067,5 3,5 2.3333,0 3,-0.44444 3,-2 0,-1.1 0.45,-2 1,-2 0.55,0 1,0.45 1,1 0,0.55 1.7006,1 3.7792,1 2.6321,0 4.2168,-0.60709 5.2208,-2 0.7928,-1.1 2.2421,-2 3.2207,-2 0.9786,0 1.7793,-0.45 1.7793,-1 0,-0.55 0.8625,-1 1.9166,-1 1.0542,0 2.1792,-0.5625 2.5,-1.25 0.4667,-1 0.7,-1 1.1667,0 0.6895,1.47743 8.4167,1.70695 8.4167,0.25 0,-0.58333 3.3333,-1 8,-1 4.6666,0 8,-0.41667 8,-1 0,-0.55 1.35,-1 3,-1 1.65,0 3,-0.45 3,-1 0,-0.55 1.2506,-1 2.7792,-1 1.6321,0 3.3743,-0.82553 4.2208,-2 0.7928,-1.1 2.2421,-2 3.2207,-2 0.9786,0 1.7793,-0.45 1.7793,-1 0,-0.55 1.35,-1 3,-1 1.65,0 3,-0.45 3,-1 0,-0.55 0.9,-1 2,-1 1.1,0 2,-0.45 2,-1 0,-0.55 0.8007,-1 1.7792,-1 0.9786,0 2.428,-0.9 3.2208,-2 1.004,-1.39291 2.5887,-2 5.2208,-2 2.0785,0 3.7792,-0.45 3.7792,-1 0,-0.55 0.9,-1 2,-1 1.1,0 2,-0.45 2,-1 0,-0.55 0.9,-1 2,-1 1.1,0 2,-0.45 2,-1 0,-0.55 0.9,-1 2,-1 1.1,0 2,-0.45 2,-1 0,-0.55 0.9,-1 2,-1 1.1,0 2,-0.45 2,-1 0,-0.55 0.9,-1 2,-1 1.1,0 2,-0.45 2,-1 0,-1.84843 5.5148,-1.0606 7,1 0.7928,1.1 2.2422,2 3.2208,2 0.9785,0 1.7792,0.45 1.7792,1 0,0.55 0.9,1 2,1 1.1,0 2,0.45 2,1 0,0.55 0.9,1 2,1 1.1,0 2,-0.45 2,-1 0,-1.48524 2.9325,-1.21031 4.5714,0.42857 0.7857,0.78572 1.4286,2.83117 1.4286,4.54546 0,3.84658 3.8818,8.02597 7.4545,8.02597 1.4,0 2.5455,0.45 2.5455,1 0,0.55 -0.45,1 -1,1 -0.55,0 -1,2.25 -1,5 0,4.80063 0.1108,5 2.7792,5 1.6321,0 3.3743,0.82553 4.2208,2 1.1554,1.603 2.5887,2 7.2208,2 3.1861,0 5.7792,0.44869 5.7792,1 0,0.6 4,1 10,1 6,0 10,0.4 10,1 0,0.55 1.8,1 4,1 2.2,0 4,0.45 4,1 0,1.4502 3.7545,1.22996 4.2619,-0.25 0.2708,-0.78989 1.5534,-0.0537 3.4845,2 2.3494,2.4985 3.8882,3.25 6.6548,3.25 4.1636,0 4.4192,0.55386 1.4458,3.1327 l -2.153,1.8673 2.153,1.8673 c 1.9736,1.7117 2.153,2.83658 2.153,13.5 0,7.08847 0.3906,11.6327 1,11.6327 0.55,0 1,0.9 1,2 0,1.1 -0.45,2 -1,2 -0.55,0 -1,2.25 -1,5 0,2.75 -0.45,5 -1,5 -0.55,0 -1,1.8 -1,4 l 0,4 7,0 7,0 0,83 0,83 -574,0 -574.00003,0 0,-18.57143 z M 718.7336,680.40925 c 1.355,-1.35503 1.3815,-1.73677 0.1786,-2.57613 -1.0832,-0.75581 -1.121,-1.10355 -0.1622,-1.49258 0.6875,-0.27897 1.25,-1.36971 1.25,-2.42387 0,-1.05417 0.45,-1.91667 1,-1.91667 0.55,0 1,-1.14545 1,-2.54545 0,-1.4 1.1046,-3.65 2.4546,-5 2.0158,-2.0159 3.4455,-2.45455 8,-2.45455 3.05,0 5.5454,-0.45 5.5454,-1 0,-1.84843 5.5148,-1.0606 7,1 0.7928,1.1 2.2422,2 3.2208,2 1.4091,0 1.7792,-0.8321 1.7792,-4 0,-2.2 0.45,-4 1,-4 1.7679,0 1.0657,-3.51115 -1,-5 -1.1,-0.79284 -2,-2.24218 -2,-3.22076 C 748,646.80066 747.55,646 747,646 c -0.55,0 -1,0.45 -1,1 0,0.55 -0.9,1 -2,1 -1.1,0 -2,0.45 -2,1 0,0.55 -0.45,1 -1,1 -0.55,0 -1,-0.9 -1,-2 0,-1.1 -0.45,-2 -1,-2 -0.55,0 -1,-0.9 -1,-2 0,-1.1 0.45,-2 1,-2 1.6371,0 1.2519,-14.8909 -0.4286,-16.57143 C 735.6834,622.54053 728,624.39058 728,627.97403 728,630.04709 723.11,634 720.5455,634 718.6667,634 718,634.52381 718,636 c 0,1.1 -0.45,2 -1,2 -0.55,0 -1,1.35 -1,3 0,1.65 -0.45,3 -1,3 -0.55,0 -1,0.9 -1,2 0,1.1 0.45,2 1,2 0.55,0 1,1.8 1,4 0,2.2 0.45,4 1,4 0.55,0 1,1.35 1,3 0,1.65 -0.45,3 -1,3 -0.55,0 -1,0.9 -1,2 0,1.33333 -0.6667,2 -2,2 -1.5556,0 -2,0.66667 -2,3 0,1.65 0.45,3 1,3 0.55,0 1,1.35 1,3 0,1.65 -0.45,3 -1,3 -0.55,0 -1,0.9 -1,2 0,2.50525 4.3719,2.77096 6.7336,0.40925 z M 285.079,573.25 c 0.047,-1.04544 0.282,-1.24674 0.5833,-0.5 0.3075,0.76212 2.4234,1.25 5.421,1.25 4.7963,0 4.9167,-0.0734 4.9167,-3 0,-1.65 0.45,-3 1,-3 0.55,0 1,-1.35 1,-3 0,-2.33333 0.4444,-3 2,-3 1.1,0 2,-0.45 2,-1 0,-0.55 -0.9,-1 -2,-1 -1.5556,0 -2,-0.66667 -2,-3 0,-1.65 0.45,-3 1,-3 0.55,0 1,-0.8625 1,-1.91667 0,-1.05416 0.5625,-2.17916 1.25,-2.5 1,-0.46666 1,-0.7 0,-1.16666 C 299.7674,547.72478 299.5565,544 301,544 c 0.5714,0 1,-3 1,-7 0,-4 -0.4286,-7 -1,-7 -0.5714,0 -1,-3 -1,-7 0,-4 -0.4286,-7 -1,-7 -0.5556,0 -1,-2.66667 -1,-6 0,-3.33333 -0.4444,-6 -1,-6 -0.55,0 -1,-0.70714 -1,-1.57143 C 296,499.8234 293.3531,498 289.5714,498 287.6071,498 286,498.35964 286,498.7992 c 0,0.43956 -1.5492,0.61833 -3.4427,0.39728 -4.6287,-0.54037 -8.5573,3.21265 -8.5573,8.17473 0,1.90417 -0.5625,3.72462 -1.25,4.04546 -1,0.46666 -1,0.7 0,1.16666 0.9562,0.44624 1.25,7.14445 1.25,28.5 0,17.94445 0.3572,27.91667 1,27.91667 0.55,0 1,0.69399 1,1.54221 0,2.58817 2.3308,4.37974 5.75,4.41975 2.414,0.0283 3.2703,-0.41211 3.329,-1.71196 z M 714,538 c 0,-1.33333 0.6667,-2 2,-2 1.3333,0 2,0.66667 2,2 0,1.66667 0.6667,2 4,2 3.3333,0 4,-0.33333 4,-2 0,-2.22272 1.5106,-2.69153 2.4167,-0.75 0.4666,1 0.7,1 1.1666,0 0.3209,-0.6875 2.3084,-1.25 4.4167,-1.25 2.1295,0 4.0588,-0.5556 4.3405,-1.25 0.3891,-0.95877 0.7368,-0.92099 1.4926,0.16218 1.759,2.52085 4.1669,-1.14327 4.1669,-6.34075 0,-2.51429 0.45,-4.57143 1,-4.57143 1.4818,0 1.2486,-9.71732 -0.25,-10.41667 -1,-0.46666 -1,-0.7 0,-1.16666 0.6879,-0.32104 1.25,-2.34445 1.25,-4.5 0,-2.15417 0.45,-3.91667 1,-3.91667 0.55,0 1,-0.9 1,-2 0,-1.1 -0.45,-2 -1,-2 -0.6107,0 -1,-4.63889 -1,-11.91667 0,-8.55555 -0.3526,-12.08119 -1.25,-12.5 -1,-0.46666 -1,-0.7 0,-1.16666 C 746.2291,473.7264 746.4522,468 745,468 c -0.6107,0 -1,-4.63889 -1,-11.91667 0,-8.59616 -0.3483,-12.05799 -1.25,-12.42387 -0.9438,-0.38294 -0.8825,-0.7895 0.25,-1.65946 1.1325,-0.86996 1.1938,-1.27652 0.25,-1.65946 -0.7617,-0.30909 -1.25,-2.42771 -1.25,-5.42387 L 742,430 l -7,0 c -4,0 -7,0.42857 -7,1 0,0.55 -1.35,1 -3,1 -1.65,0 -3,0.45 -3,1 0,0.55 -0.6868,1 -1.5263,1 C 718.4892,434 710,442.48922 710,444.47368 710,445.31316 709.55,446 709,446 c -0.6274,0 -1,6.33333 -1,17 0,10.66667 -0.3725,17 -1,17 -0.55,0 -1,1.35 -1,3 0,1.65 0.45,3 1,3 0.55,0 1,0.80066 1,1.77924 0,0.97858 0.9,2.42792 2,3.22076 2.0606,1.4852 2.8484,7 1,7 -0.55,0 -1,1.25066 -1,2.77924 0,1.63207 -0.8255,3.37425 -2,4.22076 -1.3929,1.00395 -2,2.58869 -2,5.22076 0,2.07858 0.45,3.77924 1,3.77924 0.55,0 1,1.8 1,4 0,2.2 -0.45,4 -1,4 -0.55,0 -1,0.9 -1,2 0,1.1 0.45,2 1,2 0.5556,0 1,2.66667 1,6 0,5.33333 0.2222,6 2,6 1.1,0 2,0.45 2,1 0,0.55 0.45,1 1,1 0.55,0 1,-0.9 1,-2 z M 98,535 c 0,-0.55 -0.45,-1 -1,-1 -0.55,0 -1,0.45 -1,1 0,0.55 0.45,1 1,1 0.55,0 1,-0.45 1,-1 z M 418,340.67319 c 0,-0.90541 0.9528,-1.18696 3,-0.8865 1.65,0.24217 3,0.83923 3,1.32681 0,0.48757 0.9,0.8865 2,0.8865 1.1,0 2,-0.45 2,-1 0,-0.55 2.0571,-1 4.5714,-1 6.8207,0 7.4286,-1.09206 7.4286,-13.34524 0,-7.48571 0.3578,-10.61589 1.25,-10.93452 0.7271,-0.25967 0.879,-0.81746 0.3631,-1.33334 -0.5159,-0.51587 -1.0737,-0.36397 -1.3333,0.3631 C 439.1615,317.88103 438,315.46092 438,310 c 0,-3.33333 0.4444,-6 1,-6 0.55,0 1,-0.9 1,-2 0,-1.1 -0.45,-2 -1,-2 -0.55,0 -1,-0.9 -1,-2 0,-1.1 0.45,-2 1,-2 0.55,0 1,-1.35 1,-3 0,-1.65 -0.45,-3 -1,-3 -0.55,0 -1,-1.35 -1,-3 0,-1.65 -0.45,-3 -1,-3 -0.55,0 -1,-0.9 -1,-2 0,-1.33333 -0.6667,-2 -2,-2 -1.1,0 -2,-0.45 -2,-1 0,-0.55 -0.9,-1 -2,-1 -1.1,0 -2,-0.45 -2,-1 0,-0.58889 -3.5238,-1 -8.5714,-1 -10.6914,0 -11.4286,0.60282 -11.4286,9.34524 0,4.2127 -0.4384,6.69267 -1.25,7.07143 -1,0.46666 -1,0.7 0,1.16666 0.8974,0.41881 1.25,3.94445 1.25,12.5 0,7.27778 0.3893,11.91667 1,11.91667 0.55,0 1,2.25 1,5 0,2.75 -0.45,5 -1,5 -0.55,0 -1,0.9 -1,2 0,1.1 0.45,2 1,2 0.55,0 1,1.15714 1,2.57143 0,2.89359 2.068,5.42857 4.4286,5.42857 0.8643,0 1.5714,0.45 1.5714,1 0,0.55 0.45,1 1,1 0.55,0 1,-0.59706 1,-1.32681 z M 682.4167,304.75 c 0.4666,-1 0.7,-1 1.1666,0 0.7064,1.51366 12.4167,1.74943 12.4167,0.25 0,-0.55399 2.6389,-1 5.9167,-1 3.7555,0 6.1297,-0.45657 6.5,-1.25 0.4666,-1 0.7,-1 1.1666,0 0.3209,0.6875 1.4084,1.25 2.4167,1.25 1.0083,0 2.0958,-0.5625 2.4167,-1.25 0.4666,-1 0.7,-1 1.1666,0 0.6903,1.47914 6.4167,1.70224 6.4167,0.25 0,-0.55 0.9,-1 2,-1 1.3333,0 2,0.66667 2,2 0,1.66667 0.6667,2 4,2 3.3333,0 4,-0.33333 4,-2 0,-1.33333 0.6667,-2 2,-2 1.3043,0 2,-0.66667 2,-1.91667 0,-1.05416 0.5625,-2.17916 1.25,-2.5 1,-0.46666 1,-0.7 0,-1.16666 C 738.5625,296.09583 738,295.00833 738,294 c 0,-1.00833 0.5625,-2.06157 1.25,-2.34054 0.9412,-0.3819 0.8795,-0.77303 -0.25,-1.58333 -1.3333,-0.95656 -1.3333,-1.18724 0,-2.07613 1.3333,-0.88889 1.3333,-1.11111 0,-2 -1.3333,-0.88889 -1.3333,-1.11111 0,-2 1.3333,-0.88889 1.3333,-1.11957 0,-2.07613 -1.1295,-0.8103 -1.1912,-1.20143 -0.25,-1.58333 0.6875,-0.27897 1.25,-1.33221 1.25,-2.34054 0,-1.00833 -0.5625,-2.06157 -1.25,-2.34054 -0.9412,-0.3819 -0.8795,-0.77303 0.25,-1.58333 1.3333,-0.95656 1.3333,-1.1957 0,-2.15226 -1.1295,-0.8103 -1.1912,-1.20143 -0.25,-1.58333 C 740.2921,269.71483 740.5325,254 739,254 c -0.55,0 -1,-0.8625 -1,-1.91667 0,-1.05416 -0.5625,-2.11858 -1.25,-2.36536 -0.8356,-0.29995 -0.4533,-1.15638 1.153,-2.58334 L 740.306,245 l -2.403,-2.13463 c -1.6063,-1.42696 -1.9886,-2.28339 -1.153,-2.58334 1.7586,-0.63125 1.5534,-3.12145 -0.4196,-5.09453 -1.2142,-1.2142 -1.7825,-1.33111 -2.0834,-0.42857 C 733.5889,236.73337 732,236.19673 732,234 c 0,-1.30435 -0.6667,-2 -1.9167,-2 -1.0541,0 -2.1449,-0.5625 -2.4238,-1.25 -0.383,-0.94376 -0.7895,-0.88251 -1.6595,0.25 -0.87,1.13251 -1.2765,1.19376 -1.6595,0.25 -0.2844,-0.7009 -2.2277,-1.25 -4.4238,-1.25 -2.1542,0 -3.9167,-0.45 -3.9167,-1 0,-0.55 -2.25,-1 -5,-1 -2.75,0 -5,-0.45 -5,-1 0,-0.55 -1.8,-1 -4,-1 -2.2,0 -4,0.45 -4,1 0,0.57862 -3.1905,1 -7.5714,1 C 682.6429,228 680,229.12232 680,232.42857 680,233.33333 679.1515,234 678,234 c -1.3333,0 -2,0.66667 -2,2 0,1.1 -0.45,2 -1,2 -0.55,0 -1,1.8 -1,4 0,2.2 -0.45,4 -1,4 -1.4818,0 -1.2486,9.71732 0.25,10.41667 1,0.46666 1,0.7 0,1.16666 -0.6875,0.32084 -1.25,2.30834 -1.25,4.41667 0,2.10833 -0.5625,4.09583 -1.25,4.41667 -1,0.46666 -1,0.7 0,1.16666 1.4774,0.68947 1.707,8.41667 0.25,8.41667 -0.55,0 -1,1.35 -1,3 0,1.65 0.45,3 1,3 0.5556,0 1,2.66667 1,6 0,3.33333 0.4444,6 1,6 0.55,0 1,1.59108 1,3.53573 0,5.50167 6.5828,11.14404 8.4167,7.21427 z"
     id="path2987"
     inkscape:connector-curvature="0" />
</svg>
