<?xml version="1.0" encoding="UTF-8" standalone="no"?>
<!-- Created with Inkscape (http://www.inkscape.org/) -->

<svg
   xmlns:dc="http://purl.org/dc/elements/1.1/"
   xmlns:cc="http://creativecommons.org/ns#"
   xmlns:rdf="http://www.w3.org/1999/02/22-rdf-syntax-ns#"
   xmlns:svg="http://www.w3.org/2000/svg"
   xmlns="http://www.w3.org/2000/svg"
   xmlns:sodipodi="http://sodipodi.sourceforge.net/DTD/sodipodi-0.dtd"
   xmlns:inkscape="http://www.inkscape.org/namespaces/inkscape"
   id="svg2"
   version="1.1"
   inkscape:version="0.48.2 r9819"
   width="562.5603"
   height="543.48871"
   sodipodi:docname="secretsofgreatmy00oudirich_00733c.png">
  <metadata
     id="metadata8">
    <rdf:RDF>
      <cc:Work
         rdf:about="">
        <dc:format>image/svg+xml</dc:format>
        <dc:type
           rdf:resource="http://purl.org/dc/dcmitype/StillImage" />
        <dc:title></dc:title>
      </cc:Work>
    </rdf:RDF>
  </metadata>
  <defs
     id="defs6" />
  <sodipodi:namedview
     pagecolor="#ffffff"
     bordercolor="#666666"
     borderopacity="1"
     objecttolerance="10"
     gridtolerance="10"
     guidetolerance="10"
     inkscape:pageopacity="0"
     inkscape:pageshadow="2"
     inkscape:window-width="1600"
     inkscape:window-height="876"
     id="namedview4"
     showgrid="false"
     fit-margin-top="0"
     fit-margin-left="0"
     fit-margin-right="0"
     fit-margin-bottom="0"
     inkscape:zoom="1"
     inkscape:cx="230.39292"
     inkscape:cy="299.36591"
     inkscape:window-x="0"
     inkscape:window-y="24"
     inkscape:window-maximized="1"
     inkscape:current-layer="svg2" />
  <path
     style="fill:#000000"
     d="m 156.39292,541.66515 c -4.675,-0.97572 -11.36823,-2.53616 -14.87384,-3.46765 -3.50561,-0.9315 -6.99311,-1.45599 -7.75,-1.16554 -0.75689,0.29044 -1.37616,0.14106 -1.37616,-0.33196 0,-1.0738 -7.85334,-4.28587 -8.89887,-3.63969 -0.42186,0.26072 -2.39333,-0.63105 -4.38103,-1.98173 -1.98769,-1.35067 -4.04698,-2.45577 -4.5762,-2.45577 -2.01264,0 -30.946213,-15.12414 -32.750703,-17.11943 -1.04126,-1.15137 -3.6932,-2.99254 -5.8932,-4.0915 -2.2,-1.09896 -6.51562,-3.94946 -9.59027,-6.33445 -3.07464,-2.38498 -6.78714,-4.63673 -8.25,-5.00389 -1.46285,-0.36715 -2.65973,-1.05989 -2.65973,-1.53943 0,-0.47954 -3.09193,-3.91826 -6.87096,-7.64159 -3.77902,-3.72334 -9.47855,-9.91971 -12.66561,-13.76971 -3.18707,-3.85 -7.11858,-8.35 -8.7367,-10 -6.08781,-6.20777 -14.49258,-20.35861 -19.6000703,-33 -1.77772,-4.4 -3.59827,-8.9 -4.04565,-10 -0.44738,-1.1 -1.43613,-3.30622 -2.19721,-4.90271 -1.70805003,-3.58286 -1.69987003,-26.18122 0.0101,-27.89118 0.60836,-0.60836 1.10611,-1.96326 1.10611,-3.01088 0,-1.04763 1.04992,-3.99513 2.33316,-6.55 1.28324,-2.55488 2.29574,-4.95183 2.25,-5.32657 -0.0457,-0.37474 1.96359,-3.07474 4.4651803,-6 2.50159,-2.92526 5.62014,-7.11866 6.93013,-9.31866 2.12068,-3.56151 5.55852,-8.34592 11.9635,-16.64951 1.87978,-2.43699 1.92445,-2.87813 0.55702,-5.5 -1.68013,-3.22143 -1.97273,-10.97426 -0.55491,-14.70341 0.89767,-2.36105 0.14639,-6.38022 -2.01569,-10.78354 -0.99849,-2.03352 -3.22314,-25.5776 -2.52373,-26.70928 0.28075,-0.45426 0.58256,-4.61231 0.67068,-9.2401 0.0881,-4.62779 0.57498,-8.93167 1.0819,-9.56417 0.50693,-0.63251 1.38098,-4.00197 1.94234,-7.48769 0.56136,-3.48572 1.73834,-7.13071 2.61552,-8.09999 0.97614,-1.07862 1.14679,-1.76231 0.43988,-1.76231 -0.63525,0 -1.15499,-0.47656 -1.15499,-1.05902 0,-0.58246 0.43681,-0.78905 0.97068,-0.4591 0.53388,0.32995 1.27679,-0.65599 1.65093,-2.19098 1.14996,-4.71811 5.48941,-13.59913 8.53443,-17.46641 1.59171,-2.02153 2.47727,-3.93308 1.96791,-4.24788 -0.50936,-0.31481 -0.93953,-2.03583 -0.95593,-3.82449 -0.0164,-1.78867 -0.63095,-7.5534 -1.36569,-12.81051 -2.10004,-15.02608 -0.91895,-36.80808 2.7125,-50.02461 0.81862,-2.97935 2.20854,-8.117 3.08871,-11.417 0.88017,-3.3 2.49946,-8.11333 3.59842,-10.69629 1.89056,-4.4435 1.90909,-4.87411 0.34424,-8 -2.10569,-4.20624 -8.07328,-24.652029 -9.45489,-32.393789 -0.58009,-3.25046 -1.05544,-8.38492 -1.05635,-11.40992 -9.1e-4,-3.025 -0.11618,-6.175 -0.25616,-7 -0.4376,-2.57908 1.26988,-13.912055 2.18089,-14.475086 0.47699,-0.2948 1.87413,-2.671005 3.10474,-5.280457 1.23061,-2.609451 3.02468,-5.644457 3.98682,-6.744457 0.96214,-1.1 2.46484,-4.831773 3.33933,-8.292828 2.40679,-9.525587 5.85456,-16.158703 11.38113,-21.896014 C 74.318317,7.4312213 85.727137,1.8603303 99.392917,0.22039127 114.11009,-1.5457177 133.66591,7.4870373 143.73431,20.701502 c 2.81499,3.694583 6.35445,10.123837 7.11349,12.921309 0.0746,0.275 0.77521,2.910677 1.55688,5.85706 1.47948,5.576666 4.21372,7.840249 8.20856,6.795575 0.97883,-0.255968 1.77968,-0.05753 1.77968,0.440985 0,0.498509 0.675,0.90638 1.5,0.90638 0.825,0 1.5,0.395406 1.5,0.87868 0,0.483273 1.44224,1.476076 3.20498,2.206226 9.53589,3.949892 36.31534,27.536304 40.2637,35.462854 2.81986,5.66102 6.09696,9.422 10.8669,12.47143 4.28706,2.740709 12.30308,10.562719 15.3524,14.980809 0.94902,1.375 2.98245,3.77212 4.51875,5.32692 1.5363,1.55481 2.79327,3.27234 2.79327,3.81672 0,0.54439 1.125,2.46475 2.5,4.26747 1.375,1.80272 2.5,3.58083 2.5,3.95135 0,0.37052 1.69861,3.47805 3.77469,6.90561 6.83119,11.27813 12.18207,23.3042 12.21025,27.4425 0.008,1.21582 0.7174,2.79082 1.57582,3.5 6.69393,5.53023 16.41814,16.32128 18.87302,20.9436 0.68523,1.29021 3.49372,6.17083 6.2411,10.84583 2.74738,4.675 6.47256,12.21876 8.27819,16.76392 1.80563,4.54515 3.67985,8.50921 4.16494,8.80902 0.4851,0.2998 0.88199,1.58844 0.88199,2.86363 0,5.06144 2.15739,4.60359 12,-2.54672 5.225,-3.79577 14.225,-9.23856 20,-12.0951 5.775,-2.85653 11.625,-5.92937 13,-6.82854 3.25706,-2.12991 10.09168,-4.77766 14.20158,-5.50172 1.79116,-0.31556 5.29105,-1.19234 7.77753,-1.9484 6.3683,-1.9364 21.39507,-2.93484 43.52089,-2.89172 15.17129,0.0296 21.51889,0.48848 31.5,2.27731 19.87426,3.56191 36.56239,8.63799 47.46375,14.43718 l 8.19837,4.3613 2.16485,-2.43044 c 1.78822,-2.0076 2.73097,-2.3101 5.41894,-1.73878 1.78975,0.38041 4.02346,1.3699 4.9638,2.19888 1.17631,1.037 2.58021,1.27969 4.5,0.77789 1.53466,-0.40113 5.26529,-1.08306 8.29029,-1.51539 3.025,-0.43234 6.625,-1.08605 8,-1.4527 1.375,-0.36665 6.4536,-0.86887 11.2858,-1.11604 8.3736,-0.42832 8.8949,-0.33168 11.1115,2.0601 3.312,3.57368 4.1223,10.40565 4.3905,37.01632 0.1274,12.65 0.49,26.6 0.8057,31 l 0.5739,8 -3.3374,3.20747 c -3.2462,3.11978 -10.2444,6.29253 -13.8796,6.29253 -1.55714,0 -1.84516,1.10558 -2.1492,8.25 -0.1931,4.5375 0.018,9.34532 0.46907,10.68404 0.94613,2.8078 -0.15801,29.06853 -1.28513,30.56596 -0.41398,0.55 -0.73329,3.475 -0.70957,6.5 0.0358,4.57043 -0.5882,6.59858 -3.69232,12 -4.41206,7.67735 -6.41418,9.95407 -13.03825,14.82655 -7.58379,5.57842 -25.80241,15.17345 -28.81069,15.17345 -0.76167,0 -5.85099,1.31839 -11.30959,2.92975 -14.5769,4.30307 -38.48162,8.44292 -57.42472,9.94489 -10.79728,0.85611 -38.00375,-0.28084 -45.5,-1.90142 -2.75,-0.59451 -6.8,-1.3208 -9,-1.61398 -4.76591,-0.63512 -26.1305,-5.86887 -32.5,-7.96163 -8.41265,-2.76406 -20.38993,-8.65749 -28.2159,-13.88367 -6.14582,-4.10417 -14.7841,-11.56126 -14.7841,-12.76254 0,-0.51846 -0.84122,-2.13713 -1.86938,-3.59703 -3.9577,-5.61961 -5.49264,-17.05183 -5.56397,-41.44047 -0.0699,-23.91059 -0.20816,-24.65452 -4.58881,-24.69859 -4.01133,-0.0403 -12.97784,-10.92841 -12.97784,-15.75904 0,-0.92518 -2.3625,-3.99451 -5.25,-6.82073 -2.8875,-2.82623 -6.375,-6.82586 -7.75,-8.88807 -1.375,-2.06221 -3.2875,-4.60402 -4.25,-5.64847 -0.9625,-1.04445 -1.75,-2.3115 -1.75,-2.81567 0,-0.50416 -0.3375,-1.06666 -0.75,-1.25 -1.01778,-0.45234 -10.81432,-20.11107 -10.5,-21.07035 0.1375,-0.41964 -0.10681,-0.76298 -0.54291,-0.76298 -0.43611,0 -1.62035,-2.5875 -2.63166,-5.75 -1.01131,-3.1625 -2.41401,-7.55 -3.11711,-9.75 -0.7031,-2.2 -2.05122,-7.9375 -2.99583,-12.75 -1.16114,-5.91568 -2.16205,-8.75 -3.08998,-8.75 -0.75488,0 -1.37251,-0.45585 -1.37251,-1.013 0,-0.55715 -2.025,-1.99681 -4.5,-3.19926 -2.475,-1.20245 -4.5,-2.70684 -4.5,-3.3431 0,-0.63626 -3.26259,-4.25909 -7.25019,-8.05073 -6.68307,-6.35466 -11.74981,-12.37713 -11.74981,-13.96618 0,-0.35929 -2.025,-3.3471 -4.5,-6.63957 -2.475,-3.29248 -4.51829,-6.50424 -4.54064,-7.13724 -0.0224,-0.63301 -1.37235,-2.70892 -3,-4.61315 -1.62765,-1.90422 -2.95936,-4.04662 -2.95936,-4.76089 0,-0.71427 -0.84345,-3.20627 -1.87433,-5.53778 -1.94281,-4.39398 -5.12567,-14.26849 -5.12567,-15.9019 0,-1.40152 -5.27995,-5.76942 -7.01787,-5.8056 -0.83482,-0.0174 -3.17345,-1.1566 -5.19694,-2.5316 -2.0235,-1.375 -3.93899,-2.5 -4.25665,-2.5 -0.58033,0 -10.57247,-6.03925 -18.02673,-10.89536 -2.199,-1.43255 -6.26065,-4.99172 -9.02587,-7.909259 -3.64133,-3.84189 -5.50311,-5.12218 -6.75182,-4.64301 -0.94826,0.36388 -1.72412,1.06346 -1.72412,1.55462 0,0.49115 -0.8625,0.89301 -1.91667,0.89301 -1.05416,0 -2.09142,0.52427 -2.30501,1.16505 -0.21359,0.64077 -1.48859,1.268099 -2.83334,1.394049 -1.34474,0.12596 -4.80748,0.56437 -7.69498,0.97425 l -5.25,0.74523 0,4.65753 c 0,5.48571 -3.64192,22.9275 -5.17242,24.77165 -0.76141,0.91744 -0.62896,2.20016 0.46834,4.53572 1.51348,3.22138 4.31975,12.24974 5.24321,16.86852 0.2626,1.3134 0.69831,3.513 0.96825,4.888 1.47455,7.5109 0.38977,23.9485 -2.50775,38 -2.93377,14.22731 -6.855453,23.38061 -13.189563,30.7848 -3.29378,3.85022 -3.1972,2.80586 -1.33866,14.47597 0.80928,5.08157 1.53749,12.16423 1.61825,15.73923 0.14673,6.49498 -1.32689,21.11269 -2.66641,26.44979 -0.69343,2.76285 -0.63302,2.81231 2.68367,2.19706 1.86619,-0.34619 7.21808,0.0607 11.893083,0.90413 4.675,0.84345 10.61998,1.75805 13.21107,2.03244 2.59109,0.27439 8.85373,1.83037 13.91699,3.45774 5.06325,1.62736 9.87451,2.95884 10.69168,2.95884 1.52329,0 21.40006,7.56439 28.81922,10.96756 2.27642,1.0442 5.66587,3.2392 7.53211,4.87778 1.86623,1.63857 5.47191,4.08451 8.01262,5.43542 6.78872,3.6096 17.15022,12.80167 36.81631,32.66113 15.1911,15.34047 18.14427,18.85199 22.38314,26.61509 2.68573,4.91866 5.68211,9.84302 6.65862,10.94302 1.73218,1.95123 9.95824,20.29307 9.95824,22.20412 0,0.52863 1.80314,2.41019 4.00697,4.18124 3.21974,2.58745 3.82113,3.56732 3.06107,4.98751 -0.81769,1.52786 0.36737,2.38831 8.74303,6.34824 6.47904,3.06323 10.45107,5.61674 11.98943,7.70767 1.26527,1.71976 2.65443,2.90809 3.08703,2.64073 1.19723,-0.73993 5.11247,2.34406 5.11247,4.02703 0,1.71909 -3.41453,8.66984 -5.49405,11.18391 -0.78228,0.94575 -4.92865,6.3815 -9.21414,12.07943 -4.2855,5.69794 -9.0323,11.99794 -10.54846,14 -1.51616,2.00207 -3.03115,4.42762 -3.36664,5.39012 -0.33548,0.9625 -0.93597,1.75 -1.33441,1.75 -0.39844,0 -1.92619,2.20801 -3.395,4.90669 -3.51539,6.45893 -7.93559,11.09331 -10.58063,11.09331 -1.172,0 -3.73032,0.66828 -5.68516,1.48506 -3.11636,1.3021 -3.73415,1.30515 -5.01452,0.0248 -2.3508,-2.35079 -8.39859,-4.88482 -9.31139,-3.90148 -0.45523,0.4904 -5.89182,7.64164 -12.08131,15.89164 -6.1895,8.25 -13.4461,16.88567 -16.12578,19.19038 -2.67967,2.30472 -5.57691,4.89516 -6.4383,5.75655 -6.20489,6.20489 -25.7733,8.2764 -43.41021,4.59541 z m 91,-73.14844 c 0,-0.60835 1.43033,-2.97085 3.17852,-5.25 l 3.17851,-4.1439 -4.01185,3.7902 c -3.68262,3.47917 -5.21301,6.7098 -3.17851,6.7098 0.45833,0 0.83333,-0.49774 0.83333,-1.1061 z m 14,-10.56057 c 0,-0.73333 -0.45,-1.33333 -1,-1.33333 -1.57272,0 -1.16848,-4.81323 0.63546,-7.56639 2.49576,-3.80901 0.97491,-3.94815 -1.62833,-0.14897 -1.91259,2.79125 -2.81991,3.28705 -5.61285,3.06709 -1.83231,-0.1443 -3.57921,0.13847 -3.88199,0.62839 -0.94512,1.52922 3.89923,5.54359 6.27552,5.20033 1.21671,-0.17575 2.21219,0.0867 2.21219,0.58333 0,0.49659 0.675,0.90289 1.5,0.90289 0.825,0 1.5,-0.6 1.5,-1.33334 z m 2.66667,-13.78934 c 0,-0.80081 -0.38234,-1.21971 -0.84965,-0.9309 -0.4673,0.28881 -0.59075,0.94401 -0.27431,1.45601 0.80862,1.30838 1.12396,1.16106 1.12396,-0.52511 z m -91.47904,-3.29399 c -5.3565,-6.7396 -26.40647,-25.83703 -37.20064,-33.75 -2.25078,-1.65 -5.53113,-4.1532 -7.28966,-5.56266 -1.75853,-1.40946 -5.44733,-3.84551 -8.19733,-5.41343 -2.75,-1.56793 -5.225,-3.16678 -5.5,-3.55301 -0.275,-0.38623 -2.525,-1.72453 -5,-2.97401 -2.475,-1.24948 -5.57319,-3.10994 -6.88486,-4.13434 -2.610033,-2.03841 -5.493063,-2.4963 -4.921513,-0.78165 0.85225,2.55674 8.475743,10.79471 10.265383,11.0928 1.07745,0.17947 2.20245,1.22894 2.5,2.33216 0.84068,3.11703 9.10161,13.48947 12.63289,15.86188 1.74559,1.17274 6.84828,4.98155 11.3393,8.46401 6.89644,5.34768 37.37241,22.05001 40.40283,22.14273 0.45872,0.014 -0.50716,-1.66198 -2.1464,-3.72448 z m 264.81237,-131.4421 c 5.225,-1.12092 11.48983,-2.68217 13.92184,-3.46945 4.36241,-1.41216 8.05185,-3.17634 7.07816,-3.38455 -0.275,-0.0588 -1.4,-0.271 -2.5,-0.47153 -1.1,-0.20054 -4.925,-0.92101 -8.5,-1.60104 -10.94975,-2.08284 -37.93634,-1.48793 -56.5,1.24554 -3.85,0.5669 -8.97343,1.25732 -11.3854,1.53425 -2.41198,0.27693 -5.26811,0.83004 -6.34696,1.22913 -1.63682,0.6055 -1.32469,0.91037 1.8854,1.84151 5.85175,1.69741 18.53905,3.28833 31.63343,3.96666 6.48256,0.33582 11.99514,0.94822 12.25019,1.3609 0.61635,0.99727 6.88088,0.23337 18.46334,-2.25142 z M 49.516777,293.39138 c 1.10533,-2.06533 1.28565,-2.07132 15.74372,-0.52224 1.56537,0.16772 3.0246,-0.61522 4.30665,-2.3107 1.80398,-2.3857 2.20188,-4.44067 3.34054,-17.25241 0.23545,-2.64922 0.88844,-6.47422 1.45109,-8.5 1.31716,-4.74237 1.33418,-20.26385 0.026,-23.70464 -0.92233,-2.42591 -1.33948,-2.59565 -4.9005,-1.99401 -2.92511,0.49419 -4.90117,0.14294 -7.95202,-1.41348 -4.53752,-2.31487 -6.13934,-2.57818 -6.13934,-1.00916 0,0.58405 -1.14369,3.47948 -2.54153,6.43427 -5.9546,12.58699 -10.0643,38.42708 -7.92512,49.82987 0.72437,3.86123 2.66095,4.0479 4.59051,0.4425 z M 533.59292,264.12281 c 0,-1.99833 -0.27,-3.90333 -0.6,-4.23333 -0.33,-0.33 -0.6,1.575 -0.6,4.23333 0,2.65833 0.27,4.56333 0.6,4.23333 0.33,-0.33 0.6,-2.235 0.6,-4.23333 z m -256.2,-0.6327 c 0,-1.70617 3.77863,-4.63914 7.60265,-5.90118 1.86854,-0.61667 3.39735,-1.5222 3.39735,-2.01229 0,-0.49008 0.74235,-0.60619 1.64968,-0.25802 1.39644,0.53587 1.52975,0.18567 0.86841,-2.28139 -0.42969,-1.60293 -1.12002,-4.48942 -1.53406,-6.41442 -0.8497,-3.95056 -3.48415,-11.54096 -6.07383,-17.5 -4.79935,-11.04362 -6.43298,-14.63708 -10.02036,-22.04149 -2.14283,-4.42282 -5.18651,-9.58725 -6.76373,-11.47652 l -2.86769,-3.43503 -0.66165,3.01245 c -0.86356,3.93175 -7.74275,11.44059 -10.48125,11.44059 -1.75061,0 -2.11552,0.60303 -2.11552,3.49602 0,3.73694 3.13918,14.20793 5.62949,18.77764 0.83134,1.52551 1.69386,3.77913 1.91671,5.00805 0.52885,2.91644 9.14365,19.00826 11.57091,21.61362 1.03559,1.11157 1.88289,2.28308 1.88289,2.60335 0,0.32027 0.98463,1.91408 2.18806,3.54181 2.26074,3.05782 3.81194,3.80121 3.81194,1.82681 z m 256.27154,-6.79769 c 0.401,-1.53342 1.14473,-1.82953 3.61664,-1.43995 1.7115,0.26973 3.11182,0.0607 3.11182,-0.46458 0,-1.71655 -8.31488,-1.87891 -11.24368,-0.21955 -3.47177,1.96698 -3.47337,2.813 -0.006,3.33822 1.5125,0.22912 3.03502,0.48401 3.38337,0.56642 0.34835,0.0824 0.86053,-0.71884 1.13817,-1.78056 z m -0.58221,-14.81961 c -0.25153,-0.9625 -0.45733,-0.175 -0.45733,1.75 0,1.925 0.2058,2.7125 0.45733,1.75 0.25152,-0.9625 0.25152,-2.5375 0,-3.5 z m -449.389173,-37 c 1.98855,-4.2625 4.37085,-11.35 5.29398,-15.75 1.93185,-9.20783 2.38131,-31.61217 0.67584,-33.68769 -0.59309,-0.72177 -1.23396,-2.43731 -1.42416,-3.81231 -0.31412,-2.27086 -0.89575,-2.5538 -6.34582,-3.08702 -3.3,-0.32285 -7.89457,-1.56035 -10.21016,-2.75 -2.31559,-1.18964 -4.56824,-2.16298 -5.00589,-2.16298 -1.58394,0 -4.43877,9.59922 -5.71711,19.22348 -0.16631,1.25208 -0.55183,2.95152 -0.8567,3.77652 -2.22753,6.02779 -2.45605,31.97676 -0.34346,39 l 1.35361,4.5 5.40357,0.0681 c 2.97196,0.0374 6.2974,0.58626 7.38986,1.21959 4.4975,2.60735 5.98307,1.61494 9.78644,-6.53767 z M 236.93623,176.08436 c 0.89394,-1.67114 3.11694,-4.0605 4.93999,-5.30968 4.09382,-2.80512 4.7882,-5.16105 2.60092,-8.82451 -0.92844,-1.55505 -2.29364,-4.40236 -3.03377,-6.32736 -1.24112,-3.22803 -7.73422,-13.84507 -9.17359,-15 -0.34273,-0.275 -1.69273,-2.07917 -3,-4.00926 -4.32668,-6.38804 -11.35356,-14.84277 -12.8681,-15.48287 -0.8634,-0.3649 -2.13622,0.16626 -3.02318,1.26161 -2.23694,2.7625 -10.36452,5.60473 -13.96692,4.88425 -2.70868,-0.54173 -3.01866,-0.3492 -3.01866,1.8749 0,2.20314 6.46177,15.54664 9.42927,19.47137 0.62379,0.825 2.20777,3.4954 3.51997,5.93422 2.22063,4.12723 3.95868,6.59924 6.64282,9.44801 0.60064,0.63747 1.6682,2.27476 2.37236,3.63841 1.35772,2.62932 3.34703,4.91134 10.17459,11.67174 4.73662,4.69002 4.01983,4.96557 8.4043,-3.23083 z M 87.515657,114.54867 c 0.37284,-1.33422 0.71818,-5.12586 0.76741,-8.42586 0.0893,-5.98718 0.0815,-6.00367 -3.65032,-7.718479 -9.94019,-4.56759 -18.01574,-11.1215 -24.24677,-19.67804 -2.41716,-3.31928 -4.56176,-5.86811 -4.76579,-5.66408 -0.20403,0.20403 0.31074,2.37887 1.14393,4.83298 0.83319,2.4541 2.20164,8.39643 3.04099,13.20517 0.83934,4.80873 1.9313,9.255989 2.42656,9.882799 0.49526,0.62681 1.22272,2.9241 1.61659,5.10509 0.39387,2.181 1.3641,5.2185 2.15607,6.75 1.35193,2.61434 1.851,2.78886 8.16427,2.85485 3.69838,0.0387 7.62432,0.45526 8.72432,0.92578 2.7976,1.19668 3.8403,0.72973 4.62274,-2.07021 z m 88.877263,-7.92586 c -1.21296,-0.78387 -1.06944,-0.9723 0.75,-0.98469 1.2375,-0.008 2.25,-0.4486 2.25,-0.97818 0,-1.66777 8.31881,-9.037129 10.20145,-9.037129 0.9892,0 1.79855,-0.48777 1.79855,-1.08393 0,-1.57474 -14.16426,-14.99704 -18.91403,-17.92326 -2.22544,-1.37105 -4.27759,-3.17658 -4.56034,-4.0123 -0.51241,-1.51454 -2.99064,-2.97068 -11.52563,-6.77211 -4.98851,-2.221856 -5.77846,-1.703425 -5.92971,3.89156 -0.0387,1.42998 -1.33248,4.35498 -2.87516,6.5 -1.54268,2.14502 -3.13072,4.44066 -3.52897,5.10141 -0.72045,1.19534 7.34767,9.79376 14.10585,15.03299 4.32798,3.35522 17.45949,11.231939 18.72799,11.233659 0.55,7.4e-4 0.325,-0.43486 -0.5,-0.96802 z M 109.20817,79.578671 c 5.79337,-1.33617 9.54204,-3.82043 8.20176,-5.43536 -0.55987,-0.67461 -1.2774,-5.2302 -1.59451,-10.123533 l -0.57655,-8.896967 4.15483,-4.75 c 2.28516,-2.6125 4.76552,-4.75 5.51193,-4.75 0.7464,0 2.47673,-0.425685 3.84517,-0.945967 2.35416,-0.895048 2.42645,-1.146791 1.34305,-4.67682 -0.69568,-2.266752 -3.41547,-5.973279 -6.93062,-9.445053 -4.87778,-4.817594 -6.79948,-5.98865 -12.2473,-7.463305 -7.45558,-2.018131 -13.214953,-1.570283 -20.091413,1.562305 -5.79345,2.639223 -11.75698,8.027418 -13.91287,12.570623 -1.60316,3.378405 -1.59586,3.623756 0.1472,4.9447 1.00874,0.764451 2.34421,1.404222 2.96771,1.421714 1.46934,0.04122 7.82282,7.080038 9.74385,10.794899 0.81985,1.585413 2.12358,3.407869 2.89719,4.049902 0.7736,0.642032 3.39072,5.896758 5.81583,11.677172 2.425113,5.7804 4.859333,10.49883 5.409393,10.48538 0.55005,-0.0134 2.94196,-0.4723 5.31535,-1.01969 z m -27.815253,-8.89684 c 0,-0.51754 -0.45421,-1.2217 -1.00935,-1.5648 -0.55515,-0.3431 -1.9264,-2.282157 -3.04724,-4.309018 -1.98157,-3.583377 -2.02158,-3.602309 -1.448,-0.685202 0.32443,1.65 1.45155,3.73164 2.50471,4.62586 1.05315,0.89422 1.63397,1.90672 1.29069,2.25 -0.34328,0.34328 -0.09914,0.62414 0.54252,0.62414 0.64167,0 1.16667,-0.42344 1.16667,-0.94098 z"
     id="path2987"
     inkscape:connector-curvature="0" />
</svg>
