<?xml version="1.0" encoding="UTF-8" standalone="no"?>
<!-- Created with Inkscape (http://www.inkscape.org/) -->

<svg
   xmlns:dc="http://purl.org/dc/elements/1.1/"
   xmlns:cc="http://creativecommons.org/ns#"
   xmlns:rdf="http://www.w3.org/1999/02/22-rdf-syntax-ns#"
   xmlns:svg="http://www.w3.org/2000/svg"
   xmlns="http://www.w3.org/2000/svg"
   xmlns:sodipodi="http://sodipodi.sourceforge.net/DTD/sodipodi-0.dtd"
   xmlns:inkscape="http://www.inkscape.org/namespaces/inkscape"
   id="svg2"
   version="1.1"
   inkscape:version="0.48.2 r9819"
   width="954.96362"
   height="965.7171"
   sodipodi:docname="houseswelivein00carprich_0023c.png">
  <metadata
     id="metadata8">
    <rdf:RDF>
      <cc:Work
         rdf:about="">
        <dc:format>image/svg+xml</dc:format>
        <dc:type
           rdf:resource="http://purl.org/dc/dcmitype/StillImage" />
        <dc:title></dc:title>
      </cc:Work>
    </rdf:RDF>
  </metadata>
  <defs
     id="defs6" />
  <sodipodi:namedview
     pagecolor="#ffffff"
     bordercolor="#666666"
     borderopacity="1"
     objecttolerance="10"
     gridtolerance="10"
     guidetolerance="10"
     inkscape:pageopacity="0"
     inkscape:pageshadow="2"
     inkscape:window-width="1600"
     inkscape:window-height="876"
     id="namedview4"
     showgrid="false"
     fit-margin-top="0"
     fit-margin-left="0"
     fit-margin-right="0"
     fit-margin-bottom="0"
     inkscape:zoom="0.70710678"
     inkscape:cx="229.08897"
     inkscape:cy="429.93214"
     inkscape:window-x="0"
     inkscape:window-y="24"
     inkscape:window-maximized="1"
     inkscape:current-layer="svg2" />
  <path
     style="fill:#000000"
     d="m 441.54776,963.91477 c 0.52019,-1.6389 0.25713,-2.131 -1.1414,-2.1351 -0.99957,0 -2.98405,-0.7904 -4.40996,-1.75 -9.64323,-6.4896 -6.22816,-5.9139 -39.80855,-6.7104 l -30.80773,-0.7306 -5.89558,2.6659 c -3.24256,1.4663 -7.02057,3.2675 -8.39557,4.0027 -4.54179,2.4285 -11.38767,2.8957 -15.00678,1.0242 -1.97503,-1.0213 -4.38302,-1.4685 -6.07993,-1.1292 -1.88672,0.3774 -5.20833,-0.4434 -10.1115,-2.4985 -14.83533,-6.218 -20.53764,-6.9395 -54.38564,-6.8815 -22.59069,0.039 -26.77611,0.2885 -31.25308,1.8651 -2.84309,1.0013 -5.46786,2.1191 -5.83282,2.484 -0.36497,0.365 -2.01565,0.6636 -3.66818,0.6636 -1.65252,0 -3.79527,0.7156 -4.76167,1.5901 -1.99737,1.8076 -5.9004,1.081 -5.9004,-1.0985 0,-1.8077 -0.89342,-2.2928 -7.73799,-4.202 -3.6982,-1.0316 -10.06013,-1.6399 -17.76201,-1.6984 -11.83551,-0.09 -12.08782,-0.044 -18.40667,3.3417 -4.7857,2.5643 -7.69534,3.4498 -11.5,3.5 l -5.09333,0.067 0.14694,-3.2453 c 0.0808,-1.7849 -0.15441,-3.0591 -0.52272,-2.8315 -0.36831,0.2277 -3.34797,-0.8995 -6.62148,-2.5047 -6.40979,-3.1431 -12.76446,-3.7056 -21.50274,-1.9033 -6.47937,1.3364 -42,-0.9071 -42,-2.6528 0,-1.93784 -7.47526,-3.57556 -17.01232,-3.72712 -7.22927,-0.11489 -8.91256,0.17811 -11.16767,1.94388 -3.84064,3.00724 -18.62415,3.39974 -21.19172,0.56264 -1.43066,-1.5809 -2.36314,-1.76114 -5.42786,-1.04917 -2.03523,0.47281 -7.42187,0.87039 -11.9703,0.88351 -7.15767,0.0207 -8.81114,-0.31783 -12.29449,-2.51677 L 0,936.70361 9.79448,927.14457 c 5.38697,-5.25748 11.5331,-10.9767 13.65806,-12.70938 2.12496,-1.73267 11.34996,-9.35875 20.5,-16.94684 9.15004,-7.58808 18.38318,-15.23808 20.51809,-17 6.85577,-5.65797 7.99889,-6.64464 15.03571,-12.97781 3.80455,-3.42412 15.35835,-14.66317 25.6751,-24.97567 10.31676,-10.3125 19.20659,-18.75 19.75519,-18.75 1.09348,0 14.98251,-16.81366 21.08335,-25.52289 2.10966,-3.01163 5.27245,-7.16352 7.02842,-9.22641 1.75597,-2.06288 6.09311,-7.8007 9.63808,-12.7507 3.54498,-4.95 9.17124,-12.375 12.50281,-16.5 3.33157,-4.125 12.33242,-16.05 20.00188,-26.5 7.66946,-10.45 15.90987,-21.53654 18.31201,-24.63675 2.40215,-3.10022 6.90746,-9.40022 10.01181,-14 5.56516,-8.24604 10.03656,-14.31443 30.42486,-41.29133 11.8437,-15.67097 29.14912,-41.25433 29.14912,-43.09233 0,-0.68097 3.12917,-5.67993 6.95372,-11.10881 3.82455,-5.42887 7.90065,-11.22068 9.05802,-12.87068 1.15736,-1.65 4.96062,-7.725 8.45167,-13.5 3.49106,-5.775 7.92083,-12.975 9.84393,-16 1.9231,-3.025 4.68594,-7.975 6.13966,-11 1.45371,-3.025 4.18275,-7.66577 6.06453,-10.31282 1.88177,-2.64704 3.70933,-6.47204 4.06122,-8.5 0.35189,-2.02795 2.29712,-6.16218 4.32274,-9.18718 2.02561,-3.025 4.29456,-7.075 5.04211,-9 1.29168,-3.3262 6.18234,-13.79003 7.94557,-17 2.0766,-3.78045 4.0128,-8.75891 4.47253,-11.5 0.27673,-1.65 1.19745,-5.7 2.04603,-9 1.26338,-4.91309 1.35847,-7.72094 0.52493,-15.5 -0.55987,-5.225 -1.42501,-10.85 -1.92252,-12.5 -0.49752,-1.65 -0.73875,-10.65 -0.53607,-20 0.60564,-27.93963 -4.02012,-71.31337 -9.33177,-87.5 -0.99266,-3.025 -2.61952,-8.2 -3.61525,-11.5 -5.82272,-19.29738 -14.33775,-41.99702 -17.39472,-46.37142 -1.01031,-1.44572 -4.90663,-8.81608 -8.65848,-16.37858 -3.75185,-7.5625 -7.3647,-13.75 -8.02856,-13.75 -0.66386,0 -2.64822,-2.8125 -4.4097,-6.25 -3.43468,-6.70277 -6.38144,-11.82027 -9.43974,-16.3936 -5.16648,-7.72587 -6.4542,-10.11006 -7.07268,-13.09493 -0.36908,-1.7812 -1.08642,-3.49525 -1.59411,-3.80902 -1.52132,-0.94023 -1.0421,-5.19279 0.65873,-5.84546 2.81558,-1.08044 3.12877,-0.74474 8.99631,9.64301 3.18436,5.6375 7.61947,12.061 9.85582,14.27445 2.27697,2.25365 4.83272,6.15147 5.80841,8.85849 2.39632,6.64854 6.3975,12.90351 11.91486,18.62627 2.56145,2.65681 4.92337,5.66925 5.24871,6.69431 0.32534,1.02506 2.05461,2.71751 3.84282,3.76099 1.7882,1.04349 5.27628,3.55559 7.75128,5.58245 2.475,2.02686 7.0875,4.88365 10.25,6.34842 3.1625,1.46476 5.75,3.0278 5.75,3.4734 0,0.4456 1.0125,1.27581 2.25,1.8449 1.2375,0.56909 4.95,3.03857 8.25,5.48774 3.3,2.44917 7.43017,5.02199 9.17814,5.71737 1.74798,0.69538 3.44095,1.94918 3.76216,2.78622 0.39113,1.01928 1.32306,1.32272 2.82185,0.91879 1.71197,-0.46139 2.86955,0.15819 4.926,2.63654 1.77087,2.13419 3.01886,2.89843 3.65733,2.23966 1.98272,-2.04577 5.17043,-22.78085 4.7887,-31.14893 -0.30902,-6.77402 -0.87657,-9.05177 -3.36382,-13.5 -1.64565,-2.94309 -4.05935,-8.50107 -5.36378,-12.35107 -3.03461,-8.95656 -12.08516,-27.37035 -15.37371,-31.27857 -1.39308,-1.65558 -2.53287,-3.45854 -2.53287,-4.00658 0,-2.45031 -5.45615,-12.48692 -9.0866,-16.71485 -0.94456,-1.1 -3.22398,-4.90601 -5.06539,-8.45781 -1.8414,-3.5518 -4.26377,-7.45063 -5.38304,-8.66407 -1.11927,-1.21344 -2.67279,-3.48242 -3.45227,-5.04219 -0.77948,-1.55976 -2.37261,-3.96093 -3.54029,-5.33593 -1.16768,-1.375 -3.65673,-4.975 -5.53122,-8 -4.75646,-7.67585 -11.37741,-16.30574 -15.47566,-20.17132 -1.95404,-1.8431 -3.46553,-4.24783 -3.46553,-5.51354 0,-2.70974 3.31096,-4.70489 6.48553,-3.90813 2.81445,0.70638 11.59665,10.13905 13.83857,14.86354 0.90144,1.89966 2.3223,4.02102 3.15745,4.71413 0.83515,0.69312 1.54833,1.76761 1.58484,2.38776 0.0365,0.62016 1.58844,3.15256 3.44872,5.62756 1.86029,2.475 4.59669,6.525 6.0809,9 3.61561,6.02923 13.21305,20.88676 15.50316,24 1.01145,1.375 3.76542,5.76192 6.11992,9.74871 2.74202,4.64297 5.10035,7.47055 6.56043,7.86582 1.43125,0.38746 4.69026,4.20227 8.75773,10.25129 3.56301,5.2988 8.04973,11.87585 9.97048,14.61568 2.22386,3.1722 3.49227,6.14344 3.49227,8.18066 0,3.28741 0.713,4.642 9.81858,18.65363 2.92522,4.50131 6.014,9.64671 6.86394,11.43421 1.45874,3.06782 3.31748,4.36507 3.31748,2.31533 0,-1.6575 -8.87551,-26.01168 -9.95271,-27.30997 -3.3742,-4.06677 -9.04862,-12.35545 -9.05618,-13.22845 -0.005,-0.5648 -2.22501,-3.61584 -4.93362,-6.78009 -2.7086,-3.16425 -5.23428,-6.72849 -5.61263,-7.92054 -0.37834,-1.19205 -2.20821,-4.544 -4.06638,-7.44879 -1.85816,-2.90478 -3.37848,-5.50805 -3.37848,-5.78504 0,-0.277 -1.125,-2.16141 -2.5,-4.18759 -2.88305,-4.24841 -3.14197,-7.0433 -0.9433,-10.18235 2.18904,-3.12528 4.38126,-2.78271 5.0971,0.7965 0.33209,1.66045 1.66307,4.02295 2.95772,5.25 1.29466,1.22704 2.39339,3.35599 2.44162,4.73099 0.0482,1.375 1.85991,5.2 4.02594,8.5 2.16604,3.3 4.8788,7.4625 6.02836,9.25 1.14956,1.7875 2.50424,3.25 3.01039,3.25 1.0399,0 0.52654,-2.81088 -2.10029,-11.5 -0.99764,-3.3 -2.13667,-7.575 -2.53118,-9.5 -0.39452,-1.925 -1.06314,-3.95 -1.48583,-4.5 -0.7139,-0.92892 -2.89838,-6.61606 -8.56706,-22.30378 -1.25281,-3.46707 -2.76439,-6.89003 -3.35906,-7.60657 -1.7365,-2.09235 -3.0344,-10.79589 -1.92034,-12.87753 1.9067,-3.5627 4.09717,-1.30006 7.98946,8.2527 2.12106,5.20565 3.85647,9.80625 3.85647,10.22356 0,0.41731 1.60099,4.03315 3.55777,8.03519 1.95677,4.00203 5.11678,12.3981 7.02225,18.65793 1.90547,6.25982 3.67998,11.73017 3.94336,12.15634 0.26339,0.42616 0.89886,3.40449 1.41216,6.6185 0.97113,6.08063 3.19174,15.65597 4.8401,20.87064 1.2718,4.02342 17.34992,31.76799 22.87481,39.47302 1.38032,1.925 2.88989,4.17125 3.35461,4.99167 1.40862,2.48681 2.12808,0.48566 0.93584,-2.60298 -0.61329,-1.58878 -1.94704,-8.74605 -2.9639,-15.90505 -1.01686,-7.15899 -2.30652,-14.22015 -2.86591,-15.69146 -0.5594,-1.47132 -1.32121,-6.03128 -1.69292,-10.13326 -0.57339,-6.32759 -1.33008,-8.57237 -4.99181,-14.80853 -2.37378,-4.04272 -5.0751,-8.41365 -6.00293,-9.71318 -3.59496,-5.03518 -51.20986,-98.5959 -63.17588,-124.137205 -10.1333,-21.62938 -15.49363,-33.4108 -20.2467,-44.5 -2.8289,-6.6 -5.94817,-13.381107 -6.93171,-15.069127 -0.98354,-1.68802 -2.52782,-5.28802 -3.43174,-8 -0.90391,-2.71198 -2.99019,-6.955873 -4.63616,-9.430873 -3.25626,-4.8963414 -3.91794,-9.7110004 -1.46399,-10.65266639 3.16276,-1.21366801 7.89519,6.03398199 11.2,17.15266639 0.81738,2.75 2.25369,6.125 3.19181,7.5 2.06687,3.02943 9.07094,17.31089 9.07094,18.49585 0,0.46567 0.59121,1.5571 1.3138,2.42541 0.72259,0.86831 2.61393,4.95374 4.20298,9.07874 1.58905,4.125 3.69784,8.57319 4.6862,9.88486 0.98836,1.31167 1.79702,2.92479 1.79702,3.58471 0,0.65992 1.62497,4.53673 3.61104,8.61514 1.98607,4.07841 4.49733,9.66529 5.58057,12.41529 2.71238,6.88584 8.79352,18.581205 10.91919,20.999995 0.9667,1.1 3.36343,5.75516 5.32607,10.34481 5.96607,13.95169 19.71705,41.43784 22.59058,45.15519 1.48803,1.925 3.04568,4.625 3.46142,6 0.41575,1.375 1.10636,2.95 1.5347,3.5 0.42834,0.55 2.89517,5.05 5.48184,10 2.58668,4.95 6.11865,11.475 7.84882,14.5 3.12717,5.46747 3.14756,5.48158 3.44903,2.38546 0.16679,-1.713 -0.39571,-6.12843 -1.25,-9.81206 -2.49591,-10.76213 -2.1523,-13.84025 1.94674,-17.43926 4.02076,-3.53027 4.21266,-4.96669 1.47081,-11.00949 -1.0919,-2.40644 -2.68683,-7.35644 -3.54428,-11 -9.12076,-38.75637 -10.21974,-52.12465 -4.28507,-52.12465 1.876,0 2.36116,1.25869 3.27629,8.5 1.60524,12.702 6.13554,35.83946 8.02777,41 0.80668,2.2 1.48645,5.02199 1.51059,6.27108 0.054,2.79223 3.73645,16.35966 5.84298,21.5274 1.50296,3.68705 1.60232,3.74456 3.38659,1.96028 1.78428,-1.78428 1.76355,-2.05708 -0.70657,-9.29848 -3.40299,-9.97621 -7.37689,-25.00338 -6.97204,-26.36457 0.17924,-0.60264 0.59704,-2.33321 0.92846,-3.84571 0.69732,-3.18238 3.97337,-3.79266 5.3681,-1 0.48069,0.9625 2.78384,8.725 5.11809,17.25 2.33426,8.525 4.70828,16.85 5.2756,18.5 7.82631,22.76189 15.14445,55.74424 17.0015,76.62448 1.09034,12.25952 1.25467,12.92854 2.37837,9.6828 0.66391,-1.91765 1.94831,-11.99628 2.85424,-22.39696 0.90592,-10.40068 2.05692,-20.71032 2.55778,-22.91032 0.50087,-2.2 1.19295,-10.24226 1.53797,-17.8717 0.34502,-7.62943 0.98006,-14.82528 1.4112,-15.99077 0.43115,-1.1655 0.44277,-3.30854 0.0258,-4.76233 -0.41694,-1.45379 -0.37064,-5.95794 0.10289,-10.00923 1.29514,-11.08045 1.87151,-18.97827 2.47149,-33.86597 1.19036,-29.53716 2.29527,-42.097485 3.92157,-44.579535 3.12139,-4.76385 8.33806,-1.54944 7.12161,4.38819 -0.30326,1.48024 -0.79977,12.548595 -1.10336,24.596355 -0.30359,12.04775 -0.77172,22.26056 -1.0403,22.69513 -0.26858,0.43457 -0.76279,11.27339 -1.09825,24.08626 -0.4319,16.49667 -0.98883,23.88242 -1.90811,25.30487 -0.94576,1.4634 -1.08965,3.74808 -0.53001,8.41564 1.04624,8.7259 -0.34845,15.93825 -3.69066,19.08558 -2.15361,2.02804 -2.34258,2.55109 -1.0141,2.80693 2.34448,0.4515 2.78063,2.35405 1.6714,7.29085 -0.53589,2.38509 -1.1378,9.59963 -1.33758,16.03232 -0.19978,6.43269 -0.7912,12.52416 -1.31428,13.5366 -0.52307,1.01245 -0.98152,3.3329 -1.01877,5.15656 -0.0373,1.82367 -0.35773,4.63617 -0.71219,6.25 -0.35446,1.61384 -0.2588,2.93425 0.21258,2.93425 0.93696,0 5.3922,-11.8285 10.35798,-27.5 3.72634,-11.75995 5.49707,-16.76609 10.3485,-29.2569 1.97746,-5.0913 3.59538,-9.82296 3.59538,-10.51481 0,-0.69185 0.92392,-2.98174 2.05315,-5.08864 1.12923,-2.10691 3.87563,-9.75024 6.10311,-16.98519 2.22747,-7.23496 6.01373,-19.22946 8.41391,-26.65446 2.40018,-7.425 5.08614,-16.08899 5.96881,-19.25331 1.61776,-5.79956 2.68686,-6.92639 7.71102,-8.12741 2.31718,-0.55392 2.75,-0.33582 2.75,1.38574 0,2.13473 -5.75685,20.85554 -9.07597,29.51431 -1.05822,2.76063 -1.92403,5.58764 -1.92403,6.28226 0,0.69461 -1.28475,4.73591 -2.855,8.98067 -3.98267,10.76618 -10.14497,29.94027 -10.14497,31.56634 0,0.74444 -1.07106,3.36791 -2.38014,5.82995 -1.30907,2.46203 -2.89136,6.86016 -3.51618,9.77361 -0.62483,2.91346 -2.4281,7.6515 -4.00728,10.52897 -1.57918,2.87748 -4.32994,9.68387 -6.11281,15.12532 -1.78286,5.44145 -4.28136,13.04355 -5.55221,16.89355 -1.27085,3.85 -2.62416,8.8 -3.00736,11 -0.3832,2.2 -1.75025,6.10259 -3.0379,8.67241 -1.28765,2.56983 -2.75361,6.39483 -3.25769,8.5 -0.50408,2.10518 -1.73435,5.95994 -2.73393,8.56614 -1.31601,3.43124 -1.51551,5.04044 -0.72311,5.83284 1.33955,1.33955 10.07177,-12.63716 13.32098,-21.32145 1.17541,-3.14156 2.54858,-5.96623 3.05149,-6.27705 0.50291,-0.31081 2.54577,-3.35687 4.53969,-6.769 1.99391,-3.41214 4.2533,-6.56375 5.02087,-7.00358 0.76757,-0.43983 1.39558,-1.30043 1.39558,-1.91245 0,-1.28707 5.15419,-9.68122 9.08005,-14.78786 1.4799,-1.925 3.29352,-5.525 4.03028,-8 1.32076,-4.43684 5.92699,-13.65381 15.04399,-30.10268 2.55988,-4.61853 5.88929,-11.52487 7.39869,-15.34744 1.5094,-3.82256 4.28708,-9.58236 6.17261,-12.79954 1.88554,-3.21717 4.50418,-8.28228 5.81921,-11.25578 2.49165,-5.63407 6.08798,-8.90451 9.14452,-8.31587 2.56479,0.49393 2.71441,3.05097 0.43724,7.47265 -1.09013,2.11676 -2.70673,5.40719 -3.59246,7.31206 -0.88572,1.90487 -2.18433,4.15487 -2.88579,5 -0.70147,0.84513 -2.77271,4.9116 -4.60276,9.0366 -1.83005,4.125 -4.38896,8.93248 -5.68647,10.68328 -1.29751,1.7508 -2.35911,3.57588 -2.35911,4.05572 0,0.47984 -1.14696,2.42237 -2.54879,4.31672 -2.63586,3.56193 -17.57566,33.52292 -18.9206,37.94428 -0.41826,1.375 -1.55327,3.4 -2.52224,4.5 -0.96898,1.1 -4.3358,7.175 -7.48183,13.5 -3.14603,6.325 -6.52688,12.4 -7.51299,13.5 -0.98611,1.1 -3.00311,4.41769 -4.48223,7.37264 -1.47912,2.95495 -4.25524,7.6005 -6.16916,10.32346 -1.91392,2.72296 -3.30629,5.47152 -3.09415,6.10792 0.21213,0.63641 2.57365,-2.20915 5.24782,-6.32346 2.67417,-4.11431 6.08868,-9.07183 7.58782,-11.01673 1.49913,-1.94489 5.10563,-8.01989 8.01444,-13.5 2.90882,-5.4801 6.32222,-11.48913 7.58533,-13.35338 1.26312,-1.86425 2.3091,-3.88925 2.3244,-4.5 0.0153,-0.61075 1.3653,-2.87811 3,-5.03859 1.6347,-2.16048 2.97218,-4.26143 2.97218,-4.66879 0,-2.00299 9.55777,-20.75203 11.80283,-23.15307 2.71909,-2.908 6.00274,-3.54443 7.99717,-1.55 1.82817,1.82817 1.44046,8.22227 -0.66184,10.91514 -1.02401,1.31167 -3.3661,5.08486 -5.20465,8.38486 -1.83855,3.3 -4.82572,8.13288 -6.63816,10.73974 -1.81244,2.60686 -3.29535,4.97398 -3.29535,5.26026 0,0.28628 -1.67717,2.8784 -3.72704,5.76026 -9.12659,12.83083 -14.73924,21.62618 -16.91472,26.50639 -1.29126,2.89666 -4.06996,7.17166 -6.17488,9.5 -2.10492,2.32834 -4.76263,6.27095 -5.90602,8.76135 -1.14338,2.4904 -4.14853,6.53375 -6.67811,8.98523 -2.52958,2.45148 -4.59923,4.71963 -4.59923,5.04035 0,1.14136 6.53951,7.73053 8.84966,8.91685 1.80663,0.92775 2.23546,1.80398 1.85553,3.79146 -0.27177,1.42167 0.15007,4.41934 0.93743,6.66148 1.35699,3.86427 8.64797,19.60409 12.07918,26.07663 3.92854,7.41068 6.24362,12.52977 6.85489,15.15746 0.36368,1.5634 1.35473,3.94912 2.20232,5.30161 0.84759,1.35249 3.7506,6.75249 6.45113,12 2.70053,5.24751 5.77851,10.46993 6.83996,11.60538 1.06144,1.13545 1.9299,2.41392 1.9299,2.84104 0,0.42712 1.52326,2.55616 3.38501,4.73121 1.86176,2.17504 4.8123,6.52157 6.55676,9.65896 7.17998,12.91312 14.71223,24.69426 18.30823,28.63581 1.5125,1.65784 2.75,3.41706 2.75,3.90938 0,0.49231 1.40629,2.4968 3.1251,4.45441 1.7188,1.95761 3.70861,4.94201 4.4218,6.63201 0.71319,1.69 4.2569,6.11175 7.87491,9.82611 3.79477,3.89583 6.57819,7.62603 6.57819,8.81574 0,2.82856 1.66716,5.87427 5.16226,9.43088 1.62147,1.65 5.64244,6.67171 8.9355,11.15935 3.29305,4.48764 6.57193,8.38366 7.28639,8.65782 0.71445,0.27416 2.91742,2.93672 4.89549,5.9168 1.97806,2.98008 4.29477,5.99786 5.14824,6.70618 0.85347,0.70832 3.893,4.72405 6.7545,8.92385 2.86151,4.1998 8.60359,11.61501 12.76018,16.47824 4.15659,4.86323 8.214,9.81323 9.01645,11 0.80246,1.18677 2.82746,3.77939 4.5,5.76137 1.67255,1.98199 4.25101,5.13199 5.72993,7 4.95136,6.25411 9.29346,11.35833 13.81986,16.24561 2.4702,2.66707 7.1609,7.84207 10.4238,11.5 3.263,3.65793 9.563,10.494 14,15.19127 4.4371,4.69727 10.7646,11.67227 14.0612,15.5 6.2094,7.20976 19.2134,21.53433 29.0133,31.95951 3.102,3.3 7.3715,8.51052 9.4876,11.57894 2.1161,3.06841 8.833,10.64679 14.9264,16.84085 6.0934,6.19406 11.0789,11.55018 11.0789,11.90249 0,0.35231 9.5625,10.11674 21.25,21.69873 11.6875,11.582 26.65,26.67226 33.25,33.53392 6.6,6.86167 19.2695,19.44385 28.1544,27.96042 8.8849,8.51656 20.3599,19.53361 25.5,24.48235 5.1401,4.94873 11.8733,10.90444 14.9628,13.23492 3.0894,2.33048 7.3264,6.38151 9.4154,9.00231 6.1322,7.69306 10.7626,12.26514 12.4203,12.26405 0.8509,-5.6e-4 2.8106,-2.25056 4.3548,-5 1.8067,-3.21683 3.4746,-4.99898 4.6786,-4.99898 2.2297,0 5.0137,2.5562 5.0137,4.60355 0,2.64589 -2.9195,8.51067 -5.1261,10.29745 l -2.167,1.75474 3.6473,2.25415 c 2.006,1.23978 4.3128,3.20429 5.1262,4.36557 l 1.4789,2.11142 2.3348,-2.19344 c 2.8205,-2.64971 4.547,-2.77097 6.3139,-0.44344 1.9341,2.5479 1.6926,4.86794 -0.9962,9.57193 -1.3136,2.29794 -2.6755,5.82035 -3.0265,7.82759 -0.7418,4.24159 -1.6544,5.12826 -7.0803,6.87858 -2.1973,0.70881 -5.9768,2.34245 -8.399,3.63032 -2.4221,1.28787 -5.0534,2.34158 -5.8472,2.34158 -0.7938,0 -2.5875,0.9 -3.9859,2 -1.3985,1.1 -3.6069,2 -4.9078,2 -1.3422,0 -2.3651,0.59578 -2.3651,1.37756 0,3.22629 -3.0693,4.11192 -13.0616,3.76886 -10.9352,-0.37543 -18.879,1.32957 -25.1149,5.39045 -2.022,1.31679 -4.947,2.39686 -6.5,2.40017 -6.4324,0.0137 -11.141,1.25716 -11.6144,3.0672 -0.2605,0.99638 -2.4088,3.09054 -4.7739,4.65368 l -4.3001,2.84208 -23.0676,-0.27567 c -17.6576,-0.21101 -25.061,0.0928 -31.5675,1.29527 -4.675,0.86402 -10.9113,1.98493 -13.8585,2.4909 -2.9472,0.50598 -6.9972,1.89676 -9,3.09064 -2.0028,1.19387 -5.2165,3.05339 -7.1415,4.13227 -1.925,1.07888 -4.429,2.81773 -5.5645,3.8641 -1.1354,1.04637 -2.9112,1.90249 -3.9462,1.90249 -1.035,0 -3.5758,1.174 -5.6463,2.6088 -4.14,2.869 -5.7166,2.8671 -17.843,-0.022 -7.501,-1.7871 -15.4972,-1.98464 -48,-1.1858 -13.5676,0.3334 -27.30388,1.2197 -32.5,2.097 -4.95,0.8357 -13.725,1.769 -19.5,2.0741 -5.775,0.305 -13.425,1.1899 -17,1.9665 -3.575,0.7765 -11.45,2.0715 -17.5,2.8776 -13.12963,1.7495 -16.43818,3.0491 -22.92937,9.0073 -5.30989,4.8738 -5.49174,4.8978 -14.07063,1.8512 -13.10945,-4.6554 -27.73557,-7.3662 -50,-9.2669 -6.6,-0.5634 -13.30465,-1.4707 -14.89922,-2.0161 -3.83641,-1.3123 -29.07735,-1.2648 -33.86107,0.064 -4.55323,1.2645 -11.73971,7.8333 -11.73971,10.7307 0,2.6219 -0.39309,2.8535 -6.35859,3.7464 -4.64268,0.6948 -4.82856,0.6325 -4.18262,-1.4027 z m 21.32599,-668.3818 c -0.0239,-5.63484 -0.80448,-9.47366 -3.50727,-17.248 -1.91211,-5.5 -3.90293,-11.4625 -4.42404,-13.25 -0.52111,-1.7875 -1.40288,-3.25 -1.95949,-3.25 -0.55661,0 -0.7718,0.38868 -0.4782,0.86373 0.2936,0.47505 1.00536,5.02634 1.5817,10.11399 0.57633,5.08764 1.96486,12.91147 3.08562,17.38627 3.91801,15.64332 5.7525,17.3756 5.70168,5.38401 z m 9.88825,-9.498 c -1.34248,-10.96737 -4.42686,-22.52018 -5.78787,-21.67902 -0.56183,0.34723 -0.73636,1.3733 -0.38785,2.28017 0.81683,2.12545 3.09198,13.28531 3.95483,19.39885 0.36872,2.6125 1.15009,4.75 1.73636,4.75 0.68661,0 0.85904,-1.69042 0.48453,-4.75 z m -4.08612,-25.74026 c 0.70342,-2.80266 0.39105,-5.88953 -1.97425,-19.50974 -3.07012,-17.67874 -3.83751,-21.48841 -5.33795,-26.5 -0.82333,-2.75 -1.86329,-6.8 -2.31103,-9 -2.09572,-10.29756 -5.49573,-20.5 -6.83171,-20.5 -0.35798,0 -1.24261,0.94751 -1.96583,2.10558 -1.45815,2.33486 -0.68564,7.22256 2.90725,18.39442 2.61598,8.13418 6.84398,24.88001 7.82691,31 0.44168,2.75 1.51413,8.15 2.38321,12 0.86908,3.85 1.85622,8.6875 2.19363,10.75 0.70346,4.29996 2.19507,4.90419 3.10977,1.25974 z m -13.4109,-17.8574 c -1.13067,-4.48379 -3.49266,-14.33984 -5.24887,-21.90234 -2.18382,-9.40382 -3.62521,-13.75 -4.56013,-13.75 -1.7489,0 -1.73541,3.84507 0.0547,15.6013 0.76223,5.00571 2.26826,10.85571 3.34674,13 1.07847,2.14428 2.52979,5.6987 3.22515,7.8987 1.62205,5.1319 4.37108,9.90584 4.85984,8.43956 0.20806,-0.62418 -0.5468,-4.80343 -1.67747,-9.28722 z"
     id="path2987"
     inkscape:connector-curvature="0" />
</svg>
