<?xml version="1.0" encoding="UTF-8" standalone="no"?>
<!-- Created with Inkscape (http://www.inkscape.org/) -->

<svg
   xmlns:dc="http://purl.org/dc/elements/1.1/"
   xmlns:cc="http://creativecommons.org/ns#"
   xmlns:rdf="http://www.w3.org/1999/02/22-rdf-syntax-ns#"
   xmlns:svg="http://www.w3.org/2000/svg"
   xmlns="http://www.w3.org/2000/svg"
   xmlns:sodipodi="http://sodipodi.sourceforge.net/DTD/sodipodi-0.dtd"
   xmlns:inkscape="http://www.inkscape.org/namespaces/inkscape"
   id="svg2"
   version="1.1"
   inkscape:version="0.48.2 r9819"
   width="598.25104"
   height="296.81671"
   sodipodi:docname="ourvillage01mitfgoog_0027h.png">
  <metadata
     id="metadata8">
    <rdf:RDF>
      <cc:Work
         rdf:about="">
        <dc:format>image/svg+xml</dc:format>
        <dc:type
           rdf:resource="http://purl.org/dc/dcmitype/StillImage" />
        <dc:title></dc:title>
      </cc:Work>
    </rdf:RDF>
  </metadata>
  <defs
     id="defs6" />
  <sodipodi:namedview
     pagecolor="#ffffff"
     bordercolor="#666666"
     borderopacity="1"
     objecttolerance="10"
     gridtolerance="10"
     guidetolerance="10"
     inkscape:pageopacity="0"
     inkscape:pageshadow="2"
     inkscape:window-width="1600"
     inkscape:window-height="876"
     id="namedview4"
     showgrid="false"
     fit-margin-top="0"
     fit-margin-left="0"
     fit-margin-right="0"
     fit-margin-bottom="0"
     inkscape:zoom="1"
     inkscape:cx="298.80833"
     inkscape:cy="151.31671"
     inkscape:window-x="0"
     inkscape:window-y="24"
     inkscape:window-maximized="1"
     inkscape:current-layer="svg2" />
  <path
     style="fill:#000000"
     d="m 103.63003,295.61107 c -4.39269,-1.18558 -9.3217,-5.03785 -9.3217,-7.28538 0,-2.05145 -4.4736,-1.56483 -6.53284,0.7106 -5.40286,5.97009 -18.59141,7.66687 -26.88664,3.45911 C 58.18314,291.12293 55.13119,290 54.10673,290 c -3.17957,0 -8.7984,-2.82062 -8.7984,-4.41675 0,-1.13605 0.5441,-1.31752 2.15908,-0.72011 2.46859,0.9132 6.84092,0.31598 6.84092,-0.9344 0,-1.14863 -6.47239,-2.27275 -9.24343,-1.6054 -1.24111,0.2989 -4.95657,-0.0555 -8.25657,-0.78747 -3.3,-0.73201 -5.55,-1.40867 -5,-1.50368 1.93074,-0.33355 -3.0352,-1.89238 -6.25,-1.9619 -3.24827,-0.0702 -4.35905,1.23775 -2,2.3551 0.6875,0.32563 -3.89679,0.36885 -10.1873,0.096 -6.2905196,-0.27281 -11.9155196,-0.97616 -12.49999955,-1.56299 -1.23241,-1.23735 -1.20043,-6.22956 0.37452995,-58.45843 0.63023,-20.9 1.40978,-48.575 1.73231,-61.5 0.32253,-12.925 1.01757,-24.04279 1.54453,-24.7062 0.52696,-0.6634 0.68511,-1.64791 0.35144,-2.1878 -0.33366,-0.53988 1.36922,-2.34105 3.78419,-4.00259 9.6395296,-6.63214 18.6502996,-20.58075 18.6502996,-28.8705 0,-1.51035 0.4574,-4.31811 1.01645,-6.23948 C 28.88383,91.07203 30.24351,84.325 31.3463,78 c 2.42513,-13.90924 6.45731,-32.36842 8.34834,-38.218371 0.76124,-2.354896 1.9886,-7.13942 2.72748,-10.632275 1.89015,-8.935195 3.84649,-10.734465 11.91696,-10.96022 5.65659,-0.158232 9.72565,0.310672 19.91277,2.294678 1.43602,0.279673 3.18063,-0.191183 4.23125,-1.141973 1.45661,-1.318219 2.069,-1.384415 3.30647,-0.357406 1.31638,1.092496 1.51876,0.713666 1.51876,-2.842936 0,-3.548618 0.33975,-4.188666 2.51299,-4.734112 4.23735,-1.063508 5.70973,1.126783 5.3241,7.920015 -0.25608,4.510992 0.0234,6.128627 1.16291,6.731368 2.99312,1.583172 15.77998,3.985516 23.93299,4.496432 4.58945,0.287603 9.29453,1.05934 10.45573,1.71497 2.91357,1.645039 5.39148,1.699596 6.67996,0.147075 0.7774,-0.936705 1.78436,-1.043417 3.5416,-0.375318 2.44819,0.930803 2.45344,0.919152 1.80119,-3.997789 -0.59607,-4.493403 -0.41869,-5.136127 1.9975,-7.237725 2.05167,-1.78454 2.78914,-3.5509 3.25926,-7.806413 0.33418,-3.025 1.01137,-6.2875 1.50487,-7.25 1.20668,-2.35346 4.51842,-2.216814 6.05897,0.25 1.54677,2.476776 2.76793,2.574941 2.76793,0.222506 0,-3.220681 2.92184,-6.222506 6.0567,-6.222506 2.6971,0 2.9433,0.292762 2.9433,3.5 0,3.06126 0.31158,3.5 2.4856,3.5 2.10846,0 2.65619,0.677447 3.60986,4.464808 0.86109,3.41973 1.80074,4.764255 4.01439,5.744112 3.48778,1.543839 3.7701,4.402685 0.80682,8.169892 -2.14385,2.725459 -2.96249,11.012085 -1.25,12.653053 0.45833,0.439192 3.53333,1.007126 6.83333,1.262075 3.46388,0.267611 12.48057,2.63772 21.33189,5.60726 10.20747,3.42451 18.07685,5.42193 23.5446,5.97615 4.517,0.45784 9.09265,1.29805 10.16811,1.86714 1.07547,0.56909 8.2554,2.02674 15.9554,3.23921 7.7,1.21247 17.6,3.07389 22,4.13648 4.4,1.06258 12.5,2.39326 18,2.95705 5.5,0.56379 12.925,1.45575 16.5,1.98213 22.54163,3.31902 33.07975,3.75439 34.9957,1.44582 0.91722,-1.10518 0.82673,-1.92061 -0.40891,-3.68473 -0.87273,-1.246 -1.58679,-3.08868 -1.58679,-4.09484 0,-2.98884 4.34263,-9.62868 6.5,-9.93844 1.60353,-0.23024 2.06275,-1.17923 2.31653,-4.78717 0.5101,-7.251938 6.67454,-11.728004 10.23819,-7.434063 0.71479,0.861265 2.66568,2.272356 4.33531,3.135758 1.66964,0.863405 3.87258,2.633735 4.89542,3.934065 1.28812,1.63758 2.88026,2.36424 5.18014,2.36424 2.10531,0 3.54256,0.57886 3.92742,1.58179 1.21787,3.17371 0.56468,7.83434 -1.38952,9.91449 -1.63602,1.74147 -2.02573,3.64897 -2.15834,10.56445 -0.18602,9.70085 1.06209,15.04991 4.79526,20.55103 1.45046,2.13737 3.10545,5.23661 3.67777,6.88719 1.20622,3.47877 7.21732,13.15328 8.48627,13.65815 1.72652,0.68692 8.19642,13.61438 8.22735,16.439 0.0175,1.59714 0.6925,3.77741 1.5,4.84503 1.82188,2.40874 1.89512,4.55887 0.15529,4.55887 -0.7221,0 -2.60629,1.35 -4.18709,3 -1.5808,1.65 -3.40989,3 -4.06465,3 -2.62916,0 -3.26466,3.12318 -3.59297,17.6576 -0.18831,8.33669 -0.0842,14.73855 0.23124,14.22637 0.591,-0.95945 3.11244,1.46234 4.28539,4.11603 0.36466,0.825 1.52517,2.85 2.57891,4.5 4.42294,6.92563 0.73093,12.44524 -4.55766,6.81378 l -2.64246,-2.81378 0.60022,3.5 c 0.33013,1.925 0.79479,12.95 1.03258,24.5 0.56688,27.53407 1.45443,37.50437 3.27639,36.80522 2.01438,-0.77299 8.61686,4.56482 7.91351,6.39772 -0.34299,0.89381 0.43634,2.29334 1.93234,3.47009 1.37894,1.08467 2.50716,2.99714 2.50716,4.24994 0,1.81174 1.38113,2.96913 6.75,5.65651 3.7125,1.8583 7.10986,3.95062 7.54969,4.64962 0.45823,0.72823 2.8067,1.28028 5.5,1.29286 2.58517,0.0121 6.66195,0.91208 9.05951,2 3.98819,1.80969 11.1408,2.73177 11.1408,1.43623 0,-0.298 -0.9493,-1.5355 -2.10955,-2.75 -4.25651,-4.45554 -6.14212,-10.60942 -6.2518,-20.40345 -0.0956,-8.53758 -0.26518,-9.26918 -2.37081,-10.22857 -2.4064,-1.09642 -3.10032,-4.63201 -1.04367,-5.31756 2.02958,-0.67653 -1.77658,-14.54563 -5.26371,-19.18018 -1.62286,-2.15686 -2.7379,-4.13433 -2.47785,-4.39437 0.26004,-0.26004 2.39533,0.20792 4.7451,1.03991 13.46606,4.76801 23.9623,6.67105 41.27229,7.48297 14.09115,0.66093 22.76018,-1.19556 34.63821,-7.41788 l 7.04885,-3.69253 1.65647,2.10875 c 1.37421,1.74942 3.53085,2.31776 12.65647,3.33534 13.84702,1.54405 37.14112,0.62625 43.27229,-1.70495 7.12191,-2.70788 6.92961,0.54689 -0.28989,4.90762 -6.45085,3.89646 -9.56949,9.63723 -11.14012,20.50671 -0.53506,3.70279 -0.37131,4.25757 1.2718,4.30881 1.69731,0.0529 1.72277,0.16994 0.25456,1.17005 -1.47382,1.00392 -1.48966,1.5271 -0.1641,5.41742 1.1357,3.33308 2.97318,5.48498 8.13136,9.52271 7.1167,5.57081 27.4418,23.75922 27.9974,25.05418 0.6347,1.479 -1.576,0.76729 -4.4484,-1.43214 -1.5867,-1.21493 -5.8099,-4.87154 -9.3849,-8.12579 -3.575,-3.25426 -9.65,-8.141 -13.5,-10.85943 l -7,-4.94261 -0.57671,3.3184 c -0.31719,1.82512 -0.89251,4.27576 -1.2785,5.44587 -0.58374,1.76962 0.10197,2.64195 4.07671,5.18617 2.62818,1.68228 7.9285,4.46736 11.7785,6.18906 6.6964,2.99458 11.5,6.40791 11.5,8.17161 0,1.64418 -2.6906,0.76349 -6.7196,-2.19947 -2.2624,-1.66384 -6.5699,-3.87027 -9.57211,-4.90318 -3.0022,-1.03291 -7.31161,-3.10431 -9.57646,-4.60311 -3.98477,-2.637 -4.22319,-2.6732 -7.37486,-1.1196 l -3.25697,1.60551 3,0.045 c 3.43139,0.0515 8.11299,3.19967 7.12806,4.79333 -0.36277,0.58697 -3.23999,1.37925 -6.39382,1.76061 -3.15383,0.38135 -6.18424,1.03716 -6.73424,1.45735 -0.8617,0.65831 -42.41381,1.5322 -48,1.00949 -1.1,-0.10293 -4.15716,-0.92056 -6.7937,-1.81696 -3.84664,-1.30782 -5.17751,-1.39011 -6.73643,-0.41655 -3.4239,2.13827 -16.80488,1.34878 -32.96987,-1.94525 -0.825,-0.16811 -8.025,0.0339 -16,0.44896 -11.14297,0.57991 -15.36388,0.44503 -18.23133,-0.58258 -2.05223,-0.73546 -3.95231,-1.55818 -4.2224,-1.82826 -0.27009,-0.27009 -3.02636,-0.21201 -6.12505,0.12906 -3.76805,0.41475 -5.9464,1.17839 -6.57729,2.30573 -1.14505,2.04608 -4.17378,2.198 -5.75825,0.28883 -0.65523,-0.78949 -2.07004,-1.15857 -3.25419,-0.84891 -1.43764,0.37595 -2.63322,-0.16573 -3.81043,-1.72641 -1.6403,-2.17458 -1.82629,-2.20164 -4.24424,-0.61733 -2.08114,1.36361 -3.97239,1.53651 -10.68425,0.97676 -4.48552,-0.37408 -8.3929,-1.06426 -8.68305,-1.53374 -0.29015,-0.46948 -2.1885,-0.92102 -4.21854,-1.00343 -3.01883,-0.12255 -3.19019,-0.2257 -0.94098,-0.56642 1.5125,-0.22913 2.75,-0.80681 2.75,-1.28375 0,-1.09444 -4.25939,-1.60243 -9.68205,-1.15471 -2.78819,0.2302 -4.02547,0.75333 -3.71226,1.56954 1.06468,2.77451 -14.79272,4.381 -27.10569,2.74604 l -5,-0.66392 3.5,-1.34183 c 7.01661,-2.69002 7.71248,-3.14618 4,-2.62209 -4.15457,0.5865 -14.80902,0.77852 -32.14148,0.57927 -7.03591,-0.0809 -13.90395,0.33467 -15.48856,0.93714 -3.72227,1.4152 -35.10202,1.03016 -50.86241,-0.62411 -6.59585,-0.69232 -12.2313,-0.87231 -12.52322,-0.39998 -0.29192,0.47234 -5.02031,0.937 -10.50755,1.03258 -5.48723,0.0956 -11.41266,0.20149 -13.16763,0.23536 -1.75497,0.0339 -3.10497,0.51752 -3,1.07476 0.36244,1.92407 -3.38537,1.78453 -6.84167,-0.25474 -1.90711,-1.12521 -3.46748,-1.67838 -3.46748,-1.22926 0,0.44913 -2.77451,0.89985 -6.16558,1.0016 -3.81473,0.11446 -6.57906,0.70503 -7.25,1.54887 -0.69955,0.87982 -4.35537,1.58358 -10.30064,1.98293 -14.48246,0.97278 -15.28378,1.24224 -15.28378,5.13947 0,2.54629 -0.70277,3.80732 -3.05544,5.48256 -2.7675,1.97064 -3.45071,2.06191 -7.25,0.96851 -5.8629,-1.68728 -16.81819,-1.84944 -17.42888,-0.25798 -0.56186,1.46423 -3.15325,1.42398 -8.94398,-0.13893 z m 412.1783,-13.58042 c 6.16681,-2.69815 14.11275,-2.20302 13.0681,0.8143 -0.50492,1.4584 -0.42419,1.47457 0.67945,0.13615 0.93738,-1.13681 2.7618,-1.42592 7.25245,-1.14926 l 6,0.36964 -2.5,-1.99858 c -2.30511,-1.84278 -5.04638,-6.32584 -6.33876,-10.36639 -0.38827,-1.21388 -2.23987,-1.84638 -6.8507,-2.34016 -10.96996,-1.17478 -11.68042,-0.86868 -13.93467,6.00365 -1.08246,3.3 -3.07235,6.99092 -4.42199,8.20203 -1.34963,1.21112 -2.45388,2.41235 -2.45388,2.6694 0,0.55059 6.61927,-1.08039 9.5,-2.34078 z m -34.92465,-1.006 c 0.63379,-0.63379 2.27936,-0.57513 4.69914,0.16752 2.04809,0.62858 3.96848,0.8982 4.26752,0.59916 0.29904,-0.29905 -0.23392,-2.17443 -1.18436,-4.16752 -1.4225,-2.98301 -2.27002,-3.63008 -4.79286,-3.65925 -5.50771,-0.0637 -9.79978,-3.81577 -12.54252,-10.96456 -2.60035,-6.77767 -3.24464,-6.17552 -4.42259,4.13331 -0.29119,2.54832 -1.48969,6.26082 -2.66333,8.25 l -2.1339,3.61669 6.99179,0 c 5.29243,0 7.13168,0.36458 7.56739,1.5 0.65518,1.70739 2.76792,1.97045 4.21372,0.52465 z m 21.36779,-5.16192 -1.34559,-3.24855 -0.86608,3.3423 c -0.63214,2.43952 -0.51252,3.5608 0.44287,4.15127 2.27628,1.40681 3.19579,-0.79997 1.7688,-4.24502 z M 497.29302,272.75 c 0.0158,-1.80523 -1.47468,-2.38422 -2.37744,-0.92354 -0.28092,0.45455 -0.24505,1.84259 0.0797,3.08453 0.44301,1.69411 0.80178,1.92477 1.43644,0.92354 0.46528,-0.73399 0.85285,-2.12203 0.86127,-3.08453 z m 9.91563,-3.21429 c 0.0903,-1.77865 -0.0476,-1.81702 -1.45854,-0.40606 -1.11457,1.11457 -1.34573,2.38563 -0.81191,4.46429 l 0.74631,2.90606 0.71223,-2.5 c 0.39173,-1.375 0.75709,-3.38393 0.81191,-4.46429 z M 457.26314,274.25 c -0.0249,-0.4125 -1.12952,-2.775 -2.45481,-5.25 l -2.40963,-4.5 -0.0452,5.25 c -0.0426,4.94538 0.0999,5.25 2.45481,5.25 1.375,0 2.47967,-0.3375 2.45481,-0.75 z m 93.04519,-0.16821 c 0,-1.73031 -1.21382,-4.08179 -2.10699,-4.08179 -0.49115,0 -0.89301,1.125 -0.89301,2.5 0,1.55556 0.56667,2.5 1.5,2.5 0.825,0 1.5,-0.4132 1.5,-0.91821 z m -5,-3.08179 c 0,-1.11111 -0.66667,-2 -1.5,-2 -1.52241,0 -2.05126,2.1154 -0.83333,3.33333 1.26779,1.26779 2.33333,0.65891 2.33333,-1.33333 z m -96.0318,-2.25 c -0.0299,-3.05666 -0.11814,-3.1359 -1.48306,-1.33204 -1.07674,1.423 -1.16596,2.2617 -0.34575,3.25 1.61595,1.9471 1.86408,1.68687 1.82881,-1.91796 z m 108.0318,0.75 c 0,-0.86218 -0.90249,-1.5 -2.12244,-1.5 -1.77324,0 -1.91763,0.2468 -0.87756,1.5 0.68469,0.825 1.63979,1.5 2.12244,1.5 0.48266,0 0.87756,-0.675 0.87756,-1.5 z m -97.01531,-5.73095 c 0.013,-3.16975 -0.36774,-3.82708 -2.53126,-4.37009 -1.40061,-0.35154 -2.75501,-0.43071 -3.00978,-0.17594 -0.25477,0.25476 0.51162,2.80891 1.70308,5.67588 2.38657,5.74273 3.81147,5.32326 3.83796,-1.12985 z m 34.4726,3.16185 c -0.85723,-1.38704 -1.45729,-1.12841 -1.45729,0.62812 0,0.85746 0.45734,1.27636 1.01631,0.9309 0.55897,-0.34546 0.75742,-1.04702 0.44098,-1.55902 z M 484.23804,265.25 c -0.0623,-2.43684 -0.16815,-2.52225 -0.92971,-0.75 -1.17371,2.73138 -1.17371,3.5 0,3.5 0.55,0 0.96837,-1.2375 0.92971,-2.75 z M 558.30833,263 c 0,-3.14017 -1.64918,-4.07778 -2.63837,-1.5 -0.71526,1.86394 0.2261,4.5 1.60699,4.5 0.56726,0 1.03138,-1.35 1.03138,-3 z m -112,-0.5 c 0,-1.375 -0.45,-2.5 -1,-2.5 -1.11717,0 -1.3707,3.29596 -0.33333,4.33333 1.10234,1.10234 1.33333,0.78473 1.33333,-1.83333 z m 60.66228,-2.75 c -0.27741,-0.6875 -0.50439,-0.125 -0.50439,1.25 0,1.375 0.22698,1.9375 0.50439,1.25 0.27741,-0.6875 0.27741,-1.8125 0,-2.5 z m -11.66228,0.30902 c 0,-0.51754 -0.45,-1.2191 -1,-1.55902 -0.55,-0.33992 -1,0.0835 -1,0.94098 0,0.85746 0.45,1.55902 1,1.55902 0.55,0 1,-0.42344 1,-0.94098 z m -35.55,-3.94663 c -1.54463,-1.44318 -5.45,-2.34113 -5.45,-1.2531 0,0.96746 2.00968,1.78948 4.95,2.02471 0.88881,0.0711 1.08233,-0.22752 0.5,-0.77161 z M 446.57769,253.75 c 0.56095,-1.60814 -0.22517,-3.75 -1.37635,-3.75 -0.49115,0 -0.89301,1.125 -0.89301,2.5 0,2.59883 1.50894,3.42998 2.26936,1.25 z"
     id="path2987"
     inkscape:connector-curvature="0" />
</svg>
