<?xml version="1.0" encoding="UTF-8" standalone="no"?>
<!-- Created with Inkscape (http://www.inkscape.org/) -->

<svg
   xmlns:dc="http://purl.org/dc/elements/1.1/"
   xmlns:cc="http://creativecommons.org/ns#"
   xmlns:rdf="http://www.w3.org/1999/02/22-rdf-syntax-ns#"
   xmlns:svg="http://www.w3.org/2000/svg"
   xmlns="http://www.w3.org/2000/svg"
   xmlns:sodipodi="http://sodipodi.sourceforge.net/DTD/sodipodi-0.dtd"
   xmlns:inkscape="http://www.inkscape.org/namespaces/inkscape"
   id="svg2"
   version="1.1"
   inkscape:version="0.48.2 r9819"
   width="1822.672"
   height="1005.9062"
   sodipodi:docname="villageB.png">
  <metadata
     id="metadata8">
    <rdf:RDF>
      <cc:Work
         rdf:about="">
        <dc:format>image/svg+xml</dc:format>
        <dc:type
           rdf:resource="http://purl.org/dc/dcmitype/StillImage" />
        <dc:title></dc:title>
      </cc:Work>
    </rdf:RDF>
  </metadata>
  <defs
     id="defs6" />
  <sodipodi:namedview
     pagecolor="#ffffff"
     bordercolor="#666666"
     borderopacity="1"
     objecttolerance="10"
     gridtolerance="10"
     guidetolerance="10"
     inkscape:pageopacity="0"
     inkscape:pageshadow="2"
     inkscape:window-width="1600"
     inkscape:window-height="876"
     id="namedview4"
     showgrid="false"
     fit-margin-top="0"
     fit-margin-left="0"
     fit-margin-right="0"
     fit-margin-bottom="0"
     inkscape:zoom="0.70710678"
     inkscape:cx="905.43629"
     inkscape:cy="523.94789"
     inkscape:window-x="0"
     inkscape:window-y="24"
     inkscape:window-maximized="1"
     inkscape:current-layer="svg2" />
  <path
     style="fill:#000000"
     d="m 176.96452,1003.8794 c -1.07615,-1.2569 -1.63098,-3.0873 -1.36213,-4.49374 0.55584,-2.9077 -1.46382,-4.7753 -4.21861,-3.9009 -3.31223,1.0512 -2.34269,-0.9351 1.08858,-2.2302 2.89036,-1.091 3.09141,-1.4623 2.56122,-4.7295 -0.7078,-4.3617 -3.30187,-7.321 -4.96208,-5.6608 -0.62464,0.6246 -1.94571,1.1357 -2.93571,1.1357 -0.99,0 -1.8,0.4981 -1.8,1.107 0,0.6088 -0.66814,0.8506 -1.48475,0.5372 -1.92517,-0.7387 -3.84989,2.8249 -3.24231,6.0033 0.50023,2.6167 -2.55847,5.3176 -3.78135,3.3389 -0.34638,-0.5605 -1.03195,-0.7705 -1.52349,-0.4667 -0.49154,0.3038 -2.66101,-0.5633 -4.82104,-1.9269 -2.16004,-1.3635 -4.14453,-2.262 -4.40999,-1.9965 -1.19364,1.1936 -11.86746,1.0258 -13.49801,-0.2123 -0.95648,-0.7262 -2.92146,-1.3347 -4.36662,-1.3522 -1.44515,-0.017 -3.18364,-0.7018 -3.8633,-1.5208 -1.62897,-1.9628 -3.00914,-1.0027 -3.00914,2.0933 0,2.2999 0.26242,2.4371 3.5,1.8297 2.60469,-0.4886 3.50349,-0.3084 3.51365,0.7047 0.008,0.7487 0.27746,2.345 0.59989,3.5473 0.51213,1.9096 0.20061,2.1749 -2.46453,2.0992 -1.67955,-0.048 -3.30136,-0.7398 -3.60831,-1.5397 -0.32901,-0.8574 -1.22104,-1.1984 -2.17618,-0.8319 -0.92169,0.3537 -2.10635,-0.046 -2.75136,-0.928 -0.93362,-1.2768 -1.69853,-1.3518 -4.35169,-0.4269 -1.77043,0.6172 -3.79103,0.9088 -4.49022,0.6481 -1.29495,-0.4828 -1.08888,-0.606 3.47875,-2.0795 2.44496,-0.7887 2.18128,-2.0585 -0.75362,-3.6292 -2.23368,-1.1955 -2.75276,-1.1059 -4.81445,0.831 -2.87,2.6962 -3.20041,2.6932 -8.460672,-0.076 -3.4228,-1.8021 -4.44428,-1.9874 -5.1063,-0.9263 -0.65014,1.0421 -3.10952,1.1737 -11.47126,0.6135 l -10.6437,-0.7132 0,4.6364 0,4.6365 -29.940992,0 c -18.88196,0 -30.16926,-0.3694 -30.55901,-1 -0.33992,-0.55 -1.6613797,-1 -2.9365797,-1 -3.54135,0 -4.91558,-2.3738 -4.20175,-7.2581 2.04172,-13.9699 2.60568,-16.1027 4.92212,-18.6145 3.3381997,-3.6197 3.8221497,-5.5311 2.0434597,-8.0705 -1.2276297,-1.7527 -1.2989797,-2.7109 -0.36907,-4.9559 0.63404,-1.5307 0.93983,-4.0921 0.67954,-5.692 -0.26029,-1.6 -0.51027,-3.2452 -0.55549,-3.6561 -0.0452,-0.4109 -1.7333897,-2.57474 -3.7514797,-4.80851 -3.28445,-3.6355 -3.65689,-4.60356 -3.55149,-9.23104 0.0682,-2.99194 -0.43543,-5.81069 -1.19547,-6.69147 -2.29240998,-2.65659 -2.59163998,-8.29393 -0.57258,-10.78736 2.08607,-2.57619 3.18741,-2.91566 2.34606,-0.72314 -0.40625,1.05867 -0.12049,1.33503 0.95407,0.92268 1.31175,-0.50336 2.74335,-2.73166 2.8487,-4.43402 0.0896,-1.44757 3.2809497,-1.97085 12.1041397,-1.98469 l 9.76419,-0.0153 -2.76419,-4.179 c -6.91928,-10.46082 -0.35558,-22.821 12.11877,-22.821 3.65384,0 4.60364,-0.3824 5.13895,-2.069 0.78454,-2.47189 6.10842,-5.92202 9.14631,-5.92726 5.36795,-0.009 5.33179,0.11996 5.33179,-19.05171 0,-10.81064 -0.39382,-18.07739 -1,-18.45203 -1.4193,-0.87718 -1.29724,-21.80276 0.13553,-23.23554 1.66764,-1.66763 1.77229,-25.44804 0.11447,-26.00852 -1.74996,-0.59163 -1.5578,-4.85655 0.35,-7.76822 1.01632,-1.5511 1.6,-4.62465 1.6,-8.42536 0,-3.90873 0.48544,-6.38634 1.4,-7.14535 0.77,-0.63905 1.4,-1.9517 1.4,-2.91701 0,-0.96531 0.695,-2.33191 1.54445,-3.0369 1.70941,-1.41867 1.27564,-5.16462 -1.13254,-9.78046 -0.84092,-1.61181 -1.40205,-5.73059 -1.40575,-10.31833 -0.004,-4.71896 -0.56189,-8.70687 -1.461,-10.4399 -1.62188,-3.12618 -1.19923,-9.94586 0.92493,-14.92441 2.50328,-5.86711 2.61834,-8.11 0.51373,-10.01464 -1.69359,-1.53268 -1.98382,-3.08936 -1.98382,-10.64035 0,-5.23001 0.4087,-8.84501 1,-8.84501 0.55,0 1,-2.44844 1,-5.44098 0,-2.99254 -0.45,-5.7191 -1,-6.05902 -0.55,-0.33992 -1,-4.64148 -1,-9.55902 0,-5.29399 0.40789,-8.94098 1,-8.94098 0.57185,0 1,-3.01046 1,-7.03138 0,-5.32763 -0.36346,-7.17086 -1.5,-7.60699 -1.90186,-0.72981 -1.89971,-3.0716 0.006,-6.72594 1.81657,-3.48311 1.95827,-9.28057 0.24384,-9.97623 -0.89206,-0.36196 -0.93407,-0.74377 -0.14673,-1.33333 0.63388,-0.47465 1.34604,-5.87793 1.67387,-12.7 0.31383,-6.53063 1.05485,-12.35813 1.64673,-12.95 1.39075,-1.39076 1.39337,-5.40372 0.004,-5.8669 -0.58977,-0.19659 -1.15448,-2.63094 -1.25491,-5.40967 -0.17703,-4.89775 -2.09536,-8.39956 -4.60137,-8.39956 -1.50573,0 -1.34299,-5.73376 0.17857,-6.29167 1,-0.36666 1,-0.72333 0,-1.78333 -1.99477,-2.11446 -1.47029,-4.33977 1.75,-7.425 1.65,-1.5808 3,-3.42852 3,-4.10605 0,-1.64236 3.30057,-7.37962 4.25,-7.38763 0.4125,-0.003 0.75,-0.72169 0.75,-1.59603 0,-1.76756 3.804452,-5.32524 5.750002,-5.37702 0.6875,-0.0183 1.25,-0.44752 1.25,-0.95381 0,-0.5063 1.24915,-1.19491 2.77589,-1.53024 1.52673,-0.33533 3.21424,-1.60858 3.75,-2.82945 0.53576,-1.22087 1.98661,-2.36357 3.22411,-2.53932 1.2375,-0.17575 2.25,-0.96325 2.25,-1.75 0,-0.78675 0.59081,-1.43045 1.31291,-1.43045 0.7221,0 2.60629,-1.35 4.18709,-3 1.5808,-1.65 3.63489,-3 4.56465,-3 0.92975,0 2.25066,-0.675 2.93535,-1.5 0.684692,-0.825 1.808542,-1.5 2.497442,-1.5 1.29611,0 2.50256,-4.28474 2.50256,-8.88787 0,-1.7359 0.74138,-2.9754 2.1682,-3.625 1.19252,-0.54292 2.65502,-1.88713 3.25,-2.98713 0.59499,-1.1 1.33962,-2.225 1.65474,-2.5 0.31512,-0.275 0.89909,-1.175 1.29771,-2 0.39862,-0.825 1.82953,-3.3 3.17978,-5.5 1.35026,-2.2 2.70649,-4.69272 3.01384,-5.53937 0.30736,-0.84666 1.50683,-1.97166 2.66549,-2.5 1.15866,-0.52835 2.59346,-1.86063 3.18844,-2.96063 0.59499,-1.1 1.6443,-2.35986 2.3318,-2.79969 0.6875,-0.43983 1.25,-1.90233 1.25,-3.25 0,-1.34767 0.41425,-2.45031 0.92054,-2.45031 0.5063,0 1.21706,-1.35 1.57946,-3 0.3624,-1.65 1.18566,-2.99997 1.82946,-2.99992 1.78326,1.1e-4 1.44464,-77.36242 -0.34807,-79.52251 -0.98212,-1.18337 -1.01583,-1.84313 -0.13901,-2.71995 1.42097,-1.42097 1.52156,-5.41466 0.15762,-6.25762 -1.37978,-0.85275 -1.26083,-7.83917 0.15762,-9.25762 0.81628,-0.81628 0.84766,-1.53869 0.10642,-2.45 -0.64208,-0.7894 -1.11154,-8.88157 -1.20623,-20.79238 -0.0853,-10.725 -0.39413,-20.46146 -0.68636,-21.63657 -0.34972,-1.40629 0.21684,-2.83359 1.65755,-4.17582 2.01623,-1.87841 2.13118,-2.61379 1.45738,-9.32326 -0.40233,-4.0062 -1.23885,-8.14837 -1.85894,-9.20483 -0.85885,-1.46323 -0.82965,-2.02867 0.12256,-2.37351 1.64744,-0.59661 1.68951,-12.4465 0.05,-14.08601 -0.93333,-0.93333 -0.93333,-1.46667 0,-2.4 1.533,-1.533 1.54565,-5.05435 0.0236,-6.57637 -0.90183,-0.90183 -0.75259,-1.64465 0.63948,-3.18287 1.57105,-1.73599 1.72154,-3.05363 1.11626,-9.77363 -0.61836,-6.86525 -1.04,-8.07903 -3.63128,-10.45327 -2.78467,-2.55144 -2.9244,-3.06956 -2.78636,-10.3321 0.0953,-5.01628 0.62216,-8.12279 1.53172,-9.03235 0.89682,-0.89682 1.59969,-4.88771 1.99045,-11.30171 l 0.60406,-9.91532 4.49559,-0.61619 c 2.47261,-0.3389 9.15782,-0.61619 14.85605,-0.61619 6.24029,0 10.36043,-0.39768 10.36043,-1 0,-0.55 1.2949,-1 2.87756,-1 1.58265,0 3.43775,-0.675 4.12244,-1.5 0.68469,-0.825 1.87891,-1.5 2.65383,-1.5 0.77492,0 1.66796,-0.675 1.98454,-1.5 0.31659,-0.825 1.13272,-1.5 1.81363,-1.5 0.68091,0 2.05251,-0.9 3.048,-2 0.99549,-1.1 2.41523,-2 3.15499,-2 0.73975,0 1.34501,-0.45 1.34501,-1 0,-0.55 0.5755,-1 1.27889,-1 0.70339,0 4.17789,-2.925 7.72111,-6.5 3.54322,-3.575 6.83915,-6.5 7.32428,-6.5 0.48513,0 4.00097,-3.15 7.81297,-7 3.81201,-3.85 7.36558,-7 7.89683,-7 0.53126,0 0.96592,-0.675 0.96592,-1.5 0,-0.825 0.58672,-1.5 1.30383,-1.5 0.71711,0 2.83039,-1.575 4.69617,-3.5 1.86578,-1.925 3.74891,-3.5 4.18474,-3.5 1.36507,0 4.81526,-3.38354 4.81526,-4.72224 0,-0.70277 0.5109,-1.27776 1.13533,-1.27776 0.62443,0 2.08693,-1.0125 3.25,-2.25 1.16307,-1.2375 3.35217,-3.04787 4.86467,-4.02305 1.5125,-0.97518 2.75,-2.43768 2.75,-3.25 0,-0.81232 0.60526,-1.47695 1.34501,-1.47695 0.73976,0 2.1595,-0.9 3.15499,-2 0.99549,-1.1 2.25113,-2 2.79032,-2 0.53918,0 2.02295,-1.125 3.29726,-2.5 1.27431,-1.375 2.70013,-2.5 3.1685,-2.5 0.46837,0 2.37814,-1.575 4.24392,-3.5 1.86578,-1.925 3.79897,-3.5 4.29596,-3.5 0.497,0 4.70288,-3.825 9.34642,-8.5 4.64353,-4.675 8.87362,-8.5 9.4002,-8.5 0.52658,0 0.95742,-0.45 0.95742,-1 0,-1.29694 3.70306,-5 5,-5 0.55,0 1.02081,-0.5625 1.04624,-1.25 0.0254,-0.6875 1.19944,-2.15 2.60891,-3.25 6.90749,-5.39086 9.34485,-7.85602 9.34485,-9.45141 0,-1.26934 0.85409,-1.76851 3.13701,-1.83342 4.02921,-0.11456 5.61289,-1.60667 3.89816,-3.67279 -1.79888,-2.16751 0.33805,-4.54238 4.08727,-4.54238 1.89116,0 2.87756,-0.51418 2.87756,-1.5 0,-0.825 0.8449,-1.5 1.87756,-1.5 2.51018,0 3.80088,-1.73697 4.64424,-6.25001 0.38543,-2.0625 1.26434,-3.75 1.95313,-3.75 0.79352,0 1.25234,-1.45933 1.25234,-3.98323 0,-2.19077 0.58229,-4.68485 1.29398,-5.54238 0.98012,-1.18096 1.01319,-1.83995 0.13637,-2.71677 C 325.97492,57.23913 326.00377,54 327.53581,54 c 0.93333,0 0.93333,-0.26667 0,-1.2 -0.72821,-0.7282 -1.2,-4.26667 -1.2,-9 0,-6.844444 -0.22051,-7.8 -1.8,-7.8 -0.99,0 -2.39625,0.5625 -3.125,1.25 -1.06,1 -1.41667,1 -1.78333,0 -0.25209,-0.6875 -1.47084,-1.25 -2.70834,-1.25 -1.2375,0 -2.54266,-0.292667 -2.90037,-0.650371 -0.3577,-0.357704 -3.01238,-0.695204 -5.89928,-0.75 -4.29574,-0.08154 -5.31534,-0.441059 -5.61469,-1.979802 -0.20118,-1.034095 0.1775,-2.215938 0.84151,-2.626318 0.66401,-0.410381 1.44181,-2.826803 1.72845,-5.369828 0.55694,-4.941134 1.28269,-5.382798 5.35408,-3.258258 1.42617,0.744206 4.23867,1.661824 6.25,2.039152 2.21894,0.416274 3.65697,1.25808 3.65697,2.140738 0,0.800078 0.52707,1.454687 1.17126,1.454687 0.64419,0 1.99419,0.744744 3,1.654988 1.71639,1.55331 1.82874,1.526217 1.82874,-0.440983 0,-1.152784 0.45,-2.374086 1,-2.714005 0.55,-0.339919 1,-1.491476 1,-2.559017 0,-1.067541 -0.45,-1.940983 -1,-1.940983 -0.55,0 -1,-0.7301 -1,-1.622445 0,-1.27437 -0.29922,-1.374111 -1.39474,-0.464913 -0.76711,0.636642 -1.77961,1.070301 -2.25,0.963686 -0.47039,-0.106615 -1.61003,0.138183 -2.53253,0.543995 -2.64242,1.162411 -6.26997,0.249314 -6.63584,-1.670323 -0.23085,-1.211211 0.3048,-1.75 1.73979,-1.75 1.14032,0 2.07332,-0.45 2.07332,-1 0,-0.55 1.2949,-1 2.87756,-1 1.58265,0 3.43775,-0.675 4.12244,-1.5 0.81682,-0.984206 0.87089,-1.5 0.15724,-1.5 -0.59821,0 -2.56581,-1.274078 -4.37244,-2.831285 -1.80664,-1.557207 -4.0723,-3.118084 -5.0348,-3.468616 -0.9625,-0.350531 -1.75,-1.326453 -1.75,-2.168714 0,-2.48728 3.41265,-1.753889 6.41345,1.378276 1.5332,1.600313 3.6881,3.145137 4.78867,3.432943 1.7551,0.45897 1.95332,0.114556 1.61279,-2.80234 C 325.73607,1.988537 327.54831,0 331.1998,0 c 3.06054,0 4.26452,2.344144 3.53789,6.888237 -0.68773,4.300804 0.33941,5.333337 2.59812,2.611763 0.68469,-0.825 1.86479,-1.5 2.62244,-1.5 0.75766,0 1.37756,-0.45 1.37756,-1 0,-1.518744 2.59366,-1.194537 4,0.5 0.8601,1.036363 0.89795,1.5 0.12244,1.5 -0.61734,0 -1.12244,0.605256 -1.12244,1.345012 0,0.739757 -0.9,2.159502 -2,3.154988 -2.7862,2.521473 -2.5396,3.537833 1.74996,7.212453 3.32539,2.848681 3.50194,3.216706 1.55906,3.25 -1.20504,0.02065 -2.47364,-0.419793 -2.8191,-0.978765 -0.34546,-0.558971 -1.04702,-0.757414 -1.55902,-0.440983 -0.51199,0.316431 -0.93441,0.211271 -0.9387,-0.233688 -0.0158,-1.636933 -5.24691,-3.342516 -6.65852,-2.17098 C 330.27667,22.953825 334.26854,32 338.9039,32 c 1.33755,0 2.43191,-0.45 2.43191,-1 0,-0.55 1.35,-1 3,-1 1.88759,0 3,0.512959 3,1.383369 0,0.760852 0.9334,1.627457 2.07421,1.925787 1.14082,0.29833 2.312,1.451712 2.60263,2.563071 0.29062,1.111359 1.26973,2.217554 2.17579,2.458211 0.90605,0.240658 0.21143,0.48976 -1.54361,0.553561 -1.75504,0.0638 -3.4691,0.566001 -3.80902,1.116001 -0.8066,1.305099 -11.5,1.305099 -11.5,0 0,-0.55 -0.64041,-1 -1.42313,-1 -1.16778,0 -1.38626,2.309374 -1.2176,12.87033 0.19656,12.30758 0.32426,13.02598 2.92074,16.43013 1.49336,1.9579 3.71751,3.70375 4.94256,3.87967 1.22505,0.17593 2.74443,1.36107 3.37641,2.63364 1.40842,2.83609 6.437,8.18624 7.69421,8.18624 0.50545,0 2.55876,1.27524 4.56291,2.83386 2.00414,1.55862 4.4314,3.11949 5.3939,3.46861 0.9625,0.34912 1.75,1.23969 1.75,1.97905 0,1.61062 4.94878,6.51466 8.18623,8.11222 1.27257,0.62797 2.75798,2.14628 3.3009,3.37401 0.54292,1.22774 1.45701,2.23225 2.0313,2.23225 1.45775,0 12.48157,11.28651 12.48157,12.779 0,1.5464 1.25443,1.56657 2.77637,0.0446 0.90183,-0.90183 1.60868,-0.78514 3.02874,0.5 1.01881,0.922 2.26694,1.68686 2.77363,1.69967 0.50669,0.0128 5.80705,4.73782 11.77858,10.5 5.97152,5.76222 11.29268,10.47673 11.82479,10.47673 0.53212,0 4.55781,3.2625 8.94599,7.25 4.38818,3.9875 8.51703,7.43251 9.17521,7.65558 0.65818,0.22307 2.58917,1.46057 4.29108,2.75 1.70192,1.28943 3.63084,2.34442 4.28651,2.34442 0.65566,0 5.3698,4.08068 10.47587,9.06818 5.10607,4.9875 10.36827,9.60887 11.69379,10.26971 1.32551,0.66084 2.88646,2.15716 3.46877,3.32517 2.24172,4.49644 3.23892,5.02089 8.71502,4.58344 l 5.2656,-0.42064 7.9197,7.59848 c 7.4509,7.14865 12.3372,10.57566 15.079,10.57566 0.6553,0 2.0059,0.9 3.0013,2 0.9955,1.1 2.8387,2 4.096,2 1.2573,0 2.5326,0.39899 2.834,0.88664 0.3014,0.48765 2.1279,1.18304 4.059,1.54531 1.9372,0.36343 3.511,1.25846 3.511,1.99673 0,0.73593 0.7875,1.60248 1.75,1.92566 0.9625,0.32318 2.425,1.00113 3.25,1.50656 0.825,0.50543 3.3,1.75599 5.5,2.77903 2.2,1.02304 5.3925,2.87257 7.0944,4.11007 1.702,1.2375 3.7844,2.25 4.6276,2.25 0.8432,0 2.0876,0.66808 2.7653,1.48463 1.0689,1.28797 6.2016,4.05711 11.0127,5.94146 0.825,0.32312 3.3,1.68992 5.5,3.03733 2.2,1.34741 4.9174,2.46935 6.0386,2.49321 2.6304,0.056 9.1125,3.36689 12.1163,6.18882 2.3231,2.18249 3.2091,5.85455 1.4125,5.85455 -2.0132,0 -2.0709,4.00057 -0.1104,7.6585 2.2847,4.26283 2.7298,11.81102 0.769,13.04181 -2.4396,1.53138 -4.4809,5.8823 -5.1947,11.07278 -0.3953,2.87357 -1.1265,5.47674 -1.6249,5.78481 -1.2393,0.7659 -1.1536,17.17124 0.094,17.9421 1.4198,0.87753 1.2418,10.13991 -0.2406,12.51357 -0.9874,1.58107 -0.9874,2.39179 0,3.97286 1.6221,2.59743 1.6915,21.16266 0.085,22.76908 -0.8105,0.8105 -1.2061,9.51137 -1.3251,29.14069 -0.1938,31.97492 0.1236,35.95752 2.9806,37.40554 1.1,0.55751 2.675,1.39555 3.5,1.86232 0.825,0.46677 2.175,1.10365 3,1.4153 0.825,0.31165 2.1898,0.92657 3.0328,1.36648 0.8431,0.43992 2.981,1.11791 4.7509,1.50665 3.459,0.75972 11.7644,4.88461 14.2163,7.06052 0.825,0.73214 2.7844,1.65177 4.3541,2.04361 1.5697,0.39184 4.852,1.77474 7.2939,3.07311 2.4419,1.29837 6.23,2.64694 8.4181,2.99682 2.188,0.34989 4.2038,1.00105 4.4794,1.44702 0.2756,0.44598 2.6282,1.11864 5.2278,1.4948 2.5997,0.37615 5.1767,1.02163 5.7267,1.43438 0.55,0.41276 3.5804,1.06249 6.7343,1.44384 3.1538,0.38136 5.9929,1.11189 6.309,1.6234 0.3161,0.5115 1.7981,0.93001 3.2932,0.93001 1.4952,0 3.6291,0.63782 4.7421,1.41737 1.113,0.77955 3.672,1.72662 5.6869,2.1046 2.0148,0.37799 4.1844,1.31517 4.8213,2.08264 0.637,0.76746 2.4265,1.39539 3.9767,1.39539 1.5501,0 3.0548,0.38238 3.3437,0.84973 0.2888,0.46735 5.6028,1.1046 11.809,1.41611 7.3711,0.36999 12.3241,1.11347 14.2838,2.14411 1.65,0.86775 4.436,1.5805 6.191,1.58389 1.755,0.003 3.4363,0.40307 3.7361,0.88817 0.2998,0.48511 3.5889,1.20438 7.309,1.59838 3.7202,0.394 7.225,1.09299 7.7885,1.55331 0.5635,0.46032 9.4663,1.1588 19.784,1.55217 10.3177,0.39337 18.9957,1.09747 19.2845,1.56467 0.7424,1.20119 10.4069,1.06138 10.4069,-0.15054 0,-0.59533 3.7817,-1 9.3451,-1 7.6718,0 9.6089,0.31333 10.8189,1.75 2.4884,2.95451 10.836,21.03026 10.836,23.46404 0,0.77648 1.3293,2.68527 2.9539,4.24176 1.6246,1.55649 3.6707,4.34068 4.5469,6.18709 1.3463,2.83716 2.1188,3.35711 4.9871,3.35711 1.8668,0 3.6722,0.45 4.0121,1 0.34,0.55 2.054,1.00277 3.8091,1.00616 1.755,0.003 4.5209,0.69967 6.1464,1.54729 1.6255,0.84763 5.0005,1.80702 7.5,2.13199 2.4995,0.32497 4.9945,0.93658 5.5445,1.35912 0.55,0.42255 3.25,1.09215 6,1.488 2.75,0.39585 5.5355,1.14562 6.1899,1.66615 0.6545,0.52054 4.7045,1.2041 9,1.51904 4.2956,0.31493 8.6978,1.18228 9.7827,1.92743 1.0848,0.74515 3.0034,1.35482 4.2635,1.35482 1.2601,0 3.0725,0.38379 4.0275,0.85286 5.4671,2.68519 9.0669,4.15569 11.6698,4.76704 1.6133,0.37892 4.0883,1.29169 5.5,2.02836 1.4117,0.73668 4.4791,1.34219 6.8166,1.34558 2.3375,0.003 4.25,0.38955 4.25,0.85814 0,0.46859 4.0839,1.11656 9.0752,1.43993 4.9913,0.32338 9.6038,1.00421 10.25,1.51297 0.6462,0.50876 3.1522,1.17667 5.569,1.48424 2.4167,0.30758 4.7623,1.15585 5.2124,1.88505 0.5994,0.9713 4.3579,1.39253 14.05533,1.57525 7.2803,0.13719 13.6872,0.69969 14.2375,1.25 1.2963,1.2963 4.6006,1.29671 4.6006,5.8e-4 0,-0.55 1.9622,-1 4.3604,-1 2.3983,0 6.44831,-0.28617 9.00001,-0.63592 3.9937,-0.5474 4.6396,-0.95684 4.6396,-2.94099 0,-1.26778 0.4573,-2.58771 1.0163,-2.93317 1.4859,-0.91831 0.1759,-2.48992 -2.0753,-2.48992 -1.0676,0 -1.941,-0.675 -1.941,-1.5 0,-0.825 -0.4142,-1.5 -0.9205,-1.5 -0.5063,0 -1.2171,-1.35 -1.5795,-3 -0.5407,-2.46157 -1.1611,-3 -3.457,-3 -3.76241,0 -5.84241,-2.49027 -4.23281,-5.06763 0.6544,-1.04788 1.1898,-3.03634 1.1898,-4.4188 0,-1.39954 0.5779,-2.51357 1.3038,-2.51357 1.57531,0 7.69621,-6.13837 7.69621,-7.71815 0,-0.61762 1.35,-1.41945 3,-1.78185 2.3256,-0.51079 3,-1.20305 3,-3.07946 0,-1.33129 -0.5625,-2.42331 -1.25,-2.4267 -0.6875,-0.003 0.048,-0.68316 1.6348,-1.51061 2.1765,-1.13508 3.2199,-1.22627 4.25,-0.37139 1.0031,0.83254 1.3652,0.83535 1.3652,0.0106 0,-0.61734 0.675,-1.12244 1.5,-1.12244 0.825,0 1.5,0.42149 1.5,0.93664 0,0.51515 1.4625,1.07765 3.25,1.25 2.8577,0.27554 3.2878,0.70564 3.5634,3.56336 0.1941,2.01311 0.8601,3.25 1.75,3.25 0.7901,0 1.4366,0.62252 1.4366,1.38337 0,0.76085 0.9334,1.62746 2.0742,1.92579 1.1408,0.29833 2.3183,1.47581 2.6166,2.61663 0.3874,1.48131 1.3498,2.07421 3.3668,2.07421 3.7037,0 4.1518,0.9404 3.3454,7.01941 -0.5903,4.4504 -1.0009,5.15018 -3.2907,5.60812 -1.7878,0.35757 -3.2086,1.7413 -4.4874,4.37036 -1.2272,2.52292 -2.7735,4.07358 -4.4925,4.50501 -4.4226,1.11001 -5.1324,2.35506 -5.1324,9.00291 0,5.40728 0.271,6.33181 1.988,6.78079 1.0933,0.28593 2.398,1.57591 2.8993,2.86663 1.4094,3.62896 6.8366,8.39753 13.091,11.50215 0.8131,0.4036 2.5406,1.99624 3.8389,3.53922 1.2983,1.54297 2.8237,2.8054 3.3897,2.8054 0.566,0 2.5666,1.35 4.4459,3 1.8792,1.65 3.8511,3 4.382,3 0.5309,0 0.9652,0.44914 0.9652,0.99808 0,0.54895 4.0461,5.16145 8.9913,10.25 4.9452,5.08856 8.9952,9.78987 9,10.44735 0,0.65749 1.233,1.78249 2.7294,2.5 1.4964,0.71752 3.2466,2.35959 3.8894,3.64907 1.9631,3.93856 8.5446,10.03056 11.5495,10.69055 1.5622,0.34312 2.8404,0.98932 2.8404,1.436 0,0.44667 1.1929,1.11153 2.6508,1.47745 1.458,0.36593 3.4759,1.71414 4.4842,2.99603 1.0084,1.2819 3.0115,2.6264 4.4514,2.98779 1.4398,0.36139 3.737,1.98696 5.1047,3.61237 1.3677,1.62542 2.9846,2.95531 3.5931,2.95531 1.5154,0 6.7158,5.09199 6.7158,6.5758 0,0.66089 1.575,1.49709 3.5,1.85822 1.925,0.36113 3.5,1.13857 3.5,1.72764 0,1.09428 10.6319,13.07437 12.1257,13.66334 2.2869,0.90166 8.0557,7.83186 8.5415,10.26121 0.3051,1.52554 1.6298,3.78366 2.9438,5.01806 1.3139,1.2344 2.389,2.85504 2.389,3.60143 0,0.74639 0.7875,1.63706 1.75,1.97926 0.9625,0.34221 4.7492,3.25309 8.4149,6.46862 3.6657,3.21553 7.1532,5.84642 7.75,5.84642 0.5968,0 1.0851,0.675 1.0851,1.5 0,0.825 0.6053,1.5 1.345,1.5 1.9355,0 4.655,3.31463 4.655,5.67375 0,2.528 -2.6043,4.84386 -6.49,5.77123 -1.6445,0.39247 -3.2195,1.0258 -3.5,1.4074 -0.9779,1.33036 -5.9499,4.14762 -7.3198,4.14762 -0.7591,0 -2.1947,0.9 -3.1902,2 -0.9955,1.1 -2.4152,2 -3.155,2 -0.7397,0 -1.345,0.39752 -1.345,0.88337 0,0.48585 -0.7875,1.15963 -1.75,1.49728 -0.9625,0.33764 -3.5092,1.62763 -5.6593,2.86663 l -3.9092,2.25272 -0.4144,19.98622 c -0.2278,10.99242 -0.7769,20.44242 -1.2201,21 -0.4431,0.55758 -1.013,7.01773 -1.2664,14.35589 -0.3234,9.36645 -0.8434,13.57864 -1.745,14.13588 -0.9943,0.61449 -1.3942,9.23293 -1.7708,38.15789 -0.3358,25.79534 -0.8391,37.79872 -1.6256,38.76778 -1.5107,1.86141 -1.5721,31.56336 -0.068,33.0672 0.589,0.58902 4.0753,1.3515 7.7474,1.6944 3.688,0.34439 7.18,1.23025 7.8015,1.9791 0.8682,1.04612 0.7546,1.35564 -0.4974,1.35564 -1.1218,0 -1.6224,0.89057 -1.6224,2.8865 0,2.35363 0.5077,2.98445 2.75,3.41705 7.1093,1.37159 21.6696,7.22691 29.6033,11.90477 2.709,1.5973 6.7753,3.2648 9.0361,3.70556 3.909,0.76209 9.9999,3.56535 19.7194,9.07565 3.4244,1.9414 5.8223,2.4921 10.8912,2.50124 4.3484,0.008 7.7627,0.63846 10.3147,1.90512 3.3646,1.67 4.4266,1.75353 9,0.70798 2.8519,-0.65198 7.8415,-2.50119 11.0879,-4.10936 3.2464,-1.60817 6.2473,-2.71089 6.6686,-2.4505 0.9205,0.5689 1.8207,-3.24552 2.3703,-10.04401 0.5416,-6.69916 0.6869,-36.55707 0.2384,-49 -0.7036,-19.51951 -0.7113,-24.21447 -0.071,-43.13691 l 0.6477,-19.13691 -5.8784,-0.58638 c -3.2331,-0.32251 -7.7882,-0.57016 -10.1223,-0.55033 -2.3342,0.0198 -4.7237,-0.26042 -5.31,-0.62278 -1.4088,-0.87067 -0.1959,-11.2333 1.6598,-14.18151 0.7668,-1.21815 1.3941,-3.28487 1.3941,-4.59271 0,-1.30785 1.0125,-4.20326 2.25,-6.43425 7.0211,-12.65781 9.9949,-17.64601 11.2952,-18.94625 0.8001,-0.80015 1.4548,-2.14075 1.4548,-2.97911 0,-3.8606 7.3132,-13.35833 12.2942,-15.96673 1.5368,-0.80477 3.6319,-2.84063 4.6557,-4.52411 1.0238,-1.68349 3.71,-5.00048 5.9693,-7.37109 2.2593,-2.37061 5.6177,-6.55375 7.463,-9.29587 3.8731,-5.75541 7.6765,-9.63768 12.9073,-13.17506 2.0333,-1.375 3.6999,-2.80536 3.7037,-3.17857 0,-0.37322 0.724,-1.39573 1.6005,-2.27226 0.8765,-0.87652 2.4717,-5.21109 3.5449,-9.63238 1.3783,-5.67861 3.4793,-10.54009 7.1563,-16.55869 8.1373,-13.31954 8.47,-13.92401 10.7615,-19.54986 3.0675,-7.53075 5.3234,-12.2186 6.1915,-12.86595 0.4113,-0.30674 4.5603,-4.21322 9.22,-8.68106 4.6597,-4.46785 9.5848,-8.71688 10.9447,-9.4423 3.4587,-1.84489 9.811,-5.01066 18.5874,-9.26324 7.6294,-3.69681 8.4105,-4.12998 15.4835,-8.58626 5.1315,-3.23306 7.6328,-4.41542 15.0165,-7.09827 3.3,-1.19904 6.9,-2.73203 8,-3.40665 1.1,-0.67462 3.3407,-1.53958 4.9793,-1.92214 1.6386,-0.38255 7.126,-3.13609 12.1944,-6.11896 5.0683,-2.98288 9.5776,-5.42618 10.0207,-5.42957 0.4431,-0.003 2.1556,-0.74659 3.8056,-1.65155 14.3888,-7.89168 23.6057,-12.1274 25.3799,-11.66346 1.5388,0.40241 2.1774,-0.0588 2.6415,-1.90788 0.8692,-3.46345 0,-44.11459 -0.9746,-45.69515 -2.141,-3.46426 -2.3351,-8.07519 -0.4413,-10.48277 1.042,-1.32467 1.8945,-3.76511 1.8945,-5.42321 0,-2.52969 0.536,-3.19162 3.3317,-4.11426 1.8324,-0.60475 6.6,-3.11465 10.5947,-5.57755 3.9947,-2.46291 7.4884,-4.47801 7.7638,-4.47801 0.2753,0 4.134,-2.5029 8.5749,-5.56199 6.5983,-4.54522 8.7289,-5.51664 11.6546,-5.31386 1.9692,0.13648 4.0303,0.55885 4.5803,0.9386 0.55,0.37976 3.7,1.04635 7,1.48133 3.3,0.43498 6.45,0.87196 7,0.97108 0.55,0.0991 2.3765,0.24875 4.0589,0.33253 4.2168,0.20997 6.4851,2.13227 7.3173,6.20117 0.3882,1.89812 1.1373,3.48783 1.6648,3.53267 0.5274,0.0448 2.1663,0.42355 3.6419,0.84157 5.1931,1.47113 8.3379,13.4154 4.1791,15.87218 -0.7404,0.43741 -2.5198,3.27595 -3.9541,6.30788 -2.2541,4.76476 -2.5838,6.69174 -2.4304,14.20471 0.098,4.78067 0.1429,10.15463 0.1006,11.94213 -0.095,4.01132 0.7588,4.07346 4.3576,0.31716 1.7159,-1.79106 4.3047,-3.1854 6.6496,-3.58157 3.6578,-0.61799 5.8242,-1.99349 15.7498,-9.99995 l 4.3352,-3.49693 1.8002,2.22321 c 1.5942,1.96877 1.9982,2.05896 3.5295,0.78808 1.5348,-1.27376 1.9459,-1.16754 3.6563,0.94468 l 1.9271,2.37982 3.7504,-3.66225 c 2.0628,-2.01424 4.2129,-3.66225 4.778,-3.66225 0.5652,0 2.0057,1.125 3.2013,2.5 2.6272,3.02158 4.5697,3.15292 7.4158,0.50141 l 2.1452,-1.99859 2.3424,2.20059 c 1.2884,1.21033 2.1183,2.78469 1.8444,3.49859 -0.274,0.7139 0.1469,1.298 0.9353,1.298 0.7884,0 1.8625,0.80178 2.387,1.78173 0.5244,0.97995 4.3653,3.49073 8.5352,5.57949 4.1699,2.08877 7.588,4.09949 7.5957,4.46827 0.01,0.36878 1.8078,2.65937 4,5.0902 2.1923,2.43082 3.9859,4.93988 3.9859,5.57568 0,0.6358 1.1688,2.24694 2.5973,3.58032 1.4285,1.33337 3.4878,4.1611 4.5762,6.28385 1.0884,2.12275 3.5196,5.40025 5.4027,7.28333 2.1575,2.15752 3.4238,4.39364 3.4238,6.04607 0,1.44225 1.1547,4.13623 2.5661,5.98662 1.4114,1.85039 2.8202,4.93036 3.1309,6.84439 0.3106,1.91403 0.9029,3.48005 1.3162,3.48005 1.7368,0 8.901,8.33275 9.4969,11.04598 0.3561,1.62146 2.549,5.53693 4.8729,8.70106 5.0897,6.92966 6.6176,9.70537 10.1735,18.48291 2.0518,5.06465 3.8552,7.66283 7.2878,10.5 2.5087,2.07353 5.9325,5.30812 7.6085,7.18798 1.6759,1.87987 3.8347,4.24237 4.7972,5.25 0.9625,1.00764 1.75,2.05584 1.75,2.32934 0,0.2735 3.117,4.661 6.9267,9.75 5.9354,7.92842 13.8991,16.10534 24.0733,24.71774 5.969,5.05276 7.6961,6.76181 10.6462,10.53499 2.3037,2.94652 4.4082,4.37578 7.9906,5.42681 6.1642,1.80852 17.3925,7.55485 19.3823,9.91938 0.8356,0.99284 2.7481,2.61037 4.25,3.5945 1.502,0.98413 2.7309,2.21972 2.7309,2.74575 0,0.52603 0.5625,1.58517 1.25,2.35364 0.6875,0.76847 2.375,2.83348 3.75,4.5889 1.375,1.75543 3.354,4.08605 4.3978,5.17916 1.7723,1.85603 1.7934,2.19264 0.3187,5.08967 -1.3713,2.69381 -2.9823,7.04804 -3.1827,8.60219 -0.4301,3.33599 -3.7166,3.79358 -6.4183,0.89365 -2.1643,-2.3231 -4.1155,-1.80531 -4.1155,1.09213 0,2.88792 -5.3989,5.09165 -10.879,4.44061 -2.5415,-0.30194 -5.0001,-0.923 -5.4634,-1.38013 -1.1697,-1.15393 -8.938,-0.0792 -10.1576,1.40524 -0.55,0.66947 -2.2846,1.53716 -3.8548,1.9282 -2.3893,0.59508 -2.7391,1.07043 -2.1457,2.91565 0.39,1.21256 0.9404,3.77965 1.2233,5.70465 0.2828,1.925 0.8744,3.95214 1.3146,4.50476 0.8688,1.09055 0.3631,45.24294 -0.5994,52.34132 l -0.5894,4.34608 3.3257,-0.71368 c 4.0381,-0.86656 4.8257,-1.29402 4.8257,-2.6192 0,-0.56248 1.6607,-3.04941 3.6905,-5.52652 3.2781,-4.00039 4.0326,-4.43755 6.75,-3.91092 1.6827,0.32609 3.9595,0.75715 5.0595,0.95791 1.1,0.20075 2,0.46691 2,0.59146 0,0.12455 1.9384,0.3196 4.3076,0.43343 3.2348,0.15542 4.8536,0.84724 6.5,2.77789 1.2058,1.41401 2.9799,2.83727 3.9424,3.16281 2.5234,0.85346 2.3334,5.68933 -0.25,6.36491 -1.4167,0.37046 -2,1.36402 -2,3.40638 0,2.62861 -0.3092,2.88337 -3.5,2.88337 -2.9855,0 -3.5,0.3381 -3.5,2.3 0,2.98959 1.7815,4.7 4.8953,4.7 1.3724,0 3.7574,1.20919 5.3,2.68709 3.5474,3.39867 3.6618,7.54594 0.395,14.31781 -1.3254,2.74731 -2.0379,4.9951 -1.5833,4.9951 0.4545,0 1.0606,-0.5625 1.3468,-1.25 0.3797,-0.91167 0.9026,-0.78055 1.9323,0.48446 0.7764,0.95395 1.7047,1.44145 2.0628,1.08333 0.3581,-0.35812 0.6511,-0.11029 0.6511,0.55073 0,0.87691 0.5211,0.92294 1.9276,0.17025 3.9823,-2.13129 6.0312,0.64547 6.0587,8.21123 0.01,2.36966 0.484,3.75 1.2915,3.75 1.1165,0 3.9834,2.58637 4.4338,4 0.8698,2.73008 1.6795,3.93611 2.9771,4.43402 1.0745,0.41235 1.3603,0.13599 0.954,-0.92268 -0.8413,-2.19252 0.26,-1.85305 2.3461,0.72314 2.019,2.49343 1.7198,8.13077 -0.5726,10.78736 -0.76,0.88078 -1.2636,3.69953 -1.1955,6.69147 0.1054,4.62748 -0.267,5.59554 -3.5515,9.23104 -2.018,2.23377 -3.7062,4.39762 -3.7514,4.80853 -0.045,0.41092 -0.2952,2.05613 -0.5555,3.65604 -0.2603,1.59991 0.045,4.16132 0.6795,5.69203 0.9299,2.24501 0.8586,3.2032 -0.3691,4.95588 -1.7786,2.53944 -1.2947,4.45081 2.0435,8.07055 2.3164,2.51181 2.8804,4.64462 4.9221,18.61457 0.7139,4.8842 -0.6604,7.258 -4.2017,7.258 -1.2752,0 -2.5967,0.45 -2.9366,1 -0.3996,0.6466 -19.5939,1.0001 -54.309,1.0002 -43.5715,2e-4 -55.1683,0.2829 -61.529,1.5 -4.3109,0.8249 -9.6279,1.4998 -11.8157,1.4998 -2.1878,0 -4.8698,0.4775 -5.9601,1.0609 -1.0903,0.5835 -5.6732,1.2633 -10.1843,1.5106 -4.511,0.2473 -10.4519,0.8727 -13.2019,1.3898 -2.75,0.5171 -8.825,1.1834 -13.5,1.4805 -10.7499,0.6834 -27.8786,3.3967 -30.5,4.8315 -5.6931,3.116 -7.6801,3.7855 -12.4169,4.1837 -2.8407,0.2388 -6.0086,0.702 -7.0398,1.0293 -1.0312,0.3273 -2.1807,0.1004 -2.5543,-0.5042 -0.3981,-0.6441 -1.8687,-0.838 -3.5518,-0.4683 -2.551,0.5603 -3.0225,0.2632 -4.213,-2.6545 -1.2797,-3.1363 -1.5558,-3.2721 -6.0875,-2.9934 -3.1763,0.1954 -5.5967,-0.2649 -7.3155,-1.3911 -1.8651,-1.2221 -3.1511,-1.4273 -4.6949,-0.7494 -3.0847,1.3546 -9.8091,0.4052 -12.6628,-1.7878 -2.1246,-1.6327 -2.208,-1.8962 -0.6065,-1.9154 1.2207,-0.015 1.6632,-0.5271 1.2915,-1.4958 -0.311,-0.8104 0.1487,-1.8731 1.0214,-2.3615 1.1369,-0.6362 1.2545,-1.0935 0.4147,-1.6126 -1.4519,-0.8973 -4.2908,1.305 -3.4455,2.6729 0.7911,1.2799 -1.5434,2.7488 -3.2984,2.0753 -1.651,-0.6335 -1.7488,-3.4923 -0.1735,-5.0677 0.8896,-0.8896 0.7735,-1.3183 -0.4884,-1.8025 -2.2618,-0.8679 -11.7155,1.5018 -12.3247,3.0893 -0.2708,0.7059 -1.3312,1.5027 -2.3563,1.7708 -1.333,0.3486 -1.9541,1.587 -2.1808,4.3485 -0.2592,3.1569 -0.7379,3.9208 -2.6248,4.1882 -3.5675,0.5057 -7.4839,-2.5208 -6.9405,-5.3634 0.3708,-1.9397 -0.012,-2.4133 -2.1503,-2.6616 -2.0298,-0.2357 -2.5491,-0.7964 -2.3632,-2.5521 0.1995,-1.8845 -0.2472,-2.25 -2.75,-2.25 -1.886,0 -2.9882,-0.5132 -2.9882,-1.3915 0,-1.8824 -4.566,-2.9111 -7.0412,-1.5864 -1.1001,0.5887 -2.5533,0.7121 -3.2295,0.2742 -2.0693,-1.3403 -5.1598,-0.8893 -6.536,0.9537 -1.9191,2.5701 -3.502,2.1451 -2.941,-0.7896 0.3079,-1.6107 0.076,-2.3957 -0.6334,-2.1462 -0.6154,0.2163 -0.9867,1.1341 -0.8251,2.0396 0.1726,0.9666 -0.3688,1.6462 -1.3112,1.6462 -1.3357,0 -1.4919,-0.7554 -0.9303,-4.5 0.4563,-3.0432 0.3143,-4.5 -0.4388,-4.5 -0.6124,0 -1.182,0.5625 -1.2658,1.25 -0.084,0.6875 -0.2569,1.7 -0.3847,2.25 -0.1277,0.55 -0.2842,1.8775 -0.3477,2.95 -0.089,1.5096 -0.3846,1.6808 -1.3074,0.7579 -1.451,-1.451 -1.9568,-6.9978 -0.7085,-7.7693 1.7563,-1.0854 0.8674,-2.5729 -1.3494,-2.2581 -1.7508,0.2486 -2.2581,0.9837 -2.2864,3.3129 -0.043,3.5444 -2.9097,4.7326 -3.7418,1.5509 -0.3429,-1.3114 -1.0752,-1.8459 -2.0281,-1.4802 -0.8203,0.3148 -1.7895,0.09 -2.1538,-0.4996 -0.3644,-0.5895 -1.7599,-0.7964 -3.1012,-0.4597 -1.4863,0.373 -2.4387,0.1792 -2.4387,-0.4963 0,-0.6097 -0.6053,-1.1085 -1.345,-1.1085 -0.7398,0 -2.1691,-0.9106 -3.1764,-2.0236 -1.2491,-1.3802 -2.1568,-1.6982 -2.855,-1 -0.563,0.563 -2.0035,1.0236 -3.2012,1.0236 -1.1976,0 -2.7665,0.7097 -3.4864,1.5771 -0.9997,1.2046 -2.8005,1.4998 -7.6245,1.25 -3.4736,-0.1799 -6.3148,0.07 -6.3136,0.5546 0,0.4849 -1.7104,0.652 -3.8035,0.3713 -4.0344,-0.5412 -6.378,0.5746 -7.504,3.5727 -0.5476,1.4579 -1.5894,1.7701 -5.1716,1.5498 -3.2646,-0.2007 -5.2392,0.2805 -7.2524,1.7675 -1.5215,1.1238 -5.9164,2.5935 -9.7664,3.266 -14.6995,2.5676 -17.4486,3.2579 -17.2278,4.326 0.3278,1.5852 -4.2328,3.733 -7.9632,3.7503 -1.755,0.01 -3.4414,0.4199 -3.7474,0.9151 -0.3061,0.4952 -5.1701,0.7147 -10.8091,0.4877 -5.6389,-0.227 -12.7275,-0.3306 -15.7525,-0.2302 -3.025,0.1003 -8.425,0.107 -12,0.015 -3.575,-0.092 -8.75,-0.2264 -11.5,-0.2983 -4.4985,-0.1175 -6.4403,-1.039 -6.4847,-3.0775 -0.042,-1.949 7.3881,-3.7816 17.418,-4.2957 6.0132,-0.3083 11.4947,-1.0264 12.1809,-1.5959 0.6862,-0.5695 3.7537,-1.2942 6.8167,-1.6103 5.2105,-0.5378 5.5691,-0.7451 5.5691,-3.2202 0,-2.2491 0.9981,-3.1646 6.6606,-6.1101 13.4499,-6.9962 13.6908,-7.1881 12.7641,-10.16757 -0.3856,-1.23981 0.6048,-2.28166 3.6418,-3.83102 2.9788,-1.51968 3.8637,-2.43591 3.0949,-3.2047 -0.7688,-0.7688 -1.5545,-0.68001 -2.748,0.31054 -1.1036,0.91584 -5.1236,1.51492 -11.8323,1.76326 -8.4227,0.31178 -10.3888,0.10145 -11.4934,-1.22952 -0.8049,-0.96987 -2.769,-1.57438 -4.9601,-1.52669 -3.7905,0.0825 -3.5735,0.31295 1.3202,1.40229 5.862,1.30486 0.3439,2.28714 -10.8186,1.92582 -14.4828,-0.46881 -14.5556,-0.47734 -11.6292,-1.36317 l 2.5,-0.75675 -2.9056,-0.79103 c -2.2784,-0.62028 -3.1986,-0.39024 -4.2633,1.06574 -1.1016,1.50657 -2.7411,1.86713 -8.6927,1.9117 l -7.3349,0.0549 -5.7311,6.7555 c -6.3421,7.4757 -10.5321,9.8093 -17.1619,9.5586 -5.7041,-0.2158 -4.6056,-1.8426 1.2442,-1.8426 2.4952,0 5.8436,-0.772 7.441,-1.7156 4.6536,-2.749 4.0772,-3.2836 -5.0957,-4.7265 -1.925,-0.3028 -5.1875,-0.8364 -7.25,-1.1859 -3.4883,-0.59099 -3.75,-0.46386 -3.75,1.822 0,3.1934 -3.1975,6.1152 -10.0101,9.1471 -3.0194,1.3437 -6.6149,3.6595 -7.9899,5.1461 -3.2046,3.4646 -6.1423,4.8919 -13.1827,6.4049 -7.9989,1.719 -12.7315,0.2762 -18.359,-5.5969 l -4.3968,-4.5888 -7.3357,0.1942 c -6.1297,0.1622 -7.776,-0.1522 -10.014,-1.9127 -4.992,-3.9267 -17.6992,-9.9877 -20.9708,-10.0026 -3.3446,-0.015 -4.6101,-0.5862 -11.5149,-5.19537 -2.233,-1.49056 -5.3348,-3.0135 -6.893,-3.38431 -1.5582,-0.37082 -3.5199,-1.26735 -4.3592,-1.99229 -0.8394,-0.72494 -3.5394,-1.61764 -6,-1.98377 -2.4607,-0.36613 -5.4206,-1.25482 -6.5777,-1.97488 -1.1571,-0.72005 -3.8571,-1.60887 -6,-1.97515 -5.5139,-0.94248 -12.7859,-3.69868 -20.7884,-7.87909 -5.52,-2.88363 -8.0085,-3.60116 -12.5,-3.60416 -3.8056,-0.003 -6.6416,-0.63405 -8.8246,-1.9651 -2.8809,-1.75658 -4.406,-1.89764 -14.6057,-1.35103 -9.3937,0.50342 -11.961,0.32494 -14.6546,-1.01884 -1.7962,-0.89605 -3.6301,-1.40407 -4.0753,-1.12893 -0.4452,0.27515 -1.0921,0.0429 -1.4375,-0.51605 -0.8114,-1.31282 -4.5102,-1.3262 -4.5102,-0.0165 0,1.37072 -3.337,1.26296 -4.7535,-0.1535 -0.6344,-0.63443 -2.5244,-1.11453 -4.2,-1.06689 -1.9505,0.0555 -3.0465,-0.40471 -3.0465,-1.27911 0,-1.71813 -3.3627,-2.83753 -6.0049,-1.99894 -1.3325,0.42292 -2.2069,0.11014 -2.607,-0.93261 -0.6594,-1.71825 -3.3881,-2.17648 -3.3881,-0.56895 0,1.35469 -3.3299,1.27009 -4.7199,-0.11992 -0.6808,-0.68077 -5.6539,-1.17092 -12.6824,-1.25 -6.3594,-0.0715 -11.1204,-0.28008 -10.5801,-0.46341 1.984,-0.67317 0.9,-1.95176 -2.0176,-2.37998 -2.0472,-0.30046 -3,-0.0189 -3,0.8865 0,0.94644 -1.6258,1.32681 -5.6713,1.32681 -3.87381,0 -6.25081,0.52452 -7.50001,1.65499 -1.7016,1.53998 -1.8287,1.53998 -1.8287,0 0,-1.01634 -0.8131,-1.65499 -2.107,-1.65499 -1.462,0 -1.9308,-0.45915 -1.5314,-1.5 0.3166,-0.825 0.1076,-1.5 -0.4644,-1.5 -0.572,0 -1.7239,-0.68381 -2.5596,-1.51957 -1.2241,-1.22405 -1.3074,-2.12824 -0.4286,-4.64923 2.3955,-6.87163 1.894,-7.52098 -6.409,-8.29903 -4.125,-0.38655 -7.5,-1.07866 -7.5,-1.53803 0,-0.45938 -1.35,-1.13174 -3,-1.49414 -1.65003,-0.3624 -3.00003,-1.07316 -3.00003,-1.57946 0,-0.50629 -0.675,-0.92054 -1.5,-0.92054 -0.825,0 -1.5,0.40122 -1.5,0.89159 0,0.49038 -1.1793,1.18759 -2.6208,1.54937 -1.4414,0.36178 -3.2735,1.31056 -4.0714,2.10841 -0.98,0.98005 -3.6333,1.45063 -8.1792,1.45063 -7.2108,0 -10.2843,1.43443 -7.475,3.48862 1.3411,0.98067 1.3834,1.47942 0.2754,3.2536 -1.0115,1.61958 -1.0404,2.41855 -0.1275,3.51859 1.7411,2.09781 0.4554,2.73614 -4.22,2.0953 -3.1132,-0.42671 -4.4944,-0.16596 -5.4927,1.03692 -1.6745,2.01766 -3.0888,2.06664 -3.0888,0.10697 0,-1.15255 -1.2812,-1.5 -5.5313,-1.5 -3.9943,0 -5.6914,0.41683 -6.107,1.5 -0.3166,0.825 -1.5625,1.5 -2.7686,1.5 -1.2062,0 -2.714,0.52093 -3.3507,1.15762 -0.871,0.87101 -1.4996,0.87374 -2.5392,0.011 -2.1998,-1.82573 -9.7032,-2.47172 -9.7032,-0.83539 0,1.94817 -3.017,4.39035 -6.4974,5.25935 -1.6486,0.41163 -4.2739,2.02488 -5.834,3.585 -2.6907,2.6907 -5.2184,2.97198 -4.3906,0.48858 0.2109,-0.63279 -0.5087,-1.60406 -1.5991,-2.15836 -2.1012,-1.06814 -2.7655,-2.06048 -4.8584,-7.25782 -1.3771,-3.41985 -4.3314,-4.33905 -6.6129,-2.05754 -0.7302,0.73016 -4.7317,1.23642 -10.3215,1.30585 -7.3369,0.0911 -9.3721,0.44595 -10.3677,1.80754 -0.6814,0.9318 -1.9767,1.69417 -2.8786,1.69417 -0.9019,0 -1.6398,0.42011 -1.6398,0.93358 0,1.92258 -5.4767,1.59355 -7.2167,-0.43358 -1.7023,-1.98325 -1.717,-1.98018 -1.75,0.36631 -0.033,2.35566 -0.078,2.3645 -10.0333,1.96465 -7.6883,-0.3088 -10,-0.10452 -10,0.88369 0,0.8023 -1.3153,1.28535 -3.5,1.28535 -2.4444,0 -3.5,0.45238 -3.5,1.5 0,1.926 -1.6142,1.94752 -2.3496,0.0313 -0.9125,-2.37809 0.5086,-11.41837 1.988,-12.64618 1.8816,-1.56157 1.7036,-2.88475 -0.3884,-2.88713 -2.264,-0.003 -2.8876,-5.81611 -0.7133,-6.65046 0.8049,-0.30882 1.4633,-1.63836 1.4633,-2.95452 0,-1.99223 -0.5024,-2.39301 -3,-2.39301 -1.65,0 -3,0.34329 -3,0.76287 0,0.41958 -1.0125,1.20708 -2.25,1.75 -1.5964,0.70042 -2.3453,2.0037 -2.5781,4.48713 -0.1805,1.925 -0.911,4.175 -1.6234,5 -0.7123,0.825 -1.5975,3.1875 -1.9671,5.25 -0.4134,2.30679 -1.2318,3.75 -2.1267,3.75 -0.8,0 -1.4547,0.37024 -1.4547,0.82274 0,1.39891 -8.9897,5.39518 -10.6786,4.74707 -1.3079,-0.50186 -1.4957,-1.71023 -1.0427,-6.70664 0.304,-3.35197 1.0345,-6.5763 1.6234,-7.16518 1.6311,-1.63113 -1.6701,-4.69799 -5.057,-4.69799 -1.5648,0 -2.8451,-0.5051 -2.8451,-1.12244 0,-0.78221 -0.3789,-0.80933 -1.25,-0.0895 -0.6875,0.56813 -2.973,1.35497 -5.0788,1.74853 -2.6028,0.48642 -4.1641,1.45118 -4.8755,3.01257 -0.5756,1.26335 -2.0026,2.52981 -3.1711,2.81436 -3.7552,0.91445 -18.6423,0.0187 -19.8557,-1.19466 -1.3621,-1.36212 -16.7689,-1.63105 -16.7689,-0.29269 0,0.48189 -2.5875,1.10819 -5.75,1.39176 -4.919,0.44109 -6.617,0.0981 -11.75,-2.3732 -4.7287,-2.27673 -7.5744,-2.93313 -13.4312,-3.09806 -5.0736,-0.14288 -7.5588,0.17344 -7.8333,0.99703 -0.5143,1.54276 -6.2355,1.58927 -6.2355,0.0507 0,-0.63558 -1.1479,-2.66058 -2.5508,-4.5 -3.0276,-3.96939 -7.8581,-4.71251 -8.7389,-1.34439 -0.3068,1.1733 -1.364,2 -2.5576,2 -1.119,0 -2.3127,0.45 -2.6527,1 -0.3399,0.55 -1.4914,1 -2.559,1 -1.0675,0 -1.941,0.63925 -1.941,1.42054 0,0.7813 -1.2491,1.69491 -2.7758,2.03024 -1.5268,0.33533 -3.2143,1.60858 -3.75,2.82945 -0.5358,1.22087 -1.6492,2.24434 -2.4742,2.27438 -2.1522,0.0784 -6.6911,2.13656 -7.4618,3.38371 -0.3609,0.58392 -1.3817,1.06168 -2.2684,1.06168 -0.8868,0 -2.4399,0.74898 -3.4514,1.6644 -1.7281,1.56394 -2.2598,1.4583 -8.8081,-1.75 -4.4078,-2.15963 -6.9765,-4.02311 -6.9896,-5.07078 -0.026,-2.08689 -3.1987,-1.40934 -5.546,1.18441 -2.302,2.54364 -1.0865,5.76672 2.3231,6.16016 2.2294,0.25725 2.7565,0.8725 3.0122,3.51591 0.229,2.36752 -0.2279,3.53998 -1.75,4.49054 -1.133,0.70755 -2.06,1.78098 -2.06,2.38539 0,0.60442 -1.125,1.61152 -2.5,2.23802 -2.9146,1.328 -3.4674,5.16708 -0.75,5.20885 1.2875,0.0198 0.8468,0.77591 -1.6674,2.86087 -2.4845,2.06039 -3.0305,2.98687 -2,3.39415 0.7796,0.3081 -0.018,0.59571 -1.7735,0.63913 -1.7551,0.0434 -3.4691,0.52895 -3.8091,1.07895 -0.7762,1.25592 -4.5,1.32167 -4.5,0.0795 0,-0.5063 -1.3715,-1.22178 -3.0477,-1.58996 -2.4814,-0.54498 -2.8303,-0.93149 -1.8776,-2.07945 0.9186,-1.10682 0.8477,-1.41005 -0.3298,-1.41005 -0.825,0 -2.0602,0.675 -2.7449,1.5 -1.5734,1.89584 -4,1.9483 -4,0.0865 0,-3.76066 -8.4173,2.51182 -10.3041,7.67853 -0.3545,0.97075 -1.7811,2.19711 -3.1702,2.72525 -1.3891,0.52813 -2.5257,1.42138 -2.5257,1.98499 0,0.56361 -0.45,1.02475 -1,1.02475 -0.55,0 -1,-1.35 -1,-3 0,-2 0.5,-3 1.5,-3 2.18,0 1.8391,-1.67808 -0.4632,-2.28013 -2.7871,-0.72886 -4.2606,1.56152 -4.4888,6.97755 -0.2255,5.35168 -1.5244,6.32618 -4.4855,3.36508 -2.457,-2.45705 -4.3557,-2.619 -6.0976,-0.52012 -0.9696,1.16822 -0.9993,1.82322 -0.1225,2.70002 1.5675,1.5675 1.4661,3.0899 -0.1641,2.4644 -0.727,-0.279 -1.8558,0.3479 -2.5085,1.393 -0.6527,1.0451 -1.9929,1.9002 -2.9782,1.9002 -0.9854,0 -2.3316,0.54 -2.9916,1.2 -0.9333,0.9333 -1.4666,0.9333 -2.4,0 -0.66,-0.66 -1.9612,-1.2 -2.8915,-1.2 -1.9211,0 -3.3144,-4.1455 -2.3815,-7.085 0.6375,-2.00848 -0.9404,-2.67308 -2.057,-0.8664 -0.443,0.7168 -1.0944,0.678 -2.059,-0.12249 -1.1769,-0.97684 -1.411,-0.46699 -1.411,3.07379 0,3.5395 -0.2343,4.0505 -1.41,3.0747 -1.1439,-0.9494 -1.5268,-0.6422 -2.0287,1.6275 -0.9125,4.1265 -7.6898,7.0111 -8.9229,3.7978 -0.3166,-0.825 -1.6596,-1.5 -2.9845,-1.5 -1.3249,0 -2.9692,0.675 -3.6539,1.5 -1.9529,2.3532 -3.2878,1.7831 -2.5653,-1.0956 0.7545,-3.0064 -0.8238,-5.4044 -3.5571,-5.4044 -1.4082,0 -1.8776,-0.7301 -1.8776,-2.9205 0,-2.43197 -0.5018,-3.03079 -3,-3.57947 -1.65,-0.3624 -3,-1.07316 -3,-1.57946 0,-0.50629 -1.0125,-0.91277 -2.25,-0.90326 -2.795,0.0215 -6.75,4.04889 -6.75,6.87369 0,1.4471 -0.6319,2.109 -2.0135,2.109 -1.1075,0 -2.88702,0.5455 -3.95454,1.2122 -2.71642,1.6964 -3.53191,0.4183 -3.53191,-5.5357 0,-4.92921 -0.13242,-5.18343 -3,-5.75956 -3.13346,-0.62954 -2.45183,-1.21263 2.75,-2.35244 2.22032,-0.48651 2.75,-1.15472 2.75,-3.46922 0,-3.65638 -2.35995,-8.33446 -3.58708,-7.11061 -0.50211,0.50077 -2.57164,1.0801 -4.59896,1.2874 -4.56658,0.46695 -6.60359,2.08127 -7.0046,5.55114 -0.21906,1.89548 -0.96611,2.77009 -2.55936,2.99637 -1.2375,0.17575 -2.25,-0.16175 -2.25,-0.75 0,-0.58825 -0.59081,-1.06955 -1.31291,-1.06955 -0.7221,0 -2.55407,-1.29549 -4.07104,-2.87887 -2.21086,-2.30764 -3.95536,-3.01432 -8.79184,-3.56151 -4.40339,-0.49819 -6.61337,-1.2995 -8.17896,-2.96559 -1.17989,-1.25563 -3.38275,-2.58653 -4.89525,-2.95755 -1.57611,-0.38662 -2.75,-1.35902 -2.75,-2.27798 0,-1.31185 -0.27274,-1.37704 -1.5,-0.3585 -0.825,0.68469 -1.5,2.08979 -1.5,3.12244 0,1.41951 0.73188,1.87756 3,1.87756 2.78033,0 3,0.26482 3,3.61663 0,3.26258 -0.22027,3.5576 -2.25,3.01366 -1.2375,-0.33164 -2.5875,-0.60913 -3,-0.61664 -0.4125,-0.008 -0.75,-0.68865 -0.75,-1.51365 0,-0.83333 -0.88889,-1.5 -2,-1.5 -1.11111,0 -2,-0.66667 -2,-1.5 0,-1.11111 -1.16667,-1.5 -4.5,-1.5 -2.475,0 -4.5,-0.45 -4.5,-1 0,-0.55 1.35,-1 3,-1 1.65,0 3,-0.37156 3,-0.82569 0,-1.41972 -4.76541,-5.37685 -5.14229,-4.27008 -0.19674,0.57776 -1.74449,1.32678 -3.43944,1.66447 -2.57241,0.51252 -3.61552,0.0802 -6.31154,-2.61582 -2.41508,-2.41508 -3.51699,-2.94262 -4.36827,-2.09134 -1.92833,1.92833 -3.73846,1.26908 -3.73846,-1.36154 0,-1.808 -0.53727,-2.5 -1.94098,-2.5 -1.06754,0 -2.2191,0.45 -2.55902,1 -0.84087,1.36056 -5.21625,1.26814 -6.07937,-0.12842 -0.47681,-0.77149 -0.98564,-0.61334 -1.6087,0.5 -0.56259,1.0053 -2.20901,1.62842 -4.3026,1.62842 -1.86521,0 -3.68292,0.47185 -4.03934,1.04856 -0.44301,0.7168 -1.09446,0.67806 -2.05902,-0.12245 -1.11245,-0.92325 -1.41097,-0.83974 -1.41097,0.39474 0,2.83271 -3.93406,4.64993 -8.66325,4.00172 -2.97837,-0.40823 -4.33675,-0.22879 -4.33675,0.57289 0,0.64202 0.68649,1.43074 1.52552,1.75271 3.31038,1.27031 -4.45283,6.35183 -9.70391,6.35183 -2.15015,0 -3.11224,0.6342 -3.83135,2.52563 -1.234,3.24567 -3.49206,4.07896 -6.57793,2.42745 -1.88435,-1.00847 -2.72614,-1.03927 -3.63254,-0.13287 -1.4316,1.4316 -9.77979,1.58508 -9.77979,0.17979 0,-0.55 -0.94878,-1 -2.10841,-1 -1.74962,0 -2.00163,0.42542 -1.48095,2.5 0.47842,1.90617 0.23755,2.5 -1.01403,2.5 -1.32817,0 -1.40946,0.27959 -0.42586,1.46475 0.97709,1.17733 0.79152,2.06037 -0.94565,4.5 -2.08726,2.93132 -5.50633,4.06762 -6.19177,2.05792 -0.48745,-1.42927 -6.83333,-2.52772 -6.83333,-1.18285 0,0.5994 0.9,1.57145 2,2.16015 4.31833,2.3111 1.08108,5.616 -6.52186,6.6581 -5.0109,0.6868 -5.36239,1.2317 -2.47814,3.8419 2.49909,2.2617 2.52353,3.7163 0.0993,5.9102 -1.24939,1.1307 -2.12711,1.3538 -2.56137,0.6512 -0.39937,-0.6462 -1.66021,0.119 -3.18817,1.9348 -1.39014,1.6521 -3.00755,3.0038 -3.59424,3.0038 -0.5867,0 -2.54167,1.125 -4.34439,2.5 -1.80272,1.375 -3.93607,2.5 -4.7408,2.5 -0.80472,0 -2.84599,1.575 -4.53617,3.5 -1.69017,1.925 -3.73523,3.5 -4.54457,3.5 -0.80935,0 -1.71312,0.3909 -2.00839,0.8686 -0.29527,0.4778 -2.28838,1.1488 -4.42914,1.4911 -2.14076,0.3423 -4.47985,1.3304 -5.19796,2.1956 -0.85805,1.0339 -2.1428,1.3632 -3.74747,0.9604 -2.6699,-0.6701 -6.20661,1.7405 -6.20661,4.2304 0,1.2215 -2.63872,1.3269 -17.6607,0.705 -16.49092,-0.6826 -17.6168,-0.6166 -16.99784,0.9963 0.36457,0.9501 0.9444,3.4881 1.28851,5.64 0.58326,3.64754 0.46118,3.91264 -1.80216,3.91264 -1.3353,0 -2.86307,-0.4353 -3.39506,-0.9672 -1.45081,-1.45094 -5.28058,-0.088 -5.98449,2.1302 -0.88053,2.7743 -3.00218,1.6292 -2.67227,-1.4423 0.19803,-1.84364 -0.29381,-2.75034 -1.74105,-3.20964 -1.10937,-0.3521 -2.48271,-0.3524 -3.05186,-6e-4 -0.56915,0.3517 -1.49815,-0.6896 -2.06443,-2.314 -0.90182,-2.587 -1.64737,-3.0355 -6.00687,-3.6138 -5.37383,-0.7129 -6.91178,-0.2731 -6.91178,1.9763 0,0.7926 -0.48391,1.441 -1.07537,1.441 -0.61331,0 -0.93556,1.3964 -0.75,3.25 0.27541,2.75104 -0.0295,3.30034 -1.98578,3.57764 -1.27113,0.1801 -2.55678,0.9676 -2.85699,1.75 -0.74649,1.9453 -1.57313,1.7894 -3.70313,-0.6982 z"
     id="path2987"
     inkscape:connector-curvature="0" />
</svg>
