<?xml version="1.0" encoding="UTF-8" standalone="no"?>
<!-- Created with Inkscape (http://www.inkscape.org/) -->

<svg
   xmlns:dc="http://purl.org/dc/elements/1.1/"
   xmlns:cc="http://creativecommons.org/ns#"
   xmlns:rdf="http://www.w3.org/1999/02/22-rdf-syntax-ns#"
   xmlns:svg="http://www.w3.org/2000/svg"
   xmlns="http://www.w3.org/2000/svg"
   xmlns:sodipodi="http://sodipodi.sourceforge.net/DTD/sodipodi-0.dtd"
   xmlns:inkscape="http://www.inkscape.org/namespaces/inkscape"
   id="svg2"
   version="1.1"
   inkscape:version="0.48.2 r9819"
   width="1367.4442"
   height="562.48755"
   sodipodi:docname="goodroads516leag_0044c.png">
  <metadata
     id="metadata8">
    <rdf:RDF>
      <cc:Work
         rdf:about="">
        <dc:format>image/svg+xml</dc:format>
        <dc:type
           rdf:resource="http://purl.org/dc/dcmitype/StillImage" />
        <dc:title></dc:title>
      </cc:Work>
    </rdf:RDF>
  </metadata>
  <defs
     id="defs6" />
  <sodipodi:namedview
     pagecolor="#ffffff"
     bordercolor="#666666"
     borderopacity="1"
     objecttolerance="10"
     gridtolerance="10"
     guidetolerance="10"
     inkscape:pageopacity="0"
     inkscape:pageshadow="2"
     inkscape:window-width="1600"
     inkscape:window-height="876"
     id="namedview4"
     showgrid="false"
     fit-margin-top="0"
     fit-margin-left="0"
     fit-margin-right="0"
     fit-margin-bottom="0"
     inkscape:zoom="0.70710678"
     inkscape:cx="664.5835"
     inkscape:cy="341.83068"
     inkscape:window-x="0"
     inkscape:window-y="24"
     inkscape:window-maximized="1"
     inkscape:current-layer="svg2" />
  <path
     style="fill:#000000"
     d="m 1116.917,561.47485 c -1.375,-0.77219 -3.4124,-1.41993 -4.5275,-1.43941 -1.1151,-0.0195 -3.0766,-0.77026 -4.3588,-1.66837 -1.8135,-1.27021 -2.5033,-1.35473 -3.1054,-0.38051 -0.6034,0.97639 -2.3977,0.77416 -8.1412,-0.91758 -7.6548,-2.25474 -27.6206,-11.57481 -29.3671,-13.70867 -0.55,-0.67197 -2.4392,-1.81544 -4.1982,-2.54104 -1.759,-0.7256 -5.5341,-4.01927 -8.389,-7.31927 -2.855,-3.3 -6.1408,-6.54655 -7.3018,-7.21456 -1.2026,-0.69191 -5.9017,-1.22982 -10.92,-1.25 -5.1288,-0.0206 -8.5703,-0.42164 -8.2377,-0.95986 0.3291,-0.53252 -1.9005,-0.85048 -5.2592,-0.75 -4.0298,0.12055 -7.3536,-0.47849 -10.7623,-1.93972 -2.7125,-1.16278 -6.2818,-2.58049 -7.9318,-3.15047 -7.022,-2.42572 -20.0263,-8.34122 -20.3333,-9.24942 -0.1834,-0.54228 -0.8584,-1.00028 -1.5,-1.01777 -0.6417,-0.0175 -2.0645,-0.71026 -3.1618,-1.53949 -1.7115,-1.29333 -1.7826,-1.64206 -0.5,-2.45288 1.154,-0.72955 0.8753,-0.9487 -1.2212,-0.96052 -3.9233,-0.0221 -15.689,-10.74551 -24.7244,-22.53391 -4.5366,-5.91895 -5.1854,-7.31661 -4.7221,-10.17161 0.2954,-1.82038 0.1154,-3.30979 -0.4001,-3.30979 -0.5154,0 -0.9371,0.7125 -0.9371,1.58333 0,2.63772 -2.4769,0.95757 -2.8164,-1.91045 C 943.9252,465.1912 943.1567,464 942.3763,464 c -2.7029,0 -8.8346,-16.2228 -10.0163,-26.5 -0.3794,-3.3 -1.0954,-6.50958 -1.5912,-7.1324 -0.4958,-0.62282 -0.9085,-2.42282 -0.9171,-4 -0.01,-1.57718 -0.2726,-5.7926 -0.5868,-9.3676 -0.519,-5.90472 0.9878,-21.30907 2.4454,-25 0.3258,-0.825 0.6389,-1.95 0.6958,-2.5 0.057,-0.55 0.5918,-1.9 1.1888,-3 0.597,-1.1 1.4179,-3.575 1.8242,-5.5 0.4063,-1.925 1.3605,-4.71694 2.1204,-6.2043 1.3493,-2.64112 1.3056,-2.71602 -1.8704,-3.20569 -1.7887,-0.27576 -7.7521,-0.71879 -13.2521,-0.98451 -5.5,-0.26572 -14.20602,-1.21713 -19.34682,-2.11423 -5.1407,-0.89711 -9.5873,-1.39048 -9.8814,-1.09637 -0.2941,0.2941 -1.3756,0.0847 -2.4033,-0.46527 -2.485,-1.32994 -2.4856,0.49161 -10e-4,3.15848 1.0271,1.10247 2.7146,3.67116 3.75,5.70819 1.0354,2.03704 2.144,3.9287 2.4635,4.2037 1.1777,1.01362 6.9114,14.69859 8.7986,21 4.5154,15.07768 5.2811,20.87041 4.8246,36.5 -0.4934,16.8912 -1.3692,22.57957 -5.2126,33.85689 -1.6721,4.90623 -2.3246,8.21008 -1.7373,8.79734 1.1101,1.11012 -1.4911,9.84577 -2.9318,9.84577 -0.5173,0 -0.713,0.36807 -0.435,0.81793 0.2781,0.44986 -0.6594,2.07426 -2.0832,3.60979 -3.6062,3.88906 -8.5358,10.55194 -10.2142,13.8054 -0.7755,1.50322 -2.238,3.6219 -3.25,4.70819 -1.012,1.08628 -1.8497,2.33138 -1.8616,2.76688 -0.012,0.43549 -2.5617,2.59181 -5.6663,4.79181 -3.1046,2.2 -8.1702,6.31869 -11.2569,9.15264 -7.1122,6.52983 -22.0061,14.12637 -33.9887,17.3358 -2.4384,0.6531 -7.3884,2.61038 -11,4.34951 -6.53093,3.1449 -6.65059,3.16164 -22.06654,3.08733 -16.93642,-0.0816 -43.64644,-3.05087 -47.5,-5.28035 -0.55,-0.3182 -3.84443,-1.57367 -7.32096,-2.78993 -3.47653,-1.21626 -9.32653,-3.95107 -13,-6.07736 -3.67347,-2.12629 -7.98743,-4.52111 -9.58657,-5.32181 -1.59915,-0.80071 -3.11413,-2.24333 -3.36664,-3.20583 -0.2525,-0.9625 -1.08056,-1.75 -1.84014,-1.75 -1.64601,0 -6.97385,-5.03493 -10.82987,-10.23448 -3.8797,-5.23147 -8.01769,-7.48376 -16.08598,-8.75552 -3.83341,-0.60425 -9.16101,-2.23608 -11.83911,-3.6263 -5.13297,-2.66456 -5.3855,-2.83421 -10.13073,-6.80557 -1.65,-1.38091 -5.60813,-4.59244 -8.79585,-7.13673 -4.69065,-3.74386 -5.57307,-4.89441 -4.62756,-6.03369 C 654.93388,486.27478 654.75915,486 653.0985,486 c -2.39018,0 -3.79114,-1.62818 -1.93769,-2.25197 0.98411,-0.33121 0.95894,-0.78293 -0.11621,-2.08541 C 650.28969,480.74818 649.13312,480 648.47437,480 c -1.54329,0 -7.16177,-7.04826 -6.72522,-8.43664 0.51278,-1.63076 -5.01951,-11.59325 -7.03764,-12.67332 -1.18678,-0.63515 -1.79453,-2.11385 -1.79453,-4.36621 0,-1.87319 -0.39691,-3.6511 -0.88201,-3.95091 -0.48511,-0.29981 -1.17346,-3.36387 -1.52967,-6.80902 -1.16179,-11.23653 -1.65452,-15.20283 -2.37703,-19.13405 l -0.71129,-3.87015 -6,-0.44782 c -3.3,-0.2463 -10.1625,-0.68567 -15.25,-0.97638 -5.0875,-0.29071 -9.25,-0.8911 -9.25,-1.3342 0,-1.0477 -5.62993,-3.0013 -8.64922,-3.0013 -1.68411,0 -2.35078,0.56719 -2.35078,2 0,2.93384 -0.0889,3.30591 -1.31372,5.5 -0.61407,1.1 -1.19912,4.925 -1.30011,8.5 -0.10099,3.575 -0.68244,9.875 -1.2921,14 -2.29132,15.50321 -1.98241,34.58014 0.76106,47 0.54672,2.475 0.61313,4.89233 0.14759,5.37186 -0.46554,0.47952 -0.59102,1.53743 -0.27886,2.35092 0.31217,0.81349 0.0745,1.7838 -0.52813,2.15625 -0.77769,0.48064 -0.79853,1.84802 -0.0718,4.71108 0.95687,3.76979 0.77356,4.43829 -2.80001,10.21088 -2.49351,4.02791 -4.51975,6.22118 -5.82392,6.304 -1.68831,0.10722 -1.72726,0.19829 -0.24991,0.58435 1.4337,0.37466 1.65024,1.21243 1.19776,4.634 -1.2348,9.33748 -1.59535,10.65983 -3.14255,11.52568 -0.92312,0.5166 -1.35951,1.56733 -1.01923,2.45408 1.27815,3.3308 -5.65051,5.76606 -21.78607,7.65727 -8.56466,1.00385 -22.9246,0.94871 -23.9651,-0.092 -1.12221,-1.12244 2.81772,-8.71912 5.1769,-9.98171 1.25851,-0.67354 2.2882,-1.73894 2.2882,-2.36757 0,-0.62863 1.35,-2.14106 3,-3.36096 3.44201,-2.54479 3.92585,-4.21299 1,-3.44787 -3.47806,0.90954 -2.28082,-2.14242 2.87051,-7.31739 2.67878,-2.69107 6.10342,-7.36786 7.61031,-10.39286 1.50689,-3.025 3.6686,-6.5125 4.8038,-7.75 l 2.06401,-2.25 -2.16161,-2.30092 c -1.81794,-1.93512 -2.01312,-2.81863 -1.22768,-5.5573 0.51365,-1.79101 0.68479,-3.90559 0.3803,-4.69908 -0.33286,-0.86741 0.0532,-1.4427 0.96805,-1.4427 1.17563,0 1.66892,-1.76241 2.16918,-7.75 0.35613,-4.2625 1.03647,-10.81515 1.51188,-14.56144 C 555.92197,458.68039 554.76462,454 551.76813,454 c -1.31279,0 -2.46514,1.22954 -3.51457,3.75 -0.85875,2.0625 -1.8912,3.975 -2.29434,4.25 -0.40313,0.275 -0.99553,2.16451 -1.31644,4.19891 -0.32091,2.0344 -1.27229,5.1844 -2.11418,7 -2.87742,6.20538 -4.72007,12.88403 -4.09666,14.84823 0.38638,1.21736 0.0991,2.16371 -0.75636,2.492 -0.95337,0.36584 -1.27906,1.86242 -1.05466,4.84627 0.39617,5.26802 -1.60388,10.37191 -4.68052,11.94417 -1.25967,0.64373 -3.06881,3.1767 -4.02031,5.62881 -1.29534,3.33823 -2.42527,4.64434 -4.49725,5.19847 -1.52199,0.40705 -3.72094,1.60784 -4.88656,2.66844 -1.16561,1.0606 -3.83687,2.47861 -5.93612,3.15113 -4.98837,1.5981 -6.42348,4.5953 -4.38187,9.15144 2.47234,5.5174 2.76585,8.33123 1.1149,10.6883 -0.84129,1.2011 -2.41524,2.18383 -3.49766,2.18383 -1.16887,0 -2.34663,0.99575 -2.90034,2.4521 -1.60019,4.20883 -5.93514,5.62163 -17.29115,5.63532 -9.28199,0.0112 -10.38878,-0.18732 -11.97706,-2.14832 -2.35821,-2.9116 -2.23134,-10.28152 0.27196,-15.7983 2.39401,-5.27593 2.65169,-9.61328 0.52258,-8.79627 -1.13463,0.4354 -1.40469,-0.25741 -1.22515,-3.14301 0.13884,-2.23155 0.70255,-3.607 1.41946,-3.46352 0.72478,0.14506 0.9416,-0.40715 0.55522,-1.41404 -0.40942,-1.06693 -0.24101,-1.4092 0.47547,-0.96639 0.6556,0.40518 1.0979,-0.039 1.08127,-1.08596 -0.0591,-3.71725 1.46351,-12.82189 2.32864,-13.92469 0.49751,-0.6342 1.3286,-2.63158 1.84685,-4.43862 0.74322,-2.59146 0.59598,-3.6682 -0.697,-5.09692 C 479.34468,492.81512 479.07216,492 479.64067,492 c 1.632,0 3.47455,-5.47765 3.14178,-9.3401 -0.2063,-2.39448 0.31248,-4.19905 1.62365,-5.64787 1.57278,-1.73791 1.70369,-2.43988 0.71248,-3.82057 -2.28261,-3.1795 -2.38491,-4.11764 -0.79625,-7.30219 3.69372,-7.40423 4.40283,-30.69504 1.12078,-36.8121 -0.76051,-1.41744 -1.9702,-5.44541 -2.6882,-8.95104 -1.33501,-6.51821 -2.15289,-7.62207 -13.56136,-18.30313 -1.22289,-1.14492 -2.79524,-3.37346 -3.49411,-4.95233 C 465.00056,395.2918 464.06205,394 463.61385,394 c -0.4482,0 -0.53679,-0.45 -0.19687,-1 0.33992,-0.55 0.13183,-1 -0.46242,-1 -0.59425,0 -2.75831,-1.09544 -4.80902,-2.4343 -6.63445,-4.33151 -27.03688,-12.01705 -41.72856,-15.71904 -2.2,-0.55436 -5.26294,-1.39215 -6.80653,-1.86176 -2.10335,-0.63992 -2.94445,-0.49444 -3.35699,0.58063 -0.38371,0.99994 -2.17978,1.43447 -5.92912,1.43447 -2.95826,0 -7.32295,0.52002 -9.69931,1.1556 -3.27402,0.87566 -12.422,0.86794 -37.76435,-0.0319 -18.39403,-0.65312 -36.30865,-1.44075 -39.81026,-1.75029 -6.49446,-0.57411 -12.42313,1.23082 -14.4449,4.39762 -1.02776,1.60984 -2.77584,0.62004 -2.0849,-1.18051 0.34889,-0.90919 -0.62759,-1.56003 -3.01153,-2.00726 -1.9403,-0.364 -4.10478,-1.22552 -4.80996,-1.91447 -0.79787,-0.77952 -3.08284,-1.10383 -6.04954,-0.85864 l -4.76739,0.394 0.62354,6.64793 c 0.34295,3.65635 1.02138,9.34792 1.50762,12.64792 0.48624,3.3 1.34931,12.75 1.91793,21 0.56862,8.25 1.71934,18.00276 2.55716,21.6728 1.341,5.87425 1.35049,7.37015 0.0793,12.5 -1.97627,7.97497 -1.48115,15.72073 2.64171,41.3272 1.82436,11.33088 1.56705,22.74966 -0.61528,27.30463 -2.1619,4.51232 -5.8343,6.63977 -8.14755,4.71995 -0.92138,-0.76465 -1.52965,-0.85371 -1.52965,-0.22395 0,0.57504 -1.39594,2.44146 -3.10209,4.14762 -2.29379,2.29379 -2.95227,3.69904 -2.52709,5.39308 0.32226,1.28398 -0.0642,3.20356 -0.87913,4.36707 -0.79978,1.14184 -1.58259,4.04514 -1.73958,6.45178 -0.25618,3.92714 -3.38349,10.11327 -6.04318,11.954 -1.42331,0.98505 -27.77334,1.86365 -32.70893,1.09062 -3.99634,-0.62592 -4.53631,-1.02191 -4.82445,-3.53802 -0.4103,-3.58288 1.79389,-8.25155 5.84912,-12.38892 2.08247,-2.12465 3.33792,-4.56228 3.6859,-7.1567 0.42816,-3.19211 1.16571,-4.27812 3.90858,-5.75526 1.85947,-1.00139 3.38085,-2.39338 3.38085,-3.0933 0,-1.63011 -1.779,-1.63645 -3.40333,-0.0121 -0.97648,0.97648 -3.58036,1.04766 -11.55739,0.31593 -9.22539,-0.84624 -10.42685,-0.76685 -11.54538,0.76283 -1.15718,1.58254 -1.2869,1.56032 -1.77441,-0.30389 C 213.01903,519.67424 209.17531,518 204.37212,518 c -1.87807,0 -5.23692,-0.72912 -7.46412,-1.62027 -4.93764,-1.97565 -4.72582,-3.85747 1.11635,-9.91758 2.14094,-2.22082 3.89263,-4.48702 3.89263,-5.036 0,-1.25536 7.9465,-7.42615 9.5631,-7.42615 1.52217,0 5.90913,-5.71276 6.91129,-9 0.4192,-1.375 1.34512,-3.175 2.05761,-4 2.43867,-2.82377 6.71355,-14.92804 5.91591,-16.75083 -0.42098,-0.96204 -0.63605,-2.19917 -0.47793,-2.74917 0.96678,-3.36279 -0.0534,-20.90135 -1.54147,-26.5 -1.83488,-6.90353 -1.98644,-7.83647 -2.92417,-18 -0.5928,-6.42506 -1.28145,-9.74848 -4.04062,-19.5 -1.60607,-5.67623 -4.20812,-15.92065 -5.66925,-22.32017 -0.67996,-2.97815 -1.40662,-4.1589 -2.33923,-3.80103 -0.80152,0.30757 -1.61613,-0.37701 -1.99887,-1.67983 C 206.70383,367.42002 201.3307,362 199.74098,362 c -0.49774,0 -2.12426,-0.8753 -3.61449,-1.9451 -2.32562,-1.66952 -5.61403,-2.10257 -23.20951,-3.05651 -11.275,-0.61128 -27.7,-1.52713 -36.5,-2.03523 -41.800153,-2.41349 -40.398863,-2.39031 -41.055463,-0.67924 -0.33553,0.87439 -1.24782,1.34506 -2.0273,1.04595 -0.77948,-0.29912 -1.41724,-0.0687 -1.41724,0.51204 0,0.58074 -2.42627,1.8207 -5.39171,2.75548 -5.3167,1.67594 -5.44292,1.66793 -9.0732,-0.5757 -2.73051,-1.68755 -3.97256,-1.98422 -4.80829,-1.14849 -0.61974,0.61974 -1.75629,1.1268 -2.52567,1.1268 -1.84946,0 -8.15923,-3.01648 -8.04992,-3.84838 0.47133,-3.58676 -4.80871,-5.26128 -8.65113,-2.74363 -2.06058,1.35014 -5.46964,1.52926 -23.02702,1.2099 -18.97276,-0.34512 -20.7935924,-0.53592 -22.9421624,-2.40408 -1.28359,-1.11606 -3.14591,-2.1856 -4.1385,-2.37676 -2.12884,-0.40998 -3.15536002,-3.54871 -3.29272002,-10.068 -0.0917,-4.35372 0.11808,-4.7856 2.63129002,-5.41638 1.50203,-0.37698 8.8145324,-0.81068 16.2500024,-0.96376 7.43547,-0.15308 14.80575,-0.31747 16.3784,-0.3653 1.57265,-0.0478 3.37265,0.30313 4,0.77991 1.77195,1.34666 11.71268,0.61589 15.99473,-1.17581 3.32873,-1.39282 3.77603,-1.4092 3.28138,-0.12018 -0.81059,2.11238 0.54972,1.85601 4.54764,-0.85705 4.11878,-2.79508 7.80948,-3.88524 13.56688,-4.00737 2.3375,-0.0496 4.25,-0.43957 4.25,-0.86663 0,-0.42707 1.30186,-0.77648 2.89301,-0.77648 1.59116,0 3.13045,-0.61875 3.42065,-1.37501 0.60679,-1.58126 11.79926,-3.24614 18.532523,-2.75671 5.31294,0.38619 13.52711,-3.19738 15.06482,-6.57228 0.73512,-1.61342 1.89399,-2.296 3.89808,-2.296 1.56858,0 5.06573,-1.12312 7.77144,-2.49581 2.70571,-1.3727 5.87478,-2.4977 7.04236,-2.5 3.00009,-0.006 17.04042,-5.99763 21.68489,-9.25402 l 2.80776,-1.96862 -3.16112,-2.82225 c -3.52413,-3.14635 -3.2166,-3.19677 -13.95441,2.28806 -6.0525,3.09159 -36.00982,8.946 -41.51685,8.11343 -4.21894,-0.63783 -19.079183,-3.27863 -24.809443,-4.40886 C 77.936227,297.42837 74.821657,297 73.669427,297 c -1.15223,0 -2.90168,-0.73007 -3.88767,-1.62237 -0.98599,-0.89231 -3.94642,-2.01598 -6.57874,-2.49706 -2.72387,-0.49781 -5.50141,-1.7377 -6.44633,-2.87763 C 55.843527,288.90132 54.867407,288 54.587537,288 c -0.27987,0 -0.52179,2.70503 -0.5376,6.01118 -0.0158,3.30615 -0.29298,6.43872 -0.61593,6.96127 -0.32296,0.52255 -2.2589,1.24264 -4.30211,1.60022 -2.04321,0.35757 -4.25582,1.33147 -4.91693,2.16423 -1.17025,1.4741 -5.65638,2.74058 -13.79799,3.89531 -3.55916,0.5048 -4.30393,0.2257 -6.75771,-2.53244 C 22.142517,304.39489 20.314207,303 19.596357,303 c -1.37767,0 -5.18176,-3.8087 -7.99033,-8 -0.921392,-1.375 -2.3828624,-3.47428 -3.2477324,-4.66508 -1.25721,-1.73098 -1.37126,-2.93396 -0.56882,-6 0.55201,-2.1092 1.5285,-7.7749 2.16997,-12.59042 0.6414804,-4.81553 1.5183324,-8.97306 1.9485624,-9.23896 0.43023,-0.2659 1.07843,-2.06224 1.44043,-3.99186 0.58,-3.09168 6.1952,-16.16716 10.16408,-23.66797 0.77245,-1.45986 1.41016,-3.25986 1.41713,-4 0.007,-0.74014 1.35697,-3.99662 3,-7.23663 1.64303,-3.24001 2.98733,-6.32054 2.98733,-6.84563 0,-0.52509 0.98933,-2.3441 2.19852,-4.04225 1.8467,-2.59344 1.92065,-2.98091 0.46215,-2.42123 -2.55336,0.97982 -3.15732,-1.73359 -1.27077,-5.7092 0.88556,-1.86617 1.6101,-3.69254 1.6101,-4.05862 0,-0.36608 1.19468,-2.2319 2.65484,-4.14627 l 2.65484,-3.48067 -2.15484,-1.50931 c -2.96328,-2.07556 -2.70819,-3.05817 1.12208,-4.32228 4.33772,-1.43158 10.72308,-6.77068 10.72308,-8.96609 0,-0.96077 -1.0125,-2.67352 -2.25,-3.80611 -1.2375,-1.13259 -4.275,-4.64354 -6.75,-7.80212 -2.475,-3.15859 -5.2875,-6.46308 -6.25,-7.34333 -2.37836,-2.17512 -2.19857,-3.8025 0.5,-4.52568 3.59352,-0.96303 5.50252,-0.73491 7.08394,0.84651 2.49188,2.49188 23.00996,12.51119 25.66606,12.53315 2.97983,0.0246 4.28486,0.80924 5.80505,3.49005 0.62377,1.1 1.14782,1.42893 1.16454,0.73095 0.0351,-1.46389 3.64461,-0.84494 8.77278,1.50433 2.12751,0.97463 4.19057,1.21911 6,0.711 1.5167,-0.42589 3.12858,-0.68939 3.58196,-0.58554 0.45338,0.10385 0.55328,-0.24976 0.22199,-0.78579 -0.33128,-0.53603 0.42277,-1.51145 1.67567,-2.16761 1.25291,-0.65615 3.88975,-2.81623 5.85966,-4.80017 6.573013,-6.61984 14.011293,-11.61095 21.918353,-14.7073 5.417,-2.12125 5.63297,-2.40054 5.83455,-7.54481 0.23557,-6.01201 3.29522,-11.95154 9.13174,-17.72696 3.04443,-3.01257 5.59924,-6.5924 6.16369,-8.63666 0.80818,-2.927 1.41636,-3.49144 3.76204,-3.49144 3.77778,0 5.96892,2.70627 6.73879,8.32308 0.35257,2.57231 1.02987,4.67692 1.50511,4.67692 1.16619,0 1.09821,4.69401 -0.1004,6.93364 -0.53047,0.99118 -2.33047,2.07535 -4,2.40926 -3.36747,0.67349 -4.13467,3.49999 -1.53552,5.6571 1.23304,1.02333 1.5,0.94309 1.5,-0.45088 0,-1.08341 0.63194,-1.56774 1.75,-1.34124 1.06737,0.21624 1.71903,1.22004 1.6706,2.57333 -0.0541,1.51209 0.50328,2.21879 1.75,2.21879 1.93701,0 2.51896,2.45579 0.8294,3.5 -0.55,0.33992 -0.98632,1.15398 -0.96959,1.80902 0.0167,0.65504 0.48908,0.40348 1.04969,-0.55902 2.20219,-3.78093 4.39958,-1.68246 4.18855,4 -0.0255,0.6875 0.35357,1.25 0.84246,1.25 1.35611,0 1.0609,1.68513 -0.58323,3.32926 -1.29616,1.29617 -1.28705,1.62572 0.0762,2.75713 1.27057,1.05448 1.71132,1.02744 2.45681,-0.15069 0.49966,-0.78964 0.91537,-1.95006 0.92379,-2.57871 0.0214,-1.59924 1.7427,-2.02613 7.51531,-1.86386 4.91782,0.13824 4.99418,0.18874 4.64576,3.07303 -0.33571,2.7791 -0.25725,2.84781 1.5,1.31365 2.06136,-1.79966 4.35424,-1.45306 4.35424,0.65821 0,0.80975 1.53573,1.62075 3.75,1.98033 6.19306,1.00571 8.52935,2.30542 7.97241,4.43516 -0.29602,1.13198 -0.0376,1.75842 0.64077,1.55354 0.62525,-0.18883 4.17432,-0.61769 7.88682,-0.95303 5.67463,-0.51258 6.75,-0.36443 6.75,0.92995 0,1.23621 0.78836,1.4136 4,0.90004 2.55406,-0.40841 4,-0.2563 4,0.42079 0,2.15874 3.92352,2.34436 6.12868,0.28994 1.19581,-1.11407 2.49662,-1.82632 2.89068,-1.58277 0.88763,0.54858 0.50404,10.35065 -0.49847,12.73803 -1.2443,2.96316 0.33296,1.9333 2.01209,-1.31378 2.20777,-4.26936 4.04845,-3.25801 3.62265,1.99044 -0.32417,3.99574 -0.22538,4.18104 1.68426,3.15903 3.29187,-1.76176 4.86306,-1.29242 8.61851,2.57444 1.95507,2.01307 3.7311,3.47557 3.94673,3.25 3.59458,-3.76026 8.59488,-10.75934 8.59488,-12.03051 0,-1.10355 1.17476,-1.87742 3.51701,-2.31683 4.53624,-0.85101 5.48299,-0.18084 5.48299,3.88122 0,2.52956 -0.65849,3.75278 -2.75,5.1084 -1.5125,0.98034 -3.76509,2.94459 -5.00575,4.36501 l -2.25575,2.58258 5.25939,0.5 c 4.18497,0.39786 5.8715,1.12798 8.25575,3.57404 2.80117,2.87378 3.46209,3.07208 10.14582,3.04411 7.24955,-0.0303 10.93434,1.41811 9.97402,3.92065 -0.34975,0.91144 1.15033,1.08851 5.95449,0.70288 4.77562,-0.38334 6.42203,-0.19199 6.42203,0.74641 0,0.87875 0.94446,1.07302 3.11053,0.6398 2.24613,-0.44922 4.49214,0.0718 8.08217,1.875 5.14671,2.58505 8.8073,3.21688 8.8073,1.52016 0,-2.16373 5.35285,-4.23694 13.98956,-5.41828 5.01257,-0.68563 9.34208,-0.87718 9.62112,-0.42568 0.27905,0.4515 1.30856,0.82091 2.28782,0.82091 0.97926,0 2.30634,1.15417 2.94908,2.56482 0.84896,1.86326 1.68184,2.40192 3.04493,1.9693 2.80936,-0.89166 8.91769,3.40463 9.90388,6.96588 l 0.83076,3 13.43642,0.14911 c 8.89447,0.0987 14.74378,-0.29798 17.30394,-1.17352 2.12714,-0.72745 4.43099,-1.10641 5.11968,-0.84213 0.68869,0.26427 5.02331,-0.6984 9.63249,-2.13927 4.60917,-1.44088 11.41782,-3.57359 15.13032,-4.73936 3.7125,-1.16577 6.75,-2.43409 6.75,-2.81849 0,-0.3844 2.03139,-1.21042 4.5142,-1.8356 2.48281,-0.62518 7.44408,-2.4786 11.02504,-4.11871 3.58097,-1.64012 7.56948,-2.98203 8.86336,-2.98203 1.29388,0 2.89361,-0.65198 3.55495,-1.44885 0.66134,-0.79686 2.85394,-1.98276 4.87244,-2.63532 4.0046,-1.29465 11.37183,-4.81163 12.17001,-5.80974 0.275,-0.34388 2.3,-1.47464 4.5,-2.5128 4.8224,-2.27565 5.17117,-2.45772 18.84309,-9.83665 5.9637,-3.2187 11.71417,-6.66372 12.77882,-7.65559 1.06466,-0.99188 6.4638,-4.23288 11.99809,-7.20223 13.30908,-7.14081 13.60192,-7.31367 16.16749,-9.54421 1.21688,-1.05797 6.63373,-4.15806 12.03745,-6.8891 5.40372,-2.73103 10.67241,-5.75301 11.70819,-6.71551 1.03578,-0.9625 2.46456,-1.75478 3.17506,-1.76063 0.71049,-0.006 3.54181,-1.80106 6.29181,-3.98937 2.75,-2.18831 5.34259,-3.98353 5.76131,-3.98937 0.41872,-0.006 3.39831,-1.81063 6.62131,-4.01063 3.223,-2.2 6.27843,-4 6.78985,-4 0.51142,0 3.7,-1.8 7.08572,-4 3.38573,-2.2 6.58771,-4 7.11551,-4 0.5278,0 1.10963,-0.3375 1.29297,-0.75 0.4578,-1.03005 9.98728,-8.25 10.88903,-8.25 0.40012,0 1.00984,-1.125 1.35494,-2.5 0.34511,-1.375 1.10103,-2.5 1.67984,-2.5 1.31438,0 3.90952,-2.5313 3.90952,-3.81335 0,-0.52591 2.51757,-1.27075 5.59459,-1.6552 4.90149,-0.6124 5.79968,-1.08078 7.25,-3.78068 C 639.66761,86.20252 645.60685,80 647.09846,80 c 4.17901,0 12.22587,-10.51233 15.30937,-20 0.98313,-3.025 3.06409,-8.0533 4.62436,-11.174 2.69989,-5.40007 5.22422,-15.9987 3.08793,-12.96498 -2.39325,3.39863 -3.5498,-19.41289 -1.3213,-26.06104 0.68215,-2.035 2.80345,-5.0725 4.71401,-6.75 C 676.73765,0.21856 677.53473,0 684.63605,0 c 5.57829,0 8.75624,0.53577 11.73705,1.97876 4.31539,2.08904 7.54558,6.34856 7.2988,9.62462 -0.15469,2.05365 5.84273,10.91978 7.99057,11.81264 1.90163,0.79051 11.6554,-1.26346 16.79405,-3.53653 2.52045,-1.11492 6.91765,-2.21032 9.77155,-2.43422 12.03147,-0.94395 16.31565,-1.75536 18.86944,-3.57382 1.4869,-1.05877 4.41706,-2.62841 6.51146,-3.4881 2.09441,-0.85968 5.94588,-2.91977 8.55883,-4.57798 3.91146,-2.48225 5.76655,-3.0052 10.5,-2.95995 7.41474,0.0709 10.19712,0.5227 13.25864,2.15297 3.53065,1.8801 10.2322,7.16389 11.868,9.35724 1.89563,2.54176 7.27874,4.64437 11.89044,4.64437 2.1077,0 4.3838,0.55174 5.0582,1.22609 2.0954,2.09539 11.2583,3.29578 21.1739,2.77391 9.83,-0.51737 16.3584,0.0135 23.8613,1.94015 3.2606,0.83729 4.7118,0.82908 5.75,-0.0325 0.7638,-0.63388 1.3887,-0.93282 1.3887,-0.66433 0,0.58735 5.5692,-0.53677 12.7537,-2.57426 4.5883,-1.30123 6.0447,-1.31006 11.5,-0.0696 3.4355,0.78115 7.1463,1.81874 8.2463,2.30576 1.1,0.48701 4.47502,1.35639 7.50002,1.93195 3.025,0.57556 7.975,1.5177 11,2.09365 3.025,0.57595 9.053,1.29106 13.3955,1.58915 4.3426,0.29808 8.2453,0.7581 8.6727,1.02226 0.4274,0.26416 3.1431,0.929 6.0349,1.47742 2.8918,0.54842 6.021,1.6878 6.9538,2.53195 1.4279,1.29225 1.7812,1.31286 2.2349,0.1304 0.336,-0.87563 2.8446,-1.66529 6.6625,-2.09723 3.368,-0.38105 8.8693,-1.56994 12.2251,-2.64199 9.1104,-2.91041 17,-3.9085 30.2674,-3.82906 10.6441,0.0637 12.4979,0.34403 17,2.57047 2.7793,1.37441 7.4848,2.69028 10.4569,2.92415 2.972,0.23387 7.8563,1.13822 10.854,2.00967 5.3255,1.54818 25.0417,2.51715 25.8127,1.2686 0.2084,-0.33742 4.2109,-0.69795 8.8944,-0.80117 6.7024,-0.14773 9.5017,0.24857 13.1476,1.86133 6.1189,2.7067 15.5947,4.16398 22.1023,3.39914 3.4207,-0.40203 5.7487,-0.20609 6.6739,0.56171 3.5795,2.97072 15.0475,5.1316 26.6114,5.01429 9.4451,-0.0958 13.4287,0.36723 22.2937,2.59131 9.393,2.35655 11.3395,2.55838 15,1.55527 2.3135,-0.63398 6.6813,-1.28676 9.7063,-1.45062 3.5567,-0.19266 7.4124,-1.27282 10.9128,-3.05719 5.3539,-2.72923 5.4667,-2.74186 10.3648,-1.15992 2.7236,0.87963 6.8129,1.60253 9.0872,1.60644 9.0612,0.0156 17.7408,1.27531 17.2684,2.5063 -0.5899,1.53743 10.7205,2.7073 17.9209,1.85362 4.2184,-0.50012 5.9135,-0.16379 10.25,2.03372 2.8578,1.44812 5.1959,3.30036 5.1959,4.1161 0,0.81573 0.718,1.48315 1.5956,1.48315 0.8776,0 2.7901,0.83689 4.25,1.85975 4.9732,3.48435 17.6348,9.19364 21.6502,9.76229 5.4076,0.76583 12.3573,3.96147 16.0042,7.35909 3.2977,3.07234 8.5985,6.01887 10.8279,6.01887 0.785,0 2.0044,0.69548 2.7099,1.54551 0.7054,0.85003 1.9026,1.30762 2.6603,1.01686 0.7577,-0.29076 1.6167,0.0944 1.9089,0.85595 0.2923,0.76153 1.3948,1.61039 2.4501,1.88637 1.0554,0.27598 2.3598,1.66172 2.8988,3.07944 0.6236,1.63995 1.5035,2.37679 2.419,2.02549 2.2372,-0.85847 9.6448,4.34842 10.7673,7.56839 0.5486,1.5739 1.6012,3.09328 2.339,3.37639 0.9256,0.35519 1.2201,1.85242 0.9501,4.83017 -0.6046,6.66801 -1.3134,8.78375 -4.4889,13.39912 -1.6183,2.35216 -2.9424,4.4764 -2.9424,4.72053 0,0.24413 -1.1819,2.55861 -2.6265,5.14328 -1.8709,3.34731 -2.9354,4.39056 -3.7,3.62595 -1.6116,-1.61155 -2.6735,-1.29709 -2.6735,0.79169 0,1.02583 -0.9351,3.0539 -2.078,4.50683 -1.5151,1.92623 -1.9055,3.42656 -1.4414,5.53966 0.3767,1.71516 0.1846,3.17724 -0.4706,3.5822 -0.803,0.49626 -0.7881,1.06859 0.054,2.08336 0.9056,1.09125 0.8063,1.53532 -0.4515,2.01797 -0.8869,0.34035 -1.6126,1.06371 -1.6126,1.60746 0,0.54375 -0.9674,2.34721 -2.1498,4.00769 -1.1823,1.66048 -2.4491,4.42995 -2.8149,6.15437 -0.4459,2.10141 -1.2209,3.08952 -2.3503,2.99643 -0.9267,-0.0764 -1.685,0.39801 -1.685,1.05422 0,0.65621 -1.35,3.32184 -3,5.92362 -2.2029,3.47356 -3,5.94185 -3,9.2894 0,3.71789 -0.369,4.65537 -2,5.0819 -1.3059,0.3415 -2,1.36402 -2,2.94622 0,1.33276 -0.838,4.09278 -1.8622,6.13337 -1.0242,2.04059 -2.8593,6.74277 -4.0779,10.4493 -1.2187,3.70652 -2.6307,6.99558 -3.1378,7.30901 -0.5072,0.31344 -0.9249,1.33083 -0.9284,2.26087 0,0.93004 -1.3656,2.46449 -3.0269,3.40988 -2.4594,1.39959 -2.9065,2.17301 -2.407,4.16335 0.4202,1.67429 0.021,3.0366 -1.266,4.32399 -2.7003,2.7003 -4.3302,7.17189 -4.724,12.95999 -0.1886,2.77278 -1.0805,7.57873 -1.982,10.67989 -1.5776,5.42669 -1.7885,5.66233 -5.6135,6.27398 -2.1859,0.34953 -3.9743,0.9656 -3.9743,1.36904 0,0.40343 -1.0494,0.53292 -2.3319,0.28775 -2.6419,-0.50503 -3.3155,0.88428 -8.5932,17.72311 -1.6376,5.225 -5.5028,16.7 -8.5893,25.5 -3.0865,8.8 -6.2395,18.025 -7.0066,20.5 -0.7672,2.475 -2.6453,7.96693 -4.1736,12.2043 -2.4522,6.79853 -3.0953,7.73906 -5.4707,8 l -2.6917,0.2957 2.9111,4 c 1.6011,2.2 3.2197,4.675 3.5969,5.5 0.3771,0.825 1.96,3.38108 3.5174,5.68018 1.5574,2.29909 2.8316,4.88659 2.8316,5.75 0,0.8634 0.45,1.56982 1,1.56982 0.55,0 1,0.70408 1,1.56462 0,1.44175 3.0995,9.85324 4.9692,13.48526 0.4388,0.85244 1.3265,4.22744 1.9726,7.5 0.6462,3.27257 1.5698,7.30012 2.0525,8.95012 0.4827,1.65 1.1889,5.25 1.5695,8 0.3805,2.75 1.0685,5.72833 1.5288,6.61852 0.4604,0.89018 0.5287,1.92682 0.1519,2.30364 -0.3768,0.37683 -0.7489,5.04849 -0.8268,10.38149 -0.1873,12.81825 -3.1186,31.8235 -5.3473,34.66944 -0.4423,0.5648 -1.8322,4.17691 -3.0887,8.02691 -1.2565,3.85 -3.7544,10.15 -5.5508,14 -11.3482,24.32032 -12.1723,25.54059 -23.9445,35.45387 -11.035,9.29255 -12.795,10.97665 -14.9397,14.29613 -0.9772,1.5125 -2.6515,2.75 -3.7207,2.75 -1.0692,0 -1.6789,0.42893 -1.3549,0.95318 0.6325,1.02344 -9.1249,8.04682 -11.1792,8.04682 -2.196,0 -12.379,4.89551 -15.3059,7.35832 -1.6821,1.41536 -4.8142,2.6663 -7.6652,3.06133 -2.6514,0.36738 -7.9708,1.30214 -11.8208,2.07722 -7.0053,1.41032 -18.492,2.26081 -41,3.03569 -6.6,0.22722 -12.9,0.62308 -14,0.8797 -1.1,0.25662 -3.125,-0.16522 -4.5,-0.93741 z m 29.5589,-25.00665 c -1.9161,-1.44928 -1.9155,-1.4682 0.05,-1.4682 1.0951,0 2.5343,0.54321 3.1982,1.20714 0.9429,0.94286 1.5672,0.84712 2.8516,-0.43728 1.2222,-1.22221 1.5966,-3.24005 1.458,-7.85912 -0.1026,-3.41809 -0.4191,-6.59108 -0.7034,-7.0511 -0.2844,-0.46001 -0.7362,-4.55412 -1.0041,-9.09801 -0.268,-4.5439 -0.975,-11.86163 -1.5712,-16.26163 -0.5962,-4.4 -1.2369,-9.8 -1.4239,-12 -0.5177,-6.09471 -0.8639,-7.23459 -2.8707,-9.45203 -1.7174,-1.89773 -1.7261,-2.04797 -0.1189,-2.04797 1.4327,0 1.6135,-0.56542 1.0395,-3.25 -0.7795,-3.64566 -2.3048,-5.96643 -3.4543,-5.25599 -0.42,0.2596 -1.2609,2.4467 -1.8687,4.86024 -0.6077,2.41353 -1.4145,5.195 -1.7929,6.18104 -0.4725,1.23129 -0.3215,1.56633 0.482,1.06974 0.6434,-0.39769 1.1699,-0.29465 1.1699,0.22896 0,0.52362 -0.6861,1.2153 -1.5246,1.53706 -1.0766,0.41313 -1.3356,1.33789 -0.8814,3.14729 0.4149,1.65342 0.105,3.16868 -0.8737,4.27195 -0.8343,0.94034 -2.9595,6.43471 -4.7227,12.20971 -1.7633,5.775 -4.509,14.4442 -6.1018,19.26488 -1.5927,4.82069 -2.8958,9.43319 -2.8958,10.25 0,0.81682 -0.352,1.48512 -0.7822,1.48512 -0.4302,0 -0.7677,1.6875 -0.75,3.75 0.031,3.55219 0.1904,3.73617 3.0322,3.48783 1.65,-0.14419 3.675,-0.30329 4.5,-0.35354 0.825,-0.0503 4.425,0.59445 8,1.43267 8.5772,2.01107 10.0569,2.04068 7.5589,0.15124 z m -343.64879,-1.42944 c 5.4854,-1.59408 8.08987,-4.70213 8.08987,-9.65406 0,-2.34666 -0.424,-4.52871 -0.94222,-4.84899 -0.51822,-0.32028 -1.25371,-2.70934 -1.63442,-5.30902 -0.3807,-2.59968 -1.5317,-5.92116 -2.55778,-7.38106 -1.02607,-1.4599 -1.86558,-3.3356 -1.86558,-4.16821 0,-3.45922 -1.24326,-4.67742 -4.77366,-4.67742 -1.95782,0 -3.27167,0.288 -2.91967,0.64001 0.35201,0.352 -0.67389,1.3645 -2.27977,2.25 -1.60588,0.88549 -4.40638,2.95999 -6.22334,4.60999 -1.84013,1.67104 -4.85401,3.22149 -6.80356,3.5 -2.98476,0.42639 -3.54906,0.9305 -3.83324,3.42433 -0.24168,2.12075 -0.57022,2.54089 -1.19563,1.52896 -1.2072,-1.95329 -1.81501,-1.00871 -2.41289,3.74985 -0.28411,2.2612 -1.06784,5.32121 -1.74163,6.80002 -1.04807,2.30026 -0.97884,2.82655 0.47916,3.64248 0.93732,0.52456 1.70423,1.53435 1.70423,2.24399 0,0.70964 1.9125,1.84372 4.25,2.52018 2.3375,0.67646 5.375,1.59383 6.75,2.0386 3.01859,0.9764 13.19935,0.45933 17.91013,-0.90965 z m 371.01259,0.55433 c 0.902,-1.08685 1.969,-1.18566 4.6902,-0.43431 2.8867,0.79707 4.2377,0.5998 7.4856,-1.09309 2.1797,-1.13613 5.5508,-2.06569 7.4913,-2.06569 1.9405,0 3.2858,-0.39232 2.9894,-0.87183 -0.4936,-0.79873 7.4074,-6.80739 13.0609,-9.93274 2.7079,-1.49696 3.0229,-3.40027 0.8599,-5.19543 -0.825,-0.68469 -1.5,-1.64817 -1.5,-2.14108 0,-0.4929 -2.0247,-3.4753 -4.4994,-6.62755 -2.4746,-3.15225 -4.4996,-6.0123 -4.5,-6.35567 -3e-4,-0.34336 -1.1222,-1.91836 -2.493,-3.5 -6.6083,-7.62467 -13.5076,-16.75854 -13.5076,-17.88253 0,-1.11683 -3.361,-5.79417 -11.7891,-16.40656 -1.491,-1.87737 -3.1808,-4.05029 -3.755,-4.82871 -0.6493,-0.88006 -2.3512,-1.29101 -4.5,-1.08661 l -3.4559,0.32871 -0.147,9 c -0.1461,8.94622 0.6069,16.1536 3.1866,30.5 0.7418,4.125 2.3036,13.8 3.4706,21.5 2.7422,18.09199 3.8369,20.79897 6.9125,17.09309 z M 1107.2826,527.75 c 0.8291,-2.8875 1.8189,-6.52384 2.1996,-8.08076 0.3807,-1.55692 1.3067,-3.06658 2.0577,-3.35479 0.7511,-0.28821 1.1044,-0.94666 0.7852,-1.46321 -0.3193,-0.51656 0.1333,-2.02857 1.0057,-3.36003 0.8724,-1.33147 1.5862,-3.50658 1.5862,-4.83358 0,-1.32701 0.675,-2.97294 1.5,-3.65763 1.7261,-1.43255 2.0534,-3.46005 0.3929,-2.43379 -1.3795,0.85256 -0.3066,-3.07955 1.7157,-6.28786 0.7702,-1.2219 1.899,-4.5969 2.5085,-7.5 0.6095,-2.90309 1.6727,-5.95335 2.3626,-6.77835 0.6898,-0.825 2.034,-4.875 2.9869,-9 0.953,-4.125 2.2077,-8.90581 2.7884,-10.62402 0.5806,-1.71821 0.7554,-3.90639 0.3885,-4.86262 -0.5723,-1.49134 -0.9008,-1.54482 -2.3102,-0.37598 -0.9037,0.74944 -2.2544,2.82512 -3.0016,4.61262 -0.7672,1.83539 -2.0888,3.25 -3.0362,3.25 -1.4507,0 -1.4151,0.19869 0.2634,1.4682 1.8361,1.38877 1.7653,1.46991 -1.3089,1.5 -2.6593,0.026 -3.271,0.44077 -3.3653,2.2818 -0.174,3.39219 -0.3336,3.92428 -2.4761,8.25 -4.0051,8.08688 -8.4896,15.1105 -12.399,19.41969 -2.2053,2.43082 -4.0096,4.78475 -4.0096,5.23094 0,0.4462 -1.1219,1.09284 -2.4931,1.43699 -1.3712,0.34415 -2.2709,0.98515 -1.9994,1.42445 0.2715,0.4393 -1.5001,2.11933 -3.9369,3.73339 -2.4368,1.61406 -5.6271,4.35663 -7.0895,6.0946 -1.6269,1.93349 -3.5923,3.15994 -5.0637,3.15994 -4.6159,0 -0.8637,6.88181 3.7993,6.9682 0.9441,0.0175 3.3015,1.61666 5.2386,3.55372 2.7689,2.76899 4.0471,3.39008 5.9789,2.90523 1.5182,-0.38104 3.3271,-0.007 4.734,0.97808 1.2522,0.87712 3.7198,1.59477 5.4833,1.59477 3.0102,0 3.2989,-0.32161 4.7141,-5.25 z m -349.82332,-2.51531 c 2.1926,-1.54549 4.33763,-7.59052 3.34896,-9.43787 -1.23318,-2.30422 -2.67439,-2.25841 -6.39126,0.20318 -1.65,1.09275 -3.9574,1.98979 -5.12756,1.99341 -4.60896,0.0143 -5.34375,5.26501 -0.98334,7.02688 2.64236,1.06768 7.77219,1.18783 9.1532,0.2144 z m 76.8933,-2.09246 c 1.1354,-1.02177 4.5394,-3.13649 7.5644,-4.69939 6.6567,-3.43926 9.9103,-6.1608 11.1239,-9.30481 0.6239,-1.61628 1.4881,-2.21125 2.7374,-1.88455 1.1027,0.28835 2.3027,-0.28641 3.0302,-1.45134 1.0304,-1.64992 0.7435,-2.45378 -1.9842,-5.56054 -1.7539,-1.99748 -4.8945,-4.47569 -6.9792,-5.50713 -2.0847,-1.03143 -4.539,-3.08114 -5.4539,-4.5549 C 842.26398,486.75316 832.83678,478 831.27368,478 c -0.6545,0 -1.34,-0.3375 -1.5234,-0.75 -0.5427,-1.2212 -6.9072,-6.25 -7.91,-6.25 -0.5078,0 -0.9233,0.64286 -0.9233,1.42857 0,0.78572 -0.7534,2.18193 -1.6741,3.10269 -1.9487,1.9487 -3.553,10.52646 -2.2292,11.91874 0.4968,0.5225 0.9132,2.3225 0.9253,4 0.012,1.6775 0.92,5.0295 2.0177,7.4489 1.0977,2.41939 1.7667,4.62798 1.4867,4.90799 -0.28,0.28 0.021,1.14729 0.668,1.92732 0.9161,1.10382 0.8587,1.61962 -0.2587,2.32669 -0.8042,0.50886 -0.9358,0.91521 -0.2992,0.92379 1.1562,0.0156 2.4193,4.48767 2.5464,9.01531 0.039,1.375 0.2819,1.91872 0.5408,1.20826 0.3598,-0.98705 0.7991,-1.0193 1.8625,-0.13669 0.7655,0.63527 1.133,1.57377 0.8167,2.08554 -0.7875,1.27416 1.4886,3.84289 3.4051,3.84289 0.8597,0 2.4921,-0.83599 3.6275,-1.85777 z m 399.54732,-25.47832 c 5.0827,-3.67302 8.7329,-9.7618 8.1062,-13.52171 -0.1244,-0.7468 0.6485,-1.97053 1.7177,-2.71941 2.1048,-1.47429 3.3292,-4.67538 2.3206,-6.06742 -0.8562,-1.18187 -7.2802,-3.35537 -9.917,-3.35537 -1.4577,0 -1.9702,-0.46229 -1.5955,-1.43895 0.3967,-1.0337 -0.6682,-1.74426 -3.7813,-2.52299 -2.3835,-0.59622 -5.2336,-1.59953 -6.3336,-2.22957 -10.2597,-5.87643 -42.35,-20.80297 -43.6431,-20.30023 -0.7463,0.29014 -1.919,1.73336 -2.606,3.20715 -1.1095,2.38007 -0.9582,3.09946 1.3536,6.43544 1.4316,2.06571 4.0222,5.23933 5.757,7.05249 1.7347,1.81316 4.7167,5.32166 6.6265,7.79666 1.9098,2.475 4.6063,5.68273 5.9922,7.1283 1.3859,1.44556 3.1156,3.37474 3.8439,4.28707 6.1417,7.69434 11.8891,14.30516 13.381,15.39133 0.9872,0.71869 1.7949,1.82227 1.7949,2.4524 0,0.63013 1.4506,2.64233 3.2236,4.47157 l 3.2236,3.32589 3.0264,-3.07655 c 1.6645,-1.6921 5.0437,-4.53435 7.5093,-6.3161 z m -480.20827,1.23167 c 1.92758,-0.73287 2.29793,-1.23269 1.34827,-1.81961 -0.77467,-0.47877 -1.45892,-3.32634 -1.67569,-6.97359 -0.22957,-3.86246 -0.95451,-6.75252 -1.94133,-7.73933 -1.22881,-1.22882 -1.31626,-1.88662 -0.39792,-2.99316 2.62523,-3.1632 -0.12673,-2.20377 -3.83377,1.3366 -2.18466,2.08643 -5.32786,5.01043 -6.9849,6.49778 -1.92591,1.72869 -3.23907,4.07359 -3.64004,6.5 -1.30359,7.88843 -1.54045,7.65235 6.90926,6.88666 4.15719,-0.37672 8.75445,-1.13962 10.21612,-1.69535 z m 266.67367,0.18799 c 1.0154,-1.64294 -1.5174,-10.89611 -3.1545,-11.52431 -2.6291,-1.00889 -5.0445,0.35636 -5.5792,3.15349 -0.5436,2.8436 1.0467,6.28725 2.9035,6.28725 0.6254,0 1.6972,0.675 2.3819,1.5 1.4194,1.71022 2.6259,1.9144 3.4483,0.58357 z m 46.7669,-8.95606 c 1.8066,-1.57988 4.9193,-3.74476 6.9171,-4.81085 1.9977,-1.0661 4.3441,-2.65019 5.2141,-3.5202 1.4425,-1.44246 1.3581,-1.82328 -0.9575,-4.3218 -1.3966,-1.50697 -2.9748,-3.69276 -3.507,-4.85731 C 1072.1965,466.92369 1067.88,461 1066.3334,461 c -0.7924,0 -1.115,-0.62194 -0.778,-1.5 0.3574,-0.93151 -0.01,-1.5 -0.9581,-1.5 -0.8435,0 -1.6791,-0.75537 -1.857,-1.67859 -0.299,-1.55233 -0.4552,-1.54674 -2.0762,0.0743 -1.3818,1.38182 -1.8624,1.46737 -2.2704,0.40412 -0.352,-0.91738 -1.8007,-1.22641 -4.5293,-0.9662 l -4.0117,0.38258 0.6681,4.14189 c 0.3675,2.27805 0.7408,4.82481 0.8295,5.65948 0.089,0.83467 0.5175,2.09372 0.9527,2.79789 0.4352,0.70417 0.5405,1.93375 0.234,2.73242 -0.3065,0.79866 -0.01,1.453 0.6614,1.4541 0.6702,0.001 1.3158,1.3864 1.4345,3.07846 0.1187,1.69206 0.9062,4.4603 1.75,6.15165 0.8438,1.69135 1.5341,3.76454 1.5341,4.60709 0,1.61562 3.7917,6.16081 5.1395,6.16081 0.435,0 2.2691,-1.29262 4.0757,-2.87249 z M 712.41698,491 c 0.33992,-0.55 1.82898,-1.00001 3.30902,-1.00003 1.87513,-2e-5 3.53493,-1.05774 5.47466,-3.48877 1.53102,-1.91881 3.33102,-3.3813 4,-3.24997 0.67985,0.13346 1.12366,-0.64334 1.00622,-1.76123 -0.19342,-1.84134 1.43684,-6.49918 3.75688,-10.73376 0.52243,-0.95357 1.19454,-4.77857 1.49356,-8.5 0.29902,-3.72143 0.74763,-7.73605 0.99691,-8.92138 0.37748,-1.79492 0.0933,-2.06102 -1.69994,-1.59207 -1.81396,0.47437 -2.06447,0.22386 -1.5901,-1.5901 0.49721,-1.90135 0.25254,-2.08074 -2.09207,-1.53378 -1.46033,0.34066 -3.17157,1.12602 -3.80277,1.74524 -0.91771,0.9003 -13.73072,16.15387 -20.90533,24.88728 -1.82853,2.22581 -1.8504,3.73857 -0.054,3.73857 0.76616,0 1.65203,0.675 1.96862,1.5 0.31658,0.825 0.13972,1.5 -0.39301,1.5 -0.53274,0 -0.96862,0.72378 -0.96862,1.60841 0,1.20551 0.61088,1.45508 2.43871,0.99633 2.45855,-0.61706 5.01702,1.41002 2.73834,2.16958 -1.704,0.568 -1.44487,2.30189 0.57295,3.83363 2.12708,1.61469 2.94173,1.69986 3.75,0.39205 z m 57.18998,-4.22787 c 0.66903,-0.51578 1.05866,-2.64927 0.89002,-4.87343 -0.20406,-2.69119 0.17136,-4.2198 1.1742,-4.78102 1.20343,-0.67347 0.95003,-1.311 -1.3798,-3.47133 -3.46868,-3.21635 -4.6942,-3.29283 -7.33544,-0.45779 -2.39823,2.57419 -2.66232,4.26462 -0.53896,3.44981 1.72627,-0.66243 1.87416,0.24732 0.58949,3.62625 -0.6386,1.67964 -0.46165,3.32161 0.59251,5.49822 1.49365,3.08405 2.99057,3.33552 6.00798,1.00929 z M 1044.6967,483.75 c 0.01,-2.8875 -0.3542,-6.6 -0.8002,-8.25 -0.4461,-1.65 -1.0944,-4.6875 -1.4406,-6.75 -0.4908,-2.92376 -1.0859,-3.75 -2.7008,-3.75 -1.579,0 -1.947,-0.47538 -1.5484,-2 0.4345,-1.66121 0.031,-2 -2.3833,-2 -3.4985,0 -3.9289,2.69411 -1.0936,6.84563 0.9971,1.4599 1.8928,3.90147 1.9906,5.42571 0.2033,3.16971 3.8025,10.72866 5.1085,10.72866 0.4792,0 1.1536,1.125 1.4987,2.5 0.9586,3.81905 1.3572,3.01825 1.3691,-2.75 z m -39.9399,-2.59874 c 2.8886,-4.88768 3.2674,-6.2858 2.8035,-10.3475 -0.295,-2.58293 -1.2354,-6.04808 -2.0898,-7.70034 -0.8544,-1.65225 -1.5535,-3.87135 -1.5535,-4.93132 0,-1.05996 -0.7022,-2.51 -1.5605,-3.2223 -1.3428,-1.11445 -2.6331,-0.12953 -9.25,7.06109 -10.6719,11.59718 -11.4292,12.65856 -10.691,14.98441 0.35,1.10258 1.056,2.0047 1.5689,2.0047 0.5129,0 1.782,0.84938 2.8201,1.88751 4.1203,4.12025 9.0717,6.77213 11.8438,6.3433 2.1091,-0.32626 3.5643,-1.77455 6.1085,-6.07955 z m -130.54262,4.64863 c 1.5384,-0.59488 3.5035,-2.48071 4.3669,-4.19074 0.8634,-1.71003 2.3797,-4.00915 3.3694,-5.10915 2.0824,-2.31431 5.0154,-11.92191 5.6816,-18.61059 0.4153,-4.17079 0.2362,-4.67028 -1.878,-5.23634 -1.2854,-0.34417 -4.1371,-0.62907 -6.3371,-0.63312 -6.085,-0.0112 -33.3702,-2.9275 -38.7815,-4.14507 -5.8031,-1.30571 -10.165,-0.48091 -9.3053,1.75953 0.3914,1.02001 -0.1045,1.7336 -1.449,2.08522 -1.9321,0.50523 -1.9512,0.63723 -0.3492,2.40746 1.5957,1.76322 1.5918,1.87291 -0.067,1.87291 -1.1958,0 -1.5669,0.50823 -1.155,1.58179 0.3339,0.86998 0.607,2.21083 0.607,2.97967 0,0.76884 1.8028,2.31761 4.0062,3.4417 2.2034,1.12409 4.5616,2.93324 5.2405,4.02032 0.6789,1.08709 1.9647,1.97652 2.8572,1.97652 0.8925,0 4.6708,2.25 8.3961,5 3.7254,2.75 7.1619,5.05625 7.6367,5.125 0.4748,0.0688 1.4258,0.18125 2.1133,0.25 0.6875,0.0688 1.2569,0.575 1.2653,1.125 0.03,1.96593 1.7118,3.62682 3.1237,3.08503 0.7902,-0.30322 1.6712,0.0598 1.9579,0.80683 0.6386,1.66406 4.9313,1.86539 8.7003,0.40803 z M 675.01213,476 c 1.70001,0 1.85457,-0.50352 1.30457,-4.25 -0.67945,-4.6283 -4.74929,-14.22998 -6.48679,-15.30381 -1.10092,-0.68041 -7.91293,2.46932 -7.91293,3.65877 0,0.35758 0.675,1.21035 1.5,1.89504 0.825,0.68469 1.5,2.04979 1.5,3.03355 0,1.9597 4.81501,6.45557 7.9946,7.46474 2.57087,0.81596 2.5667,2.18878 -0.009,3.00632 -1.16273,0.36903 -1.71956,1.11665 -1.31692,1.76813 0.5082,0.82229 0.80628,0.80274 1.09786,-0.072 0.22001,-0.6604 1.26794,-1.20074 2.32861,-1.20074 z m 67.83456,-9.25 c 0.0387,-0.4125 -0.37971,-0.75 -0.92971,-0.75 -0.55,0 -0.96837,1.2375 -0.92971,2.75 0.0623,2.43684 0.16815,2.52225 0.92971,0.75 0.47269,-1.1 0.89106,-2.3375 0.92971,-2.75 z m 349.85241,2.59945 c 2.7997,-1.2429 3.272,-1.7576 1.9126,-2.08398 -2.6613,-0.63891 -1.3917,-2.79362 1.5293,-2.59572 1.8602,0.12603 3.9954,-1.35973 8.2895,-5.76801 3.1811,-3.26577 5.498,-6.22362 5.1486,-6.573 -0.3494,-0.34938 -2.3288,-0.76471 -4.3987,-0.92296 -2.0699,-0.15825 -3.9659,-0.31429 -4.2134,-0.34676 -0.2475,-0.0325 0.09,-0.59902 0.75,-1.25902 2.0065,-2.00655 1.414,-2.32966 -4.05,-2.20835 -2.8875,0.0641 -5.475,-0.2208 -5.75,-0.63312 -0.5552,-0.8325 -12.8993,1.29229 -17.3597,2.98814 -2.8358,1.07817 -2.8415,1.09769 -1.1012,3.81852 0.962,1.50415 2.6321,3.5844 3.7113,4.62279 1.0792,1.03839 2.5717,3.28839 3.3167,5 0.7451,1.71161 1.3722,2.54952 1.3938,1.86202 0.045,-1.42733 4.0391,2.19876 4.0391,3.66667 0,0.75182 1.0758,1.52689 2.7821,2.00438 0.1552,0.0434 1.9552,-0.6638 4,-1.5716 z M 699.77062,462.5 c 0.50701,-0.55 2.48476,-2.20673 4.39499,-3.68163 1.91022,-1.47489 4.39205,-4.23907 5.51517,-6.14261 l 2.04203,-3.46099 -9.31987,-0.006 c -8.9415,-0.006 -9.34374,0.0888 -9.90759,2.33532 -0.32324,1.28789 -0.18082,3.3799 0.31649,4.64892 0.49732,1.26901 1.44668,4.31727 2.10971,6.7739 1.12543,4.16992 1.29589,4.33597 2.56636,2.5 0.74847,-1.08163 1.77569,-2.4166 2.28271,-2.9666 z m 274.46358,1.15079 c 1.7505,-1.84207 4.8703,-4.14334 6.9328,-5.11394 2.0625,-0.9706 3.75,-2.16346 3.75,-2.65079 0,-0.48733 0.5418,-0.88606 1.204,-0.88606 0.6623,0 3.3212,-2.35166 5.9089,-5.22591 4.5251,-5.02634 4.651,-5.32997 3.296,-7.95034 -0.7749,-1.49844 -1.4089,-3.88035 -1.4089,-5.29314 0,-2.29024 -0.2981,-2.49955 -2.75,-1.93069 -1.5125,0.35091 -3.7467,1.25948 -4.9648,2.01905 -1.2182,0.75957 -3.2657,1.38103 -4.55,1.38103 -1.2844,0 -2.7627,0.37879 -3.2852,0.84176 -0.5225,0.46296 -3.461,1.37812 -6.5301,2.03368 -9.5247,2.03454 -12.9199,3.17607 -12.9199,4.34395 0,2.25126 3.5334,8.72969 4.775,8.75481 0.7012,0.0142 1.545,1.3758 1.875,3.0258 0.33,1.65 0.9098,3 1.2884,3 0.3785,0 1.3063,1.575 2.0616,3.5 0.7553,1.925 1.5445,3.5 1.7538,3.5 0.2093,0 1.8128,-1.50714 3.5634,-3.34921 z m 281.1725,-3.69935 c 0.1092,-1.89829 0.7613,-7.05144 1.4492,-11.45144 0.6879,-4.4 0.9944,-9.89292 0.681,-12.20649 -0.314,-2.31847 -0.1321,-4.47693 0.4052,-4.80902 0.5362,-0.33139 0.9749,-1.50252 0.9749,-2.60252 0,-1.1 -0.359,-1.77814 -0.7977,-1.50697 -0.4388,0.27117 -1.4387,0.0969 -2.222,-0.38719 -1.1884,-0.73444 -1.1391,-0.98966 0.2977,-1.541 1.2316,-0.47259 1.722,-1.79822 1.722,-4.65449 l 0,-3.99371 -4.25,0.55151 c -2.3375,0.30332 -8.075,1.22147 -12.75,2.04032 -4.675,0.81885 -12.775,1.75157 -18,2.0727 -11.0864,0.68139 -14.6666,1.12343 -25.5,3.14844 -11.3507,2.12172 -13.4011,3.0431 -12.7134,5.71289 0.609,2.36399 2.9839,4.59312 4.9475,4.64373 0.6787,0.0175 4.021,1.3818 7.4272,3.0318 3.4062,1.65 6.7256,3 7.3764,3 0.6507,0 2.7085,1.02742 4.5728,2.28315 1.8642,1.25573 5.6901,3.2666 8.5019,4.4686 2.8118,1.202 7.9868,3.50038 11.5,5.10752 3.5132,1.60713 9.0876,4.11832 12.3876,5.58042 3.3,1.4621 7.35,3.30046 9,4.08524 3.9984,1.90172 4.7549,1.51153 4.9897,-2.57349 z M 663.71194,444.85721 c 5.14771,-2.49196 7.16783,-6.26132 7.27533,-13.57509 0.0604,-4.10784 1.63113,-10.62811 1.87474,-7.78212 0.0471,0.55 0.52181,0.325 1.05497,-0.5 1.34978,-2.08863 1.29301,-8.29912 -0.0682,-7.45787 -0.5875,0.3631 -0.80474,1.34669 -0.48275,2.18577 1.06786,2.78279 -1.17948,4.01102 -6.56237,3.58651 -3.41765,-0.26952 -5.85202,0.0881 -7.36981,1.08256 -2.05284,1.34507 -2.46279,1.3021 -4.34986,-0.45597 -1.14588,-1.06755 -2.38884,-1.941 -2.76214,-1.941 -1.03517,0 0.18326,11.61112 2.0725,19.75 1.90329,8.19941 2.38476,8.46332 9.31756,5.10721 z m 392.06086,-1.48842 c 0.4089,-0.28395 -5.9879,-9.36879 -6.5967,-9.36879 -1.5471,0 -2.9049,3.05302 -2.5211,5.66826 0.2498,1.7022 -0.039,3.39974 -0.6419,3.77234 -2.5899,1.60064 -0.7163,2.13922 4.1539,1.19411 2.8875,-0.56035 5.4101,-1.13001 5.6058,-1.26592 z M 890.56458,434.25 c -0.7741,-12.73693 -2.7785,-22.62288 -5.8847,-29.02272 -2.2213,-4.57675 -3.4795,-6.14422 -4.6536,-5.79748 -0.8851,0.26137 -2.8468,0.77038 -4.3593,1.13112 -3.636,0.86721 -3.4698,1.77703 0.5931,3.2462 3.5891,1.29783 6.086,5.26556 5.1565,8.1941 -0.3319,1.04583 -2.2655,2.20373 -4.7205,2.82689 -4.631,1.17546 -5.9656,0.8215 -5.1284,-1.36014 0.8943,-2.3307 -2.0519,-1.73422 -4.5457,0.92028 -1.4385,1.53118 -2.9509,2.20331 -4.2143,1.87291 -1.8721,-0.48956 -1.8845,-0.6105 -0.2484,-2.4184 1.6799,-1.85632 1.5765,-1.88606 -4.21,-1.21055 -4.8377,0.56474 -15.5344,5.01313 -19.3611,8.05165 -0.2359,0.18728 -0.9587,3.7177 -1.6062,7.84537 -1.1758,7.49497 -1.1742,7.50565 1.1973,8.10086 1.3061,0.3278 3.5027,0.38036 4.8815,0.11679 1.3787,-0.26357 4.4079,-0.13718 6.7315,0.28085 2.3236,0.41804 7.4872,1.02524 11.4747,1.34934 5.882,0.47808 7.25,0.32055 7.25,-0.83488 0,-2.32034 2.0903,-2.91281 2.6552,-0.75259 0.432,1.65189 1.8252,2.1557 8.1827,2.95914 4.2142,0.53257 8.4626,1.03197 9.441,1.10978 1.5801,0.12567 1.733,-0.61265 1.3687,-6.60852 z m 183.71402,3.78843 c 1.0768,-1.07683 -5.7269,-2.54871 -7.2967,-1.57853 -0.5857,0.36197 -1.0786,0.0691 -1.0953,-0.65088 -0.018,-0.75576 -0.4894,-0.51904 -1.1163,0.56006 -0.823,1.41651 -0.7551,2.08169 0.2804,2.74707 1.5636,1.00476 7.8835,0.26666 9.2279,-1.07772 z M 724.69425,435.75 c 0.7149,-0.87426 0.60141,-1.63759 -0.37756,-2.53943 -0.80819,-0.74451 -1.39971,-0.85016 -1.39971,-0.25 0,1.89734 -3.17805,1.07455 -3.71025,-0.96057 -0.67428,-2.57843 -1.25855,-2.52642 -7.00427,0.6235 -7.50057,4.11197 -7.35599,4.3765 2.39208,4.3765 6.05022,0 9.41844,-0.41687 10.09971,-1.25 z m 375.54045,-5.5733 c 3.4571,-3.35078 6.0123,-4.20016 5.0439,-1.6767 -0.6766,1.76334 0.046,1.88752 2.7041,0.46482 1.0728,-0.57412 1.9343,-2.08536 1.9343,-3.39301 0,-2.43659 -2.3776,-4.07451 -4.2419,-2.92228 -0.5838,0.36081 -1.6607,-0.1634 -2.393,-1.16492 -1.1267,-1.54084 -1.7259,-1.64125 -3.8954,-0.65278 -3.1422,1.4317 -6.4697,1.5182 -6.4697,0.16817 0,-0.55 -1.9125,-1.00251 -4.25,-1.00558 -2.3375,-0.003 -5.9173,-0.46863 -7.955,-1.03458 -6.408,-1.77971 -16.0458,-1.96692 -18.545,-0.36023 -3.0259,1.94532 -2.8724,3.59471 0.2613,2.8082 2.0326,-0.51014 2.3934,-0.32313 1.893,0.98094 -0.4336,1.13001 -0.056,1.61125 1.2642,1.61125 1.0353,0 4.5607,1.31335 7.8342,2.91855 3.2735,1.6052 6.3036,2.70115 6.7335,2.43545 1.529,-0.94495 4.8917,0.85221 5.7325,3.06365 0.7815,2.05544 1.2886,2.19078 5.9628,1.59114 3.8562,-0.49471 5.9122,-1.43417 8.3862,-3.83209 z m -132.8177,1.02554 c 2.75,-0.58204 6.3177,-1.74262 7.9283,-2.57907 1.6106,-0.83645 3.3308,-1.27207 3.8227,-0.96805 0.4919,0.30403 4.0117,-0.25575 7.8217,-1.24394 5.2803,-1.36953 6.9273,-2.21708 6.9273,-3.5648 0,-1.54591 -0.7466,-1.70815 -5.9413,-1.29108 -4.3666,0.35058 -6.1556,0.11446 -6.75,-0.89093 -0.5863,-0.99175 -4.4883,-1.54909 -14.1889,-2.02668 l -13.3803,-0.65874 0.7876,5.26053 c 0.4332,2.89328 0.7661,6.24557 0.7398,7.44953 -0.042,1.91457 0.4087,2.15029 3.5927,1.88024 2.0022,-0.16982 5.8904,-0.78498 8.6404,-1.36701 z m -268.70198,-3.83516 c 3.13608,-1.99811 5.92696,-3.92306 6.20196,-4.27767 0.275,-0.35461 1.625,-1.16434 3,-1.7994 2.12442,-0.98118 1.20512,-1.16482 -6.11916,-1.22233 l -8.61916,-0.0677 -0.61983,3.75 c -0.77274,4.67502 -0.80605,7.25 -0.0938,7.25 0.30142,0 3.11392,-1.63482 6.25,-3.63292 z M 1199.417,414.37294 c 5.5,-0.8624 10.675,-1.8109 11.5,-2.10779 0.825,-0.29688 3.3,-0.71497 5.5,-0.92907 4.3127,-0.41973 35.8945,-6.06935 38.7051,-6.9239 1.374,-0.41779 1.5196,-1.00605 0.75,-3.0304 -0.5253,-1.38159 -0.9551,-3.80613 -0.9551,-5.38786 0,-1.58174 -0.3958,-3.12049 -0.8795,-3.41945 -0.4837,-0.29896 -1.6702,-3.90095 -2.6365,-8.00441 -0.9664,-4.10347 -2.3706,-7.6963 -3.1205,-7.98407 -0.7499,-0.28777 -1.3635,-1.57749 -1.3635,-2.86604 0,-1.28856 -0.9,-3.30886 -2,-4.48958 -1.1,-1.18071 -2,-3.35125 -2,-4.82342 l 0,-2.67667 -1.928,2.45103 c -1.0604,1.34807 -3.7538,3.05362 -5.9854,3.79012 -2.2316,0.73649 -6.6515,3.73399 -9.822,6.66109 -3.1706,2.9271 -6.0789,5.33224 -6.4631,5.34474 -0.3841,0.0125 -1.8537,1.0934 -3.2657,2.40199 l -2.5673,2.37926 2.2658,0.60709 c 1.2461,0.3339 4.2907,0.63299 6.7657,0.66464 2.475,0.0316 6.3,0.74237 8.5,1.57938 2.2,0.83701 4.9,1.79028 6,2.11839 1.1,0.32811 2.3211,1.08603 2.7135,1.68427 0.3925,0.59825 1.2863,1.08772 1.9863,1.08772 2.0219,0 1.937,2.79308 -0.1608,5.28974 -1.8271,2.1745 -2.6189,2.2939 -15.7315,2.37218 -7.5941,0.0453 -15.9586,0.4124 -18.5878,0.8157 -2.6292,0.4033 -4.9862,0.40021 -5.2378,-0.007 -0.2516,-0.40708 -1.9254,-0.96616 -3.7197,-1.24241 -3.652,-0.56226 -6.7622,1.4466 -6.7622,4.36764 0,2.27995 -1.9846,3.54702 -2.995,1.91217 -0.5937,-0.9606 -0.971,-0.90061 -1.6382,0.26041 -0.4767,0.82968 -1.7186,1.67117 -2.7596,1.86998 -3.3009,0.63037 -4.1465,3.25335 -2.0118,6.2405 1.5544,2.17517 2.4562,2.56378 4.9046,2.11356 1.65,-0.30341 7.5,-1.25726 13,-2.11965 z M 675.48392,401.49485 c 0.48985,-2.61109 0.37508,-3.57705 -0.37027,-3.1164 -1.13141,0.69925 -10.43388,-0.58357 -13.44667,-1.85431 -2.36993,-0.99959 -2.27042,0.93795 0.40759,7.93603 2.4561,6.41817 4.85404,8.38534 7.27296,5.96642 1.42593,-1.42593 1.57444,-1.31144 1.62398,1.25198 0.0483,2.49939 0.26843,2.29517 1.92853,-1.78916 1.03071,-2.53582 2.19345,-6.31337 2.58388,-8.39456 z m 36.85127,8.89816 c 0.86999,-0.33384 1.58179,-1.17896 1.58179,-1.87803 0,-0.69907 1.0125,-1.97732 2.25,-2.84056 l 2.25,-1.56952 -2.69098,-0.0525 c -1.48004,-0.0288 -2.9691,-0.5024 -3.30902,-1.0524 -0.33992,-0.55 -1.94148,-1 -3.55902,-1 -1.61754,0 -3.84098,-0.9 -4.94098,-2 -2.97092,-2.97092 -4.60045,-2.45585 -6.39142,2.02024 -2.93294,7.33013 -2.5797,7.84591 5.64142,8.23725 3.9875,0.18982 7.3257,0.43453 7.41821,0.54381 0.0925,0.10929 0.88002,-0.0744 1.75,-0.40829 z M 986.917,407.5 c 0,-2.76459 -0.3969,-3.5 -1.8887,-3.5 -1.3797,0 -2.0723,-0.97836 -2.5698,-3.63025 -0.8155,-4.34731 0.5767,-6.34646 3.0122,-4.32522 1.4493,1.20284 1.5984,1.08 1.2923,-1.06428 -0.2546,-1.7837 -1.2735,-2.69565 -3.8571,-3.45216 -1.9311,-0.56545 -4.6188,-1.81559 -5.9725,-2.77809 -1.3538,-0.9625 -2.9845,-1.75 -3.6239,-1.75 -0.6394,0 -1.8996,-1.125 -2.8005,-2.5 -1.0082,-1.53862 -2.5786,-2.5 -4.0837,-2.5 -1.872,0 -2.3165,-0.41039 -1.8953,-1.75 0.4698,-1.49423 0.3191,-1.4663 -1.0314,0.19113 -0.8699,1.06762 -1.5816,2.75512 -1.5816,3.75 0,0.99488 -0.3989,1.80887 -0.8865,1.80887 -0.8654,0 -1.9457,3.98304 -2.4411,9 -0.1357,1.375 -0.8807,3.77245 -1.6555,5.32766 -1.6611,3.33425 -0.3562,6.30034 2.6215,5.95883 1.0239,-0.11743 4.1845,0.44614 7.0236,1.25237 2.8392,0.80623 5.7642,1.24966 6.5,0.9854 0.7359,-0.26426 3.813,0.13492 6.838,0.88706 3.025,0.75213 5.8375,1.41728 6.25,1.4781 0.4125,0.0608 0.75,-1.46442 0.75,-3.38942 z m -368.31984,-3.72178 c 2.29909,-1.52802 5.11159,-2.77822 6.25,-2.77822 2.26337,0 2.94564,-3.34068 0.93592,-4.58275 -0.62364,-0.38543 -6.36114,-0.75817 -12.75,-0.8283 -6.38885,-0.0701 -12.0661,-0.40165 -12.6161,-0.73671 -0.55,-0.33506 -5.05,-1.15283 -10,-1.81727 -4.95,-0.66443 -10.9449,-1.57148 -13.32201,-2.01565 -6.0882,-1.1376 -6.31711,0.66699 -0.97661,7.69895 l 4.39101,5.78173 10.9538,0.72341 c 6.0246,0.39787 11.85381,0.90023 12.95381,1.11634 5.14503,1.01085 10.1712,0.10291 14.18018,-2.56153 z m 239.31982,-5.00142 c 0.825,-0.94777 3.0371,-1.97983 4.9158,-2.29348 4.0582,-0.67751 5.2962,-1.33132 4.6132,-2.43636 -0.277,-0.44817 0.9532,-1.42957 2.7337,-2.1809 3.1762,-1.34028 3.0863,-1.3755 -4.7627,-1.86606 -7.0175,-0.4386 -9.1053,-0.13158 -17,2.5 -8.017,2.67234 -9.0329,3.28326 -9.3013,5.59353 l -0.3014,2.59353 8.8014,-0.0935 c 7.0031,-0.0744 9.1078,-0.4456 10.3013,-1.81673 z m 148.82312,-12.0961 c 0.2111,-1.84192 -0.3465,-3.40195 -1.6084,-4.5 -1.0623,-0.92438 -3.9077,-3.41739 -6.3231,-5.54 l -4.3916,-3.8593 -0.5,2.8026 c -0.9949,5.5769 -2.5093,2.75823 -3,-5.584 -0.275,-4.675 -0.8019,-8.03807 -1.1709,-7.47348 -0.5784,0.88492 -0.5678,4.3496 0.06,19.6921 0.075,1.83399 0.5472,2.55132 1.451,2.20449 0.7369,-0.28277 1.917,0.18135 2.6224,1.03138 1.4315,1.72486 5.5882,2.08194 6.5283,0.56081 0.8743,-1.41462 5.5095,-0.82335 5.5095,0.70281 0,0.70504 -0.6484,1.28189 -1.441,1.28189 -0.7925,0 -1.7425,0.48784 -2.111,1.0841 -0.4265,0.69015 0.188,0.96269 1.691,0.75 1.7449,-0.24691 2.4453,-1.06982 2.6841,-3.1534 z M 629.90167,381.75 c -0.0364,-2.97542 -1.9004,-3.50642 -14.48469,-4.12641 -27.29837,-1.34488 -46.97177,-1.80219 -46.26469,-1.07542 0.93232,0.95828 46.16491,6.2343 54.51469,6.35871 4.39045,0.0654 6.24544,-0.27879 6.23469,-1.15688 z m 356.86243,-5 c 0.1359,-6.48188 -0.339,-7.24868 -5.3471,-8.6331 -6.3544,-1.75658 -8.8529,-1.41843 -10.1476,1.37335 -1.0912,2.35293 -0.7961,2.71577 6,7.37699 3.9312,2.6963 7.6509,4.95419 8.2661,5.01756 0.685,0.0705 1.1611,-1.91954 1.2286,-5.1348 z M 632.99441,354.7294 c 0.69928,-1.53475 2.60937,-2.79082 5.57598,-3.66676 2.89894,-0.85595 4.87976,-2.13872 5.53993,-3.58762 0.56516,-1.24041 2.10287,-2.83077 3.41712,-3.53413 2.99613,-1.60349 3.04554,-2.70862 0.13954,-3.12134 -2.03559,-0.2891 -2.24105,-0.84366 -2.15612,-5.81955 0.78583,-46.03741 0.57799,-55.40116 -1.25944,-56.74192 -1.00894,-0.73621 -2.95944,-2.32442 -4.33444,-3.52935 -1.375,-1.20493 -4.525,-3.72467 -7,-5.59941 -2.475,-1.87475 -5.625,-4.46812 -7,-5.76305 -1.375,-1.29494 -3.625,-3.28501 -5,-4.4224 -1.375,-1.13739 -5.65,-5.07786 -9.5,-8.7566 -3.85,-3.67874 -10.11638,-9.38832 -13.92528,-12.68795 -3.80891,-3.29962 -8.04579,-7.23682 -9.4153,-8.74932 -1.36951,-1.5125 -3.54063,-2.75 -4.82472,-2.75 -1.66803,0 -2.3347,-0.57109 -2.3347,-2 0,-1.1 -0.5625,-2.0109 -1.25,-2.02423 -1.60226,-0.0311 -6.36831,-10.09018 -8.30656,-17.53161 -1.1937,-4.58291 -1.26275,-6.47993 -0.34022,-9.34701 1.56953,-4.87793 2.85188,-6.37931 4.37147,-5.11816 0.66513,0.55201 1.47442,0.73857 1.79842,0.41457 1.28996,-1.28996 -0.72826,-3.55092 -4.84285,-5.42533 -4.6908,-2.13691 -9.43026,-6.04507 -9.43026,-7.7762 0,-2.44557 4.52698,-4.19203 10.86615,-4.19203 5.89138,0 6.69715,-0.26813 9.76684,-3.25 1.84014,-1.7875 3.35051,-3.79881 3.35636,-4.46958 0.0111,-1.27466 3.44626,-7.82475 5.29587,-10.09815 0.58965,-0.72475 3.6013,-6.34975 6.69256,-12.5 3.09126,-6.15025 6.75504,-12.98227 8.14174,-15.18227 1.3867,-2.2 2.87604,-4.59872 3.30964,-5.33049 0.4336,-0.73177 -0.83001,-0.28177 -2.80802,1 -1.97801,1.28177 -3.60195,2.90413 -3.60876,3.60524 -0.007,0.70111 -1.02488,1.68765 -2.26238,2.19231 -1.2375,0.50465 -4.90974,3.41851 -8.16053,6.47525 -3.25079,3.05673 -6.28699,5.55769 -6.74712,5.55769 -0.46012,0 -2.52538,1.50332 -4.58947,3.34072 -2.06408,1.8374 -7.12788,5.61615 -11.25288,8.39724 -4.125,2.78109 -8.49368,6.00276 -9.70819,7.15928 -1.2145,1.15652 -2.69582,2.10276 -3.29181,2.10276 -0.59599,0 -1.9449,0.8024 -2.99758,1.78312 -1.05267,0.98071 -3.62135,2.38889 -5.70818,3.1293 -2.08683,0.7404 -6.26924,2.77165 -9.29424,4.51388 -3.025,1.74223 -7.075,3.78316 -9,4.53539 -1.925,0.75224 -4.175,1.88603 -5,2.51955 -0.825,0.63352 -4.65,2.43173 -8.5,3.99602 -3.85,1.56429 -7.675,3.39376 -8.5,4.06548 -0.825,0.67173 -5.1,2.79075 -9.5,4.70893 -4.4,1.91818 -11.825,5.28184 -16.5,7.47481 -12.97078,6.0844 -15.13772,7.0128 -20,8.56877 -2.475,0.79202 -7.65,2.44958 -11.5,3.68346 -7.03365,2.2542 -11.37675,4.67541 -6.5,3.62364 1.375,-0.29655 7.225,-0.77894 13,-1.07199 5.775,-0.29306 12.975,-1.03533 16,-1.64951 3.025,-0.61417 11.99023,-1.32309 19.92274,-1.57537 12.48585,-0.39709 15.23888,-0.19227 20.5,1.52514 3.34249,1.0911 9.45226,2.99735 13.57726,4.23611 4.125,1.23876 11.775,4.42966 17,7.0909 5.225,2.66123 9.92052,4.83945 10.4345,4.84049 3.80374,0.008 19.63325,13.23462 28.90788,24.1551 1.56331,1.84073 4.26331,4.94558 6,6.89966 1.73669,1.95408 3.60762,4.23799 4.15762,5.07536 0.55,0.83736 3.16796,4.76445 5.8177,8.72688 2.64973,3.96242 5.07111,8.76601 5.38084,10.67464 0.30973,1.90863 1.10804,3.47024 1.77401,3.47024 1.38116,0 3.79363,6.95728 4.03554,11.63798 0.0892,1.7259 1.12266,4.76589 2.29659,6.75555 1.17393,1.98966 3.31781,7.49732 4.76419,12.23925 2.35211,7.71137 2.5929,9.90931 2.28045,20.81663 -0.2936,10.24981 -0.64542,12.49092 -2.20568,14.05056 -2.42245,2.42147 -4.86062,0.98296 -5.75624,-3.39616 -1.07563,-5.25922 -1.87113,-4.76209 -1.21706,0.76058 0.41103,3.47049 0.24718,5.13561 -0.50537,5.13561 -1.2836,0 -4.16497,-5.15423 -4.16497,-7.45034 0,-0.85231 -0.50248,-1.54966 -1.11663,-1.54966 -0.66998,0 -0.87544,0.9 -0.51366,2.25 0.33164,1.2375 0.60913,3.4562 0.61664,4.93045 0.0165,3.23354 0.56222,3.36449 15.27055,3.66419 10.39935,0.2119 10.79225,0.14159 11.82053,-2.11524 z M 585.62171,343.75 c -0.59847,-12.50554 -0.94298,-14.77817 -5.607,-36.98708 l -2.67487,-12.73709 -1.77122,8.23709 c -0.97418,4.53039 -2.41932,10.34663 -3.21143,12.92498 -0.79212,2.57834 -1.44021,5.34889 -1.44021,6.15678 0,0.80789 -1.33355,4.44112 -2.96345,8.07386 -3.74585,8.3488 -7.03655,18.93954 -7.03655,22.64635 l 0,2.85423 8.25,0.33689 c 4.5375,0.1853 10.22797,0.42849 12.64549,0.54044 L 586.20795,356 585.62171,343.75 z m -398.33586,-3.91733 c -0.20283,-1.74204 -1.2688,-4.69276 -2.36882,-6.55716 -1.10003,-1.86441 -2.00005,-4.02328 -2.00005,-4.79749 0,-1.81178 -3.70508,-3.80517 -5.67068,-3.0509 -0.97665,0.37478 -1.70311,-0.14047 -2.04583,-1.45104 -0.65443,-2.50257 -2.28453,-2.08147 -10.20356,2.63588 -3.15845,1.88147 -8.37796,4.34711 -11.59894,5.47919 -3.22097,1.13208 -6.77199,2.69969 -7.89116,3.48359 -1.11916,0.78389 -2.80816,1.42526 -3.75332,1.42526 -0.94516,0 -1.96682,0.40183 -2.27035,0.89296 -0.31686,0.51267 7.64301,0.87474 18.69098,0.85018 20.76254,-0.0461 26.22115,0.56806 25.3448,2.85181 -0.3683,0.95977 0.20159,1.40505 1.79827,1.40505 2.03556,0 2.28982,-0.40907 1.96866,-3.16733 z m -88.368873,-3.96351 c 0,-0.77047 1.195033,-0.89712 3.750003,-0.39742 5.75908,1.12637 18.2802,0.89806 19.53444,-0.35618 C 122.81498,334.502 124.35198,334 125.61698,334 c 1.265,0 2.3,-0.39268 2.3,-0.87262 0,-0.47994 2.1375,-1.97134 4.75,-3.31423 2.6125,-1.34288 11.05,-6.36096 18.75,-11.15129 9.94018,-6.18398 14.62496,-8.55913 16.15514,-8.19053 1.71416,0.41293 2.05688,0.14345 1.67497,-1.31701 -0.46192,-1.76637 -0.67985,-1.77028 -5.7338,-0.10297 -7.01987,2.31587 -12.67883,5.27421 -15.0013,7.84224 -1.04774,1.15853 -2.45425,2.10641 -3.12557,2.10641 -0.67132,0 -3.86407,1.20817 -7.09501,2.68482 -5.40611,2.47078 -6.95142,2.69176 -19.38386,2.77185 -11.81405,0.0761 -13.84306,0.33528 -16.16796,2.06518 C 98.919277,329.36445 95.404987,337 97.916977,337 c 0.55,0 1,-0.50888 1,-1.13084 z m -10.96851,-2.89858 c 3.67722,-3.43503 3.43031,-4.97449 -0.39576,-2.46755 -1.44703,0.94813 -3.38035,1.39541 -4.49808,1.04066 -1.15625,-0.36698 -3.2821,0.18169 -5.18303,1.33771 l -3.22276,1.95988 2.88407,0.42953 c 6.0722,0.90434 7.2677,0.64032 10.41556,-2.30023 z m 32.968513,-38.30064 c 11.45624,-2.14268 30.6325,-7.58553 32.91032,-9.34102 1.01693,-0.78373 -4.45765,-4.33238 -5.85192,-3.79325 -11.20879,4.33422 -13.67818,4.75315 -27.5381,4.67174 -8.10727,-0.0476 -14.23312,0.32792 -14.58297,0.894 -0.38769,0.62729 -1.61796,0.59031 -3.44275,-0.10347 -1.56171,-0.59376 -3.452323,-0.8444 -4.201353,-0.55697 -0.74903,0.28743 -7.74877,-0.11686 -15.55498,-0.89842 -7.80621,-0.78156 -14.31279,-1.30135 -14.45905,-1.15508 -0.57895,0.57894 7.71864,5.41702 12.8174,7.47345 5.49738,2.2172 25.355773,5.26144 29.903403,4.58412 1.375,-0.2048 5.875,-1.00359 10,-1.7751 z m 20.31468,-15.7549 c 2.09807,-0.56483 3.64268,-1.54297 3.43245,-2.17366 -0.21023,-0.63068 -3.49049,-3.0805 -7.28946,-5.44404 C 132.5096,268.27054 129.38288,267 126.79919,267 c -3.41454,0 -5.55806,-1.80719 -5.04097,-4.25 0.0873,-0.4125 -1.16468,-0.75 -2.78222,-0.75 -1.61754,0 -3.1977,-0.41538 -3.51147,-0.92306 -0.31377,-0.50769 -2.0214,-1.24174 -3.79473,-1.63123 -1.77333,-0.38949 -3.82144,-1.43661 -4.55135,-2.32694 -0.89516,-1.09189 -1.48549,-1.24505 -1.8137,-0.47055 -0.30858,0.72817 -1.9569,0.951 -4.50579,0.60913 -3.651043,-0.48971 -4.402213,-0.17402 -8.200593,3.44642 -6.0923,5.80689 -10.10789,8.29623 -13.38281,8.29623 -2.059,0 -4.02272,1.15727 -6.81367,4.01545 l -3.92098,4.01545 3.46803,-0.38578 c 1.90742,-0.21218 5.49304,0.28821 7.96804,1.11198 8.72772,2.9049 51.803783,3.7184 61.314683,1.15794 z m 499.78451,-17.51819 c -1.79394,-7.00276 -2.51353,-8.29172 -6.80267,-12.18514 -2.63809,-2.3947 -9.19662,-8.48449 -14.57452,-13.53286 l -9.778,-9.17885 -7.60779,-0.78088 c -6.86788,-0.70492 -10.86361,-0.1679 -7.54674,1.01427 3.60947,1.28647 32.21053,28.52969 32.21053,30.68133 0,0.74313 2.44765,2.51005 5.43922,3.92649 2.99156,1.41644 6.4471,3.93859 7.67896,5.60477 1.23186,1.66618 2.40792,2.86125 2.61346,2.65572 0.20554,-0.20554 -0.52906,-3.89772 -1.63245,-8.20485 z m -4.58981,-24.53657 c -0.88187,-2.94815 -1.93027,-6.48528 -2.32979,-7.86028 -0.70245,-2.4176 -1.0306,-2.50522 -9.9554,-2.65839 -5.31971,-0.0913 -8.99118,0.22638 -8.66757,0.75 0.30878,0.49961 2.07014,0.90839 3.91413,0.90839 2.83689,0 4.48176,1.1343 10.69099,7.37251 4.03604,4.05488 7.47613,7.25451 7.64464,7.11028 0.16852,-0.14422 -0.41514,-2.67435 -1.297,-5.62251 z"
     id="path2987"
     inkscape:connector-curvature="0" />
</svg>
