<?xml version="1.0" encoding="UTF-8" standalone="no"?>
<!-- Created with Inkscape (http://www.inkscape.org/) -->

<svg
   xmlns:dc="http://purl.org/dc/elements/1.1/"
   xmlns:cc="http://creativecommons.org/ns#"
   xmlns:rdf="http://www.w3.org/1999/02/22-rdf-syntax-ns#"
   xmlns:svg="http://www.w3.org/2000/svg"
   xmlns="http://www.w3.org/2000/svg"
   xmlns:sodipodi="http://sodipodi.sourceforge.net/DTD/sodipodi-0.dtd"
   xmlns:inkscape="http://www.inkscape.org/namespaces/inkscape"
   id="svg2"
   version="1.1"
   inkscape:version="0.48.2 r9819"
   width="1185.9261"
   height="1445.6693"
   sodipodi:docname="harrysladdertole00londiala_0021d.png">
  <metadata
     id="metadata8">
    <rdf:RDF>
      <cc:Work
         rdf:about="">
        <dc:format>image/svg+xml</dc:format>
        <dc:type
           rdf:resource="http://purl.org/dc/dcmitype/StillImage" />
        <dc:title></dc:title>
      </cc:Work>
    </rdf:RDF>
  </metadata>
  <defs
     id="defs6" />
  <sodipodi:namedview
     pagecolor="#ffffff"
     bordercolor="#666666"
     borderopacity="1"
     objecttolerance="10"
     gridtolerance="10"
     guidetolerance="10"
     inkscape:pageopacity="0"
     inkscape:pageshadow="2"
     inkscape:window-width="1600"
     inkscape:window-height="876"
     id="namedview4"
     showgrid="false"
     fit-margin-top="0"
     fit-margin-left="0"
     fit-margin-right="0"
     fit-margin-bottom="0"
     inkscape:zoom="0.5"
     inkscape:cx="400.56854"
     inkscape:cy="734.86056"
     inkscape:window-x="0"
     inkscape:window-y="24"
     inkscape:window-maximized="1"
     inkscape:current-layer="svg2" />
  <path
     style="fill:#000000"
     d="m 590.5,1444.0959 c -4.98072,-2.0046 -4.85853,-1.898 -3.91782,-3.4201 2.40432,-3.8902 1.03442,-11.2918 -2.56419,-13.8542 -5.71132,-4.0668 -35.3655,-7.4943 -43.83189,-5.0662 -3.78063,1.0843 -7.25153,0.3441 -5.01995,-1.0705 1.01925,-0.646 0.91789,-0.8491 -0.42972,-0.8608 -0.96996,-0.01 -2.54496,-0.4246 -3.5,-0.9249 -2.30005,-1.2049 -16.60628,-5.0904 -18.74238,-5.0904 -0.92323,0 -2.82276,-0.9 -4.22118,-2 -1.39842,-1.1 -3.80534,-2 -5.34871,-2 -1.54337,0 -3.08822,-0.4564 -3.43299,-1.0143 -1.19242,-1.9294 -8.42463,-4.9857 -11.79769,-4.9857 -1.86241,0 -4.7649,-0.6878 -6.44998,-1.5284 -1.68507,-0.8406 -5.46671,-1.7514 -8.40364,-2.0239 -5.41007,-0.5019 -17.26508,-2.9349 -21.83986,-4.4822 -1.375,-0.4651 -5.425,-1.1455 -9,-1.512 -3.575,-0.3666 -9.08812,-1.3198 -12.25137,-2.1182 -3.16325,-0.7984 -6.16711,-1.1947 -6.67523,-0.8807 -0.50813,0.3141 -4.61763,-0.4016 -9.13223,-1.5904 l -8.20836,-2.1614 -1.79961,2.3858 c -2.12705,2.8199 -3.29883,8.184 -2.40379,11.0041 0.37173,1.1712 -0.0586,3.0659 -1.03453,4.5555 -1.65339,2.5233 -1.76741,2.5427 -10.83293,1.8349 -5.03907,-0.3934 -10.28695,-1.2778 -11.66195,-1.9655 -1.375,-0.6877 -4.13792,-1.5465 -6.13981,-1.9086 -2.34015,-0.4232 -3.81209,-1.3171 -4.12229,-2.5033 -0.33031,-1.2631 -2.17851,-2.2633 -5.86019,-3.1716 -2.95774,-0.7296 -5.82771,-1.36 -6.37771,-1.4008 -2.14623,-0.1593 -6.11096,-1.8951 -8.38486,-3.6709 -1.31167,-1.0243 -3.33667,-1.8724 -4.5,-1.8846 -1.16333,-0.012 -3.24014,-0.9023 -4.61514,-1.9778 -1.375,-1.0755 -2.90039,-1.9655 -3.38976,-1.9778 -0.48936,-0.012 -1.40141,-0.7219 -2.02677,-1.5772 -0.62536,-0.8552 -2.69997,-1.9497 -4.61025,-2.4322 -3.95972,-1.0001 -15.76544,-5.3219 -20.97322,-7.6778 -4.68104,-2.1176 -7.97619,-5.2335 -7.32611,-6.9276 0.53374,-1.3909 -3.12507,-3.3335 -7.17389,-3.8089 -1.1,-0.1292 -2.98292,-0.7667 -4.18426,-1.4167 -1.20134,-0.65 -3.53728,-1.1818 -5.19098,-1.1818 -1.6537,0 -3.30126,-0.4766 -3.66125,-1.059 -0.36,-0.5825 -1.62405,-0.9644 -2.80902,-0.8488 -1.18497,0.1157 -3.42128,-0.3077 -4.96959,-0.9409 -1.5483,-0.6332 -4.03568,-1.1513 -5.52749,-1.1513 -3.13157,0 -7.15741,-2.4992 -7.15741,-4.4432 0,-0.8239 -1.80664,-1.5891 -4.75,-2.0117 -2.6125,-0.3751 -6.5794,-1.5511 -8.81534,-2.6133 -2.23594,-1.0623 -6.73594,-2.4059 -10,-2.9857 -6.78406,-1.2052 -9.77233,-3.7525 -8.82587,-7.5235 0.70142,-2.7947 -0.98869,-3.7289 -9.85812,-5.4491 -3.16213,-0.6132 -6.31213,-1.6515 -7,-2.3072 -3.29983,-3.1456 -6.76697,-4.613 -9.5732,-4.0518 -1.6876,0.3375 -3.22403,0.1192 -3.61521,-0.5138 -0.37416,-0.6054 -1.48399,-1.1007 -2.46629,-1.1007 -0.9823,0 -2.60048,-0.9 -3.59597,-2 -0.99549,-1.1 -2.3151,-2 -2.93248,-2 -0.61738,0 -2.15119,-0.7205 -3.40846,-1.6011 -2.17392,-1.5227 -2.20173,-1.6943 -0.56752,-3.5 1.63045,-1.8017 1.6209,-1.905 -0.18655,-2.0173 -1.04775,-0.065 -2.29366,-0.048 -2.7687,0.038 -0.47504,0.086 -3.40004,-0.5818 -6.5,-1.484 -3.09996,-0.9021 -8.80205,-1.7329 -12.67132,-1.846 -3.86926,-0.1132 -7.46926,-0.4631 -8,-0.7777 -1.23796,-0.7337 -11.9682,-1.9209 -20.96497,-2.3195 -9.7466,-0.4319 -15.22286,-1.4534 -16.58414,-3.0937 -1.35265,-1.6298 -5.06542,-1.849 -6.52899,-0.3855 -0.68416,0.6842 -2.04789,0.6524 -4.2,-0.098 -2.53828,-0.8848 -3.18687,-1.6694 -3.18687,-3.8548 0,-2.3278 -0.59743,-2.9229 -3.93963,-3.9243 -2.16884,-0.6498 -10.37189,-1.2126 -18.25,-1.2521 -14.24535,-0.071 -34.43552,-2.9876 -35.94028,-5.1911 -0.3665,-0.5367 -4.02549,-0.6218 -8.75,-0.2036 L 27,1290.0169 l 0,-5.0095 c 0,-4.2773 0.52521,-5.6444 3.59368,-9.3541 1.97653,-2.3895 4.90153,-4.9887 6.5,-5.776 1.59848,-0.7873 2.90632,-2.0248 2.90632,-2.75 0,-0.7252 0.675,-1.3186 1.5,-1.3186 0.825,0 1.5,-0.45 1.5,-1 0,-0.55 0.8687,-1 1.93045,-1 1.2406,0 2.04464,-0.804 2.25,-2.25 0.24492,-1.7245 1.0786,-2.3232 3.56955,-2.5634 2.96159,-0.2855 3.25,-0.6123 3.25,-3.6826 0,-2.6193 0.50081,-3.5255 2.25,-4.0714 1.2375,-0.3862 2.58061,-1.204 2.98469,-1.8174 1.25171,-1.9 0.84024,-8.5001 -0.77021,-12.3545 -1.237,-2.9605 -1.30683,-4.2271 -0.35922,-6.5148 0.71535,-1.727 0.98443,-5.6625 0.68665,-10.0429 -0.26931,-3.9616 -0.19951,-10.353 0.15512,-14.203 0.74939,-8.1358 -0.52058,-11.711 -4.97881,-14.0164 -3.31925,-1.7165 -10.2223,-1.9532 -13.03656,-0.447 -1.06527,0.5701 -5.8143,1.5108 -10.5534,2.0905 -7.92254,0.9691 -9.11034,0.8747 -14.7474,-1.1721 -3.37197,-1.2243 -7.36593,-3.259 -8.87546,-4.5214 -1.50954,-1.2625 -3.64704,-2.5818 -4.75,-2.9319 C 0.33351,1184.7798 0,1183.8004 0,1179.4213 c 0,-4.9802 0.24629,-5.4814 4.75,-9.6654 2.6125,-2.427 6.55326,-5.7705 8.75724,-7.43 6.76507,-5.0937 9.29902,-7.6353 10.49783,-10.5294 0.63295,-1.5281 2.80324,-4.0703 4.82287,-5.6493 3.60472,-2.8184 17.61125,-10.0777 23.82996,-12.3506 1.73685,-0.6349 5.23225,-3.1418 7.76756,-5.5711 2.53531,-2.4292 5.0361,-4.4168 5.5573,-4.4168 0.52121,0 2.48391,-1.3489 4.36156,-2.9975 3.46456,-3.0419 18.39155,-11.0025 20.63091,-11.0025 1.14348,0 10.38671,-5.1906 16.02477,-8.9988 3.04348,-2.0557 11.8284,-5.9996 13.37712,-6.0055 0.61758,0 2.99693,-1.2477 5.28742,-2.7675 4.14371,-2.7493 18.44361,-20.8429 19.76618,-25.0099 0.37434,-1.1795 3.46807,-5.0409 6.87495,-8.5811 10.50839,-10.9195 17.92015,-18.8899 24.69433,-26.5557 9.48057,-10.7284 16.36555,-17.6716 18.83277,-18.992 1.19197,-0.6379 2.16723,-1.722 2.16723,-2.4091 0,-2.8801 5.90513,-4.7193 18.94763,-5.9013 10.81981,-0.9805 13.81047,-0.9469 17.31554,0.1945 4.73266,1.5413 8.71133,1.6301 54.23683,1.2104 17.6,-0.1623 48.20761,-0.046 68.01691,0.2575 26.15137,0.4012 36.97097,0.2323 39.5,-0.6168 2.22899,-0.7483 13.36219,-1.2692 30.92087,-1.4465 l 27.43778,-0.2772 1.30159,-2.3005 c 0.78219,-1.3825 1.07428,-3.77902 0.73196,-6.00542 -0.31331,-2.0376 -0.0486,-6.3126 0.58831,-9.5 1.05167,-5.2632 8.55834,-37.0631 11.04641,-46.7951 0.56246,-2.2 1.68605,-8.4234 2.49688,-13.8297 0.81084,-5.4064 1.92088,-10.6643 2.46677,-11.6843 0.54588,-1.02 0.99907,-3.7966 1.00707,-6.1703 0.008,-2.3736 0.72879,-6.3407 1.60174,-8.8157 2.71192,-7.68887 6.46745,-31.79162 6.85577,-44 0.23519,-7.39379 1.6253,-19.26265 2.40102,-20.5 0.34481,-0.55 0.72635,-4.375 0.84788,-8.5 0.12152,-4.125 0.42851,-10.762 0.68218,-14.74889 0.54635,-8.58669 0.12372,-8.59171 -8.03545,-0.0955 -7.13082,7.42542 -14.08676,14.37842 -19.23724,19.22913 -2.40325,2.26337 -5.15477,5.37151 -6.11449,6.90697 -1.77821,2.84495 -10.66163,12.31284 -17.6458,18.80674 -2.12859,1.97918 -7.47016,7.58878 -11.87016,12.46579 -4.4,4.877 -9.00881,9.78268 -10.24179,10.9015 -1.23299,1.11882 -5.50799,5.36629 -9.5,9.43882 -15.66909,15.98514 -14.62689,15.26564 -18.19934,12.56364 -1.06762,-0.8075 -2.66508,-1.46824 -3.54992,-1.46824 -0.88483,0 -4.51132,-2.0866 -8.05887,-4.6369 -6.41754,-4.6135 -10.45427,-8.19199 -22.68866,-20.1131 -3.52784,-3.4375 -6.7871,-6.25 -7.24281,-6.25 -0.45571,0 -1.98207,-1.9683 -3.39191,-4.37401 -1.40983,-2.4057 -7.38195,-9.20431 -13.27136,-15.10801 -10.61838,-10.64415 -10.74144,-10.72953 -14.69941,-10.19866 -3.72535,0.49968 -4.28012,0.22968 -8.32365,-4.05105 -2.38275,-2.52239 -4.33228,-5.546 -4.33228,-6.719 0,-1.20671 1.95385,-4.05027 4.5,-6.54913 2.475,-2.42903 4.50777,-4.88522 4.51728,-5.45821 0.009,-0.57298 1.16387,-2.12979 2.56527,-3.45957 1.4014,-1.32978 3.42777,-4.14228 4.50305,-6.25 1.07527,-2.10772 2.37903,-3.83222 2.89723,-3.83222 1.82723,0 15.83623,-14.62331 23.01717,-24.0265 1.375,-1.80051 8.09428,-8.94362 14.93173,-15.87358 6.83745,-6.92996 16.93981,-17.54992 22.44968,-23.59992 5.50988,-6.05 11.51404,-12.19702 13.34258,-13.66004 1.82855,-1.46303 6.35119,-5.95873 10.05032,-9.99046 3.69913,-4.03172 10.10069,-10.7097 14.22569,-14.83995 8.79931,-8.81052 17.66901,-18.80966 21.90731,-24.69694 1.65799,-2.30307 4.5458,-5.22807 6.41735,-6.5 1.87156,-1.27194 6.66643,-6.13761 10.65527,-10.81261 3.98884,-4.675 9.55837,-10.62854 12.37673,-13.23009 2.81836,-2.60156 5.12857,-5.37954 5.13381,-6.17329 0.005,-0.79376 6.22999,-7.95996 13.83278,-15.92491 7.60278,-7.96494 14.80943,-15.76196 16.01477,-17.32671 2.31365,-3.00353 5.53374,-6.75483 12.24972,-14.27051 2.24825,-2.51597 4.77955,-6.72864 5.6251,-9.36149 l 1.53737,-4.78701 -4.12511,-2.04241 c -2.2688,-1.12332 -5.9251,-2.63374 -8.1251,-3.35647 -17.07207,-5.60846 -22.5,-8.80517 -22.5,-13.25108 0,-1.30644 -0.68105,-3.69236 -1.51345,-5.30203 -1.24761,-2.41263 -1.34217,-4.37991 -0.53835,-11.20034 1.95359,-16.5763 3.15745,-25.45048 4.59872,-33.89927 2.05587,-12.05153 1.67805,-15.53355 -1.84408,-16.99526 -1.53844,-0.63846 -3.42149,-2.36817 -4.18457,-3.8438 -0.76308,-1.47563 -3.10436,-3.83278 -5.20284,-5.23811 -2.09849,-1.40533 -7.23795,-5.64711 -11.42104,-9.42618 -4.18309,-3.77907 -10.25529,-9.12104 -13.49378,-11.87104 -10.68184,-9.07059 -42.39904,-40.90454 -45.8313,-46 -3.65337,-5.42372 -15.58585,-16.5 -17.77545,-16.5 -0.74379,0 -2.01418,-1.00095 -2.8231,-2.22434 -1.55866,-2.35728 -4.15973,-5.05814 -13.00017,-13.49894 C 368.43442,376.84481 364,371.85886 364,370.75047 c 0,-0.44381 -0.93824,-1.1047 -2.08498,-1.46866 -1.14675,-0.36396 -6.20925,-4.81159 -11.25,-9.88361 C 345.62426,354.32617 338.575,347.75184 335,344.78857 c -7.24503,-6.0053 -16.9277,-15.01017 -30.62347,-28.47979 -5.03311,-4.95 -11.11433,-10.55834 -13.51382,-12.46298 -2.39949,-1.90463 -4.52691,-3.85972 -4.72759,-4.34464 -0.20069,-0.48492 -1.74453,-2.07658 -3.43077,-3.53703 -1.68623,-1.46044 -5.57203,-4.97859 -8.63511,-7.81811 -7.60775,-7.05248 -20.70259,-18.33724 -21.27855,-18.33724 -0.25888,0 -3.17224,-2.5875 -6.47414,-5.75 -9.64547,-9.23828 -21.3205,-19.56816 -24.75069,-21.89904 -1.74673,-1.18693 -4.27613,-3.79364 -5.62087,-5.79267 -1.34475,-1.99903 -4.69499,-5.14957 -7.44499,-7.00121 -5.52528,-3.7203 -7.47237,-6.99641 -9.67846,-16.28464 -1.98951,-8.37642 -0.81558,-11.48814 7.83872,-20.77784 3.76186,-4.03805 8.81498,-9.73876 11.22916,-12.66825 4.03482,-4.89607 14.71575,-16.7946 20.49926,-22.83613 C 242.36913,152.64096 252,137.77055 252,135.78261 c 0,-1.02069 0.41717,-2.11362 0.92704,-2.42874 0.50988,-0.31512 1.4738,-2.25418 2.14204,-4.30902 1.53864,-4.73129 6.83801,-12.23607 8.64028,-12.23607 0.75367,0 3.09462,-0.87968 5.20211,-1.95484 3.12947,-1.59653 4.49022,-1.77303 7.42403,-0.96297 1.97573,0.54553 3.86628,1.43527 4.20121,1.97722 0.33494,0.54194 3.2762,2.33175 6.53614,3.97736 3.25993,1.64561 5.92715,3.63678 5.92715,4.42483 0,1.45937 7.06886,8.62592 29.62895,30.0384 6.95373,6.6 14.26943,13.71716 16.2571,15.81591 7.71062,8.1415 36.01276,36.40972 40.68865,40.63988 2.70892,2.45068 8.98846,8.07568 13.95454,12.5 4.96608,4.42431 12.40906,11.41921 16.53996,15.54421 4.1309,4.125 12.66775,12.37078 18.97077,18.32396 24.2286,22.88384 46.71626,44.60234 56.87847,54.93303 5.81986,5.91635 10.93102,10.75385 11.35815,10.75 0.60722,-0.005 19.42175,18.54445 24.22341,23.88273 3.91679,4.35452 14.93934,13.16852 16.15439,12.91759 0.82131,-0.16962 3.2254,-4.56394 5.36549,-9.80731 3.61139,-8.84817 4.41066,-9.98029 11.64899,-16.5 4.27436,-3.85 9.13294,-8.575 10.79686,-10.5 7.68433,-8.89007 16.02948,-15.97252 23.42361,-19.87941 1.43586,-0.75867 3.51066,-2.18589 4.61066,-3.1716 3.06186,-2.74371 15.5122,-9.51355 20,-10.87493 2.2,-0.66737 4.9,-1.57818 6,-2.02402 6.8967,-2.79526 10.4105,-4.07714 13.5,-4.92488 1.925,-0.52821 6.0952,-1.90411 9.2671,-3.05755 3.1718,-1.15343 6.7718,-1.85537 8,-1.55986 3.3749,0.81207 6.90254,-2.77536 22.46204,-22.84307 3.9744,-5.12591 8.82,-10.84546 12.7193,-15.01325 1.6217,-1.73329 5.4077,-5.85143 8.4135,-9.15143 3.0058,-3.3 8.429,-9.1591 12.0516,-13.02022 3.6226,-3.86112 9.8117,-10.84729 13.7535,-15.52482 3.9419,-4.67752 10.8172,-11.92312 15.2785,-16.10133 4.4613,-4.1782 9.5062,-9.70243 11.2109,-12.27607 1.7047,-2.57364 4.6142,-5.70861 6.4655,-6.9666 3.816,-2.59303 16.3781,-16.51119 16.3781,-18.14607 0,-0.58991 1.5271,-2.5527 3.3936,-4.36177 1.8665,-1.80907 3.6553,-4.59735 3.975,-6.19617 0.3198,-1.59882 1.208,-2.90695 1.9738,-2.90695 1.7505,0 21.6576,-19.76631 21.6576,-21.50436 0,-0.70491 0.7394,-1.5654 1.6431,-1.91219 0.9038,-0.34679 1.4264,-0.84728 1.1615,-1.11219 -0.2649,-0.26491 3.1681,-4.19182 7.6289,-8.72646 4.4607,-4.53464 9.0665,-9.5948 10.2349,-11.2448 3.1246,-4.41241 17.5192,-21.66921 27.8316,-33.36551 4.95,-5.61431 10.5004,-12.10383 12.3342,-14.42116 1.8338,-2.31733 6.1363,-7.13833 9.5612,-10.71333 3.4249,-3.575 9.7873,-10.95736 14.1388,-16.40525 11.787,-14.7569596 17.1699,-17.9751816 22.7387,-13.5947496 1.3984,1.1 2.8223,2 3.1642,2 0.342,0 2.8392,1.6875 5.5495,3.75 2.7103,2.0625 7.6965,5.7749996 11.0805,8.2499996 3.384,2.475 8.6908,7.00723 11.7928,10.07162 3.1021,3.06439 8.1752,7.23588 11.2737,9.27 3.0985,2.03411 6.6985,4.75498 8,6.04638 1.3015,1.29141 4.6164,3.48698 7.3664,4.87906 2.75,1.39208 6.6721,3.81397 8.7157,5.38199 2.0436,1.56802 4.8601,3.66247 6.2589,4.65434 3.1749,2.25137 5.8219,8.34629 5.1383,11.83141 -0.5935,3.02563 -4.0628,8.38791 -9.6175,14.8652 -9.8967,11.54035 -12.3617,14.6238 -14.7263,18.42118 -1.3969,2.24335 -4.5039,6.40059 -6.9045,9.23831 -2.4005,2.83772 -4.3646,5.67171 -4.3646,6.29775 0,0.62604 -1.0428,2.12927 -2.3173,3.34051 -1.2745,1.21124 -5.4207,6.70225 -9.2138,12.20225 -10.957,15.88786 -22.2407,30.50581 -28.5606,37 -5.3819,5.53028 -5.9592,6.57275 -7.3738,13.31598 -2.252,10.73504 -4.9696,15.18402 -9.2748,15.18402 -1.5207,0 -3.5902,1.31007 -5.529,3.5 -2.0021,2.26139 -4.0068,3.50787 -5.6647,3.52224 -5.1575,0.0447 -10.5791,6.90922 -10.223,12.94381 0.3007,5.09641 -4.7334,11.50643 -10.279,13.08839 -2.3022,0.65675 -5.9331,3.0576 -8.7475,5.78418 -2.6464,2.56376 -5.6002,5.36471 -6.564,6.22434 -1.675,1.49384 -12.0064,12.53082 -18.6625,19.93704 -1.73,1.925 -4.6455,5.42788 -6.4788,7.78417 -1.8334,2.35629 -4.5209,5.52328 -5.9723,7.03777 -1.4514,1.51448 -5.3389,5.87314 -8.6389,9.68591 -9.3472,10.79965 -14.7175,16.62236 -18.25,19.78739 -3.6795,3.29674 -4.0188,4.50871 -1.5,5.35664 8.6679,2.91793 15.4179,7.34335 23.75,15.571 3.3,3.25861 11.1133,10.87771 17.3629,16.93133 10.0727,9.75681 21.275,23.15436 29.3249,35.07175 1.4783,2.18852 3.3584,4.72047 4.1781,5.62658 1.648,1.82187 12.2313,21.52111 16.1966,30.14746 1.3904,3.025 4.3077,8.95063 6.4828,13.16807 3.9641,7.68639 4.8222,10.83193 2.9547,10.83193 -1.6366,0 -1.134,1.82625 0.599,2.17668 1.5766,0.31877 5.2633,12.43774 8.8354,29.04337 0.795,3.69602 2.3725,8.81573 3.5056,11.37711 1.133,2.56139 2.06,5.47332 2.06,6.47094 0,0.99763 0.45,2.09198 1,2.4319 0.55,0.33992 1,1.88652 1,3.43689 0,1.55038 0.675,4.43436 1.5,6.40887 0.825,1.9745 1.5,5.08255 1.5,6.90678 0,1.82423 0.9769,6.00118 2.1709,9.28212 1.4216,3.90638 2.135,8.07768 2.0669,12.08533 -0.091,5.36602 0.1651,6.24599 2.0792,7.1427 1.9518,0.91442 9.5099,6.56543 18.3202,13.69762 1.7255,1.39683 3.55,2.53969 4.0545,2.53969 0.5045,0 3.8177,3.18447 7.3628,7.07661 8.5123,9.3458 22.9131,20.92339 26.0255,20.92339 0.6327,0 2.336,1.15955 3.7852,2.57679 1.4491,1.41723 6.4332,5.57973 11.0758,9.25 4.6425,3.67026 9.8744,8.19415 11.6264,10.05308 2.8564,3.03082 9.88586,8.33871 20.68256,15.6172 2.0625,1.39041 3.75,2.97237 3.75,3.51547 0,0.54311 0.5661,0.98746 1.258,0.98746 1.1582,0 27.932,18.86239 40.7567,28.71349 7.4942,5.75661 14.6769,10.93831 22.5758,16.28651 3.6553,2.475 8.9553,6.55777 11.7778,9.07283 4.908,4.37347 14.7798,10.92717 16.4596,10.92717 0.4389,0 2.0913,1.35 3.6721,3 1.5808,1.65 3.3571,3 3.9473,3 0.5902,0 2.2864,1.125 3.7693,2.5 1.4829,1.375 3.0533,2.50355 3.4898,2.5079 0.4365,0.004 4.7544,3.53999 9.5953,7.85699 5.2287,4.66288 10.4293,8.38627 12.8113,9.1724 3.6119,1.19204 5.9271,3.4216 5.8638,5.64697 -0.013,0.44866 -1.6294,2.61574 -3.5924,4.81574 -3.0968,3.47058 -5.0649,5.74721 -11.6701,13.5 -0.7029,0.825 -2.6136,3.51608 -4.2461,5.98018 -4.297,6.48583 -5.2979,7.71909 -12.2182,15.05481 -3.4375,3.64382 -6.25,7.08186 -6.25,7.64008 0,0.55823 -0.9,1.82944 -2,2.82493 -1.1,0.99549 -2,2.36013 -2,3.03254 0,0.67242 -0.6833,1.78966 -1.5185,2.48278 -0.8351,0.69311 -2.2247,2.74869 -3.088,4.56795 -0.8633,1.81927 -3.5068,5.30088 -5.8744,7.73693 -2.3676,2.43604 -4.6121,5.39755 -4.9878,6.58112 -0.3756,1.18358 -1.7502,2.85124 -3.0546,3.70591 -1.3044,0.85467 -3.8207,3.88019 -5.5918,6.72336 -10.6046,17.02354 -13.9219,20.66941 -18.8066,20.66941 -1.5475,0 -3.6084,-0.93028 -4.6733,-2.10951 -2.7208,-3.01292 -14.0114,-11.89049 -15.1225,-11.89049 -0.5136,0 -2.0248,-1.17884 -3.3582,-2.61965 -1.3334,-1.44081 -3.9993,-3.65309 -5.9243,-4.91619 -1.925,-1.26309 -6.2,-4.87675 -9.5,-8.03034 -3.3,-3.15359 -8.925,-7.69978 -12.5,-10.10265 -9.43,-6.33819 -13.1217,-9.0708 -16.5,-12.21327 -1.65,-1.53484 -5.02496,-4.0551 -7.49996,-5.60059 -2.475,-1.54549 -5.877,-3.98163 -7.56,-5.41365 -8.4449,-7.18567 -25.3888,-20.38 -40.69,-31.68563 -2.6125,-1.9303 -4.75,-4.17517 -4.75,-4.98859 0,-0.81342 -1.0224,-1.86766 -2.272,-2.34276 -1.2496,-0.4751 -4.1743,-2.37646 -6.4994,-4.22525 -2.3251,-1.84879 -6.9643,-5.38643 -10.3094,-7.86143 -3.3451,-2.475 -8.2647,-6.3 -10.9324,-8.5 -2.6677,-2.2 -6.958,-5.575 -9.5342,-7.5 -2.5761,-1.925 -6.7693,-5.41028 -9.3182,-7.74508 -2.7659,-2.53356 -5.4408,-4.14626 -6.6344,-4 -2.319,0.28417 -2.3181,0.67254 0.043,19.24508 0.839,6.6 1.6677,13.125 1.8416,14.5 0.1738,1.375 0.873,5.12431 1.5537,8.3318 0.6806,3.20748 0.9738,6.88274 0.6514,8.16724 -0.3285,1.30869 -0.1058,2.49555 0.5064,2.69964 1.1052,0.36837 1.7648,2.90834 4.4684,17.20499 0.822,4.34702 1.9614,9.74702 2.5319,12 0.5705,2.25298 1.1428,5.44633 1.2716,7.09633 0.1289,1.65 0.7146,3.9 1.3016,5 0.587,1.1 1.3917,3.8 1.7884,6 0.3966,2.2 1.0739,4.45 1.5051,5 0.8934,1.13946 2.2217,10.38207 2.1945,15.27003 -0.01,1.79851 0.6228,4.49851 1.406,6 0.7833,1.50148 1.427,3.94091 1.4303,5.42095 0,1.48004 0.3928,2.92989 0.8652,3.22189 0.4725,0.29199 1.1611,3.10141 1.5304,6.24315 0.3692,3.14174 1.1092,6.23985 1.6444,6.88469 1.0462,1.26055 2.3947,7.11851 4.0014,17.38127 0.553,3.53209 1.3855,6.90709 1.85,7.5 0.4646,0.59291 1.1427,3.10302 1.5069,5.57802 0.3643,2.475 0.8645,5.4 1.1115,6.5 0.2471,1.1 0.9662,4.475 1.5979,7.5 0.6318,3.025 1.9924,8.29407 3.0236,11.70905 1.0312,3.41498 2.3821,9.71498 3.0022,14.00005 0.62,4.285 1.6902,8.4659 2.3782,9.2909 1.2517,1.5009 1.6714,3.2784 3.4237,14.5 0.5153,3.3 1.4171,7.572 2.0039,9.4934 0.5868,1.9214 1.0669,5.1573 1.0669,7.191 0,2.0337 0.4078,3.9496 0.9063,4.2577 0.4985,0.3081 1.2178,2.8247 1.5985,5.5924 0.3806,2.7678 1.5478,7.3735 2.5936,10.2348 1.0459,2.8614 1.9016,7.0244 1.9016,9.2512 0,2.2269 0.8644,6.5082 1.9208,9.5142 1.0565,3.0059 2.8234,8.9111 3.9264,13.1226 1.1031,4.21162 2.7137,9.02672 3.5792,10.70042 0.8655,1.6736 1.5886,3.8528 1.6069,4.8426 0.067,3.6071 3.5326,6.1555 10.5845,7.7827 7.2833,1.6805 16.2092,6.7971 18.8267,10.792 2.6428,4.0334 5.0149,26.3802 5.0441,47.5187 0.01,7.4767 0.2084,8.3367 2.0114,8.73 18.39176,4.0126 27.17176,6.7159 28.99996,8.929 1.9719,2.387 5.1204,3.992 11,5.6075 1.65,0.4533 5.7,1.7719 9,2.9302 3.3,1.1583 8.25,2.559 11,3.1126 7.0975,1.4289 12.4964,3.9293 12.5211,5.7989 0.012,0.8789 1.1346,4.7481 2.4956,8.5981 2.4643,6.971 3.0057,12.3131 1.6082,15.869 -0.7362,1.8731 -2.5805,3.3436 -15.6541,12.4811 -3.866,2.702 -7.5939,5.5933 -8.2841,6.4249 -0.6902,0.8317 -3.7431,3.0225 -6.7842,4.8686 -3.0412,1.846 -7.1556,4.6081 -9.1433,6.138 -1.9876,1.5299 -5.4466,3.6603 -7.6865,4.7341 -9.7078,4.6537 -16.1108,8.6347 -17.0937,10.6276 -0.5814,1.1789 -1.6577,2.8671 -2.3917,3.7516 -0.9539,1.1492 -1.1548,3.2485 -0.7043,7.3566 0.3467,3.1617 1.4295,14.6048 2.406,25.4292 1.3656,15.1358 2.16,20.1055 3.4399,21.5198 1.3443,1.4854 1.4869,2.6044 0.7416,5.8193 -1.0554,4.5521 -1.2235,11.9343 -0.3465,15.2063 0.4948,1.8458 0.927,2.0494 2.53,1.1915 1.0633,-0.5691 6.7511,-1.2944 12.6396,-1.6119 5.8885,-0.3176 11.5335,-1.0032 12.5444,-1.5238 1.0109,-0.5205 7.3244,-0.9205 14.03,-0.8888 11.0531,0.052 12.6488,-0.1736 17.0815,-2.4177 6.3133,-3.1963 7.7455,-3.1211 12.0183,0.6305 4.3045,3.7794 8.5025,4.8391 19.293,4.8702 12.8099,0.037 27.3438,2.6202 29.5587,5.2537 1.3973,1.6614 2.0062,1.8613 2.6242,0.8613 0.6441,-1.0422 1.3191,-0.965 3.3821,0.3867 3.7592,2.4631 10.7253,4.3491 20.5357,5.5596 8.1938,1.0111 8.8573,1.2799 12.8885,5.2225 2.3375,2.2861 4.25,4.9414 4.25,5.9007 0,1.8225 8.6111,11.0257 12.0268,12.8537 3.7571,2.0108 1.9524,2.9857 -5.5268,2.9857 -4.125,0 -7.5,0.4173 -7.5,0.9274 0,0.5101 1.1937,1.8664 2.6527,3.014 3.8188,3.0039 1.9115,3.9278 -2.6678,1.2923 -4.7829,-2.7527 -8.5707,-2.8761 -9.9366,-0.3239 -0.6758,1.2628 -1.7041,1.7315 -3.0352,1.3834 -2.0617,-0.5392 -2.8119,1.0951 -1.0131,2.2068 2.1367,1.3205 0.7982,2.3401 -3.9251,2.9897 -2.8091,0.3863 -5.1586,1.2859 -5.4686,2.0938 -0.2989,0.7791 -1.0342,1.4165 -1.6339,1.4165 -0.5998,0 -0.8788,-0.3425 -0.6201,-0.761 0.8794,-1.4229 -2.2043,-4.5098 -3.8676,-3.8715 -0.8863,0.3401 -1.3202,1.0896 -0.9643,1.6655 0.4268,0.6906 -0.3176,0.8162 -2.1866,0.3688 -3.928,-0.9402 -4.3264,-1.2576 -3.6831,-2.9338 0.3991,-1.0401 -0.1383,-1.468 -1.8437,-1.468 -1.3239,0 -2.8345,-0.4113 -3.357,-0.914 -1.2968,-1.2477 -5.5405,-1.5588 -7.8383,-0.5746 -1.1485,0.4919 -3.891,0.1787 -7,-0.7993 -2.8114,-0.8845 -7.2228,-1.8443 -9.8029,-2.1329 -4.1319,-0.4623 -4.7709,-0.274 -5.359,1.579 -0.6098,1.9214 -1.1748,2.0509 -6.5123,1.4931 -3.4344,-0.359 -6.0941,-0.2069 -6.45,0.3689 -0.333,0.5389 -1.629,0.9798 -2.8799,0.9798 -1.2508,0 -2.5524,0.2781 -2.8923,0.618 -0.3399,0.3399 -3.2274,0.7294 -6.4166,0.8655 -3.1893,0.1361 -8.4987,0.9524 -11.7987,1.814 -10.9302,2.8539 -31.1035,2.1258 -37.6121,-1.3575 -4.3179,-2.3108 -9.035,-2.1027 -14.6542,0.6465 l -5.4147,2.6491 -8.15946,-2.0691 c -12.8306,-3.2538 -13.3011,-3.3033 -14.7537,-1.553 -1.1079,1.335 -1.0452,2.0785 0.3855,4.5714 0.9398,1.6375 1.7115,3.9532 1.7149,5.1461 0,1.193 0.6783,3.4579 1.5,5.0333 0.8216,1.5754 1.5318,5.1754 1.5782,8 0.2896,17.624 6.8391,38.5699 11.8267,37.8228 1.45406,-0.2177 2.10216,0.2381 2.13276,1.5 0.024,0.9971 0.645,3.4972 1.3797,5.5557 1.3158,3.6868 1.289,3.7716 -1.7939,5.672 -1.72126,1.0611 -4.47966,2.2603 -6.12966,2.6649 -3.3828,0.8295 -10.5,7.395 -10.5,9.686 0,2.9332 -10.7542,3.7863 -15.6357,1.2405 -1.5754,-0.8217 -4.4393,-1.5031 -6.3643,-1.5144 -5.2321,-0.031 -20.436,-5.3708 -20.817,-7.3116 -0.3264,-1.6623 -2.0147,-2.0954 -12.5898,-3.2297 -8.1098,-0.8699 -8.6566,-1.1535 -7.5973,-3.9398 0.8222,-2.1625 0.599,-2.3499 -3.3071,-2.7757 -8.1519,-0.8887 -16.2125,-2.9314 -18.0432,-4.5726 -1.7028,-1.5264 -6.9147,-2.0062 -14.1456,-1.302 -3.039,0.2959 -21.6303,-1.2161 -23.5,-1.9113 -0.275,-0.1023 -0.9251,-0.1035 -1.4446,0 -0.5195,0.1008 -1.8695,-0.2441 -3,-0.7664 -3.5754,-1.652 -21.25,-3.2709 -23.7728,-2.1775 -3.6521,1.5829 -15.8828,2.6338 -20.7826,1.7858 -2.475,-0.4284 -9.8971,-1.4473 -16.4936,-2.2643 -6.5964,-0.8169 -12.1464,-1.944 -12.3333,-2.5047 -0.1869,-0.5606 -0.9773,-1.0193 -1.7564,-1.0193 -0.7792,0 -1.4167,-0.3937 -1.4167,-0.875 0,-2.9357 -34.4393,-4.5152 -62.407,-2.8621 -11.5527,0.6828 -13.1101,0.5791 -14.8423,-0.9885 -1.5312,-1.3858 -3.3249,-1.6813 -8.5929,-1.4158 -3.6618,0.1845 -6.8499,0.5215 -7.0848,0.7488 -0.2348,0.2273 0.4402,1.0751 1.5,1.8839 1.3567,1.0355 1.5842,1.699 0.7688,2.242 -1.1173,0.744 -1.9015,3.8874 -2.8107,11.2667 -0.2372,1.925 -0.8696,5.75 -1.4053,8.5 -0.5357,2.75 -1.2357,9.05 -1.5556,14 -0.3199,4.95 -0.8499,11.1639 -1.1778,13.8087 -0.4676,3.7714 -0.2172,5.2274 1.1607,6.75 2.0289,2.2419 3.5412,2.447 5.273,0.7152 1.8877,-1.8877 11.6068,-3.541 14.3413,-2.4396 1.2829,0.5167 4.0171,1.0559 6.076,1.1981 2.0588,0.1423 5.5681,1.2099 7.7985,2.3724 2.9759,1.5511 4.5398,1.8543 5.8763,1.139 2.4919,-1.3337 13.7566,0.5552 16.5866,2.7813 1.7069,1.3426 2.0158,2.2385 1.3721,3.9787 -0.673,1.8193 -1.3271,2.1213 -3.444,1.59 -2.6383,-0.6622 -12.3013,1.5841 -17.9329,4.1686 -1.65,0.7572 -4.8,2.7157 -7,4.3521 -3.069,2.2829 -4.6704,2.8389 -6.8806,2.3889 -1.5844,-0.3226 -3.0883,-1.3805 -3.3421,-2.3509 -0.2787,-1.0658 -1.8217,-2.0197 -3.8971,-2.409 -1.9088,-0.3581 -3.1618,-1.0878 -2.8194,-1.6419 1.1492,-1.8594 -0.3651,-3.7655 -2.5396,-3.1969 -1.9118,0.5 -1.9622,0.7031 -0.559,2.2535 0.8482,0.9373 1.257,1.9893 0.9085,2.3378 -0.7207,0.7206 -4.4483,-1.04 -5.7074,-2.6957 -0.4892,-0.6432 -0.6215,-0.1256 -0.3184,1.2462 0.659,2.9831 -0.1631,5.1535 -1.9519,5.1535 -0.7661,0 -1.393,0.9 -1.393,2 0,1.1 -0.4079,2 -0.9064,2 -0.4985,0 -0.6815,-0.8597 -0.4068,-1.9104 0.4494,-1.7184 0.047,-1.8633 -3.9985,-1.4417 -2.5994,0.2708 -4.7743,0.022 -5.1523,-0.5896 -0.419,-0.6779 0.8946,-1.0867 3.655,-1.1372 2.3699,-0.043 3.7465,-0.306 3.059,-0.5834 -0.6875,-0.2774 -1.25,-1.3669 -1.25,-2.421 0,-1.4585 -0.7097,-1.9167 -2.9686,-1.9167 -2.2279,0 -2.825,0.3743 -2.393,1.5 0.3645,0.9498 -0.014,1.5 -1.0314,1.5 -0.8839,0 -1.6212,0.5625 -1.6386,1.25 -0.017,0.6875 -1.1574,-0.03 -2.5335,-1.5947 -1.9356,-2.2008 -2.8073,-2.5911 -3.8516,-1.7244 -1.0239,0.8497 -1.491,0.7519 -1.9351,-0.4054 -0.3988,-1.0391 0.023,-1.5255 1.3242,-1.5255 1.0503,0 2.1877,-0.45 2.5276,-1 0.7854,-1.2707 -3.6096,-1.2253 -9.5,0.098 -2.475,0.5561 -5.29724,1.0137 -6.27164,1.017 -1.0952,0 -1.4961,0.4516 -1.05,1.1734 2.1953,3.5521 0.1752,7.9637 -3.2527,7.1034 -1.3739,-0.3448 -3.1013,-0.076 -3.9295,0.6112 -0.8128,0.6746 -2.9143,1.0157 -4.6699,0.758 -3.5761,-0.5249 -20.5564,1.4976 -31.5341,3.756 -8.9584,1.8429 -11.73598,1.8048 -16.7922,-0.2301 z m 23,-39.3756 c 0,-6.6796 0.4187,-10.0953 1.3803,-11.2594 2.0371,-2.4661 2.2247,-11.5118 0.3231,-15.5824 -0.8813,-1.8867 -1.6251,-4.5867 -1.6529,-6 -0.045,-2.2769 -0.4364,-2.5512 -3.4373,-2.4074 -1.8627,0.089 -3.7478,0.7464 -4.1889,1.4603 -0.6355,1.0282 -1.1948,0.9425 -2.692,-0.4124 -2.0526,-1.8576 -7.53182,-2.1314 -15.2323,-0.7612 -4.30446,0.7659 -4.34791,0.8068 -1,0.9411 5.46919,0.2196 1.53594,2.0712 -4.5,2.1184 -2.75,0.022 -6.59484,0.4102 -8.54408,0.8636 -1.97046,0.4584 -4.62225,0.4256 -5.9723,-0.074 -1.62584,-0.6014 -3.20234,-0.4839 -4.77095,0.3556 -1.90254,1.0182 -2.49706,1.0041 -3.164,-0.075 -0.45169,-0.7309 -1.88492,-1.4525 -3.18496,-1.6037 -1.30004,-0.1511 -2.81371,-0.3731 -3.36371,-0.4934 -2.75927,-0.6031 -4.65674,0.2682 -5.73429,2.6332 l -1.19141,2.6148 -11.03715,-0.7485 c -6.07043,-0.4117 -11.71215,-0.7336 -12.53715,-0.7153 -0.825,0.018 -3.75,-0.5672 -6.5,-1.3009 -11.43042,-3.0499 -13.36704,-3.465 -16.16602,-3.465 -1.61369,0 -3.42088,-0.4869 -4.01598,-1.082 -0.59509,-0.5951 -5.29759,-1.3217 -10.45,-1.6147 -5.1524,-0.293 -11.6847,-0.7464 -14.51623,-1.0076 -3.12946,-0.2888 -6.07043,0.02 -7.5,0.7873 l -2.35177,1.2623 3,1.2823 c 1.65,0.7052 4.88594,1.3025 7.19098,1.3273 2.30504,0.025 4.43837,0.4454 4.74073,0.9346 0.66524,1.0764 6.54587,2.2427 12.23768,2.4272 2.29317,0.074 3.96709,0.4625 3.71983,0.8626 -0.59706,0.966 6.75362,2.9003 12.47533,3.2828 3.3244,0.2222 4.9519,0.8819 5.97426,2.4216 0.77282,1.164 2.22369,2.1163 3.22415,2.1163 1.00045,0 2.07101,0.4078 2.37902,0.9061 0.30801,0.4984 1.43153,0.6782 2.49672,0.3997 1.06518,-0.2786 2.96486,0.2137 4.22151,1.0939 1.25664,0.8801 3.08467,1.6003 4.0623,1.6003 0.97762,0 1.77749,0.45 1.77749,1 0,0.55 0.65917,1 1.46482,1 1.63028,0 3.82223,3.3796 2.83333,4.3685 -0.34732,0.3473 0.59507,0.6315 2.0942,0.6315 1.56248,0 2.46193,-0.4268 2.10765,-1 -0.33992,-0.55 0.0677,-1 0.9058,-1 0.83811,0 2.02589,0.9381 2.63951,2.0847 1.37801,2.5748 6.75716,4.9153 11.29684,4.9153 1.87352,0 5.31955,0.675 7.65785,1.5 2.3383,0.825 5.54488,1.5 7.12573,1.5 1.58085,0 2.87427,0.3925 2.87427,0.8722 0,0.4797 1.86596,1.1706 4.14657,1.5352 2.28062,0.3647 6.30653,1.5923 8.94649,2.728 3.34465,1.4388 6.33227,1.9587 9.85412,1.7147 2.77981,-0.1925 5.17632,0.017 5.32572,0.4664 0.3855,1.1596 10.8303,4.6197 13.2271,4.3819 1.8471,-0.1832 2,-0.9312 2,-9.7869 z m 340.78484,-41.2493 c -0.2812,-0.4607 -0.6356,-3.6107 -0.7875,-7 -0.1519,-3.3892 -0.7522,-9.0872 -1.334,-12.6622 -1.727,-10.6125 -3.177,-22.289 -3.1699,-25.5275 0,-1.6651 -0.666,-3.9878 -1.4882,-5.1616 -1.9599,-2.7982 -9.8129,-7.1584 -11.0438,-6.1319 -8.4276,7.0291 -7.3832,6.8555 -25.7666,4.2833 -3.8745,-0.5421 -5.1931,-0.3213 -6.8073,1.1395 -2.0007,1.8106 -2.0007,1.8122 0.077,2.5809 3.2485,1.2018 3.6126,3.6986 0.9253,6.346 -2.0888,2.0577 -3.4625,2.381 -10.8903,2.5624 -4.675,0.1143 -10.3,-0.2951 -12.5,-0.9097 -2.2,-0.6146 -5.4967,-1.2302 -7.326,-1.3679 -1.8293,-0.1378 -3.5106,-0.5491 -3.7362,-0.9141 -0.2255,-0.3649 -7.6054,-0.517 -16.3997,-0.3378 -9.3257,0.1899 -16.2328,-0.068 -16.5729,-0.618 -0.3208,-0.519 -1.5692,-0.9579 -2.7742,-0.9754 -1.2051,-0.017 -3.0645,-0.6925 -4.1321,-1.5 -2.4489,-1.8522 -4.5589,-1.887 -4.5589,-0.075 0,1.7006 -2.1289,2.5923 -6.3318,2.6521 -1.7425,0.025 -4.5129,0.6184 -6.1564,1.3192 l -2.9881,1.274 3.2381,1.1288 c 3.7582,1.3101 4.2332,2.2928 0.978,2.0234 -1.243,-0.1028 -4.3239,0.6666 -6.8464,1.7099 -3.9579,1.637 -4.573,2.2804 -4.4898,4.696 0.099,2.8764 1.5964,4.0437 1.5964,1.2446 0,-0.8575 0.45,-1.2809 1,-0.941 0.55,0.3399 1,1.7165 1,3.059 0,1.3426 -0.45,2.441 -1,2.441 -2.1358,0 -0.8574,3.1055 1.75,4.2511 1.5125,0.6645 3.0176,1.5808 3.3447,2.0363 0.3271,0.4555 3.7021,1.0086 7.5,1.2293 11.0615,0.6425 22.6764,2.1666 25.7392,3.3773 1.5587,0.6162 3.2369,0.8713 3.7293,0.5669 0.4925,-0.3044 1.7775,-0.081 2.8554,0.4956 1.3914,0.7446 2.159,0.727 2.6457,-0.061 0.411,-0.665 0.9361,-0.7312 1.3107,-0.1653 0.5941,0.8974 5.5108,2.1796 16.625,4.3357 2.75,0.5335 9.8311,1.3363 15.7357,1.7839 8.1797,0.6202 11.216,1.2486 12.7531,2.6397 1.3121,1.1874 3.8519,1.9082 7.2643,2.0617 4.8032,0.216 19.1853,1.6444 34.2469,3.4012 7.7374,0.9025 13.434,0.7731 12.7848,-0.2906 z M 392.05625,887.9424 C 394.77531,885.26588 397,882.56503 397,881.94049 c 0,-1.50426 -8.13936,-9.13171 -9.74457,-9.13171 -0.69049,0 -1.25543,-0.60422 -1.25543,-1.34271 0,-1.93275 -16.6329,-18.65729 -18.55506,-18.65729 -0.97623,0 -13.44494,12.99851 -13.44494,14.01623 0,1.32639 12.65096,13.98377 13.97667,13.98377 0.6098,0 3.66789,1.9125 6.79574,4.25 7.19285,5.37534 10.51148,7.58421 11.53384,7.6769 0.44344,0.0402 3.03094,-2.11677 5.75,-4.79328 z m 20.11713,-20.63362 c 0.38993,-0.55 2.99276,-3.475 5.78406,-6.5 4.65612,-5.04595 4.92928,-5.60476 3.30883,-6.76899 -3.10334,-2.22961 -4.72529,-3.72946 -6.77039,-6.26069 -1.09773,-1.35868 -4.47088,-4.34618 -7.49588,-6.63889 -3.025,-2.29272 -7.50808,-5.98847 -9.96239,-8.21278 -4.26912,-3.86905 -4.55064,-3.97177 -6.5,-2.37182 C 385.31098,834.84539 373,847.38598 373,848.42031 c 0,0.63715 1.18163,1.93268 2.62584,2.87897 1.44422,0.94628 6.41736,5.3806 11.05143,9.85404 4.63407,4.47343 9.18994,8.53411 10.12415,9.02373 0.93422,0.48962 2.76508,1.99566 4.06858,3.34675 l 2.37,2.45652 4.11221,-3.83577 c 2.26171,-2.10967 4.43124,-4.28577 4.82117,-4.83577 z M 357,855.45148 c 2.475,-2.37787 5.25185,-5.25875 6.17077,-6.40196 1.60924,-2.00199 1.52637,-2.17862 -2.25,-4.79564 C 358.76435,842.75947 357,841.20969 357,840.80993 c 0,-0.39977 -3.52513,-4.31894 -7.83363,-8.70926 -4.30849,-4.39032 -8.079,-8.62183 -8.3789,-9.40335 -0.2999,-0.78153 -1.67833,-2.02736 -3.06318,-2.7685 -2.41529,-1.29263 -2.78702,-1.07308 -9.1211,5.38693 -3.63175,3.70396 -6.60012,7.24265 -6.59636,7.86375 0.004,0.62111 1.46626,2.13815 3.25,3.37121 1.78374,1.23306 5.04317,4.47317 7.24317,7.20024 2.2,2.72706 4.50909,4.98069 5.13131,5.00806 0.62222,0.0274 2.40624,1.72129 3.96449,3.76426 6.73882,8.83504 8.84031,9.23452 15.4042,2.92821 z m 80,-14.23195 c 2.475,-3.06192 7.10484,-8.29241 10.28854,-11.62331 5.96799,-6.24393 6.3746,-7.38562 3.28227,-9.216 -0.99558,-0.58929 -4.1188,-3.49805 -6.94048,-6.4639 -6.15265,-6.46702 -18.32584,-17.10754 -19.57173,-17.10754 -0.48952,0 -6.56376,6.1075 -13.4983,13.57221 l -12.60826,13.57222 7.66067,7.17778 c 4.21336,3.94779 10.07985,8.9983 13.03664,11.22337 2.9568,2.22507 6.06831,5.03402 6.91449,6.2421 l 1.53851,2.19653 2.69882,-2.00316 c 1.48436,-1.10174 4.72383,-4.50837 7.19883,-7.5703 z m -63.43034,-1.67464 c 1.06169,-1.24515 2.57437,-3.50541 3.36152,-5.0228 0.78715,-1.5174 3.36924,-3.98502 5.73798,-5.48359 2.36874,-1.49858 4.56778,-3.40082 4.88677,-4.2272 0.57196,-1.48179 -4.72791,-6.91345 -12.5412,-12.85305 -1.9169,-1.45721 -4.50071,-3.83505 -5.74181,-5.28409 -1.88006,-2.19506 -3.09207,-2.63461 -7.26472,-2.63461 -2.75451,0 -5.0082,0.3895 -5.0082,0.86556 0,0.47606 -1.2375,1.17049 -2.75,1.54317 -1.5125,0.37268 -4.14248,1.73125 -5.84439,3.01905 -1.70192,1.2878 -3.95192,2.34834 -5,2.35676 -1.59029,0.0128 -1.6574,0.17222 -0.40561,0.96353 0.825,0.52152 1.36729,1.30212 1.20509,1.73469 -0.16219,0.43256 2.30266,3.67275 5.47746,7.20043 3.1748,3.52767 6.94279,8.02767 8.3733,10 3.54259,4.88434 9.62752,10.08604 11.79861,10.08604 0.98168,0 2.65352,-1.01875 3.7152,-2.26389 z M 462.25,815.32514 c 1.5125,-1.33123 2.75,-2.81573 2.75,-3.29887 0,-0.48315 2.1375,-2.3931 4.75,-4.24434 2.6125,-1.85123 5.16684,-4.06502 5.67631,-4.91952 0.50947,-0.85449 2.89639,-3.37161 5.30425,-5.59358 l 4.37795,-4.03996 -3.55426,-3.23429 c -1.95484,-1.77887 -3.55452,-3.56089 -3.55484,-3.96005 -5.5e-4,-0.66475 -9.57074,-10.44126 -16.29486,-16.64616 -1.5375,-1.41877 -3.57471,-2.57959 -4.52714,-2.57959 -0.95242,0 -4.23946,2.40969 -7.30454,5.35486 -3.06508,2.94517 -6.99037,6.19219 -8.72287,7.2156 -1.7325,1.02342 -3.15,2.21373 -3.15,2.64515 0,1.14718 -7.82467,8.78439 -9,8.78439 -2.12483,0 -0.76329,1.68334 5.25373,6.49543 3.43545,2.74748 7.9884,6.79748 10.11768,9 4.63465,4.79406 12.73217,11.3232 14.12859,11.39206 0.55,0.0271 2.2375,-1.03989 3.75,-2.37113 z m -55.30936,-10.85881 c 6.63265,-6.51334 12.05912,-11.91334 12.05883,-12 -2.9e-4,-0.0866 -3.60145,-3.90103 -8.00257,-8.4764 -7.26902,-7.55681 -8.14576,-8.17514 -9.5709,-6.75 -0.86287,0.86287 -1.98157,1.56885 -2.486,1.56885 -0.50442,0 -1.83231,0.7875 -2.95084,1.75 -1.11854,0.9625 -2.81119,1.975 -3.76144,2.25 -4.24941,1.22977 -21.22423,11.63332 -21.21129,13 0.0192,2.02684 0.20844,2.24489 10.6981,12.32622 6.38978,6.14104 9.78958,8.72697 11.17523,8.5 1.09533,-0.17942 7.41823,-5.65532 14.05088,-12.16867 z M 450,761.39165 c 0,-0.28252 -2.96475,-3.49304 -6.58833,-7.13451 -8.63216,-8.67476 -9.75906,-8.44113 -21.72178,4.50331 -5.37229,5.81318 -7.08205,7.44544 -10.70316,10.21801 l -3.48673,2.66967 4.39137,3.83033 c 2.41525,2.10667 6.18784,5.72883 8.38353,8.04922 l 3.99217,4.2189 12.86646,-12.92063 C 444.21009,767.7196 450,761.67416 450,761.39165 z m 40.86352,20.51791 C 491.48858,780.03998 492,776.72625 492,774.54571 c 0,-2.18054 0.88906,-5.60089 1.9757,-7.60078 3.41731,-6.28936 6.00451,-14.02322 5.30715,-15.86456 -0.36902,-0.97438 -1.25862,-2.36623 -1.9769,-3.09302 C 496.58768,747.26057 496,746.05319 496,745.3043 c 0,-0.74889 -2.06239,-3.0516 -4.5831,-5.11713 l -4.5831,-3.7555 -10.20858,10.43856 c -5.61472,5.7412 -11.53983,11.40573 -13.1669,12.58784 l -2.95832,2.1493 2.5,1.03765 c 2.8158,1.16873 16,14.42468 16,16.08707 0,0.59218 0.42456,1.07669 0.94346,1.07669 0.51891,0 1.72903,1.32986 2.68917,2.95524 1.61886,2.7405 5.05109,4.38002 6.48089,3.09581 0.33744,-0.30308 1.12494,-2.0807 1.75,-3.95027 z m 608.33918,-8.54033 c 2.0748,-2.23325 3.7807,-4.51045 3.791,-5.06045 0.01,-0.55 0.6509,-2.21192 1.4237,-3.69317 1.3146,-2.51979 1.2394,-2.80169 -1.168,-4.37909 -1.4152,-0.92725 -5.2297,-4.21533 -8.4767,-7.30683 -3.247,-3.0915 -6.2117,-5.39591 -6.5882,-5.12091 -0.3765,0.275 -0.5919,0.77776 -0.4787,1.11726 0.1131,0.33949 -0.8994,1.65543 -2.25,2.92431 -1.3507,1.26888 -2.4558,2.85734 -2.4558,3.52992 0,0.67257 -1.1073,2.50663 -2.4607,4.07568 -6.6566,7.71741 -7.5369,9.01406 -7.5381,11.10283 -10e-4,1.84174 0.5522,2.25 3.0485,2.25 1.6773,0 4.3776,0.68672 6.0007,1.52604 4.7393,2.45079 10.3321,4.13917 11.9147,3.59688 0.8059,-0.27611 3.1628,-2.32922 5.2376,-4.56247 z m -39.1787,-7.12344 c 0.587,-1.54399 1.6705,-2.49217 2.7252,-2.38485 3.6312,0.36948 5.2508,-0.0984 5.2508,-1.51698 0,-0.80565 0.9,-1.94648 2,-2.53518 1.1,-0.5887 2,-1.64534 2,-2.34809 0,-0.70275 1.35,-2.57111 3,-4.15191 1.65,-1.5808 3,-3.45344 3,-4.16141 0,-0.70798 1.4017,-2.01208 3.1149,-2.89801 1.7132,-0.88593 2.7257,-1.98423 2.25,-2.44067 -2.1079,-2.02257 -11.8891,-8.99991 -12.6165,-8.99991 -0.443,0 -4.0551,-2.69881 -8.0269,-5.99735 l -7.2215,-5.99734 -2.245,2.74734 c -1.2348,1.51104 -2.2473,3.27953 -2.25,3.92996 0,0.65044 -0.7925,1.43257 -1.7551,1.73807 -1.5665,0.4972 -6.635,7.5437 -8.3876,11.66088 -0.3703,0.86986 -2.0658,2.75331 -3.7678,4.18544 -3.7154,3.12633 -3.8339,3.733 -0.7294,3.733 2.1441,0 6.5716,2.70141 9.1349,5.5735 0.55,0.61626 3.3825,2.20183 6.2944,3.52349 4.7647,2.16255 5.2449,2.66638 4.7987,5.03495 -0.8381,4.4485 1.8473,5.47001 3.4309,1.30507 z M 462.21662,752.19201 c 2.90586,-2.53923 8.75438,-8.22464 12.99671,-12.63425 8.9861,-9.34043 8.98225,-9.66296 -0.18176,-15.2298 -3.28845,-1.99763 -7.30412,-5.23965 -8.92371,-7.2045 -3.91793,-4.75312 -6.66871,-4.0628 -11.67486,2.92984 -3.43786,4.80204 -7.30428,9.28706 -14.64539,16.98856 l -2.71239,2.84555 2.54956,2.21068 c 1.40226,1.21588 5.54784,5.01746 9.21239,8.44795 3.66456,3.43049 6.98531,6.24299 7.37945,6.25 0.39414,0.007 3.09414,-2.06481 6,-4.60403 z m 652.39868,1.36677 c 0.9167,-1.7875 3.8533,-5.87685 6.5257,-9.08745 2.6725,-3.21059 4.859,-6.39029 4.859,-7.066 0,-0.6757 1.6875,-2.71795 3.75,-4.53831 2.0625,-1.82037 4.5229,-4.47942 5.4676,-5.909 1.598,-2.41833 1.6033,-2.77365 0.076,-5.1051 -1.8044,-2.75387 -5.3287,-5.95867 -6.61,-6.01087 -0.4492,-0.0183 -2.2917,-1.15827 -4.0944,-2.53327 -1.8027,-1.375 -3.6852,-2.47871 -4.1833,-2.45269 -0.9336,0.0488 -9.1288,9.82363 -10.9056,13.00774 -0.55,0.98562 -3.1188,4.18894 -5.7085,7.11849 -7.9309,8.97176 -9.789,11.2907 -9.7903,12.2182 0,1.22444 7.5022,8.0811 12.9704,11.85167 3.7118,2.5594 5.7717,2.15693 7.6437,-1.49341 z m -85.6066,-8 c 0.01,-2.07292 4.6656,-7.89565 8.7693,-10.96288 0.9471,-0.70791 2.397,-2.59594 3.222,-4.1956 1.7588,-3.41039 5.5115,-7.4813 8.9117,-9.66752 l 2.4116,-1.55062 -5.6048,-3.16313 c -3.0826,-1.73972 -7.2924,-4.86123 -9.3552,-6.93669 -2.0628,-2.07546 -7.1327,-6.31745 -11.2666,-9.42664 l -7.5162,-5.65309 -2.3324,2.15309 c -1.2829,1.18419 -5.6827,6.27614 -9.7774,11.31543 -4.0946,5.0393 -7.85846,9.3143 -8.36396,9.5 -1.2394,0.45523 -8.1067,10.99487 -8.1067,12.4417 0,0.63232 2.3625,2.15478 5.25,3.38325 2.8875,1.22848 7.62576,3.30889 10.52956,4.62315 2.9038,1.31425 5.6318,2.38955 6.0622,2.38955 0.4304,0 2.6453,0.9 4.9221,2 2.2767,1.1 4.7665,2 5.5328,2 0.7663,0 2.2078,0.9 3.2033,2 2.3636,2.61179 3.498,2.53097 3.5087,-0.25 z m -525.92123,-9.75529 c 0.37113,-1.92209 0.94203,-6.41971 1.26867,-9.99471 l 0.59388,-6.5 -2.42704,2.75 c -1.33488,1.5125 -2.78613,2.7669 -3.22501,2.78755 -0.43889,0.0207 -2.58039,1.56278 -4.75889,3.42695 l -3.96092,3.38941 4.46092,4.047 c 2.4535,2.22585 5.11627,3.94385 5.91726,3.81776 0.80098,-0.12608 1.75999,-1.80186 2.13113,-3.72396 z M 1088,737.76674 c 0,-1.60628 6.2343,-9.58863 8.6738,-11.10593 2.2209,-1.38128 12.3262,-14.4573 12.3262,-15.94976 0,-0.4534 0.9914,-1.748 2.2031,-2.87689 l 2.2032,-2.05252 -2.2431,-1.5711 c -1.2337,-0.86411 -3.0126,-2.38592 -3.9531,-3.38181 -0.9406,-0.99589 -3.9036,-3.02853 -6.5846,-4.51698 -2.681,-1.48844 -6.878,-4.23552 -9.3266,-6.10462 -2.4487,-1.86909 -4.893,-3.39835 -5.4319,-3.39835 -1.4454,0 -6.5708,5.86013 -9.5452,10.91352 -2.8105,4.77498 -5.2995,7.82321 -12.4136,15.20282 l -4.5919,4.7632 5.4318,3.81023 c 2.9874,2.09563 9.1037,6.81373 13.5918,10.48468 8.3378,6.81983 9.6601,7.61147 9.6601,5.78351 z M 495.78387,719.55878 c 10.11715,-10.33848 10.83914,-11.47809 11.51178,-18.17059 0.53645,-5.33749 0.3443,-6.22387 -1.95104,-9 -6.18724,-7.48324 -14.73471,-15.57941 -16.44784,-15.57941 -1.08967,0 -3.02047,1.75164 -4.63258,4.20271 -1.52031,2.31149 -4.64911,6.14942 -6.95291,8.52872 -2.3038,2.37931 -5.66667,6.22559 -7.47304,8.5473 -1.80638,2.3217 -3.85895,4.58113 -4.56128,5.02096 -1.49012,0.93318 -1.72413,3.70031 -0.31293,3.70031 0.97913,0 11.28961,9.41825 17.78943,16.25 1.96229,2.0625 4.10056,3.75 4.75171,3.75 0.65115,0 4.37657,-3.2625 8.2787,-7.25 z m 492.08797,-2.92891 c 1.7883,-1.74841 5.0182,-5.68591 7.1776,-8.75 2.1594,-3.0641 5.82126,-7.14609 8.13756,-9.07109 7.3593,-6.11616 11.2665,-10 10.0603,-10 -0.6432,0 -3.6029,-1.98207 -6.5771,-4.4046 -2.9742,-2.42252 -7.25996,-5.57389 -9.52386,-7.00303 -2.2639,-1.42914 -5.7839,-4.21799 -7.8222,-6.19745 -5.7889,-5.62181 -8.3008,-7.04323 -9.3941,-5.31585 -0.4947,0.78151 -0.9063,1.94768 -0.9147,2.59147 -0.01,0.6438 -1.3657,1.46715 -3.0162,1.82967 -2.1753,0.47776 -3.17,1.39386 -3.6152,3.32945 -0.6913,3.00538 -4.0927,8.5272 -9.301,15.09918 -2.2795,2.87631 -3.0757,4.57355 -2.2714,4.84166 0.6812,0.22705 3.0362,3.06009 5.2334,6.29563 4.2893,6.31628 6.4863,8.90084 14.1817,16.68387 1.7674,1.7875 3.479,3.25 3.8036,3.25 0.3246,0 2.0533,-1.43051 3.8416,-3.17891 z m 70.65046,-7.94845 c 2.4628,-2.27005 4.4777,-4.52641 4.4777,-5.01413 0,-1.0934 7.5653,-10.6848 13.5538,-17.18362 2.4454,-2.65381 4.4462,-4.98373 4.4462,-5.1776 0,-0.19386 -2.6666,-1.97235 -5.9258,-3.9522 -3.2591,-1.97984 -6.0716,-3.95233 -6.25,-4.38331 -0.1783,-0.43098 -3.8506,-3.84406 -8.1606,-7.58463 -8.8243,-7.65848 -13.0755,-8.98897 -15.2298,-4.76636 -0.6483,1.27093 -2.0249,3.29593 -3.0589,4.5 -1.034,1.20407 -3.9038,4.66421 -6.3774,7.68921 -2.4736,3.025 -4.7442,5.725 -5.0457,6 -0.3015,0.275 -1.6298,2.075 -2.9518,4 -1.322,1.925 -2.8284,3.79208 -3.3475,4.14908 -1.8007,1.23826 0.2895,3.7941 7.5498,9.23152 4.0138,3.00595 10.4477,7.94552 14.2977,10.97681 3.85,3.03129 7.1226,5.54095 7.2723,5.57702 0.1498,0.0361 2.2873,-1.79174 4.75,-4.06179 z M 512.04627,675.75537 c 0.57169,-4.64562 1.42039,-9.86022 1.88599,-11.58798 1.22739,-4.55462 0.19564,-12.34492 -1.54643,-11.67643 -2.81782,1.0813 -16.39794,14.889 -16.392,16.66671 0.007,2.21268 13.17844,16.75897 14.25958,15.74848 0.41437,-0.3873 1.22116,-4.50515 1.79286,-9.15078 z m 447.04357,4.30666 c 1.6006,-1.51072 2.9102,-3.11812 2.9102,-3.57201 0,-1.22789 11.2555,-14.68124 12.2828,-14.68124 1.7976,0 0.057,-1.95941 -6.1027,-6.8698 -3.4759,-2.77097 -7.2211,-6.18384 -8.3225,-7.58416 -1.1015,-1.40032 -2.6196,-2.54604 -3.3735,-2.54604 -0.7539,0 -1.9587,-0.82859 -2.6774,-1.8413 -0.7187,-1.01272 -2.3494,-2.3947 -3.6238,-3.07107 -3.108,-1.6496 -5.5871,0.031 -12.6163,8.55292 l -5.4465,6.60294 2.19,3.12392 c 1.2044,1.71816 2.9774,3.7139 3.9399,4.43496 0.9625,0.72107 1.75,1.75444 1.75,2.29638 0,1.11851 5.1357,8.43463 9.25,13.17708 1.5125,1.74344 2.75,3.5196 2.75,3.94703 0,1.79469 4.3952,0.57366 7.0898,-1.96961 z M 1021.5,678.9136 c 6.7362,-6.51773 10.2623,-10.72291 12.3683,-14.75048 1.1085,-2.11989 3.583,-5.53015 5.4988,-7.57837 l 3.4833,-3.72402 -3.1752,-2.52142 c -1.7463,-1.38679 -4.3002,-3.38783 -5.6752,-4.44676 -1.375,-1.05894 -3.915,-3.08599 -5.6444,-4.50456 -1.7294,-1.41856 -3.4592,-2.57921 -3.844,-2.57921 -0.3848,0 -3.3624,-2.025 -6.6168,-4.5 -3.2544,-2.475 -6.4746,-4.49693 -7.156,-4.49317 -0.6813,0.004 -3.6937,3.64376 -6.6941,8.08891 -3.0004,4.44514 -6.48786,8.89433 -7.74996,9.88709 -1.2621,0.99276 -2.2947,2.26493 -2.2947,2.82706 0,0.56213 -1.8,2.44768 -4,4.19011 -2.2,1.74243 -4,3.72062 -4,4.39597 0,0.67535 1.4625,2.30498 3.25,3.6214 3.3717,2.48312 3.6736,2.71981 7.653,6.00117 1.3217,1.0898 2.9717,1.98146 3.66666,1.98146 0.695,0 1.4136,0.37375 1.597,0.83055 0.535,1.3332 13.129,11.17069 14.2832,11.15698 0.5776,-0.007 2.8501,-1.75407 5.0501,-3.88271 z m -36.34576,-31.08861 c 1.2902,-1.66736 3.8083,-4.87068 5.5958,-7.1185 1.7875,-2.24781 3.25,-4.42448 3.25,-4.83704 0,-0.41255 2.228,-2.93786 4.9511,-5.61179 3.75266,-3.68484 4.69126,-5.17483 3.87756,-6.15529 -0.5905,-0.71147 -1.806,-1.29425 -2.7011,-1.29506 -0.89516,-8.1e-4 -3.87756,-2.30724 -6.62756,-5.1254 -2.75,-2.81816 -6.575,-6.15336 -8.5,-7.41154 -1.925,-1.25819 -4.7179,-3.45176 -6.2064,-4.8746 -3.3219,-3.17541 -5.5506,-3.31047 -5.974,-0.36202 -0.1758,1.22373 -1.2657,2.69461 -2.422,3.26861 -1.1563,0.57401 -3.9625,3.28527 -6.2361,6.02504 -2.2736,2.73976 -5.204,6.10638 -6.512,7.48138 -1.308,1.375 -2.7175,3.625 -3.1321,5 -0.4147,1.375 -1.4665,3.31072 -2.3374,4.30161 -1.4663,1.6684 -1.3651,1.97999 1.3683,4.21404 1.6234,1.32683 3.364,2.42861 3.8678,2.44839 0.5039,0.0198 1.6289,0.69007 2.5,1.48954 3.8991,3.57829 5.9625,5.34691 11.4139,9.78313 5.6496,4.59746 5.9039,4.69371 8.6495,3.27388 1.5559,-0.80456 3.8845,-2.82703 5.1747,-4.49438 z m -55.9042,-1.40826 c 0.9625,-0.73064 1.75,-1.811 1.75,-2.4008 0,-0.58981 0.9173,-1.36352 2.0385,-1.71937 1.1212,-0.35584 3.2442,-2.46899 4.7179,-4.69588 l 2.6794,-4.04888 -3.9679,-3.41378 c -2.1823,-1.87757 -5.0929,-4.02441 -6.4679,-4.77074 -1.375,-0.74634 -4.1546,-3.20232 -6.1768,-5.45774 -2.0223,-2.25542 -4.5198,-4.10076 -5.55,-4.10076 -1.0303,0 -2.3673,-0.49407 -2.9711,-1.09794 -0.7973,-0.79725 -2.2214,-0.008 -5.2,2.88298 -2.2562,2.18951 -4.1021,4.38368 -4.1021,4.87594 0,1.47855 19.668,25.36357 20.8391,25.30722 0.3635,-0.0175 1.4484,-0.6296 2.4109,-1.36025 z m 16.9433,-21.4406 c 2.4836,-3.48331 12.3255,-14.61642 17.5567,-19.86019 2.8875,-2.89443 5.25,-5.62657 5.25,-6.07142 0,-0.83002 -9.4765,-8.23574 -10.5386,-8.23574 -0.3248,0 -1.6492,-1.25822 -2.9432,-2.79605 -1.294,-1.53783 -4.589,-4.01319 -7.3223,-5.5008 l -4.9695,-2.70475 -2.3632,3.09107 c -3.4364,4.4949 -9.0212,10.97319 -11.6132,13.47135 -1.2375,1.19269 -2.25,3.02689 -2.25,4.07601 0,1.04911 -1.4445,3.65985 -3.2099,5.80164 -3.0232,3.66773 -3.1012,3.95717 -1.3402,4.97784 1.0283,0.59603 4.184,2.92905 7.0126,5.18449 7.4722,5.95813 13.7205,10.3992 14.6308,10.3992 0.4363,0 1.3813,-0.82469 2.1,-1.83265 z m -42.5433,-14.16735 c 0.3319,-1.65971 1.2407,-3 2.034,-3 0.7887,0 1.137,-0.48068 0.7739,-1.06817 -0.3631,-0.5875 -1.2897,-0.82662 -2.0591,-0.53139 -0.7693,0.29524 -1.3988,0.10091 -1.3988,-0.43182 0,-0.53274 -0.6646,-0.96862 -1.4769,-0.96862 -0.8124,0 -2.267,-1.2375 -3.2327,-2.75 -0.9656,-1.5125 -2.5206,-3.31674 -3.4555,-4.00943 -0.935,-0.69269 -3.0457,-2.60519 -4.6905,-4.25 -1.6448,-1.64481 -3.6747,-2.99057 -4.5108,-2.99057 -0.8361,0 -2.2115,-0.98705 -3.0565,-2.19344 l -1.5364,-2.19344 -2.5203,2.36775 c -2.7635,2.59616 -3.2003,3.99398 -1.2704,4.06537 0.6875,0.0254 2.15,1.17886 3.25,2.56317 4.3901,5.52478 12.1904,13.48753 15.5,15.82286 4.8064,3.39146 6.909,3.27264 7.65,-0.43227 z m 10.7453,-12.40364 c 0.7822,-1.872 2.3632,-3.70232 3.5134,-4.06739 1.1502,-0.36506 2.0913,-1.11895 2.0913,-1.67531 0,-0.55635 2.0611,-2.96491 4.5803,-5.35234 2.5191,-2.38744 5.1066,-4.87921 5.75,-5.53726 0.6433,-0.65806 2.6322,-2.68896 4.4197,-4.51311 3.9228,-4.00327 4.0578,-5.21011 0.6774,-6.05852 -1.4149,-0.35513 -5.1573,-3.1762 -8.3163,-6.26906 -6.6252,-6.48624 -11.2014,-9.32907 -11.86,-7.36754 -0.9898,2.94791 -9.3571,13.19716 -13.6374,16.7045 -3.4521,2.82876 -5.6881,3.86519 -8.7062,4.03548 -2.2336,0.12603 -4.7452,0.91328 -5.5813,1.74944 -1.3604,1.36039 -0.8527,2.07353 4.8267,6.78026 3.4909,2.89299 6.5766,5.61006 6.8571,6.03795 0.2805,0.42788 1.6889,1.07384 3.1296,1.43545 1.4408,0.36162 4.1121,2.19729 5.9362,4.07929 1.8241,1.88199 3.6722,3.4218 4.1069,3.4218 0.4348,0 1.4304,-1.53164 2.2126,-3.40364 z M 497.5046,478.79858 c 2.2017,-4.88249 1.58782,-5.74818 -2.40401,-3.39015 -3.57594,2.11236 -4.57538,4.12334 -2.9954,6.0271 1.92698,2.32187 3.51246,1.54756 5.39941,-2.63695 z m -5.52719,-10.12355 c 3.84979,-4.4619 5.80236,-7.48648 5.2133,-8.07554 -0.58906,-0.58906 -0.27379,-2.31801 0.84176,-4.61625 2.23021,-4.59464 3.60236,-9.34568 4.41844,-15.29871 0.60227,-4.39337 0.43408,-4.83225 -3.36855,-8.79003 l -4.00246,-4.16576 -8.86472,8.79002 c -10.33316,10.2461 -17.69309,18.90798 -18.61526,21.90826 -0.47579,1.54799 -0.0385,2.51972 1.62451,3.60959 1.25156,0.82025 5.02997,4.25455 8.39646,7.63177 3.3665,3.37722 6.58902,6.1404 7.16117,6.1404 0.57215,0 3.81006,-3.21019 7.19535,-7.13375 z m -28.54318,-18.61625 c 0.31295,-0.9625 2.86075,-4 5.66176,-6.75 2.80102,-2.75 6.73779,-6.77375 8.74838,-8.94167 2.0106,-2.16791 5.427,-5.61298 7.59202,-7.6557 l 3.93639,-3.71403 -3.34068,-3.8443 c -1.83738,-2.11437 -4.50875,-4.97954 -5.93639,-6.36705 -1.42764,-1.38751 -4.33742,-4.65001 -6.46617,-7.25 -4.26886,-5.21383 -6.71347,-5.88064 -9.08195,-2.47725 -0.8612,1.2375 -5.27421,6.10841 -9.8067,10.82425 -9.16834,9.53922 -15.24089,16.73175 -15.24089,18.05181 0,0.47853 4.05,5.13415 9,10.34582 6.9529,7.32045 9.61018,9.48172 11.68261,9.50194 1.68741,0.0165 2.89371,-0.62304 3.25162,-1.72382 z m -22.44986,-32.5 c 12.22867,-12.79589 15.98621,-17.14332 16.00151,-18.51357 0.008,-0.69496 0.55502,-2.12969 1.21613,-3.18829 1.74112,-2.78798 -0.48003,-6.36661 -7.18612,-11.57799 -3.03374,-2.35756 -7.74025,-6.56894 -10.45891,-9.35862 -4.64449,-4.76583 -5.05214,-4.97339 -6.75,-3.43685 -0.99384,0.89941 -1.80778,2.12805 -1.80877,2.73031 -9.8e-4,0.60225 -2.02598,2.37383 -4.5,3.93683 -2.47401,1.56301 -4.50564,3.13801 -4.51472,3.5 -0.009,0.362 -3.57313,4.46742 -7.92013,9.12315 -6.7459,7.22502 -7.75238,8.74758 -6.87109,10.39429 1.58726,2.96581 8.99418,10.75596 11.94951,12.56776 1.45298,0.89076 4.50095,3.97159 6.77326,6.84628 2.2723,2.87468 4.59352,5.2267 5.15825,5.2267 0.56473,0 4.57471,-3.7125 8.91108,-8.25 z M 413,383.4159 c 6.325,-6.25689 12.30851,-12.55313 13.29668,-13.99164 0.98818,-1.43851 2.45068,-2.61548 3.25,-2.61548 1.91506,0 1.85986,-1.67311 -0.0912,-2.76499 -1.79252,-1.00314 -11.28571,-9.41576 -19.1667,-16.98501 -3.00641,-2.8875 -6.02886,-5.25 -6.71655,-5.25 -1.41159,0 -8.75327,7.82667 -13.75134,14.65975 -1.82648,2.49706 -5.23086,6.63264 -7.56528,9.19018 -2.33443,2.55754 -4.24693,5.19443 -4.25,5.85976 -0.003,0.66534 1.85768,2.91534 4.13501,5 2.27733,2.08467 7.33983,7.04064 11.25,11.01327 3.91017,3.97263 7.3344,7.23137 7.6094,7.24164 0.275,0.0103 5.675,-5.10059 12,-11.35748 z m -27.47391,-34.72708 c 0.76493,-1.44098 3.65948,-4.65972 6.43234,-7.15276 2.77286,-2.49304 5.04157,-4.96353 5.04157,-5.48997 0,-0.52644 -1.18257,-1.8077 -2.62793,-2.84724 -5.95425,-4.28243 -11.25194,-9.02578 -12.44349,-11.14142 -0.69739,-1.23824 -2.72212,-3.10931 -4.4994,-4.15793 l -3.23142,-1.90659 -4.79672,4.15794 c -4.42312,3.83408 -7.51065,6.99735 -17.63857,18.07129 -2.05565,2.24765 -3.74315,4.7668 -3.75,5.5981 -0.0109,1.32272 10.08516,11.30242 19.35637,19.13325 l 3.13116,2.6447 6.81765,-7.1447 c 3.74971,-3.92959 7.44351,-8.32369 8.20844,-9.76467 z m 46.13947,5.40776 c -1.46236,-2.08329 -6.60147,-7.94152 -11.42025,-13.01829 l -8.76141,-9.23048 -2.80222,2.23441 -2.80222,2.23441 8.81027,7.69864 c 4.84565,4.23425 10.80632,9.52643 13.24594,11.7604 5.47473,5.01323 7.71851,4.00314 3.72989,-1.67909 z m -84.62629,-21.5378 c 2.60659,-2.8875 8.13623,-9.24384 12.2881,-14.1252 l 7.54886,-8.8752 -5.18812,-4.93619 c -2.85346,-2.7149 -7.93122,-7.60856 -11.28392,-10.8748 -6.46828,-6.30148 -6.80962,-6.49568 -8.6964,-4.94767 -0.66428,0.54502 -4.43888,3.58252 -8.38799,6.75 -3.94912,3.16748 -8.7928,7.87766 -10.76374,10.46706 -1.97094,2.58939 -4.29034,5.10354 -5.15422,5.587 -1.40664,0.78719 -1.37601,1.19913 0.29323,3.94398 1.02516,1.68573 5.21461,6.14658 9.30989,9.913 4.09529,3.76641 8.58202,8.06799 9.97051,9.55907 1.38849,1.49108 3.15454,2.72858 3.92454,2.75 0.77001,0.0214 3.53267,-2.32355 6.13926,-5.21105 z m 56.47125,-4.34733 2.80257,-2.59734 -5.90654,-5.72749 c -3.2486,-3.15013 -7.48155,-7.81249 -9.40655,-10.3608 -4.56602,-6.04449 -5.76296,-6.41562 -9.2962,-2.88237 -3.77622,3.77621 -3.13248,5.80981 3.59987,11.3721 2.85798,2.36128 6.99633,6.19192 9.19633,8.51253 2.2,2.32062 4.49679,4.23312 5.10398,4.25 0.60718,0.0169 2.36513,-1.1381 3.90654,-2.56663 z m -83.00551,-30.9359 c 4.92397,-5.24328 9.35993,-10.30578 9.85768,-11.25 0.49775,-0.94423 2.08227,-3.01349 3.52116,-4.59837 2.06856,-2.27845 2.3092,-2.99126 1.1497,-3.40548 C 332.56797,277.14088 313,258.26464 313,256.76704 c 0,-0.48834 -0.97688,-1.4107 -2.17083,-2.04969 -1.79895,-0.96276 -2.39854,-0.85039 -3.5,0.65595 -0.73105,0.99976 -1.32917,2.12714 -1.32917,2.50529 0,0.37815 -1.4625,1.28885 -3.25,2.02377 -3.64307,1.49784 -21.75,18.51283 -21.75,20.43838 0,0.68091 1.1312,1.97921 2.51377,2.88511 1.38258,0.90589 7.48599,6.58265 13.56315,12.61501 6.07716,6.03235 11.82024,10.96792 12.76239,10.96792 0.94216,0 5.74172,-4.28996 10.6657,-9.53323 z m 56.17275,2.35877 4.25347,-4.17446 -4.46562,-4.34018 c -2.45608,-2.38709 -4.47349,-4.67108 -4.48312,-5.07553 -0.01,-0.40446 -2.25963,-3.14548 -5,-6.09116 C 364.24212,277.0073 362,274.1948 362,273.70299 c 0,-0.49182 -1.0125,-0.88378 -2.25,-0.87103 -2.61425,0.0269 -12.71646,9.15467 -10.82853,9.78398 0.67464,0.22488 2.65579,2.00563 4.40257,3.95724 5.51496,6.16164 17.13617,17.19044 18.13811,17.21348 0.52918,0.0122 2.87621,-1.85639 5.21561,-4.15234 z m 380.13168,-25.27375 c 4.0201,-4.1709 8.2992,-8.23205 9.509,-9.02478 1.2099,-0.79273 2.9473,-2.70687 3.8611,-4.25364 1.6543,-2.80059 1.6431,-2.83053 -2.6909,-7.17356 l -4.3521,-4.36123 -5.4334,5.88071 c -2.9884,3.23439 -8.0816,9.03071 -11.3183,12.88071 -3.2366,3.85 -6.4473,7.35986 -7.1348,7.79969 -2.0149,1.28901 -1.4654,2.87463 2,5.77132 2.9398,2.45734 3.4886,2.59006 5.75,1.39045 1.375,-0.72941 5.7892,-4.73876 9.8094,-8.90967 z m -34.8094,2.13934 c 0,-1.82417 -1.9042,-3.97378 -6,-6.77327 -1.925,-1.31574 -6.9643,-5.99802 -11.1984,-10.40506 l -7.6984,-8.0128 -1.7533,2.5 c -1.3629,1.94321 -9.7803,10.88164 -21.1754,22.48616 -0.179,0.18231 5.896,0.11802 13.5,-0.14287 7.604,-0.26088 15.8505,-0.0442 18.3255,0.48162 7.0477,1.49717 16,1.42232 16,-0.13378 z m -444.03411,-2.94113 c 0.50404,-1.2375 4.58451,-6.075 9.06772,-10.75 4.4832,-4.675 8.77973,-9.70561 9.54785,-11.17913 0.76811,-1.47352 2.3015,-2.96635 3.40753,-3.31739 1.10603,-0.35104 2.01097,-1.00687 2.01097,-1.45741 0,-0.45053 -3.0375,-3.31571 -6.75,-6.36706 -3.7125,-3.05135 -9.20963,-8.0524 -12.21584,-11.11346 -5.63395,-5.73673 -7.35579,-6.56244 -8.73447,-4.18866 -0.43983,0.75729 -5.86219,5.97546 -12.04969,11.59594 -7.7813,7.06822 -11.2415,10.88321 -11.22242,12.37311 0.0432,3.3735 21.94249,26.65406 25.07265,26.65406 0.5221,0 1.36167,-1.0125 1.8657,-2.25 z m 67.3225,0.25505 c 0.28693,-1.09723 1.35191,-2.30684 2.36663,-2.68803 2.20091,-0.8268 4.26897,-3.29758 4.31314,-5.15306 0.0175,-0.73483 -2.3307,-3.67597 -5.2182,-6.53588 -2.8875,-2.85991 -6.825,-6.98369 -8.75,-9.16396 -1.925,-2.18026 -4.625,-4.97555 -6,-6.21173 -1.375,-1.23619 -3.2875,-3.14869 -4.25,-4.25 -0.9625,-1.10132 -2.0875,-1.98942 -2.5,-1.97356 -1.37204,0.0527 -11.25,9.87131 -11.25,11.18236 0,1.50615 5.72692,7.59375 12.50146,13.28881 2.61701,2.2 7.02001,6.1375 9.78446,8.75 5.39232,5.09594 8.1682,5.94544 9.00251,2.75505 z m 396.37701,-10.53828 c 4.309,-5.24328 9.9793,-11.81462 12.6006,-14.60297 l 4.766,-5.06973 -4.6415,-3.07438 c -2.5528,-1.6909 -8.6522,-7.06224 -13.5541,-11.9363 -11.7698,-11.70264 -12.5249,-11.9561 -17.8043,-5.97554 -19.5405,22.13564 -20.9652,23.99743 -19.1993,25.08883 2.9179,1.80336 14.2586,12.07438 20.1672,18.26495 3.575,3.74562 7.2494,6.81655 8.1654,6.8243 0.916,0.008 5.191,-4.27589 9.5,-9.51916 z m 44.8807,-18.21677 c 4.2746,-4.2625 10.0081,-10.10446 12.7411,-12.98213 l 4.9691,-5.23212 -5.8617,-6.05993 -5.8616,-6.05992 -6.7278,7.29205 c -3.7003,4.01063 -6.7452,7.61881 -6.7665,8.01819 -0.021,0.39938 -2.427,3.27168 -5.3461,6.3829 l -5.3073,5.65676 5.0573,5.25784 c 2.7816,2.8918 5.1191,5.307 5.1945,5.36709 0.075,0.0601 3.6345,-3.37823 7.909,-7.64073 z m -536.26172,-6.96395 c 3.41857,-3.69267 9.51523,-10.02367 13.54814,-14.06888 l 7.33257,-7.35493 -8.83257,-8.92733 C 254.3644,199.69004 250,196.90935 250,199.88623 c 0,0.5926 -4.989,6.18307 -11.08667,12.42327 l -11.08666,11.34582 2.33666,3.32673 c 1.28517,1.8297 2.82451,3.64481 3.42076,4.03357 1.0298,0.67145 4.08742,5.01218 7.77882,11.04316 0.92576,1.5125 1.91331,2.75 2.19456,2.75 0.28125,0 3.30838,-3.02128 6.72695,-6.71395 z m 63.73805,-2.50469 C 316.76011,232.71988 319,229.80307 319,229.10833 c 0,-0.69474 -1.4625,-2.77245 -3.25,-4.61712 -1.7875,-1.84467 -6.80567,-7.23221 -11.15149,-11.9723 -8.91849,-9.72761 -8.67429,-9.68833 -16.09851,-2.58925 -2.2,2.10366 -4.9,4.50954 -6,5.34641 -1.92658,1.46573 -1.65126,1.85429 7.5,10.5848 9.71741,9.27062 16.61942,14.94791 18.17251,14.94791 0.47983,0 3.11231,-2.34839 5.84996,-5.21864 z m 454.53967,-4.53136 c 2.5253,-3.1625 5.0791,-6.7625 5.6752,-8 0.596,-1.2375 1.4326,-2.25 1.859,-2.25 1.3079,0 9.9037,-8.23179 9.9037,-9.48428 0,-0.64717 -1.9223,-2.55719 -4.2718,-4.24447 -2.3495,-1.68729 -8.8431,-7.61357 -14.4302,-13.16952 -5.5871,-5.55595 -10.3784,-10.10173 -10.6472,-10.10173 -1.1055,0 -16.6508,16.54655 -16.6508,17.72328 0,0.7022 -0.3966,1.27672 -0.8813,1.27672 -0.4847,0 -2.0663,1.55363 -3.5147,3.45252 l -2.6333,3.45252 12.7763,10.9166 c 7.0269,6.00413 13.6654,12.1005 14.752,13.54748 1.0866,1.44698 2.3123,2.63088 2.7237,2.63088 0.4114,0 2.8142,-2.5875 5.3394,-5.75 z m 57.4124,-24.95308 c 0.014,-0.6617 1.713,-1.97245 3.7755,-2.91279 3.3698,-1.53638 7.1694,-4.93652 7.2278,-6.46791 0.012,-0.32108 -2.3693,-2.23086 -5.2922,-4.24396 -2.9229,-2.01309 -6.2867,-4.77843 -7.4751,-6.14518 l -2.1607,-2.485 -12.5249,12.57043 c -6.8887,6.91373 -12.5249,12.88248 -12.5249,13.26388 0,0.62206 3.0813,3.39511 10.835,9.75103 l 2.5953,2.12742 7.7593,-7.12742 c 4.2676,-3.92008 7.7708,-7.66881 7.7849,-8.3305 z m -599.4211,8.30605 c 1.07061,-1.86837 5.88406,-7.52623 10.69656,-12.57303 4.8125,-5.0468 8.75,-9.54138 8.75,-9.98796 0,-0.44658 -1.125,-1.54909 -2.5,-2.45002 -1.375,-0.90094 -2.5,-2.16119 -2.5,-2.80056 0,-1.47858 -4.01242,-5.7914 -5.38801,-5.7914 -1.35156,0 -10.03988,9.36425 -13.45338,14.5 -1.46223,2.2 -3.67111,4.82016 -4.90861,5.82258 -1.2375,1.00242 -2.25,2.40982 -2.25,3.12756 0,0.71773 -0.675,1.86517 -1.5,2.54986 -0.825,0.68469 -1.5,1.86042 -1.5,2.61273 0,1.63728 8.84267,8.3272 11.05344,8.36248 0.8544,0.0136 2.4294,-1.50387 3.5,-3.37224 z m 51.09827,-6.13771 c 0.32391,-0.84411 2.55304,-2.88609 4.95362,-4.53773 4.77425,-3.28477 7.48729,-7.06332 5.53807,-7.71306 -0.62887,-0.20963 -1.1434,-0.78981 -1.1434,-1.28929 0,-0.49949 -2.925,-3.89132 -6.5,-7.5374 -3.575,-3.64607 -6.5,-7.2499 -6.5,-8.0085 0,-0.75861 -0.45,-1.37928 -1,-1.37928 -0.55,0 -1,0.45335 -1,1.00745 0,0.5541 -3.25119,4.15712 -7.22486,8.00672 l -7.22485,6.99927 8.21089,7.99328 c 8.18179,7.96495 10.77248,9.37212 11.89053,6.45854 z m 518.71153,-8.42242 c 2.5502,-2.72644 4.6368,-5.35557 4.6368,-5.84253 0,-0.48695 1.5599,-1.72545 3.4665,-2.75222 2.093,-1.12715 3.6963,-2.87352 4.0463,-4.40747 0.3188,-1.39734 2.0925,-3.66562 3.9416,-5.04062 3.8892,-2.89206 3.6378,-3.50146 -3.3969,-8.2363 -2.5066,-1.68714 -7.9132,-6.42486 -12.0146,-10.52826 -12.034,-12.0399 -12.8337,-12.20734 -19.1141,-4.00243 -1.7964,2.34685 -5.3822,6.51699 -7.9684,9.26699 -6.0704,6.45469 -6.6533,8.88399 -3.2287,13.45728 6.6028,8.81771 21.635,23.02224 24.3815,23.03898 0.3372,0.002 2.6997,-2.22698 5.25,-4.95342 z m 54.0706,-15.62756 c 1.1796,-1.14659 3.318,-4.74659 4.7521,-8 4.5488,-10.31996 4.5864,-9.89328 -1.3598,-15.42521 -2.9294,-2.72528 -5.8401,-4.96293 -6.4684,-4.97256 -0.9507,-0.0146 -10.1635,10.2519 -17.7358,19.7643 l -1.878,2.35923 4.0894,3.92948 c 2.2492,2.16121 4.5313,3.92948 5.0714,3.92948 0.54,0 1.5699,0.82889 2.2886,1.84197 2.7271,3.84424 4.2325,3.38534 11.2405,-3.42669 z m -596.07549,0.16056 c 0.8736,-1.33328 2.47866,-2.70672 3.5668,-3.05208 1.08814,-0.34537 3.34536,-2.48666 5.01604,-4.75843 l 3.03759,-4.13049 -6.20647,-6.28809 c -3.41356,-3.45845 -6.54428,-7.20129 -6.95716,-8.31742 -0.9948,-2.6892 -2.41979,-2.56236 -4.35256,0.38742 -1.2989,1.98238 -1.35954,2.7754 -0.33736,4.41216 1.06633,1.70748 0.87429,2.47704 -1.33088,5.33325 -1.41737,1.83581 -3.45848,4.23784 -4.53581,5.33784 -1.94908,1.9901 -1.93353,2.02814 3.14134,7.68602 2.80507,3.12731 5.61087,5.71481 6.23511,5.75 0.62424,0.0352 1.84976,-1.02689 2.72336,-2.36018 z m 570.85029,-17.22268 c 1.5435,-2.29832 3.8884,-4.41167 5.2833,-4.76178 1.3795,-0.34622 2.5044,-1.18341 2.5,-1.86043 0,-0.67702 2.0021,-3.03095 4.4591,-5.23095 l 4.4672,-4 -8.7544,-8 c -4.8149,-4.4 -11.434,-11.25449 -14.7091,-15.2322 -6.3865,-7.75662 -9.1622,-9.54187 -10.6638,-6.85865 -0.7516,1.3431 -10.2734,13.49521 -16.3387,20.85228 -1.9041,2.30958 -1.8544,2.62968 0.7978,5.13275 1.2375,1.16793 3.4133,3.52835 4.8351,5.24537 1.4217,1.71702 4.7967,4.80505 7.5,6.86229 2.7032,2.05724 5.1399,4.03319 5.4149,4.39099 1.9255,2.50532 9.7103,8.11702 10.9335,7.88146 0.8249,-0.15886 2.7487,-2.14837 4.2751,-4.42113 z m 40.258,-11.96902 c 2.4362,-0.97602 5.8153,-3.71665 8.5334,-6.92113 2.475,-2.9179 5.181,-5.56229 6.0134,-5.87643 0.8324,-0.31414 3.6444,-2.52763 6.2489,-4.91885 l 4.7355,-4.34768 -2.4989,-1.13859 c -1.3744,-0.62622 -2.4989,-1.55547 -2.4989,-2.065 0,-0.50953 -2.0376,-2.12051 -4.5279,-3.57996 -5.2668,-3.08653 -7.6549,-2.72848 -10.1671,1.52435 -0.9549,1.61653 -2.0345,2.93915 -2.399,2.93915 -0.3645,0 -2.63,2.58645 -5.0344,5.74768 -2.4044,3.16122 -5.3841,6.86912 -6.6216,8.23978 -3.2827,3.63597 -2.7469,8.97632 1.0868,10.83078 2.8673,1.38701 2.5332,1.40735 7.1298,-0.4341 z m -16.0438,-14.13414 c 5.6343,-5.79393 9.5772,-10.71712 9.5772,-11.95834 0,-0.71041 0.3705,-1.29166 0.8233,-1.29166 0.4529,0 3.2906,-2.40882 6.306,-5.35293 l 5.4827,-5.35293 -9.7694,-7.21169 c -5.3732,-3.96642 -11.1275,-8.48031 -12.7874,-10.03085 -1.6598,-1.55054 -5.2481,-4.2503 -7.9739,-5.99946 -4.6491,-2.98327 -5.0994,-3.08453 -7.2687,-1.6345 -2.4376,1.62935 -17.7362,17.7991 -19.1241,20.21308 -0.5869,1.02084 3.4163,5.55676 14.4655,16.39037 8.4023,8.2384 15.7984,14.97891 16.4357,14.97891 0.6374,0 2.3623,-1.2375 3.8331,-2.75 z m 50.7079,-17.5 c 4.6643,-5.67249 6.6663,-7.66196 12.2505,-12.17387 1.9904,-1.60812 3.6188,-3.28105 3.6188,-3.7176 0,-0.43656 -2.5875,-2.71609 -5.75,-5.06562 -3.1625,-2.34954 -6.7812,-5.40162 -8.0416,-6.7824 l -2.2916,-2.51051 -2.4837,3 c -1.366,1.65 -4.2342,5.025 -6.3738,7.5 -7.538,8.71955 -8.1414,9.7458 -7.7833,13.23658 0.1883,1.83525 0.6538,3.84079 1.0345,4.45675 0.7963,1.28857 9.6652,7.30667 10.7678,7.30667 0.4045,0 2.6781,-2.3625 5.0524,-5.25 z m -20.8687,-16.5 c 1.7715,-2.6125 6.116,-7.63755 9.6546,-11.16677 l 6.4337,-6.41677 -4.0618,-2.08323 c -3.8683,-1.98399 -18.9184,-13.35981 -28.0568,-21.20718 -3.2991,-2.83294 -4.6862,-3.46214 -6.1082,-2.77068 -1.9666,0.95631 -13.8058,14.48831 -15.8513,18.11776 -1.3599,2.41302 -0.4052,3.87619 4.6181,7.07802 4.5595,2.90615 15.3868,11.44213 22.0958,17.41981 3.5674,3.17847 6.8392,5.77904 7.2706,5.77904 0.4315,0 2.2339,-2.1375 4.0053,-4.75 z m 45.8994,-7.5 c 5.21,-3.93674 18.8386,-17.76416 18.8386,-19.11341 0,-0.71425 -1.2375,-1.9333 -2.75,-2.70901 -2.6693,-1.36898 -6.1945,-4.20638 -10.6036,-8.53465 -1.1805,-1.15888 -2.8696,-2.35757 -3.7535,-2.66376 -2.3219,-0.80434 -6.471,2.2631 -10.7325,7.93463 -2.0415,2.71704 -5.8844,7.02174 -8.5397,9.56599 -4.6854,4.48937 -5.2872,6.74603 -1.8117,6.79312 0.9301,0.0126 4.616,2.47729 8.191,5.47709 3.575,2.9998 6.8788,5.46449 7.3418,5.47709 0.4631,0.0126 2.1818,-0.98959 3.8196,-2.22709 z m -24.6514,-17.5 c 0.957,-1.5125 2.4974,-3.425 3.423,-4.25 3.4911,-3.11146 15.067,-16.76969 15.067,-17.77728 0,-0.57814 -2.1375,-2.44813 -4.75,-4.15552 -6.414,-4.19183 -10.2512,-7.09789 -13.3042,-10.07584 -3.4336,-3.34917 -6.6424,-5.91635 -11.7586,-9.40727 -2.3504,-1.60375 -4.6583,-3.60345 -5.1285,-4.44377 -0.7054,-1.26035 -1.4119,-0.9249 -4.0353,1.91591 -5.4247,5.87416 -17.0254,21.10975 -16.9849,22.30667 0.021,0.6254 1.3272,2.0371 2.9023,3.1371 8.7222,6.09141 13.1389,9.55695 18.5476,14.55318 7.5825,7.0043 12.435,10.94682 13.4733,10.94682 0.4446,0 1.5913,-1.2375 2.5483,-2.75 z m 52.9656,-15.97909 c 2.4884,-4.251 4.5244,-8.84647 4.5244,-10.21215 0,-2.86532 -7.4634,-11.05876 -10.0733,-11.05876 -0.9114,0 -2.8011,0.9 -4.1996,2 -1.3984,1.1 -2.9768,2 -3.5075,2 -1.0013,0 -9.2196,8.50686 -9.2196,9.5434 0,1.90977 2.8461,5.00437 9.1102,9.9057 3.9018,3.05299 7.4873,5.5509 7.9676,5.5509 0.4803,0 2.9093,-3.47809 5.3978,-7.72909 z m -21.8462,-19.77091 c 0.8825,-1.65 2.4768,-3.95548 3.5429,-5.12329 1.79,-1.96088 1.8138,-2.24773 0.3116,-3.75 -0.8947,-0.89469 -2.0933,-1.62671 -2.6635,-1.62671 -0.5703,0 -3.8065,-2.20389 -7.1916,-4.89754 -3.3852,-2.69364 -9.299,-6.45049 -13.1418,-8.34856 -3.8429,-1.89807 -8.4129,-4.29391 -10.1557,-5.32409 -4.1384,-2.44625 -8.6839,-1.14607 -9.1257,2.61029 -0.1676,1.42524 -1.5366,3.3382 -3.179,4.442 -3.0777,2.06856 -3.0937,3.5179 -0.039,3.5179 1.0284,0 3.5893,1.62466 5.691,3.61035 3.3083,3.1258 7.2586,6.51195 15.8059,13.54886 1.1084,0.91257 4.46,3.72214 7.4479,6.2435 l 5.4326,4.58427 2.8299,-3.24349 c 1.5564,-1.78392 3.5518,-4.59349 4.4343,-6.24349 z"
     id="path2987"
     inkscape:connector-curvature="0" />
</svg>
