<?xml version="1.0" encoding="UTF-8" standalone="no"?>
<svg
   version="1.1"
   id="svg1"
   sodipodi:docname="BLB.svg"
   width="105mm"
   height="74mm"
   inkscape:version="1.3.2 (091e20e, 2023-11-25, custom)"
   xmlns:inkscape="http://www.inkscape.org/namespaces/inkscape"
   xmlns:sodipodi="http://sodipodi.sourceforge.net/DTD/sodipodi-0.dtd"
   xmlns="http://www.w3.org/2000/svg"
   xmlns:svg="http://www.w3.org/2000/svg">
  <defs
     id="defs1" />
  <sodipodi:namedview
     id="namedview1"
     pagecolor="#ffffff"
     bordercolor="#000000"
     borderopacity="0.25"
     inkscape:showpageshadow="2"
     inkscape:pageopacity="0.0"
     inkscape:pagecheckerboard="0"
     inkscape:deskcolor="#d1d1d1"
     inkscape:zoom="1.5957043"
     inkscape:cx="179.85788"
     inkscape:cy="140.06354"
     inkscape:window-width="1920"
     inkscape:window-height="1001"
     inkscape:window-x="-9"
     inkscape:window-y="-9"
     inkscape:window-maximized="1"
     inkscape:current-layer="svg1"
     inkscape:document-units="mm" />
  <path
     d="m 184.16259,43.024264 c -0.10553,0.184676 -0.58041,1.160821 -1.08168,2.163348 -1.76761,3.719903 -4.72243,7.756394 -8.23127,11.238856 -1.82038,1.820378 -3.69352,3.614374 -4.19479,3.957344 -0.50126,0.369352 -1.02891,0.791468 -1.1872,0.92338 -1.10806,1.055292 -4.37946,3.033963 -8.38957,5.091782 l -2.8229,1.451026 1.10805,2.136965 c 1.45103,2.796523 2.82291,6.199839 3.48247,8.732538 0.76508,2.928434 0.94976,6.041545 0.47488,8.600627 -0.50127,2.717376 -1.50379,4.616901 -3.61438,6.701102 -2.47993,2.453553 -4.37946,3.403316 -9.12827,4.537754 -0.36935,0.105529 -1.89953,0.158294 -3.4297,0.184676 -4.14202,0 -6.49004,-1.002527 -9.31295,-3.930961 -1.13444,-1.187203 -2.71737,-4.010108 -3.37693,-5.936016 -0.7387,-2.216112 -1.02891,-3.825432 -1.21359,-6.595573 -0.0528,-1.239967 -0.23744,-2.348024 -0.36935,-2.479935 -0.13191,-0.158294 -0.60679,-0.131912 -1.21358,0.05277 -1.84676,0.527646 -3.11311,0.817851 -4.30032,0.976145 -0.63317,0.105529 -1.23996,0.211058 -1.31911,0.263823 -0.31659,0.184676 -5.09178,0.527645 -7.65087,0.527645 -2.84928,0 -7.33427,-0.342969 -7.75639,-0.606792 -0.13191,-0.07915 -0.60679,-0.158294 -1.05529,-0.211059 -0.87062,-0.105529 -2.29526,-0.474881 -3.98373,-1.055291 -1.6357,-0.554028 -1.76761,-0.501264 -1.58293,0.606793 0.10553,0.554028 0.23744,1.187203 0.31658,1.398261 0.10553,0.211058 0.21106,0.738704 0.26383,1.187203 0.0791,0.422117 0.21106,0.92338 0.34297,1.055292 0.13191,0.158293 0.2902,0.738704 0.36935,1.319114 0.0791,0.580411 0.2902,1.95229 0.47488,3.033964 0.55403,3.376933 0.39573,13.79794 -0.23744,14.85323 -0.0528,0.10553 -0.15829,0.52764 -0.23744,0.92338 -0.0791,0.39573 -0.18468,0.897 -0.29021,1.10806 -0.0791,0.21105 -0.18467,0.58041 -0.23744,0.79146 -0.0528,0.21106 -0.21105,0.63318 -0.34297,0.97615 -0.15829,0.34297 -0.39573,0.87061 -0.52764,1.1872 -0.13191,0.34297 -0.34297,0.92338 -0.50126,1.31912 -0.26383,0.65955 -0.23745,0.71232 0.47488,0.87061 0.42211,0.10553 0.84423,0.1583 0.92338,0.1583 0.0528,0 0.50126,0.13191 0.97614,0.26382 0.47488,0.15829 1.08167,0.31659 1.3455,0.36935 1.08167,0.23744 4.64328,1.55656 5.85686,2.16335 2.13697,1.10805 3.588,2.16335 5.54029,4.14202 3.53522,3.56161 5.27645,8.07298 5.27645,13.50773 -0.0264,3.40332 -0.65955,5.61943 -2.58546,8.89083 -0.60679,1.00253 -4.82796,5.46114 -5.19731,5.46114 -0.10553,0 -0.52765,0.2902 -0.94976,0.65955 -0.42212,0.36936 -0.897,0.65956 -1.0553,0.65956 -0.15829,0 -0.50126,0.23744 -0.7387,0.50127 -0.4485,0.50126 -0.4485,0.60679 0.21106,2.58546 0.36935,1.13444 0.7387,2.34802 0.81785,2.71738 0.0528,0.36935 0.23744,1.1872 0.39573,1.84676 0.4485,2.0842 0.52765,2.47993 0.71233,3.69352 0.47488,3.00758 0.13191,12.32053 -0.50127,13.34944 -0.42211,0.65955 0.34297,0.84423 4.01011,1.02891 2.11058,0.10553 3.8782,0.21106 3.98373,0.26382 0.0791,0.0528 0.7387,0.18468 1.45102,0.26382 4.30032,0.55403 8.57425,2.08421 13.27029,4.74882 0.58041,0.31659 0.76509,0.26382 2.63823,-1.00253 2.61185,-1.76761 2.66461,-1.82038 5.30284,-3.08673 3.74629,-1.84676 6.01517,-2.58546 10.15719,-3.40332 1.6357,-0.31658 9.78783,-0.34297 10.97503,-0.0264 0.50126,0.13192 1.26635,0.29021 1.68847,0.36936 1.13444,0.18467 3.87819,0.92338 4.48499,1.21358 4.14202,1.87314 5.03901,2.00506 4.6169,0.55403 -0.31659,-1.02891 -2.66461,-5.93602 -4.01011,-8.3368 -0.65956,-1.16082 -1.50379,-2.71738 -1.92591,-3.4297 -7.07045,-12.63712 -20.68372,-30.04943 -34.34974,-43.9529 -2.05782,-2.11058 -3.77267,-3.93096 -3.77267,-4.06287 0,-0.13191 0.31659,0.0791 0.7387,0.42212 0.39574,0.36935 2.50632,2.26887 4.66967,4.19478 9.62954,8.60063 21.8973,21.58071 29.31073,30.99919 4.0101,5.09178 9.6823,13.27029 11.42353,16.48893 2.50632,4.56414 2.66461,4.6169 2.66461,0.84424 0,-1.58294 0.23744,-11.29162 0.52765,-21.58072 0.2902,-10.28909 0.63317,-23.34833 0.79146,-28.99414 0.13192,-5.67219 0.31659,-12.00394 0.39574,-14.11452 0.0528,-2.110584 0.18467,-6.938543 0.2902,-10.763975 0.10553,-3.79905 0.23744,-6.885779 0.29021,-6.833015 0.10553,0.131912 0.26382,4.696049 0.47488,12.980088 0.18468,7.703632 0.36935,14.193672 0.52765,19.390982 0.0791,2.2425 0.18467,6.64834 0.26382,9.76145 0.13191,5.61943 0.31659,11.89841 0.52764,18.73143 0.0528,1.95229 0.21106,6.75386 0.31659,10.68482 0.10553,3.90458 0.18468,7.54534 0.21106,8.0466 0,0.50127 0.0528,1.95229 0.0791,3.21864 0.0264,1.29273 0.15829,2.32164 0.26382,2.32164 0.13191,0 0.50127,-0.50126 0.84424,-1.13443 6.04154,-10.84313 15.69746,-23.48024 26.48782,-34.66633 1.6357,-1.71485 3.29778,-3.48247 3.66713,-3.93097 1.47741,-1.74123 15.96129,-15.14343 17.06934,-15.80299 0.21106,-0.10553 -0.84423,1.08167 -2.3744,2.66461 -15.82938,16.3834 -26.64612,30.23411 -35.64248,45.48307 -2.40079,4.08925 -5.25007,10.31548 -5.25007,11.42353 0.0264,0.92338 0.42211,1.00253 1.87314,0.36935 2.61185,-1.16082 5.03902,-1.89952 8.41595,-2.55908 1.66208,-0.31659 9.2338,-0.31659 10.73759,0 0.55403,0.13191 1.37188,0.29021 1.794,0.36935 1.26635,0.21106 3.8782,0.92338 4.74881,1.31912 0.4485,0.18467 1.6357,0.68594 2.63823,1.08167 1.02891,0.42212 1.97867,0.84424 2.11058,0.94976 0.1583,0.10553 0.87062,0.50127 1.58294,0.89701 0.73871,0.39573 2.11058,1.29273 3.08673,2.00505 l 1.79399,1.29273 0.84424,-0.52764 c 2.11058,-1.29274 6.41089,-3.11312 8.38957,-3.56162 0.21105,-0.0528 0.79147,-0.21105 1.26635,-0.36935 0.47488,-0.13191 0.92338,-0.26382 0.97614,-0.26382 0.0791,0 0.39574,-0.0791 0.73871,-0.1583 0.31658,-0.0528 0.94976,-0.15829 1.37187,-0.23744 0.4485,-0.0528 1.26635,-0.18467 1.84676,-0.2902 1.18721,-0.18468 3.61438,-0.31659 6.27899,-0.36935 l 1.82038,-0.0264 -0.1583,-0.71233 c -0.10552,-0.42211 -0.23744,-1.0289 -0.31658,-1.39826 -0.76509,-3.50884 -0.68594,-10.02527 0.15829,-14.24643 0.31659,-1.50379 0.63318,-2.84929 0.71232,-2.9812 0.0791,-0.10553 0.18468,-0.6068 0.26383,-1.05529 0.0528,-0.47489 0.23744,-0.94977 0.36935,-1.10806 0.13191,-0.13191 0.23744,-0.50126 0.23744,-0.81785 0,-0.34297 0.10553,-0.65956 0.23744,-0.73871 0.13191,-0.0791 0.2902,-0.50126 0.34297,-0.94976 0.10553,-0.71232 0,-0.87061 -1.1872,-1.60932 -1.74124,-1.05529 -1.84676,-1.16082 -3.98373,-3.2714 -3.37693,-3.32417 -4.40584,-5.0654 -5.40837,-9.15466 -0.76509,-3.11311 -0.7387,-4.11563 0.26382,-8.38957 0.34297,-1.42464 0.47488,-1.79399 1.45103,-3.82543 1.6357,-3.37693 4.37946,-6.17345 7.8883,-8.0466 0.4485,-0.23744 1.02891,-0.55402 1.31912,-0.71232 0.2902,-0.15829 0.81785,-0.39573 1.1872,-0.55403 0.36935,-0.13191 1.10806,-0.4485 1.6357,-0.68594 0.52765,-0.23744 1.3455,-0.50126 1.84676,-0.58041 0.47489,-0.0791 1.10806,-0.23744 1.39827,-0.36935 0.2902,-0.13191 1.16082,-0.36935 1.9259,-0.52764 0.73871,-0.18468 1.37188,-0.36936 1.37188,-0.42212 0,-0.0791 -0.18467,-0.47488 -0.39573,-0.897 -0.23744,-0.4485 -0.34297,-0.79147 -0.26383,-0.79147 0.0792,0 0,-0.26382 -0.18467,-0.60679 -0.1583,-0.31659 -0.34297,-0.81785 -0.39574,-1.08167 -0.0528,-0.29021 -0.21105,-0.63318 -0.34297,-0.79147 -0.13191,-0.18468 -0.2902,-0.6068 -0.34297,-0.94977 -0.0528,-0.36935 -0.15829,-0.84423 -0.26382,-1.05529 -0.13191,-0.36935 -0.21106,-0.79147 -0.71232,-4.221163 -0.18468,-1.398262 -0.13191,-8.653392 0.0791,-10.025271 0.0792,-0.369352 0.18468,-1.081674 0.2902,-1.582937 0.0791,-0.501264 0.21106,-1.239968 0.26383,-1.662085 0.0791,-0.395734 0.18467,-0.92338 0.26382,-1.187203 0.0791,-0.23744 0.18468,-0.738704 0.26382,-1.108056 0.13192,-0.712322 0.34297,-1.530173 0.58041,-2.453553 0.0792,-0.316588 0.21106,-0.976145 0.29021,-1.424644 0.13191,-0.870616 0.13191,-0.870616 -0.7387,-0.712322 -0.50127,0.105529 -1.00253,0.263823 -1.16083,0.369352 -0.26382,0.184676 -1.00252,0.369352 -3.29778,0.738704 -0.65956,0.105529 -1.31912,0.290205 -1.45103,0.369352 -0.42211,0.263823 -4.82796,0.606793 -7.65086,0.606793 -2.63823,0 -7.46619,-0.34297 -7.83554,-0.58041 -0.10554,-0.05277 -0.76509,-0.184678 -1.45103,-0.263825 -0.71232,-0.07915 -1.47741,-0.263823 -1.71485,-0.395735 -0.26382,-0.131911 -0.47488,-0.184676 -0.47488,-0.105529 0,0.07915 -0.55403,-0.02638 -1.23997,-0.23744 -1.87314,-0.580411 -1.92591,-0.554029 -1.92591,0.817851 0,3.033963 -1.02891,7.334277 -2.47993,10.394623 -0.97615,2.057818 -1.21359,2.374406 -3.00758,4.142019 -3.45608,3.403316 -8.28404,4.273931 -14.24644,2.559083 -7.09684,-2.057819 -10.81674,-6.727485 -10.81674,-13.507734 0,-3.165875 0.94976,-7.228747 2.50632,-10.869503 0.76508,-1.741231 2.16335,-4.537754 2.47993,-4.907106 0.58041,-0.712322 0.29021,-0.976145 -2.66461,-2.321642 -1.71485,-0.791469 -4.35308,-2.295259 -4.80158,-2.743758 -0.18467,-0.184676 -0.47488,-0.316587 -0.65955,-0.316587 -0.18468,0 -0.34297,-0.131912 -0.34297,-0.263823 0,-0.158294 -0.18468,-0.263823 -0.39574,-0.263823 -0.21106,0 -0.39573,-0.07915 -0.39573,-0.211058 0,-0.10553 -0.47488,-0.474882 -1.05529,-0.844234 -0.58041,-0.369352 -1.05529,-0.738704 -1.05529,-0.844233 0,-0.105529 -0.23745,-0.237441 -0.50127,-0.34297 -0.81785,-0.23744 -6.80663,-6.358132 -8.52148,-8.679773 -1.79399,-2.400789 -4.1684,-6.358133 -4.82796,-8.020217 -0.47488,-1.134439 -0.7387,-1.345497 -1.10805,-0.791469 z m 0.65955,137.135156 c -0.0791,0.21105 -0.34297,1.9259 -0.60679,3.79905 -0.55403,4.14202 -1.87314,9.86697 -3.16587,13.74517 -1.53018,4.6169 -3.40332,8.28404 -6.09431,11.9248 -0.39574,0.55402 -0.39574,0.65955 -0.0264,1.23996 0.7387,1.10806 6.19984,6.64834 8.09936,8.2049 l 1.84676,1.50379 1.23997,-1.0553 c 1.66208,-1.37187 9.04912,-8.91721 9.04912,-9.2338 0,-0.31658 -1.66208,-2.42717 -1.89952,-2.42717 -0.10553,0 -0.21106,-0.15829 -0.21106,-0.36935 0,-0.18468 -0.18468,-0.50126 -0.39573,-0.68594 -0.23744,-0.18468 -0.58041,-0.76509 -0.81785,-1.29273 -0.23745,-0.52765 -0.76509,-1.794 -1.21359,-2.79652 -1.16082,-2.66462 -1.16082,-2.66462 -2.03144,-5.40837 -1.50379,-4.7752 -3.11311,-12.3733 -3.53522,-16.62085 -0.0528,-0.52764 -0.13192,-0.7387 -0.23744,-0.52764 z"
     id="path1"
     style="stroke-width:0.263823" />
</svg>
