  0
SECTION
  2
HEADER
  9
$ACADVER
  1
AC1024
  9
$ACADMAINTVER
 70
     6
  9
$DWGCODEPAGE
  3
UNDEFINED
  9
$INSBASE
 10
0.0
 20
0.0
 30
0.0
  9
$EXTMIN
 10
1.000000000000000E+20
 20
1.000000000000000E+20
 30
1.000000000000000E+20
  9
$EXTMAX
 10
-1.000000000000000E+20
 20
-1.000000000000000E+20
 30
-1.000000000000000E+20
  9
$LIMMIN
 10
0.0
 20
0.0
  9
$LIMMAX
 10
12.0
 20
9.0
  9
$ORTHOMODE
 70
     0
  9
$REGENMODE
 70
     1
  9
$FILLMODE
 70
     1
  9
$QTEXTMODE
 70
     0
  9
$MIRRTEXT
 70
     1
  9
$LTSCALE
 40
1.0
  9
$ATTMODE
 70
     1
  9
$TEXTSIZE
 40
0.2
  9
$TRACEWID
 40
0.05
  9
$TEXTSTYLE
  7
Standard
  9
$CLAYER
  8
0
  9
$CELTYPE
  6
ByLayer
  9
$CECOLOR
 62
   256
  9
$CELTSCALE
 40
1.0
  9
$DISPSILH
 70
     0
  9
$DIMSCALE
 40
1.0
  9
$DIMASZ
 40
0.18
  9
$DIMEXO
 40
0.0625
  9
$DIMDLI
 40
0.38
  9
$DIMRND
 40
0.0
  9
$DIMDLE
 40
0.0
  9
$DIMEXE
 40
0.18
  9
$DIMTP
 40
0.0
  9
$DIMTM
 40
0.0
  9
$DIMTXT
 40
0.18
  9
$DIMCEN
 40
0.09
  9
$DIMTSZ
 40
0.0
  9
$DIMTOL
 70
     0
  9
$DIMLIM
 70
     0
  9
$DIMTIH
 70
     1
  9
$DIMTOH
 70
     1
  9
$DIMSE1
 70
     0
  9
$DIMSE2
 70
     0
  9
$DIMTAD
 70
     0
  9
$DIMZIN
 70
     0
  9
$DIMBLK
  1

  9
$DIMASO
 70
     1
  9
$DIMSHO
 70
     1
  9
$DIMPOST
  1

  9
$DIMAPOST
  1

  9
$DIMALT
 70
     0
  9
$DIMALTD
 70
     2
  9
$DIMALTF
 40
25.4
  9
$DIMLFAC
 40
1.0
  9
$DIMTOFL
 70
     0
  9
$DIMTVP
 40
0.0
  9
$DIMTIX
 70
     0
  9
$DIMSOXD
 70
     0
  9
$DIMSAH
 70
     0
  9
$DIMBLK1
  1

  9
$DIMBLK2
  1

  9
$DIMSTYLE
  2
Standard
  9
$DIMCLRD
 70
     0
  9
$DIMCLRE
 70
     0
  9
$DIMCLRT
 70
     0
  9
$DIMTFAC
 40
1.0
  9
$DIMGAP
 40
0.09
  9
$DIMJUST
 70
     0
  9
$DIMSD1
 70
     0
  9
$DIMSD2
 70
     0
  9
$DIMTOLJ
 70
     1
  9
$DIMTZIN
 70
     0
  9
$DIMALTZ
 70
     0
  9
$DIMALTTZ
 70
     0
  9
$DIMUPT
 70
     0
  9
$DIMDEC
 70
     4
  9
$DIMTDEC
 70
     4
  9
$DIMALTU
 70
     2
  9
$DIMALTTD
 70
     2
  9
$DIMTXSTY
  7
Standard
  9
$DIMAUNIT
 70
     0
  9
$DIMADEC
 70
     0
  9
$DIMALTRND
 40
0.0
  9
$DIMAZIN
 70
     0
  9
$DIMDSEP
 70
    46
  9
$DIMATFIT
 70
     3
  9
$DIMFRAC
 70
     0
  9
$DIMLDRBLK
  1

  9
$DIMLUNIT
 70
     2
  9
$DIMLWD
 70
    -2
  9
$DIMLWE
 70
    -2
  9
$DIMTMOVE
 70
     0
  9
$DIMFXL
 40
1.0
  9
$DIMFXLON
 70
     0
  9
$DIMJOGANG
 40
0.7853981633974483
  9
$DIMTFILL
 70
     0
  9
$DIMTFILLCLR
 70
     0
  9
$DIMARCSYM
 70
     0
  9
$DIMLTYPE
  6

  9
$DIMLTEX1
  6

  9
$DIMLTEX2
  6

  9
$DIMTXTDIRECTION
 70
     0
  9
$LUNITS
 70
     2
  9
$LUPREC
 70
     4
  9
$SKETCHINC
 40
0.1
  9
$FILLETRAD
 40
0.5
  9
$AUNITS
 70
     0
  9
$AUPREC
 70
     0
  9
$MENU
  1
.
  9
$ELEVATION
 40
0.0
  9
$PELEVATION
 40
0.0
  9
$THICKNESS
 40
0.0
  9
$LIMCHECK
 70
     0
  9
$CHAMFERA
 40
0.5
  9
$CHAMFERB
 40
0.5
  9
$CHAMFERC
 40
1.0
  9
$CHAMFERD
 40
0.0
  9
$SKPOLY
 70
     0
  9
$TDCREATE
 40
2457936.608761574
  9
$TDUCREATE
 40
2457936.817094908
  9
$TDUPDATE
 40
2457936.608761574
  9
$TDUUPDATE
 40
2457936.817094908
  9
$TDINDWG
 40
0.0000000116
  9
$TDUSRTIMER
 40
0.0000000116
  9
$USRTIMER
 70
     1
  9
$ANGBASE
 50
0.0
  9
$ANGDIR
 70
     0
  9
$PDMODE
 70
     0
  9
$PDSIZE
 40
0.0
  9
$PLINEWID
 40
0.0
  9
$SPLFRAME
 70
     0
  9
$SPLINETYPE
 70
     6
  9
$SPLINESEGS
 70
     8
  9
$HANDSEED
  5
F6
  9
$SURFTAB1
 70
     6
  9
$SURFTAB2
 70
     6
  9
$SURFTYPE
 70
     6
  9
$SURFU
 70
     6
  9
$SURFV
 70
     6
  9
$UCSBASE
  2

  9
$UCSNAME
  2

  9
$UCSORG
 10
0.0
 20
0.0
 30
0.0
  9
$UCSXDIR
 10
1.0
 20
0.0
 30
0.0
  9
$UCSYDIR
 10
0.0
 20
1.0
 30
0.0
  9
$UCSORTHOREF
  2

  9
$UCSORTHOVIEW
 70
     0
  9
$UCSORGTOP
 10
0.0
 20
0.0
 30
0.0
  9
$UCSORGBOTTOM
 10
0.0
 20
0.0
 30
0.0
  9
$UCSORGLEFT
 10
0.0
 20
0.0
 30
0.0
  9
$UCSORGRIGHT
 10
0.0
 20
0.0
 30
0.0
  9
$UCSORGFRONT
 10
0.0
 20
0.0
 30
0.0
  9
$UCSORGBACK
 10
0.0
 20
0.0
 30
0.0
  9
$PUCSBASE
  2

  9
$PUCSNAME
  2

  9
$PUCSORG
 10
0.0
 20
0.0
 30
0.0
  9
$PUCSXDIR
 10
1.0
 20
0.0
 30
0.0
  9
$PUCSYDIR
 10
0.0
 20
1.0
 30
0.0
  9
$PUCSORTHOREF
  2

  9
$PUCSORTHOVIEW
 70
     0
  9
$PUCSORGTOP
 10
0.0
 20
0.0
 30
0.0
  9
$PUCSORGBOTTOM
 10
0.0
 20
0.0
 30
0.0
  9
$PUCSORGLEFT
 10
0.0
 20
0.0
 30
0.0
  9
$PUCSORGRIGHT
 10
0.0
 20
0.0
 30
0.0
  9
$PUCSORGFRONT
 10
0.0
 20
0.0
 30
0.0
  9
$PUCSORGBACK
 10
0.0
 20
0.0
 30
0.0
  9
$USERI1
 70
     0
  9
$USERI2
 70
     0
  9
$USERI3
 70
     0
  9
$USERI4
 70
     0
  9
$USERI5
 70
     0
  9
$USERR1
 40
0.0
  9
$USERR2
 40
0.0
  9
$USERR3
 40
0.0
  9
$USERR4
 40
0.0
  9
$USERR5
 40
0.0
  9
$WORLDVIEW
 70
     1
  9
$SHADEDGE
 70
     3
  9
$SHADEDIF
 70
    70
  9
$TILEMODE
 70
     1
  9
$MAXACTVP
 70
    64
  9
$PINSBASE
 10
0.0
 20
0.0
 30
0.0
  9
$PLIMCHECK
 70
     0
  9
$PEXTMIN
 10
1.000000000000000E+20
 20
1.000000000000000E+20
 30
1.000000000000000E+20
  9
$PEXTMAX
 10
-1.000000000000000E+20
 20
-1.000000000000000E+20
 30
-1.000000000000000E+20
  9
$PLIMMIN
 10
0.0
 20
0.0
  9
$PLIMMAX
 10
12.0
 20
9.0
  9
$UNITMODE
 70
     0
  9
$VISRETAIN
 70
     1
  9
$PLINEGEN
 70
     0
  9
$PSLTSCALE
 70
     1
  9
$TREEDEPTH
 70
  3020
  9
$CMLSTYLE
  2
Standard
  9
$CMLJUST
 70
     0
  9
$CMLSCALE
 40
1.0
  9
$PROXYGRAPHICS
 70
     1
  9
$MEASUREMENT
 70
     0
  9
$CELWEIGHT
370
    -1
  9
$ENDCAPS
280
     0
  9
$JOINSTYLE
280
     0
  9
$LWDISPLAY
290
     1
  9
$INSUNITS
 70
     1
  9
$HYPERLINKBASE
  1

  9
$STYLESHEET
  1

  9
$XEDIT
290
     1
  9
$CEPSNTYPE
380
     0
  9
$PSTYLEMODE
290
     1
  9
$FINGERPRINTGUID
  2
{EE8477C7-629D-6E19-79DF-5CA19DE932AF}
  9
$VERSIONGUID
  2
{FAEB1C32-E019-11D5-929B-00C0DF256EC4}
  9
$EXTNAMES
290
     1
  9
$PSVPSCALE
 40
0.0
  9
$OLESTARTUP
290
     0
  9
$SORTENTS
280
   127
  9
$INDEXCTL
280
     0
  9
$HIDETEXT
280
     1
  9
$XCLIPFRAME
280
     2
  9
$HALOGAP
280
     0
  9
$OBSCOLOR
 70
   257
  9
$OBSLTYPE
280
     0
  9
$INTERSECTIONDISPLAY
280
     0
  9
$INTERSECTIONCOLOR
 70
   257
  9
$DIMASSOC
280
     2
  9
$PROJECTNAME
  1

  9
$CAMERADISPLAY
290
     0
  9
$LENSLENGTH
 40
50.0
  9
$CAMERAHEIGHT
 40
0.0
  9
$STEPSPERSEC
 40
2.0
  9
$STEPSIZE
 40
6.0
  9
$3DDWFPREC
 40
2.0
  9
$PSOLWIDTH
 40
0.25
  9
$PSOLHEIGHT
 40
4.0
  9
$LOFTANG1
 40
1.570796326794897
  9
$LOFTANG2
 40
1.570796326794897
  9
$LOFTMAG1
 40
0.0
  9
$LOFTMAG2
 40
0.0
  9
$LOFTPARAM
 70
     7
  9
$LOFTNORMALS
280
     1
  9
$LATITUDE
 40
37.795
  9
$LONGITUDE
 40
-122.394
  9
$NORTHDIRECTION
 40
0.0
  9
$TIMEZONE
 70
 -8000
  9
$LIGHTGLYPHDISPLAY
280
     1
  9
$TILEMODELIGHTSYNCH
280
     1
  9
$CMATERIAL
347
3C
  9
$SOLIDHIST
280
     1
  9
$SHOWHIST
280
     1
  9
$DWFFRAME
280
     2
  9
$DGNFRAME
280
     2
  9
$REALWORLDSCALE
290
     1
  9
$INTERFERECOLOR
 62
   256
  9
$CSHADOW
280
     0
  9
$SHADOWPLANELOCATION
 40
0.0
  0
ENDSEC
  0
SECTION
  2
CLASSES
  0
CLASS
  1
ACDBDICTIONARYWDFLT
  2
AcDbDictionaryWithDefault
  3
ObjectDBX Classes
 90
        0
 91
        4
280
     0
281
     0
  0
CLASS
  1
VISUALSTYLE
  2
AcDbVisualStyle
  3
ObjectDBX Classes
 90
     4095
 91
        4
280
     0
281
     0
  0
CLASS
  1
MATERIAL
  2
AcDbMaterial
  3
ObjectDBX Classes
 90
     1153
 91
        4
280
     0
281
     0
  0
CLASS
  1
SUN
  2
AcDbSun
  3
SCENEOE
 90
     1024
 91
        4
280
     0
281
     0
  0
ENDSEC
  0
SECTION
  2
TABLES
  0
TABLE
  2
VPORT
  5
8
330
0
100
AcDbSymbolTable
 70
     1
  0
VPORT
  5
29
330
8
100
AcDbSymbolTableRecord
100
AcDbViewportTableRecord
  2
*Active
 70
     0
 10
0.0
 20
0.0
 11
1.0
 21
1.0
 12
0.0
 22
0.0
 13
0.0
 23
0.0
 14
0.5
 24
0.5
 15
0.5
 25
0.5
 16
0.0
 26
0.0
 36
1.0
 17
4.25
 27
-5.5
 37
0.0
 40
11.0
 41
0.7727272727272727
 42
50.0
 43
0.0
 44
0.0
 50
0.0
 51
0.0
 71
     0
 72
   100
 73
     1
 74
     3
 75
     0
 76
     0
 77
     0
 78
     0
281
     0
 65
     1
110
0.0
120
0.0
130
0.0
111
1.0
121
0.0
131
0.0
112
0.0
122
1.0
132
0.0
 79
     0
146
0.0
 60
     3
 61
     5
292
     1
282
     1
141
0.0
142
0.0
 63
   250
361
3F
  0
ENDTAB
  0
TABLE
  2
LTYPE
  5
5
330
0
100
AcDbSymbolTable
 70
     1
  0
LTYPE
  5
14
330
5
100
AcDbSymbolTableRecord
100
AcDbLinetypeTableRecord
  2
ByBlock
 70
     0
  3

 72
    65
 73
     0
 40
0.0
  0
LTYPE
  5
15
330
5
100
AcDbSymbolTableRecord
100
AcDbLinetypeTableRecord
  2
ByLayer
 70
     0
  3

 72
    65
 73
     0
 40
0.0
  0
LTYPE
  5
16
330
5
100
AcDbSymbolTableRecord
100
AcDbLinetypeTableRecord
  2
Continuous
 70
     0
  3
Solid line
 72
    65
 73
     0
 40
0.0
  0
ENDTAB
  0
TABLE
  2
LAYER
  5
2
330
0
100
AcDbSymbolTable
 70
     4
  0
LAYER
  5
10
330
2
100
AcDbSymbolTableRecord
100
AcDbLayerTableRecord
  2
0
 70
     0
 62
     7
  6
Continuous
370
    -3
390
F
347
3E
  0
LAYER
  5
40
330
2
100
AcDbSymbolTableRecord
100
AcDbLayerTableRecord
  2
Layer 3
 70
     0
 62
     7
  6
Continuous
370
    -3
390
F
347
3E
  0
LAYER
  5
89
330
2
100
AcDbSymbolTableRecord
100
AcDbLayerTableRecord
  2
Score Lines
 70
     0
 62
     7
  6
Continuous
370
    -3
390
F
347
3E
  0
LAYER
  5
8E
330
2
100
AcDbSymbolTableRecord
100
AcDbLayerTableRecord
  2
Layer 4
 70
     0
 62
     7
  6
Continuous
370
    -3
390
F
347
3E
  0
ENDTAB
  0
TABLE
  2
STYLE
  5
3
330
0
100
AcDbSymbolTable
 70
     1
  0
STYLE
  5
11
330
3
100
AcDbSymbolTableRecord
100
AcDbTextStyleTableRecord
  2
Standard
 70
     0
 40
0.0
 41
1.0
 50
0.0
 71
     0
 42
0.2
  3
txt
  4

  0
ENDTAB
  0
TABLE
  2
VIEW
  5
6
330
0
100
AcDbSymbolTable
 70
     0
  0
ENDTAB
  0
TABLE
  2
UCS
  5
7
330
0
100
AcDbSymbolTable
 70
     0
  0
ENDTAB
  0
TABLE
  2
APPID
  5
9
330
0
100
AcDbSymbolTable
 70
     1
  0
APPID
  5
12
330
9
100
AcDbSymbolTableRecord
100
AcDbRegAppTableRecord
  2
ACAD
 70
     0
  0
ENDTAB
  0
TABLE
  2
DIMSTYLE
  5
A
330
0
100
AcDbSymbolTable
 70
     1
100
AcDbDimStyleTable
  0
DIMSTYLE
105
27
330
A
100
AcDbSymbolTableRecord
100
AcDbDimStyleTableRecord
  2
Standard
 70
     0
178
     0
340
11
  0
ENDTAB
  0
TABLE
  2
BLOCK_RECORD
  5
1
330
0
100
AcDbSymbolTable
 70
     4
  0
BLOCK_RECORD
  5
1F
330
1
100
AcDbSymbolTableRecord
100
AcDbBlockTableRecord
  2
*Model_Space
340
22
 70
     0
280
     1
281
     0
  0
BLOCK_RECORD
  5
1B
330
1
100
AcDbSymbolTableRecord
100
AcDbBlockTableRecord
  2
*Paper_Space
340
1E
 70
     0
280
     1
281
     0
  0
BLOCK_RECORD
  5
23
330
1
100
AcDbSymbolTableRecord
100
AcDbBlockTableRecord
  2
*Paper_Space0
340
26
 70
     0
280
     1
281
     0
  0
BLOCK_RECORD
  5
41
330
1
100
AcDbSymbolTableRecord
100
AcDbBlockTableRecord
  2
block 2
340
0
102
{BLKREFS
331
42
102
}
 70
     0
280
     1
281
     0
  0
BLOCK_RECORD
  5
46
330
1
100
AcDbSymbolTableRecord
100
AcDbBlockTableRecord
  2
block 3
340
0
102
{BLKREFS
331
47
102
}
 70
     0
280
     1
281
     0
  0
BLOCK_RECORD
  5
76
330
1
100
AcDbSymbolTableRecord
100
AcDbBlockTableRecord
  2
block 4
340
0
102
{BLKREFS
331
77
102
}
 70
     0
280
     1
281
     0
  0
ENDTAB
  0
ENDSEC
  0
SECTION
  2
BLOCKS
  0
BLOCK
  5
20
330
1F
100
AcDbEntity
  8
0
100
AcDbBlockBegin
  2
*Model_Space
 70
     0
 10
0.0
 20
0.0
 30
0.0
  3
*Model_Space
  1

  0
ENDBLK
  5
21
330
1F
100
AcDbEntity
  8
0
100
AcDbBlockEnd
  0
BLOCK
  5
1C
330
1B
100
AcDbEntity
 67
     1
  8
0
100
AcDbBlockBegin
  2
*Paper_Space
 70
     0
 10
0.0
 20
0.0
 30
0.0
  3
*Paper_Space
  1

  0
ENDBLK
  5
1D
330
1B
100
AcDbEntity
 67
     1
  8
0
100
AcDbBlockEnd
  0
BLOCK
  5
24
330
23
100
AcDbEntity
  8
0
100
AcDbBlockBegin
  2
*Paper_Space0
 70
     0
 10
0.0
 20
0.0
 30
0.0
  3
*Paper_Space0
  1

  0
ENDBLK
  5
25
330
23
100
AcDbEntity
  8
0
100
AcDbBlockEnd
  0
BLOCK
  5
43
330
41
100
AcDbEntity
  8
0
100
AcDbBlockBegin
  2
block 2
 70
     0
 10
0.0
 20
0.0
 30
0.0
  3
block 2
  1

  0
SPLINE
  5
45
330
41
100
AcDbEntity
  8
Layer 3
370
     0
100
AcDbSpline
210
0.0
220
0.0
230
1.0
 70
    11
 71
     3
 72
    20
 73
    16
 74
     0
 42
0.0000000001
 43
0.0000000001
 12
1.0
 22
0.0
 32
0.0
 13
1.0
 23
0.0
 33
0.0
 40
0.0
 40
0.0
 40
0.0
 40
0.0
 40
1.0
 40
1.0
 40
1.0
 40
2.0
 40
2.0
 40
2.0
 40
3.0
 40
3.0
 40
3.0
 40
4.0
 40
4.0
 40
4.0
 40
5.0
 40
5.0
 40
5.0
 40
5.0
 10
5.059425354003906
 20
-2.308994717068142
 30
0.0
 10
5.059425354003906
 20
-2.291294521755642
 30
0.0
 10
5.072263081868489
 20
-2.288181728786892
 30
0.0
 10
5.086274041069879
 20
-2.288181728786892
 30
0.0
 10
5.086274041069879
 20
-2.288181728786892
 30
0.0
 10
5.1100099351671
 20
-2.288181728786892
 30
0.0
 10
5.1100099351671
 20
-2.288181728786892
 30
0.0
 10
5.1100099351671
 20
-2.288181728786892
 30
0.0
 10
5.1100099351671
 20
-2.32981448703342
 30
0.0
 10
5.1100099351671
 20
-2.32981448703342
 30
0.0
 10
5.1100099351671
 20
-2.32981448703342
 30
0.0
 10
5.086274041069879
 20
-2.32981448703342
 30
0.0
 10
5.086274041069879
 20
-2.32981448703342
 30
0.0
 10
5.072263081868489
 20
-2.32981448703342
 30
0.0
 10
5.059425354003906
 20
-2.32670169406467
 30
0.0
 10
5.059425354003906
 20
-2.308994717068142
 30
0.0
  0
INSERT
  5
47
330
41
100
AcDbEntity
  8
Layer 3
100
AcDbBlockReference
  2
block 3
 10
0.0
 20
0.0
 30
0.0
  0
INSERT
  5
77
330
41
100
AcDbEntity
  8
Layer 3
100
AcDbBlockReference
  2
block 4
 10
0.0
 20
0.0
 30
0.0
  0
HATCH
  5
88
330
41
100
AcDbEntity
  8
Layer 3
 62
   179
420
  2301728
100
AcDbHatch
 10
0.0
 20
0.0
 30
0.0
210
0.0
220
0.0
230
1.0
  2
SOLID
 70
     1
 71
     0
 91
        7
 92
        1
 93
        1
 72
     4
 94
        3
 73
     0
 74
     1
 95
       20
 96
       16
 40
0.0
 40
0.0
 40
0.0
 40
0.0
 40
1.0
 40
1.0
 40
1.0
 40
2.0
 40
2.0
 40
2.0
 40
3.0
 40
3.0
 40
3.0
 40
4.0
 40
4.0
 40
4.0
 40
5.0
 40
5.0
 40
5.0
 40
5.0
 10
5.059425354003906
 20
-2.308994717068142
 10
5.059425354003906
 20
-2.291294521755642
 10
5.072263081868489
 20
-2.288181728786892
 10
5.086274041069879
 20
-2.288181728786892
 10
5.086274041069879
 20
-2.288181728786892
 10
5.1100099351671
 20
-2.288181728786892
 10
5.1100099351671
 20
-2.288181728786892
 10
5.1100099351671
 20
-2.288181728786892
 10
5.1100099351671
 20
-2.32981448703342
 10
5.1100099351671
 20
-2.32981448703342
 10
5.1100099351671
 20
-2.32981448703342
 10
5.086274041069879
 20
-2.32981448703342
 10
5.086274041069879
 20
-2.32981448703342
 10
5.072263081868489
 20
-2.32981448703342
 10
5.059425354003906
 20
-2.32670169406467
 10
5.059425354003906
 20
-2.308994717068142
 97
        0
 97
        0
 92
        1
 93
       10
 72
     1
 10
1.504796346028646
 20
-2.468860202365451
 11
1.315402560763889
 21
-2.468860202365451
 72
     1
 10
1.315402560763889
 20
-2.468860202365451
 11
1.315402560763889
 21
-2.315540737575955
 72
     1
 10
1.315402560763889
 20
-2.315540737575955
 11
1.404192606608073
 21
-2.315540737575955
 72
     1
 10
1.404192606608073
 20
-2.315540737575955
 11
1.404192606608073
 21
-2.19724867078993
 72
     1
 10
1.404192606608073
 20
-2.19724867078993
 11
1.504796346028646
 21
-2.19724867078993
 72
     1
 10
1.504796346028646
 20
-2.19724867078993
 11
1.504796346028646
 21
-2.099090576171875
 72
     1
 10
1.504796346028646
 20
-2.099090576171875
 11
5.554219563802083
 21
-2.099090576171875
 72
     1
 10
5.554219563802083
 20
-2.099090576171875
 11
5.554219563802083
 21
-2.468860202365451
 72
     1
 10
5.554219563802083
 20
-2.468860202365451
 11
1.531852722167969
 21
-2.468860202365451
 72
     1
 10
1.531852722167969
 20
-2.468860202365451
 11
1.504796346028646
 21
-2.468860202365451
 97
        0
 92
        1
 93
       12
 72
     1
 10
5.331431918674045
 20
-2.240513271755642
 11
5.409834967719184
 21
-2.240513271755642
 72
     1
 10
5.409834967719184
 20
-2.240513271755642
 11
5.409834967719184
 21
-2.270088195800781
 72
     1
 10
5.409834967719184
 20
-2.270088195800781
 11
5.346412658691406
 21
-2.270088195800781
 72
     1
 10
5.346412658691406
 20
-2.270088195800781
 11
5.346412658691406
 21
-2.297133551703559
 72
     1
 10
5.346412658691406
 20
-2.297133551703559
 11
5.409834967719184
 21
-2.297133551703559
 72
     1
 10
5.409834967719184
 20
-2.297133551703559
 11
5.409834967719184
 21
-2.328451368543837
 72
     1
 10
5.409834967719184
 20
-2.328451368543837
 11
5.338050842285156
 21
-2.328451368543837
 72
     1
 10
5.338050842285156
 20
-2.328451368543837
 11
5.338050842285156
 21
-2.354133605957031
 72
     1
 10
5.338050842285156
 20
-2.354133605957031
 11
5.439409891764322
 21
-2.354133605957031
 72
     1
 10
5.439409891764322
 20
-2.354133605957031
 11
5.439409891764322
 21
-2.214837816026475
 72
     1
 10
5.439409891764322
 20
-2.214837816026475
 11
5.331431918674045
 21
-2.214837816026475
 72
     1
 10
5.331431918674045
 20
-2.214837816026475
 11
5.331431918674045
 21
-2.240513271755642
 97
        0
 92
        1
 93
       12
 72
     1
 10
5.172564188639322
 20
-2.21464114718967
 11
5.221005757649739
 21
-2.287205166286892
 72
     1
 10
5.221005757649739
 20
-2.287205166286892
 11
5.176456875271267
 21
-2.353550381130642
 72
     1
 10
5.176456875271267
 20
-2.353550381130642
 11
5.209917704264322
 21
-2.353550381130642
 72
     1
 10
5.209917704264322
 20
-2.353550381130642
 11
5.238129509819879
 21
-2.309191385904948
 72
     1
 10
5.238129509819879
 20
-2.309191385904948
 11
5.265364752875434
 21
-2.353550381130642
 72
     1
 10
5.265364752875434
 20
-2.353550381130642
 11
5.300771925184462
 21
-2.353550381130642
 72
     1
 10
5.300771925184462
 20
-2.353550381130642
 11
5.256026373969184
 21
-2.287401835123698
 72
     1
 10
5.256026373969184
 20
-2.287401835123698
 11
5.304664611816406
 21
-2.21464114718967
 72
     1
 10
5.304664611816406
 20
-2.21464114718967
 11
5.27022722032335
 21
-2.21464114718967
 72
     1
 10
5.27022722032335
 20
-2.21464114718967
 11
5.238129509819879
 21
-2.262302822536892
 72
     1
 10
5.238129509819879
 20
-2.262302822536892
 11
5.20894792344835
 21
-2.21464114718967
 72
     1
 10
5.20894792344835
 20
-2.21464114718967
 11
5.172564188639322
 21
-2.21464114718967
 97
        0
 92
        1
 93
        1
 72
     4
 94
        3
 73
     0
 74
     1
 95
       26
 96
       22
 40
0.0
 40
0.0
 40
0.0
 40
0.0
 40
1.0
 40
1.0
 40
1.0
 40
2.0
 40
2.0
 40
2.0
 40
3.0
 40
3.0
 40
3.0
 40
4.0
 40
4.0
 40
4.0
 40
5.0
 40
5.0
 40
5.0
 40
6.0
 40
6.0
 40
6.0
 40
7.0
 40
7.0
 40
7.0
 40
7.0
 10
5.029850429958767
 20
-2.308994717068142
 10
5.029850429958767
 20
-2.331564161512587
 10
5.043081495496962
 20
-2.353550381130642
 10
5.0779054429796
 20
-2.353550381130642
 10
5.0779054429796
 20
-2.353550381130642
 10
5.140554640028212
 20
-2.353550381130642
 10
5.140554640028212
 20
-2.353550381130642
 10
5.140554640028212
 20
-2.353550381130642
 10
5.140554640028212
 20
-2.21464114718967
 10
5.140554640028212
 20
-2.21464114718967
 10
5.140554640028212
 20
-2.21464114718967
 10
5.1100099351671
 20
-2.21464114718967
 10
5.1100099351671
 20
-2.21464114718967
 10
5.1100099351671
 20
-2.21464114718967
 10
5.1100099351671
 20
-2.26444583468967
 10
5.1100099351671
 20
-2.26444583468967
 10
5.1100099351671
 20
-2.26444583468967
 10
5.0779054429796
 20
-2.26444583468967
 10
5.0779054429796
 20
-2.26444583468967
 10
5.043081495496962
 20
-2.26444583468967
 10
5.029850429958767
 20
-2.286432054307725
 10
5.029850429958767
 20
-2.308994717068142
 97
        0
 97
        0
 92
        1
 93
        4
 72
     1
 10
6.995027330186631
 20
0.0
 11
6.995027330186631
 21
-9.962276882595486
 72
     1
 10
6.995027330186631
 20
-9.962276882595486
 11
0.0
 21
-9.962276882595486
 72
     1
 10
0.0
 20
-9.962276882595486
 11
0.0
 21
0.0
 72
     1
 10
0.0
 20
0.0
 11
6.995027330186631
 21
0.0
 97
        0
 92
        1
 93
        4
 72
     1
 10
5.65342542860243
 20
-1.981847127278646
 11
1.225215488009983
 21
-1.981847127278646
 72
     1
 10
1.225215488009983
 20
-1.981847127278646
 11
1.225215488009983
 21
-2.568066067165799
 72
     1
 10
1.225215488009983
 20
-2.568066067165799
 11
5.65342542860243
 21
-2.568066067165799
 72
     1
 10
5.65342542860243
 20
-2.568066067165799
 11
5.65342542860243
 21
-1.981847127278646
 97
        0
 75
     2
 76
     1
 98
        0
  0
ENDBLK
  5
44
330
41
100
AcDbEntity
  8
0
100
AcDbBlockEnd
  0
BLOCK
  5
48
330
46
100
AcDbEntity
  8
0
100
AcDbBlockBegin
  2
block 3
 70
     0
 10
0.0
 20
0.0
 30
0.0
  3
block 3
  1

  0
POLYLINE
  5
4A
330
46
100
AcDbEntity
  8
Layer 3
370
     0
100
AcDb2dPolyline
 66
     1
 10
0.0
 20
0.0
 30
0.0
  0
VERTEX
  5
4B
330
4A
100
AcDbEntity
  8
Layer 3
370
     0
100
AcDbVertex
100
AcDb2dVertex
 10
1.504796346028646
 20
-2.468860202365451
 30
0.0
  0
VERTEX
  5
4C
330
4A
100
AcDbEntity
  8
Layer 3
370
     0
100
AcDbVertex
100
AcDb2dVertex
 10
1.315402560763889
 20
-2.468860202365451
 30
0.0
  0
VERTEX
  5
4D
330
4A
100
AcDbEntity
  8
Layer 3
370
     0
100
AcDbVertex
100
AcDb2dVertex
 10
1.315402560763889
 20
-2.315540737575955
 30
0.0
  0
VERTEX
  5
4E
330
4A
100
AcDbEntity
  8
Layer 3
370
     0
100
AcDbVertex
100
AcDb2dVertex
 10
1.404192606608073
 20
-2.315540737575955
 30
0.0
  0
VERTEX
  5
4F
330
4A
100
AcDbEntity
  8
Layer 3
370
     0
100
AcDbVertex
100
AcDb2dVertex
 10
1.404192606608073
 20
-2.19724867078993
 30
0.0
  0
VERTEX
  5
50
330
4A
100
AcDbEntity
  8
Layer 3
370
     0
100
AcDbVertex
100
AcDb2dVertex
 10
1.504796346028646
 20
-2.19724867078993
 30
0.0
  0
VERTEX
  5
51
330
4A
100
AcDbEntity
  8
Layer 3
370
     0
100
AcDbVertex
100
AcDb2dVertex
 10
1.504796346028646
 20
-2.099090576171875
 30
0.0
  0
VERTEX
  5
52
330
4A
100
AcDbEntity
  8
Layer 3
370
     0
100
AcDbVertex
100
AcDb2dVertex
 10
5.554219563802083
 20
-2.099090576171875
 30
0.0
  0
VERTEX
  5
53
330
4A
100
AcDbEntity
  8
Layer 3
370
     0
100
AcDbVertex
100
AcDb2dVertex
 10
5.554219563802083
 20
-2.468860202365451
 30
0.0
  0
VERTEX
  5
54
330
4A
100
AcDbEntity
  8
Layer 3
370
     0
100
AcDbVertex
100
AcDb2dVertex
 10
1.531852722167969
 20
-2.468860202365451
 30
0.0
  0
VERTEX
  5
55
330
4A
100
AcDbEntity
  8
Layer 3
370
     0
100
AcDbVertex
100
AcDb2dVertex
 10
1.504796346028646
 20
-2.468860202365451
 30
0.0
  0
SEQEND
  5
56
330
4A
100
AcDbEntity
  8
Layer 3
370
     0
  0
POLYLINE
  5
57
330
46
100
AcDbEntity
  8
Layer 3
370
     0
100
AcDb2dPolyline
 66
     1
 10
0.0
 20
0.0
 30
0.0
  0
VERTEX
  5
58
330
57
100
AcDbEntity
  8
Layer 3
370
     0
100
AcDbVertex
100
AcDb2dVertex
 10
5.331431918674045
 20
-2.240513271755642
 30
0.0
  0
VERTEX
  5
59
330
57
100
AcDbEntity
  8
Layer 3
370
     0
100
AcDbVertex
100
AcDb2dVertex
 10
5.409834967719184
 20
-2.240513271755642
 30
0.0
  0
VERTEX
  5
5A
330
57
100
AcDbEntity
  8
Layer 3
370
     0
100
AcDbVertex
100
AcDb2dVertex
 10
5.409834967719184
 20
-2.270088195800781
 30
0.0
  0
VERTEX
  5
5B
330
57
100
AcDbEntity
  8
Layer 3
370
     0
100
AcDbVertex
100
AcDb2dVertex
 10
5.346412658691406
 20
-2.270088195800781
 30
0.0
  0
VERTEX
  5
5C
330
57
100
AcDbEntity
  8
Layer 3
370
     0
100
AcDbVertex
100
AcDb2dVertex
 10
5.346412658691406
 20
-2.297133551703559
 30
0.0
  0
VERTEX
  5
5D
330
57
100
AcDbEntity
  8
Layer 3
370
     0
100
AcDbVertex
100
AcDb2dVertex
 10
5.409834967719184
 20
-2.297133551703559
 30
0.0
  0
VERTEX
  5
5E
330
57
100
AcDbEntity
  8
Layer 3
370
     0
100
AcDbVertex
100
AcDb2dVertex
 10
5.409834967719184
 20
-2.328451368543837
 30
0.0
  0
VERTEX
  5
5F
330
57
100
AcDbEntity
  8
Layer 3
370
     0
100
AcDbVertex
100
AcDb2dVertex
 10
5.338050842285156
 20
-2.328451368543837
 30
0.0
  0
VERTEX
  5
60
330
57
100
AcDbEntity
  8
Layer 3
370
     0
100
AcDbVertex
100
AcDb2dVertex
 10
5.338050842285156
 20
-2.354133605957031
 30
0.0
  0
VERTEX
  5
61
330
57
100
AcDbEntity
  8
Layer 3
370
     0
100
AcDbVertex
100
AcDb2dVertex
 10
5.439409891764322
 20
-2.354133605957031
 30
0.0
  0
VERTEX
  5
62
330
57
100
AcDbEntity
  8
Layer 3
370
     0
100
AcDbVertex
100
AcDb2dVertex
 10
5.439409891764322
 20
-2.214837816026475
 30
0.0
  0
VERTEX
  5
63
330
57
100
AcDbEntity
  8
Layer 3
370
     0
100
AcDbVertex
100
AcDb2dVertex
 10
5.331431918674045
 20
-2.214837816026475
 30
0.0
  0
VERTEX
  5
64
330
57
100
AcDbEntity
  8
Layer 3
370
     0
100
AcDbVertex
100
AcDb2dVertex
 10
5.331431918674045
 20
-2.240513271755642
 30
0.0
  0
SEQEND
  5
65
330
57
100
AcDbEntity
  8
Layer 3
370
     0
  0
POLYLINE
  5
66
330
46
100
AcDbEntity
  8
Layer 3
370
     0
100
AcDb2dPolyline
 66
     1
 10
0.0
 20
0.0
 30
0.0
  0
VERTEX
  5
67
330
66
100
AcDbEntity
  8
Layer 3
370
     0
100
AcDbVertex
100
AcDb2dVertex
 10
5.172564188639322
 20
-2.21464114718967
 30
0.0
  0
VERTEX
  5
68
330
66
100
AcDbEntity
  8
Layer 3
370
     0
100
AcDbVertex
100
AcDb2dVertex
 10
5.221005757649739
 20
-2.287205166286892
 30
0.0
  0
VERTEX
  5
69
330
66
100
AcDbEntity
  8
Layer 3
370
     0
100
AcDbVertex
100
AcDb2dVertex
 10
5.176456875271267
 20
-2.353550381130642
 30
0.0
  0
VERTEX
  5
6A
330
66
100
AcDbEntity
  8
Layer 3
370
     0
100
AcDbVertex
100
AcDb2dVertex
 10
5.209917704264322
 20
-2.353550381130642
 30
0.0
  0
VERTEX
  5
6B
330
66
100
AcDbEntity
  8
Layer 3
370
     0
100
AcDbVertex
100
AcDb2dVertex
 10
5.238129509819879
 20
-2.309191385904948
 30
0.0
  0
VERTEX
  5
6C
330
66
100
AcDbEntity
  8
Layer 3
370
     0
100
AcDbVertex
100
AcDb2dVertex
 10
5.265364752875434
 20
-2.353550381130642
 30
0.0
  0
VERTEX
  5
6D
330
66
100
AcDbEntity
  8
Layer 3
370
     0
100
AcDbVertex
100
AcDb2dVertex
 10
5.300771925184462
 20
-2.353550381130642
 30
0.0
  0
VERTEX
  5
6E
330
66
100
AcDbEntity
  8
Layer 3
370
     0
100
AcDbVertex
100
AcDb2dVertex
 10
5.256026373969184
 20
-2.287401835123698
 30
0.0
  0
VERTEX
  5
6F
330
66
100
AcDbEntity
  8
Layer 3
370
     0
100
AcDbVertex
100
AcDb2dVertex
 10
5.304664611816406
 20
-2.21464114718967
 30
0.0
  0
VERTEX
  5
70
330
66
100
AcDbEntity
  8
Layer 3
370
     0
100
AcDbVertex
100
AcDb2dVertex
 10
5.27022722032335
 20
-2.21464114718967
 30
0.0
  0
VERTEX
  5
71
330
66
100
AcDbEntity
  8
Layer 3
370
     0
100
AcDbVertex
100
AcDb2dVertex
 10
5.238129509819879
 20
-2.262302822536892
 30
0.0
  0
VERTEX
  5
72
330
66
100
AcDbEntity
  8
Layer 3
370
     0
100
AcDbVertex
100
AcDb2dVertex
 10
5.20894792344835
 20
-2.21464114718967
 30
0.0
  0
VERTEX
  5
73
330
66
100
AcDbEntity
  8
Layer 3
370
     0
100
AcDbVertex
100
AcDb2dVertex
 10
5.172564188639322
 20
-2.21464114718967
 30
0.0
  0
SEQEND
  5
74
330
66
100
AcDbEntity
  8
Layer 3
370
     0
  0
SPLINE
  5
75
330
46
100
AcDbEntity
  8
Layer 3
370
     0
100
AcDbSpline
210
0.0
220
0.0
230
1.0
 70
    11
 71
     3
 72
    26
 73
    22
 74
     0
 42
0.0000000001
 43
0.0000000001
 12
1.0
 22
0.0
 32
0.0
 13
1.0
 23
0.0
 33
0.0
 40
0.0
 40
0.0
 40
0.0
 40
0.0
 40
1.0
 40
1.0
 40
1.0
 40
2.0
 40
2.0
 40
2.0
 40
3.0
 40
3.0
 40
3.0
 40
4.0
 40
4.0
 40
4.0
 40
5.0
 40
5.0
 40
5.0
 40
6.0
 40
6.0
 40
6.0
 40
7.0
 40
7.0
 40
7.0
 40
7.0
 10
5.029850429958767
 20
-2.308994717068142
 30
0.0
 10
5.029850429958767
 20
-2.331564161512587
 30
0.0
 10
5.043081495496962
 20
-2.353550381130642
 30
0.0
 10
5.0779054429796
 20
-2.353550381130642
 30
0.0
 10
5.0779054429796
 20
-2.353550381130642
 30
0.0
 10
5.140554640028212
 20
-2.353550381130642
 30
0.0
 10
5.140554640028212
 20
-2.353550381130642
 30
0.0
 10
5.140554640028212
 20
-2.353550381130642
 30
0.0
 10
5.140554640028212
 20
-2.21464114718967
 30
0.0
 10
5.140554640028212
 20
-2.21464114718967
 30
0.0
 10
5.140554640028212
 20
-2.21464114718967
 30
0.0
 10
5.1100099351671
 20
-2.21464114718967
 30
0.0
 10
5.1100099351671
 20
-2.21464114718967
 30
0.0
 10
5.1100099351671
 20
-2.21464114718967
 30
0.0
 10
5.1100099351671
 20
-2.26444583468967
 30
0.0
 10
5.1100099351671
 20
-2.26444583468967
 30
0.0
 10
5.1100099351671
 20
-2.26444583468967
 30
0.0
 10
5.0779054429796
 20
-2.26444583468967
 30
0.0
 10
5.0779054429796
 20
-2.26444583468967
 30
0.0
 10
5.043081495496962
 20
-2.26444583468967
 30
0.0
 10
5.029850429958767
 20
-2.286432054307725
 30
0.0
 10
5.029850429958767
 20
-2.308994717068142
 30
0.0
  0
ENDBLK
  5
49
330
46
100
AcDbEntity
  8
0
100
AcDbBlockEnd
  0
BLOCK
  5
78
330
76
100
AcDbEntity
  8
0
100
AcDbBlockBegin
  2
block 4
 70
     0
 10
0.0
 20
0.0
 30
0.0
  3
block 4
  1

  0
POLYLINE
  5
7A
330
76
100
AcDbEntity
  8
Layer 3
370
     0
100
AcDb2dPolyline
 66
     1
 10
0.0
 20
0.0
 30
0.0
  0
VERTEX
  5
7B
330
7A
100
AcDbEntity
  8
Layer 3
370
     0
100
AcDbVertex
100
AcDb2dVertex
 10
6.995027330186631
 20
0.0
 30
0.0
  0
VERTEX
  5
7C
330
7A
100
AcDbEntity
  8
Layer 3
370
     0
100
AcDbVertex
100
AcDb2dVertex
 10
6.995027330186631
 20
-9.962276882595486
 30
0.0
  0
VERTEX
  5
7D
330
7A
100
AcDbEntity
  8
Layer 3
370
     0
100
AcDbVertex
100
AcDb2dVertex
 10
0.0
 20
-9.962276882595486
 30
0.0
  0
VERTEX
  5
7E
330
7A
100
AcDbEntity
  8
Layer 3
370
     0
100
AcDbVertex
100
AcDb2dVertex
 10
0.0
 20
0.0
 30
0.0
  0
VERTEX
  5
7F
330
7A
100
AcDbEntity
  8
Layer 3
370
     0
100
AcDbVertex
100
AcDb2dVertex
 10
6.995027330186631
 20
0.0
 30
0.0
  0
SEQEND
  5
80
330
7A
100
AcDbEntity
  8
Layer 3
370
     0
  0
POLYLINE
  5
81
330
76
100
AcDbEntity
  8
Layer 3
370
     0
100
AcDb2dPolyline
 66
     1
 10
0.0
 20
0.0
 30
0.0
  0
VERTEX
  5
82
330
81
100
AcDbEntity
  8
Layer 3
370
     0
100
AcDbVertex
100
AcDb2dVertex
 10
5.65342542860243
 20
-1.981847127278646
 30
0.0
  0
VERTEX
  5
83
330
81
100
AcDbEntity
  8
Layer 3
370
     0
100
AcDbVertex
100
AcDb2dVertex
 10
1.225215488009983
 20
-1.981847127278646
 30
0.0
  0
VERTEX
  5
84
330
81
100
AcDbEntity
  8
Layer 3
370
     0
100
AcDbVertex
100
AcDb2dVertex
 10
1.225215488009983
 20
-2.568066067165799
 30
0.0
  0
VERTEX
  5
85
330
81
100
AcDbEntity
  8
Layer 3
370
     0
100
AcDbVertex
100
AcDb2dVertex
 10
5.65342542860243
 20
-2.568066067165799
 30
0.0
  0
VERTEX
  5
86
330
81
100
AcDbEntity
  8
Layer 3
370
     0
100
AcDbVertex
100
AcDb2dVertex
 10
5.65342542860243
 20
-1.981847127278646
 30
0.0
  0
SEQEND
  5
87
330
81
100
AcDbEntity
  8
Layer 3
370
     0
  0
ENDBLK
  5
79
330
76
100
AcDbEntity
  8
0
100
AcDbBlockEnd
  0
ENDSEC
  0
SECTION
  2
ENTITIES
  0
INSERT
  5
42
330
1F
100
AcDbEntity
  8
Layer 3
100
AcDbBlockReference
  2
block 2
 10
0.0
 20
0.0
 30
0.0
  0
POLYLINE
  5
8A
330
1F
100
AcDbEntity
  8
Score Lines
 62
   179
420
  2301728
370
    35
100
AcDb2dPolyline
 66
     1
 10
0.0
 20
0.0
 30
0.0
  0
VERTEX
  5
8B
330
8A
100
AcDbEntity
  8
Score Lines
 62
   179
420
  2301728
370
    35
100
AcDbVertex
100
AcDb2dVertex
 10
-0.0294441292938043
 20
-4.98302160763842
 30
0.0
  0
VERTEX
  5
8C
330
8A
100
AcDbEntity
  8
Score Lines
 62
   179
420
  2301728
370
    35
100
AcDbVertex
100
AcDb2dVertex
 10
7.030741055891389
 20
-4.98302160763842
 30
0.0
  0
SEQEND
  5
8D
330
8A
100
AcDbEntity
  8
Score Lines
 62
   179
420
  2301728
370
    35
  0
POLYLINE
  5
8F
330
1F
100
AcDbEntity
  8
Layer 4
370
     0
100
AcDb2dPolyline
 66
     1
 10
0.0
 20
0.0
 30
0.0
  0
VERTEX
  5
90
330
8F
100
AcDbEntity
  8
Layer 4
370
     0
100
AcDbVertex
100
AcDb2dVertex
 10
0.2400283813476562
 20
-5.232193840874566
 30
0.0
  0
VERTEX
  5
91
330
8F
100
AcDbEntity
  8
Layer 4
370
     0
100
AcDbVertex
100
AcDb2dVertex
 10
0.2400283813476562
 20
-9.754985385470919
 30
0.0
  0
VERTEX
  5
92
330
8F
100
AcDbEntity
  8
Layer 4
370
     0
100
AcDbVertex
100
AcDb2dVertex
 10
6.748218960232204
 20
-9.754985385470919
 30
0.0
  0
VERTEX
  5
93
330
8F
100
AcDbEntity
  8
Layer 4
370
     0
100
AcDbVertex
100
AcDb2dVertex
 10
6.748218960232204
 20
-5.232193840874566
 30
0.0
  0
VERTEX
  5
94
330
8F
100
AcDbEntity
  8
Layer 4
370
     0
100
AcDbVertex
100
AcDb2dVertex
 10
0.2400283813476562
 20
-5.232193840874566
 30
0.0
  0
SEQEND
  5
95
330
8F
100
AcDbEntity
  8
Layer 4
370
     0
  0
POLYLINE
  5
96
330
1F
100
AcDbEntity
  8
Layer 4
370
     0
100
AcDb2dPolyline
 66
     1
 10
0.0
 20
0.0
 30
0.0
  0
VERTEX
  5
97
330
96
100
AcDbEntity
  8
Layer 4
370
     0
100
AcDbVertex
100
AcDb2dVertex
 10
1.839911566840278
 20
-7.384290907118055
 30
0.0
  0
VERTEX
  5
98
330
96
100
AcDbEntity
  8
Layer 4
370
     0
100
AcDbVertex
100
AcDb2dVertex
 10
0.9732801649305555
 20
-7.384290907118055
 30
0.0
  0
VERTEX
  5
99
330
96
100
AcDbEntity
  8
Layer 4
370
     0
100
AcDbVertex
100
AcDb2dVertex
 10
0.9732801649305555
 20
-6.197672526041666
 30
0.0
  0
VERTEX
  5
9A
330
96
100
AcDbEntity
  8
Layer 4
370
     0
100
AcDbVertex
100
AcDb2dVertex
 10
1.229939778645833
 20
-6.197672526041666
 30
0.0
  0
VERTEX
  5
9B
330
96
100
AcDbEntity
  8
Layer 4
370
     0
100
AcDbVertex
100
AcDb2dVertex
 10
1.229939778645833
 20
-7.164293077256944
 30
0.0
  0
VERTEX
  5
9C
330
96
100
AcDbEntity
  8
Layer 4
370
     0
100
AcDbVertex
100
AcDb2dVertex
 10
1.839911566840278
 20
-7.164293077256944
 30
0.0
  0
VERTEX
  5
9D
330
96
100
AcDbEntity
  8
Layer 4
370
     0
100
AcDbVertex
100
AcDb2dVertex
 10
1.839911566840278
 20
-7.384290907118055
 30
0.0
  0
SEQEND
  5
9E
330
96
100
AcDbEntity
  8
Layer 4
370
     0
  0
POLYLINE
  5
9F
330
1F
100
AcDbEntity
  8
Layer 4
370
     0
100
AcDb2dPolyline
 66
     1
 10
0.0
 20
0.0
 30
0.0
  0
VERTEX
  5
A0
330
9F
100
AcDbEntity
  8
Layer 4
370
     0
100
AcDbVertex
100
AcDb2dVertex
 10
1.956590440538194
 20
-6.197672526041666
 30
0.0
  0
VERTEX
  5
A1
330
9F
100
AcDbEntity
  8
Layer 4
370
     0
100
AcDbVertex
100
AcDb2dVertex
 10
2.82489013671875
 20
-6.197672526041666
 30
0.0
  0
VERTEX
  5
A2
330
9F
100
AcDbEntity
  8
Layer 4
370
     0
100
AcDbVertex
100
AcDb2dVertex
 10
2.82489013671875
 20
-6.417656792534721
 30
0.0
  0
VERTEX
  5
A3
330
9F
100
AcDbEntity
  8
Layer 4
370
     0
100
AcDbVertex
100
AcDb2dVertex
 10
2.209913465711805
 20
-6.417656792534721
 30
0.0
  0
VERTEX
  5
A4
330
9F
100
AcDbEntity
  8
Layer 4
370
     0
100
AcDbVertex
100
AcDb2dVertex
 10
2.209913465711805
 20
-6.685980902777778
 30
0.0
  0
VERTEX
  5
A5
330
9F
100
AcDbEntity
  8
Layer 4
370
     0
100
AcDbVertex
100
AcDb2dVertex
 10
2.753228081597222
 20
-6.685980902777778
 30
0.0
  0
VERTEX
  5
A6
330
9F
100
AcDbEntity
  8
Layer 4
370
     0
100
AcDbVertex
100
AcDb2dVertex
 10
2.753228081597222
 20
-6.917643229166666
 30
0.0
  0
VERTEX
  5
A7
330
9F
100
AcDbEntity
  8
Layer 4
370
     0
100
AcDbVertex
100
AcDb2dVertex
 10
2.209913465711805
 20
-6.917643229166666
 30
0.0
  0
VERTEX
  5
A8
330
9F
100
AcDbEntity
  8
Layer 4
370
     0
100
AcDbVertex
100
AcDb2dVertex
 10
2.209913465711805
 20
-7.170966254340278
 30
0.0
  0
VERTEX
  5
A9
330
9F
100
AcDbEntity
  8
Layer 4
370
     0
100
AcDbVertex
100
AcDb2dVertex
 10
2.881551106770833
 20
-7.170966254340278
 30
0.0
  0
VERTEX
  5
AA
330
9F
100
AcDbEntity
  8
Layer 4
370
     0
100
AcDbVertex
100
AcDb2dVertex
 10
2.881551106770833
 20
-7.390950520833333
 30
0.0
  0
VERTEX
  5
AB
330
9F
100
AcDbEntity
  8
Layer 4
370
     0
100
AcDbVertex
100
AcDb2dVertex
 10
1.956590440538194
 20
-7.390950520833333
 30
0.0
  0
VERTEX
  5
AC
330
9F
100
AcDbEntity
  8
Layer 4
370
     0
100
AcDbVertex
100
AcDb2dVertex
 10
1.956590440538194
 20
-6.197672526041666
 30
0.0
  0
SEQEND
  5
AD
330
9F
100
AcDbEntity
  8
Layer 4
370
     0
  0
SPLINE
  5
AE
330
1F
100
AcDbEntity
  8
Layer 4
370
     0
100
AcDbSpline
210
0.0
220
0.0
230
1.0
 70
    11
 71
     3
 72
    35
 73
    31
 74
     0
 42
0.0000000001
 43
0.0000000001
 12
1.0
 22
0.0
 32
0.0
 13
1.0
 23
0.0
 33
0.0
 40
0.0
 40
0.0
 40
0.0
 40
0.0
 40
1.0
 40
1.0
 40
1.0
 40
2.0
 40
2.0
 40
2.0
 40
3.0
 40
3.0
 40
3.0
 40
4.0
 40
4.0
 40
4.0
 40
5.0
 40
5.0
 40
5.0
 40
6.0
 40
6.0
 40
6.0
 40
7.0
 40
7.0
 40
7.0
 40
8.0
 40
8.0
 40
8.0
 40
9.0
 40
9.0
 40
9.0
 40
10.0
 40
10.0
 40
10.0
 40
10.0
 10
3.273347303271294
 20
-8.331529405381945
 30
0.0
 10
3.273347303271294
 20
-8.653184678819445
 30
0.0
 10
3.083358425233099
 20
-8.80984157986111
 30
0.0
 10
2.765032958653238
 20
-8.80984157986111
 30
0.0
 10
2.443384466899766
 20
-8.80984157986111
 30
0.0
 10
2.258386908306016
 20
-8.656507703993055
 30
0.0
 10
2.258386908306016
 20
-8.331529405381945
 30
0.0
 10
2.258386908306016
 20
-8.331529405381945
 30
0.0
 10
2.258386908306016
 20
-7.591552734375
 30
0.0
 10
2.258386908306016
 20
-7.591552734375
 30
0.0
 10
2.258386908306016
 20
-7.591552734375
 30
0.0
 10
2.520044623149766
 20
-7.591552734375
 30
0.0
 10
2.520044623149766
 20
-7.591552734375
 30
0.0
 10
2.520044623149766
 20
-7.591552734375
 30
0.0
 10
2.520044623149766
 20
-8.331529405381945
 30
0.0
 10
2.520044623149766
 20
-8.331529405381945
 30
0.0
 10
2.520044623149766
 20
-8.46152072482639
 30
0.0
 10
2.553376600146294
 20
-8.58984375
 30
0.0
 10
2.765032958653238
 20
-8.58984375
 30
0.0
 10
2.951692029833794
 20
-8.58984375
 30
0.0
 10
3.011696370111571
 20
-8.509847005208332
 30
0.0
 10
3.011696370111571
 20
-8.331529405381945
 30
0.0
 10
3.011696370111571
 20
-8.331529405381945
 30
0.0
 10
3.011696370111571
 20
-7.591552734375
 30
0.0
 10
3.011696370111571
 20
-7.591552734375
 30
0.0
 10
3.011696370111571
 20
-7.591552734375
 30
0.0
 10
3.273347303271294
 20
-7.591552734375
 30
0.0
 10
3.273347303271294
 20
-7.591552734375
 30
0.0
 10
3.273347303271294
 20
-7.591552734375
 30
0.0
 10
3.273347303271294
 20
-8.331529405381945
 30
0.0
 10
3.273347303271294
 20
-8.331529405381945
 30
0.0
  0
POLYLINE
  5
AF
330
1F
100
AcDbEntity
  8
Layer 4
370
     0
100
AcDb2dPolyline
 66
     1
 10
0.0
 20
0.0
 30
0.0
  0
VERTEX
  5
B0
330
AF
100
AcDbEntity
  8
Layer 4
370
     0
100
AcDbVertex
100
AcDb2dVertex
 10
3.328233506944444
 20
-7.392618815104166
 30
0.0
  0
VERTEX
  5
B1
330
AF
100
AcDbEntity
  8
Layer 4
370
     0
100
AcDbVertex
100
AcDb2dVertex
 10
2.941582573784722
 20
-6.202663845486111
 30
0.0
  0
VERTEX
  5
B2
330
AF
100
AcDbEntity
  8
Layer 4
370
     0
100
AcDbVertex
100
AcDb2dVertex
 10
3.211574978298611
 20
-6.202663845486111
 30
0.0
  0
VERTEX
  5
B3
330
AF
100
AcDbEntity
  8
Layer 4
370
     0
100
AcDbVertex
100
AcDb2dVertex
 10
3.4765625
 20
-7.039306640625
 30
0.0
  0
VERTEX
  5
B4
330
AF
100
AcDbEntity
  8
Layer 4
370
     0
100
AcDbVertex
100
AcDb2dVertex
 10
3.479892306857639
 20
-7.039306640625
 30
0.0
  0
VERTEX
  5
B5
330
AF
100
AcDbEntity
  8
Layer 4
370
     0
100
AcDbVertex
100
AcDb2dVertex
 10
3.748216417100694
 20
-6.202663845486111
 30
0.0
  0
VERTEX
  5
B6
330
AF
100
AcDbEntity
  8
Layer 4
370
     0
100
AcDbVertex
100
AcDb2dVertex
 10
4.018202039930555
 20
-6.202663845486111
 30
0.0
  0
VERTEX
  5
B7
330
AF
100
AcDbEntity
  8
Layer 4
370
     0
100
AcDbVertex
100
AcDb2dVertex
 10
3.623223198784722
 20
-7.392618815104166
 30
0.0
  0
VERTEX
  5
B8
330
AF
100
AcDbEntity
  8
Layer 4
370
     0
100
AcDbVertex
100
AcDb2dVertex
 10
3.328233506944444
 20
-7.392618815104166
 30
0.0
  0
SEQEND
  5
B9
330
AF
100
AcDbEntity
  8
Layer 4
370
     0
  0
SPLINE
  5
BA
330
1F
100
AcDbEntity
  8
Layer 4
370
     0
100
AcDbSpline
210
0.0
220
0.0
230
1.0
 70
    11
 71
     3
 72
    41
 73
    37
 74
     0
 42
0.0000000001
 43
0.0000000001
 12
1.0
 22
0.0
 32
0.0
 13
1.0
 23
0.0
 33
0.0
 40
0.0
 40
0.0
 40
0.0
 40
0.0
 40
1.0
 40
1.0
 40
1.0
 40
2.0
 40
2.0
 40
2.0
 40
3.0
 40
3.0
 40
3.0
 40
4.0
 40
4.0
 40
4.0
 40
5.0
 40
5.0
 40
5.0
 40
6.0
 40
6.0
 40
6.0
 40
7.0
 40
7.0
 40
7.0
 40
8.0
 40
8.0
 40
8.0
 40
9.0
 40
9.0
 40
9.0
 40
10.0
 40
10.0
 40
10.0
 40
11.0
 40
11.0
 40
11.0
 40
12.0
 40
12.0
 40
12.0
 40
12.0
 10
4.031695556309488
 20
-8.3548583984375
 30
0.0
 10
4.031695556309488
 20
-8.3548583984375
 30
0.0
 10
3.923765055007404
 20
-8.3548583984375
 30
0.0
 10
3.923765055007404
 20
-8.3548583984375
 30
0.0
 10
3.923765055007404
 20
-8.3548583984375
 30
0.0
 10
3.923765055007404
 20
-8.151529947916666
 30
0.0
 10
3.923765055007404
 20
-8.151529947916666
 30
0.0
 10
3.923765055007404
 20
-8.151529947916666
 30
0.0
 10
3.96003350118796
 20
-8.151529947916666
 30
0.0
 10
3.96003350118796
 20
-8.151529947916666
 30
0.0
 10
4.08002861837546
 20
-8.151529947916666
 30
0.0
 10
4.190027533306016
 20
-8.124864366319445
 30
0.0
 10
4.190027533306016
 20
-7.973212348090278
 30
0.0
 10
4.190027533306016
 20
-7.821546766493055
 30
0.0
 10
4.08002861837546
 20
-7.794881184895833
 30
0.0
 10
3.96003350118796
 20
-7.794881184895833
 30
0.0
 10
3.96003350118796
 20
-7.794881184895833
 30
0.0
 10
3.756705050667127
 20
-7.794881184895833
 30
0.0
 10
3.756705050667127
 20
-7.794881184895833
 30
0.0
 10
3.756705050667127
 20
-7.794881184895833
 30
0.0
 10
3.756705050667127
 20
-8.781507703993055
 30
0.0
 10
3.756705050667127
 20
-8.781507703993055
 30
0.0
 10
3.756705050667127
 20
-8.781507703993055
 30
0.0
 10
3.495054117507404
 20
-8.781507703993055
 30
0.0
 10
3.495054117507404
 20
-8.781507703993055
 30
0.0
 10
3.495054117507404
 20
-8.781507703993055
 30
0.0
 10
3.495054117507404
 20
-7.591552734375
 30
0.0
 10
3.495054117507404
 20
-7.591552734375
 30
0.0
 10
3.495054117507404
 20
-7.591552734375
 30
0.0
 10
4.031695556309488
 20
-7.591552734375
 30
0.0
 10
4.031695556309488
 20
-7.591552734375
 30
0.0
 10
4.330015055007404
 20
-7.591552734375
 30
0.0
 10
4.443350558479627
 20
-7.779880099826388
 30
0.0
 10
4.443350558479627
 20
-7.973212348090278
 30
0.0
 10
4.443350558479627
 20
-8.16653103298611
 30
0.0
 10
4.330015055007404
 20
-8.3548583984375
 30
0.0
 10
4.031695556309488
 20
-8.3548583984375
 30
0.0
  0
SPLINE
  5
BB
330
1F
100
AcDbEntity
  8
Layer 4
370
     0
100
AcDbSpline
210
0.0
220
0.0
230
1.0
 70
    11
 71
     3
 72
    17
 73
    13
 74
     0
 42
0.0000000001
 43
0.0000000001
 12
1.0
 22
0.0
 32
0.0
 13
1.0
 23
0.0
 33
0.0
 40
0.0
 40
0.0
 40
0.0
 40
0.0
 40
1.0
 40
1.0
 40
1.0
 40
2.0
 40
2.0
 40
2.0
 40
3.0
 40
3.0
 40
3.0
 40
4.0
 40
4.0
 40
4.0
 40
4.0
 10
4.87241805555555
 20
-8.784677293565538
 30
0.0
 10
4.817285507541227
 20
-8.784677293565538
 30
0.0
 10
4.758691666666664
 20
-8.739983452690971
 30
0.0
 10
4.758691666666664
 20
-8.684850904676649
 30
0.0
 10
4.758691666666664
 20
-8.629718356662327
 30
0.0
 10
4.817285507541227
 20
-8.58502451578776
 30
0.0
 10
4.87241805555555
 20
-8.58502451578776
 30
0.0
 10
4.927550603569872
 20
-8.58502451578776
 30
0.0
 10
4.986144444444435
 20
-8.629718356662327
 30
0.0
 10
4.986144444444435
 20
-8.684850904676649
 30
0.0
 10
4.986144444444435
 20
-8.739983452690971
 30
0.0
 10
4.927550603569872
 20
-8.784677293565538
 30
0.0
 10
4.87241805555555
 20
-8.784677293565538
 30
0.0
  0
POLYLINE
  5
BC
330
1F
100
AcDbEntity
  8
Layer 4
370
     0
100
AcDb2dPolyline
 66
     1
 10
0.0
 20
0.0
 30
0.0
  0
VERTEX
  5
BD
330
BC
100
AcDbEntity
  8
Layer 4
370
     0
100
AcDbVertex
100
AcDb2dVertex
 10
4.751736111111111
 20
-8.526285807291666
 30
0.0
  0
VERTEX
  5
BE
330
BC
100
AcDbEntity
  8
Layer 4
370
     0
100
AcDbVertex
100
AcDb2dVertex
 10
4.751736111111111
 20
-7.586805555555555
 30
0.0
  0
VERTEX
  5
BF
330
BC
100
AcDbEntity
  8
Layer 4
370
     0
100
AcDbVertex
100
AcDb2dVertex
 10
4.994836111111125
 20
-7.586805555555555
 30
0.0
  0
VERTEX
  5
C0
330
BC
100
AcDbEntity
  8
Layer 4
370
     0
100
AcDbVertex
100
AcDb2dVertex
 10
4.994836111111125
 20
-8.526285807291666
 30
0.0
  0
VERTEX
  5
C1
330
BC
100
AcDbEntity
  8
Layer 4
370
     0
100
AcDbVertex
100
AcDb2dVertex
 10
4.751736111111111
 20
-8.526285807291666
 30
0.0
  0
SEQEND
  5
C2
330
BC
100
AcDbEntity
  8
Layer 4
370
     0
  0
POLYLINE
  5
C3
330
1F
100
AcDbEntity
  8
Layer 4
370
     0
100
AcDb2dPolyline
 66
     1
 10
0.0
 20
0.0
 30
0.0
  0
VERTEX
  5
C4
330
C3
100
AcDbEntity
  8
Layer 4
370
     0
100
AcDbVertex
100
AcDb2dVertex
 10
5.013197157118055
 20
-7.390950520833333
 30
0.0
  0
VERTEX
  5
C5
330
C3
100
AcDbEntity
  8
Layer 4
370
     0
100
AcDbVertex
100
AcDb2dVertex
 10
4.088236490885416
 20
-7.390950520833333
 30
0.0
  0
VERTEX
  5
C6
330
C3
100
AcDbEntity
  8
Layer 4
370
     0
100
AcDbVertex
100
AcDb2dVertex
 10
4.088236490885416
 20
-6.197672526041666
 30
0.0
  0
VERTEX
  5
C7
330
C3
100
AcDbEntity
  8
Layer 4
370
     0
100
AcDbVertex
100
AcDb2dVertex
 10
4.956529405381944
 20
-6.197672526041666
 30
0.0
  0
VERTEX
  5
C8
330
C3
100
AcDbEntity
  8
Layer 4
370
     0
100
AcDbVertex
100
AcDb2dVertex
 10
4.956529405381944
 20
-6.417656792534721
 30
0.0
  0
VERTEX
  5
C9
330
C3
100
AcDbEntity
  8
Layer 4
370
     0
100
AcDbVertex
100
AcDb2dVertex
 10
4.341566297743055
 20
-6.417656792534721
 30
0.0
  0
VERTEX
  5
CA
330
C3
100
AcDbEntity
  8
Layer 4
370
     0
100
AcDbVertex
100
AcDb2dVertex
 10
4.341566297743055
 20
-6.685980902777778
 30
0.0
  0
VERTEX
  5
CB
330
C3
100
AcDbEntity
  8
Layer 4
370
     0
100
AcDbVertex
100
AcDb2dVertex
 10
4.884874131944444
 20
-6.685980902777778
 30
0.0
  0
VERTEX
  5
CC
330
C3
100
AcDbEntity
  8
Layer 4
370
     0
100
AcDbVertex
100
AcDb2dVertex
 10
4.884874131944444
 20
-6.917643229166666
 30
0.0
  0
VERTEX
  5
CD
330
C3
100
AcDbEntity
  8
Layer 4
370
     0
100
AcDbVertex
100
AcDb2dVertex
 10
4.341566297743055
 20
-6.917643229166666
 30
0.0
  0
VERTEX
  5
CE
330
C3
100
AcDbEntity
  8
Layer 4
370
     0
100
AcDbVertex
100
AcDb2dVertex
 10
4.341566297743055
 20
-7.170966254340278
 30
0.0
  0
VERTEX
  5
CF
330
C3
100
AcDbEntity
  8
Layer 4
370
     0
100
AcDbVertex
100
AcDb2dVertex
 10
5.013197157118055
 20
-7.170966254340278
 30
0.0
  0
VERTEX
  5
D0
330
C3
100
AcDbEntity
  8
Layer 4
370
     0
100
AcDbVertex
100
AcDb2dVertex
 10
5.013197157118055
 20
-7.390950520833333
 30
0.0
  0
SEQEND
  5
D1
330
C3
100
AcDbEntity
  8
Layer 4
370
     0
  0
POLYLINE
  5
D2
330
1F
100
AcDbEntity
  8
Layer 4
370
     0
100
AcDb2dPolyline
 66
     1
 10
0.0
 20
0.0
 30
0.0
  0
VERTEX
  5
D3
330
D2
100
AcDbEntity
  8
Layer 4
370
     0
100
AcDbVertex
100
AcDb2dVertex
 10
6.043185763888888
 20
-7.384290907118055
 30
0.0
  0
VERTEX
  5
D4
330
D2
100
AcDbEntity
  8
Layer 4
370
     0
100
AcDbVertex
100
AcDb2dVertex
 10
5.176554361979166
 20
-7.384290907118055
 30
0.0
  0
VERTEX
  5
D5
330
D2
100
AcDbEntity
  8
Layer 4
370
     0
100
AcDbVertex
100
AcDb2dVertex
 10
5.176554361979166
 20
-6.197672526041666
 30
0.0
  0
VERTEX
  5
D6
330
D2
100
AcDbEntity
  8
Layer 4
370
     0
100
AcDbVertex
100
AcDb2dVertex
 10
5.433213975694444
 20
-6.197672526041666
 30
0.0
  0
VERTEX
  5
D7
330
D2
100
AcDbEntity
  8
Layer 4
370
     0
100
AcDbVertex
100
AcDb2dVertex
 10
5.433213975694444
 20
-7.164293077256944
 30
0.0
  0
VERTEX
  5
D8
330
D2
100
AcDbEntity
  8
Layer 4
370
     0
100
AcDbVertex
100
AcDb2dVertex
 10
6.043185763888888
 20
-7.164293077256944
 30
0.0
  0
VERTEX
  5
D9
330
D2
100
AcDbEntity
  8
Layer 4
370
     0
100
AcDbVertex
100
AcDb2dVertex
 10
6.043185763888888
 20
-7.384290907118055
 30
0.0
  0
SEQEND
  5
DA
330
D2
100
AcDbEntity
  8
Layer 4
370
     0
  0
HATCH
  5
DB
330
1F
100
AcDbEntity
  8
Layer 4
 62
   240
420
 15539236
100
AcDbHatch
 10
0.0
 20
0.0
 30
0.0
210
0.0
220
0.0
230
1.0
  2
SOLID
 70
     1
 71
     0
 91
       10
 92
        1
 93
        4
 72
     1
 10
0.2400283813476562
 20
-5.232193840874566
 11
0.2400283813476562
 21
-9.754985385470919
 72
     1
 10
0.2400283813476562
 20
-9.754985385470919
 11
6.748218960232204
 21
-9.754985385470919
 72
     1
 10
6.748218960232204
 20
-9.754985385470919
 11
6.748218960232204
 21
-5.232193840874566
 72
     1
 10
6.748218960232204
 20
-5.232193840874566
 11
0.2400283813476562
 21
-5.232193840874566
 97
        0
 92
        1
 93
        6
 72
     1
 10
1.839911566840278
 20
-7.384290907118055
 11
0.9732801649305555
 21
-7.384290907118055
 72
     1
 10
0.9732801649305555
 20
-7.384290907118055
 11
0.9732801649305555
 21
-6.197672526041666
 72
     1
 10
0.9732801649305555
 20
-6.197672526041666
 11
1.229939778645833
 21
-6.197672526041666
 72
     1
 10
1.229939778645833
 20
-6.197672526041666
 11
1.229939778645833
 21
-7.164293077256944
 72
     1
 10
1.229939778645833
 20
-7.164293077256944
 11
1.839911566840278
 21
-7.164293077256944
 72
     1
 10
1.839911566840278
 20
-7.164293077256944
 11
1.839911566840278
 21
-7.384290907118055
 97
        0
 92
        1
 93
       12
 72
     1
 10
1.956590440538194
 20
-6.197672526041666
 11
2.82489013671875
 21
-6.197672526041666
 72
     1
 10
2.82489013671875
 20
-6.197672526041666
 11
2.82489013671875
 21
-6.417656792534721
 72
     1
 10
2.82489013671875
 20
-6.417656792534721
 11
2.209913465711805
 21
-6.417656792534721
 72
     1
 10
2.209913465711805
 20
-6.417656792534721
 11
2.209913465711805
 21
-6.685980902777778
 72
     1
 10
2.209913465711805
 20
-6.685980902777778
 11
2.753228081597222
 21
-6.685980902777778
 72
     1
 10
2.753228081597222
 20
-6.685980902777778
 11
2.753228081597222
 21
-6.917643229166666
 72
     1
 10
2.753228081597222
 20
-6.917643229166666
 11
2.209913465711805
 21
-6.917643229166666
 72
     1
 10
2.209913465711805
 20
-6.917643229166666
 11
2.209913465711805
 21
-7.170966254340278
 72
     1
 10
2.209913465711805
 20
-7.170966254340278
 11
2.881551106770833
 21
-7.170966254340278
 72
     1
 10
2.881551106770833
 20
-7.170966254340278
 11
2.881551106770833
 21
-7.390950520833333
 72
     1
 10
2.881551106770833
 20
-7.390950520833333
 11
1.956590440538194
 21
-7.390950520833333
 72
     1
 10
1.956590440538194
 20
-7.390950520833333
 11
1.956590440538194
 21
-6.197672526041666
 97
        0
 92
        1
 93
        1
 72
     4
 94
        3
 73
     0
 74
     1
 95
       35
 96
       31
 40
0.0
 40
0.0
 40
0.0
 40
0.0
 40
1.0
 40
1.0
 40
1.0
 40
2.0
 40
2.0
 40
2.0
 40
3.0
 40
3.0
 40
3.0
 40
4.0
 40
4.0
 40
4.0
 40
5.0
 40
5.0
 40
5.0
 40
6.0
 40
6.0
 40
6.0
 40
7.0
 40
7.0
 40
7.0
 40
8.0
 40
8.0
 40
8.0
 40
9.0
 40
9.0
 40
9.0
 40
10.0
 40
10.0
 40
10.0
 40
10.0
 10
3.273347303271294
 20
-8.331529405381945
 10
3.273347303271294
 20
-8.653184678819445
 10
3.083358425233099
 20
-8.80984157986111
 10
2.765032958653238
 20
-8.80984157986111
 10
2.443384466899766
 20
-8.80984157986111
 10
2.258386908306016
 20
-8.656507703993055
 10
2.258386908306016
 20
-8.331529405381945
 10
2.258386908306016
 20
-8.331529405381945
 10
2.258386908306016
 20
-7.591552734375
 10
2.258386908306016
 20
-7.591552734375
 10
2.258386908306016
 20
-7.591552734375
 10
2.520044623149766
 20
-7.591552734375
 10
2.520044623149766
 20
-7.591552734375
 10
2.520044623149766
 20
-7.591552734375
 10
2.520044623149766
 20
-8.331529405381945
 10
2.520044623149766
 20
-8.331529405381945
 10
2.520044623149766
 20
-8.46152072482639
 10
2.553376600146294
 20
-8.58984375
 10
2.765032958653238
 20
-8.58984375
 10
2.951692029833794
 20
-8.58984375
 10
3.011696370111571
 20
-8.509847005208332
 10
3.011696370111571
 20
-8.331529405381945
 10
3.011696370111571
 20
-8.331529405381945
 10
3.011696370111571
 20
-7.591552734375
 10
3.011696370111571
 20
-7.591552734375
 10
3.011696370111571
 20
-7.591552734375
 10
3.273347303271294
 20
-7.591552734375
 10
3.273347303271294
 20
-7.591552734375
 10
3.273347303271294
 20
-7.591552734375
 10
3.273347303271294
 20
-8.331529405381945
 10
3.273347303271294
 20
-8.331529405381945
 97
        0
 97
        0
 92
        1
 93
        8
 72
     1
 10
3.328233506944444
 20
-7.392618815104166
 11
2.941582573784722
 21
-6.202663845486111
 72
     1
 10
2.941582573784722
 20
-6.202663845486111
 11
3.211574978298611
 21
-6.202663845486111
 72
     1
 10
3.211574978298611
 20
-6.202663845486111
 11
3.4765625
 21
-7.039306640625
 72
     1
 10
3.4765625
 20
-7.039306640625
 11
3.479892306857639
 21
-7.039306640625
 72
     1
 10
3.479892306857639
 20
-7.039306640625
 11
3.748216417100694
 21
-6.202663845486111
 72
     1
 10
3.748216417100694
 20
-6.202663845486111
 11
4.018202039930555
 21
-6.202663845486111
 72
     1
 10
4.018202039930555
 20
-6.202663845486111
 11
3.623223198784722
 21
-7.392618815104166
 72
     1
 10
3.623223198784722
 20
-7.392618815104166
 11
3.328233506944444
 21
-7.392618815104166
 97
        0
 92
        1
 93
        1
 72
     4
 94
        3
 73
     0
 74
     1
 95
       41
 96
       37
 40
0.0
 40
0.0
 40
0.0
 40
0.0
 40
1.0
 40
1.0
 40
1.0
 40
2.0
 40
2.0
 40
2.0
 40
3.0
 40
3.0
 40
3.0
 40
4.0
 40
4.0
 40
4.0
 40
5.0
 40
5.0
 40
5.0
 40
6.0
 40
6.0
 40
6.0
 40
7.0
 40
7.0
 40
7.0
 40
8.0
 40
8.0
 40
8.0
 40
9.0
 40
9.0
 40
9.0
 40
10.0
 40
10.0
 40
10.0
 40
11.0
 40
11.0
 40
11.0
 40
12.0
 40
12.0
 40
12.0
 40
12.0
 10
4.031695556309488
 20
-8.3548583984375
 10
4.031695556309488
 20
-8.3548583984375
 10
3.923765055007404
 20
-8.3548583984375
 10
3.923765055007404
 20
-8.3548583984375
 10
3.923765055007404
 20
-8.3548583984375
 10
3.923765055007404
 20
-8.151529947916666
 10
3.923765055007404
 20
-8.151529947916666
 10
3.923765055007404
 20
-8.151529947916666
 10
3.96003350118796
 20
-8.151529947916666
 10
3.96003350118796
 20
-8.151529947916666
 10
4.08002861837546
 20
-8.151529947916666
 10
4.190027533306016
 20
-8.124864366319445
 10
4.190027533306016
 20
-7.973212348090278
 10
4.190027533306016
 20
-7.821546766493055
 10
4.08002861837546
 20
-7.794881184895833
 10
3.96003350118796
 20
-7.794881184895833
 10
3.96003350118796
 20
-7.794881184895833
 10
3.756705050667127
 20
-7.794881184895833
 10
3.756705050667127
 20
-7.794881184895833
 10
3.756705050667127
 20
-7.794881184895833
 10
3.756705050667127
 20
-8.781507703993055
 10
3.756705050667127
 20
-8.781507703993055
 10
3.756705050667127
 20
-8.781507703993055
 10
3.495054117507404
 20
-8.781507703993055
 10
3.495054117507404
 20
-8.781507703993055
 10
3.495054117507404
 20
-8.781507703993055
 10
3.495054117507404
 20
-7.591552734375
 10
3.495054117507404
 20
-7.591552734375
 10
3.495054117507404
 20
-7.591552734375
 10
4.031695556309488
 20
-7.591552734375
 10
4.031695556309488
 20
-7.591552734375
 10
4.330015055007404
 20
-7.591552734375
 10
4.443350558479627
 20
-7.779880099826388
 10
4.443350558479627
 20
-7.973212348090278
 10
4.443350558479627
 20
-8.16653103298611
 10
4.330015055007404
 20
-8.3548583984375
 10
4.031695556309488
 20
-8.3548583984375
 97
        0
 97
        0
 92
        1
 93
        1
 72
     4
 94
        3
 73
     0
 74
     1
 95
       17
 96
       13
 40
0.0
 40
0.0
 40
0.0
 40
0.0
 40
1.0
 40
1.0
 40
1.0
 40
2.0
 40
2.0
 40
2.0
 40
3.0
 40
3.0
 40
3.0
 40
4.0
 40
4.0
 40
4.0
 40
4.0
 10
4.87241805555555
 20
-8.784677293565538
 10
4.817285507541227
 20
-8.784677293565538
 10
4.758691666666664
 20
-8.739983452690971
 10
4.758691666666664
 20
-8.684850904676649
 10
4.758691666666664
 20
-8.629718356662327
 10
4.817285507541227
 20
-8.58502451578776
 10
4.87241805555555
 20
-8.58502451578776
 10
4.927550603569872
 20
-8.58502451578776
 10
4.986144444444435
 20
-8.629718356662327
 10
4.986144444444435
 20
-8.684850904676649
 10
4.986144444444435
 20
-8.739983452690971
 10
4.927550603569872
 20
-8.784677293565538
 10
4.87241805555555
 20
-8.784677293565538
 97
        0
 97
        0
 92
        1
 93
        4
 72
     1
 10
4.751736111111111
 20
-8.526285807291666
 11
4.751736111111111
 21
-7.586805555555555
 72
     1
 10
4.751736111111111
 20
-7.586805555555555
 11
4.994836111111125
 21
-7.586805555555555
 72
     1
 10
4.994836111111125
 20
-7.586805555555555
 11
4.994836111111125
 21
-8.526285807291666
 72
     1
 10
4.994836111111125
 20
-8.526285807291666
 11
4.751736111111111
 21
-8.526285807291666
 97
        0
 92
        1
 93
       12
 72
     1
 10
5.013197157118055
 20
-7.390950520833333
 11
4.088236490885416
 21
-7.390950520833333
 72
     1
 10
4.088236490885416
 20
-7.390950520833333
 11
4.088236490885416
 21
-6.197672526041666
 72
     1
 10
4.088236490885416
 20
-6.197672526041666
 11
4.956529405381944
 21
-6.197672526041666
 72
     1
 10
4.956529405381944
 20
-6.197672526041666
 11
4.956529405381944
 21
-6.417656792534721
 72
     1
 10
4.956529405381944
 20
-6.417656792534721
 11
4.341566297743055
 21
-6.417656792534721
 72
     1
 10
4.341566297743055
 20
-6.417656792534721
 11
4.341566297743055
 21
-6.685980902777778
 72
     1
 10
4.341566297743055
 20
-6.685980902777778
 11
4.884874131944444
 21
-6.685980902777778
 72
     1
 10
4.884874131944444
 20
-6.685980902777778
 11
4.884874131944444
 21
-6.917643229166666
 72
     1
 10
4.884874131944444
 20
-6.917643229166666
 11
4.341566297743055
 21
-6.917643229166666
 72
     1
 10
4.341566297743055
 20
-6.917643229166666
 11
4.341566297743055
 21
-7.170966254340278
 72
     1
 10
4.341566297743055
 20
-7.170966254340278
 11
5.013197157118055
 21
-7.170966254340278
 72
     1
 10
5.013197157118055
 20
-7.170966254340278
 11
5.013197157118055
 21
-7.390950520833333
 97
        0
 92
        1
 93
        6
 72
     1
 10
6.043185763888888
 20
-7.384290907118055
 11
5.176554361979166
 21
-7.384290907118055
 72
     1
 10
5.176554361979166
 20
-7.384290907118055
 11
5.176554361979166
 21
-6.197672526041666
 72
     1
 10
5.176554361979166
 20
-6.197672526041666
 11
5.433213975694444
 21
-6.197672526041666
 72
     1
 10
5.433213975694444
 20
-6.197672526041666
 11
5.433213975694444
 21
-7.164293077256944
 72
     1
 10
5.433213975694444
 20
-7.164293077256944
 11
6.043185763888888
 21
-7.164293077256944
 72
     1
 10
6.043185763888888
 20
-7.164293077256944
 11
6.043185763888888
 21
-7.384290907118055
 97
        0
 75
     2
 76
     1
 98
        0
  0
POLYLINE
  5
DC
330
1F
100
AcDbEntity
  8
Layer 4
370
     0
100
AcDb2dPolyline
 66
     1
 10
0.0
 20
0.0
 30
0.0
  0
VERTEX
  5
DD
330
DC
100
AcDbEntity
  8
Layer 4
370
     0
100
AcDbVertex
100
AcDb2dVertex
 10
0.6670096035029852
 20
-3.50707130945596
 30
0.0
  0
VERTEX
  5
DE
330
DC
100
AcDbEntity
  8
Layer 4
370
     0
100
AcDbVertex
100
AcDb2dVertex
 10
1.421467765368549
 20
-3.50707130945596
 30
0.0
  0
SEQEND
  5
DF
330
DC
100
AcDbEntity
  8
Layer 4
370
     0
  0
POLYLINE
  5
E0
330
1F
100
AcDbEntity
  8
Layer 4
370
     0
100
AcDb2dPolyline
 66
     1
 10
0.0
 20
0.0
 30
0.0
  0
VERTEX
  5
E1
330
E0
100
AcDbEntity
  8
Layer 4
370
     0
100
AcDbVertex
100
AcDb2dVertex
 10
5.500442938529077
 20
-3.491493453418608
 30
0.0
  0
VERTEX
  5
E2
330
E0
100
AcDbEntity
  8
Layer 4
370
     0
100
AcDbVertex
100
AcDb2dVertex
 10
6.254901100394666
 20
-3.491493453418608
 30
0.0
  0
SEQEND
  5
E3
330
E0
100
AcDbEntity
  8
Layer 4
370
     0
  0
POLYLINE
  5
E4
330
1F
100
AcDbEntity
  8
Layer 4
370
     0
100
AcDb2dPolyline
 66
     1
 10
0.0
 20
0.0
 30
0.0
  0
VERTEX
  5
E5
330
E4
100
AcDbEntity
  8
Layer 4
370
     0
100
AcDbVertex
100
AcDb2dVertex
 10
5.203975170970706
 20
-1.050135522917306
 30
0.0
  0
VERTEX
  5
E6
330
E4
100
AcDbEntity
  8
Layer 4
370
     0
100
AcDbVertex
100
AcDb2dVertex
 10
5.86248285479481
 20
-1.050135522917306
 30
0.0
  0
SEQEND
  5
E7
330
E4
100
AcDbEntity
  8
Layer 4
370
     0
  0
POLYLINE
  5
E8
330
1F
100
AcDbEntity
  8
Layer 4
370
     0
100
AcDb2dPolyline
 66
     1
 10
0.0
 20
0.0
 30
0.0
  0
VERTEX
  5
E9
330
E8
100
AcDbEntity
  8
Layer 4
370
     0
100
AcDbVertex
100
AcDb2dVertex
 10
0.9798667928782581
 20
-1.036074972651464
 30
0.0
  0
VERTEX
  5
EA
330
E8
100
AcDbEntity
  8
Layer 4
370
     0
100
AcDbVertex
100
AcDb2dVertex
 10
1.638374476702375
 20
-1.036074972651464
 30
0.0
  0
SEQEND
  5
EB
330
E8
100
AcDbEntity
  8
Layer 4
370
     0
  0
POLYLINE
  5
EC
330
1F
100
AcDbEntity
  8
Layer 4
370
     0
100
AcDb2dPolyline
 66
     1
 10
0.0
 20
0.0
 30
0.0
  0
VERTEX
  5
ED
330
EC
100
AcDbEntity
  8
Layer 4
370
     0
100
AcDbVertex
100
AcDb2dVertex
 10
6.748219373219373
 20
-4.760327635327649
 30
0.0
  0
VERTEX
  5
EE
330
EC
100
AcDbEntity
  8
Layer 4
370
     0
100
AcDbVertex
100
AcDb2dVertex
 10
0.2489316239316268
 20
-4.760327635327649
 30
0.0
  0
VERTEX
  5
EF
330
EC
100
AcDbEntity
  8
Layer 4
370
     0
100
AcDbVertex
100
AcDb2dVertex
 10
0.2489316239316268
 20
-0.2375356125356171
 30
0.0
  0
VERTEX
  5
F0
330
EC
100
AcDbEntity
  8
Layer 4
370
     0
100
AcDbVertex
100
AcDb2dVertex
 10
6.748219373219373
 20
-0.2375356125356171
 30
0.0
  0
VERTEX
  5
F1
330
EC
100
AcDbEntity
  8
Layer 4
370
     0
100
AcDbVertex
100
AcDb2dVertex
 10
6.748219373219373
 20
-4.760327635327649
 30
0.0
  0
SEQEND
  5
F2
330
EC
100
AcDbEntity
  8
Layer 4
370
     0
  0
HATCH
  5
F3
330
1F
100
AcDbEntity
  8
Layer 4
 62
   240
420
 15539236
100
AcDbHatch
 10
0.0
 20
0.0
 30
0.0
210
0.0
220
0.0
230
1.0
  2
SOLID
 70
     1
 71
     0
 91
        1
 92
        1
 93
        4
 72
     1
 10
6.748219373219373
 20
-4.760327635327649
 11
0.248931623931627
 21
-4.760327635327649
 72
     1
 10
0.2489316239316268
 20
-4.760327635327649
 11
0.2489316239316268
 21
-0.2375356125356172
 72
     1
 10
0.2489316239316268
 20
-0.2375356125356171
 11
6.748219373219373
 21
-0.2375356125356171
 72
     1
 10
6.748219373219373
 20
-0.2375356125356171
 11
6.748219373219373
 21
-4.760327635327649
 97
        0
 75
     2
 76
     1
 98
        0
  0
ENDSEC
  0
SECTION
  2
OBJECTS
  0
DICTIONARY
  5
C
330
0
100
AcDbDictionary
281
     1
  3
ACAD_GROUP
350
D
  3
ACAD_LAYOUT
350
1A
  3
ACAD_MATERIAL
350
3B
  3
ACAD_MLEADERSTYLE
350
F5
  3
ACAD_MLINESTYLE
350
17
  3
ACAD_PLOTSETTINGS
350
19
  3
ACAD_PLOTSTYLENAME
350
E
  3
ACAD_TABLESTYLE
350
F4
  3
ACAD_VISUALSTYLE
350
2A
  0
SUN
  5
3F
330
29
100
AcDbSun
 90
        1
290
     0
 63
     7
421
 16777215
 40
1.0
291
     1
 91
  2455826
 92
 54000000
292
     0
 70
     2
 71
   256
280
     1
  0
DICTIONARY
  5
D
102
{ACAD_REACTORS
330
C
102
}
330
C
100
AcDbDictionary
281
     1
  0
DICTIONARY
  5
1A
102
{ACAD_REACTORS
330
C
102
}
330
C
100
AcDbDictionary
281
     1
  3
Layout1
350
1E
  3
Layout2
350
26
  3
Model
350
22
  0
DICTIONARY
  5
3B
102
{ACAD_REACTORS
330
C
102
}
330
C
100
AcDbDictionary
281
     1
  3
ByBlock
350
3D
  3
ByLayer
350
3C
  3
Global
350
3E
  0
DICTIONARY
  5
F5
102
{ACAD_REACTORS
330
C
102
}
330
C
100
AcDbDictionary
281
     1
  0
DICTIONARY
  5
17
102
{ACAD_REACTORS
330
C
102
}
330
C
100
AcDbDictionary
281
     1
  3
Standard
350
18
  0
DICTIONARY
  5
19
102
{ACAD_REACTORS
330
C
102
}
330
C
100
AcDbDictionary
281
     1
  0
ACDBDICTIONARYWDFLT
  5
E
102
{ACAD_REACTORS
330
C
102
}
330
C
100
AcDbDictionary
281
     1
  3
Normal
350
F
100
AcDbDictionaryWithDefault
340
F
  0
DICTIONARY
  5
F4
102
{ACAD_REACTORS
330
C
102
}
330
C
100
AcDbDictionary
281
     1
  0
DICTIONARY
  5
2A
102
{ACAD_REACTORS
330
C
102
}
330
C
100
AcDbDictionary
281
     1
  3
2dWireframe
350
2F
  3
3D Hidden
350
31
  3
3dWireframe
350
30
  3
Basic
350
32
  3
Brighten
350
36
  3
ColorChange
350
3A
  3
Conceptual
350
34
  3
Dim
350
35
  3
Facepattern
350
39
  3
Flat
350
2B
  3
FlatWithEdges
350
2C
  3
Gouraud
350
2D
  3
GouraudWithEdges
350
2E
  3
Linepattern
350
38
  3
Realistic
350
33
  3
Thicken
350
37
  0
LAYOUT
  5
1E
102
{ACAD_REACTORS
330
1A
102
}
330
1A
100
AcDbPlotSettings
  1

  2
none_device
  4

  6

 40
0.0
 41
0.0
 42
0.0
 43
0.0
 44
0.0
 45
0.0
 46
0.0
 47
0.0
 48
0.0
 49
0.0
140
0.0
141
0.0
142
1.0
143
1.0
 70
   688
 72
     0
 73
     0
 74
     5
  7

 75
    16
 76
     0
 77
     2
 78
   300
147
1.0
148
0.0
149
0.0
100
AcDbLayout
  1
Layout1
 70
     1
 71
     1
 10
0.0
 20
0.0
 11
12.0
 21
9.0
 12
0.0
 22
0.0
 32
0.0
 14
1.000000000000000E+20
 24
1.000000000000000E+20
 34
1.000000000000000E+20
 15
-1.000000000000000E+20
 25
-1.000000000000000E+20
 35
-1.000000000000000E+20
146
0.0
 13
0.0
 23
0.0
 33
0.0
 16
1.0
 26
0.0
 36
0.0
 17
0.0
 27
1.0
 37
0.0
 76
     0
330
1B
  0
LAYOUT
  5
26
102
{ACAD_REACTORS
330
1A
102
}
330
1A
100
AcDbPlotSettings
  1

  2
none_device
  4

  6

 40
0.0
 41
0.0
 42
0.0
 43
0.0
 44
0.0
 45
0.0
 46
0.0
 47
0.0
 48
0.0
 49
0.0
140
0.0
141
0.0
142
1.0
143
1.0
 70
   688
 72
     0
 73
     0
 74
     5
  7

 75
    16
 76
     0
 77
     2
 78
   300
147
1.0
148
0.0
149
0.0
100
AcDbLayout
  1
Layout2
 70
     1
 71
     2
 10
0.0
 20
0.0
 11
0.0
 21
0.0
 12
0.0
 22
0.0
 32
0.0
 14
0.0
 24
0.0
 34
0.0
 15
0.0
 25
0.0
 35
0.0
146
0.0
 13
0.0
 23
0.0
 33
0.0
 16
1.0
 26
0.0
 36
0.0
 17
0.0
 27
1.0
 37
0.0
 76
     0
330
23
  0
LAYOUT
  5
22
102
{ACAD_REACTORS
330
1A
102
}
330
1A
100
AcDbPlotSettings
  1

  2
none_device
  4

  6

 40
0.0
 41
0.0
 42
0.0
 43
0.0
 44
0.0
 45
0.0
 46
0.0
 47
0.0
 48
0.0
 49
0.0
140
0.0
141
0.0
142
1.0
143
1.0
 70
  1712
 72
     0
 73
     0
 74
     0
  7

 75
     0
 76
     0
 77
     2
 78
   300
147
1.0
148
0.0
149
0.0
100
AcDbLayout
  1
Model
 70
     1
 71
     0
 10
0.0
 20
0.0
 11
12.0
 21
9.0
 12
0.0
 22
0.0
 32
0.0
 14
1.000000000000000E+20
 24
1.000000000000000E+20
 34
1.000000000000000E+20
 15
-1.000000000000000E+20
 25
-1.000000000000000E+20
 35
-1.000000000000000E+20
146
0.0
 13
0.0
 23
0.0
 33
0.0
 16
1.0
 26
0.0
 36
0.0
 17
0.0
 27
1.0
 37
0.0
 76
     0
330
1F
331
29
  0
MATERIAL
  5
3D
102
{ACAD_REACTORS
330
3B
102
}
330
3B
100
AcDbMaterial
  1
ByBlock
 72
     1
 94
      127
  0
MATERIAL
  5
3C
102
{ACAD_REACTORS
330
3B
102
}
330
3B
100
AcDbMaterial
  1
ByLayer
 72
     1
 94
      127
  0
MATERIAL
  5
3E
102
{ACAD_REACTORS
330
3B
102
}
330
3B
100
AcDbMaterial
  1
Global
 72
     1
 94
      127
  0
MLINESTYLE
  5
18
102
{ACAD_REACTORS
330
17
102
}
330
17
100
AcDbMlineStyle
  2
Standard
 70
     0
  3

 62
   256
 51
90.0
 52
90.0
 71
     2
 49
0.5
 62
   256
  6
BYLAYER
 49
-0.5
 62
   256
  6
BYLAYER
  0
ACDBPLACEHOLDER
  5
F
102
{ACAD_REACTORS
330
E
102
}
330
E
  0
VISUALSTYLE
  5
2F
102
{ACAD_REACTORS
330
2A
102
}
330
2A
100
AcDbVisualStyle
  2
2dWireframe
 70
     4
177
     2
291
     0
 71
     0
176
     1
 72
     2
176
     1
 73
     0
176
     1
 90
        0
176
     1
 40
-0.6
176
     1
 41
-30.0
176
     1
 62
     5
 63
     7
421
 16777215
176
     1
 74
     1
176
     1
 91
        4
176
     1
 64
     7
176
     1
 65
   257
176
     1
 75
     1
176
     1
175
     1
176
     1
 42
1.0
176
     1
 92
        0
176
     1
 66
   257
176
     1
 43
1.0
176
     1
 76
     1
176
     1
 77
     6
176
     1
 78
     2
176
     1
 67
     7
176
     1
 79
     5
176
     1
170
     0
176
     1
171
     0
176
     1
290
     0
176
     1
 93
        1
176
     1
 44
0.0
176
     1
173
     0
176
     1
  0
VISUALSTYLE
  5
31
102
{ACAD_REACTORS
330
2A
102
}
330
2A
100
AcDbVisualStyle
  2
3D Hidden
 70
     6
177
     2
291
     0
 71
     1
176
     1
 72
     2
176
     1
 73
     2
176
     1
 90
        0
176
     1
 40
-0.6
176
     1
 41
-30.0
176
     1
 62
     5
 63
     7
421
 16777215
176
     1
 74
     2
176
     1
 91
        2
176
     1
 64
     7
176
     1
 65
   257
176
     1
 75
     2
176
     1
175
     1
176
     1
 42
40.0
176
     1
 92
        0
176
     1
 66
   257
176
     1
 43
1.0
176
     1
 76
     1
176
     1
 77
     6
176
     1
 78
     2
176
     1
 67
     7
176
     1
 79
     3
176
     1
170
     0
176
     1
171
     0
176
     1
290
     0
176
     1
 93
        1
176
     1
 44
0.0
176
     1
173
     0
176
     1
  0
VISUALSTYLE
  5
30
102
{ACAD_REACTORS
330
2A
102
}
330
2A
100
AcDbVisualStyle
  2
3dWireframe
 70
     5
177
     2
291
     0
 71
     0
176
     1
 72
     2
176
     1
 73
     0
176
     1
 90
        0
176
     1
 40
-0.6
176
     1
 41
-30.0
176
     1
 62
     5
 63
     7
421
 16777215
176
     1
 74
     1
176
     1
 91
        4
176
     1
 64
     7
176
     1
 65
   257
176
     1
 75
     1
176
     1
175
     1
176
     1
 42
1.0
176
     1
 92
        0
176
     1
 66
   257
176
     1
 43
1.0
176
     1
 76
     1
176
     1
 77
     6
176
     1
 78
     2
176
     1
 67
     7
176
     1
 79
     5
176
     1
170
     0
176
     1
171
     0
176
     1
290
     0
176
     1
 93
        1
176
     1
 44
0.0
176
     1
173
     0
176
     1
  0
VISUALSTYLE
  5
32
102
{ACAD_REACTORS
330
2A
102
}
330
2A
100
AcDbVisualStyle
  2
Basic
 70
     7
177
     2
291
     1
 71
     1
176
     1
 72
     0
176
     1
 73
     1
176
     1
 90
        0
176
     1
 40
-0.6
176
     1
 41
-30.0
176
     1
 62
     5
 63
     7
421
 16777215
176
     1
 74
     0
176
     1
 91
        4
176
     1
 64
     7
176
     1
 65
   257
176
     1
 75
     1
176
     1
175
     1
176
     1
 42
1.0
176
     1
 92
        8
176
     1
 66
     7
176
     1
 43
1.0
176
     1
 76
     1
176
     1
 77
     6
176
     1
 78
     2
176
     1
 67
     7
176
     1
 79
     5
176
     1
170
     0
176
     1
171
     0
176
     1
290
     0
176
     1
 93
        1
176
     1
 44
0.0
176
     1
173
     0
176
     1
  0
VISUALSTYLE
  5
36
102
{ACAD_REACTORS
330
2A
102
}
330
2A
100
AcDbVisualStyle
  2
Brighten
 70
    12
177
     2
291
     1
 71
     2
176
     1
 72
     2
176
     1
 73
     0
176
     1
 90
        0
176
     1
 40
-0.6
176
     1
 41
-30.0
176
     1
 62
     5
 63
     7
421
 16777215
176
     1
 74
     1
176
     1
 91
        4
176
     1
 64
     7
176
     1
 65
   257
176
     1
 75
     1
176
     1
175
     1
176
     1
 42
1.0
176
     1
 92
        8
176
     1
 66
     7
176
     1
 43
1.0
176
     1
 76
     1
176
     1
 77
     6
176
     1
 78
     2
176
     1
 67
     7
176
     1
 79
     5
176
     1
170
     0
176
     1
171
     0
176
     1
290
     0
176
     1
 93
        1
176
     1
 44
50.0
176
     1
173
     0
176
     1
  0
VISUALSTYLE
  5
3A
102
{ACAD_REACTORS
330
2A
102
}
330
2A
100
AcDbVisualStyle
  2
ColorChange
 70
    16
177
     2
291
     1
 71
     2
176
     1
 72
     2
176
     1
 73
     3
176
     1
 90
        0
176
     1
 40
-0.6
176
     1
 41
-30.0
176
     1
 62
     5
 63
     8
421
  8421504
176
     1
 74
     1
176
     1
 91
        4
176
     1
 64
     7
176
     1
 65
   257
176
     1
 75
     1
176
     1
175
     1
176
     1
 42
1.0
176
     1
 92
        8
176
     1
 66
     8
424
  8421504
176
     1
 43
1.0
176
     1
 76
     1
176
     1
 77
     6
176
     1
 78
     2
176
     1
 67
     7
176
     1
 79
     5
176
     1
170
     0
176
     1
171
     0
176
     1
290
     0
176
     1
 93
        1
176
     1
 44
0.0
176
     1
173
     0
176
     1
  0
VISUALSTYLE
  5
34
102
{ACAD_REACTORS
330
2A
102
}
330
2A
100
AcDbVisualStyle
  2
Conceptual
 70
     9
177
     2
291
     0
 71
     3
176
     1
 72
     2
176
     1
 73
     0
176
     1
 90
        0
176
     1
 40
-0.6
176
     1
 41
-30.0
176
     1
 62
     5
 63
     7
421
 16777215
176
     1
 74
     2
176
     1
 91
        2
176
     1
 64
     7
176
     1
 65
   257
176
     1
 75
     1
176
     1
175
     1
176
     1
 42
40.0
176
     1
 92
        8
176
     1
 66
     7
176
     1
 43
1.0
176
     1
 76
     1
176
     1
 77
     6
176
     1
 78
     2
176
     1
 67
     7
176
     1
 79
     3
176
     1
170
     0
176
     1
171
     0
176
     1
290
     0
176
     1
 93
        1
176
     1
 44
0.0
176
     1
173
     0
176
     1
  0
VISUALSTYLE
  5
35
102
{ACAD_REACTORS
330
2A
102
}
330
2A
100
AcDbVisualStyle
  2
Dim
 70
    11
177
     2
291
     1
 71
     2
176
     1
 72
     2
176
     1
 73
     0
176
     1
 90
        0
176
     1
 40
-0.6
176
     1
 41
-30.0
176
     1
 62
     5
 63
     7
421
 16777215
176
     1
 74
     1
176
     1
 91
        4
176
     1
 64
     7
176
     1
 65
   257
176
     1
 75
     1
176
     1
175
     1
176
     1
 42
1.0
176
     1
 92
        8
176
     1
 66
     7
176
     1
 43
1.0
176
     1
 76
     1
176
     1
 77
     6
176
     1
 78
     2
176
     1
 67
     7
176
     1
 79
     5
176
     1
170
     0
176
     1
171
     0
176
     1
290
     0
176
     1
 93
        1
176
     1
 44
-50.0
176
     1
173
     0
176
     1
  0
VISUALSTYLE
  5
39
102
{ACAD_REACTORS
330
2A
102
}
330
2A
100
AcDbVisualStyle
  2
Facepattern
 70
    15
177
     2
291
     1
 71
     2
176
     1
 72
     2
176
     1
 73
     0
176
     1
 90
        0
176
     1
 40
-0.6
176
     1
 41
-30.0
176
     1
 62
     5
 63
     7
421
 16777215
176
     1
 74
     1
176
     1
 91
        4
176
     1
 64
     7
176
     1
 65
   257
176
     1
 75
     1
176
     1
175
     1
176
     1
 42
1.0
176
     1
 92
        8
176
     1
 66
     7
176
     1
 43
1.0
176
     1
 76
     1
176
     1
 77
     6
176
     1
 78
     2
176
     1
 67
     7
176
     1
 79
     5
176
     1
170
     0
176
     1
171
     0
176
     1
290
     0
176
     1
 93
        1
176
     1
 44
0.0
176
     1
173
     0
176
     1
  0
VISUALSTYLE
  5
2B
102
{ACAD_REACTORS
330
2A
102
}
330
2A
100
AcDbVisualStyle
  2
Flat
 70
     0
177
     2
291
     1
 71
     2
176
     1
 72
     1
176
     1
 73
     1
176
     1
 90
        2
176
     1
 40
-0.6
176
     1
 41
30.0
176
     1
 62
     5
 63
     7
421
 16777215
176
     1
 74
     0
176
     1
 91
        4
176
     1
 64
     7
176
     1
 65
   257
176
     1
 75
     1
176
     1
175
     1
176
     1
 42
1.0
176
     1
 92
        8
176
     1
 66
     7
176
     1
 43
1.0
176
     1
 76
     1
176
     1
 77
     6
176
     1
 78
     2
176
     1
 67
     7
176
     1
 79
     5
176
     1
170
     0
176
     1
171
     0
176
     1
290
     0
176
     1
 93
       13
176
     1
 44
0.0
176
     1
173
     0
176
     1
  0
VISUALSTYLE
  5
2C
102
{ACAD_REACTORS
330
2A
102
}
330
2A
100
AcDbVisualStyle
  2
FlatWithEdges
 70
     1
177
     2
291
     1
 71
     2
176
     1
 72
     1
176
     1
 73
     1
176
     1
 90
        2
176
     1
 40
-0.6
176
     1
 41
30.0
176
     1
 62
     5
 63
     7
421
 16777215
176
     1
 74
     1
176
     1
 91
        4
176
     1
 64
     7
176
     1
 65
   257
176
     1
 75
     1
176
     1
175
     1
176
     1
 42
1.0
176
     1
 92
        0
176
     1
 66
   257
176
     1
 43
1.0
176
     1
 76
     1
176
     1
 77
     6
176
     1
 78
     2
176
     1
 67
     7
176
     1
 79
     5
176
     1
170
     0
176
     1
171
     0
176
     1
290
     0
176
     1
 93
       13
176
     1
 44
0.0
176
     1
173
     0
176
     1
  0
VISUALSTYLE
  5
2D
102
{ACAD_REACTORS
330
2A
102
}
330
2A
100
AcDbVisualStyle
  2
Gouraud
 70
     2
177
     2
291
     1
 71
     2
176
     1
 72
     2
176
     1
 73
     1
176
     1
 90
        2
176
     1
 40
-0.6
176
     1
 41
30.0
176
     1
 62
     5
 63
     7
421
 16777215
176
     1
 74
     0
176
     1
 91
        4
176
     1
 64
     7
176
     1
 65
   257
176
     1
 75
     1
176
     1
175
     1
176
     1
 42
1.0
176
     1
 92
        0
176
     1
 66
     7
176
     1
 43
1.0
176
     1
 76
     1
176
     1
 77
     6
176
     1
 78
     2
176
     1
 67
     7
176
     1
 79
     5
176
     1
170
     0
176
     1
171
     0
176
     1
290
     0
176
     1
 93
       13
176
     1
 44
0.0
176
     1
173
     0
176
     1
  0
VISUALSTYLE
  5
2E
102
{ACAD_REACTORS
330
2A
102
}
330
2A
100
AcDbVisualStyle
  2
GouraudWithEdges
 70
     3
177
     2
291
     1
 71
     2
176
     1
 72
     2
176
     1
 73
     1
176
     1
 90
        2
176
     1
 40
-0.6
176
     1
 41
30.0
176
     1
 62
     5
 63
     7
421
 16777215
176
     1
 74
     1
176
     1
 91
        4
176
     1
 64
     7
176
     1
 65
   257
176
     1
 75
     1
176
     1
175
     1
176
     1
 42
1.0
176
     1
 92
        0
176
     1
 66
   257
176
     1
 43
1.0
176
     1
 76
     1
176
     1
 77
     6
176
     1
 78
     2
176
     1
 67
     7
176
     1
 79
     5
176
     1
170
     0
176
     1
171
     0
176
     1
290
     0
176
     1
 93
       13
176
     1
 44
0.0
176
     1
173
     0
176
     1
  0
VISUALSTYLE
  5
38
102
{ACAD_REACTORS
330
2A
102
}
330
2A
100
AcDbVisualStyle
  2
Linepattern
 70
    14
177
     2
291
     1
 71
     2
176
     1
 72
     2
176
     1
 73
     0
176
     1
 90
        0
176
     1
 40
-0.6
176
     1
 41
-30.0
176
     1
 62
     5
 63
     7
421
 16777215
176
     1
 74
     1
176
     1
 91
        4
176
     1
 64
     7
176
     1
 65
   257
176
     1
 75
     7
176
     1
175
     7
176
     1
 42
1.0
176
     1
 92
        8
176
     1
 66
     7
176
     1
 43
1.0
176
     1
 76
     1
176
     1
 77
     6
176
     1
 78
     2
176
     1
 67
     7
176
     1
 79
     5
176
     1
170
     0
176
     1
171
     0
176
     1
290
     0
176
     1
 93
        1
176
     1
 44
0.0
176
     1
173
     0
176
     1
  0
VISUALSTYLE
  5
33
102
{ACAD_REACTORS
330
2A
102
}
330
2A
100
AcDbVisualStyle
  2
Realistic
 70
     8
177
     2
291
     0
 71
     2
176
     1
 72
     2
176
     1
 73
     0
176
     1
 90
        0
176
     1
 40
-0.6
176
     1
 41
-30.0
176
     1
 62
     5
 63
     7
421
 16777215
176
     1
 74
     1
176
     1
 91
        0
176
     1
 64
     7
176
     1
 65
   257
176
     1
 75
     1
176
     1
175
     1
176
     1
 42
1.0
176
     1
 92
        8
176
     1
 66
     8
424
  7895160
176
     1
 43
1.0
176
     1
 76
     1
176
     1
 77
     6
176
     1
 78
     2
176
     1
 67
     7
176
     1
 79
     5
176
     1
170
     0
176
     1
171
     0
176
     1
290
     0
176
     1
 93
       13
176
     1
 44
0.0
176
     1
173
     0
176
     1
  0
VISUALSTYLE
  5
37
102
{ACAD_REACTORS
330
2A
102
}
330
2A
100
AcDbVisualStyle
  2
Thicken
 70
    13
177
     2
291
     1
 71
     2
176
     1
 72
     2
176
     1
 73
     0
176
     1
 90
        0
176
     1
 40
-0.6
176
     1
 41
-30.0
176
     1
 62
     5
 63
     7
421
 16777215
176
     1
 74
     1
176
     1
 91
        4
176
     1
 64
     7
176
     1
 65
   257
176
     1
 75
     1
176
     1
175
     1
176
     1
 42
1.0
176
     1
 92
       12
176
     1
 66
     7
176
     1
 43
1.0
176
     1
 76
     1
176
     1
 77
     6
176
     1
 78
     2
176
     1
 67
     7
176
     1
 79
     5
176
     1
170
     0
176
     1
171
     0
176
     1
290
     0
176
     1
 93
        1
176
     1
 44
0.0
176
     1
173
     0
176
     1
  0
ENDSEC
  0
EOF
