  0
SECTION
  2
HEADER
  9
$ACADVER
  1
AC1024
  9
$ACADMAINTVER
 70
     6
  9
$DWGCODEPAGE
  3
UNDEFINED
  9
$INSBASE
 10
0.0
 20
0.0
 30
0.0
  9
$EXTMIN
 10
1.000000000000000E+20
 20
1.000000000000000E+20
 30
1.000000000000000E+20
  9
$EXTMAX
 10
-1.000000000000000E+20
 20
-1.000000000000000E+20
 30
-1.000000000000000E+20
  9
$LIMMIN
 10
0.0
 20
0.0
  9
$LIMMAX
 10
12.0
 20
9.0
  9
$ORTHOMODE
 70
     0
  9
$REGENMODE
 70
     1
  9
$FILLMODE
 70
     1
  9
$QTEXTMODE
 70
     0
  9
$MIRRTEXT
 70
     1
  9
$LTSCALE
 40
1.0
  9
$ATTMODE
 70
     1
  9
$TEXTSIZE
 40
0.2
  9
$TRACEWID
 40
0.05
  9
$TEXTSTYLE
  7
Standard
  9
$CLAYER
  8
0
  9
$CELTYPE
  6
ByLayer
  9
$CECOLOR
 62
   256
  9
$CELTSCALE
 40
1.0
  9
$DISPSILH
 70
     0
  9
$DIMSCALE
 40
1.0
  9
$DIMASZ
 40
0.18
  9
$DIMEXO
 40
0.0625
  9
$DIMDLI
 40
0.38
  9
$DIMRND
 40
0.0
  9
$DIMDLE
 40
0.0
  9
$DIMEXE
 40
0.18
  9
$DIMTP
 40
0.0
  9
$DIMTM
 40
0.0
  9
$DIMTXT
 40
0.18
  9
$DIMCEN
 40
0.09
  9
$DIMTSZ
 40
0.0
  9
$DIMTOL
 70
     0
  9
$DIMLIM
 70
     0
  9
$DIMTIH
 70
     1
  9
$DIMTOH
 70
     1
  9
$DIMSE1
 70
     0
  9
$DIMSE2
 70
     0
  9
$DIMTAD
 70
     0
  9
$DIMZIN
 70
     0
  9
$DIMBLK
  1

  9
$DIMASO
 70
     1
  9
$DIMSHO
 70
     1
  9
$DIMPOST
  1

  9
$DIMAPOST
  1

  9
$DIMALT
 70
     0
  9
$DIMALTD
 70
     2
  9
$DIMALTF
 40
25.4
  9
$DIMLFAC
 40
1.0
  9
$DIMTOFL
 70
     0
  9
$DIMTVP
 40
0.0
  9
$DIMTIX
 70
     0
  9
$DIMSOXD
 70
     0
  9
$DIMSAH
 70
     0
  9
$DIMBLK1
  1

  9
$DIMBLK2
  1

  9
$DIMSTYLE
  2
Standard
  9
$DIMCLRD
 70
     0
  9
$DIMCLRE
 70
     0
  9
$DIMCLRT
 70
     0
  9
$DIMTFAC
 40
1.0
  9
$DIMGAP
 40
0.09
  9
$DIMJUST
 70
     0
  9
$DIMSD1
 70
     0
  9
$DIMSD2
 70
     0
  9
$DIMTOLJ
 70
     1
  9
$DIMTZIN
 70
     0
  9
$DIMALTZ
 70
     0
  9
$DIMALTTZ
 70
     0
  9
$DIMUPT
 70
     0
  9
$DIMDEC
 70
     4
  9
$DIMTDEC
 70
     4
  9
$DIMALTU
 70
     2
  9
$DIMALTTD
 70
     2
  9
$DIMTXSTY
  7
Standard
  9
$DIMAUNIT
 70
     0
  9
$DIMADEC
 70
     0
  9
$DIMALTRND
 40
0.0
  9
$DIMAZIN
 70
     0
  9
$DIMDSEP
 70
    46
  9
$DIMATFIT
 70
     3
  9
$DIMFRAC
 70
     0
  9
$DIMLDRBLK
  1

  9
$DIMLUNIT
 70
     2
  9
$DIMLWD
 70
    -2
  9
$DIMLWE
 70
    -2
  9
$DIMTMOVE
 70
     0
  9
$DIMFXL
 40
1.0
  9
$DIMFXLON
 70
     0
  9
$DIMJOGANG
 40
0.7853981633974483
  9
$DIMTFILL
 70
     0
  9
$DIMTFILLCLR
 70
     0
  9
$DIMARCSYM
 70
     0
  9
$DIMLTYPE
  6

  9
$DIMLTEX1
  6

  9
$DIMLTEX2
  6

  9
$DIMTXTDIRECTION
 70
     0
  9
$LUNITS
 70
     2
  9
$LUPREC
 70
     4
  9
$SKETCHINC
 40
0.1
  9
$FILLETRAD
 40
0.5
  9
$AUNITS
 70
     0
  9
$AUPREC
 70
     0
  9
$MENU
  1
.
  9
$ELEVATION
 40
0.0
  9
$PELEVATION
 40
0.0
  9
$THICKNESS
 40
0.0
  9
$LIMCHECK
 70
     0
  9
$CHAMFERA
 40
0.5
  9
$CHAMFERB
 40
0.5
  9
$CHAMFERC
 40
1.0
  9
$CHAMFERD
 40
0.0
  9
$SKPOLY
 70
     0
  9
$TDCREATE
 40
2457935.877604155
  9
$TDUCREATE
 40
2457936.0859375
  9
$TDUPDATE
 40
2457935.877604155
  9
$TDUUPDATE
 40
2457936.0859375
  9
$TDINDWG
 40
0.0000000116
  9
$TDUSRTIMER
 40
0.0000000116
  9
$USRTIMER
 70
     1
  9
$ANGBASE
 50
0.0
  9
$ANGDIR
 70
     0
  9
$PDMODE
 70
     0
  9
$PDSIZE
 40
0.0
  9
$PLINEWID
 40
0.0
  9
$SPLFRAME
 70
     0
  9
$SPLINETYPE
 70
     6
  9
$SPLINESEGS
 70
     8
  9
$HANDSEED
  5
9D
  9
$SURFTAB1
 70
     6
  9
$SURFTAB2
 70
     6
  9
$SURFTYPE
 70
     6
  9
$SURFU
 70
     6
  9
$SURFV
 70
     6
  9
$UCSBASE
  2

  9
$UCSNAME
  2

  9
$UCSORG
 10
0.0
 20
0.0
 30
0.0
  9
$UCSXDIR
 10
1.0
 20
0.0
 30
0.0
  9
$UCSYDIR
 10
0.0
 20
1.0
 30
0.0
  9
$UCSORTHOREF
  2

  9
$UCSORTHOVIEW
 70
     0
  9
$UCSORGTOP
 10
0.0
 20
0.0
 30
0.0
  9
$UCSORGBOTTOM
 10
0.0
 20
0.0
 30
0.0
  9
$UCSORGLEFT
 10
0.0
 20
0.0
 30
0.0
  9
$UCSORGRIGHT
 10
0.0
 20
0.0
 30
0.0
  9
$UCSORGFRONT
 10
0.0
 20
0.0
 30
0.0
  9
$UCSORGBACK
 10
0.0
 20
0.0
 30
0.0
  9
$PUCSBASE
  2

  9
$PUCSNAME
  2

  9
$PUCSORG
 10
0.0
 20
0.0
 30
0.0
  9
$PUCSXDIR
 10
1.0
 20
0.0
 30
0.0
  9
$PUCSYDIR
 10
0.0
 20
1.0
 30
0.0
  9
$PUCSORTHOREF
  2

  9
$PUCSORTHOVIEW
 70
     0
  9
$PUCSORGTOP
 10
0.0
 20
0.0
 30
0.0
  9
$PUCSORGBOTTOM
 10
0.0
 20
0.0
 30
0.0
  9
$PUCSORGLEFT
 10
0.0
 20
0.0
 30
0.0
  9
$PUCSORGRIGHT
 10
0.0
 20
0.0
 30
0.0
  9
$PUCSORGFRONT
 10
0.0
 20
0.0
 30
0.0
  9
$PUCSORGBACK
 10
0.0
 20
0.0
 30
0.0
  9
$USERI1
 70
     0
  9
$USERI2
 70
     0
  9
$USERI3
 70
     0
  9
$USERI4
 70
     0
  9
$USERI5
 70
     0
  9
$USERR1
 40
0.0
  9
$USERR2
 40
0.0
  9
$USERR3
 40
0.0
  9
$USERR4
 40
0.0
  9
$USERR5
 40
0.0
  9
$WORLDVIEW
 70
     1
  9
$SHADEDGE
 70
     3
  9
$SHADEDIF
 70
    70
  9
$TILEMODE
 70
     1
  9
$MAXACTVP
 70
    64
  9
$PINSBASE
 10
0.0
 20
0.0
 30
0.0
  9
$PLIMCHECK
 70
     0
  9
$PEXTMIN
 10
1.000000000000000E+20
 20
1.000000000000000E+20
 30
1.000000000000000E+20
  9
$PEXTMAX
 10
-1.000000000000000E+20
 20
-1.000000000000000E+20
 30
-1.000000000000000E+20
  9
$PLIMMIN
 10
0.0
 20
0.0
  9
$PLIMMAX
 10
12.0
 20
9.0
  9
$UNITMODE
 70
     0
  9
$VISRETAIN
 70
     1
  9
$PLINEGEN
 70
     0
  9
$PSLTSCALE
 70
     1
  9
$TREEDEPTH
 70
  3020
  9
$CMLSTYLE
  2
Standard
  9
$CMLJUST
 70
     0
  9
$CMLSCALE
 40
1.0
  9
$PROXYGRAPHICS
 70
     1
  9
$MEASUREMENT
 70
     0
  9
$CELWEIGHT
370
    -1
  9
$ENDCAPS
280
     0
  9
$JOINSTYLE
280
     0
  9
$LWDISPLAY
290
     1
  9
$INSUNITS
 70
     1
  9
$HYPERLINKBASE
  1

  9
$STYLESHEET
  1

  9
$XEDIT
290
     1
  9
$CEPSNTYPE
380
     0
  9
$PSTYLEMODE
290
     1
  9
$FINGERPRINTGUID
  2
{34A2A341-2E6B-1B3C-DBC3-A9A1BD100F49}
  9
$VERSIONGUID
  2
{FAEB1C32-E019-11D5-929B-00C0DF256EC4}
  9
$EXTNAMES
290
     1
  9
$PSVPSCALE
 40
0.0
  9
$OLESTARTUP
290
     0
  9
$SORTENTS
280
   127
  9
$INDEXCTL
280
     0
  9
$HIDETEXT
280
     1
  9
$XCLIPFRAME
280
     2
  9
$HALOGAP
280
     0
  9
$OBSCOLOR
 70
   257
  9
$OBSLTYPE
280
     0
  9
$INTERSECTIONDISPLAY
280
     0
  9
$INTERSECTIONCOLOR
 70
   257
  9
$DIMASSOC
280
     2
  9
$PROJECTNAME
  1

  9
$CAMERADISPLAY
290
     0
  9
$LENSLENGTH
 40
50.0
  9
$CAMERAHEIGHT
 40
0.0
  9
$STEPSPERSEC
 40
2.0
  9
$STEPSIZE
 40
6.0
  9
$3DDWFPREC
 40
2.0
  9
$PSOLWIDTH
 40
0.25
  9
$PSOLHEIGHT
 40
4.0
  9
$LOFTANG1
 40
1.570796326794897
  9
$LOFTANG2
 40
1.570796326794897
  9
$LOFTMAG1
 40
0.0
  9
$LOFTMAG2
 40
0.0
  9
$LOFTPARAM
 70
     7
  9
$LOFTNORMALS
280
     1
  9
$LATITUDE
 40
37.795
  9
$LONGITUDE
 40
-122.394
  9
$NORTHDIRECTION
 40
0.0
  9
$TIMEZONE
 70
 -8000
  9
$LIGHTGLYPHDISPLAY
280
     1
  9
$TILEMODELIGHTSYNCH
280
     1
  9
$CMATERIAL
347
3C
  9
$SOLIDHIST
280
     1
  9
$SHOWHIST
280
     1
  9
$DWFFRAME
280
     2
  9
$DGNFRAME
280
     2
  9
$REALWORLDSCALE
290
     1
  9
$INTERFERECOLOR
 62
   256
  9
$CSHADOW
280
     0
  9
$SHADOWPLANELOCATION
 40
0.0
  0
ENDSEC
  0
SECTION
  2
CLASSES
  0
CLASS
  1
ACDBDICTIONARYWDFLT
  2
AcDbDictionaryWithDefault
  3
ObjectDBX Classes
 90
        0
 91
        4
280
     0
281
     0
  0
CLASS
  1
VISUALSTYLE
  2
AcDbVisualStyle
  3
ObjectDBX Classes
 90
     4095
 91
        4
280
     0
281
     0
  0
CLASS
  1
MATERIAL
  2
AcDbMaterial
  3
ObjectDBX Classes
 90
     1153
 91
        4
280
     0
281
     0
  0
CLASS
  1
SUN
  2
AcDbSun
  3
SCENEOE
 90
     1024
 91
        4
280
     0
281
     0
  0
ENDSEC
  0
SECTION
  2
TABLES
  0
TABLE
  2
VPORT
  5
8
330
0
100
AcDbSymbolTable
 70
     1
  0
VPORT
  5
29
330
8
100
AcDbSymbolTableRecord
100
AcDbViewportTableRecord
  2
*Active
 70
     0
 10
0.0
 20
0.0
 11
1.0
 21
1.0
 12
0.0
 22
0.0
 13
0.0
 23
0.0
 14
0.5
 24
0.5
 15
0.5
 25
0.5
 16
0.0
 26
0.0
 36
1.0
 17
4.25
 27
-5.5
 37
0.0
 40
11.0
 41
0.7727272727272727
 42
50.0
 43
0.0
 44
0.0
 50
0.0
 51
0.0
 71
     0
 72
   100
 73
     1
 74
     3
 75
     0
 76
     0
 77
     0
 78
     0
281
     0
 65
     1
110
0.0
120
0.0
130
0.0
111
1.0
121
0.0
131
0.0
112
0.0
122
1.0
132
0.0
 79
     0
146
0.0
 60
     3
 61
     5
292
     1
282
     1
141
0.0
142
0.0
 63
   250
361
3F
  0
ENDTAB
  0
TABLE
  2
LTYPE
  5
5
330
0
100
AcDbSymbolTable
 70
     1
  0
LTYPE
  5
14
330
5
100
AcDbSymbolTableRecord
100
AcDbLinetypeTableRecord
  2
ByBlock
 70
     0
  3

 72
    65
 73
     0
 40
0.0
  0
LTYPE
  5
15
330
5
100
AcDbSymbolTableRecord
100
AcDbLinetypeTableRecord
  2
ByLayer
 70
     0
  3

 72
    65
 73
     0
 40
0.0
  0
LTYPE
  5
16
330
5
100
AcDbSymbolTableRecord
100
AcDbLinetypeTableRecord
  2
Continuous
 70
     0
  3
Solid line
 72
    65
 73
     0
 40
0.0
  0
ENDTAB
  0
TABLE
  2
LAYER
  5
2
330
0
100
AcDbSymbolTable
 70
     5
  0
LAYER
  5
10
330
2
100
AcDbSymbolTableRecord
100
AcDbLayerTableRecord
  2
0
 70
     0
 62
     7
  6
Continuous
370
    -3
390
F
347
3E
  0
LAYER
  5
40
330
2
100
AcDbSymbolTableRecord
100
AcDbLayerTableRecord
  2
Controller
 70
     0
 62
     7
  6
Continuous
370
    -3
390
F
347
3E
  0
LAYER
  5
76
330
2
100
AcDbSymbolTableRecord
100
AcDbLayerTableRecord
  2
Gift Card Base
 70
     0
 62
     7
  6
Continuous
370
    -3
390
F
347
3E
  0
LAYER
  5
79
330
2
100
AcDbSymbolTableRecord
100
AcDbLayerTableRecord
  2
Card Back
 70
     0
 62
     7
  6
Continuous
370
    -3
390
F
347
3E
  0
LAYER
  5
7A
330
2
100
AcDbSymbolTableRecord
100
AcDbLayerTableRecord
  2
Score Lines
 70
     0
 62
     7
  6
Continuous
370
    -3
390
F
347
3E
  0
ENDTAB
  0
TABLE
  2
STYLE
  5
3
330
0
100
AcDbSymbolTable
 70
     1
  0
STYLE
  5
11
330
3
100
AcDbSymbolTableRecord
100
AcDbTextStyleTableRecord
  2
Standard
 70
     0
 40
0.0
 41
1.0
 50
0.0
 71
     0
 42
0.2
  3
txt
  4

  0
ENDTAB
  0
TABLE
  2
VIEW
  5
6
330
0
100
AcDbSymbolTable
 70
     0
  0
ENDTAB
  0
TABLE
  2
UCS
  5
7
330
0
100
AcDbSymbolTable
 70
     0
  0
ENDTAB
  0
TABLE
  2
APPID
  5
9
330
0
100
AcDbSymbolTable
 70
     1
  0
APPID
  5
12
330
9
100
AcDbSymbolTableRecord
100
AcDbRegAppTableRecord
  2
ACAD
 70
     0
  0
ENDTAB
  0
TABLE
  2
DIMSTYLE
  5
A
330
0
100
AcDbSymbolTable
 70
     1
100
AcDbDimStyleTable
  0
DIMSTYLE
105
27
330
A
100
AcDbSymbolTableRecord
100
AcDbDimStyleTableRecord
  2
Standard
 70
     0
178
     0
340
11
  0
ENDTAB
  0
TABLE
  2
BLOCK_RECORD
  5
1
330
0
100
AcDbSymbolTable
 70
     2
  0
BLOCK_RECORD
  5
1F
330
1
100
AcDbSymbolTableRecord
100
AcDbBlockTableRecord
  2
*Model_Space
340
22
 70
     0
280
     1
281
     0
  0
BLOCK_RECORD
  5
1B
330
1
100
AcDbSymbolTableRecord
100
AcDbBlockTableRecord
  2
*Paper_Space
340
1E
 70
     0
280
     1
281
     0
  0
BLOCK_RECORD
  5
23
330
1
100
AcDbSymbolTableRecord
100
AcDbBlockTableRecord
  2
*Paper_Space0
340
26
 70
     0
280
     1
281
     0
  0
BLOCK_RECORD
  5
49
330
1
100
AcDbSymbolTableRecord
100
AcDbBlockTableRecord
  2
block 2
340
0
102
{BLKREFS
331
4A
102
}
 70
     0
280
     1
281
     0
  0
ENDTAB
  0
ENDSEC
  0
SECTION
  2
BLOCKS
  0
BLOCK
  5
20
330
1F
100
AcDbEntity
  8
0
100
AcDbBlockBegin
  2
*Model_Space
 70
     0
 10
0.0
 20
0.0
 30
0.0
  3
*Model_Space
  1

  0
ENDBLK
  5
21
330
1F
100
AcDbEntity
  8
0
100
AcDbBlockEnd
  0
BLOCK
  5
1C
330
1B
100
AcDbEntity
 67
     1
  8
0
100
AcDbBlockBegin
  2
*Paper_Space
 70
     0
 10
0.0
 20
0.0
 30
0.0
  3
*Paper_Space
  1

  0
ENDBLK
  5
1D
330
1B
100
AcDbEntity
 67
     1
  8
0
100
AcDbBlockEnd
  0
BLOCK
  5
24
330
23
100
AcDbEntity
  8
0
100
AcDbBlockBegin
  2
*Paper_Space0
 70
     0
 10
0.0
 20
0.0
 30
0.0
  3
*Paper_Space0
  1

  0
ENDBLK
  5
25
330
23
100
AcDbEntity
  8
0
100
AcDbBlockEnd
  0
BLOCK
  5
4B
330
49
100
AcDbEntity
  8
0
100
AcDbBlockBegin
  2
block 2
 70
     0
 10
0.0
 20
0.0
 30
0.0
  3
block 2
  1

  0
SPLINE
  5
4D
330
49
100
AcDbEntity
  8
Controller
370
     0
100
AcDbSpline
210
0.0
220
0.0
230
1.0
 70
    11
 71
     3
 72
   194
 73
   190
 74
     0
 42
0.0000000001
 43
0.0000000001
 12
1.0
 22
0.0
 32
0.0
 13
1.0
 23
0.0
 33
0.0
 40
0.0
 40
0.0
 40
0.0
 40
0.0
 40
1.0
 40
1.0
 40
1.0
 40
2.0
 40
2.0
 40
2.0
 40
3.0
 40
3.0
 40
3.0
 40
4.0
 40
4.0
 40
4.0
 40
5.0
 40
5.0
 40
5.0
 40
6.0
 40
6.0
 40
6.0
 40
7.0
 40
7.0
 40
7.0
 40
8.0
 40
8.0
 40
8.0
 40
9.0
 40
9.0
 40
9.0
 40
10.0
 40
10.0
 40
10.0
 40
11.0
 40
11.0
 40
11.0
 40
12.0
 40
12.0
 40
12.0
 40
13.0
 40
13.0
 40
13.0
 40
14.0
 40
14.0
 40
14.0
 40
15.0
 40
15.0
 40
15.0
 40
16.0
 40
16.0
 40
16.0
 40
17.0
 40
17.0
 40
17.0
 40
18.0
 40
18.0
 40
18.0
 40
19.0
 40
19.0
 40
19.0
 40
20.0
 40
20.0
 40
20.0
 40
21.0
 40
21.0
 40
21.0
 40
22.0
 40
22.0
 40
22.0
 40
23.0
 40
23.0
 40
23.0
 40
24.0
 40
24.0
 40
24.0
 40
25.0
 40
25.0
 40
25.0
 40
26.0
 40
26.0
 40
26.0
 40
27.0
 40
27.0
 40
27.0
 40
28.0
 40
28.0
 40
28.0
 40
29.0
 40
29.0
 40
29.0
 40
30.0
 40
30.0
 40
30.0
 40
31.0
 40
31.0
 40
31.0
 40
32.0
 40
32.0
 40
32.0
 40
33.0
 40
33.0
 40
33.0
 40
34.0
 40
34.0
 40
34.0
 40
35.0
 40
35.0
 40
35.0
 40
36.0
 40
36.0
 40
36.0
 40
37.0
 40
37.0
 40
37.0
 40
38.0
 40
38.0
 40
38.0
 40
39.0
 40
39.0
 40
39.0
 40
40.0
 40
40.0
 40
40.0
 40
41.0
 40
41.0
 40
41.0
 40
42.0
 40
42.0
 40
42.0
 40
43.0
 40
43.0
 40
43.0
 40
44.0
 40
44.0
 40
44.0
 40
45.0
 40
45.0
 40
45.0
 40
46.0
 40
46.0
 40
46.0
 40
47.0
 40
47.0
 40
47.0
 40
48.0
 40
48.0
 40
48.0
 40
49.0
 40
49.0
 40
49.0
 40
50.0
 40
50.0
 40
50.0
 40
51.0
 40
51.0
 40
51.0
 40
52.0
 40
52.0
 40
52.0
 40
53.0
 40
53.0
 40
53.0
 40
54.0
 40
54.0
 40
54.0
 40
55.0
 40
55.0
 40
55.0
 40
56.0
 40
56.0
 40
56.0
 40
57.0
 40
57.0
 40
57.0
 40
58.0
 40
58.0
 40
58.0
 40
59.0
 40
59.0
 40
59.0
 40
60.0
 40
60.0
 40
60.0
 40
61.0
 40
61.0
 40
61.0
 40
62.0
 40
62.0
 40
62.0
 40
63.0
 40
63.0
 40
63.0
 40
63.0
 10
7.490331861707899
 20
-4.84763675265842
 30
0.0
 10
7.460878160264756
 20
-5.006687588161892
 30
0.0
 10
7.407860649956596
 20
-5.230537414550781
 30
0.0
 10
7.295935736762153
 20
-5.366026136610243
 30
0.0
 10
7.184010823567708
 20
-5.501514010959201
 30
0.0
 10
7.060304429796006
 20
-5.5427491929796
 30
0.0
 10
6.99550543891059
 20
-5.560422261555989
 30
0.0
 10
6.930706448025173
 20
-5.578094482421875
 30
0.0
 10
6.73631117078993
 20
-5.589875962999131
 30
0.0
 10
6.600822448730469
 20
-5.525076972113715
 30
0.0
 10
6.46533457438151
 20
-5.460278828938802
 30
0.0
 10
6.33573744032118
 20
-5.32479010687934
 30
0.0
 10
6.241484747992621
 20
-5.165739271375868
 30
0.0
 10
6.147232055664062
 20
-5.006687588161892
 30
0.0
 10
6.076542324490017
 20
-4.800509982638888
 30
0.0
 10
6.023525661892361
 20
-4.676803588867188
 30
0.0
 10
5.970508151584201
 20
-4.553097195095486
 30
0.0
 10
5.829129536946614
 20
-4.199649386935763
 30
0.0
 10
5.805565728081597
 20
-4.170195685492621
 30
0.0
 10
5.782002766927083
 20
-4.140741984049479
 30
0.0
 10
5.734876844618055
 20
-4.140741984049479
 30
0.0
 10
5.734876844618055
 20
-4.140741984049479
 30
0.0
 10
5.734876844618055
 20
-4.140741984049479
 30
0.0
 10
5.487463209364149
 20
-4.305683559841579
 30
0.0
 10
5.269504123263888
 20
-4.305683559841579
 30
0.0
 10
5.051545037163629
 20
-4.305683559841579
 30
0.0
 10
4.821804470486111
 20
-4.105396694607204
 30
0.0
 10
4.821804470486111
 20
-4.105396694607204
 30
0.0
 10
4.821804470486111
 20
-4.105396694607204
 30
0.0
 10
4.601771036783854
 20
-4.105396694607204
 30
0.0
 10
4.601771036783854
 20
-4.105396694607204
 30
0.0
 10
4.605074564615885
 20
-4.102738274468316
 30
0.0
 10
4.608267042371962
 20
-4.099590725368923
 30
0.0
 10
4.611305236816406
 20
-4.095713297526041
 30
0.0
 10
4.604410807291666
 20
-4.089705573187934
 30
0.0
 10
4.598213195800781
 20
-4.082774692111545
 30
0.0
 10
4.590653313530816
 20
-4.077999538845486
 30
0.0
 10
4.566650390625
 20
-4.062840779622396
 30
0.0
 10
4.539753384060329
 20
-4.056630452473958
 30
0.0
 10
4.511705186631944
 20
-4.056315104166666
 30
0.0
 10
4.405818515353732
 20
-4.055124070909288
 30
0.0
 10
4.2999267578125
 20
-4.05422125922309
 30
0.0
 10
4.194035000271267
 20
-4.053515964084201
 30
0.0
 10
4.151676601833767
 20
-4.053232828776041
 30
0.0
 10
4.109278361002604
 20
-4.052738613552517
 30
0.0
 10
4.066961500379774
 20
-4.054186503092447
 30
0.0
 10
4.029956393771701
 20
-4.055452134874132
 30
0.0
 10
3.99503665500217
 20
-4.064157274034288
 30
0.0
 10
3.963916354709201
 20
-4.097974989149305
 30
0.0
 10
3.974416944715712
 20
-4.100700378417969
 30
0.0
 10
3.983043246799045
 20
-4.103290981716579
 30
0.0
 10
3.991099887424045
 20
-4.105396694607204
 30
0.0
 10
3.991099887424045
 20
-4.105396694607204
 30
0.0
 10
3.732008192274305
 20
-4.105396694607204
 30
0.0
 10
3.732008192274305
 20
-4.105396694607204
 30
0.0
 10
3.732008192274305
 20
-4.105396694607204
 30
0.0
 10
3.466923183865017
 20
-4.293902079264322
 30
0.0
 10
3.225400288899739
 20
-4.293902079264322
 30
0.0
 10
2.983878241644965
 20
-4.293902079264322
 30
0.0
 10
2.836608039008246
 20
-4.140741984049479
 30
0.0
 10
2.836608039008246
 20
-4.140741984049479
 30
0.0
 10
2.836608039008246
 20
-4.140741984049479
 30
0.0
 10
2.807154337565104
 20
-4.158414204915364
 30
0.0
 10
2.771809895833333
 20
-4.170195685492621
 30
0.0
 10
2.736464606391059
 20
-4.181977166069879
 30
0.0
 10
2.742355346679688
 20
-4.181977166069879
 30
0.0
 10
2.73057386610243
 20
-4.211430867513021
 30
0.0
 10
2.718792385525174
 20
-4.240885416666666
 30
0.0
 10
2.51261478000217
 20
-4.841746012369791
 30
0.0
 10
2.430143568250868
 20
-5.012578328450521
 30
0.0
 10
2.347673204210069
 20
-5.183411492241754
 30
0.0
 10
2.212184482150608
 20
-5.336571587456597
 30
0.0
 10
2.088478088378906
 20
-5.442605760362413
 30
0.0
 10
1.964771694607205
 20
-5.548640780978732
 30
0.0
 10
1.85284678141276
 20
-5.548640780978732
 30
0.0
 10
1.651744418674045
 20
-5.550059848361545
 30
0.0
 10
1.450642903645833
 20
-5.551478915744357
 30
0.0
 10
1.375692579481337
 20
-5.477951049804688
 30
0.0
 10
1.240204705132378
 20
-5.32479010687934
 30
0.0
 10
1.104715983072917
 20
-5.171630011664496
 30
0.0
 10
1.09293450249566
 20
-4.92421637641059
 30
0.0
 10
1.081153021918403
 20
-4.600223117404513
 30
0.0
 10
1.069371541341146
 20
-4.276229858398438
 30
0.0
 10
1.175405714246962
 20
-3.769621955023871
 30
0.0
 10
1.228423224555121
 20
-3.492754618326823
 30
0.0
 10
1.281439887152778
 20
-3.215888129340278
 30
0.0
 10
1.558307223849826
 20
-2.255688985188802
 30
0.0
 10
1.617214626736111
 20
-2.137873331705729
 30
0.0
 10
1.676122877332899
 20
-2.020057678222656
 30
0.0
 10
1.864628261990017
 20
-1.713736640082465
 30
0.0
 10
1.864628261990017
 20
-1.713736640082465
 30
0.0
 10
1.864628261990017
 20
-1.713736640082465
 30
0.0
 10
1.924652947319878
 20
-1.686453077528212
 30
0.0
 10
1.924652947319878
 20
-1.686453077528212
 30
0.0
 10
1.924819098578559
 20
-1.687732272677951
 30
0.0
 10
1.924777560763889
 20
-1.688843621148003
 30
0.0
 10
1.925008985731337
 20
-1.690173678927951
 30
0.0
 10
1.975388420952691
 20
-1.682598537868923
 30
0.0
 10
2.045652601453993
 20
-1.689094543457031
 30
0.0
 10
2.09564208984375
 20
-1.681578742133246
 30
0.0
 10
2.131944444444444
 20
-1.680555555555555
 30
0.0
 10
2.143518518518514
 20
-1.677083333333333
 30
0.0
 10
2.162201775444879
 20
-1.676141526963976
 30
0.0
 10
2.285737779405382
 20
-1.674123975965712
 30
0.0
 10
2.408439636230469
 20
-1.672119140625
 30
0.0
 10
2.531672159830729
 20
-1.670106675889757
 30
0.0
 10
2.549768518518514
 20
-1.671296296296292
 30
0.0
 10
2.572916666666667
 20
-1.672453703703708
 30
0.0
 10
2.587597317165799
 20
-1.674566480848524
 30
0.0
 10
2.634039137098524
 20
-1.679712931315104
 30
0.0
 10
2.680980258517795
 20
-1.684915330674913
 30
0.0
 10
2.729887220594618
 20
-1.690335591634115
 30
0.0
 10
2.729887220594618
 20
-1.690335591634115
 30
0.0
 10
2.824826558430989
 20
-1.725518120659722
 30
0.0
 10
2.854281107584635
 20
-1.749081081814236
 30
0.0
 10
2.883734809027778
 20
-1.772644890679253
 30
0.0
 10
2.954424540201823
 20
-1.772644890679253
 30
0.0
 10
3.036894904242621
 20
-1.772644890679253
 30
0.0
 10
3.119366115993923
 20
-1.772644890679253
 30
0.0
 10
3.222222222222222
 20
-1.772569444444444
 30
0.0
 10
3.222222222222222
 20
-1.772569444444444
 30
0.0
 10
3.222222222222222
 20
-1.772569444444444
 30
0.0
 10
3.20916748046875
 20
-2.475994533962674
 30
0.0
 10
3.20916748046875
 20
-2.475994533962674
 30
0.0
 10
3.208469814724392
 20
-2.585535685221354
 30
0.0
 10
3.208266364203559
 20
-2.695080227322049
 30
0.0
 10
3.207491556803385
 20
-2.804620530870225
 30
0.0
 10
3.207099914550781
 20
-2.859916687011719
 30
0.0
 10
3.226955837673611
 20
-2.905726114908854
 30
0.0
 10
3.269921196831597
 20
-2.940828111436632
 30
0.0
 10
3.304209391276042
 20
-2.968840705023871
 30
0.0
 10
3.345029195149739
 20
-2.975164625379774
 30
0.0
 10
3.387718200683594
 20
-2.975173950195312
 30
0.0
 10
3.804112752278646
 20
-2.975262112087674
 30
0.0
 10
4.220506456163195
 20
-2.975506252712674
 30
0.0
 10
4.636900160047743
 20
-2.975584242078993
 30
0.0
 10
4.82889895968967
 20
-2.975619845920139
 30
0.0
 10
5.020905388726129
 20
-2.976449754503038
 30
0.0
 10
5.212890625
 20
-2.97483656141493
 30
0.0
 10
5.312490675184462
 20
-2.9739990234375
 30
0.0
 10
5.362352159288194
 20
-2.918610466851128
 30
0.0
 10
5.362847222222222
 20
-2.819444444444444
 30
0.0
 10
5.364018758138021
 20
-2.584459092881944
 30
0.0
 10
5.364583333333333
 20
-1.802083333333333
 30
0.0
 10
5.364583333333333
 20
-1.802083333333333
 30
0.0
 10
5.364583333333333
 20
-1.802083333333333
 30
0.0
 10
5.487463209364149
 20
-1.754971822102865
 30
0.0
 10
5.569934421115451
 20
-1.760862562391493
 30
0.0
 10
5.652405632866754
 20
-1.766753302680121
 30
0.0
 10
5.728986104329427
 20
-1.766753302680121
 30
0.0
 10
5.787893507215712
 20
-1.725518120659722
 30
0.0
 10
5.8468017578125
 20
-1.684282938639323
 30
0.0
 10
5.855680677625868
 20
-1.695910983615451
 30
0.0
 10
5.855680677625868
 20
-1.695910983615451
 30
0.0
 10
5.911652459038629
 20
-1.689853244357639
 30
0.0
 10
5.965332878960504
 20
-1.684043884277344
 30
0.0
 10
6.017505221896701
 20
-1.678397284613715
 30
0.0
 10
6.037037037037028
 20
-1.67592592592593
 30
0.0
 10
6.06634775797526
 20
-1.676376342773438
 30
0.0
 10
6.111698574490017
 20
-1.677189297146267
 30
0.0
 10
6.216493394639756
 20
-1.679067823621962
 30
0.0
 10
6.32127210828993
 20
-1.681857638888889
 30
0.0
 10
6.426060994466146
 20
-1.684102376302083
 30
0.0
 10
6.446133083767361
 20
-1.684532165527344
 30
0.0
 10
6.472222222222221
 20
-1.685185185185181
 30
0.0
 10
6.484953703703695
 20
-1.6875
 30
0.0
 10
6.489307882320948
 20
-1.68829166883951
 30
0.0
 10
6.514680650499131
 20
-1.690652635362413
 30
0.0
 10
6.518164740668403
 20
-1.69122568766276
 30
0.0
 10
6.559221055772569
 20
-1.69797854953342
 30
0.0
 10
6.600413004557291
 20
-1.703909979926215
 30
0.0
 10
6.641546461317274
 20
-1.710054185655382
 30
0.0
 10
6.641546461317274
 20
-1.710054185655382
 30
0.0
 10
6.712747361924913
 20
-1.754971822102865
 30
0.0
 10
6.712747361924913
 20
-1.754971822102865
 30
0.0
 10
6.712747361924913
 20
-1.754971822102865
 30
0.0
 10
6.712747361924913
 20
-1.754971822102865
 30
0.0
 10
6.742201911078559
 20
-1.796207851833767
 30
0.0
 10
6.771655612521701
 20
-1.837443033854167
 30
0.0
 10
6.924815707736545
 20
-2.102528889973958
 30
0.0
 10
7.013177659776475
 20
-2.232126024034288
 30
0.0
 10
7.101539611816406
 20
-2.361723158094618
 30
0.0
 10
7.148666381835938
 20
-2.668044196234809
 30
0.0
 10
7.148666381835938
 20
-2.668044196234809
 30
0.0
 10
7.148666381835938
 20
-2.668044196234809
 30
0.0
 10
7.390188429090712
 20
-3.687150743272569
 30
0.0
 10
7.443205091688368
 20
-3.934564378526475
 30
0.0
 10
7.496222601996528
 20
-4.181977166069879
 30
0.0
 10
7.519785563151041
 20
-4.688585069444444
 30
0.0
 10
7.490331861707899
 20
-4.84763675265842
 30
0.0
  0
SPLINE
  5
4E
330
49
100
AcDbEntity
  8
Controller
370
     0
100
AcDbSpline
210
0.0
220
0.0
230
1.0
 70
    11
 71
     3
 72
    29
 73
    25
 74
     0
 42
0.0000000001
 43
0.0000000001
 12
1.0
 22
0.0
 32
0.0
 13
1.0
 23
0.0
 33
0.0
 40
0.0
 40
0.0
 40
0.0
 40
0.0
 40
1.0
 40
1.0
 40
1.0
 40
2.0
 40
2.0
 40
2.0
 40
3.0
 40
3.0
 40
3.0
 40
4.0
 40
4.0
 40
4.0
 40
5.0
 40
5.0
 40
5.0
 40
6.0
 40
6.0
 40
6.0
 40
7.0
 40
7.0
 40
7.0
 40
8.0
 40
8.0
 40
8.0
 40
8.0
 10
2.869299994574653
 20
-2.183024088541667
 30
0.0
 10
2.869643317328559
 20
-2.243981255425347
 30
0.0
 10
2.917599995930989
 20
-2.292051527235243
 30
0.0
 10
2.977479722764757
 20
-2.293676588270399
 30
0.0
 10
3.03841569688585
 20
-2.29532962375217
 30
0.0
 10
3.086587693956163
 20
-2.250950283474392
 30
0.0
 10
3.089781019422743
 20
-2.18855963812934
 30
0.0
 10
3.091313680013021
 20
-2.15861341688368
 30
0.0
 10
3.090044657389323
 20
-2.128523932562934
 30
0.0
 10
3.090044657389323
 20
-2.098498874240451
 30
0.0
 10
3.090394761827257
 20
-2.098498874240451
 30
0.0
 10
3.090744866265191
 20
-2.098498026529948
 30
0.0
 10
3.091094970703125
 20
-2.098498026529948
 30
0.0
 10
3.091094970703125
 20
-2.069645351833767
 30
0.0
 10
3.09173583984375
 20
-2.040775722927517
 30
0.0
 10
3.090960184733073
 20
-2.011944240993924
 30
0.0
 10
3.089404635959201
 20
-1.954167683919271
 30
0.0
 10
3.043617248535156
 20
-1.909720526801215
 30
0.0
 10
2.986293368869358
 20
-1.909472147623698
 30
0.0
 10
2.925208197699653
 20
-1.909208509657118
 30
0.0
 10
2.873760647243924
 20
-1.954237196180555
 30
0.0
 10
2.871790568033854
 20
-2.011716206868489
 30
0.0
 10
2.86983405219184
 20
-2.068783230251736
 30
0.0
 10
2.868978712293837
 20
-2.125924852159288
 30
0.0
 10
2.869299994574653
 20
-2.183024088541667
 30
0.0
  0
SPLINE
  5
4F
330
49
100
AcDbEntity
  8
Controller
370
     0
100
AcDbSpline
210
0.0
220
0.0
230
1.0
 70
    11
 71
     3
 72
    41
 73
    37
 74
     0
 42
0.0000000001
 43
0.0000000001
 12
1.0
 22
0.0
 32
0.0
 13
1.0
 23
0.0
 33
0.0
 40
0.0
 40
0.0
 40
0.0
 40
0.0
 40
1.0
 40
1.0
 40
1.0
 40
2.0
 40
2.0
 40
2.0
 40
3.0
 40
3.0
 40
3.0
 40
4.0
 40
4.0
 40
4.0
 40
5.0
 40
5.0
 40
5.0
 40
6.0
 40
6.0
 40
6.0
 40
7.0
 40
7.0
 40
7.0
 40
8.0
 40
8.0
 40
8.0
 40
9.0
 40
9.0
 40
9.0
 40
10.0
 40
10.0
 40
10.0
 40
11.0
 40
11.0
 40
11.0
 40
12.0
 40
12.0
 40
12.0
 40
12.0
 10
2.091233147515191
 20
-2.318269517686632
 30
0.0
 10
2.091642591688368
 20
-2.338260226779514
 30
0.0
 10
2.093290540907118
 20
-2.358226352267795
 30
0.0
 10
2.094371371799045
 20
-2.378203497992621
 30
0.0
 10
2.094284905327691
 20
-2.378208584255642
 30
0.0
 10
2.09419928656684
 20
-2.378214518229167
 30
0.0
 10
2.094112820095486
 20
-2.378220452202691
 30
0.0
 10
2.096544053819444
 20
-2.413446214463975
 30
0.0
 10
2.097265455457899
 20
-2.448910183376736
 30
0.0
 10
2.102135552300347
 20
-2.483795166015625
 30
0.0
 10
2.104521857367621
 20
-2.500887552897135
 30
0.0
 10
2.110858493381076
 20
-2.520204332139757
 30
0.0
 10
2.121916876898871
 20
-2.532797071668837
 30
0.0
 10
2.157200283474392
 20
-2.572976006401909
 30
0.0
 10
2.194739447699653
 20
-2.611285739474826
 30
0.0
 10
2.232922871907552
 20
-2.648774888780382
 30
0.0
 10
2.268202039930555
 20
-2.683414883083767
 30
0.0
 10
2.300594753689236
 20
-2.682165357801649
 30
0.0
 10
2.335834079318576
 20
-2.647364298502604
 30
0.0
 10
2.370575798882378
 20
-2.613054911295573
 30
0.0
 10
2.404508802625868
 20
-2.5779054429796
 30
0.0
 10
2.439844767252604
 20
-2.544224209255642
 30
0.0
 10
2.460245768229167
 20
-2.524779425726996
 30
0.0
 10
2.470342848036024
 20
-2.502304924858941
 30
0.0
 10
2.472204420301649
 20
-2.474305046929253
 30
0.0
 10
2.475521511501736
 20
-2.424416436089409
 30
0.0
 10
2.480105929904514
 20
-2.374593946668837
 30
0.0
 10
2.485098944769965
 20
-2.324837578667534
 30
0.0
 10
2.491605122884114
 20
-2.259995354546441
 30
0.0
 10
2.452545166015625
 20
-2.204213460286458
 30
0.0
 10
2.388827006022135
 20
-2.190603468153212
 30
0.0
 10
2.324741787380642
 20
-2.176913791232639
 30
0.0
 10
2.260035196940104
 20
-2.176953633626302
 30
0.0
 10
2.195779588487413
 20
-2.188347710503472
 30
0.0
 10
2.128475613064236
 20
-2.200282626681858
 30
0.0
 10
2.08982425265842
 20
-2.249532063802083
 30
0.0
 10
2.091233147515191
 20
-2.318269517686632
 30
0.0
  0
SPLINE
  5
50
330
49
100
AcDbEntity
  8
Controller
370
     0
100
AcDbSpline
210
0.0
220
0.0
230
1.0
 70
    11
 71
     3
 72
    38
 73
    34
 74
     0
 42
0.0000000001
 43
0.0000000001
 12
1.0
 22
0.0
 32
0.0
 13
1.0
 23
0.0
 33
0.0
 40
0.0
 40
0.0
 40
0.0
 40
0.0
 40
1.0
 40
1.0
 40
1.0
 40
2.0
 40
2.0
 40
2.0
 40
3.0
 40
3.0
 40
3.0
 40
4.0
 40
4.0
 40
4.0
 40
5.0
 40
5.0
 40
5.0
 40
6.0
 40
6.0
 40
6.0
 40
7.0
 40
7.0
 40
7.0
 40
8.0
 40
8.0
 40
8.0
 40
9.0
 40
9.0
 40
9.0
 40
10.0
 40
10.0
 40
10.0
 40
11.0
 40
11.0
 40
11.0
 40
11.0
 10
2.029201083713108
 20
-2.921736823187934
 30
0.0
 10
2.04986826578776
 20
-2.92024654812283
 30
0.0
 10
2.068249172634549
 20
-2.913381788465712
 30
0.0
 10
2.083113776312934
 20
-2.898518880208333
 30
0.0
 10
2.122220357259114
 20
-2.859413994683159
 30
0.0
 10
2.161716037326389
 20
-2.820682949490017
 30
0.0
 10
2.200186835394965
 20
-2.780960930718316
 30
0.0
 10
2.227921379937066
 20
-2.752323574490017
 30
0.0
 10
2.22868177625868
 20
-2.720404730902778
 30
0.0
 10
2.201449076334635
 20
-2.691613091362847
 30
0.0
 10
2.163055419921875
 20
-2.65102047390408
 30
0.0
 10
2.123616536458333
 20
-2.611373053656684
 30
0.0
 10
2.083468119303385
 20
-2.572516547309028
 30
0.0
 10
2.07426028781467
 20
-2.563605414496528
 30
0.0
 10
2.060791863335504
 20
-2.555286831325955
 30
0.0
 10
2.048514472113715
 20
-2.553992377387153
 30
0.0
 10
1.98419189453125
 20
-2.547212388780382
 30
0.0
 10
1.91969723171658
 20
-2.540250990125868
 30
0.0
 10
1.855114407009548
 20
-2.538324144151475
 30
0.0
 10
1.802747938368055
 20
-2.53676266140408
 30
0.0
 10
1.752142164442274
 20
-2.578703986273871
 30
0.0
 10
1.740873548719618
 20
-2.629493713378906
 30
0.0
 10
1.733021206325955
 20
-2.664883931477864
 30
0.0
 10
1.730165269639757
 20
-2.701382954915364
 30
0.0
 10
1.726178487141927
 20
-2.729595608181424
 30
0.0
 10
1.729096306694878
 20
-2.764884948730469
 30
0.0
 10
1.730228000217014
 20
-2.791982014973958
 30
0.0
 10
1.73376210530599
 20
-2.818762037489149
 30
0.0
 10
1.743820190429688
 20
-2.89496103922526
 30
0.0
 10
1.794263203938802
 20
-2.937154981825087
 30
0.0
 10
1.870734320746528
 20
-2.933003743489583
 30
0.0
 10
1.923604329427083
 20
-2.930133395724826
 30
0.0
 10
1.97638193766276
 20
-2.925547281901042
 30
0.0
 10
2.029201083713108
 20
-2.921736823187934
 30
0.0
  0
SPLINE
  5
51
330
49
100
AcDbEntity
  8
Controller
370
     0
100
AcDbSpline
210
0.0
220
0.0
230
1.0
 70
    11
 71
     3
 72
    38
 73
    34
 74
     0
 42
0.0000000001
 43
0.0000000001
 12
1.0
 22
0.0
 32
0.0
 13
1.0
 23
0.0
 33
0.0
 40
0.0
 40
0.0
 40
0.0
 40
0.0
 40
1.0
 40
1.0
 40
1.0
 40
2.0
 40
2.0
 40
2.0
 40
3.0
 40
3.0
 40
3.0
 40
4.0
 40
4.0
 40
4.0
 40
5.0
 40
5.0
 40
5.0
 40
6.0
 40
6.0
 40
6.0
 40
7.0
 40
7.0
 40
7.0
 40
8.0
 40
8.0
 40
8.0
 40
9.0
 40
9.0
 40
9.0
 40
10.0
 40
10.0
 40
10.0
 40
11.0
 40
11.0
 40
11.0
 40
11.0
 10
2.477550082736545
 20
-3.150172763400608
 30
0.0
 10
2.474089728461371
 20
-3.094930013020833
 30
0.0
 10
2.470737033420139
 20
-3.03963385687934
 30
0.0
 10
2.464936998155382
 20
-2.984614054361979
 30
0.0
 10
2.463318718804253
 20
-2.969261169433594
 30
0.0
 10
2.456672668457031
 20
-2.951519436306424
 30
0.0
 10
2.446328057183159
 20
-2.940523783365885
 30
0.0
 10
2.406825595431858
 20
-2.898535834418403
 30
0.0
 10
2.365584479437934
 20
-2.85809580485026
 30
0.0
 10
2.323584662543403
 20
-2.818574693467882
 30
0.0
 10
2.295578002929688
 20
-2.792220221625434
 30
0.0
 10
2.265157911512587
 20
-2.793378194173177
 30
0.0
 10
2.237233479817708
 20
-2.819995456271701
 30
0.0
 10
2.19760979546441
 20
-2.857763502332899
 30
0.0
 10
2.158193800184462
 20
-2.895791795518663
 30
0.0
 10
2.119992574055989
 20
-2.93498060438368
 30
0.0
 10
2.110202365451389
 20
-2.945025126139323
 30
0.0
 10
2.100558810763889
 20
-2.959276835123698
 30
0.0
 10
2.098971048990885
 20
-2.972565544976128
 30
0.0
 10
2.091223822699653
 20
-3.037415398491753
 30
0.0
 10
2.083311292860243
 20
-3.102494981553819
 30
0.0
 10
2.081108093261719
 20
-3.167684766981337
 30
0.0
 10
2.079044765896267
 20
-3.228727552625868
 30
0.0
 10
2.120883517795139
 20
-3.276102701822917
 30
0.0
 10
2.181000603569879
 20
-3.287062750922309
 30
0.0
 10
2.212734646267361
 20
-3.292847527398003
 30
0.0
 10
2.245213826497396
 20
-3.294544643825954
 30
0.0
 10
2.274179246690538
 20
-3.297737121582031
 30
0.0
 10
2.305193583170573
 20
-3.29502699110243
 30
0.0
 10
2.332813686794705
 20
-3.293246799045139
 30
0.0
 10
2.360276963975694
 20
-3.290092468261719
 30
0.0
 10
2.434321933322483
 20
-3.281586541069878
 30
0.0
 10
2.482208251953125
 20
-3.22455088297526
 30
0.0
 10
2.477550082736545
 20
-3.150172763400608
 30
0.0
  0
SPLINE
  5
52
330
49
100
AcDbEntity
  8
Controller
370
     0
100
AcDbSpline
210
0.0
220
0.0
230
1.0
 70
    11
 71
     3
 72
    38
 73
    34
 74
     0
 42
0.0000000001
 43
0.0000000001
 12
1.0
 22
0.0
 32
0.0
 13
1.0
 23
0.0
 33
0.0
 40
0.0
 40
0.0
 40
0.0
 40
0.0
 40
1.0
 40
1.0
 40
1.0
 40
2.0
 40
2.0
 40
2.0
 40
3.0
 40
3.0
 40
3.0
 40
4.0
 40
4.0
 40
4.0
 40
5.0
 40
5.0
 40
5.0
 40
6.0
 40
6.0
 40
6.0
 40
7.0
 40
7.0
 40
7.0
 40
8.0
 40
8.0
 40
8.0
 40
9.0
 40
9.0
 40
9.0
 40
10.0
 40
10.0
 40
10.0
 40
11.0
 40
11.0
 40
11.0
 40
11.0
 10
2.841575622558594
 20
-2.736170450846354
 30
0.0
 10
2.838816324869792
 20
-2.705713907877604
 30
0.0
 10
2.837306552463108
 20
-2.679855346679688
 30
0.0
 10
2.833993699815538
 20
-2.654229905870225
 30
0.0
 10
2.824600219726562
 20
-2.581585354275174
 30
0.0
 10
2.774375915527344
 20
-2.537768893771701
 30
0.0
 10
2.701371086968316
 20
-2.540952894422743
 30
0.0
 10
2.644986470540364
 20
-2.543412102593316
 30
0.0
 10
2.588585747612847
 20
-2.547876993815104
 30
0.0
 10
2.532546997070312
 20
-2.554473876953125
 30
0.0
 10
2.515737745496962
 20
-2.556452433268229
 30
0.0
 10
2.497309366861979
 20
-2.565398322211371
 30
0.0
 10
2.484494527180989
 20
-2.5766847398546
 30
0.0
 10
2.44657474093967
 20
-2.610082838270399
 30
0.0
 10
2.410594516330295
 20
-2.645750257703993
 30
0.0
 10
2.374782986111111
 20
-2.681459214952257
 30
0.0
 10
2.336321512858073
 20
-2.719810485839844
 30
0.0
 10
2.335411071777344
 20
-2.751708984375
 30
0.0
 10
2.372781541612413
 20
-2.791745503743489
 30
0.0
 10
2.407683478461371
 20
-2.829136318630642
 30
0.0
 10
2.44366709391276
 20
-2.865626864963108
 30
0.0
 10
2.48097652859158
 20
-2.900591532389323
 30
0.0
 10
2.492230733235677
 20
-2.911139594184028
 30
0.0
 10
2.508973863389757
 20
-2.919762505425347
 30
0.0
 10
2.524109734429253
 20
-2.921537611219618
 30
0.0
 10
2.581915113661024
 20
-2.928317599826389
 30
0.0
 10
2.64001719156901
 20
-2.933378431532118
 30
0.0
 10
2.698148091634114
 20
-2.936370849609375
 30
0.0
 10
2.764768812391493
 20
-2.93979983859592
 30
0.0
 10
2.815945095486111
 20
-2.900108337402344
 30
0.0
 10
2.829113430447049
 20
-2.834927029079861
 30
0.0
 10
2.835951911078559
 20
-2.801081339518229
 30
0.0
 10
2.837926228841146
 20
-2.766253153483073
 30
0.0
 10
2.841575622558594
 20
-2.736170450846354
 30
0.0
  0
SPLINE
  5
53
330
49
100
AcDbEntity
  8
Controller
370
     0
100
AcDbSpline
210
0.0
220
0.0
230
1.0
 70
    11
 71
     3
 72
    17
 73
    13
 74
     0
 42
0.0000000001
 43
0.0000000001
 12
1.0
 22
0.0
 32
0.0
 13
1.0
 23
0.0
 33
0.0
 40
0.0
 40
0.0
 40
0.0
 40
0.0
 40
1.0
 40
1.0
 40
1.0
 40
2.0
 40
2.0
 40
2.0
 40
3.0
 40
3.0
 40
3.0
 40
4.0
 40
4.0
 40
4.0
 40
4.0
 10
3.658444722493489
 20
-3.629614935980903
 30
0.0
 10
3.658368428548177
 20
-3.420871310763889
 30
0.0
 10
3.494591606987847
 20
-3.224889119466146
 30
0.0
 10
3.256409539116753
 20
-3.224901835123698
 30
0.0
 10
3.033883836534288
 20
-3.22491455078125
 30
0.0
 10
2.851290384928385
 20
-3.40967051188151
 30
0.0
 10
2.850920783148871
 20
-3.636121961805555
 30
0.0
 10
2.850559658474392
 20
-3.858044942220052
 30
0.0
 10
3.029751247829861
 20
-4.034108479817708
 30
0.0
 10
3.256162855360243
 20
-4.034289042154947
 30
0.0
 10
3.50415293375651
 20
-4.036800808376736
 30
0.0
 10
3.658518473307292
 20
-3.832848442925347
 30
0.0
 10
3.658444722493489
 20
-3.629614935980903
 30
0.0
  0
SPLINE
  5
54
330
49
100
AcDbEntity
  8
Controller
370
     0
100
AcDbSpline
210
0.0
220
0.0
230
1.0
 70
    11
 71
     3
 72
    17
 73
    13
 74
     0
 42
0.0000000001
 43
0.0000000001
 12
1.0
 22
0.0
 32
0.0
 13
1.0
 23
0.0
 33
0.0
 40
0.0
 40
0.0
 40
0.0
 40
0.0
 40
1.0
 40
1.0
 40
1.0
 40
2.0
 40
2.0
 40
2.0
 40
3.0
 40
3.0
 40
3.0
 40
4.0
 40
4.0
 40
4.0
 40
4.0
 10
4.379753112792969
 20
-3.134130689832899
 30
0.0
 10
4.379483540852864
 20
-3.149792989095052
 30
0.0
 10
4.393064710828993
 20
-3.163077460394965
 30
0.0
 10
4.409165276421441
 20
-3.16290283203125
 30
0.0
 10
4.424589369032118
 20
-3.162734985351562
 30
0.0
 10
4.437262641059028
 20
-3.149950663248698
 30
0.0
 10
4.437109205457899
 20
-3.134714762369792
 30
0.0
 10
4.436940511067708
 20
-3.117997063530816
 30
0.0
 10
4.424457126193576
 20
-3.105666266547309
 30
0.0
 10
4.407952202690972
 20
-3.105914645724826
 30
0.0
 10
4.392815483940972
 20
-3.106141832139757
 30
0.0
 10
4.380014207628038
 20
-3.118950737847222
 30
0.0
 10
4.379753112792969
 20
-3.134130689832899
 30
0.0
  0
SPLINE
  5
55
330
49
100
AcDbEntity
  8
Controller
370
     0
100
AcDbSpline
210
0.0
220
0.0
230
1.0
 70
    11
 71
     3
 72
    17
 73
    13
 74
     0
 42
0.0000000001
 43
0.0000000001
 12
1.0
 22
0.0
 32
0.0
 13
1.0
 23
0.0
 33
0.0
 40
0.0
 40
0.0
 40
0.0
 40
0.0
 40
1.0
 40
1.0
 40
1.0
 40
2.0
 40
2.0
 40
2.0
 40
3.0
 40
3.0
 40
3.0
 40
4.0
 40
4.0
 40
4.0
 40
4.0
 10
4.409254286024305
 20
-3.273973253038194
 30
0.0
 10
4.390686882866754
 20
-3.274325052897135
 30
0.0
 10
4.379765828450521
 20
-3.284722222222222
 30
0.0
 10
4.379981146918403
 20
-3.301841735839844
 30
0.0
 10
4.38019053141276
 20
-3.318450080023871
 30
0.0
 10
4.393046061197916
 20
-3.330660502115885
 30
0.0
 10
4.409646775987413
 20
-3.33001708984375
 30
0.0
 10
4.424977620442708
 20
-3.329423692491319
 30
0.0
 10
4.437487284342447
 20
-3.316370646158854
 30
0.0
 10
4.437263488769531
 20
-3.301201714409722
 30
0.0
 10
4.437018500434028
 20
-3.284584893120659
 30
0.0
 10
4.425780402289496
 20
-3.273660447862413
 30
0.0
 10
4.409254286024305
 20
-3.273973253038194
 30
0.0
  0
SPLINE
  5
56
330
49
100
AcDbEntity
  8
Controller
370
     0
100
AcDbSpline
210
0.0
220
0.0
230
1.0
 70
    11
 71
     3
 72
    17
 73
    13
 74
     0
 42
0.0000000001
 43
0.0000000001
 12
1.0
 22
0.0
 32
0.0
 13
1.0
 23
0.0
 33
0.0
 40
0.0
 40
0.0
 40
0.0
 40
0.0
 40
1.0
 40
1.0
 40
1.0
 40
2.0
 40
2.0
 40
2.0
 40
3.0
 40
3.0
 40
3.0
 40
4.0
 40
4.0
 40
4.0
 40
4.0
 10
4.322118123372396
 20
-3.217798868815104
 30
0.0
 10
4.322378370496962
 20
-3.232809278700087
 30
0.0
 10
4.335377163357204
 20
-3.245124816894531
 30
0.0
 10
4.350963168674045
 20
-3.245129055447048
 30
0.0
 10
4.365245395236545
 20
-3.245132446289062
 30
0.0
 10
4.378482394748263
 20
-3.232498168945312
 30
0.0
 10
4.378639221191406
 20
-3.218711853027344
 30
0.0
 10
4.378815544976129
 20
-3.203278435601128
 30
0.0
 10
4.364853752983941
 20
-3.188962300618489
 30
0.0
 10
4.349768744574653
 20
-3.189107259114583
 30
0.0
 10
4.335064358181423
 20
-3.189247979058159
 30
0.0
 10
4.32186041937934
 20
-3.202949523925781
 30
0.0
 10
4.322118123372396
 20
-3.217798868815104
 30
0.0
  0
SPLINE
  5
57
330
49
100
AcDbEntity
  8
Controller
370
     0
100
AcDbSpline
210
0.0
220
0.0
230
1.0
 70
    11
 71
     3
 72
    17
 73
    13
 74
     0
 42
0.0000000001
 43
0.0000000001
 12
1.0
 22
0.0
 32
0.0
 13
1.0
 23
0.0
 33
0.0
 40
0.0
 40
0.0
 40
0.0
 40
0.0
 40
1.0
 40
1.0
 40
1.0
 40
2.0
 40
2.0
 40
2.0
 40
3.0
 40
3.0
 40
3.0
 40
4.0
 40
4.0
 40
4.0
 40
4.0
 10
4.264227125379774
 20
-3.135906643337673
 30
0.0
 10
4.264271206325954
 20
-3.150583055284288
 30
0.0
 10
4.277645534939236
 20
-3.162894354926215
 30
0.0
 10
4.293293423122829
 20
-3.16266123453776
 30
0.0
 10
4.307811313205295
 20
-3.162444220648871
 30
0.0
 10
4.320755852593316
 20
-3.150313483344184
 30
0.0
 10
4.321305168999566
 20
-3.136408487955729
 30
0.0
 10
4.321941799587673
 20
-3.120318094889323
 30
0.0
 10
4.30926513671875
 20
-3.107033623589409
 30
0.0
 10
4.293088277180989
 20
-3.106841193305121
 30
0.0
 10
4.2772216796875
 20
-3.106652153862847
 30
0.0
 10
4.264178805881076
 20
-3.119788275824653
 30
0.0
 10
4.264227125379774
 20
-3.135906643337673
 30
0.0
  0
SPLINE
  5
58
330
49
100
AcDbEntity
  8
Controller
370
     0
100
AcDbSpline
210
0.0
220
0.0
230
1.0
 70
    11
 71
     3
 72
    17
 73
    13
 74
     0
 42
0.0000000001
 43
0.0000000001
 12
1.0
 22
0.0
 32
0.0
 13
1.0
 23
0.0
 33
0.0
 40
0.0
 40
0.0
 40
0.0
 40
0.0
 40
1.0
 40
1.0
 40
1.0
 40
2.0
 40
2.0
 40
2.0
 40
3.0
 40
3.0
 40
3.0
 40
4.0
 40
4.0
 40
4.0
 40
4.0
 10
4.264125400119357
 20
-3.300311618381076
 30
0.0
 10
4.263858371310763
 20
-3.317125956217448
 30
0.0
 10
4.275866190592447
 20
-3.329945882161458
 30
0.0
 10
4.292127821180555
 20
-3.330208672417534
 30
0.0
 10
4.308297899034288
 20
-3.330469767252604
 30
0.0
 10
4.321287367078993
 20
-3.317570156521267
 30
0.0
 10
4.321216159396701
 20
-3.301319546169704
 30
0.0
 10
4.321146647135416
 20
-3.285635206434462
 30
0.0
 10
4.308626810709635
 20
-3.273302714029948
 30
0.0
 10
4.293105231391059
 20
-3.273632473415798
 30
0.0
 10
4.275941636827257
 20
-3.273997836642795
 30
0.0
 10
4.264373779296875
 20
-3.284647623697917
 30
0.0
 10
4.264125400119357
 20
-3.300311618381076
 30
0.0
  0
SPLINE
  5
59
330
49
100
AcDbEntity
  8
Controller
370
     0
100
AcDbSpline
210
0.0
220
0.0
230
1.0
 70
    11
 71
     3
 72
    17
 73
    13
 74
     0
 42
0.0000000001
 43
0.0000000001
 12
1.0
 22
0.0
 32
0.0
 13
1.0
 23
0.0
 33
0.0
 40
0.0
 40
0.0
 40
0.0
 40
0.0
 40
1.0
 40
1.0
 40
1.0
 40
2.0
 40
2.0
 40
2.0
 40
3.0
 40
3.0
 40
3.0
 40
4.0
 40
4.0
 40
4.0
 40
4.0
 10
4.206393771701388
 20
-3.217583550347222
 30
0.0
 10
4.206266615125868
 20
-3.231918334960938
 30
0.0
 10
4.220193650987413
 20
-3.246069166395399
 30
0.0
 10
4.234406365288629
 20
-3.246047125922309
 30
0.0
 10
4.249539693196614
 20
-3.246024237738715
 30
0.0
 10
4.263198004828559
 20
-3.233179728190104
 30
0.0
 10
4.263458251953125
 20
-3.218728807237413
 30
0.0
 10
4.263722737630208
 20
-3.203985426161024
 30
0.0
 10
4.249063279893663
 20
-3.189012315538194
 30
0.0
 10
4.234417385525173
 20
-3.189066569010417
 30
0.0
 10
4.219928317599826
 20
-3.189120822482639
 30
0.0
 10
4.206524319118923
 20
-3.202759636773003
 30
0.0
 10
4.206393771701388
 20
-3.217583550347222
 30
0.0
  0
SPLINE
  5
5A
330
49
100
AcDbEntity
  8
Controller
370
     0
100
AcDbSpline
210
0.0
220
0.0
230
1.0
 70
    11
 71
     3
 72
    17
 73
    13
 74
     0
 42
0.0000000001
 43
0.0000000001
 12
1.0
 22
0.0
 32
0.0
 13
1.0
 23
0.0
 33
0.0
 40
0.0
 40
0.0
 40
0.0
 40
0.0
 40
1.0
 40
1.0
 40
1.0
 40
2.0
 40
2.0
 40
2.0
 40
3.0
 40
3.0
 40
3.0
 40
4.0
 40
4.0
 40
4.0
 40
4.0
 10
4.148382398817274
 20
-3.135231018066406
 30
0.0
 10
4.148294236924913
 20
-3.151171366373698
 30
0.0
 10
4.16156005859375
 20
-3.163373311360677
 30
0.0
 10
4.178359137641059
 20
-3.16280534532335
 30
0.0
 10
4.194236755371094
 20
-3.162269592285156
 30
0.0
 10
4.205879211425781
 20
-3.150211758083767
 30
0.0
 10
4.205716451009114
 20
-3.134472317165798
 30
0.0
 10
4.205545213487413
 20
-3.117946200900608
 30
0.0
 10
4.193428887261285
 20
-3.106639438205295
 30
0.0
 10
4.176005045572916
 20
-3.106747945149739
 30
0.0
 10
4.161827087402344
 20
-3.1068361070421
 30
0.0
 10
4.148462931315104
 20
-3.120615641276042
 30
0.0
 10
4.148382398817274
 20
-3.135231018066406
 30
0.0
  0
SPLINE
  5
5B
330
49
100
AcDbEntity
  8
Controller
370
     0
100
AcDbSpline
210
0.0
220
0.0
230
1.0
 70
    11
 71
     3
 72
    17
 73
    13
 74
     0
 42
0.0000000001
 43
0.0000000001
 12
1.0
 22
0.0
 32
0.0
 13
1.0
 23
0.0
 33
0.0
 40
0.0
 40
0.0
 40
0.0
 40
0.0
 40
1.0
 40
1.0
 40
1.0
 40
2.0
 40
2.0
 40
2.0
 40
3.0
 40
3.0
 40
3.0
 40
4.0
 40
4.0
 40
4.0
 40
4.0
 10
4.148156907823351
 20
-3.301203409830729
 30
0.0
 10
4.148175557454427
 20
-3.316293504503038
 30
0.0
 10
4.16089121500651
 20
-3.329804314507378
 30
0.0
 10
4.175558302137587
 20
-3.330320570203993
 30
0.0
 10
4.191863165961371
 20
-3.33089362250434
 30
0.0
 10
4.205609639485677
 20
-3.316901312934028
 30
0.0
 10
4.205349392361111
 20
-3.299996270073784
 30
0.0
 10
4.205101013183594
 20
-3.283815171983507
 30
0.0
 10
4.192898220486111
 20
-3.27280765109592
 30
0.0
 10
4.175064086914062
 20
-3.272675408257378
 30
0.0
 10
4.159784105088976
 20
-3.272562662760417
 30
0.0
 10
4.148137410481771
 20
-3.284911261664496
 30
0.0
 10
4.148156907823351
 20
-3.301203409830729
 30
0.0
  0
SPLINE
  5
5C
330
49
100
AcDbEntity
  8
Controller
370
     0
100
AcDbSpline
210
0.0
220
0.0
230
1.0
 70
    11
 71
     3
 72
    17
 73
    13
 74
     0
 42
0.0000000001
 43
0.0000000001
 12
1.0
 22
0.0
 32
0.0
 13
1.0
 23
0.0
 33
0.0
 40
0.0
 40
0.0
 40
0.0
 40
0.0
 40
1.0
 40
1.0
 40
1.0
 40
2.0
 40
2.0
 40
2.0
 40
3.0
 40
3.0
 40
3.0
 40
4.0
 40
4.0
 40
4.0
 40
4.0
 10
4.089447021484375
 20
-3.133273654513889
 30
0.0
 10
4.088832431369357
 20
-3.118258158365885
 30
0.0
 10
4.076893276638454
 20
-3.107031080457899
 30
0.0
 10
4.061715867784288
 20
-3.107196384006076
 30
0.0
 10
4.045552571614583
 20
-3.107372707790799
 30
0.0
 10
4.033338758680555
 20
-3.120470682779948
 30
0.0
 10
4.033833821614583
 20
-3.137098524305555
 30
0.0
 10
4.034294976128472
 20
-3.152577718098958
 30
0.0
 10
4.045629713270399
 20
-3.163115607367621
 30
0.0
 10
4.061450534396701
 20
-3.162772284613715
 30
0.0
 10
4.078623453776041
 20
-3.162399291992188
 30
0.0
 10
4.090142991807726
 20
-3.150261773003472
 30
0.0
 10
4.089447021484375
 20
-3.133273654513889
 30
0.0
  0
SPLINE
  5
5D
330
49
100
AcDbEntity
  8
Controller
370
     0
100
AcDbSpline
210
0.0
220
0.0
230
1.0
 70
    11
 71
     3
 72
    17
 73
    13
 74
     0
 42
0.0000000001
 43
0.0000000001
 12
1.0
 22
0.0
 32
0.0
 13
1.0
 23
0.0
 33
0.0
 40
0.0
 40
0.0
 40
0.0
 40
0.0
 40
1.0
 40
1.0
 40
1.0
 40
2.0
 40
2.0
 40
2.0
 40
3.0
 40
3.0
 40
3.0
 40
4.0
 40
4.0
 40
4.0
 40
4.0
 10
4.119553460015191
 20
-3.245917426215278
 30
0.0
 10
4.135248819986979
 20
-3.245361328125
 30
0.0
 10
4.147650824652778
 20
-3.232723659939236
 30
0.0
 10
4.147388034396701
 20
-3.217555575900608
 30
0.0
 10
4.147117614746094
 20
-3.201978047688802
 30
0.0
 10
4.132932874891493
 20
-3.188313802083333
 30
0.0
 10
4.117596944173177
 20
-3.188857184516059
 30
0.0
 10
4.102882385253906
 20
-3.189377678765191
 30
0.0
 10
4.090832180447048
 20
-3.202804565429688
 30
0.0
 10
4.090982225206163
 20
-3.218510945638021
 30
0.0
 10
4.091126335991754
 20
-3.233639187282986
 30
0.0
 10
4.104483710394965
 20
-3.246450636121962
 30
0.0
 10
4.119553460015191
 20
-3.245917426215278
 30
0.0
  0
SPLINE
  5
5E
330
49
100
AcDbEntity
  8
Controller
370
     0
100
AcDbSpline
210
0.0
220
0.0
230
1.0
 70
    11
 71
     3
 72
    20
 73
    16
 74
     0
 42
0.0000000001
 43
0.0000000001
 12
1.0
 22
0.0
 32
0.0
 13
1.0
 23
0.0
 33
0.0
 40
0.0
 40
0.0
 40
0.0
 40
0.0
 40
1.0
 40
1.0
 40
1.0
 40
2.0
 40
2.0
 40
2.0
 40
3.0
 40
3.0
 40
3.0
 40
4.0
 40
4.0
 40
4.0
 40
5.0
 40
5.0
 40
5.0
 40
5.0
 10
4.477581448025173
 20
-3.654384189181858
 30
0.0
 10
4.471408420138888
 20
-3.631996154785156
 30
0.0
 10
4.468621995713975
 20
-3.607929653591579
 30
0.0
 10
4.458496941460504
 20
-3.587500678168403
 30
0.0
 10
4.404630025227864
 20
-3.478818257649739
 30
0.0
 10
4.265289306640625
 20
-3.45005628797743
 30
0.0
 10
4.172521803114149
 20
-3.528176201714409
 30
0.0
 10
4.121986389160156
 20
-3.570732116699219
 30
0.0
 10
4.101693895128038
 20
-3.625916375054253
 30
0.0
 10
4.115943060980903
 20
-3.690966288248698
 30
0.0
 10
4.130719502766927
 20
-3.758418613009983
 30
0.0
 10
4.169927808973524
 20
-3.805885314941406
 30
0.0
 10
4.238944159613715
 20
-3.822212219238281
 30
0.0
 10
4.361049228244357
 20
-3.8510988023546
 30
0.0
 10
4.469702826605903
 20
-3.792091369628906
 30
0.0
 10
4.477581448025173
 20
-3.654384189181858
 30
0.0
  0
SPLINE
  5
5F
330
49
100
AcDbEntity
  8
Controller
370
     0
100
AcDbSpline
210
0.0
220
0.0
230
1.0
 70
    11
 71
     3
 72
    17
 73
    13
 74
     0
 42
0.0000000001
 43
0.0000000001
 12
1.0
 22
0.0
 32
0.0
 13
1.0
 23
0.0
 33
0.0
 40
0.0
 40
0.0
 40
0.0
 40
0.0
 40
1.0
 40
1.0
 40
1.0
 40
2.0
 40
2.0
 40
2.0
 40
3.0
 40
3.0
 40
3.0
 40
4.0
 40
4.0
 40
4.0
 40
4.0
 10
4.494064331054688
 20
-3.218816969129774
 30
0.0
 10
4.493939717610677
 20
-3.201554192437066
 30
0.0
 10
4.480332268608941
 20
-3.187945048014323
 30
0.0
 10
4.464123196072048
 20
-3.188869900173611
 30
0.0
 10
4.450013902452256
 20
-3.189675225151909
 30
0.0
 10
4.438184950086805
 20
-3.202503628200954
 30
0.0
 10
4.438142564561632
 20
-3.217046101888021
 30
0.0
 10
4.438096788194445
 20
-3.232844034830729
 30
0.0
 10
4.451694064670138
 20
-3.24613783094618
 30
0.0
 10
4.467467414008246
 20
-3.245716518825954
 30
0.0
 10
4.482492234971788
 20
-3.245314704047309
 30
0.0
 10
4.494171142578125
 20
-3.23350355360243
 30
0.0
 10
4.494064331054688
 20
-3.218816969129774
 30
0.0
  0
SPLINE
  5
60
330
49
100
AcDbEntity
  8
Controller
370
     0
100
AcDbSpline
210
0.0
220
0.0
230
1.0
 70
    11
 71
     3
 72
    17
 73
    13
 74
     0
 42
0.0000000001
 43
0.0000000001
 12
1.0
 22
0.0
 32
0.0
 13
1.0
 23
0.0
 33
0.0
 40
0.0
 40
0.0
 40
0.0
 40
0.0
 40
1.0
 40
1.0
 40
1.0
 40
2.0
 40
2.0
 40
2.0
 40
3.0
 40
3.0
 40
3.0
 40
4.0
 40
4.0
 40
4.0
 40
4.0
 10
4.552242702907986
 20
-3.136053297254774
 30
0.0
 10
4.552279154459635
 20
-3.118896484375
 30
0.0
 10
4.540741814507379
 20
-3.106187608506944
 30
0.0
 10
4.524787902832031
 20
-3.105809529622396
 30
0.0
 10
4.508457607693142
 20
-3.105422973632812
 30
0.0
 10
4.496182759602864
 20
-3.117219712999132
 30
0.0
 10
4.495352003309462
 20
-3.134099324544271
 30
0.0
 10
4.494611104329427
 20
-3.14915296766493
 30
0.0
 10
4.508021036783854
 20
-3.162654452853733
 30
0.0
 10
4.524204678005642
 20
-3.163148668077257
 30
0.0
 10
4.540176391601562
 20
-3.163636949327257
 30
0.0
 10
4.552208794487847
 20
-3.152008904351128
 30
0.0
 10
4.552242702907986
 20
-3.136053297254774
 30
0.0
  0
SPLINE
  5
61
330
49
100
AcDbEntity
  8
Controller
370
     0
100
AcDbSpline
210
0.0
220
0.0
230
1.0
 70
    11
 71
     3
 72
    32
 73
    28
 74
     0
 42
0.0000000001
 43
0.0000000001
 12
1.0
 22
0.0
 32
0.0
 13
1.0
 23
0.0
 33
0.0
 40
0.0
 40
0.0
 40
0.0
 40
0.0
 40
1.0
 40
1.0
 40
1.0
 40
2.0
 40
2.0
 40
2.0
 40
3.0
 40
3.0
 40
3.0
 40
4.0
 40
4.0
 40
4.0
 40
5.0
 40
5.0
 40
5.0
 40
6.0
 40
6.0
 40
6.0
 40
7.0
 40
7.0
 40
7.0
 40
8.0
 40
8.0
 40
8.0
 40
9.0
 40
9.0
 40
9.0
 40
9.0
 10
5.499137878417969
 20
-2.186574300130208
 30
0.0
 10
5.500277201334635
 20
-2.2491700914171
 30
0.0
 10
5.5486085679796
 20
-2.296520657009549
 30
0.0
 10
5.609358893500434
 20
-2.296257866753472
 30
0.0
 10
5.66994391547309
 20
-2.295995076497396
 30
0.0
 10
5.71903313530816
 20
-2.246770222981771
 30
0.0
 10
5.720152113172743
 20
-2.184667799207899
 30
0.0
 10
5.720639546712239
 20
-2.157620747884114
 30
0.0
 10
5.720234341091579
 20
-2.130557590060764
 30
0.0
 10
5.720234341091579
 20
-2.103501213921441
 30
0.0
 10
5.719938490125868
 20
-2.103501213921441
 30
0.0
 10
5.719642639160156
 20
-2.103501213921441
 30
0.0
 10
5.719346788194444
 20
-2.103501213921441
 30
0.0
 10
5.719346788194444
 20
-2.079976399739583
 30
0.0
 10
5.719886779785156
 20
-2.056433783637153
 30
0.0
 10
5.719142489963107
 20
-2.032932705349392
 30
0.0
 10
5.718699137369791
 20
-2.01892344156901
 30
0.0
 10
5.718219333224826
 20
-2.004399617513021
 30
0.0
 10
5.71433342827691
 20
-1.991107516818576
 30
0.0
 10
5.699553595648871
 20
-1.940540737575955
 30
0.0
 10
5.646045260959201
 20
-1.906112670898438
 30
0.0
 10
5.594486660427517
 20
-1.912563747829861
 30
0.0
 10
5.538575914171006
 20
-1.919559902615017
 30
0.0
 10
5.500413682725694
 20
-1.959867689344618
 30
0.0
 10
5.498947143554688
 20
-2.017200046115451
 30
0.0
 10
5.497504340277778
 20
-2.073622809516059
 30
0.0
 10
5.498111300998263
 20
-2.130128648546007
 30
0.0
 10
5.499137878417969
 20
-2.186574300130208
 30
0.0
  0
SPLINE
  5
62
330
49
100
AcDbEntity
  8
Controller
370
     0
100
AcDbSpline
210
0.0
220
0.0
230
1.0
 70
    11
 71
     3
 72
    17
 73
    13
 74
     0
 42
0.0000000001
 43
0.0000000001
 12
1.0
 22
0.0
 32
0.0
 13
1.0
 23
0.0
 33
0.0
 40
0.0
 40
0.0
 40
0.0
 40
0.0
 40
1.0
 40
1.0
 40
1.0
 40
2.0
 40
2.0
 40
2.0
 40
3.0
 40
3.0
 40
3.0
 40
4.0
 40
4.0
 40
4.0
 40
4.0
 10
5.730907864040798
 20
-3.626358032226562
 30
0.0
 10
5.726062350802951
 20
-3.397278679741753
 30
0.0
 10
5.544725206163194
 20
-3.225644429524739
 30
0.0
 10
5.313463846842447
 20
-3.231252882215712
 30
0.0
 10
5.101788838704427
 20
-3.236385769314236
 30
0.0
 10
4.921790228949653
 20
-3.424676683213975
 30
0.0
 10
4.926893446180555
 20
-3.635632832845052
 30
0.0
 10
4.927185906304254
 20
-3.875750223795573
 30
0.0
 10
5.117613898383246
 20
-4.047530280219184
 30
0.0
 10
5.346796671549479
 20
-4.041403028700087
 30
0.0
 10
5.561613294813368
 20
-4.035660637749566
 30
0.0
 10
5.735606723361545
 20
-3.848508199055989
 30
0.0
 10
5.730907864040798
 20
-3.626358032226562
 30
0.0
  0
SPLINE
  5
63
330
49
100
AcDbEntity
  8
Controller
370
     0
100
AcDbSpline
210
0.0
220
0.0
230
1.0
 70
    11
 71
     3
 72
    17
 73
    13
 74
     0
 42
0.0000000001
 43
0.0000000001
 12
1.0
 22
0.0
 32
0.0
 13
1.0
 23
0.0
 33
0.0
 40
0.0
 40
0.0
 40
0.0
 40
0.0
 40
1.0
 40
1.0
 40
1.0
 40
2.0
 40
2.0
 40
2.0
 40
3.0
 40
3.0
 40
3.0
 40
4.0
 40
4.0
 40
4.0
 40
4.0
 10
6.057959662543403
 20
-2.740938822428385
 30
0.0
 10
6.057437472873263
 20
-2.614149305555555
 30
0.0
 10
5.955306159125434
 20
-2.513919406467014
 30
0.0
 10
5.826718648274739
 20
-2.514003329806858
 30
0.0
 10
5.702487521701388
 20
-2.514084710015191
 30
0.0
 10
5.601988898383246
 20
-2.616004096137153
 30
0.0
 10
5.602518717447916
 20
-2.741373697916667
 30
0.0
 10
5.603064643012153
 20
-2.870474921332465
 30
0.0
 10
5.702835083007812
 20
-2.970534430609809
 30
0.0
 10
5.830798678927951
 20
-2.970314873589409
 30
0.0
 10
5.960037231445312
 20
-2.9700927734375
 30
0.0
 10
6.05849372016059
 20
-2.870675828721788
 30
0.0
 10
6.057959662543403
 20
-2.740938822428385
 30
0.0
  0
SPLINE
  5
64
330
49
100
AcDbEntity
  8
Controller
370
     0
100
AcDbSpline
210
0.0
220
0.0
230
1.0
 70
    11
 71
     3
 72
    17
 73
    13
 74
     0
 42
0.0000000001
 43
0.0000000001
 12
1.0
 22
0.0
 32
0.0
 13
1.0
 23
0.0
 33
0.0
 40
0.0
 40
0.0
 40
0.0
 40
0.0
 40
1.0
 40
1.0
 40
1.0
 40
2.0
 40
2.0
 40
2.0
 40
3.0
 40
3.0
 40
3.0
 40
4.0
 40
4.0
 40
4.0
 40
4.0
 10
6.074022081163194
 20
-2.268977695041233
 30
0.0
 10
6.074860466851129
 20
-2.395868089463975
 30
0.0
 10
6.176578097873263
 20
-2.496596442328559
 30
0.0
 10
6.303066677517361
 20
-2.495795355902778
 30
0.0
 10
6.433390299479166
 20
-2.494969685872396
 30
0.0
 10
6.530103047688802
 20
-2.396574232313368
 30
0.0
 10
6.529065450032552
 20
-2.265864902072483
 30
0.0
 10
6.528072781032986
 20
-2.140870836046007
 30
0.0
 10
6.42588636610243
 20
-2.04101816813151
 30
0.0
 10
6.299450344509548
 20
-2.041494581434462
 30
0.0
 10
6.172817654079861
 20
-2.041970994737413
 30
0.0
 10
6.073185390896267
 20
-2.142512003580729
 30
0.0
 10
6.074022081163194
 20
-2.268977695041233
 30
0.0
  0
SPLINE
  5
65
330
49
100
AcDbEntity
  8
Controller
370
     0
100
AcDbSpline
210
0.0
220
0.0
230
1.0
 70
    11
 71
     3
 72
    17
 73
    13
 74
     0
 42
0.0000000001
 43
0.0000000001
 12
1.0
 22
0.0
 32
0.0
 13
1.0
 23
0.0
 33
0.0
 40
0.0
 40
0.0
 40
0.0
 40
0.0
 40
1.0
 40
1.0
 40
1.0
 40
2.0
 40
2.0
 40
2.0
 40
3.0
 40
3.0
 40
3.0
 40
4.0
 40
4.0
 40
4.0
 40
4.0
 10
6.534745110405815
 20
-3.22135755750868
 30
0.0
 10
6.534785800509982
 20
-3.092696295844184
 30
0.0
 10
6.432156032986111
 20
-2.98976813422309
 30
0.0
 10
6.303815205891927
 20
-2.989757113986545
 30
0.0
 10
6.178724500868055
 20
-2.989745246039496
 30
0.0
 10
6.077379862467447
 20
-3.091559516059028
 30
0.0
 10
6.077349344889322
 20
-3.217272440592448
 30
0.0
 10
6.077316284179688
 20
-3.348682827419704
 30
0.0
 10
6.176498413085938
 20
-3.449345906575521
 30
0.0
 10
6.306244744194878
 20
-3.449586656358507
 30
0.0
 10
6.435454474555121
 20
-3.449825710720486
 30
0.0
 10
6.534704420301649
 20
-3.350694444444444
 30
0.0
 10
6.534745110405815
 20
-3.22135755750868
 30
0.0
  0
SPLINE
  5
66
330
49
100
AcDbEntity
  8
Controller
370
     0
100
AcDbSpline
210
0.0
220
0.0
230
1.0
 70
    11
 71
     3
 72
    17
 73
    13
 74
     0
 42
0.0000000001
 43
0.0000000001
 12
1.0
 22
0.0
 32
0.0
 13
1.0
 23
0.0
 33
0.0
 40
0.0
 40
0.0
 40
0.0
 40
0.0
 40
1.0
 40
1.0
 40
1.0
 40
2.0
 40
2.0
 40
2.0
 40
3.0
 40
3.0
 40
3.0
 40
4.0
 40
4.0
 40
4.0
 40
4.0
 10
7.005161709255642
 20
-2.74760013156467
 30
0.0
 10
7.006676567925346
 20
-2.621389600965712
 30
0.0
 10
6.90586937798394
 20
-2.517328050401475
 30
0.0
 10
6.780509101019965
 20
-2.515692816840278
 30
0.0
 10
6.654100206163194
 20
-2.514044019911024
 30
0.0
 10
6.549670749240451
 20
-2.613684760199653
 30
0.0
 10
6.548255920410156
 20
-2.737294514973958
 30
0.0
 10
6.546749538845486
 20
-2.868966844346788
 30
0.0
 10
6.644427829318576
 20
-2.971109178331163
 30
0.0
 10
6.773517184787326
 20
-2.972848680284288
 30
0.0
 10
6.906014336480034
 20
-2.974634806315104
 30
0.0
 10
7.003576490614149
 20
-2.879766676161024
 30
0.0
 10
7.005161709255642
 20
-2.74760013156467
 30
0.0
  0
ENDBLK
  5
4C
330
49
100
AcDbEntity
  8
0
100
AcDbBlockEnd
  0
ENDSEC
  0
SECTION
  2
ENTITIES
  0
SPLINE
  5
41
330
1F
100
AcDbEntity
  8
Controller
 62
   179
420
  2301728
370
    35
100
AcDbSpline
210
0.0
220
0.0
230
1.0
 70
    11
 71
     3
 72
   143
 73
   139
 74
     0
 42
0.0000000001
 43
0.0000000001
 12
1.0
 22
0.0
 32
0.0
 13
1.0
 23
0.0
 33
0.0
 40
0.0
 40
0.0
 40
0.0
 40
0.0
 40
1.0
 40
1.0
 40
1.0
 40
2.0
 40
2.0
 40
2.0
 40
3.0
 40
3.0
 40
3.0
 40
4.0
 40
4.0
 40
4.0
 40
5.0
 40
5.0
 40
5.0
 40
6.0
 40
6.0
 40
6.0
 40
7.0
 40
7.0
 40
7.0
 40
8.0
 40
8.0
 40
8.0
 40
9.0
 40
9.0
 40
9.0
 40
10.0
 40
10.0
 40
10.0
 40
11.0
 40
11.0
 40
11.0
 40
12.0
 40
12.0
 40
12.0
 40
13.0
 40
13.0
 40
13.0
 40
14.0
 40
14.0
 40
14.0
 40
15.0
 40
15.0
 40
15.0
 40
16.0
 40
16.0
 40
16.0
 40
17.0
 40
17.0
 40
17.0
 40
18.0
 40
18.0
 40
18.0
 40
19.0
 40
19.0
 40
19.0
 40
20.0
 40
20.0
 40
20.0
 40
21.0
 40
21.0
 40
21.0
 40
22.0
 40
22.0
 40
22.0
 40
23.0
 40
23.0
 40
23.0
 40
24.0
 40
24.0
 40
24.0
 40
25.0
 40
25.0
 40
25.0
 40
26.0
 40
26.0
 40
26.0
 40
27.0
 40
27.0
 40
27.0
 40
28.0
 40
28.0
 40
28.0
 40
29.0
 40
29.0
 40
29.0
 40
30.0
 40
30.0
 40
30.0
 40
31.0
 40
31.0
 40
31.0
 40
32.0
 40
32.0
 40
32.0
 40
33.0
 40
33.0
 40
33.0
 40
34.0
 40
34.0
 40
34.0
 40
35.0
 40
35.0
 40
35.0
 40
36.0
 40
36.0
 40
36.0
 40
37.0
 40
37.0
 40
37.0
 40
38.0
 40
38.0
 40
38.0
 40
39.0
 40
39.0
 40
39.0
 40
40.0
 40
40.0
 40
40.0
 40
41.0
 40
41.0
 40
41.0
 40
42.0
 40
42.0
 40
42.0
 40
43.0
 40
43.0
 40
43.0
 40
44.0
 40
44.0
 40
44.0
 40
45.0
 40
45.0
 40
45.0
 40
46.0
 40
46.0
 40
46.0
 40
46.0
 10
1.865518574954889
 20
-1.716173679456422
 30
0.0
 10
1.865518574954889
 20
-1.716173679456422
 30
0.0
 10
1.677013320500931
 20
-2.022494717944091
 30
0.0
 10
1.618105428484076
 20
-2.140310501977814
 30
0.0
 10
1.559197536467208
 20
-2.258126286011538
 30
0.0
 10
1.282330443987967
 20
-3.218324925886362
 30
0.0
 10
1.229313341172795
 20
-3.495192018365603
 30
0.0
 10
1.176296238357622
 20
-3.772059110844869
 30
0.0
 10
1.070262032727265
 20
-4.278666982189861
 30
0.0
 10
1.082043611130644
 20
-4.602660388282604
 30
0.0
 10
1.093825189534009
 20
-4.926653794375321
 30
0.0
 10
1.105606767937388
 20
-5.174066940846134
 30
0.0
 10
1.241094919576161
 20
-5.327227460089969
 30
0.0
 10
1.376583071214946
 20
-5.480387979333803
 30
0.0
 10
1.451533188676131
 20
-5.553916418964036
 30
0.0
 10
1.652635092613827
 20
-5.552496934359042
 30
0.0
 10
1.85373699655151
 20
-5.551077449754049
 30
0.0
 10
1.965661991383551
 20
-5.551077449754049
 30
0.0
 10
2.089368564618957
 20
-5.445043244123704
 30
0.0
 10
2.213075137854364
 20
-5.33900903849336
 30
0.0
 10
2.348563289493149
 20
-5.1858485192495
 30
0.0
 10
2.431034338316749
 20
-5.015015632400617
 30
0.0
 10
2.513505387140349
 20
-4.844182745551708
 30
0.0
 10
2.719683009199369
 20
-4.243322246979738
 30
0.0
 10
2.731464587602734
 20
-4.213868300971322
 30
0.0
 10
2.743246166006113
 20
-4.184414354962882
 30
0.0
 10
2.737355376804417
 20
-4.184414354962882
 30
0.0
 10
2.772700112014541
 20
-4.172632776559516
 30
0.0
 10
2.808044847224652
 20
-4.16085119815615
 30
0.0
 10
2.837498793233092
 20
-4.143178830551076
 30
0.0
 10
2.837498793233092
 20
-4.143178830551076
 30
0.0
 10
2.837498793233092
 20
-4.143178830551076
 30
0.0
 10
2.984768523275243
 20
-4.29633934979491
 30
0.0
 10
3.226290880544361
 20
-4.29633934979491
 30
0.0
 10
3.467813237813491
 20
-4.29633934979491
 30
0.0
 10
3.732898751889365
 20
-4.107834095340952
 30
0.0
 10
3.732898751889365
 20
-4.107834095340952
 30
0.0
 10
3.732898751889365
 20
-4.107834095340952
 30
0.0
 10
4.822694754201292
 20
-4.107834095340952
 30
0.0
 10
4.822694754201292
 20
-4.107834095340952
 30
0.0
 10
4.822694754201292
 20
-4.107834095340952
 30
0.0
 10
5.052435533067031
 20
-4.308120928198301
 30
0.0
 10
5.270394733529429
 20
-4.308120928198301
 30
0.0
 10
5.488353933991801
 20
-4.308120928198301
 30
0.0
 10
5.735767080462614
 20
-4.143178830551076
 30
0.0
 10
5.735767080462614
 20
-4.143178830551076
 30
0.0
 10
5.735767080462614
 20
-4.143178830551076
 30
0.0
 10
5.782893394076104
 20
-4.143178830551076
 30
0.0
 10
5.806456550882861
 20
-4.172632776559516
 30
0.0
 10
5.830019707689593
 20
-4.202086722567931
 30
0.0
 10
5.971398648530061
 20
-4.555534074669089
 30
0.0
 10
6.024415751345233
 20
-4.679240647904508
 30
0.0
 10
6.077432854160431
 20
-4.802947221139927
 30
0.0
 10
6.148122324580653
 20
-5.009124843198909
 30
0.0
 10
6.242374951807632
 20
-5.168176151644452
 30
0.0
 10
6.33662757903461
 20
-5.327227460089969
 30
0.0
 10
6.466224941471687
 20
-5.462715611728754
 30
0.0
 10
6.601713093110472
 20
-5.527514292947292
 30
0.0
 10
6.737201244749258
 20
-5.592312974165856
 30
0.0
 10
6.931597288404898
 20
-5.58053139576249
 30
0.0
 10
6.996395969623436
 20
-5.562859028157416
 30
0.0
 10
7.061194650842
 20
-5.545186660552341
 30
0.0
 10
7.184901224077394
 20
-5.50395113614056
 30
0.0
 10
7.296826218909422
 20
-5.368462984501775
 30
0.0
 10
7.408751213741475
 20
-5.23297483286299
 30
0.0
 10
7.461768316556648
 20
-5.009124843198909
 30
0.0
 10
7.491222262565063
 20
-4.850073534753392
 30
0.0
 10
7.520676208573503
 20
-4.691022226307874
 30
0.0
 10
7.497113051766771
 20
-4.184414354962882
 30
0.0
 10
7.444095948951573
 20
-3.937001208492044
 30
0.0
 10
7.391078846136401
 20
-3.689588062021256
 30
0.0
 10
7.149556488867271
 20
-2.670481530129564
 30
0.0
 10
7.149556488867271
 20
-2.670481530129564
 30
0.0
 10
7.149556488867271
 20
-2.670481530129564
 30
0.0
 10
7.102430175253781
 20
-2.364160491641883
 30
0.0
 10
7.014068337228511
 20
-2.234563129204793
 30
0.0
 10
6.925706499203216
 20
-2.104965766767704
 30
0.0
 10
6.772545979959381
 20
-1.839880252691829
 30
0.0
 10
6.743092033950941
 20
-1.798644728280022
 30
0.0
 10
6.7136380879425
 20
-1.757409203868216
 30
0.0
 10
6.7136380879425
 20
-1.757409203868216
 30
0.0
 10
6.7136380879425
 20
-1.757409203868216
 30
0.0
 10
6.7136380879425
 20
-1.757409203868216
 30
0.0
 10
6.642436768919525
 20
-1.712491540705602
 30
0.0
 10
6.642436768919525
 20
-1.712491540705602
 30
0.0
 10
6.642436768919525
 20
-1.712491540705602
 30
0.0
 10
6.648839406723962
 20
-1.663156576641237
 30
0.0
 10
6.648839406723962
 20
-1.663156576641237
 30
0.0
 10
6.648839406723962
 20
-1.663156576641237
 30
0.0
 10
6.46023319196681
 20
-1.55623220890728
 30
0.0
 10
6.239379077055193
 20
-1.553731895358245
 30
0.0
 10
6.018524962143551
 20
-1.55123158180921
 30
0.0
 10
5.87513414996172
 20
-1.617624342800986
 30
0.0
 10
5.87513414996172
 20
-1.617624342800986
 30
0.0
 10
5.87513414996172
 20
-1.617624342800986
 30
0.0
 10
5.856570829253516
 20
-1.698348361306532
 30
0.0
 10
5.856570829253516
 20
-1.698348361306532
 30
0.0
 10
5.856570829253516
 20
-1.698348361306532
 30
0.0
 10
5.847692075294668
 20
-1.686719733447982
 30
0.0
 10
5.788784183277812
 20
-1.727955257859788
 30
0.0
 10
5.729876291260931
 20
-1.769190782271595
 30
0.0
 10
5.653296031639027
 20
-1.769190782271595
 30
0.0
 10
5.570824982815414
 20
-1.763299993069912
 30
0.0
 10
5.488353933991801
 20
-1.757409203868216
 30
0.0
 10
5.359184718025745
 20
-1.807846821272644
 30
0.0
 10
5.359184718025745
 20
-1.807846821272644
 30
0.0
 10
5.359184718025745
 20
-1.807846821272644
 30
0.0
 10
5.329321476071729
 20
-1.733846047061471
 30
0.0
 10
5.329321476071729
 20
-1.733846047061471
 30
0.0
 10
5.329321476071729
 20
-1.733846047061471
 30
0.0
 10
3.249835186825673
 20
-1.733846047061471
 30
0.0
 10
3.249835186825673
 20
-1.733846047061471
 30
0.0
 10
3.249835186825673
 20
-1.733846047061471
 30
0.0
 10
3.232181669746056
 20
-1.775081571473278
 30
0.0
 10
3.232181669746056
 20
-1.775081571473278
 30
0.0
 10
3.232181669746056
 20
-1.775081571473278
 30
0.0
 10
3.120256674914016
 20
-1.775081571473278
 30
0.0
 10
3.037785626090415
 20
-1.775081571473278
 30
0.0
 10
2.955314577266803
 20
-1.775081571473278
 30
0.0
 10
2.884625106846569
 20
-1.775081571473278
 30
0.0
 10
2.855171160838141
 20
-1.751518414666533
 30
0.0
 10
2.825717214829713
 20
-1.727955257859788
 30
0.0
 10
2.730777928104607
 20
-1.692772677552625
 30
0.0
 10
2.730777928104607
 20
-1.692772677552625
 30
0.0
 10
2.730777928104607
 20
-1.692772677552625
 30
0.0
 10
2.727117685658868
 20
-1.627049138114861
 30
0.0
 10
2.727117685658868
 20
-1.627049138114861
 30
0.0
 10
2.727117685658868
 20
-1.627049138114861
 30
0.0
 10
2.590085646762266
 20
-1.527668425002465
 30
0.0
 10
2.33678171108977
 20
-1.55123158180921
 30
0.0
 10
2.083477775417274
 20
-1.574794738615954
 30
0.0
 10
1.936208045375123
 20
-1.639593419834505
 30
0.0
 10
1.936208045375123
 20
-1.639593419834505
 30
0.0
 10
1.936208045375123
 20
-1.639593419834505
 30
0.0
 10
1.930317256173427
 20
-1.686719733447982
 30
0.0
 10
1.930317256173427
 20
-1.686719733447982
 30
0.0
 10
1.930317256173427
 20
-1.686719733447982
 30
0.0
 10
1.865518574954889
 20
-1.716173679456422
 30
0.0
 10
1.865518574954889
 20
-1.716173679456422
 30
0.0
  0
HATCH
  5
42
330
1F
100
AcDbEntity
  8
Controller
 62
   179
420
  2301728
100
AcDbHatch
 10
0.0
 20
0.0
 30
0.0
210
0.0
220
0.0
230
1.0
  2
SOLID
 70
     1
 71
     0
 91
        1
 92
        1
 93
        1
 72
     4
 94
        3
 73
     0
 74
     1
 95
      143
 96
      139
 40
0.0
 40
0.0
 40
0.0
 40
0.0
 40
1.0
 40
1.0
 40
1.0
 40
2.0
 40
2.0
 40
2.0
 40
3.0
 40
3.0
 40
3.0
 40
4.0
 40
4.0
 40
4.0
 40
5.0
 40
5.0
 40
5.0
 40
6.0
 40
6.0
 40
6.0
 40
7.0
 40
7.0
 40
7.0
 40
8.0
 40
8.0
 40
8.0
 40
9.0
 40
9.0
 40
9.0
 40
10.0
 40
10.0
 40
10.0
 40
11.0
 40
11.0
 40
11.0
 40
12.0
 40
12.0
 40
12.0
 40
13.0
 40
13.0
 40
13.0
 40
14.0
 40
14.0
 40
14.0
 40
15.0
 40
15.0
 40
15.0
 40
16.0
 40
16.0
 40
16.0
 40
17.0
 40
17.0
 40
17.0
 40
18.0
 40
18.0
 40
18.0
 40
19.0
 40
19.0
 40
19.0
 40
20.0
 40
20.0
 40
20.0
 40
21.0
 40
21.0
 40
21.0
 40
22.0
 40
22.0
 40
22.0
 40
23.0
 40
23.0
 40
23.0
 40
24.0
 40
24.0
 40
24.0
 40
25.0
 40
25.0
 40
25.0
 40
26.0
 40
26.0
 40
26.0
 40
27.0
 40
27.0
 40
27.0
 40
28.0
 40
28.0
 40
28.0
 40
29.0
 40
29.0
 40
29.0
 40
30.0
 40
30.0
 40
30.0
 40
31.0
 40
31.0
 40
31.0
 40
32.0
 40
32.0
 40
32.0
 40
33.0
 40
33.0
 40
33.0
 40
34.0
 40
34.0
 40
34.0
 40
35.0
 40
35.0
 40
35.0
 40
36.0
 40
36.0
 40
36.0
 40
37.0
 40
37.0
 40
37.0
 40
38.0
 40
38.0
 40
38.0
 40
39.0
 40
39.0
 40
39.0
 40
40.0
 40
40.0
 40
40.0
 40
41.0
 40
41.0
 40
41.0
 40
42.0
 40
42.0
 40
42.0
 40
43.0
 40
43.0
 40
43.0
 40
44.0
 40
44.0
 40
44.0
 40
45.0
 40
45.0
 40
45.0
 40
46.0
 40
46.0
 40
46.0
 40
46.0
 10
1.865518574954889
 20
-1.716173679456422
 10
1.865518574954889
 20
-1.716173679456422
 10
1.677013320500931
 20
-2.022494717944091
 10
1.618105428484076
 20
-2.140310501977814
 10
1.559197536467208
 20
-2.258126286011538
 10
1.282330443987967
 20
-3.218324925886362
 10
1.229313341172795
 20
-3.495192018365603
 10
1.176296238357622
 20
-3.772059110844869
 10
1.070262032727265
 20
-4.278666982189861
 10
1.082043611130644
 20
-4.602660388282604
 10
1.093825189534009
 20
-4.926653794375321
 10
1.105606767937388
 20
-5.174066940846134
 10
1.241094919576161
 20
-5.327227460089969
 10
1.376583071214946
 20
-5.480387979333803
 10
1.451533188676131
 20
-5.553916418964036
 10
1.652635092613827
 20
-5.552496934359042
 10
1.85373699655151
 20
-5.551077449754049
 10
1.965661991383551
 20
-5.551077449754049
 10
2.089368564618957
 20
-5.445043244123704
 10
2.213075137854364
 20
-5.33900903849336
 10
2.348563289493149
 20
-5.1858485192495
 10
2.431034338316749
 20
-5.015015632400617
 10
2.513505387140349
 20
-4.844182745551708
 10
2.719683009199369
 20
-4.243322246979738
 10
2.731464587602734
 20
-4.213868300971322
 10
2.743246166006113
 20
-4.184414354962882
 10
2.737355376804417
 20
-4.184414354962882
 10
2.772700112014541
 20
-4.172632776559516
 10
2.808044847224652
 20
-4.16085119815615
 10
2.837498793233092
 20
-4.143178830551076
 10
2.837498793233092
 20
-4.143178830551076
 10
2.837498793233092
 20
-4.143178830551076
 10
2.984768523275243
 20
-4.29633934979491
 10
3.226290880544361
 20
-4.29633934979491
 10
3.467813237813491
 20
-4.29633934979491
 10
3.732898751889365
 20
-4.107834095340952
 10
3.732898751889365
 20
-4.107834095340952
 10
3.732898751889365
 20
-4.107834095340952
 10
4.822694754201292
 20
-4.107834095340952
 10
4.822694754201292
 20
-4.107834095340952
 10
4.822694754201292
 20
-4.107834095340952
 10
5.052435533067031
 20
-4.308120928198301
 10
5.270394733529429
 20
-4.308120928198301
 10
5.488353933991801
 20
-4.308120928198301
 10
5.735767080462614
 20
-4.143178830551076
 10
5.735767080462614
 20
-4.143178830551076
 10
5.735767080462614
 20
-4.143178830551076
 10
5.782893394076104
 20
-4.143178830551076
 10
5.806456550882861
 20
-4.172632776559516
 10
5.830019707689593
 20
-4.202086722567931
 10
5.971398648530061
 20
-4.555534074669089
 10
6.024415751345233
 20
-4.679240647904508
 10
6.077432854160431
 20
-4.802947221139927
 10
6.148122324580653
 20
-5.009124843198909
 10
6.242374951807632
 20
-5.168176151644452
 10
6.33662757903461
 20
-5.327227460089969
 10
6.466224941471687
 20
-5.462715611728754
 10
6.601713093110472
 20
-5.527514292947292
 10
6.737201244749258
 20
-5.592312974165856
 10
6.931597288404898
 20
-5.58053139576249
 10
6.996395969623436
 20
-5.562859028157416
 10
7.061194650842
 20
-5.545186660552341
 10
7.184901224077394
 20
-5.50395113614056
 10
7.296826218909422
 20
-5.368462984501775
 10
7.408751213741475
 20
-5.23297483286299
 10
7.461768316556648
 20
-5.009124843198909
 10
7.491222262565063
 20
-4.850073534753392
 10
7.520676208573503
 20
-4.691022226307874
 10
7.497113051766771
 20
-4.184414354962882
 10
7.444095948951573
 20
-3.937001208492044
 10
7.391078846136401
 20
-3.689588062021256
 10
7.149556488867271
 20
-2.670481530129564
 10
7.149556488867271
 20
-2.670481530129564
 10
7.149556488867271
 20
-2.670481530129564
 10
7.102430175253781
 20
-2.364160491641883
 10
7.014068337228511
 20
-2.234563129204793
 10
6.925706499203216
 20
-2.104965766767704
 10
6.772545979959381
 20
-1.839880252691829
 10
6.743092033950941
 20
-1.798644728280022
 10
6.7136380879425
 20
-1.757409203868216
 10
6.7136380879425
 20
-1.757409203868216
 10
6.7136380879425
 20
-1.757409203868216
 10
6.7136380879425
 20
-1.757409203868216
 10
6.642436768919525
 20
-1.712491540705602
 10
6.642436768919525
 20
-1.712491540705602
 10
6.642436768919525
 20
-1.712491540705602
 10
6.648839406723962
 20
-1.663156576641237
 10
6.648839406723962
 20
-1.663156576641237
 10
6.648839406723962
 20
-1.663156576641237
 10
6.46023319196681
 20
-1.55623220890728
 10
6.239379077055193
 20
-1.553731895358245
 10
6.018524962143551
 20
-1.55123158180921
 10
5.87513414996172
 20
-1.617624342800986
 10
5.87513414996172
 20
-1.617624342800986
 10
5.87513414996172
 20
-1.617624342800986
 10
5.856570829253516
 20
-1.698348361306532
 10
5.856570829253516
 20
-1.698348361306532
 10
5.856570829253516
 20
-1.698348361306532
 10
5.847692075294668
 20
-1.686719733447982
 10
5.788784183277812
 20
-1.727955257859788
 10
5.729876291260931
 20
-1.769190782271595
 10
5.653296031639027
 20
-1.769190782271595
 10
5.570824982815414
 20
-1.763299993069912
 10
5.488353933991801
 20
-1.757409203868216
 10
5.359184718025745
 20
-1.807846821272644
 10
5.359184718025745
 20
-1.807846821272644
 10
5.359184718025745
 20
-1.807846821272644
 10
5.329321476071729
 20
-1.733846047061471
 10
5.329321476071729
 20
-1.733846047061471
 10
5.329321476071729
 20
-1.733846047061471
 10
3.249835186825673
 20
-1.733846047061471
 10
3.249835186825673
 20
-1.733846047061471
 10
3.249835186825673
 20
-1.733846047061471
 10
3.232181669746056
 20
-1.775081571473278
 10
3.232181669746056
 20
-1.775081571473278
 10
3.232181669746056
 20
-1.775081571473278
 10
3.120256674914016
 20
-1.775081571473278
 10
3.037785626090415
 20
-1.775081571473278
 10
2.955314577266803
 20
-1.775081571473278
 10
2.884625106846569
 20
-1.775081571473278
 10
2.855171160838141
 20
-1.751518414666533
 10
2.825717214829713
 20
-1.727955257859788
 10
2.730777928104607
 20
-1.692772677552625
 10
2.730777928104607
 20
-1.692772677552625
 10
2.730777928104607
 20
-1.692772677552625
 10
2.727117685658868
 20
-1.627049138114861
 10
2.727117685658868
 20
-1.627049138114861
 10
2.727117685658868
 20
-1.627049138114861
 10
2.590085646762266
 20
-1.527668425002465
 10
2.33678171108977
 20
-1.55123158180921
 10
2.083477775417274
 20
-1.574794738615954
 10
1.936208045375123
 20
-1.639593419834505
 10
1.936208045375123
 20
-1.639593419834505
 10
1.936208045375123
 20
-1.639593419834505
 10
1.930317256173427
 20
-1.686719733447982
 10
1.930317256173427
 20
-1.686719733447982
 10
1.930317256173427
 20
-1.686719733447982
 10
1.865518574954889
 20
-1.716173679456422
 10
1.865518574954889
 20
-1.716173679456422
 97
        0
 97
        0
 75
     2
 76
     1
 98
        0
  0
SPLINE
  5
43
330
1F
100
AcDbEntity
  8
Controller
370
     0
100
AcDbSpline
210
0.0
220
0.0
230
1.0
 70
    11
 71
     3
 72
    23
 73
    19
 74
     0
 42
0.0000000001
 43
0.0000000001
 12
1.0
 22
0.0
 32
0.0
 13
1.0
 23
0.0
 33
0.0
 40
0.0
 40
0.0
 40
0.0
 40
0.0
 40
1.0
 40
1.0
 40
1.0
 40
2.0
 40
2.0
 40
2.0
 40
3.0
 40
3.0
 40
3.0
 40
4.0
 40
4.0
 40
4.0
 40
5.0
 40
5.0
 40
5.0
 40
6.0
 40
6.0
 40
6.0
 40
6.0
 10
3.991099887424045
 20
-4.105396694607204
 30
0.0
 10
3.991099887424045
 20
-4.105396694607204
 30
0.0
 10
4.601771036783854
 20
-4.105396694607204
 30
0.0
 10
4.601771036783854
 20
-4.105396694607204
 30
0.0
 10
4.590646531846788
 20
-4.114347669813368
 30
0.0
 10
4.578091091579861
 20
-4.11700439453125
 30
0.0
 10
4.56445566813151
 20
-4.116878933376736
 30
0.0
 10
4.505640665690104
 20
-4.116338094075521
 30
0.0
 10
4.446825663248697
 20
-4.11576165093316
 30
0.0
 10
4.388013203938802
 20
-4.115023295084635
 30
0.0
 10
4.273892720540364
 20
-4.113591512044271
 30
0.0
 10
4.159773932562934
 20
-4.112068176269531
 30
0.0
 10
4.045655992296007
 20
-4.110496520996094
 30
0.0
 10
4.032719930013021
 20
-4.110318501790364
 30
0.0
 10
4.019629584418403
 20
-4.110690646701388
 30
0.0
 10
4.006904602050781
 20
-4.108813815646701
 30
0.0
 10
4.001719156901041
 20
-4.10804918077257
 30
0.0
 10
3.996517605251736
 20
-4.106813218858507
 30
0.0
 10
3.991099887424045
 20
-4.105396694607204
 30
0.0
  0
SPLINE
  5
44
330
1F
100
AcDbEntity
  8
Controller
370
     0
100
AcDbSpline
210
0.0
220
0.0
230
1.0
 70
    11
 71
     3
 72
    11
 73
     7
 74
     0
 42
0.0000000001
 43
0.0000000001
 12
1.0
 22
0.0
 32
0.0
 13
1.0
 23
0.0
 33
0.0
 40
0.0
 40
0.0
 40
0.0
 40
0.0
 40
1.0
 40
1.0
 40
1.0
 40
2.0
 40
2.0
 40
2.0
 40
2.0
 10
2.535562303331163
 20
-1.555430942111545
 30
0.0
 10
2.547898186577691
 20
-1.557803683810764
 30
0.0
 10
2.560209486219618
 20
-1.560282389322917
 30
0.0
 10
2.572495354546441
 20
-1.562860276963976
 30
0.0
 10
2.560828314887153
 20
-1.560151841905382
 30
0.0
 10
2.548504299587674
 20
-1.557657029893663
 30
0.0
 10
2.535562303331163
 20
-1.555430942111545
 30
0.0
  0
SPLINE
  5
45
330
1F
100
AcDbEntity
  8
Controller
370
     0
100
AcDbSpline
210
0.0
220
0.0
230
1.0
 70
    11
 71
     3
 72
    17
 73
    13
 74
     0
 42
0.0000000001
 43
0.0000000001
 12
1.0
 22
0.0
 32
0.0
 13
1.0
 23
0.0
 33
0.0
 40
0.0
 40
0.0
 40
0.0
 40
0.0
 40
1.0
 40
1.0
 40
1.0
 40
2.0
 40
2.0
 40
2.0
 40
3.0
 40
3.0
 40
3.0
 40
4.0
 40
4.0
 40
4.0
 40
4.0
 10
6.772505866156684
 20
-2.589866638183594
 30
0.0
 10
6.694032457139756
 20
-2.588185628255208
 30
0.0
 10
6.628404405381944
 20
-2.654697842068142
 30
0.0
 10
6.627800835503471
 20
-2.736520555284288
 30
0.0
 10
6.627193874782986
 20
-2.81874508327908
 30
0.0
 10
6.690110948350694
 20
-2.884546915690104
 30
0.0
 10
6.77002207438151
 20
-2.885262383355034
 30
0.0
 10
6.854493882921006
 20
-2.886018541124132
 30
0.0
 10
6.919351365831163
 20
-2.824693467881944
 30
0.0
 10
6.92027367485894
 20
-2.743197123209635
 30
0.0
 10
6.921213785807291
 20
-2.660052829318576
 30
0.0
 10
6.855283101399739
 20
-2.591639200846354
 30
0.0
 10
6.772505866156684
 20
-2.589866638183594
 30
0.0
  0
SPLINE
  5
46
330
1F
100
AcDbEntity
  8
Controller
370
     0
100
AcDbSpline
210
0.0
220
0.0
230
1.0
 70
    11
 71
     3
 72
    17
 73
    13
 74
     0
 42
0.0000000001
 43
0.0000000001
 12
1.0
 22
0.0
 32
0.0
 13
1.0
 23
0.0
 33
0.0
 40
0.0
 40
0.0
 40
0.0
 40
0.0
 40
1.0
 40
1.0
 40
1.0
 40
2.0
 40
2.0
 40
2.0
 40
3.0
 40
3.0
 40
3.0
 40
4.0
 40
4.0
 40
4.0
 40
4.0
 10
5.705096774631076
 20
-2.854562547471788
 30
0.0
 10
5.789049784342447
 20
-2.854562547471788
 30
0.0
 10
5.869534810384114
 20
-2.854562547471788
 30
0.0
 10
5.949778238932291
 20
-2.854562547471788
 30
0.0
 10
5.949778238932291
 20
-2.769569396972656
 30
0.0
 10
5.949778238932291
 20
-2.68817392985026
 30
0.0
 10
5.949778238932291
 20
-2.608064439561632
 30
0.0
 10
5.865301344129774
 20
-2.608064439561632
 30
0.0
 10
5.784383138020833
 20
-2.608064439561632
 30
0.0
 10
5.705096774631076
 20
-2.608064439561632
 30
0.0
 10
5.705096774631076
 20
-2.692506578233507
 30
0.0
 10
5.705096774631076
 20
-2.773913913302951
 30
0.0
 10
5.705096774631076
 20
-2.854562547471788
 30
0.0
  0
SPLINE
  5
47
330
1F
100
AcDbEntity
  8
Controller
370
     0
100
AcDbSpline
210
0.0
220
0.0
230
1.0
 70
    11
 71
     3
 72
    11
 73
     7
 74
     0
 42
0.0000000001
 43
0.0000000001
 12
1.0
 22
0.0
 32
0.0
 13
1.0
 23
0.0
 33
0.0
 40
0.0
 40
0.0
 40
0.0
 40
0.0
 40
1.0
 40
1.0
 40
1.0
 40
2.0
 40
2.0
 40
2.0
 40
2.0
 10
4.308909098307291
 20
-3.741616990831163
 30
0.0
 10
4.308909098307291
 20
-3.741616990831163
 30
0.0
 10
4.320045471191406
 20
-3.727486504448784
 30
0.0
 10
4.320045471191406
 20
-3.727486504448784
 30
0.0
 10
4.315193176269531
 20
-3.729727003309462
 30
0.0
 10
4.312555948893229
 20
-3.736765543619792
 30
0.0
 10
4.308909098307291
 20
-3.741616990831163
 30
0.0
  0
SPLINE
  5
48
330
1F
100
AcDbEntity
  8
Controller
370
     0
100
AcDbSpline
210
0.0
220
0.0
230
1.0
 70
    11
 71
     3
 72
    14
 73
    10
 74
     0
 42
0.0000000001
 43
0.0000000001
 12
1.0
 22
0.0
 32
0.0
 13
1.0
 23
0.0
 33
0.0
 40
0.0
 40
0.0
 40
0.0
 40
0.0
 40
1.0
 40
1.0
 40
1.0
 40
2.0
 40
2.0
 40
2.0
 40
3.0
 40
3.0
 40
3.0
 40
3.0
 10
6.294749789767795
 20
-2.085801866319444
 30
0.0
 10
6.246064927842881
 20
-2.174690246582031
 30
0.0
 10
6.19986809624566
 20
-2.259034050835503
 30
0.0
 10
6.152921888563368
 20
-2.34474860297309
 30
0.0
 10
6.252377827962239
 20
-2.34474860297309
 30
0.0
 10
6.348946465386284
 20
-2.34474860297309
 30
0.0
 10
6.450529310438368
 20
-2.34474860297309
 30
0.0
 10
6.397511800130208
 20
-2.256619771321614
 30
0.0
 10
6.347052680121528
 20
-2.172743903266059
 30
0.0
 10
6.294749789767795
 20
-2.085801866319444
 30
0.0
  0
INSERT
  5
4A
330
1F
100
AcDbEntity
  8
Controller
100
AcDbBlockReference
  2
block 2
 10
0.0
 20
0.0
 30
0.0
  0
POLYLINE
  5
67
330
1F
100
AcDbEntity
  8
Controller
370
     0
100
AcDb2dPolyline
 66
     1
 10
0.0
 20
0.0
 30
0.0
  0
VERTEX
  5
68
330
67
100
AcDbEntity
  8
Controller
370
     0
100
AcDbVertex
100
AcDb2dVertex
 10
6.406787448459201
 20
-3.080765618218316
 30
0.0
  0
VERTEX
  5
69
330
67
100
AcDbEntity
  8
Controller
370
     0
100
AcDbVertex
100
AcDb2dVertex
 10
6.310112847222221
 20
-3.177440219455295
 30
0.0
  0
VERTEX
  5
6A
330
67
100
AcDbEntity
  8
Controller
370
     0
100
AcDbVertex
100
AcDb2dVertex
 10
6.213438245985243
 20
-3.080765618218316
 30
0.0
  0
VERTEX
  5
6B
330
67
100
AcDbEntity
  8
Controller
370
     0
100
AcDbVertex
100
AcDb2dVertex
 10
6.168016221788194
 20
-3.126186794704861
 30
0.0
  0
VERTEX
  5
6C
330
67
100
AcDbEntity
  8
Controller
370
     0
100
AcDbVertex
100
AcDb2dVertex
 10
6.264690823025173
 20
-3.222862243652344
 30
0.0
  0
VERTEX
  5
6D
330
67
100
AcDbEntity
  8
Controller
370
     0
100
AcDbVertex
100
AcDb2dVertex
 10
6.168016221788194
 20
-3.319536844889323
 30
0.0
  0
VERTEX
  5
6E
330
67
100
AcDbEntity
  8
Controller
370
     0
100
AcDbVertex
100
AcDb2dVertex
 10
6.213438245985243
 20
-3.364958869086371
 30
0.0
  0
VERTEX
  5
6F
330
67
100
AcDbEntity
  8
Controller
370
     0
100
AcDbVertex
100
AcDb2dVertex
 10
6.310112847222221
 20
-3.268284267849392
 30
0.0
  0
VERTEX
  5
70
330
67
100
AcDbEntity
  8
Controller
370
     0
100
AcDbVertex
100
AcDb2dVertex
 10
6.406787448459201
 20
-3.364958869086371
 30
0.0
  0
VERTEX
  5
71
330
67
100
AcDbEntity
  8
Controller
370
     0
100
AcDbVertex
100
AcDb2dVertex
 10
6.45220947265625
 20
-3.319536844889323
 30
0.0
  0
VERTEX
  5
72
330
67
100
AcDbEntity
  8
Controller
370
     0
100
AcDbVertex
100
AcDb2dVertex
 10
6.355534871419271
 20
-3.222862243652344
 30
0.0
  0
VERTEX
  5
73
330
67
100
AcDbEntity
  8
Controller
370
     0
100
AcDbVertex
100
AcDb2dVertex
 10
6.45220947265625
 20
-3.126186794704861
 30
0.0
  0
VERTEX
  5
74
330
67
100
AcDbEntity
  8
Controller
370
     0
100
AcDbVertex
100
AcDb2dVertex
 10
6.406787448459201
 20
-3.080765618218316
 30
0.0
  0
SEQEND
  5
75
330
67
100
AcDbEntity
  8
Controller
370
     0
  0
SPLINE
  5
77
330
1F
100
AcDbEntity
  8
Gift Card Base
 62
   179
420
  2301728
370
    35
100
AcDbSpline
210
0.0
220
0.0
230
1.0
 70
    11
 71
     3
 72
    89
 73
    85
 74
     0
 42
0.0000000001
 43
0.0000000001
 12
1.0
 22
0.0
 32
0.0
 13
1.0
 23
0.0
 33
0.0
 40
0.0
 40
0.0
 40
0.0
 40
0.0
 40
1.0
 40
1.0
 40
1.0
 40
2.0
 40
2.0
 40
2.0
 40
3.0
 40
3.0
 40
3.0
 40
4.0
 40
4.0
 40
4.0
 40
5.0
 40
5.0
 40
5.0
 40
6.0
 40
6.0
 40
6.0
 40
7.0
 40
7.0
 40
7.0
 40
8.0
 40
8.0
 40
8.0
 40
9.0
 40
9.0
 40
9.0
 40
10.0
 40
10.0
 40
10.0
 40
11.0
 40
11.0
 40
11.0
 40
12.0
 40
12.0
 40
12.0
 40
13.0
 40
13.0
 40
13.0
 40
14.0
 40
14.0
 40
14.0
 40
15.0
 40
15.0
 40
15.0
 40
16.0
 40
16.0
 40
16.0
 40
17.0
 40
17.0
 40
17.0
 40
18.0
 40
18.0
 40
18.0
 40
19.0
 40
19.0
 40
19.0
 40
20.0
 40
20.0
 40
20.0
 40
21.0
 40
21.0
 40
21.0
 40
22.0
 40
22.0
 40
22.0
 40
23.0
 40
23.0
 40
23.0
 40
24.0
 40
24.0
 40
24.0
 40
25.0
 40
25.0
 40
25.0
 40
26.0
 40
26.0
 40
26.0
 40
27.0
 40
27.0
 40
27.0
 40
28.0
 40
28.0
 40
28.0
 40
28.0
 10
2.831801173135975
 20
-9.281157781304247
 30
0.0
 10
2.867145614867745
 20
-9.269376300726991
 30
0.0
 10
2.924400164021386
 20
-9.223903232150606
 30
0.0
 10
2.924400164021386
 20
-9.223903232150606
 30
0.0
 10
2.924400164021386
 20
-9.223903232150606
 30
0.0
 10
3.071669518947601
 20
-9.377064175075954
 30
0.0
 10
3.313191566202375
 20
-9.377064175075954
 30
0.0
 10
3.554714461167653
 20
-9.377064175075954
 30
0.0
 10
3.819799469576941
 20
-9.188558790418837
 30
0.0
 10
3.819799469576941
 20
-9.188558790418837
 30
0.0
 10
3.819799469576941
 20
-9.188558790418837
 30
0.0
 10
4.909595747788747
 20
-9.188558790418837
 30
0.0
 10
4.909595747788747
 20
-9.188558790418837
 30
0.0
 10
4.909595747788747
 20
-9.188558790418837
 30
0.0
 10
5.139336314466264
 20
-9.388845655653212
 30
0.0
 10
5.357295400566525
 20
-9.388845655653212
 30
0.0
 10
5.575255334377289
 20
-9.388845655653212
 30
0.0
 10
5.822668121920691
 20
-9.223903232150606
 30
0.0
 10
5.822668121920691
 20
-9.223903232150606
 30
0.0
 10
5.822668121920691
 20
-9.223903232150606
 30
0.0
 10
5.869794044229719
 20
-9.223903232150606
 30
0.0
 10
5.893357853094736
 20
-9.253357781304253
 30
0.0
 10
5.89628584517373
 20
-9.257017347547743
 30
0.0
 10
5.901033023993174
 20
-9.265680948893229
 30
0.0
 10
5.907204356458451
 20
-9.278285556369356
 30
0.0
 10
5.907204356458451
 20
-9.278285556369356
 30
0.0
 10
6.403691444132063
 20
-9.278285556369356
 30
0.0
 10
6.403691444132063
 20
-9.278285556369356
 30
0.0
 10
6.403691444132063
 20
-9.278285556369356
 30
0.0
 10
6.403691444132063
 20
-10.70929233805338
 30
0.0
 10
6.403691444132063
 20
-10.70929233805338
 30
0.0
 10
6.403691444132063
 20
-10.70929233805338
 30
0.0
 10
7.080988400512271
 20
-10.70929233805338
 30
0.0
 10
7.080988400512271
 20
-10.70929233805338
 30
0.0
 10
7.080988400512271
 20
-10.70929233805338
 30
0.0
 10
7.080988400512271
 20
-7.485929701063368
 30
0.0
 10
7.080988400512271
 20
-7.485929701063368
 30
0.0
 10
7.080988400512271
 20
-7.485929701063368
 30
0.0
 10
6.720679223537445
 20
-6.942392137315538
 30
0.0
 10
6.720679223537445
 20
-6.942392137315538
 30
0.0
 10
6.720679223537445
 20
-6.942392137315538
 30
0.0
 10
6.720679223537445
 20
-6.84429931640625
 30
0.0
 10
6.720679223537445
 20
-6.84429931640625
 30
0.0
 10
6.720679223537445
 20
-6.84429931640625
 30
0.0
 10
6.719993425740135
 20
-6.84429931640625
 30
0.0
 10
6.719993425740135
 20
-6.84429931640625
 30
0.0
 10
6.719993425740135
 20
-6.84429931640625
 30
0.0
 10
6.719993425740135
 20
-5.622326076931434
 30
0.0
 10
6.719993425740135
 20
-5.622326076931434
 30
0.0
 10
6.719993425740135
 20
-5.622326076931434
 30
0.0
 10
6.137003415160708
 20
-5.622326076931434
 30
0.0
 10
6.137003415160708
 20
-5.622326076931434
 30
0.0
 10
6.137003415160708
 20
-5.622326076931434
 30
0.0
 10
6.137003415160708
 20
-6.84429931640625
 30
0.0
 10
6.137003415160708
 20
-6.84429931640625
 30
0.0
 10
6.137003415160708
 20
-6.84429931640625
 30
0.0
 10
2.485425995455848
 20
-6.84429931640625
 30
0.0
 10
2.485425995455848
 20
-6.84429931640625
 30
0.0
 10
2.485425995455848
 20
-6.84429931640625
 30
0.0
 10
2.485425995455848
 20
-5.622326076931434
 30
0.0
 10
2.485425995455848
 20
-5.622326076931434
 30
0.0
 10
2.485425995455848
 20
-5.622326076931434
 30
0.0
 10
1.902435137165917
 20
-5.622326076931434
 30
0.0
 10
1.902435137165917
 20
-5.622326076931434
 30
0.0
 10
1.902435137165917
 20
-5.622326076931434
 30
0.0
 10
1.902435137165917
 20
-6.84429931640625
 30
0.0
 10
1.902435137165917
 20
-6.84429931640625
 30
0.0
 10
1.902435137165917
 20
-6.84429931640625
 30
0.0
 10
1.902435137165917
 20
-6.941357930501302
 30
0.0
 10
1.902435137165917
 20
-6.941357930501302
 30
0.0
 10
1.902435137165917
 20
-6.941357930501302
 30
0.0
 10
1.583139889770084
 20
-7.539513481987846
 30
0.0
 10
1.583139889770084
 20
-7.539513481987846
 30
0.0
 10
1.583139889770084
 20
-7.539513481987846
 30
0.0
 10
1.583139889770084
 20
-10.70929233805338
 30
0.0
 10
1.583139889770084
 20
-10.70929233805338
 30
0.0
 10
1.583139889770084
 20
-10.70929233805338
 30
0.0
 10
2.260437693860796
 20
-10.70929233805338
 30
0.0
 10
2.260437693860796
 20
-10.70929233805338
 30
0.0
 10
2.260437693860796
 20
-10.70929233805338
 30
0.0
 10
2.260437693860796
 20
-9.293010287814669
 30
0.0
 10
2.260437693860796
 20
-9.293010287814669
 30
0.0
 10
2.260437693860796
 20
-9.293010287814669
 30
0.0
 10
2.831801173135975
 20
-9.281157781304247
 30
0.0
 10
2.831801173135975
 20
-9.281157781304247
 30
0.0
  0
HATCH
  5
78
330
1F
100
AcDbEntity
  8
Gift Card Base
 62
   179
420
  2301728
100
AcDbHatch
 10
0.0
 20
0.0
 30
0.0
210
0.0
220
0.0
230
1.0
  2
SOLID
 70
     1
 71
     0
 91
        1
 92
        1
 93
        1
 72
     4
 94
        3
 73
     0
 74
     1
 95
       89
 96
       85
 40
0.0
 40
0.0
 40
0.0
 40
0.0
 40
1.0
 40
1.0
 40
1.0
 40
2.0
 40
2.0
 40
2.0
 40
3.0
 40
3.0
 40
3.0
 40
4.0
 40
4.0
 40
4.0
 40
5.0
 40
5.0
 40
5.0
 40
6.0
 40
6.0
 40
6.0
 40
7.0
 40
7.0
 40
7.0
 40
8.0
 40
8.0
 40
8.0
 40
9.0
 40
9.0
 40
9.0
 40
10.0
 40
10.0
 40
10.0
 40
11.0
 40
11.0
 40
11.0
 40
12.0
 40
12.0
 40
12.0
 40
13.0
 40
13.0
 40
13.0
 40
14.0
 40
14.0
 40
14.0
 40
15.0
 40
15.0
 40
15.0
 40
16.0
 40
16.0
 40
16.0
 40
17.0
 40
17.0
 40
17.0
 40
18.0
 40
18.0
 40
18.0
 40
19.0
 40
19.0
 40
19.0
 40
20.0
 40
20.0
 40
20.0
 40
21.0
 40
21.0
 40
21.0
 40
22.0
 40
22.0
 40
22.0
 40
23.0
 40
23.0
 40
23.0
 40
24.0
 40
24.0
 40
24.0
 40
25.0
 40
25.0
 40
25.0
 40
26.0
 40
26.0
 40
26.0
 40
27.0
 40
27.0
 40
27.0
 40
28.0
 40
28.0
 40
28.0
 40
28.0
 10
2.831801173135975
 20
-9.281157781304247
 10
2.867145614867745
 20
-9.269376300726991
 10
2.924400164021386
 20
-9.223903232150606
 10
2.924400164021386
 20
-9.223903232150606
 10
2.924400164021386
 20
-9.223903232150606
 10
3.071669518947601
 20
-9.377064175075954
 10
3.313191566202375
 20
-9.377064175075954
 10
3.554714461167653
 20
-9.377064175075954
 10
3.819799469576941
 20
-9.188558790418837
 10
3.819799469576941
 20
-9.188558790418837
 10
3.819799469576941
 20
-9.188558790418837
 10
4.909595747788747
 20
-9.188558790418837
 10
4.909595747788747
 20
-9.188558790418837
 10
4.909595747788747
 20
-9.188558790418837
 10
5.139336314466264
 20
-9.388845655653212
 10
5.357295400566525
 20
-9.388845655653212
 10
5.575255334377289
 20
-9.388845655653212
 10
5.822668121920691
 20
-9.223903232150606
 10
5.822668121920691
 20
-9.223903232150606
 10
5.822668121920691
 20
-9.223903232150606
 10
5.869794044229719
 20
-9.223903232150606
 10
5.893357853094736
 20
-9.253357781304253
 10
5.89628584517373
 20
-9.257017347547743
 10
5.901033023993174
 20
-9.265680948893229
 10
5.907204356458451
 20
-9.278285556369356
 10
5.907204356458451
 20
-9.278285556369356
 10
6.403691444132063
 20
-9.278285556369356
 10
6.403691444132063
 20
-9.278285556369356
 10
6.403691444132063
 20
-9.278285556369356
 10
6.403691444132063
 20
-10.70929233805338
 10
6.403691444132063
 20
-10.70929233805338
 10
6.403691444132063
 20
-10.70929233805338
 10
7.080988400512271
 20
-10.70929233805338
 10
7.080988400512271
 20
-10.70929233805338
 10
7.080988400512271
 20
-10.70929233805338
 10
7.080988400512271
 20
-7.485929701063368
 10
7.080988400512271
 20
-7.485929701063368
 10
7.080988400512271
 20
-7.485929701063368
 10
6.720679223537445
 20
-6.942392137315538
 10
6.720679223537445
 20
-6.942392137315538
 10
6.720679223537445
 20
-6.942392137315538
 10
6.720679223537445
 20
-6.84429931640625
 10
6.720679223537445
 20
-6.84429931640625
 10
6.720679223537445
 20
-6.84429931640625
 10
6.719993425740135
 20
-6.84429931640625
 10
6.719993425740135
 20
-6.84429931640625
 10
6.719993425740135
 20
-6.84429931640625
 10
6.719993425740135
 20
-5.622326076931434
 10
6.719993425740135
 20
-5.622326076931434
 10
6.719993425740135
 20
-5.622326076931434
 10
6.137003415160708
 20
-5.622326076931434
 10
6.137003415160708
 20
-5.622326076931434
 10
6.137003415160708
 20
-5.622326076931434
 10
6.137003415160708
 20
-6.84429931640625
 10
6.137003415160708
 20
-6.84429931640625
 10
6.137003415160708
 20
-6.84429931640625
 10
2.485425995455848
 20
-6.84429931640625
 10
2.485425995455848
 20
-6.84429931640625
 10
2.485425995455848
 20
-6.84429931640625
 10
2.485425995455848
 20
-5.622326076931434
 10
2.485425995455848
 20
-5.622326076931434
 10
2.485425995455848
 20
-5.622326076931434
 10
1.902435137165917
 20
-5.622326076931434
 10
1.902435137165917
 20
-5.622326076931434
 10
1.902435137165917
 20
-5.622326076931434
 10
1.902435137165917
 20
-6.84429931640625
 10
1.902435137165917
 20
-6.84429931640625
 10
1.902435137165917
 20
-6.84429931640625
 10
1.902435137165917
 20
-6.941357930501302
 10
1.902435137165917
 20
-6.941357930501302
 10
1.902435137165917
 20
-6.941357930501302
 10
1.583139889770084
 20
-7.539513481987846
 10
1.583139889770084
 20
-7.539513481987846
 10
1.583139889770084
 20
-7.539513481987846
 10
1.583139889770084
 20
-10.70929233805338
 10
1.583139889770084
 20
-10.70929233805338
 10
1.583139889770084
 20
-10.70929233805338
 10
2.260437693860796
 20
-10.70929233805338
 10
2.260437693860796
 20
-10.70929233805338
 10
2.260437693860796
 20
-10.70929233805338
 10
2.260437693860796
 20
-9.293010287814669
 10
2.260437693860796
 20
-9.293010287814669
 10
2.260437693860796
 20
-9.293010287814669
 10
2.831801173135975
 20
-9.281157781304247
 10
2.831801173135975
 20
-9.281157781304247
 97
        0
 97
        0
 75
     2
 76
     1
 98
        0
  0
POLYLINE
  5
7B
330
1F
100
AcDbEntity
  8
Score Lines
 62
   240
420
 15539236
370
    35
100
AcDb2dPolyline
 66
     1
 10
0.0
 20
0.0
 30
0.0
  0
VERTEX
  5
7C
330
7B
100
AcDbEntity
  8
Score Lines
 62
   240
420
 15539236
370
    35
100
AcDbVertex
100
AcDb2dVertex
 10
2.476851851851848
 20
-6.13237311385458
 30
0.0
  0
VERTEX
  5
7D
330
7B
100
AcDbEntity
  8
Score Lines
 62
   240
420
 15539236
370
    35
100
AcDbVertex
100
AcDb2dVertex
 10
1.893861454046638
 20
-6.13237311385458
 30
0.0
  0
SEQEND
  5
7E
330
7B
100
AcDbEntity
  8
Score Lines
 62
   240
420
 15539236
370
    35
  0
POLYLINE
  5
7F
330
1F
100
AcDbEntity
  8
Score Lines
 62
   240
420
 15539236
370
    35
100
AcDb2dPolyline
 66
     1
 10
0.0
 20
0.0
 30
0.0
  0
VERTEX
  5
80
330
7F
100
AcDbEntity
  8
Score Lines
 62
   240
420
 15539236
370
    35
100
AcDbVertex
100
AcDb2dVertex
 10
2.492969795509616
 20
-6.845679011037468
 30
0.0
  0
VERTEX
  5
81
330
7F
100
AcDbEntity
  8
Score Lines
 62
   240
420
 15539236
370
    35
100
AcDbVertex
100
AcDb2dVertex
 10
1.909979397704407
 20
-6.845679011037468
 30
0.0
  0
SEQEND
  5
82
330
7F
100
AcDbEntity
  8
Score Lines
 62
   240
420
 15539236
370
    35
  0
POLYLINE
  5
83
330
1F
100
AcDbEntity
  8
Score Lines
 62
   240
420
 15539236
370
    35
100
AcDb2dPolyline
 66
     1
 10
0.0
 20
0.0
 30
0.0
  0
VERTEX
  5
84
330
83
100
AcDbEntity
  8
Score Lines
 62
   240
420
 15539236
370
    35
100
AcDbVertex
100
AcDb2dVertex
 10
6.126017692668786
 20
-6.124485591475023
 30
0.0
  0
VERTEX
  5
85
330
83
100
AcDbEntity
  8
Score Lines
 62
   240
420
 15539236
370
    35
100
AcDbVertex
100
AcDb2dVertex
 10
6.70900809047397
 20
-6.124485591475023
 30
0.0
  0
SEQEND
  5
86
330
83
100
AcDbEntity
  8
Score Lines
 62
   240
420
 15539236
370
    35
  0
POLYLINE
  5
87
330
1F
100
AcDbEntity
  8
Score Lines
 62
   240
420
 15539236
370
    35
100
AcDb2dPolyline
 66
     1
 10
0.0
 20
0.0
 30
0.0
  0
VERTEX
  5
88
330
87
100
AcDbEntity
  8
Score Lines
 62
   240
420
 15539236
370
    35
100
AcDbVertex
100
AcDb2dVertex
 10
6.72512603413174
 20
-6.837791488657912
 30
0.0
  0
VERTEX
  5
89
330
87
100
AcDbEntity
  8
Score Lines
 62
   240
420
 15539236
370
    35
100
AcDbVertex
100
AcDb2dVertex
 10
6.142135636326556
 20
-6.837791488657912
 30
0.0
  0
SEQEND
  5
8A
330
87
100
AcDbEntity
  8
Score Lines
 62
   240
420
 15539236
370
    35
  0
POLYLINE
  5
8B
330
1F
100
AcDbEntity
  8
Score Lines
 62
   240
420
 15539236
370
    35
100
AcDb2dPolyline
 66
     1
 10
0.0
 20
0.0
 30
0.0
  0
VERTEX
  5
8C
330
8B
100
AcDbEntity
  8
Score Lines
 62
   240
420
 15539236
370
    35
100
AcDbVertex
100
AcDb2dVertex
 10
2.26659681332396
 20
-9.294067110707878
 30
0.0
  0
VERTEX
  5
8D
330
8B
100
AcDbEntity
  8
Score Lines
 62
   240
420
 15539236
370
    35
100
AcDbVertex
100
AcDb2dVertex
 10
1.583493582466935
 20
-9.294067110707878
 30
0.0
  0
SEQEND
  5
8E
330
8B
100
AcDbEntity
  8
Score Lines
 62
   240
420
 15539236
370
    35
  0
POLYLINE
  5
8F
330
1F
100
AcDbEntity
  8
Score Lines
 62
   240
420
 15539236
370
    35
100
AcDb2dPolyline
 66
     1
 10
0.0
 20
0.0
 30
0.0
  0
VERTEX
  5
90
330
8F
100
AcDbEntity
  8
Score Lines
 62
   240
420
 15539236
370
    35
100
AcDbVertex
100
AcDb2dVertex
 10
2.285482577873166
 20
-10.00737300789077
 30
0.0
  0
VERTEX
  5
91
330
8F
100
AcDbEntity
  8
Score Lines
 62
   240
420
 15539236
370
    35
100
AcDbVertex
100
AcDb2dVertex
 10
1.602379347016141
 20
-10.00737300789077
 30
0.0
  0
SEQEND
  5
92
330
8F
100
AcDbEntity
  8
Score Lines
 62
   240
420
 15539236
370
    35
  0
POLYLINE
  5
93
330
1F
100
AcDbEntity
  8
Score Lines
 62
   240
420
 15539236
370
    35
100
AcDb2dPolyline
 66
     1
 10
0.0
 20
0.0
 30
0.0
  0
VERTEX
  5
94
330
93
100
AcDbEntity
  8
Score Lines
 62
   240
420
 15539236
370
    35
100
AcDbVertex
100
AcDb2dVertex
 10
6.40208077966473
 20
-9.296981963274067
 30
0.0
  0
VERTEX
  5
95
330
93
100
AcDbEntity
  8
Score Lines
 62
   240
420
 15539236
370
    35
100
AcDbVertex
100
AcDb2dVertex
 10
7.085184010521768
 20
-9.296981963274067
 30
0.0
  0
SEQEND
  5
96
330
93
100
AcDbEntity
  8
Score Lines
 62
   240
420
 15539236
370
    35
  0
POLYLINE
  5
97
330
1F
100
AcDbEntity
  8
Score Lines
 62
   240
420
 15539236
370
    35
100
AcDb2dPolyline
 66
     1
 10
0.0
 20
0.0
 30
0.0
  0
VERTEX
  5
98
330
97
100
AcDbEntity
  8
Score Lines
 62
   240
420
 15539236
370
    35
100
AcDbVertex
100
AcDb2dVertex
 10
6.420966544213949
 20
-10.01028786045696
 30
0.0
  0
VERTEX
  5
99
330
97
100
AcDbEntity
  8
Score Lines
 62
   240
420
 15539236
370
    35
100
AcDbVertex
100
AcDb2dVertex
 10
7.104069775070961
 20
-10.01028786045696
 30
0.0
  0
SEQEND
  5
9A
330
97
100
AcDbEntity
  8
Score Lines
 62
   240
420
 15539236
370
    35
  0
ENDSEC
  0
SECTION
  2
OBJECTS
  0
DICTIONARY
  5
C
330
0
100
AcDbDictionary
281
     1
  3
ACAD_GROUP
350
D
  3
ACAD_LAYOUT
350
1A
  3
ACAD_MATERIAL
350
3B
  3
ACAD_MLEADERSTYLE
350
9C
  3
ACAD_MLINESTYLE
350
17
  3
ACAD_PLOTSETTINGS
350
19
  3
ACAD_PLOTSTYLENAME
350
E
  3
ACAD_TABLESTYLE
350
9B
  3
ACAD_VISUALSTYLE
350
2A
  0
SUN
  5
3F
330
29
100
AcDbSun
 90
        1
290
     0
 63
     7
421
 16777215
 40
1.0
291
     1
 91
  2455826
 92
 54000000
292
     0
 70
     2
 71
   256
280
     1
  0
DICTIONARY
  5
D
102
{ACAD_REACTORS
330
C
102
}
330
C
100
AcDbDictionary
281
     1
  0
DICTIONARY
  5
1A
102
{ACAD_REACTORS
330
C
102
}
330
C
100
AcDbDictionary
281
     1
  3
Layout1
350
1E
  3
Layout2
350
26
  3
Model
350
22
  0
DICTIONARY
  5
3B
102
{ACAD_REACTORS
330
C
102
}
330
C
100
AcDbDictionary
281
     1
  3
ByBlock
350
3D
  3
ByLayer
350
3C
  3
Global
350
3E
  0
DICTIONARY
  5
9C
102
{ACAD_REACTORS
330
C
102
}
330
C
100
AcDbDictionary
281
     1
  0
DICTIONARY
  5
17
102
{ACAD_REACTORS
330
C
102
}
330
C
100
AcDbDictionary
281
     1
  3
Standard
350
18
  0
DICTIONARY
  5
19
102
{ACAD_REACTORS
330
C
102
}
330
C
100
AcDbDictionary
281
     1
  0
ACDBDICTIONARYWDFLT
  5
E
102
{ACAD_REACTORS
330
C
102
}
330
C
100
AcDbDictionary
281
     1
  3
Normal
350
F
100
AcDbDictionaryWithDefault
340
F
  0
DICTIONARY
  5
9B
102
{ACAD_REACTORS
330
C
102
}
330
C
100
AcDbDictionary
281
     1
  0
DICTIONARY
  5
2A
102
{ACAD_REACTORS
330
C
102
}
330
C
100
AcDbDictionary
281
     1
  3
2dWireframe
350
2F
  3
3D Hidden
350
31
  3
3dWireframe
350
30
  3
Basic
350
32
  3
Brighten
350
36
  3
ColorChange
350
3A
  3
Conceptual
350
34
  3
Dim
350
35
  3
Facepattern
350
39
  3
Flat
350
2B
  3
FlatWithEdges
350
2C
  3
Gouraud
350
2D
  3
GouraudWithEdges
350
2E
  3
Linepattern
350
38
  3
Realistic
350
33
  3
Thicken
350
37
  0
LAYOUT
  5
1E
102
{ACAD_REACTORS
330
1A
102
}
330
1A
100
AcDbPlotSettings
  1

  2
none_device
  4

  6

 40
0.0
 41
0.0
 42
0.0
 43
0.0
 44
0.0
 45
0.0
 46
0.0
 47
0.0
 48
0.0
 49
0.0
140
0.0
141
0.0
142
1.0
143
1.0
 70
   688
 72
     0
 73
     0
 74
     5
  7

 75
    16
 76
     0
 77
     2
 78
   300
147
1.0
148
0.0
149
0.0
100
AcDbLayout
  1
Layout1
 70
     1
 71
     1
 10
0.0
 20
0.0
 11
12.0
 21
9.0
 12
0.0
 22
0.0
 32
0.0
 14
1.000000000000000E+20
 24
1.000000000000000E+20
 34
1.000000000000000E+20
 15
-1.000000000000000E+20
 25
-1.000000000000000E+20
 35
-1.000000000000000E+20
146
0.0
 13
0.0
 23
0.0
 33
0.0
 16
1.0
 26
0.0
 36
0.0
 17
0.0
 27
1.0
 37
0.0
 76
     0
330
1B
  0
LAYOUT
  5
26
102
{ACAD_REACTORS
330
1A
102
}
330
1A
100
AcDbPlotSettings
  1

  2
none_device
  4

  6

 40
0.0
 41
0.0
 42
0.0
 43
0.0
 44
0.0
 45
0.0
 46
0.0
 47
0.0
 48
0.0
 49
0.0
140
0.0
141
0.0
142
1.0
143
1.0
 70
   688
 72
     0
 73
     0
 74
     5
  7

 75
    16
 76
     0
 77
     2
 78
   300
147
1.0
148
0.0
149
0.0
100
AcDbLayout
  1
Layout2
 70
     1
 71
     2
 10
0.0
 20
0.0
 11
0.0
 21
0.0
 12
0.0
 22
0.0
 32
0.0
 14
0.0
 24
0.0
 34
0.0
 15
0.0
 25
0.0
 35
0.0
146
0.0
 13
0.0
 23
0.0
 33
0.0
 16
1.0
 26
0.0
 36
0.0
 17
0.0
 27
1.0
 37
0.0
 76
     0
330
23
  0
LAYOUT
  5
22
102
{ACAD_REACTORS
330
1A
102
}
330
1A
100
AcDbPlotSettings
  1

  2
none_device
  4

  6

 40
0.0
 41
0.0
 42
0.0
 43
0.0
 44
0.0
 45
0.0
 46
0.0
 47
0.0
 48
0.0
 49
0.0
140
0.0
141
0.0
142
1.0
143
1.0
 70
  1712
 72
     0
 73
     0
 74
     0
  7

 75
     0
 76
     0
 77
     2
 78
   300
147
1.0
148
0.0
149
0.0
100
AcDbLayout
  1
Model
 70
     1
 71
     0
 10
0.0
 20
0.0
 11
12.0
 21
9.0
 12
0.0
 22
0.0
 32
0.0
 14
1.000000000000000E+20
 24
1.000000000000000E+20
 34
1.000000000000000E+20
 15
-1.000000000000000E+20
 25
-1.000000000000000E+20
 35
-1.000000000000000E+20
146
0.0
 13
0.0
 23
0.0
 33
0.0
 16
1.0
 26
0.0
 36
0.0
 17
0.0
 27
1.0
 37
0.0
 76
     0
330
1F
331
29
  0
MATERIAL
  5
3D
102
{ACAD_REACTORS
330
3B
102
}
330
3B
100
AcDbMaterial
  1
ByBlock
 72
     1
 94
      127
  0
MATERIAL
  5
3C
102
{ACAD_REACTORS
330
3B
102
}
330
3B
100
AcDbMaterial
  1
ByLayer
 72
     1
 94
      127
  0
MATERIAL
  5
3E
102
{ACAD_REACTORS
330
3B
102
}
330
3B
100
AcDbMaterial
  1
Global
 72
     1
 94
      127
  0
MLINESTYLE
  5
18
102
{ACAD_REACTORS
330
17
102
}
330
17
100
AcDbMlineStyle
  2
Standard
 70
     0
  3

 62
   256
 51
90.0
 52
90.0
 71
     2
 49
0.5
 62
   256
  6
BYLAYER
 49
-0.5
 62
   256
  6
BYLAYER
  0
ACDBPLACEHOLDER
  5
F
102
{ACAD_REACTORS
330
E
102
}
330
E
  0
VISUALSTYLE
  5
2F
102
{ACAD_REACTORS
330
2A
102
}
330
2A
100
AcDbVisualStyle
  2
2dWireframe
 70
     4
177
     2
291
     0
 71
     0
176
     1
 72
     2
176
     1
 73
     0
176
     1
 90
        0
176
     1
 40
-0.6
176
     1
 41
-30.0
176
     1
 62
     5
 63
     7
421
 16777215
176
     1
 74
     1
176
     1
 91
        4
176
     1
 64
     7
176
     1
 65
   257
176
     1
 75
     1
176
     1
175
     1
176
     1
 42
1.0
176
     1
 92
        0
176
     1
 66
   257
176
     1
 43
1.0
176
     1
 76
     1
176
     1
 77
     6
176
     1
 78
     2
176
     1
 67
     7
176
     1
 79
     5
176
     1
170
     0
176
     1
171
     0
176
     1
290
     0
176
     1
 93
        1
176
     1
 44
0.0
176
     1
173
     0
176
     1
  0
VISUALSTYLE
  5
31
102
{ACAD_REACTORS
330
2A
102
}
330
2A
100
AcDbVisualStyle
  2
3D Hidden
 70
     6
177
     2
291
     0
 71
     1
176
     1
 72
     2
176
     1
 73
     2
176
     1
 90
        0
176
     1
 40
-0.6
176
     1
 41
-30.0
176
     1
 62
     5
 63
     7
421
 16777215
176
     1
 74
     2
176
     1
 91
        2
176
     1
 64
     7
176
     1
 65
   257
176
     1
 75
     2
176
     1
175
     1
176
     1
 42
40.0
176
     1
 92
        0
176
     1
 66
   257
176
     1
 43
1.0
176
     1
 76
     1
176
     1
 77
     6
176
     1
 78
     2
176
     1
 67
     7
176
     1
 79
     3
176
     1
170
     0
176
     1
171
     0
176
     1
290
     0
176
     1
 93
        1
176
     1
 44
0.0
176
     1
173
     0
176
     1
  0
VISUALSTYLE
  5
30
102
{ACAD_REACTORS
330
2A
102
}
330
2A
100
AcDbVisualStyle
  2
3dWireframe
 70
     5
177
     2
291
     0
 71
     0
176
     1
 72
     2
176
     1
 73
     0
176
     1
 90
        0
176
     1
 40
-0.6
176
     1
 41
-30.0
176
     1
 62
     5
 63
     7
421
 16777215
176
     1
 74
     1
176
     1
 91
        4
176
     1
 64
     7
176
     1
 65
   257
176
     1
 75
     1
176
     1
175
     1
176
     1
 42
1.0
176
     1
 92
        0
176
     1
 66
   257
176
     1
 43
1.0
176
     1
 76
     1
176
     1
 77
     6
176
     1
 78
     2
176
     1
 67
     7
176
     1
 79
     5
176
     1
170
     0
176
     1
171
     0
176
     1
290
     0
176
     1
 93
        1
176
     1
 44
0.0
176
     1
173
     0
176
     1
  0
VISUALSTYLE
  5
32
102
{ACAD_REACTORS
330
2A
102
}
330
2A
100
AcDbVisualStyle
  2
Basic
 70
     7
177
     2
291
     1
 71
     1
176
     1
 72
     0
176
     1
 73
     1
176
     1
 90
        0
176
     1
 40
-0.6
176
     1
 41
-30.0
176
     1
 62
     5
 63
     7
421
 16777215
176
     1
 74
     0
176
     1
 91
        4
176
     1
 64
     7
176
     1
 65
   257
176
     1
 75
     1
176
     1
175
     1
176
     1
 42
1.0
176
     1
 92
        8
176
     1
 66
     7
176
     1
 43
1.0
176
     1
 76
     1
176
     1
 77
     6
176
     1
 78
     2
176
     1
 67
     7
176
     1
 79
     5
176
     1
170
     0
176
     1
171
     0
176
     1
290
     0
176
     1
 93
        1
176
     1
 44
0.0
176
     1
173
     0
176
     1
  0
VISUALSTYLE
  5
36
102
{ACAD_REACTORS
330
2A
102
}
330
2A
100
AcDbVisualStyle
  2
Brighten
 70
    12
177
     2
291
     1
 71
     2
176
     1
 72
     2
176
     1
 73
     0
176
     1
 90
        0
176
     1
 40
-0.6
176
     1
 41
-30.0
176
     1
 62
     5
 63
     7
421
 16777215
176
     1
 74
     1
176
     1
 91
        4
176
     1
 64
     7
176
     1
 65
   257
176
     1
 75
     1
176
     1
175
     1
176
     1
 42
1.0
176
     1
 92
        8
176
     1
 66
     7
176
     1
 43
1.0
176
     1
 76
     1
176
     1
 77
     6
176
     1
 78
     2
176
     1
 67
     7
176
     1
 79
     5
176
     1
170
     0
176
     1
171
     0
176
     1
290
     0
176
     1
 93
        1
176
     1
 44
50.0
176
     1
173
     0
176
     1
  0
VISUALSTYLE
  5
3A
102
{ACAD_REACTORS
330
2A
102
}
330
2A
100
AcDbVisualStyle
  2
ColorChange
 70
    16
177
     2
291
     1
 71
     2
176
     1
 72
     2
176
     1
 73
     3
176
     1
 90
        0
176
     1
 40
-0.6
176
     1
 41
-30.0
176
     1
 62
     5
 63
     8
421
  8421504
176
     1
 74
     1
176
     1
 91
        4
176
     1
 64
     7
176
     1
 65
   257
176
     1
 75
     1
176
     1
175
     1
176
     1
 42
1.0
176
     1
 92
        8
176
     1
 66
     8
424
  8421504
176
     1
 43
1.0
176
     1
 76
     1
176
     1
 77
     6
176
     1
 78
     2
176
     1
 67
     7
176
     1
 79
     5
176
     1
170
     0
176
     1
171
     0
176
     1
290
     0
176
     1
 93
        1
176
     1
 44
0.0
176
     1
173
     0
176
     1
  0
VISUALSTYLE
  5
34
102
{ACAD_REACTORS
330
2A
102
}
330
2A
100
AcDbVisualStyle
  2
Conceptual
 70
     9
177
     2
291
     0
 71
     3
176
     1
 72
     2
176
     1
 73
     0
176
     1
 90
        0
176
     1
 40
-0.6
176
     1
 41
-30.0
176
     1
 62
     5
 63
     7
421
 16777215
176
     1
 74
     2
176
     1
 91
        2
176
     1
 64
     7
176
     1
 65
   257
176
     1
 75
     1
176
     1
175
     1
176
     1
 42
40.0
176
     1
 92
        8
176
     1
 66
     7
176
     1
 43
1.0
176
     1
 76
     1
176
     1
 77
     6
176
     1
 78
     2
176
     1
 67
     7
176
     1
 79
     3
176
     1
170
     0
176
     1
171
     0
176
     1
290
     0
176
     1
 93
        1
176
     1
 44
0.0
176
     1
173
     0
176
     1
  0
VISUALSTYLE
  5
35
102
{ACAD_REACTORS
330
2A
102
}
330
2A
100
AcDbVisualStyle
  2
Dim
 70
    11
177
     2
291
     1
 71
     2
176
     1
 72
     2
176
     1
 73
     0
176
     1
 90
        0
176
     1
 40
-0.6
176
     1
 41
-30.0
176
     1
 62
     5
 63
     7
421
 16777215
176
     1
 74
     1
176
     1
 91
        4
176
     1
 64
     7
176
     1
 65
   257
176
     1
 75
     1
176
     1
175
     1
176
     1
 42
1.0
176
     1
 92
        8
176
     1
 66
     7
176
     1
 43
1.0
176
     1
 76
     1
176
     1
 77
     6
176
     1
 78
     2
176
     1
 67
     7
176
     1
 79
     5
176
     1
170
     0
176
     1
171
     0
176
     1
290
     0
176
     1
 93
        1
176
     1
 44
-50.0
176
     1
173
     0
176
     1
  0
VISUALSTYLE
  5
39
102
{ACAD_REACTORS
330
2A
102
}
330
2A
100
AcDbVisualStyle
  2
Facepattern
 70
    15
177
     2
291
     1
 71
     2
176
     1
 72
     2
176
     1
 73
     0
176
     1
 90
        0
176
     1
 40
-0.6
176
     1
 41
-30.0
176
     1
 62
     5
 63
     7
421
 16777215
176
     1
 74
     1
176
     1
 91
        4
176
     1
 64
     7
176
     1
 65
   257
176
     1
 75
     1
176
     1
175
     1
176
     1
 42
1.0
176
     1
 92
        8
176
     1
 66
     7
176
     1
 43
1.0
176
     1
 76
     1
176
     1
 77
     6
176
     1
 78
     2
176
     1
 67
     7
176
     1
 79
     5
176
     1
170
     0
176
     1
171
     0
176
     1
290
     0
176
     1
 93
        1
176
     1
 44
0.0
176
     1
173
     0
176
     1
  0
VISUALSTYLE
  5
2B
102
{ACAD_REACTORS
330
2A
102
}
330
2A
100
AcDbVisualStyle
  2
Flat
 70
     0
177
     2
291
     1
 71
     2
176
     1
 72
     1
176
     1
 73
     1
176
     1
 90
        2
176
     1
 40
-0.6
176
     1
 41
30.0
176
     1
 62
     5
 63
     7
421
 16777215
176
     1
 74
     0
176
     1
 91
        4
176
     1
 64
     7
176
     1
 65
   257
176
     1
 75
     1
176
     1
175
     1
176
     1
 42
1.0
176
     1
 92
        8
176
     1
 66
     7
176
     1
 43
1.0
176
     1
 76
     1
176
     1
 77
     6
176
     1
 78
     2
176
     1
 67
     7
176
     1
 79
     5
176
     1
170
     0
176
     1
171
     0
176
     1
290
     0
176
     1
 93
       13
176
     1
 44
0.0
176
     1
173
     0
176
     1
  0
VISUALSTYLE
  5
2C
102
{ACAD_REACTORS
330
2A
102
}
330
2A
100
AcDbVisualStyle
  2
FlatWithEdges
 70
     1
177
     2
291
     1
 71
     2
176
     1
 72
     1
176
     1
 73
     1
176
     1
 90
        2
176
     1
 40
-0.6
176
     1
 41
30.0
176
     1
 62
     5
 63
     7
421
 16777215
176
     1
 74
     1
176
     1
 91
        4
176
     1
 64
     7
176
     1
 65
   257
176
     1
 75
     1
176
     1
175
     1
176
     1
 42
1.0
176
     1
 92
        0
176
     1
 66
   257
176
     1
 43
1.0
176
     1
 76
     1
176
     1
 77
     6
176
     1
 78
     2
176
     1
 67
     7
176
     1
 79
     5
176
     1
170
     0
176
     1
171
     0
176
     1
290
     0
176
     1
 93
       13
176
     1
 44
0.0
176
     1
173
     0
176
     1
  0
VISUALSTYLE
  5
2D
102
{ACAD_REACTORS
330
2A
102
}
330
2A
100
AcDbVisualStyle
  2
Gouraud
 70
     2
177
     2
291
     1
 71
     2
176
     1
 72
     2
176
     1
 73
     1
176
     1
 90
        2
176
     1
 40
-0.6
176
     1
 41
30.0
176
     1
 62
     5
 63
     7
421
 16777215
176
     1
 74
     0
176
     1
 91
        4
176
     1
 64
     7
176
     1
 65
   257
176
     1
 75
     1
176
     1
175
     1
176
     1
 42
1.0
176
     1
 92
        0
176
     1
 66
     7
176
     1
 43
1.0
176
     1
 76
     1
176
     1
 77
     6
176
     1
 78
     2
176
     1
 67
     7
176
     1
 79
     5
176
     1
170
     0
176
     1
171
     0
176
     1
290
     0
176
     1
 93
       13
176
     1
 44
0.0
176
     1
173
     0
176
     1
  0
VISUALSTYLE
  5
2E
102
{ACAD_REACTORS
330
2A
102
}
330
2A
100
AcDbVisualStyle
  2
GouraudWithEdges
 70
     3
177
     2
291
     1
 71
     2
176
     1
 72
     2
176
     1
 73
     1
176
     1
 90
        2
176
     1
 40
-0.6
176
     1
 41
30.0
176
     1
 62
     5
 63
     7
421
 16777215
176
     1
 74
     1
176
     1
 91
        4
176
     1
 64
     7
176
     1
 65
   257
176
     1
 75
     1
176
     1
175
     1
176
     1
 42
1.0
176
     1
 92
        0
176
     1
 66
   257
176
     1
 43
1.0
176
     1
 76
     1
176
     1
 77
     6
176
     1
 78
     2
176
     1
 67
     7
176
     1
 79
     5
176
     1
170
     0
176
     1
171
     0
176
     1
290
     0
176
     1
 93
       13
176
     1
 44
0.0
176
     1
173
     0
176
     1
  0
VISUALSTYLE
  5
38
102
{ACAD_REACTORS
330
2A
102
}
330
2A
100
AcDbVisualStyle
  2
Linepattern
 70
    14
177
     2
291
     1
 71
     2
176
     1
 72
     2
176
     1
 73
     0
176
     1
 90
        0
176
     1
 40
-0.6
176
     1
 41
-30.0
176
     1
 62
     5
 63
     7
421
 16777215
176
     1
 74
     1
176
     1
 91
        4
176
     1
 64
     7
176
     1
 65
   257
176
     1
 75
     7
176
     1
175
     7
176
     1
 42
1.0
176
     1
 92
        8
176
     1
 66
     7
176
     1
 43
1.0
176
     1
 76
     1
176
     1
 77
     6
176
     1
 78
     2
176
     1
 67
     7
176
     1
 79
     5
176
     1
170
     0
176
     1
171
     0
176
     1
290
     0
176
     1
 93
        1
176
     1
 44
0.0
176
     1
173
     0
176
     1
  0
VISUALSTYLE
  5
33
102
{ACAD_REACTORS
330
2A
102
}
330
2A
100
AcDbVisualStyle
  2
Realistic
 70
     8
177
     2
291
     0
 71
     2
176
     1
 72
     2
176
     1
 73
     0
176
     1
 90
        0
176
     1
 40
-0.6
176
     1
 41
-30.0
176
     1
 62
     5
 63
     7
421
 16777215
176
     1
 74
     1
176
     1
 91
        0
176
     1
 64
     7
176
     1
 65
   257
176
     1
 75
     1
176
     1
175
     1
176
     1
 42
1.0
176
     1
 92
        8
176
     1
 66
     8
424
  7895160
176
     1
 43
1.0
176
     1
 76
     1
176
     1
 77
     6
176
     1
 78
     2
176
     1
 67
     7
176
     1
 79
     5
176
     1
170
     0
176
     1
171
     0
176
     1
290
     0
176
     1
 93
       13
176
     1
 44
0.0
176
     1
173
     0
176
     1
  0
VISUALSTYLE
  5
37
102
{ACAD_REACTORS
330
2A
102
}
330
2A
100
AcDbVisualStyle
  2
Thicken
 70
    13
177
     2
291
     1
 71
     2
176
     1
 72
     2
176
     1
 73
     0
176
     1
 90
        0
176
     1
 40
-0.6
176
     1
 41
-30.0
176
     1
 62
     5
 63
     7
421
 16777215
176
     1
 74
     1
176
     1
 91
        4
176
     1
 64
     7
176
     1
 65
   257
176
     1
 75
     1
176
     1
175
     1
176
     1
 42
1.0
176
     1
 92
       12
176
     1
 66
     7
176
     1
 43
1.0
176
     1
 76
     1
176
     1
 77
     6
176
     1
 78
     2
176
     1
 67
     7
176
     1
 79
     5
176
     1
170
     0
176
     1
171
     0
176
     1
290
     0
176
     1
 93
        1
176
     1
 44
0.0
176
     1
173
     0
176
     1
  0
ENDSEC
  0
EOF
