<?xml version="1.0" encoding="utf-8"?>
<!-- Generator: Adobe Illustrator 23.0.1, SVG Export Plug-In . SVG Version: 6.00 Build 0)  -->
<svg version="1.1" id="Layer_1" xmlns="http://www.w3.org/2000/svg" xmlns:xlink="http://www.w3.org/1999/xlink" x="0px" y="0px"
	 width="719.5px" height="720.2px" viewBox="0 0 719.5 720.2" style="enable-background:new 0 0 719.5 720.2;" xml:space="preserve"
	>
<style type="text/css">
	.st0{fill:#FFFFFF;stroke:#000000;stroke-miterlimit:10;}
	.st1{fill:#C0DDE4;stroke:#000000;stroke-miterlimit:10;}
	.st2{fill-rule:evenodd;clip-rule:evenodd;fill:#FFFFFF;stroke:#000000;stroke-miterlimit:10;}
</style>
<g>
	<path class="st0" d="M6.3,15.9v761.3h759.8V15.9H6.3z M63.5,768.5v-12.7V768.5z M63.5,743.1v-12.7V743.1z M63.5,709.4v-12.7V709.4z
		 M63.5,682.6v-12.7V682.6z M63.5,656v-12.7V656z M63.5,629.5v-12.7V629.5z M63.5,602.8v-12.7V602.8z M63.5,576.3v-12.7V576.3z
		 M63.5,549.6v-12.7V549.6z M63.5,522.9v-12.6V522.9z M63.5,496.4v-12.7V496.4z M63.5,469.8v-12.7V469.8z M63.5,443.2v-12.7V443.2z
		 M63.5,416.5v-12.7V416.5z M63.5,389.9v-12.7V389.9z M63.5,363.3v-12.7V363.3z M63.5,336.7V324V336.7z M63.5,310.1v-12.7V310.1z
		 M63.5,283.4v-12.7V283.4z M63.5,256.8v-12.7V256.8z M63.5,230.2v-12.7V230.2z M63.5,203.6v-12.7V203.6z M63.5,177.1v-12.7V177.1z
		 M63.5,150.3v-12.7V150.3z M63.5,123.7V111V123.7z M63.5,97.2V84.5V97.2z M63.5,62.3V49.7V62.3z M63.5,36.9V24.2V36.9z
		 M709.1,768.5v-12.7V768.5z M709.1,743.1v-12.7V743.1z M709.1,709.4v-12.7V709.4z M709.1,682.6v-12.7V682.6z M709.1,656v-12.7V656z
		 M709.1,629.5v-12.7V629.5z M709.1,602.8v-12.7V602.8z M709.1,576.3v-12.7V576.3z M709.1,549.6v-12.7V549.6z M709.1,522.9v-12.6
		V522.9z M709.1,496.4v-12.7V496.4z M709.1,469.8v-12.7V469.8z M709.1,443.2v-12.7V443.2z M709.1,416.5v-12.7V416.5z M709.1,389.9
		v-12.7V389.9z M709.1,363.3v-12.7V363.3z M709.1,336.7V324V336.7z M709.1,310.1v-12.7V310.1z M709.1,283.4v-12.7V283.4z
		 M709.1,256.8v-12.7V256.8z M709.1,230.2v-12.7V230.2z M709.1,203.6v-12.7V203.6z M709.1,177.1v-12.7V177.1z M709.1,150.3v-12.7
		V150.3z M709.1,123.7V111V123.7z M709.1,97.2V84.5V97.2z M709.1,62.3V49.7V62.3z M709.1,36.9V24.2V36.9z M766.5,720.1h-59.7H766.5z
		 M693.2,720.1h-12.7H693.2z M666.9,720.1h-12.7H666.9z M640.6,720.1h-12.7H640.6z M614.2,720.1h-12.7H614.2z M587.9,720.1h-12.7
		H587.9z M561.6,720.1h-12.7H561.6z M535.2,720.1h-12.7H535.2z M496.2,720.1H509H496.2z M469.9,720.1h12.7H469.9z M443.6,720.1h12.7
		H443.6z M417.2,720.1h12.7H417.2z M403.6,720.1h-12.7H403.6z M377.2,720.1h-12.7H377.2z M350.9,720.1h-12.7H350.9z M311.9,720.1
		h12.7H311.9z M285.6,720.1h12.7H285.6z M271.9,720.1h-12.7H271.9z M245.6,720.1h-12.7H245.6z M219.2,720.1h-12.6H219.2z
		 M180.1,720.1h12.7H180.1z M166.6,720.1h-12.7H166.6z M140.2,720.1h-12.7H140.2z M113.9,720.1h-12.7H113.9z M87.6,720.1H74.8H87.6z
		 M62.3,720.1H6.2H62.3z M765.6,73.1h-59.7H765.6z M692.2,73.1h-12.7H692.2z M665.9,73.1h-12.7H665.9z M639.5,73.1h-12.7H639.5z
		 M600.5,73.1h12.7H600.5z M586.9,73.1h-12.7H586.9z M560.5,73.1h-12.7H560.5z M534.2,73.1h-12.7H534.2z M507.9,73.1h-12.7H507.9z
		 M481.5,73.1h-12.7H481.5z M455.2,73.1h-12.7H455.2z M428.9,73.1h-12.7H428.9z M402.5,73.1h-12.7H402.5z M376.2,73.1h-12.7H376.2z
		 M337.2,73.1H350H337.2z M323.6,73.1h-12.7H323.6z M297.3,73.1h-12.7H297.3z M271,73.1h-12.7H271z M244.6,73.1h-12.7H244.6z
		 M218.2,73.1h-12.7H218.2z M191.9,73.1h-12.7H191.9z M165.6,73.1h-12.7H165.6z M139.2,73.1h-12.6H139.2z M100.2,73.1h12.7H100.2z
		 M86.6,73.1H73.9H86.6z M61.1,73.1H5.3H61.1z"/>
</g>
<g id="Layer_7">
	<path class="st0" d="M65.9,74.9v643.3h641.3V74.9H65.9z"/>
</g>
<g id="Layer_6">
	<rect x="65.9" y="74.9" class="st1" width="641.3" height="643.3"/>
</g>
<g id="Layer_5">
	<path class="st2" d="M65.9,74.9v643.3h641.3V74.9H65.9z M614,621.5H162.6V170.1H614V621.5z"/>
</g>
<g id="Layer_4">
	<path class="st2" d="M65.9,74.9v643.3h641.3V74.9H65.9z M624.5,632H152.1V159.6h472.4V632z"/>
</g>
<g id="Layer_3">
	<path class="st2" d="M65.9,74.9v643.3h641.3V74.9H65.9z M635,642.6H141.5V149.1H635V642.6z"/>
</g>
<g>
	<path class="st2" d="M65.9,74.9v643.3h641.3V74.9H65.9z M645.5,653.1H131V138.6h514.5V653.1z"/>
</g>
<g id="Top_Layer">
	<path class="st0" d="M3.6,13.1v765.1h765.1V13.1H3.6z M653.9,663.5H118.4V127.8h535.6V663.5z M60.9,769.4v-12.8V769.4z M60.9,744
		v-12.7V744z M60.9,710v-12.8V710z M60.9,683.4v-12.8V683.4z M60.9,656.5v-12.8V656.5z M60.9,629.8V617V629.8z M60.9,603v-12.7V603z
		 M60.9,576.3v-12.8V576.3z M60.9,549.5v-12.8V549.5z M60.9,522.7v-12.8V522.7z M60.9,496.1v-12.8V496.1z M60.9,469.4v-12.8V469.4z
		 M60.9,442.5v-12.8V442.5z M60.9,415.8V403V415.8z M60.9,389v-12.8V389z M60.9,362.3v-12.8V362.3z M60.9,335.5v-12.8V335.5z
		 M60.9,308.8V296V308.8z M60.9,282.1v-12.8V282.1z M60.9,255.4v-12.8V255.4z M60.9,228.5v-12.8V228.5z M60.9,201.8V189V201.8z
		 M60.9,175v-12.8V175z M60.9,148.2v-12.8V148.2z M60.9,121.6v-12.8V121.6z M60.9,94.8V82.1V94.8z M60.9,59.8V46.9V59.8z M60.9,34.3
		V21.5V34.3z M711.3,769.4v-12.8V769.4z M711.3,744v-12.7V744z M711.3,710v-12.8V710z M711.3,683.4v-12.8V683.4z M711.3,656.5v-12.8
		V656.5z M711.3,629.8V617V629.8z M711.3,603v-12.7V603z M711.3,576.3v-12.8V576.3z M711.3,549.5v-12.8V549.5z M711.3,522.7v-12.8
		V522.7z M711.3,496.1v-12.8V496.1z M711.3,469.4v-12.8V469.4z M711.3,442.5v-12.8V442.5z M711.3,415.8V403V415.8z M711.3,389v-12.8
		V389z M711.3,362.3v-12.8V362.3z M711.3,335.5v-12.8V335.5z M711.3,308.8V296V308.8z M711.3,282.1v-12.8V282.1z M711.3,255.4v-12.8
		V255.4z M711.3,228.5v-12.8V228.5z M711.3,201.8V189V201.8z M711.3,175v-12.8V175z M711.3,148.2v-12.8V148.2z M711.3,121.6v-12.8
		V121.6z M711.3,94.8V82.1V94.8z M711.3,59.8V46.9V59.8z M711.3,34.3V21.5V34.3z M769.2,720.8h-60.1H769.2z M695.3,720.8h-12.8
		H695.3z M668.8,720.8h-12.8H668.8z M642.3,720.8h-12.8H642.3z M615.8,720.8h-12.8H615.8z M589.2,720.8h-12.8H589.2z M562.7,720.8
		h-12.8H562.7z M536.1,720.8h-12.8H536.1z M509.7,720.8h-12.8H509.7z M483.2,720.8h-12.8H483.2z M456.6,720.8h-12.8H456.6z
		 M430.1,720.8h-12.8H430.1z M403.6,720.8h-12.8H403.6z M377,720.8h-12.8H377z M350.6,720.8h-12.8H350.6z M324.1,720.8h-12.8H324.1z
		 M297.5,720.8h-12.8H297.5z M271.1,720.8h-12.8H271.1z M244.5,720.8h-12.8H244.5z M217.9,720.8h-12.8H217.9z M191.4,720.8h-12.8
		H191.4z M164.9,720.8h-12.8H164.9z M138.4,720.8h-12.8H138.4z M111.9,720.8H99H111.9z M85.3,720.8H72.6H85.3z M59.9,720.8H3.5H59.9
		z M768.2,70.5h-60.1H768.2z M694.2,70.5h-12.8H694.2z M667.8,70.5H655H667.8z M641.3,70.5h-12.8H641.3z M614.7,70.5h-12.8H614.7z
		 M588.2,70.5h-12.8H588.2z M561.8,70.5h-12.8H561.8z M535.2,70.5h-12.8H535.2z M508.6,70.5h-12.8H508.6z M482.2,70.5h-12.8H482.2z
		 M455.6,70.5h-12.8H455.6z M429.1,70.5h-12.8H429.1z M402.6,70.5h-12.8H402.6z M376.1,70.5h-12.7H376.1z M349.5,70.5h-12.8H349.5z
		 M323,70.5h-12.8H323z M296.5,70.5h-12.8H296.5z M270,70.5h-12.8H270z M243.4,70.5h-12.8H243.4z M217,70.5h-12.8H217z M190.5,70.5
		h-12.8H190.5z M163.8,70.5H151H163.8z M137.4,70.5h-12.8H137.4z M110.9,70.5H98.1H110.9z M84.3,70.5H71.6H84.3z M58.8,70.5H2.5
		H58.8z"/>
</g>
</svg>
