<?xml version="1.0" encoding="utf-8"?>
<!-- Generator: Adobe Illustrator 23.0.1, SVG Export Plug-In . SVG Version: 6.00 Build 0)  -->
<svg version="1.1" id="Layer_1" xmlns="http://www.w3.org/2000/svg" xmlns:xlink="http://www.w3.org/1999/xlink" x="0px" y="0px"
	 width="719.5px" height="720.2px" viewBox="0 0 719.5 720.2" style="enable-background:new 0 0 719.5 720.2;" xml:space="preserve"
	>
<style type="text/css">
	.st0{fill:#FFFFFF;stroke:#000000;stroke-miterlimit:10;}
	.st1{fill:#C0DDE4;stroke:#000000;stroke-miterlimit:10;}
	.st2{fill-rule:evenodd;clip-rule:evenodd;fill:#FFFFFF;stroke:#000000;stroke-miterlimit:10;}
</style>
<g>
	<path class="st0" d="M-4.8-0.9v740.2H734V-0.9H-4.8z M50.8,730.9v-12.4V730.9z M50.8,706.2v-12.4V706.2z M50.8,673.4V661V673.4z
		 M50.8,647.4V635V647.4z M50.8,621.5v-12.4V621.5z M50.8,595.7v-12.4V595.7z M50.8,569.7v-12.4V569.7z M50.8,544v-12.4V544z
		 M50.8,518.1v-12.4V518.1z M50.8,492.1v-12.3V492.1z M50.8,466.3v-12.4V466.3z M50.8,440.4V428V440.4z M50.8,414.5v-12.4V414.5z
		 M50.8,388.7v-12.4V388.7z M50.8,362.8v-12.4V362.8z M50.8,336.9v-12.4V336.9z M50.8,311v-12.4V311z M50.8,285.1v-12.4V285.1z
		 M50.8,259.2v-12.4V259.2z M50.8,233.4V221V233.4z M50.8,207.5v-12.4V207.5z M50.8,181.6v-12.4V181.6z M50.8,155.8v-12.4V155.8z
		 M50.8,129.8v-12.4V129.8z M50.8,103.9V91.5V103.9z M50.8,78.1V65.8V78.1z M50.8,44.2V31.9V44.2z M50.8,19.5V7.1V19.5z
		 M678.6,730.9v-12.4V730.9z M678.6,706.2v-12.4V706.2z M678.6,673.4V661V673.4z M678.6,647.4V635V647.4z M678.6,621.5v-12.4V621.5z
		 M678.6,595.7v-12.4V595.7z M678.6,569.7v-12.4V569.7z M678.6,544v-12.4V544z M678.6,518.1v-12.4V518.1z M678.6,492.1v-12.3V492.1z
		 M678.6,466.3v-12.4V466.3z M678.6,440.4V428V440.4z M678.6,414.5v-12.4V414.5z M678.6,388.7v-12.4V388.7z M678.6,362.8v-12.4
		V362.8z M678.6,336.9v-12.4V336.9z M678.6,311v-12.4V311z M678.6,285.1v-12.4V285.1z M678.6,259.2v-12.4V259.2z M678.6,233.4V221
		V233.4z M678.6,207.5v-12.4V207.5z M678.6,181.6v-12.4V181.6z M678.6,155.8v-12.4V155.8z M678.6,129.8v-12.4V129.8z M678.6,103.9
		V91.5V103.9z M678.6,78.1V65.8V78.1z M678.6,44.2V31.9V44.2z M678.6,19.5V7.1V19.5z M734.4,683.8h-58H734.4z M663.1,683.8h-12.4
		H663.1z M637.6,683.8h-12.4H637.6z M612,683.8h-12.4H612z M586.3,683.8h-12.4H586.3z M560.7,683.8h-12.4H560.7z M535.1,683.8h-12.4
		H535.1z M509.5,683.8h-12.4H509.5z M471.6,683.8H484H471.6z M446,683.8h12.4H446z M420.4,683.8h12.4H420.4z M394.8,683.8h12.4
		H394.8z M381.6,683.8h-12.4H381.6z M355.9,683.8h-12.4H355.9z M330.3,683.8h-12.4H330.3z M292.4,683.8h12.4H292.4z M266.8,683.8
		h12.4H266.8z M253.5,683.8h-12.4H253.5z M227.9,683.8h-12.4H227.9z M202.2,683.8h-12.3H202.2z M164.3,683.8h12.4H164.3z
		 M151.1,683.8h-12.4H151.1z M125.4,683.8H113H125.4z M99.8,683.8H87.4H99.8z M74.2,683.8H61.9H74.2z M49.7,683.8H-4.9H49.7z
		 M733.5,54.7h-58H733.5z M662.2,54.7h-12.4H662.2z M636.6,54.7h-12.4H636.6z M611,54.7h-12.4H611z M573,54.7h12.4H573z M559.8,54.7
		h-12.4H559.8z M534.1,54.7h-12.4H534.1z M508.5,54.7h-12.4H508.5z M483,54.7h-12.4H483z M457.3,54.7h-12.4H457.3z M431.7,54.7
		h-12.4H431.7z M406.1,54.7h-12.4H406.1z M380.4,54.7h-12.4H380.4z M354.9,54.7h-12.4H354.9z M317,54.7h12.4H317z M303.7,54.7h-12.4
		H303.7z M278.1,54.7h-12.4H278.1z M252.6,54.7h-12.4H252.6z M227,54.7h-12.4H227z M201.3,54.7h-12.4H201.3z M175.7,54.7h-12.4
		H175.7z M150.1,54.7h-12.4H150.1z M124.5,54.7h-12.3H124.5z M86.5,54.7h12.4H86.5z M73.3,54.7H60.9H73.3z M48.6,54.7H-5.8H48.6z"/>
</g>
<g id="Layer_7">
	<path class="st0" d="M53.2,56.5V682h623.6V56.5H53.2z"/>
</g>
<g id="Layer_6">
	<rect x="53.2" y="56.5" class="st1" width="623.6" height="625.5"/>
</g>
<g id="Layer_5">
	<path class="st2" d="M53.2,56.5V682h623.6V56.5H53.2z M586.1,588H147.2V149h438.9V588z"/>
</g>
<g id="Layer_4">
	<path class="st2" d="M53.2,56.5V682h623.6V56.5H53.2z M596.3,598.2H136.9V138.8h459.4V598.2z"/>
</g>
<g id="Layer_3">
	<path class="st2" d="M53.2,56.5V682h623.6V56.5H53.2z M606.6,608.4H126.7V128.6h479.8V608.4z"/>
</g>
<g>
	<path class="st2" d="M53.2,56.5V682h623.6V56.5H53.2z M616.8,618.7H116.5V118.4h500.3V618.7z"/>
</g>
<g id="Top_Layer">
	<path class="st0" d="M-7.4-3.6v744h744v-744H-7.4z M625,628.8H104.2V107.9H625V628.8z M48.3,731.8v-12.5V731.8z M48.3,707v-12.4
		V707z M48.3,674v-12.5V674z M48.3,648.1v-12.5V648.1z M48.3,622v-12.5V622z M48.3,596v-12.5V596z M48.3,570v-12.4V570z M48.3,544
		v-12.5V544z M48.3,518v-12.5V518z M48.3,491.9v-12.5V491.9z M48.3,466v-12.5V466z M48.3,440v-12.5V440z M48.3,413.9v-12.5V413.9z
		 M48.3,387.9v-12.5V387.9z M48.3,361.9v-12.5V361.9z M48.3,335.9v-12.5V335.9z M48.3,309.9v-12.5V309.9z M48.3,283.9v-12.5V283.9z
		 M48.3,257.9v-12.5V257.9z M48.3,231.9v-12.5V231.9z M48.3,205.8v-12.5V205.8z M48.3,179.8v-12.5V179.8z M48.3,153.8v-12.5V153.8z
		 M48.3,127.8v-12.5V127.8z M48.3,101.9V89.4V101.9z M48.3,75.8V63.4V75.8z M48.3,41.7V29.2V41.7z M48.3,17V4.5V17z M680.7,731.8
		v-12.5V731.8z M680.7,707v-12.4V707z M680.7,674v-12.5V674z M680.7,648.1v-12.5V648.1z M680.7,622v-12.5V622z M680.7,596v-12.5V596
		z M680.7,570v-12.4V570z M680.7,544v-12.5V544z M680.7,518v-12.5V518z M680.7,491.9v-12.5V491.9z M680.7,466v-12.5V466z M680.7,440
		v-12.5V440z M680.7,413.9v-12.5V413.9z M680.7,387.9v-12.5V387.9z M680.7,361.9v-12.5V361.9z M680.7,335.9v-12.5V335.9z
		 M680.7,309.9v-12.5V309.9z M680.7,283.9v-12.5V283.9z M680.7,257.9v-12.5V257.9z M680.7,231.9v-12.5V231.9z M680.7,205.8v-12.5
		V205.8z M680.7,179.8v-12.5V179.8z M680.7,153.8v-12.5V153.8z M680.7,127.8v-12.5V127.8z M680.7,101.9V89.4V101.9z M680.7,75.8
		V63.4V75.8z M680.7,41.7V29.2V41.7z M680.7,17V4.5V17z M737,684.5h-58.4H737z M665.2,684.5h-12.5H665.2z M639.4,684.5h-12.5H639.4z
		 M613.6,684.5h-12.5H613.6z M587.8,684.5h-12.5H587.8z M562,684.5h-12.5H562z M536.3,684.5h-12.5H536.3z M510.4,684.5h-12.5H510.4z
		 M484.7,684.5h-12.5H484.7z M458.9,684.5h-12.5H458.9z M433,684.5h-12.5H433z M407.4,684.5h-12.5H407.4z M381.6,684.5h-12.5H381.6z
		 M355.7,684.5h-12.5H355.7z M330,684.5h-12.5H330z M304.2,684.5h-12.5H304.2z M278.3,684.5h-12.5H278.3z M252.7,684.5h-12.5H252.7z
		 M226.9,684.5h-12.5H226.9z M201,684.5h-12.5H201z M175.2,684.5h-12.5H175.2z M149.4,684.5h-12.5H149.4z M123.6,684.5h-12.5H123.6z
		 M97.9,684.5H85.4H97.9z M72.1,684.5H59.7H72.1z M47.3,684.5H-7.5H47.3z M736.1,52.2h-58.4H736.1z M664.2,52.2h-12.5H664.2z
		 M638.5,52.2H626H638.5z M612.7,52.2h-12.5H612.7z M586.8,52.2h-12.5H586.8z M561,52.2h-12.5H561z M535.3,52.2h-12.5H535.3z
		 M509.5,52.2H497H509.5z M483.7,52.2h-12.5H483.7z M458,52.2h-12.5H458z M432.1,52.2h-12.5H432.1z M406.3,52.2h-12.5H406.3z
		 M380.5,52.2h-12.5H380.5z M354.8,52.2h-12.4H354.8z M329,52.2h-12.5H329z M303.2,52.2h-12.5H303.2z M277.4,52.2h-12.5H277.4z
		 M251.6,52.2h-12.5H251.6z M225.8,52.2h-12.5H225.8z M200.1,52.2h-12.5H200.1z M174.3,52.2h-12.5H174.3z M148.4,52.2h-12.5H148.4z
		 M122.7,52.2h-12.5H122.7z M96.9,52.2H84.5H96.9z M71.1,52.2H58.7H71.1z M46.3,52.2H-8.4H46.3z"/>
</g>
</svg>
