<?xml version="1.0" encoding="utf-8"?>
<!-- Generator: Adobe Illustrator 24.1.3, SVG Export Plug-In . SVG Version: 6.00 Build 0)  -->
<svg version="1.1" id="Layer_1" xmlns="http://www.w3.org/2000/svg" xmlns:xlink="http://www.w3.org/1999/xlink" x="0px" y="0px"
	 width="719.5px" height="720.2px" viewBox="0 0 719.5 720.2" style="enable-background:new 0 0 719.5 720.2;" xml:space="preserve"
	>
<style type="text/css">
	.st0{fill:#FFFFFF;stroke:#000000;stroke-miterlimit:10;}
	.st1{fill:#C0DDE4;stroke:#000000;stroke-miterlimit:10;}
	.st2{fill-rule:evenodd;clip-rule:evenodd;fill:#FFFFFF;stroke:#000000;stroke-miterlimit:10;}
</style>
<g>
	<path class="st0" d="M7.2,16.5v935.2h933.4V16.5H7.2z M77.4,941.1v-15.6V941.1z M77.4,909.9v-15.6V909.9z M77.4,868.5v-15.6V868.5z
		 M77.4,835.5v-15.6V835.5z M77.4,802.9v-15.6V802.9z M77.4,770.3v-15.6V770.3z M77.4,737.5v-15.6V737.5z M77.4,705v-15.6V705z
		 M77.4,672.2v-15.6V672.2z M77.4,639.4v-15.5V639.4z M77.4,606.8v-15.6V606.8z M77.4,574.1v-15.6V574.1z M77.4,541.5v-15.6V541.5z
		 M77.4,508.7v-15.6V508.7z M77.4,476v-15.6V476z M77.4,443.3v-15.6V443.3z M77.4,410.6V395V410.6z M77.4,377.9v-15.6V377.9z
		 M77.4,345.1v-15.6V345.1z M77.4,312.5v-15.6V312.5z M77.4,279.8v-15.6V279.8z M77.4,247.1v-15.6V247.1z M77.4,214.6V199V214.6z
		 M77.4,181.6V166V181.6z M77.4,149v-15.6V149z M77.4,116.4v-15.6V116.4z M77.4,73.5V58.1V73.5z M77.4,42.3V26.7V42.3z M870.5,941.1
		v-15.6V941.1z M870.5,909.9v-15.6V909.9z M870.5,868.5v-15.6V868.5z M870.5,835.5v-15.6V835.5z M870.5,802.9v-15.6V802.9z
		 M870.5,770.3v-15.6V770.3z M870.5,737.5v-15.6V737.5z M870.5,705v-15.6V705z M870.5,672.2v-15.6V672.2z M870.5,639.4v-15.5V639.4z
		 M870.5,606.8v-15.6V606.8z M870.5,574.1v-15.6V574.1z M870.5,541.5v-15.6V541.5z M870.5,508.7v-15.6V508.7z M870.5,476v-15.6V476z
		 M870.5,443.3v-15.6V443.3z M870.5,410.6V395V410.6z M870.5,377.9v-15.6V377.9z M870.5,345.1v-15.6V345.1z M870.5,312.5v-15.6
		V312.5z M870.5,279.8v-15.6V279.8z M870.5,247.1v-15.6V247.1z M870.5,214.6V199V214.6z M870.5,181.6V166V181.6z M870.5,149v-15.6
		V149z M870.5,116.4v-15.6V116.4z M870.5,73.5V58.1V73.5z M870.5,42.3V26.7V42.3z M941,881.6h-73.3H941z M851,881.6h-15.6H851z
		 M818.7,881.6h-15.6H818.7z M786.4,881.6h-15.6H786.4z M753.9,881.6h-15.6H753.9z M721.6,881.6H706H721.6z M689.3,881.6h-15.6
		H689.3z M656.9,881.6h-15.6H656.9z M609,881.6h15.7H609z M576.7,881.6h15.6H576.7z M544.4,881.6H560H544.4z M511.9,881.6h15.6
		H511.9z M495.2,881.6h-15.6H495.2z M462.8,881.6h-15.6H462.8z M430.5,881.6h-15.6H430.5z M382.6,881.6h15.6H382.6z M350.3,881.6
		h15.6H350.3z M333.4,881.6h-15.6H333.4z M301.1,881.6h-15.6H301.1z M268.7,881.6h-15.5H268.7z M220.7,881.6h15.6H220.7z
		 M204.1,881.6h-15.6H204.1z M171.7,881.6h-15.6H171.7z M139.3,881.6h-15.6H139.3z M107,881.6H91.3H107z M76,881.6H7H76z
		 M939.9,86.8h-73.3H939.9z M849.8,86.8h-15.6H849.8z M817.4,86.8h-15.6H817.4z M785,86.8h-15.6H785z M737.1,86.8h15.6H737.1z
		 M720.4,86.8h-15.6H720.4z M688,86.8h-15.6H688z M655.7,86.8h-15.6H655.7z M623.4,86.8h-15.6H623.4z M590.9,86.8h-15.6H590.9z
		 M558.6,86.8H543H558.6z M526.3,86.8h-15.6H526.3z M493.9,86.8h-15.6H493.9z M461.6,86.8H446H461.6z M413.7,86.8h15.7H413.7z
		 M397,86.8h-15.6H397z M364.6,86.8H349H364.6z M332.3,86.8h-15.6H332.3z M299.9,86.8h-15.6H299.9z M267.5,86.8h-15.6H267.5z
		 M235.2,86.8h-15.6H235.2z M202.9,86.8h-15.6H202.9z M170.4,86.8h-15.5H170.4z M122.5,86.8h15.6H122.5z M105.8,86.8H90.2H105.8z
		 M74.5,86.8H5.9H74.5z"/>
</g>
<g id="Layer_7">
	<path class="st0" d="M80.4,89v790.3h787.8V89H80.4z"/>
</g>
<g id="Layer_6">
	<rect x="80.4" y="89" class="st1" width="787.8" height="790.3"/>
</g>
<g id="Layer_5">
	<path class="st2" d="M80.4,89v790.3h787.8V89H80.4z M753.7,760.5H199.2V206h554.5V760.5z"/>
</g>
<g id="Layer_4">
	<path class="st2" d="M80.4,89v790.3h787.8V89H80.4z M766.6,773.4H186.3V193.1h580.3V773.4z"/>
</g>
<g id="Layer_3">
	<path class="st2" d="M80.4,89v790.3h787.8V89H80.4z M779.5,786.4H173.3V180.2h606.2V786.4z"/>
</g>
<g>
	<path class="st2" d="M80.4,89v790.3h787.8V89H80.4z M792.4,799.3h-632v-632h632V799.3z"/>
</g>
<g id="Top_Layer">
	<path class="st0" d="M3.9,13.1V953h939.9V13.1H3.9z M802.7,812.1H144.9V154h658v658.1H802.7z M74.2,942.2v-15.7V942.2z M74.2,911
		v-15.6V911z M74.2,869.2v-15.7V869.2z M74.2,836.5v-15.7V836.5z M74.2,803.5v-15.7V803.5z M74.2,770.7V755V770.7z M74.2,737.8
		v-15.6V737.8z M74.2,705v-15.7V705z M74.2,672v-15.7V672z M74.2,639.1v-15.7V639.1z M74.2,606.4v-15.7V606.4z M74.2,573.6v-15.7
		V573.6z M74.2,540.6v-15.7V540.6z M74.2,507.8v-15.7V507.8z M74.2,474.9v-15.7V474.9z M74.2,442.1v-15.7V442.1z M74.2,409.2v-15.7
		V409.2z M74.2,376.4v-15.7V376.4z M74.2,343.6v-15.7V343.6z M74.2,310.8V295V310.8z M74.2,277.7V262V277.7z M74.2,244.9v-15.7
		V244.9z M74.2,212v-15.7V212z M74.2,179.1v-15.7V179.1z M74.2,146.4v-15.7V146.4z M74.2,113.5V97.9V113.5z M74.2,70.5V54.6V70.5z
		 M74.2,39.1V23.4V39.1z M873.2,942.2v-15.7V942.2z M873.2,911v-15.6V911z M873.2,869.2v-15.7V869.2z M873.2,836.5v-15.7V836.5z
		 M873.2,803.5v-15.7V803.5z M873.2,770.7V755V770.7z M873.2,737.8v-15.6V737.8z M873.2,705v-15.7V705z M873.2,672v-15.7V672z
		 M873.2,639.1v-15.7V639.1z M873.2,606.4v-15.7V606.4z M873.2,573.6v-15.7V573.6z M873.2,540.6v-15.7V540.6z M873.2,507.8v-15.7
		V507.8z M873.2,474.9v-15.7V474.9z M873.2,442.1v-15.7V442.1z M873.2,409.2v-15.7V409.2z M873.2,376.4v-15.7V376.4z M873.2,343.6
		v-15.7V343.6z M873.2,310.8V295V310.8z M873.2,277.7V262V277.7z M873.2,244.9v-15.7V244.9z M873.2,212v-15.7V212z M873.2,179.1
		v-15.7V179.1z M873.2,146.4v-15.7V146.4z M873.2,113.5V97.9V113.5z M873.2,70.5V54.6V70.5z M873.2,39.1V23.4V39.1z M944.3,882.5
		h-73.8H944.3z M853.6,882.5h-15.7H853.6z M821,882.5h-15.7H821z M788.5,882.5h-15.7H788.5z M755.9,882.5h-15.7H755.9z M723.2,882.5
		h-15.7H723.2z M690.7,882.5H675H690.7z M658,882.5h-15.7H658z M625.6,882.5h-15.7H625.6z M593,882.5h-15.7H593z M560.3,882.5h-15.7
		H560.3z M527.8,882.5h-15.7H527.8z M495.2,882.5h-15.7H495.2z M462.6,882.5h-15.7H462.6z M430.1,882.5h-15.7H430.1z M397.6,882.5
		h-15.7H397.6z M364.9,882.5h-15.7H364.9z M332.5,882.5h-15.7H332.5z M299.8,882.5h-15.7H299.8z M267.1,882.5h-15.7H267.1z
		 M234.6,882.5h-15.7H234.6z M202,882.5h-15.7H202z M169.4,882.5h-15.7H169.4z M136.9,882.5H121H136.9z M104.2,882.5H88.6H104.2z
		 M73,882.5H3.7H73z M943.1,83.6h-73.8H943.1z M852.2,83.6h-15.7H852.2z M819.8,83.6h-15.7H819.8z M787.2,83.6h-15.7H787.2z
		 M754.6,83.6h-15.7H754.6z M722,83.6h-15.7H722z M689.6,83.6h-15.7H689.6z M656.9,83.6h-15.7H656.9z M624.2,83.6h-15.7H624.2z
		 M591.8,83.6h-15.7H591.8z M559.1,83.6h-15.7H559.1z M526.6,83.6h-15.7H526.6z M494,83.6h-15.7H494z M461.4,83.6h-15.6H461.4z
		 M428.8,83.6H413H428.8z M396.2,83.6h-15.7H396.2z M363.7,83.6h-15.7H363.7z M331.1,83.6h-15.7H331.1z M298.4,83.6h-15.7H298.4z
		 M266,83.6h-15.7H266z M233.4,83.6h-15.7H233.4z M200.6,83.6h-15.7H200.6z M168.2,83.6h-15.7H168.2z M135.7,83.6h-15.7H135.7z
		 M103,83.6H87.4H103z M71.7,83.6H2.5H71.7z"/>
</g>
</svg>
