<?xml version="1.0" encoding="utf-8"?>
<!-- Generator: Adobe Illustrator 24.1.3, SVG Export Plug-In . SVG Version: 6.00 Build 0)  -->
<svg version="1.1" id="Layer_1" xmlns="http://www.w3.org/2000/svg" xmlns:xlink="http://www.w3.org/1999/xlink" x="0px" y="0px"
	 width="719.5px" height="720.2px" viewBox="0 0 719.5 720.2" style="enable-background:new 0 0 719.5 720.2;" xml:space="preserve"
	>
<style type="text/css">
	.st0{fill:#FFFFFF;stroke:#000000;stroke-miterlimit:10;}
	.st1{fill:#C0DDE4;stroke:#000000;stroke-miterlimit:10;}
	.st2{fill-rule:evenodd;clip-rule:evenodd;fill:#FFFFFF;stroke:#000000;stroke-miterlimit:10;}
</style>
<g>
	<path class="st0" d="M6.7,16.2v850.7h849V16.2H6.7z M70.7,857.2V843V857.2z M70.7,828.8v-14.2V828.8z M70.7,791.1v-14.2V791.1z
		 M70.7,761.2V747V761.2z M70.7,731.5v-14.2V731.5z M70.7,701.8v-14.2V701.8z M70.7,672v-14.2V672z M70.7,642.4v-14.2V642.4z
		 M70.7,612.6v-14.2V612.6z M70.7,582.7v-14.1V582.7z M70.7,553.1v-14.2V553.1z M70.7,523.4v-14.2V523.4z M70.7,493.7v-14.2V493.7z
		 M70.7,463.8v-14.2V463.8z M70.7,434.1v-14.2V434.1z M70.7,404.4v-14.2V404.4z M70.7,374.7v-14.2V374.7z M70.7,345v-14.2V345z
		 M70.7,315.1v-14.2V315.1z M70.7,285.4v-14.2V285.4z M70.7,255.7v-14.2V255.7z M70.7,226v-14.2V226z M70.7,196.3v-14.2V196.3z
		 M70.7,166.4v-14.2V166.4z M70.7,136.7v-14.2V136.7z M70.7,107.1V92.9V107.1z M70.7,68.1V54V68.1z M70.7,39.7V25.5V39.7z
		 M792,857.2V843V857.2z M792,828.8v-14.2V828.8z M792,791.1v-14.2V791.1z M792,761.2V747V761.2z M792,731.5v-14.2V731.5z
		 M792,701.8v-14.2V701.8z M792,672v-14.2V672z M792,642.4v-14.2V642.4z M792,612.6v-14.2V612.6z M792,582.7v-14.1V582.7z
		 M792,553.1v-14.2V553.1z M792,523.4v-14.2V523.4z M792,493.7v-14.2V493.7z M792,463.8v-14.2V463.8z M792,434.1v-14.2V434.1z
		 M792,404.4v-14.2V404.4z M792,374.7v-14.2V374.7z M792,345v-14.2V345z M792,315.1v-14.2V315.1z M792,285.4v-14.2V285.4z
		 M792,255.7v-14.2V255.7z M792,226v-14.2V226z M792,196.3v-14.2V196.3z M792,166.4v-14.2V166.4z M792,136.7v-14.2V136.7z
		 M792,107.1V92.9V107.1z M792,68.1V54V68.1z M792,39.7V25.5V39.7z M856.2,803.1h-66.7H856.2z M774.3,803.1h-14.2H774.3z
		 M744.9,803.1h-14.2H744.9z M715.5,803.1h-14.2H715.5z M686,803.1h-14.2H686z M656.6,803.1h-14.2H656.6z M627.2,803.1H613H627.2z
		 M597.7,803.1h-14.2H597.7z M554.1,803.1h14.3H554.1z M524.8,803.1h14.2H524.8z M495.4,803.1h14.2H495.4z M465.9,803.1h14.2H465.9z
		 M450.7,803.1h-14.2H450.7z M421.2,803.1H407H421.2z M391.8,803.1h-14.2H391.8z M348.2,803.1h14.2H348.2z M318.8,803.1H333H318.8z
		 M303.5,803.1h-14.2H303.5z M274.1,803.1h-14.2H274.1z M244.6,803.1h-14.1H244.6z M200.9,803.1h14.2H200.9z M185.9,803.1h-14.2
		H185.9z M156.4,803.1h-14.2H156.4z M127,803.1h-14.2H127z M97.6,803.1H83.3H97.6z M69.3,803.1H6.6H69.3z M855.2,80.1h-66.7H855.2z
		 M773.1,80.1H759H773.1z M743.8,80.1h-14.2H743.8z M714.3,80.1h-14.2H714.3z M670.7,80.1h14.2H670.7z M655.5,80.1h-14.2H655.5z
		 M626,80.1h-14.2H626z M596.6,80.1h-14.2H596.6z M567.2,80.1H553H567.2z M537.7,80.1h-14.2H537.7z M508.3,80.1h-14.2H508.3z
		 M478.9,80.1h-14.2H478.9z M449.4,80.1h-14.2H449.4z M420.1,80.1h-14.2H420.1z M376.5,80.1h14.3H376.5z M361.3,80.1h-14.2H361.3z
		 M331.9,80.1h-14.2H331.9z M302.5,80.1h-14.2H302.5z M273,80.1h-14.2H273z M243.5,80.1h-14.2H243.5z M214.1,80.1h-14.2H214.1z
		 M184.7,80.1h-14.2H184.7z M155.2,80.1h-14.1H155.2z M111.7,80.1h14.2H111.7z M96.5,80.1H82.3H96.5z M68,80.1H5.6H68z"/>
</g>
<g id="Layer_7">
	<path class="st0" d="M73.3,82.2V801h716.6V82.2H73.3z"/>
</g>
<g id="Layer_6">
	<rect x="73.3" y="82.2" class="st1" width="716.6" height="718.8"/>
</g>
<g id="Layer_5">
	<path class="st2" d="M73.3,82.2V801h716.6V82.2H73.3z M685.8,692.9H181.4V188.5h504.4V692.9z"/>
</g>
<g id="Layer_4">
	<path class="st2" d="M73.3,82.2V801h716.6V82.2H73.3z M697.5,704.6H169.7V176.8h527.8V704.6z"/>
</g>
<g id="Layer_3">
	<path class="st2" d="M73.3,82.2V801h716.6V82.2H73.3z M709.2,716.5H157.8V165.1h551.4V716.5z"/>
</g>
<g>
	<path class="st2" d="M73.3,82.2V801h716.6V82.2H73.3z M721,728.2H146.1V153.3H721V728.2z"/>
</g>
<g id="Top_Layer">
	<path class="st0" d="M3.7,13.1V868h854.9V13.1H3.7z M730.4,739.8H132V141.3h598.5v598.6H730.4z M67.8,858.2v-14.3V858.2z
		 M67.8,829.8v-14.2V829.8z M67.8,791.8v-14.3V791.8z M67.8,762.1v-14.3V762.1z M67.8,732v-14.3V732z M67.8,702.2v-14.3V702.2z
		 M67.8,672.2V658V672.2z M67.8,642.4v-14.3V642.4z M67.8,612.5v-14.3V612.5z M67.8,582.5v-14.3V582.5z M67.8,552.8v-14.3V552.8z
		 M67.8,523v-14.3V523z M67.8,492.9v-14.3V492.9z M67.8,463.1v-14.3V463.1z M67.8,433.1v-14.3V433.1z M67.8,403.3V389V403.3z
		 M67.8,373.3V359V373.3z M67.8,343.5v-14.3V343.5z M67.8,313.7v-14.3V313.7z M67.8,283.8v-14.3V283.8z M67.8,253.8v-14.3V253.8z
		 M67.8,223.9v-14.3V223.9z M67.8,194v-14.3V194z M67.8,164.1v-14.3V164.1z M67.8,134.3V120V134.3z M67.8,104.4V90.2V104.4z
		 M67.8,65.3V50.9V65.3z M67.8,36.8V22.5V36.8z M794.5,858.2v-14.3V858.2z M794.5,829.8v-14.2V829.8z M794.5,791.8v-14.3V791.8z
		 M794.5,762.1v-14.3V762.1z M794.5,732v-14.3V732z M794.5,702.2v-14.3V702.2z M794.5,672.2V658V672.2z M794.5,642.4v-14.3V642.4z
		 M794.5,612.5v-14.3V612.5z M794.5,582.5v-14.3V582.5z M794.5,552.8v-14.3V552.8z M794.5,523v-14.3V523z M794.5,492.9v-14.3V492.9z
		 M794.5,463.1v-14.3V463.1z M794.5,433.1v-14.3V433.1z M794.5,403.3V389V403.3z M794.5,373.3V359V373.3z M794.5,343.5v-14.3V343.5z
		 M794.5,313.7v-14.3V313.7z M794.5,283.8v-14.3V283.8z M794.5,253.8v-14.3V253.8z M794.5,223.9v-14.3V223.9z M794.5,194v-14.3V194z
		 M794.5,164.1v-14.3V164.1z M794.5,134.3V120V134.3z M794.5,104.4V90.2V104.4z M794.5,65.3V50.9V65.3z M794.5,36.8V22.5V36.8z
		 M859.2,803.9H792H859.2z M776.6,803.9h-14.3H776.6z M747,803.9h-14.3H747z M717.4,803.9h-14.3H717.4z M687.8,803.9h-14.3H687.8z
		 M658.1,803.9h-14.3H658.1z M628.4,803.9h-14.3H628.4z M598.7,803.9h-14.3H598.7z M569.2,803.9h-14.3H569.2z M539.6,803.9h-14.3
		H539.6z M509.9,803.9h-14.3H509.9z M480.3,803.9H466H480.3z M450.7,803.9h-14.3H450.7z M421,803.9h-14.3H421z M391.5,803.9h-14.3
		H391.5z M361.8,803.9h-14.3H361.8z M332.1,803.9h-14.3H332.1z M302.6,803.9h-14.3H302.6z M272.9,803.9h-14.3H272.9z M243.2,803.9
		h-14.3H243.2z M213.6,803.9h-14.3H213.6z M184,803.9h-14.3H184z M154.3,803.9H140H154.3z M124.7,803.9h-14.4H124.7z M95,803.9H80.8
		H95z M66.6,803.9h-63H66.6z M858.1,77.2h-67.2H858.1z M775.4,77.2h-14.3H775.4z M745.9,77.2h-14.3H745.9z M716.3,77.2H702H716.3z
		 M686.6,77.2h-14.3H686.6z M656.9,77.2h-14.3H656.9z M627.4,77.2h-14.3H627.4z M597.7,77.2h-14.3H597.7z M568,77.2h-14.3H568z
		 M538.5,77.2h-14.3H538.5z M508.8,77.2h-14.3H508.8z M479.2,77.2h-14.3H479.2z M449.6,77.2h-14.3H449.6z M419.9,77.2h-14.2H419.9z
		 M390.2,77.2h-14.3H390.2z M360.6,77.2h-14.3H360.6z M331,77.2h-14.3H331z M301.4,77.2h-14.3H301.4z M271.7,77.2h-14.3H271.7z
		 M242.2,77.2h-14.3H242.2z M212.6,77.2h-14.3H212.6z M182.7,77.2h-14.3H182.7z M153.2,77.2h-14.3H153.2z M123.6,77.2h-14.3H123.6z
		 M93.9,77.2H79.7H93.9z M65.4,77.2H2.5H65.4z"/>
</g>
</svg>
