<?xml version="1.0" encoding="UTF-8"?>
<svg id="Bouquet_Lantern_-_Floral_Panels" data-name="Bouquet Lantern - Floral Panels" xmlns="http://www.w3.org/2000/svg" viewBox="0 0 855.53 857.73">
  <defs>
    <style>
      .cls-1 {
        fill: #64d400;
      }

      .cls-1, .cls-2, .cls-3, .cls-4, .cls-5, .cls-6, .cls-7 {
        stroke: #231f20;
        stroke-miterlimit: 10;
      }

      .cls-2 {
        fill: #02b2b0;
      }

      .cls-3 {
        fill: #fbef91;
      }

      .cls-4 {
        fill: #37b34a;
      }

      .cls-5 {
        fill: #ffc907;
      }

      .cls-6 {
        fill: #ffa900;
      }

      .cls-8 {
        fill: #e6e7e8;
      }

      .cls-7 {
        fill: #f9e547;
      }
    </style>
  </defs>
  <path class="cls-8" d="M536.88,511.36h-19.72c-6.12-.8-5.04-5.83-6.36-9.95-1.57-7.6-4.51-21.75-9.07-33.68-9.67-25-14.75-18.7-33.54-19.44-13.71,1.32-22.86,42.76-25.22,53.15-1.43,4.05-.37,9.21-6.48,9.93h-18.55c-4.96,0-9.43,3.07-11.15,7.72-34.89,94.44-20.28,203.03,7,283.23,1.63,4.8,6.16,8.02,11.24,8.02h14.14c5.32,0,6.08,5.99,6.37,8.25.82,6.33.77,16.89,2.01,25.17.74,4.95,5.06,8.58,10.07,8.58h37.9c4.91,0,9.17-3.49,10.03-8.32,1.48-8.37,1.46-19.37,2.32-25.68.27-1.98,1.08-7.99,6.33-7.99h14.4c5.12,0,9.66-3.27,11.3-8.12,29.46-87.01,47.69-179.75,8.11-283.23-1.76-4.59-6.19-7.62-11.11-7.62l-.02-.02h0Z"/>
  <path class="cls-2" d="M550.2,509.49c-.58-1.72-2.33-3.23-3.65-3.23h-24.84c-1.17,0-.56-2.14.54-2.14h18.19c2.36,0,4.77-3.7,3.32-7.74-8.12-22.69-35.31-53.2-56.62-53.2h-18.41c-21.09,0-47.09,27.55-56.35,53.2-1.22,3.38,1.39,7.74,3.62,7.74h16.55c1.12,0,1.66,2.14.48,2.14h-23.39c-1.58,0-3.26,1.26-3.82,2.74-10.08,26.6-25.95,77.35-25.95,125.51,0,72.14,15.87,133.37,31.69,175.91.93,2.47,2.81,4.82,4.88,4.82h17.27c3.63,0,3.71,2.38,2.64,2.38h-15.79c-3.18,0-5.08,4.55-3.34,7.98,6.58,12.88,13.43,31.86,23.56,31.63h71.97c11.07.07,18.24-18.51,24.66-31.78,1.65-3.41-.29-7.83-3.41-7.83h-15.85c-1.26,0-1.04-2.38,2.57-2.38h17.33c2.46,0,4.69-2.75,5.68-5.79,17.75-50.22,33.4-102.14,33.4-174.94,0-54.52-17.9-98.16-26.94-125.02h.01ZM548,610.53c2.94,3.51,2.76,8.53-4.61,14.79-7.37,6.26-22.08,7.88-22.08,7.88,0,0,4.06-14.32,11.43-20.58s12.32-5.59,15.26-2.09h0ZM478.58,608.41c-6.14,5.96-19.02,8.26-19.02,8.26,0,0,2.74-12.87,8.88-18.83s10.54-5.66,13.34-2.74,2.94,7.36-3.2,13.32h0ZM478.21,631.22c-1.86.58-3.84-.46-4.42-2.33-.58-1.87.46-3.86,2.32-4.44,1.86-.58,3.84.46,4.42,2.33.58,1.87-.46,3.86-2.32,4.44ZM437.94,647.88c-6.14,5.96-10.54,5.66-13.34,2.74s-2.94-7.36,3.2-13.32,19.02-8.26,19.02-8.26c0,0-2.74,12.87-8.88,18.83h0ZM444.06,665.59c-1.82,1.48-4.48,1.2-5.95-.63s-1.19-4.51.62-5.99c1.82-1.48,4.48-1.2,5.95.63s1.19,4.51-.62,5.99ZM419.61,691.78c-2.34,0-4.23-1.91-4.23-4.26s1.9-4.26,4.23-4.26,4.23,1.91,4.23,4.26-1.9,4.26-4.23,4.26ZM425.97,698.39c3.12,0,5.64,2.54,5.64,5.68s-2.53,5.68-5.64,5.68-5.64-2.54-5.64-5.68,2.53-5.68,5.64-5.68ZM418.68,613.27c10.68.19,24.12,9.64,24.12,9.64,0,0-13.76,8.96-24.44,8.77s-14.33-4.38-14.24-9.46,3.88-9.14,14.56-8.95ZM417.63,585.79c3.64-3.53,9.17-3.7,16.58,4.03,7.42,7.73,10.28,23.97,10.28,23.97,0,0-16.03-3.46-23.45-11.19s-7.05-13.29-3.42-16.82h.01ZM420.41,661.25c-1.23-1.52-.99-3.76.52-4.99,1.51-1.23,3.74-1,4.96.52,1.23,1.52.99,3.76-.52,4.99s-3.74,1-4.96-.52ZM444.89,587.81c.19-10.75,4.35-14.42,9.4-14.32s9.08,3.9,8.89,14.65c-.19,10.75-9.58,24.27-9.58,24.27,0,0-8.91-13.85-8.72-24.59h0ZM487.21,558.85c-2.42,1.97-5.98,1.6-7.94-.84s-1.59-6.01.83-7.99c2.42-1.98,5.98-1.6,7.94.84s1.59,6.01-.83,7.99ZM493.33,574.83c1.79.95,2.95,3.74,3.58,5.74.31,1,1.48,1.4,2.34.81,1.69-1.16,4.29-2.62,6.41-2.43,3.03.27,5.06,3.87,4.05,6.94s-5.1,5.43-5.8,5.84l-11.25,5.54-5.73-11.52c-.32-.41-2.33-4.85-1.32-7.92,1.01-3.07,4.73-4.58,7.71-3h.01ZM479.94,569.17c.58,1.87-.46,3.86-2.32,4.44-1.86.58-3.84-.46-4.42-2.33-.58-1.87.46-3.86,2.32-4.44s3.84.46,4.42,2.33ZM484.83,638.67c1.82-1.48,4.48-1.2,5.95.63s1.19,4.51-.62,5.99c-1.82,1.48-4.48,1.2-5.95-.63s-1.19-4.51.62-5.99ZM491.2,625.2c-4.96-5.92-4.44-9.89-1.66-12.26,2.78-2.36,6.77-2.22,11.73,3.7,4.96,5.92,6.25,17.73,6.25,17.73,0,0-11.36-3.26-16.32-9.18h0ZM506.88,608.42c.81-9.67,4.78-12.72,9.32-12.33,4.54.39,7.95,4.07,7.13,13.73-.81,9.67-10.08,21.28-10.08,21.28,0,0-7.19-13.01-6.38-22.68h.01ZM517.98,585.81c0-1.96,1.58-3.55,3.53-3.55s3.53,1.59,3.53,3.55-1.58,3.55-3.53,3.55-3.53-1.59-3.53-3.55ZM534.16,655.85c4.96,5.92,4.44,9.89,1.66,12.26-2.78,2.36-6.77,2.22-11.73-3.7-4.96-5.92-6.25-17.73-6.25-17.73,0,0,11.36,3.26,16.32,9.18h0ZM535.14,589.83c2.23-.7,4.61.56,5.3,2.8.69,2.25-.55,4.63-2.78,5.33s-4.61-.56-5.3-2.8c-.69-2.25.55-4.63,2.78-5.33ZM510.53,536.76c2.34,0,4.23,1.91,4.23,4.26s-1.9,4.26-4.23,4.26-4.23-1.91-4.23-4.26,1.9-4.26,4.23-4.26ZM480.69,531.91c13.38.19,25.38,14.33,23.28,31.77,1.87-3.45,4.87-7.57,7.97-10.54,10.78-10.33,31.27-9.21,33.67,7.79,1.4,9.95-10.2,18.29-18.44,12.41-7.54-5.3-2.67-18.56,5.96-14.3,2.46,1.48,2.67,3.81.9,5.17-1.15.9-2.86.64-3.62-.25-.66-.85-3.12.43-2.69,2.73.57,2.91,4.15,5.86,9.25,2.96,10.22-9.69-4.17-20.16-14.57-16.59-5.84,2-11.73,7.13-17.64,16.85-2.65,4.36-6.3,2.04-5.61-2.38,2.66-16.93-8.26-29.82-18.6-29.82-3.85,0-1.94,2.24-2.93,4.02-1.61,2.9-5.74,3.45-7.26-.39-2.19-5.55,2.6-9.54,10.32-9.44h0ZM457.48,532.07c1.86-.58,3.84.46,4.42,2.33s-.46,3.86-2.32,4.44c-1.86.58-3.84-.46-4.42-2.33-.58-1.87.46-3.86,2.32-4.44ZM443.04,540.56c13.34,3.25,21.97,13.98,25.28,18.83.89,1.31.58,3.08-.71,4-1.14.81-2.71.59-3.57-.5-3.3-4.19-12.2-13.62-26.52-15.4-19.77-3.52-29.05,21.84-10.77,23.45,6.86-.15,8.71-5.27,7.55-8.54-.93-2.58-4.17-2.39-4.33-1.13-.24,1.35-1.8,2.64-3.49,2.43-2.58-.31-3.76-2.78-2.17-5.75,6.15-9.48,18.93.93,14.49,10.8-4.8,10.87-22.42,9.83-25.93-1.39-6.14-19.23,13.85-31.13,30.17-26.78v-.02h0ZM406.68,579.08c1.86-.58,3.84.46,4.42,2.33.58,1.87-.46,3.86-2.32,4.44s-3.84-.46-4.42-2.33c-.58-1.87.46-3.86,2.32-4.44ZM402.71,600.13c1.82-1.48,4.48-1.2,5.95.63s1.19,4.51-.62,5.99c-1.82,1.48-4.48,1.2-5.95-.63s-1.19-4.51.62-5.99ZM406.48,661.77c-1.51,1.23-3.74,1-4.96-.52-1.23-1.52-.99-3.76.52-4.99s3.74-1,4.96.52c1.23,1.52.99,3.76-.52,4.99ZM412.98,674.54c-1.51,1.23-3.74,1-4.96-.52-1.23-1.52-.99-3.76.52-4.99,1.51-1.23,3.74-1,4.96.52s.99,3.76-.52,4.99ZM439.32,776.01c-2.34,0-4.23-1.91-4.23-4.26s1.9-4.26,4.23-4.26,4.23,1.91,4.23,4.26-1.9,4.26-4.23,4.26ZM448.63,790.74c-1.82,1.48-4.48,1.2-5.95-.63s-1.19-4.51.62-5.99c1.82-1.48,4.48-1.2,5.95.63s1.19,4.51-.62,5.99ZM470.15,787.96c-.11,2.1-1.84,3.73-3.92,3.73s-3.8-1.71-3.85-3.8h-.03c-5.31-22.22-20.71-32.15-30.7-30-3.1.67-.52,3.45-1.07,5.57-.66,2.52-5.54,4.18-7.56,1.93-3.89-5.31-.23-11.06,7.74-13.14,11.79-3.08,25.07,7.46,31.56,21.78-.78-13.97-4.23-33-16.22-44.65-14.86-14.43-32.76,1.19-22.3,11.78,4.61,4.66,10.14.75,11.07-2.59.72-2.64-2.04-4.37-2.88-3.44-.97.97-2.98,1.11-4.25-.04-1.93-1.75-1.48-4.45,1.53-5.95,10.46-4.18,14.93,11.75,5.64,17.23-10.15,6.1-23.43-4.32-19.73-16.47,5.53-18.1,27.56-15.87,39.48-2.3,16.17,18.4,16.05,49.64,15.48,60.35h.01ZM459.96,722.91c-4.65-5.29-10.63-9.17-16.89-11.29-3.16-17.65-9.46-30.57-18.35-37.61-3-2.38-.91-3.69,2.8-2.82,19.65,4.61,34.92,24.62,43.31,48.21,3.75-24.23,6.04-48.52-3.97-70.7-3.1-6.67-6.81-13.07-11.23-18.94-2.57-3.41-8.04-6.58-5.01-10.17,2.61-2.45,5.02.8,6.61,2.79,15.66,18.72,21.07,30.03,26.6,54.53,7.08-17.15,12.44-26.95,28.64-39.1,1.06-.81,2.75-.16,3.35.88.73,1.25.17,2.57-.88,3.37-4.34,3.31-8.47,7.7-11.59,12.11-8.71,12.4-16.72,33.71-18.56,47-1.13,8.17-2.08,20.6-2.04,31.53,11.16-26.88,28.09-37.88,41.06-39.25,3.83-.4,5.42-.29,2.43,2.38-8.46,7.57-18.54,20.96-26.38,49.39-4.39,2.12-8.4,5.15-11.58,8.95-6.98,8.06-9.8,17.73-10.9,25.23-.18-15.54-3.02-40.11-17.41-56.5h0ZM455.01,668.81c2.42-1.98,5.98-1.6,7.94.84s1.59,6.01-.83,7.99c-2.42,1.97-5.98,1.6-7.94-.84s-1.59-6.01.83-7.99ZM521.63,718.71c-.69-2.25.55-4.63,2.78-5.33,2.23-.7,4.6.56,5.3,2.8.69,2.25-.55,4.63-2.78,5.33-2.23.7-4.6-.56-5.3-2.8ZM524.12,736.15c0,3.14-2.53,5.68-5.64,5.68s-5.64-2.54-5.64-5.68,2.53-5.68,5.64-5.68,5.64,2.54,5.64,5.68ZM506.19,791.11c-2.42,1.98-5.98,1.6-7.94-.84s-1.59-6.01.83-7.99c2.42-1.97,5.98-1.6,7.94.84s1.59,6.01-.83,7.99ZM513.25,779.34c-9.29-5.48-4.82-21.41,5.64-17.23,3.01,1.5,3.46,4.2,1.53,5.95-1.26,1.15-3.28,1.01-4.25.04-.85-.93-3.61.79-2.88,3.44.93,3.34,5.38,6.45,11.07,2.59,14.01-11.93-8.11-27.25-22.24-12.9-10.67,9.76-12.53,22.63-12.83,27.97-.08,1.4-1.24,2.49-2.63,2.49-1.57,0-2.85-1.27-2.87-2.85-.07-5.88.82-19.66,9.85-30.05,10.83-13.02,33.98-14.91,40,4.36,3.56,11.2-10.23,22.29-20.38,16.19h-.01ZM536.72,705.8c-1.51,1.23-3.74,1-4.96-.52-1.23-1.52-.99-3.76.52-4.99s3.74-1,4.96.52c1.23,1.52.99,3.76-.52,4.99ZM547.2,691.13c-2.6,2.57-9.05,3.13-9.13-2.49-.04-2.65,2.27-4.27-1.33-5.62-9.99-3.74-31-2.74-41.13,14.89-1.26,2.19-1.92,2.97-3,2.53-1.5-.62-.77-3.24.19-4.9,9.89-17.07,30.11-22.57,45.53-19.3,10.06,2.13,12.96,10.86,8.87,14.89h0ZM543.16,651.66c-9.61-.82-21.15-10.14-21.15-10.14,0,0,12.93-7.24,22.54-6.42s12.64,4.81,12.26,9.38-4.04,8-13.65,7.18h0ZM514.32,857.23l.09-1.24-.09,1.24.37-4.74-.37,4.74ZM439.21,857.23l-.26-4.69h0l.26,4.69ZM515.34,844.02h0l.46-5.98-.46,5.98ZM438.46,843.95l-.34-5.99.34,5.99h0ZM438.28,840.56l-.34-5.99h0l.34,5.99ZM515.62,840.53l.46-5.98-.46,5.98ZM516.74,826.08h0l.46-5.98-.46,5.98ZM437.46,825.98l-.34-5.99.34,5.99h0ZM437.27,822.59l-.34-5.99h6s-6,0-6,0l.34,5.99ZM517.01,822.58l.46-5.98-.46,5.98ZM508.93,816.6h0s6,0,6,0h-6ZM490.93,816.6h0s6,0,6,0h-6ZM472.93,816.6h0s6,0,6,0h-6ZM454.93,816.6h0s6,0,6,0h-6ZM520.92,505.32h-6,6s0,0,0,0ZM502.92,505.32h-6,6s0,0,0,0ZM484.92,505.32h-6,6s0,0,0,0ZM466.92,505.32h-6,6s0,0,0,0ZM448.92,505.32h-6,6s0,0,0,0ZM433.81,505.32l.25-2.8-.25,2.8.53-5.98-.53,5.98ZM520.64,501.23l-.43-5.98h0l-.27-3.77.7,9.76ZM435.13,490.57l.81-9.16-.28,3.18h0l-.53,5.98ZM519.35,483.28l-.43-5.98h0l-.27-3.77.7,9.76ZM436.72,472.64l.82-9.16-.82,9.16ZM518.07,465.33l-.43-5.98.43,5.98Z"/>
  <path class="cls-8" d="M488.83,511.36h-19.72c-6.12-.8-5.04-5.83-6.36-9.95-1.57-7.6-4.51-21.75-9.07-33.68-9.67-25-14.75-18.7-33.54-19.44-13.71,1.32-22.86,42.76-25.22,53.15-1.43,4.05-.37,9.21-6.48,9.93h-18.55c-4.96,0-9.43,3.07-11.15,7.72-34.89,94.44-20.28,203.03,7,283.23,1.63,4.8,6.16,8.02,11.24,8.02h14.14c5.32,0,6.08,5.99,6.37,8.25.82,6.33.77,16.89,2.01,25.17.74,4.95,5.06,8.58,10.07,8.58h37.9c4.91,0,9.17-3.49,10.03-8.32,1.48-8.37,1.46-19.37,2.32-25.68.27-1.98,1.08-7.99,6.33-7.99h14.4c5.12,0,9.66-3.27,11.3-8.12,29.46-87.01,47.69-179.75,8.11-283.23-1.76-4.59-6.19-7.62-11.11-7.62l-.02-.02h0Z"/>
  <path class="cls-2" d="M502.15,509.49c-.58-1.72-2.33-3.23-3.65-3.23h-24.84c-1.17,0-.56-2.14.54-2.14h18.19c2.36,0,4.77-3.7,3.32-7.74-8.12-22.69-35.31-53.2-56.62-53.2h-18.41c-21.09,0-47.09,27.55-56.35,53.2-1.22,3.38,1.39,7.74,3.62,7.74h16.55c1.12,0,1.66,2.14.48,2.14h-23.39c-1.58,0-3.26,1.26-3.82,2.74-10.08,26.6-25.95,77.35-25.95,125.51,0,72.14,15.87,133.37,31.69,175.91.93,2.47,2.81,4.82,4.88,4.82h17.27c3.63,0,3.71,2.38,2.64,2.38h-15.79c-3.18,0-5.08,4.55-3.34,7.98,6.58,12.88,13.43,31.86,23.56,31.63h71.97c11.07.07,18.24-18.51,24.66-31.78,1.65-3.41-.29-7.83-3.41-7.83h-15.85c-1.26,0-1.04-2.38,2.57-2.38h17.33c2.46,0,4.69-2.75,5.68-5.79,17.75-50.22,33.4-102.14,33.4-174.94,0-54.52-17.9-98.16-26.94-125.02h0ZM499.94,610.53c2.94,3.51,2.76,8.53-4.61,14.79-7.37,6.26-22.08,7.88-22.08,7.88,0,0,4.06-14.32,11.43-20.58s12.32-5.59,15.26-2.09h0ZM430.53,608.41c-6.14,5.96-19.02,8.26-19.02,8.26,0,0,2.74-12.87,8.88-18.83s10.54-5.66,13.34-2.74,2.94,7.36-3.2,13.32h0ZM430.16,631.22c-1.86.58-3.84-.46-4.42-2.33-.58-1.87.46-3.86,2.32-4.44,1.86-.58,3.84.46,4.42,2.33.58,1.87-.46,3.86-2.32,4.44ZM389.88,647.88c-6.14,5.96-10.54,5.66-13.34,2.74s-2.94-7.36,3.2-13.32,19.02-8.26,19.02-8.26c0,0-2.74,12.87-8.88,18.83h0ZM396,665.59c-1.82,1.48-4.48,1.2-5.95-.63s-1.19-4.51.62-5.99c1.82-1.48,4.48-1.2,5.95.63s1.19,4.51-.62,5.99ZM371.56,691.78c-2.34,0-4.23-1.91-4.23-4.26s1.9-4.26,4.23-4.26,4.23,1.91,4.23,4.26-1.9,4.26-4.23,4.26ZM377.92,698.39c3.12,0,5.64,2.54,5.64,5.68s-2.53,5.68-5.64,5.68-5.64-2.54-5.64-5.68,2.53-5.68,5.64-5.68ZM370.62,613.27c10.68.19,24.12,9.64,24.12,9.64,0,0-13.76,8.96-24.44,8.77s-14.33-4.38-14.24-9.46,3.88-9.14,14.56-8.95ZM369.58,585.79c3.64-3.53,9.17-3.7,16.58,4.03,7.42,7.73,10.28,23.97,10.28,23.97,0,0-16.03-3.46-23.45-11.19s-7.05-13.29-3.42-16.82h.01ZM372.36,661.25c-1.23-1.52-.99-3.76.52-4.99,1.51-1.23,3.74-1,4.96.52,1.23,1.52.99,3.76-.52,4.99-1.51,1.23-3.74,1-4.96-.52ZM396.84,587.81c.19-10.75,4.35-14.42,9.4-14.32s9.08,3.9,8.89,14.65c-.19,10.75-9.58,24.27-9.58,24.27,0,0-8.91-13.85-8.72-24.59h0ZM439.15,558.85c-2.42,1.97-5.98,1.6-7.94-.84s-1.59-6.01.83-7.99c2.42-1.98,5.98-1.6,7.94.84s1.59,6.01-.83,7.99ZM445.28,574.83c1.79.95,2.95,3.74,3.58,5.74.31,1,1.48,1.4,2.34.81,1.69-1.16,4.29-2.62,6.41-2.43,3.03.27,5.06,3.87,4.05,6.94s-5.1,5.43-5.8,5.84l-11.25,5.54-5.73-11.52c-.32-.41-2.33-4.85-1.32-7.92,1.01-3.07,4.73-4.58,7.71-3h.01ZM431.89,569.17c.58,1.87-.46,3.86-2.32,4.44-1.86.58-3.84-.46-4.42-2.33-.58-1.87.46-3.86,2.32-4.44,1.86-.58,3.84.46,4.42,2.33ZM436.77,638.67c1.82-1.48,4.48-1.2,5.95.63s1.19,4.51-.62,5.99c-1.82,1.48-4.48,1.2-5.95-.63s-1.19-4.51.62-5.99ZM443.14,625.2c-4.96-5.92-4.44-9.89-1.66-12.26,2.78-2.36,6.77-2.22,11.73,3.7,4.96,5.92,6.25,17.73,6.25,17.73,0,0-11.36-3.26-16.32-9.18h0ZM458.83,608.42c.81-9.67,4.78-12.72,9.32-12.33,4.54.39,7.95,4.07,7.13,13.73-.81,9.67-10.08,21.28-10.08,21.28,0,0-7.19-13.01-6.38-22.68h0ZM469.93,585.81c0-1.96,1.58-3.55,3.53-3.55s3.53,1.59,3.53,3.55-1.58,3.55-3.53,3.55-3.53-1.59-3.53-3.55ZM486.11,655.85c4.96,5.92,4.44,9.89,1.66,12.26-2.78,2.36-6.77,2.22-11.73-3.7-4.96-5.92-6.25-17.73-6.25-17.73,0,0,11.36,3.26,16.32,9.18h0ZM487.09,589.83c2.23-.7,4.61.56,5.3,2.8.69,2.25-.55,4.63-2.78,5.33s-4.61-.56-5.3-2.8c-.69-2.25.55-4.63,2.78-5.33ZM462.48,536.76c2.34,0,4.23,1.91,4.23,4.26s-1.9,4.26-4.23,4.26-4.23-1.91-4.23-4.26,1.9-4.26,4.23-4.26ZM432.63,531.91c13.38.19,25.38,14.33,23.28,31.77,1.87-3.45,4.87-7.57,7.97-10.54,10.78-10.33,31.27-9.21,33.67,7.79,1.4,9.95-10.2,18.29-18.44,12.41-7.54-5.3-2.67-18.56,5.96-14.3,2.46,1.48,2.67,3.81.9,5.17-1.15.9-2.86.64-3.62-.25-.66-.85-3.12.43-2.69,2.73.57,2.91,4.15,5.86,9.25,2.96,10.22-9.69-4.17-20.16-14.57-16.59-5.84,2-11.73,7.13-17.64,16.85-2.65,4.36-6.3,2.04-5.61-2.38,2.66-16.93-8.26-29.82-18.6-29.82-3.85,0-1.94,2.24-2.93,4.02-1.61,2.9-5.74,3.45-7.26-.39-2.19-5.55,2.6-9.54,10.32-9.44h.01ZM409.43,532.07c1.86-.58,3.84.46,4.42,2.33.58,1.87-.46,3.86-2.32,4.44-1.86.58-3.84-.46-4.42-2.33s.46-3.86,2.32-4.44ZM394.99,540.56c13.34,3.25,21.97,13.98,25.28,18.83.89,1.31.58,3.08-.71,4-1.14.81-2.71.59-3.57-.5-3.3-4.19-12.2-13.62-26.52-15.4-19.77-3.52-29.05,21.84-10.77,23.45,6.86-.15,8.71-5.27,7.55-8.54-.93-2.58-4.17-2.39-4.33-1.13-.24,1.35-1.8,2.64-3.49,2.43-2.58-.31-3.76-2.78-2.17-5.75,6.15-9.48,18.93.93,14.49,10.8-4.8,10.87-22.42,9.83-25.93-1.39-6.14-19.23,13.85-31.13,30.17-26.78v-.02h0ZM358.63,579.08c1.86-.58,3.84.46,4.42,2.33.58,1.87-.46,3.86-2.32,4.44s-3.84-.46-4.42-2.33c-.58-1.87.46-3.86,2.32-4.44ZM354.65,600.13c1.82-1.48,4.48-1.2,5.95.63s1.19,4.51-.62,5.99c-1.82,1.48-4.48,1.2-5.95-.63s-1.19-4.51.62-5.99ZM358.43,661.77c-1.51,1.23-3.74,1-4.96-.52s-.99-3.76.52-4.99c1.51-1.23,3.74-1,4.96.52,1.23,1.52.99,3.76-.52,4.99ZM364.92,674.54c-1.51,1.23-3.74,1-4.96-.52-1.23-1.52-.99-3.76.52-4.99s3.74-1,4.96.52.99,3.76-.52,4.99ZM391.27,776.01c-2.34,0-4.23-1.91-4.23-4.26s1.9-4.26,4.23-4.26,4.23,1.91,4.23,4.26-1.9,4.26-4.23,4.26ZM400.58,790.74c-1.82,1.48-4.48,1.2-5.95-.63s-1.19-4.51.62-5.99c1.82-1.48,4.48-1.2,5.95.63s1.19,4.51-.62,5.99ZM422.09,787.96c-.11,2.1-1.84,3.73-3.92,3.73s-3.8-1.71-3.85-3.8h-.03c-5.31-22.22-20.71-32.15-30.7-30-3.1.67-.52,3.45-1.07,5.57-.66,2.52-5.54,4.18-7.56,1.93-3.89-5.31-.23-11.06,7.74-13.14,11.79-3.08,25.07,7.46,31.56,21.78-.78-13.97-4.23-33-16.22-44.65-14.86-14.43-32.76,1.19-22.3,11.78,4.61,4.66,10.14.75,11.07-2.59.72-2.64-2.04-4.37-2.88-3.44-.97.97-2.98,1.11-4.25-.04-1.93-1.75-1.48-4.45,1.53-5.95,10.46-4.18,14.93,11.75,5.64,17.23-10.15,6.1-23.43-4.32-19.73-16.47,5.53-18.1,27.56-15.87,39.48-2.3,16.17,18.4,16.05,49.64,15.48,60.35h.01ZM411.91,722.91c-4.65-5.29-10.63-9.17-16.89-11.29-3.16-17.65-9.46-30.57-18.35-37.61-3-2.38-.91-3.69,2.8-2.82,19.65,4.61,34.92,24.62,43.31,48.21,3.75-24.23,6.04-48.52-3.97-70.7-3.1-6.67-6.81-13.07-11.23-18.94-2.57-3.41-8.04-6.58-5.01-10.17,2.61-2.45,5.02.8,6.61,2.79,15.66,18.72,21.07,30.03,26.6,54.53,7.08-17.15,12.44-26.95,28.64-39.1,1.06-.81,2.75-.16,3.35.88.73,1.25.17,2.57-.88,3.37-4.34,3.31-8.47,7.7-11.59,12.11-8.71,12.4-16.72,33.71-18.56,47-1.13,8.17-2.08,20.6-2.04,31.53,11.16-26.88,28.09-37.88,41.06-39.25,3.83-.4,5.42-.29,2.43,2.38-8.46,7.57-18.54,20.96-26.38,49.39-4.39,2.12-8.4,5.15-11.58,8.95-6.98,8.06-9.8,17.73-10.9,25.23-.18-15.54-3.02-40.11-17.41-56.5h0ZM406.96,668.81c2.42-1.98,5.98-1.6,7.94.84s1.59,6.01-.83,7.99-5.98,1.6-7.94-.84-1.59-6.01.83-7.99ZM473.58,718.71c-.69-2.25.55-4.63,2.78-5.33s4.6.56,5.3,2.8c.69,2.25-.55,4.63-2.78,5.33s-4.6-.56-5.3-2.8ZM476.07,736.15c0,3.14-2.53,5.68-5.64,5.68s-5.64-2.54-5.64-5.68,2.53-5.68,5.64-5.68,5.64,2.54,5.64,5.68ZM458.13,791.11c-2.42,1.98-5.98,1.6-7.94-.84s-1.59-6.01.83-7.99c2.42-1.97,5.98-1.6,7.94.84s1.59,6.01-.83,7.99ZM465.19,779.34c-9.29-5.48-4.82-21.41,5.64-17.23,3.01,1.5,3.46,4.2,1.53,5.95-1.26,1.15-3.28,1.01-4.25.04-.85-.93-3.61.79-2.88,3.44.93,3.34,5.38,6.45,11.07,2.59,14.01-11.93-8.11-27.25-22.24-12.9-10.67,9.76-12.53,22.63-12.83,27.97-.08,1.4-1.24,2.49-2.63,2.49-1.57,0-2.85-1.27-2.87-2.85-.07-5.88.82-19.66,9.85-30.05,10.83-13.02,33.98-14.91,40,4.36,3.56,11.2-10.23,22.29-20.38,16.19h-.01ZM488.67,705.8c-1.51,1.23-3.74,1-4.96-.52-1.23-1.52-.99-3.76.52-4.99,1.51-1.23,3.74-1,4.96.52,1.23,1.52.99,3.76-.52,4.99ZM499.15,691.13c-2.6,2.57-9.05,3.13-9.13-2.49-.04-2.65,2.27-4.27-1.33-5.62-9.99-3.74-31-2.74-41.13,14.89-1.26,2.19-1.92,2.97-3,2.53-1.5-.62-.77-3.24.19-4.9,9.89-17.07,30.11-22.57,45.53-19.3,10.06,2.13,12.96,10.86,8.87,14.89h0ZM495.1,651.66c-9.61-.82-21.15-10.14-21.15-10.14,0,0,12.93-7.24,22.54-6.42,9.61.82,12.64,4.81,12.26,9.38s-4.04,8-13.65,7.18h0ZM466.27,857.23l.09-1.24-.09,1.24.37-4.74-.37,4.74ZM391.16,857.23l-.26-4.69h0l.26,4.69ZM467.3,844.02h0l.46-5.98-.46,5.98ZM390.41,843.95l-.34-5.99.34,5.99h0ZM390.23,840.56l-.34-5.99h0l.34,5.99ZM467.57,840.53l.46-5.98-.46,5.98ZM468.69,826.08h0l.46-5.98-.46,5.98ZM389.41,825.98l-.34-5.99.34,5.99h0ZM389.22,822.59l-.34-5.99h6s-6,0-6,0l.34,5.99ZM468.96,822.58l.46-5.98-.46,5.98ZM460.88,816.6h0s6,0,6,0h-6ZM442.88,816.6h0s6,0,6,0h-6ZM424.88,816.6h0s6,0,6,0h-6ZM406.88,816.6h0s6,0,6,0h-6ZM472.87,505.32h-6,6s0,0,0,0ZM454.87,505.32h-6,6s0,0,0,0ZM436.87,505.32h-6,6s0,0,0,0ZM418.87,505.32h-6,6s0,0,0,0ZM400.87,505.32h-6,6s0,0,0,0ZM385.75,505.32l.53-5.98-.28,3.18h0l-.25,2.8ZM472.58,501.23l-.43-5.98h0l-.27-3.77.7,9.76ZM387.07,490.57l.28-3.18h0l.53-5.98-.28,3.18h0l-.53,5.98ZM471.29,483.28l-.43-5.98h0l-.27-3.77.7,9.76ZM388.66,472.64l.28-3.18h0l.53-5.98-.28,3.18h0l-.53,5.98ZM470.01,465.33l-.43-5.98.16,2.21h0l.27,3.77Z"/>
  <path class="cls-8" d="M440.77,511.36h-19.72c-6.12-.8-5.04-5.83-6.36-9.95-1.57-7.6-4.51-21.75-9.07-33.68-9.67-25-14.75-18.7-33.54-19.44-13.71,1.32-22.86,42.76-25.22,53.15-1.43,4.05-.37,9.21-6.48,9.93h-18.55c-4.96,0-9.43,3.07-11.15,7.72-34.89,94.44-20.28,203.03,7,283.23,1.63,4.8,6.16,8.02,11.24,8.02h14.14c5.32,0,6.08,5.99,6.37,8.25.82,6.33.77,16.89,2.01,25.17.74,4.95,5.06,8.58,10.07,8.58h37.9c4.91,0,9.17-3.49,10.03-8.32,1.48-8.37,1.46-19.37,2.32-25.68.27-1.98,1.08-7.99,6.33-7.99h14.4c5.12,0,9.66-3.27,11.3-8.12,29.46-87.01,47.69-179.75,8.11-283.23-1.76-4.59-6.19-7.62-11.11-7.62l-.02-.02h0Z"/>
  <path class="cls-2" d="M454.1,509.49c-.58-1.72-2.33-3.23-3.65-3.23h-24.84c-1.17,0-.56-2.14.54-2.14h18.19c2.36,0,4.77-3.7,3.32-7.74-8.12-22.69-35.31-53.2-56.62-53.2h-18.41c-21.09,0-47.09,27.55-56.35,53.2-1.22,3.38,1.39,7.74,3.62,7.74h16.55c1.12,0,1.66,2.14.48,2.14h-23.39c-1.58,0-3.26,1.26-3.82,2.74-10.08,26.6-25.95,77.35-25.95,125.51,0,72.14,15.87,133.37,31.69,175.91.93,2.47,2.81,4.82,4.88,4.82h17.27c3.63,0,3.71,2.38,2.64,2.38h-15.79c-3.18,0-5.08,4.55-3.34,7.98,6.58,12.88,13.43,31.86,23.56,31.63h71.97c11.07.07,18.24-18.51,24.66-31.78,1.65-3.41-.29-7.83-3.41-7.83h-15.85c-1.26,0-1.04-2.38,2.57-2.38h17.33c2.46,0,4.69-2.75,5.68-5.79,17.75-50.22,33.4-102.14,33.4-174.94,0-54.52-17.9-98.16-26.94-125.02h.01ZM451.89,610.53c2.94,3.51,2.76,8.53-4.61,14.79-7.37,6.26-22.08,7.88-22.08,7.88,0,0,4.06-14.32,11.43-20.58s12.32-5.59,15.26-2.09h0ZM382.48,608.41c-6.14,5.96-19.02,8.26-19.02,8.26,0,0,2.74-12.87,8.88-18.83s10.54-5.66,13.34-2.74,2.94,7.36-3.2,13.32h0ZM382.1,631.22c-1.86.58-3.84-.46-4.42-2.33-.58-1.87.46-3.86,2.32-4.44,1.86-.58,3.84.46,4.42,2.33.58,1.87-.46,3.86-2.32,4.44ZM341.83,647.88c-6.14,5.96-10.54,5.66-13.34,2.74s-2.94-7.36,3.2-13.32,19.02-8.26,19.02-8.26c0,0-2.74,12.87-8.88,18.83h0ZM347.95,665.59c-1.82,1.48-4.48,1.2-5.95-.63s-1.19-4.51.62-5.99c1.82-1.48,4.48-1.2,5.95.63s1.19,4.51-.62,5.99ZM323.5,691.78c-2.34,0-4.23-1.91-4.23-4.26s1.9-4.26,4.23-4.26,4.23,1.91,4.23,4.26-1.9,4.26-4.23,4.26ZM329.86,698.39c3.12,0,5.64,2.54,5.64,5.68s-2.53,5.68-5.64,5.68-5.64-2.54-5.64-5.68,2.53-5.68,5.64-5.68ZM322.57,613.27c10.68.19,24.12,9.64,24.12,9.64,0,0-13.76,8.96-24.44,8.77s-14.33-4.38-14.24-9.46,3.88-9.14,14.56-8.95ZM321.53,585.79c3.64-3.53,9.17-3.7,16.58,4.03,7.42,7.73,10.28,23.97,10.28,23.97,0,0-16.03-3.46-23.45-11.19s-7.05-13.29-3.42-16.82h.01ZM324.3,661.25c-1.23-1.52-.99-3.76.52-4.99,1.51-1.23,3.74-1,4.96.52,1.23,1.52.99,3.76-.52,4.99s-3.74,1-4.96-.52ZM348.78,587.81c.19-10.75,4.35-14.42,9.4-14.32s9.08,3.9,8.89,14.65c-.19,10.75-9.58,24.27-9.58,24.27,0,0-8.91-13.85-8.72-24.59h0ZM391.1,558.85c-2.42,1.97-5.98,1.6-7.94-.84s-1.59-6.01.83-7.99c2.42-1.98,5.98-1.6,7.94.84s1.59,6.01-.83,7.99ZM397.23,574.83c1.79.95,2.95,3.74,3.58,5.74.31,1,1.48,1.4,2.34.81,1.69-1.16,4.29-2.62,6.41-2.43,3.03.27,5.06,3.87,4.05,6.94s-5.1,5.43-5.8,5.84l-11.25,5.54-5.73-11.52c-.32-.41-2.33-4.85-1.32-7.92,1.01-3.07,4.73-4.58,7.71-3h.01ZM383.83,569.17c.58,1.87-.46,3.86-2.32,4.44-1.86.58-3.84-.46-4.42-2.33-.58-1.87.46-3.86,2.32-4.44s3.84.46,4.42,2.33ZM388.72,638.67c1.82-1.48,4.48-1.2,5.95.63s1.19,4.51-.62,5.99c-1.82,1.48-4.48,1.2-5.95-.63s-1.19-4.51.62-5.99ZM395.09,625.2c-4.96-5.92-4.44-9.89-1.66-12.26,2.78-2.36,6.77-2.22,11.73,3.7,4.96,5.92,6.25,17.73,6.25,17.73,0,0-11.36-3.26-16.32-9.18h0ZM410.77,608.42c.81-9.67,4.78-12.72,9.32-12.33,4.54.39,7.95,4.07,7.13,13.73-.81,9.67-10.08,21.28-10.08,21.28,0,0-7.19-13.01-6.38-22.68h0ZM421.87,585.81c0-1.96,1.58-3.55,3.53-3.55s3.53,1.59,3.53,3.55-1.58,3.55-3.53,3.55-3.53-1.59-3.53-3.55ZM438.06,655.85c4.96,5.92,4.44,9.89,1.66,12.26-2.78,2.36-6.77,2.22-11.73-3.7-4.96-5.92-6.25-17.73-6.25-17.73,0,0,11.36,3.26,16.32,9.18h0ZM439.03,589.83c2.23-.7,4.61.56,5.3,2.8.69,2.25-.55,4.63-2.78,5.33s-4.61-.56-5.3-2.8c-.69-2.25.55-4.63,2.78-5.33ZM414.42,536.76c2.34,0,4.23,1.91,4.23,4.26s-1.9,4.26-4.23,4.26-4.23-1.91-4.23-4.26,1.9-4.26,4.23-4.26ZM384.58,531.91c13.38.19,25.38,14.33,23.28,31.77,1.87-3.45,4.87-7.57,7.97-10.54,10.78-10.33,31.27-9.21,33.67,7.79,1.4,9.95-10.2,18.29-18.44,12.41-7.54-5.3-2.67-18.56,5.96-14.3,2.46,1.48,2.67,3.81.9,5.17-1.15.9-2.86.64-3.62-.25-.66-.85-3.12.43-2.69,2.73.57,2.91,4.15,5.86,9.25,2.96,10.22-9.69-4.17-20.16-14.57-16.59-5.84,2-11.73,7.13-17.64,16.85-2.65,4.36-6.3,2.04-5.61-2.38,2.66-16.93-8.26-29.82-18.6-29.82-3.85,0-1.94,2.24-2.93,4.02-1.61,2.9-5.74,3.45-7.26-.39-2.19-5.55,2.6-9.54,10.32-9.44h.01ZM361.38,532.07c1.86-.58,3.84.46,4.42,2.33s-.46,3.86-2.32,4.44c-1.86.58-3.84-.46-4.42-2.33-.58-1.87.46-3.86,2.32-4.44ZM346.93,540.56c13.34,3.25,21.97,13.98,25.28,18.83.89,1.31.58,3.08-.71,4-1.14.81-2.71.59-3.57-.5-3.3-4.19-12.2-13.62-26.52-15.4-19.77-3.52-29.05,21.84-10.77,23.45,6.86-.15,8.71-5.27,7.55-8.54-.93-2.58-4.17-2.39-4.33-1.13-.24,1.35-1.8,2.64-3.49,2.43-2.58-.31-3.76-2.78-2.17-5.75,6.15-9.48,18.93.93,14.49,10.8-4.8,10.87-22.42,9.83-25.93-1.39-6.14-19.23,13.85-31.13,30.17-26.78v-.02h0ZM310.58,579.08c1.86-.58,3.84.46,4.42,2.33.58,1.87-.46,3.86-2.32,4.44s-3.84-.46-4.42-2.33c-.58-1.87.46-3.86,2.32-4.44ZM306.6,600.13c1.82-1.48,4.48-1.2,5.95.63s1.19,4.51-.62,5.99c-1.82,1.48-4.48,1.2-5.95-.63s-1.19-4.51.62-5.99ZM310.38,661.77c-1.51,1.23-3.74,1-4.96-.52-1.23-1.52-.99-3.76.52-4.99s3.74-1,4.96.52c1.23,1.52.99,3.76-.52,4.99ZM316.87,674.54c-1.51,1.23-3.74,1-4.96-.52-1.23-1.52-.99-3.76.52-4.99,1.51-1.23,3.74-1,4.96.52s.99,3.76-.52,4.99ZM343.22,776.01c-2.34,0-4.23-1.91-4.23-4.26s1.9-4.26,4.23-4.26,4.23,1.91,4.23,4.26-1.9,4.26-4.23,4.26ZM352.52,790.74c-1.82,1.48-4.48,1.2-5.95-.63s-1.19-4.51.62-5.99c1.82-1.48,4.48-1.2,5.95.63s1.19,4.51-.62,5.99ZM374.04,787.96c-.11,2.1-1.84,3.73-3.92,3.73s-3.8-1.71-3.85-3.8h-.03c-5.31-22.22-20.71-32.15-30.7-30-3.1.67-.52,3.45-1.07,5.57-.66,2.52-5.54,4.18-7.56,1.93-3.89-5.31-.23-11.06,7.74-13.14,11.79-3.08,25.07,7.46,31.56,21.78-.78-13.97-4.23-33-16.22-44.65-14.86-14.43-32.76,1.19-22.3,11.78,4.61,4.66,10.14.75,11.07-2.59.72-2.64-2.04-4.37-2.88-3.44-.97.97-2.98,1.11-4.25-.04-1.93-1.75-1.48-4.45,1.53-5.95,10.46-4.18,14.93,11.75,5.64,17.23-10.15,6.1-23.43-4.32-19.73-16.47,5.53-18.1,27.56-15.87,39.48-2.3,16.17,18.4,16.05,49.64,15.48,60.35h.01ZM363.85,722.91c-4.65-5.29-10.63-9.17-16.89-11.29-3.16-17.65-9.46-30.57-18.35-37.61-3-2.38-.91-3.69,2.8-2.82,19.65,4.61,34.92,24.62,43.31,48.21,3.75-24.23,6.04-48.52-3.97-70.7-3.1-6.67-6.81-13.07-11.23-18.94-2.57-3.41-8.04-6.58-5.01-10.17,2.61-2.45,5.02.8,6.61,2.79,15.66,18.72,21.07,30.03,26.6,54.53,7.08-17.15,12.44-26.95,28.64-39.1,1.06-.81,2.75-.16,3.35.88.73,1.25.17,2.57-.88,3.37-4.34,3.31-8.47,7.7-11.59,12.11-8.71,12.4-16.72,33.71-18.56,47-1.13,8.17-2.08,20.6-2.04,31.53,11.16-26.88,28.09-37.88,41.06-39.25,3.83-.4,5.42-.29,2.43,2.38-8.46,7.57-18.54,20.96-26.38,49.39-4.39,2.12-8.4,5.15-11.58,8.95-6.98,8.06-9.8,17.73-10.9,25.23-.18-15.54-3.02-40.11-17.41-56.5h0ZM358.91,668.81c2.42-1.98,5.98-1.6,7.94.84s1.59,6.01-.83,7.99c-2.42,1.97-5.98,1.6-7.94-.84s-1.59-6.01.83-7.99ZM425.52,718.71c-.69-2.25.55-4.63,2.78-5.33s4.6.56,5.3,2.8c.69,2.25-.55,4.63-2.78,5.33s-4.6-.56-5.3-2.8ZM428.01,736.15c0,3.14-2.53,5.68-5.64,5.68s-5.64-2.54-5.64-5.68,2.53-5.68,5.64-5.68,5.64,2.54,5.64,5.68ZM410.08,791.11c-2.42,1.98-5.98,1.6-7.94-.84s-1.59-6.01.83-7.99c2.42-1.97,5.98-1.6,7.94.84s1.59,6.01-.83,7.99ZM417.14,779.34c-9.29-5.48-4.82-21.41,5.64-17.23,3.01,1.5,3.46,4.2,1.53,5.95-1.26,1.15-3.28,1.01-4.25.04-.85-.93-3.61.79-2.88,3.44.93,3.34,5.38,6.45,11.07,2.59,14.01-11.93-8.11-27.25-22.24-12.9-10.67,9.76-12.53,22.63-12.83,27.97-.08,1.4-1.24,2.49-2.63,2.49-1.57,0-2.85-1.27-2.87-2.85-.07-5.88.82-19.66,9.85-30.05,10.83-13.02,33.98-14.91,40,4.36,3.56,11.2-10.23,22.29-20.38,16.19h-.01ZM440.61,705.8c-1.51,1.23-3.74,1-4.96-.52-1.23-1.52-.99-3.76.52-4.99,1.51-1.23,3.74-1,4.96.52,1.23,1.52.99,3.76-.52,4.99ZM451.1,691.13c-2.6,2.57-9.05,3.13-9.13-2.49-.04-2.65,2.27-4.27-1.33-5.62-9.99-3.74-31-2.74-41.13,14.89-1.26,2.19-1.92,2.97-3,2.53-1.5-.62-.77-3.24.19-4.9,9.89-17.07,30.11-22.57,45.53-19.3,10.06,2.13,12.96,10.86,8.87,14.89h0ZM447.05,651.66c-9.61-.82-21.15-10.14-21.15-10.14,0,0,12.93-7.24,22.54-6.42,9.61.82,12.64,4.81,12.26,9.38s-4.04,8-13.65,7.18h0ZM418.22,857.23l.1-1.24-.1,1.24.37-4.74-.37,4.74ZM343.1,857.23l-.26-4.69h0l.26,4.69ZM419.24,844.02h0l.46-5.98-.46,5.98ZM342.35,843.95l-.34-5.99.34,5.99h0ZM342.17,840.56l-.34-5.99h0l.34,5.99ZM419.52,840.53l.46-5.98-.46,5.98ZM420.64,826.08h0l.46-5.98-.46,5.98ZM341.35,825.98l-.34-5.99.34,5.99h0ZM341.16,822.59l-.34-5.99h6s-6,0-6,0l.34,5.99ZM420.91,822.58l.46-5.98-.46,5.98ZM412.82,816.6h0s6,0,6,0h-6ZM394.82,816.6h0s6,0,6,0h-6ZM376.82,816.6h0s6,0,6,0h-6ZM358.82,816.6h0s6,0,6,0h-6ZM424.82,505.32h-6,6s0,0,0,0ZM406.82,505.32h-6,6s0,0,0,0ZM388.82,505.32h-6,6s0,0,0,0ZM370.82,505.32h-6,6s0,0,0,0ZM352.82,505.32h-6,6s0,0,0,0ZM337.7,505.32l.53-5.98-.28,3.18h0l-.25,2.8ZM424.53,501.23l-.7-9.76.7,9.76ZM339.02,490.57l.82-9.16-.82,9.16ZM423.24,483.28l-.7-9.76.7,9.76ZM340.61,472.64l.28-3.18h0l.53-5.98-.28,3.18h0l-.53,5.98ZM421.96,465.33l-.43-5.98.16,2.21h0l.27,3.77Z"/>
  <path class="cls-8" d="M392.72,511.36h-19.72c-6.12-.8-5.04-5.83-6.36-9.95-1.57-7.6-4.51-21.75-9.07-33.68-9.67-25-14.75-18.7-33.54-19.44-13.71,1.32-22.86,42.76-25.22,53.15-1.43,4.05-.37,9.21-6.48,9.93h-18.55c-4.96,0-9.43,3.07-11.15,7.72-34.89,94.44-20.28,203.03,7,283.23,1.63,4.8,6.16,8.02,11.24,8.02h14.14c5.32,0,6.08,5.99,6.37,8.25.82,6.33.77,16.89,2.01,25.17.74,4.95,5.06,8.58,10.07,8.58h37.9c4.91,0,9.17-3.49,10.03-8.32,1.48-8.37,1.46-19.37,2.32-25.68.27-1.98,1.08-7.99,6.33-7.99h14.4c5.12,0,9.66-3.27,11.3-8.12,29.46-87.01,47.69-179.75,8.11-283.23-1.76-4.59-6.19-7.62-11.11-7.62l-.02-.02h0Z"/>
  <path class="cls-2" d="M406.04,509.49c-.58-1.72-2.33-3.23-3.65-3.23h-24.84c-1.17,0-.56-2.14.54-2.14h18.19c2.36,0,4.77-3.7,3.32-7.74-8.12-22.69-35.31-53.2-56.62-53.2h-18.41c-21.09,0-47.09,27.55-56.35,53.2-1.22,3.38,1.39,7.74,3.62,7.74h16.55c1.12,0,1.66,2.14.48,2.14h-23.39c-1.58,0-3.26,1.26-3.82,2.74-10.08,26.6-25.95,77.35-25.95,125.51,0,72.14,15.87,133.37,31.69,175.91.93,2.47,2.81,4.82,4.88,4.82h17.27c3.63,0,3.71,2.38,2.64,2.38h-15.79c-3.18,0-5.08,4.55-3.34,7.98,6.58,12.88,13.43,31.86,23.56,31.63h71.97c11.07.07,18.24-18.51,24.66-31.78,1.65-3.41-.29-7.83-3.41-7.83h-15.85c-1.26,0-1.04-2.38,2.57-2.38h17.33c2.46,0,4.69-2.75,5.68-5.79,17.75-50.22,33.4-102.14,33.4-174.94,0-54.52-17.9-98.16-26.94-125.02h.01ZM403.84,610.53c2.94,3.51,2.76,8.53-4.61,14.79-7.37,6.26-22.08,7.88-22.08,7.88,0,0,4.06-14.32,11.43-20.58s12.32-5.59,15.26-2.09h0ZM334.43,608.41c-6.14,5.96-19.02,8.26-19.02,8.26,0,0,2.74-12.87,8.88-18.83s10.54-5.66,13.34-2.74,2.94,7.36-3.2,13.32h0ZM334.05,631.22c-1.86.58-3.84-.46-4.42-2.33-.58-1.87.46-3.86,2.32-4.44,1.86-.58,3.84.46,4.42,2.33.58,1.87-.46,3.86-2.32,4.44ZM293.78,647.88c-6.14,5.96-10.54,5.66-13.34,2.74s-2.94-7.36,3.2-13.32,19.02-8.26,19.02-8.26c0,0-2.74,12.87-8.88,18.83h0ZM299.9,665.59c-1.82,1.48-4.48,1.2-5.95-.63s-1.19-4.51.62-5.99c1.82-1.48,4.48-1.2,5.95.63s1.19,4.51-.62,5.99ZM275.45,691.78c-2.34,0-4.23-1.91-4.23-4.26s1.9-4.26,4.23-4.26,4.23,1.91,4.23,4.26-1.9,4.26-4.23,4.26ZM281.81,698.39c3.12,0,5.64,2.54,5.64,5.68s-2.53,5.68-5.64,5.68-5.64-2.54-5.64-5.68,2.53-5.68,5.64-5.68ZM274.52,613.27c10.68.19,24.12,9.64,24.12,9.64,0,0-13.76,8.96-24.44,8.77s-14.33-4.38-14.24-9.46,3.88-9.14,14.56-8.95ZM273.47,585.79c3.64-3.53,9.17-3.7,16.58,4.03,7.42,7.73,10.28,23.97,10.28,23.97,0,0-16.03-3.46-23.45-11.19s-7.05-13.29-3.42-16.82h.01ZM276.25,661.25c-1.23-1.52-.99-3.76.52-4.99,1.51-1.23,3.74-1,4.96.52,1.23,1.52.99,3.76-.52,4.99-1.51,1.23-3.74,1-4.96-.52ZM300.73,587.81c.19-10.75,4.35-14.42,9.4-14.32s9.08,3.9,8.89,14.65c-.19,10.75-9.58,24.27-9.58,24.27,0,0-8.91-13.85-8.72-24.59h0ZM343.05,558.85c-2.42,1.97-5.98,1.6-7.94-.84s-1.59-6.01.83-7.99c2.42-1.98,5.98-1.6,7.94.84s1.59,6.01-.83,7.99ZM349.17,574.83c1.79.95,2.95,3.74,3.58,5.74.31,1,1.48,1.4,2.34.81,1.69-1.16,4.29-2.62,6.41-2.43,3.03.27,5.06,3.87,4.05,6.94s-5.1,5.43-5.8,5.84l-11.25,5.54-5.73-11.52c-.32-.41-2.33-4.85-1.32-7.92,1.01-3.07,4.73-4.58,7.71-3h.01ZM335.78,569.17c.58,1.87-.46,3.86-2.32,4.44-1.86.58-3.84-.46-4.42-2.33-.58-1.87.46-3.86,2.32-4.44,1.86-.58,3.84.46,4.42,2.33ZM340.67,638.67c1.82-1.48,4.48-1.2,5.95.63s1.19,4.51-.62,5.99c-1.82,1.48-4.48,1.2-5.95-.63s-1.19-4.51.62-5.99ZM347.04,625.2c-4.96-5.92-4.44-9.89-1.66-12.26,2.78-2.36,6.77-2.22,11.73,3.7,4.96,5.92,6.25,17.73,6.25,17.73,0,0-11.36-3.26-16.32-9.18h0ZM362.72,608.42c.81-9.67,4.78-12.72,9.32-12.33,4.54.39,7.95,4.07,7.13,13.73-.81,9.67-10.08,21.28-10.08,21.28,0,0-7.19-13.01-6.38-22.68h0ZM373.82,585.81c0-1.96,1.58-3.55,3.53-3.55s3.53,1.59,3.53,3.55-1.58,3.55-3.53,3.55-3.53-1.59-3.53-3.55ZM390,655.85c4.96,5.92,4.44,9.89,1.66,12.26-2.78,2.36-6.77,2.22-11.73-3.7-4.96-5.92-6.25-17.73-6.25-17.73,0,0,11.36,3.26,16.32,9.18h0ZM390.98,589.83c2.23-.7,4.61.56,5.3,2.8.69,2.25-.55,4.63-2.78,5.33s-4.61-.56-5.3-2.8c-.69-2.25.55-4.63,2.78-5.33ZM366.37,536.76c2.34,0,4.23,1.91,4.23,4.26s-1.9,4.26-4.23,4.26-4.23-1.91-4.23-4.26,1.9-4.26,4.23-4.26ZM336.53,531.91c13.38.19,25.38,14.33,23.28,31.77,1.87-3.45,4.87-7.57,7.97-10.54,10.78-10.33,31.27-9.21,33.67,7.79,1.4,9.95-10.2,18.29-18.44,12.41-7.54-5.3-2.67-18.56,5.96-14.3,2.46,1.48,2.67,3.81.9,5.17-1.15.9-2.86.64-3.62-.25-.66-.85-3.12.43-2.69,2.73.57,2.91,4.15,5.86,9.25,2.96,10.22-9.69-4.17-20.16-14.57-16.59-5.84,2-11.73,7.13-17.64,16.85-2.65,4.36-6.3,2.04-5.61-2.38,2.66-16.93-8.26-29.82-18.6-29.82-3.85,0-1.94,2.24-2.93,4.02-1.61,2.9-5.74,3.45-7.26-.39-2.19-5.55,2.6-9.54,10.32-9.44h.01ZM313.32,532.07c1.86-.58,3.84.46,4.42,2.33.58,1.87-.46,3.86-2.32,4.44-1.86.58-3.84-.46-4.42-2.33s.46-3.86,2.32-4.44ZM298.88,540.56c13.34,3.25,21.97,13.98,25.28,18.83.89,1.31.58,3.08-.71,4-1.14.81-2.71.59-3.57-.5-3.3-4.19-12.2-13.62-26.52-15.4-19.77-3.52-29.05,21.84-10.77,23.45,6.86-.15,8.71-5.27,7.55-8.54-.93-2.58-4.17-2.39-4.33-1.13-.24,1.35-1.8,2.64-3.49,2.43-2.58-.31-3.76-2.78-2.17-5.75,6.15-9.48,18.93.93,14.49,10.8-4.8,10.87-22.42,9.83-25.93-1.39-6.14-19.23,13.85-31.13,30.17-26.78v-.02h0ZM262.52,579.08c1.86-.58,3.84.46,4.42,2.33.58,1.87-.46,3.86-2.32,4.44s-3.84-.46-4.42-2.33c-.58-1.87.46-3.86,2.32-4.44ZM258.55,600.13c1.82-1.48,4.48-1.2,5.95.63s1.19,4.51-.62,5.99c-1.82,1.48-4.48,1.2-5.95-.63s-1.19-4.51.62-5.99ZM262.32,661.77c-1.51,1.23-3.74,1-4.96-.52s-.99-3.76.52-4.99c1.51-1.23,3.74-1,4.96.52,1.23,1.52.99,3.76-.52,4.99ZM268.82,674.54c-1.51,1.23-3.74,1-4.96-.52-1.23-1.52-.99-3.76.52-4.99s3.74-1,4.96.52.99,3.76-.52,4.99ZM295.16,776.01c-2.34,0-4.23-1.91-4.23-4.26s1.9-4.26,4.23-4.26,4.23,1.91,4.23,4.26-1.9,4.26-4.23,4.26ZM304.47,790.74c-1.82,1.48-4.48,1.2-5.95-.63s-1.19-4.51.62-5.99c1.82-1.48,4.48-1.2,5.95.63s1.19,4.51-.62,5.99ZM325.99,787.96c-.11,2.1-1.84,3.73-3.92,3.73s-3.8-1.71-3.85-3.8h-.03c-5.31-22.22-20.71-32.15-30.7-30-3.1.67-.52,3.45-1.07,5.57-.66,2.52-5.54,4.18-7.56,1.93-3.89-5.31-.23-11.06,7.74-13.14,11.79-3.08,25.07,7.46,31.56,21.78-.78-13.97-4.23-33-16.22-44.65-14.86-14.43-32.76,1.19-22.3,11.78,4.61,4.66,10.14.75,11.07-2.59.72-2.64-2.04-4.37-2.88-3.44-.97.97-2.98,1.11-4.25-.04-1.93-1.75-1.48-4.45,1.53-5.95,10.46-4.18,14.93,11.75,5.64,17.23-10.15,6.1-23.43-4.32-19.73-16.47,5.53-18.1,27.56-15.87,39.48-2.3,16.17,18.4,16.05,49.64,15.48,60.35h.01ZM315.8,722.91c-4.65-5.29-10.63-9.17-16.89-11.29-3.16-17.65-9.46-30.57-18.35-37.61-3-2.38-.91-3.69,2.8-2.82,19.65,4.61,34.92,24.62,43.31,48.21,3.75-24.23,6.04-48.52-3.97-70.7-3.1-6.67-6.81-13.07-11.23-18.94-2.57-3.41-8.04-6.58-5.01-10.17,2.61-2.45,5.02.8,6.61,2.79,15.66,18.72,21.07,30.03,26.6,54.53,7.08-17.15,12.44-26.95,28.64-39.1,1.06-.81,2.75-.16,3.35.88.73,1.25.17,2.57-.88,3.37-4.34,3.31-8.47,7.7-11.59,12.11-8.71,12.4-16.72,33.71-18.56,47-1.13,8.17-2.08,20.6-2.04,31.53,11.16-26.88,28.09-37.88,41.06-39.25,3.83-.4,5.42-.29,2.43,2.38-8.46,7.57-18.54,20.96-26.38,49.39-4.39,2.12-8.4,5.15-11.58,8.95-6.98,8.06-9.8,17.73-10.9,25.23-.18-15.54-3.02-40.11-17.41-56.5h0ZM310.85,668.81c2.42-1.98,5.98-1.6,7.94.84s1.59,6.01-.83,7.99-5.98,1.6-7.94-.84-1.59-6.01.83-7.99ZM377.47,718.71c-.69-2.25.55-4.63,2.78-5.33s4.6.56,5.3,2.8c.69,2.25-.55,4.63-2.78,5.33s-4.6-.56-5.3-2.8ZM379.96,736.15c0,3.14-2.53,5.68-5.64,5.68s-5.64-2.54-5.64-5.68,2.53-5.68,5.64-5.68,5.64,2.54,5.64,5.68ZM362.03,791.11c-2.42,1.98-5.98,1.6-7.94-.84s-1.59-6.01.83-7.99c2.42-1.97,5.98-1.6,7.94.84s1.59,6.01-.83,7.99ZM369.09,779.34c-9.29-5.48-4.82-21.41,5.64-17.23,3.01,1.5,3.46,4.2,1.53,5.95-1.26,1.15-3.28,1.01-4.25.04-.85-.93-3.61.79-2.88,3.44.93,3.34,5.38,6.45,11.07,2.59,14.01-11.93-8.11-27.25-22.24-12.9-10.67,9.76-12.53,22.63-12.83,27.97-.08,1.4-1.24,2.49-2.63,2.49-1.57,0-2.85-1.27-2.87-2.85-.07-5.88.82-19.66,9.85-30.05,10.83-13.02,33.98-14.91,40,4.36,3.56,11.2-10.23,22.29-20.38,16.19h-.01ZM392.56,705.8c-1.51,1.23-3.74,1-4.96-.52-1.23-1.52-.99-3.76.52-4.99,1.51-1.23,3.74-1,4.96.52,1.23,1.52.99,3.76-.52,4.99ZM403.04,691.13c-2.6,2.57-9.05,3.13-9.13-2.49-.04-2.65,2.27-4.27-1.33-5.62-9.99-3.74-31-2.74-41.13,14.89-1.26,2.19-1.92,2.97-3,2.53-1.5-.62-.77-3.24.19-4.9,9.89-17.07,30.11-22.57,45.53-19.3,10.06,2.13,12.96,10.86,8.87,14.89h0ZM399,651.66c-9.61-.82-21.15-10.14-21.15-10.14,0,0,12.93-7.24,22.54-6.42,9.61.82,12.64,4.81,12.26,9.38s-4.04,8-13.65,7.18h0ZM370.16,857.23l.1-1.24-.1,1.24.37-4.74-.37,4.74ZM295.05,857.23l-.26-4.69h0l.26,4.69ZM371.18,844.02h0l.46-5.98-.46,5.98ZM294.3,843.95l-.34-5.99.34,5.99h0ZM294.12,840.56l-.34-5.99h0l.34,5.99ZM371.46,840.53l.46-5.98-.46,5.98ZM372.58,826.08h0l.46-5.98-.46,5.98ZM293.3,825.98l-.34-5.99.34,5.99h0ZM293.11,822.59l-.34-5.99h6s-6,0-6,0l.34,5.99ZM372.85,822.58l.46-5.98-.46,5.98ZM364.77,816.6h0s6,0,6,0h-6ZM346.77,816.6h0s6,0,6,0h-6ZM328.77,816.6h0s6,0,6,0h-6ZM310.77,816.6h0s6,0,6,0h-6ZM376.76,505.32h-6,6s0,0,0,0ZM358.76,505.32h-6,6s0,0,0,0ZM340.76,505.32h-6,6s0,0,0,0ZM322.76,505.32h-6,6s0,0,0,0ZM304.76,505.32h-6,6s0,0,0,0ZM289.65,505.32l.53-5.98-.28,3.18h0l-.25,2.8ZM376.48,501.23l-.7-9.76.7,9.76ZM290.97,490.57l.28-3.18h0l.53-5.98-.28,3.18h0l-.53,5.98ZM375.19,483.28l-.7-9.76.7,9.76ZM292.56,472.64l.28-3.18h0l.53-5.98-.28,3.18h0l-.53,5.98ZM373.91,465.33l-.43-5.98.16,2.21h0l.27,3.77Z"/>
  <path class="cls-8" d="M344.67,511.36h-19.72c-6.12-.8-5.04-5.83-6.36-9.95-1.57-7.6-4.51-21.75-9.07-33.68-9.67-25-14.75-18.7-33.54-19.44-13.71,1.32-22.86,42.76-25.22,53.15-1.43,4.05-.37,9.21-6.48,9.93h-18.55c-4.96,0-9.43,3.07-11.15,7.72-34.89,94.44-20.28,203.03,7,283.23,1.63,4.8,6.16,8.02,11.24,8.02h14.14c5.32,0,6.08,5.99,6.37,8.25.82,6.33.77,16.89,2.01,25.17.74,4.95,5.06,8.58,10.07,8.58h37.9c4.91,0,9.17-3.49,10.03-8.32,1.48-8.37,1.46-19.37,2.32-25.68.27-1.98,1.08-7.99,6.33-7.99h14.4c5.12,0,9.66-3.27,11.3-8.12,29.46-87.01,47.69-179.75,8.11-283.23-1.76-4.59-6.19-7.62-11.11-7.62l-.02-.02h0Z"/>
  <path class="cls-2" d="M357.99,509.49c-.58-1.72-2.33-3.23-3.65-3.23h-24.84c-1.17,0-.56-2.14.54-2.14h18.19c2.36,0,4.77-3.7,3.32-7.74-8.12-22.69-35.31-53.2-56.62-53.2h-18.41c-21.09,0-47.09,27.55-56.35,53.2-1.22,3.38,1.39,7.74,3.62,7.74h16.55c1.12,0,1.66,2.14.48,2.14h-23.39c-1.58,0-3.26,1.26-3.82,2.74-10.08,26.6-25.95,77.35-25.95,125.51,0,72.14,15.87,133.37,31.69,175.91.93,2.47,2.81,4.82,4.88,4.82h17.27c3.63,0,3.71,2.38,2.64,2.38h-15.79c-3.18,0-5.08,4.55-3.34,7.98,6.58,12.88,13.43,31.86,23.56,31.63h71.97c11.07.07,18.24-18.51,24.66-31.78,1.65-3.41-.29-7.83-3.41-7.83h-15.85c-1.26,0-1.04-2.38,2.57-2.38h17.33c2.46,0,4.69-2.75,5.68-5.79,17.75-50.22,33.4-102.14,33.4-174.94,0-54.52-17.9-98.16-26.94-125.02h0ZM355.79,610.53c2.94,3.51,2.76,8.53-4.61,14.79-7.37,6.26-22.08,7.88-22.08,7.88,0,0,4.06-14.32,11.43-20.58s12.32-5.59,15.26-2.09h0ZM286.37,608.41c-6.14,5.96-19.02,8.26-19.02,8.26,0,0,2.74-12.87,8.88-18.83s10.54-5.66,13.34-2.74,2.94,7.36-3.2,13.32h0ZM286,631.22c-1.86.58-3.84-.46-4.42-2.33-.58-1.87.46-3.86,2.32-4.44,1.86-.58,3.84.46,4.42,2.33.58,1.87-.46,3.86-2.32,4.44ZM245.72,647.88c-6.14,5.96-10.54,5.66-13.34,2.74s-2.94-7.36,3.2-13.32,19.02-8.26,19.02-8.26c0,0-2.74,12.87-8.88,18.83h0ZM251.84,665.59c-1.82,1.48-4.48,1.2-5.95-.63s-1.19-4.51.62-5.99c1.82-1.48,4.48-1.2,5.95.63s1.19,4.51-.62,5.99ZM227.4,691.78c-2.34,0-4.23-1.91-4.23-4.26s1.9-4.26,4.23-4.26,4.23,1.91,4.23,4.26-1.9,4.26-4.23,4.26ZM233.76,698.39c3.12,0,5.64,2.54,5.64,5.68s-2.53,5.68-5.64,5.68-5.64-2.54-5.64-5.68,2.53-5.68,5.64-5.68ZM226.46,613.27c10.68.19,24.12,9.64,24.12,9.64,0,0-13.76,8.96-24.44,8.77s-14.33-4.38-14.24-9.46,3.88-9.14,14.56-8.95h0ZM225.42,585.79c3.64-3.53,9.17-3.7,16.58,4.03,7.42,7.73,10.28,23.97,10.28,23.97,0,0-16.03-3.46-23.45-11.19s-7.05-13.29-3.42-16.82h0ZM228.2,661.25c-1.23-1.52-.99-3.76.52-4.99,1.51-1.23,3.74-1,4.96.52,1.23,1.52.99,3.76-.52,4.99s-3.74,1-4.96-.52ZM252.68,587.81c.19-10.75,4.35-14.42,9.4-14.32s9.08,3.9,8.89,14.65c-.19,10.75-9.58,24.27-9.58,24.27,0,0-8.91-13.85-8.72-24.59h0ZM295,558.85c-2.42,1.97-5.98,1.6-7.94-.84s-1.59-6.01.83-7.99c2.42-1.98,5.98-1.6,7.94.84s1.59,6.01-.83,7.99ZM301.12,574.83c1.79.95,2.95,3.74,3.58,5.74.31,1,1.48,1.4,2.34.81,1.69-1.16,4.29-2.62,6.41-2.43,3.03.27,5.06,3.87,4.05,6.94s-5.1,5.43-5.8,5.84l-11.25,5.54-5.73-11.52c-.32-.41-2.33-4.85-1.32-7.92,1.01-3.07,4.73-4.58,7.71-3h.01ZM287.73,569.17c.58,1.87-.46,3.86-2.32,4.44-1.86.58-3.84-.46-4.42-2.33-.58-1.87.46-3.86,2.32-4.44s3.84.46,4.42,2.33ZM292.61,638.67c1.82-1.48,4.48-1.2,5.95.63s1.19,4.51-.62,5.99c-1.82,1.48-4.48,1.2-5.95-.63s-1.19-4.51.62-5.99ZM298.98,625.2c-4.96-5.92-4.44-9.89-1.66-12.26,2.78-2.36,6.77-2.22,11.73,3.7,4.96,5.92,6.25,17.73,6.25,17.73,0,0-11.36-3.26-16.32-9.18h0ZM314.67,608.42c.81-9.67,4.78-12.72,9.32-12.33,4.54.39,7.95,4.07,7.13,13.73-.81,9.67-10.08,21.28-10.08,21.28,0,0-7.19-13.01-6.38-22.68h0ZM325.77,585.81c0-1.96,1.58-3.55,3.53-3.55s3.53,1.59,3.53,3.55-1.58,3.55-3.53,3.55-3.53-1.59-3.53-3.55ZM341.95,655.85c4.96,5.92,4.44,9.89,1.66,12.26-2.78,2.36-6.77,2.22-11.73-3.7-4.96-5.92-6.25-17.73-6.25-17.73,0,0,11.36,3.26,16.32,9.18h0ZM342.93,589.83c2.23-.7,4.61.56,5.3,2.8.69,2.25-.55,4.63-2.78,5.33s-4.61-.56-5.3-2.8c-.69-2.25.55-4.63,2.78-5.33ZM318.32,536.76c2.34,0,4.23,1.91,4.23,4.26s-1.9,4.26-4.23,4.26-4.23-1.91-4.23-4.26,1.9-4.26,4.23-4.26ZM288.47,531.91c13.38.19,25.38,14.33,23.28,31.77,1.87-3.45,4.87-7.57,7.97-10.54,10.78-10.33,31.27-9.21,33.67,7.79,1.4,9.95-10.2,18.29-18.44,12.41-7.54-5.3-2.67-18.56,5.96-14.3,2.46,1.48,2.67,3.81.9,5.17-1.15.9-2.86.64-3.62-.25-.66-.85-3.12.43-2.69,2.73.57,2.91,4.15,5.86,9.25,2.96,10.22-9.69-4.17-20.16-14.57-16.59-5.84,2-11.73,7.13-17.64,16.85-2.65,4.36-6.3,2.04-5.61-2.38,2.66-16.93-8.26-29.82-18.6-29.82-3.85,0-1.94,2.24-2.93,4.02-1.61,2.9-5.74,3.45-7.26-.39-2.19-5.55,2.6-9.54,10.32-9.44h.01ZM265.27,532.07c1.86-.58,3.84.46,4.42,2.33s-.46,3.86-2.32,4.44c-1.86.58-3.84-.46-4.42-2.33-.58-1.87.46-3.86,2.32-4.44ZM250.83,540.56c13.34,3.25,21.97,13.98,25.28,18.83.89,1.31.58,3.08-.71,4-1.14.81-2.71.59-3.57-.5-3.3-4.19-12.2-13.62-26.52-15.4-19.77-3.52-29.05,21.84-10.77,23.45,6.86-.15,8.71-5.27,7.55-8.54-.93-2.58-4.17-2.39-4.33-1.13-.24,1.35-1.8,2.64-3.49,2.43-2.58-.31-3.76-2.78-2.17-5.75,6.15-9.48,18.93.93,14.49,10.8-4.8,10.87-22.42,9.83-25.93-1.39-6.14-19.23,13.85-31.13,30.17-26.78v-.02h0ZM214.47,579.08c1.86-.58,3.84.46,4.42,2.33s-.46,3.86-2.32,4.44-3.84-.46-4.42-2.33.46-3.86,2.32-4.44ZM210.49,600.13c1.82-1.48,4.48-1.2,5.95.63s1.19,4.51-.62,5.99c-1.82,1.48-4.48,1.2-5.95-.63s-1.19-4.51.62-5.99ZM214.27,661.77c-1.51,1.23-3.74,1-4.96-.52s-.99-3.76.52-4.99,3.74-1,4.96.52c1.23,1.52.99,3.76-.52,4.99ZM220.76,674.54c-1.51,1.23-3.74,1-4.96-.52-1.23-1.52-.99-3.76.52-4.99s3.74-1,4.96.52.99,3.76-.52,4.99ZM247.11,776.01c-2.34,0-4.23-1.91-4.23-4.26s1.9-4.26,4.23-4.26,4.23,1.91,4.23,4.26-1.9,4.26-4.23,4.26ZM256.42,790.74c-1.82,1.48-4.48,1.2-5.95-.63s-1.19-4.51.62-5.99c1.82-1.48,4.48-1.2,5.95.63s1.19,4.51-.62,5.99ZM277.94,787.96c-.11,2.1-1.84,3.73-3.92,3.73s-3.8-1.71-3.85-3.8h-.03c-5.31-22.22-20.71-32.15-30.7-30-3.1.67-.52,3.45-1.07,5.57-.66,2.52-5.54,4.18-7.56,1.93-3.89-5.31-.23-11.06,7.74-13.14,11.79-3.08,25.07,7.46,31.56,21.78-.78-13.97-4.23-33-16.22-44.65-14.86-14.43-32.76,1.19-22.3,11.78,4.61,4.66,10.14.75,11.07-2.59.72-2.64-2.04-4.37-2.88-3.44-.97.97-2.98,1.11-4.25-.04-1.93-1.75-1.48-4.45,1.53-5.95,10.46-4.18,14.93,11.75,5.64,17.23-10.15,6.1-23.43-4.32-19.73-16.47,5.53-18.1,27.56-15.87,39.48-2.3,16.17,18.4,16.05,49.64,15.48,60.35h.01ZM267.75,722.91c-4.65-5.29-10.63-9.17-16.89-11.29-3.16-17.65-9.46-30.57-18.35-37.61-3-2.38-.91-3.69,2.8-2.82,19.65,4.61,34.92,24.62,43.31,48.21,3.75-24.23,6.04-48.52-3.97-70.7-3.1-6.67-6.81-13.07-11.23-18.94-2.57-3.41-8.04-6.58-5.01-10.17,2.61-2.45,5.02.8,6.61,2.79,15.66,18.72,21.07,30.03,26.6,54.53,7.08-17.15,12.44-26.95,28.64-39.1,1.06-.81,2.75-.16,3.35.88.73,1.25.17,2.57-.88,3.37-4.34,3.31-8.47,7.7-11.59,12.11-8.71,12.4-16.72,33.71-18.56,47-1.13,8.17-2.08,20.6-2.04,31.53,11.16-26.88,28.09-37.88,41.06-39.25,3.83-.4,5.42-.29,2.43,2.38-8.46,7.57-18.54,20.96-26.38,49.39-4.39,2.12-8.4,5.15-11.58,8.95-6.98,8.06-9.8,17.73-10.9,25.23-.18-15.54-3.02-40.11-17.41-56.5h0ZM262.8,668.81c2.42-1.98,5.98-1.6,7.94.84s1.59,6.01-.83,7.99c-2.42,1.97-5.98,1.6-7.94-.84s-1.59-6.01.83-7.99ZM329.42,718.71c-.69-2.25.55-4.63,2.78-5.33s4.6.56,5.3,2.8c.69,2.25-.55,4.63-2.78,5.33s-4.6-.56-5.3-2.8ZM331.91,736.15c0,3.14-2.53,5.68-5.64,5.68s-5.64-2.54-5.64-5.68,2.53-5.68,5.64-5.68,5.64,2.54,5.64,5.68ZM313.98,791.11c-2.42,1.98-5.98,1.6-7.94-.84s-1.59-6.01.83-7.99c2.42-1.97,5.98-1.6,7.94.84s1.59,6.01-.83,7.99ZM321.03,779.34c-9.29-5.48-4.82-21.41,5.64-17.23,3.01,1.5,3.46,4.2,1.53,5.95-1.26,1.15-3.28,1.01-4.25.04-.85-.93-3.61.79-2.88,3.44.93,3.34,5.38,6.45,11.07,2.59,14.01-11.93-8.11-27.25-22.24-12.9-10.67,9.76-12.53,22.63-12.83,27.97-.08,1.4-1.24,2.49-2.63,2.49-1.57,0-2.85-1.27-2.87-2.85-.07-5.88.82-19.66,9.85-30.05,10.83-13.02,33.98-14.91,40,4.36,3.56,11.2-10.23,22.29-20.38,16.19h-.01ZM344.51,705.8c-1.51,1.23-3.74,1-4.96-.52-1.23-1.52-.99-3.76.52-4.99,1.51-1.23,3.74-1,4.96.52,1.23,1.52.99,3.76-.52,4.99ZM354.99,691.13c-2.6,2.57-9.05,3.13-9.13-2.49-.04-2.65,2.27-4.27-1.33-5.62-9.99-3.74-31-2.74-41.13,14.89-1.26,2.19-1.92,2.97-3,2.53-1.5-.62-.77-3.24.19-4.9,9.89-17.07,30.11-22.57,45.53-19.3,10.06,2.13,12.96,10.86,8.87,14.89h0ZM350.94,651.66c-9.61-.82-21.15-10.14-21.15-10.14,0,0,12.93-7.24,22.54-6.42,9.61.82,12.64,4.81,12.26,9.38s-4.04,8-13.65,7.18h0ZM322.11,857.23l.1-1.24-.1,1.24.37-4.74-.37,4.74ZM247,857.23l-.26-4.69h0l.26,4.69ZM323.13,844.02h0l.46-5.98-.46,5.98ZM246.25,843.95l-.34-5.99.34,5.99h0ZM246.07,840.56l-.34-5.99h0l.34,5.99ZM323.41,840.53l.46-5.98-.46,5.98ZM324.53,826.08h0l.46-5.98-.46,5.98ZM245.25,825.98l-.34-5.99.34,5.99h0ZM245.06,822.59l-.34-5.99h6s-6,0-6,0l.34,5.99ZM324.8,822.58l.46-5.98-.46,5.98ZM316.72,816.6h0s6,0,6,0h-6ZM298.72,816.6h0s6,0,6,0h-6ZM280.72,816.6h0s6,0,6,0h-6ZM262.72,816.6h0s6,0,6,0h-6ZM328.71,505.32h-6,6s0,0,0,0ZM310.71,505.32h-6,6s0,0,0,0ZM292.71,505.32h-6,6s0,0,0,0ZM274.71,505.32h-6,6s0,0,0,0ZM256.71,505.32h-6,6s0,0,0,0ZM241.6,505.32l.53-5.98-.28,3.18h0l-.25,2.8ZM328.42,501.23l-.7-9.76.7,9.76ZM242.92,490.57l.28-3.18h0l.53-5.98-.28,3.18h0l-.53,5.98ZM327.13,483.28l-.7-9.76.7,9.76ZM244.51,472.64l.28-3.18h0l.53-5.98-.28,3.18h0l-.53,5.98ZM325.85,465.33l-.43-5.98.16,2.21h0l.27,3.77Z"/>
  <path class="cls-8" d="M158.78,511.36h-19.72c-6.12-.8-5.04-5.83-6.36-9.95-1.57-7.6-4.51-21.75-9.07-33.68-9.67-25-14.75-18.7-33.54-19.44-13.71,1.32-22.86,42.76-25.22,53.15-1.43,4.05-.37,9.21-6.48,9.93h-18.55c-4.96,0-9.43,3.07-11.15,7.72-34.89,94.44-20.28,203.03,7,283.23,1.63,4.8,6.16,8.02,11.24,8.02h14.14c5.32,0,6.08,5.99,6.37,8.25.82,6.33.77,16.89,2.01,25.17.74,4.95,5.06,8.58,10.07,8.58h37.9c4.91,0,9.17-3.49,10.03-8.32,1.48-8.37,1.46-19.37,2.32-25.68.27-1.98,1.08-7.99,6.33-7.99h14.4c5.12,0,9.66-3.27,11.3-8.12,29.46-87.01,47.69-179.75,8.11-283.23-1.76-4.59-6.19-7.62-11.11-7.62l-.02-.02h0Z"/>
  <path class="cls-2" d="M172.11,509.49c-.58-1.72-2.33-3.23-3.65-3.23h-24.84c-1.17,0-.56-2.14.54-2.14h18.19c2.36,0,4.77-3.7,3.32-7.74-8.12-22.69-35.31-53.2-56.62-53.2h-18.41c-21.09,0-47.09,27.55-56.35,53.2-1.22,3.38,1.39,7.74,3.62,7.74h16.55c1.12,0,1.66,2.14.48,2.14h-23.39c-1.58,0-3.26,1.26-3.82,2.74-10.08,26.6-25.95,77.35-25.95,125.51,0,72.14,15.87,133.37,31.69,175.91.93,2.47,2.81,4.82,4.88,4.82h17.27c3.63,0,3.71,2.38,2.64,2.38h-15.79c-3.18,0-5.08,4.55-3.34,7.98,6.58,12.88,13.43,31.86,23.56,31.63h71.97c11.07.07,18.24-18.51,24.66-31.78,1.65-3.41-.29-7.83-3.41-7.83h-15.85c-1.26,0-1.04-2.38,2.57-2.38h17.33c2.46,0,4.69-2.75,5.68-5.79,17.75-50.22,33.4-102.14,33.4-174.94,0-54.52-17.9-98.16-26.94-125.02h0ZM169.91,610.53c2.94,3.51,2.76,8.53-4.61,14.79-7.37,6.26-22.08,7.88-22.08,7.88,0,0,4.06-14.32,11.43-20.58s12.32-5.59,15.26-2.09h0ZM100.5,608.41c-6.14,5.96-19.02,8.26-19.02,8.26,0,0,2.74-12.87,8.88-18.83s10.54-5.66,13.34-2.74,2.94,7.36-3.2,13.32h0ZM100.12,631.22c-1.86.58-3.84-.46-4.42-2.33s.46-3.86,2.32-4.44,3.84.46,4.42,2.33-.46,3.86-2.32,4.44ZM59.85,647.88c-6.14,5.96-10.54,5.66-13.34,2.74s-2.94-7.36,3.2-13.32,19.02-8.26,19.02-8.26c0,0-2.74,12.87-8.88,18.83h0ZM65.97,665.59c-1.82,1.48-4.48,1.2-5.95-.63s-1.19-4.51.62-5.99c1.82-1.48,4.48-1.2,5.95.63s1.19,4.51-.62,5.99ZM41.52,691.78c-2.34,0-4.23-1.91-4.23-4.26s1.9-4.26,4.23-4.26,4.23,1.91,4.23,4.26-1.9,4.26-4.23,4.26ZM47.88,698.39c3.12,0,5.64,2.54,5.64,5.68s-2.53,5.68-5.64,5.68-5.64-2.54-5.64-5.68,2.53-5.68,5.64-5.68ZM40.59,613.27c10.68.19,24.12,9.64,24.12,9.64,0,0-13.76,8.96-24.44,8.77s-14.33-4.38-14.24-9.46,3.88-9.14,14.56-8.95ZM39.55,585.79c3.64-3.53,9.17-3.7,16.58,4.03,7.42,7.73,10.28,23.97,10.28,23.97,0,0-16.03-3.46-23.45-11.19s-7.05-13.29-3.42-16.82h.01ZM42.32,661.25c-1.23-1.52-.99-3.76.52-4.99,1.51-1.23,3.74-1,4.96.52,1.23,1.52.99,3.76-.52,4.99s-3.74,1-4.96-.52ZM66.8,587.81c.19-10.75,4.35-14.42,9.4-14.32s9.08,3.9,8.89,14.65-9.58,24.27-9.58,24.27c0,0-8.91-13.85-8.72-24.59h.01ZM109.12,558.85c-2.42,1.97-5.98,1.6-7.94-.84s-1.59-6.01.83-7.99,5.98-1.6,7.94.84,1.59,6.01-.83,7.99ZM115.24,574.83c1.79.95,2.95,3.74,3.58,5.74.31,1,1.48,1.4,2.34.81,1.69-1.16,4.29-2.62,6.41-2.43,3.03.27,5.06,3.87,4.05,6.94s-5.1,5.43-5.8,5.84l-11.25,5.54-5.73-11.52c-.32-.41-2.33-4.85-1.32-7.92s4.73-4.58,7.71-3h.01ZM101.85,569.17c.58,1.87-.46,3.86-2.32,4.44s-3.84-.46-4.42-2.33.46-3.86,2.32-4.44,3.84.46,4.42,2.33ZM106.74,638.67c1.82-1.48,4.48-1.2,5.95.63,1.47,1.83,1.19,4.51-.62,5.99-1.82,1.48-4.48,1.2-5.95-.63-1.47-1.83-1.19-4.51.62-5.99ZM113.11,625.2c-4.96-5.92-4.44-9.89-1.66-12.26,2.78-2.36,6.77-2.22,11.73,3.7,4.96,5.92,6.25,17.73,6.25,17.73,0,0-11.36-3.26-16.32-9.18h0ZM128.79,608.42c.81-9.67,4.78-12.72,9.32-12.33,4.54.39,7.95,4.07,7.13,13.73-.81,9.67-10.08,21.28-10.08,21.28,0,0-7.19-13.01-6.38-22.68h.01ZM139.89,585.81c0-1.96,1.58-3.55,3.53-3.55s3.53,1.59,3.53,3.55-1.58,3.55-3.53,3.55-3.53-1.59-3.53-3.55ZM156.07,655.85c4.96,5.92,4.44,9.89,1.66,12.26-2.78,2.36-6.77,2.22-11.73-3.7-4.96-5.92-6.25-17.73-6.25-17.73,0,0,11.36,3.26,16.32,9.18h0ZM157.05,589.83c2.23-.7,4.61.56,5.3,2.8.69,2.25-.55,4.63-2.78,5.33s-4.61-.56-5.3-2.8c-.69-2.25.55-4.63,2.78-5.33ZM132.44,536.76c2.34,0,4.23,1.91,4.23,4.26s-1.9,4.26-4.23,4.26-4.23-1.91-4.23-4.26,1.9-4.26,4.23-4.26ZM102.6,531.91c13.38.19,25.38,14.33,23.28,31.77,1.87-3.45,4.87-7.57,7.97-10.54,10.78-10.33,31.27-9.21,33.67,7.79,1.4,9.95-10.2,18.29-18.44,12.41-7.54-5.3-2.67-18.56,5.96-14.3,2.46,1.48,2.67,3.81.9,5.17-1.15.9-2.86.64-3.62-.25-.66-.85-3.12.43-2.69,2.73.57,2.91,4.15,5.86,9.25,2.96,10.22-9.69-4.17-20.16-14.57-16.59-5.84,2-11.73,7.13-17.64,16.85-2.65,4.36-6.3,2.04-5.61-2.38,2.66-16.93-8.26-29.82-18.6-29.82-3.85,0-1.94,2.24-2.93,4.02-1.61,2.9-5.74,3.45-7.26-.39-2.19-5.55,2.6-9.54,10.32-9.44h.01ZM79.4,532.07c1.86-.58,3.84.46,4.42,2.33s-.46,3.86-2.32,4.44-3.84-.46-4.42-2.33.46-3.86,2.32-4.44ZM64.95,540.56c13.34,3.25,21.97,13.98,25.28,18.83.89,1.31.58,3.08-.71,4-1.14.81-2.71.59-3.57-.5-3.3-4.19-12.2-13.62-26.52-15.4-19.77-3.52-29.05,21.84-10.77,23.45,6.86-.15,8.71-5.27,7.55-8.54-.93-2.58-4.17-2.39-4.33-1.13-.24,1.35-1.8,2.64-3.49,2.43-2.58-.31-3.76-2.78-2.17-5.75,6.15-9.48,18.93.93,14.49,10.8-4.8,10.87-22.42,9.83-25.93-1.39-6.14-19.23,13.85-31.13,30.17-26.78v-.02h0ZM28.59,579.08c1.86-.58,3.84.46,4.42,2.33s-.46,3.86-2.32,4.44-3.84-.46-4.42-2.33.46-3.86,2.32-4.44ZM24.62,600.13c1.82-1.48,4.48-1.2,5.95.63,1.47,1.83,1.19,4.51-.62,5.99-1.82,1.48-4.48,1.2-5.95-.63s-1.19-4.51.62-5.99ZM28.39,661.77c-1.51,1.23-3.74,1-4.96-.52-1.23-1.52-.99-3.76.52-4.99s3.74-1,4.96.52c1.23,1.52.99,3.76-.52,4.99ZM34.89,674.54c-1.51,1.23-3.74,1-4.96-.52-1.23-1.52-.99-3.76.52-4.99s3.74-1,4.96.52.99,3.76-.52,4.99ZM61.24,776.01c-2.34,0-4.23-1.91-4.23-4.26s1.9-4.26,4.23-4.26,4.23,1.91,4.23,4.26-1.9,4.26-4.23,4.26ZM70.54,790.74c-1.82,1.48-4.48,1.2-5.95-.63-1.47-1.83-1.19-4.51.62-5.99,1.82-1.48,4.48-1.2,5.95.63,1.47,1.83,1.19,4.51-.62,5.99ZM92.06,787.96c-.11,2.1-1.84,3.73-3.92,3.73s-3.8-1.71-3.85-3.8h-.03c-5.31-22.22-20.71-32.15-30.7-30-3.1.67-.52,3.45-1.07,5.57-.66,2.52-5.54,4.18-7.56,1.93-3.89-5.31-.23-11.06,7.74-13.14,11.79-3.08,25.07,7.46,31.56,21.78-.78-13.97-4.23-33-16.22-44.65-14.86-14.43-32.76,1.19-22.3,11.78,4.61,4.66,10.14.75,11.07-2.59.72-2.64-2.04-4.37-2.88-3.44-.97.97-2.98,1.11-4.25-.04-1.93-1.75-1.48-4.45,1.53-5.95,10.46-4.18,14.93,11.75,5.64,17.23-10.15,6.1-23.43-4.32-19.73-16.47,5.53-18.1,27.56-15.87,39.48-2.3,16.17,18.4,16.05,49.64,15.48,60.35h.01ZM81.87,722.91c-4.65-5.29-10.63-9.17-16.89-11.29-3.16-17.65-9.46-30.57-18.35-37.61-3-2.38-.91-3.69,2.8-2.82,19.65,4.61,34.92,24.62,43.31,48.21,3.75-24.23,6.04-48.52-3.97-70.7-3.1-6.67-6.81-13.07-11.23-18.94-2.57-3.41-8.04-6.58-5.01-10.17,2.61-2.45,5.02.8,6.61,2.79,15.66,18.72,21.07,30.03,26.6,54.53,7.08-17.15,12.44-26.95,28.64-39.1,1.06-.81,2.75-.16,3.35.88.73,1.25.17,2.57-.88,3.37-4.34,3.31-8.47,7.7-11.59,12.11-8.71,12.4-16.72,33.71-18.56,47-1.13,8.17-2.08,20.6-2.04,31.53,11.16-26.88,28.09-37.88,41.06-39.25,3.83-.4,5.42-.29,2.43,2.38-8.46,7.57-18.54,20.96-26.38,49.39-4.39,2.12-8.4,5.15-11.58,8.95-6.98,8.06-9.8,17.73-10.9,25.23-.18-15.54-3.02-40.11-17.41-56.5h-.01ZM76.92,668.81c2.42-1.98,5.98-1.6,7.94.84s1.59,6.01-.83,7.99c-2.42,1.97-5.98,1.6-7.94-.84s-1.59-6.01.83-7.99ZM143.54,718.71c-.69-2.25.55-4.63,2.78-5.33s4.6.56,5.3,2.8c.69,2.25-.55,4.63-2.78,5.33s-4.6-.56-5.3-2.8ZM146.03,736.15c0,3.14-2.53,5.68-5.64,5.68s-5.64-2.54-5.64-5.68,2.53-5.68,5.64-5.68,5.64,2.54,5.64,5.68ZM128.1,791.11c-2.42,1.98-5.98,1.6-7.94-.84s-1.59-6.01.83-7.99c2.42-1.97,5.98-1.6,7.94.84,1.96,2.44,1.59,6.01-.83,7.99ZM135.16,779.34c-9.29-5.48-4.82-21.41,5.64-17.23,3.01,1.5,3.46,4.2,1.53,5.95-1.26,1.15-3.28,1.01-4.25.04-.85-.93-3.61.79-2.88,3.44.93,3.34,5.38,6.45,11.07,2.59,14.01-11.93-8.11-27.25-22.24-12.9-10.67,9.76-12.53,22.63-12.83,27.97-.08,1.4-1.24,2.49-2.63,2.49-1.57,0-2.85-1.27-2.87-2.85-.07-5.88.82-19.66,9.85-30.05,10.83-13.02,33.98-14.91,40,4.36,3.56,11.2-10.23,22.29-20.38,16.19h0ZM158.63,705.8c-1.51,1.23-3.74,1-4.96-.52-1.23-1.52-.99-3.76.52-4.99,1.51-1.23,3.74-1,4.96.52,1.23,1.52.99,3.76-.52,4.99ZM169.11,691.13c-2.6,2.57-9.05,3.13-9.13-2.49-.04-2.65,2.27-4.27-1.33-5.62-9.99-3.74-31-2.74-41.13,14.89-1.26,2.19-1.92,2.97-3,2.53-1.5-.62-.77-3.24.19-4.9,9.89-17.07,30.11-22.57,45.53-19.3,10.06,2.13,12.96,10.86,8.87,14.89h0ZM165.07,651.66c-9.61-.82-21.15-10.14-21.15-10.14,0,0,12.93-7.24,22.54-6.42,9.61.82,12.64,4.81,12.26,9.38s-4.04,8-13.65,7.18h0ZM136.23,857.23l.1-1.24-.1,1.24.37-4.74-.37,4.74ZM61.12,857.23l-.26-4.69h0l.26,4.69ZM137.25,844.02h0l.46-5.98-.46,5.98ZM60.37,843.95l-.34-5.99.34,5.99h0ZM60.19,840.56l-.34-5.99h0l.34,5.99ZM137.53,840.53l.46-5.98-.46,5.98ZM138.65,826.08h0l.46-5.98-.46,5.98ZM59.37,825.98l-.34-5.99.34,5.99h0ZM59.18,822.59l-.34-5.99h6s-6,0-6,0l.34,5.99ZM138.92,822.58l.46-5.98-.46,5.98ZM130.84,816.6h0s6,0,6,0h-6ZM112.84,816.6h0s6,0,6,0h-6ZM94.84,816.6h0s6,0,6,0h-6ZM76.84,816.6h0s6,0,6,0h-6ZM142.83,505.32h-6,6s0,0,0,0ZM124.83,505.32h-6,6s0,0,0,0ZM106.83,505.32h-6,6s0,0,0,0ZM88.83,505.32h-6,6s0,0,0,0ZM70.83,505.32h-6,6s0,0,0,0ZM55.72,505.32l.53-5.98-.28,3.18h0l-.25,2.8ZM142.55,501.23l-.7-9.76.7,9.76ZM57.04,490.57l.82-9.16-.82,9.16ZM141.26,483.28l-.7-9.76.7,9.76ZM58.63,472.64l.28-3.18h0l.53-5.98-.28,3.18h0l-.53,5.98ZM139.98,465.33l-.43-5.98.16,2.21h0l.27,3.77Z"/>
  <path class="cls-2" d="M768.18,271.3c-.27.46-1.21.4-1.68.14-.48-.26-1.02-1.09-.74-1.56l13.54-23.45c-21.74-12.4-46.54-19.26-73.36-19.26s-51.61,6.87-73.36,19.26l13.53,23.44c.28.47-.27,1.29-.74,1.55-.47.25-1.43.31-1.69-.14l-13.53-23.44c-43.81,25.74-72.94,72.57-73.29,126.97,12.09.01,27.1,0,27.1,0,.54,0,.98.89.98,1.43s-.44,1.41-.98,1.41c0,0-15.01-.02-27.1,0,.36,54.41,29.48,101.26,73.29,127l13.19-22.85c.58-1,1.43-.73,2.03-.73.48.26,1.07.97.41,2.11l-13.21,22.88c21.74,12.4,46.54,19.27,73.36,19.27s51.61-6.87,73.35-19.26l-13.53-23.44c-.28-.47.27-1.29.74-1.55.47-.25,1.43-.31,1.69.14l13.53,23.44c43.8-25.73,72.93-72.54,73.3-126.93-12.09-.04-27.1,0-27.1,0-.54,0-.98-.92-.98-1.47h0c0-.54.43-1.48.98-1.48,0,0,15.01.04,27.1,0-.37-54.39-29.49-101.21-73.29-126.94l-13.54,23.45h0ZM663.64,261.59c0-.66.47-1.18,1.05-1.18h82.23c.56,0,1.1.38,1.27.98.28.99-.37,1.9-1.21,1.9h-82.06c-.71,0-1.28-.65-1.28-1.43v-.25h0v-.02h0ZM587.57,355.22c-.28.48-.86.77-1.48.61-1-.25-1.47-1.28-1.04-2.01l41-71.01c.28-.48.86-.77,1.48-.61.99.25,1.46,1.28,1.04,2.01l-41,71.01ZM627.54,470.27c-.61.15-1.21-.13-1.49-.62l-40.95-70.91c-.28-.48-.23-1.14.19-1.57.71-.74,1.82-.63,2.24.12l41.03,70.98c.43.73-.01,1.75-1.02,2.02h0v-.02h0ZM746.98,492.09h-81.77c-.86,0-1.56-.79-1.56-1.75,0-.55.21-1.12,1.54-1.12h81.74c.56,0,1.1.38,1.27.96.28,1.01-.38,1.92-1.21,1.92h0v-.02h0ZM706.69,461.25c-47.53.4-86.14-38.21-85.74-85.74.39-46.15,38.11-83.87,84.26-84.26,47.53-.4,86.14,38.21,85.74,85.74-.39,46.15-38.11,83.86-84.26,84.26ZM824.49,397.01c.28-.48.94-.62,1.47-.32l.53.31c.53.31.75.95.47,1.43l-41.28,71.48c-.29.51-1,.66-1.56.33l-.44-.24c-.56-.33-.79-1-.49-1.51l41.28-71.48h.02ZM826.25,355.67c-.63.36-1.48.37-1.75-.09l-41.26-71.46c-.32-.55-.09-1.29.51-1.65l.22-.14c.64-.39,1.43-.23,1.76.35l41.22,71.48c.26.46-.07,1.15-.7,1.51h0Z"/>
  <path class="cls-2" d="M543.23,175.2c0,.51-.42,1.36-.92,1.36h-33.83c.36,63.38,34.38,118.04,85.45,147.95l16.93-29.32c.25-.44,1.2-.37,1.64-.12s.97,1.04.72,1.48l-16.93,29.33c25.31,14.46,54.24,22.51,85.47,22.51s60.17-8.06,85.48-22.52l-16.95-29.35c-.24-.43.3-1.21.73-1.47.44-.27,1.35-.32,1.61.12l16.94,29.34c51.12-29.94,85.16-84.69,85.46-148.14h-33.81c-.51,0-.92-.82-.91-1.33,0-.5.19-1.36,1.06-1.36h33.65c-.36-63.38-34.37-118.05-85.44-147.97l-16.89,29.26c-.25.44-1.19.38-1.63.13s-.96-1.04-.71-1.48l16.9-29.27c-25.31-14.47-54.24-22.52-85.48-22.52s-60.16,8.05-85.46,22.5l16.95,29.36c.24.43-.3,1.21-.73,1.47-.44.27-1.38.34-1.64-.1l-16.95-29.35c-51.14,29.94-85.16,84.69-85.45,148.16h33.83c.46,0,.93.82.93,1.33h-.02ZM768.24,72.69c.7-.42,1.47-.39,1.72.05l44.54,77.15c.25.43-.09,1.1-.77,1.5-.7.42-1.47.39-1.72-.05l-44.54-77.15c-.25-.43.09-1.09.77-1.5ZM767.46,276.02l44.54-77.14c.25-.44,1.02-.47,1.71-.08s1.04,1.08.79,1.52l-44.54,77.14c-.25.44-1.02.47-1.71.08s-1.05-1.08-.79-1.52ZM637.2,47.55h89.09c.51,0,.92.66.91,1.46,0,.79-.42,1.42-.91,1.42h-89.09c-.51,0-.92-.66-.92-1.46.02-.79.42-1.42.92-1.42h0ZM637.2,299.78h89.09c.51,0,.92.66.91,1.46,0,.79-.42,1.42-.91,1.42h-89.09c-.51,0-.92-.66-.92-1.46s.41-1.42.92-1.42h0ZM595.28,277.52c-.7.42-1.47.39-1.74-.05l-44.54-77.15c-.25-.43.09-1.1.77-1.5.7-.42,1.47-.39,1.72.05l44.54,77.15c.25.43-.07,1.1-.75,1.49h0ZM593.56,72.76c.25-.44,1.02-.47,1.71-.08s1.04,1.08.79,1.52l-44.54,77.14c-.25.44-1.02.47-1.71.08s-1.04-1.08-.79-1.52c0,0,44.54-77.14,44.54-77.14Z"/>
  <path class="cls-2" d="M836.25,540.86c-23.11-37.46-65.59-58.78-106.34-72.81-27.25-9.38,2.67-81.91,19.87-81.91,14.87,0,11.9-24.13,3.14-24.13h-107.7v59.37c-.15,1.32-.75,2.24-1.79,2.05-.83-.15-1.12-.99-1.24-2.05v-59.37h-107.82c-7.66,0-10.55,24.13,7.18,24.13,14.63,0,42.95,71.55,16.64,81.9-40.76,16.04-84.16,35.35-107.27,72.81-23.19,37.36-28.63,121.29,4.89,201.26,31.39,75.03,83.7,109.34,99.71,115.09h86.53v-17.78c.05-.88.75-2.07,1.59-2.1.94.01,1.42,1.41,1.44,2.1v17.78h86.56c16.01-5.76,68.32-40.07,99.71-115.09,33.44-79.87,28-163.9,4.89-201.26h0ZM751.66,787.15c-11.58,11.86-25.53,16.73,4.42,16.16h15.16c.47,0,.85.49.85,1.09,0,.68-.43,1.23-.96,1.23h-126.04v18.06c-.15,1.32-.75,2.24-1.79,2.05-.83-.15-1.12-.99-1.24-2.05v-18.06h-126.87v-2.32h16.01c19.79,0,21.56.25,4.42-16.16-80.85-81.18-57.42-195.69-43.78-223.56,6.15-12.72,16.01-22.72,25.79-30.29,26.39-18.92,24.7-15.68-3.47-15.75h-15.25c-.51,0-.92-.53-.92-1.18v-.07c0-.6.38-1.07.84-1.07h143.36v-51.43c.15-1.32.51-2.24,1.55-2.05.83.15,1.36.99,1.48,2.05v51.43h143.1c.45,0,.81.46.81,1.04v.14c0,.63-.4,1.14-.89,1.14h-15.28c-26.91.42-40.76-2.32-3.47,15.75,10.91,5.99,19.64,17.67,25.79,30.29,13.65,27.87,37.07,142.38-43.62,223.56h0Z"/>
  <path class="cls-2" d="M774.65,540.86c-23.11-37.46-65.59-58.78-106.34-72.81-27.25-9.38,2.67-81.91,19.87-81.91,14.87,0,11.9-24.13,3.14-24.13h-107.76v103.59c-.15,1.32-.75,2.24-1.79,2.05-.83-.15-1.12-.99-1.24-2.05v-103.59h-107.76c-7.66,0-10.55,24.13,7.18,24.13,14.63,0,42.95,71.55,16.64,81.9-40.76,16.04-84.16,35.35-107.27,72.81-23.19,37.36-28.63,121.29,4.89,201.26,31.39,75.03,83.7,109.34,99.71,115.09h86.5v-34c.15-1.32.75-2.24,1.79-2.05.83.15,1.12.99,1.24,2.05v34h86.59c16.01-5.76,68.32-40.07,99.71-115.09,33.44-79.87,28-163.9,4.89-201.26h0ZM690.06,787.15c-11.58,11.86-25.53,16.73,4.42,16.16h15.16c.47,0,.85.49.85,1.09,0,.68-.43,1.23-.96,1.23h-255.95v-2.32h16.01c19.79,0,21.56.25,4.42-16.16-80.85-81.18-57.42-195.69-43.78-223.56,6.15-12.72,16.01-22.72,25.79-30.29,26.39-18.92,24.7-15.68-3.47-15.75h-15.25c-.51,0-.92-.53-.92-1.18v-.07c0-.6.38-1.07.84-1.07h289.49c.45,0,.81.46.81,1.04v.14c0,.63-.4,1.14-.89,1.14h-15.28c-26.91.42-40.76-2.32-3.47,15.75,10.91,5.99,19.64,17.67,25.79,30.29,13.65,27.87,37.07,142.38-43.62,223.56h.01Z"/>
  <path class="cls-2" d="M713.05,540.86c-23.11-37.46-65.59-58.78-106.34-72.81-27.25-9.38,2.67-81.91,19.87-81.91,14.87,0,11.9-24.13,3.14-24.13l-218.68.13c-8.65,0-12.05,24.13,3.78,24.13s45.87,72.36,19.99,81.12c-41,13.86-84.48,36.25-107.09,73.47-22.61,37.22-28.63,121.29,4.89,201.26,31.39,75.03,83.7,109.34,99.71,115.09h176.12c16.01-5.76,68.32-40.07,99.71-115.09,33.44-79.87,28-163.9,4.89-201.26h.01ZM628.46,787.15c-11.58,11.86-25.53,16.73,4.42,16.16h15.16c.47,0,.85.49.85,1.09,0,.68-.43,1.23-.96,1.23l-126.03-.09v34.59c-.15,1.32-.75,2.24-1.79,2.05-.83-.15-1.13-.99-1.25-2.05v-34.59s-124.79.08-126.01.08-1.6-2.32,0-2.32,15.22.08,15.22.08c10.83,0,16.4-.12,17.53-2,1.23-2.05-3.56-5.01-13.2-14.24-80.85-81.18-57.42-195.69-43.78-223.56,6.15-12.72,16.84-25.84,25.79-30.29s21.8-10.52,22.65-13.62c.72-2.65-10.27-2.09-26.12-2.13h-15.25c-.51,0-.92-.53-.92-1.18v-.07c0-.6.38-1.07.84-1.07l143.15-.02v-95.36c.15-1.32.75-2.24,1.79-2.05.83.15,1.12.99,1.24,2.05v95.36l143.32.02c.45,0,.81.46.81,1.04v.14c0,.63-.4,1.14-.89,1.14h-15.28c-26.91.42-40.76-2.32-3.47,15.75,10.91,5.99,19.64,17.67,25.79,30.29,13.65,27.87,37.07,142.38-43.62,223.56h.01Z"/>
  <path class="cls-2" d="M651.45,540.86c-23.11-37.46-65.59-58.78-106.34-72.81-27.25-9.38,2.67-81.91,19.87-81.91,14.87,0,11.9-24.13,3.14-24.13l-218.68.13c-8.65,0-12.05,24.13,3.78,24.13s45.87,72.36,19.99,81.12c-41,13.86-84.48,36.25-107.09,73.47-22.61,37.22-28.63,121.29,4.89,201.26,31.39,75.03,83.7,109.34,99.71,115.09h176.12c16.01-5.76,68.32-40.07,99.71-115.09,33.44-79.87,28-163.9,4.89-201.26h.01ZM566.86,787.15c-11.58,11.86-25.53,16.73,4.42,16.16h15.16c.47,0,.85.49.85,1.09,0,.68-.43,1.23-.96,1.23l-126.03-.09v34.59c-.15,1.32-.75,2.24-1.79,2.05-.83-.15-1.13-.99-1.25-2.05v-34.59s-124.79.08-126.01.08-1.6-2.32,0-2.32,15.22.08,15.22.08c10.83,0,16.4-.12,17.53-2,1.23-2.05-3.56-5.01-13.2-14.24-80.85-81.18-57.42-195.69-43.78-223.56,6.15-12.72,16.84-25.84,25.79-30.29s21.8-10.52,22.65-13.62c.72-2.65-10.27-2.09-26.12-2.13h-15.25c-.51,0-.92-.53-.92-1.18v-.07c0-.6.38-1.07.84-1.07l143.15-.02v-95.36c.15-1.32.75-2.24,1.79-2.05.83.15,1.12.99,1.24,2.05v95.36l143.32.02c.45,0,.81.46.81,1.04v.14c0,.63-.4,1.14-.89,1.14h-15.28c-26.91.42-40.76-2.32-3.47,15.75,10.91,5.99,19.64,17.67,25.79,30.29,13.65,27.87,37.07,142.38-43.62,223.56h.01Z"/>
  <path class="cls-4" d="M435.02,348.78c10.62-18.15,20.68-29.84,29.12-38.09,18.37-9.65,35.84-17.22,46.23-21.5,2.46,2.62,5.95,4.27,9.83,4.27,14.85-.34,17.33-18.7,7.29-24.94,20-6.99,40.31-7.43,60.55,1.57-38.95-68.79-97.89-30.88-137.17-1.38,11.36-42.76,45.43-95.55,78.84-117.59-16.75.21-49.88,11.73-69.96,29.3-11.46,9.3-22.35,21.19-31.43,36.12-1,.96-2,1.93-3,2.91,9.35-56.66,40.31-102.48,43.59-142.5-23.39,34.08-41.43,46.77-64.81,80.18-18.4,26.29-38.75,76.17-53.18,118.62-1.1-15.85-1.24-30.49-.47-44.82,4.63-14.57,9.42-27.19,14.1-36.9,12.16.16,18.1-15.37,9.18-23.38,12.85-27.48,23.72-43.63,27.25-48.6,1.7-.45,5.56-1.65,7.28-2.34,7.97-3.21,15.01-3.05,13.89-3.93-1.66-1.3-4.49-2.26-13.04-2.24,1.22-3.6,8.9-7.15,7.24-7.65-2.2-.67-6.46.98-12.61,4.47-.14-2.73-.51-14.29-3.99-17.01-1.48-1.16.79,6.99-2.05,11.49-2.46-3.98-7.37-8.1-8.42-8.3-3.57-.67,2.63,1.15,4.65,13.55.15.89-.53,4.07-.28,5.92-3.57,4.18-14.93,22.94-29.11,51.03-1.78,0-3.48.35-5.03.98,7.05-32.65,15.92-60.85,24.54-81.05,8.69-21.38,20.04-52.78,15.52-85.14-10.95,25.26-35.71,48.34-56.96,86.8-2.06-.17-5.09.59-12,4.49-.7-3.73,4.25-10.59,2.56-10.22-2.25.5-5.15,4.02-8.8,10.08-1.46-2.31-7.45-12.2-11.82-12.87-1.86-.28,4.11,5.71,3.85,11.02-4.1-2.26-10.39-3.45-11.4-3.11-3.44,1.16,2.86-.29,10.69,9.53.62.78,1.9,3.85,3.23,5.46-.92,7.05-6.6,52.86-11.6,111.23-12.48-127.38-52.27-142.16-61.58-186.73-6.19,29.21,7.85,77.09,13.89,107.24-8.38-7.28-22.36-.84-22.11,10.4,0,5.43,3.21,10.1,7.84,12.24-.54,11.27-1.23,31.19-.98,56.21-8.23-29.86-17.33-71.69-20.68-119.28-13.36,26.73-20.04,62.81-23.36,105.29-40.12-99.94-105.6-88.58-134.33-106.62,16.69,40.55,71.09,34.99,93.54,120.94-32.67-27.47-74.83-27.39-98.89-16.04,36.56,5.46,68.02,33.26,93.72,67.98-22.9-15.24-45.18-24.16-52.67-30.74-.39-17.74-26.56-17.85-27,0,0,7.46,6.04,13.5,13.5,13.5,3.56,0,6.8-1.39,9.21-3.65,21.94,9.6,47.17,24.55,71.64,44.09-35.29-20.87-96.13-10.01-121.32,10.15,38.12-2.29,109.67,5.77,134,51.01-99.73-45.15-147.28-13.99-180.57-3.99,20.38,13.39,84.71-9.02,147.78,24.1-13.46-.84-26.07-.51-36.35.86-2.25-4.31-6.76-7.26-11.96-7.26-17.68.41-17.91,26.52,0,27,6.37,0,11.69-4.41,13.11-10.34,8.91-.69,30.2-1.68,54.64,1.86,11.26,8.23,22.33,18.58,32.94,31.59h-5.62s-.09.01-.13.02h-.18c-4.21.28-5.2,12.25-2.06,15.66,1.61,2.5,4.1,3.96,7.38,4.36h211.59c5.55-.5,7.6-6.41,7.19-11.16-.33-4.89-2.68-8.87-5.25-8.87h-7c9.03-8.52,18.03-15.28,26.93-20.63,14.82-1.02,27.78-1.11,35.7-1.02,2.19,4.49,6.79,7.59,12.12,7.59,13.75,0,18.42-18.38,7.07-24.96,35.51-4,65.93,4.77,84.74-2.75-54.37-21.25-85.23-36.69-138.78-23.52h-.01ZM332.9,98.91c3.21-3.99,6.69-6.77,8.7-8.42-5.68,10.46-11.08,22.05-15.87,35.12,1.37-11.96,2.35-19.59,2.65-21.85,1.05-1.16,3.51-3.59,4.53-4.85h-.01ZM255.04,158.04c2.97-.93,5.5-2.86,7.2-5.39,5.05,44.97-2.3,111.72-2.35,108.49,0,0-1.2-2.93-3.17-8.38-2.52-41.98-2.11-77.91-1.68-94.72h0Z"/>
  <path class="cls-7" d="M436.86,113.75c3.89.58,6.44.69,6.06-.64-1.44-5.14-8.31-9.11-15.95-10.51,9-1.63,19.31.17,17.45-4.76-1.25-3.32-9.06-5.71-18.3-3.45,2.48-2.99,14.35-8.96,11.26-12.75-3.9-3.04-10.63-1.12-17.35,4.57,4.76-18.63-2.62-32-10.77-10.1-1.84-4.58-4.61-8.62-8.76-9.98-4.73-1.55-1.09,5.68.93,13.9-2.69-7.48-15.56-19.03-21.42-15.32-3.72,3.53,12.71,11.85,14.93,24.51-8.93-11.22-22.33-11.3-18.46-5.24,2.36,3.7,12.19,9.71,15.96,17.41,1.27,2.59,2.4,4.81,2.48,8.89.06,3.28-.22,6.53,2.41,8.36s5.69-.08,7.93-.95c3.43-1.34,10.22-3.41,17.33-1.34,7.12,2.07,14.2,10.99,17.27,8.67,2.37-1.8.96-6.66-2.99-11.25v-.02h0Z"/>
  <path class="cls-7" d="M355.14,78.87c3.65-1.45,5.91-2.64,4.92-3.6-3.83-3.72-11.76-3.69-19.07-1.05,6.96-5.94,16.77-9.57,12.69-12.9-2.75-2.24-10.7-.38-17.55,6.23.64-3.83,7.89-14.97,3.31-16.69-4.9-.67-9.75,4.38-12.7,12.68-5.27-18.5-18.37-26.33-14.39-3.31-3.9-3.03-8.32-5.13-12.59-4.21-4.87,1.04,1.92,5.46,7.8,11.54-6.08-5.11-23.02-8.61-26.22-2.45-1.44,4.92,16.94,3.85,25.23,13.67-13.37-5.2-24.98,1.47-18.59,4.76,3.91,2.01,15.42,2.25,22.55,7.01,2.4,1.6,4.49,2.94,6.61,6.43,1.7,2.8,3.1,5.75,6.29,6.01s4.87-2.93,6.37-4.81c2.29-2.88,7.11-8.09,14.3-9.88,7.19-1.8,17.8,2.35,19.29-1.2,1.14-2.74-2.52-6.24-8.25-8.22h0Z"/>
  <path class="cls-7" d="M160.74,126.67c1.4-3.67,2.06-6.14.68-6.06-5.33.3-10.68,6.16-13.69,13.33.34-9.14,4.31-18.82-.9-18.07-3.51.51-7.52,7.62-7.3,17.13-2.39-3.07-5.67-15.94-10.04-13.73-3.81,3.16-3.38,10.14.74,17.93-17.18-8.65-31.82-4.31-12.17,8.35-4.87.82-9.41,2.65-11.63,6.42-2.53,4.29,5.32,2.28,13.77,2.08-7.88,1.02-21.93,11.11-19.56,17.64,2.65,4.39,14.3-9.86,27.14-9.32-12.88,6.32-15.83,19.38-9.08,16.9,4.12-1.51,12.1-9.82,20.43-11.85,2.8-.68,5.21-1.32,9.21-.51,3.21.65,6.33,1.62,8.68-.56s1.14-5.57.77-7.95c-.57-3.64-1.13-10.71,2.41-17.22,3.55-6.51,13.79-11.51,12.17-15.01-1.24-2.7-6.3-2.37-11.64.51h0Z"/>
  <path class="cls-1" d="M520.23,266.42c-7.46,0-13.5,6.04-13.5,13.5-15.23,7.66-49.01,21.01-76.59,39.62-16.69,10.93-29.76,21.28-40.83,31.56-1.84-.94-3.91-1.48-6.11-1.48-9.98-.28-16.79,11.29-11.9,19.88-8.72,9.76-16.52,19.72-24.73,30.29-.59.75-1.77.02-1.35-.84,19.02-37.95,63.9-107,73.55-100.83,7.46,0,13.5-6.04,13.5-13.5-.46-17.82-26.55-17.79-27,0,0,2.17.52,4.21,1.43,6.02-12.65,14.54-45.33,54.25-68.66,101.45-.69,1.39-2.78.61-2.39-.89,14.95-58.18,43.21-103.02,66.28-132.12,23.94-30.2,51.95-53.44,62.64-61.85,2.14,1.43,4.71,2.26,7.47,2.26,17.75-.41,17.84-26.56,0-27-7.46,0-13.5,6.04-13.5,13.5,0,1.23.18,2.41.48,3.54-55.72,45.43-113.09,108.68-134.92,208.31-.4,1.89-3.18,1.57-3.14-.36,2.62-72.51,24.15-163.09,43.59-203.45,7.46,0,13.5-6.04,13.5-13.5,0-3.91-1.67-7.41-4.32-9.88,12.85-27.48,23.72-43.63,27.25-48.6,1.7-.45,5.56-1.65,7.28-2.34,7.97-3.21,15.01-3.05,13.89-3.93-1.66-1.3-4.49-2.26-13.04-2.24,1.22-3.6,8.9-7.15,7.24-7.65-2.2-.67-6.46.98-12.61,4.47-.14-2.73-.51-14.29-3.99-17.01-1.48-1.16.79,6.99-2.05,11.49-2.46-3.98-7.37-8.1-8.42-8.3-3.57-.67,2.63,1.15,4.65,13.55.15.89-.53,4.07-.28,5.92-3.57,4.18-14.93,22.94-29.11,51.03-7.46,0-13.5,6.04-13.5,13.5,0,3.7,1.49,7.06,3.91,9.5-.27.65-.53,1.3-.8,1.96-14.75,36.69-32.41,92.79-42.21,167.52-.15,1.16-1.87,1.03-1.85-.14.43-24,1.27-47.42,2.36-69.73,5.01-1.98,8.55-6.84,8.55-12.55,0-5.19-2.94-9.69-7.23-11.95,5.17-87.97,13.62-153.93,14.6-161.39,1.05-1.16,3.51-3.59,4.53-4.85,5.38-6.7,11.58-10.02,10.18-10.23-2.08-.32-5.02.23-12.47,4.44-.7-3.73,4.25-10.59,2.56-10.22-2.25.5-5.15,4.02-8.8,10.08-1.46-2.31-7.45-12.2-11.82-12.87-1.86-.28,4.11,5.71,3.85,11.02-4.1-2.26-10.39-3.45-11.4-3.11-3.44,1.16,2.86-.29,10.69,9.53.62.78,1.9,3.85,3.23,5.46-1.17,8.97-10.05,80.69-15.42,161.2-8.14,2.18-12.24,12.93-7.45,20.03-3.79,8.11-14.65,35.43-13.49,86.15-5.82-16.21-12.06-30.72-18.31-43.54-10.51-69.7-9.89-142.57-9.21-168.81,5.49-1.71,9.48-6.84,9.48-12.89,0-7.46-6.04-13.5-13.5-13.5s-13.5,6.04-13.5,13.5c0,5.43,3.21,10.1,7.84,12.24-1.07,22.28-2.73,78.41,3.49,140.87-10.58-18.86-32.22-46.42-39.91-53.56,1.22-2.03,1.94-4.4,1.94-6.94,0-7.46-6.04-13.5-13.5-13.5-.49,0-.97.03-1.44.08-15.24-28.69-28.84-49.98-35.39-59.84,0-1.82-.71-5.77-.99-7.66-1.26-8.5.53-15.3-.58-14.42-1.65,1.31-3.25,3.84-5.22,12.16-3.21-2.03-4.88-10.32-5.75-8.83-1.16,1.99-.56,6.51,1.41,13.31-2.69-.5-14.02-2.84-17.47-.09-1.47,1.17,6.98.86,10.69,4.67-4.44,1.47-9.59,5.27-10.03,6.25-1.48,3.31,1.73-2.29,14.26-1.36.88.07,4.18,1.3,5.98,1.49,6.44,9.73,19.64,30.5,34.58,58.65-2.19,2.4-3.54,5.58-3.54,9.09,0,7.46,6.04,13.5,13.5,13.5,16.29,23.87,27.81,60.76,39.73,94.81-23.11-31.08-47.07-53.22-66.38-68.12-27.75-22.92-59.75-34.67-69.03-42.82-.39-17.74-26.56-17.85-27,0,0,7.46,6.04,13.5,13.5,13.5,3.56,0,6.8-1.39,9.21-3.65,44.74,19.57,103.17,61.36,140.85,119.04,4.57,6.7,7.83,14.18,9.61,22.09.31,1.39.62,2.78.92,4.18.31,1.42-1.55,2.25-2.4,1.07-7.84-10.86-14.88-19.61-20.16-25.85,1.01-1.89,1.58-4.04,1.58-6.33-.47-17.84-26.55-17.78-27,0,0,7.46,6.04,13.5,13.5,13.5,1.7,0,3.33-.33,4.83-.9,5.3,6.27,12.44,15.16,20.39,26.23-32.2-24.51-92.51-31.38-126.94-26.81-2.25-4.31-6.76-7.26-11.96-7.26-17.68.41-17.91,26.52,0,27,6.37,0,11.69-4.41,13.11-10.34,17.07-1.33,79.51-3.74,122.58,26.66,2.99,2.11,1.54,6.81-2.12,6.81h-38.82c-4.21.28-5.2,12.25-2.06,15.66,1.61,2.5,4.1,3.96,7.38,4.36h211.59c9.43-.83,8.44-18.9,1.63-20.01h-52.11c-2.87,0-3.74-3.87-1.15-5.12,32.61-15.75,88.37-16.79,109.2-16.55,2.19,4.49,6.79,7.59,12.12,7.59,7.46,0,13.5-6.04,13.5-13.5-.22-15.55-21.91-18.52-26.43-3.87-32.5-1.64-71.56.07-107.76,14.32,5.02-7.52,10.65-14.63,16.65-21.33,8.6,3.79,18.91-3,18.71-12.46,0-1.85-.37-3.62-1.05-5.23,13.18-11.95,27-22.12,39.52-30.33,26.89-17.63,59.34-31.87,75.24-38.41,2.46,2.62,5.95,4.27,9.83,4.27,17.75-.41,17.84-26.55,0-27l.03-.04h0ZM258.59,378.22c-3.11-5.21-5.47-10.83-7.07-16.68-9.18-33.56-21.27-64.83-33.13-91.37,12.46,16.17,22.49,31.88,33.35,52.76,2.82,21.3,6.64,42.91,11.78,63.8-1.63-2.89-3.27-5.73-4.93-8.51ZM299.7,394.21c.04,1.62-2.31,1.86-2.62.27-7.68-40.36-1.01-75.83,4.39-95.31-1.64,32.65-2.47,65.47-1.77,95.04h0Z"/>
  <g>
    <path class="cls-7" d="M286.1,149.47c-5.61-1.57-11.21-2.53-16.23-3.11.01-.26,0-1.48-.01-1.82,5.15-.58,10.82-1.49,16.2-2.92,17.09-4.53,30.44-11,20.66-27.93s-21.75-8.58-34.52,3.93c-4.16,4.07-7.79,8.44-10.8,12.49-.51-.33-1.04-.63-1.59-.9,2.07-4.75,4.11-10.11,5.57-15.48,4.62-17.07,5.69-31.86-13.86-31.86s-18.31,14.54-13.86,31.86c1.45,5.63,3.41,10.96,5.41,15.59-.54.28-1.07.59-1.58.92-3.08-4.16-6.69-8.61-10.62-12.56-12.47-12.53-24.75-20.86-34.52-3.93s3.44,23.12,20.66,27.93c5.6,1.56,11.21,2.52,16.22,3.11v1.82c-5.15.58-10.81,1.49-16.2,2.92-17.09,4.53-30.44,11-20.66,27.93,9.78,16.93,21.75,8.58,34.52-3.93,4.16-4.07,7.79-8.44,10.8-12.49.51.33,1.04.63,1.59.9-2.07,4.75-4.11,10.11-5.57,15.49-4.62,17.07-5.69,31.86,13.86,31.86s18.31-14.54,13.86-31.86c-1.45-5.63-3.42-10.96-5.41-15.6.54-.28,1.07-.59,1.57-.92,3.08,4.17,6.7,8.61,10.62,12.56,12.47,12.53,24.75,20.86,34.52,3.93,9.78-16.93-3.44-23.12-20.66-27.93h.03Z"/>
    <path class="cls-3" d="M283.42,133.66c-5.43,1.2-10.58,2.81-15.1,4.46-.56-1.25-1.25-2.42-2.06-3.5,3.8-3.15,7.85-6.8,11.49-10.71,11.96-12.8,20.16-25.15,5.64-33.53s-20.86,4.75-26.22,21.65c-1.68,5.3-2.86,10.56-3.69,15.29-.63-.07-3.37-.05-4.07.03-.83-4.87-1.97-10.19-3.52-15.29-5.11-16.76-11.7-30.03-26.22-21.65-14.51,8.38-6.32,20.44,5.64,33.53,3.75,4.11,7.73,7.77,11.41,10.85-.8,1.09-1.49,2.27-2.03,3.53-4.63-1.71-9.8-3.39-15-4.59-17.07-3.96-31.86-4.88-31.86,11.88s14.54,15.69,31.86,11.88c5.43-1.2,10.58-2.81,15.1-4.46.56,1.25,1.26,2.42,2.07,3.5-3.8,3.15-7.85,6.8-11.49,10.71-11.96,12.8-20.16,25.15-5.64,33.53,14.51,8.38,20.86-4.75,26.22-21.65,1.68-5.3,2.86-10.56,3.69-15.3.63.07,3.36.05,4.07-.03.83,4.87,1.97,10.19,3.53,15.3,5.11,16.76,11.7,30.03,26.22,21.65,14.51-8.38,6.32-20.44-5.64-33.53-3.75-4.11-7.73-7.77-11.42-10.86.8-1.09,1.49-2.27,2.03-3.53,4.63,1.71,9.81,3.39,15.01,4.59,17.07,3.96,31.86,4.88,31.86-11.88s-14.54-15.69-31.86-11.88h-.02Z"/>
    <path class="cls-6" d="M275.64,145.57c4.19,3.9,3.4,7.62-1.89,9.37,2.43,5.01.36,8.06-5.16,7.65.4,5.52-2.64,7.59-7.65,5.16-1.75,5.29-5.47,6.08-9.37,1.89-3.9,4.19-7.62,3.4-9.37-1.89-5.01,2.43-8.06.36-7.65-5.16-5.52.4-7.59-2.64-5.16-7.65-5.29-1.75-6.08-5.47-1.89-9.37-4.19-3.9-3.4-7.62,1.89-9.37-2.43-5.01-.36-8.06,5.16-7.65-.4-5.52,2.64-7.59,7.65-5.16,1.75-5.29,5.47-6.08,9.37-1.89,3.9-4.19,7.62-3.4,9.37,1.89,5.01-2.43,8.06-.36,7.65,5.16,5.52-.4,7.59,2.64,5.16,7.65,5.29,1.75,6.08,5.47,1.89,9.37Z"/>
    <path class="cls-5" d="M266.87,145.57c2.66,2.48,2.16,4.84-1.2,5.96,1.54,3.19.23,5.12-3.28,4.86.26,3.51-1.68,4.82-4.86,3.28-1.11,3.36-3.48,3.86-5.96,1.2-2.48,2.66-4.84,2.16-5.96-1.2-3.19,1.54-5.12.23-4.86-3.28-3.51.26-4.82-1.68-3.28-4.86-3.36-1.11-3.86-3.48-1.2-5.96-2.66-2.48-2.16-4.84,1.2-5.96-1.54-3.19-.23-5.12,3.28-4.86-.26-3.51,1.68-4.82,4.86-3.28,1.11-3.36,3.48-3.86,5.96-1.2,2.48-2.66,4.84-2.16,5.96,1.2,3.19-1.54,5.12-.23,4.86,3.28,3.51-.26,4.82,1.68,3.28,4.86,3.36,1.11,3.86,3.48,1.2,5.96Z"/>
  </g>
  <g>
    <path class="cls-7" d="M506.97,189.84c-5.61-1.57-11.21-2.53-16.23-3.11.01-.26,0-1.48-.01-1.82,5.15-.58,10.82-1.49,16.2-2.92,17.09-4.53,30.44-11,20.66-27.93s-21.75-8.58-34.52,3.93c-4.16,4.07-7.79,8.44-10.8,12.49-.51-.33-1.04-.63-1.59-.9,2.07-4.75,4.11-10.11,5.57-15.48,4.62-17.07,5.69-31.86-13.86-31.86s-18.31,14.54-13.86,31.86c1.45,5.63,3.41,10.96,5.41,15.59-.54.28-1.07.59-1.58.92-3.08-4.16-6.69-8.61-10.62-12.56-12.47-12.53-24.75-20.86-34.52-3.93s3.44,23.12,20.66,27.93c5.6,1.56,11.21,2.52,16.22,3.11-.01.26,0,1.48.01,1.82-5.15.58-10.81,1.49-16.2,2.92-17.09,4.53-30.44,11-20.66,27.93s21.75,8.58,34.52-3.93c4.16-4.07,7.79-8.44,10.8-12.49.51.33,1.04.63,1.59.9-2.07,4.75-4.11,10.11-5.57,15.49-4.62,17.07-5.69,31.86,13.86,31.86s18.31-14.54,13.86-31.86c-1.45-5.63-3.42-10.96-5.41-15.6.54-.28,1.07-.59,1.57-.92,3.08,4.17,6.7,8.61,10.62,12.56,12.47,12.53,24.75,20.86,34.52,3.93,9.78-16.93-3.44-23.12-20.66-27.93h.02Z"/>
    <path class="cls-3" d="M504.29,174.03c-5.43,1.2-10.58,2.81-15.1,4.46-.56-1.25-1.25-2.42-2.06-3.5,3.8-3.15,7.85-6.8,11.49-10.71,11.96-12.8,20.16-25.15,5.64-33.53-14.52-8.38-20.86,4.75-26.22,21.65-1.68,5.3-2.86,10.56-3.69,15.29-.63-.07-3.37-.05-4.07.03-.83-4.87-1.97-10.19-3.52-15.29-5.11-16.76-11.7-30.03-26.22-21.65-14.51,8.38-6.32,20.44,5.64,33.53,3.75,4.11,7.73,7.77,11.41,10.85-.8,1.09-1.49,2.27-2.03,3.53-4.63-1.71-9.8-3.39-15-4.59-17.07-3.96-31.86-4.88-31.86,11.88s14.54,15.69,31.86,11.88c5.43-1.2,10.58-2.81,15.1-4.46.56,1.25,1.26,2.42,2.07,3.5-3.8,3.15-7.85,6.8-11.49,10.71-11.96,12.8-20.16,25.15-5.64,33.53,14.51,8.38,20.86-4.75,26.22-21.65,1.68-5.3,2.86-10.56,3.69-15.3.63.07,3.36.05,4.07-.03.83,4.87,1.97,10.19,3.53,15.3,5.11,16.76,11.7,30.03,26.22,21.65,14.51-8.38,6.32-20.44-5.64-33.53-3.75-4.11-7.73-7.77-11.42-10.86.8-1.09,1.49-2.27,2.03-3.53,4.63,1.71,9.81,3.39,15.01,4.59,17.07,3.96,31.86,4.88,31.86-11.88s-14.54-15.69-31.86-11.88h-.02Z"/>
    <path class="cls-6" d="M496.51,185.94c4.19,3.9,3.4,7.62-1.89,9.37,2.43,5.01.36,8.06-5.16,7.65.4,5.52-2.64,7.59-7.65,5.16-1.75,5.29-5.47,6.08-9.37,1.89-3.9,4.19-7.62,3.4-9.37-1.89-5.01,2.43-8.06.36-7.65-5.16-5.52.4-7.59-2.64-5.16-7.65-5.29-1.75-6.08-5.47-1.89-9.37-4.19-3.9-3.4-7.62,1.89-9.37-2.43-5.01-.36-8.06,5.16-7.65-.4-5.52,2.64-7.59,7.65-5.16,1.75-5.29,5.47-6.08,9.37-1.89,3.9-4.19,7.62-3.4,9.37,1.89,5.01-2.43,8.06-.36,7.65,5.16,5.52-.4,7.59,2.64,5.16,7.65,5.29,1.75,6.08,5.47,1.89,9.37Z"/>
    <path class="cls-5" d="M487.73,185.94c2.66,2.48,2.16,4.84-1.2,5.96,1.54,3.19.23,5.12-3.28,4.86.26,3.51-1.68,4.82-4.86,3.28-1.11,3.36-3.48,3.86-5.96,1.2-2.48,2.66-4.84,2.16-5.96-1.2-3.19,1.54-5.12.23-4.86-3.28-3.51.26-4.82-1.68-3.28-4.86-3.36-1.11-3.86-3.48-1.2-5.96-2.66-2.48-2.16-4.84,1.2-5.96-1.54-3.19-.23-5.12,3.28-4.86-.26-3.51,1.68-4.82,4.86-3.28,1.11-3.36,3.48-3.86,5.96-1.2,2.48-2.66,4.84-2.16,5.96,1.2,3.19-1.54,5.12-.23,4.86,3.28,3.51-.26,4.82,1.68,3.28,4.86,3.36,1.11,3.86,3.48,1.2,5.96Z"/>
  </g>
  <g>
    <path class="cls-7" d="M342.06,281.01c-5.61-1.57-11.21-2.53-16.23-3.11.01-.26,0-1.48-.01-1.82,5.15-.58,10.82-1.49,16.2-2.92,17.09-4.53,30.44-11,20.66-27.93s-21.75-8.58-34.52,3.93c-4.16,4.07-7.79,8.44-10.8,12.49-.51-.33-1.04-.63-1.59-.9,2.07-4.75,4.11-10.11,5.57-15.48,4.62-17.07,5.69-31.86-13.86-31.86s-18.31,14.54-13.86,31.86c1.45,5.63,3.41,10.96,5.41,15.59-.54.28-1.07.59-1.58.92-3.08-4.16-6.69-8.61-10.62-12.56-12.47-12.53-24.75-20.86-34.52-3.93-9.77,16.93,3.44,23.12,20.66,27.93,5.6,1.56,11.21,2.52,16.22,3.11-.01.26,0,1.48.01,1.82-5.15.58-10.81,1.49-16.2,2.92-17.09,4.53-30.44,11-20.66,27.93s21.75,8.58,34.52-3.93c4.16-4.07,7.79-8.44,10.8-12.49.51.33,1.04.63,1.59.9-2.07,4.75-4.11,10.11-5.57,15.49-4.62,17.07-5.69,31.86,13.86,31.86s18.31-14.54,13.86-31.86c-1.45-5.63-3.42-10.96-5.41-15.6.54-.28,1.07-.59,1.57-.92,3.08,4.17,6.7,8.61,10.62,12.56,12.47,12.53,24.75,20.86,34.52,3.93,9.78-16.93-3.44-23.12-20.66-27.93h.02Z"/>
    <path class="cls-3" d="M339.38,265.2c-5.43,1.2-10.58,2.81-15.1,4.46-.56-1.25-1.25-2.42-2.06-3.5,3.8-3.15,7.85-6.8,11.49-10.71,11.96-12.8,20.16-25.15,5.64-33.53s-20.86,4.75-26.22,21.65c-1.68,5.3-2.86,10.56-3.69,15.29-.63-.07-3.37-.05-4.07.03-.83-4.87-1.97-10.19-3.52-15.29-5.11-16.76-11.7-30.03-26.22-21.65-14.51,8.38-6.32,20.44,5.64,33.53,3.75,4.11,7.73,7.77,11.41,10.85-.8,1.09-1.49,2.27-2.03,3.53-4.63-1.71-9.8-3.39-15-4.59-17.07-3.96-31.86-4.88-31.86,11.88s14.54,15.69,31.86,11.88c5.43-1.2,10.58-2.81,15.1-4.46.56,1.25,1.26,2.42,2.07,3.5-3.8,3.15-7.85,6.8-11.49,10.71-11.96,12.8-20.16,25.15-5.64,33.53,14.51,8.38,20.86-4.75,26.22-21.65,1.68-5.3,2.86-10.56,3.69-15.3.63.07,3.36.05,4.07-.03.83,4.87,1.97,10.19,3.53,15.3,5.11,16.76,11.7,30.03,26.22,21.65,14.51-8.38,6.32-20.44-5.64-33.53-3.75-4.11-7.73-7.77-11.42-10.86.8-1.09,1.49-2.27,2.03-3.53,4.63,1.71,9.81,3.39,15.01,4.59,17.07,3.96,31.86,4.88,31.86-11.88s-14.54-15.69-31.86-11.88h-.02Z"/>
    <path class="cls-6" d="M331.6,277.11c4.19,3.9,3.4,7.62-1.89,9.37,2.43,5.01.36,8.06-5.16,7.65.4,5.52-2.64,7.59-7.65,5.16-1.75,5.29-5.47,6.08-9.37,1.89-3.9,4.19-7.62,3.4-9.37-1.89-5.01,2.43-8.06.36-7.65-5.16-5.52.4-7.59-2.64-5.16-7.65-5.29-1.75-6.08-5.47-1.89-9.37-4.19-3.9-3.4-7.62,1.89-9.37-2.43-5.01-.36-8.06,5.16-7.65-.4-5.52,2.64-7.59,7.65-5.16,1.75-5.29,5.47-6.08,9.37-1.89,3.9-4.19,7.62-3.4,9.37,1.89,5.01-2.43,8.06-.36,7.65,5.16,5.52-.4,7.59,2.64,5.16,7.65,5.29,1.75,6.08,5.47,1.89,9.37Z"/>
    <path class="cls-5" d="M322.83,277.11c2.66,2.48,2.16,4.84-1.2,5.96,1.54,3.19.23,5.12-3.28,4.86.26,3.51-1.68,4.82-4.86,3.28-1.11,3.36-3.48,3.86-5.96,1.2-2.48,2.66-4.84,2.16-5.96-1.2-3.19,1.54-5.12.23-4.86-3.28-3.51.26-4.82-1.68-3.28-4.86-3.36-1.11-3.86-3.48-1.2-5.96-2.66-2.48-2.16-4.84,1.2-5.96-1.54-3.19-.23-5.12,3.28-4.86-.26-3.51,1.68-4.82,4.86-3.28,1.11-3.36,3.48-3.86,5.96-1.2,2.48-2.66,4.84-2.16,5.96,1.2,3.19-1.54,5.12-.23,4.86,3.28,3.51-.26,4.82,1.68,3.28,4.86,3.36,1.11,3.86,3.48,1.2,5.96Z"/>
  </g>
  <g>
    <path class="cls-7" d="M515.99,390.56c-5.61-1.57-11.21-2.53-16.23-3.11.01-.26,0-1.48-.01-1.82,5.15-.58,10.82-1.49,16.2-2.92,17.09-4.53,30.44-11,20.66-27.93s-21.75-8.58-34.52,3.93c-4.16,4.07-7.79,8.44-10.8,12.49-.51-.33-1.04-.63-1.59-.9,2.07-4.75,4.11-10.11,5.57-15.48,4.62-17.07,5.69-31.86-13.86-31.86s-18.31,14.54-13.86,31.86c1.45,5.63,3.41,10.96,5.41,15.59-.54.28-1.07.59-1.58.92-3.08-4.16-6.69-8.61-10.62-12.56-12.47-12.53-24.75-20.86-34.52-3.93s3.44,23.12,20.66,27.93c5.6,1.56,11.21,2.52,16.22,3.11-.01.26,0,1.48.01,1.82-5.15.58-10.81,1.49-16.2,2.92-17.09,4.53-30.44,11-20.66,27.93s21.75,8.58,34.52-3.93c4.16-4.07,7.79-8.44,10.8-12.49.51.33,1.04.63,1.59.9-2.07,4.75-4.11,10.11-5.57,15.49-4.62,17.07-5.69,31.86,13.86,31.86s18.31-14.54,13.86-31.86c-1.45-5.63-3.42-10.96-5.41-15.6.54-.28,1.07-.59,1.57-.92,3.08,4.17,6.7,8.61,10.62,12.56,12.47,12.53,24.75,20.86,34.52,3.93,9.78-16.93-3.44-23.12-20.66-27.93h.02Z"/>
    <path class="cls-3" d="M513.31,374.75c-5.43,1.2-10.58,2.81-15.1,4.46-.56-1.25-1.25-2.42-2.06-3.5,3.8-3.15,7.85-6.8,11.49-10.71,11.96-12.8,20.16-25.15,5.64-33.53-14.52-8.38-20.86,4.75-26.22,21.65-1.68,5.3-2.86,10.56-3.69,15.29-.63-.07-3.37-.05-4.07.03-.83-4.87-1.97-10.19-3.52-15.29-5.11-16.76-11.7-30.03-26.22-21.65-14.51,8.38-6.32,20.44,5.64,33.53,3.75,4.11,7.73,7.77,11.41,10.85-.8,1.09-1.49,2.27-2.03,3.53-4.63-1.71-9.8-3.39-15-4.59-17.07-3.96-31.86-4.88-31.86,11.88s14.54,15.69,31.86,11.88c5.43-1.2,10.58-2.81,15.1-4.46.56,1.25,1.26,2.42,2.07,3.5-3.8,3.15-7.85,6.8-11.49,10.71-11.96,12.8-20.16,25.15-5.64,33.53,14.51,8.38,20.86-4.75,26.22-21.65,1.68-5.3,2.86-10.56,3.69-15.3.63.07,3.36.05,4.07-.03.83,4.87,1.97,10.19,3.53,15.3,5.11,16.76,11.7,30.03,26.22,21.65,14.51-8.38,6.32-20.44-5.64-33.53-3.75-4.11-7.73-7.77-11.42-10.86.8-1.09,1.49-2.27,2.03-3.53,4.63,1.71,9.81,3.39,15.01,4.59,17.07,3.96,31.86,4.88,31.86-11.88s-14.54-15.69-31.86-11.88h-.02,0Z"/>
    <path class="cls-6" d="M505.53,386.66c4.19,3.9,3.4,7.62-1.89,9.37,2.43,5.01.36,8.06-5.16,7.65.4,5.52-2.64,7.59-7.65,5.16-1.75,5.29-5.47,6.08-9.37,1.89-3.9,4.19-7.62,3.4-9.37-1.89-5.01,2.43-8.06.36-7.65-5.16-5.52.4-7.59-2.64-5.16-7.65-5.29-1.75-6.08-5.47-1.89-9.37-4.19-3.9-3.4-7.62,1.89-9.37-2.43-5.01-.36-8.06,5.16-7.65-.4-5.52,2.64-7.59,7.65-5.16,1.75-5.29,5.47-6.08,9.37-1.89,3.9-4.19,7.62-3.4,9.37,1.89,5.01-2.43,8.06-.36,7.65,5.16,5.52-.4,7.59,2.64,5.16,7.65,5.29,1.75,6.08,5.47,1.89,9.37Z"/>
    <path class="cls-5" d="M496.76,386.66c2.66,2.48,2.16,4.84-1.2,5.96,1.54,3.19.23,5.12-3.28,4.86.26,3.51-1.68,4.82-4.86,3.28-1.11,3.36-3.48,3.86-5.96,1.2-2.48,2.66-4.84,2.16-5.96-1.2-3.19,1.54-5.12.23-4.86-3.28-3.51.26-4.82-1.68-3.28-4.86-3.36-1.11-3.86-3.48-1.2-5.96-2.66-2.48-2.16-4.84,1.2-5.96-1.54-3.19-.23-5.12,3.28-4.86-.26-3.51,1.68-4.82,4.86-3.28,1.11-3.36,3.48-3.86,5.96-1.2,2.48-2.66,4.84-2.16,5.96,1.2,3.19-1.54,5.12-.23,4.86,3.28,3.51-.26,4.82,1.68,3.28,4.86,3.36,1.11,3.86,3.48,1.2,5.96Z"/>
  </g>
  <g>
    <path class="cls-7" d="M123.52,239.35c-5.61-1.57-11.21-2.53-16.23-3.11.01-.26,0-1.48-.01-1.82,5.15-.58,10.82-1.49,16.2-2.92,17.09-4.53,30.44-11,20.66-27.93s-21.75-8.58-34.52,3.93c-4.16,4.07-7.79,8.44-10.8,12.49-.51-.33-1.04-.63-1.59-.9,2.07-4.75,4.11-10.11,5.57-15.48,4.62-17.07,5.69-31.86-13.86-31.86s-18.31,14.54-13.86,31.86c1.45,5.63,3.41,10.96,5.41,15.59-.54.28-1.07.59-1.58.92-3.08-4.16-6.69-8.61-10.62-12.56-12.47-12.53-24.75-20.86-34.52-3.93s3.44,23.12,20.66,27.93c5.6,1.56,11.21,2.52,16.22,3.11-.01.26,0,1.48.01,1.82-5.15.58-10.81,1.49-16.2,2.92-17.09,4.53-30.44,11-20.66,27.93,9.78,16.93,21.75,8.58,34.52-3.93,4.16-4.07,7.79-8.44,10.8-12.49.51.33,1.04.63,1.59.9-2.07,4.75-4.11,10.11-5.57,15.49-4.62,17.07-5.69,31.86,13.86,31.86s18.31-14.54,13.86-31.86c-1.45-5.63-3.42-10.96-5.41-15.6.54-.28,1.07-.59,1.57-.92,3.08,4.17,6.7,8.61,10.62,12.56,12.47,12.53,24.75,20.86,34.52,3.93,9.78-16.93-3.44-23.12-20.66-27.93h.02Z"/>
    <path class="cls-3" d="M120.84,223.54c-5.43,1.2-10.58,2.81-15.1,4.46-.56-1.25-1.25-2.42-2.06-3.5,3.8-3.15,7.85-6.8,11.49-10.71,11.96-12.8,20.16-25.15,5.64-33.53s-20.86,4.75-26.22,21.65c-1.68,5.3-2.86,10.56-3.69,15.29-.63-.07-3.37-.05-4.07.03-.83-4.87-1.97-10.19-3.52-15.29-5.11-16.76-11.7-30.03-26.22-21.65-14.51,8.38-6.32,20.44,5.64,33.53,3.75,4.11,7.73,7.77,11.41,10.85-.8,1.09-1.49,2.27-2.03,3.53-4.63-1.71-9.8-3.39-15-4.59-17.07-3.96-31.86-4.88-31.86,11.88s14.54,15.69,31.86,11.88c5.43-1.2,10.58-2.81,15.1-4.46.56,1.25,1.26,2.42,2.07,3.5-3.8,3.15-7.85,6.8-11.49,10.71-11.96,12.8-20.16,25.15-5.64,33.53,14.51,8.38,20.86-4.75,26.22-21.65,1.68-5.3,2.86-10.56,3.69-15.3.63.07,3.36.05,4.07-.03.83,4.87,1.97,10.19,3.53,15.3,5.11,16.76,11.7,30.03,26.22,21.65,14.51-8.38,6.32-20.44-5.64-33.53-3.75-4.11-7.73-7.77-11.42-10.86.8-1.09,1.49-2.27,2.03-3.53,4.63,1.71,9.81,3.39,15.01,4.59,17.07,3.96,31.86,4.88,31.86-11.88s-14.54-15.69-31.86-11.88h-.02Z"/>
    <path class="cls-6" d="M113.06,235.45c4.19,3.9,3.4,7.62-1.89,9.37,2.43,5.01.36,8.06-5.16,7.65.4,5.52-2.64,7.59-7.65,5.16-1.75,5.29-5.47,6.08-9.37,1.89-3.9,4.19-7.62,3.4-9.37-1.89-5.01,2.43-8.06.36-7.65-5.16-5.52.4-7.59-2.64-5.16-7.65-5.29-1.75-6.08-5.47-1.89-9.37-4.19-3.9-3.4-7.62,1.89-9.37-2.43-5.01-.36-8.06,5.16-7.65-.4-5.52,2.64-7.59,7.65-5.16,1.75-5.29,5.47-6.08,9.37-1.89,3.9-4.19,7.62-3.4,9.37,1.89,5.01-2.43,8.06-.36,7.65,5.16,5.52-.4,7.59,2.64,5.16,7.65,5.29,1.75,6.08,5.47,1.89,9.37h0Z"/>
    <path class="cls-5" d="M104.29,235.45c2.66,2.48,2.16,4.84-1.2,5.96,1.54,3.19.23,5.12-3.28,4.86.26,3.51-1.68,4.82-4.86,3.28-1.11,3.36-3.48,3.86-5.96,1.2-2.48,2.66-4.84,2.16-5.96-1.2-3.19,1.54-5.12.23-4.86-3.28-3.51.26-4.82-1.68-3.28-4.86-3.36-1.11-3.86-3.48-1.2-5.96-2.66-2.48-2.16-4.84,1.2-5.96-1.54-3.19-.23-5.12,3.28-4.86-.26-3.51,1.68-4.82,4.86-3.28,1.11-3.36,3.48-3.86,5.96-1.2,2.48-2.66,4.84-2.16,5.96,1.2,3.19-1.54,5.12-.23,4.86,3.28,3.51-.26,4.82,1.68,3.28,4.86,3.36,1.11,3.86,3.48,1.2,5.96Z"/>
  </g>
  <g>
    <path class="cls-7" d="M135.08,381.21c-5.61-1.57-11.21-2.53-16.23-3.11.01-.26,0-1.48-.01-1.82,5.15-.58,10.82-1.49,16.2-2.92,17.09-4.53,30.44-11,20.66-27.93s-21.75-8.58-34.52,3.93c-4.16,4.07-7.79,8.44-10.8,12.49-.51-.33-1.04-.63-1.59-.9,2.07-4.75,4.11-10.11,5.57-15.48,4.62-17.07,5.69-31.86-13.86-31.86s-18.31,14.54-13.86,31.86c1.45,5.63,3.41,10.96,5.41,15.59-.54.28-1.07.59-1.58.92-3.08-4.16-6.69-8.61-10.62-12.56-12.47-12.53-24.75-20.86-34.52-3.93s3.44,23.12,20.66,27.93c5.6,1.56,11.21,2.52,16.22,3.11-.01.26,0,1.48.01,1.82-5.15.58-10.81,1.49-16.2,2.92-17.09,4.53-30.44,11-20.66,27.93,9.78,16.93,21.75,8.58,34.52-3.93,4.16-4.07,7.79-8.44,10.8-12.49.51.33,1.04.63,1.59.9-2.07,4.75-4.11,10.11-5.57,15.49-4.62,17.07-5.69,31.86,13.86,31.86s18.31-14.54,13.86-31.86c-1.45-5.63-3.42-10.96-5.41-15.6.54-.28,1.07-.59,1.57-.92,3.08,4.17,6.7,8.61,10.62,12.56,12.47,12.53,24.75,20.86,34.52,3.93,9.78-16.93-3.44-23.12-20.66-27.93h.02,0Z"/>
    <path class="cls-3" d="M132.4,365.41c-5.43,1.2-10.58,2.81-15.1,4.46-.56-1.25-1.25-2.42-2.06-3.5,3.8-3.15,7.85-6.8,11.49-10.71,11.96-12.8,20.16-25.15,5.64-33.53s-20.86,4.75-26.22,21.65c-1.68,5.3-2.86,10.56-3.69,15.29-.63-.07-3.37-.05-4.07.03-.83-4.87-1.97-10.19-3.52-15.29-5.11-16.76-11.7-30.03-26.22-21.65-14.51,8.38-6.32,20.44,5.64,33.53,3.75,4.11,7.73,7.77,11.41,10.85-.8,1.09-1.49,2.27-2.03,3.53-4.63-1.71-9.8-3.39-15-4.59-17.07-3.96-31.86-4.88-31.86,11.88s14.54,15.69,31.86,11.88c5.43-1.2,10.58-2.81,15.1-4.46.56,1.25,1.26,2.42,2.07,3.5-3.8,3.15-7.85,6.8-11.49,10.71-11.96,12.8-20.16,25.15-5.64,33.53,14.51,8.38,20.86-4.75,26.22-21.65,1.68-5.3,2.86-10.56,3.69-15.3.63.07,3.36.05,4.07-.03.83,4.87,1.97,10.19,3.53,15.3,5.11,16.76,11.7,30.03,26.22,21.65,14.51-8.38,6.32-20.44-5.64-33.53-3.75-4.11-7.73-7.77-11.42-10.86.8-1.09,1.49-2.27,2.03-3.53,4.63,1.71,9.81,3.39,15.01,4.59,17.07,3.96,31.86,4.88,31.86-11.88s-14.54-15.69-31.86-11.88h-.02Z"/>
    <path class="cls-6" d="M124.61,377.32c4.19,3.9,3.4,7.62-1.89,9.37,2.43,5.01.36,8.06-5.16,7.65.4,5.52-2.64,7.59-7.65,5.16-1.75,5.29-5.47,6.08-9.37,1.89-3.9,4.19-7.62,3.4-9.37-1.89-5.01,2.43-8.06.36-7.65-5.16-5.52.4-7.59-2.64-5.16-7.65-5.29-1.75-6.08-5.47-1.89-9.37-4.19-3.9-3.4-7.62,1.89-9.37-2.43-5.01-.36-8.06,5.16-7.65-.4-5.52,2.64-7.59,7.65-5.16,1.75-5.29,5.47-6.08,9.37-1.89,3.9-4.19,7.62-3.4,9.37,1.89,5.01-2.43,8.06-.36,7.65,5.16,5.52-.4,7.59,2.64,5.16,7.65,5.29,1.75,6.08,5.47,1.89,9.37Z"/>
    <path class="cls-5" d="M115.84,377.32c2.66,2.48,2.16,4.84-1.2,5.96,1.54,3.19.23,5.12-3.28,4.86.26,3.51-1.68,4.82-4.86,3.28-1.11,3.36-3.48,3.86-5.96,1.2-2.48,2.66-4.84,2.16-5.96-1.2-3.19,1.54-5.12.23-4.86-3.28-3.51.26-4.82-1.68-3.28-4.86-3.36-1.11-3.86-3.48-1.2-5.96-2.66-2.48-2.16-4.84,1.2-5.96-1.54-3.19-.23-5.12,3.28-4.86-.26-3.51,1.68-4.82,4.86-3.28,1.11-3.36,3.48-3.86,5.96-1.2,2.48-2.66,4.84-2.16,5.96,1.2,3.19-1.54,5.12-.23,4.86,3.28,3.51-.26,4.82,1.68,3.28,4.86,3.36,1.11,3.86,3.48,1.2,5.96Z"/>
  </g>
  <g>
    <path class="cls-7" d="M411.33,181.07c.4-15.18-13.79-12.07-25.41-8.62,10.7-5.55,22.87-13.54,11.88-24.01-10.45-11.02-18.29,1.21-24.06,11.88,3.64-11.49,6.6-25.74-8.58-25.37-15.18-.4-12.07,13.79-8.62,25.41-5.55-10.7-13.54-22.87-24.01-11.88-11.02,10.45,1.21,18.29,11.88,24.06-11.49-3.64-25.74-6.6-25.37,8.58-.4,15.18,13.79,12.07,25.41,8.62-10.7,5.55-22.87,13.54-11.88,24.01,10.45,11.02,18.29-1.21,24.06-11.88-3.64,11.49-6.6,25.74,8.58,25.37,15.18.4,12.07-13.79,8.62-25.41,5.55,10.7,13.54,22.87,24.01,11.88,11.02-10.45-1.21-18.29-11.88-24.06,11.49,3.64,25.74,6.6,25.37-8.58Z"/>
    <path class="cls-6" d="M382.37,181.1c2.99,2.79,2.42,5.44-1.35,6.69,1.73,3.58.26,5.75-3.68,5.46.29,3.94-1.89,5.42-5.46,3.68-1.25,3.78-3.9,4.34-6.69,1.35-2.79,2.99-5.44,2.42-6.69-1.35-3.58,1.73-5.75.26-5.46-3.68-3.94.29-5.42-1.89-3.68-5.46-3.78-1.25-4.34-3.9-1.35-6.69-2.99-2.79-2.42-5.44,1.35-6.69-1.73-3.58-.26-5.75,3.68-5.46-.29-3.94,1.89-5.42,5.46-3.68,1.25-3.78,3.9-4.34,6.69-1.35,2.79-2.99,5.44-2.42,6.69,1.35,3.58-1.73,5.75-.26,5.46,3.68,3.94-.29,5.42,1.89,3.68,5.46,3.78,1.25,4.34,3.9,1.35,6.69Z"/>
    <path class="cls-5" d="M376.11,181.1c1.9,1.77,1.54,3.46-.86,4.25,1.1,2.27.16,3.66-2.34,3.47.18,2.5-1.2,3.44-3.47,2.34-.79,2.4-2.48,2.76-4.25.86-1.77,1.9-3.46,1.54-4.25-.86-2.27,1.1-3.66.16-3.47-2.34-2.5.18-3.44-1.2-2.34-3.47-2.4-.79-2.76-2.48-.86-4.25-1.9-1.77-1.54-3.46.86-4.25-1.1-2.27-.16-3.66,2.34-3.47-.18-2.5,1.2-3.44,3.47-2.34.79-2.4,2.48-2.76,4.25-.86,1.77-1.9,3.46-1.54,4.25.86,2.27-1.1,3.66-.16,3.47,2.34,2.5-.18,3.44,1.2,2.34,3.47,2.4.79,2.76,2.48.86,4.25Z"/>
  </g>
  <g>
    <path class="cls-7" d="M465.03,284.85c.4-15.18-13.79-12.07-25.41-8.62,10.7-5.55,22.87-13.54,11.88-24.01-10.45-11.02-18.29,1.21-24.06,11.88,3.64-11.49,6.6-25.74-8.58-25.37-15.18-.4-12.07,13.79-8.62,25.41-5.55-10.7-13.54-22.87-24.01-11.88-11.02,10.45,1.21,18.29,11.88,24.06-11.49-3.64-25.74-6.6-25.37,8.58-.4,15.18,13.79,12.07,25.41,8.62-10.7,5.55-22.87,13.54-11.88,24.01,10.45,11.02,18.29-1.21,24.06-11.88-3.64,11.49-6.6,25.74,8.58,25.37,15.18.4,12.07-13.79,8.62-25.41,5.55,10.7,13.54,22.87,24.01,11.88,11.02-10.45-1.21-18.29-11.88-24.06,11.49,3.64,25.74,6.6,25.37-8.58Z"/>
    <path class="cls-6" d="M436.07,284.87c2.99,2.79,2.42,5.44-1.35,6.69,1.73,3.58.26,5.75-3.68,5.46.29,3.94-1.89,5.42-5.46,3.68-1.25,3.78-3.9,4.34-6.69,1.35-2.79,2.99-5.44,2.42-6.69-1.35-3.58,1.73-5.75.26-5.46-3.68-3.94.29-5.42-1.89-3.68-5.46-3.78-1.25-4.34-3.9-1.35-6.69-2.99-2.79-2.42-5.44,1.35-6.69-1.73-3.58-.26-5.75,3.68-5.46-.29-3.94,1.89-5.42,5.46-3.68,1.25-3.78,3.9-4.34,6.69-1.35,2.79-2.99,5.44-2.42,6.69,1.35,3.58-1.73,5.75-.26,5.46,3.68,3.94-.29,5.42,1.89,3.68,5.46,3.78,1.25,4.34,3.9,1.35,6.69Z"/>
    <path class="cls-5" d="M429.81,284.87c1.9,1.77,1.54,3.46-.86,4.25,1.1,2.27.16,3.66-2.34,3.47.18,2.5-1.2,3.44-3.47,2.34-.79,2.4-2.48,2.76-4.25.86-1.77,1.9-3.46,1.54-4.25-.86-2.27,1.1-3.66.16-3.47-2.34-2.5.18-3.44-1.2-2.34-3.47-2.4-.79-2.76-2.48-.86-4.25-1.9-1.77-1.54-3.46.86-4.25-1.1-2.27-.16-3.66,2.34-3.47-.18-2.5,1.2-3.44,3.47-2.34.79-2.4,2.48-2.76,4.25-.86,1.77-1.9,3.46-1.54,4.25.86,2.27-1.1,3.66-.16,3.47,2.34,2.5-.18,3.44,1.2,2.34,3.47,2.4.79,2.76,2.48.86,4.25Z"/>
  </g>
  <g>
    <path class="cls-7" d="M566.43,279.94c.4-15.18-13.79-12.07-25.41-8.62,10.7-5.55,22.87-13.54,11.88-24.01-10.45-11.02-18.29,1.21-24.06,11.88,3.64-11.49,6.6-25.74-8.58-25.37-15.18-.4-12.07,13.79-8.62,25.41-5.55-10.7-13.54-22.87-24.01-11.88-11.02,10.45,1.21,18.29,11.88,24.06-11.49-3.64-25.74-6.6-25.37,8.58-.4,15.18,13.79,12.07,25.41,8.62-10.7,5.55-22.87,13.54-11.88,24.01,10.45,11.02,18.29-1.21,24.06-11.88-3.64,11.49-6.6,25.74,8.58,25.37,15.18.4,12.07-13.79,8.62-25.41,5.55,10.7,13.54,22.87,24.01,11.88,11.02-10.45-1.21-18.29-11.88-24.06,11.49,3.64,25.74,6.6,25.37-8.58Z"/>
    <path class="cls-6" d="M537.47,279.97c2.99,2.79,2.42,5.44-1.35,6.69,1.73,3.58.26,5.75-3.68,5.46.29,3.94-1.89,5.42-5.46,3.68-1.25,3.78-3.9,4.34-6.69,1.35-2.79,2.99-5.44,2.42-6.69-1.35-3.58,1.73-5.75.26-5.46-3.68-3.94.29-5.42-1.89-3.68-5.46-3.78-1.25-4.34-3.9-1.35-6.69-2.99-2.79-2.42-5.44,1.35-6.69-1.73-3.58-.26-5.75,3.68-5.46-.29-3.94,1.89-5.42,5.46-3.68,1.25-3.78,3.9-4.34,6.69-1.35,2.79-2.99,5.44-2.42,6.69,1.35,3.58-1.73,5.75-.26,5.46,3.68,3.94-.29,5.42,1.89,3.68,5.46,3.78,1.25,4.34,3.9,1.35,6.69Z"/>
    <path class="cls-5" d="M531.21,279.97c1.9,1.77,1.54,3.46-.86,4.25,1.1,2.27.16,3.66-2.34,3.47.18,2.5-1.2,3.44-3.47,2.34-.79,2.4-2.48,2.76-4.25.86-1.77,1.9-3.46,1.54-4.25-.86-2.27,1.1-3.66.16-3.47-2.34-2.5.18-3.44-1.2-2.34-3.47-2.4-.79-2.76-2.48-.86-4.25-1.9-1.77-1.54-3.46.86-4.25-1.1-2.27-.16-3.66,2.34-3.47-.18-2.5,1.2-3.44,3.47-2.34.79-2.4,2.48-2.76,4.25-.86,1.77-1.9,3.46-1.54,4.25.86,2.27-1.1,3.66-.16,3.47,2.34,2.5-.18,3.44,1.2,2.34,3.47,2.4.79,2.76,2.48.86,4.25Z"/>
  </g>
  <g>
    <path class="cls-7" d="M429.11,363.47c.4-15.18-13.79-12.07-25.41-8.62,10.7-5.55,22.87-13.54,11.88-24.01-10.45-11.02-18.29,1.21-24.06,11.88,3.64-11.49,6.6-25.74-8.58-25.37-15.18-.4-12.07,13.79-8.62,25.41-5.55-10.7-13.54-22.87-24.01-11.88-11.02,10.45,1.21,18.29,11.88,24.06-11.49-3.64-25.74-6.6-25.37,8.58-.4,15.18,13.79,12.07,25.41,8.62-10.7,5.55-22.87,13.54-11.88,24.01,10.45,11.02,18.29-1.21,24.06-11.88-3.64,11.49-6.6,25.74,8.58,25.37,15.18.4,12.07-13.79,8.62-25.41,5.55,10.7,13.54,22.87,24.01,11.88,11.02-10.45-1.21-18.29-11.88-24.06,11.49,3.64,25.74,6.6,25.37-8.58Z"/>
    <path class="cls-6" d="M400.16,363.5c2.99,2.79,2.42,5.44-1.35,6.69,1.73,3.58.26,5.75-3.68,5.46.29,3.94-1.89,5.42-5.46,3.68-1.25,3.78-3.9,4.34-6.69,1.35-2.79,2.99-5.44,2.42-6.69-1.35-3.58,1.73-5.75.26-5.46-3.68-3.94.29-5.42-1.89-3.68-5.46-3.78-1.25-4.34-3.9-1.35-6.69-2.99-2.79-2.42-5.44,1.35-6.69-1.73-3.58-.26-5.75,3.68-5.46-.29-3.94,1.89-5.42,5.46-3.68,1.25-3.78,3.9-4.34,6.69-1.35,2.79-2.99,5.44-2.42,6.69,1.35,3.58-1.73,5.75-.26,5.46,3.68,3.94-.29,5.42,1.89,3.68,5.46,3.78,1.25,4.34,3.9,1.35,6.69Z"/>
    <path class="cls-5" d="M393.9,363.5c1.9,1.77,1.54,3.46-.86,4.25,1.1,2.27.16,3.66-2.34,3.47.18,2.5-1.2,3.44-3.47,2.34-.79,2.4-2.48,2.76-4.25.86-1.77,1.9-3.46,1.54-4.25-.86-2.27,1.1-3.66.16-3.47-2.34-2.5.18-3.44-1.2-2.34-3.47-2.4-.79-2.76-2.48-.86-4.25-1.9-1.77-1.54-3.46.86-4.25-1.1-2.27-.16-3.66,2.34-3.47-.18-2.5,1.2-3.44,3.47-2.34.79-2.4,2.48-2.76,4.25-.86,1.77-1.9,3.46-1.54,4.25.86,2.27-1.1,3.66-.16,3.47,2.34,2.5-.18,3.44,1.2,2.34,3.47,2.4.79,2.76,2.48.86,4.25Z"/>
  </g>
  <g>
    <path class="cls-7" d="M260.45,359.08c.4-15.18-13.79-12.07-25.41-8.62,10.7-5.55,22.87-13.54,11.88-24.01-10.45-11.02-18.29,1.21-24.06,11.88,3.64-11.49,6.6-25.74-8.58-25.37-15.18-.4-12.07,13.79-8.62,25.41-5.55-10.7-13.54-22.87-24.01-11.88-11.02,10.45,1.21,18.29,11.88,24.06-11.49-3.64-25.74-6.6-25.37,8.58-.4,15.18,13.79,12.07,25.41,8.62-10.7,5.55-22.87,13.54-11.88,24.01,10.45,11.02,18.29-1.21,24.06-11.88-3.64,11.49-6.6,25.74,8.58,25.37,15.18.4,12.07-13.79,8.62-25.41,5.55,10.7,13.54,22.87,24.01,11.88,11.02-10.45-1.21-18.29-11.88-24.06,11.49,3.64,25.74,6.6,25.37-8.58Z"/>
    <path class="cls-6" d="M231.49,359.11c2.99,2.79,2.42,5.44-1.35,6.69,1.73,3.58.26,5.75-3.68,5.46.29,3.94-1.89,5.42-5.46,3.68-1.25,3.78-3.9,4.34-6.69,1.35-2.79,2.99-5.44,2.42-6.69-1.35-3.58,1.73-5.75.26-5.46-3.68-3.94.29-5.42-1.89-3.68-5.46-3.78-1.25-4.34-3.9-1.35-6.69-2.99-2.79-2.42-5.44,1.35-6.69-1.73-3.58-.26-5.75,3.68-5.46-.29-3.94,1.89-5.42,5.46-3.68,1.25-3.78,3.9-4.34,6.69-1.35,2.79-2.99,5.44-2.42,6.69,1.35,3.58-1.73,5.75-.26,5.46,3.68,3.94-.29,5.42,1.89,3.68,5.46,3.78,1.25,4.34,3.9,1.35,6.69Z"/>
    <path class="cls-5" d="M225.23,359.11c1.9,1.77,1.54,3.46-.86,4.25,1.1,2.27.16,3.66-2.34,3.47.18,2.5-1.2,3.44-3.47,2.34-.79,2.4-2.48,2.76-4.25.86-1.77,1.9-3.46,1.54-4.25-.86-2.27,1.1-3.66.16-3.47-2.34-2.5.18-3.44-1.2-2.34-3.47-2.4-.79-2.76-2.48-.86-4.25-1.9-1.77-1.54-3.46.86-4.25-1.1-2.27-.16-3.66,2.34-3.47-.18-2.5,1.2-3.44,3.47-2.34.79-2.4,2.48-2.76,4.25-.86,1.77-1.9,3.46-1.54,4.25.86,2.27-1.1,3.66-.16,3.47,2.34,2.5-.18,3.44,1.2,2.34,3.47,2.4.79,2.76,2.48.86,4.25Z"/>
  </g>
  <g>
    <path class="cls-7" d="M243.86,238.1c.4-15.18-13.79-12.07-25.41-8.62,10.7-5.55,22.87-13.54,11.88-24.01-10.45-11.02-18.29,1.21-24.06,11.88,3.64-11.49,6.6-25.74-8.58-25.37-15.18-.4-12.07,13.79-8.62,25.41-5.55-10.7-13.54-22.87-24.01-11.88-11.02,10.45,1.21,18.29,11.88,24.06-11.49-3.64-25.74-6.6-25.37,8.58-.4,15.18,13.79,12.07,25.41,8.62-10.7,5.55-22.87,13.54-11.88,24.01,10.45,11.02,18.29-1.21,24.06-11.88-3.64,11.49-6.6,25.74,8.58,25.37,15.18.4,12.07-13.79,8.62-25.41,5.55,10.7,13.54,22.87,24.01,11.88,11.02-10.45-1.21-18.29-11.88-24.06,11.49,3.64,25.74,6.6,25.37-8.58h0Z"/>
    <path class="cls-6" d="M214.91,238.13c2.99,2.79,2.42,5.44-1.35,6.69,1.73,3.58.26,5.75-3.68,5.46.29,3.94-1.89,5.42-5.46,3.68-1.25,3.78-3.9,4.34-6.69,1.35-2.79,2.99-5.44,2.42-6.69-1.35-3.58,1.73-5.75.26-5.46-3.68-3.94.29-5.42-1.89-3.68-5.46-3.78-1.25-4.34-3.9-1.35-6.69-2.99-2.79-2.42-5.44,1.35-6.69-1.73-3.58-.26-5.75,3.68-5.46-.29-3.94,1.89-5.42,5.46-3.68,1.25-3.78,3.9-4.34,6.69-1.35,2.79-2.99,5.44-2.42,6.69,1.35,3.58-1.73,5.75-.26,5.46,3.68,3.94-.29,5.42,1.89,3.68,5.46,3.78,1.25,4.34,3.9,1.35,6.69Z"/>
    <path class="cls-5" d="M208.64,238.13c1.9,1.77,1.54,3.46-.86,4.25,1.1,2.27.16,3.66-2.34,3.47.18,2.5-1.2,3.44-3.47,2.34-.79,2.4-2.48,2.76-4.25.86-1.77,1.9-3.46,1.54-4.25-.86-2.27,1.1-3.66.16-3.47-2.34-2.5.18-3.44-1.2-2.34-3.47-2.4-.79-2.76-2.48-.86-4.25-1.9-1.77-1.54-3.46.86-4.25-1.1-2.27-.16-3.66,2.34-3.47-.18-2.5,1.2-3.44,3.47-2.34.79-2.4,2.48-2.76,4.25-.86,1.77-1.9,3.46-1.54,4.25.86,2.27-1.1,3.66-.16,3.47,2.34,2.5-.18,3.44,1.2,2.34,3.47,2.4.79,2.76,2.48.86,4.25Z"/>
  </g>
</svg>