<?xml version="1.0" standalone="no"?>
<!DOCTYPE svg PUBLIC "-//W3C//DTD SVG 20010904//EN"
 "http://www.w3.org/TR/2001/REC-SVG-20010904/DTD/svg10.dtd">
<svg version="1.0" xmlns="http://www.w3.org/2000/svg"
 width="1350.000000pt" height="1143.000000pt" viewBox="0 0 1350.000000 1143.000000"
 preserveAspectRatio="xMidYMid meet">
<metadata>
Created by potrace 1.10, written by Peter Selinger 2001-2011
</metadata>
<g transform="translate(0.000000,1143.000000) scale(0.100000,-0.100000)"
fill="#000000" stroke="none">
<path d="M7870 11346 c-19 -7 -80 -16 -135 -20 -145 -9 -406 -47 -491 -72 -28
-7 -62 -14 -76 -14 -37 0 -301 -79 -317 -95 -13 -12 -12 -15 2 -21 18 -6 48
-4 191 16 61 8 180 11 370 7 269 -4 350 -11 516 -43 42 -7 87 -14 101 -14 14
0 45 -6 70 -14 42 -13 100 -29 234 -63 33 -8 78 -22 100 -30 22 -8 56 -21 75
-28 385 -138 692 -313 1025 -584 143 -117 409 -386 499 -507 17 -23 58 -77 91
-120 33 -44 65 -88 72 -99 7 -11 31 -51 54 -90 23 -38 55 -90 70 -115 45 -73
166 -320 187 -385 12 -33 28 -78 38 -100 66 -155 140 -426 178 -652 30 -179
30 -173 12 -173 -12 0 -128 90 -156 120 -3 3 -34 30 -70 60 -135 113 -388 366
-495 495 -36 44 -99 118 -139 165 -139 163 -279 374 -365 548 -22 46 -75 185
-116 310 -42 125 -83 242 -92 260 -13 31 -13 40 2 104 36 145 2 290 -84 357
-68 53 -101 65 -186 65 -66 1 -92 -4 -145 -27 -43 -18 -95 -30 -155 -36 -49
-5 -108 -16 -131 -24 -33 -13 -55 -14 -106 -7 -36 5 -78 14 -93 20 -16 6 -98
10 -191 9 l-162 -1 -56 31 c-30 17 -82 38 -115 47 -54 13 -66 13 -119 -1 -33
-8 -93 -15 -133 -15 -96 0 -159 -29 -244 -110 -84 -82 -139 -193 -160 -327
-20 -130 13 -249 66 -236 14 4 29 -4 49 -26 16 -17 35 -31 43 -31 7 0 23 -18
35 -39 13 -22 40 -54 61 -70 86 -68 50 -151 -96 -225 -60 -30 -64 -44 -33
-106 11 -22 20 -46 20 -53 0 -8 7 -27 15 -43 8 -16 12 -37 9 -49 -2 -11 5 -69
16 -129 11 -61 20 -116 20 -123 0 -30 -214 -233 -393 -373 -186 -145 -464
-301 -887 -498 -168 -78 -471 -202 -494 -202 -8 0 -30 -6 -48 -14 -18 -8 -51
-21 -73 -29 -57 -21 -97 -36 -305 -116 -102 -40 -210 -81 -240 -92 -30 -11
-73 -27 -95 -36 -22 -8 -53 -21 -68 -29 -16 -8 -35 -14 -42 -14 -13 0 -66 -20
-107 -41 -10 -5 -48 -19 -85 -30 -81 -26 -189 -66 -334 -126 -59 -23 -112 -43
-120 -43 -7 0 -43 -14 -81 -32 -60 -27 -71 -29 -83 -17 -11 10 -17 65 -25 211
-5 108 -14 208 -20 223 -17 45 -34 24 -42 -51 -4 -38 -11 -94 -17 -124 -6 -30
-12 -100 -15 -155 -9 -172 -1 -161 -189 -256 -210 -106 -368 -189 -387 -204
-8 -6 -44 -26 -80 -45 -36 -18 -96 -53 -133 -77 -37 -23 -69 -43 -71 -43 -7 0
-180 -110 -196 -125 -8 -7 -54 -40 -101 -72 -174 -117 -391 -300 -617 -517
-300 -290 -635 -795 -726 -1093 -75 -245 -78 -265 -79 -513 l-1 -225 36 -95
c20 -52 48 -116 62 -141 61 -108 231 -260 336 -300 44 -17 71 -20 130 -17 119
7 207 61 261 159 32 60 32 174 0 237 -18 35 -25 41 -36 32 -10 -8 -11 -19 -4
-43 29 -103 -20 -203 -122 -247 -44 -18 -66 -21 -139 -18 -76 3 -92 7 -127 31
-58 40 -126 130 -157 208 -24 60 -26 78 -26 205 0 248 50 429 206 749 83 172
124 236 299 475 131 178 342 419 545 620 102 102 212 205 245 230 33 24 101
77 150 116 191 151 375 268 570 363 61 30 145 71 188 93 93 46 130 48 135 5 4
-37 -9 -51 -143 -153 -60 -46 -128 -98 -150 -116 -79 -65 -281 -234 -332 -278
-90 -79 -144 -124 -198 -165 -156 -120 -399 -355 -484 -470 -123 -165 -229
-345 -247 -420 -4 -16 -11 -35 -16 -41 -51 -66 -87 -518 -57 -716 37 -246 151
-430 354 -573 87 -61 497 -268 601 -303 138 -47 371 -65 486 -38 106 25 252
145 344 282 110 163 135 449 50 569 -59 83 -76 90 -202 90 l-111 0 -56 -37
c-88 -59 -167 -180 -167 -258 0 -36 73 -115 114 -126 62 -15 80 36 22 60 -64
26 -76 97 -27 147 54 53 133 34 172 -42 44 -87 11 -182 -101 -298 -128 -131
-208 -162 -435 -168 -188 -6 -260 7 -351 61 -91 53 -138 108 -185 216 -58 134
-68 175 -80 345 -16 231 6 480 57 626 14 41 28 87 31 103 3 16 45 106 92 200
87 173 140 250 332 486 76 94 276 301 397 412 76 70 285 228 301 228 17 0 31
-43 42 -134 10 -87 19 -136 50 -286 49 -230 122 -464 232 -740 55 -139 238
-498 298 -587 16 -23 29 -44 29 -48 0 -3 21 -36 47 -73 26 -37 72 -103 102
-147 71 -104 185 -247 286 -360 88 -99 308 -318 369 -368 21 -18 69 -57 105
-87 36 -31 100 -81 142 -113 42 -32 85 -67 97 -80 11 -12 52 -95 91 -185 69
-158 184 -396 231 -477 147 -254 239 -505 334 -905 19 -80 44 -183 55 -230 47
-189 61 -276 61 -385 0 -65 6 -133 15 -165 19 -72 19 -215 0 -270 -8 -23 -15
-54 -15 -69 0 -15 -11 -58 -24 -96 -38 -115 -97 -278 -111 -310 -7 -16 -16
-46 -20 -65 -4 -19 -18 -60 -32 -90 -14 -33 -23 -69 -21 -89 3 -32 7 -36 40
-44 28 -7 46 -4 80 11 143 64 457 370 515 501 8 20 19 84 24 143 10 131 18
148 65 148 56 0 86 22 168 122 45 56 53 99 37 193 -14 81 -58 171 -110 228
-60 66 -101 128 -101 153 0 12 -16 44 -36 70 -41 53 -50 77 -59 154 -3 30 -17
96 -30 145 -40 151 -79 446 -80 595 0 103 1 103 106 34 272 -178 498 -354 738
-574 188 -172 225 -242 291 -540 34 -149 44 -296 31 -449 -14 -170 -14 -394
-1 -442 25 -91 99 -113 182 -56 106 73 176 194 249 427 43 138 48 156 54 200
9 64 24 98 46 105 11 4 48 3 84 0 60 -7 65 -6 88 19 32 34 86 143 93 187 7 39
-16 105 -89 259 -32 70 -54 99 -119 163 -44 43 -99 90 -122 105 -107 68 -392
339 -602 572 -32 36 -71 78 -86 93 -17 17 -25 34 -21 44 5 13 17 15 77 9 154
-15 534 -24 631 -15 55 5 154 13 220 19 151 12 270 27 315 40 19 5 84 19 143
30 59 11 116 24 127 30 10 5 29 10 41 10 57 0 559 171 684 233 17 9 83 40 147
71 65 31 141 70 170 87 29 17 82 47 118 67 129 70 387 249 514 357 89 74 136
108 142 103 2 -3 -8 -39 -24 -79 -81 -207 -65 -371 49 -494 92 -100 201 -135
419 -135 80 0 161 5 180 10 19 6 87 24 150 41 108 28 267 89 300 114 8 6 33
19 55 29 22 10 59 31 83 47 24 16 45 29 48 29 29 0 215 191 307 315 94 126
114 158 168 275 21 47 46 98 54 113 8 16 15 34 15 42 0 7 12 39 26 71 36 81
52 130 84 259 59 237 47 609 -31 925 -6 25 -17 72 -24 105 -48 216 -216 633
-355 880 -9 17 -31 55 -49 86 l-32 57 10 88 c24 209 33 509 21 680 -16 248
-27 351 -49 466 -11 57 -27 146 -36 198 -9 52 -23 115 -31 140 -8 25 -23 83
-34 130 -12 47 -31 114 -44 150 -12 36 -33 94 -45 130 -52 148 -80 217 -105
260 -14 25 -26 52 -27 60 0 13 -23 60 -129 266 -83 161 -242 411 -366 574
-195 256 -519 590 -726 748 -24 18 -86 66 -138 106 -82 63 -172 124 -310 211
-181 114 -461 253 -666 330 -38 15 -105 40 -149 57 -80 30 -121 43 -245 78
-36 10 -90 25 -120 34 -30 10 -77 21 -105 25 -27 5 -70 13 -95 19 -25 6 -67
16 -95 22 -51 11 -230 33 -370 45 -44 4 -99 13 -123 21 -57 19 -490 19 -542 0z
m-573 -1363 c-3 -10 -5 -2 -5 17 0 19 2 27 5 18 2 -10 2 -26 0 -35z m1890
-550 c68 -147 149 -311 184 -373 17 -30 47 -84 66 -120 73 -134 245 -409 325
-521 215 -300 401 -514 705 -815 l274 -271 -6 -64 c-7 -69 -29 -197 -47 -269
-6 -25 -14 -63 -18 -85 -8 -44 -32 -130 -51 -185 -6 -19 -17 -51 -24 -70 -23
-68 -57 -165 -70 -201 -8 -19 -44 -98 -80 -175 -57 -118 -88 -176 -170 -316
-127 -218 -287 -420 -505 -639 -139 -139 -311 -289 -333 -289 -15 0 -67 107
-67 138 0 35 40 121 59 126 9 3 35 10 59 16 63 16 57 39 -47 204 -49 78 -93
153 -96 168 -11 42 54 152 168 288 31 36 34 62 11 81 -17 14 -69 35 -119 48
-38 10 -98 40 -107 55 -4 6 -8 58 -8 116 0 58 -7 132 -15 165 -28 117 -13 221
46 318 29 47 38 87 20 87 -39 0 -203 -98 -313 -186 -69 -55 -84 -62 -90 -43
-8 24 52 268 98 394 45 127 73 247 80 355 4 47 10 92 15 101 8 16 78 31 219
47 57 6 65 10 68 29 2 13 -17 60 -46 110 -80 143 -202 408 -202 439 0 8 -21
55 -47 105 -57 109 -140 203 -256 290 -63 46 -95 80 -141 146 -46 67 -67 88
-101 103 -30 13 -49 31 -68 63 -15 25 -27 50 -27 56 0 5 21 11 48 13 l47 3 18
55 c17 52 22 58 86 94 135 76 263 233 352 429 18 42 40 77 47 77 7 0 34 -44
59 -97z m-1287 -579 c71 -31 110 -70 149 -149 43 -84 41 -103 -20 -172 -29
-32 -66 -79 -83 -104 -17 -26 -65 -91 -107 -145 -42 -55 -88 -119 -104 -143
-34 -55 -114 -141 -130 -141 -7 0 -30 13 -51 28 -92 67 -117 63 -129 -15 -13
-97 -25 -119 -79 -158 -63 -44 -176 -109 -366 -207 -80 -41 -161 -85 -180 -97
-55 -33 -108 -58 -197 -90 -136 -51 -214 -93 -268 -144 -21 -20 -98 -57 -119
-57 -6 0 -113 -50 -236 -110 -124 -61 -238 -117 -255 -125 -43 -20 -264 -105
-274 -105 -5 0 -40 -14 -78 -31 -101 -46 -249 -107 -328 -135 -38 -14 -90 -34
-115 -46 -25 -11 -58 -24 -75 -29 -55 -14 -99 -33 -145 -63 -56 -37 -250 -234
-322 -327 -69 -89 -81 -88 -131 11 -50 99 -157 393 -159 434 -2 44 1 47 79 95
38 23 75 46 83 51 30 19 172 100 175 100 2 0 26 13 52 28 49 29 352 187 478
250 69 34 246 109 375 158 36 14 89 36 118 49 29 14 58 25 65 25 6 0 37 12 67
26 30 14 75 33 100 41 25 8 72 28 105 43 33 16 85 37 115 48 133 49 268 107
386 163 45 21 84 39 87 39 14 0 457 260 591 348 200 129 401 310 635 571 47
51 98 100 115 107 41 19 103 11 176 -22z m-402 -1623 c7 -4 23 -39 36 -77 28
-83 46 -91 96 -39 18 19 39 35 46 35 22 0 143 -185 189 -290 29 -64 28 -219
-2 -272 -53 -96 -100 -151 -173 -202 -100 -70 -112 -76 -275 -131 -170 -56
-244 -85 -355 -138 -73 -34 -95 -40 -150 -40 -36 0 -76 5 -88 12 -12 6 -48 16
-79 22 -32 6 -87 19 -123 29 -36 11 -110 26 -165 35 -268 41 -499 82 -570 101
-53 14 -183 30 -350 44 -55 4 -131 13 -169 20 -71 13 -117 10 -249 -14 -76
-14 -117 -12 -117 5 0 4 15 13 33 18 17 6 77 27 132 46 55 20 180 63 278 95
97 33 192 66 210 73 17 8 79 29 137 47 58 18 119 39 135 46 17 7 53 19 80 28
130 39 259 88 356 136 79 38 125 54 180 62 136 18 260 61 354 122 52 34 76 44
215 97 47 17 116 45 154 60 38 16 76 29 85 29 9 0 39 11 66 25 55 27 64 29 83
16z m-3158 -21 c0 -6 -7 -13 -15 -15 -26 -8 -39 -15 -70 -33 -16 -10 -61 -36
-100 -56 -38 -21 -77 -45 -86 -52 -23 -20 -49 -17 -49 6 0 19 63 70 87 70 6 0
24 6 40 14 57 29 169 74 186 75 4 1 7 -4 7 -9z m7801 -1817 c5 -16 21 -50 35
-77 13 -28 24 -57 24 -66 0 -9 12 -45 26 -81 15 -35 30 -82 34 -104 9 -48 27
-121 46 -191 8 -28 14 -63 14 -78 0 -15 6 -64 14 -109 32 -183 38 -277 22
-398 -15 -112 -27 -159 -53 -209 -7 -14 -13 -30 -13 -36 0 -11 -56 -120 -90
-176 -34 -56 -186 -233 -232 -269 -58 -45 -211 -121 -293 -143 -33 -10 -81
-24 -106 -32 -118 -36 -246 6 -347 115 -45 48 -56 71 -82 171 -21 82 -21 87
-5 145 26 91 53 143 105 197 63 65 88 65 152 -2 55 -57 60 -87 29 -155 -38
-84 -81 -87 -81 -5 0 58 -18 74 -50 45 -15 -13 -20 -31 -20 -68 0 -42 5 -54
34 -83 19 -19 44 -34 55 -34 53 0 133 67 168 140 23 49 22 173 -1 220 -23 44
-63 88 -98 106 -16 8 -28 23 -28 33 0 10 27 52 60 92 115 142 289 396 414 603
27 45 159 311 187 376 43 104 62 120 80 73z m-5925 -462 c9 -9 137 -61 254
-103 30 -11 60 -23 65 -28 6 -4 62 -26 125 -48 63 -22 178 -63 255 -90 77 -28
169 -60 205 -71 126 -39 173 -61 243 -112 39 -28 99 -64 133 -79 74 -33 84
-47 49 -60 -53 -20 -571 -5 -648 19 -17 5 -81 18 -142 27 -60 10 -121 24 -135
33 -45 28 -246 209 -334 302 -92 97 -110 124 -121 182 -7 34 -6 37 17 37 13 0
28 -4 34 -9z"/>
</g>
</svg>
