  0
SECTION
  2
HEADER
  9
$ACADVER
  1
AC1009
  9
$FILLMODE
 70
 0
  9
$SPLFRAME
 70
 1
  9
$EXTMIN
 10
0
 20
0
 30
0.0
  9
$EXTMAX
 10
41.6667
 20
41.6667
 30
0.0
  0
ENDSEC
  0
SECTION
  2
TABLES
  0
TABLE
  2
LAYER
 70
1
  0
LAYER
  2
0
 70
     0
 62
     7
  6
CONTINUOUS
  0
ENDTAB
  0
ENDSEC
  0
SECTION
  2
ENTITIES
  0
POLYLINE
  8
0
 62
     88
 66
     1
 10
0
 20
0
 30
0.0
 70
     1
 40
0
 41
0
  0
VERTEX
  8
0
 10
2.39318
 20
7.03569
 30
0.0
 40
0
 41
0
  0
VERTEX
  8
0
 10
2.39318
 20
7.03569
 30
0.0
 40
0
 41
0
  0
VERTEX
  8
0
 10
2.42301
 20
7.03575
 30
0.0
 40
0
 41
0
  0
VERTEX
  8
0
 10
2.50743
 20
7.03592
 30
0.0
 40
0
 41
0
  0
VERTEX
  8
0
 10
2.63861
 20
7.03614
 30
0.0
 40
0
 41
0
  0
VERTEX
  8
0
 10
2.80875
 20
7.03646
 30
0.0
 40
0
 41
0
  0
VERTEX
  8
0
 10
3.01004
 20
7.03678
 30
0.0
 40
0
 41
0
  0
VERTEX
  8
0
 10
3.23475
 20
7.03717
 30
0.0
 40
0
 41
0
  0
VERTEX
  8
0
 10
3.47499
 20
7.0376
 30
0.0
 40
0
 41
0
  0
VERTEX
  8
0
 10
3.7231
 20
7.03803
 30
0.0
 40
0
 41
0
  0
VERTEX
  8
0
 10
3.97114
 20
7.03847
 30
0.0
 40
0
 41
0
  0
VERTEX
  8
0
 10
4.21143
 20
7.0389
 30
0.0
 40
0
 41
0
  0
VERTEX
  8
0
 10
4.43608
 20
7.03928
 30
0.0
 40
0
 41
0
  0
VERTEX
  8
0
 10
4.63743
 20
7.03965
 30
0.0
 40
0
 41
0
  0
VERTEX
  8
0
 10
4.80757
 20
7.03993
 30
0.0
 40
0
 41
0
  0
VERTEX
  8
0
 10
4.93875
 20
7.04021
 30
0.0
 40
0
 41
0
  0
VERTEX
  8
0
 10
5.02317
 20
7.04031
 30
0.0
 40
0
 41
0
  0
VERTEX
  8
0
 10
5.05306
 20
7.04036
 30
0.0
 40
0
 41
0
  0
VERTEX
  8
0
 10
5.05306
 20
7.04036
 30
0.0
 40
0
 41
0
  0
VERTEX
  8
0
 10
5.05306
 20
12.7415
 30
0.0
 40
0
 41
0
  0
VERTEX
  8
0
 10
5.05306
 20
12.7415
 30
0.0
 40
0
 41
0
  0
VERTEX
  8
0
 10
5.05339
 20
12.7491
 30
0.0
 40
0
 41
0
  0
VERTEX
  8
0
 10
5.05533
 20
12.7707
 30
0.0
 40
0
 41
0
  0
VERTEX
  8
0
 10
5.06039
 20
12.8041
 30
0.0
 40
0
 41
0
  0
VERTEX
  8
0
 10
5.06988
 20
12.8476
 30
0.0
 40
0
 41
0
  0
VERTEX
  8
0
 10
5.08529
 20
12.899
 30
0.0
 40
0
 41
0
  0
VERTEX
  8
0
 10
5.10796
 20
12.9563
 30
0.0
 40
0
 41
0
  0
VERTEX
  8
0
 10
5.13938
 20
13.0176
 30
0.0
 40
0
 41
0
  0
VERTEX
  8
0
 10
5.18093
 20
13.0809
 30
0.0
 40
0
 41
0
  0
VERTEX
  8
0
 10
5.234
 20
13.1443
 30
0.0
 40
0
 41
0
  0
VERTEX
  8
0
 10
5.30007
 20
13.2056
 30
0.0
 40
0
 41
0
  0
VERTEX
  8
0
 10
5.38053
 20
13.263
 30
0.0
 40
0
 41
0
  0
VERTEX
  8
0
 10
5.47678
 20
13.3143
 30
0.0
 40
0
 41
0
  0
VERTEX
  8
0
 10
5.59028
 20
13.3578
 30
0.0
 40
0
 41
0
  0
VERTEX
  8
0
 10
5.72239
 20
13.3913
 30
0.0
 40
0
 41
0
  0
VERTEX
  8
0
 10
5.87451
 20
13.4128
 30
0.0
 40
0
 41
0
  0
VERTEX
  8
0
 10
6.00472
 20
13.4204
 30
0.0
 40
0
 41
0
  0
VERTEX
  8
0
 10
6.04818
 20
13.4204
 30
0.0
 40
0
 41
0
  0
VERTEX
  8
0
 10
6.09196
 20
13.4204
 30
0.0
 40
0
 41
0
  0
VERTEX
  8
0
 10
6.22342
 20
13.4129
 30
0.0
 40
0
 41
0
  0
VERTEX
  8
0
 10
6.37701
 20
13.3917
 30
0.0
 40
0
 41
0
  0
VERTEX
  8
0
 10
6.51042
 20
13.3586
 30
0.0
 40
0
 41
0
  0
VERTEX
  8
0
 10
6.62494
 20
13.3158
 30
0.0
 40
0
 41
0
  0
VERTEX
  8
0
 10
6.72211
 20
13.2651
 30
0.0
 40
0
 41
0
  0
VERTEX
  8
0
 10
6.80328
 20
13.2086
 30
0.0
 40
0
 41
0
  0
VERTEX
  8
0
 10
6.86996
 20
13.1481
 30
0.0
 40
0
 41
0
  0
VERTEX
  8
0
 10
6.92356
 20
13.0856
 30
0.0
 40
0
 41
0
  0
VERTEX
  8
0
 10
6.9655
 20
13.0232
 30
0.0
 40
0
 41
0
  0
VERTEX
  8
0
 10
6.99718
 20
12.9627
 30
0.0
 40
0
 41
0
  0
VERTEX
  8
0
 10
7.02007
 20
12.9061
 30
0.0
 40
0
 41
0
  0
VERTEX
  8
0
 10
7.0356
 20
12.8554
 30
0.0
 40
0
 41
0
  0
VERTEX
  8
0
 10
7.04519
 20
12.8126
 30
0.0
 40
0
 41
0
  0
VERTEX
  8
0
 10
7.05024
 20
12.7796
 30
0.0
 40
0
 41
0
  0
VERTEX
  8
0
 10
7.05225
 20
12.7583
 30
0.0
 40
0
 41
0
  0
VERTEX
  8
0
 10
7.05263
 20
12.7508
 30
0.0
 40
0
 41
0
  0
VERTEX
  8
0
 10
7.05263
 20
12.7508
 30
0.0
 40
0
 41
0
  0
VERTEX
  8
0
 10
7.05263
 20
7.02175
 30
0.0
 40
0
 41
0
  0
VERTEX
  8
0
 10
7.05263
 20
7.02175
 30
0.0
 40
0
 41
0
  0
VERTEX
  8
0
 10
7.08132
 20
7.02165
 30
0.0
 40
0
 41
0
  0
VERTEX
  8
0
 10
7.16342
 20
7.02115
 30
0.0
 40
0
 41
0
  0
VERTEX
  8
0
 10
7.29258
 20
7.02051
 30
0.0
 40
0
 41
0
  0
VERTEX
  8
0
 10
7.46263
 20
7.01964
 30
0.0
 40
0
 41
0
  0
VERTEX
  8
0
 10
7.66738
 20
7.01867
 30
0.0
 40
0
 41
0
  0
VERTEX
  8
0
 10
7.90056
 20
7.01758
 30
0.0
 40
0
 41
0
  0
VERTEX
  8
0
 10
8.15597
 20
7.01644
 30
0.0
 40
0
 41
0
  0
VERTEX
  8
0
 10
8.4274
 20
7.01531
 30
0.0
 40
0
 41
0
  0
VERTEX
  8
0
 10
8.70861
 20
7.01426
 30
0.0
 40
0
 41
0
  0
VERTEX
  8
0
 10
8.99338
 20
7.01329
 30
0.0
 40
0
 41
0
  0
VERTEX
  8
0
 10
9.2755
 20
7.01247
 30
0.0
 40
0
 41
0
  0
VERTEX
  8
0
 10
9.54872
 20
7.01188
 30
0.0
 40
0
 41
0
  0
VERTEX
  8
0
 10
9.80692
 20
7.01156
 30
0.0
 40
0
 41
0
  0
VERTEX
  8
0
 10
10.0437
 20
7.0115
 30
0.0
 40
0
 41
0
  0
VERTEX
  8
0
 10
10.253
 20
7.01183
 30
0.0
 40
0
 41
0
  0
VERTEX
  8
0
 10
10.3848
 20
7.01226
 30
0.0
 40
0
 41
0
  0
VERTEX
  8
0
 10
10.4287
 20
7.01247
 30
0.0
 40
0
 41
0
  0
VERTEX
  8
0
 10
10.4455
 20
7.01258
 30
0.0
 40
0
 41
0
  0
VERTEX
  8
0
 10
10.4962
 20
7.01303
 30
0.0
 40
0
 41
0
  0
VERTEX
  8
0
 10
10.5692
 20
7.01269
 30
0.0
 40
0
 41
0
  0
VERTEX
  8
0
 10
10.6464
 20
7.01004
 30
0.0
 40
0
 41
0
  0
VERTEX
  8
0
 10
10.7262
 20
7.00342
 30
0.0
 40
0
 41
0
  0
VERTEX
  8
0
 10
10.8074
 20
6.99132
 30
0.0
 40
0
 41
0
  0
VERTEX
  8
0
 10
10.8886
 20
6.97217
 30
0.0
 40
0
 41
0
  0
VERTEX
  8
0
 10
10.9685
 20
6.94433
 30
0.0
 40
0
 41
0
  0
VERTEX
  8
0
 10
11.0458
 20
6.90625
 30
0.0
 40
0
 41
0
  0
VERTEX
  8
0
 10
11.119
 20
6.85644
 30
0.0
 40
0
 41
0
  0
VERTEX
  8
0
 10
11.1868
 20
6.79318
 30
0.0
 40
0
 41
0
  0
VERTEX
  8
0
 10
11.2479
 20
6.71506
 30
0.0
 40
0
 41
0
  0
VERTEX
  8
0
 10
11.3009
 20
6.62039
 30
0.0
 40
0
 41
0
  0
VERTEX
  8
0
 10
11.3445
 20
6.50765
 30
0.0
 40
0
 41
0
  0
VERTEX
  8
0
 10
11.3773
 20
6.37528
 30
0.0
 40
0
 41
0
  0
VERTEX
  8
0
 10
11.398
 20
6.22168
 30
0.0
 40
0
 41
0
  0
VERTEX
  8
0
 10
11.4052
 20
6.08936
 30
0.0
 40
0
 41
0
  0
VERTEX
  8
0
 10
11.4052
 20
6.04525
 30
0.0
 40
0
 41
0
  0
VERTEX
  8
0
 10
11.4052
 20
5.99675
 30
0.0
 40
0
 41
0
  0
VERTEX
  8
0
 10
11.3989
 20
5.85124
 30
0.0
 40
0
 41
0
  0
VERTEX
  8
0
 10
11.3806
 20
5.68321
 30
0.0
 40
0
 41
0
  0
VERTEX
  8
0
 10
11.3514
 20
5.53944
 30
0.0
 40
0
 41
0
  0
VERTEX
  8
0
 10
11.3122
 20
5.41797
 30
0.0
 40
0
 41
0
  0
VERTEX
  8
0
 10
11.2639
 20
5.31694
 30
0.0
 40
0
 41
0
  0
VERTEX
  8
0
 10
11.2076
 20
5.23449
 30
0.0
 40
0
 41
0
  0
VERTEX
  8
0
 10
11.1443
 20
5.16878
 30
0.0
 40
0
 41
0
  0
VERTEX
  8
0
 10
11.0749
 20
5.11794
 30
0.0
 40
0
 41
0
  0
VERTEX
  8
0
 10
11.0005
 20
5.08008
 30
0.0
 40
0
 41
0
  0
VERTEX
  8
0
 10
10.9219
 20
5.05339
 30
0.0
 40
0
 41
0
  0
VERTEX
  8
0
 10
10.8402
 20
5.03592
 30
0.0
 40
0
 41
0
  0
VERTEX
  8
0
 10
10.7564
 20
5.02588
 30
0.0
 40
0
 41
0
  0
VERTEX
  8
0
 10
10.6714
 20
5.02132
 30
0.0
 40
0
 41
0
  0
VERTEX
  8
0
 10
10.5863
 20
5.02046
 30
0.0
 40
0
 41
0
  0
VERTEX
  8
0
 10
10.5019
 20
5.02138
 30
0.0
 40
0
 41
0
  0
VERTEX
  8
0
 10
10.44
 20
5.02219
 30
0.0
 40
0
 41
0
  0
VERTEX
  8
0
 10
10.4194
 20
5.02219
 30
0.0
 40
0
 41
0
  0
VERTEX
  8
0
 10
10.3753
 20
5.02229
 30
0.0
 40
0
 41
0
  0
VERTEX
  8
0
 10
10.2433
 20
5.02263
 30
0.0
 40
0
 41
0
  0
VERTEX
  8
0
 10
10.0341
 20
5.02317
 30
0.0
 40
0
 41
0
  0
VERTEX
  8
0
 10
9.79785
 20
5.02382
 30
0.0
 40
0
 41
0
  0
VERTEX
  8
0
 10
9.54064
 20
5.02447
 30
0.0
 40
0
 41
0
  0
VERTEX
  8
0
 10
9.26872
 20
5.02522
 30
0.0
 40
0
 41
0
  0
VERTEX
  8
0
 10
8.98817
 20
5.02599
 30
0.0
 40
0
 41
0
  0
VERTEX
  8
0
 10
8.70518
 20
5.02681
 30
0.0
 40
0
 41
0
  0
VERTEX
  8
0
 10
8.42589
 20
5.02756
 30
0.0
 40
0
 41
0
  0
VERTEX
  8
0
 10
8.15642
 20
5.02838
 30
0.0
 40
0
 41
0
  0
VERTEX
  8
0
 10
7.90294
 20
5.02908
 30
0.0
 40
0
 41
0
  0
VERTEX
  8
0
 10
7.67156
 20
5.02974
 30
0.0
 40
0
 41
0
  0
VERTEX
  8
0
 10
7.46847
 20
5.03033
 30
0.0
 40
0
 41
0
  0
VERTEX
  8
0
 10
7.29986
 20
5.03082
 30
0.0
 40
0
 41
0
  0
VERTEX
  8
0
 10
7.17176
 20
5.03119
 30
0.0
 40
0
 41
0
  0
VERTEX
  8
0
 10
7.09044
 20
5.03142
 30
0.0
 40
0
 41
0
  0
VERTEX
  8
0
 10
7.06196
 20
5.03147
 30
0.0
 40
0
 41
0
  0
VERTEX
  8
0
 10
7.06196
 20
5.03147
 30
0.0
 40
0
 41
0
  0
VERTEX
  8
0
 10
7.04335
 20
0.706814
 30
0.0
 40
0
 41
0
  0
VERTEX
  8
0
 10
7.04335
 20
0.706814
 30
0.0
 40
0
 41
0
  0
VERTEX
  8
0
 10
7.04318
 20
0.698893
 30
0.0
 40
0
 41
0
  0
VERTEX
  8
0
 10
7.04178
 20
0.676486
 30
0.0
 40
0
 41
0
  0
VERTEX
  8
0
 10
7.03754
 20
0.641601
 30
0.0
 40
0
 41
0
  0
VERTEX
  8
0
 10
7.02908
 20
0.596408
 30
0.0
 40
0
 41
0
  0
VERTEX
  8
0
 10
7.01481
 20
0.542914
 30
0.0
 40
0
 41
0
  0
VERTEX
  8
0
 10
6.99328
 20
0.483182
 30
0.0
 40
0
 41
0
  0
VERTEX
  8
0
 10
6.963
 20
0.419379
 30
0.0
 40
0
 41
0
  0
VERTEX
  8
0
 10
6.92242
 20
0.353407
 30
0.0
 40
0
 41
0
  0
VERTEX
  8
0
 10
6.87007
 20
0.287489
 30
0.0
 40
0
 41
0
  0
VERTEX
  8
0
 10
6.80447
 20
0.223687
 30
0.0
 40
0
 41
0
  0
VERTEX
  8
0
 10
6.72407
 20
0.163954
 30
0.0
 40
0
 41
0
  0
VERTEX
  8
0
 10
6.62744
 20
0.11046
 30
0.0
 40
0
 41
0
  0
VERTEX
  8
0
 10
6.51303
 20
0.0652669
 30
0.0
 40
0
 41
0
  0
VERTEX
  8
0
 10
6.37935
 20
0.0303819
 30
0.0
 40
0
 41
0
  0
VERTEX
  8
0
 10
6.22488
 20
0.00797526
 30
0.0
 40
0
 41
0
  0
VERTEX
  8
0
 10
6.09239
 20
0
 30
0.0
 40
0
 41
0
  0
VERTEX
  8
0
 10
6.04824
 20
0
 30
0.0
 40
0
 41
0
  0
VERTEX
  8
0
 10
6.00325
 20
0
 30
0.0
 40
0
 41
0
  0
VERTEX
  8
0
 10
5.86833
 20
0.00786675
 30
0.0
 40
0
 41
0
  0
VERTEX
  8
0
 10
5.71132
 20
0.0300022
 30
0.0
 40
0
 41
0
  0
VERTEX
  8
0
 10
5.57563
 20
0.0643989
 30
0.0
 40
0
 41
0
  0
VERTEX
  8
0
 10
5.45964
 20
0.108995
 30
0.0
 40
0
 41
0
  0
VERTEX
  8
0
 10
5.36193
 20
0.161783
 30
0.0
 40
0
 41
0
  0
VERTEX
  8
0
 10
5.28082
 20
0.220757
 30
0.0
 40
0
 41
0
  0
VERTEX
  8
0
 10
5.21479
 20
0.283746
 30
0.0
 40
0
 41
0
  0
VERTEX
  8
0
 10
5.16233
 20
0.348796
 30
0.0
 40
0
 41
0
  0
VERTEX
  8
0
 10
5.12185
 20
0.413846
 30
0.0
 40
0
 41
0
  0
VERTEX
  8
0
 10
5.09179
 20
0.476833
 30
0.0
 40
0
 41
0
  0
VERTEX
  8
0
 10
5.07064
 20
0.535807
 30
0.0
 40
0
 41
0
  0
VERTEX
  8
0
 10
5.05686
 20
0.588596
 30
0.0
 40
0
 41
0
  0
VERTEX
  8
0
 10
5.04878
 20
0.633192
 30
0.0
 40
0
 41
0
  0
VERTEX
  8
0
 10
5.04497
 20
0.667589
 30
0.0
 40
0
 41
0
  0
VERTEX
  8
0
 10
5.04378
 20
0.689725
 30
0.0
 40
0
 41
0
  0
VERTEX
  8
0
 10
5.04378
 20
0.697537
 30
0.0
 40
0
 41
0
  0
VERTEX
  8
0
 10
5.04378
 20
0.697537
 30
0.0
 40
0
 41
0
  0
VERTEX
  8
0
 10
5.05306
 20
5.03147
 30
0.0
 40
0
 41
0
  0
VERTEX
  8
0
 10
0.0123155
 20
5.02219
 30
0.0
 40
0
 41
0
  0
VERTEX
  8
0
 10
0.00906033
 20
5.08957
 30
0.0
 40
0
 41
0
  0
VERTEX
  8
0
 10
0.00260417
 20
5.29172
 30
0.0
 40
0
 41
0
  0
VERTEX
  8
0
 10
5.42535e-05
 20
5.54199
 30
0.0
 40
0
 41
0
  0
VERTEX
  8
0
 10
0.00423178
 20
5.7749
 30
0.0
 40
0
 41
0
  0
VERTEX
  8
0
 10
0.0147026
 20
5.99224
 30
0.0
 40
0
 41
0
  0
VERTEX
  8
0
 10
0.0310331
 20
6.19581
 30
0.0
 40
0
 41
0
  0
VERTEX
  8
0
 10
0.0527344
 20
6.38737
 30
0.0
 40
0
 41
0
  0
VERTEX
  8
0
 10
0.0793728
 20
6.56885
 30
0.0
 40
0
 41
0
  0
VERTEX
  8
0
 10
0.110514
 20
6.74197
 30
0.0
 40
0
 41
0
  0
VERTEX
  8
0
 10
0.145671
 20
6.90853
 30
0.0
 40
0
 41
0
  0
VERTEX
  8
0
 10
0.184462
 20
7.07042
 30
0.0
 40
0
 41
0
  0
VERTEX
  8
0
 10
0.2264
 20
7.22939
 30
0.0
 40
0
 41
0
  0
VERTEX
  8
0
 10
0.27105
 20
7.38726
 30
0.0
 40
0
 41
0
  0
VERTEX
  8
0
 10
0.317925
 20
7.54585
 30
0.0
 40
0
 41
0
  0
VERTEX
  8
0
 10
0.366644
 20
7.70697
 30
0.0
 40
0
 41
0
  0
VERTEX
  8
0
 10
0.416721
 20
7.87244
 30
0.0
 40
0
 41
0
  0
VERTEX
  8
0
 10
0.467719
 20
8.04406
 30
0.0
 40
0
 41
0
  0
VERTEX
  8
0
 10
0.519206
 20
8.22368
 30
0.0
 40
0
 41
0
  0
VERTEX
  8
0
 10
0.570692
 20
8.41303
 30
0.0
 40
0
 41
0
  0
VERTEX
  8
0
 10
0.621799
 20
8.61393
 30
0.0
 40
0
 41
0
  0
VERTEX
  8
0
 10
0.672038
 20
8.82829
 30
0.0
 40
0
 41
0
  0
VERTEX
  8
0
 10
0.720921
 20
9.05783
 30
0.0
 40
0
 41
0
  0
VERTEX
  8
0
 10
0.768067
 20
9.30436
 30
0.0
 40
0
 41
0
  0
VERTEX
  8
0
 10
0.813043
 20
9.56976
 30
0.0
 40
0
 41
0
  0
VERTEX
  8
0
 10
0.855306
 20
9.85579
 30
0.0
 40
0
 41
0
  0
VERTEX
  8
0
 10
0.894532
 20
10.1642
 30
0.0
 40
0
 41
0
  0
VERTEX
  8
0
 10
0.930176
 20
10.497
 30
0.0
 40
0
 41
0
  0
VERTEX
  8
0
 10
0.961806
 20
10.8557
 30
0.0
 40
0
 41
0
  0
VERTEX
  8
0
 10
0.98904
 20
11.2425
 30
0.0
 40
0
 41
0
  0
VERTEX
  8
0
 10
1.01139
 20
11.6588
 30
0.0
 40
0
 41
0
  0
VERTEX
  8
0
 10
1.02837
 20
12.1067
 30
0.0
 40
0
 41
0
  0
VERTEX
  8
0
 10
1.03961
 20
12.5879
 30
0.0
 40
0
 41
0
  0
VERTEX
  8
0
 10
1.04422
 20
12.9751
 30
0.0
 40
0
 41
0
  0
VERTEX
  8
0
 10
1.04465
 20
13.1042
 30
0.0
 40
0
 41
0
  0
VERTEX
  8
0
 10
1.04465
 20
13.1042
 30
0.0
 40
0
 41
0
  0
VERTEX
  8
0
 10
1.04443
 20
13.1116
 30
0.0
 40
0
 41
0
  0
VERTEX
  8
0
 10
1.04498
 20
13.1325
 30
0.0
 40
0
 41
0
  0
VERTEX
  8
0
 10
1.04774
 20
13.1652
 30
0.0
 40
0
 41
0
  0
VERTEX
  8
0
 10
1.05436
 20
13.2074
 30
0.0
 40
0
 41
0
  0
VERTEX
  8
0
 10
1.06635
 20
13.2573
 30
0.0
 40
0
 41
0
  0
VERTEX
  8
0
 10
1.08534
 20
13.3131
 30
0.0
 40
0
 41
0
  0
VERTEX
  8
0
 10
1.11279
 20
13.3728
 30
0.0
 40
0
 41
0
  0
VERTEX
  8
0
 10
1.15039
 20
13.4343
 30
0.0
 40
0
 41
0
  0
VERTEX
  8
0
 10
1.19965
 20
13.4959
 30
0.0
 40
0
 41
0
  0
VERTEX
  8
0
 10
1.2621
 20
13.5556
 30
0.0
 40
0
 41
0
  0
VERTEX
  8
0
 10
1.33941
 20
13.6114
 30
0.0
 40
0
 41
0
  0
VERTEX
  8
0
 10
1.433
 20
13.6613
 30
0.0
 40
0
 41
0
  0
VERTEX
  8
0
 10
1.54454
 20
13.7036
 30
0.0
 40
0
 41
0
  0
VERTEX
  8
0
 10
1.67562
 20
13.7362
 30
0.0
 40
0
 41
0
  0
VERTEX
  8
0
 10
1.82775
 20
13.7571
 30
0.0
 40
0
 41
0
  0
VERTEX
  8
0
 10
1.95876
 20
13.7645
 30
0.0
 40
0
 41
0
  0
VERTEX
  8
0
 10
2.0025
 20
13.7645
 30
0.0
 40
0
 41
0
  0
VERTEX
  8
0
 10
2.04611
 20
13.7645
 30
0.0
 40
0
 41
0
  0
VERTEX
  8
0
 10
2.17714
 20
13.7569
 30
0.0
 40
0
 41
0
  0
VERTEX
  8
0
 10
2.329
 20
13.7356
 30
0.0
 40
0
 41
0
  0
VERTEX
  8
0
 10
2.45958
 20
13.7023
 30
0.0
 40
0
 41
0
  0
VERTEX
  8
0
 10
2.57058
 20
13.6592
 30
0.0
 40
0
 41
0
  0
VERTEX
  8
0
 10
2.66351
 20
13.6082
 30
0.0
 40
0
 41
0
  0
VERTEX
  8
0
 10
2.74001
 20
13.5513
 30
0.0
 40
0
 41
0
  0
VERTEX
  8
0
 10
2.80165
 20
13.4905
 30
0.0
 40
0
 41
0
  0
VERTEX
  8
0
 10
2.85004
 20
13.4276
 30
0.0
 40
0
 41
0
  0
VERTEX
  8
0
 10
2.88678
 20
13.3648
 30
0.0
 40
0
 41
0
  0
VERTEX
  8
0
 10
2.91342
 20
13.3039
 30
0.0
 40
0
 41
0
  0
VERTEX
  8
0
 10
2.93158
 20
13.247
 30
0.0
 40
0
 41
0
  0
VERTEX
  8
0
 10
2.94293
 20
13.196
 30
0.0
 40
0
 41
0
  0
VERTEX
  8
0
 10
2.94894
 20
13.1529
 30
0.0
 40
0
 41
0
  0
VERTEX
  8
0
 10
2.95122
 20
13.1197
 30
0.0
 40
0
 41
0
  0
VERTEX
  8
0
 10
2.9515
 20
13.0983
 30
0.0
 40
0
 41
0
  0
VERTEX
  8
0
 10
2.95122
 20
13.0907
 30
0.0
 40
0
 41
0
  0
VERTEX
  8
0
 10
2.95122
 20
13.0907
 30
0.0
 40
0
 41
0
  0
VERTEX
  8
0
 10
2.94933
 20
12.9767
 30
0.0
 40
0
 41
0
  0
VERTEX
  8
0
 10
2.94249
 20
12.6346
 30
0.0
 40
0
 41
0
  0
VERTEX
  8
0
 10
2.93207
 20
12.2113
 30
0.0
 40
0
 41
0
  0
VERTEX
  8
0
 10
2.92008
 20
11.8193
 30
0.0
 40
0
 41
0
  0
VERTEX
  8
0
 10
2.90662
 20
11.457
 30
0.0
 40
0
 41
0
  0
VERTEX
  8
0
 10
2.89182
 20
11.1228
 30
0.0
 40
0
 41
0
  0
VERTEX
  8
0
 10
2.87582
 20
10.8152
 30
0.0
 40
0
 41
0
  0
VERTEX
  8
0
 10
2.85861
 20
10.5327
 30
0.0
 40
0
 41
0
  0
VERTEX
  8
0
 10
2.84044
 20
10.2735
 30
0.0
 40
0
 41
0
  0
VERTEX
  8
0
 10
2.8214
 20
10.0363
 30
0.0
 40
0
 41
0
  0
VERTEX
  8
0
 10
2.80154
 20
9.8195
 30
0.0
 40
0
 41
0
  0
VERTEX
  8
0
 10
2.78097
 20
9.62142
 30
0.0
 40
0
 41
0
  0
VERTEX
  8
0
 10
2.75993
 20
9.44054
 30
0.0
 40
0
 41
0
  0
VERTEX
  8
0
 10
2.73839
 20
9.27533
 30
0.0
 40
0
 41
0
  0
VERTEX
  8
0
 10
2.71647
 20
9.12424
 30
0.0
 40
0
 41
0
  0
VERTEX
  8
0
 10
2.69439
 20
8.98568
 30
0.0
 40
0
 41
0
  0
VERTEX
  8
0
 10
2.67219
 20
8.85807
 30
0.0
 40
0
 41
0
  0
VERTEX
  8
0
 10
2.64996
 20
8.7399
 30
0.0
 40
0
 41
0
  0
VERTEX
  8
0
 10
2.62788
 20
8.62961
 30
0.0
 40
0
 41
0
  0
VERTEX
  8
0
 10
2.60596
 20
8.52556
 30
0.0
 40
0
 41
0
  0
VERTEX
  8
0
 10
2.58442
 20
8.42626
 30
0.0
 40
0
 41
0
  0
VERTEX
  8
0
 10
2.56338
 20
8.33014
 30
0.0
 40
0
 41
0
  0
VERTEX
  8
0
 10
2.54281
 20
8.23563
 30
0.0
 40
0
 41
0
  0
VERTEX
  8
0
 10
2.52294
 20
8.14117
 30
0.0
 40
0
 41
0
  0
VERTEX
  8
0
 10
2.5039
 20
8.04519
 30
0.0
 40
0
 41
0
  0
VERTEX
  8
0
 10
2.48574
 20
7.94618
 30
0.0
 40
0
 41
0
  0
VERTEX
  8
0
 10
2.46853
 20
7.8425
 30
0.0
 40
0
 41
0
  0
VERTEX
  8
0
 10
2.45253
 20
7.73258
 30
0.0
 40
0
 41
0
  0
VERTEX
  8
0
 10
2.43772
 20
7.61496
 30
0.0
 40
0
 41
0
  0
VERTEX
  8
0
 10
2.42426
 20
7.48807
 30
0.0
 40
0
 41
0
  0
VERTEX
  8
0
 10
2.41228
 20
7.35021
 30
0.0
 40
0
 41
0
  0
VERTEX
  8
0
 10
2.40186
 20
7.19997
 30
0.0
 40
0
 41
0
  0
VERTEX
  8
0
 10
2.39501
 20
7.07676
 30
0.0
 40
0
 41
0
  0
VERTEX
  8
0
 10
2.39318
 20
7.03569
 30
0.0
 40
0
 41
0
  0
SEQEND
 8
0
  0
ENDSEC
  0
EOF
