<?xml version="1.0" encoding="utf-8"?>
<!-- Generator: Adobe Illustrator 25.0.1, SVG Export Plug-In . SVG Version: 6.00 Build 0)  -->
<svg version="1.1" id="Jupiter" xmlns="http://www.w3.org/2000/svg" xmlns:xlink="http://www.w3.org/1999/xlink" x="0px" y="0px"
	 viewBox="0 0 1280 1024" style="enable-background:new 0 0 1280 1024;" xml:space="preserve">
<style type="text/css">
	.st0{fill:#055105;}
</style>
<path id="Outline" class="st0" d="M429.1,501c0,0,191.5-0.3,191.5-0.3l0-410.5c0,0,0.7-48.9,71.6-48.9c71.7,0,72.3,48.2,72.3,48.2
	V502c0,0,182.9,1,243.1,0.7c24.7-0.1,70.3-2.7,70.3,69.6c0,79.8-39.8,73.7-71,73.7c-60.4-0.1-241.7-0.7-241.7-0.7l-1.3,311.4
	c0,0,0.7,50.9-71.6,50.9c-73.7,0-72.3-50.2-72.3-50.2l0.7-312l-362.9,0.7C247.4,431.1,330.7,474.5,332,64c0,0-2.7-47.5,69-47.5
	c71.7,0,68.3,48.5,68.3,48.5C463.3,428.3,435.2,369,429.1,501z"/>
</svg>
