<?xml version="1.0" encoding="UTF-8" standalone="no"?>
<!-- Created with Inkscape (http://www.inkscape.org/) -->

<svg
   xmlns:dc="http://purl.org/dc/elements/1.1/"
   xmlns:cc="http://creativecommons.org/ns#"
   xmlns:rdf="http://www.w3.org/1999/02/22-rdf-syntax-ns#"
   xmlns:svg="http://www.w3.org/2000/svg"
   xmlns="http://www.w3.org/2000/svg"
   xmlns:sodipodi="http://sodipodi.sourceforge.net/DTD/sodipodi-0.dtd"
   xmlns:inkscape="http://www.inkscape.org/namespaces/inkscape"
   id="svg2"
   version="1.1"
   inkscape:version="0.48.2 r9819"
   width="515.38892"
   height="767.60571"
   sodipodi:docname="11306750896_92e6afbae7_occ.png">
  <metadata
     id="metadata8">
    <rdf:RDF>
      <cc:Work
         rdf:about="">
        <dc:format>image/svg+xml</dc:format>
        <dc:type
           rdf:resource="http://purl.org/dc/dcmitype/StillImage" />
        <dc:title></dc:title>
      </cc:Work>
    </rdf:RDF>
  </metadata>
  <defs
     id="defs6" />
  <sodipodi:namedview
     pagecolor="#ffffff"
     bordercolor="#666666"
     borderopacity="1"
     objecttolerance="10"
     gridtolerance="10"
     guidetolerance="10"
     inkscape:pageopacity="0"
     inkscape:pageshadow="2"
     inkscape:window-width="1600"
     inkscape:window-height="876"
     id="namedview4"
     showgrid="false"
     fit-margin-top="0"
     fit-margin-left="0"
     fit-margin-right="0"
     fit-margin-bottom="0"
     inkscape:zoom="1"
     inkscape:cx="-198.56107"
     inkscape:cy="433.81489"
     inkscape:window-x="0"
     inkscape:window-y="24"
     inkscape:window-maximized="1"
     inkscape:current-layer="svg2" />
  <path
     style="fill:#000000"
     d="m 346.93893,767.28674 c -1.65,-0.17546 -4.95901,-0.97341 -7.35335,-1.77323 l -4.35335,-1.45421 -6.14665,-4.40415 c -3.38066,-2.42229 -7.94665,-6.2716 -10.14665,-8.55402 -2.2,-2.28242 -5.8,-5.36755 -8,-6.85584 l -4,-2.70599 -10.34431,-2.21584 -10.34431,-2.21583 -2.8806,-2.05117 -2.88059,-2.05116 -1.20186,-4.01146 -1.20186,-4.01145 1.82753,-7.18832 c 1.00514,-3.95358 2.66883,-8.87582 3.69709,-10.93832 l 1.86956,-3.75 1.45399,0 1.454,0 1.72779,-3.25 1.72779,-3.25 -0.23196,-23.5 -0.23196,-23.5 -0.90181,-10.5 c -0.49599,-5.775 -1.49506,-13.28123 -2.22015,-16.6805 l -1.31834,-6.18051 -4.5,4.03731 c -6.60334,5.92439 -8.13057,7.17518 -12,9.82789 -1.925,1.3197 -3.77294,2.79324 -4.10654,3.27453 -0.3336,0.48129 -1.74234,1.62798 -3.13053,2.54818 -1.38819,0.92021 -5.1576,3.42208 -8.37646,5.55973 -6.45588,4.28735 -9.44431,5.42701 -16.88647,6.43982 l -5,0.68045 0.0959,5.99655 c 0.0527,3.2981 0.66826,10.27155 1.36781,15.49655 l 1.27192,9.5 2.44325,4.5 c 1.34378,2.475 3.61052,6.94281 5.0372,9.92847 l 2.59396,5.42848 -1.40501,2.14817 c -0.77276,1.18149 -2.30502,3.57484 -3.40502,5.31855 l -2,3.17038 -3.36333,1.11793 -3.36333,1.11793 -6.13667,0.18398 -6.13667,0.18398 -7.12573,-1.1025 -7.12572,-1.1025 -2.87428,-1.90328 c -2.76307,-1.82965 -12.62128,-5.45507 -18.86868,-6.93908 -1.64692,-0.39122 -3.55942,-1.18022 -4.25,-1.75335 l -1.2556,-1.04205 0,-1.92721 c 0,-1.05997 0.70489,-3.29032 1.56642,-4.95634 l 1.56642,-3.02912 3.68358,-1.53105 3.68358,-1.53106 4.57611,-4.26759 c 2.51687,-2.34717 5.49828,-4.56027 6.62537,-4.91799 l 2.04926,-0.65041 1.203,-6.11472 1.203,-6.11472 -1.19153,-0.7364 -1.19152,-0.7364 1.0538,-0.37105 1.0538,-0.37105 -1.06231,-7.5 -1.06231,-7.5 -3.10745,-1.5 -3.10745,-1.5 -0.6712,-2.5 c -0.36917,-1.375 -0.71607,-5.46623 -0.77089,-9.09162 l -0.0997,-6.59161 -4.63902,-0.0701 -4.63902,-0.0701 -2.61098,-2.62085 -2.61098,-2.62085 0.17616,-26.30289 0.17617,-26.30289 1.15547,-6.37204 1.15547,-6.37204 1.43945,-2.7836 1.43946,-2.78359 -1.02026,-10.75888 -1.02025,-10.75888 0.0165,-17 0.0165,-17 1.11106,-9.5 1.11107,-9.5 0.12161,-17.90351 0.1216,-17.90352 -4.75113,-7.59648 c -2.61312,-4.17807 -5.53812,-8.83114 -6.5,-10.34017 l -1.74887,-2.74367 -2.19424,-0.006 -2.19423,-0.006 -2.61523,-2.25 -2.61523,-2.25 -0.0402,-4 c -0.0221,-2.2 0.0938,-4.45 0.25758,-5 0.41192,-1.38308 -0.78582,-5.15066 -3.39263,-10.6718 l -2.20579,-4.67181 -2.79428,-0.56205 -2.79428,-0.56205 -1.54821,-3.70539 c -0.85152,-2.03797 -2.03209,-6.01226 -2.62348,-8.83176 l -1.07527,-5.12636 4.16776,-5.64169 c 2.29223,-3.10364 4.16772,-6.04489 4.16772,-6.53683 0,-0.49194 2.025,-3.97755 4.5,-7.74581 2.475,-3.76825 4.5,-7.26508 4.5,-7.77071 l 0,-0.91934 1.42628,1.18371 c 0.78446,0.65104 2.24696,3.17946 3.25,5.6187 1.00305,2.43924 2.11816,4.43667 2.47804,4.43873 l 0.65432,0.004 -0.31907,-5.28709 c -0.17548,-2.9079 -0.60042,-6.8454 -0.94432,-8.75 l -0.62525,-3.46316 1.85995,-5.20631 1.85995,-5.20631 2.76149,-2.7615 2.76149,-2.76149 -0.54,-2.70001 -0.54001,-2.70002 1.95857,-2.48991 1.95856,-2.48991 0.0119,-5.84227 0.0118,-5.84227 4.45081,-4.62067 4.45082,-4.62068 -0.55432,-0.55432 -0.55433,-0.55432 0.97891,-1.74922 0.97892,-1.74922 -1.01314,-2.9063 -1.01314,-2.90629 1.30138,-2.43166 1.30139,-2.43167 -2.26312,-2.10841 -2.26312,-2.10842 -2.45943,1.12059 -2.45943,1.12059 -8.91776,0 -8.91776,0 -1.18054,-2.20586 -1.18054,-2.20585 -0.61528,-8.70091 -0.61528,-8.70091 -1.98937,-2.19421 -1.98936,-2.19421 -0.50072,-11.45669 -0.50072,-11.45669 -2.13224,-1.69234 c -1.17273,-0.93078 -2.63491,-2.67525 -3.24928,-3.87659 l -1.11705,-2.18426 0,-6.62906 0,-6.62906 -7.28403,-7.68668 c -8.19843,-8.65163 -11.71597,-13.29851 -11.71597,-15.47751 l 0,-1.48208 -4.25,-0.58664 -4.25,-0.58663 -20,0.87594 -20,0.87594 -2.30704,0.7287 -2.30704,0.7287 -4.70902,-4.88155 -4.70901,-4.88155 -5.20632,-3.33651 -5.20631,-3.33652 -2.82524,-3.21778 -2.82525,-3.21777 -1.29357,-3.44571 c -0.71147,-1.89514 -1.67677,-4.42282 -2.14512,-5.61707 l -0.85154,-2.17135 -2.05727,0.53798 c -2.29326,0.59971 -2.46217,1.12044 -1.07194,3.30473 l 0.95471,1.5 -2.12538,0.52274 -2.12538,0.52275 -1.09464,1.76925 -1.09464,1.76924 2.28922,1.7419 2.28922,1.74189 0.21078,4.46612 0.21078,4.46611 -2.25,0.31955 -2.25,0.31955 0.0351,1.18045 c 0.0731,2.4582 2.6675,13.32488 3.54675,14.85595 1.06647,1.85706 7.1152,6.9329 13.76847,11.55389 l 4.64965,3.22939 0,1.84028 0,1.84027 -2.5,2.17372 -2.5,2.17372 0,43.50662 0,43.50661 -1.70239,0 -1.7024,0 -3.35018,-3.25 -3.35019,-3.25 -13.80293,-0.32306 -13.80293,-0.32307 -1.64449,1.6445 -1.64449,1.64449 0,1.92857 0,1.92857 -2.02475,0 -2.02475,0 -0.87107,-2.2911 c -0.4791,-1.2601 -1.56419,-2.86633 -2.41133,-3.56939 l -1.54026,-1.2783 -1.96396,1.05108 -1.96396,1.05108 -0.59996,-1.56347 -0.59996,-1.56347 0,-42.43179 0,-42.43178 L 1.21945,198.12596 0,196.17331 l 2.96945,-3.12337 2.96945,-3.12337 6,-2.74687 6,-2.74686 3.25,-2.75244 3.25,-2.75244 0,-1.94322 c 0,-1.06878 0.63329,-3.45889 1.4073,-5.31137 l 1.4073,-3.36815 -2.4073,-2.09312 -2.4073,-2.09312 0,-2.10541 0,-2.1054 3,-2.80242 3,-2.80242 0,-1.53543 0,-1.53543 -3.17299,-0.31336 -3.17299,-0.31336 -0.33339,-1.01916 -0.3334,-1.01915 3.50638,-1.88832 c 3.74375,-2.01614 4.31965,-3.04731 2.16391,-3.87455 l -1.34248,-0.51516 -1.60904,-3.3908 -1.60904,-3.39079 -0.48086,-12.00143 -0.48086,-12.00143 0.70273,-1.13704 c 0.3865,-0.62538 1.97999,-1.62266 3.54107,-2.21618 l 2.83834,-1.07914 -1.17945,-1.42115 -1.17946,-1.42115 3.132,-1.61962 3.13199,-1.61962 3.26684,1.07816 3.26684,1.07815 3.71595,-1.55262 3.71595,-1.55262 1.12481,0.69517 c 0.61864,0.38234 3.72375,0.8046 6.90024,0.93834 3.17649,0.13375 6.3015,0.56831 6.94449,0.96569 0.64298,0.39739 2.06155,2.74016 3.15238,5.20616 l 1.98333,4.48365 -0.62744,4.18406 -0.62744,4.18406 2.28079,2.0435 2.2808,2.0435 5.84017,1.25164 5.84016,1.25164 6.65984,3.53496 6.65983,3.53497 8.39293,-0.64368 c 4.61611,-0.35403 9.48643,-0.91813 10.82292,-1.25357 l 2.43,-0.60989 0.88849,-2.33689 0.88848,-2.33689 5.28859,-2.66321 5.28859,-2.66321 0.8822,-1.52063 c 0.48521,-0.83634 2.06021,-2.81247 3.5,-4.39139 1.43979,-1.57892 4.4178,-5.1431 6.6178,-7.92041 l 4,-5.04964 5.75322,0.47331 5.75321,0.47331 0.74679,-1.17947 c 0.41073,-0.64871 1.96845,-1.95617 3.4616,-2.905465 l 2.71484,-1.72599 2.78519,0.0451 c 1.53185,0.0248 4.13518,0.63338 5.78518,1.35237 l 3,1.307265 2.4374,-0.898865 2.43739,-0.89886 6.81261,-7.10238 c 3.74693,-3.9063 6.8126,-7.260379 6.8126,-7.4535 0,-0.193122 -1.47942,-0.35113 -3.28759,-0.35113 l -3.28759,0 -4.71241,-4.784349 -4.71241,-4.784349 0,-3.72922 0,-3.72922 0.87417,-1.736431 c 0.48079,-0.955037 1.86048,-4.211431 3.06598,-7.236431 l 2.19182,-5.5 1.42984,-10.61346 1.42985,-10.613459 1.94822,-4.386541 1.94822,-4.38654 4.30595,-4.09611 c 5.54873,-5.278327 9.5067,-7.59264 21.50759,-12.5759601 l 9.79836,-4.068732 8.5,-0.959561 c 4.675,-0.527758 10.075,-0.934452 12,-0.903763 l 3.5,0.0558 5,2.405406 c 2.75,1.322974 6.62082,3.168801 8.60183,4.101839 l 3.60183,1.696432 1.63199,3.4223261 1.63199,3.422325 0.93673,0 0.93672,0 0.67375,3.06757 0.67375,3.067569 1.42752,0.547792 1.42753,0.547792 -0.23474,5.944028 -0.23475,5.944027 1.12114,0.692903 1.12114,0.692902 0.70149,3.739228 0.70148,3.739227 2.5029,-0.628188 2.5029,-0.628189 -1.68526,2.572034 -1.68526,2.572035 0.32266,2.782333 0.32266,2.782334 3.49801,2.349776 c 1.9239,1.292377 3.88625,3.043534 4.36078,3.891461 l 0.86277,1.541685 -1.11242,2.441498 -1.11242,2.441498 1.15536,4.58837 1.15537,4.58837 -1.22202,1.956765 -1.22202,1.956764 1.56829,1.732949 c 2.09712,2.317292 1.99671,3.29653 -0.93035,9.072805 l -2.49865,4.93085 -2.02998,1.08641 c -1.11649,0.59753 -4.26675,1.35132 -7.00059,1.67511 l -4.97061,0.58869 -1.65353,1.2091 -1.65354,1.20909 0.64781,1.048185 0.64782,1.04818 6.38222,1.11142 c 12.0964,2.1065 17.98942,4.58825 25.15971,10.59562 l 2.38716,2 5.61338,10.5 c 3.08737,5.775 6.11998,11.71306 6.73915,13.19568 l 1.12577,2.69568 4.05126,0.65377 c 2.2282,0.35958 5.85127,1.4437 8.05127,2.40915 l 4,1.75536 1.90499,2.14518 c 1.04774,1.17985 2.35271,2.14518 2.89993,2.14518 0.54722,0 3.36355,2.4849 6.25851,5.52199 l 5.26355,5.522 1.57517,4.62285 1.57516,4.62285 -0.50521,3.60516 c -0.27787,1.98283 -0.64287,5.18015 -0.8111,7.10515 l -0.30588,3.5 -2.17756,4.87712 c -1.19766,2.68241 -2.17756,5.2444 -2.17756,5.69329 0,0.4489 -0.94441,1.47767 -2.09869,2.28616 -1.96744,1.37805 -2.89856,2.77719 -6.69164,10.05517 l -1.51752,2.91173 -0.39608,5.02242 -0.39608,5.02241 -3.45,3.81873 -3.44999,3.81873 0,2.51182 0,2.51182 2.92898,1.78121 2.92897,1.78122 5.57103,7.76485 c 3.06406,4.27067 5.57102,8.13936 5.57102,8.59709 0,0.45774 0.675,1.09127 1.5,1.40786 l 1.5,0.5756 0,2.47237 0,2.47237 0.87084,0.5382 c 0.47896,0.29602 1.1357,1.78508 1.45942,3.30902 l 0.58858,2.77081 6.79058,10.50544 c 7.5705,11.71204 23.2609,31.8704 28.42763,36.52262 1.84962,1.66544 4.99107,4.02794 6.98098,5.25 l 3.61804,2.22194 3.01802,0 3.01803,0 1.65694,-3.49174 1.65694,-3.49174 2.4849,-0.62367 2.4849,-0.62367 4.68814,2.02937 4.68814,2.02937 2.53396,-1.35753 c 1.39368,-0.74664 3.99646,-2.75573 5.78396,-4.46465 l 3.25,-3.10711 0,-1.50833 0,-1.50833 0.95356,0.58933 0.95355,0.58933 7.54645,-7.54645 7.54644,-7.54644 0,-1.98387 0,-1.98387 1.43261,0 1.43261,0 0.63478,-2 c 0.34913,-1.1 0.98222,-2 1.40687,-2 0.42466,0 1.266,-1.08399 1.86965,-2.40886 0.60365,-1.32487 2.75544,-4.58081 4.78176,-7.23544 l 3.68422,-4.82658 2.44204,-5.51456 c 1.34312,-3.03301 3.56593,-7.65075 4.93957,-10.26164 l 2.49753,-4.74708 -0.54006,-0.87384 -0.54007,-0.87385 2.0026,-2.30901 2.0026,-2.30901 -0.36113,-1.07007 -0.36112,-1.07006 1.3798,-1.01732 1.3798,-1.01731 0.34395,-2.98269 c 0.18917,-1.64047 0.39526,-3.57174 0.45797,-4.2917 l 0.11402,-1.30901 0.87185,0.53883 0.87185,0.53883 1.62815,-4.26325 c 0.89548,-2.34478 1.62815,-4.9989 1.62815,-5.89803 0,-0.89912 0.27215,-2.34399 0.60478,-3.21082 l 0.60479,-1.57604 0.84469,0.52204 0.84469,0.52205 0.5953,-3.77779 c 0.94888,-6.02159 1.26224,-7.37601 3.41902,-14.77779 1.12183,-3.85 2.28385,-8.2375 2.58227,-9.75 l 0.54256,-2.75 1.50239,0 1.50239,0 1.07544,2.75 c 0.5915,1.5125 1.67595,4.1 2.4099,5.75 0.73395,1.65 1.6561,4.125 2.04921,5.5 0.39311,1.375 1.77401,4.17856 3.06866,6.23013 1.29465,2.05157 2.35391,4.4157 2.35391,5.25362 0,0.83793 0.9,3.2027 2,5.25507 1.1,2.05236 2,4.30073 2,4.99637 l 0,1.26481 0.975,0 0.975,0 -0.61935,3.25 c -0.34065,1.7875 -1.39172,4.825 -2.33571,6.75 l -1.71636,3.5 -0.56346,4.39412 -0.56347,4.39412 -0.98404,0.60817 -0.98404,0.60817 -0.66518,3.49771 c -0.36585,1.92374 -1.86966,5.81627 -3.34179,8.65006 -12.22191,23.52667 -14.7535,27.41562 -28.9266,44.43599 -3.9875,4.78856 -7.25,9.1772 -7.25,9.75253 l 0,1.04606 -3,1.77214 c -1.65,0.97468 -3,2.04149 -3,2.37069 0,0.32919 -2.925,2.80798 -6.5,5.5084 -3.575,2.70042 -6.5,5.25906 -6.5,5.68585 l 0,0.77599 1.5,0 1.5,0 2,2 2,2 0,1.49373 0,1.49373 -4.12547,2.98847 -4.12547,2.98847 -4.87453,0.64663 -4.87453,0.64663 0,3.47004 0,3.47004 -1.62659,3.42779 -1.6266,3.42779 -4.80122,2.06543 -4.80123,2.06544 -2.70818,3.9079 -2.70818,3.90791 -1.04828,0 c -0.57655,0 -2.9795,0.93489 -5.33989,2.07754 l -4.29161,2.07753 -4.00424,-2.25051 -4.00423,-2.2505 -1.76988,1.42297 -1.76987,1.42297 -2.5,-0.073 c -1.375,-0.0402 -4.65064,-0.69952 -7.27919,-1.46522 l -4.77919,-1.39216 -2.49341,-5.27064 -2.49342,-5.27065 0.65692,-2.76414 c 0.3613,-1.52028 1.2487,-3.44943 1.97201,-4.28699 l 1.3151,-1.52284 -0.9341,-1.47716 c -0.51375,-0.81244 -0.94099,-2.69692 -0.94941,-4.18773 l -0.0153,-2.71062 -1.25,-1.0373 c -0.6875,-0.57051 -4.59632,-3.57277 -8.68628,-6.67168 -4.08995,-3.09891 -8.58995,-6.73901 -10,-8.08911 -1.41004,-1.3501 -4.36372,-3.61359 -6.56372,-5.02996 -4.21584,-2.71419 -6.24165,-4.41451 -15.67081,-13.15302 l -5.82919,-5.40222 0,3.20188 0,3.20188 1.65368,3.20034 c 0.90952,1.76019 2.32827,3.69457 3.15277,4.29864 l 1.4991,1.09829 -0.66548,1.07677 -0.66548,1.07677 0.98103,2.32493 0.98104,2.32494 0.86337,13.399 0.86337,13.399 -1.40855,4.08836 -1.40856,4.08836 0.39383,5.51264 c 0.43763,6.1258 3.10312,20.56275 5.35659,29.01264 0.80673,3.025 1.85061,7.525 2.31974,10 0.46914,2.475 2.01547,9 3.43629,14.5 1.42082,5.5 3.27865,14.725 4.12851,20.5 0.84986,5.775 2.41528,14.1 3.4787,18.5 1.06343,4.4 2.39818,11.7391 2.96613,16.30911 l 1.03263,8.30912 1.89501,4.28399 c 1.04226,2.3562 3.86405,7.0158 6.27065,10.35467 6.16153,8.54839 9.83988,14.72818 13.23959,22.24311 l 2.94057,6.5 -0.14588,3.77063 -0.14587,3.77064 -2.60985,5.22936 -2.60985,5.22937 -3.48452,3.63226 -3.48453,3.63227 1.70641,6.36773 c 0.93852,3.50226 2.09838,8.66025 2.57746,11.4622 0.47908,2.80195 1.5181,6.92837 2.30893,9.16981 l 1.43787,4.07536 -0.5328,2.03743 -0.5328,2.03744 -3.14455,1.0101 c -3.20594,1.02981 -15.06797,3.8571 -28.7733,6.85805 l -7.62874,1.6704 -2.58031,15.02348 c -1.41917,8.26291 -4.61781,24.92347 -7.10809,37.02347 l -4.52777,22 0.0195,12 0.0195,12 1.93466,5.5 c 1.06409,3.025 1.9494,6.72381 1.96735,8.21958 l 0.0326,2.71959 1.84881,3.28041 c 3.92437,6.96318 8.59136,14.30826 9.47915,14.91862 l 0.92827,0.63819 -0.64264,1.03981 -0.64263,1.03981 2.01856,0.64066 2.01857,0.64067 1.35224,2.58086 1.35225,2.58085 6.39371,2.33388 6.39371,2.33388 3.5,0.0313 3.5,0.0313 2.5,1.29501 2.5,1.29501 -0.18225,2.64636 c -0.10024,1.45549 -0.91369,4.18774 -1.80767,6.07166 l -1.62542,3.42531 -3.94233,0.6304 -3.94233,0.63041 0,2.95299 0,2.953 -1.93426,1.03519 -1.93426,1.03518 -2.98241,0 -2.9824,0 -0.33334,0.75 -0.33333,0.75 -3,-0.31901 z m -335.5,-486.526 0,-1.34501 -1.93699,-1.75295 -1.93698,-1.75295 -1.06302,0.65698 c -1.41057,0.87178 -1.34799,2.85396 0.13699,4.33894 l 1.2,1.2 1.8,0 1.8,0 0,-1.34501 z m 40,-0.15499 0,-1.5 -16.44098,0 -16.44099,0 -0.53183,0.86052 -0.53183,0.86052 0.63948,0.63948 0.63948,0.63948 16.33334,0 16.33333,0 0,-1.5 z m -38.60699,-19.08179 0.60699,-1.58178 0,-21.98396 0,-21.98395 -1.03518,-1.93426 -1.03519,-1.93426 -1.94576,0 -1.94577,0 -0.61902,2.4664 -0.61903,2.4664 0.34997,21.38084 0.34998,21.38084 1.37245,1.65276 c 0.75484,0.90902 1.94419,1.65276 2.64301,1.65276 l 1.27056,0 0.60699,-1.58179 z m 40.10699,-22.91821 0,-24 -17.5,0 -17.5,0 -0.86093,18.78438 -0.86093,18.78437 0.68573,5.4884 0.68573,5.48839 17.6752,-0.27277 17.6752,-0.27277 0,-24 z m -0.65161,-29.38514 1.3484,-0.85451 -0.36151,-1.88018 -0.36151,-1.88017 -4.48688,-0.67588 c -2.46779,-0.37173 -9.92965,-0.70923 -16.5819,-0.75 l -12.09502,-0.0741 -1.70241,1.88115 -1.70241,1.88114 1.61885,1.61886 1.61886,1.61885 15.67857,-0.0153 15.67857,-0.0153 1.34839,-0.85451 z m -39.1079,-3.83494 0.40623,-1.22009 -3.2527,-1.97809 -3.25271,-1.97809 -0.82066,0.50719 c -1.36861,0.84585 -0.93372,2.20591 1.40083,4.38088 l 2.22149,2.06962 1.44565,-0.28067 c 0.7951,-0.15437 1.62845,-0.82971 1.85187,-1.50075 z M 44.68893,141.7137 c 0.9625,-0.73064 1.75,-1.622 1.75,-1.9808 0,-0.3588 -2.3625,-1.70414 -5.25,-2.98965 l -5.25,-2.33727 -3.31214,-4.65012 -3.31213,-4.65011 -1.85841,0 -1.85841,0 -0.64862,2.95313 -0.64861,2.95312 1.69601,3.57408 1.69601,3.57407 2.52649,1.98734 2.52649,1.98734 2.23627,-1.46526 2.23627,-1.46526 1.76538,1.95072 c 2.05514,2.27091 3.29047,2.39187 5.7054,0.55867 z"
     id="path2989"
     inkscape:connector-curvature="0" />
</svg>
