<?xml version="1.0" encoding="UTF-8" standalone="no"?>
<!-- Created with Inkscape (http://www.inkscape.org/) -->

<svg
   xmlns:dc="http://purl.org/dc/elements/1.1/"
   xmlns:cc="http://creativecommons.org/ns#"
   xmlns:rdf="http://www.w3.org/1999/02/22-rdf-syntax-ns#"
   xmlns:svg="http://www.w3.org/2000/svg"
   xmlns="http://www.w3.org/2000/svg"
   xmlns:sodipodi="http://sodipodi.sourceforge.net/DTD/sodipodi-0.dtd"
   xmlns:inkscape="http://www.inkscape.org/namespaces/inkscape"
   id="svg2"
   version="1.1"
   inkscape:version="0.48.2 r9819"
   width="1431.7729"
   height="1143.9155"
   sodipodi:docname="11306500494_68b450c0ff_o5.png">
  <metadata
     id="metadata8">
    <rdf:RDF>
      <cc:Work
         rdf:about="">
        <dc:format>image/svg+xml</dc:format>
        <dc:type
           rdf:resource="http://purl.org/dc/dcmitype/StillImage" />
        <dc:title></dc:title>
      </cc:Work>
    </rdf:RDF>
  </metadata>
  <defs
     id="defs6" />
  <sodipodi:namedview
     pagecolor="#ffffff"
     bordercolor="#666666"
     borderopacity="1"
     objecttolerance="10"
     gridtolerance="10"
     guidetolerance="10"
     inkscape:pageopacity="0"
     inkscape:pageshadow="2"
     inkscape:window-width="1600"
     inkscape:window-height="876"
     id="namedview4"
     showgrid="false"
     fit-margin-top="0"
     fit-margin-left="0"
     fit-margin-right="0"
     fit-margin-bottom="0"
     inkscape:zoom="0.58348671"
     inkscape:cx="719.2011"
     inkscape:cy="570.2862"
     inkscape:window-x="0"
     inkscape:window-y="24"
     inkscape:window-maximized="1"
     inkscape:current-layer="svg2" />
  <path
     style="fill:#000000"
     d="m 624.90006,1138.5438 -5.3051,-5.3717 0.6432,-11.8783 c 0.9411,-17.3829 0.9644,-28.4991 0.066,-31.7003 -0.5184,-1.8477 -0.3276,-3.6896 0.5526,-5.3343 1.21,-2.2608 1.1267,-2.6787 -0.8319,-4.1778 -1.9775,-1.5136 -2.1943,-2.6706 -2.3741,-12.6658 -0.1088,-6.05 -0.5192,-11.45 -0.9121,-12 -0.3929,-0.55 -0.9681,-2.35 -1.2784,-4 -0.3103,-1.65 -1.088,-5.025 -1.7282,-7.5 -0.6403,-2.475 -1.3631,-6.975 -1.6063,-10 -0.4079,-5.075 -1.1403,-7.6581 -3.4693,-12.2364 -0.4859,-0.9551 -0.9,-2.3051 -0.9204,-3 -0.063,-2.1374 -15.0759,-19.21859 -22.213,-25.27237 -3.7125,-3.14903 -6.75,-6.52744 -6.75,-7.50758 0,-0.98014 -2.5875,-4.70102 -5.75,-8.26862 -7.4168,-8.36695 -9.25,-10.82799 -9.25,-12.41851 0,-0.71314 -0.45,-1.29661 -1,-1.29661 -0.55,0 -1,-0.87344 -1,-1.94098 0,-1.06754 -0.45,-2.2191 -1,-2.55902 -0.55,-0.33992 -1,-1.71648 -1,-3.05902 0,-1.34254 -0.45,-2.44098 -1,-2.44098 -0.55,0 -1,-0.87344 -1,-1.94098 0,-1.06754 -0.45,-2.2191 -1,-2.55902 -0.55,-0.33992 -1,-1.71648 -1,-3.05902 0,-1.34254 -0.45,-2.44098 -1,-2.44098 -0.55,0 -1,-0.9 -1,-2 0,-1.1 -0.45,-2 -1,-2 -0.55,0 -1,-0.61431 -1,-1.36514 0,-0.75083 -0.9,-2.50931 -2,-3.90773 -1.1,-1.39842 -2,-3.64842 -2,-5 0,-1.35158 -0.9,-3.60158 -2,-5 -1.1,-1.39842 -2,-3.67697 -2,-5.06343 0,-4.40169 -5.6199,-7.53448 -8.55,-4.76613 -0.5225,0.49367 -2.75,1.12266 -4.95,1.39776 -2.2,0.27509 -5.8,1.06214 -8,1.749 -2.2,0.68685 -7.6,1.42219 -12,1.63409 -4.4,0.2119 -9.0402,0.91184 -10.3117,1.55543 -1.7747,0.89837 -2.7587,0.89097 -4.2364,-0.0318 -1.0586,-0.66115 -2.6864,-1.20205 -3.6173,-1.20205 -1.8911,0 -7.9081,1.77746 -10.571,3.12276 -0.955,0.48248 -2.8345,0.87724 -4.1767,0.87724 -3.1225,0 -5.5868,4.6733 -5.5868,10.59462 0,2.35804 -0.45,4.56546 -1,4.90538 -0.55,0.33992 -1,1.47554 -1,2.5236 0,2.48625 -3.8115,7.82333 -12.75,17.85362 -3.9875,4.47451 -7.25,8.63036 -7.25,9.23522 0,0.60486 -1.35,2.80427 -3,4.88756 -1.65,2.08329 -3,4.48399 -3,5.33489 0,0.85089 -0.45,1.82519 -1,2.16511 -0.55,0.33992 -1,1.533 -1,2.65129 0,1.11829 -0.9,3.17742 -2,4.57584 -1.1,1.39842 -2,3.1569 -2,3.90773 0,0.75083 -0.3518,1.36514 -0.7817,1.36514 -0.4299,0 -1.3574,1.9498 -2.0611,4.3329 -1.5134,5.12599 -1.0306,40.11609 0.6647,48.16719 0.579,2.75 1.4991,7.025 2.0446,9.5 1.0435,4.7349 0.4549,12.6833 -1.0062,13.5863 -0.4732,0.2925 -0.8603,1.4052 -0.8603,2.4727 0,1.0676 -0.45,1.941 -1,1.941 -0.55,0 -1,0.9 -1,2 0,1.1 -0.399,2 -0.8865,2 -1.1453,0 -2.1703,4.8334 -2.7569,13 -0.4368,6.0803 -2.6223,13 -4.1059,13 -0.3606,0 -2.1743,-1.4625 -4.0306,-3.25 l -3.375,-3.25 -2.4176,3 c -1.3297,1.65 -2.4198,3.5625 -2.4226,4.25 0,0.6875 -0.4549,1.25 -1.0049,1.25 -0.55,0 -1,0.9415 -1,2.0923 0,1.1507 -0.9,3.2364 -2,4.6348 -1.1,1.3985 -2,3.1569 -2,3.9078 0,0.7508 -0.45,1.3651 -1,1.3651 -0.55,0 -1,0.7181 -1,1.5957 0,2.3056 -2.8863,6.8456 -5.3665,8.4414 -3.3466,2.1533 -14.6994,3.289 -32.6335,3.2647 -22.8417,-0.031 -29.1153,-0.7959 -36.2365,-4.4185 -0.955,-0.4858 -3.2624,-0.8833 -5.1275,-0.8833 -1.8651,0 -3.9112,-0.6266 -4.5467,-1.3924 -0.6356,-0.7658 -2.4758,-1.9392 -4.0892,-2.6076 -3.2249,-1.3357 -4.8206,-4.5795 -3.0995,-6.3007 0.6047,-0.6046 1.0994,-2.0829 1.0994,-3.285 0,-3.6199 6.7179,-14.6578 9.9854,-16.4065 1.108,-0.593 2.0146,-1.7373 2.0146,-2.543 0,-0.8056 0.45,-1.4648 1,-1.4648 0.55,0 1,-0.4453 1,-0.9895 0,-0.5442 1.7994,-3.5817 3.9987,-6.75 2.1992,-3.1683 3.9992,-6.323 4,-7.0105 7e-4,-0.6875 0.4513,-1.25 1.0013,-1.25 0.55,0 1,-0.9 1,-2 0,-1.1 0.45,-2 1,-2 0.55,0 1,-0.9 1,-2 0,-1.1 0.45,-2 1,-2 0.55,0 1.0183,-0.5625 1.0406,-1.25 0.022,-0.6875 1.3724,-2.808 3,-4.7122 1.6277,-1.9042 2.9594,-3.9799 2.9594,-4.6125 0,-2.0056 6.0093,-8.8396 9.8059,-11.1517 2.787,-1.6972 3.6913,-2.9306 3.8049,-5.1896 0.082,-1.6298 1.1031,-4.1761 2.2691,-5.6585 1.166,-1.4824 2.1201,-3.3095 2.1201,-4.0604 0,-0.7508 0.45,-1.3651 1,-1.3651 0.55,0 1,-0.9 1,-2 0,-1.1 0.45,-2 1,-2 0.55,0 1,-1.0984 1,-2.441 0,-1.3425 0.45,-2.7191 1,-3.059 0.55,-0.3399 1,-1.4915 1,-2.559 0,-1.0676 0.3975,-1.941 0.8833,-1.941 0.4859,0 1.1717,-0.7875 1.524,-1.75 0.3523,-0.9625 1.7186,-3.55 3.036,-5.75 1.944,-3.2462 2.4106,-5.4494 2.4761,-11.69107 0.044,-4.23004 0.4577,-7.92408 0.9187,-8.20896 1.1449,-0.70758 0.6745,-26.90423 -0.5944,-33.10006 -1.5149,-7.39725 -2.9156,-11.31469 -4.6746,-13.0737 -1.1989,-1.19891 -1.5691,-3.7474 -1.5691,-10.80073 0,-8.5818 0.202,-9.50938 2.8708,-13.17857 3.3789,-4.64545 4.3609,-8.50196 4.5155,-17.73449 0.1287,-7.68469 -0.6183,-8.67248 -6.5773,-8.6972 -2.0301,-0.008 -3.9691,-0.46531 -4.309,-1.01531 -0.34,-0.55 -1.69,-1 -3,-1 -1.3101,0 -2.6601,-0.45 -3,-1 -0.34,-0.55 -1.4915,-1 -2.5591,-1 -1.0675,0 -1.9409,-0.45 -1.9409,-1 0,-0.55 -1.0985,-1 -2.441,-1 -1.3426,0 -2.7191,-0.45 -3.059,-1 -0.34,-0.55 -1.4715,-1 -2.5146,-1 -1.0432,0 -3.6041,-1.13325 -5.691,-2.51834 -2.087,-1.38508 -4.649,-3.07258 -5.6935,-3.75 -1.0446,-0.67741 -4.6446,-3.50322 -8,-6.27957 -3.3555,-2.77634 -8.8009,-7.10374 -12.1009,-9.61644 -7.7774,-5.92184 -14.5,-13.25341 -14.5,-15.81331 0,-1.11229 -0.45,-2.02234 -1,-2.02234 -0.55,0 -1,-0.87344 -1,-1.94098 0,-1.06754 -0.4003,-2.18837 -0.8895,-2.49073 -0.4893,-0.30237 -1.1792,-2.24142 -1.5332,-4.30902 -2.1064,-12.30171 -2.6016,-15.4329 -3.4414,-21.75856 -0.5111,-3.84962 -0.7012,-8.40491 -0.4224,-10.12287 0.285,-1.75634 0.021,-3.42391 -0.6033,-3.80973 -0.6106,-0.37738 -1.1102,-1.78459 -1.1102,-3.12713 0,-1.34254 -0.45,-2.44098 -1,-2.44098 -0.55,0 -1,-0.87344 -1,-1.94098 0,-1.06754 -0.45,-2.2191 -1,-2.55902 -0.55,-0.33992 -1,-1.42262 -1,-2.40601 0,-0.98338 -0.9,-2.82568 -2,-4.09399 -1.1,-1.26831 -2,-2.91217 -2,-3.65301 0,-0.74084 -0.45,-1.34699 -1,-1.34699 -0.55,0 -1,-0.9 -1,-2 0,-1.1 -0.45,-2 -1,-2 -0.55,0 -1,-0.9 -1,-2 0,-1.1 -0.45,-2 -1,-2 -0.55,0 -1,-0.68614 -1,-1.52475 0,-0.83861 -1.1888,-1.97671 -2.6417,-2.5291 -1.4529,-0.55239 -5.0899,-3.24198 -8.0823,-5.97686 -2.9924,-2.73489 -6.6412,-5.23181 -8.1084,-5.54871 -2.6779,-0.57839 -6.1688,-1.89146 -9.4041,-3.53725 -2.1776,-1.10778 -6.4808,-1.1498 -7.1483,-0.0698 -0.7224,1.16884 -15.4218,1.30852 -16.1357,0.15334 -0.3287,-0.53178 -1.4771,-0.96687 -2.5521,-0.96687 -1.075,0 -2.9521,-0.5625 -4.1714,-1.25 -4.2713,-2.40849 -19.6363,-15.79727 -20.2125,-17.6129 -0.3201,-1.00847 -1.6436,-2.31727 -2.941,-2.90845 -1.2975,-0.59117 -4.3264,-3.45709 -6.7308,-6.36872 -5.7659,-6.98215 -13.0109,-13.85993 -14.5999,-13.85993 -0.6995,0 -1.2718,-0.45 -1.2718,-1 0,-0.55 -1.1092,-1 -2.4649,-1 -1.4413,0 -2.9092,-0.83045 -3.5351,-2 -0.6971,-1.30256 -2.0939,-2 -4.0053,-2 -2.1014,0 -3.5647,-0.85195 -5.1529,-3 -1.2199,-1.65 -2.8083,-3 -3.5299,-3 -0.7216,0 -1.3119,-0.45 -1.3119,-1 0,-0.55 -0.5795,-1 -1.2876,-1 -1.5958,0 -10.7124,-9.13557 -10.7124,-10.73466 0,-0.64128 -0.5834,-1.52582 -1.2964,-1.96565 -2.146,-1.32384 -5.584,-8.0308 -5.1154,-9.97935 0.8526,-3.54527 -1.1493,-4.73016 -8.7138,-5.15759 -9.5967,-0.54226 -13.504,-2.69481 -15.2709,-8.41275 -0.552,-1.78636 -5.60354,-2.56762 -5.60354,-0.86663 0,0.48585 -0.9,1.11872 -2,1.40638 -1.1,0.28766 -2,1.25753 -2,2.15527 0,0.89774 -1.75781,3.46161 -3.90625,5.6975 -3.67676,3.8264 -4.250645,4.06848 -9.768455,4.12045 -3.22422,0.0304 -6.83683,-0.46637 -8.02801,-1.10387 -1.19119,-0.63751 -5.63933,-1.1591 -9.88476,-1.1591 l -7.71896,0 -9.98604,-10 c -5.49231,-5.5 -10.59836,-10 -11.34677,-10 -0.74841,0 -1.36075,-0.45 -1.36075,-1 0,-0.55 -0.62838,-1 -1.3964,-1 -1.16495,0 -4.21994,-3.07648 -8.50231,-8.56214 -2.8816,-3.69127 -5.07326,-11.07791 -5.78835,-19.50868 -0.37869,-4.46468 -0.0555,-6.2517 1.6278,-9 1.15517,-1.88605 2.63973,-4.66668 3.29902,-6.17918 0.6593,-1.5125 1.55006,-2.75 1.97948,-2.75 0.42942,0 0.78076,-0.94152 0.78076,-2.09227 0,-1.15075 0.9,-3.23644 2,-4.63486 1.1,-1.39842 2,-3.1569 2,-3.90773 0,-0.75083 0.39893,-1.36514 0.8865,-1.36514 1.21882,0 2.22152,-5.08484 2.7607,-14 0.48834,-8.07447 2.56216,-14 4.89972,-14 0.7992,0 1.45308,-0.45 1.45308,-1 0,-0.55 -0.45,-1 -1,-1 -0.55,0 -1,-0.9 -1,-2 0,-1.1 0.45,-2 1,-2 0.55,0 1,-0.9 1,-2 0,-1.1 0.45,-2 1,-2 0.55,0 1,-0.87344 1,-1.94098 0,-1.06754 0.45,-2.2191 1,-2.55902 0.55,-0.33992 1,-1.758 1,-3.15129 0,-1.39329 0.9,-3.67742 2,-5.07584 1.1,-1.39842 2,-3.35534 2,-4.34871 0,-0.99337 0.45,-2.08424 1,-2.42416 0.55,-0.33992 1,-1.49148 1,-2.55902 0,-1.06754 0.3433,-1.94098 0.76288,-1.94098 0.76837,0 2.09638,-2.17979 4.41695,-7.25 0.69226,-1.5125 1.60999,-2.75 2.03941,-2.75 0.42942,0 0.78076,-0.9 0.78076,-2 0,-1.1 0.45,-2 1,-2 0.55,0 1,-1.0699 1,-2.37756 0,-1.30765 0.62864,-2.89928 1.39698,-3.53694 2.12576,-1.76422 4.60302,-10.35598 4.60302,-15.96438 0,-2.7517 0.45,-5.2812 1,-5.62112 0.55,-0.33992 1,-1.49148 1,-2.55902 0,-1.06754 0.45,-1.94098 1,-1.94098 0.55,0 1,-0.87344 1,-1.94098 0,-1.06754 0.45,-2.2191 1,-2.55902 0.55,-0.33992 1,-1.91492 1,-3.5 0,-1.58508 0.45,-3.16008 1,-3.5 0.55,-0.33992 1,-1.68386 1,-2.98654 0,-1.40227 1.17146,-3.31596 2.87156,-4.69098 3.53863,-2.862 10.15989,-12.28033 11.07572,-15.75454 0.372305,-1.41237 2.064455,-3.46794 3.760335,-4.56794 3.68156,-2.38799 6.29238,-7.75485 6.29238,-12.9348 0,-2.89143 0.69471,-4.41172 3,-6.56519 1.65,-1.54133 3,-3.78149 3,-4.97813 0,-2.73714 5.18074,-8.02187 7.86404,-8.02187 1.1099,0 2.296,-0.45 2.636,-1 0.3399,-0.55 1.5336,-1 2.6526,-1 1.1936,0 2.2508,-0.8267 2.5576,-2 0.2877,-1.1 0.8391,-2 1.2255,-2 0.3863,0 0.7598,-3.09049 0.8298,-6.86776 0.1409,-7.59909 2.3554,-12.95162 6.0485,-14.61937 1.2023,-0.54292 2.186,-1.40749 2.186,-1.92126 0,-0.51377 0.7192,-1.72885 1.5982,-2.70017 1.3424,-1.48333 1.41,-2.33637 0.4225,-5.32874 -0.6467,-1.95949 -1.5735,-3.5627 -2.0595,-3.5627 -0.4861,0 -1.5403,-2.21099 -2.3429,-4.91332 -0.9637,-3.24534 -3.5612,-7.40397 -7.6513,-12.25 -3.4057,-4.03517 -6.6908,-8.46168 -7.3001,-9.83668 -0.6093,-1.375 -2.0318,-3.4 -3.1611,-4.5 -1.1293,-1.1 -2.7176,-2.91764 -3.5296,-4.0392 -0.81192,-1.12157 -4.40124,-4.25799 -7.97624,-6.96983 -6.08571,-4.61636 -24.176855,-20.5537 -38.999995,-34.35692 -3.575,-3.32902 -7.0625,-6.07105 -7.75,-6.09341 -0.6875,-0.0224 -1.25,-0.49064 -1.25,-1.04064 0,-0.55 -0.62838,-1 -1.3964,-1 -0.76803,0 -2.80868,-1.6875 -4.53478,-3.75 -4.02394,-4.80815 -4.21473,-5.06882 -6.81828,-9.31579 -1.20228,-1.96119 -3.10384,-4.39646 -4.22568,-5.41172 -2.16571,-1.95994 -5.02486,-7.06543 -5.02486,-8.97274 0,-0.62863 -0.66319,-2.02199 -1.47376,-3.09636 -6.28518,-8.33064 -8.52624,-11.60619 -8.52624,-12.46204 0,-0.54524 -0.45,-0.99135 -1,-0.99135 -0.55,0 -1,-0.90001 -1,-2.00001 0,-1.1 -0.45,-2 -1,-2 -0.55,0 -1,-0.87344 -1,-1.94098 0,-1.06754 -0.45,-2.2191 -1,-2.55902 -0.55,-0.33992 -1,-1.71648 -1,-3.05902 0,-1.34254 -0.45,-2.44098 -1,-2.44098 -0.55,0 -1,-0.87344 -1,-1.94098 0,-1.06754 -0.45,-2.2191 -1,-2.55902 -0.55,-0.33992 -1,-1.71648 -1,-3.05902 0,-1.34254 -0.45,-2.44098 -1,-2.44098 -0.55,0 -1,-0.87344 -1,-1.94098 0,-1.06754 -0.45,-2.2191 -1,-2.55902 -0.55,-0.33992 -1,-1.71648 -1,-3.05902 0,-1.34254 -0.45,-2.44098 -1,-2.44098 -0.55,0 -1,-0.87344 -1,-1.94098 0,-1.06754 -0.45,-2.2191 -1,-2.55902 -0.55,-0.33992 -1,-1.62648 -1,-2.85902 0,-1.23254 -0.4039,-2.66848 -0.89757,-3.19098 -0.49367,-0.5225 -1.1324301,-2.75 -1.4194601,-4.95 -0.94436,-7.23795 -1.6424,-9.81243 -4.47385,-16.5 -0.58215,-1.375 -1.3374999,-3.85 -1.6785499,-5.5 -0.34104,-1.65 -1.1037201,-4.8 -1.6948301,-7 -1.62635997,-6.05301 -2.20495997,-28.10795 -0.86338997,-32.91066 0.62825997,-2.24913 1.23054997,-7.68933 1.33840997,-12.08933 0.2055701,-8.38543 2.27031,-14.29623 7.3686,-21.094392 1.2763501,-1.70192 2.3206401,-3.61442 2.3206401,-4.25 0,-0.63559 0.45,-1.15561 1,-1.15561 0.55,0 1,-0.94152 1,-2.09227 0,-1.15075 0.9,-3.23644 2,-4.63486 1.1,-1.39842 2,-3.35534 2,-4.34871 0,-0.99337 0.45,-2.08424 1,-2.42416 0.55,-0.33992 1,-1.47149 1,-2.51461 0,-2.09799 1.74467,-4.84239 10.25,-16.1235 3.1625,-4.1946 5.75,-8.1295 5.75,-8.74422 0,-0.61472 0.45,-1.11767 1,-1.11767 0.55,0 1,-0.9 1,-2 0,-1.1 0.45,-2 1,-2 0.55,0 1,-0.9 1,-2 0,-1.1 0.45,-2 1,-2 0.55,0 1,-0.46822 1,-1.04049 0,-2.27828 15.92309,-21.76051 19.05273,-23.31142 0.94551,-0.46855 2.2108,-1.93105 2.81175,-3.250001 0.60096,-1.3189496 1.77729,-2.3980896 2.61408,-2.3980896 0.8368,0 1.52144,-0.35134 1.52144,-0.78076 0,-0.42942 1.2375,-1.32129 2.75,-1.98194 1.5125,-0.66065 4.1,-2.07641 5.75,-3.1461501 3.25934,-2.11310995 8.01226,-2.68934995 9,-1.09114996 0.33992,0.54999996 0.14148,0.99999996 -0.44098,0.99999996 -0.58246,0 -1.05902,0.49941 -1.05902,1.1097901 0,0.61038 -2.29729,3.62339 -5.10509,6.69558 -2.8078,3.0721806 -5.83947,6.7352706 -6.73704,8.1402106 -0.89756,1.40493 -2.20027,3.14906 -2.8949,3.87585 -0.69463,0.72678 -1.26297,1.96428 -1.26297,2.75 0,0.78571 -0.45,1.42857 -1,1.42857 -0.55,0 -1,0.9 -1,2 0,1.1 -0.45,2 -1,2 -0.55,0 -1,0.9 -1,2 0,1.1 -0.45,2 -1,2 -0.55,0 -1,0.60615 -1,1.34699 0,0.74084 -0.9,2.3847 -2,3.65301 -1.1,1.26831 -2,2.61831 -2,3 0,0.38169 -0.9,1.73169 -2,3 -1.1,1.26831 -2,2.95369 -2,3.74528 0,0.79159 -0.9,2.58343 -2,3.98185 -1.1,1.39842 -2,3.35534 -2,4.34871 0,0.99337 -0.45,2.08424 -1,2.42416 -0.55,0.33992 -1,1.49148 -1,2.55902 0,1.06754 -0.45,1.94098 -1,1.94098 -0.55,0 -1,0.97707 -1,2.17126 0,1.19419 -0.77589,3.02861 -1.7242,4.07649 -0.94832,1.04787 -1.82956,3.55205 -1.95833,5.56484 -0.12876,2.0128 -0.70287,3.81588 -1.27579,4.00685 -0.57292,0.19097 -1.04168,1.20973 -1.04168,2.26389 0,1.05417 -0.45,1.91667 -1,1.91667 -0.55,0 -1,0.90611 -1,2.01357 0,1.10746 -0.40614,2.79496 -0.90253,3.75 -2.40182,4.62097 -3.23318,10.2408 -2.70042,18.254262 0.67081,10.08988 0.67073,10.30137 -0.009,24.98217 -0.29547,6.38396 -0.0921,13.05704 0.45721,14.99999 0.54421,1.925 1.52045,5.525 2.16944,8 0.64898,2.475 1.58611,5.28139 2.08251,6.23643 0.49635,0.95504 0.90249,2.64254 0.90249,3.75 0,1.10746 0.45,2.01357 1,2.01357 0.55,0 1,0.9 1,2 0,1.1 0.45,2 1,2 0.55,0 1,0.87344 1,1.94098 0,1.06754 0.40028,2.18837 0.88952,2.49073 0.48923,0.30237 1.14287,2.01642 1.45254,3.80902 1.30137,7.53333 1.93349,9.75927 2.77144,9.75927 0.48758,0 0.8865,0.5795 0.8865,1.28777 0,0.70828 1.33172,2.84578 2.95936,4.75 1.62765,1.90423 2.97765,3.91802 3,4.4751 0.0224,0.55708 1.03462,1.45708 2.24949,2 1.21486,0.54292 4.57487,4.13713 7.46669,7.98713 2.89181,3.85 5.78454,7.45 6.42827,8 0.64373,0.55 2.79622,2.78899 4.78331,4.97553 6.62788,7.29315 16.40986,16.41778 19.02649,17.74789 4.742795,2.41092 12.086385,8.14519 12.086385,9.43771 0,0.72348 0.64959,1.02684 1.5,0.70051 1.94206,-0.74524 1.92705,-3.76232 -0.0268,-5.38387 -2.26128,-1.8767 -7.4732,-9.86661 -7.4732,-11.45647 0,-0.75815 -0.58927,-1.97309 -1.30949,-2.69987 -2.043405,-2.06204 -4.690505,-7.89755 -4.690505,-10.34021 0,-1.21633 -0.9,-3.35567 -2,-4.75409 -1.1,-1.39842 -2,-3.39411 -2,-4.43486 0,-1.04075 -0.41208,-2.31977 -0.91574,-2.84227 -0.50366,-0.5225 -1.17866,-3.7625 -1.5,-7.2 -0.32134,-3.4375 -0.84717,-9.0625 -1.16851,-12.5 -0.32134,-3.4375 -0.99634,-6.6775 -1.5,-7.2 -1.22925,-1.27523 -1.16861,-4.55 0.0842,-4.55 0.55,0 1,-0.9 1,-2 0,-1.1 -0.45,-2 -1,-2 -1.24568,0 -1.32644,-3.68021 -0.0974,-4.43978 1.15745,-0.71535 1.12638,-19.56022 -0.0322,-19.56022 -0.47867,0 -0.87032,-0.9 -0.87032,-2 0,-1.1 0.39893,-2 0.8865,-2 0.83142,0 1.12809,-0.99659 2.75359,-9.24999 0.35205,-1.7875 1.47705,-4.32319 2.5,-5.63486 1.02295,-1.31167 1.8928,-3.11167 1.933,-4 0.0402,-0.88833 0.94833,-2.96514 2.01806,-4.61514 1.06974,-1.65 2.48551,-4.2375 3.14615,-5.75 0.66065,-1.5125 1.552515,-2.75 1.981935,-2.75 0.42942,0 0.78076,-0.44369 0.78076,-0.98598 0,-1.70963 11.18953,-15.014022 12.62739,-15.014022 0.75494,0 1.37261,-0.58367 1.37261,-1.29705 0,-1.53436 7.11441,-8.70295 8.63721,-8.70295 0.579,0 1.8673,-0.9 2.8628,-2 0.9955,-1.1 2.4152,-2 3.155,-2 0.7397,0 1.345,-0.45 1.345,-1 0,-0.55 0.9,-1 2,-1 1.1,0 2,-0.45 2,-1 0,-0.55 0.5625,-1.01252 1.25,-1.02782 0.6875,-0.0153 3.0177,-1.3653 5.1781,-3 2.1605,-1.6347 4.9465,-2.97218 6.191,-2.97218 1.2446,0 2.541,-0.45 2.8809,-1 0.9058,-1.46565 2.7008,-1.22056 2.3233,0.31723 -0.386,1.5727 -19.4995,18.68277 -20.8703,18.68277 -0.5242,0 -0.953,0.44611 -0.953,0.99135 0,0.54524 -1.4625,2.9529 -3.25,5.35036 -1.7875,2.397462 -3.925,5.376702 -4.75,6.620532 -0.825,1.24384 -2.9581,4.12367 -4.7403,6.39964 -1.7822,2.27597 -3.24467,4.70062 -3.25,5.38812 -0.005,0.6875 -0.45971,1.25 -1.00971,1.25 -0.55,0 -1,0.9 -1,2 0,1.1 -0.45,2 -1,2 -0.55,0 -1,0.9 -1,2 0,1.1 -0.45,2 -1,2 -0.55,0 -1,0.9 -1,2 0,1.1 -0.39893,2 -0.8865,2 -1.58188,0 -2.40951,6.25694 -2.38094,17.99999 0.0325,13.34821 2.46416,30 4.38094,30 0.48757,0 0.8865,0.9 0.8865,2 0,1.1 0.45,2 1,2 0.55,0 1,0.9 1,2 0,1.1 0.45,2 1,2 0.55,0 1,0.8625 1,1.91667 0,1.05416 0.46875,2.07291 1.04168,2.26389 0.57293,0.19097 1.14703,1.99405 1.27583,4.00684 0.1287,2.0128 1.01,4.51698 1.9583,5.56485 0.9483,1.04788 1.7248,2.5448 1.7255,3.32649 7e-4,0.78169 1.8007,4.0135 4,7.1818 2.1993,3.1683 4.0087,6.7683 4.0209,8 0.012,1.2317 0.9263,3.36446 2.0313,4.73946 1.105,1.375 3.667,4.975 5.6932,8 2.0263,3.025 3.9289,5.725 4.2281,6 0.2991,0.275 1.7184,2.30001 3.1538,4.50001 1.4354,2.2 4.1312,5.62928 5.9906,7.62062 1.8594,1.99134 4.0558,4.64618 4.8808,5.89964 0.825,1.25346 2.9625,4.24057 4.75,6.63803 1.7875,2.39746 3.25,4.80512 3.25,5.35036 0,0.54524 0.6423,0.99135 1.4274,0.99135 1.3622,0 3.2875,2.06283 6.5726,7.0421 2.0633,3.12743 6.5906,8.50095 12.2316,14.51798 2.6092,2.78304 6.2035,7.28304 7.9874,10 1.784,2.71695 3.5836,5.38992 3.9993,5.93992 5.2485,6.94488 7.7817,10.69138 7.7817,11.50865 0,0.54524 0.45,0.99135 1,0.99135 0.55,0 1,0.9 1,2 0,1.1 0.45,2 1,2 0.55,0 1,0.9 1,2 0,1.1 0.45,2 1,2 0.55,0 1,0.87344 1,1.94098 0,1.06754 0.45,2.2191 1,2.55902 0.55,0.33992 1,1.57203 1,2.73802 0,1.16599 0.4195,3.50193 0.9322,5.19098 0.5128,1.68905 1.4566,5.096 2.0975,7.571 0.6409,2.475 1.5714,5.28139 2.0678,6.23643 0.4964,0.95504 0.9025,2.32601 0.9025,3.04661 0,1.47076 1.2698,3.2617 8.611,12.14466 2.8111,3.40144 5.6179,7.13146 6.2373,8.28894 0.6195,1.15748 2.482,2.70459 4.139,3.43804 1.657,0.73345 3.0127,1.67369 3.0127,2.08943 0,0.41574 0.8734,0.75589 1.941,0.75589 1.0675,0 2.2191,0.45 2.559,1 1.1998,1.94128 8.5618,0.97288 16,-2.10462 1.1,-0.45512 5.375,-1.02421 9.5,-1.26463 10.5809,-0.61672 13.9438,-1.48446 18.447,-4.75987 2.1708,-1.57898 4.4487,-2.87088 5.0619,-2.87088 0.6133,0 2.1131,-1.35 3.333,-3 1.2199,-1.65 2.8795,-3 3.688,-3 0.8086,0 1.4701,-0.45 1.4701,-1 0,-1.34423 3.3253,-1.27472 4.6982,0.0982 0.7569,0.75694 5.558,0.89902 15.45,0.45722 7.8935,-0.35254 25.8268,-1.00927 39.8518,-1.45939 14.025,-0.45012 27.3,-1.31073 29.5,-1.91246 8.0772,-2.20923 9.2713,-2.36269 9.9418,-1.27774 0.3719,0.60179 1.5558,1.09417 2.6308,1.09417 1.075,0 2.7359,0.3975 3.691,0.88333 5.6094,2.85355 5.9308,2.93071 21.7364,5.21855 3.85,0.55728 22.525,1.42247 41.5,1.92264 35.8837,0.94586 44.8493,1.53797 46.45,3.06767 1.2879,1.23062 6.55,1.15656 6.55,-0.0922 0,-0.55 0.6812,-1 1.5136,-1 0.8325,0 2.295,-0.40614 3.25,-0.90254 4.7604,-2.47428 10.3223,-3.29901 17.8531,-2.64729 4.3358,0.37523 14.1833,1.04244 21.8833,1.48269 14.1771,0.81058 19.0871,1.59 20.0738,3.18654 0.2994,0.48433 2.0988,0.8806 3.9988,0.8806 3.4603,0 5.8345,0.97916 10.3052,4.25 1.3156,0.9625 3.4624,1.75 4.7707,1.75 1.3083,0 3.1601,0.40614 4.1151,0.90254 0.9551,0.49639 3.7614,1.42688 6.2364,2.06776 2.475,0.64087 5.882,1.58473 7.571,2.09746 1.6891,0.51273 4.2827,0.93224 5.7636,0.93224 2.7441,0 5.2743,1.12682 9.5432,4.25 1.3156,0.9625 3.6547,1.75 5.1981,1.75 1.5434,0 3.0842,0.45 3.4241,1 0.34,0.55 1.533,1 2.6513,1 1.1183,0 3.1775,0.9 4.5759,2 1.7415,1.36989 4.0568,2 7.3487,2 2.6434,0 5.0842,0.45 5.4241,1 0.34,0.55 1.4915,1 2.5591,1 1.0675,0 1.9409,0.45 1.9409,1 0,0.55 0.9,1 2,1 1.1,0 2,0.45 2,1 0,0.55 0.9,1 2,1 1.1,0 2,0.45 2,1 0,0.55 0.9,1 2,1 1.1,0 2,0.45 2,1 0,0.55 1.1092,1 2.4649,1 1.4413,0 2.9092,0.83045 3.5351,2 0.5887,1.1 1.7296,2 2.5352,2 0.8057,0 1.4648,0.45 1.4648,1 0,0.55 0.9,1 2,1 1.1,0 2,0.34043 2,0.75652 0,0.41609 1.793,1.31609 3.9843,2 5.302,1.65476 41.8794,1.71836 45.4772,0.0791 1.9827,-0.90335 3.0912,-0.8778 4.9444,0.114 1.3138,0.70313 4.7974,1.30508 7.7414,1.33767 2.944,0.0326 5.5777,0.31878 5.8527,0.63599 0.8621,0.99434 4.3873,3.10086 7.25,4.33229 1.5125,0.65062 2.75,1.53428 2.75,1.9637 0,0.42942 0.9,0.78076 2,0.78076 1.1,0 2,0.45 2,1 0,0.55 0.5271,1 1.1713,1 0.6442,0 2.0265,0.77402 3.0719,1.72005 2.1117,1.91103 8.6203,2.98422 25.7568,4.24694 6.325,0.46607 13.525,1.37847 16,2.02756 12.7652,3.34776 52.1632,5.24225 59.4272,2.8576 3.0644,-1.00598 4.0164,-1.02151 4.3333,-0.0707 0.489,1.46687 3.8716,1.62284 4.7395,0.21853 0.8039,-1.30064 8.1962,-1.30064 9,0 0.7743,1.2528 5.7758,1.31257 7.05,0.0842 0.5225,-0.50366 3.65,-1.13 6.95,-1.39187 3.3,-0.26186 8.025,-1.00729 10.5,-1.6565 2.475,-0.64921 5.9667,-1.42259 7.7593,-1.71861 1.7926,-0.29603 3.5067,-0.93852 3.809,-1.42775 0.3024,-0.48919 1.4232,-0.88947 2.4908,-0.88947 1.0675,0 1.9409,-0.45 1.9409,-1 0,-0.55 0.5201,-1 1.1557,-1 0.6355,0 2.7713,-1.2375 4.7461,-2.75 6.8826,-5.27135 10.2003,-7.25 12.1562,-7.25 1.0831,0 2.7506,-0.3975 3.7056,-0.88333 7.0612,-3.59203 9.6789,-4.00286 33.23644,-5.21608 40.7631,-2.09931 48.6823,-2.6746 53,-3.85013 2.475,-0.67385 7.425,-1.59656 11,-2.05046 3.575,-0.4539 8.525,-1.36174 11,-2.01741 2.475,-0.65567 8.325,-1.57884 13,-2.0515 18.0258,-1.82247 28.7051,-3.64491 29.5713,-5.04639 0.3007,-0.48658 1.6186,-0.8847 2.9287,-0.8847 1.3101,0 2.6601,-0.45 3,-1 0.3399,-0.55 1.6899,-1 3,-1 1.3101,0 2.6601,-0.45 3,-1 0.3399,-0.55 1.9069,-1 3.4821,-1 1.8322,0 3.9172,-1.05312 5.7871,-2.92309 l 2.9231,-2.92309 20.4039,-0.63258 c 48.1723,-1.49351 56.9444,-1.11987 61.7887,2.6318 1.7837,1.38144 4.1003,1.84696 9.1909,1.84696 3.7434,0 7.0423,0.38207 7.3309,0.84905 0.2886,0.46698 13.2527,0.94054 28.809,1.05235 16.0857,0.11561 30.1303,0.66648 32.5645,1.27727 2.9577,0.74213 5.3047,2.27087 7.5959,4.94765 3.0814,3.59987 7.6239,5.31209 7.6239,2.87368 0,-0.55 0.9,-1 2,-1 1.1,0 2,-0.45 2,-1 0,-0.55 0.8734,-1 1.941,-1 1.0675,0 2.2191,-0.45 2.559,-1 0.8053,-1.30296 12.1947,-1.30296 13,0 0.3399,0.55 1.533,1 2.6513,1 1.1183,0 3.1774,0.9 4.5758,2 1.3985,1.1 3.1569,2 3.9078,2 0.7508,0 1.3651,0.45 1.3651,1 0,0.55 0.6284,1 1.3964,1 0.768,0 2.7791,1.6875 4.4691,3.75 5.1216,6.25054 7.3653,8.25 9.2577,8.25 0.9935,0 2.2881,0.9 2.8768,2 0.8471,1.58276 2.0938,2 5.9762,2 2.6982,0 5.1839,0.45 5.5238,1 0.3399,0.55 1.4915,1 2.559,1 1.0676,0 1.941,0.45 1.941,1 0,0.55 0.6118,1 1.3596,1 1.2101,0 2.6296,1.30948 10.0613,9.28126 3.3569,3.60089 9.9752,12.0628 13.0763,16.71873 1.6484,2.475 3.2247,4.725 3.5028,5 0.2781,0.275 1.8217,2.4394 3.4302,4.80977 1.6086,2.37037 3.7448,4.7487 4.7472,5.28518 1.6356,0.87533 1.8241,2.48537 1.8377,15.69023 0.016,16.1506 1.0283,20.93486 5.3722,25.40105 2.5977,2.67082 2.6127,2.77862 2.6127,18.80188 0,14.80198 -0.1834,16.45787 -2.25,20.31377 -1.2375,2.30897 -2.5875,4.34812 -3,4.53145 -0.4125,0.18334 -0.75,1.19584 -0.75,2.25 0,1.05417 -0.45,1.91667 -1,1.91667 -0.55,0 -1,0.64956 -1,1.44346 0,0.79391 -1.3696,2.25254 -3.0436,3.2414 -1.6741,0.98886 -3.8472,3.1518 -4.8292,4.80653 -3.5608,5.99995 -18.382,23.76247 -20.231,24.24601 -1.0429,0.27273 -1.8962,1.03869 -1.8962,1.70214 0,0.66345 -2.5286,3.42347 -5.6191,6.13337 -7.5706,6.63827 -10.3809,9.66131 -10.3809,11.16687 0,0.69312 -0.45,1.26022 -1,1.26022 -0.55,0 -1,0.87344 -1,1.94098 0,1.06754 -0.45,2.2191 -1,2.55902 -0.55,0.33992 -1,2.36492 -1,4.5 0,2.13508 -0.3981,4.12802 -0.8847,4.42874 -0.4866,0.30073 -1.1786,2.01479 -1.5379,3.80902 -0.3592,1.79423 -1.1537,5.51224 -1.7655,8.26224 -0.9842,4.42392 -1.1781,16.59824 -0.7167,45 0.076,4.675 0.078,9.0625 0,9.75 -0.073,0.6875 0.1502,2.7125 0.4968,4.5 0.4068,2.09816 0.2356,3.25 -0.4833,3.25 -1.4618,0 -1.4204,2.53575 0.081,4.93948 0.9257,1.48228 0.9257,2.50179 0,4.53348 -0.6569,1.44163 -1.1943,3.88084 -1.1943,5.42046 0,3.70413 -2.6227,8.81323 -5.4878,10.69054 -1.2899,0.84516 -2.5519,2.92 -2.8666,4.71295 -0.3093,1.7617 -1.0566,5.67809 -1.6607,8.70309 -2.1274,10.65264 -3.1486,19.62543 -3.6227,31.83177 -0.4374,11.26284 -0.2898,12.69308 1.702,16.5 2.432,4.64806 4.7719,18.35346 6.0042,35.16823 1.0036,13.69399 1.8771,19.72547 3.034,20.95 0.4937,0.5225 0.8976,1.76 0.8976,2.75 0,0.99 0.4012,1.8 0.8916,1.8 0.4904,0 1.1722,1.11815 1.5152,2.48477 0.3848,1.53291 1.5755,2.72367 3.1084,3.10841 1.3667,0.343 2.4848,1.02485 2.4848,1.51523 0,0.49037 1.0553,0.89159 2.345,0.89159 1.2898,0 3.1595,0.9 4.155,2 0.9955,1.1 2.2781,2 2.8503,2 1.4802,0 6.6497,5.13374 6.6497,6.60376 0,0.67626 0.3375,1.37957 0.75,1.56291 0.4125,0.18333 1.644,1.90833 2.7367,3.83333 2.2171,3.9061 2.7868,12.00974 4.4641,63.5 0.8478,26.02683 1.3422,32.01433 3.9627,48 1.6467,10.04455 2.2753,12.5 3.2,12.5 0.4876,0 0.8865,0.87344 0.8865,1.94098 0,1.06754 0.45,2.2191 1,2.55902 0.55,0.33992 1,1.572 1,2.73799 0,2.2517 1.6632,8.1094 3.1228,10.9985 0.4824,0.9551 0.8772,2.616 0.8772,3.691 0,1.075 0.45,2.2327 1,2.5726 0.55,0.3399 1,2.115 1,3.9447 0,5.6202 4.7156,12.5541 12.9458,19.0356 2.7798,2.1891 5.0542,4.7069 5.0542,5.595 0,1.819 -3.0452,4.9247 -4.8287,4.9247 -0.6442,0 -1.1713,0.45 -1.1713,1 0,0.55 0.45,1 1,1 0.55,0 1,0.8734 1,1.941 0,1.0675 -0.45,2.2191 -1,2.559 -0.55,0.3399 -1,1.6577 -1,2.9284 0,1.2707 -1.8,4.571 -4,7.3341 -2.2,2.7631 -4,5.5219 -4,6.1307 0,0.6087 -0.45,1.1068 -1,1.1068 -0.55,0 -1,0.9061 -1,2.0136 0,1.1074 -0.5582,2.9074 -1.2405,4 -0.9874,1.581 -0.9874,2.3918 0,3.9728 0.6823,1.0926 1.2405,2.8551 1.2405,3.9167 0,1.0616 0.5097,2.1001 1.1327,2.3078 2.0204,0.6735 -0.089,4.5285 -3.1787,5.8081 -1.8157,0.7521 -3.2301,2.2328 -3.6211,3.7909 -0.9881,3.9366 -2.9163,7.2032 -6.0105,10.1824 -3.7967,3.6556 -6.3224,7.1355 -6.3224,8.7111 0,0.7131 -0.45,1.2966 -1,1.2966 -0.55,0 -1,1.1039 -1,2.4531 0,2.7876 -3.7941,4.9638 -10.5,6.0224 -22.5487,3.5596 -58.9785,3.7953 -61.0799,0.3953 -0.296,-0.479 -1.4116,-0.8708 -2.4791,-0.8708 -1.0676,0 -1.941,-0.3401 -1.941,-0.7559 0,-0.4157 -1.2768,-1.321 -2.8373,-2.0118 -3.6035,-1.5951 -6.0321,-5.7629 -4.3425,-7.4525 0.6489,-0.6489 1.1798,-2.4132 1.1798,-3.9208 0,-1.5075 0.45,-3.0191 1,-3.359 0.55,-0.3399 1,-1.4976 1,-2.5726 0,-1.075 0.3975,-2.7359 0.8833,-3.691 2.0097,-3.9505 3.0233,-6.9407 3.5547,-10.4864 0.3091,-2.0625 0.8221,-5.4375 1.14,-7.5 0.9405,-6.1026 3.0441,-9.6418 8.6396,-14.5361 2.9053,-2.5413 6.8081,-6.1015 8.6727,-7.9117 3.6513,-3.5445 7.1097,-10.5132 7.1097,-14.3261 0,-1.2969 0.45,-2.6362 1,-2.9761 0.55,-0.3399 1,-1.6899 1,-3 0,-1.3101 0.45,-2.6601 1,-3 0.55,-0.3399 1,-1.9149 1,-3.5 0,-1.5851 -0.45,-3.1601 -1,-3.5 -0.55,-0.3399 -1.0068,-2.954 -1.0151,-5.809 -0.019,-6.6528 -1.8762,-11.9221 -5.5606,-15.7786 -2.7404,-2.8685 -2.8123,-3.1432 -1.1437,-4.3693 1.4254,-1.0473 1.6492,-2.1297 1.1222,-5.4257 -0.3621,-2.2646 -1.0509,-4.11749 -1.5306,-4.11749 -0.4797,0 -0.8722,-0.87344 -0.8722,-1.94098 0,-1.06754 -0.3919,-2.18318 -0.8708,-2.47919 -0.479,-0.29602 -1.1257,-1.81246 -1.4372,-3.36988 -0.3471,-1.7353 -1.5586,-3.28378 -3.1292,-3.99937 -1.4095,-0.64224 -2.5628,-1.85235 -2.5628,-2.68914 0,-0.83679 -0.45,-1.52144 -1,-1.52144 -0.55,0 -1,-0.5014 -1,-1.11421 0,-0.61282 -2.25,-3.71142 -5,-6.88579 -2.75,-3.17437 -5,-6.27297 -5,-6.88579 0,-0.61281 -0.45,-1.11421 -1,-1.11421 -0.55,0 -1.0142,1.0125 -1.0316,2.25 -0.031,2.23081 -0.051,2.22781 -2.25,-0.35172 -1.2201,-1.43094 -2.7726,-3.45594 -3.4501,-4.5 -0.6774,-1.04405 -2.3649,-3.60576 -3.75,-5.69269 -1.385,-2.08692 -2.5183,-4.67442 -2.5183,-5.75 0,-1.07557 -0.45,-1.95559 -1,-1.95559 -0.55,0 -1,-0.58347 -1,-1.29661 0,-0.71313 -0.6632,-2.17563 -1.4738,-3.25 -6.2805,-8.33064 -8.5216,-11.60619 -8.5216,-12.46204 0,-0.54524 -0.45,-0.99135 -1,-0.99135 -0.55,0 -1,-0.9 -1,-2 0,-1.1 -0.45,-2 -1,-2 -0.55,0 -1,-0.50227 -1,-1.11615 0,-1.37613 -9.6413,-13.77676 -12.4517,-16.01539 -6.4451,-5.13378 -6.5998,-5.37256 -7.6177,-11.75577 -1.497,-9.38799 -3.2888,-13.11269 -6.3081,-13.11269 -5.2681,0 -7.4402,6.34514 -3.805,11.11514 4.5588,5.98215 5.0649,13.53008 2.2386,33.38486 -0.5481,3.85 -1.281,9.025 -1.6287,11.5 -0.3477,2.475 -1.0362,4.9275 -1.5298,5.45 -0.4937,0.5225 -0.8976,1.76 -0.8976,2.75 0,0.99 -0.45,1.8 -1,1.8 -0.55,0 -1,0.9 -1,2 0,1.1 -0.45,2 -1,2 -0.55,0 -1,0.9 -1,2 0,1.1 -0.45,2 -1,2 -0.55,0 -1,0.9 -1,2 0,1.1 -0.3937,2 -0.875,2 -0.4812,0 -1.125,1.2375 -1.4306,2.75 -0.6909,3.41949 -6.1245,9.09599 -10.4444,10.91119 -2.094,0.87991 -3.25,2.0616 -3.25,3.32229 0,1.07616 -1.3754,2.97355 -3.0565,4.21643 -2.1149,1.5636 -2.902,2.85089 -2.5548,4.17849 0.3212,1.22827 -0.738,3.43162 -2.9435,6.12314 -1.8948,2.31244 -3.4452,4.72065 -3.4452,5.35155 0,0.6308 -0.45,1.147 -1,1.147 -0.55,0 -1,0.9 -1,2 0,1.1 -0.45,2 -1,2 -0.55,0 -1,0.9 -1,2 0,1.1 -0.45,2 -1,2 -0.55,0 -1,0.9 -1,2 0,1.1 -0.45,2 -1,2 -0.55,0 -1,1.0984 -1,2.441 0,1.3425 -0.45,2.7191 -1,3.059 -0.55,0.3399 -1,1.4915 -1,2.559 0,1.0676 -0.45,1.941 -1,1.941 -0.55,0 -1,1.0984 -1,2.441 0,1.3425 -0.45,2.7191 -1,3.059 -0.55,0.3399 -1,1.6899 -1,3 0,1.3101 -0.45,2.6601 -1,3 -0.55,0.3399 -1,1.6899 -1,3 0,1.3101 -0.45,2.6601 -1,3 -0.55,0.3399 -1,1.4915 -1,2.559 0,1.0676 -0.45,1.941 -1,1.941 -0.55,0 -1,0.8734 -1,1.941 0,1.0675 -0.45,2.2191 -1,2.559 -0.55,0.3399 -1,1.9149 -1,3.5 0,1.5851 -0.45,3.1601 -1,3.5 -0.55,0.3399 -1,1.4976 -1,2.5726 0,1.075 -0.5203,2.9609 -1.1561,4.191 -2.5757,4.9825 -2.8439,5.8466 -2.8439,9.1638 0,1.9 -0.45,3.7327 -1,4.0726 -0.55,0.3399 -1,1.6899 -1,3 0,1.3101 -0.45,2.6601 -1,3 -0.55,0.3399 -1,1.4915 -1,2.559 0,1.0676 -0.45,1.941 -1,1.941 -0.55,0 -1,0.9 -1,2 0,1.1 -0.3989,2 -0.8865,2 -0.4876,0 -1.1349,1.2375 -1.4385,2.75 -0.3036,1.5125 -1.0095,4.55 -1.5687,6.75 -0.5592,2.2 -1.303,5.35 -1.6527,7 -0.8261,3.8967 -3.3995,9.5888 -5.1074,11.2966 -1.5692,1.5693 -1.8044,6.8022 -0.3462,7.7034 1.4569,0.9004 1.2233,2.5 -0.3651,2.5 -0.7509,0 -2.4384,0.837 -3.75,1.8599 -2.4091,1.8788 -4.4958,2.4505 -15.3849,4.2154 -3.3,0.5349 -8.7,1.4241 -12,1.9761 -16.3875,2.7411 -22.2727,3.2556 -37.5,3.2785 -23.4017,0.035 -30.7514,-1.294 -32.8703,-5.9445 -1.3974,-3.0669 -1.4532,-5.3854 -0.1297,-5.3854 0.55,0 1,-1.0984 1,-2.441 0,-1.3425 0.45,-2.7191 1,-3.059 0.55,-0.3399 1,-1.4915 1,-2.559 0,-1.0676 0.45,-1.941 1,-1.941 0.55,0 1.0183,-0.5625 1.0406,-1.25 0.022,-0.6875 1.3724,-2.808 3,-4.7122 1.6277,-1.9042 2.9594,-4.0417 2.9594,-4.75 0,-0.7083 0.45,-1.2878 1,-1.2878 0.55,0 1,-0.9 1,-2 0,-1.1 0.45,-2 1,-2 0.55,0 1.0329,-1.0125 1.0731,-2.25 0.04,-1.2375 0.9354,-3.6 1.9894,-5.25 1.0539,-1.65 2.4195,-4.125 3.0345,-5.5 0.615,-1.375 1.5198,-3.2814 2.0106,-4.2364 0.4908,-0.9551 0.8924,-2.4237 0.8924,-3.2636 0,-3.4134 6.3,-11.5 8.9592,-11.5 0.8718,0 3.2626,-1.3828 5.313,-3.0728 3.5104,-2.8936 3.7278,-2.9485 3.7278,-0.941 0,1.1725 0.45,1.8537 1,1.5138 0.55,-0.3399 1,-1.7347 1,-3.0995 0,-2.3786 1.8286,-5.5483 6.7996,-11.7862 1.7123,-2.1486 2.139,-3.6174 1.6706,-5.75 -0.3892,-1.772 -0.2174,-2.8643 0.4503,-2.8643 0.5937,0 1.0795,-1.0984 1.0795,-2.441 0,-1.3425 0.3981,-2.687 0.8847,-2.9877 1.0273,-0.6349 1.8998,-4.4663 3.0905,-13.5713 0.4676,-3.575 1.3676,-8.525 2.0001,-11 1.4351,-5.6159 2.9564,-13.2679 3.6779,-18.50009 0.3034,-2.2 0.9556,-4.4275 1.4492,-4.95 0.4937,-0.5225 0.8976,-1.76 0.8976,-2.75 0,-0.99 0.3989,-1.8 0.8865,-1.8 0.4876,0 1.1353,-1.2375 1.4394,-2.75 1.2612,-6.27294 1.868,-8.82975 2.4326,-10.25 1.0194,-2.56442 1.1506,-12.93817 0.1712,-13.54346 -1.253,-0.77439 -1.1911,-12.17693 0.07,-12.95654 0.55,-0.33992 1,-1.533 1,-2.65129 0,-1.11829 0.9,-3.17742 2,-4.57584 1.1,-1.39842 2,-3.1569 2,-3.90773 0,-0.75083 0.45,-1.36514 1,-1.36514 0.55,0 1,-0.87344 1,-1.94098 0,-1.06754 0.45,-2.2191 1,-2.55902 0.55,-0.33992 1,-1.91492 1,-3.5 0,-1.58508 0.45,-3.16008 1,-3.5 0.55,-0.33992 1,-1.49148 1,-2.55902 0,-1.06754 -0.45,-1.94098 -1,-1.94098 -0.55,0 -1,-0.9 -1,-2 0,-1.1 -0.45,-2 -1,-2 -0.55,0 -1,-0.87344 -1,-1.94098 0,-1.06754 -0.45,-2.2191 -1,-2.55902 -0.55,-0.33992 -1,-1.71648 -1,-3.05902 0,-1.34254 -0.45,-2.44098 -1,-2.44098 -0.55,0 -1,-0.87344 -1,-1.94098 0,-1.06754 -0.45,-2.2191 -1,-2.55902 -0.55,-0.33992 -1,-1.68992 -1,-3 0,-1.31008 -0.45,-2.66008 -1,-3 -0.55,-0.33992 -1,-1.68992 -1,-3 0,-1.31008 -0.45,-2.66008 -1,-3 -0.55,-0.33992 -1,-2.99734 -1,-5.90538 0,-4.63578 -2.0581,-11.11602 -4,-12.59462 -1.2001,-0.91381 -4,-7.27971 -4,-9.09462 0,-0.98304 -0.4003,-2.03473 -0.8895,-2.33709 -1.8862,-1.16573 -2.6615,-9.94361 -1.5373,-17.40499 0.4078,-2.7067 0.235,-4.75514 -0.4599,-5.45 -0.612,-0.61231 -1.113,-1.9233 -1.113,-2.9133 0,-0.99 -0.45,-1.8 -1,-1.8 -0.55,0 -1,-0.4539 -1,-1.00866 0,-0.55476 -1.35,-2.87228 -3,-5.15004 -1.65,-2.27776 -3,-4.97386 -3,-5.99134 0,-1.01748 -0.4012,-1.84996 -0.8916,-1.84996 -0.4904,0 -1.1739,-1.125 -1.519,-2.5 -0.3451,-1.375 -1.0143,-2.5 -1.4871,-2.5 -0.4728,0 -1.4188,-1.35 -2.1023,-3 -0.6835,-1.65 -1.5658,-3 -1.9608,-3 -0.395,0 -1.2308,-1.125 -1.8572,-2.5 -0.9519,-2.0891 -1.8295,-2.5 -5.3396,-2.5 -4.0474,0 -9.4518,1.29037 -13.0788,3.12276 -0.9551,0.48248 -2.1965,0.87724 -2.7587,0.87724 -0.5622,0 -2.8858,1.35 -5.1636,3 -2.2778,1.65 -4.733,3 -5.4562,3 -0.7231,0 -1.7964,0.9 -2.3851,2 -0.5887,1.1 -2.0895,2 -3.3352,2 -1.2456,0 -2.6923,0.41495 -3.2148,0.92211 -0.5225,0.50716 -4.1,1.12923 -7.95,1.38237 -3.85,0.25315 -9.025,0.99139 -11.5,1.64053 -2.475,0.64915 -6.525,1.57389 -9,2.05499 -2.475,0.4811 -6.3,1.33277 -8.5,1.8926 -2.2,0.55984 -5.35,1.29692 -7,1.63797 -2.9562,0.61103 -6.333,1.85475 -9.7364,3.5861 -0.9551,0.48583 -2.6426,0.88333 -3.75,0.88333 -1.1075,0 -2.0136,0.45 -2.0136,1 0,0.55 -0.9,1 -2,1 -1.1,0 -2,0.35134 -2,0.78076 0,0.42942 -1.4167,1.31549 -3.1481,1.96905 -2.6957,1.01749 -2.9626,1.41182 -1.8575,2.74341 0.7098,0.85531 1.114,1.67812 0.8981,1.82846 -0.2159,0.15035 -1.7077,0.92697 -3.3151,1.72584 -5.45784,2.71248 -6.57744,3.42562 -6.57744,4.18961 0,0.41958 -0.8734,0.76287 -1.9409,0.76287 -1.0676,0 -2.2191,0.45 -2.5591,1 -0.3399,0.55 -1.6899,1 -3,1 -1.31,0 -2.66,0.45 -3,1 -0.3399,0.55 -1.4307,1 -2.4241,1 -0.9934,0 -2.9503,0.9 -4.3487,2 -1.3984,1.1 -3.1984,2 -4,2 -0.8016,0 -2.6016,0.9 -4,2 -1.3984,1.1 -3.4841,2 -4.6349,2 -1.1507,0 -2.0923,0.45 -2.0923,1 0,0.55 -0.9,1 -2,1 -1.1,0 -2,0.45 -2,1 0,0.55 -0.9,1 -2,1 -1.1,0 -2,0.45 -2,1 0,0.55 -0.9,1 -2,1 -1.1,0 -2,0.45 -2,1 0,0.55 -0.8734,1 -1.9409,1 -1.0676,0 -2.2191,0.45 -2.5591,1 -0.3399,0.55 -1.6899,1 -3,1 -1.31,0 -2.66,0.45 -3,1 -0.3399,0.55 -1.4307,1 -2.4241,1 -0.9934,0 -2.9503,0.9 -4.3487,2 -1.3984,1.1 -3.4576,2 -4.5759,2 -1.1183,0 -2.3113,0.45 -2.6513,1 -0.3399,0.55 -1.6899,1 -3,1 -1.31,0 -2.66,0.45 -3,1 -0.3399,0.55 -1.6899,1 -3,1 -1.31,0 -2.66,0.45 -3,1 -0.3399,0.55 -1.6264,1 -2.859,1 -1.2325,0 -2.6685,0.40391 -3.191,0.89757 -0.5225,0.49367 -2.75,1.13243 -4.95,1.41947 -7.4526,0.97237 -11.4874,2.12943 -16.7364,4.79963 -0.955,0.48583 -2.4913,0.88333 -3.414,0.88333 -0.9226,0 -3.3867,0.7541 -5.4758,1.67578 -3.3344,1.47114 -3.9927,2.35645 -5.3908,7.25 -0.876,3.06582 -2.018,6.95617 -2.5378,8.64522 -0.5198,1.68905 -0.9452,4.02499 -0.9452,5.19098 0,1.16599 -0.45,2.3981 -1,2.73802 -0.55,0.33992 -1,1.68992 -1,3 0,1.31008 -0.45,2.66008 -1,3 -0.55,0.33992 -1,1.49148 -1,2.55902 0,1.06754 -0.45,1.94098 -1,1.94098 -0.55,0 -1,0.6 -1,1.33333 0,1.4647 -6.8125,8.66667 -8.198,8.66667 -1.4047,0 -2.2745,-3.34249 -0.9819,-3.77336 0.649,-0.21632 1.1799,-1.45425 1.1799,-2.75096 0,-1.2967 0.45,-2.63576 1,-2.97568 2.0677,-1.27786 0.8804,-2.5 -2.4285,-2.5 -3.5578,0 -6.5715,2.09642 -6.5715,4.57143 0,0.78571 -0.45,1.42857 -1,1.42857 -0.55,0 -1,0.64234 -1,1.42742 0,0.78508 -1.0729,2.24758 -2.3842,3.25 -7.5325,5.75801 -8.9717,6.07425 -9.4322,2.07258 -0.3852,-3.34776 -2.1836,-3.6813 -2.1836,-0.40499 0,3.18123 -2.9872,5.65499 -6.8287,5.65499 l -3.1713,0 0,-7.44098 c 0,-4.26794 -0.4624,-7.72677 -1.0843,-8.11116 -0.5964,-0.3686 -2.2839,0.69287 -3.75,2.35881 -1.9782,2.24778 -3.8578,3.19001 -7.288,3.6533 -4.2252,0.57065 -4.6751,0.42734 -5.2364,-1.66784 -0.951,-3.55025 -0.7516,-6.79213 0.4178,-6.79213 0.5824,0 0.7809,-0.45 0.4409,-1 -0.3399,-0.55 -1.8717,-1 -3.404,-1 -2.7559,0 -4.4183,-1.39302 -6.846,-5.73643 -1.4894,-2.66485 -1.675,-12.88284 -0.25,-13.76357 0.55,-0.33992 1,-1.49148 1,-2.55902 0,-1.06754 0.45,-1.94098 1,-1.94098 0.55,0 1,-1.09844 1,-2.44098 0,-1.34254 0.45,-2.7191 1,-3.05902 0.55,-0.33992 1,-1.68386 1,-2.98654 0,-1.46566 1.1944,-3.30326 3.1334,-4.82072 3.0697,-2.4024 3.2198,-4.69274 0.3076,-4.69274 -0.7925,0 -1.441,-0.45 -1.441,-1 0,-0.55 -0.6061,-1 -1.3469,-1 -0.7409,0 -2.3847,-0.9 -3.6531,-2 -1.2683,-1.1 -3.1106,-2 -4.0939,-2 -0.9834,0 -2.0661,-0.45 -2.4061,-1 -0.3399,-0.55 -1.6899,-1 -3,-1 -1.31,0 -2.66,-0.45 -3,-1 -0.3399,-0.55 -1.4975,-1 -2.5725,-1 -1.075,0 -2.736,-0.3975 -3.691,-0.88333 -6.5201,-3.31677 -10.0121,-4.11406 -22.7365,-5.19117 -9.5183,-0.80572 -21.9055,-1.84194 -47.5,-3.9735 -6.325,-0.52676 -18.475,-1.31077 -27,-1.74223 -8.525,-0.43146 -16.316,-1.16429 -17.3135,-1.6285 -2.4278,-1.1299 -12.2888,3.85579 -14.497,7.32964 -0.9052,1.424 -4.6931,6.07945 -8.4176,10.34544 -6.8537,7.85004 -7.5746,9.1295 -5.7719,10.24365 0.55,0.33992 1,3.23079 1,6.42416 0,3.95175 0.559,6.57007 1.75,8.19808 2.8176,3.85116 4.25,6.73056 4.25,8.54319 0,1.89114 1.7775,7.9081 3.1228,10.571 0.4825,0.95504 0.8772,3.39809 0.8772,5.429 0,3.60427 1.3614,9.08436 3.1228,12.571 0.4825,0.95504 0.8772,2.64864 0.8772,3.76357 0,1.11493 0.3975,2.80853 0.8834,3.76357 3.0242,5.94506 3.2605,7.2511 2.6822,14.82862 -1.8579,24.34419 -1.8428,25.54152 0.3595,28.52036 1.1412,1.54356 2.0749,3.40419 2.0749,4.13473 0,0.73055 1.3318,2.88627 2.9594,4.79049 1.6277,1.90423 2.9777,4.09472 3,4.86782 0.022,0.7731 1.2781,3.0215 2.7906,4.9963 4.9468,6.4588 7.25,10.1618 7.25,11.6562 0,0.808 0.4016,2.2505 0.8924,3.2056 0.4909,0.955 1.5034,3.0516 2.25,4.659 2.3228,5.0003 3.3046,6.5774 4.0948,6.5774 0.4196,0 0.7628,0.9 0.7628,2 0,1.1 0.45,2 1,2 0.55,0 1,0.9 1,2 0,1.1 0.45,2 1,2 0.55,0 1,0.9 1,2 0,1.1 0.45,2 1,2 0.55,0 1.0021,0.5625 1.0045,1.25 0,0.6875 2.526,4.0766 5.6078,7.5313 6.9235,7.7613 18.3877,24.752 18.3877,27.2518 0,1.0169 0.45,2.127 1,2.4669 0.55,0.3399 1,1.6265 1,2.859 0,1.2326 0.4924,2.7334 1.0942,3.3352 1.6508,1.6507 -0.2521,19.6673 -2.2046,20.8741 -0.4893,0.3023 -0.8896,1.4232 -0.8896,2.4907 0,1.0676 -0.45,1.941 -1,1.941 -0.55,0 -1,0.6012 -1,1.3359 0,0.7348 -3.0949,4.2223 -6.8776,7.75 -8.8017,8.2085 -9.7183,8.9141 -11.5801,8.9141 -0.8483,0 -1.5423,0.45 -1.5423,1 0,0.55 -0.8734,1 -1.9409,1 -1.0676,0 -2.2191,0.45 -2.5591,1 -0.3399,0.55 -1.7164,1 -3.059,1 -1.3425,0 -2.441,0.45 -2.441,1 0,0.55 -0.9,1 -2,1 -1.1,0 -2,0.45 -2,1 0,0.55 -0.6811,1 -1.5135,1 -0.8325,0 -2.295,0.3968 -3.25,0.8819 -4.168,2.1167 -12.2078,3.1181 -25.035,3.1181 l -13.7698,0 -5.305,-5.3718 z"
     id="path2987"
     inkscape:connector-curvature="0" />
</svg>
