<?xml version="1.0" encoding="UTF-8" standalone="no"?>
<!-- Created with Inkscape (http://www.inkscape.org/) -->

<svg
   xmlns:dc="http://purl.org/dc/elements/1.1/"
   xmlns:cc="http://creativecommons.org/ns#"
   xmlns:rdf="http://www.w3.org/1999/02/22-rdf-syntax-ns#"
   xmlns:svg="http://www.w3.org/2000/svg"
   xmlns="http://www.w3.org/2000/svg"
   xmlns:sodipodi="http://sodipodi.sourceforge.net/DTD/sodipodi-0.dtd"
   xmlns:inkscape="http://www.inkscape.org/namespaces/inkscape"
   id="svg2"
   version="1.1"
   inkscape:version="0.48.2 r9819"
   width="750.17725"
   height="1015.9346"
   sodipodi:docname="Bearer3.png">
  <metadata
     id="metadata8">
    <rdf:RDF>
      <cc:Work
         rdf:about="">
        <dc:format>image/svg+xml</dc:format>
        <dc:type
           rdf:resource="http://purl.org/dc/dcmitype/StillImage" />
        <dc:title></dc:title>
      </cc:Work>
    </rdf:RDF>
  </metadata>
  <defs
     id="defs6" />
  <sodipodi:namedview
     pagecolor="#ffffff"
     bordercolor="#666666"
     borderopacity="1"
     objecttolerance="10"
     gridtolerance="10"
     guidetolerance="10"
     inkscape:pageopacity="0"
     inkscape:pageshadow="2"
     inkscape:window-width="1600"
     inkscape:window-height="876"
     id="namedview4"
     showgrid="false"
     fit-margin-top="0"
     fit-margin-left="0"
     fit-margin-right="0"
     fit-margin-bottom="0"
     inkscape:zoom="0.70710678"
     inkscape:cx="-318.76593"
     inkscape:cy="509.3488"
     inkscape:window-x="0"
     inkscape:window-y="24"
     inkscape:window-maximized="1"
     inkscape:current-layer="svg2" />
  <path
     style="fill:#000000"
     d="m 611.19867,1015.5681 -10.5,0.3665 -5,-1.9633 c -2.75,-1.0798 -6.042,-1.965 -7.3157,-1.9673 -1.2737,0 -3.0814,-0.4138 -4.0172,-0.9146 l -1.7015,-0.9106 -13.9828,-1.0888 -13.9828,-1.0888 -7,-2.4099 -7,-2.41 -3.25,-3.29247 c -1.7875,-1.8109 -3.25,-3.8076 -3.25,-4.437 0,-0.6295 0.7025,-2.5525 1.561,-4.27343 l 1.5609,-3.12891 2.8434,-2.02473 c 1.5639,-1.11359 3.1429,-2.02472 3.5089,-2.02472 0.366,0 2.7716,-1.43424 5.3457,-3.18719 2.5741,-1.75295 5.4079,-4.00295 6.2974,-5 l 1.6173,-1.81281 2.5161,0 2.5161,0 0.523,-2 0.523,-2 1.9786,0 1.9786,0 1.7899,-2.75 c 0.9844,-1.5125 2.4987,-3.29819 3.365,-3.9682 l 1.5751,-1.21819 2.2997,-0.0318 c 1.2648,-0.0175 3.5905,-0.69933 5.1682,-1.51519 1.5777,-0.81586 6.3685,-2.62589 10.6462,-4.02227 l 7.7777,-2.53888 1.811,-1.63895 c 0.9961,-0.90142 2.8204,-2.13916 4.0541,-2.75053 l 2.2431,-1.11159 0.2963,-2.99816 0.2963,-2.99816 3.938,-1.22903 c 2.1659,-0.67598 5.1868,-1.22905 6.7131,-1.22905 l 2.7753,0 1.2734,-2.03917 1.2735,-2.03918 3.6519,0.28918 3.6518,0.28917 1.2525,-2.5 c 0.6888,-1.375 2.2633,-4.75 3.4987,-7.5 l 2.2462,-5 0.05,-5.68718 0.05,-5.68717 -2.0686,-2.31283 c -1.1377,-1.27205 -2.8484,-4.0206 -3.8016,-6.1079 l -1.7331,-3.79507 0.9237,-2.70493 0.9237,-2.70492 3.8946,0.31684 3.8947,0.31684 2.5547,2.43316 2.5547,2.43316 1.761,0 c 0.9686,0 2.5989,0.44839 3.6229,0.99641 l 1.8618,0.99642 1.3841,-0.53113 1.3841,-0.53114 1.1883,-3.28628 1.1884,-3.28628 0,-5.61998 0,-5.61999 -1,-0.61803 -1,-0.61803 0,-2.31886 c 0,-1.27538 -0.681,-3.94882 -1.5134,-5.94099 -0.8324,-1.99216 -1.8708,-3.62212 -2.3075,-3.62212 -0.4368,0 -1.608,-1.84454 -2.6026,-4.09897 l -1.8085,-4.09897 1.2668,-2.36694 1.2667,-2.36694 -1.0352,-1.28409 c -0.5694,-0.70625 -1.3573,-2.7887 -1.7508,-4.62766 l -0.7155,-3.34357 -2.4,-2.08676 -2.4,-2.08677 0,-4.29115 0,-4.29115 -2.3897,-5.40355 -2.3897,-5.40356 -3.6103,-3.99616 -3.6103,-3.99616 0,-2.06518 0,-2.06518 -3.75,-3.57302 c -2.0625,-1.96516 -8.8125,-8.48437 -15,-14.48714 l -11.25,-10.91412 0,-1.95436 c 0,-1.07489 -0.6823,-3.58735 -1.5162,-5.58324 l -1.5162,-3.62888 -2.9838,-2.65854 -2.9838,-2.65854 0,-1.5137 c 0,-0.83254 -0.4018,-2.89565 -0.893,-4.5847 -0.4912,-1.68905 -1.6615,-5.50889 -2.6006,-8.48853 -0.9392,-2.97964 -2.6748,-6.91157 -3.857,-8.73762 l -2.1494,-3.32009 -2.55,-0.0124 -2.55,-0.0124 -1.2,1.2 -1.2,1.2 0,3.8 0,3.8 -1.4205,0 -1.4205,0 -0.6362,-2.89631 -0.6361,-2.89631 -1.788,-1.61814 -1.7881,-1.61814 -1.32,-3.99987 c -0.7261,-2.19992 -1.8994,-4.48066 -2.6075,-5.0683 l -1.2874,-1.06844 -2.5164,1.83275 -2.5164,1.83276 -0.031,1.83819 -0.031,1.83819 -5.9248,6.56465 -5.9249,6.56465 -1.4699,3.09716 c -0.8084,1.70344 -1.9964,4.24711 -2.64,5.6526 l -1.1701,2.55544 0.3148,1.42082 0.3149,1.42082 -2.5,0.36965 -2.5,0.36966 -2.8547,2.65408 c -1.5701,1.45975 -3.8717,3.66659 -5.1147,4.90409 -1.243,1.2375 -2.578,2.25 -2.9667,2.25 -0.3887,0 -1.2671,0.5625 -1.9519,1.25 -0.6849,0.6875 -1.9979,2.4012 -2.918,3.80822 l -1.6727,2.55822 -4.9692,1.27358 -4.9693,1.27357 -0.655,2.06375 -0.655,2.06375 -5.6364,5.90503 -5.6364,5.90503 -2.3148,4.09158 c -1.2731,2.25037 -3.2981,4.91264 -4.5,5.91616 -1.2019,1.00351 -2.696,1.83954 -3.3202,1.85784 l -1.135,0.0333 -1.5408,2.25 c -0.8475,1.2375 -2.9232,3.825 -4.6127,5.75 l -3.0718,3.5 0,2.19098 0,2.19099 1,0.61803 1,0.61803 0.01,1.69099 0.01,1.69098 3.4655,4.35941 3.4655,4.3594 0.6173,3.29073 c 0.3396,1.8099 0.4593,4.11187 0.266,5.11548 l -0.3514,1.82475 -2.2796,1.13646 c -1.2537,0.62505 -2.9229,1.98635 -3.7093,3.02511 l -1.4298,1.88866 -0.032,2.19098 -0.032,2.19099 1.0307,0.63699 1.0307,0.637 -0.6072,3.23615 -0.6071,3.23615 1.5765,1.30832 1.5764,1.30831 0,4.28866 0,4.28866 -2.9237,2.3389 c -1.6081,1.28639 -4.7043,3.62228 -6.8806,5.19087 l -3.9568,2.85198 -3.1518,6.27213 -3.1517,6.27213 0.2823,4.36672 0.2823,4.36672 -2.25,0.9963 -2.25,0.9963 0,3.14042 0,3.14043 -1.487,1.23411 -1.487,1.23411 -2.513,-0.63071 -2.5144,-0.63075 0,-1.34609 c 0,-0.74035 -0.8662,-2.44734 -1.9249,-3.79331 l -1.925,-2.44722 0.8332,-1.34816 0.8332,-1.34817 -0.7916,-1.58947 c -0.4353,-0.87422 -1.2643,-2.71448 -1.8421,-4.08948 -0.5778,-1.375 -1.5769,-4.3 -2.2202,-6.5 -0.6433,-2.2 -1.7794,-5.125 -2.5247,-6.5 -0.7453,-1.375 -2.432,-4.525 -3.7482,-7 -1.3162,-2.475 -3.4723,-6.49706 -4.7914,-8.9379 l -2.3983,-4.43791 -9.5,-10.56471 c -5.225,-5.81059 -11.4963,-13.48853 -13.9363,-17.0621 -2.4399,-3.57356 -7.1649,-10.09738 -10.5,-14.49738 -3.335,-4.4 -6.3184,-8.225 -6.6298,-8.5 -0.3114,-0.275 -2.9477,-4.1 -5.8584,-8.5 -2.9107,-4.4 -6.5503,-9.35 -8.088,-11 l -2.7957,-3 -5.0959,-11.22233 c -2.8027,-6.17228 -5.0959,-11.74588 -5.0959,-12.38578 0,-0.6399 -1.9125,-4.98889 -4.25,-9.66443 l -4.25,-8.50099 -4.25,-3.4837 -4.25,-3.48369 0,-1.37954 0,-1.37954 -0.8671,0 c -0.4769,0 -2.0519,-1.79035 -3.5,-3.97856 l -2.6329,-3.97856 0,-3.28288 0,-3.28287 -3.4401,-4.98857 c -1.8921,-2.74371 -4.3284,-6.78856 -5.4141,-8.98856 l -1.974,-4 -2.5859,-2.42431 -2.5859,-2.42432 0,-2.07893 0,-2.07893 -3,-2.83152 -3,-2.83152 0,-3.41524 0,-3.41523 -0.8144,0 c -0.448,0 -1.798,-1.84253 -3,-4.0945 l -2.1856,-4.0945 -0.022,-2.6555 -0.022,-2.6555 -1.9556,-2.5 c -1.0755,-1.375 -1.9655,-3.18135 -1.9777,-4.01412 -0.012,-0.83276 -0.9223,-3.97641 -2.0223,-6.98588 l -2,-5.47177 0,-4.06411 0,-4.06412 -0.8381,-0.95 c -0.46105,-0.5225 -1.81105,-3.6962 -3.00004,-7.05267 -1.189,-3.35647 -2.16181,-7.0478 -2.16181,-8.20295 0,-1.15515 0.51383,-3.22801 1.14185,-4.60636 l 1.14185,-2.50609 -1.6048,-2.44924 -1.60481,-2.44924 -3.19068,-1.59173 c -1.75488,-0.87544 -3.90905,-1.57741 -4.78705,-1.55992 -0.878,0.0175 -2.38386,0.6296 -3.34636,1.36025 l -1.75,1.32844 0,2.53276 0,2.53277 -1.58125,0.60679 -1.58125,0.60678 -2.14126,-1.4998 -2.14125,-1.49979 -2.2775,0 -2.27749,0 0,2 0,2 4,0 4,0 0,0.97432 0,0.97432 2.75,1.50531 c 1.5125,0.82792 3.75876,2.37107 4.99168,3.42923 l 2.24168,1.92393 0.4407,7.84645 0.4407,7.84644 1.56762,4.37573 c 0.86219,2.40665 1.56762,5.19137 1.56762,6.18828 l 0,1.81255 3,3.28458 3,3.28458 0,1.71812 0,1.71813 1,0.61803 c 0.55,0.33992 1,1.27773 1,2.08402 l 0,1.46598 -3.04345,0.60869 -3.04346,0.60869 -1.44568,2.79564 -1.44568,2.79564 0.63756,3.32067 0.63756,3.32067 1.85158,2.65437 1.85157,2.65437 0,2.55162 0,2.55163 3.09179,5.24368 c 1.70048,2.88403 4.40046,6.83136 5.99996,8.77185 l 2.9082,3.52817 0,1.61717 0,1.61716 2,1.80998 c 1.1,0.99549 2,2.33104 2,2.9679 0,0.63685 1.35,2.4513 3,4.0321 l 3,2.87418 0.032,2.06291 0.032,2.06291 1.399,1.8464 1.3989,1.84639 0.6985,6.65361 0.6986,6.6536 1.8344,4 c 1.0089,2.2 2.2897,6.025 2.8463,8.5 0.5565,2.475 1.0228,6.0975 1.0363,8.05 l 0.024,3.55 0.9912,0.99119 c 0.5451,0.54516 1.402,2.99766 1.9042,5.45 0.5021,2.45235 1.4664,6.03381 2.1428,7.95881 0.6764,1.925 1.6196,4.28139 2.0958,5.23643 l 0.866,1.73643 0,4.6092 0,4.6092 1.8688,2.65437 c 1.0278,1.4599 2.1997,3.77937 2.6041,5.15437 0.4044,1.375 1.2895,3.4 1.9668,4.5 0.6774,1.1 1.5034,3.06977 1.8356,4.37727 l 0.604,2.37727 -1.4533,2.218 -1.4533,2.21799 1.5271,3.65474 1.527,3.65473 1.4866,0 1.4866,0 0,3.59879 0,3.59879 3,2.80242 3,2.80242 0,3.02206 0,3.02207 2.5,2.97108 2.5,2.97108 0,2.03307 0,2.03306 2.6863,2.11302 2.6862,2.11301 -1.2723,3.51843 -1.2722,3.51842 1.5331,3.19114 c 0.8432,1.75513 2.9306,4.70736 4.6386,6.56053 l 3.1056,3.36938 3.7773,-0.604 3.7772,-0.60401 1.8603,1.36027 1.8602,1.36026 -0.1717,8.07672 -0.1718,8.07671 0.9816,0.60666 0.9816,0.60665 0,2.48083 0,2.48082 2.1322,4.17948 c 1.1727,2.29871 3.0821,5.46421 4.243,7.03443 l 2.1107,2.85496 -1.8271,1.02249 -1.8271,1.02249 0.5834,2.32447 c 0.3209,1.27845 1.039,6.71776 1.5958,12.08736 l 1.0124,9.76289 1.41,1.56587 1.41,1.56588 -0.9511,5 -0.9511,5 0.6407,9 0.6407,9.00003 -3.0987,3.2278 -3.0988,3.22777 -2.7625,0.6049 c -1.5194,0.3327 -3.9375,0.9724 -5.3736,1.4217 l -2.6111,0.8169 -68.3889,-0.8736 -68.38891,-0.8735 -20.20904,-0.9689 -20.20904,-0.9689 -1.8276,-0.97807 c -1.00518,-0.5379 -5.54214,-1.6827 -10.08214,-2.544 -4.54,-0.8612 -9.15185,-2.046 -10.24854,-2.633 l -1.994,-1.0671 0.49314,-3.19604 c 0.27123,-1.7578 0.76944,-5.78349 1.10714,-8.94599 l 0.61399,-5.75 1.69591,0 1.69591,0 3.67908,-2.5 c 2.0235,-1.375 4.11481,-2.5 4.64737,-2.5 0.53256,0 2.24393,-1.35912 3.80305,-3.02027 l 2.83477,-3.02027 4,-1.04823 c 2.2,-0.57653 5.18746,-1.55511 6.63881,-2.17463 l 2.63881,-1.12639 1.86119,-2.41567 c 1.02365,-1.32861 4.52002,-5.29091 7.7697,-8.8051 l 5.9085,-6.38944 11.0429,0 11.04289,0 5.25347,-3.18393 5.25347,-3.18394 1.1294,-3.06606 c 0.62117,-1.68634 1.7367,-4.19107 2.47896,-5.56607 l 1.34956,-2.5 7.5987,-1.06824 7.59869,-1.06824 1.54105,-1.54105 1.54105,-1.54105 0.98797,-3.89071 c 0.54338,-2.13989 1.03175,-4.34071 1.08525,-4.89071 0.0535,-0.55 -0.2303,-4.71468 -0.63069,-9.25485 l -0.72797,-8.25485 1.63636,-0.62793 1.63636,-0.62794 1.13279,1.13279 1.13274,1.13278 3.74098,0 3.74099,0 0.61803,1 0.61803,1 2.25243,0 2.25242,0 2.25877,-2.10441 2.2589,-2.10441 -0.6449,-3.81691 -0.6449,-3.81691 1.6576,-2.52972 1.6575,-2.52971 -0.7149,-2.25233 c -0.3931,-1.23877 -1.3304,-2.86795 -2.0829,-3.62039 l -1.3681,-1.36807 0,-5.20606 0,-5.20607 -1.6478,-2.4725 C 298.64973,857.61263 296.24435,854.7 294.21074,852.5 l -3.69749,-4 -1.33489,-3.5 c -0.73419,-1.925 -2.62895,-5.41761 -4.21057,-7.76136 l -2.87568,-4.26136 -2.85646,-2.11187 -2.85646,-2.11187 -1.08769,-4.31962 c -0.59824,-2.3758 -2.07264,-6.03284 -3.27645,-8.12677 -1.20382,-2.09393 -3.83072,-5.83215 -5.83755,-8.30715 -2.00684,-2.475 -4.78219,-6.75 -6.16743,-9.5 -1.38525,-2.75 -3.65425,-7.475 -5.04221,-10.5 -1.38796,-3.025 -3.47768,-7.45503 -4.64381,-9.8445 -1.16612,-2.38948 -2.12023,-5.11387 -2.12023,-6.05422 l 0,-1.70972 -3,-4.73051 c -1.65,-2.60178 -3,-5.39599 -3,-6.20935 0,-0.81336 -0.52026,-2.48523 -1.15613,-3.71527 -0.63587,-1.23004 -1.62888,-3.13643 -2.20668,-4.23643 -0.57781,-1.1 -2.37771,-4.475 -3.99979,-7.5 -1.62208,-3.025 -3.75405,-7.075 -4.7377,-9 -0.98366,-1.925 -2.92564,-4.79253 -4.31551,-6.37228 -1.38987,-1.57976 -2.77986,-3.66886 -3.08887,-4.64246 l -0.56183,-1.77017 -2.96674,-1.22886 -2.96675,-1.22887 -0.0199,-1.12868 c -0.011,-0.62077 -2.51857,-4.49728 -5.57248,-8.61446 -3.05391,-4.11718 -5.99096,-7.75673 -6.5268,-8.08789 -0.53583,-0.33116 -1.83054,-2.13756 -2.87713,-4.01422 -1.04659,-1.87666 -2.98669,-5.66211 -4.31134,-8.41211 -1.32464,-2.75 -2.71405,-6.668 -3.08756,-8.70667 l -0.67913,-3.70667 -2.46281,-1.93725 -2.46282,-1.93725 0,-1.54706 c 0,-0.85089 -0.45,-1.82518 -1,-2.1651 l -1,-0.61803 0,-2.62441 0,-2.6244 -2.12634,-6.06658 c -1.16949,-3.33662 -2.47549,-6.51658 -2.90223,-7.06658 -0.42673,-0.55 -1.29089,-3.025 -1.92034,-5.5 -0.62944,-2.475 -2.43426,-7.2 -4.0107,-10.5 -1.57644,-3.3 -3.35543,-7.52965 -3.95332,-9.39922 l -1.0871,-3.39923 0,-10.30372 0,-10.30372 0.91211,-2.29706 c 0.50166,-1.26338 1.86,-4.77205 3.01852,-7.79705 l 2.10641,-5.5 3.23148,-1.89657 3.23148,-1.89657 9,-0.76846 9,-0.76846 2.7422,-1.33497 c 1.50821,-0.73423 2.74571,-1.67247 2.75,-2.08497 l 0.008,-0.75 1.95528,0 1.95528,0 5.3645,-5.25 5.3645,-5.25 2.90151,-5 c 1.59582,-2.75 4.26482,-6.8 5.9311,-9 1.66627,-2.2 5.22907,-6.025 7.91731,-8.5 l 4.88772,-4.5 6.1114,-8.833 c 3.36127,-4.85815 7.38229,-11.15815 8.9356,-14 1.55331,-2.84185 3.74327,-6.15185 4.86658,-7.35555 l 2.04238,-2.18854 -0.56107,-3.31146 c -0.3086,-1.8213 -0.95881,-5.41005 -1.44493,-7.975 l -0.88385,-4.66355 -1.61727,-2.46826 -1.61727,-2.46827 -1.52872,-7.86818 C 255.94327,473.04068 254.76669,467.025 254.16944,464 c -0.59725,-3.025 -1.30051,-6.85 -1.56279,-8.5 -0.26228,-1.65 -0.71193,-4.90712 -0.99923,-7.23805 l -0.52236,-4.23806 -1.51195,-1.51194 C 248.74154,441.68038 247.39682,441 246.58484,441 l -1.47632,0 -2.37493,2.56259 -2.37492,2.56259 -0.6681,4.18741 c -0.36745,2.30308 -1.36395,6.43741 -2.21446,9.18741 -0.8505,2.75 -2.18124,6.52304 -2.9572,8.38454 l -1.41085,3.38454 -5.70202,-0.5379 -5.70202,-0.53789 -3,-1.59048 c -1.65,-0.87477 -3.58485,-1.59326 -4.29966,-1.59665 -0.71481,-0.003 -2.73981,-0.74248 -4.5,-1.64243 -1.76019,-0.89996 -4.80547,-3.03746 -6.7673,-4.75 -1.96183,-1.71255 -4.88683,-4.16624 -6.5,-5.45263 -1.61317,-1.2864 -4.50804,-3.06758 -6.43304,-3.95818 -1.925,-0.8906 -4.5125,-2.50404 -5.75,-3.58541 -1.2375,-1.08138 -2.25,-2.49934 -2.25,-3.15103 0,-0.6517 -1.83824,-3.27326 -4.08499,-5.82569 L 174.03405,434 l -3.26003,0 -3.26002,0 -1.77351,1.95971 -1.77351,1.9597 0.62968,2.50884 0.62968,2.50885 -2.78262,1.43895 -2.78261,1.43894 -2.43912,-1.30537 -2.43911,-1.30538 -1.21335,-3.35212 c -0.66735,-1.84366 -1.24759,-4.61614 -1.28943,-6.16106 l -0.0761,-2.80894 -2.91524,-8.69106 -2.91525,-8.69106 -0.70326,-5.7763 -0.70327,-5.77631 -1.99629,-1.39825 -1.99629,-1.39826 -1.30788,0.50188 c -0.71934,0.27603 -1.50062,1.02958 -1.73618,1.67456 -0.23557,0.64497 -0.0468,6.34768 0.41955,12.67268 0.46633,6.325 1.09246,14.65 1.3914,18.5 0.29895,3.85 0.97536,8.30465 1.50313,9.89922 0.52777,1.59458 0.95958,3.97291 0.95958,5.28519 l 0,2.38596 -1.40701,2.21481 -1.40701,2.21482 0.73737,7.5 0.73737,7.5 -0.93851,3.47145 -0.93851,3.47144 1.54586,3.02856 1.54586,3.02855 0.50507,4 c 0.27778,2.2 1.23912,9.4 2.13631,16 l 1.63124,12 -0.49751,10.61741 -0.49752,10.61741 0.83639,3.88259 c 0.46002,2.13543 1.10059,8.76306 1.42349,14.72807 0.32291,5.96502 0.85089,11.27231 1.1733,11.79398 l 0.5862,0.94849 -1.55056,2.36646 -1.55057,2.36647 1.96437,2.49729 1.96437,2.49729 0,5.62745 0,5.62746 1.5862,2.42084 1.58619,2.42084 -0.82988,1.29397 L 151.71662,595.5 151.478,606 c -0.13125,5.775 -0.48912,14.1 -0.79527,18.5 -0.30615,4.4 -0.52298,10.25 -0.48184,13 0.0411,2.75 0.50616,6.575 1.03338,8.5 0.52722,1.925 0.96109,4.81457 0.96415,6.42126 l 0.006,2.92126 -1.5695,1.73428 -1.5695,1.73428 1.41758,4.1936 1.41758,4.19361 -1.12781,3.15085 c -0.62029,1.73297 -1.7339,4.24024 -2.47469,5.57169 l -1.34688,2.42084 1.62661,1.18941 1.62661,1.18941 0,1.48477 0,1.48476 -2.01414,1.82277 -2.01413,1.82277 0.61776,2.08222 c 0.33978,1.14522 1.53302,3.95892 2.65166,6.25266 l 2.03389,4.17044 -0.61189,1.59457 -0.6119,1.59457 -2.45805,0.93455 -2.45805,0.93455 0.0203,3.30044 c 0.0112,1.81524 -0.30101,5.65773 -0.69369,8.53886 l -0.71396,5.23842 1.20243,2.90294 1.20244,2.90294 -1.23629,1.97961 -1.23629,1.97962 2.07221,2.91015 2.07221,2.91015 -1.02291,1.82783 -1.0229,1.82784 1.18703,2.218 1.18704,2.21799 -1.64812,5.92305 c -0.90646,3.25767 -1.6072,6.37304 -1.5572,6.92304 0.05,0.55 0.43202,4.06147 0.84893,7.80328 l 0.75802,6.80327 1.06053,0.69673 c 0.58329,0.38319 1.33598,1.78397 1.67263,3.11282 l 0.61211,2.41611 -1.94982,2.73826 -1.94982,2.73827 0.10021,9.84563 c 0.0551,5.4151 0.4203,14.34563 0.81151,19.84563 l 0.7113,10 -0.83301,2.37164 -0.833,2.37163 0.9298,1.12837 0.9298,1.12836 0.56587,8.5 c 0.31122,4.675 0.7447,10.44471 0.96328,12.82159 l 0.39742,4.32159 1.12841,1.12841 1.12796,1.12841 0,3.7349 0,3.7349 1.14848,2.8151 1.14848,2.8151 -0.20877,9.3023 -0.20877,9.30231 1.15061,3.4864 1.15062,3.48639 -0.95244,1.2113 c -0.52384,0.66622 -1.26134,2.50172 -1.63889,4.07889 l -0.68645,2.8676 1.41461,1.6324 1.41462,1.63241 0.84553,5.5 0.84553,5.5 -0.12183,14 c -0.067,7.7 -0.40281,16.7 -0.74621,20 l -0.62437,6 -2.09999,6.77865 -2.09998,6.77864 0.61397,6.22136 c 0.33769,3.42174 0.89976,8.29655 1.24906,10.8329 l 0.63508,4.61158 -2.39867,0.4585 -2.39868,0.4586 -8.96577,-0.8662 -8.96577,-0.8662 -2.82491,-3.20395 -2.82491,-3.20388 0.70189,-6.5 c 0.38605,-3.575 0.7517,-13.025 0.81257,-21 l 0.11066,-14.5 -1.23366,-7.2473 -1.23365,-7.24731 1.36534,-3.96295 1.36535,-3.96295 -0.16128,-28.28975 -0.16129,-28.28974 0.78345,-2.29275 0.78345,-2.29275 -1.51995,-13.70725 c -0.83597,-7.53899 -2.00227,-15.21399 -2.59178,-17.05555 l -1.07183,-3.34831 -0.2605,-15.15169 c -0.14328,-8.33344 -0.51064,-15.8267 -0.81636,-16.6517 -0.30571,-0.825 -0.81979,-3.38819 -1.1424,-5.69597 l -0.58655,-4.19597 1.16317,-2.55288 1.16317,-2.55288 -1.29367,-5.39261 -1.29366,-5.39261 2.75416,-3.6109 2.75417,-3.6109 -1.08488,-1.30719 -1.08487,-1.30719 -0.11056,-6.44045 C 124.10387,751.3982 123.83483,745.8 123.56682,742.5 c -0.26801,-3.3 -0.71118,-11.26683 -0.98482,-17.70407 l -0.49753,-11.70407 1.26272,-2.29593 1.26273,-2.29593 0.20911,-17.69685 0.20911,-17.69686 1.81566,-3.07367 1.81566,-3.07366 -1.22773,-1.96591 -1.22773,-1.96591 0,-4.57931 0,-4.57931 1.14042,-2.1309 1.14042,-2.1309 0.46269,-15.05336 c 0.25448,-8.27935 0.4238,-16.85336 0.37628,-19.05336 -0.0475,-2.2 -0.43143,-8.98417 -0.85311,-15.07594 l -0.7667,-11.07594 -1.75,-1.74549 -1.75,-1.74549 0,-2.86955 0,-2.86956 1,-0.61803 1,-0.61803 0,-2.28735 0,-2.28734 -1.59374,-3.19474 -1.59374,-3.19473 0.68653,-5.2089 0.68653,-5.20891 -0.14077,-15.5 -0.14076,-15.5 -1.43987,-11.5 -1.43986,-11.5 0.0307,-9 c 0.0169,-4.95 -0.0463,-11.925 -0.14047,-15.5 -0.0941,-3.575 -0.0142,-10.325 0.17764,-15 l 0.34883,-8.5 -0.86146,-6.71078 -0.86146,-6.71078 1.23205,-4.40046 1.23205,-4.40047 -1.95842,-3.88875 -1.95843,-3.88876 -0.49476,-9.03294 -0.49476,-9.03295 -1.55261,-2.96705 c -0.85393,-1.63188 -3.20896,-4.54206 -5.23339,-6.46706 -2.02443,-1.925 -4.98783,-5.38108 -6.58532,-7.68018 l -2.90451,-4.18017 0,-3.18535 0,-3.18535 -4.14454,-3.78848 -4.14455,-3.78849 0.5598,-4.17361 0.5598,-4.1736 1.67488,-1.85072 1.67488,-1.85072 -0.63186,-1.99082 -0.63187,-1.99081 -4.18644,-0.7073 -4.18643,-0.70729 -2.27184,-1.48857 -2.27183,-1.48856 0,-2.18499 0,-2.18499 1.2,-1.2 1.2,-1.2 2.36461,0 2.36462,0 5.18539,-2.15519 c 2.85196,-1.18536 6.04834,-2.96082 7.10308,-3.94548 l 1.91769,-1.79028 -1.29014,-1.55452 -1.29014,-1.55453 -2.12755,-0.0318 -2.12756,-0.0318 -1.75,-1.32844 -1.75,-1.32844 0,-2.47309 c 0,-1.3602 -0.29842,-2.77151 -0.66316,-3.13625 l -0.66316,-0.66315 0.23044,-12.28618 0.23044,-12.28617 -2.15648,-5.7637 -2.15648,-5.7637 0.53421,-1.39213 0.53421,-1.39213 4.04729,-2.3115 4.04729,-2.31151 0.008,-1.80423 0.008,-1.80424 -3.01709,-3.19576 -3.01709,-3.19577 -1.12762,-3.70468 -1.12762,-3.70467 1.66776,-2.54533 1.66777,-2.54532 5.12395,0 5.12396,0 4.27128,3.5 4.27129,3.5 1.33171,-7.8e-4 1.3317,-7.8e-4 3.93165,-3.49922 3.93166,-3.49922 1.56834,0.0354 c 0.86259,0.0195 2.54305,0.58198 3.73436,1.25 1.1913,0.66801 3.04304,2.33956 4.11497,3.71456 1.07193,1.375 3.14231,4.8625 4.60084,7.75 l 2.65187,5.25 1.37617,0 1.37616,0 0.55857,-1.45561 0.55858,-1.45562 -1.02009,-6.29438 -1.02009,-6.29439 0.50522,-2.55857 0.50522,-2.55857 -0.97547,-4.34148 -0.97546,-4.34148 -2.09762,-2.94583 -2.09761,-2.94582 0.0291,-3.65413 0.0291,-3.65412 1.60114,-3 1.60113,-3 -0.0158,-10 -0.0158,-10 -1.92105,-4.23192 -1.92105,-4.23191 -4.68091,-5.00427 -4.68091,-5.00427 -6.60984,-3.123 -6.60984,-3.123 -6.12636,-6.34111 c -3.36949,-3.48761 -8.54984,-8.40976 -11.51188,-10.93811 l -5.38552,-4.597 -7.69014,0.67082 -7.69015,0.67082 -5.31421,-1.71213 c -2.92283,-0.94167 -6.69617,-2.12226 -8.38522,-2.62353 C 58.94395,158.41013 55.54645,158 53.083,158 l -4.479,0 -1.2,1.2 -1.2,1.2 0,2.74098 0,2.74099 -0.97336,0.60156 -0.97336,0.60157 -1.77664,-2.06483 c -0.97715,-1.13565 -2.01188,-3.02471 -2.29939,-4.19791 l -0.52274,-2.13308 -1.59134,-1.00379 -1.59133,-1.00378 -1.76397,0.6769 -1.76398,0.6769 0.49367,4.37981 0.49367,4.37982 2.13438,2.29099 c 1.17391,1.26005 2.13439,2.88114 2.13439,3.60243 l 0,1.31144 -1.78778,0 -1.78777,0 -3.23958,-2.75 -3.23957,-2.75 -1.85784,-4.96173 -1.85783,-4.96173 -0.98594,-0.32864 -0.98593,-0.32865 -1.12888,4.4832 c -0.62089,2.46575 -1.12888,5.60736 -1.12888,6.98135 l 0,2.49817 -0.79775,0.49303 -0.79775,0.49303 -0.95384,-0.68401 C 17.13004,171.80781 16.15111,170.375 15.47927,169 l -1.22155,-2.5 -0.27686,-3.9227 -0.27686,-3.9227 -1.24984,-0.41058 -1.24984,-0.41058 -1.96463,4.58328 L 7.27507,167 l -1.53554,0 -1.53553,0 0,-5.77749 0,-5.7775 1.70747,-2.4725 c 0.93911,-1.35988 3.29719,-3.90193 5.24018,-5.649 l 3.53271,-3.17648 -0.67501,-0.67501 L 13.33433,142.797 7.254,146.55 1.17366,150.303 0.58683,149.71617 0,149.12934 l 1.5382,-2.19609 1.5382,-2.19609 5.8138,-3.90566 c 3.19759,-2.14811 8.55696,-5.19234 11.90972,-6.76497 l 6.09592,-2.85931 2.15408,-2.73847 c 1.18474,-1.50616 2.15408,-3.32988 2.15408,-4.05272 l 0,-1.31425 -3.5,-2.66958 -3.5,-2.66958 0,-1.41685 0,-1.41684 4.5,-1.92893 4.5,-1.92893 0,-1.20679 c 0,-0.66374 -0.74545,-2.03051 -1.65655,-3.03726 l -1.65654,-1.83046 1.87435,-3.48047 1.87436,-3.480474 -1.2371,-1.23709 -1.23709,-1.2371 -10.73072,-0.04 -10.73071,-0.04 -2.25,-1.27587 -2.25,-1.27587 0,-3.241959 0,-3.241954 2.94314,-3.222332 2.94315,-3.222332 11.30685,-5.40426 C 28.61591,71.624457 35.347,68.474218 37.35512,67.59627 39.36325,66.718321 41.96487,66 43.13651,66 l 2.13026,0 0.58049,-1.512735 0.58049,-1.512735 -1.26149,-1.519995 -1.26148,-1.519995 -5.85039,0.661896 -5.85039,0.661897 0,-1.954853 0,-1.954852 2.25,-2.067863 2.25,-2.067864 5,-2.05829 c 2.75,-1.13206 6.8976,-2.543295 9.21689,-3.136079 l 4.21689,-1.077789 0.78311,-1.359267 c 0.43071,-0.747597 3.04649,-3.096764 5.81285,-5.220371 2.76635,-2.123608 6.4335,-4.853543 8.14921,-6.066524 l 3.11946,-2.205419 5.85079,-1.943195 5.8508,-1.943196 7.5,-0.667762 c 4.125,-0.36727 9.78329,-1.302438 12.57399,-2.078152 l 5.07398,-1.41039 1.77398,-1.96022 1.77397,-1.96022 -0.65698,-1.063014 L 112.08597,18 l -2.3592,0 c -1.29756,0 -3.071,-0.273145 -3.94098,-0.606989 l -1.58179,-0.606989 0,-1.301218 0,-1.301218 12.35754,-0.116191 12.35754,-0.116191 5.39246,1.44471 c 2.96585,0.794591 8.09246,2.334803 11.39246,3.422693 3.3,1.087891 10.05,4.022245 15,6.520787 4.95,2.498543 12.07695,5.932217 15.83766,7.630387 l 6.83767,3.087582 7.42314,5.009081 7.42313,5.009082 2.69429,4.071341 2.69429,4.071341 -0.12321,3.640896 c -0.0678,2.002493 -0.42626,5.259601 -0.79665,7.238017 l -0.67344,3.597122 1.49718,4.402878 c 0.82344,2.421584 2.2565,6.427879 3.18456,8.902879 0.92807,2.475 2.07288,5.4 2.54402,6.5 0.47115,1.1 1.53073,4.025 2.35463,6.499996 0.8239,2.475 3.28215,9.552184 5.46279,15.727074 2.18064,6.17489 5.0167,13.11683 6.30237,15.42654 1.28566,2.30971 2.82198,4.3565 3.41404,4.54842 l 1.07647,0.34895 2.86761,-2.65761 c 1.57719,-1.46168 4.42044,-3.30642 6.31833,-4.09941 l 3.45073,-1.4418 4.85519,0.66776 c 2.67036,0.36726 4.8552,0.46277 4.8552,0.21223 0,-0.25053 -1.35,-3.43288 -3,-7.07188 -1.65,-3.63899 -3,-7.30734 -3,-8.15188 0,-0.84454 -0.41519,-2.31692 -0.92264,-3.27196 -0.50745,-0.95504 -1.88292,-4.90264 -3.0566,-8.772464 l -2.13396,-7.036028 0.95604,-2.514584 0.95605,-2.514584 -0.48895,-2.557771 -0.48895,-2.557771 2.12807,-4.391614 C 242.32349,72.476226 244.3761,68.475 245.71439,66 l 2.43327,-4.5 0.0282,-8.702947 0.0282,-8.702947 1.22337,-2.797053 C 250.10022,39.758674 251.82809,36.925 253.26709,35 c 1.439,-1.925 5.84414,-7.775 9.78921,-13 l 7.17284,-9.5 4.23743,-3.1136906 4.23743,-3.11369 6.5,-2.069351 c 3.575,-1.138144 8.64396,-2.5494829 11.26435,-3.13631 L 301.23267,0 l 6.7357,0.056703 c 3.7046,0.031187 13.9356,0.6949857 22.7356,1.4751082 8.8,0.7801225 18.7,1.8812312 22,2.4469082 3.3,0.565677 9.6,1.512134 14,2.103237 l 8,1.074733 7,-0.600708 7,-0.600709 2.7362,0.77376 2.7362,0.77376 4.5928,4.4509656 4.5928,4.450966 1.5284,2.955614 1.5284,2.955614 0.3888,9.592024 c 0.2139,5.275613 0.3906,10.19898 0.3926,10.940814 l 0,1.34879 3.1058,2.90121 3.1058,2.90121 1.7694,0 c 0.9731,0 5.1411,1.536542 9.2621,3.414539 l 7.4927,3.414539 3.3821,2.919574 c 1.8602,1.605766 7.6571,6.022889 12.8821,9.81583 5.225,3.79294 12.65,9.428851 16.5,12.524248 3.85,3.095396 10.1479,7.734544 13.9952,10.309216 3.8473,2.57467 9.4457,6.80091 12.4409,9.391634 2.9953,2.59073 7.5609,6.79551 10.1458,9.34394 l 4.7,4.63352 5.1091,7.57132 c 2.81,4.16423 5.109,8.03035 5.109,8.59139 0,0.56105 1.5903,3.96539 3.534,7.56522 l 3.5339,6.54515 1.0643,4.72994 c 0.5853,2.60147 1.2905,8.68708 1.5671,13.52358 l 0.503,8.79364 -2.1436,9.20636 c -1.1789,5.0635 -3.0742,12.01986 -4.2116,15.45858 l -2.0682,6.25223 0.3718,10.86141 0.3718,10.86141 5.7388,11.15491 5.7387,11.15491 0,1.9671 c 0,1.08191 0.5102,4.11107 1.1337,6.73146 0.6235,2.62039 1.4892,5.66435 1.9238,6.76435 0.4346,1.1 1.0472,4.925 1.3614,8.5 l 0.5712,6.5 -1.3856,2.65333 c -0.762,1.45933 -1.9236,4.38433 -2.5812,6.5 -0.6577,2.11567 -1.8621,5.32815 -2.6764,7.13884 -0.8144,1.81069 -1.9519,5.63569 -2.5279,8.5 -0.5759,2.86431 -1.2584,8.79981 -1.5165,13.19 l -0.4693,7.98217 1.1974,4.01783 c 0.6586,2.20981 1.5522,4.91783 1.9859,6.01783 0.4337,1.1 1.8221,4.7 3.0852,8 1.2632,3.3 3.7513,8.49819 5.5291,11.55154 l 3.2324,5.55154 9.6874,9.94846 9.6873,9.94846 5.1311,7.3933 c 2.8221,4.06631 5.8455,8.56631 6.7187,10 0.8731,1.43368 2.7941,5.9817 4.2687,10.1067 l 2.6812,7.5 3.3941,5 c 1.8668,2.75 4.5263,7.05415 5.91,9.56478 1.3837,2.51063 3.6729,7.87658 5.0871,11.92433 1.4142,4.04775 2.5712,8.16983 2.5712,9.16018 0,0.99034 1.35,4.74816 3,8.35071 l 3,6.55008 0,3.60894 c 0,1.98492 0.487,5.46115 1.0821,7.72496 0.5951,2.26381 1.7475,6.36602 2.5609,9.11602 0.8133,2.75 1.7129,7.25 1.9989,10 l 0.5201,5 2.167,4.42653 2.1671,4.42653 3.6831,3.83343 3.6832,3.83343 1.1133,5.74004 1.1132,5.74004 1.9556,3.8445 1.9555,3.8445 0,2.32473 c 0,1.27861 0.7142,5.1122 1.587,8.51911 l 1.5869,6.19436 -0.5367,2.05251 -0.5368,2.0525 1.7734,2.58389 c 0.9753,1.42115 3.6232,6.4089 5.8842,11.0839 2.261,4.675 5.9404,12.39321 8.1764,17.15158 2.2361,4.75836 4.0656,9.15197 4.0656,9.76357 0,0.61159 0.4335,1.89338 0.9634,2.84842 0.5298,0.95504 1.8798,3.73345 3,6.17426 l 2.0366,4.43783 0,3.1455 c 0,1.73003 0.3218,3.46731 0.7152,3.86062 0.3933,0.39332 1.2734,2.83082 1.9558,5.41667 l 1.2408,4.70155 0.044,7.16709 0.044,7.1671 -2,4.66581 -2,4.66581 0.02,7.6671 0.02,7.66709 1.5621,8.5 1.5622,8.5 0.5287,11.93903 0.5288,11.93904 2.3219,3.56096 2.3218,3.56097 0.6711,4 c 0.369,2.2 1.3015,5.93481 2.0722,8.29957 0.7706,2.36476 2.2339,5.96476 3.2518,8 1.0179,2.03524 2.1476,5.2538 2.5104,7.15236 l 0.6598,3.45192 1.8571,2.04808 c 1.0214,1.12644 2.1127,3.17307 2.4251,4.54807 0.3124,1.375 1.4257,6.55 2.4741,11.5 l 1.9062,9 2.2958,5 c 1.2627,2.75 3.6163,8.6 5.2301,13 1.6139,4.4 3.6335,10.25 4.4881,13 0.8546,2.75 2.845,8.31787 4.4232,12.37304 l 2.8695,7.37304 0,2.71181 c 0,1.49149 0.8444,5.37362 1.8765,8.62695 1.0321,3.25334 2.4523,9.51516 3.1562,13.91516 l 1.2797,8 2.8984,8.88662 2.8983,8.88662 -0.5431,1.41538 -0.5432,1.41538 0.9288,6.55787 0.9287,6.55788 2.7203,3.92538 2.7203,3.92539 7.2626,-0.27888 7.2626,-0.27888 0.6038,0.60379 c 0.3321,0.33209 1.0504,5.72922 1.5964,11.99362 0.5459,6.26441 1.266,12.28983 1.6002,13.38983 0.3342,1.1 2.1254,5.2193 3.9805,9.154 1.8552,3.9347 3.3747,7.7597 3.3767,8.5 0,0.7403 0.87,2.76669 1.9288,4.5031 1.0588,1.7364 2.6759,5.3364 3.5935,8 0.9176,2.66359 1.8445,6.56951 2.0599,8.67982 l 0.3914,3.83692 -1.0662,1.99218 c -0.5864,1.09571 -1.6812,2.74409 -2.4329,3.66309 -0.7517,0.91899 -3.5147,4.59589 -6.1399,8.17089 -2.6253,3.575 -5.5777,7.22984 -6.561,8.12187 l -1.7879,1.62187 -5.0652,0.67193 -5.0653,0.67193 -5.6794,2.66013 -5.6795,2.6602 -11.5,0.6157 -11.5,0.6157 -7.6925,2.12467 c -4.2308,1.1686 -10.3058,3.2868 -13.5,4.7071 -3.1941,1.4202 -7.5375,3.4703 -9.652,4.5556 l -3.8445,1.9733 -9.8567,0 -9.8567,0 -5.7988,1.6008 -5.7988,1.6007 -10.5,0.3666 z m -479.9769,-675.56806 3.97695,0 0,-1.41821 c 0,-0.78002 -0.26479,-2.10825 -0.58843,-2.95163 l -0.58843,-1.53342 -3.51437,-1.15985 -3.51438,-1.15985 -1.5515,1.5515 -1.55151,1.55151 1.67736,2.55997 1.67737,2.55998 3.97694,0 z m 41.96482,-4 2.94176,0 1.06554,-1.99097 1.06553,-1.99097 -1.43534,-2.75903 c -0.78943,-1.51747 -2.49059,-3.71197 -3.78035,-4.87668 -1.28975,-1.16471 -3.60094,-2.91604 -5.13597,-3.89185 l -2.79097,-1.7742 -2.45903,1.12041 -2.45904,1.12041 0,1.63657 0,1.63657 3.30064,3.13487 c 1.81535,1.72418 4.07572,4.37237 5.02305,5.88487 l 1.72242,2.75 2.94176,0 z"
     id="path2989"
     inkscape:connector-curvature="0" />
</svg>
