<?xml version="1.0" encoding="UTF-8" standalone="no"?>
<!-- Created with Inkscape (http://www.inkscape.org/) -->

<svg
   xmlns:dc="http://purl.org/dc/elements/1.1/"
   xmlns:cc="http://creativecommons.org/ns#"
   xmlns:rdf="http://www.w3.org/1999/02/22-rdf-syntax-ns#"
   xmlns:svg="http://www.w3.org/2000/svg"
   xmlns="http://www.w3.org/2000/svg"
   xmlns:sodipodi="http://sodipodi.sourceforge.net/DTD/sodipodi-0.dtd"
   xmlns:inkscape="http://www.inkscape.org/namespaces/inkscape"
   id="svg2"
   version="1.1"
   inkscape:version="0.48.2 r9819"
   width="1013.2827"
   height="1843.2631"
   sodipodi:docname="Bearer2b.png">
  <metadata
     id="metadata8">
    <rdf:RDF>
      <cc:Work
         rdf:about="">
        <dc:format>image/svg+xml</dc:format>
        <dc:type
           rdf:resource="http://purl.org/dc/dcmitype/StillImage" />
        <dc:title></dc:title>
      </cc:Work>
    </rdf:RDF>
  </metadata>
  <defs
     id="defs6" />
  <sodipodi:namedview
     pagecolor="#ffffff"
     bordercolor="#666666"
     borderopacity="1"
     objecttolerance="10"
     gridtolerance="10"
     guidetolerance="10"
     inkscape:pageopacity="0"
     inkscape:pageshadow="2"
     inkscape:window-width="1600"
     inkscape:window-height="876"
     id="namedview4"
     showgrid="false"
     fit-margin-top="0"
     fit-margin-left="0"
     fit-margin-right="0"
     fit-margin-bottom="0"
     inkscape:zoom="0.5"
     inkscape:cx="-373.5058"
     inkscape:cy="1217.0112"
     inkscape:window-x="0"
     inkscape:window-y="24"
     inkscape:window-maximized="1"
     inkscape:current-layer="svg2" />
  <path
     style="fill:#000000"
     d="m 792.7413,1843.2477 -3.7471,-0.015 -1.3869,-0.8783 -1.3869,-0.8784 0.561,-2.3563 c 0.3086,-1.296 1.2227,-5.2814 2.0315,-8.8564 0.8087,-3.575 1.7543,-9.65 2.1013,-13.5 0.3469,-3.85 1.0861,-12.175 1.6424,-18.5 0.5564,-6.325 1.9174,-16.9 3.0246,-23.5 1.1071,-6.6 2.4405,-14.1722 2.9631,-16.8271 0.5227,-2.6549 1.2134,-8.0549 1.5349,-12 0.3216,-3.9451 1.4634,-11.4058 2.5375,-16.5794 1.0741,-5.1735 2.1175,-9.6735 2.3188,-10 0.2013,-0.3264 0.8716,-5.0935 1.4895,-10.5935 0.618,-5.5 1.8299,-14.05 2.6931,-19 l 1.5696,-9 1.794,-4.5 1.7941,-4.5 -0.4588,-7.5 -0.4588,-7.5 1.142,-9.5 c 0.628,-5.225 1.5158,-14.9 1.9727,-21.5 0.4569,-6.6 1.5569,-19.2 2.4443,-28 0.8874,-8.8 2.0069,-19.15 2.4876,-23 0.4807,-3.85 1.3694,-9.25 1.9749,-12 0.6055,-2.75 1.5499,-9.5 2.0987,-15 0.5489,-5.5 1.4532,-13.825 2.0097,-18.5 0.5566,-4.675 1.4749,-10.7262 2.0407,-13.4471 l 1.0288,-4.9471 -0.6308,-4.2069 -0.6309,-4.2069 2.5207,-5.846 2.5207,-5.846 0.6987,-8.5 c 0.3843,-4.675 1.0578,-11.875 1.4966,-16 0.4389,-4.125 1.4893,-11.55 2.3343,-16.5 0.8451,-4.95 2.4638,-16.875 3.5972,-26.5 l 2.0607,-17.5 0.01,-11 0.01,-11 2.9764,-11 2.9764,-11 9e-4,-3.8549 c 5e-4,-2.1202 0.8689,-8.4202 1.9299,-14 1.0609,-5.5798 2.6704,-14.6451 3.5766,-20.1451 l 1.6476,-10 0.4736,-19.5 0.4736,-19.5 2.4386,-7.5 c 1.3413,-4.125 2.8591,-10.2 3.3728,-13.5 0.5137,-3.3 1.4474,-9.15 2.0748,-13 0.6274,-3.85 1.5978,-9.1145 2.1564,-11.699 0.5586,-2.5844 1.4368,-7.3094 1.9516,-10.5 0.5149,-3.1905 1.3387,-9.491 1.8308,-14.001 0.4921,-4.51 1.2602,-8.785 1.7069,-9.5 0.4466,-0.715 1.3985,-5.8 2.1153,-11.3 0.7168,-5.5 1.7219,-13.4058 2.2335,-17.5684 0.5116,-4.1626 1.4002,-8.8044 1.9746,-10.3151 l 1.0442,-2.7467 0,-4.3092 0,-4.3091 1.5,-4.2515 1.5,-4.2515 0,-5.8091 0,-5.8092 1.0493,-2.7596 c 0.577,-1.5178 1.4873,-6.1596 2.0228,-10.3151 0.5355,-4.1555 1.2158,-12.2805 1.5118,-18.0555 0.296,-5.775 0.9417,-17.25 1.4349,-25.5 0.4932,-8.25 1.5481,-21.3865 2.3442,-29.1922 l 1.4475,-14.1922 0.7628,-1.2342 0.7629,-1.2342 0.7459,-9.5736 c 0.4102,-5.2655 1.2468,-13.62359 1.859,-18.57359 0.6122,-4.95 1.5866,-11.025 2.1653,-13.5 l 1.0523,-4.5 0.5014,-11.5 c 0.2758,-6.325 0.7735,-12.175 1.1061,-13 0.3325,-0.825 1.1901,-4.65 1.9057,-8.5 0.7155,-3.85 1.9704,-13.525 2.7885,-21.5 0.8181,-7.975 1.9576,-16.3 2.5323,-18.5 0.5747,-2.2 1.7132,-9.625 2.5301,-16.5 0.8169,-6.875 1.9135,-15.425 2.4368,-19 0.5233,-3.575 1.6826,-11 2.5763,-16.5 0.8938,-5.5 1.9978,-14.5 2.4535,-20 0.4556,-5.5 1.5377,-17.65 2.4045,-27 0.8669,-9.35 2.019,-20.375 2.5603,-24.5 0.5412,-4.125 0.998,-11.11796 1.015,-15.5399 l 0.031,-8.0399 1.5,-5.75889 1.5,-5.75889 0.06,-7.70121 0.06,-7.70121 1.027,-5 c 0.5648,-2.75 1.3637,-9.725 1.7753,-15.5 l 0.7482,-10.5 -0.8852,-1 -0.8853,-1 -15.6996,0.32923 -15.6997,0.32924 -4.7085,-2.10771 c -2.5898,-1.15923 -4.9788,-2.54489 -5.309,-3.07923 l -0.6065,-0.97183 -2.4208,0 c -1.3314,0 -4.1173,-0.67474 -6.191,-1.49943 l -3.7702,-1.49943 -31.5,-1.05921 c -17.325,-0.58257 -38.7,-1.39197 -47.5,-1.79868 l -16,-0.73946 -2.8151,-1.20189 -2.8151,-1.2019 -7.1849,-0.0356 -7.1849,-0.0356 -6,-1.44876 -6,-1.44876 -4.2821,-0.0156 -4.2821,-0.0156 -3.59,-1.5 -3.59,-1.5 -5.3128,0 -5.3128,0 -2.8151,-1.1435 -2.8151,-1.1435 -8,-0.80707 c -4.4,-0.44389 -11.4369,-1.27122 -15.6376,-1.8385 -4.2006,-0.56729 -8.8424,-1.48953 -10.3151,-2.04943 l -2.6775,-1.01808 -5.7799,0 -5.7799,0 -1.5319,1.75 -1.5319,1.75 -0.6938,15.17483 -0.6938,15.17484 -1.4174,5.32516 c -0.7796,2.92885 -1.4228,6.5415 -1.4293,8.02812 -0.01,1.48662 -0.4199,3.73662 -0.9185,5 -0.4987,1.26338 -1.8487,4.63047 -3,7.48243 l -2.0934,5.18538 0,3.89031 0,3.8903 -2.4545,2.30591 -2.4546,2.30592 -4.7954,-0.46633 -4.7955,-0.46633 -5,-2.48068 c -2.75,-1.36437 -6.35,-3.20676 -8,-4.09419 -1.65,-0.88743 -12,-6.01263 -23,-11.38934 -11,-5.3767 -22.25,-11.11961 -25,-12.76203 -2.75,-1.64241 -9.275,-6.10317 -14.5,-9.91279 -5.225,-3.80963 -11.6788,-9.01122 -14.3418,-11.55905 -2.663,-2.54785 -6.938,-7.32782 -9.5,-10.62217 -2.562,-3.29435 -5.6707,-7.47683 -6.9082,-9.29441 -1.2375,-1.81758 -2.25,-3.57502 -2.25,-3.90542 0,-0.33041 -1.2375,-2.56366 -2.75,-4.96276 l -2.75,-4.36203 -1.6847,-0.53949 -1.6847,-0.53949 -7.8153,2.69039 -7.8153,2.69039 -8.7282,0.47754 -8.7282,0.47754 -1.1541,1.39062 -1.1541,1.39062 1.5847,6.7381 c 0.8716,3.70596 1.8671,8.98811 2.2122,11.73811 0.3451,2.75 1.252,7.025 2.0152,9.5 l 1.3877,4.5 1.0848,10.93022 c 0.5966,6.01162 1.3596,11.37491 1.6955,11.91844 0.3359,0.54352 0.9463,4.39992 1.3564,8.56979 0.4101,4.16985 1.4592,13.43156 2.3313,20.58155 0.8721,7.15 2.0382,16.04585 2.5913,19.76856 0.553,3.72271 1.0055,8.88338 1.0055,11.46816 0,2.58478 0.6901,10.78894 1.5335,18.23144 0.8434,7.44251 2.1828,17.58184 2.9764,22.53184 0.7937,4.95001 1.9036,13.36122 2.4665,18.69159 0.563,5.33037 1.0236,13.33232 1.0236,17.78211 l 0,8.09055 1.5,3.59 1.5,3.59001 0,3.59444 0,3.59443 -1.616,4.23137 -1.6159,4.23137 1.2259,3.30207 c 0.6742,1.81613 3.0408,8.47706 5.259,14.80206 2.2182,6.325 4.3977,13.525 4.8433,16 0.4457,2.475 1.3132,6.975 1.9279,10 0.6148,3.025 1.8259,7.525 2.6914,10 0.8656,2.475 2.669,7.875 4.0076,12 1.3386,4.125 2.8949,8.85 3.4584,10.5 0.5635,1.65 1.4035,5.025 1.8667,7.5 0.4631,2.475 1.8155,6.975 3.0053,10 l 2.1634,5.5 0.8231,5.3816 0.8231,5.38159 1.0684,1.0684 1.0684,1.0684 0,3.1089 0,3.1088 1.4682,1.9412 1.4682,1.9411 0.032,2.0589 0.032,2.0588 1.4682,1.9412 1.4682,1.9411 0.032,2.55 0.032,2.55 1.1209,1.1209 1.121,1.121 0.7567,6.329 c 0.4162,3.481 1.2325,7.6791 1.8142,9.3291 0.5816,1.65 2.1869,6.6 3.5674,11 l 2.5099,8 0.6299,5.5 c 0.3464,3.025 1.0143,6.4 1.4843,7.5 0.47,1.1 1.7986,5.375 2.9523,9.5 1.1538,4.125 2.5779,9.075 3.1646,11 0.5868,1.925 2.1045,6.2 3.3727,9.5 l 2.3057,6 0.6672,5.5 c 0.3669,3.025 1.3271,7.8714 2.1338,10.7697 l 1.4667,5.2697 0.409,7.4831 c 0.225,4.1156 0.6713,7.9074 0.9918,8.426 0.3206,0.5186 1.025,6.0299 1.5653,12.2472 0.5404,6.2174 1.2604,13.9001 1.5999,17.0728 l 0.6174,5.7684 0.8746,0.5406 0.8747,0.5405 0,14.7309 0,14.7309 1.5,5.7589 1.5,5.7589 0.043,7.7012 0.043,7.7012 1.0532,4.5 c 0.5792,2.475 1.3564,7.875 1.7269,12 l 0.6738,7.5 1.2295,2.1843 1.2295,2.1842 0,5.0979 0,5.0978 1.5,3.59 1.5,3.59 0,11.2522 0,11.2521 1.5,4.2515 1.5,4.2515 0,8.9063 0,8.9064 1.5,3.59 1.5,3.59 0.01,8.1279 0.01,8.1279 2.5477,12.5 2.5477,12.5 0.9045,12.077 0.9044,12.077 1.041,2.7381 1.0411,2.7381 0,4.276 0,4.2759 1.4891,4.909 1.4892,4.9089 0.011,6.7012 0.011,6.7012 1.4763,5.6677 c 0.8119,3.1173 1.9666,6.2586 2.5659,6.9807 l 1.0896,1.313 0.5794,10.9823 0.5794,10.9824 -2.6257,4.4803 -2.6257,4.4804 -3.0963,2.6054 -3.0963,2.6054 -3.8582,0 -3.8582,0 -2.7015,1.0271 -2.7016,1.0271 0.5435,5.9938 0.5435,5.9937 1.5316,4.7291 c 0.8423,2.6011 1.9887,7.2042 2.5475,10.2292 0.5587,3.025 1.4864,8.1626 2.0614,11.4168 0.575,3.2542 1.0454,8.0652 1.0454,10.691 l 0,4.7742 1.0516,0.6499 c 0.5784,0.3574 2.8284,4.4426 5,9.0782 l 3.9484,8.4283 0.022,14.2308 0.022,14.2308 1.9554,2.5 c 1.0755,1.375 1.9655,2.895 1.9778,3.3777 0.012,0.4827 2.1788,3.8577 4.8146,7.5 2.6358,3.6423 6.6128,9.3223 8.8378,12.6223 2.2251,3.3 6.1172,9.8998 8.6492,14.6663 2.532,4.7664 6.3037,11.0664 8.3816,14 2.0778,2.9335 6.8296,9.0199 10.5595,13.5253 3.7298,4.5054 7.2339,8.4712 7.7868,8.8129 0.553,0.3418 2.9305,3.6306 5.2834,7.3084 2.3528,3.6779 5.5675,9.1621 7.1438,12.1871 1.5762,3.025 4.6527,8.2998 6.8366,11.7217 l 3.9708,6.2217 7.629,6.5976 7.6291,6.5976 6.9244,4.1807 6.9245,4.1807 9.8489,9.9086 9.849,9.9087 2.1014,4.5913 2.1015,4.5914 0.8378,9.5 0.8379,9.5 -0.5971,4.5 -0.597,4.5 -3.8106,3.6575 -3.8105,3.6576 -5.8051,2.1905 -5.8051,2.1905 -36,-0.5145 -36,-0.5146 -7.621,-1.9252 -7.621,-1.9253 -7.6404,-4.84 -7.6405,-4.8401 -6.3075,-6.5682 -6.3076,-6.5682 -5.3621,-10 -5.3621,-10 -6.6061,-6.6406 -6.6061,-6.6407 -15.5356,-7.6381 -15.5357,-7.638 -7.3319,-7.5549 -7.3319,-7.5548 -0.8351,-7.1664 c -0.4594,-3.9416 -0.8229,-7.6165 -0.8079,-8.1665 0.015,-0.55 0.2479,-3.475 0.5174,-6.5 0.2695,-3.025 1.1376,-13.825 1.929,-24 l 1.4391,-18.5 -0.261,-9.1496 -0.2609,-9.1497 -2.7461,-3.9625 -2.746,-3.9626 -0.5652,-3.483 -0.5653,-3.483 1.6058,-3.1052 1.6057,-3.1051 0,-3.9148 0,-3.9148 -2.0164,-2.5634 c -1.109,-1.4099 -3.5877,-3.5346 -5.5082,-4.7215 l -3.4918,-2.1581 -4.3444,-5.6633 -4.3443,-5.6634 -1.1118,-5 c -0.6115,-2.75 -1.7729,-8.6479 -2.5809,-13.1065 l -1.4691,-8.1065 -3.0571,-6.4703 -3.057,-6.4703 -7.2595,-6.7095 c -3.9927,-3.6902 -8.272,-7.6644 -9.5095,-8.8316 l -2.25,-2.1221 0,-4.7858 0,-4.7859 -2.401,-2.7913 -2.4009,-2.7912 -6.5132,1.7355 -6.5132,1.7355 -11.3358,-0.044 -11.3359,-0.044 -4,-1.441 -4,-1.4411 -4,-0.042 -4,-0.042 -6.9711,-2.973 -6.9712,-2.9729 -2.2074,0 -2.2074,0 -1.4898,-1.4897 -1.4897,-1.4897 -0.6366,-3.2603 c -0.3501,-1.7932 -0.8735,-4.5015 -1.163,-6.0186 l -0.5264,-2.7583 -1.6687,-0.8855 c -0.9178,-0.487 -6.3937,-1.9949 -12.1687,-3.3508 -5.775,-1.356 -14.8639,-3.2761 -20.1976,-4.2669 l -9.6975,-1.8015 -5.8025,2.2251 c -3.1913,1.2238 -10.191,3.7417 -15.5548,5.5953 -5.3639,1.8536 -13.3401,4.1019 -17.7249,4.9963 l -7.9724,1.626 -26.2752,-0.3107 -26.2751,-0.3107 -4.5935,-2.7004 -4.5935,-2.7005 -2.8514,-3.7995 c -1.5682,-2.0898 -3.5511,-4.2309 -4.4065,-4.7579 -0.8553,-0.5271 -3.1301,-1.0542 -5.0551,-1.1714 -1.925,-0.1171 -13.625,-0.4511 -26,-0.7421 l -22.5,-0.5292 -5.8645,-1.0157 -5.8644,-1.0157 -4.2013,-2.0338 -4.2013,-2.0338 -2.25,0 c -1.2375,0 -3.0079,-0.3874 -3.9342,-0.8609 -0.9264,-0.4735 -3.3685,-1.1197 -5.4269,-1.4359 l -3.7427,-0.5751 -1.5073,1.5074 -1.5074,1.5074 0,2.2276 0,2.2276 -2.75,4.0864 c -1.5125,2.2475 -4.364,6.5004 -6.3367,9.4509 -1.9727,2.9505 -5.3258,8.2896 -7.4513,11.8646 -2.1255,3.575 -6.4919,10.2067 -9.7031,14.7371 l -5.8385,8.2371 -1.4972,4.2434 c -0.8234,2.3338 -3.0428,6.5021 -4.932,9.2629 l -3.4348,5.0195 -2.0837,6.7994 -2.0836,6.7995 -3.1946,4.6333 c -1.757,2.5484 -3.94288,5.412 -4.85756,6.3637 l -1.66305,1.7302 0.5412,5.9685 0.54121,5.9686 -1.23198,5.1354 -1.23199,5.1355 1.62689,2.483 c 0.89479,1.3656 2.0912,2.4829 2.6587,2.4829 0.5675,0 3.59458,1.7425 6.72698,3.8722 l 5.6951,3.8721 4.5,4.9527 c 2.475,2.7239 6.4233,7.4357 8.774,10.4707 l 4.2741,5.518 8.7259,-1.9009 8.726,-1.9009 4.5,0.5264 c 2.475,0.2896 6.975,0.9785 10,1.531 3.025,0.5524 6.625,1.5576 8,2.2338 1.375,0.6762 3.7315,2.3419 5.2367,3.7015 l 2.7367,2.4721 3.7633,1.413 c 2.0698,0.7772 5.5633,1.7682 7.7633,2.2022 l 4,0.7893 6.0942,3.0402 6.0943,3.0403 1.2701,3.0665 1.2702,3.0665 -0.6637,3.538 -0.6638,3.5381 -2.8849,3.2857 -2.8849,3.2857 -3.3157,1.6226 c -1.8237,0.8925 -7.3935,3.6567 -12.3774,6.1427 l -9.0617,4.5201 -8.4383,2.4443 -8.4384,2.4442 -18,1.1001 c -9.9,0.605 -25.875,1.7962 -35.5,2.6471 -9.625,0.851 -19.41896,1.9786 -21.76435,2.506 -2.34539,0.5273 -5.72039,0.9746 -7.5,0.9941 l -3.23565,0.035 -2.5,1.4291 -2.5,1.4291 -2.85802,0.035 -2.85802,0.035 -9.64198,4.6257 c -5.30309,2.545 -12.11698,5.8415 -15.14198,7.3264 -3.025,1.4848 -7.525,3.7908 -10,5.1243 l -4.5,2.4245 -11.5,-0.017 -11.5,-0.017 -2.20935,-1.246 c -1.21515,-0.6854 -3.46515,-2.8925 -5,-4.9048 L 0,1695.9182 l 0,-9.6103 0,-9.6102 1.87622,-4.4676 c 1.03191,-2.4572 2.8929,-6.4926 4.13552,-8.9676 l 2.25931,-4.5 0.67462,-5.6554 0.67461,-5.6555 1.81569,-4.8445 1.81568,-4.8446 0.71461,-6 0.71462,-6 2.50037,-8.5 c 1.3752,-4.675 2.86084,-9.625 3.30143,-11 0.44058,-1.375 1.79357,-4.75 3.00664,-7.5 1.21306,-2.75 3.03896,-7.5749 4.05755,-10.722 1.01859,-3.1471 2.16464,-7.4221 2.54678,-9.5 0.38214,-2.0779 1.7549,-6.1117 3.05057,-8.9639 l 2.35578,-5.1859 0.006,-2.8141 c 0.003,-1.5478 0.4676,-4.4776 1.0323,-6.5109 0.5647,-2.0332 1.42571,-6.5332 1.91335,-10 0.48765,-3.4667 1.40736,-9.6782 2.04381,-13.8032 0.63645,-4.125 2.47293,-11.946 4.08107,-17.38 l 2.92387,-9.8801 0,-4.6788 0,-4.6788 1.4682,-1.9412 1.46819,-1.9411 0.0318,-6.5032 0.0318,-6.5032 1.91984,-6.7133 1.91984,-6.7133 1.58016,-2.256 1.58016,-2.256 0,-4.0423 0,-4.0423 -2,-3.7316 -2,-3.7316 -0.0354,-2.2536 -0.0354,-2.2536 -1.42913,-2.5 -1.42913,-2.5 -0.0354,-4.2632 -0.0354,-4.2632 4.08931,-10.7368 c 2.24912,-5.9052 5.43788,-14.3368 7.08613,-18.7368 1.64826,-4.4 4.78537,-13.123 6.97136,-19.3844 2.18599,-6.2615 6.02214,-15.9365 8.52476,-21.5 2.50263,-5.5636 5.2052,-11.8962 6.00571,-14.0725 0.8005,-2.1763 3.24808,-8.2513 5.43904,-13.5 2.19097,-5.2487 4.35227,-10.4431 4.80289,-11.5431 0.45062,-1.1 1.87425,-4.475 3.16363,-7.5 1.28938,-3.025 4.35992,-9.0322 6.82342,-13.3493 l 4.47909,-7.8493 0.20155,-6.2303 0.20155,-6.2303 3.10573,-9.3432 c 1.7082,-5.1388 3.1058,-9.9729 3.1058,-10.7424 0,-0.7695 1.3907,-5.7542 3.0905,-11.0771 1.6998,-5.323 4.1207,-12.8281 5.3798,-16.6781 1.2591,-3.85 2.9728,-9.025 3.8082,-11.5 0.8354,-2.475 2.2394,-6.8104 3.1202,-9.6342 0.8807,-2.8238 1.6013,-6.282 1.6013,-7.6849 0,-1.4029 0.4979,-3.8175 1.1065,-5.3658 0.6085,-1.5483 1.4455,-5.2901 1.8599,-8.3151 0.4144,-3.025 1.2509,-7.525 1.8588,-10 0.608,-2.475 1.7832,-8.775 2.6117,-14 0.8285,-5.225 1.75,-11.3 2.0479,-13.5 0.2978,-2.2 0.9569,-11.2 1.4645,-20 0.5077,-8.8 1.4224,-20.5 2.0328,-26 0.6104,-5.5 1.5331,-14.725 2.0504,-20.5 0.5173,-5.775 1.3793,-12.3 1.9156,-14.5 l 0.9751,-4 -0.5488,-3.5 -0.5488,-3.5 1.1493,-7.5 c 0.6321,-4.125 1.531,-10.875 1.9975,-15 0.4665,-4.125 1.5498,-12.45 2.4073,-18.5 0.8575,-6.05 2.0435,-12.575 2.6354,-14.5 0.592,-1.92499 1.4928,-7.32499 2.0019,-11.99999 l 0.9257,-8.5 2.1467,-8 2.1468,-8 0.3235,-10 c 0.1779,-5.5 0.5866,-12.925 0.9082,-16.5 0.3215,-3.575 0.8035,-24.01801 1.0709,-45.42891 l 0.4863,-38.92891 0.9797,-13.57109 0.9796,-13.57109 -0.6508,-19.76941 -0.6508,-19.76941 1.0755,-2.23059 c 0.5915,-1.22682 1.6125,-5.83059 2.269,-10.23059 l 1.1935,-8 1.8896,-3.71016 1.8896,-3.71016 0,-2.03984 0,-2.03984 -2,-2 -2,-2 -2.3129,0 -2.3129,0 -2.5729,2.75 c -1.4151,1.5125 -3.304,4.19916 -4.1975,5.97036 l -1.6245,3.22035 -1.9239,1.02965 -1.9239,1.02964 -3.5236,0 -3.5237,0 -4.0421,-3.84516 -4.0421,-3.84517 0.01,-2.90483 0.01,-2.90484 1.3979,-2.67931 1.3979,-2.67931 -0.5707,-0.57069 c -0.3279,-0.31338 -2.5244,-0.57019 -4.895,-0.57019 l -4.3103,0 -1.6509,-2.51959 -1.6509,-2.51959 0.62,-4.23041 c 0.3409,-2.32672 0.9062,-5.73815 1.2561,-7.58093 l 0.6361,-3.35053 -1.8735,-5.51167 -1.8734,-5.51166 -4.5048,-3.7494 c -2.4777,-2.06217 -5.8876,-4.45702 -7.5776,-5.32188 -1.6901,-0.86485 -3.7151,-2.34926 -4.5,-3.29867 -0.785,-0.9494 -5.86195,-5.05297 -11.2822,-9.11904 l -9.85499,-7.39284 -1.62979,0.31387 -1.62979,0.31387 -0.60073,3.69575 -0.60073,3.69575 -2.41448,2.03845 -2.41449,2.03844 -3.40066,-0.24496 -3.40066,-0.24496 -2.09888,-2.82272 -2.09889,-2.82272 0.25299,-8.08369 0.25298,-8.08368 -5.6962,-7.5936 c -3.13291,-4.17647 -9.20946,-11.27313 -13.50344,-15.77034 l -7.80724,-8.17674 0.002,-4.82326 0.002,-4.82325 1.74845,-3.18599 c 0.96164,-1.7523 3.4797,-5.6898 5.59568,-8.75 l 3.84635,-5.56401 4.78031,0 4.78032,0 0.95802,-1.25 0.95801,-1.25 1.26256,-9.54477 1.26256,-9.54477 -1.24698,-9.90681 -1.24697,-9.9068 0.59892,-16.67095 0.59893,-16.67095 -2.54087,-9.87747 -2.54086,-9.87748 0.60781,-9 c 0.33429,-4.95 0.87297,-11.96538 1.19707,-15.58975 l 0.58927,-6.58975 -1.60629,-7.76721 -1.60629,-7.76721 0.0356,-9.14303 0.0356,-9.14304 1.42576,-5.9719 1.42576,-5.97191 -2.01958,-6.64902 -2.01957,-6.64902 -0.0823,-6.37907 c -0.0453,-3.5085 0.26958,-10.81167 0.69969,-16.22927 l 0.78201,-9.85019 -1.3016,-6.8982 -1.30159,-6.89821 1.27333,-5.30786 1.27334,-5.30786 -1.72056,-7.07904 -1.72057,-7.07904 0.49625,-8.36471 c 0.27294,-4.60058 1.06534,-11.72651 1.76089,-15.8354 l 1.26464,-7.47069 -1.79769,-9.14292 -1.79769,-9.14291 0.64119,-6.88639 c 0.35266,-3.78752 1.04188,-9.36139 1.5316,-12.38639 l 0.8904,-5.5 -0.46113,-23.74071 -0.46112,-23.74071 1.57366,-5.4132 1.57366,-5.41319 0,-15.3527 0,-15.35269 1.03346,-3.4934 c 0.56841,-1.92137 1.91841,-7.91398 3,-13.31691 1.08162,-5.40294 1.96656,-11.46839 1.96656,-13.47879 l 0,-3.65529 2.57462,-7.02121 c 1.41604,-3.86166 3.29564,-8.82121 4.1769,-11.02121 0.88126,-2.2 2.47015,-6.025 3.53086,-8.5 1.06072,-2.475 2.92385,-5.625 4.14029,-7 1.21645,-1.375 3.01482,-4.525 3.99639,-7 0.98157,-2.475 2.1917,-5.175 2.68917,-6 0.49747,-0.825 1.19267,-2.175 1.54487,-3 0.3522,-0.825 3.1878,-4.875 6.30132,-9 3.11353,-4.124995 8.72818,-11.999995 12.47698,-17.499995 3.7489,-5.5 7.7729,-11.06634 8.9423,-12.36965 1.1695,-1.3033 3.7013,-3.36988 5.6263,-4.59238 1.925,-1.22251 5.975,-3.58782 9,-5.25625 3.025,-1.66843 7.8911,-4.31822 10.8136,-5.88842 l 5.3135,-2.8549 5.1979,-5.0192 c 2.8588,-2.76056 6.9927,-7.20073 9.1864,-9.86704 2.1937,-2.666316 6.035,-7.505405 8.5361,-10.753533 l 4.5474,-5.905688 5.8358,-4.934365 5.8358,-4.934366 7.6168,-3.761335 7.6167,-3.761334 8,-0.05077 8,-0.05077 6,3.395428 c 3.3,1.867485 6.8876,4.004985 7.9725,4.75 1.0849,0.745016 2.6444,1.354573 3.4657,1.354573 l 1.4931,0 4.5343,-4.383299 4.5344,-4.383299 5.2415,-1.694253 5.2415,-1.694253 5.9496,3.614152 5.9495,3.614151 2.059,3.331435 c 1.1324,1.832289 2.0589,4.108887 2.0589,5.059108 0,0.950221 0.7622,3.018007 1.6938,4.59508 l 1.6938,2.867407 3.0562,0.661223 c 1.6809,0.363672 4.3446,1.572166 5.9193,2.685542 l 2.8632,2.024319 1.3743,3.289158 1.3743,3.289157 -0.6247,3.312182 -0.6247,3.31219 -1.4504,1.6756 -1.4504,1.67559 0.3462,1.82441 0.3462,1.8244 2.5909,0.3019 2.591,0.3019 4.7994,-2.5519 4.7995,-2.5519 4.101,0.0439 4.1011,0.0439 4,1.56158 c 2.2,0.85886 5.575,1.7978 7.5,2.08652 1.925,0.28873 4.3421,1.10937 5.3713,1.82366 l 1.8713,1.2987 2.4438,-0.92912 c 1.3441,-0.51102 4.102,-0.92371 6.1287,-0.91708 l 3.6849,0.0121 4.5,2.56886 c 2.475,1.41288 4.8599,3.20746 5.2997,3.98796 l 0.7997,1.41909 4.6059,0 4.6059,0 3.3132,2.52705 3.3131,2.52705 1.0529,3.72295 1.0529,3.72295 4.9571,5.29658 4.957,5.29659 1.9556,-1.04659 c 1.0755,-0.57562 2.7233,-1.04658 3.6617,-1.04658 0.9384,0 3.6601,0.97583 6.0482,2.1685 l 4.342,2.1685 2.5646,-1.1685 2.5646,-1.1685 2.9851,0 2.985,0 3.3065,1.38154 3.3065,1.38153 3.1568,3.36847 3.1568,3.36846 0,5.80305 0.01,5.803055 -2.5,3.67908 -2.5,3.67908 0,2.58973 c 0,1.42435 0.7399,4.76136 1.6443,7.41558 l 1.6443,4.82587 -0.628,10.97575 -0.6279,10.97575 -3.0164,6.03625 -3.0163,6.03624 0,1.84288 0,1.84289 3.9904,3.60515 3.9905,3.60515 1.1126,4.1318 1.1126,4.13181 -0.4718,4.18527 -0.4717,4.18526 -2.3813,3.04077 -2.3813,3.04078 -5.8712,3.5344 -5.8712,3.5344 -2.3074,0 -2.3074,0 -1.5714,1.57143 c -0.8651,0.86428 -1.5722,1.97194 -1.5722,2.46145 l 0,0.89003 3.9634,1.06723 3.9634,1.06723 1.5366,2.19382 1.5366,2.19382 0,2.21848 0,2.21848 1.0294,0.63622 1.0295,0.63623 6.4686,-2.0898 6.4686,-2.0898 7.752,-0.62807 7.7519,-0.62806 4.1686,-2.40664 4.1685,-2.40664 6.7178,-1.92111 6.7178,-1.92112 1.966,-1.77923 c 1.0814,-0.97858 2.595,-2.99544 3.3637,-4.48193 l 1.3976,-2.7027 0,-5.42722 0,-5.42721 -1.25,-0.97812 c -0.6875,-0.53796 -3.3618,-1.49306 -5.9428,-2.12244 -2.5811,-0.62945 -6.0719,-1.1444 -7.7573,-1.1444 l -3.0645,0 -5.1038,-2.75 -5.1038,-2.75 -2.8889,-3.2848 -2.8889,-3.28479 0,-9.45749 0,-9.45749 3,-2.67301 3,-2.67302 0,-1.86988 0,-1.86989 -1.6967,-2.5895 -1.6967,-2.58951 1.6967,-2.95635 c 0.9332,-1.62599 1.6967,-3.42297 1.6967,-3.99329 0,-0.57032 1.3682,-2.59525 3.0405,-4.49984 l 3.0404,-3.46289 1.4733,-3.66912 1.4733,-3.66913 2.9863,-1.70349 2.9862,-1.70349 0,-2.86651 0,-2.86651 3.4776,-4.062765 3.4776,-4.06277 -2.4776,-6.09736 -2.4776,-6.09736 0.015,-3.26987 0.015,-3.26987 1.446,-2.5 c 0.7953,-1.375 1.7465,-3.175 2.1138,-4 0.3672,-0.825 2.6042,-5.55 4.9711,-10.5 2.3669,-4.95 6.0899,-11.75933 8.2734,-15.13184 l 3.9698,-6.13183 6.0921,-5.069886 c 3.3507,-2.788434 9.1323,-6.916709 12.8482,-9.173943 3.7159,-2.257235 11.2561,-6.999235 16.7561,-10.537779 5.5,-3.538543 11.8,-7.286714 14,-8.329268 2.2,-1.042554 5.575,-2.380472 7.5,-2.973152 l 3.5,-1.077599 10.506,-0.668859 L 560.0067,0 l 7.0822,1.194575 c 3.8953,0.657016 13.7926,1.563817 21.994,2.015113 l 14.9118,0.820538 7.4649,2.616394 c 4.1052,1.439017 8.5054,2.616395 9.7778,2.616395 l 2.3134,0 9.435,5.75 9.435,5.75 7.1701,6 c 3.9435,3.3 10.0983,7.888946 13.6773,10.197658 3.579,2.308712 7.8462,5.458712 9.4826,7.000002 1.6364,1.54129 4.6901,5.10088 6.7859,7.91021 2.0958,2.80932 6.1171,7.74368 8.9363,10.96524 l 5.1256,5.85739 4.7502,2.03475 4.7502,2.03475 6.1089,4.5 6.1089,4.5 3.5887,6.74601 3.5887,6.74602 -0.031,17.753975 -0.03,17.75399 -3.7195,5.5 -3.7195,5.5 -5.3499,2.86691 -5.3498,2.86691 -1.4582,3.63309 c -0.802,1.9982 -2.5487,5.65809 -3.8817,8.13309 -1.3329,2.475 -3.3016,6.37935 -4.3748,8.67634 l -1.9514,4.17634 -5.5935,3.57817 -5.5936,3.57817 -0.9584,2.52071 c -0.5271,1.3864 -1.4022,5.32187 -1.9447,8.7455 l -0.9864,6.22477 -0.504,20.45245 -0.5039,20.45245 -2.5461,2.54755 -2.5461,2.54755 -12.7288,0.21571 -12.7287,0.21571 -11.25,11.0426 -11.25,11.0426 0,3.36924 0,3.36925 -1.4846,1.23213 c -0.8166,0.67767 -2.4947,3.25454 -3.7292,5.72638 l -2.2445,4.49425 -2.8476,2.39606 -2.8475,2.39607 -5.811,0 -5.811,0 -6.8623,-3.07872 c -3.7743,-1.6933 -8.8873,-3.9126 -11.3623,-4.93179 l -4.5,-1.85307 -4.6398,-0.53397 -4.6397,-0.53397 -2.5604,3.86891 -2.5603,3.86892 -5.7999,4.44352 c -3.1899,2.44394 -7.6489,5.60307 -9.9088,7.0203 l -4.1088,2.57678 -4.0247,1.08372 -4.0246,1.08372 -1.2828,1.54571 -1.2829,1.54571 2.2303,3.69711 c 1.2267,2.03342 3.7831,7.07212 5.6811,11.19712 1.8979,4.125 4.1191,8.69443 4.936,10.15429 l 1.4853,2.65429 0,2.14117 0,2.14116 2.3759,2.37592 c 1.3068,1.30675 3.2746,3.6488 4.373,5.20454 l 1.997,2.82863 0.5017,3.5 c 0.2759,1.925 1.0646,5.075 1.7526,7 0.6881,1.925 2.0508,5.3347 3.0284,7.57712 l 1.7774,4.07712 3.847,4.45463 3.847,4.45464 3.3551,6.96825 c 1.8453,3.83253 3.8399,7.86824 4.4326,8.96824 0.5926,1.1 2.7953,5.26654 4.8949,9.25898 2.0996,3.99243 3.8174,7.79784 3.8174,8.45646 0,0.65862 2.475,5.34493 5.5,10.41403 3.025,5.0691 5.5,9.63785 5.5,10.15277 0,0.51492 1.4102,3.57885 3.1338,6.80874 1.7235,3.22988 4.1446,7.47388 5.3801,9.43111 1.2356,1.95723 3.8754,7.03781 5.8663,11.29019 1.9909,4.25237 3.6198,8.17782 3.6198,8.72322 0,0.5454 0.4218,1.77303 0.9373,2.72807 0.5155,0.95504 1.9046,3.98643 3.087,6.73643 1.1824,2.75 3.5219,7.83597 5.1989,11.30215 l 3.0491,6.30215 4.8469,2.45609 4.8468,2.45609 0.6347,2.52855 0.6346,2.52855 -0.5887,2.94351 -0.5887,2.94352 1.9053,1.01969 c 1.0479,0.56084 2.9757,1.0197 4.284,1.0197 l 2.3786,0 2.7704,2.89166 2.7704,2.89166 2.9106,0.58212 2.9106,0.58212 4.4551,4.10652 4.455,4.10653 1.1422,3.46094 1.1422,3.46093 -0.6084,1.58551 -0.6084,1.58551 1.1397,1.37325 1.1397,1.37325 2.8586,0 2.8586,0 6.269,2.9267 c 3.4479,1.60968 8.9689,4.12093 12.2689,5.58054 3.3,1.45961 9.2112,4.6426 13.136,7.0733 3.9248,2.4307 7.4813,4.41946 7.9032,4.41946 0.4219,0 3.6244,1.35 7.1166,3 3.4923,1.65 6.9333,3 7.6469,3 0.7135,0 1.7248,0.4054 2.2473,0.90089 0.5225,0.4955 5.225,2.71445 10.45,4.931 5.225,2.21656 13.775,6.13706 19,8.71222 5.225,2.57517 16.4283,7.33122 24.8963,10.569 8.4679,3.23779 16.1744,5.88689 17.1255,5.88689 0.9512,0 4.1478,1.06689 7.1038,2.37086 2.9559,1.30398 6.9494,2.68212 8.8744,3.06253 1.925,0.38041 4.625,1.11237 6,1.62657 1.375,0.5142 5.425,1.42755 9,2.02968 3.575,0.60213 11,1.43577 16.5,1.85253 l 10,0.75776 4.2792,1.65518 c 2.3536,0.91034 6.0523,2.82857 8.2195,4.26272 l 3.9403,2.60754 5.6581,-3.19323 c 3.1119,-1.75628 10.4381,-6.4391 16.2805,-10.40627 5.8423,-3.96717 16.372,-11.80038 23.3992,-17.40712 l 12.7768,-10.19409 2.2232,-0.508 c 1.2228,-0.2794 5.3732,-0.62244 9.2232,-0.76233 l 7,-0.25433 0.6287,-6.5 c 0.3457,-3.575 1.5365,-10.325 2.6461,-15 l 2.0176,-8.5 0.71,-17.42313 0.7101,-17.42313 1.2442,-8.41544 1.2443,-8.41544 5.0364,-5.03643 5.0364,-5.03643 2.8068,0 2.8068,0 2.8299,3.16712 2.8298,3.16711 -0.6042,6.70789 c -0.3322,3.68933 -1.0178,9.15303 -1.5235,12.14154 -0.5057,2.98851 -0.9262,8.83851 -0.9346,13 l -0.015,7.56634 -2.0783,11 -2.0784,11 0.065,5.39458 0.065,5.39459 -0.9874,4.40608 -0.9874,4.40608 6.7338,6.63517 6.7339,6.63516 5.0675,0.42024 5.0675,0.42023 3.9507,2.68311 3.9508,2.6831 2.3511,3.46083 2.351,3.46083 -0.5451,6 c -0.2997,3.3 -0.8367,7.43871 -1.1933,9.19713 l -0.6483,3.19713 1.9636,2.80287 1.9635,2.80287 0.5367,2.92367 0.5368,2.92366 -1.4342,4.82923 -1.4341,4.82923 -2.3764,1.5571 c -1.3071,0.8564 -2.628,2.21267 -2.9355,3.01393 l -0.559,1.45683 1.9713,3.23317 1.9713,3.23318 0,3.29966 0,3.29966 -1.405,2.70034 c -0.7727,1.48519 -2.5929,3.81027 -4.0449,5.16684 l -2.6399,2.4665 0.645,5.16225 0.6449,5.16225 -1.2222,2.37125 c -0.6723,1.30419 -2.4048,3.64561 -3.8501,5.20316 l -2.6278,2.8319 -3.5,1.50308 -3.5,1.50308 -8.5,0.46317 c -4.675,0.25474 -11.425,0.779 -15,1.16501 l -6.5,0.70185 -0.6344,7.09839 c -0.349,3.90411 -0.9097,7.96546 -1.2461,9.02523 -0.3364,1.05976 -1.0595,5.29049 -1.607,9.40161 -0.5475,4.11112 -1.7048,11.07477 -2.5718,15.47477 -0.867,4.4 -1.9843,12.5 -2.483,18 -0.4986,5.5 -1.3428,13.375 -1.8759,17.5 -0.5331,4.125 -1.4698,9.3 -2.0817,11.5 -0.6118,2.2 -2.0151,11.875 -3.1184,21.5 -1.1033,9.625 -2.3779,22.45 -2.8325,28.5 -0.4545,6.05 -1.306,12.8 -1.8922,15 -0.5862,2.2 -1.7945,8.725 -2.6851,14.5 -0.8906,5.775 -2.223,15.45 -2.9608,21.5 -0.7379,6.05 -1.8781,15.275 -2.5338,20.5 -0.6557,5.225 -1.4887,12.2 -1.8511,15.5 -0.3624,3.3 -1.037,6.59705 -1.499,7.32677 -0.462,0.72973 -1.2373,4.10473 -1.7228,7.5 -0.4854,3.39528 -1.4747,9.54823 -2.1982,13.67323 -0.7236,4.125 -1.7979,8.4 -2.3873,9.5 l -1.0716,2 -0.6534,7 c -0.3593,3.85 -1.0973,9.925 -1.64,13.5 -0.5427,3.575 -1.4059,11 -1.9182,16.5 -0.5123,5.49999 -1.4097,13.59999 -1.9942,17.99999 -0.5845,4.4 -1.4997,10.025 -2.0337,12.5 -0.5341,2.475 -1.4366,10.8 -2.0057,18.5 -0.5691,7.7 -1.4541,16.7 -1.9667,20 l -0.9318,6 -1.0968,28 c -0.6032,15.4 -1.5222,31.375 -2.0422,35.5 -0.5201,4.125 -1.3718,10.2 -1.8928,13.5 -0.521,3.3 -1.6844,10.5 -2.5853,16 -0.901,5.5 -2.2789,15.175 -3.0621,21.5 -0.7832,6.325 -1.8527,15.1 -2.3768,19.5 -0.5241,4.4 -1.4137,11.6 -1.9769,16 -0.5633,4.4 -1.6972,11.825 -2.5198,16.5 -0.8227,4.675 -2.46,14.5084 -3.6386,21.8521 l -2.1428,13.3521 0.6149,4.6479 0.6148,4.6479 -1.0007,10 c -0.5504,5.5 -1.6697,16.975 -2.4873,25.5 -0.8177,8.525 -2.1879,21.35 -3.0451,28.5 -0.8571,7.15 -1.963,16.375 -2.4575,20.5 -0.4946,4.125 -1.4198,8.9681 -2.0561,10.7625 l -1.1568,3.2625 0.4711,1.2375 0.4712,1.2375 -1.2726,12.5 c -0.6998,6.875 -1.7551,14.3 -2.3451,16.5 l -1.0725,4 -0.024,4.8074 c -0.013,2.644 -0.4524,7.819 -0.9762,11.5 -0.5238,3.6809 -1.4144,10.5176 -1.9792,15.1926 -0.5647,4.675 -1.7364,14.8 -2.6036,22.5 -0.8673,7.7 -2.0545,16.025 -2.6382,18.5 l -1.0612,4.5 -0.7795,15 -0.7794,15 -1.0975,6 -1.0974,6 -0.01,6.6849 -0.01,6.6849 -1.0738,2.8151 c -0.5906,1.5483 -1.4406,4.6151 -1.8891,6.8151 -0.4484,2.2 -1.7852,9.175 -2.9706,15.5 -1.1855,6.325 -2.6239,13.3 -3.1966,15.5 -0.5727,2.2 -1.4322,6.925 -1.9101,10.5 -0.4779,3.575 -1.3441,8.7354 -1.9248,11.4676 l -1.0559,4.9676 1.0403,5.5324 1.0402,5.5324 -1.0114,8.5 c -0.5563,4.675 -1.5274,12.775 -2.158,18 -0.6306,5.225 -1.4263,12.9197 -1.7684,17.0993 l -0.6218,7.5994 -1.3186,1.5857 -1.3186,1.5858 -2.4046,13.8149 -2.4045,13.8149 -0.043,5.5 -0.043,5.5 -1.8865,9 -1.8865,9 -0.083,6 -0.083,6 -0.8712,3 -0.8713,3 -0.1514,15 c -0.083,8.25 -0.4084,18.6 -0.7225,23 l -0.5712,8 -1.5044,5.4412 -1.5045,5.4412 -3.087,4.5588 c -1.6978,2.5074 -4.5156,6.1705 -6.2617,8.1404 l -3.1747,3.5816 -0.6468,4.0449 -0.6468,4.0448 -4.0109,3.6236 -4.0108,3.6235 -3.7471,-0.015 z"
     id="path2987"
     inkscape:connector-curvature="0" />
</svg>
