<?xml version="1.0" encoding="UTF-8" standalone="no"?>
<!-- Created with Inkscape (http://www.inkscape.org/) -->

<svg
   xmlns:dc="http://purl.org/dc/elements/1.1/"
   xmlns:cc="http://creativecommons.org/ns#"
   xmlns:rdf="http://www.w3.org/1999/02/22-rdf-syntax-ns#"
   xmlns:svg="http://www.w3.org/2000/svg"
   xmlns="http://www.w3.org/2000/svg"
   xmlns:sodipodi="http://sodipodi.sourceforge.net/DTD/sodipodi-0.dtd"
   xmlns:inkscape="http://www.inkscape.org/namespaces/inkscape"
   id="svg2"
   version="1.1"
   inkscape:version="0.48.2 r9819"
   width="458.60672"
   height="1026.4062"
   sodipodi:docname="Bearer.png">
  <metadata
     id="metadata8">
    <rdf:RDF>
      <cc:Work
         rdf:about="">
        <dc:format>image/svg+xml</dc:format>
        <dc:type
           rdf:resource="http://purl.org/dc/dcmitype/StillImage" />
        <dc:title></dc:title>
      </cc:Work>
    </rdf:RDF>
  </metadata>
  <defs
     id="defs6" />
  <sodipodi:namedview
     pagecolor="#ffffff"
     bordercolor="#666666"
     borderopacity="1"
     objecttolerance="10"
     gridtolerance="10"
     guidetolerance="10"
     inkscape:pageopacity="0"
     inkscape:pageshadow="2"
     inkscape:window-width="1600"
     inkscape:window-height="876"
     id="namedview4"
     showgrid="false"
     fit-margin-top="0"
     fit-margin-left="0"
     fit-margin-right="0"
     fit-margin-bottom="0"
     inkscape:zoom="0.5"
     inkscape:cx="230.24893"
     inkscape:cy="626.17374"
     inkscape:window-x="0"
     inkscape:window-y="24"
     inkscape:window-maximized="1"
     inkscape:current-layer="svg2" />
  <path
     style="fill:#000000"
     d="m 190.74893,1025.7926 -7,0.6136 -0.75,-0.7603 c -0.4125,-0.4181 -0.75,-2.0494 -0.75,-3.625 l 0,-2.8647 -1.5081,-0.5787 -1.5081,-0.5787 -3.2419,1.4989 c -1.78305,0.8243 -4.26146,1.8065 -5.5076,2.1824 l -2.2657,0.6836 -3.48475,-1.15 -3.48475,-1.1501 -0.59716,-2.3793 -0.59716,-2.3792 1.22949,-7.2931 1.22948,-7.293 2.30158,-4.49997 c 1.26587,-2.475 3.71151,-7.385 5.43476,-10.911 l 3.13318,-6.41107 3.18336,-2.98379 c 1.75086,-1.64108 5.50254,-4.7008 8.33709,-6.79938 l 5.15372,-3.8156 2.34628,-3.2755 c 1.29045,-1.80153 2.90878,-4.34578 3.59628,-5.65389 0.6875,-1.30811 1.25,-2.81998 1.25,-3.35971 0,-0.53972 0.83891,-2.17579 1.86425,-3.63569 1.02534,-1.4599 2.37181,-4.22937 2.99217,-6.15437 0.62035,-1.925 1.77559,-5.56237 2.5672,-8.08306 0.79161,-2.52068 1.7544,-7.36825 2.13953,-10.77237 l 0.70025,-6.18932 0.8683,-0.53664 0.8683,-0.53664 0,-2.49065 0,-2.49064 1.71801,-3.20034 1.718,-3.20034 0.7919,-7.5 c 0.43554,-4.125 1.2087,-12.225 1.71814,-18 0.50943,-5.775 1.42679,-16.125 2.03857,-23 l 1.11233,-12.5 0.5558,-41.5 c 0.30569,-22.825 0.54904,-46.225 0.54076,-52 l -0.015,-10.5 -1.6358,-5 c -0.8997,-2.75 -2.06687,-7.475 -2.59372,-10.5 -0.52685,-3.025 -1.37366,-7.525 -1.8818,-10 -0.50815,-2.475 -1.64106,-8.1 -2.51758,-12.5 -0.87652,-4.4 -2.26452,-11.15 -3.08444,-15 -0.81992,-3.85 -1.485,-8.4074 -1.47795,-10.12756 l 0.0128,-3.12755 -1.56785,-1.3012 -1.56785,-1.3012 -6.69753,7.17875 c -3.68363,3.94832 -7.09099,7.17876 -7.5719,7.17876 -0.48091,0 -1.49663,-0.7875 -2.25715,-1.75 -0.76052,-0.9625 -2.28178,-3.4375 -3.38057,-5.5 l -1.9978,-3.75 -1.77967,0 -1.77968,0 -1.2,1.2 -1.2,1.2 0,2.33138 0,2.33139 -1.5162,0.58182 -1.5162,0.58182 -4.36589,-1.43731 -4.36589,-1.43731 -5.7929,-0.23436 -5.7929,-0.23436 -1.57501,-0.80444 c -0.86625,-0.44243 -3.60001,-1.1043 -6.07501,-1.47082 -2.475,-0.36651 -6.00872,-1.15336 -7.85271,-1.74855 l -3.35271,-1.08216 0.61045,-3.05226 0.61045,-3.05226 -1.53079,-2.33629 -1.5308,-2.33629 -7.65595,0 -7.65594,0 -3.23228,-1.16881 -3.23227,-1.1688 -0.71917,-3.0812 c -0.39553,-1.69465 -0.90932,-9.55983 -1.14174,-17.47817 l -0.42259,-14.39697 1.05303,-1.05303 1.053,-1.05302 0,-2.26958 0,-2.26959 2.09424,-3.72861 c 1.15183,-2.05073 3.40183,-7.73 5,-12.62059 1.59817,-4.89059 2.90576,-9.68166 2.90576,-10.64682 l 0,-1.75483 1.90862,-1.72729 c 1.04975,-0.95 2.44404,-3.01986 3.09842,-4.59968 l 1.18979,-2.87241 -0.67102,-9.8053 c -0.36907,-5.39291 -0.7254,-13.8553 -0.79186,-18.8053 l -0.12083,-9 1.0911,-8.5 c 0.6001,-4.675 1.79612,-11.2 2.65781,-14.5 l 1.56673,-6 0.0433,-4 0.0433,-4 1.98464,-6.5 1.98472,-6.5 0.008,-3.79831 0.008,-3.7983 2.06585,-4.2017 c 1.13621,-2.31093 2.93598,-6.45169 3.99949,-9.20169 1.06351,-2.75 1.93388,-5.70514 1.93416,-6.56698 2.7e-4,-0.86184 1.3505,-4.2067 3.0005,-7.43302 1.65,-3.22632 3,-6.40527 3,-7.06433 l 0,-1.19829 3.75,-2.85757 c 2.0625,-1.57167 4.73029,-3.98758 5.92843,-5.36869 1.19814,-1.38112 3.59283,-4.83611 5.32155,-7.67777 l 3.14311,-5.16665 0.25723,-6.33335 0.25723,-6.33335 -2.32877,-6.27283 -2.32878,-6.27283 0,-3.85079 0,-3.85079 4,-4.37594 4,-4.37593 0,-6.69143 0,-6.69143 -1,-0.61803 -1,-0.61803 0,-2.03662 0,-2.03661 -1.79192,-2.65437 c -0.98556,-1.4599 -2.67306,-4.37926 -3.75,-6.48746 l -1.95808,-3.83309 -3.63033,-2.68403 c -1.99668,-1.47621 -6.4655,-5.82632 -9.9307,-9.66691 -3.4652,-3.84058 -7.68155,-8.33288 -9.36967,-9.98288 -1.68811,-1.65 -3.71038,-4.125 -4.49392,-5.5 -0.78354,-1.375 -2.35824,-4.2413 -3.49934,-6.36955 l -2.07471,-3.86954 -2.00066,-0.7562 c -1.10109,-0.41591 -4.47639,-1.09111 -7.50139,-1.50045 l -5.5,-0.74424 -4.5,-2.35255 c -2.475,-1.2939 -5.72384,-3.45658 -7.21966,-4.80594 -1.49581,-1.34937 -3.63162,-3.94923 -4.74626,-5.77746 l -2.0266,-3.32407 -0.004,-3.17857 -0.004,-3.17857 -1.61607,-1.61607 -1.61607,-1.61608 -1.09532,0.36511 -1.09532,0.36511 -1.61774,5.42953 c -0.88976,2.98625 -3.26964,8.90424 -5.28861,13.15109 -2.01846,4.24685 -3.67035,8.31935 -3.67035,9.05 0,0.73065 -0.37788,1.75595 -0.83972,2.27845 -0.46185,0.5225 -1.44903,2.525 -2.19374,4.45 -0.74471,1.925 -3.15421,6.53262 -5.35446,10.23915 l -4.00044,6.73915 -6.24281,3.01085 c -3.43355,1.65597 -6.62984,3.01085 -7.10287,3.01085 -0.47304,0 -2.63889,1.85705 -4.81301,4.12678 -2.17412,2.26973 -5.95355,5.41973 -8.39873,7 l -4.44578,2.87322 -3.76671,0 -3.76671,0 -5.51442,-2.06321 -5.51443,-2.06322 -2.05969,-2.89256 c -1.13283,-1.5909 -2.56459,-4.37496 -3.18169,-6.18678 -0.6171003,-1.81183 -2.3022403,-5.09423 -3.7447603,-7.29423 -1.44252,-2.2 -3.20039,-5.68782 -3.90638,-7.7507 L 1.11897,330.21762 0.55948,321.46833 0,312.71903 l 1.67795,-8.5 c 0.9228697,-4.675 2.1571497,-9.85 2.7428397,-11.5 0.58569,-1.65 1.91162,-4.9076 2.94651,-7.2391 1.0349,-2.33151 1.88163,-4.63891 1.88163,-5.12756 0,-0.48865 0.63085,-1.41201 1.4018903,-2.05191 0.77103,-0.63991 1.68261,-2.28199 2.02573,-3.64907 0.34312,-1.36709 1.69608,-4.83613 3.00658,-7.70899 1.3105,-2.87285 3.54892,-7.86686 4.97427,-11.0978 1.42534,-3.23094 2.59153,-6.27334 2.59153,-6.7609 0,-0.48756 0.84122,-2.79406 1.86937,-5.12557 1.02815,-2.3315 2.42944,-6.2641 3.11398,-8.7391 0.68454,-2.475 1.61039,-5.4 2.05746,-6.5 0.44706,-1.1 1.34987,-5.15 2.00623,-9 l 1.19338,-7 4.00232,-7.5 c 2.20127,-4.125 5.73579,-10.875 7.85448,-15 2.11869,-4.125 3.86355,-8.1975 3.87747,-9.05 0.0139,-0.8525 0.39706,-1.9775 0.85143,-2.5 0.45437,-0.5225 1.43085,-2.87601 2.16997,-5.23003 l 1.34385,-4.28003 -0.9607,-0.9607 -0.9607,-0.9607 -2.20927,1.54743 -2.20927,1.54744 0,1.39624 c 0,0.76793 -0.52223,2.54242 -1.16052,3.9433 l -1.16051,2.54705 -3.08949,-0.0318 -3.08948,-0.0318 -1.75,-1.32844 -1.75,-1.32844 0,-4.43975 0,-4.43976 -1.2,-1.2 -1.2,-1.2 -1.89563,0 -1.89563,0 -2.90437,-2.06809 -2.90437,-2.0681 0,-1.9319 0,-1.93191 1.5,0 1.5,0 -0.006,-1.25 c -0.003,-0.6875 -0.67839,-2.53894 -1.5,-4.11431 -0.82157,-1.57537 -1.4938,-3.28925 -1.4938,-3.80864 0,-0.51938 1.32293,-2.60544 2.93985,-4.63569 l 2.93984,-3.69136 1.17306,-5 1.17306,-5 1.68572,-1.5 c 0.92715,-0.825 2.05809,-2.4 2.5132,-3.5 l 0.82747,-2 0.27262,-8.04592 0.27261,-8.04592 1.3026,-4.45408 c 0.71643,-2.449742 1.61191,-4.679082 1.98996,-4.954082 0.37805,-0.275 1.16968,-2.25448 1.75917,-4.39884 l 1.07182,-3.89883 -1.92839,-5.724338 c -1.06062,-3.148386 -2.2111,-7.492313 -2.55664,-9.65317 l -0.62845,-3.928842 1.59615,-3.820119 1.59615,-3.820119 0,-3.205468 0,-3.205468 2.5,-6.152537 2.5,-6.152538 0,-2.565325 0,-2.565325 2.25,-2.273826 c 1.2375,-1.250604 3.825,-4.291856 5.75,-6.758338 1.925,-2.466482 5.3,-6.055894 7.5,-7.976471 2.2,-1.920577 5.21113,-4.251968 6.6914,-5.180867 l 2.69141,-1.68891 2.96121,-4.303975 2.96122,-4.303975 7.84738,-1.377086 c 4.31606,-0.757398 9.42238,-1.507962 11.34738,-1.667921 1.925,-0.159959 5.68741,-0.584665 8.3609,-0.94379201 L 109.47073,0 l 9.6391,1.156839 9.6391,1.156839 3,1.147821 3,1.14782 2.27584,2.554854 2.27585,2.554855 0.55768,2.5 c 0.30672,1.375 0.70163,2.95 0.87757,3.5 l 0.31989,1 7.69178,2.913377 7.69179,2.913377 4.98907,5.086623 4.98907,5.086623 0.88768,2.241316 0.88768,2.241316 -0.50518,1.316476 -0.50518,1.316476 1.63463,6.442208 c 0.89905,3.543214 1.70668,8.467208 1.79473,10.942208 0.0881,2.475 -0.14812,7.2 -0.52483,10.5 l -0.68493,6 1.67343,1.864763 c 0.92039,1.02562 2.70365,2.25872 3.96281,2.740222 l 2.28938,0.875459 -0.28938,2.624682 -0.28938,2.624684 2,1.13509 c 1.1,0.62431 2.34198,1.5851 2.75995,2.1351 l 0.75995,1 -0.46834,2.00831 -0.46834,2.00831 0.70839,1.08772 c 0.38961,0.59824 1.83339,1.3822 3.20839,1.74213 l 2.5,0.65442 3.61865,3.39264 3.61865,3.392642 0.65842,3.50964 0.65841,3.50964 2.58782,1.6956 2.58782,1.69561 -0.57483,3.54226 -0.57483,3.54225 0.93411,1.7454 0.9341,1.74539 3.583,2.11402 3.583,2.11402 9.00858,0 9.00858,0 2.18426,-1.18155 2.18426,-1.18155 8.5,-1.25868 c 4.675,-0.69228 10.88891,-1.67255 13.80868,-2.17838 l 5.30868,-0.9197 4.55883,0.85168 4.55883,0.85168 12.18766,-0.17118 12.18766,-0.17117 1.1315,0.6993 1.1315,0.6993 14.36305,0.91031 14.36306,0.91031 2.45027,1.0046 c 1.34766,0.55253 5.60028,1.95994 9.45028,3.12759 3.85,1.16764 10.66855,3.89699 15.15233,6.06522 4.48378,2.16822 8.55885,3.94222 9.05572,3.94222 0.49686,0 2.3963,1.10143 4.22096,2.44762 l 3.31756,2.44763 3.0111,0.66134 c 1.65611,0.36375 6.88813,2.46877 11.62672,4.67783 4.73858,2.20906 10.64061,5.39644 13.11561,7.08307 l 4.5,3.06659 7.5771,7.79663 c 4.1674,4.28815 9.3424,10.09009 11.5,12.89321 2.15759,2.80312 7.20954,8.54572 11.22654,12.76133 l 7.30363,7.66475 2.5828,4.986 c 1.42055,2.74231 3.5761,6.56731 4.79013,8.5 1.21403,1.9327 2.52681,4.864 2.9173,6.514 0.39049,1.65 1.08924,4.8 1.55277,7 0.46354,2.2 1.78137,7.22798 2.92851,11.17328 1.14714,3.9453 2.38002,9.7953 2.73972,13 0.3598,3.2047 0.9921,6.27672 1.4053,6.82672 0.4132,0.55 1.0851,3.025 1.4931,5.5 l 0.7419,4.5 0.05,20.5 0.049,20.5 -1.1021,8.16072 c -0.6062,4.48839 -1.8539,11.01339 -2.7727,14.5 -0.91885,3.4866 -2.01603,7.23928 -2.43822,8.33928 -0.42219,1.1 -1.52373,3.575 -2.44788,5.5 -0.92415,1.925 -3.01599,5.75 -4.64854,8.5 -1.63255,2.75 -4.78629,8.78761 -7.00832,13.4169 l -4.04006,8.4169 -9.20002,9.0924 -9.20001,9.0924 -6.5,3.38501 c -3.575,1.86176 -9.2,4.78257 -12.5,6.4907 l -6,3.10569 -0.8643,4 c -0.47537,2.2 -1.33332,5.00206 -1.90656,6.22679 l -1.04226,2.2268 4.15063,9.2732 4.15062,9.27321 0.96324,5 c 0.52979,2.75 1.46641,10.625 2.0814,17.5 0.61498,6.875 1.7514,19.025 2.52537,27 0.77396,7.975 1.84487,16.3 2.37978,18.5 0.53491,2.2 1.27421,5.25865 1.64289,6.79701 l 0.67032,2.79701 -2.31043,8.20299 -2.31043,8.20299 -2.56513,3.92211 -2.56514,3.92211 -0.32748,13.32789 -0.32748,13.32789 -0.84497,0 -0.84497,0 -1.20787,3.75 c -0.66433,2.0625 -1.54418,4.2 -1.95522,4.75 -0.41105,0.55 -1.05859,3.7 -1.439,7 -0.3804,3.3 -0.99795,9.6 -1.37233,14 l -0.68068,8 -2.36421,3.80283 -2.36421,3.80282 -5.38579,3.97872 -5.38579,3.97872 0,1.64746 c 0,0.9061 -0.41951,3.0294 -0.93224,4.71845 -0.51273,1.68905 -1.42218,4.871 -2.02099,7.071 -0.59881,2.2 -1.27445,6.025 -1.50141,8.5 -0.22696,2.475 -0.72363,5.625 -1.10371,7 l -0.69105,2.5 -9.25993,9.5 -9.25994,9.5 -0.55071,4.47739 -0.55071,4.4774 1.12204,4.19518 1.12205,4.19519 -1.30915,1.57742 -1.30914,1.57742 -3.31854,0 -3.31854,0 -0.54626,-0.88388 c -0.30045,-0.48613 -2.59532,-1.84705 -5.09971,-3.02425 l -4.55344,-2.14037 -0.58049,-1.51273 -0.58049,-1.51274 -2.6862,-1.38909 -2.68619,-1.38908 -7.28002,0.17607 -7.28002,0.17607 -1.6626,-2.03366 -1.66261,-2.03366 -3.23204,-1.33022 -3.23204,-1.33022 -1.51796,0.58249 -1.51796,0.5825 0,1.31269 0,1.31269 6.08821,5.96869 c 3.34851,3.28279 8.42849,9.1187 11.28884,12.9687 2.86035,3.85 5.7017,8.125 6.31411,9.5 0.6124,1.375 2.10866,5.425 3.32501,9 1.21635,3.575 2.78525,7.85 3.48645,9.5 0.70121,1.65 1.60867,4.125 2.0166,5.5 0.40793,1.375 1.62783,4.525 2.71089,7 1.08307,2.475 2.31615,5.4 2.74019,6.5 0.42404,1.1 1.94353,4.475 3.37664,7.5 1.43311,3.025 4.65626,11.8 7.16256,19.5 2.50629,7.7 4.99196,15.0125 5.5237,16.25 0.53174,1.2375 1.41109,3.2625 1.95412,4.5 0.54303,1.2375 1.70702,4.95 2.58665,8.25 0.87963,3.3 1.9525,7.35 2.38414,9 0.43165,1.65 1.59904,5.025 2.59421,7.5 l 1.80939,4.5 6.31914,8.85091 c 3.47553,4.868 6.31915,9.2405 6.31915,9.71667 0,0.47616 1.60368,2.46943 3.56373,4.42948 l 3.56372,3.56372 1.3785,3.29922 c 0.75818,1.81457 2.0795,3.88099 2.93627,4.59205 l 1.55778,1.29284 -0.004,2.62755 -0.004,2.62756 -2.0266,3.32407 c -1.11464,1.82823 -3.25045,4.41166 -4.74626,5.74095 -1.49582,1.32929 -6.78767,4.63577 -11.75968,7.34774 l -9.04001,4.93085 -3.21175,6.39152 c -1.76646,3.51534 -4.11095,7.35672 -5.20998,8.53639 l -1.99767,2.14485 0,2.04182 0,2.04181 -0.88387,0 -0.88386,0 -3.11614,6.26646 -3.11613,6.26645 0,2.26566 c 0,1.24612 -0.64939,3.81989 -1.4431,5.71949 l -1.4431,3.45382 -4.75268,3.01406 -4.75268,3.01406 -5.77747,0 -5.77747,0 -4.77675,2.14633 c -2.62721,1.18047 -5.7622,2.59204 -6.96663,3.1368 l -2.18988,0.99048 -5.14035,-0.68189 -5.14035,-0.68189 -4.8478,-2.70492 -4.8478,-2.70491 -1.58896,-4.91746 -1.58897,-4.91746 2.26699,-2.43205 c 1.24685,-1.33764 3.92969,-3.75544 5.96187,-5.37291 l 3.69487,-2.94085 5.30513,-1.40177 c 2.91782,-0.77097 7.00241,-2.23774 9.07686,-3.25949 l 3.77174,-1.85771 2.47826,-3.6471 2.47827,-3.64709 0,-2.006 c 0,-1.1033 0.4094,-3.03968 0.90977,-4.30306 0.50038,-1.26338 1.43481,-5.67205 2.07651,-9.79705 0.64171,-4.125 1.63401,-9.525 2.20511,-12 0.57111,-2.475 1.53993,-6.075 2.15294,-8 0.61301,-1.925 1.91131,-4.97619 2.88512,-6.78042 l 1.77055,-3.28041 0,-6.80443 0,-6.80443 -2.06619,-6.41515 c -1.13641,-3.52834 -4.38574,-11.14016 -7.22073,-16.91516 -2.835,-5.775 -7.30521,-13.75209 -9.93381,-17.72686 -2.6286,-3.97478 -4.78121,-7.57478 -4.78357,-8 -0.002,-0.42523 -1.84856,-3.2058 -4.10265,-6.17905 -2.25409,-2.97324 -5.06465,-7.04345 -6.2457,-9.04489 -1.18104,-2.00145 -3.27235,-5.52783 -4.64735,-7.8364 l -2.5,-4.1974 -1.88084,-0.008 -1.88084,-0.008 0.66761,3.75 c 0.36719,2.0625 1.1442,6.45 1.72669,9.75 l 1.05908,6 -0.56921,7.5 -0.5692,7.5 -2.12806,7 c -1.17044,3.85 -2.55919,9.025 -3.08611,11.5 -0.52693,2.475 -1.32416,6.975 -1.77165,10 -0.44748,3.025 -1.55833,8.2 -2.46856,11.5 -0.91023,3.3 -2.32679,8.25 -3.14792,11 -0.82112,2.75 -2.21986,7.475 -3.1083,10.5 -0.88844,3.025 -2.65911,8.65 -3.93482,12.5 -1.27572,3.85 -2.61097,8.8 -2.96723,11 l -0.64775,4 -3.42156,5.86383 c -1.88186,3.22511 -4.79616,9.07511 -6.47623,13 -1.68007,3.92489 -3.62889,8.93617 -4.33071,11.13617 -0.70182,2.2 -1.87171,5.93906 -2.59976,8.30903 l -1.32371,4.30904 1.17954,3.26196 1.17954,3.26197 0,7.479 0,7.479 -1.17125,1.17125 -1.17126,1.17126 0.12802,6.62418 0.12801,6.62419 0.85515,1.15456 c 0.47033,0.63501 1.45056,3.59191 2.17828,6.57088 l 1.32313,5.41633 0.11496,6.72745 0.11496,6.7276 -1.79598,1.9857 -1.79597,1.9857 -3.70403,0.6044 -3.70402,0.6045 -1.9064,3.26597 c -1.04852,1.7963 -2.72787,4.841 -3.73189,6.766 -1.00402,1.925 -2.39614,4.2183 -3.0936,5.0963 -0.69746,0.878 -2.70826,2.3405 -4.46845,3.25 -1.76019,0.9095 -4.10703,1.6537 -5.2152,1.6537 l -2.01487,0 -3.606,3.1661 -3.606,3.1661 -4.6788,0.314 c -2.57333,0.1726 -7.82879,0.59 -11.67879,0.9274 z"
     id="path2991"
     inkscape:connector-curvature="0" />
</svg>
