<?xml version="1.0" encoding="UTF-8" standalone="no"?>
<!-- Created with Inkscape (http://www.inkscape.org/) -->

<svg
   xmlns:dc="http://purl.org/dc/elements/1.1/"
   xmlns:cc="http://creativecommons.org/ns#"
   xmlns:rdf="http://www.w3.org/1999/02/22-rdf-syntax-ns#"
   xmlns:svg="http://www.w3.org/2000/svg"
   xmlns="http://www.w3.org/2000/svg"
   xmlns:sodipodi="http://sodipodi.sourceforge.net/DTD/sodipodi-0.dtd"
   xmlns:inkscape="http://www.inkscape.org/namespaces/inkscape"
   id="svg2"
   version="1.1"
   inkscape:version="0.48.2 r9819"
   width="757.15479"
   height="1816.5513"
   sodipodi:docname="Bearer1b.png">
  <metadata
     id="metadata8">
    <rdf:RDF>
      <cc:Work
         rdf:about="">
        <dc:format>image/svg+xml</dc:format>
        <dc:type
           rdf:resource="http://purl.org/dc/dcmitype/StillImage" />
        <dc:title></dc:title>
      </cc:Work>
    </rdf:RDF>
  </metadata>
  <defs
     id="defs6" />
  <sodipodi:namedview
     pagecolor="#ffffff"
     bordercolor="#666666"
     borderopacity="1"
     objecttolerance="10"
     gridtolerance="10"
     guidetolerance="10"
     inkscape:pageopacity="0"
     inkscape:pageshadow="2"
     inkscape:window-width="1920"
     inkscape:window-height="1176"
     id="namedview4"
     showgrid="false"
     fit-margin-top="0"
     fit-margin-left="0"
     fit-margin-right="0"
     fit-margin-bottom="0"
     inkscape:zoom="0.5"
     inkscape:cx="-480.84524"
     inkscape:cy="946.0115"
     inkscape:window-x="0"
     inkscape:window-y="24"
     inkscape:window-maximized="1"
     inkscape:current-layer="svg2" />
  <path
     style="fill:#000000"
     d="m 377.96665,1814.2897 c -1.8044,-0.9625 -4.5825,-1.75 -6.1736,-1.75 -1.5911,0 -5.6481,-1.2795 -9.0156,-2.8434 -3.3675,-1.5639 -7.4727,-3.3258 -9.12269,-3.9152 -6.08,-2.1722 -19.1712,-7.5897 -25,-10.3458 -3.3,-1.5604 -8.475,-3.563 -11.5,-4.4501 -6.6171,-1.9407 -12.5565,-4.1663 -16.1543,-6.0533 -1.4598,-0.7657 -3.5423,-1.3922 -4.6275,-1.3922 -1.0853,0 -2.5335,-0.675 -3.2182,-1.5 -0.68471,-0.825 -1.66641,-1.5 -2.1815,-1.5 -1.4701,0 -16.6383,-11.8316 -23.5565,-18.3748 -3.4441,-3.2574 -6.262,-6.7005 -6.262,-7.6514 0,-0.9509 -0.675,-2.2891 -1.5,-2.9738 -0.825,-0.6847 -1.5,-1.8422 -1.5,-2.5723 0,-0.7301 -1.35,-3.3278 -3,-5.7726 -2.8598,-4.2375 -3,-4.9349 -3,-14.9277 0,-8.0978 0.3412,-10.7657 1.5,-11.7274 0.825,-0.6847 1.5,-2.4847 1.5,-4 0,-1.5153 0.675,-3.3153 1.5,-4 0.825,-0.6847 1.5,-2.2288 1.5,-3.4313 0,-1.2025 0.6607,-3.0599 1.4682,-4.1276 0.8343,-1.103 1.4819,-4.1549 1.5,-7.0687 0.021,-3.3055 0.5648,-5.5699 1.5318,-6.3724 0.825,-0.6847 1.5,-2.6846 1.5,-4.4443 0,-1.7597 0.7357,-5.3585 1.6348,-7.9974 1.3495,-3.9604 1.5495,-7.754 1.146,-21.7322 -0.3109,-10.7686 -0.9061,-17.3514 -1.6348,-18.0801 -0.6303,-0.6303 -1.146,-3.9259 -1.146,-7.3236 0,-4.2712 -0.4629,-6.5617 -1.5,-7.4224 -1.0597,-0.8794 -1.5,-3.2078 -1.5,-7.9313 0,-4.3311 -0.5172,-7.3702 -1.4682,-8.6276 -0.9213,-1.2181 -1.4919,-4.3622 -1.5318,-8.4411 -0.04,-4.0789 -0.6105,-7.223 -1.5318,-8.4411 -0.854,-1.1291 -1.4682,-4.1173 -1.4682,-7.143 0,-3.7014 -0.4327,-5.368 -1.5,-5.7775 -1.1174,-0.4288 -1.5,-2.2102 -1.5,-6.9846 0,-4.4769 -0.4522,-6.7842 -1.5,-7.6538 -0.825,-0.6847 -1.5,-2.6788 -1.5,-4.4313 0,-1.7525 -0.6607,-4.0599 -1.4682,-5.1276 -0.8075,-1.0676 -1.4825,-3.5735 -1.5,-5.5687 -0.017,-1.9951 -0.7068,-4.1877 -1.5318,-4.8724 -0.9028,-0.7493 -1.5,-2.9371 -1.5,-5.4953 0,-2.3378 -0.9236,-6.3385 -2.0525,-8.8904 -1.1288,-2.552 -2.6604,-7.8308 -3.4035,-11.7307 -0.7431,-3.8999 -1.8445,-7.5841 -2.4476,-8.1872 -0.603,-0.603 -1.0981,-2.0189 -1.1001,-3.1464 0,-1.1275 -0.969,-3.625 -2.1486,-5.55 -1.1797,-1.925 -3.2745,-5.525 -4.6552,-8 -3.9774,-7.1299 -6.9872,-11.7222 -8.9683,-13.6838 -1.0089,-0.9989 -3.3547,-3.8412 -5.213,-6.3162 -1.8582,-2.475 -4.5334,-5.6521 -5.9449,-7.0602 -2.8686,-2.8617 -4.6009,-5.3523 -6.0439,-8.6898 -0.5351,-1.2375 -1.434,-2.25 -1.9976,-2.25 -0.5637,0 -1.0248,-1.0769 -1.0248,-2.393 0,-1.3162 -0.675,-2.652 -1.5,-2.9686 -0.8576,-0.3291 -1.5,-1.8213 -1.5,-3.4846 0,-1.5999 -0.675,-3.4691 -1.5,-4.1538 -0.825,-0.6847 -1.5143,-2.2023 -1.5318,-3.3724 -0.017,-1.1702 -0.6925,-3.0011 -1.5,-4.0687 -0.8075,-1.0677 -1.4682,-3.6001 -1.4682,-5.6276 0,-2.0569 -0.6631,-4.2367 -1.5,-4.9313 -0.825,-0.6847 -1.5,-2.6788 -1.5,-4.4313 0,-1.7525 -0.6607,-4.0599 -1.4682,-5.1276 -0.8075,-1.0676 -1.4825,-2.7133 -1.5,-3.6572 -0.031,-1.6683 -2.3763,-7.7548 -4.1555,-10.7839 -0.4846,-0.825 -1.3445,-2.58 -1.911,-3.9 -1.2983,-3.0256 -12.9647,-14.5312 -16.6848,-16.455 -6.2195,-3.2162 -15.2805,-0.1801 -15.2805,5.1202 0,1.9671 -4.8639,7.2348 -6.6803,7.2348 -3.4835,0 -13.50076,5.9062 -19.60898,11.5615 -3.8248,3.5412 -7.70941,6.4385 -8.63245,6.4385 -0.92305,0 -2.23724,0.559 -2.92041,1.2421 -1.25207,1.2521 -10.001045,3.142 -20.157865,4.3544 -3.025,0.3611 -6.9118,1.505 -8.63733,2.5419 -2.85677,1.7168 -10.67355,10.0515 -12.68808,13.5288 -0.96538,1.6663 -10.0478,5.8432 -16.01989,7.3674 -2.28509,0.5831 -5.5047,1.6852 -7.1547,2.4491 -1.65,0.7639 -3.675,1.6396 -4.5,1.9462 -0.825,0.3066 -2.175,0.9463 -3,1.4217 -6.0286,3.4737 -8.33495,4.1471 -14.15429,4.1331 -7.23168,-0.017 -7.2704,-0.036 -11.62155,-5.6286 -2.32898,-2.9934 -3.234,-5.2145 -3.2596,-8 -0.0195,-2.1209 -0.67854,-4.9811 -1.46456,-6.3561 -0.78602,-1.375 -1.44507,-4.7765 -1.46457,-7.5589 -0.0199,-2.8478 -0.67713,-5.9072 -1.50363,-7 -1.98472,-2.624 -2.00361,-17.5321 -0.0318,-25.1024 0.825,-3.1674 1.5,-8.0843 1.5,-10.9264 0,-3.3733 0.5208,-5.5996 1.5,-6.4123 1.25517,-1.0417 1.5,-5.0659 1.5,-24.6546 0,-18.5463 0.31162,-24.1555 1.5,-26.9996 0.825,-1.9745 1.5,-4.8995 1.5,-6.5 0,-1.6005 0.675,-4.5255 1.5,-6.5 0.825,-1.9745 1.5,-6.2495 1.5,-9.5 0,-3.2505 0.675,-7.5255 1.5,-9.5 0.825,-1.9745 1.5,-6.2495 1.5,-9.5 0,-3.2505 0.675,-7.5255 1.5,-9.5 0.825,-1.9745 1.50277,-5.8976 1.50616,-8.7179 0.003,-2.8204 0.61737,-6.2992 1.36441,-7.7308 0.74703,-1.4317 1.67026,-4.6837 2.05162,-7.2267 0.38135,-2.5431 1.11737,-4.8858 1.63559,-5.2061 0.51822,-0.3203 0.94222,-3.4258 0.94222,-6.9012 0,-3.4754 0.675,-7.9344 1.5,-9.9089 0.825,-1.9745 1.5,-4.9605 1.5,-6.6357 0,-1.6751 0.41776,-3.827 0.92836,-4.7821 2.88989,-5.4053 4.96823,-11.2746 5.39535,-15.2364 0.58473,-5.4239 3.33189,-15.1517 4.50031,-15.9358 0.46237,-0.3103 1.36627,-3.9392 2.00866,-8.0642 2.0765,-13.3337 2.31449,-14.4535 3.75135,-17.6511 0.79027,-1.7587 1.41597,-6.2727 1.41597,-10.2151 0,-3.8851 0.64368,-8.9921 1.43041,-11.3489 0.78672,-2.3567 1.73773,-5.9774 2.11336,-8.0459 0.37563,-2.0686 1.08194,-4.0077 1.56959,-4.3091 0.48765,-0.3013 0.88664,-1.3892 0.88664,-2.4175 0,-1.0282 0.5991,-2.4686 1.33133,-3.2009 0.73223,-0.7322 1.64081,-2.5643 2.01905,-4.0714 0.37825,-1.5071 1.12915,-2.7401 1.66867,-2.7401 0.53952,0 0.98095,-1.2021 0.98095,-2.6713 0,-1.4692 0.61216,-3.3817 1.36036,-4.25 1.29434,-1.5021 2.83171,-8.2916 4.49058,-19.8317 0.41531,-2.8892 1.29375,-5.7917 1.95209,-6.45 0.65833,-0.6584 1.19974,-2.5695 1.20313,-4.247 0.003,-1.6775 0.67839,-4.3389 1.5,-5.9143 0.82161,-1.5754 1.49384,-3.6578 1.49384,-4.6276 0,-0.9697 0.675,-2.3234 1.5,-3.0081 0.90328,-0.7497 1.5,-2.9376 1.5,-5.5 0,-2.5624 0.59672,-4.7503 1.5,-5.5 0.825,-0.6847 1.5,-2.2597 1.5,-3.5 0,-1.2403 0.675,-2.8153 1.5,-3.5 0.825,-0.6847 1.5,-2.7097 1.5,-4.5 0,-1.7903 0.675,-3.8153 1.5,-4.5 0.825,-0.6847 1.5,-2.1669 1.5,-3.2937 0,-1.1269 0.58134,-2.7593 1.29187,-3.6276 0.71053,-0.8683 2.14776,-4.2787 3.19385,-7.5787 1.04608,-3.3 2.71474,-7.5683 3.70813,-9.4852 0.99338,-1.9168 1.80615,-5.03725 1.80615,-6.93425 0,-1.897 0.8793,-5.2786 1.95401,-7.5148 1.0747,-2.2361 2.89133,-8.2981 4.03694,-13.471 1.14562,-5.1729 2.34894,-9.8356 2.67405,-10.3617 0.325125,-0.526 0.933825,-4.0783 1.352675,-7.894 0.44192,-4.0258 1.43745,-7.68442 2.37194,-8.71702 0.88572,-0.97871 1.6247,-2.64403 1.64219,-3.70072 0.0175,-1.05669 0.6925,-2.79477 1.5,-3.86239 0.80751,-1.06762 1.48251,-3.09262 1.5,-4.5 0.0175,-1.40738 0.6925,-3.43238 1.5,-4.5 0.80751,-1.06762 1.48251,-3.31762 1.5,-5 0.0175,-1.68238 0.6925,-3.93238 1.5,-5 0.80751,-1.06762 1.4682,-3.3586 1.4682,-5.09107 0,-1.73247 0.67013,-5.35896 1.48918,-8.05887 0.81904,-2.69991 1.50835,-6.93393 1.5318,-9.40893 0.0234,-2.475 0.70332,-5.37351 1.51082,-6.44113 0.82807,-1.0948 1.48207,-4.1468 1.5,-7 0.0179,-2.8532 0.67194,-5.9052 1.5,-7 0.82807,-1.0948 1.48207,-4.1468 1.5,-7 0.0179,-2.8532 0.67194,-5.9052 1.5,-7 0.80751,-1.06762 1.4682,-2.70002 1.4682,-3.62755 0,-0.92754 0.675,-2.24663 1.5,-2.93132 0.9799,-0.81324 1.5,-3.04012 1.5,-6.42244 0,-2.84766 0.5517,-5.7293 1.2261,-6.40365 1.232,-1.23198 3.2665,-9.02537 4.414,-16.9079 0.339,-2.3287 1.2337,-4.7463 1.9881,-5.37245 0.8714,-0.72319 1.3718,-3.23649 1.3718,-6.89028 0,-3.1635 0.675,-7.66498 1.5,-10.00328 0.825,-2.3383 1.5,-6.20461 1.5,-8.5918 0,-4.04847 1.1833,-7.84143 4.5984,-14.73924 0.7709,-1.55707 1.4016,-4.49444 1.4016,-6.52749 0,-2.03305 0.7087,-4.7083 1.5749,-5.945 0.8663,-1.2367 1.8372,-4.82432 2.1577,-7.97251 0.3525,-3.46177 1.7061,-7.80774 3.4251,-10.9965 1.5633,-2.8999 2.8423,-5.95974 2.8423,-6.79966 0,-0.83992 0.6507,-2.7855 1.4461,-4.32352 1.77,-3.42288 7.5038,-24.6712 8.5816,-31.80195 0.4321,-2.85872 1.5026,-6.22135 2.3789,-7.47251 0.8764,-1.25116 1.5934,-3.24475 1.5934,-4.4302 0,-1.18546 0.7186,-3.87515 1.5968,-5.9771 1.1426,-2.73455 1.4948,-6.0686 1.2382,-11.72008 -0.3146,-6.92768 -0.6575,-8.14027 -2.7896,-9.86679 -2.1711,-1.75803 -3.6077,-1.92336 -13.4399,-1.54673 -7.035,0.26947 -11.1468,0.83491 -11.3906,1.56639 -0.2099,0.62958 -1.4141,1.14469 -2.6761,1.14469 -3.4995,0 -9.1692,2.68374 -13.3111,6.30084 -10.54376,9.20779 -15.7783,12.69916 -19.03952,12.69916 -1.06881,0 -2.5035,0.675 -3.18818,1.5 -0.6847,0.825 -2.65229,1.51431 -4.37244,1.5318 -1.72016,0.0175 -4.001075,0.6925 -5.068695,1.5 -2.56154,1.93745 -17.67363,2.01766 -21.40458,0.11361 -3.17761,-1.62166 -12.36893,-4.63168 -14.2885,-4.67927 -2.81401,-0.0698 -13.61709,-9.82095 -15.74094,-14.20824 -1.16867,-2.41414 -2.12485,-4.93811 -2.12485,-5.60881 0,-1.59352 -2.1684,-4.97043 -9.16873,-14.27872 -3.15584,-4.19629 -6.70551,-9.48604 -7.88815,-11.75499 -1.18264,-2.26895 -2.55365,-4.37468 -3.04669,-4.67939 -0.49304,-0.30471 -0.89643,-1.60432 -0.89643,-2.88802 0,-1.2837 -0.675,-2.59301 -1.5,-2.9096 -0.825,-0.31658 -1.51431,-1.60222 -1.5318,-2.85699 -0.0175,-1.25476 -0.69249,-3.15489 -1.5,-4.22251 -0.80751,-1.06762 -1.4682,-2.70002 -1.4682,-3.62755 0,-0.92754 -0.675,-2.24663 -1.5,-2.93132 -0.825,-0.68469 -1.5,-2.70969 -1.5,-4.5 0,-1.79031 -0.675,-3.81531 -1.5,-4.5 -0.825,-0.68469 -1.5,-2.48835 -1.5,-4.00814 0,-1.51978 -0.67223,-4.05218 -1.49384,-5.62755 -0.84808,-1.62613 -1.4965,-5.51312 -1.5,-8.99187 -0.004,-4.22073 -0.47294,-6.51495 -1.50616,-7.37244 -1.01537,-0.84268 -1.5,-3.1043 -1.5,-7 0,-3.8957 -0.48463,-6.15732 -1.5,-7 -1.02368,-0.84958 -1.5,-3.12147 -1.5,-7.15456 0,-3.25032 -0.675,-7.52518 -1.5,-9.49968 -2.20634,-5.28052 -2.20634,-67.09232 0,-73.34576 0.825,-2.3383 1.5,-5.90887 1.5,-7.9346 0,-2.02573 0.66069,-4.55665 1.4682,-5.62427 0.83431,-1.10306 1.48192,-4.15491 1.5,-7.06869 0.0205,-3.30556 0.5648,-5.5699 1.5318,-6.37244 0.825,-0.68469 1.51431,-2.42729 1.5318,-3.87244 0.0175,-1.44516 0.69249,-3.50107 1.5,-4.56869 0.80751,-1.06762 1.4682,-3.67747 1.4682,-5.79966 0,-2.12219 0.63794,-5.09217 1.41765,-6.59995 0.7797,-1.50779 1.96387,-5.64794 2.63149,-9.20034 0.66762,-3.55241 1.84822,-8.93392 2.62356,-11.95892 0.77534,-3.025 1.88455,-10 2.46491,-15.5 0.58036,-5.5 1.46182,-10.4275 1.9588,-10.95 0.49697,-0.5225 0.90359,-3.37364 0.90359,-6.33587 0,-2.96222 0.65096,-8.15972 1.44658,-11.55 2.74833,-11.71116 8.49354,-40.36894 10.45768,-52.16413 0.54951,-3.3 1.71503,-8.925 2.59003,-12.5 0.87501,-3.575 2.24044,-9.65 3.0343,-13.5 2.57374,-12.482 3.99679,-17.95712 5.24613,-20.18426 0.6739,-1.20134 1.23959,-3.22634 1.25708,-4.5 0.0175,-1.27366 0.69249,-3.18925 1.5,-4.25687 0.80751,-1.06762 1.4682,-2.92502 1.4682,-4.12755 0,-1.20254 0.675,-2.74663 1.5,-3.43132 0.825,-0.68469 1.51139,-2.20229 1.52531,-3.37244 0.0139,-1.17016 1.81447,-4.60256 4.00122,-7.62756 2.18675,-3.025 4.3976,-6.46879 4.91301,-7.65286 0.5154,-1.18407 1.41485,-2.44813 1.99878,-2.80902 0.58392,-0.36088 1.06168,-1.4745 1.06168,-2.47469 0,-1.0002 0.675,-2.37874 1.5,-3.06343 0.96591,-0.80164 1.51262,-3.07059 1.53543,-6.37244 0.0195,-2.82016 0.67855,-6.25256 1.46457,-7.62756 1.01669,-1.77851 1.44958,-6.10743 1.5,-15 0.0504,-8.89257 0.48331,-13.22149 1.5,-15 0.78602,-1.375 1.44507,-4.32649 1.46456,-6.55887 0.0195,-2.23238 0.69613,-4.93238 1.50364,-6 0.80751,-1.06762 1.4825,-2.67353 1.5,-3.56869 0.0175,-0.89515 0.7068,-2.18775 1.5318,-2.87244 0.825,-0.68469 1.5,-2.45378 1.5,-3.93132 0,-1.47753 0.66069,-3.55993 1.4682,-4.62755 0.80751,-1.06762 1.4825,-2.71477 1.5,-3.66034 0.0309,-1.66848 2.41144,-6.52034 5.85008,-11.92308 0.92495,-1.45325 3.12858,-5.05325 4.89695,-8 1.76838,-2.94674 4.78319,-7.04548 6.699575,-9.10831 1.91638,-2.06282 4.65123,-5.28048 6.07744,-7.15033 1.42621,-1.86986 4.08457,-4.42171 5.90747,-5.67079 1.8229,-1.24907 4.1662,-3.54262 5.20733,-5.09678 1.04112,-1.55416 2.59627,-2.827043 3.45587,-2.828623 0.8596,-0.002 2.85628,-1.35288 4.43709,-3.00288 1.58079,-1.65 3.27419,-3 3.7631,-3 0.48879,0 3.5204,-2.025 6.7369,-4.5 3.2164,-2.475 6.2772,-4.5 6.8016,-4.5 0.5244,0 1.51369,-0.675 2.1984,-1.5 0.6847,-0.825 2.4538,-1.5 3.93129,-1.5 1.4776,0 3.56,-0.66069 4.62761,-1.4682 1.0676,-0.8075 2.7088,-1.4825 3.64709,-1.5 0.9383,-0.0175 3.9956,-1.3818 6.79401,-3.0318 2.79839,-1.65 6.3548,-3 7.90319,-3 1.5483,0 6.224,-1.575 10.3904,-3.5 4.16641,-1.925 8.5227,-3.5 9.6807,-3.5 1.158,0 3.8695,-0.9 6.0257,-2 2.1562,-1.1 5.1983,-2 6.7602,-2 1.5619,0 3.2836,-0.4438 3.826,-0.98622 0.5424,-0.54241 4.3135,-2.1487 8.3802,-3.56952 4.0667,-1.42082 8.3131,-3.22703 9.4363,-4.01379 1.1233,-0.786757 3.1797,-1.444782 4.5698,-1.462273 1.3901,-0.01749 3.401,-0.692492 4.4686,-1.5 1.0677,-0.807509 2.707,-1.468197 3.643,-1.468197 0.9361,0 1.9609,-0.675 2.2775,-1.5 0.3166,-0.825 1.4346,-1.5 2.4846,-1.5 1.0499,0 2.4691,-0.675 3.1538,-1.5 0.7038,-0.848015 2.8838,-1.5 5.0155,-1.5 2.4291,0 3.9753,-0.53365 4.3461,-1.5 0.3166,-0.825 1.3773,-1.514312 2.357,-1.531803 0.9798,-0.01749 2.6549,-0.692492 3.7225,-1.5 2.6773,-2.024947 13.8709,-2.002067 15.5589,0.0318 0.6847,0.825 1.6852,1.5 2.2233,1.5 0.5382,0 4.2655,2.5875 8.2829,5.75 4.0175,3.1625 9.8703,7.550003 13.0064,9.750003 5.8035,4.07126 8.4865,6.8223 16.4874,16.90547 4.7988,6.04771 9.4963,9.59453 12.7074,9.59453 1.0842,0 3.6368,-1.8 5.6723,-4 2.0355,-2.2 4.1488,-4 4.6961,-4 0.5474,0 1.8628,-1.9125 2.9231,-4.25 1.0603,-2.3375 3.3066,-6.06838 4.9917,-8.29084 3.6226,-4.77785 5.2848,-12.87881 3.7686,-18.367474 -1.2488,-4.520908 -0.4492,-14.067284 1.7263,-20.609791 2.0427,-6.143355 14.4228,-19.9428019 18.8828,-21.0475749 4.8958,-1.212745 26.055,3.67759 28.6317,6.617385 0.81321,0.927727 12.69921,7.9482949 13.4568,7.9482949 2.192,0 22.54321,17.354108 22.54321,19.223307 0,0.439169 0.8457,2.706086 1.8793,5.037591 7.5205,16.963842 8.0671,21.322952 3.5002,27.912962 -3.5683,5.14912 -8.96991,8.82614 -12.9656,8.82614 -4.06861,0 -6.0365,1.86495 -17.5453,16.62734 -5.42831,6.962883 -14.4338,16.366983 -15.6852,16.379493 -0.9585,0.01 -4.8571,5.93411 -6.1253,9.30827 -1.7852,4.74956 -1.2158,8.66124 1.9419,13.34001 1.65,2.44483 3,4.85259 3,5.35058 0,1.39239 11.5927,12.99431 12.984,12.99431 0.6755,0 2.9327,1.35 5.016,3 2.0833,1.65 4.2856,3 4.8939,3 0.6084,0 1.1061,0.42894 1.1061,0.95321 0,0.52426 2.0822,1.87426 4.6271,3 5.7766,2.55523 19.849,2.9103 22.9318,0.57859 1.0676,-0.8075 3.0383,-1.4825 4.3792,-1.5 1.341,-0.0175 3.9254,-1.0443 5.7432,-2.2818 2.8667,-1.95156 3.3059,-2.8142 3.3119,-6.50362 0.01,-3.91632 1.1812,-6.95905 5.0426,-13.05946 1.6688,-2.63632 11.6596,-9.74387 16.5956,-11.80629 1.9505,-0.81494 6.8667,-1.38063 11.9986,-1.38063 7.5081,0 9.2861,-0.34683 13.0321,-2.54215 2.3859,-1.39819 4.3379,-2.97319 4.3379,-3.5 0,-0.52682 0.61989,-0.95785 1.3776,-0.95785 0.75759,0 1.93769,-0.675 2.6224,-1.5 1.53899,-1.8544 5.68419,-1.88074 8.97849,-0.0571 2.1115,1.16888 2.889,1.15983 5.25,-0.0611 2.9194,-1.50964 3.9122,-5.83629 1.52151,-6.63033 -0.9107,-0.30248 -1.3372,-4.68617 -1.57141,-16.149953 -0.26559,-13.00485 -0.049,-16.15085 1.25,-18.13297 0.8643,-1.31899 1.57141,-2.98605 1.57141,-3.70455 0,-1.22795 7.21689,-12.53742 15.7225,-24.638336 2.0776,-2.955885 7.1157,-8.355885 11.1957,-12 10.9855,-9.811763 14.7841,-13.771925 20.4863,-21.357645 2.1948,-2.91971 4.034,-4.0749439 8.4505,-5.3077259 3.1047,-0.866659 8.345,-2.405539 11.645,-3.419733 15.20049,-4.671599 33.19879,-5.783037 53,-3.272884 17.04999,2.16139 21.1295,4.013927 31.5341,14.3199149 6.2197,6.160733 9.72689,8.912409 11.3594,8.912409 1.2989,0 2.9218,0.675 3.6065,1.5 1.0043,1.210079 4.1145,1.5 16.0916,1.5 13.1448,0 15.3095,0.241153 18.8826,2.103569 2.2197,1.156963 4.2851,2.506963 4.5898,3 0.3047,0.493037 2.1093,0.896431 4.0101,0.896431 2.72689,0 4.4023,0.91966 7.941,4.358958 l 4.4849,4.358958 -0.035,16.391044 c -0.027,12.3231 -0.3901,17.01149 -1.4646,18.89104 -0.786,1.375 -1.4451,3.40997 -1.4646,4.52216 -0.019,1.11218 -1.4979,3.79642 -3.2854,5.96497 -2.6421,3.20527 -3.25,4.81825 -3.25,8.62285 0,3.04168 0.6085,5.352403 1.7381,6.600653 2.7683,3.05886 3.2021,7.55937 1.14651,11.89141 -1.2848,2.70741 -1.73791,5.6424 -1.5426,9.99112 0.23569,5.24951 -0.064,6.53792 -2.0328,8.73671 -1.27,1.41853 -3.8842,2.96371 -5.8092,3.43374 -2.615,0.63852 -3.5873,1.45821 -3.8453,3.2418 -0.4069,2.81349 1.6386,9.82351 3.523,12.07333 1.7539,2.09398 1.6947,17.56599 -0.096,25.05374 -0.7408,3.09787 -2.3043,6.58995 -3.4746,7.76019 -3.0283,3.02837 -2.03491,9.62009 1.9865,13.18016 1.5984,1.41505 2.90619,3.03352 2.90619,3.5966 0,1.84877 -6.69609,7.96477 -10.13339,9.25559 -11.3885,4.27667 -13.1225,5.8598 -10.92201,9.97147 0.58051,1.08461 1.0554,3.59073 1.0554,5.56915 0,2.51315 0.5273,3.79174 1.75,4.24294 3.30781,1.2207 8.8618,7.79767 10.676,12.64245 l 1.8166,4.85102 -3.1213,4.42821 c -1.71669,2.43552 -3.1213,4.6722 -3.1213,4.9704 0,1.47327 -3.81829,4.06502 -8.0741,5.48052 -3.9664,1.31922 -5.141,1.36651 -7.09,0.28543 -1.28469,-0.71266 -3.2933,-1.31169 -4.4635,-1.33117 -1.1701,-0.0195 -2.6877,-0.71044 -3.3724,-1.53544 -0.6847,-0.825 -2.7097,-1.5 -4.5,-1.5 -1.79029,0 -3.8153,-0.675 -4.5,-1.5 -0.6847,-0.825 -2.8773,-1.51431 -4.8724,-1.5318 -1.9952,-0.0175 -4.50109,-0.6925 -5.5687,-1.5 -1.0676,-0.80751 -2.925,-1.4682 -4.1276,-1.4682 -1.2025,0 -2.7073,-0.62761 -3.3439,-1.39468 -0.6366,-0.76708 -2.6042,-1.61066 -4.3724,-1.87461 -4.4998,-0.67172 -9.5064,-2.71056 -14.3715,-5.85249 l -4.1564,-2.68431 -7.0936,7.48141 c -3.9014,4.11478 -7.0935,7.8264 -7.0935,8.24806 0,0.42165 -0.8696,1.55367 -1.9326,2.51559 -3.4139,3.08954 -1.0096,6.47046 9.7426,13.7004 4.8934,3.29037 8.7743,5.11604 11.7391,5.52242 2.4361,0.33389 4.9391,1.22158 5.5625,1.97264 0.6233,0.75107 2.4464,1.36557 4.0513,1.36557 5.80251,0 12.8371,7.71051 12.8371,14.07043 0,2.34209 0.88291,4.2453 2.9669,6.39544 2.5274,2.60758 3.0506,4.07755 3.5315,9.92221 0.3105,3.77362 1.0274,7.72589 1.5931,8.78282 0.5656,1.05693 1.42101,4.3337 1.9008,7.28171 0.4798,2.948 1.7474,7.31467 2.8169,9.7037 1.0695,2.38903 2.5609,6.08787 3.3141,8.21964 0.75331,2.13177 1.9337,4.09242 2.6231,4.35699 0.6895,0.26457 1.2536,1.78452 1.2536,3.37767 0,1.59315 0.90001,4.57584 2,6.62821 1.1,2.05236 2,4.43573 2,5.29637 0,0.86065 0.5625,2.12684 1.25,2.81377 0.90181,0.90103 1.31941,6.98478 1.499,21.83902 0.21901,18.10769 0.4556,20.7411 1.9623,21.84283 1.4297,1.04544 1.4976,1.51251 0.4107,2.82225 -0.7165,0.86322 -2.2745,1.87666 -3.4623,2.2521 -3.8204,1.2075 -8.733,5.62098 -10.9237,9.81376 -2.3513,4.50008 -2.2451,1.92119 -1.7744,43.08108 0.1743,15.24112 -0.1977,29.34038 -0.9529,36.11905 -1.2445,11.16883 -1.1718,14.87007 1.048,53.38095 0.6499,11.275 1.0879,30.5012 0.9732,42.7249 -0.1657,17.67113 0.1361,23.81944 1.473,30.00713 1.4665,6.7874 1.5099,8.48439 0.3393,13.2751 l -1.34239,5.49287 -5.84501,0.51963 c -6.4127,0.5701 -8.65499,2.3704 -8.65499,6.94899 0,1.4225 -0.6087,3.474 -1.3527,4.55887 -0.744,1.08488 -1.6511,5.27792 -2.01591,9.31785 -0.3647,4.03994 -1.10599,8.17286 -1.6472,9.18426 -0.5413,1.01141 -0.9842,3.18203 -0.9842,4.82362 0,1.64159 -0.7531,4.48367 -1.6737,6.31574 -0.9205,1.83207 -2.2705,4.52547 -3,5.98533 -0.7294,1.45986 -1.3406,3.93486 -1.3581,5.5 -0.017,1.56514 -0.6925,3.71922 -1.5,4.78684 -0.8075,1.06762 -1.4841,3.31762 -1.5036,5 -0.02,1.68238 -0.6786,4.18387 -1.4646,5.55887 -2.3393,4.09224 -1.8113,9.5486 1.5,15.5 1.8244,3.27895 3.0125,6.88261 3.0318,9.19595 0.017,2.09223 0.6925,4.67756 1.5,5.74518 0.8075,1.06762 1.4682,3.15698 1.4682,4.64301 0,1.48604 0.675,2.9609 1.5,3.27749 0.825,0.31658 1.5,1.46777 1.5,2.5582 0,1.09042 0.675,4.57409 1.5,7.74148 0.825,3.16739 1.5,7.40924 1.5,9.42634 0,2.04001 0.6656,4.21988 1.5,4.91235 0.825,0.68469 1.5,2.67479 1.5,4.42244 0,1.74766 0.5126,3.69021 1.1392,4.31678 0.6266,0.62657 1.7187,4.20407 2.427,7.95 1.9908,10.52964 3.1193,14.30581 4.845,16.21263 0.8738,0.9656 1.5888,3.24678 1.5888,5.06929 0,3.15372 5.2929,18.32925 8.4962,24.3599 0.8271,1.55707 1.5038,3.6962 1.5038,4.75362 0,1.05743 0.9,3.60179 2,5.65416 1.1,2.05236 2,5.14929 2,6.88206 0,1.73278 0.6722,4.43944 1.4938,6.01481 0.8217,1.57537 1.4967,3.59671 1.5,4.49187 0,0.89515 0.6812,2.18775 1.5062,2.87244 1.0154,0.84268 1.5,3.1043 1.5,7 0,3.8957 0.4846,6.15732 1.5,7 0.825,0.68469 1.5068,2.20229 1.5151,3.37244 0.01,1.17016 0.6635,3.92756 1.4561,6.12756 0.7925,2.2 1.46081,5.6324 1.4849,7.62756 0.024,1.99515 0.7189,4.18775 1.5439,4.87244 2.2247,1.84633 2.2547,80.62 0.032,83.5589 -0.8075,1.0676 -1.4825,3.3945 -1.5,5.17085 -0.017,1.7763 -0.669,4.9263 -1.4478,7 -0.7788,2.0736 -1.6332,5.6616 -1.8986,7.9734 -0.2654,2.3117 -1.5407,5.6774 -2.834,7.4792 -2.8372,3.9529 -3.5276,5.1066 -7.2352,12.0895 -4.3338,8.1625 -5.8448,9.7624 -10.1658,10.7644 -2.1727,0.5038 -18.0287,0.9267 -35.2356,0.9398 -25.4637,0.019 -31.6973,-0.2423 -33.5,-1.4065 -2.6901,-1.7373 -16.1257,-5.1724 -23.8439,-6.0961 -4.1154,-0.4926 -5.8434,-0.327 -6.426,0.6156 -0.4383,0.7092 -0.7285,7.1193 -0.6451,14.2447 0.1177,10.0438 0.4944,13.3338 1.676,14.6395 0.8383,0.9263 1.5242,2.5611 1.5242,3.6329 0,1.0718 0.7754,3.0558 1.723,4.4088 1.3753,1.9634 1.7126,4.582 1.6712,12.9725 -0.044,8.9305 -0.4153,11.3026 -2.4672,15.7625 -1.3284,2.8875 -2.7554,5.25 -3.1711,5.25 -0.4158,0 -0.7718,2.5875 -0.7913,5.75 -0.02,3.1625 -0.6786,6.875 -1.4646,8.25 -0.786,1.375 -1.4451,4.3574 -1.4646,6.6276 -0.021,2.4112 -0.6591,4.6452 -1.5354,5.3724 -2.1629,1.7951 -2.1355,30.5756 0.032,33.4411 0.9371,1.2389 1.4768,4.3139 1.4921,8.5 0.013,3.6074 0.5187,8.3589 1.1235,10.5589 0.6048,2.2 1.3095,6.3409 1.5659,9.2021 0.2564,2.8611 1.1008,5.7287 1.8765,6.3724 1.1481,0.9529 1.4102,6.0504 1.4102,27.4255 0,22.1179 0.2364,26.4513 1.5,27.5 1.0391,0.8623 1.5,3.1558 1.5,7.4635 0,3.4203 0.6701,8.4277 1.4892,11.1276 0.819,2.6999 1.51,6.7089 1.5354,8.9089 0.025,2.2 0.6894,5.125 1.4754,6.5 0.9032,1.5799 1.4422,5.4659 1.4646,10.5589 0.024,5.4911 0.5032,8.6773 1.5036,10 0.9702,1.2827 1.479,4.4111 1.5,9.2232 0.018,4.1384 0.6794,8.832 1.5318,10.8721 0.825,1.9745 1.5,6.405 1.5,9.8455 0,4.3404 0.4592,6.6365 1.5,7.5003 0.8887,0.7375 1.5014,2.9271 1.5034,5.3724 0,2.2752 1.3483,7.4279 3,11.4812 1.6481,4.0445 2.9966,8.0043 2.9966,8.7997 0,0.7953 0.7154,2.8295 1.5898,4.5204 1.2173,2.354 1.8059,8.3751 2.512,25.7003 1.808,44.3564 2.6227,55.5467 4.7779,65.626 1.1761,5.5 2.8092,10.4996 3.6293,11.1102 0.82,0.6107 1.491,2.428 1.491,4.0384 0,1.6105 0.8624,5.3771 1.9165,8.3703 1.0541,2.9932 1.7026,5.7885 1.441,6.2117 -1.531,2.4772 -9.4316,-0.4366 -14.8786,-5.4873 -1.6271,-1.5088 -3.6113,-2.7433 -4.4092,-2.7433 -2.7906,0 -29.0697,-26.9128 -29.0697,-29.7707 0,-0.5414 -0.675,-1.5446 -1.5,-2.2293 -0.825,-0.6847 -1.5,-2.4847 -1.5,-4 0,-1.5153 -0.675,-3.3153 -1.5,-4 -0.825,-0.6847 -1.5,-1.7095 -1.5,-2.2773 0,-0.5678 -1.8189,-2.7627 -4.0421,-4.8775 -5.0427,-4.797 -9.0862,-5.0878 -15.2278,-1.0952 -2.3265,1.5125 -5.1301,2.9755 -6.2301,3.251 -2.4622,0.6168 -9.388,14.1678 -9.4548,18.499 -0.036,2.327 -1.1573,3.9569 -4.9996,7.2658 -2.7244,2.3462 -6.3012,4.5353 -7.9484,4.8648 -1.6472,0.3294 -3.7627,1.4473 -4.7011,2.4842 -0.9383,1.0368 -2.2709,1.8852 -2.9613,1.8852 -0.6904,0 -4.1081,1.3496 -7.595,2.9992 -4.0607,1.921 -7.9575,3.0081 -10.8398,3.0239 -2.475,0.013 -6.3,0.5047 -8.5,1.0914 -2.2,0.5868 -7.375,1.5303 -11.5,2.0966 -4.125,0.5664 -8.2104,1.6506 -9.0787,2.4093 -0.8683,0.7588 -2.7808,1.3796 -4.25,1.3796 -1.4692,0 -2.6713,0.3999 -2.6713,0.8887 0,0.4888 -1.6147,1.1916 -3.5882,1.5619 -2.3248,0.4361 -5.093,2.1779 -7.8622,4.9471 -2.3507,2.3508 -8.6581,7.5837 -14.0163,11.6288 -5.3583,4.0451 -9.9624,7.9281 -10.2313,8.6289 -0.86,2.241 -11.0385,8.3434 -13.9715,8.3764 -1.5568,0.017 -3.704,0.6925 -4.7716,1.5 -1.0676,0.8075 -2.7785,1.4682 -3.8019,1.4682 -1.0234,0 -3.7499,0.9771 -6.0589,2.1713 -6.9396,3.5891 -7.5732,3.8287 -10.1255,3.8287 -1.35,0 -2.7327,0.45 -3.0726,1 -0.3399,0.55 -1.4525,1 -2.4725,1 -1.0366,0 -3.1996,1.8743 -4.9045,4.25 -1.6775,2.3375 -3.4175,4.7 -3.8667,5.25 -5.3737,6.5801 -6.0872,8.2229 -6.7312,15.5 -0.6439,7.2741 1.0237,18.3016 3.4519,22.8272 0.4937,0.92 1.9332,3.8656 3.1989,6.5458 1.2658,2.6801 2.869,5.0908 3.5628,5.357 0.6937,0.2662 1.2613,1.5127 1.2613,2.77 0,1.2573 0.675,2.545 1.5,2.8616 0.825,0.3166 1.5,1.4347 1.5,2.4846 0,1.0499 0.675,2.4691 1.5,3.1538 0.825,0.6847 1.5,1.9895 1.5,2.8996 0,0.9101 1.35,3.1327 3,4.9393 1.65,1.8065 3,3.8929 3,4.6364 0,1.7058 10.8237,12.5247 12.5303,12.5247 0.6974,0 4.5759,1.7902 8.6188,3.9783 4.043,2.188 8.4759,4.4777 9.8509,5.0881 1.375,0.6103 3.625,1.7255 5,2.478 1.375,0.7526 4.3692,2.3172 6.6537,3.4768 2.2846,1.1597 4.9418,2.9793 5.905,4.0437 0.9632,1.0643 2.5815,1.9351 3.5963,1.9351 1.0147,0 1.845,0.4368 1.845,0.9707 0,0.5339 2.3625,2.1476 5.25,3.5861 7.3143,3.6437 9.7435,5.0367 11.0342,6.3274 0.6137,0.6137 1.6724,1.1158 2.3526,1.1158 0.6802,0 4.1946,2.025 7.8097,4.5 4.0304,2.7593 7.6823,4.5 9.4408,4.5 1.5773,0 3.428,0.675 4.1127,1.5 0.6847,0.825 2.4847,1.5 4,1.5 1.5153,0 3.3153,0.675 4,1.5 0.6847,0.825 2.3289,1.5 3.6538,1.5 1.325,0 2.668,0.675 2.9846,1.5 0.3619,0.9431 1.9282,1.5132 4.2186,1.5354 2.0036,0.02 4.768,0.6786 6.143,1.4646 1.375,0.786 3.5266,1.4451 4.7814,1.4646 1.2548,0.019 2.5404,0.7104 2.857,1.5354 0.4123,1.0744 2.0918,1.5 5.9189,1.5 3.1815,0 5.6669,0.5057 6.143,1.25 0.817,1.277 3.6136,3.2405 6.2997,4.4231 0.825,0.3632 3.1888,2.1604 5.2529,3.9937 2.0641,1.8332 4.1528,3.3332 4.6416,3.3332 0.4888,0 1.1843,1.1779 1.5457,2.6176 0.6887,2.7442 -1.5759,6.3824 -3.9727,6.3824 -0.6725,0 -1.7828,0.675 -2.4675,1.5 -0.6847,0.825 -2.4998,1.5 -4.0335,1.5 -3.0654,0 -7.9665,4.8482 -7.9665,7.8806 0,2.7157 -6.0764,7.8382 -10.7688,9.0784 -10.1502,2.6826 -53.5872,0.8517 -62.1642,-2.6202 -6.4533,-2.6123 -18.8947,-5.3388 -24.3615,-5.3388 -3.0037,0 -7.0294,-0.6552 -8.9461,-1.4561 -3.6069,-1.507 -12.2159,-3.2671 -21.7594,-4.4487 -3.025,-0.3745 -6.4829,-1.2241 -7.6843,-1.8881 -2.2522,-1.2447 -18.8592,-1.7033 -21.7339,-0.6001 -0.9123,0.3501 -1.5818,1.7721 -1.5818,3.3595 0,2.6115 0.7512,3.5419 9.1104,11.2835 1.0393,0.9625 3.1845,1.75 4.7672,1.75 1.5826,0 3.4377,0.675 4.1224,1.5 0.6847,0.825 1.8097,1.5 2.5,1.5 0.6903,0 1.8153,0.675 2.5,1.5 0.6847,0.825 1.9895,1.5 2.8996,1.5 0.9101,0 3.2175,1.4434 5.1275,3.2076 1.9101,1.7642 5.5627,4.6267 8.117,6.3611 2.5542,1.7344 6.5824,5.016 8.9514,7.2924 2.3691,2.2764 4.6015,4.1389 4.9611,4.1389 0.3595,0 2.5585,2.7157 4.8868,6.0348 2.3282,3.3191 5.4309,6.7772 6.8949,7.6846 5.9518,3.6892 7.1624,5.4178 7.1464,10.2049 -0.01,2.5166 -0.3459,5.0661 -0.75,5.6656 -1.5382,2.2818 -9.6288,7.4101 -11.6905,7.4101 -1.1856,0 -3.6805,1.125 -5.5442,2.5 -1.8637,1.375 -3.8636,2.5022 -4.4443,2.5049 -0.5806,0 -4.1255,1.5802 -7.8776,3.5057 l -6.8219,3.5009 -19.3818,-0.2558 c -16.2067,-0.2138 -19.9193,-0.5424 -22.6625,-2.0057 z"
     id="path2995"
     inkscape:connector-curvature="0" />
</svg>
