<?xml version="1.0" encoding="UTF-8" standalone="no"?>
<!-- Created with Inkscape (http://www.inkscape.org/) -->

<svg
   xmlns:dc="http://purl.org/dc/elements/1.1/"
   xmlns:cc="http://creativecommons.org/ns#"
   xmlns:rdf="http://www.w3.org/1999/02/22-rdf-syntax-ns#"
   xmlns:svg="http://www.w3.org/2000/svg"
   xmlns="http://www.w3.org/2000/svg"
   xmlns:sodipodi="http://sodipodi.sourceforge.net/DTD/sodipodi-0.dtd"
   xmlns:inkscape="http://www.inkscape.org/namespaces/inkscape"
   id="svg2"
   version="1.1"
   inkscape:version="0.48.2 r9819"
   width="528.04034"
   height="846.85712"
   sodipodi:docname="goldenageillusby00grahuoft_0029c4c.png">
  <metadata
     id="metadata8">
    <rdf:RDF>
      <cc:Work
         rdf:about="">
        <dc:format>image/svg+xml</dc:format>
        <dc:type
           rdf:resource="http://purl.org/dc/dcmitype/StillImage" />
        <dc:title></dc:title>
      </cc:Work>
    </rdf:RDF>
  </metadata>
  <defs
     id="defs6" />
  <sodipodi:namedview
     pagecolor="#ffffff"
     bordercolor="#666666"
     borderopacity="1"
     objecttolerance="10"
     gridtolerance="10"
     guidetolerance="10"
     inkscape:pageopacity="0"
     inkscape:pageshadow="2"
     inkscape:window-width="1600"
     inkscape:window-height="876"
     id="namedview4"
     showgrid="false"
     fit-margin-top="0"
     fit-margin-left="0"
     fit-margin-right="0"
     fit-margin-bottom="0"
     inkscape:zoom="0.70710678"
     inkscape:cx="218.04032"
     inkscape:cy="464"
     inkscape:window-x="0"
     inkscape:window-y="24"
     inkscape:window-maximized="1"
     inkscape:current-layer="svg2" />
  <path
     style="fill:#000000"
     d="m 412.04032,845.85714 c 0,-0.55 -2.25,-1 -5,-1 -2.75,0 -5,-0.45 -5,-1 0,-0.62745 -6.33333,-1 -17,-1 -10.66667,0 -17,-0.37255 -17,-1 0,-0.55 -0.70714,-1 -1.57143,-1 -1.80905,0 -4.42857,-2.33933 -4.42857,-3.95489 0,-1.66829 8.73421,-10.04511 10.47368,-10.04511 0.83948,0 1.52632,-0.45 1.52632,-1 0,-0.55 0.9,-1 2,-1 1.1,0 2,-0.45 2,-1 0,-0.55 0.9,-1 2,-1 1.1,0 2,-0.45 2,-1 0,-0.55 0.9,-1 2,-1 1.1,0 2,-0.45 2,-1 0,-0.55 0.9,-1 2,-1 1.1,0 2,-0.45 2,-1 0,-0.55 1.35,-1 3,-1 1.65,0 3,-0.45 3,-1 0,-0.55 0.80066,-1 1.77924,-1 0.97858,0 2.42792,-0.9 3.22076,-2 1.05807,-1.46799 2.58869,-2 5.75409,-2 3.58743,0 4.89549,-0.58291 7.77924,-3.46667 1.90667,-1.90666 3.46667,-4.05732 3.46667,-4.77924 0,-0.72191 0.9,-1.96125 2,-2.75409 1.39291,-1.00395 2,-2.58869 2,-5.22076 0,-2.07858 0.45,-3.77924 1,-3.77924 0.55,0 1,-0.9 1,-2 0,-1.1 0.45,-2 1,-2 0.55,0 1,-0.9 1,-2 0,-1.1 0.45,-2 1,-2 0.55,0 1,-0.9 1,-2 0,-1.1 0.45,-2 1,-2 0.55,0 1,-0.9 1,-2 0,-1.1 0.45,-2 1,-2 0.55,0 1,-0.9 1,-2 0,-1.1 0.45,-2 1,-2 0.55,0 1,-0.9 1,-2 0,-1.1 0.45,-2 1,-2 0.55,0 1,-1.35 1,-3 0,-1.65 -0.45,-3 -1,-3 -0.55,0 -1,-0.9 -1,-2 0,-1.33333 -0.66667,-2 -2,-2 -1.1,0 -2,-0.45 -2,-1 0,-0.55 -1.60714,-1 -3.57143,-1 -1.96428,0 -4.21428,-0.64286 -5,-1.42857 -1.6235,-1.6235 -1.94619,-6.57143 -0.42857,-6.57143 0.55,0 1,-1.25066 1,-2.77924 0,-1.63207 0.82553,-3.37425 2,-4.22076 2.41021,-1.73718 2.57909,-3 0.40121,-3 -0.87933,0 -2.85988,-1.35 -4.40121,-3 -1.54133,-1.65 -3.52188,-3 -4.40121,-3 -0.87933,0 -1.59879,-0.45 -1.59879,-1 0,-0.55 -0.9,-1 -2,-1 -1.1,0 -2,-0.45 -2,-1 0,-0.55 -0.9,-1 -2,-1 -1.1,0 -2,-0.45 -2,-1 0,-0.55 -0.9,-1 -2,-1 -1.1,0 -2,-0.45 -2,-1 0,-0.55 -0.9,-1 -2,-1 -1.1,0 -2,-0.45 -2,-1 0,-0.55 -0.9,-1 -2,-1 -1.1,0 -2,-0.45 -2,-1 0,-0.55 -0.9,-1 -2,-1 -1.1,0 -2,-0.45 -2,-1 0,-0.55 -0.9,-1 -2,-1 -1.1,0 -2,-0.45 -2,-1 0,-0.55 -0.9,-1 -2,-1 -1.1,0 -2,-0.45 -2,-1 0,-0.55 -0.9,-1 -2,-1 -1.1,0 -2,-0.45 -2,-1 0,-0.55 -1.35,-1 -3,-1 -1.65,0 -3,-0.45 -3,-1 0,-0.55 -1.25066,-1 -2.77924,-1 -1.63207,0 -3.37425,-0.82553 -4.22076,-2 -0.79284,-1.1 -2.24218,-2 -3.22076,-2 -0.97858,0 -1.77924,-0.45 -1.77924,-1 0,-0.55 -0.9,-1 -2,-1 -1.1,0 -2,-0.45 -2,-1 0,-0.55 -0.9,-1 -2,-1 -1.1,0 -2,-0.45 -2,-1 0,-0.55 -0.9,-1 -2,-1 -1.1,0 -2,-0.45 -2,-1 0,-0.55 -1.25066,-1 -2.77924,-1 -1.63207,0 -3.37425,-0.82553 -4.22076,-2 -0.79284,-1.1 -2.24218,-2 -3.22076,-2 -0.97858,0 -1.77924,-0.45 -1.77924,-1 0,-0.55 -0.45,-1 -1,-1 -0.55,0 -1,0.9 -1,2 0,1.1 -0.45,2 -1,2 -0.55,0 -1,-0.9 -1,-2 0,-1.25062 -0.66667,-2 -1.77924,-2 -0.97858,0 -2.42792,-0.9 -3.22076,-2 -0.79284,-1.1 -2.24218,-2 -3.22076,-2 -0.97858,0 -1.77924,-0.45 -1.77924,-1 0,-0.55 -0.9,-1 -2,-1 -1.1,0 -2,-0.45 -2,-1 0,-0.55 -1.16028,-1 -2.5784,-1 -1.70093,0 -3.8863,-1.36126 -6.4216,-4 -2.11376,-2.2 -4.55348,-4 -5.4216,-4 -0.86812,0 -1.5784,-0.45 -1.5784,-1 0,-0.55 -1.35,-1 -3,-1 -1.65,0 -3,-0.45 -3,-1 0,-0.55 -0.9,-1 -2,-1 -1.1,0 -2,-0.45 -2,-1 0,-0.55 -1.25066,-1 -2.77924,-1 -1.63207,0 -3.37425,-0.82553 -4.22076,-2 -0.79284,-1.1 -2.24218,-2 -3.22076,-2 -0.97858,0 -1.77924,-0.45 -1.77924,-1 0,-0.55 -1.35,-1 -3,-1 -1.65,0 -3,-0.45 -3,-1 0,-0.55 -0.9,-1 -2,-1 -1.1,0 -2,-0.45 -2,-1 0,-0.55 -0.9,-1 -2,-1 -1.1,0 -2,-0.45 -2,-1 0,-0.55 -1.35,-1 -3,-1 -1.65,0 -3,-0.45 -3,-1 0,-0.55 -0.9,-1 -2,-1 -1.33333,0 -2,-0.66667 -2,-2 0,-1.1 -0.45,-2 -1,-2 -0.55,0 -1,-0.9 -1,-2 0,-1.1 -0.45,-2 -1,-2 -0.55,0 -1,-0.9 -1,-2 0,-1.1 -0.45,-2 -1,-2 -0.55,0 -1,-0.9 -1,-2 0,-1.1 -0.45,-2 -1,-2 -0.55556,0 -1,-2.66667 -1,-6 0,-3.33333 -0.44444,-6 -1,-6 -0.55,0 -1,-0.9 -1,-2 0,-1.1 0.45,-2 1,-2 0.55,0 1,-1.8 1,-4 0,-2.2 0.45,-4 1,-4 0.55,0 1,-0.71946 1,-1.59879 0,-0.87933 1.35,-2.85988 3,-4.40121 2.25845,-2.10971 3,-3.69198 3,-6.40121 0,-1.97933 0.45,-3.59879 1,-3.59879 0.55,0 1,-1.35 1,-3 0,-1.65 0.45,-3 1,-3 0.55,0 1,-1.35 1,-3 0,-1.65 0.45,-3 1,-3 0.55,0 1,-1.35 1,-3 0,-1.65 0.45,-3 1,-3 0.55,0 1,-1.35 1,-3 0,-1.65 0.45,-3 1,-3 0.55,0 1,-1.8 1,-4 0,-2.2 0.45,-4 1,-4 0.55,0 1,-1.35 1,-3 0,-1.65 0.45,-3 1,-3 0.55,0 1,-1.35 1,-3 0,-1.65 0.45,-3 1,-3 0.55,0 1,-1.25066 1,-2.77924 0,-1.63207 0.82553,-3.37425 2,-4.22076 1.1,-0.79284 2,-2.04158 2,-2.77499 0,-0.73341 1.37198,-2.77157 3.04884,-4.52924 3.19035,-3.34409 7.30013,-11.14887 6.74602,-12.81119 -0.17738,-0.53213 -2.76006,0.85115 -5.73929,3.07396 -4.37225,3.26214 -6.2497,4.04146 -9.73618,4.04146 -2.37566,0 -4.31939,0.45 -4.31939,1 0,0.55 -0.9,1 -2,1 -1.1,0 -2,0.45 -2,1 0,0.55 -1.8,1 -4,1 -2.2,0 -4,0.45 -4,1 0,0.55 -1.35,1 -3,1 -1.65,0 -3,0.45 -3,1 0,0.55 -0.9,1 -2,1 -1.1,0 -2,0.45 -2,1 0,0.55 -0.80066,1 -1.77924,1 -0.97858,0 -2.42792,0.9 -3.22076,2 -0.84651,1.17447 -2.58869,2 -4.22076,2 -1.52858,0 -2.77924,0.45 -2.77924,1 0,0.55 -0.9,1 -2,1 -1.12057,0 -2,0.66667 -2,1.51613 0,1.8441 -14.44371,16.48387 -16.26311,16.48387 -0.71246,0 -1.94405,0.9 -2.73689,2 -0.79284,1.1 -2.24218,2 -3.22076,2 -1.11257,0 -1.77924,0.74938 -1.77924,2 0,1.1 -0.45,2 -1,2 -0.55,0 -1,0.9 -1,2 0,1.1 -0.45,2 -1,2 -0.55,0 -1,0.9 -1,2 0,1.1 -0.45,2 -1,2 -0.55,0 -1,0.9 -1,2 0,1.1 -0.45,2 -1,2 -0.55,0 -1,1.35 -1,3 0,1.65 -0.45,3 -1,3 -0.55,0 -1,1.8 -1,4 0,2.2 0.45,4 1,4 0.55556,0 1,2.66667 1,6 0,3.33333 0.44444,6 1,6 0.55556,0 1,2.66667 1,6 0,3.33333 -0.44444,6 -1,6 -0.61538,0 -1,5 -1,13 0,8 -0.38462,13 -1,13 -0.57143,0 -1,3 -1,7 0,4 -0.42857,7 -1,7 -0.55,0 -1,1.35 -1,3 0,1.65 -0.45,3 -1,3 -0.55,0 -1,0.9 -1,2 0,1.1 -0.45,2 -1,2 -0.55,0 -1,1.35 -1,3 0,1.65 -0.45,3 -1,3 -0.63024,0 -1,6.76667 -1,18.3 0,12.61446 -0.36264,18.66264 -1.16722,19.46722 -0.88962,0.88962 -0.71188,1.34194 0.74737,1.90191 2.7152,1.04192 6.41985,4.95752 6.41985,6.78542 0,0.85 0.45,1.54545 1,1.54545 0.55,0 1,0.9 1,2 0,1.1 -0.45,2 -1,2 -0.55,0 -1,0.9 -1,2 0,1.1 -0.45,2 -1,2 -0.55,0 -1,1.35 -1,3 0,1.65 -0.45,3 -1,3 -0.57143,0 -1,3 -1,7 0,4 0.42857,7 1,7 0.55,0 1,1.8 1,4 0,2.2 0.45,4 1,4 0.55,0 1,0.9 1,2 0,1.1 0.45,2 1,2 0.62222,0 1,5.66667 1,15 0,9.33333 -0.37778,15 -1,15 -0.55,0 -1,1.15714 -1,2.57143 0,2.89359 -2.06801,5.42857 -4.42857,5.42857 -0.86429,0 -1.57143,0.45 -1.57143,1 0,0.55 -1.35,1 -3,1 -1.65,0 -3,0.45 -3,1 0,0.55 -1.35,1 -3,1 -1.65,0 -3,0.45 -3,1 0,0.60606 -4.33333,1 -11,1 -6.66667,0 -11,-0.39394 -11,-1 0,-0.55 -1.35,-1 -3,-1 -1.65,0 -3,-0.45 -3,-1 0,-0.55 -1.35,-1 -3,-1 -1.65,0 -3,-0.45 -3,-1 0,-0.59259 -3.66667,-1 -9,-1 -5.33333,0 -9,0.40741 -9,1 0,0.55 -1.35,1 -3,1 -1.65,0 -3,0.45 -3,1 0,0.55 -2.25,1 -5,1 -2.75,0 -5,0.45 -5,1 0,0.55 -1.25066,1 -2.77924,1 -1.63207,0 -3.374248,0.82553 -4.220758,2 -0.79284,1.1 -2.24218,2 -3.22076,2 -0.97858,0 -1.77924,0.45 -1.77924,1 0,0.55 -1.8,1 -4,1 -2.2,0 -4,0.45 -4,1 0,0.55 -0.9,1 -2,1 -1.1,0 -2,-0.45 -2,-1 0,-0.55 -1.8,-1 -4,-1 -2.2,0 -4,-0.45 -4,-1 0,-0.55 -1.15714,-1 -2.57143,-1 -2.89359,0 -5.42857,-2.06801 -5.42857,-4.42857 0,-1.07937 -0.93939,-1.57143 -3,-1.57143 -1.65,0 -3,-0.45 -3,-1 0,-0.55 -1.35,-1 -3,-1 -1.65,0 -3,-0.45 -3,-1 0,-0.55 -0.80066,-1 -1.77924,-1 -0.97858,0 -2.42793,-0.9 -3.22076,-2 -1.09551,-1.51994 -2.58869,-2 -6.22076,-2 -2.62858,0 -4.77924,-0.45 -4.77924,-1 0,-0.55 -1.35,-1 -3,-1 -3.04644,0 -4.02698,-1.35408 -1.75,-2.41667 1,-0.46666 1,-0.7 0,-1.16666 -1.47914,-0.69027 -1.70224,-6.41667 -0.25,-6.41667 0.55,0 1,0.45 1,1 0,0.55 1.35,1 3,1 1.65,0 3,-0.45 3,-1 0,-0.55 1.35,-1 3,-1 1.65,0 3,-0.45 3,-1 0,-0.55 0.80066,-1 1.77924,-1 0.97858,0 2.42793,-0.9 3.22076,-2 1.00395,-1.39291 2.58869,-2 5.22076,-2 2.07858,0 3.77924,-0.45 3.77924,-1 0,-0.55 1.8,-1 4,-1 2.2,0 4,-0.45 4,-1 0,-0.55 1.8,-1 4,-1 2.2,0 4,-0.45 4,-1 0,-0.55 1.35,-1 3,-1 1.65,0 3,-0.45 3,-1 0,-0.55 0.68684,-1 1.52632,-1 1.71265,0 10.47368,-8.3648 10.47368,-10 0,-1.6352 8.761028,-10 10.473678,-10 0.83948,0 1.52632,-0.45 1.52632,-1 0,-0.55 0.68684,-1 1.52632,-1 2.57841,0 10.47368,-8.64909 10.47368,-11.47368 0,-1.38948 0.45,-2.52632 1,-2.52632 0.55,0 1,-0.9 1,-2 0,-1.1 -0.45,-2 -1,-2 -0.55,0 -1,-1.35 -1,-3 0,-1.65 -0.45,-3 -1,-3 -2.21915,0 -0.7726,-3.37529 3,-7 2.63874,-2.5353 4,-4.72067 4,-6.4216 0,-1.41812 0.45,-2.5784 1,-2.5784 0.55,0 1,-1.8 1,-4 0,-2.2 0.45,-4 1,-4 0.55,0 1,-1.8 1,-4 0,-2.2 0.45,-4 1,-4 0.55,0 1,-0.9 1,-2 0,-1.1 -0.45,-2 -1,-2 -0.58333,0 -1,-3.33333 -1,-8 0,-4.66667 -0.41667,-8 -1,-8 -0.57143,0 -1,-3 -1,-7 0,-4 -0.42857,-7 -1,-7 -0.55,0 -1,-2.25 -1,-5 0,-2.75 -0.45,-5 -1,-5 -0.55,0 -1,-1.35 -1,-3 0,-1.65 0.45,-3 1,-3 0.55556,0 1,-2.66667 1,-6 0,-3.33333 -0.44444,-6 -1,-6 -0.62222,0 -1,-5.66667 -1,-15 0,-9.33333 -0.37778,-15 -1,-15 -0.55,0 -1,-1.35 -1,-3 0,-1.65 0.45,-3 1,-3 0.59259,0 1,-3.66667 1,-9 0,-5.33333 -0.40741,-9 -1,-9 -0.55,0 -1,-1.8 -1,-4 0,-2.2 -0.45,-4 -1,-4 -0.61905,0 -1,-5.33333 -1,-14 0,-8.66667 -0.38095,-14 -1,-14 -0.55,0 -1,-1.35 -1,-3 0,-1.65 -0.45,-3 -1,-3 -0.55,0 -1,-0.9 -1,-2 0,-1.1 -0.45,-2 -1,-2 -0.55,0 -1,-1.8 -1,-4 0,-2.2 0.45,-4 1,-4 0.55,0 1,-1.35 1,-3 0,-1.65 0.45,-3 1,-3 0.55,0 1,-1.14 1,-2.53333 0,-2.69044 5.90242,-9.46667 8.24591,-9.46667 0.72191,0 1.96125,-0.9 2.75409,-2 0.79284,-1.1 2.05246,-2 2.79916,-2 0.7467,0 3.08708,-1.8 5.20084,-4 2.11376,-2.2 4.45414,-4 5.20084,-4 0.7467,0 2.00632,-0.9 2.79916,-2 0.79284,-1.1 2.05246,-2 2.79916,-2 0.7467,0 3.08708,-1.8 5.20084,-4 2.11376,-2.2 4.45414,-4 5.20084,-4 0.7467,0 2.00632,-0.9 2.79916,-2 0.79284,-1.1 2.03152,-2 2.75264,-2 0.72112,0 6.23243,-4.95 12.24736,-11 6.01493,-6.05 11.62558,-11 12.46812,-11 0.84253,0 1.53188,-0.69545 1.53188,-1.54545 0,-0.85 1.10455,-2.65 2.45455,-4 1.35,-1.35 3.15,-2.45455 4,-2.45455 0.85,0 1.54545,-0.45 1.54545,-1 0,-0.55 0.71946,-1 1.59879,-1 0.87933,0 2.85988,-1.35 4.40121,-3 1.54133,-1.65 3.79133,-3 5,-3 1.20867,0 3.45867,-1.35 5,-3 1.54133,-1.65 3.52188,-3 4.40121,-3 0.87933,0 1.59879,-0.45 1.59879,-1 0,-0.55 0.80066,-1 1.77924,-1 0.97858,0 2.42792,-0.9 3.22076,-2 0.84651,-1.17447 2.58869,-2 4.22076,-2 2.11257,0 2.77924,-0.47975 2.77924,-2 0,-1.1 0.45,-2 1,-2 0.55,0 1,-0.69992 1,-1.55538 0,-0.85546 2.80451,-4.30812 6.23225,-7.67258 3.5664,-3.50056 5.70515,-6.29291 5,-6.52796 -0.67774,-0.22591 -1.23225,-1.27325 -1.23225,-2.32741 0,-1.05417 -0.45,-1.91667 -1,-1.91667 -0.55,0 -1,-0.70714 -1,-1.57143 0,-1.92738 -2.37651,-4.42857 -4.20781,-4.42857 -0.74287,0 -1.99935,-0.9 -2.79219,-2 -0.79284,-1.1 -2.14284,-2 -3,-2 -0.85716,0 -2.20716,-0.9 -3,-2 -0.79284,-1.1 -2.03763,-2 -2.76621,-2 -1.59502,0 -6.23379,-4.4648 -6.23379,-6 0,-0.6 -1.10455,-2.19545 -2.45455,-3.54545 -1.96231,-1.96232 -3.47406,-2.45455 -7.5384,-2.45455 -5.07426,0 -5.10072,0.017 -14.00705,9 -4.90775,4.95 -9.51613,9 -10.24083,9 -0.72471,0 -1.96633,0.9 -2.75917,2 -0.79284,1.1 -2.14284,2 -3,2 -0.85716,0 -2.20716,0.9 -3,2 -1.06203,1.47349 -2.58869,2 -5.79916,2 -3.77672,0 -4.86999,0.53325 -8.20084,4 -2.11376,2.2 -4.55348,4 -5.4216,4 -0.86812,0 -1.5784,0.45 -1.5784,1 0,0.55 -0.9,1 -2,1 -1.1,0 -2,0.45 -2,1 0,0.55 -0.9,1 -2,1 -1.1,0 -2,0.45 -2,1 0,0.60482 -4.25975,1 -10.77924,1 -9.63207,0 -10.93265,-0.21285 -12.22076,-2 -0.79284,-1.1 -2.03218,-2 -2.75409,-2 -1.82262,0 -8.24591,-6.59525 -8.24591,-8.46667 0,-0.84333 -0.45,-1.53333 -1,-1.53333 -0.55,0 -1,-0.9 -1,-2 0,-1.1 -0.45,-2 -1,-2 -0.55,0 -1,-0.73472 -1,-1.6327 0,-0.89799 -0.82446,-2.36049 -1.83212,-3.25 -1.0277,-0.9072 -2.23514,-3.9979 -2.75,-7.03926 -1.02412,-6.04953 -2.4606,-7.21892 -5.092228,-4.14541 -0.97357,1.13705 -2.24578,2.06737 -2.82713,2.06737 -0.58135,0 -1.70568,0.9 -2.49852,2 -1.15538,1.603 -2.58869,2 -7.22076,2 -3.18616,0 -5.77924,0.44869 -5.77924,1 0,0.55 -2.25,1 -5,1 -2.75,0 -5,0.45 -5,1 0,0.55 -1.8,1 -4,1 -2.2,0 -4,-0.45 -4,-1 0,-0.55 -0.9,-1 -2,-1 -1.1,0 -2,-0.45 -2,-1 0,-0.55 -0.9,-1 -2,-1 -1.1,0 -2,-0.45 -2,-1 0,-0.55 -0.9,-1 -2,-1 -1.1,0 -2,-0.45 -2,-1 0,-0.55 -1.35,-1 -3,-1 -1.65,0 -3,-0.45 -3,-1 0,-0.55 -1.35,-1 -3,-1 -1.65,0 -3,-0.45 -3,-1 0,-0.55 -1.35,-1 -3,-1 -1.65,0 -3,-0.45 -3,-1 0,-0.55 -2.25,-1 -5,-1 -2.75,0 -5,-0.45 -5,-1 0,-0.55 -0.80066,-1 -1.77924,-1 -0.97858,0 -2.42793,-0.9 -3.22076,-2 -0.79283,-1.1 -2.05246,-2 -2.79916,-2 -0.7467,0 -3.08708,-1.8 -5.2008403,-4 -2.11376,-2.2 -4.55348,-4 -5.4216,-4 -1.08711,0 -1.5784,-0.93377 -1.5784,-3 0,-1.65 -0.45,-3 -1,-3 -1.45223999,0 -1.22913999,-5.7264 0.25,-6.41667 1,-0.46666 1,-0.7 0,-1.16666 -1.54897999,-0.72286 -1.78916999,-18.41667 -0.25,-18.41667 0.55,0 1,-0.9 1,-2 0,-1.1 0.45,-2 1,-2 0.55,0 1,-0.80066 1,-1.77924 0,-0.97858 0.9,-2.42792 2,-3.22076 1.1,-0.79284 2,-2.24218 2,-3.22076 0,-1.03833 0.74018,-1.77924 1.77749,-1.77924 0.9776303,0 2.6651303,-0.60786 3.7500003,-1.3508 1.08488,-0.74295 3.21001,-1.65152 4.72251,-2.01906 1.5125,-0.36753 2.74716,-0.99717 2.74368,-1.39919 -0.006,-0.68387 -3.35332,-3.00799 -8.69286,-6.03552 -2.26795,-1.28592 -3.2468003,-5.19543 -1.30082,-5.19543 0.55,0 1,-0.9 1,-2 0,-1.1 -0.45,-2 -1,-2 -1.3944903,0 -1.2576103,-9.34239 0.15762,-10.75762 0.87682,-0.87682 0.81618,-1.57119 -0.25,-2.86262 -1.0900703,-1.32036 -1.1256203,-1.79991 -0.15762,-2.12571 0.6875,-0.2314 1.25,-1.54036 1.25,-2.90881 0,-2.57718 2.29341,-5.7185 3.38095,-4.63095 1.73454,1.73454 0.31251,-1.6662 -1.51859,-3.63165 -1.74857,-1.87687 -1.88507,-2.45721 -0.75,-3.18856 1.17601,-0.75772 1.16702,-1.03599 -0.059,-1.8246 -1.19554,-0.76903 -1.02199,-1.27734 1,-2.92901 1.96312,-1.60358 2.19958,-2.24967 1.1966,-3.26949 -1.48231,-1.50723 -1.69413,-9.87098 -0.24996,-9.87098 0.55,0 1,-1.35 1,-3 0,-3.37756 2.27578,-4.11652 3.87531,-1.25833 1.35449,2.42035 2.36907,1.02129 2.50764,-3.45795 0.0679,-2.19468 0.85199,-4.46293 1.86705,-5.40102 0.9625,-0.88951 1.75,-2.25267 1.75,-3.02924 0,-0.77657 0.9,-2.06062 2,-2.85346 1.1,-0.79284 2,-2.24218 2,-3.22076 0,-0.97858 0.70714,-1.77924 1.57143,-1.77924 0.86428,0 2.22731,-0.65588 3.02894,-1.45751 0.80163,-0.80163 2.13775,-1.19648 2.96917,-0.87743 1.04458,0.40084 1.88534,-0.41166 2.72106,-2.62961 1.13609,-3.01513 1.43823,-3.17313 4.9847,-2.6067 2.84991,0.45518 3.91788,0.23142 4.35699,-0.91289 0.31993,-0.83372 1.43354,-1.51586 2.4747,-1.51586 1.04115,0 1.89301,-0.45 1.89301,-1 0,-0.55 0.9,-1 2,-1 1.1,0 2,-0.46583 2,-1.03518 0,-0.68133 0.7269,-0.64616 2.12649,0.10288 1.56159,0.83574 2.76952,0.84508 4.54706,0.0352 1.3313,-0.60658 4.64938,-1.10288 7.3735,-1.10288 2.72412,0 4.94944,-0.3375 4.94515,-0.75 -0.009,-0.8812 -4.83728,-3.25 -6.62418,-3.25 -0.67828,0 -1.52046,-0.90494 -1.8715,-2.01097 -0.35104,-1.10603 -1.95637,-2.69259 -3.56739,-3.52568 -2.04152,-1.05573 -2.92913,-2.26452 -2.92913,-3.98905 0,-1.36088 -0.45,-2.47432 -1,-2.47432 -0.61905,0 -1,-5.33333 -1,-14 0,-8.66667 -0.38095,-14 -1,-14 -0.64368,0 -1,-10.33333 -1,-29 0,-18.66667 -0.35632,-29 -1,-29 -0.61905,0 -1,-5.33333 -1,-14 0,-8.666667 0.38095,-13.999997 1,-13.999997 0.58333,0 1,-3.33333 1,-8 0,-4.66667 0.41667,-8 1,-8 0.59259,0 1,-3.66667 1,-9 0,-5.33333 -0.40741,-9 -1,-9 -0.55,0 -1,-1.35 -1,-3 0,-1.65 0.45,-3 1,-3 0.55,0 1,-1.35 1,-3 0,-1.65 0.45,-3 1,-3 0.55,0 1,-0.80066 1,-1.77924 0,-0.97858 0.9,-2.42793 2,-3.22076 1.1,-0.79283 2,-2.14284 2,-3 0,-0.85716 0.9,-2.20717 2,-3 1.1,-0.79283 2,-2.04932 2,-2.79219 0,-1.83131 2.50119,-4.20781 4.42857,-4.20781 0.86429,0 1.57143,-0.45 1.57143,-1 0,-0.55 1.8,-1 4,-1 2.2,0 4,-0.45 4,-1 0,-0.55 0.9,-1 2,-1 1.1,0 2,-0.45 2,-1 0,-0.55 1.25066,-1 2.77924,-1 1.63207,0 3.37425,-0.82553 4.22076,-2 0.84651,-1.17447 2.58869,-2 4.22076,-2 1.528578,0 2.779238,-0.45 2.779238,-1 0,-0.55 1.35,-1 3,-1 1.65,0 3,-0.45 3,-1 0,-0.55 0.80066,-1 1.77924,-1 0.97858,0 2.42792,-0.9 3.22076,-2 1.09551,-1.519935 2.58869,-2 6.22076,-2 2.62858,0 4.77924,-0.45 4.77924,-1 0,-0.592593 3.66667,-1 9,-1 5.33333,0 9,-0.407407 9,-1 0,-1.456952 7.7272,-1.227431 8.41667,0.25 0.46666,1 0.7,1 1.16666,0 0.32084,-0.6875 1.04338,-1.25 1.60565,-1.25 0.56227,0 2.3211,-1.092857 3.9085,-2.428571 C 159.72143,0.254595 160.95855,0 168.93871,0 c 6.08484,0 9.4999,0.443389 10.75816,1.396768 1.0139,0.768223 2.85595,1.41108 4.09345,1.428572 1.2375,0.017491 2.25,0.481803 2.25,1.031803 0,0.645833 11.33333,1 32,1 20.66667,0 32,-0.354167 32,-1 0,-0.555556 2.66667,-1 6,-1 3.33333,0 6,-0.444444 6,-1 0,-0.611111 4.66667,-1 12,-1 7.33333,0 12,0.388889 12,1 0,0.55 2.25,1 5,1 4.88889,0 5,0.06667 5,3 0,2.833333 0.22222,3 4,3 2.2,0 4,0.45 4,1 0,0.55 1.8,1 4,1 2.2,0 4,-0.45 4,-1 0,-0.55 0.9,-1 2,-1 1.1,0 2,0.45 2,1 0,0.55 0.9,1 2,1 1.1,0 2,0.45 2,1 0,0.55 2.25,1 5,1 2.75,0 5,-0.45 5,-1 0,-0.55 0.9,-1 2,-1 1.1,0 2,0.45 2,1 0,0.55 1.14,1 2.53333,1 2.81691,0 9.46667,5.947318 9.46667,8.466667 0,0.843333 0.45,1.533333 1,1.533333 0.55,0 1,1.35 1,3 0,1.65 0.45,3 1,3 0.55,0 1,0.9 1,2 0,1.1 0.45,2 1,2 0.55,0 1,1.35 1,3 0,1.65 0.45,3 1,3 0.55,0 1,1.35 1,3 0,1.65 0.45,3 1,3 0.55,0 1,1.8 1,4 0,2.2 0.45,4 1,4 0.55,0 1,1.35 1,3 0,1.65 0.45,3 1,3 0.55556,0 1,2.66667 1,6 0,3.33333 0.44444,6 1,6 0.63636,0 1,8 1,22 0,13.999997 0.36364,21.999997 1,21.999997 0.55,0 1,0.9 1,2 0,1.1 -0.45,2 -1,2 -0.61905,0 -1,5.33333 -1,14 0,8.66667 -0.38095,14 -1,14 -0.55,0 -1,2.25 -1,5 0,2.75 -0.45,5 -1,5 -0.55,0 -1,0.9 -1,2 0,1.1 -0.45,2 -1,2 -0.55,0 -1,1.35 -1,3 0,1.65 -0.45,3 -1,3 -0.55,0 -1,0.9 -1,2 0,1.1 -0.45,2 -1,2 -0.55,0 -1,0.9 -1,2 0,1.1 -0.45,2 -1,2 -0.55,0 -1,1.15714 -1,2.57143 0,2.89359 -2.06801,5.42857 -4.42857,5.42857 -1.07937,0 -1.57143,0.93939 -1.57143,3 0,1.65 -0.45,3 -1,3 -0.55,0 -1,0.9 -1,2 0,1.1 -0.45,2 -1,2 -0.55,0 -1,0.9 -1,2 0,1.1 -0.45,2 -1,2 -0.55,0 -1,0.80066 -1,1.77924 0,0.97858 -0.9,2.42792 -2,3.22076 -1.1,0.79284 -2,2.05246 -2,2.79916 0,0.7467 -1.83439,3.12012 -4.07641,5.27426 -3.62948,3.4872 -3.91141,4.08162 -2.57143,5.4216 0.82774,0.82774 2.11278,1.50498 2.85565,1.50498 0.74287,0 1.99935,0.9 2.79219,2 0.79284,1.1 2.24218,2 3.22076,2 0.97858,0 1.77924,0.45 1.77924,1 0,0.55 0.9,1 2,1 1.1,0 2,0.45 2,1 0,0.55 1.25066,1 2.77924,1 1.63207,0 3.37425,0.82553 4.22076,2 0.79284,1.1 2.14284,2 3,2 0.85716,0 2.20716,0.9 3,2 0.79284,1.1 2.05246,2 2.79916,2 0.7467,0 3.08708,1.8 5.20084,4 2.11376,2.2 4.55348,4 5.4216,4 0.86812,0 1.5784,0.70714 1.5784,1.57143 0,1.80679 2.33864,4.42857 3.95031,4.42857 1.44073,0 12.04969,10.63305 12.04969,12.07705 0,0.61629 1.35,2.38162 3,3.92295 1.65,1.54133 3,3.33216 3,3.97961 0,0.64746 1.8,2.90663 4,5.02039 2.2,2.11376 4,4.37293 4,5.02039 0,0.64745 1.35,2.43828 3,3.97961 1.84484,1.72334 3,3.80309 3,5.40121 0,1.42933 0.45,2.59879 1,2.59879 0.55,0 1,1.35 1,3 0,1.65 0.45,3 1,3 0.55,0 1,0.9 1,2 0,1.1 0.45,2 1,2 0.55,0 1,0.9 1,2 0,1.1 0.45,2 1,2 0.55,0 1,0.9 1,2 0,1.1 0.45,2 1,2 0.55,0 1,0.71028 1,1.5784 0,0.86812 1.8,3.30784 4,5.4216 2.2,2.11376 4,4.55348 4,5.4216 0,0.86812 0.45,1.5784 1,1.5784 0.55,0 1,1.15714 1,2.57143 0,2.89359 2.06801,5.42857 4.42857,5.42857 0.90476,0 1.57143,0.84848 1.57143,2 0,1.1 0.45,2 1,2 0.55,0 1,0.9 1,2 0,1.1 0.45,2 1,2 0.55,0 1,0.9 1,2 0,1.33333 0.66667,2 2,2 1.16604,0 2,0.66667 2,1.59879 0,0.87933 1.35,2.85988 3,4.40121 1.65,1.54133 3,3.52188 3,4.40121 0,0.93212 0.83396,1.59879 2,1.59879 1.66667,0 2,0.66667 2,4 0,2.2 0.45,4 1,4 0.55,0 1,1.35 1,3 0,1.65 0.45,3 1,3 0.55,0 1,1.35 1,3 0,1.65 0.45,3 1,3 0.55,0 1,0.71946 1,1.59879 0,0.87933 1.35,2.85988 3,4.40121 1.65,1.54133 3,3.52188 3,4.40121 0,0.87933 0.45,1.59879 1,1.59879 0.5919,0 1,3.63889 1,8.91667 0,6.22736 0.377,9.05199 1.25,9.36536 0.8479,0.30436 0.5262,1.0927 -1,2.45063 -1.2375,1.10106 -2.25,2.73665 -2.25,3.63464 0,0.89798 -0.45,1.6327 -1,1.6327 -0.55,0 -1,1.35 -1,3 0,1.65 0.45,3 1,3 0.59259,0 1,3.66667 1,9 0,5.33333 -0.40741,9 -1,9 -0.55,0 -1,1.8 -1,4 0,2.2 -0.45,4 -1,4 -0.55556,0 -1,2.66667 -1,6 0,3.33333 0.44444,6 1,6 0.55,0 1,1.8 1,4 0,2.2 0.45,4 1,4 0.55,0 1,1.8 1,4 0,2.2 0.45,4 1,4 0.55,0 1,0.9 1,2 0,1.1 0.45,2 1,2 0.55,0 1,0.9 1,2 0,1.1 0.45,2 1,2 0.55,0 1,0.80066 1,1.77924 0,0.97858 0.9,2.42792 2,3.22076 1.1,0.79284 2,2.24218 2,3.22076 0,0.97858 0.45,1.77924 1,1.77924 0.5714,0 1,3 1,7 0,5.71009 -0.2909,7 -1.5784,7 -0.8681,0 -3.3078,1.8 -5.4216,4 -2.1138,2.2 -4.55348,4 -5.4216,4 -0.86812,0 -1.5784,0.45 -1.5784,1 0,0.55 -0.9,1 -2,1 -1.1,0 -2,0.45 -2,1 0,0.55 -1.35,1 -3,1 -1.65,0 -3,0.45 -3,1 0,0.61741 -5.17839,1 -13.53518,1 -10.57367,0 -14.05569,-0.34104 -15.91405,-1.55869 -2.31375,-1.51603 -2.41409,-1.46127 -3.66571,2 -0.70776,1.95728 -1.64644,3.55869 -2.08595,3.55869 -0.43951,0 -0.79911,0.71028 -0.79911,1.5784 0,0.86812 -1.8,3.30784 -4,5.4216 -2.2,2.11376 -4,4.3534 -4,4.97698 0,0.62358 -2.7,3.78394 -6,7.02302 -3.3,3.23908 -6,6.48982 -6,7.22386 0,0.73404 -0.9,1.9833 -2,2.77614 -1.1,0.79284 -2,2.14284 -2,3 0,0.85716 -0.9,2.20716 -2,3 -1.1,0.79284 -2,2.24218 -2,3.22076 0,0.97858 -0.68684,1.77924 -1.52632,1.77924 -1.75564,0 -10.47368,8.38409 -10.47368,10.07247 0,0.61881 -1.35,2.3862 -3,3.92753 -1.65,1.54133 -3,3.34133 -3,4 0,0.65867 -1.35,2.45867 -3,4 -1.65,1.54133 -3,3.52188 -3,4.40121 0,0.93212 -0.83396,1.59879 -2,1.59879 -1.33333,0 -2,0.66667 -2,2 0,1.13043 -0.66667,2 -1.53333,2 -1.99041,0 -8.46667,6.47626 -8.46667,8.46667 0,0.84333 -0.45,1.53333 -1,1.53333 -0.55,0 -1,0.69545 -1,1.54545 0,2.00047 -4.45408,6.45455 -6.45455,6.45455 -0.87878,0 -1.54545,0.86275 -1.54545,2 0,1.1 -0.45,2 -1,2 -0.55,0 -1,0.45 -1,1 0,0.55 0.9,1 2,1 1.1,0 2,0.45 2,1 0,0.55556 2.66667,1 6,1 3.33333,0 6,0.44444 6,1 0,0.55 1.8,1 4,1 2.2,0 4,0.45 4,1 0,0.55 1.35,1 3,1 1.65,0 3,0.45 3,1 0,0.55 1.25066,1 2.77924,1 1.63207,0 3.37425,0.82553 4.22076,2 0.79284,1.1 2.24218,2 3.22076,2 0.97858,0 1.77924,0.45 1.77924,1 0,0.55 0.9,1 2,1 1.1,0 2,0.45 2,1 0,0.55 0.68478,1 1.52174,1 1.69504,0 12.47826,10.36348 12.47826,11.99255 0,1.39902 16.6795,18.00745 18.0845,18.00745 0.6122,0 2.37417,1.35 3.9155,3 1.54133,1.65 3.34133,3 4,3 0.65867,0 2.45867,1.35 4,3 1.54133,1.65 3.31613,3 3.94399,3 0.62786,0 4.70307,3.6 9.05601,8 4.35294,4.4 8.60869,8 9.45722,8 0.84853,0 1.54278,0.45 1.54278,1 0,0.55 0.70422,1 1.56492,1 0.86071,0 3.7565,2.25 6.43508,5 4.87397,5.00392 7.3224,6.09482 8.4167,3.75 0.4666,-1 0.7,-1 1.1666,0 0.3209,0.6875 2.153,1.25 4.0715,1.25 3.7072,0 6.3452,1.84116 6.3452,4.42857 0,0.86429 0.45,1.57143 1,1.57143 0.55,0 1,2.04545 1,4.54545 0,5.2091 3.2482,9.45455 7.2338,9.45455 1.2786,0 2.9734,0.9 3.7662,2 0.8465,1.17447 2.5887,2 4.2208,2 1.5285,0 2.7792,0.45 2.7792,1 0,0.55 0.9,1 2,1 1.1,0 2,0.45 2,1 0,0.55 1.35,1 3,1 1.65,0 3,0.45 3,1 0,0.55 0.9,1 2,1 1.1,0 2,0.45 2,1 0,0.55 0.8007,1 1.7792,1 0.9786,0 2.428,0.9 3.2208,2 0.7928,1.1 2.0376,2 2.7662,2 1.8253,0 6.2338,4.56466 6.2338,6.45455 0,0.85 0.45,1.54545 1,1.54545 0.5714,0 1,3 1,7 0,4 -0.4286,7 -1,7 -0.55,0 -1,1.35 -1,3 0,1.65 -0.45,3 -1,3 -0.55,0 -1,0.68684 -1,1.52632 0,0.83947 -2.0132,3.53947 -4.4737,6 -2.4605,2.46052 -5.1605,4.47368 -6,4.47368 -0.8395,0 -1.5263,0.45 -1.5263,1 0,0.55 -0.6814,1 -1.5143,1 -1.8411,0 -18.4857,16.44585 -18.4857,18.26496 0,0.71143 -0.9,1.9422 -2,2.73504 -1.1,0.79284 -2,2.14284 -2,3 0,0.85716 -0.9,2.20716 -2,3 -1.1,0.79284 -2,2.51163 -2,3.81955 0,1.35283 -1.2933,3.58619 -3,5.18045 -2.1031,1.96455 -3,3.74249 -3,5.94666 0,4.81241 -3.8048,8.05334 -9.4545,8.05334 -2.5,0 -4.5455,0.45 -4.5455,1 0,0.55 -1.35,1 -3,1 -1.65,0 -3,0.45 -3,1 0,0.55 -1.70066,1 -3.77924,1 -2.63207,0 -4.21681,0.60709 -5.22076,2 -0.79517,1.10324 -2.58869,2 -4,2 -1.41131,0 -3.20483,0.89676 -4,2 -0.79284,1.1 -2.24218,2 -3.22076,2 -0.97858,0 -1.77924,0.45 -1.77924,1 0,0.55 -1.35,1 -3,1 -1.65,0 -3,0.45 -3,1 0,0.55 -1.8,1 -4,1 -2.2,0 -4,-0.45 -4,-1 0,-0.55 -1.35,-1 -3,-1 -1.65,0 -3,0.45 -3,1 0,0.55 -0.9,1 -2,1 -1.1,0 -2,-0.45 -2,-1 z m -225.36163,-125.5 c 0.31659,-0.825 0.75246,-1.5 0.96862,-1.5 0.21615,0 0.39301,0.675 0.39301,1.5 0,0.825 -0.43588,1.5 -0.96862,1.5 -0.53273,0 -0.70959,-0.675 -0.39301,-1.5 z"
     id="path2987"
     inkscape:connector-curvature="0" />
</svg>
