<?xml version="1.0" encoding="UTF-8" standalone="no"?>
<!-- Created with Inkscape (http://www.inkscape.org/) -->

<svg
   xmlns:dc="http://purl.org/dc/elements/1.1/"
   xmlns:cc="http://creativecommons.org/ns#"
   xmlns:rdf="http://www.w3.org/1999/02/22-rdf-syntax-ns#"
   xmlns:svg="http://www.w3.org/2000/svg"
   xmlns="http://www.w3.org/2000/svg"
   xmlns:sodipodi="http://sodipodi.sourceforge.net/DTD/sodipodi-0.dtd"
   xmlns:inkscape="http://www.inkscape.org/namespaces/inkscape"
   id="svg2"
   version="1.1"
   inkscape:version="0.48.2 r9819"
   width="865.41034"
   height="234.99446"
   sodipodi:docname="benitaafricanrom00haggrich_0057b2b.png">
  <metadata
     id="metadata8">
    <rdf:RDF>
      <cc:Work
         rdf:about="">
        <dc:format>image/svg+xml</dc:format>
        <dc:type
           rdf:resource="http://purl.org/dc/dcmitype/StillImage" />
        <dc:title></dc:title>
      </cc:Work>
    </rdf:RDF>
  </metadata>
  <defs
     id="defs6" />
  <sodipodi:namedview
     pagecolor="#ffffff"
     bordercolor="#666666"
     borderopacity="1"
     objecttolerance="10"
     gridtolerance="10"
     guidetolerance="10"
     inkscape:pageopacity="0"
     inkscape:pageshadow="2"
     inkscape:window-width="1600"
     inkscape:window-height="876"
     id="namedview4"
     showgrid="false"
     fit-margin-top="0"
     fit-margin-left="0"
     fit-margin-right="0"
     fit-margin-bottom="0"
     inkscape:zoom="1"
     inkscape:cx="181"
     inkscape:cy="-113.00554"
     inkscape:window-x="0"
     inkscape:window-y="24"
     inkscape:window-maximized="1"
     inkscape:current-layer="svg2" />
  <path
     style="fill:#000000"
     d="m 85.31809,234.99442 c -3.51717,0.005 -4.52471,-0.47584 -6.33853,-3.02312 -1.18614,-1.66579 -2.60404,-4.6491 -3.15087,-6.62958 -0.6912,-2.5033 -0.6297,-5.61881 0.20176,-10.22129 0.6578,-3.64124 1.56493,-7.52043 2.01584,-8.62043 0.45091,-1.1 2.42496,-5.4747 4.38678,-9.72155 C 84.39488,192.5316 86,188.57446 86,187.98481 c 0,-0.58966 1.0832,-2.24028 2.40712,-3.66807 1.32391,-1.42778 3.60666,-4.96682 5.07276,-7.86452 1.46611,-2.89771 2.87623,-6.60471 3.1336,-8.23778 0.326,-2.0685 5.8e-4,-3.14856 -1.07276,-3.56044 C 94.42187,164.22466 94,162.61484 94,158.77478 c 0,-2.90839 0.44081,-6.82498 0.97957,-8.70354 0.68251,-2.37979 0.64126,-3.82319 -0.13605,-4.75979 -0.78723,-0.94856 -2.47376,-1.16706 -5.72957,-0.74231 -2.53767,0.33105 -8.21395,0.71665 -12.61395,0.85687 -4.4,0.14023 -9.85124,0.60277 -12.11386,1.02788 -3.45859,0.64981 -4.33465,0.46563 -5.5,-1.15633 -0.76238,-1.0611 -2.06114,-2.24295 -2.88614,-2.62635 -0.825,-0.38339 -3.4806,-1.81484 -5.90133,-3.181 -3.3461,-1.88839 -4.72468,-2.21556 -5.75,-1.36462 C 43.30957,138.98797 43,138.86528 43,137.59112 c 0,-1.28232 -0.84228,-1.60581 -3.75,-1.44022 -2.0625,0.11745 -4.7625,0.65378 -6,1.19184 -1.2375,0.53806 -2.25,1.37993 -2.25,1.87083 0,0.4909 -1.0125,2.37446 -2.25,4.1857 -1.2375,1.81124 -4.41487,5.16237 -7.06082,7.44695 C 17.3017,154.63448 16.39296,155 11.36226,155 6.59884,155 5.44729,154.60114 2.92308,152.07692 0.70347,149.85731 0,148.22624 0,145.29943 c 0,-2.11993 0.7875,-4.96705 1.75,-6.32692 1.41141,-1.99414 1.77024,-4.76239 1.85461,-14.30789 l 0.10462,-11.83538 3.13112,-3.13113 c 2.78592,-2.78592 3.89053,-3.17403 10.01922,-3.52033 5.24528,-0.29639 7.49597,0.009 9.43681,1.28076 1.40179,0.91849 5.05856,1.92902 8.12616,2.24562 C 39.0832,110.18518 40,110.01995 40,108.69892 c 0,-0.86949 0.38243,-1.81724 0.84984,-2.10612 0.46741,-0.28887 3.95491,-0.75175 7.75,-1.02862 4.12572,-0.30098 8.70954,-1.37925 11.40016,-2.68169 2.475,-1.19807 6.47992,-2.40287 8.89983,-2.67734 3.15432,-0.35776 4.19917,-0.17435 3.69098,0.64791 C 72.11366,101.6251 72.93633,102 75.10765,102 c 1.77413,0 2.92835,0.29733 2.56494,0.66074 -0.3634,0.36341 0.34909,1.16647 1.58334,1.78458 1.84588,0.92442 3.00223,0.70103 6.51687,-1.25898 2.35004,-1.31055 4.86982,-2.15372 5.59951,-1.87371 0.72969,0.28001 3.46358,0.0534 6.0753,-0.50367 3.18765,-0.67986 5.07958,-0.68177 5.75556,-0.006 0.67597,0.67597 2.04075,0.57507 4.1519,-0.30694 1.72971,-0.72265 6.96993,-1.83446 11.64493,-2.47069 4.675,-0.63623 9.85,-1.36197 11.5,-1.61274 1.65,-0.25078 6.375,-0.7134 10.5,-1.02805 4.125,-0.31464 9.075,-0.58954 11,-0.61088 1.925,-0.0213 7.325,0.30037 12,0.71493 4.675,0.41455 8.95,1.02156 9.5,1.34891 0.55,0.32735 1.9,0.61341 3,0.63569 1.1,0.0223 2.45,0.32992 3,0.68363 0.55,0.35371 3.7,0.96073 7,1.34893 3.3,0.3882 6.9,1.25711 8,1.9309 1.1,0.6738 4.82858,1.81605 8.28574,2.53834 4.79938,1.00272 6.87959,1.04269 8.79706,0.16903 1.38122,-0.62933 3.33869,-1.14423 4.34995,-1.14423 1.01125,0 3.12757,0.67223 4.70294,1.49384 1.57537,0.82161 3.64154,1.49661 4.59148,1.5 0.94995,0.003 4.73515,-1.12604 8.41157,-2.50984 3.67641,-1.3838 9.87419,-3.00846 13.77283,-3.61035 3.89863,-0.6019 8.29826,-1.71694 9.77695,-2.47789 1.47868,-0.76094 3.72868,-1.30074 5,-1.19955 1.27131,0.10118 4.21538,-1.08067 6.54236,-2.62635 3.01387,-2.00194 5.02135,-2.65922 6.97892,-2.285 1.79504,0.34314 3.6879,-0.14392 5.45821,-1.4045 1.4906,-1.06139 3.38444,-3.2814 4.20854,-4.93335 1.40166,-2.80969 1.33334,-3.3216 -1.05845,-7.93167 -1.66015,-3.19988 -2.34722,-5.76318 -1.95918,-7.30926 0.32869,-1.30961 1.58075,-3.63097 2.78236,-5.15856 1.2016,-1.52759 5.14888,-4.11596 8.77173,-5.75193 3.62284,-1.63596 8.86654,-3.83553 11.65266,-4.88792 2.78612,-1.05239 6.35781,-3.26214 7.93709,-4.91055 C 315.08204,47.3487 316.86984,46 317.47565,46 c 0.60581,0 2.77175,-0.85156 4.81321,-1.89235 2.04146,-1.0408 6.74911,-2.61189 10.46144,-3.49132 3.71234,-0.87942 9.60937,-1.80197 13.10452,-2.0501 5.99917,-0.42591 6.55492,-0.68492 9.93011,-4.62808 1.96641,-2.2973 4.50674,-5.55699 5.64518,-7.24374 1.46896,-2.17646 3.37634,-3.3905 6.56989,-4.18169 2.475,-0.61318 5.73615,-1.00645 7.247,-0.87394 1.94612,0.17069 3.10199,-0.39752 3.96457,-1.94892 0.66966,-1.20442 1.23351,-2.523 1.25299,-2.93016 0.0195,-0.40717 2.19329,-3.18811 4.83066,-6.17986 3.82019,-4.3335 6.16285,-5.96215 11.52121,-8.00969 C 400.51573,1.15657 404.85093,0 406.45021,0 c 1.59929,0 4.51474,0.51326 6.47879,1.14057 1.96405,0.62732 5.821,1.94259 8.571,2.92283 2.75,0.98025 8.15,2.97672 12,4.43662 3.85,1.45989 9.7,4.27101 13,6.24693 3.3,1.97591 7.67749,4.97868 9.72776,6.67281 2.05027,1.69413 5.20027,4.2575 7,5.69638 2.88042,2.30288 4.02062,2.57803 9.52224,2.29784 3.4375,-0.17506 6.25,0.0517 6.25,0.5039 0,0.45221 1.9125,1.30765 4.25,1.90099 2.3375,0.59334 6.36506,0.98932 8.95014,0.87996 2.58508,-0.10936 5.26258,-0.76133 5.95,-1.44883 0.68742,-0.6875 2.18473,-1.25 3.32735,-1.25 1.14263,0 3.19013,0.77932 4.55,1.73181 1.35988,0.9525 2.47251,1.56703 2.47251,1.36564 0,-0.2014 1.575,-0.0288 3.5,0.38366 1.925,0.41241 4.12694,1.26037 4.89321,1.88436 0.76626,0.62399 5.26626,1.67107 10,2.32683 4.73373,0.65577 10.06929,1.49434 11.85679,1.8635 1.7875,0.36916 3.25,0.97436 3.25,1.3449 0,0.37053 0.90452,0.74183 2.01004,0.8251 1.10552,0.0833 2.71266,0.85404 3.57142,1.71281 0.85877,0.85876 1.90702,1.56139 2.32945,1.56139 0.42243,0 1.30075,-1.16913 1.95182,-2.59807 0.79164,-1.73746 1.70003,-2.39996 2.7423,-2 0.8572,0.32894 1.9983,0.59807 2.53577,0.59807 0.53748,0 0.72175,0.41338 0.40949,0.91863 -0.31226,0.50524 0.79011,1.21686 2.44971,1.58137 1.6596,0.36451 2.80264,1.01032 2.54008,1.43514 -0.26255,0.42482 0.63838,1.28077 2.00207,1.90211 l 2.47944,1.12971 -2.01079,3.75171 C 563.90486,53.78211 563,56.03955 563,56.73519 c 0,0.69565 -1.0125,1.2717 -2.25,1.28012 -1.68863,0.0115 -1.90235,0.23546 -0.8566,0.89765 0.76637,0.48528 1.16683,1.74873 0.88991,2.80768 -0.40842,1.56179 0.3121,2.16617 3.81575,3.20067 2.37558,0.70143 4.85972,1.92656 5.5203,2.72251 0.66059,0.79596 1.80397,1.21584 2.54085,0.93307 C 573.3971,68.29413 574,68.49869 574,69.03139 574,69.56412 573.56412,70 573.03138,70 c -0.53273,0 -0.72213,0.64231 -0.42089,1.42735 0.33686,0.87783 1.3835,1.23191 2.71862,0.9197 1.19399,-0.27921 2.84589,-0.45752 3.67089,-0.39625 0.825,0.0613 2.7375,0.14996 4.25,0.1971 1.63326,0.0509 2.75,0.6474 2.75,1.4689 0,0.76076 0.525,1.3832 1.16667,1.3832 0.64166,0 0.89376,-0.2729 0.56021,-0.60645 -0.33354,-0.33355 0.29221,-1.57105 1.39058,-2.75 1.09836,-1.17895 2.30876,-2.18241 2.68978,-2.22992 0.38102,-0.0475 1.59276,-0.4258 2.69276,-0.84067 1.1,-0.41487 2.95052,-1.20638 4.11228,-1.75891 1.16175,-0.55253 4.02796,-1.13456 6.36935,-1.29342 2.34139,-0.15885 4.60305,-0.84863 5.02592,-1.53284 0.42286,-0.68421 1.23806,-0.95403 1.81155,-0.59959 0.57349,0.35443 1.31357,0.20616 1.64463,-0.32951 0.33105,-0.53566 2.57155,-0.80556 4.97887,-0.59978 2.40733,0.20578 5.24206,0.83714 6.29942,1.40302 1.05736,0.56588 2.50306,1.72845 3.21267,2.58347 0.70961,0.85503 1.95784,1.5546 2.77383,1.5546 0.816,0 2.37194,1.12929 3.45763,2.50953 1.0857,1.38024 2.37526,2.26153 2.8657,1.95843 0.49043,-0.30311 3.14849,1.71761 5.9068,4.49047 2.75831,2.77286 5.67282,5.04157 6.4767,5.04157 0.80389,0 2.693,1.14122 4.19803,2.53603 1.50504,1.39482 3.32822,2.30895 4.05152,2.03139 0.72331,-0.27756 1.36839,0.0437 1.43352,0.71396 0.0651,0.67024 0.0493,1.60349 -0.0351,2.07388 -0.0844,0.47039 0.30838,1.4118 0.87291,2.09201 0.56452,0.68021 0.73031,1.53284 0.36842,1.89474 C 659.96275,93.7039 660.21821,94 660.89234,94 c 0.67413,0 0.95771,0.43359 0.63019,0.96353 -0.32752,0.52993 0.26026,1.81927 1.30618,2.86519 1.31058,1.31058 1.6289,2.38908 1.02409,3.4698 -0.48266,0.86248 -0.51619,1.79149 -0.0745,2.06446 0.44168,0.27298 0.70745,2.89048 0.59059,5.81667 -0.11685,2.92619 -0.31038,5.32035 -0.43005,5.32035 -0.11968,0 -0.30544,1.6875 -0.41281,3.75 -0.10738,2.0625 0.21066,3.75 0.70676,3.75 0.49609,0 0.61634,0.9 0.26721,2 -0.52606,1.65746 -0.1797,2 2.02232,2 1.53268,0 3.4514,0.95214 4.53412,2.25 1.03236,1.2375 1.89199,2.76075 1.91029,3.38499 0.0183,0.62424 1.14244,1.86174 2.49809,2.75 1.35565,0.88826 3.94315,1.6333 5.75,1.65565 2.10016,0.026 4.4034,1.01795 6.38517,2.75 1.705,1.49015 3.916,3.98005 4.91334,5.53312 0.99734,1.55306 4.1632,4.32694 7.03525,6.16416 3.9342,2.51668 7.16132,3.62634 13.08666,4.49989 4.32562,0.63771 10.56476,2.06745 13.86476,3.17719 3.3,1.10975 7.1744,2.63975 8.6097,3.40001 1.4353,0.76026 2.8369,1.15503 3.1147,0.87728 0.2777,-0.27776 1.4659,-0.69006 2.6403,-0.91623 1.1744,-0.22617 2.1353,-0.0996 2.1352,0.28136 0,0.38092 1.461,0.64942 3.2467,0.59667 1.7857,-0.0528 4.697,0.51003 6.4695,1.25063 1.7725,0.7406 7.7481,1.56574 13.2793,1.83366 5.9833,0.28983 11.2098,1.08348 12.9038,1.95949 1.566,0.8098 3.1049,1.2147 3.4198,0.89978 0.3149,-0.31492 2.6063,0.12036 5.0919,0.9673 2.4856,0.84693 6.3424,3.2266 8.5705,5.28816 2.8394,2.6271 4.2276,4.85147 4.6409,7.43644 l 0.5898,3.68816 7.0335,0.58966 c 5.2044,0.43631 7.7799,0.20368 9.9036,-0.89453 1.5786,-0.8163 4.3453,-1.38484 6.1484,-1.26341 1.803,0.12143 3.8236,-0.11633 4.4903,-0.52834 0.8289,-0.51226 1.2121,0.06 1.2121,1.80989 0,1.70214 0.5476,2.55902 1.6353,2.55902 0.8995,0 2.6885,1.13633 3.9756,2.52518 1.7566,1.89535 2.9557,2.37071 4.8079,1.90586 1.3571,-0.34063 3.0556,-0.24635 3.7744,0.2095 0.7187,0.45586 1.5318,0.87459 1.8068,0.93051 0.275,0.0559 1.175,0.37397 2,0.70677 0.825,0.33279 2.3594,0.74393 3.4098,0.91363 1.0503,0.1697 2.6253,1.76083 3.5,3.53584 0.8746,1.77501 2.3619,3.23751 3.305,3.25 0.9432,0.0125 2.1648,0.86354 2.7148,1.89123 0.55,1.02768 0.7431,2.12541 0.4292,2.43939 -0.314,0.31398 0.605,1.74679 2.0422,3.18401 2.117,2.11695 2.4152,2.98292 1.5709,4.56061 -0.6714,1.25446 -2.0923,1.94747 -3.9929,1.94747 -2.3422,0 -3.5051,-0.83785 -5.6396,-4.06334 -2.3952,-3.61944 -2.7985,-3.86524 -3.6916,-2.25 -0.5514,0.99734 -1.7103,2.36153 -2.5752,3.03154 -0.8649,0.67 -2.5538,1.2325 -3.753,1.25 -1.4251,0.0208 -2.2912,-0.66425 -2.5,-1.97745 -0.3057,-1.92182 -0.4482,-1.89821 -3.2748,0.54266 -1.6253,1.40355 -3.8753,2.42022 -5,2.25925 -1.2673,-0.18139 -2.1703,-1.1791 -2.375,-2.62408 -0.2851,-2.01269 -0.4902,-2.11978 -1.5,-0.78333 -0.6434,0.85145 -3.0823,1.8456 -5.4198,2.20923 -4.1853,0.65107 -4.25,0.61642 -4.25,-2.27554 0,-1.61518 0.6607,-3.81019 1.4682,-4.87781 0.8075,-1.06762 1.4825,-2.70207 1.5,-3.63211 0.017,-0.93004 -0.4257,-1.97371 -0.9848,-2.31926 -0.5591,-0.34556 -2.7931,-0.80502 -4.9644,-1.02103 -2.1714,-0.21602 -4.2155,0.0402 -4.5425,0.56926 -0.327,0.5291 -1.4068,0.96201 -2.3997,0.96201 -1.2046,0 -2.3493,1.42496 -3.4409,4.28343 -0.8998,2.35589 -1.6359,4.83089 -1.6359,5.5 0,0.66911 -1.26,1.21657 -2.8,1.21657 -1.54,0 -3.34,-0.54 -4,-1.2 -0.66,-0.66 -1.2,-2.89417 -1.2,-4.96482 0,-2.56305 -0.5586,-4.06296 -1.75,-4.69882 -0.9625,-0.51371 -4.45,-1.20316 -7.75,-1.53212 -3.3,-0.32895 -5.4375,-0.33698 -4.75,-0.0178 0.6875,0.31914 1.25,1.83703 1.25,3.37309 0,2.67323 -0.2427,2.81296 -5.6661,3.26272 -4.0774,0.33812 -6.122,1.03284 -7.2919,2.47759 -0.8942,1.10424 -3.3235,2.56801 -5.3985,3.25282 -2.075,0.68482 -5.4311,1.00215 -7.4581,0.70519 -2.027,-0.29696 -6.5878,-1.02248 -10.1352,-1.61226 -3.8782,-0.64479 -7.2978,-1.86902 -8.5768,-3.07055 -1.1698,-1.09902 -4.5674,-2.6744 -7.5502,-3.50085 -2.98276,-0.82645 -8.1232,-1.98775 -11.4232,-2.58066 -3.3,-0.5929 -8.79587,-1.77378 -12.21304,-2.62417 -3.41717,-0.85039 -7.69217,-2.47507 -9.5,-3.61041 -1.80783,-1.13533 -5.27573,-3.09805 -7.70644,-4.36158 C 689.64981,190.0338 687.03017,189 686.25909,189 c -0.77107,0 -2.07695,-0.675 -2.90195,-1.5 -0.825,-0.825 -2.59285,-1.5 -3.92857,-1.5 C 678.09286,186 677,185.64282 677,185.20628 c 0,-0.43655 -2.70945,-1.39482 -6.02101,-2.12948 -3.31155,-0.73467 -6.26311,-1.72749 -6.55901,-2.20628 C 664.12407,180.39173 662.9752,180 661.86694,180 c -1.11906,0 -4.72459,-2.66786 -8.10882,-6 -3.35158,-3.3 -6.60863,-6 -7.23789,-6 -0.62926,0 -2.15893,-1.37262 -3.39927,-3.05026 -1.24033,-1.67764 -3.34996,-3.46651 -4.68806,-3.97525 -1.33809,-0.50874 -2.4329,-1.5265 -2.4329,-2.26168 0,-0.73518 -1.33178,-2.32132 -2.95951,-3.52475 C 631.41276,153.98463 629.19206,153 628.10559,153 c -1.08646,0 -3.05458,0.41031 -4.37359,0.91179 -1.319,0.50149 -3.9358,1.15236 -5.81509,1.44639 -1.8793,0.29403 -5.55434,0.8207 -8.16676,1.17038 -3.72218,0.49823 -4.87479,0.3102 -5.32732,-0.86907 -0.31761,-0.82767 -1.27471,-1.77241 -2.1269,-2.09942 -0.85218,-0.32702 -2.05489,-0.2143 -2.67268,0.25048 -0.61779,0.46478 -3.19295,1.60887 -5.72258,2.54242 -2.52963,0.93355 -5.64557,2.81104 -6.92431,4.1722 -1.44832,1.54166 -3.43045,2.47483 -5.25675,2.47483 -1.89236,0 -3.59198,-0.83932 -4.79396,-2.36739 -1.36304,-1.73283 -2.5502,-2.23588 -4.42896,-1.87673 -1.53126,0.29272 -3.26219,-0.13867 -4.29053,-1.06931 -0.94807,-0.85799 -3.00363,-1.79206 -4.56791,-2.07572 -1.56429,-0.28366 -3.96187,-1.2481 -5.32797,-2.1432 -1.36609,-0.8951 -2.72893,-1.38233 -3.02853,-1.08274 -0.29959,0.2996 -1.38555,0.0947 -2.41323,-0.45528 C 551.55754,151.22802 551,151.26595 551,152.05674 c 0,0.7321 -1.83994,1.01926 -5.25,0.81937 -2.8875,-0.16925 -6.03452,-0.95267 -6.99338,-1.74092 -1.35057,-1.11027 -3.65383,-1.29837 -10.22228,-0.83482 -5.32423,0.37573 -8.71287,0.21977 -9.10777,-0.41918 -0.34588,-0.55964 -1.25835,-0.77598 -2.02772,-0.48075 -0.79076,0.30344 -1.39885,-0.076 -1.39885,-0.87281 0,-0.77528 -0.43461,-1.6782 -0.9658,-2.00649 -0.53118,-0.32829 -3.41849,0.11612 -6.41623,0.98759 -2.99774,0.87147 -5.94099,2.17556 -6.54056,2.89799 -0.63722,0.76781 -2.22997,1.10815 -3.83376,0.8192 -1.50901,-0.27187 -3.19365,-0.82234 -3.74365,-1.22327 -0.55,-0.40092 -3.7,-0.79497 -7,-0.87565 -3.3,-0.0807 -8.36299,-0.25477 -11.2511,-0.38685 -2.8881,-0.13208 -5.2506,0.0347 -5.25,0.37056 6.1e-4,0.33589 -2.3614,0.93563 -5.2489,1.33275 -2.8875,0.39713 -7.275,0.85002 -9.75,1.00643 -2.475,0.15641 -4.5,0.38088 -4.5,0.49882 0,0.11794 -2.475,0.3308 -5.5,0.47301 -3.025,0.14222 -7.82326,0.59234 -10.66281,1.00027 -3.50186,0.50309 -5.90808,0.34285 -7.47936,-0.49808 -1.27411,-0.68188 -2.93613,-1.85935 -3.69339,-2.61661 -1.04113,-1.04113 -2.99669,-1.21239 -8.02063,-0.70238 -3.6541,0.37095 -9.11881,0.77821 -12.14381,0.90501 -3.025,0.12681 -5.95,0.34224 -6.5,0.47874 -0.55,0.13649 -1.35573,0.18881 -1.79051,0.11625 -0.43478,-0.0726 -1.67228,0.33998 -2.75,0.91676 -1.07772,0.57678 -1.95949,1.87775 -1.95949,2.89106 0,1.0133 0.65441,2.38548 1.45425,3.04929 0.79983,0.6638 3.14498,2.0689 5.21144,3.12244 2.06646,1.05354 4.33704,1.91553 5.04575,1.91553 0.70871,0 1.28856,0.45 1.28856,1 0,0.55 0.7063,1 1.56955,1 1.04017,0 1.46177,0.72835 1.25,2.15948 -0.17575,1.18772 -1.21955,2.36693 -2.31955,2.62047 -1.1,0.25354 -4.5875,0.42983 -7.75,0.39176 -4.3859,-0.0528 -5.75,0.27448 -5.75,1.37954 0,0.93115 -1.0336,1.44875 -2.89301,1.44875 -1.64908,0 -3.14051,-0.64497 -3.46862,-1.5 -0.31658,-0.825 -1.26472,-1.5 -2.10699,-1.5 -0.84226,0 -1.53138,0.45 -1.53138,1 0,0.55 -1.8,1 -4,1 -3.45809,0 -4.0107,-0.30482 -4.07895,-2.25 -0.0716,-2.04117 -0.17217,-1.99476 -1.08333,0.5 -0.82814,2.26744 -1.60393,2.75 -4.42105,2.75 -2.1044,0 -3.41667,-0.49025 -3.41667,-1.27643 0,-0.87521 -1.19624,-1.16234 -3.80576,-0.91348 -2.50996,0.23936 -4.22489,-0.1421 -5.03676,-1.12034 -0.67706,-0.81581 -2.09351,-1.25773 -3.14768,-0.98206 -1.05416,0.27567 -2.63239,1.59355 -3.50716,2.92863 -0.87478,1.33508 -2.02073,2.16151 -2.54657,1.83653 C 345.43023,173.14786 345,173.35852 345,173.94098 c 0,0.58246 0.38958,1.05902 0.86573,1.05902 0.47615,0 0.50606,1.6875 0.0665,3.75 -0.43958,2.0625 -1.30685,5.55 -1.92726,7.75 -0.62042,2.2 -1.17534,4.60998 -1.23316,5.35552 -0.0578,0.74553 -1.54576,2.88303 -3.30653,4.75 -2.63021,2.78883 -3.93433,3.39448 -7.30917,3.39448 -2.34509,0 -5.51272,0.85661 -7.38192,1.99626 -2.17843,1.32819 -5.04291,1.99751 -8.55935,2 -3.25941,0.002 -6.26252,-0.63663 -7.83502,-1.66697 -2.37011,-1.55296 -3.0196,-1.55602 -9.21482,-0.0434 -3.66574,0.895 -10.56183,1.90883 -15.32464,2.25296 -7.29143,0.52682 -9.08454,0.34729 -11.34871,-1.13625 -2.36872,-1.55204 -3.36944,-1.6214 -8.40054,-0.58225 -3.14131,0.64883 -7.04676,1.17969 -8.67878,1.17969 -1.63201,0 -3.85493,-0.61097 -4.9398,-1.35771 -1.08488,-0.74674 -3.67743,-1.91239 -5.76121,-2.59033 -2.97054,-0.96643 -4.10427,-0.97071 -5.25,-0.0198 C 238.65758,200.69914 238,200.90969 238,200.5 c 0,-0.40969 -0.5625,-0.28921 -1.25,0.26773 -0.6875,0.55693 -2.375,0.92345 -3.75,0.81448 -1.375,-0.10898 -3.08265,0.23726 -3.79477,0.76943 -0.71212,0.53216 -6.42315,1.1553 -12.69117,1.38477 l -11.39641,0.41721 -5.5143,-4.16334 c -3.10331,-2.34302 -6.01988,-3.85088 -6.67063,-3.4487 -0.63598,0.39306 -1.5396,0.0945 -2.00805,-0.66346 C 190.31487,194.89144 187.77993,194.5 182,194.5 c -5.64273,0 -8.32064,0.40078 -8.89576,1.33134 -0.61936,1.00215 -3.45796,1.26584 -11.47996,1.06643 -7.1969,-0.1789 -11.04143,0.11938 -11.84071,0.91866 -0.65096,0.65096 -1.51773,1.18357 -1.92615,1.18357 -0.40842,0 -0.56495,-0.92238 -0.34784,-2.04974 0.21711,-1.12736 -0.14623,-2.22519 -0.80742,-2.43962 -0.66119,-0.21444 -3.22716,-0.65131 -5.70216,-0.97082 -2.49204,-0.32172 -6.39735,-0.0279 -8.7521,0.65855 -2.33865,0.68173 -4.48846,1.98422 -4.77736,2.89444 -0.28889,0.91021 -3.21294,4.21856 -6.4979,7.35187 C 117.68769,207.578 115,210.48131 115,210.8965 c 0,0.41518 -1.13214,1.81846 -2.51587,3.11841 -1.38373,1.29995 -3.69166,4.41589 -5.12873,6.92431 -1.43708,2.50843 -4.46744,6.25381 -6.73413,8.32308 -2.2667,2.06926 -5.69627,4.20425 -7.62127,4.74442 -1.925,0.54017 -5.38186,0.98464 -7.68191,0.9877 z M 264,154.91612 c 0.275,0.0116 1.2534,-1.01678 2.17423,-2.28521 0.92083,-1.26842 1.97962,-3.93409 2.35287,-5.9237 0.62415,-3.327 0.46395,-3.67135 -1.99514,-4.28854 -1.47058,-0.3691 -4.55437,-0.43959 -6.85287,-0.15666 -2.2985,0.28293 -6.86448,0.19274 -10.14661,-0.20043 -3.66915,-0.43953 -9.06122,-0.2116 -14,0.59179 -4.41787,0.71865 -11.18248,1.2997 -15.03248,1.2912 -4.20808,-0.009 -7.99711,-0.58544 -9.5,-1.44457 -1.375,-0.78602 -4.93814,-1.44508 -7.91809,-1.46456 -2.97994,-0.0195 -8.37994,-0.53111 -12,-1.13692 -4.01142,-0.67131 -8.11067,-2.13583 -10.49641,-3.75 -2.82374,-1.91052 -5.19223,-2.64852 -8.5,-2.64852 -2.52203,0 -6.8599,0.98711 -9.63972,2.19357 -4.48373,1.94598 -6.99516,2.21426 -22.25,2.37679 C 130.7381,138.17112 123,138.55345 123,138.91999 c 0,0.36653 1.4625,1.09698 3.25,1.62321 1.7875,0.52624 3.21786,1.4068 3.17857,1.9568 -0.0393,0.55 0.51976,1.59119 1.24233,2.31376 0.72257,0.72256 1.68119,1.08667 2.13028,0.80912 0.44908,-0.27755 3.49004,-0.53143 6.75767,-0.56417 3.26763,-0.0327 7.62462,-0.0773 9.68219,-0.0991 2.05757,-0.0218 4.65437,0.44923 5.77066,1.04665 1.1163,0.59743 2.54015,0.77071 3.16412,0.38508 0.62397,-0.38564 4.32162,-0.59778 8.217,-0.47144 3.89539,0.12634 7.53807,0.60762 8.09485,1.06952 0.55678,0.4619 3.03733,1.21574 5.51233,1.6752 2.475,0.45946 13.79788,0.68326 25.16195,0.49733 20.2416,-0.33117 20.70719,-0.29281 22.88537,1.88537 2.06424,2.06424 3.25182,2.24132 16.58805,2.47344 9.14516,0.15917 14.36463,-0.11602 14.36463,-0.75735 0,-0.55404 1.0125,-0.30107 2.25,0.56217 1.2375,0.86323 2.475,1.57898 2.75,1.59054 z"
     id="path2989"
     inkscape:connector-curvature="0" />
</svg>
