<?xml version="1.0" encoding="UTF-8" standalone="no"?>
<!-- Created with Inkscape (http://www.inkscape.org/) -->

<svg
   xmlns:dc="http://purl.org/dc/elements/1.1/"
   xmlns:cc="http://creativecommons.org/ns#"
   xmlns:rdf="http://www.w3.org/1999/02/22-rdf-syntax-ns#"
   xmlns:svg="http://www.w3.org/2000/svg"
   xmlns="http://www.w3.org/2000/svg"
   xmlns:sodipodi="http://sodipodi.sourceforge.net/DTD/sodipodi-0.dtd"
   xmlns:inkscape="http://www.inkscape.org/namespaces/inkscape"
   id="svg2"
   version="1.1"
   inkscape:version="0.48.2 r9819"
   width="1968.9673"
   height="2140.98"
   sodipodi:docname="benitaafricanrom00haggrich_0353bk.png">
  <metadata
     id="metadata8">
    <rdf:RDF>
      <cc:Work
         rdf:about="">
        <dc:format>image/svg+xml</dc:format>
        <dc:type
           rdf:resource="http://purl.org/dc/dcmitype/StillImage" />
        <dc:title></dc:title>
      </cc:Work>
    </rdf:RDF>
  </metadata>
  <defs
     id="defs6" />
  <sodipodi:namedview
     pagecolor="#ffffff"
     bordercolor="#666666"
     borderopacity="1"
     objecttolerance="10"
     gridtolerance="10"
     guidetolerance="10"
     inkscape:pageopacity="0"
     inkscape:pageshadow="2"
     inkscape:window-width="1600"
     inkscape:window-height="876"
     id="namedview4"
     showgrid="false"
     fit-margin-top="0"
     fit-margin-left="0"
     fit-margin-right="0"
     fit-margin-bottom="0"
     inkscape:zoom="0.5"
     inkscape:cx="734.67583"
     inkscape:cy="1557.5201"
     inkscape:window-x="0"
     inkscape:window-y="24"
     inkscape:window-maximized="1"
     inkscape:current-layer="svg2" />
  <path
     style="fill:#000000"
     d="m 740.17583,2140.4446 c -3.3,-0.2012 -6.4275,-0.7911 -6.95,-1.3109 -0.5225,-0.5198 -1.6903,-0.9451 -2.595,-0.9451 -0.9048,0 -2.4299,-0.8672 -3.3891,-1.9271 -0.9592,-1.06 -3.4639,-2.2178 -5.5659,-2.5729 -2.10204,-0.3551 -4.6067,-1.5129 -5.56593,-2.5729 -0.95922,-1.0599 -2.31995,-1.9271 -3.02384,-1.9271 -1.96518,0 -12.32327,-10.8054 -13.02029,-13.5825 -0.33948,-1.3526 -2.18555,-3.752 -4.10238,-5.332 -1.91683,-1.58 -4.45319,-4.4502 -5.63636,-6.3781 -2.16315,-3.5248 -10.05994,-10.4887 -16.11077,-14.2074 -1.78984,-1.1 -4.48925,-3.125 -5.99869,-4.5 -5.35368,-4.8768 -6.11972,-5.5335 -10.05935,-8.6237 -4.78856,-3.756 -11.85971,-6.7241 -19.98239,-8.3876 -3.3,-0.6759 -7.41801,-1.8498 -9.15113,-2.6088 -1.73312,-0.7589 -3.61109,-1.3799 -4.17327,-1.3799 -0.56218,0 -2.29418,-1.0617 -3.84887,-2.3593 -1.5547,-1.2976 -4.19567,-3.0608 -5.86881,-3.9182 -1.67314,-0.8573 -5.24058,-3.3756 -7.92765,-5.596 -2.68706,-2.2205 -7.4257,-5.3911 -10.53031,-7.0458 -10.03381,-5.348 -21.99996,-21.1398 -21.99996,-29.0335 0,-1.5825 -1.02963,-3.6659 -2.48952,-5.0374 -2.33615,-2.1947 -2.60283,-2.2362 -4.32874,-0.6743 -1.01157,0.9155 -2.83451,1.6645 -4.05097,1.6645 -1.21647,0 -3.47886,0.9368 -5.02753,2.0818 -5.85586,4.3294 -17.88365,3.5025 -22.04852,-1.5159 -0.71478,-0.8612 -2.06607,-1.5659 -3.00285,-1.5659 -0.93678,0 -2.76012,-1.125 -4.05187,-2.5 -1.29175,-1.375 -3.05769,-2.5143 -3.92431,-2.5318 -0.86663,-0.017 -2.4492,-0.6925 -3.51682,-1.5 -1.06762,-0.8075 -3.17856,-1.4682 -4.69098,-1.4682 -1.51242,0 -3.00851,-0.4185 -3.32464,-0.93 -0.31612,-0.5115 -3.15518,-1.242 -6.30901,-1.6234 -3.15383,-0.3814 -6.29438,-1.141 -6.97899,-1.6881 -1.85651,-1.4835 -46.54748,-1.5741 -48.34337,-0.098 -0.77653,0.6383 -3.10435,1.4768 -5.17293,1.8634 -2.06857,0.3865 -4.00763,1.1018 -4.30901,1.5895 -0.30139,0.4876 -1.25963,0.8866 -2.12943,0.8866 -0.86979,0 -3.65574,0.9598 -6.19098,2.133 -2.53524,1.1731 -6.85953,3.1767 -9.60953,4.4524 -2.75,1.2756 -6.35,2.6407 -8,3.0335 -1.65,0.3929 -4.91212,1.7285 -7.24916,2.968 -2.33703,1.2396 -5.62984,2.5571 -7.31736,2.9277 -1.68751,0.3706 -4.27539,1.3037 -5.75084,2.0735 -1.47545,0.7698 -3.25125,1.4024 -3.94621,1.4057 -1.34695,0.01 -2.3841,0.4502 -8.84124,3.7812 -2.25764,1.1647 -6.38813,2.4205 -9.17887,2.7907 -4.41444,0.5856 -6.35079,0.1777 -14.89519,-3.1377 -5.40162,-2.0959 -10.66232,-4.5121 -11.69043,-5.3694 -1.02812,-0.8572 -4.57717,-5.053 -7.88677,-9.3239 -3.3096,-4.2709 -6.96841,-8.0022 -8.13069,-8.2919 -4.12095,-1.0269 -23.21559,0.2989 -30.11324,2.0909 -17.83828,4.6344 -24.25853,8.5906 -26.59459,16.3877 -0.97559,3.2562 -0.89622,4.8105 0.45695,8.9476 0.9007,2.7537 1.63764,6.3241 1.63764,7.934 0,1.61 0.83138,4.0005 1.84751,5.3121 1.01613,1.3117 2.16079,3.6666 2.5437,5.2331 0.85658,3.5044 8.07188,10.2391 14.82291,13.8357 2.77084,1.4761 6.66869,3.9941 8.66189,5.5955 1.99319,1.6015 4.97399,3.6122 6.62399,4.4683 1.65,0.8562 6.04143,4.2452 9.75873,7.5312 3.74316,3.3089 8.1097,6.2448 9.78665,6.5802 1.66535,0.333 4.8079,2.036 6.98343,3.7843 3.7778,3.0359 4.39388,3.1885 13.71335,3.3966 10.95874,0.2447 16.16814,2.2098 17.26763,6.5138 0.78972,3.0914 0.57263,13.8012 -0.33337,16.4462 -0.86145,2.5149 -6.70447,6.4063 -13.03532,8.6815 -3.86357,1.3885 -6.83383,1.6356 -14.5,1.2066 -17.34732,-0.9708 -25.24238,-1.0332 -25.75499,-0.2038 -0.27728,0.4486 -5.17603,0.8157 -10.88611,0.8157 -6.68173,0 -10.63263,0.4056 -11.08526,1.138 -0.85226,1.3789 -27.36959,0.2767 -28.86474,-1.1998 -0.5225,-0.516 -1.69026,-0.9382 -2.59501,-0.9382 -0.90476,0 -2.42984,-0.8672 -3.38906,-1.9271 -0.95923,-1.06 -3.46389,-2.2178 -5.56593,-2.5729 -2.10204,-0.3551 -4.6067,-1.5129 -5.56593,-2.5729 -0.95922,-1.0599 -2.41863,-1.9271 -3.24313,-1.9271 -0.8245,0 -3.07087,-1.8363 -4.99194,-4.0806 -1.92106,-2.2443 -4.53902,-4.4784 -5.81767,-4.9645 -1.27866,-0.4862 -2.94954,-2.3624 -3.71308,-4.1694 -0.76354,-1.807 -2.65934,-4.5447 -4.21289,-6.0838 -4.03028,-3.9926 -17.66874,-11.0539 -26.45536,-13.6972 -4.125,-1.2409 -10.03127,-3.3246 -13.12505,-4.6304 -3.09377,-1.3057 -6.59076,-2.3741 -7.77108,-2.3741 -1.18032,0 -5.39905,-0.8701 -9.37495,-1.9335 -3.97591,-1.0635 -13.77675,-2.5829 -21.77966,-3.3765 -11.63263,-1.1535 -15.66292,-1.969 -20.09649,-4.0664 -3.05016,-1.443 -6.10651,-2.6236 -6.79188,-2.6236 -1.88364,0 -10.53349,-7.0789 -12.99009,-10.6309 -1.19095,-1.722 -5.53668,-5.997 -9.657185,-9.5 -4.54535,-3.8642 -7.69252,-7.3523 -8.00214,-8.8691 -0.28069,-1.375 -1.04877,-4.3 -1.70685,-6.5 -2.40212,-8.0304 -0.5543,-19.9427 3.80042,-24.5 3.10596,-3.2505 5.53431,-9.1335 4.85008,-11.75 -0.61564,-2.3542 -3.0298,-3.2168 -9.05808,-3.2363 -2.31162,-0.01 -5.34912,-0.5359 -6.75,-1.1742 -1.97498,-0.8999 -3.16471,-0.8696 -5.29705,0.1346 -7.78827,3.668 -19.57944,7.3239 -26.25,8.1389 -14.38904,1.758 -20.8066,2.0946 -22.4459,1.1772 -1.0235,-0.5728 -3.54774,-0.5353 -6.64198,0.099 -9.4565,1.9372 -17.3655998,-3.3594 -19.99279979,-13.3887 -1.29558,-4.9459 -0.84259,-6.4127 5.09554999,-16.5 1.61886,-2.75 4.14748,-8.15 5.6191598,-12 1.47167,-3.85 3.28106,-7.8876 4.02087,-8.9725 0.95203,-1.3966 1.3451,-5.6711 1.3451,-14.6281 0,-9.7945 0.32549,-12.9251 1.43997,-13.8501 0.79198,-0.6573 1.57948,-2.1706 1.75,-3.3631 0.17051,-1.1924 1.54753,-2.7592 3.06003,-3.4819 1.5125,-0.7227 2.75,-1.8802 2.75,-2.5723 0,-0.6921 1.35,-2.5517 3,-4.1325 1.65,-1.5808 3,-3.4689 3,-4.1958 0,-0.7268 1.35,-3.1851 3,-5.4629 1.65,-2.2778 3,-5.1438 3,-6.3689 0,-1.2251 0.675,-2.7877 1.5,-3.4724 1.27831,-1.0609 1.5,-6.1599 1.5,-34.5 0,-28.3401 0.22169,-33.4391 1.5,-34.5 1.16319,-0.9654 1.5,-3.6599 1.5,-12 0,-8.3401 0.33681,-11.0346 1.5,-12 0.9485,-0.7872 1.5,-2.9932 1.5,-6 0,-3.0068 0.5515,-5.2128 1.5,-6 0.825,-0.6847 1.5,-2.0347 1.5,-3 0,-0.9653 0.675,-2.3153 1.5,-3 0.825,-0.6847 1.5,-1.8166 1.5,-2.5155 0,-0.6988 0.675,-1.5295 1.5,-1.8461 1.07824,-0.4138 1.5,-2.1008 1.5,-6 0,-3.8992 0.42176,-5.5863 1.5,-6 1.15664,-0.4439 1.5,-2.3683 1.5,-8.407 0,-4.3073 0.38242,-8.2589 0.84982,-8.7814 0.46741,-0.5225 3.80506,-7.25 7.417,-14.95 12.33782,-26.302 17.77334,-37.3467 18.54043,-37.6734 1.37215,-0.5844 5.88871,-9.2441 6.50127,-12.4651 0.32828,-1.7261 2.66444,-7.7388 5.19148,-13.3615 7.079075,-15.751 7.201655,-19.5738 0.734,-22.8905 -7.50869,-3.8506 -10.34753,-9.0555 -7.71528,-14.1457 0.90156,-1.7434 1.49748,-4.8576 1.3419,-7.0124 -0.21082,-2.9199 0.28623,-4.4788 2.01458,-6.3186 1.59433,-1.697 2.22763,-3.463 2.07547,-5.7875 -0.25145,-3.8414 3.16815,-11.7405 7.181245,-16.5884 2.7485,-3.3203 4.11778,-7.0996 4.24283,-11.7107 0.0693,-2.5563 0.69864,-4.9736 1.40913,-5.4127 0.70613,-0.4363 1.00209,-1.5277 0.65768,-2.4252 -0.3444,-0.8975 0.12737,-3.1115 1.04838,-4.9201 0.92101,-1.8085 2.58485,-6.8882 3.69741,-11.2882 1.11256,-4.4 2.42555,-8.4275 2.91775,-8.95 0.4922,-0.5225 0.89491,-1.6179 0.89491,-2.4343 0,-0.8163 0.85469,-3.3138 1.8993,-5.55 1.04462,-2.2361 2.4487,-6.4665 3.12018,-9.4009 0.98377,-4.299 1.5617,-5.2461 2.97572,-4.8763 3.12012,0.8159 5.23573,-5.5355 5.49707,-16.5032 0.15734,-6.6034 0.71051,-10.4466 1.72721,-12 0.82266,-1.2569 2.22197,-4.7854 3.1096,-7.8411 0.88762,-3.0556 2.97896,-8.1139 4.64741,-11.2405 1.66846,-3.1266 4.12291,-8.5789 5.45434,-12.1162 1.33144,-3.5373 3.13064,-7.5148 3.99822,-8.8389 0.86759,-1.3241 2.29389,-4.8467 3.16954,-7.828 0.87566,-2.9813 2.49293,-6.8945 3.59394,-8.6959 2.61689,-4.2816 4.94222,-12.4648 5.32079,-18.7247 0.44271,-7.3206 4.41499,-13.8637 13.80208,-22.7344 l 8.1846,-7.7345 -4.22603,0.6084 c -3.87091,0.5573 -4.52214,0.3123 -7.75,-2.9155 -3.88858,-3.8886 -4.37997,-6.7025 -2.08506,-11.9401 0.7914,-1.8061 1.72269,-4.6119 2.06953,-6.235 0.34683,-1.6231 2.59532,-4.9158 4.99662,-7.3171 3.67408,-3.6741 4.63711,-5.5044 6.07665,-11.5489 0.94086,-3.9506 2.38524,-8.5768 3.20975,-10.2804 1.0976,-2.2679 1.35775,-5.073 0.97136,-10.4733 -0.49634,-6.937 -0.32651,-7.7617 2.85472,-13.8631 1.86035,-3.5679 3.38246,-7.0532 3.38246,-7.7449 0,-1.6177 7.60984,-17.2155 9.39814,-19.2632 0.74837,-0.8569 2.15313,-3.133 3.12167,-5.058 0.96855,-1.925 2.62534,-4.4 3.68176,-5.5 1.05642,-1.1 4.81606,-5.6 8.35475,-10 3.53868,-4.4 7.56116,-9.1155 8.93883,-10.479 2.84388,-2.8145 3.09294,-4.8603 1.14064,-9.3699 -0.75031,-1.7331 -1.83651,-6.1978 -2.41377,-9.9214 -1.08127,-6.9749 -0.5306,-11.0765 2.33018,-17.356 0.96884,-2.1267 1.60164,-8.6306 1.97896,-20.3399 0.30509,-9.4675 0.99928,-19.5356 1.54266,-22.3737 0.54339,-2.838 1.21397,-22.4851 1.49019,-43.6601 0.27622,-21.175 0.9318,-40.075 1.45685,-42 0.52506,-1.925 1.97266,-5.0464 3.21689,-6.9364 4.64545,-7.0564 5.69557,-9.0636 4.74193,-9.0636 -2.07997,0 -0.98069,-5.854 1.45975,-7.7737 2.29243,-1.8032 2.33763,-2.0222 0.75,-3.6337 -1.54617,-1.5694 -1.55326,-1.8161 -0.0835,-2.9086 1.23539,-0.9183 1.35542,-1.5909 0.52023,-2.9149 -0.82522,-1.3083 -0.6707,-2.4236 0.64409,-4.6494 0.95138,-1.6106 1.74408,-3.9839 1.76157,-5.274 0.0175,-1.2901 0.6925,-3.2192 1.5,-4.2868 0.80751,-1.0677 1.4682,-3.4036 1.4682,-5.191 0,-1.7874 0.45,-3.528 1,-3.8679 0.55,-0.3399 1.00277,-2.054 1.00616,-3.809 0.003,-1.7551 0.64775,-4.4209 1.43191,-5.9241 0.78416,-1.5032 1.04288,-2.9697 0.57493,-3.2589 -1.07993,-0.6674 1.77636,-6.508 3.18269,-6.508 0.67961,0 0.64073,-0.4922 -0.11037,-1.3972 -0.89989,-1.0843 -0.7053,-2.148 0.86896,-4.75 1.11569,-1.844 2.2938,-4.0278 2.61802,-4.8528 0.32423,-0.825 2.12809,-4.6911 4.0086,-8.59125 1.8805,-3.9002 3.4191,-7.6898 3.4191,-8.4213 0,-0.7314 0.63408,-2.0404 1.40908,-2.9087 2.15845,-2.4183 6.35458,-10.7262 7.07556,-14.00876 0.35415,-1.61246 1.28999,-3.46794 2.07964,-4.12329 0.78965,-0.65535 1.43572,-1.77497 1.43572,-2.48806 0,-0.71308 0.64747,-2.57048 1.43882,-4.12755 2.3083,-4.54188 4.56116,-10.04965 4.56116,-11.15113 0,-0.55981 0.64747,-2.2918 1.43882,-3.84887 2.30832,-4.54188 4.56118,-10.04965 4.56118,-11.15113 0,-0.55981 0.75114,-2.5168 1.6692,-4.34887 0.91806,-1.83207 2.00999,-4.05948 2.42652,-4.94981 0.41652,-0.89032 1.07303,-4.94032 1.4589,-9 0.38587,-4.05967 1.05182,-7.83123 1.47989,-8.38123 0.42808,-0.55 1.1022,-3.25 1.49805,-6 0.39585,-2.75 1.05134,-5.45 1.45664,-6 0.4053,-0.55 1.01413,-4.11809 1.35295,-7.9291 0.33883,-3.811 1.07545,-7.3885 1.63695,-7.95 0.56149,-0.56149 1.0209,-2.05753 1.0209,-3.32452 0,-1.267 0.9,-3.98283 2,-6.0352 1.1,-2.05236 2,-4.50191 2,-5.44346 0,-0.94154 1.125,-3.82773 2.5,-6.41374 2.49808,-4.69825 3.2972,-11.16078 1.60182,-12.95398 -0.494,-0.5225 -1.20364,-3.25738 -1.57699,-6.07751 -0.63016,-4.75999 -0.45826,-5.37871 2.39818,-8.63202 1.69234,-1.92747 3.07699,-4.23259 3.07699,-5.12249 0,-0.88989 0.7301,-1.61798 1.62244,-1.61798 1.3377,0 1.40123,-0.26655 0.36199,-1.51876 -1.01906,-1.22789 -0.99463,-1.85031 0.12756,-3.25 2.36465,-2.94938 3.88801,-6.12118 3.88801,-8.09523 0,-1.04011 0.675,-2.45132 1.5,-3.13601 0.825,-0.68469 1.5,-1.80969 1.5,-2.5 0,-0.69031 0.675,-1.81531 1.5,-2.5 0.825,-0.68469 1.5,-2.0291 1.5,-2.98759 0,-0.95848 0.9,-2.88686 2,-4.28528 1.1,-1.39842 2,-3.08677 2,-3.75188 0,-0.66511 1.8,-2.95613 4,-5.09116 3.9142,-3.79861 4.92158,-6.19649 3.08109,-7.33398 -0.96386,-0.59569 1.34112,-6.07498 2.98223,-7.08925 0.51518,-0.31839 0.93945,-1.56484 0.94284,-2.76988 0.003,-1.20504 0.68259,-3.48802 1.50934,-5.07329 0.82675,-1.58527 1.78676,-4.65571 2.13335,-6.82321 0.43676,-2.73134 1.50813,-4.59 3.49067,-6.05575 1.57326,-1.16317 2.86048,-2.86108 2.86048,-3.77315 0,-2.26249 3.03379,-8.28303 4.66883,-9.26527 0.73214,-0.43983 1.33117,-2.30366 1.33117,-4.14185 0,-2.52105 1.05882,-4.53571 4.30975,-8.20031 3.57931,-4.03477 4.3338,-5.59844 4.45171,-9.22606 0.0781,-2.40235 0.7262,-5.10235 1.44026,-6 2.00562,-2.52129 3.79828,-5.97653 3.79828,-7.32091 0,-0.66878 1.40332,-2.66383 3.11849,-4.43343 2.54436,-2.62512 3.16959,-4.16449 3.39604,-8.36135 0.28089,-5.20588 2.09795,-7.8637 5.48547,-8.0236 1.7412,-0.0822 7.75432,-7.85191 10.13471,-13.09535 0.89951,-1.9814 3.53877,-4.9064 5.86502,-6.5 5.56752,-3.81402 8.60015,-6.69946 7.43777,-7.07675 -0.51563,-0.16736 -4.7625,0.32553 -9.4375,1.09531 -7.30201,1.20234 -8.65648,1.20118 -9.61024,-0.008 -0.61064,-0.77429 -2.41064,-1.42211 -4,-1.4396 -3.20045,-0.0354 -6.38976,-2.00453 -6.38976,-3.94528 0,-0.78539 -0.79,-1.0498 -2.10732,-0.70532 -2.97587,0.77821 -6.99153,-0.9798 -7.60608,-3.32985 -0.28592,-1.09338 -1.08728,-1.98796 -1.78079,-1.98796 -0.6935,0 -1.84709,-0.70629 -2.56351,-1.56952 -0.71642,-0.86324 -2.12107,-1.35549 -3.12145,-1.09388 -2.53018,0.66166 -3.38956,-1.20026 -1.2695,-2.75049 1.22302,-0.8943 1.40413,-1.49559 0.60014,-1.99248 -0.63332,-0.39142 -1.15149,-1.75501 -1.15149,-3.0302 0,-1.2752 -0.65061,-2.8585 -1.4458,-3.51845 -1.09722,-0.91061 -1.20781,-1.82585 -0.4587,-3.79617 0.5429,-1.42794 0.71717,-3.82524 0.38725,-5.32733 -0.32991,-1.5021 -0.20074,-2.97774 0.28705,-3.27921 0.4878,-0.30147 0.9394,-2.85296 1.00357,-5.66997 0.19506,-8.56361 2.2302,-15.74462 4.97107,-17.54051 1.89821,-1.24375 2.29317,-2.1458 1.79997,-4.11088 -0.46121,-1.8376 0.0781,-3.4483 1.99703,-5.96413 2.11778,-2.77656 2.3941,-3.72952 1.42127,-4.90171 -0.94709,-1.14117 -0.93849,-1.45507 0.0399,-1.45507 0.84162,0 1.05976,-0.93842 0.67052,-2.88462 -0.51516,-2.57579 -0.2609,-2.94782 2.375,-3.475 1.62355,-0.32471 2.95192,-1.22153 2.95192,-1.99294 0,-0.7714 0.675,-1.96275 1.5,-2.64744 0.825,-0.68469 1.5,-2.30442 1.5,-3.59939 0,-1.40799 1.00501,-3.01301 2.5,-3.99257 1.375,-0.90093 2.5,-2.26131 2.5,-3.02305 0,-0.76174 0.675,-1.38499 1.5,-1.38499 0.825,0 1.5,-0.87344 1.5,-1.94098 0,-1.06754 0.45,-2.2191 1,-2.55902 0.55,-0.33992 1,-1.26648 1,-2.05902 0,-0.79254 0.9,-2.34098 2,-3.44098 1.1582,-1.1582 2.01339,-3.36792 2.0318,-5.25 0.0175,-1.7875 0.6925,-4.12351 1.5,-5.19113 0.80751,-1.06762 1.4682,-3.19143 1.4682,-4.71958 0,-1.52815 0.96796,-4.47964 2.15103,-6.55887 1.63629,-2.87577 2.11492,-5.27403 2.00013,-10.02203 -0.12705,-5.25507 0.16519,-6.43901 1.84897,-7.49054 1.51269,-0.94469 2.00529,-2.34747 2.02211,-5.7584 0.0144,-2.9293 0.70747,-5.38547 1.97776,-7.00945 1.07554,-1.375 1.96553,-3.4574 1.97776,-4.62756 0.0122,-1.17015 0.69724,-2.68775 1.52224,-3.37244 0.825,-0.68469 1.5,-2.05713 1.5,-3.04986 0,-0.99274 1.0125,-2.62514 2.25,-3.62756 1.2375,-1.00242 2.36616,-2.8857 2.50814,-4.18506 0.14198,-1.29937 1.37948,-3.24453 2.75,-4.32258 1.37052,-1.07806 2.49186,-2.73744 2.49186,-3.68752 0,-2.24994 1.89382,-4.10539 3.54398,-3.47217 1.90886,0.7325 7.45602,-4.62277 7.45602,-7.1981 0,-2.61739 1.50339,-4.04342 5.25559,-4.98516 1.80015,-0.45181 2.74441,-1.34924 2.74441,-2.6083 0,-2.30411 23.47444,-26.24897 26.75,-27.28607 1.2375,-0.39182 2.25,-1.3436 2.25,-2.11507 0,-0.77147 1.36221,-2.4098 3.02713,-3.64073 1.66492,-1.23093 2.80404,-2.8194 2.53138,-3.52993 -0.29681,-0.77349 0.25854,-1.29189 1.38398,-1.29189 1.03385,0 3.09224,-1.4625 4.5742,-3.25 5.47767,-6.60699 18.92406,-17.71774 21.48331,-17.75165 1.64904,-0.0218 4.71249,-2.09595 9,-6.09344 3.575,-3.33318 7.35915,-6.68041 8.40923,-7.4383 1.46459,-1.05705 1.64699,-1.69395 0.78321,-2.73474 -0.86986,-1.04811 -0.44746,-2.17997 1.85677,-4.97541 1.7245,-2.09211 2.55888,-3.88064 1.97791,-4.2397 -0.63958,-0.39528 -0.49235,-1.42004 0.405,-2.81891 1.20951,-1.88547 1.21258,-3.31471 0.0216,-10.05591 -0.76353,-4.32193 -1.89016,-8.46284 -2.50362,-9.20201 -0.61346,-0.73918 -0.8349,-2.22768 -0.49209,-3.30779 0.34281,-1.0801 0.12576,-2.27132 -0.48235,-2.64715 -0.6081,-0.37583 -1.01065,-1.8762 -0.89456,-3.33416 0.1161,-1.45796 -0.33917,-4.00083 -1.01171,-5.65083 -0.7874,-1.93181 -0.89082,-3.53598 -0.29047,-4.50529 0.59639,-0.9629 0.53394,-2.1442 -0.17332,-3.27847 -0.84097,-1.3487 -0.78086,-1.97582 0.25111,-2.61971 0.91286,-0.56956 1.00537,-1.0637 0.28276,-1.5103 -0.62067,-0.3836 -0.81548,-1.95644 -0.46152,-3.72622 0.38649,-1.93247 0.16206,-3.34083 -0.60826,-3.81691 -2.78438,-1.72084 -3.60721,-25.53903 -1.0897,-31.5431 0.46123,-1.1 1.08291,-2.76828 1.38151,-3.7073 0.2986,-0.93901 2.47691,-2.90392 4.84068,-4.36646 2.36377,-1.46254 5.98527,-4.27308 8.04777,-6.24565 2.0625,-1.97257 3.75,-3.21506 3.75,-2.76109 0,0.45396 0.6219,0.30926 1.38199,-0.32156 1.74447,-1.44778 15.0009,-3.1319 15.45134,-1.96297 0.45901,1.19117 4.54145,1.09025 5.77445,-0.14275 0.67704,-0.67704 3.24056,-0.45678 7.81116,0.67113 5.3696,1.32508 7.204,1.42871 8.70431,0.49176 1.0455,-0.65293 2.97139,-0.91848 4.27974,-0.5901 1.30835,0.32837 2.68631,0.0995 3.06213,-0.50858 0.43527,-0.70428 2.38256,-0.88021 5.36435,-0.48466 4.60012,0.61022 23.71123,-1.16704 25.67053,-2.38727 0.55,-0.34254 1.96952,-0.4976 3.15449,-0.3446 1.18497,0.15301 2.42255,-0.15554 2.75019,-0.68567 0.32764,-0.53013 2.39131,-0.72302 4.58594,-0.42866 2.19464,0.29436 4.55705,0.0918 5.24981,-0.45009 2.83522,-2.21784 8.87702,-3.51212 19.93535,-4.27058 10.73243,-0.7361 16.0481,-1.73444 21.32422,-4.0049 1.1,-0.47336 3.8,-1.39539 6,-2.04895 2.2,-0.65356 5.41177,-2.52402 7.13727,-4.15658 2.08167,-1.96954 3.37339,-2.58623 3.83903,-1.83282 0.51087,0.82661 1.06134,0.83704 2.0237,0.0384 0.96012,-0.79683 1.50922,-0.7941 2.00617,0.01 1.55385,2.51418 10.85909,-1.47475 11.79576,-5.05656 0.33727,-1.28974 1.37198,-1.95343 3.04543,-1.95343 1.39403,0 2.81726,-0.45734 3.16272,-1.01631 0.34546,-0.55897 0.99236,-0.7912 1.43756,-0.51605 1.44906,0.89557 7.21595,-2.59895 6.66374,-4.03798 -0.29382,-0.7657 0.7675,-2.27532 2.43379,-3.46183 1.62518,-1.15721 2.95488,-2.94682 2.95488,-3.97691 0,-1.03009 0.45,-2.151 1,-2.49092 2.4449,-1.51105 0.4969,-10.25955 -3.15191,-14.15519 -1.11024,-1.18535 -2.62477,-3.88535 -3.3656,-6 -1.25182,-3.57321 -1.19282,-4.00013 0.83524,-6.0435 1.58072,-1.59264 3.62627,-2.28174 7.42097,-2.5 3.0202,-0.17371 5.442,-0.83067 5.7186,-1.55131 0.8067,-2.10133 8.7075,-0.87022 13.3016,2.07264 0.6924,0.44355 2.1571,0.52138 3.2549,0.17296 1.3229,-0.41987 2.199,-0.10442 2.5981,0.93545 0.4439,1.15689 2.0184,1.56895 5.995,1.56895 l 5.3931,0 0,-3.5 c 0,-1.925 0.45,-3.5 1,-3.5 0.5499,0 1,-0.675 1,-1.5 0,-0.825 0.45,-1.5 1,-1.5 0.5499,0 1,-0.68614 1,-1.52475 0,-1.70611 4.5288,-3.91091 7.3096,-3.5586 0.9953,0.1261 2.4393,-0.29337 3.209,-0.93214 0.7942,-0.6591 2.6207,-0.89318 4.2231,-0.54122 2.5624,0.56279 6.5509,-0.66359 11.2583,-3.46174 0.825,-0.49039 3.9749,-2.32403 7,-4.07475 3.025,-1.75072 6.5731,-4.02095 7.8848,-5.04496 1.3117,-1.02401 3.6476,-1.86184 5.191,-1.86184 1.5434,0 3.0183,-0.34328 3.2776,-0.76284 0.2593,-0.41956 5.7953,-0.44884 12.3022,-0.0651 10.1684,0.59973 12.0829,0.46947 13.6261,-0.92707 1.2453,-1.12695 4.618,-1.81964 11.0068,-2.2606 9.0517,-0.62476 18.7115,-3.71507 18.7115,-5.9861 0,-2.05446 7.3996,-4.56837 11.47,-3.89674 3.9967,0.65949 8.53,-0.60467 8.53,-2.3787 0,-0.52584 1.1357,-0.73895 2.5239,-0.4736 1.3881,0.26536 2.7646,0.0928 3.059,-0.38342 0.9339,-1.51112 6.2318,-0.93581 9.7909,1.06323 1.889,1.06101 3.7269,1.63688 4.084,1.27969 0.9106,-0.91055 7.8429,-0.23737 8.9922,0.87322 0.5225,0.50488 2.4084,0.91797 4.191,0.91797 1.7825,0 3.5326,0.47185 3.889,1.04856 0.4363,0.70589 1.1532,0.62932 2.1938,-0.23433 1.0194,-0.84597 4.9908,-1.30599 11.661,-1.35072 11.4857,-0.077 15.2117,-1.34103 17.5789,-5.96351 0.845,-1.65 1.8738,-3.15 2.2863,-3.33333 0.4125,-0.18334 0.75,-1.64584 0.75,-3.25 0,-1.60417 0.3402,-2.91667 0.7559,-2.91667 0.4157,0 1.3195,-1.27331 2.0084,-2.82957 1.0389,-2.34712 0.9917,-3.35219 -0.2767,-5.89477 -0.841,-1.68587 -2.2003,-3.62227 -3.0207,-4.30311 -1.0366,-0.86032 -1.1834,-1.60926 -0.4811,-2.4554 1.2932,-1.55822 -1.5281,-7.51715 -3.559,-7.51715 -0.7848,0 -1.4268,-0.45 -1.4268,-1 0,-0.55 -1.575,-1 -3.5,-1 -3.4837,0 -4.1344,-0.59486 -2.7347,-2.5 1.3614,-1.852993 4.8053,-3.263583 12.2891,-5.033523 7.1806,-1.69823 11.9456,-4.50076 11.9456,-7.02578 0,-0.66588 -1.0315,-1.88652 -2.2921,-2.71255 -1.8903,-1.23854 -2.7231,-1.28275 -4.75,-0.25214 -1.3519,0.68734 -4.3279,1.53495 -6.6134,1.88356 -3.9315,0.59968 -4.1261,0.51274 -3.609,-1.61286 0.7965,-3.27424 3.2611,-5.74671 5.7284,-5.74671 1.1846,0 3.0274,-0.66069 4.095,-1.4682 2.2068,-1.66916 7.4411,-2.04325 7.4411,-0.5318 0,1.8578 2.0979,1.01614 4.8064,-1.92829 1.4815,-1.61055 3.9898,-3.24908 5.5741,-3.64117 1.6016,-0.39635 3.1025,-1.561618 3.3804,-2.624405 0.4564,-1.744956 10.1615,-8.806135 12.10347,-8.806135 0.4541,0 1.5854,-0.8395 2.5139,-1.865555 1.2801,-1.414445 1.5311,-2.849036 1.038,-5.932728 -0.6441,-4.027747 -0.6162,-4.073593 2.8797,-4.729426 1.9416,-0.364239 4.3869,-0.39033 5.434,-0.05798 1.2674,0.402244 2.6657,-0.206621 4.1825,-1.82113 l 2.2785,-2.425403 -5.3455,-0.630065 c -2.94,-0.346535 -8.383,-0.433715 -12.0955,-0.193732 -3.86117,0.249593 -6.74997,0.03353 -6.74997,-0.504851 0,-0.73724 5.06677,-3.501646 7.99997,-4.364738 2.0173,-0.593595 4.7419,-1.984464 6.0198,-3.07301 1.0498,-0.894306 2.6025,-1.050401 5.0216,-0.504813 1.926,0.434393 4.197,0.522871 5.0466,0.196618 2.4983,-0.959331 6.4656,-4.454651 7.1755,-6.321704 0.3615,-0.950685 2.8126,-2.764964 5.4469,-4.031732 4.5259,-2.176422 5.4742,-2.261933 17.2255,-1.553329 8.5512,0.515637 12.8464,0.409205 13.75,-0.340713 0.9615,-0.797964 1.3141,-0.768099 1.3141,0.111302 0,1.298763 5.7545,0.530483 7.3719,-0.984219 0.4795,-0.449076 1.5374,-0.561095 2.3509,-0.24893 0.8135,0.312165 1.8014,0.04606 2.1953,-0.591347 0.8227,-1.331224 14.4122,-4.132515 20.0474,-4.132515 2.1486,0 4.3287,-0.649549 5.0345,-1.5 0.6847,-0.825 1.6105,-1.5 2.0573,-1.5 0.4469,0 2.0793,-0.515753 3.6276,-1.146118 3.916,-1.594324 7.5355,-1.110036 12.8591,1.720544 2.9,1.541988 6.2166,2.425574 9.1045,2.425574 2.9958,0 5.5359,0.707206 7.4593,2.076777 2.0441,1.455476 3.7356,1.891203 5.6544,1.456474 2.9441,-0.667043 10.2378,-6.843196 10.2378,-8.669154 0,-0.76708 0.4484,-0.736882 1.4543,0.09795 1.605,1.332051 14.1607,0.469835 15.0916,-1.036359 0.285,-0.461087 1.1364,-0.601111 1.8919,-0.311164 1.3717,0.526351 5.5622,-2.3642521 5.5622,-3.8367651 0,-0.427767 -2.4053,-0.777759 -5.345,-0.777759 -4.0719,0 -5.7754,0.475544 -7.1518,1.996469 -1.3327,1.4726071 -2.1446,1.7160841 -3.0943,0.9279051 -0.7082,-0.5877101 -2.764,-0.9236211 -4.5685,-0.7464691 -2.529,0.248272 -3.3652,-0.09605 -3.6484,-1.502309 -0.4856,-2.41176 2.5601,-5.675596 5.2963,-5.675596 1.1981,0 2.5025,-0.324137 2.8987,-0.720304 0.3961,-0.396167 2.2599,-0.58765796 4.1416,-0.425535 1.8818,0.162122 3.9887,-0.05582 4.682,-0.48432296 1.9107,-1.180854 7.8182,-0.389019 10.7145,1.43615896 1.4162,0.89242 4.3434,3.101151 6.5049,4.908292 3.3638,2.812358 4.6984,3.2857111 9.2636,3.2857111 4.579,0 8.4009,1.111811 10.3126,3 0.2785,0.275 2.3035,1.467445 4.5,2.649877 3.2001,1.722644 3.9342,2.633995 3.6937,4.585998 -0.165,1.339866 0.3975,3.015021 1.25,3.722567 1.7558,1.457133 2.1148,7.686643 0.4746,8.233386 -1.4171,0.472378 -0.088,5.808172 1.4468,5.808172 0.6349,0 1.5987,1.0125 2.1416,2.25 1.8996,4.329854 7.8111,3.270811 14.1156,-2.528803 2.5342,-2.331314 4.5112,-3.051566 10.4089,-3.792099 5.1295,-0.644086 8.4415,-0.56629 11.2105,0.263326 2.9174,0.874072 4.3929,0.888507 5.7259,0.05602 0.9877,-0.616809 2.746,-0.872985 3.9073,-0.569281 1.1614,0.303703 3.6437,-0.174866 5.5164,-1.063487 1.8726,-0.888622 4.2368,-1.607869 5.2536,-1.598328 2.8465,0.02671 14.6617,9.166696 13.1171,10.147077 -1.995,1.266254 -4.7682,0.969961 -4.7682,-0.509437 0,-3.916621 -6.7243,-5.93465 -10.4312,-3.130473 -1.898,1.435819 -1.8937,1.500779 0.25,3.782647 1.1997,1.276957 2.1812,3.195387 2.1812,4.263178 0,2.578679 5.453,5.128504 7.4404,3.479122 1.1098,-0.921063 1.5149,-0.529533 2.0708,2.001583 0.4137,1.883381 0.2491,3.588702 -0.41,4.247792 -0.6057,0.605639 -1.1012,1.875408 -1.1012,2.821708 0,1.066662 -1.0522,1.95164 -2.7686,2.328622 -3.979,0.873953 -5.7816,5.26676 -3.7555,9.151974 0.8315,1.594372 1.5146,3.391619 1.5179,3.993869 0.01,1.60523 3.3999,4.40499 5.3349,4.40499 0.9192,0 1.6713,0.45 1.6713,1 0,0.55 0.7447,1 1.655,1 1.4997,0 1.4885,0.18392 -0.1185,1.95971 -2.3076,2.54978 -1.3619,7.04029 1.4826,7.04029 2.36,0 2.4952,0.93782 0.5127,3.55887 -2.234,2.95365 -1.8524,4.8679 1.9682,9.873193 1.925,2.52188 3.5,5.39135 3.5,6.37659 0,2.18845 -1.8598,4.17882 -3.95,4.22731 -0.8525,0.0198 -2.8855,1.12733 -4.5178,2.46122 -2.9082,2.37661 -2.9433,2.51656 -1.75,6.97839 1.5367,5.74537 1.564,11.77823 0.06,13.28205 -0.8768,0.87682 -0.8683,1.50621 0.035,2.59474 0.656,0.79042 1.1042,1.82199 0.9961,2.29238 -0.1081,0.47039 0.2877,2.02108 0.8796,3.44598 0.5919,1.4249 1.2271,4.5749 1.4115,7 0.323,4.24735 0.2251,4.4214 -2.6647,4.73936 -3.6904,0.40604 -7.5,3.78544 -7.5,6.6531 0,5.35582 -5.4557,7.78955 -9.0013,4.01541 -1.7596,-1.87293 -2.5729,-2.19628 -3.1678,-1.25929 -0.4657,0.73368 -0.8067,-0.73063 -0.8156,-3.50287 -0.015,-4.76683 1.3865,-8.53385 3.7347,-10.03612 0.6875,-0.43983 1.25,-2.12733 1.25,-3.75 0,-2.60368 -0.3483,-2.95031 -2.9648,-2.95031 -1.9067,0 -3.3339,0.6896 -3.999,1.93228 -0.5687,1.06275 -1.886,2.20265 -2.9272,2.53311 -1.0412,0.33047 -2.1738,1.37344 -2.517,2.31773 -0.3432,0.94428 -1.318,2.84188 -2.1663,4.21688 -1.4207,2.30276 -1.4788,10.29971 -0.1559,21.43759 0.1663,1.39943 -0.6424,2.19479 -2.9116,2.86364 -1.866,0.54998 -3.6393,1.99669 -4.3667,3.56241 -0.6737,1.45 -1.6801,3.51019 -2.2365,4.5782 -0.8209,1.57584 -0.5162,2.33686 1.6167,4.03757 1.4456,1.15265 2.6283,2.90668 2.6283,3.89786 0,1.93795 -3.7003,5.53491 -5.75,5.58946 -1.9862,0.0529 -1.5137,1.02353 2.75,5.6491 2.2,2.38671 4,4.86956 4,5.51744 0,0.64787 1.125,2.6529 2.5,4.45562 1.375,1.80272 2.5,3.95613 2.5,4.78537 0,0.82924 0.3893,1.74834 0.8652,2.04244 0.4759,0.2941 1.1205,2.10797 1.4326,4.03081 0.312,1.92284 1.9477,5.50235 3.6348,7.95446 1.687,2.45211 3.0674,4.91744 3.0674,5.47852 0,0.56107 0.7281,1.42759 1.618,1.92559 0.8898,0.498 2.1906,3.10786 2.8905,5.79969 1.1897,4.57512 1.1259,5.08828 -0.9777,7.87036 -2.2819,3.01794 -10.1997,7.72434 -12.0308,7.15124 -1.3626,-0.42647 -8.7265,3.42489 -10.1569,5.31216 -1.4523,1.91602 -1.1974,4.2998 1.1003,10.29221 2.5353,6.61195 1.0541,10.27319 -4.5166,11.16398 -3.2264,0.51592 -3.9211,1.02711 -3.895,2.8661 0.017,1.231 0.6925,3.11169 1.5,4.17931 3.2941,4.35516 0.8496,10.73676 -3.7741,9.85288 -2.2556,-0.43119 -2.7708,-0.0899 -3.3505,2.21956 -0.3767,1.501 -0.4205,6.162 -0.097,10.35776 1.0355,13.44308 -4.9826,25.35001 -14.2477,28.18903 -1.9593,0.60035 -4.2373,1.33379 -5.0623,1.62987 -3.7484,1.3452 -25.4533,-0.59861 -30.5,-2.73147 -4.3285,-1.82932 -25.5428,-3.54852 -31.0465,-2.51601 -1.758,0.3298 -4.1313,1.41051 -5.274,2.40158 -1.1427,0.99107 -4.0131,2.38459 -6.3786,3.09672 -5.7073,1.71817 -5.834,1.77343 -9.3009,4.05712 -1.65,1.08687 -4.9141,2.97237 -7.2536,4.18999 -2.8192,1.4673 -4.1084,2.73621 -3.823,3.76285 0.2368,0.85194 0.7426,3.57399 1.124,6.04899 0.7862,5.10159 4.3322,9.46155 16.059,19.74542 7.7904,6.83174 12.3919,12.95015 12.3967,16.48314 0,1.24929 1.5512,5.34501 3.4434,9.10159 2.9695,5.89556 3.3616,7.49456 2.8652,11.68568 -0.3163,2.67054 -0.2306,5.67197 0.1903,6.66985 0.421,0.99787 0.6726,3.4775 0.5591,5.51027 -0.1134,2.03277 0.473,5.18277 1.3032,7 0.8302,1.81723 2.0393,5.32905 2.6868,7.80405 0.6475,2.475 1.4111,5.175 1.6968,6 0.2857,0.825 0.4282,3.14172 0.3167,5.14826 -0.1116,2.00655 0.2795,3.94636 0.869,4.31069 0.7541,0.46608 0.7261,1.30845 -0.095,2.84193 -0.6416,1.19872 -1.3779,6.57141 -1.6364,11.93931 -0.2585,5.3679 -0.8598,9.75981 -1.3363,9.75981 -0.4765,0 -0.8663,1.32344 -0.8663,2.94098 0,1.61754 -0.45,3.2191 -1,3.55902 -0.55,0.33992 -1,2.21421 -1,4.1651 0,2.59246 -0.6728,4.07629 -2.5,5.51356 -1.375,1.08158 -2.5,2.60884 -2.5,3.39392 0,0.78508 -0.5674,1.42742 -1.2609,1.42742 -0.6935,0 -3.056,1.56662 -5.25,3.48139 -4.3281,3.77722 -8.6619,5.07681 -14.0267,4.20623 -1.9061,-0.30933 -3.7093,-0.0971 -4.065,0.47834 -0.6363,1.02961 -10.8559,0.27305 -12.8522,-0.95146 -0.5251,-0.32211 -2.3033,-0.73328 -3.9515,-0.91372 -2.2922,-0.25094 -3.5288,0.32171 -5.2593,2.43557 -1.2444,1.52001 -2.2787,3.51468 -2.2984,4.43261 -0.041,1.88684 -3.1417,8.15581 -4.286,8.66437 -0.4125,0.18334 -0.75,1.10584 -0.75,2.05 0,0.94417 -0.4191,2.14417 -0.9314,2.66667 -0.9961,1.01606 -1.7301,13.50692 -0.8835,15.03538 0.2786,0.50304 1.1137,3.16462 1.8557,5.91462 0.742,2.75 1.9336,6.125 2.648,7.5 0.7144,1.375 1.3017,2.97816 1.305,3.56257 0,0.58442 3.0902,4.40952 6.8595,8.50023 3.7694,4.09071 7.1976,8.56255 7.6183,9.93743 0.4207,1.37487 1.3082,3.17477 1.9721,3.99977 0.664,0.825 1.2616,2.625 1.3281,4 0.066,1.375 0.3968,3.99661 0.734,5.8258 0.3651,1.97984 0.1349,3.90219 -0.5687,4.75 -0.9122,1.0991 -0.8978,1.7666 0.063,2.9242 0.8775,1.05733 0.9361,1.8721 0.1984,2.76089 -0.725,0.87368 -0.7321,3.86039 -0.023,9.72601 0.7455,6.16622 0.7156,8.95795 -0.1099,10.27979 -0.6233,0.99807 -0.8542,2.26615 -0.5132,2.81796 0.3411,0.55182 -0.064,2.04787 -0.9009,3.32457 -1.1767,1.7959 -1.2528,2.60639 -0.3362,3.58102 0.9146,0.97245 0.8997,1.36429 -0.065,1.71809 -0.6875,0.25209 -1.25,1.10996 -1.25,1.90639 0,0.79643 -0.7085,1.71992 -1.5744,2.0522 -1.0938,0.41973 -1.3898,1.33953 -0.9698,3.01315 0.5673,2.26029 -1.8981,8.34985 -3.7058,9.15326 -0.4125,0.18334 -0.75,0.9194 -0.75,1.6357 0,0.71629 -0.6722,2.59129 -1.4938,4.16666 -0.8217,1.57537 -1.4967,3.86509 -1.5,5.08826 0,1.62007 -1.9495,3.58871 -7.163,7.25 -3.9363,2.76433 -7.5363,5.02605 -8,5.02605 -1.3662,0 -0.9631,-2.99753 0.4068,-3.02579 1.2494,-0.0258 7.6121,-8.62736 8.9678,-12.12328 0.3948,-1.01801 1.1377,-1.85093 1.651,-1.85093 0.5133,0 0.8889,-1.5639 0.8347,-3.47533 -0.067,-2.36561 0.6501,-4.27214 2.2458,-5.97069 1.9453,-2.07071 2.1283,-2.7556 1.075,-4.02466 -1.0348,-1.24695 -1.014,-1.52932 0.1127,-1.52932 2.1336,0 3.9723,-3.71624 3.2543,-6.57716 -0.4942,-1.96915 0.01,-3.23191 2.2034,-5.5217 2.5151,-2.62515 2.6936,-3.20988 1.5427,-5.05282 -0.8376,-1.34115 -0.9571,-2.42864 -0.3352,-3.05055 1.5365,-1.53649 0.1685,-4.79777 -2.0125,-4.79777 -1.1359,0 -2.1994,-0.85079 -2.5,-2 -0.2876,-1.1 -1.033,-2.00001 -1.6563,-2.00003 -1.4764,-4e-5 -6.6334,-6.47141 -6.6334,-8.3241 0,-0.78704 -0.6805,-1.99579 -1.5123,-2.6861 -1.1503,-0.95467 -1.2407,-1.58244 -0.3776,-2.62245 0.8782,-1.05813 0.7782,-1.36732 -0.4423,-1.36732 -1.6441,0 -2.2668,-2.31236 -3.0671,-11.38855 -0.237,-2.68869 -0.8585,-5.16369 -1.3811,-5.5 -0.5225,-0.3363 -1.2889,-1.73645 -1.7031,-3.11145 -0.4142,-1.375 -1.4446,-3.2875 -2.2898,-4.25 -1.1114,-1.26568 -1.187,-1.75 -0.2733,-1.75 1.4781,0 0.5293,-5.08364 -1.1415,-6.11624 -0.6292,-0.38889 -0.7563,-2.2531 -0.327,-4.79461 0.4054,-2.39944 0.2813,-4.67242 -0.2934,-5.37374 -0.5478,-0.66847 -1.5073,-3.12791 -2.1323,-5.46541 -0.6249,-2.3375 -1.4807,-4.25 -1.9016,-4.25 -0.4209,0 -2.2918,1.575 -4.1576,3.5 -1.8658,1.925 -3.9093,3.5 -4.5412,3.5 -0.6318,0 -1.9633,0.9 -2.9588,2 -0.9955,1.1 -2.3027,2.01497 -2.905,2.03327 -1.7549,0.0533 -4.9927,3.23624 -6.3239,6.21673 -0.6755,1.5125 -1.7096,2.75 -2.298,2.75 -0.5883,0 -2.8943,0.88152 -5.1242,1.95894 -2.23,1.07741 -6.5958,2.68702 -9.7017,3.5769 -4.1031,1.17556 -6.9153,2.85527 -10.285,6.14298 -4.4439,4.33578 -4.5801,4.63575 -3.2562,7.1731 1.7794,3.41036 1.7527,4.79644 -0.106,5.50971 -0.825,0.31658 -1.5,1.48972 -1.5,2.60699 0,1.3234 -0.657,2.03138 -1.885,2.03138 -1.0367,0 -2.6458,1.1612 -3.5758,2.58045 -1.5538,2.37151 -1.5631,2.84933 -0.115,5.90113 1.7684,3.72655 2.1002,10.07629 0.5758,11.01842 -0.55,0.33992 -1,1.31869 -1,2.17504 0,2.9865 -6.9142,11.14721 -10.0231,11.83003 -2.9728,0.65293 -8.9769,6.8215 -8.9769,9.22277 0,0.69969 -0.3401,1.27216 -0.7559,1.27216 -0.4157,0 -1.3534,1.35 -2.0838,3 -0.7304,1.65 -1.9652,3 -2.7441,3 -0.7789,0 -1.4162,0.68912 -1.4162,1.53138 0,0.84227 -0.675,1.79041 -1.49997,2.10699 -0.825,0.31659 -1.5,1.13202 -1.5,1.81208 0,1.75633 -8.7506,8.82407 -13.5,10.90382 -7.6745,3.36061 -11.9911,5.61809 -10.7687,5.63186 2.2466,0.0253 15.105,13.06207 18.0794,18.33033 1.6096,2.85095 4.5842,7.16675 6.6102,9.59068 2.02597,2.42392 4.29697,5.8752 5.04667,7.6695 0.7497,1.79431 2.4137,3.80483 3.6977,4.46783 4.3032,2.22185 6.7998,5.24635 8.8467,10.71722 2.5358,6.77757 9.0595,14.62739 14.9772,18.02172 2.4809,1.42306 6.0957,3.98507 8.0328,5.69337 4.5025,3.97075 13.75,6.96437 18.7659,6.07492 10.5141,-1.86445 13.0898,-1.7904 16.7666,0.48197 3.0163,1.8642 4.4675,2.12158 8.975,1.59181 2.9572,-0.34757 7.4899,-1.75549 10.0726,-3.12871 5.289,-2.81221 8.9702,-3.12016 13.6956,-1.14573 4.5593,1.90497 9.7023,8.055 9.7023,11.60197 0,5.27165 0.7999,6.04699 6.2389,6.04699 4.4474,0 5.4044,0.40229 8.3259,3.5 1.8155,1.925 3.7825,3.5 4.371,3.5 0.5886,0 1.844,1.78631 2.7899,3.96957 1.9701,4.54744 3.6055,5.25167 7.6172,3.28011 1.5636,-0.76843 3.0832,-1.15692 3.3768,-0.8633 0.2936,0.29362 1.8573,-0.15053 3.4749,-0.987 1.6175,-0.83647 3.473,-1.33026 4.1232,-1.09732 0.6502,0.23294 2.4329,-0.20812 3.9616,-0.98013 1.5286,-0.77202 3.2358,-1.12153 3.7938,-0.77671 0.5579,0.34483 1.6779,0.0763 2.4889,-0.59675 0.8109,-0.67304 3.1537,-1.58186 5.2062,-2.0196 2.0524,-0.43774 5.5317,-1.30314 7.7317,-1.92311 3.7263,-1.05009 11.9982,-3.02732 19,-4.54155 1.65,-0.35683 4.9661,-1.53476 7.3691,-2.61762 2.403,-1.08285 6.228,-2.08357 8.5,-2.22381 2.272,-0.14024 5.1819,-0.82419 6.4665,-1.5199 1.2847,-0.69571 2.5792,-1.02141 2.8768,-0.72378 0.2977,0.29762 1.7674,-0.093 3.2661,-0.868 1.4988,-0.77503 3.5792,-1.38408 4.6233,-1.35344 1.044,0.0306 3.2482,-0.39985 4.8982,-0.95662 8.1348,-2.74499 10.1546,-3.35181 12,-3.60529 1.1,-0.15109 3.4402,-1.02195 5.2003,-1.93523 1.7602,-0.91329 4.1075,-1.66052 5.2161,-1.66052 1.1087,0 3.4935,-0.63175 5.2997,-1.40389 1.8061,-0.77214 5.3089,-1.92485 7.7839,-2.56159 2.475,-0.63673 5.85,-1.62244 7.5,-2.19047 1.65,-0.56803 4.35,-1.49909 6,-2.06902 1.65,-0.56993 4.4778,-1.65247 6.2839,-2.40563 1.8062,-0.75317 4.2936,-1.3694 5.5275,-1.3694 1.234,0 3.2445,-0.70107 4.4678,-1.55793 1.2234,-0.85687 2.6858,-1.27269 3.2499,-0.92406 0.5641,0.34864 3.037,-0.33977 5.4952,-1.52978 2.4583,-1.19002 5.4834,-2.27696 6.7226,-2.41543 1.2392,-0.13847 3.6933,-0.999 5.4534,-1.91228 1.7602,-0.91329 4.1119,-1.66052 5.2259,-1.66052 1.114,0 3.4988,-0.89832 5.2996,-1.99626 1.8008,-1.09795 4.3046,-1.99795 5.564,-2 1.2594,-0.002 4.054,-0.90374 6.2102,-2.00374 2.1562,-1.1 4.8532,-2 5.9934,-2 1.1402,0 4.2932,-1.125 7.0066,-2.5 2.7134,-1.375 5.736,-2.51407 6.7168,-2.53127 0.9807,-0.0172 4.0332,-1.13809 6.7832,-2.49086 2.75,-1.35277 5.8025,-2.4637 6.7832,-2.46873 0.9808,-0.005 4.0034,-1.13414 6.7168,-2.50914 2.7134,-1.375 5.8613,-2.5 6.9953,-2.5 1.1339,0 4.7361,-1.35 8.0047,-3 3.2686,-1.65 6.7936,-3 7.8333,-3 1.0397,0 5.3793,-1.79461 9.6434,-3.98803 4.2642,-2.19341 8.143,-3.74702 8.6196,-3.45247 0.4766,0.29455 6.4643,-2.18584 13.3059,-5.51197 6.8417,-3.32614 13.1199,-6.04753 13.9516,-6.04753 0.8316,0 9.4344,-3.825 19.1172,-8.5 9.6829,-4.675 18.2666,-8.5 19.075,-8.5 1.6307,0 9.61,-3.77018 54.8634,-25.9229 17.0002,-8.32203 31.4002,-15.76672 32,-16.54376 0.5999,-0.77704 11.4406,-6.46275 24.0906,-12.6349 12.65,-6.17216 23.1622,-11.63585 23.3604,-12.14154 0.1983,-0.50569 5.8185,-3.60561 12.4894,-6.88871 6.6709,-3.28311 13.0337,-6.79901 14.1396,-7.81312 1.1058,-1.01411 6.1386,-3.90357 11.184,-6.42103 5.0454,-2.51745 9.4677,-5.05335 9.8274,-5.63533 0.3597,-0.58197 5.0306,-3.25441 10.3797,-5.93875 5.3492,-2.68433 10.264,-5.5292 10.922,-6.32193 0.6579,-0.79273 4.3465,-2.8934 8.1968,-4.66815 3.8504,-1.77475 7.0007,-3.63585 7.0007,-4.13578 0,-0.49993 3.2625,-2.54494 7.25,-4.54448 3.9875,-1.99953 7.5548,-4.15683 7.9274,-4.79398 0.3725,-0.63716 3.41,-2.46457 6.75,-4.06092 3.3399,-1.59635 6.0726,-3.26324 6.0726,-3.70419 0,-0.44096 2.7,-2.1647 6,-3.83053 3.3,-1.66583 6,-3.38571 6,-3.82195 0,-0.43623 1.8088,-1.59118 4.0195,-2.56653 2.2107,-0.97536 5.2482,-2.80047 6.75,-4.0558 1.5018,-1.25532 4.7555,-3.30719 7.2305,-4.55971 2.475,-1.25251 5.625,-3.13935 7,-4.19298 4.6891,-3.59313 9.4949,-6.72323 14.25,-9.28136 2.6125,-1.40545 4.75,-2.97672 4.75,-3.49172 0,-0.515 2.1319,-1.8794 4.7375,-3.032 2.6057,-1.1526 5.7388,-3.03626 6.9626,-4.18589 1.2237,-1.14964 3.0775,-2.59016 4.1194,-3.20116 3.9825,-2.33525 10.3233,-6.74983 12.0579,-8.39492 0.9952,-0.94379 3.1174,-2.50175 4.716,-3.46214 4.8471,-2.91191 11.5044,-7.44404 22.4066,-15.25384 1.925,-1.37897 5.075,-3.61387 7,-4.96644 1.925,-1.35256 5.975,-4.25629 9,-6.45273 3.025,-2.19644 6.4615,-4.43265 7.6367,-4.96936 1.1752,-0.53671 3.2731,-2.01885 4.662,-3.29365 1.3889,-1.2748 3.5774,-3.0983 4.8633,-4.05222 7.5149,-5.57475 10.5007,-7.86889 11.838,-9.09553 0.825,-0.75676 2.85,-2.2188 4.5,-3.24899 1.65,-1.03019 3.3599,-2.44637 3.7997,-3.14707 0.4398,-0.70071 1.2781,-1.27401 1.8627,-1.27401 0.5847,0 2.4749,-1.15428 4.2004,-2.56506 1.7254,-1.41078 6.0622,-4.77747 9.6372,-7.48153 3.575,-2.70406 7.175,-5.50894 8,-6.23305 0.825,-0.72412 2.85,-2.15327 4.5,-3.17588 1.65,-1.02262 3.3599,-2.46347 3.7997,-3.20189 0.4398,-0.73843 1.2114,-1.34259 1.7147,-1.34259 0.5033,0 1.9434,-0.92047 3.2003,-2.04548 1.2569,-1.12502 4.6013,-3.93752 7.432,-6.25 9.2705,-7.57345 14.7246,-12.17409 16.6161,-14.016 1.0231,-0.99632 2.62,-1.66423 3.5487,-1.48425 1.4564,0.28226 1.6457,1.49342 1.377,8.81148 -0.1713,4.66634 -1.0127,10.73425 -1.8698,13.48425 -2.056,6.5964 -13.0782,23.19384 -18.5102,27.87286 -2.3697,2.04124 -4.9835,4.30335 -5.8085,5.02691 -1.8796,1.64852 -23.7946,19.0618 -26.5,21.05648 -3.3793,2.49155 -10.3187,8.21955 -12.0251,9.92601 -0.8898,0.88976 -2.0553,1.61774 -2.5901,1.61774 -0.5348,0 -3.6155,2.1375 -6.8459,4.75 -3.2304,2.6125 -7.5257,5.875 -9.5451,7.25 -2.0194,1.375 -5.0956,3.625 -6.836,5 -1.7404,1.375 -4.0629,3.07286 -5.1611,3.77303 -1.0982,0.70016 -3.4592,2.20711 -5.2467,3.34877 -1.7875,1.14167 -3.25,2.47216 -3.25,2.95665 0,0.4845 -1.6875,1.80811 -3.75,2.94137 -4.2852,2.35452 -10.0463,6.26843 -12.25,8.32228 -0.825,0.76888 -2.9625,2.14301 -4.75,3.05362 -1.7875,0.9106 -3.25,2.03949 -3.25,2.50864 0,0.46915 -1.333,1.40516 -2.9623,2.08002 -1.6293,0.67486 -4.3252,2.52946 -5.9909,4.12132 -1.6657,1.59187 -3.7077,2.8943 -4.5377,2.8943 -0.83,0 -2.3938,0.88469 -3.4751,1.96598 -2.0671,2.06714 -7.7064,5.96202 -14.2611,9.84978 -2.1475,1.27367 -4.7044,3.07367 -5.682,4 -0.9777,0.92633 -3.0857,2.47001 -4.6843,3.4304 -1.5986,0.9604 -4.9316,3.09962 -7.4066,4.75384 -2.475,1.65422 -5.7805,3.79344 -7.3455,4.75384 -1.5651,0.96039 -4.3218,2.89017 -6.1261,4.28841 -1.8043,1.39823 -5.1363,3.37907 -7.4045,4.40187 -2.2681,1.0228 -4.1239,2.23481 -4.1239,2.69336 0,0.45855 -2.5875,2.20701 -5.75,3.88546 -3.1625,1.67845 -7.1719,4.04743 -8.9099,5.2644 -1.7379,1.21696 -6.3924,4.01266 -10.3433,6.21266 -12.0645,6.718 -15.728,8.94674 -17.8238,10.84344 -1.106,1.00095 -4.6349,3.06189 -7.842,4.57987 -3.207,1.51798 -6.3569,3.3957 -6.9996,4.17272 -0.6427,0.77702 -5.3677,3.43578 -10.5,5.90836 -5.1323,2.47259 -9.6961,5.06677 -10.1419,5.76485 -0.4457,0.69807 -4.4957,3.11535 -9,5.37171 -4.5042,2.25636 -8.489,4.61021 -8.8551,5.23077 -0.366,0.62055 -6.666,4.05328 -14,7.62828 -7.3339,3.575 -13.6941,7.06214 -14.1336,7.7492 -0.4396,0.68706 -6.0646,3.8139 -12.5,6.94853 -6.4355,3.13462 -12.8827,6.65911 -14.3271,7.83219 -1.4445,1.17307 -9.432,5.4373 -17.75,9.47606 -8.3181,4.03877 -15.1237,7.7405 -15.1237,8.22609 0,0.81074 -13.2304,7.41874 -81.8637,40.88719 -13.4,6.53441 -25.1754,11.88074 -26.1676,11.88074 -0.9922,0 -9.0504,3.6 -17.9072,8 -8.8568,4.4 -17.0039,8 -18.1046,8 -1.1007,0 -5.5813,1.8 -9.9569,4 -4.3756,2.2 -8.8158,4 -9.8672,4 -1.0513,0 -5.5567,1.8 -10.0118,4 -4.4551,2.2 -8.9162,4 -9.9135,4 -0.9973,0 -5.4623,1.76464 -9.9223,3.92143 -4.46,2.15678 -8.3281,3.70232 -8.5959,3.43452 -0.2678,-0.2678 -3.2196,0.89256 -6.5596,2.57857 -3.34,1.68602 -7.0005,3.06548 -8.1344,3.06548 -1.134,0 -4.2819,1.125 -6.9953,2.5 -2.7134,1.375 -5.7533,2.5 -6.7553,2.5 -1.002,0 -3.5871,0.9 -5.7447,2 -2.1576,1.1 -4.7406,2 -5.74,2 -0.9993,0 -4.4914,1.35 -7.76,3 -3.2686,1.65 -6.8737,3 -8.0113,3 -1.1376,0 -3.7947,0.88072 -5.9047,1.95715 -2.11,1.07644 -4.0735,1.72005 -4.3633,1.43024 -0.2898,-0.2898 -2.4024,0.42989 -4.6947,1.59933 -2.2922,1.16943 -5.4243,2.28526 -6.96,2.47962 -1.5358,0.19436 -4.636,1.29394 -6.8893,2.44352 -2.2534,1.14958 -4.9997,2.09014 -6.1029,2.09014 -1.1033,0 -3.4837,0.62101 -5.2899,1.38003 -4.8073,2.02023 -10.1787,3.61997 -12.1546,3.61997 -0.9507,0 -3.1688,0.74723 -4.929,1.66052 -1.7601,0.91328 -4.1003,1.80449 -5.2003,1.98045 -4.1236,0.65964 -16.1507,4.43209 -22.2839,6.98963 -1.8062,0.75317 -4.191,1.3694 -5.2997,1.3694 -1.1086,0 -3.3852,0.70818 -5.059,1.57374 -1.6738,0.86555 -3.2822,1.33483 -3.5742,1.04284 -0.2919,-0.29199 -2.2572,0.34983 -4.3672,1.42627 -2.11,1.07643 -4.6098,1.95715 -5.5552,1.95715 -1.777,0 -6.9955,1.50092 -11.3608,3.26752 -1.375,0.55646 -4.1875,1.39891 -6.25,1.87211 -2.0625,0.4732 -5.6625,1.32983 -8,1.90362 -2.3375,0.57379 -8.525,1.71054 -13.75,2.52611 -5.225,0.81558 -10.4,1.88722 -11.5,2.38143 -2.0906,0.93928 -2.5164,1.03951 -16.8883,3.97609 -10.2276,2.08977 -11.0753,2.93545 -10.716,10.69098 0.1325,2.85986 -0.2384,5.47588 -0.8279,5.84022 -0.5873,0.36298 -1.0678,1.54752 -1.0678,2.63232 0,1.0848 -0.675,2.23139 -1.5,2.54797 -0.855,0.32811 -1.5,1.81954 -1.5,3.46862 0,1.59115 -0.45,2.89301 -1,2.89301 -0.55,0 -1,0.675 -1,1.5 0,0.825 -0.675,1.5 -1.5,1.5 -0.825,0 -1.5,0.49774 -1.5,1.10608 0,3.36038 -14.0324,9.57611 -24.5,10.85239 -3.3,0.40236 -7.575,1.56199 -9.5,2.57697 -3.884,2.04787 -14.7894,2.41378 -29.6702,0.99552 l -8.1701,-0.77869 -0.7069,4.71366 c -0.462,3.08109 -1.9169,6.29891 -4.2005,9.29068 -1.9216,2.51736 -4.0776,5.96445 -4.7911,7.6602 -0.7136,1.69576 -2.7138,4.43319 -4.445,6.08319 -2.7646,2.63499 -3.8616,3 -9.0162,3 -5.0397,0 -6.2741,-0.38846 -8.7391,-2.75 -3.0654,-2.93689 -8.2609,-3.79622 -8.2609,-1.36636 0,0.761 -1.8013,3.011 -4.0029,5 -3.3627,3.03798 -4.73,3.61636 -8.5496,3.61636 -5.82877,0 -9.68357,-2.02793 -12.49177,-6.57166 -1.4525,-2.35014 -3.8154,-4.29656 -6.7354,-5.54825 -4.1827,-1.7929 -4.671,-1.81479 -6.9643,-0.31215 -3.5344,2.31577 -10.7477,2.20204 -13.9926,-0.22061 -6.1933,-4.62399 -7.8857,-9.81879 -5.8487,-17.95342 0.581,-2.3203 0.412,-3.24644 -0.668,-3.66087 -2.1752,-0.83468 -11.1323,1.31318 -12.0464,2.88864 -0.912,1.57219 -6.7001,1.89901 -6.7001,0.37832 0,-0.55 -1.3766,-1 -3.059,-1 -1.8018,0 -2.8029,0.41446 -2.4358,1.00846 1.1702,1.89339 -3.7772,2.77582 -7.3032,1.30259 -3.7173,-1.55321 -7.202,-0.94534 -7.202,1.25634 0,1.72058 -2.3386,1.86258 -4.8496,0.29447 -1.255,-0.78374 -3.3525,-0.86018 -6.7364,-0.24546 -4.492,0.816 -4.939,1.14993 -5.2048,3.88813 -0.1599,1.64751 -0.9181,4.34547 -1.6848,5.99547 -1.3393,2.88216 -3.0556,7.8773 -6.0127,17.5 -0.7606,2.475 -2.0672,6.3 -2.9034,8.5 -0.8363,2.2 -1.5403,6.15333 -1.5644,8.78518 -0.024,2.63185 -0.7346,5.83929 -1.5787,7.12765 -0.8442,1.28835 -1.989,5.88502 -2.5441,10.21482 -0.5551,4.32979 -1.4799,11.02235 -2.0551,14.87235 -0.5752,3.85 -1.3731,27.7 -1.7732,52.99995 -0.7591,48.0068 -0.705,49.037 3.5802,68.125 0.8797,3.9188 1.305,7.6016 0.945,8.1841 -1.1184,1.8096 3.4039,9.0817 9.0169,14.4997 3.1925,3.0817 5.3651,6.0429 5.3651,7.3126 0,1.1735 0.675,2.6939 1.5,3.3786 0.825,0.6847 1.5,1.8097 1.5,2.5 0,0.6903 0.6701,1.8112 1.489,2.4909 0.8189,0.6796 1.2563,1.6121 0.972,2.0722 -0.2844,0.4601 0.4995,1.3806 1.742,2.0455 1.2425,0.665 3.1569,2.3751 4.2542,3.8002 1.0974,1.4252 3.2434,3.8633 4.769,5.4181 1.5256,1.5548 2.7738,3.0417 2.7738,3.3043 0,0.2625 1.3479,1.9154 2.9954,3.673 1.6474,1.7577 2.9974,3.5748 3,4.0381 0,0.4632 0.9046,1.9864 2.0046,3.3848 1.1,1.3985 2,3.3186 2,4.267 0,0.9484 1.7327,3.7002 3.8503,6.1151 2.1177,2.4149 4.1576,5.9658 4.5332,7.8908 0.4128,2.116 2.49,5.4772 5.2528,8.5 2.5135,2.75 5.2504,6.0125 6.0819,7.25 0.8315,1.2375 2.1265,2.25 2.8778,2.25 0.7512,0 1.6483,1.125 1.9934,2.5 0.3451,1.375 0.9566,2.5 1.3589,2.5 0.4024,0 1.3373,1.8355 2.0777,4.0788 1.4853,4.5005 9.0258,11.9212 12.1136,11.9212 1.7454,0 9.8604,6.9579 9.8604,8.4544 0,0.7878 2.607,3.5456 3.3516,3.5456 1.1526,0 6.5799,6.2119 7.2202,8.264 0.3838,1.2298 1.1346,2.5169 1.6686,2.8603 0.534,0.3434 1.3758,2.792 1.8708,5.4415 0.495,2.6494 1.7974,5.7725 2.8944,6.9401 1.0969,1.1677 1.9944,2.6014 1.9944,3.1861 0,0.5847 0.6916,1.6371 1.5369,2.3386 0.84527,0.7016 1.47297,1.9942 1.39487,2.8725 -0.2472,2.7777 1.2466,6.0969 2.7438,6.0969 0.7934,0 1.2085,0.3784 0.9227,0.841 -0.2859,0.4625 0.8126,1.826 2.441,3.0299 1.6368,1.2101 2.9607,3.1227 2.9607,4.277 0,1.1484 1.4063,3.6897 3.1251,5.6474 3.3091,3.7688 5.8708,8.9622 5.8811,11.9226 0,0.9801 0.6586,3.0329 1.456,4.5617 0.7975,1.5288 2.4182,6.2538 3.6017,10.5 1.1835,4.2462 2.561,8.2259 3.0612,8.8437 0.5002,0.6177 0.646,1.8097 0.324,2.6488 -0.322,0.8391 -0.1641,1.786 0.3508,2.1042 1.1636,0.7192 0.3003,14.6777 -1.0097,16.3257 -1.1127,1.3999 -0.4814,3.8848 2.7435,10.798 3.3642,7.2119 5.2376,22.0504 3.495,27.6838 -0.7343,2.3739 -2.204,5.094 -3.2661,6.0447 -2.2086,1.9769 -1.7288,6.7247 0.9,8.9065 1.2533,1.0401 1.4063,2.6544 0.8359,8.8191 -0.3841,4.1502 -1.0614,7.9959 -1.5053,8.5459 -0.4439,0.55 -1.1326,5.6222 -1.5305,11.2715 -0.3979,5.6494 -1.1147,10.5134 -1.593,10.8091 -0.4784,0.2956 -0.8797,1.2984 -0.8919,2.2284 -0.012,0.9301 -0.9023,2.816 -1.9778,4.191 -1.0755,1.375 -1.9655,3.7109 -1.9778,5.191 -0.012,1.48 -0.5127,2.9941 -1.1122,3.3646 -0.7251,0.4482 -0.8624,2.94 -0.41,7.4444 0.4524,4.5044 0.3151,6.9962 -0.41,7.4444 -0.5995,0.3705 -1.09,1.5471 -1.09,2.6146 0,1.0676 -0.45,1.941 -1,1.941 -0.55,0 -1,1.35 -1,3 0,1.65 -0.3375,3.0052 -0.75,3.0115 -0.7107,0.011 -2.4516,3.4635 -5.4146,10.7385 -0.728,1.7875 -1.5673,3.25 -1.8652,3.25 -0.2979,0 -0.5416,4.0436 -0.5416,8.9857 0,5.7143 -0.4421,9.4278 -1.2143,10.2 -0.6679,0.6679 -1.2143,1.9573 -1.2143,2.8654 0,1.7219 -3.9052,9.5589 -6.93667,13.9205 -3.196,4.5982 -3.9582,8.6459 -3.3617,17.8524 0.3973,6.133 0.2229,9.1046 -0.563,9.5903 -0.6262,0.3871 -1.1386,1.7122 -1.1386,2.9447 0,1.2326 -0.3679,2.6685 -0.8175,3.191 -0.4496,0.5225 -1.4069,3.425 -2.1273,6.45 -0.7204,3.025 -2.7372,7.525 -4.4817,10 -3.8351,5.4409 -8.5651,19.3162 -8.5957,25.2151 -0.014,2.7059 -0.7429,5.2061 -1.9778,6.7849 -1.0755,1.375 -1.9655,3.4859 -1.9778,4.691 -0.012,1.205 -0.4602,2.4616 -0.9954,2.7925 -2.8724,1.7752 -5.8284,12.8457 -4.0138,15.0322 0.938,1.1302 0.745,2.3527 -0.9116,5.7747 -1.1558,2.3876 -2.1014,4.874 -2.1014,5.5253 0,0.6514 -0.45,1.1843 -1,1.1843 -0.55,0 -1,0.675 -1,1.5 0,0.825 -0.45,1.5 -1,1.5 -0.55,0 -1,0.8734 -1,1.941 0,1.0675 -0.4772,2.2359 -1.0603,2.5963 -0.6991,0.432 -0.8255,3.3481 -0.3709,8.559 0.4895,5.6121 0.3621,7.9037 -0.4397,7.9037 -0.621,0 -1.1291,1.0984 -1.1291,2.441 0,1.3425 -0.4081,2.6932 -0.9068,3.0014 -0.4987,0.3082 -1.2307,4.9473 -1.6265,10.309 -0.5318,7.2026 -1.2291,10.47 -2.67,12.5108 -1.8476,2.6168 -1.8529,7.0642 -0.012,10.1625 1.1938,2.0094 -0.034,13.1872 -1.8641,16.9758 -1.0563,2.1863 -1.9206,4.5281 -1.9206,5.204 0,0.6759 -0.5297,1.4054 -1.1771,1.6212 -0.8873,0.2958 -0.8276,1.9784 0.2424,6.8334 1.8304,8.3045 1.9237,45.1113 0.1159,45.7139 -0.6496,0.2165 -1.1812,2.1296 -1.1812,4.2513 0,2.1217 -0.503,4.1686 -1.1178,4.5485 -1.1998,0.7415 -0.6594,7.2528 0.9542,11.4967 0.5082,1.3368 1.0162,2.8805 1.1289,3.4305 0.1126,0.55 0.617,1.4966 1.1207,2.1036 0.5037,0.6069 0.8925,2.1819 0.8638,3.5 -0.138,6.355 1.5343,16.7573 3.1963,19.8816 1.1534,2.1682 1.8539,5.5485 1.8539,8.9453 0,4.5222 0.4481,5.9278 2.6086,8.1828 2.1327,2.2261 2.704,3.9691 3.1314,9.5547 0.2875,3.7576 1.0112,7.732 1.6082,8.832 0.597,1.1 1.37,6.725 1.7179,12.5 0.5979,9.925 1.634,16.6596 4.1542,27 0.6032,2.475 1.3794,7.2 1.7248,10.5 0.3454,3.3 1.1741,6.9829 1.8415,8.1843 0.6996,1.2593 1.2134,5.9956 1.2134,11.1849 0,4.9503 0.4909,10.2674 1.0909,11.8157 1.1921,3.0768 1.583,50.9705 0.4577,56.0941 -0.4112,1.8723 0.065,5.1491 1.2846,8.8473 1.1907,3.609 2.186,10.3078 2.5814,17.3737 0.5847,10.4489 0.4589,11.7979 -1.3764,14.7591 -5.8486,9.4368 -18.3548,9.562 -24.1039,0.2413 -1.3984,-2.2672 -3.2241,-3.9581 -4.2904,-3.9735 -1.0208,-0.015 -3.4958,-1.2644 -5.5,-2.7769 -6.1084,-4.6099 -8.2848,-5.4916 -14.8582,-6.0193 -5.2006,-0.4174 -6.6822,-0.1818 -8.3503,1.3278 -2.2331,2.021 -8.4305,2.3463 -10.2393,0.5375 -1.6119,-1.6119 -8.2501,-1.3383 -9.6922,0.3994 -0.6826,0.8225 -2.9877,2.0187 -5.1225,2.6583 -2.6635,0.798 -3.8814,1.7348 -3.8814,2.9855 0,1.1775 -0.9734,2.0332 -2.75,2.4175 -1.5125,0.3271 -5.0064,1.6857 -7.7643,3.019 -2.7579,1.3334 -5.4579,2.4271 -6,2.4305 -0.5421,0 -2.1928,0.6359 -3.6683,1.4057 -1.4754,0.7698 -4.1754,1.719 -6,2.1093 -1.8245,0.3904 -3.7674,1.0635 -4.3174,1.4959 -0.55,0.4324 -4.15,1.1101 -8,1.506 -3.85,0.3959 -7.45,1.0542 -8,1.4629 -0.55,0.4086 -3.475,0.9851 -6.5,1.2809 -3.025,0.2959 -6.85,1.2152 -8.5,2.043 -5.0179,2.5175 -7.8322,3.5187 -11.6515,4.145 -2.0083,0.3293 -5.8333,1.7767 -8.5,3.2163 -4.0773,2.2011 -6.5072,2.6961 -15.2766,3.1121 -12.9995,0.6167 -28.7185,-1.2803 -36.4943,-4.4041 -3.2573,-1.3085 -6.5602,-2.3792 -7.3397,-2.3792 -0.7795,0 -2.245,-1.0125 -3.2566,-2.25 -1.4759,-1.8055 -2.0905,-2.0029 -3.1109,-0.9993 -1.008,0.9913 -1.0227,1.939 -0.071,4.571 0.6603,1.8261 1.2006,5.0926 1.2006,7.2588 0,2.7559 0.5582,4.287 1.8591,5.0994 1.0225,0.6386 2.1402,2.5665 2.4837,4.2842 0.7528,3.7638 7.6826,10.3901 14.8713,14.2198 2.7709,1.4761 6.6687,3.9941 8.6619,5.5955 1.9932,1.6015 4.974,3.6122 6.624,4.4683 1.65,0.8562 6.0415,4.2452 9.7588,7.5312 3.7431,3.3089 8.1097,6.2448 9.7866,6.5802 1.6654,0.333 4.8079,2.036 6.9834,3.7843 3.7778,3.0359 4.3939,3.1885 13.7134,3.3966 10.9508,0.2445 16.1595,2.2082 17.2784,6.5138 0.8124,3.1261 0.5189,15.2643 -0.4053,16.7596 -0.3865,0.6255 -6.9006,3.1329 -14.4758,5.5721 -13.4052,4.3165 -13.9806,4.4116 -21.5495,3.5628 -7.883,-0.884 -16.1996,-0.672 -17.3131,0.4415 -0.3356,0.3356 -5.2337,0.6102 -10.8845,0.6102 -5.7709,0 -10.5452,0.4383 -10.8924,1 -0.5901,0.9548 -8.9444,1.052 -22,0.256 z M 908.03743,842.68865 c 0.3566,-0.92925 1.8786,-1.5 4,-1.5 2.2291,0 3.6406,-0.56345 4.0439,-1.6142 0.4349,-1.13345 1.4194,-1.46126 3.3057,-1.10068 1.9017,0.36353 3.6761,-0.24149 6.0754,-2.07149 2.8262,-2.15566 3.7044,-2.38808 5.2877,-1.39932 4.9508,3.09185 5.132,0.58541 0.2971,-4.11071 -3.5853,-3.4824 -11.1391,-7.01176 -17.5637,-8.20635 -3.0544,-0.56795 -3.5182,-0.28895 -6.0577,3.64402 -2.2381,3.4663 -2.75,5.40067 -2.75,10.39223 0,3.37324 0.3,6.43317 0.6667,6.79983 1.0799,1.07998 2.0793,0.77096 2.6949,-0.83333 z m 206.63837,-326 c 1.5341,-1.84844 13.0081,-2.09195 14.7862,-0.3138 0.9149,0.91494 2.733,0.88598 7.95,-0.1266 6.8215,-1.324 10.2638,-3.24059 10.2638,-5.71459 0,-0.73975 0.7231,-1.34501 1.607,-1.34501 1.0804,0 1.4002,-0.53892 0.9759,-1.64462 -0.3471,-0.90454 0.01,-2.36704 0.7852,-3.25 1.8621,-2.11062 3.1615,-11.66005 1.7087,-12.55789 -0.6598,-0.40779 -0.838,-2.18862 -0.4573,-4.56955 0.3431,-2.14574 0.2751,-4.70608 -0.1512,-5.68964 -0.4262,-0.98357 -0.8431,-2.2383 -0.9263,-2.7883 -0.3765,-2.48933 -2.5823,-6.41791 -4.2947,-7.64909 -1.0335,-0.743 -2.2045,-2.02591 -2.6024,-2.85091 -1.652,-3.42569 -3.3918,-5.86382 -7.914,-11.09047 -2.6231,-3.03162 -5.8318,-7.51398 -7.1305,-9.96079 -1.2987,-2.44681 -3.2293,-4.89874 -4.2904,-5.44874 -3.053,-1.58258 -11.31,-11.37611 -11.31,-13.41469 0,-1.01636 -1.575,-3.04924 -3.5,-4.51751 -3.2369,-2.46892 -3.5,-3.07473 -3.5,-8.05967 0,-5.75583 -0.8383,-7.01161 -4.0089,-6.00529 -2.5765,0.81772 -2.7287,6.99906 -0.2593,10.52465 0.9525,1.35988 1.5959,2.47251 1.4297,2.47251 -1.2984,0 2.2497,5.46196 4.7291,7.27994 1.7102,1.25396 3.1207,2.82896 3.1344,3.5 0.029,1.42246 6.844,8.7286 9.5936,10.28517 1.0348,0.58581 2.7814,2.83581 3.8814,5 1.1,2.16419 3.2962,5.84574 4.8805,8.18123 2.4249,3.57483 2.8005,4.95558 2.3749,8.73126 -0.3494,3.09999 -0.081,4.8373 0.8696,5.6261 1.6509,1.37019 1.9342,14.43269 0.3343,15.42144 -0.5723,0.35375 -0.75,1.55893 -0.3948,2.67818 0.3553,1.11925 0.181,2.99388 -0.3873,4.16584 -0.5683,1.17196 -1.3026,3.77312 -1.6317,5.78036 -0.7572,4.61806 -2.7057,6.26843 -6.504,5.50879 -2.474,-0.49481 -3.2963,-0.1092 -5.0656,2.37549 -1.1616,1.63141 -2.9656,2.9662 -4.0088,2.9662 -2.1107,0 -3.9671,2.77699 -3.9671,5.93426 0,2.43205 1.2547,2.66867 3,0.56574 z m -14.1652,-18.82419 c 1.2009,-1.2783 1.8986,-2.60909 1.5504,-2.9573 -0.3482,-0.34821 0.3,-2.21474 1.4406,-4.14784 1.1406,-1.9331 1.6886,-3.75276 1.2179,-4.04369 -0.4708,-0.29094 -0.6398,-1.35543 -0.3757,-2.36554 0.2642,-1.01011 -0.4531,-3.49835 -1.5938,-5.52942 -1.1408,-2.03107 -2.0742,-5.04362 -2.0742,-6.69456 0,-3.62389 -3.2694,-10.94236 -6.7757,-15.16714 -2.1863,-2.63435 -4.1398,-9.45479 -3.0268,-10.56777 0.6614,-0.66145 0.7023,-2.00308 0.1148,-3.76558 -0.7445,-2.23353 -1.5776,-2.78246 -4.5214,-2.97912 -2.9426,-0.19659 -4.2018,0.37086 -6.8221,3.07436 l -3.2135,3.31544 1.9879,2.82618 c 1.0934,1.55439 2.2931,4.91101 2.6661,7.45916 0.373,2.54814 2.2405,7.6839 4.1501,11.41279 1.9415,3.7911 3.2268,7.55259 2.9156,8.53285 -0.306,0.96418 -0.088,2.04248 0.4843,2.39623 0.5724,0.35375 1.0407,1.78916 1.0407,3.1898 0,1.40065 1.125,3.88361 2.5,5.51771 1.8098,2.15081 2.5,4.14626 2.5,7.22769 0,6.26356 1.9783,7.37082 5.8348,3.26575 z m 60.1844,-23.74995 c 1.0736,-4.53438 -1.8086,-16.09657 -4.7876,-19.20604 -1.5024,-1.56813 -2.6891,-3.1591 -2.6371,-3.53548 0.2016,-1.4594 -2.6735,-7.18434 -3.6079,-7.18434 -0.5426,0 -0.9866,-0.60526 -0.9866,-1.34501 0,-0.73976 -0.9,-2.1595 -2,-3.15499 -1.1,-0.99549 -2.0028,-2.52773 -2.0062,-3.40499 0,-0.87725 -0.687,-2.90069 -1.5193,-4.49652 -0.8322,-1.59583 -1.2611,-3.69546 -0.9531,-4.66584 0.308,-0.97039 0.1415,-2.02295 -0.3699,-2.33904 -0.5115,-0.31609 -1.2337,-1.81646 -1.605,-3.33416 -0.6533,-2.67059 -9.8613,-12.25945 -11.7725,-12.25945 -0.5186,0 -4.2524,-3.34181 -8.2973,-7.42624 -6.3172,-6.37904 -7.531,-7.21329 -8.6075,-5.91617 -0.9531,1.14842 -0.9785,1.90907 -0.1062,3.17623 0.6309,0.9164 2.4614,3.91618 4.0679,6.66618 2.7367,4.68474 11.5017,13.63311 15.7683,16.09816 1.0455,0.60398 2.3908,2.06338 2.9896,3.24311 0.5988,1.17973 1.8363,2.97099 2.75,3.98058 0.9137,1.0096 1.6678,2.7002 1.6759,3.75689 0.01,1.05669 0.6562,3.04626 1.4401,4.42126 0.7839,1.375 2.1263,3.85 2.9832,5.5 1.5723,3.02789 2.7543,4.86477 7.8725,12.23441 1.8565,2.67314 3.1049,6.12944 3.6777,10.18229 1.4618,10.34156 4.6041,15.03559 6.031,9.00916 z M 1038.1169,35.656844 c 1.0677,-0.807509 2.9104,-1.468197 4.095,-1.468197 1.1847,0 2.91,-0.835478 3.8341,-1.856618 1.5,-1.657396 1.5166,-1.992445 0.155,-3.122444 -1.1616,-0.964035 -1.8577,-0.989855 -2.9199,-0.108296 -0.7671,0.636642 -1.7796,1.069076 -2.25,0.960963 -0.4704,-0.108112 -2.1221,0.326099 -3.6704,0.964913 -1.5483,0.638815 -3.2358,1.161482 -3.75,1.161482 -0.5142,0 -0.9349,1.125 -0.9349,2.5 0,2.884528 2.3538,3.303359 5.4411,0.968197 z"
     id="path2987"
     inkscape:connector-curvature="0" />
</svg>
