<?xml version="1.0" encoding="UTF-8" standalone="no"?>
<!-- Created with Inkscape (http://www.inkscape.org/) -->

<svg
   xmlns:dc="http://purl.org/dc/elements/1.1/"
   xmlns:cc="http://creativecommons.org/ns#"
   xmlns:rdf="http://www.w3.org/1999/02/22-rdf-syntax-ns#"
   xmlns:svg="http://www.w3.org/2000/svg"
   xmlns="http://www.w3.org/2000/svg"
   xmlns:sodipodi="http://sodipodi.sourceforge.net/DTD/sodipodi-0.dtd"
   xmlns:inkscape="http://www.inkscape.org/namespaces/inkscape"
   id="svg2"
   version="1.1"
   inkscape:version="0.48.2 r9819"
   width="913.99951"
   height="1618"
   sodipodi:docname="britishforeignar00ashduoft_0177c.png">
  <metadata
     id="metadata8">
    <rdf:RDF>
      <cc:Work
         rdf:about="">
        <dc:format>image/svg+xml</dc:format>
        <dc:type
           rdf:resource="http://purl.org/dc/dcmitype/StillImage" />
        <dc:title></dc:title>
      </cc:Work>
    </rdf:RDF>
  </metadata>
  <defs
     id="defs6" />
  <sodipodi:namedview
     pagecolor="#ffffff"
     bordercolor="#666666"
     borderopacity="1"
     objecttolerance="10"
     gridtolerance="10"
     guidetolerance="10"
     inkscape:pageopacity="0"
     inkscape:pageshadow="2"
     inkscape:window-width="1600"
     inkscape:window-height="876"
     id="namedview4"
     showgrid="false"
     fit-margin-top="0"
     fit-margin-left="0"
     fit-margin-right="0"
     fit-margin-bottom="0"
     inkscape:zoom="0.5"
     inkscape:cx="326.96342"
     inkscape:cy="884.23977"
     inkscape:window-x="0"
     inkscape:window-y="24"
     inkscape:window-maximized="1"
     inkscape:current-layer="svg2" />
  <path
     style="fill:#000000"
     d="m 210,1617 c 0,-0.55 -1.3125,-1 -2.91667,-1 -1.60416,0 -3.1449,-0.5625 -3.42387,-1.25 -0.38294,-0.9438 -0.7895,-0.8825 -1.65946,0.25 -0.86996,1.1325 -1.27652,1.1938 -1.65946,0.25 -0.35783,-0.8819 -3.42771,-1.25 -10.42387,-1.25 -5.94445,0 -9.91667,-0.4006 -9.91667,-1 0,-0.55 -0.9,-1 -2,-1 -1.1,0 -2,-0.45 -2,-1 0,-0.55 -1.8,-1 -4,-1 -2.2,0 -4,-0.45 -4,-1 0,-0.55 -1.8,-1 -4,-1 -2.2,0 -4,-0.45 -4,-1 0,-0.55 -1.8,-1 -4,-1 -2.2,0 -4,-0.45 -4,-1 0,-0.55 -1.35,-1 -3,-1 -2.33333,0 -3,-0.4444 -3,-2 0,-1.3333 -0.66667,-2 -2,-2 -1.33333,0 -2,-0.6667 -2,-2 0,-1.1 -0.45,-2 -1,-2 -0.55,0 -1,-0.9 -1,-2 0,-1.1 0.45,-2 1,-2 0.55,0 1,-1.14 1,-2.5333 0,-2.6905 5.90242,-9.4667 8.24591,-9.4667 0.72191,0 1.96125,-0.9 2.75409,-2 1.00395,-1.3929 2.58869,-2 5.22076,-2 2.07858,0 3.77924,-0.45 3.77924,-1 0,-0.55 1.35,-1 3,-1 1.65,0 3,-0.45 3,-1 0,-0.5833 3.33333,-1 8,-1 4.66667,0 8,-0.4167 8,-1 0,-0.55 1.35,-1 3,-1 1.65,0 3,-0.45 3,-1 0,-0.55 1.35,-1 3,-1 1.65,0 3,-0.45 3,-1 0,-0.55 1.3125,-1 2.91667,-1 1.60416,0 3.17916,-0.5625 3.5,-1.25 0.46666,-1 0.7,-1 1.16666,0 0.70638,1.5137 12.41667,1.7494 12.41667,0.25 0,-0.55 0.80066,-1 1.77924,-1 0.97858,0 2.42792,-0.9 3.22076,-2 0.79284,-1.1 2.24218,-2 3.22076,-2 0.97858,0 1.77924,-0.45 1.77924,-1 0,-0.55 1.8,-1 4,-1 2.2,0 4,-0.45 4,-1 0,-0.55 1.8,-1 4,-1 2.2,0 4,-0.45 4,-1 0,-0.55 1.35,-1 3,-1 1.65,0 3,-0.45 3,-1 0,-0.55 0.80066,-1 1.77924,-1 0.97858,0 2.42792,-0.9 3.22076,-2 0.79284,-1.1 2.14284,-2 3,-2 0.85716,0 2.20716,-0.9 3,-2 0.79284,-1.1 2.24218,-2 3.22076,-2 0.97858,0 1.77924,-0.45 1.77924,-1 0,-0.55 0.9,-1 2,-1 1.13725,0 2,-0.6667 2,-1.5455 0,-1.7652 4.35908,-6.4545 6,-6.4545 1.64092,0 6,-4.6893 6,-6.4545 0,-1.8546 1.59791,-2.05 2.41667,-0.2955 0.46666,1 0.7,1 1.16666,0 0.37027,-0.7934 2.74445,-1.25 6.5,-1.25 5.25,0 5.9167,-0.2254 5.9167,-2 0,-1.1553 0.6666,-2 1.5784,-2 0.8681,0 3.3078,-1.8 5.4216,-4 2.1137,-2.2 4.5534,-4 5.4216,-4 1.2274,0 1.5784,-1.1118 1.5784,-5 0,-2.75 0.45,-5 1,-5 0.55,0 1,-0.9 1,-2 0,-1.3333 0.6666,-2 2,-2 1.2506,0 2,-0.6667 2,-1.7792 0,-0.9786 0.9,-2.428 2,-3.2208 1.603,-1.1554 2,-2.5887 2,-7.2208 0,-3.1861 0.4487,-5.7792 1,-5.7792 0.55,0 1,-1.8 1,-4 0,-2.2 0.45,-4 1,-4 0.55,0 1,-0.9 1,-2 0,-1.1 0.45,-2 1,-2 0.55,0 1,-0.9 1,-2 0,-1.1 0.45,-2 1,-2 0.55,0 1,-1.2507 1,-2.7792 0,-1.6321 0.8255,-3.3743 2,-4.2208 1.1,-0.7928 2,-2.2422 2,-3.2208 0,-0.9785 0.45,-1.7792 1,-1.7792 0.55,0 1,-1.8 1,-4 0,-2.2 0.45,-4 1,-4 0.55,0 1,-2.25 1,-5 0,-2.75 0.45,-5 1,-5 0.55,0 1,-1.8 1,-4 0,-2.2 0.45,-4 1,-4 0.55,0 1,-1.35 1,-3 0,-1.65 0.45,-3 1,-3 0.55,0 1,-0.9 1,-2 0,-1.1 0.45,-2 1,-2 0.55,0 1,-2.1507 1,-4.7792 0,-3.6321 0.48,-5.1253 2,-6.2208 1.3929,-1.004 2,-2.5887 2,-5.2208 0,-2.0785 0.45,-3.7792 1,-3.7792 0.55,0 1,-1.8 1,-4 0,-2.2 0.45,-4 1,-4 0.5555,0 1,-2.6667 1,-6 0,-3.3333 0.4444,-6 1,-6 0.55,0 1,-0.9 1,-2 0,-1.1 0.45,-2 1,-2 0.55,0 1,-1.8 1,-4 0,-2.2 0.45,-4 1,-4 0.55,0 1,-0.9 1,-2 0,-1.1 0.45,-2 1,-2 0.55,0 1,-1.35 1,-3 0,-1.65 0.45,-3 1,-3 0.55,0 1,-1.35 1,-3 0,-1.65 0.45,-3 1,-3 0.55,0 1,-0.9 1,-2 0,-1.1 0.45,-2 1,-2 0.55,0 1,-1.35 1,-3 0,-1.65 0.45,-3 1,-3 0.55,0 1,-1.8 1,-4 0,-2.2 0.45,-4 1,-4 0.55,0 1,-0.9 1,-2 0,-1.1 0.45,-2 1,-2 0.55,0 1,-1.8 1,-4 0,-2.2 0.45,-4 1,-4 0.55,0 1,-1.35 1,-3 0,-1.65 0.45,-3 1,-3 0.55,0 1,-1.8 1,-4 0,-2.2 0.45,-4 1,-4 0.55,0 1,-1.8 1,-4 0,-2.2 0.45,-4 1,-4 0.55,0 1,-2.2125 1,-4.9167 0,-2.9961 0.4882,-5.1148 1.25,-5.4238 0.9465,-0.3841 0.8936,-0.7548 -0.218,-1.5271 -1.2465,-0.866 -1.1333,-1.3099 0.75,-2.9434 1.6648,-1.4438 2.218,-3.024 2.218,-6.3355 0,-3.2648 0.52,-4.7868 2,-5.8535 1.5972,-1.1512 2,-2.5887 2,-7.1374 0,-3.579 0.4645,-5.9127 1.25,-6.2793 1,-0.4666 1,-0.7 0,-1.1666 -1.9416,-0.9061 -1.4728,-2.4167 0.75,-2.4167 1.5555,0 2,-0.6667 2,-3 0,-1.65 0.45,-3 1,-3 0.55,0 1,-0.8007 1,-1.7792 0,-0.9786 0.9,-2.428 2,-3.2208 1.3929,-1.004 2,-2.5887 2,-5.2208 0,-2.0785 0.45,-3.7792 1,-3.7792 0.55,0 1,-0.9 1,-2 0,-1.1 0.45,-2 1,-2 0.55,0 1,-1.35 1,-3 0,-1.65 0.45,-3 1,-3 1.5293,0 1.2902,-15.6979 -0.25,-16.4167 -1,-0.4666 -1,-0.7 0,-1.1666 1.5402,-0.7188 1.7793,-16.4167 0.25,-16.4167 -0.55,0 -1,-1.35 -1,-3 0,-1.65 0.45,-3 1,-3 0.55,0 1,-2.25 1,-5 0,-2.75 0.45,-5 1,-5 0.55,0 1,-1.35 1,-3 0,-1.65 0.45,-3 1,-3 0.55,0 1,-1.8 1,-4 0,-2.2 0.45,-4 1,-4 0.55,0 1,-1.35 1,-3 0,-1.65 0.45,-3 1,-3 0.55,0 1,-2.25 1,-5 0,-2.75 0.45,-5 1,-5 0.55,0 1,-0.9 1,-2 0,-1.3333 0.6666,-2 2,-2 1.3333,0 2,-0.6667 2,-2 0,-1.3333 0.6666,-2 2,-2 1.2506,0 2,-0.6667 2,-1.7792 0,-0.9786 0.9,-2.428 2,-3.2208 1.1,-0.7928 2,-2.2422 2,-3.2208 0,-0.9785 0.45,-1.7792 1,-1.7792 0.55,0 1,-0.9 1,-2 0,-1.1 0.45,-2 1,-2 0.55,0 1,-0.9 1,-2 0,-1.1 0.45,-2 1,-2 0.55,0 1,-1.6071 1,-3.5714 0,-3.5392 -1.7979,-6.4286 -4,-6.4286 -1.9725,0 -4,-2.7516 -4,-5.4286 0,-1.4143 -0.45,-2.5714 -1,-2.5714 -0.5926,0 -1,-3.6667 -1,-9 0,-5.3333 0.4074,-9 1,-9 0.606,0 1,-4.3333 1,-11 0,-6.6667 0.3939,-11 1,-11 0.55,0 1,-0.9 1,-2 0,-1.1 0.45,-2 1,-2 0.55,0 1,-1.8 1,-4 0,-2.2 0.45,-4 1,-4 0.55,0 1,-0.9 1,-2 0,-1.1 0.45,-2 1,-2 0.55,0 1,-2.25 1,-5 0,-2.75 -0.45,-5 -1,-5 -0.55,0 -1,-0.9 -1,-2 0,-1.1 0.45,-2 1,-2 0.55,0 1,0.45 1,1 0,0.55 0.45,1 1,1 0.55,0 1,-1.2507 1,-2.7792 0,-1.6321 0.8255,-3.3743 2,-4.2208 1.1489,-0.8281 2,-2.5887 2,-4.1374 0,-1.4828 0.5625,-2.9242 1.25,-3.2031 0.9437,-0.383 0.8825,-0.7895 -0.25,-1.6595 -1.1325,-0.87 -1.1938,-1.2765 -0.25,-1.6595 0.6875,-0.2789 1.25,-1.8197 1.25,-3.4238 0,-1.6042 0.45,-2.9167 1,-2.9167 0.55,0 1,-1.8 1,-4 0,-2.2 0.45,-4 1,-4 0.55,0 1,-1.34999 1,-2.99999 0,-1.65 0.45,-3 1,-3 0.55,0 1,-1.35 1,-3.00001 0,-1.65 0.45,-3 1,-3 0.55,0 1,-1.35 1,-3 0,-1.65 0.45,-3 1,-3 0.55,0 1,-1.35 1,-3 0,-1.65 0.45,-3 1,-3 0.55,0 1,-1.35 1,-3 0,-1.65 0.45,-3 1,-3 0.55,0 1,-1.35 1,-3 0,-1.65 0.45,-3 1,-3 0.55,0 1,-1.8 1,-4 0,-2.2 0.45,-4 1,-4 0.55,0 1,-1.8 1,-4 0,-2.2 0.45,-4 1,-4 0.55,0 1,-2.25 1,-5 0,-2.75 0.45,-5 1,-5 0.55,0 1,-1.8 1,-4 0,-2.2 0.45,-4 1,-4 0.55,0 1,-2.25 1,-5 0,-2.75 0.45,-5 1,-5 0.5833,0 1,-3.33333 1,-8 0,-4.66667 0.4166,-8 1,-8 0.55,0 1,-2.25 1,-5 0,-2.75 0.45,-5 1,-5 0.5926,0 1,-3.66667 1,-9 0,-5.33333 0.4074,-9 1,-9 0.5926,0 1,-3.66667 1,-9 0,-5.33333 0.4074,-9 1,-9 0.55,0 1,-1.35 1,-3 0,-1.65 -0.45,-3 -1,-3 -0.55,0 -1,-0.9 -1,-2 0,-1.1 -0.45,-2 -1,-2 -0.5715,0 -1,-3 -1,-7 0,-4 0.4285,-7 1,-7 0.5555,0 1,-2.66667 1,-6 0,-3.33333 0.4444,-6 1,-6 0.5555,0 1,-2.66667 1,-6 0,-3.33333 0.4444,-6 1,-6 0.55,0 1,-2.25 1,-5 0,-2.75 0.45,-5 1,-5 0.55,0 1,-0.9 1,-2 0,-1.1 0.45,-2 1,-2 0.55,0 1,-0.9 1,-2 0,-1.1 0.45,-2 1,-2 0.55,0 1,-0.9 1,-2 0,-2.21364 -1.5457,-2.70893 -2.3406,-0.75 -0.3819,0.94121 -0.773,0.87946 -1.5833,-0.25 -0.9566,-1.33333 -1.1957,-1.33333 -2.1523,0 -0.8103,1.12946 -1.2014,1.19121 -1.5833,0.25 -0.279,-0.6875 -1.3697,-1.25 -2.4239,-1.25 -1.25,0 -1.9166,-0.69565 -1.9166,-2 0,-1.1 -0.45,-2 -1,-2 -0.55,0 -1,-1.35 -1,-3 0,-1.65 -0.45,-3 -1,-3 -0.55,0 -1,-1.35 -1,-3 0,-1.65 -0.45,-3 -1,-3 -0.5556,0 -1,-2.66667 -1,-6 0,-5.33333 0.2222,-6 2,-6 1.1,0 2,-0.45 2,-1 0,-0.57143 3,-1 7,-1 4,0 7,-0.42857 7,-1 0,-0.55 0.9,-1 2,-1 1.5555,0 2,-0.66667 2,-3 0,-1.65 -0.45,-3 -1,-3 -0.55,0 -1,-0.9 -1,-2 0,-1.1 -0.45,-2 -1,-2 -0.55,0 -1,-0.9 -1,-2 0,-1.25062 0.6666,-2 1.7792,-2 0.9786,0 2.4279,-0.9 3.2208,-2 1.0955,-1.51994 2.5887,-2 6.2207,-2 2.6286,0 4.7793,-0.45 4.7793,-1 0,-0.55 0.9,-1 2,-1 1.1,0 2,-0.45 2,-1 0,-0.55 -0.45,-1 -1,-1 -0.55,0 -1,-0.80066 -1,-1.77924 0,-0.97858 -0.9,-2.42792 -2,-3.22076 -1.52,-1.09551 -2,-2.58869 -2,-6.22076 0,-2.62858 -0.45,-4.77924 -1,-4.77924 -0.55,0 -1,-1.35 -1,-3 0,-1.65 -0.45,-3 -1,-3 -0.6275,0 -1,-6.33333 -1,-17 0,-10.66667 0.3725,-17 1,-17 0.55,0 1,-2.05714 1,-4.57143 0,-4.43664 -1.6006,-7.42857 -3.9741,-7.42857 -1.6613,0 -6.0259,-4.67506 -6.0259,-6.45455 0,-0.85 -0.45,-1.54545 -1,-1.54545 -0.5834,0 -1,-3.33333 -1,-8 0,-4.66667 0.4166,-8 1,-8 0.55,0 1,-0.9 1,-2 0,-1.13043 0.6666,-2 1.5333,-2 0.8433,0 3.0933,-1.56 5,-3.46667 2.6474,-2.64738 3.4667,-4.30171 3.4667,-7 0,-1.94333 0.45,-3.53333 1,-3.53333 0.55,0 1,-1.7625 1,-3.91667 0,-2.19616 0.5491,-4.13947 1.25,-4.42387 0.9437,-0.38294 0.8825,-0.7895 -0.25,-1.65946 -1.1325,-0.86996 -1.1938,-1.27652 -0.25,-1.65946 0.7617,-0.30909 1.25,-2.42771 1.25,-5.42387 0,-2.70417 0.45,-4.91667 1,-4.91667 0.6274,0 1,-6.33333 1,-17 l 0,-17 -4,0 c -2.2,0 -4,0.45 -4,1 0,0.55 -0.8007,1 -1.7793,1 -0.9786,0 -2.4279,0.9 -3.2207,2 -0.8465,1.17447 -2.5887,2 -4.2208,2 -1.5286,0 -2.7792,0.45 -2.7792,1 0,0.55 -0.8007,1 -1.7793,1 -0.9786,0 -2.4279,0.9 -3.2207,2 -0.7952,1.10324 -2.5887,2 -4,2 -1.4113,0 -3.2049,0.89676 -4,2 -0.7929,1.1 -2.2422,2 -3.2208,2 -0.9786,0 -1.7792,0.45 -1.7792,1 0,0.55 -1.2507,1 -2.7793,1 -1.632,0 -3.3742,0.82553 -4.2207,2 -1.004,1.39291 -2.5887,2 -5.2208,2 -2.0786,0 -3.7792,0.45 -3.7792,1 0,0.55556 -2.6667,1 -6,1 -3.3334,0 -6,0.44444 -6,1 0,0.55 -1.8,1 -4,1 -2.2,0 -4,0.45 -4,1 0,0.55556 -2.6667,1 -6,1 -3.3334,0 -6,0.44444 -6,1 0,0.55 -1.8,1 -4,1 -2.2,0 -4,0.45 -4,1 0,0.55 -1.35,1 -3,1 -1.65,0 -3,0.45 -3,1 0,0.57143 -3,1 -7,1 -4,0 -7,0.42857 -7,1 0,0.55 -2.0572,1 -4.5715,1 -4.5885,0 -7.4285,-1.6087 -7.4285,-4.20781 0,-0.74287 -0.9,-1.99935 -2,-2.79219 -2.245,-1.61806 -2.6483,-4.53082 -0.75,-5.41667 1,-0.46666 1,-0.7 0,-1.16666 -0.6875,-0.32084 -1.25,-1.44584 -1.25,-2.5 0,-1.05417 -0.45,-1.91667 -1,-1.91667 -0.55,0 -1,-1.63472 -1,-3.6327 0,-2.50742 -0.697,-4.25284 -2.25,-5.63464 -1.5262,-1.35793 -1.8479,-2.14627 -1,-2.45063 1.4803,-0.53137 1.6993,-4.28203 0.25,-4.28203 -0.6287,0 -1,-6.51515 -1,-17.54545 0,-17.29518 -0.035,-17.58047 -2.4546,-20 -1.35,-1.35 -3.15,-2.45455 -4,-2.45455 -0.85,0 -1.5454,-0.45 -1.5454,-1 0,-0.55 -0.7195,-1 -1.5988,-1 -0.8794,0 -2.8599,-1.35 -4.4012,-3 -1.5414,-1.65 -3.4226,-3 -4.1805,-3 -0.7579,0 -2.0267,-0.9 -2.8195,-2 -0.7929,-1.1 -2.0617,-2 -2.8196,-2 -0.7579,0 -2.6391,-1.35 -4.1804,-3 -1.5414,-1.65 -3.3414,-3 -4,-3 -0.6587,0 -2.4587,-1.35 -4,-3 -1.5414,-1.65 -3.5219,-3 -4.4012,-3 -0.9322,0 -1.5988,-0.83396 -1.5988,-2 0,-1.33333 -0.6667,-2 -2,-2 -1.1,0 -2,-0.45 -2,-1 0,-0.55 -0.7072,-1 -1.5715,-1 -1.815,0 -4.4285,-2.34115 -4.4285,-3.96698 0,-0.61041 -4.05,-5.12527 -9,-10.03302 -4.95,-4.90775 -9,-9.40025 -9,-9.98333 C 294.00003,474.37023 283.23142,464 281.52174,464 280.68478,464 280,463.55 280,463 c 0,-0.55 -0.9,-1 -2,-1 -1.1,0 -2,-0.45 -2,-1 0,-0.55 -0.70714,-1 -1.57143,-1 C 272.06801,460 270,457.46502 270,454.57143 270,452.66667 269.48148,452 268,452 c -1.1,0 -2,-0.45 -2,-1 0,-0.55 -1.35,-1 -3,-1 -1.65,0 -3,-0.45 -3,-1 0,-0.55 -0.71946,-1 -1.59879,-1 -0.87933,0 -2.85988,-1.35 -4.40121,-3 -1.54133,-1.65 -3.77902,-3 -4.97264,-3 C 246.58768,442 244,439.83415 244,437.79219 c 0,-0.74287 -0.9,-1.99935 -2,-2.79219 -2.0606,-1.4852 -2.84843,-7 -1,-7 0.55,0 1,-0.70714 1,-1.57143 C 242,424.61011 244.34221,422 245.97403,422 247.39733,422 252,417.43528 252,416.02372 252,414.3722 241.23569,404 239.52174,404 238.68478,404 238,403.55 238,403 c 0,-0.55 -1.35,-1 -3,-1 -1.65,0 -3,-0.45 -3,-1 0,-0.55 -0.9,-1 -2,-1 -1.1,0 -2,-0.45 -2,-1 0,-0.55 -0.80066,-1 -1.77924,-1 -0.97858,0 -2.42792,-0.9 -3.22076,-2 -0.79284,-1.1 -2.14284,-2 -3,-2 -0.85716,0 -2.20716,-0.9 -3,-2 -0.79284,-1.1 -2.04932,-2 -2.79219,-2 C 212.46719,390 210,387.53281 210,385.79219 c 0,-0.74287 -0.9,-1.99935 -2,-2.79219 -1.1,-0.79284 -2,-2.24218 -2,-3.22076 C 206,378.80066 205.55,378 205,378 c -0.55,0 -1,-0.9 -1,-2 0,-1.1 -0.45,-2 -1,-2 -0.55,0 -1,-0.69545 -1,-1.54545 C 202,370.45408 197.54592,366 195.54545,366 194.69545,366 194,365.55 194,365 c 0,-0.55 -0.9,-1 -2,-1 -1.1,0 -2,-0.45 -2,-1 0,-0.55 -0.70714,-1 -1.57143,-1 -0.86428,0 -2.26532,-0.6939 -3.11342,-1.54199 -1.38933,-1.38933 -2.14956,-0.91372 -7.67857,4.80382 -3.37512,3.49019 -8.61158,8.33652 -11.63658,10.76961 -3.025,2.43309 -7.38171,6.34637 -9.68157,8.69618 -2.29987,2.34981 -4.41419,4.27238 -4.69848,4.27238 -0.2843,0 -1.77759,1.17881 -3.31843,2.61958 -1.54084,1.44077 -6.60924,6.05327 -11.26312,10.25 -4.65389,4.19673 -9.72158,8.8385 -11.26154,10.31504 -1.53997,1.47654 -5.90322,5.44264 -9.69611,8.81357 -6.76869,6.01565 -6.87027,6.17862 -5.49462,8.81538 0.77085,1.47754 1.40432,3.92393 1.40771,5.43643 0.005,2.14416 -0.48953,2.78203 -2.24384,2.89537 -4.07631,0.26336 -9.24119,-0.34007 -9.75,-1.13912 -0.275,-0.43187 -2.525,-1.38961 -5,-2.12832 -3.21043,-0.95821 -6.29107,-3.13386 -10.75,-7.592 C 80.8125,423.84904 78,420.54949 78,419.95359 78,419.3577 75.75,416.67858 73,414 c -2.75,-2.67858 -5,-5.39382 -5,-6.03387 0,-0.64004 -1.35,-2.4248 -3,-3.96613 -1.65,-1.54133 -3,-3.52188 -3,-4.40121 C 62,398.71946 61.55,398 61,398 c -0.55,0 -1,-0.80066 -1,-1.77924 0,-0.97858 -0.9,-2.42792 -2,-3.22076 -1.17447,-0.84651 -2,-2.58869 -2,-4.22076 C 56,387.25066 55.55,386 55,386 c -0.55,0 -1,-0.9 -1,-2 0,-1.33333 -0.66667,-2 -2,-2 -1.66667,0 -2,-0.66667 -2,-4 0,-2.2 -0.45,-4 -1,-4 -0.55,0 -1,-0.9 -1,-2 0,-1.1 -0.45,-2 -1,-2 -0.55,0 -1,-0.9 -1,-2 0,-1.1 -0.45,-2 -1,-2 -0.55556,0 -1,-2.66667 -1,-6 0,-3.33333 -0.44444,-6 -1,-6 -0.62222,0 -1,-5.66667 -1,-15 0,-9.33333 -0.37778,-15 -1,-15 -0.62963,0 -1,-6.66667 -1,-18 0,-11.33333 0.37037,-18 1,-18 0.55,0 1,-2.25 1,-5 0,-2.75 0.45,-5 1,-5 0.55,0 1,-1.35 1,-3 0,-2.99531 -0.009,-3 -5.91667,-3 -3.75555,0 -6.12973,-0.45657 -6.5,-1.25 -0.46666,-1 -0.7,-1 -1.16666,0 -0.32084,0.6875 -1.89584,1.25 -3.5,1.25 C 25.3125,272 24,272.45 24,273 c 0,0.59259 -3.66667,1 -9,1 -8.33333,0 -9,-0.14815 -9,-2 0,-1.1 -0.45,-2 -1,-2 -0.55,0 -1,-0.9 -1,-2 0,-1.1 -0.45,-2 -1,-2 -0.55,0 -1,-1.7625 -1,-3.91667 0,-2.15555 -0.56206,-4.17896 -1.25,-4.5 -1,-0.46666 -1,-0.7 0,-1.16666 0.6875,-0.32084 1.25,-1.89584 1.25,-3.5 C 2,251.3125 2.45,250 3,250 c 0.55,0 1,-1.35 1,-3 0,-1.65 0.45,-3 1,-3 0.55,0 1,-0.9 1,-2 0,-1.1 0.45,-2 1,-2 0.55,0 1,-1.35 1,-3 0,-1.65 0.45,-3 1,-3 0.55,0 1,-1.8 1,-4 0,-2.2 0.45,-4 1,-4 0.55,0 1,-1.60714 1,-3.57143 C 12,218.64687 13.8234,216 16.42857,216 17.29286,216 18,215.55 18,215 c 0,-0.57809 3.17544,-1 7.52632,-1 l 7.52631,0 4.47369,4.47368 C 39.98684,220.93421 42,223.44135 42,224.04511 42,225.97706 44.77674,228 47.42857,228 48.84286,228 50,228.45 50,229 c 0,0.55 2.04545,1 4.54545,1 3.49271,0 5.11394,-0.56848 7,-2.45455 1.35,-1.35 2.45455,-2.96028 2.45455,-3.5784 0,-0.61812 1.8,-2.85329 4,-4.96705 2.2,-2.11376 4,-4.36062 4,-4.99303 C 72,212.54295 74.51435,210 75.9619,210 77.62745,210 84,203.28768 84,201.53333 84,200.69 84.71946,200 85.59879,200 c 0.87933,0 2.85988,-1.35 4.40121,-3 1.54133,-1.65 3.42253,-3 4.18045,-3 0.75792,0 2.02671,-0.9 2.81955,-2 0.79284,-1.1 2.14284,-2 3,-2 0.85716,0 2.20716,-0.9 3,-2 0.79284,-1.1 2.06163,-2 2.81955,-2 0.75792,0 2.63912,-1.35 4.18045,-3 1.54133,-1.65 3.52188,-3 4.40121,-3 0.87933,0 1.59879,-0.45 1.59879,-1 0,-0.55 0.9,-1 2,-1 1.1,0 2,-0.45 2,-1 0,-0.55 0.80066,-1 1.77924,-1 0.97858,0 2.42792,-0.9 3.22076,-2 0.79284,-1.1 2.24218,-2 3.22076,-2 0.97858,0 1.77924,-0.45 1.77924,-1 0,-0.55 0.9,-1 2,-1 1.1,0 2,-0.45 2,-1 0,-0.55 1.35,-1 3,-1 1.65,0 3,-0.45 3,-1 0,-0.55 2.25,-1 5,-1 2.75,0 5,-0.45 5,-1 0,-0.55556 2.66667,-1 6,-1 3.33333,0 6,-0.44444 6,-1 0,-0.62873 6.52381,-1 17.57143,-1 18.25792,0 20.42857,0.47056 20.42857,4.42857 0,0.86429 0.45,1.57143 1,1.57143 0.55,0 1,0.9 1,2 0,1.65751 -0.66667,2 -3.89301,2 -6.13734,0 -6.14601,1.6206 -0.0856,16 5.10961,12.12347 18.82419,45.75348 22.63334,55.5 1.93457,4.95 4.00437,9.9 4.59957,11 1.29523,2.39374 8.25336,19.2767 10.39116,25.21273 0.83444,2.317 3.2282,6.0295 5.31946,8.25 3.08079,3.27117 4.48853,4.03727 7.4187,4.03727 1.98902,0 3.6164,0.45 3.6164,1 0,0.55 1.35,1 3,1 1.65,0 3,0.45 3,1 0,0.55 1.8,1 4,1 2.2,0 4,0.45 4,1 0,0.55 1.8,1 4,1 2.2,0 4,0.45 4,1 0,0.55 0.9,1 2,1 1.1,0 2,0.45 2,1 0,0.55 1.35,1 3,1 1.65,0 3,0.45 3,1 0,0.55 1.8,1 4,1 2.20001,0 4.00001,0.45 4.00001,1 0,0.55 0.9,1 2,1 1.1,0 2,0.45 2,1 0,0.55 1.8,1 4,1 2.2,0 4,0.45 4,1 0,0.55 1.8,1 4,1 2.2,0 4,0.45 4,1 0,0.55 0.9,1 2,1 1.1,0 2,0.45 2,1 0,0.55 1.35,1 3,1 1.65,0 3,0.45 3,1 0,0.55 1.35,1 3,1 1.65,0 3,0.45 3,1 0,0.55 0.9,1 2,1 1.1,0 2,0.45 2,1 0,0.55 1.35,1 3,1 1.65,0 3,0.45 3,1 0,0.55 1.7625,1 3.9167,1 2.1961,0 4.1394,0.5491 4.4238,1.25 0.383,0.94376 0.7895,0.88251 1.6595,-0.25 0.8699,-1.13251 1.2765,-1.19376 1.6594,-0.25 0.279,0.6875 1.3698,1.25 2.4239,1.25 1.0542,0 1.9167,0.45 1.9167,1 0,0.55 1.35,1 3,1 1.65,0 3,0.45 3,1 0,0.55 1.8,1 4,1 2.2,0 4,0.45 4,1 0,0.55 0.9,1 2,1 1.1,0 2,0.45 2,1 0,0.55 1.35,1 3,1 1.65,0 3,0.45 3,1 0,0.55 1.35,1 3,1 1.65,0 3,0.45 3,1 0,0.55 1.8,1 4,1 2.2,0 4,0.45 4,1 0,0.55 0.9,1 2,1 1.1,0 2,0.45 2,1 0,0.55 2.25,1 5,1 2.75,0 5,0.45 5,1 0,0.55 1.35,1 3,1 1.65,0 3,0.45 3,1 0,0.55 1.35,1 3,1 1.65,0 3,0.45 3,1 0,0.55 1.35,1 3,1 1.65,0 3,0.45 3,1 0,0.55 1.35,1 3,1 1.65,0 3,0.45 3,1 0,0.55 1.8,1 4,1 2.2,0 4,0.45 4,1 0,0.55 0.8625,1 1.9167,1 1.0541,0 2.1449,0.5625 2.4238,1.25 0.383,0.94376 0.7895,0.88251 1.6595,-0.25 0.8699,-1.13251 1.2765,-1.19376 1.6594,-0.25 0.279,0.6875 1.3698,1.25 2.4239,1.25 1.0542,0 1.9167,0.45 1.9167,1 0,0.55 0.9,1 2,1 1.1,0 2,0.45 2,1 0,0.55 1.35,1 3,1 1.65,0 3,0.45 3,1 0,0.55 2.1506,1 4.7792,1 3.6321,0 5.1253,0.48006 6.2208,2 0.8465,1.17447 2.5887,2 4.2207,2 1.5286,0 2.7793,0.45 2.7793,1 0,0.55 1.8,1 4,1 2.2,0 4,0.45 4,1 0,0.55 1.8,1 4,1 2.2,0 4,0.45 4,1 0,0.55 1.2506,1 2.7792,1 1.6321,0 3.3743,0.82553 4.2208,2 1.0039,1.39291 2.5887,2 5.2207,2 2.0786,0 3.7793,0.45 3.7793,1 0,0.55 1.35,1 3,1 1.65,0 3,0.45 3,1 0,0.55 1.35,1 3,1 1.65,0 3,0.45 3,1 0,0.55 0.9,1 2,1 1.1,0 2,0.45 2,1 0,0.55 1.35,1 3,1 1.65,0 3,0.45 3,1 0,0.55 2.1802,1 4.845,1 5.2175,0 7.3312,-1.46767 8.6408,-6 0.3974,-1.375 1.3859,-3.55055 2.1968,-4.83456 1.3181,-2.08716 1.2945,-2.53328 -0.2227,-4.20971 -1.1163,-1.23348 -1.485,-2.71966 -1.0775,-4.34311 0.3936,-1.56844 0.072,-3.01501 -0.8815,-3.96886 -0.8255,-0.8255 -1.5009,-2.63149 -1.5009,-4.01331 0,-1.38183 -0.45,-2.79053 -1,-3.13045 -0.55,-0.33992 -1,-1.71648 -1,-3.05902 0,-1.34254 -0.45,-2.44098 -1,-2.44098 -0.55,0 -1,-2.40526 -1,-5.34501 0,-4.07502 -0.4752,-5.77507 -2,-7.15499 -2.1207,-1.91919 -2.7849,-7.89689 -1,-9 1.6232,-1.00323 1.143,-4.22506 -0.75,-5.03186 -2.6069,-1.11102 -5.2673,-1.2493 -5.8514,-0.30414 -0.7851,1.27036 -7.1355,0.99826 -9.6622,-0.414 -4.7417,-2.65025 -6.7364,-5.08559 -6.7364,-8.22431 0,-1.71913 -0.521,-3.64662 -1.1577,-4.28331 -0.8262,-0.82628 -0.8518,-1.52753 -0.09,-2.45 0.5875,-0.71081 1.3802,-3.09238 1.7615,-5.29238 0.3813,-2.2 1.3815,-6.025 2.2227,-8.5 0.8412,-2.475 1.4577,-5.92864 1.37,-7.67475 -0.088,-1.74612 0.3022,-3.46018 0.8667,-3.80902 0.5644,-0.34885 1.0262,-1.47021 1.0262,-2.49191 0,-1.02171 0.3375,-2.00765 0.75,-2.19099 0.4125,-0.18333 1.78,-2.321 3.0388,-4.75038 1.7812,-3.43761 2.0048,-4.59252 1.0083,-5.20836 -0.7042,-0.43522 -1.5792,-0.47255 -1.9445,-0.083 -1.6689,1.78006 -4.8526,8.45882 -4.8526,10.17976 0,1.05081 -0.45,2.18868 -1,2.5286 -0.55,0.33992 -1.0143,2.05398 -1.0318,3.80902 -0.017,1.75504 -0.6925,4.06449 -1.5,5.13211 -0.8075,1.06762 -1.501,2.86762 -1.5412,4 -0.2543,7.16169 -10.4485,13.5984 -17.3452,10.95188 -1.737,-0.66654 -2.2493,-7.27965 -0.6928,-8.94301 0.8278,-0.88467 1.679,-4.62384 4.2,-18.45 0.5516,-3.025 1.4322,-6.28139 1.957,-7.23643 0.5247,-0.95504 0.954,-3.74098 0.954,-6.19098 0,-2.45001 0.45,-4.73267 1,-5.07259 0.55,-0.33992 1,-2.80398 1,-5.47568 0,-2.94895 0.4912,-5.05695 1.25,-5.36486 0.9438,-0.38294 0.8826,-0.7895 -0.25,-1.65946 -1.1325,-0.86996 -1.1937,-1.27652 -0.25,-1.65946 0.6875,-0.27897 1.25,-1.56815 1.25,-2.86486 0,-1.2967 0.45,-2.63576 1,-2.97568 0.55,-0.33992 1,-3.29148 1,-6.55902 0,-3.29399 0.4456,-5.94098 1,-5.94098 0.55,0 1,-1.99844 1,-4.44098 0,-2.44254 0.45,-4.7191 1,-5.05902 0.55,-0.33992 1,-1.85148 1,-3.35902 0,-1.50754 0.385,-3.16848 0.8555,-3.69098 1.4216,-1.57877 4.3017,-11.59797 3.7484,-13.03991 -0.2841,-0.74032 -0.086,-1.61201 0.4398,-1.93708 0.526,-0.32508 0.9563,-1.45241 0.9563,-2.50519 0,-1.05277 1.1305,-3.83872 2.5121,-6.19098 1.3817,-2.35226 3.2879,-5.96434 4.2359,-8.02684 0.9481,-2.0625 2.0677,-3.75 2.4879,-3.75 0.4203,0 0.7641,-0.9 0.7641,-2 0,-1.1 0.45,-2 1,-2 0.55,0 1,-0.69382 1,-1.54181 0,-0.848 0.8776,-2.48377 1.9502,-3.63505 1.0726,-1.15127 2.6459,-3.49496 3.4963,-5.20818 2.1986,-4.42895 5.1121,-7.61491 6.9639,-7.61491 0.8743,0 1.5897,-0.58367 1.5897,-1.29705 0,-1.53114 7.1129,-8.70295 8.6314,-8.70295 1.6007,0 7.3686,-6.72857 7.3686,-8.59579 0,-1.32857 0.2823,-1.41478 1.4526,-0.44354 1.1639,0.966 1.8969,0.79162 3.6885,-0.87756 1.2298,-1.14571 2.8261,-2.08311 3.5474,-2.08311 0.7213,0 1.315,-0.3375 1.3193,-0.75 0.01,-1.00164 4.9447,-3.25 7.1325,-3.25 0.9579,0 2.0197,-0.45 2.3597,-1 0.3399,-0.55 1.6467,-1 2.904,-1 1.2573,0 3.1005,-0.9 4.096,-2 0.9955,-1.1 2.8713,-2 4.1685,-2 2.5445,0 5.5567,-1.46827 8.7191,-4.25 1.0942,-0.9625 2.7204,-1.75 3.6138,-1.75 0.8933,0 3.9816,-1.13724 6.8629,-2.5272 2.8812,-1.38996 5.6344,-2.28262 6.118,-1.98369 0.4837,0.29893 1.1621,0.0862 1.5076,-0.4728 0.3454,-0.55897 1.484,-1.01631 2.5301,-1.01631 1.0461,0 2.7071,-0.83092 3.691,-1.84649 0.9839,-1.01557 3.2515,-2.47542 5.039,-3.24411 1.7875,-0.76869 3.25,-1.737773 3.25,-2.153513 0,-0.41574 0.9,-0.75589 2,-0.75589 1.1,0 2,-0.37396 2,-0.83102 0,-0.45706 1.2375,-1.46884 2.75,-2.24841 3.7597,-1.93782 3.9626,-2.35922 3.7184,-7.722607 -0.1889,-4.14986 0.1402,-4.98501 2.8211,-7.15837 2.36,-1.91323 4.0552,-2.41796 7.6227,-2.26953 4.388,0.18256 4.6633,0.0284 6.3228,-3.53959 0.9543,-2.05176 2.6089,-5.08047 3.6769,-6.73047 1.068,-1.65 1.9748,-3.81752 2.015,-4.81672 0.04,-0.9992 1.1981,-3.29167 2.5731,-5.09439 1.375,-1.80272 2.5,-3.7977 2.5,-4.43328 0,-0.63559 0.45,-1.15561 1,-1.15561 0.55,0 1,-0.9 1,-2 0,-1.1 0.45,-2 1,-2 0.55,0 1,-0.9 1,-2 0,-1.1 0.45,-2 1,-2 0.55,0 1,-0.9 1,-2 0,-1.1 0.45,-2 1,-2 0.55,0 1,-0.612204 1,-1.360453 0,-0.748249 1.1656,-3.078146 2.5903,-5.177548 l 2.5904,-3.817094 -2.3404,-1.800217 c -1.2872,-0.990119 -2.9028,-1.810222 -3.5903,-1.822452 -0.6875,-0.01223 -1.26,-0.584736 -1.2723,-1.272236 -0.012,-0.6875 -0.9022,-2.375 -1.9777,-3.75 -2.0341,-2.600426 -2.7452,-9 -1,-9 0.55,0 1,-0.9 1,-2.0000001 0,-1.1 0.3975,-2 0.8833,-2 0.4859,0 1.1095,-0.864681 1.3859,-1.921512 C 677.08403,2.9606399 684.51283,0 691.52063,0 c 3.3801,0 6.483,0.3375 6.8955,0.75 0.4125,0.4125 1.05,0.772121 1.4167,0.799157 4.9146,0.362381 10.4949,5.1344919 13.39,11.450843 2.4358,5.31409 2.5501,17.603682 0.2059,22.136795 -0.7861,1.520137 -1.4292,4.136232 -1.4292,5.813545 0,1.677313 -0.45,3.04966 -1,3.04966 -0.55,0 -1,0.9 -1,2 0,1.1 -0.45,2 -1,2 -0.55,0 -1,0.906106 -1,2.01357 0,1.10746 -0.41,2.79496 -0.9111,3.75 -3.9373,7.50413 -10.0369,21.32702 -10.5794,23.97496 -0.3649,1.7812 -1.0788,3.49525 -1.5865,3.80902 -0.5077,0.31377 -0.923,1.48696 -0.923,2.6071 0,1.12013 -0.9173,3.32475 -2.0383,4.89914 l -2.0383,2.86253 3.0383,2.707137 c 2.6045,2.32067 3.0383,3.40831 3.0383,7.618763 0,4.12403 -0.4811,5.39269 -3,7.91163 -2.4924,2.49236 -3,3.80484 -3,7.75641 0,2.61602 0.3084,5.06481 0.6853,5.44174 1.0973,1.09725 3.2832,7.9466 3.2996,10.33898 0.01,1.20504 0.4651,2.4691 1.0151,2.80902 0.55,0.33992 1,1.4398 1,2.44418 0,2.49677 3.0857,12.21118 4.4647,14.05582 0.6168,0.825 1.7063,3.3 2.4211,5.5 2.0106,6.18788 3.5301,9.5 4.3583,9.5 0.4157,0 0.7559,1.25066 0.7559,2.77924 0,1.63207 0.8255,3.37425 2,4.22076 1.1,0.79284 2,2.26808 2,3.27832 0,1.01023 1.052,3.72339 2.3378,6.02924 2.4902,4.46572 3.7981,8.80783 3.7328,12.39288 -0.022,1.21024 0.4031,2.4743 0.9447,2.80902 0.5416,0.33471 0.9847,2.13046 0.9847,3.99054 0,1.86008 0.45,3.66008 1,4 1.2397,0.76617 1.3403,18.5 0.105,18.5 -0.8203,0 -1.6487,3.75665 -2.5358,11.5 -0.1891,1.65 -0.583,3.675 -0.8754,4.5 -0.5577,1.57356 -1.6081,6.2883 -2.0562,9.22963 -0.145,0.95129 -0.5727,2.03879 -0.9506,2.41667 -0.3779,0.37787 -0.687,1.96814 -0.687,3.53394 0,1.56579 -0.4206,3.62829 -0.9345,4.58333 -0.514,0.95504 -1.5239,3.19893 -2.2442,4.98643 -0.7202,1.7875 -1.6497,3.25 -2.0654,3.25 -0.4158,0 -0.7559,0.9 -0.7559,2 0,1.1 -0.45,2 -1,2 -0.55,0 -1,1.35 -1,3 0,2.01672 -0.4979,3 -1.5191,3 -1.1025,0 -1.3545,0.65564 -0.919,2.39091 0.3301,1.31499 0.1137,2.69155 -0.4809,3.05901 -0.5946,0.36746 -1.081,2.80156 -1.081,5.4091 0,2.60754 -0.4106,5.16848 -0.9123,5.69098 -0.5017,0.5225 -1.3766,3.65 -1.9441,6.95 -0.5675,3.3 -1.529,8.025 -2.1366,10.5 -1.2878,5.24559 -1.2904,5.35337 -0.5472,22.9722 l 0.5682,13.47219 3.486,3.56997 c 1.9173,1.96348 3.5111,4.45099 3.5418,5.5278 0.032,1.13352 2.3069,3.73387 5.4024,6.17609 3.1284,2.46811 6.1132,5.89077 7.1942,8.24945 1.4847,3.2395 2.3386,4.0017 4.3476,3.88095 5.5179,-0.33163 7,0.12384 7,2.15135 0,1.16604 0.6666,2 1.5988,2 0.8793,0 2.8598,1.35 4.4012,3 2.7291,2.92154 6,4.01183 6,2 0,-2.01183 3.2708,-0.92154 6,2 1.5413,1.65 3.5218,3 4.4012,3 0.8793,0 1.5988,0.45 1.5988,1 0,0.55 2.25,1 5,1 2.75,0 5,0.45 5,1 0,0.55 0.8006,1 1.7792,1 0.9786,0 2.4279,0.9 3.2208,2 0.7928,1.1 2.0376,2 2.7662,2 1.717,0 6.2338,4.51678 6.2338,6.23379 0,0.72858 0.9,1.97337 2,2.76621 1.1,0.79284 2,2.14284 2,3 0,0.85716 0.9,2.20716 2,3 1.1,0.79284 2,2.14284 2,3 0,0.85716 0.9,2.20716 2,3 1.5199,1.09551 2,2.58869 2,6.22076 0,2.62858 0.45,4.77924 1,4.77924 0.55,0 1,1.35 1,3 0,1.65 -0.45,3 -1,3 -0.55,0 -1,0.9 -1,2 0,1.1 0.45,2 1,2 0.55,0 1,0.9 1,2 0,1.1 -0.45,2 -1,2 -1.457,0 -1.2275,7.7272 0.25,8.41667 1,0.46666 1,0.7 0,1.16666 -0.975,0.45501 -1.25,11.34445 -1.25,49.5 0,31.94445 -0.347,48.91667 -1,48.91667 -0.55,0 -1,0.9 -1,2 0,1.1 0.45,2 1,2 0.55,0 1,0.9 1,2 0,1.1 -0.45,2 -1,2 -0.6154,0 -1,5 -1,13 0,8 -0.3847,13 -1,13 -0.5715,0 -1,3 -1,7 0,4 0.4285,7 1,7 1.4868,0 1.2515,9.73125 -0.25,10.34054 -0.9438,0.38294 -0.8825,0.7895 0.25,1.65946 1.1325,0.86996 1.1937,1.27652 0.25,1.65946 -1.5311,0.62123 -1.7702,14.34054 -0.25,14.34054 0.5714,0 1,3 1,7 0,4 0.4285,7 1,7 0.6333,0 1,7.33333 1,20 0,12.66667 0.3666,20 1,20 0.6508,0 1,14.66667 1,42 0,27.33333 0.3492,42 1,42 0.55,0 1,0.9 1,2 0,1.1 -0.45,2 -1,2 -0.6,0 -1,4 -1,10 0,6 -0.4,10 -1,10 -0.55,0 -1,2.25 -1,5 0,2.75 -0.45,5 -1,5 -0.55,0 -1,1.35 -1,3 0,1.65 -0.45,3 -1,3 -0.55,0 -1,1.35 -1,3 0,1.65 0.45,3 1,3 0.6219,0 1,5.63889 1,14.91667 0,10.95555 0.3319,15.07157 1.25,15.5 1,0.46666 1,0.7 0,1.16666 -1.5137,0.70638 -1.7495,12.41667 -0.25,12.41667 0.6222,0 1,5.66667 1,15 0,9.33333 0.3777,15 1,15 0.5714,0 1,3 1,7 0,4 0.4285,7 1,7 0.55,0 1,2.25 1,5 0,2.75 0.45,5 1,5 0.55,0 1,2.25 1,5 0,2.75 0.45,5 1,5 0.5555,0 1,2.66667 1,6 0,3.33333 0.4444,6 1,6 0.5833,0 1,3.33333 1,8 0,4.66667 0.4166,8 1,8 0.55,0 1,1.35 1,3 0,1.65 0.45,3 1,3 0.55,0 1,2.25 1,5 0,2.75 0.45,5 1,5 0.5833,0 1,3.3333 1,8 0,4.6667 0.4166,8 1,8 0.6111,0 1,4.6667 1,12.00001 0,7.33329 -0.3889,11.99999 -1,11.99999 -0.55,0 -1,2.25 -1,5 0,2.75 0.45,5 1,5 0.5714,0 1,3 1,7 0,4 0.4285,7 1,7 1.4493,0 1.2303,3.7507 -0.25,4.282 -0.8479,0.3044 -0.5262,1.0927 1,2.4507 2.2936,2.0407 3.0593,5.2673 1.25,5.2673 -0.55,0 -1,0.9 -1,2 0,1.1 0.45,2 1,2 0.5555,0 1,2.6667 1,6 0,3.3333 0.4444,6 1,6 0.5926,0 1,3.6667 1,9 0,5.3333 0.4074,9 1,9 0.55,0 1,2.25 1,5 0,2.75 0.45,5 1,5 0.55,0 1,1.1571 1,2.5714 0,2.677 -2.0275,5.4286 -4,5.4286 -1.9725,0 -4,2.7516 -4,5.4286 0,1.4143 0.45,2.5714 1,2.5714 0.55,0 1,1.35 1,3 0,1.65 0.45,3 1,3 0.55,0 1,1.8 1,4 0,2.2 0.45,4 1,4 0.55,0 1,2.25 1,5 0,2.75 0.45,5 1,5 0.5555,0 1,2.6667 1,6 0,3.3333 0.4444,6 1,6 0.5833,0 1,3.3333 1,8 0,4.6667 0.4166,8 1,8 0.55,0 1,1.8 1,4 0,2.2 0.45,4 1,4 0.55,0 1,1.8 1,4 0,2.2 -0.45,4 -1,4 -0.55,0 -1,0.9 -1,2 0,1.1 -0.45,2 -1,2 -0.55,0 -1,0.45 -1,1 0,0.55 0.7071,1 1.5714,1 0.8643,0 2.2143,0.6429 3,1.4286 1.6152,1.6152 1.963,8.5714 0.4286,8.5714 -0.55,0 -1,0.9 -1,2 0,1.1 0.45,2 1,2 0.55,0 1,0.9 1,2 0,1.1 0.45,2 1,2 0.55,0 1,2.25 1,5 0,2.75 0.45,5 1,5 0.55,0 1,1.35 1,3 0,1.65 0.45,3 1,3 0.55,0 1,0.9 1,2 0,1.1 0.45,2 1,2 0.55,0 1,1.35 1,3 0,1.65 0.45,3 1,3 0.55,0 1,1.1695 1,2.5988 0,1.5981 1.1551,3.6779 3,5.4012 1.65,1.5413 3,3.5219 3,4.4012 0,0.8793 0.45,1.5988 0.99999,1.5988 0.55,0 1,0.8007 1,1.7792 0,0.9786 0.9,2.428 2,3.2208 1.1,0.7928 2,2.2422 2,3.2208 0,0.9785 0.45,1.7792 1,1.7792 0.55,0 1,0.9 1,2 0,1.1 0.45,2 1,2 0.55,0 1,1.8 1,4 0,2.2 0.45,4 1,4 0.55,0 1,0.9 1,2 0,1.1 0.45,2 1,2 0.55,0 1,1.35 1,3 0,1.65 0.45,3 1,3 0.55,0 1,0.9 1,2 0,1.1 0.45,2 1,2 0.55,0 1,1.35 1,3 0,1.65 0.45,3 1,3 0.55,0 1,1.8 1,4 0,2.2 0.45,4 1,4 0.55,0 1,1.35 1,3 0,1.65 0.45,3 1,3 0.55,0 1,1.35 1,3 0,1.65 0.45,3 1,3 0.55,0 1,1.8 1,4 0,2.2 0.45,4 1,4 0.55,0 1,2.25 1,5 0,2.75 0.45,5 1,5 0.55,0 1,2.25 1,5 0,2.75 0.45,5 1,5 0.55,0 1,2.25 1,5 0,2.75 0.45,5 1,5 0.5555,0 1,2.6667 1,6 0,3.3333 0.4444,6 1,6 0.606,0 1,4.3333 1,11 0,6.6667 0.3939,11 1,11 0.6444,0 1,10.6667 1,30 0,19.3333 0.3555,30 1,30 0.619,0 1,5.3333 1,14 0,8.6667 0.3809,14 1,14 0.55,0 1,1.35 1,3 0,1.65 0.45,3 1,3 0.55,0 1,0.9 1,2 0,1.1 0.45,2 1,2 0.55,0 1,1.8 1,4 0,2.2 0.45,4 1,4 0.5926,0 1,3.6667 1,9 0,5.3333 0.4074,9 1,9 0.55,0 1,1.35 1,3 0,1.65 0.45,3 1,3 0.55,0 1,1.35 1,3 0,1.65 0.45,3 1,3 0.55,0 1,0.9 1,2 0,1.1 0.45,2 1,2 0.55,0 1,0.9 1,2 0,1.1 0.45,2 1,2 0.55,0 1,0.9 1,2 0,1.1 0.45,2 1,2 0.55,0 1,0.9 1,2 0,1.1 0.45,2 1,2 0.55,0 1,0.9 1,2 0,1.1 0.45,2 1,2 0.55,0 1,0.8007 1,1.7792 0,0.9786 0.9,2.428 2,3.2208 1.1,0.7928 2,2.2422 2,3.2208 0,0.9785 0.45,1.7792 1,1.7792 0.55,0 1,1.8 1,4 0,2.2 0.45,4 1,4 0.5555,0 1,2.6667 1,6 0,3.3333 0.4444,6 1,6 0.55,0 1,0.9 1,2 0,1.1 -0.45,2 -1,2 -0.55,0 -1,1.8 -1,4 0,2.2 -0.45,4 -1,4 -0.55,0 -1,0.9 -1,2 0,1.1 -0.45,2 -1,2 -0.55,0 -1,0.6848 -1,1.5217 0,2.618 -10.6505,12.4783 -13.4783,12.4783 -1.387,0 -2.5217,0.45 -2.5217,1 0,0.55 -0.9,1 -2,1 -1.1,0 -2,0.45 -2,1 0,0.6222 -5.6667,1 -15,1 -9.3334,0 -15,-0.3778 -15,-1 0,-0.55 -2.25,-1 -5,-1 -2.75,0 -5,-0.45 -5,-1 0,-0.55 -1.6195,-1 -3.5988,-1 -2.7093,0 -4.29149,-0.7416 -6.40119,-3 -1.5414,-1.65 -3.5219,-3 -4.4012,-3 -0.8794,0 -1.5988,-0.45 -1.5988,-1 0,-0.6111 -4.6667,-1 -12,-1 -7.3334,0 -12,-0.3889 -12,-1 0,-0.625 -6,-1 -16,-1 -10,0 -16,-0.375 -16,-1 0,-0.55 -0.9,-1 -2,-1 -1.1,0 -2,-0.45 -2,-1 0,-0.55 -1.35,-1 -3,-1 -1.65,0 -3,-0.45 -3,-1 0,-0.55 -2.25,-1 -5,-1 -2.75,0 -5,-0.45 -5,-1 0,-0.55 -0.9,-1 -2,-1 -1.1,0 -2,-0.45 -2,-1 0,-0.55 -0.9,-1 -2,-1 -1.1,0 -2,-0.45 -2,-1 0,-0.55 -0.8007,-1 -1.7793,-1 -0.9786,0 -2.4279,-0.9 -3.2207,-2 -0.7929,-1.1 -2.0617,-2 -2.8196,-2 -0.7579,0 -2.6391,-1.35 -4.1804,-3 -1.5414,-1.65 -3.3052,-3 -3.9198,-3 -1.6911,0 -14.0802,-12.7422 -14.0802,-14.4815 0,-0.8352 -0.45,-1.5185 -1,-1.5185 -0.55,0 -1,-0.9 -1,-2 0,-1.1 -0.45,-2 -1,-2 -0.55,0 -1,-0.9 -1,-2 0,-1.1 -0.45,-2 -1,-2 -0.55,0 -1,-0.9 -1,-2 0,-1.1 -0.45,-2 -1,-2 -0.5834,0 -1,-3.3333 -1,-8 0,-4.6667 0.4166,-8 1,-8 0.55,0 1,-0.6955 1,-1.5455 0,-2.4299 4.6481,-6.4545 7.4545,-6.4545 1.4,0 2.5455,-0.45 2.5455,-1 0,-0.55 2.25,-1 5,-1 2.75,0 5,-0.45 5,-1 0,-0.55 2.25,-1 5,-1 2.75,0 5,0.45 5,1 0,0.55 2.2125,1 4.9166,1 2.9556,0 5.1494,0.4986 5.5,1.25 0.4667,1 0.7,1 1.1667,0 0.6903,-1.4791 6.4167,-1.7022 6.4167,-0.25 0,0.5714 3,1 7,1 4,0 7,0.4286 7,1 0,0.55 0.9,1 2,1 1.1,0 2,0.45 2,1 0,0.55 0.45,1 1,1 0.55,0 1,-0.9 1,-2 0,-1.5556 0.6666,-2 3,-2 1.65,0 3,0.45 3,1 0,0.55 0.9,1 2,1 1.1515,0 2,-0.6667 2,-1.5714 0,-0.8643 0.6428,-2.2143 1.4285,-3 1.6389,-1.6389 4.5715,-1.9138 4.5715,-0.4286 0,0.55 2.25,1 5,1 2.75,0 5,-0.45 5,-1 0,-0.55 1.35,-1 3,-1 1.65,0 3,-0.45 3,-1 0,-0.55 0.9,-1 2,-1 1.1,0 2,-0.45 2,-1 0,-0.55 1.1454,-1 2.5454,-1 3.2764,0 7.4546,-4.1781 7.4546,-7.4545 0,-1.4 -0.45,-2.5455 -1,-2.5455 -0.5926,0 -1,-3.6667 -1,-9 0,-5.3333 -0.4074,-9 -1,-9 -0.55,0 -1,-1.35 -1,-3 0,-1.65 -0.45,-3 -1,-3 -0.55,0 -1,-1.8 -1,-4 0,-2.2 -0.45,-4 -1,-4 -0.55,0 -1,-1.8 -1,-4 0,-2.2 -0.45,-4 -1,-4 -0.55,0 -1,-0.9 -1,-2 0,-1.1 -0.45,-2 -1,-2 -0.55,0 -1,-2.25 -1,-5 0,-2.75 -0.45,-5 -1,-5 -0.55,0 -1,-1.8 -1,-4 0,-2.2 -0.45,-4 -1,-4 -0.55,0 -1,-1.35 -1,-3 0,-1.65 -0.45,-3 -1,-3 -0.55,0 -1,-0.8625 -1,-1.9167 0,-1.0541 -0.5625,-2.1791 -1.25,-2.5 -1,-0.4666 -1,-0.7 0,-1.1666 1.4791,-0.6903 1.7022,-6.4167 0.25,-6.4167 -1.4523,0 -1.2292,-5.7264 0.25,-6.4167 1,-0.4666 1,-0.7 0,-1.1666 -0.6875,-0.3209 -1.25,-1.2561 -1.25,-2.0784 0,-0.8223 -1.8,-3.2245 -4,-5.3383 -2.2,-2.1138 -4,-4.5535 -4,-5.4216 0,-0.8681 -0.45,-1.5784 -1,-1.5784 -0.55,0 -1,-1.1695 -1,-2.5988 0,-1.5981 -1.1552,-3.6779 -3,-5.4012 -1.65,-1.5413 -3,-3.5219 -3,-4.4012 0,-0.8793 -0.45,-1.5988 -1,-1.5988 -0.55,0 -1,-1.35 -1,-3 0,-1.65 -0.45,-3 -1,-3 -0.55,0 -1,-0.8007 -1,-1.7792 0,-0.9786 -0.9,-2.428 -2,-3.2208 -1.1,-0.7928 -2,-2.2422 -2,-3.2208 0,-0.9785 -0.45,-1.7792 -1,-1.7792 -0.55,0 -1,-1.2507 -1,-2.7792 0,-1.6321 -0.8256,-3.3743 -2,-4.2208 -1.1,-0.7928 -2,-2.2422 -2,-3.2208 0,-0.9785 -0.45,-1.7792 -1,-1.7792 -0.55,0 -1,-0.9 -1,-2 0,-1.1 -0.45,-2 -1,-2 -0.55,0 -1,-0.9 -1,-2 0,-1.1 -0.45,-2 -1,-2 -0.55,0 -1,-0.9 -1,-2 0,-1.1 -0.45,-2 -1,-2 -0.55,0 -1,-0.9 -1,-2 0,-1.1 -0.45,-2 -1,-2 -0.55,0 -1,-0.9 -1,-2 0,-1.1 -0.45,-2 -1,-2 -0.55,0 -1,-0.9 -1,-2 0,-1.1 -0.45,-2 -1,-2 -0.55,0 -1,-0.9 -1,-2 0,-1.1 -0.45,-2 -1,-2 -0.55,0 -1,-1.7007 -1,-3.7792 0,-2.6321 -0.6071,-4.2168 -2,-5.2208 -1.1745,-0.8465 -2,-2.5887 -2,-4.2208 0,-1.5285 -0.45,-2.7792 -1,-2.7792 -0.55,0 -1,-1.8 -1,-4 0,-2.2 -0.45,-4 -1,-4 -0.55,0 -1,-0.9 -1,-2 0,-1.1 -0.45,-2 -1,-2 -0.55,0 -1,-0.9 -1,-2 0,-1.1 -0.45,-2 -1,-2 -0.55,0 -1,-1.35 -1,-3 0,-1.65 -0.45,-3 -1,-3 -0.55,0 -1,-1.35 -1,-3 0,-1.65 -0.45,-3 -1,-3 -0.55,0 -1,-0.9 -1,-2 0,-1.1 -0.45,-2 -1,-2 -0.55,0 -1,-1.8 -1,-4 0,-2.2 -0.45,-4 -1,-4 -0.55,0 -1,-1.8 -1,-4 0,-2.2 -0.45,-4 -1,-4 -0.55,0 -1,-2.25 -1,-5 0,-2.75 -0.45,-5 -1,-5 -0.6037,0 -1,-4.1928 -1,-10.5784 l 0,-10.5784 -4,-3.8432 c -2.2,-2.1138 -4,-4.516 -4,-5.3383 0,-0.8223 -0.5625,-1.7575 -1.25,-2.0784 -1,-0.4666 -1,-0.7 0,-1.1666 1.4774,-0.6895 1.7069,-8.4167 0.25,-8.4167 -0.55,0 -1,-0.9 -1,-2 0,-1.1 -0.45,-2 -1,-2 -0.55,0 -1,-0.9 -1,-2 0,-1.1 -0.45,-2 -1,-2 -0.55,0 -1,-0.9 -1,-2 0,-1.1 -0.45,-2 -1,-2 -0.55,0 -1,-0.9 -1,-2 0,-1.1 -0.45,-2 -1,-2 -0.55,0 -1,-0.7103 -1,-1.5784 0,-0.8681 -1.8,-3.3078 -4,-5.4216 -2.2,-2.1138 -4,-4.5535 -4,-5.4216 0,-0.8681 -0.6848,-1.5784 -1.5218,-1.5784 -1.7461,0 -12.4782,-10.3871 -12.4782,-12.0771 0,-0.6162 -1.35,-2.3816 -3,-3.9229 -1.65,-1.5413 -3,-3.5219 -3,-4.4012 0,-0.8793 -0.45,-1.5988 -1,-1.5988 -0.55,0 -1,-0.9 -1,-2 0,-1.1 -0.45,-2 -1,-2 -0.55,0 -1,-1.35 -1,-3 0,-1.65 -0.45,-3 -1,-3 -0.55,0 -1,-0.9 -1,-2 0,-1.5556 -0.6667,-2 -3,-2 -1.65,0 -3,0.45 -3,1 0,0.5556 -2.6667,1 -6,1 -3.3334,0 -6,0.4444 -6,1 0,0.55 -2.25,1 -5,1 -2.75,0 -5,0.45 -5,1 0,0.625 -6,1 -16,1 -15.3334,0 -16,0.083 -16,2 0,1.2506 -0.6667,2 -1.7793,2 -0.9786,0 -2.4279,0.9 -3.2207,2 -0.7929,1.1 -2.2422,2 -3.2208,2 -0.9786,0 -1.7792,0.45 -1.7792,1 0,0.55 -1.35,1 -3,1 -1.65,0 -3,0.45 -3,1 0,0.5703 -2.9723,1 -6.9167,1 -4.5556,0 -7.1158,0.4267 -7.5,1.25 -0.4667,1 -0.7,1 -1.1667,0 -0.6894,-1.4774 -8.4166,-1.707 -8.4166,-0.25 0,0.55 -0.9,1 -2,1 -1.1,0 -2,-0.45 -2,-1 0,-0.55 -1.35,-1 -3,-1 -1.65,0 -3,-0.45 -3,-1 0,-0.55 -0.9,-1 -2,-1 -1.1,0 -2,-0.45 -2,-1 0,-0.55 -0.7195,-1 -1.5988,-1 -0.8794,0 -2.8599,-1.35 -4.4012,-3 -1.974,-2.1131 -3.7396,-3 -5.9727,-3 -3.1539,0 -6.0273,1.8769 -6.0273,3.937 0,1.5403 -28.7199,30.063 -30.2708,30.063 -0.7082,0 -1.9364,0.9 -2.7292,2 -0.7929,1.1 -2.2422,2 -3.2208,2 -1.4091,0 -1.7792,0.8321 -1.7792,4 0,2.2 -0.45,4 -1,4 -0.55,0 -1,1.35 -1,3 0,1.65 -0.45,3 -1,3 -0.55,0 -1,0.9 -1,2 0,1.1 -0.45,2 -1,2 -0.5926,0 -1,3.6667 -1,9 0,5.3333 -0.4074,9 -1,9 -0.55,0 -1,0.9 -1,2 0,1.1 -0.45,2 -1,2 -0.5715,0 -1,3 -1,7 0,4 -0.4286,7 -1,7 -0.6,0 -1,4 -1,10 0,6 -0.4,10 -1,10 -0.5926,0 -1,3.6667 -1,9 0,5.3333 -0.4074,9 -1,9 -0.5834,0 -1,3.3333 -1,8 0,4.6667 -0.4167,8 -1,8 -0.55,0 -1,1.8 -1,4 0,2.2 -0.45,4 -1,4 -0.55,0 -1,1.8 -1,4 0,2.2 -0.45,4 -1,4 -0.55,0 -1,1.8 -1,4 0,2.2 -0.45,4 -1,4 -0.55,0 -1,1.8 -1,4 0,2.2 -0.45,4 -1,4 -0.55,0 -1,0.9 -1,2 0,1.1 -0.45,2 -1,2 -0.55,0 -1,1.8 -1,4 0,2.2 -0.45,4 -1,4 -0.55,0 -1,1.35 -1,3 0,1.65 -0.45,3 -1,3 -0.55,0 -1,2.25 -1,5 0,2.75 -0.45,5 -1,5 -0.55,0 -1,0.9 -1,2 0,1.1 -0.45,2 -1,2 -0.55,0 -1,0.9 -1,2 0,1.1 -0.45,2 -1,2 -0.55,0 -1,1.35 -1,3 0,1.65 -0.45,3 -1,3 -0.55,0 -1,0.8007 -1,1.7792 0,0.9786 -0.9,2.428 -2,3.2208 -1.1,0.7928 -2,2.2422 -2,3.2208 0,0.9785 -0.45,1.7792 -1,1.7792 -0.55,0 -1,0.9 -1,2 0,1.1 -0.45,2 -1,2 -0.55,0 -1,0.9 -1,2 0,1.1 -0.45,2 -1,2 -0.55,0 -1,0.8007 -1,1.7792 0,0.9786 -0.9,2.428 -2,3.2208 -1.1,0.7928 -2,2.1428 -2,3 0,0.8572 -0.9,2.2072 -2,3 -1.1,0.7928 -2,2.5025 -2,3.7992 0,1.4433 -1.5512,3.8479 -4,6.2008 -2.2,2.1138 -4,4.5535 -4,5.4216 0,0.8681 -0.45,1.5784 -1,1.5784 -0.55,0 -1,0.9 -1,2 0,1.3333 -0.6667,2 -2,2 -1.487,0 -2,0.6667 -2,2.5988 0,1.5981 -1.1552,3.6779 -3,5.4012 -1.65,1.5413 -3,3.4225 -3,4.1805 0,0.7579 -0.9,2.0267 -2,2.8195 -1.1,0.7928 -2,2.2422 -2,3.2208 0,0.9785 -0.45,1.7792 -1,1.7792 -0.55,0 -1,0.7103 -1,1.5784 0,0.8681 -1.8,3.3078 -4,5.4216 -2.2,2.1138 -4,4.3489 -4,4.9671 0,1.6668 -4.6713,6.0329 -6.4546,6.0329 -0.8788,0 -1.5454,0.8627 -1.5454,2 0,1.1 -0.45,2 -1,2 -0.55,0 -1,0.8007 -1,1.7792 0,0.9786 -0.9,2.428 -2,3.2208 -1.1,0.7928 -2,2.1428 -2,3 0,0.8572 -0.9,2.2072 -2,3 -1.1,0.7928 -2,2.1428 -2,3 0,0.8572 -0.9,2.2072 -2,3 -1.312,0.9456 -2,2.5887 -2,4.7761 0,2.7685 -1.0582,4.3733 -6.2323,9.4519 -3.5664,3.5005 -5.7051,6.2929 -5,6.5279 0.6778,0.2259 1.2323,1.2733 1.2323,2.3274 0,1.0542 0.45,1.9167 1,1.9167 0.55,0 1,0.9 1,2 0,1.1 -0.45,2 -1,2 -0.55,0 -1,1.35 -1,3 0,2.3333 -0.4445,3 -2,3 -1.3334,0 -2,0.6667 -2,2 0,1.1 0.45,2 1,2 0.55,0 1,2.25 1,5 0,2.75 -0.45,5 -1,5 -0.55,0 -1,1.35 -1,3 0,1.65 0.45,3 1,3 0.55,0 1,0.9 1,2 0,1.1 0.45,2 1,2 0.6182,0 1,5.2597 1,13.7792 0,12.6321 0.1665,13.8993 2,15.2208 1.1744,0.8465 2,2.5887 2,4.2208 0,1.5285 0.45,2.7792 1,2.7792 0.619,0 1,5.3333 1,14 0,8.6667 -0.381,14 -1,14 -0.55,0 -1,2.25 -1,5 0,2.75 -0.45,5 -1,5 -0.55,0 -1,0.69 -1,1.5333 0,1.9904 -6.4763,8.4667 -8.4667,8.4667 -0.8433,0 -1.5333,0.45 -1.5333,1 0,0.55 -2.25,1 -5,1 -2.75,0 -5,0.45 -5,1 0,0.6 -4,1 -10,1 -6,0 -10,-0.4 -10,-1 0,-0.625 -6,-1 -16,-1 -10,0 -16,0.375 -16,1 0,0.55 -1.35,1 -3,1 -1.65,0 -3,0.45 -3,1 0,0.5926 -3.6667,1 -9,1 -5.3334,0 -9,0.4074 -9,1 0,0.5556 -2.6667,1 -6,1 -3.33336,0 -6.00003,0.4444 -6.00003,1 0,0.5556 -2.66667,1 -6,1 -3.33333,0 -6,-0.4444 -6,-1 0,-0.55 -1.35,-1 -3,-1 -1.65,0 -3,0.45 -3,1 0,0.6429 -10,1 -28,1 -18,0 -28,-0.3571 -28,-1 z M 391.00003,438 c 1.0955,-1.51994 2.5887,-2 6.2207,-2 2.6286,0 4.7793,-0.45 4.7793,-1 0,-0.55 2.25,-1 5,-1 2.75,0 5,0.45 5,1 0,0.55 0.9,1 2,1 1.1,0 2,0.45 2,1 0,0.55 1.35,1 3,1 1.65,0 3,0.45 3,1 0,2.07204 3.309,0.88147 6.2535,-2.25 1.9311,-2.05371 3.2138,-2.78989 3.4846,-2 0.6783,1.97846 2.2619,1.45337 2.2619,-0.75 0,-1.66667 -0.6667,-2 -4,-2 -2.2,0 -4,0.45 -4,1 0,0.55 -1.35,1 -3,1 -1.65,0 -3,-0.45 -3,-1 0,-0.55 -1.2507,-1 -2.7793,-1 -1.632,0 -3.3742,-0.82553 -4.2207,-2 -0.8465,-1.17447 -2.5887,-2 -4.2208,-2 -1.5286,0 -2.7792,-0.45 -2.7792,-1 0,-0.55 -0.9,-1 -2,-1 -1.1,0 -2,-0.45 -2,-1 0,-0.55 -1.35,-1 -3,-1 -1.65,0 -3,-0.45 -3,-1 0,-0.55 -1.8,-1 -4,-1 -2.2,0 -4,-0.45 -4,-1 0,-0.55 -0.9,-1 -2,-1 -1.1,0 -2,-0.45 -2,-1 0,-0.55 -1.35,-1 -3,-1 -1.65,0 -3,-0.45 -3,-1 0,-0.55 -1.35,-1 -3,-1 -1.65,0 -3,-0.45 -3,-1 0,-0.55 -1.35,-1 -3,-1 -1.65,0 -3,-0.45 -3,-1 0,-0.55 -1.35,-1 -3,-1 -1.65,0 -3,-0.45 -3,-1 0,-0.55 -1.35,-1 -3,-1 -1.65,0 -3,-0.45 -3,-1 0,-0.55 -0.9,-1 -2,-1 -1.1,0 -2,-0.45 -2,-1 0,-0.55 -1.35,-1 -3,-1 -1.65,0 -3,-0.45 -3,-1 0,-0.55 -1.35,-1 -3,-1 -1.65,0 -3,-0.45 -3,-1 0,-0.55 -0.9,-1 -2,-1 -1.1,0 -2,-0.45 -2,-1 0,-0.55 -0.9,-1 -2,-1 -1.1,0 -2,-0.45 -2,-1 0,-1.30563 -3.6977,-1.29828 -4.5056,0.009 -1.2555,2.03142 0.5937,4.99105 3.1184,4.99105 3.1653,0 8.2835,4.82802 6.3711,6.00992 -2.1444,1.32531 1.3444,3.99008 5.2239,3.99008 2.2035,0 3.8442,0.68474 4.7922,2 0.7928,1.1 2.0616,2 2.8195,2 0.7579,0 2.6391,1.35 4.1805,3 1.5413,1.65 3.5218,3 4.4012,3 0.8793,0 1.5988,0.45 1.5988,1 0,0.55 0.9,1 2,1 1.1,0 2,0.45 2,1 0,0.55 0.9,1 2,1 1.1,0 2,0.45 2,1 0,0.55 0.9,1 2,1 1.1,0 2,0.45 2,1 0,0.55 0.9,1 2,1 1.1,0 2,0.45 2,1 0,0.55 0.9,1 2,1 1.1,0 2,0.45 2,1 0,0.55 1.35,1 3,1 1.65,0 3,0.45 3,1 0,0.55 0.9,1 2,1 1.1,0 2,0.45 2,1 0,1.62931 1.4543,1.14454 3,-1 z M 106,419.10841 c 0,-0.49038 1.12007,-1.17271 2.48905,-1.51631 1.36898,-0.34359 11.78238,-9.05487 23.14088,-19.3584 11.3585,-10.30354 25.65093,-23.19499 31.76095,-28.64768 6.11001,-5.45269 11.95741,-11.52769 12.9942,-13.5 1.0368,-1.97231 2.2743,-3.73602 2.75,-3.91935 0.47571,-0.18334 0.86492,-2.34129 0.86492,-4.79546 0,-3.40423 -0.58193,-5.04405 -2.45455,-6.91666 C 176.19545,339.10455 174.6,338 174,338 c -1.5352,0 -6,-4.63877 -6,-6.23379 0,-0.72858 -0.9,-1.97337 -2,-2.76621 -1.39291,-1.00395 -2,-2.58869 -2,-5.22076 C 164,321.70066 163.55,320 163,320 c -0.55,0 -1,-0.70714 -1,-1.57143 C 162,316.13309 159.49158,314 156.79219,314 c -1.29287,0 -2.99935,-0.9 -3.79219,-2 -1.07875,-1.49669 -2.58869,-2 -6,-2 -3.41131,0 -4.92125,-0.50331 -6,-2 -0.84651,-1.17447 -2.58869,-2 -4.22076,-2 C 135.25066,306 134,305.55 134,305 c 0,-0.55 -1.8,-1 -4,-1 -2.2,0 -4,-0.45 -4,-1 0,-0.55 -1.35,-1 -3,-1 -1.65,0 -3,-0.45 -3,-1 0,-0.55 -1.35,-1 -3,-1 -1.65,0 -3,-0.45 -3,-1 0,-0.55 -2.25,-1 -5,-1 -2.75,0 -5,-0.45 -5,-1 0,-0.55 -0.9,-1 -2,-1 -1.1,0 -2,-0.45 -2,-1 0,-0.55 -0.9,-1 -2,-1 -1.1,0 -2,-0.45 -2,-1 0,-0.55 -1.35,-1 -3,-1 -1.65,0 -3,-0.45 -3,-1 0,-0.55 -1.8,-1 -4,-1 -2.2,0 -4,-0.45 -4,-1 0,-0.55 -0.35213,-1 -0.78252,-1 -0.43038,0 -0.87547,2.13586 -0.98908,4.74636 -0.11362,2.6105 -0.66148,4.898 -1.21749,5.08334 C 78.45491,298.01503 78,301.27917 78,305.08333 78,309.02778 77.57028,312 77,312 c -0.62222,0 -1,5.66667 -1,15 0,9.33333 0.37778,15 1,15 0.57143,0 1,3 1,7 0,4 0.42857,7 1,7 0.55,0 1,2.25 1,5 0,2.75 0.45,5 1,5 0.55,0 1,1.8 1,4 0,2.2 0.45,4 1,4 0.55,0 1,1.8 1,4 0,2.2 0.45,4 1,4 0.55,0 1,0.9 1,2 0,1.1 0.45,2 1,2 0.55,0 1,0.9 1,2 0,1.1 0.45,2 1,2 0.55,0 1,0.9 1,2 0,1.1 0.45,2 1,2 0.55,0 1,1.35 1,3 0,2.33333 0.44444,3 2,3 1.55556,0 2,0.66667 2,3 0,1.65 0.45,3 1,3 0.55,0 1,0.9 1,2 0,1.1 0.45,2 1,2 0.55,0 1,0.9 1,2 0,1.1 0.45,2 1,2 0.55,0 1,0.69399 1,1.54221 0,1.6395 1.99771,4.35624 3.25,4.41975 0.4125,0.0209 0.75,-0.36318 0.75,-0.85355 z M 468.00003,415 c 0,-0.55 1.35,-1 3,-1 1.65,0 3,-0.45 3,-1 0,-0.55 -0.9,-1 -2,-1 -1.1,0 -2,-0.45 -2,-1 0,-0.55 -1.35,-1 -3,-1 -1.65,0 -3,-0.45 -3,-1 0,-0.55 -0.9,-1 -2,-1 -1.5556,0 -2,0.66667 -2,3 0,2.66667 0.3333,3 3,3 1.65,0 3,0.45 3,1 0,0.55 0.45,1 1,1 0.55,0 1,-0.45 1,-1 z m -42,-12 c 0,-0.55 1.8,-1 4,-1 2.2,0 4,-0.25714 4,-0.57143 0,-1.46325 -3.1118,-3.42857 -5.4286,-3.42857 -1.4143,0 -2.5714,-0.45 -2.5714,-1 0,-0.55 -1.8,-1 -4,-1 -2.2,0 -4,-0.45 -4,-1 0,-0.55 -0.9,-1 -2,-1 -1.1,0 -2,-0.45 -2,-1 0,-0.55 -1.35,-1 -3,-1 -1.65,0 -3,-0.45 -3,-1 0,-0.55 -1.8,-1 -4,-1 -2.2,0 -4,-0.45 -4,-1 0,-0.55 -1.35,-1 -3,-1 -1.65,0 -3,-0.45 -3,-1 0,-0.55 -0.9,-1 -2,-1 -1.1,0 -2,-0.45 -2,-1 0,-0.55 -1.8,-1 -4,-1 -2.2,0 -4,-0.45 -4,-1 0,-0.55 -1.8,-1 -4,-1 -2.2,0 -4,-0.45 -4,-1 0,-0.55 -1.7007,-1 -3.7793,-1 -2.632,0 -4.2168,-0.60709 -5.2207,-2 -0.8465,-1.17447 -2.5887,-2 -4.2208,-2 -1.5286,0 -2.7792,-0.45 -2.7792,-1 0,-0.55 -1.8,-1 -4,-1 -3.6297,0 -4,0.2381 -4,2.57143 0,2.89359 2.068,5.42857 4.4285,5.42857 0.8643,0 1.5715,0.45 1.5715,1 0,0.55 1.35,1 3,1 1.65,0 3,0.45 3,1 0,0.55 1.35,1 3,1 1.65,0 3,0.45 3,1 0,0.55 0.9,1 2,1 1.1,0 2,0.45 2,1 0,0.55 0.9,1 2,1 1.1,0 2,0.45 2,1 0,0.55 1.35,1 3,1 1.65,0 3,0.45 3,1 0,0.55 0.9,1 2,1 1.1,0 2,0.45 2,1 0,0.55 1.8,1 4,1 2.2,0 4,0.45 4,1 0,0.55 1.8,1 4,1 2.2,0 4,0.45 4,1 0,0.55 1.35,1 3,1 1.65,0 3,0.45 3,1 0,0.55 0.9,1 2,1 1.1,0 2,0.45 2,1 0,0.57143 3,1 7,1 4,0 7,-0.42857 7,-1 z m -102,-4 c 0,-0.55 -0.45,-1 -1,-1 -0.55,0 -1,0.45 -1,1 0,0.55 0.45,1 1,1 0.55,0 1,-0.45 1,-1 z m -9.4286,-12.42857 c 0.7857,-0.78572 1.4286,-2.58572 1.4286,-4 0,-1.41429 0.45,-2.57143 1,-2.57143 0.55,0 1,-1.8 1,-4 0,-2.2 0.45,-4 1,-4 0.55,0 1,-1.8 1,-4 0,-3.33333 -0.3334,-4 -2,-4 -1.1,0 -2,-0.45 -2,-1 0,-0.55 -1.7007,-1 -3.7793,-1 -2.632,0 -4.2168,-0.60709 -5.2207,-2 -0.8465,-1.17447 -2.5887,-2 -4.2208,-2 -1.5286,0 -2.7792,-0.45 -2.7792,-1 0,-0.55 -1.35,-1 -3,-1 -1.65,0 -3,-0.45 -3,-1 0,-0.55 -1.8,-1 -4,-1 C 287.8,354 286,353.55 286,353 c 0,-0.55 -1.8,-1 -4,-1 -3.33333,0 -4,0.33333 -4,2 0,1.1 0.45,2 1,2 0.55,0 1,0.9 1,2 0,1.1 0.45,2 1,2 0.55,0 1,1.35 1,3 0,2.54433 0.38502,3 2.53484,3 1.88212,0 5.09189,2.57503 12.46519,10 5.4616,5.5 10.621,10 11.4651,10 0.8442,0 1.5349,0.45 1.5349,1 0,1.48524 2.9325,1.21031 4.5714,-0.42857 z M 230,285 c 0,-0.55 -0.45,-1 -1,-1 -0.55,0 -1,-0.9 -1,-2 0,-1.1 -0.39992,-2 -0.88871,-2 -0.48879,0 -1.17217,-1.6875 -1.51863,-3.75 -0.85808,-5.10827 -41.78632,-103.3774 -43.29995,-103.96362 -0.66401,-0.25717 -2.68901,0.92111 -4.5,2.61839 -1.81099,1.69729 -3.85521,3.08806 -4.54271,3.0906 -0.6875,0.003 -1.25,0.45463 -1.25,1.00463 0,0.55 -0.9,1 -2,1 -1.1,0 -2,0.45 -2,1 0,0.55 -0.71946,1 -1.59879,1 -0.87933,0 -2.85988,1.35 -4.40121,3 -1.54133,1.65 -3.52188,3 -4.40121,3 -0.87933,0 -1.59879,0.45 -1.59879,1 0,0.55 -1.25066,1 -2.77924,1 -1.63207,0 -3.37425,0.82553 -4.22076,2 -0.79284,1.1 -2.14284,2 -3,2 -0.85716,0 -2.20716,0.9 -3,2 -0.79284,1.1 -2.24218,2 -3.22076,2 C 138.80066,198 138,198.69 138,199.53333 138,201.28768 131.62745,208 129.9619,208 128.50522,208 126,210.54661 126,212.02736 c 0,0.64362 -1.35,2.43131 -3,3.97264 -1.65,1.54133 -3,3.33216 -3,3.97961 0,0.64746 -1.8,2.90663 -4,5.02039 -2.63874,2.5353 -4,4.72067 -4,6.4216 0,1.91173 -0.51712,2.5784 -2,2.5784 -1.18336,0 -2,0.66667 -2,1.6327 0,0.89799 -1.0125,2.53358 -2.25,3.63464 -1.52621,1.35793 -1.84789,2.14627 -1,2.45063 0.6875,0.24678 1.25,1.3112 1.25,2.36536 0,1.25 0.69565,1.91667 2,1.91667 1.1,0 2,0.45 2,1 0,0.55 1.8,1 4,1 2.2,0 4,0.45 4,1 0,0.55 1.70066,1 3.77924,1 2.63207,0 4.21681,0.60709 5.22076,2 1.14401,1.58724 2.58869,2 7,2 4.41131,0 5.85599,0.41276 7,2 1.00395,1.39291 2.58869,2 5.22076,2 2.07858,0 3.77924,0.45 3.77924,1 0,0.55 1.35,1 3,1 1.65,0 3,0.45 3,1 0,0.55 1.35,1 3,1 1.65,0 3,0.45 3,1 0,0.55 0.9,1 2,1 1.1,0 2,0.45 2,1 0,0.55 0.9,1 2,1 1.1,0 2,-0.45 2,-1 0,-0.55 0.45,-1 1,-1 0.55,0 1,0.9 1,2 0,1.66667 0.66667,2 4,2 2.2,0 4,0.45 4,1 0,0.55 1.35,1 3,1 1.65,0 3,0.45 3,1 0,0.55 1.35,1 3,1 1.65,0 3,0.45 3,1 0,0.55 1.35,1 3,1 1.65,0 3,0.45 3,1 0,0.55 0.9,1 2,1 1.1,0 2,0.45 2,1 0,0.55 1.8,1 4,1 2.2,0 4,0.45 4,1 0,0.55 1.35,1 3,1 1.65,0 3,0.45 3,1 0,0.55 0.9,1 2,1 1.1,0 2,0.45 2,1 0,0.55 1.35,1 3,1 1.65,0 3,0.45 3,1 0,0.55 0.9,1 2,1 1.1,0 2,-0.45 2,-1 z m 296.00003,-22 c 0,-0.55 -0.45,-1 -1,-1 -0.55,0 -1,0.45 -1,1 0,0.55 0.45,1 1,1 0.55,0 1,-0.45 1,-1 z M 18,259 c 0,-0.55 1.25066,-1 2.77924,-1 1.63207,0 3.37425,-0.82553 4.22076,-2 0.84651,-1.17447 2.58869,-2 4.22076,-2 C 31.33333,254 32,253.52025 32,252 c 0,-1.1 0.45,-2 1,-2 0.55,0 1,-1.35 1,-3 0,-1.65 0.45,-3 1,-3 0.55,0 1,-1.13684 1,-2.52632 0,-1.66268 -1.54605,-4.07236 -4.52256,-7.04887 -3.98936,-3.98936 -4.69674,-4.34837 -6,-3.04511 C 24.66485,232.19229 24,233.99233 24,235.37978 c 0,1.38745 -0.66555,5.07786 -1.479,8.2009 -0.81345,3.12305 -1.22919,6.08246 -0.92388,6.57647 0.30532,0.49402 -0.82913,2.1913 -2.521,3.77174 C 16.09121,256.71721 14.96861,260 17,260 c 0.55,0 1,-0.45 1,-1 z"
     id="path2987"
     inkscape:connector-curvature="0" />
</svg>
