<?xml version="1.0" encoding="UTF-8" standalone="no"?>
<!-- Created with Inkscape (http://www.inkscape.org/) -->

<svg
   xmlns:dc="http://purl.org/dc/elements/1.1/"
   xmlns:cc="http://creativecommons.org/ns#"
   xmlns:rdf="http://www.w3.org/1999/02/22-rdf-syntax-ns#"
   xmlns:svg="http://www.w3.org/2000/svg"
   xmlns="http://www.w3.org/2000/svg"
   xmlns:sodipodi="http://sodipodi.sourceforge.net/DTD/sodipodi-0.dtd"
   xmlns:inkscape="http://www.inkscape.org/namespaces/inkscape"
   id="svg2"
   version="1.1"
   inkscape:version="0.48.2 r9819"
   width="1048.3506"
   height="1582.1814"
   sodipodi:docname="britishforeignar00ashduoft_0359c.png">
  <metadata
     id="metadata8">
    <rdf:RDF>
      <cc:Work
         rdf:about="">
        <dc:format>image/svg+xml</dc:format>
        <dc:type
           rdf:resource="http://purl.org/dc/dcmitype/StillImage" />
        <dc:title></dc:title>
      </cc:Work>
    </rdf:RDF>
  </metadata>
  <defs
     id="defs6" />
  <sodipodi:namedview
     pagecolor="#ffffff"
     bordercolor="#666666"
     borderopacity="1"
     objecttolerance="10"
     gridtolerance="10"
     guidetolerance="10"
     inkscape:pageopacity="0"
     inkscape:pageshadow="2"
     inkscape:window-width="1600"
     inkscape:window-height="876"
     id="namedview4"
     showgrid="false"
     fit-margin-top="0"
     fit-margin-left="0"
     fit-margin-right="0"
     fit-margin-bottom="0"
     inkscape:zoom="1"
     inkscape:cx="-177.03157"
     inkscape:cy="1180.9115"
     inkscape:window-x="0"
     inkscape:window-y="24"
     inkscape:window-maximized="1"
     inkscape:current-layer="svg2" />
  <path
     style="fill:#000000"
     d="m 253.46843,1581.2846 c -10.43572,-0.7214 -11.46168,-0.9975 -20,-5.382 -15.54739,-7.9837 -19.64405,-11.3037 -22.17392,-17.9701 -1.41737,-3.7348 -1.67897,-11.2572 -0.41857,-12.0361 0.49913,-0.3085 1.65071,-2.9237 2.55907,-5.8116 2.20714,-7.0171 3.8349,-8.8335 11.75165,-13.1135 7.44597,-4.0255 9.00695,-4.2847 13.0627,-2.1692 1.52952,0.7978 3.37086,1.2242 4.09188,0.9475 0.72102,-0.2766 4.62895,0.1888 8.6843,1.0344 6.40419,1.3353 7.47939,1.3479 8.18019,0.096 1.7016,-3.0405 3.8227,-4.3223 8.2514,-4.9864 6.1892,-0.9282 11.5113,-3.2591 11.5113,-5.0417 0,-0.8035 1.2375,-2.1026 2.75,-2.8869 1.5125,-0.7843 4.4197,-3.0502 6.4604,-5.0354 2.0408,-1.9852 4.8533,-4.0439 6.25,-4.575 1.8066,-0.6868 2.5396,-1.7043 2.5396,-3.5254 0,-2.9859 2.2895,-6.8656 6.3378,-10.7396 2.2178,-2.1224 3.8487,-2.75 7.1455,-2.75 2.3495,0 4.6985,-0.5625 5.22,-1.25 2.116,-2.7897 4.0777,-11.5131 3.5807,-15.9229 -0.2936,-2.6049 -0.077,-4.8373 0.5054,-5.197 0.5641,-0.3486 0.7886,-2.3573 0.5022,-4.4927 -0.3529,-2.6313 0.01,-4.6657 1.1338,-6.3832 0.9085,-1.3866 1.6826,-4.486 1.7201,-6.8876 0.077,-4.9416 0.072,-12.1481 -0.01,-15.8666 -0.031,-1.375 -0.072,-5.425 -0.092,-9 -0.02,-3.575 -0.4386,-7.8993 -0.9297,-9.6096 -0.5237,-1.8243 -0.5237,-6.7507 0,-11.9181 0.7582,-7.4796 0.6545,-9.0719 -0.6874,-10.5546 -0.8691,-0.9604 -1.4636,-2.5723 -1.321,-3.582 0.1426,-1.0096 -0.08,-3.7069 -0.495,-5.9938 -0.4148,-2.287 -0.3196,-5.7324 0.2117,-7.6565 0.5758,-2.0852 0.6007,-3.8635 0.062,-4.4025 -0.4974,-0.4974 -1.0865,-4.252 -1.3092,-8.3436 -0.2228,-4.0916 -0.8793,-12.6143 -1.4589,-18.9393 -1.1529,-12.5802 -0.6776,-18.5476 1.6946,-21.2736 1.1832,-1.3597 1.2688,-2.0482 0.367,-2.95 -1.3591,-1.3592 -1.576,-5.4114 -0.3309,-6.1809 0.4651,-0.2874 1.1374,-5.6015 1.494,-11.809 0.3566,-6.2076 1.1012,-12.8585 1.6545,-14.7799 1.0897,-3.784 1.3745,-12.0066 0.4158,-12.0066 -0.3246,0 -2.3745,1.2375 -4.5553,2.75 -3.0444,2.1115 -5.0083,4.8807 -8.4578,11.9262 -5.7696,11.7843 -7.7814,14.3238 -11.3468,14.3238 -1.5428,0 -3.3235,-0.6247 -3.9571,-1.3882 -1.4093,-1.6982 -0.4905,-8.4424 1.9235,-14.1185 1.4683,-3.4523 1.5833,-5.597 0.8314,-15.5 -0.48,-6.3213 -1.0872,-12.08 -1.3494,-12.797 -0.5406,-1.4785 -0.5995,-1.3928 7.0017,-10.1963 3.0868,-3.575 6.0304,-7.0365 6.5415,-7.6921 0.5111,-0.6557 1.5457,-1.5557 2.2992,-2 1.7994,-1.0616 15.6593,-29.6106 15.6593,-32.256 0,-0.7239 0.8487,-2.7193 1.886,-4.4343 3.6108,-5.9696 3.55,-7.2111 -0.5419,-11.0708 -2.0684,-1.9509 -4.1234,-3.5472 -4.5665,-3.5472 -1.43,0 -6.718,-6.4447 -6.7483,-8.2243 -0.016,-0.9484 -1.3248,-2.3943 -2.9081,-3.213 -1.5834,-0.8188 -3.1584,-2.2172 -3.5,-3.1075 -0.9022,-2.351 -0.761,-7.2094 0.2679,-9.2188 3.2253,-6.2987 5.6383,-13.4951 6.6179,-19.7364 0.3453,-2.2 0.8389,-5.1497 1.097,-6.5548 0.2996,-1.6317 -0.2333,-3.3648 -1.4749,-4.7964 -1.9648,-2.2654 -2.633,-8.6168 -2.4423,-23.2159 0.075,-5.7763 2.3334,-11.6197 4.8655,-12.5913 0.7962,-0.3056 1.4477,-1.4257 1.4477,-2.4891 0,-1.0634 1.0125,-3.3014 2.25,-4.9733 1.8595,-2.5123 2.3515,-4.8046 2.8352,-13.2095 0.3218,-5.5933 0.2027,-10.6737 -0.2647,-11.2898 -1.5737,-2.0743 -1.1808,-16.618 0.5565,-20.5978 0.8927,-2.0448 1.623,-4.7966 1.623,-6.1151 0,-1.3185 0.9,-3.5414 2,-4.9399 1.1,-1.3984 2,-2.9769 2,-3.5077 0,-0.5308 0.895,-2.9884 1.9889,-5.4614 1.7985,-4.0657 1.898,-5.4497 1.0397,-14.4574 -0.522,-5.4787 -1.4638,-11.2751 -2.0929,-12.8809 -0.6292,-1.6058 -1.1716,-6.9697 -1.2054,-11.9197 -0.068,-9.9217 1.5226,-15.3911 6.2515,-21.5 3.9309,-5.0782 6.0182,-9.50027 6.0182,-12.75034 0,-1.56731 0.3679,-3.27716 0.8175,-3.79966 2.632,-3.05863 3.2394,-12.14573 2.002,-29.95 -0.077,-1.1 0.3798,-4.025 1.0139,-6.5 0.6342,-2.475 1.4138,-7.09014 1.7325,-10.25587 0.6022,-5.98143 0.4511,-5.74628 10.4392,-16.24413 2.3989,-2.52131 3.2797,-5.07431 5.5205,-16 1.4664,-7.15 3.2461,-14.78048 3.9547,-16.95663 0.9511,-2.92052 1.0061,-4.5766 0.2098,-6.3241 -0.7911,-1.73636 -0.7615,-2.87522 0.1109,-4.27227 0.9352,-1.49746 0.8798,-2.81819 -0.2589,-6.1759 -1.9698,-5.80809 -2.1805,-10.75826 -0.6319,-14.84861 4.7545,-12.55832 8.9257,-17.48919 18.6904,-22.09416 7.6056,-3.58679 8.5246,-5.45044 8.8794,-18.00853 l 0.2736,-9.6802 4.7479,-7.14181 c 3.8413,-5.77816 5.7371,-7.62701 9.9291,-9.68296 3.7095,-1.81927 5.5365,-3.43226 6.4317,-5.67799 0.6876,-1.72526 1.8556,-4.48684 2.5955,-6.13684 1.3715,-3.05883 2.9871,-9.21741 4.0661,-15.5 1.0107,-5.88451 2.3883,-8.4077 5.8028,-10.62784 2.1057,-1.36917 3.7504,-3.57585 4.6129,-6.18902 l 1.3403,-4.06117 -4.6024,-4.60239 c -6.0326,-6.03254 -6.8909,-11.10836 -4.1209,-24.3693 0.8639,-4.13602 -2.2394,-15.11407 -4.4965,-15.90653 -0.8581,-0.30126 -2.2971,-1.1784 -3.1979,-1.94919 -1.4659,-1.25434 -1.807,-0.90481 -3.25,3.33014 -0.8867,2.60237 -1.6282,7.01392 -1.6476,9.80344 -0.02,2.78952 -0.6458,6.174 -1.3918,7.52105 -0.9494,1.71425 -1.2097,4.71498 -0.8677,10 1.1848,18.30735 -4.3525,33.60661 -14.9752,41.37596 -5.9649,4.36185 -14.6811,8.67485 -17.5322,8.67485 -1.061,0 -3.1425,0.9544 -4.6254,2.12088 -2.0498,1.61234 -3.5446,1.98322 -6.234,1.54679 -3.0284,-0.49145 -3.9294,-0.14523 -6.2586,2.40492 -3.3921,3.71382 -11.7527,5.23275 -13.9866,2.54103 -1.7055,-2.05496 -5.3336,-2.05835 -9.2972,-0.009 -5.1055,2.64014 -23.9414,3.37853 -34.1948,1.34048 -5.1512,-1.0239 -7.3075,-1.04225 -10.308,-0.0877 -3.7459,1.19161 -8.0602,1.45874 -19.7943,1.22558 -9.4751,-0.18827 -12.7777,-0.98106 -16.1599,-3.87928 -1.7355,-1.48718 -4.0378,-3.43636 -5.11622,-4.33151 -1.07839,-0.89515 -2.75652,-4.15765 -3.72918,-7.25 -0.97266,-3.09208 -2.33526,-5.62219 -3.028,-5.62219 -1.75429,0 -7.31034,-6.52881 -8.04415,-9.45255 -0.59033,-2.35206 -4.63386,-4.54745 -8.37561,-4.54745 -3.39045,0 -10.04694,-9.2766 -10.04694,-14.0016 0,-1.04912 -1.125,-3.03249 -2.5,-4.40749 -1.375,-1.375 -2.51319,-3.30796 -2.52931,-4.29546 -0.0161,-0.9875 -1.34488,-3.24127 -2.95278,-5.00838 -2.61776,-2.87695 -3.44278,-3.19066 -7.88967,-3 -4.05521,0.17387 -5.43966,-0.23178 -7.54722,-2.21138 -1.41956,-1.33338 -2.58102,-2.98338 -2.58102,-3.66667 0,-2.96423 -2.71262,-1.54153 -9.3741,4.91648 -3.91925,3.79953 -8.2509,7.63154 -9.6259,8.51558 -5.32653,3.42464 -17.85832,12.88016 -25.5,19.24034 -4.4,3.66213 -9.00081,6.96856 -10.22402,7.34764 -1.22321,0.37907 -3.1474,1.986 -4.27598,3.57094 -1.12858,1.58494 -3.01979,3.18889 -4.20268,3.56433 -1.18289,0.37543 -3.70236,2.18955 -5.59882,4.03136 -1.89645,1.84182 -4.40444,3.63797 -5.5733,3.99147 -1.16886,0.35349 -3.0252,1.43426 -4.1252,2.40171 -1.1,0.96746 -4.25,2.98548 -7,4.48451 -2.75,1.49903 -5.71043,3.35575 -6.57874,4.12606 -0.86831,0.77031 -1.93956,1.40056 -2.38057,1.40056 -0.44101,0 -2.880568,1.48982 -5.421258,3.3107 -2.54069,1.82089 -7.31943,4.59784 -10.61943,6.17102 -3.3,1.57317 -8.17773,5.03336 -10.83941,7.6893 -4.45301,4.44342 -5.22678,4.82898 -9.69098,4.82898 -2.66837,0 -5.16602,0.50878 -5.55033,1.13061 -0.38432,0.62184 -0.66123,3.77756 -0.61536,7.01271 0.10718,7.55895 -1.74963,11.86165 -7.94641,18.41383 -6.90579,7.30185 -12.39221,9.75092 -21.76729,9.71664 -6.47052,-0.0236 -7.98475,0.33755 -11.94578,2.84956 -2.4948,1.58216 -5.07953,2.87665 -5.74383,2.87665 -2.2965,0 -8.40061,-6.31003 -8.40061,-8.684 0,-1.2738 -0.45,-2.316 -1,-2.316 -1.32059,0 -1.28122,-4.60602 0.0608,-7.11361 0.58344,-1.09017 2.13941,-2.39221 3.45772,-2.89343 2.20197,-0.83719 2.34981,-1.30907 1.8177,-5.80189 -0.62852,-5.30688 0.52507,-7.98204 5.87797,-13.63091 1.5322,-1.61691 2.78581,-3.43572 2.78581,-4.04179 0,-0.60607 2.0441,-3.10815 4.54245,-5.56016 l 4.54245,-4.45821 9.47919,-0.0574 c 10.98563,-0.0665 11.9731,-0.64198 13.30145,-7.75232 1.09564,-5.86464 2.95997,-8.02187 8.32078,-9.62801 4.12244,-1.23511 13.81207,-8.64423 13.81338,-10.56232 8.1e-4,-1.17436 15.64242,-16.92365 28.53202,-28.72842 11.686058,-10.70253 13.583208,-12.24548 19.635468,-15.96947 2.77334,-1.70645 6.063,-4.04752 7.31036,-5.20237 1.24736,-1.15486 3.92708,-3.22474 5.95492,-4.59974 5.98965,-4.06133 6.56753,-4.89166 6.56753,-9.43657 0,-2.625 0.71113,-5.22057 1.82978,-6.67857 1.00638,-1.31167 2.09616,-3.11737 2.42173,-4.01266 0.32557,-0.8953 2.86028,-3.09764 5.63269,-4.8941 4.39923,-2.85061 10.1158,-9.46025 10.1158,-11.69615 0,-0.41852 0.78356,-2.65539 1.74123,-4.97084 1.63138,-3.9443 4.53347,-6.31111 7.73844,-6.31111 0.76205,0 1.6712,-0.9 2.02033,-2 0.34913,-1.1 0.99986,-2 1.44607,-2 0.44621,0 1.3643,-1.33508 2.0402,-2.96684 1.86912,-4.51247 3.66442,-5.45225 10.62906,-5.56395 5.31754,-0.0853 6.75732,-0.49208 8.54924,-2.41548 2.01758,-2.16562 2.71539,-2.28097 10.95623,-1.8111 4.84077,0.27601 9.02807,0.27516 9.30512,-0.002 0.88963,-0.88963 -1.2359,-3.86867 -6.8987,-9.66886 -3.03997,-3.11373 -5.52722,-6.18228 -5.52722,-6.819 0,-0.63672 -1.38365,-2.58524 -3.07478,-4.33005 -3.4871,-3.59776 -6.1144,-10.16528 -4.96714,-12.41642 1.41597,-2.77842 2.09633,-10.0295 1.05853,-11.28166 -0.5583,-0.67362 -2.57999,-3.02476 -4.49265,-5.22476 -1.91265,-2.2 -3.488,-4.50092 -3.50076,-5.11316 -0.0128,-0.61224 -2.2732,-3.21777 -5.0232,-5.79007 -2.75,-2.5723 -5,-5.02292 -5,-5.44582 0,-0.75664 -14.35598,-18.47296 -18.75,-23.13886 -1.2375,-1.31407 -2.25,-2.66776 -2.25,-3.0082 0,-0.34045 -1.83142,-1.42701 -4.06982,-2.41459 -5.21244,-2.29973 -10.93935,-8.013 -10.89858,-10.87263 0.0583,-4.08564 11.45837,-14.73422 15.72128,-14.68487 3.84849,0.0446 5.43296,1.56659 9.03124,8.67533 1.72805,3.41391 4.95855,8.8685 7.17889,12.1213 2.22035,3.25281 4.03699,6.32209 4.03699,6.82064 0,0.49855 0.7875,1.63316 1.75,2.52136 0.9625,0.8882 3.325,3.95306 5.25,6.8108 1.925,2.85774 5.075,6.88194 7,8.94266 1.925,2.06072 5.64812,6.241 8.27359,9.2895 9.19293,10.67415 10.27664,11.87606 16.95577,18.80528 3.70115,3.83973 7.18865,6.98133 7.75,6.98133 0.56135,0 1.02064,-1.28086 1.02064,-2.84636 0,-2.98786 2.58228,-9.09112 4.42166,-10.45068 3.12889,-2.31267 15.95724,1.61057 18.79783,5.74886 0.49163,0.71623 1.35823,0.65232 2.73643,-0.20182 2.79721,-1.73357 4.37814,-1.57546 8.48688,0.84878 3.6751,2.16832 4.3522,3.70623 2.4634,5.595 -0.6016,0.60158 -0.9391,1.80147 -0.75,2.66642 0.2806,1.28333 1.169,1.01643 4.8292,-1.45082 2.467,-1.66291 6.9235,-5.12823 9.9035,-7.70071 5.7984,-5.00567 8.0222,-6.49443 12.3611,-8.27548 1.5125,-0.62086 2.75,-1.50449 2.75,-1.96363 0,-0.45913 0.9167,-1.12573 2.0371,-1.48134 3.0563,-0.97002 22.1087,-13.889 24.8773,-16.8687 1.328,-1.42918 5.2576,-4.29074 8.7326,-6.35901 6.0317,-3.59008 6.322,-3.94179 6.4059,-7.76051 0.3264,-14.85333 0.4911,-16.06161 2.5892,-19 3.3546,-4.69826 5.6489,-6.38395 9.8872,-7.26453 4.4619,-0.92705 8.6477,-5.93864 10.5213,-12.59702 0.6174,-2.19433 1.8378,-4.058 2.8264,-4.31654 0.9569,-0.25024 2.6136,-2.08355 3.6814,-4.07403 1.0679,-1.99048 3.0117,-4.61393 4.3197,-5.82989 2.0358,-1.8926 2.398,-3.22423 2.5162,-9.25116 0.1138,-5.79331 0.5339,-7.46148 2.372,-9.41808 6.2441,-6.64655 18.3264,-8.95512 24.3648,-4.65538 3.3824,2.40849 5.8689,1.91927 5.8689,-1.1547 0,-1.16826 2.4225,-4.80103 5.3833,-8.07283 2.9608,-3.2718 5.6445,-7.25471 5.9637,-8.85091 0.8377,-4.18844 5.3966,-8.41959 11.153,-10.35126 7.2145,-2.42092 18.7433,-0.95932 22.2482,2.82059 1.9103,2.06017 3.0419,2.50111 5.2016,2.02676 1.5181,-0.33342 5.7295,0.13964 9.3586,1.05126 l 6.5985,1.65748 2.5149,-2.85988 c 3.2978,-3.75006 3.207,-4.4365 -0.9423,-7.1244 -4.4825,-2.90354 -9.4795,-13.0693 -9.4795,-19.28455 0,-3.54169 -0.5954,-4.96988 -3.1866,-7.64331 -2.9713,-3.06559 -3.1803,-3.74456 -3.0925,-10.0476 0.076,-5.43026 -0.3794,-7.58163 -2.3134,-10.93792 -2.7896,-4.8412 -2.9883,-7.29808 -0.9146,-11.30824 1.6375,-3.16659 1.2007,-5.40875 -1.6791,-8.61773 -1.0385,-1.15722 -2.2497,-4.39092 -2.6915,-7.18601 -0.6818,-4.31315 -0.4507,-5.81027 1.528,-9.89596 2.6409,-5.45295 2.9489,-10.64187 0.8497,-14.31399 -2.3795,-4.1625 -1.8573,-8.28353 1.4514,-11.45345 3.5745,-3.42461 4.6617,-7.6521 2.9998,-11.66439 -1.7782,-4.29289 0.059,-9.34071 5.5016,-15.11518 2.6546,-2.81644 4.9047,-6.38077 5.5567,-8.80214 0.6641,-2.46628 2.6506,-5.57811 5.0431,-7.89996 2.1711,-2.10696 3.9474,-4.2784 3.9474,-4.82541 0,-0.54702 0.675,-1.55478 1.5,-2.23947 0.8441,-0.7005 1.5,-2.8804 1.5,-4.98494 0,-2.54426 0.8792,-4.88631 2.75,-7.32519 1.5125,-1.97182 4.325,-5.89634 6.25,-8.72114 4.5209,-6.63405 6.6281,-8.69362 11.4228,-11.1643 2.7092,-1.396 5.0794,-1.86629 7.6609,-1.52004 3.3093,0.44388 4.0932,0.1001 6.8358,-2.99773 2.5125,-2.83784 3.5771,-3.37883 5.6337,-2.86267 1.8738,0.4703 3.6335,-0.13349 6.7413,-2.31308 3.9913,-2.79929 12.3543,-4.87201 17.0187,-4.218 0.9973,0.13983 2.894,-0.45387 4.2149,-1.31934 1.3208,-0.86546 3.3235,-1.57357 4.4503,-1.57357 1.1268,0 2.9026,-0.53323 3.9462,-1.18496 1.4623,-0.91327 2.8042,-0.91327 5.8524,0 2.3803,0.71314 10.8768,1.19083 21.339,1.1997 13.4023,0.0114 17.9566,0.34881 19.884,1.47325 1.375,0.80218 4.075,2.16146 6,3.02062 1.925,0.85917 5.3493,2.44621 7.6095,3.52676 2.2603,1.08055 4.428,1.96463 4.8173,1.96463 0.7704,0 6.4318,4.41439 12.9485,10.09632 2.2686,1.97798 4.8704,4.00298 5.7817,4.5 1.6683,0.90986 8.843,10.94555 8.843,12.36931 0,0.42056 0.9862,2.01835 2.1915,3.55064 6.3002,8.00947 10.7369,23.80719 9.3268,33.21022 -0.5378,3.58606 -0.4063,4.32595 0.6544,3.68467 4.6851,-2.83232 36.5802,-26.94745 37.6993,-28.50346 0.7546,-1.04924 1.807,-1.9077 2.3386,-1.9077 0.5317,0 3.2816,-2.025 6.1109,-4.5 2.8293,-2.475 5.6261,-4.5 6.2152,-4.5 0.589,0 2.5975,-1.575 4.4633,-3.5 1.8658,-1.925 3.7242,-3.5 4.1297,-3.5 1.8596,0 10.8865,-6.4757 11.4347,-8.20303 0.7034,-2.21592 6.0736,-5.78768 8.7104,-5.79323 0.9761,-0.002 2.1663,-1.03374 2.6449,-2.29262 0.8868,-2.33227 7.0378,-6.90557 25.7304,-19.13051 2.2826,-1.49279 5.4326,-4.02162 7,-5.61961 1.5675,-1.59799 3.3821,-2.91794 4.0325,-2.93322 0.6505,-0.0153 1.4508,-0.87257 1.7785,-1.90509 0.5753,-1.8128 9.1136,-8.77458 13.7684,-11.22622 1.2488,-0.65773 2.4955,-1.51124 2.7705,-1.89668 0.275,-0.38545 2.525,-1.95921 5,-3.49725 2.475,-1.53803 6.975,-4.91418 10,-7.50254 3.025,-2.58836 7.525,-5.94608 10,-7.46159 2.475,-1.51552 4.95,-3.29699 5.5,-3.95883 0.55,-0.66184 2.8429,-2.30049 5.0952,-3.64146 2.2524,-1.34097 5.8524,-3.91024 8,-5.7095 4.5629,-3.8227 11.1456,-8.22862 12.2942,-8.22862 0.4404,0 1.6579,-0.95238 2.7056,-2.1164 1.0478,-1.16401 3.93,-3.50713 6.405,-5.20692 4.081,-2.80277 11.917,-8.8844 17.7464,-13.77327 1.2356,-1.03618 4.6106,-3.53623 7.5,-5.55567 8.2467,-5.763587 11.8492,-8.561407 16.2064,-12.586407 2.226,-2.05626 5.6222,-4.48529 7.5472,-5.39783 1.925,-0.91253 3.725,-1.95112 4,-2.30797 0.275,-0.35685 3.348,-2.87783 6.8288,-5.60218 3.4809,-2.72434 9.3309,-7.3071 13,-10.18391 3.6692,-2.87681 13.4212,-9.79852 21.6712,-15.381585 8.25,-5.583064 16.3825,-11.329312 18.0723,-12.76944 1.6897,-1.440128 5.6396,-4.193415 8.7775,-6.118415 3.1379,-1.925 8.5054,-5.337865 11.9278,-7.584145 3.4223,-2.24628 8.47237,-5.381085 11.22237,-6.966234 2.75,-1.585148 5.4839,-3.347283 6.0753,-3.915854 0.5914,-0.568572 3.9664,-2.454785 7.5,-4.191585 26.2358,-12.8952337 28.4235,-13.5679747 30.5549,-9.3961127 1.5691,3.071196 1.0876,3.872722 -5.3924,8.9757477 -2.8943,2.279215 -8.4682,7.268402 -12.3867,11.087083 -3.9184,3.818681 -7.8592,7.176267 -8.7572,7.461304 -0.8981,0.285036 -2.4697,2.072062 -3.4924,3.971169 -1.0227,1.899106 -3.0771,3.87739 -4.5654,4.396185 -1.4882,0.518795 -5.622,3.859468 -9.1863,7.423719 -3.5642,3.56425 -8.32567,7.645331 -10.58107,9.069069 -2.2553,1.423738 -4.39,3.056844 -4.7437,3.629134 -0.3536,0.57229 -1.5231,1.04052 -2.5987,1.04052 -1.0756,0 -2.7366,1.27116 -3.691,2.82481 -1.5647,2.54705 -12.2869,11.91508 -27.6698,24.17519 -3.1054,2.475 -7.3428,6.075 -9.4164,8 -8.7776,8.148427 -13.9728,12.477207 -19.1491,15.955697 -3.025,2.0328 -7.75,5.20526 -10.5,7.04991 -2.75,1.84465 -6.7221,5.07302 -8.827,7.17415 -2.1048,2.10113 -4.5253,3.82024 -5.3788,3.82024 -0.8535,0 -3.2408,1.4625 -5.3052,3.25 -8.8832,7.69188 -13.297,11.27641 -14.3564,11.65896 -0.6229,0.22493 -4.0576,2.96485 -7.6326,6.08872 -3.575,3.12386 -7.625,6.41832 -9,7.32101 -2.9658,1.94708 -7.5363,5.77225 -13.0613,10.93131 -2.2088,2.0625 -4.4073,3.75 -4.8857,3.75 -1.1091,0 -12.1593,8.89336 -13.7632,11.07684 -0.6656,0.90614 -2.4656,2.17173 -4,2.81243 -1.5344,0.6407 -3.8064,2.72772 -5.049,4.63782 -1.2425,1.9101 -2.7638,3.47291 -3.3806,3.47291 -0.6167,0 -3.3136,1.575 -5.9931,3.5 -2.6794,1.925 -5.3567,3.5 -5.9495,3.5 -0.5927,0 -5.4766,3.4875 -10.8531,7.75 -5.3764,4.2625 -15.1243,11.8 -21.6621,16.75 -11.2429,8.51256 -32.9158,24.99745 -56.4648,42.94845 -30.2489,23.05819 -40.6692,31.09962 -42.9376,33.13526 -3.2739,2.93795 -12.6956,10.40943 -16.5152,13.09677 -1.6584,1.16675 -5.0332,3.96596 -7.4996,6.22045 -2.4664,2.25449 -5.007,4.09907 -5.6459,4.09907 -0.6388,0 -2.3115,1.36669 -3.7171,3.03709 -1.4055,1.6704 -4.0421,3.65825 -5.8591,4.41745 -1.8171,0.75919 -4.1935,2.36357 -5.281,3.56529 -1.0876,1.20171 -3.3284,2.88301 -4.9797,3.73622 -1.6513,0.85322 -3.575,2.26965 -4.2749,3.14763 -2.3531,2.95189 -5.2275,8.99991 -5.2275,10.99932 0,1.09047 -0.9641,3.61677 -2.1425,5.614 -1.9541,3.31194 -2.0384,4.09669 -0.9585,8.92231 0.9771,4.3661 0.923,6.04875 -0.3094,9.62593 -1.3368,3.8799 -1.3287,4.70756 0.077,7.88485 2.9814,6.73879 4.1134,9.55865 4.837,12.04991 0.3994,1.375 1.5923,3.44797 2.6509,4.6066 1.0585,1.15864 2.2001,3.85864 2.5368,6 0.6974,4.43496 3.6728,7.92719 8.0558,9.45513 1.6535,0.57638 4.3777,2.75458 6.0539,4.84043 2.5348,3.15421 4.0447,4.00404 8.9712,5.04951 5.1363,1.09 6.3357,1.04385 9.0259,-0.34731 1.7064,-0.8824 5.3483,-1.60436 8.0931,-1.60436 2.7449,0 5.2745,-0.45924 5.6214,-1.02052 0.3469,-0.56129 4.0015,-2.62012 8.1214,-4.57518 6.1211,-2.90469 8.6697,-3.56146 13.9385,-3.59186 7.9145,-0.0457 15.7367,3.4061 20.6517,9.11309 5.8611,6.80563 10.415,8.38257 25.1299,8.70201 10.3897,0.22554 13.3616,0.62285 15.5,2.07216 1.4552,0.98622 3.857,2.32443 5.3372,2.97381 2.8309,1.24185 7.3568,7.5368 8.2635,11.4934 0.5423,2.36687 1.3438,8.91832 1.4738,12.04861 0.074,1.78383 2.8255,4.82651 9.752,10.78448 2.4864,2.13875 5.3318,6.13916 7.3159,10.28571 2.3771,4.96802 4.3588,7.55077 7.398,9.64179 3.9987,2.75113 9.3566,8.33474 14.6054,15.22057 2.096,2.7497 2.4635,4.2243 2.2741,9.12498 -0.1872,4.84135 -0.7454,6.47537 -3.25,9.51396 -3.5206,4.27101 -3.6767,5.45985 -1.1898,9.05862 2.8886,4.17989 5.4626,11.20837 6.0899,16.62895 0.4641,4.00944 1.0608,5.21281 3.0758,6.20249 3.8079,1.87027 13.0184,10.45939 14.6978,13.70607 1.5105,2.92041 1.4943,4.41381 -0.3002,27.5689 -0.3177,4.09863 -0.285,9.79369 0.073,12.6557 0.5738,4.59244 1.1022,5.51694 4.4988,7.87079 4.7723,3.3072 6.5292,7.0808 5.0762,10.9027 -0.5749,1.51193 -1.0452,6.48331 -1.0452,11.04751 0,7.6329 0.2115,8.51 2.6363,10.9349 1.4501,1.45 3.2612,2.63636 4.0248,2.63636 2.1792,0 3.3981,4.6448 2.724,10.38016 -0.4861,4.13606 -0.2657,5.59643 1.0421,6.90419 0.9122,0.91222 2.7643,4.70698 4.1157,8.43279 2.1226,5.85194 2.4571,8.49503 2.4571,19.41422 0,9.26747 -0.3986,13.40427 -1.4939,15.50433 -0.8216,1.57537 -1.4966,3.78871 -1.5,4.91853 -0.013,4.45217 -10.663,17.37793 -20.5531,24.94578 -4.5756,3.50117 -12.2718,8.5 -13.0866,8.5 -0.3103,0 -1.9822,0.60582 -3.7153,1.34627 -5.936,2.53607 -10.848,3.85373 -14.3659,3.85373 -1.9358,0 -4.9887,0.61383 -6.7843,1.36407 -2.2311,0.93219 -4.2229,1.08926 -6.2911,0.4961 -2.1183,-0.6075 -3.8384,-0.44668 -5.7324,0.53594 -1.4883,0.77214 -3.2993,1.40389 -4.0243,1.40389 -0.7251,0 -1.6117,0.92433 -1.9703,2.05407 -0.3585,1.12975 -2.5909,2.9961 -4.9607,4.14747 l -4.3089,2.09338 -3.4746,-2.14746 c -4.53,-2.79971 -7.2803,-2.71093 -10.921,0.35254 -1.6341,1.375 -4.0727,2.5 -5.4191,2.5 -1.6783,0 -2.7411,0.77096 -3.3803,2.4521 -0.5128,1.34866 -2.4141,3.21229 -4.2253,4.1414 -1.8111,0.92911 -4.3247,2.49309 -5.5858,3.47552 -1.6681,1.29953 -3.5962,1.68918 -7.0764,1.43008 -3.2352,-0.24087 -6.9921,0.41555 -11.6061,2.02783 -5.2919,1.84912 -7.2732,2.14282 -8.831,1.30908 -1.9683,-1.05338 -1.9966,-0.8647 -1.4137,9.42835 0.4985,8.80181 1.0909,11.59742 3.6574,17.25776 3.7104,8.18301 3.7697,10.93189 0.5627,26.07654 -3.2102,15.15968 -3.4027,28.20796 -0.5,33.90134 1.1,2.15759 2,4.98232 2,6.27718 0,1.29487 0.4242,3.14689 0.9426,4.11561 0.9271,1.73225 -0.6455,8.31247 -2.95,12.34364 -0.5459,0.95504 -0.9954,3.65504 -0.9988,6 0,2.34496 -0.7247,5.61357 -1.6028,7.26357 -1.8212,3.42164 -2.745,13.16318 -1.3313,14.03692 1.4061,0.86899 1.1388,3.75786 -0.6861,7.41595 -1.3223,2.65054 -1.4207,3.94648 -0.5267,6.93062 0.6049,2.01875 0.8187,5.40235 0.4752,7.5191 -0.4844,2.98501 -0.254,4.056 1.0267,4.77272 1.2886,0.72116 1.6512,2.45457 1.6512,7.89429 0,5.8332 -0.436,7.6602 -2.6728,11.2003 -1.47,2.3265 -3.2793,7.1203 -4.0207,10.6527 -0.7415,3.5324 -1.7383,6.9074 -2.2153,7.5 -1.4398,1.7889 -5.3181,16.8476 -5.2327,20.3175 0.044,1.782 0.7619,4.5589 1.5955,6.1709 2.854,5.519 1.7199,19.9693 -1.6362,20.8469 -1.657,0.4333 -1.8518,1.0816 -1.3022,4.3345 0.4314,2.5536 0.1548,4.7529 -0.8322,6.6163 -0.8131,1.5352 -2.0556,4.8163 -2.7611,7.2913 -0.7054,2.475 -1.626,4.9654 -2.0458,5.5342 -0.9511,1.2889 0.3507,6.8967 2.6183,11.2786 1.0947,2.1155 1.4778,4.284 1.06,6 -0.3599,1.478 -1.0477,4.7793 -1.5284,7.3364 -0.4807,2.557 -1.9978,6.4294 -3.3714,8.6053 -1.3736,2.1759 -3.036,6.6933 -3.6941,10.0388 -0.6582,3.3455 -2.015,6.961 -3.0151,8.0345 -1.0001,1.0734 -1.8709,3.2388 -1.9353,4.812 -0.064,1.5731 -0.2055,4.6602 -0.3137,6.8602 l -0.1968,4 5.7501,-0.3065 c 6.3959,-0.3409 11.7499,1.9248 11.7499,4.9724 0,0.9541 0.6093,2.0946 1.354,2.5344 3.2673,1.9297 3.6295,4.7906 1.4434,11.4023 -2.2725,6.8733 -8.739,14.8974 -12.0056,14.8974 -2.8389,0 -2.1669,1.2523 3.7082,6.9108 4.5096,4.3433 5.5,5.8981 5.5,8.6342 0,1.8353 -0.4579,3.62 -1.0176,3.9659 -0.6233,0.3852 -0.2359,1.6227 1,3.1939 2.7627,3.5121 2.597,4.3826 -1.9223,10.0999 -4.2298,5.3511 -3.913,5.2364 -18.8474,6.823 -4.8326,0.5134 -5.2342,0.7471 -4.6694,2.717 1.5025,5.24 4.7459,10.9142 8.9342,15.63 2.4874,2.8006 4.5225,5.6744 4.5225,6.3861 0,0.7117 2.4814,4.4092 5.5143,8.2166 6.5615,8.2373 11.078,16.9997 12.426,24.1078 0.5399,2.8471 1.8992,6.8885 3.0207,8.9809 1.1214,2.0923 2.0418,4.7109 2.0451,5.8191 0,1.1081 0.6784,3.3037 1.5,4.8791 0.8217,1.5754 1.4939,3.5278 1.4939,4.3386 0,0.8109 2.025,5.6935 4.5,10.8503 2.475,5.1567 4.5,10.1918 4.5,11.1891 0,1.9422 -2.4283,4.4406 -5.4389,5.5959 -2.1748,0.8345 -5.5611,-1.7953 -5.5611,-4.3189 0,-1.6368 -3.9088,-6.0193 -5.3687,-6.0193 -0.4069,0 -2.133,-1.3021 -3.8359,-2.8936 -3.1804,-2.9723 -9.5385,-4.7633 -11.1586,-3.1432 -0.501,0.501 -1.4597,4.4267 -2.1305,8.7239 -0.6707,4.2971 -1.923,10.5129 -2.7828,13.8129 -0.8598,3.3 -1.8517,8.1363 -2.2043,10.7474 -0.4502,3.3346 -1.25,5.0733 -2.6875,5.8426 -3.041,1.6276 -4.2289,-0.219 -3.9581,-6.153 0.1281,-2.8071 -0.179,-5.6287 -0.6825,-6.2704 -0.5034,-0.6416 -1.2031,-2.3729 -1.5549,-3.8473 -0.4036,-1.692 -1.4192,-2.7984 -2.7536,-3 -1.6405,-0.2478 -2.9729,-2.4474 -5.9477,-9.8193 -2.2292,-5.5244 -3.8547,-11.2539 -3.8842,-13.691 -0.058,-4.8189 -0.9136,-5.6918 -4.3111,-4.4001 -2.2516,0.856 -2.4752,1.5854 -3.0744,10.0265 -0.6693,9.4294 -2.115,17.2946 -3.7315,20.301 -0.5136,0.9551 -0.9337,2.9115 -0.9337,4.3477 0,1.4362 -1.8118,6.3197 -4.0262,10.8523 -2.2144,4.5326 -4.4313,10.73 -4.9264,13.772 -1.2039,7.3972 -2.5005,12.0316 -5.5184,19.7242 -1.3879,3.538 -3.2258,9.838 -4.0841,14 -0.8582,4.1621 -2.3859,9.3674 -3.3947,11.5674 -1.0088,2.2 -2.6216,8.275 -3.5838,13.5 -0.9622,5.225 -2.5271,11.3 -3.4774,13.5 -3.5324,8.1773 -7.4368,22.1427 -7.4088,26.5 0.016,2.475 0.6326,9.1316 1.3704,14.7925 1.1074,8.4967 1.1135,10.9832 0.035,14.2506 -1.0103,3.0613 -1.0434,4.535 -0.146,6.5045 0.6381,1.4006 1.1602,3.2419 1.1602,4.0917 0,0.8499 0.8627,2.642 1.9171,3.9824 1.0544,1.3404 2.2243,4.2556 2.5998,6.4782 0.67,3.9655 8.9868,16.2891 12.3559,18.3084 3.7575,2.2522 10.2209,9.1187 10.8103,11.4845 0.3572,1.434 1.4648,4.4072 2.4613,6.6072 2.2705,5.013 2.3561,11.6315 0.2041,15.7929 -2.7267,5.273 -6.624,9.5811 -9.8274,10.8634 -1.6616,0.6651 -4.2931,2.252 -5.8478,3.5265 -1.5547,1.2745 -3.8171,2.3172 -5.0275,2.3172 -1.2104,0 -3.3134,0.7837 -4.6733,1.7416 -1.3599,0.9579 -5.3975,2.1477 -8.9725,2.6439 -9.4311,1.3091 -28.8587,1.1558 -30.2532,-0.2387 -0.6307,-0.6307 -3.9997,-1.1468 -7.4866,-1.1468 -4.5769,0 -7.5106,-0.6094 -10.55,-2.1913 -2.3156,-1.2053 -5.0216,-2.3311 -6.0134,-2.5019 -2.3897,-0.4115 -7.2459,-2.9376 -12.3235,-6.4106 -2.6988,-1.846 -4.7328,-4.3059 -5.8785,-7.1094 -3.5039,-8.5741 -3.5327,-10.3009 -0.3186,-19.0968 1.646,-4.5045 3.6079,-12.465 4.3597,-17.69 1.5769,-10.9585 3.4265,-18.0449 5.2988,-20.3008 0.9481,-1.1424 1.3397,-5.9269 1.4142,-17.2782 0.098,-14.9567 0.8643,-21.7311 2.9093,-25.7224 0.7492,-1.4623 2.3061,-23.9617 2.0551,-29.6986 -0.2098,-4.7942 -2.3808,-24.3162 -3.2101,-28.8658 -0.538,-2.9512 -0.7514,-5.7326 -0.4743,-6.1809 0.277,-0.4483 0.066,-1.0858 -0.4698,-1.4168 -0.5354,-0.3309 -0.9567,-1.8245 -0.9363,-3.3191 0.1617,-11.8359 -1.3894,-50.8471 -2.0726,-52.1236 -0.472,-0.882 -1.3354,-4.0764 -1.9187,-7.0987 -0.5832,-3.0223 -1.3096,-6.6201 -1.614,-7.9951 -1.6581,-7.4887 -3.9549,-29.7531 -3.817,-37 0.2753,-14.4601 4.555,-37.5152 8.9104,-48 1.9419,-4.675 3.8951,-9.4 4.3403,-10.5 0.4451,-1.1 1.5412,-3.8 2.4356,-6 3.0655,-7.5399 3.7944,-14.3635 2.489,-23.2993 -1.1648,-7.9726 -1.3732,-8.4247 -5.2941,-11.4845 -2.2449,-1.7519 -4.6145,-3.8672 -5.2658,-4.7007 -1.7992,-2.3028 -3.4587,-9.8488 -3.4587,-15.7271 0,-2.8923 -0.3669,-5.4854 -0.8153,-5.7625 -1.5297,-0.9454 -2.2587,-8.0142 -2.1905,-21.2418 0.037,-7.2687 -0.3119,-13.4507 -0.7763,-13.7377 -0.4644,-0.287 -0.8443,-2.8154 -0.8443,-5.6187 0,-2.8033 -0.5019,-5.5989 -1.1154,-6.2123 -0.6135,-0.6135 -1.1154,-1.8563 -1.1154,-2.7618 0,-0.9055 -0.7125,-3.0746 -1.5833,-4.8202 -1.661,-3.3296 -2.0263,-9.566 -0.9376,-16.0098 0.4966,-2.939 0.1114,-4.8394 -1.6666,-8.223 -2.0102,-3.8254 -2.3221,-5.9038 -2.3858,-15.9006 -0.04,-6.325 -0.374,-18.475 -0.7417,-27 -0.5481,-12.7111 -0.9647,-15.718 -2.315,-16.7114 -2.2923,-1.6864 -4.1904,-18.0892 -2.6143,-22.5914 1.3236,-3.7808 0.7782,-14.8312 -0.8854,-17.9397 -1.1566,-2.161 -1.1763,-2.1626 -1.9207,-0.1501 -0.4137,1.1183 -1.8091,2.7594 -3.1009,3.6469 -3.9968,2.7459 -11.2894,10.1185 -12.6075,12.7457 -1.1734,2.3389 -2.4492,7.4368 -4.0592,16.2205 -0.459,2.5038 -2.4642,5.7175 -6.1318,9.8272 -7.5855,8.4997 -9.9268,15.6498 -9.8111,29.9616 0.076,9.4509 -0.1836,11.1345 -2.3265,15.0653 -1.3269,2.434 -2.6806,4.6504 -3.0081,4.9254 -1.5192,1.2755 -8.861,12.8894 -10.2095,16.1503 -0.8573,2.073 -1.406,5.9573 -1.2698,8.989 0.2338,5.204 -1.448,22.4075 -2.9615,30.2934 -1.0564,5.5041 -6.1493,16.3996 -9.6138,20.5673 -3.5833,4.3106 -2.9661,3.6707 -11.0999,11.5097 -6.0132,5.7952 -6.75,6.9211 -6.75,10.3142 0,9.9261 -2.3979,17.0268 -8.2317,24.3757 -2.3463,2.9558 -2.6025,3.8917 -1.8158,6.6347 0.5037,1.7563 0.6547,7.2246 0.3355,12.1517 -0.55,8.4891 0.8115,21.8701 2.6978,26.514 3.7293,9.1813 5.7614,19.7725 6.5233,34 0.3535,6.6 0.8172,14.25 1.0306,17 0.2134,2.75 -0.018,6.35 -0.5139,8 -0.496,1.65 -1.3894,6.6 -1.9853,11 -0.5959,4.4 -2.6015,12.5 -4.4569,18 -1.8554,5.5 -4.5176,13.6 -5.916,18 -3.3641,10.5849 -5.2228,14.886 -7.1098,16.4521 -1.0781,0.8947 -1.5578,3.0539 -1.5578,7.0114 0,3.1453 -0.6701,7.9277 -1.4892,10.6276 -0.819,2.6999 -1.5004,6.0339 -1.5142,7.4089 -0.014,1.375 -1.1751,7 -2.5807,12.5 -1.4056,5.5 -2.5167,11.3649 -2.4691,13.0331 0.051,1.7809 -0.9524,4.4413 -2.4301,6.4442 -1.3842,1.8762 -2.5167,4.4203 -2.5167,5.6536 0,2.0036 -1.4054,8.1408 -5.4661,23.8691 -1.4963,5.7954 -4.454,13.5743 -5.6843,14.95 -0.4673,0.5225 -0.8496,2.9282 -0.8496,5.3461 0,2.4178 -0.6359,6.7153 -1.4132,9.55 -0.7773,2.8346 -1.6886,10.1039 -2.0252,16.1539 -0.3366,6.05 -1.0033,12.6875 -1.4815,14.75 -1.0277,4.4326 -0.417,4.7053 2.4593,1.0982 1.6765,-2.1026 2.6536,-2.5166 4.7176,-1.9985 5.933,1.489 7.1795,5.6044 3.493,11.5323 -2.0435,3.286 -2.25,4.8567 -2.25,17.118 l 0,13.5 -3.2359,4.6598 c -4.52,6.5087 -8.7754,8.824 -19.0617,10.371 -4.7863,0.7199 -9.9692,1.7949 -11.5175,2.389 -1.5483,0.5941 -4.5306,1.0802 -6.6273,1.0802 -5.7318,0 -17.9869,3.0232 -22.9565,5.6632 -2.4195,1.2852 -5.0545,2.3368 -5.8557,2.3368 -0.8012,0 -2.8507,1.173 -4.5544,2.6066 -2.8799,2.4232 -7.7871,4.9555 -16.9263,8.7346 -2.0545,0.8495 -5.9654,1.5272 -8.691,1.5061 -2.7255,-0.021 -5.3949,0.2332 -5.9319,0.5651 -1.2228,0.7557 -17.1113,3.5962 -19.1418,3.4221 -0.825,-0.071 -6.45,-0.4708 -12.49999,-0.8891 z m 433.4773,-918.92272 c 1.0875,-1.08752 1.7465,-2.5789 1.4643,-3.31418 -0.9319,-2.42864 7.7095,-11.76706 14.5069,-15.67699 1.2082,-0.69496 1.0332,-1.47178 -1.0548,-4.68235 -3.1289,-4.81094 -5.3396,-9.61187 -6.9657,-15.12695 -1.4099,-4.78221 -2.994,-5.0184 -4.2956,-0.6405 -0.4772,1.60506 -1.3296,3.80362 -1.8943,4.88569 -0.5646,1.08207 -1.1499,7.54773 -1.3007,14.36813 l -0.274,12.40073 -3.3317,3.45179 c -3.2271,3.34342 -3.2707,3.49669 -1.3906,4.88187 2.4193,1.78232 2.1775,1.81149 4.5362,-0.54724 z M 274.26123,627.0892 c 3.9633,-1.84058 3.6282,-5.73413 -0.8302,-9.64869 l -3.5374,-3.10588 -2.9626,2.19034 c -1.6294,1.20469 -2.9605,2.44322 -2.958,2.75229 0,0.30907 1.3526,2.00003 3,3.75771 1.6475,1.75767 2.9954,3.67017 2.9954,4.25 0,1.37615 1.007,1.33023 4.2928,-0.19577 z m 18.1127,-13.25 c 1.4837,-1.375 3.7743,-2.5 5.0903,-2.5 1.3159,0 3.6241,-1.05926 5.1293,-2.35392 2.202,-1.89413 2.7958,-3.34889 3.04,-7.44785 0.1669,-2.80166 1.2103,-7.4799 2.3187,-10.39608 2.0243,-5.32618 2.5676,-8.80215 1.3757,-8.80215 -0.3523,0 -2.7625,2.1375 -5.3559,4.75 -2.5935,2.6125 -5.3447,5.2 -6.1138,5.75 -5.752,4.11321 -15.9419,12.80697 -15.6941,13.38976 0.8246,1.93943 6.381,10.04185 6.9083,10.07373 0.3322,0.0201 1.8178,-1.08849 3.3015,-2.46349 z M 246.4114,580.40221 c 0.96413,-1.06534 1.44513,-2.43505 1.0689,-3.0438 -0.37623,-0.60875 -0.1556,-1.74357 0.49029,-2.52181 0.95452,-1.15013 0.64305,-1.54295 -1.66391,-2.09857 -1.56104,-0.37597 -4.10851,-2.19451 -5.66105,-4.0412 -3.00545,-3.57487 -5.68678,-4.25595 -7.61385,-1.93396 -1.81106,2.1822 0.52071,9.38537 4.12944,12.75643 3.525,3.29283 6.78743,3.60423 9.25018,0.88291 z"
     id="path2987"
     inkscape:connector-curvature="0" />
</svg>
