<?xml version="1.0" encoding="UTF-8" standalone="no"?>
<!-- Created with Inkscape (http://www.inkscape.org/) -->

<svg
   xmlns:dc="http://purl.org/dc/elements/1.1/"
   xmlns:cc="http://creativecommons.org/ns#"
   xmlns:rdf="http://www.w3.org/1999/02/22-rdf-syntax-ns#"
   xmlns:svg="http://www.w3.org/2000/svg"
   xmlns="http://www.w3.org/2000/svg"
   xmlns:sodipodi="http://sodipodi.sourceforge.net/DTD/sodipodi-0.dtd"
   xmlns:inkscape="http://www.inkscape.org/namespaces/inkscape"
   id="svg2"
   version="1.1"
   inkscape:version="0.48.2 r9819"
   width="557.46863"
   height="1180.3315"
   sodipodi:docname="everydaylifeinpr00quenuoft_0199.svg">
  <metadata
     id="metadata8">
    <rdf:RDF>
      <cc:Work
         rdf:about="">
        <dc:format>image/svg+xml</dc:format>
        <dc:type
           rdf:resource="http://purl.org/dc/dcmitype/StillImage" />
        <dc:title></dc:title>
      </cc:Work>
    </rdf:RDF>
  </metadata>
  <defs
     id="defs6" />
  <sodipodi:namedview
     pagecolor="#ffffff"
     bordercolor="#666666"
     borderopacity="1"
     objecttolerance="10"
     gridtolerance="10"
     guidetolerance="10"
     inkscape:pageopacity="0"
     inkscape:pageshadow="2"
     inkscape:window-width="1920"
     inkscape:window-height="1176"
     id="namedview4"
     showgrid="false"
     fit-margin-top="0"
     fit-margin-left="0"
     fit-margin-right="0"
     fit-margin-bottom="0"
     inkscape:zoom="0.77631579"
     inkscape:cx="280.09383"
     inkscape:cy="591.40323"
     inkscape:window-x="0"
     inkscape:window-y="24"
     inkscape:window-maximized="1"
     inkscape:current-layer="svg2" />
  <path
     style="fill:#000000"
     d="m 89.583999,1179.4666 c -3.85,-0.6407 -7.98291,-1.7061 -9.18426,-2.3675 -1.20134,-0.6614 -2.89778,-1.2025 -3.76987,-1.2025 -0.87209,0 -3.42896,-1.2375 -5.68195,-2.75 -8.687,-5.8319 -11.47104,-7.2177 -14.53213,-7.2335 -5.15724,-0.027 -6.13971,-0.8712 -9.73737,-8.3689 -6.18528,-12.8903 -5.72849,-21.4288 1.74658,-32.6476 3.82746,-5.7443 12.3715,-14.2828 16.35164,-16.3411 1.69283,-0.8754 4.28303,-3.648 5.75599,-6.1615 2.55121,-4.3533 2.62237,-4.8384 1.50153,-10.2375 -1.1513,-5.5458 -1.12041,-5.7124 1.43662,-7.7513 2.06372,-1.6456 2.61322,-2.9571 2.61322,-6.2371 0,-2.2844 0.45,-4.4316 1,-4.7715 1.8825,-1.1635 0.99985,-3.0453 -2.25,-4.797 -4.26203,-2.2973 -7.78899,-7.5748 -8.47365,-12.6793 -0.52668,-3.9267 -0.32493,-4.3087 4.80663,-9.1012 4.61097,-4.3063 5.18564,-5.2404 4.12944,-6.7125 -0.67481,-0.9405 -1.78158,-2.835 -2.45948,-4.21 -0.6779,-1.375 -3.1436,-4.8726 -5.47932,-7.7724 -4.11783,-5.1124 -4.66825,-6.3616 -5.6081,-12.7276 -0.24359,-1.65 -1.05549,-5.25 -1.80421,-8 -2.0151,-7.40134 -1.38261,-11.12264 2.09659,-12.33554 2.54529,-0.8873 2.81078,-1.3925 2.53697,-4.8277 -0.76264,-9.56827 -2.8816,-24.50007 -5.5113,-38.83677 -1.08629,-5.9223 -1.7217,-10.08013 -4.01023,-26.24112 -1.23472,-8.71926 -0.83522,-23.25437 0.88007,-32.01969 1.25667,-6.42176 8.30946,-27.34978 11.75681,-34.88647 3.81932,-8.34988 6.18769,-23.45336 6.95492,-44.35274 0.27258,-7.425 0.89729,-15.3 1.38824,-17.5 0.77679,-3.48086 0.6331,-20.03477 -0.30105,-34.6836 -0.33275,-5.21796 -2.80473,-9.46623 -9.98428,-17.15868 l -4.51942,-4.84229 -7.45245,0.69835 c -4.09884,0.3841 -8.43064,0.38789 -9.62623,0.008 -2.11368,-0.67043 -7.06995,-9.66867 -7.06995,-12.83526 0,-1.95508 -1.87466,-3.32196 -5.66754,-4.13239 -2.72882,-0.58308 -3.55576,-1.56794 -5.97043,-7.11067 -2.33574,-5.36154 -3.35239,-6.6152 -6.09985,-7.52195 -3.3456,-1.10415 -6.26218,-5.14301 -6.26218,-8.67185 0,-2.32217 -1.87175,-4.24966 -4.1267605,-4.24966 -0.94971,0 -2.43471,-1.41914 -3.3,-3.15364 -2.33058,-4.67177 -1.97595,-11.11813 0.92676,-16.84636 3.13713,-6.19083 3.12087,-6.74555 -0.2906,-9.9108 -6.28323045,-5.82977 -7.7990905,-11.03864 -4.8277105,-16.5892 0.8832905,-1.65 1.6087605,-4.15149 1.6121505,-5.55887 0.009,-3.82823 1.80591,-5.43681 9.3995805,-8.41547 6.26898,-2.45904 7.85647,-2.63689 12.60658,-1.41235 1.22387,0.31551 1.61746,-1.36215 2.13807,-9.11331 0.35094,-5.225 0.68844,-13.94947 0.75,-19.38771 0.0616,-5.43824 0.85509,-15.75146 1.76338,-22.91827 1.62703,-12.83783 1.61875,-13.18707 -0.5599,-23.61229 -1.21624,-5.81995 -3.32333,-12.69785 -4.68243,-15.28422 -2.88234,-5.48512 -2.52235,-8.82392 1.40679,-13.04751 l 2.55827,-2.75 -2.54555,-2.75 c -1.40006,-1.5125 -3.36321,-4.18192 -4.36256,-5.93205 -1.79391,-3.1416 -1.78649,-3.22656 0.58328,-6.68502 1.32015,-1.92663 4.32032,-4.46189 6.66704,-5.6339 l 4.26677,-2.13092 -1.54485,-2.98741 c -1.84836,-3.57433 -1.08656,-11.02487 1.52151,-14.8807 1.99761,-2.95332 3.67055,-7.25997 4.5477,-11.70714 0.34791,-1.76393 1.50286,-5.00844 2.56655,-7.21003 1.06369,-2.20159 2.35649,-7.95838 2.87289,-12.79286 0.5164,-4.83448 1.69976,-10.97992 2.62969,-13.65654 1.30957,-3.76929 1.52256,-6.3622 0.94467,-11.5 -0.41037,-3.64838 -0.65869,-10.60439 -0.55182,-15.45779 0.23546,-10.69311 -1.29866,-17.6968 -4.54427,-20.74589 -1.94584,-1.82802 -2.42701,-3.28167 -2.43424,-7.35406 -0.008,-4.43442 0.37263,-5.39154 3.01174,-7.57569 2.94141,-2.43433 3.0259,-2.74956 3.21605,-12 0.10741,-5.225 -0.37816,-12.81216 -1.07904,-16.86036 -1.8877,-10.90315 -0.86827,-40.37016 1.86541,-53.92019 0.6969,-3.4543 1.00281,-6.54482 0.67981,-6.86782 -0.323,-0.323 0.31836,-2.89675 1.42524,-5.71945 1.10688,-2.8227 2.85496,-7.68456 3.88461,-10.80414 2.29947,-6.96678 6.58781,-15.70839 11.38449,-23.20681 1.99139,-3.11304 3.6207,-6.71959 3.6207,-8.01457 0,-1.84798 1.77482,-3.51106 8.25,-7.73058 4.5375,-2.95685 9.65314,-6.83858 11.36808,-8.62608 1.71494,-1.7875 4.05088,-3.25 5.19098,-3.25 1.140099,0 2.351019,-0.45 2.690939,-1 0.33992,-0.55 2.13992,-1 4,-1 1.860082,0 3.635882,-0.41084 3.946222,-0.91299 0.31034,-0.50214 2.3619,-1.21669 4.55902,-1.5879 2.19712,-0.3712 3.99476,-1.07249 3.99476,-1.55842 0,-0.48593 1.42907,-1.25381 3.1757,-1.70641 4.19071,-1.08592 5.64915,-5.18689 5.74822,-16.16328 0.0756,-8.37587 0.99565,-12.98149 3.67612,-18.40204 0.76998,-1.55707 1.39996,-3.69457 1.39996,-4.75 0,-1.05543 0.45,-1.91896 1,-1.91896 0.55,0 1,-0.49303 1,-1.09563 0,-0.6026 0.94868,-2.42793 2.10819,-4.05631 1.7455,-2.45132 2.00413,-3.85419 1.50334,-8.15437 -0.74718,-6.41581 0.44453,-11.74975 3.25249,-14.55771 1.17479,-1.17479 2.13598,-2.54153 2.13598,-3.0372 0,-0.49568 1.575,-1.8305 3.5,-2.96628 3.40591,-2.00954 4.45996,-4.71225 2.60614,-6.6825 -0.49163,-0.5225 -1.08154,-5.14025 -1.31093,-10.26167 -0.39027,-8.71359 -0.59285,-9.45223 -3.15403,-11.5 -2.3414,-1.87205 -2.81163,-3.12778 -3.25351,-8.68833 -0.28409,-3.574998 -0.65494,-8.002858 -0.82412,-9.839678 -0.2273,-2.46781 0.57271,-4.64781 3.06442,-8.35049 3.508,-5.212858 4.06426,-6.809828 2.37203,-6.809828 -0.55,0 -1,-1.71 -1,-3.8 0,-2.09 -0.47711,-4.27711 -1.06025,-4.86025 -1.37654,-1.37654 -1.97472,-20.8591 -0.91323,-29.743604 0.52624,-4.40445 1.58421,-7.930929 2.92234,-9.740845 1.15361,-1.560347 2.36897,-4.194475 2.7008,-5.85362 0.55991,-2.799539 2.57221,-4.922492 10.08019,-10.63446 1.54186,-1.173027 5.72091,-2.9436375 9.28677,-3.9346895 3.56586,-0.991052 8.92208,-2.871829 11.90272,-4.179504 2.98064,-1.307676 8.90498,-2.885628 13.16519,-3.506561 6.7821,-0.988501 8.47182,-0.900537 13.58066,0.706982 10.79812,3.39768 13.82352,4.690301 16.33482,6.979273 1.375,1.253251 7.9,5.5388255 14.5,9.5234995 15.1259,9.132077 17.7587,11.133204 22.3118,16.958739 2.1449,2.74431 5.7137,5.733652 8.5287,7.143887 2.6622,1.333723 5.0551,2.772293 5.3175,3.196823 0.2624,0.42454 0.671,3.3235 0.9081,6.44214 0.2928,3.85162 1.073,6.35355 2.4325,7.80067 1.1008,1.17173 2.0014,2.9483 2.0014,3.94793 0,0.99964 0.842,3.22063 1.8711,4.93555 2.7517,4.58554 3.4212,11.84691 1.5286,16.577158 -1.4167,3.5406 -1.4186,4.18887 -0.02,6.72946 7.0836,12.865908 8.5168,18.267668 6.6683,25.132518 -0.7803,2.89771 -1.6653,4.1789 -2.8867,4.1789 -2.8378,0 -4.1615,2.10687 -4.1615,6.6234 0,3.2867 0.7763,5.24036 3.5,8.80866 1.925,2.52188 3.5,4.78637 3.5,5.03218 0,0.24582 1.125,2.10472 2.5,4.1309 2.5205,3.71414 3.3802,10.05327 1.6213,11.95486 -0.4833,0.5225 -1.1694,2.58797 -1.5247,4.58993 -0.5622,3.16819 -0.1879,4.20499 2.888,8 1.9437,2.39804 4.4552,6.38507 5.5811,8.86007 1.1259,2.475 2.9217,6.23003 3.9907,8.3445 2.9041,5.74441 2.3097,9.62224 -2.1281,13.88492 -1.8709,1.79706 -1.5644,4.84498 0.9619,9.56545 0.6104,1.14051 1.1098,4.04537 1.1098,6.45525 0,4.05857 0.2901,4.54467 3.9356,6.59354 3.9284,2.20787 8.0644,7.54357 8.0644,10.40353 0,2.37687 4.8215,12.29576 6.754,13.89459 0.9603,0.79446 2.871,2.02281 4.246,2.72965 6.9958,3.5963 18.2296,24.52039 20.9959,39.10687 0.5444,2.87086 1.5556,6.36915 2.247,7.77398 l 1.2571,2.55423 17.5,0.22457 c 15.6181,0.20042 23.1785,0.7753 44.5,3.38367 5.2549,0.64286 8.2387,1.53463 17,5.08077 1.1,0.44523 4.5698,1.79846 7.7107,3.00719 3.1409,1.20873 6.2335,2.8276 6.8725,3.59749 0.6389,0.76989 1.7124,1.3998 2.3856,1.3998 1.8066,0 7.1353,2.818 8.5484,4.52075 0.6752,0.81359 2.2976,1.47925 3.6052,1.47925 1.3077,0 2.3776,0.45 2.3776,1 0,0.55 0.9266,1 2.059,1 1.1325,0 1.8061,0.40921 1.497,0.90935 -0.3091,0.50014 1.3519,1.87229 3.691,3.04923 7.1765,3.61084 8.8748,4.78608 18.846,13.04142 2.325,1.925 5.3928,4.24448 6.8172,5.15439 6.4654,4.13018 27.8827,27.43996 33.5003,36.4605 2.7008,4.33681 5.6411,8.78511 6.534,9.88511 0.8929,1.1 2.6876,4.025 3.9881,6.5 1.3005,2.475 2.9727,5.21043 3.716,6.07874 0.7433,0.86831 1.3514,2.24533 1.3514,3.06005 0,0.81473 2.2939,7.07929 5.0975,13.92126 2.8036,6.84197 5.7489,14.68995 6.5451,17.43995 0.7961,2.75 1.8452,5.9 2.3312,7 3.5825,8.10803 7.751,56.91627 5.9973,70.22145 -2.7865,21.14094 -2.9572,21.97132 -7.9756,38.77855 -0.9853,3.3 -2.0425,7.41913 -2.3492,9.15362 -0.3068,1.73449 -1.8832,6.00949 -3.5031,9.5 -1.62,3.49051 -3.2342,7.32418 -3.5872,8.51927 -0.353,1.19509 -2.1871,5.34802 -4.0757,9.22872 -2.0418,4.19543 -3.1702,7.74293 -2.7835,8.75072 0.4951,1.29015 0.2508,1.54152 -1.0232,1.05266 -0.9205,-0.35322 -1.6736,-0.17492 -1.6736,0.39622 0,4.30808 -29.7173,39.35601 -39.3417,46.39879 -1.5032,1.1 -4.4038,3.46421 -6.4457,5.2538 -6.5865,5.77258 -22.3751,16.24211 -28.2126,18.70799 -0.825,0.3485 -3.3,1.72647 -5.5,3.06217 -2.2,1.3357 -4.9,2.8367 -6,3.33554 -1.1,0.49885 -5.6,2.58072 -10,4.62639 -4.4,2.04567 -10.2946,4.03866 -13.099,4.42888 -2.8045,0.39022 -6.8545,1.75501 -9,3.03286 -8.4211,5.01546 -34.7939,8.85396 -64.6423,9.40854 -5.2356,0.0973 -7.7441,0.52931 -7.75,1.33481 0,0.65504 0.3914,1.43829 0.8805,1.74055 0.4891,0.30227 1.1874,1.73751 1.5518,3.18944 0.3644,1.45193 2.4752,6.88256 4.6907,12.06806 2.2155,5.18551 4.8734,12.47821 5.9064,16.20602 1.0331,3.72781 3.4091,10.11393 5.2801,14.19139 1.871,4.07746 5.0755,11.91356 7.1211,17.41356 5.4517,14.65795 15.4968,40.38775 17.5684,45 0.9881,2.2 2.2925,5.85535 2.8988,8.12301 0.6062,2.26765 2.4722,7.44265 4.1467,11.5 1.6745,4.05734 3.4311,8.95199 3.9036,10.87699 2.4322,9.90923 7.0697,20.61413 9.9994,23.08173 2.5995,2.18957 3.1303,3.43098 3.4942,8.17249 0.2359,3.07491 1.3561,7.62594 2.4893,10.1134 1.1332,2.48746 2.0603,5.18537 2.0603,5.99535 0,0.80999 1.125,3.71253 2.5,6.4501 1.375,2.73756 2.5053,5.81203 2.5119,6.83216 0.01,1.02012 0.7028,4.32977 1.5474,7.35477 1.7726,6.34924 2.0962,7.86099 2.997,14 0.7111,4.84692 4.0329,17.23775 5.4957,20.50002 0.4932,1.1 1.8129,4.5134 2.9326,7.5853 1.1197,3.0719 3.1562,6.6378 4.5256,7.9243 2.6457,2.4855 3.1729,6.0635 1.5301,10.3844 -1.1313,2.9755 -6.7719,6.0717 -12.9307,7.0978 -4.1507,0.6915 -4.5682,0.5373 -7.6501,-2.8269 -3.3181,-3.6219 -6.4595,-9.0354 -6.4595,-11.1314 0,-1.1785 -2.8344,-7.0092 -7.794,-16.0335 -3.6562,-6.65268 -10.3656,-16.40036 -13.422,-19.50002 -2.9706,-3.01261 -8.2917,-12.12706 -17.1006,-29.29171 -6.3272,-12.32881 -6.5578,-13.03602 -6.3741,-19.54275 0.1749,-6.19261 -0.204,-7.57466 -4.5812,-16.70829 -2.6246,-5.47649 -5.4301,-11.08225 -6.2345,-12.45725 -0.8044,-1.375 -2.39,-4.5426 -3.5237,-7.0391 -8.7042,-19.16767 -13.7974,-29.4034 -14.7967,-29.73649 -2.1057,-0.70192 -1.2561,4.31617 1.915,11.30979 2.2808,5.03034 2.922,7.61535 2.4525,9.88832 -1.5913,7.70429 -1.6865,9.81117 -0.5661,12.5162 0.9957,2.40385 0.9055,3.51161 -0.5326,6.54227 -1.947,4.10289 -1.3414,8.42027 3.0881,22.01901 1.2541,3.85 2.5717,8.8 2.928,11 0.3563,2.2 1.9568,8.05 3.5566,13 4.7513,14.70085 5.3658,20.85341 4.6046,46.10202 -0.3763,12.4816 -0.9279,23.0883 -1.2258,23.5703 -1.1562,1.8708 0.7509,6.8277 2.6269,6.8277 1.0239,0 2.1459,0.4601 2.4934,1.0224 0.3476,0.5623 3.2991,2.3688 6.559,4.01437 4.7524,2.399 5.9272,3.4665 5.9272,5.3859 0,2.0325 -5.7369,10.2511 -10.8105,15.48704 -2.758,2.8461 -6.3178,9.3137 -5.8284,10.5891 0.2771,0.7219 1.878,1.6144 3.5577,1.9834 3.2984,0.7244 7.3319,5.4594 7.6011,8.9229 0.1037,1.3343 -1.6178,3.7993 -4.7416,6.7894 l -4.9043,4.6945 4.313,1.1533 c 2.3721,0.6343 4.8755,1.6143 5.563,2.1779 1.8108,1.4844 1.5356,5.5502 -0.6913,10.2141 -3.1271,6.549 -3.6017,9.5657 -1.505,9.5657 2.5313,0 10.2186,4.7061 11.4521,7.0109 1.2497,2.335 0.3415,6.6463 -2.0512,9.7378 -1.6586,2.1431 -1.6515,2.423 0.1525,5.9614 1.0411,2.042 1.8929,4.6908 1.8929,5.8862 0,1.7273 1.0402,2.5137 5.0669,3.8308 9.8884,3.2343 15.5137,6.4341 21.915,12.4655 3.5651,3.3591 6.7431,6.1074 7.0622,6.1074 0.3191,0 2.443,0.9 4.7198,2 2.2767,1.1 4.5767,2 5.1111,2 0.5343,0 2.2492,1.0751 3.8108,2.389 5.071,4.2671 15.9534,8.7043 24.8986,10.1523 9.2993,1.5054 13.5936,3.6195 18.3457,9.0318 2.823,3.2153 3.0699,4.0798 3.0699,10.7498 0,10.2372 -2.612,15.2035 -10,19.0133 -7.1982,3.7119 -9.8648,4.4754 -17.8502,5.1108 -3.6574,0.2911 -12.2748,1.0262 -19.1498,1.6335 -14.2851,1.2621 -19.4085,1.2363 -24.1424,-0.1214 -1.8394,-0.5275 -4.7887,-0.9591 -6.554,-0.9591 -4.0404,0 -7.614,-1.5484 -13.1974,-5.7185 -2.4166,-1.8048 -5.4798,-3.2815 -6.8072,-3.2815 -3.3687,0 -11.528,-2.0757 -13.1409,-3.343 -0.8289,-0.6513 -9.6658,-1.1286 -23.1154,-1.2485 -12.2085,-0.1088 -22.6014,-0.6341 -23.6581,-1.1958 -1.0365,-0.551 -5.619,-1.7036 -10.1834,-2.5614 -14.9318,-2.8063 -20.2012,-6.9276 -20.2012,-15.7997 0,-6.2696 1.9382,-20.6137 3.5726,-26.4395 0.7851,-2.7983 1.4274,-7.4253 1.4274,-10.2821 0,-5.1047 2.1199,-11.968 4.0685,-13.1723 0.5876,-0.3632 0.1901,-1.6305 -0.9768,-3.114 -3.1127,-3.9571 -3.4867,-7.0426 -1.1568,-9.5435 l 2.0312,-2.1802 -2.873,-2.8731 c -1.5802,-1.5801 -3.6576,-5.362 -4.6166,-8.4041 l -1.7435,-5.5311 2.6335,-4.4937 c 3.2118,-5.4805 3.2158,-5.6732 0.25,-12.1569 -1.6062,-3.5116 -5.0815,-7.8114 -10.6574,-13.1859 -4.5507,-4.3864 -8.9907,-8.8296 -9.8666,-9.874 -0.8759,-1.0443 -5.9325,-6.9411 -11.2369,-13.1041 -9.28,-10.78204 -22.2037,-27.41051 -39.5572,-50.89691 -4.511,-6.1051 -11.22655,-14.96169 -14.92358,-19.68127 -3.69704,-4.71957 -7.8813,-10.65891 -9.29836,-13.19853 -1.41706,-2.53963 -3.92647,-6.65915 -5.57647,-9.1545 -1.65,-2.49536 -4.8,-7.494 -7,-11.1081 -10.31911,-16.95193 -14.43571,-23.20558 -20.24029,-30.74762 -1.78217,-2.31561 -3.25467,-4.6602 -3.27224,-5.2102 -0.0176,-0.55 -0.88358,-2.10824 -1.92448,-3.46275 l -1.89254,-2.46274 -0.70521,3.7591 c -0.38787,2.0675 -0.45341,6.10073 -0.14564,8.96274 2.87827,26.76614 3.21483,53.55524 0.7438,59.20365 -0.72183,1.65 -1.65239,3.9 -2.0679,5 -0.41552,1.1 -2.77764,6.275 -5.24916,11.50002 l -4.49368,9.5 -1.22187,20.2793 -1.22187,20.27937 4.08043,3.7206 4.08044,3.72074 -1.95097,4 c -1.07302,2.2 -1.96623,4.5804 -1.98489,5.2898 -0.0187,0.7094 -0.93693,3.0599 -2.04061,5.2233 l -2.00667,3.9334 4.50667,4.1541 c 2.47868,2.2848 4.50668,5.0399 4.50668,6.1225 0,2.4803 -2.88836,7.7038 -5.46404,9.8814 -1.61893,1.3688 -1.77487,2.0766 -0.88747,4.028 0.79324,1.7444 0.72959,3.6834 -0.24183,7.3675 -2.05627,7.7984 -1.69432,14.2881 1.11547,20 1.35277,2.75 2.4637,5.7125 2.46873,6.5833 0.005,0.8709 0.27947,1.8537 0.60987,2.1841 0.80555,0.8055 1.55049,8.3705 1.84465,18.7326 0.13271,4.675 0.83297,10.4773 1.55612,12.8939 1.35497,4.528 1.287,4.9299 -3.06297,18.1061 -0.45394,1.375 -1.3351,5.2 -1.95813,8.5 -1.87132,9.9118 -5.72469,18.7669 -10.74014,24.6812 -0.89258,1.0525 -1.29755,3.2519 -1.08298,5.8818 0.24425,2.9936 -0.0883,4.4149 -1.15728,4.9467 -3.79089,1.8858 -9.62777,3.1694 -16.26839,3.5774 -3.97738,0.2444 -8.131612,0.6027 -9.231612,0.7962 -1.1,0.1934 -5.15,-0.1725 -8.999999,-0.8133 z M 259.96251,945.87779 c -1.0101,-7.61459 -0.526,-20.51387 1.1883,-31.66618 1.6913,-11.00184 2.1446,-28.51659 0.966,-37.31504 -1.4193,-10.59404 -6.0441,-25.54892 -9.5303,-30.81692 -1.8232,-2.75491 -2.9406,-6.26064 -3.6132,-11.33572 -1.4548,-10.97741 -6.2338,-25.22856 -9.3188,-27.78884 -0.8498,-0.70525 -2.1626,-1.0453 -2.9174,-0.75566 -0.7547,0.28964 -3.123,-1.00139 -5.2627,-2.86894 -4.0851,-3.56549 -6.2446,-4.17976 -8.1158,-2.30857 -0.8337,0.83379 -2.2991,0.55713 -5.6559,-1.06788 -3.5863,-1.73609 -5.4747,-2.05165 -9.0603,-1.51396 -6.75158,1.01246 -21.67245,-1.91351 -33.94176,-6.65595 -8.24507,-3.18696 -9.80725,-2.73834 -13.97451,4.01317 -2.44602,3.96286 -3.64214,7.09908 -3.64214,9.54966 0,2.00691 -0.66313,4.93128 -1.47362,6.4986 -1.37766,2.66409 -1.30366,3.10042 1.1362,6.70034 1.43541,2.11787 4.54416,6.00417 6.90834,8.63622 2.36419,2.63205 7.1404,8.62454 10.6138,13.31666 8.49558,11.47642 26.96227,34.68182 32.68329,41.07008 6.309,7.04484 15.1097,17.86356 18.0827,22.2291 1.348,1.97924 2.8173,4.04861 3.2652,4.59861 0.7324,0.89946 7.787,10.244 15.8536,21 1.6499,2.2 3.6593,4.79264 4.4652,5.76143 0.8059,0.96879 1.4653,2.19063 1.4653,2.7152 0,0.52458 1.275,2.43194 2.8333,4.23857 1.5583,1.80662 3.8883,5.19222 5.1778,7.52362 1.2895,2.3313 2.4605,4.1229 2.6022,3.9812 0.1416,-0.1416 -0.189,-3.6241 -0.7348,-7.7388 z M 87.209889,693.14657 c 0.0692,-1.5125 0.0323,-6.575 -0.0822,-11.25 -0.11442,-4.675 0.50551,-13.58935 1.37764,-19.80966 0.87212,-6.22032 1.81852,-19.72032 2.10312,-30 0.28459,-10.27969 1.183,-22.848 1.996469,-27.92957 0.81347,-5.08158 1.47903,-12.05802 1.47903,-15.50319 0,-3.44517 0.89161,-9.38173 1.98135,-13.19237 1.08974,-3.81063 1.94092,-9.4342 1.8915,-12.49681 -0.0818,-5.0674 0.61631,-7.94868 6.315822,-26.0684 1.34598,-4.2791 1.10828,-14.93727 -0.37293,-16.72202 -2.0146,-2.42745 -3.999932,0.5952 -3.71712,5.65928 0.26627,4.76775 -0.966722,12.52798 -1.850142,11.64455 -0.2813,-0.28129 -1.35228,-0.0614 -2.37996,0.48856 -1.49723,0.80129 -1.86852,2.16043 -1.86852,6.83981 0,8.77823 -0.86264,11.92849 -3.364079,12.28522 -1.71024,0.24389 -2.36755,1.40072 -3.29817,5.8046 -1.57164,7.43732 -4.86125,15.8518 -7.19478,18.40349 -4.83112,5.28278 -6.19365,10.12447 -7.08056,25.16053 -0.46976,7.96404 -1.34237,15.06838 -1.93912,15.78743 -1.47403,1.77609 -5.32945,21.64174 -4.69558,24.19463 0.27942,1.12535 2.68069,4.75327 5.33616,8.06204 6.93646,8.64299 9.03845,14.23942 10.16347,27.05968 0.52395,5.97072 1.25279,11.63803 1.61964,12.59403 1.05524,2.7499 3.43754,2.07637 3.57891,-1.01183 z"
     id="path2987"
     inkscape:connector-curvature="0"
     inkscape:export-xdpi="300"
     inkscape:export-ydpi="300" />
</svg>
