<?xml version="1.0" encoding="UTF-8" standalone="no"?>
<!-- Created with Inkscape (http://www.inkscape.org/) -->

<svg
   xmlns:dc="http://purl.org/dc/elements/1.1/"
   xmlns:cc="http://creativecommons.org/ns#"
   xmlns:rdf="http://www.w3.org/1999/02/22-rdf-syntax-ns#"
   xmlns:svg="http://www.w3.org/2000/svg"
   xmlns="http://www.w3.org/2000/svg"
   xmlns:sodipodi="http://sodipodi.sourceforge.net/DTD/sodipodi-0.dtd"
   xmlns:inkscape="http://www.inkscape.org/namespaces/inkscape"
   id="svg2"
   version="1.1"
   inkscape:version="0.48.2 r9819"
   width="1323.3623"
   height="1350.6138"
   sodipodi:docname="childsbookofwarr00cant_0347c.png">
  <metadata
     id="metadata8">
    <rdf:RDF>
      <cc:Work
         rdf:about="">
        <dc:format>image/svg+xml</dc:format>
        <dc:type
           rdf:resource="http://purl.org/dc/dcmitype/StillImage" />
        <dc:title></dc:title>
      </cc:Work>
    </rdf:RDF>
  </metadata>
  <defs
     id="defs6" />
  <sodipodi:namedview
     pagecolor="#ffffff"
     bordercolor="#666666"
     borderopacity="1"
     objecttolerance="10"
     gridtolerance="10"
     guidetolerance="10"
     inkscape:pageopacity="0"
     inkscape:pageshadow="2"
     inkscape:window-width="1600"
     inkscape:window-height="876"
     id="namedview4"
     showgrid="false"
     fit-margin-top="0"
     fit-margin-left="0"
     fit-margin-right="0"
     fit-margin-bottom="0"
     inkscape:zoom="0.5"
     inkscape:cx="676.72989"
     inkscape:cy="650.91654"
     inkscape:window-x="0"
     inkscape:window-y="24"
     inkscape:window-maximized="1"
     inkscape:current-layer="svg2" />
  <path
     style="fill:#000000"
     d="m 1219.2299,1349.1389 c -2.2,-0.7796 -5.1944,-2.0979 -6.6543,-2.9296 -3.0217,-1.7214 -7.8556,-1.9432 -12.6132,-0.5788 -2.2877,0.6561 -5.507,0.4739 -10.8394,-0.6135 -5.5804,-1.138 -8.8365,-1.2994 -12.3195,-0.6107 -2.6039,0.5148 -5.5982,0.5975 -6.654,0.1838 -3.2608,-1.278 -7.9605,-0.9686 -11.4071,0.7508 -2.9767,1.4849 -7.5828,1.5732 -47.6994,0.9147 -24.4225,-0.401 -47.8714,-1.1979 -52.1088,-1.7709 -4.2374,-0.573 -11.3043,-1.141 -15.7043,-1.2621 -18.1986,-0.501 -18.5391,-0.6152 -16.0686,-5.3927 0.891,-1.723 2.0263,-3.1327 2.5229,-3.1327 0.4965,0 1.4975,-0.58 2.2243,-1.289 2.9222,-2.8505 11.1819,-8.711 12.2771,-8.711 0.6425,0 2.1663,-1.35 3.3862,-3 1.2199,-1.65 2.8205,-3 3.5569,-3 0.7364,0 3.8444,-2.3625 6.9067,-5.25 12.1756,-11.4805 16.0162,-14.75 17.3264,-14.75 0.7525,0 1.3681,-0.6053 1.3681,-1.345 0,-1.8315 3.2666,-4.655 5.3854,-4.655 1.586,0 1.6,-0.1827 0.1713,-2.2225 -0.8562,-1.2224 -1.5567,-2.5002 -1.5567,-2.8395 0,-1.1954 5.1374,-2.9385 8.7971,-2.9848 5.4977,-0.069 16.3207,-4.0349 20.3426,-7.4532 1.9413,-1.65 4.5855,-5.25 5.876,-8 1.2905,-2.75 2.8274,-5.3238 3.4153,-5.7195 0.7448,-0.5013 0.6899,-1.3311 -0.181,-2.7364 -1.6745,-2.7019 -1.5764,-4.7049 0.265,-5.4115 0.8333,-0.3197 1.9848,-1.817 2.559,-3.3272 0.8392,-2.2073 0.7279,-2.9771 -0.5677,-3.9244 -0.8864,-0.6482 -2.0651,-2.8211 -2.6195,-4.8288 -0.9234,-3.3443 -0.7514,-3.9424 2.0527,-7.136 1.6833,-1.9172 3.0605,-4.5686 3.0605,-5.892 0,-1.3234 0.45,-2.6843 1,-3.0242 0.55,-0.3399 1,-1.5547 1,-2.6995 0,-1.1448 0.972,-4.0277 2.16,-6.4064 l 2.16,-4.3249 -2.66,-3.8384 c -1.463,-2.111 -2.66,-4.5751 -2.66,-5.4755 0,-0.9005 -0.3758,-1.8695 -0.8351,-2.1534 -0.4593,-0.2839 -2.7712,-4.4729 -5.1375,-9.309 -2.3663,-4.8361 -4.578,-9.0179 -4.9149,-9.2929 -0.3369,-0.275 -1.122,-1.9255 -1.7446,-3.6679 -0.8429,-2.3584 -0.8429,-3.4615 0,-4.3173 0.8442,-0.8571 0.7506,-1.4553 -0.3679,-2.3521 -1.8984,-1.5221 -4,-5.2122 -4,-7.0234 0,-0.7634 -1.575,-3.1074 -3.5,-5.209 -1.925,-2.1016 -3.5,-4.6332 -3.5,-5.6257 0,-0.9925 -0.3401,-1.8046 -0.7559,-1.8046 -1.0893,0 -3.4145,-5.6106 -3.1976,-7.7158 0.3888,-3.7741 0.037,-4.5983 -1.44,-3.3726 -1.0933,0.9073 -2.6548,0.3958 -7.25,-2.375 -3.2211,-1.9423 -6.7275,-3.5326 -7.7921,-3.534 -1.0646,0 -3.9896,1.7248 -6.5,3.836 -2.5104,2.1113 -5.6894,4.4272 -7.0644,5.1467 -1.375,0.7194 -3.9099,2.4795 -5.6331,3.9114 -1.7233,1.4318 -4.6281,3.7283 -6.4552,5.1033 -7.8175,5.883 -8.1329,6.3092 -7.4204,10.0238 0.8397,4.3774 4.109,6.8405 9.6975,7.3061 5.7661,0.4803 17.7981,4.3079 20.3112,6.4613 5.7832,4.9555 9.4566,14.5769 8.0355,21.047 -0.7211,3.2832 -5.5379,8.5946 -9.7868,10.7918 -4.1635,2.153 -13.2087,0.1395 -17.0727,-3.8004 -2.3767,-2.4234 -2.7118,-3.3901 -2.1158,-6.1036 0.7394,-3.3664 3.7827,-6.726 6.0928,-6.726 0.7409,0 1.347,-0.5844 1.347,-1.2987 0,-0.8064 -1.4217,-1.3578 -3.75,-1.4546 -2.0625,-0.086 -6.1331,-0.4462 -9.0459,-0.8009 l -5.2959,-0.645 2.0422,3.3496 c 2.1215,3.4798 2.9594,13.8496 1.1192,13.8496 -0.5118,0 -1.0743,1.0125 -1.25,2.25 -0.1959,1.3791 -1.1223,2.3648 -2.3934,2.5465 -1.1406,0.163 -3.5404,1.8513 -5.3329,3.7517 -1.7925,1.9004 -4.3458,3.728 -5.674,4.0614 -3.1878,0.8001 -9.64,-1.8138 -10.9975,-4.4553 -0.6912,-1.3449 -1.4238,-1.7523 -2.0412,-1.1349 -0.5296,0.5296 -3.0915,1.3606 -5.693,1.8467 -5.5581,1.0383 -9.6862,-0.1022 -14.9771,-4.1378 -1.96741,-1.5005 -4.07851,-2.7283 -4.69141,-2.7283 -1.979,0 -11.0329,-9.8005 -10.4521,-11.314 0.3014,-0.7855 -0.099,-2.0749 -0.8893,-2.8654 -2.0712,-2.0713 -0.4086,-19.84 2.2115,-23.634 1.0204,-1.4776 3.1156,-4.9366 4.6559,-7.6866 1.5404,-2.75 4.5135,-6.5763 6.607,-8.5028 l 3.80621,-3.5029 -0.8792,-7.84 c -0.7979,-7.1147 -0.6411,-8.5483 1.6949,-15.4961 1.4158,-4.2109 3.8458,-9.4116 5.4001,-11.5572 1.5542,-2.1456 2.8259,-4.4387 2.8259,-5.0958 0,-0.657 2.2493,-3.402 4.9985,-6.0999 2.7492,-2.6979 4.9992,-5.4819 5,-6.1867 8e-4,-0.7047 0.6321,-1.5234 1.4029,-1.8191 1.4152,-0.5431 1.5764,-2.755 0.2942,-4.0372 -0.3826,-0.3826 -0.6956,-1.5731 -0.6956,-2.6456 0,-1.493 -0.4956,-1.8203 -2.1152,-1.3968 -1.1634,0.3042 -2.8509,0.1722 -3.75,-0.2933 -3.7026,-1.9172 -12.5287,-5.0266 -14.2682,-5.0266 -1.0266,0 -2.72161,-0.855 -3.76661,-1.9 -1.2406,-1.2406 -2.24,-1.56 -2.8799,-0.9201 -0.6398,0.6398 -3.2636,0.066 -7.5606,-1.6529 -3.6194,-1.448 -7.161,-2.5328 -7.8701,-2.4107 -2.0375,0.3508 -23.7086,-10.4763 -23.7512,-11.8663 -0.021,-0.6875 -0.5299,-1.25 -1.1308,-1.25 -0.601,0 -3.1885,-1.5899 -5.75,-3.5331 -7.0315,-5.3341 -14.9748,-10.4669 -16.1983,-10.4669 -1.643,0 -27.2511,-25.9482 -29.8536,-30.25 -1.2477,-2.0625 -2.6379,-3.75 -3.0892,-3.75 -0.4514,0 -1.3412,-1.2375 -1.9774,-2.75 -2.2163,-5.2688 -3.5214,-7.25 -4.776,-7.25 -0.6946,0 -1.2629,-0.6861 -1.2629,-1.5248 0,-0.8386 -1.125,-1.9524 -2.5,-2.4752 -1.5289,-0.5813 -2.5,-1.7358 -2.5,-2.9724 0,-1.112 -1.575,-3.7652 -3.5,-5.8959 -1.925,-2.1308 -3.5,-4.327 -3.5,-4.8805 0,-0.5535 -0.6285,-1.528 -1.3968,-2.1655 -0.7682,-0.6376 -1.1925,-1.9401 -0.9429,-2.8946 0.6579,-2.5159 -3.3716,-5.6856 -9.1603,-7.2057 -7.6396,-2.0061 -13.9642,-5.6669 -17.6566,-10.2199 -1.8389,-2.2674 -4.5809,-5.34772 -6.0934,-6.84521 -1.5125,-1.49749 -2.75,-3.01116 -2.75,-3.36371 0,-0.8333 -1.5036,-2.69355 -7,-8.66054 -4.2324,-4.59471 -7,-6.14264 -7,-3.91509 0,0.53952 -1.2375,1.2511 -2.75,1.58128 -1.5125,0.33019 -3.9949,1.07144 -5.5165,1.64723 -2.421,0.91612 -3.0768,0.71217 -5.25,-1.63281 -1.3659,-1.47383 -2.4835,-3.28336 -2.4835,-4.02118 0,-0.73782 -0.6301,-1.5833 -1.4003,-1.87885 -0.7702,-0.29555 -1.6977,-2.29718 -2.0611,-4.44806 -0.5363,-3.17474 -1.6139,-4.63764 -5.7259,-7.77349 l -5.0652,-3.86279 -2.1418,2.45386 c -2.0613,2.36177 -8.5381,5.95386 -10.7353,5.95386 -0.5839,0 -2.4073,0.95821 -4.0521,2.12936 -4.7253,3.36474 -12.115,6.86188 -14.5093,6.86645 -1.205,0.002 -2.4855,0.48076 -2.8455,1.06324 -0.36,0.58248 -1.624,0.95891 -2.809,0.83653 -1.185,-0.12239 -3.2795,0.27196 -4.6545,0.87634 -2.6839,1.1797 -16.1759,3.39501 -22.1264,3.63304 -1.9946,0.0798 -4.258,0.66918 -5.0299,1.30976 -0.7718,0.64058 -4.0899,1.22984 -7.3735,1.30947 -5.9402,0.14405 -23.7126,1.97816 -38.9702,4.02173 -17.7072,2.37165 -52.3625,3.27053 -60,1.55626 -5.0182,-1.12636 -14.1722,-0.86973 -17.6163,0.49386 -2.4301,0.96211 -3.9472,3.01011 -5.2208,7.04756 -0.7909,2.5072 -15.8356,3.9047 -19.7106,1.8309 -0.9514,-0.5092 -3.2423,-1.0237 -5.091,-1.1435 -2.162,-0.14 -4.3456,-1.21907 -6.12,-3.02433 -1.5173,-1.54367 -3.2048,-2.86292 -3.75,-2.93167 -4.1635,-0.52501 -7.6848,-0.35334 -8.7286,0.42552 -0.6805,0.50778 -1.8243,0.69795 -2.5419,0.4226 -0.7175,-0.27535 -2.1592,0.12431 -3.2038,0.88812 -1.0446,0.76382 -2.6007,1.38187 -3.4581,1.37345 -1.3716,-0.0135 -1.3787,-0.1318 -0.059,-0.98469 1.2819,-0.82843 1.2455,-0.9716 -0.25,-0.98469 -0.9625,-0.008 -1.75,0.43469 -1.75,0.98469 0,1.4215 -4.3588,1.2412 -5.8416,-0.24164 -0.9657,-0.96562 -1.4076,-0.97319 -1.988,-0.0341 -0.8018,1.29739 -4.1158,0.49732 -15.1563,-3.65904 -3.0172,-1.1359 -5.7172,-2.06515 -6,-2.06501 -0.4432,2.1e-4 -1.361,20.57869 -1.3826,30.99979 0,1.925 0.56,7.55 1.2533,12.5 0.8475,6.0507 0.9795,11.2939 0.4029,16 -0.623,5.0852 -0.5171,7.68 0.3872,9.4859 0.6846,1.3673 0.9924,3.4915 0.684,4.7205 -0.3171,1.2631 0.035,2.8306 0.8105,3.6059 0.9789,0.9789 1.4537,4.9133 1.6588,13.7467 0.1581,6.8065 0.7075,12.8816 1.2209,13.5002 0.5135,0.6187 0.6679,1.3905 0.3432,1.7151 -0.3246,0.3247 0.6325,3.8833 2.127,7.908 2.2709,6.1158 2.7496,9.1244 2.9144,18.3177 0.1085,6.05 0.5519,13.25 0.9854,16 0.4335,2.75 0.8541,10.668 0.9346,17.5956 0.089,7.6609 0.5896,13.1458 1.2778,14 1.0273,1.2751 1.9089,5.1198 2.7295,11.9044 0.2277,1.8822 0.9764,2.5796 3.0298,2.8221 1.5,0.1772 2.9639,1.0772 3.253,2 0.7242,2.3112 3.3343,9.0027 5.0603,12.973 1.8232,4.1937 1.4828,5.0865 -2.5926,6.8001 -2.921,1.2281 -3.2528,1.2155 -2.7461,-0.105 0.3862,-1.0064 -0.781,-2.3588 -3.5376,-4.0989 -2.2627,-1.4284 -5.179,-3.7463 -6.4808,-5.1509 -3.2691,-3.5274 -3.9766,-2.1774 -1.8193,3.4712 0.999,2.6159 2.0015,4.2009 2.2277,3.5223 0.4957,-1.4873 4.2446,-1.6662 4.2446,-0.2025 0,0.5672 -0.6721,1.2893 -1.4936,1.6045 -1.2673,0.4863 -1.1915,0.9976 0.5,3.373 1.0965,1.5399 1.9936,3.341 1.9936,4.0025 0,0.6614 0.675,0.9436 1.5,0.627 0.825,-0.3166 1.5,-0.085 1.5,0.5154 0,0.7197 0.5105,0.6674 1.5,-0.1538 1.2613,-1.0468 1.5024,-0.8674 1.5153,1.1276 0.012,1.9078 0.2081,2.0787 1,0.8724 0.8753,-1.3333 1.0941,-1.3333 1.9694,0 0.5416,0.825 0.9916,2.0625 1,2.75 0.01,0.6875 0.5072,1.1375 1.1084,1 1.3153,-0.3008 3.5993,2.8909 2.7072,3.7831 -0.346,0.3459 -1.5402,0.1413 -2.654,-0.4548 -2.2851,-1.2229 -4.3426,0.5643 -2.1848,1.8979 0.6697,0.4139 1.0902,2.0511 0.9344,3.6382 -0.1558,1.5871 0.3247,4.0009 1.0678,5.364 1.919,3.5201 2.1918,8.8357 0.4729,9.2151 -1.1757,0.2595 -1.1683,0.6896 0.048,2.8065 0.7902,1.375 1.7542,3.132 2.1422,3.9045 1.0833,2.1567 -5.9442,14.7819 -10.8693,19.5271 -1.2418,1.1964 -3.6588,3.7262 -5.3713,5.6218 -1.7124,1.8956 -3.9593,3.9437 -4.9931,4.5512 -1.6531,0.9716 -1.7074,1.3121 -0.4507,2.8262 1.2387,1.4926 1.2378,1.8425 -0.01,2.6301 -0.7897,0.4997 -1.9841,0.9154 -2.6544,0.9238 -0.6702,0.01 -0.9978,0.5907 -0.7279,1.294 1.1281,2.9398 -6.0973,7.6572 -11.8034,7.7062 -0.9625,0.01 -1.75,0.4651 -1.75,1.0151 0,0.55 -1.574,1 -3.4977,1 -2.6259,0 -4.4253,-0.875 -7.2192,-3.5103 -2.0469,-1.9306 -4.1449,-3.3691 -4.6622,-3.1967 -0.5174,0.1725 -1.7314,1.7878 -2.6977,3.5897 -0.9664,1.8019 -2.5444,4.1462 -3.5068,5.2096 -1.9133,2.1142 -2.4023,9.5647 -0.6023,9.1767 0.5894,-0.127 2.4473,1.438 4.1287,3.4779 2.6761,3.2465 3.0572,4.4754 3.0572,9.8585 0,4.3569 0.4557,6.5279 1.5631,7.447 1.3486,1.1193 1.3643,1.4087 0.114,2.1084 -0.7971,0.4461 -1.7459,2.3924 -2.1085,4.3251 -0.4869,2.5954 -1.1703,3.5141 -2.614,3.5141 -1.419,0 -1.9546,0.686 -1.9546,2.5036 0,1.377 -0.8831,4.1513 -1.9625,6.1651 -1.6339,3.0486 -2.5916,3.7261 -5.721,4.0471 -2.0672,0.2121 -4.6716,-0.066 -5.7876,-0.6185 -5.0838,-2.5158 -41.4284,-3.9078 -52.5289,-2.0119 -19.1107,3.264 -22.5621,3.3729 -34.7922,1.0979 -6.4393,-1.1978 -12.8286,-2.2916 -14.1985,-2.4306 -3.818,-0.3874 -5.4889,-4.6691 -3.593,-9.2068 1.4019,-3.3551 1.3767,-3.5459 -0.4674,-3.5459 -1.0719,0 -1.9489,0.45 -1.9489,1 0,0.55 -1.3235,1 -2.941,1 -1.6176,0 -3.2191,-0.45 -3.559,-1 -0.3439,-0.5564 -4.9588,-1 -10.4041,-1 -8.1811,0 -10.0552,-0.2975 -11.4274,-1.8138 -2.0281,-2.241 -1.9721,-10.9179 0.086,-13.3557 0.7752,-0.9182 1.2601,-2.9432 1.0774,-4.5 -0.2846,-2.4252 0.2176,-3.099 3.5072,-4.7055 2.1115,-1.0312 4.9322,-1.875 6.2682,-1.875 1.3359,0 2.6858,-0.4156 2.9998,-0.9236 0.3307,-0.5352 1.164,-0.4311 1.9817,0.2475 1.1371,0.9437 1.411,0.7705 1.411,-0.8924 0,-2.664 1.6025,-3.6596 2.428,-1.5085 0.4985,1.299 0.9013,1.3977 1.8464,0.4526 0.9452,-0.9452 0.8835,-1.4179 -0.2828,-2.1672 -1.3211,-0.8489 -1.3202,-1.0709 0.01,-1.9431 0.825,-0.5416 2.4,-0.9985 3.5,-1.0153 2.7655,-0.042 4.8948,-1.5523 4.0703,-2.8864 -1.141,-1.8461 4.5639,-6.1918 7.6283,-5.8107 2.1798,0.2711 2.5333,0.04 1.8393,-1.1998 -1.284,-2.2942 4.3877,-7.1339 12.3022,-10.4976 3.663,-1.5568 6.6599,-3.4345 6.6599,-4.1727 0,-1.5982 5.9855,-2.9042 9.3917,-2.0494 2.8009,0.703 6.7014,-1.1089 11.0383,-5.1276 1.6885,-1.5646 4.645,-3.9281 6.57,-5.2521 4.4346,-3.0502 5.1246,-4.0306 4.5774,-6.5037 -0.4593,-2.0756 1.3279,-10.0523 2.7484,-12.2663 0.4468,-0.6965 1.2002,-1.0266 1.6742,-0.7337 1.5681,0.9691 2.3357,-1.7813 0.8099,-2.9017 -1.8012,-1.3226 -2.2271,-7.6595 -0.4923,-7.3258 0.6503,0.1251 1.0699,-0.335 0.9324,-1.0225 -0.1375,-0.6875 0.2,-1.25 0.75,-1.25 0.55,0 1,0.45 1,1 0,0.55 0.45,1 1,1 1.4746,0 1.2161,-4.1004 -0.3397,-5.3898 -0.9024,-0.7478 -1.1971,-2.6461 -0.9028,-5.8158 0.4262,-4.591 0.5075,-4.6914 3.3397,-4.125 2.627,0.5254 2.9028,0.3255 2.9028,-2.1034 0,-1.4762 0.4125,-2.4291 0.9167,-2.1175 0.5062,0.3128 0.9167,-1.5513 0.9167,-4.1632 0,-2.6014 0.3894,-4.8596 0.8654,-5.0182 0.476,-0.1587 0.6895,-3.4016 0.4745,-7.2065 -0.2692,-4.7643 0.066,-7.8348 1.0783,-9.8631 0.924,-1.8522 1.148,-3.5191 0.6035,-4.4921 -0.5042,-0.9009 -0.4459,-2.6514 0.1396,-4.1913 1.3838,-3.6397 1.2589,-9.5101 -0.3007,-14.1384 -0.7183,-2.1316 -1.2114,-6.8007 -1.0957,-10.3757 0.2326,-7.1908 -2.8313,-15.9738 -5.5924,-16.0314 -1.9629,-0.041 -5.3291,-4.684 -4.66,-6.4276 0.2856,-0.7442 -0.3195,-2.1122 -1.3447,-3.0399 -1.0252,-0.9278 -2.4232,-3.869 -3.1067,-6.5359 -0.6836,-2.667 -1.7045,-4.7627 -2.2687,-4.6571 -0.5643,0.1055 -1.3812,-2.4876 -1.8154,-5.7625 -0.4658,-3.513 -1.3923,-6.2918 -2.2597,-6.7772 -0.8086,-0.4525 -1.7726,-2.498 -2.1421,-4.5456 -0.7615,-4.2196 -2.1909,-7.3867 -3.8083,-8.4379 -1.896,-1.2323 -2.2067,-15.4175 -0.4539,-20.7284 1.5246,-4.6195 1.2692,-9.9399 -0.575,-11.9776 -0.8133,-0.8987 -1.5614,-3.4216 -1.6624,-5.6065 -0.2313,-5.0035 -1.9087,-12.6732 -3.0449,-13.9224 -0.4752,-0.5225 -0.8641,-2.0029 -0.8641,-3.2898 0,-3.0988 -3.1811,-9.1776 -6.3508,-12.1358 -1.4,-1.3066 -2.8211,-3.6309 -3.1581,-5.1653 -0.337,-1.5343 -1.7098,-4.0653 -3.0507,-5.6244 -1.3409,-1.5591 -2.4385,-3.5671 -2.4391,-4.4623 -7e-4,-0.8951 -0.6298,-2.1492 -1.398,-2.7867 -0.7988,-0.6629 -1.1687,-2.1068 -0.864,-3.3725 0.4356,-1.8092 0.2898,-1.9859 -0.7984,-0.968 -1.0883,1.018 -1.7532,0.208 -3.6436,-4.43852 -1.2718,-3.12602 -2.0769,-6.42554 -1.7892,-7.33226 0.299,-0.94194 -0.5473,-2.80379 -1.9744,-4.34361 -3.4326,-3.70384 -4.799,-6.49702 -4.0866,-8.35361 0.3307,-0.86156 -0.1544,-2.4014 -1.0779,-3.42186 -0.9216,-1.02042 -1.3127,-1.85534 -0.8672,-1.85534 0.4455,0 0.03,-0.86141 -0.9224,-1.91425 -0.9528,-1.05284 -1.6083,-2.74034 -1.4566,-3.75 0.1516,-1.00966 -0.7135,-4.03045 -1.9226,-6.71287 -2.6118,-5.79421 -2.7159,-7.39355 -0.6314,-9.69692 1.4389,-1.59 1.3475,-1.88248 -1.1194,-3.57874 -4.7189,-3.24484 -7.4271,-6.54677 -8.6112,-10.499 -0.6341,-2.11652 -1.5317,-3.84822 -1.9947,-3.84822 -1.6781,0 -0.7884,-3.22503 1.4083,-5.10498 l 2.25,-1.92556 -2.5742,0.57956 c -3.4569,0.77829 -5.1046,-1.39928 -5.4967,-7.26451 -0.2859,-4.27762 -0.9367,-6.39207 -3.5458,-11.52094 -0.4858,-0.95504 -0.8833,-3.09254 -0.8833,-4.75 0,-1.65746 -0.4981,-3.01357 -1.107,-3.01357 -0.6088,0 -0.859,-0.64628 -0.5559,-1.43618 0.3032,-0.78989 -0.3237,-2.54837 -1.393,-3.90773 -1.0692,-1.35935 -1.9441,-2.76331 -1.9441,-3.11991 0,-0.35659 -1.3877,-3.43562 -3.0838,-6.84227 -2.864,-5.75253 -3.0492,-6.76399 -2.5993,-14.19391 0.2665,-4.4 0.6417,-8.86883 0.8338,-9.93074 0.2487,-1.37455 -0.3693,-2.10735 -2.1454,-2.54384 -1.395,-0.34282 -2.6501,-1.47549 -2.8471,-2.56927 -0.1938,-1.07588 -0.7586,-2.38365 -1.2553,-2.90615 -0.4966,-0.5225 -0.9029,-2.18344 -0.9029,-3.69098 0,-1.50754 -0.45,-3.0191 -1,-3.35902 -0.55,-0.33992 -1,-1.42234 -1,-2.40538 0,-0.98304 -0.6497,-3.09398 -1.4437,-4.69098 -0.8398,-1.68907 -1.7247,-7.71402 -2.1155,-14.40364 -0.6809,-11.65611 -2.6889,-19 -5.1951,-19 -2.4943,0 -10.8116,5.00632 -14.0878,8.47977 -1.8262,1.93613 -3.7338,3.52023 -4.2391,3.52023 -0.5054,0 -0.9188,0.80935 -0.9188,1.79855 0,2.43336 -7.2075,9.78574 -10.3714,10.57982 -1.4014,0.35174 -4.3495,0.0189 -6.5511,-0.73964 -3.4666,-1.19433 -4.2885,-1.17923 -6.133,0.11267 -3.2136,2.25095 -4.9403,-0.15379 -5.9487,-8.28508 -0.5552,-4.47667 -1.3822,-7.10308 -2.4196,-7.68364 -0.8669,-0.48513 -1.5762,-1.97433 -1.5762,-3.30932 0,-1.41318 -0.94,-3.04387 -2.25,-3.90317 -1.2375,-0.81176 -3.1084,-3.07213 -4.1575,-5.02306 -1.0491,-1.95092 -2.2866,-3.54713 -2.75,-3.54713 -0.4634,0 -0.8432,-0.5625 -0.8441,-1.25 -9e-4,-0.6875 -1.7675,-2.91144 -3.9257,-4.94208 -3.379,-3.17939 -4.0954,-3.48551 -5.1585,-2.20449 -0.6791,0.81817 -1.8036,1.26926 -2.4989,1.00242 -2.2553,-0.86541 -4.2315,3.67167 -3.8787,8.90475 0.1815,2.69286 0.078,5.30467 -0.231,5.80402 -0.3087,0.49934 -0.6924,2.66758 -0.8528,4.8183 -0.2548,3.41641 0.1401,4.25493 3.1264,6.63771 2.9939,2.38887 3.3421,3.13211 2.8061,5.9893 -0.3366,1.7941 -0.1665,3.81956 0.378,4.50103 0.5444,0.68147 1.3129,3.90717 1.7077,7.16821 0.3947,3.26104 1.3766,6.93484 2.182,8.16399 1.3407,2.04615 1.2905,2.28999 -0.5943,2.88822 -1.9107,0.60643 -2.5302,1.73607 -2.1354,3.89378 0.2713,1.48241 -3.2232,4.72373 -4.5456,4.21628 -0.6867,-0.2635 -1.3901,-0.0795 -1.5631,0.40881 -0.5232,1.47658 -8.5629,-0.1171 -10.7176,-2.12452 -2.1098,-1.96555 -4.097,-2.46669 -4.097,-1.0332 0,0.46339 -1.575,1.69072 -3.5,2.7274 -1.925,1.03668 -3.5,2.23255 -3.5,2.65747 0,1.16879 -3.7823,0.92575 -4.1804,-0.26862 -0.2181,-0.65439 -1.5467,-0.44276 -3.5762,0.56967 -1.776,0.88598 -4.0522,1.34963 -5.0582,1.03033 -2.6563,-0.84309 -6.5022,-8.15949 -5.787,-11.00916 0.3828,-1.52535 0.095,-2.53003 -0.8254,-2.8833 -0.7771,-0.29821 -2.9114,-2.84847 -4.7429,-5.66725 -3.0159,-4.64171 -3.6047,-5.07122 -6.2436,-4.55431 -1.8312,0.35868 -3.8142,-0.0193 -5.3374,-1.01733 -2.1888,-1.43416 -2.391,-2.15982 -2.0863,-7.48827 0.2969,-5.19217 0.067,-6.08937 -1.9126,-7.47639 -1.2375,-0.8669 -2.25,-2.14286 -2.25,-2.83548 0,-1.37532 -6.6365,-7.62729 -8.0964,-7.62729 -0.497,0 -0.9036,-0.8428 -0.9036,-1.87288 0,-1.03009 -0.9356,-3.98788 -2.079,-6.57287 -1.1435,-2.58499 -1.8217,-5.3707 -1.5071,-6.19046 0.8014,-2.08851 -2.2499,-7.6407 -3.8596,-7.02299 -1.9661,0.75447 -3.5503,-1.36197 -3.5861,-4.7908 -0.017,-1.6775 -0.6925,-3.92351 -1.5,-4.99113 -0.8075,-1.06762 -1.4682,-3.63276 -1.4682,-5.70031 0,-2.06755 -0.5873,-4.11904 -1.3051,-4.55887 -2.0057,-1.22891 -6.3783,-7.50397 -7.1771,-10.29969 -0.3928,-1.375 -3.3525,-7.97687 -6.5771,-14.67081 -3.2246,-6.69395 -6.174,-13.44395 -6.5543,-15 -0.3802,-1.55606 -1.5228,-3.90238 -2.5389,-5.21405 -1.0161,-1.31167 -1.8475,-3.16907 -1.8475,-4.12755 0,-0.95849 -0.6279,-2.26383 -1.3954,-2.90077 -0.7675,-0.63694 -1.6923,-2.74069 -2.0552,-4.67501 -0.3628,-1.93431 -1.3099,-3.76642 -2.1046,-4.07136 -0.7946,-0.30493 -1.4448,-1.40574 -1.4448,-2.44623 0,-1.77993 -3.7491,-10.03496 -9.7163,-21.39422 -1.4446,-2.75 -4.7619,-7.08728 -7.3718,-9.6384 -2.6098,-2.55111 -5.4078,-5.92611 -6.2178,-7.5 -2.6776,-5.20285 -5.5189,-16.76822 -5.6073,-22.82445 -0.1112,-7.61387 -0.728,-9.45022 -3.531699,-10.51621 -1.4303,-0.54379 -2.5022,-2.00644 -2.8895,-3.94272 -0.7783,-3.89153 -2.1258,-3.91908 -3.8259,-0.0782 -0.7303,1.65 -1.6092,3 -1.953,3 -0.3437,0 -0.8765,1.55005 -1.184,3.44455 -0.661,4.07343 -7.3549,18.55543 -8.5766,18.55543 -0.4659,0 -2.3968,1.05171 -4.291,2.33713 -2.3836,1.6176 -5.5498,2.53378 -10.2841,2.97588 -3.7621,0.35131 -7.5626,1.23151 -8.4456,1.956 -0.883,0.72449 -2.9554,1.97284 -4.6054,2.77412 -3.3241,1.61426 -5.4197,3.80134 -5.4682,5.70687 -0.017,0.6875 0.4182,1.25 0.9682,1.25 0.55,0 1,-0.9551 1,-2.12244 0,-1.76626 0.2499,-1.91507 1.489,-0.8867 0.8189,0.67967 1.2312,1.6528 0.9162,2.16253 -0.3272,0.52944 0.4665,0.66594 1.8512,0.31838 4.8924,-1.22789 7.6917,8.47034 2.9638,10.26789 -0.9461,0.35971 -2.5404,1.69044 -3.5428,2.95718 -1.901,2.4023 -5.0962,3.05265 -6.2025,1.26248 -0.3538,-0.57237 -1.4719,-0.77765 -2.4848,-0.45617 -1.0208,0.32397 -2.209,-0.003 -2.6659,-0.73333 -0.4533,-0.72481 -2.0546,-2.10022 -3.5583,-3.05648 -1.5038,-0.95625 -3.0294,-2.97045 -3.3902,-4.47599 -0.3609,-1.50554 -1.9037,-4.61413 -3.4285,-6.90797 -2.8758,-4.32624 -2.8826,-4.57474 -0.3626,-13.32938 1.0411,-3.61706 4.3193,-8 5.9835,-8 0.7875,0 1.4319,-0.43434 1.4319,-0.9652 0,-0.53087 1.4169,-2.57897 3.1487,-4.55134 4.0963,-4.66552 2.8591,-6.40157 -3.2566,-4.56928 -3.6036,1.07967 -4.6027,1.01807 -7.3327,-0.45212 -6.019,-3.24145 -8.2324,-10.80122 -5.0375,-17.20551 1.4402,-2.88694 5.5148,-4.96995 7.4193,-3.79289 0.4671,0.28867 1.0939,-0.11263 1.3928,-0.89178 0.3327,-0.86701 1.3459,-1.20686 2.6113,-0.87594 1.4759,0.38596 2.5154,2.08093 3.6321,5.92238 0.8605,2.95992 1.7929,5.38168 2.072,5.38168 0.2791,0 2.378,-1.88935 4.6642,-4.19855 3.485,-3.51994 4.2016,-4.93419 4.4337,-8.75 0.2537,-4.17111 -0.1038,-4.96927 -4.2778,-9.55145 -4.4907,-4.92974 -8.1367,-10.5 -6.8727,-10.5 0.3564,0 0.088,-0.675 -0.5968,-1.5 -1.5272,-1.84021 -3,-1.9444 -3,-0.21223 0,0.70828 -1.302,2.84578 -2.8932,4.75 l -2.8933,3.46223 -8.3567,-0.25984 c -7.3799,-0.22947 -8.5906,-0.53594 -10.3568,-2.62165 -1.1,-1.29899 -3.0109995,-2.8846 -4.2466995,-3.52359 -3.45,-1.784 -5.9684,-7.82603 -6.70840004,-16.09492 -0.6183,-6.9077 -0.3961,-8.28973 2.81300004,-17.5 3.0537,-8.76435 4.1801,-10.7105 9.1158995,-15.75 3.0975,-3.1625 6.2132,-5.75 6.924,-5.75 0.7107,0 2.0444,-0.83118 2.9638,-1.84706 1.571,-1.73595 1.533,-1.9916 -0.6311,-4.25 -4.5686,-4.76744 -5.9209,-10.75843 -3.2796,-14.52934 3.1221,-4.45745 5.7465,-20.90432 2.8779,-18.03573 -0.8874,0.88737 -8.2337,-3.21562 -12.0787995,-6.74611 -4.0273,-3.69781 -4.0552,-5.66095 -0.1903,-13.39528 2.8881995,-5.77979 7.9184995,-10.91063 13.5808995,-13.85223 3.5585,-1.84869 8.3396,-2.60485 9.6504,-1.52629 0.6649,0.54718 3.3465,1.31308 5.959,1.702 l 4.75,0.70713 0,-7.95991 c 0,-8.00131 1.7327,-13.80189 4.6463,-15.55426 0.7198,-0.4329 2.6904,-2.7954 4.3792,-5.25 1.6888,-2.45461 3.6758,-4.46292 4.4156,-4.46292 0.7397,0 1.6044,-0.6763 1.9216,-1.50289 0.8262,-2.15296 22.8282,-12.49711 26.5814,-12.49711 4.9015,0 10.2078,3.3117 15.0706,9.4057 2.455199,3.07687 4.758099,5.5943 5.117599,5.5943 0.9685,0 1.867,-2.79833 1.8726,-5.83179 0.01,-2.85948 5.7021,-14.73263 9.4371,-19.66821 1.2486,-1.65 2.6103,-4.125 3.0259,-5.5 1.2835,-4.24593 6.3122,-11.80479 11.1534,-16.76512 2.5417,-2.60418 6.2337,-6.69349 8.2044,-9.08736 4.0464,-4.91514 7.3977,-6.63349 10.1083,-5.18285 2.4538,1.31325 3.1542,0.32293 1.8288,-2.58595 -1.0009,-2.19673 -0.6566,-2.83785 3.7057,-6.90023 2.6451,-2.46317 5.6201,-4.47849 6.6113,-4.47849 0.9912,0 2.0803,-0.45 2.4202,-1 0.9341,-1.51136 2.5,-1.19817 2.5,0.5 0,0.825 0.675,1.5 1.5,1.5 1.6982,0 2.0114,-1.56593 0.5,-2.5 -6.5342,-4.03838 15.7171,-10.69661 31.5,-9.42568 3.5207,0.2835 6.8119,0.16169 15.0978,-0.5588 8.4447,-0.73429 10.1082,-0.31991 21.2561,5.29517 3.8142,1.92118 5.5716,5.43256 4.5795,9.15028 -0.3727,1.39647 -0.8524,4.28905 -1.0661,6.42796 l -0.3885,3.88893 5.7606,-0.67117 c 3.1683,-0.36914 7.1979,-1.18795 8.9547,-1.81959 2.8752,-1.0338 3.0249,-1.27693 1.5,-2.43596 -0.9318,-0.70814 -2.2912,-1.30184 -3.021,-1.31934 -1.8387,-0.0441 -7.1731,-5.54414 -7.1731,-7.39586 0,-0.83485 0.4807,-1.81498 1.0682,-2.17807 0.5875,-0.3631 0.8386,-1.25826 0.5581,-1.98926 -0.7425,-1.93504 5.0441,-9.46861 7.273,-9.46861 1.0377,0 2.1266,-0.62498 2.4197,-1.38884 0.4143,-1.07979 2.8303,-1.3441 10.857,-1.18774 12.574,0.24494 16.0998,1.72564 18.7794,7.88666 2.5311,5.81961 2.0011,22.00861 -0.8222,25.11673 -2.762,3.04057 -4.3637,6.53005 -3.7416,8.15133 0.8687,2.26379 2.0128,1.67034 3.5244,-1.82814 1.5589,-3.60787 4.364,-6.92842 14.3276,-16.96021 3.709,-3.73439 7.3664,-6.78979 8.1276,-6.78979 0.7611,0 1.9424,-0.67293 2.625,-1.4954 0.6826,-0.82247 3.1002,-2.03282 5.3724,-2.68967 2.2723,-0.65685 5.3615,-2.19868 6.8651,-3.42628 3.4871,-2.84726 9.6491,-5.65844 17.2663,-7.87713 3.3,-0.96121 7.125,-2.1165 8.5,-2.56732 5.4879,-1.7993 17.9274,-3.18191 28.9138,-3.21367 10.5985,-0.0306 12.0318,0.19298 16.8132,2.62318 3.2166,1.63488 5.8227,3.80852 6.7757,5.65148 0.8518,1.64715 1.9504,2.99481 2.4414,2.99481 1.8674,0 5.0559,6.83264 5.0559,10.83411 0,10.41529 -9.2782,17.78623 -23.148,18.38971 -4.7246,0.20557 -5.3353,-0.0402 -7.984,-3.21284 -2.5463,-3.05012 -2.868,-4.20681 -2.868,-10.31297 l 0,-6.87755 -8.75,0.69776 c -12.2487,0.97677 -26.2873,5.90494 -32.75,11.49673 -1.1,0.95177 -2.5625,1.52526 -3.25,1.27444 -0.7338,-0.26774 -1.25,0.36513 -1.25,1.53266 0,1.0938 -2.7,4.77387 -6,8.17795 -3.6107,3.72453 -6,7.0585 -6,8.37211 0,1.20058 -0.6015,3.07051 -1.3366,4.15538 -1.367,2.01749 -4.6634,11.49675 -4.6634,13.41041 0,0.58415 0.675,1.0621 1.5,1.0621 0.825,0 1.5,-0.87899 1.5,-1.95332 0,-1.07432 1.1515,-2.76182 2.5588,-3.75 1.4073,-0.98817 4.4433,-3.74953 6.7467,-6.13635 2.3034,-2.38682 5.5394,-4.92142 7.1912,-5.63244 1.6518,-0.71103 3.9043,-2.15936 5.0056,-3.21852 3.3807,-3.25144 15.8471,-10.2312 19.522,-10.93007 1.9116,-0.36355 4.2219,-1.04137 5.134,-1.50626 1.5228,-0.7762 3.857,-0.21571 14.0215,3.36693 3.8903,1.37116 6.1914,6.79906 5.3268,12.56465 -0.5661,3.77488 -0.4501,4.39415 0.6525,3.4828 0.7375,-0.60965 3.0323,-1.42453 5.0996,-1.81086 2.0673,-0.38632 4.7673,-1.4845 6,-2.44039 3.4196,-2.65167 6.9276,-4.3202 9.7816,-4.65251 1.42,-0.16533 5.0294,-1.4399 8.0208,-2.83236 2.9914,-1.39247 6.8069,-2.53616 8.4788,-2.54153 1.672,-0.005 5.6462,-0.68862 8.8317,-1.51833 3.1854,-0.8297 6.2642,-1.21654 6.8417,-0.85964 0.5775,0.35691 3.4879,0.76535 6.4676,0.90766 5.8791,0.28076 11.0738,1.95063 20.5555,6.60768 0.9551,0.46907 2.5423,0.85286 3.5272,0.85286 6.9959,0 13.6446,16.81568 10.9209,27.62097 -0.7477,2.96619 -0.5848,3.20176 3.2846,4.75 6.3536,2.54219 15.3648,2.12536 22.192,-1.02653 5.1078,-2.35813 6.0437,-3.27142 8.3556,-8.15421 2.3315,-4.92428 2.4444,-5.65772 1.0807,-7.02145 -1.257,-1.25692 -2.3352,-1.33689 -6.1759,-0.45803 -4.0608,0.92924 -5.1506,0.79919 -8.562,-1.02173 -8.2349,-4.39555 -9.5351,-7.56991 -5.8878,-14.37497 2.5627,-4.78142 8.4668,-7.56856 17.187,-8.11339 6.5234,-0.40758 12.9986,0.92987 15.494,3.20028 0.6644,0.60448 2.9824,2.16604 5.1511,3.47012 3.7104,2.23113 4.0096,2.77387 5.0704,9.19723 1.6322,9.88319 -1.148,21.88628 -6.3635,27.47334 -1.1059,1.1847 -3.078,3.57765 -4.3824,5.31768 -1.3045,1.74003 -3.5545,3.4528 -5,3.80616 -1.4456,0.35336 -2.8533,0.91069 -3.1283,1.2385 -0.275,0.32782 -1.4,1.09426 -2.5,1.70321 -3.3765,1.86921 -2.983,3.91029 0.725,3.76069 1.8013,-0.0727 3.725,-0.22492 4.275,-0.33835 4.2749,-0.88158 20.8922,-0.03 25.5,1.30673 3.025,0.87758 6.625,1.78895 8,2.02526 6.991,1.20151 14.6259,4.78063 17.347,8.13202 1.5658,1.92856 3.2597,3.50647 3.7641,3.50647 1.2967,0 6.8243,6.24514 6.8596,7.75 0.047,2.02681 2.7894,1.43063 4.4726,-0.97251 0.8562,-1.22237 1.5589,-4.25987 1.5617,-6.75 0.01,-6.30527 3.041,-9.95572 8.9315,-10.7458 2.434,-0.32646 6.2617,-1.83288 8.506,-3.34759 2.2444,-1.51472 5.747,-3.06662 7.7835,-3.44867 2.0365,-0.38206 4.2239,-1.32257 4.8608,-2.09004 0.637,-0.76746 1.8551,-1.39539 2.7069,-1.39539 0.8519,0 2.3633,-0.73711 3.3588,-1.63801 1.4062,-1.27257 2.1239,-1.37752 3.2168,-0.47045 1.6658,1.38249 4.8187,0.24012 11.3109,-4.09819 2.2991,-1.53634 4.6388,-2.79335 5.1993,-2.79335 1.6993,0 6.9936,-6.23435 9.1197,-10.7391 3.453,-7.31585 2.1417,-13.76019 -4.2584,-20.92906 -1.4509,-1.62517 -1.7661,-2.93998 -1.2588,-5.25 0.4299,-1.95716 0.283,-3.08184 -0.4025,-3.08184 -0.5937,0 -1.0795,-0.88844 -1.0795,-1.97432 0,-1.14278 -1.1582,-2.57259 -2.75,-3.39479 -2.4179,-1.24892 -3.1723,-1.22088 -6.2468,0.23219 -3.2596,1.54056 -3.5466,2.05908 -4.2321,7.64479 -0.5113,4.16543 -1.3506,6.49827 -2.7533,7.65242 -1.1098,0.91316 -2.0178,2.40525 -2.0178,3.31574 0,0.9105 -0.3977,2.41337 -0.8839,3.33971 -0.4861,0.92634 -1.1906,3.53735 -1.5656,5.80224 -0.5794,3.50012 -0.3128,4.54677 1.7766,6.97586 1.3885,1.61425 3.484,2.86839 4.8156,2.88202 4.1062,0.042 2.8662,2.99591 -1.3561,3.23018 -3.1516,0.17488 -4.1515,-0.32533 -6.6086,-3.30626 -1.5923,-1.93177 -3.4088,-5.2267 -4.0366,-7.32206 -1.3473,-4.49686 -1.4991,-12.50798 -0.2822,-14.89346 0.4725,-0.92634 1.1266,-3.09875 1.4536,-4.82756 0.5543,-2.93058 0.3777,-3.17542 -2.6091,-3.61783 -4.5846,-0.67906 -5.3658,-0.10673 -5.5219,4.04562 -0.203,5.39962 -4.843,11.62591 -8.9639,12.02833 -2.4417,0.23843 -3.0731,-0.0266 -2.6556,-1.11455 0.3012,-0.78506 1.6252,-1.91832 2.9422,-2.51837 3.3985,-1.54846 4.7232,-7.17949 3.4627,-14.71933 -0.548,-3.27832 -0.707,-8.37149 -0.3532,-11.31817 0.588,-4.89641 0.425,-5.54518 -1.8925,-7.53657 -1.3947,-1.19843 -2.6434,-2.83751 -2.7749,-3.6424 -0.4828,-2.95516 1.34,-9.89394 3.0937,-11.77627 1.7474,-1.87568 1.7279,-1.97175 -0.6179,-3.04058 -1.6227,-0.73933 -2.4828,-2.01867 -2.6053,-3.87514 -0.2827,-4.28449 0.1723,-8.63685 0.9653,-9.23246 0.3947,-0.29644 1.7968,-2.78898 3.1159,-5.53898 1.3191,-2.75 2.7816,-5.78139 3.25,-6.73643 0.4684,-0.95504 0.8517,-2.36939 0.8517,-3.14301 0,-0.77362 0.675,-1.6656 1.5,-1.98219 1.8742,-0.7192 2.0094,-5.63837 0.155,-5.63837 -0.7398,0 -2.1867,-0.93005 -3.2154,-2.06677 -1.8354,-2.0281 -1.8172,-2.16378 0.9751,-7.25 1.5651,-2.85078 3.3815,-5.63323 4.0365,-6.18323 1.3798,-1.15852 5.4723,-9.7656 8.0832,-17 2.632,-7.29266 3.6773,-8.15074 10.7054,-8.78803 4.2291,-0.38348 6.5762,-1.10746 7.4458,-2.29671 0.6985,-0.95519 2.7129,-1.89467 4.4764,-2.08773 1.7636,-0.19307 3.9111,-0.95235 4.7723,-1.68728 0.8611,-0.73494 2.4095,-1.63714 3.4409,-2.00489 1.6041,-0.57202 1.7689,-1.28038 1.14,-4.902 -0.8782,-5.05738 -0.8796,-4.64308 0.041,-12.51439 0.4042,-3.45457 1.1193,-6.51862 1.5892,-6.80902 0.4698,-0.29039 0.8543,-1.64088 0.8543,-3.00109 0,-3.33355 2.6189,-9.39844 4.7606,-11.02457 1.6054,-1.21897 1.5661,-1.32313 -0.5106,-1.35249 -2.9562,-0.0418 -2.8386,-1.02849 0.5,-4.19354 4.2137,-3.99482 5.3426,-5.66295 4.2777,-6.32111 -1.0402,-0.6429 0.4679,-4.94053 2.6656,-7.59589 0.7187,-0.86831 1.3067,-2.13795 1.3067,-2.82143 0,-0.68348 0.6749,-1.91769 1.5,-2.74269 0.825,-0.825 1.5,-2.41509 1.5,-3.53354 0,-1.11845 1.2377,-3.89881 2.7505,-6.17858 1.5127,-2.27976 4.0322,-6.71429 5.5987,-9.85452 1.5665,-3.14022 3.4788,-6.23282 4.2495,-6.87244 0.7707,-0.63962 1.4013,-1.99032 1.4013,-3.00155 0,-1.01123 0.8543,-2.64363 1.8985,-3.62755 1.0442,-0.98393 2.8737,-3.67081 4.0655,-5.97085 1.1918,-2.30003 2.8193,-4.72332 3.6166,-5.38507 0.7974,-0.66176 2.6036,-3.5004 4.0138,-6.30809 1.4103,-2.807688 2.8685,-5.334398 3.2405,-5.614918 0.372,-0.28052 2.0178,-2.31003 3.6572,-4.51003 1.6394,-2.2 4.2312,-5.35 5.7595,-7 8.4989,-9.17557 14.685,-16.72496 15.3047,-18.67756 0.3004,-0.94633 1.7689,-3.02958 3.2633,-4.62943 1.4945,-1.599853 5.184,-7.463791 8.1988,-13.030974 3.0149,-5.567183 5.9244,-9.98352 6.4656,-9.814082 1.2115,0.379288 1.6647,10.405893 0.5945,13.152046 -2.0316,5.212773 -3.3531,9.376852 -4.2846,13.5 -0.5591,2.475 -1.6415,5.21043 -2.4052,6.07874 -0.7638,0.86831 -1.3888,2.46581 -1.3888,3.55 0,1.08419 -0.3581,2.39876 -0.7958,2.92126 -1.2722,1.51863 -3.1183,7.62021 -3.6955,12.2146 -0.6522,5.19101 0.8558,5.56566 5.3824,1.33721 l 3.1025,-2.8982 -0.6064,5.6482 c -0.3336,3.1065 -1.6788,8.057908 -2.9895,11.003118 -1.481,3.32786 -2.1555,6.26157 -1.782,7.75 0.7325,2.91821 2.4731,3.08383 4.1523,0.39507 0.6869,-1.1 1.9202,-2 2.7405,-2 0.9277,0 1.4915,-0.95319 1.4915,-2.52144 0,-1.71911 0.7955,-2.88389 2.5,-3.66051 1.375,-0.6265 2.5,-1.42236 2.5,-1.76859 0,-1.05676 7.2072,-8.409158 12.5,-12.751928 2.75,-2.25637 6.9874,-5.94637 9.4164,-8.20001 2.429,-2.25364 4.991,-4.09752 5.6933,-4.09752 0.7023,0 1.865,-0.7875 2.5837,-1.75 1.6741,-2.24209 7.0792,-5.25 9.434,-5.25 1.0004,0 4.5309,-2.65326 7.8457,-5.89613 6.4432,-6.303346 10.1534,-8.240921 11.0928,-5.792947 0.7196,1.875291 -6.7025,12.679257 -11.9716,17.426537 -4.5119,4.06501 -5.3717,5.30161 -9.0786,13.05821 -1.5706,3.28636 -2.3102,6.17481 -1.9493,7.6127 0.4516,1.7992 -0.1266,2.85056 -2.5868,4.704328 -1.7426,1.31302 -4.4557,3.56999 -6.0291,5.01551 -1.5734,1.44551 -3.0648,2.4241 -3.3143,2.17463 -0.2494,-0.24946 -0.7607,0.51426 -1.1361,1.69716 -0.9377,2.95418 0.3538,3.92031 2.0817,1.5573 0.78,-1.06676 1.4183,-1.40355 1.4183,-0.74843 0,0.65512 1.0928,1.19113 2.4285,1.19113 3.5228,0 5.8598,2.71502 5.0645,5.88374 -0.3584,1.42792 -0.956,2.82573 -1.328,3.10624 -3.3272,2.50898 -11.1647,16.01856 -11.1647,19.24524 0,2.88346 -1.7287,5.52874 -6.2614,9.58136 -2.2659,2.02588 -4.809,4.47092 -5.6514,5.43342 -0.8424,0.9625 -2.2802,1.75 -3.1951,1.75 -0.9149,0 -2.881,0.63164 -4.369,1.40365 l -2.7056,1.40366 2.3413,0.7478 c 1.2876,0.4113 5.0412,0.87168 8.3412,1.02309 3.3,0.1514 6.3375,0.30824 6.75,0.34854 1.2157,0.11875 0.8564,6.07326 -0.3664,6.07326 -1.256,0 -14.0959,12.86813 -16.4982,16.53449 -1.7869,2.72715 -1.1354,4.46551 1.6736,4.46551 1.0676,0 1.941,0.44143 1.941,0.98095 0,0.53952 1.125,1.2633 2.5,1.60841 3.2324,0.81128 3.1615,1.76361 -0.25,3.35755 -1.5125,0.70668 -3.425,1.68599 -4.25,2.17624 -0.825,0.49025 -2.625,1.42922 -4,2.08659 -1.375,0.65737 -2.6347,1.27635 -2.7994,1.3755 -0.3123,0.18802 4.0217,7.02204 5.7853,9.12255 1.158,1.37919 1.3591,5.61392 0.3161,6.65691 -0.384,0.38391 -1.3099,-0.32859 -2.0578,-1.58334 -1.2237,-2.05332 -1.3044,-1.71843 -0.8071,3.35047 0.3804,3.87694 0.1629,5.95521 -0.6979,6.66961 -2.0063,1.66508 -6.658,2.50633 -8.0022,1.44717 -0.6803,-0.53609 -4.3246,-1.24909 -8.0984,-1.58444 l -6.8614,-0.60972 0.6722,2.72278 c 0.3696,1.49752 0.7602,3.62277 0.868,4.72277 0.1077,1.1 0.5881,2.61281 1.0674,3.3618 1.5213,2.37741 -2.1485,3.62974 -9.3848,3.20253 -3.2602,-0.19247 -5.6079,3.18631 -3.4552,4.97284 0.8003,0.66424 1.4695,2.16512 1.487,3.33527 0.038,2.53302 1.7997,5.00065 4.2182,5.90815 3.3125,1.24294 1.8457,4.46706 -1.7136,3.76662 -0.53,-0.1043 -2.3862,0.0772 -4.1247,0.40339 -3.0872,0.57916 -3.1493,0.69748 -2.6573,5.06314 0.3169,2.81101 0.038,5.03138 -0.7511,5.98232 -0.8352,1.00629 -1.2547,5.10724 -1.2542,12.25807 8e-4,9.32163 0.2963,11.24401 2.2297,14.5043 1.2258,2.06714 1.9715,4.42875 1.6571,5.24802 -0.3477,0.90616 0.395,2.12289 1.8962,3.10657 1.3574,0.88935 2.4679,2.17121 2.4679,2.84859 0,0.67737 1.6061,2.88536 3.5692,4.90663 4.3124,4.44036 4.1461,6.72016 -0.5707,7.82451 -10.0377,2.3501 -10.9985,2.81417 -10.9985,5.31221 0,1.40706 0.8455,2.87717 2.0146,3.50284 2.0974,1.12249 4.0698,0.73684 12.9854,-2.53887 3.0457,-1.11904 6.439,-1.51149 10.5,-1.21437 5.6899,0.4163 10.5,-0.65919 10.5,-2.34769 0,-0.42465 0.9617,-1.07732 2.137,-1.45036 1.1754,-0.37305 6.5239,-3.32838 11.8856,-6.56739 5.3617,-3.23902 10.1021,-5.88912 10.5342,-5.88912 0.4322,0 1.4962,-0.62931 2.3645,-1.39846 0.8683,-0.76915 4.2787,-2.83462 7.5787,-4.58994 3.3,-1.75531 15.8035,-8.8885 27.7856,-15.85154 11.9821,-6.96303 23.6821,-13.73255 26,-15.04337 2.3179,-1.31082 15.3438,-8.85637 28.9464,-16.76789 13.6025,-7.91151 25.7989,-14.79024 27.1029,-15.28604 1.3041,-0.49581 6.5639,-3.72978 11.6885,-7.18661 5.1246,-3.45682 10.5575,-6.37098 12.0731,-6.47591 3.2725,-0.22656 5.1332,-1.21962 4.4267,-2.36266 -0.2801,-0.45333 0.5687,-1.09482 1.8864,-1.42554 1.3177,-0.33072 4.5182,-2.66404 7.1123,-5.18517 3.7506,-3.64525 5.2039,-4.46152 7.0973,-3.98632 1.6495,0.41402 2.3808,0.17207 2.3808,-0.78772 0,-1.82424 8.8104,-8.65283 11.1641,-8.65283 1.0098,0 1.8359,-0.45 1.8359,-1 0,-0.55 0.4821,-1 1.0714,-1 0.5893,0 1.7465,-0.675 2.5715,-1.5 0.825,-0.825 2.6349,-1.5 4.0222,-1.5 1.6811,0 2.6965,-0.66688 3.0452,-2 0.2876,-1.1 1.0904,-2 1.7839,-2 0.6935,0 1.7971,-0.64607 2.4524,-1.43572 0.6554,-0.78965 2.4794,-1.71857 4.0534,-2.06428 1.574,-0.34571 3.398,-1.27463 4.0534,-2.06428 0.6553,-0.78965 1.9707,-1.43572 2.923,-1.43572 0.9524,0 3.0189,-1.19303 4.5922,-2.65118 1.5734,-1.45815 4.7891,-3.5042 7.146,-4.54679 2.357,-1.04259 4.2854,-2.33868 4.2854,-2.88021 0,-0.54152 0.7875,-1.26201 1.75,-1.60109 0.9625,-0.33907 3.1,-1.6075 4.75,-2.81874 1.65,-1.21123 5.948,-3.79026 9.55111,-5.73117 3.6031,-1.94091 9.7432,-5.57505 13.6447,-8.07586 3.9016,-2.50081 9.0254,-5.53239 11.3863,-6.73683 2.3609,-1.20444 4.9222,-2.81955 5.6917,-3.58912 0.7696,-0.76957 4.0462,-2.71252 7.2814,-4.31766 10.9558,-5.43573 18.7541,-10.11196 19.3192,-11.58475 0.3096,-0.80663 1.2702,-1.4666 2.1347,-1.4666 0.8645,0 2.7912,-0.83549 4.2814,-1.85665 4.0351,-2.76502 8.2854,-5.36641 12.2095,-7.47292 1.925,-1.03337 5.8169,-3.40077 8.6488,-5.2609 2.8318,-1.86013 6.2068,-3.84651 7.5,-4.41416 1.2931,-0.56766 4.6012,-2.82157 7.3512,-5.0087 2.75,-2.18713 5.7268,-3.97886 6.6151,-3.98163 0.8884,-0.003 2.7593,-0.90504 4.1578,-2.00504 1.3984,-1.099998 2.9836,-1.999998 3.5226,-1.999998 0.539,0 3.3505,-1.63059 6.2478,-3.62354 2.8972,-1.99295 6.7468,-4.03195 8.5547,-4.53112 1.8078,-0.49918 3.5555,-1.75363 3.8837,-2.78768 0.3282,-1.03405 2.0416,-2.99471 3.8075,-4.35701 1.7659,-1.36231 4.5608,-3.69341 6.2108,-5.18023 1.65,-1.48681 4.4625,-3.34319 6.25,-4.12528 1.7875,-0.78209 3.25,-1.86594 3.25,-2.40856 0,-0.54262 0.8842,-0.98658 1.9648,-0.98658 1.0807,0 2.4465,-0.9 3.0352,-2 0.5887,-1.1 1.6273,-2 2.308,-2 0.6807,0 3.6291,-1.575 6.5521,-3.5 2.923,-1.925 6.1594,-3.5 7.192,-3.5 1.0326,0 2.3014,-0.7875 2.8194,-1.75 0.518,-0.9625 3.5226,-3.09572 6.6769,-4.740489 3.1543,-1.644769 6.2295,-3.782269 6.8339,-4.75 0.6043,-0.967731 2.061,-1.759511 3.2371,-1.759511 1.1761,0 4.7803,-1.593032 8.0094,-3.54007 3.2292,-1.947039 6.8837,-3.795822 8.1212,-4.108408 1.2375,-0.312586 2.25,-0.969554 2.25,-1.45993 0,-0.490376 0.4413,-0.891592 0.9806,-0.891592 0.5393,0 3.3518,-1.477592 6.25,-3.283538 5.525,-3.442825 14.7429,-7.842411 42.5194,-20.294073 5.7959,-2.598172 10.0157,-4.7296865 18.905,-9.5491775 6.124,-3.32022302 11.3491,-4.56610802 11.3347,-2.70266602 -0.015,1.94882102 -27.1861,22.70825452 -32.4897,24.82304352 -1.1,0.438617 -3.35,1.968944 -5,3.400727 -1.65,1.431782 -3.3487,2.603791 -3.7749,2.604463 -0.6768,0.0011 -12.6408,7.678946 -32.1,20.60019 -3.2312,2.145567 -7.1203,4.607822 -8.6425,5.471678 -1.5222,0.863856 -4.0745,2.663856 -5.6718,4.000003 -1.5973,1.33614 -4.5707,3.31918 -6.6075,4.40675 -2.0368,1.08758 -3.7033,2.32508 -3.7033,2.75 0,0.42493 -0.675,0.7726 -1.5,0.7726 -0.825,0 -2.3012,0.7875 -3.2804,1.75 -0.9792,0.9625 -3.1167,2.41853 -4.75,3.23563 -3.0581,1.52989 -8.5843,5.07826 -9.4696,6.08037 -1.2579,1.42398 -9.9796,6.934 -10.9756,6.934 -0.6134,0 -2.1631,1.0125 -3.4436,2.25 -2.7156,2.62421 -8.1732,5.75 -10.0394,5.75 -0.7131,0 -1.8851,0.70917 -2.6044,1.57594 -1.1396,1.37313 -8.8052,6.034838 -19.1198,11.627338 -1.7278,0.9368 -3.406,2.08525 -3.7293,2.5521 -0.3233,0.46686 -2.3879,1.6703 -4.5879,2.67432 -2.2,1.00403 -4.675,2.38475 -5.5,3.06828 -0.825,0.68353 -3.6173,2.40592 -6.2052,3.82755 -2.5878,1.42162 -5.5128,3.28769 -6.5,4.14681 -5.608,4.88059 -9.0735,7.34362 -11.2948,8.02752 -1.375,0.42334 -2.725,1.04655 -3,1.38492 -0.275,0.33837 -3.335,1.94621 -6.8,3.57298 -3.465,1.62676 -6.7826,3.53926 -7.3724,4.25 -0.5899,0.71073 -1.9174,1.29224 -2.95,1.29224 -1.0327,0 -1.8776,0.43103 -1.8776,0.95785 0,0.52681 -2.1375,2.17795 -4.75,3.66919 -2.6125,1.49125 -5.425,3.24715 -6.25,3.902 -2.4438,1.9398 -13.0242,7.47015 -14.3116,7.48067 -0.6536,0.005 -3.1642,1.58033 -5.5791,3.5 -4.0023,3.18146 -5.5104,3.94002 -6.4422,3.24029 -0.1831,-0.1375 -1.4905,1.09579 -2.9054,2.74063 -2.4667,2.86768 -2.6515,2.91907 -4.4958,1.25 -2.6514,-2.39948 -3.4145,-2.18072 -2.6747,0.76682 0.56,2.23113 0.1259,2.73017 -3.9395,4.52847 -2.5129,1.11156 -4.8621,2.49545 -5.2204,3.07531 -0.3584,0.57986 -2.5146,1.85873 -4.7915,2.84194 -2.2769,0.98321 -4.997,2.74597 -6.0448,3.91724 -1.0477,1.17128 -2.92271,2.12959 -4.16671,2.12959 -1.2439,0 -2.4116,0.35375 -2.595,0.78612 -0.5186,1.22308 -6.5037,5.21388 -7.8194,5.21388 -0.6475,0 -3.0675,1.54886 -5.3777,3.4419 -5.2433,4.29653 -9.6639,6.13132 -10.7068,4.44394 -0.4937,-0.79893 -2.3337,0.47237 -5.5829,3.85748 -2.6656,2.77703 -6.309,5.7824 -8.0965,6.67859 -1.7875,0.8962 -3.25,2.27706 -3.25,3.06859 0,1.82845 -3.3869,3.68199 -5.3509,2.92835 -0.8998,-0.3453 -1.9387,0.25371 -2.6076,1.50359 -0.6115,1.14266 -2.0364,2.07756 -3.1664,2.07756 -1.13,0 -2.8626,0.99791 -3.8502,2.21757 -1.5368,1.8979 -2.0284,2.0244 -3.4103,0.87755 -1.3991,-1.16112 -1.6146,-1.05938 -1.6146,0.76211 0,1.39827 -1.2556,2.78802 -3.75,4.15063 -2.0625,1.12668 -4.8908,2.82333 -6.2851,3.77033 -1.3943,0.94699 -3.9943,2.62181 -5.7779,3.72181 -1.7836,1.1 -3.5041,3.0125 -3.8234,4.25 -0.5783,2.24192 -1.5862,2.60461 -6.3996,2.30305 -1.3948,-0.0874 -3.6448,0.80787 -5,1.98946 -1.3552,1.18158 -3.814,2.84709 -5.464,3.70113 -2.7545,1.42571 -9.3148,5.98599 -10.5,7.29885 -1.7349,1.9218 -7.0572,4.89675 -9.2971,5.19671 -1.4581,0.19526 -3.6752,1.24139 -4.927,2.32473 -1.2517,1.08335 -4.8749,3.23836 -8.0514,4.78893 -3.1766,1.55057 -7.0016,3.81862 -8.5,5.04011 -1.4985,1.22149 -5.312,3.50636 -8.4745,5.07748 -3.1625,1.57113 -5.75,3.24414 -5.75,3.71782 0,0.47368 -1.125,1.28896 -2.5,1.81173 -1.375,0.52277 -2.5,1.35883 -2.5,1.8579 0,0.49907 -2.3625,2.12623 -5.25,3.61592 -8.7538,4.51619 -13.874,7.47858 -16.5108,9.55268 -1.3799,1.08542 -3.0911,1.9735 -3.8026,1.9735 -0.7116,0 -1.8884,0.59193 -2.6152,1.31539 -0.7268,0.72347 -3.5714,2.61436 -6.3214,4.20199 -2.75,1.58763 -5.225,3.19913 -5.5,3.58112 -0.275,0.38198 -2.3193,1.18335 -4.543,1.78081 -2.2236,0.59746 -4.9314,1.88153 -6.0173,2.85349 -1.086,0.97196 -4.4416,3.03432 -7.4571,4.58303 l -5.4826,2.81583 11,-0.42247 c 7.0654,-0.27136 12.2519,0.009 14.5,0.78354 1.925,0.66331 6.7908,1.50456 10.8128,1.86946 4.022,0.36489 8.8595,1.30972 10.75,2.0996 1.8905,0.78989 3.4372,1.14412 3.4372,0.78718 0,-0.35693 0.54,-0.10897 1.2,0.55103 0.66,0.66 1.9549,1.2 2.8776,1.2 0.9226,0 2.182,0.60789 2.7986,1.35086 0.8799,1.06015 2.2513,1.1397 6.3725,0.36965 6.3312,-1.18301 7.6185,-1.20234 19.7513,-0.29666 9.0114,0.67267 18.4347,2.22458 20.3998,3.35959 0.4948,0.28583 2.4527,0.65905 4.3508,0.82937 1.8981,0.17032 3.9682,0.71602 4.6002,1.21268 0.6321,0.49665 4.3514,1.15785 8.2652,1.46934 3.9138,0.31148 8.8638,1.34785 11,2.30303 2.1362,0.95519 5.1756,1.88535 6.7542,2.06703 1.5786,0.18168 7.656,2.1314 13.5055,4.33272 5.8494,2.20131 11.217,4.00239 11.9281,4.00239 0.7111,0 3.1556,0.9 5.4323,2 2.2768,1.1 4.8943,2 5.8169,2 0.9225,0 2.8214,0.9 4.2199,2 1.3984,1.1 3.2434,2 4.1,2 0.8566,0 3.0951,1.35 4.9743,3 1.8793,1.65 4.1184,3 4.9758,3 0.8574,0 1.8371,0.45 2.177,1 0.3399,0.55 1.7165,1 3.059,1 1.3426,0 2.441,0.39873 2.441,0.88606 0,0.48733 1.575,1.63344 3.5,2.54692 1.925,0.91347 3.5,2.23055 3.5,2.92685 0,1.59484 5.1942,6.64017 6.8361,6.64017 0.6747,0 1.4857,0.675 1.8023,1.5 0.3166,0.825 1.3907,1.5 2.387,1.5 0.9963,0 2.7832,1.57222 3.9708,3.49381 1.1876,1.9216 2.81661,3.86169 3.62011,4.31131 3.812,2.13331 14.1763,10.91667 14.9799,12.69488 0.4971,1.1 1.9163,2.44421 3.1538,2.98713 1.2375,0.54292 2.25,1.35681 2.25,1.80864 0,1.47762 6.261,8.6523 8.0444,9.21833 0.9573,0.30382 2.2935,1.88744 2.9694,3.51915 0.6847,1.653 1.9859,2.96675 2.9385,2.96675 0.9404,0 2.3118,1.125 3.0477,2.5 0.7359,1.375 1.6455,2.5 2.0215,2.5 0.9526,0 9.9785,11.60566 9.9785,12.8306 0,0.54972 0.8827,2.05023 1.9616,3.33445 8.897,10.5905 13.0241,16.54051 12.621,18.19549 -0.3029,1.24354 0.2019,2.03185 1.5222,2.37711 2.1473,0.56154 4.8952,5.0556 4.8952,8.00589 0,1.21244 1.1046,2.17018 3.2288,2.79966 2.9377,0.8705 3.6091,1.89747 7.4446,11.386 2.3186,5.73607 4.9156,10.82093 5.7711,11.2997 0.8555,0.47876 1.5555,2.17156 1.5555,3.76177 0,1.59021 0.45,3.16941 1,3.50933 0.55,0.33992 1,1.91492 1,3.5 0,1.58508 0.3919,3.12416 0.8708,3.42017 0.479,0.29602 1.1499,1.93338 1.4909,3.63858 0.3411,1.7052 2.4283,6.85376 4.6383,11.44125 2.21,4.58749 4.3024,9.83919 4.6498,11.67044 0.3474,1.83126 0.9892,3.79059 1.4262,4.35408 1.8983,2.44753 4.0871,11.08328 3.5882,14.15721 -0.2961,1.82505 -0.1271,3.31827 0.3756,3.31827 2.2794,0 6.287,11.0529 8.3396,23 1.224,7.12486 0.9001,17.06157 -0.6618,20.30099 -1.6103,3.33955 -2.8426,7.58799 -4.7824,16.48626 -0.6339,2.90798 -1.7786,5.91334 -2.5439,6.67857 -0.7652,0.76523 -1.4131,1.76097 -1.4399,2.21275 -0.027,0.45179 -2.5017,2.8265 -5.5,5.27713 -2.9982,2.45064 -5.4514,5.04399 -5.4514,5.763 0,0.71901 -2.025,2.29111 -4.5,3.49356 -2.475,1.20245 -4.5,2.53248 -4.5,2.95562 0,0.42314 -0.675,0.51033 -1.5,0.19375 -0.9498,-0.36449 -1.5,0.0138 -1.5,1.03138 0,0.88385 -0.5031,1.60699 -1.118,1.60699 -0.6149,0 -2.5911,1.2375 -4.3915,2.75 -7.4831,6.28637 -9.3304,7.09559 -14.4905,6.34765 -6.8192,-0.98843 -11.4566,-2.21847 -12.0631,-3.19967 -0.4301,-0.69593 -1.7489,-0.91101 -3.2602,-0.53169 -3.8901,0.97636 -7.6767,-0.86574 -7.6767,-3.73455 0,-1.32977 0.6587,-2.67053 1.4638,-2.97947 1.2411,-0.47627 1.1502,-1.29118 -0.5975,-5.35699 -1.1337,-2.63741 -2.9174,-5.41267 -3.9638,-6.16725 -1.0464,-0.75459 -1.9025,-1.93009 -1.9025,-2.61222 0,-2.52847 -15.4539,-0.32564 -19.75,2.81521 -0.6875,0.50263 -1.25,2.2509 -1.25,3.88504 0,2.15741 -0.5633,3.11848 -2.0566,3.50898 -1.2625,0.33016 -1.846,1.08643 -1.5112,1.95878 0.7039,1.83438 -2.1851,6.23831 -4.857,7.40384 -1.1413,0.49789 -5.2252,2.91274 -9.07521,5.36631 -3.85,2.45358 -7.675,4.48247 -8.5,4.50866 -0.825,0.0262 -3.3,1.15627 -5.5,2.51128 -2.2,1.35502 -4.9859,2.47772 -6.191,2.49488 -1.205,0.0172 -2.4691,0.48121 -2.809,1.03121 -0.3399,0.55 -2.0765,1 -3.859,1 -1.7826,0 -3.766,0.52497 -4.4076,1.1666 -0.8888,0.88881 -2.463,0.87649 -6.6107,-0.0517 -2.9943,-0.67008 -8.1802,-1.23142 -11.5243,-1.24741 -3.3441,-0.016 -6.3268,-0.42798 -6.6281,-0.91552 -0.3013,-0.48754 -1.9559,-0.60481 -3.6769,-0.26062 -2.6373,0.52745 -3.029,0.36513 -2.4926,-1.03275 0.5047,-1.31522 0.022,-1.65857 -2.3322,-1.65857 -1.6721,0 -3.8758,-0.90724 -5.0459,-2.07732 -1.1425,-1.14252 -2.6753,-1.84787 -3.4061,-1.56744 -1.444,0.55409 -4.5166,-2.29224 -4.5166,-4.18401 0,-0.64419 -0.4764,-1.17126 -1.0586,-1.17126 -0.5823,0 -2.8323,-1.42535 -5.0001,-3.16745 -3.8427,-3.08802 -3.9352,-3.31164 -3.6914,-8.91617 0.253,-5.81453 -0.6877,-8.44407 -2.1654,-6.05313 -0.6082,0.98406 -1.307,0.66928 -2.8395,-1.27896 -1.9915,-2.53177 -4.245,-3.44066 -4.245,-1.7121 0,0.85064 -5.1868,2.04674 -11.7733,2.71497 -1.8003,0.18265 -4.263,1.02526 -5.4725,1.87247 -1.2096,0.8472 -2.9299,1.54037 -3.8231,1.54037 -2.5537,0 -7.6604,2.87448 -8.4823,4.77457 -1.5598,3.60602 -0.8955,5.51663 2.5634,7.37162 1.9011,1.0196 4.2136,1.85381 5.1389,1.85381 0.9252,0 1.8522,0.51002 2.06,1.13338 0.491,1.47283 10.123,1.39229 15.7837,-0.13197 3.373,-0.90827 4.8432,-0.89087 6.655,0.0788 1.7023,0.91102 2.0478,1.57923 1.2893,2.49318 -0.7193,0.86678 -0.6997,1.45658 0.064,1.92878 0.6456,0.399 -0.8846,1.96432 -3.7014,3.78643 l -4.802,3.10624 6.3236,1.17618 c 3.4779,0.6469 6.8304,1.68307 7.45,2.3026 0.6195,0.61952 2.4989,1.13296 4.1764,1.14096 3.2935,0.0157 11.2794,2.51597 13.2441,4.14656 0.6654,0.55227 2.0882,0.72535 3.1618,0.38462 1.1395,-0.36168 3.4612,0.22822 5.5784,1.41738 1.9946,1.12029 4.9628,2.03689 6.5961,2.03689 1.6731,0 3.8765,0.90694 5.0469,2.07732 1.1425,1.14252 2.6847,1.84423 3.4271,1.55935 1.999,-0.76707 7.4956,1.58321 7.4956,3.20501 0,1.04402 0.3356,1.12469 1.311,0.31516 2.0244,-1.68014 10.6843,2.59522 10.7043,5.2847 0.012,1.6584 0.196,1.77264 0.9454,0.58782 0.7986,-1.2628 1.4678,-1.28175 4.7347,-0.13411 2.0925,0.73509 5.9489,2.63438 8.5696,4.22064 2.6208,1.58626 5.3385,2.88411 6.0395,2.88411 0.7009,0 4.3283,1.59231 8.06091,3.53848 3.7325,1.94616 8.6648,4.27579 10.9605,5.17696 2.2958,0.90117 5.2991,2.49494 6.6741,3.5417 3.5502,2.70271 20.8992,12.74286 22.0192,12.74286 0.5141,0 1.6718,1.125 2.5728,2.5 0.9009,1.375 2.3129,2.5 3.1377,2.5 2.4551,0 11.2703,5.20837 11.2703,6.65893 0,1.65492 1.2141,1.72695 2.7764,0.1647 0.9018,-0.90183 1.6087,-0.78514 3.0287,0.5 1.0188,0.922 2.5892,1.67637 3.4897,1.67637 0.9005,0 3.1151,0.62129 4.9213,1.38064 5.2794,2.21961 20.6614,5.00974 28.7839,5.22108 13.6828,0.35603 24.4711,1.39792 26.7702,2.58536 1.7387,0.89799 2.5464,0.89628 3.45,-0.007 1.4369,-1.43686 8.4205,-1.57011 9.2815,-0.17709 0.4098,0.66313 1.3018,0.63764 2.6339,-0.0752 1.1233,-0.60118 3.684,-0.79582 5.7897,-0.44007 2.0766,0.35084 5.3054,0.64519 7.1751,0.65411 1.8698,0.009 7.4496,0.60082 12.3996,1.31532 4.95,0.7145 11.3706,1.33675 14.2681,1.38279 2.8974,0.046 6.8312,0.8255 8.7418,1.73215 1.9107,0.90664 4.1415,1.39226 4.9575,1.07914 0.816,-0.31312 3.0552,0.0873 4.976,0.8899 1.9208,0.80256 4.9867,1.45921 6.813,1.45921 1.8264,0 5.0826,0.89826 7.236,1.99614 2.246,1.14506 4.2895,1.62198 4.7929,1.11858 0.5034,-0.5034 2.4417,-0.4657 4.5461,0.0884 2.0177,0.53128 5.4686,1.41732 7.6686,1.96897 7.5538,1.89411 28.5,11.50452 28.5,13.07617 0,0.41345 0.8303,0.75172 1.845,0.75172 1.0148,0 2.6595,0.9 3.655,2 0.9955,1.1 2.2536,2 2.7957,2 1.4466,0 8.4559,6.20338 19.4776,17.23808 10.7314,10.74391 15.2267,15.95661 15.2267,17.65649 0,0.61605 1.0901,3.25429 2.4225,5.86276 1.3324,2.60847 3.3897,6.99267 4.5717,9.74267 1.182,2.75 2.5668,5.78139 3.0774,6.73643 0.5106,0.95504 0.9284,2.36244 0.9284,3.12756 0,0.76511 0.6461,1.92731 1.4357,2.58266 0.7897,0.65535 1.7469,2.60818 2.1272,4.33962 0.3803,1.73145 1.0535,3.83785 1.4959,4.68091 0.4425,0.84305 1.7728,6.36935 2.9562,12.28066 1.8025,9.00388 1.9741,11.57598 1.0571,15.85151 -0.7901,3.68436 -0.7919,6.22766 -0.01,9.14546 0.7393,2.7456 0.7598,4.24489 0.064,4.67504 -0.5712,0.35303 -0.8548,2.91379 -0.6409,5.78714 0.2735,3.6736 -0.036,5.50228 -1.0778,6.36684 -1.2808,1.063 -1.2772,1.41657 0.029,2.8603 1.335,1.47512 1.0843,2.46615 -2.3968,9.47805 -2.1382,4.30687 -3.6722,8.39197 -3.409,9.07801 0.2633,0.68603 -0.4045,2.81974 -1.4839,4.74157 -3.4134,6.07728 -3.8827,7.10291 -6.7577,14.76824 -1.5471,4.125 -5.4184,12.27865 -8.6029,18.11925 -3.1846,5.8406 -5.7901,10.8871 -5.7901,11.2146 0,1.1263 -9.1505,15.6662 -9.8593,15.6662 -0.3902,0 -1.5676,1.4526 -2.6163,3.228 -3.2372,5.4801 -17.0102,19.772 -19.0541,19.772 -0.7804,0 -2.0614,1.2423 -2.8466,2.7607 -2.2838,4.4164 -11.5957,12.4799 -13.7588,11.9142 -1.1338,-0.2965 -1.8649,0.037 -1.8649,0.8506 0,1.6311 -5.1983,5.4745 -7.4044,5.4745 -0.8776,0 -1.5956,0.4462 -1.5956,0.9915 0,0.5452 -2.4384,2.3676 -5.4187,4.0495 -2.9803,1.682 -5.9604,3.7108 -6.6224,4.5086 -0.6621,0.7977 -1.7837,1.4504 -2.4925,1.4504 -0.7087,0 -2.4246,1.35 -3.8129,3 -1.3884,1.65 -2.9689,3 -3.5122,3 -0.5433,0 -2.2599,1.0534 -3.8146,2.3409 -1.5547,1.2875 -5.0767,3.6089 -7.8267,5.1587 -6.3424,3.5742 -7.7274,5.207 -6.4468,7.5999 0.5367,1.0028 1.2437,5.7781 1.5711,10.6119 0.3274,4.8337 1.1574,9.4636 1.8445,10.2886 1.4198,1.7046 3.5312,9.6695 3.5312,13.3204 0,1.3391 0.6021,2.9344 1.3381,3.5452 0.7359,0.6108 2.1216,3.9284 3.0794,7.3724 0.9578,3.4441 2.2478,8.062 2.8667,10.262 1.3226,4.701 4.3214,10.6438 8.4815,16.808 1.6424,2.4335 3.958,7.2329 5.1459,10.6654 1.1879,3.4325 2.8187,6.8998 3.6241,7.7052 0.8054,0.8053 1.4643,2.1071 1.4643,2.8928 0,0.7857 0.4384,1.4286 0.9743,1.4286 0.5359,0 1.7304,1.4625 2.6545,3.25 2.3793,4.6025 7.4823,10.75 8.9236,10.75 0.6696,0 1.9547,1.125 2.8556,2.5 0.901,1.375 2.108,2.5 2.6822,2.5 0.5743,0 2.5487,1.4625 4.3875,3.25 1.8389,1.7875 5.0047,4.6 7.035,6.25 6.0404,4.9088 14.4395,13.8889 14.4972,15.5 0.071,1.9767 2.4071,5 3.8639,5 0.6343,0 2.2798,2.4627 3.6566,5.4727 1.9202,4.1979 2.5355,7.2842 2.6419,13.25 0.2427,13.6151 -0.7726,17.6799 -5.7517,23.0263 -3.9331,4.2233 -4.3369,5.104 -3.9075,8.5217 0.3499,2.7852 -0.1978,5.1469 -2.034,8.7705 -1.382,2.7273 -2.944,4.9588 -3.4709,4.9588 -0.527,0 -0.737,1.2375 -0.4667,2.75 0.4146,2.3197 -0.1123,3.1612 -3.3674,5.3783 -2.1224,1.4455 -5.4668,3.2097 -7.432,3.9203 -3.115,1.1264 -3.9132,1.0693 -6.2246,-0.4452 -3.7134,-2.4331 -5.8038,-0.723 -4.3198,3.5338 1.3383,3.8392 -0.1684,5.7492 -2.6096,3.308 -0.9258,-0.9258 -1.9234,-1.4433 -2.2167,-1.1499 -0.9465,0.9465 1.5651,4.5498 3.6275,5.2044 2.3241,0.7376 2.5852,2.0597 0.6321,3.2006 -0.753,0.4398 -1.6833,1.8122 -2.0674,3.0497 -0.5913,1.9049 -0.3281,2.25 1.716,2.25 1.3279,0 3.3495,0.8111 4.4925,1.8023 1.9123,1.6586 1.9445,1.8951 0.403,2.9646 -1.5123,1.0493 -1.4079,1.3681 1.0749,3.2811 3.2515,2.5052 3.4224,4.337 0.8052,8.6292 -1.0655,1.7475 -2.2256,4.8975 -2.578,7 -0.3524,2.1025 -1.2986,6.2097 -2.1027,9.1271 -1.341,4.8654 -1.8374,5.4652 -6.0011,7.25 -5.5776,2.3908 -6.3652,2.4149 -6.4038,0.1957 -0.029,-1.6667 -0.079,-1.6667 -1.0497,0 -1.2496,2.1455 -6.6701,2.2291 -12.4199,0.1917 z m -869.90501,-70.6113 c 1.7997,-2.0495 1.8037,-2.1325 0.073,-1.5 -1.0075,0.3683 -2.245,0.6696 -2.75,0.6696 -0.505,0 -0.9182,0.675 -0.9182,1.5 0,2.1177 1.3721,1.8621 3.595,-0.6696 z M 1112.2799,997.7741 c 0.5225,-0.5076 2.2896,-1.0701 3.9268,-1.25 1.9255,-0.2114 3.3893,-1.1588 4.1447,-2.6822 0.6424,-1.2954 2.039,-2.8704 3.1036,-3.5 1.0647,-0.6296 3.4746,-2.1555 5.3553,-3.391 1.8808,-1.2354 4.2071,-2.2479 5.1696,-2.25 0.9625,0 1.75,-0.6071 1.75,-1.3447 0,-0.7375 2.8125,-2.7991 6.25,-4.5812 6.3615,-3.298 8.396,-4.4119 17.25,-9.4443 4.8928,-2.781 14.437,-6.5462 17.5836,-6.9369 2.047,-0.2541 14.158,-6.08349 16.4164,-7.90164 2.0773,-1.67237 14.4326,-9.79496 14.8992,-9.79496 0.447,0 2.8211,-2.43596 14.4956,-14.8736 2.2578,-2.40547 4.1052,-5.00192 4.1052,-5.76987 0,-0.76795 1.125,-3.17839 2.5,-5.35653 1.375,-2.17814 2.5,-4.4192 2.5,-4.98013 0,-0.56093 0.7016,-1.01987 1.559,-1.01987 0.8752,0 1.2621,-0.48046 0.8821,-1.09535 -0.3724,-0.60245 -0.2363,-2.06495 0.3024,-3.25 3.5411,-7.79053 5.3075,-19.68337 3.2853,-22.11995 -0.7703,-0.92814 -1.4273,-5.99455 -1.7182,-13.25026 -0.2909,-7.25305 -0.9985,-12.71107 -1.8495,-14.26599 -0.7581,-1.38515 -3.3962,-6.90208 -5.8623,-12.25984 -4.7699,-10.36275 -7.8414,-15.04023 -13.7266,-20.90389 -3.8816,-3.86743 -10.7266,-8.17634 -14.8722,-9.36211 -1.375,-0.39329 -3.9786,-1.39893 -5.7858,-2.23475 -1.8071,-0.83582 -3.5258,-1.27959 -3.8192,-0.98615 -0.6766,0.67655 1.8101,4.72829 2.9019,4.72829 1.1177,0 6.6978,6.20032 6.7253,7.47286 0.032,1.46453 3.662,6.0033 4.9207,6.15214 0.5814,0.0688 1.5071,0.18125 2.0571,0.25 0.55,0.0688 1,0.75759 1,1.53076 0,0.77317 2.0042,2.73329 4.4538,4.35583 8.8695,5.87491 11.6769,9.06277 14.1491,16.0667 1.2952,3.66944 2.3644,8.13421 2.376,9.92171 0.012,1.81414 0.8449,4.07381 1.8857,5.11465 1.6131,1.61302 1.8126,3.10093 1.4788,11.02595 -0.2305,5.46989 0.053,9.98246 0.7047,11.19927 0.7481,1.39775 0.7685,2.42616 0.065,3.27367 -0.5641,0.67963 -1.3416,3.21176 -1.7278,5.62695 -0.3862,2.41519 -1.3031,5.54287 -2.0377,6.95039 -0.7345,1.40751 -1.3383,3.56781 -1.3416,4.80065 0,1.23284 -0.8102,2.74363 -1.7929,3.35732 -1.278,0.79814 -1.6787,2.04026 -1.4075,4.36317 0.2912,2.49436 -0.1704,3.68689 -1.9905,5.14268 -1.3032,1.04242 -3.8951,3.8078 -5.7598,6.1453 -1.8646,2.3375 -3.9202,4.25 -4.5679,4.25 -0.6477,0 -2.0257,0.93715 -3.0623,2.08255 -2.258,2.49507 -7.7325,4.91745 -11.1132,4.91745 -1.344,0 -3.2601,0.437 -4.2581,0.97112 -1.1854,0.63441 -3.8959,0.6045 -7.8174,-0.0863 -4.6184,-0.81353 -6.837,-1.84416 -9.6197,-4.46893 -1.9893,-1.87636 -3.6169,-3.80765 -3.6169,-4.29177 0,-0.48412 -0.957,-1.51563 -2.1266,-2.29224 -1.5708,-1.04298 -2.2573,-2.77229 -2.6267,-6.61672 -0.4998,-5.20066 -0.4961,-5.20861 4.764,-10.22539 2.8953,-2.76137 6.4398,-5.25434 7.8767,-5.53993 1.4369,-0.28558 4.0415,-0.97063 5.788,-1.52233 3.3306,-1.05207 8.3246,-0.34365 8.3246,1.18086 0,0.49037 0.6495,0.89159 1.4433,0.89159 0.7938,0 2.1281,0.97771 2.9651,2.1727 1.9444,2.77595 2.409,1.67663 3.4638,-8.19556 0.8641,-8.08638 -0.2349,-16.67567 -2.4204,-18.91762 -0.7723,-0.79226 -1.5444,-1.24226 -1.7159,-1 -0.1714,0.24227 -1.86,3.46869 -3.7524,7.16984 -3.402,6.65344 -8.3723,11.78709 -14.4835,14.95932 -5.4686,2.83868 -10.544,4.81132 -12.3789,4.81132 -1.9404,0 -4.4274,-2.40112 -5.4377,-5.25 -0.3414,-0.9625 -1.4866,-1.75 -2.545,-1.75 -2.3057,0 -3.5022,-2.47618 -1.829,-3.78521 0.6548,-0.51228 2.6855,-0.81277 4.5126,-0.66774 1.8272,0.14504 3.0825,0.0241 2.7897,-0.26869 -0.2928,-0.29282 0.1108,-2.07176 0.8969,-3.95322 2.0065,-4.80226 1.3254,-15.65138 -1.3644,-21.73212 -1.1793,-2.66599 -2.1442,-5.39592 -2.1442,-6.0665 0,-3.12856 -8.6612,-16.91939 -16.3157,-25.97871 -9.2816,-10.98516 -24.24,-23.54777 -28.0385,-23.54777 -0.7067,0 -2.2631,-1.125 -3.4587,-2.5 -1.1955,-1.375 -2.7676,-2.5 -3.4934,-2.5 -0.7259,0 -4.3042,-1.8 -7.9519,-4 -3.8335,-2.31212 -7.9023,-4 -9.6424,-4 -1.6557,0 -4.6682,-1.125 -6.6943,-2.5 -2.0262,-1.375 -4.212,-2.5 -4.8574,-2.5 -0.6453,0 -2.495,-1.39017 -4.1104,-3.08928 -2.8697,-3.01838 -7.4063,-5.91072 -9.2708,-5.91072 -1.5711,0 -2.044,3.85658 -0.618,5.04008 1.7864,1.48258 3.3786,9.5329 3.9477,19.95992 0.2551,4.675 1.0117,13.225 1.6811,19 1.3962,12.04293 1.3847,41.17369 -0.017,43.67867 -0.6526,1.16619 -0.5043,2.11979 0.4832,3.10731 0.9246,0.92458 1.16,2.17767 0.6706,3.56939 -0.4148,1.17955 -0.6448,4.50713 -0.5112,7.39463 0.1922,4.15333 -0.077,5.25 -1.2882,5.25 -1.2704,0 -1.3228,0.3338 -0.3073,1.95978 0.9624,1.54111 0.9642,2.67785 0.01,5.321 -0.6685,1.84867 -1.2154,4.79177 -1.2154,6.54022 0,1.74845 -0.45,3.179 -1,3.179 -1.7421,0 -1.0802,3.48689 1,5.26797 1.3484,1.15455 2,2.94994 2,5.5108 0,2.08909 0.9066,5.57666 2.0147,7.75016 1.1082,2.1735 1.7754,4.57568 1.4828,5.33819 -0.2926,0.76251 0.019,2.04974 0.6914,2.86051 1.5835,1.90795 1.8883,4.10662 0.6735,4.85743 -0.578,0.35718 -0.6,1.05468 -0.055,1.75397 0.4973,0.63853 1.2245,2.28597 1.6161,3.66097 2.0572,7.22411 2.6617,9.82386 3.0545,13.1385 0.2372,2.0012 1.3518,5.2774 2.4769,7.2804 1.125,2.0031 2.0455,4.7651 2.0455,6.1378 0,2.9782 5.8537,9.131 15.0613,15.8309 6.5338,4.7543 7.8614,5.2705 9.4887,3.6893 z M 305.77929,722.48594 c 3.1984,-1.37925 5.5354,-5.79197 3.6975,-6.98162 -0.9654,-0.62494 -0.9083,-1.02938 0.2531,-1.79181 1.4504,-0.95212 1.3092,-1.12293 -1.1494,-1.39031 -1.5931,-0.17327 -3.7279,-6.77062 -4.0185,-12.41904 -0.1332,-2.58828 -0.8794,-5.4767 -1.6584,-6.41871 -0.7789,-0.94202 -1.1265,-2.46793 -0.7723,-3.39091 0.3583,-0.93375 -0.1382,-2.8355 -1.1195,-4.28724 -1.8636,-2.75745 -1.9798,-3.71241 -2.7412,-22.52991 -0.2653,-6.55645 -0.8901,-12.32862 -1.3886,-12.82705 -1.1167,-1.11671 -4.5902,3.63148 -5.5463,7.58165 -0.5009,2.06942 -0.3637,2.63464 0.5086,2.09549 0.7782,-0.48096 0.9312,-0.31212 0.439,0.48439 -0.4156,0.67247 -1.3852,0.98112 -2.1545,0.68589 -0.9112,-0.34963 -1.3989,0.16055 -1.3989,1.46321 0,1.1 0.6865,2.26343 1.5255,2.5854 1.1698,0.44887 1.2601,0.90524 0.3874,1.95678 -0.8762,1.05571 -0.7669,1.51383 0.4745,1.99021 2.0225,0.77613 2.0737,2.77726 0.1126,4.40484 -1.9231,1.59602 -1.9479,5 -0.036,5 2.0478,0 1.8831,8.92977 -0.1793,9.72119 -1.1757,0.45114 -1.3274,1.86951 -0.7816,7.3047 0.4502,4.48329 0.3119,6.97073 -0.4126,7.4185 -0.5995,0.3705 -1.09,1.71488 -1.09,2.98751 0,3.17107 3.8226,11.5628 5.5731,12.23452 0.7848,0.30116 1.4269,1.17441 1.4269,1.94057 0,0.76615 0.45,1.39301 1,1.39301 0.55,0 0.9467,0.3375 0.8816,0.75 -0.4182,2.64877 2.0877,2.66065 8.1678,0.0387 z m 287.7751,-191.35336 c 0.1785,-2.15051 0.7797,-4.45851 1.3361,-5.1289 0.5564,-0.67038 0.7655,-1.61702 0.4648,-2.10365 -0.4756,-0.76945 4.453,-5.20283 5.784,-5.20283 1.1653,0 9.5906,-6.23051 9.5906,-7.09229 0,-1.83593 -4.5972,-3.19366 -6.8078,-2.01059 -3.1556,1.68885 -3.6515,1.45211 -7.6396,-3.64712 -3.0991,-3.96254 -3.6338,-5.33024 -3.2254,-8.25 0.2693,-1.925 0.2767,-2.96278 0.017,-2.30618 -0.2601,0.65661 -1.1405,0.93766 -1.9564,0.62458 -0.8184,-0.31405 -2.1201,0.27153 -2.9036,1.30617 -0.7811,1.03149 -1.4345,1.51284 -1.452,1.06967 -0.017,-0.44317 -1.0658,0.39634 -2.3295,1.86557 -1.9517,2.26892 -3.2223,2.71622 -8.4342,2.96925 -3.3751,0.16385 -6.9385,0.74678 -7.9189,1.2954 -1.5632,0.87482 -1.6191,1.30259 -0.4548,3.47819 0.7302,1.36438 2.9652,3.71888 4.9666,5.23223 2.0015,1.51335 5.214,5.16234 7.139,8.10886 1.925,2.94652 4.2875,5.6124 5.25,5.92417 0.9625,0.31178 1.7517,0.87404 1.7538,1.24948 0.01,1.78163 4.1987,7.28251 5.2762,6.92867 0.671,-0.22036 1.3661,-2.16017 1.5446,-4.31068 z m -59.0148,-38.29659 c 0.9885,-0.62692 0.6907,-1.23616 -1.2148,-2.48468 -1.3885,-0.90976 -2.7654,-1.65411 -3.0597,-1.65411 -0.9963,0 -0.5427,2.59249 0.6648,3.8 1.4086,1.40865 1.8564,1.45068 3.6097,0.33879 z m -5.7146,-5.75341 c 1.1422,-1.37628 1.0453,-1.85601 -0.6566,-3.25 -3.4234,-2.80399 -5.6585,-10.38523 -5.2786,-17.90466 0.3169,-6.27171 0.1919,-6.75183 -1.8331,-7.04021 -2.7458,-0.39102 -15.2926,6.20699 -16.0343,8.4319 -0.4147,1.24428 5.1904,8.50857 7.5418,9.77415 0.9161,0.4931 4.0473,3.3056 6.958,6.25 5.63,5.69493 7.1668,6.31259 9.3028,3.73882 z m 58.5629,-21.88538 c 0.087,-1.1 0.3119,-6.725 0.5,-12.5 l 0.342,-10.5 -3.25,-0.31336 c -1.8256,-0.17601 -3.25,0.1527 -3.25,0.75 0,0.58485 -0.6526,1.06336 -1.4503,1.06336 -0.7977,0 -1.8102,0.61403 -2.25,1.36452 -0.4398,0.75049 -2.2561,2.1089 -4.0362,3.0187 -1.7801,0.9098 -4.7051,2.93505 -6.5,4.50056 -1.7949,1.56551 -4.276,3.16242 -5.5135,3.54869 -2.5917,0.80898 -2.9213,2.09596 -0.75,2.92916 0.825,0.31658 1.5,1.77325 1.5,3.23704 0,2.58668 0.1334,2.64576 4.75,2.10355 4.7858,-0.56209 12.9071,0.80008 14.7383,2.47206 1.6867,1.54 5.0006,0.46676 5.1697,-1.67428 z m -114.4747,-24.70661 c 1.3595,0.0584 4.9784,-2.7136 3.6891,-2.8258 -4.7428,-0.41276 -13.02,-0.4867 -13.3871,-0.11959 -0.2693,0.26933 0.2791,1.3392 1.2188,2.37749 1.243,1.37352 2.4014,1.69817 4.2522,1.19171 1.399,-0.38284 3.3012,-0.66356 4.227,-0.62381 z m 75.7804,-6.07518 c 1.9547,-3.08214 3.6934,-4.71821 5.0143,-4.71821 1.58,0 2.022,-0.65577 2.022,-3 0,-2.88298 -0.1732,-3 -4.441,-3 -2.4425,0 -4.7278,-0.46408 -5.0783,-1.03129 -1.2279,-1.98677 -18.5648,0.22272 -20.5539,2.61948 -0.8881,1.07013 -0.019,1.87615 4.2276,3.91966 2.9401,1.41488 7.1353,4.54461 9.3227,6.95494 2.4613,2.71219 4.4568,4.11396 5.2358,3.67803 0.6922,-0.38743 2.6051,-2.8276 4.2508,-5.42261 z M 81.932091,417.33382 c -0.076,-11.34899 -0.2123,-12.13763 -2.3913,-13.81414 -1.271,-0.9779 -3.128,-1.78801 -4.1266,-1.80024 -0.9987,-0.0122 -2.7052,-0.49824 -3.7923,-1.08002 -1.6538,-0.88511 -2.5531,-0.48116 -5.5089,2.47467 -4.0441,4.0441 -3.7263,5.58311 1.1529,5.58311 4.4867,0 5.9581,2.38623 7.5014,12.16569 0.9555,6.05461 1.6042,7.76882 3.0862,8.15638 1.032,0.26988 1.8901,1.32032 1.9068,2.33431 0.029,1.75132 0.086,1.74781 1.1413,-0.07 0.6608,-1.13839 1.0783,-6.78964 1.0305,-13.94976 z M 472.41519,400.18424 c 5.1242,-2.14104 3.1568,-3.62278 -5.3422,-4.02339 -14.1589,-0.6674 -25.4306,-0.70953 -26.0428,-0.0973 -0.3485,0.3485 -2.4936,0.63365 -4.767,0.63365 -4.4615,0 -6.5333,1.33875 -6.5333,4.22167 0,1.71746 1.116,1.7924 19.5082,1.30999 14.3075,-0.37527 20.4863,-0.92035 23.1771,-2.04462 z M 329.38349,385.9472 c 10.5623,-9.74344 12.2141,-11.13051 14.9347,-12.54097 1.6014,-0.83026 4.5572,-3.11033 6.5684,-5.06683 2.0112,-1.95649 4.7479,-3.83113 6.0815,-4.16586 1.3337,-0.33472 3.5583,-1.65955 4.9436,-2.94405 1.7199,-1.59482 2.9626,-2.0544 3.9184,-1.44919 2.4934,1.57868 2.8783,0.9954 2.4385,-3.6956 -0.5671,-6.0496 -2.7514,-8.48533 -6.9008,-7.69496 -5.5854,1.0639 -15.6379,7.40414 -15.6379,9.86303 0,0.61111 -1.5229,2.6486 -3.3842,4.52776 -1.8613,1.87917 -4.4665,4.99167 -5.7893,6.91667 -6.708,9.7614 -9.3564,13.03341 -10.9621,13.54305 -2.8192,0.89478 -3.6902,6.45695 -1.0111,6.45695 0.4043,0 2.5645,-1.6875 4.8003,-3.75 z m 22.9494,880.5833 c 0.2833,-0.4583 0.9385,-0.8333 1.456,-0.8333 0.5176,0 0.941,0.375 0.941,0.8333 0,0.4584 -0.6552,0.8334 -1.456,0.8334 -0.8008,0 -1.2243,-0.375 -0.941,-0.8334 z m 196.5737,-81.4965 c 0.3841,-1.9757 5.8233,-2.584 5.8233,-0.6512 0,0.6884 -0.6295,1.0101 -1.3988,0.7148 -0.7694,-0.2952 -1.696,-0.056 -2.0591,0.5314 -1.035,1.6747 -2.7241,1.2499 -2.3654,-0.595 z"
     id="path2987"
     inkscape:connector-curvature="0" />
</svg>
