<?xml version="1.0" encoding="UTF-8" standalone="no"?>
<!-- Created with Inkscape (http://www.inkscape.org/) -->

<svg
   xmlns:dc="http://purl.org/dc/elements/1.1/"
   xmlns:cc="http://creativecommons.org/ns#"
   xmlns:rdf="http://www.w3.org/1999/02/22-rdf-syntax-ns#"
   xmlns:svg="http://www.w3.org/2000/svg"
   xmlns="http://www.w3.org/2000/svg"
   xmlns:sodipodi="http://sodipodi.sourceforge.net/DTD/sodipodi-0.dtd"
   xmlns:inkscape="http://www.inkscape.org/namespaces/inkscape"
   id="svg2"
   version="1.1"
   inkscape:version="0.48.2 r9819"
   width="999.69458"
   height="1020.8714"
   sodipodi:docname="cu31924023108271_0006d.png">
  <metadata
     id="metadata8">
    <rdf:RDF>
      <cc:Work
         rdf:about="">
        <dc:format>image/svg+xml</dc:format>
        <dc:type
           rdf:resource="http://purl.org/dc/dcmitype/StillImage" />
        <dc:title></dc:title>
      </cc:Work>
    </rdf:RDF>
  </metadata>
  <defs
     id="defs6" />
  <sodipodi:namedview
     pagecolor="#ffffff"
     bordercolor="#666666"
     borderopacity="1"
     objecttolerance="10"
     gridtolerance="10"
     guidetolerance="10"
     inkscape:pageopacity="0"
     inkscape:pageshadow="2"
     inkscape:window-width="1600"
     inkscape:window-height="876"
     id="namedview4"
     showgrid="false"
     fit-margin-top="0"
     fit-margin-left="0"
     fit-margin-right="0"
     fit-margin-bottom="0"
     inkscape:zoom="1"
     inkscape:cx="150.74005"
     inkscape:cy="680.69589"
     inkscape:window-x="0"
     inkscape:window-y="24"
     inkscape:window-maximized="1"
     inkscape:current-layer="svg2" />
  <path
     style="fill:#000000"
     d="m 238.87941,1020.3736 c -0.58465,-0.5847 -3.44268,-1.1734 -6.35118,-1.3084 -11.17416,-0.5183 -19.3665,-1.6136 -21.28818,-2.8462 -1.1,-0.7056 -4.22263,-1.5301 -6.93919,-1.8323 -3.10731,-0.3457 -5.42535,-1.2143 -6.25,-2.3421 -2.12487,-2.906 -1.55544,-11.2608 1.28915,-18.91474 1.42998,-3.8476 2.84842,-7.8957 3.1521,-8.9957 0.83786,-3.03492 4.21438,-7.49304 5.47717,-7.23166 0.61554,0.12741 3.75343,-3.59334 6.97309,-8.26834 10.35858,-15.04082 10.05956,-14.07196 10.80239,-35 0.41275,-11.62876 1.1189,-19.3635 1.90122,-20.82486 0.73025,-1.36411 1.00119,-3.84363 0.65563,-6 -0.32391,-2.02133 -0.21782,-5.00672 0.23575,-6.63422 0.53379,-1.91529 0.35591,-4.31971 -0.50427,-6.81642 -0.73093,-2.12154 -1.07507,-4.26816 -0.76476,-4.77026 0.31031,-0.5021 0.15166,-1.70971 -0.35257,-2.68357 -0.50423,-0.97387 -1.20836,-5.37067 -1.56472,-9.77067 -0.35637,-4.4 -0.99648,-9.575 -1.42247,-11.5 -0.42599,-1.925 -0.40599,-11.15 0.0444,-20.5 0.45042,-9.35 0.85673,-18.35 0.9029,-20 0.0462,-1.65 0.74269,-6.375 1.54782,-10.5 0.80513,-4.125 1.64186,-9.525 1.85939,-12 0.49503,-5.63233 0.81192,-7.17785 1.79407,-8.75 0.45716,-0.73179 0.2975,-1.25 -0.38511,-1.25 -0.72391,0 -0.88724,-0.66352 -0.43076,-1.75 0.40439,-0.9625 0.79003,-13.40338 0.85699,-27.6464 l 0.12174,-25.8964 3.97776,-1.3801 c 2.18777,-0.75906 5.26953,-2.79441 6.84836,-4.52301 2.75204,-3.0131 2.84105,-3.41467 2.15525,-9.72349 -1.20169,-11.05452 -0.72795,-26.42713 0.84997,-27.58093 2.24388,-1.64077 2.74982,-4.79876 1.67596,-10.4612 -0.57478,-3.03078 -0.63691,-5.80583 -0.14406,-6.43395 1.24101,-1.58162 2.10603,-9.50548 1.10521,-10.12402 -0.96979,-0.59936 -1.13894,-2.06108 -1.03921,-8.9805 0.0521,-3.61372 -0.20113,-4.58412 -0.91328,-3.5 -0.84361,1.28424 -0.98754,1.24828 -1.00065,-0.25 -0.01,-1.08844 0.74076,-1.75 1.98469,-1.75 2.30235,0 2.77206,-2.93566 0.5,-3.125 -0.825,-0.0688 -1.95,-0.2375 -2.5,-0.375 -0.55,-0.1375 -1.59896,-0.30625 -2.33102,-0.375 -0.73206,-0.0688 -1.92488,-1.23464 -2.65071,-2.59087 -0.72584,-1.35623 -1.67078,-2.24889 -2.09989,-1.98369 -0.4291,0.2652 -1.06284,0.0248 -1.4083,-0.53413 -0.34542,-0.55897 -1.72652,-1.01631 -3.06906,-1.01631 -1.34254,0 -2.44098,-0.40787 -2.44098,-0.90638 0,-0.49851 -0.89453,-0.67246 -1.98785,-0.38655 -1.25888,0.32921 -2.21409,-0.0697 -2.60478,-1.08787 -0.33932,-0.88424 -1.01979,-1.35874 -1.51215,-1.05444 -0.49237,0.3043 -0.89522,0.1352 -0.89522,-0.37578 0,-0.51098 -1.9125,-1.40604 -4.25,-1.98902 -2.3375,-0.58298 -6.3875,-1.59995 -9,-2.25993 -2.6125,-0.65997 -4.75,-1.56017 -4.75,-2.00044 0,-0.44027 -1.0125,-0.94429 -2.25,-1.12004 -2.81762,-0.40016 -3.23252,-4.24036 -0.84484,-7.81955 1.90336,-2.85317 4.29024,-9.3984 3.8863,-10.65686 -0.14885,-0.46373 0.49219,-4.21814 1.42453,-8.34314 0.93233,-4.125 2.63164,-12.45 3.77622,-18.5 2.13264,-11.2726 2.72302,-14 3.03047,-14 0.0966,0 0.33781,-1.125 0.53593,-2.5 0.19812,-1.375 0.64389,-3.67445 0.9906,-5.10989 0.51579,-2.13549 0.22261,-2.71652 -1.61293,-3.19652 -1.63427,-0.42737 -3.3185,0.33369 -6.20367,2.80329 -4.44327,3.80327 -12.36387,7.84905 -13.72253,7.00935 -0.48997,-0.30282 -1.70518,0.2946 -2.70047,1.3276 -0.99528,1.033 -3.9618,2.68473 -6.59227,3.6705 -2.63046,0.98578 -5.01047,2.16095 -5.28892,2.6115 -0.63418,1.02612 -12.82089,6.88417 -14.32139,6.88417 -0.60887,0 -2.00703,0.9 -3.10703,2 -2.16251,2.16251 -4.57938,2.74647 -3.38787,0.81857 0.40159,-0.64979 -0.87349,0.0417 -2.83352,1.53672 -1.96002,1.49498 -4.57367,2.91266 -5.8081,3.15039 -1.23444,0.23773 -3.08936,1.19689 -4.12206,2.13147 -1.0327,0.93458 -2.88357,1.81105 -4.11304,1.94771 -1.22948,0.13666 -2.59947,0.28597 -3.04443,0.33181 -0.44496,0.0458 -0.5309,0.53333 -0.19098,1.08333 0.33992,0.55 -0.0796,1 -0.93233,1 -0.8527,0 -3.63166,1.58869 -6.17547,3.53043 -3.00845,2.2964 -5.26755,3.32652 -6.46307,2.94708 -1.5727,-0.49916 -6.34,1.65501 -7.92913,3.58287 -0.96576,1.17163 -13.07662,6.93962 -14.57087,6.93962 -2.0589,0 -12.558935,5.54063 -15.248375,8.04622 -1.19942,1.11743 -2.18076,1.80202 -2.18076,1.52132 0,-0.75407 -12.0775,4.50766 -15.10941,6.58262 -3.76604,2.57738 -19.03474,9.84984 -20.67996,9.84984 -0.76735,0 -2.53934,0.9 -3.93776,2 -1.39842,1.1 -3.2694,2.01001 -4.15773,2.02224 -0.88833,0.0122 -2.71238,0.86558 -4.05346,1.89635 -1.34107,1.03076 -3.01534,1.65269 -3.7206,1.38205 -0.70525,-0.27063 -2.4734,0.44488 -3.92922,1.59003 -1.45581,1.14514 -3.04711,1.83476 -3.53622,1.53247 -0.48911,-0.30229 -2.25245,0.42105 -3.91853,1.6074 -1.66609,1.18636 -3.57552,2.25187 -4.24318,2.3678 -0.66766,0.11594 -2.78893,1.06745 -4.71393,2.11448 -5.1317998,2.79125 -9.2328298,2.99237 -11.4334498,0.56071 -1.57587996,-1.74133 -1.66027996,-2.43304 -0.60706996,-4.97571 1.55224996,-3.74745 4.35605996,-6.29771 7.27625996,-6.61827 3.0923098,-0.33945 9.7597698,-3.18722 9.7831498,-4.17852 0.0104,-0.44057 2.31175,-2.15103 5.11414,-3.80103 2.8024,-1.65 8.02849,-4.9125 11.61354,-7.25 3.58504,-2.3375 7.10712,-4.25 7.82683,-4.25 0.71971,0 1.60384,-0.47776 1.96472,-1.06168 0.74163,-1.19999 5.52404,-3.36084 6.7974,-3.0713 0.45953,0.1045 2.36241,-1.15064 4.22862,-2.78919 1.8662,-1.63855 4.97772,-3.27646 6.91448,-3.6398 1.93676,-0.36334 3.52138,-1.06053 3.52138,-1.54932 0,-0.48879 1.11338,-0.88871 2.47419,-0.88871 3.06346,0 16.1798,-6.65592 16.92059,-8.5864 0.29835,-0.77748 1.28378,-1.4136 2.18986,-1.4136 0.90607,0 3.77984,-1.56535 6.38615,-3.47856 2.60632,-1.91321 4.99964,-3.21768 5.3185,-2.89882 0.31886,0.31887 1.842125,-0.59078 3.385015,-2.02143 3.12603,-2.89862 2.82603,-2.76199 6.49537,-2.95833 1.46832,-0.0786 3.71832,-1.06748 5,-2.19757 2.33734,-2.06089 7.05654,-4.49897 16.27528,-8.40832 2.71972,-1.15334 6.37668,-3.18901 8.12657,-4.52373 1.7499,-1.33471 3.46218,-2.14621 3.80506,-1.80333 0.34288,0.34288 0.62342,0.12875 0.62342,-0.47586 0,-1.27692 3.81068,-2.75993 6,-2.33503 0.825,0.16012 1.17032,-0.0438 0.76739,-0.45323 -0.71492,-0.72637 7.66816,-5.3524 9.81192,-5.41452 0.59362,-0.0172 4.44978,-1.94377 8.56925,-4.28127 4.11946,-2.3375 10.38377,-5.6 13.92069,-7.25 3.53691,-1.65 6.58075,-3.3375 6.76408,-3.75 0.18334,-0.4125 0.97694,-0.75 1.76357,-0.75 1.36836,0 5.35297,-1.89686 6.4031,-3.04818 1.50918,-1.65461 6.80646,-4.81203 7.27955,-4.33894 0.30458,0.30458 1.49128,-0.38371 2.63712,-1.52955 1.14583,-1.14583 2.80136,-2.08333 3.67896,-2.08333 0.8776,0 2.81754,-0.87008 4.31099,-1.93351 1.49346,-1.06343 3.90696,-2.23258 5.36336,-2.59811 2.69169,-0.67558 4.97975,-2.73931 5.3431,-4.81926 0.11041,-0.63202 1.44897,-3.84912 2.97458,-7.14912 1.52561,-3.3 2.8304,-6.225 2.89954,-6.5 0.0691,-0.275 0.49503,-2.06023 0.94641,-3.96718 0.45139,-1.90694 1.17196,-4.15694 1.60127,-5 1.27079,-2.49546 3.96512,-12.10892 3.96512,-14.14765 0,-1.03685 0.45,-1.88517 1,-1.88517 0.55,0 1,-1.365 1,-3.03333 0,-3.67601 -4.72335,-8.77272 -11.14046,-12.02105 -2.39775,-1.21373 -5.59397,-3.07648 -7.10272,-4.13944 -1.50874,-1.06296 -3.19624,-1.65264 -3.75,-1.3104 -0.55375,0.34224 -1.00682,0.20029 -1.00682,-0.31544 0,-0.51574 -1.35,-1.49689 -3,-2.18034 -1.65,-0.68345 -3,-1.58556 -3,-2.00469 0,-0.41913 -0.94528,-1.00924 -2.10062,-1.31137 -1.15668,-0.30248 -1.8042,-1.02893 -1.44098,-1.61663 0.3628,-0.58702 -0.0419,-1.06731 -0.89938,-1.06731 -0.85746,0 -1.55902,-0.70156 -1.55902,-1.55902 0,-0.85746 -0.39711,-1.31359 -0.88246,-1.01362 -1.3032,0.80542 -5.92606,-3.15641 -7.71126,-6.60859 -0.85456,-1.65255 -1.79914,-2.75924 -2.09906,-2.45932 -0.29993,0.29992 -1.19889,-0.10826 -1.9977,-0.90707 -0.79881,-0.79881 -2.65773,-1.45406 -4.13095,-1.45612 -2.88265,-0.004 -9.17857,-3.36656 -9.17857,-4.90211 0,-0.51438 -1.44498,-1.25261 -3.21107,-1.64051 -3.26678,-0.7175 -12.52175,-7.5846 -20.95431,-15.54789 -6.13643,-5.79493 -11.27412,-15.21601 -9.8,-17.97044 0.58183,-1.08715 0.82893,-2.34707 0.54912,-2.79982 -0.27982,-0.45275 -0.0971,-2.35595 0.40599,-4.22934 0.50312,-1.87338 1.09259,-5.97732 1.30995,-9.11986 0.21736,-3.14254 0.90994,-6.33394 1.53908,-7.09201 0.62914,-0.75806 0.90594,-1.61624 0.61512,-1.90706 -0.29082,-0.29082 -0.005,-1.67874 0.6356,-3.08425 0.64039,-1.40552 0.87846,-3.69456 0.52904,-5.08676 -0.69057,-2.75145 -4.28798,-7.0439 -6.50245,-7.75875 -1.11424,-0.35969 -1.05161,-0.77907 0.32143,-2.1521 0.93795,-0.93795 1.43238,-1.70536 1.09874,-1.70536 -0.33363,0 -0.12277,-0.90405 0.46858,-2.00901 0.80364,-1.50162 1.69649,-1.85308 3.53519,-1.39159 2.48164,0.62285 2.95477,-0.18839 2.68246,-4.5994 -0.0509,-0.825 1.38663,-4.425 3.19459,-8 3.23266,-6.39217 7.06186,-17.16795 9.94986,-28 3.03767,-11.3934 12.39288,-29.80399 17.4566,-34.35369 2.73193,-2.45461 3.65517,-7.07643 2.14289,-10.72741 -1.6041,-3.87262 0.94974,-13.66134 5.10896,-19.58238 1.60855,-2.28991 2.92463,-5.13199 2.92463,-6.31574 0,-2.78475 1.63134,-5.7802 4.58327,-8.41574 1.29676,-1.15777 3.63805,-4.58052 5.20287,-7.6061 1.98658,-3.84105 3.3534,-5.40317 4.52949,-5.17667 1.84737,0.35577 2.35598,-2.28916 0.64369,-3.34741 -0.57237,-0.35375 -0.78721,-1.44177 -0.47742,-2.41783 0.30979,-0.97607 -0.0828,-2.31084 -0.8724,-2.96616 -2.09011,-1.73463 -3.12385,-10.76128 -1.5658,-13.67253 0.69416,-1.29704 3.1058,-3.58578 5.3592,-5.08609 2.25341,-1.5003 4.5774,-3.28742 5.16444,-3.97137 0.58704,-0.68394 2.24861,-1.40173 3.69238,-1.59508 1.44378,-0.19334 3.43847,-1.06814 4.43266,-1.94399 2.65397,-2.33805 9.73183,-5.52359 11.64789,-5.24237 0.91285,0.13397 1.65973,-0.10514 1.65973,-0.53136 0,-0.42622 2.61761,-1.94967 5.81691,-3.38543 5.14445,-2.30869 6.90984,-3.44358 11.89088,-7.64411 0.66429,-0.5602 1.57575,-1.01854 2.02546,-1.01854 0.44972,0 3.445,-1.28834 6.65619,-2.86299 5.46474,-2.6797 5.67117,-2.90498 3.22454,-3.51905 -1.43769,-0.36083 -2.61398,-1.12293 -2.61398,-1.69355 0,-0.57061 -1.35,-0.24002 -3,0.73466 -1.65,0.97468 -3,2.20012 -3,2.7232 0,0.52309 -0.27931,0.67175 -0.6207,0.33036 -0.34138,-0.34138 -2.24585,0.48362 -4.23213,1.83334 -1.98629,1.34972 -4.18198,2.45403 -4.8793,2.45403 -0.69733,0 -1.26787,0.39375 -1.26787,0.875 0,0.48125 -1.35497,1.14599 -3.01106,1.47721 -1.8228,0.36456 -3.43494,1.53256 -4.08521,2.95973 -0.59078,1.29663 -2.38428,3.13143 -3.98554,4.07731 -2.87659,1.69925 -2.92554,1.68872 -4.09658,-0.88142 -1.89131,-4.15098 1.88262,-14.61142 11.36744,-31.50783 1.38934,-2.475 3.53893,-6.3 4.77685,-8.5 3.94229,-7.0061 11.68053,-16.83525 17.44651,-22.16062 5.85708,-5.40952 6.5953,-7.18881 4.04197,-9.74214 -0.85009,-0.85009 -2.21437,-5.37697 -3.03173,-10.05973 -1.32611,-7.59745 -1.32159,-8.83225 0.042,-11.46906 0.96171,-1.85973 1.15879,-3.183176 0.53173,-3.570716 -0.54803,-0.338672 -0.99638,-1.914435 -0.99638,-3.501695 0,-2.121319 1.17163,-3.984071 4.42221,-7.030754 5.64724,-5.293022 5.54033,-6.5735 -1.49996,-17.965285 -2.04541,-3.309644 -2.82568,-6.074528 -3.01291,-10.676222 -0.2416,-5.938228 3.37174,-17.921792 6.37757,-21.151039 3.22737,-3.467254 13.01412,-10.775503 17.48273,-13.055217 2.12528,-1.084241 4.43255,-2.656217 5.12725,-3.493282 1.10286,-1.3288668 7.15691,-3.9605218 9.38958,-4.0815918 0.43257,-0.02346 1.11715,-0.577685 1.5213,-1.231619 0.40416,-0.653935 1.92175,-1.404202 3.37244,-1.667261 1.45068,-0.26306 3.69817,-1.1732 4.99442,-2.022535 1.90239,-1.24649496 4.66753,-1.45798296 14.34109,-1.09685896 6.59136,0.246062 13.89665,0.635971 16.234,0.86646596 2.33735,0.230494 4.5311,-0.0362 4.875,-0.59264196 0.39645,-0.641461 0.91069,-0.549918 1.40515,0.250134 0.69896,1.13094596 3.74329,1.95126996 7.97013,2.14762896 0.825,0.03833 2.25914,0.728996 3.18699,1.534823 0.92784,0.805826 2.18685,1.156204 2.7978,0.778617 0.61095,-0.377588 2.27567,0.47833 3.69938,1.902038 1.4237,1.423709 3.59709,2.588561 4.82975,2.588561 1.23265,0 2.82736,0.7062848 3.54378,1.5695228 0.71642,0.863237 2.09595,1.362052 3.06563,1.108477 0.96967,-0.253575 2.55236,0.411143 3.51708,1.47715 0.96472,1.066007 3.12779,2.644283 4.80682,3.507279 4.19177,2.154515 16.86811,16.073422 16.20716,17.795831 -0.29061,0.757328 0.75861,2.723684 2.33161,4.36968 1.57301,1.645995 2.59466,3.258071 2.27034,3.582389 -0.32432,0.324319 -0.0381,0.589671 0.63601,0.589671 0.67413,0 0.95637,0.435753 0.62722,0.968339 -0.32916,0.532586 0.11655,3.570086 0.99047,6.75 0.87392,3.179914 1.75724,6.456661 1.96294,7.281661 0.2057,0.825 0.45776,1.5 0.56014,1.5 0.10237,0 0.30914,1.4625 0.45949,3.25 0.15035,1.7875 -0.11274,3.25 -0.58463,3.25 -0.47189,0 -0.5826,1.37692 -0.24602,3.059821 0.33658,1.682902 0.12266,4.045402 -0.47538,5.25 -1.41738,2.854937 -3.228,15.334509 -2.53971,17.504819 1.03697,3.2698 2.8731,6.70747 4.61032,8.63164 2.53163,2.80406 3.74876,8.04619 2.70951,11.66983 -1.06418,3.71057 -2.86958,6.06195 -4.08001,5.31386 -1.33058,-0.82235 -1.08556,0.10587 0.9933,3.76287 2.72951,4.80158 3.46534,9.73741 1.56062,10.46832 -0.83854,0.32178 -1.39407,1.3556 -1.23453,2.29738 0.15955,0.94177 -1.17155,3.37703 -2.95799,5.41169 -1.78645,2.03465 -3.24809,4.5837 -3.24809,5.66457 0,1.08086 -0.46583,1.9652 -1.03518,1.9652 -0.6846,0 -0.65359,0.71301 0.0915,2.1053 1.25388,2.3429 0.48543,8.27716 -1.37296,10.6024 -3.20071,4.0048 -6.18851,6.2923 -8.21863,6.2923 -2.97608,0 -7.01398,3.30233 -6.01477,4.91907 0.42722,0.69127 1.73346,1.00072 2.94287,0.69718 1.49788,-0.37595 3.25341,0.37609 5.64091,2.41646 1.90642,1.62926 3.90652,2.81664 4.44466,2.63864 0.53813,-0.178 1.88813,0.52596 3,1.56435 1.47852,1.38081 2.87367,1.72881 5.19359,1.29546 1.76653,-0.32999 3.45427,-0.13584 3.80902,0.43816 0.35035,0.56687 1.3258,1.03068 2.16768,1.03068 1.67251,0 5.26476,3.81262 5.31801,5.64424 0.0183,0.62934 1.44544,2.65434 3.17142,4.5 1.72599,1.84567 3.81159,4.38176 4.63467,5.63576 1.56931,2.3909 2.73404,8.65114 1.46354,7.86629 -0.405,-0.25019 -0.73636,2.43114 -0.73636,5.9585 0,4.88285 -0.31333,6.29362 -1.31295,5.91153 -2.26122,-0.86433 2.4706,4.9625 5.22856,6.43852 1.42141,0.76071 2.58439,2.21465 2.58439,3.23096 0,1.01632 1.96902,3.75278 4.3756,6.08102 2.40658,2.32825 4.6869,5.24568 5.06739,6.48318 0.38048,1.2375 1.07571,2.25 1.54494,2.25 0.46924,0 1.14519,1.3296 1.50211,2.95467 0.35693,1.62507 1.4493,3.20869 2.42749,3.51915 2.20505,0.69986 8.0195,7.80592 10.23871,12.51311 2.27885,4.83371 6.19932,9.01227 8.46011,9.01706 2.22518,0.005 10.38365,8.21503 10.38365,10.44963 0,0.85051 0.47656,1.54638 1.05902,1.54638 0.58246,0 0.81807,0.38986 0.52358,0.86635 -0.29449,0.4765 0.35395,1.67124 1.44098,2.65499 1.08703,0.98375 1.97642,2.39008 1.97642,3.12517 0,0.7351 0.92556,1.90286 2.0568,2.59502 2.97331,1.81925 6.32497,7.64684 6.44055,11.1983 0.20642,6.34289 1.33157,8.13987 5.26239,8.4046 2.00395,0.13496 4.22197,0.72542 4.92892,1.31214 0.70695,0.58672 2.40422,0.78595 3.77171,0.44273 1.95209,-0.48994 2.36165,-0.29906 1.906,0.88833 -0.69392,1.80834 0.75206,1.99394 2.43363,0.31237 0.89752,-0.89752 1.2,-0.90544 1.2,-0.0314 0,0.64273 0.62948,0.92706 1.39885,0.63182 0.76937,-0.29523 1.69592,-0.0561 2.05902,0.53139 0.36309,0.58749 1.11016,1.06817 1.66016,1.06817 0.55,0 0.72189,-0.45 0.38197,-1 -0.33992,-0.55 -0.17898,-1 0.35765,-1 0.53663,0 1.15261,0.53079 1.36886,1.17953 0.21624,0.64873 1.92861,1.28582 3.80525,1.41575 1.87664,0.12992 3.57471,0.72413 3.77349,1.32047 0.44355,1.33064 7.85067,1.44999 8.66057,0.13956 0.35356,-0.57208 2.41177,-0.39458 5.21814,0.45002 3.30351,0.99421 5.18536,1.09979 6.55331,0.36769 1.05545,-0.56487 2.54444,-0.78703 3.30885,-0.4937 0.7644,0.29333 1.66034,0.0956 1.99095,-0.43931 0.33062,-0.53495 0.9218,-0.77445 1.31373,-0.53222 0.39193,0.24223 3.58494,0.70597 7.09557,1.03053 3.51063,0.32456 6.87137,0.97238 7.4683,1.43959 0.59693,0.46721 1.76033,0.85433 2.58533,0.86025 0.825,0.006 2.76506,0.34797 4.31125,0.76009 2.34378,0.62471 2.90162,0.40374 3.35471,-1.3289 0.41083,-1.57099 1.67722,-2.2598 5.18875,-2.82224 2.55491,-0.40922 5.09342,-0.61785 5.64113,-0.46362 1.17263,0.33018 17.47533,0.16069 25.84037,-0.26867 5.63829,-0.28939 8.66379,0.9177 8.66379,3.45661 0,0.51071 0.45,0.92857 1,0.92857 0.55,0 1,-0.51704 1,-1.14898 0,-1.38466 6.08727,-7.35102 7.5,-7.35102 1.27604,0 12.83113,-5.66788 13.51283,-6.62819 0.2821,-0.39733 3.1266,-1.70036 6.3213,-2.89562 7.7295,-2.892 18.0694,-2.25571 21.1915,1.30408 1.5264,1.74035 3.0547,2.29856 6.2003,2.26469 2.296,-0.0247 4.7369,-0.60746 5.4243,-1.29496 0.6874,-0.6875 2.1723,-1.25055 3.2998,-1.25122 1.1275,-6.7e-4 3.3575,-1.12567 4.9555,-2.5 1.5981,-1.37431 3.7144,-2.49876 4.703,-2.49876 2.3451,0 6.8915,-2.085 6.8915,-3.16052 0,-0.46171 1.0553,-0.83948 2.345,-0.83948 1.2898,0 3.1182,-0.85437 4.0632,-1.8986 0.945,-1.04422 5.4023,-3.35841 9.905,-5.14263 8.3151,-3.29487 10.2172,-4.17981 26.1868,-12.18302 4.95,-2.48071 11.3625,-5.33398 14.25,-6.34061 2.8875,-1.00663 5.25,-2.17721 5.25,-2.6013 0,-0.42409 0.6555,-0.51953 1.4567,-0.21209 0.8847,0.33951 2.9461,-1.03631 5.25,-3.50406 3.092,-3.31188 4.5328,-4.09942 7.7933,-4.25976 3.519,-0.17306 12.8752,-3.2994 22,-7.35123 1.65,-0.73268 5.7813,-2.54385 9.1806,-4.02483 3.6684,-1.59823 7.6016,-4.27568 9.6768,-6.58728 1.923,-2.14203 4.4201,-3.89459 5.5492,-3.89459 1.1291,0 3.7495,-0.62454 5.8232,-1.38787 2.0736,-0.76332 5.9077,-2.15054 8.5202,-3.0827 2.6125,-0.93217 4.75,-2.1042 4.75,-2.60453 0,-0.50033 0.9812,-2.03811 2.1803,-3.41729 1.7364,-1.99698 3.1165,-2.50761 6.7775,-2.50761 2.5285,0 5.4848,0.61398 6.5697,1.36439 1.766,1.22153 3.5954,0.58183 17.4725,-6.10957 8.525,-4.11068 16.85,-8.06018 18.5,-8.77667 5.2173,-2.26553 19.5889,-9.52106 31.5,-15.90278 6.325,-3.38882 17.9125,-9.2665 25.75,-13.06151 7.8375,-3.79502 14.25,-7.26314 14.25,-7.70695 0,-0.4438 0.684,-0.80691 1.52,-0.80691 0.836,0 5.5989,-2.04859 10.5844,-4.55241 7.187,-3.60954 9.3576,-4.30909 10.48,-3.37756 2.14475,1.78005 1.70005,4.70709 -0.8344,5.49198 -2.5948,0.80358 -43.7475,21.01411 -45.25,22.22275 -0.55,0.44245 -5.95,3.18558 -12,6.09585 -6.05,2.91027 -12.575,6.14769 -14.5,7.19427 -1.925,1.04658 -5.3939,2.82069 -7.7086,3.94247 -2.3147,1.12178 -4.4788,2.47678 -4.809,3.01112 -0.3302,0.53434 -1.614,0.97153 -2.8529,0.97153 -1.2388,0 -3.1328,0.7875 -4.2088,1.75 -1.076,0.9625 -6.4484,3.91901 -11.9386,6.57003 -5.4901,2.65102 -12.1187,6.25102 -14.7302,8 -4.3609,2.92072 -4.7482,3.51088 -4.75,7.23884 -10e-4,2.23238 -0.614,4.896 -1.3622,5.91915 -1.3241,1.81084 -2.2688,1.93834 -11.3275,1.52879 -1.7532,-0.0793 -5.5782,1.00647 -8.5,2.41273 -2.9217,1.40627 -4.9572,2.56217 -4.5232,2.56866 2.4009,0.0359 -3.4179,3.85856 -6.789,4.45998 -5.0772,0.90581 -16.1724,5.25887 -19.7051,7.73104 -1.4878,1.04116 -6.8878,3.73342 -12,5.9828 -9.469,4.16641 -13.1189,6.50468 -12.2778,7.86564 0.5378,0.8702 -5.3394,3.37082 -10.5171,4.47477 -1.925,0.41043 -4.625,1.51172 -6,2.44731 -1.375,0.93559 -3.9338,2.27234 -5.6862,2.97057 -1.7524,0.69822 -5.1274,3.02044 -7.5,5.16048 -2.3726,2.14004 -4.9208,3.89733 -5.6627,3.90509 -2.5755,0.027 -45.4773,20.84305 -51.7346,25.10182 -3.9905,2.71596 -4.0887,2.92248 -4.3104,9.06606 -0.1247,3.45773 -0.6433,6.78865 -1.1524,7.40203 -0.5091,0.61338 -2.8149,1.18927 -5.124,1.27975 -7.091,0.27785 -19.8297,7.87013 -19.8297,11.81852 0,1.57338 -7.7553,9.8173 -9.3371,9.92544 -0.6396,0.0437 -2.9629,0.59133 -5.1629,1.21691 -2.5303,0.7195 -8.966,0.96133 -17.516,0.65817 l -13.51591,-0.47924 -1.66538,3.26233 c -2.15531,4.22205 -3.10133,7.5382 -3.21286,11.26233 -0.0494,1.65 -0.31485,3.11165 -0.58985,3.24811 -2.8727,1.42547 -7.92852,1.98459 -12.05177,1.33279 -2.83777,-0.44859 -5.24893,-0.40337 -5.56271,0.10433 -0.30461,0.49287 -1.52846,0.58608 -2.71968,0.20713 -3.40386,-1.08283 -13.06852,-0.5222 -15.3256,0.889 -0.63786,0.39882 -1.89213,0.44409 -2.78724,0.1006 -0.91141,-0.34974 -2.46336,0.13193 -3.52723,1.09472 -1.04486,0.94558 -2.32521,1.45629 -2.84522,1.13491 -0.52001,-0.32139 -2.08185,0.30953 -3.47074,1.40204 -1.3889,1.0925 -3.21523,1.98637 -4.05852,1.98637 -0.84329,0 -1.81559,0.45682 -2.16065,1.01515 -0.63086,1.02074 -7.12535,4.25923 -8.99064,4.4832 -0.55,0.066 -3.79967,1.55592 -7.22148,3.31086 -3.42182,1.75493 -6.90932,3.19079 -7.75,3.19079 -0.84069,0 -1.52852,0.47656 -1.52852,1.05902 0,0.58246 -0.47836,0.76337 -1.06301,0.40204 -0.58466,-0.36134 -1.87834,0.0809 -2.87484,0.9827 -0.99651,0.90182 -2.20565,1.56762 -2.68699,1.47954 -2.12247,-0.38838 -3.37516,0.18516 -3.37516,1.54532 0,0.8332 -0.5932,1.24098 -1.37106,0.94248 -0.75408,-0.28936 -1.99158,0.0793 -2.75,0.81927 -0.75842,0.73997 -3.62894,2.17215 -6.37894,3.18262 -2.75,1.01047 -7.7,3.0632 -11,4.56163 -7.72973,3.50981 -11.61243,5.26213 -19.65922,8.87248 -4.06641,1.82447 -7.39249,4.11897 -8.76505,6.04655 -1.95642,2.74753 -2.77479,3.10635 -7.08481,3.10635 -2.68009,0 -5.14672,0.44307 -5.4814,0.9846 -0.74081,1.19865 4.93041,4.86733 8.79649,5.69041 3.06399,0.65232 11.36635,9.97519 12.1769,13.67368 1.60694,7.33238 2.77641,16.0528 2.93974,21.92095 0.16082,5.77821 0.51964,7.00164 2.45006,8.35375 1.2439,0.87127 2.03482,2.17519 1.75761,2.89761 -0.27722,0.72241 0.12112,1.55338 0.88521,1.84659 2.2721,0.87188 5.74614,9.57405 5.10396,12.78496 -0.31322,1.5661 -0.20297,2.84745 0.24499,2.84745 1.21903,0 3.50925,5.2297 3.22283,7.35931 -0.13753,1.02262 0.17075,1.59923 0.68509,1.28136 1.62964,-1.00718 3.25018,4.28254 3.34998,10.93492 0.053,3.53343 0.49716,6.42441 0.987,6.42441 0.48984,0 0.89075,1.0125 0.89092,2.25 1.6e-4,1.2375 1.5837,6.67974 3.51897,12.09386 1.93527,5.41413 3.59175,11.03913 3.68107,12.5 0.0893,1.46088 0.55953,3.18689 1.04492,3.83559 0.48539,0.64869 1.05423,2.53618 1.26409,4.19441 0.20986,1.65823 1.21947,4.84271 2.24357,7.07661 1.07583,2.34674 1.81253,6.06463 1.74482,8.80559 -0.0644,2.60917 0.32017,5.0406 0.85472,5.40319 0.57461,0.38977 0.27834,1.35281 -0.7248,2.35595 -1.02634,1.02634 -1.36215,2.1487 -0.84995,2.84075 0.46571,0.62923 0.81875,1.98252 0.78452,3.00731 -0.0478,1.43147 -0.98376,1.94652 -4.03878,2.22252 -2.18711,0.19759 -5.2273,0.87734 -6.75599,1.51054 -1.52869,0.63321 -4.06112,0.89495 -5.62762,0.58165 -1.56649,-0.3133 -3.34266,-0.0752 -3.94703,0.52922 -0.60437,0.60437 -3.9325,1.23383 -7.39584,1.39879 -10.94975,0.52155 -13.94779,1.02096 -14.8694,2.47697 -1.42655,2.25375 -1.07473,5.37872 0.84197,7.47849 1.27491,1.39668 1.7433,3.47595 1.67567,7.43856 -0.0619,3.62903 0.51748,6.54573 1.70328,8.57406 0.98844,1.69074 2.31195,5.51574 2.94114,8.5 0.62919,2.98427 1.61509,6.01082 2.1909,6.72568 1.55133,1.92596 1.66905,7.48059 0.19499,9.20026 -1.06071,1.23744 -0.91816,2.28768 0.81439,6 1.1551,2.475 2.5749,4.83061 3.15513,5.23469 0.58023,0.40408 0.74222,0.74158 0.35999,0.75 -0.63609,0.014 1.39617,5.13149 6.16145,15.51531 5.76901,12.571 6.52682,16.23678 4.41817,21.37212 -0.76156,1.85467 -1.38742,4.32967 -1.39081,5.5 -0.003,1.17034 -0.67839,3.41682 -1.5,4.99219 -0.82161,1.57537 -1.49384,3.5037 -1.49384,4.28518 0,0.78148 -0.66236,2.43177 -1.47192,3.66731 -1.74288,2.65997 -0.70085,8.1832 1.54387,8.1832 1.86001,0 4.20812,2.23782 3.51866,3.35339 -0.2953,0.4778 0.35734,3.41301 1.4503,6.52268 1.94025,5.52035 2.54635,13.33212 1.61938,20.87129 -0.25342,2.06105 -0.11955,3.53648 0.29748,3.27874 0.41704,-0.25774 1.60964,1.20595 2.65024,3.25264 1.04059,2.04669 2.18172,3.85534 2.53583,4.01921 0.35411,0.16387 0.43533,1.0953 0.18048,2.06985 -0.25485,0.97455 0.24292,2.35808 1.10616,3.0745 0.86323,0.71642 1.56952,2.35132 1.56952,3.63309 0,1.28178 0.51324,3.58918 1.14053,5.12756 0.62729,1.53838 1.69877,4.14705 2.38106,5.79705 0.68228,1.65 1.79524,5.38882 2.47323,8.30848 0.678,2.91967 2.22264,6.51967 3.43254,8 2.94569,3.60412 8.57264,13.81347 8.57264,15.55393 0,0.76598 0.66309,1.94302 1.47354,2.61563 0.81044,0.67261 1.76052,2.75271 2.11129,4.62244 0.35076,1.86974 1.03767,3.39952 1.52646,3.39952 0.48879,0 0.88871,1.02487 0.88871,2.27749 0,1.99497 2.21416,6.27096 3.99881,7.72251 0.33811,0.275 1.16125,1.85377 1.8292,3.50837 0.66795,1.65461 2.7799,4.71715 4.69322,6.80565 1.91333,2.08851 3.47877,4.22224 3.47877,4.74163 0,0.51939 0.35298,0.94435 0.78439,0.94435 0.43142,0 1.59551,1.37311 2.58688,3.05136 2.10865,3.56967 21.72291,23.1878 22.45313,22.45757 0.27292,-0.27291 1.14576,0.43116 1.93966,1.56461 0.7939,1.13344 2.07176,1.8197 2.83969,1.52502 0.8044,-0.30868 1.39625,0.0867 1.39625,0.93282 0,1.40259 0.41627,1.64192 3.25,1.86862 0.6875,0.055 1.7,0.59522 2.25,1.2005 0.55,0.60527 3.7,2.14237 7,3.41577 8.19085,3.16068 14.94886,6.57545 16.92598,8.55257 0.90602,0.90601 2.75549,1.71117 4.10995,1.78923 1.35446,0.0781 2.46298,0.52757 2.46336,0.99892 3.9e-4,0.47134 0.6613,0.6035 1.46868,0.29367 0.80739,-0.30982 1.73849,-0.12563 2.0691,0.40933 0.33062,0.53495 1.02003,0.71374 1.53203,0.3973 0.51199,-0.31643 0.9309,-0.13452 0.9309,0.40424 0,0.53876 1.35,1.27607 3,1.63847 1.65,0.3624 3,1.02188 3,1.46551 0,0.44364 1.6875,1.5903 3.75,2.54815 2.0625,0.95785 4.4886,2.38461 5.3913,3.17057 0.9027,0.78597 2.7218,1.54423 4.0423,1.68502 1.3206,0.14079 2.8749,0.54886 3.4541,0.90683 0.5792,0.35796 3.0181,0.96506 5.4198,1.3491 5.5426,0.8863 11.918,6.50877 12.2301,10.78567 0.195,2.67294 -0.278,3.11574 -5.7876,5.41765 -6.7389,2.81552 -9.7128,2.93398 -33.5,1.33438 -8.07882,-0.54327 -16.7142,-1.70427 -19.5,-2.6217 -5.50126,-1.81169 -32.91117,-2.64117 -35.44893,-1.07274 -0.75902,0.4691 -2.54352,0.95988 -3.96555,1.09062 -3.18162,0.29251 -11.38424,1.26495 -16.08552,1.90698 -8.47399,1.15724 -11.09931,1.41378 -21.16079,2.06776 l -10.66078,0.69294 -2.55058,-3.86337 c -4.69351,-7.10928 -5.33492,-14.3675 -2.61903,-29.63724 0.72727,-4.089 0.8849,-8.25075 0.3977,-10.5 -0.4439,-2.04937 -0.83933,-4.17613 -0.87871,-4.72613 -0.14369,-2.00634 -2.79365,-7.5 -3.61775,-7.5 -0.46601,0 -0.58827,-0.675 -0.27169,-1.5 0.31659,-0.825 0.12148,-1.5 -0.43356,-1.5 -0.55504,0 -1.51944,-1.2375 -2.14313,-2.75 -2.88703,-7.00139 -6.97579,-13.55469 -11.56168,-18.5306 -2.75,-2.98388 -6.8,-7.51942 -9,-10.07896 -2.2,-2.55955 -7.7125,-8.51719 -12.25,-13.23919 -4.5375,-4.722 -8.25,-8.99401 -8.25,-9.49335 0,-0.49935 -0.525,-0.9079 -1.16667,-0.9079 -0.64166,0 -0.86806,-0.29861 -0.5031,-0.66357 0.36497,-0.36496 -0.60738,-1.82746 -2.16076,-3.25 -1.55339,-1.42254 -4.32768,-4.83643 -6.16509,-7.58643 -1.83741,-2.75 -5.09322,-7.025 -7.23513,-9.5 -5.33164,-6.16077 -5.76925,-6.76439 -5.76925,-7.95779 0,-0.57322 -0.45,-1.04221 -1,-1.04221 -0.55,0 -1.00112,-0.7875 -1.0025,-1.75 -0.002,-1.25405 -2.526,-2.81275 -8.90693,-5.5 -4.89744,-2.0625 -9.34817,-3.75 -9.89051,-3.75 -0.54235,0 -1.2529,-0.69532 -1.57901,-1.54515 -0.32612,-0.84984 -2.06176,-2.16298 -3.85699,-2.9181 -1.79523,-0.75511 -4.55443,-2.7271 -6.13154,-4.38219 -1.57711,-1.65508 -4.14876,-3.53997 -5.71478,-4.18863 -1.82078,-0.7542 -3.98889,-3.21391 -6.01382,-6.82266 -1.74158,-3.1038 -5.46993,-7.94283 -8.28522,-10.75341 -2.81528,-2.81058 -6.41952,-6.54976 -8.00942,-8.30928 -1.58989,-1.75953 -3.23521,-2.83497 -3.65625,-2.38986 -0.42105,0.4451 -1.02927,3.28428 -1.3516,6.30928 -0.93164,8.74305 -1.28552,10.47614 -5.20687,25.5 -0.43066,1.65 -0.80812,3.45 -0.83879,4 -0.0307,0.55 -0.28751,1.225 -0.57075,1.5 -0.28324,0.275 -2.98324,4.32158 -6,8.9924 -6.30297,9.75882 -7.64512,11.46844 -14.48502,18.45096 -2.75,2.80733 -5.77282,6.21854 -6.71739,7.58044 -0.94456,1.36191 -4.00755,4.9512 -6.80665,7.9762 -2.79909,3.025 -7.12332,8.5375 -9.6094,12.25 -2.48608,3.7125 -4.93559,6.75 -5.44336,6.75 -0.50776,0 -0.9232,0.92656 -0.9232,2.05902 0,1.27566 -0.42981,1.79338 -1.12973,1.3608 -0.66771,-0.41266 -0.9526,-0.1668 -0.69661,0.60116 0.23822,0.71466 -1.27388,3.04086 -3.36022,5.16935 -2.08634,2.12848 -3.74457,4.1939 -3.68497,4.58982 0.3649,2.42383 -0.77771,3.55537 -6.37847,6.31668 -14.56288,7.17984 -19.03026,8.21221 -27.8947,6.44621 -2.20007,-0.43831 -4.47422,-0.28217 -5.7375,0.39392 -2.26698,1.21325 -8.40461,10.22311 -9.63405,14.1425 -0.4176,1.3313 -1.75679,4.67054 -2.97598,7.42054 -3.22413,7.27235 -3.42291,7.98902 -4.10536,14.80131 -0.34155,3.40928 -1.15275,7.77369 -1.80267,9.69869 -0.92269,2.73288 -0.89931,4.88318 0.10666,9.81084 0.70859,3.47096 1.73953,7.15387 2.29097,8.18425 2.61955,4.89466 0.23753,27.72893 -3.32882,31.91047 -1.36824,1.60426 -1.54576,5.31095 -0.38766,8.09444 0.34325,0.825 0.75797,2.4 0.9216,3.5 0.16363,1.1 0.81233,2.45 1.44156,3 2.34414,2.04899 3.04347,10.34912 2.02211,24.00004 -0.2469,3.3 -0.4978,7.2054 -0.55754,8.6786 -0.0597,1.4732 -0.6963,3.2732 -1.41457,4 -0.71828,0.7268 -1.60416,2.1089 -1.96862,3.0714 -0.38476,1.0161 -1.6995,1.75 -3.13503,1.75 -1.3598,0 -2.75048,0.45 -3.0904,1 -0.85698,1.3866 -6.84337,1.2566 -8.27979,-0.1798 -0.9064,-0.9064 -1.70589,-0.9029 -3.45,0.015 -4.12423,2.1706 -8.49932,3.0356 -9.63085,1.9041 z m 25.58831,-606.46318 c -0.3428,-3.04132 0.008,-6.07426 0.98479,-8.51564 1.29849,-3.24525 1.32212,-4.2582 0.16395,-7.02627 -1.31447,-3.14161 -1.48834,-3.70419 -1.75141,-5.66696 -0.24924,-1.85956 -4.06818,-2.15073 -6.58442,-0.50202 -2.0568,1.34767 -2.84002,1.43101 -4.04559,0.43048 -0.82224,-0.68241 -1.49499,-1.86064 -1.49499,-2.61829 0,-0.75766 -0.7875,-1.3769 -1.75,-1.37608 -3.35036,0.003 -12.95345,-5.41965 -14.56215,-8.22265 -2.06216,-3.59311 -3.26054,-3.50584 -5.27201,0.38392 -2.82513,5.4632 -0.61044,13.83725 3.65955,13.83725 3.0448,0 6.64275,2.08597 7.7358,4.48495 0.76167,1.6717 2.20844,2.44087 5.52725,2.93855 3.33913,0.50074 4.96034,1.36897 6.30255,3.37532 0.99386,1.48565 1.83918,3.15118 1.87847,3.70118 0.0393,0.55 0.61349,0.8875 1.27599,0.75 0.6625,-0.1375 1.20455,0.16968 1.20455,0.68261 0,0.51294 0.9,1.21826 2,1.56739 1.40104,0.44467 2,1.51303 2,3.56739 0,2.04409 0.49387,2.93261 1.63005,2.93261 1.35183,0 1.53918,-0.80627 1.09762,-4.72374 z m 205.23134,-1.47302 c 2.49633,-1.07004 5.88927,-2.97359 7.53988,-4.2301 3.77608,-2.87451 11.38613,-6.85084 13.94877,-7.28838 1.07121,-0.1829 2.68206,-0.99717 3.57967,-1.8095 0.89762,-0.81232 4.52117,-2.64937 8.05235,-4.08231 3.53117,-1.43295 6.64532,-2.89962 6.92032,-3.25927 0.275,-0.35965 3.09497,-1.94429 6.26659,-3.52142 5.16571,-2.56871 5.58367,-3.00127 4.01103,-4.15121 -0.96556,-0.70603 -2.09803,-1.07205 -2.51659,-0.81336 -0.41857,0.25869 -0.76068,0.10629 -0.76025,-0.33867 9.3e-4,-0.98034 -8.29653,-0.8623 -9.9201,0.14111 -1.69215,1.04582 -19.46639,0.34926 -20.23733,-0.79308 -0.41069,-0.60855 -2.94411,-0.33116 -6.76382,0.7406 l -6.10719,1.71359 -4.51156,-3.69689 c -2.48137,-2.03329 -4.77871,-3.42975 -5.10522,-3.10324 -0.32651,0.32651 -1.24723,-0.0599 -2.04604,-0.85873 -0.79881,-0.79881 -2.2511,-1.45238 -3.22731,-1.45238 -3.09001,0 -8.08221,-3.058 -8.08221,-4.9508 0,-2.37761 -1.91242,-3.83394 -5,-3.80758 -1.76315,0.0151 -3.38422,1.23524 -5.5,4.13987 -3.96515,5.4435 -3.95807,5.41397 -1.38764,5.79141 2.12988,0.31275 6.5755,6.47258 5.46953,7.57855 -0.28134,0.28133 -0.11047,1.26089 0.37971,2.1768 0.49018,0.91591 1.14919,3.85863 1.46447,6.53939 0.31528,2.68076 1.24839,5.62015 2.07358,6.53198 0.82519,0.91182 1.50035,2.53127 1.50035,3.59876 0,1.0675 2.11674,4.31017 4.70386,7.20594 5.24191,5.86727 5.99918,5.9665 15.25515,1.99892 z m 202.00469,-94.25944 c 1.676,-2.01957 0.3217,-3.76443 -2.2979,-2.96025 -2.9897,0.91785 -3.1278,1.15479 -1.6859,2.89228 1.5795,1.90307 2.4484,1.9179 3.9838,0.068 z"
     id="path2987"
     inkscape:connector-curvature="0" />
</svg>
