<?xml version="1.0" encoding="UTF-8" standalone="no"?>
<!-- Created with Inkscape (http://www.inkscape.org/) -->

<svg
   xmlns:dc="http://purl.org/dc/elements/1.1/"
   xmlns:cc="http://creativecommons.org/ns#"
   xmlns:rdf="http://www.w3.org/1999/02/22-rdf-syntax-ns#"
   xmlns:svg="http://www.w3.org/2000/svg"
   xmlns="http://www.w3.org/2000/svg"
   xmlns:sodipodi="http://sodipodi.sourceforge.net/DTD/sodipodi-0.dtd"
   xmlns:inkscape="http://www.inkscape.org/namespaces/inkscape"
   id="svg2"
   version="1.1"
   inkscape:version="0.48.2 r9819"
   width="561.78821"
   height="1257.5909"
   sodipodi:docname="everydaylifeinpr00quenuoft_0199f.svg">
  <metadata
     id="metadata8">
    <rdf:RDF>
      <cc:Work
         rdf:about="">
        <dc:format>image/svg+xml</dc:format>
        <dc:type
           rdf:resource="http://purl.org/dc/dcmitype/StillImage" />
        <dc:title></dc:title>
      </cc:Work>
    </rdf:RDF>
  </metadata>
  <defs
     id="defs6" />
  <sodipodi:namedview
     pagecolor="#ffffff"
     bordercolor="#666666"
     borderopacity="1"
     objecttolerance="10"
     gridtolerance="10"
     guidetolerance="10"
     inkscape:pageopacity="0"
     inkscape:pageshadow="2"
     inkscape:window-width="1920"
     inkscape:window-height="1176"
     id="namedview4"
     showgrid="false"
     fit-margin-top="0"
     fit-margin-left="0"
     fit-margin-right="0"
     fit-margin-bottom="0"
     inkscape:zoom="0.74213836"
     inkscape:cx="290.14616"
     inkscape:cy="615.75544"
     inkscape:window-x="0"
     inkscape:window-y="24"
     inkscape:window-maximized="1"
     inkscape:current-layer="svg2" />
  <path
     style="fill:#000000"
     d="m 54.342778,1255.9069 c -0.89667,-0.9908 -1.61647,-3.1283 -1.59955,-4.75 0.0169,-1.6217 -0.4583,-5.4235 -1.05604,-8.4485 -0.59774,-3.025 -1.29667,-9.5228 -1.55318,-14.4396 -0.48256,-9.25 -1.34304,-11.0219 -4.82564,-9.9369 -3.6275,1.13 -10.72309,-1.8201 -15.71114,-6.5323 -2.67302,-2.5252 -4.95408,-5.2662 -5.06902,-6.0912 -0.23781,-1.7069 1.04204,-12.5787 1.80174,-15.3052 0.81181,-2.9136 8.10112,-7.5375 13.05292,-8.28 l 4.55468,-0.683 -0.73765,-8.6159 c -0.40571,-4.7388 -0.90241,-9.9659 -1.10377,-11.6159 -0.20137,-1.65 -0.63442,-7.725 -0.96233,-13.5 -0.32791,-5.775 -0.99492,-12.075 -1.48224,-14 -0.48732,-1.925 -1.13626,-13.85 -1.4421,-26.5 -0.30584,-12.65 -0.86554,-33.35 -1.24377,-46 -0.37823,-12.65 -0.75173,-25.25 -0.82999,-28 -0.0783,-2.75 -0.66834,-16.25 -1.31129,-30.0001 -0.64294,-13.74997 -1.37798,-29.49997 -1.63341,-34.99997 -0.25543,-5.5 -0.75847,-18.325 -1.11786,-28.5 -0.35939,-10.175 -0.75794,-20.75 -0.88567,-23.5 -2.07834,-44.74776 -2.7108,-159.92465 -0.91741,-167.07007 0.74563,-2.97084 -2.03648,-5.42993 -6.14319,-5.42993 -5.83018,0 -7.19583,-6.42642 -1.60346,-7.54548 5.19888,-1.04033 7.4829,-1.97446 7.90018,-3.23108 0.31951,-0.9622 -0.5722,-1.11728 -3.62108,-0.62974 -6.26495,1.00181 -9.0267,-0.12357 -10.97332,-4.47149 -1.09814,-2.45278 -2.29151,-3.72107 -3.35446,-3.56507 -2.5523701,0.37461 -5.8116201,-3.2868 -5.8116201,-6.52871 0,-2.01427 -0.60709,-3.08634 -1.99767,-3.52769 -2.65342,-0.84216 -3.39913,-4.3058 -2.65958,-12.35306 0.43797,-4.76574 0.1716,-7.91652 -0.94092,-11.12966 -1.77549997,-5.12798 -1.39553997,-10.2928 1.62855,-22.137 1.08329,-4.24283 1.96962,-8.87586 1.96962,-10.29561 0,-1.62341 1.39163,-4.02759 3.75,-6.4785 4.1623701,-4.32569 7.1243401,-5.9954 15.2500001,-8.59668 6.6843,-2.13985 10.29581,-5.08893 9.06003,-7.39822 -0.47445,-0.88661 -1.18144,-3.73819 -1.5711,-6.33684 -0.60702,-4.04831 -0.3338,-5.36415 1.90815,-9.18976 2.30385,-3.93122 3.14026,-4.54344 6.99739,-5.12185 5.10105,-0.76495 8.81776,1.11238 11.15665,5.63528 1.84296,3.5639 1.83005,6.56936 -0.0511,11.90116 -0.825,2.3383 -1.5,5.09488 -1.5,6.12573 0,3.09958 1.79351,2.11069 2.49511,-1.37573 0.35972,-1.7875 1.3735,-4.825 2.25284,-6.75 1.57455,-3.4469 2.15558,-5.60437 4.17426,-15.5 1.25092,-6.13206 2.86214,-11.87345 4.63044,-16.5 1.72449,-4.51193 3.60358,-13.93818 2.97975,-14.94757 -0.26528,-0.42923 0.37689,-2.5588 1.42705,-4.73237 1.05015,-2.17357 3.03222,-8.19727 4.4046,-13.386 4.31817,-16.32635 5.79817,-21.40369 6.539344,-22.43406 0.39562,-0.55 0.60165,-2.35 0.45784,-4 -1.490484,-17.10141 -1.537024,-19.96724 -0.38697,-23.83139 2.74633,-9.22762 4.21388,-11.5108 10.01373,-15.57917 3.15417,-2.21252 8.1597,-6.64984 11.12342,-9.86071 4.414268,-4.78238 5.931008,-7.42695 8.388578,-14.62615 2.62342,-7.68504 3.49598,-9.12244 6.95115,-11.45083 3.8199,-2.57416 7.94688,-9.02509 13.53183,-21.15175 2.69076,-5.84248 3.6657,-7.52067 8.76702,-15.09083 2.90846,-4.31605 4.25,-7.369 4.25,-9.67178 0,-2.41586 0.77564,-4.04942 2.75,-5.79175 10.54572,-9.30636 11.25,-10.16438 11.25,-13.70587 0,-1.92254 -0.61685,-5.01298 -1.37077,-6.86765 -1.46732,-3.6096 -1.2662,-10.81341 0.38819,-13.90466 0.55527,-1.03754 2.49387,-2.59078 4.30799,-3.45164 6.39292,-3.03363 12.31778,-10.4355 19.22866,-24.02216 3.63509,-7.14651 7.20817,-13.66866 7.94018,-14.49366 1.34732,-1.51848 5.93996,-9.76845 10.02035,-18 1.22686,-2.475 3.25654,-8.55 4.5104,-13.5 1.25386,-4.95 3.08067,-10.8 4.05958,-13 0.97892,-2.2 2.01385,-4.76828 2.29986,-5.7073 0.28601,-0.93901 2.34385,-2.85863 4.57298,-4.26582 4.56325,-2.88065 9.3889,-9.01619 11.05004,-14.04948 0.97632,-2.95827 2.40021,-4.00566 11.78807,-8.67105 5.87269,-2.91849 11.02117,-5.3626 11.44105,-5.43135 0.41988,-0.0688 3.60241,-0.18125 7.07229,-0.25 3.46988,-0.0688 7.01716,-0.6875 7.88285,-1.375 0.8657,-0.6875 1.8065,-3.14472 2.09068,-5.46049 0.48591,-3.95969 0.31127,-4.3317 -2.93188,-6.2452 -5.0344,-2.97037 -6.44611,-7.2515 -6.20958,-18.83097 0.18022,-8.82257 0.44309,-10.03431 2.86643,-13.21334 1.4674,-1.925 3.19105,-4.48292 3.83032,-5.68426 2.47726,-4.65536 0.66739,-13.53195 -3.79541,-18.61481 -2.67403,-3.04554 -2.81606,-3.65004 -2.31736,-9.86273 0.39749,-4.95198 0.12134,-7.44002 -1.09683,-9.8819 -2.20037,-4.41074 -2.06497,-13.30423 0.29718,-19.51902 1.25763,-3.30882 1.60919,-5.56064 1.01481,-6.5 -1.462,-2.31051 -1.09342,-3.08432 1.30992,-2.75014 2.18106,0.30327 2.25232,0.0446 2.32579,-8.4435 l 0.0758,-8.75635 -5.93075,-6.99365 c -3.26192,-3.8465 -6.33353,-6.99364 -6.8258,-6.99364 -0.49227,0 -0.89504,-0.46882 -0.89504,-1.04181 0,-0.573 -0.95847,-2.0355 -2.12994,-3.25 -1.17146,-1.21451 -4.54095,-5.80819 -7.48775,-10.20819 -2.94681,-4.4 -6.80368,-10.024997 -8.57084,-12.499997 -6.50968,-9.117175 -13.81147,-20.289294 -13.81147,-21.132282 0,-0.477245 -1.0882,-0.867718 -2.41821,-0.867718 -3.93703,0 -5.48756,-1.002694 -8.64333,-5.589449 -3.21907,-4.678749 -3.22724,-8.664897 -0.0228,-11.128748 3.52536,-2.710613 10.75147,-1.149416 14.15934,3.059116 1.31159,1.619756 3.09525,2.124827 8.5414,2.418634 3.78599,0.204246 7.55862,0.637876 8.38362,0.963621 0.825,0.325746 1.99278,0.517575 2.59507,0.426287 0.60228,-0.09129 2.33143,0.979846 3.84254,2.380297 1.79842,1.66672 3.40109,2.338825 4.63966,1.945718 1.19764,-0.380117 3.12538,0.340047 5.25185,1.961984 1.84781,1.409397 4.04959,2.56254 4.89283,2.56254 0.84324,0 2.04835,0.620768 2.67803,1.379485 0.62968,0.758717 2.49629,1.649768 4.14801,1.980114 1.65173,0.330346 4.1371,1.734577 5.52303,3.120515 1.38592,1.385937 3.07429,2.519886 3.75191,2.519886 0.67762,0 2.31226,0.756618 3.63254,1.681374 1.32027,0.924756 3.49909,1.729467 4.84182,1.788245 1.34274,0.05878 3.24727,1.102161 4.2323,2.318626 0.98504,1.216465 2.90386,2.211755 4.26405,2.211755 1.64127,0 2.65097,0.68028 3.00199,2.022568 0.71162,2.721239 5.42998,2.403269 12.70435,-0.856146 5.71173,-2.559243 15.71315,-4.98997 29.58884,-7.191215 6.2463,-0.990915 8.85074,-1.01762 11.43358,-0.117235 3.54777,1.236759 5.48939,0.09417 4.48618,-2.639985 -0.49155,-1.33967 3.76714,-3.539263 6.6305,-3.424619 1.03663,0.0415 1.85443,-1.011214 2.22503,-2.863871 0.4352,-2.175989 1.1528,-2.929497 2.7899,-2.929497 1.2552,0 3.6306,-1.557547 5.5183,-3.618382 2.3533,-2.569207 3.8961,-3.466224 5.321,-3.09362 1.2606,0.329669 2.0067,0.0339 2.0067,-0.795552 0,-0.726173 3.0375,-3.007005 6.75,-5.068515 9.5689,-5.313519 18.4294,-11.41575 20.6517,-14.222892 1.0459,-1.32118 3.9229,-3.268564 6.3933,-4.327521 2.4705,-1.058956 6.3658,-3.19018 8.6564,-4.736052 2.2905,-1.545872 5.5991,-3.097569 7.3523,-3.448216 1.7533,-0.350647 4.3882,-1.424147 5.8555,-2.385555 1.4673,-0.961409 3.8995,-1.6188237 5.4049,-1.4609207 1.6906,0.177334 3.444,-0.44857 4.5864,-1.637139 1.0172,-1.058329 4.5618,-3.410114 7.8769,-5.226189 5.6404,-3.089933 6.2159,-3.211337 8.9641,-1.8907 4.4649,2.145603 5.4636,6.887554 2.3985,11.3882087 -1.3145,1.930158 -2.9023,3.512454 -3.5283,3.516212 -1.0659,0.0064 -7.3218,9.114615 -11.681,17.006833 -1.0633,1.925 -3.1139,5.076777 -4.557,7.003948 -2.9462,3.934609 -3.9128,5.461431 -7.753,12.246052 -1.4787,2.6125 -3.0671,4.75 -3.5297,4.75 -0.4625,0 -0.841,0.675 -0.841,1.5 0,0.825 -0.7875,2.296739 -1.75,3.27053 -0.9625,0.973792 -2.875,3.984534 -4.25,6.690538 -1.375,2.706004 -3.8693,6.296765 -5.5428,7.97947 -2.9448,2.960971 -4.1344,4.5439 -9.4572,12.584709 -8.1019,12.23887 -9.7385,14.80783 -11.451,17.97475 -1.0409,1.925 -2.4816,3.85498 -3.2014,4.28884 -0.7199,0.43386 -2.4687,2.76807 -3.8864,5.18714 -2.3794,4.06014 -2.4671,4.61457 -1.1402,7.21116 3.2465,6.3533 4.2876,29.62015 1.714,38.30626 -1.1966,4.03872 -1.3376,10.05311 -0.2697,11.5066 0.4041,0.55 1.6347,1.49315 2.7347,2.0959 3.7802,2.07134 5.0323,9.32749 2.8758,16.66507 -0.2847,0.96853 -1.7442,2.39527 -3.2434,3.17054 -2.6041,1.34663 -2.7173,1.72014 -2.536,8.36465 0.1044,3.82529 0.4998,7.93153 0.8785,9.12497 0.5524,1.74042 -0.614,3.62545 -5.8931,9.52394 -4.321,4.82795 -6.5818,8.19649 -6.5818,9.8066 0,3.71085 3.9243,8.74166 9.4718,12.14229 4.3071,2.64031 5.9782,3.06343 12.5,3.16495 12.7116,0.19789 16.7703,1.26192 23.0605,6.04573 l 5.6883,4.32594 0.5253,6.54444 c 0.589,7.33701 1.6093,9.11462 5.7541,10.02498 1.574,0.34571 3.398,1.27463 4.0533,2.06428 0.6554,0.78965 1.7917,1.43572 2.5251,1.43572 0.7335,0 3.5742,1.32115 6.3128,2.93589 2.7386,1.61473 7.3709,3.70315 10.294,4.64093 2.9231,0.93778 6.0962,2.09163 7.0512,2.56412 0.955,0.47248 2.6305,0.85906 3.7233,0.85906 1.7454,0 4.3953,1.02382 13.8767,5.36157 6.1991,2.83608 11.0519,13.94685 9.4939,21.7369 -0.4147,2.07317 -0.1878,2.9059 0.7947,2.91684 1.1531,0.0128 1.156,0.15409 0.018,0.87543 -1.3501,0.85545 -0.4835,1.87159 19.6074,22.9901 2.8875,3.03518 5.25,5.91543 5.25,6.40054 0,0.83871 6.2212,9.09936 8.4489,11.21862 1.8506,1.76058 9.5511,13.52472 9.5511,14.59138 0,0.56573 1.5482,3.05614 3.4403,5.53424 1.8922,2.4781 4.4254,7.5136 5.6293,11.19001 1.204,3.6764 2.7461,7.35937 3.4269,8.18437 0.6809,0.825 1.5306,4.1207 1.8882,7.32378 0.3576,3.20308 1.3173,7.42053 2.1327,9.37212 0.8155,1.95159 1.4992,5.63089 1.5194,8.17622 0.043,5.36874 4.1335,25.97633 5.6407,28.41512 0.3922,0.63448 1.0404,11.29191 1.4405,23.68318 1.3288,41.1551 2.9089,85.32179 3.6501,102.02958 0.4025,9.075 0.4753,65.325 0.1616,125 -0.4994,95.02434 -0.7805,109.8662 -2.2633,119.5 -1.802,11.70794 -5.522,23.07826 -9.1607,28 -1.2198,1.65 -2.5262,3.97539 -2.903,5.16754 -1.37,4.33432 -4.603,7.33176 -7.9253,7.34777 -4.4275,0.0213 -5.4536,0.92344 -7.0378,6.18722 -2.3185,7.70388 -3.8324,10.35366 -7.1624,12.53652 -1.7548,1.15032 -4.6089,4.60463 -6.3424,7.67622 -1.7336,3.0716 -3.7344,5.58473 -4.4463,5.58473 -1.4151,0 -8.6346,4.92872 -12.8392,8.76524 -2.4294,2.21673 -2.5403,2.64064 -1.3283,5.07672 1.6343,3.28516 7.1175,20.40652 8.0546,25.15045 0.9727,4.92436 6.7417,22.63867 9.1212,28.00759 2.7905,6.29622 5.8504,14.69303 7.2882,20 0.6706,2.475 2.0733,6.9025 3.1171,9.839 1.0439,2.9364 1.9296,6.3114 1.9682,7.49997 0.068,2.1048 0.095,2.109 1.0139,0.161 0.8167,-1.73117 0.8946,-1.63827 0.5795,0.6914 -0.6432,4.7563 4.0232,20.8724 6.9187,23.8947 1.925,2.0092 2.4284,3.3046 1.9141,4.925 -0.5517,1.7383 0.026,2.7957 2.7615,5.0501 1.9027,1.5683 4.7605,5.4285 6.3507,8.5783 2.6162,5.1817 2.8637,6.5317 2.6015,14.186 -0.3063,8.9381 -2.0215,14.1091 -6.4952,19.5811 -2.1255,2.5997 -3.001,2.9116 -8.2956,2.9548 -7.0991,0.058 -11.7026,-1.9433 -17.7836,-7.7311 -6.841,-6.5114 -10.2124,-13.825 -9.7774,-21.2106 0.1398,-2.3739 -0.3662,-3.33 -2.2063,-4.1683 -2.5738,-1.1728 -3.8662,-5.1173 -2.4851,-7.5852 0.5845,-1.0443 -0.2482,-3.4038 -2.6436,-7.4909 -1.9233,-3.2815 -5.8224,-11.7509 -8.6648,-18.8208 -2.8424,-7.0699 -5.9984,-14.04897 -7.0133,-15.50887 -1.0149,-1.4599 -1.8561,-3.2599 -1.8692,-4 -0.044,-2.4745 -15.7013,-36.00494 -16.1875,-34.66578 -0.2635,0.7261 -0.085,4.92018 0.3971,9.32018 0.4819,4.4 1.0641,11.825 1.2937,16.5 0.9743,19.83807 1.3257,29.02017 1.4351,37.50007 0.08,6.2111 0.4165,8.5352 1.0855,7.5 0.8384,-1.2974 0.9715,-1.2748 0.9847,0.1667 0.01,0.9166 -0.5116,1.8423 -1.1556,2.0569 -1.4921,0.4974 -1.6895,35.951 -0.2979,53.5025 0.5666,7.1458 0.6022,13.0489 0.086,14.2064 -0.486,1.0892 -2.6236,3.1862 -4.7503,4.6599 -3.9808,2.7587 -4.7422,5.3257 -2.9389,9.9076 0.8143,2.0687 -0.6094,6.5 -2.0882,6.5 -0.4617,0 -0.8395,0.45 -0.8395,1 0,0.55 0.6405,1 1.4233,1 0.7828,0 2.7661,1.1299 4.4073,2.5109 1.6413,1.3811 5.8383,3.5811 9.3267,4.8891 7.6861,2.8817 7.9836,3.835 4.4187,14.1582 -1.4168,4.1027 -2.576,8.1093 -2.576,8.9036 0,0.7943 -0.5222,2.5903 -1.1605,3.9911 -0.9169,2.0123 -1.9142,2.5637 -4.75,2.626 -1.9742,0.043 -3.0242,0.3069 -2.3333,0.5855 0.6909,0.2785 1.0081,0.9079 0.7049,1.3985 -1.3864,2.2433 11.6217,18.03 20.2375,24.5604 3.0199,2.2889 6.894,12.917 5.8831,16.1395 -0.2998,0.9555 0.07,4.0568 0.8209,6.8918 1.5638,5.901 1.3932,22.9898 -0.2603,26.0795 -0.5862,1.0954 -2.5456,2.5561 -4.3541,3.246 -1.8085,0.6899 -4.6382,1.8394 -6.2882,2.5543 -1.65,0.715 -4.8,1.6215 -7,2.0144 -2.2,0.3929 -4.8126,1.1345 -5.8057,1.6478 -0.9932,0.5134 -6.3932,1.0464 -12,1.1845 -6.7169,0.1654 -11.8771,0.8602 -15.1275,2.0368 -7.1268,2.5799 -15.8511,3.6148 -20.3057,2.4087 -5.2849,-1.4309 -7.9809,-4.2451 -11.989,-12.5152 -1.9162,-3.9537 -4.7957,-8.6577 -6.3989,-10.4534 -1.6031,-1.7956 -3.3976,-5.0858 -3.9876,-7.3114 -0.5901,-2.2256 -1.4868,-4.8377 -1.9927,-5.8046 -0.5236,-1.0007 -0.6644,-8.8298 -0.3269,-18.1762 0.5485,-15.1906 0.4374,-16.7697 -1.4866,-21.1191 -1.189,-2.6881 -2.0794,-6.8119 -2.0794,-9.631 0,-8.6881 -1.6598,-13.1137 -5.7534,-15.3411 -2.3215,-1.2631 -3.898,-2.9978 -4.3754,-4.8146 -0.9027,-3.4349 0.6688,-7.3065 3.2386,-7.9785 1.0264,-0.2684 2.2879,-1.5974 2.8035,-2.9534 0.5155,-1.356 2.0959,-3.3768 3.512,-4.4907 3.0386,-2.3902 3.2718,-3.8814 0.7329,-4.6872 -1.0131,-0.3215 -2.8867,-1.6967 -4.1637,-3.056 l -2.3217,-2.4714 1.9136,-3.5974 1.9136,-3.5975 -5.7897,-5.4074 -5.7896,-5.4075 -2.9927,-14.7565 c -6.0145,-29.657 -11.3849,-61.3826 -13.4161,-79.2565 -3.5381,-31.13261 -4.4499,-34.89081 -10.8057,-44.53815 -2.86343,-4.3463 -6.38445,-9.94076 -7.82451,-12.43214 -2.84506,-4.9221 -2.96694,-4.9544 -11.81567,-3.13132 -2.98867,0.61575 -6.34007,0.83195 -7.44755,0.48045 -1.10748,-0.3515 -4.5122,-0.75602 -7.56604,-0.89893 -5.86406,-0.27443 -18.2469,-3.42981 -22.82883,-5.8172 -4.19296,-2.18473 -7.29576,-3.37808 -12.47362,-4.79738 -2.6125,-0.71612 -4.75,-1.59919 -4.75,-1.96239 0,-0.36321 -1.4625,-1.21823 -3.25,-1.90006 -1.7875,-0.68184 -5.1576,-2.08643 -7.4891,-3.12132 -2.33151,-1.0349 -4.488,-1.88163 -4.79221,-1.88163 -0.602,0 -1.16688,-0.42492 -6.60071,-4.96522 -1.99761,-1.66913 -4.06266,-3.03478 -4.58899,-3.03478 -0.52633,0 -1.53209,3.9375 -2.23502,8.75 -0.70292,4.8125 -1.89383,10.55 -2.64646,12.75 -0.75263,2.2 -1.37496,7.87035 -1.38297,12.60078 -0.008,4.73042 -0.44526,9.90542 -0.97168,11.5 -0.52642,1.59457 -1.18755,13.24922 -1.46918,25.89922 -0.76532,34.37627 -2.12944,52.24437 -4.53327,59.38007 -1.12223,3.3313 -2.04042,6.8018 -2.04042,7.7123 0,0.9104 -2.03099,7.2579 -4.5133,14.1055 -2.48232,6.8476 -4.25576,12.8669 -3.94099,13.3762 0.31478,0.5093 0.16954,0.926 -0.32274,0.926 -0.49229,0 -1.66685,2.7759 -2.61014,6.1688 -1.63702,5.888 -6.74731,12.7565 -10.36186,13.9268 -0.94148,0.3048 -0.7568,1.6998 0.75,5.6651 3.52306,9.2715 2.07933,14.2393 -4.13814,14.2393 -9.11279,0 -9.13867,5.6446 -0.0973,21.2095 1.18514,2.0403 2.45188,5.9491 2.81498,8.6862 0.60561,4.5654 0.43152,5.1886 -2.10622,7.5405 -1.52151,1.4101 -3.35984,2.5638 -4.08518,2.5638 -2.28019,0 -3.51032,3.5524 -2.31475,6.6845 0.59109,1.5485 1.15365,9.6408 1.25015,17.9827 0.16795,14.5202 0.0784,15.2706 -2.09801,17.5895 -2.95037,3.1433 -7.84674,4.7439 -17.72655,5.7945 -4.4,0.4679 -11.375,1.3149 -15.5,1.8823 -7.4462,1.0243 -33.67834,0 -35.94867,-1.4018 -0.57823,-0.3573 -1.61383,-0.3011 -2.30133,0.1251 -0.6875,0.4261 -3.5,0.9191 -6.25,1.0954 -2.75,0.1764 -8.06254,0.9904 -11.80565,1.8089 -3.74311,0.8185 -7.20781,1.2396 -7.69933,0.9358 -0.49152,-0.3038 -3.51078,0.3293 -6.70946,1.4069 -3.19869,1.0776 -9.822038,2.4923 -14.718568,3.1439 -9.37924,1.2482 -9.49059,1.252 -19.273574,0.6576 -6.10898,-0.3712 -6.21629,-0.333 -6.82409,2.4344 -0.33964,1.5463 -0.32083,3.2915 0.0418,3.8783 0.36261,0.5867 0.34237,6.3766 -0.045,12.8665 l -0.70427,11.7998 -3.20193,1.1579 c -4.07574,1.4738 -3.95173,1.4873 -5.88027,-0.6437 z m 14.32033,-81.6985 c 0.81809,-0.9857 3.04979,-1.5 6.50943,-1.5 5.785054,0 9.927384,-2.1492 21.682794,-11.25 3.374548,-2.6125 6.624298,-4.7519 7.221668,-4.7542 0.59736,0 3.11111,-1.0414 5.58611,-2.3091 9.02824,-4.6242 9.27818,-4.8085 8.10736,-5.9793 -0.60905,-0.6091 -1.10736,-1.8693 -1.10736,-2.8004 0,-0.9312 -0.66364,-1.9477 -1.47475,-2.2589 -1.14625,-0.4399 -1.38504,-1.9673 -1.07202,-6.857 0.53564,-8.3671 0.92952,-9.1339 5.79445,-11.2803 3.54396,-1.5636 3.87482,-1.9456 2.21011,-2.552 -1.44134,-0.5251 -0.63884,-0.9097 3.04221,-1.4583 2.75,-0.4098 5.81202,-1.457 6.80449,-2.3271 0.99247,-0.8701 2.79247,-1.6499 4,-1.7329 2.70483,-0.186 8.69551,-2.6336 8.69551,-3.5527 0,-0.3706 -0.6048,-0.9059 -1.34399,-1.1896 -1.55378,-0.5962 -3.32249,-8.973 -4.1292,-19.5564 -0.56301,-7.386 0.73041,-25.3031 2.50076,-34.6418 1.05285,-5.5539 0.1497,-15.9923 -2.55239,-29.5 -2.15572,-10.7764 -4.04515,-15.379 -6.00463,-14.6271 -1.04094,0.3995 -1.47055,-0.133 -1.47055,-1.8225 0,-1.3128 -0.27314,-3.0986 -0.60699,-3.9686 -0.36977,-0.9636 -0.0767,-1.5815 0.75,-1.581 1.08525,6e-4 1.35699,-3.1534 1.35699,-15.75007 0,-18.99049 1.72126,-39.17362 5.60738,-65.7508 1.84933,-12.64758 3.99899,-28.86032 4.90585,-37 0.49022,-4.4 1.11314,-9.125 1.38428,-10.5 0.27113,-1.375 1.00936,-6.67859 1.6405,-11.78575 0.90264,-7.30401 0.88216,-9.60552 -0.096,-10.78409 -0.922,-1.11094 -0.96487,-2.07127 -0.16581,-3.71425 0.59273,-1.21875 1.37007,-4.46591 1.72742,-7.21591 1.51903,-11.68992 1.81194,-13.09507 3.121,-14.97251 0.75644,-1.08487 1.37535,-2.90737 1.37535,-4.05 0,-1.14262 0.5625,-2.63912 1.25,-3.32556 0.86889,-0.86754 1.35246,-6.26411 1.58604,-17.7 0.27413,-13.41951 0.59887,-16.45193 1.76185,-16.45193 1.10302,0 1.28118,-0.90426 0.78702,-3.99458 -0.35132,-2.19702 -0.19659,-4.55952 0.34385,-5.25 1.88837,-2.41264 3.27127,-10.7124 3.27127,-19.63314 0,-4.94564 0.50163,-10.25888 1.11474,-11.80718 0.6131,-1.54831 1.24948,-5.9651 1.41418,-9.8151 0.16741,-3.9135 1.50102,-10.96836 3.02455,-16 1.49881,-4.95 2.83862,-11.475 2.97734,-14.5 0.13873,-3.025 1.2398,-7.67749 2.44682,-10.33887 1.46313,-3.22609 1.97452,-5.72581 1.53434,-7.5 -0.79191,-3.1919 -4.29241,-7.16113 -6.31545,-7.16113 -2.07028,0 -0.76593,-12.08161 1.45748,-13.5 0.86216,-0.55 3.32321,-2.76472 5.469,-4.9216 5.13266,-5.15918 6.8067,-10.87824 8.07256,-27.5784 0.56281,-7.425 1.60612,-14.85 2.31845,-16.5 1.54128,-3.57009 2.49786,-8.86379 3.05094,-16.88393 0.33639,-4.87786 -0.0413,-6.75869 -2.20904,-11 -2.49115,-4.87411 -2.62574,-5.9448 -2.84594,-22.63911 -0.12712,-9.63768 -0.57073,-18.59304 -0.9858,-19.90081 -0.41507,-1.30777 -0.9307,-6.6974 -1.14585,-11.97696 -0.62363,-15.30365 -0.98244,-19.34235 -2.0966,-23.59919 -1.13205,-4.32516 -1.08807,-7.40352 0.16891,-11.82322 1.638,-5.7594 -0.96652,-5.13088 -8.34031,2.01268 -6.5352,6.33115 -7.14423,7.27403 -7.65077,11.84463 -0.30269,2.73125 -1.26803,6.51691 -2.14519,8.41257 -1.47715,3.19233 -1.46194,3.83765 0.20624,8.74533 1.606,4.72478 1.65727,5.92196 0.47335,11.05334 -1.64651,7.1364 -3.0395,9.97463 -8.87795,18.08897 -7.35719,10.22508 -9.49161,12.1657 -13.38067,12.1657 -4.23824,0 -6.28052,1.9734 -12.93626,12.5 -2.78202,4.4 -5.33741,8.225 -5.67865,8.5 -2.32973,1.87753 -6.63317,11.15959 -10.16063,21.91535 -1.69832,5.17845 -3.95904,11.12302 -5.02382,13.21017 -1.06479,2.08714 -1.94703,4.82523 -1.96056,6.08464 -0.0351,3.2664 -3.38165,12.84143 -6.340648,18.1415 -3.1254,5.59813 -4.83318,11.6271 -5.14075,18.14834 -0.69633,14.76406 -3.38471,24.75336 -7.03919,26.15571 -0.80015,0.30705 -1.45482,1.18512 -1.45482,1.95128 0,0.76615 -0.43377,1.39301 -0.96395,1.39301 -0.53017,0 -2.0661,1.62197 -3.41318,3.60438 -2.051564,3.01914 -12.240004,10.39562 -14.358504,10.39562 -0.3495,0 -1.67697,0.97844 -2.94992,2.17431 -2.68691,2.52423 -3.15309,9.13502 -0.85779,12.16405 1.86799,2.46512 8.10929,3.81653 11.17502,2.41969 5.13914,-2.34155 10.475684,4.25586 6.761904,8.35954 -0.936954,1.03533 -2.492284,1.88241 -3.456284,1.88241 -0.964,0 -4.08196,1.20845 -6.92881,2.68545 l -5.17609,2.68545 0.52459,32.56455 c 0.28852,17.9105 0.97295,47.18955 1.52094,65.06455 0.548,17.875 1.28872,45.775 1.64606,62 0.35733,16.225 1.03513,29.9654 1.50621,30.53421 0.47593,0.57466 0.46686,2.76192 -0.0204,4.9224 -0.48231,2.1385 -0.91541,52.29809 -0.96245,111.46586 -0.0515,64.7258 -0.46675,109.1709 -1.04257,111.5776 -1.88639,7.8842 -0.96723,11.5696 1.99524,8 z m 48.000002,-32.441 c 0,-0.5175 -0.45,-1.2191 -1,-1.559 -0.55,-0.3399 -1,0.083 -1,0.941 0,0.8574 0.45,1.559 1,1.559 0.55,0 1,-0.4234 1,-0.941 z"
     id="path2987"
     inkscape:connector-curvature="0" />
</svg>
