<?xml version="1.0" encoding="UTF-8" standalone="no"?>
<!-- Created with Inkscape (http://www.inkscape.org/) -->

<svg
   xmlns:dc="http://purl.org/dc/elements/1.1/"
   xmlns:cc="http://creativecommons.org/ns#"
   xmlns:rdf="http://www.w3.org/1999/02/22-rdf-syntax-ns#"
   xmlns:svg="http://www.w3.org/2000/svg"
   xmlns="http://www.w3.org/2000/svg"
   xmlns:sodipodi="http://sodipodi.sourceforge.net/DTD/sodipodi-0.dtd"
   xmlns:inkscape="http://www.inkscape.org/namespaces/inkscape"
   id="svg2"
   version="1.1"
   inkscape:version="0.48.2 r9819"
   width="718.60187"
   height="1336.0286"
   sodipodi:docname="warriorsoldjapa00ozakgoog_0152d.png">
  <metadata
     id="metadata8">
    <rdf:RDF>
      <cc:Work
         rdf:about="">
        <dc:format>image/svg+xml</dc:format>
        <dc:type
           rdf:resource="http://purl.org/dc/dcmitype/StillImage" />
        <dc:title></dc:title>
      </cc:Work>
    </rdf:RDF>
  </metadata>
  <defs
     id="defs6" />
  <sodipodi:namedview
     pagecolor="#ffffff"
     bordercolor="#666666"
     borderopacity="1"
     objecttolerance="10"
     gridtolerance="10"
     guidetolerance="10"
     inkscape:pageopacity="0"
     inkscape:pageshadow="2"
     inkscape:window-width="1600"
     inkscape:window-height="876"
     id="namedview4"
     showgrid="false"
     fit-margin-top="0"
     fit-margin-left="0"
     fit-margin-right="0"
     fit-margin-bottom="0"
     inkscape:zoom="0.70710678"
     inkscape:cx="307.60185"
     inkscape:cy="753.11438"
     inkscape:window-x="0"
     inkscape:window-y="24"
     inkscape:window-maximized="1"
     inkscape:current-layer="svg2" />
  <path
     style="fill:#000000"
     d="m 10.101854,1334.9941 c -0.3399203,-0.55 -1.3804403,-1 -2.3122603,-1 -1.53931,0 -5.78083,-3.766 -7.50768998,-6.6661 -1.0562,-1.7737 1.03467998,-6.2928 3.29912998,-7.1305 1.96753,-0.7278 1.95517,-0.8426 -0.60931,-5.66 -2.09046998,-3.9269 -2.39125998,-5.2795 -1.49372,-6.7167 0.61812,-0.9898 1.12385,-2.692 1.12385,-3.7827 0,-1.0907 0.84464,-3.487 1.87698,-5.325 1.76007,-3.1336 2.57259,-6.8356 3.5271,-16.0701 0.21893,-2.1181 0.89258,-4.3456 1.49699,-4.95 0.6044103,-0.6044 1.0989303,-2.1073 1.0989303,-3.3399 0,-1.2325 0.45,-2.5191 1,-2.859 0.55,-0.3399 1,-1.9415 1,-3.559 0,-1.6176 0.45,-2.941 1,-2.941 0.55,0 1,-1.5484 1,-3.441 0,-1.8925 0.45,-3.7191 1,-4.059 0.55,-0.3399 1,-1.9149 1,-3.5 0,-1.5851 0.40028,-3.1294 0.88951,-3.4317 0.83966,-0.519 1.42959,-3.0514 2.75449,-11.8246 0.312,-2.0659 0.96973,-4.005 1.46163,-4.309 0.49191,-0.304 0.89437,-1.9567 0.89437,-3.6727 0,-1.716 0.41951,-4.502 0.93224,-6.191 0.51273,-1.6891 1.46402,-5.096 2.11398,-7.571 0.64996,-2.475 1.54656,-5.4 1.99244,-6.5 0.97647,-2.409 1.93721,-6.6752 2.64751,-11.7563 0.2888,-2.0659 0.92756,-4.005 1.41946,-4.309 0.49191,-0.304 0.90092,-1.7637 0.90892,-3.2437 0.008,-1.4801 0.75024,-4.716 1.6494,-7.191 1.54088,-4.2414 2.71639,-9.6165 3.9925,-18.2563 0.30515,-2.0659 0.95728,-4.005 1.44918,-4.309 0.49191,-0.304 0.90115,-1.7637 0.90943,-3.2437 0.0156,-2.7908 2.10065,-9.64 3.2996,-10.839 0.37694,-0.3769 0.68534,-1.7088 0.68534,-2.9596 0,-1.2509 0.50548,-2.5868 1.12328,-2.9686 0.718,-0.4437 0.9154,-2.4494 0.54711,-5.559 -0.46652,-3.9391 -0.28687,-4.8648 0.94411,-4.8648 1.06645,0 1.33032,-0.5985 0.88394,-2.0049 -0.42292,-1.3325 -0.11014,-2.2069 0.93261,-2.607 1.12586,-0.432 1.56895,-1.9673 1.56895,-5.4361 0,-2.6587 0.45,-5.1121 1,-5.452 0.55,-0.3399 1,-1.9149 1,-3.5 0,-1.5851 0.45,-3.1601 1,-3.5 0.55,-0.3399 1,-2.3649 1,-4.5 0,-2.1351 0.45,-4.1601 1,-4.5 0.55,-0.3399 1,-2.0765 1,-3.859 0,-1.7826 0.40391,-3.6685 0.89757,-4.191 0.49367,-0.5225 1.1123,-2.75 1.37474,-4.95 0.59539,-4.9911 3.50898,-16.4169 4.77781,-18.7364 0.52244,-0.9551 0.94533,-2.9801 0.93976,-4.5 -0.006,-1.52 0.87785,-5.4636 1.96315,-8.7636 1.08529,-3.3 2.92812,-10.5 4.09517,-16 1.16704,-5.5 2.53363,-10.7814 3.03685,-11.7364 0.50322,-0.9551 0.91495,-2.841 0.91495,-4.191 0,-1.35 0.45,-2.7327 1,-3.0726 0.55,-0.3399 1,-2.1399 1,-4 0,-1.8601 0.50661,-3.6951 1.12579,-4.0777 0.72176,-0.4461 0.93118,-2.5814 0.58352,-5.9498 -0.4589,-4.4464 -0.1708,-5.8007 1.87421,-8.8102 1.32907,-1.9559 2.41648,-4.9035 2.41648,-6.5502 0,-1.6467 0.45,-3.2722 1,-3.6121 0.55,-0.3399 1.01001,-3.179 1.02224,-6.309 0.016,-4.1039 0.56758,-6.3882 1.97776,-8.191 1.07554,-1.375 1.96553,-3.9359 1.97776,-5.691 0.0122,-1.755 0.47224,-3.4691 1.02224,-3.809 0.55,-0.3399 1,-2.81492 1,-5.5 0,-2.68508 0.45,-5.16008 1,-5.5 0.55,-0.33992 1,-1.68992 1,-3 0,-1.31008 0.45,-2.66008 1,-3 0.55,-0.33992 1,-2.36492 1,-4.5 0,-2.13508 0.45,-4.16008 1,-4.5 0.55,-0.33992 1,-2.13992 1,-4 0,-1.86008 0.45,-3.66008 1,-4 0.55,-0.33992 1,-1.94758 1,-3.57259 0,-1.625 0.40156,-3.73594 0.89236,-4.69098 0.49079,-0.95504 1.427806,-4.66143 2.082256,-8.23643 0.65445,-3.575 1.60289,-6.65 2.10764,-6.83333 0.50476,-0.18334 0.91774,-3.13598 0.91774,-6.56144 0,-4.52636 0.47816,-6.75779 1.75,-8.16667 2.4359,-2.69837 4.31034,-8.50228 3.60955,-11.17641 -0.36994,-1.41165 -0.0831,-2.43161 0.777,-2.76267 0.78002,-0.30024 1.48838,-2.33456 1.65541,-4.75411 0.16058,-2.32611 0.72308,-4.66041 1.25,-5.18733 0.52692,-0.52692 0.95804,-1.99915 0.95804,-3.27161 0,-1.27246 0.51583,-3.13954 1.14629,-4.14907 0.63046,-1.00952 0.85862,-2.98167 0.50702,-4.38255 -0.55897,-2.22711 -1.43552,-2.68572 -6.9782,-3.65093 -3.48642,-0.60714 -8.18802,-1.10388 -10.448006,-1.10388 -2.25998,0 -4.38718,-0.45 -4.7271,-1 -0.33992,-0.55 -2.13382,-1 -3.98644,-1 -7.11361,0 -9.82417,-9.34947 -5.26356,-18.1555 1.2375,-2.38947 2.5875,-4.4945 3,-4.67783 0.4125,-0.18334 0.75,-1.00545 0.75,-1.82693 0,-1.40456 5.18468,-7.33974 6.41165,-7.33974 1.87775,0 11.588346,-9.9016 11.588346,-11.81629 0,-0.43638 2.69564,-3.24374 5.99032,-6.23857 5.13912,-4.67141 5.99169,-5.94382 6,-8.95459 0.007,-2.48124 0.62824,-3.89575 2.12091,-4.82794 l 2.11123,-1.31849 -2.11123,-1.47876 c -1.54362,-1.0812 -2.11123,-2.54288 -2.11123,-5.43676 0,-3.37451 0.46825,-4.24276 3.17633,-5.88964 3.0516,-1.85578 3.16681,-2.16484 2.93396,-7.87018 -0.22718,-5.56659 -0.0563,-6.07102 2.72804,-8.05366 1.63373,-1.16332 3.5802,-2.11512 4.32549,-2.11512 0.7453,0 1.91715,-0.9 2.60411,-2 0.94785,-1.51776 2.33202,-2 5.74054,-2 2.47034,0 4.49153,-0.45 4.49153,-1 0,-0.55 -0.675,-1 -1.5,-1 -0.825,0 -1.5,-0.35298 -1.5,-0.78439 0,-1.08295 -5.58856,-4.29372 -6.27635,-3.60593 -0.90968,0.90968 -4.72365,-3.45821 -4.72365,-5.40968 0,-0.99 -0.51496,-2.31496 -1.14437,-2.94437 -0.85331,-0.85331 -0.85769,-1.85794 -0.0172,-3.95 1.26857,-3.15776 1.25733,-15.30563 -0.0142,-15.30563 -0.45333,0 -0.82424,-1.09844 -0.82424,-2.44098 0,-1.34254 -0.45,-2.7191 -1,-3.05902 -1.75219,-1.08291 -1.20874,-12.61187 0.69358,-14.7139 3.48989,-3.85629 5.66711,-14.96218 3.39861,-17.3361 -0.4993,-0.5225 -1.15033,-3.2 -1.44672,-5.95 -0.2964,-2.75 -0.83091,-6.63435 -1.18781,-8.63189 -0.39958,-2.23649 -0.22795,-3.89205 0.44672,-4.30902 0.60259,-0.37242 1.09562,-1.46524 1.09562,-2.4285 0,-1.73067 12.26593,-13.13059 14.12807,-13.13059 0.52956,0 1.99847,-1.0125 3.26424,-2.25 4.47685,-4.37685 8.60149,-7.75 9.47659,-7.75 1.84518,0 3.4199,-2.94709 2.29741,-4.29961 -0.59323,-0.71479 -1.38243,-3.19977 -1.7538,-5.52217 -0.37137,-2.3224 -1.03648,-4.44582 -1.47802,-4.71871 -0.44154,-0.27288 -0.55784,-2.0057 -0.25843,-3.8507 0.31785,-1.95871 0.0824,-3.64006 -0.56585,-4.0407 -0.61061,-0.37738 -1.11021,-2.23459 -1.11021,-4.12713 0,-1.89254 -0.45,-3.44098 -1,-3.44098 -0.55,0 -1,-1.125 -1,-2.5 0,-1.375 -0.45,-2.5 -1,-2.5 -0.55,0 -1,-1.8 -1,-4 0,-2.2 0.45,-4 1,-4 0.55,0 1,-1.32344 1,-2.94098 0,-1.61754 0.39899,-3.18757 0.88664,-3.48896 0.48765,-0.30138 1.17828,-2.10258 1.53474,-4.00265 0.41146,-2.1933 1.36605,-3.68256 2.61442,-4.07877 1.08148,-0.34325 2.43168,-1.49361 3.00045,-2.55636 0.56876,-1.06276 1.69328,-1.93228 2.49893,-1.93228 1.13481,0 1.46482,-1.45109 1.46482,-6.44098 0,-3.54254 0.45734,-6.72364 1.01631,-7.0691 0.55897,-0.34546 0.68753,-1.15952 0.28569,-1.80902 -0.40184,-0.64949 -0.90586,-4.7809 -1.12004,-9.1809 -0.21419,-4.4 -0.72729,-8.225 -1.14023,-8.5 -1.07369,-0.71503 -1.08516,-7.05033 -0.0164,-9.04736 0.95742,-1.78896 -0.71719,-7.87118 -2.52535,-9.17213 -0.64622,-0.46495 -0.52517,-1.48524 0.34217,-2.88402 1.12289,-1.8109 1.12289,-2.31076 0,-3.0596 -1.03372,-0.68938 -0.5465,-1.57783 2.12006,-3.86598 1.90422,-1.634 3.98924,-2.97091 4.63336,-2.97091 0.64413,0 1.42205,-0.95944 1.7287,-2.13208 0.40284,-1.54049 1.11097,-1.98736 2.55205,-1.61051 2.31716,0.60595 3.18135,-0.96209 3.65444,-6.63085 0.2481,-2.97286 1.24111,-4.75539 4.27098,-7.66677 3.32461,-3.19458 4.71725,-3.83408 8.82298,-4.05148 7.08068,-0.37494 7.42567,-0.70405 4.16062,-3.9691 -3.40224,-3.40224 -3.24092,-5.30732 0.48692,-5.75034 1.81121,-0.21525 2.44637,-0.75849 2.061,-1.76274 -0.83884,-2.18598 1.55517,-4.42613 4.73015,-4.42613 1.55019,0 3.09665,-0.45 3.43657,-1 0.33992,-0.55 1.30684,-1 2.14872,-1 0.84188,0 2.3202,-0.975 3.28516,-2.16667 1.1128,-1.37426 2.88191,-2.16666 4.83724,-2.16666 3.18768,0 4.18475,-1.49809 4.21523,-6.33334 0.008,-1.19166 0.39899,-2.31666 0.86997,-2.5 1.24893,-0.48616 2.10844,-9.83333 0.90421,-9.83333 -0.54659,0 -0.74488,-0.95185 -0.44065,-2.11523 0.30423,-1.16337 0.16456,-2.85087 -0.31037,-3.75 -0.47493,-0.89912 -1.09385,-2.38737 -1.37536,-3.30721 -0.28152,-0.91984 -1.55187,-1.81984 -2.823,-2 -1.27111,-0.18016 -2.31113,-1.00256 -2.31113,-1.82756 0,-0.825 -0.9,-1.74529 -2,-2.04508 -3.70617,-1.01009 -2.25214,-3.96132 3.5,-7.10387 3.025,-1.65265 6.22856,-3.93866 7.11903,-5.08003 1.30224,-1.66917 2.32947,-1.95992 5.25,-1.48599 3.09491,0.50224 3.63097,0.31195 3.63097,-1.28888 0,-1.03297 0.45,-2.15623 1,-2.49615 0.55,-0.33992 1,-2.13992 1,-4 0,-1.86008 0.45,-3.66008 1,-4 0.55,-0.33992 1,-1.68992 1,-3 0,-1.31008 0.48839,-2.68381 1.08532,-3.05273 0.65542,-0.40507 0.95602,-3.18489 0.7589,-7.01792 -0.21181,-4.11884 0.10931,-6.78288 0.91469,-7.58826 0.6826,-0.6826 1.24109,-1.8322 1.24109,-2.55466 0,-0.72246 0.39684,-2.09496 0.88187,-3.05 1.21582,-2.39399 3.11813,-10.74706 3.11813,-13.69176 0,-1.33465 0.40028,-2.67402 0.88951,-2.97638 0.85773,-0.53011 1.55641,-3.59482 2.75129,-12.06829 0.31023,-2.2 0.96796,-4.4275 1.46163,-4.95 0.49366,-0.5225 0.89757,-2.18344 0.89757,-3.69098 0,-1.50754 0.45,-3.0191 1,-3.35902 0.55,-0.33992 1,-1.91492 1,-3.5 0,-1.58508 0.50091,-3.19155 1.11314,-3.56992 0.68596,-0.42395 0.94535,-2.71119 0.67593,-5.96012 -0.29092,-3.50801 -0.0775,-5.13415 0.63771,-4.85968 1.362,0.52265 3.20488,-3.79288 4.10391,-9.61028 0.38249,-2.475 1.18377,-5.1036 1.78061,-5.84132 0.59685,-0.73773 0.97836,-2.92735 0.84781,-4.86582 -0.13055,-1.93847 0.45525,-4.58154 1.30176,-5.87349 0.84652,-1.29195 1.53913,-3.46328 1.53913,-4.82517 0,-1.36189 0.45,-2.75428 1,-3.0942 0.55,-0.33992 1,-1.85405 1,-3.36474 0,-1.51068 1.125,-4.27155 2.5,-6.13526 1.375,-1.86371 2.5,-3.94167 2.5,-4.61768 0,-0.67602 1.54111,-3.24809 3.42469,-5.71571 3.21313,-4.20943 3.42721,-4.97017 3.46555,-12.31512 0.0233,-4.46716 0.48504,-7.97658 1.07532,-8.17334 0.56894,-0.18965 1.03444,-1.66342 1.03444,-3.27505 0,-1.61163 0.42694,-3.71163 0.94876,-4.66667 0.52182,-0.95504 1.22832,-3.90014 1.57001,-6.54468 0.35618,-2.75671 1.22675,-5.0406 2.04038,-5.35282 0.78053,-0.29952 1.8973,-2.32035 2.48173,-4.49075 1.29136,-4.79575 3.44525,-7.47934 7.59948,-9.4684 2.10325,-1.00704 3.14136,-2.22622 3.14338,-3.69169 0.0118,-8.51613 1.20012,-16.01277 2.82248,-17.80546 0.98907,-1.09291 1.88818,-3.7358 1.99804,-5.8731 0.12362,-2.40511 1.18979,-5.18403 2.79774,-7.29216 1.4289,-1.87338 2.598,-4.37618 2.598,-5.56176 0,-1.18559 0.45,-2.15561 1,-2.15561 0.55,0 1,-0.94152 1,-2.09227 0,-1.15075 0.9,-3.23644 2,-4.63486 1.1,-1.39842 2,-3.29771 2,-4.22064 0,-0.92293 1.35,-2.97143 3,-4.55223 1.65,-1.5808 3,-3.68999 3,-4.68709 0,-0.9971 0.45,-1.81291 1,-1.81291 0.55,0 1,-0.86547 1,-1.92327 0,-1.05781 1.0125,-3.19887 2.25,-4.75791 3.08815,-3.89057 4.46774,-6.1854 6.35372,-10.56882 0.88739,-2.0625 2.01458,-3.75 2.50486,-3.75 0.49028,0 0.89142,-0.94213 0.89142,-2.09362 0,-1.25262 0.8034,-2.30371 2,-2.61663 1.1,-0.28766 2,-1.336 2,-2.32966 0,-0.99365 1.125,-3.14363 2.5,-4.77772 1.375,-1.6341 2.5,-3.42048 2.5,-3.96974 0,-0.54926 0.675,-1.25767 1.5,-1.57426 0.825,-0.31658 1.5,-1.1734 1.5,-1.90404 0,-0.73064 1.8,-3.08609 4,-5.234329 2.2,-2.14824 4,-4.67776 4,-5.62116 0,-2.51967 1.07013,-4.87884 2.21307,-4.87884 0.5495,0 1.88401,-1.125 2.96559,-2.5 1.08158,-1.375 2.79703,-2.5 3.81213,-2.5 3.41697,0 5.00921,-1.19806 5.00921,-3.7691 0,-3.03859 3.08776,-13.2309 4.00831,-13.2309 0.35368,0 1.69994,1.125 2.99169,2.5 1.29175,1.375 2.86915,2.5 3.50533,2.5 1.27048,0 3.20006,-3.36374 3.72866,-6.5 0.25505,-1.5132 0.99341,-1.93063 3.03356,-1.71497 2.49533,0.26377 2.65232,0.0643 2.10473,-2.673613 -0.49547,-2.477356 0.008,-3.558843 3.09797,-6.648332 2.95009,-2.950094 3.5637,-4.191678 3.06115,-6.193983 -1.13355,-4.516439 1.69672,-6.269102 10.12359,-6.269102 4.33278,0 7.34501,-0.418897 7.34501,-1.021439 0,-0.561791 1.125,-1.534023 2.5,-2.160515 1.375,-0.626492 2.5,-1.940287 2.5,-2.919544 0,-0.979257 0.47776,-2.075738 1.06168,-2.436624 0.58393,-0.360886 1.4563,-1.694057 1.93859,-2.962601 1.11659,-2.936833 17.05018,-10.913948 20.48729,-10.256905 1.99601,0.381563 2.72473,-0.338685 4.95876,-4.901169 l 2.61888,-5.3484644 8.95348,0.1910244 c 7.84328,0.167338 9.23419,-0.06771 11.2174,-1.8956414 3.34984,-3.08756 10.131,-5.010235 20.54376,-5.82481 5.09501,-0.398576 9.50543,-1.115875 9.80093,-1.59399802 0.76125,-1.231732 29.15383,-1.107714 29.91923,0.130686 0.3399,0.55000002 2.1399,1.00000002 4,1.00000002 1.8601,0 3.6601,0.45 4,1 0.3399,0.55 1.6467,1 2.904,1 2.0894,0 6.4696,3.496463 5.5065,4.395506 -0.2258,0.210784 -4.0105,1.108783 -8.4105,1.9955534 -4.4,0.886769 -10.925,3.037398 -14.5,4.779174 -3.575,1.741776 -7.625,3.593521 -9,4.114988 -1.375,0.521467 -3.2814,1.34562 -4.2364,1.83145 -0.9551,0.485831 -2.3051,0.893335 -3,0.905565 -0.695,0.01223 -2.3886,0.902223 -3.7636,1.977764 -1.375,1.075541 -3.2875,1.965534 -4.25,1.977764 -0.9625,0.01223 -1.75,0.472236 -1.75,1.022236 0,0.55 -0.68111,1 -1.51357,1 -0.83246,0 -2.29496,0.397498 -3.25,0.883329 -0.95504,0.48583 -3.08643,1.482114 -4.73643,2.213963 -1.65,0.73185 -4.19447,2.134352 -5.65437,3.116672 -1.4599,0.98232 -3.3724,1.786036 -4.25,1.786036 -0.8776,0 -1.59563,0.439497 -1.59563,0.976661 0,1.054939 -7.58748,5.023339 -9.6045,5.023339 -0.67586,0 -1.37883,0.3375 -1.56217,0.75 -0.18333,0.4125 -2.47083,1.833248 -5.08333,3.157218 -2.6125,1.323969 -4.75,2.731875 -4.75,3.128679 0,0.396804 -1.4625,1.307136 -3.25,2.022959 -3.66976,1.469592 -12.07596,6.902737 -12.58333,8.132932 -0.18334,0.444517 -0.79893,0.808212 -1.36799,0.808212 -0.56906,0 -2.66906,1.365651 -4.66666,3.03478 -5.78613,4.83467 -5.97984,4.96522 -7.36757,4.96522 -0.72598,0 -2.06817,0.7875 -2.98264,1.75 -0.91448,0.9625 -4.0241,3.55 -6.91028,5.75 -2.88617,2.2 -6.62548,5.53721 -8.30956,7.41603 -1.68408,1.87882 -4.97447,5.40184 -7.31197,7.82895 -2.3375,2.4271 -4.25,4.77076 -4.25,5.20813 0,0.43737 -2.07407,2.76435 -4.60904,5.171059 -2.53497,2.4067 -5.12247,4.98117 -5.75,5.72103 -0.62753,0.73986 -2.15346,2.44782 -3.39096,3.79546 -1.2375,1.34764 -2.25,2.67884 -2.25,2.95822 0,1.23519 -5.62345,7.40106 -6.75,7.40109 -0.6875,2e-5 -1.26001,0.78753 -1.27224,1.75003 -0.0122,0.9625 -0.90222,2.875 -1.97776,4.25 -1.07554,1.375 -1.96553,3.32963 -1.97776,4.34362 -0.0122,1.01399 -0.92224,2.07897 -2.02224,2.36663 -1.1,0.28766 -2,1.17695 -2,1.97621 0,0.79925 -1.4625,3.55927 -3.25,6.13336 -4.25851,6.13248 -5.58405,8.30953 -6.35065,10.43018 -0.34794,0.9625 -1.03013,1.75 -1.51598,1.75 -0.48585,0 -0.88337,0.81 -0.88337,1.8 0,0.99 -0.40759,2.2275 -0.90576,2.75 -1.39108,1.45902 -5.09424,8.38345 -5.09424,9.52558 0,0.55811 -2.16619,4.25692 -4.81376,8.21958 -4.65992,6.97459 -13.18624,23.47126 -13.18624,25.51267 0,0.55174 -0.86597,2.73319 -1.92438,4.84767 -1.05841,2.11447 -2.51826,5.307 -3.24411,7.0945 -0.72585,1.7875 -1.65988,3.25 -2.07562,3.25 -0.41574,0 -0.75589,0.81548 -0.75589,1.81217 0,0.99669 -0.9,3.67496 -2,5.95169 -1.1,2.27674 -2,5.06127 -2,6.18783 0,1.12657 -0.45,2.04831 -1,2.04831 -0.55,0 -1,1.09844 -1,2.44098 0,1.34254 -0.45,2.7191 -1,3.05902 -0.55,0.33992 -1.01001,2.27898 -1.02224,4.30902 -0.0127,2.11485 -0.85728,4.75853 -1.97776,6.19098 -1.07554,1.375 -1.96553,3.7375 -1.97776,5.25 -0.0122,1.5125 -0.47224,2.75 -1.02224,2.75 -0.55,0 -1,1.32344 -1,2.94098 0,1.61754 -0.45,3.2191 -1,3.55902 -0.55,0.33992 -1,1.94758 -1,3.57259 0,2.84054 -0.28961,3.72283 -2.84387,8.66384 -0.63587,1.23004 -1.15613,3.11598 -1.15613,4.19098 0,1.07501 -0.4683,2.24398 -1.04068,2.59773 -0.57237,0.35375 -0.76705,1.5053 -0.43261,2.55902 0.42262,1.33154 0.13004,1.91584 -0.95932,1.91584 -1.09711,0 -1.57406,0.97513 -1.58963,3.25 -0.0122,1.7875 -0.90222,4.375 -1.97776,5.75 -1.07554,1.375 -1.96553,3.26094 -1.97776,4.19098 -0.0122,0.93004 -0.47224,1.9691 -1.02224,2.30902 -0.55,0.33992 -1,1.94148 -1,3.55902 0,1.61754 -0.45,2.94098 -1,2.94098 -0.55,0 -1,1.09844 -1,2.44098 0,1.34254 -0.45,2.7191 -1,3.05902 -0.55,0.33992 -1,1.68992 -1,3 0,1.31008 -0.45,2.66008 -1,3 -0.55,0.33992 -1,1.72258 -1,3.07259 0,2.36406 -0.31887,3.27944 -2.84387,8.16384 -0.63587,1.23004 -1.15613,2.92364 -1.15613,3.76357 0,0.83993 -0.3975,2.30853 -0.88333,3.26357 -2.72803,5.36272 -3.55833,8.44219 -3.23182,11.98643 0.13699,1.48706 3.7303,1.68171 4.61515,0.25 0.33992,-0.55 2.15085,-1 4.02429,-1 3.98334,0 11.06595,-4.17115 14.97902,-8.82156 1.47096,-1.74814 3.30566,-3.17844 4.07711,-3.17844 0.77145,0 1.96469,-0.9 2.65165,-2 1.41292,-2.26244 6.61936,-2.74857 8.56793,-0.8 2.05642,2.05642 1.44884,7.15406 -1.05,8.80945 -2.09021,1.38469 -1.50431,1.53884 8.25,2.17046 14.94469,0.96773 18.93302,1.73998 20.30129,3.93092 0.64889,1.03904 1.97156,1.88917 2.93926,1.88917 0.9677,0 1.75945,0.45 1.75945,1 0,0.55 0.6808,1 1.5129,1 3.58778,0 17.4871,17.16402 17.4871,21.5945 0,0.77303 0.42534,1.4055 0.94521,1.4055 0.51986,0 1.08236,2.1375 1.25,4.75 0.30228,4.71084 0.33175,4.74739 3.57503,4.43332 2.86763,-0.27769 3.4383,0.083 4.63534,2.92996 1.70345,4.0513 -0.0145,10.18766 -3.00507,10.73378 -2.87372,0.52479 -3.98974,1.96371 -2.60051,3.35294 1.4498,1.4498 1.60479,9.43179 0.2,10.3 -1.07736,0.66585 -1.39429,14.30891 -0.39301,16.91821 0.35591,0.9275 1.77924,1.58179 3.44098,1.58179 1.5587,0 3.11211,0.45 3.45203,1 0.33992,0.55 2.13992,1 4,1 1.86008,0 3.66008,-0.45 4,-1 1.09907,-1.77833 9.03442,-1.17194 10.84501,0.82874 1.79957,1.98851 2.27294,7.17126 0.65499,7.17126 -0.55,0 -1,0.81368 -1,1.80817 0,0.9945 -1.76131,3.132 -3.91403,4.75 -6.36172,4.78153 -6.5734,5.80032 -1.75543,8.44843 2.2932,1.26042 5.17845,2.78706 6.41166,3.39253 1.23321,0.60548 2.24571,1.43837 2.25,1.85087 0.004,0.4125 1.4703,0.76001 3.2578,0.77224 1.7875,0.0122 4.375,0.90222 5.75,1.97776 1.375,1.07554 3.26094,1.96553 4.19098,1.97776 0.93004,0.0122 1.9691,0.47224 2.30902,1.02224 0.33992,0.55 3.03992,1 6,1 2.96008,0 5.66008,0.45 6,1 0.33992,0.55 2.13992,1 4,1 1.86008,0 3.66008,0.45 4,1 0.33992,0.55 2.39148,1 4.55902,1 2.16754,0 3.94098,0.45 3.94098,1 0,0.55 1.35,1 3,1 1.65,0 3,0.45 3,1 0,0.55 1.8,1 4,1 2.2,0 4,0.39754 4,0.88342 0,1.57709 5.28187,1.97757 6.74781,0.51163 4.23122,-4.23122 14.25219,2.2006 14.25219,9.14756 0,0.90306 0.9,2.7861 2,4.18452 1.1,1.39842 2,3.58034 2,4.84871 0,3.00719 1.33631,3.73447 7.42777,4.0425 2.76639,0.1399 5.18934,0.733 5.38435,1.31801 0.195,0.58501 1.13219,1.06365 2.08265,1.06365 0.95046,0 2.60046,0.7875 3.66667,1.75 1.06621,0.9625 3.17606,2.38854 4.68856,3.16898 1.5125,0.78044 2.75,1.79294 2.75,2.25 0,0.45706 0.5894,0.83102 1.3098,0.83102 0.7203,0 3.7578,2.05554 6.75,4.56786 8.6441,7.25797 8.8993,7.445 12.5087,9.16617 1.8873,0.90002 3.4315,2.1469 3.4315,2.77085 0,1.32197 3.8191,4.82799 6.2934,5.77745 3.7068,1.42245 -0.021,7.71767 -4.5697,7.71767 -0.7406,0 -2.2189,0.7875 -3.2851,1.75 -1.0662,0.9625 -3.2197,2.41189 -4.7856,3.22087 -1.5658,0.80898 -3.8538,2.66752 -5.0845,4.1301 -1.2307,1.46258 -3.2121,2.96851 -4.4031,3.34652 -1.2522,0.39745 -2.1654,1.51552 -2.1654,2.65128 0,1.0802 -0.7875,2.24193 -1.75,2.58163 -2.3777,0.83915 -6.25,4.41473 -6.25,5.77105 0,0.60656 -1.2375,2.4828 -2.75,4.16944 -1.5125,1.68664 -3.59862,4.54734 -4.63583,6.3571 -1.72642,3.01233 -1.74755,3.36786 -0.25,4.20593 2.26886,1.26972 2.0485,6.01826 -0.3756,8.09384 -2.64893,2.26808 -6.88447,2.1503 -9.98857,-0.27776 -1.375,-1.07554 -3.85,-1.93001 -5.5,-1.89882 -1.65,0.0312 -2.35875,0.30994 -1.575,0.61943 0.78375,0.3095 2.93625,2.07397 4.78333,3.92106 3.39688,3.39688 5.6634,4.1839 6.79167,2.35833 0.33992,-0.55 1.71648,-1 3.05902,-1 1.34254,0 2.44098,-0.45 2.44098,-1 0,-1.51871 4.2771,-1.19462 6.7084,0.50831 1.1844,0.82956 2.869,2.94267 3.7435,4.69579 1.4466,2.89981 1.4486,3.48571 0.022,6.49169 -0.9604,2.02406 -2.3017,3.30421 -3.462,3.30421 -1.0417,0 -2.1722,0.45 -2.5121,1 -1.06217,1.71866 -7.85094,1.07211 -10.49998,-1 -1.375,-1.07554 -3.13022,-1.96553 -3.90048,-1.97776 -0.77027,-0.0122 0.57973,1.31957 3,2.95956 3.59333,2.43488 5.44433,2.98514 10.09146,3 3.13,0.01 5.9691,0.4682 6.309,1.0182 0.8747,1.4152 8.3002,1.2136 12.7816,-0.347 3.6859,-1.28355 9.9772,-5.3406 13.8627,-8.93947 1.0608,-0.98257 2.2964,-1.55918 2.746,-1.28136 1.141,0.70522 3.1097,-3.95212 3.1097,-7.35678 0,-4.03178 2.0104,-5.23288 8.1688,-4.88046 l 5.3312,0.30507 0.613,7.5 c 0.3603,4.40811 0.2067,8.01531 -0.3725,8.75 -0.5419,0.6875 -2.899,1.25 -5.2379,1.25 -3.9251,0 -4.2988,0.23103 -4.8526,3 -0.3913,1.9566 -1.2173,3.01413 -2.375,3.04064 -0.9762,0.0223 -3.333,1.37235 -5.2372,3 -1.9042,1.62765 -4.4017,2.95936 -5.55,2.95936 -1.1483,0 -2.5353,0.4475 -3.0822,0.99444 -0.547,0.54694 -3.2898,1.10944 -6.0953,1.25 -2.8054,0.14056 -4.8529,0.6633 -4.55,1.16166 0.314,0.51661 -0.8232,0.63133 -2.6454,0.26688 -1.8163,-0.36327 -3.9848,-0.14667 -5.023,0.50172 -1.0461,0.65327 -2.6316,0.80848 -3.7094,0.36312 -2.526,-1.04371 -7.46055,-1.22054 -8.03689,-0.28801 -0.80576,1.30407 -2.34541,0.81189 -2.34541,-0.74981 0,-1.03302 -1.01179,-1.4888 -3.25,-1.46404 l -3.25,0.036 2.59513,2.21403 c 1.42732,1.21772 2.8757,3.00154 3.21861,3.96404 0.34292,0.9625 1.57974,1.75 2.74849,1.75 1.28401,0 2.332,0.79153 2.64802,2 0.28766,1.1 0.85482,2 1.26036,2 0.40554,0 2.04059,1.21575 3.63339,2.70166 3.6021,3.3604 8.0707,4.15679 28.5448,5.0872 12.1416,0.55176 16.0636,1.06928 17.5,2.30914 1.0181,0.8789 2.6387,1.87728 3.6012,2.21862 2.4912,0.88345 2.5331,10.44565 0.05,11.39851 -0.935,0.35879 -3.279,2.36967 -5.2088,4.46861 -1.9299,2.09894 -3.9126,3.81626 -4.4061,3.81626 -1.0159,0 -9.007,6.08049 -9.5184,7.24256 -0.1833,0.41659 -2.3208,0.75744 -4.75,0.75744 -3.029,0 -4.4167,0.4218 -4.4167,1.34253 0,0.73839 -1.6875,2.20089 -3.75,3.25 -2.0625,1.04911 -4.4778,2.69497 -5.3673,3.65747 -1.2852,1.39064 -3.2873,1.75 -9.75,1.75 -4.7551,0 -8.13268,0.41531 -8.13268,1 0,0.55445 -2.64699,1 -5.94098,1 -3.26754,0 -6.2191,0.45 -6.55902,1 -0.33992,0.55 -1.68992,1 -3,1 -1.31008,0 -2.66008,-0.45 -3,-1 -0.33992,-0.55 -3.51648,-1 -7.05902,-1 -3.62732,0 -6.44098,0.43684 -6.44098,1 0,0.55 -2.5301,1 -5.62244,1 -4.36708,0 -5.39815,0.2791 -4.61786,1.25 0.55253,0.6875 1.05556,3.8403 1.11785,7.00621 0.0623,3.16592 0.52147,6.54092 1.02039,7.5 0.49892,0.95909 1.49145,3.71213 2.20561,6.11788 0.71416,2.40575 2.55802,5.63363 4.09746,7.17308 3.20832,3.20831 3.4602,5.01406 1.18398,8.48801 -1.4559,2.222 -2.28866,2.46482 -8.45295,2.46482 -8.88767,0 -11.20878,-1.15975 -13.70925,-6.84986 -1.9485,-4.43402 -2.41541,-6.54298 -3.84823,-17.38183 -0.76769,-5.80728 -2.77694,-7.93719 -4.87401,-5.16669 -1.67105,2.20766 -1.94656,6.0047 -0.50055,6.89838 0.55,0.33992 1,1.71648 1,3.05902 0,1.34254 0.45,2.44098 1,2.44098 0.55,0 1,1.09844 1,2.44098 0,1.34254 0.45,2.7191 1,3.05902 0.55,0.33992 1.01001,1.37898 1.02224,2.30902 0.0122,0.93004 0.90222,2.81598 1.97776,4.19098 1.11587,1.42656 1.96508,4.07604 1.97776,6.17054 0.0201,3.32285 0.3301,3.7375 3.27224,4.37734 3.20908,0.69789 7.06692,4.05318 9.5,8.26246 1.4958,2.58776 1.65582,7.18966 0.25,7.18966 -0.55,0 -1,1.05266 -1,2.33924 0,2.01638 0.44856,2.30969 3.25,2.12517 5.28215,-0.34791 6.75,0.98686 6.75,6.13801 l 0,4.53205 10.25,-0.57447 c 5.6375,-0.31595 14.525,-0.99931 19.75,-1.51857 5.225,-0.51926 14.89998,-1.41588 21.49998,-1.99249 25.9975,-2.27128 36.8162,-3.64238 40,-5.06936 1.1,-0.49302 4.7,-1.08202 8,-1.30889 3.3,-0.22688 7.8,-0.97337 10,-1.65887 2.2,-0.68551 6.25,-1.46009 9,-1.72129 2.75,-0.26119 5.4275,-0.88342 5.95,-1.38272 0.5225,-0.49929 4.0164,-0.90781 7.7641,-0.90781 6.3768,0 6.9942,-0.20158 9.6204,-3.14076 2.7201,-3.04437 2.8831,-3.09039 5.3111,-1.4995 2.397,1.57055 2.6061,1.53354 4.854,-0.85925 1.7939,-1.90957 3.3574,-2.50049 6.6157,-2.50049 2.3467,0 4.5448,-0.45 4.8847,-1 0.3399,-0.55 1.7226,-1 3.0726,-1 1.35,0 3.461,-0.52026 4.691,-1.15613 4.9825,-2.57571 5.8466,-2.84387 9.1638,-2.84387 1.9,0 3.7327,-0.45 4.0726,-1 0.3399,-0.55 1.6284,-1 2.8633,-1 2.5681,-3e-5 11.6367,-5.43802 11.6367,-6.97801 0,-0.56211 1.35,-1.02202 3,-1.02202 1.65,0 3,-0.45 3,-1 0,-0.55 0.4688,-1 1.0418,-1 0.573,0 2.0079,-0.9 3.1886,-2 1.1807,-1.1 2.9619,-2 3.9582,-2 0.9963,0 1.8114,-0.45 1.8114,-1 0,-0.55 0.825,-1 1.8333,-1 2.5177,0 3.3598,-1.06244 2.0719,-2.61419 -1.7132,-2.06431 -0.1057,-3.38581 4.1186,-3.38581 2.8824,0 4.1863,-0.52407 4.9762,-2 0.5887,-1.1 1.8606,-2 2.8263,-2 0.9658,0 3.4205,-1.81036 5.4549,-4.02302 4.782,-5.20094 8.8391,-6.13828 12.3817,-2.86064 4.8534,4.49036 7.3371,9.49371 7.3371,14.78045 0,2.7151 -0.3375,5.08654 -0.75,5.26988 -0.4125,0.18333 -1.5051,1.68333 -2.4281,3.33333 -1.1289,2.01828 -2.6015,3.10919 -4.5,3.33366 -1.552,0.18352 -3.4969,0.91779 -4.3219,1.63172 -0.825,0.71393 -2.5025,1.60342 -3.7277,1.97665 -1.5127,0.4608 -2.5682,1.94301 -3.2885,4.61828 -1.0017,3.71972 -1.2757,3.93969 -4.908,3.93969 -4.4392,0 -9.8838,2.38261 -8.0435,3.51996 1.5423,0.95316 -0.6739,2.44325 -3.6657,2.46473 -1.2843,0.009 -2.3415,0.81127 -2.6563,2.01531 -0.416,1.59047 -1.3641,2 -4.6302,2 -2.259,0 -5.0011,0.45 -6.0937,1 -1.0925,0.55 -2.8803,1.45 -3.9728,2 -1.0926,0.55 -2.5665,1 -3.2755,1 -0.709,0 -3.9776,1.33588 -7.2636,2.96862 -3.286,1.63274 -6.7354,2.98274 -7.6655,3 -0.93,0.0173 -1.9691,0.48138 -2.309,1.03138 -0.3399,0.55 -1.7165,1 -3.059,1 -1.3426,0 -2.441,0.45 -2.441,1 0,0.55 -1.5484,1 -3.441,1 -1.8925,0 -3.7191,0.45 -4.059,1 -0.3399,0.55 -2.279,1.01431 -4.309,1.0318 -3.7235,0.0321 -7.191,1.82268 -7.191,3.71343 0,2.66836 -4.8321,4.12553 -13.2964,4.00961 -4.7984,-0.0657 -9.1426,0.3548 -9.8828,0.95665 -0.7264,0.59064 -3.3458,1.31451 -5.8208,1.60858 -2.475,0.29408 -6.75,1.03969 -9.5,1.6569 -2.75,0.61722 -8.15,1.56192 -12,2.09933 -3.85,0.53742 -10.15,1.44805 -14,2.02363 -3.85,0.57558 -9.925,1.27497 -13.5,1.5542 -3.575,0.27923 -6.8745,0.86824 -7.3321,1.30891 -0.4577,0.44068 -2.1654,0.29797 -3.795,-0.31713 -1.9627,-0.74084 -3.2009,-0.77985 -3.6679,-0.11555 -1.3364,1.90088 -10.2584,3.46964 -19.7329,3.46964 -5.4557,0 -10.28752,0.49229 -11.35112,1.15652 -2.0246,1.26438 -1.74281,4.84348 0.38134,4.84348 1.99468,0 6.46948,2.58573 8.02178,4.63532 1.6501,2.17863 1.9134,5.97628 0.4759,6.86468 -1.5662,0.96799 -1.1705,4.5 0.5042,4.5 0.8472,0 2.4576,2.1837 3.6874,5 1.4274,3.26914 2.7902,5 3.9368,5 0.9645,0 2.0317,0.45 2.3716,1 0.3399,0.55 1.8864,1 3.4366,1 1.5502,0 3.3668,0.66061 4.0369,1.46803 0.6701,0.80742 1.5339,1.36992 1.9196,1.25 2.3867,-0.74206 11.1069,10.11292 11.1069,13.82596 0,0.81573 0.5203,2.48954 1.1561,3.71958 2.5748,4.98074 2.8439,5.84546 2.8439,9.13953 0,1.88663 0.5625,3.65847 1.25,3.93744 0.9438,0.38294 0.8825,0.7895 -0.25,1.65946 -1.1325,0.86996 -1.1938,1.27652 -0.25,1.65946 1.4113,0.57264 1.7295,4.34054 0.3666,4.34054 -0.4858,0 -1.1304,0.9447 -1.4323,2.09933 -0.4817,1.84207 -1.0349,2.01723 -4.514,1.42944 -2.452,-0.41427 -4.2175,-0.26138 -4.6267,0.40067 -0.3639,0.58881 -2.2906,1.07056 -4.2816,1.07056 -3.3344,0 -7.7562,1.06778 -12.762,3.08181 -1.1,0.44257 -3.8,1.04213 -6,1.33236 -2.2,0.29022 -6.925,1.02186 -10.5,1.62586 -3.575,0.60401 -9.875,1.32591 -14,1.60423 -4.125,0.27833 -7.9275,0.92223 -8.45,1.43089 -0.5225,0.50867 -3.30844,0.92485 -6.19098,0.92485 -2.88254,0 -5.5191,0.45 -5.85902,1 -0.33992,0.55 -3.33934,1 -6.66537,1 l -6.04734,0 6.10635,5.97507 c 4.75953,4.65719 6.10636,6.62924 6.10636,8.94098 0,1.63125 0.45,3.24403 1,3.58395 0.55,0.33992 1,1.92779 1,3.5286 0,1.60081 0.9,4.51294 2,6.4714 1.1,1.95846 2,4.89715 2,6.53042 0,2.48483 0.39999,2.96958 2.45031,2.96958 1.34767,0 2.85977,0.73166 3.36022,1.62592 0.76858,1.37338 1.707,0.83302 6.04172,-3.47895 5.80711,-5.77662 9.06686,-7.03902 12.9748,-5.02472 4.01296,2.06844 5.17295,3.47385 5.17295,6.26737 0,1.39286 0.9681,3.43437 2.1513,4.53669 1.88,1.75154 1.9746,2.2182 0.75,3.70157 -1.0865,1.316 -1.1204,1.79189 -0.1513,2.11807 0.6875,0.2314 1.25,0.87625 1.25,1.43301 0,0.55677 0.9638,2.36579 2.1417,4.02007 1.3771,1.93386 1.764,3.24121 1.0838,3.66161 -0.5819,0.35962 -1.2837,4.25059 -1.5595,8.6466 -0.6076,9.68054 -1.583,15.32346 -2.7765,16.06105 -0.4892,0.30236 -0.8895,2.07163 -0.8895,3.93171 0,1.86008 -0.45,3.6601 -1,4 -0.55,0.3399 -1,2.8278 -1,5.5286 0,3.057 -0.75495,6.2547 -2,8.4714 -2.25754,4.0194 -2.50483,6.6882 -0.89792,9.6907 1.01582,1.8981 -0.0605,5.8509 -2.12632,7.8093 -0.29009,0.275 -2.03894,2.4413 -3.88632,4.814 -2.8301,3.6349 -3.19098,4.6582 -2.29231,6.5 1.74004,3.5663 2.05224,8.686 0.52968,8.686 -0.72975,0 -1.32681,0.9061 -1.32681,2.0136 0,1.1074 -0.5625,2.9212 -1.25,4.0305 -0.85414,1.3782 -0.91805,2.2448 -0.20182,2.7364 1.74501,1.1978 5.45182,6.9337 5.45182,8.436 0,3.5582 -4.50424,10.8958 -10.75,17.5123 -1.7875,1.8936 -3.25,3.6977 -3.25,4.0091 0,0.7131 -8.28943,8.2289 -9.09699,8.248 -1.08905,0.026 -4.53189,3.4873 -5.16298,5.191 -0.34414,0.929 0.0213,2.2101 0.81941,2.8724 0.79231,0.6576 1.44056,2.2389 1.44056,3.5141 0,1.2752 0.45,2.5967 1,2.9366 1.6161,0.9988 1.10873,4.8041 -1,7.5 -2.55366,3.2647 -2.51279,7.0784 0.11163,10.4148 2.08099,2.6455 2.37279,5.1431 2.81402,24.0852 0.0384,1.65 0.14686,4.35 0.24094,6 0.35672,6.2558 -0.0118,13.2081 -1.00723,19 -2.79829,16.2824 -2.75342,17.4419 0.95731,24.7364 1.30176,2.559 1.07431,15.4849 -0.31152,17.704 -0.98209,1.5726 -0.77603,2.7276 1.15722,6.4864 1.29363,2.5153 2.73132,4.5732 3.19485,4.5732 1.30108,0 0.99608,5.4467 -0.38218,6.825 -0.96661,0.9666 -0.96661,1.6386 0,3.1864 0.67373,1.0788 1.22496,3.5004 1.22496,5.3812 0,2.7454 0.98602,4.4428 5,8.6074 4.92585,5.1107 5,5.2814 5,11.5105 0,4.1211 -0.43527,6.4995 -1.25,6.83 -0.94187,0.3822 -0.88024,0.7772 0.25,1.6024 1.31387,0.9592 1.27795,1.2651 -0.28947,2.4652 -1.61103,1.2335 -1.63596,1.5236 -0.25,2.9096 0.84671,0.8467 1.53947,1.9374 1.53947,2.4238 0,0.4864 1.3173,2.1464 2.92734,3.6889 1.61004,1.5425 3.46463,4.1017 4.12132,5.6871 0.65669,1.5854 1.58939,2.8825 2.07266,2.8825 0.48327,0 0.87868,2.2868 0.87868,5.0817 0,4.3596 0.51445,5.7095 3.62046,9.5 1.99126,2.4301 4.21064,4.4183 4.93194,4.4183 2.0162,0 5.4494,5.4692 5.4325,8.6544 -0.01,1.5651 -0.6385,4.6456 -1.4006,6.8456 -1.2327,3.5587 -1.7828,4.0342 -4.985,4.3104 -3.5741,0.3082 -3.59941,0.3432 -3.61461,5 -0.0208,6.3763 -0.88072,7.4222 -5.80952,7.0664 -3.1228,-0.2255 -4.66058,0.2306 -6.45203,1.9136 -2.59109,2.4342 -5.76337,2.8259 -8.58984,1.0608 -1.41439,-0.8833 -2.5669,-0.8269 -4.98643,0.2441 -1.73078,0.7661 -3.14687,1.7331 -3.14687,2.1488 0,0.4158 -2.16581,0.7559 -4.81291,0.7559 -5.63923,0 -8.51958,-2.3928 -12.67031,-10.5258 -2.24647,-4.4018 -2.60833,-4.7153 -3.14433,-2.7242 -0.33314,1.2375 -0.97334,2.25 -1.42266,2.25 -0.44932,0 -0.95934,1.2042 -1.13337,2.6759 -0.41869,3.5408 -5.00285,6.1572 -10.95211,6.251 -6.45541,0.1018 -12.86431,-3.5627 -12.86431,-7.3555 0,-0.8643 -0.45,-1.5714 -1,-1.5714 -0.55,0 -1,-0.8734 -1,-1.941 0,-1.0675 -0.45,-2.2191 -1,-2.559 -1.27197,-0.7861 -1.31247,-7.1888 -0.0504,-7.9688 0.52227,-0.3228 0.69308,-2.7527 0.37957,-5.3998 -0.59123,-4.992 0.7512,-9.1314 2.96133,-9.1314 1.96175,0 3.70923,-6.9065 2.44792,-9.6748 -1.05839,-2.3229 -0.66123,-3.8375 2.57635,-9.8252 0.59478,-1.1 1.21529,-3.35 1.37892,-5 0.16363,-1.65 0.56165,-4.5841 0.8845,-6.5203 0.46261,-2.7743 0.14571,-3.9196 -1.49559,-5.405 -2.32606,-2.105 -2.64584,-5.6605 -0.94733,-10.5329 0.91101,-2.6133 0.86163,-3.4329 -0.25,-4.1492 -1.16641,-0.7516 -1.14828,-1.0482 0.11474,-1.8773 1.33118,-0.8739 1.33012,-0.9864 -0.009,-1 -2.13449,-0.022 -3.97017,-3.3772 -3.28366,-6.0024 0.3216,-1.2298 0.0555,-2.5417 -0.59736,-2.9452 -1.61783,-0.9999 -0.28551,-4.0725 1.47323,-3.3976 1.64727,0.6321 2.02815,-3.1745 0.41724,-4.1701 -0.55,-0.3399 -1,-2.25 -1,-4.2446 0,-2.3328 -0.7658,-4.4416 -2.14677,-5.9116 -1.79875,-1.9147 -1.93643,-2.5386 -0.84927,-3.8486 1.05566,-1.272 1.05949,-2.0081 0.0205,-3.9495 -0.71737,-1.3404 -1.86882,-2.1589 -2.62749,-1.8678 -1.49211,0.5726 -4.17646,-4.2318 -3.01395,-5.3943 0.38935,-0.3893 1.58745,-0.1586 2.66244,0.5127 1.47842,0.9233 1.95452,0.9333 1.95452,0.041 0,-0.6488 0.74474,-2.0027 1.65499,-3.0085 1.53344,-1.6944 1.53407,-1.8287 0.008,-1.8287 -0.90558,0 -2.20857,-0.9 -2.89553,-2 -0.68696,-1.1 -2.01912,-2 -2.96034,-2 -3.02608,0 -8.80759,-6.9166 -8.80759,-10.5368 0,-2.3092 -0.53081,-3.3687 -1.86206,-3.7169 -2.91797,-0.763 -5.13794,-6.3781 -5.13794,-12.9956 0,-4.2123 -0.54809,-6.7146 -1.88292,-8.5963 -3.3838,-4.7702 -6.11708,-10.1775 -6.11708,-12.1015 0,-1.0374 -0.3375,-2.0425 -0.75,-2.2334 -0.4125,-0.191 -2.24247,-1.9683 -4.0666,-3.9497 l -3.3166,-3.6024 2.06286,-3.3837 c 2.22802,-3.6546 2.88441,-11.8837 0.9479,-11.8837 -0.81973,0 -0.81405,-0.3716 0.0211,-1.3779 0.89848,-1.0826 0.71043,-1.4911 -0.87755,-1.9063 -2.11965,-0.5543 -2.83486,-2.7158 -0.89864,-2.7158 0.77551,0 0.73766,-0.4636 -0.12244,-1.5 -0.99662,-1.2009 -0.9806,-1.8184 0.0803,-3.0968 1.11744,-1.3464 1.05825,-1.7461 -0.37756,-2.5497 -2.05307,-1.1489 -2.36056,-6.8535 -0.36943,-6.8535 0.80259,0 1.33334,-1.1468 1.33334,-2.8811 0,-2.3802 -0.66725,-3.1755 -3.83797,-4.5744 -4.20937,-1.8571 -6.821,-5.3132 -4.90831,-6.4953 0.76175,-0.4708 0.47118,-1.2898 -0.89676,-2.5278 -2.08009,-1.8826 -2.80824,-6.5215 -1.02361,-6.5215 0.55,0 1,-1.125 1,-2.5 0,-1.5556 -0.56667,-2.5 -1.5,-2.5 -0.83333,0 -1.5,-0.8889 -1.5,-2 0,-2.2133 1.547,-2.7096 2.33772,-0.75 0.27741,0.6875 0.53991,-1.1125 0.58333,-4 0.0434,-2.8875 0.52895,-5.25 1.07895,-5.25 0.55,0 1,-1.125 1,-2.5 0,-1.5556 -0.56667,-2.5 -1.5,-2.5 -0.825,0 -1.5,-0.45 -1.5,-1 0,-0.55 -0.9,-1 -2,-1 -1.1,0 -2,-0.4611 -2,-1.0248 0,-0.5636 -1.10147,-1.4435 -2.4477,-1.9553 -1.34624,-0.5119 -3.25874,-2.1714 -4.25,-3.6879 -0.99127,-1.5166 -3.2648,-4.2216 -5.0523,-6.0113 -1.7875,-1.7897 -3.26001,-3.8315 -3.27224,-4.5374 -0.0122,-0.7058 -0.90222,-2.4083 -1.97776,-3.7833 -1.07554,-1.375 -1.96553,-3.0813 -1.97776,-3.7918 -0.0122,-0.7105 -0.92224,-2.2579 -2.02224,-3.4386 -1.1,-1.1807 -2,-3.1869 -2,-4.4582 0,-1.2713 -0.45,-2.3114 -1,-2.3114 -0.55,0 -1,-0.9061 -1,-2.0136 0,-1.1074 -0.40614,-2.7949 -0.90254,-3.75 -0.49639,-0.955 -1.49403,-3.7614 -2.21698,-6.2364 -0.72295,-2.475 -1.90917,-4.9567 -2.63605,-5.5148 -2.01124,-1.5443 -4.42001,-14.2312 -3.10253,-16.3408 0.81561,-1.306 0.57062,-2.5954 -1.03699,-5.45762 -1.1577,-2.06119 -2.11492,-4.29643 -2.12715,-4.9672 -0.0122,-0.67077 -0.90222,-2.34458 -1.97776,-3.71958 -1.07554,-1.375 -1.96553,-3.2875 -1.97776,-4.25 -0.0122,-0.9625 -0.47224,-1.75 -1.02224,-1.75 -0.55,0 -1,-0.87344 -1,-1.94098 0,-1.06754 -0.45,-2.2191 -1,-2.55902 -0.55,-0.33992 -1,-1.27138 -1,-2.06992 0,-1.88461 -4.07549,-10.68506 -5.4443,-11.75621 -0.72197,-0.56498 -0.66055,-0.98647 0.1943,-1.33333 2.1512,-0.87288 1.38568,-2.70979 -2.75164,-6.60266 l -3.99836,-3.76213 0,3.65317 c 0,4.51698 -5.77134,12.56016 -10.68585,14.89225 -2.89394,1.37326 -4.66079,4.46482 -2.56415,4.48663 1.01467,0.0106 3.25,4.95688 3.25,7.19156 0,0.99035 -0.45,1.80064 -1,1.80064 -0.55,0 -1,1.35611 -1,3.01357 0,1.65746 -0.3975,3.79496 -0.88333,4.75 -0.48583,0.95504 -1.47783,3.08643 -2.20444,4.73643 -0.72662,1.65 -2.07497,3.9 -2.99634,5 -1.0967,1.3093 -1.84532,4.5314 -2.16777,9.3301 -0.43894,6.5325 -0.26161,7.5495 1.62967,9.346 1.16722,1.1088 3.13471,2.4116 4.37221,2.8952 1.25879,0.4919 2.25,1.7345 2.25,2.8206 0,1.0678 0.48612,2.1035 1.08028,2.3015 0.73296,0.2443 0.77408,1.1553 0.12789,2.8334 -0.52381,1.3602 -1.52365,4.2732 -2.22187,6.4732 -0.69822,2.2 -2.55577,5.8811 -4.1279,8.1802 -1.57212,2.2991 -2.8584,4.6134 -2.8584,5.143 0,0.5295 -0.68581,1.226 -1.52402,1.5476 -0.83822,0.3217 -1.85072,1.4628 -2.25,2.5358 -0.39929,1.073 -5.56348,6.954 -11.47598,13.0688 -5.9125,6.1149 -10.75,11.5253 -10.75,12.0232 0,0.4979 -1.9125,2.2544 -4.25,3.9032 -2.3375,1.6489 -6.01178,4.8157 -8.16507,7.0373 -2.15328,2.2217 -5.14268,4.5828 -6.6431,5.2469 -1.50041,0.6642 -2.53375,1.7139 -2.29629,2.3327 0.23745,0.6188 -0.59815,1.673 -1.8569,2.3428 -5.14896,2.7396 -6.59093,3.8666 -11.37266,8.8885 -2.74939,2.8875 -5.34243,5.25 -5.76231,5.25 -0.41987,0 -3.32622,1.7054 -6.45854,3.7898 -10.2227,6.8026 -14.0218,7.6611 -17.87674,4.0396 -2.80574,-2.6359 -4.06593,-1.7655 -2.48083,1.7134 0.63934,1.4032 1.16244,4.8223 1.16244,7.5979 0,4.2055 -0.3333,5.1337 -2,5.5696 -1.49403,0.3906 -2,1.364 -2,3.8473 0,1.8284 -0.45,3.6025 -1,3.9424 -1.70505,1.0538 -1.1011,4.3755 1,5.5 1.42823,0.7644 2,2.0938 2,4.6503 0,2.8545 -0.75397,4.2706 -3.7208,6.9881 -2.76205,2.5299 -3.77837,4.308 -3.94422,6.9005 -0.12288,1.9208 -0.99109,4.2601 -1.92935,5.1983 -1.96375,1.9638 -6.10761,4.2509 -7.76994,4.2885 -0.62463,0.014 -3.31202,2.2453 -5.97199,4.9582 l -4.83629,4.9325 0.20061,8.2918 c 0.22775,9.414 -0.68793,14.7241 -2.67021,15.4847 -0.88846,0.341 -1.35781,2.2171 -1.35781,5.4277 0,2.6986 -0.5625,5.9129 -1.25,7.143 -1.77215,3.1706 -5.94868,7.7364 -7.07685,7.7364 -2.11541,0 -3.6112,3.7997 -3.64135,9.25 -0.0175,3.1625 -0.4818,5.75 -1.0318,5.75 -1.30583,0 -1.30583,12.4196 0,15.0136 0.55,1.0925 1.45,2.8803 2,3.9728 0.55,1.0926 1,3.7926 1,6 0,3.3011 0.66572,4.6828 3.75,7.7833 6.98929,7.0261 7.43341,17.4723 1.06456,25.0396 -2.36081,2.805 -3.29053,3.1907 -7.69098,3.1907 -2.75305,0 -5.28366,0.45 -5.62358,1 -0.33992,0.55 -1.68992,1 -3,1 -1.31008,0 -2.62319,0.3903 -2.91802,0.8674 -0.68715,1.1118 -8.90079,2.402 -14.08198,2.2121 -13.14524,-0.482 -14.51364,-0.3771 -16.31227,1.2506 -1.01487,0.9184 -2.1888,1.6699 -2.60874,1.6699 -0.41994,0 -1.9077,0.9 -3.30612,2 -1.39842,1.1 -3.3819,2 -4.40773,2 -1.02583,0 -1.868646,0.3375 -1.872936,0.75 -0.004,0.4125 -1.21901,1.3125 -2.69937,2 -3.21086,1.4912 -11.29283,1.6701 -11.29283,0.25 0,-0.55 -1.35,-1 -3,-1 -1.65,0 -3.00351,0.3375 -3.0078,0.75 -0.0171,1.6453 -5.72316,3.25 -11.55671,3.25 -4.65158,0 -6.79018,-0.4912 -8.70836,-2 -2.69944,-2.1234 -5.25,-2.581 -6.16184,-1.1056 -0.76793,1.2425 -8.50276,1.9173 -11.74304,1.0245 -2.93434,-0.8085 -3.4096,-0.2189 -4.90182,6.0811 -0.45595,1.925 -1.3398,5.525 -1.96411,8 -0.62431,2.475 -1.36519,6.4125 -1.64641,8.75 -0.28121,2.3375 -0.91598,4.25 -1.4106,4.25 -0.49462,0 -0.89931,0.52 -0.89931,1.1556 0,2.0024 -5.02762,7.8444 -6.75089,7.8444 -1.28264,0 -1.38244,0.2667 -0.44911,1.2 1.76719,1.7672 1.46032,5.2544 -0.62874,7.145 -2.04385,1.8497 -11.62677,2.345 -12.67126,0.655 z m 43.15163,-79.5691 c 1.30954,-1.413 2.16473,-2.919 1.90043,-3.3467 -0.26431,-0.4276 2.76586,-4.1105 6.73369,-8.1842 6.89747,-7.0814 11.80295,-9.9 17.22989,-9.9 0.85092,0 1.80615,-0.675 2.12273,-1.5 0.31659,-0.825 1.15585,-1.5 1.86503,-1.5 1.94404,0 7.4966,-6.7762 7.4966,-9.1486 0,-3.0021 3.91027,-9.716 8.25,-14.1652 4.315666,-4.4246 5.134256,-9.0909 1.749996,-9.9759 -1.681386,-0.4397 -1.999996,-1.3641 -1.999996,-5.8022 0,-5.6577 2.600996,-9.9081 6.063196,-9.9081 1.01901,0 1.65823,-0.7097 1.57569,-1.7495 -0.088,-1.1078 0.6864,-1.8669 2.11111,-2.0696 2.93169,-0.417 2.87042,-2.905 -0.12965,-5.2649 -2.07897,-1.6353 -2.31383,-2.4748 -1.85873,-6.6439 0.2865,-2.6247 1.13235,-5.132 1.87965,-5.5718 0.7473,-0.4398 1.35873,-1.4664 1.35873,-2.2814 0,-0.8149 0.675,-1.7407 1.5,-2.0573 0.825,-0.3166 1.5,-1.6259 1.5,-2.9096 0,-1.2837 0.40775,-2.586 0.90612,-2.894 0.49837,-0.308 0.68291,-1.4135 0.4101,-2.4568 -0.67873,-2.5954 1.48809,-6.3903 3.26047,-5.7101 0.78282,0.3004 1.42331,0.1103 1.42331,-0.4225 0,-0.5327 -0.45,-0.9686 -1,-0.9686 -1.11913,0 -1.40658,-13.2601 -0.31119,-14.3555 1.02657,-1.0265 1.20551,-23.6445 0.18705,-23.6445 -1.65204,0 -0.87601,-7.9389 1.12414,-11.5 1.1,-1.9585 2,-5.3533 2,-7.544 0,-3.8214 0.25095,-4.6766 2.84387,-9.6924 0.63587,-1.2301 1.15613,-3.3834 1.15613,-4.7852 0,-2.4948 2.44554,-7.2544 4.4769,-8.7131 0.56271,-0.4041 0.0372,-0.7416 -1.16788,-0.75 -2.89134,-0.02 -3.57636,-1.3332 -3.46963,-6.6504 0.0596,-2.9688 -0.72125,-5.8735 -2.37531,-8.8362 -3.0251,-5.4185 -3.04433,-5.8476 -0.22192,-4.9518 2.07683,0.6591 2.13374,0.5719 0.77184,-1.1827 -0.80868,-1.0418 -2.84717,-3.2856 -4.52998,-4.9863 -1.68281,-1.7006 -3.649,-5.0756 -4.3693,-7.5 -0.72031,-2.4243 -1.71579,-5.1893 -2.21218,-6.1443 -0.4964,-0.9551 -0.90943,-5.0051 -0.91785,-9 -0.0107,-5.0589 -0.30955,-6.8083 -0.98469,-5.7636 -0.53316,0.825 -0.97627,2.7109 -0.98469,4.191 -0.008,1.48 -0.46531,2.9691 -1.01531,3.309 -0.55,0.3399 -1,2.3915 -1,4.559 0,2.1676 -0.45,3.941 -1,3.941 -0.55,0 -1,1.8 -1,4 0,2.2 -0.45,4 -1,4 -1.78628,0 -1.1417,6.8171 0.75,7.932 1.52665,0.8998 1.55855,1.16 0.25,2.0392 -0.825,0.5543 -2.0625,0.8016 -2.75,0.5497 -0.89912,-0.3295 -1.25,1.0109 -1.25,4.7753 0,3.3229 -0.730116,6.5957 -1.999996,8.965 -1.1,2.0523 -2,5.0566 -2,6.6762 0,1.6195 -0.45,3.2227 -1,3.5626 -0.55,0.3399 -1,1.9149 -1,3.5 0,1.5851 -0.45,3.1601 -1,3.5 -0.55,0.3399 -1,2.3649 -1,4.5 0,2.1351 -0.45,4.1601 -1,4.5 -0.55,0.3399 -1,1.9149 -1,3.5 0,1.5851 -0.45,3.1601 -1,3.5 -0.55,0.3399 -1,2.1399 -1,4 0,1.8601 -0.45,3.6601 -1,4 -0.55,0.3399 -1,1.9149 -1,3.5 0,1.5851 -0.45,3.1601 -1,3.5 -0.55,0.3399 -1,2.5899 -1,5 0,2.4101 -0.45,4.6601 -1,5 -0.55,0.3399 -1,1.9149 -1,3.5 0,1.5851 -0.45,3.1601 -1,3.5 -0.55,0.3399 -1,2.1399 -1,4 0,1.8601 -0.45,3.6601 -1,4 -0.55,0.3399 -1,2.1399 -1,4 0,1.8601 -0.45,3.6601 -1,4 -0.55,0.3399 -1.01986,1.829 -1.04413,3.309 -0.0525,3.2032 -2.22619,11.7947 -3.24075,12.8092 -0.39332,0.3933 -0.71512,2.4136 -0.71512,4.4894 0,2.0759 -0.45,4.0525 -1,4.3924 -0.55,0.3399 -1,2.1665 -1,4.059 0,1.8926 -0.45,3.441 -1,3.441 -0.55,0 -1,1.7734 -1,3.941 0,2.1675 -0.45,4.2191 -1,4.559 -0.55,0.3399 -1,1.9476 -1,3.5726 0,1.625 -0.39476,3.7359 -0.87724,4.691 -1.57263,3.1128 -3.12276,8.8206 -3.12276,11.4984 0,1.441 -0.45,2.8981 -1,3.238 -0.55,0.3399 -1,1.9415 -1,3.559 0,1.6176 -0.40469,2.941 -0.89931,2.941 -0.49461,0 -1.15531,1.9125 -1.46821,4.25 -1.36823,10.2214 -1.89763,12.7958 -2.73811,13.3153 -0.4919,0.304 -0.89437,1.8496 -0.89437,3.4347 0,1.5851 -0.45,3.1601 -1,3.5 -0.55,0.3399 -1,2.3649 -1,4.5 0,2.1351 -0.45,4.1601 -1,4.5 -0.55,0.3399 -1.00677,2.054 -1.01506,3.809 -0.0148,3.1259 -2.00136,10.0408 -3.24075,11.2801 -0.77208,0.7721 1.39894,4.4109 2.63169,4.4109 0.49213,0 1.96622,-1.1561 3.27575,-2.5691 z M 122.54944,975.5212 c 1.61205,-0.8336 3.52082,-2.3354 4.24171,-3.3372 0.72088,-1.0019 2.04688,-2.0957 2.94665,-2.4306 0.89978,-0.335 2.91096,-3.1271 4.46929,-6.2047 2.41029,-4.7601 3.39786,-5.74762 6.61405,-6.61365 3.41543,-0.91968 3.78071,-1.3404 3.78071,-4.35449 0,-5.39481 1.14777,-9.58646 2.625,-9.58646 0.86111,0 1.375,-1.12121 1.375,-3 0,-1.65 0.45,-3 1,-3 0.55,0 1.00689,-1.2375 1.01531,-2.75 0.008,-1.5125 0.46757,-3.425 1.02032,-4.25 0.85771,-1.28016 1.29514,-1.154 2.98469,0.86078 l 1.97968,2.36079 0.1113,-2.36079 c 0.59697,-12.66186 3.58973,-31.17161 6.28325,-38.86078 0.86699,-2.475 1.58289,-5.2875 1.5909,-6.25 0.008,-0.9625 0.46455,-1.75 1.01455,-1.75 0.55,0 1,-0.68111 1,-1.51357 0,-0.83246 0.3975,-2.29496 0.88333,-3.25 2.42155,-4.76023 2.92947,-7.30004 2.74709,-13.73643 l -0.19835,-7 -5.96604,-0.73135 c -14.95048,-1.83271 -18.44943,-1.88897 -17.83461,-0.28676 0.32041,0.83496 0.0844,1.51811 -0.52443,1.51811 -0.60885,0 -1.10699,1.26 -1.10699,2.8 0,1.54 -0.52093,3.32093 -1.15762,3.95762 -0.87682,0.87682 -0.85273,1.52498 0.0993,2.67212 1.02351,1.23325 0.95363,1.8178 -0.37633,3.14775 -0.91919,0.9192 -1.38202,2.42479 -1.05863,3.44373 0.31605,0.99575 0.10632,2.09989 -0.46605,2.45364 -0.57237,0.35375 -1.04067,1.71506 -1.04067,3.02514 0,1.31008 -0.45,2.66008 -1,3 -0.55,0.33992 -1,1.91492 -1,3.5 0,1.58508 -0.45,3.16008 -1,3.5 -0.55,0.33992 -1,2.13992 -1,4 0,1.86008 -0.45,3.66008 -1,4 -0.55,0.33992 -1,2.81492 -1,5.5 0,2.68508 -0.45,5.16008 -1,5.5 -0.55,0.33992 -1,1.91492 -1,3.5 0,1.58508 -0.45,3.16008 -1,3.5 -0.55,0.33992 -1,2.39148 -1,4.55902 0,2.16754 -0.45,3.94098 -1,3.94098 -0.55,0 -1,1.54844 -1,3.44098 0,1.89254 -0.45,3.7191 -1,4.05902 -0.55,0.33992 -1,2.13992 -1,4 0,1.86008 -0.45,3.66008 -1,4 -0.55,0.33992 -1,2.39148 -1,4.55902 0,2.16754 -0.45,3.94098 -1,3.94098 -0.55,0 -1,1.8 -1,4 0,2.2 -0.45,4 -1,4 -0.55,0 -1,1.77344 -1,3.94098 0,2.16752 -0.45,4.21912 -1,4.55902 -0.55,0.3399 -1,2.1399 -1,4 0,1.8601 -0.40247,3.6307 -0.89437,3.9347 -0.4919,0.304 -1.11581,2.2431 -1.38648,4.309 -0.27066,2.066 -0.79076,4.8813 -1.15578,6.2563 -0.36502,1.375 0.48763,0.3721 1.89478,-2.2286 1.40714,-2.6007 3.87739,-5.4107 5.48944,-6.2443 z"
     id="path2987"
     inkscape:connector-curvature="0" />
</svg>
