<?xml version="1.0" encoding="UTF-8" standalone="no"?>
<!-- Created with Inkscape (http://www.inkscape.org/) -->

<svg
   xmlns:dc="http://purl.org/dc/elements/1.1/"
   xmlns:cc="http://creativecommons.org/ns#"
   xmlns:rdf="http://www.w3.org/1999/02/22-rdf-syntax-ns#"
   xmlns:svg="http://www.w3.org/2000/svg"
   xmlns="http://www.w3.org/2000/svg"
   xmlns:sodipodi="http://sodipodi.sourceforge.net/DTD/sodipodi-0.dtd"
   xmlns:inkscape="http://www.inkscape.org/namespaces/inkscape"
   id="svg2"
   version="1.1"
   inkscape:version="0.48.2 r9819"
   width="302.98425"
   height="636.0722"
   sodipodi:docname="scottishfairyboo00grierich_0029f.png">
  <metadata
     id="metadata8">
    <rdf:RDF>
      <cc:Work
         rdf:about="">
        <dc:format>image/svg+xml</dc:format>
        <dc:type
           rdf:resource="http://purl.org/dc/dcmitype/StillImage" />
        <dc:title></dc:title>
      </cc:Work>
    </rdf:RDF>
  </metadata>
  <defs
     id="defs6" />
  <sodipodi:namedview
     pagecolor="#ffffff"
     bordercolor="#666666"
     borderopacity="1"
     objecttolerance="10"
     gridtolerance="10"
     guidetolerance="10"
     inkscape:pageopacity="0"
     inkscape:pageshadow="2"
     inkscape:window-width="1920"
     inkscape:window-height="1176"
     id="namedview4"
     showgrid="false"
     fit-margin-top="0"
     fit-margin-left="0"
     fit-margin-right="0"
     fit-margin-bottom="0"
     inkscape:zoom="1"
     inkscape:cx="161"
     inkscape:cy="307.8816"
     inkscape:window-x="0"
     inkscape:window-y="24"
     inkscape:window-maximized="1"
     inkscape:current-layer="svg2" />
  <path
     style="fill:#000000"
     d="m 38.85806,636.06561 c -2.82806,0.0688 -6.41101,-0.40861 -7.96211,-1.06079 -1.55109,-0.65219 -4.84071,-3.20634 -7.31026,-5.67589 -2.46956,-2.46955 -4.87547,-5.98595 -5.34648,-7.81421 -0.83071,-3.22444 -1.03794,-3.3391 -6.91123,-3.82411 C 6.06487,617.25599 4.92839,616.77946 2.63657,614.04625 1.18549,612.31571 0,609.66208 0,608.14452 c 0,-1.51656 1.96522,-6.1766 4.36716,-10.35565 3.23646,-5.631 4.49653,-9.02226 4.86684,-13.09826 0.27482,-3.025 1.02109,-6.625 1.65837,-8 0.63728,-1.375 2.25953,-4.01025 3.60501,-5.85612 1.34548,-1.84586 3.58399,-7.08593 4.97447,-11.64461 1.63926,-5.37427 2.53311,-10.69885 2.54226,-15.14388 0.0103,-5.01007 1.05738,-10.3818 3.88987,-19.95606 2.22684,-7.52704 3.6618,-14.21995 3.37285,-15.73152 -0.27661,-1.44697 -0.24446,-3.66063 0.0714,-4.91923 0.31589,-1.25861 1.49387,-3.27537 2.61773,-4.4817 1.12387,-1.20632 3.18332,-5.80183 4.57656,-10.21223 1.94369,-6.15287 3.87335,-9.71019 8.29226,-15.28678 3.16749,-3.99733 7.13468,-9.74287 8.81597,-12.76787 1.6813,-3.025 4.50556,-9.16862 6.27616,-13.65248 2.18949,-5.5447 3.83562,-8.31367 5.14616,-8.65638 1.31943,-0.34504 1.9269,-1.38005 1.9269,-3.28307 0,-1.52854 0.87361,-3.70909 1.94136,-4.84565 1.35919,-1.44679 2.38974,-5.06469 3.43655,-12.06446 0.82235,-5.49888 2.4166,-14.04796 3.54277,-18.99796 1.12618,-4.95 3.20238,-13.275 4.61378,-18.5 1.4114,-5.225 2.6124,-11.3 2.66888,-13.5 0.0565,-2.2 -0.23733,-10.75 -0.65293,-19 -0.64684,-12.84039 -0.44777,-17.0645 1.3827,-29.33939 1.17608,-7.88667 2.74036,-15.98667 3.47618,-18 0.73582,-2.01334 4.40601,-10.63561 8.15597,-19.16061 3.74997,-8.525 8.21353,-17.75 9.91903,-20.5 1.7055,-2.75 3.64424,-6.25867 4.30831,-7.79705 0.6853,-1.58757 1.2074,-7.27317 1.2074,-13.14846 0,-9.72798 -0.19093,-10.70381 -3.17032,-16.20294 -1.74367,-3.21835 -4.95889,-9.45155 -7.14492,-13.85155 -2.24664,-4.52198 -4.45505,-10.82589 -5.07969,-14.5 -0.94821,-5.57737 -1.42444,-6.54536 -3.35507,-6.81955 -1.2375,-0.17575 -2.25,0.16175 -2.25,0.75 0,0.61516 -2.10013,1.06955 -4.9433,1.06955 -3.8944,0 -5.25664,-0.44737 -6.42008,-2.10841 -0.81223,-1.15962 -1.96275,-1.80807 -2.5567,-1.44098 -0.59396,0.36708 -1.07992,2.16077 -1.07992,3.98596 0,1.8252 -0.64608,3.85473 -1.43572,4.51008 -0.78965,0.65535 -1.734,2.62295 -2.09856,4.37245 -0.36456,1.74949 -2.08098,5.3068 -3.81428,7.90511 -1.73329,2.59832 -3.65884,4.73582 -4.279,4.75 -0.62015,0.0142 -1.72744,-0.69703 -2.46063,-1.58047 -0.9966,-1.20083 -1.56346,-9.18189 -2.24579,-31.61949 l -0.91271,-30.01323 4.17072,-8.2255 c 3.9139,-7.71901 4.15491,-8.68147 3.91416,-15.63051 -0.22456,-6.48172 0.062,-7.90375 2.29846,-11.40501 1.9286,-3.01933 2.72949,-5.96134 3.26668,-12 0.39142,-4.400004 1.63124,-12.275004 2.75517,-17.500004 1.12392,-5.225 2.72747,-10.625 3.56345,-12 0.83598,-1.375 3.37803,-3.85942 5.64901,-5.52094 3.61779,-2.64689 4.4668,-4.07081 6.85685,-11.5 1.95291,-6.0704 3.51531,-9.106587 5.5,-10.688104 1.5247,-1.214974 3.76338,-3.175443 4.97484,-4.356597 1.48298,-1.445884 2.91913,-5.248091 4.39551,-11.63715 1.41831,-6.137802 3.0349,-10.490319 4.57686,-12.322841 1.31121,-1.558284 4.50824,-3.550178 7.1045,-4.426431 2.59626,-0.876252 7.64548,-3.2094657 11.22048,-5.1849197 3.575,-1.975453 7.78997,-4.274404 9.36659,-5.10878 1.83562,-0.971439 6.50814,-1.648804 12.9918,-1.883392 5.59819,-0.202551 11.57444,0.111944 13.36659,0.703404 1.78275,0.588362 4.19559,2.409829 5.36186,4.047706 1.16627,1.637877 4.48968,4.315042 7.38535,5.9492567 2.89567,1.634215 7.53962,5.586659 10.3199,8.78321 3.56739,4.101525 5.55017,7.515104 6.7375,11.599385 1.09985,3.783336 1.54551,8.08315 1.28698,12.416834 -0.36589,6.133116 -0.77707,7.145734 -5.49304,13.527669 -5.00985,6.77963 -5.07368,6.95541 -3.71054,10.21788 0.76286,1.82576 1.38701,4.64722 1.38701,6.2699 0,1.62269 -0.27314,3.66214 -0.60699,4.53212 -0.38847,1.01233 -1.82851,1.58179 -4,1.58179 -3.17999,0 -3.39301,0.20965 -3.39301,3.33948 0,2.54184 -0.56547,3.59714 -2.36744,4.41817 -2.08607,0.95047 -2.38377,1.80149 -2.50491,7.16051 l -0.13745,6.081844 15.89795,0 c 10.71665,0 18.4324,-0.52413 23.67447,-1.608224 4.27709,-0.88452 9.61273,-2.39554 11.85697,-3.35782 2.24424,-0.96228 7.23044,-3.78159 11.08044,-6.26513 3.85,-2.48354 10.375,-6.24143 14.5,-8.35087 6.40006,-3.27285 8.46582,-3.8414 14.0855,-3.87665 5.62423,-0.0353 7.17595,0.36787 10.63058,2.76194 3.76751,2.61088 4.07714,3.18976 4.5122,8.43593 0.31663,3.81813 -0.22831,8.39159 -1.69156,14.196764 -1.39633,5.53965 -1.91629,9.71464 -1.47235,11.82208 0.37747,1.79192 1.95286,4.26692 3.50086,5.5 1.548,1.23309 3.5166,2.76948 4.37466,3.4142 1.13979,0.85641 1.50723,2.70003 1.36384,6.84298 -0.14741,4.2591 0.44368,7.07901 2.37446,11.32778 1.41389,3.11136 4.08972,9.24004 5.94627,13.61929 1.85654,4.37925 3.37554,8.67675 3.37554,9.55 0,0.87325 0.43807,2.0258 0.97349,2.56122 0.53542,0.53542 1.66035,4.56292 2.49983,8.95 0.84938,4.43877 1.51946,13.29876 1.51084,19.97651 -0.0104,8.05521 -0.66232,15.06444 -1.98312,21.32197 -1.20373,5.7029 -3.34249,11.91459 -5.50898,16 -1.94775,3.67292 -5.39583,8.64339 -7.6624,11.0455 -2.26658,2.40211 -8.89298,7.62343 -14.72535,11.60294 -5.83237,3.97951 -13.52931,8.83279 -17.10431,10.78507 -3.575,1.95227 -11,5.19153 -16.5,7.19835 -5.5,2.00682 -16.7583,6.34723 -25.01844,9.64534 -8.26014,3.29812 -15.47887,6.31253 -16.04162,6.6987 -0.68215,0.46811 -0.75778,6.03494 -0.22691,16.70213 0.43794,8.8 1.69598,27.77005 2.79564,42.15567 1.86789,24.43553 1.9017,27.29634 0.51424,43.5 -0.81683,9.53938 -2.93296,27.46933 -4.70252,39.84433 -1.76956,12.375 -3.12876,25.65 -3.02044,29.5 0.10831,3.85 0.64388,26.20011 1.19015,49.6669 l 0.99323,42.6669 -2.52367,8.70863 c -1.38801,4.78975 -3.02519,9.64575 -3.63817,10.79112 -0.61299,1.14537 -1.21616,3.00138 -1.34038,4.12447 -0.12423,1.12309 -0.28329,2.37948 -0.35349,2.79198 -0.0702,0.4125 -0.81674,0.75 -1.659,0.75 -0.84227,0 -1.79351,0.68308 -2.11389,1.51796 -0.32037,0.83488 -0.0462,2.81275 0.60933,4.39527 0.6555,1.58252 2.93036,4.27444 5.05524,5.98204 2.12488,1.7076 4.67874,3.10473 5.67524,3.10473 0.99651,0 4.85739,0.87095 8.57975,1.93545 3.72236,1.0645 10.47092,4.1703 14.99682,6.90178 4.52589,2.73148 10.62619,5.51376 13.55622,6.18284 2.93004,0.66908 6.81904,0.97445 8.64223,0.67858 2.10964,-0.34235 4.09811,0.0107 5.46905,0.9709 1.18478,0.82986 2.71463,1.29376 3.39966,1.03088 0.68503,-0.26287 2.06906,0.12425 3.07561,0.86026 1.66001,1.21382 1.68474,1.48354 0.26614,2.90214 -0.86017,0.86018 -2.94006,1.83918 -4.62198,2.17556 -1.68192,0.33639 -3.05804,0.93413 -3.05804,1.32832 0,0.39419 -1.73971,1.23794 -3.86602,1.875 -2.22045,0.66527 -10.57679,1.15829 -19.63197,1.15829 -13.57973,0 -16.19831,-0.25768 -18.88398,-1.85824 -2.79538,-1.66595 -3.9976,-1.7519 -11.61803,-0.8306 -4.675,0.56519 -15.025,0.90654 -23,0.75855 -9.06106,-0.16815 -15.02652,-0.70057 -15.90369,-1.4194 -0.77204,-0.63267 -1.67204,-1.10751 -2,-1.05521 -0.32797,0.0523 -1.78896,-0.78665 -3.24664,-1.86437 -2.64379,-1.95463 -2.64653,-1.97092 -1.11186,-6.5951 0.84617,-2.5496 2.1021,-5.31063 2.79097,-6.13563 0.68887,-0.825 3.31819,-5.63654 5.84292,-10.69231 l 4.59043,-9.19232 -2.61592,-2.05768 c -1.78912,-1.40732 -4.08664,-2.05769 -7.26908,-2.05769 -2.55923,0 -9.83908,-0.64332 -16.17744,-1.4296 -7.67442,-0.95202 -13.46593,-2.28829 -17.33643,-4 -3.19666,-1.41372 -7.12405,-2.5704 -8.72753,-2.5704 -1.60347,0 -4.58498,0.83552 -6.62557,1.85671 -3.12696,1.56485 -4.81049,1.73011 -10.71016,1.05135 -3.85,-0.44295 -9.75225,-0.82847 -13.11611,-0.85671 -5.0707,-0.0426 -7.72006,-0.80157 -15.5,-4.44052 -5.16114,-2.41405 -11.07455,-4.68503 -13.14091,-5.04663 -3.39884,-0.59478 -3.85094,-0.41045 -4.74209,1.93346 -0.54179,1.425 -1.62602,7.48564 -2.40941,13.46807 -1.12095,8.56033 -1.17589,11.81668 -0.25791,15.28806 0.64154,2.42599 2.34625,5.80231 3.78825,7.50294 1.442,1.70063 6.167,4.88456 10.5,7.0754 4.333,2.19085 9.29104,5.48737 11.01787,7.32561 1.72682,1.83824 3.47336,4.46726 3.88119,5.84226 0.40783,1.375 1.58247,3.69447 2.61032,5.15437 1.02784,1.4599 1.8688,3.3724 1.8688,4.25 0,1.38683 -2.02825,1.61199 -15.5,1.72063 -8.525,0.0688 -17.81387,0.18125 -20.64194,0.25 z M 228.49055,258.68297 c 0.5552,-0.004 3.79349,-0.85433 7.19621,-1.88918 3.40271,-1.03484 9.02771,-3.60388 12.5,-5.70896 3.47228,-2.10508 9.14964,-5.80645 12.61635,-8.22526 3.59265,-2.50669 8.41673,-7.18987 11.21827,-10.89061 2.70333,-3.57102 5.87619,-9.03202 7.05081,-12.13556 1.88896,-4.99099 2.0749,-7.02892 1.60972,-17.64279 -0.40595,-9.26215 -1.23742,-14.5097 -3.64434,-23 -1.71511,-6.05 -4.48119,-14.98661 -6.14684,-19.85914 -1.66565,-4.87252 -4.77355,-12.43022 -6.90645,-16.79487 -2.13289,-4.36466 -4.17508,-8.92805 -4.5382,-10.14087 -0.36311,-1.21281 -2.05038,-4.40721 -3.74949,-7.09865 -2.62347,-4.15566 -3.19802,-4.60801 -3.81041,-3 -0.39661,1.04144 -1.84843,5.71853 -3.22625,10.39353 -1.37782,4.675 -3.24961,12.55 -4.15952,17.5 -0.90991,4.95 -2.51659,12.6 -3.57039,17 -1.0538,4.4 -1.91916,9.04649 -1.92301,10.32553 -0.006,2.09662 0.41132,2.30896 4.24299,2.15726 2.3375,-0.0925 4.8125,-0.12653 5.5,-0.0755 0.6875,0.051 1.25,1.24679 1.25,2.6573 0,1.62188 -1.10274,3.49245 -3,5.08889 -1.65,1.38839 -3,3.19889 -3,4.02334 0,1.19001 0.809,1.36233 3.92459,0.83595 3.2521,-0.54944 4.10008,-0.33517 4.94866,1.25043 0.56324,1.05242 0.7739,2.87011 0.46815,4.03932 -0.32985,1.26133 0.0977,2.77947 1.05134,3.73311 0.88399,0.88399 1.60726,2.23856 1.60726,3.01015 0,0.77159 -1.34224,2.09699 -2.98277,2.94534 -1.64052,0.84834 -4.9594,1.81338 -7.3753,2.14451 -3.67264,0.50339 -4.31192,0.91037 -3.9006,2.48323 0.41083,1.57104 1.45608,1.88117 6.34012,1.88117 4.61279,0 6.05212,0.38106 6.81359,1.80388 0.53098,0.99214 0.65015,2.31398 0.26483,2.93744 -0.38531,0.62346 -1.98444,1.62168 -3.55362,2.21828 -1.56917,0.5966 -4.48501,0.81234 -6.47965,0.47941 -1.99463,-0.33292 -5.8382,-1.30367 -8.54126,-2.15722 -4.49313,-1.4188 -5.01645,-1.41269 -6.10151,0.0712 -0.65277,0.89271 -2.15368,6.75826 -3.33534,13.03454 -1.18167,6.27628 -2.14849,13.93776 -2.14849,17.0255 0,3.08774 0.55825,6.50797 1.24055,7.60051 0.6823,1.09254 1.6948,1.98299 2.25,1.97879 z m -9.34951,-17.17281 c 1.81483,-0.27086 2.49422,-1.76696 4.45915,-9.81955 1.27496,-5.225 2.33649,-10.0625 2.35896,-10.75 0.0225,-0.6875 -0.80361,-1.25 -1.83573,-1.25 -1.54889,0 -2.33467,1.82818 -4.5,10.46956 C 218.18054,235.91843 217,240.89972 217,241.22972 c 0,0.33 0.96347,0.45619 2.14104,0.28044 z m -5.2239,-9.81955 c 1.49341,0 2.15646,-1.11597 3,-5.04922 0.59557,-2.77707 1.08286,-5.70207 1.08286,-6.5 0,-0.79793 -0.83788,-1.45078 -1.86195,-1.45078 -1.46299,0 -2.10579,1.2142 -3,5.66678 -0.62593,3.11673 -1.13805,6.04173 -1.13805,6.5 0,0.45827 0.86271,0.83322 1.91714,0.83322 z m -30.71489,-71.625 C 183.64101,159.79444 184,158.51169 184,157.21506 c 0,-1.29664 1.6224,-9.39768 3.60533,-18.00233 1.98293,-8.60464 3.39733,-15.85279 3.14312,-16.107 -0.2542,-0.25421 -1.1314,-0.2054 -1.94933,0.10847 -0.99155,0.38049 -2.51793,5.30373 -4.58034,14.77354 -1.70126,7.81158 -3.39456,15.72158 -3.76288,17.57779 -0.45875,2.31192 -0.25734,3.62976 0.63946,4.18402 0.72003,0.445 1.66813,0.58723 2.10689,0.31606 z m 6.45804,-2.70195 c 0.2322,-0.23221 1.97271,-6.21614 3.8678,-13.29762 1.89509,-7.08149 3.45153,-14.56293 3.45876,-16.62543 0.0108,-3.08772 -0.34007,-3.75 -1.98685,-3.75 -1.1,0 -2.01637,0.5625 -2.03637,1.25 -0.02,0.6875 -1.54055,7.6848 -3.379,15.54957 -2.96931,12.70246 -3.17533,14.46688 -1.84459,15.79761 0.82393,0.82393 1.68804,1.30807 1.92025,1.07587 z m -12.67934,-6.67305 c 1.23445,0 2.17579,-0.84789 2.498,-2.25 0.28439,-1.2375 1.41796,-6.20493 2.51906,-11.03873 C 183.0991,132.56809 184,127.47259 184,126.07856 c 0,-1.82161 -0.46532,-2.44365 -1.65417,-2.21127 -1.22961,0.24033 -2.37055,3.40328 -4.44527,12.32332 -1.5351,6.6 -2.81572,12.5625 -2.84582,13.25 -0.0301,0.6875 0.83669,1.25 1.92621,1.25 z m 59.19895,-0.18045 c 1.89756,-0.27816 2.48644,-1.67949 4.54665,-10.81955 1.30172,-5.775 2.63233,-12.68235 2.95691,-15.34967 0.5241,-4.30683 0.38781,-4.81053 -1.21758,-4.5 -1.45177,0.28082 -2.4534,3.2049 -5.08669,14.84967 -1.80343,7.975 -3.30151,14.8688 -3.32908,15.31955 -0.0276,0.45075 0.93085,0.67575 2.12979,0.5 z m -38.71844,-1.81955 c 0.84826,0 1.8718,-1.57342 2.43945,-3.75 0.5379,-2.0625 1.68024,-6.51496 2.53854,-9.89434 0.8583,-3.37939 1.56055,-7.34989 1.56055,-8.82333 0,-1.94614 -0.44788,-2.59053 -1.6373,-2.35565 -1.16683,0.23041 -2.30447,3.05311 -3.95915,9.82332 -1.27701,5.225 -2.34023,10.7375 -2.3627,12.25 -0.0262,1.76418 0.48305,2.75 1.42061,2.75 z m -23.63463,-5.34328 c 1.05096,-0.95111 2.32508,-4.35738 3,-8.02029 0.64524,-3.50186 1.17317,-7.36064 1.17317,-8.57505 0,-1.54506 -0.51351,-2.10914 -1.71026,-1.87866 -1.20519,0.2321 -2.07826,2.0995 -2.95637,6.32332 -0.68535,3.29668 -1.26574,7.7512 -1.28974,9.89895 -0.0416,3.71914 0.0433,3.8263 1.7832,2.25173 z m 56.24443,1.32797 c 0.3142,0.008 1.7767,-5.10309 3.25,-11.35891 1.47331,-6.25582 2.67874,-11.88082 2.67874,-12.5 0,-0.61918 -0.85601,-1.12578 -1.90224,-1.12578 -1.60553,0 -2.32391,1.81331 -4.60573,11.62564 -2.22603,9.57244 -2.46405,11.77735 -1.34776,12.48469 0.74565,0.47247 1.6128,0.86594 1.92699,0.87436 z M 206,142.69061 c 1.1,0 2.05191,-0.5625 2.11535,-1.25 0.0634,-0.6875 0.19139,-1.7 0.28433,-2.25 0.0929,-0.55 0.75363,-3.61496 1.46822,-6.81103 0.71458,-3.19607 1.05075,-6.45857 0.74705,-7.25 -0.3037,-0.79143 -0.99822,-1.43897 -1.54338,-1.43897 -0.54517,0 -1.90929,2.9724 -3.03139,6.60534 -1.1221,3.63293 -2.04018,7.90793 -2.04018,9.5 0,2.22799 0.46062,2.89466 2,2.89466 z m 15.79477,-2 c 1.44317,0 2.12975,-1.61625 3.50464,-8.25 0.94043,-4.5375 1.70778,-9.0375 1.70523,-10 -0.003,-1.02294 -0.7596,-1.75 -1.8218,-1.75 -1.43319,0 -2.17545,1.53193 -3.51281,7.25 -0.93262,3.9875 -1.6899,8.4875 -1.68285,10 0.009,1.97375 0.51943,2.75 1.80759,2.75 z m -7.47761,-1 c 0.81481,0 1.98872,-2.84866 3.07803,-7.46923 0.96848,-4.10808 1.48635,-7.91343 1.15082,-8.45633 -0.33553,-0.5429 -1.22493,-0.75114 -1.97644,-0.46276 -0.75151,0.28838 -1.8621,2.493 -2.46798,4.89914 -0.60587,2.40615 -1.10159,5.97555 -1.10159,7.932 0,2.27581 0.47447,3.55718 1.31716,3.55718 z m -46.28198,-4 c 1.75157,0 1.96482,-0.70546 1.96482,-6.5 0,-5.11111 -0.32051,-6.5 -1.5,-6.5 -0.825,0 -1.53655,-0.5625 -1.58122,-1.25 -0.0447,-0.6875 -0.69937,0.1 -1.45489,1.75 -0.75553,1.65 -1.39398,4.26708 -1.41879,5.81574 -0.0248,1.54866 0.42073,3.68616 0.99008,4.75 0.56935,1.06384 1.91935,1.93426 3,1.93426 z"
     id="path3001"
     inkscape:connector-curvature="0" />
</svg>
