<?xml version="1.0" encoding="UTF-8" standalone="no"?>
<!-- Created with Inkscape (http://www.inkscape.org/) -->

<svg
   xmlns:dc="http://purl.org/dc/elements/1.1/"
   xmlns:cc="http://creativecommons.org/ns#"
   xmlns:rdf="http://www.w3.org/1999/02/22-rdf-syntax-ns#"
   xmlns:svg="http://www.w3.org/2000/svg"
   xmlns="http://www.w3.org/2000/svg"
   xmlns:sodipodi="http://sodipodi.sourceforge.net/DTD/sodipodi-0.dtd"
   xmlns:inkscape="http://www.inkscape.org/namespaces/inkscape"
   id="svg2"
   version="1.1"
   inkscape:version="0.48.2 r9819"
   width="382.35068"
   height="598.58405"
   sodipodi:docname="Bard.png">
  <metadata
     id="metadata8">
    <rdf:RDF>
      <cc:Work
         rdf:about="">
        <dc:format>image/svg+xml</dc:format>
        <dc:type
           rdf:resource="http://purl.org/dc/dcmitype/StillImage" />
        <dc:title></dc:title>
      </cc:Work>
    </rdf:RDF>
  </metadata>
  <defs
     id="defs6" />
  <sodipodi:namedview
     pagecolor="#ffffff"
     bordercolor="#666666"
     borderopacity="1"
     objecttolerance="10"
     gridtolerance="10"
     guidetolerance="10"
     inkscape:pageopacity="0"
     inkscape:pageshadow="2"
     inkscape:window-width="1600"
     inkscape:window-height="876"
     id="namedview4"
     showgrid="false"
     fit-margin-top="0"
     fit-margin-left="0"
     fit-margin-right="0"
     fit-margin-bottom="0"
     inkscape:zoom="1"
     inkscape:cx="-201.50374"
     inkscape:cy="294.33883"
     inkscape:window-x="0"
     inkscape:window-y="24"
     inkscape:window-maximized="1"
     inkscape:current-layer="svg2" />
  <path
     style="fill:#000000"
     d="m 223.99626,597.68549 c -1.925,-0.45637 -5.525,-1.33231 -8,-1.94653 -2.475,-0.61422 -5.85,-1.32664 -7.5,-1.58315 -20.78161,-3.23071 -24.03297,-3.94353 -25.73056,-5.64112 -1.7727,-1.7727 -1.77473,-1.95897 -0.055,-5.05498 0.98205,-1.76795 2.76355,-4.4455 3.9589,-5.9501 1.85523,-2.33521 2.02995,-3.25502 1.19364,-6.28388 -0.84751,-3.06941 -0.56329,-4.42959 2.10612,-10.07942 5.10819,-10.8115 6.21928,-17.52368 4.98195,-30.0965 -2.01935,-20.5192 -2.2584,-21.53131 -6.90012,-29.21362 l -4.37645,-7.24327 1.68504,-9.67384 1.68505,-9.67383 -2.90942,-5.5 c -1.60018,-3.025 -4.81935,-9.04359 -7.1537,-13.37464 -7.74828,-14.37577 -9.1721,-21.82936 -10.91232,-57.12536 -0.75733,-15.36058 -2.33401,-28.49502 -3.6825,-30.67693 -0.76432,-1.23669 -4.82422,-0.9895 -6.19065,0.37693 -0.69683,0.69683 -1.2,4.03671 -1.2,7.9652 0,5.98719 0.3256,7.14297 2.83129,10.05 1.5572,1.80664 3.11958,4.07621 3.47194,5.04348 0.8868,2.43436 -0.87957,6.62023 -3.74465,8.8739 -2.02314,1.59141 -2.40193,2.78076 -2.42889,7.62643 -0.0176,3.15755 -0.72893,7.71007 -1.58081,10.11672 -2.19706,6.20689 -1.93576,9.64126 1.15137,15.13314 3.07255,5.46592 2.46838,7.3074 -2.73918,8.34892 -4.30219,0.86043 -5.19266,4.0042 -3.49756,12.34791 0.75918,3.73687 2.52994,12.4193 3.93503,19.2943 1.40508,6.875 2.56522,13.6494 2.57808,15.05422 0.0129,1.40482 -1.3927,4.77982 -3.12346,7.5 -1.73076,2.72018 -3.72406,6.31794 -4.42954,7.99503 -1.30856,3.11071 -3.70324,24.31212 -3.66529,32.45075 0.0255,5.46126 2.65635,14.86259 5.90853,21.11381 1.86902,3.59255 2.26014,5.49054 1.76697,8.57463 -0.54776,3.42549 -0.14235,4.72838 2.99956,9.63998 4.32626,6.76303 3.79727,9.21897 -2.19554,10.1931 -2.05582,0.33417 -7.33785,1.23239 -11.73785,1.99604 -4.4,0.76364 -9.35,1.58404 -11,1.82309 -1.65,0.23906 -5.7,1.21497 -9,2.16869 -6.6662,1.92658 -27.389177,2.22043 -34.864647,0.49438 -2.27444,-0.52515 -5.99275,-0.96583 -8.2629,-0.97927 -5.77203,-0.0342 -7.12292,-1.97912 -3.97394,-5.72147 1.35173,-1.60644 3.55492,-5.40183 4.89598,-8.43421 5.14398,-11.63144 15.34334,-14.23239 20.63579,-5.26236 1.943047,3.29322 4.351187,4.36521 5.528137,2.46087 0.31705,-0.513 3.08387,-1.45326 6.14849,-2.08947 6.17013,-1.28092 9.39309,-3.78111 9.39309,-7.28664 0,-1.26985 1.63111,-4.98235 3.6247,-8.25 3.59441,-5.89153 3.61557,-5.9913 2.53221,-11.94117 -1.63573,-8.98345 -4.15366,-18.32331 -12.26635,-45.5 -2.726,-9.1318 -3.5282,-29.98395 -1.53884,-40 1.39759,-7.03665 1.37869,-7.59267 -0.30603,-9 -4.15377,-3.46985 -5.3123,-6.71014 -4.55871,-12.75027 0.60935,-4.88411 1.28148,-6.28667 4.46446,-9.31629 3.04521,-2.89849 3.85548,-4.49067 4.32566,-8.5 0.31821,-2.71339 0.10304,-6.86414 -0.47817,-9.22388 -0.84731,-3.4402 -1.69865,-4.55865 -4.29601,-5.64389 -3.25293,-1.35916 -7.09458,-5.62248 -9.84706,-10.92789 -2.188827,-4.21898 -0.58264,-7.75806 4.61746,-10.17404 4.07155,-1.89167 4.22434,-2.1289 4.16292,-6.46374 -0.0351,-2.475 -0.78736,-7.875 -1.67177,-12 -2.20899,-10.30302 -3.05157,-19.66274 -2.85382,-31.70132 0.16287,-9.91519 0.096,-10.2482 -2.38285,-11.87242 -4.261557,-2.7923 -12.527777,-13.92086 -12.527777,-16.8658 0,-3.53767 3.46664,-6.55045 10.731447,-9.32649 9.82105,-3.75283 9.58292,-3.3548 9.43179,-15.76501 -0.11569,-9.50055 0.16252,-11.46844 2.24865,-15.90546 1.30936,-2.78493 3.08202,-6.75733 3.93924,-8.82756 0.85721,-2.07023 2.25388,-4.03087 3.10372,-4.35699 1.85035,-0.71004 2.06228,-4.03766 0.29515,-4.63439 -0.6875,-0.23215 -2.825,0.27028 -4.75,1.11653 -2.25255,0.99023 -6.55041,1.54072 -12.05858,1.54451 l -8.558577,0.006 -6.16281,-4.74217 c -3.38954,-2.60819 -8.70623,-7.98828 -11.81487,-11.95574 -3.28298,-4.18998 -6.27011,-7.08098 -7.12657,-6.89724 -0.81099,0.17399 -2.35169,-0.4775 -3.4238,-1.44774 -1.62806,-1.47338 -1.84926,-2.59666 -1.3423,-6.81634 0.4964,-4.13168 0.16205,-5.96348 -1.83497,-10.05321 -1.34309,-2.75053 -3.87046,-9.26473 -5.6164,-14.476 -1.74594,-5.21127 -3.6592,-9.77464 -4.2517,-10.14082 -0.59249,-0.36619 -2.47653,-0.26449 -4.18674,0.22599 -1.71021,0.49037 -4.82777,0.89167 -6.92791,0.89167 -3.93012,0 -20.25149,-4.28797 -24.69477,-6.48784 -1.375,-0.68076 -2.9923,-1.06039 -3.594,-0.84362 -0.6017,0.21677 -3.18499,-0.50218 -5.7406502,-1.59766 C 3.3873028,172.55529 0.00581277,167.98492 2.7715986e-6,163.1092 -0.00499723,159.30927 6.7561528,148.74933 11.345633,145.38776 c 2.85531,-2.09139 23.21957,-10.65452 25.28891,-10.63394 2.03984,0.0203 10.36172,-4.59346 10.36172,-5.74465 0,-0.69516 0.675,-1.26392 1.5,-1.26392 1.08333,0 1.5,-1.11111 1.5,-4 0,-3.85697 0.82747,-4.65882 4.25,-4.11842 0.4125,0.0651 0.75,-0.33158 0.75,-0.88158 0,-0.55 -0.42331,-1 -0.9407,-1 -0.51738,0 -0.29515,-1.2375 0.49384,-2.75 0.789,-1.5125 1.4396,-3.875 1.44578,-5.25 0.015,-3.33433 6.68937,-13.536943 9.7755,-14.943086 1.35047,-0.615313 3.30369,-0.849514 4.34049,-0.520446 1.62864,0.516911 1.88509,0.06332 1.88509,-3.334225 0,-8.574647 7.29232,-12.04629 16.47404,-7.842763 4.90722,2.246601 6.70102,4.141849 14.566677,15.390517 2.64065,3.776393 3.4103,4.250003 6.90654,4.250003 4.79115,0 5.94432,-1.45746 3.02411,-3.822103 -1.68504,-1.36446 -2.29407,-3.17787 -2.67739,-7.972063 -0.30215,-3.778843 -0.10742,-6.205837 0.49792,-6.205837 0.54677,0 1.26409,0.703522 1.59405,1.563382 0.32996,0.85986 1.0531,1.283303 1.60699,0.940983 0.55388,-0.342319 1.00706,-0.145841 1.00706,0.436618 0,0.582459 0.45,1.059017 1,1.059017 0.55,0 1,-0.675 1,-1.5 0,-0.825 0.40186,-1.5 0.89301,-1.5 1.54056,0 2.1469,-3.056909 1.02291,-5.1571 -0.5923,-1.106719 -2.68127,-2.682562 -4.64216,-3.501874 -7.52559,-3.144393 -7.80456,-5.010225 -2.38858,-15.975231 6.54105,-13.24278 7.34213,-15.577984 11.103,-32.365795 1.91409,-8.544126 7.36473,-14.629452 22.42591,-25.0372148 5.90872,-4.08311764 5.92007,-4.08611994 12.5,-3.30691524 3.62225,0.428952 8.01859,0.65007214 9.76965,0.4913779 1.75106,-0.1586942 4.04116,0.17034074 5.08912,0.73118864 3.70503,1.9828717 12.05248,10.6806675 14.51248,15.1215635 3.5514,6.411155 4.45809,9.803282 6.68358,25.004732 2.9822,20.370201 3.14083,20.855563 8.89774,27.223949 2.03687,2.253227 2.46667,3.759676 2.46667,8.645662 0,5.139354 -0.41755,6.444188 -3.17719,9.92852 -2.6596,3.358015 -3.02262,4.41811 -2.22835,6.507199 0.52186,1.372613 1.3942,2.770908 1.93853,3.107318 1.24127,0.76715 2.38182,-2.607153 1.584,-4.686246 -1.55829,-4.060832 7.35068,-13.453122 15.34441,-16.176858 2.50885,-0.854852 6.2207,-1.554276 8.24855,-1.554276 2.25823,0 4.7459,-0.832926 6.41953,-2.149403 2.55683,-2.011205 7.32076,-2.720426 9.44691,-1.406392 2.21684,1.370081 2.24558,6.852793 0.0714,13.614588 -2.37434,7.384117 -2.15822,9.941207 0.84015,9.941207 1.03623,0 8.81285,-3.498508 17.28139,-7.774462 8.46854,-4.275954 18.09734,-9.014175 21.39734,-10.529381 3.3,-1.515205 8.475,-4.129974 11.5,-5.810597 3.025,-1.680623 6.39502,-3.237271 7.48894,-3.459217 1.09392,-0.221947 3.11892,-1.237614 4.5,-2.257038 1.38108,-1.019424 4.1296,-2.386695 6.10782,-3.03838 1.97822,-0.651685 5.70026,-2.518882 8.2712,-4.149327 4.08832,-2.592732 4.59376,-3.285938 4.03094,-5.528384 -0.70588,-2.812453 2.5922,-7.339799 5.52541,-7.584855 0.86663,-0.0724 0.006,-0.409903 -1.91296,-0.75 -4.31515,-0.764857 -5.0692,-3.363431 -1.94192,-6.69226 2.25884,-2.404429 8.41153,-4.278473 9.7272,-2.962804 0.38685,0.386854 0.70337,2.090872 0.70337,3.786705 0,3.823239 1.47479,4.411687 4.59862,1.834866 l 2.40138,-1.980881 -2.25,-1.608697 c -3.35512,-2.39883 -2.74968,-4.278521 2.14388,-6.655995 5.56882,-2.705542 7.79373,-2.027357 6.96373,2.12265 -0.54367,2.718347 -0.35148,3.038057 1.82626,3.038057 1.33863,0 3.30738,-0.687149 4.375,-1.526997 1.90845,-1.501291 1.90325,-1.553849 -0.30887,-3.121972 -3.44299,-2.440662 -2.77419,-4.632451 2.01426,-6.601031 6.42421,-2.641067 8.11111,-2.376874 7.40383,1.159547 -0.66404,3.320196 0.96217,4.472339 4.91297,3.480752 2.56261,-0.643174 3.86626,0.484542 8.79686,7.609701 5.01873,7.252514 3.98911,9.975149 -5.37792,14.220854 -2.475,1.121819 -6.40056,2.915418 -8.72348,3.985775 l -4.22347,1.946105 1.94565,2.673633 c 2.91794,4.009727 1.34902,9.401384 -4.2495,14.603494 -4.69605,4.363551 -10.68157,12.905585 -10.85516,15.491584 -0.0583,0.868205 0.006,2.928555 0.14248,4.578555 0.63323,7.646363 0.37536,11.364063 -1.106,15.944763 -0.8795,2.71962 -2.01116,5.08051 -2.5148,5.24641 -0.50365,0.16591 -0.98363,-2.55785 -1.06662,-6.05279 -0.17268,-7.27108 -2.43021,-12.638383 -5.31582,-12.638383 -1.11655,0 -4.12948,2.60658 -7.22432,6.250003 -2.91993,3.4375 -7.50657,8.39591 -10.19253,11.01869 l -4.88357,4.76869 0.64411,14.23131 c 0.35426,7.82722 0.72439,38.77202 0.82252,68.76622 l 0.17843,54.53492 -2.28463,3.09011 c -1.90562,2.5775 -2.19961,3.94814 -1.77215,8.26238 0.28185,2.84474 1.06471,5.83767 1.73967,6.65096 0.78042,0.94034 1.2349,5.01894 1.24831,11.20271 0.0242,11.17844 -1.76229,16.49082 -7.41948,22.06226 -5.37736,5.29584 -10.54955,7.54255 -17.01994,7.39318 l -5.63031,-0.12997 -0.53147,3.69927 c -0.29231,2.0346 -0.60097,7.29927 -0.68591,11.69927 -0.0849,4.4 -0.35363,10.475 -0.59709,13.5 -0.24346,3.025 -0.67781,10 -0.96522,15.5 -1.40111,26.8122 -4.65247,49.23957 -10.58303,73 -2.19646,8.8 -4.38145,17.125 -4.85554,18.5 -0.47408,1.375 -2.9885,9.14451 -5.58759,17.26557 -4.21268,13.16285 -5.14426,15.1438 -8.58246,18.25 -3.97926,3.59502 -6.5751,4.23768 -9.90931,2.45327 -1.67019,-0.89386 -2.37783,-0.32795 -5.31446,4.25 -4.65645,7.25901 -6.95315,9.16718 -10.08702,8.38063 -1.928,-0.4839 -2.54029,-0.25172 -2.54029,0.96325 0,0.88045 -1.54384,6.17653 -3.43076,11.76905 -1.88692,5.59253 -4.17956,13.54323 -5.09476,17.66823 -0.9152,4.125 -2.2864,9.525 -3.04711,12 -2.46285,8.013 -2.84942,12.87093 -1.17577,14.77552 2.23977,2.54883 5.7484,9.86926 5.7484,11.99351 0,3.38276 2.67301,5.57266 9.11837,7.47033 10.78308,3.17482 10.20852,3.18758 12.24671,-0.27192 2.06496,-3.50491 7.53023,-6.30648 10.32902,-5.29478 4.36233,1.57688 7.71893,5.04141 10.38719,10.72116 1.57772,3.3584 3.83418,7.29876 5.01436,8.75635 2.61961,3.23537 1.8248,4.84415 -2.40467,4.86729 -1.75504,0.01 -7.24098,0.68289 -12.19098,1.49619 -9.6487,1.58532 -21.81625,1.77407 -27.5,0.42659 z"
     id="path2987"
     inkscape:connector-curvature="0" />
</svg>
