<?xml version="1.0" encoding="UTF-8" standalone="no"?>
<!-- Created with Inkscape (http://www.inkscape.org/) -->

<svg
   xmlns:dc="http://purl.org/dc/elements/1.1/"
   xmlns:cc="http://creativecommons.org/ns#"
   xmlns:rdf="http://www.w3.org/1999/02/22-rdf-syntax-ns#"
   xmlns:svg="http://www.w3.org/2000/svg"
   xmlns="http://www.w3.org/2000/svg"
   xmlns:sodipodi="http://sodipodi.sourceforge.net/DTD/sodipodi-0.dtd"
   xmlns:inkscape="http://www.inkscape.org/namespaces/inkscape"
   id="svg2"
   version="1.1"
   inkscape:version="0.48.2 r9819"
   width="725.10498"
   height="900.53979"
   sodipodi:docname="gustavusadolphus00dodg_0677e.png">
  <metadata
     id="metadata8">
    <rdf:RDF>
      <cc:Work
         rdf:about="">
        <dc:format>image/svg+xml</dc:format>
        <dc:type
           rdf:resource="http://purl.org/dc/dcmitype/StillImage" />
        <dc:title></dc:title>
      </cc:Work>
    </rdf:RDF>
  </metadata>
  <defs
     id="defs6" />
  <sodipodi:namedview
     pagecolor="#ffffff"
     bordercolor="#666666"
     borderopacity="1"
     objecttolerance="10"
     gridtolerance="10"
     guidetolerance="10"
     inkscape:pageopacity="0"
     inkscape:pageshadow="2"
     inkscape:window-width="1920"
     inkscape:window-height="1176"
     id="namedview4"
     showgrid="false"
     inkscape:zoom="1"
     inkscape:cx="189.06065"
     inkscape:cy="497.53977"
     inkscape:window-x="0"
     inkscape:window-y="24"
     inkscape:window-maximized="1"
     inkscape:current-layer="svg2"
     fit-margin-top="0"
     fit-margin-left="0"
     fit-margin-right="0"
     fit-margin-bottom="0" />
  <path
     style="fill:#000000"
     d="m 402.70015,898.6081 c -3.1534,-3.18717 -6.1395,-10.05611 -6.1395,-14.12269 0,-2.30245 -1.0552,-4.55915 -3.5,-7.48541 -1.925,-2.30407 -3.5,-4.78712 -3.5,-5.51789 0,-0.73076 1.1793,-2.73022 2.6207,-4.44323 2.4636,-2.92773 2.5208,-3.22505 0.9541,-4.95627 -0.9167,-1.01293 -3.3336,-2.11536 -5.3708,-2.44984 -5.355,-0.87922 -10.1093,-4.16178 -11.7642,-8.12255 -0.9593,-2.29596 -1.4398,-7.14604 -1.4398,-14.53297 l 0,-11.08699 -4.1992,-6.18354 c -2.3095,-3.40094 -5.797,-9.29324 -7.75,-13.094 -3.6017,-7.00958 -4.1644,-7.56996 -9.613,-9.57366 -2.9321,-1.07827 -9.2431,-9.66856 -20.3691,-27.72556 -1.9654,-3.18976 -5.0534,-6.37861 -8.0211,-8.28298 -2.654,-1.70306 -6.0374,-4.92783 -7.5187,-7.16615 -1.4812,-2.23833 -4.2249,-5.4146 -6.0971,-7.05839 -1.8722,-1.64379 -6.1202,-7.48504 -9.44,-12.98056 -3.3199,-5.49552 -7.3907,-11.13164 -9.0463,-12.52471 -4.1013,-3.45108 -11.4177,-13.97345 -12.8868,-18.53388 -0.6763,-2.09931 -2.5403,-4.68566 -4.259,-5.90948 -3.4716,-2.47197 -6.6763,-8.92502 -11.3215,-22.79736 l -3.2012,-9.55999 -4.8885,-0.64293 c -2.6887,-0.35361 -6.1553,-1.14111 -7.7036,-1.75 C 246.69725,661.49818 243.69621,661 241.57659,661 c -2.11962,0 -5.12783,-0.66656 -6.6849,-1.48125 -1.55707,-0.81469 -6.74135,-2.62086 -11.52061,-4.01371 -4.77927,-1.39286 -10.01923,-3.65129 -11.64436,-5.01875 C 210.10159,649.11883 208.2744,648 207.66629,648 c -1.28375,0 -1.28358,-10e-4 -1.47059,10.5 -0.16531,9.28272 -2.99392,16.57082 -9.02022,23.24121 -1.98815,2.20066 -3.61483,4.41768 -3.61483,4.92673 0,1.17909 -14.436,14.46495 -17.32624,15.94583 -1.19557,0.61258 -4.70988,1.36226 -7.80959,1.66597 -6.9481,0.68076 -12.3195,3.94283 -14.49709,8.80412 -1.99572,4.45527 -4.20729,5.87301 -10.28416,6.59272 -5.8652,0.69465 -8.13373,-0.43663 -11.92474,-5.94668 C 120.69118,697.70177 125.9293,670 139.9877,670 c 1.48004,0 2.42691,-0.42728 2.10416,-0.9495 -0.32276,-0.52223 0.77045,-1.95298 2.42933,-3.17945 1.98912,-1.47062 3.23264,-3.44576 3.65191,-5.8005 0.34965,-1.9638 1.76271,-5.07883 3.14013,-6.92228 3.66586,-4.90617 5.06038,-10.68568 5.25585,-21.78249 0.0956,-5.42618 0.13223,-10.31578 0.0814,-10.86578 -0.14016,-1.51817 -4.67311,-6.5 -5.91431,-6.5 -1.06254,0 -7.17552,11.47417 -7.17552,13.46866 0,2.4314 -6.42704,13.59425 -9.31618,16.18089 -6.68534,5.98534 -12.80694,7.41302 -17.73994,4.13732 -1.89413,-1.25778 -4.67392,-2.92142 -6.17731,-3.69698 -1.50339,-0.77556 -2.97078,-2.15795 -3.26089,-3.07198 -0.2901,-0.91402 -2.43505,-2.71236 -4.76657,-3.9963 -4.339646,-2.3898 -7.593226,-5.04493 -13.199466,-10.77161 -5.3672,-5.48251 -10.40162,-3.49131 -12.50835,4.94725 -1.32147,5.29321 -6.7665,23.04084 -8.52997,27.80275 -4.22611,11.41181 -4.48288,13.46396 -2.95672,23.63056 1.42595,9.499 1.41085,9.76721 -0.79553,14.12773 -1.23699,2.44469 -3.59328,5.18668 -5.23621,6.0933 -1.64293,0.90663 -3.44293,2.18006 -4,2.82985 -0.55707,0.64979 -3.41122,1.95081 -6.34255,2.89116 -2.93133,0.94036 -5.85633,2.56324 -6.5,3.6064 -0.64367,1.04317 -3.64531,2.6117 -6.67031,3.48563 -3.025,0.87392 -7.26774,2.48198 -9.42831,3.57345 -4.81679,2.43335 -14.97774,2.63754 -19.3270899,0.38841 -5.35111,-2.76717 -6.69217,-6.04871 -6.79469,-16.62649 -0.0787,-8.11793 0.24559,-10.13996 2.229,-13.89894 1.2766,-2.41942 2.32109,-4.92847 2.32109,-5.57569 0,-1.44551 3.78829,-4.9486 6.4999999,-6.01065 1.97736,-0.77443 7.94026,-2.10462 14.25726,-3.18048 2.11211,-0.35971 4.1153,0.007 5.69785,1.04439 2.6228,1.71853 2.93538,1.51805 3.89255,-2.49663 0.3433,-1.4399 2.60015,-4.23716 5.01521,-6.21612 2.41506,-1.97896 4.64009,-4.62586 4.9445,-5.882 0.30441,-1.25613 1.00258,-3.85888 1.55149,-5.78388 1.78893,-6.27374 5.96677,-24.65441 6.67053,-29.34742 0.40349,-2.69069 0.17906,-6.69943 -0.54377,-9.71252 -1.02978,-4.29259 -0.97558,-6.13616 0.33175,-11.2854 0.85942,-3.38506 1.76153,-9.17664 2.00469,-12.87016 0.35375,-5.37346 0.95995,-7.33093 3.03338,-9.79507 1.4252,-1.69376 3.09734,-4.97178 3.71585,-7.2845 4.03836,-15.10009 4.08156,-15.17935 8.44849,-15.50118 4.40721,-0.3248 4.55847,-0.56939 8.09183,-13.08478 2.18979,-7.75634 6.96331,-15.65388 13.59887,-22.49861 3.18424,-3.28461 5.78952,-6.31633 5.78952,-6.73717 0,-1.30102 -2.36126,-2.30851 -5.49997,-2.3467 -2.96471,-0.0361 -2.99842,-0.0982 -2.86326,-5.27553 0.0752,-2.88147 -0.26227,-4.99241 -0.75,-4.69098 -0.48772,0.30143 -0.88677,1.12675 -0.88677,1.83405 0,2.0654 -3.20696,4.29015 -7.22056,5.0091 -2.04631,0.36655 -5.03627,1.77355 -6.64436,3.12666 -2.17992,1.83428 -4.09557,2.46021 -7.52944,2.46021 -4.17106,0 -4.60564,-0.22233 -4.60564,-2.3562 0,-2.26886 6.30983,-11.6438 7.8369,-11.6438 0.4099,0 1.9507,-2.3625 3.42399,-5.25 1.47329,-2.8875 4.44032,-7.1625 6.59339,-9.5 2.15307,-2.3375 3.34676,-4.25 2.65264,-4.25 -0.69412,0 -1.82223,0.675 -2.50692,1.5 -1.44353,1.73935 -4.58256,1.98445 -5.5416,0.43269 -0.36397,-0.58892 0.29234,-1.31625 1.46428,-1.62272 1.95875,-0.51223 1.99111,-0.65252 0.4162,-1.80413 -1.55376,-1.13614 -1.45284,-1.38226 1.11947,-2.73002 1.79158,-0.93871 2.40859,-1.74002 1.68442,-2.18759 -1.90114,-1.17496 -1.29494,-2.33322 1.60164,-3.06022 4.74684,-1.19138 7.25906,-4.52801 3.40923,-4.52801 -2.27324,0 -7.85666,2.71097 -8.89157,4.31722 -2.14921,3.3357 -15.14579,6.29798 -16.68744,3.80353 -1.08874,-1.76162 4.8612,-6.18005 10.81795,-8.03342 3.35908,-1.04514 5.35292,-1.94235 4.43074,-1.99379 -0.92217,-0.0515 -1.82217,-0.73354 -2,-1.51577 -0.26613,-1.17065 -1.01827,-1.0822 -4.25188,0.5 -2.16071,1.05723 -4.86071,1.93211 -6,1.94419 -3.05234,0.0324 -10.50984,3.65394 -11.19367,5.43597 -0.32546,0.84814 -1.6686,1.54207 -2.98476,1.54207 -3.04303,0 -3.18326,-2.99062 -0.44026,-9.38976 1.58783,-3.70427 2.8492,-4.98114 6.75,-6.8329 l 4.79725,-2.27734 -3.75,-0.31037 c -2.8818,-0.23851 -3.75,-0.74211 -3.75,-2.17523 0,-1.6332 -0.78505,-1.85296 -6.31946,-1.76903 -7.06696,0.10716 -8.68054,-0.49833 -8.68054,-3.25738 0,-1.999 4.99325,-3.97142 10.08159,-3.98241 1.41988,-0.003 5.53095,-0.93134 9.13572,-2.06283 6.45679,-2.02671 9.13685,-4.11344 13.01914,-10.13689 0.95505,-1.48177 4.9531,-4.40677 8.88457,-6.5 6.73475,-3.58577 7.28948,-4.14726 9.59258,-9.70956 2.66953,-6.44729 4.94024,-8.91866 10.2864,-11.19541 1.925,-0.8198 4.512496,-1.92037 5.749996,-2.44571 6.0022,-2.54807 7.5207,-3.57588 8.74604,-5.91982 2.11406,-4.04397 6.67654,-7.83215 11.4699,-9.52334 8.12562,-2.86689 23.16989,0.0221 32.39627,6.22115 2.67422,1.79675 6.04922,3.25186 7.5,3.23356 l 2.63779,-0.0333 -2.36078,-1.96673 C 161.40143,394.88503 159.54403,394 158.57231,394 c -0.97172,0 -2.38437,-0.74863 -3.13922,-1.66363 -1.25153,-1.51707 -1.01954,-1.60756 2.63337,-1.02723 2.2032,0.35002 5.85409,1.52939 8.1131,2.62082 5.26398,2.54328 11.01635,1.37146 11.97271,-2.43898 0.72366,-2.88329 3.26922,-3.84512 9.58952,-3.62336 2.57462,0.0903 4.94446,-0.26183 5.26631,-0.78259 1.13259,-1.83258 -1.53509,-2.20885 -6.99593,-0.98677 -6.61567,1.48052 -8.40222,0.50406 -6.89637,-3.76931 0.88065,-2.49914 3.73872,-4.13181 11.83097,-6.75844 1.75377,-0.56925 1.77131,-0.73907 0.25,-2.4201 -0.89987,-0.99434 -1.63612,-2.79028 -1.63612,-3.99097 0,-2.00515 0.34638,-2.1293 4.25,-1.52331 4.17424,0.648 4.21881,0.62453 2.5,-1.31692 -0.9625,-1.08718 -1.75,-2.92824 -1.75,-4.09125 0,-2.23035 3.39258,-5.21264 5.97251,-5.2502 0.84012,-0.0122 2.59879,-0.84601 3.90816,-1.85286 l 2.38067,-1.83063 -5.39231,-5.39713 c -2.96578,-2.96843 -6.79344,-7.46815 -8.50592,-9.99938 -2.67939,-3.96043 -3.72368,-4.69735 -7.48835,-5.28423 -5.70092,-0.88872 -16.14105,-3.37482 -22.11053,-5.26515 -8.2814,-2.62244 -11.8869,-11.13194 -5.80088,-13.69092 3.8705,-1.62743 16.7354,-0.50383 27.53665,2.40499 4.4,1.18494 10.37819,2.56434 13.28487,3.06534 l 5.28486,0.91089 5.4691,-5.90728 c 3.00801,-3.24901 7.04232,-6.65382 8.96514,-7.56626 1.92281,-0.91244 3.49603,-2.07631 3.49603,-2.58638 0,-0.51007 1.35,-1.62551 3,-2.47876 1.65,-0.85325 3,-2.17525 3,-2.93778 0,-0.8382 1.58171,-1.65365 4,-2.06222 2.2,-0.37169 4,-1.02776 4,-1.45794 0,-0.43017 2.025,-1.3491 4.5,-2.04206 5.14647,-1.44092 5.7098,-2.50525 1.75,-3.30635 -1.5125,-0.306 -3.76525,-1.50734 -5.00612,-2.66966 -1.68968,-1.58272 -15.28031,-7.99706 -16.99388,-8.02056 -0.89303,-0.0122 -0.0133,-2.87811 1,-3.25766 1.45155,-0.54371 23.52767,0.95494 25.56104,1.73522 0.7532,0.28902 1.83497,0.23779 2.40394,-0.11386 0.56897,-0.35164 -2.50914,-2.0406 -6.84024,-3.75324 -4.33111,-1.71264 -8.54974,-3.56023 -9.37474,-4.10576 -0.825,-0.54553 -3.74415,-1.89718 -6.48701,-3.00367 -7.40046,-2.98539 -7.1542,-5.09913 0.68752,-5.90143 3.46472,-0.35448 9.44949,-0.62202 13.29949,-0.59453 5.03785,0.036 6.57954,-0.23423 5.5,-0.96395 -0.825,-0.55766 -4.10195,-1.02082 -7.28212,-1.02924 -5.65041,-0.015 -14.4765,-2.76483 -11.93926,-3.7198 0.70325,-0.26469 3.4728,0.0451 6.15458,0.68846 5.59531,1.3423 9.31977,0.91721 17.0668,-1.94792 5.2529,-1.94273 5.3203,-2.01117 1.5,-1.52371 -11.63968,1.48521 -20.55396,1.68776 -21.98564,0.49958 -1.6316,-1.35411 -1.03129,-3.44943 0.68447,-2.38904 0.59257,0.36623 0.86954,0.0822 0.62761,-0.64356 -0.23816,-0.71449 -1.91129,-2.09188 -3.71806,-3.06086 -4.41637,-2.36852 -4.34741,-2.1325 -1.56807,-5.36702 1.35283,-1.57439 2.45969,-3.24253 2.45969,-3.70698 0,-1.79441 3.73833,-0.70315 8.51335,2.48513 8.09653,5.40606 13.53475,7.53734 20.23665,7.93096 7.0321,0.413 8.4062,-0.72046 2.1541,-1.77675 -2.9764,-0.50286 -3.7955,-0.99236 -2.997,-1.79093 0.7986,-0.79857 3.0164,-0.77012 8.1145,0.1041 9.5143,1.63152 11.0163,1.60667 8.4509,-0.13983 -1.3364,-0.90983 -5.6011,-1.37535 -13.2254,-1.44363 l -11.253,-0.10078 -5.89828,-5.19189 C 235.39743,231.41141 232.44782,227 235.02307,227 c 0.78075,0 1.6687,0.40315 1.97323,0.89588 0.9456,1.53002 17.56435,9.78569 17.56435,8.72542 0,-0.18106 -4.6125,-3.42289 -10.25,-7.20408 -5.6375,-3.78118 -10.84464,-7.4469 -11.57143,-8.14605 C 232.01244,220.57203 231.07217,220 230.64974,220 c -0.42243,0 -1.31184,-1.19346 -1.97645,-2.65213 -1.73346,-3.80454 0.1342,-5.38726 3.12412,-2.64748 3.52337,3.22861 10.34977,6.30074 13.9734,6.28852 l 3.28984,-0.0111 -3.25,-2.56139 c -1.7875,-1.40876 -3.25,-2.97877 -3.25,-3.48891 0,-1.94957 3.53612,-0.80023 6.56243,2.13299 2.76287,2.6779 3.75017,3.02169 7.89747,2.75 l 4.7398,-0.31051 -5.2865,-3.00624 c -3.5024,-1.99169 -6.556,-4.8371 -9.04815,-8.43131 -2.06888,-2.98378 -4.45988,-5.81583 -5.31333,-6.29344 -1.97147,-1.10329 -2.01893,-4.65249 -0.0722,-5.39952 0.81373,-0.31226 3.43081,0.37687 5.81572,1.53138 4.32036,2.09144 8.72056,2.77478 8.68726,1.34913 -0.01,-0.4125 -2.9346,-2.48674 -6.5,-4.60941 -6.03188,-3.59114 -7.47101,-5.31874 -5.81232,-6.97743 0.3686,-0.3686 1.68989,-0.002 2.9362,0.81458 7.00172,4.58772 12.39362,6.74138 12.39362,4.95033 0,-0.31456 -1.2163,-2.67706 -2.703,-5.25 -2.8896,-5.00107 -7.0043,-9.17485 -9.04699,-9.17685 -0.68751,-6.6e-4 -1.25001,-0.90121 -1.25001,-2.00121 0,-2.47383 0.0308,-2.4731 5.0033,0.11873 2.2357,1.1653 5.287,2.1953 6.7808,2.28888 3.6704,0.22994 6.918,2.43191 9.3543,6.34239 1.1136,1.7875 2.6976,3.25 3.5201,3.25 0.8224,0 2.7703,1.27492 4.3285,2.83315 l 2.8332,2.83315 0.378,-3.23834 c 0.3491,-2.99004 0.09,-3.32461 -3.3772,-4.36345 -2.7157,-0.81362 -5.2178,-2.8976 -9.0381,-7.5276 -2.9056,-3.52137 -5.6341,-6.43274 -6.0634,-6.4697 -0.4293,-0.037 -2.2293,-1.75269 -4,-3.81272 -1.7707,-2.06003 -4.682,-5.06783 -6.4695,-6.684 -3.85825,-3.48844 -4.36822,-6.12179 -1,-5.16381 1.2375,0.35196 4.275,1.05065 6.75,1.55264 2.475,0.50199 6.1731,1.6165 8.2179,2.47669 4.8765,2.05137 5.4627,1.97349 3.2821,-0.43601 -0.9955,-1.1 -2.6505,-2 -3.6778,-2 -3.655,0 -16.7489,-6.19368 -17.39456,-8.22799 -0.99553,-3.13664 0.91975,-4.16085 4.40776,-2.35711 4.526,2.34045 6.5296,2.13556 5.1071,-0.52226 -2.1236,-3.968 0.5262,-4.05087 5.5047,-0.17216 4.7722,3.71804 7.9066,4.89055 20.6332,7.71845 7.6678,1.70384 17.6269,5.27851 18.4596,6.62581 0.9156,1.48148 4.46,1.08624 4.46,-0.49735 0,-0.78794 -1.0125,-1.72372 -2.25,-2.07952 -2.2943,-0.65962 -4.7697,-1.69926 -12.75,-5.3547 -2.475,-1.13369 -8.0911,-2.79205 -12.4802,-3.68522 -9.9353,-2.02183 -11.8093,-2.96031 -11.0005,-5.50885 0.3385,-1.06651 0.1577,-1.9391 -0.4018,-1.9391 -1.5288,0 -10.1175,-6.00243 -10.1175,-7.07085 0,-1.35849 6.9056,-1.05347 11.25,0.4969 2.0625,0.73605 3.75,0.9413 3.75,0.45611 0,-0.48519 -0.4197,-0.88216 -0.9326,-0.88216 -0.513,0 -1.244,-1.0125 -1.6246,-2.25 -0.3806,-1.2375 -3.0278,-4.725 -5.8827,-7.75 -10.5013,-11.12723 -13.89621,-25.19813 -3.9656,-16.43647 1.598,1.40994 5.3805,3.83574 8.4055,5.39066 3.025,1.55492 6.3572,3.77633 7.405,4.93647 1.0477,1.16014 2.7769,2.10934 3.8426,2.10934 1.0657,0 5.2407,1.1726 9.2777,2.60577 8.5941,3.05096 11.9631,2.71021 5.4747,-0.55372 -2.475,-1.24502 -7.6572,-4.65806 -11.516,-7.58454 -4.531,-3.43629 -8.7812,-5.75214 -12,-6.53852 -6.2269,-1.5213 -7.9117,-2.70873 -6.4102,-4.51786 1.402,-1.68931 0.545,-3.03976 -3.1372,-4.94392 -2.0484,-1.05928 -2.9366,-2.26693 -2.9366,-3.99289 0,-2.80733 2.9461,-3.44915 4.9192,-1.07167 0.6403,0.77146 3.7329,2.61094 6.8724,4.08774 3.1396,1.4768 6.6084,3.50425 7.7084,4.50544 2.0021,1.82221 6.9151,2.40854 17.8333,2.12825 6.5514,-0.16818 5.6727,-2.12391 -1.7074,-3.8 -3.1629,-0.71834 -6.39,-1.94529 -7.1712,-2.72655 -0.7813,-0.78126 -4.5593,-2.39194 -8.3957,-3.57927 -5.1676,-1.59936 -7.7635,-3.0566 -10.0171,-5.62332 -1.673,-1.9055 -3.0419,-3.89887 -3.0419,-4.42974 0,-1.5975 14.2282,-1.10716 16.4411,0.5666 1.0677,0.80751 2.6427,1.45602 3.5,1.44114 1.3439,-0.0233 -2.2795,-3.82572 -7.6911,-8.07116 C 274.34555,78.75243 274.15265,77 275.49115,77 c 1.7564,0 20.0695,9.18827 20.0695,10.06949 0,0.88403 -4.5329,-0.49821 -6.4672,-1.9721 -1.6502,-1.25734 -4.5357,-2.10095 -4.5014,-1.31601 0.017,0.39524 1.2142,1.58137 2.6598,2.63585 1.905,1.38951 4.5112,1.96468 9.4686,2.0896 3.7621,0.0948 6.8402,-0.20439 6.8402,-0.66487 0,-0.46048 -2.1443,-1.87167 -4.7651,-3.13599 -5.9679,-2.87903 -11.2349,-6.72958 -11.2349,-8.21356 0,-0.62231 -1.4625,-1.77519 -3.25,-2.56194 -2.0134,-0.88621 -3.3695,-2.27057 -3.564,-3.6385 -0.1743,-1.22487 -1.844,-3.15355 -3.75,-4.33156 -1.8898,-1.16794 -3.436,-2.76183 -3.436,-3.54197 0,-1.77538 3.4117,-1.85555 5.1786,-0.12168 1.3884,1.36252 9.545,4.73051 16.3214,6.73937 6.9427,2.05817 12.784,6.05956 19.8332,13.58602 3.7582,4.01274 7.6957,7.56965 8.75,7.90425 1.0542,0.33461 1.9168,1.14055 1.9168,1.79099 10e-5,1.66386 6.8136,6.91585 8.0116,6.17546 1.5429,-0.9536 1.1653,-2.30193 -0.8213,-2.93245 -0.9953,-0.3159 -4.2578,-2.81428 -7.25,-5.55196 -2.9922,-2.73767 -6.0028,-4.98453 -6.6903,-4.99301 -0.6875,-0.008 -1.25,-0.90853 -1.25,-2.0001 0,-1.8298 0.4877,-1.93935 6.25,-1.40393 l 6.25,0.58074 -6.1912,-3.10932 c -3.4052,-1.71012 -7.6029,-3.39165 -9.3283,-3.73671 -2.0587,-0.41174 -3.4516,-1.45501 -4.0524,-3.03512 -0.5034,-1.32425 -2.4274,-3.0395 -4.2755,-3.81167 -1.848,-0.77217 -4.1247,-2.57089 -5.0592,-3.99717 -0.9346,-1.42627 -2.7658,-3.07919 -4.0694,-3.67316 -1.3036,-0.59396 -2.6184,-2.06886 -2.9217,-3.27756 -0.3034,-1.2087 -1.7295,-3.9333 -3.1691,-6.05466 -1.4396,-2.12137 -2.8598,-5.35097 -3.1561,-7.176898 C 287.37335,41.458578 287.58395,41 289.36245,41 c 1.1349,0 2.3239,0.820769 2.6423,1.823932 0.3184,1.003163 1.8112,2.993638 3.3174,4.423288 3.4763,3.29963 12.6279,7.96491 13.0825,6.66916 0.3528,-1.00542 -0.3562,-2.1237 -6.2866,-9.91638 -3.3252,-4.369394 -4.37,-7 -2.7803,-7 0.4275,0 3.3529,2.475 6.5011,5.5 3.1481,3.025 6.1876,5.5 6.7544,5.5 0.5668,0 -0.7837,-2.45578 -3.0011,-5.4573 -3.9099,-5.292639 -4.8761,-7.5427 -3.2389,-7.5427 0.8855,0 10.7227,10.6702 17.3377,18.80576 3.796,4.66864 9.3401,9.19424 11.2634,9.19424 1.8071,0 -2.9273,-6.25894 -6.8834,-9.10001 -2.4807,-1.78147 -4.5103,-3.7593 -4.5103,-4.3952 0,-0.63589 -1.125,-2.21305 -2.5,-3.50479 -2.8597,-2.686564 -3.1766,-4 -0.9652,-4 0.9501,0 0.1882,-1.182307 -2,-3.103592 -1.9441,-1.706976 -3.5348,-3.773498 -3.5348,-4.592271 0,-0.818773 -0.9,-2.632843 -2,-4.031266 C 309.96475,26.972703 309.94475,24 312.51855,24 c 2.2292,0 7.6812,5.167833 13.5421,12.836336 2.2,2.878503 5.0701,6.455396 6.378,7.948653 2.2819,2.605301 2.3487,2.620251 1.6524,0.369741 -2.6803,-8.662888 -5.448,-20.479068 -4.9757,-21.243172 1.0073,-1.629926 4.3478,-0.962207 5.4453,1.088442 1.28,2.391729 3,2.630616 3,0.416667 0,-2.797484 2.4258,-0.878585 3.1084,2.458844 0.3629,1.77429 0.9369,3.503145 1.2757,3.841902 1.1723,1.172313 0.6093,-3.861838 -0.9729,-8.699117 -1.8479,-5.649655 -1.5877,-8.360615 0.8474,-8.829576 1.1184,-0.215389 2.0834,0.580621 2.7137,2.238517 1.3026,3.425937 2.1182,3.275313 1.411,-0.26057 -0.4233,-2.116606 -0.1823,-2.833334 0.9528,-2.833334 1.5313,0 3.2788,3.904187 5.7815,12.916667 0.7255,2.6125 1.5796,4.75 1.8981,4.75 0.3185,0 0.3935,-2.915438 0.1666,-6.478751 -0.2269,-3.563314 -0.1032,-7.275814 0.2749,-8.25 0.609,-1.569172 0.8463,-1.48603 2.0797,0.728751 1.3624,2.446472 1.393,2.407513 1.4277,-1.819551 0.032,-3.899217 0.2544,-4.288456 2.2854,-4 1.9844,0.281822 2.3309,1.086994 2.9349,6.819551 0.3767,3.575 0.8811,7.625 1.121,9 1.2778,7.325053 1.9902,10 2.6629,10 0.806,0 2.0217,-9.739795 2.0465,-16.396691 0.01,-2.25682 0.4081,-4.723461 0.8882,-5.481424 1.1662,-1.841127 3.0696,-0.542654 3.2061,2.187132 0.06,1.205041 0.4854,0.286227 0.9449,-2.041808 C 375.91735,8.668701 378.48535,4 380.81255,4 c 1.9138,0 1.9886,0.421789 1.3735,7.75 -0.6329,7.540903 -0.6077,7.665134 0.9363,4.604506 C 385.92765,10.793889 395.47135,0 397.58265,0 c 1.3113,0 1.978,0.674079 1.978,2 0,2.605249 1.3929,2.546966 3.1721,-0.132734 1.0504,-1.581934 1.9858,-1.951921 3.622,-1.432613 3.1248,0.991766 2.7981,2.417383 -2.2941,10.011189 -2.475,3.690873 -4.5,7.52036 -4.5,8.509973 0,0.989613 -0.6843,2.367227 -1.5207,3.061366 -1.6689,1.385095 -7.4406,13.156993 -9.5523,19.482819 -0.7344,2.2 -1.6179,4.35195 -1.9632,4.78211 -0.668,0.83196 11.126,13.55084 12.1262,13.07712 1.1475,-0.54354 -1.0678,-13.25629 -3.4608,-19.85923 -1.0515,-2.901535 -1.1525,-4.359555 -0.3677,-5.3093 0.8525,-1.031773 1.8843,-0.395877 4.8677,3 2.0823,2.370115 4.3137,5.8843 4.9587,7.8093 0.645,1.925 1.5157,3.95 1.9348,4.5 0.4192,0.55 0.9516,1.9 1.1832,3 0.2316,1.1 0.3175,-3.85 0.1907,-11 -0.2158,-12.176723 -1.2086,-20.809951 -2.8346,-24.648849 -1.0385,-2.451861 1.1831,-3.248185 3.9691,-1.422722 2.9009,1.900717 5.9169,7.493896 7.5603,14.020259 1.4289,5.674644 2.4789,4.561884 3.4303,-3.635346 0.3713,-3.199312 1.1005,-6.079864 1.6205,-6.401226 1.9613,-1.212149 3.8578,1.881829 3.8578,6.293662 0,4.84431 1.9736,5.64229 3.0175,1.220083 0.315,-1.334224 1.2131,-2.425861 1.9958,-2.425861 1.0707,0 1.7249,2.723041 2.6417,10.995107 0.6702,6.047308 1.1846,12.797313 1.1432,15.000003 -0.097,5.18649 1.2357,12.50489 2.2779,12.50489 0.447,0 0.8585,-3.2625 0.9145,-7.25 0.159,-11.342346 1.1711,-16.248737 3.3536,-16.256882 1.9822,-0.0074 6.4936,-7.772461 8.7108,-14.993118 1.7348,-5.649825 6.6438,-12.5 8.9579,-12.5 3.5877,0 4.311,3.446537 2.4649,11.744526 -0.9266,4.164834 -2.594,9.638612 -3.7053,12.16395 -2.9429,6.687334 -7.7938,20.403574 -7.3669,20.830474 0.6155,0.6155 4.5944,-4.91619 4.5944,-6.38738 0,-0.75829 0.379,-2.1601 0.8423,-3.11514 0.4633,-0.95504 1.9042,-3.98643 3.2022,-6.73643 4.709,-9.977476 11.165,-16.098946 20.8714,-19.79016 3.3931,-1.290327 4.7399,-1.410492 5.8143,-0.518777 2.4065,1.997199 0.4824,5.994398 -6.0306,12.528605 -8.4882,8.51568 -12.3746,13.266782 -19.4523,23.780332 -3.3323,4.95 -7.4422,9.89763 -9.1331,10.99474 -4.3253,2.80646 -5.4815,6.25102 -4.6631,13.89283 l 0.686,6.40608 -3.4129,2.60318 C 441.40765,91.82857 439.51495,93 439.07865,93 c -0.4363,0 -3.0962,1.88328 -5.9109,4.18506 -9.2665,7.578 -19.06,20.56024 -27.7723,36.81494 -2.5058,4.675 -6.6037,11.95704 -9.1065,16.18231 -2.5028,4.22526 -4.8791,8.71756 -5.2807,9.98287 -0.4016,1.26531 -2.2416,5.57267 -4.0889,9.57192 -1.8473,3.99924 -3.3587,7.52281 -3.3587,7.83014 0,0.30733 -1.394,3.56793 -3.0977,7.24577 -1.7038,3.67784 -3.4828,7.58699 -3.9534,8.68699 -0.4706,1.1 -2.2266,5.09974 -3.9023,8.88832 -3.7497,8.47791 -3.7916,10.17427 -0.2966,11.98524 1.5125,0.7837 4.331,3.18829 6.2633,5.34353 1.9323,2.15524 4.1823,4.33808 5,4.85076 0.8177,0.51268 2.2683,2.50715 3.2236,4.43215 0.9553,1.925 2.6471,4.62555 3.7595,6.00121 1.1124,1.37567 2.2178,3.51486 2.4564,4.75376 0.5982,3.10586 1.4223,4.24503 3.071,4.24503 1.7786,0 3.4762,3.1146 3.4762,6.37755 0,3.15442 -3.3899,5.62245 -7.7225,5.62245 l -3.2775,0 0,8.87756 c 0,6.6712 0.3728,9.18694 1.5,10.12244 2.2435,1.86192 1.816,5.06069 -1.0802,8.0837 -1.5411,1.60861 -2.7967,4.30714 -3.1178,6.70107 l -0.5375,4.00793 6.0199,-0.0567 c 7.5956,-0.0715 11.5511,1.80409 16.8024,7.96745 5.8019,6.80949 8.0264,11.83369 6.7439,15.23141 -0.558,1.47821 -0.6699,3.61913 -0.2488,4.7576 0.8717,2.35627 -0.8698,10.45109 -2.4758,11.50821 -0.5854,0.38536 -0.9229,2.34375 -0.7499,4.35198 0.2492,2.8921 -0.3538,4.48312 -2.9001,7.65156 -1.768,2.20012 -3.6261,5.83147 -4.129,8.06965 -0.5028,2.23819 -1.6816,4.63052 -2.6195,5.3163 -1.5473,1.13144 -1.4739,1.29868 0.7936,1.80671 20.1639,4.51769 39.7154,8.96227 44.4988,10.11576 3.3,0.79577 12.3,2.81444 20,4.48592 7.7,1.67149 16.925,3.74028 20.5,4.59732 16.8951,4.05027 27.9698,6.57819 33,7.53258 5.3694,1.01876 10.0542,2.13014 30.5,7.23555 5.5,1.37337 20.8,5.0257 34,8.11627 13.2,3.09058 27.2731,6.43669 31.2736,7.4358 4.2697,1.06636 7.5108,1.43278 7.848,0.88725 0.8572,-1.38704 -2.1108,-4.22615 -7.1011,-6.79279 -6.1695,-3.17305 -8.3945,-5.49369 -11.2521,-11.73534 -2.6207,-5.72442 -3.2402,-10.7671 -1.9522,-15.88945 0.6437,-2.5598 0.3291,-3.65377 -1.7665,-6.14436 -1.4024,-1.66656 -2.5497,-3.57066 -2.5497,-4.23137 0,-2.28219 -3.9661,-6.75741 -9.7258,-10.9742 -3.4564,-2.53058 -7.1505,-6.42545 -9.1892,-9.68866 -4.1391,-6.62543 -7.1307,-9.10484 -11.9365,-9.89284 -2.0066,-0.32903 -4.6572,-1.08987 -5.8901,-1.69074 -2.68,-1.30619 -11.6528,-9.10659 -19.2584,-16.74199 l -5.5,-5.52158 -2.7946,2.85685 c -2.5792,2.63653 -3.1576,2.79787 -7.5,2.0921 -2.588,-0.42061 -7.4856,-0.66596 -10.8837,-0.54523 -7.7125,0.27402 -14.0497,-1.55904 -16.0748,-4.64968 -0.8538,-1.30309 -3.1712,-3.24526 -5.1496,-4.31593 -1.9785,-1.07068 -4.8497,-2.94372 -6.3803,-4.16231 -2.2866,-1.82039 -3.1184,-2.00622 -4.6628,-1.04173 -1.0338,0.64564 -4.1301,1.47242 -6.8806,1.83729 -4.9223,0.65297 -5.0276,0.6105 -6.7042,-2.70399 -0.9368,-1.85205 -2.6133,-4.363 -3.7255,-5.57988 -1.1121,-1.21689 -2.522,-3.16635 -3.133,-4.33214 -0.611,-1.16579 -2.8215,-3.08431 -4.9123,-4.26339 -4.7108,-2.65668 -6.2289,-1.20542 -4.0911,3.91103 1.8456,4.41715 1.758,5.39701 -0.4827,5.39701 -1.4775,0 -2.1577,-1.27354 -3.2074,-6.00508 -1.0071,-4.53967 -1.5546,-5.6076 -2.2438,-4.37623 -0.5013,0.89588 -0.6366,3.63452 -0.3006,6.08588 0.3516,2.56562 0.1438,5.32975 -0.4897,6.51358 -1.1462,2.14161 -0.782,2.18919 5.1167,0.66854 0.9484,-0.24449 1.5,0.32234 1.5,1.54136 0,2.97317 -5.1815,4.00621 -9.25,1.84419 -3.2181,-1.71009 -4.3533,-4.73779 -2.0627,-5.50133 0.7563,-0.25212 1.1011,-2.28263 0.95,-5.59449 -0.4124,-9.03878 5.5091,-15.21575 13.2028,-13.7724 2.0129,0.37764 3.6605,1.00372 3.6611,1.39129 7e-4,0.38758 1.1491,2.03936 2.5519,3.67062 1.4029,1.63126 3.4163,4.3665 4.4742,6.0783 2.3334,3.77538 5.7427,5.45577 11.0694,5.45577 4.5314,0 8.5914,1.83655 14.4033,6.51535 4.8104,3.87255 14.8751,7.48465 20.855,7.48465 2.6602,0 6.0873,-0.92527 8.8316,-2.38442 2.4665,-1.31144 5.9085,-2.69719 7.649,-3.07946 3.9624,-0.87029 3.9644,-1.68517 0.012,-5.01055 -2.9313,-2.4665 -3.5957,-2.60469 -9.4886,-1.97362 -12.4203,1.3301 -15.3315,0.13686 -24.0786,-9.86943 -1.7705,-2.02539 -3.6524,-3.68252 -4.1819,-3.68252 -1.9479,0 -5.2009,-6.06591 -5.746,-10.71466 -0.5245,-4.47253 -0.2929,-5.12154 3.5429,-9.9285 4.4549,-5.58278 4.9798,-8.09069 2.4891,-11.89202 -1.307,-1.99469 -2.445,-2.46482 -5.9663,-2.46482 -3.5143,0 -5.0312,-0.6239 -7.885,-3.24308 -4.1285,-3.78893 -4.6623,-7.39519 -1.2837,-8.67098 2.6018,-0.98243 4.8135,-0.0405 9.5348,4.06071 1.9141,1.66268 4.4424,2.85335 6.0589,2.85335 3.095,0 5.0696,1.30744 7.51,4.97251 2.256,3.38816 2.0716,5.50773 -0.8537,9.81268 -1.8991,2.79476 -2.5,4.96905 -2.5,9.04582 0,7.29671 1.9607,10.89571 9.6241,17.66564 l 6.522,5.76154 5.6769,-0.84277 c 11.197,-1.66226 16.478,-1.18826 20.4396,1.83458 2.0431,1.55899 4.8771,2.75 6.5436,2.75 3.7466,0 11.2405,3.29511 13.756,6.04859 1.0658,1.16664 3.2878,4.87583 4.9378,8.24263 4.4961,9.17422 5.8602,9.81525 18,8.45876 5.5,-0.61457 11.6155,-1.12782 13.5901,-1.14055 4.4862,-0.0289 11.0409,4.0301 24.0098,14.86803 5.28,4.4124 11.8968,9.20263 14.7041,10.64496 6.6025,3.3923 11.196,7.29112 11.196,9.50282 0,3.3548 2.2628,13.90549 4.0481,18.87476 0.9879,2.75 2.0127,7.24104 2.2772,9.98009 0.3977,4.11902 1.0766,5.50224 3.9262,8 1.895,1.66095 4.5133,4.59491 5.8185,6.51991 1.3053,1.925 3.3827,4.60336 4.6165,5.95192 1.2338,1.34856 2.5246,3.73256 2.8684,5.29779 0.4849,2.20816 0.9193,2.60166 1.9382,1.75604 2.3106,-1.91763 5.9785,2.76541 7.4363,9.49425 0.7149,3.3 1.6819,6.72737 2.1489,7.61638 1.0273,1.95568 8.7978,3.40748 10.2839,1.92138 2.0222,-2.02211 6.3301,-0.97779 16.3448,3.96224 5.575,2.75 11.0557,5 12.1795,5 2.4403,0 4.9499,3.80847 2.9066,4.41099 -0.7112,0.20972 -4.6681,0.91864 -8.7931,1.57539 -4.125,0.65674 -8.5337,1.60347 -9.7971,2.10385 -1.2633,0.50037 -4.6169,0.90977 -7.4523,0.90977 -4.3908,0 -5.6214,-0.45166 -8.2975,-3.04547 -2.7911,-2.70521 -4.111,-3.14544 -11.8138,-3.94016 -6.2559,-0.64544 -9.4012,-1.46852 -11.2903,-2.95453 -2.8105,-2.21074 -5.8473,-2.68066 -6.849,-1.05984 -0.3399,0.55 -2.3593,1 -4.4876,1 -3.5791,0 -6.3493,-1.53208 -7.1731,-3.96719 -0.1866,-0.5516 -2.5581,-1.41673 -5.27,-1.92251 -3.8429,-0.71673 -5.4241,-0.5963 -7.1673,0.54587 -2.8533,1.86957 -8.3989,0.92702 -11.4901,-1.95292 -1.2437,-1.15864 -4.3201,-2.40089 -6.8366,-2.76055 -2.5164,-0.35967 -10.2003,-1.82046 -17.0753,-3.24621 -6.875,-1.42576 -16.55,-3.08058 -21.5,-3.67738 -4.95,-0.5968 -14.0042,-2.19525 -20.1204,-3.5521 C 552.82405,411.11015 547.38485,410 546.85315,410 c -0.5317,0 -0.9882,3.3233 -1.0143,7.3851 -0.05,7.79262 -0.1685,8.04541 -10.228,21.85861 -1.2839,1.76292 -1.2553,2.13317 0.25,3.23382 2.0226,1.47899 2.2374,4.37895 0.3771,5.0928 -0.9513,0.36508 -1.2966,2.68619 -1.2298,8.26867 0.077,6.42622 0.4763,8.2487 2.3226,10.59592 1.2265,1.55914 2.2299,3.80911 2.2299,4.99994 0,1.19083 0.5308,2.69598 1.1796,3.34478 1.8489,1.84883 1.0294,11.13915 -1.2366,14.01989 -1.0686,1.3586 -1.943,2.92953 -1.943,3.49094 0,0.56141 -1.0499,2.41322 -2.3331,4.11514 -1.2833,1.70191 -2.8264,4.89439 -3.4291,7.09439 -0.6028,2.2 -1.9154,6.15302 -2.9169,8.78449 -1.5884,4.17365 -1.6322,4.90136 -0.3429,5.69995 1.0376,0.64263 1.5938,3.24009 1.8662,8.71551 0.2135,4.29003 0.6734,8.02505 1.022,8.30005 0.3486,0.275 1.4789,2.16287 2.5118,4.19526 3.1096,6.11862 0.477,8.83831 -4.6509,4.80474 -3.2955,-2.59223 -5.1505,-2.65965 -3.801,-0.13814 1.2421,2.321 -0.7922,5.52512 -2.9525,4.65007 -2.7204,-1.10198 -5.3632,-5.79663 -5.1388,-9.12862 0.4938,-7.33255 -3.322,-2.76488 -5.2829,6.32383 -0.3806,1.76393 -1.5605,5.00469 -2.6219,7.20169 -1.0615,2.19701 -1.93,4.40962 -1.93,4.91691 0,0.5073 -1.1513,2.98219 -2.5584,5.49977 -2.5394,4.54353 -2.5458,4.61292 -0.8635,9.37595 1.677,4.74831 1.6687,4.84565 -0.7945,9.29854 -1.4533,2.62721 -3.79,5.12426 -5.6148,6 -1.719,0.825 -3.1352,2.18737 -3.1472,3.02749 -0.012,0.84013 -0.8074,2.64013 -1.7679,4 -3.538,5.0093 -8.2537,15.44246 -8.2537,18.26088 0,5.17001 -2.6689,7.96906 -11.8823,12.46163 -9.931,4.84245 -14.094,5.33695 -16.7951,1.99495 -1.0024,-1.24028 -3.1443,-3.10582 -4.7597,-4.14566 -1.6154,-1.03984 -3.9451,-3.08854 -5.1771,-4.55267 -1.8365,-2.18253 -2.8852,-2.58671 -5.8222,-2.24384 -1.9702,0.23001 -3.8295,0.81848 -4.1319,1.30771 -0.3023,0.48923 -1.8828,0.88951 -3.5122,0.88951 -2.1418,0 -3.2089,0.62327 -3.8523,2.25 -0.4894,1.2375 -2.6564,6.76544 -4.8156,12.28431 l -3.9257,10.0343 2.321,3.66738 c 1.7952,2.83655 3.1742,3.80907 6.0871,4.29283 6.4824,1.07659 9.4346,2.35892 14.6806,6.37672 7.8238,5.99214 12.2085,8.09504 16.8658,8.08888 4.2897,-0.006 11.8102,-1.69415 12.7196,-2.85574 1.8225,-2.32799 5.3463,-3.23786 8.1086,-2.09368 1.5903,0.6587 2.8914,1.54056 2.8914,1.95969 0,0.41913 1.0125,1.10631 2.25,1.52708 10.205,3.46983 20.75,11.28899 20.75,15.38617 0,0.61006 0.4112,1.89059 0.9138,2.84563 0.5026,0.95504 1.4484,4.43643 2.1018,7.73643 1.3677,6.90691 3.1924,11.28073 7.1677,17.18018 1.5492,2.29909 2.8167,4.46801 2.8167,4.81982 0,0.68078 5.3702,8.68095 7.9545,11.85007 2.8253,3.4646 5.408,5.64993 6.6774,5.64993 1.8136,0 4.3681,4.03664 4.3681,6.90244 0,1.71851 1.9668,4.34827 6.5408,8.74573 4.2139,4.05125 7.4386,8.24941 9.0645,11.80094 1.3881,3.03196 2.9512,5.77678 3.4735,6.09962 0.5224,0.32283 1.7989,2.2513 2.8366,4.28549 1.0378,2.03419 3.5064,5.4666 5.4857,7.62757 2.9617,3.23337 3.5989,4.68841 3.5989,8.21785 0,11.07194 -13.3159,15.24588 -32.3797,10.14956 -9.1222,-2.43865 -10.6203,-3.27415 -10.6203,-5.92313 0,-2.08452 -3.9086,-10.68998 -7.1633,-15.7715 -1.9654,-3.0685 -2.0484,-3.78363 -0.9408,-8.10538 0.6681,-2.60698 0.9303,-5.87358 0.5825,-7.25911 -0.6423,-2.55924 -4.0763,-4.77008 -7.4091,-4.77008 -2.5241,0 -9.0693,-7.4721 -9.0693,-10.35366 0,-1.29134 0.4896,-3.75243 1.0881,-5.46909 0.9237,-2.64971 0.7726,-3.56415 -1,-6.05359 -1.1485,-1.61282 -2.0881,-3.34058 -2.0881,-3.83947 0,-0.49889 -0.8775,-1.84895 -1.95,-3.00014 -1.0725,-1.15118 -2.8952,-4.10394 -4.0505,-6.56167 -3.0981,-6.59099 -5.8316,-8.65361 -13.6306,-10.28538 -11.5445,-2.41543 -52.421,-1.38495 -63.5102,1.60105 -2.1137,0.56915 -6.1167,2.44821 -8.8956,4.17568 -4.2133,2.6191 -5.502,2.98351 -7.7579,2.19359 -2.7951,-0.97875 -3.6292,-2.31664 -9.6872,-15.53869 -2.7481,-5.998 -4.0228,-7.73197 -5.9553,-8.1014 -3.5746,-0.68333 -14.1209,3.3533 -21.1893,8.11026 -6.8156,4.58688 -11.1105,5.86878 -14.1724,4.23009 -1.9352,-1.03572 -2.0805,-0.74597 -2.7472,5.479 -0.9068,8.46741 -0.1324,13.82196 3.0345,20.9829 4.0165,9.08199 8.3758,13.71956 15.0188,15.97759 5.9405,2.01924 8.4772,4.89749 8.5076,9.65327 0.01,1.26481 0.6547,3.42466 1.4368,4.79966 5.6706,9.96902 8.4472,20.03772 8.3437,30.25636 -0.046,4.52784 0.4729,6.55534 2.4309,9.5 1.3691,2.059 4.2408,7.30528 6.3816,11.6584 2.1408,4.35312 5.7886,9.85181 8.1063,12.21931 3.999,4.08492 8.286,11.00791 8.286,13.38096 0,0.60208 0.905,3.08134 2.0111,5.50945 1.9666,4.31692 4.5589,7.23758 14.7216,16.5864 2.7567,2.53599 5.4071,5.26067 5.8898,6.05485 0.4826,0.79417 2.5713,2.47238 4.6416,3.72935 4.6071,2.79728 9.2111,9.31777 10.1376,14.35734 0.9669,5.25943 -1.5787,10.18095 -6.8697,13.28168 -4.1818,2.45074 -11.8348,3.40293 -12.9427,1.61035 -0.2908,-0.47055 -3.8049,-0.24622 -7.809,0.4985 -13.6261,2.5343 -13.0977,2.53547 -15.6408,-0.0349 z m 32.6294,-294.3989 c 2.0571,-1.58331 2.358,-2.99237 3.2229,-15.0942 0.607,-8.49353 0.6059,-13.9982 0,-15.13608 -0.5264,-0.98351 -0.9055,-4.07678 -0.8425,-6.87394 0.063,-2.79715 -0.3373,-5.65257 -0.8897,-6.34536 -0.5524,-0.69279 -2.9279,-4.97212 -5.2787,-9.50962 -3.0176,-5.8243 -4.8188,-8.25 -6.1261,-8.25 -3.1796,0 -2.5265,2.27849 5.2822,18.42721 1.5763,3.25997 2.8661,7.27454 2.8661,8.92126 0,3.27157 -2.4421,6.65153 -4.8058,6.65153 -1.2816,0 -1.3785,1.39701 -0.6768,9.75 0.4505,5.3625 0.8559,11.8875 0.9008,14.5 0.07,4.06394 0.3706,4.74679 2.0818,4.72776 1.1,-0.0122 3.021,-0.80808 4.2689,-1.76856 z M 441.56065,551 c 0,-2.2 0.45,-4 1,-4 2.0144,0 0.952,-4.06477 -1.3347,-5.10665 -1.2841,-0.58508 -3.1096,-2.37543 -4.0566,-3.97856 -1.9078,-3.22975 -3.1068,-3.66515 -3.9612,-1.43855 -0.64,1.66774 6.1859,18.52376 7.5012,18.52376 0.4682,0 0.8513,-1.8 0.8513,-4 z M 91.213704,477.91148 c 2.66582,-2.79868 6.64695,-5.99719 8.846946,-7.1078 3.90693,-1.9723 10.5,-7.53633 10.5,-8.86117 0,-0.36584 -1.06807,-0.46099 -2.37349,-0.21144 -1.41808,0.27108 -2.32378,1.11022 -2.25,2.08464 0.0754,0.99627 -1.84071,2.69398 -4.92414,4.36279 C 95.526564,471.14787 82.697064,483 84.969284,483 c 0.76861,0 3.57859,-2.28983 6.24442,-5.08852 z m 27.447726,-19.08283 c 1.86957,-0.64423 4.03318,-2.05982 4.80801,-3.14574 0.77483,-1.08592 2.23733,-2.68383 3.25,-3.5509 1.01267,-0.86707 1.84121,-2.04702 1.84121,-2.62212 0,-0.57509 1.125,-2.70121 2.5,-4.7247 2.81618,-4.14438 2.99473,-4.78519 1.33333,-4.78519 -0.64166,0 -0.89444,0.27223 -0.56172,0.60495 0.33273,0.33272 -0.49227,1.62182 -1.83333,2.86467 -1.34105,1.24285 -2.43828,2.94141 -2.43828,3.77459 0,1.4218 -6.14021,7.08607 -11.92342,10.9992 -2.99139,2.02409 -1.81305,2.25212 3.0242,0.58524 z M 136.06065,438 c -0.33992,-0.55 -0.81648,-1 -1.05902,-1 -0.24254,0 -0.44098,0.45 -0.44098,1 0,0.55 0.47656,1 1.05902,1 0.58246,0 0.7809,-0.45 0.44098,-1 z m 6.75,-4.29577 c 2.6125,-1.53369 4.75,-3.44457 4.75,-4.24638 0,-1.9814 -0.11293,-1.93709 -5.08022,1.99367 -2.39892,1.89833 -4.60702,3.05453 -4.9069,2.56932 -0.29987,-0.48521 -1.54788,-0.12589 -2.77335,0.79848 l -2.22812,1.68068 2.74429,-0.004 c 1.50937,-0.002 4.8818,-1.25846 7.4943,-2.79216 z m 253.75,1.37269 c 0,-0.50769 -1.35,-2.27307 -3,-3.92307 -2.6686,-2.66862 -3.8783,-5.15385 -2.5086,-5.15385 0.2702,0 2.5547,1.575 5.0765,3.5 4.8607,3.71018 8.8478,4.91071 6.3621,1.91561 -0.7232,-0.87142 -3.2233,-2.89738 -5.5558,-4.50215 -4.3748,-3.00997 -6.2993,-6.38835 -4.6045,-8.08314 0.6245,-0.62447 2.3466,0.3189 4.8493,2.65647 4.7274,4.41531 9.0508,6.85655 9.8507,5.56224 0.3208,-0.51901 -1.2564,-4.39568 -3.5048,-8.61483 -3.7683,-7.07129 -4.4432,-10.4342 -2.0941,-10.4342 0.5135,0 1.3966,1.32829 1.9625,2.95174 0.566,1.62346 2.185,4.65292 3.5979,6.73214 l 2.5688,3.78039 0,-3.33711 c 0,-2.05342 -1.154,-5.04703 -3,-7.78227 -3.5345,-5.2372 -3.9069,-8.34489 -1,-8.34489 1.1,0 2,0.49724 2,1.10498 0,0.60773 1.3063,3.0405 2.9028,5.40614 1.5966,2.36564 3.2248,5.3559 3.6183,6.64502 0.3935,1.28912 1.2717,3.01886 1.9516,3.84386 0.6798,0.825 1.8615,2.9625 2.6258,4.75 0.7644,1.7875 1.7033,3.25 2.0866,3.25 1.172,0 1.9035,-1.8272 0.964,-2.40783 -0.4859,-0.30032 -1.8879,-3.66998 -3.1156,-7.48814 -1.2277,-3.81816 -3.3125,-7.95698 -4.6329,-9.19738 -2.391,-2.24623 -3.2077,-4.90665 -1.5064,-4.90665 0.8761,0 5.6034,4.4157 7.6313,7.1283 0.564,0.75443 1.6222,3.20451 2.3516,5.44461 1.3196,4.05291 4.5243,7.20475 5.5832,5.49128 0.3042,-0.49216 -0.5116,-2.17045 -1.8129,-3.72952 -1.3013,-1.55907 -3.0849,-4.23724 -3.9635,-5.9515 -0.8787,-1.71425 -3.1779,-5.18725 -5.1095,-7.71777 -3.1566,-4.13542 -3.3381,-4.69827 -1.7932,-5.56283 0.9453,-0.52904 1.6063,-1.21854 1.4688,-1.53223 -0.5813,-1.32606 -0.098,-1.41314 2.6089,-0.46968 1.9871,0.69268 4.0158,2.97479 6.6524,7.48313 2.0864,3.56757 4.2048,6.74075 4.7076,7.05149 1.787,1.10444 2.0273,-0.61053 0.4277,-3.05192 -1.0758,-1.64179 -1.2679,-2.69937 -0.5689,-3.13135 1.3056,-0.80692 3.721,2.19868 4.4584,5.54799 1.4233,6.46366 6.2028,11.08165 9.9722,9.63518 1.6492,-0.63286 1.5345,-1.00434 -1.2098,-3.91717 -1.6675,-1.76991 -4.228,-5.88432 -5.69,-9.14315 -3.6056,-8.03681 -1.891,-9.4837 2.7118,-2.2884 4.6359,7.24718 7.2199,9.14345 4.2476,3.11718 -2.4807,-5.02958 -2.9883,-8.40364 -1.2642,-8.40364 0.992,0 1.753,1.37596 2.1893,3.95827 0.4181,2.47511 1.3202,4.16506 2.4075,4.51014 0.9563,0.30353 2.5092,2.1675 3.4508,4.14217 1.4306,2.99988 2.0992,3.49316 4.066,2.99953 1.4761,-0.37048 2.8151,-0.035 3.5907,0.89956 0.6803,0.81968 1.7102,1.49033 2.2888,1.49033 0.5785,0 0.073,-1.0415 -1.1225,-2.31445 -1.1959,-1.27295 -2.1868,-2.73545 -2.2021,-3.25 -0.049,-1.63544 -5.874,-8.73118 -8.6782,-10.57072 -2.4293,-1.59356 -2.5167,-1.84213 -0.8703,-2.47391 1.3782,-0.52886 3.058,0.57123 6.8003,4.45336 2.7335,2.83565 5.1401,5.15572 5.348,5.15572 0.2079,0 0.108,-1.35 -0.222,-3 -0.4999,-2.49945 -0.2799,-3 1.3187,-3 1.53,0 2.1877,1.21252 3.2465,5.98509 1.314,5.92279 4.7132,11.04618 7.2871,10.98311 0.9351,-0.0229 0.8658,-0.37214 -0.2482,-1.25 -2.9478,-2.32298 -4.9541,-6.1799 -4.9541,-9.52404 0,-4.71441 2.1041,-3.61538 3.4297,1.7914 1.2017,4.90188 3.5703,6.6644 3.5703,2.65679 0,-1.38837 0.45,-2.80243 1,-3.14235 0.55,-0.33992 1,-1.64673 1,-2.90403 0,-1.2573 0.9,-3.10048 2,-4.09597 1.1,-0.99549 2,-2.58723 2,-3.5372 0,-1.44258 -2.7604,-2.24472 -16.75,-4.86732 -21.4797,-4.02677 -45.4013,-8.55492 -61.226,-11.58954 -12.9812,-2.48931 -13.9731,-2.36365 -14.0087,1.77461 -0.01,0.9793 1.5597,3.16342 3.4847,4.85359 2.3897,2.09819 3.5,3.9363 3.5,5.7943 0,2.8361 -3.3542,13.30472 -6.7612,21.10217 -1.7788,4.07103 -1.8644,5.23338 -0.8433,11.45868 0.9967,6.07645 1.4418,7.01309 3.6205,7.61971 3.6422,1.01412 4.984,1.00548 4.984,-0.0321 z m 128.5493,-17.90712 c 0.6447,-2.86248 1.9098,-6.01963 2.8114,-7.01589 2.236,-2.47078 2.0637,-3.15391 -0.7956,-3.15391 -1.3392,0 -3.6093,-0.4465 -5.0446,-0.99222 C 518.63395,404.69715 500.85555,401 498.00035,401 c -2.1371,0 -2.2346,0.35114 -2.0907,7.53025 l 0.151,7.53025 3.5,-0.20528 c 10.2943,-0.60379 13.756,0.0749 18.1723,3.56262 2.3802,1.87981 4.7501,3.31403 5.2663,3.18715 0.5162,-0.12689 1.466,-2.57272 2.1107,-5.43519 z m 144.6111,2.59055 c -0.6023,-0.60221 -2.1603,-0.69353 -3.8372,-0.2249 l -2.8232,0.78902 3,0.65937 c 3.4892,0.7669 5.1092,0.22539 3.6604,-1.22349 z M 559.56065,311.23213 c 0,-1.04116 -5.0932,-8.56242 -6.3764,-9.41615 -2.0613,-1.37145 -2.6893,0.43708 -1.051,3.02662 3.079,4.86644 7.4274,8.60725 7.4274,6.38953 z m -256,-43.25688 c 0,-0.56361 1.2375,-1.53506 2.75,-2.15877 2.699,-1.11297 2.659,-1.14849 -2.1533,-1.91428 -2.6968,-0.42914 -5.2598,-1.35717 -5.6956,-2.06227 -1.0436,-1.68853 -1.7442,-0.87418 -2.5003,2.90599 -0.5656,2.82801 -0.369,3.13757 2.2396,3.52725 5.0745,0.75803 5.3596,0.74218 5.3596,-0.29792 z M 314.06065,254 c -0.3399,-0.55 -1.9069,-1 -3.4823,-1 -3.2728,0 -9.0022,-4.33044 -9.0481,-6.83889 -0.026,-1.42418 -0.1523,-1.44716 -0.8852,-0.16111 -0.4702,0.825 -1.1589,2.92424 -1.5304,4.66497 -0.8007,3.7514 -0.1544,4.04602 9.255,4.21903 3.9783,0.0731 6.0807,-0.25342 5.691,-0.884 z m -11.366,-80.15829 c 5.9637,-1.78677 5.1095,-2.89424 -3.395,-4.40176 -2.0686,-0.36667 -4.0077,-1.06566 -4.3091,-1.55331 -0.6639,-1.07424 -5.4299,-1.19417 -5.4299,-0.13664 -1e-4,0.95907 7.2112,7.16264 8.384,7.21245 0.4862,0.0207 2.6237,-0.48368 4.75,-1.12074 z m 24.366,-3.33014 c 4.1315,-1.15695 4.6173,-1.51484 2.7966,-2.06032 -1.2119,-0.36309 -2.9098,-1.73815 -3.7731,-3.0557 -2.274,-3.47053 -4.1671,-2.97896 -4.8551,1.26065 -0.4933,3.03958 -0.1967,5.49315 0.6406,5.29967 0.1051,-0.0243 2.441,-0.67421 5.191,-1.4443 z m 51,-11.51157 c -0.3399,-0.55 -1.2836,-1 -2.0972,-1 -0.8135,0 -4.2654,-1.77154 -7.6709,-3.93675 -3.4054,-2.16521 -6.3239,-3.80462 -6.4853,-3.64313 -0.9838,0.98373 1.4081,3.64473 4.0918,4.55226 1.7389,0.58802 4.2866,1.94978 5.6616,3.02614 2.5745,2.01536 7.6057,2.79053 6.5,1.00148 z m 0.8065,-26.12801 C 377.20785,129.9988 367.85025,122 366.14835,122 c -1.0285,0 -3.9115,-2.9951 -2.9091,-3.02224 0.4518,-0.0122 -0.2029,-0.81056 -1.4548,-1.77407 -1.3994,-1.07698 -2.5097,-3.28346 -2.8823,-5.72776 -0.3334,-2.18676 -1.3607,-4.87593 -2.2829,-5.97593 -0.9223,-1.1 -2.2296,-3.29565 -2.9052,-4.87923 -1.4006,-3.28312 -1.3364,-3.31512 -5.012,2.49983 l -2.7409,4.3362 6.0177,4.42996 c 3.3097,2.43647 8.5071,7.01274 11.5497,10.16947 6.7228,6.97485 14.7941,13.94377 16.1495,13.94377 0.5476,0 0.1827,-1.40761 -0.8109,-3.12801 z m -19.3065,1.15226 c 0,-0.53666 -1.6487,-2.44916 -3.6639,-4.25 -2.0151,-1.80084 -6.0239,-5.6841 -8.9085,-8.62947 -5.1443,-5.25279 -5.2674,-5.31256 -6.4382,-3.125 -0.9369,1.75063 -0.9151,2.75058 0.1015,4.65005 1.1561,2.16027 7.9306,7.74534 13.3969,11.04473 2.4432,1.47473 5.5122,1.64715 5.5122,0.30969 z m -48.4693,-10.71099 c 1.9454,0.92771 3.8161,1.68674 4.157,1.68674 0.3409,0 -2.3928,-2.925 -6.0749,-6.5 l -6.6948,-6.5 -5.959,0 c -3.2774,0 -5.959,0.40309 -5.959,0.89575 0,0.49267 2.1635,2.28405 4.8077,3.98084 2.6442,1.69679 5.8952,4.2427 7.2244,5.65758 2.2482,2.3931 2.5055,2.45115 3.6891,0.83242 1.1996,-1.64053 1.4747,-1.64358 4.8095,-0.0533 z m 55.9342,-21.25646 c 0.434,-0.7022 -4.4742,-9.71266 -7.0138,-12.87609 -0.4894,-0.60957 -4.4511,2.30579 -4.4511,3.27549 0,1.12932 9.0659,10.5438 10.1534,10.5438 0.4007,0 0.9909,-0.42444 1.3115,-0.9432 z m 32.3191,-8.79121 c -5.4172,-3.07667 -5.3031,-2.9352 -3.8139,-4.72959 1.0257,-1.23582 0.9614,-1.62505 -0.3514,-2.12882 -2.3579,-0.90482 -10.7951,-12.50508 -10.208,-14.03498 0.879,-2.2908 -1.4792,-2.65502 -3.7347,-0.5768 -1.1968,1.10272 -3.076,2.196 -4.176,2.42953 -1.7266,0.36655 -1.5386,0.68774 1.3753,2.34983 5.8323,3.32676 13.1247,9.40999 13.1247,10.94849 0,0.81221 0.45,1.47675 1,1.47675 0.55,0 1,0.53055 1,1.17899 0,0.64845 1.6362,2.67773 3.6361,4.50952 2.8802,2.63816 3.9267,3.08934 5.034,2.17034 1.1426,-0.94827 0.6154,-1.60459 -2.8861,-3.59326 z m -29.784,-4.71854 c 0,-0.24912 -0.5278,-1.61132 -1.1729,-3.02712 -0.896,-1.96664 -0.8965,-2.85054 0,-3.74511 0.8946,-0.89457 1.9975,-0.36984 4.6729,2.22329 1.9261,1.86682 3.502,2.98349 3.502,2.48149 0,-2.20781 -3.3784,-9.4796 -4.4042,-9.4796 -0.6229,0 -3.2714,1.76748 -5.8856,3.92774 -4.8871,4.03851 -4.8869,4.02965 -0.2102,6.72393 2.1923,1.26304 3.5,1.59757 3.5,0.89538 z m 29.8431,-11.57135 c -2.3887,-2.76336 -5.3478,-6.47586 -6.5758,-8.25 -1.2279,-1.77413 -2.6904,-3.76921 -3.25,-4.43349 -0.5595,-0.66429 -1.0173,-1.87523 -1.0173,-2.69099 0,-0.81575 -0.3883,-1.72315 -0.8628,-2.01644 -0.4746,-0.29329 -1.4367,-2.58288 -2.1381,-5.08797 l -1.2752,-4.55471 -2.3834,3.50748 -2.3834,3.50749 2.0214,2.02146 c 1.1118,1.11181 2.0215,2.68794 2.0215,3.50253 0,1.78424 17.2334,19.51894 18.9672,19.51894 0.6705,0 -0.7354,-2.26093 -3.1241,-5.0243 z m 13.7541,-29.44449 c -0.4855,-1.93418 -3.3396,-4.227689 -4.1126,-3.304749 -0.1259,0.150447 0.6838,2.298539 1.7995,4.773539 1.4776,3.27791 2.1458,4.00326 2.4607,2.67091 0.2378,-1.00601 0.1714,-2.86887 -0.1476,-4.1397 z"
     id="path2987"
     inkscape:connector-curvature="0" />
</svg>
