<?xml version="1.0" encoding="UTF-8" standalone="no"?>
<!-- Created with Inkscape (http://www.inkscape.org/) -->

<svg
   xmlns:dc="http://purl.org/dc/elements/1.1/"
   xmlns:cc="http://creativecommons.org/ns#"
   xmlns:rdf="http://www.w3.org/1999/02/22-rdf-syntax-ns#"
   xmlns:svg="http://www.w3.org/2000/svg"
   xmlns="http://www.w3.org/2000/svg"
   xmlns:sodipodi="http://sodipodi.sourceforge.net/DTD/sodipodi-0.dtd"
   xmlns:inkscape="http://www.inkscape.org/namespaces/inkscape"
   id="svg2"
   version="1.1"
   inkscape:version="0.48.2 r9819"
   width="598.18707"
   height="682.96204"
   sodipodi:docname="gustavusadolphus00dodg_0842d.png">
  <metadata
     id="metadata8">
    <rdf:RDF>
      <cc:Work
         rdf:about="">
        <dc:format>image/svg+xml</dc:format>
        <dc:type
           rdf:resource="http://purl.org/dc/dcmitype/StillImage" />
        <dc:title></dc:title>
      </cc:Work>
    </rdf:RDF>
  </metadata>
  <defs
     id="defs6" />
  <sodipodi:namedview
     pagecolor="#ffffff"
     bordercolor="#666666"
     borderopacity="1"
     objecttolerance="10"
     gridtolerance="10"
     guidetolerance="10"
     inkscape:pageopacity="0"
     inkscape:pageshadow="2"
     inkscape:window-width="1920"
     inkscape:window-height="1176"
     id="namedview4"
     showgrid="false"
     fit-margin-top="0"
     fit-margin-left="0"
     fit-margin-right="0"
     fit-margin-bottom="0"
     inkscape:zoom="1"
     inkscape:cx="292.5"
     inkscape:cy="349.1287"
     inkscape:window-x="0"
     inkscape:window-y="24"
     inkscape:window-maximized="1"
     inkscape:current-layer="svg2" />
  <path
     style="fill:#000000"
     d="m 438.75,682.62665 -11.75,0.33538 0,-0.66969 c 0,-0.36833 -1.4625,-1.09358 -3.25,-1.61167 l -3.25,-0.94198 0.11017,-3.45268 c 0.0606,-1.89897 0.3491,-6.60268 0.64112,-10.45268 l 0.53094,-7 1.4395,-4.09787 1.43951,-4.09787 3.33676,-4.15213 c 1.8352,-2.28367 3.7114,-4.15213 4.1694,-4.15213 l 0.8326,0 0,-1.29166 0,-1.29166 3.25,-3.57897 c 1.7875,-1.96843 4.3072,-4.9797 5.5993,-6.6917 1.2921,-1.71201 3.1533,-4.68959 4.1358,-6.61685 0.9826,-1.92726 2.8047,-6.54725 4.0492,-10.26664 1.2445,-3.71938 3.1304,-9.36467 4.1909,-12.54507 l 1.9282,-5.78256 0.1674,-8.21744 c 0.092,-4.5196 -0.1287,-10.24245 -0.4907,-12.71745 -0.362,-2.475 -1.2165,-6.75 -1.8988,-9.5 -0.6824,-2.75 -2.9325,-8.69197 -5.0003,-13.20438 -2.0678,-4.51242 -5.0175,-9.91242 -6.5549,-12 -1.5373,-2.08759 -2.9366,-3.99383 -3.1095,-4.2361 -0.1728,-0.24226 -0.9574,0.20774 -1.7435,1 l -1.4294,1.44048 -0.1765,29.5 -0.1766,29.5 1.0341,14.91729 1.0341,14.91729 -0.5114,1.33271 -0.5114,1.33271 -1.2174,0 -1.2175,0 -1.2043,-23.75 c -0.6625,-13.0625 -1.4,-29.15 -1.6391,-35.75 -0.2391,-6.6 -0.7276,-16.29561 -1.0856,-21.54581 l -0.6508,-9.54581 -1.9525,-0.14707 -1.95244,-0.14708 -4.68318,2.55758 c -2.57575,1.40668 -5.53726,3.37255 -6.58113,4.36862 l -1.89796,1.81103 0.2849,7.82427 c 0.1567,4.30335 0.30342,10.74927 0.32604,14.32427 0.0226,3.575 -0.26287,16.47277 -0.63445,28.66172 -0.37158,12.18894 -0.94986,22.87644 -1.28508,23.75 l -0.60948,1.58828 -1.22558,0 -1.22558,0 0.21107,-11.75 c 0.11608,-6.4625 0.31874,-18.05 0.45034,-25.75 0.1316,-7.7 0.18628,-18.4205 0.1215,-23.82332 L 409,551.18668 l -1.6509,0.32333 -1.6509,0.32332 -5.31587,10 -5.31587,10 -0.037,9.5 -0.037,9.5 -2.02742,3.32542 -2.02743,3.32541 0.61359,3.27073 0.61359,3.27073 -1.45275,1.45275 c -0.79901,0.79901 -2.24046,3.00575 -3.20322,4.90386 l -1.75046,3.4511 -6.62921,6.2791 c -3.64607,3.4535 -10.17451,8.7561 -14.50766,11.78356 -4.33315,3.02745 -8.72696,5.95857 -9.76402,6.51359 l -1.88556,1.00912 -3.48598,-0.65398 -3.48599,-0.65397 -0.0351,-13.63871 -0.0351,-13.63871 -1.31001,-6.1019 -1.31,-6.10191 3.82211,-8.39809 c 2.10216,-4.61896 3.83247,-8.97556 3.84514,-9.68134 0.0127,-0.70579 1.12337,-3.45469 2.46825,-6.10867 l 2.44523,-4.82543 9.30477,-7.58071 c 5.11762,-4.16939 9.97977,-8.42204 10.80477,-9.45035 0.825,-1.0283 2.40647,-3.19308 3.51437,-4.81062 1.10791,-1.61754 2.66691,-4.29098 3.46445,-5.94098 0.79754,-1.65 3.61911,-6.20366 6.27014,-10.11925 l 4.82006,-7.11924 0.97289,-6.04113 0.9729,-6.04113 -0.4331,-2.33962 c -0.2382,-1.2868 -0.46653,-3.14641 -0.5074,-4.13247 L 395,504.24765 l -4.73394,-5.06097 -4.73394,-5.06096 -13.28326,-6.4321 -13.28327,-6.4321 -6.48376,-6.7108 -6.48377,-6.71079 -0.61032,-3.2533 -0.61032,-3.2533 -3.07852,0 c -1.69318,0 -5.8056,0.47032 -9.1387,1.04515 -3.33311,0.57484 -11.0102,2.1481 -17.0602,3.49615 l -11,2.45099 -13.22048,0.34242 -13.22047,0.34243 -0.32498,-0.97493 -0.32498,-0.97494 -4.45454,0.0191 -4.45455,0.0191 -1.24435,-1.00048 -1.24436,-1.00049 -2.02251,2.36776 c -1.11238,1.30227 -2.45839,3.11347 -2.99113,4.0249 l -0.96862,1.65714 1.81699,2.24389 1.81699,2.24389 3.33586,-4.15103 3.33586,-4.15103 1.716,0 1.71601,0 0.52301,2 0.52301,2 3.59362,0 3.59362,0 0,1.49153 0,1.49152 -1.85193,1.15655 -1.85192,1.15655 1.96996,1.96996 1.96996,1.96996 -1.21853,0.75309 -1.21852,0.75309 -3.94588,-0.88658 c -2.17023,-0.48762 -4.26251,-0.93292 -4.64951,-0.98955 -0.387,-0.0566 -2.16613,-0.0497 -3.95363,0.0155 l -3.25,0.11836 0,1.5 0,1.5 2.91821,0 c 1.60502,0 3.62743,0.27215 4.49426,0.60478 l 1.57604,0.60479 -0.55461,0.89738 -0.55461,0.89738 -3.85488,-0.61642 -3.85488,-0.61642 -1.58477,3.0646 c -0.87162,1.68552 -1.59272,3.87444 -1.60245,4.86425 l -0.0177,1.79966 -2.73232,2.32669 c -1.50277,1.27968 -4.08231,3.41663 -5.73231,4.74878 l -3,2.42209 -2.25656,10e-4 -2.25655,0.001 -4.33143,-6.75 c -2.38229,-3.7125 -4.96684,-7.25685 -5.74345,-7.87633 -0.7766,-0.61949 -3.74637,-1.79946 -6.59948,-2.62216 l -5.18747,-1.49582 -3.0993,-2.37785 c -1.70461,-1.30781 -4.62186,-3.63044 -6.48277,-5.1614 l -3.38347,-2.78356 -0.51378,0.8313 -0.51377,0.83131 0.68401,1.10633 0.68402,1.10632 -0.79967,16.84593 -0.79966,16.84593 1.04966,7.29085 1.04967,7.29085 0,15.74905 0,15.74905 1.48406,5.69769 c 0.81623,3.13373 2.41151,10.99077 3.54507,17.4601 l 2.06102,11.76241 2.08739,4 2.0874,4 -0.0771,7 -0.0771,7 -1.38651,3.94371 -1.38652,3.94372 -1.16885,0.38962 -1.16886,0.38962 0,-1.66667 0,-1.66667 -1.2243,0.4081 -1.22429,0.4081 -0.60206,2.92524 c -0.33113,1.60887 -1.16066,3.96507 -1.84341,5.236 l -1.24135,2.31076 -1.18229,-0.39908 -1.1823,-0.39908 -0.10194,-1.91169 c -0.056,-1.05098 -0.20278,-4.38624 -0.32606,-7.41124 l -0.22414,-5.5 -1.34784,3.5 c -0.74131,1.925 -1.38208,4.6475 -1.42392,6.05 l -0.0761,2.55 -1.09994,1.09994 -1.09994,1.09994 0.52543,9.35006 c 0.28899,5.14253 0.83125,10.78676 1.20503,12.54273 l 0.67959,3.19267 -3.7571,1.56982 c -2.06641,0.8634 -5.6012,1.82419 -7.85509,2.13508 -2.25389,0.31089 -4.99798,0.91298 -6.09798,1.33797 -1.1,0.42498 -3.575,1.34823 -5.5,2.05165 -1.925,0.70342 -6.2,1.65779 -9.5,2.12082 -3.3,0.46303 -9.825,0.83023 -14.5,0.816 l -8.5,-0.0259 -0.92389,-0.91929 -0.92388,-0.91929 -0.0256,-3.27612 c -0.0141,-1.80186 0.32804,-4.47418 0.7603,-5.93848 l 0.78592,-2.66238 -6.33642,-0.11123 c -3.48502,-0.0612 -8.77226,-0.30524 -11.7494,-0.54234 l -5.413,-0.43111 -0.84584,-1.29528 c -0.46522,-0.71241 -1.10501,-2.26538 -1.42176,-3.45104 l -0.57592,-2.15575 2.75487,-4.84425 c 1.51518,-2.66434 3.69082,-6.62446 4.83475,-8.80028 1.14394,-2.17581 2.52989,-4.46705 3.07989,-5.09164 0.55,-0.62458 2.125,-2.66281 3.5,-4.52938 1.375,-1.86657 5.10242,-6.04737 8.28315,-9.29065 l 5.78315,-5.89688 3.87922,-6.64214 3.87922,-6.64214 0.72617,-3.97557 0.72616,-3.97557 1.86147,-2.65437 c 1.0238,-1.4599 1.86146,-3.34585 1.86146,-4.19098 0,-0.84514 0.37718,-1.76973 0.83818,-2.05464 l 0.83819,-0.51803 -0.77819,-5.29099 c -0.428,-2.91004 -1.47845,-8.66599 -2.33432,-12.79099 -0.85587,-4.125 -2.05916,-9.3 -2.67397,-11.5 -0.61482,-2.2 -1.56964,-4.96959 -2.12182,-6.15465 l -1.00397,-2.15464 0.57888,-0.93665 0.57889,-0.93665 -1.98764,-5.90871 c -1.09319,-3.24978 -2.38763,-7.2587 -2.87652,-8.9087 -0.4889,-1.65 -1.88904,-7.4982 -3.11143,-12.99599 l -2.22254,-9.996 -1.26371,-2.004 c -0.69506,-1.10218 -1.58435,-3.57898 -1.97623,-5.50398 -0.39187,-1.925 -2.41221,-7.1 -4.48964,-11.5 -2.07744,-4.4 -4.43655,-10.025 -5.24247,-12.5 -0.80593,-2.475 -2.28818,-7.875 -3.29389,-12 -1.00571,-4.125 -2.14683,-7.87919 -2.53583,-8.34264 l -0.70727,-0.84264 -1.93456,1.03534 -1.93456,1.03535 -4.9228,6.53239 -4.9228,6.53239 -2.59501,0.0249 -2.59501,0.0249 -1.80998,-2 -1.80998,-2 -1.39046,0 -1.39047,0 -2.45454,-2.45455 L 98,453.42423 l 0,-1.58504 0,-1.58504 6.25,-6.84597 c 3.4375,-3.76529 7.91282,-8.80998 9.94517,-11.21042 2.03234,-2.40044 4.27504,-4.94214 4.98378,-5.64823 l 1.28863,-1.28379 -0.27676,-6.21621 -0.27675,-6.21621 -1.47253,-3.18377 -1.47252,-3.18378 -6.23451,6.18378 c -3.42898,3.40107 -7.35951,7.03493 -8.73451,8.07523 -1.375,1.0403 -5.425,4.45578 -9,7.58995 l -6.5,5.69849 -4.12544,0.65195 -4.12544,0.65195 -2.62456,-2.06448 L 73,431.18817 l 0,-4.92742 0,-4.92742 1.88473,-1.75 c 1.0366,-0.9625 6.0991,-5.80705 11.25,-10.76567 5.1509,-4.95862 13.07777,-12.45099 17.61527,-16.64971 l 8.25,-7.63403 0.0181,-3.3503 0.0181,-3.35029 2.98189,-5.40977 2.98188,-5.40977 0,-3.34023 0,-3.34023 -0.81217,0 c -0.44669,0 -2.67496,0.9 -4.95169,2 l -4.13953,2 -2.88554,0 -2.88554,0 -3.91276,-3.76839 -3.91277,-3.76839 -2.25,-4.75836 c -1.2375,-2.6171 -2.25,-5.39477 -2.25,-6.17259 0,-0.77783 -0.47994,-1.71085 -1.06653,-2.07339 -0.58659,-0.36253 -1.2675,-0.45818 -1.51313,-0.21256 -0.24563,0.24563 0.23431,2.07624 1.06653,4.06802 0.83222,1.99178 1.50624,4.64838 1.49782,5.90354 -0.008,1.25517 -0.38234,2.86056 -0.83092,3.56755 l -0.8156,1.28543 -3.63354,0.58965 -3.63353,0.58964 -1.19607,-2.62508 -1.19603,-2.62507 -2.3716,0 c -1.30439,0 -3.98711,0.675 -5.96161,1.5 l -3.59001,1.5 -4.24301,0 -4.24302,0 -2.44306,-1.92171 -2.44305,-1.9217 -3.36684,-0.87244 -3.36684,-0.87244 -1.83035,-2.45585 -1.83035,-2.45586 1.06064,-8.44209 1.06065,-8.44209 -1.10072,-15.05791 c -0.60539,-8.28185 -1.49938,-16.63291 -1.98664,-18.55791 -0.48727,-1.925 -1.38672,-6.2 -1.99879,-9.5 -0.61207,-3.3 -1.58389,-8.12105 -2.15959,-10.71345 l -1.04672,-4.71344 -2.2464,1.47189 -2.24639,1.4719 -1.78544,-1.97289 -1.78545,-1.97289 1.62281,-4.0558 1.62281,-4.05579 0,-6.47977 0,-6.47976 -1.02475,0 -1.02475,0 -0.93062,2.4477 -0.93061,2.4477 -2.59486,1.70022 -2.59486,1.70022 0.49701,1.29521 0.49702,1.2952 -3.46513,3.04243 -3.46513,3.04242 -2.54206,0.63802 -2.54206,0.63802 L 7.86198,267.04164 3.84477,266.50282 1.92238,264.76309 0,263.02335 l 0,-1.97585 0,-1.97585 3.54818,0.57579 3.54818,0.57579 1.82685,-3.00403 1.82686,-3.00402 3.37496,-1.78698 3.37497,-1.78697 3.8934,-0.61435 3.89339,-0.61435 2.35661,-2.21391 2.3566,-2.21392 0,-2.82568 0,-2.82569 -2.75,-0.0153 c -1.5125,-0.008 -3.21551,-0.34592 -3.78447,-0.75 -0.56897,-0.40408 -2.03146,-2.03288 -3.25,-3.61955 L 18,232.06361 l 0,-2.86514 0,-2.86514 1.88569,0 c 1.03713,0 3.17463,0.67223 4.75,1.49384 l 2.86431,1.49384 3.1849,0.006 c 1.7517,0.003 4.43443,0.48123 5.96164,1.06187 l 2.77674,1.05572 2.28836,-1.2247 2.28836,-1.22453 0,-0.98995 c 0,-0.54447 -2.925,-3.78821 -6.5,-7.20832 l -6.5,-6.21839 0,-2.62269 0,-2.62269 0.88569,0 c 0.48713,0 2.17463,0.67223 3.75,1.49384 l 2.86431,1.49384 2.25,0.006 2.25,0.006 0,-0.94098 c 0,-0.51754 -0.49625,-1.24769 -1.10278,-1.62254 -0.60652,-0.37485 -2.12911,-2.8968 -3.38352,-5.60431 l -2.28075,-4.92276 0.91822,-4.08668 c 0.50501,-2.24768 0.72498,-4.27992 0.4888,-4.51609 -0.23618,-0.23618 -2.89237,-0.68361 -5.90266,-0.9943 l -5.47325,-0.56489 -0.71509,3.37627 c -0.39331,1.85696 -0.79022,5.61781 -0.88204,8.35745 l -0.16693,4.9815 -1.69788,0.33211 -1.69788,0.33211 -3.05212,-4.21332 L 15,198.03325 l 0.007,-4.09996 0.007,-4.09996 1.74341,-2.59843 c 0.95888,-1.42914 2.55835,-3.40122 3.55439,-4.38241 l 1.81098,-1.78397 7.68902,0.58977 7.689,0.58977 -3.5,-1.38129 c -1.925,-0.7597 -4.77963,-1.41552 -6.34362,-1.45736 l -2.84442,-0.0761 -0.50843,-1.94425 -0.50844,-1.94426 -3.07093,-0.30574 -3.07094,-0.30575 -0.39805,-1.21312 -0.39805,-1.21312 2.76927,-0.69504 2.76927,-0.69504 3.80177,2.18802 3.80177,2.18802 0,-1.07637 0,-1.07637 -2.99368,-1.70349 c -1.64652,-0.93692 -2.99652,-2.04099 -3,-2.45349 l -0.0063,-0.75 1.81835,0 1.81834,0 3.93166,3.49815 3.93165,3.49815 0.36221,-1.08478 0.36221,-1.08477 -3.19912,-3.30065 -3.19911,-3.30064 1.06026,-0.65528 1.06026,-0.65528 1.77664,2.10952 c 0.97716,1.16023 3.01415,3.51042 4.52665,5.22265 1.5125,1.71223 2.75,3.4821 2.75,3.93304 0,0.45094 0.42659,0.81989 0.94798,0.81989 l 0.94798,0 -1.09213,-3.13288 -1.09213,-3.13288 -4.16192,-4.11712 c -2.28905,-2.26442 -5.37419,-4.92563 -6.85585,-5.9138 L 27,159.23996 l 0,-1.95331 0,-1.95332 1.42308,0 1.42307,0 3.32693,3.08706 c 1.8298,1.69789 4.33942,4.05093 5.57692,5.22897 l 2.25,2.14191 0.0761,-5.97897 0.0761,-5.97897 1.24061,-3.43308 1.24061,-3.43308 1.71178,-1.06692 1.71178,-1.06692 0.83205,1.33333 0.83205,1.33333 -0.48816,6.82266 -0.48816,6.82266 0.69182,4.61337 0.69182,4.61336 0.92052,-0.56891 0.92052,-0.56892 -0.13671,-2.20044 c -0.0752,-1.21024 0.58989,-4.45044 1.47794,-7.20044 0.88805,-2.75 2.0988,-6.9125 2.69055,-9.25 l 1.07591,-4.25 1.04091,0 1.04091,0 -0.64198,3.25 c -0.35308,1.7875 -1.04756,4.375 -1.54327,5.75 -0.49572,1.375 -1.37903,6.97248 -1.96293,12.43883 l -1.06163,9.93884 1.27545,1.27489 1.27545,1.27488 0.10756,-4.77504 0.10755,-4.77503 2.11282,-5.647 2.11281,-5.647 2.20997,-2.54168 2.20996,-2.54169 1.31967,0 1.31966,0 0,1.21816 0,1.21817 -2.44241,2.09869 -2.4424,2.0987 -2.0576,5.22016 C 58.92592,169.0583 58,172.15571 58,173.07035 l 0,1.66298 0.8792,-0.95 c 0.48356,-0.5225 1.41596,-2.62993 2.072,-4.68317 l 1.1928,-3.73318 2.83237,-2.01682 c 1.5578,-1.10926 3.52385,-2.01683 4.36898,-2.01683 0.84514,0 1.7875,0.40595 2.09415,0.9021 l 0.55752,0.9021 -3.54385,2.09093 -3.54385,2.09092 -1.36529,3.24707 -1.36529,3.24707 0.49479,0.80058 0.49478,0.80058 1.931,-0.61287 1.93099,-0.61287 3.23485,2.00215 c 1.77917,1.10118 4.43527,3.27117 5.90244,4.82219 l 2.6676,2.82005 0.32199,3.92014 0.32199,3.92014 -1.07297,0.35765 -1.07297,0.35766 -1.17765,-3.93063 -1.17764,-3.93064 -1.73897,-2.01699 -1.73897,-2.01699 -3.12629,-0.63245 -3.12629,-0.63246 -1.62371,1.62372 C 62.73067,181.74552 62,182.85829 62,183.3253 l 0,0.84912 3.25,0.70379 3.25,0.70379 2.73658,1.9342 2.73657,1.9342 0.82698,3.1914 0.82697,3.1914 -0.43592,2.28037 -0.43592,2.28037 -1.96328,1.05072 c -1.0798,0.57789 -2.066,0.90175 -2.19155,0.71969 -0.12556,-0.18206 -1.27756,-1.68102 -2.56001,-3.33102 l -2.33172,-3 0.75917,2.5 c 0.41754,1.375 0.98035,4.1875 1.25069,6.25 l 0.49151,3.75 -0.98003,0 -0.98004,0 -0.59787,-2.75 c -0.32883,-1.5125 -1.03561,-3.41197 -1.57063,-4.22104 l -0.97275,-1.47104 -0.57951,0.57951 -0.5795,0.5795 1.98959,4.64153 1.9896,4.64154 1.36122,0 1.36122,0 2.42432,-2.59501 c 1.33337,-1.42726 3.63946,-3.22726 5.12465,-4 1.48519,-0.77275 3.43921,-1.40499 4.34227,-1.40499 l 1.64193,0 2.37382,-1.86725 2.37382,-1.86724 -0.57598,-0.57598 -0.57598,-0.57598 4.35989,-1.96064 4.35989,-1.96064 5,-0.79364 c 2.75,-0.4365 7.25,-0.80381 10,-0.81624 l 5,-0.0226 3.69973,1.8102 3.69973,1.81019 1.03989,-0.64268 1.03989,-0.64269 5.49335,1.0155 5.49335,1.0155 5.26703,2.40799 5.26703,2.40799 4.30095,0.72562 4.30096,0.72561 1.8479,1.98349 1.8479,1.98349 1.90596,-0.3229 1.90596,-0.32289 2.64279,1.73162 2.64279,1.73162 1.5497,-0.59467 1.54971,-0.59468 3.35845,2.85595 c 1.84714,1.57078 5.7623,4.65596 8.70034,6.85596 2.93804,2.2 6.96628,5.575 8.95164,7.5 1.98536,1.925 5.27142,5.57135 7.30235,8.10299 l 3.6926,4.60299 0,1.47803 0,1.47803 2.45442,1.31357 2.45442,1.31356 3.54558,5.34003 c 1.95007,2.93702 3.54558,5.71851 3.54558,6.1811 0,0.46259 1.0415,1.81951 2.31445,3.01539 1.27295,1.19587 2.66095,2.17431 3.08446,2.17431 0.4235,0 3.54449,-2.1375 6.93554,-4.75 3.39105,-2.6125 6.31555,-5.0875 6.49888,-5.5 0.18334,-0.4125 0.82143,-0.75 1.418,-0.75 l 1.08466,0 5.82766,-6.25 c 3.20521,-3.4375 5.82961,-6.51751 5.832,-6.84446 0.002,-0.32695 1.1288,-1.90195 2.50313,-3.5 1.37433,-1.59805 2.49933,-3.21986 2.5,-3.60402 6.7e-4,-0.38416 1.10707,-1.89171 2.45867,-3.35011 l 2.45746,-2.65164 -1.55817,-2.37807 -1.55818,-2.37808 0.77588,-6.27181 c 0.42673,-3.44949 0.66978,-7.24669 0.54011,-8.4382 l -0.23577,-2.16639 1.41474,-0.83361 1.41474,-0.83361 0.52438,-2.83989 0.52438,-2.83989 -1.5073,-3.02146 -1.5073,-3.02146 0.53396,-5.88865 0.53396,-5.88865 -0.86621,0 c -0.47642,0 -1.79814,1.0003 -2.93715,2.22288 l -2.07093,2.22288 -4.21802,1.26194 c -2.31992,0.69407 -5.65124,1.26877 -7.40293,1.27712 -1.7517,0.008 -4.4517,-0.47318 -6,-1.07007 -1.54831,-0.59689 -4.36423,-1.23515 -6.25761,-1.41837 l -3.4425,-0.33312 -3.39043,-4.08163 -3.39043,-4.08163 -1.86036,0 -1.86036,0 -1.54612,-2.20739 c -0.85036,-1.21407 -4.96225,-5.71011 -9.13752,-9.99121 -4.17528,-4.28109 -8.79254,-8.5028 -10.26059,-9.38156 l -2.66918,-1.59775 -3,-4.60221 c -1.65,-2.53122 -3.48461,-5.40237 -4.07691,-6.38035 -0.59231,-0.97798 -2.16731,-3.21994 -3.5,-4.98213 -1.3327,-1.76219 -3.45604,-4.251 -4.71854,-5.53069 l -2.29546,-2.32672 -3.32954,0 c -1.83125,0 -4.74986,-0.28406 -6.4858,-0.63125 l -3.15625,-0.63125 -3.46875,-3.46875 C 153.56094,118.69427 152,116.70951 152,116.19152 c 0,-0.518 -0.91741,-1.92655 -2.0387,-3.1301 -1.12128,-1.20356 -2.29589,-3.21302 -2.61024,-4.46548 l -0.57153,-2.27718 1.71571,-2.61851 1.71571,-2.61851 -1.35547,-0.9108 c -0.74552,-0.500927 -2.57063,-1.569327 -4.05582,-2.374197 -1.48519,-0.80488 -3.45181,-1.46341 -4.37027,-1.46341 l -1.66992,0 -4.47785,-2.75 c -2.46282,-1.5125 -7.4712,-5.16693 -11.12974,-8.12095 -3.65853,-2.95402 -7.33712,-6.10402 -8.17463,-7 -0.83751,-0.89598 -3.61107,-3.09155 -6.16347,-4.87905 -2.55241,-1.7875 -4.98417,-3.25 -5.40393,-3.25 -0.41976,0 -3.7212,-1.972397 -7.33653,-4.383105 C 92.458,63.53952 85.51717,59.15202 80.64927,56.200228 75.78138,53.248436 70.15638,49.818132 68.14927,48.57733 66.14217,47.336529 61.35,44.504349 57.5,42.283598 c -3.85,-2.220752 -7.9,-4.58055 -9,-5.243997 -1.1,-0.663448 -4.78064,-3.118768 -8.17919,-5.456268 -3.39856,-2.3375 -6.5566,-4.25 -7.01787,-4.25 -0.46127,0 -2.53352,-1.151678 -4.605,-2.559285 l -3.76632,-2.559284 0.60652,-3.233027 0.60652,-3.233027 -2.64976,-1.418107 c -1.45737,-0.779958 -3.08075,-2.223418 -3.60751,-3.207688 l -0.95776,-1.789582 -1.46481,0 -1.46482,0 L 16,7.007647 16,4.681961 18.49186,2.34098 20.98372,0 l 3.14969,0 3.14968,0 1.10846,1.48378 c 0.60965,0.81608 4.49627,3.70358 8.63694,6.416667 4.14067,2.713087 8.41567,5.490673 9.5,6.172413 1.08433,0.681741 3.54651,2.096356 5.47151,3.143591 1.925,1.047234 4.35724,2.851947 5.40499,4.010472 1.04774,1.158526 2.30556,2.10641 2.79516,2.10641 0.48959,0 4.22453,2.25 8.29985,5 4.07532,2.75 7.68642,5 8.02466,5 0.33825,0 2.49607,1.267531 4.79517,2.816736 2.29909,1.549206 5.98017,3.596005 8.18017,4.548444 2.2,0.952438 4.9,2.234506 6,2.84904 1.1,0.614533 4.025,2.124352 6.5,3.355153 2.475,1.230802 7.73052,3.190733 11.67893,4.355403 l 7.17892,2.117581 2.38052,2.829085 c 1.30929,1.555997 5.6159,5.182303 9.57025,8.058457 l 7.18974,5.229372 3.00333,-0.659643 3.00333,-0.659642 3.46457,2.141218 3.46456,2.141218 8.00879,8.559978 8.00879,8.55998 2.64839,-0.50627 2.6484,-0.50628 3.27194,0.90343 3.27193,0.90342 0.6344,2.52765 0.6344,2.52765 -0.52178,0.84425 -0.52178,0.84425 3.24119,1.53175 c 1.78265,0.84246 5.648,2.477747 8.58967,3.633987 2.94166,1.15623 6.76666,3.15265 8.5,4.43649 1.73333,1.28384 5.51401,3.37815 8.40151,4.65403 l 5.25,2.31977 -0.0354,2.07175 c -0.0195,1.13946 -0.67854,3.19674 -1.46456,4.57174 -0.78602,1.375 -1.44508,3.28408 -1.46456,4.24239 l -0.0354,1.7424 2.18034,2.5076 c 1.19918,1.37919 2.57387,2.50761 3.05486,2.50761 0.481,0 3.43735,1.71517 6.56967,3.81148 3.13232,2.09632 8.29493,5.02132 11.47247,6.5 3.17753,1.47869 6.5171,2.68852 7.42125,2.68852 0.90416,0 2.35436,-0.60941 3.22267,-1.35424 l 1.57874,-1.35424 7.20881,-1.14843 c 3.96485,-0.63164 8.3437,-1.66552 9.73078,-2.29752 l 2.52197,-1.14908 0.58592,-1.8461 0.58593,-1.8461 4.65768,-3.20457 4.65768,-3.20456 5.77561,-0.41777 5.77562,-0.41777 0,-0.87981 c 0,-0.4839 -0.7875,-1.68252 -1.75,-2.66361 -0.9625,-0.98109 -2.875,-3.2587 -4.25,-5.06135 l -2.5,-3.27755 -3.68215,-1.92436 c -2.02518,-1.0584 -3.99534,-2.4311 -4.37812,-3.05045 l -0.69596,-1.1261 1.37811,-0.87288 c 0.75797,-0.48009 2.45351,-0.87978 3.76788,-0.8882 l 2.38975,-0.0153 1.32844,-1.75 c 0.73065,-0.9625 1.34275,-2.09607 1.36025,-2.51905 l 0.0317,-0.76906 -2.49068,0.62512 -2.49068,0.62512 -0.6422,-1.67353 -0.64219,-1.673527 1.1767,-2.18254 c 0.64718,-1.2004 4.03179,-5.22004 7.52136,-8.93254 l 6.34466,-6.75 1.86152,-7.8e-4 1.86151,-7.8e-4 4,-3.57829 4,-3.57828 3.5,-1.536274 3.5,-1.536275 10.89629,-1.304289 10.89629,-1.30429 2.20387,0.83791 2.20387,0.83791 2.54013,-1.668281 c 1.39707,-0.917555 4.68854,-4.27877 7.31437,-7.469368 l 4.77425,-5.801087 3.08547,0.301087 3.08546,0.301087 -0.29384,1.75 -0.29383,1.75 1.15224,0 1.15225,0 -0.59875,-2.385578 -0.59874,-2.385577 1.48034,-1.228567 1.48033,-1.228568 0.8786,2.364145 0.8786,2.364145 -0.47559,1.25 -0.47559,1.25 1.05029,0 c 0.57765,0 1.7508,-1.000128 2.60699,-2.222506 L 366,54.888321 l 0,-3.160863 0,-3.160862 2.23275,-0.583878 2.23276,-0.583878 -1.23276,-1.232754 L 368,44.933333 l 0,-2.8 0,-2.8 1.82274,0 1.82275,0 2.17725,4.359531 2.17726,4.359531 0.115,3.890469 0.115,3.890469 0.727,-3.746446 0.72701,-3.746446 -0.70177,-4.253554 c -0.38597,-2.339455 -1.02335,-5.430063 -1.4164,-6.868019 l -0.71462,-2.614464 1.54236,-0.591862 1.54237,-0.591861 0.44352,0.71763 c 0.24394,0.394696 0.98179,3.637543 1.63967,7.206326 0.65788,3.568783 1.59771,7.27009 2.0885,8.225127 0.4908,0.955037 0.89236,2.669095 0.89236,3.809017 l 0,2.072586 1.06912,-0.660754 1.06913,-0.660755 -0.16602,-3.648262 c -0.0913,-2.006545 -0.12241,-5.335763 -0.0691,-7.398263 l 0.0969,-3.75 1.95737,0 1.95737,0 2.66653,3.341862 2.66654,3.341862 7.22142,-0.463443 7.22143,-0.463443 2.37176,3.371581 c 1.30447,1.854369 2.91692,3.934081 3.58324,4.621581 l 1.21148,1.25 2.09618,0 2.09618,0 0.97689,2.569398 0.97688,2.569398 -0.65982,2.680602 c -0.36291,1.474331 -1.3154,3.693102 -2.11665,4.930602 l -1.45682,2.25 1.97572,0 1.97572,0 0.58651,4.95216 0.58651,4.95217 -1.52046,3.04783 c -0.83626,1.67631 -1.91095,3.04784 -2.3882,3.04784 -0.47726,0 -1.12428,-0.41509 -1.43783,-0.92241 l -0.57008,-0.92241 -3.56146,3.35888 -3.56145,3.35889 -2.86883,0.6301 -2.86883,0.6301 -2.14429,-1.1476 c -1.17937,-0.63117 -2.36722,-0.92467 -2.63968,-0.65222 -0.27245,0.27246 -0.009,1.40433 0.58565,2.51528 0.59456,1.11095 1.08102,2.94949 1.08102,4.08565 l 0,2.06574 -2.58638,0 -2.58637,0 -5.41363,-5.63426 C 387.43613,89.600223 385,87.364683 385,87.731193 c 0,0.36651 0.65204,2.22692 1.44897,4.13426 l 1.44898,3.46788 1.01584,0 1.01584,0 1.11621,2.08565 c 0.61391,1.1471 0.91289,2.28895 0.66441,2.53744 -0.24849,0.248477 -1.6263,-0.0834 -3.0618,-0.73741 l -2.61001,-1.18919 -0.58661,-1.84825 -0.58661,-1.84824 -2,0 -2,0 0.66611,2.09872 0.66611,2.09872 -2.34872,-0.717 c -1.2918,-0.39435 -3.18473,-1.45127 -4.20653,-2.34872 l -1.8578,-1.63172 -1.65376,0.27246 -1.65375,0.27247 -6.11161,-5.85179 -6.11161,-5.85179 -1.62176,1.18586 -1.62175,1.18586 1.74492,3.39346 1.74493,3.39347 -0.005,8.499997 -0.005,8.5 -1.9579,4 -1.9579,4 -5.30096,5.41809 -5.30095,5.41809 0.53536,1.58191 c 0.29446,0.87005 1.76327,3.04929 3.26404,4.84276 l 2.72867,3.26086 3.4934,-1.01086 c 1.92101,-0.55597 5.07803,-1.01085 7.01524,-1.01085 l 3.5222,0 3.46487,1.85823 3.46486,1.85822 0.51953,1.89178 c 0.28575,1.04047 1.38594,3.1707 2.44487,4.73383 l 1.92533,2.84205 0.17546,4.15795 c 0.0965,2.28687 0.49678,5.1668 0.88949,6.39985 l 0.71403,2.2419 -2.55674,1.16493 -2.55673,1.16492 3.44755,3.34822 3.44755,3.34822 0.56764,3.74495 c 0.31221,2.05972 1.31671,6.14114 2.23224,9.06982 l 1.66459,5.32487 -1.43787,0.90982 c -0.79083,0.5004 -2.45037,0.91671 -3.68787,0.92513 l -2.25,0.0153 0,0.88595 c 0,0.48728 1.63939,2.47829 3.64308,4.42448 l 3.64309,3.53852 7.60691,3.16456 c 4.18381,1.7405 10.53192,4.10398 14.10692,5.25217 l 6.5,2.08761 4.14869,2.57336 c 2.28178,1.41534 6.56548,4.23571 9.51931,6.26748 l 5.3707,3.69414 6.3261,6.96292 c 3.4794,3.82961 6.9661,8.19639 7.7482,9.70397 l 1.4221,2.74103 -0.6706,3.60191 -0.6705,3.6019 -3.1958,4.19575 c -1.7577,2.30766 -4.6485,5.85039 -6.4242,7.87272 l -3.2284,3.67697 -3.6728,0.95959 c -2.02,0.52778 -4.93549,1.20232 -6.47879,1.499 l -2.80598,0.5394 -2.41717,-2.27081 -2.41717,-2.27081 -2.65551,-5.1009 c -1.46054,-2.8055 -2.99122,-5.32591 -3.40153,-5.60091 -0.4103,-0.275 -1.7024,-2.29334 -2.87133,-4.48519 C 404.95639,245.65628 404,243.04648 404,242.04857 l 0,-1.81437 -3.25,-3.43528 c -1.7875,-1.8894 -4.375,-4.98924 -5.75,-6.88853 l -2.5,-3.45326 -7.5,-4.83484 c -4.125,-2.65915 -8.73682,-5.46269 -10.24849,-6.23007 l -2.7485,-1.39524 -0.623,0.623 -0.623,0.62301 2.6215,4.47324 c 1.44182,2.46028 2.62589,5.06811 2.63126,5.79517 0.005,0.72706 1.07186,3.57193 2.36998,6.32193 1.29812,2.75 3.20623,5.94177 4.24023,7.09281 1.03401,1.15105 3.76054,3.27401 6.05896,4.71769 l 4.17894,2.62487 1.82106,2.63517 c 1.00158,1.44934 2.99478,3.93888 4.42932,5.53231 1.43455,1.59343 3.03121,2.89715 3.54814,2.89715 0.51693,0 2.49321,1.59349 4.39174,3.54108 l 3.45186,3.54109 5.37443,2.45891 5.37443,2.45892 4.22635,0 4.22639,0 3.1312,1.09157 3.1313,1.09156 3.4388,4.68456 3.4388,4.68455 -1.0569,4.47388 c -0.5812,2.46063 -1.2023,5.02547 -1.3801,5.69963 l -0.3233,1.22575 -4.4444,2.08912 c -2.4444,1.14901 -5.1166,2.84743 -5.9381,3.77425 -0.8215,0.92682 -2.6172,3.71013 -3.99053,6.18513 l -2.49692,4.5 -3.2243,0.3222 -3.22431,0.32221 -2.7168,-1.12534 -2.7168,-1.12533 -5.25241,-7.19687 c -2.88882,-3.95828 -6.77192,-9.67187 -8.6291,-12.69687 -1.85719,-3.025 -4.26469,-7.38451 -5.35002,-9.6878 -1.08532,-2.30329 -2.7888,-5.03603 -3.78551,-6.07275 -0.99671,-1.03672 -2.9372,-3.20999 -4.3122,-4.82948 -1.375,-1.6195 -4.87727,-5.71492 -7.78282,-9.10093 l -5.28282,-6.15638 -2.5148,1.30469 -2.5148,1.3047 -6.3879,-0.51276 -6.38789,-0.51276 -1.43651,0.55124 -1.43652,0.55125 0.83425,4.83049 c 0.45883,2.65677 1.09415,6.50474 1.41182,8.55105 l 0.57757,3.72057 2.71021,3.22624 2.71021,3.22624 0.0575,12.05319 c 0.0316,6.62926 0.42156,15.0907 0.8665,18.8032 0.44493,3.7125 0.86905,6.74513 0.94248,6.73918 0.0734,-0.006 2.3835,-0.69401 5.1335,-1.52901 l 5,-1.51819 16.14258,-0.51563 16.14258,-0.51564 8.35742,1.04531 c 4.59658,0.57491 12.18242,1.99824 16.85744,3.16295 l 8.5,2.11764 8.5,3.48386 c 4.675,1.91612 10.075,4.42779 12,5.5815 1.925,1.15371 6.425,4.44711 10,7.31866 3.575,2.87155 7.6375,6.26914 9.0279,7.55019 1.3903,1.28105 4.026,4.25482 5.8571,6.60838 l 3.3293,4.27921 2.4126,-2.41259 2.4126,-2.4126 6.2302,-1.54626 6.2303,-1.54626 4.2317,0.79204 4.2317,0.79203 1.5539,1.28963 c 0.8547,0.70929 3.0653,4.30103 4.9124,7.98162 1.8472,3.6806 3.9687,7.7747 4.7144,9.09799 0.7457,1.32329 1.6026,2.63099 1.9041,2.90599 0.3015,0.275 1.5735,1.96799 2.8267,3.76219 l 2.2786,3.2622 -0.688,3.2378 c -0.3785,1.7808 -1.311,3.94596 -2.0722,4.81147 l -1.3841,1.57366 2.2671,1.97124 c 1.2469,1.08417 4.2823,3.37057 6.7454,5.08087 2.4631,1.7103 5.8755,4.61509 7.5833,6.4551 1.7078,1.84001 4.4336,5.37047 6.0573,7.84547 1.6238,2.475 4.2063,7.35064 5.7391,10.83476 1.5327,3.48412 3.183,7.71634 3.6673,9.40494 l 0.8805,3.07017 0.5368,11.34103 0.5367,11.34103 4.3539,9.25403 4.354,9.25404 0.5783,4.5 c 0.3181,2.475 1.263,8.1 2.0998,12.5 l 1.5215,8 0.035,6.59345 0.035,6.59345 2.0141,5.90655 c 1.1078,3.2486 4.5953,11.01823 7.75,17.26584 l 5.7359,11.35928 3.2754,3.82933 c 1.8014,2.10613 3.8886,5.31945 4.6381,7.14071 0.7495,1.82127 1.6801,5.23869 2.0681,7.59429 l 0.7053,4.28289 -1.609,2.45571 -1.6091,2.45572 1.1619,1.86046 1.1619,1.86046 -0.646,2.57386 -0.646,2.57386 -2.3767,2.82707 -2.3768,2.82707 -1.6159,7.82006 -1.6159,7.82006 -1.4675,2.09503 -1.4674,2.09504 -3.5516,1.22098 -3.5516,1.22099 -0.4826,-0.78096 -0.4827,-0.78096 1.0028,-4.85512 c 0.5516,-2.67032 1.278,-6.10122 1.6143,-7.62424 l 0.6115,-2.76912 -2.8703,-4.23088 c -1.5786,-2.32698 -3.146,-4.90588 -3.4831,-5.73088 l -0.6129,-1.5 -0.7271,8.091 c -0.3999,4.45005 -0.8826,10.30005 -1.0726,13 -0.1901,2.69995 -0.8115,8.16575 -1.381,12.14622 l -1.0354,7.23722 -2.5912,7.76278 -2.5912,7.76278 -1.4011,1.42754 -1.4011,1.42754 -0.5546,-1.4452 -0.5546,-1.44521 0.8016,-5.98233 0.8015,-5.98234 -0.675,-4 -0.675,-4 0.7819,-1.5 0.7818,-1.5 0.046,-9.98336 0.046,-9.98335 -1.4849,-8.51509 -1.4849,-8.51509 -1.0369,-1.00155 -1.0368,-1.00156 0.6273,6 c 0.3451,3.3 0.8472,7.42741 1.116,9.17202 l 0.4886,3.17202 -1.1159,0.68967 -1.1159,0.68967 0.6655,5.73353 0.6654,5.73353 -1.1188,4.15478 -1.1187,4.15478 -1.4615,0 -1.4614,0 -0.01,-1.75 c 0,-0.9625 -0.4671,-3.41162 -1.0312,-5.44249 l -1.0255,-3.69249 -1.888,-0.59924 -1.8881,-0.59924 -0.623,-4.20827 c -0.3427,-2.31455 -0.8786,-5.95471 -1.1909,-8.08926 l -0.5678,-3.88099 -0.8356,1.35203 -0.8356,1.35203 -0.7796,-0.77963 c -0.4288,-0.42879 -1.3108,-3.34076 -1.9599,-6.47104 l -1.1802,-5.69141 -4.1394,-8.70332 -4.1393,-8.70332 -0.8728,-5.29668 c -0.4797,-2.91317 -1.3308,-6.42168 -1.8909,-7.79668 l -1.0185,-2.5 -6.9688,-7.35671 -6.9688,-7.35671 -2.6351,-7.22488 -2.6351,-7.22489 -1.0486,-6.73553 -1.0486,-6.73552 0.5958,-5.68288 c 0.3276,-3.12558 0.8532,-9.50788 1.1679,-14.18288 l 0.5722,-8.5 -2.5198,-9.5 -2.5198,-9.5 -0.6178,-6.5 c -0.3399,-3.575 -0.827,-7.51969 -1.0826,-8.76598 l -0.4647,-2.26598 2.5948,-0.98656 2.5949,-0.98656 -8.813,-4.49746 c -4.8471,-2.4736 -9.1221,-4.49746 -9.4999,-4.49746 -0.3779,0 -1.644,2.5578 -2.8137,5.684 l -2.1266,5.684 -0.5345,6.566 -0.5344,6.566 -1.5572,5 -1.5572,5 -2.9121,4.26534 -2.9122,4.26534 -2.6914,1.72169 c -1.4803,0.94694 -3.2515,2.25546 -3.936,2.90784 -0.6845,0.65238 -2.462,2.14372 -3.9499,3.3141 l -2.7052,2.12796 1.6842,3.19886 c 0.9263,1.75938 3.2246,7.55195 5.1074,12.87239 1.8827,5.32044 3.8022,10.33294 4.2656,11.1389 0.4634,0.80595 3.3175,3.40623 6.3425,5.77838 3.025,2.37216 6.0129,4.81537 6.6397,5.42936 l 1.1397,1.11634 1.7397,7.15799 1.7398,7.15799 -0.5297,10.77376 -0.5297,10.77376 -1.613,5.5 c -0.8871,3.025 -2.3145,8.65 -3.172,12.5 l -1.5592,7 0.01,7.5 0.01,7.5 1.575,8.5 c 0.8663,4.675 1.9957,10.3 2.5098,12.5 0.5142,2.2 2.0843,7.76348 3.4891,12.3633 1.4048,4.59981 2.5542,9.4669 2.5542,10.81574 0,1.34884 -0.4186,3.23461 -0.9302,4.19058 l -0.9302,1.73814 0.8606,1.39224 0.8605,1.39224 -0.9655,1.80388 -0.9654,1.80388 -1.7148,-0.003 -1.7148,-0.003 -2,-2.99425 -2,-2.99425 -1.314,-0.003 -1.314,-0.003 2.314,4.12513 2.314,4.12513 1.2778,0.49252 c 0.7028,0.27088 1.7311,1.33958 2.2852,2.37487 l 1.0074,1.88235 -1.7954,0 -1.7954,0 -2.7188,-2.521 -2.7188,-2.521 -2.021,2.021 -2.021,2.0215 -1.4529,0 c -0.7992,0 -2.5992,0.52223 -4,1.16052 l -2.5471,1.16051 5e-4,2.58949 5e-4,2.58948 1.9995,5.26073 c 1.0997,2.8934 1.9995,6.08615 1.9995,7.09501 l 0,1.83428 -1.8287,1.65499 -1.8288,1.65499 -1.9712,0 c -1.0842,0 -2.3988,0.37755 -2.9213,0.839 -0.5225,0.46146 -3.425,1.35199 -6.45,1.97897 l -5.5,1.13996 -11.75,0.33539 z m 69.9064,-271.33766 c 0.086,0.0244 -0.069,-0.81601 -0.3436,-1.86756 -0.275,-1.05154 -1.2454,-2.73904 -2.1564,-3.75 -0.911,-1.01095 -2.2716,-3.03195 -3.0235,-4.49109 l -1.367,-2.65299 -4.3892,-2.25744 c -2.414,-1.24159 -4.5825,-2.06413 -4.8188,-1.82787 -0.2362,0.23627 -0.1758,2.32143 0.1344,4.6337 l 0.5639,4.20412 2.0451,0.64909 c 1.1248,0.357 2.5296,1.06532 3.1219,1.57405 0.5922,0.50872 3.1018,2.00871 5.5768,3.3333 2.475,1.3246 4.5704,2.42831 4.6564,2.45269 z m -400.75726,-59.19661 2.39914,-0.25905 1.00658,-1.60864 1.00657,-1.60864 -1.41668,-2.0226 -1.41668,-2.0226 -3.48904,2.9155 -3.48903,2.9155 1.5,0.97479 1.5,0.97479 2.39914,-0.25905 z m 3.97007,-12.89942 c 1.33802,-0.50872 3.70071,-1.67393 5.25042,-2.58937 1.5497,-0.91543 3.05515,-2.28334 3.34542,-3.03978 l 0.52778,-1.37536 -0.99629,-1.86158 c -0.54796,-1.02387 -1.67134,-5.07069 -2.49641,-8.99294 C 116.67506,317.41169 116,312.6938 116,310.84974 c 0,-1.84406 -0.27314,-4.06464 -0.60699,-4.93462 l -0.60699,-1.58179 -1.31546,0 -1.31546,0 -1.2298,3.75 c -0.6764,2.0625 -3.00163,6.5625 -5.1672,10 -2.16556,3.4375 -4.3149,6.25 -4.77631,6.25 -0.46141,0 -1.53134,0.69241 -2.37762,1.53869 l -1.53869,1.53869 0.53313,3.21131 c 0.29323,1.76622 0.73859,4.22985 0.98969,5.47473 l 0.45654,2.26343 2.3789,-0.59707 2.3789,-0.59706 2.8169,1.47592 2.8169,1.47592 2.43277,-0.92493 z m 140.34941,-51.91861 0.71861,0.059 -0.54081,-1.40932 -0.54081,-1.40933 2.69397,-5.69456 2.69396,-5.69457 2.93446,-3.34216 2.93445,-3.34216 -0.21394,-1.30395 c -0.11767,-0.71717 0.14908,-2.20395 0.59278,-3.30395 0.44371,-1.1 1.57926,-2.9 2.52345,-4 l 1.71672,-2 0.65165,-3.46193 0.65166,-3.46194 -1.72261,-8.28806 -1.72261,-8.28807 -0.85101,0 -0.851,0 -2.10042,4.75 c -1.15524,2.6125 -3.66864,7.1125 -5.58535,10 -1.91671,2.8875 -3.78787,5.25 -4.15814,5.25 -0.37026,0 -1.44459,1.61762 -2.3874,3.5947 -0.94281,1.97709 -2.96889,5.23959 -4.50241,7.25 -1.53351,2.01042 -4.44547,5.86665 -6.47102,8.56941 -2.02554,2.70276 -3.6828,5.41525 -3.6828,6.02776 l 0,1.11366 8.25,4.16325 c 4.5375,2.28979 8.57338,4.18979 8.96862,4.22224 z m -28.34618,-13.95364 c 0.34516,-0.007 2.67993,-2.36944 5.18839,-5.25 2.50845,-2.88056 4.95431,-5.89178 5.43523,-6.69161 l 0.87442,-1.45423 -7.08564,5.45423 -7.08564,5.45423 1.02284,1.25 c 0.56257,0.6875 1.30525,1.24432 1.6504,1.23738 z"
     id="path2989"
     inkscape:connector-curvature="0" />
</svg>
