<?xml version="1.0" encoding="UTF-8" standalone="no"?>
<!-- Created with Inkscape (http://www.inkscape.org/) -->

<svg
   xmlns:dc="http://purl.org/dc/elements/1.1/"
   xmlns:cc="http://creativecommons.org/ns#"
   xmlns:rdf="http://www.w3.org/1999/02/22-rdf-syntax-ns#"
   xmlns:svg="http://www.w3.org/2000/svg"
   xmlns="http://www.w3.org/2000/svg"
   xmlns:sodipodi="http://sodipodi.sourceforge.net/DTD/sodipodi-0.dtd"
   xmlns:inkscape="http://www.inkscape.org/namespaces/inkscape"
   id="svg2"
   version="1.1"
   inkscape:version="0.48.2 r9819"
   width="1115.9508"
   height="1216.7032"
   sodipodi:docname="Fighter-Knight, Mounted.png">
  <metadata
     id="metadata8">
    <rdf:RDF>
      <cc:Work
         rdf:about="">
        <dc:format>image/svg+xml</dc:format>
        <dc:type
           rdf:resource="http://purl.org/dc/dcmitype/StillImage" />
        <dc:title></dc:title>
      </cc:Work>
    </rdf:RDF>
  </metadata>
  <defs
     id="defs6" />
  <sodipodi:namedview
     pagecolor="#ffffff"
     bordercolor="#666666"
     borderopacity="1"
     objecttolerance="10"
     gridtolerance="10"
     guidetolerance="10"
     inkscape:pageopacity="0"
     inkscape:pageshadow="2"
     inkscape:window-width="1600"
     inkscape:window-height="876"
     id="namedview4"
     showgrid="false"
     fit-margin-top="0"
     fit-margin-left="0"
     fit-margin-right="0"
     fit-margin-bottom="0"
     inkscape:zoom="0.5"
     inkscape:cx="594.6049"
     inkscape:cy="578.33047"
     inkscape:window-x="0"
     inkscape:window-y="24"
     inkscape:window-maximized="1"
     inkscape:current-layer="svg2" />
  <path
     style="fill:#000000"
     d="m 261.05529,1215.9105 c -1.8483,-0.5637 -5.0293,-2.0784 -7.069,-3.366 -4.5123,-2.8485 -22.0705,-21.3647 -22.0705,-23.2748 0,-1.7522 2.1755,-5.9478 6.0972,-11.7586 3.759,-5.5698 3.4266,-7.8993 -1.8882,-13.2311 -7.7474,-7.7721 -20.3665,-16.4558 -21.8124,-15.01 -0.3752,0.3753 -0.168,3.2431 0.4606,6.373 1.4303,7.1221 1.5067,19.357 0.1208,19.357 -1.5477,0 -6.978,-9.0746 -6.978,-11.6608 0,-1.2481 -0.6947,-4.3154 -1.5437,-6.8162 -1.2412,-3.6559 -1.3207,-5.2794 -0.4055,-8.2849 2.3967,-7.8711 3.7653,-29.7499 3.4567,-55.262 -0.1698,-14.0382 -0.7649,-27.3132 -1.3224,-29.5 -0.5576,-2.1869 -1.3086,-8.0261 -1.669,-12.9761 -0.3604,-4.95 -1.6272,-14.625 -2.8151,-21.5 -1.7246,-9.9811 -2.1945,-17.0521 -2.3316,-35.08985 -0.1362,-17.92036 -0.5309,-23.91487 -1.9096,-29 -3.3684,-12.42485 -3.6167,-11.53086 5.7056,-20.54333 4.584,-4.43169 12.995,-12.25108 18.6912,-17.37644 12.8386,-11.55223 17.0444,-16.82297 22.699,-28.44665 3.7439,-7.69603 4.4434,-10.07437 4.4382,-15.08985 -0.01,-6.9004 -1.1971,-9.55689 -7.7578,-17.31795 -2.6203,-3.09976 -6.9782,-8.91211 -9.6843,-12.91632 -2.706,-4.00421 -5.4373,-7.70967 -6.0695,-8.23435 -0.6322,-0.52468 -4.1647,-1.01935 -7.85,-1.09926 -5.7281,-0.12421 -6.8623,-0.45303 -7.815,-2.26565 -0.6129,-1.16619 -2.1725,-3.39238 -3.4658,-4.94708 -1.9652,-2.36244 -2.3514,-3.95315 -2.3514,-9.6849 0,-3.77199 -0.4667,-8.08574 -1.0372,-9.58611 -0.6847,-1.80092 -0.7006,-3.06449 -0.047,-3.7183 1.1804,-1.18033 -0.3832,-4.57998 -2.9425,-6.39808 -0.94,-0.66777 -1.9884,-2.61039 -2.3297,-4.31692 -0.3423,-1.71161 -2.4201,-4.88439 -4.634,-7.07634 -4.09734,-4.05657 -4.80676,-5.78109 -11.06289,-26.89262 -1.22239,-4.125 -4.24412,-12.225 -6.71497,-18 -5.25419,-12.28039 -7.22649,-24.4202 -7.32054,-45.05897 -0.0653,-14.38008 -0.62097,-16.19746 -4.26209,-13.94103 -6.84848,4.24405 -20.26361,19.30436 -21.19259,23.79156 -0.3084,1.48964 -1.8662,6.08344 -3.46177,10.20844 -3.93641,10.17669 -5.23362,15.63592 -4.50436,18.95624 0.75904,3.45589 -0.85963,13.56213 -4.17132,26.04376 -2.1934,8.26686 -2.4556,10.91996 -2.01998,20.43932 0.45709,9.98836 0.29436,11.39022 -1.87194,16.12623 -1.39033,3.03959 -3.18384,5.39907 -4.33225,5.69938 -1.88273,0.49235 -1.95893,1.52067 -1.93984,26.17804 l 0.0199,25.66556 -2.63635,2.4433 c -2.44138,2.26259 -2.58987,2.86874 -2.00777,8.19573 0.34573,3.16384 0.74547,7.77744 0.88831,10.25244 0.14285,2.475 0.61619,8.14666 1.05187,12.60368 0.53401,5.46291 0.43332,8.72165 -0.30901,10 -0.98531,1.69681 -1.10436,1.58993 -1.13157,-1.01579 C 117.90668,903.80305 114.81189,894 113.65655,894 c -0.4917,0 -0.76038,1.55086 -0.59707,3.44636 0.36758,4.26655 -0.66827,5.58399 -1.56894,1.99544 -0.50487,-2.01155 -1.13712,-2.528 -2.6201,-2.14019 -1.69685,0.44373 -1.95465,-0.0118 -1.95465,-3.45425 0,-2.38895 -0.39755,-3.71969 -1,-3.34736 -0.60631,0.37472 -0.98553,7.38603 -0.96324,17.80902 0.0359,16.80572 0.62219,21.64869 4.38111,36.19098 1.75425,6.78674 1.96573,9.5 0.74046,9.5 -0.84619,0 -2.16103,-4.29195 -6.12703,-20 -1.18035,-4.675 -2.61353,-10.3 -3.18484,-12.5 -0.5713,-2.2 -2.082804,-6.025 -3.358864,-8.5 -1.27607,-2.475 -2.69047,-5.85 -3.14311,-7.5 -0.62892,-2.29263 -0.94341,-0.64209 -1.33373,7 -0.35082,6.86851 -0.0782,11.56574 0.87046,15 2.02193,7.31937 2.52914,12.5 1.22382,12.5 -0.60777,0 -1.10504,-0.90679 -1.10504,-2.0151 0,-2.61109 -3.10558,-14.21631 -4.11622,-15.38189 -0.42777,-0.49334 -0.86943,5.13166 -0.98147,12.5 -0.42479,27.93532 -0.0923,38.4475 1.42016,44.89699 0.83835,3.575 1.82751,9.875 2.19814,14 0.37062,4.125 1.33814,10.1675 2.15005,13.4277 0.94074,3.7776 1.39135,9.7625 1.2423,16.5 -0.23676,10.7017 -0.56674,13.0723 -1.81962,13.0723 -0.90308,0 -3.09024,-15.1852 -3.10416,-21.5519 -0.006,-2.7215 -0.68096,-7.1571 -1.5,-9.857 -0.81905,-2.6999 -1.53404,-7.6499 -1.58886,-11 -0.11738,-7.17285 -0.97743,-10.78347 -2.70584,-11.35961 -0.98754,-0.32918 -1.12595,4.38442 -0.65847,22.42591 0.32553,12.5634 0.63399,23.5176 0.68547,24.3426 0.0515,0.825 0.0227,3.2426 -0.0639,5.3724 -0.1351,3.321 -0.37115,3.6952 -1.65754,2.6276 -0.825,-0.6847 -1.5,-2.2248 -1.5,-3.4224 0,-1.1977 -0.47051,-2.6481 -1.04558,-3.2232 -0.98043,-0.9804 -2.03253,-8.3727 -3.77917,-26.5533 -0.40681,-4.2343 -1.01781,-7.977 -1.35778,-8.317 -0.33998,-0.3399 -1.16091,1.0265 -1.8243,3.0366 -2.07605,6.2905 1.33393,44.2391 5.38961,59.9793 0.85029,3.3 1.56201,9.2955 1.5816,13.3233 0.0313,6.442 -0.17499,7.2843 -1.71438,6.9992 -0.9625,-0.1782 -2.39371,-1.7862 -3.18046,-3.5733 -2.09036,-4.7481 -3.31293,-3.9886 -2.4157,1.5008 0.42701,2.6125 0.69095,5.9875 0.58653,7.5 -0.28024,4.059 -0.27679,9.7803 0.008,13.75 0.17611,2.4523 -0.16754,3.5 -1.14803,3.5 -1.56912,0 -4.04002,-5.9474 -4.98007,-11.9869 -0.41825,-2.6871 -1.19107,-4.0966 -2.37056,-4.3233 -2.66309,-0.512 -2.28246,6.7379 0.85777,16.3379 4.73985,14.4904 6.42062,35.6435 3.41445,42.9723 -2.57672,6.2818 -3.13163,8.5139 -2.40775,9.6852 0.4439,0.7183 1.12851,3.3329 1.52135,5.8104 0.39284,2.4774 1.03224,6.4169 1.42089,8.7544 0.49731,2.9911 0.35832,4.25 -0.46924,4.25 -1.53228,0 -18.88287,-18.0812 -20.83104,-21.7083 -0.82473,-1.5354 -2.00732,-5.2667 -2.62797,-8.2917 -0.62065,-3.025 -1.57846,-5.3425 -2.12846,-5.15 -0.55,0.1925 -0.82718,0.8675 -0.61595,1.5 0.21123,0.6325 0.60485,4.6082 0.87472,8.835 0.88864,13.918 -1.6836,16.9032 -5.64408,6.5503 -1.31193,-3.4294 -3.48025,-8.4853 -4.81849,-11.2353 -5.25436,-10.7973 -17.26115,-42.4004 -18.80629,-49.5 -0.89775,-4.125 -2.44175,-10.2 -3.4311,-13.5 -2.3366103,-7.7938 -3.6826103,-13.8663 -5.6295903,-25.398 -0.87271,-5.1689 -2.49222,-12.8189 -3.59891,-17 -3.2183,-12.1587 -3.68382,-37.086 -0.9917,-53.10306 1.15544,-6.87442 2.78261,-16.8392 3.61594,-22.14397 0.83332,-5.30476 2.04,-10.92976 2.6815,-12.5 0.75826,-1.85603 1.2606,-11.95219 1.4357,-28.85497 0.29055,-28.04757 1.4926203,-40.14556 6.3591303,-64 1.57087,-7.7 3.14341,-16.25 3.49454,-19 0.35113,-2.75 2.14269,-9.05 3.98125,-14 1.83855,-4.95 4.76074,-13.05 6.49374,-18 1.733,-4.95 4.024,-10.8 5.09111,-13 1.06711,-2.2 2.40449,-5.125 2.97195,-6.5 0.56747,-1.375 1.47671,-3.175 2.02054,-4 0.54383,-0.825 2.1838,-4.2 3.64437,-7.5 1.46058,-3.3 3.7167,-7.39248 5.01361,-9.09439 1.29689,-1.70192 2.358,-3.7595 2.358,-4.57242 0,-2.91939 6.42048,-13.43933 11.49686,-18.83757 2.84691,-3.02741 5.95483,-7.14522 6.90649,-9.1507 0.95166,-2.00547 6.98772,-8.77036 13.41347,-15.03309 11.17203,-10.88859 39.013864,-33.99829 45.568734,-37.82366 7.93724,-4.63211 22.85718,-16.86645 29.76138,-24.40432 10.04779,-10.96998 28.91425,-22.43131 50.32873,-30.5746 5.8025,-2.20651 13.8292,-6.25533 18.1334,-9.14681 5.9348,-3.9869 8.8417,-5.29542 12.5568,-5.65239 4.5901,-0.44106 4.8341,-0.61449 4.8341,-3.43615 0,-4.1196 2.6607,-9.32046 5.8362,-11.40791 3.1724,-2.08545 11.4314,-2.29624 18.3526,-0.4684 3.3028,0.87224 5.2594,0.93292 6.619,0.20527 3.213,-1.71951 27.9093,-5.10419 37.0881,-5.08298 9.0726,0.021 33.4249,2.35829 36.2902,3.48312 0.9273,0.36404 4.9773,-0.0332 9,-0.88263 26.8536,-5.67077 46.6423,-5.90809 60.7382,-0.72843 7.7051,2.83131 8.9268,3.01467 14.3098,2.14776 7.7322,-1.24523 15.403,-4.8492 19.8776,-9.33906 l 3.6117,-3.62401 2.3733,2.52628 c 2.3245,2.47436 6.161,4.59322 10.6582,5.88653 3.2433,0.93268 3.691,-1.2689 1.7007,-8.36231 -1.7869,-6.36844 -1.4689,-9.97093 1.1073,-12.54717 0.8579,-0.85794 1.6123,-2.3519 1.6763,-3.31992 0.1693,-2.55815 -2.2225,-9.34027 -4.378,-12.41441 -2.343,-3.34157 -2.3433,-3.33869 0.5351,-7.16235 2.6555,-3.52762 10.8495,-17.25628 11.8272,-19.81584 0.343,-0.8979 2.5406,-2.9229 4.8835,-4.5 4.1305,-2.78034 10.7833,-12.20837 10.8439,-15.36744 0.016,-0.825 -1.7667,-2.25408 -3.9611,-3.17574 -3.3039,-1.38768 -3.9936,-2.16122 -4.0118,-4.5 -0.037,-4.75718 -3.3537,-10.67309 -7.1213,-12.70209 -3.2871,-1.77022 -3.4554,-2.12377 -3.4073,-7.15574 0.039,-4.04028 -0.5056,-6.0465 -2.2989,-8.47407 l -2.3495,-3.18056 3.3495,-2.79755 3.3495,-2.79756 -0.2397,-34.2883 c -0.1319,-18.85856 -0.4997,-35.10732 -0.8174,-36.10835 -0.3177,-1.00102 -1.1958,-1.82004 -1.9513,-1.82004 -1.8847,0 -2.3815,-1.0447 -2.9127,-6.12513 -0.2515,-2.40618 -1.0025,-9.23192 -1.6688,-15.16832 -1.5236,-13.57494 -0.6708,-32.31416 1.6808,-36.93283 2.4572,-4.82618 17.2704,-18.91584 22.7027,-21.59387 2.5885,-1.27609 4.7068,-2.62609 4.7072,-3 4e-4,-0.37392 1.5754,-2.44909 3.5,-4.6115 1.9246,-2.16241 3.4992,-4.77226 3.4992,-5.79966 0,-4.2835 -9.3119,-17.83638 -19.0926,-27.78812 -7.5915,-7.72427 -11.832,-16.74941 -12.677,-26.98057 -0.4865,-5.89097 -1.2654,-7.72449 -8.3126,-19.56862 -4.2767,-7.18775 -8.436,-13.61657 -9.243,-14.28628 -0.8101,-0.67237 -4.4293,-1.24039 -8.0818,-1.26843 -5.7643,-0.0442 -7.2139,0.3461 -11.2753,3.03628 -4.2187,2.79434 -5.4082,3.08705 -12.5455,3.08705 -7.3377,0 -8.0719,-0.19508 -10.5786,-2.81099 -5.1511,-5.37557 -14.2196,-9.43039 -25.1936,-11.26488 -3.025,-0.50568 -7.1808,-1.20384 -9.2352,-1.55146 -3.5122,-0.5943 -7.5383,-3.37267 -4.8872,-3.37267 0.6173,0 1.1224,-0.45 1.1224,-1 0,-0.55 -1.0405,-1 -2.3122,-1 -2.5727,0 -10.2089,-3.41614 -11.192,-5.00691 -1.0431,-1.68814 -8.2407,-4.99309 -10.8739,-4.99309 -1.3519,0 -3.1698,-0.27314 -4.0398,-0.60699 -1.8822,-0.72226 -2.107,-3.98124 -0.3318,-4.80968 0.9614,-0.44864 0.9717,-0.71458 0.045,-1.15177 -0.6629,-0.31265 -3.3702,-2.29211 -6.0161,-4.39881 -5.8679,-4.67215 -9.3145,-12.46375 -7.3857,-16.69696 1.0043,-2.20418 0.8427,-2.75593 -1.3007,-4.44193 -1.346,-1.05883 -2.9499,-3.44779 -3.5641,-5.30881 -1.1125,-3.37087 -0.5203,-8.58505 0.975,-8.58505 0.4325,0 0.3944,-1.6875 -0.085,-3.75 -0.479,-2.0625 -0.8816,-5.64838 -0.8947,-7.96862 -0.027,-4.84533 0.6045,-4.86533 7.6046,-0.24062 2.7407,1.81068 4.5895,2.43546 5.5,1.85869 2.3523,-1.49011 4.7094,-0.98586 5.3881,1.15271 0.4246,1.33766 3.4945,3.3608 8.8174,5.81085 l 8.1661,3.7587 6.7178,-1.95843 c 3.6948,-1.07714 6.4548,-2.38395 6.1334,-2.90402 -1.0651,-1.72331 -0.5026,-8.4612 1.0081,-12.07695 2.2201,-5.3134 8.9992,-12.15051 13.5302,-13.64585 3.0143,-0.99483 3.7894,-1.68499 3.279,-2.91963 -0.9463,-2.28857 -5.8235,-10.65526 -9.9515,-17.07167 -1.9302,-3.00016 -4.8669,-7.95016 -6.5259,-11 -1.659,-3.04984 -4.7432,-8.10797 -6.8538,-11.24029 -2.1105,-3.13232 -3.8373,-5.96644 -3.8373,-6.29804 0,-0.3316 -1.575,-3.06502 -3.5,-6.07428 -1.925,-3.00926 -3.5,-5.66129 -3.5,-5.89339 0,-0.23211 -3.4309,-6.14912 -7.6243,-13.14894 -10.2569,-17.12163 -11.3275,-19.68075 -11.3537,-27.14022 -0.012,-3.4375 0.2208,-6.25 0.5175,-6.25 1.293,0 10.5488,6.84785 12.2499,9.06302 1.0293,1.34034 3.9097,6.26198 6.4009,10.93698 7.6645,14.38299 15.4304,28.19211 19.6832,35 2.2332,3.575 5.5734,9.2 7.4227,12.5 6.9005,12.31364 11.723,20.27286 18.1228,29.91035 3.6196,5.45068 6.5813,10.17568 6.5817,10.5 4e-4,0.32431 2.1379,0.62555 4.75,0.66943 4.6574,0.0782 9.6907,2.00443 12.4512,4.76495 1.1884,1.18847 1.8129,1.05517 4.2827,-0.91416 l 2.8914,-2.30551 -2.4217,-1.96096 c -1.8889,-1.52959 -2.3545,-2.74077 -2.1162,-5.50598 0.2104,-2.44216 -0.3786,-4.47012 -1.8931,-6.51863 -1.8976,-2.56669 -2.0471,-3.40777 -1.0925,-6.1463 0.8735,-2.50562 0.795,-3.77415 -0.3732,-6.03328 -1.8003,-3.48129 -1.8972,-7.31782 -0.2516,-9.95296 0.9992,-1.59985 0.9275,-2.48178 -0.3848,-4.73643 -1.8309,-3.14576 -1.0751,-6.47645 1.8433,-8.12313 1.239,-0.69912 1.8138,-2.19248 1.8138,-4.71264 0,-5.12728 2.284,-6.43683 6.2727,-3.59659 1.6698,1.18901 3.3041,2.16184 3.6317,2.16184 0.3276,0 0.5956,-1.95526 0.5956,-4.34501 0,-4.51154 2.1336,-7.65499 5.1959,-7.65499 0.8461,0 2.7295,-1.8 4.1854,-4 2.62,-3.95915 6.6138,-5.43492 8.1187,-3 1.0353,1.67518 3.4634,1.12973 7.0088,-1.57449 3.2508,-2.4795 3.5527,-2.52464 8.1833,-1.22339 4.621,1.29858 4.8426,1.52932 5.6998,5.93688 0.6777,3.48459 0.5339,5.30332 -0.5988,7.57389 -1.3323,2.67066 -1.3248,3.09271 0.07,3.9726 1.2726,0.80276 1.5816,3.36847 1.6737,13.8995 0.062,7.10326 0.4644,16.78575 0.894,21.51665 0.6935,7.63774 1.1533,9.07219 4.1039,12.80085 2.749,3.47388 3.2272,4.78927 2.7686,7.61528 -0.4375,2.69617 0.092,4.42404 2.5113,8.19915 4.2667,6.65714 7.1374,13.28275 7.1634,16.53308 0.027,3.43491 1.5928,3.59579 2.4326,0.25 0.3451,-1.375 1.053,-2.5 1.5732,-2.5 3.1478,0 3.8333,11.64374 1.0008,17 -1.7432,3.29639 -4.2526,10.29191 -4.484,12.5 -0.2312,2.20641 -4.3338,10.11664 -5.9371,11.44727 -2.5959,2.15441 -5.7434,8.94895 -5.0306,10.8596 0.3475,0.93122 2.3328,3.15198 4.412,4.93503 3.6191,3.10369 3.9055,3.17943 6.7176,1.77655 1.6155,-0.80593 6.0122,-2.10988 9.7703,-2.89765 11.3115,-2.37108 20.2277,-0.38717 36.3315,8.08394 3.4454,1.8124 6.6201,3.29526 7.0548,3.29526 0.4348,0 1.8908,-2.91739 3.2357,-6.48308 1.3448,-3.5657 2.9817,-6.69162 3.6375,-6.94649 0.6558,-0.25487 2.7473,-0.21107 4.6478,0.0974 2.7246,0.44215 3.5704,1.11825 3.9983,3.19649 0.8545,4.14889 8.8584,14.32913 16.0882,20.46261 6.1604,5.22624 14.196,10.40153 24.3283,15.66845 2.3403,1.21649 4.4592,2.54221 4.7088,2.94604 0.2496,0.40383 -2.6193,5.19623 -6.3752,10.64978 -10.2524,14.88635 -15.2761,24.8559 -15.8073,31.36974 -0.2714,3.32695 -1.2559,6.59911 -2.5195,8.37368 -1.7936,2.51887 -1.9177,3.3452 -0.9179,6.11011 2.9142,8.05915 0.4797,12.03304 -6.9354,11.32055 -4.2112,-0.40465 -4.846,-0.19766 -5.7973,1.89018 -0.9074,1.9914 -1.7871,2.33925 -5.8397,2.30915 -2.6243,-0.0195 -5.8965,-0.67859 -7.2715,-1.46461 -3.5556,-2.03254 -4.6064,-1.82759 -2.5096,0.48942 0.9903,1.09418 5.2225,3.85952 9.405,6.14519 4.1825,2.28567 7.8296,4.43832 8.1046,4.78368 0.275,0.34535 1.7553,1.42704 3.2895,2.40376 1.5343,0.97671 3.5215,3.31087 4.4162,5.18701 0.9943,2.08498 2.7575,3.80536 4.5353,4.42511 1.5998,0.55768 4.2045,2.03813 5.7883,3.28989 1.5838,1.25177 5.8987,4.30094 9.5885,6.77594 8.1445,5.46293 19.5708,16.32702 21.7716,20.70034 1.147,2.27911 1.6106,5.96623 1.6106,12.80902 0,6.15114 0.3598,9.38628 1,8.99064 0.55,-0.33992 1,-1.65579 1,-2.92416 0,-1.26837 0.9327,-3.49181 2.0726,-4.94098 1.6782,-2.13351 2.9101,-2.63486 6.4743,-2.63486 3.8629,0 4.5885,0.36114 5.9274,2.95034 3.3512,6.48039 0.3721,11.28765 -6.7681,10.92171 -7.0269,-0.36012 -8.262,0.90445 -8.0259,8.2176 0.3849,11.92052 -2.0133,27.43761 -5.3413,34.56005 -0.8094,1.73233 -1.3043,4.88233 -1.0997,7 l 0.372,3.8503 1.2097,-3 c 0.6653,-1.65 2.8434,-4.11554 4.8403,-5.47898 3.2317,-2.20644 4.6792,-2.48131 13.1674,-2.50026 7.9069,-0.0176 9.9532,0.30642 11.9744,1.89635 l 2.4379,1.91764 -0.7149,-2.25245 c -0.5195,-1.6368 -0.095,-2.91251 1.5538,-4.66738 3.0932,-3.29253 5.5737,-3.03136 7.9311,0.83508 2.8573,4.6863 2.5902,9.28833 -0.7169,12.35324 -2.4717,2.29071 -2.5828,2.69765 -1.2837,4.70225 0.8742,1.34907 1.4351,4.89129 1.4558,9.19451 0.03,6.19629 0.5052,7.91852 4.1399,15 5.106,9.9483 8.0829,15.23142 10.511,18.65437 1.0356,1.4599 1.8829,2.98856 1.8829,3.39701 0,0.40845 1.4987,2.58898 3.3305,4.84563 1.8318,2.25664 5.9505,7.86008 9.1527,12.45207 5.7605,8.26063 19.6588,22.89819 25.8264,27.2001 1.7547,1.22392 5.2154,4.67665 7.6904,7.67274 8.1999,9.92631 22.1998,25.02158 26.6764,28.7635 3.1441,2.62819 4.7596,3.39765 5.6251,2.67931 1.6718,-1.38747 9.7544,-4.13243 12.2203,-4.15018 1.112,-0.008 4.262,-2.07872 7,-4.6016 2.738,-2.52288 5.7657,-5.01371 6.7282,-5.53518 2.7806,-1.5065 2.1208,0.75242 -1.25,4.27965 -3.5336,3.69755 -3.7531,4.84258 -0.9286,4.84258 2.7678,0 5.1084,-2.47732 6.9286,-7.33313 1.785,-4.76208 4,-6.00811 4,-2.2502 0,1.42083 0.2034,2.58333 0.4521,2.58333 0.2486,0 3.2861,-1.93157 6.75,-4.29239 3.4638,-2.36081 8.0979,-4.89175 10.2979,-5.6243 2.2,-0.73255 8.95,-3.58181 15,-6.3317 6.05,-2.74988 13.7,-5.66152 17,-6.47032 3.3,-0.8088 9.3041,-3.04809 13.3424,-4.9762 7.336,-3.5026 7.353,-3.50535 19.5,-3.15537 10.1301,0.29186 12.8515,0.71507 16.3183,2.5377 2.2884,1.20308 6.1134,2.68779 8.5,3.29937 2.3866,0.61157 5.0143,1.3946 5.8393,1.74005 2.7761,1.16244 9.4418,1.18436 18.6472,0.0613 10.6588,-1.30035 13.6816,-0.52819 19.515,4.98507 3.3119,3.13007 4.7414,3.65276 14.9417,5.46326 11.3272,2.01053 18.7387,4.82346 35.39611,13.43413 7.3576,3.80336 7.5882,3.95934 19.5,13.19096 9.3646,7.25752 25.4064,24.02793 29.8596,31.21577 12.4569,20.10649 19.6921,33.21339 21.7618,39.42265 3.1436,9.43138 19.3212,26.16925 36.7138,37.98545 7.4185,5.04002 9.57,8.56948 6.0477,9.92113 -2.4581,0.94324 -18.5821,-1.32006 -21.0977,-2.96145 -2.5912,-1.69073 -6.2852,-1.9137 -6.2852,-0.37939 0,3.73267 5.3806,9.00922 12.75,12.50353 6.8271,3.23715 6.7368,4.6446 -0.2773,4.3197 l -5.5272,-0.25604 -0.456,26.43354 c -0.2508,14.53844 -0.7415,28.68353 -1.0904,31.43353 -1.104,8.7003 -7.3016,25.61438 -12.9622,35.37518 -2.9903,5.15635 -5.4397,10.10635 -5.4431,11 0,0.89365 -0.6937,2.94336 -1.5341,4.55491 -1.1997,2.30068 -1.66,8.42277 -2.1428,28.5 -0.53,22.04471 -0.3875,26.34939 1.0342,31.22382 1.8764,6.4341 2.1059,10.44562 0.6489,11.34609 -0.55,0.33992 -1,-0.23808 -1,-1.28443 0,-1.04636 -0.9234,-4.56042 -2.0521,-7.80902 -1.7509,-5.03956 -2.0901,-8.76885 -2.311,-25.40655 -0.2943,-22.17234 0.5916,-36.3655 2.4065,-38.55225 1.6816,-2.0263 0.2895,-3.20925 -1.5785,-1.34126 -0.9976,0.99762 -1.8202,5.25891 -2.498,12.94047 -0.5558,6.29917 -1.4975,13.59849 -2.0927,16.2207 -0.5952,2.62221 -0.8291,5.77595 -0.5198,7.0083 0.5879,2.34218 -0.7118,5.5728 -1.6386,4.07319 -0.2938,-0.47541 -0.8256,-2.66095 -1.1816,-4.85677 -1.9064,-11.75578 -4.9662,-26.28705 -6.0968,-28.95417 -1.1012,-2.59787 -1.3903,-2.77512 -1.9947,-1.22298 -0.3887,0.99838 -0.4079,5.11355 -0.043,9.14483 0.7679,8.47388 -0.258,23.53994 -1.6029,23.53994 -0.5034,0 -0.7096,-0.3375 -0.4582,-0.75 0.2514,-0.4125 -0.094,-7.05 -0.7678,-14.75 -1.1224,-12.82827 -1.332,-13.74892 -2.5045,-11 -2.6235,6.15107 -4.1965,28.07951 -2.5515,35.56929 0.7945,3.61715 -0.7738,3.85328 -2.3671,0.35641 -2.8422,-6.23803 -3.2283,-11.41727 -1.6603,-22.2714 1.6657,-11.53007 4.8355,-27.58876 6.0015,-30.4043 0.4136,-0.99892 0.2853,-1.75 -0.299,-1.75 -0.563,0 -1.2245,0.5625 -1.4701,1.25 -0.2455,0.6875 -0.7642,0.95625 -1.1527,0.59722 -0.8829,-0.81591 1.3894,-12.70254 2.5674,-13.43059 0.4758,-0.29407 0.8651,-1.43397 0.8651,-2.53313 0,-1.09916 1.3598,-6.3601 3.0217,-11.69098 1.6619,-5.33089 3.4347,-11.04252 3.9396,-12.69252 0.5048,-1.65 1.2177,-4.8 1.5841,-7 0.6584,-3.9533 3.4371,-15.04756 5.2961,-21.14542 0.5274,-1.72999 3.7038,-8.65912 7.0587,-15.39807 3.3549,-6.73895 6.0592,-13.1985 6.0096,-14.35457 -0.068,-1.58697 -0.3144,-1.36694 -1.0053,0.89806 -0.5033,1.65 -2.7128,5.475 -4.91,8.5 -2.1971,3.025 -5.0456,7.75075 -6.3298,10.50166 -2.8058,6.01011 -6.8112,9.6755 -18.1346,16.595 -5.1389,3.14029 -9.7505,6.8464 -11.5849,9.31019 -1.6761,2.25123 -5.7179,7.69315 -8.9818,12.09315 -3.2639,4.4 -6.8409,9.05073 -7.9489,10.33495 -1.108,1.28422 -2.0145,3.43668 -2.0145,4.78324 0,2.60202 -4.2131,11.72859 -6.7392,14.59893 -0.8312,0.94441 -1.2692,2.64281 -0.9733,3.7742 1.0439,3.99184 -2.6537,14.4487 -7.81261,22.09408 -1.9598,2.90437 -3.7312,7.48507 -4.8321,12.49494 -2.4665,11.22526 -7.1268,15.78992 -12.2017,11.95146 -2.5287,-1.91261 -5.3202,-1.89809 -9.9874,0.052 -4.5086,1.88383 -7.9784,0.79652 -9.4013,-2.94606 -0.7888,-2.07463 -1.7001,-2.44419 -6.9663,-2.82511 -7.4933,-0.54202 -11.5188,-3.56594 -10.5598,-7.93241 0.4721,-2.14942 0.1701,-2.84177 -1.4659,-3.36102 -2.4302,-0.77132 -2.6838,-4.11085 -0.5286,-6.96031 1.6903,-2.23425 1.929,-4.55887 0.4686,-4.55887 -0.55,0 -1,0.6199 -1,1.37756 0,0.75765 -0.7219,1.97666 -1.6042,2.7089 -0.8823,0.73224 -1.9914,2.34977 -2.4646,3.59451 -1.7544,4.61427 -9.1413,3.98033 -12.4494,-1.06838 -1.2425,-1.89633 -1.3724,-2.94854 -0.5529,-4.47979 1.2885,-2.40756 1.4121,-5.43042 0.2031,-4.96613 -1.6224,0.62303 -17.132,19.83462 -17.132,21.22126 0,1.57707 -7.4413,8.61207 -9.1095,8.61207 -1.609,0 -15.74,-13.95059 -16.4743,-16.26393 -0.3886,-1.22463 0.1688,-3.03602 1.4802,-4.80977 2.768,-3.74393 2.6615,-4.58644 -0.8064,-6.37976 -1.6005,-0.82765 -4.188,-3.02665 -5.75,-4.88666 -2.1243,-2.52963 -3.8694,-3.51332 -6.9251,-3.90359 -6.2449,-0.79759 -11.131,-4.45437 -14.0382,-10.50629 -3.057,-6.36379 -5.0468,-6.69646 -8.9718,-1.5 -1.5578,2.0625 -3.4128,4.34623 -4.1222,5.07497 -6.008,6.17186 -9.2552,14.26543 -9.298,23.17503 -0.064,13.39114 -6.1112,27.52024 -16.2608,37.99468 -5.6306,5.8108 -5.3267,6.96301 1.8437,6.99001 7.5704,0.0285 26.7877,6.18073 34.4324,11.02323 2.475,1.56777 5.85,3.14729 7.5,3.51003 1.65,0.36275 5.025,1.27574 7.5,2.02888 2.475,0.75313 9.225,1.85208 15,2.44211 9.9306,1.0146 10.6467,1.24239 13.2054,4.20076 1.488,1.72039 3.0036,4.48525 3.3679,6.14414 0.3644,1.65889 2.3887,5.83649 4.4986,9.28357 2.1098,3.44708 5.0169,8.59767 6.4601,11.44576 4.1551,8.19975 7.6063,28.80094 9.0357,53.93683 0.2971,5.225 1.1909,12.12385 1.9862,15.33077 0.7954,3.20692 1.4461,6.71283 1.4461,7.7909 0,2.62768 3.3642,13.37063 7.6183,24.32733 4.7114,12.1347 5.1548,16.058 2.4431,21.6195 -2.2504,4.6153 -5.0569,16.1054 -5.0676,20.7469 0,1.4765 -0.6071,3.8362 -1.3416,5.2437 -0.7346,1.4075 -1.6397,4.4615 -2.0115,6.7866 -0.3718,2.3251 -1.5681,5.8919 -2.6584,7.9261 -2.1964,4.0981 -2.4581,6.3914 -1.026,8.9918 1.6298,2.9593 4.0437,12.8646 4.0437,16.5933 0,1.9519 -0.4087,4.5827 -0.9082,5.846 -3.4029,8.6063 -6.8781,22.0216 -7.4906,28.9163 -0.4318,4.8605 -1.2145,5.8808 -4.511,5.8808 -5.6585,0 -9.0582,-2.0627 -13.0233,-7.9014 -2.1211,-3.1236 -4.5774,-6.2774 -5.4584,-7.0085 -2.374,-1.9703 -7.5426,-12.552 -10.3014,-21.0901 -4.4017,-13.6224 -4.1395,-24.8093 0.8373,-35.7287 3.3087,-7.2597 6.5175,-10.2713 10.9439,-10.2713 3.1589,0 4.012,-0.5048 5.7064,-3.3765 4.2627,-7.2248 3.9428,-13.6045 -0.4741,-9.455 -2.437,2.2895 -2.4832,2.2936 -3.6445,0.3252 -1.8696,-3.1693 -4.6679,-13.6632 -4.6722,-17.5212 0,-1.9401 0.5874,-4.4151 1.3101,-5.5 2.078,-3.1194 3.981,-14.9856 3.2454,-20.2369 -0.3648,-2.6046 -1.7273,-8.1106 -3.0278,-12.2356 -1.3005,-4.125 -2.9143,-10.65 -3.5864,-14.5 -0.6721,-3.85 -2.0409,-8.8 -3.0419,-11 -1.001,-2.2 -2.5686,-6.25 -3.4837,-9 -3.8358,-11.52755 -7.2258,-17.04288 -13.9476,-22.69228 -9.2278,-7.75547 -20.2836,-11.52283 -37.972,-12.93928 -7.15,-0.57256 -15.5045,-1.67719 -18.5656,-2.45473 -3.0611,-0.77754 -7.1141,-1.41371 -9.0066,-1.41371 -1.8925,0 -4.9934,-0.44522 -6.8908,-0.98938 -3.0558,-0.8764 -3.7535,-0.69831 -6.1103,1.55959 -3.8251,3.66469 -7.4304,11.71476 -9.3737,20.92979 -3.8985,18.48703 -7.1877,30.38809 -15.6153,56.5 -3.4864,10.8021 -5.971,16.2067 -10.3437,22.5 -6.4277,9.251 -10.1854,16.3051 -13.0511,24.5 -2.9875,8.5429 -4.2995,24.7153 -4.9488,61 -0.2018,11.275 -0.6829,22.975 -1.0691,26 -1.1201,8.7729 3.6193,17.7505 10.2786,19.4702 5.1675,1.3343 24.1964,17.4259 24.1964,20.4613 0,0.5091 0.6636,1.5893 1.4747,2.4004 0.8111,0.8111 3.0497,4.162 4.9747,7.4465 1.925,3.2845 5.0864,7.8706 7.0253,10.1913 6.8618,8.2131 3.9566,13.2677 -7.9721,13.87 -8.5409,0.4313 -19.3059,-1.7882 -38.9081,-8.0218 -10.0014,-3.1806 -13.7707,-4.8857 -16.75,-7.5774 -3.6533,-3.3005 -3.8445,-3.7742 -3.8445,-9.526 0,-4.8774 0.5826,-7.0851 3,-11.3685 1.65,-2.9236 2.9952,-6.335 2.9894,-7.5809 -0.013,-2.6855 -6.4418,-11.1099 -10.5208,-13.7857 -3.8751,-2.5421 -5.4684,-1.0793 -5.4684,5.0206 0,4.8021 -1.8476,7.8303 -3.9752,6.5153 -0.5846,-0.3613 -2.1667,-2.8353 -3.516,-5.4979 -3.1338,-6.1843 -4.9153,-23.113 -4.3021,-40.8805 0.4075,-11.806 0.6303,-12.9657 3.388,-17.6369 5.2206,-8.8428 10.2583,-20.7874 12.231,-29 3.7923,-15.7878 4.0917,-19.5588 3.691,-46.5 -0.4533,-30.48413 0.5956,-49.51603 3.4667,-62.90179 1.1091,-5.17098 2.0166,-10.88731 2.0166,-12.70295 0,-1.81563 0.3993,-4.33483 0.8874,-5.59821 1.0096,-2.61339 2.7107,-10.31711 3.6297,-16.43747 l 0.6217,-4.14041 -6.8194,0.50959 c -4.0441,0.30221 -11.5438,2.08896 -18.4283,4.39042 -6.3848,2.13445 -12.2348,3.89435 -13,3.91089 -0.7651,0.0165 -5.2161,2.93004 -9.8911,6.47446 -21.0371,15.94955 -23.798,17.38128 -33.6532,17.45158 -5.8803,0.0419 -6.3658,-0.14849 -10.9422,-4.29177 -4.6526,-4.21227 -4.8008,-4.52312 -5.2083,-10.92193 -0.2793,-4.38653 0.2951,-9.92324 1.7199,-16.57761 l 2.1392,-9.99136 -2.4557,-11.33672 c -1.3507,-6.2352 -2.7399,-13.05838 -3.0873,-15.16263 -0.726,-4.39851 -3.589,-6.06223 -13.3505,-7.75835 -3.1141,-0.54108 -7.2369,-1.63979 -9.1619,-2.44157 -3.0492,-1.27005 -8.9289,-2.51158 -25.5365,-5.39217 -2.5459,-0.44159 -5.1309,-0.23338 -7,0.56383 -1.6299,0.69518 -4.042,1.28426 -5.3601,1.30907 -1.3181,0.0248 -6.7181,1.43884 -12,3.1423 -9.2657,2.98829 -9.8847,3.05815 -17.6034,1.98674 -7.7899,-1.08129 -19.7841,-3.92276 -34,-8.05471 -3.85,-1.11903 -9.25,-2.51206 -12,-3.09563 -5.0568,-1.07307 -30.8915,-9.24572 -35.5,-11.2302 -1.375,-0.59209 -5.4322,-1.80258 -9.0161,-2.68996 l -6.5161,-1.61343 -0.2885,7.99151 c -0.288,7.97974 -1.5474,12.33713 -6.6787,23.10848 -6.4293,13.49601 -9.408,19.58138 -12.7269,26 -1.9907,3.85 -4.3584,9.87795 -5.2616,13.39544 -0.9032,3.51749 -4.794,12.51749 -8.6462,20 -6.7395,13.09088 -6.9906,13.83343 -6.6495,19.66604 0.4322,7.39324 4.5209,16.06505 9.8404,20.87088 2.0192,1.82424 6.995,5.2412 11.0573,7.59324 4.0622,2.35205 9.1859,5.42468 11.3859,6.82808 3.7036,2.36257 11.256,6.47042 21,11.42212 2.2,1.118 6.25,3.4684 9,5.223 15.7369,10.0411 20.1239,13.0232 21.2338,14.4335 2.5199,3.202 3.4189,9.7797 3.7503,27.4419 0.3568,19.0076 1.8459,27.8013 6.4831,38.2844 2.2767,5.1471 2.5014,12.6773 1.1388,38.1773 -0.5668,10.6073 -1.1353,14.5832 -2.186,15.2864 -0.7933,0.531 -4.2753,0.6682 -7.8897,0.311 -4.9321,-0.4876 -7.5464,-1.3786 -11,-3.749 -6.266,-4.3007 -12.6151,-10.8416 -19.1073,-19.6843 -9.8647,-13.4363 -11.3802,-18.69 -10.7139,-37.1408 0.3507,-9.7141 0.8288,-13.2646 1.8728,-13.9098 0.771,-0.4765 4.686,-0.8281 8.7001,-0.7814 4.0141,0.047 7.5697,-0.1863 7.9013,-0.518 0.3316,-0.3316 -0.3615,-2.9235 -1.5402,-5.7598 -1.1787,-2.8363 -2.1431,-6.1916 -2.1431,-7.4562 0,-2.4229 -3.4915,-4.3509 -5.0407,-2.7833 -0.4616,0.4671 -0.9788,3.0993 -1.1493,5.8493 -0.1705,2.75 -0.7418,5 -1.2695,5 -0.5278,0 -2.3993,-3.6944 -4.159,-8.2098 -5.1198,-13.1373 -7.8138,-16.1338 -20.7222,-23.0482 -25.6186,-13.7228 -39.9243,-20.1061 -52.1593,-23.2741 -6.6,-1.7088 -15.8832,-4.1129 -20.6294,-5.3423 -9.513,-2.4642 -17.5518,-6.84033 -23.9205,-13.0218 -4.9588,-4.81297 -5.9501,-7.09862 -5.9501,-13.71856 0,-6.11979 1.1046,-8.3157 9.5,-18.88524 8.5656,-10.7839 9.4452,-12.60896 11.0363,-22.90021 0.7314,-4.72988 1.7902,-10.62479 2.3531,-13.09979 1.4766,-6.49232 1.2041,-13.79883 -0.7169,-19.21966 -1.5842,-4.47045 -1.794,-4.65525 -3.9746,-3.5 -1.5098,0.79989 -4.2312,5.34969 -7.9073,13.21966 -3.0828,6.6 -6.7699,13.575 -8.1936,15.5 -10.9231,14.76952 -26.9848,31.20114 -48.4184,49.53364 -14.149,12.1018 -16.9285,16.04205 -19.295,27.35256 -0.7375,3.525 -1.9731,7.1302 -2.7458,8.0115 -1.7851,2.0361 -5.118,8.6522 -7.1831,14.2593 -6.0678,16.4748 -6.7675,23.3311 -5.3927,52.843 1.2715,27.2951 2.4885,34.3967 7.293,42.5597 3.5452,6.0235 9.8567,22.0659 11.1787,28.4138 1.3204,6.3405 5.9219,12.202 11.9663,15.2431 5.8262,2.9314 13.0211,7.1228 14.7302,8.5811 0.9515,0.812 3.132,5.1272 4.8454,9.5893 1.7134,4.4622 4.6047,10.588 6.4251,13.613 1.8205,3.025 4.3309,7.6144 5.5789,10.1986 l 2.269,4.6986 -2.4243,2.1122 c -1.3334,1.1617 -4.8993,3.3005 -7.9243,4.7529 -4.8576,2.3323 -6.9015,2.6718 -17.5,2.907 -6.6,0.1464 -13.5122,-0.195 -15.3605,-0.7588 z m 672.6105,-429.15533 c 1.7275,-1.38212 1.5696,-3.75517 -0.25,-3.75517 -0.825,0 -1.5,0.45 -1.5,1 0,0.55 -0.675,1 -1.5,1 -2.0937,0 -1.8696,-1.35557 0.5926,-3.58382 3.2615,-2.95159 3.9386,-4.87346 4.4612,-12.66319 0.8894,-13.25698 1.5109,-17.18495 4.0497,-25.59722 2.0999,-6.95784 2.3601,-9.08592 1.5662,-12.80815 -0.5236,-2.45516 -0.7179,-5.35937 -0.4317,-6.4538 0.3084,-1.17909 -0.2865,-2.88709 -1.4598,-4.19185 -2.9868,-3.32129 -3.2956,-4.93679 -3.3574,-17.56271 -0.067,-13.62913 -1.5856,-13.2797 -2.9176,0.67126 -0.9489,9.9386 -2.2905,14.18948 -4.4784,14.18948 -1.9114,0 -1.9163,-1.12712 -0.025,-5.65424 0.825,-1.97451 1.4694,-4.54755 1.432,-5.71788 -0.079,-2.46038 -5.8506,8.85042 -5.9008,11.5631 -0.04,2.17868 -1.9079,3.33234 -3.2393,2.00095 -0.7118,-0.71175 -0.5289,-2.51583 0.5871,-5.79101 0.8915,-2.61646 1.6029,-5.68954 1.5809,-6.82906 -0.035,-1.80886 -0.2294,-1.72278 -1.5319,0.67814 -0.8206,1.5125 -2.1791,2.75 -3.019,2.75 -1.6433,0 -1.6254,-0.0436 2.666,-6.5 1.4623,-2.2 2.9769,-5.8 3.3658,-8 0.8493,-4.80458 3.0589,-8.5 5.0822,-8.5 2.0704,0 1.8392,-2.36221 -0.4325,-4.41804 -1.8175,-1.64483 -1.9405,-1.62992 -2.5562,0.3097 -0.3557,1.12074 -2.4796,5.2036 -4.7199,9.07302 -2.8896,4.99114 -4.6511,7.03532 -6.0625,7.03532 -1.8636,0 -1.8238,-0.21702 0.6294,-3.43328 1.4402,-1.8883 2.6187,-3.73279 2.6187,-4.09887 0,-0.36608 0.6461,-2.0836 1.4357,-3.81672 0.7898,-1.73312 2.318,-6.08485 3.3963,-9.6705 1.0782,-3.58565 3.5821,-9.28637 5.5642,-12.66826 1.982,-3.3819 3.5876,-6.52318 3.5678,-6.98063 -0.069,-1.59937 -4.488,-5.93843 -7.2611,-7.12993 -4.1202,-1.77032 -5.1002,-1.58046 -14.444,2.79819 -4.6947,2.2 -9.5504,4 -10.7904,4 -2.7725,0 -3.729,2.18467 -2.4405,5.57378 2.5655,6.74784 -0.3856,46.68846 -4.1818,56.597 -0.8201,2.14062 -0.6428,3.2324 0.8936,5.5 8.7532,12.91958 15.6977,24.80955 18.0063,30.82922 1.0546,2.75 3.7642,7.925 6.0213,11.5 2.2571,3.575 5.2578,8.35838 6.6682,10.62973 1.4104,2.27136 2.5644,5.56418 2.5644,7.31739 0,2.84343 0.2429,3.11317 2.25,2.49788 1.2374,-0.37938 2.8125,-1.1398 3.5,-1.68983 z m -36.3609,-0.57566 c 0.2789,-0.45127 -4.0046,-5.28877 -9.5188,-10.75 -7.829,-7.75375 -10.8535,-11.57292 -13.8029,-17.42951 -2.0774,-4.125 -4.0881,-8.78599 -4.4683,-10.35776 -0.5947,-2.45852 -1.069,-2.78556 -3.3949,-2.34093 -1.487,0.28425 -4.1663,-0.0943 -5.9539,-0.84121 -2.6814,-1.12032 -3.2503,-1.90363 -3.2503,-4.47481 0,-4.16185 1.631,-6.98529 4.0352,-6.98529 2.6461,0 2.5047,-0.73634 -1.2998,-6.77037 l -3.2646,-5.17769 -1.3073,4.22403 c -0.7189,2.32322 -2.4402,5.41575 -3.825,6.8723 -2.8155,2.96144 -2.5619,4.00097 2.6476,10.85173 1.4638,1.925 4.6521,6.2 7.0852,9.5 2.433,3.3 4.6837,6.225 5.0015,6.5 0.3178,0.275 1.4182,1.85 2.4453,3.5 1.0271,1.65 6.9013,7.8375 13.0537,13.75 10.3663,9.96194 14.2791,12.41829 15.8173,9.92951 z M 881.37769,699 c 0.3653,-6.325 1.3094,-15.325 2.098,-20 0.7885,-4.675 1.4352,-9.99654 1.4369,-11.82564 l 0,-3.32564 -6.9224,6.1523 c -3.8074,3.38376 -7.6542,7.8053 -8.5485,9.82564 -0.8943,2.02034 -2.0542,4.45473 -2.5775,5.40977 -1.3329,2.43231 -1.1848,6.37418 0.2984,7.94214 2.0738,2.19226 6.75,8.64433 6.75,9.31335 0,0.76175 6.2396,8.60903 6.566,8.25769 0.1275,-0.13728 0.5307,-5.42461 0.896,-11.74961 z m 47.5228,1.69098 c 0.01,-0.44496 -0.4347,-0.5309 -0.9847,-0.19098 -0.55,0.33992 -0.9931,1.37898 -0.9847,2.30902 0.013,1.45727 0.1493,1.48367 0.9847,0.19098 0.5332,-0.825 0.9763,-1.86406 0.9847,-2.30902 z m 2.9931,-10.44098 c 0.012,-0.6875 -0.412,-1.25 -0.9426,-1.25 -1.2565,0 -3.0413,3.36721 -3.013,5.68426 0.019,1.52746 0.3328,1.41882 1.9778,-0.68426 1.0755,-1.375 1.9655,-3.0625 1.9778,-3.75 z M 721.91579,571.05902 c 0,-0.51754 -0.4522,-1.22045 -1.0048,-1.56202 -1.2173,-0.7523 -9.0086,-12.00884 -10.7264,-15.497 -0.6771,-1.375 -1.8021,-3.37371 -2.5,-4.44157 -3.2509,-4.97463 -8.3989,-13.38148 -10.0755,-16.45364 -1.0191,-1.86737 -4.9,-7.49237 -8.6242,-12.5 -7.5109,-10.09912 -11.2691,-15.68947 -18.3407,-27.28241 -5.9788,-9.80141 -7.7188,-11.96067 -10.2284,-12.69305 -3.7973,-1.1082 -4.7492,0.55668 -3.1199,5.45675 0.8072,2.42766 1.959,6.43892 2.5595,8.91392 0.6005,2.475 1.5965,6.15634 2.2133,8.18074 1.0656,3.49728 0.9394,3.89354 -2.5325,7.94962 -2.0097,2.34788 -3.514,4.68868 -3.343,5.20176 0.171,0.51309 2.3161,1.68548 4.7668,2.60533 3.2667,1.22613 4.41,2.17735 4.2841,3.56449 -0.094,1.04063 0.5212,2.39875 1.3682,3.01806 1.2187,0.89118 1.3914,2.20539 0.828,6.30188 -0.7755,5.6389 -1.68,6.90063 -3.4327,4.78875 -0.8046,-0.9695 -0.8371,-2.15044 -0.1115,-4.05868 0.793,-2.08586 0.6853,-3.02916 -0.4786,-4.19306 -0.8259,-0.82596 -1.5017,-2.3696 -1.5017,-3.43032 0,-1.06071 -0.6405,-1.92857 -1.4233,-1.92857 -2.0312,0 -7.5767,-4.89247 -7.5767,-6.68452 0,-0.82871 0.9093,-2.78372 2.0206,-4.34447 l 2.0207,-2.83774 -3.3933,-2.58819 c -3.9232,-2.99237 -4.925,-6.8335 -3.5438,-13.5882 2.4223,-11.84619 2.5066,-10.95688 -1.0391,-10.95688 -3.756,0 -6.5472,-1.2954 -10.2707,-4.76672 l -2.7056,-2.52235 -1.2091,2.65374 c -0.8007,1.75734 -2.5046,3.04189 -5.0444,3.80282 -4.0596,1.2163 -5.1457,2.83251 -1.9034,2.83251 2.0895,0 4.5552,3.02682 7.9838,9.80093 2.1598,4.26704 2.1617,4.3218 0.2479,6.94909 -1.91,2.62201 -1.909,2.6753 0.1024,5.39595 3.1328,4.23728 3.6872,9.7097 1.385,13.67119 l -1.9278,3.31717 2.3884,3.18283 c 1.9172,2.55492 2.3666,4.31721 2.2779,8.93284 -0.1031,5.35999 0.045,5.75 2.1819,5.75 2.3364,0 4.9505,2.99286 7.2059,8.25 0.6489,1.5125 1.8099,2.75 2.5799,2.75 2.0131,0 3.9959,5.48447 3.2789,9.06947 -0.517,2.58506 -0.343,2.97478 1.1262,2.5222 0.9557,-0.29441 3.6692,-0.77123 6.0298,-1.05959 2.3607,-0.28837 5.5188,-1.15861 7.018,-1.93388 2.7717,-1.43329 8.1899,-1.09035 8.1899,0.51838 0,1.77104 2.7815,0.82697 3.2898,-1.11658 0.6078,-2.32424 2.7102,-2.71211 2.7102,-0.5 0,1.04762 1.0556,1.5 3.5,1.5 4.9833,0 4.4775,2.3992 -0.75,3.55794 -5.1717,1.14637 -4.7335,2.91229 0.75,3.02233 8.3654,0.16786 30.0412,2.61849 30.95,3.49915 1.2377,1.19935 3.55,1.18606 3.55,-0.0204 z M 486.36559,207.75 c 0.5041,-1.80731 0.3871,-2.75 -0.3414,-2.75 -0.6096,0 -1.1084,0.45 -1.1084,1 0,1.5309 -3.6686,1.18849 -5.3571,-0.5 -0.825,-0.825 -2.2439,-1.5 -3.153,-1.5 -1.7753,0 -0.7357,2.19916 5.4002,11.42374 l 2.6099,3.92373 0.5914,-4.42373 c 0.3252,-2.43306 0.9365,-5.66124 1.3584,-7.17374 z"
     id="path2999"
     inkscape:connector-curvature="0" />
</svg>
