<?xml version="1.0" encoding="UTF-8" standalone="no"?>
<!-- Created with Inkscape (http://www.inkscape.org/) -->

<svg
   xmlns:dc="http://purl.org/dc/elements/1.1/"
   xmlns:cc="http://creativecommons.org/ns#"
   xmlns:rdf="http://www.w3.org/1999/02/22-rdf-syntax-ns#"
   xmlns:svg="http://www.w3.org/2000/svg"
   xmlns="http://www.w3.org/2000/svg"
   xmlns:sodipodi="http://sodipodi.sourceforge.net/DTD/sodipodi-0.dtd"
   xmlns:inkscape="http://www.inkscape.org/namespaces/inkscape"
   id="svg2"
   version="1.1"
   inkscape:version="0.48.2 r9819"
   width="471.20087"
   height="793.34662"
   sodipodi:docname="gustavusadolphus00dodg_0049d.png">
  <metadata
     id="metadata8">
    <rdf:RDF>
      <cc:Work
         rdf:about="">
        <dc:format>image/svg+xml</dc:format>
        <dc:type
           rdf:resource="http://purl.org/dc/dcmitype/StillImage" />
        <dc:title></dc:title>
      </cc:Work>
    </rdf:RDF>
  </metadata>
  <defs
     id="defs6" />
  <sodipodi:namedview
     pagecolor="#ffffff"
     bordercolor="#666666"
     borderopacity="1"
     objecttolerance="10"
     gridtolerance="10"
     guidetolerance="10"
     inkscape:pageopacity="0"
     inkscape:pageshadow="2"
     inkscape:window-width="1920"
     inkscape:window-height="1176"
     id="namedview4"
     showgrid="false"
     fit-margin-top="0"
     fit-margin-left="0"
     fit-margin-right="0"
     fit-margin-bottom="0"
     inkscape:zoom="1"
     inkscape:cx="232.35024"
     inkscape:cy="395.85615"
     inkscape:window-x="0"
     inkscape:window-y="24"
     inkscape:window-maximized="1"
     inkscape:current-layer="svg2" />
  <path
     style="fill:#000000"
     d="m 393.92133,791.91867 c -1.13915,-1.13915 -1.40389,-2.62162 -0.96185,-5.386 0.33545,-2.09783 0.0859,-6.92117 -0.55464,-10.71853 -1.58425,-9.39247 0.17556,-13.47683 7.6954,-17.86039 1.97463,-1.15107 3.25242,-2.69286 3.25616,-3.92892 0.003,-1.11891 0.7188,-3.38439 1.5898,-5.03439 2.15421,-4.08088 3.16843,-20.94213 2.22757,-37.03315 -0.27299,-4.66875 -0.69902,-5.72324 -2.72713,-6.75 -1.32198,-0.66927 -3.28562,-2.40516 -4.36363,-3.85753 -1.6896,-2.27634 -1.80273,-3.1173 -0.81994,-6.09518 0.62704,-1.89997 2.24391,-4.04525 3.59303,-4.76728 2.76258,-1.47849 2.62167,-3.76554 -0.61593,-9.99686 -1.00017,-1.925 -3.70489,-7.55 -6.01049,-12.5 -2.30559,-4.95 -5.68801,-10.67922 -7.51648,-12.73159 -3.37681,-3.79032 -6.75371,-10.26127 -12.40367,-23.76841 -3.99022,-9.53926 -6.40862,-18.02848 -10.0526,-35.28728 -3.43161,-16.25298 -4.99734,-20.41649 -8.12506,-21.60564 -1.27331,-0.48411 -4.55757,-3.43299 -7.29837,-6.55306 -2.74079,-3.12006 -6.16246,-6.30252 -7.60372,-7.07212 -3.57931,-1.9113 -6.51392,-8.61846 -7.79229,-17.80961 -1.00623,-7.23448 -1.40798,-8.10084 -6.92168,-14.92627 -5.4591,-6.75786 -12.16557,-18.87634 -12.16557,-21.98301 0,-0.74966 -0.42011,-1.79051 -0.93358,-2.31301 -0.51348,-0.5225 -1.5722,-5.30521 -2.35273,-10.62826 -1.28862,-8.78812 -1.7316,-9.9911 -4.81642,-13.07981 -4.43512,-4.44072 -6.83447,-7.99958 -9.93238,-14.73233 -5.05131,-10.97813 -8.02745,-16.0096 -9.46974,-16.0096 -2.30883,0 -13.3067,11.69461 -16.00446,17.01837 -3.67754,7.25727 -10.64795,16.8273 -18.20892,24.99993 -6.68487,7.22566 -23.35626,21.69351 -26.28084,22.80717 -3.6479,1.38909 -9.75011,9.82264 -11.95416,16.5212 -1.39733,4.24678 -2.65788,6.77893 -5.42403,10.89561 -1.08805,1.61927 -1.56654,3.4618 -1.16842,4.49928 0.7785,2.02873 1.20915,5.56656 2.0524,16.86056 0.33271,4.45616 1.25783,10.75616 2.05581,14 2.54351,10.33942 2.94714,25.78296 0.91209,34.89788 -2.13014,9.54079 -3.55379,13.15483 -6.49974,16.5 -6.21283,7.05477 -7.15718,9.02688 -9.19229,19.19628 -2.00021,9.995 -4.46254,16.56469 -8.92168,23.80372 -1.18577,1.925 -3.15362,6.01731 -4.373,9.09403 -2.14833,5.42066 -2.15926,5.63012 -0.35248,6.75848 2.59969,1.62353 2.55632,8.78047 -0.0702,11.58304 -1.60264,1.71007 -1.98298,3.80463 -2.21571,12.20206 -0.19165,6.91511 0.1093,10.60786 0.94677,11.61695 2.14102,2.57977 0.13842,8.99561 -3.32902,10.66536 -4.30656,2.07383 -11.54725,2.50039 -17.63546,1.03892 -2.9325,-0.70394 -7.35682,-1.38659 -9.83182,-1.517 -6.98942,-0.3683 -31.09563,1.40094 -32.36467,2.37535 -3.86666,2.96893 -46.643246,4.85449 -51.474366,2.26895 -3.47327,-1.85884 -2.59226,-3.76156 2.08825,-4.51 2.33707,-0.37371 5.37457,-1.73476 6.75,-3.02454 4.6768,-4.38557 17.17476,-10.30863 24.000786,-11.3745 8.4406,-1.31798 12.29491,-3.06577 18.96943,-8.60196 3.00818,-2.49514 8.40818,-5.74519 12,-7.22233 3.59181,-1.47714 7.83635,-4.00946 9.43231,-5.62738 2.82463,-2.86351 2.85796,-3.01578 1.25437,-5.73044 -2.89957,-4.90859 0.31901,-12.15566 5.84389,-13.15827 1.46069,-0.26508 2.17506,-1.43803 2.64919,-4.34983 0.35705,-2.19279 1.18306,-6.91189 1.83557,-10.48689 0.85817,-4.70176 0.95522,-12.58637 0.35081,-28.5 -1.37439,-36.18681 -0.48931,-48.20704 4.89656,-66.5 1.7003,-5.775 3.01367,-11.4 2.9186,-12.5 -0.75118,-8.69195 -1.15129,-32.02974 -0.62387,-36.38982 0.57295,-4.73643 1.19041,-5.87982 5.0934,-9.43186 2.44278,-2.22312 5.41628,-5.6477 6.60779,-7.61018 1.19151,-1.96248 2.42237,-3.79314 2.73525,-4.06814 3.18019,-2.79514 6.27154,-8.24727 8.07389,-14.23966 6.24855,-20.77503 9.29605,-28.02702 16.61156,-39.52976 1.84319,-2.89818 3.35125,-5.66189 3.35125,-6.14159 0,-0.4797 -1.11931,-1.1531 -2.48735,-1.49646 -1.36804,-0.34336 -3.23658,-1.76775 -4.15231,-3.16533 -1.60915,-2.45588 -1.54148,-2.77742 2.01916,-9.59393 2.02626,-3.87909 4.72812,-10.04097 6.00413,-13.69308 1.27602,-3.6521 4.29921,-10.27724 6.7182,-14.72253 4.28257,-7.8699 5.80273,-10.0155 14.65328,-20.68195 3.22009,-3.88077 4.08151,-5.62771 3.54143,-7.18193 -0.39253,-1.12958 -0.74317,-3.9478 -0.7792,-6.26271 -0.0425,-2.73016 -0.8325,-5.18956 -2.24852,-7 -5.642,-7.21355 -15.12203,-22.52519 -18.13524,-29.29107 -1.83709,-4.125 -4.1634,-9.3 -5.16959,-11.5 -1.0062,-2.2 -2.79827,-6.475 -3.98239,-9.5 -1.18413,-3.025 -2.50718,-6.18977 -2.94012,-7.03282 -0.43294,-0.84306 -1.0935,-3.09306 -1.46791,-5 -0.97941,-4.98833 -3.69402,-10.96832 -4.97544,-10.96035 -0.60397,0.004 -2.19568,1.69126 -3.53713,3.75 -4.74287,7.27895 -9.08102,11.04849 -14.10101,12.25277 -3.97011,0.95241 -5.27245,0.88018 -7.81246,-0.43331 -1.67647,-0.86693 -3.50968,-2.36376 -4.0738,-3.32627 -0.91653,-1.56379 -1.42729,-1.32005 -4.79971,2.29053 -2.07571,2.2223 -5.79902,5.59034 -8.27402,7.48454 -5.76183,4.40971 -6.58082,5.41575 -9.40033,11.54724 -1.28285,2.78978 -3.63008,6.04738 -5.21607,7.23911 -1.58598,1.19174 -3.44264,2.6362 -4.12591,3.20992 -0.68326,0.57371 -3.37423,1.95697 -5.97993,3.0739 -2.6057,1.11693 -4.97166,2.36173 -5.25769,2.76622 -0.28604,0.40448 -3.67007,2.23551 -7.52007,4.06894 -3.85,1.83343 -9.925,4.80091 -13.499996,6.5944 -3.575,1.79349 -8.3,3.57249 -10.5,3.95333 -3.66435,0.63434 -4.66397,1.58736 -11.91257,11.35715 -7.26443,9.79114 -7.92398,11.07426 -8.05193,15.6647 -0.2276,8.16596 -2.22344,13.28965 -6.85118,17.5883 -2.30138,2.13772 -4.50136,3.89238 -4.88887,3.89923 -0.3875,0.007 -1.82501,1.13294 -3.19447,2.50239 -1.49312,1.49313 -3.11775,2.24901 -4.05819,1.88813 -2.14177,-0.82188 -4.08912,0.9991 -8.64866,8.08742 -2.13494,3.31899 -4.52192,6.93453 -5.30442,8.03453 -26.4773303,37.22091 -26.0741603,36.80089 -31.4267603,32.74039 -3.43351997,-2.60468 -3.34204997,-7.0504 0.23247,-11.29847 1.43253,-1.70246 2.60459,-3.68074 2.60459,-4.3962 0,-0.71546 0.70253,-1.88388 1.56118,-2.59649 0.85864,-0.71261 4.4847503,-5.68722 8.0580203,-11.05469 5.85125,-8.78926 6.43087,-10.11075 5.83284,-13.29852 -0.71598,-3.81647 2.18264,-14.99945 5.649,-21.79408 1.04443,-2.04725 1.89896,-4.72074 1.89896,-5.9411 0,-3.51471 1.85776,-8.55053 7.5113,-20.36084 2.89611,-6.05 6.44084,-12.09094 7.87718,-13.42431 1.43634,-1.33338 2.61152,-2.9927 2.61152,-3.68738 0,-0.69468 3.0375,-3.82558 6.75,-6.95754 11.18897,-9.4393 15.8857,-14.08042 21.94148,-21.68168 3.17636,-3.987 6.65113,-8.26133 7.72169,-9.49851 2.37494,-2.74455 14.77956,-11.29372 19.593396,-13.50362 1.92862,-0.88537 4.7607,-3.32814 6.29352,-5.42836 11.04694,-15.13622 19.69991,-27.54985 19.69991,-28.26166 0,-0.46363 -0.69532,-1.10978 -1.54515,-1.43589 -2.39889,-0.92054 -4.14546,-6.24016 -5.52453,-16.82632 l -1.26432,-9.70527 2.803,-4.04473 c 1.54165,-2.2246 3.09812,-4.04473 3.45882,-4.04473 0.3607,0 3.787,-2.95102 7.614,-6.55782 9.44347,-8.90011 15.93331,-13.15445 22.79171,-14.94084 7.20388,-1.87637 9.03843,-1.87747 12.65433,-0.008 2.84821,1.47287 2.93555,1.43447 6.25661,-2.75 1.85245,-2.33405 4.01776,-5.21638 4.81181,-6.40519 0.79405,-1.1888 3.77858,-5.52042 6.63229,-9.62582 l 5.18857,-7.46436 -4.18857,-1.8672 c -2.30371,-1.02696 -6.06647,-3.58326 -8.36168,-5.68066 -3.67327,-3.3567 -4.41301,-3.66365 -6.17591,-2.56271 -4.29296,2.681 -8.55263,-2.29948 -14.22985,-16.63778 -1.29182,-3.26262 -4.80032,-10.64801 -7.60094,-16 -11.85897,-22.6625 -9.14736,-38.929666 9.18734,-55.115636 4.65179,-4.10662 7.43781,-7.54598 9.22178,-11.38436 1.40593,-3.025 3.23674,-6.2875 4.06845,-7.25 2.3717,-2.74463 6.44668,-2.107312 11.57805,1.81078 2.64018,2.015932 9.04552,5.132468 14.76391,7.18343 8.13885,2.91908 11.15633,4.58761 15.53696,8.59126 6.40055,5.84975 10.81211,11.97993 11.63273,16.16453 0.32357,1.65 1.26978,6.15 2.1027,10 0.83291,3.849996 1.53092,9.137496 1.55113,11.749996 0.0258,3.33072 0.44495,4.75 1.40287,4.75 1.59857,0 7.18053,-11.98803 8.75067,-18.793256 3.65511,-15.84179 5.58153,-21.49019 8.88436,-26.04962 4.73959,-6.54281 10.93696,-6.80568 7.58396,-0.32168 -1.97801,3.82543 -2.0783,8.16494 -0.18869,8.16494 1.50201,0 3.74772,-2.50956 13.10359,-14.64311 7.11009,-9.221022 25.29873,-27.714087 34.63024,-35.209844 3.64663,-2.929245 11.52163,-8.604328 17.5,-12.611297 8.86953,-5.9447582 12.89395,-7.9296902 21.86976,-10.7866532 14.88864,-4.73899204 15.87886,-4.92377004 18.01515,-3.36167404 1.73885,1.27147504 1.64107,1.58206204 -1.8035,5.72847104 -2.00312,2.411259 -4.85896,5.2841072 -6.34632,6.3841072 -6.06791,4.487627 -16.73045,16.402441 -20.1352,22.5 -1.9962,3.575 -3.98961,6.65 -4.42979,6.833333 -0.44019,0.183334 -0.80034,0.935062 -0.80034,1.670507 0,0.735446 -3.35252,3.016505 -7.45004,5.069021 -10.14479,5.081691 -18.21706,13.079889 -22.90379,22.693639 -2.00539,4.1136 -3.64868,7.87397 -3.65175,8.35638 -0.003,0.48242 -0.45715,2.50281 -1.00908,4.48977 -0.77866,2.80322 -2.80292,5.02721 -9.03477,9.92621 -8.9,6.996486 -14.35969,14.336606 -20.30719,27.301416 -4.57759,9.97858 -11.61457,19.86076 -16.12965,22.65124 -1.93255,1.19438 -3.51373,2.41926 -3.51373,2.72196 0,0.3027 1.64961,2.10615 3.66581,4.00767 3.34772,3.15731 4.02019,3.39676 7.75,2.75962 2.2463,-0.38373 8.13419,-0.76398 13.08419,-0.84501 4.95,-0.081 9.9,-0.65713 11,-1.28021 3.45737,-1.9584 14.44194,-4.35555 19.95864,-4.35555 7.02846,0 11.36031,2.05369 15.2502,7.22998 1.76486,2.34851 5.13986,6.69192 7.5,9.65202 2.36014,2.96009 4.56473,5.88509 4.8991,6.5 4.21375,7.74912 4.64403,10.83032 2.94905,21.118 -0.77704,4.7162 -0.64594,5.20359 2.30961,8.58674 1.72337,1.97271 5.31059,7.07892 7.97161,11.34713 2.82967,4.53875 6.08855,8.44657 7.85009,9.41326 7.42204,4.07308 10.69253,7.25391 14.70777,14.3046 2.30159,4.04155 5.9597,10.27327 8.12913,13.84827 5.87737,9.68534 8.9748,20.4174 8.9748,31.09617 0,4.8255 -0.50219,10.04043 -1.11598,11.58873 -0.61379,1.54831 -1.33086,8.4401 -1.59348,15.3151 -0.26263,6.875 -0.99794,13.61101 -1.63402,14.96891 -1.36886,2.92223 -7.57079,6.62089 -12.58604,7.50598 -1.96376,0.34657 -5.82048,1.70451 -8.57048,3.01765 -2.75,1.31315 -6.125,2.86345 -7.5,3.44511 -1.375,0.58167 -3.22633,1.58027 -4.11408,2.21911 -4.27933,3.07953 -6.79586,-3.98492 -3.23203,-9.07301 1.30699,-1.86599 1.41187,-2.74881 0.5,-4.20894 -1.60178,-2.56485 -1.38747,-8.98189 0.37791,-11.31594 1.98377,-2.62277 1.84718,-3.55887 -0.51926,-3.55887 -1.21047,0 -2.91654,1.47177 -4.36399,3.76468 -2.8813,4.56427 -4.31042,5.75925 -7.91907,6.62163 -2.7727,0.66261 -6.72948,-0.69899 -6.72948,-2.31574 0,-0.47248 1.35,-2.30424 3,-4.07057 1.65,-1.76633 3,-4.12739 3,-5.2468 0,-1.11941 1.9125,-3.93354 4.25,-6.25363 11.34879,-11.26426 11.81811,-11.909 11.13932,-15.30295 -0.52964,-2.64824 -1.31267,-3.39298 -4.60428,-4.37917 -4.36232,-1.30698 -8.20352,-5.54552 -9.35024,-10.31745 -0.86884,-3.61557 -5.21093,-12.5 -6.10913,-12.5 -0.35235,0 -0.34997,7.9875 0.005,17.75 0.64089,17.61095 -0.14495,28.6803 -2.82702,39.82158 -1.11878,4.64738 -1.03231,5.44197 1.03384,9.5 2.4072,4.72787 6.38928,8.7165 15.90225,15.92842 6.47158,4.90619 18.61106,15.94174 28.05996,25.50825 15.27436,15.46448 18.1484,20.78501 13.5,24.99175 -1.1,0.99549 -2,2.32519 -2,2.9549 0,1.32388 -7.29289,11.43399 -11.90572,16.50488 -1.90719,2.09656 -2.91137,4.06665 -2.54857,5 0.32927,0.84712 0.81494,6.26522 1.07926,12.04022 0.42585,9.30425 1.19019,14.84948 4.41078,32 0.46477,2.475 0.87185,7.69535 0.90464,11.60078 0.0605,7.21077 1.5188,13.39922 3.15744,13.39922 0.49619,0 0.90217,0.46347 0.90217,1.02993 0,0.56647 3.20328,7.65397 7.11841,15.75 17.19083,35.54872 21.65316,44.93391 22.92696,48.22007 0.74618,1.925 2.76348,5.75 4.48291,8.5 1.71942,2.75 3.91906,7.025 4.88809,9.5 0.96904,2.475 2.12707,4.95 2.5734,5.5 0.44634,0.55 2.832,5.5 5.30147,11 6.24049,13.89882 13.05788,28.21258 26.19549,55 6.20406,12.65 12.05842,24.8 13.00967,27 0.95126,2.2 3.02872,6.83271 4.61658,10.2949 1.58786,3.4622 2.88702,6.76773 2.88702,7.34563 0,0.5779 0.92871,2.35499 2.06381,3.94908 1.32627,1.86257 1.95166,4.06195 1.75,6.15437 -0.26211,2.72274 -0.72297,3.25602 -2.81351,3.25602 -2.78481,0 -2.18959,1.06461 -26,-46.50363 -6.875,-13.73481 -12.8375,-24.97779 -13.25,-24.98438 -1.16562,-0.0186 -0.88735,3.34727 0.63298,7.65633 0.76063,2.15588 1.66877,5.92495 2.01808,8.37573 0.34931,2.45077 1.11778,7.83095 1.70772,11.95595 0.58993,4.125 1.02036,10.07668 0.95649,13.22596 -0.11412,5.62753 -0.0565,5.75085 3.35039,7.17435 4.47609,1.87023 6.47149,7.88157 4.54941,13.70554 -2.20048,6.6675 0.85587,18.74995 6.18273,24.44176 1.56871,1.67618 2.84401,4.15118 2.834,5.5 -0.0175,2.357 -4.9536,10.6989 -7.12486,12.04081 -0.57753,0.35693 -1.65281,3.29555 -2.3895,6.53027 -0.7367,3.23472 -1.87383,7.68131 -2.52696,9.88131 -0.65314,2.2 -1.38437,6.475 -1.62496,9.5 -0.24059,3.025 -1.08501,6.91801 -1.87648,8.65113 -0.79147,1.73312 -1.43904,4.27874 -1.43904,5.65693 0,2.16271 -0.75738,2.74402 -5.53176,4.24575 -3.04247,0.95697 -5.76903,2.12385 -6.05902,2.59307 -0.28999,0.46922 -1.20519,0.85312 -2.03378,0.85312 -2.68874,0 -16.46593,6.87226 -20.00285,9.97772 -3.94647,3.46505 -4.63922,3.61279 -6.8015,1.45051 z"
     id="path2987"
     inkscape:connector-curvature="0" />
</svg>
