<?xml version="1.0" encoding="UTF-8" standalone="no"?>
<!-- Created with Inkscape (http://www.inkscape.org/) -->

<svg
   xmlns:dc="http://purl.org/dc/elements/1.1/"
   xmlns:cc="http://creativecommons.org/ns#"
   xmlns:rdf="http://www.w3.org/1999/02/22-rdf-syntax-ns#"
   xmlns:svg="http://www.w3.org/2000/svg"
   xmlns="http://www.w3.org/2000/svg"
   xmlns:sodipodi="http://sodipodi.sourceforge.net/DTD/sodipodi-0.dtd"
   xmlns:inkscape="http://www.inkscape.org/namespaces/inkscape"
   id="svg2"
   version="1.1"
   inkscape:version="0.48.2 r9819"
   width="1056.8875"
   height="1311.4373"
   sodipodi:docname="zigzagjourneysi00buttuoft_0031d.png">
  <metadata
     id="metadata8">
    <rdf:RDF>
      <cc:Work
         rdf:about="">
        <dc:format>image/svg+xml</dc:format>
        <dc:type
           rdf:resource="http://purl.org/dc/dcmitype/StillImage" />
        <dc:title></dc:title>
      </cc:Work>
    </rdf:RDF>
  </metadata>
  <defs
     id="defs6" />
  <sodipodi:namedview
     pagecolor="#ffffff"
     bordercolor="#666666"
     borderopacity="1"
     objecttolerance="10"
     gridtolerance="10"
     guidetolerance="10"
     inkscape:pageopacity="0"
     inkscape:pageshadow="2"
     inkscape:window-width="1920"
     inkscape:window-height="1176"
     id="namedview4"
     showgrid="false"
     fit-margin-top="0"
     fit-margin-left="0"
     fit-margin-right="0"
     fit-margin-bottom="0"
     inkscape:zoom="0.5"
     inkscape:cx="440"
     inkscape:cy="649.83256"
     inkscape:window-x="0"
     inkscape:window-y="24"
     inkscape:window-maximized="1"
     inkscape:current-layer="svg2" />
  <path
     style="fill:#000000"
     d="m 230.5,1311.299 c -2.75,0.1836 -6.2377,0.1851 -7.7504,0 l -2.7504,-0.3305 -1.1222,-2.0969 -1.1222,-2.0968 1.1405,-5.0867 1.1406,-5.0867 8.482,-17.3661 c 4.6652,-9.5513 8.4821,-17.9543 8.4821,-18.6732 0,-0.719 1.1358,-2.6571 2.524,-4.3068 l 2.524,-2.9996 9.5927,-4.6975 9.5927,-4.6975 8.1879,-8.1296 8.1879,-8.1297 3.2164,-4.7108 3.2165,-4.7107 2.5332,-8.7893 c 1.3933,-4.834 4.1438,-12.3892 6.1123,-16.7892 1.9684,-4.4 4.6165,-10.925 5.8847,-14.5 1.2681,-3.575 2.782,-9.425 3.3642,-13 l 1.0585,-6.5 1.1119,-24.9759 1.1119,-24.9759 -0.4935,-9.0241 -0.4935,-9.0241 -6.5493,-17.5416 c -3.6021,-9.6478 -8.1808,-22.9228 -10.1748,-29.5 l -3.6256,-11.9584 -1.486,-10 c -0.8173,-5.5 -1.9075,-13.15 -2.4227,-17 -0.5151,-3.85 -1.3778,-16.67499 -1.9169,-28.49999 l -0.9804,-21.5 -1.0859,-6 c -0.5972,-3.3 -2.8338,-11.175 -4.9701,-17.5 l -3.8842,-11.5 -3.6414,-21.9232 -3.6414,-21.9232 -2.4584,-9.5768 c -1.3521,-5.26724 -3.8096,-13.67453 -5.4611,-18.68287 -1.6514,-5.00834 -3.5879,-9.90652 -4.3033,-10.88484 l -1.3007,-1.77877 -5.9148,2.02057 c -3.2531,1.11462 -10.4148,3.00801 -15.9148,4.21084 -5.5,1.20283 -12.25,2.89148 -15,3.75255 -2.75,0.86107 -7.1665,2.65062 -9.8144,3.97679 -2.6479,1.32616 -7.5979,4.46287 -11,6.97046 l -6.1856,4.55925 -13,6.37249 -13,6.37249 -13.466,3.55681 c -7.4064,1.95625 -17.5314,4.91612 -22.5,6.57749 l -9.034,3.02067 -4.1134,2.40339 -4.1134,2.4034 -7.102,7.28789 c -3.9061,4.00834 -8.9706,9.76289 -11.2544,12.78789 l -4.1524,5.5 -2.9553,6.5 c -1.6254,3.575 -3.3724,7.28139 -3.8822,8.23643 -0.5098,0.95504 -0.9259,2.98004 -0.9248,4.5 0,1.51996 2.2448,19.18857 4.9858,39.26357 2.7409,20.075 5.2704,37.84999 5.621,39.49999 0.3507,1.65 1.6787,5.0666 2.9513,7.5923 l 2.3137,4.5924 7.5631,7.063 7.563,7.0631 0,12.1946 0,12.1946 3.4,3.4 3.4,3.4 5.225,0 5.2249,0 5.8353,-2.6187 5.8354,-2.6188 3.7897,0.8179 c 2.0843,0.4498 5.0501,0.6964 6.5905,0.548 l 2.8009,-0.27 3.9749,4.3208 c 2.1862,2.3765 5.8267,7.1494 8.09,10.6067 l 4.1151,6.2859 0.8156,4.2141 0.8156,4.2141 0.038,13 0.038,13 -1.4941,9.9129 c -0.8218,5.452 -1.4941,11.4145 -1.4941,13.25 l 0,3.3371 -3.25,-0.024 -3.25,-0.024 -5.5,-2.2679 -5.5,-2.268 -9.9314,-6.787 c -5.4622,-3.7329 -13.1122,-8.3758 -17,-10.3174 -3.8877,-1.9417 -8.5222,-4.6224 -10.2989,-5.9571 l -3.2303,-2.4268 -7.2697,-10.2077 -7.2697,-10.2077 -6.5,-6.5943 -6.5,-6.5942 -9.6841,-7.1217 -9.6841,-7.1217 -2.721,-4.643 -2.7211,-4.6431 -1.3292,-5.6475 -1.3293,-5.6474 -0.016,-21.5 -0.016,-21.5 -1.5383,-8 c -0.846,-4.39999 -2.8938,-16.68379 -4.5506,-27.29739 L 38.8985,954.00938 35.423,944.90183 C 33.5114,939.89268 30.1593,929.8733 27.9738,922.63655 L 24,909.47931 l 0,-4.27263 0,-4.27263 4.9615,-18.87912 4.9616,-18.87911 1.9906,-3.90203 c 1.0949,-2.14611 3.234,-5.37963 4.7537,-7.18561 l 2.7629,-3.28358 5.0349,-3.15592 5.0348,-3.15593 10.5,-3.80774 c 5.775,-2.09426 15,-6.05378 20.5,-8.79894 5.5,-2.74515 17.65,-9.29775 27,-14.56133 l 17,-9.57014 3,-2.70495 c 1.65,-1.48772 4.0125,-3.22478 5.25,-3.86013 l 2.25,-1.15518 0,-1.05843 0,-1.05844 -2,-0.52301 -2,-0.52301 0,-3.09158 0,-3.09158 -4.4648,4.38183 -4.4647,4.38183 -0.6422,-1.67362 -0.6423,-1.67362 -1.238,0 c -0.6809,0 -2.0553,0.90307 -3.0542,2.00683 l -1.8161,2.00682 -1.0889,-0.16972 c -0.5988,-0.0933 -2.2686,0.16289 -3.7106,0.56941 l -2.6218,0.73913 -1.1887,2.22097 c -0.6537,1.22153 -2.1144,2.79917 -3.246,3.50586 l -2.0575,1.2849 -1.0721,-1.07208 -1.0721,-1.07209 1.7329,-3.63382 1.7328,-3.63382 -0.5468,-0.54681 -0.5468,-0.5468 -2.509,2.3571 -2.509,2.3571 -1.887,0.13902 -1.8869,0.13901 -6.2705,5.6745 c -3.4488,3.12097 -6.7136,5.67449 -7.2551,5.67449 l -0.9846,0 1.8821,-2.25 c 1.0352,-1.2375 5.8692,-6.39193 10.7423,-11.45429 l 8.8601,-9.20429 -0.7053,-1.14132 -0.7054,-1.14133 -3.1319,0.44323 c -1.7225,0.24378 -3.8787,0.76935 -4.7916,1.16794 l -1.6596,0.7247 -0.6876,-2.16628 -0.6875,-2.16628 -2.8255,2.70697 -2.8254,2.70696 -0.3274,-2.78588 -0.3273,-2.78589 -1.0741,-0.35181 -1.074,-0.35181 -3.676,2.49455 c -2.0217,1.37201 -3.6742,2.17062 -3.6722,1.77469 0,-0.39592 0.9021,-2.19324 2,-3.99403 C 78.1017,782.52975 79,780.5475 79,779.92555 l 0,-1.13082 -1.9527,1.76719 c -1.074,0.97195 -6.8115,8.77946 -12.75,17.35003 L 53.5,813.49478 l -5.3282,5.55497 c -2.9305,3.05523 -4.9886,4.87996 -4.5735,4.05496 0.4151,-0.825 2.6209,-3.975 4.9017,-7 2.2808,-3.025 4.514,-6.12088 4.9627,-6.87973 l 0.8157,-1.37973 -1.1241,0.37973 c -0.6182,0.20885 -5.371,4.54223 -10.5618,9.62973 l -9.4377,9.25 -2.5774,0 c -1.4176,0 -2.5774,-0.24132 -2.5774,-0.53626 0,-0.29494 2.2393,-3.45792 4.9763,-7.02883 l 4.9763,-6.49258 3.4638,-7.22117 c 1.9051,-3.97164 5.511,-12.79852 8.0131,-19.6153 l 4.5494,-12.39414 2.6764,-4.60586 c 1.472,-2.53322 5.017,-7.61292 7.8776,-11.28822 l 5.2013,-6.68237 3.863,-7.50421 3.863,-7.5042 -0.587,-0.58697 -0.5869,-0.58697 -1.653,0.63429 -1.6529,0.63428 -5.352,8.13926 c -2.9437,4.47659 -10.4277,16.68925 -16.6313,27.13925 -6.2035,10.45 -12.1924,20.01073 -13.3087,21.24606 -1.1163,1.23533 -2.2233,2.05238 -2.46,1.81568 -0.2367,-0.23671 0.6719,-1.92244 2.0191,-3.74606 1.3472,-1.82362 4.8351,-7.59068 7.7508,-12.81568 2.9157,-5.225 8.5585,-14.9 12.5396,-21.5 3.9812,-6.6 7.8087,-13.63081 8.5056,-15.62402 l 1.2672,-3.62402 -0.6175,-1.60912 -0.6175,-1.60912 -1.7851,0.68502 -1.7852,0.68502 1.7473,-2.70188 c 0.961,-1.48603 2.4833,-3.84092 3.3828,-5.23309 l 1.6354,-2.53121 -0.7286,-0.71879 -0.7286,-0.71879 -3.4246,4 c -1.8835,2.2 -6.0041,7.96441 -9.1568,12.8098 -3.1528,4.84539 -8.1416,12.49539 -11.0863,17 -2.9446,4.50461 -8.6379,12.24466 -12.6517,17.20011 l -7.2978,9.0099 -4.8482,3.46513 -4.8483,3.46514 7.2027,-7.97504 c 3.9614,-4.38627 9.7566,-11.35004 12.8781,-15.47504 3.1216,-4.125 8.4304,-11.75785 11.7974,-16.96189 3.367,-5.20404 9.1139,-13.97904 12.7708,-19.5 l 6.6491,-10.03811 -0.9342,-1.75 -0.9343,-1.75 -1.3967,0 -1.3967,0 -1.9053,2.75 c -1.048,1.5125 -5.1478,9.03263 -9.1107,16.71141 -3.9629,7.67877 -8.2977,15.39353 -9.6327,17.14389 l -2.4274,3.18249 -1.3862,-0.14389 -1.3862,-0.1439 -6.1106,9.10489 c -3.3609,5.00769 -8.2185,11.44935 -10.7948,14.3148 l -4.6842,5.20992 -0.83,-1.31481 -0.83,-1.3148 -3.0191,1.70349 C 7.3586,785.24512 6,785.83499 6,785.61902 c 0,-0.21597 1.8,-2.47241 4,-5.01431 2.2,-2.5419 4,-5.09305 4,-5.66923 l 0,-1.04759 -2.6713,0.67046 -2.6713,0.67045 3.7382,-4.56204 3.7383,-4.56205 -1.4772,0 -1.4771,0 -5.3398,4.15426 c -2.9369,2.28485 -5.9023,4.58995 -6.5898,5.12245 L 0,776.3496 l 0,-1.08441 0,-1.0844 11.25,-10.06978 11.25,-10.06978 7,-8.34623 c 3.85,-4.59043 8.0413,-10.20114 9.314,-12.46826 l 2.314,-4.12203 -1.564,0 -1.564,0 0,-1.03138 c 0,-0.56727 0.6788,-1.29188 1.5085,-1.61027 l 1.5086,-0.57887 6.011,-7.97729 c 3.3061,-4.3875 6.7104,-9.3297 7.5652,-10.98266 0.8548,-1.65297 1.3297,-3.22982 1.0554,-3.50412 -0.2743,-0.27431 -1.2269,-0.0912 -2.1169,0.40683 -0.89,0.49807 -3.2218,3.12682 -5.1819,5.84167 l -3.5639,4.93609 0.7374,-2.5 c 0.4056,-1.375 2.089,-5.19411 3.741,-8.48691 1.652,-3.29279 4.0683,-8.81557 5.3696,-12.27283 l 2.366,-6.28592 0,-5.03417 0,-5.03417 -5.3712,5.807 c -2.9542,3.19385 -8.2417,9.23212 -11.75,13.41839 -3.5084,4.18626 -8.042,9.58626 -10.0747,12 l -3.696,4.38861 -0.054,-1.03435 c -0.03,-0.56889 2.9834,-4.94259 6.6959,-9.71933 3.7125,-4.77673 10.4425,-13.18899 14.9556,-18.69391 l 8.2056,-10.00894 0.9774,-3.77174 c 0.5376,-2.07445 1.2923,-6.42274 1.6773,-9.66286 l 0.6998,-5.89112 -1.0068,0.62222 c -0.5537,0.34222 -4.0905,5.59693 -7.8595,11.67714 l -6.8528,11.05493 -5.2083,5.46398 -5.2084,5.46398 -1.133,0 -1.1331,0 2.0944,-2.75 c 1.1519,-1.5125 4.4737,-5.78594 7.3818,-9.49652 2.9081,-3.71059 7.8806,-11.07762 11.05,-16.37118 l 5.7625,-9.62465 -1.0665,-13.53581 c -0.5867,-7.44469 -1.2834,-13.75257 -1.5483,-14.01751 -0.265,-0.26494 -0.9632,0.8182 -1.5515,2.40698 -0.5884,1.58878 -3.1401,8.28869 -5.6703,14.88869 -2.5303,6.6 -5.0415,12.5625 -5.5806,13.25 -0.5391,0.6875 -1.3437,1.25 -1.7879,1.25 l -0.8078,0 0.7956,-2.75 c 0.4376,-1.5125 2.7198,-7.7 5.0716,-13.75 2.3518,-6.05 8.0797,-19.52799 12.7287,-29.9511 4.6489,-10.4231 11.5784,-25.0481 15.3987,-32.5 3.8203,-7.45189 8.6913,-16.0239 10.8245,-19.0489 2.1332,-3.025 6.1751,-8.2 8.9821,-11.5 2.807,-3.3 9.292,-11.175 14.4111,-17.5 5.1191,-6.325 11.4091,-14.6452 13.9778,-18.48932 l 4.6703,-6.98933 0,-1.76067 0,-1.76068 -4.481,0 -4.4809,0 -0.5745,-2.28903 -0.5745,-2.28904 0.9503,-2.49955 c 0.5227,-1.37475 1.2711,-5.92299 1.6632,-10.10719 l 0.7129,-7.60765 -0.8842,-1.57997 -0.8842,-1.57996 -5.8585,3.97619 -5.8585,3.9762 -3.3084,0 -3.3083,0 -1.5567,-2.22251 -1.5567,-2.2225 0,-6.97375 0,-6.97374 2.6486,-3.82186 2.6485,-3.82187 -0.6231,-0.62312 -0.6231,-0.62311 -5.2755,4.07424 -5.2754,4.07425 -1.7473,4.94364 -1.7473,4.94363 -4.0348,4.15757 c -2.2191,2.28666 -5.4828,5.04048 -7.2527,6.11961 l -3.2179,1.96204 -4.691,0.004 -4.691,0.004 -0.5846,-0.94599 -0.5847,-0.946 -3.9354,0.15693 -3.9353,0.15694 -2.6709,-2.46094 -2.6709,-2.46094 -1.8462,-4 -1.8461,-4 -0.022,-2.82692 -0.022,-2.82745 -2.9231,-2.92307 -2.9231,-2.92308 -1.4026,0 -1.4026,0 -2.3493,-2.50074 -2.3493,-2.50073 0.145,-3.24927 c 0.08,-1.78709 0.1359,-4.59926 0.1248,-6.24926 -0.011,-1.65 -0.178,-7.725 -0.3708,-13.5 l -0.3504,-10.5 1.0047,-5.5 1.0047,-5.5 1.2795,-1.5 c 0.7037,-0.825 2.2952,-3.525 3.5367,-6 1.2415,-2.475 4.1065,-7.13789 6.3666,-10.36197 2.26,-3.22408 5.2342,-7.57406 6.6092,-9.66662 1.375,-2.09256 4.1415,-5.75468 6.1478,-8.13803 l 3.6478,-4.33338 6.1022,-11.20646 6.1022,-11.20646 0.044,-6.29354 c 0.024,-3.46145 0.4204,-8.24412 0.8811,-10.62815 l 0.8377,-4.33461 -1.0493,-2.77997 -1.0493,-2.77996 1.6707,-6.88543 c 0.9189,-3.78698 1.6696,-7.24948 1.6681,-7.69444 l 0,-0.80901 -1,0.61803 -1,0.61803 0,2.119 c 0,1.16545 -1.5509,7.10139 -3.4464,13.19098 -1.8954,6.0896 -4.8391,16.21055 -6.5414,22.49101 -1.7023,6.28045 -4.4747,14.733 -6.1609,18.78344 l -3.0658,7.36443 -1.2165,-1.00965 -1.2166,-1.00965 -1.1762,1.1762 c -0.6469,0.64692 -1.1762,0.86594 -1.1762,0.48673 0,-0.37921 1.1672,-3.6051 2.5938,-7.16864 l 2.5938,-6.47916 -0.4452,-1.28136 -0.4452,-1.28136 -2.8986,4.90645 c -1.5942,2.69854 -6.0068,9.67354 -9.8057,15.5 -3.799,5.82645 -9.1039,14.30605 -11.7887,18.84355 -2.6849,4.5375 -5.0716,8.25 -5.3038,8.25 -0.2323,0 1.1351,-3.2498 3.0387,-7.22179 l 3.4609,-7.22179 0,-1.83902 0,-1.83902 6.1263,-13.18919 c 3.3695,-7.25405 7.8695,-17.13393 10,-21.95529 l 3.8737,-8.76609 0,-2.46108 0,-2.46107 2.3613,-6.27283 c 1.2987,-3.45006 3.9987,-9.5241 6,-13.49787 2.0013,-3.97377 3.6387,-7.68627 3.6387,-8.25 0,-0.56373 -0.407,-1.02496 -0.9045,-1.02496 l -0.9046,0 -2.9844,5.28804 -2.9843,5.28803 -5.2007,14.46197 -5.2006,14.46196 -6.2415,13 -6.2415,13 -5.6614,9 c -3.1137,4.95 -6.7875,10.35 -8.164,12 l -2.5026,3 -0.01,-1.40797 c 0,-0.77438 2.7435,-5.88045 6.1027,-11.34682 3.3592,-5.46637 8.3291,-14.58933 11.0443,-20.27325 2.7151,-5.68392 6.9388,-15.84322 9.386,-22.57623 2.4471,-6.73301 4.2571,-12.43402 4.0222,-12.66892 -0.2349,-0.23489 -0.8603,-0.15934 -1.3898,0.16791 -0.5295,0.32724 -3.0737,5.6598 -5.6538,11.85013 -2.5801,6.19033 -5.8425,13.852 -7.2497,17.02593 -1.4072,3.17393 -2.7178,5.61158 -2.9124,5.41701 -0.1945,-0.19457 1.3929,-5.26642 3.5276,-11.27078 2.1348,-6.00435 4.1644,-12.71701 4.5103,-14.91701 l 0.6289,-4 -0.9689,-1.49164 -0.969,-1.49164 -0.8872,0.99164 c -0.488,0.5454 -3.0161,5.94164 -5.6181,11.99164 -2.602,6.05 -5.3715,11.65893 -6.1544,12.46429 l -1.4236,1.46428 0,-1.33221 c 0,-0.73271 1.7483,-5.21664 3.8851,-9.96428 2.1368,-4.74765 5.3062,-12.66039 7.0431,-17.58389 l 3.158,-8.9518 -0.3049,-2.0482 -0.3049,-2.04819 -4.1838,7.08129 c -2.301,3.89471 -6.073,10.98221 -8.3822,15.75 l -4.1963,8.66871 -0.9234,0 -0.9234,0 0.6683,-2.25 c 0.3675,-1.2375 3.251,-7.2 6.4079,-13.25 3.1568,-6.05 9.1449,-16.175 13.3068,-22.5 4.162,-6.325 10.0485,-16.225 13.0811,-22 l 5.5138,-10.5 1.1743,-4.46285 c 0.6459,-2.45457 2.9733,-8.04087 5.1721,-12.41401 2.1988,-4.37314 7.6026,-13.38986 12.0086,-20.03715 4.4059,-6.64729 9.6968,-14.56099 11.7574,-17.58599 2.0606,-3.025 4.4863,-6.93569 5.3904,-8.69043 l 1.6438,-3.19043 4.7552,-1.33983 4.7551,-1.33983 0.6277,-8.46974 0.6277,-8.46974 3.1495,-8.5 c 1.7322,-4.675 4.3747,-10.71936 5.8723,-13.43191 l 2.7228,-4.93191 1.161,-0.37177 1.1611,-0.37177 1.9374,2.07963 1.9375,2.07963 1.106,3.72405 c 0.6083,2.04823 1.6307,6.77859 2.2719,10.51193 l 1.1659,6.78787 1.7955,2.21213 1.7955,2.21212 6.5815,-0.0927 6.5816,-0.0927 1.983,-1.79459 1.983,-1.79459 0.585,-3.11819 0.5849,-3.11819 -2.1147,-12.39477 -2.1148,-12.39476 0.518,-1.34976 0.5179,-1.34975 1.5251,0 1.525,0 7.7564,6.83505 7.7563,6.83505 2.9102,4.1998 2.9101,4.19979 2.3616,8.15358 c 1.2989,4.48447 2.5761,8.36807 2.8383,8.63023 0.2621,0.26215 4.8648,0.83051 10.2282,1.26301 5.3634,0.43251 16.5016,0.81728 24.7516,0.85504 l 15,0.0687 6.2416,0.90276 6.2417,0.90276 5.5172,2.52586 5.5172,2.52587 10.1319,7.76629 c 5.5726,4.27146 15.5811,12.56057 22.2412,18.42025 l 12.1092,10.65397 17.0123,17.38102 17.0122,17.38101 8.4878,10.63277 8.4877,10.63277 10.7335,21.36723 c 5.9035,11.75198 11.7535,24.17313 13,27.60255 l 2.2665,6.23533 1.3584,0.0147 1.3584,0.0147 -0.6276,-2.50069 c -0.3452,-1.37538 -0.873,-4.63788 -1.173,-7.25 -0.2999,-2.61212 -0.7498,-5.76181 -0.9998,-6.99931 l -0.4545,-2.25 -2.2309,-0.0153 -2.231,-0.0153 1.2738,-0.80842 1.2739,-0.80843 0.056,-3.42626 c 0.031,-1.88444 -0.3961,-4.77626 -0.949,-6.42626 -0.5529,-1.65 -2.0118,-5.475 -3.242,-8.5 l -2.2367,-5.5 0.037,-3 c 0.02,-1.65 0.8593,-5.7 1.8642,-9 1.0048,-3.3 2.1702,-6.24181 2.5896,-6.53736 0.4195,-0.29554 1.2654,-2.88139 1.8798,-5.74632 l 1.1171,-5.20897 -0.4497,-3.33679 -0.4496,-3.33678 -1.8819,-2.87209 c -1.035,-1.57966 -2.4774,-4.46726 -3.2053,-6.41689 -0.7279,-1.94964 -1.3657,-4.14695 -1.4172,-4.88292 l -0.094,-1.33811 -2.2963,-0.87304 -2.2963,-0.87304 -2.4475,-3.87715 -2.4475,-3.87715 -5.0896,-3.26594 c -2.7993,-1.79639 -5.0896,-3.62029 -5.0896,-4.05324 0,-0.43294 -1.8575,-1.53038 -4.1277,-2.43874 l -4.1277,-1.65158 -5.3577,-5.57609 -5.3577,-5.57609 0.4513,-0.73028 0.4513,-0.73029 -5.9659,-5.59105 c -3.2812,-3.07508 -5.9659,-6.05235 -5.9659,-6.61616 0,-0.5638 -1.289,-2.27811 -2.8644,-3.80957 -1.5754,-1.53146 -3.9379,-3.57595 -5.25,-4.5433 -1.3121,-0.96735 -3.8841,-2.95017 -5.7156,-4.40625 l -3.3301,-2.64744 0.7425,-6.09374 c 0.4083,-3.35156 0.6726,-7.12795 0.5872,-8.39197 -0.085,-1.26403 -1.2562,-4.63903 -2.6018,-7.5 -1.3457,-2.86098 -3.3739,-7.39648 -4.5072,-10.0789 -1.1333,-2.68241 -2.0606,-5.28813 -2.0606,-5.79049 0,-0.50236 -0.9393,-2.18388 -2.0874,-3.73673 l -2.0874,-2.82335 0.3374,-2.38615 0.3374,-2.38616 4.25,-0.3075 4.25,-0.3075 0,0.94909 0,0.94909 2.6165,0.65671 2.6166,0.65671 3.6334,4.05225 c 1.9984,2.22874 3.6572,4.5695 3.6862,5.2017 0.029,0.6322 0.7867,2.53222 1.684,4.22228 0.8973,1.69006 2.3445,3.66467 3.2161,4.38801 l 1.5847,1.31518 1.9813,-1.793 1.9812,-1.793 0,0.80998 0,0.80998 1.75,-1.50289 c 0.9625,-0.82658 2.2853,-1.80606 2.9395,-2.1766 l 1.1895,-0.67372 2.5605,2.76139 2.5605,2.7614 0,2.19512 c 0,1.20732 -0.4597,3.40415 -1.0215,4.88186 l -1.0215,2.68673 1.052,1.26763 1.0521,1.26762 2.7015,0.51643 2.7015,0.51642 2.5179,-1.27204 c 1.3849,-0.69962 4.1304,-1.56348 6.1011,-1.91968 l 3.5831,-0.64766 1.1455,2.51401 1.1454,2.514 1.5462,0 1.5462,0 1.0166,-2.67372 1.0165,-2.67373 -0.5658,-2.57627 c -0.3113,-1.41696 -0.4883,-2.80128 -0.3935,-3.07628 0.095,-0.275 -0.7514,-2.31086 -1.8805,-4.52413 l -2.053,-4.02413 0.1949,-4.97587 0.1949,-4.97587 1.4625,-2.97674 1.4626,-2.97673 2.75,-0.96714 2.75,-0.96714 3.4231,3.31775 3.423,3.31775 1.6785,5.12612 c 0.9232,2.81937 1.8204,5.85923 1.9939,6.75523 0.1735,0.89601 1.0548,3.82101 1.9585,6.5 0.9037,2.679 2.3329,5.93296 3.1759,7.23103 0.8431,1.29807 3.1458,3.92658 5.1173,5.84112 l 3.5845,3.48099 2.2743,4.90888 c 1.2509,2.69988 2.1014,4.90888 1.8901,4.90888 -0.2113,0 0.062,1.4625 0.6066,3.25 0.5449,1.7875 1.2004,4.375 1.4565,5.75 0.2562,1.375 0.6184,4.3 0.8049,6.5 l 0.3392,4 1.7393,3.96872 c 0.9566,2.18279 3.9857,7.47068 6.7314,11.75086 l 4.992,7.78215 2.6532,1.86926 2.6531,1.86926 6.7949,0.71428 6.795,0.71428 3.8182,3.85664 3.8183,3.85663 0.6487,3.24334 0.6487,3.24335 1.6431,1.81561 c 0.9037,0.99859 2.1358,1.81563 2.7381,1.81565 l 1.095,3e-5 2.6181,3.28119 c 1.4399,1.80465 3.5445,5.09724 4.6769,7.31687 1.1323,2.21962 2.7667,4.62317 3.6319,5.34122 l 1.5731,1.30555 1.359,-1.12784 1.3589,-1.12785 4.2668,1.5054 c 2.3467,0.82797 5.1872,1.5054 6.3123,1.5054 l 2.0455,0 1.7686,-1.60051 1.7685,-1.6005 16.3102,1.30664 c 8.9706,0.71865 17.7339,1.24857 19.474,1.1776 l 3.1638,-0.12904 2.5371,-1.32929 2.537,-1.32929 4.2992,-4.99781 c 2.3645,-2.74879 7.7631,-8.2603 11.9969,-12.2478 l 7.6979,-7.25 1.365,0 1.3651,0 2.5649,-2.75 c 1.4107,-1.5125 3.0107,-3.65 3.5555,-4.75 0.5448,-1.1 1.2843,-3.62951 1.6433,-5.62114 l 0.6528,-3.62114 -2.6147,-1.7132 -2.6147,-1.7132 -1.798,-4.16566 -1.7979,-4.16566 -0.6174,-5.5 -0.6175,-5.5 1.4971,-5.5 1.4971,-5.5 0.012,-4.77061 0.012,-4.77061 -4.4875,-3.16302 -4.4874,-3.16303 -1.5978,-4.18396 -1.5979,-4.18395 0.2436,-1.88241 0.2435,-1.88241 -2.038,-4.5 c -1.1209,-2.475 -3.4421,-6.24938 -5.1582,-8.3875 -1.7163,-2.13813 -3.1204,-4.22337 -3.1204,-4.63386 0,-0.41049 -2.526,-1.77157 -5.6133,-3.02462 l -5.6133,-2.27827 -1.883,-3.08788 c -1.0356,-1.69833 -1.8846,-3.79693 -1.8867,-4.66356 l 0,-1.57568 -2.25,-2.01217 -2.25,-2.01217 -9,-3.75378 c -4.95,-2.06457 -10.6673,-4.83059 -12.7052,-6.1467 l -3.7052,-2.39294 -1.1581,-3.86516 -1.158,-3.86517 1.9612,-4.40027 1.9612,-4.400274 7.8095,-10.5 7.8096,-10.5 9.2021,-9 9.2021,-9 7.9455,-5.708935 c 4.37,-3.139914 11.2956,-7.687772 15.3904,-10.106351 4.0947,-2.418579 11.9377,-7.049558 17.4289,-10.291065 l 9.9842,-5.893649 8.516,-3.597447 c 4.6839,-1.978596 14.6717,-6.355675 22.1952,-9.726842 l 13.6791,-6.129394 7.3209,-2.047348 7.3209,-2.047347 21.5,-1.528164 21.5,-1.528164 4,4.403463 c 2.2,2.421904 5.2328,6.382963 6.7396,8.802353 1.5069,2.419389 4.3231,6.42389 6.2584,8.89889 1.9352,2.475 4.5639,5.625 5.8414,7 1.2775,1.375 4.1908,3.981169 6.4739,5.791486 l 4.151,3.291486 2.7054,4.616406 2.7054,4.616406 0.4097,8.092108 0.4097,8.092108 -3.2283,6 -3.2283,6 -0.2443,4 c -0.1343,2.2 -0.7413,6.925 -1.3488,10.5 l -1.1046,6.5 0.014,10.500004 0.014,10.5 1.9322,4 1.9321,4 0.034,4.16896 0.034,4.16896 1.3939,2.83104 c 0.7667,1.55707 2.3463,4.85604 3.5104,7.33104 1.164,2.475 2.959,5.88446 3.9888,7.57658 l 1.8725,3.07659 0.6888,4.07709 0.6888,4.0771 3.4284,4.00528 c 1.8856,2.20291 3.4284,4.54075 3.4284,5.1952 0,0.65444 0.7229,2.71332 1.6064,4.57527 l 1.6065,3.38536 3.3935,2.09733 3.3936,2.09732 0,1.207 c 0,0.66385 0.862,2.89773 1.9155,4.96419 1.0536,2.06646 2.3337,4.29911 2.8448,4.96144 0.5112,0.66234 1.5387,3.45425 2.2834,6.20425 l 1.3542,5 3.301,4.3266 3.3011,4.32659 0,1.69127 0,1.69127 2.3512,3.48214 c 1.2932,1.91517 2.9166,5.28213 3.6075,7.48213 0.6909,2.2 2.4324,5.8 3.87,8 1.4375,2.2 3.8165,5.4239 5.2866,7.16423 l 2.673,3.16423 1.2446,3.83577 c 0.6846,2.10967 2.0314,4.96077 2.993,6.33577 0.9616,1.375 2.3112,4.38201 2.9992,6.68225 l 1.2509,4.18226 6.612,8.33819 c 3.6366,4.58601 7.7631,9.904 9.1699,11.81775 1.4069,1.91375 3.3412,5.27955 4.2985,7.47955 0.9572,2.2 2.1687,4.78139 2.692,5.73643 l 0.9516,1.73643 0,4.45455 0,4.45456 0.8606,0.53188 c 0.4733,0.29254 1.7087,3.3566 2.7453,6.80902 l 1.8846,6.27713 -0.2169,41.5 -0.2169,41.5 -1.6302,4 c -0.8966,2.2 -2.0355,4.675 -2.5308,5.5 -0.4953,0.825 -1.3292,2.48859 -1.8531,3.69687 -0.524,1.20828 -3.8612,5.36616 -7.4159,9.23974 l -6.4633,7.04288 -0.6846,3.11688 c -0.3765,1.71429 -3.8009,11.2814 -7.6097,21.26026 -3.8088,9.97885 -9.0298,23.31837 -11.6022,29.64337 l -4.6771,11.5 -0.4054,6.70775 -0.4053,6.70775 1.193,10.26233 1.1931,10.26233 0.9141,1.708 0.9141,1.708 5.2533,1.51279 c 2.8893,0.83203 8.1783,1.97658 11.7533,2.54345 3.575,0.56687 11.675,1.7467 18,2.62184 6.325,0.87514 17.575,2.94825 25,4.60691 7.425,1.65866 18.45,3.87418 24.5,4.92337 6.05,1.04919 13.3798,2.65593 16.2884,3.57053 l 5.2884,1.6629 18.9882,9.31101 18.9881,9.31101 11.7235,7.69639 11.7234,7.6964 8.5,7.08208 c 4.675,3.89515 14.3059,12.71228 21.402,19.59362 l 12.902,12.51154 5.7651,8.73326 5.7652,8.73327 3.0194,9.76673 c 1.6607,5.37171 4.3761,15.16674 6.0343,21.76674 1.6582,6.6 3.703,15.9461 4.544,20.76912 l 1.529,8.76912 1.0192,18.73088 c 0.5606,10.30198 1.5035,25.70588 2.0954,34.23088 l 1.0763,15.5 1.9151,11.29702 1.9151,11.29702 2.5806,7.70298 2.5806,7.70298 6.474,11.62604 6.4741,11.62603 3.337,9.37397 c 1.8354,5.15568 4.3601,13.8257 5.6106,19.26672 l 2.2735,9.89276 -1.2244,10.72383 -1.2245,10.72383 1.1556,6.38341 1.1556,6.38341 4.4126,11.16212 c 2.4269,6.13916 4.4126,11.91692 4.4126,12.83945 0,0.92254 1.3088,7.37458 2.9084,14.33788 1.5996,6.96325 3.8344,18.51055 4.9663,25.66055 1.1319,7.15 2.7344,19.74999 3.5612,27.99999 0.8268,8.25 1.7786,17.025 2.1152,19.5 0.3365,2.475 0.9936,11.475 1.4602,20 0.4666,8.525 1.2234,18.7826 1.6819,22.7947 l 0.8335,7.2948 1.0778,0.7052 1.0777,0.7053 0.063,9.9804 0.063,9.9805 2.0957,1.3915 2.0958,1.3915 0,3.5623 0,3.5624 -2.0611,4.2576 -2.0611,4.2577 1.5678,2.3927 1.5677,2.3927 0.9352,7.4153 0.9353,7.4154 -0.9419,0.95 -0.9419,0.95 -0.1,-4.95 -0.1,-4.95 -0.693,2.4899 -0.693,2.4899 -0.569,-0.9899 c -0.313,-0.5444 -0.8649,-2.2274 -1.2264,-3.7399 l -0.6573,-2.75 -0.981,0 -0.9809,0 0,12.893 0,12.893 1.5,0.5756 1.5,0.5756 -0.1,3.2814 c -0.055,1.8048 -0.4047,4.373 -0.7776,5.7073 l -0.6779,2.4258 -1.2224,0.4075 -1.2224,0.4075 -0.015,-5.3334 -0.015,-5.3333 -0.8455,-1.3338 -0.8456,-1.3339 -0.6391,1.6656 c -0.3516,0.9161 -0.6914,4.4414 -0.7552,7.8339 l -0.116,6.1682 -0.4573,-1.75 c -0.2516,-0.9625 -0.8209,-1.75 -1.2653,-1.75 l -0.808,0 -1.2969,4.75 -1.2969,4.75 -0.3914,-2.25 -0.3913,-2.25 -0.8851,0 -0.8852,0 -0.6586,3.511 c -0.3623,1.9311 -1.0266,3.7385 -1.4763,4.0164 l -0.8175,0.5052 -0.6941,-1.1231 -0.6941,-1.123 -0.787,1.2734 -0.787,1.2734 -3.088,0 -3.088,0 0,2.8334 0,2.8333 -5,0 -5,0 0,1.3411 0,1.341 -5.1287,2.7914 -5.1286,2.7914 0.4337,-9.071 0.4337,-9.0709 -0.7114,0.4396 c -0.3912,0.2418 -1.0207,2.6891 -1.3989,5.4385 l -0.6875,4.9989 -0.778,0 -0.7779,0 -0.5236,-13.75 -0.5237,-13.75 -2.1831,-9 c -1.2007,-4.95 -2.5601,-9.9 -3.0208,-11 l -0.8376,-2 0.4794,15.5 c 0.2636,8.525 0.6891,16.5309 0.9455,17.7909 l 0.4661,2.2909 0.8594,-0.5312 0.8595,-0.5311 -0.4366,8.7403 c -0.24,4.8071 -0.6604,10.2027 -0.934,11.9902 l -0.4975,3.25 -1.4195,0 -1.4195,0 -1.2157,-2.25 -1.2156,-2.25 -0.6526,-18 c -0.3589,-9.9 -0.7277,-16.5375 -0.8195,-14.75 l -0.1703,3.25 -0.7875,0 -0.7875,0 -1.1674,-14.6549 -1.1675,-14.655 -1.045,-1.045 -1.0451,-1.0451 -0.1183,20.45 -0.1183,20.45 -0.7497,3 -0.7497,3 0.5191,-10.25 0.519,-10.25 -1.1057,0 -1.1058,0 -0.5476,3.25 c -0.3012,1.7875 -1.0143,6.344 -1.5846,10.1256 l -1.0369,6.8755 -1.6188,3.1245 -1.6188,3.1244 -1.1704,-3.4679 -1.1703,-3.4678 -1.1412,1.9678 -1.1412,1.9679 -0.053,-3 -0.053,-3 -1.8552,2.4133 -1.8552,2.4132 -1.2377,-2.3127 -1.2378,-2.3127 0.4219,-8.8239 0.4219,-8.8239 -0.5567,0.5429 c -0.3062,0.2986 -1.075,2.4241 -1.7085,4.7234 l -1.1519,4.1804 -0.098,-5.3724 -0.098,-5.3725 -1.5,1.2449 -1.5,1.2449 -0.015,-1.8725 -0.015,-1.8724 -1.049,1.5 -1.049,1.5 0.6497,-9.6431 0.6496,-9.6431 -0.7157,-5.7283 -0.7157,-5.7284 -1.8696,-1.6008 -1.8696,-1.6008 0,-1.7187 0,-1.7188 -1,-0.618 -1,-0.618 -0.1096,26.809 -0.1096,26.809 -0.8896,-4.5 c -0.4894,-2.475 -1.2964,-12.7438 -1.7935,-22.8197 -0.497,-10.0758 -1.1308,-18.5467 -1.4084,-18.8243 l -0.5047,-0.5048 -0.7213,7.6972 -0.7213,7.6972 1.2742,13.932 1.2743,13.9319 -1.2276,1.1953 -1.2275,1.1952 0.6825,-4.6612 0.6825,-4.6612 -2.0582,-1.1015 -2.0583,-1.1015 -1.0419,1.9469 c -0.5731,1.0709 -1.052,2.7641 -1.0643,3.7628 l -0.022,1.8157 -1.9555,2.5 -1.9555,2.5 -0.015,3 c -0.01,1.65 0.8907,6.7793 1.998,11.3984 l 2.0133,8.3983 -0.539,1.6983 -0.539,1.6984 -5.4445,3.7497 -5.4445,3.7498 -0.6458,2.0346 -0.6457,2.0347 -8.4487,9.0309 c -4.6468,4.967 -10.8177,11.7705 -13.7133,15.1189 -2.8955,3.3484 -6.2446,7.5075 -7.4423,9.2424 l -2.1778,3.1543 0,2.0513 0,2.0512 2.5,3.6839 2.5,3.684 0,6.2112 0,6.2113 -1.136,3.3992 -1.1361,3.3992 -2.583,2.7833 c -1.4206,1.5309 -4.5151,3.9157 -6.8766,5.2996 -2.3615,1.384 -7.3254,3.6576 -11.031,5.0526 -3.7055,1.3949 -10.7873,3.6532 -15.7373,5.0183 l -9,2.482 -13.3835,0.579 -13.3836,0.579 0.7243,-5.7972 0.7243,-5.7972 2.4313,-7.5997 2.4313,-7.5997 6.4434,-13.0462 6.4435,-13.0462 3.8434,-3.9538 3.8434,-3.9538 4.8857,-2.9551 c 2.6872,-1.6254 7.439,-5.0801 10.5597,-7.6771 l 5.6739,-4.7219 4.0209,-6.0213 4.0208,-6.0212 1.1837,-8.8017 1.1838,-8.8017 1.8615,-6 c 1.0239,-3.3 2.6292,-10.95 3.5674,-17 l 1.7057,-11 0.04,-14 0.04,-14 -2.1931,-6.255 -2.1931,-6.2549 -3.1004,-5.0388 c -1.7053,-2.7714 -3.9012,-7.1566 -4.8798,-9.7451 l -1.7794,-4.7062 -1.1272,-7.3156 -1.1271,-7.3155 -0.9578,-20.6845 -0.9577,-20.6844 -1.5612,-6.4635 -1.5612,-6.4634 -1.3492,-1.5366 -1.3491,-1.5365 -1.1036,-5.257 -1.1036,-5.2569 -3.4123,-6.776 -3.4124,-6.7759 -5.9526,-7.96709 -5.9527,-7.9671 -7.8941,-7.3604 c -4.3418,-4.0482 -10.1441,-9.3635 -12.8941,-11.8118 -2.75,-2.4483 -7.7448,-6.2156 -11.0995,-8.37181 l -6.0994,-3.92042 -9.4306,-9.26778 -9.4306,-9.26779 -6.1943,-8.15721 c -3.4068,-4.48646 -7.3915,-9.09896 -8.8548,-10.25 l -2.6604,-2.09279 -4.435,0 -4.4349,0 -4.1857,2.87979 -4.1856,2.87979 -6.4946,10.1742 c -3.5719,5.59581 -8.5693,12.9624 -11.1051,16.37021 l -4.6107,6.19601 -16.691,17.5 -16.691,17.5 -5.9101,7.7608 c -3.2505,4.26839 -7.6613,10.79339 -9.8017,14.49999 -2.1404,3.7065 -8.0687,14.3892 -13.1741,23.7392 -5.1053,9.35 -9.8995,17.675 -10.6538,18.5 -0.7542,0.825 -3.1795,3.975 -5.3894,7 l -4.0182,5.5 -1.0132,3.75 -1.0133,3.75 -0.805,0 -0.8049,0 -6.6958,12.4653 c -3.6827,6.8558 -7.1281,12.7324 -7.6565,13.059 l -0.9607,0.5937 0,2.1266 0,2.1265 -1.9203,2.0644 -1.9203,2.0645 -7.0577,15.1166 -7.0576,15.1165 -1.5415,5.8835 -1.5416,5.8834 -1.0804,15.5 -1.0804,15.5 -0.9463,1.7707 -0.9464,1.7706 0.5405,0.8746 0.5405,0.8745 -1.4069,0.5399 -1.4069,0.5399 -5.4282,7.3149 c -2.9855,4.0232 -7.4511,9.1687 -9.9236,11.4345 -2.4725,2.2659 -5.6829,4.8978 -7.1344,5.8488 l -2.6389,1.7291 -4.8496,-1.2429 -4.8497,-1.2429 -3.4251,0.6482 -3.4252,0.6483 -2.7184,2.2459 -2.7185,2.2459 -3.5315,5.9412 -3.5316,5.9411 0,2.3756 0,2.3755 2.4146,3.1833 2.4146,3.1833 2.0854,6.2185 2.0854,6.2184 0,2.9968 0,2.9967 -3.091,3.5205 -3.0911,3.5205 -7.397,4.6103 -7.397,4.6104 -7.0723,2.4595 -7.0724,2.4595 -10.1896,0.6945 -10.1896,0.6944 -8.2042,-0.5 -8.2041,-0.5 -1.1494,-1.1535 -1.1494,-1.1536 1.1451,-5.3464 1.1451,-5.3465 6.342,-16 c 3.4881,-8.8 6.652,-17.0194 7.0308,-18.2654 l 0.6886,-2.2654 7.1778,-6.0593 c 3.9477,-3.3326 9.1228,-8.1631 11.5002,-10.7346 2.3774,-2.5714 6.3149,-7.3123 8.75,-10.5353 l 4.4275,-5.86 0,-1.783 0,-1.783 1.5093,-0.5792 c 0.8301,-0.3185 1.4126,-0.9292 1.2944,-1.357 -0.1182,-0.4278 0.5033,-2.1278 1.3812,-3.7778 0.8778,-1.65 3.2217,-8.141 5.2086,-14.4245 l 3.6125,-11.4246 1.3705,-1.5754 c 0.7539,-0.8665 1.8791,-3.1505 2.5005,-5.0755 l 1.1298,-3.5 9.3007,-10.0466 9.3006,-10.0467 3.5832,-5.9533 c 1.9708,-3.2744 7.236,-13.087 11.7005,-21.8059 l 8.1173,-15.8524 0.6159,-3.8516 0.6159,-3.8515 1.8796,-1.701 1.8795,-1.701 0,-1.786 0,-1.786 1.0224,-0.6318 c 0.5623,-0.3476 2.3061,-3.1866 3.8751,-6.309 1.569,-3.1225 4.0042,-8.8844 5.4117,-12.8042 1.4075,-3.9199 3.2677,-10.5576 4.1337,-14.7505 l 1.5747,-7.6235 1.9869,-21.7495 c 1.0927,-11.96219 1.9888,-24.30419 1.9912,-27.42669 l 0,-5.6772 -3.5325,-2.9118 c -1.9429,-1.6014 -5.5167,-3.9027 -7.9418,-5.1138 l -4.4093,-2.2021 -8.7279,2.5303 -8.7279,2.5303 -3.5803,-2.7121 c -1.9692,-1.4917 -7.3918,-6.3869 -12.0501,-10.87822 l -8.4698,-8.16607 1.2141,-8.36105 1.2141,-8.36106 1.5057,-1.11024 c 0.8285,-0.61064 1.506,-1.58564 1.506,-2.16667 0,-0.58103 -0.5625,-1.24341 -1.25,-1.47194 l -1.25,-0.41552 -0.5,-19.41781 -0.5,-19.41782 -0.7405,-1.13922 c -0.4073,-0.62657 -1.8767,-1.42437 -3.2653,-1.77288 -1.3886,-0.34852 -8.5452,-3.49441 -15.9036,-6.99088 l -13.3789,-6.35721 -9.3558,-6.01454 -9.3559,-6.01454 -11,0.87857 c -6.05,0.48322 -13.2438,1.35385 -15.9862,1.93474 l -4.9862,1.05616 -12.0138,5.37576 c -6.6076,2.95668 -14.5155,6.09563 -17.5732,6.97546 l -5.5595,1.5997 -5.4405,0.14228 c -2.9923,0.0783 -12.6406,-0.20597 -21.4406,-0.63164 l -16,-0.77393 -7.4684,1.0644 c -4.1075,0.58541 -7.656,0.87669 -7.8854,0.64729 -0.2294,-0.22941 0.3887,-1.64695 1.3736,-3.15009 0.9849,-1.50315 8.3584,-9.3334 16.3855,-17.40056 l 14.5947,-14.66757 5.75,-3.77223 c 3.1625,-2.07473 5.75,-4.11296 5.75,-4.52941 0,-0.41645 -3.9375,-2.77196 -8.75,-5.23447 l -8.75,-4.4773 -6,-0.60289 c -3.3,-0.33159 -15.3113,-0.68131 -26.6917,-0.77715 l -20.6917,-0.17427 -2.444,1.60137 -2.444,1.60137 -2.3415,4.80184 -2.3416,4.80184 -0.6691,24.5 -0.6691,24.5 -1.054,8 -1.0539,8 -0.2687,46 -0.2687,46 2.3275,7.99999 c 1.28,4.4 2.7553,10.475 3.2782,13.5 l 0.9508,5.5 -0.3093,22.5 -0.3092,22.5 -1.7885,3.2749 -1.7886,3.2749 -0.9434,5.2251 -0.9433,5.2251 -1.5474,28.5 c -0.8511,15.675 -2.0268,32.55 -2.6126,37.5 l -1.0653,9 0.082,16.1324 0.082,16.1323 2.0926,10.8435 2.0926,10.8435 -0.6121,4.0817 -0.6121,4.0817 -3.9558,4.7871 -3.9558,4.787 -1.1595,3.8701 -1.1595,3.8701 -2.681,3.2114 -2.6809,3.2114 -9.9214,0.7386 c -5.4567,0.4063 -9.9796,0.777 -10.0509,0.8239 -0.071,0.047 -2.7714,2.136 -6,4.6424 l -5.8704,4.5571 -1.2407,2.3643 -1.2407,2.3642 0.6043,3.0215 0.6043,3.0214 4.3864,5.1389 4.3864,5.1388 0,2.3808 c 0,1.3095 -0.9349,4.8798 -2.0776,7.934 l -2.0777,5.5531 -2.4639,2.9281 -2.4638,2.9281 -5.5462,2.0751 c -3.0504,1.1413 -10.1192,3.1516 -15.7085,4.4673 -5.5892,1.3158 -15.7873,3.3009 -22.6623,4.4115 -6.875,1.1105 -14.75,2.1694 -17.5,2.353 z M 414.0749,396.0894 c 0.3161,0.008 3.8824,-1.10969 7.9251,-2.48469 l 7.3503,-2.5 3.7316,0 3.7317,0 6.3432,-2.88732 6.3432,-2.88732 4.4582,-4.61268 4.4582,-4.61268 -6.9582,-0.007 -6.9582,-0.007 -3,-1.98682 -3,-1.98682 -5.5,-0.0384 -5.5,-0.0384 -1.9411,-1.46819 -1.9412,-1.4682 -3.0588,-0.0318 -3.0589,-0.0318 -1.9411,-1.46819 -1.9412,-1.4682 -5.0588,0.0439 -5.0589,0.0439 -4,1.50263 c -2.2,0.82645 -6.1559,2.09556 -8.7909,2.82024 l -4.7909,1.31759 -2.4591,2.31019 -2.4591,2.31019 0,3.2149 0,3.2149 1.75,2.08096 1.75,2.08097 7.2223,3.52982 7.2222,3.52982 5.7778,0.0153 5.7777,0.0153 1.5,0.97021 c 0.825,0.53316 1.7587,0.97627 2.0749,0.98469 z"
     id="path2987"
     inkscape:connector-curvature="0" />
</svg>
