<?xml version="1.0" encoding="UTF-8" standalone="no"?>
<!-- Created with Inkscape (http://www.inkscape.org/) -->

<svg
   xmlns:dc="http://purl.org/dc/elements/1.1/"
   xmlns:cc="http://creativecommons.org/ns#"
   xmlns:rdf="http://www.w3.org/1999/02/22-rdf-syntax-ns#"
   xmlns:svg="http://www.w3.org/2000/svg"
   xmlns="http://www.w3.org/2000/svg"
   xmlns:sodipodi="http://sodipodi.sourceforge.net/DTD/sodipodi-0.dtd"
   xmlns:inkscape="http://www.inkscape.org/namespaces/inkscape"
   id="svg2"
   version="1.1"
   inkscape:version="0.48.2 r9819"
   width="448.97354"
   height="1239.7299"
   sodipodi:docname="everydaylifeinpr00quenuoft_0199e.svg">
  <metadata
     id="metadata8">
    <rdf:RDF>
      <cc:Work
         rdf:about="">
        <dc:format>image/svg+xml</dc:format>
        <dc:type
           rdf:resource="http://purl.org/dc/dcmitype/StillImage" />
        <dc:title></dc:title>
      </cc:Work>
    </rdf:RDF>
  </metadata>
  <defs
     id="defs6" />
  <sodipodi:namedview
     pagecolor="#ffffff"
     bordercolor="#666666"
     borderopacity="1"
     objecttolerance="10"
     gridtolerance="10"
     guidetolerance="10"
     inkscape:pageopacity="0"
     inkscape:pageshadow="2"
     inkscape:window-width="1920"
     inkscape:window-height="1176"
     id="namedview4"
     showgrid="false"
     fit-margin-top="0"
     fit-margin-left="0"
     fit-margin-right="0"
     fit-margin-bottom="0"
     inkscape:zoom="0.75399361"
     inkscape:cx="231.65332"
     inkscape:cy="610.4459"
     inkscape:window-x="0"
     inkscape:window-y="24"
     inkscape:window-maximized="1"
     inkscape:current-layer="svg2" />
  <path
     style="fill:#000000"
     d="m 206.78291,1239.2889 -5.28213,0.4409 -9.5,-0.8296 c -5.225,-0.4562 -11.3,-0.9051 -13.5,-0.9975 -2.2,-0.092 -8.14373,-0.5529 -13.20828,-1.0235 l -9.20828,-0.8556 -5.09516,-1.9361 -5.09516,-1.936 -4.52895,-3.3257 c -2.49092,-1.8292 -5.95437,-4.4937 -7.69656,-5.9211 l -3.16761,-2.5953 -4.92814,-1.6547 -4.92814,-1.6547 -7.57186,-0.012 -7.57186,-0.012 -7.499999,-1.8785 c -4.125001,-1.0331 -8.693791,-2.35 -10.152861,-2.9265 -1.45908,-0.576 -2.96529,-1.5531 -3.34714,-2.171 -0.38185,-0.6179 -1.77557,-1.5345 -3.09714,-2.0369 l -2.40286,-0.9136 0,-1.6204 0,-1.6204 -1.94628,-2.7333 -1.94628,-2.7333 0.33253,-8.0355 0.33254,-8.0355 1.30153,-3.5993 1.30153,-3.5993 -1.64299,-1.8155 -1.64298,-1.8155 1.57483,-5.4707 1.57483,-5.4708 1.38037,-1.5787 c 0.7592,-0.8683 1.38037,-2.0835 1.38037,-2.7004 0,-0.6168 0.73818,-1.5346 1.6404,-2.0395 l 1.64039,-0.918 -0.70108,-1.1344 -0.70109,-1.1344 -2.0225,1.0824 -2.0225,1.0824 -1.74796,-1.5819 -1.74796,-1.5819 -0.64531,0.6453 -0.64531,0.6454 -0.69376,-1.8932 c -0.38157,-1.0412 -1.55216,-3.0181 -2.60133,-4.3931 l -1.90757,-2.5 -2.67221,-0.5105 -2.67221,-0.5106 -0.12338,-3.4894 c -0.0679,-1.9192 0.11067,-6.752 0.39673,-10.7395 l 0.52012,-7.25 2.83021,0 2.83021,0 1.69715,-2.5902 1.69716,-2.5902 2.85773,0.5716 2.85774,0.5715 1.00898,-2.6538 1.00898,-2.6538 -0.64493,-1.5775 c -0.3547,-0.8677 -1.27307,-4.5024 -2.04081,-8.0772 -0.76774,-3.5748 -1.39589,-7.6473 -1.39589,-9.05 l 0,-2.5504 -0.99481,-0.9948 -0.99481,-0.9948 -1.10245,-13.4552 -1.10244,-13.4552 -0.88608,-0.9333 -0.88608,-0.9334 -0.64651,0.6465 -0.64651,0.6466 0.10475,8.0917 0.10475,8.0917 0.62571,1.0124 0.62571,1.0124 -2.10062,0.5493 c -1.15533,0.3022 -2.10061,0.9203 -2.10061,1.3737 0,0.4534 0.45,1.1025 1,1.4424 0.55,0.3399 1,1.0415 1,1.559 l 0,0.941 -1.75,0.015 c -0.9625,0.01 -2.425,0.4584 -3.25,1 l -1.5,0.9847 1,0.75 c 0.55,0.4125 1.09837,1.65 1.21859,2.75 0.12023,1.1 -0.0165,2.6624 -0.30379,3.472 l -0.52239,1.4719 -0.89756,-1.4522 -0.89756,-1.4523 -0.68518,4.2849 -0.68519,4.2849 -1.33609,-0.5127 -1.3361,-0.5127 -1.27737,1.805 -1.27736,1.8049 -3.25,0.086 -3.25,0.086 0,-0.9331 c 0,-0.5132 -0.3375,-0.8406 -0.75,-0.7275 -0.4125,0.1131 -2.2125,-0.5735 -4,-1.5257 l -3.25,-1.7313 -0.007,-1.7243 -0.007,-1.7243 -1.98682,-3 -1.98683,-3 -0.007,-2.1733 -0.007,-2.1732 -2.48949,-2.9586 -2.48949,-2.9586 1.64131,-6.6511 1.64131,-6.651 -1.12406,-5.2171 c -0.61823,-2.8694 -1.39043,-7.3633 -1.71599,-9.9865 l -0.59194,-4.7693 -0.8753,0.541 -0.8753,0.5409 -0.0492,-1.7716 c -0.027,-0.9744 -0.43714,-4.7218 -0.91131,-8.3275 -0.47416,-3.6058 -0.74161,-7.8808 -0.59434,-9.5 0.14728,-1.6193 0.79736,-5.6441 1.44463,-8.9441 0.64728,-3.3 1.14092,-6.9974 1.09698,-8.2165 l -0.0799,-2.2165 2.08481,-3.5335 2.0848,-3.5335 -0.75376,0 -0.75377,0 1.4903,-1.75 c 0.81966,-0.9625 2.10189,-3.325 2.8494,-5.25 0.74751,-1.925 2.39662,-5.4795 3.66469,-7.8989 l 2.30564,-4.39818 0,-1.88244 0,-1.88245 1.5,-0.5756 1.5,-0.57561 0.007,-2.14301 0.007,-2.14301 1.74341,-2.59895 c 0.95888,-1.42943 4.17572,-4.57943 7.14854,-7 2.97282,-2.42058 6.34782,-5.67041 7.5,-7.22186 l 2.09487,-2.8208 0.20208,-7.6792 0.20209,-7.67919 1.47766,-6.99737 1.47766,-6.99738 2.00763,-1.33301 2.00762,-1.33302 5.38594,-0.25139 c 2.96226,-0.13826 5.86428,-0.54702 6.44893,-0.90836 l 1.06299,-0.65696 1.33202,-4.51126 C 87.83717,911.03006 88.71711,909 89.05998,909 c 0.34286,0 1.11054,-1.6875 1.70594,-3.75 0.59539,-2.0625 1.82966,-8.23815 2.7428,-13.72366 0.91314,-5.48551 2.088061,-10.77301 2.610931,-11.75 L 97.070321,878 l -1.14218,0 -1.14217,0 0.61319,-1.59794 c 0.33725,-0.87887 0.88735,-3.91637 1.22243,-6.75 l 0.60924,-5.15206 1.05589,-1.3089 1.05589,-1.30891 1.274999,-8.62343 1.27499,-8.62343 -0.54747,-0.88584 -0.54748,-0.88584 -1.365769,0.5241 -1.36578,0.5241 -5.283071,-1.54672 c -2.9057,-0.85069 -5.66386,-1.90914 -6.12926,-2.3521 l -0.84619,-0.80539 1.80825,-3.85382 c 0.99453,-2.1196 2.38822,-4.44887 3.09708,-5.17615 l 1.28884,-1.32233 -0.58179,-2.67767 -0.58178,-2.67767 0.93319,1.32004 0.93319,1.32005 0.78933,-8.32005 c 0.43413,-4.57602 0.89137,-10.57004 1.0161,-13.32004 0.12472,-2.75 0.550861,-5.76595 0.946981,-6.70211 l 0.72021,-1.70212 -0.64763,-1.04788 -0.64763,-1.04789 -5.940991,0 -5.94098,0 0,-1.5 0,-1.5 -0.87803,0 c -0.48291,0 -1.55438,1.0125 -2.38104,2.25 l -1.50301,2.25 -1.9477,-1.75 -1.9477,-1.75 -1.68426,0 -1.68426,0 -2.1714,-4.46941 -2.1714,-4.4694 -1.11764,0.92755 -1.11763,0.92756 -2.17333,-0.56834 -2.17332,-0.56833 -0.62296,-3.3207 -0.62297,-3.3207 -1.15168,0.43141 -1.15167,0.4314 -2.25,-3.3124 c -1.2375,-1.82182 -2.25,-3.93059 -2.25,-4.68616 l 0,-1.37377 -4.0667,-4.82286 -4.06671,-4.82287 -0.20434,-7.4292 -0.20434,-7.4292 -0.86586,-0.81229 -0.86586,-0.81229 -0.44643,1.25 -0.44643,1.25 -1.41666,0 -1.41667,0 -0.0441,-2.75 c -0.0243,-1.5125 -0.60826,-4.88851 -1.29776,-7.50225 l -1.25362,-4.75224 -0.95224,0.92945 -0.95225,0.92944 -6,-3.48853 c -3.3,-1.91869 -6.78449,-4.40707 -7.74332,-5.52973 l -1.74331,-2.0412 0.60172,-2.39747 L 19.2168,716 l -2.07361,0 -2.07362,0 -3.53479,-3.10359 -3.5348001,-3.10359 0,-1.40731 c 0,-0.77402 -0.85658,-3.3149 -1.9035,-5.64641 C 5.0495599,700.4076 3.90493,696.7 3.55286,694.5 3.2008,692.3 2.27164,686.225 1.48807,681 L 0.0634,671.5 0.0317,662.11372 0,652.72744 1.91993,640.11372 C 2.97589,633.17617 4.3359,623.675 4.9421699,619 c 0.60626,-4.675 1.75146,-12.775 2.54487,-18 l 1.44257,-9.5 0.0352,-6.5609 0.0352,-6.5609 1.9538101,-14.04611 1.9538,-14.0461 -0.48655,-7.393 c -0.2676,-4.06614 -1.22323,-10.89278 -2.12362,-15.1703 l -1.6370701,-7.7773 1.18462,-22.7227 L 11.02962,474.5 l -0.24497,-10 -0.24497,-10 0.79262,-4 c 0.43593,-2.2 1.96834,-8.5 3.40535,-14 l 2.61275,-10 1.66723,-2 c 0.91697,-1.1 2.78808,-4.025 4.15802,-6.5 1.36994,-2.475 3.51854,-6.3 4.77466,-8.5 1.25613,-2.2 3.06556,-5.125 4.02096,-6.5 0.95539,-1.375 2.06015,-3.85 2.45501,-5.5 l 0.71792,-3 5.73394,-9 c 3.15366,-4.95 6.59424,-11.025 7.64572,-13.5 l 1.91178,-4.5 3.78218,-4.56436 c 2.08021,-2.51039 3.7822,-5.04089 3.7822,-5.62333 0,-0.58244 3.18558,-5.17518 7.07907,-10.2061 l 7.07907,-9.14713 3.59863,-2.72954 c 1.97925,-1.50125 5.88117,-4.77439 8.67093,-7.27365 2.78976,-2.49926 8.8973,-7.27037 13.572301,-10.60247 4.674999,-3.3321 10.299999,-7.24935 12.499999,-8.70499 2.2,-1.45565 6.25,-4.27308 9,-6.26096 l 5,-3.61433 8.60342,0.6383 8.60341,0.63829 1.64659,-0.63185 1.64658,-0.63186 0,-1.83399 0,-1.834 1,-0.61803 1,-0.61803 0,-2.24557 0,-2.24557 3.38487,-3.69541 3.38487,-3.69542 3.11513,0 3.11513,0 0,-1.9349 c 0,-1.0642 -0.43886,-3.0892 -0.97525,-4.5 L 158.04952,273 l -2.0495,0 -2.0495,0 -1.06214,-2.75 -1.06214,-2.75 0.59201,-4.42692 0.59201,-4.42691 1.64987,-1.82309 C 155.56755,255.82039 156.88311,255 157.58358,255 c 0.70047,0 1.98073,-0.70714 2.84501,-1.57143 l 1.57143,-1.57143 0,-3.49431 0,-3.49431 1.03518,-1.93426 1.03519,-1.93426 1.46481,0 1.46482,0 0,-0.97976 c 0,-0.53887 -0.72469,-2.79095 -1.61043,-5.00462 l -1.61042,-4.02485 0.65022,-3.46595 0.65021,-3.46595 2.67925,-3.1841 2.67925,-3.18411 0.33914,-3.59533 c 0.18652,-1.97743 0.42019,-4.94533 0.51926,-6.59533 0.0991,-1.65 0.4323,-3.225 0.74051,-3.5 0.30821,-0.275 1.1177,-2.40804 1.79887,-4.74009 l 1.23848,-4.24008 4.28355,-4.25992 c 2.35595,-2.34295 5.09054,-5.60991 6.07688,-7.25991 l 1.79334,-3 5.1213,-3.75 5.12129,-3.75 1.56465,0 c 0.86056,0 2.03372,0.46907 2.60703,1.04238 l 1.04238,1.04238 1.28007,-1.54238 1.28006,-1.54238 2.31854,0 2.31854,0 0.54974,-0.88951 0.54975,-0.88951 3.25927,-0.49443 c 1.7926,-0.27194 6.14728,-1.28119 9.67706,-2.24278 l 6.4178,-1.74834 2.5822,3.12026 2.58221,3.12025 4.5,-0.0652 c 2.475,-0.0359 7.23906,0.18684 10.58681,0.49487 l 6.0868,0.56004 3.62713,1.51551 3.62713,1.51551 1.07607,2.01066 1.07607,2.01066 2.46,-0.61742 2.45999,-0.61742 0,1.10841 0,1.10841 1.43305,0 1.43305,0 3.75556,4.58316 3.75556,4.58317 -1.18861,1.90327 c -0.65374,1.04682 -1.18861,2.5844 -1.18861,3.41686 l 0,1.51357 1.25,0.0153 1.25,0.0153 -1.33121,0.84389 -1.33121,0.84389 4.18619,0.6694 c 2.30239,0.36817 5.48894,1.34308 7.0812,2.16647 l 2.89503,1.49708 0,3.4153 0,3.41531 1.01631,0.62811 1.01631,0.62812 -0.48443,0.78382 -0.48443,0.78383 1.02824,6.38476 1.02823,6.38476 1.43989,1.59106 1.43988,1.59105 0,2.47126 0,2.47126 -1.13906,1.13906 -1.13905,1.13905 -1.82768,-2.18905 -1.82767,-2.18906 -0.0333,1.26357 c -0.0183,0.69496 0.3992,2.04496 0.92778,3 0.52858,0.95504 2.13602,4.32343 3.5721,7.48532 l 2.61104,5.74889 -0.65619,5.25199 c -0.36091,2.8886 -0.74174,8.4016 -0.8463,12.25111 l -0.1901,6.99912 -2.2258,0.31955 -2.2258,0.31955 0,1.34712 0,1.34711 1.25,0.50721 1.25,0.5072 -1.49997,1.15229 -1.5,1.15226 1.25,0.5072 1.25,0.50721 0,3.50319 0,3.50318 -3.13797,4.36955 -3.13797,4.36955 0.68792,3.79393 c 0.37835,2.08666 0.7771,5.36893 0.88609,7.29393 l 0.19818,3.5 -1.84843,6.05837 -1.84843,6.05837 -4.45522,2.81858 c -2.45036,1.55022 -5.10594,3.46931 -5.90128,4.26465 l -1.44607,1.44607 -1.74841,-0.35927 -1.74841,-0.35927 0.29384,-1.71375 0.29383,-1.71375 -1.92882,0 -1.92883,0 -1.6331,2.49243 -1.63311,2.49243 -0.62666,4.75757 -0.62667,4.75757 -5.06708,4.58862 -5.06708,4.58863 3.16296,3.99357 3.16297,3.99357 5.90008,11.45194 c 3.24505,6.29857 6.39173,13.01158 6.99263,14.9178 0.60089,1.90623 1.5852,5.37837 2.18733,7.71587 l 1.0948,4.25 1.0671,0 c 0.5869,0 2.28588,-1.0125 3.7755,-2.25 1.48962,-1.2375 3.97364,-3.15 5.52005,-4.25 1.54641,-1.1 4.05755,-3.0125 5.58031,-4.25 1.52276,-1.2375 3.06002,-2.25 3.41612,-2.25 0.3561,0 1.53624,-0.82802 2.62252,-1.84005 1.08629,-1.01203 3.20497,-2.45246 4.70819,-3.20094 1.50322,-0.74849 4.63171,-2.73297 6.9522,-4.40995 l 4.21908,-3.04906 0.0309,-1.76987 0.0309,-1.76987 2.53234,-4.01148 c 1.39278,-2.20632 4.55665,-6.67328 7.03081,-9.92659 l 4.49847,-5.91511 2.55394,-5.57853 2.55394,-5.57853 3.28402,-2.62038 3.28402,-2.62039 4.88123,-1.85381 c 2.6847,-1.0196 5.712,-1.85418 6.7273,-1.85463 1.0154,-4.4e-4 4.2704,-0.70556 7.2333,-1.56692 l 5.3873,-1.56611 -0.06,-2.18389 c -0.033,-1.20114 0.4136,-3.98389 0.9928,-6.18389 0.5792,-2.2 1.0637,-5.97539 1.0769,-8.38976 l 0.024,-4.38975 -1.5575,-1.13887 -1.5575,-1.13886 0.9251,-5.97138 0.9252,-5.97138 -0.4873,-6.5 -0.4873,-6.5 -1.8933,-1.80102 -1.8933,-1.80101 -0.8451,0.52227 -0.845,0.52228 -1.8694,-3.47126 -1.8694,-3.47126 -0.9004,0 -0.9005,0 0.6565,-4.10497 c 0.361,-2.25774 1.3848,-5.52024 2.2751,-7.25 0.8903,-1.72977 2.4081,-4.04503 3.373,-5.14503 0.9648,-1.1 3.5347,-4.025 5.7107,-6.5 2.1761,-2.475 4.5434,-5.625 5.2607,-7 0.7174,-1.375 2.6723,-4.20706 4.3443,-6.29347 l 3.04,-3.79346 3.3255,-2.05531 3.3256,-2.0553 1.4721,-3.52336 c 0.8097,-1.93784 1.4722,-4.65368 1.4722,-6.0352 0,-1.38153 0.4339,-4.13907 0.9643,-6.12788 0.5303,-1.98881 1.902,-8.44502 3.0481,-14.34713 1.1462,-5.90211 1.9834,-11.30211 1.8606,-12 -0.1229,-0.69789 0.2772,-3.06889 0.8891,-5.26889 0.6118,-2.2 1.2189,-6.025 1.3489,-8.5 l 0.2365,-4.5 1.4284,-1.69162 1.4284,-1.69161 0.1478,-2.55768 c 0.081,-1.40672 0.4431,-2.558 0.804,-2.55838 l 0.6562,-7.1e-4 0.7058,-5.25 c 0.3882,-2.8875 1.0521,-5.7 1.4753,-6.25 0.4233,-0.55 1.0049,-2.575 1.2925,-4.5 0.2876,-1.925 1.1661,-7.13436 1.9522,-11.57635 0.786,-4.442 1.7498,-8.59504 2.1416,-9.22899 0.3918,-0.63395 1.3107,-4.29296 2.042,-8.13113 l 1.3297,-6.97849 -1.8881,-1.70873 -1.8881,-1.708718 0.5982,-5.08379 c 0.329,-2.79609 1.2945,-7.3338 2.1455,-10.083802 0.8511,-2.75 1.8143,-5.45 2.1406,-6 0.3263,-0.55 0.6765,-2.35 0.7781,-4 0.1016,-1.65 0.6891,-5.475 1.3054,-8.5 l 1.1207,-5.5 -0.5937,-5.168702 -0.5936,-5.168703 2.0526,-4.023451 2.0526,-4.023451 -0.5316,-1.385398 -0.5317,-1.385398 1.039,-2.732623 1.0389,-2.732623 0.8997,0.55604 0.8997,0.556039 -0.1478,-3.996305 -0.1478,-3.996306 1.2243,4.41e-4 1.2243,4.4e-4 1.5257,-2.95034 c 0.8391,-1.622687 1.5257,-3.671034 1.5257,-4.551882 0,-0.880848 0.8627,-3.265695 1.9171,-5.29966 1.0545,-2.033965 2.4064,-4.960993 3.0043,-6.504506 l 1.0871,-2.806388 1.0255,0.633819 1.0256,0.63382 3.505,-3.077431 C 440.49265,1.384845 442.47495,0 442.97005,0 c 0.495,0 2.0483,0.436569 3.4518,0.970154 l 2.5517,0.970153 -0.8376,2.279846 -0.8375,2.279847 0.3812,11 c 0.2096,6.05 0.3618,11.45 0.3383,12 -0.024,0.55 -0.4157,6.342084 -0.8713,12.871298 l -0.8284,11.871298 -1.659,0.928392 c -0.9124,0.510616 -1.6589,1.403775 -1.6589,1.984798 0,0.581023 -1.4528,2.890628 -3.2283,5.132457 l -3.2283,4.076051 0.1029,3.923965 0.1029,3.923966 -0.7552,-1.221806 -0.7551,-1.221806 -0.057,4.137468 -0.057,4.137469 -1.5624,3.131863 -1.5623,3.131859 0,5.78735 0,5.78735 -1.0682,0.66016 -1.0682,0.66017 0.5245,1.366828 0.5245,1.36682 -0.8409,0.51973 -0.841,0.51973 -0.8054,4.76229 c -0.443,2.61927 -0.9441,5.4373 -1.1137,6.2623 -0.1695,0.825 -0.7162,3.75 -1.2148,6.5 -0.4987,2.75 -1.2103,6.8 -1.5815,9 -0.3711,2.2 -1.0458,4.9 -1.4993,6 -0.4535,1.1 -1.3623,6.05 -2.0197,11 -0.6574,4.95 -1.6315,10.35 -2.1647,12 -0.5332,1.65 -1.4127,5.25 -1.9544,8 -0.5417,2.75 -1.0987,6.125 -1.2377,7.5 -0.1391,1.375 -1.0292,4.20731 -1.978,6.29402 l -1.7252,3.79402 0.5061,0.81875 0.506,0.81875 -1.0462,6.38723 c -0.5754,3.51298 -1.5092,7.73723 -2.0751,9.38723 -0.5659,1.65 -1.3774,3.9 -1.8033,5 -0.4259,1.1 -1.4641,4.475 -2.3071,7.5 l -1.5327,5.5 -0.6726,8.38599 -0.6726,8.386 3.263,6.42858 3.2629,6.42859 2.8704,2.41526 c 1.5787,1.32839 3.5911,2.81858 4.472,3.31154 l 1.6015,0.89627 -0.143,7.52289 -0.143,7.52288 1.033,4.851 c 0.5681,2.66805 1.0727,5.526 1.1214,6.351 0.049,0.825 0.6715,4.64273 1.3841,8.48383 l 1.2956,6.98384 -0.8749,1.05422 -0.8749,1.05421 0.055,16.13489 0.055,16.13488 -2.2793,4.56384 -2.2793,4.56384 -1.8304,0.58095 -1.8304,0.58095 -1.0342,1.93227 -1.0341,1.93228 -1.3832,0 -1.3833,0 -2.2891,3.75 c -1.259,2.0625 -4.1613,5.775 -6.4495,8.25 -2.2883,2.475 -5.6165,6.1875 -7.3961,8.25 l -3.2356,3.75 1.1626,0 1.1626,0 -0.809,1.25 -0.809,1.25 0,7.73989 0,7.73989 -2.7755,2.57418 -2.7754,2.57417 -1.9746,0.14874 -1.9745,0.14874 0,1.17879 0,1.17878 -2.5409,0.63773 -2.5409,0.63772 0.5999,0.97069 0.5999,0.97068 -1.9916,0 -1.9916,0 -0.5079,1.75 c -0.2793,0.9625 -1.0466,3.775 -1.705,6.25 -0.6584,2.475 -1.3312,5.625 -1.4951,7 -0.1639,1.375 -0.562,3.625 -0.8847,5 -0.3227,1.375 -0.828,4.525 -1.1228,7 -0.2949,2.475 -0.9687,6.3 -1.4974,8.5 -0.5287,2.2 -1.1305,5.8 -1.3374,8 -0.2069,2.2 -0.6972,6.025 -1.0896,8.5 -0.3924,2.475 -1.0997,4.97855 -1.5718,5.56344 l -0.8583,1.06343 0.5056,2.78831 0.5056,2.7883 -0.9485,1.14826 c -0.5217,0.63154 -1.2648,2.84073 -1.6514,4.90931 l -0.7028,3.76104 -0.8867,0.54797 -0.8866,0.54797 0,4.88197 0,4.88197 -1.0942,0.67623 -1.0942,0.67623 0.4729,2.4739 0.473,2.47389 -0.8279,2.65889 c -0.4553,1.46239 -1.5578,5.63045 -2.4501,9.26235 -0.8923,3.63191 -1.8057,8.13191 -2.0299,10 -0.2242,1.8681 -0.9234,5.87154 -1.5537,8.89654 -0.6303,3.025 -1.3862,6.175 -1.6798,7 -0.29348,0.825 -0.46221,1.8375 -0.37489,2.25 0.0873,0.4125 -0.24476,0.75 -0.73795,0.75 l -0.89671,0 -1.0597,8.25 c -0.58283,4.5375 -1.33462,11.625 -1.67063,15.75 -0.33602,4.125 -1.00726,9.3 -1.49165,11.5 -0.4844,2.2 -1.59942,8.05 -2.47784,13 -0.87843,4.95 -2.10235,11.25 -2.71983,14 -0.61749,2.75 -1.25753,6.125 -1.42233,7.5 -0.1648,1.375 -1.23438,7.9 -2.37686,14.5 -1.14247,6.6 -2.50709,14.3625 -3.03248,17.25 -0.52539,2.8875 -1.42937,7.8375 -2.00885,11 -0.57947,3.1625 -1.21808,7.39909 -1.41914,9.41465 -0.20105,2.01556 -0.80721,4.49056 -1.34702,5.5 l -0.98146,1.83535 6e-4,3.64725 c 3.4e-4,2.00598 -0.3073,4.61739 -0.68364,5.80312 -0.37633,1.18573 -1.94923,10.34447 -3.49532,20.35275 -1.54609,10.00828 -3.15965,19.0582 -3.58569,20.11092 l -0.77462,1.91405 0.96633,-0.59722 0.96633,-0.59723 0.0805,3.68318 c 0.0443,2.02575 0.61948,7.05818 1.27821,11.18318 0.65872,4.125 1.57117,9.975 2.02767,13 0.45649,3.025 1.12286,8.2 1.48082,11.5 0.35796,3.3 1.3096,9.6 2.11474,14 0.80514,4.4 1.39262,9.125 1.30551,10.5 -0.0871,1.375 0.60557,6.43294 1.53929,11.23987 l 1.69769,8.73987 -2.77523,3.63852 -2.77523,3.63852 -4.08378,1.75051 -4.08379,1.75052 -3.70253,3.49194 -3.70254,3.49194 1.40372,3.37916 1.40373,3.37915 1.19731,7.9457 1.19731,7.94569 -0.0302,9.05431 -0.0302,9.0543 -0.9715,3.15736 -0.97149,3.15736 2.93043,8.72051 2.93042,8.72052 -0.63803,2.12213 c -0.35092,1.16716 -1.30886,3.69712 -2.12876,5.62212 -0.8199,1.925 -1.86333,4.4 -2.31873,5.5 -0.4554,1.1 -1.01895,5.18586 -1.25233,9.0797 l -0.42434,7.07969 -3.28017,9.65583 -3.28016,9.65582 1.2569,1.51448 1.25691,1.51448 2.90894,0 2.90894,0 0.645,1.75 c 0.35475,0.9625 1.62408,3.1 2.82073,4.75 1.19666,1.65 2.40228,3.675 2.67917,4.5 l 0.50343,1.5 -0.88248,8.5 c -0.48537,4.675 -1.20787,11.2 -1.60555,14.5 l -0.72307,6 -2.59022,0 -2.59022,0 -1.53303,1.26725 -1.53303,1.26726 -1.4176,-0.54399 -1.4176,-0.54398 -1.15678,-3.06466 -1.15678,-3.06465 -0.85327,0.52735 -0.85328,0.52736 -0.23487,19.31406 -0.23488,19.314 -0.91209,3 c -0.50165,1.65 -2.0765,10.425 -3.49967,19.5 -1.42316,9.075 -3.24662,19.2925 -4.05213,22.7055 -0.8055,3.413 -1.46455,7.5755 -1.46455,9.25 0,1.6745 0.17334,3.0445 0.38519,3.0445 0.21185,0 1.73963,-0.5695 3.39505,-1.2656 l 3.00987,-1.2655 4.60494,0.3662 4.60495,0.3663 0,1.8319 0,1.8319 -2,0.6348 -2,0.6348 0,1.9326 0,1.9326 1.5,0 1.5,0 0,1.1855 c 0,0.6521 -0.97677,2.2253 -2.17061,3.4961 l -2.17061,2.3105 0.64644,0.6465 0.64645,0.6464 1.52416,-1.2649 1.52417,-1.265 1.57801,1.3096 c 0.8679,0.7203 2.68403,3.4923 4.03584,6.16 l 2.45784,4.8503 -0.59486,0.9625 -0.59486,0.9625 -1.94099,0 -1.94098,0 0,1 0,1 2.09563,0 2.09563,0 2.90437,2.0681 2.90437,2.0681 0,1.9319 0,1.9319 -1.33333,0 -1.33334,0 -3.41666,3.4119 -3.41667,3.4118 -3,0.3382 -3,0.3381 -0.30249,2.6057 -0.3025,2.6056 3.69152,2.8944 c 2.03033,1.5918 6.13229,5.3693 9.11545,8.3943 2.98317,3.025 5.84561,5.5 6.36098,5.5 0.51537,0 0.9892,0.45 1.05295,1 0.0638,0.55 1.4831,2.575 3.15411,4.5 1.67101,1.925 3.98135,4.0466 5.13409,4.7146 l 2.09589,1.2145 2.6125,0.035 2.61249,0.035 3.88751,3.0904 c 2.13812,1.6996 5.4625,3.7503 7.38749,4.557 l 3.5,1.4667 4,-0.1905 4,-0.1904 4.5,1.9391 c 2.475,1.0666 6.4828,2.5718 8.9062,3.3451 l 4.4063,1.4058 2.8437,4.4842 c 1.5641,2.4663 2.8438,4.9948 2.8438,5.6189 0,0.6241 -1.0132,3.1235 -2.2515,5.5542 -1.2383,2.4307 -2.9258,5.3609 -3.75,6.5114 l -1.4985,2.092 -4.5,2.6279 c -2.475,1.4453 -6.0281,3.3209 -7.8959,4.168 l -3.3959,1.5401 -9.6041,-0.5753 c -5.28224,-0.3164 -11.85409,-1.0548 -14.60409,-1.6409 -2.75,-0.5861 -5.45,-1.3958 -6,-1.7994 l -1,-0.7337 -9.5,-0.6423 c -5.225,-0.3532 -11.12148,-1.092 -13.10329,-1.6417 l -3.60328,-0.9996 -3.39672,-3.2756 -3.39671,-3.2756 -4,-1.9177 -4,-1.9177 -5.5,-0.2851 c -3.025,-0.1568 -9.1144,-0.569 -13.532,-0.9161 l -8.032,-0.6309 -10.21839,1.1116 -10.21839,1.1117 -5.24961,-1.9953 c -2.88729,-1.0974 -5.81211,-1.9955 -6.49961,-1.9958 l -1.25004,4e-4 0,6.6843 0,6.6843 -2.05165,4.2381 -2.05165,4.2381 -5.69835,-0.5586 c -3.13409,-0.3072 -6.48585,-0.9631 -7.44835,-1.4576 l -1.75,-0.899 0,-2.4648 0,-2.4648 -1.18856,0 -1.18856,0 2.18856,-2.039 2.18856,-2.0389 0,-2.396 c 0,-1.3177 0.46174,-3.6104 1.02609,-5.0947 0.56435,-1.4844 1.19919,-5.1485 1.41074,-8.1425 0.21156,-2.9941 0.64982,-5.7089 0.97391,-6.033 0.32409,-0.3241 0.58926,-2.0599 0.58926,-3.8575 0,-1.7975 0.42251,-4.3795 0.93891,-5.7377 0.5164,-1.3583 2.50714,-11.625 4.42387,-22.8151 1.91673,-11.1901 3.96795,-23.5746 4.55827,-27.5212 l 1.07331,-7.1755 -0.66712,-1.7385 -0.66712,-1.7385 1.04819,0.6478 1.04818,0.6478 0.62176,-3.1087 c 0.34196,-1.7099 0.62175,-4.6337 0.62175,-6.4974 l 0,-3.3885 0.92064,-1.7365 c 0.50636,-0.955 1.47937,-5.6771 2.16226,-10.4936 l 1.24161,-8.7572 -1.1637,-10.7428 -1.1637,-10.7428 -0.0131,-14 -0.0131,-14 -1.55761,-4.4737 -1.55761,-4.4738 0.31438,-9.33924 0.31438,-9.33925 -2.09724,-1.68701 c -1.15348,-0.92785 -2.37685,-2.48363 -2.71861,-3.45728 l -0.62137,-1.77028 -3.02361,-0.60472 -3.02362,-0.60472 0,-1.89975 0,-1.89975 -2.5,-0.9505 -2.5,-0.9505 0,-5.38989 0,-5.38989 1.89997,-2.41542 c 1.04498,-1.32847 2.04624,-3.30166 2.22504,-4.38486 l 0.32507,-1.96944 -0.78959,-1.25895 -0.78959,-1.25895 0.63542,-2.00202 0.63542,-2.00201 2.843,-1.47018 2.843,-1.47017 5.63336,-0.66209 5.63336,-0.6621 2.38813,-1.8785 2.38813,-1.8785 1.46185,-5.22826 c 0.80402,-2.87555 1.78694,-7.02827 2.18426,-9.22827 0.39732,-2.2 0.65485,-6.43225 0.57229,-9.40501 -0.0826,-2.97275 -0.59981,-7.41158 -1.14942,-9.86408 l -0.9993,-4.45907 -0.0438,-12.8849 -0.0438,-12.8849 -3.50237,-6.75102 c -1.92631,-3.71306 -3.93328,-7.1936 -4.45994,-7.73452 l -0.95757,-0.98351 -5.56428,-0.22521 -5.56429,-0.22521 -1.35841,-1.12737 -1.3584,-1.12738 -0.92894,0.57411 -0.92893,0.57412 -3.13598,-1.09321 -3.13598,-1.09321 -1.08288,-2.02338 -1.08288,-2.02338 -6.37081,0.51139 -6.37081,0.51139 -1.14765,-1.38283 C 189.27167,838.62227 188.39762,838 187.96054,838 l -0.79469,0 -1.10559,5.25 c -0.60808,2.8875 -2.29479,8.85 -3.74825,13.25 -1.45346,4.4 -2.6112,8.225 -2.57276,8.5 0.0384,0.275 -0.27631,0.725 -0.69944,1 -0.42314,0.275 -2.26446,3.16074 -4.09183,6.41276 l -3.32249,5.91276 -1.23305,6.56158 -1.23306,6.56158 0.47939,0.77566 0.47938,0.77566 -0.8906,0 c -0.48983,0 -2.25932,2.1375 -3.9322,4.75 -1.67288,2.6125 -3.98089,6.775 -5.12891,9.25 -1.14802,2.475 -3.23296,6.3 -4.6332,8.5 -1.40024,2.2 -3.24693,5.51724 -4.10375,7.37165 -0.85683,1.8544 -2.68063,5.15021 -4.0529,7.32403 l -2.49503,3.95238 0.30928,2.67597 0.30928,2.67597 2.51592,0.29384 2.51593,0.29383 2.86854,5.47884 2.86854,5.47884 -1.69961,1.87805 -1.69961,1.87805 1.06515,0.65829 1.06514,0.65829 0,1.80763 c 0,0.9942 -0.94668,4.08561 -2.10374,6.86979 l -2.10374,5.06216 -1.17628,-0.45138 -1.17629,-0.45138 -0.21617,2.6119 c -0.11889,1.43655 -0.46943,3.02171 -0.77899,3.52258 L 146.88209,976 l -2.2401,0 -2.24009,0 -1.20089,3.321 -1.20089,3.321 -0.0108,4.929 -0.0108,4.929 -1.39441,4.5941 -1.39442,4.594 -1.70108,13.906 c -0.9356,7.6482 -1.83581,15.7059 -2.00048,17.9059 -0.16467,2.2 -0.79944,8.725 -1.41062,14.5 -0.61117,5.775 -1.32676,11.0945 -1.59021,11.8212 -0.26344,0.7266 -1.15582,6.7882 -1.98306,13.4701 l -1.50407,12.149 0.002,9.0298 0.002,9.0299 1.74844,3.5 1.74845,3.5 2.37927,0.3365 2.37926,0.3365 4.41134,-1.6847 4.41135,-1.6847 2.55504,0.6412 2.55505,0.6413 1.39161,-1.1549 1.39161,-1.155 1.62619,0.6241 1.62619,0.624 -0.51984,1.9879 -0.51983,1.9878 2.01202,0 2.01203,0 2.97108,2.5 2.97108,2.5 1.42328,0 1.42327,0 0,1.3148 0,1.3148 -3.53393,1.6852 -3.53392,1.6852 -2.76608,0 -2.76607,0 -1.0732,-1.0732 -1.0732,-1.0732 -2.1268,3.4412 -2.1268,3.4413 0,3.5095 0,3.5095 -1.5333,1.2725 -1.53331,1.2726 0.35744,1.0723 0.35745,1.0723 2.35162,0.5552 2.35162,0.5551 2.09336,3.7393 c 1.15134,2.0566 3.25325,4.9692 4.6709,6.4724 1.41765,1.5033 4.85144,6.1082 7.63065,10.2332 l 5.05311,7.5 3.85023,3.4534 3.85023,3.4534 1.5,-0.2984 1.5,-0.2985 -0.67752,0.6892 -0.67752,0.6893 3.18081,2.6558 c 1.74945,1.4607 4.07933,3.2287 5.17752,3.9288 1.09819,0.7002 3.45921,2.2071 5.24671,3.3488 1.7875,1.1417 3.25,2.4672 3.25,2.9456 l 0,0.8698 1.5,-0.5756 1.5,-0.5756 0,1.107 0,1.107 2.04966,0 c 1.12731,0 3.26481,0.6277 4.75,1.3949 l 2.70034,1.3949 7.96713,1.2064 7.96714,1.2065 4.16254,2.8639 4.16255,2.8639 0.62032,1.6165 c 0.34118,0.8891 0.62032,3.3798 0.62032,5.5348 l 0,3.9182 0.75,0 0.75,-10e-5 -0.0242,4.513 -0.0242,4.513 -2.51723,2.2371 c -1.38447,1.2303 -3.84858,3.2537 -5.47579,4.4963 -1.62721,1.2426 -4.75856,3.4811 -6.95856,4.9744 -2.2,1.4933 -4.99804,3.2549 -6.21787,3.9147 l -2.21788,1.1997 -5.28212,0.4408 z m 95.61292,-587.37223 c 0.21728,-0.22917 1.35895,-4.24167 2.53704,-8.91667 1.1781,-4.675 2.52627,-9.85 2.99595,-11.5 0.46968,-1.65 1.56534,-6.15 2.4348,-10 0.86946,-3.85 2.03479,-9.925 2.58962,-13.5 0.55483,-3.575 1.67879,-13.025 2.49769,-21 0.81889,-7.975 2.21158,-18.1 3.09485,-22.5 0.88328,-4.4 2.08419,-9.65773 2.66871,-11.68385 l 1.06275,-3.68386 -0.62317,-3.11585 -0.62317,-3.11586 0.87826,0.5428 0.87827,0.5428 0.65314,-2.60232 c 0.35923,-1.43128 0.83508,-5.93529 1.05744,-10.00892 0.22236,-4.07362 0.67801,-7.84947 1.01255,-8.39076 L 326.11881,522 l -0.61803,-1 -0.61803,-1 0.93361,0 0.93362,0 2.07976,-6.75 c 1.14388,-3.7125 2.37589,-8.775 2.73782,-11.25 0.36193,-2.475 1.50056,-7.875 2.53029,-12 1.02972,-4.125 1.88445,-9.075 1.89938,-11 l 0.0272,-3.5 2.08312,-8 c 1.14571,-4.4 2.31728,-9.24301 2.60349,-10.76224 0.2862,-1.51923 0.91849,-3.00829 1.40508,-3.30902 l 0.8847,-0.54677 0,-2.42664 c 0,-1.33464 0.4967,-4.57059 1.10377,-7.19098 0.60707,-2.62039 1.7225,-7.21142 2.47872,-10.20229 l 1.375,-5.43793 -0.5763,-0.56207 -0.5763,-0.56206 -2.90244,3.46223 c -1.59639,1.90422 -2.90249,3.99914 -2.90249,4.65538 0,0.65624 -1.575,3.07832 -3.5,5.38239 l -3.5,4.18923 0,1.70838 0,1.70838 -3.20062,4.35217 c -1.76034,2.3937 -4.12284,5.31722 -5.25,6.49672 -1.12716,1.1795 -2.94938,3.315 -4.04938,4.74556 -1.1,1.43055 -4.93594,5.68318 -8.52431,9.45028 -3.58838,3.76711 -8.34184,8.42428 -10.56326,10.34928 -2.22141,1.925 -5.69797,4.84748 -7.72568,6.4944 l -3.68675,2.99439 0.012,2.00561 0.012,2.0056 2.60405,4.5 c 1.43223,2.475 3.84666,6.75 5.3654,9.5 1.51873,2.75 3.44821,6.35 4.28773,8 0.83952,1.65 2.0549,5.25 2.70084,8 0.64595,2.75 1.32359,6.575 1.50588,8.5 0.18229,1.925 1.042,7.39527 1.91047,12.15615 l 1.57905,8.65615 -1.55676,4.34385 -1.55675,4.34385 0.63846,6.16467 0.63845,6.16468 2.39762,7.08674 2.39761,7.08674 -0.57506,1.49859 -0.57506,1.49858 -1.52385,0 -1.52385,0 0.56797,3.5 0.56797,3.5 -0.93713,0 -0.93713,0 0,5.53138 0,5.53139 -1.56637,0.60107 -1.56636,0.60107 0.26429,5.61755 0.26428,5.61754 -2.19792,0.31955 -2.19792,0.31955 0,-2.16182 0,-2.16182 -2.0156,-2.56242 -2.0156,-2.56242 0.5385,11.40469 c 0.29617,6.27258 0.79235,13.08983 1.10261,15.14945 l 0.56411,3.74476 0.91299,0.56426 0.91299,0.56425 0,2.60765 c 0,1.43421 0.17777,2.42015 0.39505,2.19099 z"
     id="path2989"
     inkscape:connector-curvature="0" />
</svg>
