<?xml version="1.0" encoding="UTF-8" standalone="no"?>
<!-- Created with Inkscape (http://www.inkscape.org/) -->

<svg
   xmlns:dc="http://purl.org/dc/elements/1.1/"
   xmlns:cc="http://creativecommons.org/ns#"
   xmlns:rdf="http://www.w3.org/1999/02/22-rdf-syntax-ns#"
   xmlns:svg="http://www.w3.org/2000/svg"
   xmlns="http://www.w3.org/2000/svg"
   xmlns:sodipodi="http://sodipodi.sourceforge.net/DTD/sodipodi-0.dtd"
   xmlns:inkscape="http://www.inkscape.org/namespaces/inkscape"
   id="svg2"
   version="1.1"
   inkscape:version="0.48.2 r9819"
   width="1180"
   height="2201.9551"
   sodipodi:docname="11306258685_281a18d5c0_oc.png">
  <metadata
     id="metadata8">
    <rdf:RDF>
      <cc:Work
         rdf:about="">
        <dc:format>image/svg+xml</dc:format>
        <dc:type
           rdf:resource="http://purl.org/dc/dcmitype/StillImage" />
        <dc:title></dc:title>
      </cc:Work>
    </rdf:RDF>
  </metadata>
  <defs
     id="defs6" />
  <sodipodi:namedview
     pagecolor="#ffffff"
     bordercolor="#666666"
     borderopacity="1"
     objecttolerance="10"
     gridtolerance="10"
     guidetolerance="10"
     inkscape:pageopacity="0"
     inkscape:pageshadow="2"
     inkscape:window-width="1600"
     inkscape:window-height="876"
     id="namedview4"
     showgrid="false"
     fit-margin-top="0"
     fit-margin-left="0"
     fit-margin-right="0"
     fit-margin-bottom="0"
     inkscape:zoom="0.5"
     inkscape:cx="457"
     inkscape:cy="1106.955"
     inkscape:window-x="0"
     inkscape:window-y="24"
     inkscape:window-maximized="1"
     inkscape:current-layer="svg2" />
  <path
     style="fill:#000000"
     d="m 395,2198 c -3.40248,-3.7989 -3.68808,-3.9091 -10.25,-3.9539 -3.86406,-0.026 -6.75,0.3814 -6.75,0.9539 0,0.55 -0.9,1 -2,1 -1.1,0 -2,-0.45 -2,-1 0,-0.55 -0.70714,-1 -1.57143,-1 -3.01273,0 -4.42857,-2.6947 -4.42857,-8.4286 0,-3.0643 0.45,-5.5714 1,-5.5714 0.55,0 1,-0.7071 1,-1.5714 0,-1.8443 2.35017,-4.4286 4.02736,-4.4286 0.64362,0 2.43131,-1.35 3.97264,-3 1.54133,-1.65 3.34133,-3 4,-3 0.65867,0 2.45867,-1.35 4,-3 1.54133,-1.65 3.42253,-3 4.18045,-3 0.75792,0 2.02671,-0.9 2.81955,-2 0.79284,-1.1 2.24218,-2 3.22076,-2 1.11257,0 1.77924,-0.7494 1.77924,-2 0,-1.1264 0.66667,-2 1.52632,-2 1.98446,0 10.47368,-8.4892 10.47368,-10.4737 0,-0.8395 0.45,-1.5263 1,-1.5263 0.55,0 1,-0.8007 1,-1.7792 0,-0.9786 0.9,-2.428 2,-3.2208 1.1,-0.7928 2,-2.0616 2,-2.8195 0,-0.758 1.35,-2.6392 3,-4.1805 1.65,-1.5413 3,-3.3067 3,-3.9229 0,-1.444 10.60896,-12.0771 12.04969,-12.0771 1.42312,0 3.95031,-2.5424 3.95031,-3.974 0,-1.4216 4.56396,-6.026 5.97306,-6.026 1.52589,0 14.02694,-12.7094 14.02694,-14.2607 0,-0.7138 0.9,-1.9465 2,-2.7393 1.10324,-0.7952 2,-2.5887 2,-4 0,-1.4113 0.89676,-3.2048 2,-4 1.1,-0.7928 2,-2.2422 2,-3.2208 0,-0.9785 0.45,-1.7792 1,-1.7792 0.55,0 1,-1.35 1,-3 0,-1.65 0.45,-3 1,-3 0.55,0 1,-1.35 1,-3 0,-1.65 0.45,-3 1,-3 0.55,0 1,-0.9 1,-2 0,-1.1 0.45,-2 1,-2 0.55,0 1,-0.9 1,-2 0,-1.1 0.45,-2 1,-2 0.55,0 1,-0.9 1,-2 0,-1.1 0.45,-2 1,-2 0.55,0 1,-1.35 1,-3 0,-1.65 0.45,-3 1,-3 0.55,0 1,-1.2507 1,-2.7792 0,-1.6321 0.82553,-3.3743 2,-4.2208 1.17447,-0.8465 2,-2.5887 2,-4.2208 0,-1.5285 0.45,-2.7792 1,-2.7792 0.55,0 1,-0.9 1,-2 0,-1.1 0.45,-2 1,-2 0.55,0 1,-1.35 1,-3 0,-1.65 0.45,-3 1,-3 0.58333,0 1,-3.3333 1,-8 0,-4.6667 0.41667,-8 1,-8 0.55,0 1,-0.9 1,-2 0,-1.1 0.45,-2 1,-2 0.55,0 1,-1.35 1,-3 0,-1.65 0.45,-3 1,-3 0.55,0 1,-1.35 1,-3 0,-1.65 0.45,-3 1,-3 0.55,0 1,-1.8 1,-4 0,-2.2 0.45,-4 1,-4 0.55,0 1,-2.25 1,-5 0,-2.75 0.45,-5 1,-5 0.55,0 1,-1.8 1,-4 0,-2.2 0.45,-4 1,-4 0.55,0 1,-2.25 1,-5 0,-2.75 0.45,-5 1,-5 0.63071,0 1,-6.8461 1,-18.5384 l 0,-18.5384 -9,-8.9232 c -4.95,-4.9078 -9,-9.4349 -9,-10.0604 0,-0.6254 -1.35,-2.3983 -3,-3.9396 -1.65,-1.5413 -3,-3.4225 -3,-4.1805 0,-0.7579 -0.9,-2.0267 -2,-2.8195 -1.1,-0.7928 -2,-2.1428 -2,-3 0,-0.8572 -0.9,-2.2072 -2,-3 -1.1,-0.7928 -2,-2.0616 -2,-2.8195 0,-0.758 -1.35,-2.6392 -3,-4.1805 -1.65,-1.5413 -3,-3.4225 -3,-4.1805 0,-0.7579 -0.9,-2.0267 -2,-2.8195 -1.1,-0.7928 -2,-2.0616 -2,-2.8195 0,-0.758 -1.35,-2.6392 -3,-4.1805 -1.70666,-1.5943 -3,-3.8276 -3,-5.1805 0,-1.3079 -0.9,-3.0267 -2,-3.8195 -1.1,-0.7928 -2,-2.2422 -2,-3.2208 0,-0.9785 -0.45,-1.7792 -1,-1.7792 -0.55,0 -1,-0.9 -1,-2 0,-1.1 -0.45,-2 -1,-2 -0.55,0 -1,-0.9 -1,-2 0,-1.1 -0.45,-2 -1,-2 -0.55,0 -1,-0.9 -1,-2 0,-1.1 -0.45,-2 -1,-2 -0.55,0 -1,-0.9 -1,-2 0,-1.1 -0.45,-2 -1,-2 -0.55,0 -1,-1.35 -1,-3 0,-1.65 -0.45,-3 -1,-3 -0.55,0 -1,-1.35 -1,-3 0,-1.65 -0.45,-3 -1,-3 -0.55,0 -1,-0.9 -1,-2 0,-1.1 -0.45,-2 -1,-2 -0.55,0 -1,-1.35 -1,-3 0,-1.65 -0.45,-3 -1,-3 -0.55,0 -1,-0.8007 -1,-1.7792 0,-0.9786 -0.9,-2.428 -2,-3.2208 -1.1,-0.7928 -2,-2.1428 -2,-3 0,-0.8572 -0.9,-2.2072 -2,-3 -1.17447,-0.8465 -2,-2.5887 -2,-4.2208 0,-1.5285 -0.45,-2.7792 -1,-2.7792 -0.55,0 -1,-1.35 -1,-3 0,-1.65 -0.45,-3 -1,-3 -0.55,0 -1,-2.25 -1,-5 0,-2.75 -0.45,-5 -1,-5 -0.55,0 -1,-1.8 -1,-4 0,-2.2 -0.45,-4 -1,-4 -0.55,0 -1,-0.9 -1,-2 0,-1.1 -0.45,-2 -1,-2 -0.55,0 -1,-1.8 -1,-4 0,-2.2 -0.45,-4 -1,-4 -0.55,0 -1,-1.8 -1,-4 0,-2.2 -0.45,-4 -1,-4 -0.55,0 -1,-1.35 -1,-3 0,-1.65 -0.45,-3 -1,-3 -0.55,0 -1,-2.25 -1,-5 0,-2.75 -0.45,-5 -1,-5 -0.55,0 -1,-0.9 -1,-2 0,-1.1 -0.45,-2 -1,-2 -0.55,0 -1,-2.25 -1,-5 0,-2.75 -0.45,-5 -1,-5 -0.55,0 -1,-0.9 -1,-2 0,-1.1 -0.45,-2 -1,-2 -0.55,0 -1,-1.35 -1,-3 0,-1.65 -0.45,-3 -1,-3 -0.55,0 -1,-0.9 -1,-2 0,-1.1 -0.45,-2 -1,-2 -0.55,0 -1,-2.1507 -1,-4.7792 0,-3.6321 -0.48006,-5.1253 -2,-6.2208 -1.1,-0.7928 -2,-2.2422 -2,-3.2208 0,-0.9785 -0.45,-1.7792 -1,-1.7792 -0.55,0 -1,-1.8 -1,-4 0,-2.2 -0.45,-4 -1,-4 -0.55,0 -1,-0.9 -1,-2 0,-1.1 -0.45,-2 -1,-2 -0.55556,0 -1,-2.6667 -1,-6 0,-3.3333 -0.44444,-6 -1,-6 -0.55,0 -1,-1.35 -1,-3 0,-1.65 -0.45,-3 -1,-3 -0.55,0 -1,-2.25 -1,-5 0,-2.75 -0.45,-5 -1,-5 -0.55,0 -1,-0.9 -1,-2 0,-1.1 -0.45,-2 -1,-2 -0.55,0 -1,-2.25 -1,-5 0,-2.75 -0.45,-5 -1,-5 -0.55,0 -1,-2.25 -1,-5 0,-2.75 -0.45,-5 -1,-5 -0.55,0 -1,-2.0571 -1,-4.5714 0,-2.9366 -0.5971,-5.1686 -1.66964,-6.2411 -1.2142,-1.2142 -1.78249,-1.3311 -2.08334,-0.4286 C 373.75434,1610.237 366,1610.4636 366,1609 c 0,-0.55 -2.25,-1 -5,-1 l -5,0 0,7 c 0,4 0.42857,7 1,7 0.57143,0 1,3 1,7 0,4 0.42857,7 1,7 0.55,0 1,1.8 1,4 0,2.2 0.45,4 1,4 0.55,0 1,0.9 1,2 0,1.1 0.45,2 1,2 0.55,0 1,1.35 1,3 0,1.65 0.45,3 1,3 0.55,0 1,0.9 1,2 0,1.1 0.45,2 1,2 0.55,0 1,1.35 1,3 0,1.65 0.45,3 1,3 0.55,0 1,1.35 1,3 0,1.65 0.45,3 1,3 0.55,0 1,1.35 1,3 0,1.65 0.45,3 1,3 0.55,0 1,1.8 1,4 0,2.2 0.45,4 1,4 0.55,0 1,0.9 1,2 0,1.1 0.45,2 1,2 0.55,0 1,1.8 1,4 0,2.2 0.45,4 1,4 0.55,0 1,0.9 1,2 0,1.1 0.45,2 1,2 0.55,0 1,2.25 1,5 0,2.75 0.45,5 1,5 0.55,0 1,1.8 1,4 0,2.2 0.45,4 1,4 0.55,0 1,1.8 1,4 0,2.2 0.45,4 1,4 0.58333,0 1,3.3333 1,8 0,4.6667 -0.41667,8 -1,8 -0.55,0 -1,1.35 -1,3 0,1.65 -0.45,3 -1,3 -0.57143,0 -1,3 -1,7 0,4 -0.42857,7 -1,7 -0.55,0 -1,1.35 -1,3 0,1.65 -0.45,3 -1,3 -0.63333,0 -1,7.3333 -1,20 0,12.6667 0.36667,20 1,20 0.55,0 1,2.25 1,5 0,2.75 0.45,5 1,5 0.59259,0 1,3.6667 1,9 0,5.3333 0.40741,9 1,9 0.60606,0 1,4.3333 1,11 0,6.6667 0.39394,11 1,11 0.57143,0 1,3 1,7 0,4 -0.42857,7 -1,7 -0.55,0 -1,2.25 -1,5 0,2.75 -0.45,5 -1,5 -0.55556,0 -1,2.6667 -1,6 0,3.3333 -0.44444,6 -1,6 -0.55556,0 -1,2.6667 -1,6 0,3.3333 -0.44444,6 -1,6 -0.55,0 -1,1.35 -1,3 0,1.65 0.45,3 1,3 0.59259,0 1,3.6667 1,9 0,5.3333 0.40741,9 1,9 0.63636,0 1,8 1,22 0,14 0.36364,22 1,22 0.55,0 1,1.8 1,4 0,2.2 -0.45,4 -1,4 -0.55,0 -1,0.9 -1,2 0,1.1 -0.45,2 -1,2 -0.6,0 -1,4 -1,10 0,6 0.4,10 1,10 0.55,0 1,0.9 1,2 0,1.1 0.45,2 1,2 0.55,0 1,2.25 1,5 0,2.75 0.45,5 1,5 0.55,0 1,1.35 1,3 0,1.65 0.45,3 1,3 0.55,0 1,1.35 1,3 0,1.65 0.45,3 1,3 0.58333,0 1,3.3333 1,8 0,4.6667 0.41667,8 1,8 0.55,0 1,0.9 1,2 0,1.1 0.45,2 1,2 0.55,0 1,0.9 1,2 0,1.1 0.45,2 1,2 0.55,0 1,2.2125 1,4.9167 0,2.9555 0.49859,5.1493 1.25,5.5 1,0.4666 1,0.7 0,1.1666 -0.6875,0.3209 -1.25,1.8959 -1.25,3.5 0,1.6042 -0.45,2.9167 -1,2.9167 -0.55,0 -1,0.7071 -1,1.5714 0,2.0211 -2.40753,4.4286 -4.42857,4.4286 -0.86429,0 -1.57143,0.45 -1.57143,1 0,0.55 -0.9,1 -2,1 -1.1,0 -2,0.45 -2,1 0,0.55 -1.35,1 -3,1 -1.65,0 -3,0.45 -3,1 0,0.55 -1.35,1 -3,1 -1.65,0 -3,0.45 -3,1 0,0.55 -2.25,1 -5,1 -2.75,0 -5,-0.45 -5,-1 0,-0.55 -1.35,-1 -3,-1 -1.65,0 -3,-0.45 -3,-1 0,-0.55 -1.8,-1 -4,-1 -2.2,0 -4,-0.45 -4,-1 0,-0.6 -4,-1 -10,-1 -6,0 -10,0.4 -10,1 0,0.55 -1.8,1 -4,1 -2.2,0 -4,0.45 -4,1 0,0.55 -0.9,1 -2,1 -1.1,0 -2,0.45 -2,1 0,0.55 -0.80066,1 -1.77924,1 -0.97858,0 -2.42792,0.9 -3.22076,2 -0.79284,1.1 -2.24218,2 -3.22076,2 -0.97858,0 -1.77924,0.45 -1.77924,1 0,0.55 -1.35,1 -3,1 -1.65,0 -3,0.45 -3,1 0,0.55 -1.8,1 -4,1 -2.2,0 -4,0.45 -4,1 0,0.5556 -2.66667,1 -6,1 -3.33333,0 -6,0.4444 -6,1 0,0.5714 -3,1 -7,1 -4,0 -7,0.4286 -7,1 0,0.6377 -8.33333,1 -23,1 -14.66667,0 -23,-0.3623 -23,-1 0,-0.55 -1.35,-1 -3,-1 -1.65,0 -3,-0.45 -3,-1 0,-0.55 -1.35,-1 -3,-1 -1.65,0 -3,-0.45 -3,-1 0,-0.6275 -6.33333,-1 -17,-1 -10.66667,0 -17,-0.3725 -17,-1 0,-0.55 -1.8,-1 -4,-1 -2.2,0 -4,-0.45 -4,-1 0,-0.55 -2.25,-1 -5,-1 -2.75,0 -5,-0.45 -5,-1 0,-0.55 -0.9,-1 -2,-1 -1.55556,0 -2,-0.6667 -2,-3 0,-1.65 0.45,-3 1,-3 0.55,0 1,-1.6071 1,-3.5714 0,-4.2145 1.86968,-6.4286 5.42857,-6.4286 1.41429,0 2.57143,-0.45 2.57143,-1 0,-0.55 1.35,-1 3,-1 1.65,0 3,-0.45 3,-1 0,-0.55 1.8,-1 4,-1 2.2,0 4,-0.45 4,-1 0,-0.6061 4.33333,-1 11,-1 6.66667,0 11,-0.3939 11,-1 0,-0.55 0.9,-1 2,-1 1.1,0 2,-0.45 2,-1 0,-0.55 1.35,-1 3,-1 1.65,0 3,-0.45 3,-1 0,-0.6154 5,-1 13,-1 l 13,0 0,-3 c 0,-1.65 -0.45,-3 -1,-3 -0.55,0 -1,-1.8 -1,-4 0,-2.2 -0.45,-4 -1,-4 -0.55,0 -1,-1.35 -1,-3 0,-1.65 -0.45,-3 -1,-3 -1.45224,0 -1.22914,-5.7264 0.25,-6.4167 1,-0.4666 1,-0.7 0,-1.1666 -0.6875,-0.3209 -1.25,-1.8959 -1.25,-3.5 0,-1.6042 -0.45,-2.9167 -1,-2.9167 -0.55,0 -1,-0.9 -1,-2 0,-1.1 0.45,-2 1,-2 0.55,0 1,-1.8 1,-4 0,-2.2 -0.45,-4 -1,-4 -0.55,0 -1,-0.9 -1,-2 0,-1.1 0.45,-2 1,-2 0.55,0 1,-1.8 1,-4 0,-2.2 -0.45,-4 -1,-4 -0.61538,0 -1,-5 -1,-13 0,-8 -0.38462,-13 -1,-13 -0.55556,0 -1,-2.6667 -1,-6 0,-3.3333 -0.44444,-6 -1,-6 -0.61111,0 -1,-4.6667 -1,-12 0,-7.3333 -0.38889,-12 -1,-12 -0.55,0 -1,-1.35 -1,-3 0,-1.65 -0.45,-3 -1,-3 -0.55,0 -1,-2.25 -1,-5 0,-2.75 -0.45,-5 -1,-5 -0.55,0 -1,-0.9 -1,-2 0,-1.1 -0.45,-2 -1,-2 -0.60606,0 -1,-4.3333 -1,-11 0,-6.6667 -0.39394,-11 -1,-11 -0.55,0 -1,-1.8 -1,-4 0,-2.2 -0.45,-4 -1,-4 -0.6,0 -1,-4 -1,-10 0,-6 -0.4,-10 -1,-10 -0.61905,0 -1,-5.3333 -1,-14 0,-8.6667 -0.38095,-14 -1,-14 -0.6,0 -1,-4 -1,-10 0,-6 -0.4,-10 -1,-10 -0.55556,0 -1,-2.6667 -1,-6 0,-3.3333 -0.44444,-6 -1,-6 -0.60606,0 -1,-4.3333 -1,-11 0,-6.6667 -0.39394,-11 -1,-11 -0.58333,0 -1,-3.3333 -1,-8 0,-4.6667 -0.41667,-8 -1,-8 -0.55,0 -1,-0.9 -1,-2 0,-1.1 0.45,-2 1,-2 0.55,0 1,-2.25 1,-5 0,-2.75 -0.45,-5 -1,-5 -0.55,0 -1,-0.9 -1,-2 0,-1.1 -0.45,-2 -1,-2 -1.45695,0 -1.22743,-7.7272 0.25,-8.4167 1,-0.4666 1,-0.7 0,-1.1666 -0.84561,-0.3947 -1.25,-3.1445 -1.25,-8.5 0,-4.6111 -0.41754,-7.9167 -1,-7.9167 -0.55556,0 -1,-2.6667 -1,-6 0,-3.3333 -0.44444,-6 -1,-6 -0.61538,0 -1,-5 -1,-13 0,-8 -0.38462,-13 -1,-13 -0.57143,0 -1,-3 -1,-7 0,-4 -0.42857,-7 -1,-7 -0.59259,0 -1,-3.6667 -1,-9 0,-5.3333 -0.40741,-9 -1,-9 -0.57143,0 -1,-3 -1,-7 0,-4 -0.42857,-7 -1,-7 -0.6,0 -1,-4 -1,-10 0,-6 -0.4,-10 -1,-10 -0.55556,0 -1,-2.6667 -1,-6 0,-3.3333 -0.44444,-6 -1,-6 -0.57028,0 -1,-2.9722 -1,-6.9167 0,-4.5555 -0.42671,-7.1158 -1.25,-7.5 -1,-0.4666 -1,-0.7 0,-1.1666 1.52897,-0.7136 1.7666,-14.4167 0.25,-14.4167 -0.6,0 -1,-4 -1,-10 0,-6 -0.4,-10 -1,-10 -0.55,0 -1,-2.25 -1,-5 0,-2.75 -0.45,-5 -1,-5 -0.55,0 -1,-0.9 -1,-2 0,-1.1 -0.45,-2 -1,-2 -0.55,0 -1,-2.25 -1,-5 0,-2.75 0.45,-5 1,-5 0.55,0 1,-2.25 1,-5 0,-2.75 -0.45,-5 -1,-5 -0.55,0 -1,-1.35 -1,-3 0,-1.65 -0.45,-3 -1,-3 -0.55,0 -1,-1.8 -1,-4 0,-2.2 -0.45,-4 -1,-4 -0.59259,0 -1,-3.6667 -1,-9 0,-5.3333 -0.40741,-9 -1,-9 -0.58333,0 -1,-3.3333 -1,-8 0,-4.6667 -0.41667,-8 -1,-8 -0.62222,0 -1,-5.6667 -1,-15 0,-9.3333 -0.37778,-15 -1,-15 -0.55,0 -1,-1.8 -1,-4 0,-2.2 -0.45,-4 -1,-4 -0.55,0 -1,-2.2125 -1,-4.9167 0,-2.9555 -0.49859,-5.1493 -1.25,-5.5 -1,-0.4666 -1,-0.7 0,-1.1666 1.54028,-0.7188 1.77934,-16.4167 0.25,-16.4167 -0.62222,0 -1,-5.6667 -1,-15 0,-9.3333 -0.37778,-15 -1,-15 -0.55,0 -1,-2.25 -1,-5 0,-2.75 -0.45,-5 -1,-5 -0.61905,0 -1,-5.3333 -1,-14 0,-8.6667 -0.38095,-14 -1,-14 -0.59259,0 -1,-3.6667 -1,-9 0,-5.3333 -0.40741,-9 -1,-9 -0.55,0 -1,-1.35 -1,-3 0,-1.65 -0.45,-3 -1,-3 -0.55,0 -1,-1.8 -1,-4 0,-2.2 -0.45,-4 -1,-4 -0.55,0 -1,-1.8 -1,-4 0,-2.2 -0.45,-4 -1,-4 -0.55,0 -1,-2.25 -1,-5 0,-2.75 -0.45,-5 -1,-5 -0.55,0 -1,-1.8 -1,-4 0,-2.2 -0.45,-4 -1,-4 -0.59259,0 -1,-3.6667 -1,-9 0,-5.3333 -0.40741,-9 -1,-9 -0.57143,0 -1,-3 -1,-7 0,-4 -0.42857,-7 -1,-7 -0.55,0 -1,-1.8 -1,-4 0,-2.2 -0.45,-4 -1,-4 -0.61538,0 -1,-5 -1,-13 0,-8 -0.38462,-13 -1,-13 -0.55556,0 -1,-2.6667 -1,-6 0,-3.3333 -0.44444,-6 -1,-6 -0.57143,0 -1,-3 -1,-7 0,-4 -0.42857,-7 -1,-7 -0.55,0 -1,-2.25 -1,-5 0,-2.75 -0.45,-5 -1,-5 -0.58333,0 -1,-3.3333 -1,-8 0,-4.6667 -0.41667,-8 -1,-8 -0.60606,0 -1,-4.3333 -1,-11 0,-6.6667 -0.39394,-11 -1,-11 -0.6,0 -1,-4 -1,-10 0,-6 -0.4,-10 -1,-10 -0.62745,0 -1,-6.3333 -1,-17 0,-10.6667 -0.37255,-17 -1,-17 -0.55556,0 -1,-2.6667 -1,-6 0,-3.3333 -0.44444,-6 -1,-6 -0.55,0 -1,-2.25 -1,-5 0,-2.75 -0.45,-5 -1,-5 -0.55,0 -1,-1.8 -1,-4 0,-2.2 -0.45,-4 -1,-4 -0.57143,0 -1,-3 -1,-7 0,-4 0.42857,-7 1,-7 0.55,0 1,-1.35 1,-3 0,-1.65 -0.45,-3 -1,-3 -0.55,0 -1,-1.35 -1,-3 0,-1.65 -0.45,-3 -1,-3 -0.58333,0 -1,-3.3333 -1,-8 0,-4.6667 -0.41667,-8 -1,-8 -0.58333,0 -1,-3.3333 -1,-8 0,-4.6667 -0.41667,-8 -1,-8 -0.62222,0 -1,-5.6667 -1,-15 0,-9.3333 -0.37778,-15 -1,-15 -0.55,0 -1,-2.25 -1,-5 0,-2.75 -0.45,-5 -1,-5 -0.61111,0 -1,-4.66667 -1,-12 0,-7.33333 -0.38889,-12 -1,-12 -0.61538,0 -1,-5 -1,-13 0,-8 -0.38462,-13 -1,-13 -0.55,0 -1,-2.25 -1,-5 0,-2.75 -0.45,-5 -1,-5 -0.55556,0 -1,-2.66667 -1,-6 0,-3.33333 -0.44444,-6 -1,-6 -0.61538,0 -1,-5 -1,-13 0,-8 -0.38462,-13 -1,-13 -0.5919,0 -1,-3.63889 -1,-8.91667 0,-6.19616 -0.38138,-9.07141 -1.25,-9.42387 -0.94376,-0.38294 -0.88251,-0.7895 0.25,-1.65946 1.13251,-0.86996 1.19376,-1.27652 0.25,-1.65946 -1.62407,-0.65899 -1.62407,-5.99931 0,-6.75721 1,-0.46666 1,-0.7 0,-1.16666 C 92.31822,839.98183 92,835.27222 92,821.91667 92,810.63889 91.62946,804 91,804 c -0.55556,0 -1,-2.66667 -1,-6 0,-3.33333 -0.44444,-6 -1,-6 -0.6,0 -1,-4 -1,-10 0,-6 -0.4,-10 -1,-10 -0.58333,0 -1,-3.33333 -1,-8 0,-4.66667 -0.41667,-8 -1,-8 -0.60606,0 -1,-4.33333 -1,-11 0,-6.66667 -0.39394,-11 -1,-11 -0.55,0 -1,-2.25 -1,-5 0,-2.75 -0.45,-5 -1,-5 -0.55,0 -1,-2.25 -1,-5 0,-2.75 -0.45,-5 -1,-5 -0.55,0 -1,-1.35 -1,-3 0,-1.65 -0.45,-3 -1,-3 -0.55,0 -1,-2.25 -1,-5 0,-2.75 -0.45,-5 -1,-5 -0.55,0 -1,-1.8 -1,-4 0,-2.2 -0.45,-4 -1,-4 -0.55,0 -1,-1.8 -1,-4 0,-2.2 -0.45,-4 -1,-4 -0.55,0 -1,-1.70066 -1,-3.77924 0,-2.63207 -0.60709,-4.21681 -2,-5.22076 -1.1,-0.79284 -2,-2.24218 -2,-3.22076 C 66,668.80066 65.55,668 65,668 64.45,668 64,667.29286 64,666.42857 64,664.40753 61.59247,662 59.57143,662 58.70714,662 58,661.19934 58,660.22076 58,659.24218 57.1,657.79284 56,657 54.9,656.20716 54,654.96782 54,654.24591 54,652.67721 47.52192,646 46,646 c -1.92442,0 -8,-6.88474 -8,-9.06546 0,-1.17266 -1.35,-3.39321 -3,-4.93454 -1.65,-1.54133 -3,-3.52188 -3,-4.40121 C 32,626.71946 31.55,626 31,626 c -0.55,0 -1,-0.9 -1,-2 0,-1.1 -0.45,-2 -1,-2 -0.55,0 -1,-0.80066 -1,-1.77924 0,-0.97858 -0.9,-2.42792 -2,-3.22076 -1.1,-0.79284 -2,-2.24218 -2,-3.22076 C 24,612.80066 23.55,612 23,612 c -0.55,0 -1,-1.35 -1,-3 0,-1.65 -0.45,-3 -1,-3 -0.55,0 -1,-1.35 -1,-3 0,-1.65 -0.45,-3 -1,-3 -0.55,0 -1,-1.8 -1,-4 0,-2.2 0.45,-4 1,-4 0.55,0 1,-1.35 1,-3 0,-1.65 0.45,-3 1,-3 0.55,0 1,-1.35 1,-3 0,-1.65 0.45,-3 1,-3 0.55,0 1,-1.35 1,-3 0,-1.65 0.45,-3 1,-3 0.55,0 1,-1.35 1,-3 0,-1.65 -0.45,-3 -1,-3 -0.55,0 -1,-0.9 -1,-2 0,-1.1 0.45,-2 1,-2 0.55,0 1,-1.35 1,-3 0,-1.65 0.45,-3 1,-3 0.55,0 1,-0.71946 1,-1.59879 0,-0.87933 1.35,-2.85988 3,-4.40121 1.65,-1.54133 3,-3.52188 3,-4.40121 C 34,546.71946 34.45,546 35,546 c 0.60482,0 1,-4.25975 1,-10.77924 0,-9.63207 0.21285,-10.93265 2,-12.22076 1.1,-0.79284 2,-2.24218 2,-3.22076 C 40,518.80066 40.69,518 41.53333,518 c 0.84334,0 3.15572,-1.62239 5.13864,-3.6053 2.88776,-2.88777 3.32893,-3.79852 2.21667,-4.57613 C 47.81749,509.06971 47.7858,508.73177 48.75,508.34054 50.30726,507.70866 50.5495,488 49,488 c -0.61111,0 -1,-4.66667 -1,-12 0,-7.33333 -0.38889,-12 -1,-12 -0.59259,0 -1,-3.66667 -1,-9 0,-5.33333 -0.40741,-9 -1,-9 -0.58246,0 -1,-3.30556 -1,-7.91667 0,-5.39616 -0.39797,-8.07815 -1.25,-8.42387 -0.94376,-0.38294 -0.88251,-0.7895 0.25,-1.65946 1.13251,-0.86996 1.19376,-1.27652 0.25,-1.65946 C 42.3483,425.97466 42,422.51283 42,413.91667 42,406.63889 41.61072,402 41,402 c -0.55556,0 -1,-2.66667 -1,-6 0,-3.33333 -0.44444,-6 -1,-6 -0.55,0 -1,-2.25 -1,-5 0,-2.75 -0.45,-5 -1,-5 -0.58333,0 -1,-3.33333 -1,-8 0,-4.66667 -0.41667,-8 -1,-8 -0.61905,0 -1,-5.33333 -1,-14 0,-8.66667 -0.38095,-14 -1,-14 -0.55,0 -1,-1.35 -1,-3 0,-1.65 -0.45,-3 -1,-3 -0.55556,0 -1,-2.66667 -1,-6 0,-3.33333 0.44444,-6 1,-6 0.55,0 1,-1.35 1,-3 0,-1.65 -0.45,-3 -1,-3 -0.55,0 -1,-1.8 -1,-4 0,-2.2 -0.45,-4 -1,-4 -0.62726,0 -1,-6.30556 -1,-16.91667 0,-12.55555 -0.32225,-17.06705 -1.25,-17.5 -1,-0.46666 -1,-0.7 0,-1.16666 C 28.22914,267.7264 28.45224,262 27,262 c -0.55,0 -1,-0.9 -1,-2 0,-1.1 -0.45,-2 -1,-2 -0.55,0 -1,-1.8 -1,-4 0,-2.2 -0.45,-4 -1,-4 -0.55,0 -1,-0.9 -1,-2 0,-1.1 0.45,-2 1,-2 0.55,0 1,-0.9 1,-2 0,-1.1 -0.45,-2 -1,-2 -0.55,0 -1,-1.8 -1,-4 0,-2.2 -0.45,-4 -1,-4 -0.55,0 -1,-0.73472 -1,-1.6327 0,-0.89799 -1.0125,-2.53358 -2.25,-3.63464 -1.52621,-1.35793 -1.84789,-2.14627 -1,-2.45063 C 18.63974,225.60369 18.35302,220 16.42857,220 13.84116,220 12,217.362 12,213.65476 c 0,-1.91845 -0.5625,-3.75059 -1.25,-4.07143 -1,-0.46666 -1,-0.7 0,-1.16666 C 11.66165,207.99123 12,204.08889 12,194 12,183.87051 12.33468,180.03086 13.25,179.65946 14.19376,179.27652 14.13251,178.86996 13,178 11.86749,177.13004 11.80624,176.72348 12.75,176.34054 13.4375,176.06157 14,174.97083 14,173.91667 14,172.8625 14.45,172 15,172 c 0.55,0 1,-1.8 1,-4 0,-2.2 -0.45,-4 -1,-4 -0.55,0 -1,-2.2125 -1,-4.91667 0,-2.95555 -0.49859,-5.14934 -1.25,-5.5 -1,-0.46666 -1,-0.7 0,-1.16666 C 14.23262,151.72478 14.44346,148 13,148 c -0.55556,0 -1,-2.66667 -1,-6 0,-3.33333 -0.44444,-6 -1,-6 -0.55,0 -1,-1.8 -1,-4 0,-2.2 -0.45,-4 -1,-4 -0.57143,0 -1,-3 -1,-7 0,-4 -0.42857,-7 -1,-7 C 6.39394,114 6,109.66667 6,103 6,96.33333 5.60606,92 5,92 4.36364,92 4,84 4,70 4,56 3.63636,48 3,48 2.42857,48 2,45 2,41 2,37 1.57143,34 1,34 0.45,34 0,33.1 0,32 0,30.9 0.45,30 1,30 1.55,30 2,28.2 2,26 2,23.8 1.55,22 1,22 0.44444,22 0,19.333333 0,16 0,12.666667 0.44444,10 1,10 1.55,10 2,7.75 2,5 2,0.666667 2.26667,0 4,0 c 1.66667,0 2,0.666667 2,4 0,2.2 0.45,4 1,4 0.55,0 1,2.25 1,5 0,2.75 0.45,5 1,5 0.55,0 1,0.9 1,2 0,1.1 0.45,2 1,2 0.57143,0 1,3 1,7 0,4 0.42857,7 1,7 0.57143,0 1,3 1,7 0,4 0.42857,7 1,7 0.55556,0 1,2.666667 1,6 0,3.333333 0.44444,6 1,6 0.57143,0 1,3 1,7 0,4 0.42857,7 1,7 0.55,0 1,0.9 1,2 0,1.1 0.45,2 1,2 0.55,0 1,2.25 1,5 0,2.75 0.45,5 1,5 0.55,0 1,2.15066 1,4.77924 0,3.63207 0.48006,5.12525 2,6.22076 1.51994,1.09551 2,2.58869 2,6.22076 0,2.62858 0.45,4.77924 1,4.77924 0.55,0 1,2.25 1,5 0,2.75 0.45,5 1,5 0.55556,0 1,2.66667 1,6 0,3.33333 0.44444,6 1,6 0.57143,0 1,3 1,7 0,4 0.42857,7 1,7 0.55,0 1,1.8 1,4 0,2.2 0.45,4 1,4 0.57143,0 1,3 1,7 0,4 0.42857,7 1,7 0.58333,0 1,3.33333 1,8 0,4.66667 0.41667,8 1,8 0.55,0 1,1.35 1,3 0,1.65 0.45,3 1,3 0.55,0 1,1.8 1,4 0,2.2 0.45,4 1,4 0.55,0 1,2.25 1,5 0,2.75 -0.45,5 -1,5 -0.55556,0 -1,2.66667 -1,6 0,3.33333 -0.44444,6 -1,6 -0.55,0 -1,0.9 -1,2 0,1.1 -0.45,2 -1,2 -0.55,0 -1,2.25 -1,5 0,2.75 0.45,5 1,5 0.55,0 1,1.8 1,4 0,2.2 0.45,4 1,4 0.60606,0 1,4.33333 1,11 0,6.66667 0.39394,11 1,11 0.55,0 1,1.35 1,3 0,1.65 -0.45,3 -1,3 -0.58333,0 -1,3.33333 -1,8 0,4.66667 0.41667,8 1,8 0.55,0 1,0.80066 1,1.77924 0,0.97858 0.9,2.42792 2,3.22076 1.51994,1.09551 2,2.58869 2,6.22076 0,2.62858 0.45,4.77924 1,4.77924 0.55,0 1,1.8 1,4 0,2.2 0.45,4 1,4 0.61111,0 1,4.66667 1,12 0,7.33333 0.38889,12 1,12 1.44346,0 1.23262,3.72478 -0.25,4.41667 -1,0.46666 -1,0.7 0,1.16666 0.92775,0.43295 1.25,4.94445 1.25,17.5 C 56,369.69444 56.37274,376 57,376 c 0.58333,0 1,3.33333 1,8 0,4.66667 0.41667,8 1,8 0.6,0 1,4 1,10 0,6 0.4,10 1,10 0.55556,0 1,2.66667 1,6 0,3.33333 0.44444,6 1,6 0.61538,0 1,5 1,13 0,8 0.38462,13 1,13 0.55,0 1,2.25 1,5 0,2.75 0.45,5 1,5 0.55,0 1,1.8 1,4 0,2.2 0.45,4 1,4 0.57143,0 1,3 1,7 0,4 0.42857,7 1,7 0.55,0 1,2.25 1,5 0,2.75 0.45,5 1,5 1.44346,0 1.23262,3.72478 -0.25,4.41667 -1,0.46666 -1,0.7 0,1.16666 0.6875,0.32084 1.25,1.89584 1.25,3.5 0,1.60417 0.45,2.91667 1,2.91667 0.55,0 1,1.35 1,3 0,1.65 0.45,3 1,3 0.55,0 1,0.9 1,2 0,1.33333 0.66667,2 2,2 1.1,0 2,0.45 2,1 0,0.55 0.9,1 2,1 1.1,0 2,0.45 2,1 0,0.55 0.69545,1 1.54545,1 0.85,0 2.65,1.10455 4,2.45455 2.17233,2.17232 2.45455,3.32211 2.45455,10 0,4.36363 0.42169,7.54545 1,7.54545 0.55,0 1,1.16946 1,2.59879 0,1.59812 1.15516,3.67787 3,5.40121 1.65,1.54133 3,3.52188 3,4.40121 0,0.87933 0.45,1.59879 1,1.59879 0.55,0 1,1.16946 1,2.59879 0,1.59812 1.15516,3.67787 3,5.40121 1.65,1.54133 3,3.42253 3,4.18045 0,0.75792 0.9,2.02671 2,2.81955 1.17447,0.84651 2,2.58869 2,4.22076 0,1.52858 0.45,2.77924 1,2.77924 0.55,0 1,0.80066 1,1.77924 0,0.97858 0.9,2.42792 2,3.22076 1.10324,0.79517 2,2.58869 2,4 0,1.41131 0.89676,3.20483 2,4 1.39291,1.00395 2,2.58869 2,5.22076 0,2.07858 0.45,3.77924 1,3.77924 0.55,0 1,1.8 1,4 0,2.2 0.45,4 1,4 0.55,0 1,0.9 1,2 0,1.1 -0.45,2 -1,2 -0.55,0 -1,0.9 -1,2 0,1.1 0.45,2 1,2 0.58333,0 1,3.33333 1,8 0,4.66667 -0.41667,8 -1,8 -0.55,0 -1,1.8 -1,4 0,2.2 -0.45,4 -1,4 -0.57143,0 -1,3 -1,7 0,4 0.42857,7 1,7 0.55,0 1,1.35 1,3 0,1.65 0.45,3 1,3 0.55,0 1,0.9 1,2 0,1.1 0.45,2 1,2 0.55,0 1,0.80066 1,1.77924 0,0.97858 0.9,2.42792 2,3.22076 1.1,0.79284 2,2.24218 2,3.22076 0,0.97858 0.45,1.77924 1,1.77924 0.55,0 1,0.9 1,2 0,1.1 0.45,2 1,2 0.55,0 1,0.9 1,2 0,1.1 0.45,2 1,2 0.55,0 1,0.9 1,2 0,1.1 0.45,2 1,2 0.55,0 1,0.80066 1,1.77924 0,0.97858 0.9,2.42792 2,3.22076 1.1,0.79284 2,2.51163 2,3.81955 0,1.35283 1.29334,3.58619 3,5.18045 1.65,1.54133 3,3.79133 3,5 0,1.20867 1.35,3.45867 3,5 1.65,1.54133 3,3.78216 3,4.97961 0,1.23286 1.73496,3.84414 4,6.02039 2.2,2.11376 4,4.45414 4,5.20084 0,0.7467 0.9,2.00632 2,2.79916 1.1,0.79284 2,2.02035 2,2.7278 0,0.70746 7.87183,9.15812 17.49296,18.77924 13.3539,13.35391 18.08615,17.49296 20,17.49296 1.37887,0 2.50704,-0.45 2.50704,-1 0,-0.55 2.25,-1 5,-1 2.75,0 5,-0.45 5,-1 0,-0.55 0.9,-1 2,-1 1.1,0 2,-0.45 2,-1 0,-0.55 1.8,-1 4,-1 3.33333,0 4,-0.33333 4,-2 0,-1.72102 0.66667,-2 4.77924,-2 3.63207,0 5.12525,-0.48006 6.22076,-2 0.97681,-1.35525 2.58869,-2 5,-2 2.41131,0 4.02319,-0.64475 5,-2 0.84651,-1.17447 2.58869,-2 4.22076,-2 C 259.08068,746 260,745.4802 260,744.42857 260,742.06801 262.53498,740 265.42857,740 267.09957,740 268,739.44974 268,738.42857 268,736.13309 270.50842,734 273.20781,734 c 1.29287,0 2.99935,-0.9 3.79219,-2 0.79284,-1.1 2.14284,-2 3,-2 0.85716,0 2.20716,-0.9 3,-2 0.79284,-1.1 2.06163,-2 2.81955,-2 0.75792,0 2.63912,-1.35 4.18045,-3 1.54133,-1.65 3.42253,-3 4.18045,-3 0.75792,0 2.02671,-0.9 2.81955,-2 0.79284,-1.1 2.24218,-2 3.22076,-2 C 301.19934,716 302,715.29286 302,714.42857 302,712.40753 304.40753,710 306.42857,710 307.29286,710 308,709.29286 308,708.42857 308,706.40753 310.40753,704 312.42857,704 313.29286,704 314,703.55 314,703 c 0,-0.55 1.35,-1 3,-1 1.65,0 3,-0.45 3,-1 0,-0.55 0.69545,-1 1.54545,-1 2.00047,0 6.45455,-4.45408 6.45455,-6.45455 0,-0.85 0.45,-1.54545 1,-1.54545 0.55,0 1,-0.70714 1,-1.57143 C 330,688.40753 332.40753,686 334.42857,686 335.50794,686 336,685.06061 336,683 c 0,-2.06061 0.49206,-3 1.57143,-3 C 339.59247,680 342,677.59247 342,675.57143 342,674.70714 342.45,674 343,674 c 0.55,0 1,-0.9 1,-2 0,-1.1 0.45,-2 1,-2 0.55,0 1,-0.9 1,-2 0,-1.1 0.45,-2 1,-2 0.55,0 1,-0.9 1,-2 0,-1.1 0.45,-2 1,-2 0.55,0 1,-1.25066 1,-2.77924 0,-1.63207 0.82553,-3.37425 2,-4.22076 1.1,-0.79284 2,-2.03763 2,-2.76621 0,-1.71701 4.51678,-6.23379 6.23379,-6.23379 0.72858,0 1.97337,-0.9 2.76621,-2 0.79284,-1.1 2.05246,-2 2.79916,-2 0.7467,0 3.08708,-1.8 5.20084,-4 2.11376,-2.2 4.45414,-4 5.20084,-4 0.7467,0 2.00632,-0.9 2.79916,-2 0.79284,-1.1 2.24218,-2 3.22076,-2 0.97858,0 1.77924,-0.45 1.77924,-1 0,-0.55 0.9,-1 2,-1 1.1,0 2,-0.45 2,-1 0,-0.55 0.9,-1 2,-1 1.1,0 2,-0.45 2,-1 0,-0.55 0.9,-1 2,-1 1.1,0 2,-0.45 2,-1 0,-0.55 0.9,-1 2,-1 1.15152,0 2,-0.66667 2,-1.57143 0,-1.92738 2.37651,-4.42857 4.20781,-4.42857 0.74287,0 1.99935,-0.9 2.79219,-2 0.84651,-1.17447 2.58869,-2 4.22076,-2 1.52858,0 2.77924,-0.45 2.77924,-1 0,-0.55 0.9,-1 2,-1 1.1,0 2,-0.45 2,-1 0,-0.55 1.35,-1 3,-1 1.65,0 3,-0.45 3,-1 0,-0.55 1.8,-1 4,-1 2.2,0 4,-0.45 4,-1 0,-0.55 0.9,-1 2,-1 1.1,0 2,-0.45 2,-1 0,-0.55 0.9,-1 2,-1 1.15152,0 2,-0.66667 2,-1.57143 0,-1.8311 2.3461,-4.42857 4,-4.42857 1.6539,0 4,-2.59747 4,-4.42857 0,-0.86429 0.45,-1.57143 1,-1.57143 1.83321,0 1.03048,-3.06043 -1.45455,-5.54545 -1.88606,-1.88607 -3.50729,-2.45455 -7,-2.45455 -2.5,0 -4.54545,0.45 -4.54545,1 0,0.55556 -2.66667,1 -6,1 -3.33333,0 -6,-0.44444 -6,-1 0,-0.55 -0.9,-1 -2,-1 -1.1,0 -2,-0.45 -2,-1 0,-0.55 -0.70714,-1 -1.57143,-1 C 416.40753,580 414,577.59247 414,575.57143 414,574.70714 413.55,574 413,574 c -0.61111,0 -1,-4.66667 -1,-12 0,-7.33333 0.38889,-12 1,-12 0.55,0 1,-0.8625 1,-1.91667 0,-1.05416 0.5625,-2.17916 1.25,-2.5 1,-0.46666 1,-0.7 0,-1.16666 C 413.76738,543.72478 413.55654,540 415,540 c 0.55,0 1,-1.70066 1,-3.77924 0,-2.63207 -0.60709,-4.21681 -2,-5.22076 -1.1,-0.79284 -2,-2.51163 -2,-3.81955 0,-1.35283 -1.29334,-3.58619 -3,-5.18045 -2.70641,-2.52816 -3,-3.40627 -3,-8.97264 C 406,506.68191 407.31567,504 410.42857,504 411.29286,504 412,503.55 412,503 c 0,-0.55 -0.9,-1 -2,-1 -1.33333,0 -2,-0.66667 -2,-2 0,-1.1 -0.45,-2 -1,-2 -0.55,0 -1,-0.9 -1,-2 0,-1.1 -0.45,-2 -1,-2 -0.55,0 -1,-2.15066 -1,-4.77924 0,-3.63207 0.48006,-5.12525 2,-6.22076 1.1,-0.79284 2,-2.24218 2,-3.22076 0,-0.97858 0.45,-1.77924 1,-1.77924 0.55,0 1,-0.9 1,-2 0,-1.1 0.45,-2 1,-2 0.55,0 1,-0.80066 1,-1.77924 0,-0.97858 0.9,-2.42792 2,-3.22076 1.1,-0.79284 2,-2.24218 2,-3.22076 0,-0.97858 0.45,-1.77924 1,-1.77924 0.55,0 1,-0.9 1,-2 0,-1.1 0.45,-2 1,-2 0.55,0 1,-0.9 1,-2 0,-1.47126 -0.66667,-2 -2.52174,-2 -1.72211,0 -4.25887,-1.73713 -8,-5.47826 C 404.2185,445.26198 404,444.83205 404,439.7425 c 0,-4.15381 0.43282,-5.61294 2,-6.7425 1.603,-1.15538 2,-2.58869 2,-7.22076 0,-3.18616 0.44869,-5.77924 1,-5.77924 0.55,0 1,-2.25 1,-5 0,-2.75 0.45,-5 1,-5 0.55,0 1,-1.35 1,-3 0,-1.65 0.45,-3 1,-3 0.55,0 1,-1.35 1,-3 0,-1.65 0.45,-3 1,-3 0.55,0 1,-2.25 1,-5 0,-2.75 0.45,-5 1,-5 0.55,0 1,-0.9 1,-2 0,-1.1 0.45,-2 1,-2 0.55,0 1,-1.35 1,-3 0,-2.66667 0.33333,-3 3,-3 1.65,0 3,-0.45 3,-1 0,-0.55 1.15714,-1 2.57143,-1 3.45157,0 5.42857,-2.18764 5.42857,-6.00697 0,-2.3676 0.99336,-4.10425 4,-6.99303 2.2,-2.11376 4,-4.36062 4,-4.99303 0,-2.2087 2.88505,-4.00697 6.42857,-4.00697 1.96429,0 3.57143,-0.45 3.57143,-1 0,-0.55 0.9,-1 2,-1 1.1,0 2,-0.45 2,-1 0,-0.55 0.9,-1 2,-1 1.1,0 2,-0.45 2,-1 0,-0.55 0.9,-1 2,-1 1.1,0 2,-0.45 2,-1 0,-0.55 0.80066,-1 1.77924,-1 0.97858,0 2.42792,-0.9 3.22076,-2 0.79284,-1.1 2.24218,-2 3.22076,-2 0.97858,0 1.77924,-0.45 1.77924,-1 0,-0.57143 3,-1 7,-1 4,0 7,0.42857 7,1 0,0.55 2.06946,1 4.59879,1 3.82034,0 5.07316,0.50782 7.40121,3 l 2.80242,3 18.59879,0 C 533.13374,348 540,348.36918 540,349 c 0,0.55 0.80066,1 1.77924,1 0.97858,0 2.42792,0.9 3.22076,2 0.79284,1.1 2.14284,2 3,2 0.85716,0 2.20716,0.9 3,2 0.7928,1.1 2.0616,2 2.8196,2 0.7579,0 2.6391,1.35 4.1804,3 2.0441,2.1882 3.7165,3 6.1804,3 2.2309,0 3.8676,0.6792 4.8196,2 0.7928,1.1 2.2422,2 3.2208,2 0.9785,0 1.7792,0.45 1.7792,1 0,0.55 2.04,1 4.5333,1 3.8394,0 5.0641,0.53072 8,3.46667 1.9569,1.95682 3.4667,4.47386 3.4667,5.77924 0,1.27191 0.9,2.96125 2,3.75409 1.1,0.79284 2,2.03218 2,2.75409 0,1.82262 6.5952,8.24591 8.4667,8.24591 0.8433,0 1.5333,0.45 1.5333,1 0,0.55 0.9,1 2,1 1.1,0 2,0.45 2,1 0,0.55 -0.45,1 -1,1 -0.5985,0 -1,3.92641 -1,9.77924 0,8.63207 0.2346,9.94834 2,11.22076 2.0606,1.4852 2.8484,7 1,7 -0.55,0 -1,1.8 -1,4 0,2.9697 -0.4048,4 -1.5714,4 -2.0211,0 -4.4286,2.40753 -4.4286,4.42857 0,0.86429 -0.45,1.57143 -1,1.57143 -0.55,0 -1,0.9 -1,2 0,1.33333 -0.6667,2 -2,2 -1.1,0 -2,0.45 -2,1 0,0.55 0.9,1 2,1 1.1,0 2,0.45 2,1 0,1.48524 2.9326,1.21031 4.5714,-0.42857 0.7857,-0.78572 1.4286,-2.13572 1.4286,-3 0,-1.21905 1.1212,-1.57143 5,-1.57143 2.75,0 5,-0.45 5,-1 0,-0.55 0.9,-1 2,-1 1.1,0 2,0.45 2,1 0,0.55 0.6955,1 1.5455,1 1.7943,0 6.4545,4.37048 6.4545,6.05334 0,0.62933 1.35,2.40533 3,3.94666 1.65,1.54133 3,3.42253 3,4.18045 0,0.75792 0.9,2.02671 2,2.81955 1.1,0.79284 2,2.24218 2,3.22076 0,0.97858 0.45,1.77924 1,1.77924 0.55,0 1,1.8 1,4 0,2.2 0.45,4 1,4 1.5176,0 1.1949,4.94793 -0.4286,6.57143 -2.4418,2.4418 -5.5594,1.60422 -9.5714,-2.57143 -2.1138,-2.2 -4.4541,-4 -5.2008,-4 -0.7467,0 -2.0064,-0.9 -2.7992,-2 -0.7928,-1.1 -2.2047,-2 -3.1374,-2 -0.9328,0 -1.8821,-0.55848 -2.1096,-1.24107 -0.2904,-0.87127 -0.983,-0.67174 -2.3244,0.66964 -1.3414,1.34139 -1.5409,2.03398 -0.6697,2.32441 0.6826,0.22753 1.2411,1.53333 1.2411,2.90178 0,2.60958 2.0507,5.34524 4.007,5.34524 0.6324,0 2.8792,1.8 4.993,4 2.1138,2.2 4.3403,4 4.9479,4 1.6734,0 10.0521,8.73008 10.0521,10.47368 0,0.83948 0.45,1.52632 1,1.52632 0.55,0 1,0.9 1,2 0,1.66667 -0.6667,2 -4,2 -2.2,0 -4,-0.45 -4,-1 0,-0.55 -1.35,-1 -3,-1 -1.65,0 -3,-0.45 -3,-1 0,-0.55 -0.9,-1 -2,-1 -1.8868,0 -2,0.66667 -2,11.77924 0,10.63207 0.1948,11.91963 2,13.22076 1.3553,0.97681 2,2.58869 2,5 0,2.41131 0.6448,4.02319 2,5 2.2877,1.64887 2.8291,8.44643 0.75,9.41667 -1,0.46666 -1,0.7 0,1.16666 C 632.2486,544.28268 632.4818,554 631,554 c -0.55,0 -1,1.61028 -1,3.5784 0,2.8676 0.7945,4.3418 4,7.4216 2.2,2.11376 4,4.45414 4,5.20084 0,0.7467 0.9,2.00632 2,2.79916 1.603,1.15538 2,2.58869 2,7.22076 0,3.18616 0.4487,5.77924 1,5.77924 0.55,0 1,0.9 1,2 0,1.1 -0.45,2 -1,2 -0.55,0 -1,1.8 -1,4 0,3.33333 0.3333,4 2,4 1.3333,0 2,0.66667 2,2 0,1.1 0.45,2 1,2 0.55,0 1,0.71946 1,1.59879 0,0.87933 1.35,2.85988 3,4.40121 1.65,1.54133 3,3.52188 3,4.40121 0,0.87933 0.45,1.59879 1,1.59879 0.55,0 1,0.9 1,2 0,1.1 0.45,2 1,2 0.55,0 1,0.9 1,2 0,1.1 0.45,2 1,2 0.5556,0 1,2.66667 1,6 0,3.33333 -0.4444,6 -1,6 -0.55,0 -1,0.9 -1,2 0,1.1 -0.45,2 -1,2 -0.55,0 -1,0.9 -1,2 0,1.33333 -0.6667,2 -2,2 -1.1,0 -2,-0.45 -2,-1 0,-1.50414 -2.9414,-1.2015 -4.618,0.47516 -1.3002,1.3002 -0.8199,2.13038 4.0497,7 3.0386,3.03866 6.2096,5.52484 7.0466,5.52484 0.855,0 1.5217,0.87619 1.5217,2 0,1.25062 0.6667,2 1.7792,2 0.9786,0 2.428,0.9 3.2208,2 0.7928,1.1 2.2422,2 3.2208,2 0.9785,0 1.7792,0.45 1.7792,1 0,0.55 0.9,1 2,1 1.1,0 2,0.45 2,1 0,0.55 0.9,1 2,1 1.1,0 2,0.45 2,1 0,0.55 0.6814,1 1.5143,1 1.6972,0 18.4857,16.37566 18.4857,18.03117 0,1.61645 4.7066,5.96883 6.4546,5.96883 0.8787,0 1.5454,0.86275 1.5454,2 0,1.33333 0.6667,2 2,2 1.1553,0 2,0.66667 2,1.5784 0,0.86812 1.8,3.30784 4,5.4216 2.2,2.11376 4,4.37293 4,5.02039 0,0.64745 1.35,2.43828 3,3.97961 1.65,1.54133 3,3.42253 3,4.18045 0,0.75792 0.9,2.02671 2,2.81955 1.1,0.79284 2,2.24218 2,3.22076 0,0.97858 0.45,1.77924 1,1.77924 0.55,0 1,0.9 1,2 0,1.1 0.45,2 1,2 0.55,0 1,1.16946 1,2.59879 0,1.59812 1.1552,3.67787 3,5.40121 1.65,1.54133 3,3.52188 3,4.40121 0,0.87933 0.45,1.59879 1,1.59879 0.5714,0 1,3 1,7 0,4 0.4286,7 1,7 0.5556,0 1,2.66667 1,6 0,3.33333 0.4444,6 1,6 0.5926,0 1,3.66667 1,9 0,5.33333 0.4074,9 1,9 0.5714,0 1,3 1,7 0,4 0.4286,7 1,7 0.55,0 1,0.9 1,2 0,1.1 0.45,2 1,2 0.55,0 1,0.9 1,2 0,1.1 0.45,2 1,2 0.55,0 1,1.8 1,4 0,2.2 0.45,4 1,4 0.55,0 1,0.9 1,2 0,1.1 0.45,2 1,2 0.5889,0 1,3.52613 1,8.5784 l 0,8.5784 4,3.8432 c 2.4489,2.35286 4,4.75746 4,6.20084 0,1.2967 0.9,3.00632 2,3.79916 1.1,0.79284 2,2.24218 2,3.22076 0,0.97858 0.45,1.77924 1,1.77924 0.55,0 1,0.9 1,2 0,1.1 0.45,2 1,2 0.55,0 1,0.9 1,2 0,1.1 0.45,2 1,2 0.5683,0 1,2.92641 1,6.77924 0,5.63207 -0.3384,7.02317 -2,8.22076 -1.1,0.79284 -2,2.24218 -2,3.22076 0,0.97858 -0.45,1.77924 -1,1.77924 -0.55,0 -1,0.80066 -1,1.77924 0,0.97858 -0.9,2.42792 -2,3.22076 -1.1,0.79284 -2,2.24218 -2,3.22076 0,0.97858 -0.45,1.77924 -1,1.77924 -0.55,0 -1,1.35 -1,3 0,1.65 -0.45,3 -1,3 -0.55,0 -1,1.35 -1,3 0,1.65 -0.45,3 -1,3 -0.55,0 -1,2.25 -1,5 0,2.75 0.45,5 1,5 0.55,0 1,0.9 1,2 0,1.33333 0.6667,2 2,2 1.1,0 2,0.45 2,1 0,0.55 0.7071,1 1.5714,1 2.5572,0 4.4286,2.62321 4.4286,6.20781 0,2.2035 0.6847,3.84421 2,4.79219 1.3929,1.00395 2,2.58869 2,5.22076 0,2.07858 0.45,3.77924 1,3.77924 0.55,0 1,1.8 1,4 0,2.2 0.45,4 1,4 0.5556,0 1,2.66667 1,6 0,3.33333 -0.4444,6 -1,6 -0.6111,0 -1,4.66667 -1,12 0,7.3333 0.3889,12 1,12 0.6061,0 1,4.3333 1,11 0,6.6667 0.3939,11 1,11 0.5833,0 1,3.3333 1,8 0,4.6667 -0.4167,8 -1,8 -0.5714,0 -1,3 -1,7 0,4 -0.4286,7 -1,7 -0.5714,0 -1,3 -1,7 0,4 -0.4286,7 -1,7 -0.55,0 -1,0.8625 -1,1.9167 0,1.0541 -0.5625,2.1791 -1.25,2.5 -1,0.4666 -1,0.7 0,1.1666 0.6879,0.3211 1.25,2.3445 1.25,4.5 0,2.1542 0.45,3.9167 1,3.9167 0.55,0 1,1.35 1,3 0,1.65 0.45,3 1,3 0.5556,0 1,2.6667 1,6 0,3.3333 0.4444,6 1,6 0.55,0 1,1.8 1,4 0,2.2 0.45,4 1,4 0.5556,0 1,2.6667 1,6 0,3.3333 0.4444,6 1,6 0.55,0 1,1.35 1,3 0,1.65 0.45,3 1,3 0.55,0 1,0.9 1,2 0,1.1 0.45,2 1,2 0.55,0 1,2.25 1,5 0,2.75 0.45,5 1,5 0.55,0 1,2.25 1,5 0,2.75 -0.45,5 -1,5 -0.55,0 -1,2.25 -1,5 0,2.75 -0.45,5 -1,5 -0.55,0 -1,1.3125 -1,2.9167 0,1.6041 -0.5625,3.1449 -1.25,3.4238 -0.9438,0.383 -0.8825,0.7895 0.25,1.6595 1.1325,0.87 1.1938,1.2765 0.25,1.6595 -0.6875,0.2789 -1.25,1.8197 -1.25,3.4238 0,1.6042 -0.45,2.9167 -1,2.9167 -0.55,0 -1,2.25 -1,5 0,2.75 -0.45,5 -1,5 -0.55,0 -1,2.25 -1,5 0,2.75 -0.45,5 -1,5 -0.6,0 -1,4 -1,10 0,6 -0.4,10 -1,10 -0.5714,0 -1,3 -1,7 0,4 0.4286,7 1,7 0.55,0 1,0.9 1,2 0,1.1 0.45,2 1,2 0.55,0 1,1.8 1,4 0,2.2 0.45,4 1,4 0.55,0 1,1.8 1,4 0,2.2 0.45,4 1,4 1.457,0 1.2274,7.7272 -0.25,8.4167 -1,0.4666 -1,0.7 0,1.1666 0.7934,0.3703 1.25,2.7445 1.25,6.5 0,3.2778 0.446,5.9167 1,5.9167 0.55,0 1,2.25 1,5 0,2.75 0.45,5 1,5 0.55,0 1,1.8 1,4 0,2.2 0.45,4 1,4 0.5926,0 1,3.6667 1,9 0,5.3333 0.4074,9 1,9 0.55,0 1,1.35 1,3 0,1.65 0.45,3 1,3 0.55,0 1,1.8 1,4 0,2.2 0.45,4 1,4 0.55,0 1,1.8 1,4 0,2.2 0.45,4 1,4 0.55,0 1,1.35 1,3 0,1.65 0.45,3 1,3 0.55,0 1,0.9 1,2 0,1.1 0.45,2 1,2 0.5556,0 1,2.6667 1,6 0,3.3333 0.4444,6 1,6 0.55,0 1,0.9 1,2 0,1.1 0.45,2 1,2 0.55,0 1,0.8625 1,1.9167 0,1.0541 0.5625,2.1449 1.25,2.4238 0.9412,0.3819 0.8795,0.7731 -0.25,1.5834 -1.3333,0.9565 -1.3333,1.1872 0,2.0761 1.3333,0.8889 1.3333,1.1196 0,2.0761 -1.1295,0.8103 -1.1912,1.2015 -0.25,1.5834 1.4813,0.601 1.6967,4.3405 0.25,4.3405 -1.8484,0 -1.0606,5.5148 1,7 1.3929,1.004 2,2.5887 2,5.2208 0,2.0785 0.45,3.7792 1,3.7792 0.5926,0 1,3.6667 1,9 0,5.3333 0.4074,9 1,9 0.55,0 1,1.8 1,4 0,2.2 0.45,4 1,4 0.5556,0 1,2.6667 1,6 0,3.3333 0.4444,6 1,6 0.5833,0 1,3.3333 1,8 0,4.6667 0.4167,8 1,8 0.55,0 1,1.2507 1,2.7792 0,1.6321 0.8255,3.3743 2,4.2208 1.1,0.7928 2,2.1428 2,3 0,0.8572 0.9,2.2072 2,3 1.1,0.7928 2,2.1428 2,3 0,0.8572 0.9,2.2072 2,3 1.1,0.7928 2,2.1428 2,3 0,0.8572 0.9,2.2072 2,3 1.1,0.7928 2,2.1428 2,3 0,0.8572 0.9,2.2072 2,3 1.1,0.7928 2,2.2422 2,3.2208 0,1.1125 0.7494,1.7792 2,1.7792 1.2506,0 2,0.6667 2,1.7792 0,0.9786 0.9,2.428 2,3.2208 1.1,0.7928 2,2.1428 2,3 0,0.8572 0.9,2.2072 2,3 1.1,0.7928 2,2.0616 2,2.8195 0,0.758 1.35,2.6392 3,4.1805 1.65,1.5413 3,3.4225 3,4.1805 0,0.7579 0.9,2.0267 2,2.8195 1.1,0.7928 2,2.0421 2,2.7761 0,0.7341 2.7,3.9848 6,7.2239 3.3,3.2391 6,6.4086 6,7.0434 0,0.6348 1.35,2.4153 3,3.9566 1.65,1.5413 3,3.4225 3,4.1805 0,0.7579 0.9,2.0267 2,2.8195 1.1,0.7928 2,2.0322 2,2.7541 0,1.8226 6.5952,8.2459 8.4667,8.2459 1.8243,0 2.0554,1.6593 0.3119,2.2405 -0.6757,0.2252 2.4517,4.0408 7,8.5405 4.5218,4.4734 8.2214,8.6231 8.2214,9.2217 0,1.6388 4.6908,5.9973 6.4546,5.9973 0.85,0 1.5454,0.6955 1.5454,1.5455 0,1.7652 4.3591,6.4545 6,6.4545 1.6409,0 6,4.6893 6,6.4545 0,0.8788 0.8628,1.5455 2,1.5455 1.3333,0 2,0.6667 2,2 0,1.3333 0.6667,2 2,2 1.3333,0 2,0.6667 2,2 0,1.3333 0.6667,2 2,2 1.3333,0 2,0.6667 2,2 0,1.3333 0.6667,2 2,2 1.1206,0 2,0.6667 2,1.5161 0,1.9757 14.5082,16.4839 16.4839,16.4839 0.8338,0 1.5161,0.6923 1.5161,1.5384 0,0.8461 4.05,5.5538 9,10.4616 4.95,4.9078 9,9.4349 9,10.0604 0,0.6254 1.35,2.3983 3,3.9396 1.65,1.5413 3,3.5219 3,4.4012 0,0.8793 0.45,1.5988 1,1.5988 0.55,0 1,0.8007 1,1.7792 0,0.9786 0.9,2.428 2,3.2208 1.1,0.7928 2,2.2422 2,3.2208 0,0.9785 0.45,1.7792 1,1.7792 0.55,0 1,0.7103 1,1.5784 0,0.8681 1.8,3.3078 4,5.4216 2.2,2.1138 4,4.3534 4,4.977 0,0.6236 2.7,3.7839 6,7.023 3.3,3.2391 6,6.3739 6,6.9664 0,1.3937 10.6249,12.0336 12.0167,12.0336 0.583,0 5.0755,4.05 9.9833,9 4.9078,4.95 9.4226,9 10.033,9 1.4313,0 3.967,2.5325 3.967,3.9619 0,1.4209 6.5936,8.0381 8.0094,8.0381 0.5919,0 4.6377,3.6 8.9906,8 4.3529,4.4 8.4281,8 9.056,8 0.6279,0 2.4027,1.35 3.944,3 1.5413,1.65 3.3413,3 4,3 0.6587,0 2.4587,1.35 4,3 1.5413,1.65 3.3322,3 3.9796,3 0.6475,0 2.9066,1.8 5.0204,4 2.1138,2.2 4.3729,4 5.0204,4 0.6474,0 2.4383,1.35 3.9796,3 1.5413,1.65 3.4225,3 4.1805,3 0.7579,0 2.0267,0.9 2.8195,2 0.7928,1.1 2.1428,2 3,2 0.8572,0 2.2072,0.9 3,2 0.7928,1.1 2.2422,2 3.2208,2 0.9785,0 1.7792,0.45 1.7792,1 0,0.55 0.9,1 2,1 1.1,0 2,0.45 2,1 0,0.55 0.9,1 2,1 1.1,0 2,0.45 2,1 0,0.55 0.9,1 2,1 1.1,0 2,0.45 2,1 0,0.55 0.9,1 2,1 1.1,0 2,0.45 2,1 0,0.55 0.9,1 2,1 1.1,0 2,0.45 2,1 0,0.55 1.7007,1 3.7792,1 2.6321,0 4.2168,0.6071 5.2208,2 1.2724,1.7654 2.5887,2 11.2208,2 5.8528,0 9.7792,0.4015 9.7792,1 0,0.55 0.7071,1 1.5714,1 2.8133,0 4.4286,2.7096 4.4286,7.4286 l 0,4.5714 -15,0 c -9.3333,0 -15,-0.3778 -15,-1 0,-0.5556 -2.6667,-1 -6,-1 -3.3333,0 -6,-0.4444 -6,-1 0,-0.55 -0.9,-1 -2,-1 -1.1,0 -2,-0.45 -2,-1 0,-0.55 -1.35,-1 -3,-1 -1.65,0 -3,-0.45 -3,-1 0,-0.55 -1.35,-1 -3,-1 -1.65,0 -3,-0.45 -3,-1 0,-0.55 -1.35,-1 -3,-1 -1.65,0 -3,-0.45 -3,-1 0,-0.55 -0.9,-1 -2,-1 -1.1,0 -2,-0.45 -2,-1 0,-0.55 -0.9,-1 -2,-1 -1.1,0 -2,-0.45 -2,-1 0,-0.55 -1.35,-1 -3,-1 -1.65,0 -3,-0.45 -3,-1 0,-0.55 -0.9,-1 -2,-1 -1.1,0 -2,-0.45 -2,-1 0,-0.55 -0.9,-1 -2,-1 -1.1,0 -2,-0.45 -2,-1 0,-0.55 -1.35,-1 -3,-1 -1.65,0 -3,-0.45 -3,-1 0,-0.55 -0.9,-1 -2,-1 -1.1,0 -2,-0.45 -2,-1 0,-0.55 -0.9,-1 -2,-1 -1.1,0 -2,-0.45 -2,-1 0,-0.55 -0.8007,-1 -1.7792,-1 -0.9786,0 -2.428,-0.9 -3.2208,-2 -0.7928,-1.1 -2.1428,-2 -3,-2 -0.8572,0 -2.2072,-0.9 -3,-2 -0.7928,-1.1 -2.2422,-2 -3.2208,-2 -0.9785,0 -1.7792,-0.45 -1.7792,-1 0,-0.55 -0.9,-1 -2,-1 -1.1304,0 -2,-0.6667 -2,-1.5333 0,-1.7584 -6.3743,-8.4667 -8.0451,-8.4667 -0.6114,0 -2.8411,-1.8 -4.9549,-4 -2.1138,-2.2 -4.3729,-4 -5.0204,-4 -0.6474,0 -2.4383,-1.35 -3.9796,-3 -1.5413,-1.65 -3.3322,-3 -3.9796,-3 -0.6475,0 -2.9066,-1.8 -5.0204,-4 -2.1138,-2.2 -4.3477,-4 -4.9644,-4 -0.6166,0 -4.6827,-3.6 -9.0356,-8 -4.3529,-4.4 -8.4129,-8 -9.0221,-8 -0.6093,0 -3.2993,-2.25 -5.9779,-5 -2.6786,-2.75 -5.3698,-5 -5.9805,-5 -1.5503,0 -6.0195,-4.6283 -6.0195,-6.2338 0,-0.7286 -0.9,-1.9734 -2,-2.7662 -1.1,-0.7928 -2,-2.0493 -2,-2.7922 0,-0.7429 -0.6664,-2.0171 -1.481,-2.8316 -1.3079,-1.3079 -1.892,-1.0698 -5,2.0381 -2.1732,2.1733 -3.519,4.4879 -3.519,6.0524 0,1.3933 -0.45,2.5333 -1,2.5333 -0.55,0 -1,0.8007 -1,1.7792 0,0.9786 -0.9,2.428 -2,3.2208 -1.1,0.7928 -2,2.2422 -2,3.2208 0,0.9785 -0.45,1.7792 -1,1.7792 -0.55,0 -1,0.9 -1,2 0,1.1 -0.45,2 -1,2 -0.55,0 -1,1.2507 -1,2.7792 0,1.6321 -0.8255,3.3743 -2,4.2208 -1.1745,0.8465 -2,2.5887 -2,4.2208 0,1.5285 -0.45,2.7792 -1,2.7792 -0.55,0 -1,1.2507 -1,2.7792 0,1.6321 -0.8255,3.3743 -2,4.2208 -1.1,0.7928 -2,2.2422 -2,3.2208 0,0.9785 -0.45,1.7792 -1,1.7792 -0.55,0 -1,0.9 -1,2 0,1.1 -0.45,2 -1,2 -0.55,0 -1,0.8007 -1,1.7792 0,0.9786 -0.9,2.428 -2,3.2208 -1.1745,0.8465 -2,2.5887 -2,4.2208 0,1.5285 -0.45,2.7792 -1,2.7792 -0.55,0 -1,0.9 -1,2 0,1.1 -0.45,2 -1,2 -0.55,0 -1,0.9 -1,2 0,1.1 -0.45,2 -1,2 -0.55,0 -1,0.9 -1,2 0,1.1 -0.45,2 -1,2 -0.55,0 -1,0.8007 -1,1.7792 0,0.9786 -0.9,2.428 -2,3.2208 -1.1745,0.8465 -2,2.5887 -2,4.2208 0,1.5285 -0.45,2.7792 -1,2.7792 -0.55,0 -1,0.9 -1,2 0,1.1 -0.45,2 -1,2 -0.55,0 -1,0.9 -1,2 0,1.1 -0.45,2 -1,2 -0.55,0 -1,0.9 -1,2 0,1.1 -0.45,2 -1,2 -0.55,0 -1,0.9 -1,2 0,1.1 -0.45,2 -1,2 -0.55,0 -1,0.9 -1,2 0,1.1 -0.45,2 -1,2 -0.55,0 -1,1.2507 -1,2.7792 0,1.6321 -0.8255,3.3743 -2,4.2208 -1.1745,0.8465 -2,2.5887 -2,4.2208 0,1.5285 -0.45,2.7792 -1,2.7792 -0.55,0 -1,1.35 -1,3 0,1.65 -0.45,3 -1,3 -0.55,0 -1,0.9 -1,2 0,1.1 -0.45,2 -1,2 -0.55,0 -1,0.8007 -1,1.7792 0,0.9786 -0.9,2.428 -2,3.2208 -1.1745,0.8465 -2,2.5887 -2,4.2208 0,1.5285 -0.45,2.7792 -1,2.7792 -0.55,0 -1,1.35 -1,3 0,1.65 -0.45,3 -1,3 -0.55,0 -1,0.9 -1,2 0,1.1 -0.45,2 -1,2 -0.55,0 -1,0.9 -1,2 0,1.1 -0.45,2 -1,2 -0.55,0 -1,0.9 -1,2 0,1.1 -0.45,2 -1,2 -0.55,0 -1,0.9 -1,2 0,1.1 -0.45,2 -1,2 -0.55,0 -1,1.35 -1,3 0,1.65 -0.45,3 -1,3 -0.55,0 -1,0.9 -1,2 0,1.1 -0.45,2 -1,2 -0.55,0 -1,1.35 -1,3 0,1.65 -0.45,3 -1,3 -0.55,0 -1,0.9 -1,2 0,1.1 -0.45,2 -1,2 -0.55,0 -1,0.9 -1,2 0,1.1 -0.45,2 -1,2 -0.55,0 -1,1.35 -1,3 0,1.65 0.45,3 1,3 0.55,0 1,1.8 1,4 0,2.2 0.45,4 1,4 0.554,0 1,2.6389 1,5.9167 0,3.7555 0.4566,6.1297 1.25,6.5 1,0.4666 1,0.7 0,1.1666 -1.4791,0.6903 -1.7022,6.4167 -0.25,6.4167 0.55,0 1,0.9 1,2 0,1.1 -0.45,2 -1,2 -0.55,0 -1,0.9 -1,2 0,1.1 -0.45,2 -1,2 -0.55,0 -1,0.9 -1,2 0,1.1 -0.45,2 -1,2 -0.55,0 -1,0.69 -1,1.5333 0,1.9904 -6.4763,8.4667 -8.4667,8.4667 -0.8666,0 -1.5333,0.8696 -1.5333,2 0,1.166 -0.6667,2 -1.5988,2 -0.8793,0 -2.8599,1.35 -4.4012,3 -1.5413,1.65 -3.3413,3 -4,3 -0.6587,0 -2.4587,1.35 -4,3 -1.5413,1.65 -3.3026,3 -3.914,3 -1.4507,0 -20.086,18.6353 -20.086,20.086 0,0.6114 -1.35,2.3727 -3,3.914 -1.65,1.5413 -3,3.5219 -3,4.4012 0,0.8793 -0.45,1.5988 -1,1.5988 -0.5789,0 -1,3.1996 -1,7.5988 0,7.1537 0.1757,7.7629 3,10.4012 1.65,1.5413 3,3.5219 3,4.4012 0,0.8793 0.45,1.5988 1,1.5988 0.5888,0 1,3.5216 1,8.5649 l 0,8.5649 5,4.8702 c 2.75,2.6786 5,5.5744 5,6.4351 0,0.8607 0.45,1.5649 1,1.5649 0.55,0 1,0.9 1,2 0,1.1 0.45,2 1,2 0.55,0 1,0.9 1,2 0,1.1 0.45,2 1,2 0.55,0 1,1.1314 1,2.5143 0,1.8215 2.3381,4.8524 8.4857,11 4.6672,4.6671 8.9565,8.4857 9.5319,8.4857 0.5754,0 5.9675,4.95 11.9824,11 6.0149,6.05 11.445,11 12.0669,11 0.6219,0 2.3918,1.35 3.9331,3 1.7233,1.8448 3.8031,3 5.4012,3 1.4293,0 2.5988,0.45 2.5988,1 0,0.55 2.25,1 5,1 2.75,0 5,0.45 5,1 0,0.5714 3,1 7,1 4,0 7,0.4286 7,1 0,0.55 1.8,1 4,1 2.2,0 4,0.45 4,1 0,0.619 5.3333,1 14,1 8.6667,0 14,-0.381 14,-1 0,-0.55 0.9,-1 2,-1 1.1,0 2,-0.45 2,-1 0,-0.55 2.25,-1 5,-1 2.75,0 5,0.45 5,1 0,0.55 1.35,1 3,1 1.65,0 3,-0.45 3,-1 0,-0.55 1.8,-1 4,-1 2.2,0 4,-0.45 4,-1 0,-0.55 1.35,-1 3,-1 1.65,0 3,-0.45 3,-1 0,-0.55 1.8,-1 4,-1 2.2,0 4,0.45 4,1 0,0.55 0.7071,1 1.5714,1 0.8643,0 2.2143,0.6429 3,1.4286 1.6152,1.6152 1.9631,8.5714 0.4286,8.5714 -0.55,0 -1,0.9 -1,2 0,1.1 -0.45,2 -1,2 -0.55,0 -1,0.9 -1,2 0,1.1 -0.45,2 -1,2 -0.55,0 -1,0.9 -1,2 0,1.1 -0.45,2 -1,2 -0.55,0 -1,0.9 -1,2 0,1.1 -0.45,2 -1,2 -0.55,0 -1,0.7195 -1,1.5988 0,0.8793 -1.35,2.8599 -3,4.4012 -1.65,1.5413 -3,3.3261 -3,3.9661 0,0.6401 -2.25,3.3553 -5,6.0339 -3.4346,3.3454 -5,5.6732 -5,7.4351 0,1.4107 -0.45,2.5649 -1,2.5649 -0.55,0 -1,1.8 -1,4 0,2.2 -0.45,4 -1,4 -0.55,0 -1,-0.45 -1,-1 0,-0.55 -1.8,-1 -4,-1 -2.2,0 -4,0.45 -4,1 0,0.55 -0.9,1 -2,1 -1.1,0 -2,0.45 -2,1 0,0.55 -1.35,1 -3,1 -1.65,0 -3,-0.45 -3,-1 0,-0.55 -0.9,-1 -2,-1 -1.1,0 -2,-0.45 -2,-1 0,-0.55 -1.35,-1 -3,-1 -1.65,0 -3,-0.45 -3,-1 0,-0.55 -0.9,-1 -2,-1 -1.1,0 -2,-0.45 -2,-1 0,-0.55 -1.35,-1 -3,-1 -1.65,0 -3,-0.45 -3,-1 0,-0.6377 -8.3333,-1 -23,-1 -14.6667,0 -23,-0.3623 -23,-1 0,-0.55 -1.35,-1 -3,-1 -1.65,0 -3,0.45 -3,1 0,0.55 -2.25,1 -5,1 -2.75,0 -5,-0.45 -5,-1 0,-0.55 -1.35,-1 -3,-1 -1.65,0 -3,-0.45 -3,-1 0,-0.6 -4,-1 -10,-1 -6,0 -10,-0.4 -10,-1 0,-0.55 -2.25,-1 -5,-1 -2.75,0 -5,-0.45 -5,-1 0,-1.5166 -13.7031,-1.279 -14.4167,0.25 -0.4666,1 -0.7,1 -1.1666,0 -0.4027,-0.8629 -3.3445,-1.25 -9.5,-1.25 -5.2778,0 -8.9167,-0.4081 -8.9167,-1 0,-0.55 -0.9,-1 -2,-1 -1.1,0 -2,-0.45 -2,-1 0,-0.6 -4,-1 -10,-1 -6,0 -10,-0.4 -10,-1 0,-0.55 -1.1695,-1 -2.5988,-1 -1.5981,0 -3.6779,-1.1552 -5.4012,-3 -2.1097,-2.2584 -3.692,-3 -6.4012,-3 -1.9793,0 -3.5988,-0.45 -3.5988,-1 0,-0.55 -0.9,-1 -2,-1 -1.1,0 -2,-0.45 -2,-1 0,-0.55 -1.35,-1 -3,-1 -1.65,0 -3,-0.45 -3,-1 0,-0.55 -1.8,-1 -4,-1 -2.2,0 -4,-0.45 -4,-1 0,-0.55 -1.35,-1 -3,-1 -1.65,0 -3,-0.45 -3,-1 0,-0.55 -0.8007,-1 -1.7792,-1 -0.9786,0 -2.428,-0.9 -3.2208,-2 -0.7928,-1.1 -2.1428,-2 -3,-2 -0.8572,0 -2.2072,-0.9 -3,-2 -0.7928,-1.1 -2.0216,-2 -2.7306,-2 C 734.7523,2100 710,2075.4973 710,2073.9955 710,2072.4958 693.2573,2056 691.735,2056 c -0.7114,0 -1.9422,-0.9 -2.735,-2 -0.7928,-1.1 -2.0616,-2 -2.8196,-2 -0.7579,0 -2.6391,-1.35 -4.1804,-3 -1.5413,-1.65 -3.4225,-3 -4.1804,-3 -0.758,0 -2.0268,-0.9 -2.8196,-2 -0.7928,-1.1 -2.2422,-2 -3.2208,-2 -0.9785,0 -1.7792,-0.45 -1.7792,-1 0,-0.55 -0.7103,-1 -1.5784,-1 -0.8681,0 -3.3078,-1.8 -5.4216,-4 -2.1138,-2.2 -4.4541,-4 -5.2008,-4 -0.7467,0 -2.0064,-0.9 -2.7992,-2 -0.7928,-1.1 -2.1428,-2 -3,-2 -0.8572,0 -2.2072,-0.9 -3,-2 -0.7928,-1.1 -2.0464,-2 -2.7857,-2 -0.7393,0 -3.5357,-2.25 -6.2143,-5 -2.6786,-2.75 -5.3743,-5 -5.9905,-5 -0.6161,0 -3.7704,-2.7 -7.0095,-6 -3.2391,-3.3 -6.3694,-6 -6.9562,-6 -1.3867,0 -22.0438,-20.6478 -22.0438,-22.0338 0,-1.6144 -4.708,-5.9662 -6.4545,-5.9662 -0.85,0 -1.5455,-0.45 -1.5455,-1 0,-0.55 -1.3125,-1 -2.9167,-1 -1.6041,0 -3.1028,-0.5585 -3.3303,-1.2411 -0.5507,-1.652 -3.753,1.4792 -3.753,3.6697 0,0.8643 -0.45,1.5714 -1,1.5714 -0.55,0 -1,0.9 -1,2 0,1.1 -0.45,2 -1,2 -0.55,0 -1,0.9 -1,2 0,1.1 -0.45,2 -1,2 -0.55,0 -1,0.9 -1,2 0,1.1 -0.45,2 -1,2 -0.55,0 -1,0.9 -1,2 0,1.1 -0.45,2 -1,2 -0.55,0 -1,1.35 -1,3 0,1.65 -0.45,3 -1,3 -0.55,0 -1,1.35 -1,3 0,1.65 -0.45,3 -1,3 -0.55,0 -1,0.9 -1,2 0,1.1 -0.45,2 -1,2 -0.55,0 -1,0.9 -1,2 0,1.1 -0.45,2 -1,2 -0.55,0 -1,1.35 -1,3 0,1.65 -0.45,3 -1,3 -0.55,0 -1,0.9 -1,2 0,1.1 -0.45,2 -1,2 -0.5556,0 -1,2.6667 -1,6 0,3.3333 -0.4444,6 -1,6 -1.4435,0 -1.2326,3.7248 0.25,4.4167 1,0.4666 1,0.7 0,1.1666 -0.6875,0.3209 -1.25,1.7965 -1.25,3.2793 0,1.5487 -0.851,3.3093 -2,4.1374 -1.1,0.7928 -2,2.2422 -2,3.2208 0,0.9785 -0.45,1.7792 -1,1.7792 -2.22447,0 -0.90225,5.2889 2,8 2.2585,2.1097 3,3.692 3,6.4012 0,1.9793 0.45,3.5988 1,3.5988 0.55,0 1,2.25 1,5 0,2.75 -0.45,5 -1,5 -0.55,0 -1,0.9 -1,2 0,1.1515 -0.6667,2 -1.5714,2 -2.0211,0 -4.4286,2.4075 -4.4286,4.4286 0,0.8643 -0.45,1.5714 -1,1.5714 -0.55,0 -1,1.8 -1,4 0,2.2 0.45,4 1,4 0.55,0 1,1.35 1,3 0,1.65 0.45,3 1,3 0.55,0 1,1.35 1,3 0,1.65 0.45,3 1,3 0.55,0 1,0.8625 1,1.9167 0,1.0541 0.5625,2.1791 1.25,2.5 1,0.4666 1,0.7 0,1.1666 -0.6875,0.3209 -1.25,1.7965 -1.25,3.2793 0,1.5487 -0.851,3.3093 -2,4.1374 -1.1,0.7928 -2,2.0376 -2,2.7662 0,1.8253 -4.56466,6.2338 -6.45455,6.2338 -0.87878,0 -1.54545,0.8627 -1.54545,2 0,1.1333 -0.66667,2 -1.53841,2 -0.84612,0 -5.55384,4.05 -10.46159,9 -4.90775,4.95 -9.61547,9 -10.46159,9 -0.84613,0 -1.53841,0.45 -1.53841,1 0,0.55 -0.71946,1 -1.59879,1 -0.87933,0 -2.85988,1.35 -4.40121,3 -1.72334,1.8448 -3.80309,3 -5.40121,3 -1.42933,0 -2.59879,0.45 -2.59879,1 0,0.55 -0.9,1 -2,1 -1.15152,0 -2,0.6667 -2,1.5714 0,2.0211 -2.40753,4.4286 -4.42857,4.4286 -0.86429,0 -1.57143,0.45 -1.57143,1 0,0.55 -0.80066,1 -1.77924,1 -0.97858,0 -2.42792,0.9 -3.22076,2 -0.79284,1.1 -2.14284,2 -3,2 -0.85716,0 -2.20716,0.9 -3,2 -0.79284,1.1 -2.14284,2 -3,2 -0.85716,0 -2.20716,0.9 -3,2 -0.84651,1.1745 -2.58869,2 -4.22076,2 -1.52858,0 -2.77924,0.45 -2.77924,1 0,0.55 -0.9,1 -2,1 -1.1,0 -2,0.45 -2,1 0,0.55 -1.35,1 -3,1 -1.65,0 -3,0.45 -3,1 0,0.55 -1.8,1 -4,1 -2.2,0 -4,0.45 -4,1 0,0.55 -2.25,1 -5,1 -2.75,0 -5,0.45 -5,1 0,0.55 -2.25,1 -5,1 -2.75,0 -5,0.45 -5,1 0,0.55 -1.8,1 -4,1 -2.2,0 -4,0.45 -4,1 0,0.5556 -2.66667,1 -6,1 -3.33333,0 -6,0.4444 -6,1 0,0.55 -0.9,1 -2,1 -1.1,0 -2,0.45 -2,1 0,0.55 -2.1375,0.9793 -4.75,0.9539 -4.23311,-0.041 -5.13086,-0.4713 -8.25,-3.9539 z M 262,2041 c 2.10971,-2.2584 3.69198,-3 6.40121,-3 1.97933,0 3.59879,-0.45 3.59879,-1 0,-0.55 0.80066,-1 1.77924,-1 0.97858,0 2.42792,-0.9 3.22076,-2 0.79284,-1.1 2.06163,-2 2.81955,-2 0.75792,0 2.63912,-1.35 4.18045,-3 1.54133,-1.65 3.30872,-3 3.92753,-3 1.68838,0 10.07247,-8.718 10.07247,-10.4737 0,-0.8395 0.70714,-1.5263 1.57143,-1.5263 2.81326,0 4.42857,-2.7096 4.42857,-7.4286 0,-2.5143 0.45,-4.5714 1,-4.5714 1.55334,0 1.31146,-21.688 -0.25,-22.4167 -1,-0.4666 -1,-0.7 0,-1.1666 1.48262,-0.6919 1.69346,-4.4167 0.25,-4.4167 -0.59259,0 -1,-3.6667 -1,-9 0,-5.3333 -0.40741,-9 -1,-9 -0.55,0 -1,-1.8 -1,-4 0,-2.2 -0.45,-4 -1,-4 -0.55,0 -1,-1.8 -1,-4 0,-2.2 -0.45,-4 -1,-4 -0.55,0 -1,-2.25 -1,-5 0,-2.75 -0.45,-5 -1,-5 -0.55,0 -1,-0.9 -1,-2 0,-1.1 -0.45,-2 -1,-2 -0.55,0 -1,-1.2507 -1,-2.7792 0,-1.6321 -0.82553,-3.3743 -2,-4.2208 -1.39291,-1.004 -2,-2.5887 -2,-5.2208 0,-2.0785 -0.45,-3.7792 -1,-3.7792 -0.55556,0 -1,-2.6667 -1,-6 0,-3.3333 -0.44444,-6 -1,-6 -0.55,0 -1,-1.35 -1,-3 0,-1.65 -0.45,-3 -1,-3 -0.55,0 -1,-1.8 -1,-4 0,-2.2 -0.45,-4 -1,-4 -0.55556,0 -1,-2.6667 -1,-6 0,-3.3333 -0.44444,-6 -1,-6 -0.57143,0 -1,-3 -1,-7 0,-4 -0.42857,-7 -1,-7 -0.57143,0 -1,-3 -1,-7 0,-4 -0.42857,-7 -1,-7 -0.55,0 -1,-1.8 -1,-4 0,-2.2 -0.45,-4 -1,-4 -0.55,0 -1,-1.8 -1,-4 0,-2.2 -0.45,-4 -1,-4 -0.55,0 -1,-0.9 -1,-2 0,-1.1 -0.45,-2 -1,-2 -0.55,0 -1,-1.35 -1,-3 0,-1.65 -0.45,-3 -1,-3 -0.55,0 -1,-1.8 -1,-4 0,-2.2 -0.45,-4 -1,-4 -0.55,0 -1,-1.35 -1,-3 0,-1.65 -0.45,-3 -1,-3 -0.55,0 -1,-1.8 -1,-4 0,-2.2 -0.45,-4 -1,-4 -0.55,0 -1,-1.8 -1,-4 0,-2.2 -0.45,-4 -1,-4 -0.55,0 -1,-0.9 -1,-2 0,-1.1 -0.45,-2 -1,-2 -0.55,0 -1,-1.35 -1,-3 0,-1.65 -0.45,-3 -1,-3 -0.55,0 -1,-0.9 -1,-2 0,-1.1 -0.45,-2 -1,-2 -0.55,0 -1,-1.35 -1,-3 0,-1.65 -0.45,-3 -1,-3 -0.55,0 -1,-1.8 -1,-4 0,-2.2 -0.45,-4 -1,-4 -0.55556,0 -1,-2.6667 -1,-6 0,-3.3333 -0.44444,-6 -1,-6 -0.55,0 -1,-1.8 -1,-4 0,-2.2 -0.45,-4 -1,-4 -0.55,0 -1,-0.9 -1,-2 0,-1.1 -0.45,-2 -1,-2 -0.55,0 -1,-1.35 -1,-3 0,-1.65 -0.45,-3 -1,-3 -0.58333,0 -1,-3.3333 -1,-8 0,-4.6667 -0.41667,-8 -1,-8 -0.6,0 -1,-4 -1,-10 0,-6 -0.4,-10 -1,-10 -0.55,0 -1,-1.8 -1,-4 0,-2.2 -0.45,-4 -1,-4 -0.55,0 -1,-0.9 -1,-2 0,-1.1 -0.45,-2 -1,-2 -0.55,0 -1,-0.8007 -1,-1.7792 0,-0.9786 -0.9,-2.428 -2,-3.2208 -1.1,-0.7928 -2,-2.1428 -2,-3 0,-0.8572 -0.9,-2.2072 -2,-3 -1.1,-0.7928 -2,-2.1428 -2,-3 0,-0.8572 -0.9,-2.2072 -2,-3 -1.1,-0.7928 -2,-2.2422 -2,-3.2208 0,-0.9785 -0.45,-1.7792 -1,-1.7792 -0.55556,0 -1,-2.6667 -1,-6 0,-3.3333 -0.44444,-6 -1,-6 -0.64412,0 -1,-10.5238 -1,-29.5714 C 218,1587.4429 217.80295,1586 213.57143,1586 212.70714,1586 212,1585.55 212,1585 c 0,-0.55 -1.14545,-1 -2.54545,-1 -1.4,0 -3.65,-1.1045 -5,-2.4545 -2.0159,-2.0159 -2.45455,-3.4456 -2.45455,-8 0,-4.8788 0.24044,-5.5455 2,-5.5455 1.33333,0 2,-0.6667 2,-2 0,-1.1 0.45,-2 1,-2 0.55,0 1,-1.35 1,-3 0,-1.65 0.45,-3 1,-3 0.55,0 1,-1.35 1,-3 0,-1.65 0.45,-3 1,-3 0.55,0 1,-1.35 1,-3 0,-1.65 0.45,-3 1,-3 0.55,0 1,-1.35 1,-3 0,-1.65 0.45,-3 1,-3 0.59259,0 1,-3.6667 1,-9 0,-5.3333 0.40741,-9 1,-9 0.55,0 1,-1.35 1,-3 0,-1.65 0.45,-3 1,-3 0.55,0 1,-1.35 1,-3 0,-1.65 0.45,-3 1,-3 0.55,0 1,-1.35 1,-3 0,-1.65 0.45,-3 1,-3 0.55,0 1,-1.8 1,-4 0,-2.2 0.45,-4 1,-4 0.55,0 1,-1.35 1,-3 0,-1.65 0.45,-3 1,-3 0.55,0 1,-1.8 1,-4 0,-2.2 0.45,-4 1,-4 0.57143,0 1,-3 1,-7 0,-4 0.42857,-7 1,-7 0.55,0 1,-1.8 1,-4 0,-2.2 0.45,-4 1,-4 0.55,0 1,-1.8 1,-4 0,-2.2 0.45,-4 1,-4 0.55,0 1,-0.9 1,-2 0,-1.1 0.45,-2 1,-2 0.55,0 1,-1.35 1,-3 0,-1.65 0.45,-3 1,-3 0.55,0 1,-1.35 1,-3 0,-1.65 0.45,-3 1,-3 0.55,0 1,-1.8 1,-4 0,-2.2 0.45,-4 1,-4 0.55,0 1,-1.35 1,-3 0,-1.65 0.45,-3 1,-3 0.55,0 1,-1.8 1,-4 0,-2.2 0.45,-4 1,-4 0.55,0 1,-0.9 1,-2 0,-1.1 0.45,-2 1,-2 0.55,0 1,-0.9 1,-2 0,-1.1 0.45,-2 1,-2 0.55,0 1,-1.35 1,-3 0,-1.65 0.45,-3 1,-3 0.55,0 1,-1.35 1,-3 0,-1.65 0.45,-3 1,-3 0.55,0 1,-1.35 1,-3 0,-1.65 0.45,-3 1,-3 0.55,0 1,-0.9 1,-2 0,-1.1 0.45,-2 1,-2 0.55,0 1,-0.9 1,-2 0,-1.1 0.45,-2 1,-2 0.55,0 1,-1.35 1,-3 0,-1.65 0.45,-3 1,-3 0.55,0 1,-1.35 1,-3 0,-1.65 0.45,-3 1,-3 0.55,0 1,-1.8 1,-4 0,-2.2 0.45,-4 1,-4 0.55,0 1,-1.8 1,-4 0,-2.2 0.45,-4 1,-4 0.55,0 1,-1.8 1,-4 0,-2.2 0.45,-4 1,-4 0.55,0 1,-1.35 1,-3 0,-1.65 0.45,-3 1,-3 0.55,0 1,-0.9 1,-2 0,-1.1 0.45,-2 1,-2 0.55,0 1,-1.35 1,-3 0,-1.65 0.45,-3 1,-3 0.55,0 1,-1.35 1,-3 0,-1.65 0.45,-3 1,-3 0.55,0 1,-1.35 1,-3 0,-1.65 0.45,-3 1,-3 0.55,0 1,-1.35 1,-3 0,-1.65 0.45,-3 1,-3 0.55,0 1,-0.9 1,-2 0,-1.1 0.45,-2 1,-2 0.55,0 1,-0.9 1,-2 0,-1.1 0.45,-2 1,-2 0.55556,0 1,-2.6667 1,-6 0,-3.3333 0.44444,-6 1,-6 0.55,0 1,-1.8 1,-4 0,-2.2 0.45,-4 1,-4 0.60606,0 1,-4.3333 1,-11 0,-6.6667 0.39394,-11 1,-11 0.55,0 1,-2.25 1,-5 0,-2.75 0.45,-5 1,-5 0.55,0 1,-1.8 1,-4 0,-2.2 0.45,-4 1,-4 0.55,0 1,-1.35 1,-3 0,-1.65 0.45,-3 1,-3 0.55,0 1,-0.9 1,-2 0,-1.1 0.45,-2 1,-2 0.55,0 1,-0.8007 1,-1.7792 0,-0.9786 0.9,-2.428 2,-3.2208 1.17447,-0.8465 2,-2.5887 2,-4.2208 0,-1.5285 0.45,-2.7792 1,-2.7792 0.55,0 1,-0.9 1,-2 0,-1.1 0.45,-2 1,-2 0.55,0 1,-0.9 1,-2 0,-1.1 0.45,-2 1,-2 0.55,0 1,-0.9 1,-2 0,-1.1 0.45,-2 1,-2 0.55,0 1,-1.35 1,-3 0,-1.65 0.45,-3 1,-3 0.55,0 1,-0.8007 1,-1.7792 0,-0.9786 0.9,-2.428 2,-3.2208 1.1,-0.7928 2,-2.2422 2,-3.2208 0,-0.9785 0.45,-1.7792 1,-1.7792 0.55,0 1,-0.9 1,-2 0,-1.1 0.45,-2 1,-2 0.55,0 1,-1.35 1,-3 0,-1.65 0.45,-3 1,-3 0.55,0 1,-1.35 1,-3 0,-1.65 0.45,-3 1,-3 0.55,0 1,-1.35 1,-3 0,-1.65 -0.45,-3 -1,-3 -0.55,0 -1,-1.6195 -1,-3.5988 0,-2.7092 -0.74155,-4.2915 -3,-6.4012 -1.65,-1.5413 -3,-3.3218 -3,-3.9566 0,-0.6348 -2.7,-3.8043 -6,-7.0434 -3.3,-3.2391 -6,-6.5892 -6,-7.4446 0,-0.8555 -0.45,-1.5554 -1,-1.5554 -0.55,0 -1,-0.9 -1,-2 0,-1.1 -0.45,-2 -1,-2 -0.55,0 -1,-0.9 -1,-2 0,-1.1 -0.45,-2 -1,-2 -0.55,0 -1,-0.7195 -1,-1.5988 0,-0.8793 -1.35,-2.8599 -3,-4.4012 -1.65,-1.5413 -3,-3.4225 -3,-4.1805 0,-0.7579 -0.9,-2.0267 -2,-2.8195 -1.1,-0.7928 -2,-2.1428 -2,-3 0,-0.8572 -0.9,-2.2072 -2,-3 -1.1,-0.7928 -2,-2.2422 -2,-3.2208 0,-0.9785 -0.45,-1.7792 -1,-1.7792 -0.55,0 -1,-1.35 -1,-3 0,-1.65 -0.45,-3 -1,-3 -0.55,0 -1,-0.8007 -1,-1.7792 0,-0.9786 -0.9,-2.428 -2,-3.2208 -1.1,-0.7928 -2,-2.1428 -2,-3 0,-0.8572 -0.9,-2.2072 -2,-3 -1.1,-0.7928 -2,-2.0464 -2,-2.7857 0,-0.7393 -2.25,-3.5357 -5,-6.2143 -2.75,-2.6786 -5,-5.5744 -5,-6.4351 0,-0.8607 -0.45,-1.5649 -1,-1.5649 -0.55,0 -1,-0.9 -1,-2 0,-1.1 -0.45,-2 -1,-2 -0.55,0 -1,-0.9 -1,-2 0,-1.1 -0.45,-2 -1,-2 -0.55,0 -1,-2.25 -1,-5 0,-2.75 -0.45,-5 -1,-5 -0.57143,0 -1,-3 -1,-7 0,-4 -0.42857,-7 -1,-7 -0.55,0 -1,-1.35 -1,-3 0,-1.65 -0.45,-3 -1,-3 -0.55,0 -1,-1.35 -1,-3 0,-1.65 -0.45,-3 -1,-3 -0.55,0 -1,-1.8 -1,-4 0,-2.2 -0.45,-4 -1,-4 -0.55,0 -1,-1.8 -1,-4 0,-2.2 -0.45,-4 -1,-4 -0.55,0 -1,-2.25 -1,-5 0,-2.75 -0.45,-5 -1,-5 -0.55,0 -1,-1.8 -1,-4 0,-2.2 -0.45,-4 -1,-4 -0.55,0 -1,-1.35 -1,-3 0,-1.65 -0.45,-3 -1,-3 -0.55,0 -1,-0.9 -1,-2 0,-1.1 -0.45,-2 -1,-2 -0.55,0 -1,-1.35 -1,-3 0,-1.65 -0.45,-3 -1,-3 -0.55,0 -1,-2.25 -1,-5 0,-2.75 -0.45,-5 -1,-5 -0.6,0 -1,-4 -1,-10 0,-6 -0.4,-10 -1,-10 -0.55,0 -1,-2.25 -1,-5 0,-2.75 -0.45,-5 -1,-5 -0.56833,0 -1,-2.92641 -1,-6.77924 0,-5.63207 -0.33844,-7.02317 -2,-8.22076 -1.1,-0.79284 -2,-2.02902 -2,-2.74708 C 228,920.55413 219.44587,912 217.74708,912 c -0.71806,0 -1.95424,-0.9 -2.74708,-2 -0.79284,-1.1 -2.03218,-2 -2.75409,-2 C 210.65554,908 204,901.51219 204,899.9619 204,898.34039 201.38394,896 199.57143,896 198.70714,896 198,895.55 198,895 c 0,-0.55 -1.35,-1 -3,-1 -1.65,0 -3,-0.45 -3,-1 0,-0.55 -0.80066,-1 -1.77924,-1 -0.97858,0 -2.42792,-0.9 -3.22076,-2 -0.79284,-1.1 -2.14284,-2 -3,-2 -0.85716,0 -2.20716,-0.9 -3,-2 -0.79284,-1.1 -2.14284,-2 -3,-2 -0.85716,0 -2.20716,-0.9 -3,-2 -0.79284,-1.1 -2.03763,-2 -2.76621,-2 C 170.61023,880 166,875.52322 166,873.94666 c 0,-0.62933 -1.35,-2.40533 -3,-3.94666 -1.65,-1.54133 -3,-3.52188 -3,-4.40121 C 160,864.71946 159.55,864 159,864 c -0.55,0 -1,-0.80066 -1,-1.77924 0,-0.97858 -0.9,-2.42792 -2,-3.22076 -1.17447,-0.84651 -2,-2.58869 -2,-4.22076 C 154,853.25066 153.55,852 153,852 c -0.55,0 -1,-0.67448 -1,-1.49886 0,-0.82437 -1.8,-3.35363 -4,-5.62058 -2.2,-2.26695 -4,-4.74246 -4,-5.50114 0,-0.75868 -0.3375,-1.39492 -0.75,-1.41386 -0.69618,-0.032 -4.79923,-5.294 -17.28795,-22.17128 C 123.23292,812.10614 121,808.59327 121,807.98791 121,806.47404 114.87229,801 113.17764,801 c -1.11233,0 -1.26288,1.77593 -0.78416,9.25 0.32586,5.0875 0.84149,13.75 1.14584,19.25 0.30435,5.5 1.07198,11.32171 1.70585,12.93712 1.29324,3.29584 1.0728,10.88429 -0.33106,11.39621 C 113.67131,854.28652 113.74786,858 115,858 c 0.55,0 1,2.25 1,5 0,2.75 0.45,5 1,5 0.55556,0 1,2.66667 1,6 0,3.33333 0.44444,6 1,6 0.55,0 1,2.25 1,5 0,2.75 0.45,5 1,5 0.60606,0 1,4.33333 1,11 0,6.66667 0.39394,11 1,11 0.57143,0 1,3 1,7 0,4 0.42857,7 1,7 0.63768,0 1,8.33333 1,23 0,14.66667 0.36232,23 1,23 0.57143,0 1,3 1,7 0,4 0.42857,7 1,7 0.6,0 1,4 1,10 0,6 0.4,10 1,10 0.58333,0 1,3.3333 1,8 0,4.6667 0.41667,8 1,8 0.58333,0 1,3.3333 1,8 0,4.6667 0.41667,8 1,8 0.58333,0 1,3.3333 1,8 0,4.6667 0.41667,8 1,8 0.59259,0 1,3.6667 1,9 0,5.3333 0.40741,9 1,9 0.59259,0 1,3.6667 1,9 0,5.3333 0.40741,9 1,9 0.60606,0 1,4.3333 1,11 0,6.6667 0.39394,11 1,11 0.55,0 1,1.8 1,4 0,2.2 -0.45,4 -1,4 -0.55,0 -1,0.9 -1,2 0,1.1 0.45,2 1,2 0.55,0 1,1.8 1,4 0,2.2 0.45,4 1,4 0.58333,0 1,3.3333 1,8 0,4.6667 0.41667,8 1,8 0.6,0 1,4 1,10 0,6 0.4,10 1,10 0.58333,0 1,3.3333 1,8 0,4.6667 0.41667,8 1,8 0.55,0 1,2.25 1,5 0,2.75 0.45,5 1,5 0.55,0 1,1.35 1,3 0,1.65 -0.45,3 -1,3 -0.55,0 -1,0.9 -1,2 0,1.1 0.45,2 1,2 0.57143,0 1,3 1,7 0,4 0.42857,7 1,7 0.62222,0 1,5.6667 1,15 0,9.3333 0.37778,15 1,15 0.55,0 1,1.8 1,4 0,2.2 0.45,4 1,4 0.6,0 1,4 1,10 0,6 0.4,10 1,10 0.55556,0 1,2.6667 1,6 0,3.3333 0.44444,6 1,6 0.55,0 1,2.25 1,5 0,2.75 0.45,5 1,5 1.45224,0 1.22914,5.7264 -0.25,6.4167 -1,0.4666 -1,0.7 0,1.1666 0.86293,0.4027 1.25,3.3445 1.25,9.5 0,5.2778 0.4081,8.9167 1,8.9167 0.6,0 1,4 1,10 0,6 0.4,10 1,10 0.57143,0 1,3 1,7 0,4 0.42857,7 1,7 0.6,0 1,4 1,10 0,6 0.4,10 1,10 0.57143,0 1,3 1,7 0,4 0.42857,7 1,7 0.55556,0 1,2.6667 1,6 0,3.3333 0.44444,6 1,6 0.55,0 1,0.8625 1,1.9167 0,1.0541 0.5625,2.1791 1.25,2.5 1,0.4666 1,0.7 0,1.1666 -1.54898,0.7229 -1.78917,18.4167 -0.25,18.4167 0.57143,0 1,3 1,7 0,4 0.42857,7 1,7 0.57143,0 1,3 1,7 0,4 0.42857,7 1,7 0.55556,0 1,2.6667 1,6 0,3.3333 0.44444,6 1,6 0.55,0 1,0.9 1,2 0,1.1 0.45,2 1,2 1.44672,0 1.23134,3.7395 -0.25,4.3405 -0.94121,0.3819 -0.87946,0.7731 0.25,1.5834 1.33333,0.9565 1.33333,1.1957 0,2.1522 -1.12946,0.8103 -1.19121,1.2015 -0.25,1.5834 1.48134,0.601 1.69672,4.3405 0.25,4.3405 -0.55,0 -1,1.8 -1,4 0,2.2 0.45,4 1,4 0.58333,0 1,3.3333 1,8 0,4.6667 0.41667,8 1,8 0.57143,0 1,3 1,7 0,4 0.42857,7 1,7 0.58333,0 1,3.3333 1,8 0,4.6667 0.41667,8 1,8 0.61111,0 1,4.6667 1,12 0,7.3333 0.38889,12 1,12 0.59259,0 1,3.6667 1,9 0,5.3333 0.40741,9 1,9 0.55,0 1,2.25 1,5 0,2.75 0.45,5 1,5 0.60606,0 1,4.3333 1,11 0,6.6667 0.39394,11 1,11 0.55,0 1,1.35 1,3 0,1.65 0.45,3 1,3 0.62745,0 1,6.3333 1,17 0,10.6667 0.37255,17 1,17 0.55556,0 1,2.6667 1,6 0,3.3333 0.44444,6 1,6 0.63158,0 1,7 1,19 0,12 0.36842,19 1,19 0.55556,0 1,2.6667 1,6 0,3.3333 0.44444,6 1,6 0.55556,0 1,2.6667 1,6 0,3.3333 0.44444,6 1,6 0.55,0 1,1.8 1,4 0,2.2 0.45,4 1,4 0.55,0 1,2.25 1,5 0,2.75 0.45,5 1,5 0.55,0 1,2.25 1,5 0,2.75 0.45,5 1,5 0.6,0 1,4 1,10 0,6 0.4,10 1,10 0.55,0 1,1.35 1,3 0,1.65 0.45,3 1,3 0.55,0 1,2.2125 1,4.9167 0,2.9555 0.49859,5.1493 1.25,5.5 1,0.4666 1,0.7 0,1.1666 -1.49859,0.6994 -1.73181,10.4167 -0.25,10.4167 0.55556,0 1,2.6667 1,6 0,3.3333 0.44444,6 1,6 0.60606,0 1,4.3333 1,11 0,6.6667 0.39394,11 1,11 0.58333,0 1,3.3333 1,8 0,4.6667 0.41667,8 1,8 0.55,0 1,1.8 1,4 0,2.2 0.45,4 1,4 0.55,0 1,1.8 1,4 0,2.2 0.45,4 1,4 0.59259,0 1,3.6667 1,9 0,5.3333 0.40741,9 1,9 0.55556,0 1,2.6667 1,6 0,3.3333 0.44444,6 1,6 0.58333,0 1,3.3333 1,8 0,4.6667 0.41667,8 1,8 0.55,0 1,1.8 1,4 0,2.2 0.45,4 1,4 0.59259,0 1,3.6667 1,9 0,5.3333 0.40741,9 1,9 0.55556,0 1,2.6667 1,6 0,3.3333 0.44444,6 1,6 0.55,0 1,2.25 1,5 0,2.75 0.45,5 1,5 1.45224,0 1.22914,5.7264 -0.25,6.4167 -1,0.4666 -1,0.7 0,1.1666 0.75141,0.3507 1.25,2.5445 1.25,5.5 0,2.7042 0.45,4.9167 1,4.9167 0.6,0 1,4 1,10 0,6 0.4,10 1,10 0.58333,0 1,3.3333 1,8 0,4.6667 0.41667,8 1,8 0.55,0 1,1.2507 1,2.7792 0,1.6321 0.82553,3.3743 2,4.2208 1.1,0.7928 2,1.7922 2,2.2208 0,0.4285 -0.9,0.7792 -2,0.7792 -1.1,0 -2,0.45 -2,1 0,0.55 0.45,1 1,1 0.57143,0 1,3 1,7 0,3.85 0.26946,7 0.59879,7 0.32933,0 1.85988,-1.35 3.40121,-3 z"
     id="path2987"
     inkscape:connector-curvature="0" />
</svg>
