<?xml version="1.0" encoding="UTF-8" standalone="no"?>
<!-- Created with Inkscape (http://www.inkscape.org/) -->

<svg
   xmlns:dc="http://purl.org/dc/elements/1.1/"
   xmlns:cc="http://creativecommons.org/ns#"
   xmlns:rdf="http://www.w3.org/1999/02/22-rdf-syntax-ns#"
   xmlns:svg="http://www.w3.org/2000/svg"
   xmlns="http://www.w3.org/2000/svg"
   xmlns:sodipodi="http://sodipodi.sourceforge.net/DTD/sodipodi-0.dtd"
   xmlns:inkscape="http://www.inkscape.org/namespaces/inkscape"
   id="svg2"
   version="1.1"
   inkscape:version="0.48.2 r9819"
   width="1399.0006"
   height="1041.6184"
   sodipodi:docname="C - Horseman.png">
  <metadata
     id="metadata8">
    <rdf:RDF>
      <cc:Work
         rdf:about="">
        <dc:format>image/svg+xml</dc:format>
        <dc:type
           rdf:resource="http://purl.org/dc/dcmitype/StillImage" />
        <dc:title></dc:title>
      </cc:Work>
    </rdf:RDF>
  </metadata>
  <defs
     id="defs6" />
  <sodipodi:namedview
     pagecolor="#ffffff"
     bordercolor="#666666"
     borderopacity="1"
     objecttolerance="10"
     gridtolerance="10"
     guidetolerance="10"
     inkscape:pageopacity="0"
     inkscape:pageshadow="2"
     inkscape:window-width="1600"
     inkscape:window-height="876"
     id="namedview4"
     showgrid="false"
     fit-margin-top="0"
     fit-margin-left="0"
     fit-margin-right="0"
     fit-margin-bottom="0"
     inkscape:zoom="0.5"
     inkscape:cx="645.0004"
     inkscape:cy="511.74806"
     inkscape:window-x="0"
     inkscape:window-y="24"
     inkscape:window-maximized="1"
     inkscape:current-layer="svg2" />
  <path
     style="fill:#000000"
     d="m 632.4526,1040.9678 c -3.3263,-0.3286 -7.248,-1.385 -8.7148,-2.3475 -1.4669,-0.9625 -3.1643,-1.75 -3.772,-1.75 -1.4133,0 -9.5627,-5.5674 -13.4654,-9.1991 -1.65,-1.5354 -3.537,-2.7937 -4.1933,-2.7963 -0.6563,0 -1.7813,-0.794 -2.5,-1.7589 -0.7187,-0.9648 -3.5502,-2.6647 -6.2923,-3.7775 -6.3507,-2.5773 -7.6416,-5.4913 -4.9105,-11.0848 1.1706,-2.3975 3.3264,-4.6486 5.6343,-5.8834 4.2544,-2.2762 5.1769,-3.85576 3.7781,-6.46956 -1.5785,-2.9494 -16.5095,-14.9271 -20.6816,-16.5909 -13.5746,-5.4132 -15.5226,-6.6188 -22.8347,-14.1323 -3.85,-3.956 -11.95,-11.2728 -18,-16.2595 -6.05,-4.9868 -12.6391,-10.5839 -14.6425,-12.4381 -2.0034,-1.85422 -4.0796,-3.53742 -4.6138,-3.74045 -1.1603,-0.44106 -13.95,-11.62451 -16.147,-14.11915 -0.8477,-0.9625 -1.9509,-1.75 -2.4517,-1.75 -0.5007,0 -1.6382,-0.8051 -2.5277,-1.78911 -0.8895,-0.98401 -4.5423,-3.73867 -8.1173,-6.12145 -3.575,-2.38278 -7.85,-5.53749 -9.5,-7.01045 -1.65,-1.47297 -4.35,-3.32041 -6,-4.10542 -3.4423,-1.63774 -20.3227,-12.76095 -22.3607,-14.73444 -2.6374,-2.55399 -11.1119,-6.23917 -14.3561,-6.24287 -3.832,-0.004 -9.051,-2.94354 -13.0837,-7.36832 -6.5755,-7.21481 -7.4749,-16.3817 -2.6634,-27.14691 5.8769,-13.14921 7.3189,-15.98878 10.908,-21.48103 1.9768,-3.025 5.0552,-8.78226 6.8408,-12.79391 1.7856,-4.01165 5.1085,-10.31165 7.3843,-14 6.8864,-11.16063 8.8308,-15.78962 8.8308,-21.02305 0,-5.22911 -2.387,-13.42942 -4.394,-15.09507 -0.9043,-0.75051 -4.8953,0.78599 -14.4851,5.57656 -15.7936,7.88972 -16.8954,8.08103 -54.1209,9.39742 -37.0485,1.31013 -51.7586,2.45851 -71.4575,5.5785 -2.1766,0.34475 -5.4391,1.46668 -7.25,2.49318 -1.8109,1.0265 -4.98,2.80596 -7.0425,3.95434 -4.2257,2.35283 -4.6361,2.76428 -15.8867,15.92791 -4.4731,5.23373 -9.0848,11.64623 -10.2481,14.25 -1.1634,2.60377 -2.9742,6.66695 -4.024,9.02929 -3.476,7.82137 -6.0912,16.97555 -6.0912,21.3212 0,4.2247 -1.3982,10.56639 -4.2737,19.38363 -0.8071,2.475 -2.0225,7.875 -2.7007,12 -0.6783,4.125 -1.4779,8.175 -1.7768,9 -0.299,0.825 -0.8538,6.5818 -1.2329,12.79289 -0.8082,13.23786 -2.1499,15.9049 -9.105,18.09794 -2.426,0.76496 -10.1286,5.15246 -17.117,9.75 -6.9884,4.59754 -13.2073,8.35917 -13.8198,8.35917 -0.6126,0 -2.9948,1.25701 -5.2939,2.7934 -5.7213,3.8231 -9.1882,5.2066 -13.0472,5.2066 -2.2639,0 -4.4847,1.0329 -7.203,3.35 -2.1615,1.8425 -5.6954,3.7637 -7.8531,4.2693 -3.1085,0.7285 -4.1213,1.5383 -4.8773,3.9 -2.1232,6.6326 -6.1308,8.8417 -18.0079,9.9265 -3.7445,0.342 -10.9263,1.9566 -15.9594,3.588 -5.0332,1.6314 -10.4366,2.9662 -12.0075,2.9662 -9.0861,0 -12.8491,-8.9203 -6.7654,-16.0378 1.6276,-1.9042 2.9776,-3.8244 3,-4.2671 0.1145,-2.2684 9.3305,-14.09324 16.1293,-20.6951 10.7374,-10.4265 16.2956,-14.89604 20.1273,-16.18524 1.8062,-0.60772 3.8288,-1.53005 4.4946,-2.04961 1.7424,-1.35962 9.9499,-1.29183 11.6221,0.096 0.7797,0.64714 1.7042,2.96812 2.0543,5.15774 l 0.6366,3.98112 4.9412,0 c 6.0481,0 9.4643,-1.45154 10.9163,-4.63834 0.6059,-1.32978 1.7445,-2.66449 2.5302,-2.966 1.3132,-0.50393 3.4359,-4.41784 8.0787,-14.89566 2.0495,-4.62526 6.7578,-10.67546 14.3897,-18.49093 7.869,-8.05836 8.1087,-8.61216 9.1521,-21.14948 0.7009,-8.42181 1.7407,-13.55783 4.0204,-19.85959 1.6912,-4.675 3.7603,-10.975 4.598,-14 0.8377,-3.025 1.9595,-7.075 2.4928,-9 0.5334,-1.925 1.4227,-5.075 1.9762,-7 0.5535,-1.925 1.401,-6.425 1.8833,-10 0.4823,-3.575 2.0149,-12.8 3.4057,-20.5 1.3908,-7.7 2.5429,-15.67575 2.5603,-17.72388 0.017,-2.04813 0.8925,-7.22313 1.9447,-11.5 1.0523,-4.27687 2.4624,-10.31449 3.1335,-13.41695 1.1435,-5.28562 1.4287,-5.67464 4.5298,-6.17786 1.8201,-0.29538 4.583,-1.47866 6.1396,-2.62953 2.6097,-1.92945 4.5814,-2.13825 25.3071,-2.67993 24.2082,-0.6327 25.4037,-0.49045 38.9768,4.63782 10.7425,4.05881 14.7563,5.02207 23.6433,5.67408 l 7.1434,0.52408 2.6066,-3.83605 c 2.966,-4.36473 3.4416,-10.2771 1.254,-15.58785 -0.744,-1.80616 -2.2812,-5.98393 -3.4162,-9.28393 -2.8508,-8.28932 -10.3636,-25.38667 -19.3342,-44 -13.3244,-27.64736 -18.5306,-62.23431 -13.9235,-92.5 0.5442,-3.575 1.2841,-9.54881 1.6442,-13.27514 0.3601,-3.72632 1.0435,-7.01538 1.5186,-7.30902 0.4751,-0.29363 0.8638,-1.58763 0.8638,-2.87556 0,-4.55567 8.128,-18.52541 14.4666,-24.86401 1.2476,-1.24756 1.3837,-2.08754 0.5812,-3.58692 -1.3339,-2.49241 -1.3464,-8.17385 -0.026,-11.64777 1.3066,-3.43657 -1.2719,-5.92711 -4.2262,-4.0821 -1.3283,0.82955 -2.2626,0.83224 -3.5494,0.0102 -1.3846,-0.88448 -1.7466,-2.54088 -1.7466,-7.99271 0,-3.78235 -0.364,-7.43951 -0.809,-8.12701 -0.9148,-1.41339 -6.2909,-1.70631 -7.1062,-0.38717 -0.6335,1.025 -6.455,2.57067 -16.0848,4.27063 -5.8917,1.04008 -7.7195,1.87937 -11.5445,5.30113 -8.4281,7.53949 -11.2023,9.80469 -17.3398,14.15866 -7.4397,5.27778 -14.2623,11.69206 -21.9996,20.68303 -3.2072,3.72696 -8.5954,8.77593 -11.9737,11.21995 -3.3783,2.44401 -7.9424,6.31211 -10.1424,8.59576 -4.1083,4.2645 -19.6127,14.8905 -21.7848,14.93025 -0.6684,0.0122 -2.3402,0.90222 -3.7152,1.97776 -1.375,1.07554 -2.9933,1.96553 -3.5963,1.97776 -1.7311,0.0351 -7.0703,2.91557 -8.4209,4.54299 -2.3912,2.88124 -6.9828,1.09219 -6.9828,-2.72072 0,-2.79453 -2.7317,-2.12933 -5.9545,1.45 -2.5366,2.81719 -3.1887,3.08983 -4.8967,2.04724 -1.6324,-0.99646 -2.8587,-0.7742 -7.1499,1.29594 -2.8487,1.37429 -6.2535,3.65748 -7.566,5.07377 -1.8135,1.95674 -2.9924,2.42595 -4.9097,1.95406 -1.3878,-0.34156 -3.544,-0.87855 -4.7917,-1.19333 -1.7699,-0.44653 -3.4312,0.54253 -7.5588,4.5 -5.6677,5.43414 -8.4596,6.27329 -10.1795,3.05961 -1.4489,-2.70721 -4.2706,-1.19597 -6.0207,3.22449 -1.7331,4.37739 -3.8892,6.78822 -6.0709,6.78822 -0.9837,0 -2.586,1.35 -3.5607,3 -0.9746,1.65 -2.1093,3 -2.5213,3 -1.1561,0 -2.8196,-3.6115 -2.8196,-6.12135 0,-2.19903 -0.072,-2.18419 -3,0.62135 -1.65,1.5808 -3.0192,3.35249 -3.0426,3.93709 -0.023,0.5846 -1.82,3.08778 -3.9924,5.56263 -3.3097,3.77066 -4.2345,4.3214 -5.7073,3.39915 -0.9667,-0.60531 -1.8987,-2.51769 -2.0711,-4.24972 C 100.8702,604.8394 99,603.5107 99,606.46597 c 0,0.8776 -0.8268,2.7901 -1.8373,4.25 -1.0105,1.4599 -2.1213,3.44187 -2.4686,4.40437 -0.3472,0.9625 -1.3204,1.75 -2.1627,1.75 -1.12,0 -1.5314,-1.07468 -1.5314,-4 0,-4.5223 -0.473,-4.75882 -4,-2 -3.0329,2.37235 -4.6214,2.49899 -5.7628,0.45942 -1.02,-1.8227 -4.2372,-0.94109 -4.2372,1.16114 0,0.77362 -0.3975,2.18797 -0.8833,3.14301 -0.4859,0.95504 -1.4354,2.9244 -2.1101,4.37636 -1.3216,2.84398 -5.5461,5.65392 -6.7261,4.47387 -0.3974,-0.3974 -0.2829,-1.03558 0.2546,-1.41817 0.5374,-0.3826 2.3992,-3.49827 4.1373,-6.92372 2.7263,-5.37307 3,-6.57323 1.9939,-8.7422 -0.6415,-1.38276 -1.4125,-2.51762 -1.7134,-2.52191 -0.3008,-0.004 -2.3047,1.7922 -4.4529,3.9922 -2.1482,2.2 -4.8584,4 -6.0226,4 -2.3356,0 -6.4774,4.16115 -6.4774,6.50761 0,1.67082 -2.5462,2.03568 -3.4948,0.50079 -0.5207,-0.84249 4.5862,-9.49841 6.4948,-11.0084 1.3245,-1.04786 7,-9.9099 7,-10.93018 0,-0.5884 -0.675,-1.06982 -1.5,-1.06982 -0.825,0 -1.5012,0.3375 -1.5027,0.75 0,0.4125 -1.689,2.69611 -3.75,5.0747 C 53.5932,608.06628 51,607.73291 51,601.76335 c 0,-2.14115 0.45,-3.89301 1,-3.89301 0.55,0 1,-0.675 1,-1.5 0,-0.825 -0.45,-1.5 -1,-1.5 -0.55,0 -1,0.65854 -1,1.46341 0,2.08821 -11.905,14.5429 -13.8647,14.50479 -0.8994,-0.0175 -2.4278,-0.63325 -3.3964,-1.36835 -1.5593,-1.18345 -1.588,-1.48021 -0.25,-2.59065 C 34.32,606.18979 35,605.06065 35,604.37034 c 0,-0.69031 0.675,-1.81531 1.5,-2.5 3.3821,-2.8069 1.3712,-3.61475 -3.75,-1.50646 -1.3315,0.54816 -1.75,0.2307 -1.75,-1.32753 0,-1.12639 0.45,-2.32609 1,-2.66601 0.55,-0.33992 1,-1.8862 1,-3.43618 0,-2.76689 -0.086,-2.80887 -4.75,-2.30826 -3.6681,0.39376 -5.4333,1.23526 -7.75,3.69465 -1.65,1.75162 -4.4625,4.03892 -6.25,5.08289 -1.7875,1.04396 -3.25,2.25109 -3.25,2.68251 0,0.43141 -0.4975,0.78439 -1.1056,0.78439 -0.6081,0 -2.4427,1.125 -4.0768,2.5 -3.3458,2.8153 -5.8176,3.24018 -5.8176,1 0,-0.825 0.4295,-1.5 0.9545,-1.5 3.0498,0 10.4629,-10.46976 10.5092,-14.84243 0.037,-3.46748 0.4883,-3.93713 5.8064,-6.03846 1.5235,-0.60199 3.1876,-2.19285 3.698,-3.53524 0.5104,-1.3424 2.6389,-3.24569 4.7299,-4.22954 4.899,-2.30497 10.3055,-6.526 17.8361,-13.9254 3.3187,-3.26091 8.6495,-7.95393 11.8461,-10.42893 3.1967,-2.475 7.9863,-6.31163 10.6436,-8.52585 2.6573,-2.21422 6.5515,-4.94814 8.6538,-6.07538 2.1023,-1.12724 4.7224,-2.55521 5.8224,-3.17326 1.1,-0.61806 5.15,-2.56478 9,-4.32604 3.85,-1.76127 7.225,-3.47238 7.5,-3.80248 0.275,-0.3301 1.85,-1.26348 3.5,-2.07418 1.65,-0.81069 7.5,-4.46084 13,-8.11144 5.5,-3.6506 12.925,-8.12851 16.5,-9.95093 3.575,-1.82241 7.175,-3.6778 8,-4.12309 6.8072,-3.67415 23.4048,-11.82783 25.2278,-12.39337 3.2505,-1.00837 9.8004,-3.95168 21.2722,-9.559 5.5,-2.68836 10.6431,-4.88726 11.429,-4.88645 0.786,8.1e-4 2.811,-0.41841 4.5,-0.9316 10.431,-3.16925 19.8517,-6.2373 25.071,-8.16482 3.3,-1.21872 8.025,-2.55674 10.5,-2.97339 2.475,-0.41665 7.425,-1.2932 11,-1.94788 3.575,-0.65468 9.2,-1.56382 12.5,-2.0203 7.9506,-1.09979 13.9331,-2.39129 19.9336,-4.30327 4.1115,-1.31009 10.8982,-1.56845 40.7306,-1.55054 19.6883,0.0118 36.005,0.35805 36.2593,0.76942 0.2542,0.41136 3.6073,1.79828 7.4513,3.08204 l 6.9891,2.33411 3.0564,-2.57182 c 4.6346,-3.89935 12.386,-5.72048 24.3491,-5.72048 9.2658,0 10.791,0.25319 13.3461,2.21553 1.5867,1.21853 3.1099,2.49895 3.3849,2.84536 0.275,0.34641 2.2294,0.90294 4.3432,1.23673 3.148,0.4971 4.2519,0.19822 6.1023,-1.65218 1.2425,-1.24249 2.438,-2.68686 2.6568,-3.2097 0.8211,-1.96265 11.7898,-9.43574 13.8494,-9.43574 0.5384,0 3.1076,-1.35 5.7094,-3 4.2237,-2.67862 5.5737,-3 12.6021,-3 7.7014,0 7.8566,-0.0487 7.18,-2.25 -0.3804,-1.2375 -0.7663,-2.34307 -0.8576,-2.45682 -0.4382,-0.54617 -23.0965,-1.54409 -30.7592,-1.35469 -7.6131,0.18817 -8.9274,-0.0395 -10.75,-1.86206 -2.6775,-2.67754 -2.7601,-7.08487 -0.1456,-7.76859 2.529,-0.66135 3.2433,-2.71964 2.0412,-5.88162 -1.5145,-3.98341 -1.1526,-7.92691 0.9759,-10.63279 1.0713,-1.36196 1.7417,-3.33514 1.4898,-4.38486 -0.2519,-1.04971 0.1526,-3.91284 0.8989,-6.3625 1.6759,-5.50073 3.5025,-6.13349 15.8719,-5.49799 9.5674,0.49153 14.0005,2.08302 15.9116,5.71227 0.6486,1.23181 1.4711,2.46465 1.8278,2.73965 0.3567,0.275 1.7389,2.075 3.0717,4 5.1705,7.46795 9.158,11 12.4185,11 4.4601,0 7.5619,2.49044 7.5619,6.0714 0,3.67099 4.7396,6.9193 10.104,6.92486 3.6219,0.004 7.1289,2.41289 9.4618,6.49972 0.9697,1.69873 1.4692,1.75415 5.5392,0.61461 2.8095,-0.78659 8.1786,-1.09104 14.4342,-0.81848 12.7404,0.5551 14.9108,1.04665 24.9608,5.65312 2.75,1.26047 6.125,2.74865 7.5,3.30707 1.375,0.55841 3.4,1.38678 4.5,1.84083 7.9466,3.28009 15.5649,4.90687 22.9791,4.90687 8.0095,0 8.2671,-0.0785 15.0848,-4.5947 7.8283,-5.18573 9.4361,-6.87391 9.4361,-9.90787 0,-3.34269 3.6046,-6.49743 7.4239,-6.49743 2.492,0 3.7769,-0.65753 5.034,-2.57609 1.4812,-2.26054 1.5326,-3.18215 0.4199,-7.52383 -1.0013,-3.90681 -1.0167,-6.16508 -0.073,-10.7341 0.6573,-3.1825 1.1951,-6.7549 1.1951,-7.93866 0,-5.65746 4.2964,-13.70554 12.3996,-23.22732 0.7021,-0.825 4.7702,-3.975 9.0402,-7 4.27,-3.025 9.12,-7.4568 10.7777,-9.84845 2.7078,-3.90654 3.0533,-5.27846 3.4003,-13.5 0.4766,-11.29094 3.2851,-19.86053 8.6278,-26.32598 4.8679,-5.89075 6.0566,-8.09569 5.3531,-9.92904 -0.4515,-1.17644 -1.6352,-0.90536 -6.327,1.44891 -3.6732,1.84314 -8.2166,3.15283 -12.4963,3.60221 -5.4212,0.56924 -6.6988,1.03037 -6.5915,2.37922 0.7041,8.85599 -0.051,10.98671 -6.0798,17.14765 l -5.896,6.02548 -8.2596,0 c -7.4013,0 -8.6333,-0.27888 -11.8541,-2.68348 -6.4496,-4.8152 -12.0943,-11.36782 -12.0943,-14.03979 0,-4.94947 18.3788,-20.27673 24.3136,-20.27673 1.4753,0 8.3298,-4.97877 18.9305,-13.75 2.825,-2.3375 5.5777,-4.25 6.117,-4.25 0.5394,0 4.0646,-1.45442 7.8337,-3.23205 6.0942,-2.87417 6.9638,-3.64325 7.853,-6.94554 0.5593,-2.07685 3.1931,-6.11312 5.9761,-9.15816 2.7369,-2.99457 4.9761,-5.76634 4.9761,-6.15949 0,-0.39316 -1.9125,-0.42235 -4.25,-0.0649 -2.3375,0.35747 -6.725,0.87486 -9.75,1.14975 -3.025,0.2749 -6.4,0.88014 -7.5,1.34498 -3.8674,1.6343 -10.2683,3.06539 -13.7108,3.06539 -1.9133,0 -6.1361,0.88894 -9.384,1.97541 -3.2478,1.08648 -7.5661,1.98648 -9.5962,2 -2.03,0.0135 -3.9691,0.47459 -4.309,1.02459 -0.3399,0.55 -3.0445,1 -6.0102,1 -2.9657,0 -8.0017,0.72138 -11.191,1.60307 -3.1893,0.88169 -9.1738,2.27162 -13.2988,3.08873 -4.125,0.81712 -10.2,2.35029 -13.5,3.40705 -3.3,1.05677 -7.8757,1.91684 -10.1682,1.91127 -5.1131,-0.0124 -7.3318,0.77081 -7.3318,2.58822 0,1.60156 -6.5637,10.51614 -8.6156,11.70135 -0.7614,0.43985 -1.3844,1.35866 -1.3844,2.04181 0,1.40289 -7.3298,8.51041 -10.7364,10.41088 -1.2301,0.6862 -3.6071,1.24764 -5.2823,1.24764 -3.8877,0 -5.3925,-3.22379 -3.3609,-7.20034 0.7588,-1.48519 1.3796,-4.07269 1.3796,-5.75 0,-2.8087 -0.2719,-3.04966 -3.441,-3.04966 -1.8925,0 -3.7191,0.45 -4.059,1 -1.0436,1.68856 -5.09,1.1105 -7,-1 -2.3208,-2.56446 -6.6792,-2.56446 -9,0 -2.5247,2.78979 -5.9572,2.5162 -8.2703,-0.65919 -1.8625,-2.55682 -2.0282,-2.59532 -4.3059,-1 -2.919,2.04453 -7.866,2.12802 -12.4559,0.21022 -3.8117,-1.59264 -4.57,-4.60632 -2.2179,-8.8146 2.525,-4.51752 4.0872,-5.66846 9.2677,-6.82781 4.0462,-0.90549 5.6085,-1.79917 6.6371,-3.79644 2.3386,-4.54121 8.741,-10.74989 13.3748,-12.97018 2.4587,-1.1781 6.4427,-3.08565 8.8533,-4.23901 2.4935,-1.19297 4.9148,-3.24074 5.6167,-4.75 0.6786,-1.45914 1.6312,-3.43438 2.1171,-4.38942 0.4858,-0.95504 0.8833,-2.44677 0.8833,-3.31497 0,-2.13424 9.5358,-11.17274 20.5,-19.43083 8.5109,-6.41031 13.2832,-11.49901 22.3659,-23.84892 2.1564,-2.93213 4.9813,-6.06596 6.2775,-6.96408 1.2961,-0.89811 3.1838,-2.67059 4.1949,-3.93883 2.4946,-3.12913 6.8801,-5.26232 10.862,-5.28345 2.8749,-0.0153 3.5572,-0.55178 5.2997,-4.16799 1.1,-2.28276 2.675,-4.49908 3.5,-4.92517 2.1356,-1.10295 13.9739,-6.41208 17.2971,-7.75717 1.5383,-0.62269 4.4633,-1.13384 6.5,-1.1359 2.0366,-0.002 5.1763,-0.90205 6.9771,-2 1.8008,-1.09794 3.9071,-1.99626 4.6807,-1.99626 0.7736,0 3.5752,-2.27948 6.2258,-5.06552 5.4123,-5.6888 12.4362,-10.93448 14.6411,-10.93448 0.8038,0 1.7618,-1.19688 2.1289,-2.65974 0.9174,-3.65494 8.7742,-12.62691 15.7747,-18.01373 3.951,-3.0402 7.7634,-4.9653 11.9245,-6.0213 3.3642,-0.85375 8.5774,-2.8467 11.5849,-4.42876 3.0076,-1.58206 6.7726,-2.87647 8.3668,-2.87647 1.5941,0 2.8969,-0.1125 2.895,-0.25 0,-0.1375 -1.3492,-3.55254 -2.9941,-7.58897 l -2.9906,-7.338983 3.5706,-4.35739 c 3.1293,-3.81887 6.7565,-6.70373 12.4016,-9.86351 0.8832,-0.49437 2.9095,-2.63187 4.5027,-4.75 2.4,-3.19058 3.5072,-3.85496 6.455,-3.87339 4.2474,-0.0265 9.3136,-3.28205 6.6801,-4.29262 -0.892,-0.3423 -1.6219,-1.67314 -1.6219,-2.95741 0,-2.57927 4.7343,-12.72773 5.9376,-12.72773 0.4173,0 1.5703,-1.8 2.5624,-4 0.9921,-2.2 2.1854,-4 2.6519,-4 0.4664,0 0.8624,-0.7875 0.8799,-1.75 0.017,-0.9625 0.58,-2.46027 1.25,-3.32838 4.6969,-6.085693 8.5542,-10.596587 10.5708,-12.362025 1.2939,-1.132777 3.9939,-3.670694 6,-5.639816 2.0061,-1.969121 6.3474,-5.794121 9.6474,-8.5 3.3,-2.7058776 6.15,-5.2572786 6.3333,-5.6697786 0.6254,-1.407073 7.8975,-0.779344 9.2036,0.794458 1.6403,1.976488 5.4341,1.252888 13.5783,-2.589812 7.9347,-3.74391102 19.767,-4.929985 26.9822,-2.704703 2.6964,0.831624 6.7599,2.017121 9.0299,2.634437 2.2701,0.617317 6.0949,2.92087 8.4996,5.119007 2.8325,2.5891866 5.32,3.9966126 7.0636,3.9966126 1.4803,0 2.9722,0.454209 3.3153,1.009354 0.3431,0.555144 2.1983,1.817098 4.1226,2.804341 l 3.4988,1.794988 0.4574,10.445658 c 0.2517,5.745113 0.6847,12.020659 0.9623,13.945659 0.2777,1.925 0.9616,6.875 1.5198,11 0.6746,4.98532 1.8395,8.75015 3.4741,11.22856 1.3526,2.05071 2.4592,4.23124 2.4592,4.84563 0,0.61439 0.9325,2.42664 2.0722,4.02722 3.2424,4.55352 2.2897,6.34303 -3.5739,6.7133 -6.966,0.43987 -8.4983,2.13736 -8.4983,9.41454 l 0,5.91927 -3.9452,1.67574 c -4.376,1.8587 -5.5415,4.162103 -3.4808,6.879263 0.7493,0.98807 1.3767,2.59009 1.3942,3.56005 0.017,0.96996 0.5534,2.59872 1.1908,3.61946 0.9027,1.44538 0.8192,2.70788 -0.3773,5.70774 -1.9402,4.86445 -4.0743,6.33207 -6.7647,4.65194 -1.0944,-0.68349 -4.998,-1.24271 -8.6747,-1.24271 -4.7164,0 -7.2039,-0.46978 -8.4477,-1.59542 -1.6172,-1.46354 -2.0164,-1.44571 -4.8288,0.21561 -3.6801,2.17391 -3.7793,2.7337 -0.7303,4.1229 1.3103,0.59702 3.5262,3.49795 5.0482,6.60876 1.6507,3.37384 3.9663,6.32211 5.9145,7.53043 4.3306,2.68589 8.936,7.73132 11.7455,12.86772 1.2785,2.3375 2.6404,4.25 3.0265,4.25 2.3262,0 6.9298,16.4866 6.9298,24.81701 0,4.00491 0.163,4.27035 2.25,3.66336 5.81,-1.68982 9.5158,-3.08273 12.5304,-4.70982 1.8042,-0.9738 3.7217,-1.77055 4.2609,-1.77055 0.9717,0 6.2812,-2.24199 14.9587,-6.31643 2.475,-1.16212 6.975,-3.75305 10,-5.75763 3.025,-2.00458 6.4575,-3.94583 7.6277,-4.31389 1.1703,-0.36806 3.4203,-1.78076 5,-3.13932 1.5798,-1.35857 3.3223,-2.32296 3.8723,-2.1431 1.3119,0.42903 1.9283,4.76883 0.7893,5.55728 -0.4871,0.3372 -1.8795,2.03687 -3.0943,3.77704 -1.2148,1.74018 -4.3431,4.2493 -6.9518,5.57583 -2.6088,1.32653 -6.4444,3.39025 -8.5236,4.58604 -2.0792,1.1958 -4.3866,2.17418 -5.1276,2.17418 -0.7409,0 -1.8894,0.65344 -2.5522,1.45208 -0.6629,0.79864 -6.4554,3.98442 -12.8725,7.0795 -14.4219,6.95602 -15.1939,7.29152 -17.6673,7.67716 -1.815,0.28298 -2.0463,1.28231 -2.5,10.80155 -0.275,5.76934 -0.9039,11.16471 -1.3975,11.98971 -1.2639,2.11243 -8.8449,12.22796 -10.3758,13.84474 -3.6486,3.85332 -4.2137,6.74883 -3.2679,16.74583 0.7219,7.63051 1.42,10.42933 3.2008,12.83404 5.0514,6.82089 8.8404,13.12091 8.8404,14.69899 0,1.8496 4.9903,6.44871 9.8523,9.07989 1.8895,1.02255 3.1477,2.49138 3.1477,3.67454 0,1.08408 -2.7,4.73896 -6,8.12197 -3.3,3.38301 -6,6.56696 -6,7.07546 0,1.5319 1.5796,1.04652 3.5,-1.07546 2.6374,-2.91429 7.5486,-2.63474 9.9527,0.56651 3.1786,4.23271 5.2669,4.8637 9.6119,2.90438 4.6635,-2.10295 6.4711,-1.54238 7.2279,2.24146 0.3172,1.58633 1.8144,4.12182 3.327,5.63441 2.2511,2.2511 3.4879,2.69601 6.8153,2.45171 3.5349,-0.25953 4.1044,-0.63577 4.3658,-2.88407 0.1672,-1.43883 -0.3872,-3.15634 -1.25,-3.87244 -0.8528,-0.70777 -1.5506,-2.062 -1.5506,-3.00942 0,-0.94741 -0.8749,-2.5143 -1.9441,-3.48198 -1.0693,-0.96768 -2.0818,-2.72493 -2.25,-3.90499 -0.2546,-1.78552 -0.9771,-2.14557 -4.3059,-2.14557 -2.5468,0 -5.1459,-0.8174 -7.1544,-2.25 -1.7349,-1.2375 -3.8724,-2.25 -4.75,-2.25 -1.7114,0 -2.1635,-1.531 -0.7161,-2.4255 1.7835,-1.1023 22.5932,2.636 25.2749,4.54044 3.8597,2.74104 14.3992,2.65306 17.3777,-0.14505 2.9716,-2.79167 12.0735,-5.96989 17.0968,-5.96989 4.8507,0 6.2548,-2.00231 3.9118,-5.57819 -1.3801,-2.10642 -2.3954,-2.33321 -12.2727,-2.74149 -5.9224,-0.24481 -12.2148,-0.7718 -13.9831,-1.17109 -3.587,-0.80997 -9.6797,-6.06141 -8.7596,-7.55016 0.9386,-1.51864 2.9188,-1.12559 5.2443,1.04093 1.2948,1.20624 3.529,2 5.6296,2 1.9155,0 3.7609,0.45 4.1008,1 1.1031,1.78487 7.0808,1.12068 9,-1 1.1228,-1.24067 3.08,-2 5.155,-2 3.5889,0 4.1886,-1.30494 1.9529,-4.25 -1.8065,-2.3799 -5.4986,-2.20136 -8.2674,0.3998 -1.9924,1.87176 -2.3676,1.94309 -2.9016,0.55154 -0.3902,-1.01693 0.5047,-2.69114 2.4605,-4.60297 4.9611,-4.84965 3.5094,-6.09837 -7.0897,-6.09837 -9.8496,0 -11.0309,-1.05654 -4.7501,-4.24845 2.8686,-1.45786 6.2243,-1.7487 20.1915,-1.75 l 16.7511,-0.002 3.9989,-4.12058 c 2.1994,-2.26587 3.9989,-4.56033 3.9989,-5.09834 0,-1.572 -6.0546,-6.78063 -7.882,-6.78063 -0.9187,0 -5.4837,0.49901 -10.1442,1.10892 -12.9935,1.70038 -17.0961,1.45828 -19.1941,-1.13268 -0.9788,-1.20879 -1.7797,-3.04796 -1.7797,-4.08702 0,-1.03907 -0.45,-1.88922 -1,-1.88922 -0.55,0 -1,-0.35156 -1,-0.78125 0,-0.42969 6.5166,-0.78125 14.4813,-0.78125 10.0536,0 14.8538,-0.37263 15.7,-1.21875 1.5559,-1.55597 7.2181,-1.5654 11.4942,-0.0191 3.0935,1.11862 3.537,0.99431 6.571,-1.84133 4.322,-4.03959 9.2441,-7.35828 10.9133,-7.35828 0.7431,0 3.2212,-1.76158 5.507,-3.91462 4.5568,-4.29221 21.6357,-16.08538 23.2948,-16.08538 0.5711,0 1.0384,-0.50572 1.0384,-1.12383 0,-1.09756 -1.9165,-1.00407 -15,0.73168 -2.475,0.32835 -4.9275,1.00091 -5.45,1.49458 -0.5225,0.49366 -2.21,0.89757 -3.75,0.89757 -1.54,0 -2.8,0.33989 -2.8,0.75531 0,0.66178 -3.371,2.07288 -7.9763,3.33887 -0.8933,0.24559 -1.6006,-0.39734 -1.7912,-1.62837 -0.3565,-2.30223 4.1921,-4.46585 9.3885,-4.46585 1.6385,0 3.4065,-0.37414 3.929,-0.83142 1.2657,-1.10772 8.6345,-3.16858 11.3296,-3.16858 1.9032,0 5.7347,-1.61432 7.1204,-3 1.3332,-1.33322 5.182,-3 6.9274,-3 1.075,0 2.2327,-0.45 2.5726,-1 0.3399,-0.55 3.2915,-1 6.559,-1 4.5596,0 5.941,-0.34171 5.941,-1.46958 0,-1.96414 -3.7686,-8.72806 -5.699,-10.22855 -0.8478,-0.65898 -3.6248,-3.16102 -6.1712,-5.5601 -2.5464,-2.39909 -5.4547,-4.67266 -6.463,-5.0524 -1.0082,-0.37973 -1.6485,-1.25269 -1.4228,-1.9399 0.5324,-1.62155 5.6818,-2.22369 7.0778,-0.82765 0.593,0.593 1.6871,1.07818 2.4313,1.07818 0.7441,0 3.0086,1.125 5.0321,2.5 2.0235,1.375 4.0246,2.5 4.4469,2.5 0.4224,0 0.7679,-2.00399 0.7679,-4.45332 0,-3.70067 -0.4484,-4.75696 -2.6532,-6.25 -6.6902,-4.53038 -9.3468,-7.96385 -9.3468,-12.08005 0,-3.20881 -0.4094,-4.09042 -2.1054,-4.53393 -3.7936,-0.99207 -1.4789,-3.16831 3.6981,-3.47678 3.8588,-0.22992 5.4142,0.15187 7.1296,1.75 1.2067,1.12424 2.6556,2.04408 3.2197,2.04408 0.5641,0 4.0599,3.15 7.7683,7 3.7085,3.85 7.0153,7 7.3484,7 1.2211,0 2.9114,-7.42994 1.9166,-8.42465 -1.1356,-1.13563 -1.3372,-10.58274 -0.2253,-10.56004 1.6672,0.034 3.0628,1.7388 5.6129,6.85639 1.4723,2.95444 3.6804,6.17042 4.907,7.14662 1.2265,0.9762 3.5801,2.94589 5.2301,4.37708 3.1053,2.69351 5.9272,3.34038 7,1.6046 0.3399,-0.55 1.9149,-1 3.5,-1 1.5851,0 3.1601,-0.45 3.5,-1 0.3399,-0.55 1.506,-1 2.5912,-1 1.0934,0 5.3027,-3.2226 9.441,-7.22792 5.7833,-5.59754 7.4678,-7.85805 7.4678,-10.02144 0,-3.2475 -4.6293,-10.75064 -6.6329,-10.75064 -1.8738,0 -1.7259,-1.64832 0.2147,-2.39301 2.2597,-0.86714 2.0997,-0.94927 5.8069,2.98108 2.0854,2.2109 3.6425,3.17044 4.0569,2.5 0.3698,-0.59844 1.5459,-1.08807 2.6134,-1.08807 1.7057,0 1.941,0.72748 1.941,6 0,6 0,6 3,6 1.65,0 3,-0.45 3,-1 0,-0.55 0.45,-1 1,-1 1.3119,0 1.2875,5.59422 -0.035,8.06574 -0.5693,1.06384 -1.8068,1.94857 -2.75,1.96606 -0.9431,0.0175 -2.5642,0.67486 -3.6023,1.46082 -1.6644,1.26003 -1.7391,1.7876 -0.6316,4.46126 0.6908,1.66773 1.0044,3.99424 0.697,5.17002 -0.9831,3.75932 1.8888,5.38258 9.4139,5.321 3.9908,-0.0327 7.3741,-0.58664 8.306,-1.36005 1.6224,-1.34652 3.0026,-1.30687 26.6022,0.7642 11.5711,1.01546 12.5103,1.28036 18.9458,5.34381 2.4452,1.54393 5.8202,2.81392 7.5,2.8222 3.0832,0.0152 9.9364,2.0338 11.2022,3.2996 0.3769,0.37694 1.7088,0.68534 2.9596,0.68534 1.2509,0 2.5525,0.45 2.8924,1 0.3399,0.55 1.679,1 2.9757,1 1.2967,0 2.5076,0.44633 2.691,0.99186 0.212,0.63085 12.1622,0.96251 32.8333,0.91123 17.875,-0.0443 35.3076,-0.0117 38.7391,0.0725 4.0588,0.0996 6.9644,-0.35494 8.3147,-1.3007 2.1591,-1.51227 4.6937,-1.32568 8.9462,0.65859 3.591,1.6756 4.5883,2.81253 7.0371,8.02208 l 2.1832,4.64445 5.8172,0 c 5.0935,0 6.0752,0.32786 7.8899,2.63486 3.038,3.86217 2.6897,8.56602 -0.9274,12.52628 -3.5546,3.89179 -3.5733,4.01009 -1,6.33886 2.5232,2.28342 2.5232,4.55422 0,9.5 -1.1,2.15618 -2,5.53068 -2,7.49888 0,2.78286 -0.8735,4.51496 -3.9286,7.78984 l -3.9287,4.21128 -14.12,-0.29326 c -7.7661,-0.1613 -15.1107,-0.65437 -16.3214,-1.09572 -2.3995,-0.87472 -8.238,0.33036 -9.2085,1.90068 -1.1231,1.81715 -0.785,12.86857 0.4876,15.94098 1.0947,2.64279 1.7683,3.04732 5.0745,3.04732 3.4036,0 3.8462,-0.29132 4.1287,-2.71795 0.2596,-2.2299 0.9985,-2.87829 4.1152,-3.61087 3.0801,-0.72401 4.1678,-0.55888 5.75,0.87294 1.0731,0.97122 1.9556,2.70861 1.961,3.86087 0.01,1.18129 1.7458,3.6215 3.9902,5.59501 2.1892,1.925 3.9848,4.0625 3.9902,4.75 0.01,0.75457 1.3661,1.25 3.4319,1.25 2.7797,0 4.0937,0.78468 7,4.18 1.9678,2.299 3.5779,4.55865 3.5779,5.02144 0,0.46279 1.165,2.6018 2.5888,4.75336 1.7611,2.66122 2.7604,5.80522 3.1257,9.83377 0.489,5.39243 0.3271,6.0689 -1.8112,7.56664 -1.2916,0.90463 -3.0357,1.64756 -3.8758,1.65095 -0.8401,0.003 -2.6525,0.58047 -4.0275,1.28241 -1.375,0.70194 -4.525,1.90802 -7,2.68018 -2.475,0.77216 -5.6945,2.22007 -7.1544,3.21759 -1.4599,0.99751 -3.1358,1.81366 -3.7243,1.81366 -1.3975,0 -4.1213,5.30532 -4.1213,8.02726 0,3.54166 -5.2737,7.97274 -9.4888,7.97274 -3.943,0 -6.7167,1.17319 -9.9482,4.20782 -1.6432,1.54306 -2.9787,1.8241 -6.563,1.38104 -8.1445,-1.00675 -29.9829,-1.09996 -65,-0.27741 -18.975,0.44572 -35.625,0.95055 -37,1.12185 -1.375,0.1713 -3.2875,0.36888 -4.25,0.43908 -1.177,0.0858 -1.75,0.96464 -1.75,2.68399 0,2.33141 -5.1915,8.44363 -7.1718,8.44363 -0.3993,0 -2.0492,2.8125 -3.6665,6.25 -3.5202,7.48222 -5.7163,18.84526 -4.1924,21.69259 2.8174,5.26438 0.3956,11.94559 -4.3591,12.02561 -2.0328,0.0342 -4.5266,2.68911 -4.5784,4.87407 -0.017,0.73825 0.8682,2.48644 1.9682,3.88486 3.3946,4.31554 1.9374,12.35156 -3.195,17.61972 -1.2677,1.3013 -3.0358,3.62137 -3.929,5.15571 -0.8931,1.53435 -4.2681,5.86231 -7.5,9.61769 -4.37,5.07799 -6.5303,6.83461 -8.429,6.85386 -2.5786,0.0262 -10.947,-5.37132 -10.947,-7.06062 0,-0.50242 -0.3915,-0.91349 -0.8699,-0.91349 -0.4784,0 -1.4036,2.8125 -2.056,6.25 -0.6524,3.4375 -1.8502,7.6982 -2.6619,9.46821 -0.8117,1.77002 -1.7119,5.59502 -2.0003,8.5 -0.2884,2.90499 -1.5613,7.53179 -2.8287,10.28179 -1.2674,2.75 -2.6204,6.125 -3.0066,7.5 -0.3863,1.375 -1.079,3.4 -1.5394,4.5 -0.4604,1.1 -1.6142,4.7 -2.5639,8 -0.9497,3.3 -2.7329,8.025 -3.9627,10.5 -1.2298,2.475 -3.2747,6.8625 -4.5442,9.75 -1.2696,2.8875 -2.6814,5.25 -3.1373,5.25 -0.456,0 -0.8291,0.64497 -0.8291,1.43327 0,1.52628 -9.8309,22.04172 -14.1683,29.56673 -3.1099,5.39549 -4.1797,11.60007 -3.9658,23 0.1438,7.6588 0.5431,9.29172 4.0354,16.5 2.1317,4.4 5.3345,11.375 7.1173,15.5 3.1995,7.40309 5.7322,11.65127 9.2042,15.43856 0.9775,1.06621 1.7772,2.52871 1.7772,3.25 0,0.72129 0.45,1.31144 1,1.31144 0.55,0 1,1.33417 1,2.96482 0,3.40077 -2.2508,5.03518 -6.9343,5.03518 -3.4963,0 -3.6589,0.50359 -1.5363,4.75853 0.8412,1.68619 1.7766,6.14282 2.0787,9.90363 0.3021,3.76081 0.9437,7.73784 1.4257,8.83784 2.2164,5.05721 4.2801,10.6589 7.5268,20.43048 1.9315,5.81324 3.9142,11.46952 4.406,12.56952 0.4918,1.1 1.4315,4.475 2.0883,7.5 0.6569,3.025 1.5882,6.80465 2.0697,8.39922 0.4815,1.59458 0.8822,4.06958 0.8905,5.5 0.018,3.17348 1.7661,8.11582 4.9866,14.10078 1.3317,2.475 3.2009,6.18024 4.1537,8.23387 1.2638,2.72398 3.7085,4.99046 9.0385,8.37979 4.0183,2.55526 8.3817,5.37502 9.6964,6.26613 1.3146,0.89112 3.1127,2.07021 3.9957,2.62021 0.883,0.55 2.7323,1.72869 4.1097,2.61931 1.3774,0.89062 4.9793,1.82297 8.0043,2.07188 6.2671,0.51568 11.1609,2.58725 15.5,6.56123 1.65,1.51117 5.025,3.84592 7.5,5.18833 2.475,1.34241 6.255,3.70491 8.4,5.25 2.1451,1.54509 4.6426,2.80925 5.55,2.80925 0.9075,0 2.0775,0.37414 2.6,0.83142 2.2768,1.99263 10.0123,3.16858 20.8431,3.16858 11.4292,0 11.7966,0.071 18.4695,3.56657 6.7692,3.54601 19.1374,12.9109 19.1374,14.49029 0,0.45472 2.25,3.39796 5,6.54054 2.75,3.14258 5,6.04477 5,6.44931 0,0.40454 1.7425,2.84423 3.8723,5.42155 4.0927,4.9527 4.1665,5.08114 9.2146,16.03174 2.7731,6.01556 5.4526,9.25015 19.0528,23 8.7042,8.8 16.5349,17.01357 17.4014,18.25238 1.9824,2.83381 10.9142,8.81017 19.7089,13.18733 3.7125,1.84774 6.75,3.74219 6.75,4.2099 0,0.46772 0.5625,0.85145 1.25,0.85274 0.6875,10e-4 2.825,1.35023 4.75,2.99765 1.925,1.64742 3.9991,2.99636 4.6092,2.99765 0.6101,10e-4 3.1925,1.83611 5.7387,4.07738 4.364,3.84134 6.6024,7.34109 8.1727,12.77809 0.7077,2.45042 3.9009,7.74143 7.4261,12.30504 1.1293,1.46199 2.0533,2.92839 2.0533,3.25866 0,1.0852 5.3459,6.9544 13.4897,14.81017 6.3658,6.14061 9.3833,8.258 14.6982,10.3137 8.2294,3.1829 14.6331,7.6959 15.1828,10.7001 0.2273,1.2426 0.8729,4.7739 1.4346,7.8474 0.8886,4.8627 1.8115,6.4187 7.108,11.9847 5.4242,5.7004 6.0867,6.8439 6.0867,10.5068 0,4.3086 -1.1246,5.8185 -6.2387,8.3763 -2.2661,1.1335 -4.2503,1.1589 -11.5,0.1473 -14.5766,-2.0341 -20.5703,-3.3082 -24.6991,-5.2507 -2.1658,-1.0189 -4.4158,-1.8531 -5,-1.8538 -0.5842,-7e-4 -2.3969,-1.149 -4.0281,-2.5519 -1.6313,-1.4029 -4.3313,-3.395 -6,-4.427 -3.6693,-2.269 -14.5343,-14.6395 -14.5343,-16.548 0,-0.7495 1.2375,-1.9538 2.75,-2.6761 2.4573,-1.1735 2.7817,-1.9173 3.0479,-6.9876 l 0.2979,-5.6743 -7.5264,-8.4593 c -8.3483,-9.38318 -14.6074,-13.6746 -19.9445,-13.6746 -2.8966,0 -5.0336,-1.26225 -12.0834,-7.13731 -8.7764,-7.31392 -20.5415,-20.23615 -20.5415,-22.56177 0,-0.7155 -0.3778,-1.30092 -0.8395,-1.30092 -0.4617,0 -1.3645,-1.0125 -2.0063,-2.25 -0.6417,-1.2375 -2.2985,-4.05 -3.6817,-6.25 -1.3832,-2.2 -2.81,-4.675 -3.1707,-5.5 -0.3608,-0.825 -0.9307,-1.725 -1.2665,-2 -0.3359,-0.275 -1.9437,-3.11607 -3.573,-6.31349 -4.6018,-9.03097 -24.1694,-27.59541 -29.1533,-27.65869 -1.205,-0.0153 -2.4691,-0.47782 -2.809,-1.02782 -0.3399,-0.55 -1.3095,-1 -2.1546,-1 -0.8452,0 -2.7311,-0.80731 -4.191,-1.79403 -1.4599,-0.98671 -4.8569,-2.35238 -7.5489,-3.03481 -5.3068,-1.34529 -8.1622,-3.09886 -16.6055,-10.1977 -6.542,-5.5003 -19.6807,-13.69962 -24.2463,-15.13113 -4.2899,-1.34505 -14.6981,-2.75495 -28.2537,-3.82724 -6.05,-0.47857 -13.025,-1.32814 -15.5,-1.88793 -20.4875,-4.63379 -28.3481,-6.12716 -32.2512,-6.12716 -1.4469,0 -2.9089,-0.45 -3.2488,-1 -0.3399,-0.55 -1.9149,-1 -3.5,-1 -1.5851,0 -3.1601,-0.45 -3.5,-1 -0.3399,-0.55 -3.6792,-1 -7.4207,-1 -5.4216,0 -8.146,-0.60908 -13.419,-3 -6.2799,-2.84742 -7.2914,-3.0006 -19.8883,-3.01187 -9.1938,-0.008 -14.962,-0.50459 -18.772,-1.61538 -3.025,-0.88194 -7.1428,-1.8196 -9.1506,-2.08369 -3.2828,-0.43179 -3.8256,-0.94923 -5.3869,-5.13462 -0.9549,-2.55994 -2.453,-5.47909 -3.3291,-6.48699 -2.2452,-2.58309 -7.7029,-4.66745 -12.2213,-4.66745 -3.3368,0 -4.8894,0.92305 -11.7745,7 -4.362,3.85 -8.2439,7 -8.6265,7 -0.3826,0 -1.832,0.89387 -3.2209,1.98637 -1.3889,1.09251 -2.8745,1.77057 -3.3013,1.5068 -1.1553,-0.71406 -8.6835,2.15318 -12.1681,4.63444 -3.9414,2.80653 -6.0578,7.76536 -4.9238,11.53701 0.4688,1.55946 1.3822,5.67591 2.0298,9.14767 1.1611,6.2252 3.632,11.77746 6.9813,15.68771 1.9783,2.30958 3.4082,4.36824 9.7236,14 5.82,8.87617 8.5952,11.81553 14.8447,15.72317 15.7656,9.8577 21.5236,18.42967 21.5236,32.04236 0,4.59217 -0.5561,6.35985 -3.269,10.39114 -1.7979,2.6717 -3.8332,6.74105 -4.5229,9.04298 -1.6396,5.47246 -9.7621,12.70098 -16.6853,14.84881 -2.7626,0.85704 -5.7246,1.93455 -6.5824,2.39447 -0.8578,0.45993 -4.2328,1.3774 -7.5,2.03882 -5.2415,1.0611 -12.2996,3.81645 -25.9404,10.12656 -3.7054,1.71409 -7.2112,4.09989 -18.6277,12.67639 -6.7178,5.0467 -6.8233,5.1652 -15.8723,17.8243 -16.0745,22.4873 -27.9597,31.031 -45.1478,32.4548 -7.8923,0.6538 -9.2315,1.0621 -12.2892,3.74666 -1.8874,1.6572 -4.3612,3.308 -5.4973,3.6686 -1.1361,0.3606 -2.0657,0.9925 -2.0657,1.4041 0,1.7927 -8.01,5.1168 -12.3296,5.1168 -4.0032,0 -4.7728,0.3648 -6.3295,3 -0.9746,1.65 -2.0708,3 -2.4359,3 -0.3651,0 -2.5186,1.8 -4.7856,4 -3.1867,3.0926 -4.902,4 -7.5615,4 -1.8919,0 -3.718,-0.45 -4.0579,-1 -1.1931,-1.9306 -3.3571,-0.9672 -5.456,2.4288 -1.3988,2.2633 -3.1827,3.6624 -5.2482,4.1161 -1.7211,0.378 -4.5167,1.5333 -6.2125,2.5674 -2.0339,1.2403 -4.9662,1.8815 -8.6158,1.884 -4.8308,0 -6.3527,-0.5353 -12,-4.2463 -5.0418,-3.3131 -6.5379,-4.8633 -6.787,-7.0323 -0.3296,-2.8699 1.7254,-8.7177 3.0636,-8.7177 0.4158,0 0.7559,-0.5104 0.7559,-1.1342 0,-1.6665 17.0145,-19.91946 19.4343,-20.84876 1.1361,-0.4364 4.5407,-3.2062 7.5657,-6.1552 7.4357,-7.2489 13.6269,-10.8459 18.6849,-10.8556 5.7431,-0.011 12.0432,3.8853 14.7125,9.0993 1.4048,2.7442 3.8842,2.8038 9.3206,0.224 4.6855,-2.2234 13.282,-10.9755 13.282,-13.5223 0,-0.4324 1.7869,-3.3616 3.9709,-6.5094 4.1238,-5.9437 13.5604,-14.6969 17.0323,-15.7988 1.0982,-0.3486 1.9968,-0.9795 1.9968,-1.4021 0,-0.6572 11.0434,-6.4236 25.5,-13.31495 2.2,-1.04873 6.475,-3.87358 9.5,-6.27746 3.025,-2.40387 7.9476,-6.08829 10.9391,-8.18759 2.9915,-2.09929 7.0414,-5.60139 9,-7.78244 1.9585,-2.18105 5.3609,-5.83233 7.5609,-8.11397 8.7068,-9.02984 10.3848,-12.47031 10.4561,-21.43836 0.055,-6.95409 -2.8495,-11.57309 -10.2588,-16.31279 -2.887,-1.84678 -9.9624,-7.96506 -15.7232,-13.59619 -5.7607,-5.63112 -14.0343,-13.46372 -18.3855,-17.40577 -4.3513,-3.94206 -10.4399,-9.64238 -13.53,-12.66738 -3.0902,-3.025 -8.5301,-8.04505 -12.0886,-11.15568 -3.5585,-3.11062 -16.9664,-16.07888 -29.7952,-28.81835 l -23.3253,-23.16267 -13.6747,0.24247 c -15.4085,0.27321 -29.5526,-0.51816 -39.1748,-2.19185 -3.6071,-0.62742 -9.3929,-0.84304 -13,-0.48447 -3.575,0.35538 -18.9875,0.88589 -34.25,1.1789 -15.2625,0.29302 -27.75,0.92846 -27.75,1.41208 0,0.48362 -1.2889,2.81437 -2.8643,5.17944 -4.2672,6.40643 -7.1336,15.0605 -7.1502,21.58764 -0.015,5.84605 -2.2962,14.16845 -4.2076,15.34975 -1.9844,1.2264 -9.8461,-2.53786 -12.4613,-5.96657 -1.4056,-1.84281 -3.2307,-6.3105 -4.0559,-9.9282 -0.8357,-3.66366 -4.1054,-11.59 -7.3805,-17.89188 -3.2341,-6.22283 -5.8802,-11.98587 -5.8802,-12.80674 0,-1.97605 -5.1068,-4.54387 -9.0367,-4.54387 -6.1039,0 -18.4918,-4.41396 -27.9633,-9.96368 -5.225,-3.06154 -10.85,-6.22226 -12.5,-7.02381 -1.65,-0.80155 -5.025,-3.07995 -7.5,-5.0631 -2.475,-1.98315 -6.525,-4.98449 -9,-6.66965 -4.5252,-3.08109 -10.0346,-7.73909 -19.5511,-16.52976 -2.8282,-2.6125 -5.4356,-4.75 -5.7944,-4.75 -2.1224,0 -8.9947,8.48016 -10.2486,12.64626 -0.7793,2.5897 -2.0604,5.41951 -2.8468,6.28846 -0.9992,1.10404 -1.5667,5.04157 -1.8843,13.0726 -0.4552,11.5089 -1.5999,20.00008 -3.7065,27.49268 -0.6185,2.2 -1.4943,6.31577 -1.9461,9.14615 -0.9922,6.21546 -1.7026,8.76556 -3.7203,13.35385 -0.8466,1.925 -2.1986,5.075 -3.0046,7 -0.806,1.925 -1.8776,4.28139 -2.3814,5.23643 -0.5037,0.95504 -0.9159,2.21723 -0.9159,2.80487 0,2.41743 -8.1965,12.89341 -12.886,16.46969 -2.7689,2.11162 -5.2632,4.4355 -5.5428,5.16416 -0.2796,0.72867 -1.1975,1.32485 -2.0398,1.32485 -0.8423,0 -1.5314,0.36737 -1.5314,0.81638 0,0.44901 -2.8979,2.66391 -6.4399,4.92199 -12.4236,7.92042 -14.0597,17.25047 -6.0441,34.46796 1.3555,2.91152 2.4689,6.43984 2.4742,7.84072 0.01,2.58792 6.4616,9.95295 8.7186,9.95295 0.6185,0 1.2745,0.36871 1.4579,0.81936 0.1833,0.45065 3.0333,2.64792 6.3333,4.88283 5.7916,3.92232 15.8704,13.80426 20,19.60924 1.1,1.54628 4.1885,4.47128 6.8632,6.5 2.6748,2.02871 6.7248,5.14911 9,6.93421 2.2753,1.78511 6.6118,4.52288 9.6368,6.08393 3.025,1.56106 7.8823,4.26302 10.794,6.00436 2.9117,1.74134 5.7672,3.16607 6.3456,3.16607 0.5784,0 2.2461,0.80372 3.706,1.78604 1.4599,0.98236 3.8158,2.36766 5.2353,3.07846 7.6911,3.8515 13.9191,11.8464 13.9191,17.868 0,1.713 2.2592,4.8923 7.25,10.2026 3.9875,4.2429 8.6,9.6772 10.25,12.0764 1.65,2.3992 5.6054,6.9822 8.7897,10.1844 4.5115,4.5369 6.2777,5.7035 8,5.2844 3.6905,-0.8981 8.2852,2.6212 14.1399,10.83046 3.0637,4.2959 5.5704,8.0821 5.5704,8.4138 0,0.3317 2.6861,3.6253 5.969,7.3192 6.5783,7.4018 8.4463,12.7443 5.7305,16.3892 -2.2453,3.0134 -15.1816,4.153 -30.2473,2.6645 z M 121.0004,593.81132 c 0,-0.58246 -0.45,-0.7809 -1,-0.44098 -0.55,0.33992 -1,0.81648 -1,1.05902 0,0.24254 0.45,0.44098 1,0.44098 0.55,0 1,-0.47656 1,-1.05902 z m 758.5,-191.30527 c 2.1335,-0.40974 12.8796,-4.81048 18.2272,-7.46435 1.7749,-0.88086 3.6492,-2.81232 4.1651,-4.29213 0.5158,-1.47981 1.8761,-2.98833 3.0228,-3.35228 3.0076,-0.95456 2.5795,-2.63226 -1.5027,-5.88942 -2.6334,-2.10125 -3.8833,-2.56663 -4.6999,-1.75 -1.3541,1.35405 -5.3749,1.4678 -6.1741,0.17467 -0.5779,-0.93518 5.3397,-5.34208 10.8842,-8.10555 5.7998,-2.89073 6.5774,-3.4513 6.5774,-4.74174 0,-2.76617 -5.3511,-6.15061 -9.7763,-6.18331 -3.7503,-0.0277 -4.8266,0.5187 -8.75,4.44208 -2.4605,2.46053 -4.4737,4.7876 -4.4737,5.17126 0,1.7692 -3.5757,4.35506 -6.0221,4.35506 -2.0522,0 -3.3504,-0.96454 -5.3353,-3.96394 -2.3744,-3.58798 -2.6355,-4.93948 -2.752,-14.25 -0.1396,-11.14829 -1.8454,-18.5302 -4.9262,-21.3183 -1.4547,-1.31647 -3.4319,-1.72309 -7.7486,-1.59357 -5.1594,0.15482 -6.0797,-0.13057 -8.3846,-2.60014 -1.4239,-1.52573 -2.8804,-4.41633 -3.2365,-6.42357 -0.3562,-2.00723 -1.2537,-4.1525 -1.9944,-4.76725 -1.3982,-1.16038 -4.6003,-0.49188 -4.6003,0.9604 0,0.45631 -1.4288,0.97066 -3.1752,1.14301 -2.9178,0.28796 -3.3028,0.76042 -4.75,5.82898 -1.913,6.70024 -3.8482,9.56753 -7.3578,10.90186 -2.942,1.11855 -5.717,6.54422 -5.717,11.1778 0,3.12592 3.9156,10.8181 6.2593,12.2965 1.0307,0.65012 2.3954,0.27823 4.5134,-1.22994 1.6698,-1.18901 3.5154,-2.16184 4.1013,-2.16184 0.5858,0 2.5811,-0.85144 4.4339,-1.8921 5.7219,-3.21381 13.7603,-4.57053 18.2672,-3.08313 7.2257,2.38471 8.4221,5.19268 8.4325,19.79033 0.01,8.73167 0.8757,17.68568 2.3972,24.6849 1.2989,5.97534 1.0492,5.87304 10.0952,4.13571 z m 211.6667,-0.38571 c 0.4243,-0.95479 9.1453,-6.25996 14.1879,-8.63082 2.1201,-0.99678 4.9229,-1.60812 6.2286,-1.35853 2.9604,0.56592 5.8655,-3.3368 5.0128,-6.73424 -0.3675,-1.46405 0.1411,-3.19374 1.4152,-4.81354 2.6456,-3.36333 2.5072,-5.94331 -0.5112,-9.5305 -3.1735,-3.77155 -3.1365,-4.18237 0.3776,-4.18237 2.7455,0 6.0225,-2.43325 4.8525,-3.6032 -0.622,-0.62208 2.0713,-9.27841 3.4289,-11.02005 0.4815,-0.61779 0.6017,-1.83673 0.2671,-2.70876 -0.3346,-0.87203 -0.085,-3.17072 0.5542,-5.10821 0.9036,-2.73793 0.8791,-4.30654 -0.1098,-7.04124 -1.3861,-3.83339 -1.2673,-3.79423 -11.2263,-3.70116 -7.6104,0.0711 -9.6114,1.18167 -11.7204,6.50491 -0.6925,1.74774 -1.7461,3.80274 -2.3414,4.56667 -1.013,1.29991 -3.2251,8.68313 -5.7258,19.11104 -0.5936,2.475 -1.6297,5.175 -2.3025,6 -2.5155,3.08446 -5.943,33 -3.7809,33 0.5831,0 1.2101,-0.3375 1.3935,-0.75 z M 893.0536,357.81469 c 7.9836,-8.35631 9.105,-12.01538 4.94,-16.12011 -1.9782,-1.94965 -3.0702,-2.33991 -4.7787,-1.70789 -1.218,0.45056 -2.2145,1.2837 -2.2145,1.85143 0,0.56772 -1.71,1.03222 -3.8,1.03222 -5.5229,0 -6.2,1.2013 -6.2,11 0,13.48279 2.2398,14.21576 12.0532,3.94435 z m 369.2104,-36.09978 c 1.23,-0.63548 2.8846,-1.45513 3.6769,-1.82144 3.1183,-1.44175 2.2676,-2.9432 -1.1175,-1.97237 -1.8204,0.52208 -6.7737,0.94924 -11.0074,0.94924 -4.2337,0 -7.9757,0.45 -8.3156,1 -0.3399,0.55 -1.4915,1 -2.559,1 -1.0676,0 -1.941,0.45 -1.941,1 0,1.40974 18.4957,1.27454 21.2636,-0.15543 z m -56.8644,-1.87587 c 1.5946,-0.53279 7.4489,-0.9687 13.0095,-0.9687 8.6467,0 10.2727,-0.26013 11.2325,-1.79712 0.7085,-1.13444 3.5844,-2.3109 7.7993,-3.19046 3.6723,-0.76634 6.902,-1.75763 7.1772,-2.20288 0.2752,-0.44525 1.5088,-0.80954 2.7413,-0.80954 1.2326,0 2.6685,-0.36897 3.191,-0.81993 1.3674,-1.1802 14.4074,-5.11997 17.95,-5.42325 l 3,-0.25682 -0.3622,-7.5 c -0.1992,-4.125 -0.7096,-7.725 -1.1342,-8 -0.4246,-0.275 -1.4523,-2.525 -2.2839,-5 -0.9549,-2.84229 -2.1948,-4.63013 -3.3658,-4.85324 -2.3522,-0.44817 -5.3539,-3.07859 -5.3539,-4.69162 0,-0.67919 -2.1375,-2.24233 -4.75,-3.47365 -4.3702,-2.05977 -5.7727,-2.19768 -17.5418,-1.72487 -7.0355,0.28264 -14.4605,0.0736 -16.5,-0.46441 -2.0395,-0.53807 -5.1749,-1.21115 -6.9675,-1.49574 -1.7926,-0.2846 -3.5066,-0.91773 -3.809,-1.40696 -1.3661,-2.21036 -8.2301,0.96765 -15.8975,7.36049 -1.814,1.5125 -3.5832,2.75 -3.9315,2.75 -0.3483,0 -3.7519,2.26822 -7.5634,5.04049 -6.4861,4.7176 -14.6788,7.95951 -20.1147,7.95951 -2.7486,0 -8.6046,5.57574 -9.2593,8.81624 -0.2982,1.47607 -1.0661,4.70876 -1.7064,7.18376 -0.6402,2.475 -1.3832,6.83919 -1.651,9.6982 -0.4792,5.11496 -0.4377,5.21105 2.5922,6 4.2125,1.0969 49.8973,0.47395 53.4991,-0.7295 z m -78.1788,-4.9687 c 0.3962,-3.025 1.0056,-7.40863 1.3542,-9.74139 0.8197,-5.48535 -1.2263,-6.5244 -5.8711,-2.9816 -4.6204,3.52413 -8.4016,9.48746 -9.2074,14.52087 l -0.6881,4.29788 6.846,-0.29788 6.846,-0.29788 0.7204,-5.5 z m 170.113,-19.26848 c 2.7442,-1.92397 2.8115,-2.17909 2.1386,-8.10899 -0.8777,-7.73435 -1.7478,-8.7986 -6.8855,-8.42204 -3.5655,0.26133 -4.2978,0.7457 -5.7438,3.79951 -0.9115,1.925 -1.8405,6.31693 -2.0645,9.75984 l -0.4072,6.25984 5.0645,-0.65085 c 2.7855,-0.35796 6.3395,-1.54475 7.8979,-2.63731 z M 579.4321,265.98083 c 0.3024,-0.48923 2.0164,-1.14288 3.809,-1.45255 1.7926,-0.30966 4.8343,-0.84005 6.7593,-1.17863 1.925,-0.33857 4.4,-1.00703 5.5,-1.48544 1.1,-0.47842 3.8,-1.14002 6,-1.47023 2.2,-0.33021 5.6903,-0.85565 7.7563,-1.16764 2.0659,-0.312 4.005,-0.96973 4.309,-1.46163 0.304,-0.4919 2.0746,-0.89437 3.9347,-0.89437 1.8601,0 3.6601,-0.45 4,-1 0.3399,-0.55 2.5899,-1 5,-1 2.4101,0 4.6294,-0.40028 4.9317,-0.88951 0.3024,-0.48923 2.2414,-1.17627 4.309,-1.52675 2.0676,-0.35049 6.2343,-1.07962 9.2593,-1.62029 3.025,-0.54068 7.975,-1.23414 11,-1.54104 3.025,-0.30689 7.3,-1.37758 9.5,-2.3793 2.2,-1.00173 7.15,-2.57644 11,-3.49936 9.5244,-2.2832 12.5377,-3.12389 15.6822,-4.37528 2.5051,-0.99693 2.6119,-1.28537 1.6167,-4.36794 -0.5861,-1.81529 -1.4585,-3.97553 -1.9386,-4.80053 -1.968,-3.38133 -2.0314,-4.15349 -0.4816,-5.86599 2.9963,-3.31089 2.0523,-8.56237 -2.6287,-14.62343 -4.8127,-6.23153 -7.5412,-7.00441 -10.2317,-2.89823 -1.4745,2.25047 -2.2177,2.53578 -5.365,2.05961 -3.3846,-0.51209 -3.8598,-0.25605 -6.4607,3.48165 -2.1876,3.14371 -3.2915,3.92297 -5,3.52973 -8.6164,-1.98316 -8.2037,-2.08101 -10.647,2.52458 -1.2533,2.36256 -4.269,5.82346 -6.7016,7.69088 -4.1316,3.17177 -4.6671,3.32338 -8.1334,2.3029 -7.8726,-2.31771 -7.7495,-2.35435 -13.9566,4.15626 -3.2207,3.37812 -6.5079,7.08753 -7.3049,8.24313 -0.797,1.15559 -2.7991,2.80073 -4.4491,3.65586 -1.65,0.85512 -4.35,2.72158 -6,4.14769 -2.5204,2.17838 -3.9744,2.59311 -9.095,2.59414 -4.824,9.7e-4 -6.4725,0.41828 -7.905,2.00122 -0.9955,1.1 -2.4152,2 -3.155,2 -0.7397,0 -1.345,0.43323 -1.345,0.96274 0,0.52951 -2.7114,2.80402 -6.0253,5.05447 -3.314,2.25046 -5.7624,4.51723 -5.441,5.03727 0.7405,1.19817 7.164,1.24373 7.898,0.056 z m 664.6723,-15.53377 c 3.9018,-3.94618 6.896,-8.28157 6.896,-9.98488 0,-2.08645 -3.4831,-1.99284 -8,0.21499 -3.0224,1.47734 -3.5851,2.32358 -4.1234,6.20197 -0.3428,2.47016 -0.4288,4.8287 -0.191,5.2412 0.8211,1.42415 3.0304,0.74188 5.4184,-1.67328 z"
     id="path2987"
     inkscape:connector-curvature="0" />
</svg>
