<?xml version="1.0" encoding="UTF-8" standalone="no"?>
<!-- Created with Inkscape (http://www.inkscape.org/) -->

<svg
   xmlns:dc="http://purl.org/dc/elements/1.1/"
   xmlns:cc="http://creativecommons.org/ns#"
   xmlns:rdf="http://www.w3.org/1999/02/22-rdf-syntax-ns#"
   xmlns:svg="http://www.w3.org/2000/svg"
   xmlns="http://www.w3.org/2000/svg"
   xmlns:sodipodi="http://sodipodi.sourceforge.net/DTD/sodipodi-0.dtd"
   xmlns:inkscape="http://www.inkscape.org/namespaces/inkscape"
   id="svg2"
   version="1.1"
   inkscape:version="0.48.2 r9819"
   width="360.12039"
   height="660.84314"
   sodipodi:docname="Fighter - Scimitar.png">
  <metadata
     id="metadata8">
    <rdf:RDF>
      <cc:Work
         rdf:about="">
        <dc:format>image/svg+xml</dc:format>
        <dc:type
           rdf:resource="http://purl.org/dc/dcmitype/StillImage" />
        <dc:title></dc:title>
      </cc:Work>
    </rdf:RDF>
  </metadata>
  <defs
     id="defs6" />
  <sodipodi:namedview
     pagecolor="#ffffff"
     bordercolor="#666666"
     borderopacity="1"
     objecttolerance="10"
     gridtolerance="10"
     guidetolerance="10"
     inkscape:pageopacity="0"
     inkscape:pageshadow="2"
     inkscape:window-width="1600"
     inkscape:window-height="876"
     id="namedview4"
     showgrid="false"
     fit-margin-top="0"
     fit-margin-left="0"
     fit-margin-right="0"
     fit-margin-bottom="0"
     inkscape:zoom="1"
     inkscape:cx="195.46508"
     inkscape:cy="340.48811"
     inkscape:window-x="0"
     inkscape:window-y="24"
     inkscape:window-maximized="1"
     inkscape:current-layer="svg2" />
  <path
     style="fill:#000000"
     d="m 287.46508,660.39729 -6,0.44586 -5.40253,-1.51259 c -2.97139,-0.83193 -6.57139,-2.06995 -8,-2.75116 l -2.59747,-1.23857 -0.30886,-3.71772 -0.30887,-3.71772 1.72878,-3.77517 c 0.95084,-2.07635 3.83166,-6.70018 6.40184,-10.27518 l 4.67305,-6.5 1.53949,-4 1.5395,-4 2.11754,-0.31955 2.11753,-0.31955 -0.022,3.31955 -0.022,3.31955 -2.01309,4.43748 -2.01308,4.43748 0.46542,1.21286 0.46541,1.21286 3.86308,0.65266 3.86308,0.65266 4.45655,-1.93247 4.45655,-1.93248 2.13022,-2.37053 c 1.17162,-1.30378 4.02483,-5.52052 6.34046,-9.37052 2.31563,-3.85 4.87478,-8.575 5.687,-10.5 0.81222,-1.925 1.66628,-4.85 1.89793,-6.5 0.23164,-1.65 0.91947,-9.3 1.52851,-17 0.60904,-7.7 1.24068,-18.23248 1.40364,-23.40551 l 0.2963,-9.40552 -2.88945,-11.59448 c -1.58919,-6.37697 -3.37035,-12.69344 -3.95812,-14.0366 -0.58777,-1.34317 -1.46792,-4.26817 -1.95588,-6.5 -0.48796,-2.23184 -1.35923,-6.27358 -1.93616,-8.98164 l -1.04896,-4.92376 -1.58249,-1.74863 -1.58249,-1.74863 -0.51522,-4.32761 -0.51521,-4.32762 -4.15004,-3.67041 -4.15004,-3.67041 0,-7.32139 0,-7.32138 -3.75,-1.76608 -3.75,-1.76607 0,-1.9207 0,-1.9207 -1.57143,-1.57143 -1.57143,-1.57143 -1.98759,0 -1.98758,0 0.548,0.88669 0.54801,0.8867 -1.43305,1.18932 -1.43304,1.18932 -1.29649,-2.07602 -1.29649,-2.07601 -1.15876,0 -1.15876,0 -0.52027,4.25 c -0.28615,2.3375 -1.2584,8.39543 -2.16056,13.46206 l -1.64029,9.21205 4.17561,11.28795 4.1756,11.28794 0.51349,6.15436 0.5135,6.15436 -0.67732,3.61039 -0.67731,3.61038 -3.62252,3.62253 -3.62253,3.62252 -1.57939,-0.99026 -1.5794,-0.99027 -0.24932,-5.397 c -0.13712,-2.96836 -0.50601,-6.91812 -0.81974,-8.77726 l -0.57044,-3.38025 -1.12705,1.12705 -1.12705,1.12705 -0.0107,11.2532 -0.0107,11.2532 0.83831,6.16079 0.83831,6.16078 -0.64985,2.58922 -0.64985,2.58921 -2.30664,0 -2.30663,0 -2.17432,-2.31445 -2.17425,-2.31445 0,-7.68555 0,-7.68555 -0.95469,0 -0.95468,0 -0.60402,3.25 -0.60402,3.25 0.90776,5.75283 0.90776,5.75283 -1.28213,1.06407 -1.28213,1.06408 -2.4658,-1.61566 -2.46579,-1.61565 -1.02754,-2.70125 c -0.56515,-1.48569 -1.57937,-4.49121 -2.25383,-6.67893 -0.67445,-2.18773 -1.53351,-6.91273 -1.90902,-10.5 l -0.68274,-6.52232 1.22718,-4.5 c 0.67496,-2.475 2.14061,-6.525 3.25701,-9 l 2.02982,-4.5 -0.98873,-5.37029 -0.98872,-5.37028 0.31715,-15.88107 0.31716,-15.88107 -0.62942,0.001 c -0.34618,7.5e-4 -2.37118,1.69337 -4.5,3.76139 l -3.87058,3.76003 -2.30287,7.52794 -2.30287,7.52793 1.27954,4.78406 1.27954,4.78407 -4.22667,3.5109 -4.22667,3.51091 0,5.46029 0,5.46028 -6,5.83466 c -3.3,3.20907 -6,6.25134 -6,6.76062 0,0.50927 -1.58265,2.45991 -3.517,4.33476 l -3.51701,3.40882 0.20932,3.10814 0.20933,3.10814 -2.3288,3.76807 c -1.28084,2.07243 -4.45078,5.89006 -7.04433,8.4836 l -4.71554,4.71554 -0.71213,3.9456 -0.71213,3.94561 -6.04734,12 -6.04733,12 -0.90597,5.5 c -0.49828,3.025 -1.16883,8.65 -1.49011,12.5 l -0.58415,7 2.80977,5.5 2.80977,5.5 0.18748,5 0.18749,5 -0.84404,2.19755 -0.84403,2.19756 -3.80163,0.99266 -3.80162,0.99266 -8,0.1845 c -4.4,0.10147 -13.76623,0.11957 -20.81383,0.0402 -7.04761,-0.0793 -13.14758,0.062 -13.55548,0.31408 -0.4079,0.2521 -2.52827,0.67371 -4.71193,0.93692 -2.18367,0.2632 -7.13064,0.78997 -10.99327,1.17058 l -7.02298,0.69203 -6.34847,-1.6264 -6.34846,-1.6264 -5.74951,-3.49265 -5.74951,-3.49264 -0.62301,-1.62355 -0.62302,-1.62355 3.25115,-7.95167 3.25115,-7.95166 3.26859,-3.36556 c 1.79772,-1.85068 3.26858,-3.83748 3.26858,-4.41474 l 0,-1.04957 1.5,0 1.5,0 0,-0.82237 c 0,-0.4523 1.87015,-2.04679 4.15588,-3.5433 l 4.15589,-2.72094 1.58263,0.30479 1.58263,0.30479 0.32471,1.68606 0.3247,1.68606 -3.9434,2.48936 -3.9434,2.48936 -0.94678,2.8131 -0.94679,2.81309 0.57697,2 c 0.31733,1.1 1.05281,2.80173 1.63441,3.78162 l 1.05745,1.78163 3.52216,0.57157 3.52215,0.57156 5.29725,-2.68432 c 2.91349,-1.47637 8.34805,-4.90328 12.07681,-7.61535 l 6.77956,-4.93104 1.04157,-2.98783 1.04156,-2.98784 1.36396,0 1.36396,0 1.99125,-2.75 c 1.09519,-1.5125 3.03736,-4.775 4.31595,-7.25 1.27858,-2.475 3.16476,-6.92602 4.19151,-9.89115 1.02675,-2.96514 2.27936,-5.89014 2.78357,-6.5 0.50422,-0.60987 1.81156,-3.35885 2.90522,-6.10885 1.09365,-2.75 3.34527,-8.41688 5.00358,-12.59307 1.65832,-4.17618 2.98247,-8.22618 2.94255,-9 -0.0399,-0.77381 -0.002,-2.38911 0.085,-3.58954 l 0.15749,-2.18261 1.89245,-0.60065 1.89246,-0.60064 1.22196,-2.95008 1.22196,-2.95008 -0.59328,-3.26666 -0.59328,-3.26667 1.33104,-8.19197 1.33104,-8.19196 3.63585,-7.35839 3.63584,-7.35839 1.02908,-5.42628 1.02907,-5.42629 2.48291,-3.75192 c 1.36559,-2.06356 2.4829,-4.03966 2.4829,-4.39134 0,-0.35169 -1.35,-2.177 -3,-4.05624 -1.65,-1.87925 -3,-3.81663 -3,-4.30529 0,-0.48866 1.0563,-2.16051 2.34733,-3.7152 l 2.34734,-2.82673 0.56759,-3.5 c 0.31217,-1.925 0.86262,-4.24477 1.22322,-5.15505 l 0.65563,-1.65505 -2.91617,-0.6405 -2.91617,-0.64049 -2.40439,-3.16248 c -1.32241,-1.73936 -2.92646,-4.07396 -3.56456,-5.18801 l -1.16019,-2.02555 0.95331,-1.78127 0.95331,-1.78127 -1.44017,-0.55265 c -0.79209,-0.30395 -2.04899,-0.46896 -2.79312,-0.36668 -0.74413,0.10228 -2.13009,0.13265 -3.07991,0.0675 l -1.72694,-0.1185 -1.64135,-2.50501 -1.64134,-2.505 1.2563,-1.51375 1.2563,-1.51376 -1.63801,-1.80998 -1.63801,-1.80998 0,-5.48013 0,-5.48013 1.38323,-1.89168 1.38323,-1.89168 -1.04105,-1.66698 -1.04105,-1.66699 0.65289,-1.70142 0.6529,-1.70141 1.94402,0.61701 1.94402,0.61701 1.20164,-2.29806 c 0.66089,-1.26393 4.1758,-5.67306 7.8109,-9.79806 3.6351,-4.125 6.9588,-7.65401 7.38601,-7.84225 0.4272,-0.18823 1.6647,-2.0828 2.75,-4.21016 1.08529,-2.12735 1.97326,-4.75288 1.97326,-5.83451 l 0,-1.9666 -2.75,-1.38927 c -1.5125,-0.76411 -3.7444,-2.01901 -4.95978,-2.78868 l -2.20979,-1.39939 -3.54413,1.28157 -3.54413,1.28158 -2.06981,-0.65693 -2.0698,-0.65693 -2.97648,1.2329 -2.97648,1.2329 -2.66942,-1.39212 c -1.46818,-0.76566 -3.47059,-2.17961 -4.4498,-3.14211 l -1.78038,-1.75 -3.83948,0 -3.83949,0 -1.16814,-2.5638 -1.16815,-2.5638 -1.5638,1.5638 -1.5638,1.5638 -2.28069,0 -2.28068,0 -3.39789,-2.28983 -3.39788,-2.28984 -0.0634,-1.46016 c -0.0349,-0.80309 0.59738,-2.24767 1.40499,-3.21017 l 1.4684,-1.75 4.32195,0 4.32196,0 1.63301,-2.49228 1.633,-2.49228 -0.50434,-1.25772 -0.50435,-1.25772 -12.62971,-6.30833 -12.62972,-6.30834 -6.22589,-4.70876 c -3.42425,-2.58981 -8.0259,-5.7961 -10.2259,-7.12506 -2.2,-1.32897 -5.42574,-3.57128 -7.16831,-4.98291 -1.74258,-1.41163 -6.65161,-5.4916 -10.90897,-9.0666 -4.25736,-3.575 -9.77462,-8.4125 -12.26058,-10.75 -2.48597,-2.3375 -4.88944,-4.25 -5.34104,-4.25 -0.4516,0 -0.8211,-0.54688 -0.8211,-1.21528 l 0,-1.21528 -5.84526,-5.53472 c -3.2149,-3.0441 -8.5024,-8.47052 -11.75,-12.05873 -3.24761,-3.5882 -7.44419,-8.44824 -9.32575,-10.80008 -1.88155,-2.35185 -5.35992,-7.29104 -7.72971,-10.97599 -2.36978,-3.68496 -5.26923,-8.49992 -6.44321,-10.69992 -1.17398,-2.2 -3.20811,-5.43248 -4.52029,-7.18328 -1.31218,-1.7508 -2.38578,-3.58356 -2.38578,-4.07278 0,-0.48923 -1.38899,-3.75691 -3.08664,-7.26151 -1.69765,-3.5046 -4.6899,-11.34685 -6.64945,-17.42722 l -3.56281,-11.05521 -1.29604,-8 -1.29604,-8 -0.037,-8.5 -0.0371,-8.5 1.4366,-8.5 c 0.79013,-4.675 2.32762,-11.54485 3.41663,-15.26634 1.08902,-3.72149 3.02566,-8.66187 4.30366,-10.97864 l 2.32364,-4.21229 2.72276,-0.95754 2.72277,-0.95755 0.69831,0.69831 0.69831,0.69831 -1.79311,5.6884 -1.79311,5.6884 -0.52267,12.10239 -0.52266,12.10239 1.19654,6.94708 c 0.65809,3.82089 1.83196,8.8377 2.6086,11.14845 0.77663,2.31075 1.61626,5.32749 1.86585,6.70386 0.24958,1.37638 1.64628,6.46076 3.10377,11.29864 l 2.64999,8.79613 4.1746,7 c 2.29603,3.85 4.48778,7.76095 4.87055,8.691 0.38278,0.93006 3.0617,4.98006 5.95316,9 2.89146,4.01995 7.75328,10.234 10.80404,13.809 3.05077,3.575 6.34123,7.09284 7.31214,7.81742 0.97091,0.72457 4.57091,4.27772 8,7.89588 3.42909,3.61816 7.58593,7.97532 9.23742,9.68259 1.65149,1.70726 8.78206,8.05411 15.84572,14.10411 7.06366,6.05 16.28744,13.83122 20.49729,17.29159 l 7.65428,6.29159 11.8062,7.20841 c 6.4934,3.96463 14.1434,8.45093 17,9.96956 2.85659,1.51864 5.98393,3.0123 6.94966,3.31925 l 1.75585,0.55809 1.87618,-4.37694 1.87617,-4.37694 2.58279,-1.6923 2.58278,-1.69231 2.55663,0 2.55662,0 1.18279,2.59595 1.1828,2.59596 -1.54425,0.8642 c -0.84933,0.47531 -2.62873,1.74339 -3.95423,2.81797 l -2.40999,1.95376 0.63697,0.63971 c 0.35033,0.35185 1.47533,0.61005 2.5,0.57378 1.02467,-0.0363 5.45174,-0.3397 9.83794,-0.67429 l 7.97491,-0.60835 3.26608,-2.49116 3.26608,-2.49116 -0.42512,-2.13819 c -0.23381,-1.176 -0.67707,-3.64351 -0.98502,-5.48336 l -0.55991,-3.34518 1.99403,-0.52145 c 1.09672,-0.2868 1.99404,-0.87019 1.99404,-1.29641 0,-0.42623 1.09501,-1.04979 2.43335,-1.3857 l 2.43335,-0.61073 0.63902,-2.01337 0.63902,-2.01338 -1.1396,-3.45303 -1.1396,-3.45302 0.48693,-13.78128 0.48693,-13.78127 1.58813,-5 c 0.87348,-2.75 2.07626,-6.575 2.67285,-8.5 0.5966,-1.925 2.8929,-8 5.1029,-13.5 2.21,-5.5 4.37044,-10.45 4.80098,-11 l 0.78279,-1 0.41295,-11 0.41295,-11 2.32756,-5.27532 2.32756,-5.27532 1.26471,-0.72468 1.2647,-0.72468 2.60892,-6.44126 2.60892,-6.44125 3.24234,-4.72934 3.24234,-4.72933 2.75,-1.63595 2.75,-1.63594 0,-1.50803 0,-1.50802 3.17499,-2.68544 c 1.74624,-1.47699 5.45874,-4.18709 8.25,-6.02245 2.79125,-1.83535 6.08751,-4.2763 7.32501,-5.42431 l 2.25,-2.08731 0,-2.25613 0,-2.25614 -2.25,-0.32847 c -1.2375,-0.18067 -4.05,0.0678 -6.25,0.55219 -2.2,0.48437 -5.81504,1.50089 -8.03343,2.25893 l -4.03344,1.37825 -5.54225,0 -5.54225,0 -2.19266,-2.33398 -2.19266,-2.33397 1.53177,-3.66603 1.53176,-3.66602 0.90317,0 c 0.49675,0 1.74172,1.15114 2.76661,2.55808 l 1.86343,2.55808 2.17668,-1.88783 2.17669,-1.88783 1.01884,-4.42025 c 0.56037,-2.43114 1.02985,-4.8729 1.04329,-5.42614 l 0.0245,-1.00589 -2.75,-1.26558 c -1.5125,-0.69607 -3.86624,-2.19955 -5.23053,-3.34107 l -2.48052,-2.07549 0.10427,-3.97679 0.10428,-3.97679 1.19357,-1.17625 1.19357,-1.17625 1.50115,2 c 0.82563,1.1 1.88658,2.67125 2.35767,3.49167 l 0.85653,1.49167 0.77244,-0.77244 0.77244,-0.77243 -1.79054,-3.03114 -1.79054,-3.03113 2.61199,-3.7691 c 1.4366,-2.07301 3.95739,-5.05808 5.60176,-6.63349 l 2.98978,-2.86438 -0.59847,-3.190096 -0.59846,-3.19009 1.0898,-0.67354 1.08981,-0.67353 0,-1.96086 0,-1.96085 -2.53603,-4.01733 -2.53602,-4.017327 0.55233,-0.893703 0.55234,-0.893703 -1.01631,-0.628116 -1.01636,-0.628115 0,-2.574963 c 0,-1.41623 0.53608,-4.364226 1.19128,-6.551102 l 1.19128,-3.976138 4.14872,-3.467897 c 2.28179,-1.907344 5.19133,-3.99529 6.46563,-4.639882 l 2.31692,-1.171984 1.34219,-3.898616 1.34219,-3.898616 -1.06601,-1.28446 -1.06601,-1.284461 1.5528,-2.369866 1.5528,-2.369865 0.4466,-10.183322 c 0.24563,-5.600826 0.72853,-10.639502 1.07312,-11.197058 l 0.62652,-1.013736 2.90244,0 2.90244,0 0.94392,-3.75 c 0.51915,-2.0625 1.22425,-5.396783 1.56688,-7.409518 L 271.02176,4.036008 275.10051,2.018004 279.17925,0 l 1.49975,0.575505 1.49974,0.575504 -0.54099,3.333694 -0.54098,3.333695 0.95047,0.587421 0.95046,0.587422 -0.53262,0.861803 -0.53262,0.861803 1.10611,0.683619 1.10612,0.683619 -0.62049,3.307499 -0.62049,3.307499 1.08502,0.670579 1.08502,0.67058 -1.55433,2.372218 c -0.85489,1.304719 -1.55434,2.61305 -1.55434,2.907401 0,0.294351 0.9,0.535183 2,0.535183 l 2,0 0,1.639207 0,1.639206 -9.11693,8.834896 -9.11692,8.834896 0.60544,1.57775 0.60544,1.57775 5.67932,-0.229769 5.67933,-0.229769 3.40807,-2.99233 3.40808,-2.992329 4.67408,1.643782 4.67409,1.643783 4.21189,-0.0909 4.21188,-0.09089 4.56627,2.676013 4.56627,2.676012 1.22185,2.024508 1.22184,2.024508 4,2.029688 c 2.2,1.116329 5.0125,2.957348 6.25,4.091152 l 2.25,2.061463 0,6.442089 0,6.442089 3.75943,3.633597 c 2.06769,1.998478 4.94554,5.433597 6.39522,7.633598 1.44969,2.2 3.27315,5.26638 4.05215,6.81419 l 1.41635,2.81419 -0.8574,7.178916 -0.8574,7.17893 -2.37509,2.50688 -2.37508,2.50689 0.45918,9.34809 0.45918,9.3481 -2.39611,2.3961 -2.3961,2.39611 -4.3593,1.53805 -4.35929,1.53805 -2.81397,2.87819 -2.81396,2.87819 -4.91076,0.6754 -4.91077,0.6754 -1.97398,-0.62652 -1.97399,-0.62651 -0.60699,0.98213 -0.60699,0.98214 3.26591,3.55854 3.26591,3.55854 1.62207,0 1.62206,0 2.38486,1.81745 c 1.31167,0.9996 3.95986,2.43873 5.88486,3.19807 1.925,0.75934 4.65859,2.07899 6.07464,2.93255 1.41605,0.85356 5.12855,4.4212 8.25,7.92809 3.12145,3.50689 5.67536,6.79113 5.67536,7.29831 0,0.50718 0.9,2.78493 2,5.06167 l 2,4.13952 0.008,3.56217 0.008,3.56217 1.88326,6.19244 c 1.03579,3.40584 1.70217,6.37352 1.48084,6.59484 -0.22132,0.22133 0.0933,3.95974 0.69909,8.30757 l 1.1015,7.90515 -1.25707,9.17052 -1.25708,9.17051 1.66709,2.5443 c 0.9169,1.39937 1.66709,3.31569 1.66709,4.25849 0,0.9428 0.43333,3.09613 0.96296,4.78518 0.52963,1.68905 1.91356,6.8274 3.0754,11.41855 l 2.11245,8.34755 -0.004,10.65245 -0.004,10.65245 -0.98434,4.97755 -0.98435,4.97754 0.79827,1.52246 c 0.43905,0.83735 1.10965,3.82929 1.49023,6.64877 l 0.69197,5.12632 -3.20584,6.37368 c -1.7632,3.50552 -4.46265,7.96908 -5.99876,9.91902 l -2.79293,3.54534 -2.67435,7.45466 c -1.47089,4.10006 -3.01936,8.80466 -3.44104,10.45466 -0.42169,1.65 -1.95336,5.89008 -3.40372,9.42241 -1.45036,3.53232 -2.63702,7.04454 -2.63702,7.80493 0,0.76039 2.42638,5.97031 5.39196,11.57759 l 5.39196,10.19507 0.69744,4.5 c 0.38359,2.475 1.34344,6.46131 2.133,8.85847 l 1.43557,4.35848 -0.64818,3.45508 -0.64818,3.45508 1.49388,3.68645 c 0.82164,2.02754 2.22286,5.93644 3.11382,8.68644 l 1.61994,5 -0.65008,2.5 -0.65008,2.5 -1.34052,0.79969 -1.34053,0.79969 0,2.02723 0,2.02724 -2.92308,2.92307 -2.92307,2.92308 -2.65638,0 -2.65638,0 0.52685,2.75 c 0.28976,1.5125 0.8063,5.675 1.14786,9.25 l 0.62102,6.5 2.79529,5.5 2.79528,5.5 1.63631,12.63691 1.6363,12.63691 -0.0844,15.36309 -0.0844,15.36309 -0.77717,5.5 c -0.42745,3.025 -1.30945,8.875 -1.96001,13 -0.65055,4.125 -1.82142,10.425 -2.60194,14 l -1.41912,6.5 -0.12763,15.5 -0.12764,15.5 2.05771,5.80937 c 1.13173,3.19515 3.39974,8.59515 5.04001,12 1.64028,3.40485 3.05714,7.09063 3.14859,8.19063 0.0915,1.1 0.11446,4.12184 0.0511,6.7152 l -0.11675,4.71521 -3.14288,3.57954 -3.14288,3.57954 -12.60712,-0.29475 -12.60712,-0.29474 -8.5,0.84008 c -4.675,0.46205 -11.425,1.27123 -15,1.79819 -3.575,0.52696 -9.2,1.15875 -12.5,1.40398 z m -29.71561,-153.54225 1.51267,0 -0.58311,-8.26285 -0.58312,-8.26284 -1.14012,-2.98716 -1.14012,-2.98715 -1.42529,1.94113 -1.4253,1.94113 0,5.02544 0,5.02543 1.63586,4.28344 1.63586,4.28343 1.51267,0 z m 57.09364,-182 c 0.44052,0 1.28055,-1.05264 1.86675,-2.33919 l 1.0658,-2.33919 0.69878,-10.91081 0.69879,-10.91081 -2.17666,-2.75 -2.17665,-2.75 -1.36003,0 -1.36003,0 -0.64782,2.04109 -0.64782,2.04108 -2.91957,0.58392 -2.91957,0.58391 0,2.39996 0,2.39997 3.40272,6.75689 c 1.87149,3.71629 3.91383,8.65505 4.53854,10.97503 l 1.13583,4.21815 0.80094,0 z M 274.85809,9.855044 c 0.49116,0 1.17675,-0.739408 1.52354,-1.643128 l 0.63053,-1.643128 -0.57791,-0.577912 -0.57792,-0.577911 -0.93031,1.471039 c -0.51167,0.809072 -0.93721,1.80854 -0.94563,2.22104 -0.008,0.4125 0.38655,0.75 0.8777,0.75 z"
     id="path2989"
     inkscape:connector-curvature="0" />
</svg>
