<?xml version="1.0" encoding="UTF-8" standalone="no"?>
<!-- Created with Inkscape (http://www.inkscape.org/) -->

<svg
   xmlns:dc="http://purl.org/dc/elements/1.1/"
   xmlns:cc="http://creativecommons.org/ns#"
   xmlns:rdf="http://www.w3.org/1999/02/22-rdf-syntax-ns#"
   xmlns:svg="http://www.w3.org/2000/svg"
   xmlns="http://www.w3.org/2000/svg"
   xmlns:sodipodi="http://sodipodi.sourceforge.net/DTD/sodipodi-0.dtd"
   xmlns:inkscape="http://www.inkscape.org/namespaces/inkscape"
   id="svg2"
   version="1.1"
   inkscape:version="0.48.2 r9819"
   width="533"
   height="776.62415"
   sodipodi:docname="gustavusadolphus00dodg_0057e.png">
  <metadata
     id="metadata8">
    <rdf:RDF>
      <cc:Work
         rdf:about="">
        <dc:format>image/svg+xml</dc:format>
        <dc:type
           rdf:resource="http://purl.org/dc/dcmitype/StillImage" />
        <dc:title></dc:title>
      </cc:Work>
    </rdf:RDF>
  </metadata>
  <defs
     id="defs6" />
  <sodipodi:namedview
     pagecolor="#ffffff"
     bordercolor="#666666"
     borderopacity="1"
     objecttolerance="10"
     gridtolerance="10"
     guidetolerance="10"
     inkscape:pageopacity="0"
     inkscape:pageshadow="2"
     inkscape:window-width="1920"
     inkscape:window-height="1176"
     id="namedview4"
     showgrid="false"
     fit-margin-top="0"
     fit-margin-left="0"
     fit-margin-right="0"
     fit-margin-bottom="0"
     inkscape:zoom="1"
     inkscape:cx="268.5"
     inkscape:cy="383.12412"
     inkscape:window-x="0"
     inkscape:window-y="24"
     inkscape:window-maximized="1"
     inkscape:current-layer="svg2" />
  <path
     style="fill:#000000"
     d="m 168.85212,776.14262 -6.64788,-0.64262 -2.13386,-1.93371 -2.13385,-1.93371 0.27029,-1.59549 0.2703,-1.59549 -4.33079,-6.3446 -4.33078,-6.34461 -0.0635,-4.20172 -0.0635,-4.20171 4.40574,-6.30258 c 2.42316,-3.46642 4.67229,-6.80744 4.99805,-7.42448 0.32577,-0.61705 1.10755,-2.0219 1.73728,-3.1219 0.62974,-1.1 1.84742,-3.25715 2.70596,-4.79367 l 1.56098,-2.79367 0.33889,-8.31927 0.33888,-8.31928 1.55745,-2.38705 1.55745,-2.38706 1.10542,-4.95426 c 0.60798,-2.72485 1.72757,-6.32485 2.48798,-8 0.76041,-1.67516 2.09356,-5.21562 2.96255,-7.8677 l 1.57999,-4.82196 0.96206,-9.67804 c 0.8785,-8.83752 1.66665,-13.55751 3.59478,-21.52811 l 0.68944,-2.85008 -1.31711,-5.49033 -1.31711,-5.49033 1.24315,-6.1596 1.24315,-6.15959 1.52895,-1.17656 1.52895,-1.17656 -0.60208,-1.89699 -0.60208,-1.89698 1.65952,-3.42645 c 1.87426,-3.86984 8.54742,-15.1633 9.41074,-15.92646 0.31109,-0.275 5.97467,-7.25 12.58572,-15.5 l 12.0201,-15 1.07774,-3 c 1.50059,-4.17705 3.07397,-11.22784 3.60553,-16.15756 l 0.44831,-4.15755 -1.09245,-1.09245 L 222.6,537 l -2.3377,0 -2.3377,0 -8.90307,-3.43837 C 200.42487,530.2416 194.04341,528.60691 183.5,527.024 l -5,-0.75066 -8.22925,0.50299 -8.22926,0.503 -1.62492,-1.34857 c -0.89371,-0.74171 -2.02811,-2.40902 -2.52089,-3.70514 l -0.89597,-2.35657 1.02351,-1.91243 c 0.56292,-1.05183 2.02549,-3.01269 3.25014,-4.35746 4.80478,-5.27603 8.91996,-11.92161 11.51725,-18.59916 1.45501,-3.74081 5.5702,-12.22669 6.70939,-13.83536 0.55,-0.77667 2.9125,-3.45558 5.25,-5.95314 2.3375,-2.49756 4.25,-4.9472 4.25,-5.44365 l 0,-0.90263 -2.25,0.74188 -2.25,0.74188 -5.39891,-0.10118 -5.39891,-0.10118 -2.01879,-2.01878 -2.01878,-2.01879 1.28418,-1.54735 1.28419,-1.54735 3.78885,-1.02023 3.78884,-1.02023 2.30515,-1.86659 2.30515,-1.8666 -2.71049,-3.55363 -2.71048,-3.55363 0,-2.88858 c 0,-3.12505 2.72395,-12.15117 4.13291,-13.69486 L 184,432.6 l 0,-4.24098 0,-4.24099 1,-0.61803 c 0.55,-0.33992 1,-1.34354 1,-2.23028 l 0,-1.61224 1.66054,-1.83487 c 2.15741,-2.38392 1.79364,-2.63696 -4.50495,-3.13368 l -5.28332,-0.41666 -0.88935,-0.88935 -0.88935,-0.88935 0.58279,-5.64675 0.5828,-5.64674 2.3864,-2.57363 c 3.3296,-3.59083 13.17198,-10.13284 22.75569,-15.12522 l 8.09875,-4.21883 -0.32518,-2.87932 c -0.17885,-1.58363 -0.68267,-3.33467 -1.11961,-3.8912 -0.43694,-0.55653 -1.09614,-2.68684 -1.46491,-4.73402 l -0.67047,-3.72214 1.56576,-3.02786 1.56577,-3.02786 2.37212,0 2.37211,0 6.67975,4.05809 6.67975,4.05809 1.39005,-1.15364 c 1.99906,-1.65908 9.93754,-15.74691 11.53062,-20.46254 0.74323,-2.2 2.15523,-5.19447 3.13778,-6.65437 0.98255,-1.4599 1.78646,-2.92731 1.78646,-3.2609 0,-0.33359 0.85307,-2.51412 1.89572,-4.84563 C 252.05286,320.44313 256,310.04544 256,308.39052 c 0,-0.96169 0.52243,-3.19328 1.16096,-4.9591 l 1.16096,-3.21058 -2.35436,-5.86042 -2.35436,-5.86042 -3.76557,-5.5612 C 246.03635,277.31009 239.46891,263.86021 235.8392,254.25 l -1.9829,-5.25 -1.08578,0 c -3.10159,0 -22.27909,18.00835 -27.688,26 l -2.36886,3.5 -7.35683,6.41935 -7.35683,6.41934 0,1.29571 c 0,0.71264 0.70714,3.37855 1.57143,5.92424 l 1.57143,4.62854 0,5.49874 0,5.49874 -1.57143,1.73641 C 188.70714,316.8761 188,318.16872 188,318.79356 l 0,1.13607 -1.91062,1.02254 -1.91063,1.02253 -2.12708,3.4417 -2.12709,3.4417 -4.21229,2.02274 -4.21229,2.02275 -6,0.17847 -6,0.17847 -5.81641,1.90273 c -3.19902,1.0465 -6.57402,2.28473 -7.5,2.75161 -0.92597,0.46688 -3.88429,1.3672 -6.57402,2.00072 l -4.89044,1.15185 -4.73501,-1.57272 -4.73502,-1.57271 -3.64887,-3.94373 -3.64887,-3.94373 -3.11016,-5.76727 c -1.71059,-3.17201 -3.50353,-6.19866 -3.98431,-6.72591 l -0.87415,-0.95863 -8.46893,0.2927 -8.46893,0.29271 -2.92681,-2.08408 L 87.19126,313 85.2623,313 c -1.06093,0 -2.23721,-0.30824 -2.61395,-0.68498 L 81.96336,311.63003 65.73168,311.44838 49.5,311.26672 45.88701,309.2274 c -1.98715,-1.12163 -4.67337,-2.64415 -5.96939,-3.38336 -1.29601,-0.73922 -5.3436,-3.67459 -8.99464,-6.52304 l -6.63825,-5.17901 -0.63136,-3.82099 c -0.34725,-2.10155 -0.63631,-5.2284 -0.64236,-6.94856 l -0.011,-3.12755 1.40189,-1.16346 c 0.77103,-0.63991 1.66024,-2.19286 1.97602,-3.45101 l 0.57414,-2.28754 2.52397,-1.15 2.52398,-1.15 0,-1.15201 c 0,-0.63361 1.64178,-3.43725 3.6484,-6.23031 l 3.64839,-5.07831 -1.48371,-2.58521 -1.48371,-2.58522 0.76503,-1.95591 c 0.42077,-1.07575 0.79666,-4.44972 0.83531,-7.4977 l 0.0703,-5.54179 -4.25,-4.10085 -4.25,-4.10084 -2.15777,-0.64548 -2.15778,-0.64548 -4.09222,-4.43954 -4.09223,-4.43954 0,-3.8999 0,-3.8999 1.5,-1.24489 1.5,-1.24489 1.5,1.24489 1.5,1.24489 0,3.19046 0,3.19047 2.86994,2.74958 c 1.57847,1.51226 4.37605,3.50896 6.21685,4.43709 l 3.3469,1.68751 4.28316,5.28746 4.28315,5.28746 0,3.96254 0,3.96254 2.02475,0 2.02475,0 0.97525,2.5651 c 0.53639,1.4108 0.97525,3.58059 0.97525,4.82174 l 0,2.25665 5.25,2.37257 c 6.53208,2.95196 6.8717,3.20401 13.79015,10.23394 3.11235,3.1625 6.14202,5.75 6.73261,5.75 0.59058,0 2.45832,1.165 4.15051,2.58889 l 3.07673,2.5889 0,1.4111 0,1.41111 1.75,-0.0425 c 0.9625,-0.0233 4.9,-1.17284 8.75,-2.55442 3.85,-1.38157 7.7875,-2.76495 8.75,-3.07417 l 1.75,-0.56221 0.004,-3.63337 0.004,-3.63337 1.84265,-3.02158 1.84265,-3.02158 5.40361,-1.34055 c 7.30517,-1.81229 16.1332,-6.20268 24.47753,-12.17327 3.80934,-2.72569 8.05108,-5.48298 9.42608,-6.12731 l 2.5,-1.1715 5.5,-0.0721 c 3.025,-0.0396 5.95343,-0.36875 6.50762,-0.73132 0.55418,-0.36256 2.61584,-0.96092 4.58145,-1.32967 l 3.57384,-0.67045 1.62112,-2.67033 c 1.98791,-3.2745 7.52583,-9.17033 8.61365,-9.17033 0.43796,0 1.87765,-0.93942 3.19931,-2.0876 1.32166,-1.14819 2.87725,-2.38569 3.45687,-2.75 1.14047,-0.71684 6.55014,-8.59666 8.90011,-12.96408 1.69236,-3.14522 7.88855,-9.66915 12.41351,-13.07009 l 3.15564,-2.37176 5.98844,-7.85132 c 3.29312,-4.3182 5.98792,-8.0884 5.98792,-8.3782 0,-1.15289 -2.63557,-0.3764 -5,1.47308 l -2.5,1.95553 -3.22432,0.0222 -3.22432,0.0222 -1.38534,-2.75 c -0.76194,-1.5125 -1.70855,-4.1 -2.10359,-5.75 -0.39504,-1.65 -1.28977,-3.675 -1.98828,-4.5 -0.69852,-0.825 -1.83375,-3.59036 -2.52273,-6.14525 l -1.25269,-4.64525 0.64185,-2.02229 c 0.35302,-1.11226 1.55596,-3.18439 2.67322,-4.60475 L 205.14516,148 l 2.72742,0 2.72742,0 1.15762,1.15762 1.15762,1.15762 1.54238,-1.28007 1.54238,-1.28006 0,-1.4108 c 0,-0.77594 1.14657,-3.67344 2.54792,-6.43888 l 2.54793,-5.02809 -0.67838,-2.18867 c -0.69234,-2.23373 -2.47304,-6.34503 -7.55425,-17.44134 C 211.28845,111.80836 210,108.76596 210,108.48643 c 0,-0.27952 -0.95236,-2.64082 -2.11636,-5.24733 -1.164,-2.6065 -2.70058,-6.0891 -3.41464,-7.7391 -0.71406,-1.65 -3.36169,-7.42909 -5.88364,-12.84242 C 196.06341,77.24424 194,72.61859 194,72.37835 194,72.13811 191.58151,66.8922 188.62558,60.72077 182.32112,47.558268 180.99403,44.540484 177.97428,36.5 175.99886,31.24016 169.50187,16.716036 166.90908,11.763569 166.40909,10.808532 166,8.875577 166,7.468114 L 166,4.909091 168.45455,2.454545 170.90909,0 l 2.82295,0 2.82295,0 2.10824,1.476671 2.10824,1.476671 0.69138,2.773329 c 0.72756,2.918457 1.54373,4.835118 7.56838,17.773329 2.04885,4.4 5.15289,11.15 6.89786,15 3.21144,7.085525 3.85642,8.400308 5.88667,12 C 203.40573,53.31905 211,70.07955 211,70.76954 c 0,0.63877 4.5239,10.94147 9.69586,22.0813 1.87705,4.04297 4.31965,9.6515 5.428,12.4634 1.10835,2.81191 2.61038,6.25403 3.33784,7.64916 0.72746,1.39513 2.13162,4.5616 3.12037,7.0366 0.98874,2.475 2.22071,5.06653 2.7377,5.75895 l 0.93997,1.25895 3.82416,0.61151 3.82415,0.6115 1.70096,1.87955 1.70097,1.87954 1.37639,0 1.3764,0 0.5011,-1.30585 0.5011,-1.30585 5.21752,-2.56844 c 2.86963,-1.41265 7.41581,-3.62703 10.10261,-4.92086 l 4.88511,-2.35241 4.53562,-4.2843 4.53563,-4.28431 3.82927,-1.14728 3.82927,-1.14728 0,-0.84171 0,-0.84171 -2.25,-0.004 -2.25,-0.004 -7.88358,-2.94519 -7.88358,-2.94518 -5.77537,-4.05119 C 258.78102,94.82304 255.79423,93 255.32017,93 c -0.47407,0 -1.93405,-1.96259 -3.24441,-4.36131 l -2.38246,-4.3613 0.60946,-3.8887 0.60945,-3.88869 3.73155,-3.26819 3.73154,-3.26819 3.81235,-0.60962 3.81235,-0.60962 0,-1.31317 c 0,-0.72225 -0.45,-1.59129 -1,-1.93121 l -1,-0.61803 0,-2.49197 0,-2.49197 3.63341,-3.32864 3.63341,-3.32864 -0.6224,-1.00707 -0.6224,-1.00707 1.59046,-1.31996 c 0.87475,-0.72598 3.1142,-3.701965 4.97657,-6.613305 3.63723,-5.685912 4.45094,-6.15501 6.46567,-3.727408 0.71479,0.861265 2.53794,2.2063 4.05145,2.988966 l 2.75184,1.423029 0.32099,2.250819 0.321,2.250818 2,0.344575 2,0.344576 1.18132,1.51284 1.18131,1.51284 -0.52938,1.37956 -0.52939,1.37955 2.52469,1.15033 2.52469,1.15032 4.32338,-3.50664 4.32338,-3.50664 6.07498,-2.190615 6.07498,-2.190616 9.92502,0.457432 C 346.48393,47.004216 347.2016,47.187731 361,53.84131 l 8.5,4.0987 6,4.57719 6,4.57719 2.5,-0.58976 c 1.375,-0.32437 4.525,-1.0289 7,-1.56561 l 4.5,-0.97584 4.1261,0.48339 c 4.50251,0.5275 9.3739,2.42252 9.3739,3.64656 0,0.42465 0.86873,1.04782 1.9305,1.38481 l 1.9305,0.61272 0.62123,2.82842 0.62122,2.82841 -1.68529,3.87626 -1.68528,3.87625 -3.61644,2.72661 C 405.1274,87.72625 400.35,91.13945 396.5,93.81149 l -7,4.85826 -7.5,2.84946 c -4.125,1.56721 -8.23213,3.46115 -9.12696,4.20876 l -1.62696,1.3593 -0.64981,4.89853 -0.64981,4.89852 2.50917,7.1818 2.50918,7.18181 -0.63117,1.12603 c -0.34715,0.61932 -1.52116,2.11564 -2.60892,3.32516 l -1.97775,2.19912 0.55108,1.43608 0.55107,1.43608 -1.48126,2.1148 -1.48127,2.1148 -1.44329,0 -1.4433,0 0,1.36514 c 0,0.75083 -0.86818,2.46885 -1.92928,3.81782 l -1.92928,2.45268 0.54168,4.03851 0.54168,4.03851 -2.30096,2.14367 C 358.65831,164.03535 357.03273,165 356.31144,165 L 355,165 l 0,3.3 0,3.3 -1.11287,1.11287 -1.11287,1.11287 0.67189,1.08713 0.67188,1.08713 3.48083,0 3.48082,0 4.21016,2.15475 4.21016,2.15474 2.95425,0.34951 c 1.62484,0.19223 3.23327,0.68509 3.57429,1.09525 0.34102,0.41016 2.89588,3.44575 5.67746,6.74575 7.79933,9.25295 9.96362,14.50419 10.9862,26.65593 l 0.47596,5.65592 -2.08408,0.66146 -2.08408,0.66147 0,0.94618 c 0,0.5204 0.41051,1.72757 0.91225,2.68261 0.50174,0.95504 1.89586,5.98809 3.09806,11.18457 l 2.18581,9.44813 3.55623,7.28948 3.55622,7.28949 2.91236,2.76238 2.91236,2.76238 3.43336,6.97179 c 1.88834,3.83448 3.43335,7.50642 3.43335,8.15986 l 0,1.18808 4.56515,4.34013 4.56515,4.34014 1.34366,3 c 0.73902,1.65 1.57839,4.125 1.86528,5.5 0.28688,1.375 1.04893,4.3 1.69343,6.5 0.64451,2.2 1.39808,5.6875 1.67461,7.75 l 0.50279,3.75 0.89497,0 0.89496,0 0,4.45295 0,4.45294 -0.87659,2.29706 c -0.48213,1.26338 -1.40831,4.5389 -2.05818,7.27894 l -1.1816,4.98189 -2.46549,3.23243 -2.46549,3.23242 -3.72016,1.76534 -3.72016,1.76533 -7.50616,7.26528 c -4.1284,3.99591 -8.96112,8.67533 -10.73939,10.39871 l -3.23321,3.13342 -3.18327,-0.63665 -3.18328,-0.63666 -3.26679,-2.4917 C 383.6035,367.12127 381.87842,366 381.56672,366 c -1.07138,0 -0.53536,4.50632 1.07054,9 1.81113,5.06797 3.08799,9.61985 4.35454,15.52359 0.47476,2.21297 2.24582,7.01076 3.9357,10.66174 1.68987,3.65099 3.0725,6.97429 3.0725,7.38511 0,0.41082 1.53374,3.93804 3.40831,7.83826 4.09043,8.51053 6.11491,13.23407 7.11091,16.5913 1.16225,3.91762 5.55767,13.70608 9.20534,20.5 0.59059,1.1 2.13167,4.24379 3.42462,6.9862 1.29295,2.74241 4.03832,7.33569 6.10082,10.2073 2.0625,2.8716 3.75208,5.57782 3.75463,6.0138 0.003,0.43599 1.24366,2.1427 2.75804,3.7927 1.51437,1.65 5.10248,5.84011 7.97357,9.31136 l 5.22016,6.31135 2.92913,6.18865 2.92912,6.18864 -0.17142,7.35233 -0.17142,7.35233 -3.48591,1.85575 c -1.91724,1.02067 -4.25223,1.87462 -5.18885,1.89767 -0.93662,0.0231 -2.84912,0.56415 -4.25,1.20244 L 433,529.32103 l 0,4.97219 0,4.97219 1.84302,1.61729 c 2.57325,2.25808 3.77346,4.9027 4.56086,10.04965 l 0.67807,4.43235 3.59215,7.56765 3.59215,7.56765 -0.75915,10 c -0.91391,12.03852 -0.74448,18.69037 0.65515,25.72184 0.57785,2.90299 1.3941,10.00316 1.81389,15.77816 l 0.76325,10.5 2.12958,11.35266 2.12957,11.35265 0.9296,17.14735 0.9296,17.14734 0.8937,4 c 0.49153,2.2 1.53917,5.35 2.32808,7 l 1.43439,3 3.13833,0.30555 3.13833,0.30555 1.74013,1.92279 1.7401,1.9228 -1.5945,3.27166 -1.5945,3.27165 2.2091,0.27995 c 1.215,0.15398 3.2369,0.50389 4.4931,0.77759 l 2.284,0.49764 1.1042,2.42329 1.1041,2.4233 3.1118,0.66459 c 1.7116,0.36552 3.5619,1.01365 4.1119,1.44029 0.55,0.42664 3.1503,1.4987 5.7786,2.38236 l 4.7785,1.60666 4.7215,-1.10391 4.7214,-1.10391 5,0.0921 5,0.0921 7,1.70271 7,1.70271 1.75,1.46629 1.75,1.46629 0,2.6225 0,2.62251 -1.5567,2.2225 C 530.5871,739.99987 529.4525,741 528.9219,741 c -0.5306,0 -2.6963,1.1459 -4.8127,2.54644 -4.6739,3.09305 -11.6793,5.81844 -21.3516,8.30669 l -7.2576,1.86705 -9,-0.35617 c -4.95,-0.19589 -10.6863,-0.63202 -12.7473,-0.96918 l -3.7473,-0.61301 -2.6254,0.65895 -2.6255,0.65895 0.53324,3.28596 0.53323,3.28596 -0.66048,1.02465 c -0.36327,0.56355 -2.01049,1.69997 -3.66049,2.52537 l -3,1.50072 -7.39982,0.65971 -7.39983,0.65972 -4.82439,-3.2709 -4.82439,-3.27091 -0.09,-3 c -0.10367,-3.45599 -2.17338,-13.51964 -3.08493,-15 l -0.61576,-1 -0.10785,-9 -0.10784,-9 -1.13583,-6.5 c -0.6247,-3.575 -1.49267,-7.4 -1.92882,-8.5 -0.43614,-1.1 -1.54608,-4.925 -2.46653,-8.5 -2.53594,-9.8495 -6.6237,-21.94975 -7.62403,-22.56799 C 416.40049,676.12949 416,675.11436 416,674.17617 416,671.61751 412.22598,664.953 408.53852,661 405.00681,657.21397 402,651.70163 402,649.01303 c 0,-0.92383 -0.29075,-1.97045 -0.64612,-2.32581 -0.72043,-0.72044 -0.79664,-1.47731 -1.78351,-17.71289 L 398.87292,617.5 l 1.54979,-12.35907 1.54979,-12.35907 -4.92869,-9.39208 -4.92869,-9.39209 -4.54993,-5.91296 c -2.50245,-3.25214 -4.94827,-6.06412 -5.43514,-6.24885 -0.48687,-0.18473 -2.7403,-3.21815 -5.00763,-6.74092 L 373,548.68993 l 0,-1.78595 c 0,-2.53422 -0.92816,-2.83143 -5.96554,-1.91028 l -4.44823,0.81341 -3.28652,-0.53333 -3.28653,-0.53333 -2.4062,-2.4062 -2.4062,-2.4062 -6.85039,2.74532 -6.85039,2.74532 -6,0.0407 C 328.2,545.48171 324.375,545.275 323,545 l -2.5,-0.5 0,4 0,4 -3,-0.18657 c -1.65,-0.10262 -5.82639,-0.66074 -9.28086,-1.24028 l -6.28087,-1.05371 -2.7215,-1.40734 c -1.49682,-0.77404 -3.57767,-2.35341 -4.62412,-3.50972 C 293.54621,543.94607 292.1965,543 291.5933,543 l -1.09673,0 -2.31841,4.37023 c -1.27512,2.40363 -4.15188,6.79113 -6.39279,9.75 l -4.07439,5.37977 -3.03899,6.5 -3.03899,6.5 -5.0665,6.3319 c -2.78658,3.48255 -7.07585,8.20755 -9.53173,10.5 -2.45588,2.29246 -5.83088,5.52426 -7.5,7.1818 l -3.03477,3.0137 -2.84109,7.4863 c -1.56259,4.11746 -4.68669,11.3113 -6.94244,15.9863 -2.25574,4.675 -4.43567,9.4 -4.84429,10.5 -3.20821,8.63651 -8.96655,19.06153 -14.78879,26.77394 l -3.94525,5.22606 -3.7179,7.82961 c -4.47694,9.42809 -5.47193,13.40815 -6.29243,25.17039 l -0.62781,9 -1.86302,2.74696 -1.86302,2.74696 0.58477,7.25304 c 0.32161,3.98917 0.728,9.2921 0.90308,11.78428 l 0.31833,4.53124 1.70993,2.44127 1.70993,2.44126 0,2.83684 0,2.83684 -4.14127,8.43545 c -2.2777,4.6395 -4.7527,8.9429 -5.5,9.5631 -0.7473,0.62021 -1.35873,1.66911 -1.35873,2.33089 0,0.66178 -1.13954,2.27378 -2.53231,3.58222 l -2.5323,2.37898 -6.2177,0.18796 c -3.41973,0.10337 -9.20924,-0.10122 -12.86557,-0.45467 z M 25.5,217 l -0.61803,-1 0.64804,-1.04856 0.64804,-1.04856 1.41098,1.17101 C 28.36506,215.71794 29,216.63979 29,217.12244 L 29,218 l -1.44098,0 c -0.79254,0 -1.7191,-0.45 -2.05902,-1 z M 4.25,212.50417 c -1.64618,-1.86974 -1.58247,-2.56898 0.17268,-1.89547 0.78248,0.30027 1.66835,1.18614 1.96862,1.96862 L 6.93723,214 6.21861,213.962 C 5.82338,213.941 4.9375,213.28504 4.25,212.50417 z m 5.41667,0.82916 C 9.3,212.96667 9,212.29167 9,211.83333 L 9,211 l 1.5,0 1.5,0 0,1.5 0,1.5 -0.83333,0 c -0.45834,0 -1.13334,-0.3 -1.5,-0.66667 z M 0,210 c 0,-0.55 0.19844,-1 0.44098,-1 0.24254,0 0.7191,0.45 1.05902,1 l 0.61803,1 -1.05901,0 L 0,211 0,210 z m 23.08333,-0.28297 C 23.3125,209.5614 24.4,208.7739 25.5,207.96703 l 2,-1.46703 -1.37244,1.75 c -0.75485,0.9625 -1.84235,1.75 -2.41667,1.75 -0.57432,0 -0.85672,-0.12734 -0.62756,-0.28297 z M 31,209 c 0,-0.55 0.45,-1 1,-1 0.55,0 1,0.45 1,1 0,0.55 -0.45,1 -1,1 -0.55,0 -1,-0.45 -1,-1 z M 12,206.31445 12,204.6289 9.75,202.06445 7.5,199.5 l 2.65581,2.33583 2.65582,2.33583 0.50056,1.91417 L 13.81276,208 12.90638,208 12,208 12,206.31445 z M 23,206 c 0,-0.55 0.45,-1 1,-1 0.55,0 1,0.45 1,1 0,0.55 -0.45,1 -1,1 -0.55,0 -1,-0.45 -1,-1 z m 6,-0.5 c 0.68469,-0.825 1.46989,-1.5 1.74489,-1.5 0.275,0 -0.0602,0.675 -0.74489,1.5 -0.68469,0.825 -1.46989,1.5 -1.74489,1.5 -0.275,0 0.0602,-0.675 0.74489,-1.5 z M 14,205 c 0,-0.55 0.45,-1 1,-1 0.55,0 1,0.45 1,1 0,0.55 -0.45,1 -1,1 -0.55,0 -1,-0.45 -1,-1 z m 5.45888,-1.06653 c -0.36253,-0.58659 -0.44468,-1.281 -0.18255,-1.54313 0.26212,-0.26213 0.74306,0.21781 1.06875,1.06653 0.67618,1.76211 0.0998,2.07206 -0.8862,0.4766 z M 21,199 c 0,-0.55 0.45,-1 1,-1 0.55,0 1,0.45 1,1 0,0.55 -0.45,1 -1,1 -0.55,0 -1,-0.45 -1,-1 z m -4.89961,-9.29548 -1.3239,-2.20452 1.80223,1.72619 c 0.99123,0.94941 1.58698,1.94144 1.3239,2.20452 -0.26308,0.26308 -1.07408,-0.5137 -1.80223,-1.72619 z"
     id="path2989"
     inkscape:connector-curvature="0" />
</svg>
