<?xml version="1.0" encoding="UTF-8" standalone="no"?>
<!-- Created with Inkscape (http://www.inkscape.org/) -->

<svg
   xmlns:dc="http://purl.org/dc/elements/1.1/"
   xmlns:cc="http://creativecommons.org/ns#"
   xmlns:rdf="http://www.w3.org/1999/02/22-rdf-syntax-ns#"
   xmlns:svg="http://www.w3.org/2000/svg"
   xmlns="http://www.w3.org/2000/svg"
   xmlns:sodipodi="http://sodipodi.sourceforge.net/DTD/sodipodi-0.dtd"
   xmlns:inkscape="http://www.inkscape.org/namespaces/inkscape"
   id="svg2"
   version="1.1"
   inkscape:version="0.48.2 r9819"
   width="590.35071"
   height="1275.1804"
   sodipodi:docname="Fighter-Knight.png">
  <metadata
     id="metadata8">
    <rdf:RDF>
      <cc:Work
         rdf:about="">
        <dc:format>image/svg+xml</dc:format>
        <dc:type
           rdf:resource="http://purl.org/dc/dcmitype/StillImage" />
        <dc:title></dc:title>
      </cc:Work>
    </rdf:RDF>
  </metadata>
  <defs
     id="defs6" />
  <sodipodi:namedview
     pagecolor="#ffffff"
     bordercolor="#666666"
     borderopacity="1"
     objecttolerance="10"
     gridtolerance="10"
     guidetolerance="10"
     inkscape:pageopacity="0"
     inkscape:pageshadow="2"
     inkscape:window-width="1920"
     inkscape:window-height="1176"
     id="namedview4"
     showgrid="false"
     fit-margin-top="0"
     fit-margin-left="0"
     fit-margin-right="0"
     fit-margin-bottom="0"
     inkscape:zoom="0.70710678"
     inkscape:cx="417"
     inkscape:cy="632"
     inkscape:window-x="0"
     inkscape:window-y="24"
     inkscape:window-maximized="1"
     inkscape:current-layer="svg2" />
  <path
     style="fill:#000000"
     d="m 137.78621,1275.0311 c -2.90741,-0.082 -10.53354,-0.4807 -16.94694,-0.8858 l -11.66074,-0.7365 -5.56655,-2.5484 -5.56655,-2.5485 -4.83618,-7.4082 c -2.65991,-4.0746 -5.42289,-8.9417 -6.13996,-10.8158 -0.71708,-1.8741 -1.93008,-4.834 -2.69557,-6.5776 -0.76548,-1.7436 -1.65651,-4.4937 -1.98005,-6.1115 l -0.58827,-2.9413 1.55379,-3.0047 c 0.85458,-1.6526 2.58587,-4.2339 3.8473,-5.7362 1.26143,-1.5023 3.59775,-4.0375 5.19182,-5.6338 1.59408,-1.5963 3.33379,-2.9023 3.86603,-2.9023 0.53224,0 3.278,-1.6576 6.10168,-3.6835 2.82369,-2.0259 8.05898,-6.04 11.63398,-8.9203 l 6.5,-5.2367 3.25,-6.4311 c 1.7875,-3.537 3.25,-6.9767 3.25,-7.6438 0,-0.667 1.125,-3.6723 2.5,-6.6783 1.375,-3.0061 2.5,-5.8399 2.5,-6.2974 0,-0.4576 1.77657,-4.0639 3.94793,-8.0142 2.17137,-3.9502 5.09637,-8.5471 6.5,-10.2152 1.40364,-1.6681 2.55207,-3.4773 2.55207,-4.0203 0,-0.543 1.13758,-3.4744 2.52796,-6.514 1.39038,-3.0397 3.40475,-8.7484 4.47638,-12.686 l 1.94842,-7.1592 1.08643,-16 c 0.59754,-8.8 1.05198,-18.6614 1.00987,-21.9141 l -0.0766,-5.9141 -0.87728,-1.0859 c -0.48251,-0.5973 -1.58048,-4.4609 -2.43993,-8.5859 -0.85946,-4.125 -2.34245,-13.4962 -3.29554,-20.825 l -1.7329,-13.325 1.08097,-4.0498 1.08097,-4.0499 -0.86481,-3.0154 -0.86482,-3.0155 0.9766,-7.1097 0.9766,-7.1097 -0.25618,-12.50005 -0.25617,-12.5 0.77813,-5 c 0.42798,-2.75 1.04271,-6.31251 1.36607,-7.91668 0.32336,-1.60418 1.43402,-4.30418 2.46813,-6 l 1.88019,-3.08332 0.0146,-4.5 0.0146,-4.5 1.41684,-4.66859 1.41685,-4.6686 -0.52267,-1.99869 -0.52268,-1.9987 1.59158,-5.47484 1.59158,-5.47483 -0.62108,-3.10539 -0.62108,-3.1054 1.02673,-1.25248 c 0.5647,-0.68886 1.54059,-3.27748 2.16864,-5.75248 0.62806,-2.475 2.06093,-6.525 3.18418,-9 1.12325,-2.475 2.95117,-6.525 4.06205,-9 1.11088,-2.475 2.613,-5.63688 3.33805,-7.0264 l 1.31826,-2.5264 -4.39811,-6.4736 c -2.41896,-3.56048 -6.54747,-9.26888 -9.17445,-12.68533 -2.62699,-3.41646 -5.88181,-8.36646 -7.23295,-11 -1.35113,-2.63355 -4.10295,-7.26327 -6.11514,-10.28827 -2.0122,-3.025 -5.56356,-9.29069 -7.89192,-13.92375 -2.32835,-4.63306 -5.20153,-9.80806 -6.38485,-11.5 -1.18331,-1.69194 -3.73128,-5.10125 -5.66215,-7.57625 -1.93087,-2.475 -4.90056,-6.525 -6.59931,-9 -1.69875,-2.475 -4.31932,-6.97487 -5.82348,-9.9997 -1.50417,-3.02484 -4.20202,-7.29984 -5.99523,-9.5 -1.79321,-2.20016 -3.82916,-5.07443 -4.52433,-6.38726 -0.69517,-1.31283 -3.91513,-5.85593 -7.15547,-10.09577 C 94.65118,763.95786 92,760.16307 92,759.76485 c 0,-0.39823 -1.44384,-2.83013 -3.20854,-5.40422 -1.7647,-2.5741 -4.0147,-5.55253 -5,-6.61874 C 82.80616,746.67568 82,745.43473 82,744.98423 c 0,-0.4505 -2.84552,-5.20315 -6.32337,-10.56144 -3.47786,-5.35829 -8.02064,-12.66734 -10.09507,-16.24234 -2.07444,-3.575 -5.58364,-8.8625 -7.79824,-11.75 l -4.02654,-5.25 -2.35335,0 -2.35335,0 -6.55008,-3 -6.55008,-3 -2.06149,0 -2.06148,0 -4.30785,3.09367 -4.30785,3.09366 -1.74844,-0.34366 -1.74844,-0.34367 -1.06875,-1.69718 -1.06876,-1.69718 3.77415,-7.63284 3.77414,-7.63284 -1.81257,-2.66998 -1.81258,-2.66998 -0.18399,-17 c -0.10119,-9.35 -0.50051,-21.084 -0.88736,-26.07555 l -0.70337,-9.07554 1.6519,-2.52112 1.6519,-2.52111 -2.23007,-2.90334 c -1.22653,-1.59684 -2.69558,-3.23395 -3.26454,-3.63803 -0.56896,-0.40408 -2.27067,-0.74158 -3.78159,-0.75 L 11.00576,612.18046 7.08141,608.63504 3.15705,605.08962 1.57853,600.4569 0,595.82418 l 0,-3.87152 0,-3.87152 1.41072,-2.70034 c 0.7759,-1.48519 2.82246,-4.04269 4.54792,-5.68334 l 3.13719,-2.983 5.70209,0.15339 5.70208,0.15338 3.5,1.49771 3.5,1.49771 2.7697,2.90718 2.76969,2.90718 0.98031,3.41812 C 34.55886,591.1291 35,594.0326 35,595.70135 l 0,3.0341 1.5567,2.2225 1.55671,2.22251 1.88428,0 c 1.03635,0 2.11662,-0.37593 2.40059,-0.83541 0.28397,-0.45948 1.1875,-4.17198 2.00783,-8.25 l 1.49153,-7.41459 1.02812,-22.5 1.02813,-22.5 1.01823,-3.47659 1.01824,-3.47659 0.10731,-33.62487 0.10731,-33.62487 -1.68669,-3.26171 c -0.92768,-1.79393 -2.3238,-5.70773 -3.10249,-8.69732 L 44,450.08287 l 0,-9.90416 0,-9.90415 0.89586,-2.29706 c 0.49273,-1.26338 1.42985,-4.32205 2.08251,-6.79705 0.65265,-2.475 1.68079,-6.3 2.28475,-8.5 0.60395,-2.2 1.96789,-6.025 3.03097,-8.5 1.06308,-2.475 2.88637,-6.399 4.05176,-8.72001 l 2.1189,-4.22001 6.52816,-7.4096 c 3.59049,-4.07527 8.99842,-9.39885 12.01762,-11.83017 3.01921,-2.43132 6.83947,-5.32916 8.48947,-6.43965 1.65,-1.11048 5.47049,-2.79359 8.48997,-3.74023 3.01948,-0.94663 7.96948,-1.98978 11,-2.31809 l 5.51003,-0.59694 4,-4.45214 c 2.2,-2.44867 8.05,-8.59575 13,-13.66018 l 9,-9.20805 5,-3.3527 c 2.75,-1.84398 7.63986,-5.87259 10.86635,-8.95246 3.2265,-3.07988 7.9515,-7.78242 10.5,-10.4501 2.54851,-2.66768 8.79615,-8.20608 13.88365,-12.30755 l 9.25,-7.45723 0,-1.71994 c 0,-0.94597 0.72279,-2.75186 1.60619,-4.01309 0.8834,-1.26124 3.42424,-3.61015 5.64629,-5.2198 l 4.0401,-2.92663 2.10692,-4.25272 2.10692,-4.25271 8.11904,-5.5 c 4.46547,-3.025 9.41403,-6.42 10.99679,-7.54445 1.58276,-1.12444 4.90275,-3.01875 7.37775,-4.20958 l 4.5,-2.16513 5.93366,-1.04042 c 3.26351,-0.57223 7.26374,-1.04042 8.8894,-1.04042 l 2.95574,0 4.62115,-2.84342 c 2.54164,-1.56389 6.41641,-3.43341 8.6106,-4.15451 l 3.98945,-1.31109 7.14322,-4.86059 7.14323,-4.86058 1.60677,-3.38604 1.60678,-3.38603 0,-2.90252 0,-2.90253 2.34727,-4.94635 c 1.291,-2.72049 2.87359,-7.19634 3.51688,-9.94634 l 1.16961,-5 0.0376,-14.67 0.0376,-14.66999 -3.68854,-4.83001 c -2.02869,-2.6565 -4.36557,-6.405 -5.19307,-8.33 -0.8275,-1.925 -1.83196,-4.4 -2.23213,-5.5 -0.40018,-1.1 -1.18178,-3.125 -1.73688,-4.5 -0.55511,-1.375 -1.51532,-3.75867 -2.1338,-5.29705 C 276.50603,135.34502 276,133.00908 276,131.69241 l 0,-2.39393 -0.89437,-0.55275 -0.89436,-0.55274 -0.54229,-3.75627 c -0.29825,-2.06595 -1.02129,-6.68127 -1.60674,-10.25627 -0.58545,-3.575 -1.51942,-9.54473 -2.07548,-13.26606 l -1.01101,-6.766055 1.48785,-11.23394 1.48785,-11.23394 1.61778,-5.5 c 0.88979,-3.025 1.99394,-8.425 2.45368,-12 0.45974,-3.575 1.26196,-8.525 1.78272,-11 0.52076,-2.475 1.62169,-6.310817 2.44652,-8.524037 l 1.49968,-4.024038 0.71095,-8.03143 0.71094,-8.031429 -1.58686,-1.316978 L 280,11.935566 280,8.732324 280,5.529083 282.25,3.428899 284.5,1.328714 287.17756,0.664357 289.85513,0 l 1.6459,0.921091 c 0.90524,0.506601 2.17534,1.979523 2.82243,3.273161 L 295.5,6.546322 302,8.240711 c 3.575,0.931914 9.12432,2.428464 12.33181,3.325668 3.2075,0.897203 6.70725,2.099796 7.77722,2.672427 1.06997,0.572632 6.32066,2.621059 11.66819,4.55206 5.34753,1.931001 11.74778,4.207584 14.22278,5.059073 2.475,0.85149 5.03611,1.982389 5.69135,2.51311 0.65524,0.530721 6.28024,3.544905 12.50005,6.698187 6.2197,3.153281 15.0541,8.070084 19.632,10.926229 4.5779,2.856144 8.5357,5.19299 8.7952,5.19299 0.2594,0 3.7805,2.232711 7.8245,4.96158 4.044,2.72887 9.9478,7.232495 13.1196,10.008057 l 5.7669,5.046476 3.2533,4.830844 3.2533,4.830843 1.0971,4.07448 1.0971,4.07448 -0.1628,8.97967 -0.1629,8.979675 2.1344,3.45353 c 1.1739,1.89945 1.9222,3.66571 1.6629,3.92505 -0.2593,0.25933 -0.9663,4.04086 -1.5709,8.40341 l -1.0995,7.9319 -2.0148,4.69389 -2.0148,4.69388 1.736,5.22656 1.736,5.22655 -0.5559,8.57984 -0.5559,8.57983 -1.5931,4.49972 -1.5932,4.49973 -0.6288,7.65411 -0.6287,7.65411 2.2337,3.61434 c 1.2286,1.98789 3.092,5.96218 4.1409,8.83177 l 1.907,5.21744 0,2.54296 0,2.54296 -2.9407,6.97116 -2.9407,6.97115 -2.6151,2.25 -2.615,2.25 -1.8852,0 c -1.0369,0 -2.1229,0.38459 -2.4135,0.85464 l -0.5282,0.85464 2.4692,2.31967 2.4692,2.31968 0,2.26667 0,2.26667 -1,0.61803 -1,0.61803 0,1.97617 0,1.97617 1.75,2.66437 1.75,2.66437 0.6701,8.55045 c 0.3685,4.70274 0.9821,10.01294 1.3635,11.80044 l 0.6934,3.25 1.1954,0 c 0.6574,0 2.0689,-0.66069 3.1365,-1.4682 l 1.9411,-1.46819 1.929,-0.0318 c 1.061,-0.0175 3.536,-0.55098 5.5,-1.18553 1.9641,-0.63456 4.989,-1.75956 6.7221,-2.5 1.7332,-0.74045 3.819,-1.34627 4.6352,-1.34627 0.8162,0 3.6732,-0.64104 6.3489,-1.42454 2.6756,-0.78349 8.6898,-2.36297 13.3648,-3.50995 4.675,-1.14698 12.1,-2.52894 16.5,-3.07104 4.4,-0.54209 9.125,-1.43872 10.5,-1.99251 1.375,-0.55379 7.675,-1.63801 14,-2.40939 l 11.5,-1.4025 6.3796,-2.68714 6.3797,-2.68715 9.1203,0.36286 9.1204,0.36286 3.873,1.90157 3.8731,1.90157 1.4312,3.42555 1.4313,3.42554 0.9694,14.47366 c 0.5332,7.9605 1.42,17.25396 1.9707,20.65213 0.5507,3.39816 1.6663,18.10349 2.4791,32.67849 l 1.4778,26.5 1.5808,11.5 c 0.8695,6.325 1.9951,13.975 2.5014,17 0.5063,3.02499 1.3502,7.975 1.8753,11 0.5251,3.02499 1.4472,10.62543 2.0492,16.88985 l 1.0944,11.38984 -0.5253,1.36884 -0.5253,1.36883 0.8578,2.25627 c 0.4718,1.24094 1.3923,8.09954 2.0455,15.24131 0.6531,7.14178 1.6577,14.78505 2.2324,16.98505 l 1.0448,4 0.417,18.5 c 0.2294,10.175 0.7459,25.025 1.1479,33 l 0.7308,14.5 0.9092,1.43826 0.9092,1.43826 -0.1892,49.56174 -0.1893,49.56174 -0.9691,22.5 c -0.5329,12.375 -0.9767,29.30434 -0.986,37.62075 l -0.017,15.12075 -1.5448,25.87924 c -0.8497,14.23359 -1.8788,27.45425 -2.287,29.37925 l -0.7423,3.5 -2.268,0.32676 -2.268,0.32677 -1.3342,-1.10731 c -0.7338,-0.60901 -1.6332,-2.33105 -1.9987,-3.82676 -0.3655,-1.4957 -1.0657,-4.51946 -1.5561,-6.71946 -0.4903,-2.2 -1.2902,-5.8 -1.7775,-8 -0.4872,-2.2 -1.6368,-5.44015 -2.5546,-7.20034 -0.9179,-1.76019 -1.6688,-4.06901 -1.6688,-5.13071 0,-1.0617 -1.5431,-6.14655 -3.4291,-11.29966 -1.8861,-5.15311 -5.0361,-12.59333 -7,-16.53383 -1.964,-3.9405 -3.5709,-7.70423 -3.5709,-8.36384 0,-0.65962 -0.8563,-2.83558 -1.9029,-4.83547 -1.0466,-1.99987 -2.7932,-5.66115 -3.8813,-8.13615 -1.0881,-2.475 -2.726,-6.70978 -3.6397,-9.41063 -0.9138,-2.70084 -4.3914,-11.70084 -7.7281,-20 -3.3367,-8.29915 -6.7417,-17.33937 -7.5666,-20.08937 -0.825,-2.75 -2.9721,-8.15 -4.7714,-12 -1.7992,-3.85 -4.0448,-8.8 -4.9901,-11 -0.9453,-2.2 -2.574,-5.63627 -3.6193,-7.63615 -1.0453,-1.99989 -1.9006,-4.33601 -1.9006,-5.19138 0,-0.85537 -2.4578,-6.56322 -5.4619,-12.6841 -3.004,-6.12089 -6.3471,-12.56138 -7.4292,-14.31219 l -1.9674,-3.1833 -2.096,-8.49644 c -1.1529,-4.67304 -2.5859,-10.29644 -3.1846,-12.49644 -0.5987,-2.2 -2.5666,-6.925 -4.3732,-10.5 l -3.2848,-6.5 -0.9653,2.5 c -0.531,1.375 -1.7587,5.65 -2.7284,9.5 -0.9697,3.85 -2.1278,9.025 -2.5735,11.5 -0.4458,2.475 -1.2099,6.3 -1.6981,8.5 -0.4881,2.2 -1.482,5.125 -2.2086,6.5 -0.7266,1.375 -1.9304,2.85986 -2.6751,3.29969 l -1.354,0.7997 0,1.44183 0,1.44183 2.0568,1.25848 c 1.1312,0.69216 3.0408,2.83347 4.2435,4.75847 l 2.1867,3.5 -0.1488,8.18985 -0.1487,8.18985 -2.9323,5.81015 -2.9322,5.81015 -0.052,13.19972 -0.052,13.19972 4.6396,0.30028 4.6395,0.30028 1.2247,3.7515 1.2247,3.7515 -0.9148,2.40587 -0.9147,2.40588 -3.0599,0.67208 -3.06,0.67209 0,1.43411 c 0,0.78877 0.3948,2.21551 0.8772,3.17055 0.4825,0.95504 1.3825,3.34338 2,5.30743 0.6176,1.96405 1.1228,4.73924 1.1228,6.16709 l 0,2.5961 2.0264,4.8329 c 1.1146,2.6581 2.7509,6.21932 3.6364,7.91383 l 1.6099,3.08092 -0.693,5.41908 -0.6929,5.41908 -1.3877,1.8649 -1.3876,1.8649 -3.3058,0.67041 -3.3057,0.67041 -0.3222,3.33326 -0.3222,3.33327 1.2859,3.13142 c 0.7073,1.72228 2.3578,4.70642 3.6678,6.63143 1.31,1.92499 3.8561,6.42499 5.6578,10 l 3.276,6.5 3.1271,10.04242 3.1271,10.04242 -0.066,16.45758 -0.066,16.45758 1.6927,4 c 0.9309,2.2 2.536,7.0318 3.5669,10.73734 1.0308,3.70554 1.8742,7.79829 1.8742,9.09501 l 0,2.35767 -1.9755,1.78781 -1.9755,1.7878 -4.5997,-0.51846 -4.5998,-0.51846 -0.5007,1.30485 -0.5008,1.30485 1.7806,2.83079 c 0.9793,1.55695 3.376,4.85579 5.326,7.33079 1.95,2.475 4.4792,5.85 5.6205,7.5 1.1413,1.65 3.5038,5.82596 5.25,9.27991 l 3.1749,6.27991 0,3.77009 0,3.77009 1.0279,1.02784 1.0278,1.02784 0.9897,6.14568 0.9898,6.14567 -2.159,4.59298 -2.159,4.59298 -3.9748,3.18351 -3.9748,3.1835 -2.79,4 c -1.5345,2.2 -6.8203,8.11279 -11.7461,13.13954 l -8.9561,9.13954 -0.8089,2.86046 -0.8089,2.86046 -0.7161,39.5 -0.716,39.50005 -0.8856,6 c -0.4871,3.3 -1.1723,6.4539 -1.5227,7.0087 -0.3503,0.5548 -1.1458,6.4048 -1.7677,13 l -1.1307,11.9913 -0.9338,2.5 c -0.5136,1.375 -1.8172,8.575 -2.8968,16 -1.0797,7.425 -3.0861,21.15 -4.4587,30.5 l -2.4957,17 -0.6142,12 -0.6142,12 1.405,7 c 0.7728,3.85 2.1441,8.7425 3.0473,10.8721 l 1.6423,3.8721 0,3.9805 0,3.9805 -2.708,4.8175 -2.708,4.8175 4.0862,5.8299 4.0862,5.8299 7.8718,5.2926 c 4.3295,2.9109 9.6718,6.1466 11.8718,7.1903 2.2,1.0438 5.125,2.5818 6.5,3.4178 1.375,0.8359 5.875,3.0508 10,4.9219 l 7.5,3.402 12.6061,10.0612 12.6061,10.0611 2.2699,3.8266 2.27,3.8265 0.514,6.5 0.514,6.5 3.36,3.7529 c 1.8479,2.0641 3.3599,3.9989 3.3599,4.2996 0,0.3008 -0.6682,1.839 -1.4849,3.4183 l -1.4849,2.8715 -3.2651,2.3289 -3.2651,2.3288 -11.5,-0.011 -11.5,-0.011 -3.5,-1.4151 c -1.925,-0.7783 -6.3237,-2.6858 -9.775,-4.2389 -3.4513,-1.5531 -6.7103,-2.8238 -7.2423,-2.8238 -0.532,0 -2.1752,-1.3558 -3.6517,-3.0128 l -2.6844,-3.0128 -4.0733,-1.1623 c -2.2403,-0.6392 -4.6152,-1.5715 -5.2775,-2.0717 -0.6624,-0.5001 -2.9124,-1.8287 -5,-2.9523 -2.0877,-1.1237 -5.3534,-2.8857 -7.2572,-3.9156 l -3.4615,-1.8725 -3.5732,0 -3.5732,0 -5.4653,-1.9141 c -3.006,-1.0527 -7.2654,-2.2358 -9.4654,-2.6291 -2.2,-0.3932 -5.125,-1.3151 -6.5,-2.0485 l -2.5,-1.3336 -7.5,-1.0395 c -4.125,-0.5718 -11.55,-1.4925 -16.5,-2.0461 -4.95,-0.5536 -10.0336,-1.4527 -11.297,-1.9978 -1.2634,-0.5452 -3.0734,-0.9913 -4.0222,-0.9913 l -1.7251,0 -3.693,-3.0441 -3.693,-3.0441 -1.0169,-3.6829 -1.0169,-3.6828 0.6057,-5.5231 c 0.3331,-3.0376 1.2642,-7.998 2.0691,-11.023 0.8049,-3.025 1.8777,-7.1926 2.3839,-9.2613 0.5063,-2.0687 1.1231,-5.3433 1.3707,-7.277 0.2476,-1.9337 0.7001,-3.9202 1.0056,-4.4146 0.3055,-0.4943 0.7109,-7.7946 0.9009,-16.2229 l 0.3454,-15.3242 -0.8509,-9 c -0.4679,-4.95 -1.3577,-11.7 -1.9771,-15 l -1.1263,-6 -0.3208,-15 c -0.1764,-8.25 -0.5269,-19.05 -0.7788,-24 -0.252,-4.95 -0.9486,-11.25 -1.5481,-14 -0.5994,-2.75 -1.4863,-6.6344 -1.9706,-8.6321 -0.4844,-1.9976 -1.1559,-4.0772 -1.4922,-4.6214 -0.3364,-0.5442 -1.1111,-4.7598 -1.7217,-9.368 -0.6105,-4.6082 -1.559,-12.2035 -2.1076,-16.8785 l -0.9975,-8.5 -0.1628,-18.50005 -0.1628,-18.5 0.7529,-8.84177 c 0.4141,-4.86298 1.0255,-10.71298 1.3588,-13 0.3332,-2.28703 1.7439,-7.98323 3.1349,-12.65823 1.391,-4.675 4.0471,-11.76027 5.9024,-15.74504 1.8553,-3.98478 5.9626,-11.63478 9.1272,-17 3.1647,-5.36523 6.3567,-10.93835 7.0935,-12.38471 l 1.3396,-2.62975 -0.6053,-5.37025 c -0.3329,-2.95364 -0.884,-8.72889 -1.2247,-12.8339 l -0.6195,-7.46366 1.2229,-7.03634 c 0.6726,-3.86999 1.5936,-8.24618 2.0467,-9.72487 l 0.8237,-2.68851 -1.2938,-1.07382 -1.2939,-1.07381 -1.0214,1.26233 c -0.5617,0.69428 -2.3407,4.41233 -3.9534,8.26233 -1.6126,3.85 -3.9503,10.375 -5.195,14.5 -1.2446,4.125 -3.804,12.45 -5.6874,18.5 -1.8835,6.05 -3.4208,11.50249 -3.4163,12.11665 0,0.61415 -0.9798,3.53915 -2.1872,6.5 -1.2074,2.96084 -3.3092,7.18335 -4.6707,9.38335 l -2.4754,4 -4.8687,14 c -2.6777,7.7 -6.8753,20.075 -9.32793,27.5 -2.4526,7.425 -4.45988,13.82885 -4.46061,14.2308 -7.4e-4,0.4019 -1.71714,4.4519 -3.81423,9 -2.09709,4.548 -4.39545,10.2942 -5.10747,12.7692 -0.71201,2.47505 -1.8616,6.07505 -2.55463,8.00005 -0.69304,1.925 -2.65473,7.1 -4.35932,11.5 -1.70459,4.4 -4.94565,13.175 -7.20235,19.5 -2.25669,6.325 -5.19664,14.6163 -6.53321,18.4252 -1.33657,3.8088 -2.43013,7.5385 -2.43013,8.2883 l 0,1.3632 6.07834,9.0398 6.07833,9.0398 3.3947,7.2489 3.3947,7.2489 2.52444,9.423 2.52445,9.4229 -0.1158,4.5 c -0.0637,2.475 -0.40294,5.85 -0.75391,7.5 l -0.63811,3 -2.34143,0.3324 -2.34144,0.3324 -2.15213,-1.9257 c -1.1835,-1.0593 -4.85196,-3.809 -8.15196,-6.1106 l -6,-4.1849 -7,-9.1419 -7,-9.142 -1,0 -1,0 -1.77951,4.9157 c -0.97873,2.7036 -4.01458,9.4361 -6.74634,14.9609 l -4.96683,10.0453 -8.10622,8.2047 -8.10622,8.2048 -1.34074,0 -1.34073,0 -1.55671,-2.2225 -1.5567,-2.2225 0.018,-9.0275 0.018,-9.0275 2.54997,-10.5 c 1.40248,-5.775 3.22698,-13.65 4.05444,-17.5 0.82747,-3.85 2.43859,-10.5022 3.58027,-14.7826 1.14169,-4.2804 2.4591,-8.0195 2.92757,-8.309 l 0.85235,-0.5177 0,-2.5076 0,-2.5075 -9.31068,-14.1835 c -5.12087,-7.8009 -11.08337,-16.844 -13.25,-20.0958 -2.16662,-3.2518 -5.73932,-8.6906 -7.93932,-12.0863 -2.2,-3.3957 -5.48519,-8.1601 -7.30041,-10.5876 -1.81523,-2.4275 -5.53945,-7.6762 -8.27605,-11.6637 l -4.97563,-7.25004 -1.34673,0 -1.34672,0 -0.62256,5.25 c -0.3424,2.88754 -0.84674,8.62504 -1.12074,12.75004 -0.27401,4.125 -0.98922,11.775 -1.58936,17 l -1.09118,9.5 -1.9571,7.5 c -1.0764,4.125 -2.56633,8.625 -3.31095,10 l -1.35385,2.5 -1.68011,10 -1.68012,10 -0.92424,0.95 -0.92425,0.95 0,2.5722 0,2.5721 -3.1518,3.8237 -3.1518,3.8237 -0.67317,3.6813 -0.67317,3.6813 0.77362,6.9728 c 0.42549,3.8351 0.79673,11.6012 0.82497,17.2581 l 0.0514,10.2852 -1.38776,2.2148 c -0.76327,1.2181 -1.66882,3.8232 -2.01233,5.789 -0.34352,1.9658 -0.67729,8.9571 -0.7417,15.5361 l -0.11713,11.9619 2.12946,4.174 2.12946,4.1741 0,8.597 0,8.5971 -1.14093,4.6928 -1.14094,4.6928 -1.35957,1.5793 c -0.74776,0.8686 -3.49684,2.511 -6.10907,3.6497 -2.61222,1.1387 -8.12449,3.1053 -12.24949,4.3701 l -7.5,2.2998 -4,3.0009 c -2.2,1.6504 -5.35,4.5359 -7,6.4121 l -3,3.4114 -5.6276,10.9222 -5.62761,10.9222 -0.63258,3.7161 -0.63259,3.7162 -7.4536,7.75 -7.45359,7.75 -5.28622,-0.1494 z m 166.61166,-246.1269 1.89787,-0.2237 0.81142,-1.5 c 0.44628,-0.825 3.97974,-10.3217 7.85213,-21.1039 C 318.83168,995.29445 322,986.17825 322,985.81835 c 0,-0.3599 2.18183,-5.9381 4.84852,-12.3961 2.66668,-6.45799 6.67236,-16.4668 8.90151,-22.2418 2.22915,-5.775 4.29549,-11.4 4.59187,-12.5 0.29637,-1.1 1.65008,-4.925 3.00823,-8.5 1.35815,-3.575 3.9003,-10.325 5.64922,-15 1.74892,-4.675 3.87513,-10.075 4.7249,-12 0.84976,-1.925 1.88921,-4.85 2.30988,-6.5 0.42066,-1.65 2.13592,-6.71486 3.81168,-11.25525 1.67575,-4.54039 4.70069,-11.91813 6.72199,-16.395 2.0214,-4.47686 4.7456,-11.51207 6.0537,-15.6338 1.3082,-4.12173 2.3785,-8.10648 2.3785,-8.855 l 0,-1.36095 -4.4857,0 c -2.4671,0 -6.62956,-0.50097 -9.24995,-1.11326 C 358.64396,841.45489 353.8,839.65472 350.5,838.0668 l -6,-2.88712 -3.29966,3.8e-4 -3.29966,3.9e-4 -2.73401,1.41381 -2.73401,1.41382 -8.46633,0.27208 -8.46633,0.27208 -7,-1.16609 c -3.85,-0.64134 -9.31002,-1.175 -12.13337,-1.18589 l -5.13337,-0.0198 -0.60297,2.25 c -0.33164,1.2375 -0.61493,3.375 -0.62954,4.75 -0.0146,1.375 -0.91643,5.33872 -2.00406,8.80826 l -1.9775,6.30827 -4.96024,9.36843 c -2.72814,5.15263 -6.58286,11.53892 -8.56606,14.19173 -1.98319,2.65282 -6.24369,8.19831 -9.46778,12.32331 -3.22409,4.125 -7.51208,9.075 -9.52887,11 -2.01678,1.925 -4.22004,4.625 -4.89613,6 l -1.22924,2.5 0.0726,11 0.0726,11 11.3892,19 c 6.26405,10.45 14.19044,23.275 17.61419,28.5 3.42375,5.225 8.645,13.3766 11.60278,18.11475 2.95779,4.7381 7.40279,12.9388 9.87779,18.2238 l 4.5,9.609 1.89787,-0.2238 z M 188.02166,839.47283 c 0.38853,-0.43581 1.16095,-2.81738 1.71649,-5.29238 l 1.01008,-4.5 -0.26652,-7.09902 -0.26653,-7.09903 -3.30656,-4.99689 -3.30657,-4.9969 -2.80136,-1.60776 -2.80136,-1.60776 -1.1754,-2.57971 -1.17539,-2.57972 3.08414,-6.2166 3.08414,-6.2166 2.0132,-10 c 1.10726,-5.5 2.77035,-15.625 3.69575,-22.5 l 1.68256,-12.5 2.00014,-7.5 c 1.10008,-4.125 2.36709,-9.525 2.81557,-12 0.44849,-2.475 1.31332,-6.75 1.92185,-9.5 0.60852,-2.75 1.82398,-7.25 2.70101,-10 0.87703,-2.75 2.00525,-5.80539 2.50715,-6.78974 0.5019,-0.98436 2.19336,-5.48436 3.75881,-10 1.56544,-4.51566 3.44405,-10.23527 4.17468,-12.71027 0.73063,-2.475 2.41652,-7.2 3.74641,-10.5 l 2.418,-6 0.31009,-7.7305 0.31009,-7.7305 -0.93607,-0.57851 -0.93606,-0.57852 0,-1.85696 0,-1.85695 4.05304,-3.21006 4.05303,-3.21007 -0.30303,-2.12396 -0.30304,-2.12397 -9.65647,-0.28508 -9.65648,-0.28509 -0.52513,-1.36846 -0.52513,-1.36847 0.53079,-2.02972 0.53078,-2.02971 9.46596,-6.24182 9.46597,-6.24182 1.81256,-2.3043 1.81257,-2.30431 0.13439,-19.09198 0.13439,-19.09198 1.91298,-5.66644 1.91298,-5.66644 -1.04753,-1.26219 -1.04752,-1.26219 -2.0631,0 -2.06311,0 -2.31445,-2.17431 -2.31445,-2.17432 0,-2.37534 0,-2.37535 1.41072,-2.70034 c 0.7759,-1.48519 2.6884,-3.82534 4.25,-5.20034 1.56161,-1.375 3.84567,-3.0625 5.07571,-3.75 l 2.23643,-1.25 7.48315,0 7.48316,0 3.78041,2.09214 c 2.07923,1.15067 5.24292,3.48895 7.03042,5.19616 l 3.25,3.10403 -0.0318,4.05384 -0.0318,4.05383 -1.48337,1.96189 -1.48338,1.96189 -4.03576,-0.16094 -4.03575,-0.16093 -0.56094,1.46178 -0.56094,1.46178 1.01419,1.23726 c 0.5578,0.6805 1.96851,4.15566 3.1349,7.72259 l 2.12073,6.48532 -0.64974,6.01468 c -0.35735,3.30807 -1.1971,7.36468 -1.86611,9.01468 -0.669,1.65 -1.5258,4.65241 -1.90398,6.67202 l -0.68761,3.67202 1.09722,0.67811 c 0.60347,0.37297 1.30705,0.46828 1.56352,0.21181 0.25647,-0.25646 2.30358,-5.58903 4.54913,-11.85013 2.24555,-6.26111 4.60897,-13.27453 5.25204,-15.58538 0.64307,-2.31085 1.49103,-4.52335 1.88434,-4.91667 C 263.6782,559.16892 264,557.59867 264,556.0728 l 0,-2.77432 1,-0.61803 1,-0.61803 0,-2.79718 0,-2.79719 3.54312,-4.64027 3.54311,-4.64028 1.45689,-4.12924 1.45688,-4.12925 0,-5.6785 0,-5.67849 -3.13715,-4.94578 c -1.72542,-2.72018 -4.81624,-8.38129 -6.86846,-12.58025 -2.05223,-4.19896 -4.75616,-10.72396 -6.00873,-14.5 -1.25257,-3.77604 -3.08259,-8.89053 -4.06671,-11.36553 -0.98413,-2.475 -4.06849,-10.41555 -6.85413,-17.64567 C 246.27917,449.30467 244,443.12434 244,442.80071 c 0,-0.32362 -1.24843,-3.18307 -2.77429,-6.35433 -1.52586,-3.17126 -3.4175,-7.79093 -4.20366,-10.26593 -0.78615,-2.475 -2.28024,-6.075 -3.32019,-8 -1.03996,-1.925 -3.08581,-4.79572 -4.54634,-6.37937 -1.46054,-1.58366 -4.9964,-4.39616 -7.85748,-6.25 L 216.09609,402.18046 213,397.68045 c -1.70284,-2.475 -3.36949,-4.5 -3.70365,-4.5 -0.33416,0 -2.00004,1.06402 -3.70196,2.3645 -1.70191,1.30047 -6.52976,5.91297 -10.72855,10.25 -4.19879,4.33702 -10.42178,11.1428 -13.82888,15.12396 l -6.19471,7.23845 -5.96935,4.53973 -5.96935,4.53973 -9.06862,4.58076 -9.06861,4.58077 0.64598,5.70969 0.64598,5.7097 -2.02914,1.83634 -2.02914,1.83635 0,3.22288 0,3.22289 -1.41384,3.38379 -1.41383,3.38378 -5.41797,5.48834 c -2.97987,3.01859 -6.74491,7.51334 -8.36673,9.98834 -1.62183,2.475 -3.45211,5.625 -4.06728,7 -0.61518,1.375 -1.6366,3.88545 -2.26983,5.57878 -0.63322,1.69333 -1.77849,5.51833 -2.54503,8.5 -0.76654,2.98167 -2.36023,9.02122 -3.54154,13.42122 -1.1813,4.4 -2.55725,10.025 -3.05766,12.5 -0.5004,2.475 -1.6203,9.45 -2.48865,15.5 l -1.57882,11 -0.42428,18.5 c -0.23336,10.175 -0.57941,21.875 -0.76901,26 l -0.34472,7.5 2.7126,4 c 1.49193,2.2 3.09392,5.125 3.55999,6.5 l 0.8474,2.5 -0.307,7.62563 -0.307,7.62564 2.31911,1.62436 c 1.2755,0.89341 3.03412,1.62437 3.90803,1.62437 l 1.58894,0 2.18856,2.03896 c 1.20371,1.12142 2.18856,2.45389 2.18856,2.96104 0,0.50715 -0.92905,1.78764 -2.06456,2.84552 l -2.06457,1.92344 -5.70213,0.41245 -5.70213,0.41246 -9.19829,3.95307 -9.19829,3.95307 -0.56329,1.40545 -0.56328,1.40545 1.90863,2.09455 1.90863,2.09455 1.30526,4 1.30525,4 1.78785,1.63881 1.78785,1.6388 3.90611,9.00599 c 2.14836,4.9533 5.23902,10.96583 6.86812,13.3612 1.62911,2.39536 5.58248,9.3052 8.78529,15.3552 3.2028,6.04999 6.63409,12.17341 7.62509,13.60758 0.991,1.43417 4.29182,7.00436 7.33514,12.3782 3.04333,5.37383 5.53332,9.9211 5.53332,10.10503 0,0.18393 2.76795,5.41374 6.151,11.62181 3.38306,6.20806 7.15897,12.63738 8.39092,14.28738 1.23196,1.65 3.88505,6.15 5.89577,10 2.01072,3.85 4.6473,8.50185 5.85908,10.33744 1.21178,1.8356 4.49759,6.81541 7.30181,11.06625 2.80422,4.25086 7.03134,11.074 9.39361,15.16256 2.36226,4.08857 4.75133,8.01531 5.30903,8.72613 l 1.01402,1.29237 0.70642,-0.79237 z"
     id="path2989"
     inkscape:connector-curvature="0" />
</svg>
