<?xml version="1.0" encoding="UTF-8" standalone="no"?>
<!-- Created with Inkscape (http://www.inkscape.org/) -->

<svg
   xmlns:dc="http://purl.org/dc/elements/1.1/"
   xmlns:cc="http://creativecommons.org/ns#"
   xmlns:rdf="http://www.w3.org/1999/02/22-rdf-syntax-ns#"
   xmlns:svg="http://www.w3.org/2000/svg"
   xmlns="http://www.w3.org/2000/svg"
   xmlns:sodipodi="http://sodipodi.sourceforge.net/DTD/sodipodi-0.dtd"
   xmlns:inkscape="http://www.inkscape.org/namespaces/inkscape"
   id="svg2"
   version="1.1"
   inkscape:version="0.48.2 r9819"
   width="563"
   height="769.09644"
   sodipodi:docname="gustavusadolphus00dodg_0036d.png">
  <metadata
     id="metadata8">
    <rdf:RDF>
      <cc:Work
         rdf:about="">
        <dc:format>image/svg+xml</dc:format>
        <dc:type
           rdf:resource="http://purl.org/dc/dcmitype/StillImage" />
        <dc:title></dc:title>
      </cc:Work>
    </rdf:RDF>
  </metadata>
  <defs
     id="defs6" />
  <sodipodi:namedview
     pagecolor="#ffffff"
     bordercolor="#666666"
     borderopacity="1"
     objecttolerance="10"
     gridtolerance="10"
     guidetolerance="10"
     inkscape:pageopacity="0"
     inkscape:pageshadow="2"
     inkscape:window-width="1920"
     inkscape:window-height="1176"
     id="namedview4"
     showgrid="false"
     fit-margin-top="0"
     fit-margin-left="0"
     fit-margin-right="0"
     fit-margin-bottom="0"
     inkscape:zoom="1"
     inkscape:cx="263.5"
     inkscape:cy="383.11136"
     inkscape:window-x="0"
     inkscape:window-y="24"
     inkscape:window-maximized="1"
     inkscape:current-layer="svg2" />
  <path
     style="fill:#000000"
     d="m 417.75,767.90498 c -2.53586,-1.477 -2.1508,-4.11594 1.01372,-6.94722 C 421.7394,758.29544 434,743.38227 434,742.42513 c 0,-0.69656 5.95328,-9.47849 7.49045,-11.04948 0.59705,-0.61018 3.21724,-2.05237 5.82264,-3.20487 4.0024,-1.77045 5.11944,-2.9167 7.20224,-7.39057 1.35582,-2.91232 2.46953,-6.02194 2.4749,-6.91027 0.005,-0.88833 0.91676,-2.76819 2.0253,-4.17748 1.10855,-1.40929 3.30888,-6.75747 4.88962,-11.88486 1.58075,-5.12739 4.10887,-11.92571 5.61805,-15.10739 3.17176,-6.68677 3.02386,-12.22084 -0.57859,-21.6491 -2.13902,-5.5982 -9.49638,-20.79125 -10.9278,-22.56603 -0.44359,-0.55 -2.90673,-4.9293 -5.47365,-9.73178 -5.5254,-10.33754 -10.74302,-19.30379 -13.24217,-22.7561 -0.99054,-1.36833 -3.17885,-5.19333 -4.86291,-8.5 -3.9748,-7.80456 -6.9983,-13.01257 -10.55861,-18.1873 C 422.29576,577.00806 421,574.66451 421,574.10203 c 0,-0.56249 -1.79138,-2.4623 -3.98085,-4.2218 -2.18946,-1.7595 -4.22336,-3.9632 -4.51977,-4.8971 -0.29641,-0.9339 -2.66753,-3.9299 -5.26915,-6.65778 -2.60163,-2.72787 -5.8198,-6.82419 -7.15149,-9.10291 -1.40004,-2.39567 -3.29802,-4.26846 -4.5,-4.44025 -1.14331,-0.16341 -2.52295,-1.30961 -3.06587,-2.54711 -0.54292,-1.2375 -1.29828,-2.25 -1.67857,-2.25 -1.51678,0 -3.8343,-3.27379 -3.8343,-5.41644 0,-1.25047 -0.9,-3.08807 -2,-4.08356 -1.1,-0.99549 -2,-2.43316 -2,-3.19483 0,-0.76166 -0.84792,-3.05442 -1.88426,-5.09501 -1.03634,-2.04059 -2.42384,-6.41016 -3.08332,-9.71016 -0.65949,-3.3 -2.73657,-8.61975 -4.61574,-11.82167 -1.87918,-3.20192 -3.41668,-6.23942 -3.41668,-6.75 0,-0.51058 -0.45,-0.92833 -1,-0.92833 -0.55,0 -1.01431,-0.7875 -1.0318,-1.75 -0.0175,-0.9625 -0.68011,-2.60657 -1.47249,-3.6535 -1.7776,-2.34866 -2.09181,-1.56587 -2.97176,7.4035 -0.79162,8.0691 -0.83473,8.29385 -2.86368,14.9315 -0.91315,2.98733 -1.66027,8.65768 -1.66027,12.60078 0,3.9431 -0.49124,8.57846 -1.09165,10.30079 -1.26423,3.62658 0.46372,8.83286 3.22218,9.70836 3.67788,1.16731 5.94715,4.3416 6.86463,9.60233 0.51377,2.94593 1.46971,8.28124 2.1243,11.85624 0.6546,3.575 1.20857,8.075 1.23106,10 0.0822,7.03545 -1.51044,23.48777 -2.37443,24.52881 -0.4886,0.58873 -1.19638,3.07309 -1.57284,5.5208 -0.37646,2.44772 -1.45734,6.02539 -2.40196,7.95039 -0.94462,1.925 -2.02778,4.85 -2.40702,6.5 -0.71655,3.11756 -3.51132,9.3955 -9.1262,20.50036 -1.8077,3.5752 -3.80231,8.9752 -4.43245,12 -1.99936,9.59733 -4.03778,22.20727 -5.09198,31.49964 -0.56156,4.95 -1.41664,10.19858 -1.90016,11.66351 -0.48353,1.46492 -0.72745,6.41492 -0.54206,11 0.87209,21.56842 0.87588,21.4869 -1.18715,25.47423 -1.33141,2.57328 -2.80195,3.97767 -4.4063,4.20808 -1.32438,0.1902 -2.87306,0.72696 -3.44151,1.1928 -0.57009,0.46718 -1.69111,0.43109 -2.5,-0.0805 -0.80655,-0.51012 -3.88834,-0.93438 -6.84843,-0.9428 -3.48941,-0.01 -6.47841,-0.68016 -8.5,-1.90598 -6.4744,-3.92587 -30.63531,-7.64269 -38.8886,-5.98248 -15.48733,3.1154 -21.63974,3.83594 -32.72943,3.83313 -16.42398,-0.004 -33.91902,-2.91489 -44.21851,-7.35681 -4.60851,-1.98753 -4.12515,-4.30978 1.06506,-5.11695 5.12857,-0.79758 16.98482,-3.7491 32.65345,-8.12881 4.95,-1.38363 11.98913,-2.62163 15.6425,-2.75111 3.86883,-0.13711 7.62691,-0.87064 9,-1.75668 1.29663,-0.8367 5.52709,-2.72399 9.40103,-4.19397 3.87395,-1.46999 8.27705,-3.68137 9.78467,-4.91418 1.50761,-1.23281 7.11302,-4.50378 12.45646,-7.26883 7.94213,-4.10977 10.00984,-5.66117 11.32887,-8.5 4.04089,-8.69682 5.85147,-35.11327 6.26952,-91.47264 l 0.26703,-36 -2.52569,-5.5 c -1.90949,-4.15814 -2.53773,-7.20783 -2.57504,-12.5 -0.0271,-3.85 -0.32463,-7.45 -0.66109,-8 -1.82506,-2.98338 -1.85835,-6.73695 -0.0825,-9.30092 1.02819,-1.4845 2.44136,-4.94908 3.14038,-7.69908 0.69902,-2.75 1.93558,-6.4991 2.74791,-8.33132 2.35781,-5.31808 3.38016,-20.36688 2.11747,-31.16868 -1.76219,-15.07491 -1.57639,-37.74772 0.37242,-45.44653 0.79519,-3.14143 0.70401,-4.16223 -0.44696,-5.00384 -3.17599,-2.32234 -2.78231,-8.38408 0.7897,-12.15941 0.57751,-0.61037 1.03276,-3.53537 1.01167,-6.5 -0.0373,-5.23716 -0.12354,-5.39983 -3.03835,-5.72871 -1.65,-0.18616 -3.62033,-0.85175 -4.3785,-1.47909 -0.79468,-0.65754 -3.90651,-1.01532 -7.34753,-0.84479 -4.57253,0.22662 -6.41996,-0.11227 -7.89645,-1.44847 -1.37159,-1.24127 -3.33113,-1.68026 -6.79487,-1.52221 -4.22923,0.19298 -5.145,-0.13076 -6.98431,-2.46907 -1.65262,-2.10096 -2.07761,-3.92005 -1.93782,-8.29452 0.0985,-3.08185 0.58644,-6.42443 1.08437,-7.42796 0.49793,-1.00352 0.88596,-7.97852 0.86229,-15.5 -0.0414,-13.14562 -0.13513,-13.75288 -2.42024,-15.6754 -3.20049,-2.69266 -3.74927,-4.64116 -2.58416,-9.1754 2.55075,-9.92671 5.6227,-13.3246 12.04644,-13.3246 2.09786,0 2.21069,-0.32425 0.96165,-2.76357 -0.48903,-0.95504 -1.57352,-3.31143 -2.40999,-5.23643 -0.83646,-1.925 -2.43329,-5.525 -3.5485,-8 -2.63053,-5.83799 -4.77786,-10.88473 -6.00813,-14.12061 -0.96799,-2.546 -1.13544,-2.58595 -9.73267,-2.32206 -6.47855,0.19886 -9.3455,-0.12315 -11.05211,-1.24137 -1.26741,-0.83043 -3.9241,-1.66042 -5.90376,-1.84441 -2.27629,-0.21156 -4.47439,-1.27868 -5.9798,-2.90304 -2.96179,-3.19583 -5.83801,-3.20694 -10.97591,-0.0424 -2.2,1.35501 -5.13741,2.46597 -6.52757,2.46879 -5.23087,0.0106 -17.83064,-8.10322 -17.93916,-11.55221 -0.0183,-0.58154 -1.60688,-4.18154 -3.53019,-8 -2.42908,-4.82263 -3.50236,-8.31681 -3.51474,-11.44267 -0.01,-2.475 -0.67415,-5.625 -1.47633,-7 -0.80218,-1.375 -2.10709,-3.85 -2.8998,-5.5 -1.04823,-2.18185 -2.76668,-3.46662 -6.30122,-4.71102 -2.67295,-0.94106 -6.72044,-3.30356 -8.99442,-5.25 -2.27397,-1.94647 -4.36821,-3.53901 -4.65386,-3.53901 -0.6885,0 -13.02115,7.2659 -13.66271,8.04951 -0.275,0.33589 -1.9625,1.24702 -3.75,2.02471 -1.7875,0.7777 -3.25,1.75415 -3.25,2.16989 0,0.41574 -0.45894,0.75589 -1.01987,0.75589 -0.56093,0 -2.92343,1.22597 -5.25,2.72437 -2.32657,1.4984 -5.13013,3.22786 -6.23013,3.84324 -6.84515,3.82943 -10.29644,5.87173 -12.5,7.39688 -2.33943,1.61918 -6.5818,4.03382 -20,11.38342 -3.025,1.6569 -5.725,3.30737 -6,3.66772 -0.275,0.36035 -3.18202,2.11591 -6.46005,3.90125 -3.27802,1.78534 -7.17249,4.1094 -8.65437,5.16459 -1.48188,1.05519 -3.18735,1.91853 -3.78995,1.91853 -0.6026,0 -1.09563,0.45 -1.09563,1 0,0.55 -0.46445,1 -1.03212,1 -1.42156,0 -6.85194,2.58703 -10.46788,4.9869 -1.65,1.09509 -3.675,2.28747 -4.5,2.64973 -5.82568,2.55805 -8.02624,3.70989 -12,6.28113 -2.475,1.60146 -6.975,4.18761 -10,5.74699 -3.025,1.55939 -5.65,3.17275 -5.83333,3.58525 -0.18334,0.4125 -1.10584,0.75 -2.05,0.75 -0.94417,0 -2.14417,0.39759 -2.66667,0.88354 -0.5225,0.48594 -3.875,1.87356 -7.45,3.08359 -3.575,1.21004 -8.525,3.11912 -11,4.2424 -2.475,1.12329 -6.1875,2.26992 -8.25,2.54808 C 0.70306,316.1536 0,315.9332 0,314.56709 c 0,-3.72218 3.33994,-7.57913 13.35299,-15.41997 5.77529,-4.52241 10.64598,-8.56313 10.82376,-8.97937 0.17779,-0.41625 2.57325,-2.05118 5.32325,-3.63318 2.75,-1.582 5.225,-3.17601 5.5,-3.54226 0.40152,-0.53474 11.19479,-6.90615 22.94762,-13.54627 1.01149,-0.57147 2.44957,-1.53602 3.19573,-2.14344 3.05807,-2.48945 17.78775,-10.30694 19.43234,-10.31333 0.59162,-0.002 2.13256,-1.12919 3.42431,-2.50419 1.29175,-1.375 2.94519,-2.5 3.67431,-2.5 0.72913,0 1.32569,-0.39752 1.32569,-0.88337 0,-0.48585 0.7875,-1.13311 1.75,-1.43835 1.71341,-0.54338 7.26086,-3.68914 8.25,-4.67828 0.64539,-0.64539 3.34318,-2.13318 10.07191,-5.55451 2.98545,-1.518 7.75435,-4.26423 10.59756,-6.10274 2.8432,-1.83851 5.58596,-3.34275 6.09501,-3.34275 0.50905,0 1.74003,-0.9 2.73552,-2 0.99549,-1.1 2.21492,-2 2.70986,-2 0.49493,0 3.5505,-1.8 6.79014,-4 3.23964,-2.2 6.31736,-4 6.83938,-4 0.52201,0 2.39429,-1.35 4.16062,-3 1.76633,-1.65 3.73221,-3 4.36863,-3 0.63641,0 1.60132,-1.0125 2.14424,-2.25 0.54292,-1.2375 1.88713,-2.37958 2.98713,-2.53795 1.73823,-0.25025 2.00452,-1.06442 2.03456,-6.22041 0.0295,-5.06518 0.43155,-6.34683 2.75,-8.76677 1.49349,-1.55887 2.71544,-3.35635 2.71544,-3.99441 0,-1.40891 3.19478,-3.22811 5.68426,-3.23678 0.99866,-0.003 2.54616,-1.2905 3.4389,-2.86004 0.89274,-1.56955 3.04863,-3.4792 4.79087,-4.24368 2.49873,-1.09642 3.05468,-1.8443 2.63253,-3.54137 -0.39562,-1.59038 0.38512,-2.95943 2.99393,-5.25 3.97832,-3.49301 6.73122,-3.92206 8.65281,-1.34859 0.71868,0.9625 2.5442,2.38854 4.0567,3.16898 1.5125,0.78044 2.75,1.79294 2.75,2.25 0,0.45706 0.71803,0.83102 1.59563,0.83102 0.8776,0 2.96066,0.97199 4.62903,2.15997 2.56719,1.828 3.342,1.96724 5.04137,0.90596 1.10439,-0.6897 3.63383,-2.15964 5.62098,-3.26653 1.98714,-1.10689 4.12454,-2.42739 4.74977,-2.93445 0.62523,-0.50705 3.10023,-1.93592 5.5,-3.17526 7.54645,-3.89729 20.82352,-11.81644 21.41458,-12.7728 0.31167,-0.50429 1.38502,-0.91689 2.38521,-0.91689 1.0002,0 2.41765,-0.72188 3.14989,-1.60418 0.73224,-0.88229 2.3311,-1.98428 3.55303,-2.44885 1.27713,-0.48557 3.09515,-2.81931 4.27618,-5.48924 2.35929,-5.33356 9.65157,-14.45773 11.555,-14.45773 0.70644,0 1.86071,-0.69437 2.56505,-1.54303 1.46031,-1.75958 11.27703,-6.45697 13.49392,-6.45697 0.8087,0 1.47036,-0.45 1.47036,-1 0,-0.55 0.6199,-1 1.37756,-1 0.75765,0 1.93775,-0.675 2.62244,-1.5 0.96633,-1.16436 0.97233,-1.5 0.0268,-1.5 -0.66995,0 -2.53124,-0.93505 -4.13622,-2.0779 -1.60498,-1.14284 -5.65421,-2.46464 -8.9983,-2.93732 -6.42283,-0.90786 -8.30922,-2.35135 -9.2603,-7.08609 -0.28739,-1.43073 -0.2658,-3.58302 0.048,-4.78289 0.35193,-1.345804 -0.10266,-2.925394 -1.18663,-4.123164 -1.54514,-1.70736 -1.59757,-2.3268 -0.43456,-5.13454 1.21812,-2.94081 1.14957,-3.30781 -0.86811,-4.64749 -2.41385,-1.60274 -2.88837,-5.33018 -0.94067,-7.38918 2.57906,-2.72643 7.86074,-14.024658 7.541,-16.131229 -0.30969,-2.040474 -0.44818,-1.985114 -2.02568,0.809799 -0.9313,1.65 -2.37766,4.43173 -3.21414,6.18162 -1.96667,4.1142 -2.95611,4.6526 -7.11607,3.87219 -5.66885,-1.06349 -4.37341,-5.47089 4.27773,-14.55381 2.35734,-2.475 4.28632,-5.026745 4.28662,-5.670545 3e-4,-0.643799 -1.30624,-1.457561 -2.90341,-1.808358 -2.62622,-0.576815 -2.9401,-1.086513 -3.28202,-5.329456 -0.60946,-7.563029 0.72284,-15.378759 3.30514,-19.389095 1.79204,-2.783054 3.98831,-4.36961 8.88083,-6.41538 3.575,-1.494859 9.57612,-4.026728 13.33583,-5.626375 6.75128,-2.872479 11.92474,-4.163202 22.66417,-5.6544675 3.025,-0.420048 8.18202,-1.575218 11.46004,-2.567043 4.83861,-1.464007 7.47284,-1.655046 14,-1.015297 4.42198,0.433413 10.87989,0.692538 14.35091,0.575833 l 6.31095,-0.21219 6.80071,6.8061865 c 3.74038,3.743403 8.07352,8.831187 9.62919,11.306187 2.58596,4.114135 2.86489,5.486769 3.25296,16.007798 0.33418,9.05998 0.081,12.329778 -1.19015,15.372124 -1.92736,4.612827 -2.09574,8.607983 -0.36462,8.651503 2.07688,0.05221 5.11057,5.113155 5.18248,8.645655 0.0371,1.82437 0.39133,3.31836 0.7871,3.31998 0.89597,0.004 7.43415,-3.63348 10.78042,-5.99706 1.375,-0.97121 4.3,-2.78634 6.5,-4.033621 8.4507,-4.791095 16.15736,-9.045723 20.02332,-11.054307 5.38797,-2.799356 8.87695,-8.144423 8.02362,-12.292083 -0.35304,-1.715994 -0.78128,-4.019989 -0.95164,-5.119989 -0.64273,-4.150185 -6.14922,-15.67406 -9.14168,-19.131539 -1.36546,-1.577654 -2.34617,-3.543461 -2.17935,-4.368461 0.43056,-2.129337 6.17583,-1.514994 11.62736,1.243318 5.74219,2.905373 15.60661,12.661235 16.5326,16.350649 0.39961,1.592164 1.19548,3.459862 1.76861,4.150439 1.45611,1.754506 8.9048,1.568927 11.5558,-0.287905 1.21201,-0.848925 4.57464,-2.804165 7.47251,-4.344979 C 487.1787,21.022063 494.0559,17.160488 496,15.504186 c 0.825,-0.702862 3.0328,-2.055084 4.9061,-3.004936 1.8734,-0.949852 3.8984,-2.158794 4.5,-2.6865375 1.9945,-1.749531 12.0379,-7.243904 15.5939,-8.53085 1.925,-0.69667005 4.9625,-1.27344905 6.75,-1.28173004595 5.0818,-0.0235400041 4.2586,3.09282504595 -2,7.57164304595 -2.8875,2.06637 -6.15,4.5876875 -7.25,5.6029295 -7.4472,6.873377 -27.7186,22.07687 -35.8239,26.86788 -3.2032,1.89337 -6.6719,4.229991 -7.7082,5.192491 -1.0364,0.9625 -2.57809,1.75 -3.42609,1.75 -0.84799,0 -1.54181,0.397516 -1.54181,0.883369 0,0.485852 -0.9,1.118724 -2,1.40638 -1.41557,0.370179 -2,1.364016 -2,3.401024 0,2.138454 -0.77228,3.334209 -3.00536,4.653319 l -3.00535,1.775308 2.44997,3.212084 c 3.16583,4.150606 4.65994,10.975396 3.88998,17.768606 -0.76843,6.77977 -3.72278,12.89991 -6.22712,12.89991 -2.54537,0 -3.59068,-1.55815 -5.49,-8.1835 -1.88672,-6.58136 -5.6503,-11.51668 -10.24705,-13.43732 -1.77557,-0.74188 -3.51064,-1.8057 -3.85571,-2.36403 -1.14186,-1.84757 -4.40345,-1.05806 -9.74502,2.35891 -2.90098,1.85573 -13.14722,7.76038 -22.76942,13.12144 -9.62221,5.36106 -18.16992,10.27465 -18.99492,10.91907 -0.825,0.64443 -2.625,1.73994 -4,2.43446 -5.23776,2.645634 -5.67957,3.417544 -6.21108,10.851624 l -0.51482,7.20064 2.77941,0.61046 c 3.16634,0.69545 4.87322,3.47018 2.16511,3.51963 -0.94524,0.0173 0.95483,1.35986 4.22237,2.98355 7.73758,3.84492 12.7904,8.86073 14.39265,14.28722 2.61563,8.85857 1.43564,38.55651 -1.76592,44.44457 C 398.66321,184.31487 392,205.97063 392,207.95229 c 0,0.9347 -0.26438,1.96384 -0.58752,2.28698 -0.32314,0.32314 -1.85039,4.11064 -3.39389,8.41667 -3.59472,10.02843 -10.0364,25.45109 -11.32439,27.1128 -0.54723,0.70602 -1.10316,2.65905 -1.2354,4.34008 -0.19953,2.53643 0.22793,3.21969 2.51255,4.01612 3.26082,1.13673 5.02865,4.54126 5.02865,9.68433 0,2.7111 0.78464,4.58916 2.87226,6.87481 1.57974,1.72959 4.97898,5.82624 7.55387,9.10366 3.86907,4.92472 5.34077,6.06436 8.47949,6.56626 5.77748,0.92385 9.09438,4.80641 9.09438,10.64532 0,4.76119 -2.09017,11.30542 -3.98485,12.4764 -2.40887,1.48876 -0.89576,7.78593 4.15339,17.28534 12.28842,23.11927 12.84545,24.59367 13.44889,35.59784 0.35177,6.41489 0.14515,7.24946 -3.09481,12.5 -4.52796,7.33783 -8.2287,11.26574 -12.42793,13.19084 -2.78305,1.27587 -3.61961,2.40513 -4.57804,6.17983 -0.73762,2.90505 -0.83203,5.22747 -0.25446,6.25953 0.50504,0.90247 0.64097,2.74568 0.30206,4.09602 -0.41927,1.6705 0.19109,3.83271 1.90977,6.76542 1.38929,2.37064 2.52598,5.27164 2.52598,6.44666 0,1.17502 1.35355,7.43549 3.0079,13.91214 2.82395,11.05561 5.25379,16.20783 8.92977,18.93468 0.85928,0.63742 5.86729,5.36242 11.12891,10.5 19.41568,18.95799 58.45952,56.58109 66.77062,64.34106 4.7126,4.4 14.2221,13.625 21.1324,20.5 6.9102,6.875 15.1694,14.25982 18.3538,16.41072 3.1843,2.15089 8.3517,6.86716 11.4831,10.48059 3.1314,3.61343 6.3916,7.35496 7.2448,8.31452 3.1057,3.49297 5.9487,10.07197 5.9487,13.76623 0,8.0564 -5.7912,7.89082 -18.7503,-0.53612 -9.2951,-6.04438 -11.7797,-8.08948 -25.3336,-20.85275 -4.7212,-4.44576 -13.0323,-12.13319 -18.4692,-17.08319 -9.6253,-8.76346 -15.3885,-14.14621 -33.9469,-31.70598 -4.95,-4.68364 -11.25,-10.53099 -14,-12.99411 -2.75,-2.46312 -8.10273,-7.47574 -11.89495,-11.13915 -3.79222,-3.66342 -7.27972,-6.66076 -7.75,-6.66076 -1.69652,0 -0.7837,1.96499 3.10742,6.68918 7.9952,9.70696 9.03753,11.10575 9.03753,12.1283 0,0.57364 2.06729,2.76188 4.59398,4.86275 8.30165,6.90259 25.00052,23.73041 28.12502,28.3423 5.7538,8.49263 8.5564,16.70389 10.7437,31.47747 0.8958,6.05 2.0581,12.38195 2.583,14.071 0.5248,1.68905 0.9543,4.02499 0.9543,5.19098 0,1.16599 0.45,2.3981 1,2.73802 0.55,0.33992 1,1.77677 1,3.193 0,2.30233 1.3241,8.22148 2.7531,12.307 0.2885,0.825 0.6149,2.175 0.7253,3 0.4527,3.38439 1.8398,8.56059 2.8049,10.46718 2.0935,4.13591 2.4778,5.1738 3.1716,8.56564 2.1636,10.57705 6.2136,20.4125 12.1538,29.51551 5.9126,9.06071 5.7862,8.64296 7.4806,24.72376 1.3935,13.22538 1.8445,11.96969 -6.5568,18.25817 -7.8747,5.89434 -15.7463,15.38039 -19.8903,23.96974 -2.3606,4.89291 -10.6299,14.5 -12.4808,14.5 -0.5139,0 -5.1567,1.98639 -10.3173,4.41419 -5.16067,2.42781 -12.29926,4.9247 -15.86356,5.54864 -9.38687,1.64323 -12.74687,2.89311 -16.40004,6.10063 -4.9005,4.3027 -19.11495,6.603 -23.8305,3.85644 z M 249,220.98809 c 2.35279,-3.33844 6.19605,-6.96794 9.88264,-9.33297 2.61796,-1.67948 3.77629,-3.4569 5.12402,-7.86263 1.66,-5.42655 1.6587,-5.82854 -0.0277,-8.60165 -3.19553,-5.25461 -4.46175,-13.47049 -3.04899,-19.78335 1.37162,-6.12903 0.99204,-7.48725 -1.41872,-5.0765 -0.8712,0.8712 -2.92653,2.37705 -4.56739,3.34633 -1.64086,0.96929 -2.78049,2.29106 -2.53251,2.93728 0.67215,1.75159 -0.45234,2.4189 -2.35775,1.39915 -1.24445,-0.666 -3.36158,0.16816 -8.11852,3.19875 -3.53928,2.25483 -10.02167,6.17985 -14.4053,8.72226 -5.95566,3.45415 -8.47205,5.57546 -9.95553,8.39251 -1.65773,3.14796 -1.77854,4.10101 -0.73222,5.77643 0.68918,1.10356 0.98174,2.86133 0.65013,3.90616 -0.96144,3.0292 1.22682,5.82246 5.45283,6.9604 2.15102,0.57921 6.17256,2.57506 8.93674,4.43521 6.64879,4.47431 6.97067,4.58837 11.61829,4.11683 2.62301,-0.26612 4.51637,-1.13852 5.5,-2.53421 z"
     id="path2987"
     inkscape:connector-curvature="0" />
</svg>
