<?xml version="1.0" encoding="UTF-8" standalone="no"?>
<!-- Created with Inkscape (http://www.inkscape.org/) -->

<svg
   xmlns:dc="http://purl.org/dc/elements/1.1/"
   xmlns:cc="http://creativecommons.org/ns#"
   xmlns:rdf="http://www.w3.org/1999/02/22-rdf-syntax-ns#"
   xmlns:svg="http://www.w3.org/2000/svg"
   xmlns="http://www.w3.org/2000/svg"
   xmlns:sodipodi="http://sodipodi.sourceforge.net/DTD/sodipodi-0.dtd"
   xmlns:inkscape="http://www.inkscape.org/namespaces/inkscape"
   id="svg2"
   version="1.1"
   inkscape:version="0.48.2 r9819"
   width="318.11368"
   height="694.06433"
   sodipodi:docname="lesplusbellesfab00lafo_0009b.png">
  <metadata
     id="metadata8">
    <rdf:RDF>
      <cc:Work
         rdf:about="">
        <dc:format>image/svg+xml</dc:format>
        <dc:type
           rdf:resource="http://purl.org/dc/dcmitype/StillImage" />
        <dc:title></dc:title>
      </cc:Work>
    </rdf:RDF>
  </metadata>
  <defs
     id="defs6" />
  <sodipodi:namedview
     pagecolor="#ffffff"
     bordercolor="#666666"
     borderopacity="1"
     objecttolerance="10"
     gridtolerance="10"
     guidetolerance="10"
     inkscape:pageopacity="0"
     inkscape:pageshadow="2"
     inkscape:window-width="1920"
     inkscape:window-height="1176"
     id="namedview4"
     showgrid="false"
     fit-margin-top="0"
     fit-margin-left="0"
     fit-margin-right="0"
     fit-margin-bottom="0"
     inkscape:zoom="1"
     inkscape:cx="198.22542"
     inkscape:cy="338.9187"
     inkscape:window-x="0"
     inkscape:window-y="24"
     inkscape:window-maximized="1"
     inkscape:current-layer="svg2" />
  <path
     style="fill:#000000"
     d="m 70.72542,693.50921 -6,0.55514 -2.5,-0.85967 c -1.375,-0.47282 -4.62223,-0.90453 -7.21607,-0.95935 l -4.71608,-0.0997 -3.78392,-1.63861 c -2.08116,-0.90123 -4.77256,-2.0895 -5.98089,-2.64059 l -2.19696,-1.00199 -0.57958,-1.51035 -0.57958,-1.51035 2.05408,-1.91367 2.05409,-1.91367 5.03262,-0.79555 5.03262,-0.79555 1.13984,-1.13984 1.13983,-1.13983 2.7171,0 2.71709,0 4.53495,-1.94391 4.53495,-1.9439 2.5605,-4.0561 2.5605,-4.05609 0.98745,0 c 0.54311,0 0.98746,0.45 0.98746,1 l 0,1 1.39745,0 1.39745,0 -0.14745,-3.24702 -0.14745,-3.24701 4.32726,-1.95867 4.32726,-1.95867 -0.64768,-2.54431 c -0.35623,-1.39938 -1.10284,-6.29317 -1.65914,-10.87511 l -1.01145,-8.33079 1.73686,-1.91921 1.73687,-1.91921 3.76087,0 3.76088,0 4.83199,-4.5 c 2.65759,-2.475 5.17045,-4.5 5.58413,-4.5 l 0.75215,0 0,1.83333 c 0,1.00834 0.2625,2.09584 0.58333,2.41667 l 0.58334,0.58333 1.74534,-1.74534 c 0.95994,-0.95994 3.34522,-5.08494 5.30063,-9.16667 1.95541,-4.08173 6.5325,-14.50419 10.17132,-23.16104 3.63882,-8.65684 6.61604,-16.33418 6.61604,-17.06076 0,-0.72657 1.36737,-6.6937 3.0386,-13.26028 l 3.0386,-11.93924 3.53831,-8.5 c 1.94607,-4.675 4.18387,-9.85 4.97288,-11.5 l 1.43458,-3 0.87082,-5.96483 0.87081,-5.96483 -1.38545,-4.66535 -1.38546,-4.66534 -1.58149,-1.31252 -1.58149,-1.31252 0.63648,-4.24438 0.63648,-4.24438 -2.15228,-1.15186 -2.15228,-1.15187 0.68004,-3.16106 c 0.37402,-1.73858 0.80829,-6.98606 0.96505,-11.66106 l 0.28502,-8.5 -3.61461,-7.66983 -3.61461,-7.66982 -7,-2.18818 -7,-2.18818 -10,-0.97446 c -5.5,-0.53595 -12.59736,-1.0822 -15.77191,-1.2139 l -5.77191,-0.23945 -1.19206,-1.19206 -1.19205,-1.19205 1.32215,-3.23604 c 0.72718,-1.77981 2.3388,-7.51103 3.58136,-12.73603 1.24257,-5.225 3.0104,-13.55 3.92852,-18.5 0.91811,-4.95 2.60253,-11.9966 3.74315,-15.65911 l 2.07386,-6.65912 -1.76428,-5.34088 -1.76428,-5.34089 -4.25941,-6.2394 c -2.34267,-3.43168 -4.46189,-6.80668 -4.70937,-7.5 -0.24748,-0.69333 -0.67444,-1.0356 -0.94881,-0.7606 -0.27437,0.275 -0.7506,3.0598 -1.0583,6.18845 l -0.55945,5.68845 1.29079,-0.49532 1.29078,-0.49532 1.92701,3.80687 1.92702,3.80687 -0.16806,6.13934 c -0.0924,3.37664 -0.4976,9.21657 -0.90037,12.97764 l -0.73232,6.8383 -2.89603,8.51458 c -1.59282,4.68301 -2.89603,9.25743 -2.89603,10.16537 l 0,1.65079 -1.5,0.57561 -1.5,0.5756 0,1.38245 c 0,0.76034 -1.16563,3.58696 -2.5903,6.28138 l -2.59029,4.89894 -10.15971,10.24124 c -5.58783,5.63268 -10.53397,10.24518 -10.9914,10.25 -0.45744,0.005 -2.79568,1.61809 -5.1961,3.58505 l -4.3644,3.5763 -5.17793,1.36591 -5.17793,1.36591 -2.12597,1.91826 c -1.16928,1.05504 -4.76898,3.14549 -7.99933,4.64544 l -5.87336,2.7272 -4.12664,-0.99425 -4.12664,-0.99424 -3.28945,0.52588 -3.28944,0.52588 L 2.07326,477.51494 0,475.64565 l 0.58552,-5.5 c 0.32203,-3.025 1.29511,-10.225 2.16239,-16 0.86728,-5.775 1.96602,-15.9 2.44164,-22.5 0.47562,-6.6 1.58704,-17.175 2.46982,-23.5 0.88278,-6.325 2.0826,-13.975 2.66626,-17 0.58366,-3.025 2.42461,-9.775 4.09101,-15 1.6664,-5.225 4.57955,-13.49042 6.47367,-18.36759 1.89411,-4.87718 4.46309,-10.95218 5.70885,-13.5 1.24576,-2.54783 4.16834,-7.32598 6.49463,-10.61813 2.32629,-3.29215 6.34507,-8.52547 8.93062,-11.6296 l 4.70101,-5.64388 4.81521,-3.32141 c 2.64837,-1.82677 5.0345,-3.67622 5.30252,-4.10987 l 0.4873,-0.78847 -4.54387,-8.76053 -4.54387,-8.76052 -3.98135,-4.62704 -3.98135,-4.62705 -4.39585,-2.06629 -4.39584,-2.06629 -0.54472,-2.08301 -0.54472,-2.08301 2.40531,-2.85856 2.40532,-2.85855 6.95619,-2.28051 6.95619,-2.2805 1.65547,1.37391 1.65546,1.37392 -0.55911,4.04149 -0.55911,4.04149 1.10606,3.5 c 0.60833,1.925 2.18928,6.425 3.51323,10 1.32394,3.575 6.33391,14.15 11.13326,23.5 l 8.72608,17 1.9661,-0.33231 c 1.08135,-0.18277 3.99109,-0.63277 6.46609,-1 l 4.5,-0.66769 0.10362,-2.94683 0.10362,-2.94683 2.34411,-1.55317 c 1.28926,-0.85424 5.29263,-3.73959 8.89638,-6.41188 3.60375,-2.67229 7.1597,-5.10018 7.90212,-5.3953 0.74242,-0.29513 2.42992,-1.61667 3.75,-2.93675 1.32008,-1.32008 2.40015,-2.95457 2.40015,-3.63219 0,-0.67762 -0.62297,-2.12146 -1.38439,-3.20853 -0.76141,-1.08707 -2.35625,-5.23982 -3.54408,-9.22834 l -2.15969,-7.25184 -2.45592,-1.60918 -2.45592,-1.60918 0,-2.32597 0,-2.32598 1.13748,-0.703 1.13748,-0.703 -0.55205,-10.01845 -0.55205,-10.01846 -1.58543,-0.88725 -1.58543,-0.88725 0,-2.93126 0,-2.93126 2.36217,-0.59286 2.36216,-0.59287 0.5626,-8.17618 0.56261,-8.17619 -1.27267,-1.5 c -0.69996,-0.825 -1.57024,-2.02622 -1.93396,-2.66938 l -0.66129,-1.16938 1.58062,-1.58062 1.58062,-1.58062 2.42857,0 2.42857,0 0,-3.28416 0,-3.28416 -5.5,-5.43168 -5.5,-5.43168 0,-2.80891 0,-2.80891 -2.5651,-0.97525 c -1.4108,-0.53639 -3.89694,-0.97525 -5.52475,-0.97525 l -2.95965,0 -0.97525,-2.5651 -0.97525,-2.5651 0,-4.24377 0,-4.24377 1.4682,-1.94113 1.46819,-1.94113 0.0318,-2.71104 0.0318,-2.71105 2.03904,-1.89966 2.03904,-1.89965 5.0758,-1.6393 c 2.79169,-0.90162 5.95068,-1.6393 7.01998,-1.6393 l 1.94418,0 -0.61803,-1 c -0.33992,-0.55 -1.23058,-1 -1.97924,-1 -0.74866,0 -3.83374,-1.4625 -6.85572,-3.25 l -5.49451,-3.25 -2.18625,-3.5 -2.18624,-3.5 -6.14902,-2.76228 c -3.38196,-1.51925 -6.91986,-2.75675 -7.862,-2.75 -0.94214,0.007 -3.86714,0.85631 -6.5,1.8879 l -4.78702,1.87562 -2.25,-0.8434 -2.25,-0.84339 0,-1.84513 0,-1.84514 3.04954,-2.92164 3.04954,-2.92165 -0.57374,-2.28596 -0.57374,-2.28597 0.98598,-1.84233 0.98599,-1.84233 3.03821,-1.25847 3.03822,-1.25847 0,-3.22369 0,-3.22369 1.75,-1.56382 1.75,-1.56381 2.5,-0.34117 2.5,-0.34118 0,-2.65487 0,-2.65488 2.24339,-2.59512 2.24338,-2.59513 4.38417,0 4.38417,0 1.3413,-1.61617 c 0.73772,-0.888893 1.91104,-3.251393 2.60739,-5.250003 0.69635,-1.99861 1.27286,-4.65203 1.28114,-5.89649 0.008,-1.24446 0.95982,-5.51946 2.11454,-9.5 1.15471,-3.98054 2.49537,-9.48734 2.97924,-12.23734 0.48388,-2.75 1.61004,-7.91186 2.50258,-11.47081 l 1.6228,-6.47081 -0.53301,-3.97393 -0.53302,-3.973925 0.96615,-1.805263 0.96615,-1.805262 1.71481,-0.009 1.71482,-0.009 2.67912,3.259015 2.67912,3.259015 1.00776,-2.649086 1.00776,-2.649087 2.21773,-1.553354 2.21772,-1.553355 1.78812,0.956971 1.78812,0.956972 0.30727,4.245469 0.30728,4.24547 3.75,0.31037 3.75,0.31036 0,-1.06036 c 0,-0.58321 0.88979,-1.95016 1.97732,-3.037689 l 1.97732,-1.977319 1.52268,0.584308 1.52268,0.584308 0,1.791322 c 0,0.98523 -1.41822,5.68444 -3.15159,10.4427 l -3.15159,8.65137 -2.09841,-0.29968 -2.09841,-0.29972 -0.5,-5.5 -0.5,-5.5 -1.4157,0 -1.4157,0 -3.16793,4.5 -3.16793,4.5 -1.77259,0.34378 -1.77259,0.34378 -1.05913,-1.05913 -1.05913,-1.05913 0.21777,-6.03465 0.21777,-6.03465 -3.05242,0 -3.05242,0 -0.125,6.5 c -0.0687,3.575 -0.20044,6.8375 -0.29265,7.25 -0.0922,0.4125 -0.65926,2.325 -1.26013,4.25 -0.60087,1.925 -1.59021,5.975 -2.19854,9 -0.60832,3.025 -1.8113,9.9192 -2.67328,15.32044 -0.86198,5.40124 -1.80753,10.44664 -2.10122,11.212003 l -0.53399,1.39156 5.21188,5.92101 5.21189,5.92101 4.13052,2.31924 c 2.27179,1.27559 4.87961,3.24073 5.79516,4.36699 0.91556,1.12626 2.17112,3.73525 2.79014,5.79775 l 1.1255,3.75 1.35627,0 1.35627,0 3.07304,-3.5 c 1.69017,-1.925 3.43029,-3.5 3.86694,-3.5 0.43664,0 3.03789,-1.50888 5.78055,-3.35307 2.74266,-1.84418 7.79792,-4.81415 11.23391,-6.59991 l 6.24727,-3.24686 -0.59247,-0.95862 -0.59246,-0.95863 -2.78962,0.6127 -2.78962,0.6127 -2.1327,-2.71128 -2.13269,-2.71129 0.69076,-2.09287 c 0.37993,-1.15108 0.74918,-4.189973 0.82056,-6.753093 l 0.12979,-4.66021 1.38266,-1.666 1.38266,-1.666 -1.4357,-0.90847 c -0.78964,-0.49966 -1.91485,-0.91537 -2.50049,-0.92379 l -1.06479,-0.01531 -1.6805,-3.52406 -1.68051,-3.52406 -2.94078,-0.58815 -2.94077,-0.58816 -0.49529,-1.29069 -0.49528,-1.29068 1.41325,-4.69588 1.41325,-4.69588 3.40272,-3.50327 3.40272,-3.50327 0.0337,-4.64795 0.0337,-4.64795 1.59331,-4.4086 1.59331,-4.408609 -0.62514,-6.101765 -0.62515,-6.101765 1.65168,-3.953032 c 0.90843,-2.174168 2.42202,-4.80564 3.36355,-5.847716 0.94152,-1.042076 3.96186,-3.031426 6.71186,-4.420777 2.75,-1.38935 6.27203,-3.590712 7.82673,-4.891914 1.55464,-1.301202 3.21224,-2.365822 3.6835,-2.365822 0.47126,0 3.08124,-1.382771 5.79997,-3.072824 L 181.97881,0 l 10.16411,0.05948 10.16412,0.05948 1.89345,1.013344 1.89345,1.013343 4.53456,0 4.53456,0 6.9061,4.467537 6.90611,4.467537 3.04927,4.782463 c 1.6771,2.630355 3.84537,6.807463 4.81838,9.282463 0.973,2.475 3.44055,7.65 5.48344,11.5 l 3.71434,7 0.63547,6 0.63547,6 -1.1078,5 c -0.60929,2.75 -1.34651,6.18125 -1.63827,7.625 l -0.53046,2.625 2.78926,0 2.78926,0 2.30589,2.68076 2.3059,2.68077 0,2.53994 0,2.53995 -1.61866,2.74017 -1.61866,2.74018 2.61866,2.61866 2.61866,2.61866 0,4.24785 0,4.247853 -3.13228,3.23169 -3.13228,3.23169 0.61104,1.59235 0.61104,1.59234 4.43018,1.899 4.43019,1.899 0.68184,2.14829 0.68184,2.14829 -1.21547,2.9344 -1.21547,2.9344 -3.92257,0.62724 -3.92257,0.62725 0.31095,1.61463 0.31095,1.61464 3.2031,0.1 3.20311,0.1 1.5332,1.27244 1.5332,1.27245 0,2.04881 0,2.04882 -1.52411,1.68412 -1.52411,1.68412 0.55883,1.45629 0.55883,1.45628 3.3469,1.21026 3.3469,1.21025 2.61838,3.95664 2.61838,3.95664 0,1.56193 0,1.56194 -2.1705,2.93575 -2.17049,2.93575 1.82365,5.3651 1.82365,5.36509 -2.32425,4.13545 -2.32425,4.13544 1.1711,2.57027 c 0.6441,1.41365 1.17109,3.65843 1.17109,4.98842 l 0,2.41815 -3.17635,3.61766 -3.17635,3.61766 -2.32365,-0.44419 -2.32365,-0.4442 0,1.78461 0,1.7846 -2.58889,3.07672 -2.5889,3.07673 -1.999,0 -1.99901,0 0.66306,-3.92459 0.66306,-3.9246 -2.13935,-1.14494 -2.13934,-1.14494 0.62273,-2.83526 0.62273,-2.83527 -1.10235,-0.68129 -1.10235,-0.68129 -1.34533,1.11653 -1.34534,1.11653 -0.67106,13.71956 c -0.36909,7.54576 -0.81258,17.66536 -0.98553,22.48801 l -0.31446,8.76844 1.02637,0.63433 1.02637,0.63433 1.20854,-1.65277 c 0.66469,-0.90903 1.65847,-1.65278 2.20839,-1.65278 l 0.99985,0 0.63513,5.25 c 0.34931,2.8875 0.92713,6.55236 1.28403,8.14413 l 0.64891,2.89413 -2.64413,-0.50546 -2.64413,-0.50546 0,1.36133 0,1.36133 0.9018,0 c 0.49599,0 1.73691,1.31897 2.7576,2.93104 1.02069,1.61207 4.5577,5.77457 7.86001,9.25 l 6.00422,6.31896 1.4655,3 c 0.80602,1.65 2.59193,4.8 3.96869,7 1.37675,2.2 5.54946,10.07477 9.27268,17.4995 3.72323,7.42472 6.7695,14.05049 6.7695,14.72393 0,0.67344 2.01704,7.32329 4.48231,14.77745 2.46527,7.45416 5.885,19.50339 7.59939,26.77607 1.7144,7.27268 4.21689,16.82305 5.56109,21.22305 1.3442,4.4 3.37299,10.90045 4.50843,14.44544 l 2.06442,6.44544 5.20691,9.05456 c 2.8638,4.98001 5.49013,9.81334 5.8363,10.74074 l 0.6294,1.68617 -1.88966,2.40232 -1.88966,2.40231 -7.80447,3.27136 c -4.29245,1.79925 -8.02946,3.58692 -8.30446,3.97259 -0.275,0.38568 -3.2,2.31194 -6.5,4.28057 -3.3,1.96864 -9.01873,4.97866 -12.7083,6.68892 l -6.7083,3.10958 -2.9766,0 c -1.63713,0 -4.1309,0.43886 -5.5417,0.97525 l -2.5651,0.97525 0,1.87471 0,1.87471 3.19535,4.40004 3.19536,4.40004 0.1158,4.87533 0.11581,4.87533 1.87997,1.37467 1.87997,1.37467 3.34871,0 3.34871,0 3.71016,-2.01047 c 2.04059,-1.10576 4.42801,-2.52203 5.30538,-3.14726 l 1.59523,-1.13678 2.63658,0.66174 2.63659,0.66174 1.5309,2.96044 1.5309,2.96043 0.60687,5.80624 0.60688,5.80624 -2.80008,3.3277 -2.80008,3.3277 -5.31951,-0.44113 -5.3195,-0.44114 0,0.76085 c 0,0.41846 0.70647,1.46731 1.56993,2.33077 0.86346,0.86346 2.55096,1.76968 3.75,2.01381 1.19904,0.24414 3.78812,0.7003 5.75351,1.0137 l 3.57344,0.5698 4.47695,2.8392 4.47695,2.83919 3.09255,4.89862 c 1.7009,2.69423 3.39708,5.91437 3.76929,7.15585 l 0.67675,2.25724 -2.9345,2.93449 -2.93449,2.9345 -1.92648,-0.50379 -1.92648,-0.50378 -2.95871,-6.18137 c -1.62729,-3.39974 -3.40292,-6.97182 -3.94584,-7.93794 l -0.98713,-1.75659 -1.26287,0 c -0.69458,0 -1.26287,0.24083 -1.26287,0.53518 0,0.29435 0.71044,1.61945 1.57875,2.94466 l 1.57874,2.40947 0.95777,5.80534 c 0.52677,3.19294 1.19791,8.28035 1.49142,11.30535 l 0.53367,5.5 -1.46775,15.0403 -1.46775,15.0403 0.95579,5.4597 c 0.52569,3.00283 1.67836,9.0597 2.56149,13.4597 l 1.60569,8 0.7522,11 c 0.41372,6.05 0.78996,12.69755 0.8361,14.77234 l 0.0839,3.77235 3.89516,4.22765 3.89516,4.22766 1.17371,4.36262 1.17371,4.36263 -0.68041,4.0273 c -0.37422,2.21501 -1.52033,5.87683 -2.54691,8.13737 l -1.8665,4.11008 -0.022,6.16821 c -0.0121,3.39252 -0.30149,6.89666 -0.64314,7.78699 l -0.62118,1.61877 -2.82916,1.46302 -2.82916,1.46301 -4.29966,-0.006 c -2.36481,-0.003 -5.95966,-0.46662 -7.98855,-1.03013 l -3.68889,-1.02455 -0.31111,-3.21168 -0.31111,-3.21168 -1.77347,-0.33603 -1.77347,-0.33604 -4.36207,2.11164 -4.36207,2.11164 -5.86446,0.96236 -5.86446,0.96235 -8.43976,-1.1153 -8.43977,-1.1153 -5.46678,-1.88085 c -3.00672,-1.03405 -6.28066,-1.88043 -7.27542,-1.88043 l -1.80866,0 -3.53479,-3.10359 -3.5348,-3.10359 0,-2.27397 0,-2.27396 1.62901,-1.35196 1.62901,-1.35195 8.54426,-0.21842 8.54427,-0.21841 4.91901,-2.55208 4.91901,-2.55207 1.84485,0 1.84484,0 -0.52425,-3.25 -0.52425,-3.25 2.57664,-2.41447 2.57664,-2.41447 2.05341,1.85831 2.05341,1.85831 0.5737,-2.19384 0.5737,-2.19384 0.88337,0 0.88337,0 0,-3.54966 0,-3.54966 -1.56068,-3.01802 -1.56068,-3.01803 0.31068,-2.18231 0.31068,-2.18232 3.48773,0 3.48773,0 0.85827,-5.37391 0.85826,-5.37391 -1.61636,-11.12609 -1.61637,-11.12609 -1.97461,-6.32297 -1.97462,-6.32298 -3.39568,-5.17702 c -1.86762,-2.84737 -4.36725,-7.20203 -5.55473,-9.67703 -1.18749,-2.475 -3.32226,-7.425 -4.74394,-11 -1.42168,-3.575 -2.97027,-6.99125 -3.44131,-7.59166 -0.47104,-0.60041 -1.76047,-3.92153 -2.8654,-7.38027 -1.10493,-3.45874 -2.00897,-7.10343 -2.00897,-8.09932 l 0,-1.81072 -1,-0.61803 -1,-0.61803 0,-2.44099 0,-2.44098 -1.08533,0 -1.08532,0 0.4878,6.25 c 0.2683,3.4375 1.07075,8.61344 1.78324,11.50209 l 1.29543,5.25209 -1.02659,1.02659 -1.02659,1.02659 -2.57905,-2.02868 -2.57905,-2.02868 -2.59227,0 -2.59227,0 0,-2.31039 0,-2.31038 2.3956,-6.11284 2.39561,-6.11284 0.69023,-5.01863 0.69024,-5.01864 -0.62167,-1.95872 -0.62168,-1.95873 -2.70857,-0.67981 c -1.48971,-0.37389 -3.27359,-1.14873 -3.96417,-1.72186 l -1.25559,-1.04205 0,-2.25511 0,-2.25511 -1.25,-0.99206 c -0.6875,-0.54562 -2.86553,-1.28261 -4.84007,-1.63775 l -3.59007,-0.6457 -2.28234,-2.42944 -2.28235,-2.42945 0.68347,-6.38213 0.68347,-6.38213 -1.63414,-1.35622 c -0.89878,-0.74592 -2.5104,-3.07382 -3.58138,-5.17311 l -1.94724,-3.8169 -1.40212,0 -1.40213,0 -1.07922,3.25 -1.07922,3.25 -3.85543,5.08149 -3.85544,5.08149 -1.46973,6.55174 -1.46973,6.55174 1.1572,4.36677 1.15719,4.36677 4.31345,4.44329 4.31346,4.44328 2.48439,5.42663 2.48439,5.42663 -0.70277,9.57394 -0.70277,9.57394 -1.42541,2.75644 c -0.78398,1.51605 -2.21293,3.19883 -3.17544,3.73951 l -1.75002,0.98307 5.37566,10.31663 c 2.95661,5.67415 5.8494,10.90949 6.42841,11.63408 0.57902,0.72459 2.99811,5.63645 5.37576,10.91525 2.37765,5.2788 4.11677,9.80404 3.86471,10.0561 -0.25205,0.25206 -1.10227,0.21117 -1.88936,-0.0909 l -1.43108,-0.54915 -4.97251,-8.32439 c -2.73489,-4.57838 -6.46904,-11.24935 -8.29812,-14.82435 -1.82908,-3.575 -4.90654,-9.2 -6.8388,-12.5 -1.93226,-3.3 -4.16827,-6.7875 -4.96892,-7.75 -0.80065,-0.9625 -1.77103,-1.75 -2.1564,-1.75 l -0.70067,0 -0.56421,7.46005 -0.5642,7.46005 -1.54874,2.78995 c -0.85181,1.53447 -2.22638,4.5049 -3.0546,6.60095 -0.82822,2.09605 -2.52985,5.16244 -3.78139,6.8142 -1.25155,1.65175 -4.52554,5.35812 -7.27554,8.23636 -2.75,2.87825 -6.575,6.29531 -8.5,7.59348 -1.925,1.29816 -5.6222,4.65185 -8.216,7.45263 l -4.71599,5.09233 -0.034,1.47971 c -0.0187,0.81385 -3.47538,8.42529 -7.68151,16.91433 l -7.64751,15.4346 0.10178,2.58568 c 0.056,1.42212 0.52479,4.77952 1.0418,7.46089 l 0.94001,4.8752 -0.78615,2.6248 c -0.43239,1.44363 -1.68069,4.64979 -2.774,7.12479 -1.09331,2.475 -3.36025,6.20946 -5.03763,8.29879 l -3.04979,3.79879 -1.51202,6.62873 -1.51202,6.62873 -1.80848,1.07248 -1.80849,1.07248 -5.59651,0.5 c -3.07809,0.275 -6.38544,0.34587 -7.34967,0.15748 l -1.75316,-0.34252 0.66094,-4.40748 0.66095,-4.40748 -1.12702,0 c -0.61986,0 -2.07452,0.50709 -3.23258,1.12687 -1.15807,0.61977 -3.16821,2.38974 -4.46699,3.93325 l -2.36141,2.80638 -3.21728,1.04507 c -1.7695,0.5748 -6.14227,1.23673 -9.71727,1.47097 -3.575,0.23424 -9.2,0.6757 -12.5,0.98102 z m 8.28725,-23.22531 c 0.2316,-0.69479 0.14921,-1.53513 -0.18308,-1.86742 l -0.60417,-0.60416 -0.60014,0.60013 -0.60013,0.60014 0.78322,1.26727 0.78322,1.26728 0.42108,-1.26324 z m 182.21275,-30.13825 c 0.55,0 1,-0.45 1,-1 0,-0.55 -0.45,-1 -1,-1 -0.55,0 -1,0.45 -1,1 0,0.55 0.45,1 1,1 z m -62.53353,-96.31594 1.03353,-0.3383 0.31525,-2.66068 0.31524,-2.66069 -1.31524,-1.87049 c -0.72339,-1.02877 -2.79676,-3.11525 -4.60748,-4.63663 l -3.29224,-2.76613 -0.56194,0.56194 -0.56194,0.56194 3.82065,7.07367 3.82064,7.07366 1.03353,-0.33829 z m -1.85503,-20.68406 1.26282,0 -0.53358,-3.75 c -0.29348,-2.0625 -1.22632,-5.6625 -2.07299,-8 l -1.53941,-4.25 -1.36414,0 -1.36414,0 0,5.68555 0,5.68555 2.17431,2.31445 2.17432,2.31445 1.26281,0 z m 92.07954,-37.06768 4.19099,0.0677 0.62356,-1.00895 0.62357,-1.00895 -0.60262,-1.89867 -0.60261,-1.89867 -1.58941,-0.60991 -1.58941,-0.60991 -4.87253,0.64636 -4.87252,0.64636 0,1.71836 0,1.71835 2.25,1.08514 2.25,1.08513 4.19098,0.0677 z M 17.33307,475.14565 c 0.42587,0 1.06824,-0.47558 1.42748,-1.05684 l 0.65316,-1.05683 -0.63535,-2.53142 -0.63534,-2.53141 -1.4588,1.21069 -1.4588,1.2107 0,1.71089 c 0,0.94099 0.3,2.01089 0.66667,2.37755 0.36666,0.36667 1.01511,0.66667 1.44098,0.66667 z m 9.05902,-4 0.83333,0 0,-2.5 0,-2.5 -1.5,0 -1.5,0 0,1.83333 c 0,1.00834 0.3,2.13334 0.66667,2.5 0.36666,0.36667 1.04166,0.66667 1.5,0.66667 z m 5.83333,-6 c 0.55,0 1,-0.45 1,-1 0,-0.55 -0.45,-1 -1,-1 -0.55,0 -1,0.45 -1,1 0,0.55 0.45,1 1,1 z m 7.73852,-1.18816 1.73851,-0.33481 0.34606,-1.79693 c 0.19033,-0.98831 0.10003,-2.43805 -0.20066,-3.22165 l -0.54672,-1.42473 -1.53786,0.59013 -1.53785,0.59013 0,2.96633 0,2.96634 1.73852,-0.33481 z m 14.76985,-7.81184 c 0.75548,0 1.60639,-0.37666 1.89091,-0.83703 l 0.51732,-0.83703 -1.57403,-2.24724 -1.57403,-2.24724 -0.98361,0.98361 -0.9836,0.9836 0.66672,2.10067 0.66672,2.10066 1.3736,0 z m 5.49163,-6 1.06277,0 0.6014,-1.56722 0.6014,-1.56721 -1.13279,-1.13279 -1.13278,-1.13278 -1.13278,1.13278 -1.13279,1.13279 0.6014,1.56721 0.6014,1.56722 1.06277,0 z m 7.37728,-7.19713 2.12272,-0.30287 0.31642,-2.75 0.31642,-2.75 -1.49499,0 -1.49499,0 -1.52894,1.52894 -1.52894,1.52894 0.58479,1.52393 0.58479,1.52393 2.12272,-0.30287 z m 6.29858,-8.97896 1.68191,-0.32391 -0.10166,-1 c -0.0559,-0.55 -0.78983,-1.43408 -1.63093,-1.96463 l -1.52925,-0.96463 -0.6715,0.6715 -0.67151,0.6715 0.62052,1.61704 0.62051,1.61703 1.68191,-0.3239 z m 3.25082,-7.82391 3.07332,0 0,-2.06642 0,-2.06642 -2.74145,0.31642 -2.74145,0.31642 -0.33187,1.75 -0.33188,1.75 3.07333,0 z m -57.17856,-2 2.67775,0 5.19455,-5.49316 c 2.85701,-3.02124 7.08045,-8.256 9.38544,-11.6328 2.30498,-3.3768 6.6087,-10.91738 9.56382,-16.75684 2.95512,-5.83946 6.31894,-13.3172 7.47517,-16.6172 1.15623,-3.3 2.50036,-8.69647 2.98697,-11.99215 l 0.88473,-5.99216 -0.56668,-2.25784 -0.56669,-2.25785 -1.73795,0 c -0.95588,0 -3.06179,0.66042 -4.67981,1.46759 l -2.94185,1.46759 -6.59931,6.50267 -6.59931,6.50267 -4.66172,7.95163 -4.66172,7.95163 -2.34888,7.32811 c -1.29188,4.03046 -3.27097,10.47811 -4.39798,14.32811 -1.12701,3.85 -2.33172,8.87881 -2.67713,11.17514 l -0.62802,4.17513 1.11043,2.07487 1.11044,2.07486 2.67775,0 z m 59.83367,-5.39301 c 0.86998,-0.33385 1.99498,-0.60699 2.5,-0.60699 l 0.91821,0 0,-2 0,-2 -0.91821,0 c -0.50502,0 -1.63002,0.27314 -2.5,0.60699 l -1.58179,0.60699 0,2 0,2 1.58179,-0.60699 z m 1.84678,-7.60699 c 0.78572,0 2.13572,-0.70714 3,-1.57143 0.86429,-0.86428 1.57143,-1.96273 1.57143,-2.44098 0,-0.47826 -0.4407,-1.14192 -0.97933,-1.47482 l -0.97934,-0.60526 -2.02066,1.08143 -2.02067,1.08143 0,1.96481 0,1.96482 1.42857,0 z m 1.47842,-8 c 0.93115,0 2.23301,-0.54 2.89301,-1.2 0.66,-0.66 1.2,-1.96186 1.2,-2.89301 l 0,-1.69301 -1.52268,-0.58431 -1.52268,-0.58431 -1.95464,1.95464 -1.95464,1.95464 0.58431,1.52268 0.58431,1.52268 1.69301,0 z m -0.39503,-9 c 0.21667,0 1.54011,-0.52223 2.94099,-1.16052 l 2.54705,-1.16051 0,-1.33949 0,-1.33948 -2.89301,0 -2.89301,0 -0.61024,1.59024 -0.61023,1.59024 0.56226,0.90976 c 0.30925,0.50037 0.73953,0.90976 0.95619,0.90976 z m 1.35593,-8 c 0.41242,0 1.56601,-0.59679 2.56353,-1.3262 l 1.81368,-1.32619 -0.72846,-2.29517 -0.72845,-2.29517 -2.51738,2.51738 -2.51738,2.51737 0.6823,1.10399 c 0.37527,0.6072 1.01974,1.10399 1.43216,1.10399 z m 28.50406,-3.21991 c 0.62043,-0.88377 1.60589,-2.39971 2.18991,-3.36876 l 1.06186,-1.76192 1.24983,0.77244 c 0.6874,0.42483 1.66092,1.85372 2.16338,3.17529 l 0.91357,2.40286 1.10137,0 1.10137,0 -0.17794,-3.25 c -0.0979,-1.7875 -0.13234,-3.8125 -0.0766,-4.5 l 0.1013,-1.25 0.90122,0 c 0.49568,0 1.8305,1.575 2.96628,3.5 l 2.06505,3.5 1.07904,0 1.07904,0 -0.67997,-3.75 c -0.37399,-2.0625 -1.53746,-6.5625 -2.5855,-10 l -1.90552,-6.25 -0.95982,0 -0.95982,0 0,-2.96482 0,-2.96481 -2.05544,-1.10004 -2.05544,-1.10004 -1.19456,0.42973 -1.19456,0.42972 -1.75,-0.90005 -1.75,-0.90006 0,-1.46481 0,-1.46482 -1.12781,0 -1.12781,0 0.65437,4.09219 0.65437,4.09218 -1.22368,-0.40789 c -0.67302,-0.22434 -2.24045,-2.17832 -3.48318,-4.34219 l -2.25952,-3.93429 -0.0434,-3.12756 -0.0434,-3.12755 -1.62494,-1.34858 -1.62494,-1.34858 0.7353,5.34625 0.7353,5.34626 -1.24781,-0.41594 -1.24781,-0.41593 -2.25176,-8.69427 c -1.23846,-4.78185 -2.51249,-9.37373 -2.83116,-10.20418 l -0.57935,-1.50992 -1.06277,0 -1.06277,0 -0.60149,1.56746 -0.60149,1.56746 1.26729,2.36796 1.2673,2.36796 -1.63442,4.08482 -1.63442,4.08481 0,4.99334 0,4.99333 0.90179,1.73643 c 0.49598,0.95504 1.28348,3.53643 1.75,5.73643 l 0.84821,4 2.0012,0.0372 c 1.10066,0.0205 2.56316,0.38453 3.25,0.80902 l 1.2488,0.7718 0,4.44099 0,4.44098 1.01357,0 c 0.55746,0 1.87092,-0.53543 2.9188,-1.18984 l 1.90523,-1.18983 1.51692,1.25893 1.51692,1.25894 0.68623,3.12437 0.68623,3.12437 1.12805,-1.60685 z m -28.37195,-5.78009 1,0 0,-1.05902 0,-1.05901 -1,0.61803 c -0.55,0.33992 -1,0.81648 -1,1.05902 0,0.24254 0.45,0.44098 1,0.44098 z m -17.06151,-43.22319 1.56151,-0.29724 0.25413,-1.98979 0.25413,-1.98978 -2.28594,-4 -2.28595,-4 -1.46819,0 -1.46818,0 0.0855,4.23953 0.0855,4.23953 1.85296,2.04749 1.85296,2.0475 1.5615,-0.29724 z m 189.49196,-138.77681 1.56955,0 0,-1 0,-1 1.5,0 1.5,0 0,-1.56642 0,-1.56642 -2.75,0.31642 -2.75,0.31642 -0.31955,2.25 -0.31955,2.25 1.56955,0 z m -155.89446,-5.6989 c 0.56979,-0.19296 1.91979,-1.99405 3,-4.00244 1.0802,-2.00839 2.53401,-4.22256 3.23068,-4.92037 0.69666,-0.69782 2.83416,-3.3223 4.75,-5.83218 1.91583,-2.50988 3.48333,-4.93829 3.48333,-5.39648 l 0,-0.83305 -3.81581,-1.14325 c -2.0987,-0.62878 -5.8112,-1.20142 -8.25,-1.27252 l -4.43419,-0.12928 -2.69457,1.06841 -2.69456,1.06841 0.53672,3.30743 0.53672,3.30744 -2.09215,1.89338 -2.09216,1.89338 0.0703,2.59501 c 0.0386,1.42725 0.41065,3.46408 0.82667,4.52627 l 0.75638,1.93127 3.92333,1.1447 c 2.15783,0.62958 4.38952,0.98683 4.95932,0.79387 z m 158.57732,-9.87113 c 0.48768,-0.3014 0.88669,-1.17093 0.88669,-1.93228 l 0,-1.38428 2.13146,-1.49293 2.13146,-1.49294 -0.60008,-1.56377 -0.60007,-1.56377 -1.90894,0 -1.90894,0 -1.00006,1.25 c -0.55003,0.6875 -1.31731,2.28409 -1.70506,3.54799 l -0.70501,2.29799 1.19593,1.441 1.19592,1.441 0.8867,-0.54801 z m -112.66732,-17.74029 1.05401,-0.34634 0.25573,-1.92167 0.25573,-1.92167 -0.81842,-1.25593 -0.81841,-1.25594 -5.85858,-1.52597 -5.85858,-1.52596 -0.81342,1.2819 c -0.44739,0.70504 -0.82032,1.5643 -0.82874,1.90946 -0.008,0.34515 0.65385,1.1829 1.4717,1.86166 l 1.48702,1.23411 2.50481,-0.62866 2.50482,-0.62867 2.20416,2.535 2.20416,2.53501 1.05401,-0.34633 z m 4.52263,-6.68968 1.03138,0 0,-1.02522 c 0,-0.56388 2.5875,-3.85291 5.75,-7.30897 3.1625,-3.45606 6.69132,-7.38221 7.84182,-8.72478 1.15051,-1.34257 4.41301,-4.57152 7.25,-7.17544 l 5.15818,-4.73441 0,-1.124 0,-1.124 -2.62801,0.65959 -2.62801,0.65959 -6.9141,6.19882 c -3.80275,3.40935 -7.39844,6.36658 -7.9904,6.57163 l -1.07631,0.3728 0.86841,-1.46291 c 0.47763,-0.8046 3.79342,-4.16793 7.36842,-7.47407 3.575,-3.30615 7.5125,-6.54394 8.75,-7.19509 l 2.25,-1.18391 0,-1.46481 0,-1.46482 -1.49733,0 c -0.82353,0 -4.31103,1.33682 -7.75,2.97071 l -6.25267,2.97072 -5.84681,5.59915 c -3.21574,3.07953 -6.01341,5.43253 -6.21705,5.2289 -0.20363,-0.20364 2.35074,-3.38508 5.6764,-7.06987 l 6.04665,-6.69961 1.4204,0 1.42041,0 0,-1.5 0,-1.5 -0.80887,0 c -0.44488,0 -1.68238,0.66069 -2.75,1.4682 -1.06762,0.8075 -2.6412,1.4825 -3.49685,1.5 l -1.55572,0.0318 -3.44428,2.57248 c -1.89435,1.41486 -4.20447,2.99108 -5.13359,3.5027 l -1.68931,0.93023 -0.59339,-0.96012 -0.59338,-0.96011 2.86506,-1.48159 c 1.57578,-0.81487 4.6846,-2.97153 6.90848,-4.79258 2.22387,-1.82106 4.88681,-3.8916 5.91763,-4.6012 l 1.87422,-1.29019 -3.38003,0.5412 -3.38004,0.54119 -5.43142,3.249 c -2.98728,1.78694 -6.95619,4.16858 -8.81979,5.29253 -1.8636,1.12395 -5.66094,4.10514 -8.43854,6.62486 l -5.05018,4.58133 0,2.02258 0,2.02259 3.22,-0.14745 3.22,-0.14745 2.01469,3.70662 2.01469,3.70662 2.18108,1.16728 2.18108,1.16728 0.49061,1.8761 0.49061,1.8761 3.48663,0 3.48663,0 0.57561,1.5 c 0.31658,0.825 1.03972,1.5 1.60699,1.5 z m 109.78429,-1.18579 1.74709,-0.33131 0.33008,-2.88294 0.33007,-2.88295 -1.33007,-0.84319 c -0.73155,-0.46376 -1.9067,-0.85009 -2.61146,-0.85851 l -1.28139,-0.0153 -0.50943,1.32755 -0.50943,1.32755 1.04373,2.74521 1.04373,2.74522 1.74708,-0.33132 z m -130.75291,-3.81421 1.88197,0 0.65316,-1.05684 0.65316,-1.05683 -0.6132,-2.44317 -0.61319,-2.44316 -1.31197,0 -1.31197,0 -1.28693,2.40465 -1.28693,2.40464 0.67697,1.09536 0.67696,1.09535 1.88197,0 z m 32.58333,-36.07895 1.91667,-0.0789 -1.3125,-0.52522 -1.3125,-0.52522 -0.60417,0.60416 -0.60416,0.60417 1.91666,-0.0789 z M 119.65399,53.145647 c 0.23572,0 1.13572,-0.70714 2,-1.57143 l 1.57143,-1.57143 0,-2.42857 0,-2.42857 -0.8,0 c -0.44,0 -1.34,0.54 -2,1.2 l -1.2,1.2 0,2.8 c 0,1.54 0.19286,2.8 0.42857,2.8 z m 17.8843,-0.91287 1.08713,-1.08713 -1.08713,-1.08713 -1.08713,-1.08713 -0.67189,1.08713 -0.67188,1.08713 0.67188,1.08713 0.67189,1.08713 1.08713,-1.08713 z"
     id="path2989"
     inkscape:connector-curvature="0" />
</svg>
