<?xml version="1.0" encoding="UTF-8" standalone="no"?>
<!-- Created with Inkscape (http://www.inkscape.org/) -->

<svg
   xmlns:dc="http://purl.org/dc/elements/1.1/"
   xmlns:cc="http://creativecommons.org/ns#"
   xmlns:rdf="http://www.w3.org/1999/02/22-rdf-syntax-ns#"
   xmlns:svg="http://www.w3.org/2000/svg"
   xmlns="http://www.w3.org/2000/svg"
   xmlns:sodipodi="http://sodipodi.sourceforge.net/DTD/sodipodi-0.dtd"
   xmlns:inkscape="http://www.inkscape.org/namespaces/inkscape"
   id="svg2"
   version="1.1"
   inkscape:version="0.48.2 r9819"
   width="820"
   height="2608"
   sodipodi:docname="11306565175_81f90b52f6_oc.png">
  <metadata
     id="metadata8">
    <rdf:RDF>
      <cc:Work
         rdf:about="">
        <dc:format>image/svg+xml</dc:format>
        <dc:type
           rdf:resource="http://purl.org/dc/dcmitype/StillImage" />
        <dc:title></dc:title>
      </cc:Work>
    </rdf:RDF>
  </metadata>
  <defs
     id="defs6" />
  <sodipodi:namedview
     pagecolor="#ffffff"
     bordercolor="#666666"
     borderopacity="1"
     objecttolerance="10"
     gridtolerance="10"
     guidetolerance="10"
     inkscape:pageopacity="0"
     inkscape:pageshadow="2"
     inkscape:window-width="1600"
     inkscape:window-height="876"
     id="namedview4"
     showgrid="false"
     fit-margin-top="0"
     fit-margin-left="0"
     fit-margin-right="0"
     fit-margin-bottom="0"
     inkscape:zoom="0.5"
     inkscape:cx="306"
     inkscape:cy="1324"
     inkscape:window-x="0"
     inkscape:window-y="24"
     inkscape:window-maximized="1"
     inkscape:current-layer="svg2" />
  <path
     style="fill:#000000"
     d="m 442,2607 c 0,-0.55 -1.8,-1 -4,-1 -2.2,0 -4,-0.45 -4,-1 0,-0.55 -0.9,-1 -2,-1 -1.1,0 -2,-0.45 -2,-1 0,-0.55 -0.9,-1 -2,-1 -1.1,0 -2,-0.45 -2,-1 0,-0.55 -0.80066,-1 -1.77924,-1 -0.97858,0 -2.42792,-0.9 -3.22076,-2 -0.79284,-1.1 -2.24218,-2 -3.22076,-2 -0.97858,0 -1.77924,-0.45 -1.77924,-1 0,-0.55 -0.69545,-1 -1.54545,-1 -1.7833,0 -6.45455,-4.3661 -6.45455,-6.0329 0,-0.6182 -1.8,-2.8533 -4,-4.9671 -3.72934,-3.5831 -4,-4.2207 -4,-9.4216 0,-3.0681 -0.45,-5.5784 -1,-5.5784 -0.55,0 -1,-1.8 -1,-4 0,-2.2 0.45,-4 1,-4 0.55,0 1,-0.9 1,-2 0,-1.1 0.45,-2 1,-2 0.55,0 1,-0.9 1,-2 0,-1.1 0.45,-2 1,-2 0.55,0 1,-0.6943 1,-1.5428 0,-0.8485 3.6,-5.1043 8,-9.4572 5.82755,-5.7652 8,-8.6049 8,-10.4572 0,-1.3985 0.45,-2.5428 1,-2.5428 0.55,0 1,-1.1571 1,-2.5714 0,-2.8936 2.06801,-5.4286 4.42857,-5.4286 0.86429,0 1.57143,-0.45 1.57143,-1 0,-1.4852 2.93255,-1.2103 4.57143,0.4286 0.78571,0.7857 1.42857,2.1357 1.42857,3 0,2.2597 0.83222,1.9625 4,-1.4286 1.54133,-1.65 3.42253,-3 4.18045,-3 0.75792,0 2.02671,-0.9 2.81955,-2 0.79284,-1.1 2.14284,-2 3,-2 0.85716,0 2.20716,-0.9 3,-2 0.79284,-1.1 2.06163,-2 2.81955,-2 0.75792,0 2.63912,-1.35 4.18045,-3 1.54133,-1.65 3.31733,-3 3.94666,-3 1.68286,0 6.05334,-4.6602 6.05334,-6.4545 0,-0.8788 0.86275,-1.5455 2,-1.5455 1.33333,0 2,-0.6667 2,-2 0,-1.8519 -0.66667,-2 -9,-2 -5.33333,0 -9,0.4074 -9,1 0,1.4435 -3.72478,1.2326 -4.41667,-0.25 -0.46666,-1 -0.7,-1 -1.16666,0 -0.4027,0.8629 -3.34445,1.25 -9.5,1.25 -5.27778,0 -8.91667,0.4081 -8.91667,1 0,0.5833 -3.33333,1 -8,1 -4.66667,0 -8,0.4167 -8,1 0,0.6 -4,1 -10,1 -6,0 -10,0.4 -10,1 0,0.55 -2.25,1 -5,1 -2.75,0 -5,0.45 -5,1 0,0.55 -2.25,1 -5,1 -2.75,0 -5,0.45 -5,1 0,0.5556 -2.66667,1 -6,1 -3.33333,0 -6,0.4444 -6,1 0,0.5714 -3,1 -7,1 -4,0 -7,0.4286 -7,1 0,0.55 -2.08472,1 -4.6327,1 -3.54446,0 -5.10297,0.5285 -6.63464,2.25 -1.35793,1.5262 -2.14627,1.8479 -2.45063,1 C 333.72502,2509.6983 316,2509.4559 316,2511 c 0,0.6111 -4.66667,1 -12,1 -7.33333,0 -12,0.3889 -12,1 0,0.6452 -11,1 -31,1 -20,0 -31,-0.3548 -31,-1 0,-0.6061 -4.33333,-1 -11,-1 -6.66667,0 -11,-0.3939 -11,-1 0,-0.55 -1.8,-1 -4,-1 -2.2,0 -4,-0.45 -4,-1 0,-0.55 -1.8,-1 -4,-1 -2.2,0 -4,-0.45 -4,-1 0,-0.55 -0.9,-1 -2,-1 -1.1,0 -2,-0.45 -2,-1 0,-0.55 -0.80066,-1 -1.77924,-1 -0.97858,0 -2.42792,-0.9 -3.22076,-2 -0.79284,-1.1 -2.24218,-2 -3.22076,-2 -0.97858,0 -1.77924,-0.45 -1.77924,-1 0,-0.55 -0.9,-1 -2,-1 -1.33333,0 -2,-0.6667 -2,-2 0,-1.6667 -0.66667,-2 -4,-2 -2.2,0 -4,-0.45 -4,-1 0,-0.55 -0.9,-1 -2,-1 -1.33333,0 -2,-0.6667 -2,-2 0,-1.1 -0.45,-2 -1,-2 -0.55,0 -1,-1.2507 -1,-2.7792 0,-1.6321 -0.82553,-3.3743 -2,-4.2208 -1.1,-0.7928 -2,-2.2422 -2,-3.2208 0,-0.9785 -0.45,-1.7792 -1,-1.7792 -0.58333,0 -1,-3.3333 -1,-8 0,-4.6667 -0.41667,-8 -1,-8 -0.55,0 -1,-1.1571 -1,-2.5714 0,-6.0205 7.27023,-7.4918 12,-2.4286 1.72334,1.8448 3.80309,3 5.40121,3 1.42933,0 2.59879,0.45 2.59879,1 0,0.55 0.80066,1 1.77924,1 0.97858,0 2.42792,0.9 3.22076,2 1.31212,1.8205 2.58869,2 14.22076,2 7.85283,0 12.77924,-0.3855 12.77924,-1 0,-0.5556 2.66667,-1 6,-1 3.33333,0 6,-0.4444 6,-1 0,-0.55 1.8,-1 4,-1 2.2,0 4,-0.45 4,-1 0,-0.5714 3,-1 7,-1 4,0 7,-0.4286 7,-1 0,-0.55 1.8,-1 4,-1 2.2,0 4,-0.45 4,-1 0,-0.5833 3.33333,-1 8,-1 4.66667,0 8,-0.4167 8,-1 0,-0.55 1.35,-1 3,-1 1.65,0 3,-0.45 3,-1 0,-0.5714 3,-1 7,-1 4,0 7,-0.4286 7,-1 0,-0.55 0.70422,-1 1.56492,-1 0.86071,0 3.7565,-2.25 6.43508,-5 2.67858,-2.75 5.47503,-5 6.21432,-5 0.73929,0 1.99284,-0.9 2.78568,-2 0.79284,-1.1 2.24218,-2 3.22076,-2 0.97858,0 1.77924,-0.7071 1.77924,-1.5714 0,-1.9274 2.37651,-4.4286 4.20781,-4.4286 0.74287,0 1.99935,-0.9 2.79219,-2 0.79284,-1.1 2.14284,-2 3,-2 0.85716,0 2.20716,-0.9 3,-2 0.79284,-1.1 2.02196,-2 2.7314,-2 1.53812,0 24.2686,-22.5115 24.2686,-24.0348 0,-1.6136 4.70859,-5.9652 6.45455,-5.9652 0.87878,0 1.54545,-0.8627 1.54545,-2 0,-1.1 0.45,-2 1,-2 0.55,0 1,-0.6955 1,-1.5455 0,-2.0004 4.45408,-6.4545 6.45455,-6.4545 0.85,0 1.54545,-0.45 1.54545,-1 0,-0.55 0.9,-1 2,-1 1.1,0 2,-0.45 2,-1 0,-0.55 0.9,-1 2,-1 1.25062,0 2,-0.6667 2,-1.7792 0,-0.9786 0.9,-2.428 2,-3.2208 1.51994,-1.0955 2,-2.5887 2,-6.2208 0,-2.6285 0.45,-4.7792 1,-4.7792 0.55,0 1,-0.9 1,-2 0,-1.1 0.45,-2 1,-2 0.55,0 1,-0.9 1,-2 0,-1.1 0.45,-2 1,-2 0.55,0 1,-1.35 1,-3 0,-1.65 0.45,-3 1,-3 0.55,0 1,-0.9 1,-2 0,-1.1 0.45,-2 1,-2 0.59259,0 1,-3.6667 1,-9 0,-8.3333 -0.14815,-9 -2,-9 -1.1,0 -2,-0.45 -2,-1 0,-0.55 -0.9,-1 -2,-1 -1.1,0 -2,-0.45 -2,-1 0,-0.55 -0.9,-1 -2,-1 -1.1,0 -2,-0.45 -2,-1 0,-0.55 -0.80066,-1 -1.77924,-1 -0.97858,0 -2.42792,-0.9 -3.22076,-2 -0.79284,-1.1 -2.24218,-2 -3.22076,-2 -0.97858,0 -1.77924,-0.45 -1.77924,-1 0,-0.55 -0.71946,-1 -1.59879,-1 -0.87933,0 -2.85988,-1.35 -4.40121,-3 -1.54133,-1.65 -3.42253,-3 -4.18045,-3 -0.75792,0 -2.02671,-0.9 -2.81955,-2 -0.79284,-1.1 -2.06163,-2 -2.81955,-2 -0.75792,0 -2.63912,-1.35 -4.18045,-3 -1.54133,-1.65 -3.52188,-3 -4.40121,-3 -0.87933,0 -1.59879,-0.45 -1.59879,-1 0,-0.55 -0.9,-1 -2,-1 -1.1,0 -2,-0.45 -2,-1 0,-0.55 -0.80066,-1 -1.77924,-1 -0.97858,0 -2.42792,-0.9 -3.22076,-2 -0.84651,-1.1745 -2.58869,-2 -4.22076,-2 -1.52858,0 -2.77924,-0.45 -2.77924,-1 0,-0.55 -1.35,-1 -3,-1 -1.65,0 -3,-0.45 -3,-1 0,-0.55 -2.25,-1 -5,-1 -2.75,0 -5,-0.45 -5,-1 0,-0.55 -1.8,-1 -4,-1 -2.2,0 -4,-0.45 -4,-1 0,-0.55 -1.8,-1 -4,-1 -2.2,0 -4,-0.45 -4,-1 0,-0.5556 -2.66667,-1 -6,-1 -3.33333,0 -6,-0.4444 -6,-1 0,-0.55 -1.8,-1 -4,-1 -2.2,0 -4,-0.45 -4,-1 0,-0.55 -1.35,-1 -3,-1 -1.65,0 -3,-0.45 -3,-1 0,-0.55 -0.9,-1 -2,-1 -1.1,0 -2,-0.45 -2,-1 0,-0.55 -1.8,-1 -4,-1 -2.2,0 -4,-0.45 -4,-1 0,-0.55 -1.35,-1 -3,-1 -1.65,0 -3,-0.45 -3,-1 0,-0.55 -1.35,-1 -3,-1 -1.65,0 -3,-0.45 -3,-1 0,-0.55 -2.25,-1 -5,-1 -2.75,0 -5,-0.45 -5,-1 0,-0.55 -0.9,-1 -2,-1 -1.1,0 -2,-0.45 -2,-1 0,-0.55 -1.35,-1 -3,-1 -1.65,0 -3,-0.45 -3,-1 0,-0.55 -0.80066,-1 -1.77924,-1 -0.97858,0 -2.42792,-0.9 -3.22076,-2 -0.79284,-1.1 -2.06163,-2 -2.81955,-2 -0.75792,0 -2.63912,-1.35 -4.18045,-3 -1.54133,-1.65 -3.42253,-3 -4.18045,-3 -0.75792,0 -2.02671,-0.9 -2.81955,-2 -0.79284,-1.1 -2.04932,-2 -2.79219,-2 -2.16011,0 -4.20781,-2.6418 -4.20781,-5.4286 0,-2.4762 -0.22222,-2.5714 -6,-2.5714 -3.33333,0 -6,-0.4444 -6,-1 0,-0.55 -0.67979,-1 -1.51064,-1 C 176.51844,2232 154,2209.4816 154,2207.5106 c 0,-0.8308 -0.45,-1.5106 -1,-1.5106 -0.55,0 -1,-2.25 -1,-5 0,-2.75 -0.45,-5 -1,-5 -0.61905,0 -1,-5.3333 -1,-14 0,-8.6667 0.38095,-14 1,-14 0.64103,0 1,-9.3333 1,-26 0,-16.6667 0.35897,-26 1,-26 0.60606,0 1,-4.3333 1,-11 0,-6.6667 0.39394,-11 1,-11 0.58333,0 1,-3.3333 1,-8 0,-4.6667 0.41667,-8 1,-8 0.55399,0 1,-2.6389 1,-5.9167 0,-3.7555 0.45657,-6.1297 1.25,-6.5 1,-0.4666 1,-0.7 0,-1.1666 -1.48262,-0.6919 -1.69346,-4.4167 -0.25,-4.4167 0.58333,0 1,-3.3333 1,-8 0,-4.6667 0.41667,-8 1,-8 0.58333,0 1,-3.3333 1,-8 0,-4.6667 0.41667,-8 1,-8 0.61538,0 1,-5 1,-13 0,-8 0.38462,-13 1,-13 0.61538,0 1,-5 1,-13 0,-8 0.38462,-13 1,-13 0.60606,0 1,-4.3333 1,-11 0,-6.6667 0.39394,-11 1,-11 0.58333,0 1,-3.3333 1,-8 0,-4.6667 0.41667,-8 1,-8 0.60606,0 1,-4.3333 1,-11 0,-6.6667 0.39394,-11 1,-11 0.55,0 1,-0.9 1,-2 0,-1.1 -0.45,-2 -1,-2 -0.63636,0 -1,-8 -1,-22 0,-14 -0.36364,-22 -1,-22 -0.6,0 -1,-4 -1,-10 0,-6 0.4,-10 1,-10 0.61905,0 1,-5.3333 1,-14 0,-8.6667 0.38095,-14 1,-14 0.61111,0 1,-4.6667 1,-12 0,-7.3333 0.38889,-12 1,-12 0.55,0 1,-1.8 1,-4 0,-2.2 0.45,-4 1,-4 0.55,0 1,-0.9 1,-2 0,-1.1 0.45,-2 1,-2 0.55,0 1,-1.35 1,-3 0,-1.65 0.45,-3 1,-3 0.55,0 1,-1.35 1,-3 0,-1.65 -0.45,-3 -1,-3 -0.55556,0 -1,-2.6667 -1,-6 0,-5.3333 -0.22222,-6 -2,-6 -1.66667,0 -2,-0.6667 -2,-4 0,-2.2 -0.45,-4 -1,-4 -0.55,0 -1,-1.35 -1,-3 0,-1.65 -0.45,-3 -1,-3 -0.55,0 -1,-1.35 -1,-3 0,-1.65 -0.45,-3 -1,-3 -0.55,0 -1,-0.9 -1,-2 0,-1.1 -0.45,-2 -1,-2 -0.55,0 -1,-1.8 -1,-4 0,-2.2 -0.45,-4 -1,-4 -0.55,0 -1,-1.8 -1,-4 0,-2.2 -0.45,-4 -1,-4 -0.55,0 -1,-1.7007 -1,-3.7792 0,-2.6321 -0.60709,-4.2168 -2,-5.2208 -1.17447,-0.8465 -2,-2.5887 -2,-4.2208 0,-1.5285 -0.45,-2.7792 -1,-2.7792 -0.55,0 -1,-1.35 -1,-3 0,-1.65 -0.45,-3 -1,-3 -0.55,0 -1,-1.35 -1,-3 0,-1.65 -0.45,-3 -1,-3 -0.55,0 -1,-1.35 -1,-3 0,-1.65 -0.45,-3 -1,-3 -0.55,0 -1,-0.9 -1,-2 0,-1.1 -0.45,-2 -1,-2 -0.55,0 -1,-0.9 -1,-2 0,-1.1 -0.45,-2 -1,-2 -0.55,0 -1,-2.25 -1,-5 0,-2.75 -0.45,-5 -1,-5 -0.55,0 -1,-1.8 -1,-4 0,-2.2 -0.45,-4 -1,-4 -0.55,0 -1,-0.9 -1,-2 0,-1.1 -0.45,-2 -1,-2 -0.55,0 -1,-1.8 -1,-4 0,-2.2 -0.45,-4 -1,-4 -0.55,0 -1,-1.35 -1,-3 0,-1.65 -0.45,-3 -1,-3 -0.55,0 -1,-2.25 -1,-5 0,-2.75 -0.45,-5 -1,-5 -0.55,0 -1,-1.35 -1,-3 0,-1.65 -0.45,-3 -1,-3 -0.57143,0 -1,-3 -1,-7 0,-4 -0.42857,-7 -1,-7 -0.55,0 -1,-1.35 -1,-3 0,-1.65 -0.45,-3 -1,-3 -0.57143,0 -1,-3 -1,-7 0,-4 -0.42857,-7 -1,-7 -0.55,0 -1,-1.8 -1,-4 0,-2.2 -0.45,-4 -1,-4 -0.55556,0 -1,-2.6667 -1,-6 0,-3.3333 -0.44444,-6 -1,-6 -0.55556,0 -1,-2.6667 -1,-6 0,-3.3333 -0.44444,-6 -1,-6 -0.55,0 -1,-2.25 -1,-5 0,-2.75 -0.45,-5 -1,-5 -0.55556,0 -1,-2.6667 -1,-6 0,-3.3333 -0.44444,-6 -1,-6 -0.55,0 -1,-1.8 -1,-4 0,-2.2 -0.45,-4 -1,-4 -0.58333,0 -1,-3.3333 -1,-8 0,-4.6667 -0.41667,-8 -1,-8 -0.55,0 -1,-2.25 -1,-5 0,-2.75 -0.45,-5 -1,-5 -0.59259,0 -1,-3.6667 -1,-9 0,-5.3333 -0.40741,-9 -1,-9 -0.6,0 -1,-4 -1,-10 0,-6 -0.4,-10 -1,-10 -0.59259,0 -1,-3.6667 -1,-9 0,-5.3333 -0.40741,-9 -1,-9 -0.58333,0 -1,-3.3333 -1,-8 0,-4.6667 -0.41667,-8 -1,-8 -0.61111,0 -1,-4.6667 -1,-12 0,-7.3333 -0.38889,-12 -1,-12 -0.59259,0 -1,-3.6667 -1,-9 0,-5.3333 -0.40741,-9 -1,-9 -0.55,0 -1,-1.35 -1,-3 0,-1.65 -0.45,-3 -1,-3 -0.58333,0 -1,-3.3333 -1,-8 0,-4.6667 -0.41667,-8 -1,-8 -0.55556,0 -1,-2.6667 -1,-6 0,-3.3333 -0.44444,-6 -1,-6 -0.62963,0 -1,-6.6667 -1,-18 0,-11.3333 -0.37037,-18 -1,-18 -0.61538,0 -1,-5 -1,-13 0,-8 -0.38462,-13 -1,-13 -0.60606,0 -1,-4.3333 -1,-11 0,-6.6667 -0.39394,-11 -1,-11 -0.60606,0 -1,-4.3333 -1,-11 0,-6.6667 -0.39394,-11 -1,-11 -0.55,0 -1,-2.25 -1,-5 0,-4.3333 -0.26667,-5 -2,-5 -1.55556,0 -2,0.6667 -2,3 0,1.65 -0.45,3 -1,3 -0.55,0 -1,0.9 -1,2 0,1.1 -0.45,2 -1,2 -0.55,0 -1,0.9 -1,2 0,1.3333 -0.66667,2 -2,2 -1.1,0 -2,0.45 -2,1 0,0.55 -1.35,1 -3,1 -2.28986,0 -3,-0.4537 -3,-1.9167 0,-1.0541 -0.5625,-2.1791 -1.25,-2.5 -1,-0.4666 -1,-0.7 0,-1.1666 1.67106,-0.7799 1.58349,-3.2261 -0.17857,-4.9881 C 64.48893,1243.3461 64,1243.6449 64,1247 c 0,1.65 -0.45,3 -1,3 -0.55,0 -1,1.35 -1,3 0,2.6667 -0.33333,3 -3,3 -1.65,0 -3,0.45 -3,1 0,1.5176 -4.94793,1.1949 -6.57143,-0.4286 -0.78571,-0.7857 -1.42857,-3.0357 -1.42857,-5 0,-1.9643 -0.45,-3.5714 -1,-3.5714 -0.55,0 -1,-0.9 -1,-2 0,-1.1 0.45,-2 1,-2 0.55,0 1,-1.35 1,-3 0,-1.65 -0.25714,-3 -0.57143,-3 -1.35139,0 -3.42857,3.0292 -3.42857,5 0,1.1786 -0.64286,2.7857 -1.42857,3.5714 C 40.94792,1248.1949 36,1248.5176 36,1247 c 0,-0.55 -0.9,-1 -2,-1 -1.33333,0 -2,-0.6667 -2,-2 0,-1.3333 -0.66667,-2 -2,-2 -1.33333,0 -2,-0.6667 -2,-2 0,-1.1 -0.45,-2 -1,-2 -0.61111,0 -1,-4.6667 -1,-12 0,-7.3333 0.38889,-12 1,-12 0.55,0 1,-1.8 1,-4 0,-2.2 0.45,-4 1,-4 0.55,0 1,-1.8 1,-4 0,-2.2 0.45,-4 1,-4 0.55,0 1,-1.8 1,-4 0,-2.2 0.45,-4 1,-4 0.55556,0 1,-2.6667 1,-6 0,-3.3333 0.44444,-6 1,-6 0.55,0 1,-0.9 1,-2 0,-1.1 0.45,-2 1,-2 0.55,0 1,-1.35 1,-3 0,-1.65 0.45,-3 1,-3 0.55,0 1,-2.25 1,-5 0,-2.75 0.45,-5 1,-5 0.58333,0 1,-3.3333 1,-8 0,-4.6667 0.41667,-8 1,-8 0.55,0 1,-1.35 1,-3 0,-1.65 0.45,-3 1,-3 0.55,0 1,-2.25 1,-5 0,-2.75 0.45,-5 1,-5 0.55,0 1,-0.9 1,-2 0,-1.1 0.45,-2 1,-2 0.55,0 1,-1.35 1,-3 0,-1.65 0.45,-3 1,-3 0.625,0 1,-6 1,-16 0,-10 0.375,-16 1,-16 1.44346,0 1.23262,-3.7248 -0.25,-4.4167 -1,-0.4666 -1,-0.7 0,-1.1666 0.75141,-0.3507 1.25,-2.5445 1.25,-5.5 0,-2.7042 0.45,-4.9167 1,-4.9167 0.55,0 1,-1.5955 1,-3.5455 0,-4.1848 -3.65315,-8.4545 -7.23379,-8.4545 -1.27858,0 -2.97337,-0.9 -3.76621,-2 -0.79283,-1.1 -2.24218,-2 -3.22076,-2 C 40.66667,1052 40,1051.2506 40,1050 c 0,-1.1 -0.45,-2 -1,-2 -0.55556,0 -1,-2.6667 -1,-6 0,-3.3333 0.44444,-6 1,-6 0.55,0 1,-0.6955 1,-1.5455 0,-1.8898 4.40854,-6.4545 6.23379,-6.4545 0.72858,0 1.97337,-0.9 2.76621,-2 1.09551,-1.5199 2.58869,-2 6.22076,-2 4.11257,0 4.77924,-0.279 4.77924,-2 0,-1.1 0.45,-2 1,-2 0.59259,0 1,-3.6667 1,-9 0,-5.3333 0.40741,-9 1,-9 0.55,0 1,-1.35 1,-3 0,-1.65 0.45,-3 1,-3 0.55,0 1,-1.8 1,-4 0,-2.2 -0.25714,-4 -0.57143,-4 C 64.33519,988 62,990.8659 62,992.2078 c 0,0.7429 -0.9,1.9994 -2,2.7922 -1.17447,0.8465 -2,2.5887 -2,4.2208 C 58,1001.741 57.66712,1002 54.42857,1002 50.87254,1002 48,1000.2004 48,997.9726 48,997.329 46.65,995.5413 45,994 c -1.70666,-1.5943 -3,-3.8276 -3,-5.1805 0,-1.3079 -0.9,-3.0267 -2,-3.8195 -1.1,-0.7928 -2,-2.1428 -2,-3 0,-0.8572 -0.9,-2.2072 -2,-3 -1.10324,-0.7952 -2,-2.5887 -2,-4 0,-1.4113 -0.89676,-3.2048 -2,-4 -1.1,-0.7928 -2,-2.2422 -2,-3.2208 C 30,966.8007 29.55,966 29,966 c -0.55,0 -1,-0.9 -1,-2 0,-1.1 -0.45,-2 -1,-2 -0.55,0 -1,-0.9 -1,-2 0,-1.1 -0.45,-2 -1,-2 -0.57143,0 -1,-3 -1,-7 0,-4 -0.42857,-7 -1,-7 -0.57143,0 -1,-3 -1,-7 0,-4 -0.42857,-7 -1,-7 -0.55,0 -1,-1.35 -1,-3 0,-1.65 -0.45,-3 -1,-3 -0.57143,0 -1,-3 -1,-7 0,-4 -0.42857,-7 -1,-7 -0.55,0 -1,-1.8 -1,-4 0,-2.2 -0.45,-4 -1,-4 -0.55,0 -1,-1.35 -1,-3 0,-1.65 -0.45,-3 -1,-3 -0.55,0 -1,-2.25 -1,-5 0,-2.75 -0.45,-5 -1,-5 -0.57143,0 -1,-3 -1,-7 0,-4 -0.42857,-7 -1,-7 -0.55556,0 -1,-2.66667 -1,-6 0,-3.33333 -0.44444,-6 -1,-6 C 6.38889,860 6,855.33333 6,848 6,840.66667 5.61111,836 5,836 4.3944,836 4,831.69444 4,825.08333 4,817.28717 3.64269,814.02168 2.75,813.65946 1.80624,813.27652 1.86749,812.86996 3,812 4.13251,811.13004 4.19376,810.72348 3.25,810.34054 2.5625,810.06157 2,808.52083 2,806.91667 2,805.3125 1.55,804 1,804 c -0.60606,0 -1,-4.33333 -1,-11 0,-6.66667 0.39394,-11 1,-11 0.55,0 1,-1.8 1,-4 0,-2.2 0.45,-4 1,-4 0.55,0 1,-2.25 1,-5 0,-2.75 0.45,-5 1,-5 0.55556,0 1,-2.66667 1,-6 0,-3.33333 0.44444,-6 1,-6 0.55,0 1,-1.35 1,-3 0,-1.65 0.45,-3 1,-3 0.55,0 1,-0.9 1,-2 0,-1.1 0.45,-2 1,-2 0.55,0 1,-0.9 1,-2 0,-1.1 0.45,-2 1,-2 0.55,0 1,-1.8 1,-4 0,-2.2 0.45,-4 1,-4 0.55,0 1,-1.35 1,-3 0,-1.65 0.45,-3 1,-3 0.55,0 1,-1.8 1,-4 0,-2.2 0.45,-4 1,-4 0.55,0 1,-0.9 1,-2 0,-1.1 0.45,-2 1,-2 0.55,0 1,-1.35 1,-3 0,-1.65 0.45,-3 1,-3 0.55,0 1,-0.80066 1,-1.77924 0,-0.97858 0.9,-2.42792 2,-3.22076 1.1,-0.79284 2,-2.24218 2,-3.22076 C 28,696.80066 28.45,696 29,696 c 0.55,0 1,-0.9 1,-2 0,-1.1 0.45,-2 1,-2 0.55,0 1,-1.35 1,-3 0,-1.65 0.45,-3 1,-3 0.55,0 1,-1.8 1,-4 0,-2.2 0.45,-4 1,-4 0.55,0 1,-1.14 1,-2.53333 C 36,672.77623 41.90242,666 44.24591,666 c 0.72191,0 1.96126,-0.9 2.75409,-2 1.00395,-1.39291 2.58869,-2 5.22076,-2 C 54.96282,662 56,661.57586 56,660.45455 56,658.45408 60.45408,654 62.45454,654 63.30455,654 64,653.55 64,653 c 0,-0.55 0.80066,-1 1.77924,-1 0.97858,0 2.42793,-0.9 3.22076,-2 0.97681,-1.35525 2.58869,-2 5,-2 2.41131,0 4.02319,-0.64475 5,-2 0.79284,-1.1 2.24218,-2 3.22076,-2 C 83.19934,644 84,643.55 84,643 c 0,-0.55 0.9,-1 2,-1 1.1,0 2,-0.45 2,-1 0,-0.55 0.80066,-1 1.77924,-1 0.97858,0 2.42792,-0.9 3.22076,-2 0.79284,-1.1 2.24218,-2 3.22076,-2 C 97.33333,636 98,635.25062 98,634 c 0,-1.1 0.45,-2 1,-2 0.55,0 1,-0.9 1,-2 0,-1.1 0.45,-2 1,-2 0.55,0 1,-2.05714 1,-4.57143 C 102,618.75745 100.38707,616 97.65476,616 c -0.81845,0 -1.75059,-0.5625 -2.07143,-1.25 -0.46666,-1 -0.7,-1 -1.16666,0 -0.32084,0.6875 -1.89584,1.25 -3.5,1.25 C 89.3125,616 88,616.45 88,617 c 0,0.55 -0.9,1 -2,1 -1.1,0 -2,0.45 -2,1 0,0.57143 -3,1 -7,1 l -7,0 0,-6 c 0,-3.33333 0.44444,-6 1,-6 0.55,0 1,-1.8 1,-4 0,-2.2 0.45,-4 1,-4 0.55,0 1,-0.9 1,-2 0,-1.1 0.45,-2 1,-2 0.55,0 1,-0.80066 1,-1.77924 0,-0.97858 0.9,-2.42792 2,-3.22076 1.70507,-1.22894 2,-2.58869 2,-9.22076 C 80,577.25975 80.41903,574 81,574 c 0.55,0 1,-0.9 1,-2 0,-1.1 0.45,-2 1,-2 0.55,0 1,-0.68684 1,-1.52632 C 84,566.61325 92.43171,558 94.25292,558 c 0.71806,0 1.95424,-0.9 2.74708,-2 0.84651,-1.17447 2.58869,-2 4.22076,-2 1.52858,0 2.77924,-0.45 2.77924,-1 0,-0.55 0.9,-1 2,-1 1.1,0 2,-0.45 2,-1 0,-0.62222 5.66667,-1 15,-1 9.33333,0 15,0.37778 15,1 0,0.55 1.8,1 4,1 2.2,0 4,0.45 4,1 0,0.55 0.9,1 2,1 1.1,0 2,0.45 2,1 0,0.55 0.69545,1 1.54545,1 1.77949,0 6.45455,4.36464 6.45455,6.02597 0,1.43701 2.52928,3.97403 3.9619,3.97403 2.04495,0 8.0381,6.89369 8.0381,9.24591 0,1.27191 0.9,2.96125 2,3.75409 1.39291,1.00395 2,2.58869 2,5.22076 0,2.07858 0.45,3.77924 1,3.77924 0.61111,0 1,4.66667 1,12 0,7.33333 0.38889,12 1,12 0.55,0 1,1.8 1,4 0,2.2 0.45,4 1,4 0.55,0 1,0.71946 1,1.59879 0,0.87933 1.35,2.85988 3,4.40121 1.65,1.54133 3,3.52188 3,4.40121 0,0.87933 0.70714,1.59879 1.57143,1.59879 2.02104,0 4.42857,2.40753 4.42857,4.42857 0,0.86429 0.68478,1.57143 1.52174,1.57143 1.70752,0 12.47826,10.36924 12.47826,12.0131 0,0.58112 4.5,5.52523 10,10.9869 5.5,5.46167 10,10.52165 10,11.2444 0,0.72274 0.9,1.96276 2,2.7556 1.1,0.79284 2,2.24218 2,3.22076 0,0.97858 0.45,1.77924 1,1.77924 0.55,0 1,1.35 1,3 0,1.65 0.45,3 1,3 0.55,0 1,1.16946 1,2.59879 0,1.59812 1.15516,3.67787 3,5.40121 1.84484,1.72334 3,3.80309 3,5.40121 0,1.42933 0.45,2.59879 1,2.59879 0.55,0 1,0.9 1,2 0,1.1 0.45,2 1,2 0.55,0 1,1.35 1,3 0,1.65 0.45,3 1,3 0.55,0 1,0.80066 1,1.77924 0,0.97858 0.9,2.42792 2,3.22076 1.17447,0.84651 2,2.58869 2,4.22076 0,1.52858 0.45,2.77924 1,2.77924 0.55,0 1,0.9 1,2 0,1.1 0.45,2 1,2 0.55556,0 1,2.66667 1,6 0,3.33333 0.44444,6 1,6 0.55,0 1,2.25 1,5 0,2.75 0.45,5 1,5 0.58333,0 1,3.33333 1,8 0,4.66667 0.41667,8 1,8 0.55556,0 1,2.66667 1,6 0,3.33333 0.44444,6 1,6 0.625,0 1,6 1,16 0,10 -0.375,16 -1,16 -0.59259,0 -1,3.66667 -1,9 0,5.33333 -0.40741,9 -1,9 -0.55,0 -1,1.8 -1,4 0,2.2 -0.45,4 -1,4 -0.55,0 -1,2.25 -1,5 0,2.75 -0.45,5 -1,5 -0.55,0 -1,2.25 -1,5 0,2.75 -0.45,5 -1,5 -0.55,0 -1,2.25 -1,5 0,2.75 -0.45,5 -1,5 -0.55,0 -1,0.9 -1,2 0,1.1 -0.45,2 -1,2 -0.55,0 -1,0.9 -1,2 0,1.1 -0.45,2 -1,2 -0.55,0 -1,0.9 -1,2 0,1.1 -0.45,2 -1,2 -0.55,0 -1,0.9 -1,2 0,1.1 -0.45,2 -1,2 -0.55,0 -1,0.9 -1,2 0,1.1 -0.45,2 -1,2 -0.55,0 -1,0.80066 -1,1.77924 0,0.97858 -0.9,2.42792 -2,3.22076 -1.1,0.79284 -2,2.05246 -2,2.79916 0,0.7467 -1.8,3.08708 -4,5.20084 -2.2,2.11376 -4,4.55348 -4,5.4216 0,0.86812 -0.45,1.5784 -1,1.5784 -0.55,0 -1,0.80066 -1,1.77924 0,0.97858 -0.9,2.42792 -2,3.22076 -1.1,0.79284 -2,2.24218 -2,3.22076 0,0.97858 -0.45,1.77924 -1,1.77924 -0.55,0 -1,0.69672 -1,1.54827 0,0.85155 -3.15,4.65483 -7,8.45173 -5.02931,4.95995 -7,7.62086 -7,9.45173 0,1.40155 -0.45,2.54827 -1,2.54827 -0.55,0 -1,1.35 -1,3 0,1.65 -0.45,3 -1,3 -0.55,0 -1,0.9 -1,2 0,1.1 -0.45,2 -1,2 -0.55556,0 -1,2.66667 -1,6 0,3.33333 -0.44444,6 -1,6 -0.55,0 -1,1.8 -1,4 0,2.2 -0.45,4 -1,4 -0.55,0 -1,2.1507 -1,4.7792 0,3.6321 -0.48006,5.1253 -2,6.2208 -1.17447,0.8465 -2,2.5887 -2,4.2208 0,1.5285 -0.45,2.7792 -1,2.7792 -0.55,0 -1,2.25 -1,5 0,2.75 -0.45,5 -1,5 -0.55,0 -1,0.9 -1,2 0,1.8095 -0.66667,2 -7,2 -4,0 -7,-0.4286 -7,-1 0,-0.55 -0.8625,-1 -1.91667,-1 -1.05416,0 -2.17916,-0.5625 -2.5,-1.25 -0.46666,-1 -0.7,-1 -1.16666,0 C 167.72478,998.2326 164,998.4435 164,997 c 0,-0.55 -1.8,-1 -4,-1 -3.33333,0 -4,0.3333 -4,2 0,1.1 -0.45,2 -1,2 -0.55,0 -1,1.8 -1,4 0,3.3333 -0.33333,4 -2,4 -1.30435,0 -2,0.6667 -2,1.9167 0,1.0541 -0.5625,2.1791 -1.25,2.5 -1,0.4666 -1,0.7 0,1.1666 0.6875,0.3209 1.25,1.8959 1.25,3.5 0,1.6042 0.45,2.9167 1,2.9167 0.55,0 1,1.8 1,4 0,2.2 0.45,4 1,4 0.55,0 1,-1.1571 1,-2.5714 0,-3.2805 2.14811,-5.4286 5.42857,-5.4286 1.41429,0 2.57143,-0.45 2.57143,-1 0,-0.55 1.61028,-1 3.5784,-1 2.8676,0 4.3418,0.7945 7.4216,4 3.62471,3.7726 7,5.2191 7,3 0,-0.55 -0.45,-1 -1,-1 -0.55,0 -1,-0.45 -1,-1 0,-0.55 0.9,-1 2,-1 1.1,0 2,-0.45 2,-1 0,-0.55 1.35,-1 3,-1 1.65,0 3,-0.45 3,-1 0,-0.55 0.80066,-1 1.77924,-1 0.97858,0 2.42792,-0.9 3.22076,-2 0.79284,-1.1 2.24218,-2 3.22076,-2 0.97858,0 1.77924,-0.45 1.77924,-1 0,-0.55 0.80066,-1 1.77924,-1 0.97858,0 2.42792,-0.9 3.22076,-2 0.84651,-1.1745 2.58869,-2 4.22076,-2 1.52858,0 2.77924,-0.45 2.77924,-1 0,-0.5556 2.66667,-1 6,-1 3.33333,0 6,-0.4444 6,-1 0,-0.55 1.35,-1 3,-1 1.65,0 3,-0.45 3,-1 0,-0.5714 3,-1 7,-1 4,0 7,-0.4286 7,-1 0,-0.5556 2.66667,-1 6,-1 3.33333,0 6,-0.4444 6,-1 0,-0.55 0.80066,-1 1.77924,-1 0.97858,0 2.42792,-0.9 3.22076,-2 0.79517,-1.1032 2.58869,-2 4,-2 1.41131,0 3.20483,-0.8968 4,-2 0.79284,-1.1 2.49932,-2 3.79219,-2 2.75589,0 6.42423,-3.0945 4.44888,-3.753 C 273.76763,985.7559 273.55443,982 275,982 c 0.55,0 1,-1.8 1,-4 0,-2.2 0.45,-4 1,-4 0.55,0 1,-1.8 1,-4 0,-2.2 0.45,-4 1,-4 0.55,0 1,-1.8 1,-4 0,-2.2 0.45,-4 1,-4 0.55,0 1,-1.8 1,-4 0,-2.2 0.45,-4 1,-4 0.55,0 1,-2.25 1,-5 0,-2.75 0.45,-5 1,-5 0.55,0 1,-0.9 1,-2 0,-1.1 0.45,-2 1,-2 0.55,0 1,-1.35 1,-3 0,-1.65 0.45,-3 1,-3 0.55,0 1,-1.35 1,-3 0,-1.65 0.45,-3 1,-3 0.55,0 1,-1.8 1,-4 0,-2.2 0.45,-4 1,-4 0.55,0 1,-1.35 1,-3 0,-1.65 0.45,-3 1,-3 0.55,0 1,-1.8 1,-4 0,-2.2 0.45,-4 1,-4 0.55,0 1,-0.9 1,-2 0,-1.1 0.45,-2 1,-2 0.55,0 1,-1.8 1,-4 0,-2.2 0.45,-4 1,-4 0.55,0 1,-1.8 1,-4 0,-2.2 0.45,-4 1,-4 0.55,0 1,-1.8 1,-4 0,-2.2 0.45,-4 1,-4 1.52934,0 1.29028,-15.69787 -0.25,-16.41667 -1,-0.46666 -1,-0.7 0,-1.16666 0.74713,-0.34866 1.25,-2.52778 1.25,-5.41667 0,-2.92949 0.49237,-5.03312 1.25,-5.34054 0.94376,-0.38294 0.88251,-0.7895 -0.25,-1.65946 -1.13251,-0.86996 -1.19376,-1.27652 -0.25,-1.65946 0.80201,-0.32543 1.25,-2.62771 1.25,-6.42387 0,-3.27778 0.44601,-5.91667 1,-5.91667 0.55556,0 1,-2.66667 1,-6 0,-3.33333 0.44444,-6 1,-6 0.55,0 1,-1.35 1,-3 0,-1.65 0.45,-3 1,-3 0.55,0 1,-1.8 1,-4 0,-2.2 0.45,-4 1,-4 0.55556,0 1,-2.66667 1,-6 0,-3.33333 0.44444,-6 1,-6 0.55,0 1,-1.8 1,-4 0,-2.2 0.45,-4 1,-4 0.55,0 1,-1.35 1,-3 0,-1.65 0.45,-3 1,-3 0.55,0 1,-1.8 1,-4 0,-2.2 0.45,-4 1,-4 0.59259,0 1,-3.66667 1,-9 0,-5.33333 0.40741,-9 1,-9 0.55,0 1,-0.9 1,-2 0,-1.1 0.45,-2 1,-2 0.57143,0 1,-3 1,-7 0,-4 0.42857,-7 1,-7 0.55,0 1,-1.35 1,-3 0,-1.65 0.45,-3 1,-3 0.55,0 1,-1.8 1,-4 0,-2.2 0.45,-4 1,-4 0.55,0 1,-1.35 1,-3 0,-1.65 0.45,-3 1,-3 0.55,0 1,-1.8 1,-4 0,-2.2 0.45,-4 1,-4 0.55,0 1,-1.35 1,-3 0,-1.65 0.45,-3 1,-3 0.58333,0 1,-3.33333 1,-8 0,-4.66667 0.41667,-8 1,-8 0.55,0 1,-1.8 1,-4 0,-2.2 0.45,-4 1,-4 0.55,0 1,-1.35 1,-3 0,-1.65 0.45,-3 1,-3 0.55,0 1,-1.35 1,-3 0,-1.65 0.45,-3 1,-3 0.55,0 1,-0.9 1,-2 0,-1.1 0.45,-2 1,-2 0.55,0 1,-0.9 1,-2 0,-1.1 0.45,-2 1,-2 0.55,0 1,-0.9 1,-2 0,-1.1 0.45,-2 1,-2 0.55,0 1,-0.71028 1,-1.5784 0,-0.86812 1.8,-3.30784 4,-5.4216 2.2,-2.11376 4,-4.55348 4,-5.4216 0,-0.86812 0.45,-1.5784 1,-1.5784 0.55,0 1,-0.80066 1,-1.77924 0,-0.97858 0.9,-2.42792 2,-3.22076 1.1,-0.79284 2,-2.06163 2,-2.81955 0,-0.75792 1.35,-2.63912 3,-4.18045 1.65,-1.54133 3,-3.34133 3,-4 0,-0.65867 1.35,-2.45867 3,-4 1.65,-1.54133 3,-3.52188 3,-4.40121 0,-0.87933 0.80066,-1.59879 1.77924,-1.59879 0.97858,0 2.42792,-0.9 3.22076,-2 0.79284,-1.1 2.02099,-2 2.72923,-2 C 389.29737,608 418,579.46848 418,577.90968 c 0,-0.60899 1.35,-2.36835 3,-3.90968 1.65,-1.54133 3,-3.30872 3,-3.92753 C 424,568.38409 432.71804,560 434.47368,560 435.31316,560 436,559.55 436,559 c 0,-0.55 0.80066,-1 1.77924,-1 0.97858,0 2.42792,-0.9 3.22076,-2 0.79284,-1.1 2.24218,-2 3.22076,-2 0.97858,0 1.77924,-0.45 1.77924,-1 0,-0.55 0.69545,-1 1.54545,-1 1.43948,0 6.45455,-4.23808 6.45455,-5.45455 0,-0.3 -0.9,-0.54545 -2,-0.54545 -1.6472,0 -2,-0.66667 -2,-3.77924 0,-2.63207 -0.60709,-4.21681 -2,-5.22076 -1.17447,-0.84651 -2,-2.58869 -2,-4.22076 C 446,530.66667 445.52025,530 444,530 c -1.72102,0 -2,-0.66667 -2,-4.77924 0,-3.63207 -0.48006,-5.12525 -2,-6.22076 -1.1,-0.79284 -2,-2.04932 -2,-2.79219 C 438,513.81075 435.23359,512 431.57143,512 429.60714,512 428,512.45 428,513 c 0,0.55 -0.71946,1 -1.59879,1 -0.87933,0 -2.85988,1.35 -4.40121,3 -1.54133,1.65 -3.52188,3 -4.40121,3 -0.87933,0 -1.59879,0.45 -1.59879,1 0,0.55 -0.9,1 -2,1 -1.15152,0 -2,0.66667 -2,1.57143 0,0.86428 -0.64286,2.21428 -1.42857,3 C 408.94793,528.19493 404,528.51762 404,527 c 0,-0.56481 -2.84848,-1 -6.54545,-1 -5.61617,0 -6.89394,0.34848 -9,2.45455 -1.35,1.35 -2.45455,3.15 -2.45455,4 0,0.85 -0.80066,1.54545 -1.77924,1.54545 -0.97858,0 -2.42792,0.9 -3.22076,2 -0.79284,1.1 -2.24218,2 -3.22076,2 -0.97858,0 -1.77924,0.45 -1.77924,1 0,0.55 -1.35,1 -3,1 -1.65,0 -3,-0.45 -3,-1 0,-0.55 -1.8,-1 -4,-1 -2.2,0 -4,0.45 -4,1 0,1.53445 -6.95621,1.18664 -8.57143,-0.42857 C 352.64286,537.78571 352,536.43571 352,535.57143 352,534.70714 351.55,534 351,534 c -0.55,0 -1,-0.9 -1,-2 0,-1.1 -0.45,-2 -1,-2 -0.55,0 -1,-1.35 -1,-3 0,-1.65 -0.45,-3 -1,-3 -0.58333,0 -1,-3.33333 -1,-8 0,-4.66667 0.41667,-8 1,-8 0.55,0 1,-1.35 1,-3 0,-1.65 0.45,-3 1,-3 0.55,0 1,-1.25066 1,-2.77924 0,-1.63207 0.82553,-3.37425 2,-4.22076 1.1,-0.79284 2,-2.24218 2,-3.22076 0,-0.97858 0.45,-1.77924 1,-1.77924 0.55,0 1,-0.9 1,-2 0,-1.1 0.45,-2 1,-2 0.55,0 1,-0.9 1,-2 0,-1.1 0.45,-2 1,-2 0.55,0 1,-0.9 1,-2 0,-1.1 0.45,-2 1,-2 0.55,0 1,-1.35 1,-3 0,-1.65 0.45,-3 1,-3 0.55,0 1,-1.8 1,-4 0,-2.2 -0.45,-4 -1,-4 -0.55556,0 -1,-2.66667 -1,-6 0,-3.33333 0.44444,-6 1,-6 0.55,0 1,-0.9 1,-2 0,-1.1 0.45,-2 1,-2 0.57028,0 1,-2.97222 1,-6.91667 0,-4.61734 0.41251,-7.05417 1.24088,-7.33029 0.72839,-0.2428 -0.92367,-2.52197 -4,-5.51841 C 359.60872,424.69679 358,422.34253 358,420.56492 358,419.15422 358.45,418 359,418 c 0.55,0 1,-1.35 1,-3 0,-1.65 -0.45,-3 -1,-3 -0.55,0 -1,-1.35 -1,-3 0,-1.65 0.45,-3 1,-3 0.55,0 1,-0.80066 1,-1.77924 0,-0.97858 0.9,-2.42792 2,-3.22076 3.21275,-2.31562 2.43732,-5.61532 -2.47368,-10.52632 C 357.06579,388.01316 354.36579,386 353.52632,386 352.32749,386 352,384.71264 352,380 c 0,-3.33333 0.44444,-6 1,-6 0.55,0 1,-1.70066 1,-3.77924 0,-2.63207 0.60709,-4.21681 2,-5.22076 1.1,-0.79284 2,-2.24218 2,-3.22076 0,-0.97858 0.45,-1.77924 1,-1.77924 0.55,0 1,-0.80066 1,-1.77924 0,-0.97858 0.9,-2.42792 2,-3.22076 1.17447,-0.84651 2,-2.58869 2,-4.22076 0,-1.52858 0.45,-2.77924 1,-2.77924 0.55,0 1,-0.9 1,-2 0,-1.1 0.45,-2 1,-2 0.55,0 1,-0.80066 1,-1.77924 0,-0.97858 0.9,-2.42792 2,-3.22076 1.1,-0.79284 2,-2.07689 2,-2.85346 0,-0.77657 1.0125,-2.31282 2.25,-3.41388 1.52621,-1.35793 1.84789,-2.14627 1,-2.45063 -0.6875,-0.24678 -1.25,-1.7612 -1.25,-3.36536 C 374,325.3125 373.55,324 373,324 c -0.55,0 -1,-0.9 -1,-2 0,-1.1 -0.45,-2 -1,-2 -0.6,0 -1,-4 -1,-10 0,-6 0.4,-10 1,-10 0.55,0 1,-0.9 1,-2 0,-1.1 0.45,-2 1,-2 0.55,0 1,-1.25066 1,-2.77924 0,-1.63207 0.82553,-3.37425 2,-4.22076 1.1,-0.79284 2,-2.24218 2,-3.22076 0,-0.97858 0.45,-1.77924 1,-1.77924 1.45695,0 1.22743,-7.7272 -0.25,-8.41667 -1,-0.46666 -1,-0.7 0,-1.16666 0.75141,-0.35066 1.25,-2.54445 1.25,-5.5 0,-2.70417 0.45,-4.91667 1,-4.91667 0.62222,0 1,-5.66667 1,-15 0,-9.33333 0.37778,-15 1,-15 0.55,0 1,-1.35 1,-3 0,-1.65 0.45,-3 1,-3 0.55,0 1,-0.9 1,-2 0,-1.1 0.45,-2 1,-2 0.55,0 1,-0.69228 1,-1.53841 0,-0.84612 4.05,-5.55384 9,-10.46159 4.95,-4.90775 9,-9.61547 9,-10.46159 0,-0.87174 0.8667,-1.53841 2,-1.53841 1.25062,0 2,-0.66667 2,-1.77924 0,-0.97858 0.9,-2.42792 2,-3.22076 1.1,-0.79284 2,-2.06163 2,-2.81955 0,-0.75792 1.35,-2.63912 3,-4.18045 1.65,-1.54133 3,-3.42253 3,-4.18045 0,-0.75792 0.9,-2.02671 2,-2.81955 1.1,-0.79284 2,-2.24218 2,-3.22076 0,-0.97858 0.45,-1.77924 1,-1.77924 0.55,0 1,-0.71028 1,-1.5784 0,-0.86812 1.8,-3.30784 4,-5.4216 2.26504,-2.17625 4,-4.78753 4,-6.02039 0,-1.19745 1.35,-3.43828 3,-4.97961 1.65,-1.54133 3,-3.31733 3,-3.94666 C 440,152.37048 444.66015,148 446.45455,148 447.33333,148 448,147.13725 448,146 c 0,-1.25062 0.66667,-2 1.77924,-2 0.97858,0 2.42792,-0.9 3.22076,-2 0.79284,-1.1 2.24218,-2 3.22076,-2 0.97858,0 1.77924,-0.45 1.77924,-1 0,-0.55 0.9,-1 2,-1 1.1,0 2,-0.45 2,-1 0,-0.55 0.70714,-1 1.57143,-1 C 465.37272,136 468,133.66304 468,132.06079 468,130.38532 490.78405,108 492.48936,108 493.32021,108 494,107.55 494,107 c 0,-0.55 0.70714,-1 1.57143,-1 1.83447,0 4.42857,-2.34714 4.42857,-4.00697 0,-0.63241 1.8,-2.87927 4,-4.99303 2.2,-2.11376 4,-4.36062 4,-4.99303 C 508,90.34714 510.5941,88 512.42857,88 513.29286,88 514,87.28054 514,86.40121 c 0,-0.87933 1.35,-2.85988 3,-4.40121 1.65,-1.54133 3,-3.31733 3,-3.94666 C 520,76.57922 524.56379,72 526.03295,72 c 0.61812,0 2.85329,-1.8 4.96705,-4 2.11376,-2.2 4.36376,-4 5,-4 0.63624,0 2.88624,-1.8 5,-4 2.11376,-2.2 4.55348,-4 5.4216,-4 0.86812,0 1.5784,-0.45 1.5784,-1 0,-0.55 0.80066,-1 1.77924,-1 0.97858,0 2.42792,-0.9 3.22076,-2 0.79284,-1.1 2.24218,-2 3.22076,-2 C 557.19934,50 558,49.55 558,49 c 0,-0.55 0.9,-1 2,-1 1.1,0 2,-0.45 2,-1 0,-0.55 0.9,-1 2,-1 1.1,0 2,-0.45 2,-1 0,-0.55 0.9,-1 2,-1 1.1,0 2,-0.45 2,-1 0,-0.55 1.35,-1 3,-1 1.65,0 3,-0.45 3,-1 0,-0.555556 2.6667,-1 6,-1 3.3333,0 6,-0.444444 6,-1 0,-0.55 1.35,-1 3,-1 1.65,0 3,-0.45 3,-1 0,-0.55 1.8,-1 4,-1 2.2,0 4,-0.45 4,-1 0,-0.55 1.8,-1 4,-1 2.2,0 4,0.45 4,1 0,0.55 1.7007,1 3.7792,1 2.6321,0 4.2169,-0.607092 5.2208,-2 1.2532,-1.738662 2.5887,-2 10.2208,-2 5.1861,0 8.7792,0.40927 8.7792,1 0,0.55 0.9,1 2,1 1.1,0 2,-0.45 2,-1 0,-0.55 1.8,-1 4,-1 2.2,0 4,-0.45 4,-1 0,-0.55 1.8,-1 4,-1 2.2,0 4,-0.45 4,-1 0,-0.555556 2.6667,-1 6,-1 3.3333,0 6,-0.444444 6,-1 0,-0.55 0.9,-1 2,-1 1.1,0 2,-0.45 2,-1 0,-0.55 1.35,-1 3,-1 1.65,0 3,-0.45 3,-1 0,-0.55 1.35,-1 3,-1 1.65,0 3,-0.45 3,-1 0,-0.55 1.35,-1 3,-1 1.65,0 3,-0.45 3,-1 0,-0.55 1.35,-1 3,-1 1.65,0 3,-0.45 3,-1 0,-0.55 2.25,-1 5,-1 2.75,0 5,-0.45 5,-1 0,-0.55 1.35,-1 3,-1 1.65,0 3,-0.45 3,-1 0,-0.55 1.2507,-1 2.7792,-1 1.6321,0 3.3743,-0.82553 4.2208,-2 0.7928,-1.1 2.2422,-2 3.2208,-2 C 725.1993,8 726,7.55 726,7 c 0,-0.62963 6.6667,-1 18,-1 11.3333,0 18,-0.37037 18,-1 0,-0.592593 3.6667,-1 9,-1 5.3333,0 9,-0.407407 9,-1 0,-0.606061 4.3333,-1 11,-1 6.6667,0 11,-0.393939 11,-1 0,-0.55 1.7007,-1 3.7792,-1 2.6321,0 4.2169,0.607092 5.2208,2 0.7928,1.1 2.0493,2 2.7922,2 C 815.6235,4 818,6.501187 818,8.428571 818,9.292857 818.45,10 819,10 c 0.55,0 1,0.9 1,2 0,1.1 -0.45,2 -1,2 -0.55,0 -1,0.9 -1,2 0,1.1 0.45,2 1,2 0.6,0 1,4 1,10 0,6 -0.4,10 -1,10 -0.55,0 -1,1.61028 -1,3.578401 0,2.867601 -0.7945,4.341798 -4,7.421599 -2.2,2.113759 -4,4.553479 -4,5.421599 C 810,55.28972 809.55,56 809,56 c -0.55,0 -1,0.9 -1,2 0,1.1 -0.45,2 -1,2 -0.55,0 -1,0.71946 -1,1.59879 0,0.87933 -1.35,2.85988 -3,4.40121 -1.8448,1.72334 -3,3.80309 -3,5.40121 C 800,72.83054 799.55,74 799,74 c -0.55,0 -1,1.35 -1,3 0,1.65 -0.45,3 -1,3 -0.55,0 -1,1.35 -1,3 0,2.02899 -0.4963,3 -1.5333,3 -1.7584,0 -8.4667,6.37426 -8.4667,8.04507 0,0.61145 -1.8,2.84117 -4,4.95493 -2.2,2.11376 -4,4.45414 -4,5.20084 0,0.7467 -0.9,2.00632 -2,2.79916 -1.1,0.79284 -2,2.24218 -2,3.22076 0,0.97858 -0.45,1.77924 -1,1.77924 -0.55,0 -1,0.80066 -1,1.77924 0,0.97858 -0.9,2.42792 -2,3.22076 -1.5199,1.09551 -2,2.58869 -2,6.22076 0,2.62858 -0.45,4.77924 -1,4.77924 -0.55,0 -1,0.9 -1,2 0,1.1 -0.45,2 -1,2 -0.55,0 -1,0.71946 -1,1.59879 0,0.87933 -1.35,2.85988 -3,4.40121 -1.65,1.54133 -3,3.52188 -3,4.40121 0,0.87933 -0.45,1.59879 -1,1.59879 -0.55,0 -1,0.71028 -1,1.5784 0,0.86812 -1.8,3.30784 -4,5.4216 -2.2,2.11376 -4,4.45414 -4,5.20084 0,0.7467 -0.9,2.00632 -2,2.79916 -1.1,0.79284 -2,2.03218 -2,2.75409 0,1.57562 -6.4812,8.24591 -8.0121,8.24591 -2.0416,0 -5.9879,4.91296 -5.9879,7.45455 0,1.4 -0.45,2.54545 -1,2.54545 -0.55,0 -1,0.9 -1,2 0,1.1 -0.45,2 -1,2 -0.55,0 -1,0.9 -1,2 0,1.1 -0.45,2 -1,2 -0.55,0 -1,1.25066 -1,2.77924 0,1.63207 -0.8255,3.37425 -2,4.22076 -1.1,0.79284 -2,2.24218 -2,3.22076 0,0.97858 -0.45,1.77924 -1,1.77924 -0.55,0 -1,0.9 -1,2 0,1.1 -0.45,2 -1,2 -0.55,0 -1,0.9 -1,2 0,1.1 -0.45,2 -1,2 -0.55,0 -1,0.80066 -1,1.77924 0,0.97858 -0.9,2.42792 -2,3.22076 -1.1,0.79284 -2,2.24218 -2,3.22076 0,0.97858 -0.45,1.77924 -1,1.77924 -0.55,0 -1,0.80066 -1,1.77924 0,0.97858 -0.9,2.42792 -2,3.22076 -1.1,0.79284 -2,2.24218 -2,3.22076 0,0.97858 -0.45,1.77924 -1,1.77924 -0.55,0 -1,0.71946 -1,1.59879 0,0.87933 -1.35,2.85988 -3,4.40121 -1.65,1.54133 -3,3.52188 -3,4.40121 0,0.87933 -0.45,1.59879 -1,1.59879 -0.55,0 -1,0.71028 -1,1.5784 0,0.86812 -1.8,3.30784 -4,5.4216 -2.6387,2.5353 -4,4.72067 -4,6.4216 0,1.41812 -0.45,2.5784 -1,2.5784 -0.55,0 -1,1.35 -1,3 0,1.65 -0.45,3 -1,3 -0.55,0 -1,0.9 -1,2 0,1.1 -0.45,2 -1,2 -0.55,0 -1,0.9 -1,2 0,1.1 -0.45,2 -1,2 -0.55,0 -1,1.15422 -1,2.56492 0,1.76189 -1.5654,4.08969 -5,7.43508 -2.75,2.67858 -5,5.57437 -5,6.43508 0,0.8607 -0.45,1.56492 -1,1.56492 -0.55,0 -1,0.80066 -1,1.77924 0,0.97858 -0.9,2.42792 -2,3.22076 -1.1,0.79284 -2,2.24218 -2,3.22076 0,1.11257 -0.7494,1.77924 -2,1.77924 -1.166,0 -2,0.66667 -2,1.59879 0,0.87933 -1.35,2.85988 -3,4.40121 -1.65,1.54133 -3,3.42253 -3,4.18045 0,0.75792 -0.9,2.02671 -2,2.81955 -1.1,0.79284 -2,2.24218 -2,3.22076 C 648,315.19934 647.3045,316 646.4546,316 644.6751,316 640,320.36464 640,322.02597 640,323.65779 637.3899,326 635.5714,326 634.7071,326 634,326.45 634,327 c 0,0.55 -0.8007,1 -1.7792,1 -0.9786,0 -2.428,0.9 -3.2208,2 -0.7928,1.1 -2.1428,2 -3,2 -0.8572,0 -2.2072,0.9 -3,2 -0.7928,1.1 -2.0493,2 -2.7922,2 -1.6294,0 -4.2078,2.42772 -4.2078,3.9619 0,0.60762 -1.56,2.66477 -3.4667,4.57143 -2.9359,2.93595 -4.1606,3.46667 -8,3.46667 l -4.5333,0 0,8 c 0,4.66667 0.4167,8 1,8 0.5556,0 1,2.66667 1,6 0,3.33333 -0.4444,6 -1,6 -0.55,0 -1,1.35 -1,3 0,1.65 -0.45,3 -1,3 -0.55,0 -1,0.9 -1,2 0,1.1 -0.45,2 -1,2 -0.55,0 -1,1.35 -1,3 0,1.65 -0.45,3 -1,3 -0.55,0 -1,1.8 -1,4 0,2.2 -0.45,4 -1,4 -2.3776,0 -0.6348,3.48558 4,8 2.8535,2.77939 5,5.76792 5,6.96139 0,2.40569 8.1911,11.03861 10.4737,11.03861 1.114,0 1.5263,1.08046 1.5263,4 0,3.1679 -0.3701,4 -1.7792,4 -0.9786,0 -2.428,0.9 -3.2208,2 -0.7928,1.1 -2.2422,2 -3.2208,2 -0.9785,0 -1.7792,0.45 -1.7792,1 0,0.55 -0.9,1 -2,1 -1.1,0 -2,0.45 -2,1 0,0.55 -0.9,1 -2,1 -1.3333,0 -2,0.66667 -2,2 0,1.48148 -0.6667,2 -2.5714,2 -2.9173,0 -6.7317,3.06562 -4.6697,3.75298 0.6826,0.22753 1.2411,1.07164 1.2411,1.87581 0,2.82085 4.7113,6.37121 8.4546,6.37121 2.8787,0 3.5454,-0.37607 3.5454,-2 0,-3.16989 4.6474,-2.58897 8,1 1.5413,1.65 3.5219,3 4.4012,3 0.9321,0 1.5988,0.83396 1.5988,2 0,1.1 0.45,2 1,2 0.55,0 1,0.80066 1,1.77924 0,0.97858 0.9,2.42792 2,3.22076 1.1,0.79284 2,2.24218 2,3.22076 0,0.97858 0.45,1.77924 1,1.77924 0.55,0 1,0.80066 1,1.77924 0,0.97858 0.9,2.42792 2,3.22076 1.1,0.79284 2,2.06163 2,2.81955 0,0.75792 1.35,2.63912 3,4.18045 2.4922,2.32805 3,3.58087 3,7.40121 0,2.52933 0.45,4.59879 1,4.59879 0.55,0 1,1.70066 1,3.77924 0,2.63207 0.6071,4.21681 2,5.22076 1.1,0.79284 2,2.0389 2,2.76903 0,0.73014 3.15,4.43407 7,8.23097 3.85,3.7969 7,7.40439 7,8.01665 0,0.61226 2.25,3.30477 5,5.98335 2.75,2.67858 5,5.57437 5,6.43508 0,0.8607 0.45,1.56492 1,1.56492 0.55,0 1,0.80066 1,1.77924 0,0.97858 0.9,2.42792 2,3.22076 1.1,0.79284 2,2.24218 2,3.22076 0,0.97858 0.45,1.77924 1,1.77924 0.55,0 1,0.9 1,2 0,1.33333 0.6667,2 2,2 1.1428,0 2,0.66667 2,1.55538 0,0.85546 2.7,4.20554 6,7.44462 3.3,3.23908 6,6.40862 6,7.04341 0,0.63479 1.35,2.41526 3,3.95659 1.65,1.54133 3,3.42253 3,4.18045 0,0.75792 0.9,2.02671 2,2.81955 1.1,0.79284 2,2.24218 2,3.22076 0,0.97858 0.45,1.77924 1,1.77924 0.55,0 1,0.9 1,2 0,1.1 0.45,2 1,2 0.55,0 1,1.16028 1,2.5784 0,1.70093 1.3613,3.8863 4,6.4216 2.2,2.11376 4,4.45414 4,5.20084 0,0.7467 0.9,2.00632 2,2.79916 1.1,0.79284 2,2.24218 2,3.22076 0,0.97858 0.45,1.77924 1,1.77924 0.55,0 1,1.35 1,3 0,1.65 0.45,3 1,3 0.55,0 1,0.9 1,2 0,1.1 0.45,2 1,2 0.55,0 1,0.9 1,2 0,1.1 0.45,2 1,2 0.55,0 1,0.80066 1,1.77924 0,0.97858 0.9,2.42792 2,3.22076 1.1,0.79284 2,2.06163 2,2.81955 0,0.75792 1.35,2.63912 3,4.18045 1.65,1.54133 3,3.34133 3,4 0,0.65867 1.35,2.45867 3,4 1.65,1.54133 3,3.52188 3,4.40121 0,0.93212 0.834,1.59879 2,1.59879 1.3333,0 2,0.66667 2,2 0,1.1 0.45,2 1,2 0.55,0 1,0.71946 1,1.59879 0,0.87933 1.35,2.85988 3,4.40121 1.65,1.54133 3,3.42253 3,4.18045 0,0.75792 0.9,2.02671 2,2.81955 1.1745,0.84651 2,2.58869 2,4.22076 0,1.52858 0.45,2.77924 1,2.77924 0.55,0 1,1.8 1,4 0,2.2 0.45,4 1,4 0.625,0 1,6 1,16 0,10 -0.375,16 -1,16 -0.55,0 -1,2.25 -1,5 0,2.75 0.45,5 1,5 0.55,0 1,2.25 1,5 0,2.75 -0.45,5 -1,5 -0.5683,0 -1,2.92641 -1,6.77924 0,5.63207 -0.3384,7.02317 -2,8.22076 -1.1,0.79284 -2,2.24218 -2,3.22076 0,0.97858 -0.45,1.77924 -1,1.77924 -0.5714,0 -1,3 -1,7 0,4 -0.4286,7 -1,7 -0.6222,0 -1,5.66667 -1,15 0,9.33333 0.3778,15 1,15 0.55,0 1,1.8 1,4 0,2.2 -0.45,4 -1,4 -0.55,0 -1,1.8 -1,4 0,2.2 -0.45,4 -1,4 -0.5556,0 -1,2.66667 -1,6 0,3.33333 -0.4444,6 -1,6 -0.5556,0 -1,2.66667 -1,6 0,3.33333 -0.4444,6 -1,6 -0.5556,0 -1,2.66667 -1,6 0,3.33333 -0.4444,6 -1,6 -0.5556,0 -1,2.66667 -1,6 0,3.33333 -0.4444,6 -1,6 -0.55,0 -1,1.8 -1,4 0,2.2 -0.45,4 -1,4 -0.55,0 -1,1.35 -1,3 0,1.65 -0.45,3 -1,3 -0.55,0 -1,1.35 -1,3 0,1.65 0.45,3 1,3 0.55,0 1,2.25 1,5 0,2.75 -0.45,5 -1,5 -0.6222,0 -1,5.66667 -1,15 0,9.33333 0.3778,15 1,15 0.55,0 1,0.9 1,2 0,1.1 -0.45,2 -1,2 -0.6296,0 -1,6.66667 -1,18 0,11.33333 0.3704,18 1,18 1.4522,0 1.2291,5.7264 -0.25,6.4167 -1,0.4666 -1,0.7 0,1.1666 1.5559,0.7261 1.797,20.4167 0.25,20.4167 -0.5556,0 -1,2.6667 -1,6 0,3.3333 0.4444,6 1,6 0.5926,0 1,3.6667 1,9 0,5.3333 -0.4074,9 -1,9 -0.6222,0 -1,5.6667 -1,15 0,9.3333 -0.3778,15 -1,15 -0.5833,0 -1,3.3333 -1,8 0,4.6667 0.4167,8 1,8 0.55,0 1,1.8 1,4 0,2.2 0.45,4 1,4 0.55,0 1,2.25 1,5 0,2.75 0.45,5 1,5 0.55,0 1,1.35 1,3 0,1.65 0.45,3 1,3 0.6275,0 1,6.3333 1,17 0,10.6667 -0.3725,17 -1,17 -0.55,0 -1,1.8 -1,4 0,2.2 -0.45,4 -1,4 -0.55,0 -1,0.9 -1,2 0,1.1 -0.45,2 -1,2 -0.55,0 -1,1.8 -1,4 0,2.2 -0.45,4 -1,4 -0.55,0 -1,1.35 -1,3 0,1.65 -0.45,3 -1,3 -0.55,0 -1,1.8 -1,4 0,2.2 -0.45,4 -1,4 -0.6,0 -1,4 -1,10 0,6 -0.4,10 -1,10 -0.55,0 -1,2.25 -1,5 0,2.75 -0.45,5 -1,5 -0.55,0 -1,0.9 -1,2 0,1.1 -0.45,2 -1,2 -0.55,0 -1,1.35 -1,3 0,1.65 -0.45,3 -1,3 -0.55,0 -1,1.35 -1,3 0,1.65 -0.45,3 -1,3 -0.55,0 -1,1.6195 -1,3.5988 0,2.7092 -0.7415,4.2915 -3,6.4012 -1.65,1.5413 -3,3.3101 -3,3.9306 0,0.6205 -5.4,6.5017 -12,13.0694 -7.761,7.723 -12,12.6858 -12,14.049 0,1.1593 -1.8,3.8372 -4,5.951 -2.2,2.1138 -4,4.5535 -4,5.4216 0,0.8681 -0.7071,1.5784 -1.5714,1.5784 -3.0128,0 -4.4286,2.6947 -4.4286,8.4286 0,3.0643 0.45,5.5714 1,5.5714 0.5556,0 1,2.6667 1,6 0,3.3333 0.4444,6 1,6 0.5926,0 1,3.6667 1,9 0,5.3333 0.4074,9 1,9 0.55,0 1,1.8 1,4 0,2.2 0.45,4 1,4 0.5714,0 1,3 1,7 0,4 0.4286,7 1,7 0.5926,0 1,3.6667 1,9 0,5.3333 -0.4074,9 -1,9 -0.5556,0 -1,2.6667 -1,6 0,3.3333 0.4444,6 1,6 0.55,0 1,1.2507 1,2.7792 0,1.6321 0.8255,3.3743 2,4.2208 1.1745,0.8465 2,2.5887 2,4.2208 0,1.5285 0.45,2.7792 1,2.7792 0.55,0 1,1.8 1,4 0,2.2 -0.45,4 -1,4 -0.55,0 -1,1.8 -1,4 0,2.2 0.45,4 1,4 0.55,0 1,1.35 1,3 0,1.65 0.45,3 1,3 0.5556,0 1,2.6667 1,6 0,3.3333 0.4444,6 1,6 0.55,0 1,2.25 1,5 0,2.75 0.45,5 1,5 0.625,0 1,6 1,16 0,10 0.375,16 1,16 0.6275,0 1,6.3333 1,17 0,10.6667 0.3726,17 1,17 0.55,0 1,1.8 1,4 0,2.2 -0.45,4 -1,4 -0.6522,0 -1,16 -1,46 0,30 0.3478,46 1,46 0.55,0 1,0.9 1,2 0,1.1 0.45,2 1,2 0.5714,0 1,3 1,7 0,4 0.4286,7 1,7 0.6111,0 1,4.6667 1,12 0,7.3333 0.3889,12 1,12 0.55,0 1,2.25 1,5 0,2.75 0.45,5 1,5 0.5556,0 1,2.6667 1,6 0,3.3333 0.4444,6 1,6 0.5556,0 1,2.6667 1,6 0,3.3333 0.4444,6 1,6 0.5714,0 1,3 1,7 0,4 0.4286,7 1,7 0.55,0 1,2.25 1,5 0,2.75 0.45,5 1,5 0.5714,0 1,3 1,7 0,4 0.4286,7 1,7 0.5556,0 1,2.6667 1,6 0,3.3333 0.4444,6 1,6 0.5714,0 1,3 1,7 0,4 0.4286,7 1,7 0.5556,0 1,2.6667 1,6 0,3.3333 0.4444,6 1,6 0.5556,0 1,2.6667 1,6 0,3.3333 0.4444,6 1,6 0.5556,0 1,2.6667 1,6 0,3.3333 0.4444,6 1,6 0.5714,0 1,3 1,7 0,4 0.4286,7 1,7 0.5556,0 1,2.6667 1,6 0,3.3333 0.4444,6 1,6 0.55,0 1,2.25 1,5 0,2.75 0.45,5 1,5 0.5714,0 1,3 1,7 0,4 0.4286,7 1,7 0.5556,0 1,2.6667 1,6 0,3.3333 0.4444,6 1,6 0.5556,0 1,2.6667 1,6 0,3.3333 0.4444,6 1,6 0.5556,0 1,2.6667 1,6 0,3.3333 0.4444,6 1,6 0.5714,0 1,3 1,7 0,4 0.4286,7 1,7 0.55,0 1,2.25 1,5 0,2.75 0.45,5 1,5 0.5714,0 1,3 1,7 0,4 0.4286,7 1,7 0.5714,0 1,3 1,7 0,4 0.4286,7 1,7 0.5556,0 1,2.6667 1,6 0,3.3333 0.4444,6 1,6 0.5714,0 1,3 1,7 0,4 0.4286,7 1,7 0.5556,0 1,2.6667 1,6 0,3.3333 0.4444,6 1,6 0.55,0 1,2.25 1,5 0,2.75 0.45,5 1,5 0.5714,0 1,3 1,7 0,4 0.4286,7 1,7 0.5556,0 1,2.6667 1,6 0,3.3333 0.4444,6 1,6 0.5556,0 1,2.6667 1,6 0,3.3333 0.4444,6 1,6 0.5714,0 1,3 1,7 0,4 0.4286,7 1,7 0.5556,0 1,2.6667 1,6 0,3.3333 0.4444,6 1,6 0.55,0 1,2.25 1,5 0,2.75 0.45,5 1,5 0.5714,0 1,3 1,7 0,4 0.4286,7 1,7 0.5714,0 1,3 1,7 0,4 0.4286,7 1,7 0.55,0 1,2.25 1,5 0,2.75 0.45,5 1,5 0.5714,0 1,3 1,7 0,4 0.4286,7 1,7 0.5833,0 1,3.3333 1,8 0,4.6667 0.4167,8 1,8 0.5556,0 1,2.6667 1,6 0,3.3333 0.4444,6 1,6 0.55,0 1,2.25 1,5 0,2.75 0.45,5 1,5 0.5714,0 1,3 1,7 0,4 0.4286,7 1,7 0.5714,0 1,3 1,7 0,4 0.4286,7 1,7 0.55,0 1,2.25 1,5 0,2.75 0.45,5 1,5 0.5714,0 1,3 1,7 0,4 0.4286,7 1,7 0.5714,0 1,3 1,7 0,4 0.4286,7 1,7 0.55,0 1,1.35 1,3 0,1.65 0.45,3 1,3 0.55,0 1,0.9 1,2 0,1.1 0.45,2 1,2 0.5714,0 1,3 1,7 0,4 0.4286,7 1,7 0.55,0 1,2.25 1,5 0,2.75 0.45,5 1,5 0.55,0 1,1.8 1,4 0,2.2 0.45,4 1,4 0.5556,0 1,2.6667 1,6 0,3.3333 0.4444,6 1,6 0.55,0 1,1.2507 1,2.7792 0,1.6321 0.8255,3.3743 2,4.2208 1.1,0.7928 2,2.2422 2,3.2208 0,0.9785 0.45,1.7792 1,1.7792 0.55,0 1,2.25 1,5 0,2.75 0.45,5 1,5 0.5714,0 1,3 1,7 0,4 0.4286,7 1,7 0.55,0 1,1.1455 1,2.5455 0,2.5311 -3.9434,7.4545 -5.9707,7.4545 -1.4171,0 -16.0293,14.6608 -16.0293,16.0827 0,0.6132 -1.35,2.376 -3,3.9173 -1.65,1.5413 -3,3.3218 -3,3.9566 0,0.6348 -2.7,3.8043 -6,7.0434 -3.3,3.2391 -6,6.5892 -6,7.4446 0,0.8555 -0.45,1.5554 -1,1.5554 -0.55,0 -1,1.1542 -1,2.5649 0,1.7619 -1.5654,4.0897 -5,7.4351 -2.75,2.6786 -5,5.475 -5,6.2143 0,0.7393 -0.9,1.9929 -2,2.7857 -1.1,0.7928 -2,2.027 -2,2.7425 0,1.8204 -10.6251,12.2575 -12.4783,12.2575 -0.8369,0 -1.5217,0.45 -1.5217,1 0,0.55 -0.9,1 -2,1 -1.1,0 -2,0.45 -2,1 0,0.55 -0.8007,1 -1.7792,1 -0.9786,0 -2.428,0.9 -3.2208,2 -0.7928,1.1 -2.2422,2 -3.2208,2 -0.9785,0 -1.7792,0.45 -1.7792,1 0,0.55 -0.9,1 -2,1 -1.1,0 -2,0.45 -2,1 0,0.55 -0.8007,1 -1.7792,1 -0.9786,0 -2.428,0.9 -3.2208,2 -0.7928,1.1 -2.2422,2 -3.2208,2 -0.9785,0 -1.7792,0.45 -1.7792,1 0,0.55 -2.25,1 -5,1 -2.75,0 -5,0.45 -5,1 0,0.55 -2.25,1 -5,1 -2.75,0 -5,-0.45 -5,-1 0,-0.55 -1.8,-1 -4,-1 -2.2,0 -4,-0.45 -4,-1 0,-0.55 -1.8,-1 -4,-1 -2.2,0 -4,0.45 -4,1 0,0.55 -1.2507,1 -2.7792,1 -1.6321,0 -3.3743,0.8255 -4.2208,2 -0.7928,1.1 -2.2422,2 -3.2208,2 -1.0389,0 -1.7792,0.7403 -1.7792,1.7792 0,0.9786 -0.9,2.428 -2,3.2208 -1.1745,0.8465 -2,2.5887 -2,4.2208 0,1.5285 -0.45,2.7792 -1,2.7792 -0.55,0 -1,0.7042 -1,1.5649 0,0.8607 -2.25,3.7565 -5,6.4351 -3.4346,3.3454 -5,5.6732 -5,7.4351 0,1.4107 -0.45,2.5649 -1,2.5649 -0.5556,0 -1,2.6667 -1,6 0,3.3333 0.4444,6 1,6 0.5714,0 1,3 1,7 0,4 0.4286,7 1,7 0.55,0 1,0.9 1,2 0,1.1 0.45,2 1,2 0.55,0 1,0.7103 1,1.5784 0,0.8681 1.8,3.3078 4,5.4216 2.2,2.1138 4,4.5535 4,5.4216 0,0.8681 0.45,1.5784 1,1.5784 0.55,0 1,1.35 1,3 0,1.65 0.45,3 1,3 0.5926,0 1,3.6667 1,9 0,5.3333 0.4074,9 1,9 0.5714,0 1,3 1,7 0,4 0.4286,7 1,7 0.55,0 1,1.35 1,3 0,1.65 -0.45,3 -1,3 -0.55,0 -1,1.2507 -1,2.7792 0,1.6321 -0.8255,3.3743 -2,4.2208 -1.1,0.7928 -2,2.0255 -2,2.7393 0,1.8198 -12.6335,14.2607 -14.4815,14.2607 -0.8352,0 -1.5185,0.45 -1.5185,1 0,0.55 -0.9,1 -2,1 -1.1,0 -2,0.45 -2,1 0,0.55 -1.35,1 -3,1 -1.65,0 -3,0.45 -3,1 0,0.55 -1.35,1 -3,1 -1.65,0 -3,0.45 -3,1 0,0.55 -0.9,1 -2,1 -1.1,0 -2,0.45 -2,1 0,0.55 -0.9,1 -2,1 -1.1,0 -2,0.45 -2,1 0,0.55 -0.9,1 -2,1 -1.1,0 -2,0.45 -2,1 0,0.55 -1.1333,1 -2.5185,1 -3.5179,0 -15.4815,11.9636 -15.4815,15.4815 0,1.3852 -0.45,2.5185 -1,2.5185 -0.55,0 -1,0.9 -1,2 0,1.1 -0.45,2 -1,2 -0.55,0 -1,0.9 -1,2 0,1.1 -0.45,2 -1,2 -0.55,0 -1,0.9 -1,2 0,1.1 -0.45,2 -1,2 -0.55,0 -1,0.6999 -1,1.5554 0,0.8554 -2.7,4.2055 -6,7.4446 -3.3,3.2391 -6,6.3963 -6,7.016 0,1.5527 -2.5679,3.984 -4.2078,3.984 -0.7429,0 -1.9994,0.9 -2.7922,2 -0.7952,1.1032 -2.5887,2 -4,2 -1.4113,0 -3.2048,0.8968 -4,2 -0.7928,1.1 -2.1428,2 -3,2 -0.8572,0 -2.2072,0.9 -3,2 -0.8465,1.1745 -2.5887,2 -4.2208,2 -1.52854,0 -2.7792,0.45 -2.7792,1 0,0.55 -0.9,1 -2,1 -1.1,0 -2,0.45 -2,1 0,0.5556 -2.66667,1 -6,1 -3.33333,0 -6,0.4444 -6,1 0,0.55 -1.8,1 -4,1 -2.2,0 -4,0.45 -4,1 0,0.55 -0.9,1 -2,1 -1.1,0 -2,0.45 -2,1 0,0.55 -1.35,1 -3,1 -1.65,0 -3,0.45 -3,1 0,0.55 -1.35,1 -3,1 -1.65,0 -3,0.45 -3,1 0,0.55 -0.9,1 -2,1 -1.1,0 -2,0.45 -2,1 0,0.55 -1.35,1 -3,1 -1.65,0 -3,0.45 -3,1 0,0.55 -1.8,1 -4,1 -2.2,0 -4,0.45 -4,1 0,0.55 -0.9,1 -2,1 -1.1,0 -2,0.45 -2,1 0,0.5926 -3.66667,1 -9,1 -5.33333,0 -9,-0.4074 -9,-1 0,-0.625 -6,-1 -16,-1 -10,0 -16,0.375 -16,1 0,0.55 -0.9,1 -2,1 -1.1,0 -2,-0.45 -2,-1 z m 66,-160.7792 c 0,-0.9786 0.9,-2.428 2,-3.2208 1.1,-0.7928 2,-2.0525 2,-2.7992 0,-0.7467 1.8,-3.087 4,-5.2008 2.2,-2.1138 4,-4.3357 4,-4.9377 0,-1.5482 14.69562,-16.0623 16.26311,-16.0623 0.71246,0 1.94405,-0.9 2.73689,-2 0.79284,-1.1 2.24218,-2 3.22076,-2 1.03899,0 1.77924,-0.7403 1.77924,-1.7792 0,-0.9786 0.9,-2.428 2,-3.2208 1.1,-0.7928 2,-2.1428 2,-3 0,-0.8572 0.9,-2.2072 2,-3 1.1,-0.7928 2,-2.0616 2,-2.8195 0,-0.758 1.35,-2.6392 3,-4.1805 2.82427,-2.6383 3,-3.2475 3,-10.4012 l 0,-7.5988 -3,0 c -1.65,0 -3,-0.45 -3,-1 0,-0.55 -1.35,-1 -3,-1 -1.65,0 -3,-0.45 -3,-1 0,-0.5714 -3,-1 -7,-1 -5.69697,0 -7,-0.2925 -7,-1.5714 0,-2.0211 -2.40753,-4.4286 -4.42857,-4.4286 -0.86429,0 -1.57143,-0.45 -1.57143,-1 0,-0.55 -0.9,-1 -2,-1 -1.1,0 -2,-0.45 -2,-1 0,-0.55 -0.9,-1 -2,-1 -1.1,0 -2,-0.45 -2,-1 0,-0.55 -1.8,-1 -4,-1 -2.2,0 -4,-0.45 -4,-1 0,-0.55 -0.9,-1 -2,-1 -1.1,0 -2,-0.45 -2,-1 0,-0.55 -0.9,-1 -2,-1 -1.1,0 -2,-0.45 -2,-1 0,-0.5648 -2.84848,-1 -6.54545,-1 -5.61617,0 -6.89394,0.3485 -9,2.4545 -1.35,1.35 -2.45455,3.6 -2.45455,5 0,1.4 -0.45,2.5455 -1,2.5455 -0.6,0 -1,4 -1,10 0,6 0.4,10 1,10 0.55,0 1,0.9 1,2 0,1.1 0.45,2 1,2 0.55,0 1,0.9 1,2 0,1.1 0.45,2 1,2 0.55,0 1,0.9 1,2 0,1.1 0.45,2 1,2 0.55,0 1,0.9 1,2 0,1.1 0.45,2 1,2 0.55,0 1,0.9 1,2 0,1.1 0.45,2 1,2 0.55,0 1,0.9 1,2 0,1.1 0.45,2 1,2 0.55,0 1,1.8 1,4 0,2.2 0.45,4 1,4 0.55,0 1,0.9 1,2 0,1.1 0.45,2 1,2 0.55,0 1,1.8 1,4 0,2.2 0.45,4 1,4 0.55,0 1,1.35 1,3 0,1.65 0.45,3 1,3 0.55,0 1,1.8 1,4 0,2.2 -0.45,4 -1,4 -0.55,0 -1,0.9 -1,2 0,1.3333 0.66667,2 2,2 1.33333,0 2,0.6667 2,2 0,1.1 0.45,2 1,2 0.55,0 1,-0.8007 1,-1.7792 z M 188,1700 c 0,-24.6667 0.35088,-38 1,-38 0.61905,0 1,-5.3333 1,-14 0,-8.6667 0.38095,-14 1,-14 0.6,0 1,-4 1,-10 0,-6 0.4,-10 1,-10 0.55,0 1,-1.7007 1,-3.7792 0,-2.6321 0.60709,-4.2168 2,-5.2208 2.0606,-1.4852 2.84843,-7 1,-7 -0.59259,0 -1,-3.6667 -1,-9 0,-5.3333 0.40741,-9 1,-9 0.63333,0 1,-7.3333 1,-20 0,-12.6667 0.36667,-20 1,-20 0.62963,0 1,-6.6667 1,-18 0,-11.3333 0.37037,-18 1,-18 0.55556,0 1,-2.6667 1,-6 0,-3.3333 0.44444,-6 1,-6 0.6,0 1,-4 1,-10 0,-6 0.4,-10 1,-10 0.55556,0 1,-2.6667 1,-6 0,-3.3333 0.44444,-6 1,-6 0.55556,0 1,-2.6667 1,-6 0,-3.3333 0.44444,-6 1,-6 0.58333,0 1,-3.3333 1,-8 0,-4.6667 0.41667,-8 1,-8 0.59259,0 1,-3.6667 1,-9 0,-5.3333 0.40741,-9 1,-9 0.55556,0 1,-2.6667 1,-6 0,-3.3333 0.44444,-6 1,-6 0.55556,0 1,-2.6667 1,-6 0,-3.3333 0.44444,-6 1,-6 0.57143,0 1,-3 1,-7 0,-4 0.42857,-7 1,-7 0.62745,0 1,-6.3333 1,-17 0,-10.6667 0.37255,-17 1,-17 0.57143,0 1,-3 1,-7 0,-4 0.42857,-7 1,-7 0.60606,0 1,-4.3333 1,-11 0,-6.6667 0.39394,-11 1,-11 0.61111,0 1,-4.6667 1,-12 0,-7.3333 0.38889,-12 1,-12 0.57143,0 1,-3 1,-7 0,-4 0.42857,-7 1,-7 0.55,0 1,-1.8 1,-4 0,-2.2 0.45,-4 1,-4 0.55556,0 1,-2.6667 1,-6 0,-3.3333 0.44444,-6 1,-6 0.55,0 1,-2.25 1,-5 0,-2.75 0.45,-5 1,-5 0.55,0 1,-2.25 1,-5 0,-2.75 0.45,-5 1,-5 0.55,0 1,-2.25 1,-5 0,-2.75 0.45,-5 1,-5 0.55,0 1,-1.35 1,-3 0,-1.65 -0.24,-3 -0.53333,-3 -1.23842,0 -7.46667,7.0624 -7.46667,8.4667 0,0.8433 -0.45,1.5333 -1,1.5333 -0.55,0 -1,0.6808 -1,1.5128 0,1.9728 -18.51435,20.4872 -20.48718,20.4872 -0.84615,0 -1.51282,0.8814 -1.51282,2 0,1.3333 -0.66667,2 -2,2 -1.1,0 -2,0.45 -2,1 0,0.55 -1.8,1 -4,1 -2.2,0 -4,-0.45 -4,-1 0,-0.55 -1.35,-1 -3,-1 -1.65,0 -3,-0.45 -3,-1 0,-0.55 -1.35,-1 -3,-1 -1.65,0 -3,-0.45 -3,-1 0,-0.55 -0.9,-1 -2,-1 -1.15152,0 -2,-0.6667 -2,-1.5714 0,-1.8311 -2.3461,-4.4286 -4,-4.4286 -1.56604,0 -4,-2.5604 -4,-4.2078 0,-0.7429 -0.9,-1.9994 -2,-2.7922 -1.1,-0.7928 -2,-2.2422 -2,-3.2208 0,-0.9785 -0.45,-1.7792 -1,-1.7792 -0.55,0 -1,-0.9 -1,-2 0,-1.1 -0.45,-2 -1,-2 -0.55,0 -1,-1.8 -1,-4 0,-2.2 -0.45,-4 -1,-4 -0.57143,0 -1,-3 -1,-7 0,-4 -0.42857,-7 -1,-7 -0.55,0 -1,-0.9 -1,-2 0,-1.1 -0.45,-2 -1,-2 -0.55,0 -1,-1.35 -1,-3 0,-1.65 -0.45,-3 -1,-3 -0.64198,0 -1,-9.6667 -1,-27 0,-17.3333 0.35802,-27 1,-27 0.57143,0 1,-3 1,-7 0,-4 0.42857,-7 1,-7 0.55,0 1,-1.3125 1,-2.9167 0,-1.6041 0.5625,-3.1791 1.25,-3.5 1,-0.4666 1,-0.7 0,-1.1666 -0.6875,-0.3209 -1.25,-1.4459 -1.25,-2.5 0,-1.7728 -0.82609,-1.9167 -11,-1.9167 -6.66667,0 -11,-0.3939 -11,-1 0,-0.55 -0.9,-1 -2,-1 -1.33333,0 -2,0.6667 -2,2 0,1.1 -0.45,2 -1,2 -0.55,0 -1,0.9 -1,2 0,1.1 -0.45,2 -1,2 -0.60606,0 -1,4.3333 -1,11 0,6.6667 0.39394,11 1,11 0.6,0 1,4 1,10 0,6 0.4,10 1,10 0.61111,0 1,4.6667 1,12 0,7.3333 0.38889,12 1,12 0.6,0 1,4 1,10 0,6 0.4,10 1,10 0.57143,0 1,3 1,7 0,4 0.42857,7 1,7 0.55556,0 1,2.6667 1,6 0,3.3333 0.44444,6 1,6 0.55,0 1,1.8 1,4 0,2.2 0.45,4 1,4 0.57862,0 1,3.1905 1,7.5714 0,9.5024 -0.79934,10.4286 -9,10.4286 -6.0476,0 -9,-1.3212 -9,-4.0274 0,-0.6436 -1.35,-2.4313 -3,-3.9726 -1.65,-1.5413 -3,-3.5219 -3,-4.4012 0,-0.8793 -0.45,-1.5988 -1,-1.5988 -0.55,0 -1,0.9 -1,2 0,1.1 -0.45,2 -1,2 -0.55,0 -1,1.1571 -1,2.5714 0,3.1314 -2.11588,5.4286 -5,5.4286 -2.51733,0 -5,-2.1989 -5,-4.4286 0,-0.8643 -0.45,-1.5714 -1,-1.5714 -0.55,0 -1,-0.9 -1,-2 0,-1.3333 -0.66667,-2 -2,-2 -1.88889,0 -2,0.6667 -2,12 0,7.3333 0.38889,12 1,12 0.61111,0 1,4.6667 1,12 0,7.3333 0.38889,12 1,12 0.60606,0 1,4.3333 1,11 0,6.6667 0.39394,11 1,11 0.58333,0 1,3.3333 1,8 0,4.6667 0.41667,8 1,8 0.59259,0 1,3.6667 1,9 0,5.3333 0.40741,9 1,9 0.58333,0 1,3.3333 1,8 0,4.6667 0.41667,8 1,8 0.58333,0 1,3.3333 1,8 0,4.6667 0.41667,8 1,8 0.61111,0 1,4.6667 1,12 0,7.3333 0.38889,12 1,12 0.60606,0 1,4.3333 1,11 0,6.6667 0.39394,11 1,11 0.58333,0 1,3.3333 1,8 0,4.6667 0.41667,8 1,8 0.6,0 1,4 1,10 0,6 0.4,10 1,10 0.59259,0 1,3.6667 1,9 0,5.3333 0.40741,9 1,9 0.57143,0 1,3 1,7 0,4 0.42857,7 1,7 0.58333,0 1,3.3333 1,8 0,4.6667 0.41667,8 1,8 0.58333,0 1,3.3333 1,8 0,4.6667 0.41667,8 1,8 0.57143,0 1,3 1,7 0,4 0.42857,7 1,7 0.55,0 1,1.8 1,4 0,2.2 0.45,4 1,4 0.55556,0 1,2.6667 1,6 0,3.3333 0.44444,6 1,6 0.55556,0 1,2.6667 1,6 0,3.3333 0.44444,6 1,6 0.55,0 1,2.25 1,5 0,2.75 0.45,5 1,5 0.55,0 1,2.25 1,5 0,2.75 0.45,5 1,5 0.57143,0 1,3 1,7 0,4 0.42857,7 1,7 0.55,0 1,1.8 1,4 0,2.2 0.45,4 1,4 0.55,0 1,1.35 1,3 0,1.65 0.45,3 1,3 0.55,0 1,2.25 1,5 0,2.75 0.45,5 1,5 0.55556,0 1,2.6667 1,6 0,3.3333 0.44444,6 1,6 0.55,0 1,0.9 1,2 0,1.1 0.45,2 1,2 0.55,0 1,1.35 1,3 0,1.65 0.45,3 1,3 0.55,0 1,1.35 1,3 0,1.65 0.45,3 1,3 0.55,0 1,1.35 1,3 0,1.65 0.45,3 1,3 0.55,0 1,1.35 1,3 0,1.65 0.45,3 1,3 0.55,0 1,0.9 1,2 0,1.1 0.45,2 1,2 0.55,0 1,1.8 1,4 0,2.2 0.45,4 1,4 0.55,0 1,1.35 1,3 0,1.65 0.45,3 1,3 0.55,0 1,0.9 1,2 0,1.1 0.45,2 1,2 0.55,0 1,1.35 1,3 0,1.65 0.45,3 1,3 0.55,0 1,1.35 1,3 0,1.65 0.45,3 1,3 0.55,0 1,1.7007 1,3.7792 0,2.6321 0.60709,4.2168 2,5.2208 1.17447,0.8465 2,2.5887 2,4.2208 0,1.5285 0.45,2.7792 1,2.7792 0.55,0 1,1.35 1,3 0,1.65 0.45,3 1,3 0.55,0 1,1.35 1,3 0,1.65 0.45,3 1,3 0.55,0 1,0.9 1,2 0,1.1 0.45,2 1,2 0.55,0 1,0.9 1,2 0,1.1 0.45,2 1,2 0.64912,0 1,-13.3333 1,-38 z"
     id="path2987"
     inkscape:connector-curvature="0" />
</svg>
