<?xml version="1.0" encoding="UTF-8" standalone="no"?>
<!-- Created with Inkscape (http://www.inkscape.org/) -->

<svg
   xmlns:dc="http://purl.org/dc/elements/1.1/"
   xmlns:cc="http://creativecommons.org/ns#"
   xmlns:rdf="http://www.w3.org/1999/02/22-rdf-syntax-ns#"
   xmlns:svg="http://www.w3.org/2000/svg"
   xmlns="http://www.w3.org/2000/svg"
   xmlns:sodipodi="http://sodipodi.sourceforge.net/DTD/sodipodi-0.dtd"
   xmlns:inkscape="http://www.inkscape.org/namespaces/inkscape"
   id="svg2"
   version="1.1"
   inkscape:version="0.48.2 r9819"
   width="946.52435"
   height="1520.4996"
   sodipodi:docname="childsbookofwarr00cant_0069.png">
  <metadata
     id="metadata8">
    <rdf:RDF>
      <cc:Work
         rdf:about="">
        <dc:format>image/svg+xml</dc:format>
        <dc:type
           rdf:resource="http://purl.org/dc/dcmitype/StillImage" />
        <dc:title></dc:title>
      </cc:Work>
    </rdf:RDF>
  </metadata>
  <defs
     id="defs6" />
  <sodipodi:namedview
     pagecolor="#ffffff"
     bordercolor="#666666"
     borderopacity="1"
     objecttolerance="10"
     gridtolerance="10"
     guidetolerance="10"
     inkscape:pageopacity="0"
     inkscape:pageshadow="2"
     inkscape:window-width="1600"
     inkscape:window-height="876"
     id="namedview4"
     showgrid="false"
     fit-margin-top="0"
     fit-margin-left="0"
     fit-margin-right="0"
     fit-margin-bottom="0"
     inkscape:zoom="0.5"
     inkscape:cx="403.98422"
     inkscape:cy="774.77317"
     inkscape:window-x="0"
     inkscape:window-y="24"
     inkscape:window-maximized="1"
     inkscape:current-layer="svg2" />
  <path
     style="fill:#000000"
     d="m 406.48422,1520.1425 c -1.1,-0.1917 -22.475,-0.514 -47.5,-0.7164 l -45.5,-0.368 -8.5,-2.7691 c -9.1177,-2.9704 -19.3767,-8.5917 -21.2998,-11.6709 -0.6497,-1.0404 -1.5859,-1.8916 -2.0805,-1.8916 -0.4946,0 -1.4245,-0.7184 -2.0666,-1.5965 -0.642,-0.878 -3.3916,-2.2048 -6.1102,-2.9484 -2.7186,-0.7436 -10.1179,-2.9367 -16.4429,-4.8734 -9.6814,-2.9646 -13.0023,-3.5238 -21,-3.5362 -5.7132,-0.01 -8.9566,0.3294 -8.1368,0.8488 2.5388,1.6084 -0.9897,1.8334 -7.3457,0.4683 -3.3096,-0.7108 -8.4925,-1.3279 -11.5175,-1.3714 -3.025,-0.043 -7.3,-0.7595 -9.5,-1.5913 -8.4974,-3.2127 -14.6641,-4.7609 -36.1648,-9.0795 l -8.1647,-1.64 -1.1096,-4.0902 c -0.6103,-2.2496 -1.2901,-6.1152 -1.5107,-8.5902 -0.2207,-2.475 -0.8287,-5.625 -1.3512,-7 -0.7369,-1.939 -0.5159,-3.1143 0.9847,-5.2375 3.6051,-5.101 8.0869,-19.8065 8.9184,-29.2625 1.3882,-15.7882 2.1048,-19.9546 3.7706,-21.9219 0.895,-1.057 1.0648,-1.593 0.3773,-1.191 -0.6875,0.402 -1.25,0.2544 -1.25,-0.3281 0,-0.5824 0.5625,-1.0659 1.25,-1.0743 0.8015,-0.01 0.8804,-0.2789 0.2198,-0.75 -1.2357,-0.8813 -0.6816,-19.4836 0.5576,-18.7178 1.4311,0.8845 2.0054,-2.9157 0.9807,-6.4887 -0.6768,-2.3598 -0.6492,-3.632 0.089,-4.0879 0.6791,-0.4197 0.4915,-0.8844 -0.5128,-1.2698 -1.6573,-0.6359 -2.2984,-7.6226 -0.8338,-9.0872 0.4125,-0.4125 0.7888,-1.05 0.8364,-1.4166 0.048,-0.3667 0.3525,-1.3417 0.6778,-2.1667 0.3253,-0.825 1.0902,-4.65 1.6998,-8.5 0.6096,-3.85 1.5092,-9.25 1.9992,-12 0.4899,-2.75 0.9236,-8.4178 0.9638,-12.595 0.062,-6.4356 -0.2391,-7.8774 -1.9711,-9.4449 -1.677,-1.5177 -1.9913,-2.8475 -1.75,-7.405 0.2511,-4.7431 0.5795,-5.5551 2.2467,-5.5551 2.076,0 2.6564,-1.7834 4.5564,-14 0.5132,-3.3 2.7454,-14.775 4.9603,-25.5 4.2504,-20.5804 4.6432,-23.4966 3.0307,-22.5 -0.5771,0.3567 -0.9935,-0.5699 -0.9847,-2.191 0.01,-1.9192 0.2831,-2.3865 0.8608,-1.4752 0.6745,1.0641 0.9749,0.9969 1.4847,-0.3317 0.3516,-0.9161 0.6392,-2.2709 0.6392,-3.0106 0,-1.5823 -5.8157,-4.7235 -7.1818,-3.8791 -1.3061,0.8071 -6.9169,-1.6437 -6.2465,-2.7285 0.4867,-0.7874 -0.868,-1.2907 -2.7565,-1.024 -0.3767,0.053 -3.4164,-2.5928 -6.755,-5.88 -3.3386,-3.2871 -6.4054,-5.9241 -6.8152,-5.8598 -1.9833,0.3108 -3.3013,-0.2201 -2.7521,-1.1086 0.336,-0.5437 -0.015,-0.7483 -0.7808,-0.4545 -2.0441,0.7844 -4.0223,-2.1541 -3.4534,-5.1301 0.3141,-1.6433 -0.01,-2.7769 -0.8823,-3.1127 -0.757,-0.2905 -1.3764,-0.9702 -1.3764,-1.5104 0,-0.5402 -1.9125,-2.9083 -4.25,-5.2623 -2.3375,-2.3541 -5.4465,-6.326 -6.909,-8.8264 -2.7122,-4.6373 -14.8776,-14.6132 -17.9025,-14.6804 -0.8588,-0.019 -2.5463,-0.9522 -3.75,-2.0737 -1.2037,-1.1214 -2.1985,-1.6839 -2.2108,-1.25 -0.012,0.434 -0.8042,-0.227 -1.7601,-1.4687 -1.2384,-1.6089 -3.5294,-2.5733 -7.9714,-3.3558 -3.428496,-0.6039 -5.984796,-1.5004 -5.680896,-1.9922 0.304,-0.4919 0.1738,-0.8943 -0.2892,-0.8943 -0.9388,0 -5.5283,-3.4345 -8.6859,-6.5 -1.133,-1.1 -4.8237,-4.025 -8.2016,-6.5 -3.3779,-2.475 -7.4347,-6.0644 -9.0151,-7.9764 -1.5804,-1.912 -7.1726,-7.987 -12.427,-13.5 -5.25439,-5.513 -10.81111,-11.7391 -12.34825,-13.8357 -1.53714,-2.0967 -3.90266,-4.2333 -5.25671,-4.7481 -1.35405,-0.5148 -2.18327,-1.3869 -1.84272,-1.9379 0.34056,-0.5511 0.24651,-1.0019 -0.209,-1.0019 -0.4555,0 -2.31289,-2.7007 -4.12752,-6.0015 -1.81463,-3.3008 -4.18111,-6.4734 -5.25883,-7.0502 -1.07773,-0.5767 -1.71997,-1.4362 -1.4272,-1.9099 0.46379,-0.7505 -2.08553,-6.6448 -3.47629,-8.0376 -0.275,-0.2755 -0.62754,-1.4008 -0.78343,-2.5008 -0.48204,-3.4014 -3.49956,-10.9258 -4.97216,-12.3984 -0.76984,-0.7699 -1.1812,-2.2353 -0.91413,-3.2566 0.26707,-1.0213 -0.15611,-4.2167 -0.94038,-7.1009 -1.46246,-5.3783 -3.64897,-21.1489 -5.5103295,-39.7441 -0.57807,-5.775 -1.27423,-11.175 -1.54701,-12 -0.65866,-1.992 -0.66601,-36.4074 -0.0132,-61.9926 0.35524,-13.9236 0.17705,-20.9093 -0.55586,-21.7924 -0.74336,-0.8957 -0.75698,-1.6215 -0.0438,-2.3346 0.6319,-0.6319 0.73217,-2.3771 0.25752,-4.4817 -0.81912,-3.6318 -0.25054,-7.6857 0.97199,-6.9301 2.2141395,1.3684 -2.52286,-27.0451 -5.0081,-30.0396 -0.92985,-1.1204 -0.88958,-1.4323 0.1865,-1.4443 0.88885,-0.01 0.99594,-0.2742 0.30394,-0.75 -0.58768,-0.4041 -1.10697,-2.469 -1.15397,-4.5887 -0.047,-2.1197 -0.57867,-4.3472 -1.18149,-4.95 -0.60282,-0.6028 -1.0644,-2.4685 -1.02575,-4.146 0.0601,-2.60915 0.19451,-2.76092 0.92972,-1.05 0.70061,1.6304 0.87242,1.6875 0.92972,0.30902 0.0387,-0.93004 -0.3797,-1.9691 -0.9297,-2.30902 -0.55,-0.33992 -0.99311005,-1.37898 -0.98469,-2.30902 0.0132,-1.45727 0.14929,-1.48367 0.98469,-0.19098 0.82843,1.2819 0.9716,1.24555 0.98469,-0.25 0.008,-0.9625 -0.46125,-1.75 -1.04371,-1.75 -0.58246,0 -0.7809,-0.45 -0.44098,-1 0.33992,-0.55 0.029,-1.00689 -0.69098005,-1.01531 -0.96599,-0.0113 -0.92352,-0.25911 0.16208,-0.94566 1.20261005,-0.76056 1.27525005,-1.66408 0.39800005,-4.95069 -0.77547005,-2.90531 -0.76745005,-4.16845 0.0289,-4.55434 0.75989,-0.36822 0.71394,-0.71509 -0.148,-1.11733 -0.68750005,-0.32084 -1.24311005,-1.33334 -1.234690047405,-2.25 C 0.01329445,835.45166 0.14637445,835.42915 0.98478445,836.7265 c 0.58246005,0.90129 0.97549005,1.02463 0.98469005,0.30902 0.008,-0.65504 -0.3772,-1.43357 -0.85694,-1.73007 -0.47974005,-0.29649 -0.005,-3.13555 1.05501,-6.30901 1.05999,-3.17347 2.1678,-8.01994 2.4618,-10.76994 0.294,-2.75 1.13724,-7.025 1.87386,-9.5 0.73662,-2.475 1.59592,-6.83798 1.90954,-9.69551 0.68317,-6.22456 4.6479995,-19.11459 8.4989395,-27.63079 3.59403,-7.94807 4.16214,-9.55407 4.6334,-13.09829 0.21388,-1.60852 0.85031,-3.38602 1.41429,-3.95 1.38458,-1.38458 1.30641,-2.91711 -0.10432,-2.04523 -0.68574,0.42381 -0.94774,0.15224 -0.66667,-0.69098 0.25469,-0.76406 1.10057,-1.39036 1.87973,-1.39179 0.77917,-0.001 1.42856,-0.67642 1.4431,-1.5 0.0145,-0.82357 0.29294,-1.94741 0.61866,-2.49741 1.24522,-2.10259 2,-8.70771 0.91869,-8.03942 -1.90673,1.17808 -1.14793,-4.05818 0.93566,-6.46058 2.15425,-2.48388 2.55914,-4 1.06822,-4 -0.51248,0 -0.76848,-1.2375 -0.5689,-2.75 0.19958,-1.5125 0.4082,-3.425 0.46358,-4.25 0.0817,-1.21728 0.3543,-1.16577 1.44618,0.2733 1.26199,1.66327 1.38326,1.63224 1.95454,-0.5 0.33499,-1.25032 0.61521,-3.41067 0.62273,-4.80079 0.007,-1.39013 0.76644,-3.60226 1.68653,-4.91587 1.04926,-1.49803 1.17693,-2.08185 0.34247,-1.56613 -1.02397,0.63285 -1.17341,0.26798 -0.6488,-1.58414 0.37488,-1.3235 0.94538,-3.61071 1.26778,-5.08267 0.38237,-1.74572 1.06942,-2.49088 1.97593,-2.14302 0.76436,0.29332 1.38285,0.14765 1.37443,-0.32369 -0.0246,-1.37961 -1.36817,-3.01275 -2.98469,-3.6281 -0.89621,-0.34115 -0.43226,-0.60277 1.1526,-0.64994 2.39359,-0.0712 2.8574,-0.75321 4.75,-6.98419 1.15357,-3.79788 2.0974,-7.65246 2.0974,-8.56574 0,-0.91328 0.47422,-2.54659 1.05382,-3.62958 0.88807,-1.65937 2.67308,-10.57255 4.42974,-22.11928 0.22759,-1.49591 0.87105,-3.57424 1.42993,-4.61852 0.55888,-1.04427 0.7313,-2.18352 0.38315,-2.53166 -0.34814,-0.34815 -0.16745,-1.64482 0.40154,-2.88149 1.77118,-3.84956 3.30182,-11.56376 3.30182,-16.64072 0,-2.67494 0.675,-6.47902 1.5,-8.45353 0.825,-1.9745 1.5,-4.67346 1.5,-5.99769 0,-1.32423 1.1799,-5.05118 2.6221,-8.28212 4.832,-10.82555 7.5539,-19.81372 8.4193,-27.80193 0.5976,-5.51654 1.7864,-9.81161 3.9087,-14.12271 1.6774,-3.40737 3.0499,-6.72931 3.0499,-7.3821 0,-0.65278 1.8,-4.95824 4,-9.56769 2.2,-4.60945 4,-9.06146 4,-9.89336 0,-0.83189 0.4249,-2.54621 0.9443,-3.80959 0.5193,-1.26338 1.9174,-5.5132 3.1067,-9.44405 l 2.1625,-7.14701 -5.2245,-6.85299 c -2.8735,-3.76915 -5.9591,-7.53185 -6.8568,-8.36155 -5.5513,-5.13071 -13.9133,-11.99145 -14.6154,-11.99145 -0.4554,0 -2.2205,-1.06012 -3.9224,-2.35583 -1.7019,-1.2957 -5.63682,-3.55705 -8.74422,-5.02522 -3.1074,-1.46818 -7.52758,-4.34555 -9.82261,-6.39418 -3.43371,-3.06504 -4.26384,-4.52181 -4.68683,-8.22477 -0.28272,-2.475 -1.34727,-7.2 -2.36566,-10.5 -1.01839,-3.3 -2.36192,-8.7 -2.98561,-12 -2.86903,-15.18018 -7.0562,-34.5453 -8.0144,-37.06556 -0.58104,-1.52826 -1.29847,-4.83654 -1.59427,-7.35173 -0.29581,-2.51519 -0.68481,-4.72005 -0.86444,-4.89968 -0.17963,-0.17964 1.16198,-2.96018 2.98136,-6.179 3.17856,-5.62344 4.69715,-10.31457 6.47561,-20.00403 0.45428,-2.475 1.27947,-6.975 1.83376,-10 0.55428,-3.025 1.65996,-7.3 2.45706,-9.5 2.69434,-7.43641 3.73585,-11.13369 3.73585,-13.26198 0,-1.16599 0.41944,-2.37922 0.9321,-2.69606 0.51265,-0.31683 1.48387,-3.15589 2.15824,-6.30901 0.67438,-3.15312 1.60494,-6.16045 2.0679,-6.68295 0.46297,-0.5225 0.84176,-2.18344 0.84176,-3.69098 0,-1.50754 0.45,-3.0191 1,-3.35902 0.55,-0.33992 1,-1.62648 1,-2.85902 0,-1.23254 0.37175,-2.66848 0.82612,-3.19098 0.45437,-0.5225 1.39286,-2.975 2.08554,-5.45 0.69268,-2.475 2.12092,-6.7587 3.17388,-9.51933 1.05295,-2.76063 1.91446,-5.79813 1.91446,-6.75 0,-0.95187 0.35176,-1.73067 0.78169,-1.73067 0.42991,0 1.36641,-2.1375 2.08111,-4.75 0.7147,-2.6125 2.1629,-6.38627 3.2183,-8.38615 1.0554,-1.99989 1.9189,-4.96825 1.9189,-6.59637 0,-3.14301 2.2805,-8.59438 4.8326,-11.55202 1.4182,-1.64351 1.9712,-5.14921 2.1128,-13.39403 0.03,-1.74822 0.654,-3.77802 1.3867,-4.51067 0.7326,-0.73265 1.1494,-2.45229 0.9262,-3.82143 -0.6249,-3.83262 -1.3779,-11.99325 -1.5747,-17.06636 -0.1537,-3.96027 0.5294,-5.68786 5.0694,-12.82057 5.4791,-8.6082 6.6274,-13.65464 4.1572,-18.27021 -0.5994,-1.11998 -1.0574,-5.2529 -1.0177,-9.18426 0.086,-8.4789 -0.4694,-10.74752 -2.4437,-9.98991 -1.0315,0.39581 -1.4488,-0.17801 -1.4488,-1.99201 0,-1.40139 -0.4208,-2.80805 -0.9351,-3.12593 -1.6477,-1.0183 -7.0649,-11.81675 -7.0649,-14.0828 0,-1.20316 -0.8385,-3.26075 -1.8633,-4.57242 -1.1323,-1.44923 -2.0483,-4.65285 -2.3348,-8.16583 -0.2933,-3.59586 -1.2278,-6.80873 -2.4722,-8.5 -1.7661,-2.40022 -3.4451,-6.80774 -3.131,-8.21903 0.061,-0.275 -0.5941,-1.8639 -1.45611,-3.53089 -0.96271,-1.86167 -1.24501,-3.60684 -0.7318,-4.52391 0.45955,-0.82116 0.61993,-3.95726 0.35641,-6.969115 -0.26352,-3.01185 -0.46459,-6.80882 -0.44682,-8.43772 0.0178,-1.62889 -0.63204,-3.97556 -1.44403,-5.21481 -0.81199,-1.23926 -1.47635,-3.81473 -1.47635,-5.72328 0,-1.90854 -0.47655,-4.7235 -1.059,-6.25546 -0.84902,-2.2331 -0.74988,-3.0114 0.5,-3.92534 0.99124,-0.72481 1.57089,-2.73864 1.59165,-5.52972 0.018,-2.41437 0.90326,-6.86476 1.96735,-9.88976 1.0641,-3.025 1.9494,-6.0674 1.9674,-6.7609 0.034,-1.31415 3.2179,-8.9184 5.5433,-13.2391 1.6303,-3.02934 5.1061,-3.62278 11.4081,-1.94776 7.8119,2.07635 9.0812,3.31315 9.0812,8.84837 0,3.09516 0.5436,5.30567 1.5,6.09939 1.0493,0.87086 1.5,3.18076 1.5,7.68819 0,6.54353 0.9557,9.49798 3.969,12.27041 0.9214,0.84777 2.7447,4.0164 4.0518,7.0414 1.307,3.025 3.187,6.429 4.1778,7.56445 0.9908,1.13545 1.8014,3.17282 1.8014,4.52749 0,1.35468 0.678,3.43098 1.506596,4.61402 1.8566,2.65064 12.4874,8.55542 12.5087,6.94786 0.01,-0.65476 0.4164,-0.51969 0.9426,0.3123 0.7512,1.18768 1.1083,0.98996 1.8805,-1.0411 0.5243,-1.37897 1.6702,-3.10221 2.5464,-3.82942 0.8763,-0.72722 1.3977,-1.63848 1.1588,-2.02503 -0.2389,-0.38655 0.1963,-2.47306 0.9671,-4.63669 0.7709,-2.16364 1.4213,-5.18913 1.4454,-6.72333 0.089,-5.6373 10.3079,-17.5122 17.1115,-19.88396 2.9248,-1.01958 3.4536,-0.90113 5.1101,1.14451 3.5366,4.36758 3.4429,6.98986 -0.509,14.23482 -2.0178,3.69915 -3.6687,7.58453 -3.6687,8.63418 0,1.04964 -0.6862,3.85337 -1.5249,6.23051 -1.0181,2.8857 -1.6988,9.808635 -2.0481,20.831455 l -0.5232,16.5094 -3.4401,4.19819 c -5.0805,6.20003 -5.6154,8.30998 -4.4902,17.71226 0.5383,4.49795 1.2854,9.26096 1.6601,10.58446 0.4375,1.5447 0.3131,2.17873 -0.3472,1.77065 -0.6158,-0.38062 -1.2585,1.06145 -1.6016,3.59363 -0.3157,2.33031 -0.1462,4.37995 0.3774,4.56476 0.5226,0.18448 0.6598,0.80536 0.3048,1.37973 -0.3642,0.58932 -0.046,0.84444 0.731,0.58554 1.9983,-0.66612 6.3791,4.04648 8.2107,8.83271 1.5647,4.08878 1.8185,8.20568 1.2248,19.86661 -0.3771,7.40632 1.8653,15.01898 5.5538,18.85406 1.5098,1.56974 4.1929,5.61974 5.9627,9 1.7697,3.38027 4.4423,7.49594 5.9391,9.14594 1.4968,1.65 4.1785,5.7 5.9595,9 6.9642,12.90428 9.3099,17.01943 9.9752,17.5 2.4889,1.79791 4.0762,5.99274 4.0762,10.77217 0,4.96768 -2.0336,10.92176 -4.2118,12.33154 -1.3133,0.84994 -2.9513,7.73207 -2.8314,11.89629 0.055,1.925 1.0119,6.85545 2.1255,10.95655 1.1137,4.1011 2.1759,9.9511 2.3604,13 0.1845,3.0489 0.3854,6.0855 0.4464,6.748 0.061,0.6625 1.1995,2.29316 2.5301,3.62369 3.0438,3.04385 7.259,11.23983 10.117,19.67176 2.2684,6.69215 2.705,7.07779 9.5592,8.44339 1.4274,0.2844 6.4557,3.39517 11.174,6.91282 4.7182,3.51766 8.9503,6.06136 9.4046,5.65268 0.4543,-0.40868 2.851,-1.38843 5.326,-2.17722 3.6869,-1.17503 5.1324,-1.20924 8,-0.18936 1.925,0.68464 4.5555,1.2702 5.8456,1.30125 1.2901,0.031 3.5401,0.89082 5,1.91061 1.4599,1.0198 3.7794,2.12624 5.1544,2.45877 1.375,0.33252 5.4385,2.3783 9.03,4.54617 l 6.53,3.94157 9.47,-0.90783 c 5.2085,-0.49931 11.4131,-1.17965 13.788,-1.51187 l 4.318,-0.60402 -3.568,-2.42453 c -3.7478,-2.54674 -4.658,-5.79699 -2.318,-8.27743 1.0088,-1.06933 0.9606,-1.23752 -0.25,-0.87167 -0.825,0.24933 -1.6438,1.43058 -1.8195,2.625 -0.2246,1.52607 -1.0221,2.17167 -2.6827,2.17167 -2.6083,0 -3.7813,-2.31643 -3.4277,-6.76889 0.1193,-1.50211 -0.1282,-3.53802 -0.5501,-4.52424 -1.1799,-2.75831 0.083,-3.16617 4.4693,-1.44323 5.1706,2.03109 5.1773,0.79791 0.01,-1.58468 -2.1728,-1.00158 -3.8487,-2.32895 -3.7242,-2.94971 0.1417,-0.70689 -1.9224,-1.24192 -5.5237,-1.43173 -4.4849,-0.23639 -5.75,0.0146 -5.75,1.14069 0,1.75788 1.5649,2.81214 4.386,2.95485 1.4117,0.0714 2.114,0.77138 2.114,2.10694 0,3.01123 -5.0489,3.27239 -8.087,0.4183 -3.0463,-2.86182 -3.704,-5.02269 -2.4961,-8.1999 0.9537,-2.50838 0.9211,-2.53011 -2.2245,-1.47915 -1.7558,0.58664 -4.9924,1.1103 -7.1924,1.16369 -3.5899,0.0871 -4.1741,-0.25163 -5.6977,-3.30372 -1.5196,-3.04384 -1.5431,-3.69983 -0.2244,-6.25 1.0345,-2.00037 2.2319,-2.84922 4.0193,-2.84922 2.1655,0 2.4979,0.39401 2.2243,2.6367 -0.5226,4.28559 2.232,5.22167 7.6376,2.59541 4.7035,-2.28514 5.9288,-4.23211 2.6633,-4.23211 -3.3674,0 -4.6081,-3.4289 -4.2237,-11.67327 0.3487,-7.48838 18.8434,-16.95674 23.1009,-11.82673 1.4063,1.69454 4,2.01874 4,0.5 0,-0.55 0.6199,-1 1.3776,-1 0.7576,0 1.9554,-0.6963 2.6617,-1.54733 1.0257,-1.2359 1.4498,-1.28622 2.1071,-0.25 0.6122,0.96506 0.8269,0.84912 0.8383,-0.45267 0.01,-0.9625 -0.3222,-1.75321 -0.7347,-1.75712 -0.4125,-0.004 -2.55,-1.81933 -4.75,-4.03424 -2.2,-2.21492 -5.551,-5.47421 -7.4466,-7.24288 -6.0989,-5.6905 -8.0534,-7.97685 -8.0534,-9.42083 0,-0.77716 -1.7702,-5.09895 -3.9337,-9.60397 -2.1636,-4.50503 -4.2545,-9.99096 -4.6466,-12.19096 -0.392,-2.2 -1.5048,-5.48991 -2.4728,-7.31091 -1.9044,-3.58233 -2.6759,-19.48992 -1.0683,-22.02658 1.5453,-2.43839 5.151,-0.8334 7.4333,3.30871 1.2034,2.18417 3.4742,5.10917 5.0462,6.5 3.3846,2.99469 14.7159,7.14413 16.0919,5.89276 0.5225,-0.47519 1.8725,-0.87829 3,-0.89578 1.1275,-0.0175 2.9235,-0.6925 3.9911,-1.5 1.0677,-0.80751 2.6864,-1.4682 3.5973,-1.4682 0.9108,0 4.3571,-2.5875 7.6583,-5.75 8.8225,-8.45174 9.7969,-12.21671 8.365,-32.32027 -0.6045,-8.48635 -1.6139,-19.07697 -2.243,-23.53471 -0.6292,-4.45773 -0.8599,-8.84523 -0.5127,-9.75 0.9513,-2.47913 3.877,-1.98415 7.4247,1.25615 1.747,1.59565 3.7598,3.13512 4.4728,3.42105 0.7596,0.30458 0.8306,0.55258 0.1716,0.59883 -1.7507,0.12288 7.7386,10.08101 11.1145,11.66354 1.6557,0.77618 4.3604,2.3074 6.0104,3.4027 1.65,1.09531 4.0125,2.51848 5.25,3.1626 1.2375,0.64413 2.25,1.54891 2.25,2.01063 0,0.46171 0.6025,0.83948 1.339,0.83948 0.7364,0 2.8739,1.14578 4.75,2.54617 7.5713,5.6516 23.1116,15.45383 24.5003,15.45383 0.8146,0 2.6809,0.78617 4.1474,1.74704 4.1697,2.73212 14.1033,13.1627 14.8341,15.57627 1.7321,5.7206 7.0521,8.22416 10.9881,5.17086 1.8106,-1.40456 1.7518,-1.43819 -0.874,-0.5 -3.5982,1.28562 -5.6703,1.2889 -3.6849,0.006 1.302,-0.84143 1.2832,-0.9714 -0.143,-0.98469 -1.5023,-0.014 -2.857,-1.92284 -2.857,-4.02567 0,-2.19975 3.1544,-3.83885 6.3802,-3.31536 1.9683,0.31941 3.6504,0.0852 4.0517,-0.56407 1.1437,-1.85059 4.906,-1.18965 7.8181,1.37343 3.0486,2.68326 3.5368,5.61852 1.25,7.51636 -0.825,0.68469 -1.4863,2.20229 -1.4696,3.37244 0.027,1.89345 0.1401,1.93942 1.0272,0.41777 2.3826,-4.08696 13.3629,-2.61014 15.9046,2.13915 3.258,6.0876 -4.6326,16.84103 -10.2122,13.91729 -2.3847,-1.24923 -2.2158,-3.84682 0.249,-3.84682 2.1091,0 2.691,-1.45488 1,-2.5 -0.55,-0.33992 -1,-1.49148 -1,-2.55902 0,-1.06754 -0.3721,-1.94098 -0.8268,-1.94098 -0.4548,0 -0.6985,1.4625 -0.5416,3.25 0.1569,1.7875 0.046,2.46038 -0.2474,1.49529 -0.4825,-1.58955 -0.7349,-1.61308 -2.6809,-0.25 -2.9587,2.07233 -4.9851,1.88442 -6.5407,-0.60652 l -1.3185,-2.11123 -1.5378,2.1955 c -1.6739,2.38986 -1.093,3.4124 2.5689,4.5217 1.6271,0.49288 2.1597,0.37078 1.691,-0.38761 -1.1326,-1.83259 0.3657,-1.25129 2.9458,1.14287 1.3336,1.2375 2.5515,3.375 2.7064,4.75 0.252,2.23697 -0.087,2.50485 -3.2184,2.5461 -3.0351,0.04 -3.5416,0.40123 -3.8135,2.71982 -0.3298,2.81298 0.7497,4.10638 11.7101,14.03013 5.6924,5.15393 5.9143,6.25465 2.6122,12.95395 -0.7455,1.5125 -0.94,2.75 -0.4322,2.75 0.5079,0 0.9234,0.60277 0.9234,1.33948 0,0.73672 1.1284,1.85363 2.5076,2.48203 1.3792,0.6284 3.2338,2.83813 4.1213,4.91052 2.7314,6.37751 3.0106,6.75832 5.1944,7.08375 1.1655,0.17368 3.1081,-0.60557 4.3168,-1.73166 1.8338,-1.70841 2.0196,-2.43828 1.1222,-4.40787 -2.0031,-4.39614 1.7092,-5.78535 5.4877,-2.05363 3.119,3.08041 0.1879,10.8189 -4.9579,13.0892 -2.0856,0.92019 -3.7921,1.98647 -3.7921,2.36952 0,1.11676 -3.3777,0.53436 -4.8214,-0.83134 -0.7268,-0.6875 -1.9315,-1.25 -2.6772,-1.25 -0.7457,0 -2.7122,-1.64562 -4.3701,-3.65694 l -3.0144,-3.65695 -0.642,2.90695 c -1.0974,4.96947 -1.3599,5.40694 -3.2435,5.40694 -1.881,0 -4.2314,1.7775 -4.2314,3.2 0,1.15386 3.7667,0.98645 4.5,-0.2 0.995,-1.6099 4.2286,-1.14959 4.9396,0.70316 0.3594,0.93673 0.3743,3.97423 0.033,6.75 -0.6042,4.91448 -0.5395,5.08199 2.4679,6.38707 2.7614,1.19832 3.4635,1.11891 6.6311,-0.75 1.9484,-1.14963 3.7419,-2.09023 3.9855,-2.09023 1.201,0 0.2264,3.44537 -1.3072,4.62103 -1.5245,1.16863 -1.1941,1.27695 2.5636,0.8405 5.2753,-0.61273 6.5366,0.0157 5.1671,2.57458 -0.8596,1.60612 -0.6264,2.01472 1.447,2.53509 1.8497,0.46424 3.1249,-0.0329 5.0674,-1.97542 2.6557,-2.65564 4.9483,-3.30539 5.9491,-1.68602 0.9168,1.48338 -0.4388,3.85558 -2.5134,4.39808 -1.0619,0.27771 -1.8953,1.10955 -1.8518,1.84854 0.059,1.01047 0.204,1.03368 0.5833,0.0936 0.2774,-0.6875 0.9434,-1.25 1.4801,-1.25 0.5366,0 0.6975,0.45 0.3576,1 -0.9074,1.46826 0.017,1.23718 4,-1 4.8039,-2.69818 10.081,-2.65149 11.5547,0.10223 0.6188,1.15623 0.9018,2.95623 0.6288,4 -0.2729,1.04377 -0.1035,1.89777 0.3766,1.89777 0.4801,0 4.7516,3.86132 9.4924,8.58072 4.7406,4.71939 8.8276,8.37249 9.0821,8.118 0.9142,-0.91415 -0.8792,-5.6987 -2.136,-5.6987 -1.4765,0 -2.7777,-2.73941 -1.9428,-4.09024 2.0316,-3.28724 8.4442,3.14332 8.4442,8.46786 0,4.8083 -1.6446,6.62238 -6.0038,6.62238 -3.04,0 -3.806,0.33205 -3.3724,1.46193 0.3085,0.80407 1.3658,1.71738 2.3495,2.0296 0.9872,0.31333 2.0652,1.95089 2.406,3.65511 0.4659,2.32931 1.0476,2.96587 2.3691,2.59231 0.9634,-0.27232 2.4157,-0.6625 3.2273,-0.86704 0.8117,-0.20455 2.3264,-1.40926 3.366,-2.67714 1.2649,-1.5425 2.7363,-2.20423 4.4472,-2 3.0765,0.36726 4.2651,2.80523 1.3677,2.80523 -1.2342,0 -2.5878,1.15801 -3.5067,3 -1.4919,2.99048 -1.4873,3 1.4267,3 1.6079,0 2.9234,-0.49814 2.9234,-1.10699 0,-0.60884 0.6606,-0.8535 1.468,-0.54367 0.8074,0.30982 1.7339,0.13297 2.059,-0.39301 0.7741,-1.25249 5.473,-1.24194 5.473,0.0123 0,0.53273 0.7875,0.68604 1.75,0.34067 0.9625,-0.34537 1.4245,-0.26825 1.0267,0.17139 -0.3979,0.43963 0.7271,1.56237 2.5,2.49497 1.7728,0.9326 3.867,3.1196 4.6538,4.85999 0.8871,1.96245 2.1622,3.16436 3.357,3.16436 1.2336,0 1.7347,0.49979 1.3932,1.38974 -0.3563,0.92853 0.4364,1.58368 2.3887,1.97414 1.6071,0.32143 4.0826,1.34481 5.501,2.27418 2.8432,1.86298 12.7861,2.74779 11.7332,1.04413 -0.4043,-0.65412 0.057,-0.73884 1.2824,-0.23533 2.8414,1.16793 12.3494,1.2073 12.8352,0.0531 0.2324,-0.55216 0.4563,-0.4763 0.4999,0.16939 0.086,1.27904 5.8225,0.0861 9.5789,-1.99205 1.1,-0.60856 2.225,-1.15371 2.5,-1.21145 0.275,-0.0577 2.5087,-0.67945 4.9639,-1.38157 5.9298,-1.69583 10.2765,-0.85607 14.7789,2.85524 3.7384,3.08151 9.45,4.17551 10.7572,2.06044 0.3399,-0.55 1.4165,-1 2.3923,-1 2.2473,0 8.7344,-6.41018 11.132,-11 2.135,-4.08694 11.9757,-14.23111 11.9757,-12.34498 0,0.36024 0.8553,-0.11907 1.9007,-1.06515 1.0454,-0.94607 2.159,-1.30217 2.4748,-0.79135 0.3157,0.51083 2.3778,0.92878 4.5825,0.92878 2.2046,0 4.691,0.56647 5.5252,1.25881 1.2109,1.00493 1.8193,1.00773 3.0168,0.0139 1.2091,-1.00345 1.5084,-0.97872 1.5433,0.12756 0.024,0.75484 2.2626,-1.10256 4.9752,-4.12756 l 4.9318,-5.5 6.7749,0.13502 c 4.3402,0.0865 6.0561,-0.15775 4.7748,-0.67971 -1.9309,-0.78659 -1.9251,-0.81717 0.1667,-0.88502 1.1916,-0.0387 2.3936,0.49221 2.671,1.17971 0.935,2.3172 0.6715,-10.73098 -0.284,-14.0626 -0.5204,-1.81466 -0.6948,-5.41169 -0.3875,-7.99339 0.5037,-4.23079 1.4339,-5.62532 9.4269,-14.13131 l 8.8681,-9.4373 7.2694,1.01555 c 6.3304,0.88437 7.9153,0.76856 12.2694,-0.89655 10.7481,-4.11028 23.7942,-11.10168 22.7567,-12.19527 -0.4162,-0.43867 0.2078,-0.50159 1.3867,-0.13981 1.6917,0.51918 2.9032,-0.23001 5.75,-3.55578 1.9836,-2.31744 3.6066,-4.73187 3.6066,-5.36538 0,-0.63351 2.1375,-2.34157 4.75,-3.79567 2.6125,-1.45411 4.075,-2.68331 3.25,-2.73155 -0.8785,-0.0514 -0.5672,-0.46263 0.7511,-0.99251 1.2381,-0.49764 2.8613,-0.67066 3.6071,-0.38447 1.4381,0.55184 3.5909,-3.54679 4.0573,-7.7247 0.2626,-2.35115 3.2705,-8.90902 4.5222,-9.85926 0.3623,-0.275 1.6495,-1.91947 2.8605,-3.65437 1.7648,-2.52828 2.2018,-4.55978 2.2018,-10.23512 0,-5.19422 0.7993,-9.48656 3,-16.11051 1.65,-4.96637 3,-9.63224 3,-10.36859 0,-1.31908 12.6647,-13.63139 14.0216,-13.63139 0.6107,0 2.9263,-2.28564 9.1376,-9.01958 0.9125,-0.98933 1.8187,-2.62716 2.0137,-3.63961 0.195,-1.01244 0.7983,-1.85256 1.3408,-1.86692 3.0473,-0.0807 7.1134,-6.44986 4.1427,-6.4892 -0.6417,-0.008 -0.4888,-0.43737 0.3436,-0.96353 0.825,-0.52152 1.3163,-1.07712 1.0918,-1.23469 -0.7978,-0.55993 1.0152,-7.78647 1.9535,-7.78647 0.5251,0 0.9547,-0.83931 0.9547,-1.86514 0,-1.02583 0.891,-2.99787 1.98,-4.38231 5.0017,-6.35866 6.3411,-14.73971 3.9319,-24.60426 -1.0274,-4.20656 -1.5403,-7.76048 -1.1399,-7.8976 0.4004,-0.13712 0.5998,-2.38712 0.4432,-5 -0.2647,-4.4159 0.028,-5.08035 4.1555,-9.42853 2.4421,-2.57282 4.7795,-4.37282 5.1941,-4 0.4146,0.37281 0.4824,-0.0806 0.1507,-1.00755 -0.3317,-0.92697 -0.1155,-1.84794 0.4805,-2.0466 0.596,-0.19866 1.1624,-1.91524 1.2588,-3.81461 0.096,-1.89937 0.5338,-4.24663 0.9721,-5.21613 0.4937,-1.0922 0.2788,-2.39035 -0.565,-3.41263 -1.0639,-1.28893 -1.0884,-1.74192 -0.1119,-2.07059 0.6875,-0.2314 1.25,-0.85977 1.25,-1.3964 0,-0.53663 -0.4189,-0.71679 -0.9309,-0.40036 -0.512,0.31644 -1.2136,0.11799 -1.559,-0.44098 -0.3455,-0.55897 -0.1657,-1.01631 0.3995,-1.01631 0.5652,0 0.7737,-0.66177 0.4633,-1.4706 -0.5807,-1.51339 2.9423,-6.88089 3.8926,-5.93057 0.2921,0.29206 0.5148,-0.5107 0.495,-1.78391 -0.02,-1.27321 0.926,-5.8744 2.1017,-10.22488 1.1758,-4.35048 2.1378,-8.936425 2.1378,-10.190995 0,-1.25456 0.45,-2.55913 1,-2.89905 0.55,-0.33992 1,-1.72258 1,-3.07259 0,-1.35 0.3951,-3.23594 0.8779,-4.19098 2.8142,-5.56621 4.2535,-10.11172 5.1068,-16.12861 0.5284,-3.72572 1.6452,-8.08664 2.4819,-9.69093 0.8366,-1.60429 1.5239,-3.49522 1.5272,-4.20207 0,-0.70685 0.672,-2.30138 1.4858,-3.54339 2.1936,-3.34774 4.9246,-25.54758 3.476,-28.25445 -1.7809,-3.32766 -0.8443,-6.862 1.9221,-7.25327 3.1878,-0.45086 6.901,-4.62813 8.1122,-9.1260398 2.1038,-7.81314004 9.0356,-10.45882 11.8889,-4.53767 0.7951,1.65 1.8226,3.78139 2.2834,4.73643 0.4608,0.95504 0.8378,2.5874398 0.8378,3.6275598 0,1.04012 0.675,2.45132 1.5,3.13601 0.825,0.68469 1.5,2.0373 1.5,3.00581 0,0.96851 0.9,1.99628 2,2.28394 2.973,0.77746 2.7881,6.45793 -0.25,7.67909 -1.6111,0.64759 0.2195,0.92239 6.4471,0.96777 7.3294,0.0534 9.4523,0.4649 13.5,2.6166 2.6416,1.40426 5.9279,3.58027 7.3029,4.83558 1.375,1.2553 4.75,3.10708 7.5,4.11506 8.6945,3.18687 14.0909,8.73326 16.3073,16.76058 0.544,1.96998 2.3945,4.85388 4.1123,6.40867 2.8833,2.60975 3.0456,3.09224 2.113,6.28116 -0.5556,1.89984 -1.4736,11.20129 -2.04,20.6699 -0.8964,14.984045 -1.358,17.932285 -3.5609,22.744125 -2.4368,5.32267 -6.3316,8.43193 -7.2208,5.76442 -0.7179,-2.15358 -4.1526,-1.21309 -4.786,1.31046 -0.3372,1.34375 -0.371,2.83498 -0.075,3.31386 0.6115,0.98936 -18.7018,20.24298 -20.3057,20.24298 -0.5743,0 -1.2855,-0.1125 -1.5806,-0.25 -0.295,-0.1375 -0.9068,0.34929 -1.3595,1.08174 -0.4527,0.73246 -4.5988,2.59859 -9.2135,4.14695 -7.7939,2.61502 -8.4027,3.01806 -8.5617,5.66825 -0.367,6.11329 -1.6319,12.35306 -2.5043,12.35306 -0.5035,0 -2.059,1.1436 -3.4567,2.54133 -5.1353,5.13527 -16.5184,6.71015 -17.8637,2.47147 -0.8672,-2.73219 -4.0375,-5.12907 -5.8595,-4.42992 -1.0908,0.4186 -1.6446,1.80463 -1.6446,4.11638 0,3.41695 -3.1203,8.8471 -4.3672,7.60016 -0.3481,-0.34801 -0.6328,0.41521 -0.6328,1.69606 0,1.28084 -1.1433,4.27969 -2.5407,6.66411 -1.5759,2.68914 -2.5116,5.76021 -2.4641,8.08786 0.042,2.0639 -0.1464,5.55255 -0.4189,7.75255 -0.4262,3.44063 -0.3399,3.68536 0.6169,1.75 0.6119,-1.2375 2.0562,-2.3022 3.2096,-2.366 1.6888,-0.0934 1.7564,-0.20506 0.3472,-0.57333 -2.2016,-0.57535 -2.2933,-1.97734 -0.1292,-1.97734 2.0056,0 6.5027,4.25387 8.3067,7.85744 2.1709,4.33635 -0.3457,14.42164 -4.4483,17.82645 -2.0117,1.66962 -1.8584,6.47348 0.4041,12.66357 1.3942,3.81424 1.5914,5.44453 0.7593,6.27665 -0.6183,0.61825 -1.1644,4.00509 -1.2136,7.5263 -0.049,3.53607 -0.6517,7.07965 -1.3453,7.91543 -0.6907,0.83227 -0.9656,1.98293 -0.6108,2.55703 0.3548,0.57409 0.2238,1.0438 -0.291,1.0438 -0.5149,0 -0.7173,1.94276 -0.4496,4.31725 0.5411,4.80106 -2.3526,11.71493 -7.1917,17.18275 -4.2355,4.78572 -8.282,9.9158 -8.6766,11 -0.2002,0.55 -0.6741,0.89664 -1.0531,0.77031 -0.3789,-0.12632 -0.9715,0.66021 -1.3167,1.74786 -0.3452,1.08765 -2.556,3.30428 -4.9128,4.92584 -4.0497,2.78625 -4.3297,3.2948 -5.0936,9.25215 -1.4611,11.39427 -1.2875,14.12349 1.0405,16.35216 1.9928,1.90784 2.046,2.31834 0.7763,5.98578 -0.7497,2.16561 -2.5193,4.85936 -3.9324,5.98612 -1.9552,1.55899 -2.6879,3.23553 -3.0657,7.01422 -0.273,2.73106 -2.0357,11.49056 -3.9171,19.46556 -1.8814,7.975 -3.6567,15.5502 -3.9452,16.83379 -0.3301,1.46921 -0.1391,2.09565 0.5157,1.69098 0.5721,-0.35354 1.0401,0.0364 1.0401,0.86652 0,0.83013 -0.6461,1.87091 -1.4358,2.31285 -0.7897,0.44193 -1.6461,1.92679 -1.9031,3.29969 -0.5585,2.98339 -1.6501,7.77824 -2.3612,10.3714 -0.3309,1.20692 -0.1196,1.63137 0.593,1.19098 1.7318,-1.07033 1.2971,1.57438 -0.4714,2.8675 -1.4316,1.0468 -3.6928,10.63634 -4.8496,20.56629 -0.2243,1.925 -0.9277,4.85 -1.5631,6.5 -0.6422,1.66719 -0.8851,4.81101 -0.5469,7.07638 0.6546,4.38469 -0.1154,7.75579 -1.5667,6.85886 -0.4923,-0.3043 -0.8952,0.092 -0.8952,0.88074 0,0.78871 -0.2952,2.91024 -0.6561,4.71451 -0.4713,2.35662 -0.3305,3.07927 0.5,2.56598 0.6359,-0.39298 1.1561,-0.23795 1.1561,0.34451 0,0.58246 -0.4611,1.05902 -1.0247,1.05902 -1.6161,0 -3.2402,5.13508 -2.0125,6.36284 1.2608,1.26079 1.3835,2.96925 0.1589,2.21241 -0.483,-0.29853 -1.193,0.91241 -1.5777,2.69098 -1.1724,5.41932 -7.5705,38.894 -8.4916,44.4273 -0.4755,2.85644 -1.1684,5.68513 -1.5397,6.28598 -1.3873,2.24468 -2.4021,19.16907 -1.2951,21.5987 0.8951,1.96461 0.5589,3.45206 -1.9545,8.64728 -3.0923,6.3917 -5.4577,15.77771 -3.2193,12.77451 1.5074,-2.02245 0.3567,3.41205 -1.535,7.25 -0.7455,1.5125 -0.9821,2.75 -0.5258,2.75 0.4564,0 0.5944,0.9 0.3068,2 -0.2877,1.1 -0.9361,2 -1.4409,2 -0.5061,0 -0.6862,2.35502 -0.4014,5.25 0.3272,3.32756 0.2249,4.33455 -0.2795,2.75 -0.7398,-2.32402 -0.8462,-2.21842 -1.5119,1.5 -0.3938,2.2 -1.0899,5.90034 -1.5469,8.22298 -0.4623,2.34989 -0.449,3.98701 0.03,3.69098 0.4735,-0.2926 0.8539,0.73206 0.8455,2.27702 -0.011,1.95602 -0.2764,2.39702 -0.875,1.45226 -1.2257,-1.93439 -2.3097,0.14016 -2.3097,4.42029 0,1.88699 -0.405,3.18059 -0.9,2.87467 -0.495,-0.30593 -0.9,1.17578 -0.9,3.29268 0,2.11691 -0.6983,6.52997 -1.5518,9.80681 -0.8535,3.27684 -1.3383,6.7746 -1.0772,7.7728 0.261,0.9982 -0.1657,3.34724 -0.9482,5.22009 -0.7825,1.87285 -1.4228,5.21964 -1.4228,7.4373 0,2.21767 -0.4411,4.03212 -0.9803,4.03212 -0.5412,0 -0.8077,1.79159 -0.595,4 0.2119,2.2 0.029,4 -0.4062,4 -0.4353,0 -0.9861,1.32623 -1.224,2.94719 -0.2379,1.62095 -0.064,2.71939 0.3865,2.44098 0.4504,-0.27841 0.819,-0.0562 0.819,0.4938 0,0.55 -0.4303,1.26596 -0.9563,1.59104 -0.526,0.32507 -0.6854,1.29704 -0.3543,2.15994 0.3311,0.86289 0.079,1.89212 -0.5601,2.28717 -0.6392,0.39504 -1.3837,2.48713 -1.6544,4.64907 -0.7433,5.93549 -1.1673,8.2544 -3.0047,16.43081 -4.0734,18.12651 -4.835,22.66239 -4.7014,28 0.062,2.475 -0.5357,5.49667 -1.3281,6.71482 -1.659,2.55042 -1.9083,4.69224 -0.4407,3.78518 0.55,-0.33992 1,0.11008 1,1 0,0.88992 -0.4257,1.35496 -0.9459,1.03342 -0.9443,-0.5836 -3.0379,5.40282 -3.0485,8.71658 0,1.12297 -0.8118,1.77829 -2.2556,1.82895 -1.4973,0.0525 -1.7541,0.27357 -0.7678,0.66071 3.2021,1.25691 3.9762,2.87472 2.431,5.08083 -0.8043,1.1483 -1.5638,3.79595 -1.6878,5.88366 -0.124,2.08772 -0.5695,4.05151 -0.9901,4.36399 -1.1605,0.86214 -3.7406,16.75448 -3.0234,18.62333 0.4201,1.09494 0.2408,1.39731 -0.5419,0.91356 -0.7769,-0.48011 -1.17,0.13678 -1.17,1.83595 0,1.40746 -0.4766,2.55902 -1.059,2.55902 -0.5825,0 -0.7809,-0.45 -0.441,-1 0.3399,-0.55 0.1415,-1 -0.441,-1 -1.3884,0 -1.349,1.31 0.082,2.74149 1.1614,1.16138 -0.5125,12.11189 -5.1603,33.75851 -1.0628,4.95 -2.3933,11.475 -2.9567,14.5 -0.5633,3.025 -1.7547,9.1 -2.6476,13.5 -0.8928,4.4 -1.6088,9.11868 -1.5912,10.48596 0.018,1.36727 -0.4218,3.33408 -0.9765,4.37067 -0.7166,1.33895 -0.6902,1.6879 0.091,1.20503 0.6048,-0.37383 1.0997,-0.20314 1.0997,0.37932 0,0.58246 -0.3375,1.06253 -0.75,1.06682 -1.5549,0.0162 -3.0515,5.1645 -2.9035,9.9884 0.084,2.7534 -0.2358,5.1355 -0.7116,5.2934 -0.4758,0.1579 -1.3599,3.9824 -1.9646,8.4988 -0.6047,4.5164 -1.3953,8.2116 -1.757,8.2116 -0.3617,0 -0.5218,2.032 -0.3558,4.5156 0.2027,3.0307 -0.052,4.297 -0.7736,3.8508 -0.7244,-0.4477 -0.8516,0.2275 -0.3896,2.0682 0.4466,1.7796 0.3254,2.5102 -0.3475,2.0943 -0.5925,-0.3662 -1.0585,0.3449 -1.0922,1.6662 -0.1703,6.6742 -0.52,9.8049 -1.0951,9.8049 -0.3524,0 -0.8875,1.4625 -1.1893,3.25 -0.3017,1.7875 -1.5067,7.75 -2.6778,13.25 -1.1711,5.5 -2.5225,12.025 -3.0031,14.5 -0.4806,2.475 -1.5756,7.65 -2.4332,11.5 -0.8576,3.85 -2.0367,9.7 -2.6202,13 -0.5836,3.3 -1.2587,6.9 -1.5003,8 -0.2417,1.1 -0.8519,4.025 -1.356,6.5 -0.5042,2.475 -2.3027,11.025 -3.9968,19 -5.3414,25.1457 -6.4517,31.3633 -6.5181,36.5 -0.035,2.75 -0.4378,5.5772 -0.8938,6.2826 -0.9475,1.4656 -2.4746,6.1092 -3.6889,11.2174 -0.4576,1.925 -1.5123,6.2 -2.3438,9.5 -0.8316,3.3 -1.3216,8.025 -1.0891,10.5 0.3468,3.6902 0.2483,4.0501 -0.5472,2 -0.7946,-2.0476 -0.8804,-1.7309 -0.4742,1.75 0.3515,3.0123 0.1285,4.2545 -0.7658,4.2653 -0.7792,0.01 -0.8794,0.2963 -0.2619,0.75 1.4351,1.0544 1.8375,5.2347 0.5039,5.2347 -0.617,0 -0.8438,0.45 -0.5039,1 0.34,0.55 0.086,1 -0.5634,1 -0.832,0 -0.7755,0.4917 0.191,1.6626 1.0208,1.2366 1.0665,1.7656 0.1786,2.0646 -0.6566,0.2211 -0.9634,1.0024 -0.6818,1.7363 0.2816,0.7338 0.051,1.6191 -0.5125,1.9674 -0.5635,0.3482 -0.7987,1.2216 -0.5227,1.9409 0.276,0.7193 -0.1936,1.885 -1.0436,2.5904 -0.8501,0.7055 -1.5456,2.071 -1.5456,3.0345 0,0.9635 -0.6331,3.5464 -1.407,5.7397 -0.7755,2.1982 -1.5405,8.8743 -1.7045,14.8758 -0.1637,5.9883 -0.5303,11.3378 -0.8148,11.8878 -1.4687,2.8395 -4.6917,17.618 -3.9432,18.0807 1.6034,0.9909 0.9315,4.4168 -0.8805,4.4896 -1.4964,0.06 -1.4602,0.1948 0.25,0.9297 1.4607,0.6277 1.5748,0.8784 0.4232,0.9297 -1.1725,0.052 -1.4642,0.8371 -1.1378,3.061 0.3288,2.2402 -0.028,3.1813 -1.4232,3.75 -1.0242,0.4176 -2.0144,1.4343 -2.2006,2.2593 -1.4587,6.4654 -2.4929,13.0876 -2.5276,16.1832 -0.023,2.0257 -0.3491,3.4928 -0.7256,3.2602 -0.3764,-0.2326 -1.0021,1.6958 -1.3904,4.2855 -0.4662,3.1086 -0.3343,4.8323 0.388,5.0731 1.565,0.5217 1.3537,2.198 -0.2771,2.198 -0.9005,0 -1.6062,1.8022 -2.0559,5.25 -0.3766,2.8875 -0.921,6.375 -1.2097,7.75 -0.4127,1.965 -0.297,2.179 0.5405,1 1.1911,-1.6767 1.4715,-0.1415 0.4571,2.5021 -0.4741,1.2355 -0.8367,1.3461 -1.404,0.4281 -0.816,-1.3203 -2.3681,9.9235 -2.2674,16.4259 0.039,2.5174 -0.2386,3.3853 -0.7995,2.5 -0.6022,-0.9504 -0.9191,-0.4585 -1.0592,1.6439 -0.3776,5.6665 -0.5613,7.0032 -1.1678,8.5 -0.3343,0.825 -1.0726,4.2 -1.6407,7.5 -0.5681,3.3 -1.6357,9.2483 -2.3725,13.2184 -0.9542,5.1418 -1.0246,7.3353 -0.2447,7.625 0.7741,0.2874 0.7515,0.772 -0.077,1.6535 -0.6445,0.6857 -0.9339,1.867 -0.643,2.625 0.2909,0.7579 0.073,1.3781 -0.4843,1.3781 -0.8551,0 -2.3775,6.703 -2.7256,12 -0.054,0.825 -0.4793,2.3471 -0.9447,3.3825 -0.5248,1.1674 -0.3895,2.6137 0.3561,3.8076 0.9619,1.5401 0.8906,2.5502 -0.3564,5.0497 -1.2348,2.4754 -1.296,3.2913 -0.2945,3.9271 0.8641,0.5484 0.8978,0.8073 0.1067,0.8178 -0.6367,0.01 -1.7095,2.1689 -2.3841,4.801 -0.8191,3.1957 -1.7634,4.7995 -2.8425,4.8272 -0.8887,0.023 -3.5853,0.3934 -5.9924,0.8236 -3.1248,0.5584 -4.1801,0.4643 -3.6898,-0.3291 0.4062,-0.6572 -0.4614,-1.5274 -2.1235,-2.1299 -1.5455,-0.5603 -3.7101,-1.4363 -4.8101,-1.9466 -1.1,-0.5103 -2.9,-1.0697 -4,-1.243 -1.1,-0.1734 -2,-0.8341 -2,-1.4683 0,-0.6341 -0.3375,-1.4904 -0.75,-1.9029 -1.3325,-1.3325 -0.7983,-4.2922 1.106,-6.1277 2.0593,-1.985 3.6709,-8.289 2.119,-8.289 -0.5363,0 -0.975,-0.675 -0.975,-1.5 0,-0.825 0.7015,-1.5 1.559,-1.5 0.8575,0 1.2866,-0.4407 0.9537,-0.9793 -0.3328,-0.5387 -0.1658,-1.8004 0.3713,-2.8039 0.537,-1.0035 0.6274,-2.3893 0.2008,-3.0795 -0.8569,-1.3865 0.8942,-9.1373 2.0643,-9.1373 0.4048,0 0.5475,-0.9792 0.317,-2.1759 -0.2305,-1.1967 0.093,-2.7925 0.7181,-3.5461 0.6255,-0.7536 1.2555,-3.6244 1.4,-6.3795 0.1445,-2.7551 0.6864,-5.5468 1.2042,-6.2039 1.2652,-1.6054 2.4882,-8.9566 2.6112,-15.6946 0.055,-3.025 0.6262,-5.95 1.2689,-6.5 0.6426,-0.55 1.6474,-3.925 2.2327,-7.5 0.5853,-3.575 1.7677,-10.3244 2.6275,-14.9987 0.8598,-4.6743 1.2995,-9.5495 0.9772,-10.8338 -0.4135,-1.6475 -0.2371,-2.1194 0.599,-1.6027 0.8394,0.5188 1.0374,-0.04 0.6787,-1.9162 -0.2784,-1.4567 -0.1894,-2.6486 0.198,-2.6486 0.3874,0 1.4755,-4.3875 2.4179,-9.75 0.9425,-5.3625 2.3725,-13.2927 3.1777,-17.6227 1.0158,-5.4625 1.1478,-8.2537 0.4311,-9.1173 -0.7296,-0.8791 -0.6102,-1.5955 0.4064,-2.4392 0.9799,-0.8132 1.2601,-2.2996 0.8778,-4.6554 -0.4059,-2.5016 -0.069,-4.0046 1.2146,-5.4233 0.9769,-1.0795 2.3725,-5.2318 3.1013,-9.2274 0.7288,-3.9956 3.179,-16.0397 5.4448,-26.7647 3.7969,-17.972 4.8281,-23.5041 6.4304,-34.5 0.3206,-2.2 0.8166,-5.35 1.1023,-7 0.2856,-1.65 0.6585,-5.25 0.8285,-8 0.2093,-3.3843 0.7154,-4.9064 1.5661,-4.7104 0.9194,0.2118 1.0786,-0.661 0.5929,-3.25 -0.3652,-1.9468 -0.3036,-3.5396 0.137,-3.5396 0.4406,0 0.9416,-2.5617 1.1133,-5.6926 0.1716,-3.131 0.76,-6.5295 1.3074,-7.5523 1.5309,-2.8605 4.1511,-14.7127 4.3996,-19.901 0.1224,-2.5553 0.5399,-5.1594 0.9277,-5.7869 0.3879,-0.6275 1.3641,-5.0619 2.1695,-9.8541 0.8053,-4.7922 1.9139,-10.9631 2.4636,-13.7131 0.5496,-2.75 1.434,-7.6711 1.9653,-10.9357 0.5314,-3.2646 1.4441,-7.7107 2.0283,-9.8803 0.5842,-2.1696 1.4731,-6.2485 1.9753,-9.0643 0.5023,-2.8159 1.8246,-9.3947 2.9385,-14.6197 1.1139,-5.225 3.3745,-16.475 5.0235,-25 1.649,-8.525 3.4041,-17.075 3.9002,-19 0.4962,-1.925 1.8728,-8.675 3.0592,-15 1.1863,-6.325 2.8357,-14.7819 3.6654,-18.7931 0.8296,-4.0112 1.5859,-9.9292 1.6806,-13.15106 0.095,-3.22191 0.4528,-5.6861 0.7959,-5.47597 0.343,0.21012 0.9395,-1.74689 1.3256,-4.34891 1.5066,-10.15482 2.9344,-18.03921 5.203,-28.73083 0.8169,-3.84993 1.8726,-9.69993 2.346,-13 0.7943,-5.53751 1.6555,-9.49962 4.9995,-23.00013 0.6811,-2.75 1.58,-5.69296 1.9976,-6.5399 0.4175,-0.84695 1.0651,-3.99695 1.4392,-7 0.7395,-5.9377 1.3037,-9.10662 4.9783,-27.9601 1.34,-6.875 2.977,-15.29011 3.6378,-18.70024 0.6608,-3.41013 0.9549,-6.8428 0.6535,-7.62814 -0.3014,-0.78535 -0.1587,-1.82024 0.3171,-2.29976 0.4758,-0.47953 1.5588,-4.47186 2.4066,-8.87186 0.8479,-4.4 1.9787,-10.025 2.5131,-12.5 0.5343,-2.475 2.1671,-11.25 3.6285,-19.5 1.4613,-8.25 3.0326,-15.9 3.4917,-17 0.815,-1.95287 3.5762,-13.97729 5.9706,-26 0.6572,-3.3 1.9978,-8.7 2.9793,-12 3.294,-11.07645 4.4152,-17.44155 5.3284,-30.25 0.088,-1.2375 0.4469,-2.25 0.797,-2.25 0.3501,0 0.8594,-1.2375 1.1318,-2.75 0.2724,-1.5125 1.4722,-8.15 2.6661,-14.75 3.045,-16.83261 3.078,-17.24479 1.4857,-18.56633 -2.595,-2.15361 -1.6988,-7.41087 2.0225,-11.86499 2.4357,-2.9154 3.6216,-5.50219 4.0546,-8.84461 0.3366,-2.59824 0.8952,-5.84907 1.2413,-7.22407 0.3461,-1.375 0.5749,-4.3 0.5085,-6.5 -0.1111,-3.6796 -0.061,-3.7597 0.6248,-1 0.6365,2.56103 0.8593,2.00434 1.5223,-3.80447 0.4272,-3.74246 1.1551,-8.12389 1.6176,-9.73651 0.4625,-1.61263 0.4974,-3.14435 0.078,-3.40383 -0.4198,-0.25947 -1.8128,2.87449 -3.0954,6.96436 -2.1666,6.90851 -6.3252,12.98625 -13.1451,19.21162 -7.8405,7.15689 -10.5455,9.31301 -13.6842,10.90739 -2.0155,1.02379 -3.8155,2.20174 -4,2.61767 -0.1845,0.41593 -0.7247,0.51565 -1.2005,0.2216 -0.4758,-0.29405 -2.7998,0.33729 -5.1646,1.40299 -2.3647,1.06569 -4.9409,2.11729 -5.7249,2.33688 -1.5833,0.44346 -5.2481,12.16655 -4.452,14.24112 0.3001,0.78209 -0.7329,1.86502 -2.5436,2.6665 -1.6769,0.74227 -3.4443,2.48384 -3.9276,3.87017 -1.0487,3.00852 -3.4328,4.27321 -12.3734,6.56392 -3.9626,1.01528 -6.464,2.1396 -6.0936,2.73895 0.3902,0.63127 -0.2257,0.79336 -1.6245,0.42756 -2.7566,-0.72087 -5.2714,0.12288 -4.4289,1.486 0.3799,0.61477 -0.1697,0.75186 -1.4216,0.35454 -1.1226,-0.3563 -2.3495,-0.14883 -2.7264,0.46104 -0.3769,0.60986 -1.3004,0.87282 -2.0521,0.58435 -0.7518,-0.28848 -1.6538,-0.0601 -2.0046,0.50746 -0.3508,0.56759 -2.2777,0.89671 -4.2821,0.73139 -8.5727,-0.70709 -15.0068,3.38275 -32.8785,20.8993 -3.5073,3.4375 -7.0268,6.25 -7.8212,6.25 -0.7945,0 -1.4476,0.3375 -1.4513,0.75 0,0.4125 -1.6913,1.87441 -3.75,3.24869 -6.7059,4.47641 -6.7238,4.51588 -6.9765,15.42758 -0.1552,6.69879 0.072,9.40368 0.6797,8.07373 0.913,-2 0.913,-2 0.968,0 0.03,1.1 -0.3468,2.63474 -0.8379,3.41052 -0.551,0.87032 -0.453,2.11501 0.2558,3.25 0.8743,1.39996 0.8524,2.31411 -0.092,3.82591 -1.4943,2.39283 -1.6971,10.4138 -0.2405,9.51357 1.4328,-0.88553 1.2329,1.70724 -0.393,5.09636 -0.8915,1.85847 -1.6308,8.48291 -2.0538,18.40364 -0.3635,8.525 -1.3621,19.0352 -2.2191,23.35601 -1.1378,5.73635 -1.3832,10.593 -0.9097,18 0.6573,10.28195 0.6848,29.65825 0.044,30.69577 -0.5222,0.84489 -1.8256,29.20262 -1.7826,38.78299 0.021,4.58412 -0.3056,7.77982 -0.7248,7.10154 -0.4192,-0.67827 -1.0576,2.32108 -1.4188,6.66523 -0.3611,4.34415 -1.1264,10.14846 -1.7007,12.89846 -0.5743,2.75 -1.2171,9.725 -1.4283,15.5 -0.2113,5.775 -0.8406,13.79506 -1.3985,17.82236 -1.204,8.69111 -1.2137,14.87512 -0.014,9.17764 l 0.7367,-3.5 0.1317,4.30902 c 0.072,2.36996 -0.2704,4.06057 -0.7617,3.75691 -1.079,-0.66682 -1.8661,2.21775 -2.5902,9.49227 -1.07,10.7484 -2.6201,23.575 -3.7325,30.8837 -0.838,5.5062 -0.8402,7.5394 -0.01,7.8166 0.7177,0.2393 0.8319,1.1641 0.3159,2.5581 -0.6776,1.8303 -2.2829,11.3957 -3.4249,20.4076 -0.155,1.2234 -0.5934,2.5359 -0.9742,2.9167 -1.0859,1.0859 -0.8098,4.5497 0.3075,3.8591 0.55,-0.3399 1,0.1101 1,1 0,0.8899 -0.3628,1.3938 -0.8062,1.1197 -0.4435,-0.274 -1.7776,4.3119 -2.9648,10.191 -2.4712,12.2377 -6.1696,28.0743 -9.2642,39.6697 -1.1714,4.3893 -1.958,9.4518 -1.7481,11.25 0.2099,1.7983 0.073,3.2696 -0.304,3.2696 -0.6754,0 -1.2127,2.1219 -2.7857,11 -0.9154,5.1669 -3.1631,13.0298 -4.145,14.5 -0.3673,0.55 -0.7632,3.2131 -0.8797,5.9181 -0.1165,2.7049 -0.6091,5.6604 -1.0947,6.5677 -0.4855,0.9072 -1.5816,5.6691 -2.4358,10.5819 -0.8542,4.9127 -2.4062,12.0038 -3.449,15.7578 -1.0429,3.754 -1.669,7.6939 -1.3914,8.7553 0.2776,1.0614 -0.01,2.5437 -0.6273,3.2938 -0.6227,0.7502 -1.2017,4.0103 -1.2869,7.2447 -0.085,3.2344 -0.7006,6.5557 -1.3677,7.3807 -1.9573,2.4206 -2.6185,5.6709 -2.6598,13.0758 -0.021,3.8281 -0.4328,7.2037 -0.9143,7.5012 -0.4815,0.2976 -0.8754,3.0376 -0.8754,6.089 0,4.5207 0.2778,5.4414 1.5,4.9724 1.363,-0.5231 1.6863,-0.035 1.4,2.1116 -0.055,0.4125 -0.3925,0.6752 -0.75,0.5837 -0.3575,-0.091 -0.636,2.8336 -0.6188,6.5 0.017,3.6665 -0.2939,9.5913 -0.6912,13.1663 -0.5422,4.8791 -0.3722,7.0382 0.6818,8.6583 1.2027,1.8487 1.2035,2.3248 0,3.3191 -0.7693,0.6384 -1.6837,2.4586 -2.0321,4.0447 -0.3484,1.5862 -1.4352,3.9176 -2.4152,5.1809 -6.0122,7.7507 -6.9676,14.5153 -5.7868,40.9726 0.5234,11.7284 1.0643,25.1494 1.202,29.8244 1.2528,42.5377 1.9506,52.5394 3.8276,54.8564 0.6831,0.8432 0.996,5.2708 0.8271,11.7019 -0.1611,6.1309 0.1748,11.1798 0.8244,12.3935 0.8401,1.5699 0.796,2.0518 -0.1891,2.0635 -0.7892,0.01 -0.8992,0.2988 -0.2851,0.75 0.55,0.4041 1.6039,1.8075 2.3421,3.1187 1.1229,1.9945 1.1229,2.523 0,3.2347 -0.9985,0.6329 -1.0221,0.8546 -0.092,0.866 0.6875,0.01 1.25,0.4653 1.25,1.0153 0,0.55 -0.675,1 -1.5,1 -2.7881,0 -1.7373,7.2103 2.4227,16.6237 5.3675,12.1456 5.9622,15.8055 3.0685,18.8857 -1.3188,1.4038 -2.3422,3.8772 -2.4691,5.9671 -0.2202,3.6261 -3.7318,8.5235 -6.1116,8.5235 -0.6825,0 -2.49,-1.3234 -4.0167,-2.941 -1.5267,-1.6175 -3.0658,-2.7617 -3.4203,-2.5426 -0.3544,0.219 -0.7382,11.33 -0.8529,24.6909 -0.144,16.7695 -0.6381,25.996 -1.5954,29.7927 -0.7627,3.025 -1.9496,7.7204 -2.6375,10.4342 -1.3707,5.4076 -1.5193,20.557 -0.4663,47.5658 1.154,29.6035 1.1339,31.3149 -0.3736,31.8174 -0.9592,0.3197 -1.1631,-0.074 -0.6842,-1.3224 0.5295,-1.3798 0.3911,-1.5363 -0.618,-0.6988 -0.884,0.7337 -18.4925,1.179 -55.0214,1.3914 -29.5467,0.1718 -53.722,0.5988 -53.7228,0.9487 -0.001,0.6592 -18.9693,0.8949 -22.5014,0.2797 z M 28.984224,734.16748 c 0,-0.24254 -0.45,-0.44098 -1,-0.44098 -0.55,0 -1,0.47656 -1,1.05902 0,0.58246 0.45,0.7809 1,0.44098 0.55,-0.33992 1,-0.81648 1,-1.05902 z M 768.55002,479.42172 c 0.9185,-4.38184 1.0842,-7.91916 0.5081,-10.84855 -0.5747,-2.92247 -0.9125,-3.52754 -1.0308,-1.84667 -0.097,1.375 -0.7228,6.65418 -1.3911,11.7315 -1.3611,10.34121 -0.1769,10.93752 1.9138,0.96372 z m 2.0965,-12.94522 c -0.2774,-0.6875 -0.5044,-0.125 -0.5044,1.25 0,1.375 0.227,1.9375 0.5044,1.25 0.2774,-0.6875 0.2774,-1.8125 0,-2.5 z m 3.0063,-15.61179 c -0.2387,-1.29899 0.1854,-3.54899 0.9425,-5 0.7571,-1.45102 1.3909,-3.76321 1.4084,-5.13821 0.017,-1.375 0.9087,-6.325 1.9805,-11 2.2686,-9.89573 2.4596,-12.4021 0.8703,-11.41982 -0.6919,0.42762 -0.9341,0.15983 -0.625,-0.69098 0.2776,-0.76406 0.944,-1.29902 1.4809,-1.18879 0.537,0.11022 1.5049,-3.26478 2.151,-7.5 0.6462,-4.23523 1.6315,-10.36543 2.1897,-13.62267 0.5582,-3.25725 0.7856,-6.51975 0.5054,-7.25 -0.2803,-0.73026 -0.1351,-1.32774 0.3224,-1.32774 0.4576,0 1.3764,-2.8125 2.0417,-6.25 0.6653,-3.4375 1.4906,-7.375 1.8339,-8.75 0.3434,-1.375 0.709,-4.975 0.8126,-8 0.1035,-3.025 0.718,-8.35923 1.3655,-11.85383 0.6475,-3.49461 0.9882,-6.54289 0.7572,-6.77395 -0.2311,-0.23106 -1.3674,2.17816 -2.5251,5.35383 -1.9728,5.4114 -4.107,19.37794 -4.1678,27.27395 -0.042,5.38785 -0.2837,7 -1.0516,7 -0.388,0 -1.0095,1.9125 -1.3811,4.25 -0.3716,2.3375 -0.886,5.375 -1.1432,6.75 -0.41,2.19211 -0.3511,2.25369 0.4776,0.5 0.8569,-1.8135 0.9516,-1.74649 1.0153,0.71862 0.05,1.94069 -0.3318,2.56433 -1.3347,2.17944 -0.9675,-0.37125 -1.6172,0.495 -2.0861,2.78139 -1.2781,6.23109 -5.4854,18.85512 -7.111,21.33602 -1.104,1.68491 -1.4226,3.53932 -0.9975,5.80553 0.3436,1.83141 0.5675,7.79589 0.4975,13.25441 -0.1905,14.85701 -0.3392,17.42459 -1.0092,17.42459 -0.3363,0 -0.3733,1.2375 -0.082,2.75 0.4444,2.31045 0.7501,1.79098 1.9126,-3.25 0.7611,-3.3 1.1884,-7.06281 0.9497,-8.36179 z m -353.8589,-35.43463 c -2.5797,-2.31373 -5.1387,-5.33107 -5.6866,-6.70519 -0.996,-2.49768 -0.9963,-2.49773 -1.0597,-0.17696 -0.1109,4.061 -2.6747,0.21421 -3.5682,-5.35383 -0.6155,-3.83538 -0.9337,-4.44133 -1.3962,-2.65858 -0.3294,1.26996 -1.0397,2.16996 -1.5783,2 -1.3026,-0.411 -1.7381,5.99148 -0.7364,10.8259 l 0.8008,3.86508 7.4574,1.12052 c 4.1016,0.61629 8.1325,1.15862 8.9575,1.20519 0.825,0.0466 -0.6106,-1.80839 -3.1903,-4.12213 z M 316.28832,398.4765 c 3.6331,-3.39589 7.5499,-18.01603 5.4912,-20.49668 -1.6528,-1.99142 -3.4613,-1.45729 -3.3747,0.99668 0.1815,5.14398 -11.0675,2.17306 -13.204,-3.48724 -0.8566,-2.26937 -0.8763,-3.4679 -0.073,-4.43612 0.8035,-0.96818 0.7977,-1.32664 -0.022,-1.32664 -0.6173,0 -1.1224,0.34971 -1.1224,0.77714 0,0.42743 -1.35,2.2552 -3,4.06172 -1.65,1.80652 -3,3.63457 -3,4.06234 0,0.42777 -1.2021,1.3255 -2.6714,1.99494 l -2.6714,1.21717 2.9214,1.8404 c 2.4675,1.55447 9.2553,8.49735 14.9545,15.29629 1.9205,2.29115 2.8732,2.2086 5.771,-0.5 z m 96.9459,-147.16667 c 0.1375,-0.50416 -0.3125,-1.10416 -1,-1.33333 -0.6875,-0.22917 -1.25,0.33333 -1.25,1.25 0,1.69335 1.7928,1.75975 2.25,0.0833 z"
     id="path2987"
     inkscape:connector-curvature="0" />
</svg>
