<?xml version="1.0" encoding="UTF-8" standalone="no"?>
<!-- Created with Inkscape (http://www.inkscape.org/) -->

<svg
   xmlns:dc="http://purl.org/dc/elements/1.1/"
   xmlns:cc="http://creativecommons.org/ns#"
   xmlns:rdf="http://www.w3.org/1999/02/22-rdf-syntax-ns#"
   xmlns:svg="http://www.w3.org/2000/svg"
   xmlns="http://www.w3.org/2000/svg"
   xmlns:sodipodi="http://sodipodi.sourceforge.net/DTD/sodipodi-0.dtd"
   xmlns:inkscape="http://www.inkscape.org/namespaces/inkscape"
   id="svg2"
   version="1.1"
   inkscape:version="0.48.2 r9819"
   width="899.84131"
   height="1284.0415"
   sodipodi:docname="magazineofart16londuoft_0156g.png">
  <metadata
     id="metadata8">
    <rdf:RDF>
      <cc:Work
         rdf:about="">
        <dc:format>image/svg+xml</dc:format>
        <dc:type
           rdf:resource="http://purl.org/dc/dcmitype/StillImage" />
        <dc:title></dc:title>
      </cc:Work>
    </rdf:RDF>
  </metadata>
  <defs
     id="defs6" />
  <sodipodi:namedview
     pagecolor="#ffffff"
     bordercolor="#666666"
     borderopacity="1"
     objecttolerance="10"
     gridtolerance="10"
     guidetolerance="10"
     inkscape:pageopacity="0"
     inkscape:pageshadow="2"
     inkscape:window-width="1920"
     inkscape:window-height="1176"
     id="namedview4"
     showgrid="false"
     fit-margin-top="0"
     fit-margin-left="0"
     fit-margin-right="0"
     fit-margin-bottom="0"
     inkscape:zoom="0.70710678"
     inkscape:cx="331.99913"
     inkscape:cy="770.415"
     inkscape:window-x="0"
     inkscape:window-y="24"
     inkscape:window-maximized="1"
     inkscape:current-layer="svg2" />
  <path
     style="fill:#000000"
     d="m 649.99998,1282.9116 c -12.9237,-5.8087 -16.7101,-7.7826 -18,-9.3836 -0.825,-1.024 -5.2044,-6.4475 -9.7321,-12.0523 -8.5593,-10.5956 -10.1925,-14.2621 -10.2435,-22.9961 -0.014,-2.305 0.3665,-4.4326 0.8442,-4.7278 0.4778,-0.2953 1.172,-2.4333 1.5426,-4.7512 0.8472,-5.2981 3.5608,-13.9027 4.9438,-15.6763 0.5773,-0.7405 1.1237,-5.4655 1.214,-10.5 0.09,-5.0345 0.5047,-10.6452 0.9206,-12.4682 1.1806,-5.174 -1.2304,-14.755 -6.3378,-25.1855 l -4.6518,-9.5 -0.3282,-12.6884 c -0.3731,-14.4224 -0.1972,-14.0635 -10.4409,-21.2947 -9.3749,-6.6179 -9.9016,-10.0565 -2.147,-14.0169 2.1539,-1.1 4.0948,-2.1037 4.3132,-2.2304 0.2183,-0.1267 -0.9921,-4.6267 -2.6899,-9.9999 -1.6978,-5.3733 -3.6028,-12.4696 -4.2333,-15.7696 -0.6304,-3.3 -1.5078,-6.7018 -1.9497,-7.5596 -0.4418,-0.8578 -1.3305,-4.0987 -1.9747,-7.202 -0.8017,-3.8618 -1.7353,-5.8213 -2.9584,-6.2095 -1.9311,-0.6129 -6.3563,-5.8278 -9.9176,-11.6875 -1.223,-2.0122 -3.576,-8.9399 -5.229,-15.3949 -1.653,-6.455 -3.3116,-12.2316 -3.6858,-12.837 -0.6819,-1.1034 -1.9286,-7.6223 -2.8896,-15.1096 -0.2936,-2.2873 0.3738,-8.04765 1.5587,-13.45315 2.6197,-11.951 2.5957,-13.6419 -0.2319,-16.3445 -1.2673,-1.2113 -3.304,-3.6382 -4.526,-5.3932 -1.222,-1.7549 -3.2227,-3.5021 -4.4459,-3.8826 -3.6196,-1.126 -9.9849,-7.3503 -13.5355,-13.2357 -3.5061,-5.8116 -5.1678,-12.5417 -5.7259,-23.1908 -0.2893,-5.52084 -0.8191,-10.72223 -1.3336,-13.09444 -0.071,-0.32695 -2.6134,-3.1595 -5.6499,-6.29456 -4.8172,-4.9736 -5.5006,-6.17241 -5.3616,-9.40556 0.2408,-5.60349 -3.2684,-17.14596 -6.751,-22.20544 -5.3798,-7.81582 -7.9965,-14.13539 -11.1797,-27 -3.558,-14.37992 -3.9095,-16.461 -4.7222,-27.95682 -0.5353,-7.57325 -2.7007,-18.61263 -3.8828,-19.79469 -0.9909,-0.9909 -2.5818,1.01267 -2.5818,3.25151 0,1.31008 -0.45,2.66008 -1,3 -0.55,0.33992 -1.0025,2.50398 -1.0056,4.80902 0,2.30504 -0.4548,5.80839 -1.004,7.78523 -0.5491,1.97683 -1.6449,6.92683 -2.435,11 -3.2716,16.86579 -4.4322,21.10322 -6.6863,24.41322 -1.303,1.91338 -2.6418,3.48194 -2.9751,3.4857 -0.8788,0.01 -8.894,10.90407 -8.894,12.08853 0,0.54961 1.0125,2.3689 2.25,4.04287 3.4207,4.62716 2.9862,13.33896 -1.1046,22.15047 -1.73,3.72628 -3.1473,7.10128 -3.1497,7.5 0,0.39873 -1.88,3.19921 -4.1726,6.2233 -5.6066,7.39558 -6.651,11.42448 -6.31,24.34136 l 0.2847,10.7811 4.9149,4.7874 c 2.7033,2.6331 5.7863,6.5434 6.8511,8.6896 2.1485,4.3301 2.2225,8.5525 1.0149,57.90215 -0.5835,23.8452 -0.7259,25.2426 -3.0823,30.2501 -2.2774,4.8395 -2.7399,5.25 -5.9161,5.25 -3.8351,0 -3.7011,-0.2428 -5.6864,10.2997 -1.0442,5.5445 -1.0417,7.575 0.013,11 2.3908,7.7618 2.4276,12.5041 0.1554,20.0478 -1.1848,3.9338 -2.5836,7.9338 -3.1084,8.8888 -0.5248,0.9551 -0.957,2.5301 -0.9604,3.5 0,0.97 -0.7452,3.1136 -1.6486,4.7636 -1.9603,3.5804 -3.1783,10.06 -3.9943,21.25 l -0.6017,8.25 2.5687,0 c 3.6478,0 5.6821,3.4362 5.6821,9.5977 0,5.0744 -2.9357,12.6581 -9.2528,23.9023 -1.8506,3.294 -2.3061,5.8675 -2.5812,14.581 l -0.334,10.581 4.1294,4.2979 c 5.2259,5.439 7.5515,10.0858 8.5284,17.0401 1.3524,9.6284 0.2323,22.361 -2.5675,29.1854 -1.0573,2.5769 -1.9223,5.7553 -1.9223,7.0629 0,3.6475 -4.8919,7.7517 -9.2396,7.7517 -1.9966,0 -4.8337,0.4576 -6.3046,1.0168 -1.7695,0.6728 -3.8701,0.6867 -6.2078,0.041 -2.2898,-0.6322 -4.1729,-0.6334 -5.3502,0 -0.9992,0.5348 -4.9665,1.0977 -8.8162,1.251 -3.8497,0.1534 -7.3179,0.5973 -7.7072,0.9865 -0.3892,0.3893 -5.9202,0.7103 -12.2911,0.7134 -10.7619,0.01 -16.6447,0.8114 -21.5833,2.958 -6.5073,2.8285 -13.1319,3.2847 -45.8534,3.1579 -18.6193,-0.072 -34.3693,-0.4514 -35,-0.8427 -0.6306,-0.3913 -5.1966,-1.0777 -10.1466,-1.5254 -20.5969,-1.8627 -20.4432,-1.8343 -22.0057,-4.065 -1.8911,-2.6999 -1.8895,-3.6884 0.01,-3.6884 1.9252,0 1.8949,-0.9911 -0.1181,-3.8651 -1.4128,-2.0171 -1.4612,-3.0915 -0.3814,-8.4725 2.7301,-13.6048 3.9862,-16.722 7.597,-18.8524 1.8714,-1.1042 3.4025,-2.3409 3.4025,-2.7483 0,-0.9968 4.5983,-3.11 9.5,-4.3657 4.9211,-1.2607 19.135,-1.2203 30.5,0.087 10.3705,1.1926 12.621,0.3683 21.4229,-7.8462 7.0288,-6.5597 17.1092,-12.9246 23.5771,-14.887 6.8895,-2.0903 8.8172,-3.6568 10.0265,-8.1481 0.7044,-2.6156 2.6908,-5.6451 5.4776,-8.3535 6.4235,-6.2429 8.6601,-11.0705 7.854,-16.9521 -0.5838,-4.2589 -1.0391,-4.9426 -4.2559,-6.3906 -4.5952,-2.0686 -8.1022,-5.1277 -8.1022,-7.0676 0,-0.8326 1.0125,-3.0011 2.25,-4.8189 1.6259,-2.3883 3.0128,-3.3069 5,-3.3119 2.5405,-0.01 2.75,-0.3115 2.75,-4.0068 0,-2.3325 0.4763,-4 1.1425,-4 1.1838,0 1.0454,-2.3211 -1.192,-20 -0.5917,-4.675 -1.2184,-16.6 -1.3926,-26.4999 -0.2465,-14.0105 -0.7672,-19.7731 -2.3494,-26 -1.118,-4.4 -2.5197,-10.475 -3.1149,-13.5 -3.1879,-16.2023 -4.0301,-52.7724 -1.5316,-66.50005 1.5672,-8.6106 2.2314,-46.999 0.9688,-56 -0.3857,-2.75 -1.7463,-7.025 -3.0235,-9.5 -4.2542,-8.24346 -7.5084,-19.65726 -7.4902,-26.27105 0.027,-9.74244 5.3114,-26.95984 8.9686,-29.22012 0.5579,-0.34477 1.0143,-1.63531 1.0143,-2.86785 0,-1.23254 0.4633,-2.70427 1.0295,-3.2705 0.5663,-0.56624 1.1672,-4.36874 1.3355,-8.45 0.1683,-4.08127 0.4333,-7.87048 0.5889,-8.42048 0.946,-3.34364 -1.1788,-4.49033 -4.7175,-2.54585 -1.5768,0.86647 -8.9436,3.07763 -19.8524,5.95876 -2.2638,0.5979 -10.8418,1.08709 -19.0622,1.08709 -12.9135,0 -15.5497,-0.27685 -19.384,-2.0357 -8.5233,-3.90975 -9.6217,-5.10349 -8.566,-9.30952 0.6355,-2.53213 0.9664,-2.65478 7.1608,-2.65478 3.572,0 7.2759,-0.41404 8.231,-0.92009 2.1028,-1.11423 11.2424,-4.47932 16.7364,-6.16216 2.2,-0.67387 5.3568,-1.80197 7.015,-2.50689 1.6583,-0.70493 4.1333,-1.72685 5.5,-2.27095 1.3668,-0.5441 5.185,-3.05156 8.485,-5.57214 3.3,-2.52058 8.1927,-5.68795 10.8726,-7.03859 5.8905,-2.96871 11.5239,-9.28027 12.7836,-14.32262 0.5093,-2.03861 1.1332,-20.13156 1.3864,-40.20656 0.2533,-20.075 0.7189,-38.075 1.0348,-40 0.3159,-1.925 2.1152,-6.93164 3.9984,-11.12586 1.8833,-4.19422 3.4242,-8.47558 3.4242,-9.51412 0,-1.03854 0.9147,-4.3569 2.0326,-7.37414 1.118,-3.01723 2.2337,-7.28588 2.4794,-9.48588 0.6017,-5.38715 2.0803,-10.22883 4.0349,-13.21198 1.2,-1.83131 1.4501,-3.67431 0.9713,-7.15573 -0.4251,-3.09078 -0.1349,-6.21333 0.8514,-9.16071 0.872,-2.606 1.4732,-7.90455 1.4408,-12.70002 -0.053,-7.82452 0.098,-8.40302 3.0671,-11.7848 1.7174,-1.95599 3.1225,-4.25853 3.1225,-5.11675 0,-0.85822 1.35,-4.02027 3,-7.0268 3.7022,-6.74596 3.9644,-12.86027 0.8295,-19.34321 -1.1968,-2.475 -2.603,-5.47306 -3.1248,-6.66236 -1.0421,-2.37494 -0.428,-12.28377 1.1985,-19.33764 0.5707,-2.475 1.9647,-12.15 3.0979,-21.5 1.1331,-9.35 2.3111,-18.17078 2.6178,-19.60174 l 0.5576,-2.60174 -9.9734,-0.0351 c -9.5482,-0.0336 -10.2458,-0.18744 -16.3629,-3.60828 -7.6618,-4.28476 -10.697,-7.35552 -14.4833,-14.65315 -2.5609,-4.93588 -2.8894,-6.67953 -3.2025,-17 -0.3493,-11.51491 -0.078,-13.26612 4.4108,-28.5 0.8103,-2.75 2.116,-8.6 2.9013,-13 0.7854,-4.4 1.9193,-10.25 2.5197,-13 1.8616,-8.52618 2.9037,-19.52904 2.9599,-31.25 0.043,-8.93967 -0.2303,-11.25 -1.33,-11.25 -1.5715,0 -4.7838,7.82965 -6.5644,16 -1.1165,5.12317 -2.1487,8.59437 -4.0141,13.5 -1.2843,3.37744 -2.8387,8.82488 -3.567,12.5 -0.3814,1.925 -1.8653,5.975 -3.2975,9 -2.1937,4.63323 -2.568,6.69327 -2.3751,13.07177 l 0.229,7.57178 -3.7635,2.94081 c -2.0699,1.61745 -4.8885,3.44418 -6.2635,4.0594 -1.375,0.61521 -5.2696,2.52555 -8.6546,4.2452 -3.385,1.71964 -8.5191,3.57505 -11.4091,4.12312 -2.89,0.54807 -7.5698,2.12928 -10.3997,3.5138 -4.0746,1.99354 -7.2521,2.63433 -15.2718,3.07977 -9.8611,0.54773 -10.3054,0.47835 -16.9457,-2.64594 -10.6549,-5.01315 -13.1974,-8.00954 -16.4659,-19.40524 -1.3366,-4.66021 -1.7051,-5.04245 -6.3858,-6.62549 -5.9332,-2.0066 -14.457,-9.34879 -18.1304,-15.61698 -2.4252,-4.13824 -2.5716,-5.06841 -2.0669,-13.13284 l 0.5392,-8.68255 -11.4067,-11.06622 c -6.2736,-6.08641 -11.4066,-11.63033 -11.4066,-12.31982 0,-0.68949 -1.3727,-3.24878 -3.0505,-5.68733 -1.6777,-2.43854 -3.8457,-6.20989 -4.8176,-8.38078 -1.1065,-2.47139 -8.191,-10.32599 -18.94951,-21.00918 -9.4503,-9.38416 -17.18343,-17.39389 -17.18472,-17.79939 -0.001,-0.4055 -1.36078,-2.31228 -3.0211,-4.23728 -1.66032,-1.925 -4.63643,-6.875 -6.61359,-11 -1.97716,-4.125 -4.71776,-9.85704 -6.09023,-12.73787 -1.91893,-4.02788 -4.08105,-6.41338 -9.35949,-10.32644 -7.31126,-5.42007 -11.56164,-9.88071 -12.98686,-13.62932 -1.17725,-3.09642 -4.92147,-3.00495 -7.92638,0.19363 -1.29175,1.375 -3.10684,2.5 -4.03355,2.5 -0.9267,0 -4.33214,1.41264 -7.56763,3.1392 -3.2355,1.72656 -7.01135,3.50888 -8.39077,3.96071 -11.12263,3.64323 -22.35273,7.90326 -25.14929,9.54015 -1.84732,1.08128 -6.28376,3.35569 -9.85876,5.05424 -3.575,1.69856 -7.6999,4.09078 -9.16645,5.31604 -3.58555,2.99562 -13.58009,6.97931 -17.52453,6.98503 -1.75504,0.003 -3.43589,0.4009 -3.73523,0.88523 -0.29933,0.48433 -1.56338,1.11445 -2.80901,1.40026 -8.62474,1.97899 -14.42158,4.09402 -16.87196,6.15587 C 17.72844,347.68448 0,329.93646 0,305.68045 c 0,-2.96547 0.45,-5.66988 1,-6.0098 0.55,-0.33992 1,-1.66662 1,-2.94823 0,-4.41108 2.93033,-6.40505 12,-8.16549 4.675,-0.90743 9.21043,-2.26557 10.07874,-3.01808 0.86831,-0.75251 2.11071,-1.3682 2.7609,-1.3682 0.65019,0 3.08975,-0.84122 5.42126,-1.86937 3.82009,-1.68459 7.10279,-2.7329 14.7391,-4.70686 1.375,-0.35543 3.85,-1.24042 5.5,-1.96666 11.80361,-5.19525 18.14435,-7.45711 20.90471,-7.45711 1.75741,0 3.62279,-0.37943 4.14529,-0.84317 0.5225,-0.46375 3.65,-1.62656 6.95,-2.58402 3.3,-0.95747 7.69661,-2.37804 9.77024,-3.15683 2.07363,-0.77879 5.52847,-1.41598 7.67742,-1.41598 5.2514,0 8.42832,-3.75055 7.58366,-8.953 -1.09569,-6.74862 6.34035,-14.28308 10.43727,-10.57542 0.92889,0.84063 2.21596,1.52842 2.86015,1.52842 1.43848,0 1.5581,-5.21316 0.15189,-6.61937 -1.22008,-1.22008 1.21197,-8.83098 3.70069,-11.58098 1.95776,-2.16331 5.90182,-2.30049 9.31868,-0.32413 4.53505,2.62314 5.12528,2.7992 6.10381,1.82067 0.53315,-0.53315 1.19404,-2.20836 1.46864,-3.72269 1.16444,-6.42149 5.26489,-9.14117 12.66495,-8.40019 2.9116,0.29154 3.29664,0.0308 3.57902,-2.42331 0.17403,-1.5125 0.68194,-2.75 1.12868,-2.75 0.44674,0 1.35187,-1.30273 2.01139,-2.89496 2.09296,-5.05285 4.73529,-7.10504 9.14821,-7.10504 4.72506,0 7.22925,1.13679 11.58757,5.2602 2.74633,2.59832 3.71106,2.93603 6.9061,2.41755 3.73222,-0.60566 9.40163,-4.99323 9.40163,-7.27595 0,-0.67321 1.41108,-2.41136 3.13573,-3.86255 2.41405,-2.03129 3.78975,-2.49489 5.97755,-2.01438 3.6684,0.80572 6.6371,-0.16294 7.3461,-2.39699 0.309,-0.9734 1.9402,-3.17977 3.6251,-4.90305 2.6654,-2.72626 3.8492,-3.17165 9.1138,-3.42903 l 6.0506,-0.2958 1.7145,-4.39562 c 2.0416,-5.23438 4.6275,-7.40614 8.0366,-6.74939 6.2198,1.19822 11.3527,2.8379 16.4723,5.26193 6.7457,3.19389 8.6036,2.36776 7.8197,-3.47696 -0.933,-6.95579 4.2606,-8.83388 8.9699,-3.24363 1.2309,1.46127 3.668,3.24848 5.4156,3.97157 1.7477,0.72309 4.3416,3.07362 5.7642,5.2234 2.1939,3.3151 3.1214,3.9087 6.1077,3.9087 1.9365,0 4.5176,-0.6431 5.7358,-1.42911 1.2181,-0.78601 5.3648,-1.90043 9.2148,-2.47648 3.85,-0.57606 9.925,-1.71715 13.5,-2.53577 3.575,-0.81861 9.1681,-1.50419 12.429,-1.52351 5.5366,-0.0328 7.4862,-0.42551 16.571,-3.33798 4.24,-1.35929 38.7215,-1.04809 44.2528,0.3994 2.9841,0.78089 5.1054,0.56432 10.3554,-1.05724 3.6313,-1.12162 7.7176,-2.03931 9.0805,-2.03931 1.537,0 2.3204,-0.47465 2.063,-1.25 -0.239,-0.71986 -3.1371,-1.54745 -6.8333,-1.95136 -11.5716,-1.26449 -12.8047,-1.67804 -14.4416,-4.84349 -1.3194,-2.5515 -1.3389,-3.33077 -0.1428,-5.70515 2.549,-5.05999 2.7018,-7.64742 0.6366,-10.78052 -2.5106,-3.80868 -2.472,-5.30685 0.21,-8.16177 l 2.1807,-2.32119 -2.6807,-2.79798 c -3.411,-3.56038 -3.3658,-4.64412 0.3714,-8.90055 1.6786,-1.91182 2.8787,-3.99602 2.6668,-4.63156 -0.2118,-0.63554 -2.5111,-1.45963 -5.1096,-1.83132 -6.254,-0.8946 -7.6092,-2.18997 -7.6092,-7.27325 0,-3.19049 0.6024,-4.76913 2.5,-6.55187 2.9019,-2.726159 3.272,-6.450579 0.75,-7.546389 -1.6315,-0.7089 -6.1073,-1.14203 -34.75,-3.36284 -6.05,-0.46909 -13.7,-1.57438 -17,-2.45621 -3.3,-0.88182 -7.1609,-1.61035 -8.5798,-1.61894 -1.419,-0.009 -7.2087,-2.34063 -12.8661,-5.1823 -13.858,-6.96077 -17.3395,-12.48785 -11.3041,-17.94624 5.3476,-4.83635 5.085,-4.70218 20.75,-10.60354 5.2733,-1.98659 16.1584,-4.28354 20.2993,-4.28354 1.815,0 4.5804,-0.66211 6.1453,-1.47136 6.5409,-3.38244 19.5072,-5.20858 45.0282,-6.34167 l 15.4728,-0.68697 3.0272,-6.14022 c 5.3591,-10.870189 18.3371,-25.1713227 25.7274,-28.3505617 14.415,-6.201169 54.6055,-7.033685 68.2998,-1.414784 5.2919,2.171318 9.8613,8.6993037 10.9952,15.7081227 0.6414,3.96478 2.6502,5.622743 4.7675,3.934953 0.6805,-0.542433 2.5873,-1.245142 4.2373,-1.561576 14.7707,-2.832698 12.5603,-2.890502 31.5017,0.823787 5.0215,0.984678 11.5712,3.193819 16,5.396609 6.97,3.46672 7.4759,3.93224 7.1805,6.60736 -0.1747,1.58284 -1.1253,4.02953 -2.1123,5.4371 -2.9887,4.26205 -10.0699,16.21397 -10.0699,16.99626 0,1.34859 -4.1588,13.41987 -6.2075,18.01778 -1.1139,2.49984 -2.6566,5.98153 -3.4282,7.73708 -0.7717,1.75555 -1.7829,5.22525 -2.2472,7.71044 -1.3085,7.00432 -13.5473,19.597649 -19.0458,19.597649 -1.9491,0 -7.8161,8.92578 -9.325,14.18646 -0.4238,1.47756 -1.6651,2.97038 -2.7584,3.31739 -2.2163,0.70341 -2.6261,3.45799 -0.7879,5.29615 0.9333,0.93333 0.8222,1.2 -0.5,1.2 -0.935,0 -1.7,0.45 -1.7,1 0,0.55 0.7534,1 1.6743,1 1.4917,0 1.4644,0.24543 -0.25,2.25 -4.1062,4.80115 -4.6892,6.69673 -2.8998,9.42768 1.2213,1.864 2.2033,2.35381 3.8104,1.90054 4.9151,-1.38624 26.8544,-3.53996 36.2484,-3.55841 5.5459,-0.0109 10.3478,-0.28418 10.6709,-0.60732 0.9586,-0.95863 16.9148,-6.52305 21.2458,-7.40908 2.2,-0.45008 6.4834,-1.26944 9.5187,-1.8208 3.0353,-0.55136 8.2103,-1.97271 11.5,-3.15855 3.2897,-1.18583 9.9458,-3.44363 14.7912,-5.01733 4.8454,-1.57369 9.3454,-3.30398 10,-3.84507 0.6546,-0.5411 5.7158,-2.78566 11.2473,-4.98792 5.5315,-2.20226 14.9815,-6.68437 21,-9.96025 11.7677,-6.40515 29.5768,-15.213489 30.7593,-15.213489 0.3983,0 4.4418,-1.75786 8.9854,-3.90635 7.247,-3.42675 16.6226,-6.78207 39.1981,-14.02807 3.3,-1.0592 8.475,-2.47545 11.5,-3.14723 3.025,-0.67178 7.3,-1.78043 9.5,-2.46366 2.2,-0.68323 10.3,-2.43212 18,-3.88643 7.7,-1.45431 14.9,-3.0559 16,-3.5591 3.1143,-1.42464 16.0093,-5.00916 18.02,-5.00916 0.9923,0 3.7554,-1.14344 6.14015,-2.54097 4.1425,-2.42766 15.2592,-6.45903 17.8111,-6.45903 0.6659,0 3.3544,-2.025 5.9746,-4.5 6.3931,-6.03885 8.2637,-6.07033 21.2933,-0.35836 2.3315,1.0221 4.4883,1.85836 4.7929,1.85836 1.2589,0 11.3514,8.24165 12.0076,9.80543 0.9571,2.28129 2.5072,8.87107 3.1363,13.33379 0.6967,4.94166 -0.6309,6.98534 -7.3998,11.39174 -3.1768,2.06808 -7.1261,4.9894 -8.7761,6.49183 -1.65,1.50242 -3.675,2.93682 -4.5,3.18755 -1.2081,0.36717 -1.5403,2.77463 -1.7073,12.372769 -0.1191,6.84739 0.2619,13.11172 0.8956,14.72559 0.7979,2.03189 0.8035,4.24446 0.02,8 -0.5955,2.85521 -1.595,9.0163 -2.2212,13.6913 -1.1613,8.67061 -2.5914,14.73528 -6.0443,25.63128 -1.0687,3.3722 -1.943,7.33543 -1.943,8.80718 0,3.54565 -1.504,10.00719 -5.0188,21.56155 -5.9257,19.47985 -9.021,30.54916 -9.0014,32.19098 0.011,0.93004 -0.4298,1.9691 -0.9798,2.30902 -0.55,0.33992 -1,1.6953 -1,3.01196 0,1.31667 -0.4092,3.42761 -0.9094,4.69099 -0.5001,1.26338 -1.6571,4.99705 -2.571,8.29705 -1.7007,6.14064 -4.0242,12.64398 -5.6223,15.73643 -0.4935,0.95504 -0.8973,2.57066 -0.8973,3.59028 0,1.01961 -1.2844,4.51322 -2.8542,7.76357 -1.5699,3.25034 -4.3018,10.40972 -6.07095,15.90972 -1.7692,5.5 -3.8251,11.35 -4.5687,13 -0.7436,1.65 -1.6764,4.35 -2.0729,6 -0.3965,1.65 -1.4865,4.8 -2.4223,7 -0.9358,2.2 -2.2762,5.8 -2.9787,8 -3.042,9.52621 -8.3992,22.24254 -10.5914,25.14051 -1.3066,1.72729 -3.5281,6.20225 -4.9366,9.94438 -1.4086,3.74212 -4.2846,9.07889 -6.3912,11.85948 -4.7643,6.28854 -8.0803,12.87371 -11.3582,22.55563 -5.8073,17.15271 -7.3436,21.28613 -12.6371,34 -1.7175,4.125 -3.1216,7.84496 -3.1203,8.26658 0,1.17845 -18.2546,38.16075 -19.1402,38.76847 -0.4288,0.29427 -1.5153,2.31927 -2.4144,4.5 -0.899,2.18072 -2.4695,4.87056 -3.4899,5.97741 -1.0204,1.10685 -2.8137,4.03185 -3.985,6.5 -3.5132,7.40267 -6.9866,13.33856 -9.355,15.98754 -2.431,2.71902 -14.5578,20.95496 -16.6249,25 -0.7026,1.375 -2.6749,4.26771 -4.3828,6.42824 -3.5033,4.43171 -6.2861,8.81285 -10.1589,15.99387 -1.46,2.70717 -4.1138,7.20717 -5.8974,10 -1.7835,2.79284 -5.2242,8.21893 -7.6459,12.05798 -2.4217,3.83905 -6.2031,9.02471 -8.4031,11.52368 -2.2,2.49897 -5.0724,6.78293 -6.383,9.51991 -1.3107,2.73698 -3.1107,6.46834 -4,8.29192 -0.8894,1.82358 -3.0316,4.19318 -4.7605,5.26577 -1.729,1.07258 -3.8845,3.51148 -4.79,5.41976 -0.9056,1.90828 -3.4479,5.55101 -5.6497,8.09495 l -4.0032,4.62535 0.6738,8.63928 c 0.3706,4.75161 1.0346,9.09869 1.4755,9.66018 0.4409,0.56148 1.0628,5.96148 1.3819,12 0.3191,6.03851 0.8313,12.62043 1.1382,14.62648 0.3244,2.12009 0.1098,3.92443 -0.5124,4.30902 -0.5889,0.36391 -1.0774,2.32259 -1.0858,4.35263 -0.022,5.28995 -2.0464,11.14702 -5.3329,15.42756 -1.8266,2.37897 -3.6769,6.96628 -5.1584,12.78909 -2.4704,9.7087 -5.3433,16.2625 -10.8812,24.82245 -2.8108,4.3445 -3.5825,6.69023 -4.1123,12.5 -1.3744,15.0696 -0.8517,41.86352 0.9784,50.15188 0.5433,2.46069 0.1104,3.61663 -2.408,6.43011 -3.8391,4.28884 -3.8408,6.43393 -0.012,14.53785 2.1157,4.478 3.3381,9.02528 3.9655,14.75266 0.4989,4.55366 1.6424,10.52938 2.541,13.27938 1.2417,3.79993 1.8196,11.3604 2.4079,31.5 0.5783,19.79652 1.1883,27.89129 2.4113,32 0.9005,3.025 2.6888,11.125 3.974,18 1.707,9.1315 3.2947,14.3863 5.8918,19.5 1.9553,3.85 3.8631,9.3399 4.2395,12.1997 0.3764,2.8598 1.3499,5.752 2.1634,6.4272 2.2465,1.8644 4.2774,6.3163 4.3395,9.5124 0.093,4.8092 1.8244,32.10175 2.9088,45.86065 2.0014,25.3939 3.2287,58.1006 2.458,65.5001 -1.0403,9.9876 -0.8745,10.9186 3.914,21.9714 l 4.1281,9.5285 -0.1367,13.2881 c -0.1351,13.1385 -0.1057,13.3242 2.6131,16.5 6.0782,7.0997 8.9545,13.0205 9.7836,20.1391 0.4061,3.487 1.3071,4.9287 9.2534,14.8066 3.3469,4.1604 6.0853,7.8396 6.0853,8.176 0,0.3364 2.4457,4.5654 5.435,9.3979 8.2719,13.3725 8.5336,14.536 8.5504,38.008 0.01,12.7831 -0.3897,21.0713 -1.0759,22.3533 -0.5997,1.1207 -4.3205,5.2993 -8.2685,9.2858 -6.3552,6.4174 -7.921,7.4581 -13.6595,9.0789 -3.5648,1.0068 -9.1815,1.9124 -12.4815,2.0125 -3.3,0.1 -8.925,0.6897 -12.5,1.3103 -7.995,1.3879 -12.7311,1.3537 -16,-0.1155 z m 6.83,-732.99095 c 1.6372,-2.8875 3.8716,-6.825 4.9652,-8.75 1.0937,-1.925 4.2869,-7.325 7.0959,-12 2.8091,-4.675 5.1078,-9.0625 5.1082,-9.75 4e-4,-0.6875 0.4507,-1.25 1.0007,-1.25 0.55,0 1,-0.48142 1,-1.06982 0,-0.58841 1.375,-3.06838 3.0556,-5.51106 1.6807,-2.44267 3.7117,-6.01125 4.5135,-7.93017 0.8017,-1.91892 1.8891,-3.48895 2.4164,-3.48895 0.5272,0 1.6751,-2.5875 2.5507,-5.75 1.7974,-6.49175 4.4966,-12.43313 8.9725,-19.75 1.6822,-2.75 3.6002,-5.9 4.2621,-7 3.2011,-5.31963 22.2427,-44.56196 23.5751,-48.58509 1.3251,-4.00151 7.2446,-19.66411 9.6052,-25.41491 0.4515,-1.1 1.3831,-4.025 2.0701,-6.5 2.393,-8.6207 3.261,-11.51284 4.0517,-13.5 0.4377,-1.1 1.7822,-4.925 2.9878,-8.5 1.2056,-3.575 2.5041,-6.95 2.8855,-7.5 0.3815,-0.55 1.2679,-3.025 1.9698,-5.5 0.7019,-2.475 1.9972,-6.075 2.8785,-8 0.8812,-1.925 1.8649,-7.55 2.186,-12.5 0.4728,-7.28955 1.181,-10.23532 3.7265,-15.5 6.7454,-13.95124 8.4102,-19.24891 9.4279,-30 0.8354,-8.82554 1.7764,-12.4934 5.9006,-23 2.6987,-6.875 5.431,-14.75 6.0719,-17.5 0.6408,-2.75 1.9531,-7.7 2.9161,-11 0.963,-3.3 2.2287,-8.25 2.8128,-11 3.3161,-15.61461 11.3094,-46.28395 17.071,-65.5 1.0719,-3.575 2.6962,-9.2 3.6095,-12.5 0.9133,-3.30001 2.545,-9.15001 3.626,-13.00001 1.081,-3.85 2.62,-10.94985 3.42,-15.77744 0.8,-4.82759 2.0089,-9.66509 2.6864,-10.75 1.5701,-2.51405 6.0681,-2.57746 9.5964,-0.13529 4.6783,3.23817 6.01,3.26443 12.00785,0.23672 6.2621,-3.1611 16.6358,-10.918139 15.7653,-11.788669 -0.2979,-0.29785 -7.2585,-0.56786 -15.4681,-0.60002 -14.70795,-0.0576 -15.01965,-0.0131 -21.28855,3.03912 -3.6773,1.79041 -10.1601,3.772449 -15.3621,4.696779 -6.8021,1.20864 -11.735,2.93987 -20.1991,7.08899 -6.1596,3.0194 -11.7233,5.48981 -12.3639,5.48981 -0.6406,0 -2.801,0.86504 -4.8008,1.9223 -6.0559,3.2015 -16.3676,7.62829 -21.1362,9.07371 -2.475,0.75019 -6.3556,2.57937 -8.6236,4.06485 -2.268,1.48547 -6.6699,3.65355 -9.7821,4.81797 -3.1121,1.16441 -6.6565,2.76035 -7.8764,3.54653 -1.2198,0.78618 -4.2429,2.16973 -6.7179,3.07455 -5.444,1.99022 -18.3041,7.78193 -19,8.55687 -0.275,0.30623 -2.075,1.14649 -4,1.86725 -1.925,0.72076 -4.85,1.87266 -6.5,2.55979 -1.65,0.68712 -5.3625,1.98436 -8.25,2.88275 -2.8875,0.89839 -7.4622,2.34004 -10.166,3.20365 -5.7405,1.83359 -17.6984,4.41995 -20.5836,4.45203 -1.1002,0.0122 -3.1254,0.90222 -4.5004,1.97776 -1.5441,1.20783 -4.0782,1.96403 -6.6276,1.97776 -6.5613,0.0354 -7.1659,1.9462 -2.4267,7.66897 2.2105,2.6693 6.2383,7.10327 8.9505,9.85327 6.0887,6.1734 7.1038,8.15926 7.1038,13.89724 0,2.49079 0.9027,6.81885 2.006,9.61789 1.1242,2.85227 1.7499,6.10922 1.4235,7.40988 -0.3204,1.27639 0.1593,4.74042 1.0659,7.69785 2.3774,7.75518 3.4743,14.71963 4.5481,28.87714 1.0279,13.55443 1.8637,18.99567 4.4542,29 1.3105,5.06103 1.5249,8.49242 0.9685,15.5 -0.393,4.95 -0.8588,11.025 -1.0351,13.5 -0.1763,2.475 0.1493,7.2 0.7237,10.5 0.7326,4.20887 0.7209,9.58226 -0.039,18 -0.5959,6.6 -1.7902,22.35 -2.654,35 -1.805,26.43378 -2.3026,29.68202 -7.047,46 -5.756,19.79711 -5.782,19.85805 -9.1767,21.5 -1.7057,0.825 -4.6644,2.88637 -6.5749,4.58083 l -3.4736,3.08082 0.1553,8.41918 0.1553,8.41917 14.6673,7.5 c 8.067,4.125 15.267,7.99797 16,8.60661 0.733,0.60864 4.3,2.74558 7.9266,4.74877 8.3063,4.588 10.3459,6.75611 9.5056,10.10433 -0.3507,1.39716 -1.0171,2.54029 -1.481,2.54029 -0.4639,0 -2.5422,1.35 -4.6185,3 -5.6737,4.50887 -13.3846,4.09786 -30.5,-1.6257 -10.569,-3.53439 -11.2499,-3.5108 -12.0742,0.41843 -0.6616,3.15421 -0.4896,3.39459 4.0882,5.71435 5.7642,2.92093 9.101,7.87352 10.0584,14.92888 0.3792,2.79407 1.8502,7.48628 3.2689,10.42715 1.4187,2.94087 3.3647,9.12476 4.3243,13.74196 1.0376,4.992 2.24,8.39493 2.9662,8.39493 0.6718,0 2.561,-2.3625 4.1982,-5.25 z M 285.36248,333.23304 c -0.6394,-3.19679 2.6484,-9.06239 5.0796,-9.06239 2.1545,0 10.5166,-5.05438 11.5468,-6.97933 1.2076,-2.25627 7.7058,-5.68516 12.4669,-6.57836 1.9972,-0.37467 3.4992,-1.02752 3.3377,-1.45079 -0.1614,-0.42326 -2.1108,-2.282 -4.3319,-4.13054 -2.2211,-1.84854 -6.2711,-5.86921 -9,-8.93482 -11.4841,-12.90118 -39.7768,-41.22168 -42.7948,-42.83688 -1.3452,-0.71995 -2.9182,-2.34554 -3.4954,-3.61241 -1.5405,-3.38107 -4.8793,-4.09988 -7.5201,-1.61899 -3.617,3.39803 -9.7078,5.35903 -18.3277,5.90088 -7.1858,0.4517 -8.5489,0.8541 -11.25,3.32124 -3.4578,3.15818 -3.7457,5.06726 -1.5547,10.31084 1.3659,3.26922 1.3573,4.31315 -0.086,10.37212 -0.8825,3.70537 -2.2258,9.88704 -2.9851,13.73704 -0.7593,3.85 -1.6763,8.25327 -2.0376,9.78504 -0.7941,3.36597 0.7801,5.34519 8.5895,10.79948 3.025,2.11274 7.5158,5.66431 9.9796,7.89237 5.2556,4.75268 20.6206,11.10334 31.5204,13.02799 3.8499,0.67982 8.125,1.5963 9.5,2.03663 1.375,0.44033 4.6262,0.83612 7.225,0.87954 4.7069,0.0787 4.7227,0.0677 4.1374,-2.85866 z m 60.6375,-77.24139 c 0,-1.19845 -0.543,-3.68069 -1.2067,-5.51608 -1.0953,-3.02913 -0.911,-3.93674 1.9977,-9.83535 1.7625,-3.57405 5.0055,-9.4628 7.2067,-13.08612 2.2013,-3.62332 4.0023,-6.93067 4.0023,-7.34965 0,-0.41899 1.8,-2.0092 4,-3.5338 6.7411,-4.67157 5.5293,-5.82825 -5.25,-5.01115 -10.1852,0.77208 -20.7101,3.23368 -28.3095,6.62116 -4.0595,1.80955 -6.6792,2.1869 -14.6905,2.11607 -11.3396,-0.10027 -11.6046,0.21711 -6.2747,7.51527 7.5179,10.29404 13.1011,16.24066 17.253,18.37609 2.388,1.22819 5.751,3.57975 7.4733,5.22569 3.4795,3.32521 9.3619,6.55586 12.0484,6.61702 1.1434,0.026 1.75,-0.7154 1.75,-2.13915 z"
     id="path2987"
     inkscape:connector-curvature="0" />
</svg>
