<?xml version="1.0" encoding="UTF-8" standalone="no"?>
<!-- Created with Inkscape (http://www.inkscape.org/) -->

<svg
   xmlns:dc="http://purl.org/dc/elements/1.1/"
   xmlns:cc="http://creativecommons.org/ns#"
   xmlns:rdf="http://www.w3.org/1999/02/22-rdf-syntax-ns#"
   xmlns:svg="http://www.w3.org/2000/svg"
   xmlns="http://www.w3.org/2000/svg"
   xmlns:sodipodi="http://sodipodi.sourceforge.net/DTD/sodipodi-0.dtd"
   xmlns:inkscape="http://www.inkscape.org/namespaces/inkscape"
   id="svg2"
   version="1.1"
   inkscape:version="0.48.2 r9819"
   width="927.99597"
   height="2426"
   sodipodi:docname="ageofchivalryork00bulf_0259c.png">
  <metadata
     id="metadata8">
    <rdf:RDF>
      <cc:Work
         rdf:about="">
        <dc:format>image/svg+xml</dc:format>
        <dc:type
           rdf:resource="http://purl.org/dc/dcmitype/StillImage" />
        <dc:title></dc:title>
      </cc:Work>
    </rdf:RDF>
  </metadata>
  <defs
     id="defs6" />
  <sodipodi:namedview
     pagecolor="#ffffff"
     bordercolor="#666666"
     borderopacity="1"
     objecttolerance="10"
     gridtolerance="10"
     guidetolerance="10"
     inkscape:pageopacity="0"
     inkscape:pageshadow="2"
     inkscape:window-width="1600"
     inkscape:window-height="876"
     id="namedview4"
     showgrid="false"
     fit-margin-top="0"
     fit-margin-left="0"
     fit-margin-right="0"
     fit-margin-bottom="0"
     inkscape:zoom="0.35355339"
     inkscape:cx="495.996"
     inkscape:cy="1662.8213"
     inkscape:window-x="0"
     inkscape:window-y="24"
     inkscape:window-maximized="1"
     inkscape:current-layer="svg2" />
  <path
     style="fill:#000000"
     d="m 513.996,2425 c 0,-0.5714 -3,-1 -7,-1 -4,0 -7,-0.4286 -7,-1 0,-0.55 -0.9,-1 -2,-1 -1.1,0 -2,0.45 -2,1 0,0.5714 -3,1 -7,1 -4,0 -7,-0.4286 -7,-1 0,-0.5714 -3,-1 -7,-1 -4,0 -7,-0.4286 -7,-1 0,-0.55 -0.8625,-1 -1.9167,-1 -1.0541,0 -2.1791,-0.5625 -2.5,-1.25 -0.4666,-1 -0.7,-1 -1.1666,0 -0.3211,0.6879 -2.3445,1.25 -4.5,1.25 -2.1542,0 -3.9167,0.45 -3.9167,1 0,1.4994 -11.7103,1.2637 -12.4167,-0.25 -0.4666,-1 -0.7,-1 -1.1666,0 -0.6903,1.4791 -6.4167,1.7022 -6.4167,0.25 0,-0.55 -0.9,-1 -2,-1 -1.1,0 -2,-0.45 -2,-1 0,-0.6154 -5,-1 -13,-1 -8,0 -13,-0.3846 -13,-1 0,-0.55 -0.9,-1 -2,-1 -1.2506,0 -2,-0.6667 -2,-1.7792 0,-0.9786 -0.9,-2.428 -2,-3.2208 -1.1,-0.7928 -2,-2.2422 -2,-3.2208 0,-0.9785 -0.45,-1.7792 -1,-1.7792 -0.55,0 -1,-1.8 -1,-4 0,-2.2 0.45,-4 1,-4 0.55,0 1,-0.8007 1,-1.7792 0,-0.9786 0.9,-2.428 2,-3.2208 1.1,-0.7928 2,-2.2422 2,-3.2208 0,-0.9785 0.7195,-1.7792 1.5988,-1.7792 0.8793,0 2.8599,-1.35 4.4012,-3 1.5413,-1.65 3.5219,-3 4.4012,-3 0.8793,0 1.5988,-0.45 1.5988,-1 0,-0.55 0.9,-1 2,-1 1.1,0 2,-0.45 2,-1 0,-0.55 0.9,-1 2,-1 1.1,0 2,-0.45 2,-1 0,-0.55 1.35,-1 3,-1 1.65,0 3,-0.45 3,-1 0,-0.55 0.9,-1 2,-1 1.1,0 2,-0.45 2,-1 0,-0.55 1.35,-1 3,-1 1.65,0 3,-0.45 3,-1 0,-0.55 1.8,-1 4,-1 2.2,0 4,-0.45 4,-1 0,-0.55 2.25,-1 5,-1 2.75,0 5,-0.45 5,-1 0,-0.55 0.8007,-1 1.7792,-1 0.9786,0 2.428,-0.9 3.2208,-2 0.7928,-1.1 2.2422,-2 3.2208,-2 0.9785,0 1.7792,-0.7071 1.7792,-1.5714 0,-2.0211 2.4075,-4.4286 4.4286,-4.4286 0.8643,0 1.5714,-0.45 1.5714,-1 0,-0.55 1.8,-1 4,-1 2.2,0 4,-0.45 4,-1 0,-0.55 0.9,-1 2,-1 1.1,0 2,-0.45 2,-1 0,-0.55 1.35,-1 3,-1 1.65,0 3,-0.45 3,-1 0,-0.55 2.5071,-1 5.5714,-1 5.5955,0 8.4286,-1.4144 8.4286,-4.2078 0,-0.7429 0.9,-1.9994 2,-2.7922 1.1,-0.7928 2,-2.0493 2,-2.7922 0,-1.8313 2.5012,-4.2078 4.4286,-4.2078 0.8643,0 1.5714,-0.45 1.5714,-1 0,-0.55 0.9,-1 2,-1 1.1,0 2,-0.45 2,-1 0,-0.55 1.35,-1 3,-1 1.65,0 3,-0.45 3,-1 0,-0.55 0.9,-1 2,-1 1.1,0 2,-0.45 2,-1 0,-0.55 0.7042,-1 1.5649,-1 0.8607,0 3.7565,-2.25 6.4351,-5 2.6786,-2.75 5.3847,-5 6.0135,-5 0.6288,0 2.8727,-1.8 4.9865,-4 2.1138,-2.2 4.5535,-4 5.4216,-4 0.8681,0 1.5784,-0.45 1.5784,-1 0,-0.55 1.2507,-1 2.7792,-1 1.6321,0 3.3743,-0.8255 4.2208,-2 0.7928,-1.1 2.0493,-2 2.7922,-2 1.8313,0 4.2078,-2.5012 4.2078,-4.4286 0,-0.8643 0.45,-1.5714 1,-1.5714 0.55,0 1,-0.9 1,-2 0,-1.1 0.45,-2 1,-2 0.55,0 1,-0.6923 1,-1.5384 0,-0.8461 4.05,-5.5538 9,-10.4616 4.95,-4.9078 9,-9.5161 9,-10.2408 0,-0.7247 0.9,-1.9664 2,-2.7592 1.1,-0.7928 2,-2.1428 2,-3 0,-0.8572 0.9,-2.2072 2,-3 1.1,-0.7928 2,-2.2422 2,-3.2208 0,-0.9785 0.45,-1.7792 1,-1.7792 0.6,0 1,-4 1,-10 0,-6 0.4,-10 1,-10 0.6,0 1,-4 1,-10 0,-6 -0.4,-10 -1,-10 -0.55,0 -1,-2.25 -1,-5 0,-2.75 0.45,-5 1,-5 0.55,0 1,-1.35 1,-3 0,-1.65 -0.45,-3 -1,-3 -0.55,0 -1,-2.25 -1,-5 0,-2.75 -0.45,-5 -1,-5 -0.5714,0 -1,-3 -1,-7 0,-4 -0.4286,-7 -1,-7 -0.6,0 -1,-4 -1,-10 0,-6 -0.4,-10 -1,-10 -0.55,0 -1,-0.9 -1,-2 0,-1.1 -0.45,-2 -1,-2 -0.5833,0 -1,-3.3333 -1,-8 0,-4.6667 -0.4167,-8 -1,-8 -0.55,0 -1,-1.35 -1,-3 0,-1.65 -0.45,-3 -1,-3 -0.55,0 -1,-2.1507 -1,-4.7792 0,-3.6321 -0.4801,-5.1253 -2,-6.2208 -1.6502,-1.1894 -2,-2.5887 -2,-8 0,-5.4113 -0.3498,-6.8106 -2,-8 -1.5199,-1.0955 -2,-2.5887 -2,-6.2208 0,-2.6285 -0.45,-4.7792 -1,-4.7792 -0.5556,0 -1,-2.6667 -1,-6 0,-3.3333 -0.4444,-6 -1,-6 -0.55,0 -1,-1.8 -1,-4 0,-2.2 -0.45,-4 -1,-4 -0.55,0 -1,-0.9 -1,-2 0,-1.1 -0.45,-2 -1,-2 -0.55,0 -1,-1.8 -1,-4 0,-2.2 -0.45,-4 -1,-4 -0.55,0 -1,-0.9 -1,-2 0,-1.1 -0.45,-2 -1,-2 -0.55,0 -1,-2.25 -1,-5 0,-2.75 -0.45,-5 -1,-5 -0.55,0 -1,-1.35 -1,-3 0,-1.65 -0.45,-3 -1,-3 -0.55,0 -1,-0.9 -1,-2 0,-1.1 -0.45,-2 -1,-2 -0.5714,0 -1,-3 -1,-7 0,-4 -0.4286,-7 -1,-7 -0.55,0 -1,-0.9 -1,-2 0,-1.1 -0.45,-2 -1,-2 -0.55,0 -1,-2.25 -1,-5 0,-2.75 -0.45,-5 -1,-5 -0.5714,0 -1,-3 -1,-7 0,-4 -0.4286,-7 -1,-7 -0.55,0 -1,-0.9 -1,-2 0,-1.1 -0.45,-2 -1,-2 -0.55,0 -1,-1.8 -1,-4 0,-2.2 -0.45,-4 -1,-4 -0.55,0 -1,-1.35 -1,-3 0,-1.65 -0.45,-3 -1,-3 -0.55,0 -1,-1.35 -1,-3 0,-1.65 -0.45,-3 -1,-3 -0.6154,0 -1,-5 -1,-13 0,-8 -0.3846,-13 -1,-13 -0.55,0 -1,-1.8 -1,-4 0,-2.2 -0.45,-4 -1,-4 -0.55,0 -1,-1.35 -1,-3 0,-1.65 -0.45,-3 -1,-3 -0.5833,0 -1,-3.3333 -1,-8 0,-4.6667 -0.4167,-8 -1,-8 -0.55,0 -1,-1.35 -1,-3 0,-1.65 -0.45,-3 -1,-3 -0.5556,0 -1,-2.6667 -1,-6 0,-3.3333 -0.4444,-6 -1,-6 -0.55,0 -1,-1.35 -1,-3 0,-1.65 -0.45,-3 -1,-3 -0.55,0 -1,-1.35 -1,-3 0,-1.65 -0.45,-3 -1,-3 -0.55,0 -1,-1.35 -1,-3 0,-1.65 -0.45,-3 -1,-3 -0.55,0 -1,-1.35 -1,-3 0,-1.65 -0.45,-3 -1,-3 -0.55,0 -1,-0.9 -1,-2 0,-1.1 -0.45,-2 -1,-2 -0.55,0 -1,-1.8 -1,-4 0,-2.2 -0.45,-4 -1,-4 -0.55,0 -1,-1.8 -1,-4 0,-2.2 -0.45,-4 -1,-4 -0.55,0 -1,-1.35 -1,-3 0,-1.65 -0.45,-3 -1,-3 -0.55,0 -1,-1.8 -1,-4 0,-2.2 -0.45,-4 -1,-4 -0.55,0 -1,-1.8 -1,-4 0,-2.2 -0.45,-4 -1,-4 -0.55,0 -1,-0.9 -1,-2 0,-1.1 -0.45,-2 -1,-2 -0.55,0 -1,-1.6042 -1,-3.5649 0,-2.9619 -0.8458,-4.3888 -5,-8.4351 -2.75,-2.6786 -5,-5.5744 -5,-6.4351 0,-0.8982 -0.852,-1.5649 -2,-1.5649 -1.4667,0 -2,0.6667 -2,2.5 0,3.6217 -1.1224,3.0941 -4.3769,-2.0573 -1.5824,-2.5046 -3.4091,-5.0913 -4.0595,-5.7482 -0.6505,-0.657 -3.5002,-4.5695 -6.3328,-8.6945 -2.8327,-4.125 -8.3305,-12 -12.2175,-17.5 -3.887,-5.5 -8.9676,-12.8031 -11.2903,-16.2292 -2.3226,-3.426 -4.8484,-6.2385 -5.6128,-6.25 -1.6113,-0.024 -3.3849,2.0365 -6.0525,7.0321 -2.6151,4.8972 -7.8308,9.8322 -12.3077,11.6454 -2.0625,0.8354 -3.75,1.8447 -3.75,2.2429 0,0.3982 1.6875,2.0878 3.75,3.7546 4.4248,3.5758 6.25,8.6109 6.25,17.2414 0,3.2828 0.506,7.2274 1.1245,8.7657 1.7444,4.3389 2.4995,6.4733 3.8198,10.7971 2.521,8.2556 5.4701,14.5 6.8481,14.5 1.0312,0 1.246,0.7111 0.7779,2.576 -0.3953,1.5749 0.1468,4.8105 1.3948,8.3257 1.1227,3.1623 2.046,6.8406 2.0517,8.174 0.01,1.3334 -0.02,5.5743 -0.057,9.4243 -0.037,3.85 -0.053,7.9 -0.035,9 0.018,1.1 0.041,4.8767 0.05,8.3927 0.01,3.516 0.5077,6.9837 1.1073,7.7062 0.5995,0.7224 0.7315,1.8937 0.2932,2.6029 -1.0363,1.6768 -2.2715,9.5154 -2.8728,18.2317 -0.2631,3.8135 -0.9802,7.2437 -1.5937,7.6228 -0.8173,0.5052 -0.8082,1.2631 0.034,2.8372 0.6323,1.1813 0.8125,2.6931 0.4006,3.3596 -1.1072,1.7915 -1.4512,4.5649 -1.3803,11.1283 0.035,3.2347 -0.3209,6.3847 -0.7907,7 -0.4699,0.6152 -0.9244,4.0436 -1.0101,7.6186 -0.086,3.575 -0.8323,8.9606 -1.6591,11.9679 -0.8269,3.0074 -1.5186,6.1574 -1.5373,7 -0.019,0.8427 -0.9034,3.3321 -1.9661,5.5321 -1.0626,2.2 -1.9474,5.2319 -1.966,6.7375 -0.026,2.0688 -0.9717,3.3294 -3.8736,5.1612 -4.4412,2.8037 -10.6148,13.5942 -9.6024,16.7838 0.334,1.0524 0.1576,2.4553 -0.392,3.1175 -0.5496,0.6623 -0.9993,3.3181 -0.9993,5.9018 0,2.5838 -0.2331,5.5078 -0.5181,6.498 -0.2849,0.9901 0.029,3.3752 0.6971,5.3002 1.0442,3.0077 0.9586,3.9439 -0.6084,6.6557 -1.0646,1.8424 -1.9775,5.7959 -2.1935,9.5 -0.3773,6.4686 -3.5279,23.5328 -4.6794,25.3443 -0.3497,0.55 -0.9781,3.475 -1.3967,6.5 -0.4185,3.025 -0.9578,6.625 -1.1984,8 -0.2406,1.375 -0.5705,4.75 -0.7332,7.5 -0.1626,2.75 -1.0251,6.7433 -1.9167,8.874 -0.8915,2.1307 -1.7809,5.7942 -1.9764,8.141 -0.1955,2.3469 -1.5451,6.6544 -2.9992,9.5724 -1.4541,2.9179 -2.6438,6.1465 -2.6438,7.1747 0,1.0282 -0.4663,2.7408 -1.0364,3.8059 -0.57,1.0651 -1.1685,4.3847 -1.33,7.377 -0.1615,2.9923 -0.7631,6.0288 -1.3368,6.7478 -1.2116,1.5183 -4.0621,11.8638 -5.4576,19.8072 -0.5314,3.025 -1.4273,6.4447 -1.991,7.5994 -0.5637,1.1546 -0.8938,2.9546 -0.7336,4 0.1602,1.0453 -0.086,3.2506 -0.5464,4.9006 -0.4606,1.65 -0.9839,3.9 -1.1629,5 -0.179,1.1 -0.4772,2.9079 -0.6627,4.0176 -0.1855,1.1097 -0.6289,2.4894 -0.9853,3.0661 -0.3564,0.5767 -0.028,2.8188 0.7296,4.9824 0.7578,2.1637 1.1466,4.8979 0.864,6.0762 -0.2825,1.1783 0.1586,3.4422 0.9801,5.0309 0.9395,1.8167 1.174,3.46 0.6321,4.4284 -0.5396,0.9641 -0.3199,2.5842 0.5876,4.3334 0.7971,1.5365 1.4493,3.6211 1.4493,4.6324 0,2.0673 6.2312,5.5258 7.9936,4.4366 0.6017,-0.3719 1.6368,-0.2461 2.3002,0.2795 0.6634,0.5257 3.0052,1.2807 5.2039,1.6779 2.1988,0.3972 4.2238,1.0646 4.5,1.4832 0.7761,1.1759 12.9215,1.9953 13.588,0.9167 0.3226,-0.5219 0.1676,-1.4917 -0.3444,-2.1551 -0.512,-0.6634 -1.5072,-3.3365 -2.2116,-5.9402 -1.1177,-4.1316 -1.0709,-5.0542 0.3679,-7.25 3.5318,-5.3903 14.4732,-1.5136 14.5706,5.1626 0.089,6.0776 6.695,6.7133 14.4338,1.3888 2.4521,-1.687 5.6148,-3.0674 7.0282,-3.0674 2.3104,0 2.5698,0.3849 2.5698,3.8122 0,2.0967 -0.913,5.7019 -2.0289,8.0116 -1.5675,3.2443 -1.7869,4.6517 -0.9648,6.1878 0.9167,1.7131 2.1022,1.9884 8.5603,1.9884 8.3432,0 9.8683,1.1612 7.0913,5.3994 -1.3507,2.0615 -2.6514,2.4804 -9.6156,3.0969 -4.4294,0.3921 -8.3316,1.1628 -8.6715,1.7128 -0.3399,0.5499 -0.044,4.3558 0.6577,8.4576 1.1038,6.4526 1.0741,7.6593 -0.2203,8.9537 -2.3171,2.3171 -6.0974,0.7657 -8.8037,-3.6131 -2.4881,-4.026 -4.3178,-4.9706 -9.6727,-4.9936 -4.7385,-0.021 -6.1077,-0.8426 -8.5042,-5.1068 -1.6503,-2.9362 -2.9951,-4.0353 -5.5159,-4.5082 -3.194,-0.5992 -6.3117,0.7242 -6.3117,2.6793 0,0.4583 -1.1131,2.4734 -2.4735,4.4782 -4.6409,6.8387 -4.3337,12.1481 1.1756,20.3162 1.4042,2.0819 2.0663,4.2025 1.7301,5.5418 -0.3712,1.479 0.4281,3.3933 2.5117,6.0151 1.6809,2.1152 3.0561,4.443 3.0561,5.173 0,0.73 0.9,1.809 2,2.3977 2.8715,1.5368 2.642,8.2996 -0.5247,15.46 -2.9184,6.599 -7.3552,12.5399 -9.365,12.54 -0.7644,0 -1.9222,0.7281 -2.5729,1.618 -1.8389,2.5149 -8.3589,4.5485 -16.0374,5.0021 -7.4879,0.4423 -13.2853,0.9668 -20.5,1.8545 -8.9093,1.0961 -11.5283,1.1565 -13.2632,0.3056 -1.0019,-0.4913 -2.4494,-0.4808 -3.3523,0.024 -0.874,0.4891 -3.4556,0.5474 -5.7368,0.1295 -2.3807,-0.4361 -4.637,-0.3545 -5.2964,0.1914 -1.1209,0.9281 -6.3499,0.6971 -9.3513,-0.413 -1.7402,-0.6437 -9.928,-1.7486 -14.993,-2.0232 -2.5198,-0.1366 -3.4949,0.2285 -3.5,1.3106 -0.01,1.2106 -1.888,1.5552 -9.757,1.7862 -5.3911,0.1583 -9.75,0.7171 -9.75,1.25 0,1.457 -9.7279,1.1897 -10.4166,-0.2862 -0.4667,-1 -0.7,-1 -1.1667,0 -0.3208,0.6875 -1.2653,1.25 -2.0988,1.25 -0.8335,0 -2.7765,1.35 -4.3179,3 -2.3135,2.4767 -3.5901,3 -7.3178,3 -2.6346,0 -4.7585,-0.5207 -5.0988,-1.25 -0.4667,-1 -0.7,-1 -1.1667,0 -0.3208,0.6875 -1.8958,1.25 -3.5,1.25 -1.6042,0 -2.9167,0.45 -2.9167,1 0,0.55 -1.7006,1 -3.7792,1 -2.6321,0 -4.2168,0.6071 -5.2208,2 -1.0955,1.5199 -2.5887,2 -6.2207,2 -2.6286,0 -4.7793,0.45 -4.7793,1 0,0.55 -1.35,1 -3,1 -1.65,0 -3,0.45 -3,1 0,0.55 -1.6102,1 -3.5784,1 -2.8676,0 -4.3418,0.7945 -7.4216,4 -2.5353,2.6387 -4.7206,4 -6.4216,4 -1.4181,0 -2.5784,-0.45 -2.5784,-1 0,-0.55 -2.25,-1 -5,-1 -2.75,0 -5,0.45 -5,1 0,0.55 -1.8,1 -4,1 -2.2,0 -4,-0.45 -4,-1 0,-0.5714 -3,-1 -7,-1 -4,0 -7,-0.4286 -7,-1 0,-0.55 -0.9,-1 -2,-1 -1.1,0 -2,0.45 -2,1 0,0.5714 -3,1 -7,1 -4,0 -7,-0.4286 -7,-1 0,-0.5714 -3,-1 -7,-1 -4,0 -7,-0.4286 -7,-1 0,-0.55 -0.8625,-1 -1.9166,-1 -1.0542,0 -2.1792,-0.5625 -2.5,-1.25 -0.4667,-1 -0.7,-1 -1.1667,0 -0.321,0.6879 -2.3444,1.25 -4.5,1.25 -2.1542,0 -3.9167,0.45 -3.9167,1 0,1.4994 -11.7103,1.2637 -12.4166,-0.25 -0.4667,-1 -0.7,-1 -1.1667,0 -0.6903,1.4791 -6.4167,1.7022 -6.4167,0.25 0,-0.55 -0.9,-1 -2,-1 -1.1,0 -2,-0.45 -2,-1 0,-0.6154 -5,-1 -13,-1 -8,0 -13,-0.3846 -13,-1 0,-0.55 -0.9,-1 -2,-1 -1.2506,0 -2,-0.6667 -2,-1.7792 0,-0.9786 -0.9,-2.428 -2,-3.2208 -1.1,-0.7928 -2,-2.2422 -2,-3.2208 0,-0.9785 -0.45,-1.7792 -1,-1.7792 -0.55,0 -1,-1.8 -1,-4 0,-2.2 0.45,-4 1,-4 0.55,0 1,-0.8007 1,-1.7792 0,-0.9786 0.9,-2.428 2,-3.2208 1.1,-0.7928 2,-2.2422 2,-3.2208 0,-0.9785 0.7195,-1.7792 1.5988,-1.7792 0.8794,0 2.8599,-1.35 4.4012,-3 1.5414,-1.65 3.5219,-3 4.4012,-3 0.8794,0 1.5988,-0.45 1.5988,-1 0,-0.55 0.9,-1 2,-1 1.1,0 2,-0.45 2,-1 0,-0.55 0.9,-1 2,-1 1.1,0 2,-0.45 2,-1 0,-0.55 1.35,-1 3,-1 1.65,0 3,-0.45 3,-1 0,-0.55 0.9,-1 2,-1 1.1,0 2,-0.45 2,-1 0,-0.55 1.35,-1 3,-1 1.65,0 3,-0.45 3,-1 0,-0.55 1.8,-1 4,-1 2.2,0 4,-0.45 4,-1 0,-0.55 2.25,-1 5,-1 2.75,0 5,-0.45 5,-1 0,-0.55 0.8007,-1 1.7793,-1 0.9786,0 2.4279,-0.9 3.2207,-2 0.7929,-1.1 2.2422,-2 3.2208,-2 0.9786,0 1.7792,-0.7071 1.7792,-1.5714 0,-2.0211 2.4076,-4.4286 4.4286,-4.4286 0.8643,0 1.5714,-0.45 1.5714,-1 0,-0.55 1.8,-1 4,-1 2.2,0 4,-0.45 4,-1 0,-0.55 0.9,-1 2,-1 1.1,0 2,-0.45 2,-1 0,-0.55 1.35,-1 3,-1 1.65,0 3,-0.45 3,-1 0,-0.55 2.5072,-1 5.5715,-1 5.5954,0 8.4285,-1.4144 8.4285,-4.2078 0,-0.7429 0.9,-1.9994 2,-2.7922 1.1,-0.7928 2,-2.0493 2,-2.7922 0,-1.8313 2.5012,-4.2078 4.4286,-4.2078 0.8643,0 1.5714,-0.45 1.5714,-1 0,-0.55 0.9,-1 2,-1 1.1,0 2,-0.45 2,-1 0,-0.55 1.35,-1 3,-1 1.65,0 3,-0.45 3,-1 0,-0.55 0.9,-1 2,-1 1.1,0 2,-0.45 2,-1 0,-0.55 0.7043,-1 1.565,-1 0.8607,0 3.7565,-2.25 6.435,-5 2.6786,-2.75 5.3847,-5 6.0135,-5 0.6288,0 2.8728,-1.8 4.9865,-4 2.1138,-2.2 4.5535,-4 5.4216,-4 0.8682,0 1.5784,-0.45 1.5784,-1 0,-0.55 1.2507,-1 2.7793,-1 1.632,0 3.3742,-0.8255 4.2207,-2 0.7929,-1.1 2.0494,-2 2.7922,-2 1.8313,0 4.2078,-2.5012 4.2078,-4.4286 0,-0.8643 0.45,-1.5714 1,-1.5714 0.55,0 1,-0.9 1,-2 0,-1.1 0.45,-2 1,-2 0.55,0 1,-0.6923 1,-1.5384 0,-0.8461 4.05,-5.5538 9,-10.4616 4.95,-4.9078 9,-9.5161 9,-10.2408 0,-0.7247 0.9,-1.9664 2,-2.7592 1.1,-0.7928 2,-2.1428 2,-3 0,-0.8572 0.9,-2.2072 2,-3 1.1,-0.7928 2,-2.2422 2,-3.2208 0,-0.9785 0.45,-1.7792 1,-1.7792 0.6,0 1,-4 1,-10 0,-6 0.4,-10 1,-10 0.55,0 1.0019,-1.4625 1.0042,-3.25 0,-3.3727 3.3113,-10.793 6.7692,-15.189 1.0985,-1.3966 2.3525,-5.1198 2.7944,-8.2972 0.4409,-3.1701 0.9913,-6.8888 1.2232,-8.2638 0.2319,-1.375 0.5661,-7.1783 0.7428,-12.8961 0.1799,-5.8235 0.7829,-10.6816 1.3709,-11.045 0.5774,-0.3569 0.9879,-2.2956 0.9123,-4.3082 -0.076,-2.0127 0.3231,-4.2425 0.8862,-4.9551 2.0178,-2.5535 2.4173,-9.6619 0.7268,-12.931 -1.1504,-2.2247 -1.2952,-3.3994 -0.5151,-4.1795 0.5968,-0.5968 1.0851,-2.3185 1.0851,-3.8261 0,-1.5075 0.45,-3.0191 1,-3.359 0.55,-0.3399 1,-2.7515 1,-5.359 0,-2.6076 0.4658,-5.2068 1.0352,-5.7761 0.7135,-0.7135 0.4086,-2.4968 -0.9814,-5.7395 -1.8902,-4.4097 -2.314,-10.8367 -0.8662,-13.1379 0.3503,-0.557 0.057,-2.0968 -0.6525,-3.4219 -1.0564,-1.9741 -1.0495,-2.9834 0.038,-5.5869 1.0173,-2.4347 1.0529,-3.4525 0.1522,-4.3531 -0.9006,-0.9007 -0.8756,-1.6556 0.1069,-3.2289 0.9895,-1.5844 1.0129,-2.3781 0.1025,-3.4751 -0.9067,-1.0925 -0.9054,-1.7522 0.01,-2.8498 0.924,-1.1133 0.8431,-2.0899 -0.3671,-4.4302 -1.1029,-2.1328 -1.4004,-4.6453 -1.0274,-8.6767 0.3319,-3.5872 0.097,-6.1899 -0.6377,-7.0756 -0.6395,-0.7705 -1.248,-3.4256 -1.3523,-5.9002 -0.1359,-3.2245 -0.8324,-5.0981 -2.4583,-6.6129 -1.6687,-1.5546 -2.0698,-2.6773 -1.5166,-4.2449 1.1113,-3.1491 0.6774,-20.2801 -0.5728,-22.6162 -0.7531,-1.407 -0.7643,-2.6022 -0.037,-3.9608 1.1529,-2.1543 0.1162,-21.4861 -1.2727,-23.7335 -0.2849,-0.4609 -0.2031,-2.6342 0.1817,-4.8295 0.3849,-2.1952 0.4267,-5.3413 0.093,-6.9913 -0.3337,-1.65 -0.2213,-4.0886 0.2497,-5.4192 0.5798,-1.6377 0.3228,-3.9034 -0.7955,-7.0132 -1.3212,-3.674 -1.438,-5.3692 -0.5832,-8.4648 0.85,-3.0784 0.7601,-4.4677 -0.4392,-6.7868 -0.9551,-1.8471 -1.2244,-3.7224 -0.7344,-5.116 1.2905,-3.6706 1.7527,-19.4544 0.9284,-31.7 -0.1296,-1.925 0.076,-3.95 0.4572,-4.5 1.9814,-2.8602 3.2983,-18.9695 1.7823,-21.8021 -0.8377,-1.5652 -0.833,-2.1997 0.018,-2.4834 2.9418,-0.9806 0.1929,-20.2145 -2.8891,-20.2145 -0.5747,0 -0.7353,-1.0768 -0.3749,-2.513 0.3483,-1.3876 0.1136,-3.136 -0.524,-3.9043 -0.6355,-0.7657 -0.8723,-2.5168 -0.5266,-3.8939 0.3454,-1.3764 0.179,-3.3415 -0.3698,-4.367 -0.7008,-1.3095 -0.5422,-3.4955 0.5327,-7.3432 3.3183,-11.8784 3.7364,-14.8859 2.6063,-18.7479 -2,-6.835 -3.7939,-10.7177 -5.5612,-12.0374 -0.9625,-0.7187 -1.75,-2.158 -1.75,-3.1985 0,-1.0405 -1.125,-3.1057 -2.5,-4.5893 -1.375,-1.4837 -2.5,-3.233 -2.5,-3.8875 0,-0.6544 -1.734,-2.7466 -3.8534,-4.6492 -3.0135,-2.7052 -4.2991,-4.9751 -5.8982,-10.414 -2.0615,-7.0114 -2.3611,-10.9825 -0.9893,-13.1133 0.4102,-0.6371 1.6622,-5.8492 2.7822,-11.5825 2.4096,-12.3338 1.9202,-14.5286 -3.9789,-17.8441 -2.2343,-1.2557 -4.0624,-2.6399 -4.0624,-3.076 0,-0.436 1.125,-1.5299 2.5,-2.4309 2.1768,-1.4263 2.5001,-2.3665 2.5012,-7.273 0.001,-7.0879 2.0769,-17.8462 4.9453,-25.635 4.973,-13.5037 5.1891,-16.2734 1.5535,-19.9091 -1.375,-1.375 -2.5,-3.1954 -2.5,-4.0454 0,-0.85 -0.45,-1.5455 -1,-1.5455 -0.55,0 -1,-1.35 -1,-3 0,-1.65 -0.45,-3 -1,-3 -0.55,0 -1,-0.9 -1,-2 0,-1.1 -0.45,-2 -1,-2 -0.55,0 -1,-1.8 -1,-4 0,-2.2 0.45,-4 1,-4 0.5833,0 1,-3.3333 1,-8 0,-4.6667 0.4167,-8 1,-8 0.55,0 1,-1.35 1,-3 0,-1.65 -0.45,-3 -1,-3 -0.55,0 -1,-0.9 -1,-2 0,-1.1 -0.45,-2 -1,-2 -0.55,0 -1,-0.8007 -1,-1.7792 0,-0.9786 -0.9,-2.428 -2,-3.2208 -1.603,-1.1554 -2,-2.5887 -2,-7.2208 0,-3.1861 -0.4487,-5.7792 -1,-5.7792 -0.55,0 -1,-0.9 -1,-2 0,-1.1 -0.45,-2 -1,-2 -0.55,0 -1,-1.35 -1,-3 0,-1.65 -0.45,-3 -1,-3 -0.55,0 -1,-0.9 -1,-2 0,-1.1 -0.45,-2 -1,-2 -0.55,0 -1,-1.35 -1,-3 0,-1.65 -0.45,-3 -1,-3 -0.5926,0 -1,-3.6667 -1,-9 0,-5.3333 0.4074,-9 1,-9 0.55,0 1,-1.35 1,-3 0,-1.65 0.45,-3 1,-3 0.55,0 1,-0.9 1,-2 0,-1.1 0.45,-2 1,-2 0.55,0 1,-0.8007 1,-1.7792 0,-0.9786 0.9,-2.428 2,-3.2208 1.3929,-1.004 2,-2.5887 2,-5.2208 0,-2.0785 0.45,-3.7792 1,-3.7792 0.55,0 1,-1.35 1,-3 0,-1.65 -0.45,-3 -1,-3 -0.55,0 -1,-1.7007 -1,-3.7792 0,-2.6321 -0.6071,-4.2168 -2,-5.2208 -1.1032,-0.7952 -2,-2.5887 -2,-4 0,-1.4113 -0.8968,-3.2048 -2,-4 -1.1,-0.7928 -2,-2.2422 -2,-3.2208 0,-0.9785 -0.45,-1.7792 -1,-1.7792 -0.55,0 -1,-1.35 -1,-3 0,-1.65 -0.45,-3 -1,-3 -0.5556,0 -1,-2.6667 -1,-6 0,-3.3333 -0.4444,-6 -1,-6 -0.55,0 -1,-0.9 -1,-2 0,-1.1 -0.45,-2 -1,-2 -0.5926,0 -1,-3.6667 -1,-9 0,-5.3333 -0.4074,-9 -1,-9 -0.55,0 -1,-1.35 -1,-3 0,-1.65 -0.45,-3 -1,-3 -0.5683,0 -1,-2.9264 -1,-6.7792 0,-5.6321 0.3384,-7.0232 2,-8.2208 1.1,-0.7928 2,-2.1428 2,-3 0,-0.8572 0.9,-2.2072 2,-3 1.1,-0.7928 2,-2.2422 2,-3.2208 0,-0.9785 0.45,-1.7792 1,-1.7792 0.5714,0 1,-3 1,-7 0,-4 0.4286,-7 1,-7 0.5714,0 1,-3 1,-7 0,-4 0.4286,-7 1,-7 0.55,0 1,-1.35 1,-3 0,-1.65 0.45,-3 1,-3 0.55,0 1,-1.8 1,-4 0,-2.2 0.45,-4 1,-4 0.55,0 1,-1.35 1,-3 0,-1.65 0.45,-3 1,-3 0.55,0 1,-1.8 1,-4 0,-2.2 0.45,-4 1,-4 0.55,0 1,-0.9 1,-2 0,-1.1 0.45,-2 1,-2 0.5926,0 1,-3.6667 1,-9 0,-5.3333 0.4074,-9 1,-9 0.55,0 1,-0.9 1,-2 0,-1.1 0.45,-2 1,-2 0.55,0 1,-2.25 1,-5 0,-2.75 0.45,-5 1,-5 0.5714,0 1,-3 1,-7 0,-4 0.4286,-7 1,-7 0.55,0 1,-1.35 1,-3 0,-1.65 0.45,-3 1,-3 0.55,0 1,-1.35 1,-3 0,-1.65 0.45,-3 1,-3 0.5556,0 1,-2.6667 1,-6 0,-3.3333 0.4444,-6 1,-6 0.55,0 1,-1.35 1,-3 0,-1.65 0.45,-3 1,-3 0.5556,0 1,-2.6667 1,-6 0,-3.3333 0.4444,-6 1,-6 0.55,0 1,-2.25 1,-5 0,-2.75 0.45,-5 1,-5 0.5714,0 1,-3 1,-7 0,-4 0.4286,-7 1,-7 0.55,0 1,-1.35 1,-3 0,-1.65 0.45,-3 1,-3 0.5714,0 1,-3 1,-7 0,-4 0.4286,-7 1,-7 0.5556,0 1,-2.6667 1,-6 0,-3.3333 0.4444,-6 1,-6 0.5703,0 1,-2.9722 1,-6.9167 0,-4.6179 0.4125,-7.0541 1.2411,-7.3303 0.8923,-0.2975 0.7519,-0.9029 -0.5,-2.1548 -1.5477,-1.5476 -1.9078,-1.5744 -3.2411,-0.2411 -0.825,0.825 -1.5,2.1078 -1.5,2.8507 0,0.7429 -0.9,1.9994 -2,2.7922 -1.1745,0.8465 -2,2.5887 -2,4.2208 0,1.5285 -0.45,2.7792 -1,2.7792 -0.5556,0 -1,2.6667 -1,6 0,3.3333 -0.4444,6 -1,6 -0.55,0 -1,2.25 -1,5 0,2.75 -0.45,5 -1,5 -0.55,0 -1,0.9 -1,2 0,1.1 -0.45,2 -1,2 -0.55,0 -1,0.9 -1,2 0,1.1 -0.45,2 -1,2 -0.55,0 -1,1.35 -1,3 0,1.65 -0.45,3 -1,3 -0.55,0 -1,0.9 -1,2 0,1.1 -0.45,2 -1,2 -0.55,0 -1,0.8007 -1,1.7792 0,0.9786 -0.9,2.428 -2,3.2208 -1.1745,0.8465 -2,2.5887 -2,4.2208 0,1.5285 -0.45,2.7792 -1,2.7792 -0.55,0 -1,0.9 -1,2 0,1.1 -0.45,2 -1,2 -0.55,0 -1,0.8007 -1,1.7792 0,0.9786 -0.9,2.428 -2,3.2208 -1.3929,1.004 -2,2.5887 -2,5.2208 0,2.0785 -0.45,3.7792 -1,3.7792 -0.55,0 -1,0.7195 -1,1.5988 0,0.8793 -1.35,2.8599 -3,4.4012 -1.65,1.5413 -3,3.5219 -3,4.4012 0,0.8793 -0.45,1.5988 -1,1.5988 -0.55,0 -1,0.9 -1,2 0,1.1 -0.45,2 -1,2 -0.55,0 -1,0.8007 -1,1.7792 0,0.9786 -0.9,2.428 -2,3.2208 -1.1,0.7928 -2,2.027 -2,2.7425 0,1.5885 -10.512,12.2575 -12.0771,12.2575 -0.6162,0 -2.3816,1.35 -3.9229,3 -1.5413,1.65 -3.5219,3 -4.4012,3 -0.8793,0 -1.5988,0.45 -1.5988,1 0,0.5926 -3.6667,1 -9,1 -5.3333,0 -9,0.4074 -9,1 0,0.6 -4,1 -10,1 -6,0 -10,-0.4 -10,-1 0,-0.619 -5.3333,-1 -14,-1 -8.6667,0 -14,-0.381 -14,-1 0,-0.55 -1.8,-1 -4,-1 -2.2,0 -4,-0.45 -4,-1 0,-0.55 -0.9,-1 -2,-1 -1.1,0 -2,0.45 -2,1 0,0.55 -0.9,1 -2,1 -1.1,0 -2,-0.45 -2,-1 0,-0.55 -1.8,-1 -4,-1 -2.2,0 -4,-0.45 -4,-1 0,-0.55 -1.8,-1 -4,-1 -2.2,0 -4,-0.45 -4,-1 0,-0.55 -2.25,-1 -5,-1 -2.75,0 -5,-0.45 -5,-1 0,-0.55 -1.35,-1 -3,-1 -1.65,0 -3,-0.45 -3,-1 0,-0.55 -1.35,-1 -3,-1 -1.65,0 -3,-0.45 -3,-1 0,-0.5714 -3,-1 -7,-1 -4,0 -7,-0.4286 -7,-1 0,-0.55 -1.35,-1 -3,-1 -1.65,0 -3,-0.45 -3,-1 0,-0.55 -0.9,-1 -2,-1 -1.1,0 -2,-0.45 -2,-1 0,-0.55 -0.9,-1 -2,-1 -1.1,0 -2,-0.45 -2,-1 0,-0.55 -0.9,-1 -2,-1 -1.1,0 -2,-0.45 -2,-1 0,-0.55 -0.9,-1 -2,-1 -1.1,0 -2,-0.45 -2,-1 0,-0.55 -1.2507,-1 -2.7792,-1 -1.6321,0 -3.3743,-0.8255 -4.2208,-2 -0.7928,-1.1 -2.2422,-2 -3.2208,-2 -0.9785,0 -1.7792,-0.45 -1.7792,-1 0,-0.55 -0.9,-1 -2,-1 -1.1,0 -2,-0.45 -2,-1 0,-0.55 -1.1571,-1 -2.5714,-1 -2.692,0 -5.4286,-2.0302 -5.4286,-4.0274 0,-0.6436 -1.35,-2.4313 -3,-3.9726 -1.65,-1.5413 -3,-3.5219 -3,-4.4012 0,-0.8793 -0.69,-1.5988 -1.5333,-1.5988 -1.7701,0 -8.4667,-6.3793 -8.4667,-8.0655 0,-0.6226 -1.35,-2.3932 -3,-3.9345 -1.65,-1.5413 -3,-3.3322 -3,-3.9796 0,-0.6475 -1.8,-2.9066 -4,-5.0204 -2.2,-2.1138 -4,-4.3577 -4,-4.9865 0,-0.6289 -2.25,-3.3349 -5,-6.0135 -2.75,-2.6786 -5,-5.5744 -5,-6.4351 0,-0.8607 -0.45,-1.5649 -1,-1.5649 -0.55,0 -1,-0.8007 -1,-1.7792 0,-0.9786 -0.9,-2.428 -2,-3.2208 -1.1,-0.7928 -2,-2.2422 -2,-3.2208 0,-0.9785 -0.45,-1.7792 -1,-1.7792 -0.5926,0 -1,-3.6667 -1,-9 0,-5.3333 -0.4074,-9 -1,-9 -0.55,0 -1,-0.9 -1,-2 0,-1.1 0.45,-2 1,-2 0.55,0 1,-0.9 1,-2 0,-1.1 0.45,-2 1,-2 0.55,0 1,-1.6071 1,-3.5714 0,-3.7817 1.8234,-6.4286 4.4286,-6.4286 0.9047,0 1.5714,-0.8485 1.5714,-2 0,-1.6667 0.6667,-2 4,-2 2.2,0 4,-0.45 4,-1 0,-1.4467 3.7395,-1.2313 4.3405,0.25 0.383,0.9438 0.7895,0.8825 1.6595,-0.25 0.87,-1.1325 1.2765,-1.1938 1.6595,-0.25 0.2844,0.7009 2.2277,1.25 4.4238,1.25 2.1542,0 3.9167,0.45 3.9167,1 0,0.55 1.1695,1 2.5988,1 1.5981,0 3.6779,1.1552 5.4012,3 1.7233,1.8448 3.8031,3 5.4012,3 1.4293,0 2.5988,0.45 2.5988,1 0,0.55 0.9,1 2,1 1.1,0 2,0.45 2,1 0,0.55 0.9,1 2,1 1.1,0 2,0.45 2,1 0,0.55 0.9,1 2,1 1.1,0 2,0.45 2,1 0,0.55 0.9,1 2,1 1.1,0 2,0.45 2,1 0,0.55 0.9,1 2,1 1.1,0 2,0.45 2,1 0,0.55 0.7103,1 1.5784,1 0.8681,0 3.3078,1.8 5.4216,4 2.1138,2.2 4.4541,4 5.2008,4 0.7467,0 2.0064,0.9 2.7992,2 0.7928,1.1 2.1428,2 3,2 0.8572,0 2.2072,0.9 3,2 0.7928,1.1 2.0493,2 2.7922,2 1.6351,0 4.2078,2.4297 4.2078,3.974 0,1.4532 4.5781,6.026 6.0329,6.026 0.6182,0 2.8533,1.8 4.9671,4 2.1138,2.2 4.5535,4 5.4216,4 0.8681,0 1.5784,0.45 1.5784,1 0,0.55 1.8,1 4,1 2.2,0 4,0.45 4,1 0,0.55 1.8,1 4,1 2.2,0 4,0.45 4,1 0,0.55 2.25,1 5,1 2.75,0 5,-0.45 5,-1 0,-0.55 1.8,-1 4,-1 2.2,0 4,-0.45 4,-1 0,-0.5714 3,-1 7,-1 4,0 7,-0.4286 7,-1 0,-0.55 1.8,-1 4,-1 2.2,0 4,-0.45 4,-1 0,-0.55 1.8,-1 4,-1 2.2,0 4,-0.45 4,-1 0,-0.55 0.9,-1 2,-1 1.1,0 2,-0.45 2,-1 0,-0.55 2.25,-1 5,-1 2.75,0 5,-0.45 5,-1 0,-0.55 0.8007,-1 1.7792,-1 0.9786,0 2.428,-0.9 3.2208,-2 0.7928,-1.1 2.4822,-2 3.7541,-2 2.329,0 9.2459,-5.9848 9.2459,-8 0,-1.3944 6.6156,-8 8.0121,-8 1.5258,0 5.9879,-4.6453 5.9879,-6.2338 0,-0.7286 0.9,-1.9734 2,-2.7662 1.1,-0.7928 2,-2.0464 2,-2.7857 0,-0.7393 2.25,-3.5357 5,-6.2143 2.75,-2.6786 5,-5.5744 5,-6.4351 0,-0.8607 0.45,-1.5649 1,-1.5649 0.55,0 1,-0.9 1,-2 0,-1.1 0.45,-2 1,-2 0.55,0 1,-0.7195 1,-1.5988 0,-0.8793 1.35,-2.8599 3,-4.4012 1.65,-1.5413 3,-3.4225 3,-4.1805 0,-0.7579 0.9,-2.0267 2,-2.8195 1.3929,-1.004 2,-2.5887 2,-5.2208 0,-2.0785 0.45,-3.7792 1,-3.7792 0.55,0 1,-1.35 1,-3 0,-1.65 0.45,-3 1,-3 0.5714,0 1,-3 1,-7 0,-4 0.4286,-7 1,-7 0.55,0 1,-1.8 1,-4 0,-2.2 0.45,-4 1,-4 0.5556,0 1,-2.6667 1,-6 0,-3.3333 -0.4444,-6 -1,-6 -0.55,0 -1,-2.0571 -1,-4.5714 0,-5.1008 -1.6319,-7.4286 -5.2078,-7.4286 -1.2929,0 -2.9994,-0.9 -3.7922,-2 -0.7928,-1.1 -2.2422,-2 -3.2208,-2 -0.9785,0 -1.7792,-0.45 -1.7792,-1 0,-0.55 -0.6955,-1 -1.5455,-1 -1.8898,0 -6.4545,-4.4085 -6.4545,-6.2338 0,-0.7286 -0.9,-1.9734 -2,-2.7662 -1.1,-0.7928 -2,-2.2422 -2,-3.2208 0,-0.9785 -0.45,-1.7792 -1,-1.7792 -0.55,0 -1,-0.9 -1,-2 0,-1.1 -0.45,-2 -1,-2 -0.5556,0 -1,-2.6667 -1,-6 0,-5.3333 -0.2222,-6 -2,-6 -1.5556,0 -2,-0.6667 -2,-3 0,-1.65 -0.45,-3 -1,-3 -0.55,0 -1,-1.35 -1,-3 0,-1.65 -0.45,-3 -1,-3 -0.55,0 -1,-2.25 -1,-5 0,-2.75 -0.45,-5 -1,-5 -0.55,0 -1,-2.25 -1,-5 0,-2.75 -0.45,-5 -1,-5 -0.5833,0 -1,-3.3333 -1,-8 0,-4.6667 -0.4167,-8 -1,-8 -0.641,0 -1,-9.3333 -1,-26 0,-16.6667 0.359,-26 1,-26 0.55,0 1,-0.9 1,-2 0,-1.1 0.45,-2 1,-2 0.55,0 1,-0.9 1,-2 0,-1.1 -0.45,-2 -1,-2 -0.55,0 -1,-2.25 -1,-5 0,-2.75 0.45,-5 1,-5 0.55,0 1,-1.35 1,-3 0,-1.65 0.45,-3 1,-3 0.5833,0 1,-3.3333 1,-8 0,-4.66667 0.4167,-8 1,-8 0.55,0 1,-2.25 1,-5 0,-2.75 0.45,-5 1,-5 0.55,0 1,-1.35 1,-3 0,-1.65 0.45,-3 1,-3 0.55,0 1,-1.8 1,-4 0,-2.2 0.45,-4 1,-4 0.55,0 1,-0.9 1,-2 0,-1.1 0.45,-2 1,-2 0.55,0 1,-1.35 1,-3 0,-1.65 0.45,-3 1,-3 0.5556,0 1,-2.66667 1,-6 0,-3.33333 0.4444,-6 1,-6 0.55,0 1,-0.9 1,-2 0,-1.1 0.45,-2 1,-2 0.55,0 1,-0.71028 1,-1.5784 0,-0.86812 1.8,-3.30784 4,-5.4216 2.2,-2.11376 4,-4.55348 4,-5.4216 0,-0.86812 0.45,-1.5784 1,-1.5784 0.5683,0 1,-2.92641 1,-6.77924 0,-5.63207 0.3384,-7.02317 2,-8.22076 1.3208,-0.95198 2,-2.58869 2,-4.81955 0,-2.46394 0.8118,-4.13636 3,-6.18045 1.65,-1.54133 3,-3.52188 3,-4.40121 0,-0.87933 0.45,-1.59879 1,-1.59879 0.55,0 1,-0.9 1,-2 0,-1.1 0.45,-2 1,-2 0.55,0 1,-0.9 1,-2 0,-1.1 0.45,-2 1,-2 0.55,0 1,-2.25 1,-5 0,-2.75 0.45,-5 1,-5 0.55,0 1,-1.35 1,-3 0,-1.65 0.45,-3 1,-3 0.55,0 1,-0.80066 1,-1.77924 0,-0.97858 0.9,-2.42792 2,-3.22076 1.1745,-0.84651 2,-2.58869 2,-4.22076 0,-1.52858 0.45,-2.77924 1,-2.77924 0.55,0 1,-0.9 1,-2 0,-1.1 0.45,-2 1,-2 0.55,0 1,-0.70422 1,-1.56492 0,-0.86071 2.25,-3.7565 5,-6.43508 2.9589,-2.88204 5,-5.75343 5,-7.03387 0,-1.19004 1.35,-3.4248 3,-4.96613 1.65,-1.54133 3,-3.42253 3,-4.18045 0,-0.75792 0.9,-2.02671 2,-2.81955 1.1032,-0.79517 2,-2.58869 2,-4 0,-1.41131 0.8968,-3.20483 2,-4 1.1,-0.79284 2,-2.14284 2,-3 0,-0.85716 0.9,-2.20716 2,-3 1.3929,-1.00395 2,-2.58869 2,-5.22076 0,-2.07858 0.45,-3.77924 1,-3.77924 0.55,0 1,-1.35 1,-3 0,-1.65 0.45,-3 1,-3 0.5833,0 1,-3.33333 1,-8 0,-4.66667 -0.4167,-8 -1,-8 -0.55,0 -1,-0.71028 -1,-1.5784 0,-0.86812 -1.8,-3.30784 -4,-5.4216 -2.2,-2.11376 -4,-4.34893 -4,-4.96705 C 297.996,680.36613 293.3248,676 291.5415,676 c -0.85,0 -1.5455,-0.45 -1.5455,-1 0,-0.55 -0.9,-1 -2,-1 -1.1,0 -2,-0.45 -2,-1 0,-0.55 -0.9,-1 -2,-1 -1.1,0 -2,-0.45 -2,-1 0,-0.55 -1.2507,-1 -2.7792,-1 -1.6321,0 -3.3743,-0.82553 -4.2208,-2 -1.2881,-1.78715 -2.5887,-2 -12.2208,-2 -6.5194,0 -10.7792,-0.39518 -10.7792,-1 0,-0.55 -1.35,-1 -3,-1 -1.65,0 -3,-0.45 -3,-1 0,-0.55 -1.35,-1 -3,-1 -1.65,0 -3,-0.45 -3,-1 0,-0.55 -1.35,-1 -3,-1 -1.65,0 -3,-0.45 -3,-1 0,-0.55 -1.8,-1 -4,-1 -2.2,0 -4,-0.45 -4,-1 0,-0.55 -1.8,-1 -4,-1 -2.2,0 -4,0.45 -4,1 0,0.55 -1.8,1 -4,1 -2.2,0 -4,0.45 -4,1 0,0.55 -0.9,1 -2,1 -1.1,0 -2,0.45 -2,1 0,0.55 -0.9,1 -2,1 -1.1,0 -2,0.45 -2,1 0,0.55 -0.9,1 -2,1 -1.1,0 -2,-0.45 -2,-1 0,-0.55 -0.9,-1 -2,-1 -1.3333,0 -2,-0.66667 -2,-2 0,-1.1 -0.45,-2 -1,-2 -0.55,0 -1,-2.49 -1,-5.53333 0,-4.98035 -0.3464,-5.87979 -3.4667,-9 C 186.6227,641.56 184.5624,640 183.9509,640 c -0.6114,0 -2.8411,1.8 -4.9549,4 -2.5353,2.63874 -4.7207,4 -6.4216,4 -1.4181,0 -2.5784,-0.45 -2.5784,-1 0,-0.55 -1.35,-1 -3,-1 -2.3333,0 -3,-0.44444 -3,-2 0,-1.1 -0.45,-2 -1,-2 -0.55,0 -1,-0.9 -1,-2 0,-1.1 -0.45,-2 -1,-2 -0.6,0 -1,-4 -1,-10 0,-6 -0.4,-10 -1,-10 -0.55,0 -1,-0.69545 -1,-1.54545 0,-1.7833 -4.3661,-6.45455 -6.0329,-6.45455 -0.6182,0 -2.8533,-1.8 -4.9671,-4 -3.5831,-3.72934 -4.2207,-4 -9.4216,-4 -3.0681,0 -5.5784,-0.45 -5.5784,-1 0,-0.55 -0.9,-1 -2,-1 -1.1,0 -2,-0.45 -2,-1 0,-0.57817 -3.1778,-1 -7.5333,-1 -7.2624,0 -7.658,-0.12468 -11,-3.46667 -2.131,-2.13099 -3.4667,-4.44273 -3.4667,-6 0,-1.39333 -0.45,-2.53333 -1,-2.53333 -0.55,0 -1,-1.8 -1,-4 0,-2.2 -0.45,-4 -1,-4 -0.55,0 -1,-1.35 -1,-3 0,-1.65 -0.45,-3 -1,-3 -0.55,0 -1,-0.80066 -1,-1.77924 0,-0.97858 -0.9,-2.42792 -2,-3.22076 -1.1,-0.79284 -2,-2.24218 -2,-3.22076 0,-0.97858 -0.45,-1.77924 -1,-1.77924 -0.55,0 -1,-0.9 -1,-2 0,-1.1 0.45,-2 1,-2 0.5556,0 1,-2.66667 1,-6 0,-3.33333 0.4444,-6 1,-6 0.5683,0 1,-2.92641 1,-6.77924 0,-5.63207 0.3384,-7.02317 2,-8.22076 2.0606,-1.4852 2.8484,-7 1,-7 -0.55,0 -1,-0.9 -1,-2 0,-1.1 -0.45,-2 -1,-2 -0.5652,0 -1,-2.85714 -1,-6.57143 0,-6.75661 1.255,-9.42857 4.4286,-9.42857 0.8643,0 1.5714,-0.45 1.5714,-1 0,-0.55 1.6195,-1 3.5988,-1 2.7092,0 4.2915,-0.74155 6.4012,-3 1.5413,-1.65 3.329,-3 3.9726,-3 2.4249,0 4.0274,-2.95593 4.0274,-7.42857 0,-3.90476 0.2917,-4.57143 2,-4.57143 1.5556,0 2,-0.66667 2,-3 0,-1.65 0.45,-3 1,-3 0.55,0 1,-0.9 1,-2 0,-1.33333 0.6667,-2 2,-2 1.1,0 2,-0.45 2,-1 0,-0.55 2.0571,-1 4.5714,-1 4.7191,0 7.4286,-1.61531 7.4286,-4.42857 0,-0.86429 0.45,-1.57143 1,-1.57143 0.55,0 1,-0.9 1,-2 0,-1.1 0.45,-2 1,-2 0.55,0 1,-0.9 1,-2 0,-1.1 0.45,-2 1,-2 0.5833,0 1,-3.33333 1,-8 0,-4.66667 0.4167,-8 1,-8 0.5714,0 1,-3 1,-7 0,-4 0.4286,-7 1,-7 1.4456,0 1.2324,-3.75588 -0.2411,-4.24702 -1.652,-0.55067 1.4792,-3.75298 3.6697,-3.75298 0.8643,0 1.5714,-0.45 1.5714,-1 0,-0.55 0.9,-1 2,-1 1.1,0 2,0.45 2,1 0,0.55 0.9,1 2,1 1.1,0 2,0.45 2,1 0,2.01183 3.2709,0.92154 6,-2 2.7285,-2.92085 3.0498,-3 12.1805,-3 8.2308,0 9.5543,-0.24465 10.8195,-2 0.7928,-1.1 2.2422,-2 3.2208,-2 0.9785,0 1.7792,-0.45 1.7792,-1 0,-0.55 0.9,-1 2,-1 1.1,0 2,-0.45 2,-1 0,-0.55 0.6868,-1 1.5263,-1 1.9845,0 10.4737,-8.48922 10.4737,-10.47368 0,-0.83948 0.45,-1.52632 1,-1.52632 0.55,0 1,-0.9 1,-2 0,-1.1 0.45,-2 1,-2 0.55,0 1,-0.9 1,-2 0,-1.1 0.45,-2 1,-2 0.6275,0 1,-6.33333 1,-17 0,-10.66667 0.3726,-17 1,-17 0.55,0 1,-0.69545 1,-1.54545 0,-0.85 1.1046,-2.65 2.4546,-4 1.886,-1.88607 3.5072,-2.45455 7,-2.45455 2.5,0 4.5454,-0.45 4.5454,-1 0,-0.55 0.6798,-1 1.5106,-1 1.689,0 24.4894,-22.37721 24.4894,-24.03482 0,-1.41729 4.6151,-5.96518 6.0533,-5.96518 0.6294,0 2.4054,-1.35 3.9467,-3 1.5413,-1.65 3.5219,-3 4.4012,-3 0.8793,0 1.5988,-0.45 1.5988,-1 0,-0.55 0.8007,-1 1.7792,-1 0.9786,0 2.428,-0.9 3.2208,-2 0.7928,-1.1 2.1428,-2 3,-2 0.8572,0 2.2072,-0.9 3,-2 0.7928,-1.1 2.0616,-2 2.8196,-2 0.7579,0 2.6391,-1.35 4.1804,-3 1.5413,-1.65 3.5219,-3 4.4012,-3 0.9321,0 1.5988,-0.83396 1.5988,-2 0,-1.1 0.45,-2 1,-2 0.55,0 1,-0.9 1,-2 0,-1.1 0.45,-2 1,-2 0.55,0 1,-0.9 1,-2 0,-1.1 0.45,-2 1,-2 0.55,0 1,-1.8 1,-4 0,-2.2 0.45,-4 1,-4 0.55,0 1,-1.35 1,-3 0,-1.65 0.45,-3 1,-3 0.55,0 1,-0.9 1,-2 0,-1.1 -0.45,-2 -1,-2 -0.55,0 -1,-0.80066 -1,-1.77924 0,-0.97858 -0.9,-2.42792 -2,-3.22076 -1.1,-0.79284 -2,-2.14284 -2,-3 0,-0.85716 -0.9,-2.20716 -2,-3 -1.1,-0.79284 -2,-2.14284 -2,-3 0,-0.85716 -0.9,-2.20716 -2,-3 -1.1745,-0.84651 -2,-2.58869 -2,-4.22076 0,-1.52858 -0.45,-2.77924 -1,-2.77924 -0.55,0 -1,-0.9 -1,-2 0,-1.1 -0.45,-2 -1,-2 -0.55,0 -1,-0.71946 -1,-1.59879 0,-0.87933 -1.35,-2.85988 -3,-4.40121 -1.65,-1.54133 -3,-3.42253 -3,-4.18045 0,-0.75792 -0.9,-2.02671 -2,-2.81955 -1.1,-0.79284 -2,-2.24218 -2,-3.22076 0,-0.97858 -0.45,-1.77924 -1,-1.77924 -0.55,0 -1,-0.9 -1,-2 0,-1.1 -0.45,-2 -1,-2 -0.55,0 -1,-0.71946 -1,-1.59879 0,-0.87933 -1.35,-2.85988 -3,-4.40121 -1.8448,-1.72334 -3,-3.80309 -3,-5.40121 0,-1.42933 -0.45,-2.59879 -1,-2.59879 -0.5714,0 -1,-3 -1,-7 0,-4 -0.4286,-7 -1,-7 -0.55,0 -1,-0.9 -1,-2 0,-1.1 -0.45,-2 -1,-2 -0.55,0 -1,-1.35 -1,-3 0,-1.65 -0.45,-3 -1,-3 -0.55,0 -1,-1.35 -1,-3 0,-1.65 -0.45,-3 -1,-3 -0.6154,0 -1,-5 -1,-13 0,-8 -0.3846,-13 -1,-13 -0.55,0 -1,-1.35 -1,-3 0,-1.65 -0.45,-3 -1,-3 -0.55,0 -1,-2.25 -1,-5 0,-2.75 -0.45,-5 -1,-5 -0.55,0 -1,-0.9 -1,-2 0,-1.1 -0.45,-2 -1,-2 -0.5714,0 -1,-3 -1,-7 0,-4 0.4286,-7 1,-7 0.55,0 1,-0.9 1,-2 0,-1.1 0.45,-2 1,-2 0.55,0 1,-1.35 1,-3 0,-1.65 -0.45,-3 -1,-3 -0.55,0 -1,-1.35 -1,-3 0,-1.65 0.45,-3 1,-3 0.5556,0 1,-2.66667 1,-6 0,-3.33333 -0.4444,-6 -1,-6 -0.55,0 -1,-0.70422 -1,-1.56492 0,-0.86071 -2.25,-3.7565 -5,-6.43508 -4.3991,-4.28491 -5,-5.3641 -5,-8.98053 0,-4.35773 3.336,-9.01947 6.4546,-9.01947 0.85,0 1.5454,-0.45 1.5454,-1 0,-0.55 0.9,-1 2,-1 1.1,0 2,-0.45 2,-1 0,-0.55 1.35,-1 3,-1 1.65,0 3,-0.45 3,-1 0,-0.55 1.35,-1 3,-1 1.65,0 3,-0.45 3,-1 0,-0.55 1.35,-1 3,-1 1.65,0 3,-0.45 3,-1 0,-0.55 1.8,-1 4,-1 2.2,0 4,-0.45 4,-1 0,-0.55 1.1571,-1 2.5714,-1 2.8936,0 5.4286,-2.06801 5.4286,-4.42857 0,-0.86429 0.8007,-1.57143 1.7792,-1.57143 0.9786,0 2.428,-0.9 3.2208,-2 0.7928,-1.1 2.1428,-2 3,-2 0.8572,0 2.2072,-0.9 3,-2 0.8465,-1.17447 2.5887,-2 4.2208,-2 1.5285,0 2.7792,-0.45 2.7792,-1 0,-0.55 0.9,-1 2,-1 1.1,0 2,-0.45 2,-1 0,-0.55 1.35,-1 3,-1 1.65,0 3,-0.45 3,-1 0,-0.55 0.8007,-1 1.7792,-1 0.9786,0 2.428,-0.9 3.2208,-2 0.8465,-1.17447 2.5887,-2 4.2208,-2 1.5285,0 2.7792,-0.45 2.7792,-1 0,-0.55 0.9,-1 2,-1 1.1,0 2,-0.45 2,-1 0,-0.57143 3,-1 7,-1 4,0 7,-0.42857 7,-1 0,-0.55 0.9,-1 2,-1 1.1,0 2,-0.45 2,-1 0,-0.55 0.9,-1 2,-1 1.1515,0 2,-0.66667 2,-1.57143 C 361.996,6.50119 364.3725,4 366.2038,4 c 0.7429,0 1.9994,-0.9 2.7922,-2 1.1554,-1.603 2.5887,-2 7.2208,-2 3.1861,0 5.7792,0.44869 5.7792,1 0,0.55 0.6955,1 1.5455,1 2.0004,0 6.4545,4.45408 6.4545,6.45454 0,0.85 0.45,1.54546 1,1.54546 0.55,0 1,0.70422 1,1.56492 0,0.86071 2.25,3.7565 5,6.43508 2.75,2.67858 5,5.57437 5,6.43508 0,0.8607 0.8007,1.56492 1.7792,1.56492 0.9786,0 2.428,0.9 3.2208,2 0.7928,1.1 2.4993,2 3.7922,2 3.8893,0 5.2078,2.26714 5.2078,8.95489 0,5.88831 -0.1536,6.2514 -4.4737,10.57143 -2.4605,2.46052 -5.1605,4.47368 -6,4.47368 -1.3006,0 -1.5263,2.21839 -1.5263,15 0,9.33333 0.3778,15 1,15 0.55,0 1,2.04 1,4.53333 0,3.83932 -0.5307,5.06406 -3.4667,8 -1.9066,1.90667 -4.1566,3.46667 -5,3.46667 -0.8433,0 -1.5333,0.45 -1.5333,1 0,0.55 -0.6868,1 -1.5263,1 -2.5784,0 -10.4737,8.64909 -10.4737,11.47368 0,1.38948 -0.45,2.52632 -1,2.52632 -0.5714,0 -1,3 -1,7 0,4 -0.4286,7 -1,7 -0.6364,0 -1,8 -1,22 0,14 0.3636,22 1,22 0.55,0 1,1.14545 1,2.54545 0,2.54892 3.9484,7.45455 6,7.45455 1.6409,0 6,4.68931 6,6.45455 0,0.85 0.45,1.54545 1,1.54545 0.55,0 1,0.9 1,2 0,1.1 0.45,2 1,2 0.55,0 1,0.9 1,2 0,1.1 0.45,2 1,2 0.55,0 1,0.69545 1,1.54545 0,2.00047 4.4541,6.45455 6.4546,6.45455 0.85,0 1.5454,0.45 1.5454,1 0,0.55 0.9,1 2,1 1.1,0 2,0.45 2,1 0,0.55 0.9,1 2,1 1.1,0 2,0.45 2,1 0,0.57143 3,1 7,1 4,0 7,0.42857 7,1 0,0.55 0.69,1 1.5333,1 1.9904,0 8.4667,6.47626 8.4667,8.46667 0,0.84333 0.45,1.53333 1,1.53333 0.55,0 1,0.9 1,2 0,1.1 0.45,2 1,2 0.55,0 1,0.9 1,2 0,1.1 0.45,2 1,2 0.55,0 1,0.9 1,2 0,1.1 0.45,2 1,2 0.5781,0 1,3.17544 1,7.52632 l 0,7.52631 4.4737,4.47369 c 2.4605,2.46052 4.9505,4.47368 5.5333,4.47368 2.1431,0 7.993,6.92842 7.993,9.46667 0,1.39333 0.45,2.53333 1,2.53333 0.5513,0 1,2.59308 1,5.77924 0,4.63207 0.397,6.06538 2,7.22076 1.6616,1.19759 2,2.58869 2,8.22076 0,6.11257 0.1967,6.77924 2,6.77924 1.1,0 2,0.45 2,1 0,0.55 0.9,1 2,1 1.1,0 2,0.45 2,1 0,0.55 1.35,1 3,1 1.65,0 3,-0.45 3,-1 0,-0.55 1.2507,-1 2.7792,-1 1.6321,0 3.3743,-0.82553 4.2208,-2 0.7928,-1.1 2.2422,-2 3.2208,-2 1.2989,0 1.7792,-0.7873 1.7792,-2.91667 0,-1.60416 0.5625,-3.1449 1.25,-3.42387 0.9438,-0.38294 0.8825,-0.7895 -0.25,-1.65946 -1.1325,-0.86996 -1.1938,-1.27652 -0.25,-1.65946 0.852,-0.34572 1.25,-3.02771 1.25,-8.42387 0,-4.61111 0.4175,-7.91667 1,-7.91667 0.55,0 1,-1.35 1,-3 0,-1.65 0.45,-3 1,-3 0.55,0 1,-0.70714 1,-1.57143 0,-2.02104 2.4075,-4.42857 4.4286,-4.42857 0.8643,0 1.5714,-0.45 1.5714,-1 0,-0.55 1.35,-1 3,-1 1.65,0 3,-0.45 3,-1 0,-0.55 1.35,-1 3,-1 1.65,0 3,-0.45 3,-1 0,-0.55 0.7195,-1 1.5988,-1 0.8793,0 2.8599,-1.35 4.4012,-3 1.5413,-1.65 3.5219,-3 4.4012,-3 0.8793,0 1.5988,-0.45 1.5988,-1 0,-0.55 0.9,-1 2,-1 1.1,0 2,-0.45 2,-1 0,-0.55 0.9,-1 2,-1 1.1,0 2,-0.45 2,-1 0,-0.55 0.7071,-1 1.5714,-1 2.0211,0 4.4286,-2.40753 4.4286,-4.42857 0,-1.26852 1.2617,-1.57143 6.5455,-1.57143 5.6161,0 6.8939,-0.34848 9,-2.45455 2.3451,-2.34519 2.4545,-3.01346 2.4545,-15 0,-7.69697 0.3865,-12.54545 1,-12.54545 0.55,0 1,-0.69545 1,-1.54545 0,-2.00047 4.4541,-6.45455 6.4546,-6.45455 0.85,0 1.5454,-0.45 1.5454,-1 0,-0.55 1.35,-1 3,-1 1.65,0 3,-0.45 3,-1 0,-0.55 1.14,-1 2.5333,-1 2.8169,0 9.4667,-5.94732 9.4667,-8.46667 0,-0.84333 0.45,-1.53333 1,-1.53333 0.5714,0 1,-3 1,-7 0,-4 0.4286,-7 1,-7 0.55,0 1,-0.69545 1,-1.54545 0,-1.76524 4.3591,-6.45455 6,-6.45455 1.4297,0 6,-4.59011 6,-6.02597 0,-3.01727 2.9391,-3.97403 12.2078,-3.97403 8.2035,0 9.5275,-0.24537 10.7922,-2 0.8465,-1.17447 2.5887,-2 4.2208,-2 1.5285,0 2.7792,-0.45 2.7792,-1 0,-0.55 0.9,-1 2,-1 1.1,0 2,0.45 2,1 0,0.58333 3.3333,1 8,1 4.6667,0 8,-0.41667 8,-1 0,-0.55 1.8,-1 4,-1 2.2,0 4,-0.45 4,-1 0,-0.55 1.8,-1 4,-1 2.2,0 4,-0.45 4,-1 0,-0.55 1.8,-1 4,-1 2.2,0 4,-0.45 4,-1 0,-0.61876 5.3056,-1 13.9167,-1 10.1555,0 14.0743,-0.33782 14.5,-1.25 0.4666,-1 0.7,-1 1.1666,0 0.3211,0.68794 2.3445,1.25 4.5,1.25 2.1542,0 3.9167,0.45 3.9167,1 0,0.6 4,1 10,1 6,0 10,0.4 10,1 0,0.55 0.9,1 2,1 1.1,0 2,0.45 2,1 0,0.55 1.35,1 3,1 1.65,0 3,0.45 3,1 0,0.55 0.9,1 2,1 1.1,0 2,0.45 2,1 0,0.55 0.8007,1 1.7792,1 0.9786,0 2.428,0.9 3.2208,2 1.0955,1.51994 2.5887,2 6.2208,2 2.6285,0 4.7792,0.45 4.7792,1 0,0.55 2.0603,1 4.5784,1 4.0343,0 5.0352,-0.47539 8.4216,-4 2.1138,-2.2 4.5535,-4 5.4216,-4 0.8681,0 1.5784,-0.45 1.5784,-1 0,-0.56522 2.8571,-1 6.5714,-1 7.2843,0 9.4286,1.23457 9.4286,5.42857 0,1.41429 0.45,2.57143 1,2.57143 0.55,0 1,2.25 1,5 0,2.75 0.45,5 1,5 1.6029,0 1.3546,107.66784 -0.25,108.41667 -1,0.46666 -1,0.7 0,1.16666 0.8175,0.38149 1.25,2.9003 1.25,7.27924 0,5.54874 -0.3426,6.94288 -2,8.13743 -1.1745,0.84651 -2,2.58869 -2,4.22076 0,1.52858 -0.45,2.77924 -1,2.77924 -0.55,0 -1,0.9 -1,2 0,1.1 -0.45,2 -1,2 -0.5683,0 -1,2.92641 -1,6.77924 0,5.63207 -0.3384,7.02317 -2,8.22076 -1.603,1.15538 -2,2.58869 -2,7.22076 0,3.18616 0.4487,5.77924 1,5.77924 0.55,0 1,2.25 1,5 0,2.75 -0.45,5 -1,5 -0.55,0 -1,2.49545 -1,5.54545 0,4.55444 -0.4386,5.98411 -2.4546,8 -1.35,1.35 -3.1499,2.45455 -4,2.45455 -0.85,0 -1.5454,0.45 -1.5454,1 0,0.55 -0.9,1 -2,1 -1.1,0 -2,0.45 -2,1 0,0.55 -0.6798,1 -1.5106,1 -2.0279,0 -25.2071,23.26076 -23.6849,23.76817 0.6575,0.21917 1.1955,1.261 1.1955,2.31516 0,1.05417 0.45,1.91667 1,1.91667 0.55,0 1,2.48684 1,5.52632 0,5.21155 -0.2548,5.78112 -4.4737,10 -3.8426,3.84258 -5.0517,4.47368 -8.5714,4.47368 -4.2536,0 -6.9549,1.7201 -6.9549,4.42857 0,0.86429 -0.45,1.57143 -1,1.57143 -0.55,0 -1,1.8 -1,4 0,2.2 -0.45,4 -1,4 -0.55,0 -1,0.9 -1,2 0,1.1 -0.45,2 -1,2 -0.55,0 -1,1.35 -1,3 0,1.65 -0.45,3 -1,3 -0.55,0 -1,2.25 -1,5 0,2.75 0.45,5 1,5 0.55,0 1,1.8 1,4 0,2.2 0.45,4 1,4 0.55,0 1,0.9 1,2 0,1.1 0.45,2 1,2 0.55,0 1,0.9 1,2 0,1.1 0.45,2 1,2 0.55,0 1,0.9 1,2 0,1.1 0.45,2 1,2 0.55,0 1,1.8 1,4 0,2.2 -0.45,4 -1,4 -0.55,0 -1,0.80066 -1,1.77924 0,0.97858 -0.9,2.42792 -2,3.22076 -1.1,0.79284 -2,2.24218 -2,3.22076 0,1.11257 -0.7494,1.77924 -2,1.77924 -1.1,0 -2,0.45 -2,1 0,0.58333 -3.3333,1 -8,1 -4.6667,0 -8,0.41667 -8,1 0,0.55 -2.25,1 -5,1 -2.75,0 -5,0.45 -5,1 0,0.55 -1.1571,1 -2.5714,1 -3.2805,0 -5.4286,2.14811 -5.4286,5.42857 0,1.90476 0.5185,2.57143 2,2.57143 1.1,0 2,0.45 2,1 0,0.55 1.8,1 4,1 2.2,0 4,0.45 4,1 0,0.55 1.35,1 3,1 1.65,0 3,0.45 3,1 0,0.55 0.9,1 2,1 1.1,0 2,0.45 2,1 0,0.55 0.9,1 2,1 1.1,0 2,0.45 2,1 0,0.55 0.7195,1 1.5988,1 0.8793,0 2.8599,1.35 4.4012,3 1.5413,1.65 3.3101,3 3.9306,3 0.6205,0 6.5017,5.4 13.0694,12 6.5677,6.6 12.4337,12 13.0355,12 0.6019,0 3.2859,2.25 5.9645,5 2.6786,2.75 5.5744,5 6.4351,5 0.8607,0 1.5649,0.45 1.5649,1 0,0.55 0.7042,1 1.5649,1 0.8607,0 3.7565,2.25 6.4351,5 2.6786,2.75 5.475,5 6.2143,5 0.7393,0 1.9929,0.9 2.7857,2 0.7928,1.1 2.2422,2 3.2208,2 0.9785,0 1.7792,0.69545 1.7792,1.54545 0,1.77949 4.3646,6.45455 6.026,6.45455 1.6318,0 3.974,2.61011 3.974,4.42857 0,0.86429 0.45,1.57143 1,1.57143 0.55,0 1,0.80066 1,1.77924 0,0.97858 0.9,2.42792 2,3.22076 1.1,0.79284 2,2.24218 2,3.22076 0,0.97858 0.45,1.77924 1,1.77924 0.55,0 1,0.9 1,2 0,1.1 0.45,2 1,2 0.55,0 1,0.80066 1,1.77924 0,0.97858 0.9,2.42792 2,3.22076 1.1,0.79284 2,2.24218 2,3.22076 0,0.97858 0.45,1.77924 1,1.77924 0.55,0 1,1.8 1,4 0,2.2 0.45,4 1,4 0.55,0 1,1.25066 1,2.77924 0,1.63207 0.8255,3.37425 2,4.22076 1.1,0.79284 2,2.14284 2,3 0,0.85716 0.9,2.20716 2,3 1.603,1.15538 2,2.58869 2,7.22076 0,3.18616 0.4487,5.77924 1,5.77924 0.55,0 1,0.9 1,2 0,1.1 0.45,2 1,2 0.55,0 1,1.35 1,3 0,1.65 0.45,3 1,3 0.55,0 1,0.9 1,2 0,1.1 0.45,2 1,2 0.5833,0 1,3.33333 1,8 0,4.66667 0.4167,8 1,8 0.5833,0 1,3.33333 1,8 0,4.66667 0.4167,8 1,8 0.5833,0 1,3.33333 1,8 0,4.66667 -0.4167,8 -1,8 -0.55,0 -1,0.9 -1,2 0,1.1 0.45,2 1,2 0.55,0 1,1.35 1,3 0,1.65 0.45,3 1,3 0.55,0 1,1.35 1,3 0,1.65 -0.45,3 -1,3 -0.55,0 -1,2.05714 -1,4.57143 0,4.71902 -1.6153,7.42857 -4.4286,7.42857 -0.8643,0 -1.5714,0.45 -1.5714,1 0,0.55 -0.7071,1 -1.5714,1 -1.8443,0 -4.4286,2.35017 -4.4286,4.02736 0,0.64362 1.35,2.43131 3,3.97264 1.65,1.54133 3,3.52188 3,4.40121 0,0.87933 0.45,1.59879 1,1.59879 0.55,0 1,2.15066 1,4.77924 0,3.63207 0.4801,5.12525 2,6.22076 1.8015,1.29845 2,2.58869 2,13 0,10.41131 0.1985,11.70155 2,13 1.3553,0.97681 2,2.58869 2,5 0,2.41131 -0.6447,4.02319 -2,5 -1.603,1.15538 -2,2.58869 -2,7.22076 0,3.18616 0.4487,5.77924 1,5.77924 0.5926,0 1,3.66667 1,9 0,5.33333 0.4074,9 1,9 0.55,0 1,0.9 1,2 0,1.1 -0.45,2 -1,2 -0.55,0 -1,2.25 -1,5 0,2.75 0.45,5 1,5 0.55,0 1,1.35 1,3 0,1.65 -0.45,3 -1,3 -0.55,0 -1,0.9 -1,2 0,1.1 0.45,2 1,2 0.55,0 1,1.35 1,3 0,1.65 0.45,3 1,3 0.55,0 1,1.8 1,4 0,2.2 -0.45,4 -1,4 -0.55,0 -1,0.9 -1,2 0,1.1 0.45,2 1,2 0.5833,0 1,3.33333 1,8 0,4.66667 0.4167,8 1,8 0.55,0 1,0.9 1,2 0,1.1 0.45,2 1,2 0.55,0 1,1.8 1,4 0,2.2 0.45,4 1,4 0.55,0 1,1.8 1,4 0,2.2 -0.45,4 -1,4 -0.625,0 -1,6 -1,16 0,10 0.375,16 1,16 0.55,0 1,0.9 1,2 0,1.1 0.45,2 1,2 0.5556,0 1,2.6667 1,6 0,3.3333 -0.4444,6 -1,6 -0.5714,0 -1,3 -1,7 0,4 -0.4286,7 -1,7 -0.55,0 -1,0.9 -1,2 0,1.1 -0.45,2 -1,2 -0.55,0 -1,0.9 -1,2 0,1.1 0.45,2 1,2 0.55,0 1,1.35 1,3 0,2.6667 -0.3333,3 -3,3 -2.3333,0 -3,0.4444 -3,2 0,1.1 0.45,2 1,2 0.55,0 1,1.35 1,3 0,1.65 0.45,3 1,3 0.6061,0 1,4.3333 1,11 l 0,11 -3,0 c -2.9149,0 -3,0.1356 -3,4.7792 0,3.6321 0.4801,5.1253 2,6.2208 1.3929,1.004 2,2.5887 2,5.2208 0,3.7424 -0.039,3.7792 -4,3.7792 l -4,0 0,5 c 0,2.75 0.45,5 1,5 0.55,0 1,0.9 1,2 0,1.1 0.45,2 1,2 0.55,0 1,2.25 1,5 0,2.75 -0.45,5 -1,5 -0.5919,0 -1,3.6389 -1,8.9167 0,6.1555 -0.3871,9.0973 -1.25,9.5 -1,0.4666 -1,0.7 0,1.1666 1.4826,0.6919 1.6935,4.4167 0.25,4.4167 -0.55,0 -1,1.35 -1,3 0,1.65 -0.45,3 -1,3 -0.55,0 -1,1.35 -1,3 0,1.65 -0.45,3 -1,3 -0.55,0 -1,1.8 -1,4 0,2.2 -0.45,4 -1,4 -0.55,0 -1,2.5195 -1,5.5988 0,4.9314 -0.3576,5.9328 -3,8.4012 -2.9022,2.7111 -4.2245,8 -2,8 0.5714,0 1,3 1,7 0,4 -0.4286,7 -1,7 -0.55,0 -1,1.35 -1,3 0,1.65 -0.45,3 -1,3 -0.55,0 -1,0.7103 -1,1.5784 0,0.8681 -1.8,3.3078 -4,5.4216 l -4,3.8432 0,8.5784 c 0,5.0523 -0.4111,8.5784 -1,8.5784 -0.55,0 -1,1.2507 -1,2.7792 0,1.6321 -0.8255,3.3743 -2,4.2208 -1.8633,1.343 -2,2.5887 -2,18.2208 0,10.5195 0.3731,16.7792 1,16.7792 0.55,0 1,1.8 1,4 0,2.2 0.45,4 1,4 0.55,0 1,2.25 1,5 0,2.75 0.45,5 1,5 0.55,0 1,2.25 1,5 0,2.75 0.45,5 1,5 0.5513,0 1,2.5931 1,5.7792 0,4.6321 0.397,6.0654 2,7.2208 1.6965,1.2227 2,2.5887 2,9 0,6.4113 0.3036,7.7773 2,9 1.3929,1.004 2,2.5887 2,5.2208 0,2.0785 0.45,3.7792 1,3.7792 0.55,0 1,1.8 1,4 0,2.2 0.45,4 1,4 0.55,0 1,1.8 1,4 0,2.2 0.45,4 1,4 0.55,0 1,0.7195 1,1.5988 0,0.8793 1.35,2.8599 3,4.4012 1.65,1.5413 3,3.4225 3,4.1805 0,0.7579 0.9,2.0267 2,2.8195 1.3553,0.9768 2,2.5887 2,5 0,2.4113 0.6448,4.0232 2,5 1.1,0.7928 2,2.2422 2,3.2208 0,0.9785 0.45,1.7792 1,1.7792 0.55,0 1,0.9 1,2 0,1.1 0.45,2 1,2 0.55,0 1,1.2507 1,2.7792 0,1.6321 0.8255,3.3743 2,4.2208 1.1,0.7928 2,2.1428 2,3 0,0.8572 0.9,2.2072 2,3 1.1,0.7928 2,2.2422 2,3.2208 0,0.9785 0.45,1.7792 1,1.7792 0.55,0 1,0.7195 1,1.5988 0,0.8793 1.35,2.8599 3,4.4012 1.8448,1.7233 3,3.8031 3,5.4012 0,1.4293 0.45,2.5988 1,2.5988 0.55,0 1,0.7071 1,1.5714 0,2.0211 2.4075,4.4286 4.4286,4.4286 0.9047,0 1.5714,0.8485 1.5714,2 0,1.1 0.45,2 1,2 0.55,0 1,0.9 1,2 0,1.1 0.45,2 1,2 0.55,0 1,2.0571 1,4.5714 0,4.4367 1.6006,7.4286 3.974,7.4286 1.6614,0 6.026,4.6751 6.026,6.4545 0,0.85 0.45,1.5455 1,1.5455 0.5926,0 1,3.6667 1,9 0,5.3333 -0.4074,9 -1,9 -0.55,0 -1,0.7195 -1,1.5988 0,0.8793 -1.35,2.8599 -3,4.4012 -1.65,1.5413 -3,3.5219 -3,4.4012 0,0.9321 -0.834,1.5988 -2,1.5988 -1.2506,0 -2,0.6667 -2,1.7792 0,0.9786 -0.9,2.428 -2,3.2208 -2.0657,1.4888 -2.7679,5 -1,5 0.55,0 1,0.9 1,2 0,1.1 0.45,2 1,2 0.55,0 1,1.8 1,4 0,2.2 -0.45,4 -1,4 -0.6,0 -1,4 -1,10 0,6 0.4,10 1,10 0.55,0 1,1.35 1,3 0,1.65 0.45,3 1,3 0.55,0 1,0.9 1,2 0,1.1 0.45,2 1,2 0.55,0 1,0.9 1,2 0,1.1 0.45,2 1,2 0.55,0 1,0.9 1,2 0,1.1 0.45,2 1,2 0.55,0 1,0.8007 1,1.7792 0,0.9786 0.9,2.428 2,3.2208 1.1745,0.8465 2,2.5887 2,4.2208 0,1.5285 0.45,2.7792 1,2.7792 0.55,0 1,1.1603 1,2.5784 0,1.7009 1.3613,3.8863 4,6.4216 2.2,2.1138 4,4.5535 4,5.4216 0,0.8681 0.45,1.5784 1,1.5784 1.9514,0 0.9628,5.1281 -1.4545,7.5455 -1.683,1.6829 -3.5691,2.4545 -6,2.4545 -1.95,0 -3.5455,0.45 -3.5455,1 0,0.55 -0.9,1 -2,1 -1.1,0 -2,0.45 -2,1 0,0.55 -2.0603,1 -4.5784,1 -4.0343,0 -5.0352,0.4754 -8.4216,4 -2.5353,2.6387 -4.7207,4 -6.4216,4 -1.4181,0 -2.5784,0.45 -2.5784,1 0,0.55 -0.7071,1 -1.5714,1 -0.8643,0 -2.2143,0.6429 -3,1.4286 -1.6152,1.6152 -1.9631,8.5714 -0.4286,8.5714 0.55,0 1,0.9 1,2 0,1.1 0.45,2 1,2 0.55,0 1,1.35 1,3 0,1.65 0.45,3 1,3 0.55,0 1,0.9 1,2 0,1.1 0.45,2 1,2 0.55,0 1,0.8007 1,1.7792 0,0.9786 0.9,2.428 2,3.2208 1.1745,0.8465 2,2.5887 2,4.2208 0,1.5285 0.45,2.7792 1,2.7792 0.55,0 1,0.9 1,2 0,1.1 0.45,2 1,2 0.55,0 1,0.9 1,2 0,1.1 0.45,2 1,2 0.55,0 1,1.35 1,3 0,1.65 0.45,3 1,3 0.55,0 1,2.5195 1,5.5988 0,4.9314 0.3576,5.9328 3,8.4012 1.65,1.5413 3,3.5219 3,4.4012 0,0.8793 0.45,1.5988 1,1.5988 0.55,0 1,1.8 1,4 0,2.2 0.45,4 1,4 0.55,0 1,0.9 1,2 0,1.1 0.45,2 1,2 0.55,0 1,1.35 1,3 0,1.65 0.45,3 1,3 0.55,0 1,1.35 1,3 0,1.65 0.45,3 1,3 0.55,0 1,2.25 1,5 0,4.3333 0.2667,5 2,5 1.3333,0 2,0.6667 2,2 0,1.1 0.45,2 1,2 0.581,0 1,3.2597 1,7.7792 0,6.6321 0.2949,7.9919 2,9.2208 1.1,0.7928 2,2.2422 2,3.2208 0,0.9785 0.45,1.7792 1,1.7792 0.55,0 1,0.9 1,2 0,1.1 0.45,2 1,2 0.55,0 1,1.1695 1,2.5988 0,1.5981 1.1552,3.6779 3,5.4012 1.65,1.5413 3,3.5219 3,4.4012 0,0.8793 0.45,1.5988 1,1.5988 0.55,0 1,0.9 1,2 0,1.1 0.45,2 1,2 0.6244,0 1,5.9264 1,15.7792 0,14.6321 -0.1454,15.8841 -2,17.2208 -1.5872,1.144 -2,2.5887 -2,7 0,4.4113 -0.4128,5.856 -2,7 -1.1,0.7928 -2,2.2422 -2,3.2208 0,0.9785 -0.45,1.7792 -1,1.7792 -0.55,0 -1,1.8 -1,4 0,2.2 -0.45,4 -1,4 -0.5556,0 -1,2.6667 -1,6 0,3.3333 0.4444,6 1,6 0.55,0 1,0.8007 1,1.7792 0,0.9786 0.9,2.428 2,3.2208 1.1,0.7928 2,2.2422 2,3.2208 0,0.9785 0.45,1.7792 1,1.7792 0.5714,0 1,3 1,7 0,4 0.4286,7 1,7 0.5926,0 1,3.6667 1,9 0,5.3333 -0.4074,9 -1,9 -0.55,0 -1,1.35 -1,3 0,1.65 -0.45,3 -1,3 -0.55,0 -1,0.69 -1,1.5333 0,0.8434 -1.56,3.0934 -3.4667,5 -1.9066,1.9067 -4.1566,3.4667 -5,3.4667 -0.8433,0 -1.5333,0.45 -1.5333,1 0,0.55 -0.9,1 -2,1 -1.5556,0 -2,0.6667 -2,3 0,1.65 -0.45,3 -1,3 -0.55,0 -1,0.9 -1,2 0,1.1 -0.45,2 -1,2 -0.55,0 -1,1.14 -1,2.5333 0,1.5645 -1.3458,3.8791 -3.519,6.0524 -3.108,3.1079 -3.6921,3.346 -5,2.0381 -0.8146,-0.8145 -1.481,-2.6381 -1.481,-4.0524 0,-1.4143 -0.45,-2.5714 -1,-2.5714 -0.55,0 -1,-1.8 -1,-4 0,-2.2 -0.45,-4 -1,-4 -0.55,0 -1,-1.1695 -1,-2.5988 0,-1.5981 -1.1552,-3.6779 -3,-5.4012 -1.65,-1.5413 -3,-3.3261 -3,-3.9661 0,-0.6401 -2.25,-3.3553 -5,-6.0339 -2.75,-2.6786 -5,-5.5744 -5,-6.4351 0,-0.8607 -0.45,-1.5649 -1,-1.5649 -0.55,0 -1,-1.2507 -1,-2.7792 0,-1.6321 -0.8255,-3.3743 -2,-4.2208 -1.1,-0.7928 -2,-2.0464 -2,-2.7857 0,-0.7393 -2.25,-3.5357 -5,-6.2143 -2.75,-2.6786 -5,-5.3846 -5,-6.0135 0,-0.6288 -1.8,-2.8727 -4,-4.9865 -2.2,-2.1138 -4,-4.4541 -4,-5.2008 0,-0.7467 -0.9,-2.0064 -2,-2.7992 -1.1,-0.7928 -2,-2.1428 -2,-3 0,-0.8572 -0.9,-2.2072 -2,-3 -1.1,-0.7928 -2,-2.0294 -2,-2.748 0,-0.7186 -5.85,-7.132 -13,-14.252 -7.15,-7.12 -13,-13.4522 -13,-14.0715 0,-0.6194 -1.35,-2.3872 -3,-3.9285 -1.7067,-1.5943 -3,-3.8276 -3,-5.1805 0,-1.3079 -0.9,-3.0267 -2,-3.8195 -1.1,-0.7928 -2,-2.2422 -2,-3.2208 0,-0.9785 -0.45,-1.7792 -1,-1.7792 -0.55,0 -1,-0.8007 -1,-1.7792 0,-0.9786 -0.9,-2.428 -2,-3.2208 -1.1,-0.7928 -2,-2.1428 -2,-3 0,-0.8572 -0.9,-2.2072 -2,-3 -1.1,-0.7928 -2,-2.0525 -2,-2.7992 0,-0.7467 -1.8,-3.087 -4,-5.2008 -2.2,-2.1138 -4,-4.3729 -4,-5.0204 0,-0.6474 -1.35,-2.4383 -3,-3.9796 -1.65,-1.5413 -3,-3.3322 -3,-3.9796 0,-0.6475 -1.8,-2.9066 -4,-5.0204 -2.2,-2.1138 -4,-4.5535 -4,-5.4216 0,-1.2784 -1.2542,-1.5784 -6.5988,-1.5784 -6.0425,0 -6.835,0.2529 -9.4012,3 -1.5413,1.65 -3.5219,3 -4.4012,3 -0.8793,0 -1.5988,0.45 -1.5988,1 0,0.55 -1.8,1 -4,1 -2.2,0 -4,0.45 -4,1 0,0.55 -1.35,1 -3,1 -2.3333,0 -3,0.4444 -3,2 0,1.1 -0.45,2 -1,2 -0.55,0 -1,1.7007 -1,3.7792 0,2.6321 0.6071,4.2168 2,5.2208 1.1745,0.8465 2,2.5887 2,4.2208 0,1.5285 0.45,2.7792 1,2.7792 0.55,0 1,0.9 1,2 0,1.1 0.45,2 1,2 0.55,0 1,1.8 1,4 0,2.2 0.45,4 1,4 0.55,0 1,1.35 1,3 0,1.65 0.45,3 1,3 0.55,0 1,1.2507 1,2.7792 0,1.6321 0.8255,3.3743 2,4.2208 1.1032,0.7952 2,2.5887 2,4 0,1.4113 0.8968,3.2048 2,4 1.603,1.1554 2,2.5887 2,7.2208 0,3.1861 0.4487,5.7792 1,5.7792 0.55,0 1,1.35 1,3 0,1.65 0.45,3 1,3 0.55,0 1,1.7007 1,3.7792 0,2.6321 0.6071,4.2168 2,5.2208 1.1,0.7928 2,2.1428 2,3 0,0.8572 0.9,2.2072 2,3 1.1,0.7928 2,2.2422 2,3.2208 0,0.9785 0.45,1.7792 1,1.7792 0.55,0 1,0.8625 1,1.9167 0,1.0541 0.5625,2.1791 1.25,2.5 1,0.4666 1,0.7 0,1.1666 -1.4826,0.6919 -1.6935,4.4167 -0.25,4.4167 0.55,0 1,0.8007 1,1.7792 0,0.9786 0.9,2.428 2,3.2208 1.1,0.7928 2,2.2422 2,3.2208 0,0.9785 0.45,1.7792 1,1.7792 0.55,0 1,0.9 1,2 0,1.1 0.45,2 1,2 0.55,0 1,1.35 1,3 0,1.65 0.45,3 1,3 0.55,0 1,0.9 1,2 0,1.1 0.45,2 1,2 0.55,0 1,1.8 1,4 0,2.2 0.45,4 1,4 0.55,0 1,0.9 1,2 0,1.1 0.45,2 1,2 0.55,0 1,0.9 1,2 0,1.1 0.45,2 1,2 0.55,0 1,0.9 1,2 0,1.1 0.45,2 1,2 0.55,0 1,1.7007 1,3.7792 0,2.6321 0.6071,4.2168 2,5.2208 1.3929,1.004 2,2.5887 2,5.2208 0,2.0785 0.45,3.7792 1,3.7792 0.55,0 1,0.9 1,2 0,1.1 0.45,2 1,2 0.55,0 1,0.9 1,2 0,1.1 0.45,2 1,2 0.55,0 1,1.8 1,4 0,2.2 0.45,4 1,4 0.55,0 1,1.35 1,3 0,1.65 0.45,3 1,3 0.55,0 1,0.9 1,2 0,1.1 0.45,2 1,2 0.55,0 1,2.25 1,5 0,2.75 0.45,5 1,5 0.55,0 1,0.9 1,2 0,1.1 0.45,2 1,2 0.55,0 1,1.2507 1,2.7792 0,1.6321 0.8255,3.3743 2,4.2208 1.5199,1.0955 2,2.5887 2,6.2208 0,2.6285 0.45,4.7792 1,4.7792 0.55,0 1,0.8007 1,1.7792 0,0.9786 0.9,2.428 2,3.2208 1.1,0.7928 2,2.2422 2,3.2208 0,0.9785 0.45,1.7792 1,1.7792 0.55,0 1,1.35 1,3 0,1.65 0.45,3 1,3 0.55,0 1,0.9 1,2 0,1.1 -0.45,2 -1,2 -1.8484,0 -1.0606,5.5148 1,7 1.1,0.7928 2,2.1428 2,3 0,0.8572 0.9,2.2072 2,3 1.3553,0.9768 2,2.5887 2,5 0,2.4113 0.6448,4.0232 2,5 1.1745,0.8465 2,2.5887 2,4.2208 0,1.5285 0.45,2.7792 1,2.7792 0.55,0 1,0.9 1,2 0,1.1 0.45,2 1,2 0.5714,0 1,3 1,7 0,4 0.4286,7 1,7 0.55,0 1,0.7195 1,1.5988 0,0.8793 1.35,2.8599 3,4.4012 1.8448,1.7233 3,3.8031 3,5.4012 0,1.4293 0.45,2.5988 1,2.5988 0.55,0 1,0.9 1,2 0,1.1 0.45,2 1,2 0.55,0 1,1.35 1,3 0,1.65 0.45,3 1,3 0.55,0 1,0.9 1,2 0,1.1 0.45,2 1,2 0.55,0 1,1.8 1,4 0,2.2 0.45,4 1,4 0.55,0 1,0.8007 1,1.7792 0,0.9786 0.9,2.428 2,3.2208 1.1,0.7928 2,2.2422 2,3.2208 0,0.9785 0.45,1.7792 1,1.7792 0.55,0 1,1.35 1,3 0,1.65 0.45,3 1,3 0.55,0 1,0.9 1,2 0,1.1 0.45,2 1,2 0.55,0 1,1.8 1,4 0,2.2 0.45,4 1,4 0.55,0 1,1.35 1,3 0,1.65 0.45,3 1,3 0.55,0 1,0.8007 1,1.7792 0,0.9786 0.9,2.428 2,3.2208 1.1,0.7928 2,2.2422 2,3.2208 0,0.9785 0.45,1.7792 1,1.7792 0.55,0 1,0.9 1,2 0,1.1 0.45,2 1,2 0.55,0 1,1.7007 1,3.7792 0,2.6321 0.6071,4.2168 2,5.2208 1.1032,0.7952 2,2.5887 2,4 0,1.4113 0.8968,3.2048 2,4 1.3929,1.004 2,2.5887 2,5.2208 0,2.0785 -0.45,3.7792 -1,3.7792 -0.5926,0 -1,3.6667 -1,9 0,5.3333 0.4074,9 1,9 0.55,0 1,1.2507 1,2.7792 0,1.6321 0.8255,3.3743 2,4.2208 1.7387,1.2532 2,2.5887 2,10.2208 0,8.1125 0.1519,8.7792 2,8.7792 1.7607,0 2,0.6667 2,5.5714 0,5.7339 -1.4158,8.4286 -4.4286,8.4286 -0.8643,0 -1.5714,0.45 -1.5714,1 0,0.55 -1.35,1 -3,1 -1.65,0 -3,-0.45 -3,-1 0,-0.55 -0.9,-1 -2,-1 -1.1,0 -2,-0.45 -2,-1 0,-0.55 -1.14,-1 -2.5333,-1 -2.5383,0 -9.4667,-5.8499 -9.4667,-7.993 0,-1.4178 -8.6454,-10.007 -10.0725,-10.007 -0.6188,0 -2.3862,-1.35 -3.9275,-3 -1.5413,-1.65 -3.3173,-3 -3.9467,-3 -1.6828,0 -6.0533,-4.6602 -6.0533,-6.4545 0,-0.85 -0.45,-1.5455 -1,-1.5455 -0.55,0 -1,-0.9 -1,-2 0,-1.1 -0.45,-2 -1,-2 -0.55,0 -1,-0.8007 -1,-1.7792 0,-0.9786 -0.9,-2.428 -2,-3.2208 -1.1,-0.7928 -2,-2.2422 -2,-3.2208 0,-1.1125 -0.7494,-1.7792 -2,-1.7792 -1.2506,0 -2,-0.6667 -2,-1.7792 0,-0.9786 -0.9,-2.428 -2,-3.2208 -1.1,-0.7928 -2,-2.2422 -2,-3.2208 0,-0.9785 -0.45,-1.7792 -1,-1.7792 -0.55,0 -1,-0.9 -1,-2 0,-1.1 -0.45,-2 -1,-2 -0.55,0 -1,-0.9 -1,-2 0,-1.1 -0.45,-2 -1,-2 -0.55,0 -1,-1.35 -1,-3 0,-1.65 -0.45,-3 -1,-3 -0.55,0 -1,-0.9 -1,-2 0,-1.1 -0.45,-2 -1,-2 -0.55,0 -1,-0.8007 -1,-1.7792 0,-0.9786 -0.9,-2.428 -2,-3.2208 -1.3552,-0.9768 -2,-2.5887 -2,-5 0,-2.4113 -0.6447,-4.0232 -2,-5 -1.4967,-1.0788 -2,-2.5887 -2,-6 0,-3.4113 -0.5033,-4.9212 -2,-6 -1.1,-0.7928 -2,-2.2422 -2,-3.2208 0,-0.9785 -0.45,-1.7792 -1,-1.7792 -0.55,0 -1,-0.9 -1,-2 0,-1.1 -0.45,-2 -1,-2 -0.55,0 -1,-0.9 -1,-2 0,-1.1 -0.45,-2 -1,-2 -0.55,0 -1,-0.9 -1,-2 0,-1.1 -0.45,-2 -1,-2 -0.55,0 -1,-0.9 -1,-2 0,-1.1 -0.45,-2 -1,-2 -0.55,0 -1,-0.7195 -1,-1.5988 0,-0.8793 -1.35,-2.8599 -3,-4.4012 -2.5891,-2.4186 -3,-3.5143 -3,-8 0,-4.4857 -0.4109,-5.5814 -3,-8 -1.8448,-1.7233 -3,-3.8031 -3,-5.4012 0,-1.4293 -0.45,-2.5988 -1,-2.5988 -0.55,0 -1,-0.9 -1,-2 0,-1.1 -0.45,-2 -1,-2 -0.55,0 -1,-0.9 -1,-2 0,-1.1 -0.45,-2 -1,-2 -0.55,0 -1,-1.7007 -1,-3.7792 0,-2.6321 -0.6071,-4.2168 -2,-5.2208 -1.1,-0.7928 -2,-2.2422 -2,-3.2208 0,-0.9785 -0.45,-1.7792 -1,-1.7792 -0.55,0 -1,-0.9 -1,-2 0,-1.1 -0.45,-2 -1,-2 -0.55,0 -1,-2.0695 -1,-4.5988 0,-3.8203 -0.5078,-5.0732 -3,-7.4012 -1.65,-1.5413 -3,-3.5219 -3,-4.4012 0,-0.8793 -0.45,-1.5988 -1,-1.5988 -0.55,0 -1,-2.1507 -1,-4.7792 0,-3.6321 -0.4801,-5.1253 -2,-6.2208 -1.4967,-1.0788 -2,-2.5887 -2,-6 0,-3.4113 -0.5033,-4.9212 -2,-6 -1.1745,-0.8465 -2,-2.5887 -2,-4.2208 0,-1.5285 -0.45,-2.7792 -1,-2.7792 -0.55,0 -1,-0.9 -1,-2 0,-1.1 -0.45,-2 -1,-2 -0.55,0 -1,-1.35 -1,-3 0,-1.65 -0.45,-3 -1,-3 -0.55,0 -1,-0.9 -1,-2 0,-1.1 -0.45,-2 -1,-2 -0.55,0 -1,-1.8 -1,-4 0,-2.2 -0.45,-4 -1,-4 -0.55,0 -1,-0.9 -1,-2 0,-1.1 -0.45,-2 -1,-2 -0.55,0 -1,-1.2507 -1,-2.7792 0,-1.6321 -0.8255,-3.3743 -2,-4.2208 -1.3929,-1.004 -2,-2.5887 -2,-5.2208 0,-2.0785 -0.45,-3.7792 -1,-3.7792 -0.55,0 -1,-0.9 -1,-2 0,-1.1 -0.45,-2 -1,-2 -0.55,0 -1,-1.35 -1,-3 0,-1.65 -0.45,-3 -1,-3 -0.55,0 -1,-0.9 -1,-2 0,-1.1 -0.45,-2 -1,-2 -0.55,0 -1,-1.2507 -1,-2.7792 0,-1.6321 -0.8255,-3.3743 -2,-4.2208 -1.1745,-0.8465 -2,-2.5887 -2,-4.2208 0,-1.5285 -0.45,-2.7792 -1,-2.7792 -0.55,0 -1,-0.9 -1,-2 0,-1.1 -0.45,-2 -1,-2 -0.55,0 -1,-1.35 -1,-3 0,-1.65 -0.45,-3 -1,-3 -0.55,0 -1,-0.9 -1,-2 0,-1.1 -0.45,-2 -1,-2 -0.55,0 -1,-1.2507 -1,-2.7792 0,-1.6321 -0.8255,-3.3743 -2,-4.2208 -1.1745,-0.8465 -2,-2.5887 -2,-4.2208 0,-1.5285 -0.45,-2.7792 -1,-2.7792 -0.55,0 -1,-0.9 -1,-2 0,-1.1 -0.45,-2 -1,-2 -0.55,0 -1,-1.35 -1,-3 0,-1.65 -0.45,-3 -1,-3 -0.55,0 -1,-1.35 -1,-3 0,-1.65 -0.45,-3 -1,-3 -0.55,0 -1,-1.8 -1,-4 0,-2.2 -0.45,-4 -1,-4 -0.55,0 -1,-0.9 -1,-2 0,-1.1 -0.45,-2 -1,-2 -0.55,0 -1,-0.9 -1,-2 0,-1.1 -0.45,-2 -1,-2 -0.55,0 -1,-0.9 -1,-2 0,-1.1 -0.45,-2 -1,-2 -0.55,0 -1,-1.7007 -1,-3.7792 0,-2.6321 -0.6071,-4.2168 -2,-5.2208 -1.1745,-0.8465 -2,-2.5887 -2,-4.2208 0,-1.5285 -0.45,-2.7792 -1,-2.7792 -0.55,0 -1,-0.9 -1,-2 0,-1.1 -0.45,-2 -1,-2 -0.55,0 -1,-1.2507 -1,-2.7792 0,-1.6321 -0.8255,-3.3743 -2,-4.2208 -1.1745,-0.8465 -2,-2.5887 -2,-4.2208 0,-1.5285 -0.45,-2.7792 -1,-2.7792 -0.55,0 -1,-1.8 -1,-4 0,-2.2 -0.45,-4 -1,-4 -0.55,0 -1,-1.35 -1,-3 0,-1.65 -0.45,-3 -1,-3 -0.55,0 -1,-0.9 -1,-2 0,-1.1 -0.45,-2 -1,-2 -0.55,0 -1,-1.8 -1,-4 0,-2.2 -0.45,-4 -1,-4 -0.55,0 -1,-0.69 -1,-1.5333 0,-2.2753 -6.6093,-8.4667 -9.0381,-8.4667 -2.484,0 -4.9619,2.2115 -4.9619,4.4286 0,0.8643 -0.45,1.5714 -1,1.5714 -0.6145,0 -1,4.9264 -1,12.7792 0,11.6321 0.1795,12.9087 2,14.2208 1.5872,1.144 2,2.5887 2,7 0,4.4113 0.4128,5.856 2,7 1.1,0.7928 2,2.1428 2,3 0,0.8572 0.9,2.2072 2,3 1.1,0.7928 2,2.1428 2,3 0,0.8572 0.9,2.2072 2,3 1.1,0.7928 2,2.1428 2,3 0,0.8572 0.9,2.2072 2,3 1.1,0.7928 2,2.2422 2,3.2208 0,0.9785 0.45,1.7792 1,1.7792 0.55,0 1,1.35 1,3 0,1.65 -0.45,3 -1,3 -0.55,0 -1,1.35 -1,3 0,2.2093 -0.469,3 -1.7792,3 -0.9786,0 -2.428,0.9 -3.2208,2 -1.2652,1.7553 -2.5887,2 -10.8196,2 -9.1306,0 -9.4519,-0.079 -12.1804,-3 -1.5413,-1.65 -3.0719,-3 -3.4012,-3 -0.3293,0 -0.5988,2.25 -0.5988,5 0,2.75 0.45,5 1,5 0.55,0 1,0.9 1,2 0,1.1 0.45,2 1,2 0.55,0 1,0.9 1,2 0,1.1 0.45,2 1,2 0.55,0 1,0.9 1,2 0,1.1 0.45,2 1,2 0.55,0 1,1.1603 1,2.5784 0,1.7009 1.3613,3.8863 4,6.4216 2.2,2.1138 4,4.5535 4,5.4216 0,0.8681 0.45,1.5784 1,1.5784 0.55,0 1,1.35 1,3 0,1.65 0.45,3 1,3 0.55,0 1,0.8007 1,1.7792 0,0.9786 0.9,2.428 2,3.2208 1.1745,0.8465 2,2.5887 2,4.2208 0,1.5285 0.45,2.7792 1,2.7792 0.55,0 1,0.9 1,2 0,1.1 0.45,2 1,2 0.55,0 1,1.35 1,3 0,1.65 0.45,3 1,3 0.55,0 1,0.9 1,2 0,1.1 0.45,2 1,2 0.55,0 1,2.25 1,5 0,2.75 0.45,5 1,5 0.55,0 1,1.8 1,4 0,2.2 0.45,4 1,4 0.55,0 1,1.35 1,3 0,1.65 0.45,3 1,3 0.55,0 1,0.9 1,2 0,1.1 0.45,2 1,2 0.55,0 1,1.8 1,4 0,2.2 0.45,4 1,4 0.55,0 1,1.35 1,3 0,1.65 0.45,3 1,3 0.55,0 1,2.25 1,5 0,2.75 0.45,5 1,5 0.55,0 1,1.35 1,3 0,1.65 0.45,3 1,3 0.5714,0 1,3 1,7 0,4 0.4286,7 1,7 0.55,0 1,0.9 1,2 0,1.1 0.45,2 1,2 0.6111,0 1,4.6667 1,12 0,10.1569 0.2374,12 1.5455,12 2.8582,0 6.4545,4.6642 6.4545,8.3712 0,1.9042 -0.5625,3.7246 -1.25,4.0455 -1,0.4666 -1,0.7 0,1.1666 0.7934,0.3703 1.25,2.7445 1.25,6.5 0,3.2778 0.446,5.9167 1,5.9167 0.55,0 1,0.9 1,2 0,1.1 -0.45,2 -1,2 -0.55,0 -1,1.35 -1,3 0,1.65 0.45,3 1,3 0.55,0 1,1.35 1,3 0,1.65 0.45,3 1,3 2.0118,0 0.9215,3.2709 -2,6 -3.5095,3.2784 -3.7573,5.0127 -1,7 1.7387,1.2532 2,2.5887 2,10.2208 0,5.1861 -0.4093,8.7792 -1,8.7792 -0.55,0 -1,2.25 -1,5 0,2.75 -0.45,5 -1,5 -0.55,0 -1,0.9 -1,2 0,1.1 -0.45,2 -1,2 -0.55,0 -1,1.8 -1,4 0,2.2 -0.45,4 -1,4 -0.55,0 -1,0.9 -1,2 0,1.1 -0.45,2 -1,2 -0.55,0 -1,0.8007 -1,1.7792 0,0.9786 -0.9,2.428 -2,3.2208 -1.3929,1.004 -2,2.5887 -2,5.2208 0,2.0785 -0.45,3.7792 -1,3.7792 -0.55,0 -1,0.9 -1,2 0,1.1 0.45,2 1,2 0.5556,0 1,2.6667 1,6 0,3.3333 0.4444,6 1,6 0.6222,0 1,5.6667 1,15 0,9.3333 -0.3778,15 -1,15 -0.5985,0 -1,3.9264 -1,9.7792 0,8.6321 0.2346,9.9484 2,11.2208 1.603,1.1554 2,2.5887 2,7.2208 0,3.1861 -0.4487,5.7792 -1,5.7792 -0.55,0 -1,1.3125 -1,2.9167 0,1.6041 -0.5625,3.1791 -1.25,3.5 -1,0.4666 -1,0.7 0,1.1666 1.4986,0.6994 1.7318,10.4167 0.25,10.4167 -0.6349,0 -1,7.6667 -1,21 0,13.3333 0.3651,21 1,21 0.55,0 1,2.25 1,5 0,2.75 0.45,5 1,5 0.55,0 1,1.2507 1,2.7792 0,1.6321 0.8255,3.3743 2,4.2208 1.1745,0.8465 2,2.5887 2,4.2208 0,1.5285 0.45,2.7792 1,2.7792 0.55,0 1,2.25 1,5 0,2.75 0.45,5 1,5 0.55,0 1,2.25 1,5 0,2.75 0.45,5 1,5 0.55,0 1,0.9 1,2 0,1.1 0.45,2 1,2 0.55,0 1,1.35 1,3 0,1.65 0.45,3 1,3 0.55,0 1,1.35 1,3 0,1.65 -0.45,3 -1,3 -0.55,0 -1,1.8 -1,4 0,2.2 -0.45,4 -1,4 -0.5926,0 -1,3.6667 -1,9 0,5.3333 0.4074,9 1,9 0.55,0 1,1.8 1,4 0,2.9697 0.4048,4 1.5714,4 2.0732,0 4.4286,2.4255 4.4286,4.5602 0,1.4112 0.6892,1.6107 4.0209,1.1638 2.833,-0.38 4.468,-0.092 5.534,0.9738 1.0551,1.055 2.638,1.3424 5.2291,0.9493 2.0438,-0.3101 5.6203,-0.7292 7.9477,-0.9314 2.5843,-0.2244 4.9201,-1.135 6,-2.339 5.6153,-6.2608 15.2683,-9.2763 15.2683,-4.7697 0,2.2381 3.8164,1.6028 5.4624,-0.9093 0.8297,-1.2662 1.8034,-3.8537 2.1638,-5.75 0.3604,-1.8962 0.9832,-3.8977 1.3841,-4.4477 0.4009,-0.55 1.0245,-2.6423 1.3858,-4.6495 0.8816,-4.8984 3.1118,-6.7712 5.3719,-4.5111 1.2234,1.2235 1.6847,3.53 1.732,8.6606 0.046,4.9672 0.5213,7.4499 1.6415,8.5701 1.7461,1.7461 7.6809,3.3693 12.4535,3.406 3.3067,0.026 6.405,2.6134 6.405,5.3498 0,0.9176 -1.5807,3.418 -3.5127,5.5564 -3.7475,4.1481 -3.7525,4.296 -0.3996,11.8131 1.0291,2.3074 2.1561,5.977 2.5043,8.1546 0.5415,3.3862 0.3219,4.1257 -1.5172,5.11 -2.53,1.354 -5.1828,0.6587 -10.23,-2.6814 -2.7911,-1.8471 -4.1246,-2.1989 -5.5132,-1.4548 -3.4955,1.8732 -11.3316,11.8754 -11.3316,14.4639 0,2.4183 -9.1563,3.8864 -10.5161,1.6862 -0.8685,-1.4052 3.2947,-14.5453 5.0771,-16.0245 0.7914,-0.6569 1.439,-2.2284 1.439,-3.4924 0,-1.7518 -0.7295,-2.4583 -3.0689,-2.9721 -5.3346,-1.1717 -17.0412,0.4769 -22.9311,3.2292 -8.5792,4.0091 -10,5.7084 -10,11.9602 0,2.9291 -0.45,5.3257 -1,5.3257 -0.55,0 -1,0.9 -1,2 0,1.1 0.45,2 1,2 0.5556,0 1,2.6667 1,6 0,3.3333 0.4444,6 1,6 0.55,0 1,0.9 1,2 0,1.1 0.45,2 1,2 0.55,0 1,0.9 1,2 0,1.1 0.45,2 1,2 0.5985,0 1,3.9264 1,9.7792 0,8.6321 -0.2346,9.9484 -2,11.2208 -1.1,0.7928 -2,2.2422 -2,3.2208 0,1.1125 -0.7494,1.7792 -2,1.7792 -1.1,0 -2,0.45 -2,1 0,0.55 -0.9,1 -2,1 -1.1,0 -2,0.45 -2,1 0,0.55 -0.8007,1 -1.7792,1 -0.9786,0 -2.428,0.9 -3.2208,2 -0.8465,1.1745 -2.5887,2 -4.2208,2 -1.5285,0 -2.7792,0.45 -2.7792,1 0,0.55 -2.25,1 -5,1 -2.75,0 -5,-0.45 -5,-1 0,-0.55 -2.25,-1 -5,-1 -2.75,0 -5,0.45 -5,1 0,0.55 -0.9,1 -2,1 -1.1,0 -2,0.45 -2,1 0,0.6111 -4.6667,1 -12,1 -7.3333,0 -12,-0.3889 -12,-1 0,-0.55 -1.8,-1 -4,-1 -2.2,0 -4,0.45 -4,1 0,0.5556 -2.6667,1 -6,1 -3.3333,0 -6,0.4444 -6,1 0,0.619 -5.3333,1 -14,1 -8.6667,0 -14,0.381 -14,1 0,1.4818 -9.7173,1.2486 -10.4167,-0.25 -0.4666,-1 -0.7,-1 -1.1666,0 -0.3209,0.6875 -1.2653,1.25 -2.0988,1.25 -0.8335,0 -2.7766,1.35 -4.3179,3 -2.3135,2.4767 -3.5901,3 -7.3179,3 -2.6346,0 -4.7584,-0.5207 -5.0988,-1.25 -0.4666,-1 -0.7,-1 -1.1666,0 -0.3209,0.6875 -1.8959,1.25 -3.5,1.25 -1.6042,0 -2.9167,0.45 -2.9167,1 0,0.55 -1.7007,1 -3.7792,1 -2.6321,0 -4.2168,0.6071 -5.2208,2 -1.0955,1.5199 -2.5887,2 -6.2208,2 -2.6285,0 -4.7792,0.45 -4.7792,1 0,0.55 -1.35,1 -3,1 -1.65,0 -3,0.45 -3,1 0,0.55 -1.6103,1 -3.5784,1 -2.8676,0 -4.3418,0.7945 -7.4216,4 -2.5353,2.6387 -4.7207,4 -6.4216,4 -1.4181,0 -2.5784,-0.45 -2.5784,-1 0,-0.55 -2.25,-1 -5,-1 -2.75,0 -5,0.45 -5,1 0,0.55 -1.8,1 -4,1 -2.2,0 -4,-0.45 -4,-1 z m -172,-1886 c 0,-0.55 0.9,-1 2,-1 1.1,0 2,-0.45 2,-1 0,-0.55 0.7195,-1 1.5988,-1 0.8793,0 2.8599,-1.35 4.4012,-3 1.7233,-1.84484 3.8031,-3 5.4012,-3 1.4293,0 2.5988,-0.45 2.5988,-1 0,-0.61905 5.3333,-1 14,-1 8.6667,0 14,-0.38095 14,-1 0,-0.55 1.35,-1 3,-1 1.65,0 3,-0.45 3,-1 0,-0.55 1.35,-1 3,-1 1.65,0 3,-0.45 3,-1 0,-0.55 1.8,-1 4,-1 2.2,0 4,-0.45 4,-1 0,-0.55 1.35,-1 3,-1 1.65,0 3,-0.45 3,-1 0,-0.55 0.6848,-1 1.5217,-1 1.714,0 12.4783,-10.3722 12.4783,-12.02372 0,-1.62229 4.7024,-5.97628 6.4546,-5.97628 0.85,0 1.5454,-0.45 1.5454,-1 0,-0.55556 2.6667,-1 6,-1 3.3333,0 6,0.44444 6,1 0,0.55 1.35,1 3,1 2.0606,0 3,0.49206 3,1.57143 0,0.86428 0.6429,2.21428 1.4286,3 0.7857,0.78571 2.1357,1.42857 3,1.42857 0.8643,0 1.5714,0.45 1.5714,1 0,0.59701 3.8571,1 9.5714,1 10.4632,0 12.4286,-0.85844 12.4286,-5.42857 0,-1.41429 0.45,-2.57143 1,-2.57143 0.55,0 1,-0.69545 1,-1.54545 0,-0.85 1.1046,-2.65 2.4546,-4 1.35,-1.35 3.15,-2.45455 4,-2.45455 0.85,0 1.5454,-0.45 1.5454,-1 0,-0.55 0.6955,-1 1.5455,-1 0.85,0 2.65,-1.10455 4,-2.45455 1.35,-1.35 2.4545,-3.15 2.4545,-4 0,-0.85 0.45,-1.54545 1,-1.54545 0.55,0 1,-1.16946 1,-2.59879 0,-1.59812 1.1552,-3.67787 3,-5.40121 1.8448,-1.72334 3,-3.80309 3,-5.40121 0,-1.42933 0.45,-2.59879 1,-2.59879 0.5556,0 1,-2.66667 1,-6 0,-3.33333 0.4444,-6 1,-6 0.55,0 1,-1.8 1,-4 0,-2.2 -0.45,-4 -1,-4 -0.55,0 -1,-0.71946 -1,-1.59879 0,-0.87933 -1.35,-2.85988 -3,-4.40121 -1.65,-1.54133 -3,-3.52188 -3,-4.40121 0,-0.87933 -0.45,-1.59879 -1,-1.59879 -0.55,0 -1,-0.9 -1,-2 0,-1.1 -0.45,-2 -1,-2 -0.55,0 -1,-0.80066 -1,-1.77924 0,-0.97858 -0.9,-2.42792 -2,-3.22076 -1.1,-0.79284 -2,-2.24218 -2,-3.22076 0,-0.97858 -0.45,-1.77924 -1,-1.77924 -0.55,0 -1,-1.35 -1,-3 0,-1.65 -0.45,-3 -1,-3 -0.55,0 -1,-0.9 -1,-2 0,-1.1 -0.45,-2 -1,-2 -0.55,0 -1,-0.9 -1,-2 0,-1.1 -0.45,-2 -1,-2 -0.55,0 -1,-0.9 -1,-2 0,-1.55556 -0.6667,-2 -3,-2 -1.65,0 -3,-0.45 -3,-1 0,-0.55 -0.6848,-1 -1.5217,-1 -0.837,0 -3.987,-2.46522 -7,-5.47826 -5.0223,-5.0223 -5.4783,-5.85461 -5.4783,-10 0,-2.48696 -0.45,-4.52174 -1,-4.52174 -0.55,0 -1,-1.16028 -1,-2.5784 0,-1.70093 -1.3613,-3.8863 -4,-6.4216 -2.2,-2.11376 -4,-4.55348 -4,-5.4216 0,-0.86812 -0.45,-1.5784 -1,-1.5784 -0.55,0 -1,-1.35 -1,-3 0,-1.65 -0.45,-3 -1,-3 -0.55,0 -1,-0.9 -1,-2 0,-1.1 0.45,-2 1,-2 0.55,0 1,-0.80066 1,-1.77924 0,-0.97858 0.9,-2.42792 2,-3.22076 1.1,-0.79284 2,-2.24218 2,-3.22076 0,-1.31027 0.7907,-1.77924 3,-1.77924 2.1084,0 3,-0.48526 3,-1.6327 0,-0.89799 0.9429,-2.45051 2.0954,-3.45005 l 2.0954,-1.81734 -2.5499,-2.54995 C 465.8626,332.77564 464.0085,332 461.5415,332 c -1.95,0 -3.5455,-0.45 -3.5455,-1 0,-0.55 -1.35,-1 -3,-1 -1.65,0 -3,-0.45 -3,-1 0,-1.51762 -4.9479,-1.19493 -6.5714,0.42857 -0.7857,0.78572 -1.4286,2.13572 -1.4286,3 0,0.86429 -0.7195,1.57143 -1.5988,1.57143 -0.8793,0 -2.8599,1.35 -4.4012,3 -2.1097,2.25845 -3.692,3 -6.4012,3 -1.9793,0 -3.5988,0.45 -3.5988,1 0,0.55 -1.8,1 -4,1 -2.2,0 -4,0.45 -4,1 0,0.55 -0.8007,1 -1.7792,1 -0.9786,0 -2.428,0.9 -3.2208,2 -1.0039,1.39291 -2.5887,2 -5.2208,2 -2.0785,0 -3.7792,0.45 -3.7792,1 0,0.55 -0.9,1 -2,1 -1.1,0 -2,0.45 -2,1 0,0.55 -0.7195,1 -1.5988,1 -0.8793,0 -2.8599,1.35 -4.4012,3 -2.1097,2.25845 -3.692,3 -6.4012,3 -1.9793,0 -3.5988,0.45 -3.5988,1 0,0.55 -1.5868,1 -3.5263,1 -2.843,0 -4.3933,0.86698 -8,4.47368 -2.4605,2.46053 -4.4737,4.96767 -4.4737,5.57143 0,1.42688 -2.5402,3.95489 -3.974,3.95489 -1.4638,0 -6.026,4.58288 -6.026,6.05334 0,0.62933 -1.35,2.40533 -3,3.94666 -1.65,1.54133 -3,3.34133 -3,4 0,0.65867 -1.35,2.45867 -3,4 -1.65,1.54133 -3,3.42253 -3,4.18045 0,0.75792 -0.9,2.02671 -2,2.81955 -1.5199,1.09551 -2,2.58869 -2,6.22076 0,2.62858 -0.45,4.77924 -1,4.77924 -0.55,0 -1,1.35 -1,3 0,1.65 -0.45,3 -1,3 -0.55,0 -1,1.70066 -1,3.77924 0,2.63207 -0.6071,4.21681 -2,5.22076 -1.1,0.79284 -2,2.24218 -2,3.22076 0,0.97858 -0.45,1.77924 -1,1.77924 -0.55,0 -1,0.9 -1,2 0,1.1 -0.45,2 -1,2 -0.55,0 -1,0.9 -1,2 0,1.1 -0.45,2 -1,2 -0.55,0 -1,0.9 -1,2 0,1.1 -0.45,2 -1,2 -0.55,0 -1,2.25 -1,5 0,2.75 -0.45,5 -1,5 -0.55,0 -1,0.9 -1,2 0,1.1 0.45,2 1,2 0.55,0 1,0.9 1,2 0,1.1 0.45,2 1,2 0.55,0 1,0.8625 1,1.91667 0,1.05416 0.5625,2.17916 1.25,2.5 1,0.46666 1,0.7 0,1.16666 -0.6875,0.32084 -1.25,1.44584 -1.25,2.5 0,1.05417 -0.45,1.91667 -1,1.91667 -0.55,0 -1,1.16946 -1,2.59879 0,1.59812 -1.1552,3.67787 -3,5.40121 -1.65,1.54133 -3,3.32902 -3,3.97264 0,1.99715 -2.7366,4.02736 -5.4286,4.02736 -1.4143,0 -2.5714,0.45 -2.5714,1 0,0.57143 -3,1 -7,1 -4,0 -7,-0.42857 -7,-1 0,-0.55 -1.1454,-1 -2.5454,-1 -2.5809,0 -7.4546,3.95761 -7.4546,6.05334 0,0.62933 -1.35,2.40533 -3,3.94666 -1.65,1.54133 -3,3.52188 -3,4.40121 0,0.93212 -0.834,1.59879 -2,1.59879 -1.2506,0 -2,0.66667 -2,1.77924 0,0.97858 -0.9,2.42792 -2,3.22076 -1.1,0.79284 -2,2.24218 -2,3.22076 0,0.97858 -0.45,1.77924 -1,1.77924 -0.55,0 -1,0.9 -1,2 0,1.1 -0.45,2 -1,2 -0.55,0 -1,1.3125 -1,2.91667 0,1.60416 -0.5456,3.09854 -1.2125,3.32083 -0.7265,0.24217 0.2621,1.87881 2.4667,4.08333 l 3.6791,3.67917 12.5334,0 c 7.6889,0 12.5333,0.38652 12.5333,1 0,0.55 2.25,1 5,1 2.75,0 5,0.45 5,1 0,0.55 2.25,1 5,1 2.75,0 5,0.45 5,1 0,0.55 0.9,1 2,1 1.1,0 2,0.45 2,1 0,0.55 1.35,1 3,1 1.65,0 3,0.45 3,1 0,0.55 2.25,1 5,1 2.75,0 5,-0.45 5,-1 z"
     id="path2987"
     inkscape:connector-curvature="0" />
</svg>
