<?xml version="1.0" encoding="UTF-8" standalone="no"?>
<!-- Created with Inkscape (http://www.inkscape.org/) -->

<svg
   xmlns:dc="http://purl.org/dc/elements/1.1/"
   xmlns:cc="http://creativecommons.org/ns#"
   xmlns:rdf="http://www.w3.org/1999/02/22-rdf-syntax-ns#"
   xmlns:svg="http://www.w3.org/2000/svg"
   xmlns="http://www.w3.org/2000/svg"
   xmlns:sodipodi="http://sodipodi.sourceforge.net/DTD/sodipodi-0.dtd"
   xmlns:inkscape="http://www.inkscape.org/namespaces/inkscape"
   id="svg2"
   version="1.1"
   inkscape:version="0.48.2 r9819"
   width="570"
   height="1906"
   sodipodi:docname="knightsofroundta00frosiala_0097bd.png">
  <metadata
     id="metadata8">
    <rdf:RDF>
      <cc:Work
         rdf:about="">
        <dc:format>image/svg+xml</dc:format>
        <dc:type
           rdf:resource="http://purl.org/dc/dcmitype/StillImage" />
        <dc:title></dc:title>
      </cc:Work>
    </rdf:RDF>
  </metadata>
  <defs
     id="defs6" />
  <sodipodi:namedview
     pagecolor="#ffffff"
     bordercolor="#666666"
     borderopacity="1"
     objecttolerance="10"
     gridtolerance="10"
     guidetolerance="10"
     inkscape:pageopacity="0"
     inkscape:pageshadow="2"
     inkscape:window-width="1600"
     inkscape:window-height="876"
     id="namedview4"
     showgrid="false"
     fit-margin-top="0"
     fit-margin-left="0"
     fit-margin-right="0"
     fit-margin-bottom="0"
     inkscape:zoom="0.5"
     inkscape:cx="356"
     inkscape:cy="954"
     inkscape:window-x="0"
     inkscape:window-y="24"
     inkscape:window-maximized="1"
     inkscape:current-layer="svg2" />
  <path
     style="fill:#000000"
     d="m 52,1905 c 0,-0.55 -0.68684,-1 -1.52632,-1 C 47.89527,1904 40,1895.3509 40,1892.5263 40,1891.1368 40.45,1890 41,1890 c 0.55,0 1,-1.35 1,-3 0,-1.65 0.45,-3 1,-3 0.55,0 1,-1.35 1,-3 0,-1.65 0.45,-3 1,-3 0.55,0 1,-0.9 1,-2 0,-1.1 0.45,-2 1,-2 0.58333,0 1,-3.3333 1,-8 0,-4.6667 0.41667,-8 1,-8 0.55,0 1,-1.8 1,-4 0,-2.3103 0.47806,-4 1.13167,-4 0.74157,0 0.94815,-1.3682 0.59929,-3.9692 -0.29281,-2.183 0.0948,-8.1455 0.86126,-13.25 0.7665,-5.1044 1.39682,-12.7683 1.40071,-17.0308 0.004,-4.4953 0.42703,-7.75 1.00707,-7.75 0.61364,0 1,-4.8571 1,-12.5714 C 56,1781.2764 55.46817,1780 49.57143,1780 47.60714,1780 46,1779.55 46,1779 c 0,-0.55 -1.8,-1 -4,-1 -2.2,0 -4,-0.45 -4,-1 0,-0.55 -0.9,-1 -2,-1 -1.1,0 -2,-0.45 -2,-1 0,-0.55 -1.35,-1 -3,-1 -1.65,0 -3,-0.45 -3,-1 0,-0.5833 -3.33333,-1 -8,-1 -4.66667,0 -8,-0.4167 -8,-1 0,-0.55 -1.8,-1 -4,-1 -2.2,0 -4,-0.45 -4,-1 0,-0.55 -0.9,-1 -2,-1 -1.85185,0 -2,-0.6667 -2,-9 l 0,-9 4,0 c 2.2,0 4,-0.45 4,-1 0,-0.55 2.25,-1 5,-1 2.75,0 5,-0.45 5,-1 0,-0.55 1.35,-1 3,-1 1.65,0 3,-0.45 3,-1 0,-0.55 1.35,-1 3,-1 1.65,0 3,-0.45 3,-1 0,-0.5714 3,-1 7,-1 4,0 7,-0.4286 7,-1 0,-0.55 0.9,-1 2,-1 1.33333,0 2,-0.6667 2,-2 0,-1.5556 0.66667,-2 3,-2 1.65,0 3,-0.45 3,-1 0,-0.55 0.70714,-1 1.57143,-1 2.02104,0 4.42857,-2.4075 4.42857,-4.4286 0,-0.8643 0.45,-1.5714 1,-1.5714 0.55,0 1,-1.2507 1,-2.7792 0,-1.6321 0.82553,-3.3743 2,-4.2208 1.17447,-0.8465 2,-2.5887 2,-4.2208 0,-1.5285 0.45,-2.7792 1,-2.7792 0.56833,0 1,-2.9264 1,-6.7792 0,-5.6321 0.33844,-7.0232 2,-8.2208 1.603,-1.1554 2,-2.5887 2,-7.2208 0,-3.1861 0.44869,-5.7792 1,-5.7792 0.60606,0 1,-4.3333 1,-11 0,-6.6667 0.39394,-11 1,-11 0.61905,0 1,-5.3333 1,-14 0,-8.6667 0.38095,-14 1,-14 0.55,0 1,-2.0847 1,-4.6327 0,-3.5445 -0.52854,-5.103 -2.25,-6.6346 -1.52621,-1.358 -1.84789,-2.1463 -1,-2.4507 1.51795,-0.5448 1.75685,-12.282 0.25,-12.282 -0.55,0 -1,-1.8 -1,-4 0,-2.2 0.45,-4 1,-4 0.55,0 1,-1.35 1,-3 0,-1.65 -0.45,-3 -1,-3 -0.58333,0 -1,-3.3333 -1,-8 0,-6.6061 -0.27381,-8 -1.57143,-8 C 70.40753,1580 68,1577.5925 68,1575.5714 68,1574.7071 67.55,1574 67,1574 c -0.55,0 -1,-2.25 -1,-5 l 0,-5 4,0 c 3.33333,0 4,-0.3333 4,-2 0,-1.4722 0.66667,-2 2.52632,-2 C 79.97129,1560 88,1551.9713 88,1548.5263 88,1547.1368 87.55,1546 87,1546 c -0.55,0 -1,-1.8 -1,-4 0,-2.2 0.45,-4 1,-4 0.55,0 1,-0.9 1,-2 0,-1.1 0.45,-2 1,-2 0.55,0 1,-0.9 1,-2 0,-1.1 0.45,-2 1,-2 0.55,0 1,0.45 1,1 0,0.55 0.9,1 2,1 1.55556,0 2,-0.6667 2,-3 0,-1.65 0.45,-3 1,-3 0.6145,0 1,-4.9264 1,-12.7792 0,-11.6321 -0.17954,-12.9087 -2,-14.2208 -2.83187,-2.0411 -2.83187,-9.9589 0,-12 1.39291,-1.004 2,-2.5887 2,-5.2208 0,-2.0785 -0.45,-3.7792 -1,-3.7792 -0.55,0 -1,-1.8 -1,-4 0,-2.2 -0.45,-4 -1,-4 -0.55,0 -1,-1.35 -1,-3 0,-1.65 -0.45,-3 -1,-3 -0.55,0 -1,-0.9 -1,-2 0,-1.1 -0.45,-2 -1,-2 -0.55,0 -1,-0.9 -1,-2 0,-1.1 -0.45,-2 -1,-2 -0.55,0 -1,-1.2507 -1,-2.7792 0,-1.6321 -0.82553,-3.3743 -2,-4.2208 -1.39291,-1.004 -2,-2.5887 -2,-5.2208 0,-2.0785 0.45,-3.7792 1,-3.7792 0.55,0 1,-0.9 1,-2 0,-1.1 -0.45,-2 -1,-2 -1.7679,0 -1.06567,-3.5112 1,-5 1.1,-0.7928 2,-2.0769 2,-2.8535 0,-0.7765 1.0125,-2.3128 2.25,-3.4138 1.52621,-1.358 1.84789,-2.1463 1,-2.4507 C 90.5625,1422.0352 90,1420.2637 90,1418.3452 90,1414.638 88.15884,1412 85.57143,1412 84.70714,1412 84,1411.55 84,1411 c 0,-0.55 -0.70714,-1 -1.57143,-1 C 80.40753,1410 78,1407.5925 78,1405.5714 78,1404.7071 77.55,1404 77,1404 c -0.55,0 -1,-0.8007 -1,-1.7792 0,-0.9786 -0.9,-2.428 -2,-3.2208 -1.1,-0.7928 -2,-2.2422 -2,-3.2208 0,-0.9785 -0.45,-1.7792 -1,-1.7792 -0.55,0 -1,-0.9 -1,-2 0,-1.1 -0.45,-2 -1,-2 -0.55,0 -1,-1.35 -1,-3 0,-1.65 -0.45,-3 -1,-3 -0.55,0 -1,-0.9 -1,-2 0,-1.1 -0.45,-2 -1,-2 -0.61111,0 -1,-4.6667 -1,-12 0,-7.3333 -0.38889,-12 -1,-12 -0.58333,0 -1,-3.3333 -1,-8 0,-4.6667 0.41667,-8 1,-8 0.55,0 1,-2.25 1,-5 0,-2.75 0.45,-5 1,-5 0.55,0 1,-0.9 1,-2 0,-1.1 0.45,-2 1,-2 0.55,0 1,-0.8007 1,-1.7792 0,-0.9786 0.9,-2.428 2,-3.2208 1.1,-0.7928 2,-2.5025 2,-3.7992 0,-1.4433 1.55114,-3.8479 4,-6.2008 2.2,-2.1138 4,-4.3435 4,-4.9549 0,-1.411 6.58272,-8.0451 7.9828,-8.0451 1.39635,0 16.0172,-14.662 16.0172,-16.0623 0,-0.602 1.8,-2.8239 4,-4.9377 2.2,-2.1138 4,-4.5535 4,-5.4216 0,-0.8681 0.45,-1.5784 1,-1.5784 0.55,0 1,-0.9 1,-2 0,-1.1 0.45,-2 1,-2 0.55,0 1,-0.9 1,-2 0,-1.1 0.45,-2 1,-2 0.55,0 1,-0.9 1,-2 0,-1.1 0.45,-2 1,-2 0.55,0 1,-0.7071 1,-1.5714 0,-2.0211 2.40753,-4.4286 4.42857,-4.4286 0.86429,0 1.57143,-0.45 1.57143,-1 0,-0.55 1.15714,-1 2.57143,-1 3.79351,0 5.42857,-2.2375 5.42857,-7.4286 0,-2.5143 0.45,-4.5714 1,-4.5714 0.55,0 1,-0.9 1,-2 0,-1.1 0.45,-2 1,-2 0.55,0 1,-1.35 1,-3 0,-1.65 0.45,-3 1,-3 0.55,0 1,-1.8 1,-4 0,-2.2 0.45,-4 1,-4 0.58333,0 1,-3.3333 1,-8 0,-4.6667 0.41667,-8 1,-8 0.55,0 1,-1.8 1,-4 0,-2.2 0.45,-4 1,-4 0.55,0 1,-2.25 1,-5 0,-2.75 0.45,-5 1,-5 0.55,0 1,-0.9 1,-2 0,-1.1 -0.45,-2 -1,-2 -0.55,0 -1,-1.35 -1,-3 0,-1.65 0.45,-3 1,-3 0.55,0 1,-0.9 1,-2 0,-1.1 0.45,-2 1,-2 0.60606,0 1,-4.3333 1,-11 0,-6.6667 0.39394,-11 1,-11 0.55556,0 1,-2.6667 1,-6 0,-3.3333 0.44444,-6 1,-6 0.55,0 1,-1.8 1,-4 0,-2.2 0.45,-4 1,-4 0.55556,0 1,-2.6667 1,-6 0,-3.3333 0.44444,-6 1,-6 0.60606,0 1,-4.3333 1,-11 0,-6.6667 0.39394,-11 1,-11 0.55,0 1,-1.8 1,-4 0,-2.2 0.45,-4 1,-4 0.55,0 1,-1.8 1,-4 0,-2.2 -0.45,-4 -1,-4 -0.55,0 -1,-0.9 -1,-2 0,-1.1 0.45,-2 1,-2 0.55,0 1,-1.8 1,-4 0,-2.2 0.45,-4 1,-4 0.55,0 1,-1.8 1,-4 0,-2.2 0.45,-4 1,-4 0.6,0 1,-4 1,-10 0,-6 0.4,-10 1,-10 0.55,0 1,-2.25 1,-5 0,-2.75 0.45,-5 1,-5 0.55,0 1,-2.1507 1,-4.7792 0,-3.6321 0.48006,-5.1253 2,-6.2208 1.78715,-1.2881 2,-2.5887 2,-12.2208 0,-6.5195 0.39518,-10.7792 1,-10.7792 0.55,0 1,-1.8 1,-4 0,-2.2 0.45,-4 1,-4 0.55556,0 1,-2.6667 1,-6 0,-3.3333 0.44444,-6 1,-6 0.55,0 1,-2.25 1,-5 0,-2.75 0.45,-5 1,-5 0.55,0 1,-0.9 1,-2 0,-1.1 -0.45,-2 -1,-2 -1.44672,0 -1.23134,-3.73946 0.25,-4.34054 0.94376,-0.38294 0.88251,-0.7895 -0.25,-1.65946 -1.13251,-0.86996 -1.19376,-1.27652 -0.25,-1.65946 0.80201,-0.32543 1.25,-2.62771 1.25,-6.42387 0,-3.27778 0.44601,-5.91667 1,-5.91667 0.55556,0 1,-2.66667 1,-6 0,-3.33333 0.44444,-6 1,-6 0.60606,0 1,-4.33333 1,-11 0,-6.66667 0.39394,-11 1,-11 0.55,0 1,-1.3125 1,-2.91667 0,-1.60416 0.5625,-3.17916 1.25,-3.5 1,-0.46666 1,-0.7 0,-1.16666 C 187.76738,899.72478 187.55654,896 189,896 c 0.55556,0 1,-2.66667 1,-6 0,-3.33333 0.44444,-6 1,-6 0.55,0 1,-2.25 1,-5 0,-4.80063 -0.11082,-5 -2.77924,-5 -1.63207,0 -3.37425,-0.82553 -4.22076,-2 -0.79284,-1.1 -2.48763,-2 -3.76621,-2 C 178.82816,870 174,865.95973 174,863.94666 c 0,-0.62933 -1.4625,-2.51944 -3.25,-4.20023 -2.05371,-1.93111 -2.78989,-3.21373 -2,-3.48454 0.6875,-0.23571 1.25,-1.29106 1.25,-2.34522 0,-1.05417 0.45,-1.91667 1,-1.91667 0.55,0 1,-0.9 1,-2 0,-1.1 0.45,-2 1,-2 0.55,0 1,-2.25 1,-5 0,-2.75 0.45,-5 1,-5 0.55,0 1,-0.9 1,-2 0,-1.1 0.45,-2 1,-2 0.55,0 1,-1.35 1,-3 0,-1.65 0.45,-3 1,-3 0.6,0 1,-4 1,-10 0,-6 0.4,-10 1,-10 0.62745,0 1,-6.33333 1,-17 0,-10.66667 -0.37255,-17 -1,-17 -0.55,0 -1,-1.25066 -1,-2.77924 0,-1.63207 -0.82553,-3.37425 -2,-4.22076 -1.70507,-1.22894 -2,-2.58869 -2,-9.22076 0,-4.51949 0.41903,-7.77924 1,-7.77924 0.55,0 1,-1.8 1,-4 0,-2.2 0.45,-4 1,-4 0.55,0 1,-0.9 1,-2 0,-1.1 0.45,-2 1,-2 0.55,0 1,-0.9 1,-2 0,-1.1 0.45,-2 1,-2 0.55,0 1,-0.9 1,-2 0,-1.1 0.45,-2 1,-2 0.63333,0 1,-7.33333 1,-20 0,-12.66667 -0.36667,-20 -1,-20 -0.55,0 -1,-0.9 -1,-2 0,-1.1 -0.45,-2 -1,-2 -0.6,0 -1,-4 -1,-10 0,-6 0.4,-10 1,-10 0.55,0 1,-1.35 1,-3 0,-1.65 0.45,-3 1,-3 0.55,0 1,-1.14 1,-2.53333 0,-2.69044 5.90242,-9.46667 8.24591,-9.46667 0.72191,0 1.96125,-0.9 2.75409,-2 0.79284,-1.1 2.24218,-2 3.22076,-2 0.97858,0 1.77924,-0.45 1.77924,-1 0,-0.55 1.8,-1 4,-1 2.2,0 4,-0.43248 4,-0.96107 0,-0.52858 3.93561,-1.09108 8.74581,-1.25 l 8.74581,-0.28893 1.26272,-8.5 c 0.6945,-4.675 3.50888,-23.44556 6.25419,-41.71235 C 237.75384,571.02086 240,555.15836 240,554.03765 240,552.85191 239.34301,552 238.42857,552 235.41584,552 234,549.30533 234,543.57143 234,540.50714 233.55,538 233,538 c -0.55,0 -1,-1.8 -1,-4 0,-2.2 0.45,-4 1,-4 0.55,0 1,-2.25 1,-5 0,-2.75 0.45,-5 1,-5 0.55,0 1,-1.35 1,-3 0,-1.65 0.45,-3 1,-3 0.55,0 1,-0.9 1,-2 0,-1.1 0.45,-2 1,-2 0.55,0 1,-1.35 1,-3 0,-1.65 0.45,-3 1,-3 0.55,0 1,-1.35 1,-3 0,-1.65 0.45,-3 1,-3 0.55,0 1,-1.8 1,-4 0,-2.2 0.45,-4 1,-4 0.55399,0 1,-2.63889 1,-5.91667 0,-3.79616 0.44799,-6.09844 1.25,-6.42387 0.94376,-0.38294 0.88251,-0.7895 -0.25,-1.65946 -1.13251,-0.86996 -1.19376,-1.27652 -0.25,-1.65946 C 248.35651,473.68868 248.56562,446 246.96404,446 c -0.68808,0 -0.99182,-7.629 -0.9045,-22.71816 0.0908,-15.68513 -0.20767,-22.83122 -0.96403,-23.08334 C 244.49298,399.99766 244,398.97083 244,397.91667 244,396.8625 243.55,396 243,396 c -0.55,0 -1,-0.9 -1,-2 0,-1.30435 0.66667,-2 1.91667,-2 1.05416,0 2.1449,-0.5625 2.42387,-1.25 0.3819,-0.94121 0.77303,-0.87946 1.58333,0.25 0.95656,1.33333 1.18724,1.33333 2.07613,0 0.88889,-1.33333 1.11957,-1.33333 2.07613,0 0.8103,1.12946 1.20143,1.19121 1.58333,0.25 0.2844,-0.7009 2.22771,-1.25 4.42387,-1.25 2.15417,0 3.91667,-0.45 3.91667,-1 0,-0.55 0.675,-1 1.5,-1 0.825,0 1.527,-0.1125 1.56,-0.25 0.62744,-2.61457 8.2215,-50.75128 8.59792,-54.5 0.28995,-2.8875 0.93553,-5.25 1.43463,-5.25 0.4991,0 0.90745,-1.8 0.90745,-4 0,-2.2 0.45,-4 1,-4 0.58333,0 1,-3.33333 1,-8 0,-4.66667 0.41667,-8 1,-8 0.55,0 1,-1.8 1,-4 0,-2.2 0.45,-4 1,-4 0.55,0 1,-2.25 1,-5 0,-2.75 0.45,-5 1,-5 0.55,0 1,-2.25 1,-5 0,-2.75 0.45,-5 1,-5 0.57143,0 1,-3 1,-7 0,-4 0.42857,-7 1,-7 0.55,0 1,-2.25 1,-5 0,-2.75 0.45,-5 1,-5 0.55,0 1,-2.25 1,-5 0,-2.75 0.45,-5 1,-5 0.55,0 1,-1.8 1,-4 0,-2.2 0.45,-4 1,-4 1.44346,0 1.23262,-3.72478 -0.25,-4.41667 -1,-0.46666 -1,-0.7 0,-1.16666 0.75141,-0.35066 1.25,-2.54445 1.25,-5.5 0,-2.70417 0.45,-4.91667 1,-4.91667 0.55,0 1,-2.25 1,-5 0,-2.75 0.45,-5 1,-5 0.55,0 1,-1.8 1,-4 0,-2.2 0.45,-4 1,-4 0.57143,0 1,-3 1,-7 0,-4 0.42857,-7 1,-7 0.55,0 1,-2.25 1,-5 0,-2.75 0.45,-5 1,-5 0.61111,0 1,-4.66667 1,-12 0,-11.41274 0.0999,-12 2.04051,-12 1.75362,0 2.00729,-0.56298 1.80424,-4.00424 -0.12995,-2.20234 0.30183,-4.54234 0.95949,-5.2 C 310.24669,141.35331 310.41629,132 309,132 c -0.55,0 -1,-1.13464 -1,-2.52142 0,-1.66723 -1.60918,-4.1486 -4.75,-7.32453 l -4.75,-4.8031 -0.29066,-8.50343 c -0.16713,-4.88949 0.20765,-9.74528 0.88185,-11.42547 0.64487,-1.60713 1.07918,-4.83455 0.96513,-7.17205 C 299.93462,87.75582 300.29328,86 300.92447,86 301.51601,86 302,85.1 302,84 c 0,-1.1 0.45,-2 1,-2 0.55,0 1,-1.125 1,-2.5 0,-1.375 0.9,-3.4 2,-4.5 1.13178,-1.13178 2,-3.33333 2,-5.07143 0,-1.68928 0.66027,-3.7317 1.46726,-4.53869 0.96138,-0.96137 1.26306,-2.488271 0.875,-4.42857 C 309.96669,59.083444 310.1616,58 310.875,58 311.49375,58 312,57.1 312,56 c 0,-1.1 0.45,-2 1,-2 0.55,0 1,-1.250658 1,-2.779241 0,-1.632068 0.82553,-3.374249 2,-4.220759 1.1,-0.792835 2,-2.142835 2,-3 0,-0.857165 0.9,-2.207165 2,-3 1.1,-0.792835 2,-2.242177 2,-3.220759 C 322,36.800658 322.45,36 323,36 c 0.55,0 1,-0.9 1,-2 0,-1.1 0.45,-2 1,-2 0.55,0 1,-0.9 1,-2 0,-1.1 0.45,-2 1,-2 0.55,0 1,-1.35 1,-3 0,-1.65 0.45,-3 1,-3 0.55,0 1,-0.800658 1,-1.779241 0,-0.978582 0.9,-2.427924 2,-3.220759 1.1,-0.792835 2,-2.142835 2,-3 0,-0.857165 0.9,-2.207165 2,-3 1.1,-0.792835 2,-2.242177 2,-3.220759 C 338,6.666667 338.7494,6 340,6 341.1515,6 342,5.333333 342,4.428571 342,2.068012 344.535,0 347.4286,0 349.6191,0 350,0.444444 350,3 c 0,1.65 0.45,3 1,3 0.55,0 1,2.25 1,5 0,2.75 0.45,5 1,5 0.554,0 1,2.638889 1,5.916667 0,3.434765 0.4641,6.071364 1.1064,6.285454 0.7378,0.245945 1.2236,6.519324 1.4582,18.833333 0.8336,43.735076 1.4827,66.345136 1.9172,66.779656 0.6235,0.62356 -2.7011,6.18489 -3.6974,6.18489 -0.4314,0 -0.7844,0.71028 -0.7844,1.5784 0,0.86812 -1.8,3.30784 -4,5.4216 -2.2,2.11376 -4,4.32848 -4,4.9216 0,0.59312 -0.4133,1.0784 -0.9184,1.0784 -1.9092,0 -8.7879,7.65758 -9.4471,10.51675 -1.2628,5.47746 -1.604,12.48325 -0.6079,12.48325 0.5354,0 0.9734,2.25 0.9734,5 0,2.75 -0.45,5 -1,5 -0.5556,0 -1,2.66667 -1,6 0,3.33333 -0.4444,6 -1,6 -0.55,0 -1,1.35 -1,3 0,1.65 -0.45,3 -1,3 -0.55,0 -1,1.8 -1,4 0,2.2 -0.45,4 -1,4 -0.58333,0 -1,3.33333 -1,8 0,4.66667 -0.41667,8 -1,8 -0.57143,0 -1,3 -1,7 0,4 -0.42857,7 -1,7 -0.55556,0 -1,2.66667 -1,6 0,3.33333 -0.44444,6 -1,6 -0.55556,0 -1,2.66667 -1,6 0,3.33333 -0.44444,6 -1,6 -0.55,0 -1,2.25 -1,5 0,2.75 -0.45,5 -1,5 -0.55,0 -1,2.25 -1,5 0,2.75 -0.45,5 -1,5 -0.58333,0 -1,3.33333 -1,8 0,4.66667 -0.41667,8 -1,8 -0.60606,0 -1,4.33333 -1,11 0,6.66667 -0.39394,11 -1,11 -0.59259,0 -1,3.66667 -1,9 0,4.95 -0.4133,9 -0.91844,9 -0.50515,0 -1.16606,5.5125 -1.46871,12.25 -0.72457,16.13044 -1.59252,23.75 -2.7054,23.75 -0.4991,0 -0.90745,0.9 -0.90745,2 0,1.1 -0.47377,2 -1.05282,2 -0.65323,0 -0.97754,2.57813 -0.85448,6.79277 C 304.29249,375.63497 302.31568,386 300.81095,386 300.36493,386 300,387.47798 300,389.28439 c 0,3.66079 1.74394,5.06721 10.62287,8.56696 4.97509,1.961 5.07012,1.96202 6.43416,0.0695 C 317.8185,396.86439 319.03763,396 319.76621,396 321.35469,396 326,391.53793 326,390.01212 c 0,-1.77001 7.3122,-8.57553 7.7625,-7.22462 0.2223,0.66688 1.2667,1.2125 2.3208,1.2125 1.0542,0 1.9167,0.45 1.9167,1 0,0.55 0.8007,1 1.7792,1 0.9786,0 2.428,0.9 3.2208,2 0.7928,1.1 2.2422,2 3.2208,2 0.9785,0 1.7792,0.45 1.7792,1 0,0.55 0.8007,1 1.7792,1 0.9786,0 2.428,0.9 3.2208,2 0.7928,1.1 2.2422,2 3.2208,2 0.9785,0 1.7792,0.45 1.7792,1 0,0.55 1.35,1 3,1 1.65,0 3,0.45 3,1 0,0.55 0.6868,1 1.5263,1 1.8605,0 10.4737,8.43171 10.4737,10.25292 0,0.71806 0.9,1.95424 2,2.74708 1.1,0.79284 2,2.24218 2,3.22076 0,0.97858 0.45,1.77924 1,1.77924 0.55,0 1,0.9 1,2 0,1.1 0.45,2 1,2 0.55,0 1,0.9 1,2 0,1.1 0.45,2 1,2 0.55,0 1,0.9 1,2 0,1.1 0.45,2 1,2 0.55,0 1,0.80066 1,1.77924 0,0.97858 0.9,2.42792 2,3.22076 1.1,0.79284 2,2.02551 2,2.73928 0,1.55131 12.5011,14.26072 14.0269,14.26072 1.6198,0 5.9731,4.70421 5.9731,6.45455 0,0.85 0.45,1.54545 1,1.54545 0.55,0 1,1.35 1,3 0,1.65 0.45,3 1,3 0.55,0 1,0.9 1,2 0,1.1 0.45,2 1,2 0.55,0 1,1.25066 1,2.77924 0,1.63207 0.8255,3.37425 2,4.22076 1.1,0.79284 2,2.24218 2,3.22076 0,0.97858 0.45,1.77924 1,1.77924 0.55,0 1,0.80066 1,1.77924 0,0.97858 0.9,2.42792 2,3.22076 1.5199,1.09551 2,2.58869 2,6.22076 0,2.62858 0.45,4.77924 1,4.77924 0.6429,0 1,10 1,28 0,18 0.3571,28 1,28 0.55,0 1,1.8 1,4 0,2.2 0.45,4 1,4 0.55,0 1,1.8 1,4 0,2.2 0.45,4 1,4 0.55,0 1,0.9 1,2 0,1.1 0.45,2 1,2 0.55,0 1,0.9 1,2 0,1.1 0.45,2 1,2 0.55,0 1,0.9 1,2 0,1.1 0.45,2 1,2 0.55,0 1,0.9 1,2 0,1.1 0.45,2 1,2 0.55,0 1,0.9 1,2 0,1.1 0.45,2 1,2 0.55,0 1,2.25 1,5 0,2.75 0.45,5 1,5 0.55,0 1,0.9 1,2 0,1.1 -0.45,2 -1,2 -0.55,0 -1,0.9 -1,2 0,1.1 -0.45,2 -1,2 -0.55,0 -1,1.59 -1,3.53333 0,4.75488 5.4929,10.46667 10.0655,10.46667 2.1907,0 3.9744,0.9017 5.9345,3 2.5662,2.74712 3.3587,3 9.4012,3 3.7325,0 6.5988,0.43436 6.5988,1 0,0.55 0.9,1 2,1 1.1,0 2,0.45 2,1 0,0.55 1.35,1 3,1 1.65,0 3,0.45 3,1 0,0.55 1.35,1 3,1 1.65,0 3,0.45 3,1 0,0.55 0.9,1 2,1 1.1,0 2,0.45 2,1 0,0.55 0.9,1 2,1 1.1,0 2,0.45 2,1 0,0.55 1.35,1 3,1 1.65,0 3,0.45 3,1 0,0.55 1.35,1 3,1 1.65,0 3,0.45 3,1 0,0.55 0.9,1 2,1 1.1,0 2,0.45 2,1 0,0.55 0.9,1 2,1 1.1,0 2,0.45 2,1 0,0.55 1.8,1 4,1 2.2,0 4,0.45 4,1 0,0.55 1.1455,1 2.5455,1 3.2764,0 7.4545,4.17814 7.4545,7.45455 0,1.4 0.45,2.54545 1,2.54545 0.55,0 1,0.80066 1,1.77924 0,0.97858 0.9,2.42792 2,3.22076 1.1,0.79284 2,2.14284 2,3 0,0.85716 0.9,2.20716 2,3 1.1,0.79284 2,2.06163 2,2.81955 0,0.75792 1.35,2.63912 3,4.18045 1.65,1.54133 3,3.42253 3,4.18045 0,0.75792 0.9,2.02671 2,2.81955 1.1745,0.84651 2,2.58869 2,4.22076 0,1.52858 0.45,2.77924 1,2.77924 0.55,0 1,1.35 1,3 0,1.65 0.45,3 1,3 0.55,0 1,0.9 1,2 0,1.1 0.45,2 1,2 0.55,0 1,0.9 1,2 0,1.1 0.45,2 1,2 0.55,0 1,0.9 1,2 0,1.1 0.45,2 1,2 0.55,0 1,1.8 1,4 0,2.2 0.45,4 1,4 0.6061,0 1,4.33333 1,11 0,6.66667 -0.3939,11 -1,11 -0.5556,0 -1,2.66667 -1,6 0,3.33333 -0.4444,6 -1,6 -0.5907,0 -1,3.59308 -1,8.77924 0,7.63207 -0.2613,8.9676 -2,10.22076 -1.1,0.79284 -2,2.14284 -2,3 0,0.85716 -0.9,2.20716 -2,3 -1.1,0.79284 -2,2.24218 -2,3.22076 0,0.97858 -0.45,1.77924 -1,1.77924 -0.55,0 -1,1.35 -1,3 0,1.65 -0.45,3 -1,3 -0.55,0 -1,0.9 -1,2 0,1.1 -0.45,2 -1,2 -0.55,0 -1,1.25066 -1,2.77924 0,1.63207 -0.8255,3.37425 -2,4.22076 -1.1,0.79284 -2,2.24218 -2,3.22076 0,0.97858 -0.45,1.77924 -1,1.77924 -0.55,0 -1,1.35 -1,3 0,1.65 -0.45,3 -1,3 -0.55,0 -1,1.35 -1,3 0,1.65 -0.45,3 -1,3 -0.55,0 -1,0.9 -1,2 0,1.1 -0.45,2 -1,2 -0.55,0 -1,0.80066 -1,1.77924 0,0.97858 -0.9,2.42792 -2,3.22076 -1.1745,0.84651 -2,2.58869 -2,4.22076 0,1.52858 -0.45,2.77924 -1,2.77924 -0.55,0 -1,0.9 -1,2 0,1.1 -0.45,2 -1,2 -0.55,0 -1,1.8 -1,4 0,2.2 -0.45,4 -1,4 -0.55,0 -1,1.8 -1,4 0,2.2 -0.45,4 -1,4 -0.55,0 -1,1.8 -1,4 0,2.2 -0.45,4 -1,4 -0.55,0 -1,0.9 -1,2 0,1.1 -0.45,2 -1,2 -0.55,0 -1,1.35 -1,3 0,1.65 -0.45,3 -1,3 -0.55,0 -1,0.9 -1,2 0,1.1 -0.45,2 -1,2 -0.55,0 -1,0.9 -1,2 0,1.1 -0.45,2 -1,2 -0.55,0 -1,0.9 -1,2 0,1.1 -0.45,2 -1,2 -0.55,0 -1,0.9 -1,2 0,1.1 -0.45,2 -1,2 -0.55,0 -1,0.9 -1,2 0,1.1 -0.45,2 -1,2 -0.55,0 -1,1.8 -1,4 0,2.2 -0.45,4 -1,4 -0.55,0 -1,1.61028 -1,3.5784 0,2.8676 -0.7945,4.3418 -4,7.4216 -2.2,2.11376 -4,4.45414 -4,5.20084 0,0.7467 -0.9,2.00632 -2,2.79916 -1.1,0.79284 -2,2.04932 -2,2.79219 0,1.6474 -2.434,4.20781 -4,4.20781 -1.566,0 -4,2.56041 -4,4.20781 0,0.74287 -0.9,1.99935 -2,2.79219 -2.2877,1.64887 -2.8291,8.44643 -0.75,9.41667 1,0.46666 1,0.7 0,1.16666 C 485.7726,942.2728 485.5431,950 487,950 c 0.55,0 1,1.35 1,3 0,1.65 0.45,3 1,3 0.55,0 1,1.35 1,3 0,1.65 0.45,3 1,3 0.55,0 1,0.9 1,2 0,1.1 0.45,2 1,2 0.5556,0 1,2.6667 1,6 0,3.3333 0.4444,6 1,6 0.55,0 1,1.35 1,3 0,1.65 0.45,3 1,3 0.55,0 1,0.9 1,2 0,1.1 0.45,2 1,2 0.55,0 1,0.9 1,2 0,1.1 0.45,2 1,2 0.55,0 1,1.35 1,3 0,1.65 0.45,3 1,3 0.55,0 1,1.8 1,4 0,2.2 0.45,4 1,4 0.5556,0 1,2.6667 1,6 0,3.3333 0.4444,6 1,6 1.8484,0 1.0606,5.5148 -1,7 -2.0606,1.4852 -2.8484,7 -1,7 0.55,0 1,0.9 1,2 0,1.1 0.45,2 1,2 0.55,0 1,0.9 1,2 0,1.1 0.45,2 1,2 0.55,0 1,0.8625 1,1.9167 0,1.0541 0.5625,2.1449 1.25,2.4238 0.9438,0.383 0.8825,0.7895 -0.25,1.6595 -1.1325,0.87 -1.1938,1.2765 -0.25,1.6595 0.6875,0.2789 1.25,2.1703 1.25,4.2031 0,2.5487 0.6208,4.1433 2,5.1374 2.0657,1.4888 2.7679,5 1,5 -0.55,0 -1,1.8 -1,4 0,2.2 0.45,4 1,4 0.55,0 1,0.9 1,2 0,1.1 0.45,2 1,2 0.55,0 1,2.25 1,5 0,2.75 0.45,5 1,5 0.6389,0 1,8.6667 1,24 0,15.3333 0.3611,24 1,24 0.6061,0 1,4.3333 1,11 0,6.6667 -0.3939,11 -1,11 -0.5556,0 -1,2.6667 -1,6 0,3.3333 0.4444,6 1,6 0.55,0 1,0.69 1,1.5333 0,1.7701 -6.3793,8.4667 -8.0655,8.4667 -0.6226,0 -2.3932,1.35 -3.9345,3 -1.5413,1.65 -3.4225,3 -4.1804,3 -0.758,0 -2.0268,0.9 -2.8196,2 -0.8465,1.1745 -2.5887,2 -4.2208,2 -1.5285,0 -2.7792,0.45 -2.7792,1 0,0.55 -1.35,1 -3,1 -1.65,0 -3,0.45 -3,1 0,0.55 -1.1571,1 -2.5714,1 -2.8936,0 -5.4286,2.068 -5.4286,4.4286 0,0.8643 -0.45,1.5714 -1,1.5714 -0.5714,0 -1,3 -1,7 0,4 -0.4286,7 -1,7 -0.5714,0 -1,3 -1,7 0,4 -0.4286,7 -1,7 -0.55,0 -1,2.25 -1,5 0,2.75 -0.45,5 -1,5 -0.5556,0 -1,2.6667 -1,6 0,3.3333 -0.4444,6 -1,6 -0.5556,0 -1,2.6667 -1,6 0,3.3333 -0.4444,6 -1,6 -0.5556,0 -1,2.6667 -1,6 0,3.3333 -0.4444,6 -1,6 -0.55,0 -1,1.35 -1,3 0,1.65 -0.45,3 -1,3 -0.55,0 -1,2.25 -1,5 0,2.75 -0.45,5 -1,5 -0.55,0 -1,2.25 -1,5 0,2.75 0.45,5 1,5 1.4818,0 1.2486,9.7173 -0.25,10.4167 -1,0.4666 -1,0.7 0,1.1666 0.6879,0.3211 1.25,2.3445 1.25,4.5 0,2.1542 0.45,3.9167 1,3.9167 0.55,0 1,1.5999 1,3.5554 0,3.0244 0.896,4.4348 6,9.4446 3.3,3.2391 6,6.5892 6,7.4446 0,0.8555 0.45,1.5554 1,1.5554 0.55,0 1,2.25 1,5 0,2.75 -0.45,5 -1,5 -0.55,0 -1,2.25 -1,5 0,2.75 -0.45,5 -1,5 -0.55,0 -1,1.35 -1,3 0,1.65 -0.45,3 -1,3 -0.55,0 -1,2.25 -1,5 0,2.75 0.45,5 1,5 0.55,0 1,0.8007 1,1.7792 0,0.9786 0.9,2.428 2,3.2208 1.1,0.7928 2,2.069 2,2.8359 0,1.7021 6.8826,8.1641 8.6954,8.1641 0.7175,0 1.3046,0.8007 1.3046,1.7792 0,0.9786 0.9,2.428 2,3.2208 2.8923,2.0847 2.8923,11.9153 0,14 -1.1,0.7928 -2,2.2422 -2,3.2208 0,0.9785 -0.45,1.7792 -1,1.7792 -0.55,0 -1,1.35 -1,3 0,1.65 -0.45,3 -1,3 -0.6296,0 -1,6.6667 -1,18 0,11.3333 0.3704,18 1,18 0.55,0 1,1.8 1,4 0,2.2 0.45,4 1,4 0.5556,0 1,2.6667 1,6 0,3.3333 0.4444,6 1,6 0.55,0 1,2.25 1,5 0,2.75 0.45,5 1,5 0.55,0 1,1.8 1,4 0,2.2 0.45,4 1,4 0.55,0 1,2.25 1,5 0,2.75 0.45,5 1,5 0.5556,0 1,2.6667 1,6 0,3.3333 0.4444,6 1,6 0.55,0 1,1.8 1,4 0,2.2 0.45,4 1,4 0.55,0 1,2.25 1,5 0,2.75 0.45,5 1,5 0.55,0 1,2.25 1,5 0,2.75 0.45,5 1,5 0.55,0 1,2.25 1,5 0,2.75 0.45,5 1,5 0.55,0 1,2.25 1,5 0,2.75 0.45,5 1,5 0.55,0 1,1.8 1,4 0,2.2 0.45,4 1,4 0.5556,0 1,2.6667 1,6 0,3.3333 0.4444,6 1,6 0.55,0 1,2.25 1,5 0,2.75 0.45,5 1,5 0.55,0 1,1.8 1,4 0,2.2 0.45,4 1,4 0.5556,0 1,2.6667 1,6 0,3.3333 0.4444,6 1,6 0.55,0 1,2.25 1,5 0,2.75 0.45,5 1,5 0.5556,0 1,2.6667 1,6 0,3.3333 0.4444,6 1,6 0.55,0 1,1.8 1,4 0,2.2 0.45,4 1,4 0.55,0 1,1.8 1,4 0,2.2 0.45,4 1,4 0.5556,0 1,2.6667 1,6 0,3.3333 0.4444,6 1,6 0.5556,0 1,2.6667 1,6 0,3.3333 0.4444,6 1,6 1.4435,0 1.2326,3.7248 -0.25,4.4167 -1,0.4666 -1,0.7 0,1.1666 0.6875,0.3209 1.25,1.4459 1.25,2.5 0,1.0542 0.45,1.9167 1,1.9167 0.55,0 1,0.9 1,2 0,1.1 0.45,2 1,2 0.55,0 1,2.25 1,5 0,2.75 0.45,5 1,5 1.457,0 1.2274,7.7272 -0.25,8.4167 -1,0.4666 -1,0.7 0,1.1666 0.6879,0.3211 1.25,2.3445 1.25,4.5 0,2.1542 0.45,3.9167 1,3.9167 0.55,0 1,2.25 1,5 0,2.75 0.45,5 1,5 0.55,0 1,0.9 1,2 0,1.1 0.45,2 1,2 0.55,0 1,2.25 1,5 0,2.75 0.45,5 1,5 0.55,0 1,1.8 1,4 0,2.2 0.45,4 1,4 0.55,0 1,1.8 1,4 0,2.2 0.45,4 1,4 0.55,0 1,1.35 1,3 0,1.65 -0.45,3 -1,3 -1.4522,0 -1.2291,5.7264 0.25,6.4167 1,0.4666 1,0.7 0,1.1666 -1.6234,0.7576 -1.6234,6.0758 0,6.8334 1,0.4666 1,0.7 0,1.1666 -0.6875,0.3209 -1.25,1.4459 -1.25,2.5 0,1.0542 -0.45,1.9167 -1,1.9167 -0.55,0 -1,1.35 -1,3 0,2.2899 -0.4537,3 -1.9167,3 -1.0541,0 -2.1791,0.5625 -2.5,1.25 -0.4666,1 -0.7,1 -1.1666,0 -0.3209,-0.6875 -1.2413,-1.25 -2.0455,-1.25 -2.2749,0 -6.3712,-4.6508 -6.3712,-7.2338 0,-1.2786 -0.9,-2.9734 -2,-3.7662 -1.1032,-0.7952 -2,-2.5887 -2,-4 0,-1.4113 -0.8968,-3.2048 -2,-4 -1.1745,-0.8465 -2,-2.5887 -2,-4.2208 0,-1.5285 -0.45,-2.7792 -1,-2.7792 -0.55,0 -1,-1.35 -1,-3 0,-1.65 -0.45,-3 -1,-3 -0.55,0 -1,-1.35 -1,-3 0,-1.65 -0.45,-3 -1,-3 -0.55,0 -1,-1.35 -1,-3 0,-1.65 -0.45,-3 -1,-3 -0.55,0 -1,-1.8 -1,-4 0,-2.2 -0.45,-4 -1,-4 -0.55,0 -1,-1.35 -1,-3 0,-1.65 -0.45,-3 -1,-3 -0.55,0 -1,-1.8 -1,-4 0,-2.2 -0.45,-4 -1,-4 -0.55,0 -1,-1.35 -1,-3 0,-1.65 -0.45,-3 -1,-3 -0.55,0 -1,-1.35 -1,-3 0,-1.65 -0.45,-3 -1,-3 -0.55,0 -1,-2.25 -1,-5 0,-2.75 -0.45,-5 -1,-5 -0.55,0 -1,-0.8007 -1,-1.7792 0,-0.9786 -0.9,-2.428 -2,-3.2208 -1.603,-1.1554 -2,-2.5887 -2,-7.2208 0,-3.1861 -0.4487,-5.7792 -1,-5.7792 -0.55,0 -1,-1.35 -1,-3 0,-1.65 -0.45,-3 -1,-3 -0.55,0 -1,-0.9 -1,-2 0,-1.1 -0.45,-2 -1,-2 -0.5556,0 -1,-2.6667 -1,-6 0,-3.3333 -0.4444,-6 -1,-6 -0.55,0 -1,-1.8 -1,-4 0,-2.2 -0.45,-4 -1,-4 -0.55,0 -1,-1.8 -1,-4 0,-2.2 -0.45,-4 -1,-4 -0.5556,0 -1,-2.6667 -1,-6 0,-3.3333 -0.4444,-6 -1,-6 -0.55,0 -1,-2.25 -1,-5 0,-2.75 -0.45,-5 -1,-5 -0.55,0 -1,-1.35 -1,-3 0,-1.65 -0.45,-3 -1,-3 -0.55,0 -1,-0.8625 -1,-1.9167 0,-1.0541 -0.5625,-2.1791 -1.25,-2.5 -1,-0.4666 -1,-0.7 0,-1.1666 1.4826,-0.6919 1.6935,-4.4167 0.25,-4.4167 -1.4435,0 -1.2326,-3.7248 0.25,-4.4167 1,-0.4666 1,-0.7 0,-1.1666 -0.8233,-0.3842 -1.25,-2.9445 -1.25,-7.5 0,-3.9445 -0.4297,-6.9167 -1,-6.9167 -0.55,0 -1,-1.8 -1,-4 0,-2.2 -0.45,-4 -1,-4 -0.55,0 -1,-1.8 -1,-4 0,-2.2 -0.45,-4 -1,-4 -0.55,0 -1,-1.8 -1,-4 0,-2.2 -0.45,-4 -1,-4 -0.55,0 -1,-0.6955 -1,-1.5455 0,-1.4394 -4.2381,-6.4545 -5.4545,-6.4545 -0.3001,0 -0.5455,1.7625 -0.5455,3.9167 0,2.1555 -0.5621,4.1789 -1.25,4.5 -1,0.4666 -1,0.7 0,1.1666 1.4791,0.6903 1.7022,6.4167 0.25,6.4167 -0.55,0 -1,1.35 -1,3 0,1.65 0.45,3 1,3 0.55,0 1,0.9 1,2 0,1.1 -0.45,2 -1,2 -0.5714,0 -1,3 -1,7 0,4 -0.4286,7 -1,7 -0.55,0 -1,1.8 -1,4 0,2.2 -0.45,4 -1,4 -0.5556,0 -1,2.6667 -1,6 0,3.3333 -0.4444,6 -1,6 -0.55,0 -1,2.2125 -1,4.9167 0,2.9555 -0.4986,5.1493 -1.25,5.5 -1,0.4666 -1,0.7 0,1.1666 1.4826,0.6919 1.6935,4.4167 0.25,4.4167 -1.4493,0 -1.2303,3.7507 0.25,4.282 0.8479,0.3044 0.5262,1.0927 -1,2.4507 -2.4718,2.1992 -2.9529,4.8596 -1,5.5292 0.7899,0.2708 0.054,1.5534 -2,3.4845 -2.4985,2.3494 -3.25,3.8882 -3.25,6.6548 0,1.9793 -0.45,3.5988 -1,3.5988 -0.55,0 -1,1.35 -1,3 0,1.65 -0.45,3 -1,3 -0.55,0 -1,1.35 -1,3 0,1.65 -0.45,3 -1,3 -0.55,0 -1,1.8 -1,4 0,2.2 -0.45,4 -1,4 -0.55,0 -1,1.8 -1,4 0,2.2 -0.45,4 -1,4 -0.55,0 -1,1.35 -1,3 0,1.65 -0.45,3 -1,3 -0.5926,0 -1,3.6667 -1,9 0,5.3333 -0.4074,9 -1,9 -0.5556,0 -1,2.6667 -1,6 0,3.3333 -0.4444,6 -1,6 -0.5926,0 -1,3.6667 -1,9 0,8.8176 0.048,9 2.385,9 2.6913,0 5.5725,-3.6526 5.6911,-7.2148 0.1232,-3.7014 2.4933,-9.2852 3.9412,-9.2852 1.2963,0 2.4059,2.8103 3.5412,8.9696 0.7117,3.8606 1.1407,4.1994 3.4734,2.7425 2.318,-1.4476 10.9681,-1.6299 10.9681,-0.2312 0,0.5396 -1.0896,1.2545 -2.4214,1.5887 -1.3318,0.3343 -4.108,2.4307 -6.1694,4.6586 -3.5541,3.8412 -3.6517,4.1213 -1.8875,5.4113 1.0233,0.7483 2.5621,1.3674 3.4194,1.3758 0.8574,0.01 2.216,0.431 3.0191,0.939 2.3964,1.5157 -1.5186,5.0457 -5.5961,5.0457 l -3.3258,0 0.6346,4.75 c 0.3491,2.6125 1.099,5.0532 1.6666,5.4238 1.6425,1.0724 -1.2464,3.8262 -4.014,3.8262 -1.8004,0 -2.7003,-0.7768 -3.4753,-3 -1.1333,-3.251 -3.8502,-4.1124 -3.8502,-1.2208 0,0.9786 -0.9,2.428 -2,3.2208 -1.1,0.7928 -2,2.2422 -2,3.2208 0,0.9785 -0.45,1.7792 -1,1.7792 -1.4467,0 -1.2313,3.7395 0.25,4.3405 0.9466,0.3841 0.8937,0.7548 -0.2179,1.5271 -1.2465,0.866 -1.1334,1.3099 0.75,2.9434 1.2198,1.058 2.2179,2.6583 2.2179,3.5563 0,0.898 0.45,1.6327 1,1.6327 0.6,0 1,4 1,10 0,6 0.4,10 1,10 0.55,0 1,0.9 1,2 0,1.1 -0.45,2 -1,2 -0.55,0 -1,1.35 -1,3 0,1.65 -0.45,3 -1,3 -0.55,0 -1,1.14 -1,2.5333 0,2.8169 -5.9473,9.4667 -8.4667,9.4667 -0.8433,0 -1.5333,0.45 -1.5333,1 0,0.55 -0.9,1 -2,1 -1.1,0 -2,0.45 -2,1 0,1.5832 -41.6758,1.3376 -42.4167,-0.25 -0.4666,-1 -0.7,-1 -1.1666,0 -0.3209,0.6875 -1.4459,1.25 -2.5,1.25 -1.0542,0 -1.9167,0.45 -1.9167,1 0,0.55 -0.9,1 -2,1 -1.1,0 -2,0.45 -2,1 0,0.55 -0.6954,1 -1.5454,1 -1.8899,0 -6.4546,4.4085 -6.4546,6.2338 0,0.7286 -0.9,1.9734 -2,2.7662 -1.1,0.7928 -2,2.2422 -2,3.2208 0,0.9785 -0.45,1.7792 -1,1.7792 -0.55,0 -1,1.1571 -1,2.5714 0,3.9706 -2.2044,5.4286 -8.2078,5.4286 -4.2035,0 -5.6597,0.4288 -6.7922,2 -1.1976,1.6616 -2.5887,2 -8.2208,2 -3.8528,0 -6.7792,0.4317 -6.7792,1 0,0.5556 -2.66667,1 -6,1 -3.33333,0 -6,0.4444 -6,1 0,0.55 -1.8,1 -4,1 -2.2,0 -4,0.45 -4,1 0,0.55 -0.9,1 -2,1 -1.1,0 -2,0.45 -2,1 0,0.5833 -3.33333,1 -8,1 -4.66667,0 -8,0.4167 -8,1 0,0.5926 -3.66667,1 -9,1 -5.33333,0 -9,-0.4074 -9,-1 0,-0.55 -0.69,-1 -1.53333,-1 -0.84334,0 -3.09334,-1.56 -5,-3.4667 -3.04893,-3.0489 -3.46667,-4.081 -3.46667,-8.5649 0,-4.8019 0.29066,-5.3814 5,-9.9684 2.75,-2.6786 5,-5.5744 5,-6.4351 0,-0.8607 0.45,-1.5649 1,-1.5649 0.55,0 1,-0.9 1,-2 0,-1.1 0.45,-2 1,-2 0.55,0 1,-0.9 1,-2 0,-1.1 0.45,-2 1,-2 0.55,0 1,-0.9 1,-2 0,-1.1 0.45,-2 1,-2 0.55,0 1,-0.9 1,-2 0,-1.1 0.45,-2 1,-2 0.55,0 1,-0.6955 1,-1.5455 0,-2.3439 4.60683,-6.4545 7.23379,-6.4545 1.27858,0 2.97337,-0.9 3.76621,-2 0.79284,-1.1 2.49932,-2 3.79219,-2 2.69939,0 5.20781,-2.1331 5.20781,-4.4286 0,-0.8643 0.80066,-1.5714 1.77924,-1.5714 0.97858,0 2.42792,-0.9 3.22076,-2 0.79284,-1.1 2.04932,-2 2.79219,-2 1.74062,0 4.20781,-2.4672 4.20781,-4.2078 0,-0.7429 0.9,-1.9994 2,-2.7922 1.1,-0.7928 2,-2.0525 2,-2.7992 0,-0.7467 1.8,-3.087 4,-5.2008 2.2,-2.1138 4,-4.4541 4,-5.2008 0,-0.7467 0.9,-2.0064 2,-2.7992 1.1,-0.7928 2,-2.1428 2,-3 0,-0.8572 0.9,-2.2072 2,-3 1.3929,-1.004 2,-2.5887 2,-5.2208 0,-3.1125 0.3528,-3.7792 2,-3.7792 1.3044,0 2,-0.6667 2,-1.9167 0,-1.0541 0.5625,-2.1449 1.25,-2.4238 0.9438,-0.383 0.8825,-0.7895 -0.25,-1.6595 -1.1325,-0.87 -1.1938,-1.2765 -0.25,-1.6595 0.6875,-0.2789 1.25,-1.6065 1.25,-2.9501 0,-2.4721 7.8447,-11.3904 10.0191,-11.3904 1.6259,0 5.9809,-4.6999 5.9809,-6.4545 0,-0.85 0.45,-1.5455 1,-1.5455 0.55,0 1,-0.9 1,-2 0,-1.1 0.45,-2 1,-2 0.55,0 1,-2.25 1,-5 0,-2.75 0.45,-5 1,-5 0.55,0 1,-1.35 1,-3 0,-1.65 0.45,-3 1,-3 0.55,0 1,-2.25 1,-5 0,-2.75 0.45,-5 1,-5 0.6377,0 1,-8.3333 1,-23 0,-14.6667 -0.3623,-23 -1,-23 -0.6274,0 -1,-6.3333 -1,-17 0,-10.6667 -0.3725,-17 -1,-17 -0.5556,0 -1,-2.6667 -1,-6 0,-3.3333 -0.4444,-6 -1,-6 -0.55,0 -1,-1.35 -1,-3 0,-1.65 -0.45,-3 -1,-3 -0.55,0 -1,-1.35 -1,-3 0,-1.65 -0.45,-3 -1,-3 -0.6,0 -1,-4 -1,-10 0,-6 -0.4,-10 -1,-10 -0.6,0 -1,-4 -1,-10 0,-6.1162 -0.3953,-10 -1.0177,-10 -1.5976,0 -1.5048,-71.2569 0.094,-71.8333 1.4362,-0.518 1.1415,-11.8986 -0.3258,-12.5834 -1,-0.4666 -1,-0.7 0,-1.1666 1.8982,-0.8859 1.4949,-3.7986 -0.75,-5.4167 -1.1745,-0.8465 -2,-2.5887 -2,-4.2208 0,-1.5285 -0.45,-2.7792 -1,-2.7792 -0.55,0 -1,-1.8 -1,-4 0,-2.2 -0.45,-4 -1,-4 -0.55,0 -1,-0.7042 -1,-1.5649 0,-0.8607 -2.25,-3.7565 -5,-6.4351 -2.75,-2.6786 -5,-5.5744 -5,-6.4351 0,-0.8607 -0.45,-1.5649 -1,-1.5649 -0.55,0 -1,-0.9 -1,-2 0,-1.1 -0.45,-2 -1,-2 -0.55,0 -1,-0.9 -1,-2 0,-1.1 -0.45,-2 -1,-2 -0.55,0 -1,-1.8 -1,-4 0,-2.2 -0.45,-4 -1,-4 -0.55,0 -1.00005,-1.35 -1.00005,-3 0,-1.65 -0.45,-3 -1,-3 -0.55,0 -1,-0.9 -1,-2 0,-1.1 -0.45,-2 -1,-2 -0.55,0 -1,-0.9 -1,-2 0,-1.1 -0.45,-2 -1,-2 -0.61538,0 -1,-5 -1,-13 0,-8 0.38462,-13 1,-13 0.55556,0 1,-2.6667 1,-6 0,-3.3333 0.44444,-6 1,-6 0.55,0 1,-1.35 1,-3 0,-1.65 -0.45,-3 -1,-3 -0.55,0 -1,-1.35 -1,-3 0,-1.65 0.45,-3 1,-3 0.55,0 1,-0.9 1,-2 0,-1.3333 0.66667,-2 2,-2 1.55555,0 2.00005,-0.6667 2.00005,-3 0,-1.65 0.45,-3 1,-3 0.6,0 1,-4 1,-10 0,-6 -0.4,-10 -1,-10 -0.55,0 -1,-1.8 -1,-4 0,-2.2 -0.45,-4 -1,-4 -0.6061,0 -1.00005,-4.3333 -1.00005,-11 0,-6.6667 -0.39394,-11 -1,-11 -1.44346,0 -1.23262,-3.7248 0.25,-4.4167 1.00005,-0.4666 1.00005,-0.7 0,-1.1666 -0.84561,-0.3947 -1.25,-3.1445 -1.25,-8.5 0,-4.6111 -0.41754,-7.9167 -1,-7.9167 -0.55,0 -1,-2.25 -1,-5 0,-2.75 -0.45,-5 -1,-5 -0.55556,0 -1,-2.6667 -1,-6 0,-3.3333 -0.44444,-6 -1,-6 -0.55,0 -1,-0.9 -1,-2 0,-1.1515 -0.66667,-2 -1.57143,-2 -2.02104,0 -4.42857,2.4075 -4.42857,4.4286 0,0.8643 -0.45,1.5714 -1,1.5714 -0.55,0 -1,0.6955 -1,1.5455 0,1.7794 -4.36464,6.4545 -6.02597,6.4545 -1.45753,0 -3.97403,2.5374 -3.97403,4.007 0,0.6324 -1.8,2.8792 -4,4.993 -2.2,2.1138 -4,4.5535 -4,5.4216 0,0.8681 -0.45,1.5784 -1,1.5784 -0.55,0 -1,0.9 -1,2 0,1.1 -0.45,2 -1,2 -0.55,0 -1,0.9 -1,2 0,1.3333 -0.66667,2 -2,2 -1.25062,0 -2,0.6667 -2,1.7792 0,0.9786 -0.9,2.428 -2,3.2208 -1.1,0.7928 -2,2.027 -2,2.7425 0,1.8204 -10.62511,12.2575 -12.47826,12.2575 -0.83696,0 -1.52174,0.45 -1.52174,1 0,0.55 -0.80066,1 -1.77924,1 -0.97858,0 -2.42792,0.9 -3.22076,2 -0.79284,1.1 -2.05246,2 -2.79916,2 -0.7467,0 -3.08708,1.8 -5.20084,4 -2.11376,2.2 -4.55348,4 -5.4216,4 -0.86812,0 -1.5784,0.45 -1.5784,1 0,0.55 -0.9,1 -2,1 -1.1,0 -2,0.45 -2,1 0,0.55 -0.80066,1 -1.77924,1 -0.97858,0 -2.42792,0.9 -3.22076,2 -0.79517,1.1032 -2.58869,2 -4,2 -1.41131,0 -3.20483,0.8968 -4,2 -0.84651,1.1745 -2.58869,2 -4.22076,2 -1.52858,0 -2.77924,0.45 -2.77924,1 0,0.55 -1.35,1 -3,1 -1.65,0 -3,0.45 -3,1 0,0.55 -0.9,1 -2,1 -2.55014,0 -2.55014,1.162 0,3 2.55014,1.838 2.55014,3 0,3 -1.1,0 -2,0.45 -2,1 0,0.55 -0.9,1 -2,1 -1.13725,0 -2,0.6667 -2,1.5455 0,1.7546 -4.35497,6.4545 -5.98086,6.4545 -1.64924,0 -10.01914,8.7496 -10.01914,10.4737 0,0.8395 -0.45,1.5263 -1,1.5263 -0.55,0 -1,1.35 -1,3 0,1.65 -0.45,3 -1,3 -0.55,0 -1,1.3125 -1,2.9167 0,1.6041 -0.5625,3.1791 -1.25,3.5 -1,0.4666 -1,0.7 0,1.1666 0.6875,0.3209 1.25,2.2465 1.25,4.2793 0,2.5487 0.62078,4.1433 2,5.1374 1.39291,1.004 2,2.5887 2,5.2208 0,3.5324 0.19587,3.7792 3,3.7792 2.28986,0 3,0.4537 3,1.9167 0,1.0541 -0.5625,2.1791 -1.25,2.5 -1,0.4666 -1,0.7 0,1.1666 0.79343,0.3703 1.25,2.7445 1.25,6.5 0,3.2778 0.44601,5.9167 1,5.9167 0.55,0 1,1.35 1,3 0,1.65 0.45,3 1,3 0.55,0 1,1.35 1,3 0,1.65 0.45,3 1,3 0.55,0 1,0.9 1,2 0,1.1 0.45,2 1,2 0.55,0 1,0.9 1,2 0,1.1 0.45,2 1,2 0.55,0 1,0.9 1,2 0,1.1 0.45,2 1,2 0.55,0 1,1.35 1,3 0,1.65 0.45,3 1,3 0.55,0 1,2.25 1,5 0,2.75 0.45,5 1,5 0.55,0 1,1.8 1,4 0,2.2 0.45,4 1,4 0.55,0 1,2.25 1,5 0,2.75 0.45,5 1,5 0.55,0 1,0.9 1,2 0,1.1 0.45,2 1,2 0.62222,0 1,5.6667 1,15 0,9.3333 -0.37778,15 -1,15 -0.57143,0 -1,3 -1,7 0,4 -0.42857,7 -1,7 -0.55,0 -1,0.9 -1,2 0,1.1 -0.45,2 -1,2 -0.55,0 -1,1.8 -1,4 0,2.2 -0.45,4 -1,4 -0.55,0 -1,2.25 -1,5 0,2.75 -0.45,5 -1,5 -0.55,0 -1,1.8 -1,4 0,2.2 -0.45,4 -1,4 -0.55,0 -1,0.9 -1,2 0,1.1 -0.45,2 -1,2 -0.55,0 -1,1.7625 -1,3.9167 0,2.1541 -0.46612,4.072 -1.03583,4.2619 -0.68871,0.2296 -1.02578,11.9865 -1.00584,35.0833 0.0193,22.3762 -0.32379,34.7381 -0.96417,34.7381 -0.54679,0 -0.99416,2.25 -0.99416,5 0,2.75 -0.45,5 -1,5 -0.55,0 -1,1.8 -1,4 0,2.2 -0.45,4 -1,4 -0.55556,0 -1,2.6667 -1,6 0,3.3333 -0.44444,6 -1,6 -0.55,0 -1,0.9 -1,2 0,1.1 0.45,2 1,2 0.57143,0 1,3 1,7 0,4 0.42857,7 1,7 0.55,0 1,1.8 1,4 0,2.2 -0.45,4 -1,4 -0.55,0 -1,0.9 -1,2 0,1.1 0.45,2 1,2 0.57143,0 1,3 1,7 0,4 0.42857,7 1,7 0.55,0 1,1.35 1,3 0,1.65 0.45,3 1,3 0.55,0 1,1.8 1,4 0,3.3333 0.33333,4 2,4 1.1,0 2,0.45 2,1 0,0.55 1.35,1 3,1 1.65,0 3,-0.45 3,-1 0,-0.5833 3.33333,-1 8,-1 4.66667,0 8,-0.4167 8,-1 0,-0.55 -0.45,-1 -1,-1 -0.55,0 -1,-0.8007 -1,-1.7792 0,-0.9786 -0.9,-2.428 -2,-3.2208 -2.06567,-1.4888 -2.7679,-5 -1,-5 0.55,0 1,0.45 1,1 0,0.55 1.24319,1 2.76265,1 1.77952,0 3.43076,0.8897 4.64007,2.5 1.03259,1.375 2.69328,2.5 3.69044,2.5 1.78741,0 4.42,-4.3814 5.10039,-8.4885 0.18118,-1.0937 1.11175,-2.1392 2.06793,-2.3233 1.4072,-0.271 1.73852,0.3956 1.73852,3.4979 0,2.8011 0.56088,4.1831 2.08368,5.1341 1.14603,0.7157 1.86266,1.8772 1.59252,2.5812 -0.91661,2.3887 0.9601,3.6498 6.38818,4.2926 7.02099,0.8316 11.14414,4.306 5.10993,4.306 -3.87523,0 -7.9975,4.3032 -6.19864,6.4707 0.69807,0.8411 1.87329,1.5293 2.61159,1.5293 0.73831,0 1.82404,0.9 2.41274,2 0.5887,1.1 1.72953,2 2.53518,2 0.80565,0 1.46482,0.9 1.46482,2 0,1.1 0.45,2 1,2 0.55,0 1,0.45 1,1 0,1.2379 -3.42686,1.306 -5.76357,0.1147 -0.95504,-0.4869 -4.29613,-2.1424 -7.42464,-3.6788 l -5.68821,-2.7935 -3.86554,2.6788 c -2.12605,1.4733 -4.85385,2.6788 -6.06179,2.6788 -1.20794,0 -2.19625,0.45 -2.19625,1 0,0.55 -1.575,1 -3.5,1 -4.93491,0 -4.53755,-2.1192 1.5,-8 2.75,-2.6786 5,-5.1244 5,-5.4351 0,-0.3107 -1.35,-0.5649 -3,-0.5649 -1.65,0 -3,0.45 -3,1 0,0.5556 -2.66667,1 -6,1 -3.33333,0 -6,0.4444 -6,1 0,0.55 -2.04,1 -4.53333,1 -3.83932,0 -5.06406,0.5307 -8,3.4667 C 207.5774,1741.3559 206.98384,1744 210,1744 c 1.1,0 2,0.5901 2,1.3114 0,0.7213 -0.9,2.2775 -2,3.4582 -2.11489,2.2701 -2.68088,5.2304 -1,5.2304 0.57862,0 1,3.1905 1,7.5714 0,7.7857 -1.12232,10.4286 -4.42857,10.4286 -0.90476,0 -1.57143,0.8485 -1.57143,2 0,1.1 -0.45,2 -1,2 -0.55,0 -1,0.9 -1,2 0,1.3333 -0.66667,2 -2,2 -1.1,0 -2,0.45 -2,1 0,0.6061 -4.33333,1 -11,1 -6.66667,0 -11,-0.3939 -11,-1 0,-0.55 -0.9,-1 -2,-1 -1.1,0 -2,-0.45 -2,-1 0,-0.55 -1.8,-1 -4,-1 -2.2,0 -4,-0.45 -4,-1 0,-0.55 -2.25,-1 -5,-1 -2.75,0 -5,-0.45 -5,-1 0,-0.55 -1.35,-1 -3,-1 -1.65,0 -3,-0.45 -3,-1 0,-0.6061 -4.33333,-1 -11,-1 -6.66667,0 -11,-0.3939 -11,-1 0,-0.55 -1.35,-1 -3,-1 -1.65,0 -3,0.45 -3,1 0,0.581 -3.25975,1 -7.77924,1 -6.63207,0 -7.99182,0.2949 -9.22076,2 -0.79284,1.1 -2.24218,2 -3.22076,2 -1.29897,0 -1.77924,0.7873 -1.77924,2.9167 0,1.6041 -0.5625,3.1449 -1.25,3.4238 -0.94376,0.383 -0.88251,0.7895 0.25,1.6595 1.13251,0.87 1.19376,1.2765 0.25,1.6595 -0.80201,0.3254 -1.25,2.6277 -1.25,6.4238 0,3.2778 -0.44601,5.9167 -1,5.9167 -0.55,0 -1,0.9 -1,2 0,1.1 -0.45,2 -1,2 -0.55,0 -1,2.25 -1,5 0,2.75 -0.45,5 -1,5 -0.55556,0 -1,2.6667 -1,6 0,3.3333 -0.44444,6 -1,6 -0.55,0 -1,1.35 -1,3 0,1.65 -0.45,3 -1,3 -0.57143,0 -1,3 -1,7 0,4 -0.42857,7 -1,7 -0.55,0 -1,1.8 -1,4 0,2.2 -0.45,4 -1,4 -0.57028,0 -1,2.9722 -1,6.9167 0,4.5555 -0.42671,7.1158 -1.25,7.5 -1,0.4666 -1,0.7 0,1.1666 1.48262,0.6919 1.69346,4.4167 0.25,4.4167 -0.58333,0 -1,3.3333 -1,8 0,4.6667 -0.41667,8 -1,8 -0.55,0 -1,0.9 -1,2 0,1.1 -0.45,2 -1,2 -0.55,0 -1,0.9 -1,2 0,1.1 -0.45,2 -1,2 -0.55,0 -1,0.9 -1,2 0,1.1 -0.45,2 -1,2 -0.55,0 -1,0.7071 -1,1.5714 C 72,1904.9892 69.39138,1906 60.57143,1906 55.52381,1906 52,1905.5889 52,1905 z m 386,-156 c 0,-0.55 -0.9,-1 -2,-1 -1.1,0 -2,0.45 -2,1 0,0.55 0.9,1 2,1 1.1,0 2,-0.45 2,-1 z m -320,-53 c 0,-1.1 0.45,-2 1,-2 0.55,0 1,-0.9 1,-2 0,-1.1 0.45,-2 1,-2 0.55,0 1,-0.9 1,-2 0,-1.1 0.45,-2 1,-2 0.55,0 1,-0.9 1,-2 0,-1.1 0.45,-2 1,-2 0.55,0 1,-1.5973 1,-3.5497 0,-1.9523 0.61245,-4.7648 1.36101,-6.25 1.65894,-3.2914 3.08827,-28.2003 1.6182,-28.2003 -0.53857,0 -0.97921,-1.8 -0.97921,-4 0,-2.2 -0.24545,-4 -0.54545,-4 -1.90991,0 -5.23541,5.206 -5.78239,9.0522 -0.3479,2.4463 -1.20424,8.4978 -1.90299,13.4478 -0.69874,4.95 -1.64703,9.5832 -2.10731,10.2961 -0.46027,0.7128 -0.53693,3.4768 -0.17035,6.1421 0.42459,3.0872 0.27488,5.0881 -0.4125,5.513 -0.61559,0.3804 -1.07901,3.8626 -1.07901,8.1078 0,4.294 -0.42293,7.441 -1,7.441 -0.55,0 -1,0.45 -1,1 0,0.55 0.9,1 2,1 1.33333,0 2,-0.6667 2,-2 z m 78,-564 c 0,-1.3333 0.66667,-2 2,-2 1.73333,0 2,-0.6667 2,-5 0,-2.75 0.45,-5 1,-5 0.55,0 1,-1.35 1,-3 0,-1.65 0.45,-3 1,-3 0.55,0 1,-0.9 1,-2 0,-1.1 0.45,-2 1,-2 0.55,0 1,-0.9 1,-2 0,-1.1 0.45,-2 1,-2 0.55,0 1,-1.35 1,-3 0,-1.65 0.45,-3 1,-3 0.55,0 1,-0.9 1,-2 0,-1.1 0.45,-2 1,-2 0.55,0 1,-1.35 1,-3 0,-1.65 0.45,-3 1,-3 0.55,0 1,-1.2507 1,-2.7792 0,-1.6321 0.82553,-3.3743 2,-4.2208 1.39291,-1.004 2,-2.5887 2,-5.2208 0,-2.0785 0.45,-3.7792 1,-3.7792 0.55,0 1,-1.35 1,-3 0,-1.65 0.45,-3 1,-3 0.55,0 1,-0.7195 1,-1.5988 0,-0.8793 1.35,-2.8599 3,-4.4012 1.65,-1.5413 3,-3.5219 3,-4.4012 0,-0.8793 0.45,-1.5988 1,-1.5988 0.55,0 1,-2.5347 1,-5.6327 0,-4.5815 0.41991,-6.0063 2.25,-7.6346 1.52621,-1.358 1.84789,-2.1463 1,-2.4507 -1.98565,-0.7127 -1.47417,-5.6789 0.75,-7.282 1.1,-0.7928 2,-2.2422 2,-3.2208 0,-0.9785 0.45,-1.7792 1,-1.7792 0.55,0 1,-1.8 1,-4 0,-2.2 0.45,-4 1,-4 0.55,0 1,-0.9 1,-2 0,-1.1 0.45,-2 1,-2 0.55,0 1,-1.1603 1,-2.5784 0,-1.7009 1.36126,-3.8863 4,-6.4216 2.2,-2.1138 4,-4.5535 4,-5.4216 0,-0.8681 0.45,-1.5784 1,-1.5784 0.55,0 1,-0.9 1,-2 0,-1.1 0.45,-2 1,-2 0.58889,0 1,-3.5238 1,-8.5714 0,-6.5031 -0.38387,-8.9553 -1.59075,-10.1622 -1.35503,-1.355 -1.73677,-1.3815 -2.57613,-0.1786 -0.75581,1.0832 -1.10355,1.121 -1.49258,0.1622 C 247.74074,975.7718 242,975.5455 242,977 c 0,0.5556 -2.66667,1 -6,1 -3.33333,0 -6,-0.4444 -6,-1 0,-0.55 -0.9,-1 -2,-1 -1.1,0 -2,-0.45 -2,-1 0,-0.55 -0.9,-1 -2,-1 -1.1,0 -2,-0.45 -2,-1 0,-1.5176 -4.94793,-1.1949 -6.57143,0.4286 -0.94824,0.9482 -1.42857,3.6381 -1.42857,8 0,3.7143 -0.43478,6.5714 -1,6.5714 -0.57143,0 -1,3 -1,7 0,4 -0.42857,7 -1,7 -0.57143,0 -1,3 -1,7 0,4 -0.42857,7 -1,7 -0.55,0 -1,1.8 -1,4 0,2.2 -0.45,4 -1,4 -0.58333,0 -1,3.3333 -1,8 0,4.6667 -0.41667,8 -1,8 -0.58333,0 -1,3.3333 -1,8 0,4.6667 -0.41667,8 -1,8 -0.55,0 -1,1.8 -1,4 0,2.2 -0.45,4 -1,4 -0.55556,0 -1,2.6667 -1,6 0,3.3333 -0.44444,6 -1,6 -0.59259,0 -1,3.6667 -1,9 0,5.3333 -0.40741,9 -1,9 -0.57143,0 -1,3 -1,7 0,4 -0.42857,7 -1,7 -0.55556,0 -1,2.6667 -1,6 0,3.3333 -0.44444,6 -1,6 -0.55,0 -1,0.9 -1,2 0,1.1 0.45,2 1,2 0.55,0 1,0.9 1,2 0,1.1 -0.45,2 -1,2 -1.40246,0 -1.24682,2.8041 0.25,4.5042 1.76491,2.0046 2.75,1.824 2.75,-0.5042 z m 70.293,-365.75 c 1.20223,-8.96163 1.84007,-11.77059 2.74379,-12.08333 0.52976,-0.18334 0.9635,-1.75834 0.96385,-3.5 6.6e-4,-3.23905 17.61581,-38.22212 21.19523,-42.09296 0.97969,-1.05945 2.04091,-2.74438 2.35826,-3.74427 C 294.27726,702.55107 310.5163,686 312.02859,686 313.65818,686 316,683.38861 316,681.57143 316,680.70714 316.45,680 317,680 c 0.55,0 1,-1.8 1,-4 0,-2.2 -0.45,-4 -1,-4 -0.55,0 -1,-0.73472 -1,-1.6327 0,-0.89799 -1.0125,-2.53358 -2.25,-3.63464 -1.52621,-1.35793 -1.84789,-2.14627 -1,-2.45063 0.6875,-0.24678 1.25,-1.7612 1.25,-3.36536 0,-1.60417 0.45,-2.91667 1,-2.91667 0.55,0 1,-1.35 1,-3 0,-1.65 -0.45,-3 -1,-3 -0.55,0 -1,-0.69545 -1,-1.54545 C 314,648.45408 309.54592,644 307.54545,644 306.69545,644 306,643.55 306,643 c 0,-0.55 -0.9,-1 -2,-1 -1.1,0 -2,0.45 -2,1 0,0.55 -0.71946,1 -1.59879,1 -0.87933,0 -2.85988,1.35 -4.40121,3 -2.46839,2.64242 -3.46976,3 -8.40121,3 C 282.89822,650 282,649.71455 282,648.22076 c 0,-0.97858 -0.9,-2.42792 -2,-3.22076 -1.1,-0.79284 -2,-2.24218 -2,-3.22076 C 278,640.80066 277.55,640 277,640 c -0.55,0 -1,-0.9 -1,-2 0,-1.1 -0.45,-2 -1,-2 -0.55,0 -1,-0.69 -1,-1.53333 C 274,633.06239 267.77175,626 266.53333,626 266.24,626 266,627.35 266,629 c 0,1.65 -0.45,3 -1,3 -0.55,0 -1,1.35 -1,3 0,1.65 0.45,3 1,3 0.55,0 1,2.25 1,5 0,2.75 0.45,5 1,5 0.55,0 1,0.9 1,2 0,1.1 0.45,2 1,2 0.55,0 1,0.9 1,2 0,1.1 0.45,2 1,2 0.55,0 1,1.70066 1,3.77924 0,2.63207 0.60709,4.21681 2,5.22076 1.1,0.79284 2,2.24218 2,3.22076 0,0.97858 0.45,1.77924 1,1.77924 0.55556,0 1,2.66667 1,6 0,3.33333 0.44444,6 1,6 1.31136,0 1.32187,15.72487 0.0108,16.16667 -0.60018,0.20224 -0.33217,2.38645 0.6815,5.55403 1.56309,4.88442 1.5624,5.34038 -0.0108,7.07874 -0.92482,1.02192 -1.6815,2.61011 -1.6815,3.5293 0,0.91919 -0.45,1.67126 -1,1.67126 -0.55,0 -1,0.9 -1,2 0,1.1 -0.45,2 -1,2 -0.55,0 -1,0.59015 -1,1.31144 0,0.72129 -0.9,2.27747 -2,3.45819 -1.1,1.18071 -2,2.84056 -2,3.68856 0,0.84799 -0.45,1.54181 -1,1.54181 -0.55,0 -1,0.9 -1,2 0,1.1 -0.45,2 -1,2 -0.55,0 -1,0.9 -1,2 0,1.1 -0.39375,2 -0.875,2 -0.48125,0 -1.12359,1.2375 -1.42742,2.75 -0.30383,1.5125 -2.61008,4.8954 -5.125,7.51756 -4.04096,4.21327 -4.57258,5.2887 -4.57258,9.25 0,3.40828 0.37657,4.48244 1.57143,4.48244 1.81687,0 4.42857,2.34172 4.42857,3.97078 0,1.71892 2.31589,3.94889 4.14496,3.99118 1.15473,0.0267 1.7949,-1.07954 2.14804,-3.71196 z"
     id="path2987"
     inkscape:connector-curvature="0" />
</svg>
