<?xml version="1.0" encoding="UTF-8" standalone="no"?>
<!-- Created with Inkscape (http://www.inkscape.org/) -->

<svg
   xmlns:dc="http://purl.org/dc/elements/1.1/"
   xmlns:cc="http://creativecommons.org/ns#"
   xmlns:rdf="http://www.w3.org/1999/02/22-rdf-syntax-ns#"
   xmlns:svg="http://www.w3.org/2000/svg"
   xmlns="http://www.w3.org/2000/svg"
   xmlns:sodipodi="http://sodipodi.sourceforge.net/DTD/sodipodi-0.dtd"
   xmlns:inkscape="http://www.inkscape.org/namespaces/inkscape"
   id="svg2"
   version="1.1"
   inkscape:version="0.48.2 r9819"
   width="809.07898"
   height="1831.6553"
   sodipodi:docname="sonoftarzan1917burr_0096d.png">
  <metadata
     id="metadata8">
    <rdf:RDF>
      <cc:Work
         rdf:about="">
        <dc:format>image/svg+xml</dc:format>
        <dc:type
           rdf:resource="http://purl.org/dc/dcmitype/StillImage" />
        <dc:title></dc:title>
      </cc:Work>
    </rdf:RDF>
  </metadata>
  <defs
     id="defs6" />
  <sodipodi:namedview
     pagecolor="#ffffff"
     bordercolor="#666666"
     borderopacity="1"
     objecttolerance="10"
     gridtolerance="10"
     guidetolerance="10"
     inkscape:pageopacity="0"
     inkscape:pageshadow="2"
     inkscape:window-width="1600"
     inkscape:window-height="876"
     id="namedview4"
     showgrid="false"
     fit-margin-top="0"
     fit-margin-left="0"
     fit-margin-right="0"
     fit-margin-bottom="0"
     inkscape:zoom="0.70710678"
     inkscape:cx="-92.0956"
     inkscape:cy="1488.0262"
     inkscape:window-x="0"
     inkscape:window-y="24"
     inkscape:window-maximized="1"
     inkscape:current-layer="svg2" />
  <path
     style="fill:#000000"
     d="m 428.10621,1831.0475 c -1.539,-0.4952 -3.75288,-2.114 -4.91972,-3.5974 -2.04073,-2.5944 -2.35312,-2.6663 -8.20181,-1.8894 -7.96337,1.0579 -25.20714,0.6665 -29.33028,-0.6657 -2.57929,-0.8334 -3.25656,-1.6016 -3.2818,-3.7226 -0.0175,-1.4698 -0.6925,-3.5459 -1.5,-4.6135 -0.80751,-1.0677 -1.4682,-3.6206 -1.4682,-5.6733 0,-4.2215 0.88783,-5.4435 12.97935,-17.8644 4.41136,-4.5315 8.02065,-8.817 8.02065,-9.5232 0,-1.3941 2.15584,-2.498 4.87853,-2.498 0.94322,0 4.84392,-3.4737 8.66821,-7.7193 3.82429,-4.2456 8.19076,-8.9261 9.70326,-10.4012 1.69941,-1.6573 2.75,-3.7456 2.75,-5.4663 0,-1.5313 1.0125,-3.8618 2.25,-5.1787 2.03432,-2.1648 2.28362,-3.5774 2.60067,-14.7361 0.19287,-6.788 -0.14277,-16.8775 -0.74586,-22.4212 -0.81679,-7.5081 -0.80184,-11.1813 0.0586,-14.3983 1.12551,-4.2082 0.19142,-10.9385 -3.21698,-23.1789 -0.93093,-3.3432 -2.19227,-12.7823 -2.17148,-16.25 0.007,-1.2375 -0.33266,-2.25 -0.75573,-2.25 -0.69275,0 -1.98823,-4.0812 -2.53941,-8 -0.11603,-0.825 -0.9163,-3.1703 -1.77838,-5.2117 -0.86207,-2.0415 -1.88357,-5.8202 -2.27001,-8.3971 -0.38643,-2.5769 -1.32078,-5.8566 -2.07633,-7.2883 -0.75555,-1.4316 -1.65364,-4.3004 -1.99576,-6.3751 -0.34211,-2.0747 -1.01292,-4.0137 -1.49067,-4.309 -0.47776,-0.2952 -0.86865,-1.7853 -0.86865,-3.3112 0,-1.5258 -0.31302,-3.0873 -0.69561,-3.4699 -0.86689,-0.8669 -0.93675,-1.1659 -2.81961,-12.0699 -0.8483,-4.9128 -2.06186,-9.5582 -2.69679,-10.3233 -0.63493,-0.765 -1.46628,-4.8455 -1.84746,-9.0677 -0.38117,-4.2222 -0.93386,-8.6165 -1.2282,-9.765 -0.45717,-1.7838 -1.09105,-10.2908 -2.07979,-27.9118 -0.26526,-4.7274 1.12561,-10.7089 2.72286,-11.7099 1.05923,-0.6638 1.38667,-5.6267 1.75147,-26.547 0.0738,-4.2327 -0.35808,-7.8409 -1.03639,-8.6582 -0.63961,-0.7707 -1.05847,-3.355 -0.93081,-5.7431 0.12766,-2.388 -0.59069,-7.9146 -1.59634,-12.2814 -1.48625,-6.4536 -1.71966,-10.3839 -1.24719,-21 0.52776,-11.8585 0.40886,-13.2444 -1.29212,-15.0604 -1.79493,-1.9162 -2.12379,-3.4605 -3.62037,-17 -0.36476,-3.3 -1.10996,-7.125 -1.65601,-8.5 -0.54604,-1.375 -1.50734,-4.9414 -2.13621,-7.9253 -0.62887,-2.984 -1.69421,-5.609 -2.36742,-5.8334 -1.71601,-0.572 -1.52697,1.899 0.65336,8.5402 1.03256,3.1452 1.93739,6.3935 2.01074,7.2185 0.50295,5.6569 0.0928,13.1778 -0.92714,17 -0.66043,2.475 -1.30918,6.3 -1.44168,8.5 -0.1325,2.2 -0.30355,4.5625 -0.3801,5.25 -0.0766,0.6875 -1.26419,1.25 -2.63919,1.25 -2.40798,0 -2.5,-0.2371 -2.5,-6.4428 0,-4.7829 0.5503,-7.3756 2.13588,-10.0629 1.80497,-3.0592 2.03735,-4.5628 1.4999,-9.7049 -0.34979,-3.3466 -1.05683,-6.5918 -1.57119,-7.2116 -2.87784,-3.4676 -4.20003,-11.3825 -5.60914,-33.5778 -0.26188,-4.125 -0.96081,-10.1722 -1.55316,-13.4383 -0.59236,-3.266 -1.24423,-9.1149 -1.44861,-12.9974 -0.20438,-3.8826 -0.62125,-9.3104 -0.92637,-12.0618 -0.63961,-5.7676 -1.1946,-16.9869 -2.02827,-41.0025 -0.32457,-9.35 -0.82629,-17.7917 -1.11493,-18.7593 -0.45504,-1.5255 -1.09402,-1.2929 -4.80744,1.75 -2.35546,1.9301 -4.79881,3.5093 -5.42966,3.5093 -0.63086,0 -1.14701,0.4099 -1.14701,0.9108 0,1.2045 -8.09114,5.0892 -10.6,5.0892 -2.32183,0 -7.15981,9.4916 -8.85559,17.3736 -0.13328,0.6195 -0.4988,1.8014 -0.81227,2.6264 -1.4072,3.7036 -1.40483,7.7616 0.008,13.3279 1.43376,5.6496 1.41621,6.0848 -0.29588,7.3367 -1.56837,1.1468 -2.13975,1.0305 -4.13205,-0.8412 l -2.31201,-2.172 0,3.0394 c 0,3.6564 -3.40039,8.3092 -6.07258,8.3092 -1.67197,0 -1.92742,0.7364 -1.92742,5.5564 0,4.8232 0.37824,5.9117 2.86672,8.25 3.92797,3.6908 6.26893,7.5827 7.20852,11.9844 0.43548,2.0401 1.29871,5.5092 1.9183,7.7092 1.77019,6.2856 1.9083,8.3237 0.5981,8.8265 -0.89098,0.3419 -1.02505,2.3021 -0.50067,7.3202 0.73683,7.051 -0.28605,10.5582 -2.44859,8.3957 -1.76811,-1.7681 -2.7716,-1.1524 -1.62216,0.9954 1.63046,3.0465 -0.36164,7.8875 -3.27022,7.9469 -0.4125,0.01 -1.65,-0.8847 -2.75,-1.9847 -1.64404,-1.644 -2,-3.3333 -2,-9.4915 0,-6.4085 -0.28913,-7.6721 -2,-8.7406 -1.1,-0.6869 -2.02084,-1.7032 -2.0463,-2.2584 -0.0255,-0.5552 -1.81751,-2.3595 -3.98232,-4.0095 -2.1648,-1.65 -4.243,-4.125 -4.61822,-5.5 -0.37522,-1.375 -1.56698,-3.7026 -2.64836,-5.1724 -1.81367,-2.4651 -1.91602,-3.7445 -1.31992,-16.5 0.69549,-14.8822 1.89392,-26.3223 3.17702,-30.3276 0.44048,-1.375 2.06925,-4.5006 3.61949,-6.9458 1.55023,-2.4452 2.82272,-5.1452 2.82775,-6 0.0129,-2.1919 3.98134,-9.9657 7.24086,-14.184 1.5125,-1.9575 2.75,-3.884 2.75,-4.2813 0,-0.3973 1.06645,-2.1548 2.36989,-3.9056 1.30344,-1.7508 2.67405,-5.1914 3.04579,-7.6458 0.82605,-5.4537 -0.0177,-4.7463 -3.91568,3.2829 -2.18766,4.5063 -3.61047,6.2663 -5.25447,6.4997 -1.28945,0.1831 -2.49313,-0.3018 -2.81201,-1.1328 -0.63745,-1.6611 3.81289,-12.8045 6.78377,-16.9862 1.97624,-2.7816 2.10879,-3.9869 1.81858,-16.5358 -0.12343,-5.3371 0.19071,-6.6272 1.99468,-8.1918 1.37716,-1.1944 1.93001,-2.5224 1.54936,-3.7217 -0.3255,-1.0256 -0.17683,-4.086 0.33038,-6.801 0.63775,-3.4137 0.58599,-5.1441 -0.16779,-5.6099 -0.64968,-0.4016 1.69641,-3.3134 5.80781,-7.2083 6.73656,-6.3818 6.90209,-6.6584 7.0815,-11.8336 0.10103,-2.9144 0.72511,-10.924 1.38682,-17.799 0.66172,-6.875 1.12155,-15.5375 1.02185,-19.25 -0.12186,-4.5377 0.19686,-6.75 0.97246,-6.75 0.63455,0 0.95203,-0.5625 0.70552,-1.25 -0.24651,-0.6875 -0.056,-2.0135 0.42329,-2.9466 0.47932,-0.9332 1.53624,-5.2082 2.34872,-9.5 1.19477,-6.3113 2.00617,-8.24 4.24339,-10.0866 2.51904,-2.0792 2.60981,-2.374 1.01614,-3.2997 -0.9625,-0.5591 -1.75,-1.7122 -1.75,-2.5624 0,-1.8162 3.33218,-6.8942 6.6573,-10.1452 3.2117,-3.1401 2.93818,-4.3123 -0.9452,-4.0507 -4.20511,0.2832 -5.7121,-0.6821 -5.7121,-3.6588 0,-1.3101 -0.49505,-2.6879 -1.10012,-3.0619 -0.71898,-0.4443 -0.86896,-2.53 -0.4329,-6.0201 0.85797,-6.8669 -0.23166,-14.418 -2.08052,-14.418 -2.52576,0 -1.73681,-8.1392 1.16859,-12.0557 1.95359,-2.6335 2.4183,-4.1849 1.97415,-6.5905 -0.52569,-2.8473 -0.19041,-4.2723 2.55372,-10.8538 0.45864,-1.1 1.04449,-4.7 1.30188,-8 0.25739,-3.3 1.10829,-11.175 1.89088,-17.5 2.47394,-19.9945 0.87034,-48.6769 -3.40756,-60.9485 -0.61186,-1.7552 -0.88872,-5.1763 -0.61525,-7.6026 0.34163,-3.0309 0.0669,-4.7685 -0.87782,-5.5526 -0.75628,-0.6277 -1.37505,-2.1887 -1.37505,-3.4691 0,-1.2803 -0.5625,-2.6877 -1.25,-3.1275 -2.83774,-1.8155 -4.26631,-4.912 -4.93182,-10.6902 C 350.23969,948.0757 349.31518,944 348.36233,944 c -2.81201,0 -5.809,6.8957 -8.475,19.5 -0.93067,4.4 -2.24594,8.675 -2.92283,9.5 -0.67689,0.825 -1.81654,2.9797 -2.53256,4.7882 -0.71601,1.8085 -2.14012,3.7369 -3.16469,4.2852 -1.02457,0.5483 -1.87716,1.9936 -1.89465,3.2118 -0.0175,1.2181 -0.6925,3.0883 -1.5,4.1559 -0.80751,1.0677 -1.4682,3.2482 -1.4682,4.8457 0,4.2637 -2.51175,7.8183 -8.32414,11.7802 -2.83697,1.9337 -5.61946,4.3973 -6.18331,5.4745 -0.56384,1.0772 -3.53278,4.4918 -6.59764,7.5881 -4.32438,4.3687 -6.44849,5.7599 -9.48369,6.2116 -2.15117,0.3201 -5.48622,0.8573 -7.41122,1.1937 -4.9045,0.8571 -10.99869,-2.0628 -15.40187,-7.3795 -1.97897,-2.3896 -3.59813,-4.7784 -3.59813,-5.3087 0,-0.5302 -1.40247,-2.7092 -3.1166,-4.8422 -3.8224,-4.7564 -5.90943,-13.0764 -5.21958,-20.808 0.5029,-5.6362 0.49148,-5.6662 -1.07777,-2.8322 -0.87233,1.5754 -1.58605,3.4181 -1.58605,4.095 0,0.6769 -0.90334,2.0482 -2.00743,3.0474 -2.23925,2.0265 -4.99257,7.0757 -4.99257,9.1556 0,0.7453 -1.29951,3.1489 -2.8878,5.3415 -1.58829,2.1926 -3.19161,5.606 -3.56294,7.5853 -0.37132,1.9793 -2.01856,6.144 -3.66052,9.2548 -8.19366,15.5236 -11.22561,20.8327 -12.97532,22.7206 -1.05238,1.1354 -1.91342,2.5753 -1.91342,3.1998 0,0.6245 -1.25581,3.0705 -2.79069,5.4356 -1.53488,2.365 -4.10325,7.2251 -5.70748,10.8001 -1.60424,3.575 -3.70195,7.4061 -4.66158,8.5136 -0.95964,1.1076 -2.4844,3.8076 -3.38837,6 -0.90397,2.1925 -2.42762,4.8864 -3.38589,5.9864 -0.95827,1.1 -2.35209,3.575 -3.09738,5.5 -0.74528,1.925 -1.60561,3.725 -1.91184,4 -1.42727,1.2817 -4.05677,7.0211 -4.05677,8.8546 0,1.1253 -0.58446,2.4059 -1.29881,2.8457 -0.71434,0.4398 -2.58655,3.4997 -4.16046,6.7997 -1.57391,3.3 -4.0815,7.575 -5.57242,9.5 -1.49093,1.925 -3.92807,5.75 -5.41587,8.5 -1.48781,2.75 -4.01346,7.025 -5.61257,9.5 -1.59911,2.475 -3.20619,5.175 -3.57131,6 -2.24462,5.0719 -3.90194,8.3713 -7.78587,15.5 -2.39724,4.4 -5.57879,10.475 -7.07012,13.5 -1.49133,3.025 -3.02887,5.725 -3.41675,6 -0.38789,0.275 -3.12115,5.4413 -6.07393,11.4806 -2.95277,6.0394 -6.44613,12.1144 -7.76302,13.5 -1.31689,1.3857 -3.27443,4.2097 -4.3501,6.2756 -1.07566,2.0659 -3.51461,4.7659 -5.41988,6 -1.90527,1.2341 -3.4697,3.0743 -3.47651,4.0894 -0.007,1.0151 -0.96022,3.1768 -2.1187,4.8037 -1.36229,1.9132 -1.93028,3.8789 -1.60798,5.5649 0.78966,4.1308 -1.09637,8.2858 -3.76108,8.2858 -2.64034,0 -3.69671,1.1578 -5.47427,6 -2.80778,7.6486 -4.19447,10 -5.89727,10 -3.21464,0 -4.20441,2.0001 -2.56175,5.1766 1.3473,2.6054 1.31866,3.168 -0.30125,5.9178 -1.31611,2.2341 -2.36556,2.9293 -3.96354,2.6255 -2.20635,-0.4195 -3.28149,1.4013 -3.31289,5.6106 -0.008,1.0068 -1.52936,4.1568 -3.3819,7 -1.85254,2.8432 -4.1756,8.3195 -5.16235,12.1695 -0.98675,3.85 -2.39604,7.7104 -3.13175,8.5787 -0.73571,0.8683 -1.33765,2.3609 -1.33765,3.3168 0,0.9559 -1.08743,3.1704 -2.4165,4.9212 -1.32908,1.7508 -3.18278,5.1079 -4.11934,7.4602 -0.93656,2.3523 -2.43663,4.8327 -3.3335,5.5122 -2.30808,1.7484 -4.13066,5.2846 -4.13066,8.0143 0,1.2818 -1.40605,5.0004 -3.12455,8.2636 -1.7185,3.2631 -3.631,6.942 -4.25,8.1752 -0.619,1.2332 -1.46295,2.2457 -1.87545,2.25 -0.4125,0 -0.75,0.8178 -0.75,1.8078 0,0.99 -0.42117,2.2275 -0.93593,2.75 -0.51476,0.5225 -2.80444,4.55 -5.08817,8.95 -2.28372,4.4 -6.1179,11.7907 -8.52038,16.4238 -2.40249,4.6332 -5.27582,9.3582 -6.38518,10.5 -5.53181,5.694 -8.24519,9.6782 -7.64911,11.2315 0.97207,2.5332 -1.34869,8.3853 -5.19292,13.0947 -4.31308,5.2838 -8.3624,5.7758 -12.34314,1.5 -1.40812,-1.5125 -4.6940902,-4.55 -7.3021702,-6.75 -2.60808,-2.2 -5.37289,-5.1991 -6.14402003,-6.6646 -1.24741,-2.3708 -1.1757,-3.198 0.65018003,-7.5 2.99175,-7.0491 5.2724,-11.3354 6.03126,-11.3354 1.09666,0 1.85661,2.876 1.25511,4.75 -0.98962,3.0832 2.8894802,-2.3068 6.1200702,-8.5038 1.64758,-3.1604 4.23508,-7.386 5.75,-9.3901 1.51492,-2.0042 2.7544,-4.1478 2.7544,-4.7636 0,-0.6158 0.37386,-1.901 0.8308,-2.8561 1.24602,-2.6042 4.18415,-8.4105 5.68596,-11.2364 0.73073,-1.375 2.3403,-4.75 3.57682,-7.5 1.23653,-2.75 3.52132,-6.8811 5.07732,-9.1802 1.55601,-2.2991 2.8291,-4.6677 2.8291,-5.2635 0,-0.5959 0.39506,-1.8648 0.87792,-2.8199 0.48285,-0.955 1.61407,-3.3114 2.51381,-5.2364 0.89974,-1.925 2.7984,-5.525 4.21925,-8 1.42084,-2.475 4.65844,-8.55 7.19467,-13.5 4.694,-9.1613 8.60344,-14.888 13.42416,-19.6639 1.47887,-1.4651 2.96873,-3.9401 3.31081,-5.5 1.15464,-5.2652 2.80949,-8.8211 5.64087,-12.1209 1.55018,-1.8066 2.81851,-3.7718 2.81851,-4.367 0,-1.4119 7.66776,-8.8482 9.12359,-8.8482 0.77774,0 0.74311,-0.4557 -0.11302,-1.4873 -1.53528,-1.8499 -0.82163,-3.3526 6.43042,-13.54 2.44225,-3.4308 2.74334,-4.4479 1.77546,-5.9977 -0.96612,-1.547 -0.51647,-3.1161 2.62803,-9.1707 9.11148,-17.5437 14.37415,-26.8043 15.23247,-26.8043 0.50768,0 0.92305,-0.6811 0.92305,-1.5136 0,-1.6426 2.00243,-5.6206 3.31513,-6.5857 0.91568,-0.6732 7.37448,-12.4465 8.31166,-15.1507 0.33356,-0.9625 1.00399,-1.75 1.48984,-1.75 0.48585,0 0.88337,-0.81 0.88337,-1.8 0,-0.99 0.38742,-2.2275 0.86094,-2.75 0.47352,-0.5225 2.66495,-4.325 4.86985,-8.45 8.38036,-15.6783 12.39087,-22.537 13.80565,-23.6102 0.80496,-0.6107 1.46356,-1.9059 1.46356,-2.8783 0,-2.0866 5.35694,-11.7329 7.50635,-13.5168 0.82151,-0.6818 1.49365,-2.0238 1.49365,-2.9823 0,-0.9585 0.8381,-2.8159 1.86244,-4.1275 1.02434,-1.3117 2.20257,-3.5099 2.61828,-4.8849 0.41571,-1.375 1.4217,-3.2591 2.23552,-4.187 0.81383,-0.9278 1.19626,-2.1456 0.84986,-2.7061 -0.34641,-0.5604 0.50951,-1.7656 1.90203,-2.678 1.39253,-0.9124 2.53187,-2.1002 2.53187,-2.6395 0,-0.5394 0.84021,-2.1751 1.86713,-3.635 1.02693,-1.4599 4.27693,-7.3794 7.22223,-13.1544 2.9453,-5.775 5.90061,-11.0652 6.56736,-11.7559 0.66674,-0.6908 1.53149,-2.2658 1.92166,-3.5 0.39016,-1.2343 1.71741,-3.5941 2.94944,-5.2441 1.23203,-1.65 2.56859,-4.125 2.97013,-5.5 0.40155,-1.375 1.69128,-4.0686 2.86607,-5.9859 2.96909,-4.8455 3.80082,-6.3782 8.55449,-15.7641 2.2981,-4.5375 4.53454,-8.25 4.96987,-8.25 0.43532,0 1.3804,-1.7844 2.10017,-3.9653 0.71976,-2.1809 2.36679,-4.9593 3.66006,-6.1743 1.29326,-1.215 2.35139,-3.0306 2.35139,-4.0347 0,-1.0041 0.36678,-1.8257 0.81507,-1.8257 0.44829,0 1.86707,-3.0375 3.15286,-6.75 1.28578,-3.7125 2.67145,-7.2 3.07926,-7.75 0.40782,-0.55 2.42517,-4.15 4.48301,-8 2.05785,-3.85 4.59405,-8.2136 5.63602,-9.697 2.50113,-3.5606 10.81932,-19.9996 10.82743,-21.398 0.003,-0.6022 1.78163,-3.8416 3.95142,-7.1987 2.1698,-3.3571 4.26113,-7.8144 4.64742,-9.9051 0.38628,-2.0906 2.211,-6.91308 4.05492,-10.71649 1.84393,-3.80341 3.35259,-7.35478 3.35259,-7.89194 0,-1.23202 7.53583,-13.35981 10.37236,-16.69277 4.8851,-5.74004 8.08018,-15.34656 9.06975,-27.26967 0.48558,-5.8506 1.24507,-8.65413 3.07493,-11.35058 1.33654,-1.9695 2.69409,-5.22315 3.01679,-7.23033 0.32269,-2.00718 1.06695,-5.83892 1.6539,-8.51497 0.60553,-2.76072 0.7847,-7.98301 0.41417,-12.07188 -0.5837,-6.44131 -0.43799,-7.40093 1.37254,-9.03944 2.13271,-1.93007 2.72065,-4.52313 1.02556,-4.52313 -1.74765,0 -1.0764,-6.63316 0.92928,-9.18296 1.4386,-1.82889 1.79842,-3.45277 1.41479,-6.38486 -0.43923,-3.35693 -0.0716,-4.42456 2.51322,-7.29788 2.36805,-2.6324 3.14733,-4.59328 3.57675,-9 0.30197,-3.09887 1.00285,-9.25765 1.5575,-13.6862 0.55465,-4.42854 1.00846,-9.75003 1.00846,-11.82553 0,-2.57405 1.23643,-5.89533 3.88958,-10.4481 2.13928,-3.67096 4.63669,-8.47447 5.54982,-10.67447 3.35262,-8.07751 9.4262,-16.01634 15.79488,-20.64563 3.44615,-2.50494 7.16572,-4.81231 8.26572,-5.12747 1.1,-0.31516 5.15,-1.74913 9,-3.1866 6.19441,-2.31279 8.72514,-3.06603 12.87867,-3.83319 0.61673,-0.11391 1.34633,-0.46067 1.62133,-0.77058 0.42749,-0.48175 8.62848,-2.37319 14.22963,-3.28186 0.95129,-0.15433 2.00779,-0.55876 2.34776,-0.89873 0.33998,-0.33998 1.24915,-0.376 2.02038,-0.0801 0.91829,0.35238 1.40223,-0.16031 1.40223,-1.48557 0,-1.11301 0.46041,-2.17712 1.02313,-2.3647 0.56272,-0.18757 1.15026,-1.95541 1.30565,-3.92853 0.1554,-1.97312 1.26999,-4.84284 2.47688,-6.37715 1.20689,-1.53431 2.20686,-3.29147 2.22216,-3.9048 0.0153,-0.61333 1.3653,-2.8828 3,-5.04328 1.6347,-2.16048 2.97273,-5.08548 2.9734,-6.5 6.7e-4,-1.41452 1.14663,-3.90374 2.54657,-5.5316 1.39995,-1.62786 3.53426,-5.11536 4.74293,-7.75 1.20867,-2.63459 2.53771,-4.79021 2.95343,-4.79021 0.41572,0 0.75585,-2.04561 0.75585,-4.54581 0,-2.9152 0.88605,-6.21024 2.47013,-9.18592 C 412.76692,636.83492 418.95889,630 420.98873,630 c 1.81604,0 1.84022,-1.62311 0.0345,-2.31602 -0.75964,-0.2915 -2.98791,0.5618 -4.95171,1.89624 -1.96379,1.33443 -4.60477,2.53729 -5.86883,2.67301 -2.10796,0.22633 -2.31022,-0.16732 -2.44222,-4.75323 -0.0792,-2.75 -0.45836,-6.39867 -0.84268,-8.10817 -0.50396,-2.24163 -0.11534,-4.25176 1.39392,-7.21016 1.15097,-2.2561 2.09268,-5.69492 2.09268,-7.64183 0,-3.67584 -1.52137,-4.84667 -2.32569,-1.78984 -0.25326,0.9625 -1.01706,3.8875 -1.69735,6.5 -1.38012,5.30008 -2.08114,5.59361 -6.6727,2.79396 -2.36463,-1.44181 -3.37271,-2.93623 -3.8762,-5.74626 -0.37426,-2.08874 -1.4974,-5.62783 -2.49588,-7.86466 -1.26331,-2.83015 -1.60662,-5.11099 -1.12887,-7.5 0.95409,-4.77102 0.86901,-14.59624 -0.13507,-15.59913 -0.45747,-0.45692 -1.40196,-0.051 -2.09888,0.90212 -0.69691,0.95309 -1.55212,1.44787 -1.90047,1.09953 -0.94642,-0.94642 -4.62164,7.73772 -4.64693,10.98018 -0.0299,3.83308 -1.71073,6.68426 -3.94051,6.68426 -2.3998,0 -3.05094,-2.63947 -3.0678,-12.43555 -0.0115,-6.71302 0.31199,-8.28218 2.10013,-10.18556 1.16257,-1.23751 2.17798,-3.52662 2.25645,-5.08692 0.0953,-1.89486 1.45496,-4.07469 4.09456,-6.56444 2.17354,-2.05014 4.33469,-3.72753 4.80257,-3.72753 0.46787,0 0.57256,-0.45 0.23264,-1 -0.33992,-0.55 0.0994,-1 0.97617,-1 3.14095,0 9.8643,-5.34664 10.92471,-8.68772 0.32908,-1.03683 2.58142,-3.98449 5.00521,-6.55034 2.42378,-2.56586 4.9574,-6.37446 5.63027,-8.46357 1.94697,-6.0449 11.87889,-17.74718 15.69012,-18.48687 0.97544,-0.18932 1.79432,-1.01185 1.81975,-1.82786 0.0873,-2.80125 2.28693,-5.48621 6.11787,-7.46767 2.10974,-1.09121 6.0859,-3.29098 8.8359,-4.88837 8.98832,-5.22104 18.22316,-8.02473 26.59975,-8.07567 4.17987,-0.0254 8.22987,0.45523 9,1.0681 1.03386,0.82276 3.00526,0.77921 7.53446,-0.16644 3.3738,-0.70441 8.6098,-1.59005 11.6355,-1.96808 5.6849,-0.71029 7.7303,-2.66766 7.7303,-7.3977 0,-0.99995 0.8304,-2.89128 1.8454,-4.20295 1.015,-1.31167 2.9885,-4.63486 4.3857,-7.38486 12.2558,-24.12315 15.6534,-30.66937 16.4789,-31.75002 0.5251,-0.68749 1.5616,-2.82498 2.3032,-4.74998 0.7417,-1.925 3.0671,-5.93576 5.1676,-8.91279 2.1006,-2.97704 3.8192,-5.8174 3.8192,-6.31193 0,-1.34238 5.0566,-11.83744 7.3598,-15.27528 1.1054,-1.65 2.8267,-4.21928 3.825,-5.70951 0.9984,-1.49023 1.8152,-4.27983 1.8152,-6.19911 0,-2.84113 0.6792,-4.00764 3.6549,-6.27736 3.9144,-2.98562 7.5346,-9.65667 6.5843,-12.13306 -0.3871,-1.00865 -0.1766,-1.2603 0.6347,-0.75892 1.7019,1.05189 4.1261,-1.2344 4.1261,-3.89148 0,-1.2235 0.9439,-3.30589 2.0975,-4.62755 1.1537,-1.32166 3.0125,-4.20301 4.1306,-6.40301 1.1182,-2.2 2.8743,-5.19447 3.9025,-6.65437 1.0281,-1.4599 1.8694,-3.12742 1.8694,-3.70559 0,-0.57817 1.125,-2.709 2.5,-4.73518 1.375,-2.02617 2.5,-4.43373 2.5,-5.35013 0,-0.91639 1.0675,-3.11305 2.3722,-4.88146 1.3046,-1.76841 3.1829,-5.34334 4.1739,-7.94428 0.991,-2.60094 3.2834,-6.84034 5.0942,-9.42088 1.8108,-2.58054 3.5732,-5.81048 3.9163,-7.17764 0.3431,-1.36717 1.2583,-2.72919 2.0336,-3.02673 0.7754,-0.29753 1.4098,-1.08859 1.4098,-1.7579 0,-0.66932 0.8589,-2.14594 1.9087,-3.28139 2.4263,-2.62429 8.0913,-13.78918 8.0913,-15.94681 0,-0.89923 1.35,-3.49858 3,-5.77634 1.65,-2.27776 3,-4.9515 3,-5.94165 0,-0.99015 0.5743,-2.16013 1.2762,-2.59996 0.702,-0.43983 2.8395,-3.43776 4.75,-6.66206 1.9106,-3.22431 4.0492,-6.08992 4.7526,-6.36803 1.1923,-0.47146 3.0929,-4.16723 6.1986,-12.05349 0.7114,-1.80615 2.2817,-4.06135 3.4897,-5.01158 1.8825,-1.48079 4.3819,-7.20453 3.146,-7.20453 -0.2338,0 -4.4049,1.95278 -9.2691,4.33951 -13.8001,6.77133 -15.45,7.37735 -26.4796,9.72623 -5.7004,1.21398 -10.5894,2.54975 -10.8644,2.96839 C 597.6716,250.14975 588.3128,255 586.893,255 c -1.0313,0 -5.623,3.14974 -10.2214,7.01143 -0.678,0.56942 -2.253,0.79019 -3.5,0.49061 -1.9268,-0.46292 -2.6024,0.17161 -4.5002,4.22663 -2.1174,4.52441 -3.6858,11.01481 -4.7463,19.6418 -0.6425,5.22663 -2.1149,6.91706 -4.7818,5.48977 -1.6686,-0.893 -2.3484,-0.72962 -3.645,0.87604 -0.8767,1.08557 -2.3174,2.22533 -3.2017,2.53279 -0.8843,0.30747 -1.8722,1.88103 -2.1954,3.49681 -0.3231,1.61578 -2.1871,5.03335 -4.1422,7.5946 -1.955,2.56126 -3.5546,5.29589 -3.5546,6.07697 0,1.97472 -6.3928,8.56255 -8.3091,8.56255 -0.8651,0 -1.8545,-0.45566 -2.1987,-1.01259 -0.6829,-1.10492 2.4616,-8.98741 3.5852,-8.98741 0.3809,0 1.4297,-1.125 2.3306,-2.5 0.901,-1.375 1.4142,-2.5 1.1406,-2.5 -0.2736,0 -3.9965,2.8125 -8.2731,6.25 -4.2765,3.4375 -8.9872,7.03094 -10.4681,7.98542 -1.4809,0.95449 -4.5797,3.53064 -6.8862,5.7248 -2.3066,2.19415 -4.5243,3.78505 -4.9284,3.53533 -0.4041,-0.24972 -1.7616,0.43662 -3.0167,1.52521 -2.534,2.1977 -9.3954,2.72792 -10.5762,0.81729 -0.4106,-0.66445 0.3134,-1.98266 1.691,-3.07877 1.325,-1.05425 4.2175,-3.62276 6.4279,-5.70781 2.2103,-2.08504 5.4678,-4.10926 7.2389,-4.49826 1.9996,-0.43918 3.8466,-1.76771 4.8728,-3.50491 1.0213,-1.72883 3.6469,-3.6242 6.8727,-4.96122 2.871,-1.18998 6.2608,-3.27138 7.5327,-4.62534 1.272,-1.35396 2.842,-2.46174 3.4889,-2.46174 0.6468,0 2.2107,-1.35 3.4752,-3 1.2645,-1.65 2.7342,-3 3.266,-3 0.5318,0 4.0987,-3.2073 7.9265,-7.12732 6.4861,-6.64236 7.0257,-7.5373 7.93,-13.15241 0.5336,-3.3138 1.4006,-6.82919 1.9266,-7.81199 0.526,-0.9828 0.5705,-2.02534 0.099,-2.31677 -1.0328,-0.63829 -4.1707,2.70463 -6.7194,7.15849 -1.0229,1.7875 -2.2129,3.25 -2.6443,3.25 -0.4314,0 -0.7844,0.49037 -0.7844,1.08971 0,1.3711 -4.0811,4.8326 -5.75,4.87702 -1.8675,0.0497 -1.5117,-3.40303 0.8098,-7.85695 1.1329,-2.1735 2.1929,-5.22486 2.3555,-6.7808 0.2343,-2.2416 0.8609,-2.89623 3.0175,-3.15286 1.7941,-0.21349 3.369,-1.40646 4.6205,-3.5 1.0442,-1.74687 3.7642,-4.06266 6.0444,-5.1462 2.2802,-1.08355 4.6132,-2.99605 5.1846,-4.25 0.5713,-1.25396 1.535,-2.27992 2.1416,-2.27992 0.6065,0 3.1218,-2.01 5.5895,-4.46667 4.3768,-4.35737 7.2654,-5.7133 18.2366,-8.56054 2.6125,-0.67799 4.8167,-1.73673 4.8981,-2.35275 0.081,-0.61602 0.1939,-2.00177 0.25,-3.07944 0.077,-1.47192 1.4703,-2.38179 5.6019,-3.6571 l 5.5,-1.6977 -5.3987,-0.3429 c -4.5183,-0.28698 -5.7328,-0.79181 -7.4473,-3.09562 -1.6291,-2.18905 -1.7948,-3.00641 -0.8096,-3.99164 0.9852,-0.98523 1.424,-0.93949 2.1427,0.22336 0.7351,1.18944 1.5203,1.25411 4.2083,0.34658 1.8176,-0.61363 4.8796,-0.9082 6.8046,-0.65459 1.925,0.2536 6.5143,0.54388 10.1983,0.64505 5.3463,0.14683 6.7811,-0.13257 7.1088,-1.38427 0.3407,-1.30103 1.3292,-1.44055 5.8018,-0.81885 2.9651,0.41215 6.5524,1.04325 7.9717,1.40242 1.5268,0.38635 4.1291,0.006 6.3722,-0.93114 2.0853,-0.87131 4.6365,-1.5842 5.6694,-1.5842 1.0328,0 1.8778,-0.41968 1.8778,-0.93261 0,-0.51294 0.7972,-1.18563 1.7716,-1.49487 0.9743,-0.30925 3.3368,-2.01383 5.25,-3.78796 1.9131,-1.77413 3.8159,-3.12643 4.2284,-3.00512 0.4125,0.12131 0.75,-0.45444 0.75,-1.27944 0,-0.825 -0.4284,-1.5 -0.9521,-1.5 -1.1481,0 1.4302,-9.05936 2.8232,-9.92033 0.5337,-0.32984 1.2797,-1.83233 1.6579,-3.33887 0.3781,-1.50654 1.756,-3.75203 3.062,-4.98998 1.3443,-1.27434 2.382,-3.42459 2.3918,-4.95641 0.01,-1.48808 1.1037,-4.30658 2.4316,-6.26335 1.3279,-1.95676 2.7272,-5.40964 3.1096,-7.67306 0.3824,-2.26342 1.4862,-5.51992 2.4529,-7.23666 0.9667,-1.71674 2.3291,-5.27043 3.0276,-7.8971 0.6984,-2.62667 1.6582,-5.01573 2.1327,-5.30902 0.4745,-0.29329 0.8628,-1.8567 0.8628,-3.47424 0,-1.61754 0.4766,-2.94098 1.059,-2.94098 0.5825,0 0.8001,-0.41891 0.4837,-0.9309 -0.3164,-0.512 -0.118,-1.21356 0.441,-1.55902 0.559,-0.34546 1.0163,-1.50156 1.0163,-2.5691 0,-1.06754 0.392,-1.94098 0.8712,-1.94098 0.4791,0 1.1696,-2.25 1.5344,-5 0.3648,-2.75 1.0978,-5 1.6288,-5 0.5311,0 0.9656,-1.0699 0.9656,-2.37756 0,-1.30765 0.6309,-2.90111 1.4019,-3.54101 0.771,-0.63991 1.6998,-2.35062 2.064,-3.80159 0.6741,-2.68598 7.718,-10.27984 9.5352,-10.27984 0.5494,0 0.9989,-0.88498 0.9989,-1.96663 0,-1.08165 1.7012,-5.13079 3.7805,-8.99808 3.4162,-6.35407 5.5346,-9.18797 14.4525,-19.33427 1.5031,-1.71019 3.4805,-4.70504 4.3941,-6.65523 0.9137,-1.95018 2.269,-3.90431 3.0118,-4.3425 1.7316,-1.02154 10.902,-12.57895 15.6339,-19.70329 2.0091,-3.025 5.2447,-7.26924 7.1901,-9.43165 1.9454,-2.16241 3.5371,-4.299912 3.5371,-4.750003 0,-0.450091 0.7875,-1.645334 1.75,-2.656096 1.8236,-1.914994 2.5025,-2.874875 7.0191,-9.924187 1.5019,-2.344065 3.5082,-4.508676 4.4583,-4.810245 0.9502,-0.30157 3.6131,-2.123651 5.9177,-4.04907 C 783.8286,1.968185 787.6115,0 790.8094,0 c 2.0832,0 2.6178,0.604846 3.1791,3.596461 0.7812,4.164098 -0.7471,10.109107 -3.3262,12.939104 -2.5118,2.756244 -8.2579,14.787075 -8.2579,17.290095 0,2.45777 -2.0064,7.17434 -3.0519,7.17434 -0.402,0 -1.4949,1.9125 -2.4286,4.25 -0.9338,2.3375 -2.2148,4.87529 -2.8469,5.63953 -1.2133,1.46712 -2.9874,7.36307 -4.6675,15.51128 -0.5558,2.69544 -1.4548,5.43608 -1.9977,6.09031 -0.543,0.65423 -1.1224,4.60032 -1.2876,8.76909 -0.2586,6.52582 -0.6237,7.8414 -2.626,9.46275 -1.2791,1.03573 -2.4468,2.98427 -2.5949,4.33009 -0.3667,3.33148 -4.3845,9.94695 -6.0411,9.94695 -0.7396,0 -2.1422,1.35 -3.1169,3 -0.9746,1.65 -2.1251,3 -2.5565,3 -0.4314,0 -0.7844,0.4638 -0.7844,1.03067 0,0.56687 -1.8665,4.27937 -4.1477,8.25 -2.2812,3.97063 -4.7847,8.44788 -5.5633,9.94945 -0.7786,1.50157 -1.8383,2.99136 -2.355,3.31064 -0.5166,0.31929 -1.8973,2.69074 -3.0683,5.26988 -1.171,2.57915 -3.1948,5.96139 -4.4974,7.51609 -1.3025,1.55469 -2.3683,3.44602 -2.3683,4.20294 0,2.24539 -2.2341,6.47033 -3.4215,6.47033 -0.6052,0 -2.2156,1.35 -3.5785,3 -1.3629,1.65 -3.0152,3 -3.6716,3 -0.6565,0 -1.4675,0.86289 -1.8022,1.91754 -1.3177,4.15159 -4.5925,7.08246 -7.9136,7.08246 -2.7091,0 -3.5115,0.56478 -4.8803,3.43529 -0.901,1.8894 -3.0094,4.44903 -4.6853,5.68805 -1.6758,1.23903 -3.047,2.84315 -3.047,3.56472 0,0.72157 -0.3817,1.31194 -0.8481,1.31194 -0.4665,0 -1.6498,1.77772 -2.6296,3.95049 -0.9798,2.17278 -2.5622,4.78863 -3.5166,5.813 -3.1972,3.43177 -3.9984,6.00118 -3.4837,11.17168 0.4679,4.70084 0.3128,5.18297 -2.0074,6.24015 -1.383,0.63014 -2.5146,1.91838 -2.5146,2.86275 0,0.94437 -0.6503,2.25673 -1.4451,2.91635 -0.7948,0.65962 -2.8667,3.41472 -4.6042,6.12244 -1.847,2.87831 -3.9004,4.92314 -4.9438,4.92314 -0.9816,0 -1.7407,0.5625 -1.687,1.25 0.2934,3.75354 -1.8311,11.00959 -3.8667,13.20597 -1.2804,1.38163 -2.5402,3.75676 -2.7994,5.27805 -0.5333,3.12929 -3.3176,8.94019 -4.6904,9.78858 -1.0361,0.64036 -3.466,5.75927 -4.4988,9.4774 -0.382,1.375 -1.4889,3.4 -2.4599,4.5 -0.971,1.1 -2.3785,3.7397 -3.1279,5.866 -0.7494,2.1263 -2.331,4.91103 -3.5147,6.18828 -1.1837,1.27726 -1.9469,2.52755 -1.696,2.77844 0.2508,0.25089 -1.6511,3.74358 -4.2265,7.76155 -2.5755,4.01796 -5.1905,8.75245 -5.8111,10.52109 -0.6207,1.76863 -2.366,4.59982 -3.8785,6.29151 -1.5125,1.6917 -2.75,3.46057 -2.75,3.93083 0,1.21561 -2.9836,7.18305 -5.1581,10.31667 -1.013,1.4599 -1.8419,3.18893 -1.8419,3.84227 0,0.65335 -0.9,2.33207 -2,3.73049 -1.3909,1.76828 -2,4.05678 -2,7.51472 0,3.9546 -0.2996,4.85715 -1.4641,4.41031 -0.9104,-0.34935 -2.3146,0.65015 -3.7133,2.64301 -1.237,1.76266 -2.9407,3.75302 -3.7859,4.42303 -0.8452,0.67 -1.2064,1.2325 -0.8027,1.25 0.4036,0.0175 -0.097,1.7193 -1.1135,3.7818 -1.0161,2.0625 -3.2588,6.60131 -4.9839,10.08623 -1.7251,3.48493 -3.1366,6.81837 -3.1366,7.40763 0,0.58927 -1.7458,3.36296 -3.8797,6.16377 -2.1338,2.8008 -4.4742,6.77987 -5.2008,8.84237 -0.7267,2.0625 -1.6809,3.75 -2.1204,3.75 -0.4395,0 -0.7991,0.675 -0.7991,1.5 0,0.825 -0.8185,2.31855 -1.819,3.319 -2.2444,2.24439 -5.4279,9.97253 -4.6359,11.25398 0.3199,0.51763 -0.124,1.21193 -0.9864,1.54288 -0.8625,0.33095 -2.3395,2.24027 -3.2823,4.24294 -0.9427,2.00266 -2.9656,5.50646 -4.4952,7.78622 -1.5297,2.27977 -2.7812,4.54214 -2.7812,5.0275 0,0.48536 -0.7653,1.9751 -1.7007,3.31053 -0.9354,1.33543 -1.7537,3.14834 -1.8186,4.02868 -0.065,0.88033 -1.5495,3.68141 -3.2993,6.22462 -1.7498,2.5432 -3.1814,5.03464 -3.1814,5.53654 0,0.5019 -1.1267,2.89582 -2.5038,5.31983 -1.3771,2.424 -3.6265,6.65728 -4.9986,9.40728 -1.3722,2.75 -2.9043,5.675 -3.4048,6.5 -0.5005,0.825 -2.8319,4.875 -5.1809,9 -2.349,4.125 -5.1777,8.52218 -6.2859,9.77151 -1.1083,1.24933 -2.114,2.94605 -2.235,3.77049 -0.121,0.82444 -1.271,2.39664 -2.5555,3.49376 l -2.3355,1.99478 2.5,-0.52522 c 3.5658,-0.74914 5.3742,0.75713 4.7608,3.96563 -0.4687,2.45195 -0.2949,2.62894 2.0129,2.04971 3.4403,-0.86345 10.2263,5.55967 10.2263,9.67942 0,2.10084 0.6988,3.10507 2.8161,4.04705 5.0024,2.22552 11.0324,9.95723 13.5597,17.38633 1.2848,3.7766 3.5259,9.21408 4.9801,12.0833 1.4543,2.86921 2.6441,6.60406 2.6441,8.29966 0,1.69559 0.6571,4.3535 1.4601,5.90646 0.8031,1.55295 1.2219,3.06178 0.9307,3.35296 -0.2911,0.29117 0.022,1.58572 0.696,2.87678 2.4653,4.72231 2.9132,5.85001 2.9132,7.33381 0,0.83246 0.45,1.51357 1,1.51357 0.55,0 1,0.675 1,1.5 0,0.825 -0.45,1.5 -1,1.5 -0.55,0 -1,1.37482 -1,3.05516 0,1.68034 -1.3203,5.61784 -2.9341,8.75 -3.9217,7.61162 -7.2971,21.58079 -7.9956,33.09053 -0.6597,10.86843 -1.7439,12.42089 -7.2289,10.35054 -1.7652,-0.6663 -3.4642,-0.93267 -3.7755,-0.59193 -0.3112,0.34073 0,0.8204 0.6841,1.06594 0.6875,0.24553 1.25,1.49712 1.25,2.78131 0,3.36094 1.0061,5.49845 2.5879,5.49845 0.7557,0 1.6664,1.165 2.0238,2.5889 1.546,6.15981 -5.68,17.4111 -11.1821,17.4111 -1.5404,0 -3.7722,0.91272 -4.9597,2.02827 -2.6433,2.48329 -5.4699,1.66781 -5.4699,-1.5781 0,-2.60284 3.6944,-9.45017 5.0988,-9.45017 0.4957,0 0.9012,-0.675 0.9012,-1.5 0,-0.825 -0.45,-1.5 -1,-1.5 -0.55,0 -1,-1.575 -1,-3.5 0,-3.8847 -1.3599,-4.56463 -3,-1.5 -0.5887,1.1 -1.9028,2 -2.9202,2 -2.5852,0 -5.2738,4.52826 -4.9409,8.32169 0.1535,1.74807 -0.3114,5.8355 -1.033,9.08317 -0.7216,3.24767 -1.0524,7.52807 -0.7352,9.512 0.325,2.03244 -0.067,5.7449 -0.8969,8.50407 -2.6155,8.69054 -1.3538,19.86855 2.9436,26.07907 1.1417,1.65 2.1751,3.17276 2.2965,3.38392 0.1213,0.21115 1.3982,0.51319 2.8375,0.67118 1.4393,0.158 3.3666,0.92933 4.2828,1.71408 0.9162,0.78475 2.4533,1.7061 3.4158,2.04744 0.9627,0.3414 1.76,1.64699 1.7722,2.902 0.027,2.80786 2.3229,5.62624 7.1886,8.82602 2.0409,1.34216 4.2722,3.48932 4.9584,4.77148 0.6862,1.28215 2.7694,2.96703 4.6293,3.74416 1.86,0.77714 3.6187,2.319 3.9083,3.42635 0.2895,1.10735 1.1018,2.01337 1.8049,2.01337 0.7031,0 2.3381,1.11723 3.6333,2.48272 1.2953,1.3655 3.108,2.4905 4.0283,2.5 0.9203,0.01 2.9453,1.08071 4.5,2.38045 1.5547,1.29974 3.9307,2.70911 5.2801,3.13193 3.2884,1.03043 5.0466,2.92342 5.0466,5.43347 0,1.13929 0.5025,2.07143 1.1166,2.07143 0.6476,0 0.9186,-1.03543 0.6453,-2.46511 -0.2592,-1.35582 -0.035,-2.61054 0.4983,-2.78829 0.6093,-0.2031 0.5229,-2.47452 -0.2326,-6.11378 -0.6612,-3.18484 -1.107,-8.11761 -0.9908,-10.96172 0.1163,-2.8441 0.079,-5.6211 -0.083,-6.1711 -0.162,-0.55 -0.4386,-5.5 -0.6147,-11 -0.6037,-18.85595 -0.9869,-22.45279 -2.5835,-24.24776 -1.7328,-1.94796 -2.5492,-8.06059 -2.9723,-22.25224 -0.1557,-5.225 -0.632,-9.7586 -1.0585,-10.07466 C 580.8638,663.98745 580.4342,658 581.6323,658 c 0.6229,0 0.4522,-0.74263 -0.4024,-1.75 -0.9557,-1.12659 -1.537,-4.17697 -1.6318,-8.56288 -0.1122,-5.18528 -0.6342,-7.43174 -2.185,-9.40334 -1.8133,-2.30524 -1.8816,-2.82863 -0.6204,-4.75356 1.2433,-1.89747 1.2187,-2.28844 -0.2008,-3.18379 -1.8517,-1.16802 -1.8371,-7.85863 0.022,-10.09869 0.8711,-1.04953 0.6391,-1.47461 -1.0449,-1.91499 -3.4422,-0.90014 -2.7687,-4.55252 1.2372,-6.70986 6.6316,-3.57133 15.5984,0.58589 15.5984,7.23179 0,1.12527 0.6812,2.42719 1.5139,2.89316 1.4618,0.81809 7.2147,15.14517 8.132,20.25216 0.6768,3.76787 2.4706,10.24649 3.4611,12.5 2.2174,5.0452 3.77,10.65685 3.2926,11.90088 -0.2882,0.75111 0.1121,2.88816 0.8896,4.749 0.7775,1.86084 1.7272,5.4741 2.1104,8.02946 0.3832,2.55537 1.8001,6.93319 3.1485,9.72849 1.3485,2.7953 2.4519,6.02609 2.4519,7.17954 0,1.15344 0.9,3.24134 2,4.63976 1.1,1.39842 2,3.6069 2,4.90773 0,1.30083 0.9,3.26514 2,4.36514 1.1,1.1 2,3.30186 2,4.89301 0,1.64908 0.6449,3.14051 1.5,3.46862 0.825,0.31658 1.5,1.46317 1.5,2.54797 0,1.0848 0.4005,2.21992 0.8901,2.52248 0.4895,0.30256 1.6472,3.63959 2.5725,7.41561 1.0942,4.46495 2.662,7.93787 4.4837,9.93242 1.5407,1.6868 3.7881,5.10555 4.9943,7.59723 1.2062,2.49168 3.0209,4.79307 4.0327,5.11421 1.0118,0.32113 2.5647,2.25441 3.4509,4.29617 0.8863,2.04175 2.7379,5.51228 4.1147,7.71228 1.3769,2.2 2.7597,4.675 3.0729,5.5 3.4649,9.1262 9.6134,23.49899 10.5495,24.66064 1.9249,2.3888 8.8387,16.77284 8.8387,18.38884 0,0.92444 0.7875,2.75916 1.75,4.07714 2.7165,3.71983 4.001,5.93605 6.8818,11.87338 1.4755,3.04101 4.9068,7.56614 7.6749,10.12132 4.0047,3.69677 5.0298,5.29897 5.1239,8.00849 0.065,1.86294 0.8943,4.49597 1.8435,5.85118 0.9492,1.35521 1.7259,2.99075 1.7259,3.63453 0,0.64378 0.6297,1.41214 1.3993,1.70748 0.7696,0.29534 1.9515,2.25598 2.6264,4.35699 0.6749,2.10101 1.7712,4.49501 2.4362,5.32001 0.6651,0.825 2.0928,3.3 3.1728,5.5 1.08,2.2 3.5144,6.7 5.4097,10 1.8954,3.3 4.1978,8.025 5.1166,10.5 0.9188,2.475 2.5667,6.75 3.6619,9.5 1.0952,2.75 2.5956,6.575 3.3342,8.5 1.4381,3.74812 7.4046,13.79438 10.7842,18.1582 1.1323,1.4619 2.0587,3.2662 2.0587,4.0094 0,0.7432 0.9065,1.9175 2.0146,2.6095 1.4485,0.9046 1.8496,1.9157 1.4272,3.5985 -0.7451,2.9689 1.9598,9.591 4.8473,11.867 1.866,1.4708 1.9809,1.8916 0.7371,2.6974 -1.251,0.8103 -1.1334,1.317 0.7782,3.3519 1.3587,1.4462 2.0044,3.0427 1.6277,4.0243 -0.3897,1.0155 0.5395,3.0393 2.4717,5.3833 1.7029,2.0659 3.0962,4.6697 3.0962,5.7863 0,1.1166 1.0668,4.0515 2.3708,6.5222 1.3039,2.4706 2.7072,5.617 3.1183,6.992 0.4111,1.375 1.3424,3.1808 2.0696,4.0129 0.7272,0.8321 1.8658,3.7571 2.5302,6.5 0.6644,2.7429 1.7688,6.3371 2.4541,7.9871 0.6853,1.65 1.547,4.4297 1.9149,6.1771 0.3679,1.7474 1.8233,4.3314 3.2343,5.7424 1.9,1.9 2.2894,2.8977 1.5016,3.8469 -1.4988,1.8059 -0.7812,8.427 1.1437,10.5541 0.8872,0.9803 1.5668,3.1093 1.5101,4.731 -0.1665,4.7694 1.1722,16.3705 2.2016,19.0779 0.5229,1.3754 0.9508,3.5484 0.9508,4.8287 0,1.2804 0.706,2.5989 1.5689,2.93 0.994,0.3814 1.3522,1.285 0.9774,2.4658 -0.34,1.0715 0.046,2.3925 0.9073,3.1076 1.0734,0.8909 1.4511,2.9884 1.3308,7.3912 -0.1194,4.373 0.428,7.4461 1.8965,10.6473 1.1353,2.475 2.5923,7.65 3.2376,11.5 0.6453,3.85 1.8012,9.25 2.5686,12 2.3977,8.5914 3.5129,15.4345 3.5129,21.5561 0,5.9957 2.0863,13.0161 4.8138,16.198 1.2104,1.4121 1.2775,2.25 0.3442,4.2984 -0.9045,1.9852 -0.8649,3.1381 0.1802,5.2459 1.4159,2.8556 1.5624,13.4706 0.2271,16.4593 -0.4881,1.0928 -0.2008,2.6496 0.7595,4.1153 0.976,1.4895 1.1948,2.7074 0.5943,3.3078 -0.6004,0.6005 -0.5861,3.6875 0.039,8.3848 0.8088,6.0781 1.7335,18.1944 2.3228,30.4344 0.053,1.1 0.5079,2.2803 1.011,2.6228 0.5385,0.3667 0.4599,1.4726 -0.1911,2.689 -0.8034,1.5011 -0.8078,3.4557 -0.016,7.1467 0.7572,3.5306 0.7838,7.1339 0.087,11.811 -0.5512,3.7018 -1.0484,9.318 -1.1049,12.4805 -0.056,3.1625 -0.145,6.7625 -0.1966,8 -0.052,1.2375 0.079,7.5744 0.2897,14.082 0.211,6.5075 0,12.0708 -0.4754,12.3628 -0.4724,0.292 -0.6347,1.3885 -0.3606,2.4366 0.274,1.0481 0.066,4.4848 -0.4616,7.6371 -0.528,3.1523 -1.0971,6.6315 -1.2647,7.7315 -0.1676,1.1 -0.7935,3.8 -1.3908,6 -0.5973,2.2 -1.08,5.125 -1.0726,6.5 0.1264,23.4806 -1.9389,34 -6.6752,34 -3.1117,0 -5.5545,4.9285 -5.9476,12 -0.1682,3.025 -0.8021,6.7668 -1.4087,8.3151 -0.6066,1.5483 -1.103,3.8411 -1.103,5.095 0,2.6002 -2.8499,5.5899 -5.3287,5.5899 -0.9192,0 -1.6713,0.5837 -1.6713,1.2971 0,1.7277 -6.8009,8.0366 -10.2241,9.4844 -1.4982,0.6336 -7.3482,1.4352 -13,1.7813 -9.148,0.5603 -10.7927,0.3962 -14.9844,-1.4952 -2.5898,-1.1685 -4.9788,-2.5617 -5.3091,-3.0961 -0.3302,-0.5343 -1.506,-0.9715 -2.6128,-0.9715 -2.2666,0 -4.1233,-1.6212 -7.4196,-6.4786 -1.2443,-1.8336 -2.9939,-4.1636 -3.8878,-5.1776 -6.3481,-7.2007 -16.0363,-20.2564 -20.6194,-27.7859 -2.9935,-4.9182 -6.8421,-10.3182 -8.5523,-12 -1.7103,-1.6819 -3.6614,-4.7568 -4.3359,-6.8333 -0.6746,-2.0765 -2.2428,-5.0015 -3.4851,-6.5 -1.2422,-1.4985 -3.0922,-4.9746 -4.111,-7.7246 -1.0188,-2.75 -2.4387,-5.3599 -3.1554,-5.7997 -0.7167,-0.4398 -1.3031,-1.3895 -1.3031,-2.1104 0,-0.721 -1.1812,-3.0515 -2.625,-5.179 -1.4438,-2.1275 -3.1983,-5.4931 -3.899,-7.4791 -0.7007,-1.9859 -2.43,-4.8582 -3.843,-6.3828 -1.4129,-1.5246 -2.8473,-3.7343 -3.1875,-4.9105 -0.3402,-1.1762 -1.9296,-5.6115 -3.532,-9.8562 -1.6024,-4.2448 -2.9135,-8.6367 -2.9135,-9.7598 0,-1.1232 -0.9,-2.8127 -2,-3.7545 -1.1,-0.9419 -2,-2.2393 -2,-2.8833 0,-0.6439 -0.6593,-1.4237 -1.4652,-1.733 -0.8059,-0.3093 -3.0892,-3.9843 -5.0739,-8.1667 -1.9848,-4.1825 -4.2504,-7.8508 -5.0348,-8.1517 -0.7843,-0.301 -1.4261,-1.1741 -1.4261,-1.9403 0,-0.7661 -0.3876,-1.393 -0.8613,-1.393 -0.4737,0 -0.6563,-1.0723 -0.4058,-2.3828 0.2505,-1.3105 -0.037,-2.6871 -0.6387,-3.059 -0.6017,-0.3719 -1.0941,-2.1981 -1.0941,-4.0582 0,-1.8601 -0.45,-3.6601 -1,-4 -0.55,-0.3399 -1,-1.518 -1,-2.618 0,-1.1 -0.45,-1.7219 -1,-1.382 -0.55,0.3399 -1.037,0.029 -1.0822,-0.691 -0.1999,-3.1812 -1.1092,-7.3434 -1.81,-8.2841 -1.4573,-1.9565 -3.9398,-10.0519 -4.6073,-15.0249 -0.3691,-2.75 -1.4858,-5.9 -2.4815,-7 -0.9957,-1.1 -2.6159,-4.5922 -3.6006,-7.7605 l -1.7902,-5.7604 -1.3141,3.1252 c -0.7228,1.7189 -1.3141,3.9513 -1.3141,4.9608 0,1.0095 -0.7445,2.2522 -1.6545,2.7614 -0.91,0.5093 -1.41,1.563 -1.1112,2.3416 0.2988,0.7786 -0.026,2.1942 -0.7218,3.1458 -0.9025,1.2342 -1.149,4.8803 -0.8602,12.7219 0.3993,10.8389 0.3717,11.0046 -1.9873,11.9015 -3.1797,1.2089 -3.536,2.4131 -4.2493,14.3624 -0.3724,6.2368 -1.1743,11.0915 -2.0639,12.4938 -1.2587,1.9841 -1.2644,2.6753 -0.043,5.1241 1.0621,2.129 1.1894,4.0394 0.5137,7.7065 -0.4942,2.6818 -1.3145,9.6009 -1.8229,15.3759 -0.5085,5.775 -1.3806,14.1 -1.9381,18.5 -0.5576,4.4 -1.2889,12.05 -1.6253,17 -0.4641,6.8285 -1.282,10.4477 -3.39,15 -1.5282,3.3 -3.1179,8.25 -3.5328,11 -1.6019,10.6189 -2.4137,15.1604 -3.4854,19.5 -0.6113,2.475 -1.7998,10.8 -2.6412,18.5 -0.8414,7.7 -1.9477,15.3819 -2.4584,17.071 -0.5107,1.689 -0.9286,4.4977 -0.9286,6.2415 0,2.0875 -0.6832,3.5972 -2,4.4196 -2.3824,1.4878 -2.5545,3.4977 -0.4945,5.774 1.2277,1.3566 1.2951,2.2675 0.3651,4.9351 -1.3119,3.7634 -0.4422,18.1223 1.2942,21.3667 0.6164,1.1518 1.23,8.8649 1.4017,17.6203 0.1679,8.5645 0.6294,18.9468 1.0254,23.0718 0.3961,4.125 0.6463,12.1998 0.5561,17.9441 -0.1397,8.8919 -0.4582,10.7572 -2.1433,12.5509 -1.6685,1.7761 -1.8243,2.6473 -0.992,5.5493 0.543,1.8934 0.9873,6.4564 0.9873,10.1401 0,3.6837 0.437,6.9677 0.9712,7.2978 0.5868,0.3627 0.7775,5.4331 0.4818,12.809 -0.5646,14.0851 -1.6118,22.8022 -3.7282,31.035 -0.8237,3.2045 -1.2707,6.6944 -0.9932,7.7554 0.2774,1.061 0.05,2.4892 -0.5052,3.1737 -0.5553,0.6846 -1.5463,3.8608 -2.2021,7.0584 -0.7656,3.732 -1.789,6.0333 -2.8584,6.427 -2.3535,0.8666 -3.133,2.3039 -3.1506,5.8093 -0.01,1.6775 -0.4078,3.4775 -0.8875,4 -1.1309,1.2317 -3.8484,13.3352 -4.6477,20.7 -0.3432,3.1625 -1.0416,5.75 -1.5521,5.75 -0.5104,0 -0.928,3.3973 -0.928,7.5497 0,4.3833 -0.5713,8.6822 -1.3623,10.25 -1.4239,2.8227 -1.6708,4.2204 -4.1666,23.5928 -1.1355,8.8138 -1.2576,12.7244 -0.4716,15.106 0.701,2.1241 0.733,4.0749 0.094,5.7546 -0.5314,1.3977 -0.7162,2.7912 -0.4107,3.0968 0.3056,0.3055 0.5098,6.3909 0.4539,13.523 -0.075,9.6184 0.2971,13.9221 1.4428,16.664 0.8495,2.0331 1.2275,4.4315 0.84,5.3298 -0.9967,2.3107 -1.2865,15.1333 -0.342,15.1333 0.4306,0 0.978,-1.0125 1.2164,-2.25 0.2383,-1.2375 0.4946,1.2 0.5695,5.4167 0.075,4.2166 0.5486,7.8166 1.0526,8 0.5076,0.1846 0.2816,2.1176 -0.5066,4.3333 -0.9714,2.7304 -1.3886,7.9906 -1.3146,16.5726 l 0.1086,12.5725 -4.1525,5.5526 c -3.5794,4.7864 -4.711,5.6274 -8.2001,6.0954 -2.2263,0.2986 -5.016,1.4369 -6.1995,2.5295 -1.1834,1.0926 -4.2633,3.1545 -6.8441,4.582 -5.5957,3.095 -13.4824,3.4601 -22.5088,1.0419 -3.1893,-0.8544 -8.9488,-2.1726 -12.7988,-2.9294 -13.4103,-2.636 -14.5039,-3.111 -19.42696,-8.4381 -2.58162,-2.7934 -5.25906,-5.079 -5.94986,-5.079 -0.78024,0 -1.13615,-1.0417 -0.93959,-2.75 0.26208,-2.2778 0.86308,-2.803 3.49979,-3.0584 2.59322,-0.2512 3.3014,-0.8458 3.82004,-3.2071 0.35017,-1.5943 1.57558,-4.8306 2.72318,-7.1916 1.1476,-2.3611 2.0842,-4.9679 2.0812,-5.7929 0,-0.825 0.2907,-1.725 0.6524,-2 1.0827,-0.8231 9.0398,-17.2195 9.0398,-18.6274 0,-0.7162 0.8185,-1.7403 1.8189,-2.2757 1.7313,-0.9265 5.1811,-10.8355 5.1811,-14.8818 0,-0.9983 0.5625,-2.3776 1.25,-3.0651 0.6875,-0.6875 1.35,-2.465 1.4722,-3.95 0.1221,-1.485 0.7711,-7.2 1.4421,-12.7 1.4207,-11.6453 1.5423,-19.0744 0.5449,-33.3035 -0.5223,-7.4503 -0.3832,-10.9117 0.5024,-12.5 1.3655,-2.4492 2.0274,-16.7831 1.9162,-41.4972 -0.062,-13.8352 -0.4073,-17.3895 -2.2816,-23.5 -1.2146,-3.9596 -2.1071,-7.7618 -1.9834,-8.4493 0.1237,-0.6875 -0.2379,-1.25 -0.8036,-1.25 -0.6597,0 -0.8044,-2.144 -0.4036,-5.9786 0.4359,-4.1711 0.2407,-6.4414 -0.6458,-7.5096 -0.8121,-0.9786 -1.0685,-3.0376 -0.7105,-5.7069 0.3581,-2.6695 0.047,-5.1685 -0.8625,-6.9271 -0.7824,-1.5131 -1.1825,-3.377 -0.8889,-4.142 0.2936,-0.765 0.083,-2.5776 -0.4689,-4.0279 -0.6877,-1.8089 -0.6702,-2.8425 0.056,-3.2911 0.6222,-0.3845 0.9398,-3.3865 0.7708,-7.2854 -0.3089,-7.1279 0.7748,-14.1314 2.1867,-14.1314 0.4783,0 0.6013,-1.9579 0.2733,-4.3509 -0.328,-2.3931 -0.084,-7.4556 0.5415,-11.25 0.6259,-3.7945 1.1928,-8.9241 1.2598,-11.3991 0.067,-2.475 0.9166,-6.0905 1.8879,-8.0345 1.2107,-2.4229 1.4744,-4.0557 0.8385,-5.192 -0.5776,-1.0321 -0.5435,-3.3713 0.09,-6.1994 0.8142,-3.6331 0.6901,-5.3955 -0.6205,-8.808 -0.9225,-2.4018 -1.5551,-6.6018 -1.4477,-9.6109 0.1137,-3.1871 -0.3731,-6.2148 -1.2058,-7.5 -0.7834,-1.2091 -1.6874,-6.3256 -2.0591,-11.6552 -0.3645,-5.225 -1.1099,-9.65 -1.6565,-9.8333 -0.5466,-0.1834 -0.9938,-1.6239 -0.9938,-3.2012 0,-1.5774 -0.7174,-5.4774 -1.5942,-8.6667 -4,-14.5497 -4.5158,-18.3375 -4.8485,-35.6084 -0.1888,-9.7953 -0.6164,-18.0828 -0.9502,-18.4167 -0.3339,-0.3339 -0.6605,-1.9945 -0.7259,-3.6904 -0.087,-2.2599 -0.3729,-1.6912 -1.0703,2.1297 -0.6127,3.3564 -0.6038,5.8346 0.025,6.9583 0.71,1.2687 0.5617,2.0486 -0.543,2.8564 -1.9382,1.4172 -2.1031,14.3536 -0.1981,15.5309 0.9353,0.5781 1.2372,6.6668 1.22,24.6048 -0.024,25.1418 -0.6859,34.3025 -2.9394,40.6897 -0.7565,2.1441 -1.3755,4.9668 -1.3755,6.2726 0,1.3059 -0.45,2.3743 -1,2.3743 -0.55,0 -1,1.035 -1,2.3 0,1.265 -0.5035,2.8036 -1.119,3.419 -1.1673,1.1673 -1.2693,5.3163 -0.3389,13.781 0.6232,5.669 0.705,7.9295 0.4162,11.5 -0.3486,4.3101 0.9508,14.7074 2.3431,18.7488 0.7343,2.1311 1.4483,6.7719 1.5868,10.313 0.1384,3.541 0.6564,9.5882 1.1509,13.4382 0.4946,3.85 0.9131,9.76 0.9301,13.1334 0.027,5.4239 -0.2147,6.1975 -2.092,6.6885 -1.8445,0.4823 -2.0337,1.0302 -1.443,4.1789 0.3831,2.0423 0.1725,5.161 -0.4826,7.1461 -0.6394,1.9372 -1.2812,4.7217 -1.4262,6.1877 -0.1451,1.466 -0.7337,6.7154 -1.3082,11.6654 -0.5744,4.95 -1.0894,9.9 -1.1443,11 -0.055,1.1 -0.55533,7.4 -1.11203,14 -2.37074,28.1065 -2.37582,27.303 0.17479,27.6708 1.76104,0.2539 2.47704,1.2436 3.13224,4.3292 0.4671,2.2 0.5841,5.575 0.2601,7.5 -1.0992,6.5286 -1.5437,45.4634 -0.5938,52 1.6295,11.2129 3.3342,18.2342 5.7907,23.852 1.85,4.2307 0.5262,15.3519 -2.1007,17.648 -1.2573,1.0989 -3.4804,8.0182 -4.3376,13.5 -0.301,1.925 -1.72608,4.9053 -3.1669,6.6229 -15.45817,18.4278 -15.06327,17.7809 -15.18456,24.8771 -0.0564,3.3 0.21026,7.9426 0.59259,10.3169 1.01557,6.3068 0.24203,6.9786 -19.00383,16.5044 -2.7218,1.3472 -14.41172,1.8235 -17.82205,0.7262 z M 595.0707,1072.3309 c -0.3275,-2.018 -1.1739,-4.043 -1.8809,-4.5 -0.9987,-0.6456 -1.0142,-1.0066 -0.07,-1.6189 0.9405,-0.6094 0.8587,-1.9122 -0.3607,-5.75 -0.8672,-2.7291 -1.5151,-6.3907 -1.4397,-8.1369 0.094,-2.1838 -0.5096,-3.6278 -1.9343,-4.6257 -1.739,-1.218 -1.8234,-1.546 -0.5263,-2.0437 1.2138,-0.4658 1.5197,-2.1541 1.4268,-7.8743 -0.065,-4.0048 -0.4313,-8.6314 -0.8137,-10.2814 -0.5989,-2.5838 -0.8808,-1.9594 -2.0315,4.5 -0.7349,4.125 -1.272,8.175 -1.1935,9 0.078,0.825 0.1536,3.075 0.1668,5 0.017,2.4155 0.716,4.04 2.2572,5.2426 1.5313,1.1951 1.8724,1.9807 1.0854,2.5 -0.6312,0.4166 -1.3012,1.9361 -1.4889,3.3767 -0.3442,2.6413 0.01,3.694 3.966,11.8807 1.1968,2.475 2.1748,5.0625 2.1733,5.75 0,0.6875 0.2811,1.25 0.628,1.25 0.347,0 0.3629,-1.6511 0.035,-3.6691 z m -6.8752,-53.5262 c 0.1244,-2.8575 -0.253,-7.8371 -0.8385,-11.0659 -0.5855,-3.2288 -1.4463,-9.2753 -1.913,-13.4366 -0.4667,-4.1613 -1.4071,-7.9113 -2.0898,-8.3332 -0.7478,-0.4622 -0.9518,-1.5029 -0.513,-2.6181 0.4005,-1.018 0.9544,-3.8759 1.2308,-6.3509 0.2765,-2.475 0.8893,-6.525 1.3618,-9 0.6695,-3.5063 0.5403,-4.7452 -0.5851,-5.6102 -0.7944,-0.6107 -1.4443,-1.8216 -1.4443,-2.691 0,-0.8694 -0.45,-1.8589 -1,-2.1988 -0.55,-0.3399 -1,-1.5056 -1,-2.5904 0,-1.0848 -0.6997,-2.2409 -1.5548,-2.569 -0.8709,-0.3342 -1.4386,-1.53 -1.2906,-2.7186 0.1504,-1.2086 -0.9021,-3.3686 -2.4452,-5.018 -2.8315,-3.0266 -3.4006,-5.0588 -1.7094,-6.104 1.777,-1.0983 1.0644,-3.1496 -1.5,-4.3181 -1.6288,-0.7421 -2.5,-1.9536 -2.5,-3.4765 0,-1.41443 -1.382,-3.56095 -3.5,-5.43607 -4.1569,-3.68028 -4.3374,-5.57265 -1,-10.48414 3.1432,-4.6256 3.1242,-5.33915 -0.3256,-12.26917 l -2.8256,-5.67606 -0.1127,11.12799 c -0.102,10.08045 -0.8093,14.6449 -3.1813,20.53205 -0.4432,1.1 -1.2708,3.1688 -1.8392,4.5972 -0.5684,1.4285 -1.3575,5.2535 -1.7535,8.5 -0.396,3.2466 -1.497,7.4778 -2.4467,9.4028 -1.2493,2.5324 -1.6917,5.7406 -1.6002,11.6051 0.1114,7.1403 0.4449,8.5228 2.8023,11.6133 1.4717,1.9296 2.9695,4.6784 3.3284,6.1085 0.359,1.4302 2.1836,4.7536 4.0547,7.3854 1.8712,2.6318 3.6881,6.3095 4.0376,8.1728 0.708,3.7736 5.4725,8.7438 9.3618,9.7659 3.746,0.9844 4.1217,2.1461 3.4279,10.599 l -0.6361,7.75 4.8867,0 4.8866,0 0.226,-5.1953 z M 419.59895,696.57944 c 0.9564,-1.14369 1.75388,-2.41811 1.77218,-2.83204 0.0183,-0.41393 1.83327,-2.3788 4.03327,-4.36636 2.42319,-2.18921 4,-4.50564 4,-5.87625 0,-1.99489 5.23295,-12.01098 7.92427,-15.16739 0.66931,-0.78497 0.56322,-1.51785 -0.32661,-2.25635 -0.72484,-0.60156 -1.12019,-2.12796 -0.87855,-3.392 0.24164,-1.26404 -0.006,-3.84868 -0.5497,-5.74365 -0.65749,-2.29044 -1.01927,-2.73637 -1.07922,-1.33026 -0.0496,1.16333 -0.90657,3.18833 -1.90436,4.5 -2.24115,2.94616 -5.18583,9.21811 -5.18583,11.04544 0,0.74708 -0.83028,1.87684 -1.84506,2.51058 -1.01478,0.63374 -2.88437,4.00449 -4.15465,7.49055 -1.27029,3.48606 -3.26159,7.46329 -4.42512,8.83829 -3.74287,4.42312 -6.48349,8.75834 -5.90348,9.33835 1.12021,1.12022 6.8226,-0.72569 8.52286,-2.75891 z M 549.0086,630.27083 c -0.3323,-0.33229 -0.5687,0.25834 -0.5252,1.3125 0.048,1.16495 0.2849,1.4019 0.6041,0.60417 0.2889,-0.72187 0.2534,-1.58438 -0.079,-1.91667 z"
     id="path2987"
     inkscape:connector-curvature="0" />
</svg>
