<?xml version="1.0" encoding="UTF-8" standalone="no"?>
<!-- Created with Inkscape (http://www.inkscape.org/) -->

<svg
   xmlns:dc="http://purl.org/dc/elements/1.1/"
   xmlns:cc="http://creativecommons.org/ns#"
   xmlns:rdf="http://www.w3.org/1999/02/22-rdf-syntax-ns#"
   xmlns:svg="http://www.w3.org/2000/svg"
   xmlns="http://www.w3.org/2000/svg"
   xmlns:sodipodi="http://sodipodi.sourceforge.net/DTD/sodipodi-0.dtd"
   xmlns:inkscape="http://www.inkscape.org/namespaces/inkscape"
   id="svg2"
   version="1.1"
   inkscape:version="0.48.2 r9819"
   width="525.7608"
   height="1061.5061"
   sodipodi:docname="siebenschattensp00bernrich_0161f.png">
  <metadata
     id="metadata8">
    <rdf:RDF>
      <cc:Work
         rdf:about="">
        <dc:format>image/svg+xml</dc:format>
        <dc:type
           rdf:resource="http://purl.org/dc/dcmitype/StillImage" />
        <dc:title></dc:title>
      </cc:Work>
    </rdf:RDF>
  </metadata>
  <defs
     id="defs6" />
  <sodipodi:namedview
     pagecolor="#ffffff"
     bordercolor="#666666"
     borderopacity="1"
     objecttolerance="10"
     gridtolerance="10"
     guidetolerance="10"
     inkscape:pageopacity="0"
     inkscape:pageshadow="2"
     inkscape:window-width="1600"
     inkscape:window-height="876"
     id="namedview4"
     showgrid="false"
     fit-margin-top="0"
     fit-margin-left="0"
     fit-margin-right="0"
     fit-margin-bottom="0"
     inkscape:zoom="1"
     inkscape:cx="257.76858"
     inkscape:cy="286.24767"
     inkscape:window-x="0"
     inkscape:window-y="24"
     inkscape:window-maximized="1"
     inkscape:current-layer="svg2" />
  <path
     style="fill:#000000"
     d="m 40.268585,1060.6058 c -3.85,-0.675 -7.675,-1.486 -8.5,-1.8023 -0.825,-0.3163 -3.525,-1.1193 -6,-1.7844 -7.18264,-1.9301 -12,-7.7582 -12,-14.5178 0,-1.9213 -0.79589,-3.9116 -2,-5.0013 -3.5157702,-3.1817 -2.3593102,-12.2602 2.61138,-20.5 1.16126,-1.925 2.77525,-4.85 3.58664,-6.5 1.82178,-3.7047 5.74868,-10.65268 6.7822,-12 0.84345,-1.09954 4.13775,-10.71248 5.8258,-17 1.34384,-5.00542 2.7491,-13.3821 4.19398,-25 1.2083,-9.71562 2.63121,-18.64097 3.9856,-25 0.46857,-2.2 1.41824,-6.7 2.11038,-10 0.69214,-3.3 2.97869,-9.66747 5.08123,-14.14994 l 3.82279,-8.14994 0.0197,-14.85006 c 0.0173,-13.05976 1.1098,-23.16513 3.49739,-32.35006 0.98446,-3.78715 2.57207,-6.9531 6.51905,-13 1.97451,-3.025 4.30164,-7.075 5.17141,-9 4.52596,-10.01702 5.86778,-13.11702 7.80498,-18.03173 1.16429,-2.95384 2.95669,-5.95882 3.9831,-6.67774 2.21002,-1.54796 5.0044,-6.82901 5.0044,-9.45774 0,-1.02296 0.39476,-2.64132 0.87724,-3.59636 1.45956,-2.88913 3.12273,-8.74684 3.12273,-10.99841 0,-1.16599 0.45,-2.3981 1,-2.73802 1.70137,-1.0515 1.21759,-15.23828 -0.61501,-18.03518 -2.7846,-4.24984 -7.09261,-3.38396 -12.10144,2.43231 -4.64043,5.38848 -4.28774,5.27959 -22.78355,7.03411 -12.10037,1.14785 -14.17056,1.80258 -16.77434,5.30516 -7.06362,9.5019 -12.64735,12.47314 -18.0414,9.60026 -3.29071,-1.75264 -4.26914,-3.55539 -5.73053,-10.55841 -0.7340602,-3.5176 -1.6989402,-6.62078 -2.1441902,-6.89596 -0.44525,-0.27518 -0.82366,-1.26127 -0.84092,-2.19131 -0.0173,-0.93004 -1.36726,-4.37952 -3,-7.66552 -1.63274,-3.286 -2.96862,-6.6835 -2.96862,-7.55 0,-0.8665 -0.4745,-2.04996 -1.05445003,-2.62991 -1.32934,-1.32934 -0.66533,-26.99179 0.86280003,-33.34555 2.69262,-11.1955 3.27601,-13.83994 4.19165,-19 0.53678,-3.025 1.43678,-7.525 2,-10 1.1351,-4.98803 2.5347102,-13.13315 3.9522002,-23 1.50321,-10.46354 3.61802,-20.86779 5.89466,-29 2.93722,-10.49179 3.98633,-15.35204 5.07259,-23.5 3.13288,-23.49952 5.65782,-31.30773 14.38999,-44.5 3.4585,-5.225 6.8826,-10.69608 7.6091,-12.15796 0.7265,-1.46188 5.08433,-7.70002 9.68408,-13.86254 4.59975,-6.16252 9.04588,-12.57307 9.88028,-14.24568 2.27269,-4.5557 1.94112,-8.40989 -0.88266,-10.2601 -1.31986,-0.86481 -3.65987,-3.46268 -5.20001,-5.77305 -3.4359,-5.1542 -3.64485,-11.41308 -0.67558,-20.2358 1.1041,-3.28068 2.57024,-7.98987 3.25807,-10.46487 0.68783,-2.475 1.64811,-5.80465 2.13394,-7.39922 0.48584,-1.59458 0.88371,-4.74458 0.88416,-7 4.5e-4,-2.25543 0.71603,-7.47578 1.59017,-11.60078 2.06222,-9.73138 1.46006,-15.04131 -3.3556,-29.59026 -2.16815,-6.55035 -4.51028,-13.93474 -5.20472,-16.40974 -0.69444,-2.475 -1.61227,-5.625 -2.03961,-7 -2.069,-6.65709 -4.99106,-25.79751 -4.99106,-32.693 0,-4.58704 1.77215,-14.31004 3.803,-20.86542 1.48331,-4.78797 3.90786,-9.06665 12.15001,-21.44158 4.21268,-6.325 8.19663,-12.75867 8.85321,-14.29705 1.70351,-3.99135 1.4746,-15.6095 -0.44142,-22.40416 -0.89935,-3.18933 -1.94144,-9.17379 -2.31574,-13.29879 -0.3743,-4.125 -1.1692,-8.4 -1.76645,-9.5 -1.41791,-2.61147 -22.73882,-23.6386 -25.42839,-25.07802 -1.14048,-0.61037 -2.85622,-3.31751 -3.81276,-6.01587 -0.95654,-2.69836 -2.75843,-7.15611 -4.0042,-9.90611 -1.24577,-2.75 -3.17855,-7.025 -4.29507,-9.5 -10.25325,-22.72854 -2.35309,-68.36025 13.50473,-78.00397 3.78555,-2.30213 6.87802,-1.14433 9.69473,3.62965 1.19848,2.03127 3.03542,3.55181 4.75557,3.93644 3.75654,0.84 12.855,5.17989 14.06908,6.71085 2.60234,3.28156 3.4959,8.97753 2.26865,14.46146 -0.93491,4.17762 -0.95112,6.98583 -0.0698,12.1027 2.46873,14.33412 4.92154,25.44645 6.87853,31.16287 0.84731,2.475 1.56661,7.80205 1.59846,11.83789 0.0485,6.14627 0.39059,7.60781 2.10654,9 1.12675,0.91416 2.36224,2.48117 2.74553,3.48225 1.04453,2.72806 5.06815,1.79608 5.69941,-1.32014 0.74244,-3.66505 3.83791,-8.36379 6.331035,-9.61013 17.17447,-8.58574 22.03688,-11.84856 31.38704,-21.06165 11.22132,-11.05681 26.72828,-20.24127 43.78835,-25.93492 7.27352,-2.42748 9.67998,-2.70357 26.5,-3.04026 10.175,-0.20367 19.53295,-0.36643 20.79545,-0.36168 1.2625,0.005 3.44633,-1.14223 4.85296,-2.54886 2.39872,-2.39872 2.45466,-2.67112 0.90113,-4.38775 -1.42753,-1.57741 -4.03205,-1.93054 -18.85295,-2.5561 -9.45812,-0.39921 -17.9435,-1.11883 -18.85639,-1.59915 -1.05989,-0.55767 -1.46504,-1.61812 -1.12094,-2.93396 0.61003,-2.33293 6.21618,-6.96554 8.4293,-6.96554 5.47922,0 17.76514,-12.73926 17.84166,-18.5 0.0864,-6.50635 5.06321,-15.99682 10.33023,-19.69919 4.42685,-3.11179 5.08479,-3.8626 6.57172,-7.49931 0.83331,-2.03809 1.09305,-5.121851 0.71596,-8.499997 -1.35453,-12.134353 -1.77969,-37.500312 -0.72365,-43.174478 1.40569,-7.552919 3.31528,-9.162398 18.61547,-15.68988 4.08245,-1.741684 17.22061,-5.788559 24,-7.392586 13.58331,-3.213855 15.49533,-4.012341 23.18947,-9.684228 C 310.64839,12.348317 317.94748,10 331.10614,10 c 9.32569,0 10.16251,0.182963 17.97179,3.929354 4.50486,2.161145 11.11565,4.898764 14.69065,6.083597 3.575,1.184833 8.525,3.121219 11,4.303081 8.17539,3.903912 24.15919,2.518893 37.5,-3.249428 1.1,-0.47562 3.575,-1.405591 5.5,-2.066604 1.925,-0.661013 4.4,-1.561013 5.5,-2 5.0312,-2.007849 8.49827,-2.92677 15,-3.975643 15.66359,-2.526882 19.55075,-4.221709 22.12506,-9.646649 C 461.85025,0.308114 462.39118,0 466.3235,0 c 2.37988,0 4.60516,0.45 4.94508,1 0.33992,0.55 1.42234,1 2.40538,1 3.07542,0 7.93002,2.976964 11.07351,6.790553 2.64405,3.207696 3.02111,4.440585 3.02111,9.878274 0,3.417226 -0.45,6.491254 -1,6.831173 -0.55,0.339919 -1,1.291168 -1,2.113886 0,6.905243 -38.76234,44.651066 -55.0788,53.634393 -8.61205,4.741522 -9.42496,5.255057 -12.1712,7.688812 -4.40621,3.904851 -3.73636,7.307096 3.13756,15.935919 3.23043,4.05515 6.40637,9.00515 7.05763,11 1.07266,3.28557 0.89564,4.26032 -1.88053,10.35503 -2.69309,5.91232 -3.06466,7.81762 -3.06466,15.71482 0,7.96332 -0.22777,9.10867 -2,10.05714 -1.31003,0.70111 -2,2.09382 -2,4.03704 0,2.29615 -1.47451,4.49189 -6.52384,9.71482 -3.5881,3.71148 -6.77468,7.87314 -7.08128,9.24814 -1.12473,5.0441 -2.57938,7.74827 -6.13998,11.41409 -3.54204,3.6467 -3.79212,3.73322 -9.19797,3.18223 -3.05631,-0.31151 -11.55564,-0.8513 -18.88739,-1.19953 l -13.33046,-0.63315 -3.52015,3.36818 c -1.93609,1.8525 -5.26705,5.91947 -7.40215,9.0377 -4.69022,6.8499 -8.0594,9.3859 -14.52226,10.93099 -8.09881,1.9362 -13.34832,4.97198 -16.48758,9.53474 -1.59882,2.32381 -2.90694,4.73794 -2.90694,5.36475 0,0.62681 1.35,3.10181 3,5.5 3.54639,5.1545 3.96002,11.5743 1.48191,23.00037 -3.18868,14.70236 -4.45357,23.49159 -5.46867,37.99963 -1.66554,23.80442 -2.97186,31.2541 -8.41693,48 -1.43069,4.4 -3.52326,10.925 -4.65014,14.5 -2.27113,7.2051 -3.41232,10.05572 -5.80479,14.5 -0.88823,1.65 -1.91639,6.6 -2.28479,11 -0.3684,4.4 -0.94936,8.9 -1.29101,10 -0.7815,2.5161 4.71094,8.71486 6.95786,7.85263 0.8206,-0.31489 2.72603,0.25666 4.23428,1.27011 1.50825,1.01345 3.80622,2.41293 5.10659,3.10995 4.31916,2.31515 20.90888,1.17952 28.13569,-1.92598 C 341.45439,397.93368 348.39455,396 352.02029,396 c 1.38582,0 3.80861,-0.6692 5.38398,-1.4871 1.57537,-0.81791 3.65475,-1.23665 4.62085,-0.93054 2.64717,0.83876 12.90412,-3.85111 24.06057,-11.00142 4.49715,-2.88228 6.2557,-4.75145 7.75,-8.2375 1.06309,-2.48009 1.93289,-5.34539 1.93289,-6.36733 0,-1.02194 0.45,-2.13619 1,-2.47611 0.55,-0.33992 1,-1.38895 1,-2.33117 0,-3.41267 5.51163,-8.60631 10.61981,-10.0071 2.68411,-0.73605 6.18484,-1.74855 7.77941,-2.25 1.59458,-0.50145 6.66318,-0.91173 11.26357,-0.91173 4.60039,0 9.14574,-0.39476 10.10078,-0.87724 C 440.85533,347.44388 446.4309,346 449.59069,346 c 2.36009,0 4.1468,0.98166 6.929,3.80696 2.06189,2.09382 5.09889,4.31256 6.74889,4.93053 3.95937,1.48288 15.08587,3.26251 20.39765,3.26251 4.14486,0 7.98459,1.35367 9.22464,3.25208 1.93951,2.96923 -8.54543,13.89559 -15.26659,15.9093 -2.12064,0.63536 -3.8557,1.44397 -3.8557,1.79691 0,1.50343 2.59993,3.04171 5.14098,3.04171 1.50754,0 2.97157,0.3731 3.2534,0.82911 0.28183,0.456 3.12089,1.39497 6.30902,2.08658 3.18813,0.69162 8.22893,1.79112 11.2018,2.44333 6.7014,1.47025 8.6495,3.90032 5.3189,6.63491 -3.6175,2.97009 -15.48785,4.0107 -32.2241,2.8249 l -4.5,-0.31883 -0.31822,3.88178 c -0.17502,2.13498 0.16248,4.36248 0.75,4.95 0.58752,0.58752 1.06822,1.8436 1.06822,2.7913 0,2.64314 5.30316,7.35157 9.79641,8.69778 6.93984,2.07922 9.19611,3.73935 21.22319,15.61574 10.9462,10.80892 11.967,11.5634 15.6459,11.5634 5.4378,0 9.317,1.96448 9.3267,4.72316 0.018,4.99909 -7.9262,15.26493 -23.9689,30.97558 -6.50306,6.3684 -9.12251,8.30126 -11.25004,8.30126 -1.9688,0 -2.77763,-0.50764 -2.78832,-1.75 -0.0176,-2.04584 -2.30296,-8.90135 -3.2996,-9.898 -0.37694,-0.37693 -0.68534,-1.34313 -0.68534,-2.14709 0,-1.61115 -3.97764,-6.62897 -11.23901,-14.17813 -4.22234,-4.38968 -6.1762,-7.17697 -9.5613,-13.63977 -0.54361,-1.03786 -1.48048,-5.12614 -2.08195,-9.08507 -0.60146,-3.95893 -1.95669,-8.73478 -3.01162,-10.61299 -4.64088,-8.2627 -4.46296,-8.0169 -12.5291,-17.31015 -1.96736,-2.26666 -3.57702,-4.61761 -3.57702,-5.22432 0,-1.34939 -5.2178,-4.15448 -7.72783,-4.15448 -3.64545,0 -6.27217,2.88067 -6.27217,6.87857 0,10.10899 -7.20524,19.12143 -15.28714,19.12143 -8.2355,0 -19.41979,5.1207 -25.96286,11.88702 -2.6125,2.70164 -4.75,5.63228 -4.75,6.51253 0,0.92093 -0.82918,1.60045 -1.95295,1.60045 -1.07412,0 -2.98662,0.40314 -4.25,0.89586 -1.26338,0.49272 -4.32205,1.44491 -6.79705,2.11598 -2.475,0.67106 -5.625,1.56573 -7,1.98816 -1.375,0.42243 -4.525,1.32293 -7,2.00113 -5.32426,1.45894 -15.08054,5.02798 -16.5,6.03603 -1.81374,1.28804 -12.90079,4.78925 -18.5,5.84215 C 305.35196,467.59029 301.72739,468 292.16082,468 c -5.77078,0 -10.5451,-0.43832 -10.89224,-1 -1.20125,-1.94367 -4.46792,-0.96241 -6.65812,2 -1.2199,1.65 -2.99167,3 -3.93727,3 -0.9456,0 -3.83652,2.35489 -6.42427,5.23309 -8.70095,9.67755 -9.68667,11.64662 -15.60177,31.16613 -1.44761,4.77702 -0.95915,11.8264 1.13999,16.45238 2.40493,5.29986 4.48632,7.8392 16.94189,20.66942 5.35062,5.51156 10.56266,11.77909 11.5823,13.92783 1.01965,2.14874 5.08345,7.08928 9.03067,10.97898 6.30508,6.21318 7.24518,7.61867 7.73997,11.57157 0.44054,3.51948 1.36422,5.23348 4.24115,7.86999 3.30009,3.0243 4.11118,3.31121 7.89474,2.79262 3.97409,-0.54471 4.46633,-0.3237 8.55299,3.8403 l 4.33621,4.41828 -1.35114,5.7897 c -0.74313,3.18434 -2.16929,6.8629 -3.16924,8.17457 -2.03351,2.66741 -2.25429,5.02232 -0.8948,9.54414 0.50781,1.68905 1.43915,5.546 2.06964,8.571 0.63049,3.025 1.62522,6.625 2.2105,8 0.58528,1.375 1.40589,3.4 1.82357,4.5 1.23388,3.24956 9.82486,20.62716 12.60647,25.5 2.8786,5.04278 6.42556,9.92163 9.68489,13.3216 1.1999,1.25167 4.65663,4.96471 7.68163,8.25118 3.025,3.28648 8.76973,9.45505 12.76607,13.70793 9.51928,10.13036 11.69404,15.04801 13.14293,29.71929 0.62464,6.325 1.63753,16.07535 2.25087,21.66744 1.07428,9.79458 1.03535,10.26893 -1.06161,12.93477 -1.19722,1.52203 -3.50911,3.57756 -5.13752,4.56786 -1.62841,0.99029 -2.96074,2.47127 -2.96074,3.29106 0,0.81979 -0.89832,2.96391 -1.99626,4.7647 -1.09795,1.80079 -1.99795,3.85549 -2,4.56598 -0.002,0.7105 -0.88422,2.2369 -1.96036,3.392 -2.07451,2.22673 -5.98992,9.93688 -6.12198,12.05529 -0.0432,0.6935 -1.28074,3.21396 -2.75,5.60104 -2.15667,3.50388 -3.73114,4.73216 -8.1714,6.3747 -3.025,1.11902 -7.75,2.4082 -10.5,2.86487 -2.75,0.45666 -6.48025,1.12922 -8.28945,1.49458 -2.30938,0.46637 -3.79909,0.20505 -5,-0.87709 -0.9408,-0.84776 -3.06055,-1.87571 -4.71055,-2.28434 -1.65,-0.40863 -4.47619,-1.56869 -6.28042,-2.57791 C 310.18393,812.82573 307.44118,812 305.89315,812 c -1.54803,0 -3.62908,-0.9 -4.62457,-2 -2.64204,-2.91942 -9.83649,-2.78538 -11.9433,0.22251 -2.10072,2.9992 -1.95986,7.91397 0.37371,13.03839 1.06172,2.3315 2.95097,7.28755 4.19834,11.01343 1.24736,3.72588 2.96618,7.5738 3.81959,8.55092 3.0014,3.43648 4.05166,6.19074 4.05166,10.62534 0,8.5036 2.2929,25.06223 4.02252,29.04941 0.95435,2.2 2.27625,6.7 2.93756,10 0.6613,3.3 1.59289,7.8 2.0702,10 0.4773,2.2 1.30027,6.25 1.82881,9 2.39631,12.46798 3.43878,17.41009 4.85152,23 0.83402,3.3 1.89145,8.25 2.34985,11 0.4584,2.75 1.32799,7.25 1.93241,10 1.22968,5.59475 2.41816,11.34511 4.03025,19.5 0.59799,3.025 1.2375,11.95258 1.42114,19.83907 0.20347,8.73853 0.76778,14.77293 1.44481,15.45003 2.18164,2.1816 0.29482,27.3222 -2.46059,32.7856 -2.73435,5.4216 -11.77862,12.903 -19.18353,15.8685 -5.31596,2.129 -13.07751,0.908 -21.34681,-3.3579 -12.28071,-6.3354 -15.19672,-8.7929 -18.75731,-15.8078 -1.78421,-3.5152 -4.93745,-8.2439 -7.0072,-10.5081 -2.06975,-2.2643 -4.32798,-6.0637 -5.01828,-8.4431 -2.58679,-8.9165 -5.24573,-17.3918 -6.06322,-19.3263 -0.46484,-1.1 -2.0648,-4.7 -3.55546,-8 -3.61998,-8.01385 -4.99826,-11.93788 -6.49795,-18.5 -0.69133,-3.025 -2.04832,-7.075 -3.01555,-9 -0.96722,-1.925 -3.14499,-6.2 -4.83949,-9.5 -1.6945,-3.3 -3.09504,-7.21633 -3.1123,-8.70295 -0.0307,-2.64223 -0.5205,-4.13373 -4.03844,-12.29705 -0.94808,-2.2 -2.29189,-5.8 -2.98625,-8 -0.69436,-2.2 -1.65492,-5.03367 -2.13458,-6.29705 -0.47966,-1.26338 -0.87211,-3.11587 -0.87211,-4.11665 0,-1.97498 -3.01693,-10.09038 -6.23923,-16.78325 -1.11135,-2.30833 -4.21217,-6.78885 -6.8907,-9.95672 l -4.87007,-5.75977 0,-9.27893 c 0,-5.10341 -0.49562,-11.42289 -1.10137,-14.04328 -1.49045,-6.4474 -2.97204,-12.2483 -3.89863,-15.26435 -0.42243,-1.375 -1.36733,-4.525 -2.0998,-7 -0.73246,-2.475 -2.58465,-6.9082 -4.11597,-9.85155 -1.53133,-2.94335 -2.79424,-6.09335 -2.80647,-7 -0.0403,-2.98677 -3.43717,-6.36054 -6.03208,-5.99105 -3.74632,0.53344 -9.80546,10.99311 -9.88434,17.06296 -0.0367,2.82752 -1.10711,7.03798 -2.66926,10.5 -1.43436,3.1788 -3.182,7.12964 -3.88365,8.77964 -0.70164,1.65 -2.22807,5.1326 -3.39207,7.7391 -1.164,2.60651 -2.11636,4.95567 -2.11636,5.22037 0,0.53329 -3.78785,9.06249 -7.78981,17.54053 -1.42791,3.025 -4.66162,8.65 -7.18601,12.5 -4.11974,6.28309 -7.87638,13.38348 -10.05242,19 -0.42618,1.1 -2.61918,5.89355 -4.87332,10.65233 -2.25414,4.75878 -4.09844,10.03259 -4.09844,11.71958 0,2.82308 -1.71857,6.71655 -5.53696,12.54415 -1.85799,2.83566 -4.28092,11.16456 -5.54024,19.04476 -0.60997,3.8169 -1.78089,6.87409 -3.25555,8.5 -3.18407,3.51065 -5.66725,7.6737 -5.66725,9.50112 0,1.78799 6.37619,9.11044 9.41375,10.8108 1.14744,0.6423 7.71125,1.47962 14.58625,1.86069 16.47827,0.91337 25.11838,2.15787 32.91516,4.74107 4.96251,1.6442 8.87983,2.1255 17.29966,2.1255 11.80232,0 14.35951,0.7642 18.94283,5.6607 4.03239,4.308 5.35574,9.9496 3.41345,14.5521 -2.06125,4.8843 -7.00947,10.4342 -10.92806,12.2567 -1.72867,0.804 -6.29304,1.9427 -10.14304,2.5305 -3.85,0.5878 -8.35,1.6913 -10,2.4523 -1.65,0.761 -6.825,1.6838 -11.5,2.0506 -4.675,0.3668 -9.85,1.2682 -11.5,2.0029 -1.65,0.7348 -6.375,1.6162 -10.5,1.9587 -7.5797,0.6292 -11.01586,1.3747 -21,4.5557 -15.275355,4.8669 -28.383385,6.6969 -52.999995,7.3992 -8.90866,0.2542 -17.19927,-0.06 -21.5,-0.8136 z m 255.805685,-44.0386 c 1.42588,-1.0811 1.7414,-2.4943 1.5,-6.7182 -0.29773,-5.2098 -0.38881,-5.357 -3.49942,-5.6582 -2.68657,-0.26 -3.44085,0.1688 -4.75,2.7004 -2.13014,4.1192 -1.95292,6.6614 0.63229,9.0698 2.54761,2.3735 3.64322,2.4821 6.11713,0.6062 z m -0.4804,-31.87946 c 4.5556,-9.19104 4.99746,-15.4178 2.78714,-39.27664 -0.80632,-8.70373 -1.93727,-15.35589 -2.95882,-17.40364 -0.90949,-1.8231 -1.65361,-4.1517 -1.65361,-5.17467 0,-1.02296 -0.43185,-2.64132 -0.95966,-3.59636 -5.07908,-9.19014 -9.04034,-20.29293 -9.04034,-25.3386 0,-2.09205 -0.5056,-5.0624 -1.12357,-6.60078 -3.17269,-7.89825 -6.73182,-13.82683 -9.85427,-16.41467 C 269.53794,868.18652 268.74204,868 260.49108,868 c -15.53327,0 -17.26976,2.1765 -17.12172,21.46011 0.0554,7.22006 0.63142,15.58269 1.27999,18.58363 0.64856,3.00094 1.66388,7.93126 2.25625,10.95626 0.59238,3.025 1.42669,6.625 1.85404,8 0.42734,1.375 1.33945,4.525 2.02691,7 0.68745,2.475 2.02937,6.975 2.98203,10 0.95266,3.025 2.30322,7.525 3.00124,10 2.84549,10.08944 3.32228,11.60023 4.3869,13.9006 1.48421,3.20697 18.07869,20.68641 23.11186,24.34439 l 4,2.90709 2.62481,-3.1383 c 1.44364,-1.72607 3.55886,-5.02279 4.70048,-7.32604 z M 238.6379,824.61826 C 239.62139,823.72822 241.62813,823 243.09732,823 c 1.46919,0 3.62833,-0.95707 4.79807,-2.12681 1.80929,-1.80929 2.04508,-2.91884 1.5793,-7.43177 -0.61412,-5.95021 -1.11772,-7.20771 -10.88971,-27.19142 -3.83251,-7.8375 -7.38405,-14.25 -7.8923,-14.25 -0.50826,0 -0.9241,-0.62515 -0.9241,-1.38922 0,-0.76406 -0.84236,-2.42948 -1.8719,-3.70091 l -1.8719,-2.3117 -6.62702,4.31767 c -7.17445,4.67434 -11.88863,9.46336 -14.30646,14.5336 -1.43508,3.0094 -1.38963,3.50079 0.70607,7.6335 1.23193,2.42939 2.53079,4.64206 2.88636,4.91706 0.35556,0.275 2.79846,3.3948 5.42866,6.93288 5.25913,7.07447 7.65619,12.01067 7.65619,15.76617 0,1.40276 1.30615,3.76094 3.04775,5.50254 2.7192,2.71921 3.53207,2.99316 7.54058,2.54134 2.47106,-0.27852 5.2975,-1.23462 6.28099,-2.12467 z"
     id="path2987"
     inkscape:connector-curvature="0" />
</svg>
