<?xml version="1.0" encoding="UTF-8" standalone="no"?>
<!-- Created with Inkscape (http://www.inkscape.org/) -->

<svg
   xmlns:dc="http://purl.org/dc/elements/1.1/"
   xmlns:cc="http://creativecommons.org/ns#"
   xmlns:rdf="http://www.w3.org/1999/02/22-rdf-syntax-ns#"
   xmlns:svg="http://www.w3.org/2000/svg"
   xmlns="http://www.w3.org/2000/svg"
   xmlns:sodipodi="http://sodipodi.sourceforge.net/DTD/sodipodi-0.dtd"
   xmlns:inkscape="http://www.inkscape.org/namespaces/inkscape"
   id="svg2"
   version="1.1"
   inkscape:version="0.48.2 r9819"
   width="609.19598"
   height="972.28619"
   sodipodi:docname="hansimglckeink00grim_0013d.png">
  <metadata
     id="metadata8">
    <rdf:RDF>
      <cc:Work
         rdf:about="">
        <dc:format>image/svg+xml</dc:format>
        <dc:type
           rdf:resource="http://purl.org/dc/dcmitype/StillImage" />
        <dc:title></dc:title>
      </cc:Work>
    </rdf:RDF>
  </metadata>
  <defs
     id="defs6" />
  <sodipodi:namedview
     pagecolor="#ffffff"
     bordercolor="#666666"
     borderopacity="1"
     objecttolerance="10"
     gridtolerance="10"
     guidetolerance="10"
     inkscape:pageopacity="0"
     inkscape:pageshadow="2"
     inkscape:window-width="1600"
     inkscape:window-height="876"
     id="namedview4"
     showgrid="false"
     fit-margin-top="0"
     fit-margin-left="0"
     fit-margin-right="0"
     fit-margin-bottom="0"
     inkscape:zoom="0.70710678"
     inkscape:cx="296.79124"
     inkscape:cy="493.48331"
     inkscape:window-x="0"
     inkscape:window-y="24"
     inkscape:window-maximized="1"
     inkscape:current-layer="svg2" />
  <path
     style="fill:#000000"
     d="m 349.8476,971.17108 c -1.65,-0.565 -3.90002,-1.357 -5.00002,-1.76 -5.06755,-1.8568 -12.11188,-3.0001 -18.48393,-3.0001 -5.10163,0 -7.90422,-0.533 -10.51607,-2 -1.95846,-1.1 -4.44715,-2 -5.53042,-2 -1.08327,0 -1.96958,-0.45 -1.96958,-1 0,-0.55 -0.68111,-1 -1.51357,-1 -0.83246,0 -2.29496,-0.3975 -3.25,-0.8833 -0.95504,-0.4859 -3.08643,-1.48209 -4.73643,-2.21399 -1.65,-0.7318 -4.125,-2.0505 -5.5,-2.9303 -1.375,-0.8799 -4.525,-2.1774 -7,-2.8835 -2.475,-0.7061 -5.28139,-1.69 -6.23643,-2.1864 -0.95504,-0.4964 -2.3484,-0.9025 -3.09636,-0.9025 -2.3523,0 -7.78909,-3.14824 -8.39278,-4.85995 -0.31814,-0.90203 -1.14582,-2.31505 -1.83929,-3.14005 -1.91916,-2.28316 -4.77379,-12.92831 -4.85524,-18.1056 -0.0607,-3.85784 0.53579,-5.3863 3.67383,-9.41411 2.06045,-2.64468 3.74627,-5.12998 3.74627,-5.5229 0,-0.39291 2.7115,-4.25078 6.02557,-8.57303 5.98137,-7.80099 6.0239,-7.90361 5.79916,-13.99052 -0.26681,-7.22641 1.24758,-10.15186 7.20057,-13.90981 l 3.9747,-2.50912 0,-7.86006 c 0,-6.41808 0.73383,-10.15547 4,-20.37203 2.65507,-8.30502 4,-14.35191 4,-17.9842 0,-8.24464 -1.85031,-31.45895 -3.04942,-38.25862 -1.69475,-9.61023 2.75398,-29.81242 8.58048,-38.96491 0.71256,-1.1193 2.50312,-4.96009 3.97903,-8.53509 2.83352,-6.86345 7.41365,-13.55098 16.17054,-23.6109 7.07551,-8.12837 6.93416,-10.75801 -0.88265,-16.42048 -3.7467,-2.7141 -4.79761,-2.96862 -12.25731,-2.96862 l -8.15925,0 -4.69071,7.88563 c -2.57989,4.3371 -4.69071,8.30291 -4.69071,8.81291 0,0.51 -1.40542,2.24897 -3.12316,3.86437 -6.12138,5.75669 -7.88279,14.95053 -5.44815,28.43709 1.81855,10.07371 1.92705,14.62989 0.53778,22.58322 -2.05173,11.74587 -3.31863,16.10629 -8.01066,27.57117 -2.62327,6.40991 -5.33554,14.28491 -6.02726,17.5 -1.55079,7.20796 -3.31663,10.9606 -6.98574,14.84561 -3.73987,3.95994 -9.77332,15.8008 -11.06397,21.71345 -0.56589,2.59239 -2.09912,6.19239 -3.40718,8 -7.48842,10.34821 -7.96383,11.65692 -8.09602,22.28655 -0.10041,8.07376 -0.63771,11.44468 -2.78938,17.5 -1.73681,4.88783 -3.01891,11.33119 -3.68111,18.5 -0.88152,9.54312 -3.66801,20.7995 -5.94115,24 -0.39064,0.55 -2.82207,5.14673 -5.40318,10.21495 -6.2206,12.21464 -8.5517,14.56114 -16.06082,16.16674 -3.3,0.7057 -7.88677,1.6959 -10.19282,2.2006 -2.30605,0.5048 -8.89786,0.9177 -14.64845,0.9177 -9.59708,0 -10.89508,-0.2353 -15.80718,-2.8659 -2.94335,-1.5762 -7.37655,-3.9387 -9.85155,-5.24999 -6.29764,-3.3365 -7,-4.2113 -7,-8.7182 0,-3.58652 -3.27113,-11.76084 -5.30612,-13.2596 -1.67116,-1.2308 -2.0316,-11.74104 -0.48436,-14.12348 2.03136,-3.12789 5.79048,-14.26274 5.79048,-17.15194 0,-1.29864 0.83815,-3.43435 1.86255,-4.74602 1.0244,-1.31167 2.79789,-4.22747 3.94109,-6.47954 1.14319,-2.25207 3.56754,-5.40625 5.38745,-7.00929 1.8199,-1.60303 4.51522,-4.46222 5.98959,-6.35376 1.47438,-1.89154 4.84938,-4.64976 7.5,-6.12938 2.65063,-1.47963 5.62975,-4.05866 6.62027,-5.73119 3.30583,-5.58198 6.00186,-14.60086 6.7803,-22.6817 1.3094,-13.59276 2.80275,-25.77388 3.80047,-31 1.51348,-7.92769 0.48237,-27.90716 -1.85774,-35.99682 -2.51648,-8.69936 -2.76918,-25.37936 -0.50807,-33.53525 0.83376,-3.00736 2.12417,-9.52264 2.86759,-14.4784 1.416,-9.43923 2.62664,-11.99156 10.4303,-21.98953 4.20425,-5.38643 12.53044,-21.98534 13.63949,-27.19135 0.84477,-3.96547 -0.49139,-6.58574 -6.02946,-11.82401 -3.09274,-2.92532 -4.42646,-5.09705 -4.913,-8 -0.3673,-2.19155 -1.48182,-6.90964 -2.47671,-10.48464 -0.99489,-3.575 -1.87468,-8.20264 -1.9551,-10.28365 -0.0804,-2.08101 -0.98667,-5.45601 -2.0139,-7.5 -5.45287,-10.85014 -5.54555,-11.2055 -3.67107,-14.07518 3.54876,-5.43287 5.96819,-11.80153 6.40044,-16.84785 0.57911,-6.7609 -0.12414,-7.49313 -18.25543,-19.00772 -10.37991,-6.59194 -11.54259,-8.15265 -11.51623,-15.45868 0.0273,-7.56803 3.26393,-14.52332 12.1051,-26.01303 3.09536,-4.02264 6.84125,-9.56389 8.32421,-12.31389 4.6131,-8.55452 8.6331,-14.89785 11.09859,-17.51292 1.34051,-1.42184 3.07459,-5.32954 3.99385,-9 0.89357,-3.56789 3.43325,-10.45466 5.64373,-15.30392 4.17186,-9.15203 4.24317,-9.91802 1.70594,-18.32581 -1.10841,-3.67303 -1.01339,-4.71231 0.83823,-9.1678 1.79626,-4.32228 1.9217,-5.50995 0.8968,-8.49118 -0.65536,-1.90632 -1.68766,-4.08081 -2.29399,-4.8322 -2.27863,-2.82377 -5.50292,-11.2519 -6.39023,-16.70374 -0.50578,-3.1076 -1.56699,-7.67794 -2.35825,-10.1563 -2.60986,-8.17452 -4.70884,-22.32757 -5.06699,-34.16578 -0.35072,-11.59272 -1.39652,-15.84035 -3.90002,-15.84035 -1.83762,0 -4.1337,2.896 -5.48461,6.91763 -0.63141,1.8797 -2.96299,5.82153 -5.18127,8.75963 -4.88182,6.46592 -7.19187,11.71895 -8.93705,20.32274 -0.72514,3.575 -1.96099,7.78361 -2.74633,9.35247 -0.78533,1.56886 -1.99499,4.73683 -2.68812,7.03992 -1.91776,6.37225 -10.30215,18.50424 -21.41771,30.99088 -3.4844,3.9142 -7.52159,9.14173 -8.97153,11.61673 -1.44993,2.475 -3.66156,6.0253 -4.91471,7.88955 -1.25316,1.86425 -2.27847,4.3122 -2.27847,5.43988 0,1.12769 -1.75248,5.00239 -3.8944,8.61046 -3.5406,5.96415 -3.93977,7.36161 -4.39386,15.38269 -0.41888,7.39891 -0.86746,9.21427 -2.77992,11.25 -1.25425,1.33508 -3.26632,2.42742 -4.47128,2.42742 -4.29784,0 -7.06069,3.46569 -8.9352,11.20824 -0.97096,4.01047 -3.58308,10.6879 -5.80472,14.83873 -4.90414,9.16271 -4.67497,11.48634 1.47368,14.94208 5.30934,2.98401 10.52443,8.56822 11.68397,12.51095 0.48525,1.65 1.65965,6.6 2.60976,11 0.95012,4.4 2.82484,11.6 4.16605,16 1.34122,4.4 3.35556,11.15 4.47631,15 1.12075,3.85 2.6749,9.0854 3.45367,11.63421 2.0678,6.76767 1.63819,10.64587 -1.91543,17.29114 -2.45575,4.59227 -4.90645,7.25 -10.893,11.81325 -10.42799,7.94875 -16.76424,9.78091 -34.775625,10.05555 -12.476945,0.19025 -14.144125,-0.01 -21.999995,-2.63857 -13.228,-4.4266 -12.63175,-4.02299 -14.53238,-9.83717 -0.95622,-2.92513 -2.44957,-6.66841 -3.31856,-8.31841 -2.39716,-4.55157 -4.11995,-11.18051 -5.10264,-19.6339 -0.48809,-4.19865 -2.70412,-13.42365 -4.92452,-20.5 -3.57231,-11.38484 -3.91737,-13.32662 -2.99719,-16.8661 2.91629,-11.21745 2.64495,-11.71139 -7.36241,-13.4026 -13.9913,-2.36447 -21.8972502,-6.64734 -25.22821019,-13.6668 -2.06981001,-4.3618 -0.49254,-7.90098 4.70219999,-10.55115 4.33803,-2.21309 7.3016602,-6.40497 8.8931302,-12.57879 0.59538,-2.30964 2.15982,-5.65956 3.47654,-7.44428 1.33441,-1.80869 2.39404,-4.64204 2.39404,-6.40144 0,-7.52614 3.43712,-11.45494 10.02138,-11.45494 4.39797,0 6.05647,-3.85813 4.72858,-11 -1.76845,-9.51135 -3.56682,-13.43072 -6.82417,-14.87256 -3.54026,-1.56707 -5.48155,-4.98225 -6.431,-11.31365 -0.8571,-5.71552 1.02286,-9.41033 6.95576,-13.67062 9.87012,-7.08753 18.78298,-8.0525 24.21391,-2.62157 2.4423,2.4423 4.62173,11.36494 3.85057,15.76432 -1.04872,5.98281 -0.96182,9.04638 0.47222,16.64647 1.89222,10.02842 4.71999,12.59804 7.06787,6.42264 0.64318,-1.69168 0.51229,-3.45462 -0.42262,-5.69217 -2.66993,-6.39005 -2.92914,-15.66241 -0.69607,-24.89989 2.55098,-10.55255 2.72337,-23.49035 0.40851,-30.6579 -1.62729,-5.03863 -1.6119,-5.23766 0.91781,-11.86483 1.41507,-3.70713 3.69185,-10.11524 5.05951,-14.24024 2.27326,-6.8564 3.64571,-10.6323 9.813865,-27 1.13997,-3.025 2.29432,-7.525 2.56523,-10 0.2709,-2.475 0.89892,-4.9275 1.3956,-5.45 0.49667,-0.5225 0.90304,-3.11611 0.90304,-5.76357 0,-4.74479 0.80597,-6.95677 4.25,-11.66419 0.9625,-1.31558 1.75,-3.85132 1.75,-5.63497 0,-1.78366 0.63226,-4.76048 1.40501,-6.61515 0.84733,-2.03367 1.43405,-7.14283 1.47818,-12.87212 0.0403,-5.225 0.49508,-10.93985 1.01075,-12.69966 1.19645,-4.08311 6.728835,-11.33592 12.566775,-16.47468 2.5043,-2.20437 8.84146,-9.3502 14.08258,-15.8796 5.24112,-6.52941 11.47822,-13.46865 13.86023,-15.42052 4.31107,-3.5326 8.01148,-9.55341 9.06981,-14.7572 0.75806,-3.72734 5.16549,-8.51732 12.16953,-13.22581 19.14409,-12.8697 23.25227,-16.70375 29.87303,-27.87968 2.72494,-4.59972 3.74851,-5.39309 10.60932,-8.2232 4.17637,-1.72277 9.26929,-3.40426 11.3176,-3.73666 2.0483,-0.33239 6.72411,-2.65258 10.39068,-5.15598 7.49913,-5.12011 12.27011,-5.8681 17.83064,-2.79546 1.74028,0.96165 5.09158,2.8154 7.44733,4.11945 3.74474,2.07293 5.04409,2.28106 10.33586,1.65559 5.66938,-0.6701 11.01422,-1.27288 12.8537,-1.44962 1.21695,-0.11693 3.3704,-6.00531 4.13347,-11.30253 0.99333,-6.8957 -1.78273,-12.37332 -10.39883,-20.51863 -5.90284,-5.5803 -7.03567,-7.17381 -7.03567,-9.89682 0,-3.55565 2.87542,-6.35899 6.52251,-6.35899 2.611,0 4.47749,-1.81568 4.47749,-4.35561 0,-1.07558 1.15314,-3.46746 2.56254,-5.31527 2.78306,-3.64878 2.63549,-6.21769 -0.56462,-9.82912 -5.50269,-6.20995 -7.22159,-14.39796 -4.6023,-21.92304 0.90008,-2.585853 1.07918,-4.921433 0.52546,-6.852133 -1.12246,-3.913779 0.76588,-34.780039 2.55264,-41.724834 0.77827,-3.025 1.64578,-6.625 1.92779,-8 0.282,-1.375 2.81752,-4.975 5.63449,-8 2.81696,-3.025 5.87375,-6.85393 6.79287,-8.508732 3.61068,-6.500738 7.80886,-11.433715 10.67113,-12.538856 6.22905,-2.405078 12.14296,-5.5530053 16.29,-8.6710263 9.83374,-7.393676 14.76193,-8.084727 34.71,-4.867178 6.05,0.975843 15.05792,2.090658 20.01762,2.477367 4.9596,0.386709 9.5298,1.01971 10.1559,1.40667 0.6262,0.38696 3.3926,-0.465966 6.1478,-1.895391 6.4172,-3.329357 9.9091,-2.659884 16.0957,3.08586 2.5206,2.341046 6.608,5.2769463 9.083,6.5242223 7.5975,3.828777 10.7759,7.660047 11.7987,14.222233 0.6875,4.411101 1.513,6.222153 3.5755,7.844526 4.181,3.288787 6.6258,9.03055 6.6258,15.561135 0,5.24869 0.4207,6.32912 5.101,13.099425 4.1674,6.02829 5.5402,9.15218 7.5,17.067 1.3194,5.32845 2.399,10.86595 2.399,12.30556 0,1.439609 0.9,3.761639 2,5.160059 2.6212,3.332283 2.5249,4.975323 -0.6044,10.315053 -1.872,3.19424 -2.4188,5.1837 -1.9443,7.07401 0.363,1.44648 4.6286,6.50178 9.479,11.23401 10.1582,9.91069 11.5302,13.00485 8.1743,18.43487 -2.1863,3.53738 -4.8656,5.15125 -10.2655,6.18334 -1.8365,0.35101 -4.6802,1.7159 -6.3193,3.0331 -2.8751,2.3105 -2.9308,2.51048 -1.5811,5.67383 2.0417,4.78496 1.7442,9.09637 -0.8549,12.39146 -2.0038,2.54024 -2.1985,3.59084 -1.6198,8.73672 0.8795,7.82086 -1.5419,11.52803 -9.964,15.25498 -10.7632,4.76295 -12.2452,7.8609 -5.2591,10.99389 2.3325,1.04603 5.7651,3.23657 7.628,4.86787 3.7995,3.32708 11.1311,12.88191 11.1311,14.50645 0,0.58182 1.4086,3.55378 3.1303,6.60437 3.5939,6.36809 13.1789,16.44597 20.1293,21.16434 2.6664,1.81018 5.5024,4.78892 6.4487,6.77346 1.6668,3.49528 1.6551,3.57653 -0.8844,6.11601 -2.1443,2.1443 -2.9172,2.38979 -4.633,1.47152 -2.6009,-1.39191 -11.1909,-1.44774 -11.1909,-0.0727 0,1.14049 6.5518,10.06484 10.2565,13.97058 1.3042,1.375 3.0998,3.67551 3.9902,5.11225 1.2691,2.04792 2.7032,2.7561 6.638,3.27807 3.9766,0.52751 5.4445,1.26322 7.0672,3.54211 2.7789,3.90268 2.5809,5.61376 -0.9519,8.22569 -5.3998,3.99223 -3.0088,8.57861 3.8966,7.4744 2.4918,-0.39845 5.1689,-0.0852 7.4625,0.87306 9.0599,3.78548 22.2432,-0.72833 24.1031,-8.25263 0.916,-3.70581 5.1726,-8.01384 8.6793,-8.78403 5.6003,-1.23003 4.7174,-8.08464 -1.3533,-10.50637 -1.8085,-0.72146 -4.4827,-2.13317 -5.9426,-3.13715 -1.4599,-1.00397 -3.7099,-1.84067 -5,-1.85933 -1.2901,-0.0187 -4.1456,-0.90339 -6.3456,-1.96607 -2.2,-1.06268 -5.1826,-1.94741 -6.6279,-1.96607 -3.5712,-0.0461 -9.448,-2.60574 -11.0552,-4.81512 -0.7243,-0.99563 -3.1169,-2.89091 -5.3169,-4.21174 -2.2,-1.32082 -4.3306,-2.87525 -4.7347,-3.45428 -1.4964,-2.1443 -0.6864,-5.25418 2.0517,-7.87747 2.5967,-2.48776 3.0832,-2.60608 6.2199,-1.51259 1.8717,0.65245 5.2564,2.60101 7.5217,4.33014 2.2653,1.72913 6.7788,4.1953 10.03,5.48038 6.7261,2.65856 15.0482,6.25125 20.9114,9.02754 2.2,1.04174 6.5024,2.97889 9.561,4.30479 4.5944,1.99168 6.3794,3.5576 10.2692,9.00876 2.5896,3.62892 5.832,8.83528 7.2054,11.5697 3.0311,6.03473 6.9669,7.86555 13.2639,6.16995 4.8662,-1.31034 9.9523,-0.3863 11.2532,2.0445 1.3912,2.59945 0.096,9.34824 -3.2141,16.74473 -3.4591,7.72971 -3.5196,9.69042 -0.4388,14.22409 1.3198,1.94237 2.9707,5.53433 3.6685,7.98214 0.6979,2.4478 1.643,4.87805 2.1003,5.40055 0.4572,0.5225 0.8331,1.6475 0.8351,2.5 0,0.8525 0.92,3.05277 2.0397,4.88948 1.6753,2.7478 2.2948,3.12476 3.4963,2.12756 0.8032,-0.66656 1.4728,-2.39433 1.4881,-3.83948 0.015,-1.44516 1.3653,-4.39522 3,-6.5557 2.1922,-2.89735 2.9722,-5.02158 2.9722,-8.09501 0,-4.37 2.1911,-7.47685 5.273,-7.47685 3.0586,0 6.7693,4.3082 7.321,8.5 0.2896,2.2 1.7016,6.28865 3.1377,9.08589 2.535,4.93741 2.5721,5.2702 1.2713,11.3998 -0.7923,3.7334 -2.685,8.31275 -4.6311,11.20462 -7.7163,11.46636 -12.5411,22.96917 -13.1328,31.30969 -0.2731,3.85 -0.9045,7.7875 -1.403,8.75 -1.339,2.58502 -3.4525,2.12757 -4.6202,-1 -4.4181,-11.83317 -6.0656,-19.04287 -6.1563,-26.94098 -0.033,-2.85504 -0.4469,-5.43034 -0.9202,-5.72287 -0.4734,-0.29254 -1.6098,-3.20189 -2.5254,-6.46521 -4.4036,-15.69428 -19.614,-17.73169 -19.614,-2.62727 0,6.42074 -7.3439,9.82613 -16.3277,7.57123 -2.8448,-0.71403 -9.1874,-1.46146 -14.0947,-1.66095 -13.5824,-0.55215 -14.2828,1.02327 -6.5518,14.73744 5.7074,10.12457 8.9742,17.85932 8.9742,21.24813 0,1.27352 2.312,7.21701 5.1379,13.20776 3.2935,6.98235 5.3731,12.88764 5.7932,16.45096 0.7333,6.21897 4.7945,13.69263 11.2965,20.78871 3.3868,3.69629 3.8879,4.80418 3.3917,7.5 -1.7699,9.61676 -1.8014,13.52655 -0.1552,19.23803 0.9393,3.25876 2.5477,6.83116 3.5741,7.93867 2.6729,2.88391 5.0516,9.06466 4.3028,11.18045 -0.3515,0.99325 -1.5643,2.83317 -2.6952,4.08873 -1.9132,2.12414 -2.06,3.56429 -2.1111,20.71634 l -0.055,18.43351 -3.2399,4.21544 c -1.7819,2.3185 -3.2398,5.22198 -3.2398,6.45218 0,1.2302 1.575,5.5232 3.5,9.54 2.104,4.39028 3.5,8.81839 3.5,11.10187 0,2.32214 1.5013,6.99729 3.8627,12.02821 2.1244,4.52629 4.6551,10.70462 5.6236,13.72962 0.9685,3.025 2.5622,7.075 3.5415,9 5.368,10.55186 10.0669,21.24381 10.6229,24.17127 0.3477,1.8308 2.8185,7.41919 5.4907,12.41863 2.6722,4.99945 4.8586,10.07988 4.8586,11.28984 0,1.20997 -0.9092,3.98201 -2.0203,6.1601 -1.6162,3.16788 -2.5721,3.96016 -4.7783,3.96016 -1.5168,0 -6.0443,1.575 -10.0611,3.5 -7.1774,3.43967 -7.5249,3.5 -20.1567,3.5 -7.0694,0 -14.1202,0.48769 -15.6685,1.08376 -3.7503,1.44379 -11.6801,2.69229 -28.7064,4.51965 -24.3253,2.61073 -27.9251,3.20637 -35.0193,5.79451 -9.6546,3.52217 -12.8969,6.93055 -14.2813,15.01304 -0.992,5.79089 -1.7395,7.16392 -7.7102,14.16151 -3.6364,4.26188 -7.5233,8.38739 -8.6375,9.16779 -1.1243,0.7875 -5.4599,1.63344 -9.7431,1.90101 -12.3079,0.76887 -11.6909,0.38386 -16.6149,10.36724 -2.9975,6.07762 -6.7032,11.49765 -11.4702,16.77712 -5.6913,6.30294 -7.1759,8.63514 -7.7391,12.15755 -0.5428,3.39411 -2.0463,5.89319 -6.795,11.29434 -10.3773,11.80286 -10.4172,11.86923 -11.5965,19.27149 -0.6125,3.84504 -1.5385,7.41849 -2.0576,7.94099 -0.5192,0.5225 -0.944,1.60346 -0.944,2.40214 0,0.79867 -1.3599,3.29617 -3.0219,5.55 -1.6621,2.25382 -4.7484,6.79786 -6.8587,10.09786 -2.1102,3.3 -5.5904,8.7 -7.7339,12 -2.1435,3.3 -6.7071,11.46004 -10.1414,18.13342 -6.03386,11.72485 -6.24412,12.38731 -6.24412,19.67308 0,7.08595 0.18516,7.72481 3.07692,10.61658 1.69231,1.6923 3.6707,3.07692 4.3964,3.07692 2.3449,0 7.2989,6.69214 7.9923,10.79638 0.7937,4.69781 4.6357,8.69803 9.2979,9.68064 6.354,1.3392 17.2365,16.91036 17.2365,24.66282 0,2.09049 1.1352,6.28271 2.5227,9.31606 2.4432,5.3414 2.5883,9.73939 0.3665,11.11259 -0.4891,0.3022 -0.8892,1.2581 -0.8892,2.1242 0,4.005 -10.2708,8.3073 -19.8319,8.3073 -1.1925,0 -2.1681,0.45 -2.1681,1 0,1.2861 -10.5529,1.1115 -14.5,-0.2399 z"
     id="path2997"
     inkscape:connector-curvature="0" />
</svg>
