<?xml version="1.0" encoding="UTF-8" standalone="no"?>
<!-- Created with Inkscape (http://www.inkscape.org/) -->

<svg
   xmlns:dc="http://purl.org/dc/elements/1.1/"
   xmlns:cc="http://creativecommons.org/ns#"
   xmlns:rdf="http://www.w3.org/1999/02/22-rdf-syntax-ns#"
   xmlns:svg="http://www.w3.org/2000/svg"
   xmlns="http://www.w3.org/2000/svg"
   xmlns:sodipodi="http://sodipodi.sourceforge.net/DTD/sodipodi-0.dtd"
   xmlns:inkscape="http://www.inkscape.org/namespaces/inkscape"
   id="svg2"
   version="1.1"
   inkscape:version="0.48.2 r9819"
   width="1670.7291"
   height="2648.5247"
   sodipodi:docname="achilleshectoril00gale_0029b.png">
  <metadata
     id="metadata8">
    <rdf:RDF>
      <cc:Work
         rdf:about="">
        <dc:format>image/svg+xml</dc:format>
        <dc:type
           rdf:resource="http://purl.org/dc/dcmitype/StillImage" />
        <dc:title></dc:title>
      </cc:Work>
    </rdf:RDF>
  </metadata>
  <defs
     id="defs6" />
  <sodipodi:namedview
     pagecolor="#ffffff"
     bordercolor="#666666"
     borderopacity="1"
     objecttolerance="10"
     gridtolerance="10"
     guidetolerance="10"
     inkscape:pageopacity="0"
     inkscape:pageshadow="2"
     inkscape:window-width="1920"
     inkscape:window-height="1176"
     id="namedview4"
     showgrid="false"
     fit-margin-top="0"
     fit-margin-left="0"
     fit-margin-right="0"
     fit-margin-bottom="0"
     inkscape:zoom="0.5"
     inkscape:cx="807.38233"
     inkscape:cy="1668.4995"
     inkscape:window-x="0"
     inkscape:window-y="24"
     inkscape:window-maximized="1"
     inkscape:current-layer="svg2" />
  <path
     style="fill:#000000"
     d="m 630.42093,2647.5875 c -0.3187,-0.5157 -3.6078,-0.8992 -7.309,-0.8522 -13.4094,0.1701 -12.9702,0.3127 -13.7333,-4.4602 -0.3736,-2.3375 -1.794,-6.6497 -3.1562,-9.5826 -2.6352,-5.6736 -2.8439,-7.0324 -1.764,-11.4863 0.6409,-2.6435 -1.8929,-14.8242 -3.574,-17.1811 -1.4702,-2.0613 -1.6958,-5.2695 -0.5245,-7.4582 1.5461,-2.8889 0.2472,-6.7469 -4.4962,-13.3545 -6.6969,-9.3291 -8.0281,-18.7519 -4.4065,-31.192 1.1901,-4.0882 2.274,-5.5532 5.919,-8 4.3017,-2.8876 5.4263,-5.0438 3.6747,-7.0453 -1.3601,-1.554 -3.1654,-8.8967 -3.2125,-13.066 -0.024,-2.1362 -0.7406,-5.684 -1.5922,-7.884 -0.8516,-2.2 -2.2256,-7.375 -3.0533,-11.5 -0.8277,-4.125 -2.0237,-8.1341 -2.6577,-8.909 -0.6341,-0.775 -1.1961,-3.7 -1.2489,-6.5 -0.1247,-6.6088 -2.1845,-24.9624 -3.3771,-30.091 -0.5116,-2.2 -1.208,-6.1604 -1.5475,-8.801 -0.4858,-3.7788 -1.1058,-4.9866 -2.9119,-5.6733 -3.0297,-1.1519 -3.9435,-3.8029 -2.2184,-6.4358 1.3687,-2.0888 1.6607,-6.4331 2.1236,-31.5899 0.196,-10.6516 -1.1128,-15.783 -5.0231,-19.6932 -2.284,-2.284 -2.6941,-5.2847 -1.0627,-7.7745 0.8695,-1.327 1.8474,-5.9024 2.2222,-10.3976 0.5458,-6.5438 0.3479,-8.7055 -1.0704,-11.6944 -3.5551,-7.4918 -3.0728,-29.2691 0.7576,-34.2128 1.5456,-1.9948 1.3098,-49.8609 -0.2692,-54.6453 -0.8367,-2.5352 -1.115,-6.9059 -0.796,-12.5004 0.2697,-4.7312 0.1478,-9.5284 -0.2709,-10.6604 -1.1929,-3.2246 1.6659,-12.4324 4.9265,-15.8681 7.2202,-7.6079 8.9866,-17.2619 4.916,-26.8679 -1.2086,-2.852 -2.4461,-5.4143 -2.75,-5.6941 -4.4805,-4.1237 -5.3879,-6.1644 -5.1672,-11.6202 0.1254,-3.0995 0.89,-7.5852 1.699,-9.9684 0.8265,-2.4342 1.1825,-5.4827 0.8126,-6.9567 -0.6954,-2.7705 1.3348,-10.446 2.763,-10.446 0.4619,0 0.8399,-0.6178 0.8399,-1.3729 0,-0.7551 0.8509,-3.3426 1.891,-5.75 2.6701,-6.1808 4.5308,-25.16 3.6644,-37.3771 -1.559,-21.9816 -0.777,-29.5887 2.7412,-26.6688 3.3459,2.7769 6.9844,-5.1566 7.0313,-15.3312 0.038,-8.2057 -0.8134,-10.0379 -5.7394,-12.3534 -2.4371,-1.1456 -4.7401,-2.5829 -5.1178,-3.194 -0.3777,-0.6112 -0.8409,-4.338 -1.0293,-8.2819 -0.6232,-13.0425 -1.8223,-19.9088 -3.827,-21.9135 -2.7737,-2.7737 -5.3973,-9.43 -6.605,-16.7572 -0.6798,-4.125 -1.8601,-8.918 -2.6227,-10.6511 -0.7627,-1.7332 -1.3867,-3.3721 -1.3867,-3.6422 0,-0.9172 -9.2837,-17.1971 -10.8259,-18.9842 -0.9188,-1.0648 -1.8066,-4.8737 -2.2142,-9.5 -0.8273,-9.3908 -3.4461,-16.5695 -7.7279,-21.1844 -1.7666,-1.9041 -3.933,-5.6324 -4.814,-8.2851 -1.4657,-4.4126 -1.4665,-5.03 -0.01,-7.2529 0.8756,-1.3364 1.592,-3.0141 1.592,-3.7283 0,-0.7142 1.575,-3.6372 3.5,-6.4957 1.925,-2.8585 3.5,-6.1364 3.5,-7.2844 0,-1.148 1.125,-3.1298 2.5,-4.4041 1.375,-1.2743 2.5,-2.6473 2.5,-3.0511 0,-0.4039 0.6222,-2.1522 1.3827,-3.8854 0.7605,-1.7331 1.9075,-4.5348 2.5489,-6.2261 1.2371,-3.2623 6.7667,-9.4999 13.8806,-15.6577 l 4.3123,-3.7327 -0.6624,-7.2673 c -0.5791,-6.3549 -2.4493,-15.9856 -5.392,-27.7673 -0.4808,-1.925 -1.409,-6.65 -2.0625,-10.5 -0.6536,-3.85 -1.5976,-8.8868 -2.098,-11.1928 -0.5003,-2.3061 -0.9096,-7.7393 -0.9096,-12.0739 0,-7.6454 -2.0829,-24.1143 -3.9503,-31.2333 -3.9749,-15.1538 -4.2509,-17.0913 -4.2736,-30 -0.02,-11.4573 -0.3767,-14.5461 -2.3561,-20.4139 -1.2827,-3.8026 -2.7523,-7.1776 -3.2656,-7.5 -2.3935,-1.503 -3.4278,-8.8739 -2.2808,-16.2524 1.9748,-12.7027 2.3056,-21.6943 1.8516,-50.3337 -0.035,-2.2 -0.01,-5.575 0.059,-7.5 0.2664,-7.5949 -0.6585,-48.086 -1.3208,-57.8209 -0.6998,-10.2867 -0.6931,-10.3303 2.0166,-13.1586 3.3712,-3.5188 2.9049,-6.7424 -2.0671,-14.292 -1.8732,-2.8443 -3.683,-6.7593 -4.0218,-8.7 -0.3388,-1.9407 -1.1711,-4.4285 -1.8495,-5.5285 -1.4747,-2.391 -5.1393,-13.5893 -6.0541,-18.5 -0.3586,-1.925 -1.0389,-4.85 -1.5117,-6.5 -0.4727,-1.65 -1.3882,-5.6776 -2.0344,-8.9501 -0.6461,-3.2726 -1.6598,-6.7267 -2.2526,-7.6759 -0.7806,-1.2501 -0.7485,-2.4484 0.1165,-4.347 1.464,-3.213 1.5483,-10.8306 0.172,-15.5336 -1.7026,-5.8179 -1.5121,-36.8533 0.2517,-40.9934 1.7966,-4.2173 6.148,-9.7812 14.5206,-18.5664 3.4375,-3.6069 6.25,-7.0992 6.25,-7.7606 0,-0.6615 0.9267,-2.9317 2.0594,-5.0451 1.1327,-2.1133 1.9202,-3.9638 1.75,-4.1122 -0.1702,-0.1484 -2.3344,-1.276 -4.8094,-2.5056 -6.3006,-3.1304 -8.8426,-5.7417 -10.168,-10.445 -1.5796,-5.6057 -1.193,-14.7738 0.6821,-16.1751 2.4564,-1.8358 6.1768,-7.8836 6.7566,-10.9833 1.8977,-10.145 7.1565,-22.7259 11.665,-27.9067 2.2953,-2.6376 6.0643,-10.9693 6.0643,-13.4058 0,-1.0601 0.4721,-2.0849 1.0492,-2.2773 0.658,-0.2193 0.7968,-1.928 0.3722,-4.5833 -0.5108,-3.1942 -1.1276,-4.2336 -2.5121,-4.2336 -1.0093,0 -3.5392,-1.7057 -5.6222,-3.7904 -2.0829,-2.0847 -5.1371,-4.4472 -6.7871,-5.25 -3.4292,-1.6684 -4.7273,-2.5767 -8.0952,-5.6641 -1.9888,-1.8232 -2.4048,-3.1695 -2.4048,-7.7822 0,-3.0676 -0.719,-7.2506 -1.5977,-9.2954 -3.8422,-8.9408 -5.6004,-15.5417 -7.383,-27.7179 -1.7679,-12.0761 -1.8076,-14.3592 -0.5585,-32.1245 1.2767,-18.1579 1.4858,-19.3377 4.1368,-23.3437 l 2.7922,-4.2192 -5.8554,-5.4063 c -3.2205,-2.9735 -6.6832,-5.4063 -7.6949,-5.4063 -1.0117,0 -1.8395,-0.3785 -1.8395,-0.8411 0,-0.4626 -2.2467,-2.0639 -4.9928,-3.5584 -2.746,-1.4946 -6.2985,-3.8161 -7.8943,-5.159 -1.6072,-1.3523 -4.1869,-2.4415 -5.7827,-2.4415 -1.5846,0 -5.5697,-1.3359 -8.8557,-2.9686 -3.286,-1.6328 -6.7826,-2.9828 -7.7703,-3 -1.8273,-0.032 -8.5161,-3.3179 -12.2812,-6.0334 -4.2612,-3.0732 -4.4362,-4.8258 -1.3243,-13.2656 1.5957,-4.3279 2.9013,-8.7605 2.9013,-9.8503 0,-2.437 2.0187,-6.4204 7.5418,-14.8821 2.3335,-3.575 5.2455,-8.975 6.4712,-12 1.2256,-3.025 3.0094,-7.3 3.9639,-9.5 0.9545,-2.2 2.0619,-5.35 2.4609,-7 1.1626,-4.8085 10.6113,-25.7023 13.1974,-29.1833 1.3006,-1.7508 2.3648,-3.5963 2.3648,-4.101 0,-1.1348 4.9438,-10.5288 5.9025,-11.2157 0.3838,-0.275 2.1937,-2.975 4.0221,-6 1.8283,-3.025 5.3382,-7.6663 7.7997,-10.314 3.505,-3.77 4.3272,-5.288 3.7915,-7 -0.3762,-1.2023 -1.1068,-4.436 -1.6236,-7.186 -0.5168,-2.75 -1.5969,-8.15 -2.4003,-12 -2.4078,-11.53903 -3.7204,-21.44873 -3.1515,-23.79303 0.2945,-1.2139 0.098,-5.132 -0.4377,-8.707 -1.1073,-7.396 -2.4702,-21.7697 -3.7927,-40 -0.8181,-11.2768 0.019,-41.1908 1.3844,-49.5 0.2712,-1.65 0.7707,-5.7 1.1099,-9 0.3393,-3.3 0.9622,-7.9294 1.3842,-10.2876 0.7405,-4.1374 0.6578,-4.3339 -2.3606,-5.6106 -9.2617,-3.9175 -13.0465,-6.293 -17.8393,-11.1971 -2.9087,-2.9762 -5.9696,-6.8724 -6.802,-8.658 -0.8324,-1.7857 -2.2721,-4.3717 -3.1995,-5.7467 -0.9273,-1.375 -2.0032,-4.4872 -2.3909,-6.916 -0.7184,-4.5004 -8.6353,-17.3813 -14.5246,-23.63161 -1.5794,-1.67618 -2.8859,-4.15118 -2.9034,-5.5 -0.035,-2.7121 -2.0877,-5.95239 -3.7709,-5.95239 -0.5954,0 -2.5708,-0.85639 -4.3897,-1.9031 -1.819,-1.0467 -4.8625,-2.22784 -6.7635,-2.62475 -2.3481,-0.49029 -5.1739,-2.50935 -8.8138,-6.29759 -4.7164,-4.9087 -5.5876,-5.43226 -7.2802,-4.37525 -1.0574,0.66038 -2.7772,1.20069 -3.8218,1.20069 -1.0446,0 -3.1882,0.67223 -4.7636,1.49384 -1.5754,0.82161 -4.1314,1.49661 -5.68,1.5 -1.5487,0.003 -3.5981,0.42483 -4.5542,0.93653 -0.9561,0.51171 -4.864,1.21166 -8.6843,1.55546 -3.8202,0.3438 -8.5208,1.12441 -10.4458,1.73468 -5.3089,1.68304 -14.8826,1.17716 -21.7957,-1.15169 -9.4813,-3.19401 -22.151,-0.97522 -28.752,5.03521 -1.1262,1.02547 -4.7262,2.82466 -8,3.9982 -3.2738,1.17355 -7.5273,2.73588 -9.4523,3.47185 -3.9522,1.51103 -18.5857,1.9053 -19.4395,0.52376 -0.5993,-0.96971 -11.8186,-4.54655 -17.5605,-5.59848 -4.1396,-0.75838 -5.8629,-1.95777 -8.62,-5.99936 -2.6315,-3.8575 -3.2016,-12.57328 -0.9448,-14.44623 0.8607,-0.71426 1.5648,-1.91856 1.5648,-2.67621 0,-0.75766 0.45,-1.37756 1,-1.37756 0.55,0 1,-0.75555 1,-1.679 0,-0.92345 0.5145,-3.10193 1.1434,-4.84105 1.8473,-5.10864 -1.0726,-11.1387 -7.4829,-15.45345 -6.1967,-4.17094 -11.6892,-4.56637 -16.4399,-1.18357 -1.6661,1.18639 -3.4099,2.17601 -3.875,2.19915 -0.691,0.0344 -6.428,7.22259 -9.1768,11.49815 -0.6083,0.94612 -4.4816,3.64698 -21.0666,14.68988 -3.0812,2.05156 -5.9718,3.73906 -6.4236,3.75 -1.1603,0.0281 -2.945,2.06698 -4.5732,5.22442 -1.7821,3.45591 -3.0835,3.67466 -11.6054,1.95082 -3.85,-0.7788 -10.375,-1.49939 -14.5,-1.60133 -4.125,-0.10194 -9.3,-0.78184 -11.5,-1.51089 -2.2,-0.72906 -4.5625,-1.47289 -5.25,-1.65296 -1.9857,-0.52011 -1.5526,-7.80635 0.5787,-9.73518 1.0059,-0.91025 2.4131,-1.65499 3.1273,-1.65499 0.7142,0 4.2788,-1.40182 7.9213,-3.11516 3.6425,-1.71334 7.7477,-3.61782 9.1227,-4.23218 6.2405,-2.7883 15.9291,-9.15171 17.0105,-11.17232 1.2997,-2.42847 8.5632,-6.48034 11.6169,-6.48034 2.2246,0 7.8029,-3.59539 14.892,-9.59847 2.7606,-2.33773 8.8118,-6.08442 13.4471,-8.32598 7.3236,-3.54159 9.3186,-4.07555 15.2277,-4.07555 6.3669,0 7.0468,0.22295 10.6741,3.5 2.1308,1.925 4.4398,3.5 5.1312,3.5 2.2104,0 12.3706,6.16785 16.3007,9.89552 5.2296,4.96021 6.8218,8.47229 7.4442,16.42069 0.462,5.89968 0.2462,7.20526 -1.6053,9.70951 -1.1765,1.59131 -2.1391,3.34996 -2.1391,3.90811 0,1.69937 5.6695,4.06617 9.7402,4.06617 2.1118,0 6.5216,0.7118 9.7997,1.58179 10.1807,2.70191 24.8733,-0.0163 30.4406,-5.63174 7.6651,-7.73139 9.4564,-8.45804 20.6426,-8.37392 5.8015,0.0436 11.4504,0.62587 13.2321,1.36388 1.7405,0.72095 3.887,0.95116 4.8768,0.52302 2.1822,-0.94389 6.5418,-1.37411 16.268,-1.60538 7.2038,-0.1713 13.1949,-1.74595 14.4656,-3.802 0.3313,-0.53606 -0.9245,-2.68038 -2.7907,-4.76515 -1.8662,-2.08478 -3.9634,-5.5905 -4.6604,-7.7905 -0.6971,-2.2 -1.8322,-4.675 -2.5227,-5.5 -0.6904,-0.825 -1.5942,-2.625 -2.0086,-4 -0.4143,-1.375 -2.155,-3.617 -3.8683,-4.98223 -8.4345,-6.72129 -31.8094,-31.92973 -34.6149,-37.33013 -2.7304,-5.25594 -14.1226,-17.8433 -17.8035,-19.67131 -2.9967,-1.48821 -6.188,-6.77881 -6.1928,-10.26633 0,-1.5125 -0.1463,-2.75 -0.3207,-2.75 -0.1743,0 -2.9567,1.35 -6.183,3 -3.2263,1.65 -6.4728,3 -7.2144,3 -2.7326,0 -2.6208,3.15762 0.1912,5.39978 2.6712,2.12994 2.7403,2.42196 2.027,8.56761 -0.6767,5.83024 -1.126,6.74608 -5.3711,10.94756 -2.548,2.52178 -5.7577,5.08734 -7.1327,5.70125 -8.7163,3.89166 -13.123,5.26548 -18.5486,5.78262 -5.4216,0.51675 -17.8083,3.33327 -24.4514,5.55984 -12.0795,4.04867 -19.6908,6.35632 -23.5,7.1249 -10.2289,2.06388 -12.7391,2.75551 -13.7804,3.79687 -0.6158,0.61577 -2.1334,1.11957 -3.3726,1.11957 -2.1169,0 -7.2418,1.82942 -8.347,2.97965 -0.275,0.28619 -0.95,0.58481 -1.5,0.66359 -0.55,0.0788 -4.825,0.84513 -9.5,1.703 -4.675,0.85787 -9.85,1.763 -11.5,2.01141 -1.65,0.2484 -5.475,1.18929 -8.5,2.09087 -6.2986,1.87723 -20.611,4.31182 -32.9813,5.61024 -4.6647,0.48962 -9.6147,1.32368 -11,1.85346 -7.8585,3.00542 -51.4838,6.18047 -57.0187,4.14983 -1.375,-0.50445 -7,-1.17169 -12.5,-1.48274 -5.5,-0.31105 -12.925002,-0.99544 -16.500002,-1.52086 -6.5591,-0.964 -17.3386,-4.06368 -18.6328,-5.35792 -0.3853,-0.38529 -2.1868,-0.70053 -4.0034,-0.70053 -1.8167,0 -4.9053,-0.9 -6.8638,-2 -1.9585,-1.1 -4.3865,-2 -5.3956,-2 -1.0091,0 -2.9788,-0.9 -4.3773,-2 -1.3984,-1.1 -3.0558,-2 -3.6831,-2 -0.6273,0 -3.0034,-0.9 -5.2801,-2 -2.2768,-1.1 -4.6175,-2.00055 -5.2017,-2.00122 -1.5028,-0.002 -5.4067,-3.67463 -10.0657,-9.47003 -3.8464,-4.7845 -3.9928,-5.23529 -3.8986,-12 0.1182,-8.48967 1.966,-18.2969 3.9621,-21.02875 0.8037,-1.1 2.6488,-3.8 4.1002,-6 1.4513,-2.2 2.9587,-4.225 3.3498,-4.5 0.391,-0.275 1.43,-1.90398 2.3089,-3.61996 1.7785,-3.47235 11.2149,-12.38004 13.1149,-12.38004 0.6697,0 2.2515,-1.10057 3.5152,-2.44572 1.2637,-1.34514 4.8296,-3.20319 7.9243,-4.129 3.0947,-0.9258 7.4563,-2.52523 9.6924,-3.55428 2.2362,-1.02905 4.5268,-1.871 5.0903,-1.871 0.5635,0 3.7199,-1.34687 7.0142,-2.99304 4.9725,-2.48482 6.825,-2.90726 10.9097,-2.48784 11.884502,1.22031 16.170502,2.11811 19.920102,4.17263 2.2,1.20547 6.025,3.29413 8.5,4.64148 2.9575,1.61001 4.6175,3.23303 4.8427,4.73491 0.1885,1.25685 1.0325,3.33801 1.8757,4.62479 1.0788,1.64647 1.3871,3.85695 1.0408,7.46136 -0.4257,4.43067 -1.0161,5.57032 -4.3757,8.44618 -2.3497,2.01148 -3.2793,3.33927 -2.3535,3.36198 0.8414,0.0207 3.0162,-1.53824 4.8329,-3.4642 5.2952,-5.614 12.5625,-6.21972 14.9359,-1.24488 1.371,2.87366 5.8125,5.74331 8.9015,5.75126 0.9899,0.003 3.2236,1.33923 4.9638,2.97042 5.4038,5.0651 2.4478,8.71177 -8.5277,10.52017 -2.4001,0.39544 -5.2504,1.45828 -6.3343,2.36188 -1.0838,0.90359 -2.9015,2.4304 -4.0393,3.3929 -2.8232,2.38817 -7.3077,2.19663 -11.6448,-0.49737 -2.9851,-1.85426 -5.1048,-2.25657 -12.118,-2.30003 -9.6647,-0.0599 -12.4335,-1.30748 -17.052302,-7.6835 -2.4698,-3.40949 -2.6379,-4.13339 -1.6034,-6.90628 0.6433,-1.72427 3.058902,-4.40992 5.448502,-6.05768 3.5123,-2.42192 4.1701,-3.3551 3.6178,-5.13262 -0.3712,-1.19489 -1.0655,-2.32252 -1.5428,-2.50585 -0.4773,-0.18334 -0.8678,-1.16928 -0.8678,-2.19099 0,-1.0217 -0.45,-2.13576 -1,-2.47568 -0.55,-0.33992 -1,-1.45882 -1,-2.48644 0,-1.02762 -1.1567,-2.77824 -2.570402,-3.89026 -6.4049,-5.03813 -21.3628,-3.10372 -28.5923,3.69765 -5.9977,5.64251 -12.393,11.17082 -12.9272,11.17473 -0.3245,0.002 -1.1642,1.91682 -1.866,4.25432 -0.7018,2.3375 -1.6688,5.375 -2.1489,6.75 -0.4801,1.375 -0.8216,7.9 -0.759,14.5 0.1004,10.5715 0.4146,12.65473 2.6395,17.5 1.389,3.025 3.2453,6.28276 4.1249,7.23946 4.8924,5.32087 6.6451,6.58741 9.8317,7.10452 1.9336,0.31379 4.2474,1.19167 5.1417,1.95084 2.0759,1.76224 12.5244,4.03089 14.9781,3.25213 1.6246,-0.51565 8.4607,-0.12562 35.520902,2.02665 3.2302,0.25692 6.3802,0.07 7,-0.41535 1.9648,-1.53852 6.9748,-2.51204 11.627,-2.2593 6.5275,0.3546 32.6885,-5.33269 43.5124,-9.45942 4.2725,-1.62893 13.4694,-3.88078 22.4876,-5.50607 5.8266,-1.0501 14.827,-3.72417 16.5,-4.90228 0.55,-0.3873 3.7,-1.72163 7,-2.96517 7.4826,-2.81967 9.0962,-3.46555 13.6511,-5.46405 2.0081,-0.88108 4.6387,-1.60196 5.8457,-1.60196 1.2071,0 3.389,-0.62044 4.8489,-1.37875 1.4599,-0.75832 7.8293,-2.98627 14.1543,-4.95101 6.325,-1.96474 15.775,-4.91088 21,-6.54698 5.225,-1.63611 11.3,-3.24692 13.5,-3.5796 10.8907,-1.64685 14.4382,-2.88469 17.5917,-6.13826 l 3.1995,-3.30104 -2.0738,-4.82058 c -1.7649,-4.10274 -1.9235,-5.52517 -1.0646,-9.55218 0.5806,-2.72198 1.5658,-4.7316 2.3198,-4.7316 0.7208,0 1.5906,-1.11555 1.9328,-2.47899 0.3422,-1.36345 3.2848,-4.62595 6.5391,-7.25 3.2544,-2.62406 5.9451,-5.44601 5.9794,-6.27101 0.075,-1.80673 -5.2892,-5.50186 -9.3629,-6.44938 -5.0516,-1.17498 -8.2149,-4.19633 -9.9512,-9.5046 -0.8977,-2.74457 -2.7196,-6.59252 -4.0486,-8.55099 -1.3291,-1.95848 -2.5615,-3.88355 -2.7388,-4.27795 -0.1773,-0.39439 -1.2688,-1.39208 -2.4255,-2.21708 -7.7663,-5.53921 -11.2797,-8.86913 -18.7658,-17.78612 -8.6069,-10.2521 -14.3162,-18.97741 -16.4688,-25.16898 -1.2199,-3.50881 -7.155,-12.8539 -10.497,-16.52793 -3.3601,-3.69402 -6.429,-9.92197 -9.6174,-19.51697 -1.7363,-5.225 -4.6885,-12.65 -6.5605,-16.5 -3.0153,-6.20136 -6.5306,-15.14925 -8.25,-21 -0.3233,-1.1 -2.8214,-6.275 -5.5514,-11.5 -19.5785,-37.47192 -18.0133,-33.89605 -18.1646,-41.5 -0.1502,-7.55009 -0.7658,-9.20446 -9.3027,-25 -3.1198,-5.77243 -5.5554,-9.13112 -6.7915,-9.36563 -1.0599,-0.20109 -3.4371,-1.91509 -5.2825,-3.80888 -3.3793,-3.46778 -3.4736,-4.05879 -1.6088,-10.07549 0.6656,-2.1474 0.4435,-2.25 -4.8696,-2.25 -4.1831,0 -5.8016,-0.41939 -6.5111,-1.68718 -0.6593,-1.17803 -2.8777,-1.8873 -7.3513,-2.35033 -8.4213,-0.87164 -11.8354,-2.63518 -14.4711,-7.47491 -3.2141,-5.90199 -3.0406,-10.42549 0.8436,-21.98758 1.3979,-4.16113 3.7072,-15.10059 4.3275,-20.5 0.2843,-2.475 0.9269,-5.625 1.4279,-7 1.6729,-4.59119 2.0083,-14.91708 0.5324,-16.39297 -0.7426,-0.74254 -2.5331,-3.09538 -3.979,-5.22855 -2.9521,-4.35546 -13.2722,-15.37848 -14.3977,-15.37848 -0.9614,0 -5.2412,-9.51519 -6.0411,-13.43122 -0.5766,-2.82309 -1.031,-3.11851 -5.6751,-3.68988 -6.4083,-0.78843 -9.4893,-2.82931 -13.3472,-8.84129 -4.0192,-6.26343 -12.7679,-14.48592 -17.5302,-16.4757 -4.3264,-1.80768 -6.8353,-4.39648 -9.725702,-10.03524 -1.1202,-2.18532 -6.0004,-8.03532 -10.845,-13 -9.836,-10.07985 -17.1696,-19.14332 -20.0479,-24.77667 -1.0538,-2.0625 -2.3594,-3.75 -2.9013,-3.75 -0.542,0 -2.9152,-1.9125 -5.2738,-4.25 -2.3587,-2.3375 -7.5997,-7.175 -11.6469,-10.75 -10.4908,-9.26696 -12.0533,-10.90135 -12.0533,-12.60756 0,-4.79852 -11.0943,-30.39244 -13.1744,-30.39244 -0.4541,0 -0.8284,-0.5625 -0.8318,-1.25 0,-0.6875 -0.6615,-2.50651 -1.4626,-4.04224 -2.1743,-4.16859 -2.8625,-9.22023 -1.5819,-11.61297 0.9525,-1.7798 0.6494,-2.81769 -1.9085,-6.53548 -1.6724,-2.43081 -3.0408,-4.70455 -3.0408,-5.05275 0,-0.3482 -2.7,-5.454523 -6.0000003,-11.347383 -6.6612,-11.89504 -7.55369996,-16.61604 -4,-21.15918 2.5253,-3.22836 2.5264,-3.21668 -1,-10.1562 -3.59909996,-7.08259 -3.80289996,-10.76382 -0.75,-13.54452 3.8457,-3.50273 6.6021,-4.40945 12.7321003,-4.18825 3.2569,0.11754 6.5059,-0.26258 7.2198,-0.8447 0.714,-0.58212 3.0499,-1.53665 5.1909,-2.12118 7.6981,-2.1017 16.4218,1.37252 30.371,12.09531 3.4451,2.64826 7.4729,5.36504 8.9505,6.03728 1.4777,0.67224 4.9167,3.35976 7.6423,5.97226 2.7256,2.6125 5.3788,4.75 5.896,4.75 0.5173,0 2.9213,1.74361 5.3424,3.87468 2.421,2.13108 5.6897,4.13227 7.2638,4.44708 1.5741,0.31482 4.2272,1.72121 5.8959,3.12532 1.668702,1.4041 3.483202,2.55292 4.032102,2.55292 0.5489,0 2.714,2.25 4.8111,5 2.7011,3.54184 4.5101,5 6.2032,5 1.3146,0 3.6165,0.87321 5.1153,1.94047 1.4988,1.06726 4.9433,2.49537 7.6544,3.17357 2.7111,0.6782 7.004,2.50499 9.5398,4.059533 2.5358,1.55454 5.5219,2.82643 6.6357,2.82643 1.1138,0 3.314,0.67223 4.8894,1.49384 3.6667,1.9123 5.0022,1.89216 5.7616,-0.0869 0.7211,-1.87894 -1.0587,-13.905793 -2.4396,-16.486033 -0.5267,-0.98418 -0.9577,-2.94765 -0.9577,-4.36327 0,-2.06939 -0.7839,-2.88751 -4,-4.17432 -2.9203,-1.16846 -4.001,-2.17852 -4.0037,-3.7419 0,-1.17778 -0.9033,-3.61684 -2.0028,-5.42012 -1.5767,-2.58605 -2.1038,-5.64933 -2.4952,-14.5 -0.2729,-6.17172 -0.2191,-14.6456 0.1196,-18.83085 l 0.6159,-7.60954 5.3438,-3.23874 c 2.9392,-1.78131 6.8216,-3.30701 8.6275,-3.39045 2.9933,-0.13831 3.518,0.30198 5.9345,4.98015 1.5036,2.91106 2.8599,7.48295 3.1341,10.56477 0.4286,4.81674 1.3699,7.39919 4.6669,12.80336 0.5033,0.825 1.1362,2.22959 1.4065,3.12132 0.2703,0.89173 1.6996,1.92457 3.1763,2.2952 5.5555,1.39434 7.1803,3.38927 9.9217,12.18166 1.4581,4.67676 3.8357,10.61789 5.2835,13.20251 1.4478,2.58462 3.1636,5.71576 3.8128,6.95809 1.418,2.71348 7.0532,8.24122 8.4015,8.24122 1.3155,0 7.0571,8.485793 7.0571,10.430183 0,0.8634 0.3915,1.56982 0.87,1.56982 0.4786,0 1.4329,2.1375 2.1207,4.75 0.6879,2.6125 2.0546,7.225 3.0371,10.25 0.9825,3.025 2.3528,8.2 3.0451,11.5 0.6923,3.3 2.4988,8.475 4.0144,11.5 6.0664,12.10771 6.7972,14.89666 6.6876,25.52126 -0.099,9.57804 0.017,10.15059 2.6067,12.9455 3.0276,3.26677 7.1476,11.68872 7.8221,15.98958 0.2171,1.38362 1.47,2.198 4.2801,2.78185 2.1853,0.45404 5.2148,2.01501 6.7323,3.46883 2.6892,2.57641 3.0484,3.70641 4.2971,13.51567 0.4695,3.68805 1.3707,5.44067 4.1139,8 5.5639,5.191 6.7709,8.98625 5.3853,16.93347 l -1.1605,6.65616 4.8169,9.09384 c 2.6493,5.00161 5.2944,9.09384 5.8779,9.09384 0.5835,0 2.5478,1.53404 4.3651,3.40897 2.9654,3.05951 3.2508,3.85396 2.7847,7.75 -0.2857,2.38757 -0.8264,5.52417 -1.2015,6.97023 -0.6098,2.35096 -0.434,2.58464 1.6615,2.20816 4.243,-0.76231 9.0785,2.89341 12.3378,9.32753 3.1751,6.26796 9.7961,15.54675 13.3723,18.7401 1.1734,1.04774 2.1334,2.42076 2.1334,3.05116 0,1.7988 7.3508,12.58178 11.9377,17.51149 6.1694,6.63051 8.8367,10.37246 12.1411,17.03246 1.6373,3.29994 3.3814,5.9999 3.8758,5.9999 0.4944,0 1.5334,1.2375 2.3088,2.75 3.0298,5.90975 5.9782,10.81684 7.3595,12.24859 1.2833,1.33021 1.788,1.30212 4.4924,-0.25 8.5153,-4.88709 16.8278,0.50589 20.4252,13.25141 1.6335,5.7874 6.401,18.61356 9.5481,25.68767 2.4438,5.49305 7.3363,10.97829 11.8425,13.27717 2.5004,1.27563 4.3542,3.34554 5.9924,6.69109 1.3045,2.66424 3.8347,6.66402 5.6226,8.88839 5.7426,7.14458 8.4539,14.02157 8.4539,21.44283 0,3.63707 0.3718,7.04035 0.8261,7.56285 0.4544,0.5225 1.448,2.975 2.2081,5.45 0.7601,2.475 1.8246,4.80489 2.3656,5.17753 0.5411,0.37265 2.3214,-0.448 3.9562,-1.82367 1.9478,-1.63889 3.6916,-2.30813 5.0583,-1.94119 1.1471,0.30801 2.3831,0.56617 2.7465,0.57368 0.3634,0.008 1.6009,1.95573 2.75,4.32937 1.5972,3.29941 2.0892,6.24306 2.0892,12.5 0,5.07333 0.401,8.18428 1.0549,8.18428 1.5,0 11.7417,7.20488 16.2508,11.43216 4.2156,3.95217 5.4041,4.25455 8.2532,2.09964 2.8923,-2.18764 6.9375,-1.84234 13.2698,1.13272 4.445,2.08838 6.0722,3.50362 7.5253,6.54527 1.0618,2.22249 4.0529,5.51365 7,7.70211 2.8303,2.10173 6.0032,4.78136 7.051,5.95472 2.4119,2.70104 2.9989,2.67381 5.8045,-0.26925 2.3558,-2.47115 4.6035,-3.00346 18.5029,-4.38203 6.8854,-0.68291 7.4309,-0.93067 12.0343,-5.46534 2.6521,-2.6125 5.5435,-4.75 6.4254,-4.75 0.8818,0 4.6914,-1.3987 8.4656,-3.10823 3.7743,-1.70953 8.4373,-3.79105 10.3623,-4.62561 1.925,-0.83456 6.65,-3.08424 10.5,-4.99928 6.6817,-3.32356 7.3347,-3.45192 14.3596,-2.82275 6.7866,0.60781 7.8378,0.43156 13.5,-2.26347 3.3772,-1.60743 9.0168,-3.90217 12.5325,-5.09942 8.76,-2.98322 11.4341,-4.48661 15.5875,-8.76323 4.0091,-4.12798 5.0807,-7.07283 4.0344,-11.08649 -1.6264,-6.23938 -0.9806,-8.1962 4.5553,-13.80175 5.5138,-5.58306 17.2796,-13.34817 26.9307,-17.77342 3.025,-1.38703 6.2226,-3.38142 7.1057,-4.43198 1.1943,-1.42071 3.4581,-2.0654 8.8361,-2.51627 3.9768,-0.3334 7.7542,-1.01706 8.3943,-1.51925 0.6402,-0.50219 2.4453,-1.21971 4.0114,-1.59448 2.3235,-0.55603 2.7452,-1.08892 2.2916,-2.8962 -0.3057,-1.21813 -0.1383,-2.88605 0.372,-3.70648 0.7693,-1.23682 1.2774,-1.27508 2.9733,-0.22389 1.8272,1.13251 2.3906,0.86989 5.2805,-2.46126 3.2234,-3.71552 5.0749,-5.55024 8.2791,-8.20405 1.3024,-1.07862 1.5533,-2.37567 1.0999,-5.68414 -0.5318,-3.87992 -0.3768,-4.3166 1.6343,-4.60249 1.8059,-0.25673 2.2821,-1.06468 2.544,-4.31586 0.2281,-2.83191 1.1771,-4.83771 3.25,-6.86866 1.6103,-1.57776 2.9278,-3.313 2.9278,-3.85609 0,-0.54309 1.3574,-2.70129 3.0164,-4.79599 1.6591,-2.09469 4.4716,-5.81859 6.25,-8.27531 14.0818,-19.45222 20.4221,-25.67787 32.7438,-32.15177 11.0697,-5.8161 14.654,-7.49266 16.0785,-7.5208 0.8738,-0.0173 5.1488,-1.10091 9.5,-2.40811 4.3512,-1.3072 14.2113,-3.14008 21.9113,-4.07308 7.7,-0.933 16.7,-2.13841 20,-2.67868 4.7871,-0.78374 6.8846,-0.66789 10.3757,0.57308 2.4067,0.85548 6.9067,1.55549 10,1.55558 7.3364,2.2e-4 20.1811,2.48614 24.8966,4.81841 9.0434,4.47287 12.3523,7.02278 22.4286,17.28405 5.8855,5.99355 11.1519,10.89737 11.7031,10.89737 0.5512,0 1.6996,1.4625 2.552,3.25 0.8524,1.7875 2.6422,4.6 3.9772,6.25 2.1403,2.64528 2.6705,2.8522 4.4835,1.75 1.1309,-0.6875 2.5823,-1.25 3.2253,-1.25 2.4123,0 7.7378,5.10571 8.8544,8.48896 0.6373,1.93107 1.5581,3.51104 2.0464,3.51104 0.4882,0 2.3658,1.2375 4.1724,2.75 1.8066,1.5125 5.3098,3.79755 7.7848,5.0779 3.8245,1.97847 11.2442,9.48055 17.478,17.6721 5.3189,6.98935 11.522,15.67359 11.522,16.13056 0,0.29653 2.6723,6.01346 5.9384,12.70429 3.2661,6.69083 7.5913,17.56515 9.6116,24.16515 5.4159,17.69287 6.0774,26.0875 2.9553,37.5 -0.978,3.575 -2.0923,8.75 -2.4763,11.5 -0.9924,7.1072 -7.7144,23.22063 -11.8195,28.33289 -1.9136,2.38309 -4.6561,4.78357 -6.0944,5.3344 -1.4383,0.55083 -3.8891,1.63852 -5.4461,2.41711 -1.5571,0.77858 -4.1125,1.4156 -5.6786,1.4156 -3.3131,0 -5.3092,1.74435 -7.9745,6.96874 -1.161,2.27577 -3.9188,5.04383 -6.9861,7.01212 -7.1277,4.57385 -9.0298,7.31802 -9.0298,13.02737 0,2.60618 -0.8931,8.28299 -1.9846,12.61514 -1.1847,4.70173 -1.996,11.30279 -2.0128,16.37663 -0.015,4.675 -0.6674,15.43124 -1.4487,23.90276 -1.3785,14.94685 -1.3606,15.53031 0.605,19.71188 3.7631,8.00561 7.5325,7.17603 15.4907,-3.40926 3.1861,-4.23796 7.8309,-10.01737 10.3217,-12.84313 2.4908,-2.82576 6.2108,-7.32576 8.2666,-10 8.9484,-11.6399 21.5666,-22.93297 26.7136,-23.90812 1.4017,-0.26557 4.4354,-1.08641 6.7416,-1.82409 3.3791,-1.08089 4.7379,-1.10014 6.99997,-0.0992 1.5438,0.68314 4.2694,1.79776 6.0569,2.47692 1.7875,0.67916 3.25,1.57565 3.25,1.9922 0,2.05308 7.1622,3.48164 17.5,3.49053 10.8453,0.009 30.6211,-3.33791 32.95,-5.5771 0.5225,-0.50239 1.7741,-0.91343 2.7814,-0.91343 1.0072,0 2.0744,-0.63344 2.3715,-1.40763 0.8453,-2.20284 9.7958,-5.59237 14.7674,-5.59237 5.9027,0 8.7397,1.16486 13.2902,5.45706 2.0659,1.94862 4.1009,3.54294 4.5222,3.54294 0.4212,0 1.442,-1.30737 2.2683,-2.90526 0.8263,-1.59789 2.0968,-3.51039 2.8232,-4.25 0.7265,-0.73961 2.7441,-3.42478 4.4835,-5.96706 5.6685,-8.28463 14.3531,-16.27865 19.7675,-18.19543 2.7361,-0.96865 6.8056,-2.66259 9.0431,-3.76431 8.1919,-4.03339 18.585,-5.90707 22.1953,-4.00135 0.955,0.50412 3.1989,1.45871 4.9864,2.12132 1.7875,0.6626 3.25,1.60014 3.25,2.08341 0,1.29326 4.2552,1.0091 6.0367,-0.40312 0.8452,-0.67001 2.6278,-2.7932 3.9614,-4.7182 1.3335,-1.925 3.5791,-4.625 4.9902,-6 1.4111,-1.375 3.4534,-3.64443 4.5386,-5.04317 2.6792,-3.45322 12.7781,-10.95679 14.7466,-10.95679 2.3756,0 2.7901,-2.64362 1.7969,-11.45998 -1.4057,-12.47746 0.6503,-15.26172 17.9296,-24.27965 3.575,-1.86577 7.3382,-4.37512 8.3627,-5.57634 1.0245,-1.20122 1.9245,-2.04654 2,-1.8785 0.2699,0.60078 11.4664,-4.72004 12.1044,-5.75226 0.358,-0.5793 1.437,-1.05327 2.3976,-1.05327 0.9607,0 3.2848,-1.13476 5.1647,-2.52168 1.8799,-1.38693 5.0185,-2.95268 6.9748,-3.47944 1.9562,-0.52677 6.4681,-3.34444 10.0263,-6.26149 3.5582,-2.91704 10.2086,-7.2379 14.7785,-9.6019 10.9872,-5.68355 17.8329,-10.87361 19.7995,-15.011 0.8824,-1.85653 2.4378,-6.28944 3.4562,-9.8509 2.1928,-7.66763 5.6712,-12.58434 10.7432,-15.1855 2.0307,-1.0414 4.783,-3.06225 6.1164,-4.49077 1.3334,-1.42853 2.9602,-2.59732 3.6152,-2.59732 0.6549,0 2.3324,-0.89803 3.7278,-1.99563 1.3954,-1.0976 5.3936,-2.68715 8.8849,-3.53235 3.4913,-0.84519 7.1292,-1.97216 8.0842,-2.50437 0.9551,-0.53221 4.0505,-0.96765 6.8788,-0.96765 5.3336,0 6.1575,-0.48918 16.0612,-9.5358 1.472,-1.34461 4.2845,-3.39358 6.25,-4.55325 1.9655,-1.15968 3.5736,-2.40749 3.5736,-2.77292 0,-0.36543 3.1105,-2.17649 6.9122,-4.02458 3.8017,-1.84808 8.2074,-4.54215 9.7904,-5.9868 1.583,-1.44466 4.0481,-3.39214 5.478,-4.32774 1.4298,-0.9356 5.4203,-4.3106 8.8677,-7.5 6.3113,-5.83898 11.9492,-15.25701 11.9509,-19.96392 0,-2.98192 8.479,-10.33953 11.8916,-10.32025 1.4351,0.008 3.7342,0.58847 5.1092,1.28969 2.2529,1.14894 2.8954,0.96934 6.5,-1.8171 2.2,-1.70063 6.025,-5.00746 8.5,-7.34852 2.475,-2.34105 6.1921,-5.80957 8.2602,-7.70782 3.4378,-3.15543 3.7073,-3.78194 3.1437,-7.30666 -0.7269,-4.54588 2.4219,-12.75599 5.2951,-13.80634 2.7228,-0.99535 7.6055,-5.28324 9.3524,-8.21303 0.8542,-1.43273 2.561,-5.70925 3.7927,-9.50337 1.2318,-3.79413 3.4407,-8.56946 4.9088,-10.61185 4.2619,-5.92907 19.1164,-14.78941 25.0369,-14.93387 1.2594,-0.0307 4.1844,-1.03937 6.5,-2.24142 2.3156,-1.20206 5.9786,-2.43956 8.1399,-2.75 3.1125,-0.44707 4.0698,-1.08434 4.6035,-3.06445 0.3705,-1.375 1.6397,-4.61281 2.8203,-7.19514 1.1806,-2.58232 2.1465,-5.0771 2.1465,-5.54394 0,-0.46684 1.8144,-2.56817 4.0321,-4.66962 4.3376,-4.11027 7.9679,-10.58508 7.9679,-14.21104 0,-1.33978 -1.1799,-3.08423 -2.928,-4.32899 -1.6104,-1.14671 -3.4738,-3.76485 -4.1409,-5.8181 -0.6671,-2.05324 -2.6776,-5.37009 -4.4679,-7.37078 -1.7902,-2.00069 -3.5807,-5.12086 -3.9789,-6.93372 -1.1095,-5.05145 -6.9758,-15.97401 -10.9353,-20.36032 -1.9519,-2.16241 -3.6064,-4.18741 -3.6766,-4.5 -0.9077,-4.04235 -1.1511,-7.14918 -1.2585,-16.06835 -0.07,-5.775 -0.4844,-11.0571 -0.9218,-11.73799 -0.4374,-0.6809 -1.4175,-3.62695 -2.1781,-6.54678 -0.7605,-2.91983 -3.2536,-9.00787 -5.5403,-13.52898 -3.956,-7.82175 -4.1783,-8.74044 -4.5859,-18.95322 -0.4731,-11.85337 -0.8116,-13.54156 -3.4732,-17.323053 -4.5132,-6.41215 -8.2006,-21.65552 -5.9071,-24.41906 1.8424,-2.21988 8.3067,-1.90623 10.4925,0.50908 0.9955,1.1 2.189,2 2.6522,2 1.3836,0 13.0924,8.89838 16.6911,12.68485 1.8389,1.93474 3.9906,5.06672 4.7816,6.95994 0.7911,1.89323 2.1182,3.703153 2.9493,4.022063 2.9558,1.13426 5.4258,7.90275 5.4258,14.86848 0,5.95922 0.4078,7.30151 4.114,13.53984 4.4009,7.40794 6.3982,8.4382 9.631,4.96812 1.0027,-1.07618 1.9328,-3.39768 2.067,-5.15888 0.1342,-1.76121 2.2842,-6.47551 4.7777,-10.47623 5.3807,-8.63298 8.0999,-15.39786 10.0121,-24.908183 0.7741,-3.85 1.8457,-9.12978 2.3813,-11.73285 0.5355,-2.60306 0.7293,-5.97806 0.4305,-7.5 -0.733,-3.73323 1.65,-8.83815 6.6601,-14.26715 2.2841,-2.475 5.2325,-6.1875 6.5521,-8.25 1.3196,-2.0625 3.0772,-3.75 3.9058,-3.75 1.1022,0 1.3403,-0.66204 0.8874,-2.46689 -0.7703,-3.06891 3.8351,-9.03795 9.349,-12.11734 3.8615,-2.15653 8.1911,-7.49329 10.7096,-13.20081 1.9737,-4.47278 3.5178,-5.83368 8.2156,-7.2412 3.0459,-0.91256 4.5308,-0.92426 6.167,-0.0486 1.9427,1.03974 2.7701,0.5115 8.3974,-5.3615601 9.253,-9.65705 16.938,-10.73914 20.2945,-2.85759 1.2838,3.01438 1.4114,4.71153 0.6213,8.2592201 -0.8322,3.73684 -0.6828,5.07613 0.9161,8.21016 1.0508,2.05972 1.9105,4.6363 1.9105,5.72575 0,1.08946 0.3974,2.22644 0.8831,2.52663 2.354,1.45486 2.118,15.19283 -0.3995,23.25448 -0.5789,1.85404 -0.366,2.09976 1.4157,1.63383 2.9712,-0.77698 7.0024,2.20485 8.8033,6.5117 1.231,2.94404 1.3972,5.85347 0.8384,14.67222 -1.5144,23.89628 -1.5697,28.760533 -0.3439,30.237533 0.9696,1.16824 0.7846,1.7738 -0.949,3.10677 -3.4887,2.68239 -7.7045,25.12921 -7.3871,39.33183 0.057,2.54543 0.8766,4.47054 2.6649,6.25891 2.5223,2.52224 2.578,2.86961 2.3782,14.82386 -0.1161,6.94872 -0.8006,14.18665 -1.5832,16.7411 -0.7582,2.475 -1.8477,7.875 -2.421,12 -0.5734,4.125 -1.4899,9.975 -2.0368,13 -0.5469,3.025 -1.3306,12.7 -1.7415,21.5 -0.6224,13.32582 -1.1109,16.77182 -2.9228,20.61789 -1.1965,2.53984 -2.8558,5.18244 -3.6872,5.87245 -0.8314,0.69 -1.5116,1.68622 -1.5116,2.21381 0,0.52759 -1.5348,2.83499 -3.4108,5.12755 -1.9029,2.32559 -3.735,5.93661 -4.1442,8.1683 -0.4034,2.2 -1.0168,4.225 -1.3631,4.5 -0.3462,0.275 -2.1562,3.425 -4.0222,7 -1.866,3.575 -4.3303,7.43568 -5.4762,8.5793 -3.5532,3.54605 -5.5835,6.38583 -5.5835,7.80969 0,0.75136 -0.7047,1.95095 -1.5659,2.66573 -0.8613,0.71479 -2.2795,2.67942 -3.1516,4.36586 -0.8721,1.68643 -3.6796,5.65414 -6.2389,8.81712 -2.5592,3.16298 -6.1082,8.56594 -7.8865,12.00659 -1.7783,3.44064 -5.1519,9.40571 -7.497,13.25571 -2.345,3.85 -5.587,9.475 -7.2043,12.5 -1.6173,3.025 -3.1737,5.725 -3.4587,6 -0.2849,0.275 -1.5443,2.75 -2.7985,5.5 -2.2579,4.95061 -2.2656,5.10866 -0.7789,16 0.8258,6.05 1.3624,12.35 1.1924,14 -0.5327,5.17097 -2.7876,15.92264 -3.7197,17.73643 -0.4908,0.95504 -0.8924,2.3484 -0.8924,3.09636 0,0.74797 -0.6259,2.66657 -1.3909,4.26357 -0.7651,1.597 -2.2057,4.70364 -3.2014,6.90364 -2.1723,4.79943 -13.3568,15.91326 -18.8305,18.71155 -3.8293,1.9576 -7.2959,2.02051 -13.2632,0.24066 -1.6893,-0.50383 -3.2801,0.35346 -7,3.77219 -2.6477,2.43331 -6.164,4.96266 -7.814,5.62078 -1.65,0.65812 -5.061,3.09968 -7.5799,5.4257 -3.8615,3.56574 -4.9595,5.4717 -7,12.15068 -2.6465,8.66272 -4.6605,11.24031 -17.261,22.09121 -3.7625,3.24007 -8.2492,7.93768 -9.9704,10.43913 -3.5939,5.2228 -10.6887,18.86491 -10.6887,20.55244 0,0.62461 -1.4739,2.90416 -3.2753,5.06566 -3.5826,4.29879 -7.1836,9.82852 -10.2492,15.73849 -2.8187,5.43403 -20.7846,24.67404 -23.0512,24.68589 -1.9098,0.01 -5.0381,4.38667 -6.4369,9.00562 -2.0295,6.70147 -5.9114,15 -7.0167,15 -0.5339,0 -0.9707,0.57499 -0.9707,1.27776 0,0.70277 -0.9096,2.05657 -2.0213,3.00846 -1.9603,1.67849 -1.9682,1.82847 -0.2612,4.97224 1.4803,2.72623 1.7855,6.18248 1.9203,21.74154 0.088,10.175 0.7106,22.1 1.3835,26.5 2.8744,18.79747 4.8544,48.50932 5.4644,82 0.2305,12.65 1.1025,29.3 1.9378,37 0.8354,7.7 2.0405,18.725 2.678,24.5 0.6376,5.775 1.2677,12.3 1.4003,14.5 1.8246,30.2716 2.6117,41.4639 3.4577,49.1658 1.2488,11.3691 0.6562,33.5196 -1.3733,51.3342 -2.6518,23.2765 -4.3621,65.0843 -4.9297,120.50003 -0.2852,27.8483 -0.6003,33.2974 -2.429,42 -1.1557,5.5 -3.0445,16.3 -4.1974,24 -1.1529,7.7 -2.5088,16.25 -3.0131,19 -1.9363,10.5581 -4.2463,25.2876 -5.0186,32 -0.4429,3.85 -1.7333,10.825 -2.8675,15.5 -2.0611,8.496 -4.5437,36.7606 -3.4737,39.5491 0.3116,0.812 -0.046,2.2149 -0.7953,3.1175 -1.0954,1.3199 -1.2958,7.0407 -1.0242,29.2372 0.6147,50.2452 1.6824,97.0638 2.6018,114.0962 1.9852,36.7775 1.3455,59.793 -2.0316,73.0854 -0.9721,3.8263 -1.3535,10.2829 -1.2109,20.5 0.1144,8.203 -0.3882,24.3646 -1.1169,35.9146 -0.7287,11.55 -1.4556,25.5 -1.6152,31 -0.5741,19.7726 -1.6069,40.9208 -2.0321,41.6087 -0.5614,0.9083 -0.5558,63.1865 0.01,76.8913 0.2371,5.775 0.7297,15.3965 1.0946,21.381 0.4787,7.8519 0.3188,11.525 -0.5746,13.1943 -0.7913,1.4786 -0.9938,3.8666 -0.5612,6.619 0.3723,2.3681 0.8461,11.7307 1.053,20.8057 0.2069,9.075 0.7786,17.625 1.2706,19 0.4919,1.375 0.7567,4.525 0.5885,7 -0.595,8.751 -0.2715,25.4391 0.5082,26.2188 0.4348,0.4348 0.651,3.65 0.4805,7.1451 -0.189,3.8751 0.2775,8.0194 1.1954,10.6211 0.8279,2.3466 1.52,7.2474 1.538,10.8907 0.018,3.6434 0.4839,9.7743 1.0352,13.6243 0.5514,3.85 1.2262,12.625 1.4995,19.5 0.2734,6.875 0.692,14.075 0.9303,16 0.2383,1.925 0.68,6.425 0.9815,10 0.3015,3.575 0.7523,7.175 1.0017,8 0.2495,0.825 0.7102,8.475 1.0239,17 0.3136,8.525 0.7461,16.175 0.9611,17 0.215,0.825 0.6778,4.5535 1.0286,8.2855 0.3507,3.7321 1.5079,9.315 2.5716,12.4066 3.397,9.8737 2.9308,11.6576 -5.1565,19.7303 -3.8997,3.8927 -7.5271,7.8866 -8.0608,8.8755 -0.9129,1.6913 -5.4938,4.2043 -7.0641,3.8751 -0.3934,-0.082 -1.9048,0.3024 -3.3587,0.8551 -2.0434,0.7769 -2.3937,1.3059 -1.5434,2.3305 1.3761,1.6581 0.4559,2.6414 -2.4717,2.6414 -2.7302,0 -3.7732,2.8036 -5.58,15 -1.21,8.1672 -1.3041,19.8869 -0.3053,38 0.2578,4.675 0.6212,18.85 0.8076,31.5 0.2849,19.3332 0.665,24.1957 2.3838,30.5 1.4534,5.3306 2.078,10.8265 2.1593,19 0.063,6.325 0.5447,13.525 1.0706,16 1.4491,6.8205 3.2336,33.0721 2.4921,36.6605 -0.3593,1.7382 -0.1272,4.7543 0.5157,6.7023 0.6654,2.016 1.3407,12.0708 1.5676,23.3395 0.5193,25.7898 1.3567,44.2929 2.0558,45.424 0.3071,0.497 0.7674,10.4594 1.0228,22.1387 0.2554,11.6792 0.9631,25.96 1.5728,31.735 1.2157,11.517 1.2856,21.4744 0.2735,39 -1.1312,19.591 -0.8182,23.1261 2.2925,25.8866 4.2278,3.7518 5.3993,6.9751 5.914,16.2723 0.4037,7.293 0.1534,9.3744 -1.5872,13.1951 -1.1366,2.4949 -2.0665,4.9045 -2.0665,5.3545 0,0.45 -1.575,3.1569 -3.5,6.0154 -1.925,2.8585 -3.5,5.483 -3.5,5.8323 0,0.3493 -0.9054,1.9065 -2.0119,3.4605 -2.7293,3.833 -7.9864,13.9163 -7.9951,15.3348 0,0.6317 -2.7007,4.5235 -5.993,8.6485 -3.2923,4.125 -5.9891,7.7899 -5.993,8.1442 0,0.3543 -2.2491,3.0543 -4.9895,6 -2.7404,2.9457 -5.0004,5.8058 -5.0222,6.3558 -0.022,0.55 -0.9198,2.125 -1.9953,3.5 -1.4793,1.8911 -1.9609,4.0925 -1.9778,9.0386 -0.015,4.3927 -0.6261,7.6745 -1.8623,10 -5.1374,9.6638 -9.3573,18.7555 -11.7172,25.2441 -0.9566,2.6304 -2.1106,5.012 -2.5643,5.2924 -0.4537,0.2804 -1.6155,2.1782 -2.5819,4.2174 -0.9663,2.0391 -3.8177,5.7325 -6.3364,8.2075 -2.5187,2.475 -5.2057,6.0495 -5.9712,7.9434 -1.333,3.298 -5.5396,8.6307 -14.0475,17.8081 -2.1678,2.3383 -3.9414,4.6245 -3.9414,5.0805 0,1.4073 -8.8899,7.2988 -12.53,8.3039 -4.991,1.3781 -5.9662,3.877 -5.9958,15.3641 -0.024,9.17 -0.2934,10.5623 -3.2499,16.7747 -3.451,7.2518 -5.9483,9.093 -11.5615,8.5242 -2.7401,-0.2777 -3.0866,-0.7963 -4.8765,-7.2989 -1.0597,-3.85 -2.5557,-8.125 -3.3244,-9.5 -3.388,-6.0603 -5.7582,-11.5773 -7.5186,-17.5 -0.6538,-2.2 -1.6479,-4.8844 -2.2091,-5.9654 -1.3652,-2.6301 -4.661,-21.8891 -4.7119,-27.5346 -0.049,-5.483 -3.3705,-12.6612 -7.7479,-16.7465 -2.6303,-2.4547 -11.0085,-7.2535 -12.664,-7.2535 -0.74,0 -0.011,80.5432 0.7402,81.7583 0.4021,0.6506 0.011,2.575 -0.8686,4.2765 -1.9531,3.7769 -2.3012,18.4167 -0.665,27.9652 2.2612,13.1957 2.867,14.9815 6.1447,18.1138 2.8481,2.7219 3.1482,3.5074 2.572,6.7338 -0.6043,3.3833 -5.4364,9.1524 -7.666,9.1524 -0.4737,0 -3.0002,2.2027 -5.6145,4.895 -4.2396,4.3661 -11.3378,8.105 -15.387,8.105 -0.5852,0 -2.4819,0.6185 -4.2151,1.3744 -6.4066,2.7942 -24.4626,6.2956 -27.1492,5.2647 -0.7908,-0.3035 -1.659,-0.1939 -1.9293,0.2435 -0.6047,0.9783 -10.8041,-1.1233 -15.5726,-3.2088 -1.925,-0.8418 -4.2502,-2.4245 -5.1672,-3.5169 -1.4703,-1.7518 -2.1544,-1.8626 -5.7941,-0.9388 -3.6843,0.9352 -4.3781,0.8116 -6.4684,-1.152 -1.9621,-1.8433 -2.9674,-2.0761 -6.2058,-1.4369 -4.4923,0.8868 -7.3361,0.6091 -9.17,-0.8953 -0.8071,-0.662 -10.2709,-1.2491 -24.7837,-1.5375 l -23.4781,-0.4665 -1.9401,-2.4664 c -2.8411,-3.6119 -3.5946,-8.9743 -1.7095,-12.1656 1.1287,-1.9107 1.2788,-3.1294 0.5465,-4.4379 -0.7218,-1.2899 -0.6277,-2.2819 0.3305,-3.4819 2.9644,-3.7127 3.8399,-6.4074 3.8399,-11.8195 0,-5.5438 -0.043,-5.63 -1.937,-3.9156 -2.0637,1.8676 -4.063,1.3746 -4.063,-1.002 0,-0.928 1.047,-1.441 2.941,-1.441 1.6175,0 3.2191,-0.45 3.559,-1 0.3712,-0.6007 -0.9229,-1 -3.241,-1 -2.1224,0 -4.3459,-0.4869 -4.9411,-1.0821 -0.7446,-0.7446 -1.6647,-0.7659 -2.95,-0.068 -3.6136,1.9614 -10.9323,3.4974 -17.0275,3.5734 -6.9121,0.086 -8.5392,0.8649 -5.3615,2.5656 1.6697,0.8936 1.8976,1.4552 1.0198,2.5128 -0.8203,0.9884 -0.8395,2.4095 -0.07,5.1803 1.8189,6.5501 1.3495,8.6259 -2.9657,13.1168 -2.2204,2.3107 -4.4774,4.2014 -5.0154,4.2014 -0.5381,0 -3.3338,1.5492 -6.2129,3.4426 -2.879,1.8934 -6.5846,3.7196 -8.2346,4.0583 -6.6792,1.371 -13.4453,3.7282 -14.5613,5.0729 -0.651,0.7844 -2.0148,1.4262 -3.0307,1.4262 -1.016,0 -3.3887,0.8658 -5.2728,1.9241 -5.1591,2.8977 -10.5873,4.1719 -12.7779,2.9995 -2.3638,-1.265 -2.3499,-4.1639 0.05,-10.4377 1.0489,-2.7423 2.4593,-6.5609 3.1341,-8.4859 0.6748,-1.925 1.5593,-4.1898 1.9657,-5.0328 0.4063,-0.8431 1.0568,-2.9806 1.4454,-4.75 0.6765,-3.0803 0.5753,-3.2172 -2.3777,-3.2172 -2.9779,0 -7.2388,1.8062 -17.37747,7.3661 -2.6416,1.4487 -5.422,2.6339 -6.1786,2.6339 -0.7566,0 -1.984,0.5625 -2.7275,1.25 -1.9087,1.7648 -6.6833,4.593 -10.791,6.3918 -1.925,0.843 -7.325,3.3288 -12,5.5241 -13.5108,6.3444 -16.8024,7.5389 -27,9.7979 -3.025,0.6701 -7.075,1.6332 -9,2.1401 -1.925,0.507 -8.45,1.5811 -14.5,2.3867 -17.8775,2.3808 -19.9021,2.7573 -22,4.0905 -1.1,0.699 -3.6875,1.5793 -5.75,1.9562 -2.0625,0.3769 -3.75,1.0852 -3.75,1.574 0,1.1746 1.6871,1.1265 4.0051,-0.114 1.1822,-0.6327 2.0915,-0.65 2.4644,-0.047 0.6232,1.0084 -2.5016,2.0143 -13.9695,4.4972 -3.85,0.8336 -8.9125,2.1028 -11.2501,2.8205 -2.9611,0.9091 -6.7247,1.0922 -12.4095,0.6037 -4.4877,-0.3857 -9.1528,-0.3235 -10.3669,0.1381 -1.2141,0.4616 -3.7299,0.5142 -5.5905,0.1169 -3.8974,-0.8323 -46.9159,-0.5547 -54.383,0.3509 -2.75,0.3336 -6.125,0.5039 -7.5,0.3786 -3.6856,-0.336 -108.985,-0.3851 -112.5,-0.053 -1.65,0.1562 -8.1079,0.01 -14.3508,-0.3276 -7.9337,-0.4274 -11.1521,-0.2901 -10.691,0.4561 0.3629,0.5872 0.2098,1.0676 -0.3402,1.0676 -0.55,0 -1.2607,-0.4219 -1.5794,-0.9376 z m 140.6489,-1.7455 c -0.7219,-0.2889 -1.5844,-0.2534 -1.9167,0.079 -0.3323,0.3323 0.2584,0.5687 1.3125,0.5253 1.165,-0.048 1.4019,-0.285 0.6042,-0.6042 z M 704.53993,668.46752 c 0.5816,-0.58165 3.5965,-1.3196 6.6997,-1.63987 5.4485,-0.56235 5.7156,-0.72943 7.7836,-4.87026 3.4935,-6.99504 10.557,-15.32276 13.6087,-16.0444 1.5127,-0.35772 3.6504,-1.42428 4.7504,-2.37015 1.1,-0.94586 2.8424,-2.01873 3.8719,-2.38416 1.4902,-0.52892 1.7451,-1.29854 1.25,-3.77401 -0.342,-1.71028 -0.6219,-5.23597 -0.6219,-7.83486 l 0,-4.72525 -9.0537,-0.64266 c -7.9347,-0.56322 -9.5497,-0.38962 -13.0665,1.40451 -2.6331,1.34329 -5.4512,1.94255 -8.1963,1.74291 -3.9443,-0.28685 -4.2121,-0.50436 -4.6835,-3.80425 -0.275,-1.925 -0.725,-3.463 -1,-3.41778 -0.275,0.0452 -2.5132,0.40414 -4.9739,0.79761 -2.4606,0.39347 -5.2923,1.45613 -6.2927,2.36146 -1.7029,1.54113 -1.9755,1.47713 -4.2761,-1.00397 -1.3515,-1.45752 -2.4573,-2.91349 -2.4573,-3.23549 0,-0.90693 -3.171,-3.91944 -6.6643,-6.3313 -2.3422,-1.61706 -3.3165,-1.85807 -3.75,-0.92761 -0.464,0.99594 -0.7063,0.99926 -1.1661,0.016 -0.9128,-1.95219 -3.4196,1.10435 -3.4196,4.16964 0,4.91145 -1.8865,3.84349 -13.7495,-7.7835 l -5.2495,-5.14507 -5e-4,-7.19098 c -3e-4,-3.95504 -0.3745,-7.42211 -0.8315,-7.70459 -0.4571,-0.28248 -1.4232,-3.65199 -2.147,-7.48779 -1.9435,-10.30005 -2.1156,-10.38213 -8.2584,-3.93768 -3.406,3.57315 -6.6582,5.97404 -8.9494,6.60666 -1.9795,0.54657 -6.235,2.76602 -9.4566,4.93212 -3.2217,2.16609 -6.6376,4.22375 -7.591,4.57256 -1.6517,0.6043 -7.7666,12.09295 -7.7666,14.59174 0,1.82288 3.1737,6.33759 6.4096,9.11797 2.9116,2.50166 6.7166,4.65836 16.0904,9.1201 5.6843,2.70561 11.1719,7.27068 12.0443,10.01961 0.7246,2.28284 4.2994,2.40818 10.1868,0.35717 3.8393,-1.33753 4.5554,-1.31304 7.7331,0.26455 1.9261,0.95621 3.7379,2.41357 4.0263,3.23857 0.4336,1.2406 7.3382,9.08753 15.1785,17.25 0.9245,0.9625 2.67,1.75 3.8789,1.75 4.2152,0 11.2408,3.92206 13.4612,7.51475 2.1581,3.49182 4.6679,4.40828 6.6485,2.4277 z M 585.88233,590.5052 c 0,-3.40705 3.9918,-10.33853 7.0426,-12.22907 1.1104,-0.68808 3.1913,-2.93856 4.6242,-5.00106 1.4328,-2.0625 3.1453,-3.75 3.8053,-3.75 0.6601,0 4.0333,-2.27375 7.496,-5.05278 5.4189,-4.34891 21.2621,-12.94722 23.8565,-12.94722 0.476,0 1.6799,-0.9 2.6754,-2 0.9955,-1.1 2.2603,-2 2.8106,-2 0.5503,0 2.4448,-1.10154 4.21,-2.44787 2.8008,-2.1363 3.2985,-3.23664 3.9104,-8.64461 0.3856,-3.40821 1.807,-10.51917 3.1588,-15.80213 2.6281,-10.27085 3.8614,-14.0715 7.1732,-22.10539 0.5668,-1.375 2.0383,-5.425 3.2699,-9 1.2317,-3.575 2.4771,-7.12985 2.7677,-7.89968 1.1492,-3.04481 -5.2999,0.14656 -11.0454,5.46588 -3.2281,2.98859 -6.4661,5.4338 -7.1956,5.4338 -1.7957,0 -2.6339,3.68279 -1.8929,8.317 0.4762,2.97793 0.1403,4.45285 -1.5282,6.70951 -1.1762,1.59088 -2.1385,3.24919 -2.1385,3.68514 0,1.55726 -8.5606,9.93258 -11.798,11.54271 -1.8139,0.90214 -7.2139,2.60603 -12,3.78642 -16.8774,4.16245 -19.9546,5.42145 -31.702,12.9704 -11.1004,7.13322 -17.3691,9.52471 -27.2751,10.40547 -7.0557,0.62734 -9.9512,1.92879 -15.7249,7.06802 -2.2,1.95824 -6.025,4.53176 -8.5,5.71893 -7.0096,3.36223 -7.4368,5.78577 -1.4046,7.96705 1.8725,0.67712 3.4046,1.59073 3.4046,2.03024 0,1.43049 3.7197,0.84175 5.0865,-0.80507 4.0704,-4.90456 16.995,-4.65903 22.0699,0.41928 0.9261,0.92669 3.4634,2.96634 5.6385,4.53255 2.2953,1.65276 4.8828,4.79982 6.1664,7.5 1.6321,3.43313 3.3029,5.20477 6.3752,6.7603 5.8328,2.95309 6.6635,2.87481 6.6635,-0.62782 z"
     id="path2989"
     inkscape:connector-curvature="0" />
</svg>
