<?xml version="1.0" encoding="UTF-8" standalone="no"?>
<!-- Created with Inkscape (http://www.inkscape.org/) -->

<svg
   xmlns:dc="http://purl.org/dc/elements/1.1/"
   xmlns:cc="http://creativecommons.org/ns#"
   xmlns:rdf="http://www.w3.org/1999/02/22-rdf-syntax-ns#"
   xmlns:svg="http://www.w3.org/2000/svg"
   xmlns="http://www.w3.org/2000/svg"
   xmlns:sodipodi="http://sodipodi.sourceforge.net/DTD/sodipodi-0.dtd"
   xmlns:inkscape="http://www.inkscape.org/namespaces/inkscape"
   id="svg2"
   version="1.1"
   inkscape:version="0.48.2 r9819"
   width="763.07935"
   height="768.31158"
   sodipodi:docname="causesclbres07fouq_00112c.png">
  <metadata
     id="metadata8">
    <rdf:RDF>
      <cc:Work
         rdf:about="">
        <dc:format>image/svg+xml</dc:format>
        <dc:type
           rdf:resource="http://purl.org/dc/dcmitype/StillImage" />
        <dc:title></dc:title>
      </cc:Work>
    </rdf:RDF>
  </metadata>
  <defs
     id="defs6" />
  <sodipodi:namedview
     pagecolor="#ffffff"
     bordercolor="#666666"
     borderopacity="1"
     objecttolerance="10"
     gridtolerance="10"
     guidetolerance="10"
     inkscape:pageopacity="0"
     inkscape:pageshadow="2"
     inkscape:window-width="1600"
     inkscape:window-height="876"
     id="namedview4"
     showgrid="false"
     fit-margin-top="0"
     fit-margin-left="0"
     fit-margin-right="0"
     fit-margin-bottom="0"
     inkscape:zoom="1"
     inkscape:cx="393.12333"
     inkscape:cy="442.31159"
     inkscape:window-x="0"
     inkscape:window-y="24"
     inkscape:window-maximized="1"
     inkscape:current-layer="svg2" />
  <path
     style="fill:#000000"
     d="m 567.85593,766.01162 c -5.0779,-1.42196 -12.6076,-4.43982 -16.7326,-6.70635 -4.125,-2.26653 -12.225,-5.45804 -18,-7.09225 -10.2838,-2.91009 -19.5887,-3.86385 -45.5,-4.66372 -7.7264,-0.23852 -11.45326,-1.74371 -15.9005,-6.42183 -2.87746,-3.02685 -2.89579,-3.1237 -2.30799,-12.19645 0.43888,-6.77418 1.06128,-9.68071 2.4005,-11.21009 1.03864,-1.18612 1.20376,-1.709 0.38805,-1.22878 -1.10659,0.65146 -1.24685,0.41355 -0.63559,-1.07811 0.4314,-1.05272 1.12387,-4.38904 1.53883,-7.41404 0.41495,-3.025 0.81347,-4.2625 0.88558,-2.75 0.082,1.7195 0.69321,2.75 1.63112,2.75 1.63409,0 2.03163,-1.5534 0.62071,-2.4254 -0.48361,-0.29889 -1.12578,-1.48599 -1.42704,-2.63801 -0.40085,-1.53286 -0.16505,-1.94772 0.87929,-1.54696 1.71595,0.65847 1.7932,-0.32948 0.3186,-4.07453 -0.66379,-1.68583 -1.24441,-12.45207 -1.4474,-26.83864 -0.29682,-21.03673 -0.7787,-27.0927 -3.8758,-48.7093 -1.94525,-13.57717 -3.2632,-25.49157 -2.92878,-26.47646 0.33443,-0.98488 1.97141,-4.66805 3.63774,-8.18481 3.35839,-7.08785 3.76553,-13.40165 1.32875,-20.60589 -2.69676,-7.9729 -3.60607,-11.171 -3.60607,-12.68285 0,-0.84748 -1.6875,-4.86553 -3.75,-8.92901 -2.0625,-4.06348 -4.57885,-9.32058 -5.5919,-11.68245 -1.26485,-2.94894 -3.88503,-5.92521 -8.36341,-9.5 -6.63959,-5.29994 -22.27132,-24.83686 -23.77431,-29.71371 -0.4224,-1.37059 -4.37752,-5.99165 -8.78915,-10.26902 -6.48254,-6.28525 -9.8636,-8.65349 -17.62619,-12.34617 -16.65458,-7.92261 -17.4802,-8.38236 -24.61734,-13.7082 -13.46911,-10.05084 -22.02271,-15.50488 -25.9877,-16.57056 -2.2,-0.59129 -8.7621,-1.51479 -14.58244,-2.05221 -14.03444,-1.29587 -18.72737,-0.007 -21.95929,6.03216 -0.56575,1.05711 -1.60361,1.92202 -2.30636,1.92202 -0.70275,0 -2.57111,1.35 -4.15191,3 -1.5808,1.65 -3.35249,3.00028 -3.93709,3.00063 -1.70097,10e-4 -12.56291,8.90119 -12.56291,10.29395 0,0.69593 -1.471,2.65281 -3.26888,4.34862 -3.7747,3.56039 -5.62504,7.09986 -8.81229,16.8568 -1.25766,3.85 -3.10221,8.35 -4.09901,10 -0.99679,1.65 -1.81403,3.7598 -1.81608,4.68845 -0.004,1.97414 -9.58355,14.90246 -16.90211,22.81155 -2.79913,3.025 -5.0921,5.84755 -5.09548,6.27234 -0.003,0.42479 -1.75768,2.67479 -3.89845,5 -2.14076,2.32521 -6.69379,9.75048 -10.11783,16.5006 -7.40012,14.58848 -10.01565,17.14069 -23.16231,22.60151 -7.54205,3.1328 -10.38994,4.95132 -14.87744,9.5 -6.30513,6.3911 -7.83849,8.67196 -10.34869,15.39359 -3.92349,10.50606 -11.92744,19.65646 -21.79337,24.91495 -3.56279,1.89894 -5.70496,3.6433 -5.41194,4.40691 0.26675,0.69513 -0.16325,1.80187 -0.95556,2.45943 -0.79231,0.65756 -1.44056,1.78093 -1.44056,2.49639 0,0.71546 -1.04123,2.57286 -2.31383,4.12755 -1.27261,1.5547 -3.10954,4.40173 -4.08206,6.32673 -4.38449,8.67864 -6.364,11.45042 -9.21771,12.90694 -2.90402,1.4822 -5.3864,5.04061 -5.3864,7.72122 0,1.68215 -6.40832,8.35311 -8.11808,8.45079 -0.86353,0.0493 -0.95244,0.25501 -0.23702,0.5483 0.83475,0.3422 0.8582,1.22894 0.0866,3.27325 -0.81456,2.15801 -0.67518,3.9754 0.60509,7.88959 2.14532,6.55894 2.21111,6.04886 -1.66469,12.90586 l -3.32814,5.88808 1.92592,4.45799 c 1.61211,3.7316 1.80777,5.68002 1.20082,11.95798 -0.3988,4.125 -0.71559,8.50952 -0.70397,9.74338 0.0116,1.23386 -0.33913,2.02074 -0.77943,1.74862 -0.4403,-0.27212 -0.5728,0.37613 -0.29445,1.44056 0.6682,2.55518 -1.52083,9.06744 -3.04792,9.06744 -0.66012,0 -1.97081,0.9 -2.91266,2 -0.94185,1.1 -2.77471,2 -4.07302,2 -1.29831,0 -3.84558,0.51768 -5.6606,1.1504 -2.49603,0.87012 -4.42055,0.86557 -7.89922,-0.0187 -8.966608,-2.27923 -9.043388,-2.27119 -11.139868,1.16714 -1.07351,1.76063 -1.95353,4.38879 -1.95558,5.84036 -0.005,3.37442 -2.85692,6.90329 -5.75374,7.11891 -1.2375,0.0921 -2.25,0.40922 -2.25,0.70467 0,0.29546 -1.2375,0.61117 -2.75,0.70157 -1.5125,0.0904 -6.125,0.62136 -10.25,1.1799 -4.125,0.55855 -9.77344,1.32422 -12.5521,1.70149 -3.06469,0.41611 -9.16212,0.0748 -15.5,-0.86755 -5.74638,-0.8544 -13.14794,-1.8428 -16.44794,-2.19643 -3.3,-0.35362 -6.99667,-1.28168 -8.21482,-2.06236 -1.21815,-0.78067 -3.06785,-1.4194 -4.11045,-1.4194 -1.0426,0 -3.4209296,-1.0343 -5.2851796,-2.29845 -1.86425,-1.26415 -4.17705,-2.60003 -5.13955,-2.96862 -2.97853,-1.14062 -2.30241995,-8.06967 1.29804,-13.30275 1.67642,-2.4366 3.36852,-4.43018 3.76022,-4.43018 0.3917,0 2.03576,-1.2375 3.6534596,-2.75 1.61771,-1.5125 3.94979,-3.2 5.18241,-3.75 1.23262,-0.55 3.97985,-2.62506 6.10496,-4.61124 4.2538,-3.97571 8.12251,-6.35049 8.96804,-5.50496 0.30021,0.30021 1.38239,0.0981 2.40484,-0.44908 1.02246,-0.5472 3.47197,-1.05554 5.44336,-1.12966 2.78892,-0.10484 4.13802,-0.86065 6.07928,-3.40577 1.37222,-1.79907 3.77595,-3.55239 5.34162,-3.89627 1.56568,-0.34388 3.07294,-1.21483 3.34947,-1.93545 0.27652,-0.72062 1.72562,-1.61713 3.22021,-1.99225 1.49459,-0.37511 4.11844,-1.71613 5.83076,-2.98002 1.71233,-1.26389 6.03833,-4.02732 9.61333,-6.14094 9.33045,-5.51637 11.69241,-7.97536 13.15966,-13.70026 0.70264,-2.74155 1.87333,-5.21326 2.60153,-5.4927 2.92584,-1.12275 5.52265,-8.59254 5.8249,-16.75545 0.16304,-4.40327 0.52265,-9.35595 0.79913,-11.00595 0.27649,-1.65 0.78364,-5.7 1.12701,-9 0.34336,-3.3 1.45647,-9.15 2.47356,-13 1.0171,-3.85 2.324898,-10.825 2.906228,-15.5 1.1707,-9.41464 3.5883,-25.05665 4.94585,-32 1.40737,-7.19819 5.21479,-16.22457 8.37987,-19.86649 1.60915,-1.85157 3.67101,-5.00157 4.58192,-7 0.9109,-1.99843 2.7118,-4.94497 4.002,-6.54786 3.98023,-4.9449 16.18445,-14.60604 21.57485,-17.07914 2.81792,-1.29285 6.44518,-3.73571 8.06058,-5.42857 1.6154,-1.69287 3.26829,-3.07794 3.67308,-3.07794 0.40479,0 2.07811,-1.2375 3.71849,-2.75 1.64037,-1.5125 4.37499,-3.79673 6.07692,-5.07606 1.70193,-1.27933 3.09442,-2.96683 3.09442,-3.75 0,-0.78317 0.45,-1.42394 1,-1.42394 0.55,0 1,-0.51765 1,-1.15033 0,-1.40221 5.11931,-12.14635 6.12887,-12.86295 0.39772,-0.2823 1.2676,-2.7573 1.93309,-5.5 0.66548,-2.7427 1.59878,-5.41422 2.074,-5.93672 0.47522,-0.5225 0.86404,-2.41383 0.86404,-4.20295 0,-3.33178 1.48801,-7.67946 3.54131,-10.34705 0.63502,-0.825 1.71602,-3.75 2.40224,-6.5 1.29013,-5.17023 1.90902,-7.30387 4.01517,-13.84263 1.26009,-3.91206 1.48207,-4.97148 3.07109,-14.65737 2.36472,-14.41414 2.81025,-16.73577 3.83805,-20 0.60613,-1.925 1.50858,-4.4 2.00545,-5.5 5.82242,-12.88989 6.1464,-14.12307 5.12515,-19.50811 -1.47891,-7.79829 -1.2281,-12.36626 1.00104,-18.23116 1.09972,-2.8934 2.01045,-7.06073 2.02385,-9.26073 0.042,-6.88874 1.57812,-11.13371 6.21125,-17.16384 2.46625,-3.20989 6.04513,-9.21116 7.95307,-13.33616 1.90794,-4.125 4.22123,-8.1176 5.14065,-8.87244 0.91943,-0.75485 1.67168,-2.12735 1.67168,-3.05 0,-0.92266 0.40854,-2.10506 0.90787,-2.62756 0.49933,-0.5225 2.12518,-3.2 3.61301,-5.95 1.48783,-2.75 4.92947,-7.13973 7.64808,-9.75496 2.71862,-2.61523 4.68543,-5.17163 4.37068,-5.6809 -0.31474,-0.50927 -0.0966,-1.21991 0.48473,-1.5792 0.58134,-0.35929 0.76547,-1.57174 0.40917,-2.69433 -0.39554,-1.24623 -0.25937,-1.801 0.34968,-1.42459 1.21192,0.74901 2.51056,-5.43686 1.62557,-7.74312 -0.48089,-1.25318 -0.21972,-1.48758 1.09527,-0.98297 1.40945,0.54086 1.601,0.26645 1.04246,-1.49336 -0.66982,-2.11041 2.52244,-7.74428 3.71329,-6.55342 0.28893,0.28892 1.81117,-1.29173 3.38276,-3.51256 1.57159,-2.22084 3.41993,-4.0475 4.10743,-4.05924 1.28959,-0.022 1.62391,-1.16291 1.28375,-4.38085 -0.10811,-1.02272 0.58423,-4.74401 1.53855,-8.26952 1.39916,-5.16891 2.18941,-6.52405 4.08141,-6.99891 1.29046,-0.32389 2.34629,-0.94443 2.34629,-1.37899 0,-0.43455 3.14197,-1.10563 6.98215,-1.49129 7.27734,-0.73083 9.03103,-1.8475 16.61954,-10.58256 1.15592,-1.33058 4.07363,-3.99423 6.48379,-5.91923 7.81893,-6.24499 11.90865,-10.20048 11.39909,-11.02497 -0.27438,-0.44396 -0.0122,-2.08246 0.58253,-3.64111 0.59478,-1.55866 1.26864,-4.40892 1.49748,-6.33392 1.01469,-8.53572 1.79458,-11.54214 3.2749,-12.62458 1.3349,-0.9761 1.3744,-1.41278 0.25033,-2.76721 C 318.47905,186.7237 318.30854,186 318.83422,186 c 0.52568,0 0.95578,-0.65521 0.95578,-1.45601 0,-0.80081 -0.375,-1.22425 -0.83334,-0.94098 -1.49173,0.92194 -0.87709,-3.3218 0.66667,-4.60301 0.825,-0.68469 1.5,-2.48835 1.5,-4.00814 0,-1.51978 0.67223,-4.05218 1.49384,-5.62755 0.82161,-1.57537 1.49661,-3.83931 1.5,-5.03098 0.003,-1.19166 0.56866,-2.42916 1.25616,-2.75 1,-0.46666 1,-0.7 0,-1.16666 -1.89409,-0.88391 -1.49702,-7.604 0.74936,-12.68232 2.08428,-4.71185 3.37728,-5.6735 7.83243,-5.82521 1.80878,-0.0616 0.90469,-0.56881 -2.80689,-1.57471 -3.71896,-1.0079 -5.58915,-1.14169 -5.83067,-0.41712 -0.23782,0.71346 -0.95322,0.74686 -2.16031,0.10084 -2.73419,-1.46329 -9.25584,-0.88931 -11.2756,0.99239 -0.98564,0.91826 -3.02198,2.28825 -4.5252,3.04442 -1.50322,0.75617 -5.20812,3.81507 -8.23312,6.79755 -6.99224,6.89396 -11.82232,9.06067 -17.95393,8.05388 -9.19867,-1.51038 -14.04607,-1.69125 -14.04607,-0.5241 0,0.62514 -0.91746,1.70958 -2.0388,2.40987 -1.12134,0.70029 -1.81021,1.64312 -1.53082,2.09519 0.86549,1.40039 -3.77172,4.93504 -6.93038,5.28257 -2.49328,0.27433 -2.95578,0.73264 -2.73817,2.71337 0.33692,3.06689 -0.95051,4.54527 -6.84243,7.85728 -2.64057,1.48434 -5.01392,3.51286 -5.2741,4.50782 -0.26019,0.99496 -1.01074,1.6836 -1.66789,1.53031 -0.65714,-0.15328 -2.6084,1.78953 -4.33611,4.31736 -3.1048,4.54266 -8.42613,8.90043 -10.87728,8.90768 -0.69521,0.002 -2.67546,0.86439 -4.40055,1.9163 -3.07747,1.87654 -3.11898,2.00358 -2.20432,6.74626 1.11559,5.78455 0.43873,10.17603 -1.82336,11.83012 -1.43719,1.0509 -0.83511,1.62965 4.53336,4.35771 3.40487,1.73023 7.25406,3.14587 8.55377,3.14587 1.29971,0 2.63625,0.7118 2.97009,1.58179 0.80052,2.08611 0.78428,7.92884 -0.0198,7.12476 -0.34474,-0.34473 -1.89739,0.0303 -3.45034,0.83333 -9.50222,4.91379 -27.65636,-1.9752 -29.37715,-11.1478 C 199.07491,221.22495 198.7742,221 195.13472,221 c -2.6033,0 -4.33199,0.59795 -5.20469,1.8003 -0.71868,0.99016 -2.77492,2.39713 -4.56942,3.12659 -3.32807,1.35285 -4.99891,4.64595 -3.86134,7.61041 0.3254,0.84797 0.058,2.39621 -0.59416,3.44052 -0.92966,1.48862 -0.89065,2.45024 0.18062,4.45192 0.98995,1.84974 1.08859,3.17544 0.35803,4.81172 -0.70681,1.58308 -0.64816,3.12519 0.19608,5.15636 1.4174,3.41011 0.35179,9.52845 -2.29349,13.16842 -1.27088,1.74876 -2.70206,2.37916 -5.45397,2.40234 -3.27612,0.0276 -3.8003,-0.30382 -4.29985,-2.71858 -0.3129,-1.5125 -1.20385,-5 -1.97988,-7.75 -0.77604,-2.75 -2.21098,-8.03921 -3.18875,-11.7538 -0.97777,-3.71459 -2.2329,-6.60282 -2.78917,-6.41829 -0.55627,0.18453 -1.3352,3.44874 -1.73096,7.2538 -1.70317,16.37521 -1.91285,17.41879 -3.69117,18.37051 -4.91513,2.6305 -10.48151,-4.04401 -9.91722,-11.89149 0.18037,-2.5084 -0.12205,-4.78573 -0.67205,-5.06073 -0.55,-0.275 -1.12867,1.075 -1.28592,3 -0.6393,7.82568 -4.50714,12.6051 -7.45971,9.21782 -2.77912,-3.18827 -3.95848,-6.44728 -3.37994,-9.33999 0.49781,-2.48904 0.27126,-2.87783 -1.67692,-2.87783 -5.77753,0 -8.41209,-5.45358 -5.08649,-10.52909 1.45591,-2.222 1.4648,-2.82415 0.0924,-6.25419 -1.12302,-2.80671 -1.24376,-4.30623 -0.46349,-5.75609 C 128.36183,220.74694 136.28051,212 137.64395,212 c 2.00306,0 4.47938,-4.01812 4.47938,-7.26831 0,-1.55282 1.125,-4.93661 2.5,-7.51954 1.375,-2.58293 2.5,-6.19234 2.5,-8.02092 0,-3.89094 4.33593,-10.19123 7.01373,-10.19123 0.97699,0 2.83608,-1.16077 4.13131,-2.57948 1.29523,-1.41871 4.71746,-5.01882 7.60496,-8.00024 5.59635,-5.77838 6.13519,-7.05253 3.72717,-8.81332 -0.83756,-0.61244 -1.80065,-2.82549 -2.1402,-4.91789 -0.50636,-3.12034 -0.25019,-4.06155 1.42474,-5.23472 1.12316,-0.78669 2.74737,-3.50019 3.60937,-6.03 0.86199,-2.52982 3.08123,-6.707 4.93163,-9.28262 2.25005,-3.1319 3.57898,-6.3322 4.0123,-9.66235 1.56637,-12.0376 2.7281,-18.47866 3.72419,-20.64815 0.58869,-1.28218 3.18319,-3.73367 5.76557,-5.44776 2.58238,-1.71409 8.80835,-6.77659 13.83549,-11.25 C 209.79073,82.66006 214.39942,79 215.00511,79 c 0.6057,0 1.66333,-0.9 2.35029,-2 0.68696,-1.1 1.76763,-2 2.40149,-2 0.63385,0 1.41309,-0.67917 1.73163,-1.50928 0.31854,-0.8301 0.93787,-1.3926 1.3763,-1.25 0.43842,0.14261 1.91345,-0.78257 3.27782,-2.05593 1.36438,-1.27337 4.40359,-3.59166 6.7538,-5.15175 4.69719,-3.11804 9.07352,-3.23717 16.49713,-0.44905 5.38869,2.02386 17.29774,1.80123 23.82321,-0.44535 2.9736,-1.02375 8.55655,-3.41341 12.40655,-5.31035 3.85,-1.89694 9.25,-4.05415 12,-4.79381 2.75,-0.73965 5.63223,-1.8375 6.40495,-2.43965 1.75563,-1.36811 14.62715,-1.22546 16.33378,0.18102 0.6937,0.5717 3.96127,1.3271 7.26127,1.67867 3.3,0.35157 8.25,0.97372 11,1.38254 3.12417,0.46445 7.06342,0.27265 10.5,-0.51125 3.025,-0.69001 6.7375,-1.2706 8.25,-1.29019 1.5125,-0.0196 2.75,-0.54072 2.75,-1.15806 0,-0.80699 0.39655,-0.79334 1.41097,0.0486 0.96456,0.8005 1.61601,0.83924 2.05902,0.12244 0.35642,-0.57671 1.94219,-1.04856 3.52393,-1.04856 4.10519,0 7.98229,-1.68228 10.74342,-4.6616 2.1766,-2.34858 2.85387,-2.51965 7.57646,-1.91366 2.85241,0.36601 5.68581,1.32018 6.29644,2.12037 0.61064,0.80019 1.89263,1.45489 2.84887,1.45489 0.95625,0 3.15664,0.61176 4.88976,1.35947 7.58679,3.27311 9.05642,3.64053 14.56169,3.64053 3.19905,0 8.24038,0.5136 11.20295,1.14133 2.96257,0.62774 11.62331,1.19024 19.24608,1.25 l 13.8596,0.10867 2.71323,3.25 c 3.54102,4.24155 5.70185,4.37722 3.55368,0.22312 -1.22045,-2.36009 -1.34533,-3.82342 -0.56688,-6.64273 1.01624,-3.68052 0.0431,-7.33039 -1.9544,-7.33039 -1.30881,0 -1.22944,-3.71842 0.0969,-4.53812 1.77036,-1.09414 3.22308,-5.74657 3.00462,-9.62246 -0.21552,-3.82375 2.07877,-11.82931 4.42774,-15.4499 C 471.35195,12.715903 479.91283,7 482.18253,7 c 0.944,0 4.006,-1.575 6.8045,-3.5 4.0928,-2.815347 6.0335,-3.5 9.9211,-3.5 2.7013,0 5.6891,0.647554 6.7741,1.468197 1.0676,0.807508 2.976,1.482508 4.2408,1.5 3.4584,0.04783 7.6701,2.572696 8.9397,5.359271 0.6209,1.362603 4.0835,4.585851 7.6947,7.162772 3.6112,2.57692 6.5659,5.05179 6.5659,5.49971 0,0.44792 1.2375,1.30192 2.75,1.89778 1.5125,0.59586 3.425,1.47212 4.25,1.94724 0.825,0.47512 2.85,1.56528 4.5,2.42257 2.0119,1.04533 4.3174,4.01073 7,9.00344 2.2601,4.20638 6.2333,9.5749 9.1343,12.34187 5.0159,4.7842 9.3657,12.80675 9.3657,17.27351 0,1.10308 0.3889,2.24597 0.8643,2.53976 0.4753,0.29378 1.1935,7.18284 1.5959,15.30901 0.4618,9.32375 1.1575,15.04593 1.8858,15.50956 0.7715,0.49119 0.6314,0.73976 -0.4228,0.75 -1.161,0.0113 -1.4669,0.76384 -1.1602,2.85405 0.2573,1.75261 -0.2028,3.45821 -1.2024,4.4578 -1.4921,1.49207 -1.4403,1.7347 0.6602,3.09353 1.2536,0.81097 3.5564,1.78872 5.1175,2.17278 2.6138,0.64307 8.6617,7.38373 8.6617,9.65391 0,2.2971 6.1907,8.59232 14.6413,14.88851 5.0761,3.78202 9.5067,7.32513 9.8456,7.87356 0.339,0.54844 1.2634,3.48164 2.0544,6.51823 0.7909,3.03659 2.9886,7.77524 4.8838,10.53033 1.8951,2.75509 4.6498,7.58851 6.1214,10.74093 5.3106,11.37637 5.9995,12.56755 9.0373,15.62645 1.6961,1.70788 4.9919,4.36222 7.3242,5.89854 3.1446,2.0715 4.8894,4.26797 6.7519,8.5 1.3814,3.13868 3.5318,7.74939 4.7788,10.24603 1.2469,2.49663 2.8134,6.19441 3.481,8.21727 1.158,3.50897 6.0967,8.74339 8.2493,8.74339 0.5586,0 2.1042,0.85637 3.4349,1.90304 2.1053,1.65607 5.373,2.66401 15.1698,4.67924 1.6147,0.33217 2.9912,2.09036 4.75,6.06714 1.362,3.07969 2.4763,6.03794 2.4763,6.57388 0,0.53594 0.6328,2.39245 1.4062,4.12557 0.7734,1.73312 1.6836,4.39514 2.0227,5.91559 0.339,1.52045 2.7723,5.14498 5.4072,8.0545 3.624,4.00183 5.2265,6.84341 6.5804,11.66885 1.8437,6.57059 4.1339,10.78572 10.1244,18.63377 2.6072,3.41553 3.4591,5.51198 3.4591,8.5122 0,7.78351 1.9593,12.73262 6.5646,16.58218 2.3625,1.97486 4.5819,4.73172 4.932,6.12635 0.35,1.39464 1.619,3.90381 2.8199,5.57595 1.2009,1.67214 2.6438,3.94363 3.2064,5.04776 0.5771,1.13248 2.5386,2.31667 4.5,2.71679 11.8664,2.42061 14.6162,3.08887 16.2015,3.93731 4.6456,2.4862 9.0146,19.08345 5.3897,20.47445 -1.3091,0.50236 -1.5226,1.40772 -1.0073,4.27145 0.3597,1.99869 1.0678,4.15716 1.5735,4.7966 1.2615,1.59496 -1.276,7.28856 -4.4566,9.99941 -2.1761,1.85483 -2.6284,3.27577 -3.1825,10 -1.0641,12.91041 -1.6722,14.78782 -4.9117,15.16293 -5.5616,0.64399 -9.9418,-6.40943 -9.8633,-15.88307 0.027,-3.26804 -0.3381,-5.94189 -0.8115,-5.94189 -1.0718,0 -2.9416,6.53895 -2.9491,10.31336 0,2.56564 -0.2889,2.78577 -3.2237,2.5 -4.7573,-0.46324 -7.7819,-5.42322 -7.7819,-12.76124 0,-3.10867 -0.3956,-6.07962 -0.8792,-6.60212 -0.4836,-0.5225 -1.4201,-2.64247 -2.0812,-4.71104 -0.6791,-2.12484 -2.6268,-4.84777 -4.477,-6.25904 -3.0994,-2.36402 -3.4614,-2.42016 -6.7484,-1.04673 -6.4197,2.68229 -7.2198,6.35568 -2.3901,10.97294 2.4257,2.31898 6.5759,11.39095 6.5759,14.37426 0,2.37981 -2.665,4.85544 -6.1678,5.72948 -2.1532,0.53727 -2.9051,0.21467 -3.8973,-1.67208 -1.8615,-3.53941 -5.7073,-7.0965 -6.8853,-6.36842 -2.5414,1.57062 -5.4723,-2.18792 -13.1305,-16.83815 -2.992,-5.7237 -3.1534,-5.85489 -6.5294,-5.30704 -4.4326,0.71932 -10.8341,-1.53402 -14.4082,-5.07177 -2.4617,-2.43659 -2.8379,-3.67036 -3.2786,-10.75241 -0.6617,-10.63364 -0.694,-10.73466 -5.5662,-17.42534 -2.7713,-3.80557 -5.9405,-6.73854 -9.1954,-8.51011 -5.5005,-2.99371 -9.967,-8.04863 -28.3481,-32.0825 -1.2695,-1.65987 -4.8115,-4.24371 -7.8711,-5.74186 -3.0596,-1.49816 -6.1615,-3.29008 -6.8931,-3.98205 -0.7316,-0.69198 -3.0486,-2.73431 -5.149,-4.53852 -3.9405,-3.38496 -7.5364,-9.44992 -12.8464,-21.66768 -6.2649,-14.41472 -7.903,-17.71003 -9.8331,-19.78178 -1.0877,-1.1675 -2.21,-2.8548 -2.494,-3.74956 -0.2839,-0.89476 -2.5391,-2.60958 -5.0114,-3.81072 -2.4723,-1.20114 -4.4951,-2.57853 -4.4951,-3.06088 0,-0.48235 -1.885,-2.1757 -4.1888,-3.763 -2.3038,-1.5873 -5.1171,-3.786 -6.2517,-4.886 -1.1346,-1.1 -3.4852,-3.17525 -5.2235,-4.61166 -1.7383,-1.43642 -3.3126,-3.68182 -3.4983,-4.98979 -0.4273,-3.00939 -3.8377,-3.9255 -3.8377,-1.03089 0,1.10787 -0.4108,2.26822 -0.913,2.57856 -0.5021,0.31034 -1.2219,2.4744 -1.5994,4.80902 -0.4449,2.75104 -1.8271,5.4764 -3.9279,7.74476 -1.7828,1.925 -4.2673,5.975 -5.5212,9 -1.2538,3.025 -4.5421,8.62224 -7.3072,12.43832 -2.7651,3.81608 -6.0268,9.44108 -7.2483,12.5 -2.4921,6.24153 -7.4153,15.0957 -7.5406,13.56168 -0.045,-0.55 -0.7138,1.025 -1.4863,3.5 -0.7726,2.475 -3.0463,6.3 -5.0528,8.5 -9.0355,9.90705 -14.9993,21.06201 -18.7314,35.03641 -2.90423,10.87456 -5.91358,17.10673 -9.88159,20.46415 -1.98985,1.68366 -3.25699,3.97049 -3.87873,7 -2.57544,12.54914 -3.33455,14.10636 -8.76839,17.98739 -2.85522,2.0393 -6.98049,4.29829 -9.16725,5.01999 -5.67448,1.87275 -5.38609,2.97405 1.15135,4.39679 3.33427,0.72564 6.30727,5.20268 6.04496,9.1031 -0.16943,2.51929 0.606,3.64808 4.77413,6.9497 4.8885,3.87223 6.6682,6.67781 7.25711,11.44034 0.33711,2.72623 0.62166,2.90739 10.63471,6.77079 5.824,2.24713 8.1556,3.80081 11.2999,7.52982 2.179,2.58416 4.8383,4.97665 5.9096,5.31665 1.0712,0.33999 2.2228,1.7145 2.5591,3.05447 0.3363,1.33996 1.9819,3.58944 3.6569,4.99883 3.6343,3.05802 8.5745,11.01921 11.1274,17.93157 1.0156,2.75 3.05,6.575 4.5208,8.5 1.4708,1.925 4.0812,6.68551 5.8007,10.5789 3.4218,7.74747 10.2874,25.74206 10.2874,26.96298 0,0.76302 2.8453,7.03253 7.923,17.45812 5.2537,10.78706 6.4652,23.67824 2.7608,29.37648 -3.2756,5.03856 -3.966,9.46458 -2.2802,14.61856 0.878,2.68442 1.5823,7.4962 1.565,10.69286 -0.027,5.01437 -0.3715,6.05963 -2.509,7.61556 -1.3627,0.99191 -2.9874,1.48838 -3.6105,1.10327 -0.8361,-0.51673 -0.8993,1.49985 -0.241,7.69654 1.8788,17.68765 0.5628,41.924 -2.5906,47.71213 -0.5048,0.92653 -2.0709,5.7346 -3.4803,10.6846 -1.4093,4.95 -2.9783,9.14053 -3.4867,9.31229 -0.5083,0.17176 -0.7058,2.12436 -0.4389,4.3391 0.2959,2.45429 -0.01,4.62147 -0.7784,5.54958 -2.1079,2.53987 0.058,16.30267 3.6719,23.32704 2.7901,5.42389 10.0156,12.91941 16.8003,17.42813 11.8328,7.86332 20.2123,13.80429 23.3626,16.5638 1.7425,1.52627 5.5675,3.67423 8.5,4.77326 2.9326,1.09903 7.8907,3.17016 11.0179,4.60252 3.1273,1.43235 6.5023,2.59973 7.5,2.59416 0.9978,-0.006 4.6901,1.00008 8.2053,2.23477 5.0015,1.75678 6.8793,3.00921 8.6364,5.76012 3.6532,5.71954 3.7973,10.1114 0.5022,15.30717 -3.7516,5.91571 -8.3586,9.19801 -15.0298,10.70808 -3.025,0.68474 -6.4,1.61333 -7.5,2.06353 -4.8938,2.00291 -15.4612,1.55408 -24.7674,-1.05193 z M 475.9302,710.47354 c -0.30789,-0.30789 -0.86705,0.24711 -1.24258,1.23333 -0.54268,1.4252 -0.42782,1.54006 0.5598,0.5598 0.68342,-0.67834 0.99067,-1.48524 0.68278,-1.79313 z"
     id="path2987"
     inkscape:connector-curvature="0" />
</svg>
