<?xml version="1.0" encoding="UTF-8" standalone="no"?>
<!-- Created with Inkscape (http://www.inkscape.org/) -->

<svg
   xmlns:dc="http://purl.org/dc/elements/1.1/"
   xmlns:cc="http://creativecommons.org/ns#"
   xmlns:rdf="http://www.w3.org/1999/02/22-rdf-syntax-ns#"
   xmlns:svg="http://www.w3.org/2000/svg"
   xmlns="http://www.w3.org/2000/svg"
   xmlns:sodipodi="http://sodipodi.sourceforge.net/DTD/sodipodi-0.dtd"
   xmlns:inkscape="http://www.inkscape.org/namespaces/inkscape"
   id="svg2"
   version="1.1"
   inkscape:version="0.48.2 r9819"
   width="1305.3898"
   height="2342.3904"
   sodipodi:docname="celticfairytale00jacorich_0245b2.png">
  <metadata
     id="metadata8">
    <rdf:RDF>
      <cc:Work
         rdf:about="">
        <dc:format>image/svg+xml</dc:format>
        <dc:type
           rdf:resource="http://purl.org/dc/dcmitype/StillImage" />
        <dc:title></dc:title>
      </cc:Work>
    </rdf:RDF>
  </metadata>
  <defs
     id="defs6" />
  <sodipodi:namedview
     pagecolor="#ffffff"
     bordercolor="#666666"
     borderopacity="1"
     objecttolerance="10"
     gridtolerance="10"
     guidetolerance="10"
     inkscape:pageopacity="0"
     inkscape:pageshadow="2"
     inkscape:window-width="1600"
     inkscape:window-height="876"
     id="namedview4"
     showgrid="false"
     fit-margin-top="0"
     fit-margin-left="0"
     fit-margin-right="0"
     fit-margin-bottom="0"
     inkscape:zoom="0.5"
     inkscape:cx="341.37919"
     inkscape:cy="1972.5214"
     inkscape:window-x="0"
     inkscape:window-y="24"
     inkscape:window-maximized="1"
     inkscape:current-layer="svg2" />
  <path
     style="fill:#000000"
     d="m 676.52416,2341.9568 c -1.375,-0.383 -5.0884,-0.7791 -8.252,-0.88 -3.1636,-0.101 -6.7889,-0.5779 -8.0563,-1.0597 -3.5214,-1.3389 -8.5815,-5.9529 -10.3547,-9.442 -1.6049,-3.1579 -4.0945,-5.9894 -5.9168,-6.7294 -0.5438,-0.2208 -3.7575,-3.3973 -7.1417,-7.0589 -9.0037,-9.7416 -9.4285,-15.0518 -2.7159,-33.9525 3.8563,-10.8582 4.1288,-12.6877 2.9197,-19.6072 -0.6873,-3.9335 -0.8795,-4.1379 -2.8595,-3.0402 -1.1676,0.6473 -2.7104,1.057 -3.4286,0.9104 -0.7182,-0.1465 -5.7321,1.3077 -11.1421,3.2315 -5.4099,1.9239 -10.0396,3.2946 -10.2882,3.046 -1.1575,-1.1575 -29.1028,10.8264 -33.3011,14.2808 -6.2293,5.1254 -9.271,7.2886 -10.2485,7.2886 -0.5332,0 -1.5394,0.6868 -2.2361,1.5262 -1.3986,1.6852 -16.1683,9.873 -19.7275,10.9362 -1.2372,0.3696 -4.4257,2.1365 -7.0856,3.9265 -5.0479,3.3969 -16.8601,7.5913 -21.1651,7.5154 -1.375,-0.024 -4.8097,0.4019 -7.6326,0.947 -3.052,0.5893 -6.6779,0.6425 -8.9448,0.1313 -2.0967,-0.4729 -4.1368,-0.6592 -4.5335,-0.4141 -0.3967,0.2452 -1.7834,0.042 -3.0816,-0.4516 -1.7821,-0.6775 -2.9322,-0.4343 -4.6947,0.9929 -2.0188,1.6347 -4.0733,1.8902 -15.1994,1.8902 -10.9773,0 -13.334,-0.2852 -16.0607,-1.9434 -2.3938,-1.4557 -3.6668,-1.6913 -5.0732,-0.9386 -2.4513,1.3119 -7.7657,-0.41 -10.6103,-3.4379 -1.4176,-1.509 -2.2457,-3.9123 -2.4879,-7.2209 -0.3123,-4.2654 0.075,-5.5798 2.767,-9.3951 1.7216,-2.4398 4.6874,-5.2915 6.5909,-6.3372 1.9034,-1.0456 4.9221,-3.3829 6.7081,-5.1938 2.8023,-2.8415 3.0434,-3.4619 1.7591,-4.5277 -0.918,-0.7619 -2.7367,-0.9909 -4.7472,-0.5978 -7.4747,1.4617 -10.8777,1.7919 -23.053,2.237 l -12.7938,0.4678 -3.4562,-3.4562 c -4.7158,-4.7158 -4.7077,-8.8341 0.028,-14.3668 2.9526,-3.4495 3.2645,-4.253 2.0438,-5.2661 -0.7923,-0.6575 -1.9316,-0.892 -2.5318,-0.521 -0.6002,0.3709 -3.3227,0.1391 -6.0501,-0.5152 -4.1294,-0.9906 -5.0531,-1.6327 -5.5219,-3.8384 -0.3097,-1.4568 -1.1634,-4.4487 -1.8972,-6.6487 -2.2342,-6.6983 -2.5158,-11.2154 -0.9008,-14.4527 1.8248,-3.658 10.8569,-11.8306 16.0559,-14.5282 7.1947,-3.733 14.0373,-9.5488 17.1769,-14.5993 1.7275,-2.779 3.1409,-5.3854 3.1409,-5.792 0,-0.4066 1.1054,-2.2376 2.4565,-4.0688 2.3199,-3.1445 11.7323,-8.0276 15.5435,-8.0641 0.825,-0.01 3.5163,-1.6169 5.9806,-3.5757 2.4643,-1.9588 5.7268,-3.8107 7.25,-4.1153 1.5232,-0.3047 2.7659,-0.8351 2.7617,-1.1789 0,-0.3437 -0.701,-9.85 -1.5483,-21.125 -0.8473,-11.275 -1.7352,-32.2 -1.9732,-46.5 -0.2379,-14.3 -0.7885,-30.275 -1.2234,-35.5 -0.4349,-5.225 -0.5405,-15.8 -0.2347,-23.5 0.3059,-7.7 0.2058,-14.753 -0.2224,-15.6733 -0.4282,-0.9203 -1.0764,-9.6953 -1.4404,-19.5 -0.4848,-13.0571 -1.0543,-18.4318 -2.1285,-20.0884 -0.9043,-1.3944 -1.2404,-3.3934 -0.8764,-5.2131 0.375,-1.8752 -0.1059,-4.5063 -1.3188,-7.2155 -1.2837,-2.8672 -1.5592,-4.4803 -0.8409,-4.9242 1.0527,-0.6506 -0.081,-7.7833 -2.2074,-13.8855 -0.4791,-1.375 -1.0573,-4.0884 -1.2849,-6.0297 -0.2276,-1.9413 -1.1604,-4.9735 -2.0729,-6.738 -0.9772,-1.8898 -1.5483,-4.96 -1.3896,-7.4703 0.1888,-2.9859 -0.1048,-4.1871 -0.9805,-4.012 -0.7211,0.1442 -1.25,-0.7615 -1.25,-2.1408 0,-1.3149 -0.8901,-4.3524 -1.978,-6.75 -2.1384,-4.7126 -2.6809,-12.334 -0.9538,-13.4013 0.5875,-0.3631 0.773,-1.4022 0.4122,-2.3091 -0.8513,-2.1399 -2.1737,-14.765 -3.577,-34.1488 -1.3629,-18.8259 -1.3445,-17.2721 -0.3496,-29.5 0.4475,-5.5 0.8673,-16.3 0.9328,-24 0.066,-7.7 0.4853,-26.6 0.9328,-42 0.8265,-28.4457 0.5221,-33.6927 -2.9682,-51.1576 -0.7868,-3.9367 -1.9182,-8.4367 -2.5144,-10 -0.6385,-1.6745 -0.8317,-5.5131 -0.47,-9.3424 0.3375,-3.575 0.076,-9.875 -0.5825,-14 -0.658,-4.125 -1.3075,-11.5245 -1.4434,-16.4432 -0.1359,-4.9188 -0.5433,-10.7688 -0.9053,-13 -0.362,-2.2313 -0.9681,-6.5318 -1.3469,-9.5568 -1.0404,-8.3089 -0.592,-57.7962 0.6525,-72 1.1352,-12.9569 2.1786,-46.888 2.1373,-69.5 -0.013,-7.15 0.02,-16.6642 0.073,-21.1426 0.076,-6.3748 -0.3907,-9.2755 -2.1484,-13.3613 -1.8089,-4.205 -2.0176,-5.583 -1.074,-7.0938 1.7575,-2.8143 1.3502,-9.8908 -0.829,-14.4023 -1.0627,-2.2 -1.9474,-4.6056 -1.9661,-5.3457 -0.019,-0.7401 -0.6553,-2.5401 -1.4149,-4 -0.7595,-1.4599 -2.4307,-5.1293 -3.7137,-8.1543 -2.5109,-5.9201 -6.8182,-12.8529 -9.2278,-14.8527 -1.1928,-0.9899 -1.2889,-1.9794 -0.4804,-4.9425 0.556,-2.0376 1.4102,-4.1962 1.8982,-4.7968 0.4881,-0.6006 0.5935,-1.3859 0.2343,-1.745 -0.3591,-0.3592 -0.1646,-2.3428 0.4324,-4.408 5.0808,-17.5773 7.7733,-31.5215 10.277,-53.223 0.784,-6.796 0.6847,-9.3629 -0.503,-13 -0.814,-2.4926 -1.715,-6.107 -2.0024,-8.032 -0.2873,-1.925 -1.2133,-8.225 -2.0579,-14 -0.8445,-5.775 -1.9373,-11.4 -2.4283,-12.5 -1.1864,-2.6578 -2.4999,-20.1823 -2.188,-29.192 0.1369,-3.9556 -0.2059,-8.9056 -0.7618,-11 -0.5559,-2.0944 -1.7566,-10.783 -2.6682,-19.308 -0.9117,-8.525 -2.2719,-16.6971 -3.0227,-18.1602 -1.3921,-2.7126 -4.3812,-24.8766 -4.3976,-32.608 0,-2.5788 -1.4222,-7.7244 -3.5791,-13 -9.6709,-23.6537 -9.6901,-25.5965 -0.4421,-44.7318 9.563,-19.7872 9.4919,-19.5235 9.5646,-35.5 0.1184,-26.0119 -1.3832,-60.1611 -2.9761,-67.6842 -2.076,-9.8043 -2.198,-17.206 -0.3435,-20.8319 2.3005,-4.4976 2.7904,-7.8439 3.1473,-21.49427 0.4173,-15.9623 2.6113,-25.0701 7.2971,-30.2919 4.2031,-4.6839 5.4516,-7.8031 4.6759,-11.6819 -0.6783,-3.3912 1.2379,-4.8202 4.3187,-3.2206 2.6926,1.398 12.2312,2.563 10.3281,1.2614 -0.825,-0.5643 -2.5379,-1.0329 -3.8064,-1.0413 -1.3065,-0.01 -3.577,-1.4065 -5.2375,-3.2245 -2.8128,-3.0797 -2.9079,-3.4934 -2.3549,-10.25 0.6151,-7.5159 2.219,-13.5721 6.0278,-22.7607 1.3041,-3.1459 2.3754,-7.6459 2.3808,-10 0.01,-2.5841 1.0691,-6.4595 2.6831,-9.7801 1.7531,-3.6068 2.919,-8.0817 3.3872,-13 0.3926,-4.125 1.4667,-9.975 2.3869,-13 2.3136,-7.60529 2.4841,-36.64695 0.2965,-50.5 -1.0394,-6.58199 -1.3063,-11.53811 -0.7809,-14.5 1.5263,-8.60348 2.9074,-14.52354 4.316,-18.5 2.1938,-6.19306 2.9074,-13.01593 1.7984,-17.19578 -1.271,-4.79089 -2.6749,-27.27082 -2.3542,-37.69854 0.1824,-5.93061 0.8664,-9.25659 2.75,-13.37084 1.379,-3.01209 2.5072,-7.02497 2.5072,-8.91751 0,-2.98316 -2.4062,-12.92789 -6.1642,-25.47632 -0.8724,-2.91304 -0.7406,-5.10859 0.6467,-10.76953 2.0176,-8.23296 1.5774,-18.65815 -1.0059,-23.82514 -1.1,-2.20012 -1.7038,-6.40952 -1.8647,-13 -0.1309,-5.36049 -0.7721,-10.72926 -1.4249,-11.9306 -0.6529,-1.20134 -1.187,-4.46893 -1.187,-7.26131 0,-4.24468 0.6362,-6.01789 3.8807,-10.81574 2.1344,-3.15628 4.1897,-6.75119 4.5674,-7.98869 0.9561,-3.13267 -0.2352,-6.25 -2.3884,-6.25 -2.9258,0 -10.8653,3.89041 -14.5603,7.13472 -2.8971,2.54367 -4.2535,3.00814 -8.7846,3.00814 -8.7894,0 -20.7148,-6.94332 -20.7148,-12.0608 0,-0.61006 -0.4501,-1.89059 -1.0001,-2.84563 -0.5501,-0.95504 -1.8975,-3.90509 -2.9942,-6.55568 -2.1263,-5.1391 -1.9959,-5.10093 -8.768,-2.5673 -2.8682,1.07309 -3.7385,3.26981 -7.2842,18.38655 -0.645,2.75 -2.0257,6.9125 -3.0683,9.25 -1.696,3.80285 -2.2555,4.25 -5.3177,4.25 -2.5061,0 -3.9772,-0.70539 -5.4949,-2.63486 -1.1399,-1.44917 -2.0726,-3.06866 -2.0726,-3.59887 0,-0.53021 -0.7209,-2.60702 -1.602,-4.61514 -0.881,-2.00812 -1.9458,-4.55113 -2.3662,-5.65113 -0.4204,-1.1 -1.7671,-4.58641 -2.9927,-7.74759 -3.0969,-7.9878 -3.5506,-15.52503 -2.0349,-33.80294 1.0732,-12.94222 1.0748,-16.86497 0.01,-21.88809 -0.7143,-3.36596 -1.6548,-6.34 -2.09,-6.60898 -0.4353,-0.26897 -0.549,-1.98264 -0.2527,-3.80815 0.6491,-4.00011 0.5656,-4.07368 -18.997,-16.74767 -7.6047,-4.92682 -15.6246,-10.62131 -17.822,-12.65444 -2.1974,-2.03312 -4.9754,-4.38275 -6.1733,-5.22139 -2.8834,-2.0186 -7.4452,-6.1169 -15.6065,-14.02075 -8.4153,-8.14981 -16.2813,-15.38627 -22.0819,-20.31452 -2.4693,-2.09799 -6.9051,-5.92299 -9.8574,-8.5 -2.9523,-2.57701 -6.5523,-5.69643 -8,-6.93204 -1.4477,-1.23561 -4.2072,-3.63371 -6.1322,-5.32912 -1.925,-1.6954 -6.4719,-5.20651 -10.1041,-7.80246 -3.6323,-2.59594 -8.0866,-6.40833 -9.8985,-8.47196 -1.81187,-2.06364 -4.57753,-4.41563 -6.14588,-5.22666 -1.56952,-0.81103 -2.85272,-2.15686 -2.85272,-2.99073 0,-0.83388 -0.79729,-2.37193 -1.77176,-3.4179 -0.97447,-1.04597 -3.20094,-4.73966 -4.9477,-8.20819 -7.07205,-14.04289 -17.00705,-35.47387 -17.64226,-38.05642 -0.37201,-1.5125 -1.11781,-2.75 -1.65733,-2.75 -0.53952,0 -0.98095,-0.8119 -0.98095,-1.80422 0,-0.99232 -1.35,-3.93295 -3,-6.53473 -1.65,-2.60178 -3.01412,-5.27738 -3.03138,-5.94578 -0.0173,-0.6684 -1.36726,-3.90381 -3,-7.18981 -1.63274,-3.286 -2.96862,-6.53028 -2.96862,-7.20951 0,-0.67924 -2.1802,-6.31569 -4.8449,-12.52546 -5.28524,-12.31665 -6.30061,-15.02772 -8.16119,-21.79049 -0.68092,-2.475 -3.25764,-9.675 -5.72603,-16 -4.85983,-12.45284 -7.04248,-18.91002 -9.80256,-29 -0.97792,-3.575 -2.17536,-7.01741 -2.66096,-7.64979 -0.79229,-1.03177 -3.05212,-8.45853 -7.37268,-24.22972 -0.81055,-2.95873 -1.72691,-5.78916 -2.03634,-6.28984 -0.30944,-0.50068 -1.42853,-4.6049 -2.48688,-9.12049 -3.86615,-16.49555 -11.27567,-37.67422 -17.68507,-50.5494 -4.19312,-8.4231 -12.24227,-17.83675 -16.93668,-19.80777 -1.76731,-0.74204 -5.999575,-3.15002 -9.405035,-5.35107 -3.40546,-2.20106 -6.70664,-4.00192 -7.33596,-4.00192 -0.62932,0 -4.8171,-2.43038 -9.30618,-5.40085 -4.78037,-3.16321 -13.2376,-7.37532 -20.41273,-10.16653 -12.86511,-5.004675 -16.00041,-7.210545 -18.39525,-12.942195 -0.97106,-2.32408 -2.12126,-3.49043 -3.44209,-3.49043 -2.74287,0 -9.7064,-6.52268 -12.20443,-11.43179 -1.13857,-2.23751 -3.72105,-5.94757 -5.73884,-8.24457 -3.60871,-4.10808 -6.0334,-10.97456 -6.05596,-17.14993 -0.005,-1.47054 -1.14608,-5.11479 -2.5349002,-8.09833 -1.38882,-2.98354 -2.97321,-7.42408 -3.52088,-9.86786 -0.54766,-2.44378 -2.35665,-7.18616 -4.01999,-10.53863 -3.27561003,-6.60204 -3.25189003,-10.08588 0.0746,-10.95578 1.59541,-0.41721 2.01094,-1.35956 2.01094,-4.5604696 0,-2.21904 0.47558,-4.32853 1.05683,-4.68777 2.2008,-1.36016 5.9171702,0.69336 8.6652602,4.78809 1.56768,2.33587 4.22506,5.1470396 5.90529,6.2470396 3.50846,2.29688 4.77612,4.47726 7.8171,13.44544 1.85945,5.4837 2.61848,6.56122 5.08692,7.22139 1.59575,0.42677 4.32311,2.32787 6.06081,4.22466 2.48577,2.71337 4.19874,3.58525 8.03361,4.08903 2.6808,0.35217 5.99918,1.14351 7.37418,1.75854 1.375,0.61502 2.8375,1.20658 3.25,1.31458 0.4125,0.108 0.8625,0.28961 1,0.40359 0.1375,0.11398 1.6,0.40876 3.25,0.65508 1.65,0.24632 7.81701,2.23431 13.70448,4.41777 5.88746,2.18346 11.45768,3.96992 12.37827,3.96992 0.92059,0 4.11777,1.3983 7.10485,3.10734 2.98709,1.70903 5.682995,2.8554 5.990915,2.54747 1.16007,-1.16007 -9.177445,-12.643 -11.954655,-13.27926 -3.4515,-0.79073 -20.25515,-16.82488 -21.68363,-20.69065 -1.45611,-3.94055 -1.35412,-4.46192 1.41432,-7.23036 2.89857,-2.89857 7.07029,-3.2109 8.45013,-0.63265 1.03474,1.93343 15.96523,11.17811 18.05306,11.17811 2.07607,0 7.145535,3.95206 16.042255,12.50625 4.675,4.495 11.0375,9.78239 14.13889,11.74975 3.10139,1.96735 8.2747,6.08958 11.49624,9.1605 3.22154,3.07093 6.13963,5.5835 6.48465,5.5835 0.62554,0 13.59258,19.50262 15.77318,23.72309 0.63173,1.2227 1.58427,4.52034 2.11675,7.3281 0.65314,3.443995 2.09203,6.418015 4.42232,9.140435 1.89979,2.21949 4.88066,6.79684 6.62414,10.17191 4.61328,8.93045 8.87464,16.91678 9.94408,18.63647 0.51305,0.825 2.53242,4.875 4.48749,9 1.95507,4.125 5.1718,10.425 7.14828,14 1.97649,3.575 4.74642,8.75 6.15541,11.5 1.40898,2.75 4.03,7.2851 5.82447,10.078 1.79447,2.79291 4.73345,8.19291 6.53105,12 1.7976,3.8071 3.55039,7.147 3.89507,7.422 0.34468,0.275 3.45249,5.45 6.90623,11.5 3.45375,6.05 6.85195,11.675 7.55165,12.5 0.6997,0.825 2.4383,3.8277 3.8638,6.67267 1.4254,2.84497 3.6142,6.73111 4.864,8.63586 2.4973,3.80617 4.4498,7.08111 9.75,16.35406 1.9372,3.38942 7.2682,12.38942 11.8466,20 4.5784,7.61057 8.7237,14.59129 9.2118,15.51269 0.4882,0.92141 2.7219,5.11753 4.9639,9.32472 4.7102,8.83888 5.1806,9.78384 7.2171,14.5 2.2459,5.201 7.8724,17.25505 13.096,28.05615 5.3404,11.04271 11.852,18.57304 21.7167,25.11408 7.3474,4.87187 7.6076,5.03457 17.9702,11.23472 7.4611,4.46414 8.9577,5.44561 18.5,12.13224 2.75,1.92702 7.7,5.24213 11,7.3669 3.3,2.12477 6.7722,4.57527 7.716,5.44554 0.9438,0.87028 3.5462,2.7377 5.7831,4.14983 3.7559,2.37097 4.2348,2.45012 6.2566,1.03402 3.0452,-2.13298 7.6187,-1.90737 11.6938,0.57686 2.9099,1.77394 4.3688,1.99885 9.3271,1.43787 7.0844,-0.8015 8.7234,0.22086 8.7234,5.44135 0,3.24826 0.5197,4.08859 3.9204,6.33906 2.1562,1.42692 4.2248,3.55362 4.5969,4.72599 0.5689,1.79223 1.1987,2.03364 3.9562,1.51633 4.1733,-0.78291 7.051,0.35856 11.9054,4.72233 3.9431,3.5446 7.5933,4.67511 15.1616,4.69572 2.2223,0.006 8.1786,1.35226 13.2361,2.99156 7.4445,2.41301 9.7144,2.78328 11.9204,1.94454 1.4987,-0.5698 3.7512,-0.77843 5.0056,-0.46361 1.2543,0.31482 3.8546,-0.0853 5.7785,-0.88914 5.4814,-2.29028 7.5768,-1.51402 17.0006,6.29799 4.7913,3.97184 9.5183,5.42913 9.5183,2.93439 0,-1.9148 5.1992,-6.80472 7.2351,-6.80472 3.1997,0 12.4511,-6.66186 16.6787,-12.01012 2.2261,-2.8163 4.7411,-7.45364 5.5888,-10.30521 1.7338,-5.8322 3.8954,-23.20518 3.1341,-25.18915 -0.2732,-0.71181 -1.9907,-1.74345 -3.8167,-2.29254 -14.4457,-4.34384 -21.5287,-6.8799 -24.1515,-8.64738 -4.1309,-2.7838 -6.9412,-7.88228 -6.9412,-12.59261 0,-5.2698 4.6725,-14.60123 8.2332,-16.44254 3.9022,-2.01794 4.5405,-4.35825 1.9428,-7.12341 -3.0233,-3.21818 -2.7718,-7.25325 0.6348,-10.18351 2.1412,-1.84176 3.4933,-2.25725 5.8269,-1.79054 l 3.0386,0.60773 -2.9518,-3.23586 c -1.6235,-1.77972 -3.7213,-3.82457 -4.6619,-4.5441 -2.2549,-1.72504 -3.2803,-7.46597 -1.8206,-10.19333 0.6338,-1.18424 2.2499,-2.57049 3.5915,-3.08055 3.6454,-1.38599 3.0124,-4.30763 -1.6304,-7.5251 -4.6521,-3.22392 -6.7485,-6.68103 -7.0855,-11.68445 -0.1973,-2.92981 0.3776,-4.02724 3.6024,-6.87674 2.1104,-1.86482 4.9366,-4.12234 6.2805,-5.0167 1.3438,-0.89436 3.264,-2.97568 4.2671,-4.62517 1.0032,-1.64948 4.2073,-5.19273 7.1203,-7.87389 10.4431,-9.61179 13.6897,-14.33746 16.3211,-23.75652 1.9296,-6.90706 4.3819,-13.47664 5.5718,-14.92683 7.3442,-8.95037 7.9919,-10.04988 7.9919,-13.56738 0,-4.79599 5.322,-13.33956 11.5244,-18.50032 5.4941,-4.57144 8.4667,-9.07562 8.4719,-12.83676 0.01,-4.32871 3.8238,-12.83987 7.7319,-17.23685 3.9961,-4.49589 9.8793,-8.53718 12.4396,-8.54505 0.9174,-0.003 3.9077,-1.13012 6.6453,-2.50512 5.7324,-2.87923 6.7693,-3.03075 7.5111,-1.09763 0.2959,0.7713 2.9214,1.91349 5.8343,2.5382 2.9129,0.6247 7.2917,2.30533 9.7308,3.73472 4.0912,2.39759 5.0647,2.55445 12.5674,2.02497 9.0348,-0.63759 9.8818,-0.31717 20.6952,7.82851 2.9414,2.21582 6.4731,4.59614 7.8481,5.28959 1.375,0.69346 3.625,1.91138 5,2.70649 1.375,0.79512 4.8714,1.4523 7.7699,1.46041 3.7923,0.0106 6.3157,0.6747 9,2.36865 2.0515,1.29465 4.7426,2.67497 5.9801,3.06739 1.2375,0.39241 2.25,1.13315 2.25,1.64609 0,0.51293 0.8486,0.93261 1.8857,0.93261 2.8034,0 7.6123,2.77132 7.6279,4.39584 0.012,1.2432 5.1699,5.61522 15.8279,13.41591 5.4436,3.98421 8.6585,7.49182 8.6585,9.44677 0,3.19595 4.8522,6.74148 9.2261,6.74148 4.3713,0 13.6776,11.64452 15.2859,19.12653 0.3989,1.85541 2.4484,6.74847 4.5546,10.87347 2.1062,4.125 4.2865,9.525 4.8452,12 2.58,11.42995 4.0871,20.40951 4.0748,24.27842 -0.017,5.35468 -4.7148,18.88095 -8.549,24.61457 -5.3632,8.02027 -5.4255,8.19584 -3.792,10.68892 0.8175,1.24765 2.8067,2.72871 4.4204,3.29125 3.0718,1.07083 4.0147,3.12684 1.434,3.12684 -1.9284,0 -1.9017,0.20483 0.5748,4.40219 3.198,5.42026 3.023,11.46979 -0.4642,16.04174 -3.3942,4.44996 -3.4734,4.3721 7.653,7.52454 9.872,2.79704 19.957,9.06749 25.4362,15.81511 6.2677,7.71882 11.3002,15.7203 11.3002,17.96702 0,2.1977 4.2898,6.2494 6.6167,6.2494 1.8512,0 7.7564,5.88708 9.7264,9.69664 0.8908,1.72249 1.8142,5.08289 2.0522,7.46757 0.2379,2.38469 0.7545,7.14829 1.1478,10.58579 l 0.7152,6.25 4.9366,0 c 4.5812,0 7.6265,-0.94496 10.2421,-3.1781 2.6663,-2.27639 11.957,-7.70398 14.1142,-8.2454 1.9684,-0.49402 2.3078,-1.08756 1.9094,-3.33867 -0.666,-3.76308 1.898,-6.46027 9.6458,-10.14691 3.6195,-1.72227 8.2569,-5.00534 10.688,-7.5666 2.3619,-2.48838 4.9909,-4.52432 5.8423,-4.52432 0.8513,0 2.692,-0.9 4.0904,-2 2.8099,-2.21025 8.2193,-2.6536 10.0493,-0.82363 0.9018,0.90183 1.5903,0.80882 2.95,-0.39852 2.1676,-1.92473 6.9946,-4.6876 18.7736,-10.74561 12.6409,-6.50126 24.5567,-12.99639 27.5,-14.98985 1.375,-0.93126 3.9625,-2.27636 5.75,-2.98911 1.7875,-0.71276 3.25,-1.64007 3.25,-2.06071 0,-0.42063 2.7712,-2.72853 6.1582,-5.12867 9.432,-6.68382 11.4069,-9.25314 18.8956,-24.58397 3.82044,-7.82103 6.94624,-14.45275 6.94624,-14.73715 0,-1.67687 21.3275,-43.12526 23.3905,-45.45771 0.7711,-0.87179 2.2362,-3.2237 3.2557,-5.22648 3.1599,-6.20694 10.3282,-17.72472 11.4709,-18.43098 0.5978,-0.36947 1.7221,-2.19183 2.4984,-4.04969 0.7762,-1.85785 1.8452,-3.37792 2.3756,-3.37792 0.9842,0 13.4542,-17.65628 18.0511,-25.55855 1.3982,-2.40358 3.4506,-5.39868 4.5608,-6.65579 1.1102,-1.25712 4.2412,-5.54236 6.9578,-9.52277 2.7166,-3.98041 6.3503,-9.29666 8.0749,-11.81388 1.7246,-2.51723 4.0374,-5.56053 5.1395,-6.76289 1.1022,-1.20237 4.793,-7.13612 8.2019,-13.18612 3.4089,-6.05 6.7746,-11.675 7.4794,-12.5 1.1247,-1.31669 8.3865,-14.01796 13.6672,-23.90482 1.0002,-1.87265 2.7038,-4.34765 3.7859,-5.5 1.8621,-1.98318 8.4532,-13.58033 11.4208,-20.09518 0.7516,-1.65 2.4881,-4.35 3.859,-6 1.3708,-1.65 3.7965,-5.25 5.3903,-8.000005 1.5938,-2.75 4.7975,-7.33422 7.1194,-10.18716 2.3218,-2.85294 4.8641,-6.67794 5.6495,-8.5 0.7854,-1.82206 3.689,-5.81599 6.4526,-8.87539 5.1639,-5.71677 14.5454,-11.16629 27.4733,-15.95882 7.1431,-2.64802 20.3463,-9.50089 23.7997,-12.35281 7.759,-6.40763 33.8501,-15.80705 37.8844,-13.648 2.7554,1.47464 4.318,6.16459 3.1113,9.33831 -0.5612,1.47613 -0.7458,2.68387 -0.4103,2.68387 0.3356,0 -0.5756,0.93266 -2.0247,2.07258 -3.6505,2.87148 -3.2921,3.94191 0.8902,2.65834 1.9675,-0.60385 3.0373,-1.38334 2.4211,-1.76415 -0.6071,-0.37525 0.6191,-0.95392 2.7249,-1.28592 5.9903,-0.9444 6.6537,-1.15008 9.5789,-2.96997 1.5125,-0.94098 3.875,-2.39625 5.25,-3.23393 1.375,-0.83768 2.5,-1.94288 2.5,-2.456 0,-0.51311 -1.3764,-3.26735 -3.0587,-6.12052 -4.8251,-8.1834 -4.0746,-15.90043 1.5463,-15.90043 2.6935,0 7.5124,3.57456 7.5124,5.57258 0,0.78508 0.375,1.42742 0.8333,1.42742 1.9043,0 1.8852,-1.36277 -0.065,-4.66874 -1.7962,-3.04447 -1.9486,-4.24094 -1.1669,-9.1663896 0.773,-4.87115 1.2285,-5.71151005 3.2507,-5.99775005 3.3964,-0.48074 7.1483,0.66022 7.1483,2.17379005 0,0.71655 1.3375,3.07047 2.9722,5.23095 1.6347,2.16048 2.9847,4.4339596 3,5.0521896 0.015,0.61822 1.1589,3.1478 2.5413,5.62127 1.8736,3.35217 2.7704,7.01251 3.5223,14.37596 2.0362,19.94295 2.2495,24.32997 1.2449,25.60454 -0.5524,0.7008 -1.2922,3.47878 -1.6439,6.17329 -0.6885,5.27499 -2.0193,7.60089 -4.349,7.60089 -1.8283,0 -5.2099,3.94359 -5.2545,6.12788 -0.061,2.98602 -2.977,8.71927 -5.2413,10.30524 -1.2303,0.86179 -3.2353,1.56688 -4.4555,1.56688 -1.2202,0 -2.5011,0.45734 -2.8466,1.01631 -0.3454,0.55897 -1.0242,0.77151 -1.5083,0.4723 -1.9104,-1.18069 -29.551,10.247675 -33.9816,14.050145 -1.6178,1.38845 -6.0855,3.11482 -27,10.43304 -7.425,2.5981 -15.1342,5.607 -17.1315,6.68645 -4.211,2.27583 -14.486,12.56134 -15.3882,15.40398 -0.3383,1.06578 -1.0348,1.93778 -1.5477,1.93778 -0.5129,0 -0.9326,0.45917 -0.9326,1.02038 0,0.56121 -1.7768,4.77802 -3.9485,9.3707 -2.1717,4.59268 -4.27,9.64601 -4.6629,11.22962 -0.3929,1.58362 -3.1418,7.8293 -6.1087,13.8793 -5.6457,11.51277 -8.941,19.6143 -12.4056,30.5 -2.8649,9.00153 -4.6378,13.67636 -7.3953,19.5 -1.3021,2.75 -2.5807,6.125 -2.8413,7.5 -0.2606,1.375 -1.1613,4.34817 -2.0016,6.60705 -0.8403,2.25888 -1.7812,6.21843 -2.091,8.799 -0.3097,2.58056 -1.1831,5.68239 -1.9409,6.89294 -0.7577,1.21056 -2.1467,4.67601 -3.0867,7.70101 -3.094,9.95637 -7.6011,22.4535 -9.0719,25.15429 -0.7951,1.45986 -1.4456,3.27099 -1.4456,4.02474 0,1.39839 -7.8688,21.50337 -14.4111,36.82097 -1.9968,4.675 -4.0016,9.4 -4.4551,10.5 -1.5675,3.80154 -7.0611,15.01063 -8.8218,18 -0.9719,1.65 -3.4647,5.80147 -5.5395,9.22549 -2.0749,3.42402 -3.7725,6.58399 -3.7725,7.02216 0,0.43816 -1.2809,2.36169 -2.8465,4.27451 -1.5656,1.91281 -3.4408,4.60284 -4.1673,5.97784 -1.2518,2.36955 -13.5141,21.48044 -18.6076,29 -1.3039,1.925 -6.985,8.17086 -12.6247,13.8797 -8.8909,8.99994 -14.2309,13.43568 -24.2222,20.1203 -3.0581,2.046 -7.2542,5.08788 -10.4074,7.54476 -2.2875,1.78232 -7.3537,5.32208 -20.33404,14.20751 -1.8097,1.23875 -4.2296,3.03875 -5.3776,4 -6.8318,5.72044 -10.422,8.55094 -14.5477,11.46921 -8.8921,6.28976 -27.3971,20.58058 -31.6145,24.41497 l -4.2496,3.86355 -0.4202,27 c -0.443,28.45799 -1.4135,35.52584 -6.415,46.71766 -2.9492,6.59943 -4.4045,11.71772 -3.7883,13.32358 0.3079,0.80232 0.1684,1.45876 -0.31,1.45876 -0.4784,0 -1.7991,1.575 -2.9349,3.5 -2.444,4.14234 -5.6346,4.58888 -10.6482,1.4903 -2.4662,-1.52422 -3.5385,-3.14862 -4.4389,-6.72437 -1.1493,-4.56408 -6.43,-15.2489 -8.0391,-16.26593 -2.25,-1.42212 -7.0698,-13.31452 -7.6514,-18.87899 -0.6688,-6.398 -1.7987,-7.71417 -3.2793,-3.81981 -1.473,3.87427 -7.1365,11.69261 -9.6747,13.3557 -1.9529,1.27956 -2.4068,2.43807 -2.4323,6.20811 -0.062,9.13503 -3.6211,26.01149 -6.3578,30.14692 -1.4209,2.14713 -2.9877,5.83532 -3.4818,8.19597 -1.102,5.26543 -1.654,23.51193 -1.5517,51.2921 0.093,25.21628 0.2628,29.75841 1.4779,39.5 0.5145,4.125 1.1126,14.25 1.329,22.5 0.9401,35.82374 4.7871,84.17234 7.7578,97.5 0.5517,2.475 1.4041,7.2 1.8941,10.5 0.4901,3.3 1.2982,7.36555 1.7959,9.03457 1.8738,6.28417 -2.645,20.51293 -8.5931,27.05763 -1.5064,1.6575 -4.0595,5.4649 -5.6735,8.4607 -2.9596,5.4937 -8.5668,13.9933 -11.323,17.164 -1.0007,1.1512 -1.5894,4.4456 -1.787,10 -0.162,4.5557 -0.5946,13.2331 -0.9612,19.2831 -0.3667,6.05 -0.5154,20 -0.3305,31 0.185,11 0.2985,29.225 0.2523,40.49997 -0.081,19.8098 -0.1733,20.715 -2.7349,26.8851 -2.0926,5.0405 -4.5451,8.3047 -11.6456,15.5 -11.9542,12.1135 -14.0359,15.0723 -14.0359,19.9496 0,4.7306 3.4592,12.0809 6.6781,14.19 4.9536,3.2457 1.6062,17.5015 -5.0646,21.5693 -7.8491,4.7862 -14.6674,-0.071 -15.3603,-10.9418 -0.3664,-5.7483 -0.3066,-5.907 5.0797,-13.4779 1.9728,-2.773 1.5091,-6.6743 -0.7933,-6.6743 -1.8999,0 -2.6871,-2.7294 -0.9765,-3.3859 0.7903,-0.3032 1.4369,-1.2693 1.4369,-2.1468 0,-3.0125 -4.7731,-11.9709 -8.8108,-16.5365 -3.2427,-3.6666 -5.2902,-4.9475 -10.3651,-6.484 -3.4782,-1.0532 -6.5417,-1.697 -6.8077,-1.4308 -0.7008,0.7014 -0.1082,3.6914 2.0535,10.3605 1.0476,3.2321 1.6481,6.899 1.3344,8.1488 -0.3137,1.2497 0.1022,4.6803 0.9243,7.6235 3.0817,11.0341 4.6725,18.8122 4.707,23.0153 0.035,4.2624 2.1446,14.7004 3.3725,16.6873 1.1563,1.8708 2.5983,21.4754 3.1372,42.6486 1.0935,42.9713 1.6445,72.996 2.0001,109 0.2011,20.35 0.4446,38.35 0.5412,40 0.2548,4.3508 -1.198,13.7925 -2.3465,15.25 -0.6608,0.8385 -0.6248,1.25 0.1092,1.25 1.1201,0 0.5987,17.4661 -0.5783,19.3705 -1.3388,2.1662 -2.9513,15.271 -2.1444,17.4269 1.3204,3.5276 2.6889,20.8799 1.9315,24.4914 -0.3704,1.7662 -0.2904,5.2362 0.1776,7.7112 0.4681,2.475 0.8172,8.1 0.7759,12.5 -0.041,4.4 0.4116,25.775 1.0063,47.5 0.5948,21.725 1.2514,53.45 1.4592,70.5 0.2078,17.05 0.8511,33.9253 1.4297,37.5007 1.508,9.3188 4.1991,54.178 4.1693,69.4993 -0.075,38.6096 1.1732,72.8195 2.9739,81.5 0.5135,2.475 1.1502,9.45 1.4149,15.5 0.2648,6.05 0.7035,13.25 0.9749,16 0.2715,2.75 1.0141,16.7 1.6504,31 0.6362,14.3 1.3447,27.35 1.5745,29 0.2297,1.65 0.8097,7.05 1.2888,12 0.4792,4.95 1.3944,11.6471 2.034,14.8824 0.6396,3.2354 0.8779,7.0177 0.5297,8.4052 -0.3601,1.4346 -0.1605,2.8148 0.4627,3.2 0.6205,0.3834 1.2626,4.7622 1.4803,10.0948 0.2115,5.1797 1.0435,11.4573 1.849,13.9503 0.8054,2.493 1.7956,10.368 2.2003,17.5 0.4192,7.385 1.5053,15.5503 2.5231,18.9673 0.9828,3.3 2.0966,9.9816 2.4751,14.8481 0.3785,4.8665 1.1132,10.2665 1.6327,12 0.5196,1.7335 1.1741,6.0592 1.4545,9.6126 0.2805,3.5534 0.866,6.9284 1.3012,7.5 1.6877,2.2169 4.2889,13.8069 3.2437,14.4529 -0.7182,0.4439 -0.7095,1.944 0.028,4.8505 0.5874,2.3144 1.4178,3.9918 1.8452,3.7277 1.1921,-0.7368 2.1435,2.6119 1.1037,3.8849 -1.2713,1.5564 0.797,12.84 2.5945,14.1543 0.9959,0.7283 1.6869,4.5187 2.28,12.507 0.931,12.5404 2.2664,18.3646 7.672,33.462 1.9693,5.5 4.1796,13.6 4.9118,18 0.7321,4.4 2.5162,11.15 3.9644,15 1.4483,3.85 3.2574,9.1895 4.0202,11.8655 0.7628,2.6761 1.7933,5.3761 2.2899,6 0.4967,0.624 2.7355,6.3095 4.9751,12.6345 2.2396,6.325 5.1233,14.0184 6.4081,17.0963 2.8486,6.8242 14.5119,27.6669 16.9792,30.3423 0.9833,1.0662 1.7878,2.2736 1.7878,2.6831 0,0.4096 3.0665,5.3872 6.8144,11.0615 3.748,5.6742 7.0988,11.0781 7.4463,12.0085 1.5713,4.2074 4.9191,4.9833 25.0214,5.7995 18.665,0.7577 19.5806,0.8938 27.1082,4.0275 7.4429,3.0985 7.9884,3.5517 12.2182,10.1506 2.4351,3.799 5.2069,7.2002 6.1595,7.5582 0.9526,0.358 4.207,2.2297 7.232,4.1593 7.52744,4.8016 11.91384,6.1658 23.00004,7.1529 13.9442,1.2416 21.3449,3.8406 26.5119,9.3104 2.3222,2.4583 5.2648,6.9852 6.5391,10.0598 1.2744,3.0745 2.6842,5.5901 3.133,5.5901 0.4488,0 0.816,1.3981 0.816,3.107 0,2.5751 -0.2996,2.9799 -1.75,2.3647 -0.9625,-0.4083 -2.7402,-0.6883 -3.9504,-0.6223 -1.2103,0.066 -2.4743,-0.3231 -2.8091,-0.8647 -1.161,-1.8786 -3.4558,-0.9712 -4.1072,1.6241 -0.5903,2.3521 -1.0036,2.5522 -4.1998,2.0336 -1.9497,-0.3164 -4.2004,-1.2307 -5.0014,-2.0317 -0.9373,-0.9373 -2.0312,-1.1585 -3.0692,-0.6204 -0.8871,0.4597 -4.1785,2.0224 -7.3142,3.4725 -3.1357,1.4501 -7.8312,4.3967 -10.4345,6.548 -2.6034,2.1512 -6.004,4.1905 -7.5571,4.5316 -1.5531,0.3411 -3.2858,1.4836 -3.8506,2.5389 -1.3403,2.5044 -5.3315,2.4681 -9.46404,-0.086 -4.0519,-2.5042 -16.9744,-4.3214 -27.3716,-3.8492 -6.4169,0.2914 -8.4827,0.8208 -11.7064,2.9998 -2.153,1.4553 -5.7145,3.1807 -7.9145,3.8343 -2.2,0.6536 -5.35,1.6953 -7,2.315 -4.2723,1.6043 -15.9811,1.3105 -22.8939,-0.5745 -3.7238,-1.0154 -7.0686,-2.7459 -9.0848,-4.7 -4.5321,-4.3927 -9.7647,-5.0954 -13.3215,-1.789 -1.7148,1.594 -4.3702,2.7237 -7.2783,3.0963 -2.5756,0.3301 -7.3877,2.2111 -11,4.2998 -3.5319,2.0422 -8.0598,4.5591 -10.0621,5.593 -6.0963,3.148 -7.3586,5.2276 -7.3662,12.1357 -0.01,5.5534 -1.8406,13.9688 -3.4654,15.8971 -1.4014,1.6631 -12.5882,3.7464 -20.1176,3.7464 -7.026,0 -8.7277,-0.3828 -14.0767,-3.1667 -7.0486,-3.6683 -10.8046,-3.9671 -14.6125,-1.1624 -6.8742,5.0634 -34.0337,13.2166 -40.0308,12.0171 -5.2332,-1.0466 -10.9802,3.4741 -13.1093,10.312 -0.6389,2.0518 -2.526,4.5345 -4.5606,6 -1.909,1.375 -5.5329,4.8625 -8.0532,7.75 -2.5203,2.8875 -5.1316,5.25 -5.803,5.25 -1.9493,0 -15.3129,6.6623 -20.4417,10.1909 -4.73,3.2544 -6.9134,3.8131 -22.7224,5.8139 -12.8615,1.6279 -14.8612,1.743 -17.5,1.0078 z"
     id="path2987"
     inkscape:connector-curvature="0" />
</svg>
