<?xml version="1.0" encoding="UTF-8" standalone="no"?>
<!-- Created with Inkscape (http://www.inkscape.org/) -->

<svg
   xmlns:dc="http://purl.org/dc/elements/1.1/"
   xmlns:cc="http://creativecommons.org/ns#"
   xmlns:rdf="http://www.w3.org/1999/02/22-rdf-syntax-ns#"
   xmlns:svg="http://www.w3.org/2000/svg"
   xmlns="http://www.w3.org/2000/svg"
   xmlns:sodipodi="http://sodipodi.sourceforge.net/DTD/sodipodi-0.dtd"
   xmlns:inkscape="http://www.inkscape.org/namespaces/inkscape"
   id="svg2"
   version="1.1"
   inkscape:version="0.48.2 r9819"
   width="1571.1991"
   height="2605.95"
   sodipodi:docname="comusillustrated00miltuoft_0117g.png">
  <metadata
     id="metadata8">
    <rdf:RDF>
      <cc:Work
         rdf:about="">
        <dc:format>image/svg+xml</dc:format>
        <dc:type
           rdf:resource="http://purl.org/dc/dcmitype/StillImage" />
        <dc:title></dc:title>
      </cc:Work>
    </rdf:RDF>
  </metadata>
  <defs
     id="defs6" />
  <sodipodi:namedview
     pagecolor="#ffffff"
     bordercolor="#666666"
     borderopacity="1"
     objecttolerance="10"
     gridtolerance="10"
     guidetolerance="10"
     inkscape:pageopacity="0"
     inkscape:pageshadow="2"
     inkscape:window-width="1600"
     inkscape:window-height="876"
     id="namedview4"
     showgrid="false"
     fit-margin-top="0"
     fit-margin-left="0"
     fit-margin-right="0"
     fit-margin-bottom="0"
     inkscape:zoom="0.088257292"
     inkscape:cx="775.48319"
     inkscape:cy="1300.3302"
     inkscape:window-x="0"
     inkscape:window-y="24"
     inkscape:window-maximized="1"
     inkscape:current-layer="svg2" />
  <path
     style="fill:#000000"
     d="m 563.5027,2602.0178 -4.2662,-3.9325 -4.7577,1.5663 c -4.682,1.5413 -4.8403,1.5223 -9.9613,-1.1986 -6.8855,-3.6582 -7.9788,-5.1313 -7.2577,-9.779 0.4677,-3.0145 0.2297,-3.9272 -1.1801,-4.5241 -4.0996,-1.736 -9.0099,-5.3619 -11.1125,-8.2058 -1.24,-1.6772 -2.6116,-2.8287 -3.048,-2.559 -0.4364,0.2697 -3.0012,-0.3274 -5.6995,-1.3269 -4.1611,-1.5413 -5.2531,-2.5279 -7.1921,-6.4986 -1.4986,-3.0688 -2.3598,-6.8142 -2.5,-10.8729 l -0.2139,-6.1915 5.0307,-0.8138 c 3.776,-0.6109 5.2724,-1.3646 6,-3.0225 0.5636,-1.2842 4.1082,-3.8088 8.4693,-6.0322 6.045,-3.0818 8.2073,-3.7132 11.1458,-3.2548 5.2516,0.8192 12.8542,-0.3977 12.8542,-2.0575 0,-0.7503 -0.8734,-1.3641 -1.941,-1.3641 -1.0675,0 -2.211,-0.437 -2.5411,-0.971 -0.3301,-0.5341 -2.8316,-1.267 -5.559,-1.6288 -2.7274,-0.3618 -4.9589,-1.064 -4.9589,-1.5604 0,-0.4964 -0.7875,-1.1993 -1.75,-1.562 -3.66,-1.3793 -9.7756,-6.5065 -10.374,-8.6974 -0.7863,-2.8791 -0.4162,-14.3229 0.5626,-17.3956 0.6723,-2.1104 1.171,-2.2684 5.6374,-1.7866 4.232,0.4566 5.2621,0.1929 7.558,-1.9348 1.4619,-1.3549 3.6048,-2.4978 4.762,-2.5399 1.1572,-0.042 3.004,-0.2599 4.104,-0.484 1.1,-0.2242 3.6993,-0.6371 5.7762,-0.9176 2.0769,-0.2806 4.8311,-1.2013 6.1204,-2.0461 2.0735,-1.3586 3.643,-1.6116 9.6034,-1.5478 0.825,0.01 8.7,-0.3853 17.5,-0.8757 8.8,-0.4905 17.7484,-0.6356 19.8854,-0.3226 l 3.8855,0.5692 -0.4759,-3.2421 c -0.6121,-4.1705 0.3595,-4.4972 9.2645,-3.1155 5.2243,0.8106 7.5311,0.8134 8.4986,0.01 0.7303,-0.6062 3.716,-1.0299 6.6349,-0.9417 9.0392,0.2732 9.0912,0.2584 8.4238,-2.4006 -0.4559,-1.8166 -0.018,-2.7716 1.8227,-3.9779 3.5045,-2.2963 12.6613,-5.6305 15.4646,-5.6311 1.5496,-3e-4 3.5702,-1.3629 5.6852,-3.8338 2.9149,-3.4054 3.7908,-3.8334 7.8459,-3.8334 4.0653,0 4.9358,-0.4285 7.9566,-3.9166 3.2248,-3.7239 3.6802,-3.9167 9.25,-3.9167 5.0585,0 5.8172,-0.2425 5.5583,-1.7765 -0.2125,-1.2583 0.9544,-2.339 4,-3.7044 l 4.2999,-1.9279 3.5422,3.4544 c 1.9481,1.8999 3.8578,3.4544 4.2437,3.4544 1.257,0 6.7141,-8.2497 6.7141,-10.15 0,-1.0175 -0.6538,-1.85 -1.453,-1.85 -0.7991,0 -2.6215,-0.5325 -4.0499,-1.1833 -2.3031,-1.0493 -2.5481,-1.6434 -2.1652,-5.25 0.6079,-5.7267 3.6593,-14.714 5.7631,-16.9742 1.699,-1.8253 1.8896,-1.8326 4.427,-0.17 3.0991,2.0306 4.4205,1.3163 2.6901,-1.4544 -1.5619,-2.5012 -1.5312,-2.7566 0.3788,-3.1448 1.1988,-0.2436 1.63,-1.6844 1.75,-5.8471 0.1175,-4.0816 0.7087,-6.1137 2.2641,-7.783 1.383,-1.4842 1.9429,-3.1073 1.6323,-4.7319 -0.2599,-1.36 -0.016,-3.0327 0.5431,-3.717 0.6721,-0.8234 0.6972,-3.2532 0.074,-7.1825 -0.6701,-4.2263 -0.6019,-6.7579 0.2365,-8.782 0.6479,-1.5642 0.903,-3.1189 0.567,-3.455 -0.3361,-0.3361 -2.8628,0.3248 -5.6149,1.4685 -3.5333,1.4683 -5.2081,1.749 -5.6989,0.955 -0.3822,-0.6185 0.1122,-1.6024 1.0989,-2.1864 7.1488,-4.2318 7.3152,-7.2747 0.1797,-3.2865 l -4.4811,2.5045 -2.165,-2.3045 -2.1649,-2.3044 2.1796,-1.1665 c 2.4593,-1.3162 1.8637,-2.5045 -1.2552,-2.5045 -1.4134,0 -2.315,-0.8623 -2.8052,-2.6831 -0.8726,-3.2406 0.2071,-3.8169 7.1506,-3.8169 3.5575,0 4.9182,-0.3887 4.9182,-1.4052 0,-1.1112 -1.2552,-1.2913 -6,-0.8611 -5.9309,0.5378 -6,0.5142 -6,-2.0495 0,-2.2214 0.5381,-2.6815 3.75,-3.2063 2.0625,-0.337 5.1,-0.9071 6.75,-1.2668 1.65,-0.3598 3.6381,-0.6689 4.4181,-0.6869 2.7817,-0.064 2.1054,-2.2695 -0.879,-2.8664 -2.1076,-0.4215 -3.0391,-1.191 -3.0391,-2.5104 0,-2.5936 1.8471,-3.9213 6.004,-4.3157 3.0144,-0.286 3.451,-0.6526 3.1697,-2.661 -0.1795,-1.2812 0.4263,-3.9154 1.3462,-5.8538 1.2702,-2.6769 1.3927,-3.8002 0.509,-4.6707 -1.1747,-1.1572 -1.8462,-0.5634 -5.3809,4.7581 -1.2263,1.8463 -1.3297,1.8487 -3.3971,0.079 -1.6329,-1.3981 -1.9925,-2.5248 -1.5354,-4.8103 l 0.5969,-2.9846 -5.8863,0.6918 c -7.6151,0.895 -10.0913,2.6007 -11.422,7.8676 -2.559,10.1293 -3.5112,12.7527 -4.6284,12.7527 -2.5003,0 -4.3757,-9.0504 -4.3757,-21.1161 0,-11.5182 1.2796,-19.7563 4.4757,-28.8151 0.8352,-2.367 1.9435,-6.8383 2.463,-9.9362 2.7414,-16.3473 4.1761,-23.1714 5.96,-28.3476 1.0832,-3.1433 1.9324,-7.0219 1.887,-8.619 -0.045,-1.5972 0.6592,-3.9631 1.5658,-5.2575 2.011,-2.8711 2.1715,-8.4938 0.2633,-9.2261 -0.7619,-0.2923 -2.2244,0.057 -3.25,0.7762 -1.7741,1.2441 -1.8648,0.9121 -1.8648,-6.8254 0,-8.0006 -0.041,-8.1332 -2.4906,-8.1332 -1.7808,0 -2.9208,0.8702 -4,3.0534 -0.8302,1.6794 -2.1844,3.9348 -3.0094,5.0122 -1.4541,1.8988 -8.9241,4.4344 -13.064,4.4344 -5.3926,0 -8.7124,3.6599 -10.4311,11.5 -0.6208,2.8317 -6.4458,13.9731 -6.9585,13.3093 -0.1314,-0.1701 0.1783,-3.2343 0.6883,-6.8093 0.5099,-3.575 1.0115,-9.425 1.1147,-13 0.1183,-4.1024 0.8676,-7.7606 2.0313,-9.9174 1.0914,-2.0229 1.9736,-6.0541 2.1618,-9.8783 0.2581,-5.244 0.9298,-7.4254 3.5665,-11.5825 1.7867,-2.817 5.3007,-8.9468 7.809,-13.6218 3.3551,-6.2535 6.8759,-10.834 13.3212,-17.3311 4.8184,-4.8571 8.7608,-9.2408 8.7608,-9.7415 0,-0.5008 -0.9,-1.4725 -2,-2.1595 -2.9268,-1.8278 -2.5452,-5.3917 0.75,-7.0059 1.9138,-0.9374 2.6293,-1.9423 2.3532,-3.3045 -0.7291,-3.5971 -0.6126,-11.9318 0.1979,-14.1563 1.0305,-2.8282 -2.2258,-6.3012 -5.9081,-6.3012 -1.9664,0 -2.4578,-0.3887 -2,-1.5818 0.3339,-0.87 0.607,-1.77 0.607,-2 0,-0.23 0.6526,-0.4182 1.4503,-0.4182 2.5716,0 3.5182,-3.1603 1.8897,-6.3094 -1.9422,-3.7558 -1.2784,-5.1712 3.5899,-7.6548 l 4.0273,-2.0546 0.6049,2.7594 c 1.0594,4.8325 1.3344,5.2594 3.3875,5.2594 2.4619,0 3.5173,-3.4717 2.6608,-8.7527 -0.3343,-2.061 -0.6697,-4.4223 -0.7454,-5.2473 -0.3168,-3.4529 -1.8592,-3.9689 -6.4611,-2.1612 -6.5943,2.5902 -7.9009,4.1689 -9.9319,11.9993 l -1.8502,7.1335 -7.0609,2.6258 c -17.2029,6.3972 -18.6657,7.6267 -20.97,17.625 -0.8521,3.6973 -1.2833,7.4155 -0.9582,8.2627 0.3251,0.8472 0.041,2.2037 -0.6323,3.0145 -1.0475,1.2621 -1.8859,0.891 -5.8293,-2.5802 -6.7752,-5.9638 -8.6109,-9.0894 -13.5465,-23.0656 -2.4563,-6.9555 -5.1734,-14.0144 -6.0382,-15.6867 -0.8647,-1.6722 -1.301,-3.7473 -0.9694,-4.6113 1.067,-2.7806 -0.6376,-8.5087 -3.5197,-11.8272 -4.2007,-4.8368 -4.8609,-6.4798 -9.6622,-24.0447 -2.4331,-8.9011 -5.1905,-17.7589 -6.1276,-19.6839 -1.1904,-2.4453 -1.7194,-6.1297 -1.7557,-12.2269 -0.048,-8.1314 -0.2375,-8.9128 -2.7735,-11.449 -1.9914,-1.9917 -3.6614,-2.6954 -6.2234,-2.6228 -3.8256,0.1084 -3.7539,0.2622 -4.9233,-10.5629 -0.6386,-5.9106 -4.1645,-9.3496 -13.5441,-13.2096 -4.1731,-1.7175 -11.5818,-4.879 -16.4638,-7.0257 -4.8819,-2.1467 -9.5493,-3.9031 -10.3719,-3.9031 -1.2863,0 -1.4052,-1.9244 -0.8499,-13.75 0.3552,-7.5625 1.3089,-27.925 2.1193,-45.25 0.8104,-17.325 2.2063,-46.575 3.102,-65 0.8956,-18.425 1.601,-43.625 1.5676,-56 -0.034,-12.375 0.3816,-25.3944 0.9224,-28.932 0.6506,-4.2554 0.6272,-18.1295 -0.069,-41 -0.5788,-19.0124 -1.2472,-56.168 -1.4853,-82.568 -0.2381,-26.4 -0.8864,-50.25 -1.4405,-53 -0.5542,-2.75 -1.2482,-16.7 -1.5423,-31 -0.2941,-14.3 -0.5441,-26.3479 -0.5554,-26.7731 -0.028,-1.0403 -42.9559,0.1981 -50.5207,1.4575 -3.3,0.5494 -21.3,1.3744 -40,1.8333 -18.7,0.4589 -35.575,1.2839 -37.5,1.8333 -1.925,0.5494 -21.5,1.2146 -43.5,1.4782 -22,0.2636 -81.85,2.085 -133,4.0476 -112.8977,4.3319 -113.6688,4.366 -125.4423,5.5522 -5.1933,0.5232 -9.833,0.7098 -10.3106,0.4147 -1.8427,-1.1389 -20.101,3.0457 -33.747104,7.7344 -3.575,1.2284 -9.1249,3.1322 -12.3332,4.2307 -3.7698,1.2908 -6.5777,3.0043 -7.938,4.8442 -1.1925,1.613 -3.0485,2.847 -4.282,2.847 -1.1974,0 -3.3364,0.912 -4.7535,2.0266 -3.4154,2.6866 -9.5294,5.1927 -10.781096,4.4191 -1.4216,-0.8786 -3.9122,1.4535 -3.9122,3.6633 0,2.6259 -6.4326,5.1627 -11.0942,4.3751 -3.1935,-0.5395 -3.9324,-0.2412 -6.2632,2.5288 -1.4534,1.7273 -2.6426,3.4935 -2.6426,3.9249 0,0.4314 -2.5875,1.0192 -5.75,1.3061 -3.4828,0.316 -8.4275,1.7869 -12.5404,3.7304 -3.7348004,1.7647 -7.4540004,2.954 -8.2651004,2.6428 -1.7937,-0.6883 -3.0516,-3.8142 -3.95259995,-9.8227 -0.6723,-4.4833 -0.6339,-4.5611 4.38499995,-8.8843 2.9778,-2.565 5.3164004,-5.5135 5.6777004,-7.1585 0.4165,-1.8967 1.7944,-3.3994 4.2798,-4.668 2.0161,-1.0289 4.5228,-2.8187 5.5706,-3.9772 1.0477,-1.1585 2.4455,-2.1064 3.1062,-2.1064 0.6606,0 3.1784,-1.5086 5.595,-3.3524 6.839,-5.2182 15.0816,-9.4231 18.5595,-9.4681 1.7411,-0.023 4.6021,-0.7837 6.3577,-1.6916 1.755596,-0.9079 4.164696,-1.4065 5.353496,-1.1082 1.2988,0.326 3.876,-0.4313 6.4573,-1.8976 4.3763,-2.4857 9.9299,-4.2941 15.2579,-4.9684 3.4382,-0.4352 3.4933,-0.4654 36.407904,-19.9607 33.8457,-20.0467 42.4687,-25.3767 46.0187,-28.4444 1.6603,-1.4347 12.2353,-8.277 23.5,-15.2051 54.682,-33.631 145.6309,-89.3467 154.9813,-94.9423 9.2622,-5.5429 27.1419,-16.5231 45.5,-27.9423 10.1298,-6.3011 31.1954,-19.2463 48,-29.497 17.0209,-10.3827 27.8902,-17.3764 67.2758,-43.2876 13.5983,-8.9462 26.9742,-17.345 29.7242,-18.6641 2.75,-1.3191 6.0909,-3.562 7.4243,-4.9843 1.3334,-1.4222 3.0838,-2.5859 3.8898,-2.5859 0.806,0 2.034,-0.7776 2.729,-1.7281 1.0725,-1.4668 0.8194,-2.2605 -1.6745,-5.25 -1.616,-1.937 -3.4274,-4.1241 -4.0253,-4.8602 -1.1299,-1.391 -8.7363,-1.242 -12.0082,0.2352 -2.1986,0.9927 -9.385,-5.4443 -11.5152,-10.3143 -0.8619,-1.9705 -1.9249,-6.7326 -2.3623,-10.5826 -0.4373,-3.85 -1.3724,-10.6 -2.0778,-15 -1.6152,-10.0751 -1.2818,-25.3743 0.7049,-32.339 1.1443,-4.0117 1.3548,-7.6291 0.8467,-14.5511 l -0.6762,-9.2122 5.9239,-6.9489 c 8.4217,-9.8789 18.3969,-23.4164 19.9088,-27.0189 0.7087,-1.6885 1.249,-4.4607 1.2007,-6.1605 -0.049,-1.736 1.6968,-6.7458 3.9839,-11.43 2.2396,-4.5867 6.6393,-13.7394 9.7774,-20.3394 3.138,-6.6 8.5101,-17.85 11.9379,-25 6.5275,-13.6152 8.1234,-19.9683 6.4385,-25.6304 -0.8871,-2.9811 -1.3768,-11.5051 -2.3167,-40.32745 -0.1888,-5.7907 0.2375,-9.2659 1.5654,-12.7608 1.0038,-2.6416 1.825,-5.6283 1.825,-6.6371 0,-1.0089 0.8885,-2.6384 1.9745,-3.6212 1.0859,-0.9828 2.2412,-2.6272 2.5671,-3.6543 0.326,-1.0271 2.1375,-4.163 4.0256,-6.96861 2.4631,-3.66015 3.4328,-6.21158 3.4328,-9.03205 0,-4.13944 -1.9392,-5.99031 -4.2627,-4.06855 -1.6226,1.34199 -11.8129,5.19928 -13.7373,5.19989 -0.825,2.6e-4 -2.7567,-1.57452 -4.2926,-3.4995 -2.0247,-2.53749 -3.5815,-3.49997 -5.6611,-3.49997 -1.9855,0 -3.6785,-0.9626 -5.4997,-3.12692 -2.9011,-3.4478 -2.8989,-4.66894 0.035,-19.58092 0.7801,-3.96431 1.4183,-10.66211 1.4183,-14.88398 0,-7.24271 1.3626,-14.58464 3.1519,-16.98275 0.441,-0.59101 1.4847,-4.32101 2.3194,-8.28888 0.8346,-3.96787 2.1319,-8.43432 2.8828,-9.92543 2.4438,-4.85305 2.771,-8.06859 1.1414,-11.21975 -0.8508,-1.64525 -2.0103,-2.99137 -2.5768,-2.99137 -0.5665,0 -5.5091,4.52949 -10.9835,10.06554 -11.3771,11.50513 -13.4842,12.2096 -17.7497,5.93446 -2.064,-3.03639 -2.3012,-4.27039 -1.7908,-9.31597 0.4214,-4.16463 0.1649,-6.63495 -0.9031,-8.70034 -2.0783,-4.01892 -1.8727,-6.72795 0.5694,-7.50304 1.1335,-0.35976 2.5549,-1.73826 3.1586,-3.06332 1.5122,-3.3189 -1.0608,-6.01482 -6.53,-6.84203 -2.3043,-0.34851 -4.7767,-0.9998 -5.4943,-1.44731 -1.9855,-1.23819 -2.479,-13.04605 -0.6612,-15.82033 2.006,-3.06159 1.8632,-4.34489 -1.0668,-9.58727 -2.887,-5.16542 -4.2073,-5.94214 -8.1692,-4.80588 -5.8043,1.66465 -8.2111,-1.05486 -7.447,-8.41451 0.1142,-1.1 0.3349,-4.21319 0.4904,-6.91821 0.2539,-4.41689 0.7454,-5.33426 4.8219,-9 2.4965,-2.24498 7.1935,-5.3814 10.4378,-6.96981 3.2444,-1.58842 7.6988,-4.5546 9.8988,-6.59151 4.389,-4.06365 12.5237,-9.02047 14.8036,-9.02047 0.7962,0 4.0835,-1.16573 7.3052,-2.59052 4.4058,-1.94849 6.7945,-2.4407 9.6379,-1.98602 l 3.7803,0.6045 -0.5567,-4.26398 c -0.6823,-5.22634 -0.6951,-19.17961 -0.021,-23.26398 2.1032,-12.74928 3.1943,-24.30818 2.4735,-26.20403 -0.463,-1.21786 -2.6634,-3.41971 -4.8897,-4.89302 -4.832,-3.19764 -13.7416,-14.87892 -15.7131,-20.60117 -2.2596,-6.55858 -4.3172,-18.77706 -4.3451,-25.80178 -0.023,-5.68283 -0.4625,-7.18563 -3.5001,-11.95366 -5.5028,-8.63755 -4.1237,-15.99278 3.3032,-17.61776 4.8004,-1.05029 5.1352,-1.28605 6.5818,-4.63507 1.6773,-3.88317 16.5844,-19.43706 25.1406,-26.23132 6.306,-5.00755 22.5,-21.42876 22.5,-22.8158 0,-0.44529 2.475,-4.09795 5.5,-8.11702 3.025,-4.01908 5.5,-7.77689 5.5,-8.35069 0,-0.5738 2.241,-3.90874 4.9801,-7.41098 2.7391,-3.50223 4.9891,-6.70724 5,-7.12223 0.044,-1.68044 18.5844,-27.19132 21.9525,-30.20611 1.2047,-1.07836 4.4988,-5.12836 7.3203,-9 2.8214,-3.87165 7.6313,-9.80332 10.6885,-13.1815 3.0572,-3.37817 7.3586,-8.49264 9.5586,-11.36547 2.2,-2.87283 6.19,-7.70912 8.8667,-10.74731 2.6766,-3.03819 5.9803,-8.04873 7.3415,-11.13453 2.9784,-6.75212 6.864,-15.33166 9.1079,-20.11055 0.9038,-1.925 5.1735,-6.875 9.488,-11 9.7977,-9.36715 13.6115,-14.91384 14.727,-21.41843 0.4793,-2.79486 1.3582,-6.65657 1.9532,-8.58157 1.6873,-5.45921 2.2133,-24.52027 1.3109,-47.5 l -0.8246,-21 -3.804,-7.46476 c -2.0922,-4.10562 -4.4422,-9.95562 -5.2224,-13 -0.9491,-3.70381 -2.4088,-6.43464 -4.4117,-8.25354 l -2.9931,-2.7183 -12.8641,0.61533 c -10.5042,0.50244 -13.7508,0.31318 -17.6979,-1.0317 -3.0245,-1.03059 -8.0757,-1.64703 -13.4958,-1.64703 -7.6769,0 -9.3644,-0.35091 -14.8358,-3.08503 -6.6819,-3.33895 -9.9895,-6.93063 -12.7374,-13.83112 -1.549,-3.88996 -1.615,-5.25309 -0.554,-11.44049 1.1153,-6.50357 1.6187,-7.45855 6.7907,-12.88082 4.9415,-5.18063 5.5157,-6.20875 4.9756,-8.90911 -0.3358,-1.67896 -1.7157,-4.366 -3.0664,-5.97121 -2.0859,-2.479 -2.3751,-3.63124 -1.9201,-7.65039 0.4349,-3.84081 0.049,-5.63624 -2.0492,-9.53474 -1.4218,-2.64161 -2.585,-5.64645 -2.585,-6.67742 0,-1.9908 4.3928,-6.01967 6.5634,-6.01967 0.7116,0 1.9975,-0.7038 2.8577,-1.56401 1.3619,-1.36186 1.3844,-1.91148 0.1739,-4.25236 -1.9554,-3.78132 -4.561,-5.84748 -8.405,-6.66496 -4.0933,-0.87051 -5.391,-3.81585 -4.9845,-11.3124 l 0.2945,-5.42959 6.6642,-3.63834 c 6.3389,-3.46072 21.8358,-16.93881 21.8358,-18.99122 0,-0.53221 3.611,-3.9551 8.0244,-7.60642 8.23,-6.8088 9.0123,-7.98315 15.7546,-23.64917 1.1117,-2.58326 3.57,-5.81868 5.5939,-7.36237 2.3386,-1.78378 3.9696,-4.08745 4.6299,-6.53951 1.2472,-4.63195 13.1499,-21.38339 20.8426,-29.33325 3.11,-3.21399 8.8046,-8.00524 12.6546,-10.64724 3.85,-2.641994 10.5007,-8.224873 14.7793,-12.406395 7.4553,-7.286238 7.9757,-7.603417 12.5,-7.618388 2.5964,-0.0086 7.4207,-0.712241 10.7207,-1.563666 3.3,-0.851425 7.8198,-1.883984 10.0439,-2.294574 2.2242,-0.41059 6.1303,-2.18194 8.6802,-3.936333 3.8774,-2.667696 5.5888,-3.196934 10.4561,-3.233357 11.0954,-0.08303 13.5997,-1.06468 19.7994,-7.761048 4.0914,-4.419233 7.0753,-6.635665 10.8079,-8.028025 2.8358,-1.057859 5.5926,-2.615559 6.1263,-3.461555 1.3961,-2.213303 -1.1738,-4.984853 -4.103,-4.424906 -1.8712,0.357709 -2.3108,0.0054 -2.3108,-1.852199 0,-2.777007 2.5783,-3.786061 7.3747,-2.88624 2.5869,0.485303 3.7712,1.395592 4.6846,3.600672 1.4578,3.51952 5.5545,5.856852 10.2653,5.856852 1.8832,0 5.3371,0.675 7.6754,1.5 2.3383,0.825 5.5136,1.5 7.0562,1.5 2.1472,0 2.8796,0.527434 3.1242,2.25 0.2399,1.688973 0.9825,2.25 2.9781,2.25 2.0658,0 3.4035,-1.097993 6,-4.924709 1.8378,-2.708589 4.0165,-5.260252 4.8415,-5.670362 8.7723,-4.360742 10.2615,-4.786324 11.7031,-3.344638 1.8244,1.824314 3.7246,1.834167 5.2244,0.02709 1.5969,-1.924125 -1.1025,-8.3445255 -4.729,-11.2477405 -1.4842,-1.1882 -2.3932,-2.46852205 -2.02,-2.84516105 2.4615,-2.48438195 15.8103,6.06708805 15.8176,10.13307955 0.01,2.928433 1.872,4.20793 6.0039,4.1153 1.925,-0.04316 6.425,1.165268 10,2.685385 17.7923,7.565434 20.1754,7.211451 25.0086,-3.714776 1.5294,-3.457464 2.644,-4.7134675 4.1828,-4.7134675 1.9788,0 2.0632,0.370943 1.4871,6.5400295 -0.5072,5.431285 -1.5303,8.186181 -6.0348,16.25 -4.7148,8.440087 -5.52,10.69083 -6.157,17.20997 -1.149,11.759399 -1.0085,12.932857 1.8976,15.838217 2.2815,2.280951 3.4054,2.630258 7.8553,2.441444 3.8009,-0.161277 6.6082,0.449232 10.47299,2.277611 3.0611,1.44811 8.7217,2.92947 13.4686,3.52468 7.5199,0.94291 9.0508,0.80805 18.7536,-1.65211 5.8108,-1.47335 11.74911,-3.281645 13.19611,-4.018419 4.0154,-2.044551 7.8691,-7.180885 7.8691,-10.488148 0,-3.732834 2.1447,-3.826024 4.9839,-0.216556 1.3148,1.671497 1.9129,3.488199 1.5639,4.75 -0.311,1.123804 -1.8256,6.768281 -3.3659,12.543283 -2.1521,8.06917 -3.7837,11.88904 -7.0477,16.5 -2.336,3.3 -5.7916,8.33271 -7.67911,11.1838 -1.8875,2.8511 -3.9149,5.48231 -4.5052,5.84714 -2.3167,1.43181 -2.8519,5.53752 -1.8482,14.17821 1.3848,11.922 -0.9772,25.4299 -5.6307,32.20062 -1.7352,2.52463 -3.7332,6.39023 -4.4401,8.59023 -0.7068,2.2 -2.9155,6.56307 -4.908,9.69571 -1.9926,3.13264 -4.9665,7.85764 -6.6087,10.5 -1.6421,2.64236 -6.1899,8.17929 -10.1062,12.30429 -8.61419,9.07328 -9.40799,10.49186 -9.40799,16.81342 0,3.09975 -0.9078,6.94898 -2.4329,10.31574 -1.338,2.95396 -2.9187,8.29584 -3.5125,11.87084 -0.5939,3.575 -1.3207,7.96914 -1.6152,9.76475 -0.8327,5.07618 -8.527,10.64795 -16.8812,12.22426 -8.9454,1.68788 -10.9294,3.47572 -12.9986,11.71315 -2.0009,7.9657 -2.9176,9.29286 -6.432,9.31258 -3.0152,0.0169 -4.9246,1.02528 -11.7375,6.19855 -3.1249,2.37288 -6.8526,4.12709 -10.3267,4.85962 -5.9896,1.26296 -11.0634,5.32176 -11.0634,8.85017 0,2.85283 -5.1343,2.80578 -10.6156,-0.0973 -3.6761,-1.94699 -4.4554,-2.03903 -7.2972,-0.86192 -6.1884,2.56335 -7.348,9.94228 -3.0699,19.53613 2.7573,6.18358 7.6724,19.53204 8.9262,24.24199 1.7532,6.58584 7.9816,18.35362 11.9587,22.59441 1.9788,2.11002 5.7034,4.91396 8.277,6.23098 2.5736,1.31702 4.9689,2.86322 5.3229,3.43598 0.354,0.57277 3.4233,2.43885 6.8207,4.14685 6.0658,3.04947 19.1191,12.10746 25.3274,17.57529 4.4054,3.87991 11.3618,14.32321 15.8175,23.74578 2.0731,4.3842 6.6283,11.63257 10.1225,16.10748 10.24739,13.12326 13.17769,18.01256 17.85359,29.7897 5.677,14.29867 10.2133,24.2278 12.5734,27.52107 1.029,1.43576 4.5502,9.36047 7.825,17.61047 4.2769,10.77456 6.2814,17.39441 7.1158,23.5 0.6389,4.675 2.1064,14.73539 3.2611,22.35642 1.9792,13.06201 2.0241,14.8393 0.7829,31 -2.6945,35.08359 -2.8572,32.40444 3.6214,59.64358 1.89681,7.975 4.78301,20.125 6.41391,27 1.6309,6.875 4.5149,19.025 6.4091,27 1.8941,7.975 5.0175,21.25 6.9408,29.5 1.9233,8.25 5.323,22.75055 7.5549,32.22344 2.2318,9.4729 4.0579,18.3059 4.0579,19.62889 0,2.51919 1.8469,8.71385 14.3659,48.18533 6.8785,21.68735 7.6682,25.01175 8.0768,34 0.249,5.47929 0.8704,12.21234 1.3808,14.96234 2.5385,13.6767 5.4325,23.84609 8.0488,28.28348 1.593,2.70164 3.2391,5.99307 3.6581,7.3143 0.419,1.32122 1.7743,4.00669 3.0118,5.96772 2.9877,4.73462 10.001,18.78987 10.9448,21.9345 0.926,3.0853 6.8918,18.7911 9.6236,25.33534 4.0414,9.68166 8.8786,42.54241 8.9092,60.52341 0.011,6.4027 0.5119,14.7913 1.1132,18.6413 0.6014,3.85 1.0588,7.9 1.0165,9 -0.042,1.1 0.3308,3.575 0.8292,5.5 0.4985,1.925 1.0017,11.825 1.1184,22 0.1308,11.4049 0.7281,20.5941 1.5575,23.9601 0.74,3.0031 1.3454,8.489 1.3454,12.191 0,3.702 0.3808,6.9662 0.8463,7.2539 0.4655,0.2877 3.278,0.086 6.25,-0.4491 2.972,-0.5347 8.5537,-1.4206 12.4037,-1.9687 6.4818,-0.9228 92.9228,-10.6987 114.5,-12.9492 5.225,-0.545 47.8488,-5.2765 94.7196,-10.5144 46.8708,-5.238 87.2069,-9.5236 89.6357,-9.5236 2.4289,0 5.705,-0.6722 7.2804,-1.4938 1.5754,-0.8217 3.7643,-1.5023 4.8643,-1.5126 2.9,-0.027 41.4522,-6.7083 45,-7.7985 1.65,-0.507 2.899,-1.3988 2.7756,-1.9817 -0.2373,-1.1208 7.3975,-5.2134 9.7257,-5.2134 0.7534,0 2.4131,-0.9802 3.6883,-2.1781 2.2668,-2.1295 8.777,-3.3073 23.3104,-4.217 6.7637,-0.4234 6.6913,-0.399 10.2152,-3.4328 3.5282,-3.0375 9.8007,-4.4608 25.2462,-5.7288 4.3788,-0.3595 8.9874,-1.0436 10.2413,-1.5204 3.9109,-1.4869 5.0898,-0.2248 5.5113,5.9002 0.2149,3.1223 0.2299,6.1784 0.033,6.7915 -0.4632,1.4448 -3.5415,2.8303 -15.7473,7.0874 -5.5,1.9183 -10.45,3.8215 -11,4.2294 -0.55,0.4079 -3.603,1.7737 -6.7845,3.0352 -3.1814,1.2615 -6.2528,3.1689 -6.8254,4.2387 -0.8526,1.5931 -1.712,1.8316 -4.7501,1.3184 -2.9894,-0.5051 -4.4491,-0.1245 -7.5225,1.9611 -2.3424,1.5896 -4.5366,2.3583 -5.6883,1.9927 -2.3039,-0.7312 -9.5294,2.4032 -12.9859,5.6333 -9.5189,8.8952 -9.9917,9.162 -15.1518,8.5509 -4.114,-0.4872 -5.9843,-0.066 -12.0796,2.7221 -7.5115,3.4356 -14.9546,8.3078 -23.0926,15.1162 -7.1469,5.9793 -25.6994,24.3669 -29.7645,29.5 -8.0543,10.1704 -13.8548,18.3621 -13.8548,19.5664 0,0.7041 -1.042,2.5522 -2.3156,4.1069 -1.2736,1.5547 -3.2685,4.6954 -4.4332,6.9794 -1.1647,2.284 -6.2119,9.5949 -11.216,16.2464 -5.0041,6.6515 -10.0573,13.7827 -11.2293,15.8472 -1.172,2.0646 -3.5761,5.3287 -5.3424,7.2537 -1.7663,1.925 -5.7495,6.875 -8.8515,11 -5.8858,7.8266 -20.6613,24.2572 -26.5037,29.4724 -1.8654,1.6652 -6.1404,5.5192 -9.5,8.5646 -3.3596,3.0453 -8.5833,7.3677 -11.6083,9.6052 -3.025,2.2375 -7.5064,6.2709 -9.9586,8.963 -4.4186,4.8509 -17.5952,15.2471 -46.5414,36.7204 -8.25,6.1201 -25.8,19.2423 -39,29.1604 -22.9174,17.2195 -30.0146,22.1351 -39.0381,27.0382 -7.4421,4.0438 -8.4611,4.9429 -9.5972,8.4678 -0.6218,1.9294 -3.5432,6.0594 -6.4919,9.1777 -6.1221,6.4744 -7.4884,9.3133 -6.7426,14.01 0.7528,4.7403 -4.2995,9.5657 -10.479,10.0086 -4.0714,0.2918 -4.4347,0.5627 -5.6954,4.2456 -1.3695,4.0008 -1.1703,5.5661 0.7082,5.5661 0.9184,0 265.5537,107.9484 289.5903,118.1279 5.0899,2.1555 13.6399,4.8163 19,5.9129 13.704,2.8034 15.0202,3.3284 28.0823,11.2011 26.4355,15.9328 39.7643,25.4905 38.0036,27.2512 -0.2238,0.2238 -10.2919,-1.137 -22.3735,-3.0241 -20.3454,-3.1777 -23.0112,-3.8423 -36.1177,-9.0047 -12.1132,-4.7711 -14.9053,-6.297 -19.39,-10.5969 -5.0427,-4.8348 -6.911,-5.6912 -49.849,-22.8478 -24.5355,-9.8036 -48.885,-19.4907 -54.11,-21.527 -5.225,-2.0362 -33.575,-13.2576 -63,-24.9363 -162.7572,-64.5981 -147.7137,-58.8936 -156.1594,-59.2167 -6.8905,-0.2637 -8.3964,0.042 -15,3.0477 -10.0188,4.5598 -17.8811,5.953 -24.2598,4.2989 -5.3803,-1.3953 -6.1687,-2.2897 -7.0933,-8.0482 l -0.6202,-3.862 -2.3667,2.2234 c -1.9223,1.8059 -3.1774,2.1309 -6.6837,1.7308 -4.0437,-0.4615 -19.3945,3.9418 -74.43461,21.3514 l -3.1178,0.9862 -0.6045,23.7161 c -0.4602,18.0538 -1.1603,26.974 -2.9323,37.3616 -2.2822,13.3786 -2.2932,13.7681 -0.5621,19.9071 l 1.7657,6.2614 -9.3792,37.593 c -5.1586,20.6762 -11.4296,46.818 -13.9355,58.093 -2.50579,11.275 -6.16899,27.7 -8.14039,36.5 -1.9713,8.8 -4.2112,19.15 -4.9775,23 -0.7663,3.85 -2.7761,13.075 -4.4662,20.5 -1.6901,7.425 -4.677,20.9236 -6.6374,29.9968 l -3.5645,16.4968 2.1816,9.5032 c 1.1999,5.2268 3.038,12.3915 4.0847,15.9216 2.7279,9.2002 2.4555,16.3422 -0.879,23.045 -2.3728,4.7698 -3.5017,5.8577 -8.8914,8.5688 -3.3953,1.7079 -7.9223,3.6293 -10.0598,4.2698 -6.4897,1.9443 -8.2614,4.7425 -9.8769,15.5995 -0.7837,5.2665 -2.028,11.9431 -2.7651,14.8369 -1.1671,4.5817 -1.6927,5.3035 -4.0674,5.5862 -1.4999,0.1786 -4.3764,-0.3222 -6.3922,-1.1128 -2.0158,-0.7906 -5.7482,-1.4577 -8.2942,-1.4825 -3.6595,-0.035 -5.7054,-0.8014 -9.7674,-3.6565 l -5.1382,-3.6116 -0.8488,2.2694 c -0.4668,1.2482 -0.5368,10.1444 -0.1554,19.7694 0.6915,17.4549 0.7027,17.5193 4.3151,25 15.6531,32.4147 19.9683,46.1109 23.7871,75.5 0.6432,4.95 1.5622,10.605 2.0423,12.5668 0.48,1.9617 1.334,7.5867 1.8977,12.5 0.5637,4.9132 1.6452,11.6332 2.4033,14.9332 5.9013,25.6872 5.8208,25.0201 6.4682,53.5988 0.4855,21.4326 0.9371,27.9741 2.0212,29.2784 1.0619,1.2776 1.2496,3.5788 0.7842,9.614 -0.4927,6.3892 -0.3129,8.2333 0.9234,9.4696 1.1302,1.1301 2.0274,1.2719 3.4001,0.5372 1.0256,-0.5489 2.7689,-0.998 3.8738,-0.998 2.8778,0 5.1225,-3.7754 5.1225,-8.6155 0,-2.8898 0.4883,-4.3579 1.5902,-4.7808 2.7828,-1.0678 3.5959,0.4761 3.2484,6.1679 -0.4229,6.9249 1.0362,7.7048 5.4411,2.9082 2.5574,-2.7848 3.7674,-3.4011 5.8782,-2.9942 l 2.6579,0.5123 -1.909,3.2355 c -1.0499,1.7795 -3.246,4.5474 -4.8801,6.151 -1.6341,1.6036 -2.9836,3.202 -2.9989,3.5521 -0.015,0.35 1.8847,0.9334 4.2222,1.2965 5.2219,0.8109 8.636,3.081 7.0377,4.6793 -0.6076,0.6076 -4.9665,1.405 -9.6863,1.772 -5.8902,0.458 -9.0922,1.178 -10.2098,2.2955 -1.9434,1.9435 -1.0717,3.8202 1.7744,3.8202 1.5896,0 1.8683,0.3917 1.2452,1.75 -1.3295,2.898 -0.8692,8.0865 0.8898,10.0301 0.9091,1.0045 1.7757,2.9274 1.9259,4.2731 0.2597,2.3268 -0.043,2.4713 -6.16,2.9468 -5.8629,0.4557 -6.493,0.7257 -7.1091,3.0468 -0.3719,1.4007 -1.8807,4.4549 -3.353,6.7872 -2.7129,4.2975 -2.7223,7.3384 -0.016,5.0921 0.776,-0.644 1.411,-0.8654 1.411,-0.492 0,0.3734 1.2375,0 2.75,-0.8261 4.2871,-2.3462 12.3584,-5.608 13.8771,-5.608 0.7551,0 1.3729,0.4172 1.3729,0.9272 0,1.5559 -7.1843,6.9544 -10.1101,7.597 -2.6868,0.5901 -5.9957,3.3709 -4.2624,3.5821 0.4799,0.059 1.5475,0.1836 2.3725,0.2782 6.1104,0.7002 11.0021,2.0233 11.0136,2.979 0.01,0.6251 0.3034,2.2194 0.6576,3.5429 0.4379,1.6368 0.2884,2.1867 -0.4677,1.7194 -1.3973,-0.8636 -6.2035,0.2851 -6.2035,1.4826 0,0.4904 2.025,0.8916 4.5,0.8916 4.0746,0 4.5,0.2253 4.5,2.3834 0,2.4322 -2.1001,3.5739 -6.6276,3.6029 -3.8124,0.024 -4.5667,2.236 -2.3368,6.8513 1.1061,2.2893 2.3823,4.1624 2.836,4.1624 0.4538,0 1.5321,1.8 2.3962,4 l 1.5713,4 7.5804,0 c 4.1693,0 7.5805,0.3974 7.5805,0.8832 0,0.4858 -2.5875,2.1733 -5.75,3.75 -3.1625,1.5767 -5.525,3.3168 -5.25,3.8668 0.5004,1.0009 9.1751,1.3358 12,0.4633 1.2894,-0.3983 1.4483,1.2211 1.1322,11.5367 -0.2023,6.6 -0.5486,12.1963 -0.7695,12.4362 -0.221,0.2399 -1.5937,0.015 -3.0505,-0.5 -1.8946,-0.6696 -3.0564,-2.1605 -4.0805,-5.2362 -1.5489,-4.6519 -3.5445,-5.1191 -4.0411,-0.9461 -0.6336,5.3246 -5.7973,6.0996 -8.0274,1.205 -0.9506,-2.0863 -1.5999,-2.393 -3.9018,-1.8429 -4.0395,0.9652 -5.4668,2.4296 -4.8322,4.958 0.3068,1.2223 -0.1115,3.5057 -0.9296,5.0742 -0.818,1.5685 -1.4901,3.8681 -1.4935,5.1103 -0.01,1.9966 -0.2346,2.1158 -1.9769,1.0277 -2.0833,-1.3011 -3.7404,-4.7016 -4.2327,-8.6859 -0.3309,-2.6777 -5.0192,-6.6988 -6.6414,-5.6962 -0.7084,0.4378 -0.5831,2.1663 0.3894,5.3707 1.8896,6.2271 1.89,6.2252 -1.3004,6.2252 -2.1741,0 -3.0322,-0.6861 -4.0646,-3.25 -3.8407,-9.5377 -4.8697,-8.8105 -5.589,3.9499 -0.5478,9.72 -1.5818,18.2731 -2.6886,22.2407 -0.2317,0.8304 0.4452,1.6217 1.5981,1.8681 1.1,0.2352 4.7,2.5498 8,5.1437 3.3,2.5938 6.7875,5.0016 7.75,5.3505 2.03,0.7358 2.391,4.6971 0.4281,4.6971 -0.727,0 -3.4514,-0.7256 -6.0542,-1.6125 -2.6028,-0.8868 -5.0154,-1.3293 -5.3615,-0.9833 -0.7451,0.7451 1.182,2.8548 2.9775,3.2597 8.3679,1.8868 8.2513,1.8171 8.5739,5.1283 0.4216,4.3272 -1.6921,5.0033 -8.4553,2.7044 -2.9507,-1.003 -5.5867,-1.6018 -5.8577,-1.3307 -1.0302,1.0301 4.509,5.0841 6.9467,5.0841 1.6957,0 2.5473,0.5454 2.5372,1.625 -0.025,2.6104 -1.2166,3.644 -5.7184,4.9589 -4.3178,1.2612 -7.2359,4.4488 -5.2157,5.6974 0.5809,0.359 3.6484,0.3518 6.8167,-0.016 4.548,-0.5278 6.0284,-0.3459 7.0327,0.8642 1.6807,2.0251 0.6961,3.4087 -3.1312,4.4005 -4.6321,1.2003 -5.0564,3.6905 -0.503,2.9516 2.8241,-0.4583 3.9561,-0.1244 5.6342,1.6619 2.8008,2.9813 2.7355,5.6064 -0.1395,5.6064 -2.3369,0 -10.7524,3.1302 -10.7539,4 -5e-4,0.275 1.3613,1.4 3.0261,2.5 3.2086,2.1201 4.6106,5.381 3.5273,8.2042 -0.5758,1.5004 -0.9241,1.3952 -2.8579,-0.863 -3.4565,-4.0365 -8.4285,-7.093 -9.2847,-5.7076 -0.3976,0.6434 -0.028,1.6777 0.8207,2.2986 0.849,0.6208 3.1758,3.267 5.1707,5.8804 4.3106,5.6472 3.7482,8.5819 -1.694,8.8397 -1.7682,0.084 -3.853,0.1982 -4.6329,0.2543 -0.7799,0.056 -1.6098,0.6769 -1.844,1.3797 -0.6411,1.9232 2.6245,6.321 4.4533,5.9972 3.083,-0.5458 2.3813,2.0594 -1.313,4.8752 -7.1427,5.4445 -19.265,2.6573 -20.7507,-4.7709 -0.456,-2.28 -1.1156,-2.8878 -3.1339,-2.8878 -1.5706,0 -2.7562,0.6748 -3.0746,1.75 -0.285,0.9625 -1.3959,3.4142 -2.4686,5.4481 -1.5621,2.9619 -1.9504,5.7147 -1.9504,13.8269 0,10.0382 0.028,10.1572 3.1649,13.2937 2.9704,2.9705 6.8082,12.5008 6.8274,16.9544 0.01,1.6614 -0.1497,1.6699 -2.4923,0.1349 -1.375,-0.9009 -2.5,-2.2613 -2.5,-3.023 0,-0.7618 -0.3972,-1.385 -0.8825,-1.385 -1.3873,0 -2.343,13.9911 -1.5649,22.9106 0.4823,5.5291 0.3011,9.5401 -0.5717,12.6576 -1.1103,3.9657 -1.0696,4.7717 0.3107,6.152 1.4512,1.4512 1.7998,1.4499 4.0353,-0.015 1.3457,-0.8818 3.4068,-3.1566 4.5802,-5.0551 2.8246,-4.5703 4.5143,-5.0592 10.2976,-2.9796 3.6046,1.2962 4.6973,2.1402 4.2549,3.2867 -0.3273,0.8484 -1.0678,3.5676 -1.6455,6.0426 -0.5777,2.475 -1.4472,5.2814 -1.9323,6.2364 -1.5348,3.0222 -1.0139,3.4702 4.7235,4.0623 3.0829,0.3182 5.814,0.7873 6.0693,1.0426 0.2552,0.2552 -0.075,2.2644 -0.7347,4.4649 -2.165,7.226 0.6925,13.7911 6.8101,15.6463 3.0831,0.9349 2.8205,3.0605 -0.7799,6.3116 -2.4627,2.2237 -3.2158,3.9528 -4.0223,9.2359 -0.5458,3.575 -2.1531,9.1331 -3.5717,12.3514 -2.3201,5.2634 -2.4621,6.2698 -1.4134,10.0156 1.7091,6.1042 0.3393,8.5883 -10.7716,19.5343 -19.2565,18.9706 -26.9463,23.8155 -40.1802,25.3156 -4.131,0.4683 -18.3109,1.2207 -31.5109,1.672 -13.5008,0.4616 -25.2141,1.315 -26.7753,1.9507 -3.3266,1.3546 -10.7987,2.5829 -28.2247,4.6396 -17.7768,2.098 -22.9252,3.098 -25.8642,5.0237 -1.3826,0.9059 -5.4274,2.2568 -8.9886,3.0019 -3.5611,0.745 -7.9761,2.1399 -9.811,3.0996 -2.5426,1.3298 -7.4992,1.9658 -20.8362,2.6736 -28.267,1.5 -32.0775,1.2414 -43.642,-2.9618 -3.8811,-1.4106 -4.4478,-1.3699 -9,0.6471 -3.9662,1.7573 -6.457,2.1068 -13.5688,1.9041 -6.7351,-0.1921 -9.1166,0.1062 -10.5,1.3149 -0.9841,0.8598 -4.1904,2.1247 -7.1252,2.8109 -4.9257,1.1516 -8.4166,1.029 -16.8702,-0.5924 -2.3984,-0.46 -3.881,-0.084 -5.8848,1.4921 -2.1352,1.6796 -4.0763,2.1071 -9.5662,2.1071 -6.6258,0 -7.0496,-0.1494 -11.1538,-3.9325 z M 105.8137,1548.0131 c 1.925,-0.4892 6.0242,-1.5813 9.1094,-2.4268 3.2913,-0.902 10.3168,-1.5983 17,-1.6847 12.4579,-0.1612 23.3527,-0.8673 61.8906,-4.0112 17.952,-1.4645 37.192,-2.204 65,-2.4985 21.725,-0.2301 42.65,-0.6174 46.5,-0.8608 3.85,-0.2434 11.05,-0.702 16,-1.0191 4.95,-0.3172 12.6,-0.7908 17,-1.0525 17.0628,-1.0149 56.814,-3.5451 73.5,-4.6782 9.625,-0.6537 21.325,-1.1479 26,-1.0982 11.5084,0.1222 44.5302,-1.6146 55,-2.8927 4.675,-0.5707 12.775,-1.4238 18,-1.8957 5.225,-0.4719 11.0467,-1.0917 12.937,-1.3774 1.8904,-0.2856 10.4404,-0.9674 19,-1.5151 8.5597,-0.5476 17.6441,-1.2868 20.1878,-1.6426 l 4.6247,-0.6468 0.6166,-5.1313 c 0.3391,-2.8221 0.6204,-29.2225 0.6252,-58.6675 0.01,-57.3783 1.3202,-80.6663 6.0223,-106.9883 1.1274,-6.3115 2.9628,-18.1603 4.0787,-26.3308 1.1158,-8.1704 2.8592,-17.3954 3.8741,-20.5 4.7867,-14.6414 8.9491,-25.2217 10.8967,-27.6976 3.3161,-4.2158 2.7953,-5.447 -2.3041,-5.447 -2.4425,0 -4.6958,-0.4124 -5.0073,-0.9164 -0.6107,-0.9881 -5.707,-0.8208 -9.213,0.3024 -1.4126,0.4526 -3.318,-0.013 -5.5,-1.343 -5.0538,-3.0812 -10.6396,-2.664 -18.0636,1.349 -3.4513,1.8655 -23.1501,13.865 -43.7751,26.6654 -39.4148,24.4619 -94.5244,58.5883 -200,123.8494 -34.925,21.6092 -86.5061,53.5328 -114.6247,70.9413 -28.1186,17.4085 -60.2289,37.2435 -71.3562,44.0776 -26.110904,16.0367 -28.085304,17.6953 -18.0191,15.1371 z m 888.08479,-126.1677 c 3.5284,-1.1577 7.54021,-2.6725 8.91521,-3.3663 1.375,-0.6938 4.3,-1.5855 6.5,-1.9816 4.895,-0.8811 13.6382,-4.5067 15,-6.22 0.55,-0.692 2.5365,-1.1612 4.4144,-1.0427 1.8779,0.1185 3.574,-0.2602 3.769,-0.8415 0.3952,-1.1779 -6.0094,-4.2541 -21.6834,-10.4147 -5.775,-2.2698 -11.02901,-4.365 -11.67561,-4.656 -1.8651,-0.8395 -4.4548,4.0846 -5.9834,11.377 -1.1555,5.5124 -3.132,10.6436 -7.1264,18.5007 -0.5989,1.178 0.978,0.9066 7.8702,-1.3549 z m 66.91521,-26.4236 c 0,-0.5203 -5.0689,-10.2517 -7.9999,-15.3583 -1.6167,-2.8168 -1.7185,-7.1871 -0.701,-30.0944 0.3293,-7.4146 1.3038,-16.6396 2.1655,-20.5 0.8617,-3.8603 2.2709,-10.1688 3.1315,-14.0188 1.1623,-5.199 1.4452,-10.4733 1.0998,-20.5 -0.9057,-26.2924 -2.3981,-42.243 -4.5459,-48.5859 -1.1333,-3.3472 -2.3696,-9.1972 -2.7472,-13 -0.7154,-7.2047 -5.1364,-20.7599 -8.2481,-25.2892 -2.0372,-2.9653 -6.6996,-15.8264 -7.6582,-21.1249 -0.3483,-1.925 -2.4231,-8.557 -4.6108,-14.7378 -2.1877,-6.1808 -4.1459,-12.5674 -4.3515,-14.1923 -0.438,-3.4606 -4.5192,-16.1878 -5.5828,-17.4097 -1.0413,-1.1962 -29.15291,-0.8065 -35.30581,0.4896 -9.0517,1.9066 -9.1198,2.4024 -2.3132,16.8502 3.7898,8.0442 13.4443,37.6615 14.8753,45.6329 1.3107,7.3018 1.8732,92.8834 0.801,121.8671 -0.6224,16.8262 0.4803,39.6016 2.11591,43.7013 1.3195,3.3075 4.179,5.265 9.9658,6.8224 2.4253,0.6527 6.2096,2.2202 8.4096,3.4835 2.2,1.2632 5.5336,2.6172 7.408,3.0089 4.0818,0.853 19.7039,7.2704 26.5163,10.8926 4.5932,2.4422 7.5757,3.2543 7.5757,2.0628 z m 123.0871,-59.266 c 2.4271,-1.803 7.3379,-5.1132 10.9129,-7.356 3.575,-2.2428 9.6811,-6.5015 13.569,-9.4637 3.888,-2.9622 7.3806,-5.3858 7.7613,-5.3858 0.6641,0 8.1446,-4.7976 17.6697,-11.3323 2.475,-1.698 7.2178,-4.9054 10.5397,-7.1275 3.3218,-2.2221 11.8037,-8.5402 18.8487,-14.0402 7.0451,-5.5 17.9667,-13.915 24.2703,-18.6999 6.3036,-4.7849 13.7967,-10.7057 16.6512,-13.1573 2.8546,-2.4515 8.1025,-6.6366 11.662,-9.3001 3.5595,-2.6635 8.0595,-6.6162 10,-8.7838 1.9405,-2.1676 9.1398,-9.5926 15.9985,-16.5 6.8588,-6.9074 16.1937,-17.2839 20.7443,-23.0589 4.5506,-5.775 10.6961,-13.2 13.6567,-16.5 2.9606,-3.3 8.7924,-10.5461 12.9597,-16.1024 4.1673,-5.5564 9.5101,-12.1708 11.8729,-14.6987 10.5233,-11.2587 35.2555,-33.6934 40.993,-37.1848 13.1662,-8.0122 26.7888,-17.0432 26.7958,-17.7641 0.011,-1.1887 -2.6321,-0.9052 -16.4928,1.769 -32.631,6.2956 -29.6824,5.9227 -158,19.9815 -42.9,4.7002 -85.875,9.4238 -95.5,10.4968 -9.625,1.0731 -34.15,3.7775 -54.5,6.0099 -20.35,2.2323 -37.2516,4.1565 -37.5591,4.2758 -0.3075,0.1194 0.4754,7.642 1.7397,16.717 3.8766,27.8246 5.3422,41.4057 5.4653,50.6455 0.095,7.1032 0.7684,10.8324 3.4069,18.8545 1.8089,5.5 3.7697,12.6438 4.3573,15.8751 0.5875,3.2313 1.692,7.0563 2.4544,8.5 0.7623,1.4437 2.1107,4.0083 2.9963,5.6991 1.0883,2.0777 1.7976,6.9403 2.1881,15 0.8578,17.7058 2.59,24.644 8.4824,33.9753 2.7303,4.3239 6.4923,9.4566 8.36,11.4061 5.5649,5.8086 12.5078,17.6503 15.0593,25.6851 1.3143,4.139 3.1135,8.3251 3.998,9.3025 1.5327,1.6936 1.905,1.6305 7.917,-1.3412 3.4697,-1.7151 8.2944,-4.5935 10.7215,-6.3965 z M 995.31369,1135.9205 c 2.2,-0.4676 8.05001,-0.9334 13.00001,-1.0351 11.952,-0.2457 12.4458,-0.7112 8.9482,-8.4351 -0.7471,-1.65 -2.5273,-6.15 -3.956,-10 -1.4286,-3.85 -3.0036,-7.9 -3.5001,-9 -5.4003,-11.9658 -15.49251,-40.5052 -16.46811,-46.5696 -0.392,-2.4367 -3.5953,-16.2875 -7.1184,-30.7796 -3.5231,-14.4921 -6.4109,-27.7671 -6.4175,-29.5 -0.01,-1.73295 -0.726,-5.62585 -1.5989,-8.65085 -1.2483,-4.3261 -1.5578,-9.9821 -1.4503,-26.49999 0.1225,-18.83006 -0.066,-21.46499 -1.8203,-25.5 -1.0763,-2.475 -2.5085,-6.66153 -3.1827,-9.30341 -0.6741,-2.64187 -3.0293,-7.7937 -5.2336,-11.44851 -2.2043,-3.6548 -5.6923,-10.94327 -7.7512,-16.19659 -2.0589,-5.25332 -6.28319,-15.40149 -9.38749,-22.55149 -8.104,-18.66582 -11.2081,-28.23585 -14.0234,-43.23491 -1.3663,-7.27921 -3.3968,-15.02378 -4.5122,-17.21017 -1.1154,-2.18638 -2.0345,-4.78067 -2.0424,-5.76508 -0.01,-0.98441 -2.5111,-7.86484 -5.5627,-15.28984 -3.0516,-7.425 -5.9989,-15.075 -6.5496,-17 -0.5507,-1.925 -1.6123,-4.85 -2.3593,-6.5 -0.7469,-1.65 -2.3241,-5.475 -3.5049,-8.5 -1.1809,-3.025 -3.1599,-7.3 -4.398,-9.5 -1.238,-2.2 -2.854,-5.9125 -3.5911,-8.25 -1.3158,-4.17286 -3.02,-5.71704 -3.02,-2.73643 0,0.83246 -0.4122,2.29496 -0.9159,3.25 -2.3248,4.40725 -3.9096,9.12584 -4.5309,13.48966 -0.4587,3.22183 -1.7732,6.12146 -4.0799,9 -5.3376,6.6606 -8.4687,12.1928 -11.5007,20.32028 -1.5424,4.13444 -3.8832,8.95926 -5.2017,10.72182 -1.3185,1.76257 -4.1153,6.35467 -6.2153,10.20467 -2.0999,3.85 -5.2106,8.47627 -6.9126,10.2806 -2.6622,2.82211 -3.1896,4.28958 -3.7736,10.5 -0.3735,3.97067 -1.3627,12.1694 -2.1982,18.2194 -3.3294,24.1066 -4.0315,33.87065 -3.9062,54.32216 0.098,16.00445 0.5543,23.22633 1.8293,28.95718 0.9343,4.19926 1.8003,8.55428 1.9245,9.67784 0.1243,1.12355 0.3015,2.71782 0.3937,3.54282 0.092,0.825 1.1712,-0.82329 2.3976,-3.66286 1.2264,-2.83957 4.0636,-7.33957 6.3048,-10 l 4.075,-4.83714 8.431,0.31712 c 8.4004,0.31597 8.4463,0.33228 12.6486,4.5 2.3198,2.30058 5.7506,5.87038 7.6241,7.93288 2.5112,2.76446 4.2056,3.75 6.4474,3.75 1.6725,0 3.3236,0.45734 3.6691,1.01631 0.87,1.40773 2.4884,0.22451 2.4967,-1.82533 0.01,-1.56946 5.568,-6.19098 7.4504,-6.19098 1.2713,0 12.3664,11.91718 15.8274,17 1.6853,2.475 4.1399,5.80675 5.4547,7.40388 1.3148,1.59713 3.9192,5.93951 5.7876,9.64961 1.8685,3.7102 4.5007,8.372 5.8495,10.3595 1.3488,1.9875 2.7702,5.4952 3.1587,7.7947 0.3885,2.2996 1.552,6.639 2.5856,9.64325 1.42939,4.1546 1.87929,8.3225 1.87929,17.4104 0,10.8364 -0.2391,12.4242 -2.56899,17.0629 l -2.5689,5.1147 2.9739,2.5306 c 2.41939,2.0587 3.09589,3.5839 3.62839,8.1802 0.6471,5.5865 0.6062,5.7051 -3.65499,10.6022 -7.508,8.6284 -13.8094,16.4422 -13.8094,17.1238 0,0.3623 1.9326,2.9009 4.2947,5.6415 5.3603,6.219 11.73819,15.6334 14.56929,21.5059 1.1872,2.4623 3.6174,6.9519 5.4006,9.9769 3.2843,5.5714 7.7354,15.6812 7.7354,17.5693 0,2.8556 2.5673,3.5676 10.5,2.9122 4.4,-0.3636 9.8,-1.0436 12,-1.5113 z"
     id="path2987"
     inkscape:connector-curvature="0" />
</svg>
