<?xml version="1.0" encoding="UTF-8" standalone="no"?>
<!-- Created with Inkscape (http://www.inkscape.org/) -->

<svg
   xmlns:dc="http://purl.org/dc/elements/1.1/"
   xmlns:cc="http://creativecommons.org/ns#"
   xmlns:rdf="http://www.w3.org/1999/02/22-rdf-syntax-ns#"
   xmlns:svg="http://www.w3.org/2000/svg"
   xmlns="http://www.w3.org/2000/svg"
   xmlns:sodipodi="http://sodipodi.sourceforge.net/DTD/sodipodi-0.dtd"
   xmlns:inkscape="http://www.inkscape.org/namespaces/inkscape"
   id="svg2"
   version="1.1"
   inkscape:version="0.48.2 r9819"
   width="482.11386"
   height="952.117"
   sodipodi:docname="daumierpeintreet00eschuoft_0293b.png">
  <metadata
     id="metadata8">
    <rdf:RDF>
      <cc:Work
         rdf:about="">
        <dc:format>image/svg+xml</dc:format>
        <dc:type
           rdf:resource="http://purl.org/dc/dcmitype/StillImage" />
        <dc:title></dc:title>
      </cc:Work>
    </rdf:RDF>
  </metadata>
  <defs
     id="defs6" />
  <sodipodi:namedview
     pagecolor="#ffffff"
     bordercolor="#666666"
     borderopacity="1"
     objecttolerance="10"
     gridtolerance="10"
     guidetolerance="10"
     inkscape:pageopacity="0"
     inkscape:pageshadow="2"
     inkscape:window-width="1600"
     inkscape:window-height="876"
     id="namedview4"
     showgrid="false"
     fit-margin-top="0"
     fit-margin-left="0"
     fit-margin-right="0"
     fit-margin-bottom="0"
     inkscape:zoom="0.70710678"
     inkscape:cx="-155.60508"
     inkscape:cy="451.92506"
     inkscape:window-x="0"
     inkscape:window-y="24"
     inkscape:window-maximized="1"
     inkscape:current-layer="svg2" />
  <path
     style="fill:#000000"
     d="m 116.89492,950.95627 c -2.75,-0.40599 -5.9,-0.86969 -7,-1.03043 -1.1,-0.16074 -2.2991,0.1353 -2.66466,0.65786 -0.39243,0.56098 -1.71627,0.26106 -3.2323,-0.73228 -2.52416,-1.65389 -9.940355,-2.00952 -25.103045,-1.20374 -2.75,0.14614 -8.825,0.27881 -13.5,0.29482 -4.675,0.016 -11.425,0.0387 -15,0.0505 -3.575,0.0118 -11.42495,0.11541 -17.44433,0.23032 l -10.94432,0.20891 -1.33325,-3.85098 c -0.73328,-2.11804 -2.66681,-5.22688 -4.29673,-6.90853 -1.62991,-1.68164 -3.63026,-5.30281 -4.4452,-8.04703 -0.88455,-2.97859 -3.31553,-7.13786 -6.03178,-10.32003 -6.37178999,-7.46473 -7.16216,-9.11371 -4.36831,-9.11371 1.21354,0 2.96964,-0.69069 3.90244,-1.53486 1.36334,-1.23381 2.54509,-1.34409 6.02491,-0.56222 2.3809,0.53495 4.67771,0.75706 5.10403,0.49359 1.91195,-1.18166 24.83573,-5.37976 29.33254,-5.37176 3.36056,0.006 7.75213,1.12498 13.39351,3.41276 6.53197,2.64894 8.93059,3.19967 10.8151,2.48318 3.34036,-1.27 4.29139,-1.15709 4.29139,0.5095 0,1.13809 0.6638,1.23982 3.25,0.49811 1.7875,-0.51265 3.25,-0.89443 3.25,-0.8484 0,0.046 1.2375,-0.2269 2.75,-0.60651 1.5125,-0.37961 2.75,-1.13957 2.75,-1.68879 0,-0.54922 -0.7126,-0.72513 -1.58356,-0.39091 -1.00546,0.38583 -1.43109,0.15109 -1.16589,-0.64301 0.25161,-0.75343 1.6906,-1.11983 3.61934,-0.92156 2.69266,0.27679 3.87167,-0.37733 7.41589,-4.11434 5.755805,-6.0689 10.060845,-9.03871 17.714225,-12.22005 3.575,-1.48604 8.38781,-3.55529 10.69514,-4.59832 2.30732,-1.04302 5.75802,-1.89641 7.66821,-1.89641 5.34783,0 6.28676,-0.71093 9.68757,-7.33509 1.74076,-3.3907 4.80394,-7.87409 6.80705,-9.9631 2.00312,-2.089 3.52953,-4.114 3.39203,-4.5 -0.1375,-0.38599 0.15213,-0.70181 0.64363,-0.70181 0.49149,0 4.42899,-3.21216 8.75,-7.13813 4.321,-3.92597 9.3277,-8.36089 11.12598,-9.85539 1.79829,-1.4945 4.42069,-4.68144 5.82757,-7.08209 2.38617,-4.0717 2.45201,-4.51607 0.98039,-6.61711 -0.86767,-1.23876 -1.57757,-3.33226 -1.57757,-4.65223 0,-2.0199 -0.23753,-2.2028 -1.5,-1.15505 -1.30013,1.07901 -1.5,0.56235 -1.5,-3.87756 0,-2.81734 0.4151,-5.12244 0.92245,-5.12244 0.50734,0 1.47884,-1.6875 2.15889,-3.75 1.29296,-3.92142 3.94032,-9.00934 6.89427,-13.25 2.44323,-3.50747 5.86135,-14.64034 6.1406,-20 0.15378,-2.95151 -0.50653,-6.04849 -1.91891,-9 -1.18436,-2.475 -2.16326,-5.18737 -2.17534,-6.02749 -0.0121,-0.84013 -0.65071,-2.42517 -1.41919,-3.52232 -0.76847,-1.09715 -1.65279,-5.08138 -1.96516,-8.85385 -0.46439,-5.60856 -0.19487,-7.67795 1.47839,-11.35098 1.12548,-2.47058 2.2001,-5.29044 2.38805,-6.26637 0.18794,-0.97593 1.57808,-3.73294 3.0892,-6.1267 1.51111,-2.39376 2.66282,-4.57729 2.55935,-4.85229 -0.22083,-0.5869 1.61235,-5.73865 2.93081,-8.23643 0.50413,-0.95504 0.91659,-2.64254 0.91659,-3.75 0,-1.10746 0.37396,-2.01357 0.83102,-2.01357 0.45706,0 1.46884,-1.2375 2.24841,-2.75 0.77956,-1.5125 1.66235,-2.975 1.96176,-3.25 0.2994,-0.275 2.66262,-3.12875 5.25159,-6.34167 3.47101,-4.30753 4.70722,-6.70526 4.70722,-9.13006 0,-1.8604 1.75142,-6.74018 4.03321,-11.23723 2.21827,-4.37186 4.39822,-10.25782 4.84433,-13.0799 0.44611,-2.82208 1.38627,-5.82408 2.08923,-6.6711 0.8683,-1.04623 0.91821,-1.54004 0.15567,-1.54004 -1.43373,0 -1.50445,-9.21799 -0.0816,-10.64081 0.70539,-0.70539 0.7256,-2.44369 0.0627,-5.39407 -0.9881,-4.39769 -0.27411,-10.76822 1.82463,-16.28022 0.58953,-1.5483 1.07187,-4.0807 1.07187,-5.62755 0,-1.54686 0.7136,-3.4047 1.58578,-4.12854 1.48639,-1.23359 1.62831,-6.818 0.30315,-11.92881 -0.21391,-0.825 0.17357,-1.3875 0.86107,-1.25 0.6875,0.1375 1.25,-0.2 1.25,-0.75 0,-0.55 -0.36549,-1 -0.81221,-1 -0.44671,0 -0.62382,-3.0375 -0.39358,-6.75 0.23025,-3.7125 0.48325,-8.325 0.56221,-10.25 0.079,-1.925 0.93108,-4.37235 1.89358,-5.43856 0.9625,-1.06621 1.75,-2.47361 1.75,-3.12756 0,-0.65394 0.675,-1.74919 1.5,-2.43388 0.825,-0.68469 1.5,-1.92768 1.5,-2.7622 0,-0.83452 0.6819,-2.01692 1.51534,-2.62756 2.19345,-1.60707 3.03801,-13.11832 1.52681,-20.81026 -0.68074,-3.46499 -1.48241,-6.69757 -1.78149,-7.18352 -1.39575,-2.2679 -2.32818,-27.91936 -1.11373,-30.63891 0.37394,-0.83735 0.27712,-3.67831 -0.21514,-6.31325 -0.70405,-3.76861 -0.56551,-5.29368 0.64932,-7.14774 1.65271,-2.52236 2.71692,-8.22532 1.80903,-9.69432 -0.30309,-0.4904 -0.73439,-3.46352 -0.95846,-6.60694 -0.22406,-3.14341 -1.11963,-8.4153 -1.99014,-11.7153 -0.87052,-3.3 -1.71795,-7.125 -1.8832,-8.5 -0.16524,-1.375 -0.39503,-2.5 -0.51063,-2.5 -0.11561,0 -0.3186,-1.125 -0.4511,-2.5 -0.86884,-9.01637 -1.90605,-15 -2.60012,-15 -0.8839,0 -0.59598,-31.49674 0.33616,-36.77342 0.31804,-1.80038 0.92279,-3.82538 1.34388,-4.5 0.42108,-0.67462 0.88886,-2.01774 1.03951,-2.98472 0.15064,-0.96698 2.61559,-6.36698 5.47767,-12 2.86207,-5.63302 5.2657,-10.46686 5.3414,-10.74186 0.0757,-0.275 0.45864,-1.22036 0.85099,-2.1008 0.39235,-0.88044 0.57849,-2.02979 0.41363,-2.55411 -0.28729,-0.91374 0.74361,-3.28106 5.87032,-13.48042 1.28147,-2.54943 2.32995,-5.78537 2.32995,-7.19098 0,-1.40561 0.39188,-2.79785 0.87084,-3.09386 2.14766,-1.32733 3.29454,-11.52235 1.50035,-13.33719 -0.7677,-0.77653 -1.02632,-2.593 -0.67628,-4.75 0.35113,-2.16376 0.16043,-3.49264 -0.5012,-3.49264 -0.65824,0 -0.85408,-1.31806 -0.51045,-3.43558 0.57222,-3.52641 -2.86078,-12.56442 -4.77251,-12.56442 -0.50093,0 -0.91079,-0.89619 -0.91079,-1.99153 0,-1.09534 -0.9,-2.55358 -2,-3.24054 -1.1,-0.68696 -2,-1.72606 -2,-2.30911 0,-1.65166 -2.41352,-6.44232 -3.25,-6.45102 -0.4125,-0.004 -0.75,-0.66024 -0.75,-1.45767 0,-0.79743 -1.39589,-3.51818 -3.10198,-6.04613 -3.78662,-5.61071 -14.29315,-26.14119 -15.95549,-31.17813 -0.6649,-2.01466 -2.10476,-5.18137 -3.19969,-7.03714 -1.09493,-1.85577 -1.7139,-3.65101 -1.37548,-3.98942 0.33841,-0.33841 0.16393,-1.15914 -0.38773,-1.82385 -0.55166,-0.66471 -1.86076,-5.20611 -2.90913,-10.09201 -1.52784,-7.12052 -1.85207,-12.1579 -1.6338,-25.38345 0.23438,-14.2019 0.74974,-20.2543 2.98024,-35 1.41531,-9.35652 2.64679,-12.87924 9.48356,-27.12824 2.80472,-5.84554 5.0995,-10.86286 5.0995,-11.1496 0,-0.28674 1.78179,-3.37903 3.95953,-6.87175 5.39087,-8.64602 11.04047,-18.53486 11.04047,-19.32482 0,-1.65509 5.2583,-11.52559 6.14001,-11.52559 0.54712,0 0.77045,-0.7875 0.49628,-1.75 -0.27431,-0.962989 1.27093,-4.898043 3.43599,-8.75 2.16397,-3.85 4.19871,-7.675 4.52165,-8.5 3.9133,-9.99713 7.14119,-17.040868 8.93614,-19.5 2.94155,-4.030015 7.84686,-13.49951 8.20352,-15.836547 0.15817,-1.036449 1.29532,-3.287893 2.527,-5.003208 2.36634,-3.295528 2.57988,-3.633836 7.12888,-11.294369 3.55039,-5.978857 12.92277,-15.1141405 17.51345,-17.0703965 10.94182,-4.662707 28.53778,-2.61096297 41.33908,4.820263 3.9919,2.317323 7.483,4.4767765 7.758,4.7987855 0.275,0.32201 4.325,3.466906 9,6.988659 8.00138,6.027567 15.34173,14.21699 19.20067,21.421657 0.93537,1.746336 4.41695,6.325156 7.73685,10.175156 4.88759,5.668013 6.03868,7.667429 6.04933,10.507543 0.0117,3.125369 -0.65517,4.018143 -6.12061,8.19374 l -6.13376,4.686197 -0.20493,9.80626 c -0.11271,5.393443 -0.71356,12.25198 -1.33521,15.24118 -0.79908,3.84235 -0.81904,5.80995 -0.0681,6.71476 0.77344,0.93193 0.52867,2.03693 -0.90044,4.06507 -2.98933,4.24233 -5.86384,10.41176 -6.56573,14.09177 -0.81272,4.26105 1.41806,6.69699 6.9007,7.53533 5.01213,0.7664 9.44984,2.91416 15.94125,7.71522 4.24309,3.1382 5.98398,3.77243 11.5,4.1896 3.575,0.27038 8.13963,1.33798 10.14362,2.37246 2.00399,1.03448 6.89166,3.55097 10.86148,5.5922 3.96982,2.04122 7.73019,4.34365 8.35638,5.1165 0.62619,0.77285 4.43569,1.92524 8.46557,2.56088 9.73393,1.53532 15.71063,4.73042 21.05924,11.25808 5.1609,6.29859 7.78845,11.7401 8.64128,17.89569 0.33967,2.45164 1.19556,6.03252 1.90198,7.95752 0.70642,1.925 2.30917,6.875 3.56168,11 1.2525,4.125 2.74469,8.92774 3.31598,10.67277 1.49073,4.55348 -1.21679,17.2214 -5.69992,26.6687 -1.98403,4.18089 -3.60731,8.51443 -3.60731,9.63008 0,1.11565 -0.45,2.02845 -1,2.02845 -0.55,0 -1,0.58757 -1,1.30572 0,0.71815 -1.15626,2.85565 -2.56947,4.75 -2.70808,3.63008 -3.39309,5.04308 -9.42648,19.44428 -10.53759,25.15237 -13.03081,30.72884 -14.9333,33.40064 -1.13891,1.59945 -2.07486,3.28863 -2.07989,3.75373 -0.005,0.4651 -1.11596,3.09563 -2.46873,5.84563 -2.57408,5.23275 -3.17559,9.44164 -1.5792,11.05 0.51861,0.5225 1.18365,11.075 1.47788,23.45 0.67271,28.2943 1.36757,40.02292 2.4534,41.41098 3.0372,3.88259 4.38148,71.82814 1.68345,85.08902 -1.20167,5.90628 -1.50494,12.48265 -1.49871,32.5 4.2e-4,1.375 -0.0537,4.38852 -0.12025,6.6967 -0.0666,2.30819 0.19312,5.62699 0.57707,7.37511 0.48645,2.21481 0.36251,2.971 -0.40884,2.49428 -0.71466,-0.44169 -1.16308,0.4885 -1.26537,2.62489 -0.23939,4.99951 0.11408,7.27354 1.18791,7.64235 0.53379,0.18334 0.97053,0.99739 0.97053,1.80902 0,0.81163 -0.45,1.19757 -1,0.85765 -1.54798,-0.95671 -1.18054,1.79723 0.57402,4.30222 1.65923,2.36888 1.15427,8.19778 -0.71018,8.19778 -0.53749,0 -0.28955,0.98183 0.55098,2.18185 1.17387,1.67594 1.2599,2.50516 0.37101,3.57621 -0.82837,0.99813 -0.84682,1.58621 -0.0649,2.06945 0.60077,0.37129 1.02183,2.81241 0.9357,5.42472 -0.0861,2.6123 0.21665,4.74922 0.67286,4.7487 0.4562,-5.1e-4 0.54516,1.29341 0.1977,2.87539 -0.39364,1.79224 0.14177,5.17245 1.42055,8.96846 2.6522,7.87294 2.67207,15.90456 0.0518,20.9317 -1.10029,2.11094 -4.48526,6.2312 -7.52217,9.15613 -4.57231,4.40373 -6.28354,5.40394 -9.95303,5.81754 -2.43726,0.27472 -5.23978,0.13153 -6.22783,-0.31818 -0.98805,-0.44972 -2.24646,-0.87696 -2.79646,-0.94942 -0.55,-0.0725 -2.91826,-0.73364 -5.26281,-1.46928 -3.40312,-1.06778 -4.7258,-1.08973 -6.55861,-0.10884 -5.73449,3.069 -8.56919,30.23832 -7.36557,70.59557 0.20953,7.02557 -1.54025,18.3117 -3.45384,22.27728 -2.30564,4.77805 -5.49606,6.85932 -11.38751,7.42863 -5.32567,0.51463 -6.12806,2.4965 -6.97613,17.23085 -0.37787,6.56522 -1.06523,12.93145 -1.52744,14.14718 -0.46222,1.21573 -0.53538,2.51544 -0.16258,2.88824 0.37281,0.3728 -0.10592,1.11643 -1.06384,1.65251 -0.95792,0.53608 -1.74167,1.86685 -1.74167,2.95726 0,1.99678 -5.62516,17.55747 -7.01959,19.41805 -0.41221,0.55 -1.06075,2.575 -1.44121,4.5 -0.99633,5.04113 -3.76126,12.37753 -4.98786,13.23469 -0.57824,0.40408 -0.7338,0.74158 -0.3457,0.75 0.3881,0.008 0.0253,1.92781 -0.80626,4.26531 -3.14277,8.83443 -6.39407,25.78512 -6.74632,35.17194 -0.10766,2.86905 -0.69946,5.09353 -1.41888,5.33333 -0.6788,0.22627 -1.23418,1.4989 -1.23418,2.82806 0,1.32917 -0.5625,2.42356 -1.25,2.43198 -0.83588,0.0102 -0.75305,0.34154 0.25,1 1.10522,0.72553 1.18906,1.18646 0.31857,1.75133 -0.64979,0.42165 -1.18058,3.00915 -1.17953,5.75 10e-4,2.74085 -0.47848,8.13336 -1.06561,11.98336 -0.58713,3.85 -0.87764,11.14481 -0.64557,16.21068 0.38176,8.33316 0.72051,9.64462 3.55564,13.76534 1.72353,2.50506 4.34482,5.33298 5.82509,6.28427 1.48028,0.95129 3.51157,2.74438 4.51399,3.98466 1.00242,1.24028 2.46492,2.25505 3.25,2.25505 0.78508,0 1.42742,0.45 1.42742,1 0,0.55 0.675,1 1.5,1 0.825,0 1.5,0.66643 1.5,1.48095 0,0.81452 1.2375,1.75634 2.75,2.09294 5.89622,1.31217 6.24988,1.55108 6.2818,4.2435 0.0301,2.54201 0.10679,2.58357 1.46237,0.79294 1.29862,-1.71537 1.64156,-1.75235 3.7182,-0.40086 1.2582,0.81884 4.08763,1.81901 6.28763,2.2226 6.04957,1.10981 11.5,2.95388 11.5,3.89086 0,0.45979 -1.4625,0.52591 -3.25,0.14693 -4.96605,-1.05287 -4.96963,-1.05269 -5.45833,0.28014 -0.50651,1.38138 -0.51296,1.38062 14.20833,1.67802 7.52486,0.15203 11.09376,0.69621 14.41899,2.19858 l 4.41898,1.99656 -3.05411,2.17471 c -5.46495,3.89139 -12.36548,6.36262 -15.20544,5.44541 -1.41813,-0.45802 -6.93553,-0.65772 -12.26088,-0.44379 -7.58041,0.30452 -9.5706,0.68045 -9.16724,1.7316 0.28337,0.73844 1.15298,1.09789 1.93246,0.79878 0.83717,-0.32125 1.41724,0.0738 1.41724,0.96532 0,0.83004 -1.2375,1.89475 -2.75,2.36602 -2.99933,0.93455 -19.34618,0.9027 -25.75,-0.0502 -2.3892,-0.35551 -6.12181,0.0191 -9.26895,0.93032 -4.26424,1.23462 -6.07574,1.30477 -9.5,0.36787 -2.32708,-0.63671 -7.83105,-1.02971 -12.23105,-0.87334 -4.4,0.15637 -10.475,0.25217 -13.5,0.21289 -3.025,-0.0393 -14.05,-0.0672 -24.5,-0.0621 -10.45,0.005 -20.29042,-0.046 -21.8676,-0.11354 -1.57718,-0.0675 -3.49377,0.39689 -4.25909,1.03205 -1.56817,1.30146 -14.37295,2.32936 -14.37396,1.15386 -6.9e-4,-0.79296 -2.85032,-0.76336 -30.07213,0.31235 -16.32097,0.64495 -16.65525,0.61627 -22,-1.88772 -5.42677,-2.54241 -13.43901,-3.72144 -15.71798,-2.31295 -0.66508,0.41104 -1.62081,0.49298 -2.12383,0.1821 -0.50302,-0.31089 -1.08266,-0.061 -1.28809,0.55525 -0.20543,0.61628 -3.26722,1.31417 -6.80398,1.55087 -3.53676,0.2367 -6.71848,0.89636 -7.07049,1.46592 -0.72056,1.16588 -39.05791,0.87445 -47.42285,-0.36051 z"
     id="path2987"
     inkscape:connector-curvature="0" />
</svg>
