<?xml version="1.0" encoding="UTF-8" standalone="no"?>
<!-- Created with Inkscape (http://www.inkscape.org/) -->

<svg
   xmlns:dc="http://purl.org/dc/elements/1.1/"
   xmlns:cc="http://creativecommons.org/ns#"
   xmlns:rdf="http://www.w3.org/1999/02/22-rdf-syntax-ns#"
   xmlns:svg="http://www.w3.org/2000/svg"
   xmlns="http://www.w3.org/2000/svg"
   xmlns:sodipodi="http://sodipodi.sourceforge.net/DTD/sodipodi-0.dtd"
   xmlns:inkscape="http://www.inkscape.org/namespaces/inkscape"
   id="svg2"
   version="1.1"
   inkscape:version="0.48.2 r9819"
   width="2250.8435"
   height="1806.5946"
   sodipodi:docname="Dog,Deerhound.png">
  <metadata
     id="metadata8">
    <rdf:RDF>
      <cc:Work
         rdf:about="">
        <dc:format>image/svg+xml</dc:format>
        <dc:type
           rdf:resource="http://purl.org/dc/dcmitype/StillImage" />
        <dc:title></dc:title>
      </cc:Work>
    </rdf:RDF>
  </metadata>
  <defs
     id="defs6" />
  <sodipodi:namedview
     pagecolor="#ffffff"
     bordercolor="#666666"
     borderopacity="1"
     objecttolerance="10"
     gridtolerance="10"
     guidetolerance="10"
     inkscape:pageopacity="0"
     inkscape:pageshadow="2"
     inkscape:window-width="1600"
     inkscape:window-height="876"
     id="namedview4"
     showgrid="false"
     fit-margin-top="0"
     fit-margin-left="0"
     fit-margin-right="0"
     fit-margin-bottom="0"
     inkscape:zoom="0.5"
     inkscape:cx="918.60194"
     inkscape:cy="1195.0004"
     inkscape:window-x="0"
     inkscape:window-y="24"
     inkscape:window-maximized="1"
     inkscape:current-layer="svg2" />
  <path
     style="fill:#000000"
     d="m 1607.3208,1803.5314 c -4.4441,-2.9436 -6.4633,-5.9238 -5.2947,-7.8146 0.8174,-1.3225 -3.6142,-2.2098 -5.0568,-1.0125 -0.6802,0.5645 -2.7228,0.8832 -4.539,0.7081 -2.4489,-0.236 -3.8225,-1.1481 -5.3154,-3.5297 -2.5633,-4.0894 -3.8072,-4.0805 -6.9578,0.05 -2.979,3.9057 -11.6582,8.9428 -13.9161,8.0763 -0.8596,-0.3299 -1.8354,-1.4582 -2.1684,-2.5074 -0.7495,-2.3612 -2.2419,-2.4246 -4.7005,-0.1996 -2.5338,2.293 -5.2477,0.5792 -5.335,-3.369 -0.1045,-4.7279 -1.0958,-5.5659 -4.501,-3.805 -6.6333,3.4302 -8.7277,-2.0004 -4.9342,-12.7937 1.1,-3.1297 2,-6.3151 2,-7.0786 0,-2.2009 9.5576,-14.5927 16.3218,-21.1617 3.398,-3.3 8.4282,-8.8986 11.1782,-12.4413 2.75,-3.5428 9.5,-11.0374 15,-16.6549 7.9427,-8.1123 10.86,-10.4429 14.1805,-11.3285 5.0465,-1.3459 11.1744,-0.196 18.3608,3.4457 2.8552,1.4468 6.6089,2.479 9.0152,2.479 4.5747,0 6.4619,-1.5902 10.0879,-8.5 3.0504,-5.8131 8.744,-15.3677 12.0155,-20.1635 1.5621,-2.2899 2.8317,-5.4399 2.8214,-7 -0.01,-1.5601 2.6702,-8.6865 5.9565,-15.8365 3.2863,-7.15 7.9682,-17.95 10.4043,-24 7.9086,-19.641 8.8363,-21.8768 12.8626,-31 5.8885,-13.3428 17.7953,-43.0986 17.7953,-44.4716 0,-0.6562 1.35,-4.269 3,-8.0284 1.65,-3.7594 3,-7.9816 3,-9.3828 0,-1.4012 1.2893,-4.0258 2.8651,-5.8324 1.5758,-1.8066 3.1811,-4.2973 3.5674,-5.5348 0.5741,-1.8394 0.3211,-2.25 -1.3866,-2.25 -1.2771,0 -2.5475,-1.0067 -3.2692,-2.5908 -1.0164,-2.2307 -0.819,-3.2384 1.42,-7.25 2.7262,-4.8843 4.8033,-15.3289 4.8033,-24.1528 0,-4.7792 -0.1944,-5.1782 -3,-6.1562 -1.65,-0.5752 -3.0566,-1.5643 -3.1259,-2.198 -0.429,-3.9262 0.4657,-21.3266 1.7509,-34.053 1.1314,-11.2032 1.2506,-16.5383 0.4801,-21.5 -0.5636,-3.6295 -1.2859,-9.5242 -1.6051,-13.0992 -1.3755,-15.4074 -2.5152,-19.8851 -5.9252,-23.28 -1.7789,-1.771 -4.4169,-4.0141 -5.862,-4.9846 -1.7167,-1.1528 -2.861,-3.0596 -3.3006,-5.5 -0.8468,-4.7001 -2.0563,-6.2354 -4.9122,-6.2354 -3.9117,0 -5,-2.5928 -5,-11.9122 0,-7.5187 -0.2183,-8.5878 -1.7535,-8.5878 -1.0046,0 -2.4993,1.4947 -3.5,3.5 -1.9943,3.9965 -5.5613,5.1628 -7.0673,2.3107 -2.6085,-4.9401 -5.3068,-17.9803 -5.4863,-26.5143 l -0.1929,-9.1689 -3.9119,-0.064 c -3.286,-0.054 -4.0282,-0.4638 -4.6388,-2.5638 -1.9702,-6.7755 -4.088,-26.1776 -4.1208,-37.7518 -0.02,-7.1319 -0.4157,-13.5802 -0.8788,-14.3296 -1.4749,-2.3864 -2.2745,1.6996 -1.5984,8.1679 0.5328,5.0977 0.3389,6.2233 -1.3652,7.9274 -1.0923,1.0923 -2.404,1.9861 -2.9147,1.9861 -2.1861,0 -4.0725,-3.3759 -4.0912,-7.3214 -0.021,-4.3524 -1.6362,-16.9326 -2.5521,-19.8735 -0.3633,-1.1666 -1.835,-1.7901 -4.7205,-2 -5.7145,-0.4158 -6.9394,-3.2029 -7.5187,-17.1075 -0.428,-10.2713 -0.553,-10.7876 -2.5417,-10.5 -1.604,0.2319 -2.296,1.3513 -2.9688,4.8024 -0.4825,2.475 -1.3376,5.0625 -1.9003,5.75 -1.4929,1.8242 -4.2155,1.5292 -6.2082,-0.6728 -1.9631,-2.1692 -1.868,-8.5813 0.3626,-24.4377 0.8642,-6.143 0.927,-9.18 0.2049,-9.9021 -1.0567,-1.0567 -1.3263,-0.6031 -4.1675,7.0126 -1.2848,3.4437 -4.4252,4.3947 -6.7699,2.05 -1.6517,-1.6517 -1.5129,-4.2942 0.7337,-13.971 1.0635,-4.581 2.2501,-11.929 2.637,-16.329 0.3868,-4.4 1.3166,-9.7441 2.0663,-11.8757 1.9042,-5.4147 1.7021,-8.6345 -0.703,-11.1945 -3.4632,-3.6865 -4.3862,-14.4682 -2.4984,-29.1858 0.8743,-6.8167 1.3325,-12.8103 1.018,-13.319 -0.8459,-1.3687 -3.5748,-1.1226 -5.3749,0.4847 -3.3348,2.9779 -7.5253,2.3405 -9.0659,-1.3789 -1.393,-3.3629 -0.4579,-7.1927 2.9118,-11.9249 1.7377,-2.4404 1.988,-4.3389 1.9227,-14.5856 l -0.075,-11.78 -2.9263,-1.1046 c -2.352,-0.8878 -3.2216,-2.1203 -4.431,-6.2803 -1.6339,-5.6207 -2.8998,-6.6084 -7.333,-5.7218 -2.3698,0.474 -3.2114,0.098 -4.6296,-2.0661 -1.4697,-2.2429 -1.6293,-4.0243 -1.0493,-11.7079 l 0.6842,-9.0624 -4.076,-5.3986 c -2.2418,-2.9692 -4.4769,-5.3986 -4.9669,-5.3986 -2.5569,0 -7.6288,-6.1916 -11.1595,-13.6231 -2.1691,-4.5656 -5.4596,-10.2868 -7.3121,-12.7137 -6.7038,-8.7825 -9.689,-17.18588 -10.0046,-28.16318 -0.1737,-6.04066 -0.7884,-9.0844 -2.51,-12.42761 -1.2755,-2.47702 -2.5162,-7.10281 -2.8161,-10.5 -0.5504,-6.23447 -5.0575,-19.0482 -8.3265,-23.67234 -1.0109,-1.42997 -2.2596,-4.47658 -2.775,-6.77023 -0.5153,-2.29366 -1.7256,-5.3738 -2.6894,-6.84475 -0.9638,-1.47095 -2.5347,-5.25844 -3.4909,-8.41664 -1.5379,-5.0793 -1.5866,-6.47053 -0.422,-12.05152 0.9604,-4.60214 1.0482,-7.66328 0.3246,-11.31312 -0.5455,-2.75209 -1.1898,-7.84936 -1.4315,-11.32729 -0.8768,-12.61304 -3.3329,-13.1758 -16.2394,-3.72095 -4.5288,3.31768 -10.1551,5.13666 -20.1919,6.528 -4.675,0.64807 -9.9074,1.40664 -11.6276,1.68571 -2.4284,0.39397 -3.658,-0.0453 -5.5,-1.965 -1.3048,-1.35983 -3.9474,-2.97568 -5.8724,-3.59079 -1.925,-0.61511 -5.75,-2.81998 -8.5,-4.89972 -5.5594,-4.2044 -6.7545,-7.65027 -4.0727,-11.7432 2.1423,-3.26957 1.989,-4.76821 -0.9273,-9.06569 -2.9031,-4.27799 -3.1362,-7.7743 -0.8922,-13.38259 1.9522,-4.87908 1.3033,-7.02227 -2.1261,-7.02227 -1.4195,0 -3.9783,-0.72258 -5.6861,-1.60572 -1.9156,-0.99056 -4.3678,-1.40084 -6.4008,-1.07092 -6.8936,1.11867 -21.9734,13.91451 -27.9028,23.67664 -1.5033,2.475 -3.801,5.64649 -5.106,7.04777 -4.5885,4.92711 -9.582,14.53072 -11.4585,22.03766 -2.6986,10.79582 -8.1208,23.73707 -15.1141,36.07341 -7.3975,13.04935 -12.3285,18.24116 -17.3247,18.24116 -1.9345,0 -4.2442,-0.72691 -5.1326,-1.61536 -2.1096,-2.10961 -1.0748,-6.42176 1.7568,-7.32046 3.2494,-1.03133 9.8154,-7.40328 11.9595,-11.60613 2.6625,-5.2188 2.4685,-5.44478 -1.8224,-2.12371 -3.4424,2.66429 -10.1622,6.26566 -11.6912,6.26566 -0.3514,0 -2.3084,1.6875 -4.3489,3.75 -2.0404,2.0625 -6.8473,6.225 -10.6818,9.25 -10.5489,8.3218 -19.448,17.02003 -22.1859,21.68515 -3.047,5.19175 -9.6969,11.31485 -12.2884,11.31485 -2.4038,0 -4.9939,-3.51289 -4.3646,-5.9196 0.2575,-0.98461 3.5828,-4.88093 7.3895,-8.65849 6.6772,-6.62607 7.966,-9.22643 6.0611,-12.2299 -1.4381,-2.26756 -6.2434,-0.19927 -13.6398,5.87085 -13.7897,11.31693 -19.2533,19.12898 -22.5584,32.25476 -0.6314,2.50758 -1.9693,5.30248 -2.9731,6.21088 -2.205,1.9955 -5.6069,1.1863 -6.472,-1.5396 -0.6418,-2.0221 5.0466,-20.58849 6.6025,-21.55008 0.5034,-0.31111 1.6257,-1.93948 2.494,-3.61862 l 1.5787,-3.05297 -3.611,2.75429 c -7.3136,5.57831 -12.7166,14.54113 -16.5631,27.47568 -2.0497,6.8924 -2.129,8.0596 -0.9837,14.46828 0.6851,3.8341 2.1356,8.6782 3.2231,10.7647 1.8496,3.5485 1.872,3.9545 0.3471,6.2817 -2.1179,3.2324 -4.0838,3.1423 -7.5734,-0.3474 -7.7994,-7.7994 -7.9033,-26.50788 -0.2301,-41.41448 0.8032,-1.56028 -4.5396,-0.67179 -6.0133,1 -2.6649,3.02303 -7.3993,13.4783 -9.2457,20.418 -1.3049,4.90458 -1.6519,9.00388 -1.3122,15.49998 0.4415,8.4417 1.153,10.8822 5.4736,18.7748 1.4155,2.5857 1.4374,3.2531 0.1806,5.5 -3.4781,6.2179 -9.6132,1.8491 -13.1262,-9.3473 -3.1014,-9.8846 -2.942,-20.9123 0.4997,-34.57368 1.4519,-5.7631 2.4621,-10.656 2.2449,-10.8731 -0.2172,-0.2172 -2.4423,0.9613 -4.9447,2.6188 -3.2592,2.1588 -4.1226,3.1777 -3.0436,3.5917 1.9481,0.7476 1.9573,5.868 0.017,9.6196 -1.7279,3.34138 -4.9735,4.71218 -7.059,2.98138 -1.976,-1.64 -1.8186,-3.84668 0.5517,-7.73438 2.5752,-4.2236 2.5728,-4.2314 -1.2537,-4.194 -4.3083,0.042 -6.7401,2.0389 -6.7939,5.5784 -0.024,1.5894 -0.7328,4.68978 -1.5748,6.88978 -0.842,2.2 -1.9794,5.8925 -2.5276,8.2056 -1.3405,5.6563 -7.2151,14.5199 -15.3124,23.1035 -7.1362,7.5647 -14.8546,12.5962 -21.128,13.7731 -2.13,0.3996 -5.2275,1.5505 -6.8833,2.5574 -3.8913,2.3665 -16.8478,5.2484 -20.0181,4.4527 -3.3985,-0.8529 -5.0365,-4.1454 -3.6148,-7.2658 0.6066,-1.3314 1.1029,-3.843 1.1029,-5.5814 0,-2.2684 0.9972,-4.182 3.5324,-6.7783 2.8506,-2.9193 3.9122,-5.2076 5.5,-11.8555 1.0822,-4.5309 1.9676,-9.5459 1.9676,-11.1445 l 0,-2.9065 -3.6395,2.4698 c -2.0018,1.3585 -4.9268,2.4699 -6.5,2.4699 -2.6844,0 -2.8661,0.2617 -2.9513,4.25 -0.05,2.3375 -1.5124,8.525 -3.25,13.75 -2.869,8.6275 -3.406,9.5285 -5.8466,9.8104 -1.9484,0.225 -3.1233,-0.3549 -4.2727,-2.1091 -1.6817,-2.5666 -1.6614,-2.6871 2.0777,-12.3719 1.3103,-3.3938 2.3824,-7.3313 2.3824,-8.75 0,-2.4592 -0.2558,-2.5794 -5.4875,-2.5794 -5.2948,0 -5.5742,0.1374 -7.9594,3.9159 -1.3596,2.1538 -2.9504,4.2116 -3.535,4.5729 -1.6738,1.0345 -6.5938,11.4331 -8.4391,17.8369 -1.1022,3.8247 -1.4569,7.306 -1.0325,10.1356 1.1519,7.6815 -3.4953,11.6808 -8.1567,7.0194 -1.8534,-1.8534 -2.3908,-3.4661 -2.3942,-7.1852 -0.01,-7.2419 4.6316,-20.4678 10.1341,-28.8968 4.0956,-6.2738 4.5388,-7.3987 2.9152,-7.3987 -2.8007,0 -7.2189,1.856 -8.4634,3.5554 -0.5948,0.8123 -3.9105,1.932 -7.3681,2.4884 -7.2969,1.1742 -16.2007,4.3156 -19.265,6.7969 -1.2993,1.0521 -2.2296,3.0828 -2.3793,5.1935 -0.1352,1.9062 -0.6017,6.2783 -1.0366,9.7158 -0.6643,5.2501 -0.5499,6.25 0.7152,6.25 1.3627,0 4.3732,-5.7076 6.2166,-11.786 0.9034,-2.9787 10.9062,-13.214 12.9139,-13.214 2.7469,0 3.8732,3.6133 2.1593,6.9276 -0.8378,1.62 -1.937,3.2013 -2.4426,3.5138 -2.2861,1.4128 -9.1037,15.7918 -9.9024,20.8849 -0.6993,4.4593 -1.5074,6.075 -4.1772,8.3513 -5.1103,4.3571 -5.8952,4.6311 -8.4573,2.9524 -3.5374,-2.3178 -4.9141,-9.6683 -4.0561,-21.6561 0.5056,-7.0648 0.3904,-9.9739 -0.3951,-9.9739 -0.6099,0 -3.1729,2.6578 -5.6955,5.9063 -2.5227,3.2485 -5.3833,6.1146 -6.357,6.3692 -2.9268,0.7654 -5.0543,-1.1198 -5.0543,-4.4788 0,-3.3845 4.434,-8.1968 13,-14.1091 7.7593,-5.3554 13.193,-9.6876 12.151,-9.6876 -0.5512,0 -4.7244,1.8 -9.2737,4 -4.5493,2.2 -9.2733,4 -10.4977,4 -4.1567,0 -9.0095,5.4472 -19.5996,22 -2.2872,3.575 -5.0899,9.1535 -6.2281,12.3966 -2.3214,6.6141 -4.547,8.7384 -7.3019,6.9695 -4.2847,-2.7511 -0.7862,-14.5095 8.6631,-29.1161 4.1955,-6.4852 3.8428,-7.5681 -1.5488,-4.7562 -1.5754,0.8217 -3.6153,1.4967 -4.5333,1.5 -0.9179,0 -2.9737,0.7551 -4.5685,1.6703 -2.7425,1.574 -2.9974,2.3057 -4.707,13.5116 -1.96226,12.8626 -1.68016,17.3391 1.5685,24.8909 2.4669,5.7345 2.2287,7.5855 -1.3168,10.2299 -2.53706,1.8925 -2.83806,1.9133 -5.20856,0.3601 -4.0614,-2.6612 -4.8478,-7.4597 -4.3793,-26.7202 0.2333,-9.59 0.7564,-18.1689 1.1625,-19.0641 0.564,-1.2433 0.075,-1.7603 -2.0717,-2.1894 -1.5456,-0.3089 -3.9482,-0.8474 -5.3393,-1.1967 -2.4345,-0.6112 -2.5935,-0.3581 -4.25,6.7617 -2.2312,9.5906 -2.189,10.2177 0.7792,11.5701 1.8799,0.8566 2.5,1.904 2.5,4.2227 0,3.9936 -2.807,12.5542 -4.6061,14.0474 -2.0292,1.6841 -6.3096,1.4247 -8.2332,-0.4988 -2.0085,-2.0086 -1.871,-11.2071 0.3751,-25.0893 1.8989,-11.7365 1.9264,-11.5 -1.3383,-11.5 -2.481,0 -3.0129,0.6021 -4.6375,5.25 -1.0093,2.8875 -2.6785,6.6617 -3.7093,8.3871 -1.0308,1.7254 -3.5564,6.4004 -5.6125,10.3889 -4.3919,8.5198 -7.6318,11.027 -11.7973,9.129 -2.455,-1.1186 -2.6497,-1.6102 -2.2038,-5.5658 0.2689,-2.3863 2.8006,-9.178 5.626,-15.0925 2.8253,-5.9146 5.1369,-11.1459 5.1369,-11.6252 0,-0.4793 -1.7572,-0.8715 -3.905,-0.8715 -3.5962,0 -4.1278,0.3755 -6.724,4.75 -1.5504,2.6125 -3.8257,7.1932 -5.0562,10.1793 -1.25,3.0333 -4.3919,7.6671 -7.1197,10.5 -2.6853,2.7889 -6.0593,7.1444 -7.4978,9.6788 -1.4384,2.5345 -3.7073,5.3237 -5.042,6.1982 -1.3347,0.8745 -3.4258,3.6539 -4.6469,6.1763 -1.2211,2.5225 -2.8797,5.2458 -3.6857,6.0519 -3.2965,3.2964 -9.3227,0.4272 -9.3227,-4.4388 0,-1.2357 1.8206,-5.364 4.0458,-9.1741 7.8505,-13.4419 13.3594,-29.9427 11.5227,-34.5139 -0.7538,-1.876 -0.7857,-1.8759 -1.9175,0 -2.6776,4.4484 -4.7738,5.8131 -7.9529,5.1773 -2.7444,-0.5489 -4.3559,-1.4256 -9.2904,-5.0542 -1.9433,-1.4291 -2.4303,-0.4411 -3.4977,7.0965 -0.8143,5.7502 -1.514,7.406 -4.376,10.3563 -2.4826,2.5593 -3.4917,4.5803 -3.7203,7.4516 -0.2755,3.4601 -0.8007,4.1908 -4.3137,6.0019 -3.2277,1.664 -4.0596,2.677 -4.3086,5.2466 -0.1697,1.7514 0.3928,4.5407 1.25,6.1984 3.1975,6.1832 0.9911,14.1133 -3.9267,14.1133 -5.1907,0 -6.9336,5.3598 -4.0147,12.3458 0.825,1.9745 1.5,5.6446 1.5,8.1558 0,4.1253 -0.3254,4.7579 -3.3726,6.5557 -4.1201,2.4309 -4.4796,4.7221 -3.6786,23.4427 0.4641,10.847 0.9285,13.709 2.8037,17.2808 2.7647,5.2659 2.814,6.8456 0.2565,8.2144 -1.4854,0.795 -2.7065,0.6955 -4.8091,-0.3918 -4.9662,-2.5681 -5.3999,-1.3204 -4.736,13.6247 0.4274,9.6209 1.1689,15.1416 2.5685,19.1237 1.0822,3.079 1.9676,6.5318 1.9676,7.6729 0,2.7021 2.5455,7.5869 4.3055,8.2623 2.436,0.9348 4.923,7.4176 3.713,9.6785 -2.7503,5.139 -7.6885,4.5605 -10.6287,-1.2451 -0.8971,-1.7712 -2.211,-3.8954 -2.92,-4.7204 -0.7089,-0.825 -2.1171,-3.975 -3.1294,-7 l -1.8404,-5.5 -0.5622,14.5 c -0.5465,14.0969 -0.482,14.7327 2.3203,22.869 1.5853,4.603 2.9201,9.6927 2.9661,11.3104 0.1113,3.916 -2.3116,6.2665 -5.607,5.4394 -2.0993,-0.5269 -2.8813,-1.7474 -4.408,-6.8797 l -1.856,-6.2391 -1.5564,3 c -1.2423,2.3944 -1.3753,4.2112 -0.6589,9 3.8209,25.5402 2.8861,30.8013 -5.0671,28.5203 -2.0403,-0.5851 -3.2712,-0.5051 -3.7333,0.2427 -0.3793,0.6136 -0.8554,11.4475 -1.0581,24.0753 -0.2027,12.6278 -0.8118,23.788 -1.3536,24.8003 -0.5418,1.0124 -2.3743,2.5591 -4.0723,3.4372 -2.7333,1.4134 -3.0162,1.9591 -2.4677,4.7603 2.3281,11.8889 3.6989,16.8497 6.034,21.8367 3.1823,6.7966 4.4274,15.1015 2.5949,17.3094 -1.7063,2.0561 -5.7332,1.9199 -6.8634,-0.2322 -0.5055,-0.9625 -1.2475,-3.775 -1.649,-6.25 -0.4015,-2.475 -1.842,-6.3 -3.2012,-8.5 l -2.4712,-4 0.5322,14 c 0.6317,16.6181 3.2137,26.1543 9.0203,33.3147 3.9582,4.8811 4.8108,9.9502 2.0579,12.2349 -2.8006,2.3242 -6.3997,-0.033 -10.3207,-6.7587 -1.9908,-3.4151 -3.9571,-6.2276 -4.3696,-6.25 -0.4125,-0.023 -0.75,2.5921 -0.75,5.8102 0,6.2805 1.5177,9.9112 8.3492,19.9725 4.678,6.8897 6.0949,11.7294 5.1936,17.7394 -0.4969,3.3137 -1.6044,5.6525 -3.6413,7.6894 -4.2944,4.2944 -4.6908,5.4774 -4.6847,13.9838 0,4.2548 -0.773,10.9125 -1.7244,14.7948 -1.6051,6.5497 -1.6131,7.3645 -0.1111,11.2973 0.8903,2.3312 1.6187,5.4044 1.6187,6.8294 0,1.425 0.675,4.504 1.5,6.8423 2.0519,5.8158 2.0081,18.349 -0.071,20.4286 -0.8643,0.8643 -2.2143,1.5714 -3,1.5714 -1.0264,0 -1.4286,1.2667 -1.4286,4.5 0,5.0824 1.0347,5.5677 6.1883,2.9026 4.536,-2.3456 7.8117,-0.6461 7.8117,4.0529 0,4.6203 -3.4324,6.8815 -11.4522,7.5445 l -6.0478,0.5 -0.5105,5.5 c -0.2808,3.025 -0.8698,6.0625 -1.309,6.75 -0.5444,0.8522 -0.1505,1.25 1.2375,1.25 1.1197,0 2.807,1.1769 3.7495,2.6152 2.5099,3.8306 0.2494,7.5256 -5.4514,8.9109 -2.8929,0.703 -5.1562,2.1588 -7.1878,4.6235 -2.8902,3.5062 -2.9174,3.6407 -1.0764,5.3069 1.7904,1.6202 1.9471,1.6007 3.0037,-0.3735 1.4797,-2.7648 5.5034,-2.6935 7.4829,0.1325 2.3207,3.3134 3.0185,8.5621 1.5124,11.3763 -2.0213,3.7769 -12.8984,9.4082 -18.1722,9.4082 -2.418,0 -5.1176,0.5625 -5.999,1.25 -1.8777,1.4646 -5.4799,10.5944 -9.1734,23.25 -1.4446,4.95 -3.3343,11.025 -4.1993,13.5 -0.8649,2.475 -1.9657,6.525 -2.4461,9 -0.4804,2.475 -1.7897,7.425 -2.9095,11 -1.1198,3.575 -2.0395,9.1098 -2.0437,12.2997 -0.01,3.4171 -0.6848,7.109 -1.6559,8.9869 -0.9971,1.9282 -1.964,7.3405 -2.4477,13.7004 -0.4397,5.7821 -1.2622,12.313 -1.8279,14.513 -0.5656,2.2 -1.0392,6.7174 -1.0523,10.0386 -0.016,4.0731 -0.6868,7.3278 -2.0606,10 -1.1202,2.1788 -1.8247,4.7972 -1.5656,5.8187 0.7452,2.9373 -1.0024,6.3058 -6.0971,11.7524 -4.6801,5.0035 -5.5617,5.3235 -10.8006,3.9211 -0.55,-0.1472 -2.8925,-0.2144 -5.2055,-0.1492 -4.1929,0.118 -4.2196,0.1432 -8.8582,8.3684 -5.3178,9.4296 -11.9173,15.75 -16.4456,15.75 -1.5799,0 -3.1515,-0.4512 -3.4923,-1.0027 -0.4143,-0.6703 -1.2409,-0.6703 -2.4933,0 -1.0305,0.5515 -3.2532,1.0027 -4.9393,1.0027 -2.0372,0 -3.0658,0.4955 -3.0658,1.4769 0,3.5565 -3.9419,4.3986 -18.9148,4.0406 -12.6984,-0.3036 -14.8401,-0.1168 -17.9852,1.5689 -6.9754,3.7386 -13.1,1.7947 -13.1,-4.1578 0,-2.5743 -0.3558,-2.9286 -2.9409,-2.9286 -1.6176,0 -3.2244,0.4586 -3.5708,1.019 -0.8187,1.3247 -9.1993,5.5049 -12.7511,6.3602 -3.9183,0.9436 -12.1389,-2.8352 -15.8187,-7.2715 l -2.9925,-3.6077 -4.213,4.7201 c -4.854,5.4383 -8.5563,6.7678 -12.1994,4.3807 -3.1727,-2.0788 -5.8227,-7.2031 -5.2566,-10.1645 0.763,-3.9916 -0.5957,-4.5702 -4.5008,-1.9166 -4.4185,3.0024 -7.1019,3.1346 -9.7562,0.4803 -2.545,-2.545 -2.5171,-3.0459 0.5,-9 3.0399,-5.999 3.1133,-7.9506 0.4275,-11.3651 -2.593,-3.2965 -5.1452,-3.3334 -9.3386,-0.1349 -7.4978,5.7189 -14.3052,1.0051 -12.9393,-8.9599 l 0.6301,-4.5969 -2.7049,1.0284 c -3.9704,1.5095 -5.095,1.303 -8.498,-1.5605 -3.4922,-2.9384 -3.9044,-5.9099 -1.4724,-10.613 2.0877,-4.0371 15.1361,-19.8818 21.7336,-26.3911 2.8391,-2.8012 8.987,-9.2616 13.662,-14.3565 11.1145,-12.1127 11.0973,-12.098 16.6933,-14.2233 5.9278,-2.2513 7.5801,-2.2701 13.1329,-0.1495 l 4.393,1.6777 5.2367,-5.6717 c 7.5013,-8.1245 17.9858,-12.9225 27.2956,-12.4911 l 6.6341,0.3074 2.6583,-8.5 c 1.4621,-4.675 3.5567,-10.3 4.6547,-12.5 1.0981,-2.2 3.2108,-9.072 4.6951,-15.2711 1.4843,-6.1991 3.6798,-12.934 4.8789,-14.9663 2.2806,-3.8654 2.5538,-6.069 4.6197,-37.2626 0.973,-14.6931 0.9599,-14.8838 -2.9631,-43 -0.4988,-3.575 -1.3322,-11.9 -1.852,-18.5 -0.5198,-6.6 -1.4454,-15.1125 -2.0569,-18.9166 -0.7788,-4.8449 -0.8096,-9.0382 -0.1027,-14 0.5551,-3.8959 1.2596,-13.3834 1.5657,-21.0834 0.306,-7.7 1.2313,-16.925 2.0563,-20.5 1.6672,-7.2251 3.4277,-29.6282 3.8897,-49.5 0.2482,-10.6741 2.3381,-67.4977 2.6112,-71 0.043,-0.55 -0.2412,-5.5 -0.6315,-11 -0.3901,-5.5 -0.6581,-11.8 -0.5954,-14 0.063,-2.2 -0.5053,-7.6 -1.2622,-12 -0.7568,-4.4 -1.6658,-14.2 -2.0199,-21.7778 -0.3541,-7.5779 -1.2935,-15.9029 -2.0874,-18.5 -1.8621,-6.0915 -3.2325,-14.476 -5.1032,-31.2222 -0.8294,-7.425 -1.8749,-16.6676 -2.3234,-20.5392 -0.4484,-3.8715 -1.9439,-10.3965 -3.3233,-14.5 -1.3794,-4.1034 -3.2576,-11.7358 -4.1738,-16.9608 -0.9162,-5.225 -2.9599,-14.225 -4.5416,-20 -1.5816,-5.775 -3.5821,-16.575 -4.4455,-24 -0.8634,-7.425 -2.2445,-15.975 -3.0691,-19 -0.8246,-3.025 -1.7493,-10 -2.0549,-15.5 -0.3057,-5.5 -1.4532,-14.0105 -2.5502,-18.9122 -1.097,-4.9017 -1.7479,-9.8948 -1.4464,-11.0958 0.3014,-1.2011 -0.1469,-5.9656 -0.9964,-10.5879 -0.8494,-4.6222 -1.7152,-15.1541 -1.9239,-23.4041 -0.3964,-15.6665 -1.5891,-24.4194 -3.7279,-27.35798 -0.6955,-0.9555 -2.612,-3.4002 -4.259,-5.4327 -1.647,-2.0325 -3.672,-5.8319 -4.5,-8.4431 -1.8206,-5.74149 -4.1186,-6.57621 -6.5893,-2.3935 -2.1041,3.5618 -4.4689,4.3535 -8.6506,2.8957 -2.8461,-0.9921 -3.3294,-0.8209 -5.9439,2.1052 -3.8666,4.3274 -7.4324,5.6115 -10.3232,3.7174 -5.0326,-3.2975 -3.3725,-9.1442 3.2181,-11.33423 2.8845,-0.9585 5.171,-2.69894 7.2376,-5.50906 2.7594,-3.75221 2.9703,-4.59019 2.4356,-9.67781 -0.3309,-3.14809 -1.4153,-6.65691 -2.4942,-8.0699 -1.0499,-1.375 -3.2988,-4.8625 -4.9977,-7.75 -4.6222,-7.85623 -5.5952,-7.23177 -8.945,5.74083 -0.6378,2.46996 -1.9226,5.61996 -2.855,7 -0.9325,1.38004 -2.2304,3.75571 -2.8843,5.27925 -1.481,3.45044 -5.7398,5.26682 -8.9352,3.81088 -3.455,-1.57419 -3.3894,-5.70788 0.1667,-10.50865 3.4628,-4.67488 4.4369,-10.28421 3.4599,-19.92358 -0.8409,-8.29639 -3.2351,-16.05741 -6.8775,-22.29453 -3.057,-5.2348 -9.0394,-24.16397 -9.7053,-30.7094 -0.3439,-3.37964 -1.2321,-7.88888 -1.9737,-10.02053 -0.7415,-2.12655 -1.3483,-6.04821 -1.3483,-8.70971 0,-3.88188 -0.4126,-5.05989 -2.0856,-5.9553 -1.1472,-0.61391 -2.2158,-0.96724 -2.3747,-0.78518 -0.159,0.18206 -0.5051,6.97414 -0.7692,15.09351 l -0.4801,14.76249 3.8548,8.03085 c 4.0983,8.53808 4.5746,10.82442 2.6548,12.74417 -2.2999,2.29995 -5.6214,1.32362 -8.5074,-2.50068 -1.5359,-2.03537 -4.434,-5.29787 -6.4401,-7.25 -2.0061,-1.95213 -5.0436,-6.06071 -6.75,-9.13018 -2.7677,-4.97855 -3.1025,-6.4704 -3.1025,-13.82332 0,-7.00539 -0.2388,-8.19394 -1.5912,-7.91914 -1.859,0.37773 -6.3102,10.12607 -6.3686,13.94759 -0.022,1.44335 0.622,4.50112 1.4313,6.79504 2.637,7.47384 3.0359,13.86257 1.0057,16.1059 -3.9057,4.31572 -6.9788,1.08312 -8.9967,-9.46352 -1.9386,-10.13206 -1.8743,-17.66807 0.1878,-21.99219 1.4621,-3.06617 1.5084,-4.16441 0.3748,-8.88976 -0.9426,-3.92937 -1.0125,-6.31184 -0.2578,-8.78558 0.5696,-1.86679 1.307,-5.31176 1.6388,-7.65549 0.3317,-2.34373 2.1631,-7.20169 4.0696,-10.79548 2.835,-5.34387 3.2581,-6.86779 2.3226,-8.36568 -1.0443,-1.67226 -1.6003,-1.36395 -6.3934,3.54548 -4.0521,4.15037 -5.9367,5.37701 -8.2614,5.37701 -2.5098,0 -3.4012,0.7082 -5.3491,4.25 -1.906,3.46546 -2.9367,4.30796 -5.5835,4.564 -2.6053,0.25202 -3.4098,-0.12893 -4.0761,-1.93012 -0.6478,-1.75117 0.366,-4.55605 4.6154,-12.76901 4.8641,-9.40088 5.3809,-10.98358 4.8387,-14.81988 -0.3338,-2.36224 -0.8583,-6.43249 -1.1657,-9.04499 -1.3138,-11.16897 -2.1521,-11.59343 -8.359,-4.23237 -8.915,10.57261 -21.0822,12.09664 -21.0822,2.64069 0,-2.26832 0.8445,-3.08407 5.4508,-5.26503 4.9948,-2.36495 5.5913,-3.0121 7.1305,-7.73705 0.9238,-2.83593 3.2396,-9.14008 5.1462,-14.00921 3.7654,-9.61611 3.4086,-12.93533 -0.8554,-7.95737 -3.9896,4.6576 -14.1082,12.9443 -18.7782,15.3784 -5.9422,3.09727 -16.8435,3.36074 -20.0305,0.48412 -3.292,-2.97131 -2.3866,-6.64993 2.1866,-8.88454 2.0625,-1.00779 3.75,-2.49506 3.75,-3.30503 0,-0.81311 -2.3513,-2.51937 -5.25,-3.80977 -2.8875,-1.28541 -6.3409,-3.51064 -7.6743,-4.94497 -1.7242,-1.8547 -3.438,-2.60787 -5.9343,-2.60787 -10.9391,0 -20.5343,-12.04276 -13.366,-16.77542 2.1621,-1.42747 2.4712,-1.29021 6.2067,2.75599 3.5658,3.86246 4.2508,4.19833 7.3692,3.61331 1.8909,-0.35474 5.1475,-2.0035 7.2368,-3.66391 2.0894,-1.66041 6.4303,-4.42147 9.6465,-6.13568 4.3355,-2.31082 7.1281,-4.82049 10.7996,-9.70552 8.8113,-11.72378 14.8688,-25.01034 12.8738,-28.23721 -1.3906,-2.24912 -3.9841,1.26571 -4.6197,6.26086 -0.6714,5.27527 -1.7922,6.88758 -4.7883,6.88758 -3.2157,0 -4.8189,-2.39528 -4.174,-6.23623 0.9594,-5.71459 6.0491,-19.04191 9.852,-25.79752 2.0229,-3.59356 4.3854,-9.58398 5.25,-13.31205 1.9302,-8.32288 1.9844,-9.46658 0.372,-7.8542 -0.66,0.66 -2.4741,1.2 -4.0314,1.2 -1.8191,0 -3.0292,0.62566 -3.3847,1.75 -1.7793,5.62783 -7.0315,16.59216 -10.5032,21.92641 -4.5741,7.02825 -8.2828,9.1311 -11.7817,6.68036 -3.2838,-2.30002 -2.6351,-5.98288 1.833,-10.4065 3.8432,-3.80494 11.9517,-17.44952 14.1966,-23.88923 0.9104,-2.61172 0.8457,-3.51536 -0.3367,-4.69775 -1.2854,-1.28533 -2.039,-0.76555 -6.1755,4.25903 -4.5696,5.55065 -14.8853,14.37768 -16.8025,14.37768 -4.6721,0 -6.16,-5.01895 -2.7667,-9.33284 2.077,-2.64048 3.1156,-7.3679 4.9798,-22.66716 0.5697,-4.675 1.6663,-10.75 2.4369,-13.5 0.7706,-2.75 1.6648,-10.99668 1.987,-18.32596 0.4432,-10.07828 1.0359,-14.22137 2.4322,-17 1.0154,-2.02072 2.3993,-5.38341 3.0752,-7.47263 1.1511,-3.55812 1.0679,-3.94774 -1.3132,-6.15452 -1.4311,-1.32628 -2.7002,-1.88146 -2.904,-1.2703 -0.199,0.59709 -1.9085,1.60638 -3.7989,2.24286 -2.9148,0.98141 -3.5426,1.75156 -4.132,5.06889 -1.3978,7.86756 -0.8622,21.2494 1.1397,28.47323 1.8875,6.81134 1.8036,9.69911 -0.3231,11.11865 -2.4565,1.63973 -4.6625,-1.57428 -7.5884,-11.05568 -4.3581,-14.12282 -3.9099,-22.1582 2.0561,-36.85743 1.7386,-4.28345 2.7332,-5.48266 4.9085,-5.91771 2.6565,-0.5313 2.6984,-0.64621 1.5956,-4.38114 -1.5826,-5.35977 -2.0196,-5.48761 -4.1845,-1.22424 -1.049,2.06579 -4.4343,7.58098 -7.5228,12.25598 -3.0885,4.675 -7.0665,10.85007 -8.8399,13.72237 -3.9531,6.40248 -9.3356,11.27763 -12.4513,11.27763 -2.8156,0 -7.4721,-3.47993 -8.548,-6.38812 -1.0148,-2.74305 0.5376,-6.05435 3.6091,-7.69815 3.5915,-1.92213 12.1275,-13.94345 14.6381,-20.61507 1.9862,-5.27803 2.1717,-7.53376 2.0663,-25.12377 -0.077,-12.8343 -0.4936,-19.70294 -1.2407,-20.45 -1.5092,-1.50923 -1.4307,-6.22688 0.1251,-7.5147 0.8326,-0.68921 1.1337,-3.13028 0.9017,-7.31084 l -0.3483,-6.27615 -1.9375,5.4384 c -3.5508,9.9667 -4.5776,21.06775 -2.9655,32.06241 1.3069,8.91318 1.2851,9.94398 -0.2601,12.30215 -0.9275,1.41561 -2.2959,2.57384 -3.0409,2.57384 -2.1,0 -4.0183,-2.9093 -4.1968,-6.3648 -0.089,-1.72436 -0.5046,-8.83274 -0.9235,-15.79639 -0.7417,-12.33177 -0.6871,-12.87038 2.0952,-20.70117 1.5712,-4.42199 2.5537,-8.34295 2.1834,-8.71324 -0.3703,-0.3703 -2.1043,0.5309 -3.8534,2.00265 -3.4813,2.92939 -6.5896,3.04707 -8.3022,0.31432 -1.8098,-2.88786 1.1754,-6.88982 7.3979,-9.91758 4.2683,-2.07689 5.886,-3.53253 7.2238,-6.5 3.2783,-7.27223 1.2107,-10.10787 -3.1095,-4.26449 -1.7113,2.31468 -2.9132,2.98402 -4.9381,2.75 -4.3816,-0.5064 -4.0778,-4.59141 0.8851,-11.89963 3.8915,-5.73041 4.1457,-6.51386 3.6024,-11.10105 -0.4342,-3.66667 -0.064,-6.25705 1.4417,-10.076 2.9197,-7.40729 1.9415,-13.17643 -3.3337,-19.66129 -3.8426,-4.7238 -4.2547,-4.95449 -8.1594,-4.56811 -2.7685,0.27396 -4.7017,1.15685 -5.9159,2.70186 -4.1322,5.2576 -4.78,5.79492 -6.9866,5.79492 -5.414,0 -6.1786,-4.98972 -1.7098,-11.1587 1.65,-2.27776 3.01,-4.63636 3.0222,-5.24134 0.012,-0.60498 0.9023,-2.22496 1.9778,-3.59996 2.5906,-3.31196 2.5015,-3.80946 -0.75,-4.18358 -3.1728,-0.36507 -3.1914,-0.53501 -1.9222,-17.56642 0.6567,-8.8135 0.5521,-10.25 -0.7468,-10.25 -2.3941,0 -3.3936,2.97685 -4.1566,12.37954 -0.4398,5.42065 -1.2559,9.30914 -2.1392,10.19239 -2.899,2.89905 -5.0629,1.08272 -5.4663,-4.58836 -0.3014,-4.23703 -0.4953,-4.50063 -3.5271,-4.79381 -2.327,-0.22503 -3.7004,0.2863 -5,1.86159 -3.4878,4.22762 -4.4587,4.94865 -6.6632,4.94865 -5.8599,0 -6.2598,-6.25037 -0.7852,-12.27234 4.3363,-4.76992 12.1566,-16.31095 12.1566,-17.94056 0,-0.58931 -0.9047,-4.1094 -2.0105,-7.82243 -1.5759,-5.29169 -2.8858,-7.54169 -6.0596,-10.40907 l -4.0491,-3.65811 -3.3851,2.97211 c -4.311,3.78516 -6.6389,3.23602 -10.583,-2.4965 -3.7225,-5.41045 -6.7963,-5.742 -12.1698,-1.31266 -5.2331,4.3135 -9.2932,4.75416 -14.0373,1.52351 -2.0869,-1.42117 -4.4191,-2.58395 -5.1826,-2.58395 -2.2071,0 -2.7898,3.68018 -1.4255,9.00354 1.5426,6.01857 0.2785,9.61301 -3.7349,10.62029 -2.754,0.69122 -3.3998,0.1867 -8.3626,-6.53337 -1.3761,-1.86336 -1.8716,-1.93175 -6,-0.82809 -5.4016,1.44404 -5.9649,2.11079 -5.9847,7.08334 -0.01,2.11514 -0.7832,5.14568 -1.7218,6.73454 -1.4417,2.4407 -1.5193,3.40641 -0.5,6.22529 2.5113,6.94489 1.0933,10.69446 -4.0445,10.69446 -2.3081,0 -3.127,-0.66043 -4.3,-3.46788 -0.797,-1.90734 -1.449,-4.38234 -1.449,-5.5 0,-1.11767 -0.855,-2.75212 -1.9,-3.63212 -5.0367,-4.2414 -8.8195,-8.02456 -9.2093,-9.21002 -0.3513,-1.0685 -0.925,-1.05359 -3.1116,0.0809 l -2.6809,1.39087 2.5815,3.62822 c 3.3526,4.71198 4.5542,16.4411 1.9093,18.63625 -2.7655,2.29514 -6.2857,-0.0738 -7.6256,-5.13173 -1.759,-6.63984 -8.1484,-17.91027 -9.9399,-17.53317 -1.7256,0.36323 -1.6993,2.55489 0.1269,10.58654 0.8532,3.75216 0.9055,5.84079 0.1756,7 -1.5452,2.45394 -3.9425,2.5357 -6.2645,0.21366 -1.6243,-1.62391 -2.0619,-3.3352 -2.0619,-8.06152 0,-5.23488 -0.2431,-6 -1.9062,-6 -1.5168,0 -2.0401,0.97445 -2.5623,4.77095 -0.3609,2.62402 -0.207,5.95245 0.3421,7.39652 0.726,1.90957 0.6461,3.10716 -0.2931,4.39153 -1.279,1.74914 -2.4969,1.59895 -5.6757,-0.69989 -1.5984,-1.15589 -5.1692,-0.68003 -7.8178,1.04183 -1.0956,0.71221 -1.4498,4.14071 -1.5765,15.25884 -0.097,8.52029 -0.6268,15.20268 -1.3053,16.46531 -1.5596,2.90257 -4.7664,3.55081 -7.3233,1.48037 -1.9497,-1.57875 -2.1062,-2.65932 -2.0512,-14.15733 0.056,-11.79722 -0.077,-12.65688 -2.56,-16.44036 -1.4408,-2.19573 -3.3528,-6.47073 -4.2489,-9.5 -1.4047,-4.74914 -2.0016,-5.55145 -4.333,-5.82492 l -2.7039,-0.31716 2.4807,4.66561 c 1.3644,2.56609 2.7338,6.30881 3.043,8.31715 0.3093,2.00835 0.9898,6.05604 1.5121,8.99486 1.1132,6.26259 0.038,9.15669 -3.4009,9.15669 -4.2879,0 -5.5737,-2.78125 -5.3359,-11.54126 0.2429,-8.94695 -1.4139,-14.45874 -4.3462,-14.45874 -1.0008,0 -2.0978,0.45 -2.4377,1 -0.8591,1.39004 -3.8494,1.25033 -5.3511,-0.25 -0.6881,-0.6875 -3.3656,-1.30389 -5.95,-1.36976 -2.5844,-0.0659 -5.8966,-0.44822 -7.3604,-0.84966 -3.2007,-0.87777 -4.5451,1.04989 -5.4777,7.85389 -0.4705,3.43291 -0.1132,5.49554 1.5458,8.92258 1.8036,3.72581 1.9662,4.87811 0.9902,7.0202 -2.5234,5.53827 -8.0672,3.54323 -9.933,-3.57458 -2.7454,-10.4736 -4.1643,-14.75858 -5.0732,-15.32028 -1.7518,-1.08267 -3.8906,1.73471 -3.8906,5.12496 0,5.3207 -1.6096,8.44265 -4.3528,8.44265 -1.3213,0 -2.9865,-0.70393 -3.7005,-1.56429 -0.8396,-1.01157 -2.1427,-1.35235 -3.6881,-0.96448 -3.2638,0.81916 -7.6416,-3.96371 -9.1647,-10.01271 -0.7761,-3.0821 -2.4201,-5.81392 -4.9824,-8.2792 -2.1033,-2.02363 -4.0013,-4.12932 -4.2178,-4.67932 -0.2166,-0.55 -2.9422,-2.6662 -6.057,-4.70266 -4.8438,-3.16685 -9.8126,-7.09235 -18.124896,-14.31902 -1.3509,-1.17454 -1.6333,-2.37996 -1.1548,-4.93037 0.7516,-4.00634 -0.4633,-4.91544 -8.0396,-6.01629 -2.7405,-0.39819 -7.6905,-1.77578 -11,-3.06132 -21.7589,-8.45186 -25.1654,-10.70104 -32.2483,-21.29229 -1.9575,-2.92708 -4.5962,-6.00147 -5.8637,-6.83199 -1.2675,-0.83051 -3.1862,-3.00427 -4.2638,-4.83056 -1.538,-2.60687 -3.1269,-3.66003 -7.3928,-4.90014 -2.9885,-0.86878 -6.5954,-2.49349 -8.0154,-3.61045 -4.5223,-3.55725 -12.4558999,-14.37981 -13.1985999,-18.00491 -0.3944,-1.925 -1.3455,-5.41156 -2.1134,-7.7479 -2.041,-6.20943 -0.85029997,-19.0135 1.9924,-21.42553 1.1474,-0.97359 4.5612,-4.07789 7.5861999,-6.89844 3.025,-2.82056 8.65,-6.70822 12.5,-8.63926 3.85,-1.93103 7.7048,-4.13088 8.5662,-4.88854 1.6763,-1.47445 15.5142,-10.07839 22.9338,-14.25947 2.475,-1.3947 7.65,-4.87872 11.5,-7.74227 3.85,-2.86354 8.7142,-5.91287 10.8094,-6.7763 2.0951,-0.86342 5.9201,-3.17733 8.5,-5.14202 2.5798,-1.9647 6.2656,-4.63898 8.1906,-5.94285 1.925,-1.30388 7.774996,-5.27343 12.999996,-8.82123 5.225,-3.5478 10.625,-7.00978 12,-7.69328 3.806,-1.89193 33.9717,-21.09256 45,-28.64279 1.925,-1.3179 9.2748,-8.12846 16.333,-15.13458 11.8679,-11.78049 13.2174,-13.51172 17.9447,-23.0218 l 5.1117,-10.28338 -0.2154,-15.092809 c -0.1448,-10.14875 0.1591,-15.544004 0.9278,-16.47018 1.7414,-2.098266 5.4728,-1.644821 7.1809,0.87263 1.2289,1.811285 1.7792,2.006269 2.822,1 2.0753,-2.002732 3.7327,-1.465172 5.3953,1.75 0.8533,1.65 2.3273,2.99976 3.2757,2.99946 2.5041,-7.8e-4 15.8968,-15.06953 18.2289,-20.51028 2.1831,-5.09275 4.57,-5.72685 6.5568,-1.74182 l 1.1116,2.22965 2.2869,-2.43436 c 2.1852,-2.32596 2.2338,-2.71645 1.0916,-8.76948 -2.4913,-13.20364 1.5983,-22.81587 6.5148,-15.31235 1.2781,1.9507 1.4221,3.35296 0.6945,6.76442 -1.0252,4.80678 -0.694,6.77476 1.14,6.77476 0.699,0 1.6387,-2.23741 2.1667,-5.15882 1.0901,-6.03075 3.2824,-8.04051 6.5469,-6.00178 2.6227,1.63785 2.7857,1.46807 7.9097,-8.23704 3.1196,-5.9086 4.3342,-9.53064 4.8228,-14.38156 0.5182,-5.14464 1.1084,-6.78546 2.8571,-7.9438003 2.0152,-1.3348 2.4146,-1.24934 4.6613,0.9973903 1.8067,1.80675 2.6367,4.01498 3.1352,8.34143 0.3729,3.2363 1.0879,7.50781 1.589,9.49224 0.5011,1.98444 0.6314,5.64927 0.2894,8.14408 -0.5491,4.0062 -0.3783,4.61326 1.4619,5.19734 2.5529,0.81026 5.0639,-0.47358 12.0877,-6.18037 2.9857,-2.42584 7.1809,-5.30458 9.3226,-6.39721 5.581,-2.84723 8.726,-9.90036 8.7391,-19.5988503 0.01,-6.54673 0.2388,-7.37699 2.4427,-8.82107 1.8804,-1.23202997 2.8973,-1.34562997 4.4771,-0.50012997 3.8825,2.07781997 4.3581,4.54708997 3.6004,18.69325027 l -0.7153,13.3549 2.4068,0 c 1.7589,0 4.2763,-2.14223 9.3524,-7.95861 9.171,-10.50848 12.1515,-11.38303 15.0612,-4.41931 1.8275,4.37387 3.5761,4.28354 10.5306,-0.54396 12.0698,-8.37836 16.0866,-9.15871 18.4184,-3.57812 0.8767,2.09839 2.1578,3.49863 3.1989,3.49657 3.8052,-0.008 16.7293,-6.16234 19.2301,-9.15789 3.9031,-4.6752603 6.5092,-3.5949003 8.6396,3.58157 0.8855,2.98293 5.4157,6.37536 8.6888,6.50666 1.0021,0.0402 3.7168,-1.03738 6.0328,-2.39462 2.316,-1.35725 6.2211,-3.17545 8.6781,-4.04045 2.4569,-0.865 7.4382,-3.36595 11.0693,-5.5576603 6.7674,-4.08466 9.325,-4.31445 10.3979,-0.93418 1.0265,3.2343103 3.3751,3.0157703 11.0545,-1.0287 8.4306,-4.44005 9.6035,-4.67048 11.9301,-2.34384 1.2793,1.27927 1.4889,2.73656 0.9798,6.8114003 -0.6264,5.01375 -0.538,5.26734 2.6939,7.72433 1.838,1.39721 4.8531,3.31891 6.7003,4.27045 2.9363,1.51251 3.2856,2.0955 2.7775,4.63605 -0.7694,3.84707 0.6552,4.15978 16.1271,3.53979 11.5948,-0.46463 12.2877,-0.38279 13.3356,1.57509 1.5401,2.87771 -1.6013,6.92007 -6.6943,8.61426 -5.7154,1.90122 -7.0923,3.54741 -5.4828,6.55484 1.1534,2.1551 1.9472,2.40911 7.4348,2.37904 7.2567,-0.0398 23.9452,4.91026 30.1435,8.941 13.2488,8.61558 21.6423,15.833506 24.7035,21.243402 1.7374,3.070588 5.5524,8.666398 8.4777,12.435128 2.9254,3.76873 5.3188,7.540609 5.3188,8.381959 0,0.84135 0.8381,2.93285 1.8625,4.64777 1.0243,1.71491 2.7109,5.54371 3.748,8.50844 1.0844,3.10008 2.9073,6.0743 4.2902,7 1.3225,0.88527 5.4105,4.42306 9.0843,7.86175 6.532,6.11398 12.4432,10.74555 22.515,17.64092 2.75,1.88271 7.0775,5.60197 9.6167,8.26502 7.8142,8.19529 16.8833,22.9716 16.8833,27.5079 0,2.69986 -10.8817,13.51522 -14.5158,14.42733 -2.3309,0.58501 -2.3696,0.72758 -0.9453,3.48185 0.8168,1.57952 4.0672,5.04811 7.2231,7.70797 8.4408,7.11411 15.0583,14.06385 18.774,19.71685 1.8077,2.75 5.9654,7.79671 9.2395,11.21491 7.2415,7.56039 8.8765,10.97609 7.3498,15.35539 -1.0631,3.04979 -0.902,3.31976 6.1452,10.29872 5.0332,4.98447 8.4963,7.54413 11.3725,8.40589 2.2808,0.68332 5.8673,2.96846 7.9963,5.09484 4.2912,4.28572 10.2834,7.58306 21.0656,11.59187 7.469,2.77694 9.647,5.20449 7.2553,8.08637 -1.7593,2.11978 -4.4993,1.7854 -8.8245,-1.0769 -6.2325,-4.12449 -10.168,-0.76645 -4.1357,3.52891 1.65,1.1749 3,2.98989 3,4.0333 0,2.4251 5.4063,8.60833 9.2766,10.60975 1.6389,0.84749 5.0831,2.16551 7.6539,2.92895 2.5708,0.76343 5.6684,2.53159 6.8836,3.92923 l 2.2095,2.54117 3.0628,-2.26443 3.0628,-2.26443 6.1754,3.35507 c 3.3965,1.84529 7.7504,4.39652 9.6754,5.66941 1.925,1.27289 6.2,3.07237 9.5,3.99885 3.3,0.92648 7.125,2.72247 8.5,3.99109 1.4127,1.30341 7.9365,4.09054 15,6.40843 6.875,2.25601 16.1029,5.88636 20.5065,8.06743 8.8785,4.39752 15.9672,6.12084 20.8012,5.05697 3.8668,-0.85101 77.1436,-0.40178 84.1923,0.51615 5.5792,0.72655 8.4752,1.06989 16.5,1.95619 8.7708,0.96867 18.136,3.35099 23,5.8507 3.5451,1.8219 8.0284,2.67644 21.12726,4.0269 l 16.6273,1.71424 14.3727,-3.46591 c 7.905,-1.90625 17.4562,-3.98055 21.2249,-4.60956 12.2804,-2.04961 27.8485,-9.41813 39.1478,-18.52901 6.2767,-5.06101 10.1595,-6.77308 12.509,-5.51566 1.1453,0.61295 1.991,2.09265 1.991,3.48367 0,2.48209 -0.7891,3.21645 -9.4064,8.7542 -8.9855,5.77428 -3.0586,4.52701 18.9064,-3.97873 11.7264,-4.54095 17.1014,-8.02805 22,-14.27297 4.329,-5.51867 8.9368,-9.44618 12.8103,-10.91889 4.4455,-1.69017 8.6124,3.58335 5.9244,7.4978 -0.4041,0.58845 -3.2895,2.94097 -6.412,5.22782 -3.1225,2.28685 -5.9615,4.61789 -6.309,5.18009 -0.4125,0.66751 2.5115,1.02218 8.4273,1.02218 8.1954,0 9.059,-0.17899 9.059,-1.87756 0,-3.09393 2.6481,-4.3832 11.8001,-5.7451 17.7534,-2.64189 41.9922,-8.27926 52.1999,-12.14051 24.9294,-9.42996 43.0883,-14.45062 47.1475,-13.03558 3.2029,1.11656 4.2256,3.233 2.826,5.84827 -1.4431,2.69642 -4.2263,3.95048 -8.7677,3.95048 -3.3071,0 -27.6694,7.2859 -29.2058,8.73442 -0.275,0.25927 4.9352,0.31259 11.5783,0.11849 11.3069,-0.33037 12.3042,-0.52516 15.6134,-3.04956 4.8448,-3.69588 8.0398,-4.33319 11.9483,-2.38337 2.9067,1.45 3.7475,1.46393 8.3097,0.13768 5.0304,-1.46238 24.5003,-3.67171 31.4428,-3.56795 1.9841,0.0297 12.1575,-0.22973 22.6075,-0.57641 35.5245,-1.17853 42.4148,-0.97143 47.8329,1.43774 2.6581,1.18193 5.8081,2.15571 7,2.16397 3.271,0.0226 16.2941,4.33451 24.0217,7.95344 3.7701,1.76555 7.5951,2.98543 8.5,2.71084 0.905,-0.2746 7.5418,-3.18188 14.7485,-6.46063 23.4129,-10.6519 23.4994,-10.6734 42.8969,-10.66222 17.9772,0.0104 23.755,0.9313 44.2921,7.05994 6.5073,1.94188 8.53,2.99647 9.3971,4.89945 0.8433,1.85097 0.7945,2.79888 -0.2063,4.00474 -2.2266,2.68287 0.8289,4.3909 10.0603,5.62375 4.6512,0.62118 10.7939,1.95202 13.6504,2.95742 2.8565,1.0054 8.9315,2.29271 13.5,2.86069 4.5685,0.56799 9.7941,1.45961 11.6124,1.98139 1.8183,0.52178 5.5167,0.68686 8.2186,0.36686 5.5483,-0.65711 9.9754,1.37992 9.9754,4.58993 0,1.01997 0.675,2.4147 1.5,3.09939 0.825,0.68469 1.5,1.86479 1.5,2.62244 0,0.85645 1.2294,1.43482 3.25,1.52892 8.6606,0.40334 16.4623,0.28025 29.75,-0.46941 11.3697,-0.64145 16.1191,-1.3678 22,-3.36454 10.3867,-3.52661 12,-5.20127 12,-12.45654 0,-4.70144 0.3638,-5.9852 1.9343,-6.82569 2.7478,-1.47061 3.7972,-1.30371 6.0657,0.96482 4.2007,4.20071 1.8812,14.61575 -4.3649,19.59969 -3.558,2.83896 -18.601,9.28837 -21.8359,9.36174 -0.9354,0.0212 -3.9759,0.5265 -6.7567,1.12287 -5.0303,1.07882 -5.0449,1.0932 -2.8774,2.8483 1.7653,1.42946 2.7101,1.56332 4.9818,0.70583 2.0628,-0.77861 3.7342,-0.72161 6.3265,0.21578 3.3455,1.20975 4.0021,1.03935 13.031,-3.38205 6.0628,-2.96892 11.4987,-6.53844 15.0018,-9.85115 4.9576,-4.68813 5.4938,-5.60405 5.4938,-9.38502 0,-3.36573 0.4918,-4.51209 2.5,-5.82795 2.3105,-1.51389 2.6883,-1.51468 4.9841,-0.0104 5.7338,3.75691 4.1329,9.94934 -4.9381,19.10153 -5.952,6.00533 -17.0582,12.65971 -25.796,15.45589 -2.0625,0.66003 -3.7431,1.50265 -3.7347,1.87249 0.1153,5.06159 11.3641,4.04676 24.303,-2.19255 11.4224,-5.50798 16.6817,-10.19344 16.6817,-14.86151 0,-6.73081 5.5554,-10.13222 9.4749,-5.80122 1.4054,1.5529 1.6772,3.09272 1.2786,7.24168 -0.4724,4.91606 -0.9002,5.62621 -6.3799,10.59033 -3.2305,2.92651 -7.9831,6.41114 -10.5614,7.74363 l -4.6877,2.42271 2.8016,2.76469 c 5.1914,5.12283 9.1721,7.5665 10.3717,6.36692 1.9095,-1.90955 6.2479,-1.21106 13.3399,2.14777 l 6.8623,3.25 16,-0.25452 c 12.8908,-0.20506 17.9432,-0.72549 26,-2.67818 5.5,-1.33301 15.4,-3.19682 22,-4.14179 6.6,-0.94498 13.8,-2.35476 16,-3.13285 2.6018,-0.92018 8.719,-1.45917 17.5,-1.54193 l 13.5,-0.12723 7.4718,3.68825 c 4.1095,2.02854 8.6333,3.68825 10.0529,3.68825 2.5164,0 16.9063,6.60197 20.0504,9.19897 2.9966,2.47506 4.8679,6.37981 5.4299,11.33021 0.3381,2.9777 1.2057,5.37178 2.1637,5.97082 6.4601,4.03946 9.1432,8.36664 7.804,12.5861 -0.7451,2.34762 -3.8062,4.1069 -5.8087,3.33846 -0.8145,-0.31255 -2.0267,-1.88594 -2.6938,-3.49642 -1.032,-2.4915 -1.7647,-2.92814 -4.9134,-2.92814 -2.0353,0 -5.7594,-0.70154 -8.2759,-1.55899 -2.5165,-0.85744 -6.7551,-1.41994 -9.4191,-1.25 -7.4341,0.47423 -7.0252,2.7733 1.4707,8.26927 5.0178,3.24596 8.289,6.35735 11.6797,11.10908 4.8009,6.72779 5.4168,8.812 4.0443,13.68583 -0.7035,2.49787 -0.4418,2.89479 2.8017,4.25 5.3265,2.22557 8.1674,1.85781 15.499,-2.00636 3.6535,-1.92564 8.3303,-4.15268 10.3928,-4.94897 3.1548,-1.21801 3.75,-1.91449 3.75,-4.38805 0,-3.77102 3.0956,-7.72282 5.3669,-6.85125 1.7384,0.66708 2.0406,1.25639 3.0908,6.02769 0.5173,2.35034 0.8755,2.63012 2.0835,1.62756 0.8023,-0.66589 1.4588,-1.81477 1.4588,-2.55307 0,-0.73831 0.9288,-1.83943 2.0639,-2.44695 3.5074,-1.87707 4.5848,0.23586 5.2986,10.39118 0.6105,8.68512 0.4727,9.76136 -1.9196,14.98677 -3.7616,8.21634 -1.7812,10.278 3.9923,4.15626 3.9088,-4.14452 5.9337,-4.39277 8.1568,-1 1.4773,2.25475 1.4882,2.72865 0.1108,4.83083 -1.8288,2.79115 -13.0498,9.66917 -15.7745,9.66917 -2.7989,0 -2.3709,1.86048 1.2166,5.28894 l 3.145,3.00546 1.3803,-2.63449 c 0.7592,-1.44897 2.6065,-2.97771 4.1051,-3.3972 3.8053,-1.06519 27.0173,-0.44409 29.3126,0.78434 3.0094,1.61056 3.5467,5.76278 1.0667,8.24276 -2.0908,2.09079 -2.163,2.09355 -8.9197,0.34108 -6.2573,-1.62294 -7.1751,-1.64032 -11.2734,-0.21339 -2.4538,0.85437 -5.7365,1.55994 -7.2948,1.56795 -1.5584,0.008 -2.6834,0.41538 -2.5,0.90529 0.7519,2.00939 9.0259,10.15751 11.7391,11.56056 1.6047,0.82981 3.8215,2.65781 4.9262,4.06223 1.2307,1.5646 2.2649,2.13864 2.6706,1.48228 0.3641,-0.58915 -0.95,-2.85553 -2.9203,-5.03638 -3.7241,-4.12209 -4.4287,-6.71302 -2.3823,-8.75943 2.1028,-2.10278 3.9838,-1.32048 8.7316,3.63139 4.5757,4.77237 7.7533,6.16861 14.0384,6.16861 5.2594,0 7.8945,6.00271 4.1304,9.40916 -1.4341,1.29784 -2.797,1.55079 -5.5613,1.0322 -2.9908,-0.56108 -4.024,-0.29802 -5.6393,1.43585 -1.1557,1.24052 -3.2084,2.12279 -4.9388,2.12279 -1.6285,0 -2.961,0.42071 -2.961,0.9349 0,2.54287 2.2493,6.15389 6.1664,9.89961 4.7091,4.50304 6.5184,5.31361 4.8336,2.16549 -0.7605,-1.42099 -0.7605,-2.57901 0,-4 1.7666,-3.30098 5.5872,-2.46257 10.7928,2.36842 2.589,2.40262 6.1655,5.11199 7.9478,6.02081 4.709,2.40116 6.8462,6.02757 5.4099,9.1798 -1.7437,3.82698 -3.782,3.95901 -9.1928,0.59548 -5.8109,-3.61229 -6.4793,-2.59634 -1.3561,2.06124 1.9809,1.80084 4.2318,4.49107 5.0019,5.97831 1.5637,3.01955 8.0899,6.31264 15.8965,8.02132 2.75,0.60191 5.8663,1.90124 6.9251,2.88739 1.8741,1.74551 1.8789,1.98626 0.1803,9.09012 -0.9596,4.01341 -2.6134,8.78533 -3.6751,10.60427 -1.0617,1.81894 -1.9303,3.99995 -1.9303,4.84668 0,0.84674 2.7,4.4861 6,8.08747 3.3,3.60136 6,6.91124 6,7.35527 0,0.44404 2.081,2.23909 4.6244,3.98901 l 4.6244,3.18168 -0.6645,6.4861 -0.6645,6.4861 3.9101,3.34697 c 5.2554,4.49838 7.4377,12.60019 7.6536,28.41356 0.1515,11.09844 0.2835,11.74824 3.7784,18.60906 2.29,4.49558 4.2605,10.44355 5.3601,16.1794 1.6608,8.6639 1.658,9.51042 -0.063,18.89094 -0.9955,5.42734 -1.5642,11.83368 -1.2711,14.3206 1.3657,11.58768 2.7545,19.9937 4.2013,25.42876 0.868,3.26082 1.8221,7.46353 2.1202,9.33935 0.2982,1.87582 1.1829,5.22695 1.9662,7.44696 1.9867,5.63099 1.8075,7.17586 -1.2548,10.81514 -2.4767,2.94342 -2.5806,3.42084 -1.3772,6.32673 2.0815,5.02641 3.1722,13.23287 3.541,26.64306 0.1891,6.875 0.8041,14.49984 1.3667,16.94408 1.1052,4.80116 0.023,13.2976 -2.0057,15.74157 -0.8677,1.04554 -0.832,2.70402 0.1462,6.78137 1.0443,4.35305 1.0543,6.61976 0.052,11.71517 -1.5962,8.1115 -1.5847,16.65865 0.029,21.49979 0.8875,2.66256 1.1987,9.41672 1.0286,22.31802 -0.1342,10.175 -0.2891,22.325 -0.3441,27 -0.055,4.675 0.2689,12.01164 0.7198,16.30365 0.7472,7.11094 0.6316,8.05847 -1.3024,10.67432 -2.4281,3.28418 -2.6987,7.56377 -2.2476,35.54141 0.1536,9.5211 -0.1825,18.7731 -0.7629,21 -0.5705,2.1893 -1.2972,6.4556 -1.6149,9.4806 -0.8319,7.9203 -1.2801,8.8221 -5.4386,10.9437 -6.6751,3.4054 -6.646,3.2866 -5.2494,21.3913 1.1105,14.3973 1.9368,28.209 2.4029,40.165 0.1145,2.9372 -0.6249,5.1677 -2.7828,8.3949 l -2.9386,4.3948 -0.7398,22.1052 c -1.1827,35.3384 -1.1475,36.674 1.1363,43.1718 1.1335,3.2252 2.061,6.6959 2.061,7.7127 0,1.0168 1.125,4.3083 2.5,7.3143 3.0591,6.6879 3.1055,8.3669 0.3283,11.8974 -1.9328,2.4572 -2.0342,3.1045 -0.9217,5.8849 0.6875,1.7182 2.7812,7.399 4.6527,12.624 1.8716,5.225 5.6614,13.9707 8.4218,19.4348 5.2998,10.4909 5.9786,13.5238 3.4893,15.5898 -2.5406,2.1085 -6.1651,-0.2737 -7.5748,-4.9786 -0.6667,-2.2253 -1.5358,-4.046 -1.9314,-4.046 -1.6789,0 -3.089,3.0344 -2.4175,5.202 0.8963,2.8931 17.0407,35.5943 20.8823,42.298 11.6774,20.3774 13.9604,23.7082 19.364,28.2511 9.5455,8.025 17.207,16.0796 17.207,18.0897 0,1.0529 -0.675,2.4745 -1.5,3.1592 -2.5698,2.1328 -1.6767,3.6777 3.3849,5.8551 5.0408,2.1685 20.9626,7.3862 34.1151,11.1798 4.125,1.1897 9.75,3.0886 12.5,4.2196 4.39,1.8055 15.8826,3.4142 28.5,3.9893 8.8383,0.4029 25.9798,-1.182 28.8527,-2.6676 1.6764,-0.8669 3.9012,-1.5762 4.944,-1.5762 1.0428,0 3.314,-0.7074 5.047,-1.5719 1.733,-0.8646 4.1647,-1.4706 5.4036,-1.3469 3.8971,0.3894 15.0291,-5.4438 18.1184,-9.494 2.1948,-2.8775 3.4096,-3.6334 5.4557,-3.3945 3.5528,0.4148 5.3379,4.0519 3.947,8.0419 -1.1439,3.2814 -9.5983,9.3406 -16.3292,11.703 -2.3426,0.8222 -5.763,3.3962 -8.4392,6.3508 l -4.5,4.9681 3.5,-0.7422 c 3.49,-0.7401 6.937,-2.1785 12.3633,-5.1592 2.682,-1.4733 2.9912,-1.4451 4.8813,0.445 2.3594,2.3594 1.853,6.1023 -1.2446,9.1999 -1.7751,1.7751 -2.993,2.2244 -9.6234,3.55 -1.1679,0.2335 -2.6522,1.7012 -3.2986,3.2616 -1.635,3.9473 -8.7493,7.1934 -17.345,7.914 -7.3603,0.6171 -9.3098,2.1262 -6.4461,4.9899 1.3326,1.3326 2.2547,1.3855 6.316,0.3629 2.6156,-0.6586 6.091,-2.1484 7.7233,-3.3106 2.7024,-1.9244 3.2003,-1.9831 5.5707,-0.6571 6.0695,3.3952 2.4212,8.7251 -7.7277,11.2896 -9.4029,2.376 -14.4537,2.0042 -25.5812,-1.8833 l -9.912,-3.4629 -3.735,2.0992 c -3.6159,2.0322 -6.4926,6.1452 -5.4632,7.8109 1.038,1.6794 5.4306,1.9677 9.8261,0.6449 7.7457,-2.3312 12.1361,2.0181 8.1612,8.0846 -1.6329,2.492 -1.9417,2.5589 -9.2562,2.0057 -7.7836,-0.5886 -15.7136,-3.749 -27.3996,-10.9197 -4.0836,-2.5058 -5.507,-2.8395 -11,-2.579 l -6.3093,0.2993 4.5,2.6288 c 2.475,1.4458 5.9619,2.944 7.7488,3.3292 2.9114,0.6276 6.2512,3.7074 6.2512,5.7645 0,0.4276 -0.9,1.6775 -2,2.7775 -2.8967,2.8967 -7.3332,2.4907 -15.4254,-1.4117 -7.5256,-3.6291 -16.7934,-6.1891 -18.5271,-5.1176 -3.4658,2.1419 2.611,7.9511 9.3791,8.966 7.7576,1.1633 8.1282,6.9238 0.6381,9.9207 -5.0191,2.0083 -7.0445,2.0506 -11.2808,0.2357 -1.8061,-0.7738 -6.2089,-2.6436 -9.7839,-4.1551 -3.575,-1.5115 -8.2685,-4.2534 -10.43,-6.0931 -5.4716,-4.657 -6.6793,-4.4211 -5.9149,1.1551 0.6153,4.4895 0.6096,4.5 -2.4511,4.5 -2.2944,0 -3.6286,-0.7876 -5.2925,-3.1243 -1.2294,-1.7266 -4.5033,-4.1409 -7.3181,-5.3967 -12.3094,-5.4921 -25.906,-16.5272 -35.2706,-28.626 -11.9576,-15.4489 -15.1286,-20.0695 -16.7477,-24.4037 -2.4688,-6.609 -4.2345,-8.4493 -8.1069,-8.4493 -2.9328,0 -3.9866,-1.0091 -11.749,-11.25 -4.69,-6.1875 -10.5957,-15.404 -13.1238,-20.4812 -5.136,-10.3145 -10.5954,-27.8585 -10.5954,-34.0485 0,-6.2094 -0.7043,-7.2203 -5.0303,-7.2203 -5.248,0 -8.4974,-3.0117 -14.1696,-13.1331 -4.8756,-8.7001 -9.8001,-24.6704 -9.8001,-31.7821 0,-2.4391 -0.8883,-4.8677 -2.612,-7.1405 -4.1114,-5.4216 -6.1251,-10.7262 -7.8441,-20.6635 -1.9662,-11.3666 -1.5704,-26.8335 0.9586,-37.4545 1.7984,-7.5528 1.7953,-7.771 -0.1984,-13.8518 l -2.0256,-6.1781 -0.7839,7.3518 c -0.4312,4.0435 -0.8766,9.3087 -0.9898,11.7004 -0.2677,5.6563 -2.8577,7.6556 -5.9334,4.58 -3.7105,-3.7106 0.097,-33.1079 7.033,-54.3058 1.8676,-5.7075 3.3956,-11.6128 3.3956,-13.1229 0,-2.8345 3.3215,-11.3546 5.4578,-13.9999 0.6663,-0.825 2.2167,-4.6412 3.4455,-8.4803 1.2288,-3.8392 2.7219,-7.568 3.3179,-8.2863 0.5961,-0.7182 1.2599,-4.7771 1.4752,-9.0196 l 0.3913,-7.7138 -2.916,6.5493 c -3.8275,8.5964 -9.648,25.9583 -11.1394,33.2278 -1.3046,6.3581 -4.269,9.4173 -7.9833,8.2384 -2.8915,-0.9177 -2.7006,-6.8337 0.3952,-12.2481 4.5476,-7.9535 15.5066,-50.5159 15.5178,-60.2674 0.01,-5.7546 -1.1329,-10.2995 -2.249,-8.971 -0.2177,0.259 -2.0082,5.646 -3.979,11.971 -8.7136,27.9659 -9.234,30.1755 -9.234,39.2114 0,6.7361 -0.3715,9.0835 -1.6385,10.3527 -2.249,2.253 -5.3579,1.066 -6.8889,-2.6303 -2.1976,-5.3055 0.8658,-26.1227 5.4635,-37.1265 0.8178,-1.9573 3.2496,-9.5771 5.4041,-16.933 2.1545,-7.3559 5.4959,-17.1993 7.4254,-21.8743 1.9295,-4.675 5.1008,-13.225 7.0472,-19 1.9464,-5.775 4.2727,-12.2339 5.1695,-14.35308 1.8981,-4.485 1.675,-9.1469 -0.4377,-9.1469 -2.0575,0 -9.677,15.41028 -12.4346,25.14848 -1.269,4.4817 -3.1858,9.6567 -4.2593,11.5 -3.3139,5.6899 -9.3507,4.7453 -9.3507,-1.4631 0,-1.6883 2.4295,-9.1707 5.3988,-16.6275 2.9694,-7.4569 6.4168,-16.70788 7.6609,-20.55788 1.2442,-3.85 3.3147,-9.53127 4.6012,-12.62505 1.2865,-3.09377 2.3459,-6.91877 2.3541,-8.5 0.01,-1.58122 1.1077,-6.39237 2.4431,-10.69145 1.3355,-4.29907 2.1964,-8.42037 1.9131,-9.15844 -0.2832,-0.73807 -1.8002,-1.87435 -3.3712,-2.52506 -4.016,-1.66348 -4.4011,-3.63666 -1.6355,-8.38035 3.661,-6.2797 11.6463,-27.42788 10.9962,-29.12215 -0.8317,-2.16725 -2.9259,-1.85729 -8.4566,1.25165 -3.5003,1.96764 -5.279,2.46512 -6.2571,1.75 -5.3408,-3.9051 -6.8079,-4.6514 -8.1393,-4.14049 -1.9108,0.73325 -1.93,5.35822 -0.036,8.64134 3.1086,5.38814 3.4272,6.78189 2.4005,10.50018 -0.7304,2.64537 -0.6608,5.04607 0.2491,8.59638 l 1.2625,4.92599 -3.8949,3.98872 c -2.1422,2.1938 -4.6709,3.98873 -5.6194,3.98873 -1.9785,0 -5.0183,-3.53054 -6.8526,-7.95907 -2.3605,-5.69869 -4.5976,-3.92298 -7.8488,6.23007 -2.6004,8.12065 -2.7501,13.70057 -0.495,18.45283 1.3267,2.79576 1.4659,4.30286 0.6723,7.27641 -0.7562,2.83287 -0.6762,4.19454 0.3267,5.56617 2.798,3.82648 0.6713,9.02919 -3.3742,8.25439 -0.9889,-0.1894 -2.698,-2.0254 -3.798,-4.0799 -2.262,-4.2249 -4.2308,-4.81856 -4.9444,-1.4909 -0.9846,4.5918 -2.5556,16.7347 -2.5556,19.7535 0,1.71618 1.1406,5.53128 2.5346,8.47808 3.5869,7.5821 2.3069,12.4867 -5.0826,19.4754 -4.5878,4.3389 -5.8943,5.043 -9.3573,5.043 -3.0464,0 -4.8559,-0.7295 -7.4419,-3 -4.2949,-3.771 -5.7217,-3.7564 -10.118,0.1036 -2.6492,2.326 -3.5318,3.8919 -3.5229,6.25 0.015,3.968 2.5445,13.6028 3.9368,14.9951 1.5509,1.5509 1.2772,6.2189 -0.4487,7.6513 -1.9253,1.5979 -1.9071,3.4173 0.051,5.042 3.8954,3.2329 -0.6771,9.4552 -7.7975,10.6106 -3.2812,0.5325 -4.0709,0.2131 -6.9766,-2.8216 -1.8021,-1.8822 -4.0596,-4.4141 -5.0167,-5.6265 -2.1906,-2.775 -3.3802,-2.7822 -4.8535,-0.029 -0.887,1.6573 -0.8812,3.7578 0.024,8.8251 1.0613,5.9386 0.9624,7.4979 -0.924,14.5749 -2.0569,7.7164 -2.9107,12.901 -5.0102,30.4213 -0.56,4.6731 -1.2688,9.286 -1.575,10.2511 -0.8331,2.6248 -4.0305,4.0321 -6.3456,2.7931 -1.6032,-0.858 -1.8951,-2.0247 -1.75,-6.9943 0.1299,-4.449 -0.2578,-6.3978 -1.5257,-7.6696 -1.4521,-1.4564 -1.9397,-1.5058 -3.3456,-0.3391 -1.7039,1.4142 -1.5277,5.616 0.5225,12.4624 3.1329,10.4615 4.7986,20.5605 3.9853,24.1629 -0.6458,2.8606 -0.3851,5.4913 1.0243,10.3371 1.0398,3.575 2.5895,9.0317 3.4438,12.126 0.8543,3.0943 3.087,7.8556 4.9616,10.5808 4.8552,7.0582 9.0103,15.7821 11.034,23.1665 1.9267,7.0305 3.3129,9.7518 9.4883,18.6267 2.2963,3.3 5.1674,7.4432 6.3803,9.207 1.2129,1.7639 3.8411,3.9464 5.8404,4.8501 3.6735,1.6604 5.8649,4.8572 5.8649,8.5557 0,3.3368 1.6783,5.4722 6.9686,8.8671 2.7673,1.7757 5.032,3.5192 5.0326,3.8743 0,0.985 11.5009,14.947 17.4155,21.1458 7.6568,8.0247 11.4755,13.3273 13.1619,18.2765 1.871,5.4913 12.3773,17.1638 20.9641,23.2912 5.7553,4.1069 6.4982,5.0541 8.0228,10.2292 0.9242,3.1367 1.8341,9.3031 2.0221,13.7031 0.188,4.4 0.7843,13.2876 1.325,19.7503 0.5765,6.8898 0.6195,12.8877 0.104,14.5 -0.4835,1.5123 -1.3601,7.1014 -1.9479,12.42 -0.8636,7.8146 -1.7572,11.0257 -4.6566,16.7329 -3.1128,6.1272 -3.7115,8.4852 -4.5207,17.8046 -0.513,5.9081 -0.6829,11.3931 -0.3775,12.1889 1.0401,2.7105 -1.6578,30.5058 -3.5043,36.1033 -1.0797,3.2728 -2.0307,9.9545 -2.3486,16.5 -0.755,15.5479 -2.1276,26.5736 -4.6276,37.1722 -1.7842,7.5641 -1.991,10.1064 -1.1797,14.5 0.6442,3.4889 0.6449,7.0535 0,10.3278 -0.54,2.75 -0.9755,9.9114 -0.9677,15.9142 0.011,8.2429 -0.4576,12.2568 -1.9136,16.3994 -1.6286,4.6334 -1.7551,6.1714 -0.8148,9.9055 1.3887,5.5151 0.5625,36.539 -1.0839,40.7006 -0.6353,1.6058 -2.0182,7.3719 -3.0731,12.8135 -1.0548,5.4416 -2.838,11.3826 -3.9626,13.2023 -1.9027,3.0785 -1.9404,3.5585 -0.5424,6.9044 2.2503,5.3856 1.8839,8.4291 -2.4816,20.6156 -3.3289,9.2929 -4.946,12.2646 -9.8342,18.0717 -6.4005,7.6039 -12.5234,12.5325 -16.8782,13.5861 -1.5419,0.3731 -3.998,1.5127 -5.4579,2.5325 -1.4599,1.0198 -3.9776,1.8542 -5.595,1.8542 -3.3287,0 -6.2506,2.6617 -6.2506,5.6939 0,5.2981 -8.3769,10.1557 -15.5156,8.9973 -1.6983,-0.2756 -5.5251,0.1311 -8.504,0.9038 -2.979,0.7728 -7.4587,1.405 -9.9549,1.405 -2.4963,0 -6.038,0.43 -7.8704,0.9555 -1.8324,0.5255 -6.8139,1.0812 -11.0699,1.2349 -7.1753,0.259 -7.9748,0.08 -10.9885,-2.4556 -3.6078,-3.0357 -6.6135,-3.4148 -9.5378,-1.203 -2.5957,1.9632 -9.9846,1.8996 -11.9875,-0.1032 -0.8643,-0.8643 -1.5714,-3.1057 -1.5714,-4.981 0,-2.7333 -0.4462,-3.5004 -2.25,-3.8679 -1.2375,-0.2521 -3.6,-0.7379 -5.25,-1.0796 -1.65,-0.3417 -4.2073,-0.8657 -5.683,-1.1644 -1.6131,-0.3265 -3.5722,0.08 -4.9132,1.0191 -1.5486,1.0847 -3.4803,1.3909 -6.3197,1.0017 -3.3271,-0.4561 -4.4441,-0.1687 -5.9918,1.5415 -2.5539,2.8221 -5.0181,2.6475 -7.5197,-0.5329 -3.9711,-5.0483 -1.8548,-13.7784 5.7871,-23.8731 2.8272,-3.7347 5.1403,-7.3982 5.1403,-8.1411 0,-2.9569 -3.0895,-1.0176 -9,5.6491 -4.4273,4.9938 -6.893,7 -8.603,7 -4.0127,0 -2.8819,-3.5135 3.353,-10.4182 3.1625,-3.5023 7.1,-8.2596 8.75,-10.5719 1.65,-2.3122 4.0451,-5.6229 5.3224,-7.357 1.669,-2.2658 2.1626,-3.9556 1.7544,-6.0058 -0.4584,-2.3025 0.03,-3.4118 2.5334,-5.75 1.7057,-1.5934 3.4722,-2.8971 3.9255,-2.8971 0.4533,0 2.6296,-3.2625 4.8362,-7.25 5.092,-9.2017 10.5806,-14.4801 20.5098,-19.7243 l 7.8818,-4.1628 5.8682,1.7578 c 5.7348,1.7178 6.2585,2.2001 5.9465,5.4762 -0.2039,2.1414 2.285,4.0847 4.2606,3.3266 1.2039,-0.462 1.5586,-1.8938 1.454,-5.8697 -0.2031,-7.7168 2.7053,-11.8832 11.0937,-15.8927 6.4202,-3.0687 6.648,-3.3072 7.7936,-8.1611 3.642,-15.4311 5.4477,-26.5014 6.3613,-39 0.5629,-7.7 1.4209,-16.7 1.9066,-20 0.4858,-3.3 0.927,-9.375 0.9805,-13.5 0.062,-4.7393 0.8859,-9.8926 2.2396,-14 1.8723,-5.6809 2.1187,-8.5162 1.9551,-22.5 -0.2001,-17.1075 -2.3558,-42.7527 -4.0762,-48.4934 -0.5759,-1.9214 -1.0613,-5.2964 -1.0788,-7.5 -0.017,-2.2036 -0.6661,-4.8441 -1.4414,-5.8676 -1.316,-1.7374 -1.6475,-1.4892 -4.9912,3.7379 -2.7401,4.2834 -3.8149,7.3054 -4.5742,12.861 -0.5459,3.9942 -1.4159,9.2871 -1.9334,11.7621 -0.5175,2.475 -0.958,6.3 -0.979,8.5 -0.021,2.2 -1.5994,8.95 -3.5077,15 -1.9082,6.05 -4.5668,14.825 -5.9079,19.5 -3.2245,11.2405 -8.0829,22.6319 -11.4288,26.797 -3.8113,4.7446 -7.1688,10.4383 -7.1881,12.1901 -0.01,0.818 -3.8415,9.2129 -8.5165,18.6553 -4.675,9.4425 -8.5,17.4554 -8.5,17.8064 0,0.3511 -2.7144,5.6119 -6.032,11.6908 -3.3177,6.0789 -7.7822,15.3968 -9.9212,20.7065 -2.139,5.3096 -5.4996,13.4619 -7.4679,18.1162 -1.9684,4.6542 -3.5789,9.1129 -3.5789,9.9082 0,1.2986 -4.0137,10.6807 -10.5367,24.6295 -2.94,6.2869 -9.1343,21.3611 -11.5875,28.1987 -1.0273,2.8634 -2.3438,10.7248 -2.9306,17.5 -1.0063,11.6173 -1.3495,12.9246 -6.1728,23.5117 -5.1174,11.2327 -9.37,17.2896 -12.1393,17.2896 -0.8138,0 -2.8444,-1.1484 -4.5125,-2.552 l -3.0328,-2.5519 -3.0439,4.202 c -1.6741,2.3111 -3.0439,4.5523 -3.0439,4.9805 0,1.9446 -3.4705,3.9214 -6.8843,3.9214 -2.8583,0 -4.4253,0.7137 -6.6381,3.0234 -5.1755,5.402 -14.2999,9.584 -27.0066,12.3778 -6.5008,1.4293 -13.1575,2.5988 -14.7926,2.5988 -1.6352,0 -5.5984,0.9572 -8.8071,2.1272 -6.3514,2.3158 -5.5874,2.4742 -12.4426,-2.5786 -0.9226,-0.68 -2.7243,0.3896 -6.3169,3.75 -2.7644,2.5858 -5.6432,4.7014 -6.3975,4.7014 -0.7543,0 -3.4522,-1.3783 -5.9954,-3.0628 z"
     id="path2987"
     inkscape:connector-curvature="0" />
</svg>
