<?xml version="1.0" encoding="UTF-8" standalone="no"?>
<!-- Created with Inkscape (http://www.inkscape.org/) -->

<svg
   xmlns:dc="http://purl.org/dc/elements/1.1/"
   xmlns:cc="http://creativecommons.org/ns#"
   xmlns:rdf="http://www.w3.org/1999/02/22-rdf-syntax-ns#"
   xmlns:svg="http://www.w3.org/2000/svg"
   xmlns="http://www.w3.org/2000/svg"
   xmlns:sodipodi="http://sodipodi.sourceforge.net/DTD/sodipodi-0.dtd"
   xmlns:inkscape="http://www.inkscape.org/namespaces/inkscape"
   id="svg2"
   version="1.1"
   inkscape:version="0.48.2 r9819"
   width="1872.864"
   height="1647.0001"
   sodipodi:docname="Dog,Newfoundland.png">
  <metadata
     id="metadata8">
    <rdf:RDF>
      <cc:Work
         rdf:about="">
        <dc:format>image/svg+xml</dc:format>
        <dc:type
           rdf:resource="http://purl.org/dc/dcmitype/StillImage" />
        <dc:title></dc:title>
      </cc:Work>
    </rdf:RDF>
  </metadata>
  <defs
     id="defs6" />
  <sodipodi:namedview
     pagecolor="#ffffff"
     bordercolor="#666666"
     borderopacity="1"
     objecttolerance="10"
     gridtolerance="10"
     guidetolerance="10"
     inkscape:pageopacity="0"
     inkscape:pageshadow="2"
     inkscape:window-width="1600"
     inkscape:window-height="876"
     id="namedview4"
     showgrid="false"
     fit-margin-top="0"
     fit-margin-left="0"
     fit-margin-right="0"
     fit-margin-bottom="0"
     inkscape:zoom="0.35355339"
     inkscape:cx="555.754"
     inkscape:cy="998.8141"
     inkscape:window-x="0"
     inkscape:window-y="24"
     inkscape:window-maximized="1"
     inkscape:current-layer="svg2" />
  <path
     style="fill:#000000"
     d="m 1733.5653,1646.9844 c -1.0258,-0.01 -2.5401,-0.4515 -3.3651,-0.9847 -0.825,-0.5332 -2.4529,-0.9763 -3.6176,-0.9847 l -2.1176,-0.015 -6.6463,-4.4568 -6.6463,-4.4569 -3.7361,-1.0376 c -2.0548,-0.5706 -4.2986,-1.0401 -4.9861,-1.0431 l -1.25,-0.01 0,0.9769 c 0,0.5374 -1.1486,1.7296 -2.5524,2.6494 l -2.5524,1.6724 -2.9993,-2.2176 -2.9994,-2.2175 -5.4988,-1.4323 c -3.0243,-0.7877 -6.7135,-2.1315 -8.1982,-2.9861 -1.4847,-0.8546 -4.4995,-2.647 -6.6995,-3.9831 l -4,-2.4292 -2.7148,-0.016 -2.7148,-0.016 -0.8983,-1.75 c -0.4941,-0.9625 -1.1863,-4.225 -1.5384,-7.25 -0.352,-3.025 -0.9151,-6.5088 -1.2514,-7.7418 l -0.6113,-2.2419 3.2203,-3.0081 3.2202,-3.0082 -1.6057,0 -1.6058,0 0,-1.0477 c 0,-0.5763 -1.2325,-2.19 -2.7388,-3.5861 l -2.7389,-2.5382 -1.246,-4.164 -1.2459,-4.164 -0.015,-4.5757 -0.015,-4.5757 2.3066,-2.1669 2.3066,-2.1669 4.9434,-0.6035 c 2.7189,-0.3319 6.9684,-1.3096 9.4434,-2.1727 2.475,-0.863 4.8828,-1.9001 5.3507,-2.3045 l 0.8506,-0.7354 -2.1006,-0.6668 -2.1007,-0.6667 0,-2.4326 0,-2.4326 1.3651,0 c 0.7509,0 2.5093,0.9 3.9078,2 1.3984,1.1 2.8091,2 3.1348,2 0.3258,0 0.5923,-0.986 0.5923,-2.1911 l 0,-2.1912 1.3554,1.8537 1.3554,1.8536 1.8946,-0.7789 1.8946,-0.779 -1.25,-0.4669 -1.25,-0.4669 0,-5.5515 0,-5.5515 2.1022,2.6725 2.1022,2.6725 1.4524,-1.2054 c 0.7988,-0.663 1.9134,-2.0668 2.4768,-3.1196 l 1.0245,-1.9142 -1.7016,-1.2443 -1.7016,-1.2442 0.6193,-1.9512 0.6193,-1.9512 5.7532,-1.6701 c 3.1643,-0.9185 9.3249,-2.1508 13.6902,-2.7385 l 7.9368,-1.0685 6.5632,-3.0605 6.5631,-3.0605 1.3118,-1.6736 1.3119,-1.6735 1.4419,1.9463 1.4419,1.9462 1.2379,-1.2379 1.2379,-1.2379 -1.3793,-0.8524 -1.3793,-0.8525 2.1391,-2.296 2.1391,-2.296 -0.918,-0.5673 -0.918,-0.5674 1.1223,-11.9926 1.1223,-11.9925 0.016,-11.5 c 0.01,-6.325 -0.2803,-16 -0.642,-21.5 -0.3617,-5.5 -1.1383,-13.825 -1.7258,-18.5 -0.5875,-4.675 -1.4911,-11.0784 -2.0081,-14.2299 l -0.9399,-5.7298 -1.8942,-4.2702 c -1.0419,-2.3485 -4.3031,-7.8701 -7.2472,-12.2701 -2.9442,-4.4 -5.7168,-8.15 -6.1615,-8.3333 l -0.8085,-0.3334 0,-2.2593 0,-2.2594 -2.25,-4.0253 c -1.2375,-2.2138 -4.0022,-6.6721 -6.1438,-9.9072 -2.1416,-3.2352 -5.3628,-8.1754 -7.1582,-10.9784 -1.7954,-2.803 -3.9807,-7.2062 -4.8562,-9.7849 -0.8755,-2.5788 -1.6017,-5.6855 -1.6138,-6.9037 l -0.022,-2.2151 -2.0905,-4.5 c -1.1498,-2.475 -2.6735,-6.6348 -3.386,-9.2441 l -1.2955,-4.7441 0.5142,-1.966 0.5141,-1.966 -2.1878,-3.5399 -2.1877,-3.5399 -1.4185,0 -1.4184,0 0,-1.3651 c 0,-0.7509 -0.9195,-2.5341 -2.0432,-3.9627 -1.1238,-1.4287 -3.4551,-3.6029 -5.1806,-4.8316 l -3.1373,-2.2339 0.7622,1.2333 0.7623,1.2334 -0.6856,4.0577 -0.6855,4.0577 -3.2133,1.3426 c -1.7673,0.7384 -5.883,3.3784 -9.1461,5.8665 -3.2631,2.4882 -8.2082,6.904 -10.9891,9.813 l -5.0562,5.2891 -2.0783,5 -2.0783,5 -1.6495,12 c -0.9073,6.6 -2.0733,14.25 -2.5913,17 -0.5179,2.75 -1.3742,9.5 -1.9027,15 -0.5286,5.5 -1.513,21.25 -2.1876,35 l -1.2265,25 1.2051,9.3939 1.2052,9.3939 0.9471,1.7697 0.947,1.7696 -6.7583,5.0101 -6.7583,5.0102 -4.9806,1.9507 c -2.7393,1.0728 -8.2945,2.6992 -12.3448,3.6142 l -7.3642,1.6636 -3.8197,1.9486 -3.8197,1.9487 -1.5661,2.2359 -1.5661,2.2359 0,5.8339 0,5.8338 -3.25,3.0151 c -1.7875,1.6582 -4.3819,3.6148 -5.7653,4.3479 l -2.5154,1.333 -6.4846,-2.0041 c -3.5666,-1.1023 -8.6822,-2.8592 -11.3681,-3.9044 -2.6858,-1.0451 -5.9308,-1.9002 -7.211,-1.9002 l -2.3277,0 -1.8543,1.9903 -1.8542,1.9903 -5.8413,2.0097 -5.8412,2.0097 -2.5935,-0.014 c -1.4263,-0.01 -3.6185,-0.2882 -4.8714,-0.6239 l -2.2781,-0.6103 0.5928,-1.8678 0.5928,-1.8678 -1.8147,0.7865 c -0.9982,0.4325 -5.1898,2.4723 -9.3148,4.5329 l -7.5,3.7464 -3.4657,-0.6269 -3.4657,-0.6269 -3.3026,-2.8998 -3.3027,-2.8998 -2.7316,-0.6523 c -1.5025,-0.3588 -3.2557,-1.0635 -3.8962,-1.5659 -0.6404,-0.5025 -4.4562,-2.5353 -8.4794,-4.5173 l -7.315,-3.6037 -2.5205,0.011 c -1.3863,0.01 -7.2456,0.347 -13.0206,0.758 l -10.5,0.7472 -6.9524,-3.6029 -6.9524,-3.6029 -3.3912,0 -3.3912,0 -0.5271,-2.0156 -0.5271,-2.0157 -2.5157,2.5157 -2.5156,2.5156 -1.3285,0 -1.3284,0 -0.9595,-1.7929 -0.9595,-1.7928 3.3901,-11.4572 3.3902,-11.4571 4.6377,-3.9414 c 2.5507,-2.1678 8.3035,-6.7817 12.7841,-10.2531 4.4806,-3.4714 11.4851,-8.8978 15.5656,-12.0586 l 7.4192,-5.7469 8.5808,-0.3331 8.5809,-0.3331 12.7717,2.0831 c 7.0245,1.1457 14.5242,2.0831 16.666,2.0831 l 3.8942,0 2.9226,-3.75 c 1.6074,-2.0625 3.6141,-5.1 4.4593,-6.75 0.8452,-1.65 2.2757,-4.4121 3.1788,-6.1379 l 1.642,-3.1379 2.1126,-0.5524 2.1126,-0.5525 -0.5867,-1.5287 -0.5866,-1.5287 1.4506,-2.781 c 0.7978,-1.5295 1.4534,-3.37 1.4567,-4.0899 l 0.01,-1.309 0.8711,0.5383 0.8711,0.5384 0.5113,-3.7293 c 0.2812,-2.0512 1.2458,-5.3044 2.1436,-7.2294 0.8977,-1.925 1.4003,-2.6749 1.1169,-1.6664 l -0.5154,1.8335 1.2471,-0.4157 1.2471,-0.4157 0.6012,-3.6989 c 0.3307,-2.0343 1.1614,-4.9224 1.8461,-6.4178 0.6847,-1.4955 1.8884,-4.0107 2.675,-5.5894 l 1.43,-2.8703 -0.9717,-1.1709 -0.9717,-1.1708 1.8715,-1.1688 1.8714,-1.1687 -0.3164,-4.6945 -0.3165,-4.6946 1.3237,-3.5955 1.3237,-3.5955 0.07,2.809 0.071,2.809 1,-0.618 1,-0.618 0,-3.882 0,-3.882 0.8944,-0.5527 0.8943,-0.5528 0.5251,-3.7562 c 0.2888,-2.066 0.831,-4.953 1.2049,-6.4156 l 0.6798,-2.6592 -5.2037,-10.8408 c -2.862,-5.9624 -6.2205,-12.193 -7.4633,-13.8458 -1.2429,-1.6528 -3.8579,-6.1787 -5.8113,-10.0576 -1.9533,-3.8788 -4.2645,-7.6441 -5.1359,-8.3673 -0.8713,-0.7232 -1.5843,-1.6572 -1.5843,-2.0757 0,-0.4184 -2.0415,-4.1017 -4.5366,-8.185 -2.4951,-4.0834 -6.5956,-11.8985 -9.1121,-17.3668 -2.5166,-5.4684 -5.2301,-11.7425 -6.03,-13.9425 -0.8,-2.2 -2.9995,-7.2273 -4.8879,-11.1719 l -3.4334,-7.1718 0,-4.0975 0,-4.0974 -2.75,-7.1791 -2.75,-7.179 -4.4433,-4.0516 c -2.4438,-2.2285 -5.8188,-5.4797 -7.5,-7.225 -1.6812,-1.7453 -4.3842,-4.8351 -6.0067,-6.8662 -1.6225,-2.0311 -5.2225,-5.3947 -8,-7.4748 -2.7775,-2.08 -6.85,-5.3917 -9.05,-7.3594 -2.2,-1.9676 -6.25,-5.623 -9,-8.1231 -2.75,-2.5002 -9.0196,-7.6862 -13.9325,-11.5245 l -8.9324,-6.9787 -1.3922,0 c -0.7657,0 -4.8461,-1.7942 -9.0675,-3.9872 l -7.6754,-3.9872 -4.023,-5.7628 -4.0229,-5.7628 -3.4771,-1.1246 -3.477,-1.1245 -0.3223,-2.6859 -0.3222,-2.6859 1.1905,-1.4346 1.1906,-1.4345 -1.5734,-2.4012 c -0.8653,-1.3207 -3.5349,-4.0086 -5.9324,-5.9732 l -4.3591,-3.572 -2.1303,-4.7818 c -1.1716,-2.63 -3.8872,-9.0568 -6.0345,-14.2818 -2.1474,-5.225 -4.9527,-12.2 -6.234,-15.5 -1.2813,-3.3 -5.6185,-13.5983 -9.6383,-22.8852 l -7.3086,-16.8852 -3.263,-4.4961 c -1.7946,-2.4729 -5.2941,-6.7995 -7.7766,-9.6148 -2.4825,-2.8153 -6.5162,-7.5937 -8.9639,-10.6187 -2.4476,-3.025 -7.3915,-8.8071 -10.9863,-12.849 l -6.5362,-7.3491 -6.5,-5.15087 c -3.575,-2.8331 -7.3865,-5.6076 -8.47,-6.1656 l -1.97,-1.0145 -2.2698,-3.3682 -2.2698,-3.36815 -4.8683,-2.25554 -4.8684,-2.25555 -7.8918,5.02032 c -4.3406,2.76112 -8.1169,5.33782 -8.3919,5.72602 -0.275,0.3881 -1.4,0.9524 -2.5,1.2541 -1.1,0.3016 -5.8792,1.6931 -10.6205,3.0923 l -8.6205,2.5439 -7.227,1.0015 -7.227,1.00147 -3.8936,2.6983 -3.8936,2.6983 -1.2589,-0.9948 -1.2589,-0.9948 -4.3483,-0.5531 -4.3483,-0.5531 -2.2161,-2.0819 -2.2162,-2.08197 -1.5692,0 -1.5692,0 -3.4221,3.78777 c -1.8821,2.0833 -5.1008,6.317 -7.1526,9.4082 l -3.7306,5.6204 -10.2672,9.8891 -10.2672,9.889 -9.2391,4.7719 -9.2392,4.7718 -1.2074,-0.4112 -1.2073,-0.4113 4.5,-2.2995 c 2.475,-1.2648 7.0875,-4.2871 10.25,-6.7164 l 5.75,-4.4167 0,-1.4415 c 0,-0.7929 -0.3375,-1.4445 -0.75,-1.448 -0.4125,0 -8.0338,3.4105 -16.9362,7.5866 l -16.1862,7.593 -4.0542,0.5438 -4.0543,0.5438 -1.3176,-1.0936 -1.3176,-1.0935 -10.942,3.001 c -6.018,1.6505 -12.0669,3.5878 -13.4419,4.3051 l -2.5,1.3042 0.2658,1.2055 0.2658,1.2054 -1.3049,-0.2974 -1.3049,-0.2975 -7.4609,5.4261 c -4.1035,2.9844 -8.8109,6.6212 -10.4609,8.0817 l -3,2.6556 -2,0.1617 c -1.1,0.089 -2.8828,0.2772 -3.9617,0.4183 l -1.9617,0.2566 -0.3468,-2 c -0.1908,-1.1 -0.5365,-2.5757 -0.7682,-3.2794 l -0.4214,-1.2794 -4.4566,2.2794 -4.4566,2.2794 -3.0501,4.2228 -3.0501,4.2229 -3.9736,2.0271 c -2.1854,1.115 -4.622,2.0272 -5.4146,2.0272 l -1.441,0 -2.0846,-3.533 -2.0845,-3.5331 -2.9646,1.5331 -2.9646,1.533 -2.3753,0 -2.3754,0 -2.1743,2.3145 c -1.1959,1.2729 -2.1743,2.8121 -2.1743,3.4205 l 0,1.1061 -3.041,0.6679 -3.0409,0.6679 -1.5737,-1.306 -1.5736,-1.306 -1.9813,2.4467 -1.9812,2.4467 -1.244,-1.7012 -1.244,-1.7013 -6.7598,8.4052 -6.7598,8.4051 -3.6752,2.5469 -3.6752,2.5469 -3.2431,0.6487 -3.2431,0.6486 0.6249,-1.6286 0.625,-1.6286 -1.5241,0 c -0.8383,0 -3.5864,0.884 -6.107,1.9645 l -4.5829,1.9644 0,-2.5991 c 0,-1.4296 -0.5226,-5.5761 -1.1614,-9.2145 -0.6387,-3.6384 -1.5387,-7.0428 -2,-7.5653 l -0.8431,-0.9466 0,1.4999 0,1.4999 -4.6313,6.4501 c -2.5472,3.5476 -4.9906,6.846 -5.4298,7.3299 -0.4392,0.4839 -1.8616,0.9965 -3.161,1.1391 l -2.3624,0.2594 -3.9577,2.6895 -3.9578,2.6895 -3.7862,-0.3585 -3.7862,-0.3586 -0.5923,2.5299 c -0.3257,1.3915 -1.4629,3.9791 -2.5271,5.7504 l -1.9349,3.2205 -3.1866,0.921 c -1.7527,0.5066 -3.9604,1.2378 -4.9061,1.6248 l -1.7194,0.7037 -2.9481,-3.2278 -2.9481,-3.2278 -3.4506,2.1326 c -1.8978,1.1729 -3.7604,2.1325 -4.1392,2.1325 -0.3787,0 0.012,-1.0001 0.8681,-2.2225 l 1.5567,-2.2225 0,-2.2775 0,-2.2775 -1.4434,0 -1.4434,0 -5.293,5.5966 -5.293,5.5965 -2.6997,1.3961 -2.6997,1.3961 -0.3139,3.2573 -0.3139,3.2574 -1,0 -1,0 -1.8324,-3.75 c -1.0078,-2.0625 -2.2139,-3.75 -2.6802,-3.75 l -0.8478,0 0.9302,-3.2434 c 0.5116,-1.7839 0.9302,-4.3373 0.9302,-5.6743 l 0,-2.4309 -2.6113,2.4243 -2.6113,2.4243 0.5008,7.5177 0.5008,7.5177 1.6051,3.9823 1.6051,3.9823 -1.9798,-2.3425 -1.9798,-2.3425 -2.0738,-7.1575 c -1.1406,-3.9366 -2.1672,-7.5173 -2.2814,-7.9571 l -0.2075,-0.7996 -9.7335,9.1352 -9.7334,9.1351 0,4.3494 0,4.3493 1.0079,2.6511 1.008,2.6511 -1.258,-0.386 -1.2579,-0.3859 -2.087,-4.0811 -2.0869,-4.081 -1.7381,0.9727 -1.738,0.9726 -0.6021,-0.6021 -0.6021,-0.6021 2.6771,-2.7942 2.6771,-2.7943 0,-5.1302 0,-5.1302 0.9752,-2.5651 0.9753,-2.5651 -0.9163,0 c -0.5039,0 -1.1822,0.4303 -1.5072,0.9563 l -0.5911,0.9564 -1.301,-0.4993 -1.3011,-0.4993 -5.1203,10.293 -5.1203,10.2929 -3.1007,9.309 -3.1007,9.309 -0.5745,4.8506 -0.5745,4.8506 4.6286,5.6821 c 2.5457,3.1251 4.6286,6.0908 4.6286,6.5904 l 0,0.9083 -2.125,0 -2.125,0 0.6396,3.198 0.6396,3.198 -1.6142,4.8597 -1.6141,4.8597 0.487,3.6923 c 0.2679,2.0308 1.4404,7.9673 2.6056,13.1923 l 2.1186,9.5 0.4825,11 0.4825,11 -1.7386,-5.1901 c -0.9562,-2.8546 -2.076,-5.5171 -2.4885,-5.9167 l -0.75,-0.7265 0,-3.2841 c 0,-1.8063 -0.4862,-5.5511 -1.0804,-8.3219 l -1.0804,-5.0377 -1.8864,-2.2615 -1.8863,-2.2615 -0.01,2.5 c 0,1.375 0.8693,6.325 1.9411,11 l 1.9486,8.5 0.025,7.5 0.026,7.5 -2.0254,12.4137 -2.0255,12.4138 -1.9743,4.4634 -1.9744,4.4633 0,2.3245 0,2.3244 3.5778,8.1374 3.5778,8.1373 -0.6008,0.6008 -0.6008,0.6007 -1.6883,-2.4103 c -0.9285,-1.3257 -2.8503,-3.711 -4.2707,-5.3006 l -2.5824,-2.8902 -2.701,4.0815 -2.7011,4.0816 -1.4041,-0.5388 -1.4041,-0.5388 -0.5546,0.8974 -0.5547,0.8975 1.4891,4.9207 1.4892,4.9207 0.6203,9.5 0.6204,9.5 1.9016,4.4673 1.9017,4.4673 3.5461,4.3277 c 1.9504,2.3802 4.5637,4.9943 5.8074,5.8092 l 2.2613,1.4816 2.8849,-1.0931 c 1.5868,-0.6013 3.8957,-2.04 5.1311,-3.1972 l 2.246,-2.104 0.6824,0.6824 0.6825,0.6824 -5.2661,5.0758 -5.2661,5.0758 -3.3803,1.4124 -3.3802,1.4124 -4.4671,0 -4.467,0 -2.8151,-1.1604 c -1.5483,-0.6382 -3.3203,-1.0816 -3.9377,-0.9854 l -1.1227,0.175 -1.2651,-3.0544 -1.2652,-3.0545 -1.7006,-1.2101 -1.7005,-1.2102 -0.7008,-2.8302 c -0.3855,-1.5566 -1.6491,-5.0019 -2.8081,-7.6562 l -2.1073,-4.826 -2.4006,-1.0938 c -1.32,-0.6016 -2.6041,-1.0938 -2.8532,-1.0938 -0.2491,0 -0.4529,0.6199 -0.4529,1.3776 l 0,1.3775 1.489,1.2358 1.489,1.2357 -0.587,0.9497 -0.5869,0.9497 1.622,1.7924 1.6221,1.7924 -0.5744,1.4968 -0.5744,1.4969 3.8003,3.3345 3.8003,3.3344 0.1145,1.8348 0.1145,1.8349 1.8831,2.0808 c 1.0357,1.1445 3.0994,2.7098 4.5859,3.4785 1.4864,0.7687 3.625,1.3976 4.7523,1.3976 l 2.0497,0 0,0.9022 0,0.9021 -3.125,1.0894 -3.1249,1.0894 -4.5885,-2.0298 c -2.5237,-1.1163 -5.3478,-2.7168 -6.2758,-3.5566 l -1.6873,-1.527 -0.6658,1.0774 -0.6659,1.0774 1.1446,7.7377 c 0.6295,4.2558 1.5535,9.5378 2.0534,11.7378 0.4998,2.2 1.3526,9.9013 1.895,17.1141 l 0.9863,13.114 1.0223,2.689 1.0224,2.6889 5.5331,2.447 c 3.0432,1.3458 6.4499,2.447 7.5703,2.447 1.1205,0 2.9462,-0.4865 4.0572,-1.081 1.1109,-0.5946 2.2428,-0.8581 2.5152,-0.5857 0.2725,0.2725 0.022,1.3798 -0.5564,2.4608 l -1.0519,1.9654 -4.1978,1.6796 -4.1979,1.6797 -4.0002,-0.6758 c -2.2001,-0.3717 -7.1867,-2.0186 -11.0813,-3.6597 l -7.0811,-2.9838 -2.75,-2.5868 -2.75,-2.5869 0,3.2827 0,3.2828 1.8612,2.6543 c 1.0236,1.4599 2.4238,4.4544 3.1116,6.6544 0.6877,2.2 2.3251,5.9692 3.6388,8.376 1.3136,2.4067 2.3884,4.5632 2.3884,4.7921 0,0.2289 -1.9521,-0.7278 -4.3379,-2.1259 -2.3858,-1.3982 -4.6358,-2.5422 -5,-2.5422 l -0.6621,0 0,8.5398 0,8.5399 -2.1417,4.2101 c -1.178,2.3156 -4.0482,6.6924 -6.3783,9.7261 l -4.2366,5.5159 -2.6202,1.4023 -2.6202,1.4022 -0.6682,-0.6681 -0.6682,-0.6682 1.1667,0 1.1667,0 0,-1.5 0,-1.5 -0.893,0 c -0.4912,0 -1.1662,0.7118 -1.5,1.5818 -0.3339,0.87 -0.607,3.828 -0.607,6.5733 l 0,4.9915 -1.6772,-0.3233 -1.6772,-0.3233 -3.3051,-8.463 -3.3051,-8.4631 -2.9857,-2.9857 -2.9856,-2.9856 -0.6246,0.6245 -0.6246,0.6246 1.6844,5.7941 c 0.9264,3.1867 2.5604,7.5112 3.6311,9.6099 l 1.9468,3.8159 -0.6372,3.3962 -0.6371,3.3962 1.757,8.1318 1.7569,8.1318 -2.1536,2.1537 -2.1537,2.1536 -4.7548,-1.8189 c -2.6151,-1.0005 -5.4297,-1.8858 -6.2547,-1.9675 l -1.5,-0.1485 0.3349,6.3615 0.3348,6.3615 -0.9999,-0.618 c -0.55,-0.34 -2.207,-3.7768 -3.6822,-7.6374 l -2.6823,-7.0194 -1.4833,-1.4833 -1.4833,-1.4833 -0.8395,0.5189 -0.8396,0.5189 1.9845,7.0125 1.9844,7.0125 -0.3142,2.6507 -0.3143,2.6507 -1.1013,0.3608 -1.1012,0.3609 -1.7801,-4.7837 c -0.9791,-2.6311 -3.5208,-8.1588 -5.6483,-12.2838 l -3.8682,-7.5 -5.0724,-6 c -2.7898,-3.3 -7.3165,-8.5875 -10.0594,-11.75 l -4.987,-5.75 -1.8737,0 -1.8736,0 -0.5612,1.7681 -0.5612,1.768 0.4828,23.482 c 0.2655,12.915 0.7524,24.7374 1.082,26.2718 l 0.5992,2.79 -2.4611,3.2266 c -1.3535,1.7747 -4.966,7.9817 -8.0277,13.7934 -3.0616,5.8116 -7.8438,14.316 -10.6271,18.8985 -2.7833,4.5825 -5.0605,8.8774 -5.0605,9.5443 0,0.6668 -0.6021,1.7121 -1.3381,2.3229 l -1.338,1.1105 -1.8349,6.0602 -1.8349,6.0602 -3.3105,2.9066 -3.3105,2.9067 -3.7665,1.1046 -3.7666,1.1046 -15.7974,-1.9474 -15.7975,-1.9475 -1.7813,-1.612 c -0.9797,-0.8867 -2.1463,-1.6121 -2.5923,-1.6121 -0.4461,0 -1.3599,-0.7507 -2.0308,-1.6681 l -1.2198,-1.6681 -3.0965,2.2048 c -1.703,1.2127 -5.1804,3.1268 -7.7274,4.2535 l -4.631,2.0485 -2.8223,-1.1691 -2.8223,-1.169 -2.025,1.0838 -2.0249,1.0837 -3.6614,0 -3.6614,0 -2.6544,-1.8425 c -1.4599,-1.0133 -5.0133,-3.1079 -7.8964,-4.6546 l -5.242,-2.8121 -10.258,4.7818 c -5.6419,2.63 -11.1869,5.6246 -12.3224,6.6546 -1.1354,1.03 -2.3729,1.8728 -2.75,1.8728 -0.377,0 -0.6855,-0.6269 -0.6855,-1.393 l 0,-1.393 -1.5,-0.5756 -1.5,-0.5756 0,2.9686 0,2.9686 -0.75,-0.01 c -0.4125,-0.01 -1.4898,-1.7721 -2.394,-3.9255 l -1.6439,-3.9155 -3.9442,-2.0121 -3.9441,-2.0121 -2.9119,0.068 -2.9119,0.068 -9.4079,-3.5506 -9.408,-3.5505 -3.7896,3.0454 -3.7896,3.0454 -6.355,-4.5348 c -3.4953,-2.4942 -6.8419,-5.138 -7.437,-5.8752 -0.5951,-0.7372 -1.3998,-2.8261 -1.7882,-4.642 l -0.7063,-3.3016 -6.9349,0.6833 -6.9349,0.6834 -2.0767,-1.8794 c -1.1422,-1.0337 -2.7056,-3.0956 -3.4743,-4.5821 l -1.3976,-2.7028 0,-2.3496 0,-2.3497 -1.15,-1.15 -1.1501,-1.15 4.1948,-6.4384 4.1948,-6.4385 0.6104,-3.7615 0.6104,-3.7615 -1.8463,-1.35 -1.8463,-1.3501 -2.7424,0 -2.7425,0 -0.3164,2.6729 -0.3164,2.6729 -1.0559,0.3457 -1.0559,0.3458 -1.6779,-3.5187 -1.678,-3.5186 -1.4077,0 -1.4078,0 -0.6075,2.4205 -0.6075,2.4206 0.6487,1.8294 0.6488,1.8295 -3.2683,-3.25 c -1.7976,-1.7875 -3.6649,-3.25 -4.1497,-3.25 -0.4847,0 -1.7479,0.8666 -2.8071,1.9258 l -1.9258,1.9258 0.5424,2.0742 0.5424,2.0742 -0.8021,0 c -0.4412,0 -1.8393,-0.9743 -3.1068,-2.165 l -2.3045,-2.165 -2.557,1.165 -2.5569,1.165 -4.3013,0 -4.3014,0 -13.7486,-3.4328 -13.7486,-3.4328 -1.9416,-1.7571 -1.9415,-1.757 0.2885,-3.0602 0.2886,-3.0601 -2.25,-0.3196 -2.25,-0.3195 0,-2.4305 0,-2.4304 1.0633,0 1.0634,0 -0.3134,-3.25 -0.3133,-3.25 -2.25,-0.3196 -2.25,-0.3195 0,-0.7438 c 0,-0.4091 3.1978,-4.9617 7.1063,-10.1168 3.9085,-5.1551 7.6168,-10.5266 8.2407,-11.9366 0.6238,-1.4101 2.1124,-4.0322 3.308,-5.827 l 2.1737,-3.2634 0.6772,-4.0083 0.6772,-4.0083 3.1584,-1.584 3.1585,-1.584 5.5,-5.2793 c 3.025,-2.9035 7.5909,-6.8441 10.1465,-8.7568 l 4.6464,-3.4776 8.1148,-2.1896 8.1147,-2.1896 1.2388,0.7837 c 0.6813,0.431 2.5888,0.8634 4.2388,0.9609 l 3,0.1772 3.3459,-2.0496 3.3459,-2.0496 7.8225,0.6032 7.8226,0.6032 6.5816,-7.5164 c 3.6198,-4.134 6.5815,-7.937 6.5815,-8.4512 0,-0.5142 1.9535,-3.5274 4.3412,-6.696 l 4.3412,-5.7612 7.8437,-16.4893 7.8438,-16.4894 0.015,-3.0106 c 0.01,-1.6559 -0.5267,-6.5442 -1.1891,-10.8629 -0.6624,-4.3187 -1.4717,-8.2849 -1.7986,-8.8137 -0.3268,-0.5287 -0.7302,-3.9702 -0.8964,-7.6477 -0.1663,-3.6775 -0.7584,-12.3681 -1.3157,-19.3123 l -1.0134,-12.6259 -1.2758,-2.0429 -1.2758,-2.0429 1.2384,-1.4922 1.2384,-1.4921 -1.0513,-0.6498 -1.0513,-0.6497 0.8584,-1.6893 0.8584,-1.6893 0.1384,-34 0.1385,-34 -1.4237,-14.5 c -0.7831,-7.975 -2.1746,-20.35 -3.0924,-27.5 l -1.6687,-13 -1.8411,-1.5 -1.8411,-1.5 -0.6714,-2.7594 c -0.3693,-1.5177 -1.0899,-3.0181 -1.6013,-3.3342 l -0.9299,-0.5747 0.6267,-1.9746 0.6267,-1.9747 -1.6648,-3.5083 -1.6648,-3.5083 -0.1712,-5.8285 -0.1713,-5.8285 -0.5647,0.9048 -0.5647,0.9048 -1.2869,-6.7592 c -0.7078,-3.7176 -1.5149,-7.7717 -1.7937,-9.0092 l -0.5068,-2.25 -1.8564,0 -1.8564,0 -0.9543,-1.7831 c -0.5249,-0.9808 -2.1545,-8.5183 -3.6214,-16.75 -1.4669,-8.2318 -3.1212,-18.1169 -3.6763,-21.9669 l -1.0092,-7 1.1613,-2.9884 1.1613,-2.9884 1.9119,2.4884 1.9119,2.4884 0.022,-5.1984 0.022,-5.1984 -2.4984,-7.9088 -2.4985,-7.9089 -3.4685,-4.3928 -3.4685,-4.3927 -2.7486,-0.5039 -2.7487,-0.5038 -3.7965,-5.4343 -3.7966,-5.4343 -1.0585,-3.9312 -1.0586,-3.9312 -3.1793,0.6126 c -1.7486,0.3369 -4.377,0.8855 -5.8408,1.219 l -2.6615,0.6064 -1.1282,-2.1081 -1.1282,-2.1081 1.441,-6.9623 1.441,-6.9623 -0.8011,-3.5518 c -0.4406,-1.9535 -1.5316,-4.6667 -2.4244,-6.0293 -0.8928,-1.3626 -2.0307,-2.4774 -2.5287,-2.4774 -0.4981,0 -1.6014,0.6958 -2.4518,1.5463 l -1.5463,1.5462 -6.7648,-0.2962 -6.7648,-0.2963 -0.3764,-1.9715 -0.3763,-1.9715 3.1464,-2.6267 3.1464,-2.6267 1.9696,-3.8633 c 1.0833,-2.1247 1.9696,-4.3879 1.9696,-5.0293 0,-0.6414 -0.6004,-1.6643 -1.3341,-2.2733 l -1.3341,-1.1072 -4.0987,1.61 -4.0987,1.6101 -2.6533,-0.666 -2.6534,-0.6659 -2.4138,-2.4139 -2.4139,-2.41387 0,-2.9241 0,-2.9242 -2.9351,-1.2157 -2.9351,-1.2158 -1.0649,-3.05475 c -0.5856,-1.68013 -1.0648,-4.32906 -1.0648,-5.88651 l 0,-2.83173 -2.5,-0.62746 -2.5,-0.62746 0.032,-2.64159 0.032,-2.64159 1.4682,-1.94113 1.4682,-1.94113 0,-2.80887 0,-2.80887 1,0 1,0 0,-1.87264 0,-1.87264 -4.3857,-4.04254 c -2.4121,-2.2234 -5.8081,-4.77816 -7.5468,-5.67726 l -3.1612,-1.63471 -6.3737,2.5499 -6.3737,2.54989 -2.457,0 -2.457,0 -1.1343,-1.36674 -1.1343,-1.36674 4.2618,-0.56568 4.2619,-0.56568 2.7765,-3.31159 2.7765,-3.31159 -1.7176,-1.25599 -1.7177,-1.25599 -6.341,0 -6.341,0 -3.2906,-1.3749 c -1.8098,-0.7562 -4.9729,-2.85204 -7.0292,-4.65742 l -3.7385,-3.28251 0.6495,-3.84459 0.6495,-3.84459 -2.1195,-4.37846 -2.1196,-4.37846 -0.9915,-8.86953 c -0.5453,-4.87825 -1.4006,-10.21954 -1.9006,-11.86954 -0.5,-1.65 -0.8835,-4.33125 -0.8521,-5.95833 l 0.057,-2.95834 -1.1668,-0.38891 -1.1667,-0.38891 0.948,-1.15276 0.948,-1.15275 -0.9147,-8.97271 -0.9147,-8.9727 -1.4414,-1.44139 -1.4414,-1.44139 -1.5252,1.26585 -1.5253,1.26586 -0.9856,-2.35176 c -0.5421,-1.29347 -1.9223,-5.61426 -3.0673,-9.60176 l -2.0816,-7.25 -0.9577,0 -0.9576,0 0,-1.5 0,-1.5 1.5,0 1.5,0 0,-1.94098 0,-1.94099 -1.0433,-0.64474 -1.0432,-0.64474 -3.39,2.58572 c -1.8646,1.42215 -3.6451,2.58573 -3.9568,2.58573 l -0.5667,0 -0.1122,-6.25 -0.1123,-6.25 -1.1439,5.4187 -1.1438,5.41871 -1.1762,0.39206 -1.1762,0.39206 -1.126,-2.10397 c -0.6193,-1.15718 -2.1913,-7.37203 -3.4933,-13.81076 -1.302,-6.43874 -2.6714,-14.9693 -3.0432,-18.9568 l -0.6759,-7.25 -0.6485,0.006 c -0.3567,0.003 -1.4151,1.35348 -2.352,3 l -1.7035,2.994 -1.0975,0 -1.0976,0 -1.4209,-3.40082 -1.421,-3.40082 -1.0694,-11.34062 -1.0695,-11.34061 -0.8318,-0.83177 -0.8317,-0.83176 -2.2372,3.61976 -2.2371,3.61975 -1.1397,-0.37755 -1.1396,-0.37755 -0.7667,-8.38573 -0.7668,-8.38573 -0.8546,-0.85459 -0.8546,-0.8546 -2.0226,2.57132 c -1.1124,1.41423 -2.2953,2.57132 -2.6286,2.57132 l -0.6061,0 0,-5.56348 c 0,-3.05992 0.6992,-10.37242 1.5537,-16.25 0.8546,-5.87759 2.2362,-14.73652 3.0702,-19.68652 0.8341,-4.95 1.7587,-10.0125 2.0547,-11.25 l 0.5382,-2.25 -2.6332,0 -2.6331,0 -0.8521,2.25 c -0.4686,1.2375 -1.1793,5.9625 -1.5793,10.5 l -0.7273,8.25 -0.8607,0 c -0.4734,0 -1.4075,-1.0125 -2.0757,-2.25 l -1.215,-2.25 -0.4423,-19 -0.4423,-19 2.0541,-10.50614 c 1.1298,-5.77838 2.5347,-11.77018 3.1221,-13.3151 0.5874,-1.54493 1.068,-3.25622 1.068,-3.80288 l 0,-0.99391 -1,0.61803 -1,0.61803 0,-0.93704 c 0,-0.51538 0.8525,-1.55443 1.8945,-2.30902 l 1.8945,-1.37197 2.1103,-5.80035 2.1103,-5.80034 -3.0832,-1.07481 -3.0832,-1.07481 3.8284,-1.73361 c 2.1056,-0.95349 4.5846,-2.5855 5.5088,-3.62668 0.9242,-1.04118 2.133,-3.08347 2.6861,-4.53841 0.5532,-1.45494 0.7824,-2.86873 0.5094,-3.14176 -0.2731,-0.27303 -2.8318,0.1278 -5.6862,0.89073 l -5.1897,1.38715 -5.3328,0.13988 -5.3328,0.13989 -2.6672,-2.00327 -2.6672,-2.00326 0,-3.28534 0,-3.28535 -5,-3.50484 c -2.75,-1.92767 -5.1527,-3.89088 -5.3393,-4.36269 -0.1866,-0.47182 -1.0063,-1.52481 -1.8214,-2.33999 l -1.4822,-1.48214 -2.2942,0 -2.2942,0 -7.0655,-3.53472 -7.0655,-3.53473 -3.6944,-5.14232 c -2.0319,-2.82827 -5.6,-7.20014 -7.9292,-9.71527 -2.3291,-2.51513 -4.7476,-5.55588 -5.3744,-6.75722 l -1.1397,-2.18426 0,-5.25584 0,-5.25584 -5.5,-5.07799 -5.5,-5.07799 0,-4.2633 0,-4.26329 1.5073,-0.5784 1.5072,-0.5784 3.9956,3.60979 c 2.1976,1.98538 4.4285,3.60978 4.9576,3.60978 0.529,0 1.4436,-0.9 2.0323,-2 l 1.0703,-2 1.3429,0 1.3428,0 1.5696,2.25 1.5695,2.25 0.037,-2 c 0.02,-1.1 -0.338,-2.59153 -0.7965,-3.3145 l -0.8335,-1.31451 -6.6701,-1.52144 -6.67,-1.52145 -5.124,-4.16405 c -2.8181,-2.29023 -6.2971,-5.02668 -7.731,-6.08101 -1.434,-1.05433 -4.2947,-3.50815 -6.3572,-5.45295 -2.0625,-1.94479 -3.75,-3.96776 -3.75,-4.49549 0,-0.52773 -1.3907,-3.12675 -3.0904,-5.7756 l -3.0905,-4.8161 0.4435,-1.27145 0.4436,-1.27145 8.8969,8.9024 c 4.8933,4.89632 10.2469,9.73213 11.8969,10.74626 1.65,1.01412 3.5625,1.84555 4.25,1.8476 l 1.2501,0.004 0,-1.5 0,-1.5 -2.0322,0 -2.0323,0 -0.7837,-2.11873 -0.7838,-2.11873 -5.3765,-3.63127 -5.3764,-3.63127 -3.2666,-4.5 c -1.7966,-2.475 -4.6048,-6.75209 -6.2405,-9.50464 l -2.974,-5.00464 -0.6959,-5.24536 -0.6958,-5.24536 1.5203,0 1.5202,0 1.6775,4.19233 c 0.9225,2.30579 2.5955,5.4817 3.7176,7.05758 l 2.0403,2.86524 0.5352,-0.53528 0.5353,-0.53528 -1.7595,-4.60717 -1.7595,-4.60717 1.0078,-1.00777 1.0078,-1.00776 2.1073,1.12782 c 1.1591,0.62031 2.1074,1.47406 2.1074,1.89723 0,0.42317 1.5232,2.43233 3.3848,4.46481 l 3.3849,3.69542 5.6151,0 5.6152,0 0,-0.92752 c 0,-0.51014 -1.4625,-2.08015 -3.25,-3.48891 l -3.25,-2.56139 5,-0.0261 5,-0.0261 3.5,-1.28858 c 1.925,-0.70872 5.2067,-2.33273 7.2927,-3.60891 l 3.7927,-2.32034 -0.5047,-0.50463 c -0.2775,-0.27754 -6.0342,-0.83232 -12.7927,-1.23283 l -12.288,-0.72828 -7.7841,-4.32823 -7.784,-4.32823 -3.716,-3.73561 c -2.0437,-2.05458 -4.5034,-4.67132 -5.4659,-5.81497 -0.9625,-1.14365 -1.75,-2.56988 -1.75,-3.16939 l 0,-1.09003 -8.6437,-8.48933 -8.6436,-8.48934 -2.2166,-0.84277 c -1.2192,-0.46352 -8.9171,-1.82684 -17.1064,-3.02959 -8.1894,-1.20276 -18.0397,-2.53655 -21.8897,-2.96399 -3.85,-0.42743 -7.9,-1.13864 -9,-1.58046 -1.1,-0.44182 -5.207,-2.74307 -9.1267,-5.11389 C 83.6517,431.93976 80.031,430 79.5254,430 c -0.5057,0 -4.273699,-2.0588 -8.373399,-4.5751 -4.099701,-2.51631 -8.9505,-6.00381 -10.7795,-7.75 -1.829,-1.7462 -5.336101,-6.18991 -7.793601,-9.87491 l -4.468,-6.70001 -1.564,-5.29999 c -0.8601,-2.915 -1.671,-6.65766 -1.802,-8.31703 -0.1309,-1.65937 -0.7261,-4.58437 -1.3226,-6.5 C 42.8258,379.06733 42.0387,375.475 41.6733,373 l -0.6646,-4.5 -3.9672,-6.16469 -3.9673,-6.1647 -0.5678,-14.8353 L 31.9386,326.5 29.5683,321.40351 c -1.3037,-2.80307 -2.3703,-5.81401 -2.3703,-6.69098 l 0,-1.5945 -1.0811,-0.66812 c -0.5946,-0.36747 -1.9062,-2.02506 -2.9148,-3.68353 C 22.1935,307.1079 17.5967,301.6445 12.987,296.62549 8.3772,291.60647 3.5694,285.79979 2.3028,283.72176 L 0,279.94353 1.0026,278.72176 2.0052,277.5 l 0.7405,-5.98094 0.7404,-5.98094 5.106,-4.80541 5.1059,-4.80541 3.1013,-1.35051 3.1014,-1.35051 2.0493,-2.86314 2.0493,-2.86314 8.2331,-6 c 4.5282,-3.3 10.9854,-8.05064 14.3493,-10.55698 3.364,-2.50633 10.023501,-6.90573 14.798901,-9.77643 4.775499,-2.8707 10.695599,-6.10986 13.155799,-7.19813 2.4602,-1.08827 8.228,-3.04877 12.8173,-4.35665 4.5894,-1.30789 13.6082,-3.58453 20.0418,-5.05921 l 11.6976,-2.68123 3.2105,-2.18569 c 1.7658,-1.20212 4.0559,-3.32763 5.0891,-4.72334 l 1.8787,-2.53766 -2.0367,-12.6958 c -1.1202,-6.98269 -2.0367,-13.26905 -2.0367,-13.9697 l 0,-1.2739 5.5,-6.3064 5.5,-6.30639 0,-1.87723 0,-1.87723 1.0163,-0.62811 1.0163,-0.62812 -0.5753,-0.9309 -0.5754,-0.9309 0.9231,0 0.9231,0 0.6371,-4.6476 0.637,-4.64759 5.6597,-12.34293 5.6596,-12.34292 5.9877,-7.06072 5.9876,-7.060719 5.511,-3.94635 5.511,-3.94635 1.6854,-2.752411 1.6853,-2.75241 11.4052,-7.13989 c 6.2729,-3.92694 13.6553,-8.31845 16.4053,-9.75892 2.75,-1.44047 5.675,-3.002 6.5,-3.47007 0.825,-0.46807 4.094,-2.15156 7.2644,-3.74108 3.1705,-1.58952 9.4873,-5.59004 14.0374,-8.89004 4.5501,-3.3 9.1561,-6.55535 10.2355,-7.23411 1.0795,-0.67876 3.7627,-2.30474 5.9627,-3.6133 2.2,-1.30856 10.075,-5.79366 17.5,-9.96691 7.425,-4.17324 17.3913,-9.40976 22.1473,-11.6367 C 294.1014,15.82204 298.5127,14 299.1484,14 c 0.6356,0 2.7918,-1.11174 4.7914,-2.47053 l 3.6357,-2.47052 5.0612,-1.06132 c 2.7837,-0.58372 13.2964,-2.62199 23.3615,-4.52947 L 354.2984,0 l 3.6998,0.0119 c 2.0349,0.007 6.1508,0.66415 9.1465,1.46138 2.9957,0.79724 8.689,1.94099 12.6518,2.54168 l 7.205,1.09216 11.8482,4.32132 c 6.5166,2.37672 14.9983,5.43948 18.8483,6.80614 3.85,1.36666 9.25,3.26461 12,4.21768 2.75,0.95306 7.475,2.62726 10.5,3.72045 3.025,1.09319 6.1314,2.10054 6.9031,2.23858 0.7717,0.13803 4.2935,2.68946 7.8261,5.66985 l 6.4229,5.41889 4.9238,6.22842 c 2.7082,3.42564 9.9451,11.51782 16.0821,17.98264 l 11.1581,11.75421 4.9046,6.74326 4.9047,6.74327 5.6873,5.084591 c 3.128,2.79653 10.2736,8.212179 15.8791,12.034789 l 10.1918,6.95018 6.9713,7.73932 c 3.8343,4.25663 8.9349,10.66432 11.3348,14.23932 2.3999,3.575 6.264,9.67705 8.5869,13.56011 l 4.2234,7.06012 0,1.61432 c 0,0.88789 1.3596,5.13583 3.0214,9.43989 1.6618,4.30406 4.8084,11.5378 6.9925,16.07499 l 3.9709,8.24942 5.4302,7.25058 c 2.9866,3.98781 10.3025,12.32584 16.2576,18.52894 5.9551,6.2031 13.5274,14.26395 16.8274,17.913 3.3,3.64904 8.025,8.5768 10.5,10.95058 l 4.5,4.31595 5.2956,1.19039 5.2957,1.1904 0.7043,1.08065 c 0.3874,0.59436 0.7044,2.20566 0.7044,3.58066 l 0,2.5 2.1508,0.30655 2.1508,0.30655 3.7694,-3.30655 3.7694,-3.30655 3.3605,-5.25 3.3605,-5.25 2.3344,0 2.3345,0 2.7095,2.13132 2.7095,2.13133 1.0496,2.61867 c 0.5772,1.44028 1.8936,4.86233 2.9253,7.60456 l 1.8758,4.98589 0,3.2051 0,3.2051 1.0587,0.65432 1.0587,0.65433 3.8079,-2.63887 c 2.0943,-1.45138 4.8464,-3.74427 6.1156,-5.09531 1.2692,-1.35104 2.6793,-2.45644 3.1334,-2.45644 l 0.8257,0 0,1.5728 0,1.57281 3.6711,-3.02606 3.6711,-3.02605 0.8432,0.5211 c 0.4637,0.2866 1.7629,2.32394 2.887,4.52742 l 2.0439,4.00633 1.3868,-1.15094 1.3868,-1.15094 2.2957,0.32677 2.2956,0.32676 1.1992,2.51052 c 0.6595,1.38079 1.731,4.75579 2.381,7.5 0.65,2.74422 1.8371,7.01448 2.6379,9.48948 0.8008,2.475 1.8678,6.075 2.3712,8 0.5034,1.925 1.1758,6.0875 1.4943,9.25 l 0.5791,5.75 0.8453,0 0.8454,0 1.7213,-4.50736 1.7214,-4.50736 1.3218,1.09701 1.3218,1.09701 0.6687,5.91035 0.6687,5.91035 1.0097,0 1.0098,0 -0.5391,5.94511 -0.5391,5.94512 -3.3809,7.00785 -3.3809,7.00786 3.0311,0.29703 3.0311,0.29703 -4.25,2.88289 c -2.3375,1.58558 -4.25,3.24426 -4.25,3.68593 0,0.44168 3.825,3.37464 8.5,6.51768 l 8.5,5.71462 0,1.01555 c 0,0.55856 0.7875,1.90835 1.75,2.99955 0.9625,1.09119 4.5625,4.75217 8,8.1355 3.4375,3.38333 6.25,6.6066 6.25,7.16281 0,0.55621 1.35,2.30467 3,3.88547 l 3,2.87418 0,1.76322 0,1.76322 1.4298,0.80019 c 0.7865,0.44011 2.1337,2.14997 2.9939,3.79969 l 1.564,2.9995 0.01,3.02749 0.01,3.0275 1.4641,2.09033 1.4641,2.09033 3.0138,0.60276 3.0138,0.60277 6.4517,4.07457 6.4516,4.07458 11.3204,3.88413 11.3205,3.88412 15.5,2.50353 c 8.525,1.37695 18.425,2.92736 22,3.44537 3.575,0.51801 16.85,2.9953 29.5,5.50509 12.65,2.50978 28.4,5.46268 35,6.562 6.6,1.09931 17.33,2.74999 23.8445,3.66818 l 11.8446,1.66942 3.1554,-0.67559 c 1.7358,-0.37158 8.5558,-0.96201 15.1558,-1.31208 l 12,-0.63649 29.8046,0.30874 c 16.3925,0.16981 33.9425,0.64838 39,1.06349 l 9.1954,0.75476 -5,0.17291 -5,0.17291 1.6241,0.94883 1.6241,0.94884 16.6726,1.46108 16.6726,1.46109 29.7033,4.30967 29.7033,4.30967 -8,0.5 -8,0.5 7,1.24415 c 3.85,0.68429 10.825,1.68782 15.5,2.23007 4.675,0.54225 21.775,1.48765 38,2.10088 l 29.5,1.11498 31,-0.20764 c 17.05,-0.11421 46.975,-0.22791 66.5,-0.25268 l 35.5,-0.045 8,1.00467 8,1.00466 2.7772,-0.78503 2.7773,-0.78504 4.7227,1.40117 c 2.5976,0.77064 8.86,1.86928 13.9167,2.44142 5.0566,0.57213 10.3734,1.48871 11.8151,2.03684 l 2.6212,0.99659 4.9298,0 c 2.7114,0 11.3446,-0.64839 19.1849,-1.44088 l 14.2551,-1.44087 26.5,-1.11341 26.5,-1.11341 3.6096,-0.94646 3.6096,-0.94645 5.3555,1.01564 5.3554,1.01564 4.1007,1.9851 4.1006,1.9851 3.0028,0 c 1.6515,0 5.447,0.71586 8.4343,1.59079 2.9873,0.87493 5.859,1.99993 6.3815,2.5 l 0.95,0.90921 2.3136,0 c 1.2724,0 3.0949,0.40093 4.05,0.89095 0.955,0.49001 5.0146,1.67434 9.0212,2.63183 l 7.2849,1.74089 0.5061,-0.50611 0.5061,-0.50612 -4.291,-2.5867 -4.2909,-2.5867 1.2821,-0.039 c 0.7051,-0.0215 6.7801,2.32348 13.5,5.21098 6.7198,2.8875 12.3679,5.5875 12.5512,6 0.1834,0.4125 0.7792,0.75 1.3241,0.75 0.5449,0 6.2449,2.51259 12.6667,5.58354 6.4217,3.07094 12.3934,6.22733 13.2703,7.0142 l 1.5945,1.43067 5.8481,1.52324 5.8481,1.52324 3.4243,2.11634 c 1.8834,1.16399 5.3738,3.80362 7.7565,5.86585 l 4.3323,3.7495 5.7889,2.73861 c 3.1839,1.50623 9.3903,5.14975 13.792,8.09671 l 8.0031,5.3581 1.8909,0 1.8908,0 3.3257,2.05538 3.3257,2.05538 7.0824,8.02421 c 3.8953,4.41332 8.7354,10.2384 10.7558,12.94462 l 3.6734,4.92041 3.1977,0 3.1976,0 2.6299,3.25 c 1.4465,1.7875 4.8558,5.725 7.5764,8.75 2.7205,3.025 8.5581,9.456 12.9724,14.29111 4.4142,4.83512 9.1241,10.46012 10.4663,12.5 1.3421,2.03989 3.6986,5.1319 5.2365,6.87114 l 2.7963,3.16225 4.1492,2.05667 4.1493,2.05666 2.323,3.78108 c 1.2777,2.0796 6.1317,9.18109 10.7868,15.78109 4.6551,6.6 10.1801,13.97586 12.2778,16.39079 2.0976,2.41493 3.8139,4.94175 3.8139,5.61514 0,0.67339 0.9347,2.41261 2.0771,3.86492 1.1424,1.45231 3.6097,5.58102 5.483,9.1749 l 3.4059,6.53434 1.5648,6.20996 c 0.8607,3.41547 2.478,9.01653 3.5942,12.44679 l 2.0293,6.23685 3.0279,2.15608 3.028,2.15608 3.7857,7.82848 3.7858,7.82848 1.5795,8.77859 c 0.8687,4.82823 2.0428,13.43878 2.6091,19.13455 l 1.0297,10.35596 -0.035,14.64404 -0.035,14.64405 -1.3654,7.6558 -1.3654,7.65581 -1.5677,2.84419 c -0.8622,1.56431 -2.5625,4.8692 -3.7784,7.3442 l -2.2107,4.5 -0.036,5.5 c -0.02,3.025 0.2646,20.8 0.632,39.5 l 0.6681,34 1.2318,9.5 1.2318,9.5 -0.2685,8.79621 -0.2686,8.7962 2.4423,3.2038 2.4423,3.20379 2.6403,10.5 c 1.4521,5.775 3.5621,15.36475 4.6889,21.31055 1.1268,5.94581 2.4754,11.9331 2.9971,13.30511 0.5216,1.372 1.6152,7.98228 2.4301,14.68948 l 1.4818,12.19487 2.0754,7.5 c 1.1414,4.125 2.4547,9.805 2.9184,12.6222 0.4637,2.8171 1.3524,6.0738 1.975,7.2371 l 1.1319,2.1149 2.0571,17.7629 2.0571,17.7629 -1.0867,8 c -0.5976,4.4 -1.1058,10.25 -1.1293,13 l -0.043,5 -1.441,4 -1.4411,4 -0.015,3.7722 -0.015,3.7722 4.0133,7.9821 c 2.2074,4.3902 4.7326,10.1177 5.6117,12.7278 0.8791,2.6101 2.4481,6.5177 3.4867,8.6835 l 1.8883,3.9379 0,2.4837 0,2.4837 2.4889,6.2212 2.4889,6.2212 1.0631,6.8573 c 0.5847,3.7714 1.4793,10.0072 1.9881,13.8572 0.5088,3.85 1.3791,12.5656 1.9341,19.368 0.555,6.8025 0.8363,12.6525 0.6251,13 -0.2111,0.3476 -0.9096,6.482 -1.5522,13.632 -0.6426,7.15 -1.6305,15.159 -2.1953,17.7978 l -1.0269,4.7978 -1.7025,1.7022 c -0.9364,0.9362 -3.3266,5.3022 -5.3115,9.7022 -1.985,4.4 -5.1928,11.6 -7.1286,16 -1.9357,4.4 -3.8172,9.6263 -4.1811,11.6141 l -0.6617,3.6141 1.5858,4.6708 1.5858,4.6709 -0.1,4.715 c -0.055,2.5933 -0.4026,5.7977 -0.7728,7.1208 l -0.6732,2.4058 -1.6378,-1.6379 c -0.9009,-0.9008 -1.8176,-2.1769 -2.0372,-2.8357 l -0.3992,-1.1977 -1.6378,0.6284 -1.6377,0.6285 -1.4547,2.813 c -0.8001,1.5472 -1.6695,4.1759 -1.932,5.8417 l -0.4773,3.0286 -3.2155,6.3699 -3.2155,6.3699 0.6622,5.5899 c 0.3642,3.0744 1.0869,7.2311 1.6061,9.2371 l 0.9438,3.6472 1.7111,0.6566 1.7111,0.6566 -1.1673,0.7215 -1.1674,0.7214 0.9327,3.9748 c 0.513,2.1861 1.2114,9.1497 1.552,15.4747 l 0.6192,11.5 -2.1439,10 c -1.1791,5.5 -2.8545,13.9815 -3.7231,18.8478 l -1.5793,8.8479 1.2825,2.3964 1.2825,2.3965 0.01,9.7557 c 0.01,5.3656 -0.3264,12.0057 -0.7379,14.7557 l -0.7483,5 5.5821,10.9095 5.582,10.9094 0.6361,5.4123 0.6361,5.4123 2.3539,-0.5908 2.3539,-0.5908 -0.01,3.269 c 0,1.798 -0.5249,6.1941 -1.1572,9.7691 -0.6323,3.575 -1.1764,7.625 -1.209,9 l -0.059,2.5 -0.8937,0.6272 -0.8937,0.6271 1.3178,8.8729 1.3177,8.8728 0.043,23.5 0.043,23.5 1.4164,3.6547 1.4165,3.6548 1.0835,-0.4051 1.0836,-0.4052 1.1383,2.4631 1.1383,2.463 -4.4689,9.1418 -4.469,9.1419 -5.2259,5.3955 -5.226,5.3955 -2.122,0 -2.1219,0 -1.6877,-1.6876 -1.6876,-1.6877 -5.1338,2.8449 c -2.8236,1.5647 -9.4516,5.6991 -14.7289,9.1876 -5.2773,3.4886 -9.8898,6.3428 -10.25,6.3428 -0.3602,0 -0.6549,-0.9 -0.6549,-2 l 0,-2 -1.4503,0 -1.4503,0 -0.8207,1.4665 -0.8207,1.4665 -7.5675,-2.4031 c -4.1621,-1.3217 -10.6776,-2.9337 -14.479,-3.5822 -3.8013,-0.6485 -8.9365,-1.2377 -11.4115,-1.3093 l -4.5,-0.1303 -4.3265,1.4313 -4.3264,1.4312 -0.7964,-1.2886 -0.7964,-1.2885 -2.3771,1.2384 c -1.3075,0.6811 -3.7879,2.7526 -5.5121,4.6033 l -3.1348,3.3648 -1.8652,-0.015 z m -9.1741,-112 1.691,0.015 0.618,-1 0.618,-1 -0.809,0.015 c -0.4449,0.01 -1.484,0.4515 -2.309,0.9847 l -1.5,0.9694 1.691,0.015 z m -935.132,-193.9847 1.059,0 -0.618,-1 c -0.3399,-0.55 -0.8165,-1 -1.059,-1 -0.2426,0 -0.441,0.45 -0.441,1 l 0,1 1.059,0 z m -298,-146 0.941,0 0,-1.441 c 0,-0.7925 -0.4189,-1.6999 -0.9309,-2.0163 l -0.9309,-0.5753 -0.6281,1.0163 -0.6282,1.0163 0.6181,1 c 0.3399,0.55 1.0415,1 1.559,1 z m -86.941,-199.99997 1,0 -0.618,-1 c -0.3399,-0.55 -1.0681,-1 -1.6181,-1 l -1,0 0.6181,1 c 0.3399,0.55 1.068,1 1.618,1 z m -84.0014,-161.99999 0.8834,0 0,-5.94098 0,-5.94099 -0.8952,-0.55327 -0.8953,-0.55327 -0.6047,1.57604 c -0.3327,0.86683 -0.5987,2.77674 -0.5912,4.24426 0.01,1.46751 0.285,3.68071 0.6167,4.91821 l 0.6029,2.25 0.8834,0 z m -0.1166,-15 0.9693,-1.5 0.015,-4.69098 0.015,-4.69099 -1,-0.61803 -1,-0.61803 0.015,6.80901 0.015,6.80902 0.9695,-1.5 z m -118.2942,-281 2.4608,0 -0.3985,-1.19548 -0.3984,-1.19548 -2.8846,-0.77145 c -1.5865,-0.4243 -3.0838,-0.57221 -3.3274,-0.32869 -0.2435,0.24352 0.1265,1.12864 0.8222,1.96693 l 1.265,1.52417 2.4609,0 z"
     id="path2989"
     inkscape:connector-curvature="0" />
</svg>
