<?xml version="1.0" encoding="UTF-8" standalone="no"?>
<!-- Created with Inkscape (http://www.inkscape.org/) -->

<svg
   xmlns:dc="http://purl.org/dc/elements/1.1/"
   xmlns:cc="http://creativecommons.org/ns#"
   xmlns:rdf="http://www.w3.org/1999/02/22-rdf-syntax-ns#"
   xmlns:svg="http://www.w3.org/2000/svg"
   xmlns="http://www.w3.org/2000/svg"
   xmlns:sodipodi="http://sodipodi.sourceforge.net/DTD/sodipodi-0.dtd"
   xmlns:inkscape="http://www.inkscape.org/namespaces/inkscape"
   id="svg2"
   version="1.1"
   inkscape:version="0.48.2 r9819"
   width="2056.2461"
   height="1465.9473"
   sodipodi:docname="Dog,BullTerrier.png">
  <metadata
     id="metadata8">
    <rdf:RDF>
      <cc:Work
         rdf:about="">
        <dc:format>image/svg+xml</dc:format>
        <dc:type
           rdf:resource="http://purl.org/dc/dcmitype/StillImage" />
        <dc:title></dc:title>
      </cc:Work>
    </rdf:RDF>
  </metadata>
  <defs
     id="defs6" />
  <sodipodi:namedview
     pagecolor="#ffffff"
     bordercolor="#666666"
     borderopacity="1"
     objecttolerance="10"
     gridtolerance="10"
     guidetolerance="10"
     inkscape:pageopacity="0"
     inkscape:pageshadow="2"
     inkscape:window-width="1600"
     inkscape:window-height="876"
     id="namedview4"
     showgrid="false"
     fit-margin-top="0"
     fit-margin-left="0"
     fit-margin-right="0"
     fit-margin-bottom="0"
     inkscape:zoom="0.5"
     inkscape:cx="1043.795"
     inkscape:cy="562.98923"
     inkscape:window-x="0"
     inkscape:window-y="24"
     inkscape:window-maximized="1"
     inkscape:current-layer="svg2" />
  <path
     style="fill:#000000"
     d="m 1407.6357,1463.5077 c -0.7873,-1.7279 -2.7017,-2.9489 -6.4934,-4.1416 -5.1563,-1.6218 -5.4621,-1.6142 -7.4506,0.1854 -1.5149,1.371 -4.0033,1.974 -9.2361,2.2383 -13.4272,0.678 -23.7865,-2.5642 -31.293,-9.7938 -3.0256,-2.914 -4.7209,-3.7538 -7.7871,-3.8574 -5.6574,-0.1912 -13.2704,-2.9709 -15.339,-5.6007 -0.9811,-1.2473 -3.2872,-5.2296 -5.1245,-8.8494 l -3.3407,-6.5816 -0.4051,-18.7808 c -0.2229,-10.3294 -0.8718,-20.5134 -1.442,-22.6311 -0.5703,-2.1177 -2.5227,-5.5123 -4.3387,-7.5437 -6.212,-6.9485 -9.2092,-15.2982 -6.952,-19.367 1.7649,-3.1813 1.6784,-9.1349 -0.1978,-13.6084 -0.9408,-2.2432 -1.3233,-4.9861 -0.9645,-6.9152 0.8523,-4.5828 -1.6914,-9.9071 -5.9272,-12.4063 -1.9519,-1.1517 -3.549,-2.4507 -3.549,-2.8868 0,-0.436 -1.0607,-1.059 -2.3572,-1.3844 -1.2964,-0.3254 -4.2664,-2.663 -6.6,-5.1946 -3.4675,-3.7618 -4.1324,-5.0899 -3.6381,-7.2668 0.3327,-1.4651 0.8907,-5.0263 1.24,-7.9138 0.3493,-2.8875 1.0732,-5.25 1.6087,-5.25 0.5355,0 0.7586,-1.4625 0.4959,-3.25 -0.7428,-5.0538 1.2405,-19.0345 2.9757,-20.9766 1.1819,-1.3228 1.774,-6.0006 2.5318,-20 1.8169,-33.5694 1.1103,-58.4144 -1.9987,-70.2734 -0.9213,-3.5144 -1.6789,-11.1782 -1.8287,-18.5 -0.3217,-15.7307 -1.4795,-31.1941 -2.4332,-32.5 -0.4016,-0.55 -0.7896,-9.7437 -0.8622,-20.4303 -0.072,-10.6867 -0.6231,-28.6867 -1.2235,-40 -0.6003,-11.3134 -1.2488,-24.3947 -1.441,-29.0697 -0.1923,-4.675 -0.8523,-14.35 -1.4667,-21.5 -0.6144,-7.15 -1.3441,-15.925 -1.6215,-19.5 -0.2774,-3.575 -0.9389,-8.075 -1.4701,-10 -0.8537,-3.094 -1.8174,-7.4829 -4.9405,-22.5 -0.4575,-2.2 -1.7484,-6.475 -2.8686,-9.5 -2.1238,-5.73486 -2.7544,-13.91376 -1.1991,-15.55 0.4967,-0.5225 1.0592,-3.01256 1.25,-5.53346 l 0.347,-4.58346 -12.5,-0.0247 c -6.875,-0.0136 -19.25,-0.52321 -27.5,-1.13251 -8.25,-0.6093 -19.275,-1.35473 -24.5,-1.65652 -5.225,-0.30178 -13.6956,-1.2232 -18.8235,-2.04759 -5.128,-0.8244 -9.6826,-1.27702 -10.1214,-1.00583 -1.0136,0.62646 -27.6826,-4.49384 -44.0551,-8.45834 -6.875,-1.66474 -13.4859,-3.02248 -14.691,-3.0172 -1.205,0.005 -2.4475,-0.40546 -2.761,-0.91275 -0.3135,-0.5073 -3.8276,-1.64868 -7.809,-2.53641 -7.4418,-1.65927 -51.869,-15.86853 -54.9754,-17.58293 -0.9551,-0.52707 -2.4063,-0.95831 -3.2249,-0.95831 -1.5881,0 -14.0309,-6.39779 -16.5387,-8.50376 -0.825,-0.69283 -2.4575,-1.55076 -3.6277,-1.90654 -1.1703,-0.35577 -3.4203,-1.76735 -5,-3.13686 -1.5798,-1.3695 -4.6723,-3.67704 -6.8723,-5.12786 -2.2,-1.45082 -5.233,-3.4776 -6.74,-4.50395 -1.507,-1.02635 -4.3161,-2.41845 -6.2424,-3.09356 -1.9264,-0.67511 -6.54342,-4.00116 -10.26002,-7.39122 -3.7167,-3.39007 -9.5701,-8.49151 -13.0076,-11.33655 -3.4375,-2.84504 -6.25,-5.52265 -6.25,-5.95025 0,-0.4276 -1.9125,-2.06073 -4.25,-3.62919 -4.8866,-3.2789 -7.75,-5.94775 -7.75,-7.22346 0,-1.45665 -3.5272,-4.1968 -5.4023,-4.1968 -0.9596,0 -3.9712,-2.25 -6.6924,-5 -2.7212,-2.75 -5.6176,-5 -6.4363,-5 -0.8187,0 -2.2717,-0.93613 -3.2288,-2.08028 -2.1911,-2.61935 -21.4057,-15.66418 -25.0331,-16.9951 -1.4889,-0.54628 -5.2451,-2.32779 -8.3471,-3.95893 -3.102,-1.63112 -6.5993,-2.96568 -7.7719,-2.96568 -1.1726,0 -5.1596,-1.40804 -8.8601,-3.12897 -4.3906,-2.04195 -8.0319,-3.05753 -10.4812,-2.92331 -2.0642,0.11313 -6.3392,-0.67006 -9.5,-1.74041 -3.1607,-1.07035 -7.0429,-2.25314 -8.627,-2.62842 -2.6636,-0.63104 -2.8236,-0.50931 -2.1284,1.61939 1.3534,4.14393 1.796,41.82679 0.5967,50.80172 -2.3936,17.91265 -3.2694,23.18906 -4.5275,27.27619 -0.7151,2.32309 -2.1063,7.82381 -3.0916,12.22381 -0.9854,4.4 -2.5895,9.575 -3.5648,11.5 -0.9753,1.925 -1.9897,4.85 -2.2543,6.5 -0.2647,1.65 -1.4391,5.7 -2.61,9 -1.1709,3.3 -3.2201,10.59384 -4.5537,16.20852 -1.3336,5.61469 -3.1135,11.85715 -3.9555,13.87213 -0.8419,2.01498 -1.5307,4.53333 -1.5307,5.59634 0,1.06301 -0.9246,4.04555 -2.0546,6.62787 -1.13,2.58233 -2.4442,5.59514 -2.9203,6.69514 -0.4761,1.1 -2.0093,4.60417 -3.407,7.78705 -1.3978,3.18287 -2.8406,7.45787 -3.2064,9.5 -0.3658,2.04212 -1.2001,4.38795 -1.854,5.21295 -0.654,0.825 -2.4715,4.875 -4.0389,9 -1.5674,4.125 -4.5754,11.2391 -6.6843,15.8092 -2.109,4.5701 -3.8345,9.6383 -3.8345,11.2627 0,1.6244 -0.9,6.2012 -2,10.1707 -1.1,3.9694 -2,8.4372 -2,9.9283 0,1.4911 -0.3858,2.9495 -0.8573,3.2409 -0.4714,0.2914 -1.1309,2.8406 -1.4654,5.6649 -0.3345,2.8243 -0.9816,5.6499 -1.4381,6.2792 -0.4565,0.6292 -1.8371,3.6642 -3.0681,6.7442 -3.0756,7.6957 -3.5523,27.4508 -0.8783,36.3999 4.1088,13.751 9.8164,30.7083 12.7904,38 0.4487,1.1 1.7577,5.6 2.9089,10 1.1513,4.4 2.5508,9.0926 3.1102,10.4279 0.5593,1.3354 1.4372,4.7104 1.9508,7.5 0.5136,2.7897 1.5644,6.6471 2.335,8.5721 5.8764,14.6784 8.9108,22.7842 11.6051,31 2.6455,8.0668 3.7484,10.0612 7.3111,13.2202 3.4413,3.0512 4.9717,3.7255 8.5114,3.75 2.3737,0.016 5.1201,-0.4007 6.1032,-0.9268 1.1476,-0.6142 4.2562,-0.5848 8.6843,0.082 13.7979,2.0778 23.6712,6.0132 24.9146,9.9308 0.3336,1.0511 2.3614,3.6835 4.5062,5.8498 4.1296,4.1711 6.6615,10.0653 9.9203,23.094 1.7713,7.0816 2.4189,11.1362 2.1664,13.5648 -0.1496,1.4385 -6.7514,4.5103 -8.3637,3.8916 -0.7085,-0.2719 -5.8268,-0.8308 -11.3739,-1.2419 -7.517,-0.5572 -10.3788,-0.4338 -11.2368,0.4847 -0.6332,0.6778 -1.7103,1.0225 -2.3937,0.766 -0.6835,-0.2564 -2.2815,1.0628 -3.5512,2.9317 -2.6199,3.856 -3.6316,4.1278 -20.5975,5.5321 -7.3406,0.6076 -11.7542,0.5599 -13.5,-0.1459 -1.4267,-0.5767 -4.016,-0.9775 -5.7542,-0.8906 -3.5362,0.1769 -17.0931,-4.8603 -22.0989,-8.2109 -1.7925,-1.1999 -3.6562,-3.5316 -4.1415,-5.1816 -0.4853,-1.65 -1.1892,-3.7481 -1.5643,-4.6625 -0.4676,-1.1403 -0.109,-1.793 1.1416,-2.0779 1.1825,-0.2693 0.3002,-0.8487 -2.5102,-1.6485 -3.0825,-0.8772 -4.1741,-1.6486 -3.7814,-2.6721 0.3037,-0.7915 0.122,-1.439 -0.4038,-1.439 -0.5259,0 -2.1143,-1.8347 -3.5299,-4.0771 -1.4156,-2.2425 -4.0297,-5.505 -5.8092,-7.25 -3.2446,-3.182 -3.4011,-3.6467 -6.5981,-19.5908 -0.5975,-2.9799 -2.4457,-8.0931 -4.1072,-11.3627 -1.6615,-3.2696 -3.6782,-8.4815 -4.4815,-11.5821 -0.8033,-3.1005 -2.0218,-6.0873 -2.7079,-6.6373 -0.6861,-0.55 -1.3994,-1.9 -1.5852,-3 -0.4874,-2.8853 -4.0138,-13.4515 -5.748,-17.2225 -0.8151,-1.7724 -2.3733,-6.7224 -3.4626,-11 -1.0893,-4.2776 -2.5968,-9.1275 -3.3499,-10.7775 -0.7531,-1.65 -2.8293,-7.05 -4.6138,-12 -1.7845,-4.95 -3.5825,-9.45 -3.9955,-10 -0.4131,-0.55 -2.2116,-4.375 -3.9968,-8.5 -1.7852,-4.125 -4.688,-9.525 -6.4506,-12 -1.7625,-2.475 -3.7796,-5.9476 -4.4824,-7.7168 -0.7028,-1.7693 -1.9658,-3.7879 -2.8068,-4.4859 -0.841,-0.6979 -2.3902,-3.2778 -3.4426,-5.7331 -1.0524,-2.4552 -3.9159,-6.6048 -6.3634,-9.2213 -2.6336,-2.8156 -4.4498,-5.7088 -4.4498,-7.0886 0,-1.2823 -0.9868,-4.1141 -2.1928,-6.2929 -1.8928,-3.4193 -2.1893,-5.4776 -2.1668,-15.0421 0.024,-10.4186 0.2053,-11.4045 3.0276,-16.5 2.8646,-5.1719 4.2898,-7.8825 7.9761,-15.1693 1.1945,-2.3611 1.903,-8.0083 2.5904,-20.6477 0.8179,-15.03949 0.7241,-18.189 -0.6918,-23.23534 -0.9009,-3.21069 -1.6479,-8.98706 -1.6601,-12.83638 -0.012,-3.84931 -0.4407,-7.25747 -0.9523,-7.57368 -0.5117,-0.31622 -0.9303,-1.24993 -0.9303,-2.07493 0,-0.825 0.3724,-1.26988 0.8274,-0.98862 0.4551,0.28126 0.6847,-9.38066 0.5102,-21.47094 -0.2422,-16.78698 -0.6611,-22.64731 -1.7722,-24.79599 -0.8003,-1.54751 -1.7667,-5.24653 -2.1477,-8.22004 -0.381,-2.97351 -1.5967,-7.20499 -2.7015,-9.40329 -1.1048,-2.1983 -2.6318,-6.66762 -3.3933,-9.93181 -0.7615,-3.2642 -2.2706,-7.3687 -3.3537,-9.12113 -1.0831,-1.75242 -1.9692,-3.79298 -1.9692,-4.53459 0,-0.7416 -1.2375,-5.35865 -2.75,-10.26012 -2.2188,-7.1905 -3.2329,-9.12078 -5.25,-9.99401 -1.375,-0.59524 -5.1123,-3.30363 -8.3052,-6.01864 -5.4142,-4.60386 -5.8431,-4.79177 -6.3667,-2.78958 -0.3087,1.18073 -0.918,2.14679 -1.3539,2.14679 -0.4359,0 -1.3173,3.2625 -1.9587,7.25 -0.6414,3.9875 -1.5658,9.05 -2.0543,11.25 -1.2637,5.6913 -2.3232,16.36194 -2.0518,20.66382 0.1301,2.06235 -0.5633,5.12207 -1.5863,7 -0.9996,1.8349 -1.9056,4.23618 -2.0134,5.33618 -1.1647,11.88957 -2.9311,17.41157 -10.9314,34.17296 -2.4081,5.04513 -4.3783,9.47566 -4.3783,9.84563 0,0.36997 -0.8344,1.86714 -1.8542,3.32704 -1.0198,1.4599 -2.1732,4.00437 -2.5632,5.65437 -0.6959,2.94488 -5.3581,10.67799 -6.8326,11.33333 -0.4125,0.18334 -0.7528,1.08334 -0.7562,2 0,0.91667 -0.6996,2.99663 -1.5472,4.62213 -0.8477,1.62551 -1.8192,5.00051 -2.159,7.5 -0.3398,2.4995 -1.1702,4.99454 -1.8453,5.54454 -0.6751,0.55 -2.2583,4.6 -3.5181,9 -1.2598,4.4 -3.3331,9.567 -4.6074,11.4821 -1.2742,1.9152 -2.3168,4.0702 -2.3168,4.7888 0,1.7414 -7.2395,17.6375 -8.2261,18.0624 -0.4256,0.1834 -0.7739,0.9387 -0.7739,1.6786 0,0.7399 -0.6344,1.9796 -1.4098,2.755 -0.7754,0.7754 -2.8995,3.845 -4.7203,6.8215 -1.8208,2.9764 -3.6781,5.8616 -4.1275,6.4116 -2.3666,2.8969 -11.7424,17.8686 -11.7424,18.7508 0,0.5658 -0.6285,1.5283 -1.3967,2.139 -0.7681,0.6106 -2.9569,4.0352 -4.8639,7.6102 -1.907,3.575 -4.3735,8.075 -5.481,10 -1.1076,1.925 -3.6661,6.3951 -5.6855,9.9335 -2.0194,3.5384 -5.2382,10.9338 -7.1527,16.4342 -1.9146,5.5004 -3.8656,10.4803 -4.3355,11.0665 -0.4699,0.5862 -2.4423,5.3408 -4.3831,10.5658 -2.6715,7.1926 -3.6986,11.8074 -4.2284,19 -0.3848,5.225 -1.5679,15.35 -2.629,22.5 -1.9161,12.9121 -4.2167,33.5822 -5.4647,49.0991 -0.4126,5.131 -0.21,9.9392 0.5531,13.1198 0.6624,2.7614 1.5697,8.3418 2.0163,12.4009 0.4465,4.0591 1.7657,10.637 2.9315,14.6175 1.1658,3.9806 2.1196,8.451 2.1196,9.9343 0,3.5748 3.7067,11.1011 6.0974,12.3805 1.0464,0.5601 1.9026,1.7158 1.9026,2.5684 0,0.8526 1.5782,2.9474 3.507,4.655 2.2252,1.97 3.3165,3.7051 2.9859,4.7469 -0.2949,0.9291 0.3995,2.4747 1.5994,3.5598 2.6491,2.3958 5.9077,8.6717 5.9077,11.378 0,1.1219 0.45,2.0398 1,2.0398 1.5586,0 1.1744,4.6103 -0.5,6 -2.0246,1.6802 -1.8876,3.2471 0.5272,6.0314 2.9231,3.3703 3.2584,5.7678 1.9686,14.0738 -3.7058,23.8649 -3.164,21.9683 -7.7146,27.0053 -5.4329,6.0136 -9.4266,5.1519 -10.5665,-2.2797 -0.8587,-5.5986 -3.3992,-8.8308 -6.941,-8.8308 -2.8984,0 -2.9774,-0.1226 -2.4189,-3.75 l 0.5775,-3.75 -1.4211,3 c -0.7815,1.65 -1.4413,4.0962 -1.4661,5.4361 -0.063,3.4295 -3.0022,14.7887 -5.0832,19.6485 -2.7627,6.4518 -10.9619,8.75 -10.9619,3.0725 0,-5.7827 -7.2444,-18.6571 -10.4984,-18.6571 -2.0095,0 -3.7615,4.5402 -3.0326,7.8589 1.1068,5.039 -0.081,7.1411 -4.0364,7.1411 -1.8879,0 -3.4326,-0.4154 -3.4326,-0.9231 0,-1.5218 -6.0952,-7.1361 -7.084,-6.525 -0.5038,0.3114 -0.9319,-0.2479 -0.9514,-1.2429 -0.059,-2.9998 -2.2344,-6.0009 -6.6874,-9.2249 -2.3226,-1.6815 -5.2302,-4.9758 -6.4614,-7.3207 -1.9809,-3.7726 -2.2107,-5.5296 -1.9961,-15.2634 0.1864,-8.4531 0.5938,-11.2652 1.7597,-12.1456 1.1699,-0.8833 1.3676,-2.2735 0.8635,-6.0732 -0.484,-3.6487 -0.2793,-5.3019 0.7886,-6.3698 0.7932,-0.7933 1.7689,-3.4603 2.1681,-5.9268 1.0217,-6.3127 1.4034,-8.4095 1.6355,-8.9846 0.111,-0.275 0.1424,-0.8557 0.07,-1.2905 -0.073,-0.4348 0.34,-1.6723 0.9168,-2.75 0.7394,-1.3816 0.7229,-2.5682 -0.056,-4.0234 -0.7112,-1.3288 -0.7638,-2.4864 -0.1477,-3.25 0.5263,-0.6524 1.2065,-2.9861 1.5115,-5.1861 0.3051,-2.2 1.0096,-6.7 1.5656,-10 0.9231,-5.4782 0.755,-12.9577 -0.4752,-21.1494 -0.2601,-1.7322 -1.5492,-4.7354 -2.8646,-6.6737 -1.7919,-2.6407 -2.6554,-5.8629 -3.4435,-12.8506 -1.7178,-15.2304 -1.8919,-19.8553 -0.8953,-23.7815 0.6846,-2.6971 0.4789,-6.3186 -0.7461,-13.1343 -0.9302,-5.1758 -2.2055,-15.3519 -2.8341,-22.6137 -0.6705,-7.7469 -1.6581,-13.7184 -2.3896,-14.45 -0.6858,-0.6857 -1.2468,-1.8763 -1.2468,-2.6457 0,-0.7693 -0.6491,-2.8168 -1.4425,-4.55 -3.6984,-8.0796 -5.7665,-17.8484 -5.9109,-27.9207 -0.1263,-8.8129 0.1966,-11.0617 2.3305,-16.2304 4.3409,-10.5144 7.4494,-15.7072 11.8639,-19.8193 3.9609,-3.6895 8.8274,-10.9779 10.1362,-15.1807 0.6851,-2.2 1.7966,-4.9 2.47,-6 2.537,-4.1443 3.9169,-12.4148 4.1712,-25 0.2757,-13.6479 0.5492,-16.3238 2.2184,-21.7023 0.5628,-1.8137 1.3171,-5.197 1.6762,-7.5183 0.359,-2.3213 1.4569,-5.2463 2.4396,-6.5 0.9827,-1.2537 2.1215,-3.8544 2.5307,-5.7794 0.4091,-1.925 1.8371,-6.875 3.1732,-11 2.0528,-6.33768 2.3505,-8.8173 1.9204,-16 -0.6735,-11.25024 -1.2056,-15.59496 -2.5716,-21 -0.6255,-2.475 -1.5582,-7.79293 -2.0726,-11.81762 -0.5144,-4.0247 -1.8015,-9.4247 -2.8602,-12 -2.4982,-6.07716 -3.5547,-13.89648 -2.1124,-15.63434 1.6148,-1.94571 4.016,-14.43966 3.9711,-20.66239 -0.053,-7.41122 -1.7719,-19.56955 -3.4466,-24.38565 -1.4207,-4.08586 -4.789,-21.78069 -8.5627,-44.983 -1.1613,-7.14065 -2.6821,-14.11565 -3.3795,-15.5 -0.6974,-1.38435 -1.072,-3.06515 -0.8325,-3.73512 0.2395,-0.66997 -0.4887,-4.94497 -1.6183,-9.5 -2.0487,-8.26119 -3.097,-25.34616 -1.6944,-27.61555 0.3964,-0.64148 0.3201,-1.16633 -0.1697,-1.16633 -0.8259,0 -2.5833,-5.54399 -3.9282,-12.39205 -0.4083,-2.07897 -0.2347,-2.68603 0.6176,-2.15926 0.8895,0.54974 1.0472,-0.976 0.6312,-6.10795 -0.676,-8.33777 -1.7486,-31.11218 -1.9471,-41.34074 -0.08,-4.125 0.6222,-14.09025 1.5605,-22.145 0.9384,-8.05475 1.4584,-15.59225 1.1557,-16.75 -0.3028,-1.15775 -0.084,-2.105 0.4865,-2.105 0.9261,0 1.6732,-4.6454 2.6184,-16.28135 0.169,-2.07974 0.5931,-4.06724 0.9425,-4.41667 0.3495,-0.34942 0.6354,-2.33376 0.6354,-4.40963 0,-2.07587 0.4034,-4.02364 0.8964,-4.32837 0.4931,-0.30473 1.4203,-3.56163 2.0604,-7.23754 0.6401,-3.67592 1.5775,-7.45636 2.0831,-8.40099 0.5055,-0.94462 1.1263,-3.67679 1.3795,-6.07147 1.0648,-10.06916 2.681,-14.35402 11.0719,-29.35398 1.846,-3.3 3.6485,-6.675 4.0055,-7.5 0.357,-0.825 1.1109,-2.35274 1.6752,-3.39499 0.8728,-1.6121 0.7503,-1.78919 -0.8208,-1.1863 -1.0157,0.38977 -4.0978,1.18258 -6.849,1.76179 -2.7512,0.57921 -5.5257,1.47327 -6.1655,1.98681 -0.6399,0.51353 -2.3774,1.15384 -3.8612,1.4229 -1.4838,0.26907 -3.3549,1.14634 -4.1581,1.9495 -1.5735,1.57353 -1.5855,1.57803 -5.3174,2.00261 -4.1582,0.47307 -25.0382,4.2389 -32.4473,5.85205 -4.7329,1.03046 -9.4427,1.32017 -14.776,0.9089 -8.5472,-0.65912 -40.582,1.57263 -41.3923,2.88364 -0.726,1.17481 -9.1498,1.00179 -9.8945,-0.20322 -0.3455,-0.55897 -1.0669,-0.74512 -1.6032,-0.41367 -0.978,0.6044 -24.7583,1.88189 -30.3867,1.63238 -27.9575,-1.23937 -50.086,-1.5763 -51.371,-0.78218 -1.7909,1.10685 -50.3012,2.05944 -89.629,1.76003 -23.1,-0.17586 -43.125,-0.31694 -44.5,-0.31352 -2.5557,0.006 -25.2881,-0.0915 -28,-0.12049 -0.825,-0.009 -3.3,0.0546 -5.5,0.14085 -2.2,0.0863 -11.425,-0.0998 -20.50004,-0.41351 -22.53647,-0.7791 -50.923177,-0.75203 -57.380177,0.0547 -4.36991,0.54598 -5.44177,0.37808 -5.94415,-0.9311 -0.68391,-1.78224 -4.82133,-2.1248 -7.61368,-0.63037 -1.17236,0.62742 -2.99227,0.61148 -5.18426,-0.0454 -3.62333,-1.08584 -24.06822,-2.11459 -40.37773,-2.03174 -11.52682979,0.0585 -13.4079698,-0.60148 -11.79618979,-4.13896 0.96102999,-2.10921 3.14488999,-2.88948 18.44314979,-6.5895 9.54417,-2.30834 18.56125,-4.18894 20.03794,-4.1791 1.4767,0.01 3.76671,-0.39341 5.08892,-0.89611 1.3222,-0.50271 12.489,-1.64899 24.8151,-2.5473 12.32613,-0.89831 31.411117,-2.30712 42.411117,-3.1307 11,-0.82358 24.5,-1.71243 30,-1.97523 5.5,-0.2628 14.05,-0.92408 19,-1.46951 4.95,-0.54543 11.7,-1.19883 15,-1.452 13.3493,-1.02415 27.8484,-2.49743 43.5,-4.42012 30.3898,-3.73316 33.4683,-4.12667 40.5,-5.17686 7.5476,-1.12725 31.0861,-2.6364 52,-3.33394 7.15,-0.23848 17.05,-0.87775 22,-1.42061 4.95,-0.54285 9.9,-0.98888 11,-0.99117 1.1,-0.002 4.7,-0.49578 8,-1.09664 3.3,-0.60085 9.6,-1.56708 14,-2.14717 4.4,-0.58009 9.575,-1.46798 11.5,-1.9731 1.925,-0.50512 10.025,-1.61698 18,-2.4708 7.975,-0.85381 17.65,-2.05341 21.5,-2.66578 3.85,-0.61236 8.4625,-1.04653 10.25,-0.96482 1.7875,0.0817 3.25,-0.30091 3.25,-0.85025 0,-0.54934 1.4625,-0.9589 3.25,-0.91014 3.2128,0.0876 9.9585,-1.12092 16.75,-3.00092 3.1167,-0.86275 9.5446,-2.09991 18.5,-3.56063 6.25,-1.01944 11.1943,-2.26049 17,-4.26707 3.3,-1.14057 7.8,-2.37191 10,-2.73631 4.3411,-0.71906 19.9802,-5.2892 22.4659,-6.56512 0.8438,-0.43308 4.1405,-1.31272 7.3262,-1.95475 3.1856,-0.64203 7.0106,-1.80304 8.5,-2.58003 1.4893,-0.77699 3.5783,-1.41548 4.6422,-1.41887 1.0638,-0.003 3.7638,-0.83129 6,-1.83979 2.2361,-1.0085 5.5051,-2.471 7.2644,-3.25 3.3658,-1.49036 10.4726,-7.40819 20.9156,-17.41637 3.4433,-3.3 8.7831,-8.025 11.8662,-10.5 3.083,-2.475 7.2737,-5.88015 9.3125,-7.56701 2.0389,-1.68685 5.282,-3.85529 7.207,-4.81876 1.925,-0.96346 6.2,-3.50563 9.5,-5.64927 3.3,-2.14363 8.025,-4.80778 10.5,-5.92034 2.475,-1.11255 5.175,-2.48099 6,-3.04098 3.8856,-2.63743 14.3565,-6.82135 22.6004,-9.03054 4.2349,-1.13487 8.5027,-2.49309 9.484,-3.01825 0.9813,-0.52517 2.8188,-0.95485 4.0834,-0.95485 1.2646,0 5.0067,-1.3209 8.3157,-2.93532 3.3091,-1.61443 7.8165,-3.67455 10.0165,-4.57805 5.7971,-2.38076 23.3369,-6.70544 24.4374,-6.02535 0.5155,0.31863 3.553,-0.28259 6.75,-1.33603 11.4623,-3.77699 25.8756,-6.47892 33.198,-6.22332 1.862,0.065 3.9798,-0.37509 4.7062,-0.97797 0.7265,-0.60288 1.8334,-0.77932 2.46,-0.3921 0.6265,0.38722 2.1087,0.24946 3.2938,-0.30613 2.7403,-1.28475 32.3336,-3.54213 33.883,-2.58459 1.4572,0.9006 13.0084,1.47849 27.1111,1.35634 5.9617,-0.0516 11.3617,0.33695 12,0.86351 0.6383,0.52657 9.4855,1.92631 19.6605,3.11055 10.175,1.18423 21.2,2.82122 24.5,3.63774 3.3,0.81652 10.6871,2.13632 16.4158,2.93289 5.7287,0.79657 11.8037,1.88857 13.5,2.42666 3.3582,1.06528 20.9205,4.36183 32.0842,6.02241 3.85,0.57267 9.025,1.45726 11.5,1.96574 2.475,0.50848 8.1,1.4336 12.5,2.05581 4.4,0.62222 9.575,1.53471 11.5,2.02777 1.925,0.49306 7.325,1.59872 12,2.45704 4.675,0.85831 9.4,1.98628 10.5,2.50659 1.1,0.52032 5.6,2.1011 10.00002,3.51286 4.4,1.41176 8.9,2.94667 10,3.41091 4.7195,1.99179 23.0411,6.42085 33.5,8.09827 4.125,0.66158 7.9829,1.59034 8.5731,2.06391 0.5901,0.47357 3.2901,1.12599 6,1.44981 4.6965,0.56125 12.2732,2.55855 17.224,4.54048 1.2633,0.50576 3.1819,0.91957 4.2635,0.91957 1.0816,0 2.7479,0.3975 3.703,0.88333 4.5702,2.32487 18.2834,7.11667 20.3666,7.11667 0.7836,0 7.1944,1.8 14.2461,4 13.2875,4.14543 18.2633,4.79843 21.8671,2.86973 1.1616,-0.62165 5.5163,-1.51206 9.6772,-1.97868 4.1608,-0.46662 7.7211,-1.31604 7.9116,-1.88758 0.6541,-1.96229 3.3106,-4.00111 5.9877,-4.59552 1.4741,-0.32728 4.9301,-1.42498 7.6801,-2.43932 10.2393,-3.7768 16.1872,-5.18173 23,-5.43271 3.85,-0.14184 8.2049,-0.58604 9.6776,-0.98713 1.4726,-0.40108 3.4029,-0.32333 4.2894,0.1728 2.563,1.43431 15.288,-1.58932 20.698,-4.91812 2.6354,-1.62158 5.1851,-2.70514 5.666,-2.40793 0.4809,0.29722 1.7282,-0.10588 2.7717,-0.89577 1.3155,-0.99575 4.8106,-1.46487 11.3973,-1.52979 14.6281,-0.14417 23.696,-1.45092 33.5,-4.8276 1.65,-0.56829 7.05,-2.26333 12,-3.76675 6.3795,-1.93759 11.2738,-4.28281 16.8094,-8.05456 4.2951,-2.92659 8.5701,-5.32344 9.5,-5.32633 0.9298,-0.003 3.0406,-0.83406 4.6906,-1.84702 2.3002,-1.41215 3.5241,-1.60705 5.2471,-0.83556 1.5507,0.69439 3.4459,0.64698 6.116,-0.15299 2.1279,-0.63754 5.0973,-1.15917 6.5985,-1.15917 2.7112,0 8.3229,-3.23898 9.8203,-5.66805 0.4301,-0.69762 2.3581,-2.01635 4.2846,-2.93052 1.9265,-0.91417 3.9739,-2.54274 4.55,-3.61904 3.0023,-5.60999 15.9552,-13.28222 24.3717,-14.43583 3.0307,-0.4154 6.8038,-2.1374 11.2826,-5.1493 6.7809,-4.55993 9.9262,-5.8366 22.7292,-9.22558 10.6558,-2.82062 10.6833,-2.82671 15.6477,-3.4655 3.9694,-0.51076 4.829,-1.03579 5.89,-3.59718 0.7693,-1.8572 2.5461,-3.54389 4.6664,-4.42984 1.8833,-0.78689 4.6649,-2.60173 6.1813,-4.03298 2.8521,-2.69196 7.2049,-5.50149 15.331,-9.89554 2.5941,-1.40267 6.9966,-4.57539 9.7834,-7.05048 2.7868,-2.47509 5.7269,-4.50016 6.5336,-4.50016 0.8066,0 1.4666,-0.45 1.4666,-1 0,-0.55 0.7585,-1 1.6856,-1 0.9271,0 3.8204,-1.8 6.4294,-4 2.6091,-2.2 5.2256,-4 5.8144,-4 0.5888,0 1.0706,-0.39541 1.0706,-0.87868 0,-0.48327 1.35,-1.43787 3,-2.12132 1.65,-0.68345 3,-1.58556 3,-2.00469 0,-0.41913 0.7875,-1.03057 1.75,-1.35876 0.9625,-0.32819 4.4288,-2.15654 7.7028,-4.063 3.2741,-1.90645 7.7106,-3.76325 9.8589,-4.12621 3.0162,-0.50958 5.5899,-2.25942 11.2972,-7.68076 4.0651,-3.86146 7.3911,-7.59642 7.3911,-8.2999 0,-0.70349 2.2691,-2.90926 5.0424,-4.90171 2.7734,-1.99245 5.2965,-4.28466 5.607,-5.0938 0.3105,-0.80915 0.9154,-1.47117 1.3442,-1.47117 1.3337,0 12.0064,-7.23879 12.0064,-8.14337 0,-0.47115 0.5748,-0.85663 1.2773,-0.85663 0.7025,0 2.4678,-1.2375 3.9228,-2.75 1.455,-1.5125 3.637,-3.65 4.8488,-4.75 2.948,-2.67584 5.902,-9.25271 5.9291,-13.20031 0.012,-1.76017 0.6212,-3.56017 1.3536,-4 0.7324,-0.43983 2.6449,-3.27469 4.25,-6.29969 1.6051,-3.025 3.6638,-6.32718 4.5749,-7.33817 1.2216,-1.35561 1.7466,-4.24337 2,-11 0.2911,-7.76375 0.7832,-9.99855 3.225,-14.64499 1.5849,-3.01574 4.1225,-6.61574 5.6391,-8 1.8189,-1.66007 3.7958,-5.58057 5.8073,-11.51684 4.3184,-12.74385 8.172,-25.82849 8.172,-27.74749 0,-0.89896 0.3981,-1.8805 0.8846,-2.1812 0.4865,-0.30069 1.1883,-2.68975 1.5594,-5.30901 0.3712,-2.61927 1.5345,-7.9123 2.5852,-11.7623 5.2091,-19.08739 6.8613,-43.363 3.1556,-46.36475 -1.1418,-0.92488 -1.3053,-1.50798 -0.5074,-1.80913 0.8665,-0.32704 0.9021,-1.23382 0.135,-3.434393 -0.9475,-2.718113 -3.3213,-11.055996 -7.3713,-25.891727 -1.7092,-6.260932 -4.2298,-12.02994 -5.8984,-13.5 -0.6243,-0.55 -1.7066,-2.8 -2.405,-5 -0.6985,-2.2 -1.7819,-5.04179 -2.4076,-6.3151 -1.3209,-2.68772 -0.062,-5.47912 2.7163,-6.0254 2.6012,-0.51139 6.5536,3.72425 6.5536,7.02329 0,2.51868 0.2083,2.7041 1.871,1.66572 1.4662,-0.91566 2.2403,-0.86341 3.5785,0.24153 5.6588,4.67252 18.5505,20.302304 18.5505,22.490512 0,0.68903 0.3375,1.402781 0.75,1.586115 1.0153,0.451242 5.25,6.549786 5.25,7.560706 0,0.444597 1.125,2.463944 2.5,4.487439 1.375,2.023494 2.5,4.516946 2.5,5.541005 0,1.024058 0.6952,2.735432 1.5449,3.803053 1.4227,1.787559 1.5108,1.387332 1.113,-5.05887 -0.6016,-9.750741 -3.3098,-24.95276 -5.6116,-31.5 -1.0634,-3.025 -2.2307,-7.075 -2.5938,-9 -0.6423,-3.40446 -3.9388,-11.30511 -8.9774,-21.51585 -3.2245,-6.5345504 -3.1232,-8.0143504 0.6785,-9.9109104 4.9016,-2.44523999 7.2474,-2.01559999 9.155,1.67676 2.3546,4.55755 3.6565,6.5457 7.9414,12.1268004 2.0625,2.68645 3.75,5.50067 3.75,6.25383 0,0.75315 0.4154,1.36937 0.923,1.36937 3.1777,0 14.0922,15.00539 15.6385,21.5 0.3928,1.65 1.0582,3.45 1.4786,4 0.9601,1.256164 2.9288,8.542409 3.4879,12.908881 0.2328,1.81867 1.1093,5.940217 1.9477,9.158994 0.8383,3.218777 1.5244,7.220278 1.5245,8.892224 2e-4,3.859241 2.5295,17.167131 4.0045,21.069741 0.6174,1.63359 2.275,4.17837 3.6837,5.65508 1.9964,2.09289 2.4113,3.28166 1.8818,5.39121 -0.5732,2.284 -0.053,3.30839 3.3367,6.56508 2.2087,2.12233 4.5957,3.86877 5.3045,3.88097 1.709,0.0294 7.7825,9.6272 7.8108,12.34317 0.022,2.07406 0.075,2.06545 1.8964,-0.30367 1.0307,-1.34107 1.6476,-3.02857 1.3708,-3.75 -0.2912,-0.75878 0.1989,-1.31168 1.1626,-1.31168 0.9163,0 1.4291,0.38344 1.1394,0.8521 -0.2896,0.46865 0.3588,2.5888 1.441,4.71144 l 1.9676,3.85934 0,-3.17625 c 0,-2.15281 0.6444,-3.52116 2,-4.24663 1.8464,-0.98818 2.0129,-0.74135 2.1681,3.21482 l 0.1681,4.28518 0.3923,-3.75 c 0.3043,-2.90961 0.8269,-3.75 2.3319,-3.75 1.9083,0 2.3295,0.87337 2.0069,4.16141 -0.216,2.20122 1.5664,3.23563 2.2965,1.33285 0.7442,-1.9392 2.6362,-1.93507 2.6362,0.006 0,0.825 0.45,1.5 1,1.5 0.55,0 1,-0.45 1,-1 0,-0.55 0.9,-1 2,-1 1.3333,0 2,0.66667 2,2 0,2.1153 0.082,2.1683 4,2.56835 5.1447,0.52537 13.2198,2.45595 20.5132,4.90427 4.1409,1.39006 8.6627,2.52738 10.0483,2.52738 1.3857,0 3.7388,0.86758 5.229,1.92796 1.4902,1.06038 5.4095,2.44689 8.7095,3.08113 3.3,0.63424 7.8,1.96639 10,2.96034 2.2,0.99395 6.475,2.92554 9.5,4.29243 3.025,1.36689 8.4205,2.80172 11.9901,3.18852 3.5696,0.38679 6.9446,1.05976 7.5,1.49548 0.5554,0.43572 3.4849,1.33252 6.5099,1.99288 13.2483,2.89213 18.6307,4.20477 20.5,4.99945 1.1,0.46764 4.1383,1.61036 6.7517,2.53938 2.6134,0.92902 5.3134,2.4802 6,3.44708 0.6866,0.96687 2.2823,2.30673 3.5462,2.97745 3.4811,1.84747 4.115,4.79629 4.2906,19.96027 0.089,7.65799 0.4524,14.39471 0.8082,14.9705 0.78,1.26203 7.8869,6.16713 8.9355,6.16713 0.4088,0 2.3014,1.33171 4.2056,2.95936 1.9042,1.62765 4.2299,2.97765 5.1682,3 0.9383,0.0223 4.0883,1.4649 7,3.20566 3.4603,2.06874 6.8527,3.24959 9.794,3.40918 2.475,0.1343 7.425,1.35419 11,2.71088 4.0871,1.55103 9.8409,2.72591 15.5,3.16499 4.95,0.38405 10.575,1.12836 12.5,1.65401 1.925,0.52565 8.225,1.37586 14,1.88935 14.0733,1.25135 33.5031,4.68257 45,7.94678 1.925,0.54655 4.4,0.95281 5.5,0.9028 2.1039,-0.0956 9.2638,2.24288 16,5.22586 2.2,0.97422 5.3259,2.06303 6.9464,2.41956 1.6205,0.35654 4.3418,2.12787 6.0474,3.9363 1.7056,1.80843 4.0285,3.78444 5.1621,4.39113 3.8884,2.08099 3.6527,18.36101 -0.2877,19.87308 -0.9215,0.35364 -1.0654,1.02975 -0.4522,2.12546 1.0227,1.8275 -0.9256,7.51491 -4.5959,13.41573 -1.2761,2.05157 -2.3201,4.1154 -2.3201,4.5863 0,0.47089 -2.0154,3.96733 -4.4786,7.76987 -4.0236,6.21131 -4.4812,7.52327 -4.5037,12.9137 -0.017,4.06663 -0.6282,6.98885 -1.8965,9.06878 -1.0293,1.68783 -2.2105,4.16283 -2.6249,5.5 -0.4145,1.33717 -2.6904,6.34149 -5.0576,11.12072 -3.5304,7.12735 -5.8816,10.22845 -13.0792,17.25 -4.8263,4.70827 -9.1212,8.5605 -9.5442,8.5605 -0.4231,0 -1.5038,1.1211 -2.4016,2.49133 -0.8978,1.37023 -5.0707,4.15367 -9.273,6.18542 -4.2024,2.03175 -7.8657,3.94815 -8.1407,4.25867 -1.1408,1.28812 -5.1008,3.06458 -6.8314,3.06458 -1.0223,0 -2.6358,0.85876 -3.5857,1.90835 -1.0522,1.16271 -3.5548,2.09616 -6.4049,2.38903 -2.5729,0.26437 -8.728,1.58314 -13.678,2.93058 -4.95,1.34745 -13.275,3.47721 -18.5,4.7328 -12.6647,3.04338 -20.1915,7.60411 -25.3717,15.3735 -3.0275,4.54071 -4.9899,6.31658 -9,8.14442 -7.1066,3.23928 -13.2443,4.00292 -16.2651,2.02365 -1.7944,-1.17572 -2.8698,-1.3016 -4.3504,-0.5092 -1.2412,0.66429 -2.6208,0.71313 -3.7398,0.13238 -6.327,-3.28373 -10.2899,-4.29845 -14.2044,-3.6371 -2.7214,0.45978 -4.6368,0.28493 -5.5956,-0.51082 -1.1298,-0.93761 -3.3161,-0.95077 -9.7154,-0.0584 -4.5417,0.6333 -9.1576,1.52536 -10.2576,1.98236 -1.1,0.45699 -3.125,1.32851 -4.5,1.9367 -2.8703,1.26958 -20.6902,3.30535 -27.7452,3.16963 -10.3683,-0.19946 -30.4531,5.26787 -32.6984,8.90093 -0.3186,0.51555 -1.8981,1.22701 -3.51,1.58103 -1.6118,0.35402 -4.7115,1.93377 -6.8882,3.51056 -2.1767,1.57679 -4.1555,2.669 -4.3974,2.42713 -0.2418,-0.24186 -1.2567,0.46301 -2.2553,1.56638 -0.9985,1.10337 -2.3726,2.00613 -3.0535,2.00613 -0.6809,0 -1.4844,0.64211 -1.7856,1.42692 -0.3011,0.7848 -2.4868,2.28667 -4.857,3.33748 -2.3702,1.05081 -4.927,2.6587 -5.6818,3.57308 -0.7549,0.91439 -2.1219,1.66252 -3.0378,1.66252 -0.916,0 -3.2234,1.33171 -5.1276,2.95936 -1.9042,1.62765 -4.2497,2.97765 -5.2122,3 -0.9784,0.0227 -1.7568,0.81223 -1.7653,1.79064 -0.013,1.45964 -0.1687,1.50751 -0.9397,0.28851 -0.7631,-1.20642 -1.2813,-1.00787 -2.9689,1.13762 -1.1245,1.42952 -3.1527,2.87725 -4.5071,3.2172 -1.3545,0.33995 -3.2586,1.96552 -4.2314,3.61238 -0.9729,1.64686 -2.3429,2.99429 -3.0445,2.99429 -1.9995,0 -7.23,6.00097 -6.6188,7.59373 0.3699,0.96391 0.061,1.24187 -0.9496,0.8541 -1.5985,-0.61339 -4.9288,3.3338 -6.1609,7.30217 -0.3842,1.2375 -1.0862,2.25 -1.56,2.25 -1.5456,0 -7.5483,6.39624 -10.3232,11 -5.6191,9.32249 -7.0932,11.25404 -7.9415,10.40581 -0.2744,-0.27442 -0.7957,0.68342 -1.1584,2.12854 -0.6836,2.72387 -5.5138,10.7137 -6.8307,11.29898 -0.4125,0.18334 -0.75,0.98667 -0.75,1.78519 0,0.79851 -0.6788,2.48783 -1.5084,3.75403 -1.3806,2.10694 -1.3382,2.45633 0.5,4.1198 1.1046,0.9997 2.0084,2.80573 2.0084,4.01341 0,3.21249 -2.0269,8.49424 -3.2598,8.49424 -0.5852,0 -4.5555,3.4875 -8.8228,7.75 -4.2673,4.2625 -9.4819,9.35645 -11.588,11.31988 -2.1062,1.96344 -6.2253,6.35297 -9.1536,9.75451 -6.5477,7.60596 -9.0907,9.21695 -9.8665,6.25043 -0.5822,-2.22632 -1.8078,-2.69524 -2.8093,-1.07482 -0.3399,0.55 -0.1415,1 0.441,1 3.4659,0 -1.2493,10.21565 -7.3501,15.92431 -1.425,1.33338 -2.5909,3.23175 -2.5909,4.21862 0,1.07663 -0.5287,1.59141 -1.3219,1.28705 -0.7544,-0.2895 -1.8184,0.58255 -2.4785,2.03138 -0.7503,1.64658 -1.9646,2.53864 -3.4557,2.53864 -3.3688,0 -6.7439,2.75143 -6.7439,5.49769 0,2.27588 -1.4401,3.95407 -3.4214,3.987 -1.2264,0.0204 -13.4552,15.65918 -13.5244,17.29586 -0.03,0.7043 -1.6277,2.66214 -3.551,4.35074 -1.9232,1.68861 -3.2657,3.44392 -2.9834,3.9007 0.2823,0.45677 -0.6306,2.51604 -2.0286,4.57615 -1.3981,2.06011 -2.7851,4.90355 -3.0823,6.31876 -0.5274,2.51103 -3.1848,8.07468 -4.3336,9.0731 -0.7556,0.65666 -2.8223,4.33063 -5.9065,10.5 -1.3748,2.75 -3.3072,5.57543 -4.2943,6.27874 -0.9871,0.70331 -2.0884,2.84473 -2.4475,4.7587 -0.3591,1.91398 -1.4188,4.48854 -2.355,5.72126 -2.0823,2.74199 -5.8272,16.75809 -5.9503,22.27068 -0.049,2.21616 -0.9971,5.90692 -2.1059,8.20169 -1.1087,2.29478 -2.0253,4.75656 -2.0369,5.47062 -0.012,0.71407 -1.1738,4.44831 -2.5826,8.29831 -1.4089,3.85 -3.0403,8.8 -3.6253,11 -0.5851,2.2 -1.5492,4.6181 -2.1424,5.37355 -0.5932,0.75546 -1.3908,3.90546 -1.7725,7 -0.3816,3.09455 -1.1546,7.65145 -1.7177,10.12645 -1.278,5.61696 -3.2185,16.29555 -3.8617,21.25 -0.2677,2.0625 -0.8992,3.75 -1.4032,3.75 -0.8571,0 -4.5072,7.31197 -8.2366,16.5 -0.893,2.2 -2.2536,6.7778 -3.0236,10.17288 -0.77,3.39509 -1.652,6.5808 -1.9602,7.07935 -0.3081,0.49856 -1.0416,4.02076 -1.6299,7.82712 -0.5883,3.80636 -1.5047,8.04565 -2.0364,9.42065 -0.5317,1.375 -1.4092,6.1 -1.9499,10.5 -2.5067,20.39795 -5.3276,39.90513 -7.881,54.5 -0.433,2.475 -1.3176,5.47795 -1.9657,6.67321 -0.6481,1.19527 -1.6606,4.57027 -2.2501,7.5 -1.0548,5.24292 -1.9411,8.33321 -5.8589,20.42957 -2.2571,6.96907 -6.0574,20.68629 -6.7591,24.39722 -0.26,1.375 -0.8448,3.4 -1.2995,4.5 -0.8877,2.1474 -3.7807,16.581 -5.0862,25.3759 -0.4389,2.9567 -1.2233,6.5567 -1.7431,8 -0.5198,1.4433 -1.5128,5.0657 -2.2067,8.05 -0.6939,2.9842 -2.0957,6.8395 -3.1151,8.5673 -3.8562,6.5357 -9.1268,25.3342 -10.3759,37.0068 -0.3531,3.3 -1.4952,8.925 -2.538,12.5 -1.0429,3.575 -2.3294,10.1 -2.859,14.5 -0.5296,4.4 -1.4238,10.025 -1.9872,12.5 -0.5634,2.475 -1.0599,7.875 -1.1033,12 -0.043,4.125 -0.7656,11.55 -1.6047,16.5 -2.6224,15.4696 -2.8049,21.1723 -0.9411,29.4127 5.7792,25.5519 8.0689,34.4951 9.5279,37.2142 0.4801,0.8948 1.1944,3.3698 1.5873,5.5 0.3928,2.1302 1.7231,6.1231 2.9562,8.8731 1.233,2.75 3.2637,8.825 4.5125,13.5 1.2488,4.675 2.9868,9.3399 3.8622,10.3664 2.5416,2.9804 9.2512,7.2414 13.5916,8.6315 2.2,0.7046 5.3204,1.7572 6.9341,2.3392 2.1864,0.7884 3.0359,0.7529 3.3334,-0.1395 0.2195,-0.6587 1.7117,-1.1976 3.3158,-1.1976 1.6042,0 2.9167,-0.4032 2.9167,-0.8959 0,-0.4928 3.6307,-1.2173 8.0683,-1.6101 7.0577,-0.6248 8.3416,-0.4812 10.25,1.1459 2.1517,1.8345 4.7844,3.4754 9.6817,6.0343 1.375,0.7185 5.6235,4.2357 9.4411,7.816 3.8176,3.5804 7.1042,6.5098 7.3034,6.5098 0.1993,0 1.9445,1.2375 3.8783,2.75 9.6665,7.5608 12.5427,24.9071 5.4302,32.75 -0.9975,1.1 -2.4088,3.6897 -3.136,5.7549 l -1.3223,3.7549 -6.1391,-0.4681 -6.1391,-0.4681 -3.3695,4.4972 c -1.8533,2.4734 -4.287,4.6861 -5.4083,4.917 -11.7065,2.411 -18.5021,2.508 -21.25,0.3034 -0.7895,-0.6335 -2.3678,-0.5902 -4.5327,0.1243 -4.1165,1.3586 -26.5769,-0.2703 -34.756,-2.5207 -3.025,-0.8322 -9.1,-3.2404 -13.5,-5.3514 -4.4,-2.1111 -10.2059,-4.1102 -12.902,-4.4425 -2.6961,-0.3324 -7.4546,-1.535 -10.5744,-2.6726 -4.8789,-1.7789 -5.865,-2.5831 -7.0488,-5.7483 -0.7569,-2.024 -1.2648,-4.2485 -1.1286,-4.9434 0.1362,-0.6948 -0.4485,-1.5305 -1.2993,-1.857 -0.8508,-0.3265 -1.5469,-1.6538 -1.5469,-2.9496 0,-1.2958 -0.9468,-4.7351 -2.1041,-7.643 -1.1572,-2.9078 -2.665,-7.087 -3.3507,-9.287 -0.6856,-2.2 -2.2626,-6.1358 -3.5043,-8.7463 -1.2417,-2.6105 -2.0191,-5.3682 -1.7274,-6.1282 0.2916,-0.76 0.036,-1.8759 -0.5679,-2.4799 -0.6039,-0.6039 -1.4358,-3.2463 -1.8485,-5.8718 -1.0608,-6.7473 -2.7013,-12.6006 -6.0185,-21.4732 -1.5832,-4.2347 -2.8786,-8.5376 -2.8786,-9.5622 0,-1.0245 -0.8521,-3.6348 -1.8936,-5.8006 -2.117,-4.4026 -6.3736,-16.636 -8.1124,-23.315 -1.8205,-6.9926 -3.015,-3.7319 -4.4588,12.1713 -0.7265,8.0026 -1.6035,15.0074 -1.9488,15.5662 -0.3454,0.5587 -1.0282,4.5312 -1.5174,8.8278 -0.4893,4.2965 -1.3207,9.6119 -1.8475,11.8119 -0.5269,2.2 -1.7756,10.1601 -2.7751,17.6891 -1.6141,12.1598 -1.6763,15.1204 -0.5569,26.5 0.6931,7.046 1.6291,16.8609 2.08,21.8109 0.7953,8.73 3.7348,20.0502 6.7062,25.8255 0.7996,1.554 1.8534,5.281 2.3418,8.2823 0.4885,3.0012 1.7721,6.5805 2.8524,7.9539 1.0803,1.3735 2.2617,4.258 2.6253,6.4102 0.3637,2.1521 1.301,4.444 2.083,5.093 0.782,0.649 1.4218,1.7301 1.4218,2.4026 0,0.6724 0.9,2.037 2,3.0325 1.1,0.9955 2,2.3368 2,2.9807 0,1.5486 3.6137,4.5924 8.212,6.9169 2.5971,1.3128 4.8174,1.697 7.3922,1.2792 2.6054,-0.4228 5.0094,0.01 8.2316,1.4762 4.8015,2.1873 10.1881,5.6691 11.3665,7.347 1.8906,2.692 12.2268,12.5029 13.1937,12.5232 0.6072,0.013 2.7831,1.5361 4.8354,3.3852 2.0523,1.8491 5.2735,3.6513 7.1582,4.0049 4.187,0.7855 15.147,10.8199 16.1262,14.7643 0.3656,1.4727 1.2991,2.9211 2.0744,3.2187 1.0472,0.4018 1.4098,2.558 1.4098,8.3838 0,6.5216 -0.345,8.2131 -2.0479,10.0409 -2.5244,2.7097 -5.3233,1.6176 -6.521,-2.5446 -0.6442,-2.2387 -0.9312,-1.308 -1.4817,4.8052 -0.7036,7.8144 -2.9391,12.9184 -5.658,12.9184 -0.8133,0 -1.7112,-0.8893 -1.9954,-1.9762 -0.4964,-1.8981 -9.296,-7.6884 -9.296,-6.1169 0,1.2876 -10.4277,6.1279 -14.586,6.7704 -2.1527,0.3327 -5.123,1.2132 -6.6007,1.9567 -2.8482,1.4332 -5.2061,1.0128 -8.0588,-1.4369 -1.5775,-1.3547 -1.9819,-1.2438 -4.2022,1.152 -3.1868,3.4386 -7.1942,3.5309 -8.7116,0.2006 z M 560.29498,1333.958 c 0.3399,-0.55 0.168,-1 -0.382,-1 -0.55,0 -1.2781,0.45 -1.618,1 -0.3399,0.55 -0.168,1 0.382,1 0.55,0 1.2781,-0.45 1.618,-1 z"
     id="path2987"
     inkscape:connector-curvature="0" />
</svg>
