<?xml version="1.0" encoding="UTF-8" standalone="no"?>
<!-- Created with Inkscape (http://www.inkscape.org/) -->

<svg
   xmlns:dc="http://purl.org/dc/elements/1.1/"
   xmlns:cc="http://creativecommons.org/ns#"
   xmlns:rdf="http://www.w3.org/1999/02/22-rdf-syntax-ns#"
   xmlns:svg="http://www.w3.org/2000/svg"
   xmlns="http://www.w3.org/2000/svg"
   xmlns:sodipodi="http://sodipodi.sourceforge.net/DTD/sodipodi-0.dtd"
   xmlns:inkscape="http://www.inkscape.org/namespaces/inkscape"
   id="svg2"
   version="1.1"
   inkscape:version="0.48.2 r9819"
   width="1899.7335"
   height="1506.5574"
   sodipodi:docname="Dog,Mastiff.png">
  <metadata
     id="metadata8">
    <rdf:RDF>
      <cc:Work
         rdf:about="">
        <dc:format>image/svg+xml</dc:format>
        <dc:type
           rdf:resource="http://purl.org/dc/dcmitype/StillImage" />
        <dc:title></dc:title>
      </cc:Work>
    </rdf:RDF>
  </metadata>
  <defs
     id="defs6" />
  <sodipodi:namedview
     pagecolor="#ffffff"
     bordercolor="#666666"
     borderopacity="1"
     objecttolerance="10"
     gridtolerance="10"
     guidetolerance="10"
     inkscape:pageopacity="0"
     inkscape:pageshadow="2"
     inkscape:window-width="1600"
     inkscape:window-height="876"
     id="namedview4"
     showgrid="false"
     fit-margin-top="0"
     fit-margin-left="0"
     fit-margin-right="0"
     fit-margin-bottom="0"
     inkscape:zoom="0.35355339"
     inkscape:cx="869.07357"
     inkscape:cy="746.74889"
     inkscape:window-x="0"
     inkscape:window-y="24"
     inkscape:window-maximized="1"
     inkscape:current-layer="svg2" />
  <path
     style="fill:#000000"
     d="m 210.57357,1506.0726 c -3.155,-2.7153 -11.5709,-4.3398 -21.09119,-4.0712 -13.35416,0.3766 -32.5385,-1.1435 -34.40881,-2.7265 -0.825,-0.6983 -3.75,-1.49 -6.5,-1.7594 -29.47489,-2.8872 -32.79102,-3.502 -41,-7.6011 -9.31614,-4.652 -21.56486,-13.6391 -22.98713,-16.8662 -0.54292,-1.2318 -1.48567,-2.2397 -2.09501,-2.2397 -1.9298,0 -4.22409,-3.3677 -4.94661,-7.261 -0.38389,-2.0686 -1.09696,-4.0077 -1.58461,-4.3091 -0.48765,-0.3013 -0.88664,-1.9035 -0.88664,-3.5603 0,-1.6569 -0.64259,-3.655 -1.42797,-4.4404 -3.83551,-3.8355 -2.41247,-26.1055 3.38216,-52.9292 1.34077,-6.2065 1.77595,-26.6941 0.84965,-40 -1.89292,-27.1906 -2.78797,-47.3948 -2.25932,-51 0.3749,-2.5567 0.0368,-5.3052 -0.93694,-7.6172 -1.89814,-4.5068 -2.45299,-21.8484 -0.8738,-27.31 0.71007,-2.4558 0.97872,-9.2007 0.71702,-18.0019 -0.42464,-14.2807 -1.01889,-18.7089 -3.83414,-28.5709 -0.86353,-3.025 -2.32922,-8.5375 -3.25709,-12.25 -0.92787,-3.7125 -2.01227,-6.75 -2.40976,-6.75 -0.3975,0 -1.01506,-1.9495 -1.37237,-4.3322 -0.35731,-2.3827 -1.46922,-5.8702 -2.47092,-7.75 -1.62153,-3.043 -3.19552,-9.7421 -3.6225,-15.4178 -0.0828,-1.1 -0.48282,-5.6 -0.88904,-10 -0.47419,-5.1363 -0.33058,-9.6108 0.40118,-12.5 0.62687,-2.475 1.09344,-6.1452 1.03683,-8.1561 -0.0848,-3.0133 0.81904,-4.7714 5.14116,-10 2.88424,-3.4891 5.65623,-6.5126 6.15996,-6.7189 0.86565,-0.3544 3.23789,-2.7785 5.99414,-6.125 0.67948,-0.825 2.53528,-3.525 4.124,-6 1.58872,-2.475 4.61189,-7.0465 6.71817,-10.1589 2.10627,-3.1125 3.82958,-6.1268 3.82958,-6.6985 0,-0.5718 1.125,-2.2535 2.5,-3.7371 1.375,-1.4837 2.5,-3.5095 2.5,-4.5018 0,-0.9924 0.5733,-2.1642 1.27401,-2.604 0.7007,-0.4398 2.03426,-1.9963 2.96346,-3.4588 0.9292,-1.4624 2.8309,-3.8906 4.22599,-5.396 1.3951,-1.5053 2.53654,-3.5447 2.53654,-4.5319 0,-0.9872 0.45,-2.0731 1,-2.413 0.55,-0.3399 1,-1.4915 1,-2.559 0,-1.0676 0.37848,-1.941 0.84107,-1.941 0.46259,0 2.06568,-2.25 3.56241,-5 1.49674,-2.75 3.42074,-5 4.27556,-5 1.04458,0 1.38827,-0.6346 1.04813,-1.9353 -0.27835,-1.0644 0.0216,-2.7519 0.66665,-3.75 0.64502,-0.9981 1.78369,-3.6147 2.5304,-5.8147 0.7467,-2.2 1.65968,-4.225 2.02884,-4.5 0.36916,-0.275 1.72443,-3.128 3.01173,-6.34 1.28729,-3.2119 2.94683,-6.0726 3.68787,-6.357 0.74104,-0.2843 1.34734,-1.8393 1.34734,-3.4554 0,-1.8011 0.96771,-3.9062 2.5,-5.4385 1.375,-1.375 2.5,-3.0125 2.5,-3.6388 0,-1.2317 2.95841,-7.9655 6.18952,-14.0882 1.10814,-2.0999 3.3195,-8.62489 4.91412,-14.49999 1.59463,-5.8752 3.55207,-12.9321 4.34987,-15.6821 4.34179,-14.96609 4.45998,-15.95814 4.88255,-40.98416 0.49283,-29.18669 -0.2328,-40.27771 -3.87172,-59.17757 -1.4654,-7.61105 -2.82825,-17.34267 -3.02855,-21.62582 -0.20029,-4.28316 -0.6261,-8.21136 -0.94623,-8.72934 -0.32013,-0.51798 -0.11002,-1.82377 0.4669,-2.90175 0.74066,-1.38395 0.72865,-2.15794 -0.0409,-2.63353 -0.59941,-0.37045 -0.87535,-1.4937 -0.61322,-2.49611 0.26277,-1.00483 -0.14681,-2.06178 -0.91288,-2.35575 -0.95345,-0.36589 -1.38946,-2.26309 -1.38946,-6.04603 0,-5.84919 -1.56681,-17.72746 -3.10637,-23.54994 -0.50901,-1.925 -1.13149,-5.075 -1.3833,-7 -0.25182,-1.925 -1.41911,-8.675 -2.59399,-15 -1.17488,-6.325 -2.26447,-14.65 -2.42132,-18.5 -0.15685,-3.85 -1.042,-8.75587 -1.967,-10.90193 -0.925,-2.14606 -1.48276,-4.66313 -1.23947,-5.59348 0.24599,-0.94067 -0.38572,-2.20869 -1.4231,-2.85655 -1.026,-0.64074 -1.86545,-2.30063 -1.86545,-3.68863 0,-1.38801 -0.69001,-4.17507 -1.53335,-6.19347 -0.84334,-2.0184 -3.09376,-9.76645 -5.00092,-17.21788 -1.90717,-7.45143 -3.93241,-14.35386 -4.50053,-15.33874 -0.56813,-0.98487 -0.80432,-2.16062 -0.52487,-2.61276 0.69223,-1.12006 -1.29804,-13.15425 -2.552,-15.43065 -0.55566,-1.00874 -0.73151,-3.1034 -0.39077,-4.6548 0.34935,-1.59058 0.15789,-3.10602 -0.43901,-3.47493 -0.5822,-0.35982 -1.05855,-1.66499 -1.05855,-2.90038 0,-7.513 -9.31262,-41.94044 -14.09965,-52.12442 -1.19519,-2.54266 -2.17308,-6.3979 -2.17308,-8.5672 0,-2.1693 -0.38863,-3.94418 -0.86363,-3.94418 -0.475,0 -0.86364,-1.125 -0.86364,-2.5 0,-1.375 -0.50925,-2.5 -1.13167,-2.5 -0.73512,0 -0.95124,-1.34522 -0.61675,-3.83901 0.48125,-3.58797 0.36274,-3.80992 -1.8123,-3.39413 -1.94567,0.37194 -2.47137,-0.10533 -3.20637,-2.91099 -0.78555,-2.99859 -0.93822,-2.55738 -1.434,4.14413 -0.30517,4.125 -0.3205,9.975 -0.0341,13 0.28643,3.025 0.47237,7.525 0.4132,10 -0.0592,2.475 -0.29567,13.5 -0.52556,24.5 -0.30016,14.36297 -0.8675,21.50968 -2.01289,25.35629 -0.87721,2.94596 -1.35608,6.85914 -1.06416,8.69596 0.29192,1.83682 0.0781,5.05149 -0.47516,7.14371 -2.05656,7.77725 -1.02219,43.65336 1.58574,54.99929 1.63784,7.12554 1.44572,10.3757 -1.37758,23.30475 -0.49248,2.25527 -0.75634,43.66135 -0.37278,58.5 0.1947,7.53274 -0.17547,15.71289 -0.88021,19.45068 -1.16515,6.17977 -1.09608,8.27473 0.87528,26.54932 0.89766,8.32132 0.56578,19.72189 -1.03883,35.68526 -0.64602,6.4269 -0.91272,13.29896 -0.59266,15.27124 0.32006,1.97229 0.18177,4.81392 -0.30731,6.31474 -0.77273,2.37125 -1.76877,10.68981 -2.32235,19.39543 -0.0933,1.46666 -0.50707,3.00416 -0.91957,3.41666 -1.16001,1.16001 -0.88539,4.41667 0.37244,4.41667 0.77746,0 0.8077,0.38419 0.0984,1.25 -0.89352,1.09066 -1.49298,4.94487 -2.68294,17.25 -0.15956,1.65 -0.58688,7.5 -0.94959,13 -0.36272,5.5 -1.08009,14.04999 -1.59417,18.99999 -0.51407,4.95 -1.20137,20.6763 -1.52733,34.9473 -0.32596,14.271 -0.73617,26.196 -0.91159,26.5 -0.17542,0.304 -0.61967,5.8703 -0.98723,12.3695 -0.36755,6.4993 -1.05745,12.8404 -1.5331,14.0915 -0.47564,1.251 -1.11009,3.5835 -1.40988,5.1832 -1.38783,7.4055 -6.4372,22.2724 -8.34554,24.5718 -0.61527,0.7413 -1.42045,2.5503 -1.7893,4.0199 -0.36886,1.4697 -1.30503,2.9155 -2.0804,3.2131 -0.77535,0.2975 -1.40974,1.4327 -1.40974,2.5226 0,1.09 -0.57535,2.3416 -1.27856,2.7814 -0.7032,0.4398 -2.13547,2.8247 -3.1828,5.2997 -2.32352,5.4908 -6.27228,10 -8.75712,10 -2.31526,0 -2.56737,-0.7856 -3.20902,-10 -0.71627,-10.2857 -2.00148,-18.5239 -3.91872,-25.119 -0.88889,-3.0577 -2.2729,-10.0193 -3.0756,-15.4702 -0.80269,-5.4509 -1.90766,-12.6108 -2.45549,-15.9108 -0.54783,-3.3 -1.23812,-11.4 -1.53399,-18 -0.29586,-6.6 -1.11185,-19.65 -1.81331,-29 -0.76396,-10.183 -1.2557,-34.1428 -1.22629,-59.74999 0.0292,-25.44239 -0.324,-42.75 -0.87245,-42.75 -0.50685,0 -0.43081,-0.59129 0.16897,-1.31398 0.67304,-0.81097 1.12891,-7.22311 1.19083,-16.75 0.0815,-12.53874 -0.28139,-16.89521 -1.93334,-23.21021 -1.62292,-6.20401 -1.84356,-8.72869 -1.09245,-12.5 1.89087,-9.49399 2.12115,-24.13705 1.37958,-87.72581 -0.14752,-12.65 -0.47004,-26.6 -0.7167,-31 -0.8311,-14.82507 -1.64292,-26.96702 -2.17298,-32.5 -0.28979,-3.025 -0.97476,-14.275 -1.52216,-25 -0.90676,-17.76578 -1.76,-24.65151 -6.50544,-52.5 -0.84349,-4.95 -1.9333901,-12.6 -2.4220101,-17 -1.84439,-16.60885 -4.05138,-32.13342 -5.09111,-35.81228 -5.72245,-20.2476 -5.28728,-66.14773 0.86927,-91.68772 1.65725,-6.875 3.5632,-15.425 4.23543,-19 0.67224,-3.575 1.5266701,-6.95 1.8987301,-7.5 0.37206,-0.55 1.26393,-3.025 1.98194,-5.5 4.15114,-14.30924 20.8195,-51.6908 26.86089,-60.24002 1.84228,-2.60701 4.83421,-5.44452 6.64875,-6.30558 2.47845,-1.1761 4.37276,-3.56025 7.61488,-9.58396 2.74281,-5.09601 5.30593,-8.53046 7.03265,-9.42338 1.49431,-0.77274 2.87008,-1.75195 3.05727,-2.17602 0.18719,-0.42407 3.04035,-3.20141 6.34035,-6.17185 3.3,-2.97045 7.35424,-7.47045 9.00943,-10 1.97164,-3.01319 3.85487,-4.71893 5.46112,-4.94641 3.42404,-0.48492 10.30231,-5.34228 18.53225,-13.08726 5.96125,-5.60999 15.66158,-13.06552 16.99942,-13.06552 0.22108,0 3.23602,-1.9736 6.69987,-4.38577 3.46385,-2.41217 11.69791,-7.17578 18.29791,-10.58579 6.6,-3.41002 12.54802,-6.65451 13.21783,-7.20998 1.73648,-1.44007 11.81717,-7.5987 18.28217,-11.16919 3.025,-1.67065 7.25502,-4.30018 9.40004,-5.84341 2.14502,-1.54322 4.31394,-2.80586 4.81982,-2.80586 0.50589,0 2.88194,-1.35 5.28014,-3 2.3982,-1.65 5.086,-3 5.973,-3 1.779,0 14.1052,-6.38412 16.6057,-8.6006 0.8684,-0.76967 2.0216,-1.3994 2.5629,-1.3994 0.5413,0 3.2058,-1.06111 5.9213,-2.35803 18.3892,-8.78287 43.3289,-17.64197 49.6649,-17.64197 1.1716,0 3.5122,-0.4164 5.2012,-0.92533 12.426,-3.74408 22.7247,-6.25467 31.194,-7.60438 5.4324,-0.86572 12.802,-2.2709 16.377,-3.12262 3.575,-0.85172 9.2,-1.92207 12.5,-2.37855 3.3,-0.45648 11.175,-1.57764 17.5,-2.49146 8.1949,-1.18398 19.31,-1.7033 38.6749,-1.80698 14.9462,-0.08 26.6462,-0.52233 26,-0.98291 -0.6538,-0.46598 0.5993,-0.54794 2.8251,-0.18478 2.2,0.35895 4.4275,1.06762 4.95,1.57483 0.5225,0.5072 2.1534,0.92218 3.6243,0.92218 1.4708,0 4.5134,0.64889 6.7612,1.44198 2.2479,0.79308 11.192,2.35536 19.8758,3.47172 8.6838,1.11636 17.8137,2.4789 20.2887,3.02788 2.475,0.54897 9,1.93536 14.5,3.08086 5.5,1.14551 14.95,3.1395 21,4.4311 13.2601,2.83086 20.5002,4.21668 26.5,5.07235 5.7657,0.82226 11.672,2.36481 15.5941,4.07268 1.7018,0.74102 5.7518,1.64582 9,2.01067 3.2482,0.36484 6.4487,1.09076 7.1121,1.61314 0.6634,0.52239 1.5634,0.73273 2,0.46743 0.4366,-0.2653 3.2688,-0.0821 6.2938,0.40709 3.025,0.48921 9.5275,1.14625 14.45,1.46009 4.9225,0.31385 11.2175,1.00066 13.9889,1.52625 2.7714,0.52559 8.869,1.21129 13.55,1.52378 4.6811,0.31249 13.4611,1.83526 19.5111,3.38392 6.05,1.54867 15.05,3.11241 20,3.47499 4.95,0.36257 9.9,1.0427 11,1.51138 7.3988,3.15243 23.1377,5.85985 43.5,7.48289 4.125,0.32879 8.85,0.99455 10.5,1.47945 1.65,0.4849 6.3013,1.12392 10.3361,1.42004 4.0349,0.29611 7.9131,1.01722 8.6183,1.60246 0.7052,0.58524 4.032,1.23285 7.393,1.43913 3.5189,0.21598 7.7566,1.23282 9.9907,2.39731 2.1339,1.11223 6.4242,2.34015 9.534,2.7287 3.1099,0.38855 5.8999,1.10387 6.2001,1.58958 0.3002,0.48572 1.6088,0.88313 2.9079,0.88313 2.9043,0 19.3919,3.86114 21.6515,5.07044 0.9038,0.48371 4.4487,1.0887 7.8775,1.34443 4.6189,0.34449 6.8427,1.03672 8.5832,2.67182 1.7261,1.62163 2.6883,1.92533 3.6284,1.14521 2.2461,-1.86395 14.871,-2.46864 25.2793,-1.21081 23.7502,2.8702 49.8914,1.51835 59.3732,-3.07039 2.4053,-1.16404 6.0053,-2.36658 8,-2.67232 1.9947,-0.30575 4.0768,-0.89412 4.6268,-1.30749 0.55,-0.41337 4.5884,-1.48684 8.9743,-2.38549 4.3858,-0.89865 8.4133,-2.073 8.95,-2.60966 0.5366,-0.53666 2.1232,-0.97851 3.5257,-0.9819 1.4025,-0.003 3.675,-0.58333 5.05,-1.28875 8.6074,-4.4159 28.2607,-9.69877 36.1958,-9.72954 3.4673,-0.0134 8.1042,-0.43811 10.3042,-0.94371 2.28563,-0.52526 8.28613,-0.5798 14.00003,-0.12725 l 10,0.79201 8.2472,-8.30245 c 10.6262,-10.69752 10.3529,-10.63714 31.5262,-6.96433 3.5574,0.61708 4.7266,1.36432 4.7266,3.02079 0,1.84507 5.0897,3.02221 6.0875,1.40788 0.4274,-0.69161 3.6201,-1.86386 7.0948,-2.60499 3.4747,-0.74113 7.1612,-1.53631 8.1922,-1.76706 1.031,-0.23075 2.831,-1.0401 4,-1.79855 1.169,-0.75846 3.2505,-1.64247 4.6255,-1.96449 1.375,-0.32202 4.525,-1.14012 7,-1.81801 2.475,-0.67789 6.975,-1.30602 10,-1.39583 3.025,-0.0898 7.75,-0.72432 10.5,-1.41 2.75,-0.68568 8.15,-1.67568 12,-2.2 8.0583,-1.09744 20.225,-3.8019 22.6699,-5.03916 0.9185,-0.46477 2.2146,-2.536 2.8803,-4.60272 1.4751,-4.57914 2.7141,-6.21758 5.5044,-7.27842 1.6415,-0.62411 2.4371,-2.28027 3.4328,-7.14583 0.7129,-3.48338 1.6823,-6.76093 2.1544,-7.28343 0.472,-0.5225 0.8582,-2.11876 0.8582,-3.54725 0,-1.88883 1.6968,-4.19864 6.221,-8.46837 l 6.221,-5.87113 8.529,1.22742 c 5.4378,0.78257 10.0433,2.1121 12.7071,3.66837 5.4223,3.1679 22.6897,5.28216 25.2329,3.08958 0.874,-0.75343 2.6517,-2.22009 3.9506,-3.25925 1.2989,-1.03915 2.8739,-2.33937 3.5,-2.88937 3.0767,-2.70264 13.1639,-6.17435 21.7459,-7.48429 6.1672,-0.94135 12.6915,-0.3941 17.0413,1.42942 2.4689,1.03496 3.1539,-1.05345 1.2825,-3.9096 -2.0922,-3.19321 -1.2318,-6.96489 2.0846,-9.13789 1.3662,-0.89521 2.4841,-2.28844 2.4841,-3.09606 0,-0.80763 1.3747,-4.90166 3.055,-9.09786 1.7933,-4.4785 2.8249,-8.54595 2.498,-9.84857 -0.635,-2.53008 2.0556,-3.92118 5.7775,-2.98705 1.2024,0.30177 2.68,0.22991 3.2836,-0.15971 1.5874,-1.0247 2.6795,-7.90889 1.3818,-8.71092 -1.0188,-0.62965 12.0112,-13.60914 14.3929,-14.3371 4.1381,-1.26482 7.9276,-3.65446 8.3487,-5.26465 0.4069,-1.55609 1.4154,-1.89002 5.6291,-1.86392 4.4966,0.0279 4.9151,0.19745 3.3741,1.36708 -1.5737,1.19436 -1.3109,1.39543 2.4907,1.90533 2.9578,0.39673 4.7329,0.13309 5.8381,-0.86708 2.0313,-1.83831 6.3751,-1.84963 8.2034,-0.0214 1.221,1.221 2.0906,0.87786 6.3214,-2.49456 2.6981,-2.15067 6.1164,-4.39746 7.5963,-4.99286 1.5515,-0.62425 2.8215,-2.00243 3,-3.25544 0.1873,-1.31524 2.177,-3.35702 5.041,-5.1729 2.6024,-1.65 4.7399,-3.48135 4.75,-4.06966 0.022,-1.27756 3.4961,-4.39458 8.8388,-7.93019 2.1413,-1.41707 4.3981,-3.68432 5.015,-5.03832 0.617,-1.35401 1.546,-2.46183 2.0645,-2.46183 0.5186,0 3.9555,-2.925 7.6377,-6.5 3.6821,-3.575 7.0626,-6.499996 7.5122,-6.499996 0.4495,0 0.9597,-1.23361 1.1338,-2.74137 0.2384,-2.06518 1.3653,-3.28906 4.5689,-4.96185 2.3389,-1.22126 5.4843,-3.36265 6.9898,-4.75863 1.5055,-1.39598 3.0835,-2.53815 3.5066,-2.53815 0.4231,0 2.0888,-1.2375 3.7015,-2.75 7.8741,-7.38486 9.6759,-8.91107 15.878,-13.44917 3.6694,-2.68486 7.3568,-5.44637 8.1942,-6.13669 3.3476,-2.75954 10.8946,-7.66411 11.7933,-7.66411 1.3151,0 4.8492,-1.93331 10.1841,-5.57112 2.475,-1.68769 5.9625,-3.6542 7.75,-4.37002 1.7875,-0.71583 3.25,-1.90607 3.25,-2.645 0,-0.73892 1.0125,-1.87669 2.25,-2.52838 1.2375,-0.65169 2.475,-1.4611 2.75,-1.79868 0.275,-0.33759 3.2,-2.39259 6.5,-4.56667 3.3,-2.17408 6.9644,-4.78874 8.1431,-5.81037 5.4769,-4.74708 21.088,-11.89095 36.3569,-16.63752 18.7691,-5.8346505 19.687,-6.0920905 27,-7.5729805 3.575,-0.72395 9.1642,-1.88497 12.4205,-2.58005998 4.991,-1.06538 8.2881,-0.99612 21,0.44109998 8.2937,0.9377 22.2795,2.35721 31.0795,3.15447 8.8,0.79726 19.375,2.30192 23.5,3.34369 12.26,3.0962505 18.9267,5.2139705 19.5405,6.2071305 0.3177,0.51392 1.1643,0.93441 1.8815,0.93441 0.7171,0 7.889,3.15 15.9375,7 8.0485,3.85 15.1449,7 15.7698,7 0.6248,0 1.8639,0.83563 2.7534,1.85695 0.8895,1.02133 2.6068,2.16935 3.8161,2.55116 1.2094,0.38181 2.458,1.45868 2.7747,2.39304 0.3167,0.93437 2.4772,3.13454 4.8011,4.88927 2.324,1.75473 6.7004,5.47171 9.7254,8.25995 3.025,2.78825 7.3245,6.75256 9.5544,8.80959 2.2299,2.05702 7.3347,6.66504 11.344,10.24004 4.0092,3.575 7.9895,7.85 8.8451,9.5 3.6325,7.00531 23.1523,36.499996 24.156,36.499996 0.4033,0 3.0093,3.2625 5.791,7.25 3.3905,4.86028 5.2106,8.56847 5.5217,11.25 0.2553,2.2 0.7675,4.67652 1.1383,5.50338 0.4306,0.9601 -0.7758,3.25803 -3.3381,6.35889 -2.8497,3.44842 -4.0124,5.78988 -4.0124,8.07983 0,1.77339 -0.5075,5.7514 -1.1278,8.84004 -1.0098,5.02815 -0.8846,6.32728 1.1964,12.41678 1.7069,4.99501 3.4804,7.9297 6.6784,11.05108 2.3948,2.3375 4.8245,4.25 5.3993,4.25 0.5747,0 2.3319,0.91638 3.9048,2.03641 1.573,1.12002 5.0366,3.25752 7.697,4.75 7.7467,4.34589 11.1615,6.5008 15.7889,9.96359 2.3886,1.7875 4.6197,3.25 4.9579,3.25 0.3382,0 3.1776,1.73967 6.31,3.86592 3.1323,2.12626 8.1701,4.91244 11.1951,6.19151 3.025,1.27908 7.1786,3.36441 9.2301,4.63408 2.0516,1.26967 4.1826,2.30849 4.7357,2.30849 0.553,0 4.0494,1.64056 7.7698,3.64569 3.7204,2.00513 7.9545,4.26447 9.4092,5.02075 1.4546,0.75628 3.1972,2.04072 3.8724,2.85431 0.6752,0.81359 2.6691,1.47925 4.4309,1.47925 2.0949,0 3.9893,0.83669 5.475,2.41816 2.9025,3.08958 2.1252,7.76117 -2.0165,12.1191 -2.0523,2.15951 -3.0739,4.47146 -3.5347,8 -0.3565,2.72951 -0.9841,5.41274 -1.3946,5.96274 -0.4105,0.55 -1.0799,2.575 -1.4875,4.5 -0.4076,1.925 -1.1261,3.74635 -1.5967,4.04744 -1.041,0.66605 -2.8317,17.5029 -3.8769,36.45256 -1.0509,19.05169 -3.3427,31.43393 -7.4037,40 -1.8252,3.85 -4.3971,9.7 -5.7155,13 -2.6972,6.75142 -5.8409,10.5 -8.8057,10.5 -1.8929,0 -3.1389,1.39923 -11.5331,12.95142 -1.618,2.22672 -3.2734,4.04858 -3.6786,4.04858 -0.4052,0 -1.3314,0.5625 -2.0582,1.25 -0.7268,0.6875 -3.1214,2.21841 -5.3214,3.40203 -2.2,1.18362 -5.575,3.08145 -7.5,4.2174 -4.6789,2.76102 -12.6911,6.56056 -17,8.06174 -24.7114,8.60915 -23.9141,8.42202 -36.2036,8.49722 -11.5802,0.0709 -11.7102,0.0976 -12.3231,2.53692 -0.3407,1.35592 -1.5813,4.50592 -2.7568,7 -1.1756,2.49408 -2.1552,5.87295 -2.1769,7.5086 -0.035,2.62163 -0.4616,3.04358 -3.6024,3.56214 -1.9595,0.32353 -4.6471,1.34778 -5.9725,2.2761 -1.3253,0.92832 -3.2343,1.68785 -4.2421,1.68785 -1.0078,0 -3.8327,0.91125 -6.2775,2.02501 -2.4448,1.11375 -5.7693,2.28983 -7.3877,2.61351 -2.8203,0.56407 -12.472,-1.1527 -14.5574,-2.58935 -0.55,-0.3789 -3.025,-1.32206 -5.5,-2.0959 -2.475,-0.77384 -6.75,-3.10296 -9.5,-5.17582 -2.75,-2.07287 -5.5074,-3.77078 -6.1276,-3.77315 -0.6201,-0.002 -1.7062,-0.70158 -2.4135,-1.5538 -3.4299,-4.13276 -13.3739,-6.63938 -19.3409,-4.87534 -3.9704,1.17378 -13.1128,5.86279 -15.118,7.75386 -1.1,1.03738 -3.7647,3.01708 -5.9215,4.39934 -2.1568,1.38226 -4.7915,3.32383 -5.855,4.31461 -1.0635,0.99077 -3.3488,2.33184 -5.0785,2.98014 -8.6643,3.24737 -12.4774,5.16609 -20.3751,10.25252 -2.3266,1.4984 -4.4893,2.72437 -4.8061,2.72437 -0.3168,0 -3.2969,1.35 -6.6225,3 -3.3256,1.65 -6.5629,3.01829 -7.1939,3.04064 -0.6311,0.0224 -2.7054,1.37235 -4.6096,3 -1.9042,1.62765 -4.0928,2.95936 -4.8635,2.95936 -1.6302,0 -1.2362,3.17235 1.2024,9.68213 0.8617,2.30017 2.4213,8.29337 3.4658,13.31821 1.6824,8.09337 1.7519,9.89869 0.6092,15.81787 -0.7094,3.67499 -2.6763,9.91962 -4.3708,13.87698 -1.6945,3.95735 -3.0809,8.04141 -3.0809,9.07568 0,1.03428 -1.125,2.93738 -2.5,4.22913 -3.0579,2.87275 -3.3898,7 -0.5629,7 1.0655,0 3.203,1.38163 4.75,3.0703 1.5471,1.68866 4.2021,4.55531 5.8999,6.37034 1.6979,1.81502 5.2412,6.62089 7.8742,10.6797 2.633,4.05881 5.6508,8.62527 6.7063,10.14768 3.0472,4.39525 5.8325,11.61509 5.8325,15.11854 0,4.54991 4.6101,13.31742 7.8085,14.8504 4.3038,2.06275 4.9172,5.65319 1.8074,10.57941 -1.6179,2.56303 -3.3914,4.18363 -4.5783,4.18363 -2.9351,0 -10.0104,-5.20425 -14.9489,-10.99559 -4.1794,-4.90124 -10.559,-11.24471 -16.0887,-15.99752 -1.375,-1.18183 -3.6457,-3.12935 -5.046,-4.32783 -1.4003,-1.19848 -3.9822,-2.98871 -5.7376,-3.97828 l -3.1916,-1.79922 0.5711,4.79922 c 0.9499,7.98177 2.235,14.34904 4.8034,23.79922 1.3453,4.95 2.7601,12.66766 3.1438,17.15036 0.6697,7.8225 0.6053,8.19987 -1.6017,9.381 -3.2078,1.71676 -7.6661,-0.8219 -11.1701,-6.36056 -2.2299,-3.5248 -2.9751,-6.52409 -4.2778,-17.21952 -1.9277,-15.82584 -7.3897,-49.04805 -8.5775,-52.17227 -0.8847,-2.32701 -4.2737,-3.12732 -5.416,-1.27901 -0.3399,0.55 -1.6834,1 -2.9855,1 -1.3838,0 -4.604,1.94078 -7.7504,4.67106 l -5.3829,4.67106 0.805,5.57894 c 1.6239,11.25372 -1.5334,54.16219 -5.2635,71.53212 -1.0575,4.92425 -1.9227,9.9386 -1.9227,11.14301 0,2.63686 -1.7179,3.40381 -7.6243,3.40381 l -4.4606,0 -2.9568,-6.25 c -2.8978,-6.12542 -2.9567,-6.57391 -2.9575,-22.5 -7e-4,-13.77813 0.2274,-16.25 1.4992,-16.25 0.825,0 1.5,-0.45 1.5,-1 0,-0.55 -0.6664,-1 -1.4809,-1 -1.8622,0 -2.6777,-4.38047 -3.5015,-18.80776 -0.01,-0.16927 -3.1706,-0.17841 -7.0244,-0.0203 -4.2064,0.17257 -6.8688,0.69523 -6.6616,1.30776 0.1918,0.56668 2.4178,0.86911 5.0068,0.68023 3.7369,-0.27261 4.6616,-0.0247 4.6616,1.25 0,0.87454 0.675,1.59007 1.5,1.59007 0.825,0 1.5,0.70156 1.5,1.55902 0,0.85746 -0.4022,1.31044 -0.8938,1.00664 -0.4915,-0.30381 -2.4662,0.10463 -4.388,0.90764 -1.9219,0.803 -4.9627,1.27419 -6.7573,1.04706 -4.6471,-0.58812 -13.3694,-2.83696 -13.9609,-3.59947 -0.4519,-0.58259 -4.1079,-1.45835 -9.5,-2.27563 -1.1,-0.16672 -2.5144,-1.32608 -3.1431,-2.57635 -1.016,-2.0202 -1.2469,-2.08784 -2.0752,-0.60772 -1.7116,3.05831 -5.968,-5.0185 -6.8156,-12.93273 -0.4097,-3.82583 -1.046,-6.20035 -1.4522,-5.41908 -0.3977,0.76484 -1.2679,7.82805 -1.934,15.69602 -0.8975,10.60332 -1.9988,16.81425 -4.2554,24 -4.1498,13.21444 -6.7236,22.64205 -7.9703,29.1946 -1.3065,6.86687 -5.4168,20.20522 -7.8579,25.5 -1.0144,2.2 -2.423,6.025 -3.1302,8.5 -1.0471,3.66386 -7.986,18.40533 -11.7677,25 -0.4731,0.825 -1.7013,3.13662 -2.7293,5.13693 -2.4271,4.72262 -9.0363,16.39734 -11.8109,20.86307 -1.196,1.925 -2.7834,5.075 -3.5276,7 -5.9959,15.50921 -14.9703,31.61536 -21.3861,38.38068 -2.1205,2.23605 -5.1589,5.96012 -6.7521,8.27572 -1.5932,2.3156 -3.7957,4.49553 -4.8945,4.84428 -1.0989,0.34875 -1.9979,1.01582 -1.9979,1.48238 0,0.46655 -1.8574,2.57373 -4.1276,4.68261 -2.2702,2.10888 -5.0937,4.73433 -6.2743,5.83433 -8.7073,8.1126 -23.5774,20.28507 -32.7265,26.78957 -3.6456,2.59182 -7.1966,5.39712 -7.8912,6.234 -0.6945,0.83687 -2.0241,1.27996 -2.9545,0.98464 -1.1433,-0.36287 -2.0673,0.28729 -2.8502,2.00549 -0.6371,1.39834 -1.9498,2.83691 -2.917,3.19683 -2.8638,1.06561 -7.2587,4.57692 -7.2587,5.79927 0,0.62353 -2.2169,2.1356 -4.9264,3.36016 -2.7096,1.22455 -6.1411,3.1819 -7.6257,4.34965 -2.8191,2.21756 -6.3882,8.95245 -6.4259,12.12602 -0.012,1.0151 -0.8381,3.0401 -1.8357,4.5 -0.9975,1.4599 -2.404,4.51994 -3.1256,6.80009 -0.7216,2.28015 -2.3804,5.29801 -3.6863,6.70636 -1.3059,1.40835 -2.3744,2.8842 -2.3744,3.27968 0,0.39548 -1.5277,3.90262 -3.395,7.79365 -7.1669,14.93457 -9.605,20.25844 -9.605,20.97344 0,0.40744 -1.2742,2.62188 -2.8316,4.92097 -3.7719,5.56812 -4.2562,6.97886 -5.2117,15.18018 -0.4486,3.85 -1.3546,11.05 -2.0134,16 -0.6589,4.95 -1.2004,9.9 -1.2035,11 0,1.1 -0.5884,4.25 -1.3005,7 -1.8387,7.10029 -2.7039,23.1039 -1.5678,28.99919 1.0796,5.6019 0.8566,6.35 -1.3473,4.5209 -1.1699,-0.9709 -1.5242,-0.9823 -1.5242,-0.049 0,0.6688 0.8082,1.4274 1.796,1.6857 1.6741,0.4378 1.7776,2.0778 1.5241,24.1564 -0.848,73.8538 -1.46,103.0535 -2.4038,114.6867 -0.58,7.15 -1.4601,18.625 -1.9559,25.5 -0.4957,6.875 -1.2011,16.6475 -1.5676,21.7167 -0.5404,7.4739 -0.3721,9.666 0.8901,11.5923 1.0134,1.5466 1.4652,4.1615 1.2949,7.4945 -0.1438,2.8155 0.03,4.9386 0.3872,4.7181 0.592,-0.3658 7.8778,17.7549 12.0759,30.0341 0.9507,2.7806 2.931,7.4288 4.4008,10.3293 1.4698,2.9005 3.5334,8.0504 4.5858,11.4443 2.8837,9.2996 4.1601,10.6707 9.9334,10.6707 2.6661,0 8.1531,-1.119 12.1933,-2.4867 7.8384,-2.6534 9.63,-2.5388 14.3458,0.9177 1.65,1.2094 5.7956,3.8795 9.2125,5.9335 8.2127,4.9372 23.2243,19.7987 26.147,25.8855 1.2545,2.6125 2.6901,4.75 3.1903,4.75 0.5003,0 1.8202,1.785 2.9331,3.9666 1.113,2.1816 2.9222,4.4474 4.0204,5.0351 1.0982,0.5878 1.9967,1.6671 1.9967,2.3986 0,0.7315 0.9799,2.5758 2.1776,4.0984 2.1119,2.6848 2.1212,2.8096 0.3089,4.1348 -1.0278,0.7516 -2.5053,1.3665 -3.2833,1.3665 -0.778,0 -2.7375,1.1133 -4.3546,2.474 -1.6171,1.3606 -5.8089,3.36 -9.3151,4.4429 -3.5062,1.083 -8.5481,3.0666 -11.2042,4.4081 -2.6561,1.3415 -9.3293,3.7297 -14.8293,5.3071 -9.91,2.8421 -10.2228,2.8662 -34.75,2.6774 -13.6125,-0.1048 -24.75,0.1388 -24.75,0.5412 0,0.8627 6.4139,6.6347 11.1632,10.046 4.3457,3.1215 20.5906,25.154 22.4664,30.4708 0.7999,2.2671 3.2355,6.8557 5.4124,10.1969 2.1769,3.3413 3.958,6.6197 3.958,7.2855 0,0.6657 1.1409,3.9209 2.5353,7.2339 2.85,6.7714 2.625,11.5562 -0.6845,14.5512 -1.8233,1.6501 -2.1608,1.6589 -5.151,0.134 -5.4158,-2.7617 -7.5654,-2.9857 -12.0853,-1.2596 -3.347,1.2783 -6.1485,1.5179 -12.2281,1.0461 -15.6273,-1.2129 -17.0702,-1.1516 -19.2468,0.8182 -2.6936,2.4376 -7.936,1.5363 -11.186,-1.9231 -1.7583,-1.8716 -3.0236,-2.3745 -4.9238,-1.9571 -1.4066,0.3089 -6.8262,0.6132 -12.0436,0.6763 -7.7707,0.094 -10.8425,-0.3494 -16.9862,-2.4515 -4.125,-1.4114 -10.2,-3.0981 -13.5,-3.7482 -7.7209,-1.5211 -17.5787,-4.9059 -19.2996,-6.6269 -0.7388,-0.7388 -1.7611,-1.3432 -2.2718,-1.3432 -0.5107,0 -0.9286,-1.741 -0.9286,-3.8689 0,-3.563 -0.5249,-4.2942 -6.6394,-9.25 -3.6517,-2.9596 -7.5892,-6.4056 -8.75,-7.6578 -1.1609,-1.2522 -3.5731,-3.7592 -5.3606,-5.571 -1.9067,-1.9327 -3.25,-4.3189 -3.25,-5.7733 0,-1.3635 -0.5069,-2.9859 -1.1265,-3.6055 -0.6195,-0.6195 -1.2906,-3.072 -1.4912,-5.45 -0.3202,-3.7941 -0.8601,-8.7498 -3.0314,-27.8235 -0.7215,-6.3379 -8.0075,-34.0566 -9.2887,-35.3378 -1.3443,-1.3443 -1.3877,-6.343 -0.062,-7.1622 0.55,-0.3399 0.9857,-1.379 0.9682,-2.309 -0.029,-1.5155 -0.1773,-1.499 -1.4335,0.1591 -1.6608,2.1923 -3.9147,1.2112 -3.2303,-1.4061 0.2689,-1.0283 -0.3503,-2.5805 -1.4129,-3.5422 -1.1026,-0.9978 -1.8915,-3.0428 -1.8915,-4.9031 0,-3.1936 -2.3238,-8.9628 -4.0366,-10.0213 -0.5004,-0.3093 -1.6675,-2.159 -2.5935,-4.1104 -1.5286,-3.2212 -1.9685,-3.4893 -4.7768,-2.9109 -1.7012,0.3504 -7.2256,0.8871 -12.2764,1.1928 -8.6736,0.525 -9.3162,0.4253 -11.5795,-1.7965 -1.3179,-1.2938 -2.9769,-4.3774 -3.6866,-6.8524 -0.7096,-2.475 -1.8281,-6.075 -2.4854,-8 -0.744,-2.1789 -0.919,-5.1986 -0.4636,-8 0.4023,-2.475 0.5127,-5.2908 0.2453,-6.2572 -0.4822,-1.7427 2.8201,-5.7222 7.3215,-8.8231 1.1926,-0.8215 3.3364,-4.1347 4.7639,-7.3626 2.3326,-5.2743 2.4422,-6.0383 1.0816,-7.5417 -1.9579,-2.1635 -1.9131,-2.6924 0.4861,-5.7425 2.2697,-2.8854 2.8458,-13.0271 0.8533,-15.0196 -0.8623,-0.8623 -0.706,-2.7102 0.6302,-7.45 1.141,-4.0473 1.8933,-10.7771 2.1021,-18.8033 0.1789,-6.875 0.5266,-20.6 0.7728,-30.5 0.2462,-9.9 0.8772,-20.25 1.4023,-23 0.5251,-2.75 0.7341,-13.55 0.4644,-24 -0.6761,-26.1961 -0.5219,-30.7577 1.3681,-40.4592 1.1596,-5.9525 1.4256,-10.2494 0.8976,-14.5 -0.8925,-7.1853 -0.9768,-12.9346 -0.2499,-17.0408 0.2921,-1.65 0.5824,-3.7251 0.6451,-4.6113 0.082,-1.1625 0.8104,-1.4782 2.614,-1.1335 2.7065,0.5174 3.0535,-0.7788 1.5406,-5.7552 l -0.76,-2.5 -1.1155,2.75 c -1.6413,4.0459 -2.8317,3.3643 -3.493,-2 -0.7201,-5.8412 0.045,-48.98334 0.8931,-50.3555 0.337,-0.54526 0.1204,-5.58208 -0.4814,-11.19294 -0.6018,-5.61085 -1.4974,-16.50574 -1.9904,-24.21086 -0.6396,-9.99903 -1.4254,-15.15168 -2.7448,-18 -1.0169,-2.19478 -2.0738,-4.21559 -2.3488,-4.49059 -0.275,-0.275 -0.5,-1.625 -0.5,-3 0,-2.82204 1.1205,-2.7193 -17.5,-1.60469 -15.5483,0.9307 -22.8127,1.67662 -29.5,3.02909 -6.4609,1.30669 -27.1845,1.06048 -28.9426,-0.34385 -0.5816,-0.46455 -5.1049,-1.14176 -10.0519,-1.50491 -4.947,-0.36316 -9.897,-0.8686 -11.00003,-1.12321 -1.103,-0.25461 -6.5055,-0.65242 -12.0055,-0.88402 -5.5,-0.23161 -13.2885,-0.9063 -17.3077,-1.49933 -4.0192,-0.59302 -8.4126,-0.80092 -9.763,-0.46198 -1.3504,0.33893 -3.0125,0.15376 -3.6936,-0.41148 -0.6811,-0.56524 -4.8377,-1.28258 -9.237,-1.5941 -18.793,-1.33073 -23.0309,-1.84463 -23.6644,-2.8696 -0.3686,-0.5965 -3.2947,-1.19926 -6.5023,-1.33948 -8.5055,-0.3718 -14.4388,-1.5073 -14.959,-2.8628 -0.3074,-0.80108 -2.2779,-1.03622 -6.0572,-0.72281 -3.811,0.31604 -5.3911,0.12409 -4.9433,-0.60048 0.4513,-0.73024 -1.1209,-0.88139 -5.0015,-0.48088 l -5.6598,0.58414 2.3234,-3.14251 c 2.5623,-3.46579 2.2005,-5.2593 -0.5136,-2.54525 -2.1355,2.13548 -18.0389,2.66505 -19.7055,0.65617 -0.7948,-0.95789 -1.7441,-0.91687 -4.3929,0.18985 -3.083,1.28818 -5.8335,0.52214 -3.4389,-0.95779 0.559,-0.34546 1.0163,-1.23572 1.0163,-1.97835 0,-1.03625 -0.9315,-0.90018 -4.0059,0.58519 -5.102,2.46505 -9.5772,3.36673 -10.367,2.0888 -0.4022,-0.65081 -2.0804,-0.6666 -4.8443,-0.0456 -3.4401,0.77294 -4.4411,0.66009 -5.3661,-0.60498 -1.3658,-1.86781 -3.3902,-2.04511 -3.4844,-0.30516 -0.037,0.6875 -0.556,0.2375 -1.1528,-1 -0.9028,-1.87196 -1.9416,-2.2678 -6.1823,-2.35596 -7.6082,-0.15817 -10.9915,0.17263 -12.0336,1.17657 -0.5612,0.54068 -1.5873,0.31289 -2.5613,-0.56855 -1.2305,-1.11354 -2.4076,-1.2462 -4.8479,-0.54633 -3.1565,0.90525 -12.7788,-0.24773 -16.1861,-1.93947 -0.8424,-0.41826 -6.5435,-0.62386 -12.6693,-0.45688 -9.6142,0.26208 -11.2244,0.0774 -11.7721,-1.34986 -0.5079,-1.32363 -0.7999,-1.3859 -1.4635,-0.31219 -0.688,1.11332 -1.6562,1.08073 -5.6962,-0.19174 -2.6769,-0.84317 -6.5788,-1.44231 -8.6708,-1.33144 -2.1169,0.1122 -4.2776,-0.36951 -4.8725,-1.08628 -0.5878,-0.70831 -1.6189,-1.28785 -2.2914,-1.28785 -1.665,0 -4.5325,-3.30091 -4.5325,-5.21763 0,-0.8721 -0.7718,-1.4989 -1.75,-1.42126 -1.3092,0.1039 -1.9032,-0.86875 -2.3581,-3.86111 l -0.6081,-4 -0.1419,3.75 c -0.1669,4.40957 -1.5772,4.89006 -2.9353,1 l -0.96,-2.75 -0.7317,2.75 c -0.4024,1.5125 -1.1633,2.75 -1.6907,2.75 -0.5274,0 -0.6754,-1.0125 -0.3289,-2.25 0.6101,-2.17884 0.567,-2.17141 -1.3642,0.23506 -2.6921,3.35458 -3.7217,1.92937 -2.222,-3.07597 1.6295,-5.43877 0.9064,-5.88514 -1.3283,-0.82 -1.948,4.41513 -4.2901,5.99935 -5.6401,3.81499 -0.632,-1.02264 -1.1514,-1.09341 -1.9756,-0.26921 -1.2511,1.25117 -7.7137,0.16359 -10.9177,-1.83734 -1.4694,-0.91764 -2.2336,-0.88786 -3.4662,0.13508 -1.0564,0.87671 -1.5812,0.93972 -1.5812,0.18983 0,-0.61734 -1.275,-1.12244 -2.8333,-1.12244 -1.5584,0 -3.1668,-0.33347 -3.5744,-0.74104 -0.4076,-0.40757 -4.6029,-0.8529 -9.323,-0.98963 -4.72,-0.13673 -8.8219,-0.48861 -9.1153,-0.78196 -0.2933,-0.29336 0.452,-1.22354 1.6563,-2.06707 1.2043,-0.84354 2.1897,-2.01329 2.1897,-2.59945 0,-0.68866 -0.5155,-0.63789 -1.457,0.1435 -1.1524,0.95638 -1.9122,0.89045 -3.6337,-0.31533 -1.9251,-1.34841 -2.3482,-1.35296 -3.6618,-0.0394 -1.3136,1.31359 -1.6828,1.3064 -3.1951,-0.0622 -0.9404,-0.85108 -3.1369,-1.54742 -4.8811,-1.54742 -1.7442,0 -3.1713,-0.43588 -3.1713,-0.96862 0,-0.53273 -0.675,-0.70959 -1.5,-0.39301 -0.825,0.31659 -1.5,0.0577 -1.5,-0.57522 0,-0.63295 -0.6269,-1.0186 -1.3931,-0.85699 -0.7661,0.16161 -2.5416,-0.94038 -3.9455,-2.44887 -1.4193,-1.52517 -2.8247,-2.30202 -3.1659,-1.75 -0.9322,1.5083 -2.3407,1.19641 -4.1523,-0.91948 -0.9005,-1.0517 -2.1881,-1.70084 -2.8612,-1.44253 -0.6732,0.25832 -1.5123,-0.28188 -1.8648,-1.20043 -0.5202,-1.3556 -0.9211,-1.43752 -2.129,-0.43503 -1.1648,0.9667 -1.8046,0.97247 -2.9444,0.0265 -0.8009,-0.66469 -1.9562,-0.89951 -2.5673,-0.52182 -0.6436,0.39777 -1.3464,-0.21323 -1.6704,-1.45218 -0.5427,-2.07516 -0.6375,-2.05266 -3.1827,0.75532 -3.0619,3.37794 -7.723,4.66808 -8.6008,2.38058 -0.4849,-1.26357 -0.8026,-1.19962 -1.9787,0.39825 -1.3281,1.80434 -1.4371,1.8104 -2.0938,0.11624 -0.8146,-2.10182 -6.5577,-4.71271 -10.3665,-4.71271 -3.9505,0 -11.1645,-6.97466 -10.3672,-10.02332 0.4244,-1.62305 0.251,-2.0746 -0.5956,-1.55135 -1.7996,1.1122 -9.1208,-0.40552 -9.1208,-1.89078 0,-2.00139 -2.259,-3.41081 -6.5631,-4.09476 -2.1653,-0.34409 -5.3994,-0.85804 -7.1869,-1.14211 -1.7875,-0.28407 -3.2517,-1.02976 -3.2537,-1.65709 0,-0.62732 -1.9146,-1.94268 -4.25,-2.92301 -2.3355,-0.98034 -5.1198,-2.44284 -6.1874,-3.25 -1.9215,-1.45274 -1.9215,-1.48242 0,-2.93578 1.8663,-1.41159 1.8398,-1.46942 -0.6865,-1.5 -1.4451,-0.0175 -3.2162,-0.74119 -3.9358,-1.60822 -0.9206,-1.10925 -2.2494,-1.39987 -4.484,-0.98067 -2.244,0.42098 -3.5633,0.1286 -4.4972,-0.99667 -2.5593,-3.08377 -9.3384,-5.7686 -14.7923,-5.85838 -4.524,-0.0745 -5.6971,-0.50671 -7.702,-2.83786 -2.6263,-3.05359 -3.6967,-3.52763 -2.8227,-1.25 0.498,1.29792 -0.7007,2.01303 -2.0953,1.25 -1.3005,-0.7115 -3.5339,4.43815 -4.1299,9.52238 -0.3721,3.1748 -1.0673,6.01386 -1.5449,6.30901 -0.4776,0.29516 -0.8683,2.08509 -0.8683,3.97763 0,1.89254 -0.5001,3.44098 -1.1113,3.44098 -0.7284,0 -0.8851,1.20576 -0.4547,3.5 0.5988,3.19175 0.4501,3.5 -1.6887,3.5 -1.2899,0 -2.8073,0.46196 -3.3719,1.02658 -0.5646,0.56461 -3.4671,1.28504 -6.45,1.60094 -2.9829,0.31591 -8.649,1.65395 -12.5914,2.97343 -3.9424,1.31948 -8.1049,2.39905 -9.25,2.39905 -1.3816,0 -2.082,0.64162 -2.082,1.9074 0,1.71606 -0.6771,1.87906 -6.75,1.62488 -6.4011,-0.26791 -10.033,-1.3877 -18.3861,-5.66873 -1.9999,-1.02495 -4.0778,-1.86355 -4.6175,-1.86355 -0.5398,0 -1.4487,2.1375 -2.02,4.75 -1.482,6.77823 -7.0051,20.79487 -10.5236,26.70693 -1.6507,2.77369 -4.3417,7.74307 -5.98,11.04307 -1.6382,3.3 -4.4159,8.025 -6.1726,10.5 -1.7566,2.475 -4.9377,8.1 -7.069,12.5 -2.1313,4.4 -5.8115,11.0038 -8.1782,14.67511 -2.3666,3.6713 -4.303,7.01087 -4.303,7.42126 0,0.41038 -0.615,1.45658 -1.3668,2.32489 -0.7517,0.86831 -3.5178,5.62874 -6.147,10.57874 -2.6291,4.95 -5.9291,10.8 -7.3332,13 -1.4042,2.2 -4.0295,7.05629 -5.834,10.79176 -1.8045,3.73547 -4.3657,8.23547 -5.6914,10 -2.0853,2.77531 -10.521,21.03244 -14.6508,31.70824 -0.7447,1.925 -2.3284,5.075 -3.5194,6.99999 -2.0318,3.2842 -10.2338,19.2113 -13.9041,27 -0.9071,1.925 -3.1852,5.975 -5.0624,9 -1.8772,3.025 -3.4306,6.0715 -3.452,6.77 -0.021,0.6986 -1.7967,4.9736 -3.9452,9.5 -2.1484,4.5265 -5.1287,11.38 -6.6228,15.23 -1.4941,3.85 -3.9465,9.7039 -5.4498,13.0087 -1.5032,3.3049 -3.0512,7.1299 -3.44,8.5 -0.3887,1.3702 -1.0809,3.3913 -1.5382,4.4913 -2.788,6.707 -13.0427,41.3874 -13.0434,44.1116 -3e-4,1.0386 -0.9194,4.3061 -2.0426,7.2611 -3.7492,9.8645 -2.6547,39.6383 2.4125,65.6273 3.3871,17.3714 8.7022,36.7622 12.746,46.5 1.0278,2.475 2.2817,6.4447 2.7864,8.8216 0.5048,2.3768 1.5791,5.0768 2.3874,6 0.8083,0.9231 2.194,3.109 3.0792,4.8575 2.1689,4.2837 4.5304,4.8062 12.6869,2.8074 7.8631,-1.927 13.0345,-1.1923 21.9788,3.1226 2.7258,1.315 5.5208,2.3953 6.211,2.4007 5.2217,0.041 24.76,14.9165 29.997,22.8388 2.0463,3.0956 7.3008,16.2788 6.957,17.455 -0.1291,0.4419 0.4482,1.4866 1.283,2.3214 0.8349,0.8348 1.5179,1.9092 1.5179,2.3875 0,2.3125 -24.8801,21.8381 -31.5,24.7208 -2.2,0.958 -6.925,3.2418 -10.5,5.0751 -15.0743,7.7301 -31.2598,12.599 -37.331,11.2297 -1.7849,-0.4025 -6.9976,-0.5147 -11.5838,-0.2492 -5.5844,0.3233 -10.6915,-0.04 -15.4619,-1.1001 -3.9178,-0.8706 -11.1211,-2.0784 -16.0072,-2.6839 -4.8862,-0.6055 -10.6058,-1.9793 -12.7102,-3.0529 -2.1044,-1.0736 -4.4066,-1.9613 -5.1161,-1.9728 -1.78,-0.029 -8.7985,-11.2 -11.6076,-18.4758 -5.0578,-13.1004 -7.3687,-21.2423 -10.7127,-37.7444 -0.7513,-3.7076 -3.3841,-12.7076 -5.8506,-20 -2.4666,-7.2925 -5.2207,-17.2156 -6.1203,-22.0515 -0.8995,-4.8358 -2.4836,-11.2573 -3.5201,-14.2699 -1.0365,-3.0127 -2.3577,-8.0561 -2.936,-11.2076 -0.5783,-3.1515 -3.0361,-9.78 -5.4618,-14.73 -4.9447,-10.0905 -7.5807,-18.1055 -7.5807,-23.0497 0,-4.1553 -1.8033,-9.0842 -2.8769,-7.8631 -0.4414,0.502 -1.37617,2.4878 -2.07727,4.4128 -1.4096,3.8703 -3.61809,8.8619 -7.36425,16.6445 -1.36197,2.8294 -2.78325,6.5419 -3.1584,8.25 -0.37515,1.708 -1.003,3.1055 -1.39523,3.1055 -0.75814,0 -2.36323,5.3846 -4.7694,16 -0.81034,3.575 -2.46618,15.275 -3.67963,26 -1.93097,17.0666 -2.11977,22.3343 -1.51297,42.2122 0.79729,26.1181 2.74835,38.3135 8.65812,54.119 2.83261,7.5757 4.84879,11.1623 8.78829,15.6335 2.81181,3.1913 5.42924,7.0649 5.81644,8.6079 0.3873,1.543 1.5743,4.0273 2.6377,5.5208 1.0634,1.4934 1.9335,3.3474 1.9335,4.1198 0,0.7725 0.6607,2.278 1.4682,3.3457 0.8075,1.0676 1.4825,2.5002 1.5,3.1835 0.054,2.1196 4.1801,6.1509 12.5845,12.2962 9.4642,6.92 14.5256,13.6499 18.0087,23.9449 1.3233,3.9115 4.1361,10.1278 6.2506,13.8141 6.136,10.697 7.538,15.3921 6.7297,22.5363 -0.3824,3.3805 -1.1729,6.7217 -1.7565,7.4249 -1.0146,1.2226 -0.7239,6.9305 0.7805,15.3261 l 0.6424,3.5848 -13.854,1.2077 c -7.6198,0.6643 -14.9791,1.4416 -16.3541,1.7275 -1.375,0.2859 -2.95,0.1326 -3.5,-0.3408 z M 1518.2259,576.4322 c 0.084,-0.61803 0.2193,-1.57369 0.3011,-2.12369 0.082,-0.55 0.9592,-3.39165 1.9496,-6.31478 0.9904,-2.92313 1.5377,-5.57785 1.2162,-5.89937 -0.3215,-0.32152 -3.1799,-1.45621 -6.3519,-2.52153 -6.0357,-2.02707 -9.8807,-4.50878 -17.0933,-11.03271 -2.3793,-2.15211 -4.585,-3.65396 -4.9015,-3.33744 -0.3165,0.31652 1.0723,3.24507 3.0862,6.5079 3.7262,6.03695 5.6413,13.01921 5.6413,20.56775 0,2.30827 0.191,4.38435 0.4245,4.61351 1.043,1.02393 15.5843,0.59897 15.7278,-0.45964 z m -40.6343,-35.04351 c 3.5282,-2.31181 5.8276,-10.69476 4.3166,-15.73782 -1.3344,-4.45398 -1.8256,-4.6594 -3.8074,-1.59236 -2.772,4.28999 -4.7104,11.30444 -5.3218,19.25756 l -0.6143,7.99244 1.512,-4.17271 c 0.8316,-2.29499 2.5933,-4.88119 3.9149,-5.74711 z m 65.6651,5.98813 c 4.7757,-0.20218 9.1988,-0.68629 9.829,-1.0758 0.7697,-0.47567 0.9205,-2.34684 0.4595,-5.69898 -0.5191,-3.77431 -0.2467,-6.00264 1.1175,-9.14215 0.9922,-2.28326 1.9725,-4.37085 2.1784,-4.63908 0.6799,-0.88535 19.7253,0.12814 20.0658,1.06779 0.886,2.44494 3.5235,0.38215 5.7613,-4.50575 2.9336,-6.40777 4.5086,-20.46843 3.1393,-28.02415 -0.4934,-2.72239 -1.8729,-6.72068 -3.0655,-8.88509 -1.1926,-2.1644 -3.1765,-5.89949 -4.4087,-8.30019 -1.7443,-3.39865 -2.7958,-4.36491 -4.75,-4.36491 -2.5154,0 -5.8599,-2.55048 -6.7172,-5.12265 -0.7318,-2.19511 -7.7396,2.03936 -8.4778,5.12265 -0.3292,1.375 -1.469,4.23688 -2.5329,6.35974 -1.7391,3.47004 -2.2319,3.80024 -4.8809,3.27044 -2.8251,-0.56501 -3.0899,-0.29476 -6.4237,6.55555 -1.9125,3.92966 -3.4772,7.73689 -3.4772,8.46051 0,1.8991 -4.2536,2.68749 -11.4033,2.11358 -3.8721,-0.31081 -6.7737,-0.0717 -7.664,0.63141 -1.9297,1.52415 -5.9327,7.28168 -5.9327,8.53309 0,2.05282 -3.5618,2.96602 -7.5653,1.93967 -8.2085,-2.10431 -14.7582,-2.94051 -15.6949,-2.00376 -1.2982,1.29815 -0.1756,4.31634 3.1721,8.52895 1.5581,1.96058 4.2496,6.41362 5.9811,9.89564 3.5604,7.15984 10.7271,14.74446 17.2241,18.22854 3.5452,1.90112 5.4342,2.2617 9.8829,1.88646 3.025,-0.25514 9.4074,-0.62932 14.1831,-0.83151 z"
     id="path2987"
     inkscape:connector-curvature="0" />
</svg>
