<?xml version="1.0" encoding="UTF-8" standalone="no"?>
<!-- Created with Inkscape (http://www.inkscape.org/) -->

<svg
   xmlns:dc="http://purl.org/dc/elements/1.1/"
   xmlns:cc="http://creativecommons.org/ns#"
   xmlns:rdf="http://www.w3.org/1999/02/22-rdf-syntax-ns#"
   xmlns:svg="http://www.w3.org/2000/svg"
   xmlns="http://www.w3.org/2000/svg"
   xmlns:sodipodi="http://sodipodi.sourceforge.net/DTD/sodipodi-0.dtd"
   xmlns:inkscape="http://www.inkscape.org/namespaces/inkscape"
   id="svg2"
   version="1.1"
   inkscape:version="0.48.2 r9819"
   width="1194.4536"
   height="1019.5414"
   sodipodi:docname="Hound_(Fox-hound)_(PSF)d.png">
  <metadata
     id="metadata8">
    <rdf:RDF>
      <cc:Work
         rdf:about="">
        <dc:format>image/svg+xml</dc:format>
        <dc:type
           rdf:resource="http://purl.org/dc/dcmitype/StillImage" />
        <dc:title></dc:title>
      </cc:Work>
    </rdf:RDF>
  </metadata>
  <defs
     id="defs6" />
  <sodipodi:namedview
     pagecolor="#ffffff"
     bordercolor="#666666"
     borderopacity="1"
     objecttolerance="10"
     gridtolerance="10"
     guidetolerance="10"
     inkscape:pageopacity="0"
     inkscape:pageshadow="2"
     inkscape:window-width="1920"
     inkscape:window-height="1176"
     id="namedview4"
     showgrid="false"
     fit-margin-top="0"
     fit-margin-left="0"
     fit-margin-right="0"
     fit-margin-bottom="0"
     inkscape:zoom="0.70710678"
     inkscape:cx="626.25458"
     inkscape:cy="489.36763"
     inkscape:window-x="0"
     inkscape:window-y="24"
     inkscape:window-maximized="1"
     inkscape:current-layer="svg2" />
  <path
     style="fill:#000000"
     d="m 412.72387,1018.0848 c -1.50915,-0.7938 -3.02044,-2.545 -3.35841,-3.8915 -0.49367,-1.967 -1.25092,-2.4484 -3.8511,-2.4484 -1.89506,0 -3.94016,-0.7774 -4.934,-1.8756 -1.6025,-1.7707 -1.5643,-2.1761 0.68332,-7.25 1.3094,-2.95604 3.12848,-5.99204 4.04241,-6.74694 0.91393,-0.7548 1.66169,-2.156 1.66169,-3.1136 0,-0.95767 1.02468,-2.81507 2.27707,-4.12757 3.15439,-3.30579 6.90667,-8.66955 9.24924,-13.22149 2.95459,-5.74116 9.61941,-11.34111 18.54151,-15.57909 10.33559,-4.90937 20.17451,-11.72766 22.44593,-15.55485 8.1146,-13.67255 12.56212,-28.43683 13.56488,-45.03093 0.39884,-6.6 1.41597,-21.675 2.26031,-33.5 0.84433,-11.825 1.56321,-31.23529 1.5975,-43.13397 0.053,-18.38034 -0.32805,-24.24573 -2.53348,-39 -1.4277,-9.55132 -3.02583,-22.09103 -3.55139,-27.86603 -0.52556,-5.775 -1.83206,-15 -2.90332,-20.5 -1.07127,-5.5 -2.40967,-15.85 -2.97423,-23 -2.17881,-27.59422 -5.15691,-47.93999 -8.77797,-59.96932 -1.65588,-5.50088 -2.06705,-6.02457 -5.23969,-6.67344 -1.89354,-0.38727 -3.65751,-0.48942 -3.91993,-0.22701 -1.02977,1.02978 -1.15612,14.40111 -0.23027,24.36977 0.53636,5.775 0.70932,10.94026 0.38437,11.47836 -0.32496,0.53809 -0.66839,7.51309 -0.76319,15.5 -0.0948,7.9869 -0.46061,17.22164 -0.81292,20.52164 -1.09241,10.23245 -3.66912,31.50482 -5.14799,42.5 -0.77675,5.775 -2.36,17.91297 -3.51832,26.97327 -1.15833,9.0603 -2.2816,16.75731 -2.49616,17.10448 -0.21456,0.34716 -0.63682,4.06291 -0.93837,8.25723 -0.30154,4.19431 -0.99045,8.78909 -1.53092,10.21062 -1.25412,3.2986 -1.26756,5.45332 -0.0217,3.48336 1.83035,-2.89421 1.92517,-0.26841 0.44855,12.4218 -0.93502,8.03568 -1.1396,13.09801 -0.54418,13.46599 0.52475,0.32432 0.94142,4.63822 0.92594,9.58646 -0.0155,4.94823 0.16446,13.25422 0.39988,18.45775 0.46715,10.32605 -0.54099,13.03904 -4.8453,13.03904 -2.35459,0 -6.34585,4.65702 -6.34585,7.40437 0,0.8776 -0.40456,1.59563 -0.89903,1.59563 -1.41843,0 -5.161,7.84486 -4.06556,8.52188 1.62496,1.00429 1.0728,2.47812 -0.92842,2.47812 -2.12085,0 -3.34155,2.22518 -2.46862,4.5 0.31659,0.825 0.14594,1.5 -0.3792,1.5 -0.52515,0 -0.99128,1.28285 -1.03586,2.85078 -0.0446,1.56793 -1.23807,4.55573 -2.65218,6.63955 -1.41412,2.08382 -2.57281,4.51347 -2.57487,5.39922 -0.002,0.88575 -0.88408,3.05426 -1.96005,4.81893 -1.07597,1.76466 -2.25959,5.58966 -2.63026,8.5 -0.37067,2.91033 -1.05338,6.03024 -1.51712,6.93312 -1.38411,2.69477 -9.85633,7.07819 -14.27211,7.38421 -2.26419,0.15691 -4.79172,0.52622 -5.61672,0.82069 -0.825,0.29446 -4.2,1.06074 -7.5,1.70283 -3.3,0.64208 -6.51183,1.5817 -7.1374,2.08804 -0.62557,0.50634 -6.47557,0.91532 -13,0.90885 -6.79393,-0.007 -15.19742,0.6547 -19.66734,1.54802 -8.52329,1.70339 -10.68126,1.10566 -10.71057,-2.96668 -0.0107,-1.48615 -0.26143,-1.73967 -0.83166,-0.84094 -0.64531,1.01707 -1.84188,0.84703 -5.71137,-0.81163 -4.16859,-1.78686 -5.52074,-1.9407 -9.11117,-1.03662 -2.31887,0.58389 -4.5961,1.06163 -5.06051,1.06163 -1.22176,0 -1.35238,-3.95601 -0.26248,-7.94947 0.7537,-2.76158 0.60416,-3.82216 -0.74986,-5.31834 -1.52521,-1.68533 -1.54432,-2.13074 -0.19457,-4.53549 0.8232,-1.46664 3.20746,-3.62622 5.29835,-4.79907 2.09089,-1.17286 7.27365,-5.46416 11.51723,-9.53624 8.79892,-8.44329 15.74787,-12.24369 25.12135,-13.7389 16.43413,-2.62149 20.65703,-3.4059 22.79991,-4.23511 1.50804,-0.58356 3.50377,-3.42497 5.7964,-8.2526 2.94686,-6.20525 3.6306,-8.99526 4.34964,-17.7487 0.46924,-5.71234 1.3826,-12.44739 2.02969,-14.96677 0.83822,-3.26355 1.05773,-15.34034 0.76339,-42 -0.34586,-31.3263 -0.68618,-38.31488 -2.09003,-42.91931 -0.9223,-3.025 -1.939,-10.675 -2.25932,-17 -0.32033,-6.325 -1.43478,-15.91483 -2.47656,-21.31073 -6.03035,-31.23424 -7.91071,-49.77034 -7.91199,-77.99413 -10e-4,-23.11258 -0.14523,-25.12119 -2.11331,-29.4414 -1.1617,-2.55009 -2.32261,-7.3629 -2.57979,-10.69513 -0.46874,-6.07327 -1.07898,-8.06661 -7.77532,-25.39762 -1.98461,-5.13646 -4.29285,-13.01146 -5.1294,-17.5 -1.86506,-10.00705 -8.989,-43.67682 -10.40161,-49.16099 -4.69219,-18.21653 -5.04917,-21.25992 -4.5251,-38.57774 l 0.514,-16.98534 -3.88049,-7.71846 c -2.13427,-4.24515 -4.46489,-9.74346 -5.17916,-12.21846 -0.71426,-2.475 -1.8745,-5.175 -2.5783,-6 -0.7038,-0.825 -4.87501,-5.50443 -9.26936,-10.39872 -4.39434,-4.8943 -8.27266,-10.18701 -8.6185,-11.76157 -0.76268,-3.4725 -13.46479,-19.77454 -13.46479,-17.28089 0,1.06184 -1.16438,0.0238 -2.9818,-2.65834 -1.63999,-2.42026 -2.98999,-4.92345 -3,-5.56264 -0.01,-0.63918 -3.15743,-5.13918 -6.99427,-10 -3.83683,-4.86081 -6.89861,-9.28784 -6.80395,-9.83784 0.29462,-1.71174 -1.30564,-5.5 -2.32334,-5.5 -0.53272,0 -2.67131,-3.4875 -4.75241,-7.75 -2.0811,-4.2625 -5.01348,-10.14406 -6.51641,-13.07014 l -2.7326,-5.32014 -2.23599,3.32014 c -1.79469,2.66486 -3.11656,3.44611 -6.69761,3.95837 -5.24736,0.75064 -12.64122,-0.42062 -17.211,-2.72639 -3.77014,-1.9023 -8.75062,-6.33289 -8.75062,-7.78448 0,-0.54915 -0.94994,-2.00962 -2.11098,-3.24549 -1.24306,-1.32318 -2.99042,-5.84077 -4.25,-10.98788 l -2.13902,-8.74085 -6.85745,-2.2176 c -3.7716,-1.21969 -9.6216,-2.75655 -13,-3.41527 -3.3784,-0.65871 -10.41755,-2.92126 -15.64255,-5.02789 -16.01627,-6.45748 -33.84857,-7.11013 -54.5,-1.99465 -2.75,0.68119 -5.68058,1.57241 -6.51241,1.98049 -0.83182,0.40808 -2.63182,0.62957 -4,0.4922 -1.36817,-0.13738 -7.65425,-0.54586 -13.969064,-0.90774 -6.31481,-0.36188 -13.51481,-1.13222 -16,-1.71188 -2.48519,-0.57965 -6.76853,-1.21771 -9.518527,-1.41791 -2.75,-0.2002 -6.61813,-0.53518 -8.59584,-0.74439 -4.1998,-0.44428 -13.75092,-5.06383 -17.32861,-8.38125 -1.36854,-1.26899 -3.08129,-2.30725 -3.80611,-2.30725 -0.72482,0 -3.78196,-2.7532 -6.79365,-6.11823 -3.01168,-3.36503 -7.3228,-7.97753 -9.58025,-10.25 -2.25746,-2.27247 -5.08786,-6.06144 -6.28979,-8.41993 -2.30691,-4.52673 -5.13517,-8.2168 -8.8557502,-11.55422 -1.2375,-1.11006 -2.25,-2.51664 -2.25,-3.12573 0,-0.60909 -1.33171,-2.66544 -2.95936,-4.56966 -4.21787,-4.93459 -4.01792,-8.6301 0.70936,-13.11046 4.82596,-4.57388 15.3702402,-10.85177 18.2265202,-10.85177 1.21819,0 3.40933,-0.60826 4.86919,-1.3517 1.45986,-0.74343 7.37929,-3.68215 13.15429,-6.53047 5.775,-2.84833 12.075,-6.04099 14,-7.0948 1.925,-1.05381 6.99666,-2.84476 11.27035,-3.9799 8.717877,-2.31556 23.626447,-9.34284 30.610787,-14.42866 2.54037,-1.84983 6.526524,-4.32651 8.858124,-5.50374 2.33159,-1.17723 5.70659,-3.7403 7.5,-5.69572 3.21615,-3.50669 9.76074,-14.52859 9.76074,-16.43831 0,-2.47755 9.31037,-8.91579 21.32159,-14.74414 7.23413,-3.51031 13.38369,-6.69859 13.66569,-7.08507 1.54494,-2.11736 16.96599,-7.08865 37.51272,-12.09299 7.15,-1.74145 16.11112,-4.09078 19.9136,-5.22074 6.0133,-1.78694 9.72459,-2.06081 28.5,-2.10313 16.5651,-0.0373 23.09839,0.32418 28.0864,1.55417 3.575,0.88156 9.74829,2.36907 13.71843,3.30559 3.97013,0.93652 7.03516,1.9993 6.81116,2.36173 -0.22399,0.36242 1.14712,1.49604 3.04692,2.51915 1.8998,1.02311 4.99398,3.69812 6.87597,5.94446 8.43686,10.07029 14.64485,15.58879 23.54752,20.93223 5.225,3.13607 12.2,7.46078 15.5,9.61045 3.3,2.14968 8.91523,5.31288 12.47828,7.02933 3.56305,1.71646 8.81431,4.6714 11.66947,6.56655 2.85515,1.89514 5.85428,3.44571 6.66473,3.44571 0.81045,0 1.70881,0.61309 1.99636,1.36243 0.56376,1.46914 10.69116,8.05646 10.69116,6.95401 0,-0.36579 1.0125,0.23644 2.25,1.33828 1.2375,1.10184 6.075,4.6436 10.75,7.87057 17.94436,12.38632 24.86281,18.72209 59.94153,54.89309 6.35716,6.55511 11.63023,11.73011 11.71794,11.5 0.0877,-0.23011 3.04741,1.49412 6.57711,3.83162 3.52971,2.3375 6.70046,4.25 7.04613,4.25 0.34566,0 2.28625,1.125 4.31243,2.5 2.02617,1.375 4.47301,2.5 5.43742,2.5 0.9644,0 2.02326,0.70308 2.35301,1.56239 0.47881,1.24776 1.51567,1.425 5.14897,0.88016 3.1116,-0.46661 5.8793,-0.19602 8.7574,0.85616 2.7965,1.02233 9.4074,1.71015 19.7081,2.05047 14.86,0.49096 24.6174,2.13565 38.9934,6.57262 1.9213,0.59301 5.5719,1.0782 8.1124,1.0782 2.5405,0 9.9685,1.07499 16.5066,2.38886 6.5382,1.31387 17.0248,2.64567 23.3036,2.95956 6.2788,0.31389 11.6788,0.94146 12,1.3946 0.3212,0.45314 2.384,0.76741 4.584,0.69837 2.2,-0.069 10.075,-0.25873 17.5,-0.42153 14.0388,-0.30782 21.3162,-1.00981 36.5,-3.52081 8.3538,-1.3815 25.6472,-2.22802 61.5,-3.01042 7.975,-0.17403 19.8884,-0.76697 26.4743,-1.31764 7.7562,-0.64851 12.6132,-0.65933 13.7878,-0.0307 0.9974,0.53378 2.5839,0.73899 3.5256,0.45603 6.0374,-1.81407 32.7646,-2.70616 48.6419,-1.62356 25.5901,1.74487 59.7908,4.84895 71.0704,6.45039 31.7526,4.50812 46.7756,6.82725 53,8.18168 7.84756,1.70767 15.95516,2.95511 28.49996,4.38504 17.04702,1.94312 23.62592,2.94262 29.76672,4.52227 5.9337,1.52639 10.2333,1.33388 10.2333,-0.45821 0,-0.44621 1.4625,-1.39445 3.25,-2.10721 1.7875,-0.71275 4.4445,-2.11734 5.9044,-3.12132 1.4599,-1.00397 3.1461,-1.8254 3.7472,-1.8254 1.2752,0 11.2447,-7.26756 15.5984,-11.371 1.65,-1.55514 6.825,-5.33424 11.5,-8.39802 4.675,-3.06377 8.725,-5.8344 9,-6.15696 0.275,-0.32255 3.3288,-3.00477 6.7861,-5.96047 11.8161,-10.10156 30.2083,-33.84942 37.9189,-48.96042 2.4105,-4.72414 4.7005,-8.8287 5.0889,-9.12124 1.0422,-0.7851 4.2061,-7.88556 4.2061,-9.43954 0,-0.73689 1.7744,-5.33744 3.9432,-10.22345 3.6364,-8.1925 7.0135,-19.00357 10.0329,-32.1189 0.8969,-3.89571 0.9298,-6.47531 0.1274,-10 -0.5948,-2.6125 -1.5336,-9.07797 -2.0862,-14.36772 -0.5527,-5.28974 -2.1716,-13.0915 -3.5976,-17.33724 -1.4686,-4.37257 -2.3412,-8.72149 -2.0127,-10.03049 0.6322,-2.5188 -1.687,-9.21302 -8.6663,-25.01455 -2.4293,-5.500002 -5.2215,-13.800562 -6.2049,-18.445688 -0.9834,-4.645126 -2.7881,-11.395126 -4.0103,-15 -1.2222,-3.604874 -2.554,-8.338766 -2.9596,-10.519761 -0.4055,-2.180995 -1.3717,-5.192032 -2.1469,-6.691194 -2.5565,-4.943795 -6.235,-41.916033 -4.9938,-50.1928008 L 1113.0521,0 l 4.7078,0.5233961 c 6.6182,0.735779 9.2079,2.6584831 9.2079,6.8364401 0,2.342213 0.4621,3.3849898 1.5,3.3849898 1.0535,0 1.5,-1.0637028 1.5,-3.5733238 0,-2.863269 0.3477,-3.5072 1.75,-3.240555 1.4157,0.269197 1.8455,1.70977 2.25,7.5406308 0.3281,4.72984 1.0502,7.757059 2.1005,8.805322 1.467,1.464237 1.5921,1.073288 1.5,-4.687727 -0.084,-5.233215 0.1924,-6.3442568 1.6495,-6.6380928 1.2884,-0.259815 1.75,0.296573 1.75,2.1093108 0,1.731208 0.5196,2.420978 1.75,2.323324 1.4125,-0.1121 1.8104,0.817147 2.0632,4.817815 0.2259,3.574713 0.5797,4.550556 1.269,3.5 2.628,-4.005292 5.0338,7.652183 4.0568,19.657152 -0.095,1.162621 0.5796,2.737621 1.4983,3.5 1.5448,1.28197 1.6163,0.82249 0.9515,-6.113856 -0.3953,-4.125 -0.9633,-8.5125 -1.2622,-9.75 -0.7845,-3.248044 2.4482,-2.972607 3.6982,0.3151 0.5363,1.410804 0.9752,7.174796 0.9752,12.80887 0,7.626882 0.3868,10.739655 1.5142,12.1849 1.3898,1.781658 1.4945,1.391337 1.2755,-4.751059 -0.1313,-3.680703 0.057,-6.988264 0.4193,-7.350135 1.2266,-1.226654 2.5616,0.50587 3.2605,4.231657 0.383,2.041283 1.394,4.221598 2.2468,4.845143 0.8527,0.623546 1.9072,3.120875 2.3433,5.549622 0.436,2.428746 1.4531,6.890902 2.2601,9.915902 l 1.4674,5.5 -0.1436,-6 c -0.081,-3.393319 0.2909,-6.027879 0.8565,-6.06417 1.0607,-0.06807 3.3816,7.530411 3.4559,11.31417 0.024,1.2375 0.4501,2.25 0.9463,2.25 1.1453,0 3.0978,5.52443 3.0978,8.765009 0,2.194926 1.926,9.143689 4.0841,14.734993 0.4246,1.1 1.0696,3.800002 1.4334,6.000002 0.3638,2.2 1.0833,4.51068 1.5989,5.13484 0.5155,0.62416 1.2153,4.11166 1.5551,7.75 0.3397,3.63834 1.0026,6.61516 1.4731,6.61516 1.3934,0 0.9054,21.95325 -0.6446,29 -0.7864,3.575 -1.4159,8.525 -1.3991,11 l 0.031,4.5 1.4514,-5.5 c 2.1441,-8.12473 2.3237,-8.49334 3.5433,-7.27368 1.0045,1.00445 0.083,10.03985 -1.761,17.27368 -0.5243,2.05638 -0.4003,2.27819 0.6987,1.25 3.3768,-3.15941 4.4681,0.46463 2.304,7.65174 -0.9271,3.07905 -1.5827,6.81226 -1.4569,8.29605 0.1258,1.48378 -0.7028,4.80349 -1.8412,7.37712 -2.4711,5.58636 -2.4624,5.51293 -0.5699,4.78672 2.0678,-0.79348 1.8644,1.26794 -0.6549,6.63837 -1.2745,2.71688 -2.1573,6.7092 -2.228,10.07528 -0.1288,6.13423 -2.9117,11.51958 -13.1762,25.49815 -6.2051,8.45035 -8.5624,14.08157 -3.5275,8.42657 1.7139,-1.925 4.0187,-5.1875 5.1217,-7.25 1.1031,-2.0625 2.6714,-3.75 3.4852,-3.75 0.8138,0 1.4797,0.20973 1.4797,0.46607 0,0.97364 -3.5115,8.14874 -5.2609,10.74974 -1.0046,1.49369 -2.4937,4.96215 -3.309,7.70769 -1.5977,5.38003 -6.0175,11.83902 -13.1454,19.21046 -3.1094,3.21558 -4.0683,4.79871 -3.1328,5.1722 0.9251,0.36933 -0.062,1.89631 -3.1448,4.86604 -2.4712,2.38029 -4.3791,4.67889 -4.24,5.108 0.4683,1.44401 -2.5694,6.19377 -6.1818,9.66597 -1.9719,1.89539 -3.5853,3.97228 -3.5853,4.61531 0,0.64302 -4.725,5.12596 -10.5,9.96208 -5.775,4.83611 -10.5,9.19321 -10.5,9.68244 0,0.48922 -1.2375,2.0167 -2.75,3.3944 -1.5125,1.3777 -4.55,4.18007 -6.75,6.2275 -2.2,2.04742 -7.15,6.27838 -11,9.40212 -11.7284,9.51594 -15.0798,13.02106 -18.3559,19.19756 -3.6862,6.94954 -3.7772,8.12944 -1.1968,15.50584 1.0711,3.06162 2.649,8.64472 3.5066,12.40689 0.8576,3.76218 2.2313,7.7998 3.0527,8.97251 0.8213,1.17271 1.4934,2.8834 1.4934,3.80153 0,0.91814 1.9614,3.85551 4.3586,6.5275 4.8999,5.46151 7.8423,10.74002 9.6789,17.36377 1.7119,6.17382 1.307,38.79025 -0.6268,50.49438 -0.8179,4.95 -1.7375,11.025 -2.0436,13.5 -0.3062,2.475 -1.4537,8.325 -2.5502,13 -1.0964,4.675 -2.4008,12.1 -2.8987,16.5 -0.4978,4.4 -1.0963,8.50353 -1.33,9.11897 -0.2337,0.61543 -0.7424,13.89043 -1.1304,29.5 -0.469,18.86375 -1.2379,31.23142 -2.293,36.88103 -1.1013,5.89653 -1.5538,13.81742 -1.4775,25.8607 0.1651,26.07903 0.2209,26.32982 8.6148,38.74168 3.9354,5.81933 10.0899,13.80917 13.6766,17.75519 3.5867,3.94602 8.0782,9.19235 9.9812,11.65851 7.4107,9.60413 26.7139,26.98392 29.9703,26.98392 0.5884,0 1.0698,0.47296 1.0698,1.05103 0,0.57806 1.5877,1.7144 3.5282,2.5252 2.2726,0.94957 4.1161,2.70712 5.1804,4.93883 0.9087,1.90557 2.4418,3.71529 3.4069,4.02161 1.8918,0.60041 3.9384,5.4381 6.3303,14.96333 1.1383,4.5326 1.3797,9.42393 0.9873,20 -0.2857,7.7 -0.5517,21.2 -0.5911,30 -0.039,8.8 -0.6305,21.175 -1.3135,27.5 -0.6831,6.325 -1.0305,16.9 -0.7722,23.5 0.2584,6.6 0.038,14.31775 -0.4887,17.15055 -0.627,3.36971 -0.6137,5.7666 0.039,6.93229 0.5484,0.97996 1.1406,7.21222 1.3161,13.84946 0.1754,6.63723 0.603,15.4427 0.9503,19.5677 0.3472,4.125 0.6647,13.01179 0.7055,19.74843 0.074,12.20699 0.064,12.26112 -2.9695,16 -1.674,2.06336 -3.8908,3.76275 -4.9262,3.77641 -1.0354,0.0136 -2.7825,0.31186 -3.8825,0.66268 -1.1,0.35081 -3.5967,0.9055 -5.5483,1.23263 -2.1486,0.36016 -5.2662,2.14954 -7.9034,4.53617 -2.3954,2.16776 -4.6237,3.8949 -4.9518,3.83808 -0.3281,-0.0568 -2.3375,0.66959 -4.4653,1.61423 -4.7408,2.1046 -19.238,3.1626 -21.1857,1.54612 -0.7468,-0.61981 -1.9174,-0.78115 -2.6012,-0.35852 -1.9923,1.23131 -6.045,1.09749 -10.2143,-0.33729 -3.3262,-1.14463 -4.196,-1.11808 -6.1908,0.18897 -2.9337,1.9222 -12.9668,3.17063 -14.6731,1.82577 -0.6964,-0.54885 -2.4967,-1.29181 -4.0009,-1.65102 -1.7922,-0.42803 -2.9497,-1.50947 -3.3584,-3.13789 -0.343,-1.36662 -1.1373,-2.53507 -1.7652,-2.59655 -9.1866,-0.89954 -13.2938,-2.83756 -12.1066,-5.71266 1.955,-4.73451 1.8134,-5.17504 -1.6684,-5.19087 -4.2059,-0.0191 -5.47,-0.81129 -6.776,-4.24636 -1.0722,-2.82012 -0.5486,-5.73833 1.0295,-5.73833 0.4984,0 3.1443,-2.25 5.8799,-5 2.7356,-2.75 5.1763,-5 5.4238,-5 0.2475,0 2.6159,-2.23309 5.2631,-4.96243 2.6472,-2.72933 6.3881,-6.12283 8.3131,-7.5411 1.925,-1.41828 3.5205,-3.12269 3.5455,-3.78758 0.025,-0.66489 0.6687,-1.0693 1.4306,-0.89869 1.9064,0.42695 8.0239,-2.98756 8.0239,-4.47859 0,-0.66747 0.5419,-1.54848 1.2042,-1.9578 1.6578,-1.02456 18.7852,-3.31511 20.3367,-2.71974 1.7283,0.66321 2.3149,-0.5832 2.6074,-5.54019 0.1376,-2.3332 0.5386,-4.42037 0.891,-4.63816 0.3524,-0.21778 0.7098,-2.77641 0.7942,-5.68584 0.213,-7.33934 1.1619,-15.72331 2.1833,-19.28988 1.0999,-3.84083 1.726,-10.71844 2.5796,-28.33546 l 0.6859,-14.15766 -3.1411,-5.89342 c -1.7277,-3.24138 -3.1412,-6.42198 -3.1412,-7.068 0,-0.64602 -1.3738,-2.33059 -3.053,-3.7435 -3.1074,-2.61471 -8.947,-12.94818 -8.947,-15.83218 0,-3.031 -15.8633,-18.90029 -27.098,-27.10817 -11.5818,-8.4611 -21.7718,-15.36161 -22.6851,-15.36161 -0.4197,0 -3.1546,-1.575 -6.0776,-3.5 -2.923,-1.925 -5.6701,-3.5 -6.1047,-3.5 -0.4347,0 -1.3283,-0.64829 -1.9859,-1.44064 -0.6576,-0.79235 -2.4002,-1.57985 -3.8725,-1.75 -1.4911,-0.17233 -2.5661,-0.86303 -2.4268,-1.55936 0.1375,-0.6875 -0.1151,-1.25 -0.5614,-1.25 -0.4463,0 -1.7044,-0.83184 -2.7956,-1.84854 -1.0913,-1.01669 -2.4716,-2.02919 -3.0673,-2.25 -2.5655,-0.95091 -18.5414,-15.61508 -23.33412,-21.41828 -1.3704,-1.65925 -4.2916,-4.34197 -6.4916,-5.9616 -2.2,-1.61963 -6.025,-4.85203 -8.5,-7.1831 -4.816,-4.53587 -17.51596,-11.75567 -19.03136,-10.81909 -0.5034,0.31114 -1.7023,-0.35344 -2.6642,-1.47684 -0.9619,-1.1234 -2.3153,-2.04255 -3.0076,-2.04255 -1.7515,0 -2.6745,4.39457 -1.8493,8.80429 0.3804,2.03264 0.889,5.04038 1.1302,6.68386 0.2413,1.64349 0.7322,3.89349 1.0911,5 0.3588,1.10652 0.7221,3.8767 0.8074,6.15595 0.085,2.27926 0.8439,5.20426 1.686,6.5 0.8421,1.29575 1.5599,4.52693 1.5952,7.18041 0.04,3.00436 0.6237,5.26799 1.5474,6 1.3199,1.04604 2.5954,5.45067 2.8019,9.67549 0.1066,2.18248 1.84896,8.01688 3.47946,11.65113 0.7776,1.73312 1.4138,4.08474 1.4138,5.22583 0,1.14109 0.8983,3.54808 1.9962,5.34887 1.098,1.80079 1.998,3.91374 2,4.69543 0,0.78169 0.621,2.13169 1.3753,3 0.7543,0.86831 2.1405,3.94124 3.0804,6.82874 0.9398,2.8875 2.1226,5.25 2.6284,5.25 0.5058,0 0.9197,0.86968 0.9197,1.93261 0,1.06294 0.877,2.21098 1.9489,2.55119 1.072,0.34022 1.7359,1.17385 1.4755,1.8525 -0.2604,0.67866 0.3788,2.14877 1.4205,3.26692 1.0418,1.11815 2.4932,3.68985 3.2255,5.71489 0.7323,2.02504 1.7344,3.68189 2.227,3.68189 0.4926,0 0.7397,2.25031 0.5491,5.00069 -0.1906,2.75038 0.1035,5.19112 0.6535,5.42387 0.6298,0.26654 0.5837,0.72897 -0.1247,1.24931 -1.6451,1.20845 -5.3753,8.51298 -5.3753,10.52614 0,0.95129 -0.9,2.21129 -2,2.79999 -1.1525,0.61678 -2,2.09382 -2,3.48549 0,1.32832 -0.6145,2.77499 -1.3656,3.21482 -0.751,0.43983 -2.624,3.38719 -4.1622,6.54969 -1.5382,3.1625 -3.1344,5.75 -3.547,5.75 -0.4126,0 -2.8191,3.4875 -5.3478,7.75 -2.5287,4.2625 -6.86996,11.31592 -9.64736,15.67427 -2.7773,4.35835 -5.3041,9.19585 -5.6149,10.75 -0.3108,1.55415 -1.1086,2.82573 -1.7728,2.82573 -1.8684,0 -11.2151,11.96977 -15.0314,19.25 -1.0812,2.0625 -2.4259,3.75362 -2.9883,3.75804 -0.5625,0.004 -2.8226,2.09689 -5.0226,4.64992 -2.2,2.55304 -4.7032,5.39004 -5.5625,6.30446 -0.8594,0.91442 -1.3657,2.25321 -1.125,2.97508 0.2605,0.7816 -0.1187,1.11435 -0.9375,0.82263 -2.178,-0.77596 -4.587,0.95615 -5.3042,3.81381 -0.5523,2.20027 -3.7417,7.5969 -5.5708,9.42606 -0.8845,0.88448 -2.9765,4.43464 -3.9777,6.75 -0.535,1.2375 -1.8536,2.25 -2.9302,2.25 -1.1067,0 -2.2454,0.90759 -2.6202,2.08841 -0.596,1.878 -6.1971,5.19582 -7.462,4.42018 -0.2805,-0.17196 -1.6349,1.20587 -3.0099,3.06184 -2.5513,3.44369 -4.3816,4.23925 -5.519,2.39889 -0.6875,-1.11233 -7.3641,-0.29393 -8.8658,1.08673 -0.4866,0.4474 -1.9271,0.13051 -3.201,-0.70422 -2.6278,-1.72181 -6.1272,-1.03806 -6.6,1.28958 -0.3011,1.48287 -7.4111,2.3892 -18.5642,2.36642 -1.7875,-0.004 -3.25,0.4431 -3.25,0.99277 0,1.34794 -2.7402,1.27896 -3.1933,-0.0804 -0.5282,-1.58471 -11.6541,-5.10345 -13.8913,-4.39338 -1.7598,0.55855 -2.4226,-0.35411 -2.0284,-2.79314 0.1604,-0.99242 -5.8869,-0.54292 -6.5221,0.4848 -0.8344,1.35006 -4.1247,0.84989 -4.7266,-0.7185 -0.3612,-0.94149 -1.8904,-1.5 -4.107,-1.5 -1.9422,2e-5 -3.5313,-0.44998 -3.5313,-0.99998 0,-1.43935 -2.7389,-1.23421 -3.3378,0.25 -0.3268,0.81012 -0.5321,0.68871 -0.5833,-0.34501 -0.1107,-2.23726 -3.3238,-4.90499 -5.9077,-4.90499 -1.1942,0 -2.1712,-0.45 -2.1712,-1 0,-0.55 -0.6269,-1 -1.393,-1 -0.7662,0 -1.6492,-0.66741 -1.9622,-1.48314 -0.3329,-0.86743 -1.2275,-1.2305 -2.155,-0.87458 -1.7292,0.66354 -4.4234,-2.15954 -4.4305,-4.64228 -0.01,-2.03032 24.44,-26.99851 26.4407,-27.00567 0.55,-0.002 2.4381,-1.3515 4.1957,-2.99896 1.7577,-1.64745 4.0936,-2.99537 5.191,-2.99537 1.0974,0 2.263,-0.43325 2.5903,-0.96278 0.3272,-0.52953 2.556,-0.92342 4.9527,-0.87531 2.3968,0.0481 4.8373,-0.20888 5.4233,-0.5711 0.5861,-0.36221 1.9587,-0.10079 3.0503,0.58092 1.6302,1.01806 2.3074,0.95592 3.7907,-0.34784 0.9933,-0.87303 2.931,-1.95131 4.306,-2.39618 3.2035,-1.03649 12.5493,-0.65198 16.7487,0.68908 2.7995,0.89401 3.6695,0.71568 6.2918,-1.28966 12.635,-9.66207 29.9595,-25.78141 29.9595,-27.87533 0,-0.59689 1.125,-2.56019 2.5,-4.36291 1.375,-1.80272 2.5,-3.59151 2.5,-3.97509 0,-0.38359 0.9328,-1.69111 2.0729,-2.90561 1.1402,-1.21451 4.0886,-5.89687 6.5522,-10.40527 l 4.4791,-8.19707 0.5427,-13.30293 c 0.6514,-15.96805 -0.4621,-21.26807 -7.6085,-36.21654 -2.6521,-5.54751 -5.1254,-11.09694 -5.4962,-12.33207 -0.3709,-1.23513 -2.7043,-4.61013 -5.1855,-7.5 -2.4812,-2.88987 -5.8344,-7.90388 -7.4515,-11.14225 -1.6172,-3.23837 -4.184,-7.30445 -5.7041,-9.03572 -1.52,-1.73128 -5.6747,-7.78294 -9.2324,-13.44813 -3.5578,-5.66519 -10.129,-15.83566 -14.6026,-22.60105 -7.3384,-11.09782 -12.0993,-20.14769 -32.3681,-61.52716 -6.0121,-12.27396 -8.954,-21.34841 -8.9833,-27.70953 -0.016,-3.46605 -3.3485,-7.34971 -7.9616,-9.2783 -5.3458,-2.23488 -7.7418,-12.29925 -4.601,-19.32594 1.0841,-2.42519 -0.9439,-6.68679 -3.1807,-6.68409 -0.9743,10e-4 -4.3589,1.36607 -7.5214,3.03309 -3.1625,1.66701 -5.75,2.77911 -5.75,2.47134 0,-0.30778 -3.6,1.31905 -8,3.61518 -4.4,2.29613 -8,4.4941 -8,4.88438 0,0.94195 -9.8543,6.98472 -18.8094,11.53413 -3.9549,2.00915 -7.1906,4.05953 -7.1906,4.55638 0,0.49685 -0.5659,0.90336 -1.2576,0.90336 -0.6917,0 -7.0492,2.925 -14.1278,6.5 -7.0787,3.575 -13.6576,6.5 -14.62,6.5 -0.9624,0 -2.3099,0.675 -2.9946,1.5 -0.6847,0.825 -2.2303,1.5 -3.4347,1.5 -1.2043,0 -4.0562,0.90182 -6.3376,2.00405 -2.2813,1.10222 -5.4237,2.14371 -6.983,2.31442 -1.5594,0.17071 -3.2648,0.56597 -3.79,0.87836 -0.5251,0.31239 -2.5297,0.89689 -4.4547,1.2989 -5.5857,1.16649 -18.2871,5.53275 -20.8249,7.15882 -1.2786,0.8193 -4.4286,1.87036 -7,2.33568 -2.5713,0.46532 -7.1501,1.53686 -10.1751,2.38118 -3.025,0.84433 -7.975,1.70916 -11,1.92185 -3.025,0.21269 -6.175,0.64406 -7,0.9586 -3.4485,1.31478 -25.1486,3.38639 -44.9338,4.28963 -6.8386,0.31219 -12.7633,0.77129 -13.1661,1.02022 -0.4028,0.24893 -1.97,-0.018 -3.4827,-0.5931 -1.5127,-0.57513 -6.5187,-1.18968 -11.1244,-1.36566 -10.0577,-0.3843 -9.7889,-0.68424 -11.1867,12.48246 -0.5497,5.17802 -1.6832,15.48959 -2.5189,22.91459 -0.8357,7.425 -2.0054,22.5 -2.5993,33.5 -0.5939,11 -1.5058,22.7 -2.0264,26 -0.5206,3.3 -0.9501,8.925 -0.9543,12.5 0,3.575 -0.9004,13.475 -1.9915,22 -1.091,8.525 -1.991,16.9625 -1.9998,18.75 -0.011,2.21506 -0.4938,3.25 -1.5161,3.25 -1.2011,0 -1.5,1.50641 -1.5,7.5577 0,6.66057 -0.7938,11.87888 -5.0106,32.9423 -1.5086,7.53513 -4.1149,24.66463 -4.1843,27.5 -0.034,1.375 -0.4548,7.26179 -0.9359,13.08176 -0.6986,8.44962 -0.5742,11.57275 0.6171,15.5 1.6481,5.43287 2.0282,15.98218 0.6075,16.86022 -0.4983,0.30801 -0.6822,1.41618 -0.4085,2.46261 0.5457,2.08685 -1.1411,2.93066 -7.4137,3.70866 -4.3509,0.53965 -6.2716,1.93977 -6.2716,4.57178 0,1.70526 -2.2863,9.5075 -5.3185,18.15014 -0.5471,1.55934 -1.6717,3.5121 -2.499,4.33945 -1.0993,1.09925 -1.5472,4.03805 -1.6637,10.91483 -0.088,5.1758 0.2097,9.41055 0.6609,9.41055 1.94,0 0.7657,10.72263 -1.7582,16.05366 -5.72,12.08181 -6.6658,13.29141 -9.6634,12.35881 -1.20355,-0.3745 -2.1086,0.2627 -2.92817,2.0614 -0.65241,1.4319 -1.75699,2.3844 -2.45461,2.1167 -0.69763,-0.2677 -3.86732,1.5314 -7.04377,3.998 -6.89538,5.3543 -13.36598,7.4014 -22.83159,7.2232 -3.85,-0.073 -8.35,0.4411 -10,1.1413 -5.09006,2.1603 -10.93421,2.4699 -12.72964,0.6745 -0.87548,-0.8755 -1.74447,-1.9816 -1.93107,-2.458 -0.18661,-0.4764 -2.92679,-1.1633 -6.08929,-1.5265 -4.67874,-0.5374 -5.75,-0.3881 -5.75,0.8013 0,0.8039 -1.4625,1.884 -3.25,2.4002 -1.7875,0.5162 -3.925,1.1636 -4.75,1.4386 -0.825,0.275 -2.73476,-0.1494 -4.24391,-0.9432 z M 1145.6571,24.994826 c -0.2515,-0.9625 -0.4573,-0.175 -0.4573,1.75 0,1.925 0.2058,2.7125 0.4573,1.75 0.2516,-0.9625 0.2516,-2.5375 0,-3.5 z"
     id="path2987"
     inkscape:connector-curvature="0" />
</svg>
