<?xml version="1.0" encoding="UTF-8" standalone="no"?>
<!-- Created with Inkscape (http://www.inkscape.org/) -->

<svg
   xmlns:dc="http://purl.org/dc/elements/1.1/"
   xmlns:cc="http://creativecommons.org/ns#"
   xmlns:rdf="http://www.w3.org/1999/02/22-rdf-syntax-ns#"
   xmlns:svg="http://www.w3.org/2000/svg"
   xmlns="http://www.w3.org/2000/svg"
   xmlns:sodipodi="http://sodipodi.sourceforge.net/DTD/sodipodi-0.dtd"
   xmlns:inkscape="http://www.inkscape.org/namespaces/inkscape"
   id="svg2"
   version="1.1"
   inkscape:version="0.48.2 r9819"
   width="1389.2477"
   height="1239.995"
   sodipodi:docname="Dog, GreatDane.png">
  <metadata
     id="metadata8">
    <rdf:RDF>
      <cc:Work
         rdf:about="">
        <dc:format>image/svg+xml</dc:format>
        <dc:type
           rdf:resource="http://purl.org/dc/dcmitype/StillImage" />
        <dc:title></dc:title>
      </cc:Work>
    </rdf:RDF>
  </metadata>
  <defs
     id="defs6" />
  <sodipodi:namedview
     pagecolor="#ffffff"
     bordercolor="#666666"
     borderopacity="1"
     objecttolerance="10"
     gridtolerance="10"
     guidetolerance="10"
     inkscape:pageopacity="0"
     inkscape:pageshadow="2"
     inkscape:window-width="1600"
     inkscape:window-height="876"
     id="namedview4"
     showgrid="false"
     fit-margin-top="0"
     fit-margin-left="0"
     fit-margin-right="0"
     fit-margin-bottom="0"
     inkscape:zoom="0.5"
     inkscape:cx="694.74653"
     inkscape:cy="609.8813"
     inkscape:window-x="0"
     inkscape:window-y="24"
     inkscape:window-maximized="1"
     inkscape:current-layer="svg2" />
  <path
     style="fill:#000000"
     d="m 126.74653,1239.995 c -3.3,-0.029 -7.2305,-0.4237 -8.7344,-0.8766 l -2.7344,-0.8234 -5.5156,-4.7121 -5.5156,-4.7121 -0.017,-2.1286 c -0.01,-1.1707 -0.6775,-5.2785 -1.4843,-9.1285 -0.8068,-3.85 -1.9513,-7.9 -2.5434,-9 -0.592,-1.1 -3.0741,-3.5151 -5.5157,-5.3668 l -4.4392,-3.3668 0,-8.2575 0,-8.2574 1.3934,-3.9495 c 0.7664,-2.1722 2.5799,-11.1163 4.03,-19.8757 1.4501,-8.7595 3.5081,-20.4263 4.5733,-25.9263 l 1.9366,-10 0.9884,-12.9182 0.9884,-12.9183 -0.5014,-0.8113 c -0.2758,-0.4462 -0.9355,-7.458 -1.4659,-15.5818 l -0.9645,-14.7704 -1.4648,-7.5 c -0.8057,-4.125 -1.9203,-11.325 -2.477,-16 -0.5567,-4.675 -1.569,-10.7009 -2.2495,-13.391 l -1.2374,-4.891 3.4505,-2.609 c 1.8977,-1.4349 6.6372,-5.534 10.5322,-9.109 l 7.0818,-6.5 11.9234,-7.00001 11.9233,-7 7.132,-5.7204 7.1319,-5.7205 5.4781,-6.77953 c 3.0129,-3.72876 6.8345,-8.80457 8.4924,-11.27957 1.6578,-2.475 6.0637,-10.51306 9.7907,-17.86236 3.7271,-7.3493 8.9367,-16.5922 11.577,-20.53977 l 4.8006,-7.1774 2.1417,-5.46023 2.1417,-5.46024 4.6859,-6.5 c 2.5773,-3.575 6.5415,-9.425 8.8094,-13 l 4.1235,-6.5 0.5841,-7.5 0.5841,-7.5 2.028,-5.89199 2.0281,-5.89199 1.0789,-11.60801 c 0.5934,-6.38441 1.7757,-18.13301 2.6274,-26.10801 0.8517,-7.975 1.767,-19.56327 2.0341,-25.7517 l 0.4856,-11.25171 -0.6634,-2.64294 -0.6633,-2.64294 -0.8678,0.89465 c -0.4773,0.49205 -2.666,5.39464 -4.8638,10.89464 -2.1978,5.5 -5.204,14.5 -6.6803,20 l -2.6844,10 -4.7516,8.5 c -2.6134,4.675 -5.6904,10.63497 -6.8378,13.24438 l -2.0862,4.74438 -9.2082,12.6905 c -5.0646,6.97978 -12.0432,17.05904 -15.5081,22.39836 l -6.2997,9.70787 -5.7314,4.85725 c -3.1523,2.67149 -8.2779,7.33226 -11.3903,10.35726 -3.1124,3.025 -8.0936,7.42305 -11.0693,9.77344 -2.9757,2.3504 -9.0311,6.68377 -13.4563,9.62973 -4.4252,2.94596 -10.2752,6.47398 -13,7.84004 -2.7248,1.36606 -6.7541,3.04976 -8.9541,3.74155 -2.2,0.69179 -5.575,2.21398 -7.5,3.38265 -1.925,1.16866 -5.975,3.15442 -9,4.4128 -3.025,1.25837 -7.75,2.73402 -10.5,3.27922 l -5,0.99127 -7.5,0.0248 c -4.125,0.0137 -12.9,-0.38902 -19.5,-0.89484 l -12,-0.91968 -10,-3.15732 -10,-3.15731 -5.37347,-4.9132 L 0,927.23364 l 0.6306,-2.51253 0.63061,-2.51253 2.38126,-2.76838 2.38126,-2.76838 6.5327,0.19359 6.5327,0.1936 8.3289,2.24841 8.3289,2.24841 7.5,-0.10092 7.5,-0.10092 9.51,-1.99133 9.5101,-1.99133 7.9554,-3.31185 7.9554,-3.31185 10.3483,-7.00947 c 5.6916,-3.85521 13.5737,-9.84785 17.5158,-13.31699 3.9422,-3.46914 7.5135,-6.30752 7.9363,-6.30752 0.4228,0 0.776,-0.5625 0.785,-1.25 0.01,-0.6875 3.16,-5.525 7.0023,-10.75 3.8424,-5.225 8.4739,-11.3 10.2924,-13.5 1.8184,-2.2 5.478,-7.06718 8.1325,-10.81596 l 4.8262,-6.81596 7.2475,-16.18404 7.2475,-16.18404 6.5494,-19.5 6.5493,-19.5 0.6662,-5 c 0.3664,-2.75 1.5325,-8.49055 2.5913,-12.75678 1.0588,-4.26624 2.8399,-12.31984 3.9579,-17.8969 1.1181,-5.57706 3.9704,-16.93651 6.3385,-25.24322 2.3681,-8.3067 6.2172,-22.3031 8.5535,-31.1031 2.3364,-8.8 5.7474,-20.725 7.5802,-26.5 1.8327,-5.775 4.2593,-14.17812 5.3924,-18.67359 1.1331,-4.49548 4.8082,-15.97048 8.167,-25.5 3.3588,-9.52953 8.8004,-23.40141 12.0925,-30.82641 3.2922,-7.425 7.2347,-16.20221 8.7612,-19.50492 l 2.7755,-6.00492 4.8802,-6.33254 4.8802,-6.33255 17.3567,-17.16034 17.3567,-17.16034 5.1433,-3.76782 c 2.8288,-2.0723 7.6183,-5.77598 10.6433,-8.23039 3.025,-2.45441 8.875,-6.97969 13,-10.05618 4.125,-3.0765 11.775,-7.98662 17,-10.91138 5.225,-2.92477 15.35,-8.31724 22.5,-11.98328 l 13,-6.66552 23.5,-7.87158 23.5,-7.87158 18.5907,-4.56308 c 10.2249,-2.5097 23.9499,-5.48306 30.5,-6.60748 l 11.9093,-2.04436 17.5,-1.49468 c 9.625,-0.82207 22.9,-2.15464 29.5,-2.96126 l 12,-1.46659 97,-0.49423 97,-0.49424 37.5,-1.00811 37.5,-1.00811 10.9287,-2.43567 10.9286,-2.43567 4.5714,-3.27453 c 2.5142,-1.80099 7.7213,-5.45747 11.5713,-8.12551 3.85,-2.66804 9.4132,-6.44569 12.3626,-8.39478 2.9494,-1.9491 12.497,-7.28135 21.2168,-11.84945 l 15.8543,-8.30564 8.5535,-6.41953 8.5535,-6.41952 4.644,-6.42209 c 2.5541,-3.53215 4.9115,-6.64709 5.2387,-6.92209 0.3271,-0.275 2.2251,-3.2 4.2177,-6.5 1.9927,-3.3 4.9642,-8.7 6.6035,-12 1.6393,-3.3 3.5517,-7.8 4.2498,-10 0.698,-2.2 3.0305,-8.275 5.1832,-13.5 2.1528,-5.225 5.6935,-12.50367 7.8683,-16.17483 2.1747,-3.67116 3.9541,-7.34913 3.9541,-8.17327 l 0,-1.49845 2.3481,-2.82672 c 1.2914,-1.5547 6.037,-9.99712 10.5458,-18.76094 l 8.1978,-15.93421 5.6166,-8.06579 c 3.0892,-4.43618 7.231,-10.23293 9.2042,-12.88166 1.9731,-2.64872 6.485,-8.49872 10.02627,-13 3.5414,-4.50127 9.2039,-11.33413 12.5835,-15.18413 3.3795,-3.85 7.5373,-9.05921 9.2395,-11.57603 l 3.0949,-4.57603 10.4075,-9.92397 10.4076,-9.92397 10.9141,-8.46856 c 6.0027,-4.65771 13.7522,-10.84521 17.221,-13.75 3.4688,-2.90479 6.7361,-5.28144 7.2608,-5.28144 0.5246,0 3.198,-1.4625 5.9408,-3.25 l 4.987,-3.25 5.4787,-10.5 5.4787,-10.500002 6.4197,-8.5 c 3.5308,-4.675 10.4101,-12.775 15.2873,-18 4.8772,-5.225 10.0627,-11.075 11.5233,-13 1.4607,-1.925 4.6663,-7.55 7.1235,-12.5 l 4.4678,-9 2.2059,-7.420535 2.2059,-7.420535 -0.3432,-8.82997 -0.3431,-8.82997 2.2763,5.05e-4 2.2763,5.05e-4 4.2463,4.25 4.2462,4.25 3.5748,7.532305 c 1.9661,4.142768 4.4125,9.992768 5.4365,13 l 1.8617,5.467695 0.041,9.5 0.041,9.5 -3.8045,11.422412 -3.8044,11.422408 0.014,8.65544 0.014,8.65544 1.0469,2.753432 1.0468,2.75343 1.2439,-0.41163 1.2438,-0.41164 0.6513,-12.919652 0.6512,-12.91964 3.1996,-9.5 3.1996,-9.5 1.0407,-10.209453 1.0408,-10.209453 -1.5918,-2.429325 -1.5918,-2.429325 0.3167,-15.861222 0.3166,-15.861222 1.548,-0.306844 1.548,-0.306844 5.3759,3.03398 5.3759,3.033979 4.8926,6.663375 4.8926,6.663374 1.317,5.077418 1.3171,5.077419 0,9.78202 0,9.782021 -2.9001,8.750051 c -1.595,4.812528 -3.845,11.326309 -5,14.475068 l -2.0999,5.725013 0.044,6.77499 0.044,6.77498 1.352,3.79001 1.352,3.79001 -0.4776,1.826582 -0.4777,1.82657 3.0227,5.98792 3.0227,5.98791 6.309,3.00205 c 3.47,1.65112 7.5532,3.50997 9.0738,4.13077 l 2.7648,1.12872 1.0852,2.38177 1.0852,2.38177 8.4496,4.70499 c 4.6472,2.58774 10.7898,6.59886 13.65,8.91359 2.8603,2.31473 8.4403,6.35181 12.4002,8.97129 l 7.1996,4.7627 5.0709,6.06871 5.0709,6.06871 -0.163,9.70454 -0.1631,9.70454 1.3925,2.8971 1.3925,2.8971 2.5,1.18432 c 1.375,0.65137 4.075,1.84638 6,2.65557 1.925,0.80918 6.875,4.03875 11,7.1768 l 7.5,5.70556 11.5,5.89178 11.5,5.89178 6.781,4.96144 c 3.7296,2.72879 9.2784,7.24383 12.3306,10.03342 l 5.5496,5.07198 1.3248,0 1.3248,0 4.3446,3.48987 c 2.3895,1.91942 5.6946,4.77926 7.3446,6.35518 1.65,1.57592 4.7129,3.66881 6.8064,4.65086 l 3.8065,1.78554 2.4881,3.26204 2.4881,3.26204 2.4554,0.61629 2.4555,0.61628 0,0.87396 c 0,0.48068 -0.7749,1.17132 -1.722,1.53475 l -1.7219,0.66078 1.191,0.73611 1.191,0.73611 -3.969,5.72064 c -2.183,3.14635 -3.9691,6.16589 -3.9691,6.71009 0,0.5442 -0.45,0.98946 -1,0.98946 l -1,0 -0.015,-1.25 -0.015,-1.25 -0.9341,1.47716 -0.9341,1.47716 1.5487,1.71136 1.5488,1.71136 -6.8494,7.09345 -6.8493,7.09346 -4.2434,8.21802 c -2.3339,4.51992 -4.7964,9.11803 -5.4721,10.21803 -0.6758,1.1 -5.2912,5.97975 -10.2566,10.84388 l -9.0279,8.84388 -5,3.33502 -5,3.33501 -4.5,1.24327 -4.5,1.24327 -10.5,0.0778 -10.5,0.0778 -6,-2.6666 -6,-2.6666 -6.5,-0.66528 -6.5,-0.66527 -2.9371,3.08187 -2.9371,3.08188 -8.9289,0 -8.9289,0 -4.673,-3.43029 c -2.5702,-1.88666 -6.9722,-5.86137 -9.7824,-8.83268 l -5.1093,-5.40238 -2.5587,-5.04925 -2.5586,-5.04925 -3.9548,-3.13225 c -2.1751,-1.72274 -5.5149,-3.78411 -7.4217,-4.58082 l -3.4669,-1.44857 -0.513,-1.33677 -0.513,-1.33677 -7.2126,-2.8298 -7.2127,-2.8298 -6.9727,1.15151 -6.9727,1.15152 -4.673,2.38895 c -2.5701,1.31392 -6.6009,4.05228 -8.9574,6.08524 l -4.2845,3.6963 -1.8169,3.64256 c -0.9992,2.0034 -4.4123,11.51755 -7.5845,21.14255 -3.1722,9.625 -6.8361,19.61647 -8.1418,22.20328 -1.3058,2.5868 -4.3407,10.6868 -6.7442,18 l -4.37,13.29672 -0.6779,5.5 -0.6779,5.5 -3.3924,10 c -1.8658,5.5 -4.1607,12.7 -5.0997,16 l -1.7073,6 0.1933,34 0.1933,34 -0.9573,5.5 -0.9573,5.5 0.9069,26.5 c 0.4987,14.575 1.3459,31 1.8825,36.5 0.5366,5.5 1.2648,13.6 1.6182,18 l 0.6426,8 -1.1602,10.72953 -1.1603,10.72953 -1.8419,6.77047 c -1.0131,3.72376 -3.0145,10.94446 -4.4476,16.04599 -1.4331,5.10154 -3.3142,10.64582 -4.1803,12.32062 -0.8661,1.6748 -3.4885,5.60082 -5.8275,8.72448 -2.339,3.12366 -5.385,7.70438 -6.7689,10.17938 l -2.5161,4.5 -1.1075,5.5 c -0.6092,3.025 -1.6066,8.59337 -2.2166,12.37415 -0.61,3.78079 -1.7798,8.73079 -2.5995,11 -0.8197,2.26922 -2.6085,7.88052 -3.9751,12.46955 -1.3665,4.58904 -3.202,9.76404 -4.0788,11.5 -0.8769,1.73597 -2.4043,4.0563 -3.3943,5.1563 -0.9901,1.1 -3.413,5.22718 -5.3843,9.17151 l -3.5842,7.1715 -5.4988,6.44133 c -3.0243,3.54274 -5.4987,6.9307 -5.4987,7.52881 0,0.59811 0.7662,1.51628 1.7028,2.04038 l 1.7027,0.95292 -1.3374,1.61152 -1.3375,1.61153 -0.8382,26.73525 -0.8382,26.73525 -1.5992,16 -1.5992,16 -2.5011,10 c -1.3756,5.5 -3.4284,12.025 -4.5618,14.5 l -2.0608,4.5 -0.7717,19 c -0.4244,10.45 -1.2798,30.475 -1.9008,44.5 -0.621,14.025 -1.602,31.34997 -2.1799,38.49997 -0.5779,7.15001 -1.0641,13.67501 -1.0804,14.50001 -0.016,0.825 0.4965,7.575 1.1395,15 0.6431,7.425 1.433,16.8232 1.7554,20.8849 l 0.5861,7.3848 -1.2129,8.6152 c -0.6671,4.7383 -2.582,15.1401 -4.2552,23.1151 l -3.0423,14.5 0.5047,13.5 0.5047,13.5 1.1385,2.8891 1.1385,2.8891 3.9565,3.6109 3.9564,3.6109 3.2654,5.8964 3.2654,5.8963 4.5,1.2853 c 2.475,0.7068 6.8849,1.9713 9.7997,2.8099 l 5.2997,1.5248 2.4641,-0.9369 2.4642,-0.9368 7.4171,1.4191 7.4171,1.4191 3.0545,1.5796 3.0546,1.5796 0.6148,2.7318 c 0.3381,1.5025 1.0515,4.4734 1.5854,6.602 l 0.9706,3.8702 -1.2019,5.1298 c -0.661,2.8214 -1.5782,5.6083 -2.0383,6.193 l -0.8365,1.0633 0.5929,3.6532 0.5928,3.6533 3.5121,4.1031 3.512,4.103 -1.1374,3.7965 -1.1375,3.7964 0,5.0887 0,5.0887 -3.75,0.7608 c -2.0625,0.4185 -5.7866,0.7121 -8.2759,0.6524 l -4.5259,-0.1085 -3.9544,-1.6523 -3.9545,-1.6522 -1.0839,1.4823 -1.0839,1.4823 -6.4357,2.2273 -6.4358,2.2274 -12,-1.6253 c -6.6,-0.8939 -15.1126,-1.9118 -18.9169,-2.2619 l -6.9168,-0.6366 -2.5832,-1.0989 c -1.4207,-0.6043 -5.6341,-3.5157 -9.363,-6.4698 l -6.78,-5.371 -2.4558,-3.8903 -2.4559,-3.8904 -3.88347,-1.0457 -3.8836,-1.0457 -2.5753,-3.8916 -2.5753,-3.8916 -5.4844,-3.1378 -5.4844,-3.1379 -5.7095,-0.2792 -5.7095,-0.2792 -1.7717,-2.1879 -1.7717,-2.1879 -0.6354,-8.7501 c -0.3496,-4.8126 -1.0251,-13.8627 -1.5012,-20.1115 l -0.8656,-11.3613 -1.0887,-1.0887 -1.09,-1.0885 0,-2.7011 0,-2.701 -5.9371,-5.1434 -5.9371,-5.1435 -1.1521,-3.4908 -1.1521,-3.4908 1.1187,-8.4063 c 0.6152,-4.6234 2.2263,-14.62 3.58,-22.2147 l 2.4614,-13.8084 1.1559,-29.8172 1.1558,-29.8173 -1.6994,-16.18271 c -0.9347,-8.9006 -2.3502,-21.3578 -3.1455,-27.6828 -0.7954,-6.325 -2.5797,-21.175 -3.9652,-33 l -2.5191,-21.5 -2.0339,-9.5 c -1.1186,-5.225 -2.7248,-13.30113 -3.5693,-17.94696 l -1.5354,-8.44696 2.0596,-7.05304 c 1.1328,-3.87917 2.7203,-10.42804 3.5277,-14.55304 0.8075,-4.125 1.7545,-10.65 2.1045,-14.5 0.35,-3.85 1.2809,-10.55883 2.0686,-14.90852 l 1.4322,-7.90852 0.9598,-1.15641 0.9597,-1.1564 -5.5866,-5.43508 -5.5866,-5.43507 -1.9713,-4.34564 -1.9714,-4.34565 -4.5499,-2.01264 -4.5499,-2.01264 -3.2942,0.53457 -3.2941,0.53456 -3.7783,-1.92628 -3.7783,-1.92628 -3.1832,0 -3.1832,0 -6.3554,-1.95442 -6.3553,-1.95442 -7,-0.64255 -7,-0.64256 -5.2875,-1.90302 -5.2875,-1.90303 -2.8974,0 c -1.5936,0 -4.0989,-0.45682 -5.5675,-1.01516 -1.4685,-0.55834 -6.9429,-1.70274 -12.1654,-2.54311 l -9.4953,-1.52795 -13.6497,-3.85102 c -7.5077,-2.11806 -15.4501,-4.16156 -17.6501,-4.54111 l -4,-0.69008 -3,-2.21406 c -1.65,-1.21774 -5.925,-3.48309 -9.5,-5.03412 -3.575,-1.55103 -13.475,-6.43759 -22,-10.85903 -8.525,-4.42144 -17.975,-9.60772 -21,-11.52507 -3.025,-1.91735 -7.075,-4.56789 -9,-5.89008 -1.925,-1.3222 -8.675,-5.97173 -15,-10.3323 -6.325,-4.36057 -14.425,-9.95877 -18,-12.44044 -3.575,-2.48168 -8.2146,-5.72034 -10.3102,-7.19702 l -3.8102,-2.68489 -5.6898,-0.44961 c -3.1294,-0.24728 -6.1398,-0.76856 -6.6898,-1.1584 -0.55,-0.38984 -4.6,-1.92533 -9,-3.41221 -4.4,-1.48688 -9.35,-3.17419 -11,-3.74957 l -3,-1.04615 -25,-1.38559 -25,-1.38559 -6,-1.5181 c -3.3,-0.83495 -7.4359,-1.52513 -9.191,-1.53372 l -3.191,-0.0156 -0.5197,0.84097 -0.5198,0.84098 2.8699,2.12179 2.8699,2.1218 1.115,5.19905 1.115,5.19904 -1.1042,3.34586 -1.1043,3.34586 -2.019,1.08055 -2.019,1.08055 0.4011,3.43595 0.4011,3.43596 -1.6567,1.49933 -1.6567,1.49932 -7.3953,1.5757 -7.3953,1.5757 -9.5,-0.50942 -9.5,-0.50941 -14.5,-3.10576 c -7.975,-1.70816 -17.65,-3.82914 -21.5,-4.71328 -3.85,-0.88414 -8.0125,-1.99082 -9.25,-2.45928 l -2.25,-0.85176 0,-0.94529 0,-0.9453 3.0715,-0.67462 c 1.6893,-0.37103 2.9057,-0.84038 2.7031,-1.04299 -0.2026,-0.2026 -5.3224,0.0343 -11.3773,0.52641 l -11.0089,0.89478 -10.9613,3.54354 -10.9613,3.54354 -7.7329,5.02596 c -4.2531,2.76428 -7.7329,5.38807 -7.7329,5.83064 0,0.44258 -2.4615,3.78883 -5.4699,7.43611 l -5.4699,6.63143 -6.4152,10.81314 c -3.5283,5.94723 -7.0722,12.38815 -7.8752,14.31315 -0.803,1.925 -2.2527,4.15743 -3.2216,4.96096 -0.9688,0.80353 -2.7124,1.93503 -3.8746,2.51446 l -2.1131,1.05351 -1.2445,2.48553 c -0.6845,1.36705 -2.363,5.43093 -3.7301,9.03084 -1.3671,3.59992 -2.9757,8.73193 -3.5746,11.40448 -0.599,2.67254 -3.0314,9.40627 -5.4054,14.96384 l -4.3163,10.10467 -5.0383,8.36026 -5.0384,8.36027 -11.8564,12.48007 -11.8565,12.48007 -5.5061,3.77216 -5.5061,3.77217 -3.4939,6.12835 c -1.9216,3.37059 -5.7029,9.61585 -8.4027,13.87835 -2.6998,4.26251 -5.3336,8.03019 -5.8529,8.37264 -0.5193,0.34245 -2.5853,3.11389 -4.5912,6.15877 -2.0059,3.04487 -7.1917,10.1309 -11.524,15.74673 l -7.877,10.21059 -3.0358,1.63064 c -1.6697,0.89685 -6.17,4.46327 -10.0006,7.92538 l -6.9648,6.29473 -4.1224,2.08538 -4.1225,2.08537 -0.9192,1.61989 c -0.5056,0.89094 -4.1056,4.92186 -8,8.95759 -3.8944,4.03574 -10.2308,9.85894 -14.0808,12.94044 -3.85,3.08146 -8.7252,7.20456 -10.8338,9.16226 -2.1085,1.9578 -4.7123,4.7769 -5.786,6.2646 l -1.9524,2.7051 -1.9403,7.2949 -1.9404,7.29499 -0.024,4.0321 -0.024,4.032 -1.5633,5.468 c -0.8598,3.0073 -2.3892,9.0679 -3.3986,13.4679 l -1.8354,8 -1.2038,11.5 c -0.6622,6.325 -1.377,11.7851 -1.5886,12.1337 -0.2115,0.3485 -0.832,3.7888 -1.379,7.6451 l -0.9944,7.0115 1.0259,16.2432 1.0259,16.2432 1.3898,3.3261 1.3897,3.326 2.6315,0.6605 2.6315,0.6605 5.6012,-1.1249 c 3.0806,-0.6187 7.2136,-1.1232 9.1843,-1.1212 l 3.5833,0 3.5,2.1249 c 1.925,1.1687 6.0361,4.3171 9.1358,6.9963 l 5.6357,4.8713 1.5302,0 1.5302,0 3.084,3.8939 3.0841,3.8939 0,11.4804 0,11.4803 1.4927,4.2308 1.4927,4.2307 -0.6306,2.645 c -0.3468,1.4548 -1.0737,3.2075 -1.6152,3.895 l -0.9845,1.25 -4.2427,0 -4.2427,0 -2.6411,2.0774 -2.641,2.0775 -15.7465,0.1725 -15.7464,0.1726 -7.8924,-4 -7.8924,-4 -5.328,-4.8257 -5.328,-4.8257 -1.0269,0.6347 -1.027,0.6347 0,1.741 0,1.741 -1.2,1.2 -1.2,1.2 -3.1857,0 -3.1857,0 -2.8643,-1.4938 c -1.5754,-0.8217 -3.7813,-1.4967 -4.9021,-1.5 l -2.0378,-0.01 -3.2816,-2.75 -3.2817,-2.75 -0.3173,-26 -0.3172,-26 0.912,-10.5 0.912,-10.5 1.9747,-2.7095 1.9747,-2.7095 0,-3.0655 0,-3.0655 -2,-5.6903 -2,-5.6904 -0.01,-4.5346 c 0,-2.4941 -0.294,-7.5722 -0.6446,-11.2847 l -0.6375,-6.75 -1.3701,0 -1.3701,0 -1.9534,3.2121 -1.9534,3.2121 -1.6151,7.0379 c -0.8883,3.8708 -2.7082,14.6275 -4.0443,23.9036 -1.3362,9.2761 -2.6753,17.2636 -2.9759,17.75 -0.3006,0.4864 -1.195,0.8843 -1.9875,0.8843 l -1.441,0 0,0.893 c 0,0.4912 0.675,1.152 1.5,1.4686 0.825,0.3166 1.5,1.0398 1.5,1.607 0,0.5673 -0.8178,1.8492 -1.8173,2.8486 l -1.8172,1.8173 -1.1677,9.4327 -1.1678,9.4328 -3.0801,12.5 -3.08,12.5 1.2385,5.9235 1.2385,5.9234 1.8777,1.8777 1.8777,1.8777 2.1988,-0.6635 c 1.2094,-0.365 2.613,-1.0497 3.1192,-1.5215 l 0.9204,-0.858 4.2705,3.9365 4.2706,3.9364 2.8091,0.6598 c 1.545,0.3629 4.7537,1.8407 7.1305,3.2839 l 4.3214,2.6241 3.9286,6.6745 c 2.1607,3.6709 3.9286,7.3615 3.9286,8.2012 0,0.8397 0.6416,3.9901 1.4258,7.001 l 1.4259,5.4743 -0.4798,1.8349 -0.4799,1.8349 2.9655,1.1193 2.9656,1.1194 2.7445,4.3477 2.7446,4.3476 0.094,3.5226 0.094,3.5226 -6,0.515 -6,0.515 -1.9819,1.1545 -1.9819,1.1546 -2.6692,-1.5768 -2.6692,-1.5767 -7.1276,2.2918 -7.1275,2.2918 -6.2753,-0.5037 -6.2754,-0.5037 -2.1219,-1.3252 -2.1219,-1.3251 -2.3241,1.18 c -1.2783,0.6491 -3.4906,2.1213 -4.9162,3.2717 l -2.5921,2.0915 -6.9079,0.8899 c -3.7994,0.4895 -9.6079,0.866 -12.9079,0.8367 z"
     id="path2989"
     inkscape:connector-curvature="0" />
</svg>
