<?xml version="1.0" encoding="UTF-8" standalone="no"?>
<!-- Created with Inkscape (http://www.inkscape.org/) -->

<svg
   xmlns:dc="http://purl.org/dc/elements/1.1/"
   xmlns:cc="http://creativecommons.org/ns#"
   xmlns:rdf="http://www.w3.org/1999/02/22-rdf-syntax-ns#"
   xmlns:svg="http://www.w3.org/2000/svg"
   xmlns="http://www.w3.org/2000/svg"
   xmlns:sodipodi="http://sodipodi.sourceforge.net/DTD/sodipodi-0.dtd"
   xmlns:inkscape="http://www.inkscape.org/namespaces/inkscape"
   id="svg2"
   version="1.1"
   inkscape:version="0.48.2 r9819"
   width="1417.4929"
   height="1272.3416"
   sodipodi:docname="Dog,Doberman.png">
  <metadata
     id="metadata8">
    <rdf:RDF>
      <cc:Work
         rdf:about="">
        <dc:format>image/svg+xml</dc:format>
        <dc:type
           rdf:resource="http://purl.org/dc/dcmitype/StillImage" />
        <dc:title></dc:title>
      </cc:Work>
    </rdf:RDF>
  </metadata>
  <defs
     id="defs6" />
  <sodipodi:namedview
     pagecolor="#ffffff"
     bordercolor="#666666"
     borderopacity="1"
     objecttolerance="10"
     gridtolerance="10"
     guidetolerance="10"
     inkscape:pageopacity="0"
     inkscape:pageshadow="2"
     inkscape:window-width="1600"
     inkscape:window-height="876"
     id="namedview4"
     showgrid="false"
     fit-margin-top="0"
     fit-margin-left="0"
     fit-margin-right="0"
     fit-margin-bottom="0"
     inkscape:zoom="0.5"
     inkscape:cx="-351.2734"
     inkscape:cy="606"
     inkscape:window-x="0"
     inkscape:window-y="24"
     inkscape:window-maximized="1"
     inkscape:current-layer="svg2" />
  <path
     style="fill:#000000"
     d="m 388.3417,1272.3055 -1.6151,-0.036 -2.9311,-2.3961 -2.9312,-2.396 -2.9846,1.5434 -2.9845,1.5433 -4.4384,-0.5002 -4.4384,-0.5003 -2.9819,-2.2046 -2.9819,-2.2046 -2.164,1.8909 c -1.1902,1.0401 -2.8931,2.4387 -3.7841,3.1082 l -1.6201,1.2172 -6.2471,-4.5989 -6.2471,-4.5988 0.545,-3.3584 c 0.2998,-1.8471 1.456,-5.4178 2.5694,-7.9349 l 2.0244,-4.5765 2.7978,-1.6229 2.7978,-1.623 3.8996,-5.8981 c 2.1447,-3.2439 5.8501,-9.8882 8.2342,-14.7652 l 4.3347,-8.8673 3.0683,-3.0682 3.0682,-3.0683 4.1975,-1.2119 4.1975,-1.2119 4.8001,-3.9476 4.8001,-3.9475 3.6999,-1.3211 c 2.0349,-0.7265 5.1256,-1.3408 6.8681,-1.3649 1.7425,-0.024 3.9021,-0.3255 4.7991,-0.6697 l 1.631,-0.6259 2.8206,-5.6241 c 1.5514,-3.0933 3.9719,-8.9992 5.379,-13.1242 1.4071,-4.125 3.5239,-11.3049 4.7039,-15.9554 l 2.1457,-8.4554 0.8988,-10.0446 c 0.4944,-5.5245 1.3706,-14.7696 1.947,-20.5446 l 1.0482,-10.5 -0.618,-7.5 c -0.3399,-4.125 -1.0132,-9.3545 -1.4961,-11.6212 -0.483,-2.2666 -1.5795,-10.1416 -2.4367,-17.5 -0.8572,-7.3583 -1.9681,-14.9538 -2.4687,-16.8788 -0.5005,-1.925 -2.0607,-11.15 -3.4669,-20.5 -1.4063,-9.35 -3.0652,-19.925 -3.6865,-23.5 -0.6212,-3.575 -3.0783,-14.14996 -5.4601,-23.49996 -2.3819,-9.35 -5.7071,-22.175 -7.3894,-28.5 -1.6824,-6.325 -4.685,-19.375 -6.6726,-29 -1.9876,-9.625 -4.0112,-20.53777 -4.497,-24.2506 -0.4858,-3.71283 -2.2383,-13.83783 -3.8946,-22.5 l -3.0114,-15.7494 -0.9337,-27 c -0.5136,-14.85 -1.4011,-31.5 -1.9724,-37 -0.5712,-5.5 -1.516,-16.525 -2.0997,-24.5 l -1.0611,-14.5 -1.5172,-7.5 c -0.8345,-4.125 -2.3162,-9.32164 -3.2928,-11.54808 -0.9765,-2.22644 -3.6476,-6.79063 -5.9356,-10.14263 -2.2881,-3.352 -5.9536,-9.92167 -8.1456,-14.59927 -2.192,-4.6776 -3.9894,-9.11342 -3.9943,-9.85737 0,-0.74396 -1.5081,-5.70099 -3.3404,-11.01564 l -3.3314,-9.66298 -4.4096,-5.22633 c -2.4253,-2.87439 -6.6597,-7.52604 -9.4097,-10.33692 -2.75,-2.81087 -7.1593,-8.03568 -9.7983,-11.61068 -2.6391,-3.575 -6.7313,-9.425 -9.0938,-13 -2.3625,-3.575 -5.8811,-9.425 -7.8191,-13 -1.938,-3.575 -5.1366,-9.2 -7.108,-12.5 -1.9714,-3.3 -4.9022,-7.8 -6.513,-10 -1.6108,-2.2 -3.6038,-5.35 -4.4289,-7 -0.8252,-1.65 -3.579,-8.27201 -6.1196,-14.71558 -2.5406,-6.44357 -4.6193,-12.01193 -4.6193,-12.37414 0,-0.36221 -1.6597,-4.3152 -3.6882,-8.78442 l -3.6883,-8.12586 -0.3958,-11.5 -0.3958,-11.5 1.0689,-6 1.0689,-6 1.1593,-33.08046 1.1592,-33.08047 -1.0928,-10.91953 c -0.601,-6.00575 -2.2445,-19.91954 -3.6523,-30.91954 -1.4077,-11 -3.2686,-23.825 -4.1353,-28.5 -0.8666,-4.675 -2.2406,-10.975 -3.0532,-14 -0.8127,-3.025 -1.9205,-7.63861 -2.4618,-10.25247 -0.5414,-2.61385 -2.0956,-7.70485 -3.4538,-11.31332 -1.3582,-3.60847 -3.6232,-8.83754 -5.0332,-11.62017 -1.4101,-2.78262 -4.1764,-7.36663 -6.1475,-10.18668 -1.971,-2.82005 -6.2166,-8.36208 -9.4348,-12.31563 -3.2181,-3.95355 -6.9907,-8.08473 -8.3837,-9.18039 l -2.5325,-1.99212 -6.9011,-1.56961 -6.901,-1.56961 -16.8026,0.0174 -16.8026,0.0174 -7,1.53585 c -3.85,0.84473 -11.6212,2.16575 -17.2694,2.93562 -5.6482,0.76986 -10.7874,1.71986 -11.4204,2.11111 l -1.151,0.71135 -11.5796,0.752 c -6.3688,0.4136 -17.6546,1.57715 -25.0796,2.58567 l -13.5,1.8336 -14.3451,-0.20736 -14.3452,-0.20736 -3.462,-2.04264 -3.462,-2.04264 -3.7085,0 -3.7084,0 -3.4844,-1.99331 c -1.9164,-1.09631 -6.8594,-3.74913 -10.9844,-5.89514 l -7.5,-3.90184 -3.5,-4.8523 c -1.925,-2.66876 -3.9861,-5.89902 -4.5801,-7.17835 L 15.5664,290.19453 10.685,286.50521 5.8037,282.81588 2.9018,278.68705 0,274.55823 l 1.163,-3.52406 1.1631,-3.52405 3.8177,-4.33429 3.8177,-4.33429 10.8826,-6.41371 c 5.9854,-3.52755 13.5825,-8.30438 16.8825,-10.61519 3.3,-2.3108 8.925,-5.66997 12.5,-7.46481 3.575,-1.79484 12.0388,-6.41796 18.8085,-10.27361 l 12.3086,-7.01026 10.5146,-4.34524 c 5.7831,-2.38988 11.9443,-5.32383 13.6915,-6.51988 1.7472,-1.19605 4.6393,-3.54151 6.4268,-5.21214 l 3.25,-3.03749 0,-2.25505 c 0,-1.24027 0.6692,-4.82419 1.4871,-7.96425 l 1.487,-5.70921 4.0034,-6.08958 4.0034,-6.08958 5.8306,-5.5 c 3.2068,-3.025 7.8069,-7.075 10.2226,-9 2.4156,-1.925 7.8599,-6.01125 12.0986,-9.08056 l 7.7066,-5.58057 11.3303,-4.73156 c 6.2317,-2.60237 15.3804,-6.56014 20.3304,-8.79506 4.95,-2.23492 11.3192,-5.0455 14.1537,-6.24574 2.8345,-1.20023 6.7576,-3.40562 8.718,-4.90086 l 3.5643,-2.71862 1.9436,-6.29267 c 1.069,-3.46097 2.261,-8.409227 2.6489,-10.996131 l 0.7054,-4.703461 -1.7259,-7.227385 c -0.9493,-3.975063 -2.6171,-9.702386 -3.7064,-12.727386 -1.0893,-3.025 -3.7019,-10.45 -5.8058,-16.5 l -3.8252,-11 -2.0853,-11.70306 c -1.1469,-6.436683 -2.0853,-13.037378 -2.0853,-14.668212 0,-1.630834 0.2779,-3.689458 0.6177,-4.574721 0.3397,-0.885262 1.4647,-2.062899 2.5,-2.616971 l 1.8823,-1.007403 2.145,1.147949 c 1.1797,0.631372 3.1796,2.334704 4.4442,3.785183 1.2647,1.450479 4.6456,7.137235 7.5133,12.637235 2.8677,5.5 8.4053,15.370779 12.3058,21.935065 3.9004,6.564285 8.2219,14.664285 9.6034,18 l 2.5116,6.064935 1.9884,0 1.9883,0 -0.1625,-5 c -0.089,-2.75 -0.4626,-17.15 -0.8295,-32 l -0.667,-27 2.0772,-3.270392 2.0772,-3.270392 2.5248,-1.150377 L 261.2716,0 l 2.8937,1.420768 2.8936,1.420769 3.9785,4.854173 3.9785,4.854173 4.8553,8.972942 4.8554,8.972941 5.4283,7.172886 c 2.9855,3.945087 7.1332,9.872885 9.217,13.172885 2.0839,3.3 5.2302,8.475 6.9918,11.5 1.7616,3.025 5.2983,8.2 7.8593,11.5 l 4.6564,6 7.5549,16.5 c 4.1551,9.075003 8.7307,19.650003 10.168,23.500003 l 2.6132,7 1.9646,9.26566 c 1.0806,5.09611 2.3206,9.82775 2.7556,10.51474 0.435,0.687 4.7955,6.64246 9.6901,13.23435 4.8946,6.59189 11.2681,14.49851 14.1635,17.57027 l 5.2642,5.58502 4.4572,6.91498 c 2.4515,3.80324 5.7028,9.38998 7.2252,12.41498 1.5224,3.025 8.0121,14.5 14.4217,25.5 6.4095,11 12.2277,21.35 12.9294,23 0.7016,1.65 3.939,7.52064 7.1941,13.04587 l 5.9183,10.04588 1.4449,4.80118 1.445,4.80118 2.4024,3.65294 c 1.3213,2.00912 3.2297,5.90295 4.2409,8.65295 1.0111,2.75 3.4484,7.62665 5.4162,10.83701 1.9678,3.21036 5.1528,7.98447 7.0778,10.60914 1.925,2.62467 4.8568,6.29802 6.515,8.16299 1.6583,1.86497 8.1423,7.78948 14.4089,13.16557 l 11.3937,9.77472 6.0912,2.84627 c 3.3502,1.56544 8.3412,3.38276 11.0912,4.03847 l 5,1.19221 5.2316,2.93499 c 2.8774,1.61425 10.0774,4.79482 16,7.06795 5.9226,2.27312 13.0184,4.93168 15.7684,5.90791 2.75,0.97624 7.9821,3.1466 11.6269,4.82302 3.6448,1.67643 14.2198,5.50045 23.5,8.49783 9.2802,2.99737 19.3481,5.93994 22.3731,6.53903 l 5.5,1.08925 20.5,1.0546 20.5,1.05459 4.584,1.0021 4.5841,1.00211 10.9159,0.0488 c 6.0038,0.0268 20.141,0.0187 31.416,-0.0181 11.275,-0.0368 30.175,-0.538 42,-1.11381 11.825,-0.5758 40.175,-1.46216 63,-1.96968 22.825,-0.50752 70.525,-1.42643 106,-2.04202 l 64.5,-1.11926 12.5,1.10424 c 6.875,0.60734 16.1,1.48475 20.5,1.94981 4.4,0.46505 12.05,1.53516 17,2.37801 4.95,0.84286 14.6129,2.29269 21.4731,3.22186 l 12.4731,1.6894 7.0269,2.2914 c 3.8648,1.26027 11.0769,3.01345 16.0269,3.89595 4.95,0.88249 13.5,2.31123 19,3.17497 l 10,1.57043 10.045,-0.66312 10.045,-0.66312 11.9524,2.17222 11.9525,2.17222 3.0025,1.42908 c 1.6514,0.786 5.4483,2.88302 8.4375,4.66004 l 5.4348,3.23095 3.4298,5.8701 3.4299,5.8701 -2.3647,5.05315 -2.3647,5.05316 -5.835,6.44046 -5.835,6.44045 0.6644,6.13629 c 0.3654,3.37496 1.0715,7.73272 1.569,9.68392 l 0.9047,3.54763 3.1052,2.95237 c 1.7079,1.6238 3.7711,4.22754 4.5849,5.78608 0.8139,1.55853 3.8667,5.43014 6.7841,8.60356 l 5.3044,5.76985 2.1725,5.80642 c 1.1948,3.19353 3.054,7.04447 4.1315,8.55764 1.0775,1.51317 3.0774,5.15368 4.4444,8.09002 l 2.4854,5.3388 0.01,2.05572 0.01,2.05572 2.5589,3.44428 c 1.4075,1.89435 4.1671,6.81928 6.1326,10.94428 l 3.5737,7.5 0.8203,11 c 0.4512,6.05 1.0886,20.675 1.4165,32.5 l 0.5962,21.5 1.4931,12.5 1.493,12.5 2.991,8.5 c 1.645,4.675 3.6587,10.75 4.4748,13.5 0.8162,2.75 1.8865,7.475 2.3785,10.5 l 0.8947,5.5 3.0952,7.21144 3.0953,7.21144 1.01,10.28856 1.01,10.28856 1.5946,5 c 0.877,2.75 1.9645,7.25 2.4167,10 0.4521,2.75 1.4626,7.475 2.2454,10.5 l 1.4234,5.5 4.9848,8.68199 4.9847,8.68199 1.6996,5.81801 c 0.9347,3.19991 2.3501,6.94301 3.1453,8.31801 0.7952,1.375 2.6536,4.975 4.1298,8 1.4762,3.025 3.6985,7.075 4.9384,9 l 2.2544,3.5 1.1789,4.49438 c 0.6484,2.4719 1.9851,6.0719 2.9704,8 0.9853,1.92809 3.3664,5.84356 5.2913,8.70105 l 3.4998,5.19543 2.1813,6.75178 c 1.1997,3.71348 5.1048,12.85054 8.6779,20.30457 3.5732,7.45403 7.2511,15.11268 8.1731,17.01922 l 1.6764,3.46643 12.5,13.30767 c 6.875,7.31922 15.4313,16.65895 19.0141,20.75497 3.5828,4.09602 9.2078,9.69819 12.5,12.44926 3.2922,2.75108 8.6859,6.89987 11.9859,9.21954 l 6,4.21759 8.5764,8.55905 8.5764,8.55906 2.2372,6.5 2.2372,6.5 0.8699,12.5101 0.87,12.5101 1.0664,2.805 1.0665,2.805 0,4.18483 0,4.1849 2.0409,3.3475 2.0408,3.3476 1.9924,9.1524 c 1.0959,5.0339 2.5994,13.6985 3.3412,19.2548 l 1.3488,10.1024 1.1142,2.0819 1.1142,2.0819 0,4.0007 c 0,2.2003 -0.3966,5.0438 -0.8814,6.3189 l -0.8814,2.3182 1.2721,5.9969 c 0.6997,3.2982 2.2363,9.5968 3.4147,13.9968 1.1784,4.4 2.8026,9.6966 3.6093,11.7702 0.8067,2.0737 1.4773,4.9987 1.4902,6.5 l 0.023,2.7298 4.3977,10.8737 4.3977,10.8737 -0.4985,1.299 c -0.2741,0.7144 -1.1386,1.5446 -1.9211,1.8449 l -1.4227,0.5459 0.021,2.7814 0.021,2.7814 2.5556,7 2.5555,7 0.5603,11.7427 0.5603,11.7428 -1.7318,7.1255 -1.7319,7.1256 -2.8312,6.3102 -2.8312,6.3103 -2.3239,1.4299 c -1.2782,0.7865 -5.1564,2.456 -8.6184,3.7101 l -6.2944,2.28 -1.3344,3.1936 -1.3343,3.1935 -2.7561,2.1679 -2.756,2.1679 -2.2884,0 -2.2884,0 -3.1017,-2.6098 -3.1016,-2.6099 -3.2251,0.7356 c -1.7738,0.4046 -6.6001,0.8518 -10.7251,0.9938 l -7.5,0.2583 -2.3175,3.366 -2.3174,3.366 -2.0151,0.7483 -2.0152,0.7484 -2.2892,-0.5746 -2.2892,-0.5746 -1.084,-2.1737 c -0.5962,-1.1956 -1.4539,-4.1988 -1.9061,-6.6738 l -0.822,-4.5 -2.1146,-0.3055 -2.1145,-0.3054 -2.1757,3.0554 -2.1757,3.0555 -1.7319,0 -1.7319,0 -1.2,-1.2 -1.2,-1.2 0,-3.8066 c 0,-2.0936 0.7397,-8.4161 1.6437,-14.05 l 1.6437,-10.2434 0.1274,-12.1179 0.1273,-12.1179 4.2238,-8.3821 c 2.3231,-4.6102 5.1704,-9.4991 6.3273,-10.8644 l 2.1035,-2.4822 8.1517,-2.6689 8.1516,-2.6689 -0.2062,-2.3489 c -0.1134,-1.2918 -1.544,-13.8238 -3.1791,-27.8488 -1.6351,-14.025 -3.3827,-29.55 -3.8836,-34.5 l -0.9106,-9 -12.0221,-19.5 c -6.6121,-10.725 -15.3361,-25.8 -19.3867,-33.5 l -7.3646,-13.99993 -14.0236,-14.37271 -14.0159,-14.37275 -13.5,-11.59452 c -7.425,-6.37699 -20.925,-18.55205 -30,-27.05569 -9.075,-8.50364 -21.6102,-20.44338 -27.8561,-26.53276 l -11.3561,-11.0716 -9.2869,-11 c -5.1078,-6.05 -11.2475,-12.85243 -13.6439,-15.1165 -2.3963,-2.26408 -6.9141,-6.16255 -10.0394,-8.66328 -3.1254,-2.50073 -8.5684,-6.16066 -12.0956,-8.13317 l -6.413,-3.5864 -10.9045,-9.81697 c -5.9975,-5.39934 -13.8743,-13.16198 -17.504,-17.25033 -3.6298,-4.08834 -9.8821,-11.93335 -13.8942,-17.43335 l -7.2946,-10 -10.6469,-11 c -5.8558,-6.05 -11.9784,-12.7465 -13.6059,-14.88111 -1.6274,-2.13462 -5.2089,-8.42511 -7.9589,-13.97888 l -5,-10.09775 -1.2131,-0.34217 -1.2131,-0.34217 -0.5751,2.82104 c -0.3162,1.55157 -1.4644,5.74604 -2.5513,9.32104 l -1.9764,6.5 0.014,3.28518 0.014,3.28519 -1.3867,2.21481 -1.3867,2.21482 -1.1244,8 c -0.6184,4.4 -1.6218,11.15 -2.2299,15 -0.608,3.85 -1.5522,11.275 -2.0982,16.5 -0.5459,5.225 -1.0146,11.525 -1.0414,14 -0.027,2.475 0.4865,9 1.1408,14.5 0.6543,5.5 1.8722,12.7 2.7065,16 0.8343,3.3 2.6237,8.26352 3.9764,11.03004 l 2.4595,5.03003 1.532,7.34781 c 0.8427,4.04129 2.1942,8.93233 3.0033,10.86898 0.8092,1.93664 2.1753,6.23797 3.0357,9.55851 l 1.5644,6.03734 2.8878,5.56364 2.8877,5.56365 1.1534,5.5 c 0.6344,3.025 1.5448,5.98885 2.0232,6.58633 0.4784,0.59749 1.5329,2.96558 2.3432,5.26243 0.8104,2.29686 4.8186,11.03301 8.9071,19.41367 4.0885,8.38066 7.768,16.36257 8.1767,17.73757 0.4087,1.375 2.9762,7 5.7055,12.5 l 4.9624,10 0.083,4.5 c 0.045,2.475 -0.4201,7.05396 -1.0346,10.17546 l -1.1173,5.6754 -2.7291,5.769 -2.7292,5.7689 -6.6224,6.5556 c -3.6423,3.6056 -8.4687,9.0306 -10.7253,12.0556 -2.2566,3.025 -5.5572,8.425 -7.3346,12 -1.7775,3.575 -4.6818,8.525 -6.454,11 -1.7723,2.475 -4.6836,7.425 -6.4696,11 -1.7859,3.575 -3.8765,8.2308 -4.6456,10.3462 l -1.3985,3.8463 -6.7604,8.6058 c -3.7182,4.7332 -9.6854,11.5797 -13.2604,15.2143 -3.575,3.6347 -9.1913,9.8792 -12.4806,13.8766 -3.2893,3.9974 -7.6633,9.8201 -9.72,12.9394 -2.0567,3.1193 -4.3733,6.5714 -5.148,7.6714 -0.7748,1.1 -3.5298,5.3022 -6.1223,9.3382 l -4.7137,7.3382 -3.5136,2.073 -3.5135,2.0731 -4.3331,5.9549 -4.333,5.9549 -4.5003,3.1338 c -2.4751,1.7237 -7.7901,5.6377 -11.8111,8.698 l -7.3108,5.564 -10,3.9039 -10,3.9039 -20.5,0.7065 c -11.275,0.3886 -22.3,0.9952 -24.5,1.3481 l -4,0.6416 -1.8969,-1.4101 -1.897,-1.4101 -0.103,-2.9059 -0.1031,-2.906 -3.5,0.2531 c -1.925,0.1392 -5.525,0.2516 -8,0.2499 -2.475,0 -6.8201,-0.018 -9.6557,-0.037 l -5.1557,-0.034 -1.2652,-1.5245 -1.2652,-1.5245 2.0457,-4.1916 c 1.1252,-2.3054 4.1564,-6.9924 6.7361,-10.4155 l 4.6904,-6.224 -0.6653,-4.4362 -0.6653,-4.4363 8.9431,-9.8398 c 4.9188,-5.4119 11.6239,-12.3148 14.9004,-15.3398 l 5.9573,-5.5 5.0149,-1.784 5.0148,-1.7839 6.7188,3.1441 6.7189,3.1441 4.4088,-1.1101 4.4088,-1.1102 6.2351,0 6.2351,0 10.1206,-10.25 10.1205,-10.25 7.6862,-10.1815 c 4.2275,-5.5998 8.1504,-10.4684 8.7176,-10.8189 0.5673,-0.3506 3.2924,-3.9881 6.0558,-8.0833 2.7634,-4.0952 7.0312,-11.5691 9.484,-16.6085 l 4.4595,-9.1626 0,-2.7186 c 0,-1.4952 0.9445,-7.5533 2.099,-13.4625 l 2.099,-10.744 -0.4316,-12.1101 -0.4316,-12.11 -3.6744,-16.49996 c -2.0209,-9.075 -4.3461,-19.425 -5.1672,-23 l -1.4927,-6.5 -27.4743,-55 -27.4744,-55 -1.5857,-7 -1.5858,-7 -2.393,-3.65735 c -1.3162,-2.01154 -5.0788,-9.21154 -8.3615,-16 l -5.9683,-12.34265 -5.6532,-8.84084 c -3.1093,-4.86246 -6.542,-10.91433 -7.6284,-13.4486 -1.0863,-2.53427 -3.314,-9.11489 -4.9506,-14.62359 l -2.9754,-10.01582 -1.5526,-17.53557 c -0.8532,-9.64437 -1.9124,-22.48538 -2.3531,-28.53538 l -0.8012,-11 0.4956,-0.84344 0.4956,-0.84344 -0.722,-15.40656 -0.7221,-15.40656 -1.7754,0 c -0.9765,0 -6.2166,1.58348 -11.6447,3.51884 -5.4281,1.93536 -11.4443,4.36301 -13.3693,5.39478 -1.925,1.03177 -7.1,3.05523 -11.5,4.49658 -4.4,1.44135 -11.825,3.70051 -16.5,5.02037 -4.675,1.31985 -12.325,3.81614 -17,5.5473 -4.675,1.73117 -10.4401,3.56091 -12.8112,4.06609 l -4.3113,0.91851 -8.1887,4.07517 c -4.5039,2.24134 -11.1138,5.58016 -14.6888,7.41961 l -6.5,3.34443 -7.0109,2.0703 -7.0109,2.07029 -5.9891,3.65099 c -3.294,2.00805 -8.2391,4.71664 -10.9891,6.0191 -2.75,1.30246 -5.8125,2.3725 -6.8056,2.37787 -0.9931,0.005 -5.4931,1.52214 -10,3.37059 -4.5069,1.84845 -12.4694,4.82052 -17.6944,6.60461 -5.225,1.78408 -14.9266,5.18125 -21.5591,7.54927 l -12.059,4.30549 -4.941,0.71245 -4.9409,0.71244 -4.0296,1.80207 -4.0297,1.80206 -9.9703,1.50716 -9.9704,1.50716 -4.3757,1.56823 -4.3757,1.56824 -4.3092,0 -4.3092,0 -2.7219,1.03488 -2.722,1.03488 -15.0931,0.54598 c -8.3013,0.30029 -17.1182,0.63826 -19.5932,0.75103 -2.475,0.11278 -7.2,0.58933 -10.5,1.059 -3.3,0.46968 -7.7441,1.46602 -9.8757,2.21409 l -3.8757,1.36014 -7.7916,0 -7.7916,0 -1.6983,4.44695 -1.6983,4.44696 0.4852,3.80304 0.4852,3.80305 -1.8667,11.5 -1.8668,11.5 0,6.11901 0,6.11901 -1.6709,8.88099 -1.671,8.88099 -0.079,70.5 -0.079,70.5 2.172,9.5 c 1.1945,5.225 2.6392,12.42496 3.2104,15.99996 l 1.0385,6.5 0.6287,19.5 0.6286,19.5 1.3671,9.6328 1.367,9.6329 -0.5619,3.4623 -0.5619,3.4624 1.6547,3.1997 1.6546,3.1998 0.8964,7.705 c 0.4931,4.2378 1.4075,9.1458 2.0321,10.9067 l 1.1356,3.2016 -1.1367,5.4753 -1.1367,5.4753 -2.9717,4.1024 -2.9718,4.1024 -3.3991,1.6209 -3.3992,1.621 -2.9307,6.0997 c -1.6119,3.3549 -3.4091,7.6748 -3.9938,9.5998 -0.5846,1.925 -1.3496,5.975 -1.6999,9 -0.3503,3.025 -1.0635,7.75 -1.5849,10.5 -0.5214,2.75 -1.3603,11.1546 -1.8641,18.677 l -0.9161,13.6769 -2.7867,9.6483 -2.7868,9.6482 -6.7195,6.3389 -6.7196,6.3389 -5.8223,1.1451 c -3.2023,0.6298 -7.815,1.7935 -10.2505,2.5859 l -4.4281,1.4408 -3.2353,0 -3.2354,0 -3.0865,4.197 c -1.6976,2.3084 -3.0865,4.6217 -3.0865,5.1407 0,0.5191 -1.6875,2.9369 -3.75,5.373 -2.0625,2.4361 -5.5274,6.2116 -7.6997,8.39 l -3.9496,3.9607 -6.654,3.3289 -6.654,3.3288 -9.2076,0.7203 -9.2077,0.7203 -6.848,-1.2238 -6.848,-1.2238 -2.7256,2.144 -2.7255,2.1439 -1.6152,-0.036 z"
     id="path2989"
     inkscape:connector-curvature="0" />
</svg>
