<?xml version="1.0" encoding="UTF-8" standalone="no"?>
<!-- Created with Inkscape (http://www.inkscape.org/) -->

<svg
   xmlns:dc="http://purl.org/dc/elements/1.1/"
   xmlns:cc="http://creativecommons.org/ns#"
   xmlns:rdf="http://www.w3.org/1999/02/22-rdf-syntax-ns#"
   xmlns:svg="http://www.w3.org/2000/svg"
   xmlns="http://www.w3.org/2000/svg"
   xmlns:sodipodi="http://sodipodi.sourceforge.net/DTD/sodipodi-0.dtd"
   xmlns:inkscape="http://www.inkscape.org/namespaces/inkscape"
   id="svg2"
   version="1.1"
   inkscape:version="0.48.2 r9819"
   width="614"
   height="1598"
   sodipodi:docname="illustratedhisto00demmrich_0234c.png">
  <metadata
     id="metadata8">
    <rdf:RDF>
      <cc:Work
         rdf:about="">
        <dc:format>image/svg+xml</dc:format>
        <dc:type
           rdf:resource="http://purl.org/dc/dcmitype/StillImage" />
        <dc:title></dc:title>
      </cc:Work>
    </rdf:RDF>
  </metadata>
  <defs
     id="defs6" />
  <sodipodi:namedview
     pagecolor="#ffffff"
     bordercolor="#666666"
     borderopacity="1"
     objecttolerance="10"
     gridtolerance="10"
     guidetolerance="10"
     inkscape:pageopacity="0"
     inkscape:pageshadow="2"
     inkscape:window-width="1600"
     inkscape:window-height="876"
     id="namedview4"
     showgrid="false"
     fit-margin-top="0"
     fit-margin-left="0"
     fit-margin-right="0"
     fit-margin-bottom="0"
     inkscape:zoom="0.70710678"
     inkscape:cx="281.95836"
     inkscape:cy="1075.3574"
     inkscape:window-x="0"
     inkscape:window-y="24"
     inkscape:window-maximized="1"
     inkscape:current-layer="svg2" />
  <path
     style="fill:#000000"
     d="m 158,1597 c 0,-0.5714 -3,-1 -7,-1 -4,0 -7,-0.4286 -7,-1 0,-0.55 -2.25,-1 -5,-1 l -5,0 0,-3.9167 c 0,-2.1555 -0.56206,-4.1789 -1.25,-4.5 -1,-0.4666 -1,-0.7 0,-1.1666 1.48262,-0.6919 1.69346,-4.4167 0.25,-4.4167 -0.59259,0 -1,-3.6667 -1,-9 0,-5.3333 0.40741,-9 1,-9 0.55,0 1,-1.35 1,-3 0,-1.65 0.45,-3 1,-3 0.55,0 1,-0.9 1,-2 0,-1.1 0.45,-2 1,-2 0.55,0 1,-0.9 1,-2 0,-1.1 0.45,-2 1,-2 0.55,0 1,-0.9 1,-2 0,-1.1 0.45,-2 1,-2 0.55,0 1,-0.7347 1,-1.6327 0,-0.898 0.99807,-2.4983 2.21792,-3.5563 1.83407,-1.5907 1.96942,-2.0772 0.78208,-2.811 -1.18734,-0.7338 -1.05199,-1.2203 0.78208,-2.811 1.21985,-1.058 2.21792,-2.6583 2.21792,-3.5563 0,-0.898 0.45,-1.6327 1,-1.6327 0.55556,0 1,-2.6667 1,-6 0,-3.3333 0.44444,-6 1,-6 0.55,0 1,-2.25 1,-5 0,-2.75 -0.45,-5 -1,-5 -0.55,0 -1,-1.35 -1,-3 0,-1.65 0.45,-3 1,-3 0.55,0 1,0.9 1,2 0,1.1 0.45,2 1,2 0.57143,0 1,-3 1,-7 0,-4 0.42857,-7 1,-7 0.55,0 1,-2.1507 1,-4.7792 0,-3.6321 0.48006,-5.1253 2,-6.2208 1.8546,-1.3367 2,-2.5887 2,-17.2208 0,-9.8528 -0.37558,-15.7792 -1,-15.7792 -0.55,0 -1,-1.8 -1,-4 0,-3.3333 0.33333,-4 2,-4 1.33333,0 2,-0.6667 2,-2 0,-1.1 0.45,-2 1,-2 0.6,0 1,-4 1,-10 0,-6 -0.4,-10 -1,-10 -0.55,0 -1,-0.9 -1,-2 0,-1.1 -0.45,-2 -1,-2 -0.55,0 -1,-1.35 -1,-3 0,-1.65 0.45,-3 1,-3 0.55,0 1,-0.9 1,-2 0,-1.1515 -0.66667,-2 -1.57143,-2 -1.92738,0 -4.42857,-2.3765 -4.42857,-4.2078 0,-0.7429 0.9,-1.9994 2,-2.7922 2.63959,-1.9025 3.00544,-13 0.42857,-13 -2.36056,0 -4.42857,-2.535 -4.42857,-5.4286 0,-1.9047 0.51852,-2.5714 2,-2.5714 1.1,0 2,-0.3507 2,-0.7792 0,-0.4286 -0.9,-1.428 -2,-2.2208 -1.51994,-1.0955 -2,-2.5887 -2,-6.2208 0,-2.6285 0.45,-4.7792 1,-4.7792 0.55,0 1,-2.25 1,-5 l 0,-5 -4,0 c -3.33333,0 -4,-0.3333 -4,-2 0,-1.1 0.45,-2 1,-2 0.55,0 1,-0.9 1,-2 0,-1.1 0.45,-2 1,-2 0.55,0 1,-0.9 1,-2 0,-1.1 0.45,-2 1,-2 1.45455,0 1.2282,-5.7407 -0.25,-6.3405 -0.94376,-0.383 -0.88251,-0.7895 0.25,-1.6595 1.13251,-0.87 1.19376,-1.2765 0.25,-1.6595 -0.6875,-0.2789 -1.25,-1.7203 -1.25,-3.2031 0,-1.5487 -0.85105,-3.3093 -2,-4.1374 -2.06567,-1.4888 -2.7679,-5 -1,-5 0.55,0 1,-1.8 1,-4 0,-2.2 0.45,-4 1,-4 1.50363,0 1.26609,-11.7254 -0.25,-12.3405 -0.95329,-0.3868 -0.90898,-0.7447 0.18669,-1.5078 1.17694,-0.8196 0.81535,-1.5845 -2,-4.2309 -2.15192,-2.0227 -2.96939,-3.3906 -2.18669,-3.6589 0.6875,-0.2357 1.25,-1.2911 1.25,-2.3452 0,-1.0542 0.45,-1.9167 1,-1.9167 1.45695,0 1.22743,-7.7272 -0.25,-8.4167 -1,-0.4666 -1,-0.7 0,-1.1666 1.47914,-0.6903 1.70224,-6.4167 0.25,-6.4167 -0.55,0 -1,-2.25 -1,-5 0,-2.75 0.45,-5 1,-5 0.6,0 1,-4 1,-10 0,-6 -0.4,-10 -1,-10 -1.44346,0 -1.23262,-3.7248 0.25,-4.4167 1,-0.4666 1,-0.7 0,-1.1666 -1.89824,-0.8859 -1.49494,-3.7986 0.75,-5.4167 2.06567,-1.4888 2.7679,-5 1,-5 -0.55,0 -1,-1.35 -1,-3 0,-2.3333 0.44444,-3 2,-3 1.1,0 2,-0.45 2,-1 0,-0.55 -0.9,-1 -2,-1 -3.27566,0 -2.5696,-4.662 1.25,-8.2536 2.05371,-1.9311 2.78989,-3.2137 2,-3.4845 -1.61989,-0.5554 -1.61989,-3.9226 0,-4.6786 1,-0.4666 1,-0.7 0,-1.1666 -0.6875,-0.3209 -1.25,-1.4459 -1.25,-2.5 0,-1.25 -0.69565,-1.9167 -2,-1.9167 -1.1,0 -2,-0.45 -2,-1 0,-0.55 0.9,-1 2,-1 1.25062,0 2,-0.6667 2,-1.7792 0,-0.9786 0.9,-2.428 2,-3.2208 1.39291,-1.004 2,-2.5887 2,-5.2208 0,-2.0785 0.45,-3.7792 1,-3.7792 0.55556,0 1,-2.6667 1,-6 0,-3.3333 0.44444,-6 1,-6 1.7679,0 1.06567,-3.5112 -1,-5 -2.23813,-1.6132 -2.66164,-4.5958 -0.75,-5.282 0.84789,-0.3044 0.52621,-1.0927 -1,-2.4507 -1.55303,-1.3818 -2.25,-3.1272 -2.25,-5.6346 0,-1.998 -0.45,-3.6327 -1,-3.6327 -0.55,0 -1,-1.35 -1,-3 0,-1.65 -0.45,-3 -1,-3 -0.55,0 -1,-0.9 -1,-2 0,-1.1 0.45,-2 1,-2 0.55,0 1,-0.9 1,-2 0,-1.1 0.45,-2 1,-2 1.7679,0 1.06567,-3.5112 -1,-5 -1.1,-0.7928 -2,-2.2422 -2,-3.2208 0,-0.9785 -0.45,-1.7792 -1,-1.7792 -0.55,0 -1,-1.35 -1,-3 0,-1.65 -0.45,-3 -1,-3 -0.55,0 -1,-0.8007 -1,-1.7792 0,-0.9786 -0.9,-2.428 -2,-3.2208 -1.1,-0.7928 -2,-2.2422 -2,-3.2208 0,-0.9785 -0.45,-1.7792 -1,-1.7792 -0.55,0 -1,-0.9 -1,-2 0,-1.1 -0.45,-2 -1,-2 -0.55,0 -1,-1.2507 -1,-2.7792 0,-1.6321 -0.82553,-3.3743 -2,-4.2208 -1.1,-0.7928 -2,-2.2422 -2,-3.2208 0,-0.9785 -0.45,-1.7792 -1,-1.7792 -0.55,0 -1,-0.9 -1,-2 0,-1.1 -0.45,-2 -1,-2 -0.55,0 -1,-0.9 -1,-2 0,-1.1 -0.45,-2 -1,-2 -0.55,0 -1,-0.9 -1,-2 0,-1.1 -0.45,-2 -1,-2 -0.55,0 -1,-0.9 -1,-2 0,-1.1 -0.45,-2 -1,-2 -0.55,0 -1,-0.7195 -1,-1.5988 0,-0.8793 -1.43401,-2.9383 -3.18669,-4.5756 -2.619,-2.4465 -2.93075,-3.155 -1.75,-3.9773 1.09567,-0.7631 1.13998,-1.121 0.18669,-1.5078 -0.6875,-0.2789 -1.25,-1.3697 -1.25,-2.4238 0,-1.0542 -0.45,-1.9167 -1,-1.9167 -0.55,0 -1,-0.9 -1,-2 0,-1.1 -0.45,-2 -1,-2 -0.55,0 -1,-0.9 -1,-2 0,-1.1 -0.45,-2 -1,-2 -0.55,0 -1,-0.9 -1,-2 0,-1.1 -0.45,-2 -1,-2 -0.55,0 -1,-0.9 -1,-2 0,-1.1 -0.45,-2 -1,-2 -0.55,0 -1,-0.8007 -1,-1.7792 0,-0.9786 -0.9,-2.428 -2,-3.2208 -1.1,-0.7928 -2,-2.1428 -2,-3 0,-0.8572 -0.9,-2.2072 -2,-3 -1.17447,-0.8465 -2,-2.5887 -2,-4.2208 0,-1.5285 -0.45,-2.7792 -1,-2.7792 -0.55,0 -1,-0.9 -1,-2 0,-1.1 -0.449996,-2 -0.999996,-2 -0.55,0 -1,-0.9 -1,-2 0,-1.1 -0.45,-2 -1,-2 -0.55,0 -1,-1.2507 -1,-2.7792 0,-1.6321 -0.82553,-3.3743 -2,-4.2208 -1.1,-0.7928 -2,-2.24223 -2,-3.22083 0,-0.9785 -0.45,-1.7792 -1,-1.7792 -0.55,0 -1,-1.35 -1,-3 0,-2.6667 -0.33333,-3 -3,-3 -2.91486,0 -3,0.1356 -3,4.7792 0,3.6321 -0.48007,5.1253 -2,6.22083 -1.1,0.7928 -2,2.2422 -2,3.2208 0,0.9785 -0.45,1.7792 -1,1.7792 -0.55,0 -1,0.7071 -1,1.5714 0,2.6052 -2.64688,4.4286 -6.42858,4.4286 -2.90476,0 -3.57142,-0.3733 -3.57142,-2 0,-1.1 -0.45,-2 -1,-2 -0.55,0 -1,-0.9 -1,-2 0,-1.1 -0.45,-2 -1,-2 -0.55,0 -1,-0.8625 -1,-1.9167 0,-1.0541 -0.562504,-2.17913 -1.250004,-2.50003 -1,-0.4666 -1,-0.7 0,-1.1666 0.68794,-0.3211 1.250004,-2.3445 1.250004,-4.5 0,-2.1542 0.45,-3.9167 1,-3.9167 0.55,0 1,-0.9 1,-2 0,-1.1 0.45,-2 1,-2 0.55,0 1,-1.35 1,-3 0,-1.65 0.45,-3 1,-3 0.55,0 1,-1.7625 1,-3.9166 0,-2.1556 0.56205,-4.179 1.25,-4.5 1,-0.4667 1,-0.7 0,-1.1667 -1.43331,-0.6689 -1.71616,-4.4167 -0.33334,-4.4167 0.50417,0 1.11756,0.5625 1.3631,1.25 0.25967,0.7271 0.81746,0.879 1.33333,0.3631 0.51587,-0.5158 0.36397,-1.0736 -0.36309,-1.3333 -1.61966,-0.5785 -1.61966,-3.9406 0,-4.6964 1,-0.4667 1,-0.7 0,-1.1667 -0.6875,-0.3208 -1.25,-1.8958 -1.25,-3.5 0,-2.25 -0.45715,-2.9167 -2,-2.9167 -1.33334,0 -2,-0.6666 -2,-2 0,-1.1372 -0.66667,-2 -1.54546,-2 -2.00047,0 -6.454544,-4.454 -6.454544,-6.4545 0,-1.8428 -3.63655,-2.0937 -4.28204,-0.2955 -0.30436,0.8479 -1.09269,0.5262 -2.45063,-1 -2.46888,-2.7748 -3.26733,-2.8359 -3.26733,-0.25 0,1.1 -0.45,2 -1,2 -0.55,0 -1,1.1455 -1,2.5455 0,2.6854 -3.98817,7.4545 -6.23379,7.4545 -0.72858,0 -1.97338,0.9 -2.76621,2 -0.79284,1.1 -2.24218,2 -3.22076,2 -0.97859,0 -1.77924,0.45 -1.77924,1 0,0.55 -0.80066,1 -1.77925,1 -0.97858,0 -2.42792,0.9 -3.22075,2 -0.79284,1.1 -2.24218,2 -3.22076,2 -0.97859,0 -1.77924,0.45 -1.77924,1 0,0.55 -1.35,1 -3,1 -1.65,0 -3,-0.45 -3,-1 0,-0.55 -0.71028,-1 -1.57841,-1 -0.86812,0 -3.30784,-1.8 -5.42159,-4 -2.11376,-2.2 -4.55348,-4 -5.4216,-4 -0.86812,0 -1.5784,-0.45 -1.5784,-1 0,-0.55 0.45,-1 1,-1 0.55,0 1,-0.9 1,-2 0,-1.1 -0.45,-2 -1,-2 -0.55,0 -1,-0.9 -1,-2 0,-1.1 0.45,-2 1,-2 0.55,0 1,-0.9 1,-2 0,-1.2506 0.66666,-2 1.77924,-2 0.97858,0 2.42792,-0.9 3.22076,-2 0.79283,-1.1 2.24217,-2 3.22075,-2 0.97859,0 1.77925,-0.45 1.77925,-1 0,-0.55 1.35,-1 3,-1 1.65,0 3,-0.45 3,-1 0,-0.55 0.9,-1 2,-1 1.1,0 2,-0.45 2,-1 0,-0.55 1.35,-1 3,-1 l 3,0 0,-7.7792 c 0,-6.6321 -0.29494,-7.9918 -2,-9.2208 -1.1,-0.7928 -2,-2.2421 -2,-3.2207 0,-0.9786 -0.70715,-1.7793 -1.57143,-1.7793 -2.02104,0 -4.42857,-2.4075 -4.42857,-4.4285 0,-0.8643 -0.45,-1.5715 -1,-1.5715 -0.55,0 -1,-0.8006 -1,-1.7792 0,-0.9786 -0.9,-2.4279 -2,-3.2208 -1.17447,-0.8465 -2,-2.5887 -2,-4.2207 0,-1.5286 -0.45,-2.7793 -1,-2.7793 -0.55,0 -1,-0.8006 -1,-1.7792 0,-0.9786 -0.9,-2.4279 -2,-3.2208 -1.1,-0.7928 -2,-2.2421 -2,-3.2207 0,-0.9786 -0.45,-1.7793 -1,-1.7793 -0.55,0 -1,-0.8006 -1,-1.7792 0,-0.9786 -0.9,-2.4279 -2,-3.2208 -1.1,-0.7928 -2,-2.2421 -2,-3.2207 0,-0.9786 -0.45,-1.7793 -1,-1.7793 -0.55,0 -1,-1.3125 -1,-2.9166 0,-1.6042 -0.5625,-3.1792 -1.25,-3.5 -1,-0.4667 -1,-0.7 0,-1.1667 0.6875,-0.3208 1.25,-1.2805 1.25,-2.1327 0,-0.8522 1.0125,-2.4502 2.25,-3.5513 1.5262,-1.3579 1.84789,-2.1463 1,-2.4506 -1.9733,-0.7084 -1.4561,-2.2821 0.75,-2.2821 1.33333,0 2,-0.6666 2,-2 0,-1.1 0.45,-2 1,-2 0.55,0 1,-0.9 1,-2 0,-1.1 0.45,-2 1,-2 0.55,0 1,-1.3125 1,-2.9166 0,-1.6042 0.54562,-3.0986 1.2125,-3.3209 0.72052,-0.2401 -0.36657,-1.9832 -2.67917,-4.2958 -2.3126,-2.3126 -4.05566,-3.3997 -4.29583,-2.6792 C 5.45637,835.13087 4,833.96737 4,830.99997 c 0,-1.65 -0.45,-3 -1,-3 -0.55,0 -1,-1.3125 -1,-2.9166 0,-1.6042 -0.5625,-3.1792 -1.25,-3.5 -1,-0.4667 -1,-0.7 0,-1.1667 0.6875,-0.3208 1.25,-1.4458 1.25,-2.5 0,-1.0542 0.45,-1.9167 1,-1.9167 0.55,0 1,-0.7071 1,-1.5714 0,-1.8311 2.34609,-4.4286 4,-4.4286 1.6539,0 4,-2.5974 4,-4.4285 0,-0.8643 0.45,-1.5715 1,-1.5715 0.55,0 1,0.45 1,1 0,0.55 0.9,1 2,1 1.1,0 2,-0.45 2,-1 0,-0.55 0.8625,-1 1.91666,-1 1.05417,0 2.17917,-0.5625 2.5,-1.25 0.46667,-1 0.7,-1 1.16667,0 0.32083,0.6875 1.44583,1.25 2.5,1.25 1.05417,0 1.91667,0.45 1.91667,1 0,0.55 0.45,1 1,1 0.55,0 1,-2.25 1,-5 0,-2.75 -0.45,-5 -1,-5 -0.55,0 -1,-0.9 -1,-2 0,-1.1 0.45,-2 1,-2 1.4818,0 1.24859,-9.7173 -0.25,-10.4167 -1,-0.4666 -1,-0.7 0,-1.1666 1.54897,-0.7229 1.78916,-18.4167 0.25,-18.4167 -0.55,0 -1,0.45 -1,1 0,0.55 -0.45,1 -1,1 -0.55,0 -1,-1.35 -1,-3 0,-1.65 0.45,-3 1,-3 0.55,0 1,0.45 1,1 0,0.55 0.45,1 1,1 0.61111,0 1,-4.6667 1,-12 0,-7.3333 -0.38889,-12 -1,-12 -0.55,0 -1,-0.9 -1,-2 0,-1.1 0.45,-2 1,-2 1.44346,0 1.23262,-3.7248 -0.25,-4.4167 -1,-0.4666 -1,-0.7 0,-1.1666 1.94153,-0.9061 1.47272,-2.4167 -0.75,-2.4167 -2.55015,0 -2.55015,-1.162 0,-3 1.1,-0.7929 2,-2.2422 2,-3.2208 0,-0.9786 0.45,-1.7792 1,-1.7792 0.55,0 1,-0.9 1,-2 0,-1.3333 -0.66667,-2 -2,-2 -1.33334,0 -2,-0.66665 -2,-1.99995 0,-1.1 0.45,-2 1,-2 0.55,0 1,-2.25 1,-5 0,-2.75 0.45,-5 1,-5 0.57142,0 1,-3 1,-7 0,-4 0.42857,-7 1,-7 0.625,0 1,-6 1,-16.00002 0,-10 0.375,-16 1,-16 0.55,0 1,-1.70066 1,-3.77924 0,-2.63207 -0.6071,-4.21681 -2,-5.22076 -1.1,-0.79284 -2,-2.24218 -2,-3.22076 C 32,638.80066 31.55,638 31,638 c -0.57143,0 -1,-3 -1,-7 0,-4 0.42857,-7 1,-7 0.55,0 1,-0.80066 1,-1.77924 0,-0.97858 0.9,-2.42792 2,-3.22076 1.3929,-1.00395 2,-2.58869 2,-5.22076 C 36,611.70066 36.45,610 37,610 c 0.55,0 1,-0.9 1,-2 0,-1.1 -0.45,-2 -1,-2 -0.55,0 -1,-1.8 -1,-4 0,-2.2 0.45,-4 1,-4 1.45224,0 1.22913,-5.7264 -0.25,-6.41667 -1,-0.46666 -1,-0.7 0,-1.16666 1.61786,-0.75501 1.61786,-4.07833 0,-4.83334 -1,-0.46666 -1,-0.7 0,-1.16666 0.86292,-0.4027 1.25,-3.34445 1.25,-9.5 C 38,569.63889 38.4081,566 39,566 c 1.45635,0 1.22745,-5.75169 -0.25,-6.28203 -0.8479,-0.30436 -0.52621,-1.0927 1,-2.45063 1.2375,-1.10106 2.25,-2.69915 2.25,-3.5513 0,-0.85216 0.5625,-1.75129 1.25,-1.99807 0.83559,-0.29995 0.45334,-1.15638 -1.15301,-2.58334 L 39.69398,547 41.84699,545.1327 C 43.03114,544.10569 44,542.11819 44,540.71604 c 0,-1.40216 0.5625,-2.77761 1.25,-3.05658 0.94375,-0.38294 0.8825,-0.7895 -0.25,-1.65946 -1.13251,-0.86996 -1.19376,-1.27652 -0.25,-1.65946 1.62907,-0.66102 1.62907,-7.99697 0,-8.75721 -1,-0.46666 -1,-0.7 0,-1.16666 0.75141,-0.35066 1.25,-2.54445 1.25,-5.5 C 46,516.2125 46.45,514 47,514 c 0.55,0 1,-0.9 1,-2 0,-1.1 -0.45,-2 -1,-2 -0.55,0 -1,-0.9 -1,-2 0,-1.1 0.45,-2 1,-2 1.46818,0 1.23426,-7.74924 -0.25,-8.28203 -0.8479,-0.30436 -0.52621,-1.0927 1,-2.45063 C 49.9129,493.3429 50,492.6216 50,476.6327 50,466.2109 50.37341,460 51,460 c 0.55,0 1,-0.8625 1,-1.91667 0,-1.05416 0.5625,-2.1449 1.25,-2.42387 C 54.19375,455.27652 54.1325,454.86996 53,454 51.86749,453.13004 51.80624,452.72348 52.75,452.34054 53.51173,452.03145 54,449.91283 54,446.91667 54,444.2125 54.45,442 55,442 c 0.55,0 1,-1.63472 1,-3.6327 0,-2.50682 0.6874,-4.22889 2.21792,-5.5563 1.88338,-1.63345 1.99651,-2.07742 0.75,-2.94343 -1.11158,-0.77226 -1.16448,-1.14296 -0.21792,-1.52703 1.67276,-0.67875 1.67276,-9.97658 0,-10.75721 -1,-0.46666 -1,-0.7 0,-1.16666 0.6875,-0.32084 1.25,-1.44584 1.25,-2.5 C 60,412.8625 60.45,412 61,412 c 0.55,0 1,-0.9 1,-2 0,-1.1 -0.45,-2 -1,-2 -0.55,0 -1,-2.25 -1,-5 0,-2.75 0.45,-5 1,-5 0.55,0 1,-2.2125 1,-4.91667 0,-2.95555 0.49858,-5.14934 1.25,-5.5 1.000004,-0.46666 1.000004,-0.7 0,-1.16666 C 61.76737,385.72478 61.55654,382 63,382 c 0.55,0 1.000004,-1.8 1.000004,-4 0,-2.2 0.45,-4 1,-4 0.55,0 1,-0.45 1,-1 0,-0.55 -0.9,-1 -2,-1 C 62.9,372 62,371.55 62,371 c 0,-0.55 0.45,-1 1,-1 1.443464,0 1.232624,-3.72478 -0.25,-4.41667 -1,-0.46666 -1,-0.7 0,-1.16666 0.79342,-0.37027 1.250004,-2.74445 1.250004,-6.5 C 64.000004,352.66667 63.77464,352 62,352 c -1.1,0 -2,-0.45 -2,-1 0,-0.55 0.9,-1 2,-1 1.33333,0 2.000004,-0.66667 2.000004,-2 0,-1.1 -0.450004,-2 -1.000004,-2 -0.55,0 -1,-0.9 -1,-2 0,-1.1 0.45,-2 1,-2 0.55,0 1.000004,-0.9 1.000004,-2 0,-1.1 0.45,-2 1,-2 0.55,0 1,-2.25 1,-5 0,-2.75 0.45,-5 1,-5 0.55,0 1,-2.25 1,-5 0,-2.75 0.45,-5 1,-5 0.55,0 1,-0.71946 1,-1.59879 0,-0.87933 1.35,-2.85988 3,-4.40121 1.65,-1.54133 3,-3.52188 3,-4.40121 0,-0.87933 0.45,-1.59879 1,-1.59879 0.55,0 1,-0.9 1,-2 0,-1.33333 0.66666,-2 2,-2 1.55555,0 2,-0.66667 2,-3 0,-1.65 0.45,-3 1,-3 0.55,0 1,-0.70714 1,-1.57143 0,-2.02104 2.40753,-4.42857 4.42857,-4.42857 0.90476,0 1.57143,-0.84848 1.57143,-2 0,-1.15152 0.66667,-2 1.57143,-2 2.02104,0 4.42857,-2.40753 4.42857,-4.42857 0,-0.86429 0.70422,-1.57143 1.56492,-1.57143 0.86071,0 3.756496,-2.25 6.435076,-5 2.67858,-2.75 5.47503,-5 6.21432,-5 0.73929,0 1.99284,-0.9 2.78568,-2 0.84651,-1.17447 2.58869,-2 4.22076,-2 1.52858,0 2.77924,-0.45 2.77924,-1 0,-0.55 0.9,-1 2,-1 1.1,0 2,-0.45 2,-1 0,-0.56522 2.85714,-1 6.57143,-1 C 137.32804,262 140,260.74499 140,257.57143 140,256.70714 140.71946,256 141.59879,256 c 0.87933,0 2.85988,-1.35 4.40121,-3 1.54133,-1.65 3.52188,-3 4.40121,-3 0.87933,0 1.59879,-0.45 1.59879,-1 0,-0.55 1.35,-1 3,-1 2.76923,0 3,-0.27273 3,-3.54545 0,-4.28356 3.67765,-8.45455 7.45455,-8.45455 1.4,0 2.54545,-0.45 2.54545,-1 0,-0.55 -0.45,-1 -1,-1 -0.55,0 -1,-0.45 -1,-1 0,-0.55 0.70714,-1 1.57143,-1 2.36056,0 4.42857,-2.53498 4.42857,-5.42857 0,-1.671 0.55026,-2.57143 1.57143,-2.57143 1.8311,0 4.42857,-2.3461 4.42857,-4 0,-1.88249 3.26574,-4.70278 3.75298,-3.24107 C 182.81254,219.93762 184,217.42273 184,212 c 0,-3.33333 -0.44444,-6 -1,-6 -0.55,0 -1,-1.35 -1,-3 0,-1.65 -0.45,-3 -1,-3 -0.55,0 -1,-1.35 -1,-3 0,-2.33333 -0.44444,-3 -2,-3 -2.22272,0 -2.69153,-1.51062 -0.75,-2.41667 1,-0.46666 1,-0.7 0,-1.16666 -0.6875,-0.32084 -1.25,-1.44584 -1.25,-2.5 C 176,186.8625 175.55,186 175,186 c -0.55,0 -1,-1.35 -1,-3 0,-1.65 -0.45,-3 -1,-3 -0.55,0 -1,-0.9 -1,-2 0,-1.1 0.45,-2 1,-2 0.55,0 1,-0.45 1,-1 0,-0.55 -0.9,-1 -2,-1 -2.20609,0 -2.7233,-1.5737 -0.75,-2.28203 0.84789,-0.30436 0.52621,-1.0927 -1,-2.45063 C 167.95635,167.22657 167.19065,164 169,164 c 0.55,0 1,-0.9 1,-2 0,-1.1 -0.45,-2 -1,-2 -0.55,0 -1,-1.8 -1,-4 0,-2.2 -0.45,-4 -1,-4 -0.55556,0 -1,-2.66667 -1,-6 0,-3.33333 -0.44444,-6 -1,-6 -0.55556,0 -1,-2.66667 -1,-6 0,-3.33333 -0.44444,-6 -1,-6 -0.55,0 -1,-0.8625 -1,-1.91667 0,-1.05416 -0.5625,-2.17916 -1.25,-2.5 -1,-0.46666 -1,-0.7 0,-1.16666 C 162.22914,121.7264 162.45224,116 161,116 c -0.55,0 -1,-2.25 -1,-5 0,-2.75 -0.45,-5 -1,-5 -0.55,0 -1,-1.8 -1,-4 0,-2.2 -0.45,-4 -1,-4 -0.55,0 -1,-0.9 -1,-2 0,-1.33333 0.66667,-2 2,-2 2.55014,0 2.55014,-1.16196 0,-3 -1.73866,-1.25316 -2,-2.58869 -2,-10.22076 C 156,72.66667 156.15187,72 158,72 c 1.1,0 2,-0.45 2,-1 0,-0.55 -0.45,-1 -1,-1 -0.55,0 -1,-0.9 -1,-2 0,-1.1 0.45,-2 1,-2 0.55,0 1,-1.35 1,-3 0,-1.65 0.45,-3 1,-3 0.55,0 1,-0.9 1,-2 0,-1.1 0.45,-2 1,-2 0.55,0 1,-1.18472 1,-2.6327 0,-1.47407 0.97609,-3.47927 2.21792,-4.5563 C 168.05199,47.22032 168.18734,46.73382 167,46 165.81266,45.26618 165.94801,44.77968 167.78208,43.189 169.00193,42.13103 170,40.30046 170,39.12108 170,35.88894 190.20489,16 193.48837,16 194.86977,16 196,15.55 196,15 c 0,-0.55 0.9,-1 2,-1 1.30435,0 2,-0.66667 2,-1.91667 0,-1.05416 0.5625,-2.1449 1.25,-2.42387 0.94656,-0.38407 0.89366,-0.75476 -0.21792,-1.52703 -1.24651,-0.86601 -1.13339,-1.30998 0.75,-2.94343 C 203.00193,4.13103 204,2.53069 204,1.63271 204,0.28738 205.16149,0 210.59879,0 216.64135,0 217.4338,0.25288 220,3 c 2.77016,2.96547 2.92346,3 13.31788,3 7.43458,0 10.68636,-0.36623 11.09879,-1.25 0.46666,-1 0.7,-1 1.16666,0 0.32084,0.6875 1.44584,1.25 2.5,1.25 C 249.1375,6 250,6.45 250,7 c 0,0.55 1.8,1 4,1 2.2,0 4,0.45 4,1 0,0.55 1.35,1 3.00001,1 1.65,0 3,0.45 3,1 0,0.55 0.9,1 2,1 1.1,0 2,0.45 2,1 0,0.55 0.9,1 2,1 1.1,0 2,0.45 2,1 0,0.55 0.8006,1 1.7792,1 0.9786,0 2.4279,0.9 3.2208,2 0.8465,1.17447 2.5887,2 4.2207,2 1.5286,0 2.7793,0.45 2.7793,1 0,0.55 1.2506,1 2.7792,1 1.6321,0 3.3743,0.82553 4.2208,2 0.7928,1.1 2.0616,2 2.8195,2 0.7579,0 2.6391,1.35 4.1805,3 1.5413,1.65 3.779,3 4.9726,3 2.5413,0 5.0274,2.19 5.0274,4.42857 0,0.86429 0.45,1.57143 1,1.57143 0.55,0 1,1.35 1,3 0,2.06061 0.492,3 1.5714,3 2.021,0 4.4286,2.40753 4.4286,4.42857 0,0.86429 0.45,1.57143 1,1.57143 0.55,0 1,1.8 1,4 0,2.2 0.45,4 1,4 0.55,0 1,1.7625 1,3.91667 0,2.15555 0.562,4.17896 1.25,4.5 1,0.46666 1,0.7 0,1.16666 -1.4986,0.69935 -1.7318,10.41667 -0.25,10.41667 0.55,0 1,1.35 1,3 0,1.65 0.45,3 1,3 0.5714,0 1,3 1,7 0,4 0.4285,7 1,7 0.55,0 1,2.25 1,5 0,3.87879 0.3524,5 1.5714,5 0.8643,0 2.2143,0.64286 3,1.42857 1.6235,1.6235 1.9462,6.57143 0.4286,6.57143 -0.55,0 -1,1.35 -1,3 0,1.65 0.45,3 1,3 0.55,0 1,2.25 1,5 0,2.75 0.45,5 1,5 0.55,0 1,0.8625 1,1.91667 0,1.05416 0.5625,2.1449 1.25,2.42387 0.9412,0.3819 0.8794,0.77303 -0.25,1.58333 -1.3334,0.95656 -1.3334,1.1957 0,2.15226 1.1294,0.8103 1.1912,1.20143 0.25,1.58333 -1.6253,0.65949 -1.6253,6.03915 0,6.62257 0.8479,0.30436 0.5262,1.0927 -1,2.45063 -2.9809,2.65226 -2.8398,3.26734 0.75,3.26734 2.8333,0 3,0.22222 3,4 0,2.2 -0.45,4 -1,4 -0.55,0 -1,0.45 -1,1 0,0.55 0.9,1 2,1 1.6595,0 2,0.66667 2,3.91667 0,2.22736 -0.5392,4.11019 -1.25,4.36536 -0.8479,0.30436 -0.5262,1.0927 1,2.45063 1.7214,1.53167 2.25,3.09018 2.25,6.63464 0,2.54798 0.45,4.6327 1,4.6327 0.55,0 1,1.7625 1,3.91667 0,2.15555 0.562,4.17896 1.25,4.5 1,0.46666 1,0.7 0,1.16666 -1.4826,0.69189 -1.6935,4.41667 -0.25,4.41667 1.4569,0 1.2274,7.7272 -0.25,8.41667 -1,0.46666 -1,0.7 0,1.16666 0.6875,0.32084 1.25,1.89584 1.25,3.5 0,1.60417 0.45,2.91667 1,2.91667 0.55,0 1,2.25 1,5 0,4.33333 0.2666,5 2,5 1.7778,0 2,0.66667 2,6 0,3.33333 0.4444,6 1,6 0.55,0 1,1.8 1,4 0,2.2 0.45,4 1,4 0.55,0 1,0.9 1,2 0,2.22272 1.5106,2.69153 2.4166,0.75 0.4667,-1 0.7,-1 1.1667,0 0.3507,0.75141 2.5445,1.25 5.5,1.25 2.7042,0 4.9167,0.45 4.9167,1 0,0.55 0.8006,1 1.7792,1 0.9786,0 2.4279,0.9 3.2208,2 0.7951,1.10324 2.5887,2 4,2 1.4113,0 3.2048,0.89676 4,2 1.0039,1.39291 2.5887,2 5.2207,2 2.0786,0 3.7793,0.45 3.7793,1 0,0.55 0.7194,1 1.5988,1 0.8793,0 2.8598,1.35 4.4012,3 1.5413,1.65 3.7913,3 5,3 1.2086,0 3.4586,1.35 5,3 1.5413,1.65 3.5219,3 4.4012,3 0.8793,0 1.5988,0.70714 1.5988,1.57143 0,1.82795 2.3451,4.42857 3.9935,4.42857 0.625,0 3.3279,2.25 6.0065,5 2.6786,2.75 5.3815,5 6.0065,5 1.6483,0 3.9935,2.60062 3.9935,4.42857 0,0.86429 0.7071,1.57143 1.5714,1.57143 2.021,0 4.4286,2.40753 4.4286,4.42857 0,0.90476 0.8485,1.57143 2,1.57143 1.3333,0 2,0.66667 2,2 0,1.1 -0.45,2 -1,2 -0.55,0 -1,0.45 -1,1 0,0.55 1.35,1 3,1 2.2898,0 3,0.4537 3,1.91667 0,1.05416 -0.5585,2.10282 -1.2411,2.33035 -1.652,0.55067 1.4792,3.75298 3.6696,3.75298 1.0794,0 1.5715,0.93939 1.5715,3 0,2.9848 1.4579,4.12608 2.247,1.75893 0.2904,-0.87127 0.983,-0.67174 2.3244,0.66964 1.3414,1.34139 1.5409,2.03398 0.6696,2.32441 -1.9744,0.65814 -1.4378,2.24702 0.759,2.24702 1.5555,0 2,0.66667 2,3 0,2.33333 0.4444,3 2,3 1.3333,0 2,0.66667 2,2 0,1.1 0.45,2 1,2 0.55,0 1,0.80066 1,1.77924 0,0.97858 0.9,2.42792 2,3.22076 1.1,0.79284 2,2.07689 2,2.85346 0,0.77657 1.0125,2.31282 2.25,3.41388 1.5262,1.35793 1.8479,2.14627 1,2.45063 -1.759,0.6314 -1.5591,2.28203 0.2763,2.28203 0.8395,0 3.5395,2.01316 6,4.47368 3.6067,3.60671 4.4737,5.15707 4.4737,8 0,3.25147 0.2338,3.52632 3,3.52632 2.6137,0 3,0.35786 3,2.77924 0,1.63207 0.8255,3.37425 2,4.22076 1.1744,0.84651 2,2.58869 2,4.22076 0,2.42138 0.3863,2.77924 3,2.77924 2.3333,0 3,0.44444 3,2 0,1.1 -0.45,2 -1,2 -0.55,0 -1,0.45 -1,1 0,0.55 1.1571,1 2.5714,1 2.9173,0 6.7317,3.06562 4.6696,3.75298 -2.3671,0.78905 -1.2258,2.24702 1.759,2.24702 2.3333,0 3,0.44444 3,2 0,1.1 -0.45,2 -1,2 -0.55,0 -1,0.45 -1,1 0,0.55 1.35,1 3,1 2.3333,0 3,0.44444 3,2 0,1.1 0.45,2 1,2 0.55,0 1,0.73472 1,1.6327 0,0.89799 1.0125,2.53358 2.25,3.63464 1.5262,1.35793 1.8479,2.14627 1,2.45063 -1.9733,0.70833 -1.4561,2.28203 0.75,2.28203 1.6666,0 2,0.66667 2,4 0,3.62963 0.2381,4 2.5714,4 2.8936,0 5.4286,2.06801 5.4286,4.42857 0,0.86429 0.45,1.57143 1,1.57143 0.55,0 1,0.9 1,2 0,1.55556 0.6666,2 3,2 2.0606,0 3,0.49206 3,1.57143 0,0.86428 0.6428,2.21428 1.4285,3 0.7858,0.78571 2.1358,1.42857 3,1.42857 0.8643,0 1.5715,0.70714 1.5715,1.57143 0,2.02104 2.4075,4.42857 4.4285,4.42857 1.1353,0 1.5715,0.99134 1.5715,3.57143 0,3.66839 2.9397,8.10943 3.753,5.66964 0.2275,-0.68259 1.1768,-1.24107 2.1095,-1.24107 0.9328,0 2.3446,-0.9 3.1375,-2 0.7928,-1.1 2.2422,-2 3.2207,-2 0.9786,0 1.7793,-0.45 1.7793,-1 0,-0.55 0.9,-1 2,-1 1.1,0 2,-0.45 2,-1 0,-0.55 1.3125,-1 2.9166,-1 1.6042,0 3.1792,-0.5625 3.5,-1.25 0.4667,-1 0.7,-1 1.1667,0 0.3703,0.79343 2.7445,1.25 6.5,1.25 3.2778,0 5.9167,0.44601 5.9167,1 0,0.55 0.7071,1 1.5714,1 1.9274,0 4.4286,2.37651 4.4286,4.20781 0,0.74287 0.9,1.99935 2,2.79219 1.1,0.79284 2,2.24218 2,3.22076 0,0.97858 0.45,1.77924 1,1.77924 0.55,0 1,0.9 1,2 0,1.1 0.45,2 1,2 0.55,0 1,0.9 1,2 0,1.1 0.45,2 1,2 0.55,0 1,1.25066 1,2.77924 0,1.63207 0.8255,3.37425 2,4.22076 1.5199,1.09551 2,2.58869 2,6.22076 0,2.62858 0.45,4.77924 1,4.77924 0.5926,0 1,3.66667 1,9 0,5.33333 0.4074,9 1,9 0.6437,0 1,10.33333 1,29 0,18.66667 0.3563,29 1,29 0.6222,0 1,5.66667 1,15 0,9.33333 -0.3778,15 -1,15 -0.6056,0 -1,4.30556 -1,10.91667 0,7.79616 -0.3573,11.06165 -1.25,11.42387 -0.9438,0.38294 -0.8825,0.7895 0.25,1.65946 1.1325,0.86996 1.1937,1.27652 0.25,1.65946 -0.9158,0.37161 -1.25,4.22771 -1.25,14.42387 0,8.61111 -0.3813,13.91667 -1,13.91667 -0.554,0 -1,2.63889 -1,5.91667 0,3.79616 -0.448,6.09844 -1.25,6.42387 -0.9438,0.38294 -0.8825,0.7895 0.25,1.65946 1.1325,0.86996 1.1937,1.27652 0.25,1.65946 -0.8521,0.34572 -1.25,3.02771 -1.25,8.42387 0,4.61111 -0.4176,7.91669 -1,7.91669 -0.5556,0 -1,2.6667 -1,6 0,3.3333 -0.4445,6 -1,6 -0.5556,0 -1,2.6667 -1,6 0,3.3333 -0.4445,6 -1,6 -0.55,0 -1,1.7625 -1,3.9167 0,2.2294 -0.5347,4.0948 -1.2411,4.3303 -1.652,0.5507 1.4792,3.75295 3.6696,3.75295 0.8643,0 1.5715,0.8006 1.5715,1.7792 0,0.9786 0.9,2.4279 2,3.2208 2.5508,1.8385 2.8918,9 0.4285,9 -2.021,0 -4.4285,2.4075 -4.4285,4.4286 0,0.8642 -0.8007,1.5714 -1.7793,1.5714 -0.9785,0 -2.4279,0.9 -3.2207,2 -1.004,1.3929 -2.5887,2 -5.2208,2 -3.6985,0 -5.0141,1.257 -2.5292,2.4167 1,0.4666 1,0.7 0,1.1666 -1.4775,0.6895 -1.707,8.4167 -0.25,8.4167 0.55,0 1,0.45 1,1 0,0.55 -0.9,1 -2,1 -1.6667,0 -2,0.6667 -2,4 0,2.2 -0.45,4 -1,4 -0.55,0 -1,1.8 -1,4 0,2.2 -0.45,4 -1,4 -0.55,0 -1,0.9 -1,2 0,1.1 -0.45,2 -1,2 -0.55,0 -1,0.9 -1,2 0,1.1 -0.45,2 -1,2 -0.55,0 -1,0.9 -1,2 0,1.1 -0.45,2 -1,2 -0.55,0 -1,1.8 -1,4 0,2.2 -0.45,4 -1,4 -0.55,0 -1,1.35 -1,3 0,1.65 -0.45,3 -1,3 -0.55,0 -1,1.35 -1,3 0,1.65 -0.45,3 -1,3 -0.55,0 -1,1.35 -1,3 0,1.65 -0.45,3 -1,3 -0.55,0 -1,0.9 -1,2 0,1.1 -0.45,2 -1,2 -0.55,0 -1,1.35 -1,3 0,1.65 -0.45,3 -1,3 -0.55,0 -1,1.35 -1,3 0,1.65 -0.45,3 -1,3 -0.55,0 -1,0.9 -1,2 0,1.1 -0.45,2 -1,2 -0.55,0 -1,0.9 -1,2 0,1.1 -0.45,2 -1,2 -0.55,0 -1,0.9 -1,2 0,1.1 -0.45,2 -1,2 -0.55,0 -1,0.9 -1,2 0,1.1 -0.45,2 -1,2 -0.55,0 -1,1.35 -1,3 0,1.65 -0.45,3 -1,3 -0.55,0 -1,0.8625 -1,1.9167 0,1.0542 -0.5625,2.1449 -1.25,2.4239 -0.9466,0.384 -0.8937,0.7547 0.2179,1.527 1.2465,0.866 1.1334,1.31 -0.75,2.9434 -1.2199,1.058 -2.2179,2.559 -2.2179,3.3356 0,0.7765 -0.9,2.0606 -2,2.8534 -1.1,0.7929 -2,2.2422 -2,3.2208 0,0.9786 -0.45,1.7792 -1,1.7792 -0.55,0 -1,0.8007 -1,1.7793 0,0.9786 -0.9,2.4279 -2,3.2207 -1.1,0.7929 -2,2.2422 -2,3.2208 0,0.9786 -0.45,1.7792 -1,1.7792 -0.55,0 -1,0.9 -1,2 0,1.1 -0.45,2 -1,2 -0.55,0 -1,0.9 -1,2 0,1.1 -0.45,2 -1,2 -0.55,0 -1,0.9 -1,2 0,1.1 -0.45,2 -1,2 -0.55,0 -1,0.9 -1,2 0,1.1 -0.45,2 -1,2 -0.55,0 -1,0.7043 -1,1.565 0,0.8607 -2.25,3.7565 -5,6.435 -2.9106,2.835 -5,5.7602 -5,7 0,1.2398 -2.0895,4.1651 -5,7 -2.75,2.6786 -5,5.5744 -5,6.4351 0,0.8607 -0.45,1.5649 -1,1.5649 -0.55,0 -1,1.8 -1,4 0,2.2 -0.45,4 -1,4 -0.55,0 -1,0.9 -1,2 0,1.1 -0.45,2 -1,2 -0.55,0 -1,0.9 -1,2 0,1.3334 -0.6667,2 -2,2 -2.202,0 -2.7311,1.5886 -0.75,2.2518 0.7585,0.2539 -0.4211,2.0253 -3,4.505 -2.3375,2.2475 -4.25,4.6162 -4.25,5.2636 0,0.6475 -1.35,2.4383 -3,3.9796 -1.65,1.5414 -3,3.5219 -3,4.4012 0,0.9322 -0.834,1.5988 -2,1.5988 -1.1373,0 -2,0.6667 -2,1.5455 0,2.116 -5.2286,7.2689 -5.7595,5.6761 -0.5874,-1.7621 -2.2405,-1.504 -2.2405,0.3499 0,2.5157 -2.6035,4.4285 -6.0274,4.4285 -2.233,0 -3.9987,0.8869 -5.9726,3 -2.9522,3.1603 -5.4417,3.8393 -6.4167,1.75 -0.4667,-1 -0.7,-1 -1.1667,0 -0.6902,1.4792 -6.4166,1.7023 -6.4166,0.25 0,-0.55 -1.35,-1 -3,-1 -1.65,0 -3,-0.45 -3,-1 0,-0.55 -0.9,-1 -2,-1 -1.1,0 -2,-0.45 -2,-1 0,-0.55 -0.7072,-1 -1.5715,-1 -2.021,0 -4.4285,-2.4075 -4.4285,-4.4285 0,-0.8643 -0.45,-1.5715 -1,-1.5715 -0.55,0 -1,-0.9 -1,-2 0,-1.1 -0.45,-2 -1,-2 -0.55,0 -1,-0.9 -1,-2 0,-1.1 -0.45,-2 -1,-2 -0.55,0 -1,-0.9 -1,-2 0,-1.1 -0.45,-2 -1,-2 -0.55,0 -1,-0.9 -1,-2 0,-1.1 -0.45,-2 -1,-2 -0.55,0 -1,-1.35 -1,-3 0,-1.65 -0.45,-3 -1,-3 -0.55,0 -1,1.35 -1,3 0,1.65 -0.45,3 -1,3 -0.5715,0 -1,3 -1,7 0,4 -0.4286,7 -1,7 -0.55,0 -1,1.8 -1,4 0,2.2 -0.45,4 -1,4 -1.4435,0 -1.2326,3.7248 0.25,4.4167 1,0.4667 1,0.7 0,1.1667 -0.688,0.321 -1.25,2.3444 -1.25,4.5 0,2.1541 -0.45,3.9166 -1,3.9166 -0.55,0 -1,1.8 -1,4 0,2.2 0.45,4 1,4 0.55,0 1,0.9 1,2 0,1.1 -0.45,2 -1,2 -1.4818,0 -1.2486,9.71733 0.25,10.41673 1,0.4666 1,0.7 0,1.1666 -0.6875,0.3209 -1.25,1.8959 -1.25,3.5 0,1.6042 -0.45,2.9167 -1,2.9167 -0.55,0 -1,0.8625 -1,1.9167 0,1.0541 -0.5625,2.1449 -1.25,2.4238 -0.9412,0.3819 -0.8795,0.7731 0.25,1.5834 1.3333,0.9565 1.3333,1.1872 0,2.0761 -1.3334,0.8889 -1.3334,1.1196 0,2.0761 1.1294,0.8103 1.1912,1.2015 0.25,1.5834 -0.7009,0.2844 -1.25,2.2277 -1.25,4.4238 0,2.1542 -0.45,3.9167 -1,3.9167 -0.5926,0 -1,3.6667 -1,9 0,5.3333 -0.4074,9 -1,9 -0.55,0 -1,1.35 -1,3 0,1.65 0.45,3 1,3 0.55,0 1,0.9 1,2 0,1.1 0.45,2 1,2 0.55,0 1,0.9 1,2 0,1.1 0.45,2 1,2 0.55,0 1,1.8 1,4 0,2.2 0.45,4 1,4 0.55,0 1,2.25 1,5 0,2.75 0.45,5 1,5 0.606,0 1,4.3333 1,11 0,6.6667 -0.394,11 -1,11 -0.55,0 -1,2.5347 -1,5.6327 0,4.5723 -0.4176,5.9948 -2.2179,7.5563 -1.8694,1.6213 -1.9873,2.0719 -0.75,2.8673 1.2868,0.8273 1.2828,1.0765 -0.032,2.0198 -1.1295,0.8103 -1.1913,1.2015 -0.25,1.5834 0.7009,0.2844 1.25,2.2277 1.25,4.4238 0,2.1542 0.45,3.9167 1,3.9167 0.55,0 1,0.45 1,1 0,0.55 -0.9,1 -2,1 -1.2507,0 -2,0.6667 -2,1.7792 0,0.9786 -0.9,2.428 -2,3.2208 -1.1,0.7928 -2,2.2422 -2,3.2208 0,0.9785 -0.45,1.7792 -1,1.7792 -0.55,0 -1,1.3125 -1,2.9167 0,1.6041 -0.5625,3.1791 -1.25,3.5 -1,0.4666 -1,0.7 0,1.1666 1.4791,0.6903 1.7022,6.4167 0.25,6.4167 -0.55,0 -1,0.8625 -1,1.9167 0,1.0541 -0.5625,2.1185 -1.25,2.3653 -0.8479,0.3044 -0.5263,1.0927 1,2.4507 1.2375,1.101 2.25,2.5713 2.25,3.2673 0,0.696 -1.0125,2.1663 -2.25,3.2673 -1.5263,1.358 -1.8479,2.1463 -1,2.4507 1.5038,0.5398 1.7407,10.282 0.25,10.282 -0.55,0 -1,0.9 -1,2 0,1.1 0.45,2 1,2 0.55,0 1,1.8 1,4 0,3.3333 -0.3334,4 -2,4 -1.3334,0 -2,0.6667 -2,2 0,1.1 0.45,2 1,2 0.55,0 1,1.35 1,3 0,1.65 -0.45,3 -1,3 -1.4523,0 -1.2292,5.7264 0.25,6.4167 1,0.4666 1,0.7 0,1.1666 -0.6875,0.3209 -1.25,1.4459 -1.25,2.5 0,1.0542 -0.45,1.9167 -1,1.9167 -0.55,0 -1,0.45 -1,1 0,0.55 0.9,1 2,1 1.1,0 2,0.45 2,1 0,0.55 -0.45,1 -1,1 -0.55,0 -1,1.35 -1,3 0,1.65 0.45,3 1,3 0.55,0 1,0.9 1,2 0,1.1 -0.45,2 -1,2 -0.55,0 -1,1.8 -1,4 0,2.2 -0.45,4 -1,4 -0.55,0 -1,0.9 -1,2 0,1.1 0.45,2 1,2 0.55,0 1,1.35 1,3 0,2.0392 -0.495,3 -1.5455,3 -0.85,0 -2.65,1.1045 -4,2.4545 -2.1061,2.1061 -2.4545,3.3839 -2.4545,9 0,3.697 -0.4352,6.5455 -1,6.5455 -0.5825,0 -1,3.3056 -1,7.9167 0,5.3555 -0.4044,8.1053 -1.25,8.5 -1,0.4666 -1,0.7 0,1.1666 1.4826,0.6919 1.6934,4.4167 0.25,4.4167 -0.5556,0 -1,2.6667 -1,6 0,3.3333 -0.4445,6 -1,6 -0.5715,0 -1,3 -1,7 0,4 -0.4286,7 -1,7 -0.55,0 -1,2.25 -1,5 0,2.75 -0.45,5 -1,5 -0.5834,0 -1,3.3333 -1,8 0,4.6667 -0.4167,8 -1,8 -0.55,0 -1,2.25 -1,5 0,2.75 -0.45,5 -1,5 -0.5926,0 -1,3.6667 -1,9 0,5.3333 -0.4075,9 -1,9 -0.5895,0 -1,3.5442 -1,8.6327 0,7.6706 0.2471,8.8471 2.2179,10.5563 1.8694,1.6213 1.9872,2.0719 0.75,2.8673 -1.2868,0.8273 -1.2829,1.0765 0.032,2.0198 1.1294,0.8103 1.1912,1.2015 0.25,1.5834 -1.6241,0.659 -1.6241,5.9993 0,6.7572 1,0.4666 1,0.7 0,1.1666 -1.4826,0.6919 -1.6935,4.4167 -0.25,4.4167 0.5555,0 1,2.6667 1,6 0,3.3333 0.4444,6 1,6 0.55,0 1,1.8 1,4 0,2.2 0.45,4 1,4 0.55,0 1,1.35 1,3 0,1.65 0.45,3 1,3 0.55,0 1,0.7103 1,1.5784 0,0.8681 1.8,3.3078 4,5.4216 2.2,2.1138 4,4.3368 4,4.9401 0,1.4424 12.6357,14.0599 14.0802,14.0599 0.6146,0 2.3784,1.35 3.9198,3 1.5413,1.65 3.3321,3 3.9796,3 0.6474,0 2.9066,1.8 5.0204,4 2.1137,2.2 4.5535,4 5.4216,4 0.8681,0 1.5784,0.45 1.5784,1 0,0.55 0.9,1 2,1 1.3333,0 2,0.6667 2,2 0,1.2506 0.6666,2 1.7792,2 0.9786,0 2.4279,0.9 3.2208,2 0.8465,1.1745 2.5887,2 4.2207,2 1.5286,0 2.7793,0.45 2.7793,1 0,0.55 1.35,1 3,1 1.65,0 3,0.45 3,1 0,0.55 0.9,1 2,1 1.3333,0 2,0.6667 2,2 0,1.5556 0.6666,2 3,2 1.65,0 3,0.45 3,1 0,0.55 0.9,1 2,1 1.1,0 2,0.45 2,1 0,0.55 1.8,1 4,1 2.2,0 4,0.45 4,1 0,0.55 2.25,1 5,1 2.75,0 5,0.45 5,1 0,0.55 0.7071,1 1.5714,1 3.0127,0 4.4286,2.6947 4.4286,8.4286 0,3.0643 -0.45,5.5714 -1,5.5714 -0.55,0 -1,0.7071 -1,1.5714 0,0.8643 -0.7159,2.2873 -1.5908,3.1622 -1.355,1.355 -1.7367,1.3815 -2.5761,0.1786 -0.7558,-1.0832 -1.1036,-1.121 -1.4926,-0.1622 -0.279,0.6875 -1.3697,1.25 -2.4239,1.25 -1.0541,0 -1.9166,0.45 -1.9166,1 0,0.55 -1.35,1 -3,1 -1.65,0 -3,0.45 -3,1 0,0.5714 -3,1 -7,1 -4,0 -7,0.4286 -7,1 0,0.625 -6,1 -16,1 -10,0 -16,0.375 -16,1 0,0.6222 -5.6667,1 -15,1 -9.3334,0 -15,-0.3778 -15,-1 0,-0.55 -1.8,-1 -4,-1 -2.2,0 -4,0.45 -4,1 0,0.55 0.45,1 1,1 0.55,0 1,0.9 1,2 0,1.1 0.45,2 1,2 0.55,0 1,0.9 1,2 0,1.1 0.45,2 1,2 0.55,0 1,0.9 1,2 0,1.1 0.45,2 1,2 0.55,0 1,0.9 1,2 0,1.1 0.45,2 1,2 0.55,0 1,1.35 1,3 0,1.65 0.45,3 1,3 0.55,0 1,0.9 1,2 0,1.1 0.45,2 1,2 0.55,0 1,0.9 1,2 0,1.1 0.45,2 1,2 0.55,0 1,1.35 1,3 0,1.65 0.45,3 1,3 0.55,0 1,0.9 1,2 0,1.1 0.45,2 1,2 0.55,0 1,1.6195 1,3.5988 0,2.732 0.7437,4.2935 3.088,6.4834 2.7599,2.5781 2.9268,3.0458 1.5714,4.4012 -1.701,1.7011 -10.6594,2.1352 -10.6594,0.5166 0,-0.55 -1.1572,-1 -2.5715,-1 -2.8935,0 -5.4285,-2.068 -5.4285,-4.4286 0,-0.8643 -0.45,-1.5714 -1,-1.5714 -0.55,0 -1,-0.9 -1,-2 0,-1.5556 -0.6667,-2 -3,-2 -2.6667,0 -3,-0.3333 -3,-3 0,-1.65 -0.45,-3 -1,-3 -0.55,0 -1,-0.8007 -1,-1.7792 0,-0.9786 -0.9,-2.428 -2,-3.2208 -1.1745,-0.8465 -2,-2.5887 -2,-4.2208 0,-1.5285 -0.45,-2.7792 -1,-2.7792 -0.55,0 -1,-0.8007 -1,-1.7792 0,-0.9786 -0.9,-2.428 -2,-3.2208 -1.1,-0.7928 -2,-2.2422 -2,-3.2208 0,-0.9785 -0.45,-1.7792 -1,-1.7792 -0.55,0 -1,-0.9 -1,-2 0,-1.1 -0.45,-2 -1,-2 -0.55,0 -1,-0.9 -1,-2 0,-1.1 -0.45,-2 -1,-2 -0.55,0 -1,-0.9 -1,-2 0,-1.1 -0.45,-2 -1,-2 -0.55,0 -1,-1.2507 -1,-2.7792 0,-1.6321 -0.8256,-3.3743 -2,-4.2208 -1.1,-0.7928 -2,-2.2422 -2,-3.2208 0,-0.9785 -0.45,-1.7792 -1,-1.7792 -0.55,0 -1,-1.35 -1,-3 0,-2.3333 -0.4445,-3 -2,-3 -1.1,0 -2,-0.45 -2,-1 0,-1.4522 -5.7264,-1.2291 -6.4167,0.25 -0.4667,1 -0.7,1 -1.1667,0 -1.0625,-2.277 -2.4166,-1.2964 -2.4166,1.75 0,1.65 -0.45,3 -1,3 -0.55,0 -1,1.35 -1,3 0,2.2899 -0.4537,3 -1.9167,3 -1.0542,0 -2.1792,-0.5625 -2.5,-1.25 -0.4667,-1 -0.7,-1 -1.1667,0 -0.3702,0.7934 -2.7444,1.25 -6.5,1.25 -3.2777,0 -5.9166,0.446 -5.9166,1 0,0.55 -1.35,1 -3,1 -1.65,0 -3,-0.45 -3,-1 0,-0.5885 -3.5111,-1 -8.5334,-1 -8.4034,0 -8.5861,-0.053 -12,-3.4667 -1.9066,-1.9066 -3.4666,-4.1566 -3.4666,-5 0,-0.8433 -0.45,-1.5333 -1,-1.5333 -0.55,0 -1,-0.9 -1,-2 0,-1.3333 -0.6667,-2 -2,-2 -1.3334,0 -2,-0.6667 -2,-2 0,-1.1 -0.45,-2 -1,-2 -0.55,0 -1,-0.9 -1,-2 0,-1.1 -0.45,-2 -1,-2 -0.55,0 -1,-0.9 -1,-2 0,-1.1 0.45,-2 1,-2 0.55,0 1,-0.9 1,-2 0,-1.1 -0.45,-2 -1,-2 -0.5926,0 -1,-3.6667 -1,-9 0,-5.3333 0.4074,-9 1,-9 0.55,0 1,-1.35 1,-3 0,-2.3333 -0.4445,-3 -2,-3 -1.1,0 -2,-0.45 -2,-1 0,-0.55 0.9,-1 2,-1 1.7333,0 2,-0.6667 2,-5 0,-2.75 0.45,-5 1,-5 0.55,0 1,-1.8 1,-4 0,-2.2 0.45,-4 1,-4 0.55,0 1,-2.2125 1,-4.9167 0,-2.9961 0.4882,-5.1148 1.25,-5.4238 0.9437,-0.383 0.8825,-0.7895 -0.25,-1.6595 -1.1325,-0.87 -1.1938,-1.2765 -0.25,-1.6595 0.852,-0.3457 1.25,-3.0277 1.25,-8.4238 0,-4.6111 0.4175,-7.9167 1,-7.9167 0.55,0 1,-1.8 1,-4 0,-2.2 0.45,-4 1,-4 0.6,0 1,-4 1,-10 0,-6 -0.4,-10 -1,-10 -0.55,0 -1,-0.9 -1,-2 0,-1.1 -0.45,-2 -1,-2 -0.55,0 -1,-0.9 -1,-2 0,-1.1 -0.45,-2 -1,-2 -0.55,0 -1,-0.9 -1,-2 0,-1.1 -0.45,-2 -1,-2 -0.55,0 -1,-0.8007 -1,-1.7792 0,-0.9786 -0.9,-2.428 -2,-3.2208 -1.1,-0.7928 -2,-2.2422 -2,-3.2208 0,-0.9785 -0.45,-1.7792 -1,-1.7792 -0.55,0 -1,-1.35 -1,-3 0,-1.65 -0.45,-3 -1,-3 -0.55,0 -1,-0.9 -1,-2 0,-1.1 -0.45,-2 -1,-2 -0.55,0 -1,-0.9 -1,-2 0,-1.1 -0.45,-2 -1,-2 -0.55,0 -1,-0.8007 -1,-1.7792 0,-0.9786 -0.9,-2.428 -2,-3.2208 -1.1745,-0.8465 -2,-2.5887 -2,-4.2208 0,-1.5285 -0.45,-2.7792 -1,-2.7792 -0.55,0 -1,-0.9 -1,-2 0,-1.1 -0.45,-2 -1,-2 -0.55,0 -1,-0.9 -1,-2 0,-1.1 -0.45,-2 -1,-2 -0.55,0 -1,-0.9 -1,-2 0,-1.1 -0.45,-2 -1,-2 -0.55,0 -1,-1.35 -1,-3 0,-1.65 -0.45001,-3 -1.00001,-3 -0.55,0 -1,-0.7071 -1,-1.5714 0,-2.0211 -2.40753,-4.4286 -4.42857,-4.4286 -1.07937,0 -1.57143,0.9394 -1.57143,3 0,1.65 -0.45,3 -1,3 -0.55,0 -1,1.8 -1,4 0,2.2 -0.45,4 -1,4 -0.55,0 -1,2.25 -1,5 0,2.75 -0.45,5 -1,5 -0.55,0 -1,2.25 -1,5 0,2.75 -0.45,5 -1,5 -0.55,0 -1,2.25 -1,5 0,2.75 -0.45,5 -1,5 -0.55,0 -1,2.25 -1,5 0,2.75 -0.45,5 -1,5 -0.55,0 -1,2.25 -1,5 0,2.75 -0.45,5 -1,5 -0.57143,0 -1,3 -1,7 0,4 -0.42857,7 -1,7 -0.61538,0 -1,5 -1,13 0,8 -0.38462,13 -1,13 -0.57143,0 -1,3 -1,7 0,4 0.42857,7 1,7 0.61111,0 1,4.6667 1,12 0,7.3333 0.38889,12 1,12 0.55,0 1,0.9 1,2 0,1.1 0.45,2 1,2 0.59259,0 1,3.6667 1,9 0,5.3333 -0.40741,9 -1,9 -0.62393,0 -1,5.8663 -1,15.5988 l 0,15.5988 -3,2.8024 c -1.65,1.5413 -3,3.5219 -3,4.4012 0,0.8793 -0.45,1.5988 -1,1.5988 -0.55,0 -1,1.35 -1,3 0,1.65 -0.45,3 -1,3 -0.57143,0 -1,3 -1,7 0,4 -0.42857,7 -1,7 -0.57143,0 -1,3 -1,7 0,4 -0.42857,7 -1,7 -0.55,0 -1,2.25 -1,5 0,2.75 0.45,5 1,5 0.55,0 1,0.45 1,1 0,0.55 -0.70714,1 -1.57143,1 -2.22435,0 -4.42857,2.4807 -4.42857,4.984 0,1.2784 -2.39345,4.476 -6,8.016 -3.3,3.2391 -6,6.5892 -6,7.4446 0,0.8887 -0.85724,1.5554 -2,1.5554 -1.1,0 -2,0.45 -2,1 0,0.55 -0.9,1 -2,1 -1.1,0 -2,0.45 -2,1 0,0.55 -1.8,1 -4,1 -2.2,0 -4,0.45 -4,1 0,0.55 -2.25,1 -5,1 -2.75,0 -5,-0.45 -5,-1 0,-0.55 -1.8,-1 -4,-1 -2.2,0 -4,0.45 -4,1 0,0.55 -0.9,1 -2,1 -1.1,0 -2,-0.45 -2,-1 0,-1.4435 -3.72478,-1.2326 -4.41667,0.25 -0.46666,1 -0.7,1 -1.16666,0 C 163.72478,1595.7674 160,1595.5565 160,1597 c 0,0.55 -0.45,1 -1,1 -0.55,0 -1,-0.45 -1,-1 z m 134.00001,-268.9167 c 0,-3.7555 -0.4566,-6.1297 -1.25,-6.5 -1,-0.4666 -1,-0.7 0,-1.1666 1.4791,-0.6903 1.7022,-6.4167 0.25,-6.4167 -0.5556,0 -1,-2.6667 -1,-6 0,-3.3333 -0.4445,-6 -1,-6 -0.55,0 -1,-1.35 -1,-3 0,-1.65 -0.45,-3 -1,-3 -0.55,0 -1,-0.9 -1,-2 0,-1.1 0.45,-2 1,-2 1.573,0 1.3287,-31.6799 -0.25,-32.4167 -1,-0.4666 -1,-0.7 0,-1.1666 1.5136,-0.7064 1.7494,-12.4167 0.25,-12.4167 -0.55,0 -1,-2.25 -1,-5 0,-2.75 -0.45,-5 -1,-5 -0.55,0 -1,-1.35 -1,-3 0,-1.65 -0.45,-3 -1,-3 -0.55,0 -1,-1.3125 -1,-2.9167 0,-1.6041 -0.5625,-3.1791 -1.25,-3.5 -1,-0.4666 -1,-0.7 0,-1.1666 2.0852,-0.9731 1.5004,-4.4167 -0.75,-4.4167 -2.2137,0 -2.709,-1.5457 -0.75,-2.3405 0.9437,-0.383 0.8825,-0.7895 -0.25,-1.6595 -1.1325,-0.87 -1.1938,-1.2765 -0.25,-1.6595 0.8808,-0.3574 1.25,-3.411 1.25,-10.3405 0,-6.8889 0.3743,-10.008 1.25,-10.4167 1,-0.4666 1,-0.7 0,-1.1666 -1.4826,-0.6919 -1.6935,-4.4167 -0.25,-4.4167 0.55,0 1,-1.7625 1,-3.9167 0,-2.1961 0.5491,-4.1394 1.25,-4.4238 0.9437,-0.383 0.8825,-0.7895 -0.25,-1.6595 -1.1325,-0.87 -1.1938,-1.2765 -0.25,-1.6595 0.6875,-0.2789 1.25,-1.8197 1.25,-3.4238 0,-1.6042 0.45,-2.9167 1,-2.9167 0.5833,0 1,-3.3333 1,-8 0,-4.6667 0.4166,-8 1,-8 0.5714,0 1,-3 1,-7 0,-4 0.4285,-7 1,-7 0.55,0 1,-0.45 1,-1 0,-0.55 -0.9,-1 -2,-1 -1.1,0 -2,-0.45 -2,-1 0,-0.55 0.9,-1 2,-1 2.2227,0 2.6915,-1.5106 0.75,-2.4167 -1,-0.4666 -1,-0.7 0,-1.1666 0.6879,-0.3211 1.25,-2.3445 1.25,-4.5 0,-2.1542 0.45,-3.9167 1,-3.9167 0.55,0 1,-1.35 1,-3 0,-2.3333 -0.4445,-3 -2,-3 -1.3334,0 -2,-0.6667 -2,-2 0,-1.1 0.45,-2 1,-2 0.55,0 1,-0.45 1,-1 0,-0.55 -0.9,-1 -2,-1 -2.4156,0 -2.5103,-0.6326 -0.4093,-2.7336 1.2886,-1.2886 1.7463,-1.3392 2.4093,-0.2664 0.663,1.0728 1.1206,1.0222 2.4092,-0.2664 2.0061,-2.0061 2.0112,-2.7336 0.019,-2.7336 -2.1904,0 -5.3216,-3.2023 -3.6696,-3.753 0.6826,-0.2275 1.2411,-1.7262 1.2411,-3.3303 0,-1.6042 0.45,-2.9167 1,-2.9167 0.55,0 1,-1.7625 1,-3.9167 0,-2.1555 0.562,-4.1789 1.25,-4.5 1,-0.4666 1,-0.7 0,-1.1666 -0.6875,-0.3209 -1.25,-1.8584 -1.25,-3.4167 0,-1.5583 -0.5625,-3.0352 -1.25,-3.282 -0.8314,-0.2984 -0.4127,-1.2088 1.25,-2.718 1.6626,-1.5092 2.0813,-2.4196 1.25,-2.718 -0.7046,-0.2529 -1.25,-2.1213 -1.25,-4.282 0,-2.1083 0.5625,-4.0958 1.25,-4.4167 1,-0.4666 1,-0.7 0,-1.1666 -0.8233,-0.3842 -1.25,-2.9445 -1.25,-7.5 0,-3.9445 -0.4298,-6.9167 -1,-6.9167 -0.55,0 -1,-1.8 -1,-4 0,-2.2 -0.45,-4 -1,-4 -0.5715,0 -1,-3 -1,-7 0,-4 -0.4286,-7 -1,-7 -0.55,0 -1,-0.9 -1,-2 0,-1.1 -0.45,-2 -1,-2 -0.55,0 -1,-1.6071 -1,-3.5714 0,-1.9643 -0.6429,-4.2143 -1.4286,-5 -1.9379,-1.9379 -2.5714,-1.7971 -2.5714,0.5714 0,1.1 0.45,2 1,2 0.55,0 1,2.2125 1,4.9167 0,2.9555 0.4986,5.1493 1.25,5.5 1,0.4666 1,0.7 0,1.1666 -0.7472,0.3487 -1.25,2.5278 -1.25,5.4167 0,2.8889 0.5028,5.068 1.25,5.4167 1,0.4666 1,0.7 0,1.1666 -0.9048,0.4223 -1.25,4.1278 -1.25,13.4167 0,9.2889 -0.3453,12.9944 -1.25,13.4167 -1,0.4666 -1,0.7 0,1.1666 0.6875,0.3209 1.25,1.8959 1.25,3.5 0,1.6042 0.45,2.9167 1,2.9167 1.5798,0 1.3346,37.6772 -0.25,38.4167 -1,0.4666 -1,0.7 0,1.1666 0.6875,0.3209 1.25,1.4459 1.25,2.5 0,1.0542 0.45,1.9167 1,1.9167 1.8036,0 1.0467,3.2249 -1.2179,5.189 -1.8834,1.6335 -1.9966,2.0774 -0.75,2.9434 1.1115,0.7723 1.1644,1.143 0.2179,1.5271 -0.6875,0.2789 -1.25,1.3697 -1.25,2.4238 0,1.25 -0.6957,1.9167 -2,1.9167 -1.1,0 -2,0.45 -2,1 0,0.55 0.9,1 2,1 1.1,0 2,0.45 2,1 0,0.55 -0.9,1 -2,1 -1.3334,0 -2,0.6667 -2,2 0,1.3333 -0.6667,2 -2,2 -1.1,0 -2,0.45 -2,1 0,0.55 0.45,1 1,1 0.55,0 1,0.45 1,1 0,0.55 -1.35,1 -3,1 -1.65,0 -3,0.45 -3,1 0,0.55 0.45,1 1,1 1.8093,0 1.0436,3.2266 -1.25,5.2673 -1.5262,1.358 -1.8479,2.1463 -1,2.4507 1.4774,0.5303 1.7063,6.282 0.25,6.282 -0.55,0 -1,2.25 -1,5 0,2.75 -0.45,5 -1,5 -0.6504,0 -1,14.3333 -1,41 0,26.6667 -0.3496,41 -1,41 -0.5703,0 -1,2.9722 -1,6.9167 0,4.5961 -0.4194,7.0868 -1.25,7.4238 -0.9438,0.383 -0.8825,0.7895 0.25,1.6595 1.1325,0.87 1.1937,1.2765 0.25,1.6595 -1.4813,0.601 -1.7133,8.3405 -0.25,8.3405 0.55,0 1,0.9 1,2 0,1.1 0.45,2 1,2 0.55,0 1,0.9 1,2 0,1.1 0.45,2 1,2 0.55,0 1,0.9 1,2 0,1.1 0.45,2 1,2 0.55,0 1,0.9 1,2 0,1.1 0.45,2 1,2 0.55,0 1,1.35 1,3 0,2.3333 0.4444,3 2,3 1.5555,0 2,0.6667 2,3 0,1.65 0.45,3 1,3 0.55,0 1,0.9 1,2 0,1.1 0.45,2 1,2 0.55,0 1,0.9 1,2 0,1.1 0.45,2 1,2 0.55,0 1,1.2507 1,2.7792 0,1.6321 0.8255,3.3743 2,4.2208 1.1032,0.7952 2,2.5887 2,4 0,1.4113 0.8967,3.2048 2,4 1.1,0.7928 2,2.2422 2,3.2208 0,0.9785 0.45,1.7792 1,1.7792 0.554,0 1,-2.6389 1,-5.9167 z M 164,1061 c 0,-2.75 -0.45,-5 -1,-5 -0.55,0 -1,-1.35 -1,-3 0,-1.65 -0.45,-3 -1,-3 -0.55,0 -1,-2.2125 -1,-4.9167 0,-2.9961 -0.48826,-5.1148 -1.25,-5.4238 -0.94656,-0.3841 -0.89366,-0.7548 0.21792,-1.5271 1.24651,-0.866 1.13339,-1.3099 -0.75,-2.9434 -1.53052,-1.3274 -2.21792,-3.0495 -2.21792,-5.5563 0,-1.998 -0.45,-3.6327 -1,-3.6327 -1.44346,0 -1.23262,-3.7248 0.25,-4.4167 1,-0.4666 1,-0.7 0,-1.1666 -0.68794,-0.3211 -1.25,-2.3445 -1.25,-4.5 0,-3.25 -0.34043,-3.9167 -2,-3.9167 -1.1,0 -2,-0.45 -2,-1 0,-0.55 0.9,-1 2,-1 1.55556,0 2,-0.6667 2,-3 0,-1.65 -0.45,-3 -1,-3 -0.55,0 -1,-0.9 -1,-2 0,-1.1 0.45,-2.00003 1,-2.00003 1.7679,0 1.06567,-3.5112 -1,-5 -2.22417,-1.6031 -2.73565,-6.5693 -0.75,-7.282 0.84789,-0.3044 0.52621,-1.0927 -1,-2.4506 -2.48185,-2.2082 -2.93453,-4.7813 -1,-5.684 1,-0.4667 1,-0.7 0,-1.1667 -0.79048,-0.3689 -1.25,-2.7278 -1.25,-6.4167 0,-3.6889 0.45952,-6.0477 1.25,-6.4166 1,-0.4667 1,-0.7 0,-1.1667 -0.6875,-0.3208 -1.25,-1.2805 -1.25,-2.1327 0,-0.8522 -0.99807,-2.415 -2.21792,-3.473 -1.88339,-1.6334 -1.99651,-2.0774 -0.75,-2.9434 1.11158,-0.7723 1.16448,-1.143 0.21792,-1.527 -0.84483,-0.3428 -1.25,-2.9543 -1.25,-8.0566 0,-6.5691 -0.29214,-7.8093 -2.25,-9.5513 -1.52621,-1.3579 -1.84789,-2.1463 -1,-2.4506 1.54341,-0.5541 1.78491,-16.2821 0.25,-16.2821 -0.55,0 -1,-1.35 -1,-3 0,-1.65 0.45,-3 1,-3 0.55,0 1,-2.25 1,-5 0,-4.3333 -0.26667,-5 -2,-5 -1.1,0 -2,0.45 -2,1 0,0.55 -0.9,1 -2,1 -1.1,0 -2,0.45 -2,1 0,0.55 -0.9,1 -2,1 -1.1,0 -2,0.45 -2,1 0,0.55 -0.9,1 -2,1 -1.33333,0 -2,0.6667 -2,2 0,1.3334 -0.66667,2 -2,2 -1.55556,0 -2,0.6667 -2,3 0,1.65 -0.45,3 -1,3 -0.55,0 -1,0.9 -1,2 0,1.1 -0.45,2 -1,2 -0.55,0 -1,0.8007 -1,1.7793 0,0.9786 -0.9,2.4279 -2,3.2207 -1.1,0.7929 -2,2.2047 -2,3.1375 0,0.9327 -0.5625,1.9241 -1.25,2.2031 -0.94656,0.384 -0.89366,0.7547 0.21792,1.527 1.24651,0.866 1.13339,1.31 -0.75,2.9434 -1.21985,1.058 -2.21792,2.6208 -2.21792,3.473 0,0.8522 -0.5625,1.7776 -1.25,2.0566 -0.94376,0.3829 -0.88251,0.7895 0.25,1.6594 1.13251,0.87 1.19376,1.2766 0.25,1.6595 -1.48134,0.6011 -1.69672,4.3405 -0.25,4.3405 0.55,0 1,0.9 1,2 0,1.1 0.45,2 1,2 0.55,0 1,0.9 1,2 0,1.1 0.45,2 1,2 0.55,0 1,0.9 1,2 0,1.1 0.45,2 1,2 0.55,0 1,1.2507 1,2.7793 0,1.632 0.82553,3.3742 2,4.2207 1.17447,0.8465 2,2.5887 2,4.2208 0,1.5286 0.45,2.7792 1,2.7792 0.55,0 1,0.9 1,2 0,1.1 0.45,2 1,2 0.55,0 1,0.9 1,2 0,1.1 0.45,2 1,2 0.55,0 1,0.9 1,2 0,1.1 0.45,2 1,2 0.55,0 1,0.9 1,2 0,1.1 0.45,2 1,2 0.55,0 1,0.9 1,2 0,1.1 0.45,2 1,2 0.55,0 1,0.9 1,2 0,1.1 0.45,2 1,2 0.55,0 1,0.90003 1,2.00003 0,1.1 0.45,2 1,2 0.55,0 1,1.35 1,3 0,1.65 0.45,3 1,3 0.55,0 1,0.9 1,2 0,1.1 0.45,2 1,2 0.55,0 1,0.9 1,2 0,1.1 0.45,2 1,2 0.55,0 1,0.9 1,2 0,1.1 0.45,2 1,2 0.55,0 1,1.35 1,3 0,1.65 0.45,3 1,3 0.55,0 1,0.9 1,2 0,1.1 0.45,2 1,2 0.55,0 1,0.9 1,2 0,1.1 0.45,2 1,2 0.55,0 1,0.9 1,2 0,1.1 0.45,2 1,2 0.55,0 1,0.9 1,2 0,1.1 0.45,2 1,2 0.55,0 1,0.9 1,2 0,1.1 0.45,2 1,2 0.55,0 1,0.9 1,2 0,1.1 0.45,2 1,2 0.55,0 1,1.35 1,3 0,1.65 0.45,3 1,3 0.55,0 1,0.9 1,2 0,1.1 0.45,2 1,2 0.55,0 1,0.9 1,2 0,1.1 0.45,2 1,2 0.55,0 1,-2.25 1,-5 z M 26,950.99997 c 0,-0.55 0.9,-1 2,-1 1.1,0 2,-0.45 2,-1 0,-0.55 0.70714,-1 1.57142,-1 1.51551,0 4.42858,-2.2552 4.42858,-3.4285 0,-0.3143 -1.8,-0.5715 -4,-0.5715 -3.33334,0 -4,0.3334 -4,2 0,2.2228 -1.51062,2.6916 -2.41667,0.75 -0.46667,-1 -0.7,-1 -1.16667,0 -0.32083,0.6875 -1.25297,1.25 -2.07143,1.25 -1.4498,0 -4.34523,2.2847 -4.34523,3.4286 0,0.3143 1.8,0.5714 4,0.5714 2.2,0 4,-0.45 4,-1 z m 116,-53 c 0,-1.1 -0.45,-2 -1,-2 -0.55,0 -1,0.9 -1,2 0,1.1 0.45,2 1,2 0.55,0 1,-0.9 1,-2 z m -40,-34 c 0,-1.1 0.45,-2 1,-2 0.55,0 1,-1.2506 1,-2.7792 0,-1.6321 0.82553,-3.3743 2,-4.2208 1.70507,-1.2289 2,-2.5887 2,-9.2207 0,-4.5195 0.41903,-7.7793 1,-7.7793 0.55,0 1,0.45 1,1 0,0.55 0.45,1 1,1 0.55,0 1,-0.9 1,-2 0,-1.1 -0.45,-2 -1,-2 -0.55,0 -1,-0.9 -1,-2 0,-1.1 0.45,-2 1,-2 0.55,0 1,0.45 1,1 0,0.55 0.45,1 1,1 0.55,0 1,-1.35 1,-3 0,-1.65 0.45,-3 1,-3 0.55,0 1,-0.8006 1,-1.7792 0,-0.9786 0.9,-2.4279 2,-3.2208 1.17447,-0.8465 2,-2.5887 2,-4.2207 0,-1.5286 0.45,-2.7793 1,-2.7793 0.57143,0 1,-3 1,-7 0,-4 0.42857,-7 1,-7 0.55,0 1,-1.35 1,-3 0,-2.3333 -0.44444,-3 -2,-3 -1.1,0 -2,0.45 -2,1 0,0.55 -0.45,1 -1,1 -0.55131,0 -1,-2.593 -1,-5.7793 0,-4.632 0.397,-6.0653 2,-7.2207 1.1,-0.7929 2,-2.2422 2,-3.2208 0,-0.9786 0.45,-1.7792 1,-1.7792 0.55,0 1,-1.35 1,-3 0,-2.5476 0.38384,-3 2.54545,-3 3.41155,0 8.33603,-4.7897 6.35068,-6.1768 -1.07497,-0.7511 -1.10859,-1.0922 -0.14613,-1.4827 0.6875,-0.2789 1.25,-1.3697 1.25,-2.4238 0,-1.0542 0.45,-1.9167 1,-1.9167 0.55,0 1,-0.9 1,-2 0,-1.1 0.45,-2 1,-2 0.55556,0 1,-2.6667 1,-6 0,-3.3333 0.44444,-6 1,-6 0.55,0 1,-1.8 1,-4 0,-2.2 -0.45,-4 -1,-4 -0.55,0 -1,-1.35 -1,-3 0,-1.65 -0.45,-3 -1,-3 -0.55,0 -1,-1.1847 -1,-2.6327 0,-1.4704 -0.99336,-3.5166 -2.25,-4.6347 -1.52621,-1.3579 -1.84789,-2.1462 -1,-2.4506 0.6875,-0.2468 1.25,-1.7612 1.25,-3.3653 0,-1.6042 0.45,-2.9167 1,-2.9167 0.55,0 1,-1.3125 1,-2.9167 0,-1.60405 0.5625,-3.17905 1.25,-3.49995 1,-0.4666 1,-0.7 0,-1.1666 -0.6875,-0.3209 -1.25,-1.8959 -1.25,-3.5 0,-2.6778 -0.29252,-2.9167 -3.57143,-2.9167 -3.66839,0 -8.10943,-2.9397 -5.66964,-3.753 1.97444,-0.6581 1.4378,-2.247 -0.75893,-2.247 -1.33333,0 -2,0.6667 -2,2 0,1.1 -0.45,2 -1,2 -0.55,0 -1,0.9 -1,2 0,1.1 -0.45,2 -1,2 -0.57143,0 -1,3 -1,7 0,3.99995 -0.42857,6.99995 -1,6.99995 -0.57893,0 -1,3.1996 -1,7.5988 0,7.2794 -0.13658,7.7272 -3.25,10.6548 -2.05371,1.9311 -2.78989,3.2137 -2,3.4845 0.6875,0.2357 1.25,1.7036 1.25,3.2619 0,1.5583 -0.5625,3.0958 -1.25,3.4167 -1,0.4666 -1,0.7 0,1.1666 1.48262,0.6919 1.69346,4.4167 0.25,4.4167 -0.57143,0 -1,3 -1,7 0,4 0.42857,7 1,7 0.55,0 1,1.8 1,4 0,2.2 0.45,4 1,4 0.55,0 1,0.45 1,1 0,0.55 -0.9,1 -2,1 -2.20609,0 -2.7233,1.5737 -0.75,2.282 0.84789,0.3044 0.52621,1.0927 -1,2.4506 -1.2375,1.1011 -2.25,2.6992 -2.25,3.5513 0,0.8522 -0.5625,1.8119 -1.25,2.1328 -1,0.4666 -1,0.7 0,1.1666 1.47743,0.6895 1.70695,8.4167 0.25,8.4167 -0.55,0 -1,-0.45 -1,-1 0,-0.55 -0.9,-1 -2,-1 -1.1,0 -2,0.2571 -2,0.5714 0,1.1734 2.91306,3.4286 4.42857,3.4286 0.86429,0 1.57143,0.45 1.57143,1 0,0.55 -0.45,1 -1,1 -0.55,0 -1,0.9 -1,2 0,1.1 0.45,2 1,2 0.55,0 1,2.2125 1,4.9167 0,2.9556 0.49859,5.1493 1.25,5.5 1,0.4667 1,0.7 0,1.1667 -1.48262,0.6919 -1.69346,4.4166 -0.25,4.4166 0.55,0 1,0.45 1,1 0,0.55 -0.80066,1 -1.77924,1 -0.97858,0 -2.42792,0.9 -3.22076,2 -1.60867,2.2319 -4.61127,2.6662 -5.24702,0.759 -0.30085,-0.9026 -0.86914,-0.7857 -2.083336,0.4285 -2.18059,2.1806 -2.10637,2.8125 0.330356,2.8125 1.1,0 2,0.45 2,1 0,0.55 -0.9,1 -2,1 -1.099996,0 -1.999996,0.45 -1.999996,1 0,0.55 0.45,1 1,1 0.62745,0 0.999996,6.3334 0.999996,17 0,10.6667 0.37255,17 1,17 0.55,0 1,-0.9 1,-2 z m 336.00001,-127 c 0,-4 0.4285,-7 1,-7 0.55,0 1,-2.25 1,-5 0,-2.75 0.45,-5 1,-5 0.5714,0 1,-3 1,-7 0,-6.33325 0.1905,-6.99995 2,-6.99995 2.2227,0 2.6915,-1.5106 0.75,-2.4167 -1,-0.4666 -1,-0.7 0,-1.1666 0.6875,-0.3209 1.25,-1.4459 1.25,-2.5 0,-1.0542 0.45,-1.9167 1,-1.9167 0.55,0 1,-0.45 1,-1 0,-2.033 -7.1968,-1.0791 -9.189,1.2179 -1.5907,1.8341 -2.0772,1.9694 -2.811,0.7821 -0.7338,-1.1874 -1.2203,-1.052 -2.811,0.7821 -1.058,1.2198 -2.4538,2.2179 -3.1018,2.2179 -1.7095,0 -6.0872,4.6418 -6.0872,6.4545 0,0.85 0.45,1.5455 1,1.5455 0.55,0 1,0.9 1,1.99995 0,1.1 0.45,2 1,2 0.55,0 1,0.9 1,2 0,1.1 0.45,2 1,2 0.55,0 1,1.8 1,4 0,2.2 0.45,4 1,4 0.5833,0 1,3.3333 1,8 0,7.3333 0.1666,8 2,8 1.1,0 2,0.45 2,1 0,0.55 0.45,1 1,1 0.5714,0 1,-3 1,-7 z m -14,-73.99997 c 0,-1.65 0.45,-3 1,-3 0.55,0 1,-0.9 1,-2 0,-2.36851 -0.6336,-2.5093 -2.5715,-0.57143 -1.6152,1.61522 -1.963,8.57143 -0.4285,8.57143 0.55,0 1,-1.35 1,-3 z m 12,-28 c 0,-0.55 0.9,-1 2,-1 1.3333,0 2,-0.66667 2,-2 0,-2.20609 1.5737,-2.7233 2.282,-0.75 0.3044,0.84789 1.0927,0.52621 2.4506,-1 1.5217,-1.71025 3.0933,-2.25 6.5513,-2.25 2.6618,0 4.7914,-0.51866 5.1327,-1.25 0.4667,-1 0.7,-1 1.1667,0 0.321,0.68794 2.3445,1.25 4.5,1.25 3.9028,0 3.9167,-0.0142 3.9167,-4 0,-2.2 0.45,-4 1,-4 0.55,0 1,-1.35 1,-3 0,-1.65 0.45,-3 1,-3 0.55,0 1,-0.9 1,-2 0,-1.33333 -0.6667,-2 -2,-2 -1.1,0 -2,0.45 -2,1 0,0.55 -2.25,1 -5,1 -4.3334,0 -5,0.26667 -5,2 0,1.1 -0.45,2 -1,2 -0.55,0 -1,0.9 -1,2 0,1.1 -0.45,2 -1,2 -0.55,0 -1,-0.45 -1,-1 0,-0.55 -1.35,-1 -3,-1 -2.3334,0 -3,0.44444 -3,2 0,2.22272 -1.5106,2.69153 -2.4167,0.75 -0.4667,-1 -0.7,-1 -1.1667,0 -0.3208,0.6875 -1.4458,1.25 -2.5,1.25 -1.0541,0 -1.9166,0.45 -1.9166,1 0,0.55 -0.9,1 -2,1 -1.5429,0 -2,0.66667 -2,2.91667 0,1.60416 0.5625,3.17916 1.25,3.5 1,0.46666 1,0.7 0,1.16666 -1.4826,0.69189 -1.6935,4.41667 -0.25,4.41667 0.55,0 1,-0.45 1,-1 z"
     id="path2987"
     inkscape:connector-curvature="0" />
</svg>
