<?xml version="1.0" encoding="UTF-8" standalone="no"?>
<!-- Created with Inkscape (http://www.inkscape.org/) -->

<svg
   xmlns:dc="http://purl.org/dc/elements/1.1/"
   xmlns:cc="http://creativecommons.org/ns#"
   xmlns:rdf="http://www.w3.org/1999/02/22-rdf-syntax-ns#"
   xmlns:svg="http://www.w3.org/2000/svg"
   xmlns="http://www.w3.org/2000/svg"
   xmlns:sodipodi="http://sodipodi.sourceforge.net/DTD/sodipodi-0.dtd"
   xmlns:inkscape="http://www.inkscape.org/namespaces/inkscape"
   id="svg2"
   version="1.1"
   inkscape:version="0.48.2 r9819"
   width="722.04517"
   height="1384.2321"
   sodipodi:docname="jatakatalesanima00babb_00342d.png">
  <metadata
     id="metadata8">
    <rdf:RDF>
      <cc:Work
         rdf:about="">
        <dc:format>image/svg+xml</dc:format>
        <dc:type
           rdf:resource="http://purl.org/dc/dcmitype/StillImage" />
        <dc:title></dc:title>
      </cc:Work>
    </rdf:RDF>
  </metadata>
  <defs
     id="defs6" />
  <sodipodi:namedview
     pagecolor="#ffffff"
     bordercolor="#666666"
     borderopacity="1"
     objecttolerance="10"
     gridtolerance="10"
     guidetolerance="10"
     inkscape:pageopacity="0"
     inkscape:pageshadow="2"
     inkscape:window-width="1600"
     inkscape:window-height="876"
     id="namedview4"
     showgrid="false"
     fit-margin-top="0"
     fit-margin-left="0"
     fit-margin-right="0"
     fit-margin-bottom="0"
     inkscape:zoom="0.5"
     inkscape:cx="-480.95483"
     inkscape:cy="723.31321"
     inkscape:window-x="0"
     inkscape:window-y="24"
     inkscape:window-maximized="1"
     inkscape:current-layer="svg2" />
  <path
     style="fill:#000000"
     d="m 298.04517,1383.8577 c -6.875,-0.3838 -15.2,-1.2406 -18.5,-1.904 -3.3,-0.6634 -9.375,-1.6466 -13.5,-2.1849 -17.4934,-2.2828 -24.4941,-3.6925 -30,-6.0409 -1.925,-0.821 -6.65,-2.0762 -10.5,-2.7893 -3.85,-0.713 -8.8,-2.0855 -11,-3.0499 -6.899,-3.0242 -7.8398,-3.2872 -14.5,-4.0535 -3.575,-0.4114 -9.875,-1.4352 -14,-2.2752 -4.125,-0.8401 -11.55,-2.0369 -16.5,-2.6597 -4.95,-0.6227 -11.475,-1.8827 -14.5,-2.7999 -6.2007,-1.8801 -31.3544,-2.3363 -43.17702,-0.7831 -6.2439,0.8203 -6.97206,0.7043 -11.22535,-1.7883 -5.28468,-3.097 -10.63663,-9.6682 -12.5185,-15.3703 -1.7793,-5.3914 0.60515,-17.4716 4.75316,-24.0807 1.60829,-2.5625 3.19963,-5.7841 3.53629,-7.1591 0.33667,-1.375 3.27666,-5.3684 6.53332,-8.8741 3.47853,-3.7446 6.61741,-8.2824 7.6089,-11 0.92824,-2.5443 3.22909,-8.3001 5.11298,-12.7907 2.18385,-5.2056 3.50699,-10.0985 3.65075,-13.5 l 0.22547,-5.3352 -7,0.079 c -7.98578,0.091 -23.16037,3.3431 -32,6.859 -4.05759,1.6139 -8.94449,2.5696 -15.09538,2.9521 -8.88824,0.5529 -9.31661,0.4754 -18.8088,-3.4017 -12.58967,-5.1422 -20.06942,-11.3949 -21.51876,-17.9888 -0.544,-2.475 -1.90889,-6.2826 -3.03308,-8.4614 -1.12419,-2.1784 -2.04398,-4.9566 -2.04398,-6.1734 0,-1.2167 -0.53273,-4.5201 -1.18385,-7.3409 -0.92397,-4.0029 -0.90665,-7.0872 0.0789,-14.0506 1.23249,-8.708 1.20033,-9.0843 -1.34162,-15.6976 -1.43241,-3.7266 -3.32154,-8.2062 -4.19808,-9.9546 -1.30882,-2.6106 -1.46598,-5.0237 -0.87922,-13.5 1.14962,-16.6072 1.06917,-24.7695 -0.33334,-33.8211 -0.72437,-4.675 -1.72396,-11.875 -2.22131,-16 -0.49735,-4.125 -1.29436,-10.2 -1.77115,-13.5 -1.04356,-7.2229 0.2912,-41.1801 1.86709,-47.5 0.61716,-2.475 1.52127,-6.75 2.00914,-9.5 0.48787,-2.75 1.8615,-9.05 3.05251,-14 1.19101,-4.95 2.35606,-13.05 2.58899,-18 0.23294,-4.95 0.80462,-9.9 1.27041,-11 2.92584,-6.90962 5.06152,-12.99452 5.06152,-14.42112 0,-0.91 1.33171,-3.2124 2.95936,-5.1167 1.62765,-1.9042 2.97765,-4.2872 3,-5.2956 0.0224,-1.0084 1.39064,-5.2049 3.04064,-9.3256 1.65,-4.1207 3,-8.2953 3,-9.277 0,-0.9817 1.18717,-3.5343 2.63816,-5.67245 1.45099,-2.13815 3.69753,-6.70204 4.99232,-10.14196 2.15482,-5.72484 2.37878,-8.04011 2.64503,-27.34394 0.26066,-18.89796 0.10297,-21.39852 -1.51746,-24.06311 -0.9946,-1.63548 -2.66079,-6.43161 -3.70265,-10.65807 -2.14572,-8.70441 -4.44236,-15.27669 -6.46219,-18.49283 -0.75703,-1.2054 -1.66836,-4.26643 -2.02519,-6.80229 -0.35683,-2.53586 -2.19187,-9.63665 -4.07787,-15.77953 -1.886,-6.14288 -3.7319,-13.45154 -4.102,-16.24145 -0.40587,-3.05959 -1.52317,-5.99004 -2.81552,-7.3845 -1.91966,-2.07135 -3.25385,-5.82899 -6.74043,-18.98387 -0.58309,-2.2 -1.40758,-4.9 -1.8322,-6 -0.42462,-1.1 -1.33162,-4.025 -2.01557,-6.5 -0.68394,-2.475 -1.92702,-6.42731 -2.76241,-8.78291 -1.24629,-3.5143 -1.30447,-4.99854 -0.32414,-8.27057 0.6571,-2.19321 0.92077,-4.43094 0.58592,-4.97273 -0.33484,-0.54178 -0.6088,-3.96801 -0.6088,-7.61384 0,-5.40224 -0.73274,-8.4462 -3.96008,-16.45096 L 0,732.00568 0.38838,671.21228 c 0.23643,-37.00773 0.81608,-63.53218 1.48153,-67.7934 0.60123,-3.85 1.53399,-10.15 2.07281,-14 0.53882,-3.85 1.96957,-10.6 3.17943,-15 1.20986,-4.4 2.5844,-12.05 3.05453,-17 0.47013,-4.95 1.32314,-13.95 1.89559,-20 0.57245,-6.05 1.44055,-16.85 1.9291,-24 1.46811,-21.48557 2.89727,-29.53346 6.21537,-35 1.92874,-3.1776 2.6534,-15.8721 0.96559,-16.91522 -0.47455,-0.29329 -1.44223,-2.6027 -2.1504,-5.13202 -1.11658,-3.98806 -1.0684,-5.05837 0.36283,-8.05969 0.90772,-1.90351 1.6504,-4.48591 1.6504,-5.73866 0,-3.99274 3.91124,-17.38164 6.49982,-22.25009 1.3751,-2.58621 2.50018,-5.7781 2.50018,-7.0931 0,-1.31499 0.9,-4.15504 2,-6.31122 1.1,-2.15618 2,-4.42993 2,-5.05279 0,-3.53502 5.63172,-16.29087 8.4933,-19.23735 1.79092,-1.84405 4.42058,-5.19729 5.84369,-7.45164 1.42311,-2.25436 4.17947,-5.3131 6.12524,-6.79721 1.94578,-1.48411 3.54256,-3.20748 3.54842,-3.8297 0.006,-0.62222 1.53723,-2.61435 3.40305,-4.42696 1.86582,-1.81261 3.68446,-4.4593 4.04142,-5.88154 0.77917,-3.10448 7.92178,-13.90543 11.32227,-17.12138 1.5593,-1.47467 2.24633,-3.00273 1.91674,-4.26309 -0.3264,-1.24813 0.1398,-2.31428 1.27842,-2.92365 2.25229,-1.20539 2.7517,-2.52884 4.07127,-10.78898 0.58564,-3.66596 1.98062,-8.14722 3.09995,-9.95833 1.11933,-1.81112 2.1536,-4.37204 2.29838,-5.69094 0.37109,-3.38051 4.74335,-10.45714 8.97274,-14.52261 1.97181,-1.89539 3.58511,-4.0517 3.58511,-4.79181 0,-0.74011 0.9,-2.31168 2,-3.49239 1.1,-1.18072 2,-3.10157 2,-4.26858 0,-1.167 1.125,-4.99248 2.5,-8.50105 1.375,-3.50857 2.5,-7.62863 2.5,-9.15569 0,-4.08537 2.70526,-8.98349 6.62799,-12.0006 1.89949,-1.46096 4.78808,-4.49846 6.41909,-6.75 1.63101,-2.25154 3.62737,-4.09371 4.43636,-4.09371 0.809,0 6.51057,-4.91865 12.67017,-10.93033 9.5797,-9.34968 12.0775,-11.24089 17.2728,-13.07791 13.933,-4.92662 20.2073,-7.49487 22.4585,-9.19289 1.3116,-0.98938 3.0407,-1.79887 3.8422,-1.79887 0.8016,0 2.5214,-0.83691 3.8218,-1.85981 1.7387,-1.36767 4.9103,-2.04669 11.9856,-2.56605 8.9061,-0.65375 9.9556,-0.96148 14.12,-4.14019 3.154,-2.4075 5.5494,-3.43395 8.0139,-3.43395 3.6259,0 5.3409,-1.04196 14.4022,-8.75 2.7479,-2.3375 5.8294,-4.25 6.8479,-4.25 3.0285,0 13.0815,-8.88075 13.0815,-11.55606 0,-1.77782 0.6346,-2.38411 2.75,-2.62752 2.2967,-0.26426 2.8324,-0.89214 3.25,-3.80921 0.4283,-2.99176 1.289,-3.94143 6,-6.62033 3.025,-1.72015 7.075,-4.71808 9,-6.66209 4.2715,-4.31363 11.649,-8.05354 19,-9.63176 9.2909,-1.99471 13.4148,-3.36971 15.5,-5.16813 1.1,-0.94871 3.8,-2.55993 6,-3.5805 3.6038,-1.67179 4.2344,-2.54329 6.3663,-8.79895 1.8131,-5.3201 2.1111,-7.352 1.2747,-8.69127 -0.8896,-1.42442 -0.5872,-2.1427 1.6337,-3.88119 1.4989,-1.17332 3.4003,-3.38743 4.2253,-4.920269 0.825,-1.53283 2.85,-4.45071 4.5,-6.48418 2.6392,-3.25258 4.5491,-5.27926 10.0955,-10.71277 6.8394,-6.70026 14.3719,-18.54636 14.4265,-22.68793 0.073,-5.532129 7.5882,-14.921655 17.0685,-21.325002 2.1637,-1.46144 5.4658,-3.93644 7.338,-5.5 6.2363,-5.208181 12.2075,-8.342838 15.8922,-8.342838 1.9587,0 3.8434,-0.45643 4.1881,-1.01429 1.0219,-1.653377 8.5779,-5.166418 9.9663,-4.63364 2.0418,0.783512 3.4644,-1.404704 2.8642,-4.405692 -0.7742,-3.87115 2.3116,-5.3803001 9.3177,-4.556868 3.2347,0.380174 5.343,0.243077 5.343,-0.3474411 0,-1.536548 6.9257,-8.063326 9.6588,-9.10244998 5.4007,-2.05334102 10.6697,-0.115439 6.994,2.57232698 -1.8091,1.322816 -2.1991,4.032391 -0.7127,4.951052 0.5171,0.319568 2.6149,-0.891374 4.6618,-2.690983 3.3186,-2.917571 4.5437,-3.330368 11.3099,-3.810696 7.1764,-0.50945 7.9253,-0.358687 13.8013,2.778311 4.1886,2.236168 6.9756,3.125618 8.5532,2.729674 3.065,-0.769272 16.9761,3.9195771 22.1902,7.4794071 2.4847,1.696331 6.7287,3.26142 11.0087,4.059757 3.8308,0.714555 9.3732,2.401652 12.3164,3.749104 6.3467,2.905578 7.8413,2.733172 19.2184,-2.216904 14.0492,-6.112646 13.8238,-6.061516 16.839,-3.820556 2.216,1.647066 2.8794,3.298967 3.9673,9.878836 0.9773,5.910747 2.6777,10.612314 6.75,18.664136 3.4593,6.839578 5.4437,12.020508 5.4437,14.212486 0,5.42435 -3.6573,13.89121 -7.5178,17.40419 -1.9152,1.74281 -3.4822,3.76308 -3.4822,4.4895 0,0.72642 -0.9,2.13525 -2,3.13074 -4.0885,3.7 -1.6382,10.44403 5.1287,14.11615 0.8958,0.48612 3.5072,2.591729 5.8031,4.679139 4.8841,4.44075 4.7828,6.48191 -0.4834,9.73662 -1.8966,1.17216 -3.4484,2.5976 -3.4484,3.16763 0,0.57004 -1.2586,2.4699 -2.7969,4.22191 -1.6939,1.92922 -3.2992,5.43022 -4.0707,8.87744 l -1.2738,5.69197 3.4037,4.25457 c 1.8721,2.34001 3.9835,5.71707 4.692,7.50457 0.7086,1.7875 1.5712,3.26211 1.917,3.2769 0.3458,0.0148 2.1898,1.32119 4.0979,2.90311 3.1068,2.57581 3.5561,3.59128 4.3018,9.7231 1.7217,14.15734 1.8685,19.59104 0.7144,26.43364 -1.0499,6.22438 -1.4942,7.14809 -3.8364,7.97683 -1.4569,0.51551 -3.4304,1.38709 -4.3854,1.93685 -2.2355,1.28686 -6.0798,1.28336 -7.3699,-0.007 -1.3091,-1.30917 -11.8172,-4.05178 -12.1454,-3.16996 -2.4916,6.69564 -4.281,8.20518 -11.4284,9.64089 -4.1558,0.8348 -5.9313,3.11218 -4.7823,6.13427 1.6014,4.21183 1.0915,8.74625 -1.3964,12.41895 -3.4829,5.14155 -3.9536,7.4774 -2.1927,10.88249 0.8533,1.65018 1.5515,4.12257 1.5515,5.49422 0,7.04951 -14.2225,13.77287 -22.2724,10.52877 -3.3671,-1.35691 -8.8142,-5.09947 -12.0514,-8.28016 -1.5531,-1.52593 -3.0736,-1.78953 -8.533,-1.47926 -12.889,0.73252 -21.375,7.49472 -21.0704,16.79043 0.082,2.5001 -0.5714,6.45151 -1.4519,8.78091 -1.3777,3.6447 -1.4719,6.43356 -0.6759,20 0.5088,8.6706 1.3861,18.68973 1.9497,22.26473 1.8825,11.94168 4.0633,34.30794 5.2443,53.78575 1.1673,19.25221 1.1653,19.29436 -1.1494,24.23638 -2.1301,4.54791 -2.2096,5.28123 -0.9774,9.01485 2.5243,7.64885 2.8581,7.76691 10.258,3.62866 3.6051,-2.0161 7.1907,-3.66564 7.968,-3.66564 0.7772,0 2.47,-1.125 3.7618,-2.5 1.2917,-1.375 3.3071,-2.5 4.4785,-2.5 2.3328,0 11.5651,-5.45405 12.7828,-7.55156 0.4188,-0.72124 3.2979,-1.83794 6.3982,-2.48155 4.6933,-0.97433 6.5744,-2.06736 11.2386,-6.53018 14.449,-13.82513 15.6732,-14.68494 19.893,-13.97199 3.5986,0.60797 4.0772,0.39676 6.6023,-2.91385 4.7932,-6.28427 14.4224,-10.12965 21.1338,-8.4397 3.6234,0.91239 4.7881,0.76863 8.3038,-1.02497 2.2491,-1.14741 5.5697,-2.10606 7.3792,-2.13033 6.2545,-0.0839 12.453,-2.41885 16.7665,-6.31585 3.7849,-3.4194 4.6358,-3.7629 7.8831,-3.18201 5.3749,0.96152 7.4629,0.97231 20.6402,0.1067 10.8653,-0.71373 12.595,-0.58622 18.2926,1.3485 7.625,2.58918 20.2478,5.08638 25.7117,5.08662 4.7687,2e-4 18.7818,6.48161 22.3805,10.35152 1.9819,2.13125 2.2966,3.28964 1.8631,6.85658 -0.8428,6.93416 -2.35,9.79207 -5.1641,9.79207 -1.3562,0 -2.7439,-0.45 -3.0838,-1 -0.3399,-0.55 -2.1844,-1 -4.0989,-1 -1.9144,0 -5.2449,-0.9 -7.4011,-2 -2.1562,-1.1 -4.8318,-2 -5.9458,-2 -2.6139,0 -11.0464,-1.97837 -13.2906,-3.11813 -2.78,-1.41187 -12.0086,-1.1168 -11.5137,0.36813 0.229,0.6875 1.504,1.3255 2.8333,1.41778 3.6592,0.25404 9.0446,1.82202 12.6171,3.67358 1.7602,0.91225 4.6142,1.65864 6.3423,1.65864 1.7281,0 4.2861,0.9 5.6845,2 1.3984,1.1 3.388,2 4.4213,2 1.0333,0 2.7726,0.45 3.8652,1 1.0925,0.55 2.8803,1.45 3.9728,2 1.0926,0.55 2.8987,1 4.0136,1 1.1149,0 2.8085,0.41715 3.7636,0.927 0.955,0.50985 2.4744,1.15174 3.3764,1.42643 2.3144,0.70505 4.86,6.28085 4.86,10.64551 0,5.11933 -2.3732,7.00135 -8.8287,7.00135 -2.8442,0 -5.1713,0.38259 -5.1713,0.85021 0,0.46762 2.25,2.82954 5,5.24872 4.6813,4.11812 5,4.70139 5,9.14979 0,2.6132 0.45,4.75128 1,4.75128 1.5345,0 1.1866,6.95621 -0.4286,8.57143 -1.8419,1.84191 -7.3009,1.84191 -9.1428,0 -0.7857,-0.78572 -1.4286,-2.33007 -1.4286,-3.43191 0,-3.0912 -11.3581,-10.03602 -19,-11.61736 -1.925,-0.39834 -5.525,-1.99927 -8,-3.55763 -6.6668,-4.19767 -12.6533,-5.89363 -20,-5.66596 -3.575,0.11079 -9.4347,-0.17749 -13.0216,-0.64061 -6.1305,-0.79154 -6.6702,-0.69616 -9,1.59066 -1.3631,1.33798 -3.9356,2.92915 -5.7167,3.53593 -1.781,0.60678 -5.2371,2.47849 -7.6802,4.15934 -2.4995,1.71977 -5.7364,3.05611 -7.4025,3.05611 -1.773,0 -4.9098,1.3869 -7.8198,3.45743 -7.6851,5.46813 -12.6939,8.13761 -17.5746,9.36658 -2.4915,0.62737 -7.3112,2.71273 -10.7105,4.63412 -5.8535,3.30855 -11.4742,5.32359 -17.0741,6.12102 -9.3777,1.33538 -13.2064,2.35554 -18.5,4.92933 -6.9673,3.38752 -7.882,4.36182 -10.0282,10.68158 -1.3139,3.86915 -2.326,5.04661 -5.7823,6.7271 -8.2221,3.99776 -13.616,10.70794 -16.1433,20.08284 -0.9638,3.575 -2.3487,7.175 -3.0778,8 -0.729,0.825 -2.2055,3.55325 -3.2811,6.06278 -1.0757,2.50953 -2.6028,5.20988 -3.3937,6.00077 -0.7909,0.79088 -2.6767,3.91263 -4.1906,6.93721 -1.5139,3.02458 -3.685,6.49855 -4.8246,7.71992 -1.7122,1.83516 -1.8516,2.48619 -0.8027,3.75 0.698,0.84113 1.8074,1.52932 2.4652,1.52932 3.6767,0 11.9797,3.51026 15.7343,6.65196 2.3786,1.99042 5.5785,4.05766 7.1108,4.59386 1.6827,0.58886 3.5507,2.47386 4.7171,4.76022 2.5659,5.0296 4.6559,6.99396 7.4412,6.99396 3.5152,0 11.4058,3.83308 12.972,6.30153 0.7672,1.20916 1.7027,5.40724 2.0788,9.32908 0.6429,6.70332 0.5454,7.22764 -1.6281,8.75 -1.2716,0.89066 -3.0796,1.61939 -4.0178,1.61939 -2.7997,0 -13.4706,-6.87355 -14.6336,-9.42612 -0.5933,-1.30227 -2.787,-3.65164 -4.8748,-5.22082 -2.0877,-1.56918 -4.706,-3.86604 -5.8184,-5.10413 -1.1123,-1.23809 -3.5209,-2.53904 -5.3524,-2.89101 -3.2015,-0.61523 -3.3173,-0.52843 -3,2.24865 0.2416,2.11455 1.301,3.42517 3.9536,4.89101 4.4904,2.48143 18.4487,13.36056 22.0358,17.17469 6.7613,7.18931 8.5516,8.90324 10.3793,9.93672 1.5156,0.85696 1.9613,2.18374 1.9613,5.83835 0,5.63216 -2.7517,8.55266 -8.0583,8.55266 -2.9338,0 -4.1933,-0.98961 -10.4311,-8.19638 -3.902,-4.50801 -8.8756,-9.25851 -11.0525,-10.55668 -2.177,-1.29816 -3.9581,-2.7197 -3.9581,-3.15896 0,-0.43926 -1.4625,-1.21745 -3.25,-1.7293 -1.9409,-0.55579 -4.0556,-2.21216 -5.25,-4.11221 -1.1,-1.74987 -2.9,-3.4744 -4,-3.8323 -1.1,-0.3579 -2.675,-1.23744 -3.5,-1.95454 -2.4975,-2.17084 -7,-2.9318 -7,-1.18305 0,1.86782 7.2049,6.80477 14.2488,9.76359 1.5119,0.63506 2.5097,1.54165 2.2173,2.01465 -0.2923,0.473 0.8572,1.5781 2.5544,2.45577 4.3665,2.25803 6.0961,4.28338 9.2295,10.80767 3.341,6.95661 3.3738,7.74712 0.4356,10.50743 -4.1837,3.93036 -10.4369,2.47312 -14.6856,-3.42232 -1.375,-1.90794 -3.9615,-4.10583 -5.7478,-4.88421 -1.7862,-0.77838 -3.7852,-2.5949 -4.4421,-4.03672 -1.3982,-3.06866 -12.4457,-9.92578 -18.3101,-11.36496 -2.2,-0.5399 -5.007,-1.28826 -6.2378,-1.66302 -3.1938,-0.9724 -4.3122,2.27684 -1.553,4.51119 1.1236,0.90978 2.824,3.20218 3.7788,5.09424 0.9547,1.89206 2.9905,4.79011 4.5238,6.44011 1.5334,1.65 3.7262,4.78051 4.8728,6.9567 1.8045,3.4247 1.9034,4.23143 0.7355,6 -2.3431,3.54809 -5.9455,4.15981 -9.5177,1.61619 -1.7229,-1.22681 -3.7743,-3.47145 -4.5585,-4.98808 -1.8389,-3.55605 -8.2165,-8.42442 -10.0928,-7.70441 -1.8722,0.71843 -1.8288,2.64236 0.225,9.96186 1.381,4.92207 1.4891,7.06493 0.6139,12.17449 -0.5842,3.41056 -1.7621,7.72701 -2.6175,9.59213 -3.2178,7.01629 -4.0818,13.00616 -3.7847,26.23946 0.072,3.21659 -0.548,8.13577 -1.3783,10.9315 -0.8302,2.79574 -1.5181,7.13899 -1.5286,9.65166 -0.011,2.51589 -1.8077,10.18471 -3.9999,17.0685 -2.3021,7.22906 -3.9808,14.48119 -3.9809,17.19838 -1e-4,4.69592 3.7289,18.13648 6.5127,23.47377 1.1579,2.22016 1.4762,7.19175 1.481,23.13503 0,11.62099 0.484,22.20485 1.1233,24.74369 0.9058,3.5972 0.6029,9.62848 -1.6013,31.88101 l -2.7185,27.44451 3.9965,8.81181 c 2.1982,4.84649 4.2787,10.3868 4.6234,12.3118 0.3447,1.925 1.9075,6.12377 3.4729,9.3306 2.2124,4.53255 2.739,6.78016 2.3653,10.09589 -0.5621,4.98706 0.6613,7.70226 6.1202,13.5829 2.1316,2.29626 4.4857,6.20201 5.2313,8.67945 0.7456,2.47743 2.7075,6.04419 4.3599,7.92613 1.6524,1.88194 3.2592,4.65096 3.5707,6.15337 0.3115,1.50241 1.184,4.08166 1.9389,5.73166 0.7549,1.65 1.876,4.64059 2.4912,6.64575 0.714,2.32682 3.1833,5.51975 6.8256,8.82582 8.9624,8.13515 10.2068,9.41718 10.2068,10.51536 0,0.56594 1.1671,3.22129 2.5935,5.90078 1.4264,2.67949 3.6177,9.00845 4.8697,14.06439 2.5247,10.1958 3.3864,12.1968 6.4442,14.9641 1.1509,1.0416 2.0926,2.4743 2.0926,3.1838 0,0.7095 1.575,4.4283 3.5,8.264 1.925,3.8357 3.5042,7.5729 3.5093,8.305 0.01,0.732 2.7051,7.35192 6,14.71082 3.2949,7.3589 5.9907,13.9077 5.9907,14.553 0,0.6453 1.3043,2.9493 2.8984,5.1202 1.5941,2.1708 4.1816,7.275 5.75,11.3426 2.7201,7.0545 6.3365,12.2712 9.1558,13.2074 0.7173,0.2382 1.7561,2.45 2.3084,4.9151 0.5524,2.465 2.9603,8.5319 5.3508,13.4819 2.3906,4.95 4.632,9.675 4.9808,10.5 0.3488,0.825 1.285,2.625 2.0803,4 0.7953,1.375 1.4527,3.7163 1.4608,5.2029 0.023,4.1576 2.0117,7.6004 4.991,8.639 2.3091,0.805 2.9419,1.9357 4.3648,7.7998 0.9153,3.7721 1.663,7.7757 1.6615,8.8969 -10e-4,1.1212 0.8974,3.8038 1.9974,5.9614 2.6047,5.109 2.6021,12.3994 -0.01,17.5123 -1.7207,3.3728 -1.9177,5.111 -1.3844,12.2102 0.5766,7.6746 0.6534,12.2819 0.4215,25.256 -0.049,2.7382 -0.7478,7.1966 -1.5528,9.9077 -1.1506,3.8742 -1.2247,5.7273 -0.3463,8.6592 0.9814,3.2755 0.8084,4.4057 -1.4192,9.2713 -2.8757,6.2814 -6.3355,8.6833 -12.5079,8.6833 -2.6246,0 -4.4848,-0.6522 -5.7046,-2 -0.9955,-1.1 -2.4106,-2 -3.1447,-2 -0.7342,0 -4.9662,-3.0375 -9.4047,-6.75 -12.6622,-10.5913 -14.7075,-11.4101 -29.7218,-11.8995 -10.1636,-0.3312 -14.0384,-0.051 -19.2274,1.3926 -8.1643,2.2706 -8.7567,3.3976 -9.3477,17.784 -0.2479,6.0351 -0.9464,12.2397 -1.5522,13.788 -0.6059,1.5483 -1.1015,4.1013 -1.1015,5.6733 0,1.572 -1.0318,4.1302 -2.2929,5.6849 -1.2611,1.5547 -3.0653,4.0548 -4.0094,5.5559 -2.0332,3.2327 -5.7324,5.2623 -11.1038,6.0922 -2.1484,0.3319 -5.0734,1.7036 -6.5,3.0481 -2.7828,2.6226 -11.7774,6.6851 -19.0939,8.624 -2.475,0.6559 -5.175,1.7781 -6,2.4938 -0.825,0.7156 -5.7273,2.6454 -10.8939,4.2884 -5.1667,1.643 -9.7188,3.6031 -10.1159,4.3558 -0.397,0.7527 -0.9917,4.4214 -1.3216,8.1528 l -0.5998,6.7843 3.8486,3.9657 c 2.1167,2.1811 4.1763,3.9657 4.5768,3.9657 0.4005,0 3.0059,1.9125 5.7898,4.25 5.5596,4.6682 13.4574,9.9201 18.3866,12.2268 1.7438,0.816 5.1841,2.8426 7.645,4.5034 2.4609,1.6609 4.9371,3.0198 5.5027,3.0198 0.5655,0 2.4394,1.1874 4.1641,2.6386 l 3.1358,2.6387 18.7398,-0.4914 c 18.2395,-0.4782 18.8473,-0.5625 22.7713,-3.1593 2.4659,-1.6319 5.0167,-4.5798 6.5683,-7.5912 2.2934,-4.4509 2.4397,-5.4141 1.5251,-10.0401 -0.7987,-4.0391 -1.9256,-5.9991 -5.3507,-9.3061 -6.7015,-6.4702 -5.7146,-12.4378 2.3399,-14.149 2.8922,-0.6145 3.6953,-0.2024 8.0677,4.1387 2.6706,2.6516 7.2147,6.6211 10.0979,8.8211 7.2253,5.5131 15.3875,13.5956 19.9926,19.7974 2.1247,2.8614 4.8377,6.073 6.0288,7.1368 4.7405,4.2339 6.3424,8.3404 6.7853,17.3942 0.3221,6.5829 0.058,9.2738 -1.0959,11.1716 -0.8361,1.375 -2.4137,4.3989 -3.5057,6.7197 -2.418,5.1388 -8.6193,12.0148 -14.3382,15.8981 -2.3344,1.5852 -5.1168,3.6697 -6.183,4.6322 -1.0662,0.9625 -2.3872,1.75 -2.9355,1.75 -0.5484,0 -1.926,0.8079 -3.0615,1.7953 -3.1038,2.6992 -7.5853,3.8524 -24.1771,6.2216 -15.3224,2.1879 -23.2792,2.2154 -34.3873,0.1186 -3.025,-0.571 -8.875,-1.3173 -13,-1.6583 -4.125,-0.3411 -8.4,-0.9926 -9.5,-1.4477 -2.8385,-1.1747 -7.2829,-2.6031 -12.5,-4.0177 -2.475,-0.671 -5.5337,-1.6232 -6.7971,-2.1159 -1.2633,-0.4928 -5.9884,-0.9059 -10.5,-0.9181 -11.5025,-0.031 -32.3427,-2.4322 -37.7029,-4.3439 -2.475,-0.8826 -5.5954,-1.6113 -6.9343,-1.6193 -2.7374,-0.016 -11.0657,-3.7663 -11.0657,-4.9825 0,-1.9412 -6.89,-3.4481 -14.9709,-3.2742 -7.376,0.1586 -8.7657,0.4728 -10.2791,2.3236 -0.9625,1.177 -1.7518,2.6527 -1.754,3.2793 0,0.6266 -2.0248,3.0693 -4.4946,5.4284 -2.4698,2.3591 -5.1784,5.6192 -6.019,7.2448 -1.8663,3.609 -9.2745,7.5045 -15.4824,8.1412 -2.475,0.2538 -10.125,0.1475 -17,-0.2364 z m 35.6037,-71.6869 c 3.3251,-3.6014 6.3088,-8.1763 7.9892,-12.25 1.4751,-3.576 3.3198,-7.8519 4.0992,-9.5019 3.2485,-6.8768 9.3084,-22.6676 9.3141,-24.2706 0,-0.9512 0.6784,-3.0183 1.5,-4.5937 2.135,-4.0937 1.8775,-5.6357 -0.9411,-5.6357 -1.3392,0 -3.6448,-0.46 -5.1235,-1.0222 -1.4787,-0.5622 -9.0455,-1.4521 -16.8151,-1.9776 -7.7696,-0.5254 -19.9765,-1.8768 -27.1265,-3.0031 -7.15,-1.1262 -16.375,-2.4662 -20.5,-2.9778 -4.125,-0.5115 -10.875,-1.4847 -15,-2.1627 -4.125,-0.6779 -10.875,-1.2819 -15,-1.3421 -4.125,-0.06 -8.7753,-0.6539 -10.3339,-1.3192 -1.5587,-0.6653 -3.2918,-0.9266 -3.8515,-0.5807 -0.5597,0.3459 -4.0357,-0.3986 -7.7244,-1.6544 -6.6929,-2.2786 -6.7274,-2.2798 -16.6485,-0.5662 -5.4679,0.9444 -11.9667,1.9619 -14.4417,2.2612 -5.6108,0.6784 -8.4884,3.2561 -9.902,8.8699 -1.441,5.7226 -1.3653,10.7066 0.268,17.646 1.4989,6.3687 7.6314,16.3759 10.6155,17.323 1.0777,0.3421 4.5082,3.0708 7.6233,6.0639 3.115,2.9931 6.1115,5.442 6.6588,5.442 0.5472,0 2.8808,2.025 5.1856,4.5 3.3819,3.6316 4.8525,4.5029 7.6207,4.5151 1.8866,0.01 5.2301,0.6635 7.4301,1.4561 2.2,0.7925 5.4472,1.4608 7.2161,1.4849 1.7688,0.024 4.7386,0.7699 6.5994,1.6573 3.1964,1.5242 3.6474,1.4966 8.161,-0.5 2.6278,-1.1624 5.8384,-2.1134 7.1348,-2.1134 3.873,0 8.4278,-4.8709 9.0762,-9.7062 0.4764,-3.5522 0.1558,-4.6913 -2.0617,-7.3267 -2.9023,-3.4492 -3.2203,-5.5681 -1.4265,-9.5052 1.0257,-2.2511 1.641,-2.5447 4.25,-2.0282 1.6779,0.3322 5.0757,1.9334 7.5507,3.5583 2.475,1.6249 6.3746,3.9376 8.6658,5.1395 2.2911,1.2018 4.758,3.2919 5.4819,4.6445 0.7239,1.3526 3.7993,4.032 6.8342,5.9542 5.3795,3.4072 16.0181,13.5466 16.0181,15.2665 0,1.4281 3.036,4.0033 4.7197,4.0033 0.8672,0 3.965,-2.5866 6.884,-5.7481 z M 542.46337,210.31189 c 0.87,-0.33384 1.5818,-0.93761 1.5818,-1.34171 0,-1.0555 -7.1618,-3.0513 -10.9493,-3.0513 -4.8271,0 -3.2714,2.21803 2.5197,3.59246 2.7113,0.64347 5.0053,1.22341 5.0978,1.28875 0.092,0.0653 0.88,-0.15435 1.75,-0.4882 z"
     id="path2987"
     inkscape:connector-curvature="0" />
</svg>
