<?xml version="1.0" encoding="UTF-8" standalone="no"?>
<!-- Created with Inkscape (http://www.inkscape.org/) -->

<svg
   xmlns:dc="http://purl.org/dc/elements/1.1/"
   xmlns:cc="http://creativecommons.org/ns#"
   xmlns:rdf="http://www.w3.org/1999/02/22-rdf-syntax-ns#"
   xmlns:svg="http://www.w3.org/2000/svg"
   xmlns="http://www.w3.org/2000/svg"
   xmlns:sodipodi="http://sodipodi.sourceforge.net/DTD/sodipodi-0.dtd"
   xmlns:inkscape="http://www.inkscape.org/namespaces/inkscape"
   id="svg2"
   version="1.1"
   inkscape:version="0.48.2 r9819"
   width="976.53668"
   height="1686.0034"
   sodipodi:docname="jatakatalesanima00babb_0034b.png">
  <metadata
     id="metadata8">
    <rdf:RDF>
      <cc:Work
         rdf:about="">
        <dc:format>image/svg+xml</dc:format>
        <dc:type
           rdf:resource="http://purl.org/dc/dcmitype/StillImage" />
        <dc:title></dc:title>
      </cc:Work>
    </rdf:RDF>
  </metadata>
  <defs
     id="defs6" />
  <sodipodi:namedview
     pagecolor="#ffffff"
     bordercolor="#666666"
     borderopacity="1"
     objecttolerance="10"
     gridtolerance="10"
     guidetolerance="10"
     inkscape:pageopacity="0"
     inkscape:pageshadow="2"
     inkscape:window-width="1600"
     inkscape:window-height="876"
     id="namedview4"
     showgrid="false"
     fit-margin-top="0"
     fit-margin-left="0"
     fit-margin-right="0"
     fit-margin-bottom="0"
     inkscape:zoom="0.5"
     inkscape:cx="-553.3382"
     inkscape:cy="1273.4901"
     inkscape:window-x="0"
     inkscape:window-y="24"
     inkscape:window-maximized="1"
     inkscape:current-layer="svg2" />
  <path
     style="fill:#000000"
     d="m 142.1618,1685 -2,-0.8594 -7.2012,-0.07 -7.2012,-0.07 -5.2988,-1.4041 c -2.9143,-0.7722 -6.4238,-1.8519 -7.7988,-2.3993 l -2.5,-0.9953 -3,-3.2013 c -1.65,-1.7607 -4.024,-3.5992 -5.2756,-4.0856 l -2.2756,-0.8844 -0.6368,-1.765 c -0.7443,-2.0631 -10.2962,-14.6086 -11.4956,-15.0983 l -0.8164,-0.334 0,-1.9386 0,-1.9386 -3.0001,-6.6167 -3.0002,-6.6167 0.3095,-12.1114 0.3095,-12.1113 1.7368,-3.5 c 0.9552,-1.925 3.1785,-6.0388 4.9406,-9.1417 l 3.2039,-5.6417 3.5,-3.5348 c 4.5629,-4.6083 9.3973,-10.5837 10.9374,-13.519 l 1.2263,-2.3372 -0.6661,-4.8429 -0.6661,-4.843 2.2333,-6.8198 2.2333,-6.8199 2.3321,-2.4584 2.3321,-2.4584 4.3937,2.1346 4.3937,2.1346 0.6838,3.8238 c 0.3761,2.1031 1.5553,6.1976 2.6205,9.0989 l 1.9367,5.2751 0.6323,7.2249 0.6323,7.2249 1.7843,3.5 c 0.9813,1.925 2.0105,4.2243 2.287,5.1095 l 0.5028,1.6095 6.8316,2.7349 6.8317,2.7349 7.0036,-0.6588 7.0037,-0.6588 10.5,-9.9753 10.5,-9.9754 5.4733,-2.6868 c 3.0103,-1.4778 6.8598,-3.9042 8.5544,-5.3921 l 3.0811,-2.7053 2.8055,-0.7041 2.8054,-0.7042 5.7727,-8.114 c 3.175,-4.4627 7.2031,-9.689 8.9513,-11.614 3.8524,-4.242 10.2146,-14.8965 14.7263,-24.6615 l 3.33,-7.2074 -0.015,-5.3156 -0.015,-5.3155 -0.8537,-1.3471 -0.8537,-1.3471 0.995,-3.92 0.995,-3.92 2.7471,-2.3116 c 1.511,-1.2714 3.2543,-3.2591 3.8741,-4.4171 l 1.1268,-2.1056 0,-6.0306 0,-6.0305 -2,-1.0704 -2,-1.0704 0,-2.4058 0,-2.4058 -1,-0.618 -1,-0.618 0,-4.2224 0,-4.2223 5,-5.2422 c 2.75,-2.8832 5,-5.6593 5,-6.169 0,-0.5097 0.7449,-1.3435 1.6552,-1.853 l 1.6552,-0.9263 -0.2024,-6.8734 c -0.1113,-3.7804 -0.6182,-8.6734 -1.1264,-10.8734 l -0.9241,-4 2.4864,-5.1305 2.4863,-5.1305 -1.1145,-5.1964 -1.1144,-5.1964 1.0994,-4.3659 c 0.6046,-2.4013 1.0993,-5.0818 1.0993,-5.9568 l 0,-1.591 -3.4107,-2.0123 -3.4107,-2.0124 -0.6065,-1.5806 -0.6066,-1.5807 1.1397,-1.3732 1.1397,-1.3733 2.8374,0 2.8374,0 1.1976,-3.9973 1.1976,-3.9972 -1.7827,-1.9699 -1.7827,-1.9698 0.4919,-1.8808 0.4918,-1.8807 -1.3312,-2.4022 -1.3311,-2.4021 -0.035,-2.643 -0.035,-2.643 -1.4135,-0.5424 -1.4135,-0.5424 -0.7071,-6.6026 -0.7071,-6.6027 1.7756,-1.9619 1.7756,-1.962 -1.655,-1.8287 -1.655,-1.8288 0.015,-1.9212 c 0.01,-1.0567 0.4123,-2.5483 0.8976,-3.3147 l 0.8823,-1.3934 2.1014,0.5495 2.1014,0.5495 0.4848,-0.7845 c 0.2667,-0.4315 2.0672,-1.5353 4.001,-2.453 l 3.5162,-1.6685 0,-1.4301 0,-1.43 -2.5882,-1.6958 -2.5881,-1.6958 0.6597,-3.0773 c 0.3628,-1.6924 0.8968,-5.3272 1.1865,-8.0772 l 0.5268,-5 1.5566,-1.75 c 0.8562,-0.9625 2.1068,-1.75 2.7792,-1.75 0.6724,0 1.7149,-0.5932 2.3165,-1.3182 l 1.094,-1.3181 -1.5607,-2.2282 -1.5607,-2.2283 0.5578,-1.4536 0.5578,-1.4536 3.0314,0 3.0314,0 2,-2 c 2.7151,-2.7151 2.5732,-3.2895 -1.75,-7.0854 l -3.75,-3.2925 0,-4.0611 0,-4.061 2.9399,-4 c 1.617,-2.2 3.992,-5.1642 5.2779,-6.5872 l 2.3378,-2.5872 -0.6414,-1.6714 -0.6414,-1.6715 -2.2476,-0.5641 -2.2477,-0.5641 -3.4896,1.458 -3.4895,1.458 -2.0745,3.3648 c -1.141,1.8506 -2.3925,4.6385 -2.7812,6.1955 l -0.7066,2.8307 -1.1401,0.4375 -1.14,0.4375 -7.9003,-2.0206 c -4.3451,-1.1113 -7.996,-2.132 -8.1131,-2.2682 -0.117,-0.1362 -1.4337,-2.6016 -2.9258,-5.4786 l -2.713,-5.231 0.9927,-13.769 0.9927,-13.7691 -1.3716,-7.5 c -0.7544,-4.125 -1.6733,-9.4393 -2.042,-11.8095 l -0.6703,-4.3095 2.1441,-2.9 2.144,-2.9 0,-2.9184 0,-2.9184 1.5868,-3.7975 1.5867,-3.7976 -0.5371,-4.0746 c -0.2954,-2.241 -0.9922,-7.433 -1.5486,-11.5379 l -1.0115,-7.4634 1.643,-1.8155 1.6431,-1.8156 -2.1812,-1.5277 -2.1812,-1.5278 0,-1.6223 c 0,-0.8923 0.5326,-3.095 1.1835,-4.8951 l 1.1834,-3.2727 -1.6327,-3.2983 -1.6328,-3.2982 -0.48,-13.2972 -0.4799,-13.2971 1.4891,-3.5638 1.489,-3.5639 2.9444,-2.6893 2.9444,-2.6892 1.773,-4.9498 c 0.9752,-2.7223 4.3167,-9.6747 7.4255,-15.4497 3.1089,-5.775 5.9496,-11.7044 6.3128,-13.1764 l 0.6602,-2.6764 1.9101,-1.7286 c 1.0505,-0.9507 1.91,-2.2731 1.91,-2.9387 0,-0.6656 0.9,-2.3543 2,-3.7528 l 2,-2.5426 0,-5.0425 0,-5.0426 1.75,-1.049 1.75,-1.0489 -1.75,-1.361 -1.75,-1.361 0,-4.0922 0,-4.0923 4.1155,-7.7975 c 4.4302,-8.3936 6.8564,-15.2419 6.8737,-19.4015 l 0.011,-2.604 2.4174,-2.6084 2.4174,-2.6083 3.2152,-10.2877 3.2153,-10.2876 2.3229,-4.1022 2.3229,-4.1022 1.9508,-6.8978 c 1.0734,-3.7938 2.7612,-8.4728 3.7512,-10.3978 l 1.7999,-3.5 0.6761,-5.6765 0.6761,-5.6765 2.8676,-4.0022 2.8677,-4.0022 3.1709,-1.5174 3.171,-1.5174 3.6134,-6.4614 3.6134,-6.46136 2.5124,-1.64622 2.5124,-1.64622 3.3335,-5.1963 c 1.8334,-2.85796 4.3245,-6.08716 5.5358,-7.176 2.6749,-2.4045 4.5736,-6.74673 5.5192,-12.62215 l 0.7078,-4.39815 1.8544,-3.2212 1.8544,-3.22121 0.6798,-3.77879 c 0.3739,-2.07834 1.4001,-5.02709 2.2804,-6.55277 l 1.6007,-2.77397 -0.9797,-1.35988 c -0.5389,-0.74794 -2.6717,-3.82785 -4.7396,-6.84425 l -3.7597,-5.48436 0.1503,-3.38178 c 0.083,-1.85999 -0.2905,-5.63179 -0.8292,-8.38179 l -0.9795,-5 0.2595,-10.66729 0.2595,-10.66728 1.0272,-1.9193 1.0272,-1.91929 -0.9555,-6.74646 -0.9554,-6.74647 0.7473,-1.16695 c 0.411,-0.64183 1.0408,-4.09196 1.3995,-7.66696 0.3587,-3.575 1.1605,-8.3 1.7817,-10.5 0.6213,-2.2 1.3487,-7.32567 1.6165,-11.39039 l 0.4869,-7.39038 -0.9403,-3.40538 -0.9403,-3.40537 1.0599,-3.20424 c 0.583,-1.76233 1.6183,-3.66064 2.3008,-4.21847 0.6824,-0.55783 2.9035,-4.15783 4.9358,-8 2.0322,-3.84217 5.0023,-9.23577 6.6002,-11.98577 l 2.9052,-5 -0.6475,-2 -0.6475,-2 0.2523,-14.76169 0.2523,-14.76169 -1.1689,-3.54185 -1.1689,-3.54185 2.6514,-9.69646 c 1.4583,-5.33305 3.3011,-10.89089 4.0952,-12.35075 0.7941,-1.45986 1.4438,-3.27013 1.4438,-4.02281 0,-0.75269 1.3597,-4.89961 3.0216,-9.21539 l 3.0215,-7.84687 1.9785,-2.51518 1.9784,-2.51518 0,-1.88989 0,-1.88989 -2.5651,-0.97525 C 375.6859,607.43886 373.2375,607 371.6557,607 l -2.8759,0 -0.6004,0.97153 c -0.3302,0.53434 -2.5494,1.83364 -4.9314,2.88733 l -4.331,1.9158 -4.1276,3.72903 -4.1276,3.72903 0,1.19655 0,1.19655 -3.0892,2.93709 c -1.6991,1.6154 -4.2426,4.96209 -5.6524,7.43709 -1.4097,2.475 -3.6425,5.625 -4.9618,7 -3.018,3.14545 -9.2966,13.03251 -9.2966,14.63955 0,0.66385 -1.0638,2.47903 -2.364,4.03372 l -2.364,2.82673 -4.1463,8.83104 -4.1463,8.83105 -5.7397,6.48878 -5.7397,6.48878 -4.5,2.3451 c -5.0026,2.60701 -12.2297,8.58044 -21.4101,17.69613 -6.3443,6.29961 -12.668,11.08919 -16.0899,12.18645 l -2,0.64133 -2.2592,3.49567 -2.2592,3.49567 -0.9705,0 -0.9704,0 -2.0613,4.04029 -2.0612,4.0403 -2.2843,0.86851 -2.2844,0.86851 -1.8559,2.84119 c -1.947,2.98076 -10.6801,11.63928 -17.1322,16.98601 l -3.795,3.1448 -0.2158,9.65189 -0.2158,9.65188 -5.8665,9.14876 -5.8665,9.14876 -9.6051,3.13509 -9.6052,3.13509 -2.9793,2.50689 -2.9792,2.50688 -4.5958,1.28674 -4.5958,1.28674 -4.5207,4.83299 -4.5207,4.833 0,1.8206 0,1.8206 -2.1261,1.82045 -2.1262,1.82046 0.649,5.52186 0.649,5.52186 -2.6021,9.62993 c -1.4312,5.29645 -3.2437,11.65492 -4.0278,14.12992 -0.7841,2.475 -1.4235,5.4379 -1.4207,6.58422 l 0,2.08421 -4.1156,5.87524 -4.1156,5.87524 -7.1344,7.09546 c -3.9239,3.90251 -8.1469,8.49192 -9.3844,10.19871 l -2.25,3.10322 0,3.5688 0,3.5688 -2.4172,1.5839 -2.4173,1.5838 -4.3327,-1.158 -4.3328,-1.158 -1.5,-1.7037 c -0.8249,-0.9371 -2.0625,-2.6872 -2.75,-3.8892 l -1.25,-2.1856 0,-5.94843 0,-5.94847 0.944,-2.48278 0.944,-2.48278 5.056,-5.30097 5.056,-5.30096 0,-1.80611 0,-1.8061 -2.5651,-0.97525 C 116.6859,876.43886 113.9359,876 111.9855,876 l -3.5461,0 -5.1388,4.25 c -5.9194,4.89557 -8.2864,7.63593 -10.7218,12.41279 l -1.7376,3.40828 -2.6176,2.05899 -2.6176,2.05899 -1.9924,3.90548 -1.9924,3.90547 -0.8755,0 c -1.1926,0 -7.0839,9.304 -7.0839,11.1875 l 0,1.5124 -3.25,4.2856 c -1.7875,2.3571 -4.053,5.4621 -5.0344,6.9 l -1.7844,2.6145 0.6144,5.5938 0.6145,5.5937 -3.0906,2.6006 -3.0906,2.6005 -3.1945,-1.1136 c -1.7571,-0.6125 -4.7401,-2.1624 -6.6291,-3.4443 L 45.3827,944 l -4.9003,0 -4.9003,0 -3.777,-1.9269 c -3.772,-1.9243 -5.6444,-3.674 -7.6043,-7.1059 -0.5714,-1.0007 -3.1682,-4.5862 -5.7705,-7.9678 l -4.7315,-6.1484 -1.0347,-3.8423 c -0.569,-2.1133 -1.6995,-5.1173 -2.5123,-6.6755 C 9.3391,908.7749 8.6706,907.05 8.6663,906.5 c 0,-0.55 -1.7443,-2.6339 -3.8668,-4.6309 L 0.9405,898.2382 0.4702,895.77818 0,893.31815 0.8841,890.90908 C 1.3704,889.58408 3.2469,886.925 5.054,885 l 3.2857,-3.5 1.739,-4.73736 1.7389,-4.73736 3.0042,-2.13923 c 1.6524,-1.17658 4.4298,-4.04051 6.1722,-6.3643 1.7423,-2.32378 6.2109,-7.84974 9.9302,-12.27989 l 6.7623,-8.05483 2.7908,-0.97286 2.7907,-0.97285 5.9469,-4.93787 5.9469,-4.93786 5.8692,-2.76849 5.8692,-2.76848 1.019,-2.69957 1.019,-2.69956 4.8623,-2.71475 4.8623,-2.71474 3.0491,0 3.049,0 3.5828,-3.47951 3.5827,-3.4795 3.6177,-0.57429 c 1.9897,-0.31585 4.2927,-1.01784 5.1177,-1.55997 0.825,-0.54213 3.6209,-1.95024 6.2132,-3.12914 l 4.7132,-2.14344 0.54,-1.40732 0.5401,-1.40731 -0.5623,-0.90976 -0.5622,-0.90976 -1.8186,0 -1.8185,0 -0.9741,-1.25 -0.9741,-1.25 -0.1461,-6.66688 -0.1462,-6.66688 6.0969,-4.58312 L 117.86,771 l 1.3311,0 1.3312,0 3.8197,-4.60287 c 2.1009,-2.53158 5.6614,-6.47255 7.9123,-8.75772 l 4.0925,-4.15485 1.1662,-3.53379 1.1663,-3.5338 -0.8175,-4.45848 -0.8175,-4.45849 0.5776,-6.70402 0.5776,-6.70402 2.8961,-3.02286 2.8961,-3.02287 3.3558,-1.10751 3.3558,-1.10751 3.7758,0.63792 3.7758,0.63793 1.8623,-2.05775 1.8622,-2.05774 3.8412,-1.03433 3.8412,-1.03433 0,-0.96807 c 0,-0.53244 1.0887,-1.91464 2.4192,-3.07156 l 2.4193,-2.10349 0.5636,-2.24566 0.5636,-2.24566 4.2671,-2.86113 c 4.2291,-2.83556 9.645,-5.65691 13.0172,-6.78115 l 1.75,-0.58342 0,-1.96529 0,-1.96529 -4.25,-2.84473 -4.25,-2.84473 -0.8962,-8.66323 -0.8963,-8.66324 1.2405,-4.43062 1.2405,-4.43063 6.4334,-5.1275 6.4333,-5.12751 3.9724,0 3.9724,0 0,-0.94098 c 0,-0.51754 -0.495,-1.24695 -1.1001,-1.6209 l -1.1001,-0.67991 0.6944,-5.55827 0.6945,-5.55827 1.5091,-2.30323 c 0.83,-1.26677 2.9251,-3.18132 4.6557,-4.25456 1.7306,-1.07324 4.159,-2.89869 5.3965,-4.05657 l 2.25,-2.10522 0,-3.11665 0,-3.11666 2.6971,-3.59439 c 1.4835,-1.97691 2.9903,-3.81939 3.3486,-4.09439 0.3583,-0.275 2.0434,-3.43445 3.7447,-7.021 l 3.0932,-6.521 2.541,-2.38716 2.541,-2.38715 6.3829,0.20664 6.3828,0.20663 3.154,-2.65388 3.1539,-2.65387 2.6149,-4.46196 2.6149,-4.46196 5.4523,-3.0771 5.4523,-3.0771 0.3297,-1.10555 c 0.1813,-0.60804 0.5921,-2.30836 0.9129,-3.77847 l 0.5832,-2.67293 2.3635,-2.82707 c 1.2999,-1.55489 2.6997,-3.95207 3.1108,-5.32707 0.411,-1.375 2.2726,-6.0093 4.1368,-10.29844 l 3.3895,-7.79843 0,-2.32944 c 0,-1.28119 0.675,-3.94494 1.5,-5.91945 0.825,-1.9745 1.5,-4.65944 1.5,-5.96653 l 0,-2.37653 5,-5.71378 c 2.75,-3.14258 5.0031,-6.2501 5.0068,-6.90559 l 0.01,-1.19181 5.4864,-4.5 5.4864,-4.5 0.01,-1.84879 0.01,-1.84879 3,-2.80242 3,-2.80242 0.018,-1.84879 0.018,-1.84879 2.9818,-4.40048 c 1.64,-2.42027 2.9818,-4.69942 2.9818,-5.06479 0,-0.36537 1.6014,-1.42796 3.5587,-2.36132 1.9573,-0.93336 6.0535,-3.6042 9.1027,-5.93521 3.0493,-2.33101 6.5104,-4.86612 7.6914,-5.63359 5.2294,-3.39828 14.2,-17.12752 18.6901,-28.60461 l 1.9561,-5 5e-4,-2.52336 5e-4,-2.52336 4.75,-5.07592 c 2.6125,-2.79175 5.9305,-5.79174 7.3733,-6.66663 1.4428,-0.8749 5.1802,-3.82829 8.3054,-6.5631 l 5.6822,-4.97238 3.6946,-1.71522 c 2.032,-0.94338 4.3695,-2.26596 5.1945,-2.93906 C 404.1006,385.72233 418.5284,379 421.1048,379 c 0.8493,0 3.7869,-0.85217 6.528,-1.8937 l 4.9838,-1.89371 4.2239,-3.10629 4.2239,-3.1063 3.8428,0 3.8429,0 3.7955,-1.93635 c 3.8563,-1.96732 6.5459,-2.49856 11.2353,-2.21917 l 2.6104,0.15552 3.8402,2.60599 3.8401,2.606 10.1073,-0.37415 10.1073,-0.37414 6.6654,-3.28135 6.6653,-3.28134 1.961,1.04949 c 1.0786,0.57723 3.1143,1.0495 4.5239,1.0495 l 2.5628,0 4.0029,-3.61636 4.0029,-3.61636 0,-1.83708 0,-1.83707 -4.25,0.10012 c -2.3375,0.0551 -8.075,-0.14387 -12.75,-0.44208 l -8.5,-0.5422 -2.2234,-0.8667 -2.2233,-0.86671 -3.0267,-4.77251 c -3.5196,-5.54987 -3.6848,-6.79745 -1.1979,-9.04806 L 492.3279,336 l 1.6712,0 1.6713,0 0,-0.92857 c 0,-1.46761 -2.5582,-3.6458 -5.9148,-5.03615 l -3.0852,-1.27792 0,-1.8061 0,-1.8061 2.5825,-2.03136 c 1.4203,-1.11726 3.4453,-2.30524 4.5,-2.63997 l 1.9175,-0.60861 0,-0.95405 0,-0.95405 -2.25,-0.90376 c -1.2375,-0.49707 -5.0894,-1.48621 -8.5597,-2.19809 l -6.3098,-1.29433 -0.7663,-1.03047 c -1.1933,-1.60476 -3.1142,-11.25178 -3.1142,-15.64 l 0,-3.95696 -2.4884,-4.91055 -2.4883,-4.91056 -1.6674,-0.93311 -1.6674,-0.93311 2.2239,-3.12309 2.2238,-3.12309 1.7622,0 1.7622,0 4.4197,3.98588 4.4197,3.98589 2.2821,0.0141 c 1.2552,0.008 3.7416,-0.5957 5.5255,-1.34103 l 3.2433,-1.35514 7.7769,0.63611 c 4.2773,0.34985 7.9784,0.43467 8.2246,0.18847 0.2462,-0.24618 0.4476,-1.8492 0.4476,-3.56225 l 0,-3.11464 -5.9479,-5.88585 -5.9479,-5.88586 -1.1684,-2.82078 -1.1684,-2.82078 -4.5336,-2.26206 -4.5335,-2.26206 -4.1001,-4.86691 -4.1002,-4.86692 -2.1053,-0.8033 -2.1052,-0.80331 -4.573,-6.08334 -4.5729,-6.08334 -2.4351,-5.24644 c -1.3393,-2.88554 -3.256,-7.27144 -4.2594,-9.74644 -1.0034,-2.475 -2.3494,-5.175 -2.9912,-6 -0.6417,-0.825 -2.3292,-3.75 -3.7499,-6.5 l -2.5831,-5 -0.4616,-4 c -0.254,-2.2 -0.9921,-7.34632 -1.6403,-11.43626 l -1.1786,-7.43626 1.0577,-4.06374 c 0.5817,-2.23506 1.5167,-6.73389 2.0778,-9.9974 l 1.0201,-5.93366 0,-7.56634 0,-7.56634 1.4259,-7 c 0.7842,-3.85 2.1336,-9.20902 2.9988,-11.90893 l 1.5733,-4.90893 8e-4,-5.09107 8e-4,-5.09107 2.9731,-6.28451 2.973,-6.28451 6.4178,-6.48128 6.4178,-6.48128 0.6352,-3.38574 0.6352,-3.38574 4.5491,-3.72768 4.5492,-3.72768 -0.5538,-2.20656 -0.5539,-2.20655 2.4779,-3.35852 2.4778,-3.35851 0,-1.73429 0,-1.73429 1.5714,-1.57143 1.5715,-1.57143 3.847,0 3.8471,0 7.3033,-3.5 7.3033,-3.5 2.743,0 2.743,0 1.0704,2 1.0704,2 1.9648,0 1.9648,0 0,-1.84501 0,-1.84502 1.7866,-1.61684 c 0.9826,-0.88927 3.5109,-2.33732 5.6184,-3.21788 l 3.8318,-1.60102 5.5111,-0.54112 5.5111,-0.54111 2.3661,2.854 2.3661,2.854 2.0878,-2.75 2.0878,-2.75 1.3096,0 1.3096,0 0.5756,1.5 0.5756,1.5 2.3089,0 2.3089,0 2.0837,-1.45947 2.0836,-1.45946 10.7546,-0.6953 10.7545,-0.69529 1.3977,-3.34524 c 1.5676,-3.75186 2.1552,-3.97559 4.9298,-1.87704 l 1.9411,1.46819 3.0589,0.0318 3.0588,0.0318 1.9412,-1.46819 1.9411,-1.4682 3.2029,-0.0318 3.203,-0.0318 2.6398,1.20277 2.6398,1.20278 1.9102,-2.45278 C 624.8148,23.60375 625.956,21.375 626.3002,20 l 0.6258,-2.5 2.312,-2.5 2.312,-2.5 1.26,-5 c 0.693,-2.75 1.6748,-5.5625 2.1817,-6.25 l 0.9216,-1.25 2.5676,0 2.5677,0 5.3095,5.75 5.3095,5.75 4e-4,1.33239 c 2e-4,0.73281 1.362,4.43468 3.0262,8.22637 l 3.0258,6.89398 0.8875,4.75069 0.8875,4.75069 2.6425,2.27294 2.6424,2.27294 1.8221,0 c 1.0022,0 3.5646,0.75389 5.6943,1.67532 2.1296,0.92143 6.1221,2.005 8.8721,2.40793 12.5421,1.83766 14.3775,2.47599 16.7151,5.81345 l 1.3177,1.88123 3.608,1.50754 3.6081,1.50754 4.3755,4.3664 c 2.4066,2.40152 6.1756,6.40306 8.3756,8.89231 2.2,2.48925 5.4199,5.52128 7.1554,6.73784 l 3.1554,2.21193 2.7392,4.74925 2.7392,4.74926 5.8554,6.16345 5.8554,6.16344 0.035,2.33656 0.035,2.33655 1.4291,2.5 1.4292,2.5 0.062,3 0.062,3 7.9734,8.39416 c 4.3854,4.61678 7.9803,8.89178 7.9887,9.5 0.01,0.60821 0.431,1.76295 0.939,2.56608 l 0.9236,1.46023 2.0847,-1.8866 2.0847,-1.88661 1.0448,1.04477 1.0447,1.04476 0.7918,5.83502 0.7919,5.83501 1.2648,0.42159 c 0.6956,0.23187 2.0669,1.22376 3.0473,2.2042 l 1.7826,1.7826 1.1652,5.8424 c 0.6408,3.21331 1.6836,7.64239 2.3172,9.84239 l 1.1521,4 2.2751,1.82258 2.2752,1.82258 0.022,5.17742 0.022,5.17742 1.938,2.5 1.938,2.5 -0.5757,8.5 -0.5758,8.5 2.3655,2.18854 2.3656,2.18854 -0.5,8.01972 -0.5,8.01971 -1.9645,1.43515 -1.9645,1.43514 2.7145,5.54365 2.7145,5.54365 0,1.89397 0,1.89397 2.4252,1.29794 2.4252,1.29793 2.5536,5.8881 2.5536,5.88811 1.0714,9.23294 1.0714,9.23294 1.4062,3 c 0.7733,1.65 1.8715,5.64724 2.4403,8.88275 l 1.0342,5.88276 -0.6222,3.89099 -0.6222,3.89099 1.236,5.82411 1.236,5.82411 -1.7563,3.39631 C 812.7964,324.57413 803.5371,338 802.7637,338 c -1.1223,0 -10.5349,9.23542 -11.5963,11.37804 l -1.0512,2.12196 -3.3788,0.32466 -3.3788,0.32467 -2.863,2.86307 -2.8631,2.86307 -3.2125,0.31226 -3.2126,0.31227 -1.2314,2.48347 -1.2314,2.48346 -4.7914,1.68903 c -2.6353,0.92897 -5.549,1.72391 -6.4749,1.76654 -0.926,0.0426 -3.8579,1.4291 -6.5153,3.08106 l -4.8318,3.00357 -5.6408,1.18318 -5.6409,1.18318 -5.986,-1.81242 -5.986,-1.81241 -1.0565,0.65298 -1.0566,0.65299 -4.5211,-1.13842 -4.521,-1.13841 -1.1527,-1.3889 -1.1527,-1.3889 -2.8204,0 -2.8204,0 -3.4623,-2.04284 -3.4624,-2.04285 -2.3732,0.59563 -2.3731,0.59562 -8.4717,-3.09263 c -4.6594,-1.70095 -13.7467,-4.73063 -20.1942,-6.73261 l -11.7225,-3.63997 -2.1572,1.92983 c -1.1864,1.0614 -3.2237,3.60838 -4.5274,5.65995 l -2.3703,3.73013 0,1.78322 0,1.78322 3.5,5.1972 3.5,5.1972 0,1.46134 0,1.46134 4.75,5.01007 4.75,5.01007 4.5,1.17051 4.5,1.17052 4.5,3.08191 4.5,3.08191 6.5,0.42303 6.5,0.42303 2,1.81049 2,1.81048 6.1929,2.0735 6.1929,2.07349 3.463,2.35005 c 1.9047,1.29253 5.1929,3.69225 7.3071,5.3327 2.1143,1.64045 6.9656,4.7058 10.7808,6.81188 l 6.9366,3.82924 3.3467,3.34667 c 1.8407,1.84067 3.7413,3.34667 4.2235,3.34667 0.4823,0 3.2047,1.83999 6.0497,4.08886 l 5.1728,4.08886 0.966,2.66114 0.9661,2.66114 4.0179,2.78818 4.018,2.78819 1.4916,3.71181 c 0.8205,2.0415 2.8153,6.24981 4.4331,9.3518 l 2.9413,5.63997 0,5.54493 0,5.54492 -1.0008,2.63224 -1.0008,2.63224 -2.0729,-0.65792 -2.0729,-0.65793 -2.9263,1.21211 -2.9263,1.2121 0,1.78979 0,1.78978 3.0767,2.5889 3.0767,2.58889 3.2628,0 3.2628,0 1.0215,2.25 1.0215,2.25 1.8293,15.35216 1.8293,15.35217 -2.1211,1.64783 -2.1211,1.64784 -2.0954,6.29637 -2.0955,6.29637 1.1939,4.20363 1.194,4.20363 2.1594,2.5 2.1594,2.5 1.0807,4 c 1.7748,6.56841 3.2651,15.84208 3.2651,20.31681 l 0,4.19642 2.7218,2.24338 c 1.4969,1.23387 5.2094,4.74448 8.25,7.80137 l 5.5282,5.55798 5.2632,8.79043 5.2633,8.79042 1.574,6.6516 c 0.8657,3.65837 1.7324,8.85493 1.926,11.5479 0.1937,2.69298 0.8047,6.06798 1.3578,7.5 0.5532,1.43203 1.7617,5.40481 2.6854,8.82841 l 1.6797,6.22471 2.3753,3.21957 2.3753,3.21956 0,2.61863 0,2.61863 3.1006,2.93709 3.1007,2.93709 0.9839,2.5 0.9839,2.5 -0.016,7.34468 -0.016,7.34469 -1.2507,4.87996 -1.2507,4.87995 1.3489,2.52049 1.3489,2.52049 0.1903,4.75487 c 0.227,5.67167 2.7191,15.63682 4.4245,17.69164 l 1.217,1.46635 -1.2992,3.59278 -1.2992,3.59277 1.0338,1.63883 c 1.0775,1.70828 2.6868,2.75329 5.6501,3.66896 l 1.75,0.54077 0,3.89653 0,3.89652 1.8082,2.38486 c 1.5967,2.10589 8.1918,17.74784 8.1918,19.42902 0,0.35495 0.9355,3.72533 2.0789,7.48973 l 2.0789,6.84436 2.4211,2.61239 2.4211,2.6124 0,5.51422 0,5.51422 1.1926,2.18426 c 0.656,1.20134 1.523,4.20926 1.9268,6.68426 0.4038,2.475 1.5835,7.36251 2.6215,10.86113 l 1.8874,6.36113 5.2851,4.38887 5.285,4.38887 2.2254,0 2.2254,0 9.9254,3.57031 c 5.4589,1.96367 11.2754,4.06429 12.9254,4.66804 1.65,0.60375 5.925,2.64665 9.5,4.53979 l 6.5,3.44207 4.0579,3.90959 4.0579,3.90958 6.4421,0.61299 6.4421,0.61299 10,5.13129 10,5.13129 1.688,3.36724 c 0.9285,1.85198 3.096,5.11912 4.8167,7.2603 l 3.1285,3.89307 0.8555,9.22575 c 0.4705,5.0741 1.0872,12.4627 1.3704,16.4189 l 0.515,7.1932 -3.1871,1.0303 c -1.7529,0.5666 -5.1934,1.1547 -7.6455,1.3068 l -4.4585,0.2765 -2.4591,-3.75 -2.459,-3.75 -1.3472,0 -1.3471,0 -1.9816,3.25 -1.9816,3.25 0,5.1933 0,5.1933 -1.851,1.3067 c -2.5011,1.7655 -5.2355,7.2663 -6.5584,13.1931 l -1.0906,4.8863 -5.4173,1.386 -5.4173,1.3859 -5.5392,-1.6103 c -3.0466,-0.8856 -6.4589,-2.2574 -7.5827,-3.0484 l -2.0435,-1.4382 -0.045,-7.2238 C 914.101,946.7507 913.7285,940.575 913.2987,937 l -0.7815,-6.5 -2.5245,-5.2148 -2.5245,-5.2148 -1.9267,-0.6115 -1.9266,-0.6115 -1.722,-3.5915 -1.7219,-3.5915 -5.3909,-1.8192 -5.391,-1.8192 -2.609,1.2444 -2.6091,1.2444 -0.3008,2.5805 -0.3008,2.5806 4.4435,3.641 4.4434,3.6411 2.7112,4.6262 2.7111,4.6263 0.4855,3.1447 0.4855,3.1448 1.5291,1.7096 1.5292,1.7096 -0.055,3.9877 -0.055,3.9876 -1.0551,1.9715 -1.0551,1.9714 -2.9858,0.6558 -2.9859,0.6558 -2.1035,-0.6676 -2.1036,-0.6676 -2.855,-4.502 -2.8551,-4.5019 -3.3138,-1.8355 c -1.8227,-1.0096 -4.4231,-2.3424 -5.7788,-2.9619 l -2.4649,-1.1264 -6.7851,-6.8256 c -3.7319,-3.754 -6.7852,-7.2656 -6.7852,-7.8035 0,-0.5378 -1.0573,-2.536 -2.3496,-4.4403 -1.2923,-1.9043 -3.1428,-5.5392 -4.1122,-8.0776 l -1.7626,-4.6153 -4.6378,-3.9005 c -2.5508,-2.14529 -5.7628,-4.47715 -7.1378,-5.18191 -1.375,-0.70476 -3.85,-2.50423 -5.5,-3.99883 l -3,-2.71745 -4.6891,-1.72202 -4.6892,-1.72202 -4.5311,-4.66155 -4.5311,-4.66155 -0.9121,-2.52899 C 810.3168,874.63804 808.6469,868.775 807.1077,863 l -2.7986,-10.5 -2.2674,-4 -2.2674,-4 -0.6925,-4.33142 -0.6925,-4.33141 -4.2583,-2.06886 -4.2583,-2.06887 -2.8452,-5.82393 -2.8452,-5.82393 -2.7774,-0.61003 -2.7774,-0.61003 -1.4272,-3.41576 -1.4272,-3.41576 -2.0313,0 c -1.1171,0 -4.9723,-1.20781 -8.5669,-2.68401 l -6.5357,-2.68402 -1.4684,-4.9446 c -0.8076,-2.71952 -1.8631,-5.44922 -2.3454,-6.06598 -0.4824,-0.61677 -1.8832,-4.48504 -3.1128,-8.59617 -1.2296,-4.11112 -3.2785,-9.51112 -4.5531,-12 l -2.3174,-4.52522 -3.5459,-3.83239 c -1.9502,-2.10781 -4.9369,-5.93243 -6.637,-8.49916 l -3.0911,-4.66677 0.65,-2.00084 c 0.3576,-1.10046 1.1092,-8.63697 1.6703,-16.74781 l 1.0203,-14.74696 -2.4422,-5.25304 c -1.3433,-2.88916 -3.7304,-8.06748 -5.3048,-11.50737 l -2.8626,-6.25433 -3.564,-0.99009 c -1.9603,-0.54455 -3.9422,-0.9926 -4.4043,-0.99566 -0.4622,-0.003 -2.6168,-1.24308 -4.7881,-2.75558 l -3.9478,-2.75 -2.5346,-5.25 -2.5345,-5.25 -1.8913,0 -1.8913,0 -4.011,4.25 -4.0111,4.25 -1.6225,5 -1.6225,5 -2.2742,2 -2.2742,2 -1.7541,5.5 -1.754,5.5 -2.5408,3.4016 -2.5409,3.4016 -1.429,5.5984 c -0.7859,3.07912 -2.0547,8.36515 -2.8195,11.74673 -0.7648,3.38157 -1.8469,7.34837 -2.4045,8.81509 -0.5576,1.46673 -1.0139,3.99441 -1.0139,5.61706 l 0,2.95029 3.3902,5.23461 3.3902,5.23462 0.6187,4.95458 0.6187,4.95458 2.6782,2.79542 2.6782,2.79542 2.9685,0 2.9685,0 3.3479,-2.55352 3.3478,-2.55352 5.5884,-1.17219 5.5885,-1.17219 6.1581,3.25394 c 3.387,1.78967 6.5452,3.24124 7.0184,3.22571 0.4732,-0.0155 3.0826,1.41173 5.7986,3.17169 l 4.9383,3.19992 3.9776,5.82711 3.9775,5.82711 0.948,9.94955 0.948,9.94954 -0.8613,4.61061 -0.8614,4.6106 -1.1128,1.11282 c -0.612,0.61205 -1.1128,1.84181 -1.1128,2.7328 l 0,1.61998 -4.5,4.04361 -4.5,4.04361 0.07,5.38641 c 0.092,7.06247 0.3237,7.5241 7.9297,15.80731 3.575,3.89331 8.1177,8.99132 10.0949,11.32892 l 3.5949,4.25018 2.7829,6 c 1.5305,3.3 4.783,8.99691 7.2276,12.6598 l 4.4448,6.65979 2.4091,0.60466 2.4091,0.60465 3.4004,2.9855 3.4003,2.9856 1.368,0.01 c 0.7524,0 2.718,0.9198 4.368,2.036 1.65,1.1161 6.9192,4.0743 11.7093,6.5736 l 8.7094,4.5443 4.6051,4.6697 4.6051,4.6698 1.9559,3.75 1.9559,3.75 0.9807,0 c 0.5395,0 2.7309,1.8033 4.8698,4.0073 l 3.889,4.0074 0.6873,3.6637 0.6873,3.6638 2.9226,2.7301 2.9226,2.7301 0,1.5829 c 0,1.4153 1.9099,5.6259 7.5361,16.6147 0.9856,1.925 3.0975,5.0116 4.6931,6.859 l 2.9011,3.359 -0.7275,1.641 c -0.4002,0.9026 -1.0084,4.341 -1.3517,7.641 l -0.6242,6 -1.2134,2.1843 -1.2135,2.1842 0,3.0905 0,3.0905 2.5,0.9505 2.5,0.9505 0,1.8899 0,1.8899 -2.1132,2.6865 -2.1132,2.6865 0.4168,6.5459 0.4168,6.5459 2.1719,1.6525 2.1719,1.6524 2.0814,6 2.0814,6 0.5706,6.5407 0.5706,6.5408 -2.5295,7.4592 c -1.3912,4.1026 -3.2458,8.8093 -4.1213,10.4593 -0.8755,1.65 -1.5971,3.45 -1.6036,4 -0.01,0.55 -2.4842,4.0974 -5.5062,7.8831 -3.0219,3.7858 -5.4944,7.2629 -5.4944,7.727 0,0.4641 -1.1365,1.5885 -2.5256,2.4986 l -2.5256,1.6549 -2.0817,-1.8818 -2.0816,-1.8818 0.6244,-5.3216 0.6244,-5.3215 -1.9027,-2.6785 c -1.0466,-1.4731 -2.6063,-4.3659 -3.4662,-6.4284 l -1.5633,-3.75 -1.4791,0 -1.4791,0 -0.606,5.75 c -0.3333,3.1625 -1.0836,8.4409 -1.6675,11.7298 l -1.0614,5.9798 -1.7345,2.5202 c -0.954,1.3861 -2.7636,5.3267 -4.0214,8.7568 l -2.2869,6.2365 0.7417,5.7635 c 0.4079,3.1699 0.7511,9.8743 0.7625,14.8987 l 0.021,9.1354 -3.8572,4.6144 -3.8571,4.6144 -2.0385,0.6919 c -1.1211,0.3805 -2.829,0.5768 -3.7952,0.4362 l -1.7569,-0.2556 -0.651,1.6965 -0.651,1.6964 1.1579,1.854 1.1578,1.854 0,2.8392 0,2.8393 -2.25,1.9897 c -1.2375,1.0943 -3.4326,2.7222 -4.8781,3.6174 l -2.628,1.6278 -0.6758,3.602 -0.6757,3.6021 -2.6962,1.0285 c -1.4829,0.5657 -4.7212,1.2689 -7.1962,1.5626 l -4.5,0.5342 -4.2045,-1.1342 -4.2046,-1.1341 -2.9473,-2.48 -2.9473,-2.48 -1.3481,0.5083 -1.3482,0.5083 -3.25,-1.9873 -3.25,-1.9873 0,-2.3923 0,-2.3922 -1.3703,-1.1373 -1.3704,-1.1372 -0.5155,-3.8435 c -0.2835,-2.1139 -1.2898,-5.4753 -2.2362,-7.4697 l -1.7208,-3.6262 0.7135,-8.2655 c 0.3924,-4.546 0.7151,-11.7933 0.7171,-16.105 l 0,-7.8395 -1.1105,-1.1105 -1.1109,-1.1109 0,-4.3398 0,-4.3399 1.9945,-3.9095 1.9945,-3.9095 -0.9697,-2.5507 -0.9698,-2.5506 -4.1032,0 -4.1031,0 -3.7407,-3.7783 -3.7407,-3.7782 -2.0533,-4.4718 c -1.1293,-2.4594 -2.7857,-6.1745 -3.6809,-8.2556 l -1.6276,-3.784 -0.013,-7.216 -0.013,-7.2161 -1.9871,-6.3391 -1.9871,-6.3391 -0.032,-6.1609 -0.032,-6.1609 -1.3284,-1.75 c -0.7307,-0.9625 -1.6467,-1.75 -2.0356,-1.75 l -0.7072,0 0.5556,1.7505 0.5556,1.7504 -1.1476,5.9996 c -0.6311,3.2997 -1.2874,9.3745 -1.4584,13.4995 l -0.3108,7.5 1.08,12 1.0799,12 1.938,5.5134 1.9379,5.5133 3.4523,2.3656 3.4523,2.3655 0.1044,1.1211 c 0.057,0.6166 0.2062,2.6961 0.3308,4.6211 l 0.2264,3.5 2.7775,7 c 1.5275,3.85 3.4037,7.7104 4.1691,8.5787 l 1.3918,1.5788 0,1.6848 c 0,0.9267 0.3948,2.4662 0.8773,3.4213 1.4595,2.8891 3.1227,8.7468 3.1227,10.9984 l 0,2.12 1,0.618 1,0.618 0,2.882 0,2.882 0.8747,0.5405 0.8746,0.5406 0.5378,5.2684 c 0.2958,2.8977 1.058,8.1935 1.6938,11.7685 l 1.156,6.5 -0.7336,8 c -0.4034,4.4 -0.7909,10.25 -0.8611,13 l -0.1276,5 -2.6423,5.5 c -1.4533,3.025 -2.9717,6.8424 -3.3742,8.4831 l -0.7319,2.9832 -2.5831,2.8707 c -4.0533,4.5047 -8.375,8.8134 -13.3182,13.2783 l -4.5562,4.1154 0.5397,6.7234 0.5397,6.7235 -2.644,2.4516 -2.6441,2.4517 0,1.8553 0,1.8553 5.0561,3.2445 5.056,3.2444 2.5475,3.3399 2.5474,3.3399 -0.6905,7.2699 c -0.3798,3.9984 -1.5625,11.3199 -2.6283,16.2699 l -1.9378,9 -0.563,19.5 -0.563,19.5 -2.1622,6.3395 -2.1622,6.3395 -4.0704,3.6605 c -2.2388,2.0133 -5.5014,4.4272 -7.2504,5.3642 l -3.1799,1.7037 -1.1955,2.6239 -1.1956,2.624 1.0583,1.6724 1.0584,1.6723 2.8875,0.062 c 1.5882,0.034 4.5751,0.1468 6.6376,0.25 l 3.75,0.188 0,3.961 0,3.9611 -2.105,1.9611 c -1.1578,1.0787 -3.3509,2.4772 -4.8736,3.1079 l -2.7684,1.1468 -0.6398,4.6674 -0.6397,4.6675 2.0132,2.7231 2.0133,2.7231 0,1.621 0,1.6211 -3.3761,5.1694 -3.376,5.1695 -1.0917,9 c -0.6004,4.95 -1.5971,15.975 -2.2148,24.5 l -1.1233,15.5 -1.409,3.2839 c -0.775,1.8062 -1.4091,4.0168 -1.4091,4.9125 l 0,1.6285 -3.2166,5.0126 -3.2165,5.0126 -0.8732,5.5749 c -0.9933,6.3417 -1.0673,11.2153 -0.3413,22.4505 l 0.5089,7.8755 1.1907,2.8745 c 0.6549,1.581 1.5644,2.8745 2.0213,2.8745 0.4568,0 2.2239,2.025 3.9267,4.5 l 3.0961,4.5 3.4718,0 3.4718,0 4.2302,2.6439 c 2.3265,1.4541 5.9189,4.1541 7.983,6 l 3.7529,3.3561 1.5326,0 1.5327,0 1.8633,4.25 1.8633,4.25 4.589,4.2481 4.5891,4.2481 0.6549,4.096 0.655,4.0961 1.7658,1.6558 1.7658,1.6559 1.2752,6 c 0.7014,3.3 1.2942,7.8727 1.3175,10.1615 l 0.042,4.1616 -2.8641,6.3384 c -1.5753,3.4862 -3.239,7.2385 -3.6972,8.3385 -0.4581,1.1 -1.3041,7.3066 -1.88,13.7924 l -1.0471,11.7924 -1.1381,2.2076 c -2.3194,4.499 -2.8258,5.7052 -2.8258,6.7306 0,0.5776 -2.3308,3.9587 -5.1794,7.5136 l -5.1795,6.4634 -1.9162,0 -1.9162,0 -2.6543,1.8373 c -3.7218,2.5761 -5.7979,3.2688 -12.6544,4.2226 -3.3,0.4591 -8.25,1.3505 -11,1.981 l -5,1.1463 -10.5,0.474 -10.5,0.474 -6,-1.6877 c -3.3,-0.9283 -8.7,-2.033 -12,-2.455 -6.549,-0.8374 -8.7428,-1.5288 -12.4316,-3.9177 l -2.4316,-1.5748 -5.1882,-1 -5.1882,-1 -9.48,-8.7433 -9.48,-8.7433 -0.6333,-8.9226 -0.6334,-8.9226 -1.1364,-2.4943 -1.1365,-2.4943 1.5331,-2.1888 1.533,-2.1888 -1.0333,-2.9642 -1.0333,-2.9642 1.6865,-6.939 1.6866,-6.939 -0.6179,-1.9467 -0.6178,-1.9466 1.9984,-1.9984 1.9984,-1.9984 1.0804,-4.0124 1.0805,-4.0124 3.4723,-4.549 3.4723,-4.549 0,-2.3099 c 0,-3.0539 -2.8992,-12.7898 -4.352,-14.6148 l -1.148,-1.4419 1.25,0.751 1.25,0.7509 0,-2.059 0,-2.059 -2.4648,0 -2.4648,0 -1.1686,-2.1836 -1.1686,-2.1835 0.656,-8.5354 0.6561,-8.5354 2.2747,-2.531 2.2746,-2.5311 1.249,-3.6991 1.249,-3.699 -2.0463,-4.0111 -2.0463,-4.0111 0,-7.6556 0,-7.6557 1.6449,-5.1342 c 2.0654,-6.4468 2.8684,-8.3028 5.4088,-12.5021 1.1205,-1.8523 2.6853,-5.2273 3.4773,-7.5 l 1.4399,-4.1321 0.015,-3.3157 0.014,-3.3158 1.0045,-1.8769 1.0045,-1.877 -0.9967,-7.0275 -0.9966,-7.0274 1.2025,-2.6394 1.2026,-2.6394 -1.4741,-1.1404 c -0.8108,-0.6273 -2.1876,-2.2655 -3.0596,-3.6405 l -1.5854,-2.5 -0.7355,-4 -0.7355,-4 -1.2911,-1.5 -1.2912,-1.5 0.9539,-11 0.9539,-11 1.5784,-3.2483 1.5785,-3.2483 -1.7885,-1.9762 -1.7884,-1.9762 0.6367,-3.9815 0.6366,-3.9816 -1.6675,-3.7939 c -0.9172,-2.0867 -2.4496,-5.505 -3.4053,-7.5963 l -1.7376,-3.8023 0.5445,-6.1977 0.5444,-6.1977 1.356,-0.7997 1.356,-0.7997 0,-3.3913 0,-3.3913 -1.0754,-0.6646 -1.0755,-0.6647 0.642,-7.6443 0.642,-7.6444 1.5517,-5.1907 1.5516,-5.1906 -2.2649,-3.8094 -2.2649,-3.8093 -5.0707,-4.601 -5.0706,-4.6009 -0.5327,-8.8991 -0.5326,-8.899 -2.6768,-0.3094 -2.6769,-0.3093 -1.1956,-1.4407 -1.1956,-1.4406 -4.4422,0 -4.4422,0 -5.1853,-2.25 -5.1854,-2.25 -7,0.1207 c -3.85,0.066 -9.5646,0.4645 -12.6991,0.8847 l -5.699,0.7639 -3.301,2.7604 -3.3009,2.7604 0.058,7.4391 0.058,7.4392 2.6922,4.5939 2.6922,4.5938 0,2.869 0,2.869 -3.75,3.5461 c -2.0625,1.9503 -5.2125,4.5473 -7,5.771 l -3.25,2.225 0,2.4062 0,2.4062 -2.9504,1.5257 c -1.6227,0.8391 -3.7725,1.5257 -4.7775,1.5257 l -1.8271,0 -2.1805,-1.5273 -2.1804,-1.5272 -3.7921,0.17 -3.792,0.17 -8.4623,-3.6427 c -4.6543,-2.0036 -9.0597,-3.6428 -9.7898,-3.6428 -0.7302,0 -3.2136,-0.9621 -5.5187,-2.1381 l -4.191,-2.1381 -7.089,-7.1119 c -3.899,-3.9115 -7.7326,-7.7077 -8.5191,-8.4359 -0.7866,-0.7282 -2.8165,-2.7532 -4.5111,-4.5 l -3.0809,-3.176 -3.122,-6.5272 -3.1221,-6.5271 -3.297,-2.4729 -3.297,-2.4728 -6.9418,0 -6.9419,0 -2.1876,-3.219 c -1.2032,-1.7704 -4.2668,-5.5316 -6.8082,-8.3581 l -4.6205,-5.1392 0,6.3723 0,6.3722 -1.9803,5.418 -1.9804,5.418 -3.2605,3.3641 c -1.7934,1.8502 -5.1747,4.4857 -7.5141,5.8567 l -4.2536,2.4928 -1.4323,2.7698 -1.4323,2.7699 0.8112,6.541 0.8112,6.5411 1.1205,2.0938 1.1206,2.0938 0.1464,3.8064 0.1463,3.8064 -2.2844,4.5 c -1.2564,2.475 -3.6871,6.2816 -5.4014,8.4591 l -3.1169,3.9591 -0.1381,12.6241 -0.138,12.6241 -1.612,3.1171 -1.6119,3.1172 0,2.2996 0,2.2997 -2.0266,3.3241 c -1.1146,1.8282 -3.1597,4.3032 -4.5445,5.5 l -2.5179,2.1759 -0.013,8.2462 -0.013,8.2462 0.656,1.0615 0.6561,1.0615 -2.6089,3.9423 -2.6089,3.9423 -1.4139,0 -1.414,0 -1.9443,5.25 c -1.0694,2.8875 -2.2785,6.375 -2.6868,7.75 -0.4084,1.375 -1.5462,3.4 -2.5286,4.5 -0.9824,1.1 -3.4197,5.1013 -5.4162,8.8918 l -3.6301,6.8918 -3.8982,3.6082 -3.8982,3.6082 -2.0323,6 c -1.1177,3.3 -2.3339,7.9241 -2.7026,10.2759 l -0.6703,4.2758 -2.7524,1.9599 -2.7525,1.96 -0.4935,2.7642 c -0.9576,5.3645 -6.6669,24.8517 -9.3062,31.7642 l -2.6726,7 -0.9624,6 c -0.5294,3.3 -1.4259,7.6231 -1.9923,9.6069 l -1.0298,3.6068 0.587,1.8932 c 0.3229,1.0412 1.0575,9.853 1.6326,19.5818 0.5751,9.7288 1.6352,21.6538 2.356,26.5 l 1.3104,8.8113 5.5743,11.5 c 3.0659,6.325 5.8113,12.625 6.1009,14 0.2896,1.375 1.044,4.525 1.6766,7 l 1.1501,4.5 -0.6884,9.4352 c -0.3786,5.1894 -1.0348,10.1394 -1.4583,11 -0.4236,0.8607 -1.32,3.3648 -1.9921,5.5648 l -1.222,4 -5.2711,5.0837 -5.2711,5.0838 -4.605,1.2893 -4.6051,1.2893 -2.2746,-0.697 c -1.251,-0.3833 -5.6496,-1.1177 -9.7746,-1.632 -21.8756,-2.7273 -24.2964,-3.1465 -28.5,-4.9349 -3.5219,-1.4984 -13.5861,-2.2798 -29.5,-2.2905 l -15.5,-0.01 -8.5,1.2277 c -4.675,0.6752 -10.525,1.4454 -13,1.7115 -2.475,0.2662 -5.4,0.8765 -6.5,1.3564 -1.1,0.4798 -3.125,1.1215 -4.5,1.426 -8.0002,1.7714 -20.4038,4.5947 -26.312,5.9893 l -6.8121,1.6078 -3.6879,-0.07 c -2.0279,-0.039 -4.5875,-0.4577 -5.6875,-0.9304 z m 457.1042,-172.7292 -0.6042,-0.6041 0.079,1.9166 0.079,1.9167 0.5252,-1.3125 0.5252,-1.3125 -0.6041,-0.6042 z m -343.7878,-166.9437 -0.3164,-2.6729 -1.1227,-0.368 -1.1227,-0.368 -0.4645,1.7909 c -0.2555,0.985 -0.2753,2.3534 -0.044,3.0409 l 0.4206,1.25 1.4831,0 1.483,0 -0.3164,-2.6729 z m 509.1836,-184.8861 0,-2.559 -1,0.618 -1,0.618 0,1.941 0,1.941 1,0 1,0 0,-2.559 z m 31.4623,-122.0462 0.6855,-5.1052 -1.5658,-3.7477 -1.5659,-3.7476 0.027,-2.6472 c 0.015,-1.4559 0.197,-6.9221 0.4046,-12.1471 l 0.3774,-9.5 1.9419,-5.0881 1.942,-5.088 -0.7607,-5.6055 c -0.8689,-6.4033 -0.5566,-5.7817 -7.9025,-15.7267 l -5.546,-7.5082 -5.5966,-5.2418 C 775.4868,954.3588 772.4797,952 771.8824,952 l -1.086,0 -0.5794,1.8255 c -0.3187,1.0041 -0.5597,5.3916 -0.5357,9.75 0.024,4.3585 0,10.7563 -0.043,14.2173 l -0.087,6.2928 2.0021,3.2394 2.002,3.2394 1.1133,4.9677 1.1133,4.9676 4.5662,9.0002 c 2.5114,4.95 5.4093,10.1946 6.4397,11.6545 l 1.8736,2.6543 0,7.0957 0,7.0956 0.7641,0 c 0.4202,0 1.5858,1.8966 2.5901,4.2148 l 1.8259,4.2147 0.7983,-1.4647 c 0.4391,-0.8057 1.1069,-3.7621 1.4839,-6.57 z M 49.4618,928.8 l 1.2,-1.2 0,-1.741 0,-1.741 -1.0871,-0.6719 -1.0872,-0.6718 -0.8421,0.8628 c -0.4631,0.4746 -1.1477,2.1004 -1.5212,3.6129 l -0.6792,2.75 1.4084,0 c 0.7746,0 1.9484,-0.54 2.6084,-1.2 z m 455.5247,-587.45799 0.658,-0.65799 -1.1138,-1.34201 -1.1138,-1.34201 -1.8775,0 c -2.075,0 -2.1464,0.13596 -1.2706,2.41821 l 0.607,1.58179 1.7263,0 c 0.9495,0 2.0225,-0.2961 2.3844,-0.65799 z M 806.6618,265 l 0,-1 -1.559,0 -1.559,0 0.618,1 c 0.3399,0.55 1.0415,1 1.559,1 0.5176,0 0.941,-0.45 0.941,-1 z"
     id="path2989"
     inkscape:connector-curvature="0" />
</svg>
