<?xml version="1.0" encoding="UTF-8" standalone="no"?>
<!-- Created with Inkscape (http://www.inkscape.org/) -->

<svg
   xmlns:dc="http://purl.org/dc/elements/1.1/"
   xmlns:cc="http://creativecommons.org/ns#"
   xmlns:rdf="http://www.w3.org/1999/02/22-rdf-syntax-ns#"
   xmlns:svg="http://www.w3.org/2000/svg"
   xmlns="http://www.w3.org/2000/svg"
   xmlns:sodipodi="http://sodipodi.sourceforge.net/DTD/sodipodi-0.dtd"
   xmlns:inkscape="http://www.inkscape.org/namespaces/inkscape"
   id="svg2"
   version="1.1"
   inkscape:version="0.48.2 r9819"
   width="1078"
   height="1924"
   sodipodi:docname="lartdurireetdel00alex_0219e.png">
  <metadata
     id="metadata8">
    <rdf:RDF>
      <cc:Work
         rdf:about="">
        <dc:format>image/svg+xml</dc:format>
        <dc:type
           rdf:resource="http://purl.org/dc/dcmitype/StillImage" />
        <dc:title></dc:title>
      </cc:Work>
    </rdf:RDF>
  </metadata>
  <defs
     id="defs6" />
  <sodipodi:namedview
     pagecolor="#ffffff"
     bordercolor="#666666"
     borderopacity="1"
     objecttolerance="10"
     gridtolerance="10"
     guidetolerance="10"
     inkscape:pageopacity="0"
     inkscape:pageshadow="2"
     inkscape:window-width="1600"
     inkscape:window-height="876"
     id="namedview4"
     showgrid="false"
     fit-margin-top="0"
     fit-margin-left="0"
     fit-margin-right="0"
     fit-margin-bottom="0"
     inkscape:zoom="0.5"
     inkscape:cx="213"
     inkscape:cy="1392.6875"
     inkscape:window-x="0"
     inkscape:window-y="24"
     inkscape:window-maximized="1"
     inkscape:current-layer="svg2" />
  <path
     style="fill:#000000"
     d="m 948,1923 c 0,-0.55 -1.8,-1 -4,-1 -2.2,0 -4,-0.45 -4,-1 0,-0.554 -2.6389,-1 -5.9167,-1 -3.7555,0 -6.1297,-0.4566 -6.5,-1.25 -0.4666,-1 -0.7,-1 -1.1666,0 -0.6895,1.4774 -8.4167,1.707 -8.4167,0.25 0,-1.5392 -17.6938,-1.299 -18.4167,0.25 -0.4666,1 -0.7,1 -1.1666,0 -0.3211,-0.6879 -2.3445,-1.25 -4.5,-1.25 -2.1542,0 -3.9167,-0.45 -3.9167,-1 0,-0.55 -0.7071,-1 -1.5714,-1 -2.0211,0 -4.4286,-2.4075 -4.4286,-4.4286 0,-0.8643 -0.45,-1.5714 -1,-1.5714 -0.55,0 -1,-0.9 -1,-2 0,-1.1 -0.45,-2 -1,-2 -0.5556,0 -1,-2.6667 -1,-6 0,-3.3333 -0.4444,-6 -1,-6 -0.55,0 -1,-0.8007 -1,-1.7792 0,-0.9786 -0.9,-2.428 -2,-3.2208 -1.1,-0.7928 -2,-2.0525 -2,-2.7992 0,-0.7467 -1.8,-3.087 -4,-5.2008 -2.2,-2.1138 -4,-4.5535 -4,-5.4216 0,-0.8681 -0.45,-1.5784 -1,-1.5784 -0.55,0 -1,-0.9 -1,-2 0,-1.1 -0.45,-2 -1,-2 -0.55,0 -1,-0.9 -1,-2 0,-1.1 -0.45,-2 -1,-2 -0.55,0 -1,-0.9 -1,-2 0,-1.1 -0.45,-2 -1,-2 -0.55,0 -1,-0.9 -1,-2 0,-1.1 -0.45,-2 -1,-2 -0.55,0 -1,-1.8 -1,-4 0,-2.2 -0.45,-4 -1,-4 -0.55,0 -1,-0.9 -1,-2 0,-1.1 -0.45,-2 -1,-2 -0.55,0 -1,-0.8007 -1,-1.7792 0,-0.9786 -0.9,-2.428 -2,-3.2208 -1.1,-0.7928 -2,-2.2422 -2,-3.2208 0,-0.9785 -0.45,-1.7792 -1,-1.7792 -0.55,0 -1,-1.35 -1,-3 0,-1.65 -0.45,-3 -1,-3 -0.55,0 -1,-0.7103 -1,-1.5784 0,-0.8681 -1.8,-3.3078 -4,-5.4216 -2.2,-2.1138 -4,-4.3435 -4,-4.9549 0,-1.6708 -6.7083,-8.0451 -8.4667,-8.0451 -0.8433,0 -1.5333,-0.8007 -1.5333,-1.7792 0,-0.9786 -0.9,-2.428 -2,-3.2208 -1.1,-0.7928 -2,-2.1428 -2,-3 0,-0.8572 -0.9,-2.2072 -2,-3 -1.1,-0.7928 -2,-2.1428 -2,-3 0,-0.8572 -0.9,-2.2072 -2,-3 -1.1,-0.7928 -2,-2.0616 -2,-2.8195 0,-0.758 -1.35,-2.6392 -3,-4.1805 -1.65,-1.5413 -3,-3.4225 -3,-4.1805 0,-0.7579 -0.9,-2.0267 -2,-2.8195 -1.1,-0.7928 -2,-2.2422 -2,-3.2208 0,-0.9785 -0.45,-1.7792 -1,-1.7792 -0.55,0 -1,-0.9 -1,-2 0,-1.1 -0.45,-2 -1,-2 -0.55,0 -1,-1.35 -1,-3 0,-1.65 -0.45,-3 -1,-3 -0.55,0 -1,-1.35 -1,-3 0,-1.65 -0.45,-3 -1,-3 -0.55,0 -1,-0.9 -1,-2 0,-1.1 -0.45,-2 -1,-2 -0.55,0 -1,-0.9 -1,-2 0,-1.1 -0.45,-2 -1,-2 -0.55,0 -1,-0.9 -1,-2 0,-1.1 -0.45,-2 -1,-2 -0.625,0 -1,-6 -1,-16 0,-10 0.375,-16 1,-16 0.6154,0 1,-5 1,-13 0,-8 0.3846,-13 1,-13 0.55,0 1,-2.25 1,-5 0,-2.75 0.45,-5 1,-5 0.55,0 1,-1.8 1,-4 0,-2.2 0.45,-4 1,-4 0.5714,0 1,-3 1,-7 0,-4 0.4286,-7 1,-7 0.55,0 1,-1.35 1,-3 0,-1.65 0.45,-3 1,-3 0.55,0 1,-0.9 1,-2 0,-1.1 0.45,-2 1,-2 0.55,0 1,-0.9 1,-2 0,-1.1 0.45,-2 1,-2 0.55,0 1,-1.35 1,-3 0,-1.65 0.45,-3 1,-3 0.55,0 1,-1.35 1,-3 0,-1.65 0.45,-3 1,-3 0.55,0 1,-0.9 1,-2 0,-1.1 0.45,-2 1,-2 0.55,0 1,-1.35 1,-3 0,-1.65 0.45,-3 1,-3 0.5714,0 1,-3 1,-7 0,-4 0.4286,-7 1,-7 0.55,0 1,-2.25 1,-5 0,-2.75 0.45,-5 1,-5 0.5714,0 1,-3 1,-7 0,-4 0.4286,-7 1,-7 0.55,0 1,-2.25 1,-5 0,-2.75 0.45,-5 1,-5 0.55,0 1,-1.35 1,-3 0,-1.65 0.45,-3 1,-3 0.55,0 1,-1.8 1,-4 0,-2.2 0.45,-4 1,-4 0.55,0 1,-2.25 1,-5 0,-2.75 0.45,-5 1,-5 0.55,0 1,-1.8 1,-4 0,-2.2 0.45,-4 1,-4 1.4435,0 1.2326,-3.7248 -0.25,-4.4167 -1,-0.4666 -1,-0.7 0,-1.1666 0.6879,-0.3211 1.25,-2.3445 1.25,-4.5 0,-2.1542 0.45,-3.9167 1,-3.9167 0.55,0 1,-1.35 1,-3 0,-1.65 0.45,-3 1,-3 0.55,0 1,-2.25 1,-5 0,-2.75 0.45,-5 1,-5 0.55,0 1,-2.25 1,-5 0,-2.75 -0.45,-5 -1,-5 -0.55,0 -1,-1.8 -1,-4 0,-2.2 -0.45,-4 -1,-4 -0.55,0 -1,-1.35 -1,-3 0,-1.65 -0.45,-3 -1,-3 -0.5714,0 -1,-3 -1,-7 0,-4 -0.4286,-7 -1,-7 -0.55,0 -1,-1.35 -1,-3 0,-1.65 -0.45,-3 -1,-3 -0.55,0 -1,-0.9 -1,-2 0,-1.1 -0.45,-2 -1,-2 -0.55,0 -1,-2.25 -1,-5 0,-2.75 -0.45,-5 -1,-5 -0.55,0 -1,-0.9 -1,-2 0,-1.1 -0.45,-2 -1,-2 -0.55,0 -1,-1.8 -1,-4 0,-2.2 -0.45,-4 -1,-4 -0.55,0 -1,-0.9 -1,-2 0,-1.1 -0.45,-2 -1,-2 -0.5556,0 -1,-2.6667 -1,-6 0,-3.3333 -0.4444,-6 -1,-6 -0.55,0 -1,-1.8 -1,-4 0,-2.2 -0.45,-4 -1,-4 -0.55,0 -1,-1.35 -1,-3 0,-1.65 -0.45,-3 -1,-3 -0.55,0 -1,-2.25 -1,-5 0,-2.75 -0.45,-5 -1,-5 -0.5556,0 -1,-2.6667 -1,-6 0,-3.3333 -0.4444,-6 -1,-6 -0.55,0 -1,-1.35 -1,-3 0,-1.65 -0.45,-3 -1,-3 -0.55,0 -1,-0.9 -1,-2 0,-1.1 -0.45,-2 -1,-2 -0.55,0 -1,-0.9 -1,-2 0,-1.1 -0.45,-2 -1,-2 -0.55,0 -1,-0.9 -1,-2 0,-1.1 -0.45,-2 -1,-2 -0.55,0 -1,-0.9 -1,-2 0,-1.1 -0.45,-2 -1,-2 -0.55,0 -1,-1.35 -1,-3 0,-1.65 -0.45,-3 -1,-3 -0.55,0 -1,-1.35 -1,-3 0,-1.65 -0.45,-3 -1,-3 -0.55,0 -1,-0.9 -1,-2 0,-1.1 -0.45,-2 -1,-2 -0.55,0 -1,-0.9 -1,-2 0,-1.1 -0.45,-2 -1,-2 -0.55,0 -1,-1.8 -1,-4 0,-2.2 -0.45,-4 -1,-4 -0.55,0 -1,-0.9 -1,-2 0,-1.1 -0.45,-2 -1,-2 -0.55,0 -1,-0.8007 -1,-1.7792 0,-0.9786 -0.9,-2.428 -2,-3.2208 -1.1,-0.7928 -2,-2.2422 -2,-3.2208 0,-0.9785 -0.45,-1.7792 -1,-1.7792 -0.55,0 -1,-0.8007 -1,-1.7792 0,-0.9786 -0.9,-2.428 -2,-3.2208 -1.1745,-0.8465 -2,-2.5887 -2,-4.2208 0,-1.5285 -0.45,-2.7792 -1,-2.7792 -0.55,0 -1,-0.9 -1,-2 0,-1.1 -0.45,-2 -1,-2 -0.55,0 -1,-0.8007 -1,-1.7792 0,-0.9786 -0.9,-2.428 -2,-3.2208 -1.1,-0.7928 -2,-2.2422 -2,-3.2208 0,-0.9785 -0.45,-1.7792 -1,-1.7792 -0.55,0 -1,-0.8007 -1,-1.7792 0,-0.9786 -0.9,-2.428 -2,-3.2208 -1.1,-0.7928 -2,-2.2422 -2,-3.2208 0,-0.9785 -0.45,-1.7792 -1,-1.7792 -0.55,0 -1,-0.9 -1,-2 0,-1.1 -0.45,-2 -1,-2 -0.55,0 -1,-1.35 -1,-3 0,-1.65 -0.45,-3 -1,-3 -0.55,0 -1,-0.9 -1,-2 0,-1.1 -0.45,-2 -1,-2 -0.55,0 -1,-0.9 -1,-2 0,-1.1 -0.45,-2 -1,-2 -0.55,0 -1,-0.9 -1,-2 0,-1.1 -0.45,-2 -1,-2 -0.55,0 -1,-0.9 -1,-2 0,-1.1 -0.45,-2 -1,-2 -0.55,0 -1,-0.7195 -1,-1.5988 0,-0.8793 -1.35,-2.8599 -3,-4.4012 -1.65,-1.5413 -3,-3.5219 -3,-4.4012 0,-0.8793 -0.45,-1.5988 -1,-1.5988 -0.55,0 -1,-1.2507 -1,-2.7792 0,-1.6321 -0.8255,-3.3743 -2,-4.2208 -1.1,-0.7928 -2,-2.1428 -2,-3 0,-0.8572 -0.9,-2.2072 -2,-3 -1.1745,-0.8465 -2,-2.5887 -2,-4.2208 0,-1.5285 -0.45,-2.7792 -1,-2.7792 -0.55,0 -1,-0.8007 -1,-1.7792 0,-0.9786 -0.9,-2.428 -2,-3.2208 -1.1,-0.7928 -2,-2.0376 -2,-2.7662 0,-1.8253 -4.5647,-6.2338 -6.4545,-6.2338 -0.85,0 -1.5455,-0.8007 -1.5455,-1.7792 0,-0.9786 -0.9,-2.428 -2,-3.2208 -1.1,-0.7928 -2,-2.4822 -2,-3.7541 0,-1.312 -1.5226,-3.8352 -3.519,-5.8316 -3.108,-3.1079 -3.6921,-3.346 -5,-2.0381 -0.8146,0.8145 -1.481,2.1881 -1.481,3.0524 0,0.8643 -0.45,1.5714 -1,1.5714 -0.55,0 -1,1.8 -1,4 0,2.2 -0.45,4 -1,4 -0.55,0 -1,0.9 -1,2 0,1.1515 -0.6667,2 -1.5714,2 -2.0211,0 -4.4286,2.4075 -4.4286,4.4286 0,0.8643 -0.45,1.5714 -1,1.5714 -0.55,0 -1,0.9 -1,2 0,1.1 -0.45,2 -1,2 -0.55,0 -1,1.35 -1,3 0,1.65 -0.45,3 -1,3 -0.55,0 -1,0.7103 -1,1.5784 0,0.8681 -1.8,3.3078 -4,5.4216 -2.2,2.1138 -4,4.5535 -4,5.4216 0,0.8681 -0.45,1.5784 -1,1.5784 -0.55,0 -1,0.8007 -1,1.7792 0,0.9786 -0.9,2.428 -2,3.2208 -1.1,0.7928 -2,2.0525 -2,2.7992 0,0.7467 -1.8,3.087 -4,5.2008 -2.2,2.1138 -4,4.5535 -4,5.4216 0,0.8681 -0.45,1.5784 -1,1.5784 -0.55,0 -1,0.7195 -1,1.5988 0,0.8793 -1.35,2.8599 -3,4.4012 -1.65,1.5413 -3,3.3413 -3,4 0,0.6587 -1.35,2.4587 -3,4 -1.65,1.5413 -3,3.3413 -3,4 0,0.6587 -1.35,2.4587 -3,4 -1.65,1.5413 -3,3.4225 -3,4.1805 0,0.7579 -0.9,2.0267 -2,2.8195 -1.1,0.7928 -2,2.0616 -2,2.8195 0,0.758 -1.35,2.6392 -3,4.1805 -1.65,1.5413 -3,3.4225 -3,4.1805 0,0.7579 -0.9,2.0267 -2,2.8195 -1.1,0.7928 -2,2.0464 -2,2.7857 0,0.7393 -2.25,3.5357 -5,6.2143 -2.75,2.6786 -5,5.3743 -5,5.9905 0,0.6161 -2.7,3.7704 -6,7.0095 -3.3,3.2391 -6,6.4898 -6,7.2239 0,0.734 -0.9,1.9833 -2,2.7761 -1.1,0.7928 -2,2.0345 -2,2.7592 0,0.7247 -4.05,5.333 -9,10.2408 -4.95,4.9078 -9,9.4349 -9,10.0604 0,0.6254 -1.35,2.3983 -3,3.9396 -1.65,1.5413 -3,3.4225 -3,4.1805 0,0.7579 -0.9,2.0267 -2,2.8195 -1.1,0.7928 -2,2.1428 -2,3 0,0.8572 -0.9,2.2072 -2,3 -1.1,0.7928 -2,2.029 -2,2.7471 0,1.5642 -8.49062,10.2529 -10.01914,10.2529 -1.52038,0 -5.98086,4.6491 -5.98086,6.2338 0,0.7286 -0.9,1.9734 -2,2.7662 -1.1,0.7928 -2,2.2422 -2,3.2208 0,1.2443 -0.77302,1.7792 -2.57143,1.7792 -2.67339,0 -5.42857,2.0268 -5.42857,3.9935 0,0.625 -2.25,3.3279 -5,6.0065 -2.75,2.6786 -5,5.5744 -5,6.4351 0,0.8607 -0.45,1.5649 -1,1.5649 -0.55,0 -1,1.1695 -1,2.5988 0,1.5981 -1.15516,3.6779 -3,5.4012 -1.65,1.5413 -3,3.5219 -3,4.4012 0,0.8793 -0.45,1.5988 -1,1.5988 -0.55,0 -1,0.8007 -1,1.7792 0,0.9786 -0.9,2.428 -2,3.2208 -1.1,0.7928 -2,2.0616 -2,2.8195 0,0.758 -1.35,2.6392 -3,4.1805 -1.65,1.5413 -3,3.4225 -3,4.1805 0,0.7579 -0.9,2.0267 -2,2.8195 -1.17447,0.8465 -2,2.5887 -2,4.2208 0,1.5285 -0.45,2.7792 -1,2.7792 -0.55,0 -1,1.35 -1,3 0,1.65 -0.45,3 -1,3 -0.55556,0 -1,2.6667 -1,6 0,3.3333 -0.44444,6 -1,6 -0.57143,0 -1,3 -1,7 0,4 -0.42857,7 -1,7 -0.55,0 -1,1.8 -1,4 0,2.2 -0.45,4 -1,4 -0.55,0 -1,1.8 -1,4 0,2.2 -0.45,4 -1,4 -0.55556,0 -1,2.6667 -1,6 0,3.3333 -0.44444,6 -1,6 -0.55,0 -1,1.35 -1,3 0,1.65 -0.45,3 -1,3 -0.55,0 -1,1.8 -1,4 0,2.2 -0.45,4 -1,4 -0.55,0 -1,1.35 -1,3 0,1.65 -0.45,3 -1,3 -0.55,0 -1,1.35 -1,3 0,1.65 -0.45,3 -1,3 -0.55,0 -1,1.8 -1,4 0,2.2 -0.45,4 -1,4 -0.55,0 -1,1.8 -1,4 0,2.2 -0.45,4 -1,4 -0.55,0 -1,2.25 -1,5 0,2.75 -0.45,5 -1,5 -0.55,0 -1,1.35 -1,3 0,1.65 -0.45,3 -1,3 -0.55,0 -1,1.35 -1,3 0,1.65 -0.45,3 -1,3 -0.55,0 -1,1.35 -1,3 0,1.65 -0.45,3 -1,3 -0.55,0 -1,1.8 -1,4 0,2.2 -0.45,4 -1,4 -0.55556,0 -1,2.6667 -1,6 0,3.3333 -0.44444,6 -1,6 -0.55,0 -1,1.8 -1,4 0,2.2 -0.45,4 -1,4 -0.55,0 -1,0.9 -1,2 0,1.1 -0.45,2 -1,2 -0.55,0 -1,0.9 -1,2 0,1.1 -0.45,2 -1,2 -0.55,0 -1,0.9 -1,2 0,1.1 -0.45,2 -1,2 -0.55,0 -1,1.8 -1,4 0,2.2 -0.45,4 -1,4 -0.55,0 -1,1.35 -1,3 0,1.65 -0.45,3 -1,3 -0.55,0 -1,1.8 -1,4 0,2.2 -0.45,4 -1,4 -0.55,0 -1,1.35 -1,3 0,1.65 -0.45,3 -1,3 -0.55,0 -1,1.35 -1,3 0,1.65 -0.45,3 -1,3 -0.55,0 -1,0.9 -1,2 0,1.1 -0.45,2 -1,2 -0.55,0 -1,0.9 -1,2 0,1.1 -0.45,2 -1,2 -0.55,0 -1,1.7007 -1,3.7792 0,2.6321 -0.60709,4.2168 -2,5.2208 -1.1,0.7928 -2,2.2422 -2,3.2208 0,0.9785 -0.45,1.7792 -1,1.7792 -0.55,0 -1,1.2507 -1,2.7792 0,1.6321 -0.82553,3.3743 -2,4.2208 -1.1,0.7928 -2,2.1428 -2,3 0,0.8572 -0.9,2.2072 -2,3 -1.1,0.7928 -2,2.2422 -2,3.2208 0,0.9785 -0.45,1.7792 -1,1.7792 -0.55,0 -1,1.8 -1,4 0,2.9697 -0.40476,4 -1.57143,4 -2.02104,0 -4.42857,2.4075 -4.42857,4.4286 0,0.8643 -0.45,1.5714 -1,1.5714 -0.55,0 -1,0.9 -1,2 0,1.1 -0.45,2 -1,2 -0.55,0 -1,0.9 -1,2 0,1.1 -0.45,2 -1,2 -0.55,0 -1,0.9 -1,2 0,1.1 -0.45,2 -1,2 -0.55,0 -1,0.7195 -1,1.5988 0,0.8793 -1.35,2.8599 -3,4.4012 -1.65,1.5413 -3,3.5219 -3,4.4012 0,0.8793 -0.45,1.5988 -1,1.5988 -0.55,0 -1,0.9 -1,2 0,1.1 -0.45,2 -1,2 -0.55,0 -1,0.8007 -1,1.7792 0,0.9786 -0.9,2.428 -2,3.2208 -1.17447,0.8465 -2,2.5887 -2,4.2208 0,1.5285 -0.45,2.7792 -1,2.7792 -0.55,0 -1,0.8007 -1,1.7792 0,0.9786 -0.9,2.428 -2,3.2208 -1.1,0.7928 -2,2.2422 -2,3.2208 0,0.9785 -0.45,1.7792 -1,1.7792 -0.55,0 -1,0.9 -1,2 0,1.1 -0.45,2 -1,2 -0.55,0 -1,0.9 -1,2 0,1.1 -0.45,2 -1,2 -0.55,0 -1,1.2507 -1,2.7792 0,1.6321 -0.82553,3.3743 -2,4.2208 -1.1,0.7928 -2,2.2422 -2,3.2208 0,0.9785 -0.45,1.7792 -1,1.7792 -0.55,0 -1,0.8007 -1,1.7792 0,0.9786 -0.9,2.428 -2,3.2208 -1.51994,1.0955 -2,2.5887 -2,6.2208 0,2.6285 -0.45,4.7792 -1,4.7792 -0.55,0 -1,0.8007 -1,1.7792 0,0.9786 -0.9,2.428 -2,3.2208 -1.1,0.7928 -2,2.0376 -2,2.7662 0,1.6055 -4.46918,6.2338 -6.01947,6.2338 -0.61071,0 -3.30195,2.25 -5.98053,5 -3.34539,3.4346 -5.67319,5 -7.43508,5 -1.4107,0 -2.56492,0.45 -2.56492,1 0,0.55 -1.35,1 -3,1 -1.65,0 -3,0.45 -3,1 0,0.581 -3.25975,1 -7.77924,1 -6.63207,0 -7.99182,-0.2949 -9.22076,-2 -0.79284,-1.1 -2.24218,-2 -3.22076,-2 -0.97858,0 -1.77924,-0.45 -1.77924,-1 0,-0.55 -1.8,-1 -4,-1 -2.2,0 -4,-0.45 -4,-1 0,-0.5556 -2.66667,-1 -6,-1 -3.33333,0 -6,-0.4444 -6,-1 0,-0.55 -1.8,-1 -4,-1 -2.2,0 -4,-0.45 -4,-1 0,-0.55 -2.25,-1 -5,-1 -2.75,0 -5,-0.45 -5,-1 0,-0.55 -1.35,-1 -3,-1 -1.65,0 -3,-0.45 -3,-1 0,-0.55 -1.8,-1 -4,-1 -2.2,0 -4,-0.45 -4,-1 0,-0.5926 -3.66667,-1 -9,-1 -5.33333,0 -9,-0.4074 -9,-1 0,-0.55 -2.25,-1 -5,-1 -2.75,0 -5,-0.45 -5,-1 0,-0.55 -1.8,-1 -4,-1 -2.2,0 -4,-0.45 -4,-1 0,-1.5533 -21.68798,-1.3115 -22.41667,0.25 -0.46666,1 -0.7,1 -1.16666,0 -0.43791,-0.9384 -5.52778,-1.25 -20.41667,-1.25 -14.88889,0 -19.97876,0.3116 -20.41667,1.25 -0.46666,1 -0.7,1 -1.16666,0 C 173.71732,1813.7514 164,1813.5182 164,1815 c 0,0.5714 -3,1 -7,1 -4,0 -7,0.4286 -7,1 0,0.55 -1.35,1 -3,1 -1.65,0 -3,0.45 -3,1 0,0.55 -1.35,1 -3,1 -1.65,0 -3,0.45 -3,1 0,1.4994 -11.71029,1.2637 -12.41667,-0.25 -0.46666,-1 -0.7,-1 -1.16666,0 -0.69027,1.4791 -6.41667,1.7022 -6.41667,0.25 0,-0.55 -2.25,-1 -5,-1 -2.75,0 -5,-0.45 -5,-1 0,-0.5833 -3.33333,-1 -8,-1 -4.66667,0 -8,-0.4167 -8,-1 0,-0.554 -2.63889,-1 -5.91667,-1 -3.79616,0 -6.09844,-0.448 -6.42387,-1.25 -0.38294,-0.9438 -0.7895,-0.8825 -1.65946,0.25 -0.86996,1.1325 -1.27652,1.1938 -1.65946,0.25 C 76.00434,1814.4214 73.52949,1814 69,1814 c -4.48889,0 -7.03347,0.4289 -7.41667,1.25 -0.46666,1 -0.7,1 -1.16666,0 -0.32084,-0.6875 -1.44584,-1.25 -2.5,-1.25 C 56.8625,1814 56,1813.55 56,1813 c 0,-0.55 -1.35,-1 -3,-1 -1.65,0 -3,-0.45 -3,-1 0,-0.55 -2.25,-1 -5,-1 -2.75,0 -5,-0.45 -5,-1 0,-0.5926 -3.66667,-1 -9,-1 -5.33333,0 -9,-0.4074 -9,-1 0,-0.55 -1.35,-1 -3,-1 -1.65,0 -3,-0.45 -3,-1 0,-1.4522 -5.7264,-1.2291 -6.41667,0.25 -0.46666,1 -0.7,1 -1.16666,0 -0.32084,-0.6875 -1.44584,-1.25 -2.5,-1.25 C 4.8625,1804 4,1803.55 4,1803 c 0,-0.55 -0.9,-1 -2,-1 -1.80952,0 -2,-0.6667 -2,-7 0,-4 0.42857,-7 1,-7 0.55,0 1,-1.35 1,-3 0,-1.65 0.45,-3 1,-3 0.55,0 1,-0.9 1,-2 0,-1.1 0.45,-2 1,-2 0.55,0 1,-1.8 1,-4 0,-2.2 0.45,-4 1,-4 0.55,0 1,-0.7071 1,-1.5714 C 8,1766.4075 10.40753,1764 12.42857,1764 13.29286,1764 14,1763.2929 14,1762.4286 14,1759.4308 16.69623,1758 22.34524,1758 c 3.4533,0 5.67615,-0.4635 5.9953,-1.25 0.38681,-0.9533 0.74469,-0.909 1.50773,0.1867 0.82229,1.1807 1.53082,0.869 3.97734,-1.75 2.51167,-2.6888 3.69539,-3.1867 7.5756,-3.1867 2.52933,0 4.59879,-0.45 4.59879,-1 0,-0.6061 4.33333,-1 11,-1 6.66667,0 11,-0.3939 11,-1 0,-0.55 1.35,-1 3,-1 1.65,0 3,-0.45 3,-1 0,-0.55 1.35,-1 3,-1 1.65,0 3,-0.45 3,-1 0,-0.55 1.35,-1 3,-1 1.65,0 3,-0.45 3,-1 0,-0.5833 3.33333,-1 8,-1 4.66667,0 8,-0.4167 8,-1 0,-0.55 0.71028,-1 1.5784,-1 0.86812,0 3.30784,-1.8 5.4216,-4 2.5353,-2.6387 4.72067,-4 6.4216,-4 1.91173,0 2.5784,-0.5171 2.5784,-2 0,-1.3333 0.66667,-2 2,-2 1.33333,0 2,-0.6667 2,-2 0,-1.2506 0.66667,-2 1.77924,-2 0.97858,0 2.42792,-0.9 3.22076,-2 0.79284,-1.1 2.24218,-2 3.22076,-2 0.97858,0 1.77924,-0.45 1.77924,-1 0,-0.55 0.9,-1 2,-1 1.1,0 2,-0.45 2,-1 0,-0.55 1.8,-1 4,-1 2.2,0 4,-0.45 4,-1 0,-0.55 0.9,-1 2,-1 1.1,0 2,-0.45 2,-1 0,-0.55 0.9,-1 2,-1 1.1,0 2,-0.45 2,-1 0,-0.55 0.9,-1 2,-1 1.1,0 2,-0.45 2,-1 0,-0.55 0.9,-1 2,-1 1.1,0 2,-0.45 2,-1 0,-0.55 0.9,-1 2,-1 1.1,0 2,-0.45 2,-1 0,-0.55 1.35,-1 3,-1 1.65,0 3,-0.45 3,-1 0,-0.55 1.35,-1 3,-1 1.65,0 3,-0.45 3,-1 0,-0.55 1.35,-1 3,-1 1.65,0 3,-0.45 3,-1 0,-0.55 1.25066,-1 2.77924,-1 1.63207,0 3.37425,-0.8255 4.22076,-2 0.79284,-1.1 2.24218,-2 3.22076,-2 1.03899,0 1.77924,-0.7403 1.77924,-1.7792 0,-0.9786 0.9,-2.428 2,-3.2208 1.1,-0.7928 2,-2.1428 2,-3 0,-0.8572 0.9,-2.2072 2,-3 1.17447,-0.8465 2,-2.5887 2,-4.2208 0,-1.5285 0.45,-2.7792 1,-2.7792 0.55,0 1,-1.2507 1,-2.7792 0,-1.6321 0.82553,-3.3743 2,-4.2208 1.17447,-0.8465 2,-2.5887 2,-4.2208 0,-1.5285 0.45,-2.7792 1,-2.7792 0.55,0 1,-2.5071 1,-5.5714 0,-5.4254 1.41167,-8.4286 3.9619,-8.4286 1.45211,0 8.0381,-6.6084 8.0381,-8.0655 0,-0.6226 1.35,-2.3932 3,-3.9345 1.65,-1.5413 3,-3.5219 3,-4.4012 0,-0.8793 0.45,-1.5988 1,-1.5988 0.55,0 1,-0.9 1,-2 0,-1.1 0.45,-2 1,-2 0.55,0 1,-0.9 1,-2 0,-1.1 0.45,-2 1,-2 0.55,0 1,-1.35 1,-3 0,-1.65 0.45,-3 1,-3 0.55,0 1,-0.9 1,-2 0,-1.1 0.45,-2 1,-2 0.55,0 1,-0.69 1,-1.5333 0,-1.9904 6.47626,-8.4667 8.46667,-8.4667 0.84333,0 1.53333,-0.45 1.53333,-1 0,-0.55 0.9,-1 2,-1 1.1,0 2,-0.45 2,-1 0,-0.55 0.70714,-1 1.57143,-1 2.02104,0 4.42857,-2.4075 4.42857,-4.4286 0,-0.8643 0.45,-1.5714 1,-1.5714 0.55,0 1,-0.9 1,-2 0,-1.1 0.45,-2 1,-2 0.55,0 1,-1.2507 1,-2.7792 0,-1.6321 0.82553,-3.3743 2,-4.2208 1.1,-0.7928 2,-2.0616 2,-2.8195 0,-0.758 1.35,-2.6392 3,-4.1805 1.65,-1.5413 3,-3.5219 3,-4.4012 0,-0.9321 0.83396,-1.5988 2,-1.5988 1.16604,0 2,-0.6667 2,-1.5988 0,-0.8793 1.35,-2.8599 3,-4.4012 1.65,-1.5413 3,-3.3026 3,-3.914 0,-1.4339 18.62674,-20.086 20.05861,-20.086 1.51704,0 3.94139,-2.5882 3.94139,-4.2078 0,-0.7429 0.9,-1.9994 2,-2.7922 1.1,-0.7928 2,-2.0525 2,-2.7992 0,-0.7467 1.8,-3.087 4,-5.2008 2.2,-2.1138 4,-4.4541 4,-5.2008 0,-0.7467 0.9,-2.0064 2,-2.7992 1.1,-0.7928 2,-2.0616 2,-2.8195 0,-0.758 1.35,-2.6392 3,-4.1805 1.65,-1.5413 3,-3.5219 3,-4.4012 0,-0.8793 0.45,-1.5988 1,-1.5988 0.55,0 1,-0.9 1,-2 0,-1.1 0.45,-2 1,-2 0.55,0 1,-1.35 1,-3 0,-1.65 0.45,-3 1,-3 0.55,0 1,-1.6195 1,-3.5988 0,-2.7092 0.74155,-4.2915 3,-6.4012 1.65,-1.5413 3,-3.5219 3,-4.4012 0,-0.8793 0.45,-1.5988 1,-1.5988 0.55,0 1,-1.35 1,-3 0,-1.65 0.45,-3 1,-3 0.55,0 1,-0.9 1,-2 0,-1.1 0.45,-2 1,-2 0.55,0 1,-0.9 1,-2 0,-1.1 0.45,-2 1,-2 0.55,0 1,-0.9 1,-2 0,-1.1 0.45,-2 1,-2 0.55,0 1,-1.35 1,-3 0,-1.65 0.45,-3 1,-3 0.55,0 1,-1.3125 1,-2.9167 0,-1.6041 0.5625,-3.1791 1.25,-3.5 1,-0.4666 1,-0.7 0,-1.1666 -0.75141,-0.3507 -1.25,-2.5445 -1.25,-5.5 0,-2.7042 -0.45,-4.9167 -1,-4.9167 -0.55,0 -1,-0.9 -1,-2 0,-1.1 0.45,-2 1,-2 0.55556,0 1,-2.6667 1,-6 0,-3.3333 0.44444,-6 1,-6 0.55,0 1,-1.35 1,-3 0,-1.65 0.45,-3 1,-3 0.55,0 1,-1.35 1,-3 0,-1.65 0.45,-3 1,-3 0.55,0 1,-0.9 1,-2 0,-1.1 0.45,-2 1,-2 0.55,0 1,-0.9 1,-2 0,-1.1 0.45,-2 1,-2 0.55,0 1,-1.2507 1,-2.7792 0,-1.6321 0.82553,-3.3743 2,-4.2208 1.17447,-0.8465 2,-2.5887 2,-4.2208 0,-1.5285 0.45,-2.7792 1,-2.7792 0.55,0 1,-0.9 1,-2 0,-1.1 0.45,-2 1,-2 0.55,0 1,-0.9 1,-2 0,-1.1 0.45,-2 1,-2 0.55,0 1,-0.9 1,-2 0,-1.1 0.45,-2 1,-2 0.55,0 1,-1.35 1,-3 0,-1.65 0.45,-3 1,-3 0.55,0 1,-0.9 1,-2 0,-1.1 0.45,-2 1,-2 0.55,0 1,-0.9 1,-2 0,-1.1 0.45,-2 1,-2 0.55,0 1,-0.8007 1,-1.7792 0,-0.9786 0.9,-2.428 2,-3.2208 1.1,-0.7928 2,-2.1428 2,-3 0,-0.8572 0.9,-2.2072 2,-3 1.1,-0.7928 2,-2.2422 2,-3.2208 0,-0.9785 0.45,-1.7792 1,-1.7792 0.55,0 1,-0.8007 1,-1.7792 0,-0.9786 0.9,-2.428 2,-3.2208 1.1,-0.7928 2,-2.2422 2,-3.2208 0,-0.9785 0.45,-1.7792 1,-1.7792 0.55,0 1,-1.1542 1,-2.5649 0,-1.7619 1.56542,-4.0897 5,-7.4351 2.75,-2.6786 5,-5.5744 5,-6.4351 0,-0.8607 0.45,-1.5649 1,-1.5649 0.55,0 1,-0.9 1,-2 0,-1.1 0.45,-2 1,-2 0.55,0 1,-0.9 1,-2 0,-1.1 0.45,-2 1,-2 0.55,0 1,-1.35 1,-3 0,-1.65 0.45,-3 1,-3 0.55,0 1,-1.35 1,-3 0,-1.65 0.45,-3 1,-3 0.55,0 1,-1.8 1,-4 0,-2.2 0.45,-4 1,-4 0.55,0 1,-1.35 1,-3 0,-1.65 0.45,-3 1,-3 0.55,0 1,-1.8 1,-4 0,-2.2 0.45,-4 1,-4 0.55,0 1,-1.35 1,-3 0,-1.65 0.45,-3 1,-3 0.55,0 1,-1.8 1,-4 0,-2.2 0.45,-4 1,-4 0.55,0 1,-1.8 1,-4 0,-2.2 0.45,-4 1,-4 0.55,0 1,-1.35 1,-3 0,-1.65 0.45,-3 1,-3 0.55,0 1,-0.9 1,-2 0,-1.1 0.45,-2 1,-2 0.55,0 1,-0.9 1,-2 0,-1.1 0.45,-2 1,-2 0.55,0 1,-1.35 1,-3 0,-1.65 0.45,-3 1,-3 0.55,0 1,-1.35 1,-3 0,-1.65 0.45,-3 1,-3 0.55,0 1,-0.9 1,-2 0,-1.1 0.45,-2 1,-2 0.55,0 1,-1.35 1,-3 0,-1.65 0.45,-3 1,-3 0.58333,0 1,-3.3333 1,-8 0,-4.6667 0.41667,-8 1,-8 0.55556,0 1,-2.6667 1,-6 0,-3.3333 0.44444,-6 1,-6 0.55,0 1,-1.35 1,-3 0,-1.65 0.45,-3 1,-3 0.55,0 1,-0.9 1,-2 0,-1.1 0.45,-2 1,-2 0.55,0 1,-0.9 1,-2 0,-1.1 0.45,-2 1,-2 0.55,0 1,-0.9 1,-2 0,-1.1 0.45,-2 1,-2 0.55,0 1,-1.8 1,-4 0,-3.3333 0.33333,-4 2,-4 1.33333,0 2,-0.6667 2,-2 0,-1.1 0.45,-2 1,-2 0.55,0 1,-1.8 1,-4 0,-2.2 0.45,-4 1,-4 0.55,0 1,-0.9 1,-2 0,-1.1 0.45,-2 1,-2 0.55,0 1,-1.35 1,-3 0,-1.65 0.45,-3 1,-3 0.55,0 1,-0.9 1,-2 0,-1.1 0.45,-2 1,-2 0.55,0 1,-0.9 1,-2 0,-1.1 0.45,-2 1,-2 0.55,0 1,-0.9 1,-2 0,-1.1 0.45,-2 1,-2 0.55,0 1,-0.9 1,-2 0,-1.1 0.45,-2 1,-2 0.55,0 1,-2.25 1,-5 0,-2.75 0.45,-5 1,-5 0.55,0 1,-1.7007 1,-3.7792 0,-2.6321 0.60709,-4.2168 2,-5.2208 1.78715,-1.2881 2,-2.5887 2,-12.2208 0,-6.5195 0.39518,-10.7792 1,-10.7792 0.59259,0 1,-3.6667 1,-9 0,-5.3333 0.40741,-9 1,-9 1.44346,0 1.23262,-3.7248 -0.25,-4.4167 -1,-0.4666 -1,-0.7 0,-1.1666 0.84561,-0.3947 1.25,-3.1445 1.25,-8.5 0,-4.6111 0.41754,-7.9167 1,-7.9167 0.55556,0 1,-2.6667 1,-6 0,-3.3333 0.44444,-6 1,-6 0.55,0 1,-1.8 1,-4 0,-2.2 0.45,-4 1,-4 0.55,0 1,-2.25 1,-5 0,-2.75 0.45,-5 1,-5 0.55,0 1,-2.25 1,-5 0,-2.75 0.45,-5 1,-5 0.55,0 1,-1.35 1,-3 0,-1.65 0.45,-3 1,-3 0.57143,0 1,-3 1,-7 0,-4 -0.42857,-7 -1,-7 -0.55,0 -1,-1.8 -1,-4 0,-2.2 -0.45,-4 -1,-4 -0.55,0 -1,-1.35 -1,-3 0,-1.65 -0.45,-3 -1,-3 -0.58333,0 -1,-3.33333 -1,-8 0,-4.66667 -0.41667,-8 -1,-8 -0.55,0 -1,-0.9 -1,-2 0,-1.1 -0.45,-2 -1,-2 -0.55,0 -1,-2.15066 -1,-4.77924 0,-3.63207 -0.48006,-5.12525 -2,-6.22076 -1.1,-0.79284 -2,-2.24218 -2,-3.22076 C 482,930.80066 481.55,930 481,930 c -0.55,0 -1,-0.70714 -1,-1.57143 0,-1.8311 -2.3461,-4.42857 -4,-4.42857 -2.86672,0 -4,2.95461 -4,10.42857 0,4.38095 -0.42138,7.57143 -1,7.57143 -0.55,0 -1,1.60714 -1,3.57143 0,3.53922 -1.79782,6.42857 -4,6.42857 -1.6539,0 -4,2.59747 -4,4.42857 0,0.86429 -0.45,1.57143 -1,1.57143 -0.55,0 -1,0.9 -1,2 0,1.1 -0.45,2 -1,2 -0.55,0 -1,0.9 -1,2 0,1.1 -0.45,2 -1,2 -0.55,0 -1,1.8 -1,4 0,2.2 -0.45,4 -1,4 -0.58333,0 -1,3.33333 -1,8 0,4.6667 -0.41667,8 -1,8 -0.55,0 -1,2.25 -1,5 0,2.75 0.45,5 1,5 0.55,0 1,1.8 1,4 0,2.2 0.45,4 1,4 0.55,0 1,0.9 1,2 0,1.1 0.45,2 1,2 0.55,0 1,0.9 1,2 0,1.1 0.45,2 1,2 0.55,0 1,0.9 1,2 0,1.1 0.45,2 1,2 0.55,0 1,1.35 1,3 0,1.65 0.45,3 1,3 0.57143,0 1,3 1,7 0,4 0.42857,7 1,7 0.55,0 1,1.8 1,4 0,2.2 0.45,4 1,4 0.58333,0 1,3.3333 1,8 0,4.6667 -0.41667,8 -1,8 -0.55,0 -1,0.8625 -1,1.9167 0,1.0541 -0.5625,2.1095 -1.25,2.3452 -0.78989,0.2708 -0.0537,1.5534 2,3.4845 1.7875,1.6808 3.25,3.7755 3.25,4.6548 0,0.8793 0.45,1.5988 1,1.5988 0.57143,0 1,3 1,7 0,4 0.42857,7 1,7 0.55,0 1,1.35 1,3 0,1.65 0.45,3 1,3 0.55,0 1,1.35 1,3 0,1.65 -0.45,3 -1,3 -0.55,0 -1,0.9 -1,2 0,1.3333 -0.66667,2 -2,2 -1.1,0 -2,0.45 -2,1 0,0.55 -0.9,1 -2,1 -1.33333,0 -2,0.6667 -2,2 0,1.1 -0.45,2 -1,2 -0.55,0 -1,0.9 -1,2 0,1.1 0.45,2 1,2 0.55,0 1,0.45 1,1 0,0.55 -1.35,1 -3,1 -1.65,0 -3,0.45 -3,1 0,0.55 0.45,1 1,1 0.55,0 1,0.45 1,1 0,0.55 -0.9,1 -2,1 -1.33333,0 -2,0.6667 -2,2 0,1.8095 -0.66667,2 -7,2 -6.33333,0 -7,0.1905 -7,2 0,1.1 -0.45,2 -1,2 -0.55,0 -1,0.6868 -1,1.5263 0,0.8395 -2.01316,3.5395 -4.47368,6 -4.17397,4.174 -4.82913,4.4737 -9.77924,4.4737 -4.15839,0 -5.61725,-0.4324 -6.74708,-2 -1.48885,-2.0657 -5,-2.7679 -5,-1 0,0.55 0.45,1 1,1 1.83321,0 1.03048,3.0604 -1.45455,5.5455 -1.88606,1.886 -3.50729,2.4545 -7,2.4545 -2.5,0 -4.54545,0.45 -4.54545,1 0,0.5556 -2.66667,1 -6,1 -3.33333,0 -6,-0.4444 -6,-1 0,-0.55 -1.35,-1 -3,-1 -1.65,0 -3,-0.45 -3,-1 0,-0.55 -0.9,-1 -2,-1 -1.1,0 -2,-0.45 -2,-1 0,-0.55 -0.69228,-1 -1.53841,-1 -0.84612,0 -5.55384,-4.05 -10.46159,-9 -4.90775,-4.95 -9.51613,-9 -10.24083,-9 -0.72471,0 -1.96633,-0.9 -2.75917,-2 -0.79284,-1.1 -2.04932,-2 -2.79219,-2 -1.74062,0 -4.20781,-2.4672 -4.20781,-4.2078 0,-0.7429 -0.9,-1.9994 -2,-2.7922 -1.82046,-1.3121 -2,-2.5887 -2,-14.2208 0,-7.8528 0.3855,-12.7792 1,-12.7792 0.55,0 1,-1.35 1,-3 0,-1.65 0.45,-3 1,-3 0.55,0 1,-1.2507 1,-2.7792 0,-1.6321 0.82553,-3.3743 2,-4.2208 1.47997,-1.0667 2,-2.5887 2,-5.8535 0,-3.3115 0.55316,-4.8917 2.21792,-6.3355 1.88339,-1.6335 1.99651,-2.0774 0.75,-2.9434 -1.11158,-0.7723 -1.16448,-1.143 -0.21792,-1.5271 0.6875,-0.2789 1.25,-1.3697 1.25,-2.4238 0,-1.0542 0.45,-1.9167 1,-1.9167 0.55,0 1,-1.7007 1,-3.7792 0,-2.6321 0.60709,-4.2168 2,-5.2208 1.1,-0.7928 2,-2.1428 2,-3 0,-0.8572 0.9,-2.2072 2,-3 1.39291,-1.004 2,-2.5887 2,-5.2208 0,-2.0785 0.45,-3.7792 1,-3.7792 0.55,0 1,-2.25 1,-5 0,-2.75 -0.45,-5 -1,-5 -0.6,0 -1,-4 -1,-10 0,-6 0.4,-10 1,-10 0.60936,0 1,-4.5442 1,-11.6327 0,-10.8037 0.16034,-11.7754 2.25,-13.63464 1.52621,-1.35793 1.84789,-2.14627 1,-2.45063 -1.91164,-0.6862 -1.48813,-3.66888 0.75,-5.28203 1.1,-0.79284 2,-2.24218 2,-3.22076 0,-0.97858 0.45,-1.77924 1,-1.77924 0.55,0 1,-0.9 1,-2 0,-1.1 0.45,-2 1,-2 0.55,0 1,-0.9 1,-2 0,-1.1 0.45,-2 1,-2 0.55,0 1,-2.25 1,-5 0,-2.75 0.45,-5 1,-5 0.63492,0 1,-7.66667 1,-21 0,-13.33333 0.36508,-21 1,-21 0.57143,0 1,-3 1,-7 0,-4 0.42857,-7 1,-7 0.55,0 1,-1.8 1,-4 0,-2.2 0.45,-4 1,-4 0.55,0 1,-0.9 1,-2 0,-1.1 -0.45,-2 -1,-2 -0.62745,0 -1,-6.33333 -1,-17 0,-10.66667 -0.37255,-17 -1,-17 -0.61905,0 -1,-5.33333 -1,-14 0,-8.66667 0.38095,-14 1,-14 0.58333,0 1,-3.33333 1,-8 0,-4.66667 0.41667,-8 1,-8 0.55,0 1,-1.3125 1,-2.91667 0,-1.60416 0.5625,-3.17916 1.25,-3.5 1,-0.46666 1,-0.7 0,-1.16666 C 389.76738,791.72478 389.55654,788 391,788 c 1.4493,0 1.23032,-3.75066 -0.25,-4.28203 -0.84789,-0.30436 -0.52621,-1.0927 1,-2.45063 1.2375,-1.10106 2.25,-2.73665 2.25,-3.63464 0,-0.89798 0.45,-1.6327 1,-1.6327 0.55,0 1,-1.35 1,-3 0,-1.65 0.45,-3 1,-3 0.55,0 1,-2.25 1,-5 0,-2.75 0.45,-5 1,-5 0.55,0 1,-2.25 1,-5 0,-2.75 0.45,-5 1,-5 0.55,0 1,-0.9 1,-2 0,-1.1 0.45,-2 1,-2 0.55,0 1,-1.70066 1,-3.77924 0,-2.63207 0.60709,-4.21681 2,-5.22076 1.1,-0.79284 2,-2.24218 2,-3.22076 0,-0.97858 0.45,-1.77924 1,-1.77924 0.55,0 1,-1.25066 1,-2.77924 0,-1.63207 0.82553,-3.37425 2,-4.22076 1.10324,-0.79517 2,-2.58869 2,-4 0,-1.41131 0.89676,-3.20483 2,-4 1.1,-0.79284 2,-2.24218 2,-3.22076 0,-0.97858 0.45,-1.77924 1,-1.77924 0.55,0 1,-0.69672 1,-1.54827 0,-0.85155 3.15,-4.65483 7,-8.45173 3.85,-3.7969 7,-7.60018 7,-8.45173 0,-0.85155 0.45,-1.54827 1,-1.54827 0.55,0 1,-0.9 1,-2 0,-1.33333 -0.66667,-2 -2,-2 -1.33333,0 -2,-0.66667 -2,-2 0,-1.1 -0.45,-2 -1,-2 -0.55,0 -1,-0.9 -1,-2 0,-1.1 -0.45,-2 -1,-2 -0.55,0 -1,-1.35 -1,-3 0,-1.65 0.45,-3 1,-3 0.55,0 1,-1.70066 1,-3.77924 0,-2.63207 0.60709,-4.21681 2,-5.22076 1.10324,-0.79517 2,-2.58869 2,-4 0,-1.41131 0.89676,-3.20483 2,-4 1.1,-0.79284 2,-2.06163 2,-2.81955 0,-0.75792 1.35,-2.63912 3,-4.18045 2.25845,-2.10971 3,-3.69198 3,-6.40121 0,-1.97933 0.45,-3.59879 1,-3.59879 0.55,0 1,-0.9 1,-2 0,-1.1 0.45,-2 1,-2 0.55,0 1,-2.25 1,-5 0,-2.75 -0.45,-5 -1,-5 -0.55,0 -1,-0.70714 -1,-1.57143 C 446,622.21153 443.52213,620 441.0381,620 438.60929,620 432,613.80857 432,611.53333 432,610.69 431.55,610 431,610 c -0.55,0 -1,-0.70714 -1,-1.57143 0,-0.86428 -0.64286,-2.21428 -1.42857,-3 C 427.78571,604.64286 426.43571,604 425.57143,604 424.35238,604 424,602.87879 424,599 c 0,-2.75 -0.45,-5 -1,-5 -0.55,0 -1,-1.35 -1,-3 0,-1.65 0.45,-3 1,-3 0.55,0 1,-1.8 1,-4 0,-2.2 0.45,-4 1,-4 0.55,0 1,-1.35 1,-3 0,-1.65 0.45,-3 1,-3 0.55,0 1,-0.71946 1,-1.59879 0,-0.87933 1.35,-2.85988 3,-4.40121 1.65,-1.54133 3,-3.52188 3,-4.40121 0,-0.87933 0.45,-1.59879 1,-1.59879 0.55,0 1,-0.9 1,-2 0,-1.1 0.45,-2 1,-2 0.55,0 1,-0.71028 1,-1.5784 0,-0.86812 1.8,-3.30784 4,-5.4216 2.2,-2.11376 4,-4.36062 4,-4.99303 0,-0.6324 0.71584,-1.86566 1.59075,-2.74058 1.28858,-1.28858 1.74623,-1.33918 2.40925,-0.26639 0.66302,1.07279 1.12067,1.02219 2.40925,-0.26639 C 454.17989,540.96297 454.54967,538 453,538 c -1.5166,0 -1.27897,-13.70315 0.25,-14.41667 1,-0.46666 1,-0.7 0,-1.16666 C 451.76738,521.72478 451.55654,518 453,518 c 0.55,0 1,-2.25 1,-5 0,-2.75 0.45,-5 1,-5 0.55,0 1,-2.25 1,-5 0,-2.75 0.45,-5 1,-5 0.55,0 1,-0.9 1,-2 0,-1.1 -0.45,-2 -1,-2 -0.55,0 -1,-0.9 -1,-2 0,-1.1 0.45,-2 1,-2 0.58333,0 1,-3.33333 1,-8 0,-4.66667 0.41667,-8 1,-8 0.55,0 1,-0.9 1,-2 0,-1.1 0.45,-2 1,-2 0.55,0 1,-2.25 1,-5 0,-2.75 0.45,-5 1,-5 0.55,0 1,-1.25066 1,-2.77924 0,-1.63207 0.82553,-3.37425 2,-4.22076 1.51994,-1.09551 2,-2.58869 2,-6.22076 0,-2.62858 0.45,-4.77924 1,-4.77924 0.55,0 1,-0.9 1,-2 0,-1.1 0.45,-2 1,-2 0.55,0 1,-0.9 1,-2 0,-1.1 0.45,-2 1,-2 0.55,0 1,-0.9 1,-2 0,-1.1 0.45,-2 1,-2 0.55,0 1,-1.35 1,-3 0,-2.06061 0.49206,-3 1.57143,-3 C 479.59247,424 482,421.59247 482,419.57143 482,418.70714 482.45,418 483,418 c 0.55,0 1,-0.80066 1,-1.77924 0,-0.97858 0.9,-2.42792 2,-3.22076 1.1,-0.79284 2,-2.02696 2,-2.7425 C 488,408.43713 498.62511,398 500.47826,398 501.31522,398 502,397.55 502,397 c 0,-0.55 0.71946,-1 1.59879,-1 0.87933,0 2.85988,-1.35 4.40121,-3 1.54133,-1.65 3.52188,-3 4.40121,-3 0.87933,0 1.59879,-0.45 1.59879,-1 0,-0.55 1.25066,-1 2.77924,-1 1.63207,0 3.37425,-0.82553 4.22076,-2 0.79284,-1.1 2.14284,-2 3,-2 0.85716,0 2.20716,-0.9 3,-2 0.84651,-1.17447 2.58869,-2 4.22076,-2 1.52858,0 2.77924,-0.45 2.77924,-1 0,-0.55 0.80066,-1 1.77924,-1 0.97858,0 2.42792,-0.9 3.22076,-2 0.79517,-1.10324 2.58869,-2 4,-2 1.41131,0 3.20483,-0.89676 4,-2 0.79284,-1.1 2.24218,-2 3.22076,-2 0.97858,0 1.77924,-0.45 1.77924,-1 0,-0.55 1.35,-1 3,-1 1.65,0 3,-0.45 3,-1 0,-0.55 1.25066,-1 2.77924,-1 1.63207,0 3.37425,-0.82553 4.22076,-2 0.79284,-1.1 2.24218,-2 3.22076,-2 0.97858,0 1.77924,-0.45 1.77924,-1 0,-0.55 1.70066,-1 3.77924,-1 2.63207,0 4.21681,-0.60709 5.22076,-2 0.79517,-1.10324 2.58869,-2 4,-2 1.41131,0 3.20483,-0.89676 4,-2 0.79284,-1.1 2.24218,-2 3.22076,-2 0.97858,0 1.77924,-0.45 1.77924,-1 0,-0.55 0.69,-1 1.53333,-1 C 595.52374,350 602,343.52374 602,341.53333 602,340.66667 602.86957,340 604,340 c 1.15152,0 2,-0.66667 2,-1.57143 0,-1.82795 2.34513,-4.42857 3.9935,-4.42857 0.62499,0 3.32792,-2.25 6.0065,-5 2.67858,-2.75 5.39382,-5 6.03387,-5 0.64004,0 2.4248,-1.35 3.96613,-3 1.54133,-1.65 3.52188,-3 4.40121,-3 0.87933,0 1.59879,-0.45 1.59879,-1 0,-0.55 0.9,-1 2,-1 1.1,0 2,-0.45 2,-1 0,-0.55 1.8,-1 4,-1 2.2,0 4,-0.45 4,-1 0,-0.55 -0.8007,-1 -1.77924,-1 -0.97858,0 -2.42792,-0.9 -3.22076,-2 -0.79284,-1.1 -2.24218,-2 -3.22076,-2 C 634.80066,308 634,307.55 634,307 c 0,-0.55 -1.35,-1 -3,-1 -1.65,0 -3,-0.45 -3,-1 0,-0.55 -2.25,-1 -5,-1 -2.75,0 -5,-0.45 -5,-1 0,-0.55 -1.35,-1 -3,-1 -1.65,0 -3,-0.45 -3,-1 0,-0.55 -0.71028,-1 -1.5784,-1 -0.86812,0 -3.27741,-1.76833 -5.35397,-3.92961 -2.64228,-2.75008 -5.4271,-4.40973 -9.27763,-5.52911 -4.3026,-1.2508 -6.24193,-2.51964 -8.89602,-5.82038 -3.03913,-3.7796 -3.38735,-4.84821 -3.33054,-10.2209 0.0614,-5.80564 2.80042,-12.8232 5.7239,-14.66497 1.48809,-0.93748 1.30686,-6.73521 -0.33026,-10.5654 -1.04296,-2.4401 -1.1322,-4.16152 -0.36481,-7.03656 0.99744,-3.73691 0.58373,-7.20369 -1.67716,-14.05433 -0.88622,-2.6853 -0.80488,-3.64306 0.42479,-5.00183 2.20182,-2.43299 3.80209,-7.15418 3.13614,-9.2524 -0.35843,-1.1293 -2.53308,-2.38205 -5.77547,-3.32705 -2.86031,-0.83365 -6.08634,-2.54662 -7.16894,-3.80659 -2.57715,-2.99939 -2.42358,-8.7295 0.33789,-12.60763 1.17176,-1.64559 2.13048,-3.49135 2.13048,-4.10169 0,-1.20466 14.07457,-22.27876 17.12797,-25.646 1.02962,-1.13545 1.87203,-2.53093 1.87203,-3.10106 0,-0.57014 1.125,-3.15245 2.5,-5.73847 1.375,-2.58601 2.5,-5.37042 2.5,-6.18757 0,-0.81715 -1.7765,-3.33453 -3.94777,-5.59418 -2.17128,-2.25965 -4.08378,-5.27591 -4.25,-6.70281 C 595.38244,133.50799 592,132.89881 592,136.42668 c 0,1.41532 -0.3375,2.62463 -0.75,2.68734 -0.4125,0.0627 -2.09373,0.26892 -3.73608,0.45823 -1.64234,0.18932 -3.14234,0.81301 -3.33333,1.38598 -0.5032,1.50961 -4.18059,1.2819 -4.18059,-0.25887 0,-1.83972 2.35194,-6.68222 3.25,-6.69156 1.48515,-0.0155 0.70689,-5.72137 -1.36538,-10.01048 -4.34599,-8.99517 -1.24629,-23.0032 6.83468,-30.88698 C 593.21354,88.72578 596,83.76502 596,80.14848 596,74.833504 610.86829,67.067832 618.6322,68.32774 621.60731,68.810535 622,68.61583 622,66.657889 622,65.438885 622.9,63.792835 624,63 c 1.1,-0.792835 2,-2.49932 2,-3.792188 C 626,56.719219 628.08857,54 630,54 c 2.1035,0 4,-2.826691 4,-5.961905 C 634,44.089038 639.74241,38 643.4667,38 645.0763,38 646,37.440936 646,36.466667 c 0,-0.843334 1.56,-3.093334 3.4667,-5 C 652.5869,28.346452 653.4863,28 658.4667,28 661.51,28 664,27.55 664,27 c 0,-1.44346 3.7248,-1.232624 4.4167,0.25 0.4666,1 0.7,1 1.1666,0 C 669.9665,26.428862 672.5111,26 677,26 c 4.4889,0 7.0335,0.428862 7.4167,1.25 0.4666,1 0.7,1 1.1666,0 0.3209,-0.6875 1.8959,-1.25 3.5,-1.25 1.6042,0 2.9167,-0.45 2.9167,-1 0,-0.55 0.8007,-1 1.7792,-1 0.9786,0 2.428,-0.9 3.2208,-2 1.004,-1.392908 2.5887,-2 5.2208,-2 2.0785,0 3.7792,-0.45 3.7792,-1 0,-0.55 0.9,-1 2,-1 1.1,0 2,-0.45 2,-1 0,-0.55 1.35,-1 3,-1 2.3333,0 3,-0.444444 3,-2 0,-1.1 0.45,-2 1,-2 0.55,0 1,0.45 1,1 0,0.55 0.9,1 2,1 1.1,0 2,-0.45 2,-1 0,-0.55 0.9,-1 2,-1 1.1,0 2,-0.45 2,-1 0,-0.55 1.35,-1 3,-1 1.65,0 3,-0.45 3,-1 0,-0.55 0.9,-1 2,-1 1.1,0 2,-0.45 2,-1 0,-0.55 1.35,-1 3,-1 1.65,0 3,-0.45 3,-1 0,-0.555556 2.6667,-1 6,-1 3.3333,0 6,-0.444444 6,-1 0,-0.64 9,-1 25,-1 16,0 25,0.36 25,1 0,0.55 1.35,1 3,1 1.65,0 3,-0.45 3,-1 0,-0.55 0.9,-1 2,-1 1.1,0 2,-0.45 2,-1 0,-0.55 2.25,-1 5,-1 2.75,0 5,0.45 5,1 0,0.55 1.1298,1 2.5106,1 1.8685,0 5.4493,2.938574 14,11.489362 6.3192,6.319149 11.4894,12.169149 11.4894,13 C 852,27.320213 852.45,28 853,28 c 0.55,0 1,0.800658 1,1.779241 0,0.978582 0.9,2.427924 2,3.220759 1.1,0.792835 2,2.242177 2,3.220759 C 858,37.199342 858.45,38 859,38 c 0.55,0 1,0.704216 1,1.564924 0,0.860708 2.25,3.756492 5,6.435076 2.75,2.678584 5,5.374289 5,5.990456 0,0.616167 2.7,3.770462 6,7.009544 3.3,3.239082 6,6.589161 6,7.44462 0,0.855459 0.45,1.55538 1,1.55538 0.55,0 1,0.9 1,2 0,1.1 0.45,2 1,2 1.565,0 1.3211,25.70306 -0.25,26.34054 -0.9438,0.38294 -0.8825,0.7895 0.25,1.65946 1.1325,0.86996 1.1938,1.27652 0.25,1.65946 -0.7009,0.2844 -1.25,2.22771 -1.25,4.42387 0,2.15417 -0.45,3.91667 -1,3.91667 -0.55,0 -1,0.9 -1,2 0,1.1 -0.45,2 -1,2 -0.55,0 -1,1.70066 -1,3.77924 0,2.63207 -0.6071,4.21681 -2,5.22076 -1.1745,0.84651 -2,2.58869 -2,4.22076 0,1.52858 -0.45,2.77924 -1,2.77924 -0.55,0 -1,0.80066 -1,1.77924 0,0.97858 -0.9,2.42792 -2,3.22076 -1.1,0.79284 -2,2.14284 -2,3 0,0.85716 -0.9,2.20716 -2,3 -1.1,0.79284 -2,2.14284 -2,3 0,0.85716 -0.9,2.20716 -2,3 -1.1,0.79284 -2,2.14284 -2,3 0,0.85716 -0.9,2.20716 -2,3 -1.1,0.79284 -2,2.24218 -2,3.22076 0,0.97858 -0.45,1.77924 -1,1.77924 -0.55,0 -1,0.80066 -1,1.77924 0,0.97858 -0.9,2.42792 -2,3.22076 -1.7051,1.22894 -2,2.58869 -2,9.22076 0,4.51949 -0.419,7.77924 -1,7.77924 -0.55,0 -1,1.8 -1,4 0,2.2 -0.45,4 -1,4 -0.55,0 -1,1.25066 -1,2.77924 0,1.63207 -0.8255,3.37425 -2,4.22076 -1.1745,0.84651 -2,2.58869 -2,4.22076 0,1.52858 -0.45,2.77924 -1,2.77924 -0.55,0 -1,1.35 -1,3 0,1.65 -0.45,3 -1,3 -0.55,0 -1,1.35 -1,3 0,1.65 -0.45,3 -1,3 -0.55,0 -1,0.9 -1,2 0,1.1 -0.45,2 -1,2 -0.55,0 -1,1.70066 -1,3.77924 0,2.63207 -0.6071,4.21681 -2,5.22076 -1.1745,0.84651 -2,2.58869 -2,4.22076 0,1.52858 -0.45,2.77924 -1,2.77924 -0.55,0 -1,0.9 -1,2 0,1.1 -0.45,2 -1,2 -0.55,0 -1,0.9 -1,2 0,1.1 -0.45,2 -1,2 -0.55,0 -1,1.35 -1,3 0,1.65 -0.45,3 -1,3 -0.55,0 -1,0.9 -1,2 0,1.1 -0.45,2 -1,2 -0.55,0 -1,0.80066 -1,1.77924 0,0.97858 -0.9,2.42792 -2,3.22076 -1.1,0.79284 -2,2.24218 -2,3.22076 0,0.97858 -0.45,1.77924 -1,1.77924 -0.55,0 -1,0.9 -1,2 0,1.1 -0.45,2 -1,2 -0.55,0 -1,1.8 -1,4 0,2.2 -0.45,4 -1,4 -0.55,0 -1,0.9 -1,2 0,1.1 0.45,2 1,2 0.5556,0 1,2.66667 1,6 0,3.33333 -0.4444,6 -1,6 -0.6061,0 -1,4.33333 -1,11 0,6.66667 0.3939,11 1,11 0.55,0 1,1.35 1,3 0,3.58798 2.7398,4.13593 5,1 0.7928,-1.1 2.2422,-2 3.2208,-2 0.9785,0 1.7792,-0.45 1.7792,-1 0,-0.55 1.35,-1 3,-1 1.65,0 3,-0.45 3,-1 0,-0.55 1.35,-1 3,-1 1.65,0 3,-0.45 3,-1 0,-0.59073 3.5931,-1 8.7792,-1 7.6321,0 8.9676,0.26134 10.2208,2 0.7928,1.1 2.4822,2 3.7541,2 3.6171,0 9.2459,6.23758 9.2459,10.24591 0,2.1654 0.6926,3.81178 2,4.75409 1.1,0.79284 2,2.24218 2,3.22076 0,0.97858 0.45,1.77924 1,1.77924 0.55,0 1,1.8 1,4 0,2.2 0.45,4 1,4 0.55,0 1,1.8 1,4 0,2.2 0.45,4 1,4 0.55,0 1,0.9 1,2 0,1.1 0.45,2 1,2 0.55,0 1,1.35 1,3 0,1.65 0.45,3 1,3 0.55,0 1,0.9 1,2 0,1.1 0.45,2 1,2 0.55,0 1,2.05714 1,4.57143 0,4.47264 1.6025,7.42857 4.0274,7.42857 0.6436,0 2.4313,1.35 3.9726,3 1.5413,1.65 3.3322,3 3.9796,3 0.6475,0 2.9066,1.8 5.0204,4 2.1138,2.2 4.4541,4 5.2008,4 0.7467,0 2.0064,0.9 2.7992,2 0.7928,1.1 2.0616,2 2.8196,2 0.7579,0 2.6391,1.35 4.1804,3 1.5413,1.65 3.5219,3 4.4012,3 0.8793,0 1.5988,0.45 1.5988,1 0,0.55 0.9,1 2,1 1.1,0 2,0.45 2,1 0,0.55 0.8007,1 1.7792,1 0.9786,0 2.428,0.9 3.2208,2 0.7928,1.1 2.0616,2 2.8196,2 0.7579,0 2.6391,1.35 4.1804,3 1.7233,1.84484 3.8031,3 5.4012,3 1.4293,0 2.5988,0.45 2.5988,1 0,0.55 0.7195,1 1.5988,1 0.8793,0 2.8599,1.35 4.4012,3 1.5413,1.65 3.5219,3 4.4012,3 0.8793,0 1.5988,0.45 1.5988,1 0,0.55 1.35,1 3,1 1.65,0 3,0.45 3,1 0,0.55 0.7195,1 1.5988,1 0.8793,0 2.8599,1.35 4.4012,3 1.5413,1.65 3.3261,3 3.9661,3 0.6401,0 3.3553,2.25 6.0339,5 4.2849,4.39915 5.3641,5 8.9805,5 4.3578,0 9.0195,3.33605 9.0195,6.45455 0,0.85 0.45,1.54545 1,1.54545 0.55,0 1,0.9 1,2 0,1.33333 0.6667,2 2,2 1.148,0 2,0.66667 2,1.56492 0,0.86071 2.25,3.7565 5,6.43508 2.75,2.67858 5,5.38465 5,6.01348 0,0.62883 1.8,2.87276 4,4.98652 2.2,2.11376 4,4.37293 4,5.02039 0,0.64745 1.35,2.43828 3,3.97961 1.65,1.54133 3,3.34133 3,4 0,0.65867 1.35,2.45867 3,4 1.65,1.54133 3,3.52188 3,4.40121 0,0.87933 0.45,1.59879 1,1.59879 0.55,0 1,0.9 1,2 0,1.1 0.45,2 1,2 0.55,0 1,0.70422 1,1.56492 0,0.86071 2.25,3.7565 5,6.43508 3.9066,3.80519 5,5.55751 5,8.01348 0,2.36001 0.9968,4.10104 4,6.98652 2.2,2.11376 4,4.45414 4,5.20084 0,0.7467 0.9,2.00632 2,2.79916 1.1745,0.84651 2,2.58869 2,4.22076 0,1.52858 0.45,2.77924 1,2.77924 0.55,0 1,0.9 1,2 0,1.1 0.45,2 1,2 0.55,0 1,2.15066 1,4.77924 0,3.63207 0.4801,5.12525 2,6.22076 1.7051,1.22894 2,2.58869 2,9.22076 0,4.51949 -0.419,7.77924 -1,7.77924 -0.55,0 -1,1.8 -1,4 0,2.2 -0.45,4 -1,4 -0.55,0 -1,1.8 -1,4 0,2.2 -0.45,4 -1,4 -0.55,0 -1,0.9 -1,2 0,1.1 -0.45,2 -1,2 -0.5556,0 -1,2.66667 -1,6 0,5.33333 0.2222,6 2,6 1.7333,0 2,0.66667 2,5 0,2.75 0.45,5 1,5 0.55,0 1,0.9 1,2 0,1.1 0.45,2 1,2 0.55,0 1,1.35 1,3 0,1.65 0.45,3 1,3 0.55,0 1,0.9 1,2 0,1.1 0.45,2 1,2 0.55,0 1,1.18472 1,2.6327 0,1.47407 0.9761,3.47927 2.2179,4.5563 1.8341,1.59068 1.9694,2.07718 0.7821,2.811 -1.1873,0.73382 -1.052,1.22032 0.7821,2.811 1.6946,1.4697 2.2179,3.01672 2.2179,6.5563 0,2.54798 -0.45,4.6327 -1,4.6327 -0.55,0 -1,1.35 -1,3 0,2.33333 -0.4444,3 -2,3 -1.3333,0 -2,0.66667 -2,2 0,1.1 -0.45,2 -1,2 -0.55,0 -1,1.35 -1,3 0,1.65 -0.45,3 -1,3 -0.55,0 -1,2.25 -1,5 0,2.75 -0.45,5 -1,5 -0.55,0 -1,0.9 -1,2 0,1.1 -0.45,2 -1,2 -0.55,0 -1,0.9 -1,2 0,1.25062 -0.6667,2 -1.7792,2 -0.9786,0 -2.428,0.9 -3.2208,2 -0.7928,1.1 -2.0493,2 -2.7922,2 -1.8313,0 -4.2078,2.50119 -4.2078,4.42857 0,0.86429 -0.45,1.57143 -1,1.57143 -0.55,0 -1,1.35 -1,3 0,1.65 0.45,3 1,3 0.55,0 1,0.9 1,2 0,1.1 -0.45,2 -1,2 -0.55,0 -1,1.35 -1,3 0,1.65 0.45,3 1,3 0.55,0 1,1.70066 1,3.77924 0,2.63207 0.6071,4.21681 2,5.22076 2.0606,1.4852 2.8484,7 1,7 -0.5714,0 -1,3 -1,7 0,4 0.4286,7 1,7 0.5833,0 1,3.33333 1,8 0,4.66667 0.4167,8 1,8 0.55,0 1,0.9 1,2 0,1.1 -0.45,2 -1,2 -0.55,0 -1,1.35 -1,3 0,1.65 0.45,3 1,3 0.55,0 1,1.8 1,4 0,2.2 0.45,4 1,4 0.55,0 1,0.9 1,2 0,1.1 0.45,2 1,2 0.55,0 1,2.25 1,5 0,2.75 0.45,5 1,5 0.5556,0 1,2.66667 1,6 0,3.33333 0.4444,6 1,6 0.5833,0 1,3.33333 1,8 0,4.66667 -0.4167,8 -1,8 -0.6,0 -1,4 -1,10 0,6 -0.4,10 -1,10 -0.55,0 -1,1.8 -1,4 0,2.2 -0.45,4 -1,4 -0.6,0 -1,4 -1,10 0,6 -0.4,10 -1,10 -0.5556,0 -1,2.66667 -1,6 0,3.33333 -0.4444,6 -1,6 -0.55,0 -1,1.8 -1,4 0,2.2 -0.45,4 -1,4 -0.5926,0 -1,3.66667 -1,9 0,5.33333 -0.4074,9 -1,9 -0.55,0 -1,1.8 -1,4 0,2.2 -0.45,4 -1,4 -0.55,0 -1,1.8 -1,4 0,2.2 -0.45,4 -1,4 -0.55,0 -1,2.25 -1,5 0,2.75 -0.45,5 -1,5 -0.5714,0 -1,3 -1,7 0,4 -0.4286,7 -1,7 -0.55,0 -1,0.9 -1,2 0,1.1 -0.45,2 -1,2 -0.55,0 -1,2.25 -1,5 0,2.75 -0.45,5 -1,5 -0.55,0 -1,0.9 -1,2 0,1.1 -0.45,2 -1,2 -0.55,0 -1,0.9 -1,2 0,1.1 -0.45,2 -1,2 -0.55,0 -1,1.35 -1,3 0,1.65 -0.45,3 -1,3 -0.55,0 -1,1.35 -1,3 0,1.65 -0.45,3 -1,3 -0.55,0 -1,1.35 -1,3 0,1.65 -0.45,3 -1,3 -0.55,0 -1,1.35 -1,3 0,1.65 -0.45,3 -1,3 -0.55,0 -1,0.9 -1,2 0,1.1 -0.45,2 -1,2 -0.55,0 -1,1.35 -1,3 0,1.65 -0.45,3 -1,3 -0.55,0 -1,0.9 -1,2 0,1.1 -0.45,2 -1,2 -0.5556,0 -1,2.6667 -1,6 0,3.3333 -0.4444,6 -1,6 -0.55,0 -1,0.9 -1,2 0,1.1 -0.45,2 -1,2 -0.55,0 -1,0.9 -1,2 0,1.1 -0.45,2 -1,2 -0.55,0 -1,1.35 -1,3 0,1.65 -0.45,3 -1,3 -0.55,0 -1,1.35 -1,3 0,1.65 -0.45,3 -1,3 -0.55,0 -1,2.25 -1,5 0,2.75 -0.45,5 -1,5 -0.5556,0 -1,2.6667 -1,6 0,3.3333 -0.4444,6 -1,6 -1.5586,0 -1.3161,23.6858 0.25,24.4167 1,0.4666 1,0.7 0,1.1666 -0.7514,0.3507 -1.25,2.5445 -1.25,5.5 0,2.7042 -0.45,4.9167 -1,4.9167 -0.55,0 -1,1.35 -1,3 0,1.65 -0.45,3 -1,3 -0.55,0 -1,0.9 -1,2 0,1.1 -0.45,2 -1,2 -0.55,0 -1,1.8 -1,4 0,2.2 -0.45,4 -1,4 -0.55,0 -1,1.35 -1,3 0,1.65 -0.45,3 -1,3 -0.5556,0 -1,2.6667 -1,6 0,3.3333 0.4444,6 1,6 0.6154,0 1,5 1,13 0,8 0.3846,13 1,13 0.55,0 1,1.35 1,3 0,1.65 0.45,3 1,3 0.55,0 1,1.8 1,4 0,2.2 0.45,4 1,4 0.6061,0 1,4.3333 1,11 0,6.6667 -0.3939,11 -1,11 -0.55,0 -1,1.35 -1,3 0,1.65 -0.45,3 -1,3 -0.55,0 -1,1.35 -1,3 0,1.65 -0.45,3 -1,3 -0.55,0 -1,0.6868 -1,1.5263 0,1.9845 -8.4892,10.4737 -10.4737,10.4737 -0.8395,0 -1.5263,0.45 -1.5263,1 0,0.55 -0.7195,1 -1.5988,1 -0.8793,0 -2.8599,1.35 -4.4012,3 -1.5413,1.65 -3.4225,3 -4.1805,3 -0.7579,0 -2.0267,0.9 -2.8195,2 -0.7928,1.1 -2.0525,2 -2.7992,2 -0.7467,0 -3.087,1.8 -5.2008,4 -2.1138,2.2 -4.3729,4 -5.0204,4 -0.6474,0 -2.4383,1.35 -3.9796,3 -1.5413,1.65 -3.5219,3 -4.4012,3 -0.8793,0 -1.5988,0.45 -1.5988,1 0,0.55 -1.4625,1.0061 -3.25,1.0137 -7.2454,0.03 -7.5259,0.365 -6.9724,8.3165 0.2745,3.9434 0.8868,7.3198 1.3608,7.5031 0.4739,0.1834 0.8616,3.4459 0.8616,7.25 0,3.9445 0.4297,6.9167 1,6.9167 0.6222,0 1,5.6667 1,15 0,9.3333 0.3778,15 1,15 0.6364,0 1,8 1,22 0,14 0.3636,22 1,22 0.55,0 1,0.9 1,2 0,1.1 0.45,2 1,2 0.55,0 1,0.9 1,2 0,1.1 0.45,2 1,2 0.55,0 1,1.35 1,3 0,1.65 0.45,3 1,3 0.55,0 1,1.35 1,3 0,1.65 0.45,3 1,3 0.55,0 1,1.35 1,3 0,1.65 0.45,3 1,3 0.55,0 1,1.35 1,3 0,1.65 0.45,3 1,3 0.55,0 1,1.35 1,3 0,1.65 0.45,3 1,3 0.55,0 1,1.8 1,4 0,2.2 0.45,4 1,4 0.55,0 1,2.25 1,5 0,2.75 0.45,5 1,5 0.55,0 1,0.9 1,2 0,1.1 0.45,2 1,2 0.55,0 1,1.8 1,4 0,2.2 0.45,4 1,4 0.55,0 1,0.9 1,2 0,1.1 0.45,2 1,2 0.55,0 1,1.8 1,4 0,2.2 0.45,4 1,4 0.55,0 1,1.8 1,4 0,2.2 0.45,4 1,4 0.55,0 1,2.25 1,5 0,2.75 0.45,5 1,5 0.55,0 1,1.8 1,4 0,2.2 0.45,4 1,4 0.5556,0 1,2.6667 1,6 0,3.3333 0.4444,6 1,6 0.55,0 1,1.35 1,3 0,1.65 0.45,3 1,3 0.5714,0 1,3 1,7 0,4 0.4286,7 1,7 0.5714,0 1,3 1,7 0,4 0.4286,7 1,7 0.55,0 1,1.8 1,4 0,2.2 0.45,4 1,4 0.55,0 1,1.8 1,4 0,2.2 0.45,4 1,4 1.573,0 1.3287,31.6799 -0.25,32.4167 -1,0.4666 -1,0.7 0,1.1666 0.9054,0.4225 1.25,4.1445 1.25,13.5 0,7.9445 0.3849,12.9167 1,12.9167 0.55,0 1,1.35 1,3 0,1.65 0.45,3 1,3 0.55,0 1,0.9 1,2 0,1.1 -0.45,2 -1,2 -0.5714,0 -1,3 -1,7 0,4 0.4286,7 1,7 0.5556,0 1,2.6667 1,6 0,3.3333 0.4444,6 1,6 0.55,0 1,0.8625 1,1.9167 0,1.0541 0.5625,2.1791 1.25,2.5 1,0.4666 1,0.7 0,1.1666 -1.4791,0.6903 -1.7022,6.4167 -0.25,6.4167 0.5714,0 1,3 1,7 0,4 0.4286,7 1,7 0.55,0 1,1.8 1,4 0,2.2 0.45,4 1,4 0.55,0 1,2.25 1,5 0,2.75 0.45,5 1,5 0.55,0 1,1.8 1,4 0,2.2 0.45,4 1,4 0.5714,0 1,3 1,7 0,4 0.4286,7 1,7 0.5833,0 1,3.3333 1,8 0,4.6667 -0.4167,8 -1,8 -0.5926,0 -1,3.6667 -1,9 0,5.3333 -0.4074,9 -1,9 -0.55,0 -1,0.9 -1,2 0,1.1 -0.45,2 -1,2 -0.55,0 -1,0.9 -1,2 0,1.1 -0.45,2 -1,2 -0.55,0 -1,1.8 -1,4 0,2.2 -0.45,4 -1,4 -0.55,0 -1,0.9 -1,2 0,1.1 -0.45,2 -1,2 -1.4435,0 -1.2326,3.7248 0.25,4.4167 1,0.4666 1,0.7 0,1.1666 -0.8456,0.3947 -1.25,3.1445 -1.25,8.5 0,4.6111 -0.4175,7.9167 -1,7.9167 -0.55,0 -1,2.25 -1,5 0,2.75 0.45,5 1,5 1.5345,0 1.1866,6.9562 -0.4286,8.5714 -0.7857,0.7857 -2.1357,1.4286 -3,1.4286 -0.9047,0 -1.5714,0.8485 -1.5714,2 0,1.1 0.45,2 1,2 0.55,0 1,1.7007 1,3.7792 0,2.6321 0.6071,4.2168 2,5.2208 1.1,0.7928 2,2.5116 2,3.8195 0,1.3529 1.2933,3.5862 3,5.1805 1.65,1.5413 3,3.3261 3,3.9661 0,0.6401 2.25,3.3553 5,6.0339 2.75,2.6786 5,5.5744 5,6.4351 0,0.8607 0.45,1.5649 1,1.5649 0.55,0 1,1.35 1,3 0,1.65 0.45,3 1,3 0.55,0 1,1.1603 1,2.5784 0,1.7009 1.3613,3.8863 4,6.4216 2.2345,2.1469 4,4.7921 4,5.993 0,2.3322 -2.1515,5.007 -4.0274,5.007 -0.6436,0 -2.4313,1.35 -3.9726,3 -1.5413,1.65 -3.5219,3 -4.4012,3 -0.8793,0 -1.5988,0.45 -1.5988,1 0,0.55 -0.7071,1 -1.5714,1 -1.8311,0 -4.4286,2.3461 -4.4286,4 0,1.6539 -2.5975,4 -4.4286,4 -1.9266,0 -2.204,5.5381 -0.3214,6.4167 1,0.4666 1,0.7 0,1.1666 -0.6879,0.3211 -1.25,2.3445 -1.25,4.5 0,2.1542 -0.45,3.9167 -1,3.9167 -0.5714,0 -1,3 -1,7 0,4 -0.4286,7 -1,7 -0.55,0 -1,2.25 -1,5 0,2.75 -0.45,5 -1,5 -0.55,0 -1,0.69 -1,1.5333 0,1.7701 -6.3793,8.4667 -8.0655,8.4667 -0.6226,0 -2.3932,1.35 -3.9345,3 -1.5413,1.65 -3.4225,3 -4.1805,3 -0.7579,0 -2.0267,0.9 -2.8195,2 -0.7928,1.1 -2.2422,2 -3.2208,2 -1.1125,0 -1.7792,0.7494 -1.7792,2 0,1.1 -0.45,2 -1,2 -0.55,0 -1,0.9 -1,2 0,1.1 -0.45,2 -1,2 -0.55,0 -1,0.9 -1,2 0,1.8667 -0.6667,2 -10,2 -6,0 -10,-0.4 -10,-1 z M 936,927 c 0,-4 -0.4286,-7 -1,-7 -1.547,0 -1.3059,-19.69059 0.25,-20.41667 1,-0.46666 1,-0.7 0,-1.16666 C 933.7709,897.7264 933.5478,892 935,892 c 0.55,0 1,-0.9 1,-2 0,-1.1 -0.45,-2 -1,-2 -0.55,0 -1,-1.35 -1,-3 0,-1.65 0.45,-3 1,-3 0.55,0 1,-2.25 1,-5 0,-2.75 0.45,-5 1,-5 0.5926,0 1,-3.66667 1,-9 0,-5.33333 0.4074,-9 1,-9 0.55,0 1,-1.8 1,-4 0,-2.2 0.45,-4 1,-4 0.55,0 1,-1.8 1,-4 0,-2.2 0.45,-4 1,-4 0.55,0 1,-1.25066 1,-2.77924 0,-1.63207 0.8255,-3.37425 2,-4.22076 1.5199,-1.09551 2,-2.58869 2,-6.22076 0,-2.62858 0.45,-4.77924 1,-4.77924 0.55,0 1,-1.35 1,-3 0,-1.65 0.45,-3 1,-3 0.55,0 1,-2.25 1,-5 0,-2.75 0.45,-5 1,-5 0.55,0 1,-1.7625 1,-3.91667 0,-2.15555 0.5621,-4.17896 1.25,-4.5 1,-0.46666 1,-0.7 0,-1.16666 -0.8233,-0.38421 -1.25,-2.94445 -1.25,-7.5 0,-6.25 -0.1928,-6.91667 -2,-6.91667 -1.5556,0 -2,-0.66667 -2,-3 0,-1.65 -0.45,-3 -1,-3 -0.55,0 -1,-0.9 -1,-2 0,-1.1 -0.45,-2 -1,-2 -0.55,0 -1,-1.8 -1,-4 0,-3.1679 -0.3701,-4 -1.7792,-4 -0.9786,0 -2.428,0.9 -3.2208,2 -0.7952,1.10324 -2.5887,2 -4,2 -1.4113,0 -3.2048,0.89676 -4,2 -0.7928,1.1 -2.1428,2 -3,2 -0.8572,0 -2.2072,0.9 -3,2 -1.0039,1.39291 -2.5887,2 -5.2208,2 -2.0785,0 -3.7792,0.45 -3.7792,1 0,0.55 -1.6195,1 -3.5988,1 -2.7092,0 -4.2915,0.74155 -6.4012,3 -1.5413,1.65 -3.5219,3 -4.4012,3 -0.8793,0 -1.5988,0.45 -1.5988,1 0,0.55 -0.9,1 -2,1 -1.1,0 -2,0.45 -2,1 0,0.55 -1.35,1 -3,1 -1.65,0 -3,0.45 -3,1 0,0.59259 -3.6667,1 -9,1 -5.3333,0 -9,-0.40741 -9,-1 0,-0.55 -0.9,-1 -2,-1 -1.5429,0 -2,0.66667 -2,2.91667 0,1.60416 0.5625,3.1449 1.25,3.42387 0.9438,0.38294 0.8825,0.7895 -0.25,1.65946 -1.1325,0.86996 -1.1938,1.27652 -0.25,1.65946 1.4813,0.60106 1.7133,8.34054 0.25,8.34054 -0.55,0 -1,1.35 -1,3 0,1.65 0.45,3 1,3 0.55,0 1,2.2125 1,4.91667 0,2.95555 0.4986,5.14934 1.25,5.5 1,0.46666 1,0.7 0,1.16666 C 871.721,822.29685 871.4834,836 873,836 c 0.55,0 1,0.9 1,2 0,1.1 0.45,2 1,2 0.55,0 1,1.8 1,4 0,2.2 0.45,4 1,4 0.55,0 1,0.80066 1,1.77924 0,0.97858 0.9,2.42792 2,3.22076 1.1,0.79284 2,2.14284 2,3 0,0.85716 0.9,2.20716 2,3 1.1,0.79284 2,2.06163 2,2.81955 0,0.75792 1.35,2.63912 3,4.18045 1.65,1.54133 3,3.52188 3,4.40121 0,0.87933 0.6955,1.59879 1.5455,1.59879 0.85,0 2.65,1.10455 4,2.45455 1.35,1.35 2.4545,3.15 2.4545,4 0,0.85 0.45,1.54545 1,1.54545 0.55,0 1,2.04545 1,4.54545 0,3.49271 0.5685,5.11394 2.4546,7 1.35,1.35 3.15,2.45455 4,2.45455 0.85,0 1.5454,0.71946 1.5454,1.59879 0,0.87933 1.35,2.85988 3,4.40121 1.65,1.54133 3,3.52188 3,4.40121 0,0.87933 0.45,1.59879 1,1.59879 0.55,0 1,0.9 1,2 0,1.1 0.45,2 1,2 0.55,0 1,0.9 1,2 0,1.1 0.45,2 1,2 0.55,0 1,1.14545 1,2.54545 0,2.80644 4.0246,7.45455 6.4546,7.45455 0.85,0 1.5454,0.80066 1.5454,1.77924 0,0.97858 0.9,2.42792 2,3.22076 1.1,0.79284 2,2.24218 2,3.22076 0,0.97858 0.45,1.77924 1,1.77924 0.5714,0 1,-3 1,-7 z"
     id="path2987"
     inkscape:connector-curvature="0" />
</svg>
