<?xml version="1.0" encoding="UTF-8" standalone="no"?>
<!-- Created with Inkscape (http://www.inkscape.org/) -->

<svg
   xmlns:dc="http://purl.org/dc/elements/1.1/"
   xmlns:cc="http://creativecommons.org/ns#"
   xmlns:rdf="http://www.w3.org/1999/02/22-rdf-syntax-ns#"
   xmlns:svg="http://www.w3.org/2000/svg"
   xmlns="http://www.w3.org/2000/svg"
   xmlns:sodipodi="http://sodipodi.sourceforge.net/DTD/sodipodi-0.dtd"
   xmlns:inkscape="http://www.inkscape.org/namespaces/inkscape"
   id="svg2"
   version="1.1"
   inkscape:version="0.48.2 r9819"
   width="859.39423"
   height="729.87457"
   sodipodi:docname="lecostumehistori03raci_0033j.png">
  <metadata
     id="metadata8">
    <rdf:RDF>
      <cc:Work
         rdf:about="">
        <dc:format>image/svg+xml</dc:format>
        <dc:type
           rdf:resource="http://purl.org/dc/dcmitype/StillImage" />
        <dc:title></dc:title>
      </cc:Work>
    </rdf:RDF>
  </metadata>
  <defs
     id="defs6" />
  <sodipodi:namedview
     pagecolor="#ffffff"
     bordercolor="#666666"
     borderopacity="1"
     objecttolerance="10"
     gridtolerance="10"
     guidetolerance="10"
     inkscape:pageopacity="0"
     inkscape:pageshadow="2"
     inkscape:window-width="1600"
     inkscape:window-height="876"
     id="namedview4"
     showgrid="false"
     fit-margin-top="0"
     fit-margin-left="0"
     fit-margin-right="0"
     fit-margin-bottom="0"
     inkscape:zoom="0.70710678"
     inkscape:cx="112.93219"
     inkscape:cy="357.90094"
     inkscape:window-x="0"
     inkscape:window-y="24"
     inkscape:window-maximized="1"
     inkscape:current-layer="svg2" />
  <path
     style="fill:#000000"
     d="m 195.26192,728.14491 c -1.31165,-1.44935 -1.65499,-3.93886 -1.65499,-12 l 0,-10.17126 -7.25,-0.11848 c -3.9875,-0.0652 -7.77857,-0.0532 -8.42459,0.0265 -0.64603,0.0797 -1.46009,-0.31693 -1.80902,-0.88152 -0.38789,-0.6276 -6.41745,-1.0265 -15.51639,-1.0265 -8.84262,0 -15.13277,-0.40582 -15.5,-1 -0.33992,-0.55 -1.94148,-1 -3.55902,-1 -1.61754,0 -2.94098,-0.4187 -2.94098,-0.93045 0,-0.51175 -1.0125,-1.07425 -2.25,-1.25 -3.03237,-0.43066 -3.7947,-6.92614 -1.0547,-8.98671 2.59496,-1.9515 4.3047,-5.3749 4.3047,-8.61927 0,-1.54746 0.52093,-3.3345 1.15762,-3.97119 0.87008,-0.87008 0.87325,-1.50026 0.0128,-2.53708 -0.62967,-0.75871 -1.31196,-3.23464 -1.5162,-5.50208 -0.20424,-2.26744 -1.10998,-5.24991 -2.01276,-6.62773 -0.90282,-1.37782 -1.64146,-3.6194 -1.64146,-4.98129 0,-1.36189 -0.45,-2.75428 -1,-3.0942 -0.55,-0.33992 -1,-1.49148 -1,-2.55902 0,-1.06754 -0.40077,-1.94098 -0.89059,-1.94098 -0.83321,0 -1.37698,-2.20807 -2.74165,-11.13297 -0.32795,-2.14476 -0.10742,-3.9099 0.53837,-4.30901 1.36979,-0.84658 1.45154,-6.55802 0.0939,-6.55802 -0.55,0 -1,-1.08247 -1,-2.4055 0,-2.42036 -3.85279,-10.80685 -5.25,-11.42783 -0.4125,-0.18334 -0.75,-0.72603 -0.75,-1.206 0,-0.47996 -1.39369,-3.23635 -3.09708,-6.12531 l -3.09708,-5.25266 -0.46687,-22.04135 c -0.25679,-12.12274 -0.43112,-25.75385 -0.38741,-30.29135 0.39502,-41.00615 0.14753,-44.19917 -4.06823,-52.48643 -0.48583,-0.95504 -0.88333,-3.76754 -0.88333,-6.25 0,-2.48246 -0.45,-4.51357 -1,-4.51357 -0.55,0 -1,-2.41648 -1,-5.36995 l 0,-5.36995 -4.7121,-0.53112 c -5.325626,-0.60027 -7.201126,0.81151 -7.256096,5.462 -0.0175,1.48004 -0.4818,2.9691 -1.0318,3.30902 -0.55,0.33992 -1,2.39148 -1,4.55902 0,2.16754 -0.45,3.94098 -1,3.94098 -0.55,0 -1,1.54844 -1,3.44098 0,1.89254 -0.45,3.7191 -1,4.05902 -0.55,0.33992 -1,1.49148 -1,2.55902 0,1.06754 -0.39893,1.94098 -0.8865,1.94098 -0.92193,0 -1.87097,3.65428 -2.72689,10.5 -0.54929,4.39326 -1.0677,5.90092 -4.24462,12.3445 -1.17809,2.38948 -2.14199,4.77371 -2.14199,5.29831 0,0.52459 -0.9,2.81659 -2,5.09333 -1.1,2.27673 -2,4.62175 -2,5.21114 0,0.5894 -0.9,1.63369 -2,2.32065 -1.1,0.68696 -2,2.1452 -2,3.24054 0,1.09534 -0.45,1.99153 -1,1.99153 -0.55,0 -1,0.88417 -1,1.96482 0,1.08065 -0.9,2.44648 -2,3.03518 -1.81829,0.97312 -2,2.09382 -2,12.33518 0,6.19565 -0.40391,11.69232 -0.89757,12.21482 -0.49367,0.5225 -1.13243,2.75 -1.41947,4.95 -0.67397,5.16563 -1.62688,9.48999 -2.6443,12 -1.02977,2.54046 -2.75924,8.97306 -3.62961,13.5 -0.37011,1.925 -0.77963,10.23036 -0.91004,18.45635 -0.15925,10.04441 -0.60854,15.08016 -1.36806,15.33333 -0.62203,0.20734 -1.13095,1.28162 -1.13095,2.38727 0,1.16929 -0.8367,2.22909 -2,2.5333 -2.56389,0.67047 -2.56389,1.90903 0,2.5795 1.66591,0.43564 2,1.36401 2,5.55761 0,2.76903 0.37276,5.26498 0.82835,5.54655 0.45559,0.28158 0.88247,2.88793 0.94862,5.79189 0.0661,2.90397 0.59339,5.43765 1.17165,5.63041 0.57826,0.19275 1.05138,2.53977 1.05138,5.2156 0,3.72923 0.5521,5.46088 2.36467,7.41667 1.30057,1.40334 2.61385,2.55152 2.9184,2.55152 0.30455,0 2.42717,1.8 4.71693,4 2.34452,2.25261 5.14801,4 6.41755,4 1.37733,0 3.69897,1.6092 5.96763,4.13634 3.31177,3.68909 3.68091,4.63519 3.41404,8.75 -0.26373,4.06647 -0.59573,4.65371 -2.79922,4.95132 -1.375,0.18572 -3.4,1.15432 -4.5,2.15246 -1.80419,1.63711 -6.45869,2.33401 -20,2.9945 -0.55,0.0268 -2.46877,-0.23573 -4.26394,-0.58347 -1.85053,-0.35845 -4.57876,-0.0876 -6.3002,0.62542 -2.47371,1.02464 -3.5022,1.00829 -5.5511,-0.0882 -2.13739,-1.1439 -2.64891,-1.12896 -3.40816,0.0995 -0.71145,1.15116 -1.14611,1.19265 -2.13496,0.20379 -0.77234,-0.77236 -4.1317,-1.24166 -8.888,-1.24166 -7.31004,0 -13.95364,-1.89277 -13.95364,-3.97542 0,-0.45591 -1.31673,-1.28794 -2.92607,-1.84896 -2.1555396,-0.75143 -3.0113696,-1.76274 -3.2499996,-3.84044 -0.21943,-1.9105 -1.20915,-3.24272 -3.06784,-4.12944 -2.75815,-1.31583 -3.17068,-2.28191 -4.17717996,-9.7822 -0.47255,-3.52132 -0.15933,-4.47459 2.29999996,-7 3.30248,-3.39122 7.12109,-10.85104 7.12109,-13.91137 0,-1.16169 0.4063696,-2.53967 0.9030496,-3.06217 0.89919,-0.94595 1.6746,-5.7097 2.72696,-16.75334 0.48048,-5.04216 0.27868,-6.04126 -1.5385,-7.61729 -1.69156,-1.46709 -2.0830696,-2.93888 -2.0473796,-7.69667 0.0433,-5.77132 1.8292796,-14.58944 3.2407496,-16.00092 1.08321,-1.0832 0.85566,-5.38178 -0.28488,-5.38178 -0.57062,0 -1,-2.98033 -1,-6.94098 0,-4.03326 -0.46793,-7.23018 -1.11698,-7.63132 -1.3068396,-0.80767 -0.27834,-36.70221 1.28732,-44.9277 0.52344,-2.75 1.19897,-6.46667 1.50118,-8.25927 0.3022,-1.7926 0.94974,-3.50665 1.43897,-3.80902 0.48923,-0.30236 0.88951,-1.42319 0.88951,-2.49073 0,-1.06754 0.45,-1.94098 1,-1.94098 0.55,0 1,-1.48529 1,-3.30064 0,-3.44608 1.95639,-8.6781 3.25,-8.69156 0.4125,-0.004 0.75,-0.68891 0.75,-1.52137 0,-1.46857 0.41801,-2.53024 2.84387,-7.22286 0.63587,-1.23004 1.15613,-3.12885 1.15613,-4.21958 0,-1.09074 0.9,-3.58553 2,-5.54399 1.53562,-2.73404 2,-5.41444 2,-11.54399 0,-4.39073 0.3975,-8.76454 0.88333,-9.71958 2.7762,-5.45741 3.19133,-7.41468 2.9174,-13.75513 -0.26105,-6.04207 -0.56466,-7.01024 -2.30073,-7.33664 -1.1,-0.20682 -2.33061,-0.88647 -2.73469,-1.51034 -1.04872,-1.61918 -0.93985,-7.63432 0.13818,-7.63432 1.01687,0 1.94048,-6.43554 2.72601,-18.99442 0.29222,-4.67193 0.89926,-8.94693 1.34897,-9.5 0.44972,-0.55307 0.36845,-3.70558 -0.1806,-7.00558 -1.07216,-6.44417 0.52426,-40.36255 2.26828,-48.19282 0.51362,-2.30605 0.93385,-6.21699 0.93385,-8.69098 0,-2.47399 0.45,-4.77628 1,-5.1162 0.55,-0.33992 1,-1.94148 1,-3.55902 0,-1.61754 0.45,-2.94098 1,-2.94098 0.55,0 1,-1.15458 1,-2.56574 0,-1.41116 0.45207,-3.41044 1.0046,-4.44285 0.69372,-1.29623 0.64022,-2.67683 -0.17288,-4.46139 -0.90068,-1.97678 -0.90176,-2.85998 -0.005,-3.75715 0.64508,-0.64508 1.17287,-3.30631 1.17287,-5.91385 0,-2.60754 0.45,-5.0191 1,-5.35902 2.2264,-1.37599 0.21014,-13.46661 -2.25,-13.4922 -0.41209,-0.004 -0.74959,-1.8078 -0.74959,-4.0078 0,-2.2 -0.45,-4 -1,-4 -0.55,0 -1,-2.25 -1,-5 0,-2.75 -0.45,-5 -1,-5 -0.55,0 -1,-1.13111 -1,-2.51357 0,-1.38246 -0.3975,-3.29496 -0.88333,-4.25 -0.48583,-0.95504 -1.32562,-2.86143 -1.8662,-4.23643 -0.54058,-1.375 -1.44179,-3.625 -2.00269,-5 -0.5609,-1.375 -1.60216,-4.525 -2.31392,-7 -0.71177,-2.475 -1.68104,-5.01778 -2.15395,-5.65061 -1.07756,-1.44198 -0.29445,-39.08476 1.03706,-49.84939 0.54424,-4.4 1.51126,-10.025 2.14892,-12.5 1.43368,-5.56462 2.95861,-13.21541 3.68736,-18.5 0.30338,-2.2 0.95551,-4.4275 1.44918,-4.95 0.49366,-0.5225 0.89757,-2.3975 0.89757,-4.16667 0,-1.76916 0.3375,-3.36666 0.75,-3.55 1.05885,-0.4706 7.25,-12.83052 7.25,-14.47379 0,-0.74775 0.45,-1.35954 1,-1.35954 0.55,0 1,-0.48142 1,-1.06982 0,-0.58841 1.25126,-2.95091 2.78057,-5.25 1.52932,-2.2991 3.40536,-5.41768 4.16898,-6.93018 0.76363,-1.5125 1.76237,-2.75 2.21943,-2.75 0.45706,0 0.83102,-3.6 0.83102,-8 0,-4.4 0.42413,-8 0.9425,-8 0.51838,0 1.08088,-1.9125 1.25,-4.25 l 0.3075,-4.25 5.5,-0.66369 c 8.46659,-1.02167 10.87882,-1.87913 11.58998,-4.11983 1.38273,-4.35658 4.01168,-6.03579 8.36076,-5.34035 l 4.04926,0.64751 0,-5.55364 c 0,-4.17138 -0.49778,-6.08793 -2,-7.70037 -1.1,-1.18072 -2,-3.1869 -2,-4.45819 0,-2.9139 -1.10592,-2.9154 -4.67327,-0.006 -3.78267,3.08464 -11.52763,5.59219 -12.08722,3.91342 -0.2234,-0.67052 -1.25284,-1.21886 -2.28766,-1.21886 -2.15029,0 -3.47747,-2.12249 -5.50511,-8.804 -2.49137,-8.20961 -1.72265,-14.653358 2.82684,-23.696 4.16314,-8.274712 4.89328,-9.5 5.66099,-9.5 0.43345,0 0.58311,-1.072252 0.33259,-2.382783 -0.25053,-1.310531 0.0369,-2.687088 0.63867,-3.059017 2.34887,-1.451681 1.01643,-4.120081 -2.90583,-5.819328 -3.69989,-1.60291 -4,-2.029536 -4,-5.68621 0,-2.213685 0.58323,-4.305176 1.32541,-4.752972 0.72898,-0.439829 1.61485,-1.58719 1.96862,-2.54969 0.38092,-1.036391 1.67544,-1.75 3.17458,-1.75 1.39227,0 2.53139,-0.373959 2.53139,-0.83102 0,-0.457061 1.2375,-1.469561 2.75,-2.25 1.5125,-0.780439 3.33802,-2.20648 4.0567,-3.16898 0.71869,-0.9625 1.68619,-1.75 2.15,-1.75 0.46382,0 2.37129,-1.4625 4.23884,-3.25 7.61057,-7.2843552 10.80469,-8.4865972 12.7735,-4.807845 0.85309,1.594009 1.99724,1.90771 6.382716,1.75 l 5.3433,-0.192155 -0.47667,-4.2419292 c -0.59005,-5.250884 1.05546,-7.591647 4.93636,-7.022051 1.68964,0.247987 2.96608,-0.108523 3.2755,-0.914844 0.59367,-1.54709696 4.17199,-1.77378796 5.06975,-0.32117596 0.33992,0.54999996 1.85148,0.99999996 3.35902,0.99999996 3.16168,0 5.14098,1.617021 5.14098,4.2 0,1.247421 0.75813,1.8 2.46958,1.8 1.35827,0 4.07196,0.9 6.03042,2 1.95846,1.1000002 5.25715,2.0000002 7.33042,2.0000002 4.03918,0 6.16958,1.396771 6.16958,4.045012 0,0.904757 0.9,2.459502 2,3.454988 2.54897,2.306783 2.52409,4.506064 -0.10388,9.184956 -1.34411,2.393069 -1.70524,3.87867 -1,4.11375 0.60713,0.202378 1.10388,1.230461 1.10388,2.284627 0,1.054167 0.45,1.916667 1,1.916667 0.55,0 1,0.9 1,2 0,1.1 0.45,2 1,2 0.55,0 1,0.873442 1,1.940983 0,1.067541 0.45,2.219098 1,2.559017 0.55,0.339919 1,1.406953 1,2.371188 0,0.964234 0.9,3.615939 2,5.892676 2.13074,4.410128 2.65326,9.236136 1,9.236136 -0.55556,0 -1,2.666667 -1,6 0,3.333333 0.44444,6 1,6 0.55,0 1,0.896187 1,1.991526 0,1.095339 0.9,2.553586 2,3.240547 2.56057,1.599102 2.56057,5.249857 0,7.998297 -1.47367,1.58181 -2,3.529 -2,7.39917 0,2.88884 -0.40775,5.50443 -0.90612,5.81244 -0.49837,0.30801 -0.68291,1.41356 -0.4101,2.45678 0.6329,2.42023 -1.30917,6.10124 -3.21896,6.10124 -0.80659,0 -1.46482,0.91452 -1.46482,2.03518 0,3.27811 -2.97221,6.96482 -5.61501,6.96482 -1.31174,0 -2.38499,0.50248 -2.38499,1.11663 0,0.66998 0.9,0.87544 2.25,0.51366 1.2375,-0.33164 13.3875,-0.60913 27,-0.61664 l 24.75,-0.0136 0,-2.3347 c 0,-1.33194 1.28479,-3.47946 2.99134,-5 2.47192,-2.20249 3.94788,-2.6653 8.5,-2.6653 3.02976,0 5.50866,-0.45 5.50866,-1 0,-0.55 0.9,-1 2,-1 1.1,0 2,-0.45 2,-1 0,-1.28104 7.68686,-1.31569 8.47638,-0.0382 0.34423,0.55697 1.52654,0.61927 2.80902,0.14799 2.49712,-0.91761 7.59325,0.83415 9.6555,3.31901 0.71719,0.86417 2.04955,1.57121 2.96079,1.57121 0.91123,0 2.30547,0.9 3.09831,2 0.79284,1.1 1.98256,2 2.64384,2 0.66127,0 2.52308,1.32076 4.13734,2.93503 2.80937,2.80937 3.42277,2.96087 14.32693,3.53861 23.75824,1.25878 63.89189,1.60944 63.89189,0.55824 0,-1.82407 4.6286,-1.0997 6.5518,1.02533 l 1.8617,2.05721 0.761,-2.05721 c 1.0089,-2.7272 6.057,-2.79991 7.9535,-0.11457 1.3006,1.84151 3.2723,1.97679 37.872,2.59848 20.075,0.36071 68.6215,0.72402 107.8812,0.80736 l 71.3812,0.15152 1.7853,-3.3287 c 2.1593,-4.02603 4.7211,-6.09684 7.5953,-6.1395 3.8743,-0.0575 4.6683,-6.73224 1.1867,-9.97587 -2.0379,-1.89856 -2.0684,-2.13466 -0.5,-3.8677 0.9186,-1.01514 1.6703,-2.07439 1.6703,-2.35388 0,-0.27949 -2.1375,-2.72218 -4.75,-5.4282 -2.6125,-2.70602 -5.875,-6.60134 -7.25,-8.65626 -2.5749,-3.848223 -3.4693,-4.417656 -4.4488,-2.832667 -0.6349,1.027197 -7.2928,-0.507261 -9.3012,-2.143636 -0.8035,-0.654701 -1.25,-3.76782 -1.25,-8.715923 0,-7.042459 0.2416,-7.968048 2.8392,-10.877556 1.5616,-1.749069 3.56,-3.180118 4.441,-3.180118 3.426,0 2.5525,-1.89406 -1.0093,-2.188387 l -3.7709,-0.311613 -0.2966,-5.086287 c -0.2887,-4.951208 -0.1897,-5.157029 3.7286,-7.75 2.2138,-1.465042 4.6015,-2.663713 5.306,-2.663713 0.7045,0 1.843,-0.9 2.5299,-2 0.687,-1.1 2.0468,-2 3.0219,-2 0.9751,0 4.1319,-2.25 7.0151,-5 4.8521,-4.627909 5.6126,-5 10.2187,-5 2.737,0 4.9764,-0.45 4.9764,-1 0,-0.55 1.0984,-1 2.441,-1 1.3425,0 2.7191,-0.45 3.059,-1 0.3399,-0.55 1.7226,-1 3.0726,-1 2.1573,0 5.9721,-1.541667 7.4274,-3.001594 0.9399,-0.942904 5.4973,-2.894878 7.4924,-3.209087 1.0958,-0.172577 2.5597,-1.497475 3.2531,-2.944218 0.723,-1.508499 2.883,-3.279548 5.0642,-4.152299 2.092,-0.8370212 4.3957,-2.2353192 5.1194,-3.1073292 2.0706,-2.494994 8.7901,-2.037004 12.5854,0.857803 2.0643,1.574485 3.9604,2.2452882 5.3325,1.8864792 1.1711,-0.3062392 3.7472,-0.253267 5.7247,0.117717 2.8961,0.543314 3.4496,1.003047 2.8453,2.363521 -0.4126,0.928954 -0.6921,2.941176 -0.6213,4.471605 0.1606,3.467344 -2.5091,6.717402 -5.5179,6.717402 -1.742,0 -2.2778,0.568434 -2.2778,2.416667 0,1.329166 0.553,2.600992 1.2288,2.826278 1.922,0.640647 -1.7875,5.608187 -4.7415,6.349586 -1.368,0.343357 -2.4873,0.864485 -2.4873,1.158064 0,0.293578 1.9476,2.832294 4.3279,5.641592 4.7449,5.599951 7.9482,11.352085 7.0927,12.736339 -0.3011,0.48708 0.1562,1.155566 1.016,1.485526 0.8599,0.329959 1.5634,1.382036 1.5634,2.337949 0,0.955913 0.9,2.552513 2,3.547999 2.193,1.984662 2.633,4.990782 0.8882,6.069117 -0.717,0.443123 -0.8858,2.390936 -0.4754,5.484798 0.3672,2.768021 0.2243,5.052354 -0.3378,5.399725 -1.1542,0.71337 -0.3672,10.11133 1.1026,13.16492 1.5116,3.14059 0.6411,5.70174 -2.4398,7.17839 -2.2032,1.05594 -2.7378,1.98766 -2.7378,4.77118 0,1.90246 -0.5625,4.36663 -1.25,5.47595 -1.0214,1.64808 -0.9911,2.17803 0.1656,2.89778 1.1349,0.70622 0.788,1.50839 -1.75,4.04641 -1.8345,1.83447 -3.1656,4.19766 -3.1656,5.62004 0,1.34995 -0.6724,2.71249 -1.4943,3.02786 -0.8218,0.31537 -1.2267,1.00619 -0.8998,1.53515 1.1397,1.84408 -3.1444,3.76574 -8.6059,3.86026 -4.7493,0.0822 -5.1588,0.23413 -3,1.11306 1.607,0.65427 17.8103,0.89954 45.3599,0.68662 l 42.8599,-0.33126 2.1034,-3 c 1.1568,-1.65 2.7949,-3.54819 3.6401,-4.2182 1.9875,-1.57557 7.2938,-1.62469 8.8367,-0.0818 0.9333,0.93333 1.4667,0.93333 2.4,0 1.448,-1.44799 7.8,-1.61086 7.8,-0.2 0,0.55 1.8,1 4,1 2.2,0 4,0.45 4,1 0,0.55 1.6918,1 3.7595,1 2.6422,0 4.1207,0.57856 4.9753,1.94688 0.9055,1.45001 2.562,2.02425 6.4905,2.25 5.1474,0.2958 5.2823,0.38157 5.5881,3.55312 0.176,1.82556 -0.1527,3.25 -0.75,3.25 -0.5849,0 -1.0634,0.85 -1.0634,1.88889 0,1.185 0.652,1.83713 1.7495,1.75 1.1376,-0.0903 1.8683,0.70034 2.0891,2.26035 0.3027,2.13832 -0.2358,3.88218 -2.8104,9.10076 -0.5592,1.13342 -2.9483,1.56992 -9.7759,1.78609 l -9.0359,0.2861 -0.4283,2.91793 c -0.3462,2.35894 -0.032,2.97464 1.6418,3.21391 2.7741,0.39662 3.4326,6.18539 1.0085,8.86408 -1.619,1.78896 -1.5766,1.92885 0.8667,2.85778 2.4928,0.94775 2.5683,1.23786 2.5454,9.77543 -0.013,4.83927 -0.5056,9.38025 -1.0947,10.09106 -0.7661,0.92438 -0.7414,1.62201 0.087,2.45 2.1722,2.17214 1.2625,5.57586 -2.195,8.21299 -3.1846,2.42906 -3.3314,2.81985 -2.9307,7.8009 0.2321,2.88405 0.8128,6.14373 1.2906,7.24373 0.4778,1.1 1.0967,3.575 1.3752,5.5 0.2786,1.925 0.9815,5.75 1.5621,8.5 1.3325,6.31186 2.9837,14.96082 3.7226,19.5 0.3134,1.925 1.0184,4.05867 1.5667,4.74149 0.5483,0.68282 0.9969,3.50086 0.9969,6.2623 0,2.76144 0.3981,5.26682 0.8846,5.56752 0.4866,0.3007 0.8846,2.51861 0.8846,4.92869 0,2.41008 0.45,4.66008 1,5 0.55,0.33992 1,1.71002 1,3.04467 0,2.61355 1.7711,10.69846 3.057,13.95533 0.4343,1.1 1.0398,3.8 1.3455,6 0.3057,2.2 1.0554,6.025 1.6661,8.5 0.6106,2.475 1.3386,6.525 1.6178,9 0.2791,2.475 0.9139,4.9275 1.4106,5.45 0.4967,0.5225 0.903,2.40844 0.903,4.19098 0,1.78254 0.45,3.5191 1,3.85902 0.55,0.33992 1,2.97648 1,5.85902 0,2.88254 0.404,5.66848 0.8976,6.19098 0.4937,0.5225 1.1432,2.75 1.4434,4.95 0.935,6.85227 1.7629,10.92363 2.6437,13 1.8349,4.32554 3.0966,11.11927 4.6428,25 0.3063,2.75 0.9654,5.4275 1.4647,5.95 0.4993,0.5225 0.9078,2.63344 0.9078,4.69098 0,2.05754 0.45,4.0191 1,4.35902 0.55,0.33992 1,2.36492 1,4.5 0,2.13508 0.4025,4.1307 0.8944,4.43472 0.4919,0.30401 1.1493,2.24306 1.4609,4.30901 0.6611,4.38335 2.1177,12.47358 3.6472,20.25627 0.5945,3.025 1.3368,6.96667 1.6497,8.75927 0.3128,1.7926 0.9691,3.50665 1.4583,3.80902 0.4893,0.30236 0.8895,2.10429 0.8895,4.0043 0,3.31725 0.2682,4.18135 2.8439,9.16384 0.6359,1.23004 1.1561,5.14098 1.1561,8.69098 0,3.55001 0.45,6.73267 1,7.07259 0.55,0.33992 1,2.84148 1,5.55902 0,2.71754 0.45,4.94098 1,4.94098 0.55,0 1,2.22344 1,4.94098 0,2.71754 0.3936,5.18424 0.8747,5.48154 0.481,0.29731 1.1585,2.91137 1.5054,5.80902 1.4077,11.75758 1.8644,14.31035 2.7224,15.21846 0.4936,0.5225 0.8975,2.54767 0.8975,4.50037 0,1.95271 0.7333,6.70021 1.6296,10.55 0.8962,3.8498 1.8379,9.36213 2.0925,12.24963 0.2547,2.8875 0.8714,5.25 1.3705,5.25 0.4991,0 0.9074,1.77344 0.9074,3.94098 0,2.16754 0.45,4.2191 1,4.55902 0.55,0.33992 1,1.68992 1,3 0,1.31008 0.45,2.66008 1,3 0.55,0.33992 1,3.26492 1,6.5 0,3.23508 0.45,6.16008 1,6.5 0.55,0.33992 1,3.26492 1,6.5 0,3.23508 0.45,6.16008 1,6.5 0.55,0.33992 1,3.03992 1,6 0,2.96008 0.45,5.66008 1,6 0.55,0.33992 1,3.06648 1,6.05902 0,2.99254 0.45,5.44098 1,5.44098 0.55,0 1,1.71 1,3.8 0,2.09 0.4064,4.2275 0.9031,4.75 0.4967,0.5225 1.1511,2.975 1.4543,5.45 1.4759,12.0478 2.5385,17.88084 4.0081,22 1.0023,2.80947 1.6109,7.78714 1.62,13.25 0.01,4.8125 0.4173,8.75 0.9095,8.75 0.4922,0 1.1783,1.9125 1.5245,4.25 1.5835,10.6906 2.5518,16.62459 3.4674,21.25 2.2604,11.4193 2.4364,12.02589 5.1503,17.75362 1.1786,2.48751 1.0741,2.99906 -1.0814,5.29348 -2.0855,2.21996 -3.0832,2.5029 -7.9209,2.24638 l -5.5353,-0.29348 -0.3168,-4 c -0.1743,-2.2 -0.7368,-4.4275 -1.25,-4.95 -0.5133,-0.5225 -0.9332,-2.795 -0.9332,-5.05 0,-2.255 -0.4044,-4.5275 -0.8987,-5.05 -0.4944,-0.5225 -1.1717,-4.1 -1.5054,-7.95 -1.1954,-13.79486 -1.7939,-18.01431 -2.6881,-18.95 -0.4993,-0.5225 -0.9078,-2.40844 -0.9078,-4.19098 0,-1.78254 -0.45,-3.5191 -1,-3.85902 -0.55,-0.33992 -1,-2.13992 -1,-4 0,-1.86008 -0.3858,-3.62038 -0.8572,-3.91178 -0.4715,-0.29139 -1.1987,-2.90545 -1.6159,-5.80901 -0.4172,-2.90357 -1.1565,-8.09171 -1.6427,-11.52921 -0.4863,-3.4375 -1.2879,-9.0625 -1.7814,-12.5 -0.4934,-3.4375 -1.443,-8.05 -2.1102,-10.25 -0.6672,-2.2 -1.412,-6.025 -1.6551,-8.5 -0.243,-2.475 -0.8429,-5.4 -1.3329,-6.5 -0.8318,-1.86685 -1.1745,-3.88427 -2.6333,-15.5 -0.3109,-2.475 -0.9716,-4.9275 -1.4683,-5.45 -0.4966,-0.5225 -0.903,-2.85844 -0.903,-5.19098 0,-2.33254 -0.45,-4.5191 -1,-4.85902 -0.55,-0.33992 -1,-1.62648 -1,-2.85902 0,-1.23254 -0.4149,-2.66848 -0.9221,-3.19098 -0.5072,-0.5225 -1.1606,-4.1 -1.4521,-7.95 -0.8249,-10.8956 -1.7378,-16.91384 -2.7228,-17.95 -0.4966,-0.5225 -0.903,-3.245 -0.903,-6.05 0,-2.805 -0.4085,-5.5275 -0.9078,-6.05 -0.4993,-0.5225 -1.1622,-3.2 -1.4732,-5.95 -1.2942,-11.44662 -1.8669,-14.5 -2.7197,-14.5 -0.4946,0 -0.8993,-2.67344 -0.8993,-5.94098 0,-3.26754 -0.45,-6.2191 -1,-6.55902 -0.55,-0.33992 -1,-2.81492 -1,-5.5 0,-2.68508 -0.45,-5.16008 -1,-5.5 -0.55,-0.33992 -1,-3.03992 -1,-6 0,-2.96008 -0.45,-5.66008 -1,-6 -0.55,-0.33992 -1,-1.40148 -1,-2.35902 0,-0.95754 -0.5625,-2.30333 -1.25,-2.99064 -0.6875,-0.68731 -1.3536,-2.23981 -1.4803,-3.45 -0.2651,-2.53341 -1.739,-10.93935 -3.1914,-18.20034 -0.55,-2.75 -1.4452,-7.475 -1.9892,-10.5 -1.2426,-6.9087 -2.9095,-15.30646 -4.0693,-20.5 -0.4913,-2.2 -1.5678,-7.53681 -2.3922,-11.85959 -1.8985,-9.95467 -3.5255,-17.29043 -4.7043,-21.21141 -0.5078,-1.68905 -0.9233,-4.24999 -0.9233,-5.69098 0,-1.44099 -0.45,-2.8981 -1,-3.23802 -0.55,-0.33992 -1,-1.68992 -1,-3 0,-1.31008 -0.3954,-2.62633 -0.8787,-2.925 -0.4832,-0.29867 -1.1502,-3.13773 -1.4821,-6.30902 -0.3319,-3.17129 -1.0858,-8.46598 -1.6753,-11.76598 -0.5896,-3.3 -1.3141,-8.25 -1.6101,-11 -0.296,-2.75 -0.9467,-5.4275 -1.446,-5.95 -0.4993,-0.5225 -0.9078,-2.63344 -0.9078,-4.69098 0,-2.05754 -0.45,-4.0191 -1,-4.35902 -0.55,-0.33992 -1,-2.81492 -1,-5.5 0,-2.68508 -0.45,-5.16008 -1,-5.5 -0.55,-0.33992 -1,-2.36492 -1,-4.5 0,-2.13508 -0.45,-4.16008 -1,-4.5 -0.55,-0.33992 -1,-2.58992 -1,-5 0,-2.41008 -0.45,-4.66008 -1,-5 -0.55,-0.33992 -1,-2.30148 -1,-4.35902 0,-2.05754 -0.4039,-4.16848 -0.8976,-4.69098 -0.4936,-0.5225 -1.1324,-2.75 -1.4194,-4.95 -0.8899,-6.82026 -3.0978,-16.09131 -4.763,-20 -0.4687,-1.1 -1.0452,-5.375 -1.2812,-9.5 -0.236,-4.125 -0.9021,-9.525 -1.4802,-12 -1.0682,-4.57332 -1.4076,-6.22916 -3.2796,-16 -0.5795,-3.025 -1.248,-6.5125 -1.4854,-7.75 -0.3121,-1.62686 -1.1326,-2.25 -2.9623,-2.25 -2.8977,0 -7.9501,2.37921 -9.1316,4.30016 -0.4398,0.71511 -2.2622,2.32076 -4.0497,3.56811 -1.7875,1.24736 -3.25,2.70609 -3.25,3.24164 0,0.53554 -0.9,1.93975 -2,3.12046 -1.4737,1.58181 -2,3.529 -2,7.39917 0,2.88884 -0.45,5.53054 -1,5.87046 -0.55,0.33992 -1.0289,2.72898 -1.0642,5.30902 -0.071,5.21391 -2.0612,15.64971 -3.2014,16.78991 -0.4039,0.40392 -0.7444,1.4469 -0.7566,2.31774 -0.012,0.87083 -0.9023,2.70833 -1.9778,4.08333 -1.7426,2.22776 -1.9579,4.15426 -1.9778,17.69098 -0.013,9.07357 0.3805,15.43987 0.9778,15.80902 0.55,0.33992 1,3.26492 1,6.5 0,3.23508 0.45,6.16008 1,6.5 0.55,0.33992 1,3.93992 1,8 0,4.06008 -0.45,7.66008 -1,8 -0.55,0.33992 -1,3.71492 -1,7.5 0,3.78508 -0.45,7.16008 -1,7.5 -0.55,0.33992 -1,3.95279 -1,8.0286 0,5.55696 -0.5003,8.30124 -2,10.9714 -1.1,1.95846 -2,4.03176 -2,4.60734 0,0.57558 -1.3154,2.36189 -2.9231,3.96958 -2.6299,2.62998 -3.5735,2.92308 -9.4102,2.92308 -6.0259,0 -6.8312,-0.27433 -11.3269,-3.85881 -5.6281,-4.48735 -9.5346,-8.75615 -11.6983,-12.78316 l -1.5356,-2.85803 0.5769,4 c 0.5626,3.9012 4.0681,11.66706 5.5672,12.33333 0.4125,0.18334 0.75,0.97694 0.75,1.76357 0,0.78663 0.5446,2.30223 1.2102,3.36801 0.8625,1.38114 0.9239,2.74168 0.2137,4.73643 -0.8122,2.28116 -1.5907,2.79687 -4.2102,2.78899 -2.344,-0.007 -3.2137,0.44397 -3.2137,1.66667 0,0.92198 -0.5625,1.86565 -1.25,2.09705 -0.9544,0.32123 -0.9762,0.75473 -0.092,1.83333 0.6368,0.77694 1.3925,4.33762 1.6794,7.91262 0.2868,3.575 1.0482,9.2 1.692,12.5 0.6438,3.3 1.3787,10.8375 1.633,16.75 0.2544,5.9125 0.7888,10.75 1.1877,10.75 1.2464,0 1.2181,8.21619 -0.051,14.87542 -1.0648,5.58516 -1.8228,6.97963 -6.1157,11.25 -5.043,5.01661 -6.1186,5.59676 -7.1829,3.87458 -0.3399,-0.55 -2.354,-1 -4.4757,-1 -2.1505,0 -4.0809,-0.55319 -4.362,-1.25 -0.2775,-0.6875 -0.54,3.34881 -0.5834,8.96958 -0.065,8.4633 0.2648,10.83153 1.9211,13.78042 1.6259,2.89484 2,5.41444 2,13.4714 0,5.52835 -0.4422,10.18385 -1,10.5286 -0.55,0.33992 -1,1.71648 -1,3.05902 0,1.34254 -0.45,2.44098 -1,2.44098 -0.55,0 -1,0.9 -1,2 0,1.1 -0.45,2 -1,2 -0.55,0 -1,0.82562 -1,1.8347 0,1.8723 -5.1645,7.1653 -6.9913,7.1653 -0.5653,0 -1.0087,2.61692 -1.0087,5.95295 0,5.83007 -1.4926,11.04705 -3.1605,11.04705 -0.4617,0 -0.8395,9 -0.8395,20 0,12.66667 -0.3667,20 -1,20 -0.5996,0 -1,3.98033 -1,9.94098 0,5.54864 0.4418,10.21406 1,10.55902 0.55,0.33992 1,3.06648 1,6.05902 0,2.99254 0.3402,5.44098 0.7559,5.44098 0.9018,0 3.0163,4.59122 4.3664,9.48072 0.577,2.08987 1.5999,3.51928 2.5183,3.51928 0.8507,0 1.7711,0.8584 2.0455,1.90755 0.2743,1.04915 1.3572,2.13202 2.4064,2.40638 1.2581,0.32902 1.9075,1.38174 1.9075,3.09245 0,2.08314 0.4804,2.59362 2.441,2.59362 1.3425,0 2.7191,0.45 3.059,1 0.3399,0.55 1.7165,1 3.059,1 1.3426,0 2.441,0.45 2.441,1 0,0.55 0.8543,1 1.8985,1 1.0441,0 4.5316,1.3865 7.75,3.08112 4.5987,2.42147 6.2233,2.84966 7.5879,2 3.1579,-1.96613 6.7276,-1.30607 7.7704,1.43681 0.5265,1.38487 2.0904,2.94873 3.4753,3.47525 2.4332,0.92512 3.0864,2.74125 2.6623,7.40252 -0.2485,2.73119 -5.1769,6.60165 -8.408,6.60308 -1.5199,6.7e-4 -3.6241,0.53864 -4.6759,1.19549 -1.4823,0.9257 -2.5018,0.9257 -4.5335,0 -3.18,-1.44891 -12.1687,-1.58296 -13.027,-0.19427 -0.3399,0.55 -2.5899,1 -5,1 -2.4101,0 -4.6601,0.45 -5,1 -0.3399,0.55 -1.6899,1 -3,1 -1.3101,0 -2.6601,0.45 -3,1 -0.3399,0.55 -1.9149,1 -3.5,1 -1.5851,0 -3.1601,0.45 -3.5,1 -0.3399,0.55 -3.2649,1 -6.5,1 -3.2351,0 -6.1601,0.45 -6.5,1 -0.3406,0.55112 -4.8085,1 -9.9533,1 -8.9921,0 -9.4532,-0.11026 -12.5467,-3 -2.0707,-1.93434 -4.263,-3 -6.1715,-3 -4.1931,0 -6.8285,-1.69049 -6.8285,-4.3802 0,-2.38988 2.7753,-5.6198 4.8287,-5.6198 0.8032,0 1.1713,-2.67143 1.1713,-8.5 0,-5 -0.4118,-8.5 -1,-8.5 -1.4152,0 -1.2428,-5.61589 0.25,-8.14422 1,-1.69367 1,-2.20762 0,-2.56977 -0.6875,-0.24897 -1.25,-1.09018 -1.25,-1.86934 0,-0.77917 -0.45,-1.41667 -1,-1.41667 -0.6108,0 -1,-4.64699 -1,-11.94098 0,-6.56754 -0.3517,-12.15833 -0.7815,-12.42398 -0.4298,-0.26565 -0.8908,-1.91727 -1.0244,-3.67028 -0.1335,-1.75301 -0.6819,-4.00763 -1.2185,-5.01028 -0.5366,-1.00265 -0.9756,-2.95102 -0.9756,-4.32972 0,-1.3787 -0.45,-2.78484 -1,-3.12476 -0.55,-0.33992 -1,-1.71648 -1,-3.05902 0,-1.34254 -0.45,-2.44098 -1,-2.44098 -0.55,0 -1,-1.09844 -1,-2.44098 0,-1.34254 -0.45,-2.7191 -1,-3.05902 -0.55,-0.33992 -1,-3.65148 -1,-7.35902 0,-3.70754 -0.486,-7.22694 -1.0799,-7.8209 -1.8054,-1.80539 0.1131,-23.60454 2.1904,-24.88837 0.4892,-0.30236 0.8895,-2.32319 0.8895,-4.49073 0,-2.16754 0.45,-3.94098 1,-3.94098 0.55,0 1,-1.15458 1,-2.56574 0,-1.41116 0.4792,-3.46111 1.0649,-4.55544 0.5856,-1.09433 0.8854,-2.52725 0.6661,-3.18426 -0.2193,-0.65701 -1.1998,0.49294 -2.1788,2.55544 -0.979,2.0625 -2.1788,3.75 -2.6661,3.75 -0.4874,0 -0.8861,0.60526 -0.8861,1.34501 0,0.73976 -0.9,2.1595 -2,3.15499 -1.1,0.99549 -2,2.43405 -2,3.1968 0,1.93456 -3.1053,5.01472 -5.5,5.4555 -1.1605,0.2136 -2.1341,1.30832 -2.3196,2.60792 -0.1757,1.23188 -0.7382,2.23978 -1.25,2.23978 -0.5117,0 -0.9304,2.44948 -0.9304,5.4433 0,4.01499 -0.4592,5.78936 -1.75,6.76217 -2.9815,2.24704 -4.25,5.55425 -4.25,11.08096 0,2.92246 -0.5209,5.8345 -1.1576,6.47119 -0.8454,0.84539 -0.8608,1.51524 -0.057,2.48354 0.7022,0.84607 0.7647,1.85662 0.1729,2.79238 -0.5101,0.80655 -0.9344,3.60396 -0.9428,6.21646 -0.01,2.6125 -0.4653,4.75 -1.0153,4.75 -0.55,0 -1,1.77344 -1,3.94098 0,2.16754 -0.45,4.2191 -1,4.55902 -0.55,0.33992 -1,2.36492 -1,4.5 0,2.13508 -0.45,4.16008 -1,4.5 -0.5917,0.36567 -1,6.49071 -1,15 0,8.50929 0.4083,14.63433 1,15 0.55,0.33992 1,2.13992 1,4 0,1.86008 0.45,3.66008 1,4 0.55,0.33992 1,3.43162 1,6.87046 0,4.87017 0.4421,6.72701 2,8.39917 1.1,1.18071 2,2.56741 2,3.08157 0,0.51415 0.6674,1.19093 1.4831,1.50396 0.844,0.32384 1.2288,1.23192 0.8931,2.10699 -0.3263,0.85013 -0.061,1.53785 0.5937,1.53785 0.6512,0 2.534,1.35 4.184,3 2.1442,2.14429 3.9595,3 6.364,3 1.8502,0 3.6422,0.45 3.9821,1 0.3399,0.55 2.0665,1 3.8368,1 3.3679,0 6.6632,2.74941 6.6632,5.5594 0,1.72412 4.5338,6.06123 7.3223,7.00472 1.0216,0.34562 1.59,1.22195 1.2937,1.9942 -0.2908,0.75769 -0.098,1.6436 0.4277,1.96867 1.6223,1.00264 1.0566,6.07231 -0.8724,7.81802 -1.0058,0.91025 -3.3683,1.67328 -5.25,1.69563 -2.3038,0.0274 -4.5521,1.00723 -6.8835,3 -3.7288,3.1872 -5.9254,3.67174 -7.8628,1.7344 -0.9666,-0.96661 -1.6386,-0.96661 -3.1864,0 -2.372,1.48133 -5.642,1.5947 -6.4886,0.22496 -0.3399,-0.55 -2.1665,-1 -4.059,-1 -1.8926,0 -3.441,0.45 -3.441,1 0,0.55 -1.7734,1 -3.941,1 -2.1675,0 -4.2191,-0.45 -4.559,-1 -0.3399,-0.55 -1.6165,-1 -2.8368,-1 -1.2203,0 -2.9893,-0.9 -3.9312,-2 -0.9418,-1.1 -2.3979,-2 -3.2358,-2 -0.8378,0 -2.3047,-0.41217 -3.2598,-0.91593 -0.955,-0.50377 -3.4239,-1.64988 -5.4864,-2.54692 -2.0625,-0.89704 -3.75,-2.28487 -3.75,-3.08407 0,-0.79919 -0.7171,-1.45308 -1.5936,-1.45308 -0.8765,0 -1.8144,-0.84424 -2.0842,-1.8761 -0.2699,-1.03185 -1.6903,-2.43465 -3.1564,-3.11732 -5.6052,-2.60986 -7.6858,-3.91701 -8.2604,-5.18958 -0.327,-0.72435 -1.1514,-2.38255 -1.8321,-3.6849 -1.3349,-2.5543 -0.6843,-3.73804 2.3553,-4.28504 1.8055,-0.32491 1.8215,-0.4542 0.25,-2.02563 -1.3771,-1.37703 -1.6786,-3.74668 -1.6786,-13.19098 0,-6.33183 -0.4012,-11.76037 -0.8915,-12.06341 -0.4904,-0.30305 -0.9622,-10.03272 -1.0485,-21.62148 -0.086,-11.58876 -0.5852,-22.19666 -1.1085,-23.57311 -0.5233,-1.37646 -0.9515,-4.18335 -0.9515,-6.23755 0,-2.05419 -0.4333,-4.16824 -0.963,-4.69787 -0.5296,-0.52963 -1.0552,-7.48213 -1.1681,-15.45 -0.1932,-13.64835 0.8751,-22.63114 3.2377,-27.22346 0.4914,-0.95504 0.8934,-2.40385 0.8934,-3.21958 0,-1.57335 2.9873,-7.28623 6.1171,-11.69836 1.0356,-1.4599 1.8829,-3.05769 1.8829,-3.55064 0,-1.52438 2.4578,-6.27895 3.25,-6.28719 0.4125,-0.004 0.75,-3.13124 0.75,-6.94878 0,-3.81754 0.45,-7.2191 1,-7.55902 0.55,-0.33992 1,-2.16648 1,-4.05902 0,-1.89254 0.45,-3.44098 1,-3.44098 0.5719,0 1,-3.01173 1,-7.03518 0,-4.00283 0.5642,-7.98983 1.3091,-9.25 1.035,-1.75124 1.1413,-6.29637 0.5077,-21.71482 -1.1778,-28.66049 -1.8607,-38 -2.7784,-38 -1.6064,0 -2.0542,-4.57116 -4.604,-47 -0.314,-5.225 -0.9902,-9.9275 -1.5027,-10.45 -1.2371,-1.2614 -1.1919,-5.27117 0.068,-6.05 0.55,-0.33992 1,-1.68992 1,-3 0,-1.31008 0.45,-2.66008 1,-3 0.55,-0.33992 1,-1.91492 1,-3.5 0,-1.58508 0.45,-3.16008 1,-3.5 0.55,-0.33992 1,-3.48992 1,-7 0,-3.51008 0.45,-6.66008 1,-7 0.55,-0.33992 1,-2.61648 1,-5.05902 0,-2.44254 0.45,-4.44098 1,-4.44098 0.55,0 1,-1.32344 1,-2.94098 0,-1.61754 0.45,-3.2191 1,-3.55902 2.1605,-1.33522 0.7972,-4.12586 -3.2709,-6.69578 -4.284,-2.70627 -14.7291,-12.58585 -14.7291,-13.93161 0,-0.39554 -1.1399,-2.07389 -2.5332,-3.72968 l -2.5332,-3.01053 0.4276,-25.3162 c 0.4278,-25.35878 1.1446,-34.8162 2.6384,-34.8162 0.4392,0 1.0287,-1.9125 1.3099,-4.25 0.2812,-2.3375 1.0341,-6.275 1.673,-8.75 0.6389,-2.475 1.4033,-5.9625 1.6988,-7.75 0.2954,-1.7875 0.9379,-3.25 1.4277,-3.25 0.4898,0 0.8906,-1.54844 0.8906,-3.44098 0,-1.89254 0.45,-3.7191 1,-4.05902 0.55,-0.33992 1,-2.13992 1,-4 0,-1.86008 0.45,-3.66008 1,-4 0.55,-0.33992 1,-1.44895 1,-2.46452 0,-1.01556 0.8523,-3.5765 1.8939,-5.69098 1.0417,-2.11447 2.4699,-5.8695 3.1739,-8.3445 0.704,-2.475 1.6517,-4.9275 2.1061,-5.45 0.4544,-0.5225 0.8261,-1.985 0.8261,-3.25 0,-1.265 0.45,-2.3 1,-2.3 0.55,0 1,-0.59873 1,-1.33052 0,-2.5811 4.9184,-11.00168 8.6861,-14.87116 l 3.8139,-3.91696 -12,0.53724 c -31.815,1.42436 -56.6391,1.71088 -57.8954,0.66823 -1.5416,-1.27942 -26.5402,-1.38055 -28.0832,-0.11361 -1.0132,0.83191 -23.9737,0.66873 -67.8133,-0.48196 l -22.7919,-0.59824 1.198,2.30349 c 2.5602,4.92264 2.8858,5.85791 2.8858,8.28992 0,1.38246 0.45,2.51357 1,2.51357 0.55,0 1,1.35 1,3 0,1.65 0.45,3 1,3 0.55,0 1,0.9 1,2 0,1.1 0.45,2 1,2 0.55,0 1.0057,1.2375 1.0127,2.75 0.01,1.5125 1.3569,5.40091 3,8.64092 1.643,3.24001 2.9873,6.70095 2.9873,7.69098 0,0.99004 0.45,2.07818 1,2.4181 0.55,0.33992 1,1.94148 1,3.55902 0,1.61754 0.45,2.94098 1,2.94098 0.55,0 1,0.87344 1,1.94098 0,1.06754 0.45,2.2191 1,2.55902 0.55,0.33992 1,1.68992 1,3 0,1.31008 0.45,2.66008 1,3 0.55,0.33992 1.0017,1.60398 1.0037,2.80902 0,1.20504 0.9021,3.66436 2,5.46515 1.098,1.80079 1.9963,4.36174 1.9963,5.69098 0,1.32925 0.45,2.69493 1,3.03485 0.55,0.33992 1,1.68992 1,3 0,1.31008 0.45,2.66008 1,3 0.55,0.33992 1.01,1.37898 1.0222,2.30902 0.012,0.93004 0.9023,2.81598 1.9778,4.19098 1.0755,1.375 1.9655,3.51861 1.9778,4.76357 0.023,2.34786 1.2734,5.01532 4.2722,9.11419 0.9625,1.31558 1.75,3.37142 1.75,4.56854 0,1.19712 0.9,3.14261 2,4.32333 1.1838,1.2706 2,3.52899 2,5.53357 0,3.62054 2.4622,6.6968 5.3601,6.6968 0.9365,0 1.9677,0.69063 2.2916,1.53474 0.8727,2.27407 9.3962,7.88991 12.8483,8.46526 2.165,0.36084 3.0895,1.13035 3.3215,2.76483 0.1768,1.24566 0.7753,1.98437 1.3299,1.64159 0.5546,-0.34278 1.673,0.32555 2.4852,1.48517 0.8123,1.15963 2.3258,2.10841 3.3634,2.10841 1.0376,0 2.4746,0.83106 3.1933,1.8468 0.7187,1.01573 2.8969,2.36851 4.8404,3.00616 1.9435,0.63765 4.1804,2.05659 4.9707,3.1532 1.4814,2.05523 6.9956,2.83863 6.9956,0.99384 0,-0.55 0.4688,-1 1.0418,-1 0.573,0 2.0062,-0.89845 3.1849,-1.99656 1.8053,-1.68189 3.3994,-1.97268 10.1151,-1.84505 10.9324,0.20776 17.3751,3.76115 12.8084,7.06424 -2.8655,2.07261 -8.2688,10.58606 -7.1554,11.27415 2.138,1.32135 0.8554,5.25622 -3.0319,9.30177 l -4.0372,4.20145 4.3445,0 c 7.0442,0 23.7298,9.27319 23.7298,13.18806 0,0.99657 0.45,1.81194 1,1.81194 0.55,0 1,0.56675 1,1.25945 0,0.6927 0.9,1.82152 2,2.50848 1.7269,1.07849 2,2.33202 2,9.18153 0,4.36288 0.4246,8.19493 0.9436,8.51568 1.1916,0.73645 1.332,36.48585 0.1491,37.95627 -0.9373,1.16502 -1.8741,6.62804 -2.7392,15.97359 -0.3538,3.82111 -1.2155,6.61393 -2.4496,7.93856 -1.0472,1.12396 -1.9039,2.76871 -1.9039,3.655 0,0.88629 -0.4564,2.06784 -1.0142,2.62566 -0.6277,0.62771 -1.0759,11.39333 -1.176,28.24973 -0.089,14.97952 -0.5325,27.46468 -0.9857,27.74479 -0.4533,0.28011 -0.8241,2.31179 -0.8241,4.51484 0,3.22297 0.5861,4.49872 3,6.52987 2.3698,1.99405 3,3.32728 3,6.34655 0,3.01927 -0.6302,4.3525 -3,6.34655 -2.5976,2.18571 -3,3.19579 -3,7.52987 0,2.75305 0.3646,5.23085 0.8101,5.50623 0.4456,0.27537 0.917,2.5649 1.0476,5.08784 0.1709,3.30169 -0.3364,5.39298 -1.8101,7.46271 -1.1262,1.58155 -2.0476,3.97642 -2.0476,5.32195 0,3.28918 -1.8812,8.63507 -4.221,11.99485 l -1.9152,2.75 -28.8729,0 c -18.1699,0 -29.102,0.37069 -29.4909,1 -0.3399,0.55 -1.4317,1 -2.4261,1 -1.0016,0 -2.9888,1.78419 -4.4552,4 -1.4559,2.2 -3.4282,4.04818 -4.3829,4.10707 -5.6224,0.34681 -16.879,-0.41028 -17.6858,-1.1895 -0.5225,-0.50466 -2.885,-0.91757 -5.25,-0.91757 -2.365,0 -4.3,-0.45577 -4.3,-1.01281 0,-0.66581 -11.4882,-0.97512 -33.5304,-0.90278 -23.87413,0.0783 -33.92797,-0.21993 -34.91096,-1.03575 -0.94741,-0.78627 -1.58392,-0.81678 -2.02863,-0.0972 -0.8272,1.33842 -11.53001,1.3835 -11.53001,0.0485 0,-0.55 -1.35,-1 -3,-1 -1.65,0 -3,-0.45 -3,-1 0,-0.55 -0.9,-1 -2,-1 -1.1,0 -2,-0.45 -2,-1 0,-0.57707 -3.14699,-1 -7.44098,-1 -4.09254,0 -7.7191,-0.45 -8.05902,-1 -0.33992,-0.55 -1.53361,-1 -2.65264,-1 -1.21231,0 -2.25197,-0.83124 -2.57245,-2.05674 -0.51346,-1.96348 -1.06471,-2.03453 -12.15638,-1.56685 -6.39019,0.26944 -14.04878,0.79297 -17.01908,1.16341 -4.34671,0.54209 -5.57148,0.3681 -6.27645,-0.89162 -0.48174,-0.86082 -1.53899,-1.31068 -2.34945,-0.99968 -0.81045,0.311 -1.47355,0.0673 -1.47355,-0.54153 0,-0.60885 -0.9,-1.10699 -2,-1.10699 -1.1,0 -2,-0.45 -2,-1 0,-0.55 -0.87344,-1 -1.94098,-1 -1.06754,0 -2.2191,-0.45 -2.55902,-1 -0.34656,-0.56075 -5.09439,-1.00026 -10.80902,-1.00059 l -10.19098,-5.9e-4 0.29698,37.24757 c 0.17418,21.8446 0.69109,37.64168 1.25,38.20059 1.32795,1.32795 1.19581,8.28493 -0.17343,9.13117 -0.77565,0.47938 -0.88897,2.59985 -0.36389,6.80902 0.4194,3.36206 1.03881,11.06283 1.37645,17.11283 0.60188,10.78471 0.66282,11.00655 3.11389,11.33468 1.375,0.18407 2.9275,0.74657 3.45,1.25 0.5225,0.50342 2.63344,0.91532 4.69098,0.91532 2.05754,0 4.0191,0.45 4.35902,1 0.33992,0.55 2.32173,1 4.40403,1 2.516,0 4.39314,0.67089 5.59597,2 0.99549,1.1 2.64023,2 3.65499,2 1.01475,0 1.84501,0.34384 1.84501,0.7641 0,0.42025 1.81632,1.55099 4.03627,2.51274 2.21996,0.96176 4.27781,2.53041 4.573,3.4859 0.2952,0.95549 0.95388,2.51865 1.46373,3.47369 2.57335,4.82033 -1.61084,7.76357 -11.03691,7.76357 -3.33477,0 -6.84462,0.40614 -7.79966,0.90254 -2.89855,1.50656 -9.61303,3.21901 -11.73643,2.99323 -1.1,-0.11696 -3.89728,-0.14136 -6.21617,-0.0542 l -4.21617,0.15843 -0.28383,10.73814 c -0.25978,9.8282 -0.45331,10.77023 -2.28383,11.11677 -1.1,0.20824 -3.19447,1.22607 -4.65437,2.26185 -3.33063,2.36303 -5.08939,2.37636 -7.19064,0.0545 z m -2.61424,-88.66657 c -0.6473,-1.2542 -1.15333,-17.35383 -1.35169,-43.00469 -0.36235,-46.85627 -1.36059,-74.83805 -2.80372,-78.59108 -0.98176,-2.55319 -0.80907,-5.97124 0.4501,-8.90892 0.35362,-0.825 0.81158,-15 1.0177,-31.5 0.20612,-16.5 0.4234,-30.45 0.48285,-31 0.0594,-0.55 -0.008,-12.61266 -0.14904,-26.80592 -0.18673,-18.74181 0.0628,-26.0714 0.91145,-26.77574 1.34494,-1.1162 1.62849,-72.1766 0.28469,-71.34609 -0.42818,0.26464 -0.76606,3.086 -0.75083,6.2697 0.0301,6.29625 -0.95754,13.07227 -2.13651,14.65805 -0.4089,0.55 -1.05673,3.16371 -1.43961,5.80825 -0.45722,3.15796 -1.27276,5.01204 -2.37615,5.402 -2.6788,0.94675 -5.17999,3.46221 -5.17999,5.20955 0,0.8854 0.9,3.28902 2,5.34138 2.50096,4.66625 2.50096,7.54153 0,10.73882 -1.07554,1.375 -1.95553,3.175 -1.95553,4 0,0.825 0.87999,2.625 1.95553,4 2.08708,2.66818 2.65299,7.4784 1,8.5 -1.21933,0.75359 -1.32986,5.1781 -0.14761,5.90877 1.71728,1.06134 4.17085,29.47183 4.76212,55.14192 l 0.46184,20.05068 -3.02952,2.69932 c -1.66623,1.48462 -3.48341,2.69931 -4.03817,2.69931 -1.30828,0 -1.31566,4.69223 -0.009,5.5 0.59418,0.36723 1,6.65738 1,15.5 0,8.84262 -0.40582,15.13277 -1,15.5 -0.55,0.33992 -1,4.19148 -1,8.55902 0,4.36754 -0.34015,7.94098 -0.75589,7.94098 -0.41574,0 -1.36702,1.38063 -2.11395,3.06807 -0.74693,1.68745 -2.43178,3.47631 -3.74411,3.97525 -3.02293,1.14932 -3.00115,2.06119 0.11395,4.76973 2.52001,2.19112 3.36725,6.53292 1.5,7.68695 -0.57189,0.35345 -1,5.49071 -1,12 0,6.50929 0.42811,11.64655 1,12 0.55816,0.34496 1,5.01038 1,10.55902 0,5.96065 0.4004,9.94098 1,9.94098 0.6205,0 1,5.48033 1,14.44098 0,8.54864 0.40803,14.69316 1,15.05902 0.55,0.33992 1,1.49148 1,2.55902 0,1.06754 0.45,1.94098 1,1.94098 1.41409,0 1.24697,7.35303 -0.2,8.8 -0.93333,0.93333 -0.93333,1.2 0,1.2 0.77306,0 1.2,1.77589 1.2,4.99153 0,3.90852 0.43394,5.26252 2,6.24054 1.1089,0.69252 2,2.33203 2,3.67974 0,2.96155 2.64739,6.08819 5.15499,6.08819 1.01475,0 1.93991,0.5625 2.05591,1.25 0.11599,0.6875 0.35795,-3.47289 0.53769,-9.24531 0.18581,-5.96751 -0.11956,-11.36016 -0.70784,-12.5 z m 14.94394,-102.75469 c 0.008,-0.9625 0.46531,-1.75 1.01531,-1.75 0.55,0 1,-0.73472 1,-1.6327 0,-0.89799 0.88074,-2.39657 1.95719,-3.33017 1.83962,-1.59549 1.98664,-3.49476 2.44747,-31.6173 0.26966,-16.4559 0.77464,-33.41187 1.12217,-37.67991 0.60651,-7.44848 -0.66229,-13.73992 -2.77094,-13.73992 -0.41574,0 -0.75589,-1.99844 -0.75589,-4.44098 0,-2.44254 -0.45,-4.7191 -1,-5.05902 -0.55,-0.33992 -1,-3.24895 -1,-6.46452 0,-6.55307 3.17895,-13.98812 6.33956,-14.82721 1.52899,-0.40592 1.74784,-1.18222 1.29631,-4.59832 -1.18016,-8.92869 -1.79724,-12.19222 -2.66796,-14.10995 -2.69791,-5.94203 -2.58647,-44.5 0.1286,-44.5 0.49692,0 0.90349,-0.87344 0.90349,-1.94098 0,-1.06754 0.45,-2.2191 1,-2.55902 0.55,-0.33992 1.00055,-1.37898 1.00122,-2.30902 0.002,-2.07245 4.14946,-7.03354 7.23039,-8.64777 1.24762,-0.65367 3.16839,-1.65022 4.26839,-2.21456 1.1,-0.56433 3.35,-1.79688 5,-2.739 1.65,-0.94212 3.7875,-1.96269 4.75,-2.26793 0.9625,-0.30524 1.75,-0.9525 1.75,-1.43835 0,-0.48585 0.87344,-0.88337 1.94098,-0.88337 1.06754,0 2.2191,-0.45 2.55902,-1 0.33992,-0.55 1.66504,-1 2.94471,-1 1.27967,0 3.4587,-0.5873 4.84229,-1.30511 2.49901,-1.29651 2.50321,-1.32125 0.63654,-3.75 -2.0867,-2.71504 -2.49032,-5.5893 -0.86115,-6.13235 1.13822,-0.37941 0.0326,-3.78749 -2.27654,-7.0176 -1.00206,-1.4017 -0.85109,-2.11335 0.8486,-4 1.13714,-1.26222 2.34546,-3.08244 2.68515,-4.04494 0.3397,-0.9625 1.5052,-1.75 2.59,-1.75 1.0848,0 2.25048,-0.45 2.5904,-1 1.11338,-1.80149 3.93818,-1.04822 7.5,2 1.925,1.64742 4.07662,2.99636 4.78138,2.99765 0.70477,0.001 1.55931,0.72661 1.899,1.61181 0.56765,1.47928 0.69046,1.47928 1.5183,0 0.49539,-0.8852 2.00334,-1.60946 3.35101,-1.60946 1.34767,0 2.45031,-0.45 2.45031,-1 0,-0.55 1.32344,-1 2.94098,-1 1.61754,0 3.2191,-0.45 3.55902,-1 0.33992,-0.55 1.68992,-1 3,-1 1.31008,0 2.66462,-0.45734 3.01008,-1.01631 0.34546,-0.55897 1.04702,-0.75742 1.55902,-0.44098 0.51199,0.31643 0.9309,-0.32468 0.9309,-1.42468 0,-1.1 0.45,-2.27811 1,-2.61803 0.55,-0.33992 1,-1.68992 1,-3 0,-1.31008 0.45,-2.66008 1,-3 0.55,-0.33992 1,-1.68992 1,-3 0,-1.31008 0.45,-2.66008 1,-3 0.55,-0.33992 1,-1.71648 1,-3.05902 0,-1.34254 0.45,-2.44098 1,-2.44098 0.55,0 1,-0.90611 1,-2.01357 0,-1.10746 0.3975,-2.79496 0.88333,-3.75 0.48583,-0.95504 1.49761,-3.08643 2.2484,-4.73643 0.7508,-1.65 1.67781,-3.2358 2.06003,-3.52401 0.38222,-0.2882 0.83294,-3.2132 1.00159,-6.5 0.25888,-5.04506 0.57926,-5.93022 2.05665,-5.68215 0.9625,0.16161 1.75,-0.17589 1.75,-0.75 0,-0.57411 -0.82396,-1.04384 -1.83102,-1.04384 -3.99478,0 -4.82979,-6.90144 -2.6013,-21.5 1.25489,-8.22064 8.77101,-19.5 12.99404,-19.5 0.79105,0 1.43828,-0.68111 1.43828,-1.51357 0,-0.83246 0.41776,-2.29496 0.92836,-3.25 3.19114,-5.96883 5.07164,-11.3427 5.07164,-14.49314 0,-1.99389 0.45,-3.90337 1,-4.24329 0.55,-0.33992 1,-1.68992 1,-3 0,-1.31008 0.45,-2.66008 1,-3 0.55,-0.33992 1,-1.91492 1,-3.5 0,-1.58508 0.45,-3.16008 1,-3.5 0.55,-0.33992 1,-1.91492 1,-3.5 0,-1.58508 0.3981,-3.12802 0.8847,-3.42874 0.4866,-0.30073 1.0806,-1.88126 1.32,-3.51228 0.36,-2.45316 -0.01,-3.14235 -2.1347,-3.98913 -1.58,-0.6293 -19.80911,-1.12884 -47.32052,-1.29674 -41.46572,-0.25306 -44.75047,-0.14899 -44.75,1.41787 2.9e-4,0.93004 0.45052,1.9691 1.00052,2.30902 0.55,0.33992 1,3.03992 1,6 0,2.96008 0.45,5.66008 1,6 0.55,0.33992 1,3.87648 1,7.85902 0,3.98254 0.42044,7.66848 0.93431,8.19098 0.51387,0.5225 1.08992,4.325 1.2801,8.45 0.19018,4.125 0.637,7.96655 0.99292,8.53677 0.85704,1.37305 0.48086,11.10837 -0.46581,12.05504 -1.10957,1.10958 -0.89427,10.19575 0.25848,10.90819 0.55,0.33992 1,1.86648 1,3.39235 0,1.52587 0.3084,3.08272 0.68534,3.45965 1.09725,1.09725 3.28316,7.9466 3.2996,10.33898 0.008,1.20504 0.46506,2.4691 1.01506,2.80902 0.55,0.33992 1,2.16648 1,4.05902 0,1.89254 0.45,3.44098 1,3.44098 0.55,0 1,1.485 1,3.3 0,1.815 0.40391,3.7275 0.89757,4.25 0.49367,0.5225 1.15559,2.75 1.47093,4.95 0.31534,2.2 1.04951,6.925 1.6315,10.5 2.36594,14.53342 2.36099,14.01503 0.15366,16.07147 -1.13852,1.06069 -3.41229,1.92853 -5.05283,1.92853 -1.64054,0 -3.27987,0.48068 -3.64296,1.06817 -0.3631,0.5875 -1.36945,0.796 -2.23635,0.46334 -1.74991,-0.6715 -9.75089,1.72656 -15.35767,4.60303 -4.0831,2.09475 -6.86385,2.40788 -6.86385,0.77291 0,-0.7393 -1.85913,-0.88087 -5.75,-0.43787 -3.1625,0.36007 -8.80061,0.73921 -12.52914,0.84255 l -6.77914,0.18787 0.52252,45 c 0.83294,71.73422 0.82739,78.36742 -0.0922,110 -1.07491,36.97752 -0.69838,85.62114 0.64635,83.5 0.52302,-0.825 0.95784,-2.2875 0.96626,-3.25 z M 594.35883,521.7365 c -0.2302,-1.568 -0.043,-3.08265 0.4148,-3.3659 1.1343,-0.70101 1.0589,-7.76614 -0.095,-8.94695 -0.5108,-0.5225 -1.0952,-2.525 -1.2988,-4.45 -0.3064,-2.89796 -0.5063,-3.15598 -1.162,-1.5 -0.4355,1.1 -1.2215,2.90862 -1.7466,4.01915 -0.6628,1.4017 -0.5106,3.08357 0.4978,5.5 1.762,4.2226 2.357,10.99616 1.1427,13.00872 -0.777,1.28771 -0.6657,1.29134 0.8888,0.029 1.1884,-0.96505 1.6385,-2.38755 1.3587,-4.29403 z m 74.2665,-165.71845 c -0.6502,-1.56968 -2.1382,-3.10396 -3.3066,-3.40952 -3.119,-0.81563 -3.2426,-0.0288 -0.2986,1.90023 1.4228,0.9322 2.5868,2.46816 2.5868,3.41323 0,0.94508 0.3281,2.04645 0.7292,2.44749 1.3141,1.31416 1.4969,-1.43576 0.2892,-4.35143 z M 192.16195,303.71752 c -0.53429,-5.70169 -1.12114,-7.61633 -2.6217,-8.55344 -1.59026,-0.99314 -1.93332,-0.93971 -1.93332,0.3011 0,0.82966 0.45,1.50847 1,1.50847 0.55,0 1,1.725 1,3.83333 0,2.10834 0.3375,4.17084 0.75,4.58334 0.79955,0.79954 0.9285,1.34402 1.125,4.75 0.0687,1.19166 0.40477,1.8869 0.7467,1.54496 0.34194,-0.34193 0.31193,-3.92743 -0.0667,-7.96776 z m 143.44498,-31.74387 c 1.375,-1.07554 3.2498,-1.96553 4.1662,-1.97776 0.9163,-0.0122 3.5817,-1.80847 5.9229,-3.99165 l 4.2568,-3.96941 -2.3302,-4.53059 c -1.2816,-2.49182 -2.7094,-4.53059 -3.1729,-4.53059 -0.4636,0 -0.8428,-0.68912 -0.8428,-1.53138 0,-0.84227 -0.675,-1.79041 -1.5,-2.10699 -2.4508,-0.94047 -1.7032,-2.45073 0.8909,-1.79965 1.315,0.33004 2.6916,0.11361 3.059,-0.48095 0.3675,-0.59457 1.9757,-1.08103 3.5739,-1.08103 1.8824,0 3.2828,-0.70442 3.9762,-2 0.5887,-1.1 1.6838,-2 2.4336,-2 0.7498,0 3.9297,-1.35 7.0664,-3 3.1367,-1.65 6.3324,-3 7.1016,-3 1.4592,0 1.9709,-2.58611 0.6265,-3.16667 -0.4246,-0.18333 -2.3098,-4.97192 -4.1893,-10.64131 -1.8796,-5.66939 -3.7822,-10.53345 -4.2281,-10.80902 -0.4459,-0.27557 -0.8107,-1.82448 -0.8107,-3.44202 0,-1.61754 -0.45,-2.94098 -1,-2.94098 -0.55,0 -1,-0.87344 -1,-1.94098 0,-1.06754 -0.45,-2.2191 -1,-2.55902 -0.55,-0.33992 -1,-1.72258 -1,-3.07259 0,-1.35 -0.5203,-3.46094 -1.1561,-4.69098 -2.49,-4.81663 -2.8439,-5.77939 -2.8439,-7.73643 0,-1.95704 -0.3539,-2.9198 -2.8439,-7.73643 -0.6358,-1.23004 -1.1561,-3.14254 -1.1561,-4.25 0,-1.10746 -0.45,-2.01357 -1,-2.01357 -0.55,0 -1.0069,-1.2375 -1.0153,-2.75 -0.01,-1.5125 -0.4515,-3.425 -0.9847,-4.25 -0.7839,-1.21296 -0.9723,-1.06944 -0.9847,0.75 -0.01,1.2375 -0.4653,2.25 -1.0153,2.25 -0.55,0 -1,1.26 -1,2.8 0,1.54 -0.4064,3.2275 -0.9031,3.75 -0.4966,0.5225 -1.1573,2.975 -1.4682,5.45 -1.2382,9.85892 -1.8787,13.03645 -2.7343,13.56528 -0.4919,0.30402 -0.8944,1.68078 -0.8944,3.05948 0,1.3787 -0.4959,3.43339 -1.1021,4.56598 -0.8194,1.53115 -0.7853,2.65104 0.1329,4.3668 0.6792,1.26915 0.9769,2.98 0.6615,3.80189 -0.3154,0.82189 0.075,2.03234 0.8671,2.6899 0.9521,0.79013 1.4406,3.16872 1.4406,7.0141 0,3.20019 0.45,6.09665 1,6.43657 1.2456,0.76979 1.3314,16.75138 0.097,18.05 -0.4967,0.5225 -1.1508,2.975 -1.4537,5.45 -0.9896,8.08784 -1.8488,12.00899 -2.7537,12.56829 -0.4892,0.30236 -0.8895,1.42319 -0.8895,2.49073 0,1.06754 -0.45,1.94098 -1,1.94098 -0.55,0 -1,0.9 -1,2 0,1.1 -0.45,2 -1,2 -0.55,0 -1,1.125 -1,2.5 0,2.9939 0.69989,3.08138 4,0.5 z m -10.01531,-7.25 c 0.008,-0.9625 0.46531,-1.75 1.01531,-1.75 0.55,0 1,-0.87344 1,-1.94098 0,-1.06754 0.45,-2.2191 1,-2.55902 0.55,-0.33992 1,-1.68992 1,-3 0,-1.31008 0.45,-2.66008 1,-3 0.55,-0.33992 1,-2.36492 1,-4.5 0,-2.13508 0.36382,-4.10682 0.80849,-4.38164 1.24901,-0.77196 1.47691,-16.61836 0.23898,-16.61836 -0.57611,0 -1.04747,1.935 -1.04747,4.3 0,2.365 -0.40391,4.7275 -0.89757,5.25 -0.9168,0.97035 -1.62093,5.34618 -2.55609,15.88489 -0.28965,3.2642 -0.86857,6.1892 -1.28649,6.5 -1.61215,1.19897 -3.25918,5.15926 -3.24454,7.80154 0.0119,2.15171 0.22994,2.43147 0.98469,1.26357 0.53316,-0.825 0.97627,-2.2875 0.98469,-3.25 z m 65.01531,-5.75 c 0,-0.55 -0.45,-1 -1,-1 -0.55,0 -1,0.45 -1,1 0,0.55 0.45,1 1,1 0.55,0 1,-0.45 1,-1 z m -6.4116,-16.74494 c -1.0924,-1.0924 -1.8415,0.64486 -1.0572,2.45181 0.7437,1.71337 0.7976,1.71181 1.212,-0.0351 0.2385,-1.00555 0.1688,-2.09305 -0.1548,-2.41667 z m -1.5884,-3.25506 c 0,-0.55 -0.45,-1 -1,-1 -0.55,0 -1,-1.32344 -1,-2.94098 0,-1.61754 -0.3883,-3.18095 -0.8628,-3.47424 -0.4746,-0.29329 -1.4409,-2.68235 -2.1474,-5.30902 -1.2839,-4.77314 -2.9898,-7.862 -2.9898,-5.41366 0,2.47942 3.2479,11.1379 4.178,11.1379 0.5212,0 0.8332,0.7875 0.6932,1.75 -0.3405,2.34164 1.0328,6.25 2.1962,6.25 0.5129,0 0.9326,-0.45 0.9326,-1 z m -65,-12.97568 c 0,-1.57171 0.49411,-3.02236 1.09803,-3.22366 0.60392,-0.20131 0.90925,-1.47631 0.67852,-2.83334 -0.41778,-2.45717 -0.42471,-2.45498 -1.6858,0.53268 -1.91123,4.52792 -2.65687,9.96792 -1.24682,9.09646 0.63584,-0.39297 1.15607,-2.00044 1.15607,-3.57214 z m 56.3726,-9.77432 c -0.366,-1.5125 -1.1375,-3.875 -1.7144,-5.25 -0.5769,-1.375 -1.1056,-2.95 -1.1747,-3.5 -0.069,-0.55 -0.8813,-2.74246 -1.8046,-4.87212 -0.9234,-2.12967 -1.6789,-4.71717 -1.6789,-5.75 0,-1.03284 -0.45,-1.87788 -1,-1.87788 -0.55,0 -1,-0.87344 -1,-1.94098 0,-1.06754 -0.45,-2.2191 -1,-2.55902 -0.55,-0.33992 -1,-1.49638 -1,-2.56992 0,-1.07353 -0.8667,-3.85947 -1.926,-6.19098 -1.0593,-2.3315 -2.2195,-6.12569 -2.5782,-8.43153 -0.3587,-2.30584 -1.292,-4.72344 -2.074,-5.37245 -1.6736,-1.38902 -1.8689,-0.1757 -0.5259,3.26783 0.4927,1.26338 1.4737,4.32205 2.1801,6.79705 0.7063,2.475 1.7063,5.0601 2.2222,5.74467 0.5158,0.68457 0.6775,2.24035 0.3592,3.45729 -0.3852,1.47312 0.2438,3.29078 1.882,5.4386 1.3533,1.7743 2.4606,3.90446 2.4606,4.7337 0,0.82924 0.45,1.78582 1,2.12574 0.55,0.33992 1,1.71648 1,3.05902 0,1.34254 0.45,2.44098 1,2.44098 0.55,0 1,0.63496 1,1.41102 0,1.59018 4.0695,12.58898 4.6578,12.58898 0.2092,0 0.081,-1.2375 -0.2852,-2.75 z m 316.6274,-11.25 c 0,-0.55 1.35,-1 3,-1 1.65,0 3,-0.45 3,-1 0,-0.55 0.5902,-1 1.3114,-1 0.7213,0 2.2775,-0.9 3.4582,-2 1.1807,-1.1 2.594,-2 3.1406,-2 0.9505,0 7.0898,-8.20207 7.0898,-9.47199 0,-0.3364 0.9,-1.57767 2,-2.75838 1.1,-1.18072 2,-2.7369 2,-3.45819 0,-0.72129 0.45,-1.31144 1,-1.31144 0.55,0 1,-0.90611 1,-2.01357 0,-1.10746 0.5583,-2.90746 1.2406,-4 0.9873,-1.58107 0.9873,-2.39179 0,-3.97286 -0.6824,-1.09254 -1.2406,-2.89254 -1.2406,-4 0,-1.10746 -0.4953,-2.01357 -1.1007,-2.01357 -0.6934,0 -0.9662,-1.6913 -0.7372,-4.57071 l 0.3636,-4.57071 -7.5129,0.6336 c -4.132,0.34848 -19.1003,0.84488 -33.2628,1.1031 -14.1625,0.25823 -25.75,0.73784 -25.75,1.0658 0,2.15302 12.0345,17.33892 13.7407,17.33892 1.3742,0 6.2593,5.45363 6.2593,6.98773 0,3.16602 2.5173,6.85983 6.2449,9.16361 2.0823,1.28696 5.9166,4.92617 8.5206,8.08713 4.5943,5.57704 6.2345,6.8297 6.2345,4.76153 z m -335.8875,-42.2875 c -0.8167,-0.81667 -1.1125,-0.70476 -1.1125,0.42083 0,1.98786 1.3447,3.33256 1.8417,1.84167 0.2108,-0.6325 -0.1173,-1.65063 -0.7292,-2.2625 z m -1.4868,-5.24549 c -0.3096,-0.80686 -1.0174,-1.46701 -1.5729,-1.46701 -0.6338,0 -0.5664,0.97333 0.1808,2.61342 1.1966,2.62607 2.4452,1.59781 1.3921,-1.14641 z m -178.6257,-4.46701 c 0,-0.55 0.87344,-1 1.94098,-1 1.06754,0 2.2191,-0.45 2.55902,-1 0.38195,-0.61801 -1.38127,-1 -4.61595,-1 -5.17519,0 -5.21236,0.0218 -3.30902,1.94057 2.15033,2.16775 3.42497,2.56203 3.42497,1.05943 z"
     id="path2987"
     inkscape:connector-curvature="0" />
</svg>
