<?xml version="1.0" encoding="UTF-8" standalone="no"?>
<!-- Created with Inkscape (http://www.inkscape.org/) -->

<svg
   xmlns:dc="http://purl.org/dc/elements/1.1/"
   xmlns:cc="http://creativecommons.org/ns#"
   xmlns:rdf="http://www.w3.org/1999/02/22-rdf-syntax-ns#"
   xmlns:svg="http://www.w3.org/2000/svg"
   xmlns="http://www.w3.org/2000/svg"
   xmlns:sodipodi="http://sodipodi.sourceforge.net/DTD/sodipodi-0.dtd"
   xmlns:inkscape="http://www.inkscape.org/namespaces/inkscape"
   id="svg2"
   version="1.1"
   inkscape:version="0.48.2 r9819"
   width="1057.382"
   height="2607.0542"
   sodipodi:docname="lesplusbellesfab00lafo_0033e.png">
  <metadata
     id="metadata8">
    <rdf:RDF>
      <cc:Work
         rdf:about="">
        <dc:format>image/svg+xml</dc:format>
        <dc:type
           rdf:resource="http://purl.org/dc/dcmitype/StillImage" />
        <dc:title></dc:title>
      </cc:Work>
    </rdf:RDF>
  </metadata>
  <defs
     id="defs6" />
  <sodipodi:namedview
     pagecolor="#ffffff"
     bordercolor="#666666"
     borderopacity="1"
     objecttolerance="10"
     gridtolerance="10"
     guidetolerance="10"
     inkscape:pageopacity="0"
     inkscape:pageshadow="2"
     inkscape:window-width="1600"
     inkscape:window-height="876"
     id="namedview4"
     showgrid="false"
     fit-margin-top="0"
     fit-margin-left="0"
     fit-margin-right="0"
     fit-margin-bottom="0"
     inkscape:zoom="0.5"
     inkscape:cx="39.450852"
     inkscape:cy="1852.4085"
     inkscape:window-x="0"
     inkscape:window-y="24"
     inkscape:window-maximized="1"
     inkscape:current-layer="svg2" />
  <path
     style="fill:#000000"
     d="m 475.45085,2606.0641 c -7.975,-0.7368 -20.6233,-1.7586 -28.1074,-2.2708 -8.526,-0.5834 -14.6876,-1.4953 -16.5,-2.4421 -1.5909,-0.831 -5.7489,-4.5882 -9.24,-8.3494 -11.8868,-12.8063 -13.41147,-14.3384 -14.26866,-14.3384 -0.47141,0 -1.51102,-1.5651 -2.31027,-3.4779 -2.32964,-5.5756 -6.65926,-10.372 -12.70448,-14.0739 -3.09695,-1.8965 -6.11464,-3.4482 -6.70599,-3.4482 -0.59136,0 -3.31586,-1.3211 -6.05446,-2.9359 -2.7386,-1.6147 -7.37091,-3.6977 -10.29401,-4.6288 -2.9231,-0.9311 -7.737,-2.7844 -10.69755,-4.1184 -6.59344,-2.971 -19.89525,-7.2791 -22.61718,-7.3252 -1.1,-0.019 -5.15,-1.1709 -9,-2.5605 -3.85,-1.3897 -9.025,-2.8921 -11.5,-3.3387 -6.60249,-1.1913 -17.39622,-3.9161 -26.5,-6.6896 -5.61444,-1.7104 -10.38556,-2.4383 -16,-2.441 -19.81638,-0.01 -42.91401,-11.9775 -69.79186,-36.1624 -14.54043,-13.0836 -22.1235,-24.097 -29.81325,-43.2995 -3.08082,-7.6933 -3.20225,-8.5367 -3.16722,-22 0.0261,-10.0335 0.49176,-15.4166 1.64355,-19 0.88392,-2.75 1.612,-5.927 1.61796,-7.0599 0.0179,-3.402 19.51608,-41.1078 23.49769,-45.4401 1.2637,-1.375 4.57725,-5.5767 7.36344,-9.337 6.52203,-8.8024 11.34935,-12.9677 23.64969,-20.4064 11.24923,-6.803 15.88289,-8.4321 20.70076,-7.2776 5.73031,1.373 6.78848,2.1425 9.47187,6.8882 3.11318,5.5057 7.33869,12.3296 15.41107,24.8878 4.83962,7.529 7.33462,10.2796 13.37866,14.7494 11.36301,8.4033 16.22653,10.7113 21.02612,9.9777 6.56034,-1.0026 22.74841,-4.5105 23.79225,-5.1556 2.05109,-1.2676 16.56582,-3.2878 23.71927,-3.3012 4.125,-0.01 9.3,0.4822 11.5,1.0889 5.93817,1.6375 13.41997,7.4471 20.45822,15.8858 6.89194,8.2632 9.7964,9.4825 11.44197,4.8034 1.54163,-4.3836 -0.76113,-9.6218 -8.11613,-18.4623 -10.56189,-12.695 -16.77959,-20.5706 -18.82237,-23.8411 -1.03059,-1.65 -3.14617,-4.4953 -4.70127,-6.323 -3.73296,-4.3871 -7.75887,-10.8186 -7.76658,-12.4071 -0.003,-0.6985 -0.6804,-2.5627 -1.50448,-4.1428 -2.33307,-4.4736 -4.60134,-14.3328 -3.92106,-17.0432 0.33803,-1.3468 3.7828,-5.7321 7.65504,-9.7451 12.7888,-13.2537 12.8693,-13.5349 14.69427,-51.327 0.90793,-18.8017 0.84998,-20.2488 -0.97619,-24.3771 -1.06778,-2.4139 -1.94142,-6.3346 -1.94142,-8.7126 0,-2.378 -0.41395,-6.4833 -0.91988,-9.1229 -0.50594,-2.6396 -1.63459,-9.7492 -2.50813,-15.7992 -0.87354,-6.05 -2.273,-14.15 -3.10993,-18 -3.76068,-17.2998 -7.78473,-37.465 -8.48107,-42.5 -0.41836,-3.025 -1.47535,-9.1 -2.34887,-13.5 -0.87352,-4.4 -2.22687,-11.529 -3.00744,-15.8422 -1.03544,-5.7215 -2.35198,-9.2369 -4.86862,-13 -12.96573,-19.3873 -14.98147,-23.7426 -16.50328,-35.6578 -0.52685,-4.125 -1.9355,-9.6375 -3.13035,-12.25 -1.19484,-2.6125 -2.36328,-5.9875 -2.59653,-7.5 -0.23324,-1.5125 -1.15073,-7.925 -2.03886,-14.25 -0.88812,-6.325 -2.23229,-15.775 -2.98704,-21 -0.75475,-5.225 -2.10475,-14.675 -3,-21 -0.89525,-6.325 -2.24525,-15.775 -3,-21 -0.75475,-5.225 -2.10475,-14.675 -3,-21 -0.89525,-6.325 -2.24525,-15.775 -3,-21 -0.75475,-5.225 -2.10475,-14.675 -3,-21 -0.89525,-6.325 -2.24525,-15.775 -3,-21 -0.75475,-5.225 -2.10475,-14.675 -3,-21 -0.89525,-6.325 -2.24525,-15.775 -3,-21 -0.75475,-5.225 -2.10475,-14.675 -3,-21 -0.89525,-6.325 -2.24525,-15.775 -3,-21 -0.75475,-5.225 -2.10475,-14.675 -3,-21 -0.89525,-6.325 -2.24525,-15.775 -3,-21 -0.75475,-5.225 -2.10475,-14.675 -3,-21 -0.89525,-6.325 -2.24525,-15.775 -3,-21 -0.75475,-5.225 -2.10306,-14.675 -2.99626,-21 -0.89319,-6.325 -2.25802,-15.55 -3.03295,-20.5 -1.41298,-9.0256 -1.06274,-15.6043 1.33099,-25 0.56049,-2.2 1.32683,-8.725 1.70297,-14.5 0.37614,-5.775 1.33682,-14.1 2.13484,-18.5 2.91538,-16.0743 3.37268,-19.2019 4.38645,-30 0.568,-6.05 2.58687,-17.525 4.48638,-25.5 1.89951,-7.975 3.95315,-16.75 4.56364,-19.5 0.61049,-2.75 2.24906,-8.375 3.64125,-12.5 1.39219,-4.125 2.88178,-9.3 3.3102,-11.5 1.68015,-8.6278 7.18949,-29.6136 10.89488,-41.5 2.14317,-6.875 4.89085,-16.1 6.10594,-20.5 1.21509,-4.4 4.2307,-14.975 6.70136,-23.5 4.01311,-13.8472 6.15756,-20.0193 14.81906,-42.6517 4.18789,-10.943 9.35153,-30.8435 11.41812,-44.0052 2.01744,-12.8487 5.59914,-26.689 10.31088,-39.8431 2.07905,-5.8042 2.72364,-10.3311 3.77338,-26.5 1.80383,-27.7839 1.70752,-33.7814 -0.61828,-38.5041 -1.77962,-3.6137 -2.76524,-4.255 -12.43285,-8.09 -15.58136,-6.1809 -20.65392,-11.8973 -26.98125,-30.4059 -1.78621,-5.225 -5.43579,-13.8097 -8.11016,-19.0771 -6.30922,-12.4267 -7.03539,-18.6882 -3.98484,-34.3602 2.39239,-12.2907 3.70939,-15.042 18.25316,-38.1324 2.1027,-3.3384 3.82309,-6.3679 3.82309,-6.7324 0,-0.3645 1.86676,-3.7081 4.14836,-7.4303 9.5707,-15.6136 23.6766,-44.9286 23.82705,-49.5176 0.0663,-2.0222 -4.67853,-0.1865 -26.97541,10.4361 -12.14717,5.7871 -28.19337,10.2566 -35.5,9.8881 -16.30132,-0.8222 -32.2956,-0.4921 -33.72535,0.6961 -1.87693,1.5599 -66.93773,1.8944 -78.77465,0.4051 -14.7742,-1.8589 -28.32027,-6.5741 -38.72621,-13.4802 -3.28833,-2.1823 -4.46174,-3.7358 -5.28753,-7 -0.58372,-2.3074 -1.70254,-5.7702 -2.48626,-7.6952 -0.78372,-1.925 -1.90862,-5.4104 -2.49978,-7.7454 -1.19077,-4.7033 -0.82506,-4.3004 -10.28264,-11.3297 -11.36064,-8.4438 -17.61991,-18.7437 -18.75651,-30.8648 -0.3899,-4.1581 -1.43788,-8.9101 -2.32883,-10.5601 -0.89096,-1.65 -1.62269,-4.0237 -1.62608,-5.275 -0.003,-1.2512 -0.95798,-4.8512 -2.12133,-8 -5.919408,-16.02177 -5.884828,-15.83479 -5.884828,-31.82121 0,-9.11181 0.4039,-15.53538 1,-15.90379 0.55,-0.33992 1,-1.83107 1,-3.31366 0,-2.63327 0.48139,-3.12162 11.026868,-11.18634 1.8937,-1.44822 1.90536,-1.70712 0.3376,-7.5 -1.21853,-4.50245 -1.64632,-10.86703 -1.71396,-25.5 -0.0884,-19.12351 -0.0401,-19.59654 2.50481,-24.5 5.48031,-10.55948 8.1555,-41.30672 4.91585,-56.5 -0.88064,-4.13 -2.70481,-19.04761 -3.66849,-30 -1.11949,-12.7232 -2.82366,-25.43679 -4.49043,-33.5 -3.78929,-18.33111 -5.4107,-22.16551 -12.848778,-30.38551 -1.68491,-1.86203 -3.06347,-4.12903 -3.06347,-5.03777 0,-0.90875 -1.33171,-3.21027 -2.95936,-5.11449 l -2.95936,-3.46223 -0.0727,6 c -0.0836,6.8948 -3.46211,37.3316 -5.05056,45.5 -0.58824,3.025 -1.71944,8.27386 -2.51376,11.66413 -0.79436,3.39028 -1.44426,8.02513 -1.44426,10.29966 0,4.76732 -1.65453,8.42036 -7.15158,15.78992 l -3.91881,5.25371 -7.21481,-0.60363 c -12.17227,-1.01841 -14.42103,-1.90762 -16.84625,-6.66145 -1.17313,-2.29954 -3.03201,-5.39699 -4.13083,-6.88322 l -1.99785,-2.70224 2.75202,-7.54555 c 2.62567,-7.19913 2.71906,-8.07308 2.03409,-19.03565 -0.49485,-7.91974 -1.15421,-11.85217 -2.12196,-12.65533 -1.97865,-1.64214 -1.76413,-4.04106 1.1046,-12.35252 1.92156,-5.56726 2.63004,-10.05287 3.02749,-19.16797 0.28538,-6.54492 0.9037,-14.59986 1.37404,-17.89986 0.47034,-3.3 0.68141,-6.29704 0.46906,-6.66008 -0.21236,-0.36305 -4.09705,-3.18128 -8.63266,-6.26274 -17.74465,-12.05559 -24.0028,-17.64362 -27.5385295,-24.58973 -2.91256,-5.72185 -3.21738,-7.06437 -2.64471,-11.64791 0.50626,-4.0519 0.15124,-6.55969 -1.62942,-11.51009 -3.11245005,-8.65291 -3.18292005,-17.80951 -0.18389,-23.89517 2.78734,-5.6561 2.79896,-7.3218 0.10028,-14.37388 -1.90779005,-4.98535 -2.00969005,-6.09267 -0.90543,-9.83899 2.01488,-6.83568 6.62849,-14.02528 11.0576095,-17.23157 7.13304,-5.16367 7.21229,-5.29299 6.48491,-10.5817 -0.79784,-5.80094 1.64345,-15.26199 4.8486,-18.79049 2.69808,-2.97027 11.28581,-7.09486 14.7992,-7.10788 3.03061,-0.0112 9.87394,1.98072 21.52986,6.26692 4.49076,1.65137 8.87826,2.72881 9.75,2.39429 1.35253,-0.51901 1.58497,-2.88695 1.58497,-16.14652 0,-13.30326 0.35217,-16.86784 2.44834,-24.78138 1.34658,-5.0837 3.13594,-13.51808 3.97636,-18.74308 0.84041,-5.225 2.45699,-13.775 3.59238,-19 1.53593,-7.06822 2.18747,-14.49155 2.5453,-29 0.30707,-12.4508 1.02936,-21.74797 1.99805,-25.71849 0.83441,-3.42016 1.71001,-10.62016 1.94577,-16 0.23576,-5.37983 1.1105,-12.93151 1.94386,-16.78151 0.83337,-3.85 1.54278,-8.575 1.57647,-10.5 0.0337,-1.925 0.68282,-5.075 1.44252,-7 7.547188,-19.12391 7.781248,-20.10152 6.52777,-27.26484 -1.30711,-7.46978 -2.86439,-9.11165 -7.72097,-8.14033 -1.97145,0.39429 -3.30563,0.0742 -4.20431,-1.00863 -0.72404,-0.87241 -2.50687,-1.5862 -3.96185,-1.5862 -1.45498,0 -4.29689,-1.1222 -6.31535,-2.49378 -3.03253,-2.06066 -3.75744,-3.23301 -4.17378,-6.75 -2.0807,-17.57664 -2.41536,-22.98491 -1.59851,-25.8331 0.90693,-3.1623 0.26128,-5.36958 -3.48761,-11.92312 -3.87879,-6.7806 -8.53444,-17.81577 -8.53444,-20.22895 0,-1.49118 -1.35,-5.36786 -3,-8.61485 -1.95214,-3.84156 -3,-7.40468 -3,-10.20116 0,-2.51887 -0.6559,-5.02232 -1.58475,-6.04868 -2.57067,-2.84056 -2.81498,-8.88978 -0.52124,-12.90636 1.0993,-1.925 2.70922,-5.075 3.57759,-7 0.86837,-1.925 2.08085,-4.38283 2.6944,-5.46185 0.61356,-1.07902 2.14906,-3.90562 3.41224,-6.28133 1.26318,-2.3757 3.44983,-5.6899 4.85922,-7.36487 1.95348,-2.32157 2.56254,-4.16092 2.56254,-7.73877 0,-5.20507 3.07805,-17.47616 5.9331,-23.65318 2.02755,-4.3867 8.16515,-11.38803 10.24975,-11.69218 0.72443,-0.1057 3.77797,-0.2182 6.78564,-0.25 5.36255,-0.0567 5.52723,-0.14635 8.5,-4.627164 6.037168,-9.09972 10.023348,-13.25888 16.962728,-17.69882 3.88783,-2.4875 8.99238,-6.21128 11.34344,-8.27507 2.35107,-2.06378 5.27831,-4.00423 6.50499,-4.31211 1.22668,-0.30788 5.82808,-2.49137 10.22534,-4.85222 6.13296,-3.29273 10.37575,-6.69673 18.21713,-14.61564 7.91218,-7.99042 10.73687,-10.250173 12.5,-10 2.09519,0.29728 2.25585,0.7643 2.00319,5.8232 -0.22758,4.5566 -0.98045,6.52917 -4.3892,11.5 -4.19927,6.12362 -6.17982,13.55151 -3.97643,14.91328 2.42657,1.4997 17.50223,-15.51736 26.94358,-30.41328 4.17212,-6.582486 9.27186,-11 12.6988,-11 3.0952,0 14.46845,-6.203741 17.34713,-9.462302 6.72965,-7.6177195 15.80718,-12.9138785 24.05355,-14.0337115 2.9715,-0.403522 6.97292,-1.389739 8.89202,-2.19159398 7.01472,-2.93093502 11.90118,1.13237898 8.3914,6.97782098 -1.05999,1.765382 -2.19228,4.9592935 -2.5162,7.0975805 -0.70098,4.627375 -5.02176,11.212079 -8.60418,13.112437 -3.31448,1.75822 -6.96098,6.557007 -10.41217,13.702379 -2.704,5.59839 -9.72915,12.9568 -15.7856,16.53443 -2.58179,1.5251 -2.86801,2.22154 -2.86801,6.97857 0,5.58658 1.43164,6.87908 4.08215,3.6854 2.19688,-2.64708 12.13315,-9.97277 16.62801,-12.25931 2.31559,-1.17793 5.30324,-2.1417 6.63922,-2.1417 3.39738,0 6.04596,-2.53883 9.90428,-9.49389 3.5526,-6.40395 5.25462,-7.36664 9.73965,-5.50888 2.92884,1.21316 4.42403,3.95805 5.44869,10.00277 0.32631,1.925 1.93535,5.48022 3.57564,7.90048 4.10209,6.05264 4.18831,9.23436 0.49048,18.09952 -1.79003,4.2914 -2.32473,7.58441 -2.43328,14.98555 -0.13419,9.14917 -0.24795,9.597844 -3.208,12.651834 -2.51893,2.59888 -2.95277,3.69491 -2.42095,6.11624 0.53551,2.43819 -0.16216,4.14671 -4.02149,9.84817 -6.58097,9.72219 -10.59217,17.63044 -9.49762,18.72499 0.54861,0.54861 3.34302,0.0903 7.01943,-1.15124 l 6.10798,-2.06269 3.2229,3.52988 c 1.7726,1.94143 3.52878,4.27854 3.90262,5.19358 1.3218,3.23527 0.79596,9.43735 -1.10453,13.02754 -1.05866,1.99988 -2.19223,4.87365 -2.51906,6.38615 -0.44744,2.07072 -1.18684,2.75 -2.99338,2.75 -4.88949,0 -5.56274,0.85011 -5.56274,7.02408 0,6.56586 -2.11336,12.29463 -7.56589,20.50923 -1.9644,2.95949 -4.03672,7.06528 -4.60515,9.12399 -1.15854,4.19588 -9.72534,17.6247 -15.35633,24.07169 -2.03155,2.32594 -5.78148,5.58839 -8.33318,7.24988 -9.69687,6.31394 -10.80725,7.7794 -15.65679,20.66343 -3.11006,8.26266 -5.425,10.92959 -12.07418,13.91005 -2.80034,1.25524 -6.35324,3.78197 -7.89534,5.61495 -4.50495,5.35471 -8.51024,7.8327 -12.66037,7.8327 -5.20401,0 -7.78755,1.43416 -11.85134,6.57888 -4.44532,5.62772 -8.27409,7.42112 -15.84354,7.42112 -3.73374,0 -6.34875,0.47727 -6.84887,1.25 -0.44496,0.6875 -0.85537,5.75 -0.91201,11.25 -0.12329,11.97045 -1.42467,17.29799 -5.89182,24.1197 -4.29115,6.55295 -9.87581,24.88349 -9.00305,29.55073 0.34243,1.83126 -0.0689,6.70457 -0.91413,10.82957 -0.99967,4.87882 -1.60044,13.96558 -1.71898,26 -0.14933,15.15907 -0.49877,19.22236 -1.93501,22.5 -3.66896,8.37295 -5.14131,16.85841 -5.54304,31.94564 -0.33247,12.48625 -0.72108,15.53052 -2.3616,18.5 -5.848,10.58537 -9.27427,18.71281 -10.63019,25.21583 -1.85427,8.89315 -1.52345,9.28653 8.51764,10.12834 3.81323,0.31969 8.27185,1.27352 9.90805,2.11963 4.23722,2.19115 10.39779,9.75283 15.84068,19.44335 2.69517,4.79848 5.67936,8.80288 7.01298,9.41051 1.2768,0.58175 2.32146,1.35967 2.32146,1.7287 0,0.36904 2.67473,3.55931 5.94384,7.08949 6.64594,7.17669 9.89163,14.57102 14.10131,32.12558 2.24914,9.37904 2.28592,10.20697 1.0884,24.5 -0.68168,8.13611 -1.402,18.69141 -1.60072,23.45622 -0.43198,10.35755 0.0939,12.80088 7.06794,32.83671 2.01015,5.775 4.45697,13.2 5.43738,16.5 0.98042,3.3 3.43992,10.275 5.46557,15.5 2.02565,5.225 5.15178,13.775 6.94696,19 2.89181,8.41685 8.11931,20.91414 17.60157,42.07976 1.62126,3.61886 2.94775,6.91782 2.94775,7.33102 0,0.41319 1.60659,3.95249 3.57019,7.86511 1.96361,3.91262 3.82756,9.2869 4.14212,11.94285 0.3822,3.22703 1.68587,6.39578 3.92981,9.55193 1.84683,2.59762 3.35788,5.19318 3.35788,5.76792 0,0.57475 2.06213,3.05119 4.58252,5.5032 2.52039,2.45202 5.43336,6.1042 6.47327,8.11596 2.27898,4.40883 3.48405,4.91921 7.5859,3.21285 2.93225,-1.2198 3.18134,-1.15906 3.73635,0.91123 0.32706,1.22 0.6008,3.42911 0.60831,4.90915 0.008,1.48004 0.44664,2.95859 0.97585,3.28566 0.5292,0.32706 5.90523,0.0771 11.94671,-0.55548 10.46028,-1.09525 11.14527,-1.0508 14.35271,0.93151 2.5647,1.58507 4.30693,1.93703 7.30329,1.47539 5.86895,-0.90422 6.96496,-1.77672 8.83194,-7.03089 0.93753,-2.63845 2.30147,-6.14717 3.03098,-7.79717 0.72951,-1.65 2.60394,-6.1472 4.1654,-9.99378 1.84143,-4.53626 4.73443,-9.10428 8.23312,-13 13.69603,-15.25028 12.08964,-14.21642 29.01452,-18.67335 11.73071,-3.08911 16.0183,-6.08977 20.66761,-14.46417 2.87748,-5.18294 8.17854,-11.28636 21.59942,-24.8687 9.78232,-9.9 19.7224,-19.97411 22.0891,-22.38692 2.7869,-2.84128 7.474,-5.87511 13.303,-8.6108 4.95,-2.32314 12.825,-6.03705 17.5,-8.25314 4.675,-2.21609 12.3826,-5.84852 17.128,-8.07206 6.8052,-3.18868 9.4365,-5.06051 12.4547,-8.85994 4.758,-5.98943 7.4124,-8.26626 9.6706,-8.2949 2.3917,-0.0303 14.7015,-12.87689 15.3352,-16.00382 0.9312,-4.59498 2.7601,-10.50274 3.6011,-11.63227 0.4561,-0.61261 3.6377,-1.33928 7.0702,-1.61481 3.4325,-0.27552 8.4908,-1.4144 11.2406,-2.53082 2.7498,-1.11643 6.485,-2.59134 8.3005,-3.27759 4.7764,-1.80547 4.0051,-4.81491 -1.9973,-7.79319 -5.2878,-2.62368 -4.6309,-2.79532 -16.0111,4.18383 -5.445,3.33933 -16.1236,7.23378 -26.2925,9.58889 -2.9588,0.68525 -16.0376,-1.63129 -21.8462,-3.86942 -2.9473,-1.13566 -17.6538,-15.30939 -17.6538,-17.01431 0,-2.46089 -9.6714,-5.25259 -20.6256,-5.95365 -12.8656,-0.82339 -15.92302,-2.1821 -16.92464,-7.5212 -0.74247,-3.9577 -0.17839,-13.28867 0.95417,-15.78379 0.59986,-1.32154 0.002,-2.02143 -2.68561,-3.14443 -2.25733,-0.94317 -3.93637,-2.58623 -4.83777,-4.73412 -3.81444,-9.08915 -6.59272,-13.51027 -9.55323,-15.20217 -1.84515,-1.05448 -7.4939,-2.3435 -13.5,-3.08062 -5.68003,-0.6971 -11.38215,-1.83948 -12.67138,-2.53863 -2.79541,-1.51593 -6.32298,-9.00936 -6.45636,-13.71492 -0.0672,-2.3716 0.69535,-4.18798 2.58735,-6.16281 3.50883,-3.66242 9.57865,-17.76202 10.76529,-25.0067 1.06026,-6.47311 1.08653,-15.49498 0.056,-19.21569 -0.48916,-1.76604 -1.85441,-2.88305 -4.65032,-3.80475 -4.72305,-1.557 -9.91004,-6.14307 -8.52009,-7.53302 0.60128,-0.60128 2.06796,-0.48829 3.98863,0.30729 4.28917,1.77663 6.54069,0.7742 4.95188,-2.20468 -2.02888,-3.804 -15.10921,-17.70354 -18.59628,-19.76096 -3.23259,-1.90727 -3.28193,-2.04609 -3.27718,-9.22015 0.007,-11.26099 -3.73568,-20.54482 -10.67299,-26.47155 -5.68373,-4.85577 -7.16793,-7.8814 -5.44519,-11.10037 0.87425,-1.63355 0.51301,-2.54339 -2.09219,-5.26949 l -3.1489,-3.29502 2.17722,-1.44562 c 1.39152,-0.92393 2.17723,-2.47737 2.17723,-4.3046 0,-2.22146 0.5618,-2.99998 2.51942,-3.49131 2.39818,-0.60191 2.48819,-0.8795 1.87055,-5.76905 -0.35687,-2.8252 -1.26561,-5.84715 -2.01941,-6.71546 -1.95835,-2.25577 -1.69267,-5.59919 0.6294,-7.92126 2.37346,-2.37346 2.58059,-5.27327 0.5,-7 -2.37639,-1.97223 -1.76204,-4.81313 1.39374,-6.44505 2.03212,-1.05085 3.15846,-2.61576 3.7828,-5.25575 0.94935,-4.01424 2.1047,-4.85919 10.79979,-7.89821 2.73698,-0.9566 5.88698,-2.87109 7,-4.25442 1.11302,-1.38332 4.27367,-4.83474 7.02367,-7.66981 2.75,-2.83507 7.025,-7.5292 9.5,-10.43139 3.30271,-3.87277 6.53704,-6.27277 12.15621,-9.02037 4.21092,-2.05901 11.86092,-6.87807 17,-10.70901 5.13909,-3.83094 12.39089,-8.24084 16.11519,-9.79977 3.7242,-1.55893 8.1991,-3.88783 9.9442,-5.17532 1.7451,-1.2875 3.9482,-2.3409 4.8958,-2.3409 2.7735,0 10.2255,-3.55847 12.2936,-5.87041 1.164,-1.30127 3.1088,-2.13104 5,-2.13333 1.7022,-0.002 4.67,-0.99912 6.595,-2.2157 2.837,-1.79294 5.4891,-2.31319 14,-2.74627 l 10.5,-0.53429 0.3164,-2.75 c 0.2659,-2.31052 0.7903,-2.75 3.2814,-2.75 3.5756,0 4.7965,-2.3543 2.5235,-4.86599 -2.3701,-2.61895 -2.0004,-3.80819 1.3952,-4.48731 1.9904,-0.39808 3.3426,-1.46108 3.9753,-3.125 0.5273,-1.38694 1.4674,-2.5217 2.0891,-2.5217 1.9853,0 6.847,4.73426 12.4323,12.10662 6.7639,8.92809 8.8481,10.50541 11.9899,9.07394 1.2779,-0.58226 2.6105,-1.96306 2.9613,-3.06845 0.8091,-2.54906 4.4599,-3.81133 5.6953,-1.96912 0.5005,0.74635 0.6601,2.93201 0.3546,4.85701 -1.1864,7.47519 -1.3398,7.14338 3.9857,8.61947 2.75,0.76224 7.4632,1.82748 10.4739,2.36722 3.0106,0.53973 7.9606,2.22603 11,3.74732 5.1249,2.56517 5.5033,2.99462 5.2113,5.91506 -0.3019,3.02031 0,3.29903 7.311,6.81693 4.2857,2.06134 7.4556,4.18605 7.2371,4.85093 -0.2138,0.65069 -2.2947,1.32283 -4.6242,1.49365 -5.1757,0.37954 -4.9858,2.02135 0.4472,3.86649 4.2249,1.43487 7.8284,4.89138 6.8127,6.53482 -0.3548,0.57411 -2.2781,0.73844 -4.4946,0.38402 -2.1309,-0.34075 -3.8744,-0.26717 -3.8744,0.16352 0,0.43068 2.5027,3.0235 5.5617,5.76181 3.2861,2.94176 6.7697,7.33131 8.5143,10.72876 1.6241,3.1625 3.3427,5.75 3.8192,5.75 0.4766,0 2.5324,3.37147 4.5684,7.49215 2.0361,4.12068 4.1233,7.75253 4.6382,8.07077 1.3441,0.83067 5.3471,9.24186 6.6329,13.93708 6.7758,24.74174 12.2037,41.04596 18.8098,56.5 2.1762,5.09088 2.8368,8.34269 3.0473,15 0.4894,15.47925 2.1463,25.9703 5.9224,37.5 1.6515,5.04243 2.737,9.65753 3.9985,17 2.2059,12.83823 14.6615,40.61168 28.4512,63.44031 3.3013,5.46517 7.0224,12.03831 8.2692,14.60697 2.4961,5.14257 7.7595,8.54616 16.1097,10.41748 2.4705,0.55367 7.974,2.68274 12.2299,4.73127 8.5705,4.12528 11.3455,7.3931 15.3386,18.06256 3.0937,8.26621 12.4004,17.80143 31.4404,32.21252 3.2185,2.43599 6.901,5.80478 8.1835,7.4862 1.2825,1.68142 7.3879,7.32888 13.5675,12.54991 6.1796,5.22103 13.0502,11.18028 15.2679,13.24278 2.2178,2.0625 4.3869,3.75 4.8203,3.75 0.4333,0 3.2254,2.1375 6.2045,4.75 7.0099,6.14728 14.0028,11.25 15.4173,11.25 0.6143,0 1.5617,0.83112 2.1054,1.84693 0.5436,1.01581 3.8922,3.33628 7.4413,5.1566 7.2303,3.7084 11.4938,7.41208 16.6406,14.45553 1.925,2.63438 4.7624,6.14331 6.3053,7.79762 1.543,1.65432 4.5329,6.43583 6.6444,10.62558 2.1115,4.18976 5.7132,9.91521 8.0039,12.72322 3.7044,4.54092 12.3219,22.46742 19.1779,39.89452 2.3026,5.85288 4.0493,9.78388 7.9915,17.98511 1.5824,3.29181 2.877,6.74717 2.877,7.67857 0,0.93141 0.5625,2.29116 1.25,3.02168 1.812,1.92542 8.2777,11.79806 10.0774,15.38747 0.8474,1.69006 2.2805,3.68679 3.1847,4.43719 0.9041,0.75039 2.7369,3.5213 4.0728,6.15757 1.3359,2.63626 4.7883,8.20972 7.672,12.38545 2.8837,4.17573 5.6822,8.34705 6.2188,9.2696 0.5366,0.92255 2.6636,4.39265 4.7267,7.71134 2.0631,3.31868 4.1643,7.36868 4.6695,9 0.9671,3.12321 3.7674,12.89815 6.5794,22.96602 0.9217,3.3 2.5044,8.925 3.517,12.5 1.0127,3.575 2.6102,9.425 3.5502,13 3.3165,12.6146 5.4677,17.0472 8.5746,17.6686 3.7965,0.7593 10.6462,6.7718 12.344,10.8352 0.7577,1.8133 2.3381,7.0543 3.5121,11.6466 1.1741,4.5923 3.2023,11.2746 4.5072,14.8496 4.2418,11.6209 6.3617,23.6783 7.0326,40 l 0.6372,15.5 -3.9181,8 c -2.155,4.4 -5.9333,10.475 -8.3964,13.5 -5.5919,6.8678 -11.2153,14.9133 -12.1356,17.3627 -0.4279,1.139 0.035,3.0817 1.1907,5 1.0399,1.7255 2.4453,4.9373 3.1233,7.1373 0.678,2.2 2.7566,6.7714 4.6192,10.1588 1.8626,3.3873 4.9625,10.2884 6.8886,15.3357 5.2883,13.8578 4.707,25.2161 -2.1212,41.444 -4.6577,11.0697 -6.228,15.9952 -7.3521,23.0615 -1.6491,10.3659 -1.6195,10.2074 -3.9067,20.9093 -1.1649,5.4501 -2.1179,10.9993 -2.1179,12.3315 0,1.3322 -1.3606,8.0176 -3.0236,14.8564 -3.9145,16.0976 -9.1751,30.6864 -18.0617,50.0891 -1.6679,3.6416 -3.4069,8.6249 -3.8644,11.0741 -0.4576,2.4491 -1.7811,5.7368 -2.9411,7.3058 -1.1601,1.5691 -2.1046,3.4335 -2.0991,4.1433 0.02,2.582 -4.303,14.4821 -8.0981,22.2905 -10.9638,22.5582 -17.6713,40.8995 -18.5128,50.6222 -0.362,4.1835 -2.535,13.5579 -5.0188,21.652 -2.4092,7.8509 -4.3804,14.9637 -4.3804,15.8064 0,3.1892 10.719,11.4091 14.8864,11.4157 1.5598,0 3.7871,1.5625 6.43,4.5037 2.224,2.475 4.3137,4.5 4.6439,4.5 0.3301,0 2.3866,-2.492 4.5699,-5.5378 2.1834,-3.0457 8.4698,-9.386 13.9698,-14.0894 20.2424,-17.3105 30.3787,-27.0138 51.0971,-48.9143 22.20185,-23.4686 22.38625,-23.677 24.08525,-27.2284 0.8605,-1.7984 5.1463,-6.7484 9.5241,-11 4.3778,-4.2515 9.355,-9.7551 11.0606,-12.2301 1.7055,-2.475 3.3599,-4.725 3.6764,-5 0.3164,-0.275 1.7698,-2.3 3.2297,-4.5 1.46,-2.2 5.0558,-6.5445 7.9907,-9.6545 2.9349,-3.11 6.1193,-6.5975 7.0764,-7.75 0.9571,-1.1525 2.1855,-2.0955 2.7298,-2.0955 0.5442,0 2.3444,2.3625 4.0004,5.25 3.5273,6.1506 3.7193,9.296 1.5451,25.3136 -2.2181,16.3398 -6.1687,26.2617 -13.5747,34.0925 -4.5798,4.8425 -4.861,5.425 -3.7719,7.8153 0.9002,1.9757 0.9011,2.8586 0,3.7557 -0.6451,0.6451 -1.1706,1.8704 -1.1678,2.7229 0,0.8525 -2.9751,5.9605 -6.6176,11.3511 -5.9818,8.8526 -10.0078,13.8642 -17.3533,21.6015 -3.9526,4.1634 -15.41755,17.3598 -17.56515,20.2179 -4.7571,6.3309 -13.6207,16.8527 -18.8523,22.3795 -3.1238,3.3 -7.0282,7.4625 -8.6765,9.25 -3.4711,3.7643 -5.7697,4.0209 -14.9501,1.669 -5.4785,-1.4035 -6.5142,-1.415 -9.2248,-0.1022 -2.2852,1.1067 -3.7751,1.2272 -5.9219,0.4788 -1.5777,-0.55 -3.5379,-0.7431 -4.356,-0.4292 -1.8841,0.723 -1.8825,5.5279 0,8.0176 2.5158,3.323 5.6432,15.1915 5.318,20.1824 -0.2827,4.3393 -1.1336,5.6461 -4.5885,7.0473 -0.3752,0.1522 4.4692,24.4158 5.3138,26.6146 1.0992,2.8614 -4.6012,7.7717 -9.0222,7.7717 -7.0109,0 -7.6109,0.9276 -7.3447,11.3548 0.335,13.1194 -1.1754,15.8469 -11.7108,21.1489 l -7.9557,4.0037 -0.6465,5.2932 c -0.69,5.6495 -3.4694,10.4963 -9.2094,16.0597 l -3.3555,3.2524 -9.8127,-0.3064 -9.8126,-0.3063 -0.9168,3.5 c -0.5043,1.925 -1.5738,4.2328 -2.3767,5.1284 -1.905,2.1252 -11.7465,5.8716 -15.424,5.8716 -3.3128,0 -8.7634,-4.3508 -11.989,-9.5699 -1.166,-1.8866 -2.5796,-3.4301 -3.1414,-3.4301 -0.5619,0 -3.3377,2.0845 -6.1685,4.6322 -9.3555,8.42 -12.9147,8.4476 -16.9271,0.1313 -1.3967,-2.8949 -2.9268,-6.6091 -3.4003,-8.2538 -1.3253,-4.6038 -3.7339,-4.2391 -8.8769,1.3441 -7.7881,8.4547 -13.0917,9.8779 -21.3033,5.7168 -5.304,-2.6878 -8.3351,-6.2446 -12.5659,-14.7453 -3.2141,-6.4581 -3.0664,-9.7254 0.8284,-18.3253 1.9919,-4.3982 2.8562,-5.2155 7.1813,-6.7902 8.2661,-3.0097 8.8453,-3.7556 7.446,-9.5885 -0.9362,-3.9024 -0.9294,-6.2619 0.031,-10.8068 0.6757,-3.198 1.2586,-10.4284 1.2954,-16.0676 0.054,-8.3168 -0.2493,-10.5694 -1.6075,-11.9276 -1.9983,-1.9983 -1.8343,-2.3431 -4.7452,9.9735 -1.143,4.836 -3.3011,11.361 -4.7958,14.5 -2.8835,6.0555 -2.8657,6.0411 -23.179,18.7072 -8.9125,5.5572 -9.8758,7.3601 -8.5733,16.0455 0.3738,2.4927 0.37,7.1022 -0.01,10.2434 -0.6717,5.5752 -0.9014,5.9208 -9.6494,14.5201 -10.9442,10.7581 -13.1092,14.9752 -13.4465,26.191 -0.1323,4.4 -0.5364,12.2015 -0.8981,17.3367 -0.5011,7.1149 -0.3008,10.3275 0.8417,13.5 0.8246,2.2898 2.4555,9.7883 3.6243,16.6633 1.1688,6.875 2.5673,14.75 3.1079,17.5 1.1799,6.0033 5.0087,31.3778 5.5829,37 2.6435,25.8827 4.6405,71.2138 4.8944,111.1022 0.1724,27.0699 0.719,47.2603 1.3672,50.5 3.5811,17.8968 4.4532,27.9168 3.3665,38.6808 -1.844,18.2645 -0.1091,28.868 8.2978,50.717 1.6058,4.1732 2.978,10.236 3.3981,15.0133 0.5779,6.5721 1.6514,10.1692 5.9685,20 9.8169,22.3545 13.4539,33.7169 16.6405,51.9867 0.8634,4.95 2.4959,12.6 3.6278,17 2.3921,9.299 3.0861,12.6239 5.3049,25.4165 0.8983,5.1791 2.0685,10.2298 2.6005,11.2237 0.5319,0.994 1.6169,6.6566 2.4109,12.5835 0.7941,5.927 1.9029,13.2513 2.464,16.2763 1.0503,5.6629 1.9305,12.666 4.5245,36 0.8255,7.425 1.9564,15.072 2.5132,16.9934 0.5568,1.9214 1.0123,5.1156 1.0123,7.0982 0,1.9827 0.9512,7.8356 2.1137,13.0066 1.1626,5.171 2.4938,14.8018 2.9584,21.4018 0.4646,6.6 1.2903,15.15 1.835,19 0.5446,3.85 0.9889,12.85 0.9872,20 -0.01,19.8679 -2.2066,23.8906 -14.8243,27.0817 -3.5365,0.8944 -7.1365,2.028 -8,2.5192 -4.9357,2.8075 -27.4637,9.8991 -31.4465,9.8991 -4.6124,0 -6.591,2.8732 -8.2635,12 -1.8052,9.8514 -2.0641,34.1839 -0.4362,41 0.5911,2.475 1.3716,13.405 1.7345,24.2889 l 0.6597,19.7889 7.1959,3.4611 c 3.9578,1.9036 7.6494,3.4611 8.2036,3.4611 0.5541,0 2.7569,1.4028 4.895,3.1174 2.1381,1.7146 7.81,5.7661 12.6041,9.0033 4.7942,3.2373 9.1817,6.7549 9.75,7.8169 2.1694,4.0535 0.6675,16.3661 -3.789,31.0624 -2.2057,7.2741 -7.5862,14.8554 -11.0253,15.5352 -1.4588,0.2884 -5.3523,1.8736 -8.6523,3.5228 -3.3,1.6491 -6.9,2.9902 -8,2.98 -1.1,-0.01 -4.4262,1.111 -7.3916,2.4914 -10.7882,5.0219 -24.4723,3.368 -42.6796,-5.1585 -4.9925,-2.338 -9.4918,-3.6388 -14.0625,-4.0656 -6.3586,-0.5938 -6.9471,-0.8703 -10.9116,-5.1268 -2.6191,-2.8121 -4.8206,-6.498 -5.8707,-9.8294 -0.9241,-2.9317 -2.4461,-5.7288 -3.3821,-6.216 -3.8612,-2.0096 -17.7283,-4.1089 -33.8335,-5.1219 -9.4223,-0.5926 -19.7723,-1.51 -23,-2.0386 -3.2276,-0.5285 -7.484,-0.9636 -9.4587,-0.9668 -1.9746,0 -6.2496,-1.2858 -9.5,-2.8502 -7.5517,-3.6346 -19.4917,-8.1556 -21.5392,-8.1556 -0.869,0 -5.0186,-1.7378 -9.2212,-3.8618 -4.2027,-2.124 -10.2305,-4.6633 -13.3952,-5.6429 -3.1648,-0.9795 -8.0041,-2.9187 -10.7541,-4.3092 -4.4983,-2.2745 -6.0034,-2.5027 -15,-2.2738 -5.5,0.1399 -12.925,0.5544 -16.5,0.9211 l -6.5,0.6666 -0.6889,5.5 c -0.7788,6.2183 0.5505,27.1991 1.9641,31 0.8347,2.2442 2.5688,11.1675 5.247,27 0.5117,3.025 1.2354,10.3846 1.6082,16.3546 0.5677,9.0931 1.0079,11.1621 2.7122,12.75 1.119,1.0425 2.5158,1.8954 3.1039,1.8954 2.3412,0 11.2928,5.4506 15.3035,9.3181 3.4237,3.3015 4.2512,4.7869 4.2562,7.6401 0.01,4.3271 2.1045,8.5544 5.612,11.3134 l 2.6326,2.0708 -0.6773,11.5788 c -0.5386,9.2084 -1.0822,12.1419 -2.6556,14.3293 -1.0882,1.5127 -2.3598,4.7915 -2.8258,7.286 -0.466,2.4946 -1.6899,5.4621 -2.7197,6.5944 -1.0298,1.1324 -4.1224,6.368 -6.8724,11.6348 -6.6844,12.8017 -7.5975,13.3921 -22.2212,14.3674 -6.4783,0.4321 -13.3538,0.9704 -15.2788,1.1964 -1.925,0.226 -10.025,-0.192 -18,-0.9288 z m 134,-327.344 c 0,-0.5188 -1.0125,-1.6522 -2.25,-2.5187 -4.2788,-2.9961 -11.4445,-10.5011 -17.1968,-18.0112 -5.4316,-7.0915 -5.6883,-7.6729 -4.3186,-9.7832 1.8386,-2.8328 6.3494,-16.8058 7.3422,-22.7436 0.4138,-2.475 0.8613,-8.6526 0.9945,-13.7281 0.1801,-6.8657 0.65,-9.636 1.8354,-10.8214 0.8763,-0.8764 1.5933,-2.6381 1.5933,-3.9149 0,-1.2769 0.6039,-2.5534 1.342,-2.8366 1.7387,-0.6672 2.7412,-18.8766 1.6901,-30.699 -0.7422,-8.3477 -4.0597,-25.9253 -7.9722,-42.2402 -1.0895,-4.5429 -2.3934,-10.5098 -2.8978,-13.2598 -2.2009,-12.0016 -9.6034,-37.4689 -12.6328,-43.4617 -2.9627,-5.8607 -7.3217,-16.8687 -8.9932,-22.7105 -1.1447,-4.0007 -11.5361,-11.8482 -11.5361,-8.712 0,0.7556 2.8283,9.618 4.5904,14.3842 2.4564,6.6437 9.8017,50.6065 12.4733,74.6541 0.6016,5.4153 2.2087,16.3709 3.5715,24.3459 1.3627,7.975 2.901,16.975 3.4186,20 1.8348,10.7251 2.2661,21.6498 0.9928,25.1451 -1.3482,3.7006 -3.2245,18.3597 -3.0534,23.8549 0.06,1.925 0.3276,13.4874 0.5948,25.6943 0.4586,20.9521 0.5957,22.2292 2.4489,22.8174 1.0797,0.3427 1.9631,1.4377 1.9631,2.4332 0,2.5764 1.9762,3.8979 8.2868,5.5416 3.0386,0.7914 7.9296,2.7762 10.869,4.4106 5.8606,3.2588 6.8442,3.5691 6.8442,2.1596 z m 186.5996,-876.5567 c 1.3383,-3.85 3.0712,-8.3555 3.851,-10.0123 1.855,-3.9416 7.4829,-22.7385 8.5293,-28.4877 0.4505,-2.475 1.3636,-8.55 2.0292,-13.5 0.6656,-4.95 2.022,-14.4 3.0142,-21 0.9923,-6.6 2.282,-17.175 2.8662,-23.5 0.5841,-6.325 2.2251,-22.6257 3.6466,-36.2238 1.4214,-13.5981 2.7711,-28.5607 2.9992,-33.2502 0.5601,-11.5144 2.244,-32.131 3.9634,-48.526 2.4143,-23.0193 2.8678,-34.4623 1.6736,-42.2253 -0.6155,-4.0011 -1.3794,-9.3838 -1.6975,-11.9615 -0.5674,-4.5981 -0.674,-4.7186 -5.6271,-6.3638 -4.3576,-1.4474 -5.2428,-1.4828 -6.4665,-0.2592 -0.7798,0.7798 -2.5378,7.6935 -3.9066,15.3638 -3.0658,17.1786 -3.9008,19.766 -7.85,24.3267 -3.9071,4.512 -8.5906,10.6865 -11.0891,14.6193 -1.0482,1.65 -3.1979,4.35 -4.7771,6 -1.5792,1.65 -3.5159,4.2056 -4.3039,5.6791 -1.7247,3.2256 -2.3825,3.4489 -14.3906,4.8852 -7.2762,0.8703 -10.7097,1.8335 -15,4.2079 -3.0601,1.6935 -5.7277,3.2014 -5.928,3.3509 -0.7716,0.5759 3.9282,7.0603 7.8836,10.8769 8.9449,8.6312 9.0913,12.1272 0.7305,17.442 -6.7778,4.3086 -9.75,8.4022 -9.75,13.4289 0,3.6182 2.6364,14.4584 3.9088,16.0718 0.4586,0.5815 2.9765,7.3573 5.5954,15.0573 2.6188,7.7 6.7541,18.6723 9.1894,24.383 5.5633,13.0454 12.7513,40.3147 17.8235,67.617 1.4305,7.7 3.2292,16.7 3.9971,20 0.7678,3.3 1.9165,9.0608 2.5526,12.8018 1.4955,8.7951 3.2727,8.577 6.5328,-0.8018 z M 132.75257,289.99048 c 7.78348,-3.97152 18.69828,-11.17243 18.69828,-12.33597 0,-0.39551 1.90373,-2.01781 4.23052,-3.60511 2.32679,-1.5873 7.61429,-6.20926 11.75,-10.27101 7.11491,-6.98768 13.41746,-10.79462 27.67794,-16.71837 3.79362,-1.57586 11.33081,-9.34206 16.42264,-16.92163 5.33588,-7.94285 8.98941,-11.13909 13.84221,-12.10965 3.62362,-0.72473 7.18927,-4.68217 12.07669,-13.4037 1.925,-3.43514 6.7625,-9.96819 10.75,-14.5179 l 7.25,-8.27221 0,-8.52675 c 0,-4.70762 -0.45607,-8.80861 -1.01824,-9.15605 -0.56003,-0.34612 -2.52564,0.30232 -4.36803,1.44098 -4.48009,2.76885 -5.91485,2.62281 -10.06933,-1.02487 -3.23425,-2.83971 -3.9238,-3.04033 -8.35499,-2.43089 -3.70617,0.50973 -5.12351,0.31038 -6.09223,-0.85685 -1.87237,-2.25607 -0.51106,-5.17466 4.99563,-10.7104 2.69896,-2.7132 4.90719,-5.72697 4.90719,-6.69727 0,-2.44913 7.77974,-10.92969 11.92511,-12.99936 1.88381,-0.94054 3.74537,-2.38507 4.13678,-3.21007 0.39142,-0.825 1.77512,-3.95333 3.07489,-6.95186 1.29977,-2.99852 4.8996,-8.56275 7.99963,-12.36497 l 5.63641,-6.91311 -0.52889,-10.362764 c -0.45779,-8.96988 -0.22907,-11.25034 1.70164,-16.96617 2.35571,-6.97405 2.13661,-11.44113 -0.56117,-11.44113 -0.86763,0 -3.61213,1.79095 -6.0989,3.9799 -4.68434,4.12332 -12.90091,9.0634 -24.53145,14.74916 -4.89856,2.39473 -7.4095,4.34899 -9.169,7.13621 -2.22003,3.51675 -9.43749,10.13473 -11.05277,10.13473 -0.91461,0 -13.87625,10.979594 -14.62292,12.386834 -0.32485,0.61224 -0.0595,6.28817 0.5897,12.61317 0.72459,7.05973 0.84066,12.74511 0.3006,14.72474 -1.08314,3.9704 -6.08481,10.60997 -10.93051,14.50992 -4.54969,3.66173 -9.01885,4.71127 -20.19012,4.74148 l -8.82097,0.0239 -6.24909,6.5 c -5.03208,5.23413 -6.84755,6.5 -9.32204,6.5 -4.88812,0 -5.50786,-3.83641 -2.29837,-14.22754 1.46804,-4.75297 3.10401,-7.55143 6.25,-10.69113 6.69448,-6.68109 10.25021,-8.08133 20.5216,-8.08133 5.5421,0 9.28751,-0.44767 10.03984,-1.2 0.66,-0.66 1.2,-3.83235 1.2,-7.04966 0,-5.88804 1.53822,-10.29228 4.43406,-12.69562 1.02409,-0.84991 1.56594,-2.96399 1.56594,-6.10959 0,-4.62621 0.30564,-5.13989 8,-13.445134 4.4,-4.74933 8.05496,-9.16724 8.12214,-9.81758 0.0672,-0.65033 0.0222,-5.35698 -0.0999,-10.45922 l -0.22205,-9.2768 4.2716,-5.7232 c 7.05832,-9.45691 10.0468,-12.56441 15.36129,-15.97309 3.37876,-2.16711 5.92911,-4.83251 7.65471,-8 1.42327,-2.612561 4.57327,-6.214204 7,-8.003652 8.55755,-6.310279 11.04631,-10.213553 7.40354,-11.611417 -2.2561,-0.865746 -5.62906,0.775795 -8.99132,4.375868 -3.55201,3.803248 -15.81619,13.067001 -20.51851,15.498661 -1.82254,0.94247 -5.15146,2.24422 -7.3976,2.89277 -3.50079,1.01081 -4.65502,2.1202 -8.08389,7.76981 -2.2,3.62484 -5.64643,8.39984 -7.65873,10.61109 -2.67704,2.94172 -3.97769,5.55689 -4.84749,9.74672 -1.3611,6.5564 -6.79095,13.39972 -12.2689,15.46268 -1.77369,0.66796 -4.48266,1.68086 -6.01995,2.2509 -1.64596,0.61034 -3.33464,2.32781 -4.1075,4.17753 -2.20088,5.26743 -13.46242,19.457764 -16.81956,21.193804 -2.94466,1.52274 -3.38111,1.51507 -6.40332,-0.1125 -3.14046,-1.69125 -3.35213,-1.67934 -6.67695,0.37551 -4.30481,2.66052 -7.31646,2.7028 -8.6976,0.12212 -1.56754,-2.92897 -0.0332,-5.20351 10.45583,-15.500004 5.04256,-4.95 10.40907,-11.25 11.92558,-14 2.66506,-4.83276 2.71462,-5.19232 1.48166,-10.75 -0.72674,-3.27586 -1.81678,-5.75 -2.5333,-5.75 -0.69172,0 -2.28639,1.51097 -3.54372,3.35771 -2.69047,3.95173 -7.00732,7.70528 -11.52624,10.0222 -3.04332,1.56037 -7.25981,7.86343 -7.25981,10.85241 0,2.07495 -5.88807,8.67193 -10.13023,11.349894 -2.12837,1.34358 -3.86977,3.06357 -3.86977,3.82218 0,1.98757 -8.68662,11.36149 -11.29489,12.18856 -1.21281,0.38458 -3.892608,1.76414 -5.955108,3.06569 -2.93049,1.84929 -3.75,3.00167 -3.75,5.27314 0,4.06289 -2.87452,15.06936 -4.71881,18.06822 -0.84562,1.375 -4.40482,5.26669 -7.90934,8.64819 -3.76357,3.63146 -6.37185,6.98858 -6.37185,8.20121 0,3.05065 -2.84089,13.39149 -3.99644,14.54704 -1.39955,1.39955 -1.25147,4.78676 0.31173,7.13105 1.70065,2.55043 3.68471,9.46809 3.68471,12.84719 0,1.45345 1.35,4.50626 3,6.78402 1.65,2.27776 3,4.90989 3,5.84919 0,0.93929 1.55786,4.69659 3.46191,8.34955 3.40658,6.53557 3.47452,6.90954 4.25,23.39216 l 0.78808,16.75036 9.6168,-0.35921 c 9.138308,-0.34135 9.698058,-0.2432 11.249998,1.9725 0.89826,1.28245 1.6332,3.99945 1.6332,6.03779 0,4.84918 2.17966,7.11131 5.59929,5.81117 2.93979,-1.11771 5.80655,0.059 7.40075,3.03783 1.27282,2.37828 -0.6413,7.53522 -3.86202,10.40491 -2.33947,2.08448 -2.83285,6.50018 -0.93802,8.39501 2.02935,2.02935 5.59822,1.35574 13.10172,-2.47292 z"
     id="path2987"
     inkscape:connector-curvature="0" />
</svg>
