<?xml version="1.0" encoding="UTF-8" standalone="no"?>
<!-- Created with Inkscape (http://www.inkscape.org/) -->

<svg
   xmlns:dc="http://purl.org/dc/elements/1.1/"
   xmlns:cc="http://creativecommons.org/ns#"
   xmlns:rdf="http://www.w3.org/1999/02/22-rdf-syntax-ns#"
   xmlns:svg="http://www.w3.org/2000/svg"
   xmlns="http://www.w3.org/2000/svg"
   xmlns:sodipodi="http://sodipodi.sourceforge.net/DTD/sodipodi-0.dtd"
   xmlns:inkscape="http://www.inkscape.org/namespaces/inkscape"
   id="svg2"
   version="1.1"
   inkscape:version="0.48.2 r9819"
   width="1863.2803"
   height="1909.9869"
   sodipodi:docname="Gemsbok_(PSF)c.png">
  <metadata
     id="metadata8">
    <rdf:RDF>
      <cc:Work
         rdf:about="">
        <dc:format>image/svg+xml</dc:format>
        <dc:type
           rdf:resource="http://purl.org/dc/dcmitype/StillImage" />
        <dc:title></dc:title>
      </cc:Work>
    </rdf:RDF>
  </metadata>
  <defs
     id="defs6" />
  <sodipodi:namedview
     pagecolor="#ffffff"
     bordercolor="#666666"
     borderopacity="1"
     objecttolerance="10"
     gridtolerance="10"
     guidetolerance="10"
     inkscape:pageopacity="0"
     inkscape:pageshadow="2"
     inkscape:window-width="1600"
     inkscape:window-height="876"
     id="namedview4"
     showgrid="false"
     fit-margin-top="0"
     fit-margin-left="0"
     fit-margin-right="0"
     fit-margin-bottom="0"
     inkscape:zoom="0.34514416"
     inkscape:cx="906.41093"
     inkscape:cy="963.96675"
     inkscape:window-x="0"
     inkscape:window-y="24"
     inkscape:window-maximized="1"
     inkscape:current-layer="svg2" />
  <path
     style="fill:#000000"
     d="m 995.00033,1909.3614 c -2.475,-0.5793 -4.9626,-1.4308 -5.528,-1.8921 -0.5654,-0.4613 -4.5711,-1.1598 -8.9017,-1.5523 -8.1615,-0.7395 -8.1439,-0.73 -13.2259,-7.196 -1.4205,-1.8073 -3.879,-3.9563 -5.4635,-4.7757 -1.5845,-0.8194 -2.8809,-2.2665 -2.8809,-3.2158 0,-1.0423 -1.8817,-2.7145 -4.75,-4.2212 -2.6125,-1.3724 -7.2213,-4.9689 -10.2418,-7.9923 l -5.4917,-5.497 0.2829,-6.9532 c 0.1556,-3.8243 0.7168,-7.476 1.2471,-8.115 1.3788,-1.6613 -0.3791,-13.205 -2.3039,-15.1299 -0.8652,-0.8651 -5.0987,-2.245 -9.4078,-3.0664 -8.66553,-1.6517 -10.53563,-1.7421 -14.61983,-0.7069 -2.0082,0.5089 -3.3332,0.2098 -4.75,-1.0724 -2.3196,-2.0991 -2.4584,-3.9991 -0.5583,-7.6409 2.4835,-4.7602 9.418,-41.3901 9.5388,-50.387 0.03,-2.2328 0.8991,-7.6328 1.9313,-12 1.0323,-4.3672 2.39,-10.8654 3.01733,-14.4404 1.3559,-7.7276 3.7439,-18.5709 5.6158,-25.5 3.1178,-11.5411 4.3496,-25.075 4.2778,-47 -0.04,-12.1 0.4457,-28.975 1.0786,-37.5 3.6278,-48.8639 4.1484,-73.8259 1.6399,-78.6357 -0.8217,-1.5754 -1.4967,-3.5968 -1.5,-4.4922 0,-0.8953 -0.6199,-3.1453 -1.37,-5 -0.7502,-1.8546 -1.9001,-8.0971 -2.5554,-13.8721 -1.5886,-13.998 0.426,-31.0831 5.4975,-46.624 3.6009,-11.0344 4.6415,-19.1294 2.7697,-21.5449 -4.591,-5.9248 -5.3499,-13.1548 -7.1197,-67.8311 -0.4006,-12.375 -1.0314,-22.9638 -1.4018,-23.5307 -0.3704,-0.5669 -1.1606,-6.2648 -1.7559,-12.6621 -0.5953,-6.3973 -2.2498,-15.8335 -3.6767,-20.9693 -1.4268,-5.1359 -3.72903,-13.7153 -5.11583,-19.0654 -2.4558,-9.4739 -2.6031,-9.7389 -5.6498,-10.1632 -1.7206,-0.2396 -6.6123,-0.9535 -10.8704,-1.5864 -4.2582,-0.6329 -8.2232,-0.8534 -8.8112,-0.49 -0.588,0.3634 -3.179,-0.2256 -5.7579,-1.309 -6.5816,-2.7648 -23.4555,-3.8124 -25.3152,-1.5716 -1.0881,1.3111 -2.3624,1.4423 -7.3451,0.756 -6.7529,-0.9301 -21.683,-1.0054 -28.5285,-0.1438 -13.5719,1.7081 -39.9421,3.6557 -57.4857,4.2455 -10.9922,0.3696 -20.8216,1.1193 -21.8432,1.666 -1.0216,0.5467 -3.053,0.6809 -4.5142,0.2981 -1.4613,-0.3828 -15.9319,-0.8316 -32.1569,-0.9974 -30.4949,-0.3115 -36.247,-0.8396 -64.1266,-5.887 -7.4946,-1.3568 -14.5742,-2.2192 -15.7324,-1.9163 -1.1582,0.3029 -5.3762,-0.2026 -9.3734,-1.1232 -3.9972,-0.9206 -8.321,-1.8898 -9.6085,-2.1539 -1.458,-0.299 -2.1442,-0.9928 -1.8192,-1.8396 0.6238,-1.6257 -2.1888,-2.5239 -7.9633,-2.543 -2.2678,-0.01 -7.6678,-0.9068 -12,-1.9983 -4.3321,-1.0916 -9.5506,-1.9916 -11.5967,-2 -2.1805,-0.01 -6.319,-1.3373 -10,-3.2095 -3.4539,-1.7568 -8.3049,-3.5774 -10.7799,-4.0459 -2.475,-0.4685 -6.525,-1.2202 -9,-1.6705 -2.475,-0.4503 -7.875,-2.0424 -12,-3.5381 -4.125,-1.4958 -9.3,-3.0979 -11.5,-3.5604 -7.5587,-1.5891 -14.0024,-4.1747 -15.6558,-6.2822 -1.1845,-1.5098 -2.6984,-2.081 -5.3186,-2.0067 -2.2982,0.065 -3.8634,-0.4188 -4.2012,-1.2991 -0.3487,-0.9087 -2.0825,-1.403 -4.9209,-1.403 -5.6503,0 -17.5076,-4.6821 -18.1583,-7.1703 -0.7006,-2.6792 -5.6196,-4.6629 -15.5479,-6.2701 -7.0457,-1.1405 -9.49,-2.0194 -12.7103,-4.5699 -2.1928,-1.7368 -3.987,-3.7646 -3.987,-4.5063 0,-1.3911 -1.0131,-1.8313 -7,-3.0416 -4.029,-0.8145 -18.7718,-7.0755 -21,-8.9183 -3.4404,-2.8453 -15.3019,-8.6216 -16.6455,-8.106 -1.7815,0.6836 -5.3281,8.5611 -8.3663,18.5825 -1.2506,4.125 -3.7845,12.1001 -5.631,17.7224 -1.8465,5.6224 -3.3572,10.7588 -3.3572,11.4142 0,2.5403 -9.697,25.2384 -18.5708,43.4693 -10.0431,20.633 -15.7657,34.4277 -17.4516,42.0682 -0.5856,2.6542 -1.4913,6.1759 -2.0126,7.8259 -2.5344,8.0221 -6.9891,25.1185 -8.0049,30.7211 -0.6261,3.4534 -2.0208,9.2039 -3.0993,12.7789 -1.0785,3.575 -3.0337,10.1 -4.345,14.5 -1.3112,4.4 -3.5387,11.8504 -4.9499,16.5565 -1.4113,4.7061 -2.5766,10.1061 -2.5898,12 -0.013,1.8939 -0.5011,5.2435 -1.0843,7.4435 -0.5833,2.2 -1.4174,6.5355 -1.8535,9.6343 -0.4362,3.0989 -2.3724,10.5239 -4.3027,16.5 -2.7967,8.6588 -3.7613,13.8108 -4.7488,25.3657 -0.6816,7.975 -1.2108,15.175 -1.1761,16 0.4507,10.7168 2.2999,38.7454 3.0679,46.5 0.5446,5.5 1.2336,13.7374 1.531,18.3053 0.2974,4.568 0.7632,8.6653 1.0351,9.1052 0.8875,1.4361 6.3791,23.7234 7.0763,28.7188 0.3739,2.6789 1.5302,7.5707 2.5695,10.8707 2.0534,6.5198 4.2019,14.5972 6.3837,24 0.7657,3.3 3.4837,12.075 6.0401,19.5 2.5563,7.425 5.7577,17.55 7.1141,22.5 3.7218,13.5813 3.9819,14.4045 7.1797,22.7219 3.1672,8.2376 11.754,23.7612 13.8625,25.0612 0.6986,0.4307 1.7706,2.6807 2.3822,5 1.7027,6.4569 6.0763,15.7169 7.4232,15.7169 1.2892,0 3.524,4.152 3.524,6.5471 0,0.7991 -0.45,1.4529 -1,1.4529 -2.8229,0 1.2276,9.5779 4.4017,10.4083 3.1872,0.834 12.7313,10.0815 12.1007,11.7248 -0.8248,2.1495 9.3452,16.1408 19.758,27.1815 1.8947,2.009 4.6359,5.3712 6.0914,7.4716 2.3553,3.3987 2.509,4.1147 1.3973,6.5085 -1.1135,2.3977 -1.8461,2.7115 -6.7491,2.8903 -3.025,0.1103 -7.6375,0.082 -10.25,-0.064 -5.3546,-0.298 -5.388,-0.2191 -3.8536,9.098 0.7219,4.3836 0.5706,4.917 -2.1275,7.5 l -2.9048,2.7807 -15.0339,-0.3193 c -20.2961,-0.431 -28.6575,-1.9438 -33.3073,-6.0264 -1.9759,-1.7349 -4.2415,-3.1543 -5.0346,-3.1543 -0.7932,0 -2.1934,-1.1465 -3.1115,-2.5477 -0.9181,-1.4012 -3.1875,-3.182 -5.043,-3.9573 -4.4429,-1.8564 -13.163,-9.2641 -14.9318,-12.6845 -0.7711,-1.4912 -1.402,-4.3507 -1.402,-6.3545 0,-2.8356 -0.4559,-3.7625 -2.0566,-4.181 -1.4397,-0.3765 -1.8479,-1.0233 -1.3609,-2.1564 0.3825,-0.8902 0.9198,-4.3186 1.1938,-7.6186 0.3811,-4.5882 0.9887,-6.3439 2.5823,-7.4617 2.0813,-1.4599 2.0809,-1.4624 -0.3509,-2.0365 -1.5093,-0.3563 -2.6553,-1.5091 -3.0151,-3.033 -0.321,-1.3599 -1.4543,-2.6266 -2.5365,-2.835 -1.0758,-0.2072 -3.1758,-1.4031 -4.6666,-2.6575 -2.2593,-1.9011 -8.0812,-4.506 -13.4926,-6.0371 -2.5442,-0.7199 -6.6548,-8.6358 -7.4308,-14.3096 -0.4322,-3.1604 -1.4761,-7.0699 -2.3198,-8.6879 -1.7717,-3.3973 -1.9769,-5.4414 -0.5463,-5.4414 1.5566,0 1.1813,-3.1837 -0.8269,-7.0148 -1.0048,-1.9169 -2.3955,-7.9852 -3.0906,-13.4852 -0.695,-5.5 -1.9045,-12.475 -2.6877,-15.5 -1.981,-7.6516 -4.395,-26.7727 -4.3936,-34.8012 7e-4,-3.9022 -1.1174,-11.2286 -2.678,-17.549 -1.8347,-7.4299 -2.3824,-11.3702 -1.7377,-12.5 1.4855,-2.6033 0.5361,-6.6186 -1.8165,-7.6822 -2.2363,-1.0111 -2.212,-0.9383 -7.3469,-21.9676 -4.27,-17.4872 -8.4629,-28.9499 -16.4602,-45 -1.6443,-3.3 -3.4004,-7.35 -3.9025,-9 -0.5021,-1.65 -2.7841,-7.725 -5.071,-13.5 -2.2869,-5.775 -4.5369,-11.85 -5.0001,-13.5 -1.7689,-6.3018 -7.7761,-22.2723 -10.7201,-28.5 -1.69,-3.575 -3.7591,-8.525 -4.5981,-11 -0.8389,-2.475 -3.3538,-8.167 -5.5887,-12.6489 -9.8982,-19.8502 -11.2642,-38.6808 -3.988,-54.9748 1.0129,-2.2681 2.2837,-6.0969 2.8242,-8.5085 0.5404,-2.4116 1.641,-5.9604 2.4456,-7.8862 1.8569,-4.4441 2.4881,-14.4816 0.9108,-14.4816 -0.6243,0 -5.7788,4.3472 -11.4545,9.6604 -5.6757,5.3132 -13.0726,11.6811 -16.4375,14.1508 -8.1283,5.9658 -16.8039,16.2562 -28.6088,33.9339 -1.4997,2.2458 -3.4325,6.5969 -4.295,9.6691 -2.0371,7.2557 -4.8757,14.574 -9.7302,25.0858 -2.159,4.675 -4.753,11.65 -5.7644,15.5 -1.0115,3.85 -5.1597,13.525 -9.2184,21.5 -6.9401,13.637 -7.5143,15.2737 -9.6477,27.5 -1.2476,7.15 -2.9637,16.15 -3.8136,20 -0.8499,3.85 -1.9684,10.6 -2.4856,15 -1.2608,10.7257 -2.2331,17.9641 -4.097,30.5 -3.789298,25.4855 -4.525798,49.6833 -1.9328,63.5 0.6193,3.3 1.5549,10.3161 2.0791,15.5913 1.0114,10.1785 5.6503,23.3074 14.101,39.9087 2.0997,4.125 5.5401,11.325 7.6451,16 2.1051,4.675 4.3407,9.175 4.9682,10 0.6275,0.825 2.8715,4.875 4.9868,9 3.9933,7.7872 10.6311,15.6126 12.3449,14.5534 0.5423,-0.3352 1.5295,0.4157 2.1937,1.6686 0.6642,1.2529 4.9732,6.0686 9.5756,10.7016 4.6024,4.633 8.2088,8.908 8.0142,9.5 -0.1946,0.592 -1.404,1.2298 -2.6877,1.4172 -1.2836,0.1875 -2.9748,0.9818 -3.7582,1.7651 -0.7834,0.7834 -2.9462,2.5851 -4.8062,4.0039 -1.8601,1.4187 -3.2836,3.0431 -3.1635,3.6097 0.1202,0.5666 -2.0153,2.6615 -4.7454,4.6553 l -4.9639,3.6252 -17.0635,0.3118 -17.0636,0.3119 -9.472498,-5.0178 c -5.2099,-2.7598 -9.3706,-5.4562 -9.2459,-5.992 0.1247,-0.5358 -1.4503,-1.5047 -3.5,-2.1532 -2.0497,-0.6484 -5.3017,-2.4068 -7.2267,-3.9075 -1.925,-1.5007 -4.441,-3.2292 -5.5911,-3.841 -3.5962,-1.9132 -7.2993,-11.8245 -7.7612,-20.7732 -0.2255,-4.3664 -0.7322,-8.7151 -1.126,-9.6636 -0.4418,-1.0638 0.087,-3.0249 1.381,-5.118 4.1515,-6.7172 1.4012,-17.5211 -5.0695,-19.9148 -2.683,-0.9925 -11.5249,0.1211 -15.0335,1.8934 -4.0691,2.0554 -8.3324,1.67 -11.4804,-1.0377 -2.6258,-2.2587 -2.7185,-2.6054 -1.5557,-5.821 0.68,-1.8806 1.2364,-5.3755 1.2364,-7.7664 0,-2.3909 0.4235,-7.0839 0.9411,-10.429 0.5175,-3.345 1.4336,-11.0319 2.0357,-17.0819 0.602,-6.05 1.735,-16.85 2.5178,-24 0.7828,-7.15 1.9148,-17.95 2.5157,-24 1.0665,-10.7389 1.6839,-145.1391 0.6714,-146.1516 -0.2618,-0.2619 -1.666,2.0392 -3.1203,5.1135 -3.2212,6.8089 -10.6304,14.864 -13.2145,14.3664 -2.3779,-0.4579 -2.928,-3.5264 -1.0135,-5.6527 2.4218,-2.6898 6.6666,-11.763 6.6666,-14.2498 0,-1.2561 -0.423,-3.6658 -0.9399,-5.3548 -0.5169,-1.6891 -1.4929,-5.771 -2.1688,-9.071 -0.6758,-3.3 -2.0529,-8.1542 -3.0601,-10.787 -1.0072,-2.6329 -1.8218,-6.4579 -1.8102,-8.5 0.026,-4.566 3.9,-18.0233 7.2856,-25.307 2.7127,-5.8358 4.7776,-18.6941 2.8065,-17.4759 -0.6122,0.3783 -1.1131,1.1428 -1.1131,1.6987 0,2.8653 -13.619602,18.8712 -16.057702,18.8712 -2.0164,0 -1.9957,-2.7952 0.046,-6.2561 1.1504,-1.9498 3.242,-7.0773 4.647902,-11.3945 1.4059,-4.3172 2.8976,-8.2994 3.3148,-8.8494 2.9915,-3.9439 3.3333,-12.5 0.4993,-12.5 -2.2676,0 -2.5776,-1.7602 -0.9824,-5.5781 1.6498,-3.9486 2.0345,-8.4219 0.7243,-8.4219 -0.4441,0 -2.2451,2.0395 -4.002102,4.5322 -3.0276,4.2952 -5.6671,6.3244 -6.7796,5.2119 -0.2766,-0.2766 0.8678,-3.2004 2.5431,-6.4972 1.6754,-3.2969 3.0461,-6.5011 3.0461,-7.1206 0,-2.4485 -1.9743,-0.872 -5.4323,4.3377 -1.9948,3.0052 -4.4215,6.0427 -5.3928,6.75 -0.9713,0.7073 -2.4382,3.0832 -3.2597,5.2799 -0.8215,2.1966 -2.2635,4.1421 -3.2044,4.3233 -2.9976,0.5773 -1.9939,-4.4473 2.7282,-13.6584 9.7014,-18.9238 11.7699,-30.0667 2.9531,-15.9088 -2.1406,3.4375 -4.3534,7.146 -4.9172,8.2411 -1.2983,2.5218 -4.4749,3.2547 -4.4749,1.0326 0,-0.8927 0.7133,-3.0024 1.5851,-4.6883 1.1396,-2.2037 1.2801,-3.3702 0.5,-4.1503 -1.6806,-1.6806 -1.345,-2.3342 2.304,-4.4871 2.7649,-1.6314 3.981,-3.5346 6.6031,-10.3341 3.5517,-9.2098 3.6451,-12.8511 0.6763,-26.3639 -2.6888,-12.2385 -3.9149,-29.4851 -2.7152,-38.1948 2.0979,-15.2316 5.405,-21.9988 16.900902,-34.584 6.0423,-6.6148 8.0169,-9.5042 8.4884,-12.4206 1.0921,-6.7555 8.4193,-20.3745 19.5001,-36.2443 2.3885,-3.4207 5.5385,-8.7703 7,-11.8879 2.4909,-5.3135 2.6438,-6.4683 2.4423,-18.4444 -0.1182,-7.0268 0.2513,-14.9018 0.8212,-17.5 1.6012,-7.3008 3.24,-30.2216 3.2693,-45.724 0.035,-18.6509 -1.11,-28.0887 -3.9436,-32.5 -1.2365,-1.925 -3.0771,-6.0613 -4.0901,-9.1917 -1.4677,-4.5358 -2.2422,-5.6528 -3.8134,-5.5 -1.3871,0.1349 -2.2764,-0.7095 -3,-2.8485 -0.5656,-1.672 -2.5338,-5.3784 -4.3738,-8.2362 -4.532,-7.039 -8.4076,-18.2498 -9.2385,-26.7236 -1.191,-12.1465 -2.7081,-19.4348 -4.3969,-21.1237 -0.9836,-0.9835 -1.3516,-2.2796 -0.9243,-3.2552 1.4501,-3.3115 1.6052,-8.3786 0.3294,-10.7626 -1.1109,-2.0757 -1.0517,-3.45 0.3799,-8.8227 0.9327,-3.5002 1.6958,-7.3725 1.6958,-8.6049 0,-2.1532 -0.076,-2.1723 -1.937,-0.4879 -2.2042,1.9948 -4.063,1.3346 -4.063,-1.443 0,-1.0351 -0.4996,-2.1907 -1.1102,-2.5681 -1.8709,-1.1563 -0.1899,-7.4063 3.6771,-13.6713 1.9998,-3.24 3.364,-6.163 3.0315,-6.4956 -0.3326,-0.3325 -2.6253,1.5962 -5.0949,4.2861 -4.1483,4.5184 -4.6141,4.7668 -6.1183,3.2627 -1.5041,-1.5042 -1.0478,-2.1863 5.9933,-8.9586 5.0894,-4.89496 7.6215,-8.08196 7.6215,-9.59276 0,-2.8676 -0.5277,-2.8376 -4.1824,0.2376 -3.2781,2.7584 -4.3645,3.0421 -5.3767,1.4043 -0.3725,-0.6026 0.726,-2.3772 2.441,-3.9436 1.7149,-1.5663 3.1732,-3.2108 3.2405,-3.6543 0.067,-0.4435 0.2354,-2.9517 0.3735,-5.5738 0.2134,-4.0508 0.035,-4.58792 -1.1883,-3.5729 -0.7917,0.6571 -2.0964,2.4649 -2.8992,4.0175 -1.4572,2.8179 -3.7554,3.6884 -4.8903,1.8522 -0.3299,-0.5339 0.072,-2.2214 0.892,-3.75 1.771,-3.29932 12.0503,-14.02352 15.8884,-16.57612 3.157,-2.0996 3.6671,-5.7033 0.8073,-5.7033 -1.0419,0 -3.3395,1.35 -5.1058,3 -3.5639,3.3292 -4.542,3.6359 -5.2995,1.662 -0.8746,-2.2792 2.2213,-7.2493 7.8795,-12.6495 2.981,-2.8451 5.4057,-5.4743 5.3882,-5.8427 -0.073,-1.5355 -2.8074,-4.1698 -4.3284,-4.1698 -0.9019,0 -1.6398,-0.2546 -1.6398,-0.5657 0,-1.5568 2.7822,-5.4773 7.3876,-10.4101 4.0604,-4.34908 4.7523,-5.54737 3.3624,-5.82335 -2.9102,-0.57785 -1.9829,-3.4442 2.4148,-7.4641 3.0598,-2.79694 3.8694,-4.10251 3.0513,-4.92064 -1.5348,-1.53477 0.5395,-5.27077 5.7015,-10.26904 2.8574,-2.76675 4.0824,-4.79054 4.0824,-6.74419 0,-1.95627 1.3176,-4.12773 4.4044,-7.25894 2.4225,-2.45723 6.0912,-7.29735 8.1527,-10.75581 3.8231,-6.41354 8.1972,-11.78811 9.5939,-11.78811 1.6205,0 8.675,-8.4895 7.6044,-9.1512 -1.2815,-0.79201 2.4977,-5.55572 8.833198,-11.13442 2.3646,-2.08209 4.5637,-4.61895 4.887,-5.63746 0.5442,-1.71457 16.7105,-17.15201 31.4969,-30.07692 3.4607,-3.025 8.936,-6.99047 12.1674,-8.81216 4.936,-2.78268 5.9706,-3.06335 6.4724,-1.75574 0.8772,2.2859 2.1915,0.99314 1.6858,-1.65823 -0.3003,-1.57489 0.4326,-3.06444 2.3841,-4.84569 4.6898,-4.28045 24.3617,-16.48016 31.8178,-19.73208 3.85,-1.67915 9.0712,-4.21164 11.6028,-5.62776 2.5315,-1.41611 7.0416,-3.41385 10.0224,-4.43941 2.9809,-1.02555 7.6596,-2.9875 10.3973,-4.35987 2.7376,-1.37236 7.4525,-3.07749 10.4775,-3.78917 3.025,-0.71168 8.239,-2.52152 11.5868,-4.02187 11.4558,-5.13414 24.3646,-8.95233 42.1075,-12.4546 9.7618,-1.92688 19.1525,-3.50342 20.8682,-3.50342 1.7158,0 5.3287,-0.70994 8.0286,-1.57764 2.6999,-0.8677 8.2839,-1.94636 12.4089,-2.39701 11.216,-1.22534 32.2607,-3.94329 43,-5.55348 18.2583,-2.73756 55.2208,-1.83659 99.759,2.43165 11.4076,1.09322 26.591,2.47769 33.741,3.07659 7.15,0.59891 18.175,1.9708 24.5,3.04865 6.325,1.07785 13.3002,1.96231 15.5004,1.96548 2.2002,0.003 7.1502,0.68244 11,1.5095 3.8498,0.82706 10.3746,2.21729 14.4996,3.08941 4.125,0.87211 8.0325,2.02564 8.6834,2.56339 0.6508,0.53776 2.8877,1.18913 4.9707,1.4475 2.0831,0.25836 5.1072,1.12815 6.7203,1.93286 3.3106,1.65153 9.1713,2.09379 6.6546,0.50216 -3.1642,-2.0011 0.2892,-2.16013 10.6517,-0.49049 6.3712,1.02656 11.9332,2.50551 13.5288,3.59734 3.0266,2.07108 7.3073,2.44498 8.3667,0.73081 0.4676,-0.75666 2.3636,-0.88204 5.809,-0.38416 2.8131,0.40651 7.8148,1.08121 11.1148,1.49932 3.3,0.41811 11.4,1.45927 18,2.31368 22.3742,2.89649 62.283,5.51495 77.5,5.08486 37.3277,-1.05502 52.6349,-2.11415 78,-5.39697 7.975,-1.03214 16.975,-2.18382 20,-2.55929 3.025,-0.37547 6.6205,-1.10667 7.9899,-1.62488 1.3695,-0.51822 6.0945,-1.6023 10.5,-2.40907 12.0742,-2.21109 25.1909,-5.35586 33.0101,-7.91422 8.7176,-2.85233 20.4302,-5.48599 24.3977,-5.48599 1.65163,0 3.37133,-0.65828 3.82163,-1.46284 0.9782,-1.74808 8.462,-4.53716 12.1743,-4.53716 1.4532,0 4.2977,-1.125 6.3212,-2.5 2.0235,-1.375 3.9725,-2.5 4.331,-2.5 0.3586,0 2.0699,-0.61355 3.8031,-1.36345 1.7331,-0.7499 5.4011,-1.83233 8.1511,-2.4054 2.75,-0.57308 8.15,-1.81966 12,-2.77018 3.85,-0.95052 10.0137,-1.875 13.697,-2.05439 3.6834,-0.17939 10.4334,-1.20019 14.99997,-2.26844 4.5667,-1.06826 9.7374,-1.95545 11.4904,-1.97155 1.7531,-0.0161 4.2281,-0.5931 5.5,-1.28222 2.5761,-1.39572 7.3519,-2.34155 19.5352,-3.86886 4.5224,-0.56694 11.7224,-2.10963 16,-3.42821 4.2776,-1.31857 9.1274,-2.63745 10.7774,-2.93083 8.1548,-1.44998 11.7158,-2.63724 19.5227,-6.50914 4.6625,-2.31239 11.1773,-6.26465 14.4773,-8.7828 9.932,-7.57887 18.6345,-13.16812 25.5,-16.3776 3.575,-1.67123 7.175,-3.40384 8,-3.85025 0.825,-0.44641 3.3798,-3.91138 5.6773,-7.69992 2.2975,-3.78855 4.6325,-7.04004 5.189,-7.22552 1.7432,-0.58107 6.1337,2.92906 6.1337,4.90377 0,1.98122 0.8031,2.2815 3.4182,1.278 1.0618,-0.40745 1.5818,-1.86737 1.5818,-4.44098 0,-2.1087 0.4586,-4.1174 1.019,-4.46378 0.5605,-0.34638 2.1269,-2.8161 3.481,-5.48825 2.7425,-5.41209 4.1782,-6.72176 5.7002,-5.19977 0.7013,0.70128 0.199,2.83225 -1.5871,6.73371 -3.1293,6.83532 -3.1906,7.29864 -0.6624,5.01071 2.9637,-2.68211 8.9888,-15.94848 10.3921,-22.88169 0.841,-4.15512 1.7213,-6.16296 2.7023,-6.16296 2.6699,0 2.2674,6.7942 -0.8832,14.90817 -1.6214,4.17551 -2.6012,7.59183 -2.1774,7.59183 1.2371,0 2.8017,-2.30015 3.525,-5.182 0.8405,-3.34881 4.0018,-6.41768 4.9803,-4.83458 1.1447,1.85228 3.3834,-0.77594 4.1174,-4.8339 0.363,-2.00724 1.3033,-4.91945 2.0894,-6.47159 1.019,-2.01189 1.2346,-4.38039 0.7511,-8.25 -0.6239,-4.99381 -0.5175,-5.42793 1.3301,-5.42793 2.4592,0 3.202,1.76831 3.2899,7.83179 0.059,4.0944 0.201,4.39164 1.1528,2.41821 1.3426,-2.78376 3.7899,-2.92626 4.4868,-0.26125 0.7321,2.79946 2.2927,1.46149 2.2927,-1.96561 0,-1.57235 1.125,-5.09864 2.5,-7.83621 1.7773,-3.53844 2.5,-6.5977 2.5,-10.58216 0,-6.95836 1.8659,-7.47938 4.8517,-1.35477 1.1395,2.3375 2.944,5.34927 4.0098,6.69283 l 1.938,2.44283 1.0947,-3.94283 c 0.602,-2.16856 1.0972,-4.75991 1.1002,-5.75857 0,-0.99866 0.5007,-2.74091 1.1059,-3.87168 0.6052,-1.13076 1.3929,-4.10125 1.7505,-6.60108 0.7709,-5.38927 2.8967,-6.72395 3.7683,-2.36591 0.5019,2.50943 1.0445,2.98358 3.2225,2.81617 3.3989,-0.26125 5.1247,-3.69858 5.1437,-10.24509 0.01,-2.79584 0.3108,-5.37943 0.6727,-5.74133 1.1285,-1.12853 3.342,1.45561 3.342,3.90165 0,1.28266 1.0818,3.41388 2.404,4.73606 l 2.4039,2.40395 1.0961,-2.40555 c 0.6028,-1.32306 1.1028,-3.62188 1.1111,-5.1085 0.01,-1.48662 0.6635,-4.50295 1.4561,-6.70295 0.7925,-2.2 1.4608,-6.1705 1.4849,-8.82332 0.037,-4.04417 0.3266,-4.76834 1.7939,-4.4829 1.4193,0.2761 1.7693,1.47104 1.8523,6.32333 0.076,4.45756 0.4839,6.05792 1.5991,6.27717 1.0492,0.20625 2.008,-1.43893 3.2055,-5.5 3.3864,-11.48424 4.9038,-11.6989 5.6144,-0.79428 0.6082,9.33198 1.8191,7.15443 2.2244,-4 0.227,-6.24856 0.469,-7 2.2543,-7 1.7203,0 2.043,0.76909 2.3073,5.5 0.3466,6.20457 1.3729,7.92525 3.6164,6.06332 1.0231,-0.84908 1.5038,-3.07176 1.4938,-6.90762 -0.032,-12.19475 0.097,-13.22408 1.7305,-13.85086 1.0238,-0.39288 2.268,0.25702 3.4249,1.78907 l 1.8171,2.40609 1.6511,-3.94799 c 1.0581,-2.52984 1.4411,-5.26172 1.0664,-7.60527 -0.4592,-2.87152 -0.1555,-4.04582 1.4135,-5.46578 1.6321,-1.47704 2.4091,-1.59942 4.2387,-0.66772 1.2322,0.62744 3.1361,1.03865 4.231,0.91378 1.548,-0.17654 2.1039,0.50706 2.5,3.07455 0.4449,2.88384 0.7126,3.13689 2.1157,2 1.0787,-0.87396 2.1945,-5.17317 3.3962,-13.08619 1.1369,-7.48583 2.1924,-11.65056 2.8936,-11.41713 0.6071,0.20212 1.2567,1.23019 1.4436,2.28462 0.3258,1.83803 3.8463,5.34853 5.4102,5.39489 0.4125,0.0122 0.75,-3.12776 0.75,-6.97776 0,-5.65256 0.298,-7 1.5483,-7 0.8515,0 2.1355,1.39663 2.8532,3.10362 1.0431,2.48064 1.4348,2.76531 1.9517,1.41821 0.3558,-0.92697 0.6468,-2.53309 0.6468,-3.56914 0,-2.27964 5.3261,-7.95269 7.4663,-7.95269 2.0669,0 2.0395,6.15941 -0.055,12.30603 -0.8737,2.56427 -1.4097,5.19911 -1.191,5.85519 0.8676,2.60284 4.7965,-6.25881 6.5111,-14.68589 1.6458,-8.08876 2.0949,-9.06823 4.7922,-10.45031 1.637,-0.83876 3.137,-1.61071 3.3334,-1.71544 0.1964,-0.10473 -2.9147,-3.25473 -6.9135,-7 -3.9988,-3.74527 -11.1345,-10.66569 -15.8571,-15.37872 -5.161,-5.15061 -10.4814,-9.4412 -13.3365,-10.75512 -5.8325,-2.68417 -6.0292,-4.4396 -1.1574,-10.33113 4.5802,-5.53889 12.8502,-11.17737 19.6205,-13.37723 2.9078,-0.94483 6.1869,-2.51349 7.2869,-3.48592 2.3979,-2.11982 15.0882,-3.98146 27.1404,-3.98146 11.8945,0 23.4719,1.85088 38.3596,6.13256 7.4622,2.14612 7.6942,2.14492 8.2663,-0.0428 0.3269,-1.25011 1.3585,-2.08979 2.5675,-2.08979 2.091,0 6.1662,4.3142 6.1662,6.52787 0,0.69198 0.6627,1.51245 1.4726,1.82326 2.0217,0.77576 4.5274,-3.07926 4.5274,-6.96523 0,-2.57751 0.4845,-3.29069 2.5957,-3.82055 2.9826,-0.74859 5.4043,0.81893 5.4043,3.49808 0,1.00019 0.45,2.09665 1,2.43657 0.6109,0.37758 1,-1.15954 1,-3.95077 0,-3.33132 0.5417,-5.03263 2,-6.28126 1.1,-0.94185 2,-2.19744 2,-2.79021 0,-0.59277 0.5381,-1.61587 1.1958,-2.27355 0.9277,-0.92772 2.0576,-0.27162 5.04,2.9267 2.1142,2.26738 4.089,3.87765 4.3882,3.57838 0.2993,-0.29926 0.7958,-2.42014 1.1033,-4.71306 0.5372,-4.0048 3.1903,-6.74328 4.0461,-4.17614 0.5262,1.5787 3.2266,1.51491 3.2266,-0.0762 0,-1.47705 -17.8964,-12.82161 -37,-23.45439 -7.425,-4.13264 -14.85,-8.74377 -16.5,-10.24696 -1.65,-1.50318 -6.6,-4.65751 -11,-7.00961 -4.4,-2.35211 -10.25,-5.94982 -13,-7.99491 -2.75,-2.04509 -6.575,-4.31307 -8.5,-5.03995 -1.925,-0.72688 -5.975,-2.96936 -9,-4.98329 -3.025,-2.01394 -8.2,-4.89132 -11.5,-6.39419 -3.3,-1.50287 -9.15,-4.65913 -13,-7.01391 -3.85,-2.35478 -9.7,-5.7888 -13,-7.63115 -5.8019,-3.23913 -8.6717,-4.77043 -28,-14.94057 -4.95,-2.60459 -18.45,-10.02799 -30,-16.49646 -11.55,-6.46846 -26.625,-14.70966 -33.5,-18.31376 -6.875,-3.6041 -13.6945,-7.37907 -15.1544,-8.38882 -1.4599,-1.00975 -2.9883,-1.83591 -3.3965,-1.83591 -0.4081,0 -3.1467,-1.59611 -6.0857,-3.5469 -2.939,-1.9508 -7.0356,-4.23507 -9.1035,-5.07617 -2.068,-0.8411 -12.7599,-5.95559 -23.7599,-11.36554 -11,-5.40994 -21.4282,-10.12888 -23.1737,-10.48653 -1.7456,-0.35765 -5.5706,-2.30955 -8.5,-4.33756 -2.9295,-2.02802 -8.0263,-4.77735 -11.3263,-6.10963 -3.3,-1.33228 -8.7852,-4.10024 -12.1893,-6.15102 -3.4041,-2.05078 -9.4968,-5.31953 -13.5392,-7.26389 -4.0425,-1.94436 -9.5824,-5.28195 -12.3108,-7.41685 -7.3465,-5.7485 -12.9775,-8.89633 -32.9607,-18.42586 -2.2,-1.04913 -6.025,-2.98627 -8.5,-4.30475 -2.475,-1.31849 -5.9004,-2.42381 -7.612,-2.45627 -1.893,-0.0359 -15.451,-6.087 -34.6133,-15.44835 -17.32577,-8.46412 -33.92537,-16.10312 -36.88807,-16.97555 -2.9626,-0.87242 -8.3116,-3.39698 -11.8866,-5.61012 -3.575,-2.21314 -7.0904,-4.02414 -7.8119,-4.02445 -2.2179,-9.5e-4 -11.7504,-4.87129 -15.7401,-8.04186 -2.0789,-1.65214 -4.9427,-3.25584 -6.3639,-3.56378 -5.17223,-1.12065 -13.66683,-4.80676 -17.08413,-7.4134 -1.925,-1.46835 -7.4418,-4.08292 -12.2595,-5.81015 -4.8177,-1.72723 -10.4427,-3.99669 -12.5,-5.04323 -2.0573,-1.04655 -6.8905,-2.86997 -10.7405,-4.05204 -3.85,-1.18207 -11.3412,-3.9255 -16.6472,-6.096492 -5.306,-2.171 -13.406,-5.10196 -18,-6.51325 -9.3652,-2.877 -9.1389,-2.78733 -20.8528,-8.26379 -12.4128,-5.803241 -17.775,-7.830641 -24.5,-9.263331 -3.3,-0.70302 -8.0499,-2.29012 -10.5552,-3.52688 -2.5054,-1.23676 -6.2301,-2.56286 -8.2771,-2.94688 -4.2154,-0.79081 -5.3964,-2.40106 -5.8506,-7.97693 -0.2844,-3.49278 -0.025,-3.99877 2.5142,-4.91281 2.2201,-0.79902 3.4788,-0.64735 5.831,0.70264 1.65,0.94691 4.1131,1.72164 5.4737,1.72164 1.3606,0 4.4644,0.90683 6.8974,2.01516 2.4329,1.10834 7.2457,2.73611 10.6951,3.61725 3.4494,0.88115 8.7466,2.84719 11.7716,4.36899 3.025,1.52181 9.55,3.77206 14.5,5.00058 28.7563,7.136881 68.1897,21.548531 123.00003,44.952593 9.35,3.99246 20.15,8.51615 24,10.05264 3.85,1.53649 16.6125,7.33843 28.3611,12.89321 11.74867,5.55477 21.62587,10.09958 21.94937,10.09958 0.3235,0 5.5609,2.46317 11.6388,5.47371 6.0779,3.01054 15.5507,7.32272 21.0507,9.58261 5.5,2.25989 14.275,6.2622 19.5,8.89402 5.225,2.63182 13.1,6.28294 17.5,8.11358 8.7196,3.62783 41.4711,20.1326 45.5,22.92922 1.375,0.95444 15.55,8.11992 31.5,15.92329 15.95,7.80336 29.805,14.62917 30.7888,15.16845 6.7678,3.70973 18.5425,9.2632 25.9461,12.23732 4.8042,1.92991 9.9042,4.42867 11.3333,5.5528 1.4291,1.12412 6.1477,3.41262 10.4857,5.08555 6.4487,2.48686 22.0734,10.14167 42.4461,20.79507 5.8432,3.05553 7.0833,3.67948 15,7.54674 22.6772,11.0777 49.4382,24.82792 66.5,34.1687 19.2469,10.53703 24.0078,12.85529 24.7842,12.06826 0.8532,-0.86493 -5.1466,-6.14724 -12.7842,-11.25546 -3.025,-2.02318 -7.975,-5.5966 -11,-7.94092 -13.879,-10.75601 -41.3478,-30.32582 -42.6385,-30.37729 -0.4738,-0.0189 -3.4257,-1.9314 -6.5596,-4.25 -3.134,-2.31861 -10.2535,-7.59065 -15.8211,-11.71565 -5.5676,-4.125 -16.2784,-11.64926 -23.8019,-16.72058 -7.5234,-5.07132 -15.2161,-10.47132 -17.095,-12 -1.8788,-1.52868 -7.0538,-5.19728 -11.5,-8.15244 -4.4461,-2.95517 -11.661,-7.90517 -16.0329,-11 -7.9645,-5.63797 -13.0957,-8.83909 -21.6093,-13.48101 -2.507,-1.36694 -5.9372,-3.77344 -7.6225,-5.34778 -2.7307,-2.55084 -18.2395,-12.29819 -19.5674,-12.29819 -0.9675,0 -13.2047,-8.33797 -17.9014,-12.19744 -2.5573,-2.10141 -6.3538,-4.53275 -8.4365,-5.40298 -2.0827,-0.87023 -5.1654,-2.62199 -6.8504,-3.8928 -1.6849,-1.27081 -5.3135,-3.54127 -8.0635,-5.04546 -2.75,-1.50419 -10.7178,-6.49834 -17.7061,-11.09811 -6.9884,-4.59976 -13.1413,-8.36321 -13.6733,-8.36321 -0.5319,0 -2.2504,-1.07978 -3.8188,-2.39952 -1.5684,-1.31974 -8.0155,-5.23722 -14.3267,-8.70552 -6.3113,-3.4683 -11.8423,-6.90161 -12.2911,-7.62959 -1.0517,-1.70595 -7.4622,-5.7865 -15.684,-9.98346 -3.575,-1.82492 -12.575,-7.15189 -20,-11.83769 -7.425,-4.685812 -15.686,-9.740182 -18.3577,-11.231942 -2.6718,-1.49175 -12.978,-7.32478 -22.9027,-12.962281 -9.92467,-5.6375 -18.36787,-10.25 -18.76247,-10.25 -0.3947,0 -3.8135,-2.25803 -7.5973,-5.01786 -3.7839,-2.75982 -18.1298,-10.69328 -31.8798,-17.62991 C 937.75003,38.922537 919.3,29.362197 910.5,24.613966 901.7,19.865735 891.125,14.476293 887,12.637429 874.7625,7.1821476 874.5129,7.0291566 874.1887,4.7867186 c -0.2032,-1.405897 0.5404,-2.711374 2.1421,-3.76086 2.2945,-1.503421 2.8972,-1.451324 9.3112,0.804832 9.269,3.260374 38.36463,15.6557944 51.32373,21.8650214 28.2521,13.536835 45.4619,22.292485 57.5343,29.271085 8.03437,4.64438 11.35387,6.40906 24.54977,13.05104 7.3976,3.72345 17.1317,8.96819 21.6312,11.65497 4.4996,2.686781 11.4746,6.436551 15.5,8.332801 7.2425,3.41169 20.4008,10.42782 26.446,14.101212 17.4235,10.58747 47.3636,27.40012 48.7944,27.40012 0.2655,0 3.3168,1.96886 6.7807,4.37525 3.4638,2.40639 8.1326,5.30083 10.3749,6.43209 2.2424,1.13126 6.8968,3.92974 10.3431,6.21884 3.4463,2.28911 8.5867,5.11681 11.423,6.28379 2.8363,1.16698 9.3065,4.72464 14.3783,7.9059 5.0718,3.18127 9.5066,5.78413 9.855,5.78413 0.3485,0 2.6568,1.36546 5.1296,3.03435 2.4728,1.66889 6.8131,4.20197 9.645,5.62906 2.832,1.4271 7.399,4.04853 10.149,5.8254 2.75,1.77687 11.075,6.99536 18.5,11.59664 7.425,4.60128 17.6435,11.0769 22.7078,14.39026 9.4592,6.18872 24.4045,15.79717 36.1443,23.23747 3.6564,2.31724 9.235,6.06747 12.397,8.33383 3.162,2.26637 9.2712,5.9138 13.576,8.1054 4.3048,2.1916 10.0846,5.69354 12.844,7.78207 2.7594,2.08854 7.1786,5.06402 9.8203,6.61218 2.6418,1.54817 9.477,6.33351 15.1894,10.63409 5.7125,4.30059 10.5637,7.81925 10.7806,7.81925 1.0041,0 29.6831,19.69592 35.4992,24.37976 3.5978,2.89739 9.9164,7.21131 14.0414,9.5865 7.1125,4.09538 14.4728,9.04627 33.2645,22.37517 4.5295,3.21278 10.4053,6.94922 13.0572,8.30319 5.3696,2.74149 13.3198,8.16853 18.7571,12.80421 5.1495,4.39031 20.1562,14.87274 29.1302,20.34784 4.2399,2.58683 11.8899,7.87916 17,11.76073 8.8833,6.74772 23.5322,16.64584 28.7514,19.42706 1.3532,0.72111 6.9782,2.10075 12.5,3.06586 10.4665,1.82937 17.0375,4.03408 24.5898,8.2505 2.4582,1.37239 7.1031,2.8243 10.322,3.22648 4.1954,0.52418 6.7411,1.49131 8.9902,3.41539 1.7257,1.47628 5.7088,3.87958 8.8514,5.34066 3.1427,1.46109 7.4177,4.15778 9.5,5.99263 2.0824,1.83486 5.0767,4.31736 6.654,5.51666 1.5773,1.1993 5.017,4.09908 7.6439,6.44395 2.6268,2.34488 6.4017,5.52246 8.3888,7.0613 1.987,1.53884 4.2202,4.23884 4.9628,6 1.256,2.97874 7.4303,9.145 14.4841,14.46522 1.8543,1.39852 3.6184,4.12332 4.6179,7.13239 0.8895,2.6781 2.4987,5.66695 3.576,6.64188 1.0773,0.97493 1.9587,2.22446 1.9587,2.77674 0,0.55228 1.8,3.38823 4,6.3021 2.2,2.91388 4,5.55532 4,5.86986 0,1.7902 14.1999,21.67396 17.9945,25.19722 10.1,9.37778 24.4076,21.52555 30.0858,25.54404 9.822,6.95117 15.2728,10.94183 23.0631,16.88497 4.0461,3.08677 8.3762,6.14388 9.6223,6.79358 1.2461,0.6497 4.5767,3.23382 7.4014,5.7425 2.8246,2.50867 8.555,7.06438 12.7343,10.1238 8.6899,6.36144 19.783,15.98568 28.5594,24.77775 3.3216,3.32747 10.5487,10.12671 16.0603,15.10943 11.1077,10.04178 15.9198,16.89878 19.4863,27.76671 l 2.2728,6.92607 -2.0981,6.57393 c -3.6249,11.35777 -4.3135,16.18767 -4.3059,30.19799 0.01,15.6237 -0.9194,18.48674 -7.5063,23.15839 -3.2237,2.28638 -5.1132,2.82125 -10.5978,3 l -6.6746,0.21754 -0.6482,4 c -1.6937,10.45146 -7.914,17.8473 -16.0347,19.06508 -9.4155,1.41193 -16.8652,-0.0935 -26.1596,-5.28642 -15.2031,-8.49412 -16.7167,-9.22179 -19.255,-9.25708 -1.375,-0.0191 -3.85,-0.95437 -5.5,-2.07833 -8.0629,-5.49235 -36.9126,-16.94325 -42.6873,-16.94325 -1.3815,0 -4.492,-1.34181 -6.9122,-2.9818 -4.1106,-2.78534 -7.9005,-3.90433 -7.9005,-2.33265 0,0.37705 0.9471,1.69374 2.1048,2.92597 1.1576,1.23223 1.7947,2.74204 1.4158,3.35513 -0.9614,1.55558 -4.5762,0.28293 -7.3111,-2.57396 -1.3766,-1.43806 -3.4379,-2.39269 -5.1666,-2.39269 -1.9592,0 -3.549,-0.8767 -4.9869,-2.75 l -2.1107,-2.75 0.232,3.5144 c 0.1276,1.93292 -0.1117,4.07042 -0.5317,4.75 -0.8684,1.40519 -6.25,1.68473 -7.0644,0.36695 -0.2953,-0.47775 -2.3737,-1.16236 -4.6186,-1.52134 -4.3629,-0.69766 -9.2109,1.21364 -11.7693,4.63999 -1.4611,1.9568 -4.3747,2.25846 -7.2015,0.74562 -1.393,-0.7455 -3.5865,-0.38374 -8.5105,1.40357 -6.425,2.33215 -6.8079,2.35842 -12.1646,0.8346 -5.1965,-1.47828 -5.7386,-1.46137 -8.9719,0.27987 -3.0036,1.61756 -3.8897,1.69106 -6.9679,0.57799 -4.1029,-1.48365 -4.9594,-1.0485 -3.4579,1.75696 0.5945,1.11095 1.081,2.49949 1.081,3.08565 0,1.77644 -4.0081,1.19618 -7.1395,-1.03361 -2.1917,-1.56064 -4.8837,-2.20042 -10.4906,-2.49326 -5.6366,-0.2944 -8.2954,-0.93021 -10.5231,-2.51649 l -2.9809,-2.12257 0.6783,3.61584 c 0.8422,4.48926 -0.9455,4.83195 -5.447,1.04416 -3.3707,-2.83627 -5.0972,-2.50998 -5.0972,0.96332 0,1.45074 -1.45,3.43886 -4.0063,5.49317 -4.5081,3.62285 -6.1843,6.55123 -11.5187,20.12451 -3.6181,9.20608 -3.7435,9.95546 -4.1815,24.99067 -0.2483,8.525 -1.0319,19.775 -1.7412,25 -1.2051,8.87734 -1.162,9.76217 0.6582,13.5 1.0714,2.2 4.4998,6.31898 7.6187,9.15329 3.1189,2.83431 5.3234,5.50669 4.8989,5.93861 -0.4246,0.43192 -2.7991,-0.19956 -5.2768,-1.40329 -2.4776,-1.20374 -4.7282,-2.18861 -5.0013,-2.18861 -0.2731,0 1.3785,2.3625 3.6701,5.25 6.1399,7.73628 8.7103,14.75 5.4056,14.75 -0.8109,0 -2.1667,-1.33886 -3.0129,-2.97525 -1.9738,-3.8169 -9.6858,-11.25537 -10.6518,-10.27404 -0.4057,0.41211 -1.041,3.05579 -1.4117,5.87484 l -0.6739,5.12555 5.6123,5.31951 c 3.6545,3.4639 5.6123,6.12355 5.6123,7.62445 0,3.33334 -1.673,2.86092 -6.8882,-1.94506 -4.4817,-4.13013 -4.6214,-4.18218 -4.9516,-1.84544 -0.2594,1.83525 0.7469,3.33344 4.25,6.32781 4.2467,3.62994 6.096,7.76763 3.4718,7.76763 -0.6149,0 -2.6555,-1.35 -4.5348,-3 -4.1722,-3.66327 -5.1199,-3.72795 -6.372,-0.4349 -1.4821,3.89823 -1.3436,4.17358 4.0469,8.04628 7.4299,5.33785 13.0685,16.32337 8.8133,17.17084 -0.9659,0.19237 -1.925,-0.4892 -2.2851,-1.62388 -1.7458,-5.50052 -10.4774,-14.14317 -14.3003,-14.1546 -2.283,-0.007 -1.2926,2.53986 1.6678,4.28866 3.8626,2.28166 8.0822,7.38553 8.0822,9.77585 0,1.05314 0.9,2.47686 2,3.16382 1.1,0.68696 2,1.84483 2,2.57304 0,0.7282 1.35,2.45996 3,3.84834 5.0317,4.23388 3.0384,7.38347 -2.4125,3.81193 -5.3547,-3.50856 -13.5875,-4.0278 -13.5875,-0.85697 0,0.76537 0.3966,1.39159 0.8813,1.39159 1.3634,0 7.1187,6.21711 7.1187,7.68984 0,0.82644 -1.2707,1.31016 -3.4418,1.31016 l -3.4418,0 0.5834,6.95937 c 0.4603,5.49051 0.237,7.48821 -1.0582,9.46481 -0.9029,1.378 -1.6416,4.1222 -1.6416,6.0982 0,1.976 -1.0815,5.53 -2.4034,7.8977 -2.2317,3.9972 -2.3742,5.1188 -1.9947,15.6924 0.2248,6.2631 0.4893,20.83752 0.5878,32.38752 0.159,18.64586 -0.067,21.99616 -2.0191,29.88686 -1.2089,4.8878 -3.1217,10.9628 -4.2504,13.5 -1.1288,2.5372 -3.6145,8.8881 -5.5238,14.1131 -3.8401,10.5087 -5.6974,14.267 -7.3174,14.807 -1.3391,0.4464 -1.407,-2.3256 -0.1162,-4.7376 2.5352,-4.737 5.7698,-21.1099 5.9509,-30.122 0.1802,-8.9674 -2.9154,-29.1961 -4.7687,-31.16156 -0.3704,-0.3929 -0.6953,4.41416 -0.722,10.68226 -0.042,9.8468 0.1795,11.4562 1.6277,11.8349 1.5627,0.4087 1.5557,1.0394 -0.1046,9.3177 -2.2683,11.3107 -6.5787,27.8242 -7.9138,30.3189 -0.5653,1.0564 -1.9873,2.0647 -3.1599,2.2406 -1.637,0.2455 -2.644,1.829 -4.3371,6.8198 -2.2327,6.5813 -7.333,17.0452 -9.8703,20.25 -0.762,0.9625 -2.1234,1.75 -3.0252,1.75 -1.9951,0 -1.9925,0.088 -0.1318,-4.3648 1.2117,-2.9001 1.291,-4.4466 0.4036,-7.8722 -0.6074,-2.3446 -1.4097,-6.7949 -1.783,-9.8894 -1.1669,-9.6742 -4.9519,-11.7754 -7.5382,-4.1849 -1.2329,3.6183 -1.3197,4.8606 -0.3803,5.4412 2.2297,1.378 -0.343,6.3233 -3.4785,6.6865 -1.5024,0.1741 -2.7316,-0.1634 -2.7316,-0.75 0,-2.4998 -1.7819,-0.7573 -3,2.9336 -1.3827,4.1896 -2.4107,4.978 -3.3385,2.5602 -0.7283,-1.8978 0.9152,-17.2331 2.7929,-26.0602 2.1974,-10.3305 2.9878,-18.5 1.7898,-18.5 -1.8859,0 -4.3594,5.0821 -5.7471,11.8081 -0.7594,3.6805 -1.8569,8.3794 -2.4389,10.4419 -0.582,2.0625 -1.4468,5.263 -1.9218,7.1122 -0.475,1.8492 -2.05,5.9536 -3.5,9.1209 -1.45,3.1672 -2.6364,6.7392 -2.6364,7.9377 0,2.4382 -1.7299,4.5792 -3.7,4.5792 -2.0542,0 -1.5388,-5.1265 1.0619,-10.5628 2.7034,-5.6511 7.1368,-19.0814 8.1969,-24.8318 1.0246,-5.5572 -1.1161,-3.8353 -2.9628,2.3834 -0.8008,2.6966 -2.3636,6.1647 -3.4728,7.707 -1.1092,1.5423 -2.7336,5.7292 -3.6097,9.3042 -2.3345,9.5255 -3.4964,12 -5.6348,12 -2.2702,0 -2.3198,-0.7001 -0.3787,-5.3458 0.825,-1.9745 1.4541,-5.7419 1.3979,-8.3721 -0.1018,-4.7713 -0.1044,-4.7748 -1.1446,-1.5321 -1.0238,3.1912 -3.0239,4.2392 -4.2634,2.2337 -0.3454,-0.559 -1.047,-0.7574 -1.559,-0.441 -1.4787,0.9139 -1.0804,5.0884 0.6202,6.4997 1.8418,1.5286 1.5775,7.0971 -0.3672,7.7359 -0.7238,0.2378 -1.5638,-0.515 -1.8666,-1.6729 -0.3028,-1.158 -0.732,-2.1054 -0.9538,-2.1054 -1.4332,0 -8.2988,5.2523 -9.7392,7.4506 -1.1306,1.7255 -2.462,2.5494 -3.8016,2.3525 -1.6993,-0.2498 -2.3481,0.6186 -3.6921,4.9416 -2.1984,7.0708 -4.4805,9.5777 -8.2195,9.0289 -2.6509,-0.389 -3.025,-0.086 -3.8818,3.1479 -0.5216,1.9682 -1.2034,5.2208 -1.5153,7.228 -0.3118,2.0073 -1.2027,4.1771 -1.9796,4.822 -1.1457,0.9508 -1.7703,0.4755 -3.3045,-2.5149 l -1.8917,-3.6873 -1.1223,2.8653 c -0.6173,1.576 -1.5966,4.7255 -2.1763,6.9989 -1.1368,4.4585 -3.2866,6.9499 -5.0543,5.8574 -0.6063,-0.3747 -0.8751,-1.876 -0.5974,-3.3361 0.2778,-1.4601 0.8006,-4.608 1.1617,-6.9952 0.6324,-4.1795 0.5788,-4.2987 -1.4464,-3.2148 -1.2051,0.6449 -2.1032,2.1113 -2.1032,3.4338 0,2.7029 -3.1798,12.3103 -5.1405,15.5312 -1.1241,1.8466 -1.9739,2.1379 -4.9078,1.6822 l -3.5482,-0.5511 -1.3215,5.9564 c -2.0826,9.3876 -6.8147,11.2482 -5.0934,2.0027 0.4608,-2.475 0.6578,-4.6816 0.4377,-4.9035 -0.693,-0.699 -3.4263,6.7249 -3.4263,9.3063 0,3.7391 -1.7648,7.5972 -3.4752,7.5972 -0.8387,0 -1.5248,-0.7125 -1.5248,-1.5833 0,-0.8709 -0.5118,-1.4128 -1.1373,-1.2043 -0.6255,0.2085 -2.0038,3.7335 -3.0629,7.8334 -2.3016,8.9093 -4.2339,12.2686 -6.6213,11.5109 -1.1338,-0.3599 -2.0419,0.2132 -2.6944,1.7002 -0.7032,1.6028 -1.8355,2.2431 -3.9667,2.2431 -2.4644,0 -3.2912,0.6516 -4.7579,3.75 -0.9764,2.0625 -2.1945,3.75 -2.707,3.75 -0.5125,0 -1.0797,-1.6875 -1.2605,-3.75 l -0.3287,-3.75 -1.9257,3.7686 c -2.1188,4.1463 -3.6775,4.3748 -4.5527,0.6673 -0.6717,-2.8451 -1.1761,-2.1727 -3.9677,5.2886 -2.5616,6.8466 -4.1863,8.4636 -6.3398,6.31 -2.1247,-2.1247 -2.256,-2.0449 -4.0607,2.4655 -1.7377,4.3428 -2.6775,4.8366 -4.6594,2.4486 -1.1129,-1.3411 -1.6381,-0.8325 -3.8724,3.75 -1.6104,3.3028 -3.6217,5.7932 -5.3349,6.606 -1.5125,0.7175 -2.75,1.73 -2.75,2.25 0,0.52 -0.675,0.9454 -1.5,0.9454 -1.7522,0 -1.9423,-2.9711 -0.5097,-7.9663 1.2412,-4.3278 -0.2213,-6.165 -2.3011,-2.8906 -0.8234,1.2963 -1.8192,4.3819 -2.2129,6.8569 -0.3938,2.475 -1.6174,6.3 -2.7191,8.5 -2.437,4.8665 -2.2002,4.5952 -4.2764,4.8999 -0.9644,0.1416 -3.2804,3.2524 -5.3417,7.175 -2.0345,3.8716 -4.3005,6.9251 -5.1391,6.9251 -1.5641,0 -1.6046,-0.6868 -0.5012,-8.5 0.5932,-4.2003 0.5312,-4.3707 -0.9316,-2.5589 -0.862,1.0677 -1.5771,3.3177 -1.5892,5 -0.012,1.6824 -0.8781,4.9446 -1.9244,7.2494 -1.5695,3.457 -2.517,4.3058 -5.4127,4.849 -4.2187,0.7915 -6.3272,2.9321 -9.6409,9.7881 -1.7643,3.6503 -3.1654,5.2669 -4.761,5.4934 -1.2889,0.183 -2.9123,1.5803 -3.7757,3.25 -0.8331,1.6109 -1.905,2.929 -2.382,2.929 -1.1182,0 -2.131,-2.635 -1.6334,-4.25 0.2118,-0.6875 0.6759,-2.5661 1.0315,-4.1746 0.5681,-2.5706 0.4571,-2.7676 -0.9165,-1.6276 -0.8596,0.7134 -1.5654,2.2545 -1.5685,3.4246 -0.016,6.3095 -3.8737,12.4672 -5.2477,8.3776 -0.231,-0.6875 -0.9784,0.4375 -1.6609,2.5 -1.6076,4.8581 -4.0858,5.0097 -4.0858,0.25 0,-4.6467 -1.733,-4.4791 -2.5851,0.25 -0.3716,2.0625 -1.0119,4.2 -1.4229,4.75 -0.411,0.55 -1.0755,2.125 -1.4767,3.5 -0.98,3.3588 -6.4901,12 -7.6518,12 -0.5104,0 -1.2704,-0.9257 -1.689,-2.0572 l -0.761,-2.0572 -1.8617,2.0572 c -1.024,1.1315 -2.467,2.0572 -3.2068,2.0572 -1.6274,0 -1.6711,-0.5221 -0.264,-3.1514 2.0575,-3.8444 0.2045,-2.8674 -2.6235,1.3833 -4.1719,6.2705 -11.616,13.7681 -13.6699,13.7681 -0.9832,0 -1.7876,0.4179 -1.7876,0.9286 0,0.5107 -0.6674,1.5959 -1.483,2.4116 -1.1657,1.1656 -2.1898,1.2661 -4.7852,0.4695 -3.0077,-0.923 -3.6113,-0.7255 -6.767,2.2147 l -3.4648,3.2281 -1.1445,15.6237 c -0.6294,8.5931 -2.3077,28.2238 -3.7295,43.6238 -1.4217,15.4 -2.5964,31.15 -2.6103,35 -0.014,3.85 -0.9676,14.425 -2.1194,23.5 -3.5628,28.0716 -3.5132,27.3866 -2.1766,30.028 0.6879,1.3596 1.2575,3.5068 1.2656,4.7717 0.01,1.2648 0.6568,3.5414 1.4417,5.0591 0.8208,1.5873 1.0814,3.3187 0.6133,4.0759 -0.7921,1.2817 -0.5965,12.6912 0.4505,26.2853 0.2847,3.696 0.082,8.646 -0.4501,11 -0.5323,2.354 -1.4653,7.655 -2.0735,11.78 -0.6082,4.125 -2.1737,12.1433 -3.4789,17.8184 -1.3052,5.6751 -2.153,10.8919 -1.884,11.5929 0.269,0.701 -0.3899,6.4077 -1.4643,12.6816 -1.7504,10.2218 -4.0544,53.4815 -3.457,64.9071 0.1007,1.925 0.2538,18.125 0.3402,36 0.1441,29.791 0.3193,32.8713 2.1014,36.955 1.2006,2.751 1.7163,5.493 1.3482,7.1689 -0.8831,4.0204 2.7759,10.353 10.2887,17.8068 l 6.4816,6.4307 -0.6429,7.0953 -0.643,7.0954 5.0465,7.1629 c 3.3023,4.6871 6.4976,7.9633 9.2447,9.4787 3.094,1.7067 4.5997,3.3853 5.7249,6.3818 1.7648,4.7 4.7107,9.4245 5.8766,9.4245 0.442,0 0.6056,-1.35 0.3634,-3 -0.2422,-1.65 -0.1699,-3 0.1606,-3 0.3305,0 2.1565,3.0888 4.0577,6.8641 1.9011,3.7752 4.9185,8.0942 6.7053,9.5976 1.7867,1.5034 3.3076,3.5353 3.3798,4.5152 0.072,0.98 1.223,3.1934 2.5573,4.9189 1.3343,1.7254 3.4385,4.4322 4.676,6.015 2.8042,3.5868 2.7975,4.0192 -0.1115,7.1565 -1.2989,1.4007 -2.8692,3.4953 -3.4897,4.6547 -0.767,1.4332 -2.8117,2.4682 -6.3884,3.2339 -2.8932,0.6193 -8.0633,2.4904 -11.4892,4.158 -3.4258,1.6676 -8.8258,3.4135 -12,3.8798 -3.1741,0.4664 -7.7962,1.5787 -10.2712,2.4719 -2.84,1.0249 -5.8455,1.397 -8.1474,1.0086 -2.1765,-0.3672 -3.9142,-0.1836 -4.309,0.4552 -0.9445,1.5282 -5.2318,1.3255 -5.8465,-0.2764 -0.3194,-0.8322 -2.9397,-1.5833 -6.857,-1.9653 -3.4871,-0.3401 -8.8087,-1.5339 -11.826,-2.653 -3.0172,-1.1191 -5.5475,-2.0347 -5.6228,-2.0347 -0.075,0 -0.3583,-2.1375 -0.629,-4.75 -0.2776,-2.6793 -2.3493,-8.6002 -4.7523,-13.5821 -3.7519,-7.7783 -4.1118,-9.1091 -3.0171,-11.1546 1.4064,-2.6279 0.5129,-4.9214 -1.6013,-4.1101 -1.4226,0.5459 -1.4064,-0.4472 0.18,-11.0147 0.2917,-1.9432 -0.058,-3.5474 -0.9318,-4.2724 -0.7693,-0.6385 -1.6668,-2.5009 -1.9943,-4.1385 -0.3275,-1.6377 -1.0981,-2.9776 -1.7123,-2.9776 -0.6143,0 -2.3131,-0.9385 -3.775,-2.0856 -1.462,-1.1471 -6.0006,-3.9596 -10.0857,-6.25 -12.257,-6.8721 -11.5354,-3.0705 -11.7055,-61.6644 -0.09,-31.1134 -0.5404,-51.1715 -1.2118,-54 -0.5874,-2.475 -1.0877,-7.072 -1.1116,-10.2156 -0.024,-3.1436 -0.71,-10.5686 -1.5244,-16.5 -1.5091,-10.9898 -3.105,-26.4476 -4.4419,-43.0221 -0.5155,-6.391 -1.2585,-9.805 -2.4112,-11.0787 -0.9163,-1.0126 -1.6756,-2.9306 -1.6872,-4.2623 -0.012,-1.3317 -1.1346,-5.5713 -2.4956,-9.4213 -1.361,-3.85 -2.4765,-8.3765 -2.4789,-10.0589 0,-1.6823 -0.6651,-3.9323 -1.4726,-5 -1.778,-2.3506 -1.8743,-1.1365 -0.4403,5.55 1.2095,5.6398 0.711,8.2541 -1.4182,7.437 -1.5697,-0.6023 -3.9412,-5.1856 -3.2565,-6.2936 0.4222,-0.683 -0.1472,-9.2061 -2.3762,-35.5687 -0.555,-6.5639 -1.4662,-12.3914 -2.0248,-12.95 -0.5587,-0.5587 -1.0158,-5.4193 -1.0158,-10.8014 0,-5.3822 -0.4317,-11.7047 -0.9592,-14.05 -0.5276,-2.3454 -1.4669,-6.9644 -2.0874,-10.2644 -0.6205,-3.3 -1.3224,-7.0125 -1.5598,-8.25 -0.2374,-1.2375 -0.7652,-2.25 -1.1727,-2.25 -0.6971,0 -0.071,8.2018 1.3553,17.7597 0.7642,5.1205 -0.2721,10.535 -1.5719,8.2125 -0.4615,-0.8247 -1.0809,-4.6616 -1.3764,-8.5263 -0.2955,-3.8647 -0.9791,-8.1335 -1.5192,-9.4863 -1.1603,-2.9064 -1.302,-1.9178 -1.1166,7.7904 0.15,7.8536 -0.9552,9.1582 -4.4691,5.2754 -1.4835,-1.6393 -1.6724,-2.9879 -1.1121,-7.9402 0.457,-4.0394 0.195,-7.8414 -0.8113,-11.7754 -0.9446,-3.6924 -1.3109,-8.361 -1.0051,-12.8098 1.0275,-14.9487 1.0778,-17.4122 0.3786,-18.5435 -1.124,-1.8188 -1.4708,-0.6724 -5.7607,19.0435 -4.4432,20.4205 -6.8536,35.8214 -7.7473,49.5 -0.7056,10.7996 -1.2175,13.4381 -7.4698,38.5 -2.6755,10.725 -5.7864,23.4236 -6.9129,28.2191 -2.0867,8.8831 -9.7109,28.0361 -13.018,32.7029 -1.9872,2.8041 -4.5267,13.7771 -5.5725,24.078 -0.908,8.9435 -3.2329,21.5963 -4.961,27 -0.7916,2.475 -1.66547,8.55 -1.94217,13.5 -0.2766,4.95 -0.9873,12.825 -1.5793,17.5 -0.5921,4.675 -1.2523,10.525 -1.4672,13 -0.7639,8.798 -3.4418,33.6314 -4.53,42.0091 -1.5213,11.7123 -0.7963,40.9015 1.3908,55.9909 1.5707,10.8371 2.6643,14.6945 7.34667,25.914 0.3363,0.8057 0.1578,1.1469 -0.4147,0.793 -1.54427,-0.9544 0.073,7.0753 2.4822,12.32 1.1435,2.4898 3.2041,5.5838 4.5791,6.8755 1.375,1.2918 2.7794,3.621 3.121,5.1761 0.3415,1.5551 1.4081,3.8611 2.3701,5.1244 0.962,1.2634 5.7048,8.9682 10.5395,17.1219 9.723,16.3975 16.8006,31.8315 16.3598,35.6751 -0.3943,3.4386 -6.0679,4.8745 -12.4819,3.159 -2.5156,-0.6728 -4.7552,-1.042 -4.9768,-0.8204 -0.2216,0.2216 0.01,1.4736 0.5067,2.7822 3.1426,8.2205 3.2927,9.643 1.4312,13.5609 -1.5703,3.3052 -2.214,3.7807 -4.79,3.5382 -5.1589,-0.4855 -6.8103,-0.4714 -13.4759,0.1156 -3.575,0.3148 -8.52497,0.098 -10.99997,-0.481 z M 110.6232,1365.7569 c 2.2016,-3.2677 2.4911,-3.7106 8.694,-13.3018 5.9465,-9.1951 15.1141,-24.8214 18.1296,-30.9024 1.2398,-2.5002 5.3778,-10.6208 9.1955,-18.0458 3.8178,-7.425 7.5651,-15.525 8.3274,-18 1.6604,-5.3912 3.7098,-8.0603 5.6246,-7.3256 0.7733,0.2968 1.406,1.5899 1.406,2.8736 0,2.5141 1.4961,4.0763 2.4405,2.5483 0.6874,-1.1123 -3.0334,-17.6313 -4.4983,-19.9709 -0.7354,-1.1745 -0.9379,0.2903 -0.73,5.2803 0.3342,8.02 -1.3393,9.9278 -3.7168,4.2374 -0.812,-1.9431 -2.2357,-3.958 -3.164,-4.4775 -1.2074,-0.6757 -1.8142,-2.6918 -2.1319,-7.0837 -0.3812,-5.27 -0.6899,-6.061 -2.1806,-5.5879 -2.2517,0.7146 -3.3994,-0.7633 -6.0087,-7.7371 -2.5197,-6.7345 -4.1457,-8.2746 -3.7731,-3.5739 0.3425,4.3212 -2.3914,4.5855 -3.2788,0.317 -0.8727,-4.1978 -3.3124,-8.5741 -6.3745,-11.4349 -1.4335,-1.3391 -3.0734,-4.2641 -3.6444,-6.5 -1.7869,-6.9972 -1.8419,-7.0808 -3.3223,-5.0561 -2.2419,3.0659 -4.6171,1.1815 -4.6171,-3.6632 0,-2.7215 -0.6646,-4.949 -1.8742,-6.2813 -2.6165,-2.8823 -5.5301,-11.4275 -7.6082,-22.3145 -1.9618,-10.2773 -4.1976,-12.8586 -3.0317,-3.5 0.3941,3.1625 1.1417,6.5468 1.6615,7.5207 1.0777,2.0191 0.3539,3.7293 -1.5783,3.7293 -0.7318,0 -1.9595,-2.3241 -2.7735,-5.25 -0.8032,-2.8875 -1.873398,-5.25 -2.377998,-5.25 -0.5047,0 -1.0137,3.15 -1.1313,7 -0.1175,3.85 -0.6933,14.425 -1.2795,23.5 -0.5862,9.075 -1.2585,30 -1.4939,46.5 -0.3727,26.1238 -0.1711,31.8065 1.5605,43.981 1.5684,11.0267 2.739,15.6754 5.540298,22 4.7415,10.7053 4.9542,11.519 3.0115,11.519 -0.9148,0 -3.0072,-2.479 -4.853,-5.7497 -2.187398,-3.8759 -3.355398,-5.1761 -3.583898,-3.9898 -0.1864,0.9679 0.5578,3.2177 1.6537,4.9997 1.096,1.7819 3.205998,9.3148 4.689098,16.7398 1.483,7.425 2.8968,13.8375 3.1417,14.25 0.8298,1.3978 2.091,0.7592 3.9501,-2 z"
     id="path2987"
     inkscape:connector-curvature="0" />
</svg>
