<?xml version="1.0" encoding="UTF-8" standalone="no"?>
<!-- Created with Inkscape (http://www.inkscape.org/) -->

<svg
   xmlns:dc="http://purl.org/dc/elements/1.1/"
   xmlns:cc="http://creativecommons.org/ns#"
   xmlns:rdf="http://www.w3.org/1999/02/22-rdf-syntax-ns#"
   xmlns:svg="http://www.w3.org/2000/svg"
   xmlns="http://www.w3.org/2000/svg"
   xmlns:sodipodi="http://sodipodi.sourceforge.net/DTD/sodipodi-0.dtd"
   xmlns:inkscape="http://www.inkscape.org/namespaces/inkscape"
   id="svg2"
   version="1.1"
   inkscape:version="0.48.2 r9819"
   width="1081.7998"
   height="439.50293"
   sodipodi:docname="pellucidar00burr_0005c.png">
  <metadata
     id="metadata8">
    <rdf:RDF>
      <cc:Work
         rdf:about="">
        <dc:format>image/svg+xml</dc:format>
        <dc:type
           rdf:resource="http://purl.org/dc/dcmitype/StillImage" />
        <dc:title></dc:title>
      </cc:Work>
    </rdf:RDF>
  </metadata>
  <defs
     id="defs6" />
  <sodipodi:namedview
     pagecolor="#ffffff"
     bordercolor="#666666"
     borderopacity="1"
     objecttolerance="10"
     gridtolerance="10"
     guidetolerance="10"
     inkscape:pageopacity="0"
     inkscape:pageshadow="2"
     inkscape:window-width="1600"
     inkscape:window-height="876"
     id="namedview4"
     showgrid="false"
     fit-margin-top="0"
     fit-margin-left="0"
     fit-margin-right="0"
     fit-margin-bottom="0"
     inkscape:zoom="1"
     inkscape:cx="526.62638"
     inkscape:cy="203.79462"
     inkscape:window-x="0"
     inkscape:window-y="24"
     inkscape:window-maximized="1"
     inkscape:current-layer="svg2" />
  <path
     style="fill:#000000"
     d="m 672.04099,437.85007 c -1.69696,-0.90297 -5.219,-3.66676 -7.82675,-6.14176 -2.60775,-2.475 -5.81122,-4.86813 -7.11883,-5.31807 -1.3076,-0.44994 -2.63759,-1.57494 -2.95553,-2.5 -0.53417,-1.55422 -8.72627,-6.19199 -11.0135,-6.23503 -0.55,-0.0104 -2.3345,-1.10939 -3.96555,-2.4423 -2.85851,-2.33601 -2.91837,-2.55399 -1.6582,-6.03891 1.62292,-4.48812 1.12925,-5.03701 -2.73366,-3.03943 -4.1081,2.12438 -4.94058,2.02603 -11.21501,-1.32505 -2.98517,-1.59434 -6.85899,-3.19826 -8.60848,-3.56428 -1.7495,-0.36602 -3.7171,-1.31156 -4.37245,-2.10121 -0.65535,-0.78965 -2.01527,-1.43572 -3.02204,-1.43572 -1.00678,0 -3.01986,-0.54191 -4.47351,-1.20423 -2.23366,-1.01773 -2.78644,-0.94793 -3.56912,0.45063 -1.67331,2.99004 -3.98869,4.7536 -6.241,4.7536 -2.33889,0 -11.64098,-8.61757 -11.64098,-10.78435 0,-0.66861 -0.36895,-1.21565 -0.81989,-1.21565 -0.45094,0 -2.33199,-1.35 -4.18011,-3 -1.84812,-1.65 -3.78053,-3 -4.29424,-3 -0.51371,0 -2.64612,1.9125 -4.7387,4.25 -3.41125,3.81053 -4.01848,4.12074 -5.8723,3 -1.13719,-0.6875 -2.56707,-1.25 -3.17751,-1.25 -0.61044,0 -3.95046,-2.49388 -7.42227,-5.54197 -5.21923,-4.58222 -6.75242,-5.43152 -8.85336,-4.90422 -3.43928,0.86321 -7.75858,-3.3362 -7.48408,-7.27633 0.10643,-1.52762 -0.42211,-4.45456 -1.17453,-6.50432 -1.09029,-2.9702 -2.43371,-4.24822 -6.61709,-6.29496 -4.4771,-2.19044 -5.54866,-2.38102 -7.28622,-1.2959 -1.66108,1.03736 -2.64109,1.01788 -5.30843,-0.1055 -1.7992,-0.75774 -5.43583,-1.58027 -8.0814,-1.82783 -5.51518,-0.51608 -8.68987,1.46387 -8.68987,5.41959 0,1.29722 -0.4038,3.13997 -0.89734,4.09501 -0.49354,0.95504 -1.66395,3.59807 -2.60092,5.87342 -2.21192,5.3715 -9.47165,12.3573 -16.9104,16.27235 -6.13672,3.22978 -14.13441,9.23545 -16.39804,12.31371 -0.71869,0.97732 -1.77422,1.77695 -2.34563,1.77695 -0.57141,0 -2.4584,1.0125 -4.1933,2.25 -2.51554,1.79432 -4.5081,2.25 -9.83871,2.25 -5.99604,0 -6.99256,-0.2953 -9.67765,-2.86778 -2.96596,-2.84157 -2.97844,-2.89898 -1.36559,-6.28116 0.93595,-1.96272 2.61639,-3.66153 3.95403,-3.99725 1.27947,-0.32113 2.78027,-1.4321 3.33511,-2.46884 0.55484,-1.03673 1.84895,-1.88497 2.8758,-1.88497 1.19029,0 2.26019,-1.12794 2.95183,-3.11197 0.72267,-2.07306 1.56553,-2.92751 2.52471,-2.55944 1.45743,0.55926 4.01145,-1.56991 3.04384,-2.53752 -0.2887,-0.2887 1.08793,-1.941 3.05917,-3.67177 3.58415,-3.14693 3.85724,-5.18897 0.67407,-5.04035 -1.14894,0.0536 -1.26781,0.24812 -0.37083,0.60671 2.25251,0.90051 -2.51657,3.54547 -4.98192,2.763 -1.65138,-0.52413 -2.0084,-0.33451 -1.56174,0.82949 0.95257,2.48234 -3.67533,6.08955 -6.80492,5.30407 -1.71778,-0.43114 -2.41474,-0.29928 -1.99634,0.3777 0.35354,0.57204 0.16625,1.04008 -0.41621,1.04008 -0.58246,0 -1.05902,0.59656 -1.05902,1.32569 0,0.72912 -1.08992,2.3496 -2.42204,3.60107 -2.04224,1.91858 -3.06664,2.16647 -6.53289,1.58085 -3.07516,-0.51954 -4.76332,-0.26702 -6.70055,1.00231 -2.16327,1.41743 -2.97371,1.49131 -4.92186,0.44869 -3.06382,-1.63971 -5.69539,-7.33797 -5.69539,-12.33251 0,-4.36916 2.22765,-6.87732 9.48929,-10.68423 2.04411,-1.07162 4.18114,-2.81646 4.74894,-3.87741 0.56781,-1.06096 1.97543,-2.22833 3.12806,-2.59415 2.04012,-0.64751 12.90644,-11.24585 12.90644,-12.58814 0,-0.36966 -1.6875,-0.91888 -3.75,-1.2205 -7.32372,-1.07102 -10.78174,-1.81113 -13.25,-2.83584 -7.32012,-3.039 -11.33561,-5.65848 -13.14614,-8.57583 -1.10934,-1.7875 -2.40194,-3.25 -2.87244,-3.25 -1.53772,0 -7.96385,-7.45561 -7.97275,-9.25 -0.005,-0.9625 -0.34617,-1.78344 -0.75867,-1.82431 -3.59263,-0.35596 -6.13065,-1.25806 -8.25,-2.93233 -1.375,-1.08624 -3.95193,-2.62674 -5.72651,-3.42333 -1.77457,-0.79659 -4.17601,-2.33295 -5.33652,-3.41413 -1.16052,-1.08118 -3.63162,-2.25124 -5.49135,-2.60012 -1.85973,-0.34889 -3.99026,-1.24328 -4.73451,-1.98753 -0.74426,-0.74425 -3.57122,-2.48924 -6.28215,-3.87775 -2.71093,-1.38851 -5.71206,-3.4619 -6.66917,-4.60753 -0.95712,-1.14563 -2.53212,-2.08975 -3.5,-2.09803 -1.97136,-0.0169 -8.03287,-2.03679 -10.12774,-3.37495 -0.75237,-0.4806 -2.77737,-1.22828 -4.5,-1.66152 -1.72263,-0.43323 -6.73205,-2.17224 -11.13205,-3.86446 -4.4,-1.69222 -9.55038,-3.07839 -11.44528,-3.08038 -2.35175,-0.002 -4.31387,-0.83579 -6.18187,-2.62545 -1.50512,-1.44199 -4.45474,-2.97415 -6.55472,-3.40479 -2.09997,-0.43064 -7.64313,-2.18433 -12.31813,-3.89709 -4.675,-1.71277 -10.75,-3.74509 -13.5,-4.51628 -2.75,-0.77119 -8.6,-2.78605 -13,-4.47746 -4.4,-1.69142 -8.91727,-3.07694 -10.03839,-3.07893 -2.20624,-0.004 -12.04806,-3.25675 -13.13136,-4.34005 -0.36497,-0.36497 -1.51093,-0.66358 -2.54658,-0.66358 -1.03564,0 -3.24297,-0.70327 -4.90516,-1.56283 -2.02995,-1.04972 -3.41112,-1.24003 -4.20684,-0.57964 -0.65157,0.54075 -3.20674,0.9338 -5.67817,0.87344 -5.65495,-0.1381 -18.62816,2.15822 -22.19384,3.92843 -1.48519,0.73733 -3.73519,1.35491 -5,1.3724 -1.26481,0.0175 -3.17317,0.6925 -4.24079,1.5 -1.06762,0.80751 -3.44508,1.4682 -5.28324,1.4682 -1.83817,0 -5.66559,1.17739 -8.50539,2.61643 l -5.16327,2.61642 -1.75193,-2.36642 c -0.96356,-1.30154 -2.45013,-3.15393 -3.30349,-4.11643 -0.85335,-0.9625 -1.55155,-2.425 -1.55155,-3.25 0,-2.25468 -1.45615,-1.87623 -9.61939,2.5 -4.10378,2.2 -8.31058,4 -9.34844,4 -1.03785,0 -2.70717,1.0125 -3.70959,2.25 -1.00242,1.2375 -3.09492,2.90719 -4.65001,3.71042 -1.55508,0.80323 -3.25842,2.26573 -3.78518,3.25 -1.33698,2.49816 -4.88739,2.3453 -4.88739,-0.21042 0,-2.44475 -1.81744,-2.63932 -2.71856,-0.29103 -1.11409,2.90326 -5.64322,6.22624 -8.53144,6.25943 -2.63869,0.0303 -2.75,-0.17143 -2.75,-4.98418 l 0,-5.01578 -10.25,0.50413 c -9.376089,0.46114 -15.225429,1.083 -29.249999,3.10965 -2.75,0.39739 -5.95574,1.46158 -7.12387,2.36486 -1.16812,0.90328 -4.63402,2.49556 -7.70198,3.53839 -4.58635,1.55895 -5.63111,2.34129 -5.87614,4.40022 -0.21749,1.82753 -1.78413,3.39077 -5.79801,5.78541 -3.025,1.80468 -7.03303,4.64196 -8.906733,6.30507 -1.873702,1.66311 -3.77037,3.02383 -4.214816,3.02383 -0.444446,0 -1.349954,1.0125 -2.01224,2.25 -2.403892,4.49174 -15.415743,16.88676 -19.743329,18.80739 -5.449005,2.41832 -6.842786,2.42025 -12.4489217,0.0172 -5.15744195,-2.21074 -5.95124695,-3.83937 -4.89293895,-10.03871 0.72639595,-4.25507 1.04807295,-4.59791 7.20472295,-7.67877 3.5444087,-1.77366 6.9295127,-3.88829 7.5224537,-4.69919 0.592942,-0.81089 2.901097,-2.42457 5.129235,-3.58594 2.228138,-1.16137 5.099668,-3.22767 6.381177,-4.59177 1.28151,-1.36412 2.910744,-2.48021 3.62052,-2.48021 0.709776,0 1.815424,-1.0125 2.456996,-2.25 0.641571,-1.2375 2.848314,-3.825 4.903874,-5.75 2.05556,-1.925 4.320615,-4.625 5.033457,-6 0.712842,-1.375 2.909431,-4.43417 4.881309,-6.79814 2.953781,-3.54113 4.107028,-4.24564 6.54785,-4 2.649574,0.26664 3.237374,-0.23017 5.562994,-4.70186 3.24005,-6.22997 11.04566,-14.36863 16.97439,-17.69867 2.475,-1.39015 6.13663,-3.50358 8.13695,-4.69651 2.39208,-1.42657 6.62239,-2.5082 12.35899,-3.16004 4.797109,-0.54509 9.460479,-1.36864 10.363039,-1.83013 0.90256,-0.46148 4.56282,-1.13059 8.13392,-1.48691 3.57109,-0.35632 8.29609,-1.26837 10.5,-2.02678 2.2039,-0.75841 6.2571,-1.82354 9.0071,-2.36696 6.60111,-1.30443 15.01677,-4.48671 17.27872,-6.53374 0.99755,-0.90277 4.26793,-2.1818 7.2675,-2.84228 2.99958,-0.66048 6.12878,-1.73996 6.95378,-2.39885 3.35151,-2.67671 11.67201,-3.28469 26.27318,-1.91977 4.27525,0.39964 8.0143,1.11678 8.30902,1.59363 0.29471,0.47686 2.10662,0.86701 4.02648,0.86701 1.91985,0 4.72176,0.63664 6.22647,1.41475 2.6701,1.38077 32.40138,4.17514 33.98814,3.19446 0.41762,-0.2581 8.84073,0.4401 18.71801,1.55155 12.52599,1.40951 18.48484,2.49108 19.69795,3.5753 1.14764,1.0257 4.20903,1.65903 9,1.86188 3.99341,0.16909 10.03343,0.767 13.42226,1.3287 3.38883,0.5617 9.91383,1.43735 14.5,1.94589 18.71915,2.07568 36.14859,7.37844 37.42015,11.38476 0.61687,1.94357 4.21057,3.66627 11.91834,5.71322 2.75,0.73032 5.9,2.09208 7,3.02612 1.45483,1.23535 6.36139,2.18178 18,3.47204 8.8,0.97558 17.04179,2.16922 18.3151,2.65255 1.2733,0.48333 3.68304,0.87878 5.35498,0.87878 1.7369,0 4.98475,1.31259 7.57736,3.06231 3.98594,2.69008 4.86904,2.92498 7.2652,1.93246 2.02879,-0.84036 4.36241,-0.83901 9.10754,0.005 6.68915,1.19016 16.29414,3.75206 18.86778,5.03251 11.84556,5.89347 16.49337,7.96947 17.86476,7.9795 0.90601,0.007 3.6021,1.12957 5.99134,2.49544 2.92332,1.6712 5.1441,2.2826 6.79029,1.86943 1.57294,-0.39478 3.08554,-0.0354 4.23703,1.00668 1.67616,1.51691 1.94576,1.38047 4.21192,-2.13148 1.73337,-2.68628 3.25407,-3.84706 5.3534,-4.08634 1.61275,-0.18383 4.76176,-1.80172 6.99779,-3.59532 5.28122,-4.23626 6.88551,-4.73505 9.45071,-2.93832 2.18556,1.53083 2.87527,5.77983 1.1148,6.86786 -0.55,0.33992 -1,1.03486 -1,1.54432 0,0.50946 1.4625,0.0346 3.25,-1.05528 2.14303,-1.30663 5.03169,-1.98284 8.48095,-1.9853 4.82834,-0.003 5.28223,0.20059 5.89725,2.65104 0.83606,3.3311 -0.33178,5.20711 -4.85614,7.80092 -5.492,3.14856 -10.35102,7.25347 -9.55565,8.07262 0.39403,0.40581 2.27014,-0.62634 4.16913,-2.29368 3.42245,-3.00495 10.44947,-5.07268 12.63944,-3.7192 0.60411,0.37336 1.53735,1.8334 2.07386,3.24454 0.76916,2.02303 1.23201,2.30551 2.18832,1.33554 0.95212,-0.96572 0.83665,-1.5081 -0.53716,-2.52308 -3.69806,-2.73217 -0.66184,-12.71032 4.40505,-14.47664 1.55246,-0.5412 5.47272,-3.70915 8.71169,-7.0399 3.23896,-3.33074 6.31794,-6.0559 6.84216,-6.0559 0.52423,0 1.58541,-1.2375 2.35819,-2.75 0.77277,-1.5125 3.095,-4.48663 5.16051,-6.60918 2.06551,-2.12256 3.4855,-4.29602 3.15553,-4.82992 -0.32997,-0.5339 0.31133,-1.60902 1.42511,-2.38914 1.11379,-0.78013 2.78766,-3.41524 3.71972,-5.85581 0.93207,-2.44057 2.31957,-4.6772 3.08335,-4.97029 0.76378,-0.29309 1.38869,-1.39191 1.38869,-2.44183 0,-1.04992 0.675,-2.46914 1.5,-3.15383 0.825,-0.68469 1.5,-2.19359 1.5,-3.35312 0,-2.16541 3.17209,-11.08031 5.62235,-15.80117 0.75771,-1.45986 1.37765,-3.79581 1.37765,-5.19099 0,-1.39518 0.40775,-2.78869 0.90612,-3.0967 0.49837,-0.30801 0.69003,-1.38633 0.42593,-2.39628 -1.11429,-4.26104 3.05454,-19.10368 5.96912,-21.25238 0.44064,-0.32485 0.25674,-1.78553 -0.40866,-3.24594 -1.01984,-2.23829 -0.93684,-2.95696 0.52853,-4.57617 1.26508,-1.3979 1.48072,-2.41997 0.79202,-3.75406 -0.52049,-1.00826 -1.2438,-5.25087 -1.60734,-9.42803 l -0.661,-7.59485 3.77764,-2.55511 c 2.0777,-1.40532 4.79014,-2.85546 6.02764,-3.22255 1.2375,-0.36708 2.25,-1.20695 2.25,-1.86637 0,-0.65941 2.25,-3.65924 5,-6.66628 2.75,-3.00704 5,-5.81089 5,-6.23079 0,-0.4199 1.62736,-2.56474 3.61636,-4.76633 4.07579,-4.51141 7.26077,-5.12575 10.38364,-2.00288 2.83479,2.83479 2.51815,4.46789 -1.79779,9.27234 -4.7188,5.25293 -7.57939,9.72766 -6.21865,9.72766 0.56632,0 2.03919,-1.18486 3.27305,-2.63302 1.23387,-1.44816 2.80589,-3.21602 3.49339,-3.92857 0.6875,-0.71256 1.25,-1.695 1.25,-2.1832 0,-0.48821 3.20286,-4.00786 7.11746,-7.82143 3.91461,-3.81358 8.07711,-7.9916 9.25,-9.28448 1.1729,-1.29289 5.05754,-4.25547 8.63254,-6.58351 3.575,-2.32805 7.625,-5.20671 9,-6.397025 1.375,-1.19032 4.075,-3.19454 6,-4.45382 1.925,-1.25928 4.10088,-3.53915 4.8353,-5.06639 0.73441,-1.52723 1.97191,-3.02107 2.75,-3.31965 0.77808,-0.29858 1.4147,-1.1572 1.4147,-1.90804 0,-0.75084 2.69632,-3.5152 5.99181,-6.14301 4.16299,-3.31955 5.99432,-5.4744 6,-7.05997 0.005,-1.25516 0.68319,-3.89762 1.50819,-5.87212 0.825,-1.97451 1.5,-5.18008 1.5,-7.12349 0,-3.98714 4.10004,-10.222 6.72215,-10.222 0.8912,0 2.49133,-0.7875 3.55584,-1.75 1.61386,-1.4592 3.90342,-1.75 13.7784,-1.75 8.14082,0 12.23378,-0.39075 13.09327,-1.25 0.68769,-0.6875 1.9367,-1.25 2.77558,-1.25 2.33666,0 15.07476,-5.20347 15.07476,-6.15799 0,-0.4631 0.57216,-0.84201 1.27147,-0.84201 0.6993,0 3.9618,-1.78728 7.25,-3.97173 3.28819,-2.18445 7.10353,-3.99128 8.47853,-4.01518 4.68454,-0.0814 10.89314,-2.55048 14.54649,-5.78492 2.00546,-1.77549 4.06296,-3.22817 4.57224,-3.22817 1.72685,0 9.92056,-8.28053 11.51176,-11.6337503 2.01848,-4.25362 7.55411,-7.78771996 10.88776,-6.95102996 3.66907,0.92087996 6.04818,5.04617996 4.66321,8.08585996 -0.97473,2.1393103 -0.76059,2.6624203 1.85133,4.5222703 1.64547,1.17168 3.48778,1.77295 4.1598,1.35762 0.66343,-0.41002 5.40438,-0.65771 10.53546,-0.55042 7.61651,0.15927 10.74166,-0.26624 17.02284,-2.31774 4.2315,-1.3820403 8.70195,-2.5128103 9.93435,-2.5128103 1.23239,0 4.52404,-0.9 7.31476,-2 9.24046,-3.64225 15,-1.85248 15,4.6612303 0,1.89343 0.69185,2.30321 4.75,2.81347 2.6125,0.32848 7.45,1.10264 10.75,1.72035 3.53007,0.66078 12.99814,0.9742 23,0.76138 26.55143,-0.56498 57.3744,0.13867 59.25,1.35259 0.6875,0.44496 1.25,2.59658 1.25,4.78138 0,2.87727 0.4824,4.14553 1.75,4.60047 0.9625,0.34546 4.7806,2.80634 8.4847,5.46862 3.7041,2.66228 7.58982,4.84051 8.63502,4.84051 1.0451,0 2.5756,1.03073 3.4011,2.29051 1.5845,2.41835 18.4654,10.10575 24.7292,11.26151 1.925,0.35518 5.525,1.26869 8,2.03 4.8031,1.47744 21.9517,3.41798 30.2047,3.41798 4.296,0 5.3978,0.43349 7.8941,3.10576 4.2254,4.52327 4.083,9.91494 -0.3488,13.20577 -6.0887,4.52123 -17.0504,5.98045 -21.5956,2.87481 -2.4713,-1.68856 -5.4539,-2.71942 -14.9044,-5.15133 -2.0625,-0.53075 -4.7683,-1.23791 -6.0129,-1.57147 -1.2445,-0.33357 -11.2099,-0.68682 -22.1452,-0.78501 -16.44412,-0.14766 -20.20302,-0.45042 -21.73712,-1.75084 -1.0201,-0.86478 -3.8798,-2.18333 -6.3548,-2.93013 -2.475,-0.7468 -4.95,-1.68049 -5.5,-2.07488 -0.55,-0.39439 -3.25,-0.95975 -6,-1.25635 -6.2796,-0.6773 -25.84659,-4.30015 -28.79248,-5.33097 -2.96617,-1.03791 -7.78983,-1.20804 -45.70752,-1.61212 -24.38567,-0.25987 -33.74836,-0.0219 -37.5,0.95334 -2.75,0.71483 -8.49361,1.30502 -12.76357,1.31155 -4.26996,0.006 -8.54496,0.42197 -9.5,0.92321 -2.76102,1.44909 -10.40817,3.85495 -14.38595,4.52595 -2.00723,0.3386 -4.17583,1.2498 -4.8191,2.02489 -0.64326,0.7751 -2.58621,1.72041 -4.31765,2.1007 -1.73145,0.38029 -3.83785,1.02927 -4.68091,1.44219 -5.20568,2.54969 -9.43236,3.99493 -11.68338,3.99493 -2.0616,0 -2.48059,0.39048 -2.07661,1.93531 0.27835,1.06442 -0.14468,2.86442 -0.94007,4 -1.38119,1.97191 -1.28412,2.06469 2.1602,2.06469 10.5951,0 14.6979,10.85327 4.74489,12.55182 -5.65619,0.96527 -10.3388,2.44009 -14.43597,4.54673 -2.03396,1.0458 -4.2187,1.90145 -4.85497,1.90145 -0.63627,0 -3.15718,1.35 -5.60202,2.999995 -2.44483,1.65 -4.78432,3 -5.19886,3 -1.64009,0 -7.03442,6.56255 -6.33052,7.70149 1.07232,1.73505 10.03066,3.50029 14.19391,2.79692 4.14562,-0.7004 5.80574,0.7283 7.84978,6.75551 1.80023,5.30829 0.72885,7.45766 -5.12504,10.28167 -6.46306,3.11789 -9.40708,3.10939 -12.32174,-0.0356 -3.33742,-3.60113 -4.02432,-3.38254 -9.20185,2.92832 -0.82923,1.01076 -2.97061,1.58597 -6,1.61172 l -4.71057,0.04 2.75,1.49189 c 3.11003,1.68722 3.59299,4.77948 1.26547,8.10248 -1.17594,1.67889 -2.99479,2.27324 -8.75,2.85927 -6.06187,0.61725 -6.89273,0.90813 -5.01547,1.75586 2.80695,1.26756 2.99492,5.24139 0.31574,6.67524 -1.06384,0.56935 -4.55134,1.04949 -7.75,1.06698 -5.69883,0.0312 -10.61696,2.04597 -8.37558,3.43122 0.58291,0.36026 1.05984,1.70218 1.05984,2.98206 0,1.66357 -0.96971,2.78719 -3.40113,3.94098 -1.87062,0.88767 -4.02128,1.61394 -4.77924,1.61394 -0.75796,0 -2.03995,0.95514 -2.84887,2.12253 -0.80892,1.16739 -2.12107,2.79806 -2.9159,3.62371 -1.51741,1.57625 -2.72043,12.07692 -1.69097,14.75967 0.53523,1.39478 0.89925,1.37339 3.3681,-0.19796 1.52241,-0.96896 2.99301,-2.049 3.26801,-2.40007 1.11749,-1.42662 5.05097,-1.95097 6.96223,-0.9281 1.29604,0.69362 2.03777,2.09696 2.03777,3.8554 0,3.40729 -1.64102,5.16482 -4.82244,5.16482 -1.99889,0 -2.21277,0.25265 -1.22324,1.44496 2.07573,2.50111 0.85219,5.96399 -2.45432,6.9462 -2.07716,0.61703 -3.56696,2.0851 -4.84309,4.77246 -1.01369,2.13471 -3.10603,4.53439 -4.64963,5.33261 -1.5436,0.79823 -4.31421,3.19379 -6.15691,5.32346 -1.8427,2.12968 -5.26287,5.12628 -7.60037,6.65911 -2.3375,1.53284 -4.25,3.5767 -4.25,4.54192 0,1.07392 -2.22753,3.07653 -5.74009,5.16051 -4.99354,2.96263 -5.81925,3.89253 -6.34871,7.14985 -0.37697,2.31919 -1.79634,4.90551 -3.72923,6.79527 -3.29383,3.22033 -8.17716,12.50029 -8.18894,15.56172 -0.004,0.99656 -1.06749,4.96193 -2.36368,8.81193 -1.29618,3.85 -2.6691,10.25041 -3.05093,14.22312 -0.64136,6.67304 -0.49194,7.56831 1.96199,11.75563 1.73508,2.96068 3.5758,4.7588 5.30791,5.18506 1.45842,0.35891 3.66375,1.30786 4.90073,2.10877 1.98414,1.28467 2.64979,1.26604 5.65113,-0.15819 4.75322,-2.25555 7.28991,-2.01701 9.17694,0.86296 1.52414,2.32613 1.48722,2.75829 -0.60472,7.07965 -2.68352,5.54343 -5.86647,7.37284 -9.47123,5.44363 -2.17385,-1.16342 -2.74328,-1.0915 -4.58989,0.57966 -1.15948,1.04932 -3.8457,4.88295 -5.96937,8.51918 -3.79839,6.50373 -3.86936,6.81307 -4.36054,19.00593 -0.50135,12.44552 0.39657,18.911 3.02827,21.80499 1.77987,1.95726 8.18932,4.05652 12.44036,4.07455 1.9525,0.008 3.9775,0.39261 4.5,0.85406 0.5225,0.46146 3.425,1.36287 6.45,2.00314 17.17131,3.63451 22.51797,4.30254 34.80705,4.34893 12.85413,0.0485 13.51785,-0.0534 19.5,-2.9939 3.40612,-1.67428 7.99295,-3.33839 10.19295,-3.69801 2.2,-0.35962 6.025,-1.2441 8.5,-1.9655 2.475,-0.72139 8.775,-2.5264 14,-4.01111 5.225,-1.48472 9.95,-3.07063 10.5,-3.52426 0.55,-0.45363 4.825,-1.75351 9.5,-2.88861 4.675,-1.13511 11.06688,-2.97086 14.20417,-4.07943 4.217,-1.4901 6.3516,-1.76945 8.18742,-1.07147 1.36579,0.51927 6.67391,0.91358 11.79583,0.87624 5.12192,-0.0373 14.44967,0.395 20.72835,0.96077 6.66221,0.60032 12.37216,0.66504 13.71258,0.15541 1.39349,-0.5298 3.47334,-0.46311 5.28825,0.16957 3.26468,1.13807 5.59663,-0.28475 7.98297,-4.87077 0.91486,-1.75814 2.03752,-2.25 5.13561,-2.25 4.58238,0 7.71815,2.51663 8.5943,6.89741 0.8107,4.05351 4.73818,7.85523 9.41649,9.11497 2.21835,0.59734 6.10753,2.18892 8.64263,3.53684 2.5351,1.34793 5.32976,2.45375 6.21034,2.45737 0.88058,0.004 2.95106,0.90066 4.60106,1.99341 1.65,1.09275 4.03091,1.98979 5.2909,1.99341 3.39514,0.01 15.23177,4.02164 18.93715,6.4185 3.94269,2.55037 4.25691,3.28132 3.58002,8.32789 -0.49591,3.69735 -0.90812,4.14088 -5.69068,6.12314 -6.737,2.79233 -7.89675,2.70869 -11.96461,-0.86294 -1.87924,-1.65 -3.6751,-3 -3.99079,-3 -0.31569,0 -2.86358,-1.35 -5.66199,-3 -2.79841,-1.65 -6.22279,-3 -7.60975,-3 -1.38695,0 -3.50465,-0.53697 -4.70599,-1.19326 -1.27633,-0.69726 -5.6053,-1.12417 -10.41448,-1.02706 -9.36751,0.18917 -16.61482,-2.14073 -17.74611,-5.70511 -0.36215,-1.14096 -1.2361,-2.07452 -1.94212,-2.07452 -0.70602,0 -3.26319,-1.04679 -5.68261,-2.32619 -8.8071,-4.65727 -24.3051,-7.059 -43.39894,-6.72557 -7.09666,0.12393 -17.87271,2.37158 -24,5.00589 -6.72391,2.89081 -11.43915,4.13107 -18.95033,4.98454 -4.6579,0.52927 -9.49958,1.63244 -10.75929,2.45149 -1.25971,0.81904 -5.59946,2.23799 -9.6439,3.15321 -4.19296,0.94882 -9.19802,2.90887 -11.64503,4.56033 -2.36032,1.59296 -4.87166,2.8963 -5.58075,2.8963 -0.70909,0 -3.11883,0.83303 -5.35498,1.85117 -3.8778,1.7656 -16.09627,4.18161 -20.83428,4.11965 -4.63611,-0.0606 -26.73358,4.52276 -26.41487,5.4789 0.18287,0.54861 2.40113,1.63988 4.92946,2.42506 4.10372,1.27442 4.97034,1.25043 8.0766,-0.22359 3.76609,-1.78712 17.10754,-2.29821 19.55327,-0.74905 0.75675,0.47933 1.43175,2.59522 1.5,4.70196 0.1127,3.47861 -0.24332,4.0365 -3.8759,6.07361 -2.2,1.23374 -5.125,2.88895 -6.5,3.67824 -1.375,0.78929 -3.4,1.56393 -4.5,1.72143 -2.82799,0.40491 -10.37973,-1.07376 -11.05378,-2.16439 -0.31034,-0.50215 -1.88287,-0.91299 -3.49451,-0.91299 -1.61164,0 -5.25317,-0.88264 -8.09228,-1.96142 -2.83912,-1.07877 -7.23145,-2.26129 -9.76073,-2.62782 -6.6873,-0.96906 -7.93531,-1.89714 -8.28851,-6.16373 l -0.31019,-3.74703 -7.95355,-0.16571 c -4.37445,-0.0911 -9.23585,-0.42217 -10.80312,-0.73562 -2.59146,-0.5183 -2.18806,0.15858 4.45354,7.47258 l 7.30313,8.04251 5.33062,-0.63891 c 4.16964,-0.49976 5.72193,-0.28477 7.12733,0.9871 0.9882,0.8943 3.08942,1.84536 4.66939,2.11346 3.22802,0.54775 6.37266,3.72882 6.37266,6.44648 0,2.15986 -5.44663,6.97811 -7.88816,6.97811 -0.9541,0 -2.70075,0.9 -3.88147,2 -2.52423,2.35168 -4.5999,2.38506 -8.81576,0.14176 z M 518.87638,279.95939 c 1.5125,-0.66451 2.75,-1.65871 2.75,-2.20933 0,-1.44868 -6.29128,2.28076 -6.75894,4.00667 -0.24047,0.88747 -0.0723,1.05505 0.43281,0.43123 0.45437,-0.5612 2.06363,-1.56405 3.57613,-2.22857 z"
     id="path2987"
     inkscape:connector-curvature="0" />
</svg>
