<?xml version="1.0" encoding="UTF-8" standalone="no"?>
<!-- Created with Inkscape (http://www.inkscape.org/) -->

<svg
   xmlns:dc="http://purl.org/dc/elements/1.1/"
   xmlns:cc="http://creativecommons.org/ns#"
   xmlns:rdf="http://www.w3.org/1999/02/22-rdf-syntax-ns#"
   xmlns:svg="http://www.w3.org/2000/svg"
   xmlns="http://www.w3.org/2000/svg"
   xmlns:sodipodi="http://sodipodi.sourceforge.net/DTD/sodipodi-0.dtd"
   xmlns:inkscape="http://www.inkscape.org/namespaces/inkscape"
   id="svg2"
   version="1.1"
   inkscape:version="0.48.2 r9819"
   width="923.62439"
   height="687.9527"
   sodipodi:docname="quailb.png">
  <metadata
     id="metadata8">
    <rdf:RDF>
      <cc:Work
         rdf:about="">
        <dc:format>image/svg+xml</dc:format>
        <dc:type
           rdf:resource="http://purl.org/dc/dcmitype/StillImage" />
        <dc:title></dc:title>
      </cc:Work>
    </rdf:RDF>
  </metadata>
  <defs
     id="defs6" />
  <sodipodi:namedview
     pagecolor="#ffffff"
     bordercolor="#666666"
     borderopacity="1"
     objecttolerance="10"
     gridtolerance="10"
     guidetolerance="10"
     inkscape:pageopacity="0"
     inkscape:pageshadow="2"
     inkscape:window-width="1600"
     inkscape:window-height="876"
     id="namedview4"
     showgrid="false"
     fit-margin-top="0"
     fit-margin-left="0"
     fit-margin-right="0"
     fit-margin-bottom="0"
     inkscape:zoom="1"
     inkscape:cx="352.70914"
     inkscape:cy="411.0133"
     inkscape:window-x="0"
     inkscape:window-y="24"
     inkscape:window-maximized="1"
     inkscape:current-layer="svg2" />
  <path
     style="fill:#000000"
     d="m 493.34754,686.43938 c -0.3166,-0.825 -1.3772,-1.50251 -2.357,-1.50558 -3.8122,-0.0119 -9.0555,-2.11436 -12.1392,-4.86746 -9.9418,-8.87605 -13.3078,-12.58098 -15.6454,-17.22084 -2.2685,-4.50258 -11.65403,-17.00095 -18.04753,-24.0331 -2.81376,-3.09484 -5.14549,-6.24484 -5.18161,-7 -0.0361,-0.75516 -0.1738,-2.72302 -0.30594,-4.37302 -0.13215,-1.65 0.0962,-4.2375 0.50741,-5.75 0.41123,-1.5125 0.45509,-2.75 0.0975,-2.75 -1.0257,0 -4.1873,3.29194 -5.39546,5.6179 -0.60506,1.16484 -2.45408,2.38869 -4.10895,2.71966 -2.13217,0.42644 -3.19389,1.33903 -3.64392,3.13211 -0.79264,3.1581 -1.44608,3.16066 -4.83602,0.019 -2.05119,-1.90098 -2.54004,-3.05546 -2.01132,-4.75 1.64349,-5.26741 7.80051,-11.62106 14.94516,-15.42245 7.48012,-3.97989 8.77208,-7.01562 5.75412,-13.52056 -1.09612,-2.3626 -3.74283,-8.90346 -5.88157,-14.53525 -2.34233,-6.16787 -4.55066,-10.45862 -5.55349,-10.79036 -1.73919,-0.57534 -6.36308,-13.80678 -5.38053,-15.39659 0.68541,-1.109 -2.20563,-8.07343 -3.3514,-8.07343 -0.47847,0 -1.14495,-0.7875 -1.48107,-1.75 -1.27493,-3.65088 -11.41076,-18.74781 -13.71447,-20.42718 -2.33995,-1.70579 -4.90523,-2.43478 -17.40767,-4.94687 -7.23817,-1.45435 -37.04364,-13.12831 -49.80119,-19.50572 -5.05935,-2.52912 -14.71754,-8.20228 -21.46266,-12.607 -12.13123,-7.92199 -12.32047,-8.0029 -17.5,-7.48188 -2.87988,0.2897 -8.38615,1.23709 -12.23615,2.10532 -8.17747,1.84414 -22.65839,2.06966 -34,0.52951 -8.51419,-1.1562 -7.69242,-1.27301 -42.5,6.0409 -9.15101,1.92285 -18.21915,2.74292 -56,5.06431 -22.08318,1.35688 -32.66101,2.83661 -57.01255,7.9755 -38.24724,8.07128 -57.66334,14.15974 -76.8251,24.09065 -7.3357,3.80185 -13.9890398,6.91246 -14.7851798,6.91246 -2.80507,0 0.32209,-3.42953 6.2831398,-6.89068 3.21183,-1.86488 8.00709,-4.67738 10.65614,-6.25 2.649,-1.57266 5.4064,-2.85935 6.12751,-2.85935 0.72111,0 1.87131,-0.675 2.556,-1.5 1.00734,-1.21377 0.97346,-1.5 -0.17756,-1.5 -0.78234,0 -1.84994,0.4052 -2.37244,0.90044 -2.11852,2.00801 -28.0803798,11.80252 -28.95802983,10.92486 -0.30707,-0.30706 -0.25678,-2.44392 0.11175,-4.74857 0.77354003,-4.83745 6.04233003,-11.79161 12.00694983,-15.8477 5.9198,-4.0256 29.49318,-18.63512 32.88933,-20.38303 3.81096,-1.96142 23.11942,-14.19372 34.76883,-22.02676 4.91395,-3.30413 15.9414,-10.05835 24.50545,-15.00937 17.65656,-10.20755 22.57912,-13.68403 33.33223,-23.54034 4.18357,-3.83467 10.25857,-8.6896 13.5,-10.78872 7.13691,-4.62183 41.1754,-38.64722 69.76197,-69.73515 12.49814,-13.59173 22.62591,-23.72441 25.25,-25.26223 2.40984,-1.41226 4.38152,-2.97163 4.38152,-3.46527 0,-4.54294 58.95473,-51.62644 92,-73.47471 26.07696,-17.24109 80.04426,-41.93867 117.678,-53.85412 6.1479,-1.94653 21.2229,-7.13911 33.5,-11.53908 12.2771,-4.39996 26.147,-9.14663 30.822,-10.54815 12.7007,-3.80755 43.8321,-10.50092 56.419,-12.1303 28.1961,-3.64999 31.5324,-5.08304 39.2502,-16.85924 2.8431,-4.33809 8.0171,-11.06824 11.4978,-14.95589 3.4807,-3.88764 8.9708,-10.23829 12.2002,-14.11256 7.6566,-9.185553 29.9523,-30.593253 38.9232,-37.373003 9.2806,-7.0137 31.4475,-18.03016 45.2096,-22.46811 24.6073,-7.93526 55.6942,-13.87676 61.6827,-11.78914 2.2543,0.78583 4.144,0.76893 6.9169,-0.0619 3.0757,-0.92148 5.1322,-0.82356 10.6079,0.50507 3.7359,0.90649 7.5232,1.64698 8.4163,1.64554 0.8932,-10e-4 4.2748,-2.36511 7.5148,-5.25261 19.1935,-17.10527 32.3531,-25.9111303 45.965,-30.7578503 8.4696,-3.01574 9.474,-3.14966 20.936,-2.79151 10.2843,0.32135 12.5629,0.6996 15.6288,2.59439 5.6738,3.50665 11.7803,10.8152803 15.0365,17.9966803 2.5813,5.69274 2.943,7.52209 2.6024,13.16006 -0.5245,8.67982 -2.2124,11.76218 -8.9936,16.42317 l -5.67,3.89725 -7.7605,-4.61839 c -4.2683,-2.54011 -9.9125,-5.33317 -12.5428,-6.2068 -3.0288,-1.00603 -6.6219,-3.38974 -9.7998,-6.50147 -14.1716,-13.87648 -29.0383,-14.64025 -43.5663,-2.23818 -9.0308,7.70923 -12.4743,12.88054 -12.4743,18.73335 0,3.76555 1.5804,7.73602 8.884,22.31982 8.6625,17.29723 12.5653,22.93101 23.3542,33.712303 3.608,3.60553 8.7618,14.18142 8.7618,17.97991 l 0,2.75904 -7.75,-0.58986 c -4.2625,-0.32443 -9.898,-0.86823 -12.5233,-1.20844 -2.6254,-0.34021 -5.9236,-0.32987 -7.3295,0.023 -1.4059,0.35285 -7.6235,5.4615 -13.8167,11.35255 -6.1933,5.89104 -14.4137,13.63599 -18.2676,17.21099 -3.8538,3.575 -9.1008,9.362 -11.6599,12.86001 -4.1601,5.68627 -4.653,6.92473 -4.653,11.69098 0,2.93204 0.4147,5.58727 0.9215,5.90051 0.5069,0.31325 1.2198,3.60231 1.5842,7.30902 0.3645,3.70671 1.5248,11.86027 2.5785,18.11901 2.161,12.83598 2.4255,27.16059 0.8709,47.17058 -1.3285,17.09845 -5.3807,43.56659 -8.0427,52.53242 -1.1296,3.80461 -2.5319,8.71747 -3.1163,10.91747 -2.8134,10.59138 -17.7335,44.73998 -27.6795,63.3519 -3.9141,7.32442 -7.1166,13.69771 -7.1166,14.16285 0,2.18228 -6.3613,14.22846 -9.4934,17.97734 -1.9286,2.30842 -3.5066,4.86301 -3.5066,5.67688 0,2.48591 -16.8967,19.90053 -21.114,21.7612 -2.1304,0.93993 -6.2148,4.40525 -9.094,7.71551 -7.6228,8.76409 -27.6181,21.78168 -41.1915,26.81702 -26.2376,9.73337 -62.0435,26.49681 -68.2329,31.94491 -5.7453,5.05725 -10.6365,6.82162 -13.968,5.03863 -2.092,-1.11959 -3.0737,-0.93221 -7.8944,1.5068 -4.3521,2.20197 -5.5052,3.28409 -5.5052,5.16618 0,1.39039 -0.5909,2.38077 -1.4205,2.38077 -1.899,0 -2.6651,4.14205 -2.1865,11.8222 0.3025,4.85292 0.9241,6.88642 2.6748,8.75 l 2.2808,2.4278 -2.2813,0 c -1.7747,0 -2.1246,0.38856 -1.5758,1.75 0.3881,0.9625 0.9207,3.55 1.1837,5.75 0.263,2.2 0.888,4.9 1.3888,6 0.5009,1.1 1.5378,4.475 2.3044,7.5 2.8818,11.37201 8.9084,22.08423 13.4176,23.84986 9.8687,3.86424 13.7246,4.30531 22.883,2.61753 4.8571,-0.89509 14.1282,-3.39143 20.6026,-5.54741 12.9082,-4.29849 20.6791,-5.04366 24.5226,-2.35156 2.6686,1.86915 2.0412,3.43158 -1.378,3.43158 -1.6823,0 -2.7555,0.76223 -3.3778,2.39909 -1.1529,3.03239 -4.769,5.60091 -7.8853,5.60091 -2.7557,0 -27.3559,4.86945 -28.036,5.54957 -0.8967,0.89672 0.5278,1.27143 8.8829,2.33658 4.675,0.596 12.325,1.77507 17,2.62015 4.675,0.84509 16.375,1.98614 26,2.53567 9.625,0.54954 18.5509,1.53649 19.8353,2.19323 2.7761,1.41947 5.7172,6.61235 4.4581,7.87145 -0.5025,0.50245 -2.2604,0.35463 -4.1171,-0.34622 -2.8679,-1.08249 -3.7581,-0.94834 -7.746,1.16723 -4.4841,2.37878 -4.5693,2.38429 -17.718,1.14544 -32.0187,-3.01675 -41.0559,-4.11471 -50.3347,-6.11533 -14.5015,-3.12663 -18.3776,-3.50973 -18.3776,-1.81632 0,1.45489 11.2438,12.85663 12.6829,12.86116 0.4494,10e-4 3.4918,1.61534 6.7608,3.5865 3.269,1.97115 8.3043,4.46717 11.1896,5.5467 7.6556,2.86431 14.8873,11.86423 9.5334,11.86423 -1.0084,0 -2.1526,-0.31928 -2.5429,-0.70952 -0.3902,-0.39024 -3.7277,-0.7307 -7.4167,-0.75658 -5.778,-0.0405 -7.7874,-0.59462 -14.506,-4.00011 -4.2894,-2.17418 -10.8584,-6.67122 -14.5977,-9.99342 -7.8692,-6.99143 -17.3942,-13.96416 -23.9606,-17.54037 -5.4723,-2.98031 -9.0882,-8.70542 -9.1582,-14.5 -0.046,-3.79855 -0.1253,-3.89927 -1.5785,-2 -0.8417,1.1 -1.7956,3.29761 -2.1199,4.88358 -0.3557,1.73933 -1.7174,3.52501 -3.4316,4.5 -2.0791,1.18256 -2.8437,2.38363 -2.8483,4.47483 -0.01,2.61663 -0.2384,2.80014 -2.7507,2.1696 -3.8878,-0.97576 -5.2557,-2.38163 -5.2548,-5.40045 0.001,-4.31153 5.4438,-14.31598 10.3828,-19.08577 2.8166,-2.72005 4.6164,-5.34095 4.6164,-6.72237 0,-1.85923 -6.6349,-29.34521 -8.5861,-35.56942 -0.3018,-0.9625 -1.091,-1.75 -1.7539,-1.75 -1.4874,0 -3.7478,-8.18415 -3.6525,-13.22426 0.095,-5.02121 -2.2536,-9.22084 -6.032,-10.78591 -2.6549,-1.09967 -3.6289,-1.04865 -6.5472,0.34297 -1.8856,0.89916 -3.4283,1.19212 -3.4283,0.65102 0,-1.43645 -3.2305,-1.20328 -7.3863,0.53312 -1.9968,0.83431 -4.6445,1.26245 -5.8837,0.95142 -1.2393,-0.31103 -4.048,0.1907 -6.2416,1.11497 -6.457,2.72063 -38.7633,4.6193 -56.4884,3.31987 l -5.5,-0.4032 -0.16156,6 c -0.19058,7.07791 1.3849,13.10816 7.29927,27.93844 2.39926,6.01614 4.36229,11.67855 4.36229,12.58313 0,0.90457 1.81008,5.08032 4.0224,9.27943 2.8822,5.47063 4.1658,9.27373 4.5282,13.41687 0.5485,6.26984 3.2954,16.17499 4.9314,17.78213 1.8476,1.81501 12.467,8.5 13.5026,8.5 0.5585,0 1.0156,0.3375 1.016,0.75 3e-4,0.4125 2.5878,0.81386 5.75,0.89192 8.7421,0.21578 25.1424,0.27428 30.7579,0.1097 6.3517,-0.18616 14.4781,2.02854 16.7207,4.55694 2.1432,2.41622 1.2992,4.04086 -1.7072,3.28631 -1.5653,-0.39286 -3.0843,0.19692 -4.9424,1.91898 -2.3587,2.18592 -4.3906,2.97056 -6.7841,2.61972 -16.3068,-2.39017 -30.7955,-3.40534 -30.7955,-2.15772 0,0.47588 1.35,1.16175 3,1.52415 1.65,0.3624 3,1.0374 3,1.5 0,0.4626 1.4506,1.15969 3.2235,1.54909 1.7729,0.3894 4.914,1.77515 6.9801,3.07945 2.0662,1.3043 4.4406,2.37146 5.2765,2.37146 0.836,0 1.5199,0.45 1.5199,1 0,0.55 0.5132,1 1.1405,1 0.6272,0 3.2147,0.95619 5.75,2.12486 9.6549,4.45065 12.8111,5.67049 19.3595,7.48244 3.7125,1.02725 6.75,2.15236 6.75,2.50025 0,0.34789 2.1375,1.22327 4.75,1.94528 5.0483,1.39518 7.3523,3.66429 8.3888,8.26179 0.7815,3.46607 -1.729,4.96631 -3.7304,2.22924 -1.307,-1.78747 -8.1295,-2.45228 -10.4498,-1.01827 -1.3155,0.81299 -10.9586,-1.42729 -10.9586,-2.54588 0,-0.45144 -1.4625,-1.12573 -3.25,-1.49842 -1.7875,-0.37268 -4.2207,-1.29144 -5.4072,-2.04168 -1.1864,-0.75023 -4.2239,-1.88448 -6.75,-2.52055 -2.526,-0.63607 -4.5928,-1.50818 -4.5928,-1.93803 0,-0.42985 -2.25,-1.32132 -5,-1.98103 -2.75,-0.65971 -5,-1.55581 -5,-1.99133 0,-0.43552 -1.2375,-1.08956 -2.75,-1.45343 -2.6984,-0.64915 -19.268,-8.49752 -20.25,-9.59158 -0.6987,-0.77847 -13.3703,-6.96366 -14.2665,-6.96366 -1.5926,0 -0.57,3.46736 2.7998,9.49309 2.556,4.57072 3.1783,6.46063 2.25,6.83354 -0.7058,0.28351 -0.2645,0.551 0.9808,0.59442 2.074,0.0723 12.1669,9.43204 12.2164,11.32895 0.011,0.4125 0.6945,0.75 1.5195,0.75 0.825,0 1.5013,0.3375 1.5029,0.75 0,0.4125 1.3104,1.62602 2.9086,2.69671 3.0742,2.05958 6.0885,7.30114 6.0885,10.58722 0,2.35586 -3.4932,2.72913 -4.3616,0.46607 z"
     id="path2987"
     inkscape:connector-curvature="0" />
</svg>
