<?xml version="1.0" encoding="UTF-8" standalone="no"?>
<!-- Created with Inkscape (http://www.inkscape.org/) -->

<svg
   xmlns:dc="http://purl.org/dc/elements/1.1/"
   xmlns:cc="http://creativecommons.org/ns#"
   xmlns:rdf="http://www.w3.org/1999/02/22-rdf-syntax-ns#"
   xmlns:svg="http://www.w3.org/2000/svg"
   xmlns="http://www.w3.org/2000/svg"
   xmlns:sodipodi="http://sodipodi.sourceforge.net/DTD/sodipodi-0.dtd"
   xmlns:inkscape="http://www.inkscape.org/namespaces/inkscape"
   id="svg2"
   version="1.1"
   inkscape:version="0.48.2 r9819"
   width="469.39642"
   height="452.34976"
   sodipodi:docname="Zeichnungc.png">
  <metadata
     id="metadata8">
    <rdf:RDF>
      <cc:Work
         rdf:about="">
        <dc:format>image/svg+xml</dc:format>
        <dc:type
           rdf:resource="http://purl.org/dc/dcmitype/StillImage" />
        <dc:title></dc:title>
      </cc:Work>
    </rdf:RDF>
  </metadata>
  <defs
     id="defs6" />
  <sodipodi:namedview
     pagecolor="#ffffff"
     bordercolor="#666666"
     borderopacity="1"
     objecttolerance="10"
     gridtolerance="10"
     guidetolerance="10"
     inkscape:pageopacity="0"
     inkscape:pageshadow="2"
     inkscape:window-width="1600"
     inkscape:window-height="876"
     id="namedview4"
     showgrid="false"
     fit-margin-top="0"
     fit-margin-left="0"
     fit-margin-right="0"
     fit-margin-bottom="0"
     inkscape:zoom="1"
     inkscape:cx="248.73666"
     inkscape:cy="200.91597"
     inkscape:window-x="0"
     inkscape:window-y="24"
     inkscape:window-maximized="1"
     inkscape:current-layer="svg2" />
  <path
     style="fill:#000000"
     d="m 58.701943,450.36891 c -0.86265,-1.61189 -0.651,-3.40946 0.96482,-8.19417 2.37676,-7.03795 2.6252,-11.03522 0.781,-12.56577 -1.78094,-1.47804 -9.70906,0.48544 -11.87139,2.94008 -3.13278,3.55626 -6.60416,2.24402 -10.88647,-4.11527 -3.87331,-5.75192 -5.41227,-6.28141 -7.15296,-2.46101 -1.62389,3.56404 -4.0379,2.66779 -5.34297,-1.98369 -1.6139,-5.75217 -3.34366,-6.41878 -9.35268,-3.6043 -4.2895,2.00909 -5.26956,2.15701 -6.6578198,1.00486 -1.29634,-1.07587 -1.4954,-2.41138 -0.97739,-6.55737 0.76394,-6.11437 -0.15763,-7.1282 -4.45802,-4.90439 -2.68421,1.38806 -3.11562999,1.39785 -3.62052999,0.0821 -0.31526,-0.82155 -0.0256,-3.153 0.64372,-5.18101 1.28980999,-3.90818 10.14743979,-17.46309 15.35573979,-23.49903 3.94932,-4.57691 16.67497,-15.59009 22.82148,-19.75044 2.59149,-1.75409 6.19149,-5.07937 8,-7.3895 1.8085,-2.31014 5.98819,-6.92327 9.28819,-10.25141 4.96041,-5.00271 7.59941,-6.71078 15.23098,-9.85813 9.08801,-3.748 17.86862,-10.16149 20.40796,-14.9063 0.84853,-1.5855 0.1067,-1.32292 -3.42215,1.21131 -7.00894,5.03344 -8.18484,4.20559 -8.00134,-5.63309 0.23787,-12.75378 6.90726,-36.07592 15.85884,-55.45661 11.385047,-24.6493 22.202167,-42.85591 35.077417,-59.03978 3.64146,-4.57722 7.63439,-9.92139 8.87319,-11.87592 1.23879,-1.95454 5.91578,-7.96109 10.39331,-13.3479 4.47753,-5.38681 10.9309,-13.46265 14.34082,-17.9463 6.92213,-9.10181 12.69728,-14.93571 36.93309,-37.30888 9.18066,-8.47508 18.05512,-17.13018 19.72101,-19.23354 1.66589,-2.10336 6.75286,-6.701 11.30437,-10.21699 12.34592,-9.53705 32.03761,-29.4396 35.06465,-35.44013 3.56952,-7.07587 9.70384,-13.98227 20.52276,-23.10579 5.1177,-4.31572 12.0927,-10.24431 15.5,-13.17463 9.39172,-8.077007 17.83607,-12.5425228 29.69509,-15.7032718 9.24078,-2.46291698 12.35885,-2.80874598 26,-2.88369998 15.27379,-0.08392 15.63865,-0.03475 25,3.36968598 12.1833,4.430687 19.67123,8.6861478 27.90151,15.8566858 7.69351,6.70289 11.54599,9.55567 19.09849,14.14253 4.95003,3.00631 6.54994,3.41588 16,4.09597 11.40517,0.82079 20.64013,2.55866 21.56713,4.05857 0.95298,1.54196 -5.61291,6.98943 -12.10257,10.04106 -3.3195,1.56092 -9.98187,3.80241 -14.80528,4.98109 -4.82341,1.17869 -10.19162,3.1012 -11.92936,4.27227 -4.06348,2.73837 -16.87679,22.02719 -20.66419,31.10732 -5.87303,14.08033 -6.54581,18.13567 -5.09902,30.73545 1.77249,15.43622 0.87887,58.42829 -1.4187,68.2542 -0.90024,3.85 -2.0337,10.65976 -2.5188,15.13279 -2.11881,19.53736 -18.53185,58.10002 -33.14184,77.86721 -4.47158,6.05 -10.96267,15.275 -14.42464,20.5 -3.46198,5.225 -9.38574,12.425 -13.16391,16 -3.77817,3.575 -8.28077,9.01823 -10.00579,12.09607 -1.72501,3.07784 -5.22272,7.43253 -7.77268,9.6771 -6.14433,5.40846 -23.82446,15.65152 -29.70332,17.20876 -4.48566,1.18819 -4.64142,1.34977 -3.69664,3.83472 0.54249,1.42685 3.54983,5.75539 6.68297,9.61897 5.0611,6.241 10.60758,13.45467 22.19664,28.8686 2.61323,3.4757 4.51345,4.91793 7.5,5.69232 2.2,0.57044 6.475,2.02785 9.5,3.23867 4.69905,1.88091 7.14638,2.1684 16.80544,1.97417 11.63442,-0.23396 22.48972,1.4831 26.315,4.16243 1.88697,1.32168 1.87185,1.40322 -0.55513,2.99344 -3.13477,2.05398 -5.44633,2.0522 -12.7954,-0.01 -4.82922,-1.35501 -6.55759,-1.43598 -9.81561,-0.45986 -2.17486,0.65161 -3.95089,1.72918 -3.94672,2.3946 0.004,0.66542 3.70697,2.2405 8.22845,3.50017 4.52149,1.25967 9.24308,3.25061 10.49243,4.42432 3.60506,3.38678 2.7888,9.46845 -0.83113,6.19245 -1.71265,-1.54993 -3.11893,-1.47824 -11.39733,0.58101 -2.86158,0.71182 -4.59974,-0.429 -7.27291,-4.77344 -2.23196,-3.6274 -4.45011,-5.58786 -9.16665,-8.10175 l -6.2222,-3.3164 -1.95807,2.10175 c -1.07695,1.15612 -2.57342,2.10191 -3.32551,2.10191 -0.87166,0 -1.17922,0.71968 -0.84832,1.98506 0.28551,1.09178 0.234,2.72803 -0.11447,3.63612 -0.58403,1.52197 -0.78314,1.5157 -2.54654,-0.0802 -1.66891,-1.51034 -2.52745,-1.58313 -6.72915,-0.57055 -6.8627,1.65388 -8.54191,1.43977 -10.57272,-1.34809 -1.54651,-2.12301 -2.22164,-2.34563 -4.83794,-1.59528 -3.62123,1.03859 -7.90552,-0.31752 -7.90552,-2.50231 0,-0.83861 -0.68111,-1.52475 -1.51357,-1.52475 -0.83246,0 -2.37412,-0.53742 -3.42591,-1.19427 -2.53237,-1.5815 -6.67111,0.24551 -8.2107,3.62453 -0.6164,1.35284 -1.81002,2.72422 -2.65249,3.04751 -2.9376,1.12726 -3.43353,-1.15538 -1.29926,-5.98024 2.25804,-5.10468 2.05287,-6.49753 -0.95709,-6.49753 -1.06754,0 -1.94098,-0.46897 -1.94098,-1.04215 0,-0.57319 -2.02949,0.1472 -4.50998,1.60087 -9.12679,5.34865 -18.49002,6.34424 -18.49002,1.96603 0,-0.83861 -0.68111,-1.52475 -1.51357,-1.52475 -0.83246,0 -2.37412,-0.53742 -3.42591,-1.19427 -2.53237,-1.5815 -6.67111,0.24551 -8.2107,3.62453 -1.2601,2.76561 -3.72742,4.09214 -5.08544,2.73412 -1.05772,-1.05772 1.17473,-6.86575 4.35657,-11.33424 1.93834,-2.72215 2.59458,-2.9975 6.0418,-2.53514 2.127,0.28529 5.67437,1.46063 7.88305,2.61186 5.01551,2.61422 6.17179,2.61517 8.53214,0.007 1.63393,-1.80548 2.59648,-1.99759 7.15499,-1.42804 4.11471,0.51409 5.26707,0.35814 5.26707,-0.71281 0,-0.75398 -3.4875,-5.01712 -7.75,-9.47365 -4.2625,-4.45653 -11.575,-12.60958 -16.25,-18.11789 l -8.5,-10.01512 -10,0.55094 -10,0.55094 -4.34461,-3.63412 c -2.38954,-1.99875 -4.83259,-3.63411 -5.429,-3.63411 -0.59641,0 -2.56717,1.61883 -4.37947,3.5974 -3.18199,3.47392 -3.46761,3.57368 -8.32101,2.90616 -2.76425,-0.38018 -7.27591,-0.38178 -10.02591,-0.004 -4.41156,0.60674 -5,0.96861 -5,3.07479 0,2.7144 -1.03024,3.06666 -11,3.76114 -7.99487,0.55691 -16.46298,4.23323 -28.67835,12.45031 -10.34598,6.95958 -16.18083,13.79973 -27.93473,32.74768 -8.42704,13.58485 -17.978477,24.46608 -21.476097,24.46608 -1.15623,0 -3.34885,-0.7364 -4.8725,-1.63643 -3.5719,-2.10998 -7.45716,-1.38798 -16.91072,3.14252 -8.43158,4.04072 -12.54258,4.45554 -14.16232,1.42904 z M 316.73666,414.4928 c 0,-0.51754 -0.45403,-1.22159 -1.00895,-1.56455 -1.4137,-0.87372 -5.14366,0.44958 -4.44655,1.57753 0.75163,1.21617 5.4555,1.20498 5.4555,-0.013 z m -7.29412,-8.43157 c 0.39378,-0.39378 -0.45697,-1.70854 -1.89056,-2.9217 -2.5009,-2.11637 -9.72597,-10.27737 -22.28846,-25.17568 -7.45205,-8.83765 -10.87734,-10.843 -15.32584,-8.97255 -1.76056,0.74026 -3.20102,1.87491 -3.20102,2.52144 0,0.80676 -1.55618,1.02597 -4.96089,0.69882 l -4.9609,-0.47668 2.19879,3.09945 c 3.33545,4.70173 11.68315,15.72152 14.46819,19.09945 9.94486,12.06196 9.19718,11.49046 15.19995,11.61831 3.05517,0.0651 6.90486,0.42724 8.55486,0.8048 3.71787,0.85076 11.24172,0.66851 12.20588,-0.29566 z"
     id="path2987"
     inkscape:connector-curvature="0" />
</svg>
