<?xml version="1.0" encoding="UTF-8" standalone="no"?>
<!-- Created with Inkscape (http://www.inkscape.org/) -->

<svg
   xmlns:dc="http://purl.org/dc/elements/1.1/"
   xmlns:cc="http://creativecommons.org/ns#"
   xmlns:rdf="http://www.w3.org/1999/02/22-rdf-syntax-ns#"
   xmlns:svg="http://www.w3.org/2000/svg"
   xmlns="http://www.w3.org/2000/svg"
   xmlns:sodipodi="http://sodipodi.sourceforge.net/DTD/sodipodi-0.dtd"
   xmlns:inkscape="http://www.inkscape.org/namespaces/inkscape"
   id="svg2"
   version="1.1"
   inkscape:version="0.48.2 r9819"
   width="944.98486"
   height="425.60663"
   sodipodi:docname="truetalesofinsec00bade3_0054c.png">
  <metadata
     id="metadata8">
    <rdf:RDF>
      <cc:Work
         rdf:about="">
        <dc:format>image/svg+xml</dc:format>
        <dc:type
           rdf:resource="http://purl.org/dc/dcmitype/StillImage" />
        <dc:title></dc:title>
      </cc:Work>
    </rdf:RDF>
  </metadata>
  <defs
     id="defs6" />
  <sodipodi:namedview
     pagecolor="#ffffff"
     bordercolor="#666666"
     borderopacity="1"
     objecttolerance="10"
     gridtolerance="10"
     guidetolerance="10"
     inkscape:pageopacity="0"
     inkscape:pageshadow="2"
     inkscape:window-width="1920"
     inkscape:window-height="1176"
     id="namedview4"
     showgrid="false"
     fit-margin-top="0"
     fit-margin-left="0"
     fit-margin-right="0"
     fit-margin-bottom="0"
     inkscape:zoom="1"
     inkscape:cx="494"
     inkscape:cy="236.65853"
     inkscape:window-x="0"
     inkscape:window-y="24"
     inkscape:window-maximized="1"
     inkscape:current-layer="svg2" />
  <path
     style="fill:#000000"
     d="m 935,424.94809 c 0,-0.61492 -0.4211,-0.85777 -0.9358,-0.53966 -0.5147,0.3181 -1.2421,-1.46388 -1.6164,-3.95996 -0.756,-5.04164 -4.0448,-8.50038 -8.0827,-8.50038 -1.3008,0 -2.3651,-0.35298 -2.3651,-0.78439 0,-1.42382 -5.9897,-4.35356 -7.7619,-3.79663 -1.0745,0.33766 -3.4144,-0.78342 -6.1288,-2.9364 -2.4149,-1.91542 -5.0205,-3.48258 -5.7901,-3.48258 -0.7696,0 -3.1157,-1.6875 -5.2135,-3.75 -7.1458,-7.02547 -13.918,-12.25 -15.879,-12.25 -3.2817,0 -6.7541,-3.57214 -10.6154,-10.92014 -2.0245,-3.85268 -4.0493,-7.23255 -4.4996,-7.51082 -0.4502,-0.27826 -2.2283,0.0262 -3.9512,0.67648 -4.8169,1.81817 -5.6591,0.25142 -5.6687,-10.54567 -0.01,-9.78908 -0.4241,-11.0194 -8.5059,-25.19985 -1.5673,-2.75 -3.9237,-7.025 -5.2364,-9.5 -1.3128,-2.475 -3.9729,-6.975 -5.9115,-10 -1.9385,-3.025 -5.5362,-9.55 -7.9949,-14.5 -9.4975,-19.12066 -13.3855,-26.80242 -25.5603,-50.5 -6.9228,-13.475 -12.9316,-24.72873 -13.3528,-25.00829 -1.4352,-0.95256 -13.1885,-24.46203 -16.9937,-33.99171 -4.2425,-10.6246 -6.3585,-15.31821 -8.5657,-19 -0.8243,-1.375 -2.8316,-5.425 -4.4605,-9 -1.629,-3.575 -3.4043,-7.175 -3.9452,-8 -0.5409,-0.825 -2.1873,-4.2 -3.6588,-7.5 -1.4714,-3.3 -6.0881,-12.75 -10.2593,-21 l -7.5841,-15 -4.0212,-0.29723 c -3.0806,-0.22771 -5.883,0.63695 -11.9813,3.69677 -4.3781,2.1967 -9.5101,5.14295 -11.4045,6.54723 -1.8943,1.40428 -3.7813,2.55323 -4.1933,2.55323 -1.5346,0 -22.5943,13.07862 -26.6509,16.55093 -5.6308,4.81977 -5.5775,7.46829 0.2885,14.34049 2.475,2.89954 4.5,5.87949 4.5,6.62212 0,0.74263 1.8255,5.00859 4.0567,9.47992 2.9265,5.86484 3.9713,9.11073 3.75,11.65119 -0.2856,3.27931 -0.6785,3.65201 -5.7124,5.41875 -2.9731,1.04347 -8.134,2.43398 -11.4686,3.09001 -8.6387,1.69957 -9.7897,3.23833 -12.9996,17.37996 -1.4939,6.58165 -3.814,16.01663 -5.1556,20.96663 -1.3416,4.95 -2.8673,11.025 -3.3903,13.5 -0.5231,2.475 -2.8019,11.475 -5.0639,20 -2.2621,8.525 -4.7937,18.5809 -5.626,22.34644 -0.8322,3.76554 -1.9355,7.95734 -2.4517,9.3151 -0.5162,1.35776 -0.9386,6.90904 -0.9386,12.33617 0,8.68841 0.219,9.93701 1.8324,10.4491 1.0078,0.31986 4.3838,2.11793 7.5021,3.99569 7.2136,4.34381 13.5592,5.18067 23.9447,3.15786 4.2786,-0.83335 8.45,-1.25777 9.2699,-0.94316 0.8198,0.31461 3.7026,-0.37956 6.4061,-1.54259 6.198,-2.6663 10.0583,-2.6784 13.4099,-0.042 2.9385,2.31141 3.4055,3.92742 1.1349,3.92742 -0.825,0 -1.5,0.42171 -1.5,0.93713 0,0.51542 -1.4839,0.69632 -3.2976,0.402 -3.4388,-0.55805 -7.0246,0.74607 -14.2024,5.16526 -2.2,1.35449 -5.2969,2.47011 -6.882,2.47916 -1.5851,0.009 -4.285,0.87825 -6,1.93156 -2.8492,1.75001 -10.6778,2.63888 -19.3651,2.19874 C 645.7869,335.937 638,329.43891 638,327.50604 c 0,-3.22099 -8.867,-7.9285 -12.9318,-6.86553 -2.2747,0.59484 -2.6589,-0.72021 -1.075,-3.67966 0.8508,-1.58975 3.7746,-14.52682 8.1391,-36.01276 0.6144,-3.025 1.9254,-7.975 2.9131,-11 0.9878,-3.025 2.111,-7.49997 2.496,-9.94438 0.3851,-2.44441 1.5156,-6.81473 2.5123,-9.71182 0.9968,-2.89708 2.1241,-7.42211 2.5052,-10.05561 0.3811,-2.63351 2.2559,-10.18819 4.1662,-16.78819 3.0821,-10.64818 5.0859,-19.94491 5.6038,-26 0.147,-1.71778 -0.3933,-1.97822 -3.8289,-1.84563 -2.2,0.0849 -7.15,0.65216 -11,1.26058 -3.85,0.60842 -11.5,1.25461 -17,1.43597 -5.5,0.18136 -16.75,0.83935 -25,1.46219 -8.25,0.62283 -18.8522,1.14468 -23.5604,1.15966 -6.5444,0.0208 -9.9591,0.57507 -14.5,2.35352 -10.7135,4.19601 -11.908,4.17431 -18.3337,-0.33304 -6.4842,-4.54837 -14.5364,-6.99325 -23.0322,-6.99325 -4.2023,0 -6.2118,-0.46151 -7.2013,-1.65389 -0.7548,-0.90965 -4.0724,-2.87986 -7.3724,-4.37826 -6.6508,-3.01987 -10.4936,-6.68915 -12.5337,-11.96785 -2.2288,-5.76659 -3.6997,-5.88317 -10.2274,-0.81057 l -3.7612,2.92273 -17.7388,0.0947 c -16.4826,0.088 -29.5736,-0.90151 -41.7389,-3.15488 -2.75,-0.50938 -8.825,-1.44236 -13.5,-2.07328 -4.675,-0.63092 -10.525,-1.76846 -13,-2.52786 -2.475,-0.7594 -8.1,-1.80663 -12.5,-2.32719 -4.4,-0.52056 -9.8,-1.46417 -12,-2.09691 -3.88552,-1.11751 -10.58044,-2.60072 -25,-5.53855 -3.85,-0.78439 -11.725,-1.9405 -17.5,-2.56912 -6.3547,-0.69173 -11.15946,-1.7237 -12.17042,-2.61398 -2.08556,-1.83661 -2.48543,-1.15713 -6.29383,10.69491 -1.50222,4.675 -3.3404,10.075 -4.08486,12 -0.74446,1.925 -2.95685,8.9 -4.91642,15.5 -1.95956,6.6 -4.6634,15.6 -6.00852,20 -1.34513,4.4 -2.96329,10.025 -3.59592,12.5 -0.63264,2.475 -1.5136,5.4 -1.95769,6.5 -0.44409,1.1 -2.64523,8.3 -4.89142,16 -2.24618,7.7 -4.58939,15.5371 -5.20712,17.41577 -1.02821,3.12705 -2.6649,8.84383 -9.47187,33.08423 -1.31279,4.675 -3.45146,11.65 -4.7526,15.5 -1.30113,3.85 -2.94821,9.475 -3.66016,12.5 -0.71196,3.025 -1.65212,6.175 -2.08925,7 -0.43713,0.825 -1.50595,4.90579 -2.37516,9.06842 -2.36703,11.33566 -12.6714,27.99165 -14.29812,23.11149 -0.80887,-2.42661 -3.97523,-1.02391 -9.02252,3.997 -2.86227,2.8473 -5.20412,5.56329 -5.20412,6.03553 0,1.09507 -8.5479,4.78756 -11.08291,4.78756 -1.0544,0 -1.91709,0.45965 -1.91709,1.02144 0,0.56179 -1.11635,1.53008 -2.48078,2.15176 -1.36443,0.62167 -2.71977,1.8833 -3.01186,2.80362 -0.38948,1.22714 -1.34426,1.55396 -3.5808,1.22571 -2.43656,-0.35761 -3.15685,-0.0379 -3.58262,1.59024 -0.2931,1.12081 -1.54072,2.29079 -2.77249,2.59994 -1.23176,0.30915 -3.95112,1.92227 -6.04302,3.58469 -2.09189,1.66243 -4.33812,3.0226 -4.99162,3.0226 -0.6535,0 -2.24506,1.125 -3.53681,2.5 -1.29175,1.375 -3.39519,2.5 -4.67431,2.5 -3.16509,0 -6.65486,3.63324 -5.97755,6.22329 0.79111,3.02523 -1.76269,5.06421 -5.35472,4.27526 C 161.34704,416.08504 160,415.34838 160,414.80962 c 0,-0.53876 -0.45,-0.70145 -1,-0.36153 -1.89246,1.16961 -0.9968,-0.68212 1.25,-2.5843 l 2.25,-1.90488 -3.5,1.36469 c -4.02893,1.57092 -6.00601,1.17166 -5.98596,-1.20884 0.0133,-1.57535 12.89026,-9.40489 18.98596,-11.54395 1.375,-0.48251 3.4,-1.66177 4.5,-2.62059 1.1,-0.95882 3.18744,-2.36405 4.63876,-3.12272 4.78852,-2.50319 12.29326,-7.27047 16.68784,-10.6007 2.37962,-1.80329 4.91537,-3.27871 5.63499,-3.27871 0.71961,0 2.04653,-1.12654 2.9487,-2.50342 0.90217,-1.37689 3.31642,-3.59416 5.36501,-4.92728 12.01986,-7.82192 14.77382,-10.29448 17.41132,-15.63218 1.47764,-2.99042 2.71514,-6.35447 2.75,-7.47568 0.0349,-1.12121 0.98939,-3.82121 2.12118,-6 1.13179,-2.17879 3.64148,-8.91144 5.57708,-14.96144 1.93561,-6.05 4.00233,-11.88984 4.59271,-12.97743 1.24531,-2.29407 3.17561,-8.91267 5.69371,-19.52257 0.97901,-4.125 3.36188,-10.875 5.29527,-15 1.93339,-4.125 4.24362,-9.75 5.13386,-12.5 4.84742,-14.97399 9.03289,-27.34973 10.14598,-30 3.81658,-9.08725 7.28043,-21.28694 7.66607,-27 l 0.33752,-5 -8.1745,-0.28922 c -7.28077,-0.2576 -8.39305,-0.0546 -10.17341,1.85635 -1.30017,1.39557 -2.46263,1.85245 -3.3255,1.30704 -0.72962,-0.4612 -3.57659,-1.10956 -6.32659,-1.44082 l -5,-0.60227 3.25,-1.26337 c 4.42905,-1.72169 4.09977,-3.67621 -0.75,-4.45172 -4.00362,-0.6402 -5.25036,-2.19895 -2.57878,-3.22413 1.1346,-0.43539 1.20792,-1.18533 0.36352,-3.71862 -1.43156,-4.29485 -2.066,-4.8467 -5.94386,-5.17006 -2.67613,-0.22315 -3.32508,-0.69888 -3.26148,-2.39088 0.12827,-3.41231 -3.02922,-2.51371 -5.9434,1.69145 -1.4498,2.09206 -2.636,4.18234 -2.636,4.64507 0,0.46272 -1.53671,4.03854 -3.41492,7.94625 -1.87821,3.90771 -4.80604,11.12263 -6.5063,16.03315 -1.70026,4.91052 -3.78137,9.69066 -4.6247,10.62252 -0.84333,0.93187 -2.37559,3.88917 -3.40502,6.57179 -1.02944,2.68261 -2.81647,7.35247 -3.97118,10.37747 -1.15472,3.025 -3.20446,7.75 -4.55498,10.5 -1.35053,2.75 -4.28431,9.725 -6.51951,15.5 -2.23521,5.775 -4.50141,11.175 -5.03601,12 -3.68406,5.68527 -8.30739,17.41772 -9.87451,25.05814 -1.01931,4.96959 -2.13785,9.32017 -2.48564,9.66796 -0.34779,0.34779 -2.18533,-0.10822 -4.08342,-1.01336 -3.34038,-1.59291 -3.62065,-1.56212 -8.73745,0.96004 -2.9075,1.43315 -7.31136,3.5098 -9.78636,4.61478 -2.475,1.10497 -5.37942,2.45352 -6.45427,2.99678 -1.07484,0.54326 -6.29278,1.1585 -11.59541,1.36722 -8.49536,0.33437 -9.94567,0.13994 -12.20347,-1.63605 -1.49289,-1.17431 -4.06725,-2.01551 -6.16815,-2.01551 -1.98321,0 -4.38723,-0.40614 -5.34227,-0.90254 -3.9839,-2.07069 -10.16261,-3.25921 -15.27887,-2.93902 -4.3363,0.27139 -5.45756,0.0334 -5.45756,-1.15844 0,-1.09391 1.13074,-1.5 4.17662,-1.5 3.03878,0 4.7521,-0.61298 6.28896,-2.25 2.49978,-2.6627 4.24334,-2.81444 7.53756,-0.65599 1.33803,0.87671 3.00969,1.39649 3.71482,1.15507 0.70512,-0.24143 3.23185,0.39127 5.61495,1.40598 2.38309,1.01472 5.61126,1.84494 7.17371,1.84494 1.56244,0 5.1327,0.52903 7.9339,1.17563 4.68078,1.08045 5.33133,0.9995 8.0358,-1 1.61848,-1.1966 3.56706,-2.17563 4.33018,-2.17563 0.76311,0 2.42519,-0.9 3.6935,-2 1.26831,-1.1 2.95369,-2 3.74528,-2 0.79159,0 2.58343,-0.9 3.98185,-2 1.39842,-1.1 3.30443,-2 4.23557,-2 2.46495,0 10.83802,-10.75083 12.46129,-16 1.86037,-6.01593 4.03763,-11.18339 8.00546,-19 1.81472,-3.575 5.91592,-12.35 9.11377,-19.5 3.19786,-7.15 6.40517,-13.70637 7.12737,-14.56972 0.72219,-0.86334 2.15854,-4.0271 3.19189,-7.03057 1.03334,-3.00346 2.86751,-7.47209 4.07593,-9.93028 1.20842,-2.45819 3.24372,-7.16943 4.52289,-10.46943 1.27917,-3.3 3.0459,-7.35 3.92607,-9 0.88017,-1.65 1.60308,-3.63763 1.60647,-4.41695 0.003,-0.77933 1.58116,-4.28232 3.50616,-7.78443 3.40105,-6.18745 4.53198,-11.29862 2.5,-11.29862 -1.82119,0 -1.03775,-2.18246 1.5,-4.17866 3.7079,-2.91664 3.16853,-4.18386 -1.46541,-3.44286 -3.60635,0.57668 -4.17191,0.3548 -6.24581,-2.4503 -1.35961,-1.83898 -2.14518,-4.11626 -1.94551,-5.63989 0.30351,-2.31613 0.0706,-2.50497 -2.48686,-2.01609 -1.95328,0.37339 -4.16499,-0.24779 -7.18616,-2.01832 -3.53046,-2.06898 -4.52603,-2.29624 -5.21014,-1.18933 -0.54071,0.87489 -2.27107,1.26548 -4.79796,1.08303 -3.03973,-0.21948 -4.27921,0.18145 -5.36841,1.7365 -0.77889,1.11203 -2.58444,2.46604 -4.01233,3.00893 -1.73894,0.66114 -2.82242,2.01721 -3.28141,4.10699 -0.43419,1.97687 -1.54533,3.44694 -3.03281,4.01247 -1.87277,0.71203 -2.41021,1.75363 -2.65737,5.15019 -0.2617,3.59642 -0.69668,4.34816 -2.80085,4.84046 -2.29558,0.53709 -3.02267,1.75786 -4.61405,7.74688 -0.18268,0.6875 -1.21175,1.25 -2.28681,1.25 -3.51939,0 -7.96042,4.69875 -8.30014,8.7818 -0.23146,2.78194 -0.80485,3.78986 -2.30797,4.05695 -3.54129,0.62925 -3.79933,1.34803 -4.45552,12.41125 -0.0245,0.4125 -0.64974,0.75 -1.38949,0.75 -2.57664,0 -4.94546,3.74195 -4.25086,6.71496 1.80872,7.74161 1.78333,9.09077 -0.18285,9.71481 -1.94432,0.6171 -4.89754,5.57023 -3.32116,5.57023 1.26028,0 2.9855,5.0433 2.90769,8.5 -0.0371,1.65 -0.037,6.6 3.8e-4,11 0.0374,4.4 0.0449,9.125 0.0167,10.5 -0.0282,1.375 0.16712,10.0375 0.43397,19.25 0.38266,13.21027 0.21422,16.75 -0.79705,16.75 -0.89131,0 -1.49832,-2.66775 -1.99093,-8.75 -0.38977,-4.8125 -1.05865,-9.2 -1.4864,-9.75 -0.42774,-0.55 -1.08882,-6.4 -1.46905,-13 -0.38023,-6.6 -1.32675,-14.53996 -2.10337,-17.64434 -0.77664,-3.10439 -1.41206,-6.81689 -1.41206,-8.25 0,-1.43312 -0.43266,-2.60566 -0.96146,-2.60566 -1.62189,0 -3.22911,8.0108 -3.40611,16.97696 -0.19832,10.04611 -0.95127,11.94945 -3.73171,9.4332 -1.56693,-1.41806 -1.8859,-3.0539 -1.81634,-9.31515 0.0897,-8.07635 1.058,-15.75288 2.91305,-23.09501 0.62533,-2.475 1.38336,-7.425 1.68452,-11 0.30115,-3.575 0.89395,-6.95 1.31733,-7.5 0.42337,-0.55 1.0801,-2.45162 1.45939,-4.22581 0.37929,-1.7742 1.9981,-5.5992 3.59736,-8.5 1.59926,-2.90081 2.91589,-6.00659 2.92585,-6.90175 0.01,-0.89515 0.69312,-2.18775 1.51812,-2.87244 0.825,-0.68469 1.5,-2.23635 1.5,-3.44813 0,-1.21178 1.15407,-3.28743 2.5646,-4.61256 1.41053,-1.32512 3.27061,-3.89712 4.13351,-5.71556 0.86291,-1.81844 2.85884,-4.52373 4.43541,-6.01176 1.57656,-1.48802 2.86648,-3.2177 2.86648,-3.84373 0,-0.62603 1.14648,-1.88944 2.54774,-2.80758 1.40126,-0.91814 3.33962,-2.97149 4.30748,-4.56301 0.96786,-1.59151 4.60373,-5.16706 8.07972,-7.94566 3.47599,-2.77861 6.00698,-5.05201 5.62443,-5.05201 -0.38256,0 0.28418,-1.37591 1.48163,-3.05758 1.19745,-1.68166 1.96714,-3.26761 1.71042,-3.52433 -0.25671,-0.25672 -3.5683,-0.74739 -7.35909,-1.09038 -3.79078,-0.34299 -7.77996,-1.23204 -8.86484,-1.97566 -1.08487,-0.74363 -2.79386,-1.35205 -3.79775,-1.35205 -1.00388,0 -2.94644,-1.20979 -4.31679,-2.68843 -1.37036,-1.47864 -3.40641,-2.75583 -4.52457,-2.83821 -1.11816,-0.0824 -3.14368,-1.34758 -4.50117,-2.81157 -1.67764,-1.80926 -3.49611,-2.6652 -5.67768,-2.67244 C 138.96696,130.92503 133,125.53919 133,122.17352 c 0,-3.17964 -1.06254,-5.22543 -2.71398,-5.22543 -0.91564,0 -1.27804,-0.57842 -0.93025,-1.48475 0.63288,-1.64925 -2.39495,-3.71192 -6.27871,-4.27728 -3.79021,-0.55175 -6.06093,-2.11644 -5.43575,-3.74563 0.40706,-1.06078 -1.12754,-2.2293 -5.44417,-4.14548 -3.97204,-1.76321 -5.83669,-3.12261 -5.49709,-4.007591 0.29143,-0.75946 -0.14857,-1.33927 -1.01634,-1.33927 -0.84164,0 -2.80229,-1.07034 -4.35698,-2.37853 -1.5547,-1.30819 -3.72673,-2.56201 -4.82673,-2.78625 -1.25827,-0.25651 -1.88626,-1.06404 -1.69332,-2.17742 0.26108,-1.50654 -0.2045,-1.6738 -3.13098,-1.12478 -2.79347,0.52405 -3.71173,0.25363 -4.90016,-1.44309 -1.29132,-1.84362 -1.99392,-1.98873 -6.00286,-1.23977 -4.84774,0.90565 -7.51929,2.53874 -17.77268,10.86427 -8.10435,6.580551 -11.12481,9.400201 -17.76799,16.586721 -4.96426,5.37029 -7.91642,7.25209 -6.98273,4.45102 0.5094,-1.52822 10.99337,-13.57135 11.90596,-13.6766 0.36038,-0.0416 4.11172,-3.43257 8.33632,-7.535581 4.2246,-4.10301 8.65474,-7.76738 9.84477,-8.14305 1.19002,-0.37567 2.98276,-1.62394 3.98387,-2.77394 1.76864,-2.03167 1.75842,-2.14092 -0.36079,-3.85695 -1.19954,-0.97133 -2.91863,-1.78036 -3.82019,-1.79785 -0.90157,-0.0175 -2.51273,-0.6925 -3.58035,-1.5 -1.06762,-0.80751 -2.86762,-1.46798 -4,-1.46771 -3.02686,7.2e-4 -12.96021,11.89278 -16.49662,19.74951 -0.55701,1.2375 -1.69889,2.25 -2.5375,2.25 -0.83861,0 -1.52475,0.844901 -1.52475,1.877561 0,1.03265 -0.675,2.43775 -1.5,3.12244 -0.825,0.68469 -1.5,2.07396 -1.5,3.08726 0,1.01331 -0.84824,2.29634 -1.88497,2.85118 -1.03674,0.55484 -2.16633,2.12981 -2.51021,3.49993 -0.34388,1.37012 -1.73541,3.60132 -3.09231,4.95821 -1.4117,1.4117 -2.74687,4.21684 -3.12114,6.55741 -0.35974,2.24968 -1.05419,4.33762 -1.54323,4.63986 -0.48903,0.30224 -0.5851,3.51721 -0.21349,7.14437 0.59106,5.76906 0.47757,6.51882 -0.90638,5.98775 -2.45029,-0.94027 -3.75216,1.47776 -5.77196,10.72052 -2.34005,10.70823 -2.61929,16.06471 -1.07928,20.70296 0.66643,2.00719 1.57453,5.94469 2.01799,8.75 1.18056,7.46813 -1.49916,6.87798 -5.39502,-1.18815 l -3,-6.2113 -0.75707,7 c -0.41639,3.85 -0.93348,8.8 -1.14908,11 -0.21561,2.2 -0.93108,6.025 -1.58995,8.5 -3.69927,13.89603 -4.43409,16.02268 -5.42063,15.68782 -1.60903,-0.54616 -0.85561,-16.82012 0.91104,-19.67862 0.34701,-0.56147 0.0761,-2.55523 -0.60204,-4.43057 -1.0491,-2.90124 -0.98388,-3.78988 0.43738,-5.95899 1.06808,-1.6301 1.6756,-4.6352 1.6849,-8.33446 0.008,-3.18185 0.72943,-7.81018 1.60317,-10.28518 1.22323,-3.46499 1.42819,-6.34002 0.89115,-12.5 -0.3836,-4.4 -0.68057,-10.025 -0.65993,-12.5 0.0512,-6.14213 1.93005,-18.23183 2.94193,-18.93049 1.03987,-0.71798 7.67049,-14.18929 7.71071,-15.66571 0.0164,-0.60291 1.71029,-2.68104 3.76414,-4.61808 C 22.31957,103.79678 24,101.2998 24,100.18497 c 0,-1.114831 1.11723,-3.086691 2.48272,-4.381921 1.3655,-1.29523 2.4944,-2.80496 2.50868,-3.35496 0.0143,-0.55 1.50732,-2.575 3.31789,-4.5 1.81057,-1.925 4.74096,-5.6196 6.51199,-8.21021 1.77103,-2.59062 5.71404,-6.86336 8.76224,-9.49499 3.0482,-2.63163 6.08139,-5.91203 6.74041,-7.28979 0.8783,-1.83619 2.53023,-2.83398 6.18714,-3.73712 3.53009,-0.87183 5.86618,-2.23977 7.98893,-4.67807 4.15911,-4.77738 7.38358,-5.40011 11.22493,-2.16783 1.70969,1.43862 5.39166,3.03631 8.40833,3.64857 7.26283,1.47408 12.62452,2.89742 17.13698,4.54928 5.15868,1.88842 9.41682,1.73076 12.57539,-0.46561 5.4855,-3.81446 15.9085,-8.48145 23.15437,-10.36758 4.125,-1.07376 9.975,-2.633 13,-3.46499 16.45622,-4.52608 31.81629,-6.27468 47.30186,-5.38488 5.39102,0.30977 10.48288,0.32203 11.31524,0.0272 3.67119,-1.30016 -5.50795,-5.96402 -11.73805,-5.96402 -1.44879,0 -3.19436,-0.675 -3.87905,-1.5 -0.68469,-0.825 -2.45527,-1.5 -3.93462,-1.5 -1.47934,0 -4.64121,-0.94286 -7.02636,-2.09524 -2.68139,-1.2955 -5.36926,-1.88871 -7.042,-1.55416 -1.48794,0.29759 -3.207,0.0394 -3.82012,-0.5737 -0.61312,-0.61312 -2.59124,-1.23313 -4.39583,-1.37781 -1.80459,-0.14467 -5.75607,-0.79247 -8.78107,-1.43956 -3.28496,-0.70269 -8.52051,-0.92401 -13,-0.54956 -10.07205,0.84194 -11.15174,1.01277 -14.56143,2.30392 -1.61621,0.61201 -5.86357,1.63907 -9.43857,2.28236 -3.575,0.64329 -8.975,2.41829 -12,3.94445 -3.025,1.52615 -5.95,2.85447 -6.5,2.95182 -3.57616,0.63298 -9.24508,2.6586 -10.57874,3.78 -0.86831,0.73012 -2.95071,1.32748 -4.62756,1.32748 -1.67684,0 -3.56058,0.61664 -4.18607,1.37032 -0.6255,0.75367 -2.94744,1.61311 -5.15988,1.90986 -2.21244,0.29675 -5.58765,1.73325 -7.50046,3.19222 -2.37576,1.81209 -4.12947,2.44586 -5.53423,2.00001 -1.22202,-0.38786 -2.73736,-0.0605 -3.73472,0.80674 -0.92309,0.80267 -4.82834,2.69882 -8.67834,4.21365 -3.85,1.51483 -8.575,3.55649 -10.5,4.53703 -1.925,0.98053 -5.62946,2.75249 -8.23213,3.9377 -2.60266,1.18521 -6.65266,4.00241 -9,6.26045 -2.34733,2.25804 -7.27923,6.29758 -10.95979,8.97676 -3.68055,2.67918 -7.62716,6.38449 -8.77023,8.23402 -1.14308,1.84954 -2.77682,3.63083 -3.63053,3.95843 C 3.77637,90.971129 0,89.417289 0,88.120349 c 0,-0.82981 11.70807,-11.64668 16.5,-15.24404 1.65,-1.23867 5.25,-4.361 8,-6.9385 5.72256,-5.3636 10.27912,-8.21014 16,-9.99541 3.86039,-1.20468 14.88592,-5.99295 19,-8.25151 10.50404,-5.76652 23.32813,-11.53189 26.83184,-12.06289 3.96263,-0.60055 12.03849,-4.03992 14.66816,-6.24691 0.825,-0.69239 5.775,-1.99241 11,-2.88893 5.225,-0.89651 11.68346,-2.28384 14.35213,-3.08295 2.66867,-0.7991 5.24687,-1.20895 5.72933,-0.91077 0.48247,0.29818 1.89901,-0.007 3.14787,-0.67878 3.87696,-2.08462 33.21375,-1.21093 42.03758,1.25194 12.80355,3.57366 18.10856,5.00497 24.12757,6.50968 3.24196,0.81047 7.51696,2.2857 9.5,3.2783 1.98304,0.99259 4.86056,2.10654 6.3945,2.47545 2.49275,0.59949 2.94416,0.29933 4.25,-2.82599 0.80356,-1.92319 1.46102,-4.57296 1.46102,-5.88837 0,-3.24531 5.91664,-14.51135 7.96191,-15.16049 0.90526,-0.28732 3.61242,-2.4119798 6.0159,-4.7214598 3.90649,-3.75371 5.17352,-4.33089 11.94609,-5.44186 4.16685,-0.68354004 9.40122,-1.26664004 11.63193,-1.29578004 5.28887,-0.0691 14.80129,3.18795004 22.03853,7.54600004 3.17387,1.9112 6.27371,3.2818798 6.88854,3.0459398 0.61483,-0.23593 2.22019,0.1815 3.56748,0.92762 1.60367,0.8881 6.01167,1.36882 12.76424,1.39202 10.08782,0.0347 15.36214,1.26932 22.68538,5.31042 1.1,0.607 4.0122,2.1838 6.47156,3.50399 2.45935,1.3202 5.67882,3.26 7.15437,4.31069 1.47554,1.05068 3.37429,1.91033 4.21942,1.91033 0.84514,0 1.82122,0.46051 2.16908,1.02335 0.34785,0.56284 3.58746,2.3632 7.19913,4.00081 5.75055,2.60743 7.03609,2.85107 10.34381,1.96039 3.70563,-0.99782 8.94263,0.21918 8.94263,2.07814 0,2.10927 10.7134,3.81443 12.55,1.99747 0.5225,-0.51691 4.1454,-1.60372 8.051,-2.41513 3.9056,-0.81142 11.1056,-3.46214 16,-5.89049 13.388,-6.64236 19.8256,-8.03693 34.056,-7.37743 20.359,0.94351 22.1028,1.31779 26.694,5.72949 2.2286,2.14137 5.0457,3.8934 6.2603,3.8934 1.3463,0 3.9027,1.82942 6.5486,4.68635 14.0148,15.13278 27.0503,25.37845 31.2639,24.57296 1.288,-0.24621 2.6461,0.0447 3.018,0.64652 0.3719,0.60179 2.6891,1.09417 5.1493,1.09417 2.4602,0 6.1462,0.70915 8.191,1.57588 2.0449,0.86673 7.9929,1.82939 13.2179,2.13924 9.4927,0.56292 9.5035,0.56661 14.0724,4.79807 3.2978,3.05424 6.5404,4.85582 11.6321,6.46279 l 7.0597,2.22808 22.3679,-11.09049 c 12.3023,-6.09977 23.4929,-11.69806 24.8679,-12.44065 1.375,-0.74259 4.975,-2.61687 8,-4.16507 3.025,-1.54821 8.5071,-4.81031 12.1824,-7.24912 3.7263,-2.4726 10.0695,-5.4792 14.3388,-6.79644 10.607,-3.27261 23.1492,-9.49696 24.608,-12.21229 1.3653,-2.5413 4.0544,-2.93863 5.784,-0.85461 0.6369,0.76747 2.7023,1.68509 4.5896,2.03916 3.1316,0.58749 3.3823,0.88993 2.8682,3.46031 -0.4397,2.19884 0.1158,3.58993 2.5329,6.34286 1.7028,1.93947 3.0961,4.01206 3.0961,4.60575 0,0.59369 -1.7823,1.55937 -3.9607,2.14595 -3.3871,0.91204 -4.1104,1.6056 -4.9944,4.78855 -0.5686,2.04712 -1.0363,4.49749 -1.0393,5.44528 0,0.94779 -0.8475,3.64779 -1.8765,6 -2.1999,5.02884 -5.9086,18.92693 -7.1698,26.86781 -0.4884,3.07509 -1.3585,6.82878 -1.9337,8.34155 -0.5751,1.51276 -0.9842,5.586531 -0.909,9.052821 l 0.1366,6.30234 2.6234,-0.79809 c 3.8142,-1.16037 17.2508,-6.8596 18.5308,-7.85999 0.6009,-0.46965 2.3027,-1.14266 3.7817,-1.49558 2.6312,-0.62783 17.6449,-9.324941 20.7447,-12.016991 0.8614,-0.74807 2.6368,-1.9149 3.9454,-2.59297 2.1045,-1.09046 2.6242,-0.94364 4.5,1.27115 3.2239,3.80641 6.5953,5.51621 12.3708,6.27375 5.615,0.73648 7.2076,2.43095 2.2848,2.43095 -3.5623,0 -10.0348,5.269081 -10.0348,8.169091 0,1.07905 2.25,5.77124 5,10.42709 2.75,4.65585 5,8.68532 5,8.95437 0,0.26906 1.0494,2.16775 2.332,4.21932 3.9879,6.37875 12.8441,23.47794 14.3061,27.6215 0.7662,2.17181 2.9799,6.33921 4.9192,9.26089 1.9393,2.92168 5.3749,8.80766 7.6347,13.07994 7.584,14.33833 23.1269,44.70084 26.5004,51.7678 1.8379,3.85 3.775,7.675 4.3048,8.5 0.5297,0.825 3.9005,7.35 7.4906,14.5 7.9295,15.7924 19.7246,37.64466 23.0635,42.72856 1.3468,2.05071 2.4487,4.26231 2.4487,4.91467 0,1.42476 12.6418,26.72014 14.4216,28.85677 0.6873,0.825 2.1566,3.3 3.2652,5.5 1.1086,2.2 2.8285,5.575 3.822,7.5 0.9935,1.925 3.7605,5.61822 6.1488,8.20716 4.5887,4.97419 4.8207,5.48957 3.4465,7.65867 -1.4524,2.29248 1.1553,5.77994 12.5456,16.77813 16.3006,15.73957 19.8537,18.21625 42.0249,29.29356 9.2984,4.64571 14.9656,10.47003 13.7904,14.17271 -0.4578,1.44247 -0.3183,1.91715 0.4279,1.45598 0.6886,-0.42558 1.1013,0.18863 1.0918,1.62477 -0.01,1.26996 -0.3459,1.85902 -0.75,1.30902 -0.4041,-0.55 -1.4097,-1 -2.2347,-1 -0.8827,0 -1.6273,-1.10158 -1.8094,-2.67682 -0.398,-3.44406 -2.8067,-5.60706 -4.433,-3.9808 -0.8768,0.87683 -0.8665,1.44869 0.042,2.35762 1.4537,1.4537 1.5904,6.44073 0.2,7.3 -0.55,0.33992 -1,0.11492 -1,-0.5 z M 275.21844,145.42965 275.5,118.44809 l -4.77611,-0.30586 c -4.49295,-0.28772 -5.01728,-0.0506 -8.84422,4 -8.46057,8.955 -16.9882,25.75351 -15.30295,30.14518 0.73034,1.90325 15.33276,14.22628 21.80854,18.4043 2.76512,1.78399 5.37042,2.9007 5.78955,2.48157 0.41914,-0.41914 0.88877,-12.90377 1.04363,-27.74363 z m 127.65396,5.77498 c -0.7548,-0.95891 -2.4974,-2.64628 -3.8724,-3.74972 -2.6595,-2.13427 -15.0133,-13.59195 -18.44736,-17.10922 -1.77968,-1.82281 -3.6484,-2.18383 -14.05264,-2.71481 -6.6,-0.33684 -15.6,-1.26765 -20,-2.06848 -9.86751,-1.79595 -33.1789,-2.85652 -35.49864,-1.61504 -2.14489,1.14791 -3.60922,12.56338 -1.87899,14.64817 0.61738,0.74391 2.80913,1.35256 4.87055,1.35256 2.06141,0 8.92841,0.89955 15.25998,1.99901 6.33158,1.09945 15.84768,2.21531 21.1469,2.47967 6.20885,0.30975 11.31783,1.1635 14.36758,2.40093 2.60294,1.05614 8.78262,2.43347 13.73262,3.06072 4.95,0.62726 11.025,1.51033 13.5,1.96237 2.475,0.45205 6.2426,0.88387 8.3724,0.9596 3.5481,0.12617 3.7575,-0.008 2.5,-1.60576 z M 216.16876,127.69809 c 4.11217,-4.45871 12.59074,-14.85196 16.90116,-20.71788 1.96346,-2.672 5.00096,-6.06232 6.75,-7.534051 1.74904,-1.47172 3.18008,-3.08201 3.18008,-3.57841 0,-0.49641 -2.37672,-2.2439 -5.2816,-3.88331 -9.52925,-5.37798 -9.76036,-5.81348 -11.22482,-21.15166 -0.24237,-2.53843 -0.90257,-5.83022 -1.46712,-7.3151 C 224.46191,62.032789 224,59.249839 224,57.333329 c 0,-1.91651 -0.68656,-4.81221 -1.52568,-6.4349 -1.35157,-2.61364 -2.06483,-2.95907 -6.25,-3.02685 -2.59838,-0.0421 -5.62432,-0.26699 -6.72432,-0.49979 -1.1,-0.2328 -5.39471,-0.70791 -9.54379,-1.0558 -5.74751,-0.48192 -8.2477,-0.27252 -10.5,0.8794 -2.04558,1.04619 -3.68015,1.23948 -5.30637,0.62748 -1.39003,-0.52311 -5.06688,-0.48717 -9,0.088 -3.65741,0.53483 -10.92484,1.60556 -16.14984,2.37941 -5.225,0.77385 -11.975,2.53347 -15,3.91026 -5.35402,2.43682 -7.67265,3.32575 -17,6.51759 -9.76159,3.34043 -9.33234,4.87627 2.70627,9.68279 5.33845,2.13143 11.71145,5.40591 14.16222,7.27662 2.45077,1.87072 6.74545,4.55006 9.54373,5.9541 2.79828,1.40403 6.88778,3.97838 9.08778,5.72078 2.2,1.74239 5.34258,4.01845 6.98351,5.0579 1.64094,1.03946 4.11594,2.96618 5.5,4.2816 1.38407,1.315431 4.09149,3.224241 6.01649,4.241821 3.58603,1.89561 15.15654,13.52035 20.47477,20.57073 6.32959,8.39113 9.88652,9.40627 14.69399,4.19366 z m 440.25144,-3.62084 c 0.296,-0.47896 1.9725,-1.15769 3.7255,-1.5083 4.5051,-0.90103 9.5082,-5.02784 10.7411,-8.85982 0.577,-1.79357 1.9648,-8.21104 3.084,-14.261041 1.9791,-10.69844 3.3477,-17.32264 5.0616,-24.5 5.4827,-22.95918 5.7228,-25.55043 2.2555,-24.34444 -4.9606,1.72536 -26.8813,12.69524 -29.7675,14.89667 -1.8212,1.38911 -5.927,3.44498 -9.1239,4.56861 -6.9044,2.4267 -10.8305,4.3805 -14.8965,7.41315 -1.65,1.23066 -4.8393,3.16077 -7.0873,4.28913 -4.0012,2.00831 -11.4127,8.60753 -11.4127,10.16187 0,1.07847 4.6149,4.01501 6.3098,4.01501 0.7591,0 2.2283,0.93715 3.2649,2.08255 2.2125,2.444801 7.4979,4.919101 12.4195,5.814081 2.4604,0.44742 3.8767,1.4334 4.787,3.33265 0.711,1.48349 4.7636,5.71154 9.0058,9.39568 4.2421,3.68415 7.863,7.07568 8.0463,7.53674 0.4378,1.10087 2.9002,1.07853 3.5869,-0.0325 z M 363.78387,113.10283 c 3.3319,-2.11415 -3.0389,-6.07129 -18.87483,-11.72389 C 340.83407,99.924389 333.45,96.818729 328.5,94.477479 c -12.69077,-6.00249 -12.55982,-5.98101 -16.19892,-2.65721 -2.8363,2.59057 -3.1397,3.4346 -3.14435,8.747521 -0.006,7.27088 0.48845,9.12004 2.76675,10.33935 0.98342,0.52631 11.86545,1.25992 24.18228,1.63024 12.31683,0.37032 22.58174,0.83923 22.81091,1.04201 0.72706,0.64336 3.53558,0.36837 4.8672,-0.47656 z m -83.81026,-6.11727 c 0.97124,-0.6142 1.74242,-0.52376 2.26213,0.26532 1.18315,1.79638 7.76426,-5.65255 7.76426,-8.788101 0,-1.72307 -0.55089,-2.51899 -1.75,-2.52834 -0.9625,-0.008 -2.67893,-0.26314 -3.81429,-0.56807 -1.51176,-0.40602 -3.18462,0.56593 -6.25,3.6313 -4.78927,4.789271 -5.69297,8.960681 -1.93571,8.935111 1.2375,-0.008 2.91312,-0.43467 3.72361,-0.94722 z"
     id="path2987"
     inkscape:connector-curvature="0" />
</svg>
