<?xml version="1.0" encoding="UTF-8" standalone="no"?>
<!-- Created with Inkscape (http://www.inkscape.org/) -->

<svg
   xmlns:dc="http://purl.org/dc/elements/1.1/"
   xmlns:cc="http://creativecommons.org/ns#"
   xmlns:rdf="http://www.w3.org/1999/02/22-rdf-syntax-ns#"
   xmlns:svg="http://www.w3.org/2000/svg"
   xmlns="http://www.w3.org/2000/svg"
   xmlns:sodipodi="http://sodipodi.sourceforge.net/DTD/sodipodi-0.dtd"
   xmlns:inkscape="http://www.inkscape.org/namespaces/inkscape"
   id="svg2"
   version="1.1"
   inkscape:version="0.48.2 r9819"
   width="1264.064"
   height="394.39984"
   sodipodi:docname="reptilesbatrachi00bouluoft_00922c.png">
  <metadata
     id="metadata8">
    <rdf:RDF>
      <cc:Work
         rdf:about="">
        <dc:format>image/svg+xml</dc:format>
        <dc:type
           rdf:resource="http://purl.org/dc/dcmitype/StillImage" />
        <dc:title></dc:title>
      </cc:Work>
    </rdf:RDF>
  </metadata>
  <defs
     id="defs6" />
  <sodipodi:namedview
     pagecolor="#ffffff"
     bordercolor="#666666"
     borderopacity="1"
     objecttolerance="10"
     gridtolerance="10"
     guidetolerance="10"
     inkscape:pageopacity="0"
     inkscape:pageshadow="2"
     inkscape:window-width="1600"
     inkscape:window-height="876"
     id="namedview4"
     showgrid="false"
     fit-margin-top="0"
     fit-margin-left="0"
     fit-margin-right="0"
     fit-margin-bottom="0"
     inkscape:zoom="1"
     inkscape:cx="626.61822"
     inkscape:cy="197.92269"
     inkscape:window-x="0"
     inkscape:window-y="24"
     inkscape:window-maximized="1"
     inkscape:current-layer="svg2" />
  <path
     style="fill:#000000"
     d="m 716.86822,393.81487 c -4.3851,-1.76942 2.3742,-11.33772 8.0093,-11.33772 3.2349,0 17.192,-6.33626 20.6452,-9.37254 0.8775,-0.77158 4.3224,-2.76669 7.6553,-4.43357 6.5748,-3.28823 9.1953,-5.60919 7.5094,-6.65111 -0.5653,-0.3494 -1.958,-0.13748 -3.0948,0.47094 -2.3281,1.24593 -12.2106,3.23546 -15.895,3.19994 -1.3314,-0.0128 -4.0314,0.96905 -6,2.18197 -4.8539,2.99053 -9.7378,4.35393 -21.7576,6.07383 -5.598,0.80102 -11.223,1.71815 -12.5,2.03806 -1.3302,0.33324 -3.176,-0.0436 -4.3218,-0.88234 -1.9802,-1.44948 -1.9752,-1.49052 0.5,-4.1396 2.9107,-3.11515 7.1191,-5.48558 9.7389,-5.48558 1.011,0 3.6035,-0.9 5.7611,-2 2.1576,-1.1 4.7012,-2 5.6524,-2 0.9513,0 2.0077,-0.45 2.3476,-1 0.3399,-0.55 2.313,-1 4.3847,-1 2.7248,0 4.4163,-0.6915 6.1153,-2.5 1.2917,-1.375 3.2917,-2.5 4.4444,-2.5 1.1527,0 5.3436,-0.9 9.313,-2 3.9695,-1.1 7.9227,-2 8.7848,-2 0.8621,0 4.2182,-1.8 7.4578,-4 3.2396,-2.2 6.4929,-4 7.2295,-4 2.119,0 5.0781,-5.95512 5.1787,-10.42207 0.062,-2.74002 -0.6464,-5.11284 -2.1582,-7.2323 -1.2375,-1.7349 -2.25,-4.03672 -2.25,-5.11514 0,-1.07843 -0.9004,-3.1055 -2.001,-4.50462 -4.8708,-6.19227 -14.6271,-32.13752 -16.0447,-42.66846 -2.2474,-16.69492 -3.6052,-21.05741 -6.5541,-21.05741 -1.3652,0 -8.4756,-2.62434 -13.9002,-5.13035 -2.8888,-1.33457 -12.1056,-2.9761 -18.628,-3.31772 -9.671,-0.50654 -15.7843,-6.06467 -16.1787,-14.7093 -0.1878,-4.117 -0.051,-4.31622 4.8067,-6.98293 2.75,-1.50977 6.1025,-2.77083 7.45,-2.80237 1.3743,-0.0322 2.0329,-0.41417 1.5,-0.87003 -2.6264,-2.24684 -20.559,-9.23735 -39.45,-15.3785 -3.575,-1.16217 -7.9084,-2.71505 -9.6299,-3.45084 -3.0369,-1.29806 -6.5263,-2.22556 -24.3701,-6.47769 -13.2042,-3.14653 -17.3788,-4.26792 -36.5,-9.80479 -3.85,-1.11483 -10.15,-2.70888 -14,-3.54233 -3.85,-0.83346 -8.8,-1.99382 -11,-2.57859 -2.2,-0.58478 -7.375,-1.89076 -11.5,-2.9022 -4.125,-1.01143 -10.425,-2.56836 -14,-3.45983 -3.575,-0.89148 -8.525,-2.07598 -11,-2.63223 -5.1031,-1.14689 -18.3605,-1.47357 -19.9494,-0.49158 -1.4159,0.87506 -1.322,3.30577 0.3321,8.60314 0.7605,2.43548 1.8591,6.22814 2.4413,8.42814 1.0744,4.0604 6.2776,21.29137 8.908,29.5 0.793,2.475 1.8724,6.75 2.3984,9.5 1.9167,10.01887 2.6512,13.09022 4.245,17.75 6.047,17.6799 6.2146,18.39782 7.0874,30.35487 l 0.6646,9.10486 -5.1498,3.30462 c -4.5122,2.89547 -5.0779,3.62537 -4.5689,5.89514 0.3194,1.42478 1.0723,5.06551 1.6731,8.09051 0.6008,3.025 2.2038,6.96616 3.5624,8.75814 1.9036,2.51096 2.3996,4.22573 2.1629,7.47739 -0.3021,4.15121 -0.3797,4.23211 -4.8071,5.01702 -5.2231,0.92598 -12.8083,0.1351 -15.062,-1.57045 -0.8591,-0.65015 -1.8574,-1.9696 -2.2186,-2.9321 -0.3611,-0.9625 -1.501,-1.75 -2.533,-1.75 -2.2588,0 -4.4054,-2.3588 -6.143,-6.75 -0.7073,-1.7875 -1.8489,-3.25 -2.5369,-3.25 -1.9676,0 -19.6832,9.09393 -22.9587,11.78537 -2.53,2.0789 -3.7548,2.3677 -8.5654,2.01974 -7.551,-0.54619 -11.9824,-3.62097 -11.9824,-8.31419 0,-4.23187 -0.6025,-4.58608 -5.5531,-3.26468 -2.2147,0.59113 -6.0564,0.75949 -8.6059,0.37716 -4.3765,-0.65629 -4.6642,-0.90045 -5.7869,-4.91008 -1.2481,-4.45781 -1.2423,-4.47835 3.5087,-12.4395 1.0655,-1.78541 3.2872,-3.87541 4.9372,-4.64446 10.4471,-4.86929 12.9276,-5.71886 15.1032,-5.1728 1.302,0.32676 5.6251,-0.1469 9.6071,-1.05258 6.0752,-1.38178 8.0116,-1.44891 12.037,-0.41724 l 4.797,1.22945 6.0061,-6.33145 c 5.3501,-5.64002 5.9362,-6.66088 5.3665,-9.3481 -0.3517,-1.65915 -1.2516,-3.71298 -1.9999,-4.56407 -1.3535,-1.53962 -2.2317,-4.19322 -6.4381,-19.45257 -1.2129,-4.4 -3.0543,-9.73003 -4.0921,-11.8445 -1.0377,-2.11448 -1.8868,-4.6925 -1.8868,-5.72895 0,-2.22285 -4.6021,-16.24371 -6.6063,-20.12689 -0.7665,-1.48519 -1.3967,-4.18519 -1.4003,-6 0,-1.81481 -0.9006,-4.64966 -1.9934,-6.29966 -1.0927,-1.65 -1.9898,-3.64808 -1.9934,-4.44018 -0.012,-2.63915 -6.1075,-13.53406 -8.604,-15.37878 -2.2773,-1.68276 -3.6763,-1.74624 -18.6821,-0.84784 -20.8901,1.25069 -38.0366,0.73568 -48.7205,-1.46336 -4.675,-0.96224 -13.45,-1.84493 -19.5,-1.96154 -28.7884,-0.55487 -41.8892,-2.96968 -58.8206,-10.84211 -6.4293,-2.98941 -11.1823,-4.56619 -13.764,-4.56619 -4.9826,0 -10.2333,3.34648 -12.4088,7.9086 -0.9003,1.88776 -2.5476,4.5931 -3.6608,6.01185 -1.1133,1.41875 -3.8965,5.09155 -6.18494,8.16176 -13.02042,17.46822 -27.85809,34.04234 -49.42733,55.21185 -4.32473,4.24458 -10.47494,16.77485 -10.81253,22.02914 -0.77212,12.01759 -4.42105,24.45856 -8.47572,28.89785 -2.23781,2.45009 -2.93136,4.34333 -3.3639,9.18269 -0.29968,3.35294 -0.49684,7.35251 -0.43813,8.88793 0.19627,5.13268 -1.3095,4.62111 -5.9894,-2.03485 -1.25417,-1.78374 -2.03038,-3.64759 -1.72489,-4.14187 0.30548,-0.49428 -0.0896,-2.85986 -0.87789,-5.25682 -0.78832,-2.39697 -1.93269,-6.28673 -2.54305,-8.6439 -1.10542,-4.26909 -1.12414,-4.28309 -4.80888,-3.59712 -2.03453,0.37876 -5.29078,1.51532 -7.23611,2.5257 -5.83414,3.03016 -11.69224,3.32714 -20.10473,1.01921 -6.24207,-1.71249 -8.58932,-1.90679 -13.92473,-1.15263 -3.72221,0.52613 -6.78879,0.53539 -7.30213,0.022 -1.57019,-1.57019 0.31658,-5.9532 3.20588,-7.44731 1.54459,-0.79874 3.34357,-2.09716 3.99772,-2.88537 0.98746,-1.18981 0.55169,-1.53659 -2.56676,-2.04265 -3.15519,-0.51202 -4.12356,-0.21329 -6.05268,1.86718 -1.2631,1.36224 -2.86333,2.47676 -3.55607,2.47676 -1.75572,0 -3.65953,-2.08765 -3.65953,-4.01291 0,-2.17319 5.15073,-6.98709 7.47598,-6.98709 1.0266,0 2.613,-0.67554 3.52535,-1.5012 1.30653,-1.1824 4.82728,-1.52406 16.57874,-1.60882 8.20596,-0.0592 16.56543,-0.51468 18.5766,-1.01221 3.46509,-0.8572 3.76784,-1.27057 5.77834,-7.88971 1.49717,-4.92912 3.36426,-8.40257 6.34333,-11.80086 5.57565,-6.36027 19.37635,-24.15158 23.49096,-30.28361 1.79812,-2.67974 4.61062,-5.86393 6.25,-7.07598 1.63939,-1.21205 2.9807,-2.52689 2.9807,-2.92187 0,-0.39497 2.26519,-3.06832 5.03377,-5.94077 2.76857,-2.87245 5.4277,-5.95216 5.90918,-6.8438 1.31434,-2.43402 7.7033,-9.60918 15.6207,-17.54293 3.88501,-3.89303 7.89893,-8.41654 8.91983,-10.05225 2.24518,-3.59728 3.46722,-5.14823 5.76652,-7.3186 3.09982,-2.926 2.05843,-4.01562 -4.5,-4.70841 -7.46217,-0.78825 -9.62447,-0.0686 -17.91186,5.96174 -3.43107,2.4966 -7.2912,4.53928 -8.57806,4.53928 -1.28687,0 -4.1039,0.9 -6.26008,2 -2.15618,1.1 -4.63118,2 -5.5,2 -0.86882,0 -3.34382,0.9 -5.5,2 -2.15618,1.1 -4.95075,2.03289 -6.21016,2.07309 -1.25941,0.0402 -3.63984,0.93542 -5.28984,1.98938 -4.36149,2.78596 -6.21452,3.49874 -14,5.38524 -3.85,0.9329 -8.35,2.38087 -10,3.21772 -1.65,0.83685 -5.7,2.33959 -9,3.33944 -3.3,0.99984 -7.90015,2.5263 -10.22256,3.39214 -2.32241,0.86583 -7.72241,2.26016 -12,3.0985 -4.27759,0.83834 -9.35244,1.99348 -11.27744,2.56697 -1.925,0.57349 -10.025,1.21526 -18,1.42615 -38.081662,1.00704 -53.045832,2.78741 -78.000002,9.28008 -10.15405,2.64193 -12.67039,2.93501 -21.5,2.50419 -8.16324,-0.39831 -10.77349,-0.93094 -14.21116,-2.89981 -2.31614,-1.32653 -4.56614,-2.96831 -5,-3.64839 -0.43386,-0.68009 -2.40997,-2.44364 -4.3913497,-3.919 -3.28277,-2.4444 -7.60267,-9.62492 -9.37056999,-15.57568 -0.37091,-1.24849 -0.006,-4.39849 0.81085,-7 0.81686999,-2.60151 1.74901999,-6.6028 2.07142999,-8.89176 0.87318,-6.19907 3.98312,-12.69633 9.6510397,-20.16287 13.65456,-17.98762 14.60947,-19.69564 15.24422,-27.26693 0.7253,-8.651491 3.04565,-13.003701 7.74492,-14.526991 2.49522,-0.80883 3.73769,-1.97382 4.48743,-4.20759 0.57024,-1.69898 3.72024,-5.88928 7,-9.311771 3.27975,-3.422492 5.84708,-6.602419 5.70516,-7.066506 -0.375,-1.226293 3.34231,-8.205694 5.18494,-9.734945 0.8652,-0.718051 1.57309,-1.849406 1.57309,-2.514123 0,-0.664717 1.2375,-1.844044 2.75,-2.620727 1.5125,-0.776684 3.425,-2.093297 4.25,-2.925808 0.825,-0.832511 2.85,-2.171825 4.5,-2.976254 1.65,-0.804429 4.8,-2.627621 7,-4.051537 4.78993,-3.100209 9.95203,-4.671615 17.8966,-5.447939 4.192322,-0.409663 8.383232,-1.840435 14.500002,-4.95028 10.98009,-5.58242 19.69877,-8.9421 21.04555,-8.10974 0.57956,0.35819 2.51717,-0.11619 4.3058,-1.05418 6.96032,-3.6501 8.49555,-4.32138 14.27659,-6.24245 17.87792,-5.94091 29.82383,-8.4281198 41.86453,-8.7164598 9.17324,-0.21968 11.42346,0.0394 14.28042,1.6440398 3.51252,1.97286 11.77378,2.61462 12.77631,0.9925 0.3101,-0.50176 4.25723,-0.89617 8.77138,-0.87645 7.59707,0.0332 8.50789,0.26474 12.24519,3.1132 2.2207,1.69255 5.79639,4.41542 7.94598,6.05083 5.48807,4.17533 12.54495,5.19935 17.7015,2.56868 2.12776,-1.0855 5.2958,-3.54197 7.04008,-5.4588 3.71655,-4.08421 4.68646,-4.18164 13.34197,-1.34023 6.394,2.09901 6.6712,2.10776 12.9478,0.40878 5.3894,-1.45885 6.9651,-1.53677 9.8659,-0.48786 2.9184,1.05532 4.1017,0.98834 7.6547,-0.43329 3.1752,-1.27046 5.0298,-1.4532 7.5857,-0.74746 3.9534,1.09159 11.1785,0.35361 13.7446,-1.4039 1.0852,-0.74327 3.5625,-1.02665 6.2887,-0.71937 2.8876,0.32548 5.8269,-0.0549 8.2094,-1.06227 4.5618,-1.9288898 14.7779,-2.9600298 31.2113,-3.1502498 7.9547,-0.0921 13.5909,-0.62977 15.5,-1.47868 2.9868,-1.32812 3.9898,-1.40222 14.5506,-1.07487 4.0775,0.12638 6.4987,-0.3873 9.1227,-1.93551 2.8357,-1.67312 4.108,-1.90381 6.1719,-1.11911 1.5337,0.5831 7.328,0.73507 14.1294,0.37057 10.2098,-0.54715 11.7559,-0.41306 13.5068,1.1715 1.9061,1.72496 2.041,1.71268 3.7479,-0.34109 1.9122,-2.30068 3.3706,-2.40697 25.7707,-1.87818 6.5281,0.1541 10.709,-0.19054 12.042,-0.99265003 1.5624,-0.94016 4.1457,-0.98465 11,-0.18942 4.9269,0.57161003 11.208,1.24565003 13.958,1.49785003 2.75,0.25221 6.8,0.6513 9,0.88687 2.2,0.23557 8.143,0.6057 13.2067,0.82252 5.5557,0.23789 9.8306,0.91188 10.7797,1.69958 1.2219,1.01412 2.1345,1.04945 4.0903,0.15833 2.6567,-1.21049 6.7117,-1.52531 7.6435,-0.59344 0.3045,0.30447 3.8993,0.65017 7.9885,0.76824 5.4322,0.15683 8.2237,0.73941 10.3631,2.16271 1.6105,1.07143 5.6282,2.3140998 8.9282,2.7614898 3.3,0.44739 8.7,1.17028 12,1.60644 3.5056,0.46333 7.8708,1.90102 10.5,3.45823 3.0453,1.80364 5.9547,2.67398 9,2.69232 5.0586,0.0305 12.239,2.21404 12.7983,3.89198 0.2026,0.60776 1.5949,1.10501 3.0939,1.10501 1.4991,0 3.5991,0.66069 4.6667,1.4682 1.0676,0.80751 3.7691,1.4825 6.0033,1.5 2.2342,0.0175 5.9249,0.9318 8.2017,2.0318 2.2767,1.1 4.6254,2 5.2193,2 1.1415,0 12.1267,3.48032 15.5168,4.91602 3.3564,1.421392 11.8431,5.32933 14.6675,6.754058 1.4672,0.740069 4.7623,1.632695 7.3226,1.983615 3.3474,0.458818 5.0882,1.299285 6.1974,2.992171 1.0756,1.641586 2.4914,2.355267 4.6775,2.357874 3.2838,0.0039 5.2813,1.118056 15.135,8.441817 6.4667,4.806391 21.0716,12.554445 23.6649,12.554445 0.8746,0 2.1795,0.710104 2.8998,1.578008 1.2805,1.542799 5.6321,4.072833 16.7285,9.725972 3.0271,1.5422 6.3845,3.9235 7.4608,5.29178 1.8597,2.36424 3.7314,3.52416 13.4354,8.32596 2.3041,1.14016 4.4682,2.5242 4.809,3.07565 0.3408,0.55145 1.727,1.00263 3.0805,1.00263 2.7052,0 10.4211,4.445411 10.4211,6.004001 0,0.53839 2.5156,2.44525 5.5903,4.23745 3.0746,1.7922 7.0121,4.09874 8.75,5.12564 1.7378,1.02689 4.1945,2.90031 5.4592,4.16314 1.2647,1.26283 4.1897,3.18575 6.5,4.27315 2.3103,1.0874 5.0725,2.94282 6.1383,4.12315 2.8081,3.10974 10.1564,6.07347 15.0587,6.07347 3.4423,0 5.1855,0.75105 9.2444,3.9828 2.7512,2.19053 5.5336,5.26572 6.1831,6.83374 0.6495,1.56802 3.2367,4.15041 5.7494,5.73863 2.5126,1.58823 6.4265,4.8523 8.6975,7.25348 2.271,2.40119 5.8385,5.24688 7.9278,6.32375 2.0893,1.07688 4.0564,2.62927 4.3712,3.44977 0.3149,0.82049 1.8113,2.13244 3.3255,2.91544 2.9388,1.5197 5.8562,0.98862 12.878,-2.3443 4.9511,-2.35001 47.8153,-2.05864 51.4913,0.35001 1.5279,1.00109 4.2829,1.5459 7.2952,1.44263 6.4432,-0.22091 14.9389,1.39887 17.0977,3.25984 0.9583,0.82615 5.2044,1.96901 9.43568,2.53971 5.1294,0.69181 8.76,1.79712 10.8938,3.31654 2.6271,1.87061 4.5949,2.29821 10.9828,2.38656 5.8491,0.0809 8.2549,0.53535 9.6849,1.82951 1.0465,0.94704 2.3172,1.7319 2.8239,1.74413 0.5067,0.0122 2.0463,0.90222 3.4213,1.97776 1.8181,1.42217 4.0879,1.96159 8.3219,1.97776 4.3851,0.0168 6.8797,0.64211 10.1078,2.53389 2.3572,1.38142 6.7021,3.22923 9.6554,4.10626 2.9533,0.87703 6.5048,2.49086 7.8923,3.58627 1.3874,1.09542 5.2308,3.22207 8.5407,4.72589 6.8685,3.12058 17.6815,11.01428 20.249,14.78212 2.9651,4.35147 15.574,17.70195 18.394,19.47588 1.476,0.92844 2.831,2.52452 3.0112,3.54685 0.4601,2.61013 20.8864,21.21367 23.3277,21.24604 2.7594,0.0366 8.5,3.68177 8.5,5.39735 0,1.5096 2.0817,2.62169 4.9075,2.62169 0.9591,0 2.8008,1.125 4.0925,2.5 1.2917,1.375 3.3607,2.5 4.5976,2.5 1.2369,0 3.521,1.04132 5.0757,2.31405 3.3271,2.72368 12.3368,6.68595 15.2031,6.68595 1.103,0 2.2455,0.38827 2.5388,0.86283 0.2933,0.47455 2.6824,1.41888 5.309,2.09851 2.6267,0.67963 6.1258,1.82287 7.7758,2.54053 1.65,0.71766 5.25,1.78523 8,2.37238 14.8169,3.16352 20.4243,4.48032 24.4281,5.73648 2.4355,0.7641 5.5855,1.40396 7,1.42192 3.0901,0.0392 12.783,3.27841 14.275,4.77044 1.1531,1.15314 1.7292,11.68843 0.7277,13.30885 -0.3386,0.54784 -9.1006,1.39364 -19.5225,1.88451 -10.3996,0.48982 -27.2333,1.65566 -37.4083,2.59077 -29.8088,2.73951 -137.0017,2.00197 -141.8197,-0.97579 -0.7259,-0.4486 -4.9194,-1.00162 -9.319,-1.22893 -9.6647,-0.49933 -12.501,-1.62254 -20.6445,-8.17569 -3.8557,-3.10272 -9.0714,-6.09036 -13.5,-7.7331 -3.9692,-1.47233 -7.9982,-3.08123 -8.9532,-3.57533 -0.9551,-0.49411 -2.2635,-0.89838 -2.9077,-0.89838 -0.6441,0 -3.4627,-1.74694 -6.2635,-3.8821 -6.80228,-5.18558 -9.72298,-6.54169 -18.59238,-8.63239 -10.2597,-2.41843 -12.1928,-3.18173 -15.2595,-6.02527 -1.4592,-1.35313 -3.1532,-2.46024 -3.7642,-2.46024 -0.6364,0 -0.8535,-0.81153 -0.5082,-1.8995 0.7742,-2.43935 -3.2334,-5.69897 -8.8535,-7.20107 -4.3713,-1.16832 -9.8813,-3.67084 -15.6146,-7.09181 -1.925,-1.14861 -5.75,-3.27491 -8.5,-4.72511 -8.2798,-4.36628 -19.7923,-12.25508 -23.2846,-15.95539 l -3.2846,-3.48028 -6.2352,1.23936 c -4.7585,0.94583 -6.941,0.96649 -9.2154,0.0873 -1.6391,-0.63366 -4.7802,-1.31071 -6.9802,-1.50458 -2.2,-0.19386 -7.375,-0.87857 -11.5,-1.52158 l -7.5,-1.16909 -9.4224,4.11089 c -5.1824,2.261 -10.4336,4.1109 -11.6693,4.1109 -1.2357,0 -5.0598,0.72068 -8.4981,1.60151 -7.7674,1.98993 -18.1566,1.22924 -28.9102,-2.11678 -12.6496,-3.93597 -16.4296,-5.16792 -18.2416,-5.94518 -2.9333,-1.25827 -3.1363,1.98195 -0.4809,7.67563 1.3556,2.90665 3.9191,8.42496 5.6967,12.26291 1.7777,3.83795 4.0186,7.52899 4.9799,8.2023 1.2128,0.84949 1.9291,3.15189 2.34,7.52191 0.651,6.92185 2.1894,13.21035 6.1656,25.20198 1.4415,4.34736 2.8816,9.97236 3.2003,12.5 0.3186,2.52765 1.2005,5.59239 1.9597,6.81054 0.7592,1.21815 1.3803,4.28523 1.3803,6.81574 0,2.53051 0.4847,5.50665 1.0772,6.61365 0.8105,1.51439 0.6915,2.97672 -0.4806,5.9061 -2.3177,5.79237 -0.9856,10.28445 5.3966,18.19809 0.332,0.41162 5.5318,1.69198 11.5552,2.84525 15.3031,2.93003 17.0319,3.362 25.1091,6.27422 8.8928,3.20626 16.3425,9.49058 16.3425,13.78593 0,3.75099 -1.9117,3.68738 -8.3564,-0.27806 -2.7926,-1.71834 -6.8924,-3.35007 -9.1106,-3.62607 -2.2181,-0.276 -5.5407,-1.40974 -7.3835,-2.51943 -3.1638,-1.90514 -13.6101,-3.2303 -22.6495,-2.87318 -13.2831,0.52478 -17.3257,0.80722 -19.5,1.36236 -1.375,0.35107 -6.1,1.18306 -10.5,1.84887 -7.6896,1.16359 -21.9221,5.27145 -24,6.92702 -0.55,0.43821 -2.575,1.27454 -4.5,1.85851 -7.2403,2.19639 -13.6137,4.74023 -17,6.78526 -2.3316,1.40807 -6.0712,2.33433 -11.202,2.77465 -4.2361,0.36354 -10.2691,1.54417 -13.4066,2.62362 -3.1375,1.07946 -5.7465,1.92712 -5.7979,1.8837 -0.051,-0.0434 -0.656,-0.30592 -1.3435,-0.58333 z"
     id="path2987"
     inkscape:connector-curvature="0" />
</svg>
