<?xml version="1.0" encoding="UTF-8" standalone="no"?>
<!-- Created with Inkscape (http://www.inkscape.org/) -->

<svg
   xmlns:dc="http://purl.org/dc/elements/1.1/"
   xmlns:cc="http://creativecommons.org/ns#"
   xmlns:rdf="http://www.w3.org/1999/02/22-rdf-syntax-ns#"
   xmlns:svg="http://www.w3.org/2000/svg"
   xmlns="http://www.w3.org/2000/svg"
   xmlns:sodipodi="http://sodipodi.sourceforge.net/DTD/sodipodi-0.dtd"
   xmlns:inkscape="http://www.inkscape.org/namespaces/inkscape"
   id="svg2"
   version="1.1"
   inkscape:version="0.48.2 r9819"
   width="308.88379"
   height="683.81378"
   sodipodi:docname="M - Centipede.png">
  <metadata
     id="metadata8">
    <rdf:RDF>
      <cc:Work
         rdf:about="">
        <dc:format>image/svg+xml</dc:format>
        <dc:type
           rdf:resource="http://purl.org/dc/dcmitype/StillImage" />
        <dc:title></dc:title>
      </cc:Work>
    </rdf:RDF>
  </metadata>
  <defs
     id="defs6" />
  <sodipodi:namedview
     pagecolor="#ffffff"
     bordercolor="#666666"
     borderopacity="1"
     objecttolerance="10"
     gridtolerance="10"
     guidetolerance="10"
     inkscape:pageopacity="0"
     inkscape:pageshadow="2"
     inkscape:window-width="1920"
     inkscape:window-height="1176"
     id="namedview4"
     showgrid="false"
     fit-margin-top="0"
     fit-margin-left="0"
     fit-margin-right="0"
     fit-margin-bottom="0"
     inkscape:zoom="1"
     inkscape:cx="179.76218"
     inkscape:cy="340.46305"
     inkscape:window-x="0"
     inkscape:window-y="24"
     inkscape:window-maximized="1"
     inkscape:current-layer="svg2" />
  <path
     style="fill:#000000"
     d="m 234.76218,682.94953 c 0,-0.49568 1.5877,-1.83799 3.52822,-2.98293 3.62563,-2.13918 6.54483,-7.35628 7.92075,-14.15573 0.3851,-1.90307 1.36025,-4.91739 2.16701,-6.6985 0.99427,-2.19511 1.16453,-3.8059 0.52848,-5 -0.5161,-0.96889 -1.42187,-5.58662 -2.01283,-10.26162 -0.59096,-4.675 -2.17568,-11.2 -3.5216,-14.5 -1.34592,-3.3 -2.98434,-8.925 -3.64093,-12.5 -0.75309,-4.10043 -1.92749,-7.14274 -3.18122,-8.24108 -1.86214,-1.63133 -5.0139,-6.89847 -9.72904,-16.25892 -1.1082,-2.2 -2.0248,-5.51064 -2.03688,-7.35699 -0.0227,-3.4761 0.10164,-3.43743 -4.70932,-1.46413 -1.08182,0.44373 -5.31264,-6.33887 -5.31264,-8.51692 0,-1.57425 -3.09216,-8.40313 -3.58282,-7.91247 -0.25611,0.25611 -1.37618,3.79225 -2.48903,7.85808 -1.77376,6.48047 -9.25019,23.51401 -10.92589,24.89243 -2.34296,1.92731 -4.89322,8.44568 -5.47739,14 -0.94855,9.01884 -2.20466,13.41706 -4.6139,16.15534 l -2.06291,2.34466 0.67571,-2.5 c 0.37164,-1.375 0.96901,-7.9 1.32749,-14.5 0.62343,-11.47788 0.81488,-12.28699 4.40026,-18.5961 2.06167,-3.62785 3.74848,-7.32752 3.74848,-8.22149 0,-0.89396 1.125,-4.16921 2.5,-7.27833 1.641,-3.71059 2.5,-7.47377 2.5,-10.95222 0,-2.9146 0.50002,-7.47111 1.11115,-10.12557 0.73684,-3.2005 0.79967,-6.34217 0.1865,-9.32629 l -0.92463,-4.5 -2.09714,4 c -2.04665,3.9037 -5.42792,7.48152 -17.87874,18.91805 -3.35657,3.08313 -8.53157,9.18037 -11.5,13.54943 -7.06369,10.39663 -10.83273,12.33548 -7.43371,3.82401 3.18039,-7.96401 6.30242,-12.34176 22.19837,-31.12694 4.99628,-5.9044 5.83767,-7.69972 8.41871,-17.96342 0.94745,-3.76765 0.94251,-5.68094 -0.023,-8.90362 l -1.22981,-4.10474 -2.16384,2.43844 c -3.30899,3.72893 -10.56677,9.27517 -16.58402,12.67315 -2.98111,1.68345 -9.39043,6.99434 -14.24294,11.80196 -9.04884,8.96515 -11.83123,10.21203 -8.08832,3.62466 3.65233,-6.42795 9.51773,-12.79138 15.98604,-17.34342 3.42902,-2.41316 6.24152,-4.6971 6.25,-5.07542 0.008,-0.37833 2.03249,-2.13643 4.49782,-3.90689 2.46532,-1.77046 4.73853,-4.16092 5.05157,-5.31213 0.31304,-1.15122 1.53198,-4.25005 2.70875,-6.88629 1.94324,-4.35332 2.03028,-5.3224 0.94843,-10.5602 -0.65517,-3.17186 -1.19119,-6.75243 -1.19119,-7.95683 0,-3.1169 -2.15947,-2.64125 -4.5,0.99117 -1.1,1.70717 -4.925,4.79883 -8.5,6.87037 -11.58461,6.71272 -15.45724,9.54437 -17.8175,13.02807 -1.27463,1.88133 -4.30852,5.61619 -6.74198,8.29969 -3.74755,4.13263 -4.65906,4.68442 -5.95773,3.60662 -1.37435,-1.14061 -1.37518,-1.44715 -0.008,-2.95784 0.83888,-0.92695 1.52523,-2.03748 1.52523,-2.46784 0,-2.86885 15.9113,-19.12198 23.89418,-24.40751 4.20454,-2.78386 6.44079,-5.26201 9.4029,-10.42 3.50038,-6.09529 3.77796,-7.07852 2.79466,-9.89922 -0.60048,-1.72247 -1.09176,-4.86461 -1.09176,-6.98253 0,-2.11793 -0.25405,-3.85078 -0.56456,-3.85078 -0.31051,0 -1.75462,1.4143 -3.20913,3.1429 -2.60688,3.09809 -11.22895,7.82829 -14.3039,7.84733 -3.49894,0.0217 -14.72336,5.46835 -19.42241,9.42478 -6.45645,5.4361 -9.63588,7.58499 -11.22251,7.58499 -2.4659,0 -1.216,-1.87163 5.72472,-8.57232 7.3583,-7.10384 14.50973,-11.57028 24.49779,-15.30014 5.03002,-1.87837 6.44457,-2.96893 8.75,-6.74587 3.02983,-4.96372 3.36055,-8.04286 1.45214,-13.52033 l -1.26775,-3.63866 -3.0587,2.73295 c -2.1844,1.95176 -5.74803,3.37901 -12.4672,4.99316 -9.30434,2.2352 -17.04962,6.01771 -25.084,12.25012 -4.99095,3.87156 -5.71793,1.89858 -1.07882,-2.92781 5.69626,-5.9262 12.86577,-10.57058 22.12901,-14.33506 4.64976,-1.88962 10.27863,-5.07932 12.65532,-7.17136 l 4.28065,-3.76798 -0.52856,-8.24835 c -0.29071,-4.53659 -0.91715,-8.66989 -1.39208,-9.18511 -0.52363,-0.56803 -1.75438,-0.11565 -3.12677,1.14928 -2.39474,2.20722 -7.7139,4.2073 -16.76324,6.30319 -5.57077,1.29023 -12.01095,5.06605 -17.36031,10.17819 -1.61498,1.54336 -3.80739,2.8061 -4.87203,2.8061 -1.69985,0 -1.53855,-0.50147 1.32377,-4.11544 5.07765,-6.41105 11.73975,-11.11446 21.46854,-15.15666 11.43816,-4.75242 15.01593,-7.79487 16.38088,-13.92993 0.70092,-3.15047 0.71829,-5.56429 0.0526,-7.3151 -0.54638,-1.43719 -0.99345,-3.7058 -0.99345,-5.04136 0,-2.41858 -0.0182,-2.41443 -4.5423,1.03892 -2.49827,1.90697 -6.66077,4.10216 -9.25,4.8782 -8.69034,2.60467 -16.13057,6.64584 -23.31644,12.66439 -3.92494,3.28734 -7.53113,5.97698 -8.01375,5.97698 -2.26868,0 -0.36819,-3.22844 4.87249,-8.2771 8.45428,-8.14453 10.82732,-9.87924 20.75,-15.1685 12.00516,-6.39931 17.5,-12.15772 17.5,-18.33944 0,-1.60408 0.49598,-4.33929 1.10219,-6.07825 0.6062,-1.73895 0.82182,-3.89236 0.47915,-4.78534 -0.56131,-1.46274 -0.79437,-1.47155 -2.35219,-0.089 -3.11462,2.76427 -8.6717,5.42233 -16.26411,7.77945 -7.88719,2.44865 -19.07554,7.96022 -27.56855,13.58074 -5.56912,3.68555 -6.39649,3.97014 -6.39649,2.20024 0,-4.03516 25.32435,-20.57292 36.5,-23.83589 5.92961,-1.73127 11.43811,-6.80081 12.53646,-11.53745 1.18355,-5.10404 1.18834,-12.54568 0.009,-14.40973 -0.80314,-1.26973 -1.15992,-1.25387 -2.73469,0.1215 -2.96041,2.58557 -5.54749,3.63319 -15.53375,6.29028 -8.16266,2.17187 -22.83659,8.98539 -27.5273,12.78169 -0.6875,0.55641 -1.25,0.61078 -1.25,0.12083 0,-1.78228 10.60472,-11.65882 14.5,-13.50435 2.2,-1.04234 5.575,-2.76161 7.5,-3.82061 1.925,-1.059 6.36097,-2.73628 9.85771,-3.72728 8.66222,-2.45493 12.20052,-6.38954 14.02902,-15.60031 0.74229,-3.73917 1.12549,-7.02262 0.85156,-7.29656 -0.27394,-0.27393 -2.41474,0.50096 -4.75733,1.72199 -2.72231,1.41895 -7.18605,2.49622 -12.37011,2.98537 -13.46796,1.27079 -13.66161,1.33789 -27.31747,9.46586 -2.37294,1.41238 -3.49875,1.61646 -4.33024,0.78497 -0.83149,-0.83149 0.0672,-1.97879 3.45662,-4.4129 2.51913,-1.8091 4.58024,-3.60122 4.58024,-3.98248 0,-1.70656 13.34019,-6.9866 21.6632,-8.5743 7.36469,-1.40488 9.8521,-2.35107 12.67308,-4.82071 3.2356,-2.83263 3.55785,-3.63291 4.12373,-10.24091 0.71262,-8.32145 -0.0999,-9.4365 -4.56141,-6.25964 -2.60169,1.85257 -4.6267,2.23523 -12.86434,2.43095 -10.76082,0.25566 -16.31243,2.18871 -24.79661,8.63408 -3.17141,2.40931 -4.5519,2.94852 -5.39367,2.10675 -1.2304,-1.2304 0.7368,-3.1831 11.02288,-10.94166 4.35785,-3.28703 7.1996,-4.53925 13.09916,-5.77217 12.5743,-2.62785 14.46828,-3.34957 17.72392,-6.75389 2.57512,-2.69274 3.19344,-4.24043 3.47161,-8.68972 0.35435,-5.66783 -0.77976,-7.32377 -3.29548,-4.81177 -2.01931,2.01632 -9.7583,3.69477 -16.59232,3.59857 -6.21934,-0.0875 -12.48962,2.008 -18.22211,6.08989 -3.30846,2.35583 -5.05164,2.59881 -5.05164,0.70413 0,-1.3854 5.77205,-6.42289 9.842,-8.58947 3.46516,-1.84463 13.12812,-4.88957 17.9778,-5.66506 3.36579,-0.53822 5.07825,-1.62617 8.27376,-5.25645 2.85722,-3.24598 3.86706,-5.17106 3.47113,-6.61708 -0.30711,-1.12161 -0.84824,-4.41445 -1.20252,-7.31742 -0.77209,-6.32655 -2.0205,-7.41103 -4.54377,-3.94713 -1.9787,2.7163 -4.02738,3.39772 -12.54004,4.17095 -5.52832,0.50216 -14.18783,3.71549 -18.16322,6.73993 -2.43187,1.85014 -5.14054,2.41727 -5.08354,1.06437 0.15563,-3.69369 12.0484,-10.74082 23.151,-13.71825 5.57757,-1.49576 6.87422,-2.2547 7.84138,-4.58963 0.63732,-1.53864 2.01765,-3.57481 3.0674,-4.52481 1.56215,-1.41373 1.90584,-3.106 1.89331,-9.3223 -0.021,-10.39884 -0.90463,-11.51392 -5.43097,-6.85329 -2.38513,2.45589 -4.80241,3.86657 -7.30877,4.26526 -9.34052,1.48579 -13.65309,3.11626 -25.64305,9.69499 -3.713612,2.03761 -4.601902,2.16618 -4.601902,0.66611 0,-3.65179 13.473882,-11.83299 25.004012,-15.18217 4.64685,-1.34978 6.0874,-2.38018 9.25,-6.61636 3.96256,-5.30768 4.61863,-8.49388 2.37953,-11.55604 -1.32876,-1.81718 -1.4383,-1.81224 -3.96965,0.17892 -1.57678,1.24029 -6.26234,2.74663 -11.88354,3.82039 -6.87856,1.31394 -10.97763,2.77099 -15.83852,5.62995 -6.518802,3.83427 -8.941552,4.64537 -8.941552,2.99362 0,-2.94958 17.067552,-14.09481 21.627882,-14.12314 3.86378,-0.024 9.21156,-2.93616 11.9252,-6.49392 2.17694,-2.85412 2.55163,-4.14759 2.02094,-6.97644 -0.35832,-1.90998 -1.07775,-3.73615 -1.59875,-4.05814 -0.52099,-0.32199 -2.86606,0.5184 -5.21126,1.86753 -2.34521,1.34914 -7.41401,2.97879 -11.26401,3.62145 -3.85,0.64266 -8.8,2.25078 -11,3.57359 -2.200002,1.32282 -5.726042,3.34464 -7.835652,4.49294 -3.51178,1.91152 -3.80685,1.93825 -3.49455,0.31658 0.45786,-2.37748 12.809482,-12.31356 15.330202,-12.33216 1.1,-0.008 4.25,-0.7547 7,-1.65907 2.75,-0.90438 5.53897,-1.78345 6.19771,-1.9535 1.5442,-0.39863 4.43098,-5.98003 4.79147,-9.26402 0.15369,-1.40013 -0.22027,-3.34586 -0.83103,-4.32384 -1.02649,-1.64368 -1.34186,-1.55388 -4.17023,1.18748 -2.04549,1.98257 -5.74141,3.76829 -11.14957,5.38703 -9.348762,2.79821 -13.460732,4.76188 -18.316192,8.7469 -4.00212,3.28466 -6.63448,3.85022 -5.14017,1.10437 3.03884,-5.584 14.66124,-13.31244 22.167822,-14.74074 6.28712,-1.19627 12.32652,-8.37762 11.31189,-13.45077 -0.62803,-3.14012 -2.74071,-4.11915 -3.66894,-1.70022 -0.28667,0.74704 -4.91673,2.78111 -10.28903,4.52016 -5.372302,1.73904 -11.148402,4.19292 -12.835772,5.45306 -3.76219,2.80962 -9.40374,5.16606 -10.27712,4.29268 -0.88243,-0.88242 4.26438,-6.1687 9.62604,-9.88688 2.42928,-1.68465 7.28491,-3.80918 10.790292,-4.72118 5.08289,-1.32242 6.98283,-2.39751 9.38311,-5.30947 2.51728,-3.05389 2.82943,-3.98815 1.90785,-5.71013 -1.08689,-2.03088 -1.13849,-2.03322 -3.79999,-0.17233 -1.78701,1.24946 -5.29599,2.09827 -10.391182,2.5136 -4.23117,0.34489 -10.08117,1.53476 -13,2.64415 -6.06093,2.30363 -6.80696,2.41279 -6.80696,0.99605 0,-2.01517 9.05955,-6.71489 15.22042,-7.89572 10.569812,-2.02588 12.254442,-2.59396 12.571282,-4.23918 0.19175,-0.99565 -1.10852,-2.29939 -3.49313,-3.5025 -12.110782,-6.11023 -12.932232,-7.22205 -15.397702,-20.84058 -1.85189,-10.22926 -2.87179,-10.937834 -14.56101,-10.11616 -5.1938,0.36509 -10.20751,1.05285 -11.14157,1.52835 -1.84717,0.94035 -9.75945,2.58923 -20.56857,4.2864 -5.17206,0.81208 -8.63262,0.76994 -14,-0.17049 -8.42714,-1.47654 -25.2976601,-6.681804 -26.15570007,-8.070134 -1.19107,-1.9272 2.21835997,-1.97307 8.06464997,-0.10851 16.1794801,5.160124 28.5357001,5.367594 44.4613301,0.74652 13.54312,-3.92974 26.98304,-5.81135 36,-5.04005 7.09606,0.60699 7.62432,0.50822 9.80829,-1.8337 2.166042,-2.32269 2.251712,-2.8976 1.3901,-9.32848 -0.70844,-5.28757 -0.57451,-8.1144 0.586242,-12.3735 2.17381,-7.976355 11.92503,-17.753116 24.99362,-25.059092 18.12179,-10.130957 27.79417,-22.846027 28.49426,-37.4578367 0.26916,-5.617796 0.66949,-7.06105301 2.03136,-7.32332401 2.07481,-0.399572 2.22841,3.05532301 0.56632,12.73808971 -2.15263,12.54045 -7.46572,20.104755 -21.64255,30.812709 -5.29325,3.998062 -9.89691,7.269204 -10.23035,7.269204 -1.59251,0 -13.8752,12.934221 -15.33755,16.151129 -1.93296,4.252161 -2.06898,9.180311 -0.36353,13.170561 1.10178,2.57784 1.7072,2.84509 7.0053,3.09238 3.8685,0.18057 6.69809,0.93019 8.49889,2.25155 3.68424,2.70335 8.84833,12.62873 9.62779,18.504584 0.76518,5.76818 2.23121,6.27389 3.13031,1.0798 1.17035,-6.761184 3.45304,-12.440644 6.47231,-16.103554 1.63306,-1.98118 2.96919,-4.65117 2.96919,-5.93331 0,-1.30516 0.44175,-2.05816 1.00367,-1.71087 1.27724,0.78937 0.46305,4.52842 -2.50365,11.49773 -1.28768,3.025 -2.88998,8.425004 -3.56066,12.000004 -0.67067,3.575 -1.91659,7.30458 -2.76871,8.28795 -1.41798,1.63639 -1.33164,2.0056 1.01866,4.3559 1.85333,1.85334 3.1583,2.3806 4.68932,1.89467 1.16676,-0.37031 2.12137,-1.25728 2.12137,-1.97105 0,-0.71376 0.9,-2.44192 2,-3.84034 1.1,-1.39842 2.0032,-3.14661 2.00712,-3.88486 0.009,-1.61913 14.78136,-16.387124 15.58676,-15.581724 0.61637,0.61637 -3.41597,8.549904 -5.1905,10.212194 -1.54045,1.44303 -5.48967,8.15806 -8.10261,13.77726 -1.52248,3.27413 -2.81123,4.75 -4.14778,4.75 -3.31013,0 -3.0549,2.34645 0.72112,6.62946 2.63952,2.99392 4.6345,4.26484 7.33353,4.67189 3.30299,0.49813 4.03969,0.18099 6.75,-2.90589 1.6733,-1.90578 3.04236,-3.93154 3.04236,-4.50168 0,-2.73538 8.56787,-8.3566 14.82629,-9.72726 10.61536,-2.32488 11.08752,-0.83106 1.14963,3.63722 -3.86324,1.73699 -7.3168,3.95424 -7.67458,4.92721 -0.35779,0.97298 -1.24696,2.12892 -1.97595,2.56875 -0.72899,0.43984 -2.05306,2.23984 -2.94239,4 -2.71713,5.3778 -5.43112,7.7003 -8.9983,7.7003 -1.79666,0 -3.49248,0.36538 -3.76848,0.81195 -0.27599,0.44656 0.8196,3.12564 2.43466,5.95349 2.39105,4.18657 3.5651,5.25949 6.32101,5.7765 2.92334,0.54843 3.84586,0.18002 6.76976,-2.70349 7.06667,-6.96905 14.60014,-10.83845 21.10175,-10.83845 3.73306,0 3.46836,1.29016 -0.66954,3.26339 -4.7992,2.28858 -12.27109,7.91806 -17.56052,13.23046 -2.68105,2.6927 -5.39751,4.50615 -6.75,4.50615 -2.95711,0 -2.8347,1.47165 0.60887,7.32036 2.18864,3.71726 4.01221,5.36432 7.96873,7.1974 l 5.13062,2.37705 3.18238,-2.6974 c 3.73344,-3.16449 8.94321,-6.43965 13.84606,-8.70442 2.61448,-1.2077 4.95439,-1.4498 9.24845,-0.95686 6.53366,0.75002 6.73662,1.96712 0.49631,2.97631 -6.55177,1.05957 -11.83993,3.77284 -16.51927,8.47579 -2.35098,2.36285 -4.5442,4.02639 -4.87382,3.69677 -0.32962,-0.32962 -2.27715,0.25666 -4.32783,1.30284 -2.06833,1.05518 -4.68481,1.65207 -5.87618,1.34052 -1.79769,-0.4701 -2.14766,-0.13 -2.14766,2.08713 0,4.39853 2.85342,9.83191 7.2556,13.81582 3.60831,3.26548 4.81057,3.76869 9.00404,3.76869 2.66182,0 6.07463,-0.63862 7.58401,-1.41915 4.80895,-2.4868 16.51724,-3.09664 21.67019,-1.12872 2.46739,0.94231 4.48616,2.07673 4.48616,2.52093 0,0.44421 -3.80524,0.83922 -8.4561,0.87782 -6.36077,0.0528 -10.38733,0.72346 -16.25,2.70663 -8.28054,2.80107 -13.37993,3.4344 -17.0439,2.11682 -1.99623,-0.71785 -2.246,-0.49134 -2.21456,2.00828 0.0509,4.04803 1.77773,6.59711 7.60751,11.22999 2.82862,2.24788 5.40199,4.76214 5.71861,5.58723 0.45261,1.17949 2.49572,1.50017 9.55783,1.50017 13.98643,0 22.63333,2.36182 27.96697,7.63893 2.17244,2.14942 2.216,2.36107 0.48589,2.36107 -1.04527,0 -4.36913,-0.91203 -7.38637,-2.02673 -4.35598,-1.60929 -8.29645,-2.07271 -19.13169,-2.25 -11.38486,-0.18628 -13.96607,-0.51322 -15.57874,-1.97327 -3.10435,-2.81055 -4.53636,-2.23866 -3.756,1.5 1.57518,7.54661 3.87703,12.91384 6.35356,14.81458 1.44485,1.10891 4.20199,3.40054 6.12699,5.09249 4.39951,3.8669 11.18698,6.4499 19.24415,7.32344 9.43138,1.02254 13.77892,2.36277 18.98006,5.85106 7.83085,5.25198 6.12623,6.14607 -3.99664,2.09628 -4.80158,-1.92093 -9.43738,-2.80047 -18.31037,-3.47398 -9.49204,-0.72051 -12.87094,-1.40347 -16.80413,-3.39657 -4.35317,-2.20592 -4.99509,-2.30713 -5.54493,-0.87427 -0.94318,2.45788 2.21878,12.12633 4.72124,14.43637 1.21584,1.12235 3.56062,3.31247 5.21062,4.86695 3.47505,3.27386 7.39452,4.53195 20.41537,6.55299 7.45507,1.15714 10.99452,2.32155 17,5.59267 8.65519,4.71438 8.60566,4.68029 7.86995,5.41601 -0.30141,0.3014 -3.80636,-0.59039 -7.78878,-1.98176 -7.42725,-2.59493 -10.96752,-3.19157 -23.99654,-4.04417 -8.10625,-0.53045 -12.41995,-1.51839 -15.77291,-3.61234 -3.16439,-1.9762 -3.60174,-0.70255 -2.19281,6.38577 1.08606,5.46396 1.97309,7.12889 6.10674,11.46216 5.01099,5.25298 8.77382,6.76618 21.85898,8.79043 7.42439,1.14854 22.86905,8.34483 22.96839,10.70189 0.0553,1.31259 -3.33014,0.76882 -7.77638,-1.24903 -6.81819,-3.09432 -11.9198,-4.16678 -23.45443,-4.93057 -8.77083,-0.58077 -11.30778,-1.11585 -13.70951,-2.89153 -3.62217,-2.67798 -3.66421,-2.67826 -4.35708,-0.0287 -1.11814,4.27578 1.11895,11.80223 4.30478,14.48292 1.65452,1.39219 3.76267,3.80843 4.68477,5.36943 1.65856,2.80772 4.54946,3.92271 11.83946,4.56635 12.94751,1.14315 22.26021,4.00147 25.3925,7.79363 1.92961,2.33613 0.64475,3.21369 -2.11129,1.44201 -4.03821,-2.59588 -14.26561,-4.13802 -23.06886,-3.47843 -6.85236,0.51342 -8.91616,0.29707 -12.46235,-1.30647 -2.3375,-1.05699 -4.25,-2.3938 -4.25,-2.97069 0,-0.57692 -0.675,-1.04892 -1.5,-1.04892 -1.79335,0 -1.81478,0.38748 -0.39828,7.20078 0.65542,3.15254 2.04554,6.20138 3.4316,7.52627 1.28143,1.22487 3.51706,3.78351 4.96805,5.68586 2.62141,3.43684 4.75037,4.33139 12.15087,5.10558 12.23711,1.28016 20.55179,4.05861 26.77476,8.94708 3.22151,2.53067 1.43366,2.47684 -6.427,-0.19351 -5.75156,-1.95386 -10.41407,-2.69053 -20,-3.15994 -9.85813,-0.48275 -13.18038,-1.02371 -15.71923,-2.55955 -4.05809,-2.45489 -5.02705,-1.51865 -3.33517,3.22256 1.49754,4.19665 10.27791,13.22444 12.86321,13.22569 7.30604,0.004 28.25123,6.28402 30.89387,9.26362 1.7679,1.99334 1.74821,2.01502 -1.20268,1.32453 -11.15758,-2.61077 -17.1391,-3.48472 -25.39871,-3.71094 -8.17526,-0.22391 -9.76012,-0.56152 -12.17503,-2.59354 -3.40154,-2.8622 -4.3713,-1.73791 -3.50187,4.05985 0.5335,3.55767 1.54712,4.99344 6.60726,9.35902 4.88774,4.21684 7.02425,5.35227 11.72272,6.22994 18.5816,3.47101 22.14702,4.45122 27.99563,7.69654 3.4375,1.90742 6.25,3.93177 6.25,4.49856 0,1.33668 -4.74846,0.29478 -9.81689,-2.15402 -4.96951,-2.40101 -14.47201,-3.94505 -24.68311,-4.01072 -4.4,-0.0283 -9.71795,-0.66414 -11.81768,-1.41298 -3.2556,-1.16108 -3.8972,-1.15429 -4.35784,0.0461 -0.92919,2.42142 0.66467,6.55298 3.38423,8.7725 1.43589,1.17188 4.45134,3.99867 6.701,6.28175 2.63022,2.66929 5.33965,4.37622 7.59029,4.78183 1.925,0.34693 5.975,1.04693 9,1.55556 9.99296,1.68024 26,7.8153 26,9.96508 0,0.53566 -1.33032,0.52205 -3.25,-0.0332 -13.21429,-3.8224 -18.47184,-4.83571 -27.27194,-5.25623 -6.67684,-0.31906 -11.2621,-1.0703 -13.73745,-2.25071 -2.04352,-0.97449 -4.04514,-1.44215 -4.44805,-1.03925 -1.03724,1.03725 3.62324,9.4633 5.58155,10.09133 0.89424,0.28678 3.39513,2.09938 5.55754,4.02799 4.21604,3.76022 3.79241,3.67928 20.56835,3.92962 4.675,0.0698 9.625,0.49478 11,0.94447 4.7154,1.54216 11,4.81112 11,5.7217 0,1.15989 0.31622,1.18726 -7.66391,-0.66346 -5.37129,-1.24568 -9.29753,-1.41429 -18.81205,-0.80788 -13.3486,0.85079 -13.80886,0.82007 -17.92768,-1.19635 -4.03777,-1.97675 -4.6014,-1.81258 -4.56092,1.32848 0.0581,4.5118 2.15689,7.00603 8.6075,10.22944 5.75149,2.87405 6.94261,3.08079 20.15197,3.49771 7.72155,0.24371 15.31401,0.75799 16.87213,1.14284 2.53475,0.62608 10.33296,4.24927 10.33296,4.80088 0,0.70829 -44.32166,-0.59267 -46.34047,-1.36022 -2.9075,-1.10542 -3.65953,-0.55638 -3.65953,2.67176 0,3.02892 1.69722,6.26735 3.28518,6.26838 0.66815,4.3e-4 3.91482,1.25708 7.21482,2.79254 5.24312,2.43959 7.07225,2.76875 14.5,2.60937 10.78177,-0.23134 19.95118,1.10059 26.42375,3.83829 5.43179,2.29747 14.71324,8.75901 12.58158,8.75901 -0.70525,0 -5.95577,-1.35041 -11.66782,-3.00092 -9.71449,-2.80701 -11.36938,-2.98891 -25.61153,-2.81508 -8.37429,0.10221 -16.12598,-0.01 -17.22598,-0.24908 -1.8127,-0.39419 -1.97581,0.0247 -1.74173,4.47258 0.27468,5.21941 1.52894,7.5925 4.01288,7.5925 0.83944,0 4.27184,1.31269 7.62755,2.9171 5.4811,2.62057 13.67617,4.63658 22.11477,5.44028 7.34534,0.69957 26.13401,9.08552 31.23653,13.94179 5.33822,5.08061 3.97504,5.39274 -5.23498,1.19867 -13.16373,-5.99451 -19.17091,-7.60427 -33.51502,-8.98114 -7.14775,-0.6861 -13.28919,-1.91575 -17.42883,-3.48964 -2.64637,-1.00615 -2.68646,-0.96135 -2.38143,2.66147 0.27125,3.22156 0.94103,4.07 5.32721,6.74816 2.75933,1.68482 7.55257,5.58795 10.65164,8.67362 4.94278,4.92139 7.13617,6.20373 17.86223,10.44291 6.72515,2.65793 14.69893,6.32079 17.71952,8.13969 3.02058,1.8189 5.71019,3.30709 5.97691,3.30709 0.79237,0 8.51822,6.24805 12.05608,9.75 1.80584,1.7875 2.77268,3.25 2.14854,3.25 -0.62414,0 -7.27664,-3.04101 -14.78334,-6.7578 -16.77486,-8.30573 -19.68932,-9.52707 -29.14853,-12.21498 -11.2116,-3.18587 -13.1984,-4.06042 -16.73502,-7.36643 -1.77926,-1.66325 -3.43389,-2.82521 -3.67695,-2.58215 -0.24306,0.24306 1.08828,3.5873 2.95855,7.43165 2.04418,4.20182 3.67111,9.36376 4.07899,12.94187 0.62449,5.47834 1.07685,6.33408 5.68256,10.75 2.75223,2.63881 5.49631,4.80994 6.09796,4.82474 0.60165,0.0148 2.21891,1.85829 3.59391,4.09666 1.375,2.23838 3.74613,4.71729 5.26918,5.5087 7.21894,3.75113 21.14979,29.21682 22.42917,41.00069 1.44994,13.3547 -8.08538,32.36704 -16.23315,32.36704 -3.2185,0 -3.11596,-0.48973 0.82744,-3.95208 3.63444,-3.19108 6.22396,-9.97108 7.28585,-19.07615 0.89787,-7.69861 -3.24803,-19.40698 -9.27477,-26.19277 -2.36704,-2.66517 -4.30478,-5.16824 -4.30607,-5.56238 -0.005,-1.59008 -5.7281,-7.27954 -7.70533,-7.66032 -2.45881,-0.47353 -18.30349,-16.10496 -22.02507,-21.72865 -2.81851,-4.25905 -3.11626,-4.38976 -5.69847,-2.5016 -1.72827,1.26374 -1.69214,1.51829 0.76896,5.41692 1.42035,2.24997 2.89659,5.36575 3.28054,6.92394 0.70325,2.854 2.98319,6.9824 4.87813,8.83309 4.69424,4.5846 5.76808,6.47638 4.52587,7.97316 -1.04828,1.26309 -0.7232,3.10129 1.85322,10.47942 1.71848,4.9212 3.1279,10.88258 3.13205,13.24753 0.004,2.36494 0.51063,7.22489 1.12549,10.79989 1.48723,8.64724 1.24636,11.69573 -1.64807,20.85823 -3.26486,10.33511 -7.435,16.5045 -12.53557,18.54534 -4.42218,1.76941 -7.9494,2.07788 -7.9494,0.69521 z"
     id="path2987"
     inkscape:connector-curvature="0" />
</svg>
