<?xml version="1.0" encoding="UTF-8" standalone="no"?>
<!-- Created with Inkscape (http://www.inkscape.org/) -->

<svg
   xmlns:dc="http://purl.org/dc/elements/1.1/"
   xmlns:cc="http://creativecommons.org/ns#"
   xmlns:rdf="http://www.w3.org/1999/02/22-rdf-syntax-ns#"
   xmlns:svg="http://www.w3.org/2000/svg"
   xmlns="http://www.w3.org/2000/svg"
   xmlns:sodipodi="http://sodipodi.sourceforge.net/DTD/sodipodi-0.dtd"
   xmlns:inkscape="http://www.inkscape.org/namespaces/inkscape"
   id="svg2"
   version="1.1"
   inkscape:version="0.48.2 r9819"
   width="884"
   height="1156"
   sodipodi:docname="bluefairybook00langiala_0431newheadd.png">
  <metadata
     id="metadata8">
    <rdf:RDF>
      <cc:Work
         rdf:about="">
        <dc:format>image/svg+xml</dc:format>
        <dc:type
           rdf:resource="http://purl.org/dc/dcmitype/StillImage" />
        <dc:title></dc:title>
      </cc:Work>
    </rdf:RDF>
  </metadata>
  <defs
     id="defs6" />
  <sodipodi:namedview
     pagecolor="#ffffff"
     bordercolor="#666666"
     borderopacity="1"
     objecttolerance="10"
     gridtolerance="10"
     guidetolerance="10"
     inkscape:pageopacity="0"
     inkscape:pageshadow="2"
     inkscape:window-width="1920"
     inkscape:window-height="1176"
     id="namedview4"
     showgrid="false"
     inkscape:zoom="0.816609"
     inkscape:cx="442"
     inkscape:cy="578"
     inkscape:window-x="0"
     inkscape:window-y="24"
     inkscape:window-maximized="1"
     inkscape:current-layer="svg2" />
  <path
     style="fill:#000000"
     d="m 645.94582,1148.4569 -4.7788,-1.2852 -2.6001,-2.3973 -2.6001,-2.3973 -1.4278,-3.3536 -1.4279,-3.3536 0.6788,-3.1464 c 0.9778,-4.5326 3.7505,-9.6383 7.99,-14.7127 2.0344,-2.435 5.1479,-6.6924 6.9189,-9.461 l 3.22,-5.0336 4.9029,-4.3595 4.9029,-4.3595 5.5,-2.3949 c 3.025,-1.3172 7.9026,-3.5805 10.8392,-5.0294 l 5.3393,-2.6345 5.335,-6.0806 c 9.5804,-10.9195 24.8963,-28.5451 29.1336,-33.5271 l 4.1471,-4.8761 0.7083,-4.3387 c 0.3896,-2.3864 2.0276,-7.7138 3.6401,-11.8388 l 2.9317,-7.5 0.9924,-12.5 0.9925,-12.49998 1.4704,-6.06389 1.4704,-6.06389 0,-6.00349 0,-6.00349 -5.6709,-1.78757 -5.6708,-1.78757 -5.3338,-5.04449 -5.3338,-5.04448 -1.1078,-3.69754 -1.1078,-3.69753 5.1891,-15.40303 5.189,-15.40303 2.3349,-3.06729 2.3349,-3.0673 5.4537,-3.75609 5.4537,-3.75609 0.6348,-6.07331 0.6348,-6.0733 0,-27.98528 0,-27.98527 -1.9265,-3.11804 -1.9265,-3.11803 -3.1337,-11.5 -3.1336,-11.5 -5.8135,-11.5 c -6.5182,-12.8943 -10.5941,-23.53368 -11.9859,-31.2874 -0.5146,-2.86693 -1.4115,-7.0126 -1.9931,-9.2126 l -1.0574,-4 1.1017,-7.7612 1.1018,-7.76121 -1.238,-2.98879 -1.238,-2.9888 -1.4743,0 c -0.8109,0 -2.7552,0.91206 -4.3207,2.02679 -4.4444,3.1647 -9.2477,4.87373 -21.3004,7.5787 l -11.1619,2.50507 -6.7889,4.08295 -6.7889,4.08296 -6.7111,2.43123 c -3.6912,1.33718 -12.7357,5.16669 -20.0991,8.51003 l -13.3879,6.07879 -2.7995,-0.0796 c -3.5289,-0.10034 -5.2839,-1.05101 -13.3424,-7.22751 l -6.5097,-4.98941 -1.8492,0 -1.8492,0 -2.5469,2.75 c -1.4008,1.5125 -4.3754,5.48687 -6.6102,8.83193 l -4.0633,6.08193 -10.8269,10.52166 c -5.9548,5.78691 -14.2018,13.58325 -18.3268,17.3252 -4.125,3.74194 -7.4722,7.07033 -7.4382,7.39641 0.034,0.32608 1.0259,2.63604 2.2041,5.13325 l 2.1422,4.54038 1.1725,9.45962 1.1724,9.45962 -0.6383,18.5 c -0.3511,10.175 -1.0643,22.01539 -1.5849,26.31197 l -0.9466,7.81198 -2.6196,8.58811 -2.6195,8.58811 2.7036,2.50692 2.7036,2.50693 1.8085,4.09299 1.8084,4.09299 0.6621,5.00387 0.662,5.00387 -1.0657,5.76473 -1.0656,5.76473 -3.4586,7.86632 -3.4587,7.86633 -0.6757,7.36508 -0.6757,7.36507 -2.4362,3.78904 -2.4362,3.78903 -3.21,1.95723 -3.2099,1.95722 -2.8019,0.004 -2.8019,0.004 -3.7758,-2.1731 -3.7759,-2.1731 -1.4717,0.56476 -1.4718,0.56476 -6.3769,11.85834 c -3.5074,6.52202 -8.853,16.8083 -11.8792,22.8583 l -5.5023,11 -0.4265,7.7353 -0.4266,7.7353 1.1737,6.7398 1.1737,6.7398 3.9819,10.0249 3.9819,10.0249 0.1,7.3106 0.1,7.3106 -2.0027,2.6894 -2.0027,2.6894 -10.7557,5.5 -10.7557,5.5 -34.1416,0.6112 -34.1416,0.6112 -6,1.5848 c -8.1697,2.1579 -28.60766,4.5723 -48.50002,5.7295 -9.075,0.5279 -20.55,1.3278 -25.5,1.7775 l -9,0.8176 -7.09216,-3.2733 c -7.82133,-3.6097 -8.91973,-4.5655 -9.94604,-8.6547 l -0.69899,-2.785 1.22872,-4.3885 1.22871,-4.3886 2.13988,-1.9814 2.13988,-1.9815 4.5,-1.1853 4.5,-1.1853 8,-4.3175 8,-4.3174 5,-1.4934 c 10.52487,-3.1436 36.95659,-15.1438 46.13392,-20.9452 2.2736,-1.4372 10.9153,-6.0354 19.2037,-10.2182 l 15.0699,-7.605 6.051,-5.1171 6.051,-5.1172 3.0773,-9.5886 c 1.6925,-5.2737 4.6154,-15.95833 6.4952,-23.7434 l 3.4181,-14.15537 0,-26.66008 0,-26.66009 -5.25,-9.57323 c -2.8875,-5.26528 -6.0375,-10.96654 -7,-12.66947 l -1.75,-3.09624 0,-3.29772 0,-3.29772 1.4039,-3.36009 1.4039,-3.36009 5.8461,-2.15948 5.8461,-2.15947 1.25,-1.63945 1.25,-1.63944 0.011,-14.05887 c 0.01,-7.73238 -0.494,-29.13387 -1.1113,-47.55887 l -1.1223,-33.5 2.0996,-5.93216 c 2.5846,-7.30272 6.7571,-14.28125 13.7608,-23.0152 l 5.3556,-6.67855 0.6233,-2.48361 0.6233,-2.48362 -0.5959,-0.59593 -0.5959,-0.59593 -1.4906,1.23704 -1.4905,1.23704 -1.0115,-0.34454 -1.0116,-0.34454 5.6308,-9.26378 5.6308,-9.26378 -0.6983,-0.69837 -0.6984,-0.69836 -1.941,1.21214 c -1.0675,0.66668 -2.397,1.21215 -2.9545,1.21215 l -1.0135,0 0,-1.13086 0,-1.13085 7.6519,-7.28859 7.652,-7.28858 -1.6143,-1.61438 -1.6144,-1.61438 0.9624,-2.53128 c 1.3255,-3.48634 1.3926,-3.40108 -2.6769,-3.40108 l -3.6393,0 0.5954,-5.02713 0.5954,-5.02713 2.6567,-5.91999 2.6567,-5.92 1.8941,-1.7141 c 1.0417,-0.94275 2.8679,-2.20404 4.0582,-2.80287 1.1903,-0.59883 2.3497,-1.65128 2.5764,-2.33878 l 0.4123,-1.25 -2.5833,0 -2.5833,0 7e-4,-2.25 8e-4,-2.25 2.8794,-6 2.8793,-6 6.0544,-8.31356 6.0544,-8.31357 0.6728,-3.0633 0.6728,-3.06329 -2.707,-2.15852 -2.7071,-2.15852 6.0899,-8.96462 c 3.3495,-4.93054 8.5783,-11.66462 11.6195,-14.96462 l 5.5295,-6 1.951,-5.20927 c 1.073,-2.86509 2.2442,-6.3773 2.6025,-7.8049 l 0.6514,-2.59563 6.8778,-5.48769 c 3.7828,-3.01823 6.8635,-5.80603 6.8461,-6.1951 -0.017,-0.38908 -0.6925,-1.58092 -1.5,-2.64854 l -1.4682,-1.94113 0,-2.34025 0,-2.34026 1.5,-0.5756 1.5,-0.57561 0,-1.37268 0,-1.37269 -3.7681,-1.92232 -3.768,-1.92231 -1.732,-3.63194 -1.7319,-3.63193 0,-2.44575 0,-2.44575 -4.0393,-2.06066 -4.0392,-2.06066 -1.8815,-3.09386 -1.8815,-3.09385 -1.1364,-6.52603 -1.1365,-6.52603 -1.4357,-2.77637 c -0.7896,-1.527 -1.8316,-3.02103 -2.3154,-3.32006 l -0.8798,-0.5437 -1.1525,11.23028 c -0.6339,6.17666 -1.3867,12.69279 -1.6727,14.48029 l -0.5202,3.25 -0.8297,0 -0.8296,0 -0.6283,-3.14131 -0.6283,-3.1413 1.0964,-9.01685 1.0963,-9.01685 -1.5053,-0.8424 -1.5052,-0.84239 -0.6749,-3.99421 c -0.3711,-2.19682 -1.0123,-4.2028 -1.4248,-4.45774 l -0.75,-0.46353 -2.2662,7.22613 -2.2662,7.22614 2.2272,3.77485 2.2272,3.77486 -0.6719,0.67193 -0.672,0.67193 -1.6403,-1.03472 c -0.9022,-0.56909 -2.5262,-2.74165 -3.6089,-4.82789 l -1.9685,-3.79317 1.6618,-4.63674 c 1.7246,-4.81212 2.0884,-8.83549 1.0449,-11.55495 l -0.607,-1.58179 -1.286,0 -1.2861,0 -0.607,1.58179 c -0.3338,0.86998 -0.6131,5.25748 -0.6206,9.75 -0.01,4.49251 -0.2769,9.14957 -0.5985,10.34901 l -0.5849,2.18081 -1.4015,-0.5378 -1.4014,-0.53779 0,2.98199 c 0,4.06905 -1.0949,9.23199 -1.9578,9.23199 l -0.7078,0 -1.2469,-5.75 c -1.5112,-6.96919 -1.5106,-7.61994 0.022,-22.92529 l 1.2192,-12.17528 -1.7495,-4.58111 -1.7496,-4.5811 -0.7681,0.47472 -0.7681,0.47472 -0.5808,7.68006 -0.5809,7.68007 -1.6782,1.6016 -1.6782,1.60161 0.6635,-8.04944 0.6636,-8.04945 -1.107,-6.92921 -1.1069,-6.92922 -2.5935,-3.52134 c -2.7625,-3.75076 -5.1921,-6.02134 -6.443,-6.02134 l -0.7657,0 3.4568,9.54961 3.4569,9.54962 0,3.15038 0,3.15039 -1.25,-1.24408 c -0.6875,-0.68424 -1.7445,-2.68674 -2.3487,-4.45 l -1.0987,-3.20592 -2.0616,0.29766 -2.0617,0.29767 -2.1664,-5.79767 c -1.1916,-3.18871 -3.3213,-7.92196 -4.7327,-10.51832 l -2.5662,-4.72066 -0.857,0.52967 -0.857,0.52968 0,10.94099 0,10.94098 -1.5,0 -1.5,0 0,-2.37788 c 0,-1.30783 -0.675,-3.99337 -1.5,-5.96788 l -1.5,-3.59 0.015,-6.28212 0.015,-6.28212 1.5073,-6.39455 1.5073,-6.39455 -0.5788,-0.57882 -0.5788,-0.57881 -2.6933,1.49432 -2.6933,1.49432 -3.3052,6.22904 -3.3051,6.22905 -1.3751,0 -1.375,0 0.8204,-2.86061 c 0.4512,-1.57334 1.3357,-3.82334 1.9654,-5 l 1.1449,-2.13939 -0.9137,0 c -0.5025,0 -2.9483,2.38155 -5.4351,5.29234 l -4.5214,5.29234 -2.4728,5.95766 c -1.36,3.27671 -3.0226,7.66846 -3.6947,9.75945 l -1.2219,3.80178 -1.1554,-0.41073 -1.1553,-0.41074 0.2173,-3.89105 0.2174,-3.89105 -1.5137,2 c -0.8325,1.1 -1.9962,3.9125 -2.5861,6.25 l -1.0724,4.25 -1.9882,0 -1.9883,0 0.6745,-1.75 c 0.3709,-0.9625 1.3602,-6.3929 2.1984,-12.06756 l 1.524,-10.31757 -0.6208,-2.47333 -0.6208,-2.47334 -0.9707,0.59992 -0.9706,0.59991 0,2.88197 0,2.88197 -1.1118,0.68713 -1.1119,0.68713 -0.8728,-1.37811 -0.8729,-1.37812 -0.015,-4.5066 c -0.01,-2.47863 -0.4571,-6.04699 -0.9971,-7.92969 l -0.9817,-3.42309 -1.2205,-0.75433 -1.2205,-0.75432 -0.7978,0.49303 -0.7977,0.49303 0,2.50673 0,2.50672 -1.192,2.18426 -1.192,2.18426 -1.1875,9.12567 -1.1875,9.12568 -2.6205,3.85646 c -1.4413,2.12105 -2.6205,4.41012 -2.6205,5.08681 0,0.6767 -0.9344,3.72758 -2.0763,6.77974 l -2.07633,5.54938 -1.01933,-0.62998 -1.01932,-0.62998 0.54692,-3.13189 c 0.3008,-1.72254 0.97652,-5.60689 1.50159,-8.63189 0.52508,-3.025 1.23297,-6.19061 1.57307,-7.03469 l 0.6184,-1.53468 -1.4926,-7.80103 -1.49259,-7.80102 1.46822,-6.97967 1.46827,-6.97966 0,-4.43463 0,-4.43462 -1.4265,0 -1.42645,0 -2.73956,5.75 c -1.50675,3.1625 -3.78094,7.1708 -5.05375,8.90733 -3.1912,4.35383 -12.87934,23.01814 -14.32739,27.60188 l -1.18758,3.75921 -0.91941,-0.56823 -0.91941,-0.56822 -0.0271,-3.19099 -0.0271,-3.19098 4.77714,-9.39725 4.77713,-9.39724 -1.25,-0.43609 -1.25,-0.43609 0.01,-1.16666 c 0.005,-0.64167 1.56956,-3.12888 3.47605,-5.52715 l 3.46636,-4.36047 -0.97606,-1.82378 c -0.53719,-1.00309 -0.97642,-2.73771 -0.97642,-3.85473 l 0,-2.03095 3.136,-3.57171 3.136,-3.5717 0.88417,-4.71309 0.88416,-4.71309 -0.64021,-4.29332 -0.6402,-4.29332 -1.0152,0.3384 -1.01519,0.3384 -3.68247,8.45492 c -2.02536,4.65021 -4.64516,10.00465 -5.82176,11.89877 l -2.13929,3.44386 -0.66363,-1.72938 -0.66362,-1.72938 2.50875,-5.71447 c 1.37981,-3.14297 3.26689,-8.06687 4.19352,-10.94201 l 1.68478,-5.22753 -0.70004,-1.13268 -0.70003,-1.13268 -3.33069,0.54049 -3.33069,0.5405 -7.04218,4.06971 c -3.8732,2.23835 -10.07968,5.83015 -13.79218,7.9818 l -6.75,3.91207 -10,10.20578 -10,10.20577 -2,0.74823 c -1.1,0.41152 -4.5468,1.06078 -7.65956,1.4428 l -5.65956,0.69458 -5.84044,3.59885 c -3.21224,1.97937 -7.38902,4.42245 -9.28173,5.42907 l -3.44128,1.83022 -1.78405,4.69989 -1.78405,4.6999 -1.65201,1.56038 -1.65202,1.56038 0.55732,-3 c 0.30652,-1.65 0.88139,-3.83809 1.27748,-4.86243 l 0.72016,-1.86243 -3.40013,0.6887 c -1.87007,0.37879 -5.32091,1.39368 -7.66853,2.25532 l -4.26841,1.56661 -6.58139,-0.61458 -6.5814,-0.61458 -7.07453,2.4717 -7.07453,2.47169 -3.67673,0 -3.67673,0 -4.76439,2.53325 -4.76438,2.53325 -1.21372,-1.65986 -1.21372,-1.65986 -1.92084,1.02254 -1.92083,1.02254 -8,-0.84201 -8,-0.84201 -29.16087,-0.0539 -29.16087,-0.0539 -9.37544,4.53264 -9.37543,4.53263 -8.963685,0.21552 -8.9637,0.21552 -5.59654,-0.8678 -5.59654,-0.8678 -0.60191,5.08222 -0.60191,5.08221 -1.31838,2.51623 -1.31839,2.51622 1.01684,11.83534 1.01683,11.83535 1.96463,2.93586 1.96462,2.93586 0.73994,6.5 c 1.09713,9.63769 2.5203,15.56962 5.74928,23.96367 l 2.89904,7.53633 4.18759,18.87349 c 2.30318,10.38041 5.00859,21.25976 6.01204,24.17632 l 1.824435,5.30283 1.10658,11.32368 c 1.7077,17.47489 3.43615,26.84007 7.71902,41.82368 1.33629,4.675 2.8378,11.65 3.33669,15.5 l 0.90707,7 2.57218,5.30241 2.57217,5.3024 1.96535,8.1976 1.96535,8.19759 0.007,4.1904 0.007,4.19041 2.63045,7.30959 c 1.44675,4.02028 3.92764,9.74648 5.51309,12.72489 5.34945,10.04944 11.84419,31.13462 13.3824,43.44601 l 0.70451,5.6387 0.85139,0 c 0.46827,0 3.1239,2.0183 5.90141,4.48512 l 5.05,4.48512 2.73338,0.57108 c 9.5472,1.99466 16.28008,3.83819 19.98337,5.47163 l 4.25,1.87459 -0.0108,4.30623 -0.0108,4.30623 -1.56329,5 -1.56328,5 -0.5753,25.29863 -0.5753,25.29862 4.85186,10.11618 4.85187,10.11618 0.81419,12.5852 c 0.81877,12.65604 1.9095,20.47127 3.80243,27.24515 l 1.02276,3.65997 4.95022,3.17655 4.95023,3.17655 3.12621,3.56056 3.12621,3.56056 1.8947,4.42014 1.89469,4.42014 4.37201,5.68279 c 2.4046,3.12553 6.81093,10.08166 9.79183,15.45807 l 5.41983,9.77529 6.76173,9.22466 c 8.51446,11.6159 16.55553,24.4665 17.3483,27.7247 0.33456,1.375 2.30048,5.65 4.36871,9.5 4.48809,8.3545 4.71674,9.3658 5.84187,25.8362 l 0.87686,12.8361 -0.50047,1.9139 -0.50048,1.9138 -1.22286,0 -1.22285,0 -1.16051,-2.5471 c -0.63833,-1.4008 -1.16056,-3.1783 -1.16056,-3.9498 0,-0.7716 -1.403,-3.4817 -3.11777,-6.0225 l -3.11777,-4.6197 -2.63223,-0.9373 c -1.44773,-0.5155 -3.82666,-1.6092 -5.28652,-2.4305 l -2.65429,-1.4931 -5.03061,0 -5.03061,0 -2.78529,-1.059 -2.78529,-1.0589 -4.88235,-0.038 -4.88234,-0.038 -3.43474,3.3291 -3.43473,3.3291 -2.40187,5.0177 -2.40186,5.0177 -2.96266,1.6471 -2.96265,1.6472 -2.39107,4.7946 -2.39107,4.7947 -6.41171,4.9218 -6.4117,4.9219 -5.54544,-0.6349 c -3.04998,-0.3491 -7.76344,-1.3632 -10.47435,-2.2534 l -4.92891,-1.6186 -11.07109,0.5808 -11.07108,0.5809 -5,1.5362 -5,1.5362 -6.07018,7.7727 c -3.33861,4.2751 -8.25353,10.9228 -10.92205,14.7728 -5.34223,7.7075 -9.44265,12.5 -10.69486,12.5 l -0.81291,0 0,-2.9404 0,-2.9404 2.62399,-7.3096 c 1.4432,-4.0203 3.6932,-9.4321 5,-12.0264 1.30681,-2.5942 2.37601,-5.1817 2.37601,-5.75 l 0,-1.0332 -1.25757,0 -1.25756,0 -8.99244,8.1264 c -4.945825,4.4695 -11.467425,9.8227 -14.492425,11.896 -3.025,2.0733 -8.875,6.7429 -13,10.3768 l -7.5,6.6071 -2.29657,0.6169 -2.29657,0.617 -0.52717,-0.5272 -0.52716,-0.5271 1.54174,-2.9814 1.54174,-2.9814 8.67324,-7.8616 c 12.43431,-11.2706 15.1548,-14.0387 22.01358,-22.3986 3.367555,-4.1046 8.655055,-10.4868 11.749995,-14.1828 l 5.62717,-6.7199 0,-7.298 0,-7.2979 2.5,-3.6791 c 1.375,-2.0235 2.5,-3.978 2.5,-4.3434 l 0,-0.6644 -3.71302,0.6966 c -3.72911,0.6996 -27.415485,8.1569 -49.786975,15.6747 -6.6,2.2179 -13.35,4.246 -15,4.5069 l -3,0.4743 3,-2.6505 c 1.65,-1.4578 6.92121,-5.1995 11.71381,-8.315 l 8.7138,-5.6644 7.40497,-6.5 7.40498,-6.5 2.38122,-3.8326 2.38122,-3.8325 2.85883,-1.4994 2.85883,-1.4994 8.470505,-8.132 c 4.65878,-4.4727 8.91613,-8.9647 9.46078,-9.9824 l 0.99028,-1.8504 -2.6208,-3.436 c -3.32264,-4.3562 -5.09453,-8.7007 -5.93756,-14.55843 l -0.66535,-4.623 2.39367,-2.87693 c 2.73333,-3.28485 4.69081,-6.75312 4.69081,-8.31088 l 0,-1.06574 -1.25,0.0278 -1.25,0.0278 -10.999995,9.05725 c -6.05,4.98145 -16.72043,13.77763 -23.71207,19.54703 l -12.71207,10.4898 -9.09907,10.9859 -9.09907,10.9859 -4.63464,2.9392 c -2.54905,1.6167 -5.22154,2.9393 -5.93886,2.9393 l -1.30422,0 0,-2.0497 c 0,-4.4579 6.44791,-14.3049 22.88569,-34.9503 6.34967,-7.975 13.18192,-16.29998 15.18277,-18.49998 5.48652,-6.03258 10.93154,-13.48898 10.93154,-14.96961 l 0,-1.31641 -1.57939,-0.60607 c -0.86867,-0.33334 -7.28117,-1.30511 -14.25,-2.15948 -6.96884,-0.85437 -13.68311,-1.80357 -14.92061,-2.10933 l -2.25,-0.55592 0,-1.29185 0,-1.29185 4.75,-1.08016 c 2.6125,-0.59409 8.8,-1.76253 13.75,-2.59654 l 9,-1.51639 6.62152,-0.003 6.62151,-0.003 0.541,-7.75 0.541,-7.75 1.12162,-3.70338 1.12162,-3.70339 4.21586,-5.15795 c 2.31873,-2.83688 5.006795,-6.39281 5.973495,-7.90207 l 1.75762,-2.7441 -2.04534,-2.60023 c -2.09017,-2.65762 -17.088025,-14.61175 -20.873235,-16.63754 l -2.09667,-1.1221 0,-1.4058 c 0,-0.77319 0.42809,-1.67037 0.9513,-1.99373 l 0.95131,-0.58794 8.82565,2.48144 c 4.85411,1.36479 10.635235,2.7708 12.846945,3.12446 l 4.0213,0.64304 1.24045,-1.49465 1.24044,-1.49464 -1.63104,-9.8509 c -2.18365,-13.18848 -5.15118,-24.85199 -7.48896,-29.43442 l -1.916635,-3.75692 -4.27038,-2.85441 -4.27038,-2.85441 -3.16955,-8.97538 c -1.74325,-4.93645 -3.96914,-12.26377 -4.94641,-16.28292 l -1.77686,-7.30755 1.75946,-3.26713 1.75947,-3.26713 -0.67126,-2.6745 -0.67125,-2.6745 -2.45018,-2.25082 c -1.3476,-1.23795 -2.93982,-3.37582 -3.53826,-4.75082 l -1.08808,-2.5 -0.7547,-16.5 -0.75469,-16.5 -2.501,-14 -2.50099,-14 -0.64427,-10 c -0.35435,-5.5 -1.32802,-16.075 -2.16371,-23.5 l -1.51943,-13.5 -1.99004,-7.88555 c -1.09453,-4.33706 -2.85248,-12.66206 -3.90656,-18.5 -2.18834,-12.11995 -5.49938,-23.70588 -9.45671,-33.09078 l -2.73087,-6.47634 -0.89653,-5.52366 c -1.96995,-12.13714 -2.59694,-14.97088 -3.58891,-16.22045 l -1.03456,-1.30322 -0.52914,-8.12812 -0.52914,-8.12811 -1.6256,-2.48098 -1.6256,-2.48098 0.55795,-1.454 0.55796,-1.454 -2.03527,-1.84189 -2.03527,-1.8419 0,-1.38485 c 0,-0.76166 0.93353,-3.21472 2.07452,-5.45124 l 2.07452,-4.06639 -2.07452,-2.20822 -2.07452,-2.20822 0,-2.05069 0,-2.05069 -1.97245,-2.50757 -1.97245,-2.50757 1.04626,-5.93973 1.04626,-5.93973 -2.07381,-6.15601 -2.07381,-6.15602 0,-5.96059 0,-5.96058 -5.60079,-1.6282 -5.6008,-1.62819 -2.37033,-2.55764 -2.37034,-2.55763 -1.93299,-5.13513 C 9.2875748,498.68793 7.0200848,493.36962 5.3118648,489.69379 l -3.10587,-6.68334 -0.62965,-4.59379 -0.62965004,-4.59379 1.73815004,-3.85454 1.73816,-3.85454 -1.15408,-2.15642 -1.15407,-2.15641 0.61633,-4.71192 c 0.33898,-2.59156 1.23689,-6.51192 1.99536,-8.71192 0.75846,-2.2 1.51862,-5.12213 1.68923,-6.49361 l 0.3102,-2.49361 10.9675902,-7.50639 10.96758,-7.50639 2.34754,-3.5 2.34754,-3.5 2.68488,-1.3716 c 1.47668,-0.75437 3.67691,-2.27609 4.8894,-3.3816 l 2.20454,-2.01 11.29546,0.72773 11.29547,0.72774 3.34102,1.39087 3.34102,1.39087 8.15898,-0.19068 8.15898,-0.19068 9.71093,4.80992 9.710915,4.80992 10.28907,-3.1112 c 5.659,-1.71115 15.91408,-4.83644 22.78908,-6.94507 l 12.5,-3.83388 0.34237,-1.76009 0.34238,-1.76009 2.65762,0.63912 c 3.38997,0.81524 3.55074,0.81493 10.40763,-0.0205 l 5.75,-0.70058 0,-0.70728 c 0,-0.389 -1.0125,-1.19559 -2.25,-1.79242 l -2.25,-1.08513 6.12756,-0.0677 6.12755,-0.0677 1.16418,-1.40275 1.16419,-1.40276 -1.29174,-0.5183 -1.29174,-0.5183 2.70295,-0.0789 c 1.48662,-0.0434 3.86077,-0.60649 5.27589,-1.25126 l 2.57295,-1.17232 -0.35422,-1.07768 -0.35423,-1.07769 -2.42167,-0.33468 c -1.33192,-0.18407 -2.81641,-0.71381 -3.29887,-1.1772 l -0.87721,-0.84253 4.37721,-1.15452 c 2.40746,-0.63498 6.1772,-2.1853 8.3772,-3.44514 2.2,-1.25985 5.07127,-2.62205 6.38059,-3.02712 1.30933,-0.40506 4.90933,-2.27251 8,-4.14987 l 5.61941,-3.41339 5.23152,-1.54336 5.23151,-1.54336 0.62118,-1.00509 0.62118,-1.00508 -7.1027,0.69988 -7.10269,0.69988 0,-1.16059 0,-1.1606 1.25,-0.32599 c 0.6875,-0.17929 3.79177,-1.12271 6.89838,-2.09649 l 5.64838,-1.77051 2.32413,1.62788 c 1.27827,0.89533 2.78649,1.62 3.35162,1.61037 l 1.02749,-0.0175 -5.25,-4.88471 -5.25,-4.88472 0,-1.09777 0,-1.09778 0.94704,0 c 0.52088,0 3.90955,2.24232 7.5304,4.98292 l 6.58336,4.98293 5.2196,-1.13383 5.2196,-1.13383 -4.39227,-1.09909 -4.39227,-1.0991 -1.59904,-2.42974 -1.59904,-2.42973 2.49131,0.75385 c 1.37022,0.41462 4.62881,1.00276 7.24131,1.30697 l 4.75,0.55311 0,-2.15862 0,-2.15861 1.56722,-0.6014 1.56721,-0.6014 1.02589,1.02589 1.02588,1.02588 -1.65176,2.52089 -1.65175,2.5209 1.80865,0.53585 c 0.99476,0.29472 4.99716,0.83428 8.89421,1.19901 l 7.08555,0.66316 6.10336,-5.44592 c 3.35685,-2.99526 7.88236,-7.65861 10.0567,-10.36301 5.91726,-7.35975 17.7188,-18.48535 26.16884,-24.67001 4.125,-3.01912 8.21039,-6.33481 9.07864,-7.36819 2.22591,-2.64925 5.73378,-12.48411 6.49231,-18.20218 l 0.64024,-4.82642 -2.49966,-4.93284 -2.49966,-4.93284 -2.85593,-2.8823 -2.85594,-2.8823 -3.21788,-1.36 -3.21788,-1.36 -3.18711,0 -3.18711,0 1.69731,1.8755 1.6973,1.8755 -3.02664,2.54675 -3.02663,2.54675 0.84405,4.51801 0.84406,4.51802 -1.05974,1.05974 c -0.58285,0.58283 -1.77973,1.05971 -2.65973,1.05971 -0.88,0 -2.0275,0.41993 -2.55,0.93317 l -0.95,0.93318 -3.87495,0.31682 -3.87496,0.31683 -1.12897,3.5 -1.12898,3.5 -2.49607,0.15146 c -1.37284,0.0833 -2.81361,0.1958 -3.20171,0.25 l -0.70564,0.0985 1.45564,4.12573 c 0.8006,2.26915 1.45564,5.1244 1.45564,6.34501 l 0,2.21928 -2,1.80998 -2,1.80998 0,-2 0,-2 -1.75183,-1.58539 c -0.96351,-0.87196 -2.89545,-2.02019 -4.29321,-2.55161 l -2.54138,-0.96624 -3.0851,1.29719 -3.08509,1.29718 -1.8717,2.71403 c -1.02943,1.49272 -3.34276,4.26104 -5.14074,6.15183 l -3.26905,3.43779 -1.55238,-1.55238 c -0.85381,-0.85377 -2.17287,-1.55234 -2.93126,-1.55234 l -1.37888,0 -0.88055,1.57346 c -0.48431,0.86541 -1.96917,2.1109 -3.29969,2.76776 l -2.41914,1.19429 -1,2.27397 -1,2.27397 -2.19316,0.55242 -2.19317,0.55242 -1.05683,-0.65316 c -0.58126,-0.35924 -1.05684,-1.30161 -1.05684,-2.09415 l 0,-1.44098 1,0 1,0 0,-1.36364 0,-1.36363 -4.25,-0.0288 -4.25,-0.0288 -2.66874,2.50165 -2.66874,2.50164 -1.09757,-0.67834 -1.09757,-0.67834 0.5094,-0.82422 0.5094,-0.82423 -2.2708,-0.56994 -2.2708,-0.56993 -2.77272,-2.8941 -2.77273,-2.8941 2.04425,-3.46474 c 1.12433,-1.90561 3.39703,-7.36895 5.05043,-12.14076 l 3.00619,-8.67597 0,-6.54962 0,-6.54963 -2.51421,-2.33009 -2.51422,-2.3301 -2.73578,-0.61001 c -1.50469,-0.33551 -3.61621,-1.29553 -4.69227,-2.13338 l -1.95648,-1.52337 2.20648,-1.54548 2.20648,-1.54548 0,-1.85996 0,-1.85996 -1.14739,-0.38247 -1.14739,-0.38246 3.70899,-8.63543 3.70899,-8.63543 -3.5616,-5.17765 -3.5616,-5.17765 0,-2.17274 0,-2.17273 3.51807,-8.62916 3.51807,-8.62916 1.02603,-5.55028 1.02603,-5.55028 -1.51986,-2.93907 -1.51985,-2.93907 -3.72045,-2.29937 c -2.04624,-1.26464 -5.20715,-3.60471 -7.02424,-5.20013 l -3.3038,-2.90077 -0.0153,-4.14641 -0.0153,-4.14641 -0.73468,-1.11522 c -0.40408,-0.61337 -1.74719,-1.43119 -2.98469,-1.81739 l -2.25,-0.70217 0.0278,-1.18261 c 0.0153,-0.65043 1.3653,-2.95027 3,-5.11075 l 2.97217,-3.92814 0,-5.8876 0,-5.8876 -1.03518,-1.93426 -1.03519,-1.93426 -1.82996,0 -1.82995,0 -2.68752,2.114 -2.68752,2.11401 -0.61374,-0.61374 -0.61374,-0.61374 3.61618,-5.25026 c 4.40725,-6.39882 9.69288,-12.24513 11.71662,-12.95948 l 1.5,-0.52948 -1.38579,-2.33452 -1.38579,-2.33451 2.21226,-1.46889 c 1.21675,-0.80789 4.53546,-3.09194 7.37491,-5.07567 l 5.16265,-3.60678 3.53801,-5.33346 3.538,-5.33346 3.97288,-2.22722 c 4.4941,-2.51943 11.33615,-4.7815 19.5923,-6.47746 l 5.61943,-1.15433 9.04068,-6.854419 9.04069,-6.854426 4.02265,-0.679621 4.02264,-0.679621 4.60551,2.037236 4.60551,2.037236 2.69138,-1.02326 c 3.1557,-1.199797 4.19572,-2.578293 4.21677,-5.58912 l 0.0153,-2.190983 1.07659,-0.665369 1.07659,-0.665369 1.96236,2.106352 1.96237,2.106352 7.96105,0 7.96104,0 0,0.900259 0,0.900259 -4.95047,1.1876 -4.95047,1.1876 -1.17198,1.412141 -1.17197,1.412141 2.98596,0 c 1.64227,0 5.30176,-0.43919 8.1322,-0.97597 l 5.14626,-0.975964 7.74023,1.354454 c 4.25713,0.74495 9.31524,2.0182 11.24024,2.829433 l 3.5,1.47498 3.86635,4.396529 c 2.12649,2.4181 5.72649,7.29502 8,10.8376 l 4.13365,6.44105 3.76535,2.99625 3.76536,2.99624 6.23464,0.42145 6.2347,0.42144 0.8772,0.81846 0.8772,0.81846 -3.8772,1.00628 c -2.1325,0.55345 -4.967,1.14871 -6.29892,1.32279 l -2.42167,0.31652 -0.46254,1.40262 -0.46253,1.40262 3.8842,-0.68013 c 2.13636,-0.37407 6.13426,-0.92185 8.88426,-1.21728 l 5,-0.53714 -1.5,0.93594 c -0.825,0.51477 -3.975,1.50333 -7,2.1968 -3.025,0.69348 -6.36695,1.70972 -7.42649,2.25833 l -1.92643,0.99746 2.90159,1.5203 c 1.59583,0.83616 5.14603,2.11237 7.88923,2.83602 l 4.9877,1.31573 2.2872,-0.57404 2.2872,-0.57405 0,0.79396 c 0,0.43668 -0.9785,1.83546 -2.1744,3.10841 l -2.1743,2.31445 1.4243,0.0222 1.4244,0.0222 -2.5,1.9556 -2.5,1.95553 1.75,0.0222 1.75,0.0222 0,0.94098 c 0,0.51754 -0.4615,1.22618 -1.0255,1.57476 l -1.0255,0.63376 4.5255,5.03341 4.5255,5.0334 0,8.95086 0,8.95086 -1,-0.61803 -1,-0.61803 0,2.91944 c 0,1.6057 -0.2916,5.04682 -0.648,7.64695 l -0.648,4.72749 1.898,-0.25533 1.898,-0.25533 6,5.94646 6,5.94645 9.4875,6.33603 c 11.1285,7.43182 12.5779,8.0734 20.5125,9.07982 l 6,0.76104 6.466,-0.89402 6.466,-0.89402 2.2488,-1.47347 c 1.2368,-0.81035 2.7778,-1.47341 3.4244,-1.47341 1.2472,0 4.1567,-1.27116 18.0891,-7.90311 l 8.6943,-4.13859 4.6218,-6.07731 4.6219,-6.0773 -1.701,-1.8796 c -0.9356,-1.03378 -3.9787,-3.01461 -6.7625,-4.40184 l -5.0615,-2.52225 -2.6787,0 c -1.4732,0 -4.1201,0.28829 -5.8819,0.64064 l -3.2032,0.64065 -0.8407,2.2111 -0.8406,2.2111 -4.3311,2.0178 c -2.3821,1.10979 -5.4561,2.36131 -6.8311,2.78116 l -2.5,0.76335 1.9049,-2.1329 1.905,-2.1329 -2.905,-0.0391 -2.9049,-0.0391 3.25,-1.41259 3.25,-1.41258 0,-1.04828 0,-1.04827 -1.8743,0 c -1.0309,0 -3.6597,0.62994 -5.8419,1.39987 l -3.9677,1.39986 -7.6581,0.71762 -7.658,0.71763 0,-1.09844 0,-1.09844 2.25,-0.42294 c 1.2375,-0.23262 4.0158,-0.80369 6.174,-1.26905 l 3.9241,-0.84611 0.4609,-1.40504 0.461,-1.40503 -8.2125,0.68489 -8.2125,0.6849 0.6365,-1.02986 0.6365,-1.02986 -6.404,0 -6.4041,0 -1.7586,-1.94332 -1.7587,-1.94332 -2.9137,-0.63995 -2.9137,-0.63996 -1.4167,-2.73956 c -0.7792,-1.50675 -2.1459,-3.34477 -3.0372,-4.08448 -0.8913,-0.73971 -2.003,-2.05693 -2.4705,-2.92717 l -0.8499,-1.58224 8.1545,0.26906 8.1546,0.26906 -2.3608,-2.01906 -2.3608,-2.01906 -1.4459,0 -1.446,0 1.5271,-2.18014 1.527,-2.18014 -3.0476,-5.32672 -3.0477,-5.32673 2.0514,-3.31912 2.0513,-3.31912 -1.174,-1.17402 c -0.6457,-0.64578 -1.759,-1.17409 -2.474,-1.17409 l -1.3,0 -0.1107,-1.25 c -0.061,-0.6875 -0.043,-2.15221 0.039,-3.25492 l 0.1501,-2.00492 -1.3971,-1.91062 -1.3971,-1.91063 -4.2671,1.70739 -4.2672,1.70739 -0.6147,-0.61465 -0.6146,-0.61466 5.4894,-4.90215 c 3.0192,-2.69618 6.952,-6.22486 8.7395,-7.84151 l 3.25,-2.93936 0.01,-6.83568 0.01,-6.83568 1.0286,-3.70338 1.0285,-3.703389 4.2159,-5.164634 c 2.3187,-2.840549 5.2141,-6.574026 6.4341,-8.296617 l 2.2175,-3.131982 0.2817,-2.458443 0.2818,-2.458443 -3.1967,-1.541557 -3.1967,-1.541557 0.1967,-1 0.1967,-1 -2,-0.294787 c -1.1,-0.162133 -3.125,-1.178567 -4.5,-2.258742 l -2.5,-1.963954 4.3854,0.658207 4.3854,0.658207 -0.4619,-3.147448 -0.462,-3.147447 1.9631,1.747982 1.963,1.747982 -0.7142,-4.859217 -0.7141,-4.859217 1.3276,0.431865 1.3277,0.431864 1.5305,3.188617 1.5305,3.188618 4.086,-6.261265 c 2.2474,-3.443696 6.2228,-10.086265 8.8343,-14.761265 l 4.7482,-8.5 3.1352,-3.367143 3.1353,-3.367142 -3.2004,1.617142 c -1.7602,0.889429 -3.452,1.617143 -3.7596,1.617143 -0.3076,0 0.6383,-2.290309 2.102,-5.089575 l 2.6612,-5.089576 1.5984,-0.559437 c 0.8791,-0.30769 2.6109,-1.470822 3.8484,-2.584738 l 2.25,-2.025302 0,-2.025686 0,-2.0256858 1.2,1.1999998 c 0.66,0.66 1.56,1.2 2,1.2 l 0.8,0 0,-2.0628578 0,-2.062858 1.75,0.178012 c 0.9625,0.09791 1.975,0.08164 2.25,-0.03614 0.275,-0.117783 3.5733,-0.37842 7.3296,-0.579194 3.7563,-0.200773 9.1893,-0.801252 12.0733,-1.3343965 l 5.2438,-0.969353 4.4266,1.012496 4.4267,1.0124965 20,-0.04462 c 11,-0.02454 25.185,-0.08516 31.5223,-0.1347 l 11.5224,-0.09008 8.4434,2.667246 8.4433,2.6672468 10.1756,5.497909 10.1756,5.49791 1.5649,3.640441 c 0.8606,2.002242 5.7802,10.265391 10.9323,18.362554 l 9.3676,14.722113 1.7745,8.277887 1.7746,8.277886 2.4017,5.922408 c 1.321,3.257327 2.4018,6.069827 2.4018,6.250002 0,0.180176 -0.9142,0.327592 -2.0314,0.327592 l -2.0314,0 -0.6058,1.578552 -0.6057,1.578552 3.1934,4.530529 3.1934,4.530519 -1.595,1.76244 -1.595,1.76243 3.3089,4.33815 3.3088,4.33815 1.9799,0.54034 1.9799,0.54034 0.013,5 c 0.01,2.75 0.371,6.00063 0.809,7.22363 l 0.7962,2.22364 -3.6671,-1.53222 -3.6671,-1.53221 -0.5234,0.5234 -0.5234,0.52339 -1.7675,-0.94593 -1.7675,-0.94593 -1.6532,3.73111 c -0.9093,2.05212 -3.2004,6.17885 -5.0913,9.17051 l -3.4379,5.43939 -0.6142,3.27371 -0.6141,3.2737 2.1991,3.55832 2.1992,3.55831 3.3783,2.57681 3.3784,2.5768 3.2769,0.0771 3.2768,0.077 11,-4.86819 11,-4.8682 7.2554,-0.41664 7.2555,-0.41665 6.7445,1.72508 c 8.6191,2.20453 19.2326,6.04713 26.2446,9.50178 l 5.5,2.70972 4,0.54774 4,0.54774 12,6.64149 12,6.64149 11.5,11.31921 11.5,11.31921 7.5,5.4852 c 9.426,6.8938 21.1764,17.44451 26.8835,24.13877 2.411,2.82794 5.6496,6.04172 7.197,7.14172 l 2.8135,2 1.053,2.29705 c 0.5791,1.26338 1.053,3.55675 1.053,5.09637 l 0,2.7993 1.5732,3.15364 1.5732,3.15364 1.392,0 1.392,0 3.2848,2.82044 c 1.8066,1.55125 6.6906,5.151 10.8533,7.99946 l 7.5685,5.17901 7.4315,7.99998 c 19.3614,20.8426 23.7533,25.72727 25.7647,28.65548 l 2.1668,3.15437 0,1.71677 0,1.71676 5.25,9.09346 5.25,9.09345 0.3424,8.59629 0.3424,8.59629 -1.5856,3.43912 c -0.8721,1.89152 -3.6116,6.2774 -6.0878,9.74641 l -4.5021,6.30729 -0.5666,2.69271 c -0.5779,2.74692 -3.389,9.58198 -8.7158,21.19271 l -2.9821,6.5 -10.5326,10.29965 -10.5326,10.29964 -9.2041,5.49254 -9.204,5.49254 -9.7307,1.95746 c -10.4475,2.10165 -10.3976,2.08285 -15.3134,5.77323 l -3.2726,2.45677 5.299,5.61408 c 5.4324,5.75542 11.4566,13.6736 13.7814,18.11409 0.7198,1.375 1.9187,5.425 2.6642,9 l 1.3554,6.5 2.8714,6 c 1.5792,3.3 4.728,10.13411 6.9972,15.18691 l 4.1259,9.18692 0.089,26.31308 c 0.049,14.4722 -0.012,27.91675 -0.1359,29.87678 l -0.2252,3.5637 2.4974,4.9363 c 1.3736,2.71497 3.4615,8.06297 4.6399,11.88444 l 2.1426,6.94812 0.8972,8.55188 0.8973,8.55187 2.7794,6 2.7794,6 0.6946,13 0.6947,13 2.5427,13 c 1.3985,7.15 2.8611,16.5485 3.2503,20.88555 l 0.7075,7.88554 -2.9002,-0.5212 c -1.5951,-0.28666 -4.3519,-1.11722 -6.1262,-1.84569 l -3.2259,-1.3245 -2.7741,2.60268 c -3.4,3.18998 -11.278,7.20582 -17.2908,8.81404 -2.4658,0.65952 -5.0168,1.63622 -5.669,2.17045 l -1.1857,0.97133 -0.6613,3.01081 -0.6613,3.01082 0.7043,7.95591 0.7043,7.95591 1.1427,1.21417 1.1428,1.21418 0,7.54044 0,7.54045 3.25,4.10346 3.25,4.10346 0,2.02339 0,2.02338 4.75,1.69088 c 9.2891,3.3067 10.25,3.72589 10.25,4.4719 l 0,0.75472 -6.25,-1.34091 c -3.4375,-0.7375 -6.8125,-1.35672 -7.5,-1.37604 l -1.25,-0.0351 0,0.96482 c 0,1.47043 4.0386,3.36164 8.5,3.98041 l 4,0.55477 -0.5,1 -0.5,1 -3.5,-0.0596 c -1.925,-0.0328 -4.7375,-0.41907 -6.25,-0.85841 l -2.75,-0.79881 0,1.53698 0,1.53698 1.4817,1.48175 c 0.815,0.81497 3.6275,2.24127 6.25,3.16956 2.6225,0.9283 5.6683,2.0632 6.7683,2.522 l 2,0.83419 -6.3067,0.0677 -6.3068,0.0677 1.5276,2.18082 1.5275,2.18082 0.6583,5.81918 0.6584,5.81918 10.1208,0.0153 10.1209,0.0153 -1.5,0.96937 -1.5,0.96937 -4.625,0.0153 c -2.5438,0.008 -6.0863,0.30756 -7.8722,0.66474 l -3.2472,0.64944 2.2951,1.22829 2.2951,1.2283 -2.1729,0.68966 -2.1729,0.68966 0,0.93261 0,0.93261 1.5,0 1.5,0 0,3.53138 0,3.53139 1.25,0.37268 c 0.6875,0.20498 2.15,0.68844 3.25,1.07438 l 2,0.70169 -2.25,1.04706 -2.25,1.04705 0,1.80967 c 0,0.99532 0.944,4.33281 2.0978,7.41663 l 2.0978,5.60696 1.4951,-0.57371 c 0.8223,-0.31554 2.6908,-0.83124 4.1522,-1.146 l 2.6571,-0.57229 -3.1492,2.82656 c -5.2817,4.74066 -6.4933,8.72501 -4.1903,13.7795 l 1.1605,2.54705 1.5895,-0.0406 1.5895,-0.0406 3.4374,-2.93863 3.4373,-2.93863 0.5593,0.55921 0.5592,0.55922 -3.9966,3.47437 c -7.567,6.5782 -9.4966,8.494 -9.4966,9.42859 l 0,0.93715 2.8088,0 2.8089,0 1.9411,-1.4682 c 1.0676,-0.8075 2.4895,-1.4825 3.1598,-1.5 l 1.2186,-0.0318 -0.5858,1.52651 -0.5858,1.5265 -4.2229,2.4748 -4.2229,2.47479 -1.1599,2.54575 c -0.638,1.40011 -1.1599,3.42452 -1.1599,4.49864 l 0,1.95295 1.3129,0 1.3129,0 2.5576,-2.75 c 1.4067,-1.5125 3.3427,-3.9875 4.3021,-5.5 l 1.7445,-2.75 1.385,0 1.385,0 0,1.46438 c 0,0.80541 -2.561,6.09291 -5.6911,11.75 -8.1061,14.6505 -10.3589,19.06905 -9.9372,19.49067 0.2034,0.20341 1.5549,-0.17012 3.0033,-0.83005 l 2.6334,-1.19988 0.6563,0.65631 0.6563,0.65631 -1.7341,1.91619 -1.7341,1.9162 -2.3976,0.60174 -2.3975,0.60174 -1.0691,1.99765 -1.0691,1.99764 2.6626,1.01233 2.6626,1.01233 -6.0884,5.88398 -6.0884,5.88398 1.216,0.96392 c 0.6688,0.53015 2.8713,1.49682 4.8944,2.14815 2.0231,0.65133 6.3097,2.88493 9.5258,4.96356 l 5.8473,3.77932 1.7243,2.63158 1.7243,2.63158 0,2.9053 0,2.9053 -6.5,9.72196 -6.5,9.72195 -0.015,2.15793 c -0.021,2.96446 -0.9254,4.09211 -4.9263,6.14315 -4.7838,2.45233 -8.5337,3.51173 -15.9261,4.49936 l -6.3676,0.85071 -1.1324,1.13238 -1.1323,1.13239 -0.204,8.69997 c -0.1122,4.78498 -0.3372,9.94285 -0.5,11.46193 l -0.296,2.76194 -1.6176,0.5134 -1.6175,0.5134 -0.6578,4.72455 -0.6577,4.72469 2.0468,1.6777 2.0468,1.6777 -1.0215,0.6313 -1.0215,0.6313 0,6.0366 0,6.0367 -2.1292,2.9901 -2.1291,2.9901 0.6061,5.1176 0.6061,5.1177 3.2175,5.0466 c 1.7695,2.7756 4.2078,7.0716 5.4184,9.5466 l 2.2009,4.5 1.6046,7.857 c 0.8826,4.3213 1.6047,9.2202 1.6047,10.8864 l 0,3.0294 -4.5938,4.1136 c -2.5265,2.2625 -6.8859,7.0386 -9.6875,10.6136 -7.4573,9.5158 -16.2261,18.4988 -24.591,25.1917 l -7.3723,5.8986 -5.1277,2.6658 c -8.482,4.4098 -19.3055,9.0083 -25.3139,10.755 l -5.6639,1.6465 -9.075,0.9328 c -4.9912,0.5131 -10.5217,1.4073 -12.29,1.9873 l -3.2151,1.0544 -10.7849,0.2911 -10.7849,0.2911 -12.9719,2.1571 c -7.1345,1.1864 -14.5595,2.5982 -16.5,3.1373 -4.6722,1.298 -10.451,1.146 -16.3069,-0.4289 z m 199.8274,-273.0403 1.8636,-3.46053 -0.6455,-0.64553 -0.6455,-0.64554 -2.5606,2.5606 -2.5606,2.56061 0,1.54546 0,1.54545 1.3425,0 1.3425,0 1.8636,-3.46052 z m -348.0453,-375.39141 -0.5689,-1.4825 -1.094,1.094 -1.094,1.094 0.7345,2.82321 0.7345,2.82322 0.9284,-2.43472 0.9284,-2.43471 -0.5689,-1.4825 z m -91.029,-36.09841 c 0.8391,-1.62269 1.5257,-3.73769 1.5257,-4.7 l 0,-1.74966 -0.9479,0.95 c -0.5213,0.5225 -1.6523,2.6375 -2.5134,4.7 l -1.5656,3.75 0.9878,0 0.9877,0 1.5257,-2.95034 z m 41.6361,-5.33921 -1.0771,-1.07712 -0.586,0.58596 -0.5859,0.58595 1.3193,2.13103 1.3193,2.13103 0.3437,-1.63987 0.3438,-1.63987 -1.0771,-1.07711 z m -52.1104,-15.57559 c 0,-1.29801 -4.0066,-6.13486 -5.0818,-6.13486 l -0.9366,0 2.2592,3.48762 c 2.1705,3.35069 3.7592,4.46946 3.7592,2.64724 z m -29.17223,-10.47932 0.35079,-1.8215 -2.08931,1.11817 -2.0893,1.11816 0,1.03814 0,1.03814 1.73852,-0.33481 1.73851,-0.33481 0.35079,-1.82149 z m 10.14043,-11.09667 -0.032,-2.05887 -1.4682,1.94113 -1.46824,1.94113 0.0318,2.05887 0.032,2.05887 1.4682,-1.94113 1.4682,-1.94113 -0.032,-2.05887 z m 370.5817,-55.37884 5.0499,-3.10538 7.2001,-9.93459 c 3.96,-5.46403 7.2001,-10.18052 7.2001,-10.4811 0,-0.30057 -2.0111,0.34308 -4.469,1.43035 l -4.469,1.97685 -8.0036,1.16653 -8.0036,1.16653 -7.7774,-1.38176 c -4.2776,-0.75997 -9.1111,-1.4123 -10.7411,-1.44961 l -2.9638,-0.0679 -0.9855,2.76764 -0.9855,2.76764 8.0934,7.73236 c 4.4514,4.2528 8.876,8.98234 9.8324,10.5101 l 1.739,2.77774 2.1168,-1.38504 c 1.1643,-0.76177 4.3893,-2.78245 7.1668,-4.49041 z m -320.2791,-177.7842 0.6042,-0.60416 1.3125,0.52522 1.3125,0.52522 -1.9167,0.0789 -1.9167,0.0789 0.6042,-0.60417 z"
     id="path2987"
     inkscape:connector-curvature="0" />
</svg>
