<?xml version="1.0" encoding="UTF-8" standalone="no"?>
<!-- Created with Inkscape (http://www.inkscape.org/) -->

<svg
   xmlns:dc="http://purl.org/dc/elements/1.1/"
   xmlns:cc="http://creativecommons.org/ns#"
   xmlns:rdf="http://www.w3.org/1999/02/22-rdf-syntax-ns#"
   xmlns:svg="http://www.w3.org/2000/svg"
   xmlns="http://www.w3.org/2000/svg"
   xmlns:sodipodi="http://sodipodi.sourceforge.net/DTD/sodipodi-0.dtd"
   xmlns:inkscape="http://www.inkscape.org/namespaces/inkscape"
   id="svg2"
   version="1.1"
   inkscape:version="0.48.2 r9819"
   width="2443.1411"
   height="921.30823"
   sodipodi:docname="Snailh.png">
  <metadata
     id="metadata8">
    <rdf:RDF>
      <cc:Work
         rdf:about="">
        <dc:format>image/svg+xml</dc:format>
        <dc:type
           rdf:resource="http://purl.org/dc/dcmitype/StillImage" />
        <dc:title></dc:title>
      </cc:Work>
    </rdf:RDF>
  </metadata>
  <defs
     id="defs6" />
  <sodipodi:namedview
     pagecolor="#ffffff"
     bordercolor="#666666"
     borderopacity="1"
     objecttolerance="10"
     gridtolerance="10"
     guidetolerance="10"
     inkscape:pageopacity="0"
     inkscape:pageshadow="2"
     inkscape:window-width="1920"
     inkscape:window-height="1176"
     id="namedview4"
     showgrid="false"
     fit-margin-top="0"
     fit-margin-left="0"
     fit-margin-right="0"
     fit-margin-bottom="0"
     inkscape:zoom="0.5"
     inkscape:cx="1102.5895"
     inkscape:cy="442.3213"
     inkscape:window-x="0"
     inkscape:window-y="24"
     inkscape:window-maximized="1"
     inkscape:current-layer="svg2" />
  <path
     style="fill:#000000"
     d="m 511.45211,921.24272 c -1.65,0.17126 -14.475,-0.005 -28.5,-0.39101 l -25.5,-0.70238 -41.5,-6.68187 c -22.825,-3.67503 -51.85,-8.20687 -64.5,-10.07074 -12.65,-1.86387 -30.875,-4.31254 -40.5,-5.44148 -9.625,-1.12894 -25.825,-2.70725 -36,-3.50736 -10.175,-0.80012 -27.275,-1.75965 -38,-2.13231 l -19.5,-0.67754 -15.5,1.36209 -15.5,1.36209 -21,-0.0414 -21,-0.0414 -10.5,-1.25495 c -5.775,-0.69022 -24.9,-3.46551 -42.5,-6.16733 -17.6,-2.70181 -38.6247,-5.60597 -46.72156,-6.45368 -8.09686,-0.84766 -18.04465,-1.54124 -22.1062,-1.54124 l -7.38464,0 -4.56605,-3.48644 C 8.16233,873.45823 5.14069,870.53142 3.9589,868.87174 2.77711,867.21207 1.4029,864.43401 0.90509,862.69827 L 0,859.54238 1.83228,855.40019 3.66457,851.258 7.55834,848.18701 c 2.14157,-1.68905 7.53175,-4.89565 11.97818,-7.1258 4.44642,-2.23014 12.54642,-5.59778 18,-7.48363 5.45357,-1.88585 16.89059,-5.29172 25.41559,-7.56859 8.525,-2.27687 29.225,-7.48836 46,-11.58107 l 30.5,-7.4413 11.07552,-3.96993 11.07551,-3.96993 9.51941,-2.06245 c 5.23567,-1.13435 15.10169,-2.72654 21.92448,-3.5382 6.82279,-0.81165 18.25508,-1.96075 25.40508,-2.55354 7.15,-0.5928 18.175,-1.76358 24.5,-2.60173 l 11.5,-1.52392 9.92879,-2.48742 9.92878,-2.48742 11.96065,-5.06462 11.96064,-5.06461 30.61057,-7.83277 c 16.83581,-4.30803 34.43557,-9.14997 39.11057,-10.75988 4.675,-1.6099 11.54354,-4.4148 15.26342,-6.2331 l 6.76343,-3.30601 4.0128,-3.43481 4.0128,-3.43481 1.47377,-2.84997 1.47378,-2.84997 0,-3.58178 0,-3.58178 -1.44641,-3.46175 -1.44641,-3.46175 -6.88584,-6.99593 -6.88583,-6.99593 -9.07411,-15.2602 c -4.99076,-8.39311 -12.00937,-21.15265 -15.5969,-28.35453 -3.58754,-7.20187 -9.04198,-19.07789 -12.12099,-26.39114 -3.079,-7.31325 -8.05354,-20.58965 -11.05452,-29.50312 l -5.45633,-16.20631 -3.96194,-15.90255 c -2.17906,-8.7464 -4.90178,-20.84253 -6.05048,-26.88028 -1.1487,-6.03775 -2.97481,-17.8802 -4.05802,-26.31655 l -1.96949,-15.33882 -1.08846,-19.82323 -1.08847,-19.82324 1.0839,-22.36022 1.0839,-22.36021 1.4967,-12.05308 c 0.82319,-6.62919 2.18192,-16.07919 3.0194,-21 0.83748,-4.9208 2.91037,-15.24692 4.60642,-22.94692 1.69605,-7.7 5.06882,-20.86838 7.49506,-29.26307 2.42623,-8.39469 6.92181,-22.32196 9.99017,-30.94947 3.06837,-8.62752 7.91095,-21.10914 10.7613,-27.73693 l 5.18245,-12.05053 10.33798,-17.30563 c 5.68589,-9.51809 15.23778,-24.68759 21.22642,-33.70999 5.98864,-9.0224 14.88822,-21.70987 19.77683,-28.19437 4.88862,-6.48451 13.14916,-16.74001 18.35677,-22.79001 l 9.46838,-11 13.30277,-12.81563 13.30277,-12.81562 13.09649,-9.76643 c 7.20307,-5.37154 16.69649,-11.93689 21.09649,-14.589658 4.4,-2.65278 11.6,-7.19159 16,-10.08624 4.4,-2.89466 12.95,-8.25325 19,-11.90798 l 11,-6.64496 18,-8.82792 c 9.9,-4.85536 23.7036,-11.12344 30.6747,-13.929067 6.971,-2.805625 19.9749,-7.580381 28.8975,-10.610568 8.9226,-3.030187 23.469,-7.521413 32.3253,-9.980502 8.8564,-2.45909 24.2025,-6.268143 34.1025,-8.464564 9.9,-2.19642 27.225,-5.581436 38.5,-7.522258 11.275,-1.940822 31.3,-4.89777 44.5,-6.570995 l 24,-3.042228 17.0926,-0.893795 L 828.63741,0 l 18.9073,0.899502 18.9074,0.899502 12,1.542207 c 6.6,0.848214 16.95,2.465423 23,3.593799 6.05,1.128375 15.5,3.174632 21,4.547237 5.5,1.372604 14.5,3.863908 20,5.536231 5.5,1.672323 16.3,5.524715 24,8.560872 7.7,3.036156 17.4541,7.255104 21.6758,9.375439 4.2217,2.120334 10.3441,5.579707 13.60519,7.687493 3.2612,2.107787 9.7071,5.483387 14.3242,7.50133 4.6171,2.01795 13.7948,5.95399 20.3948,8.74675 l 12,5.07776 7.3762,4.59676 7.3763,4.59676 5.4516,5.53944 5.4516,5.53945 9.6722,4.67341 9.6721,4.67341 9,5.96989 c 4.95,3.283428 13.05,9.280728 18,13.327318 4.95,4.04659 15.975,13.48789 24.5,20.98066 8.525,7.49278 18.2,15.77791 21.5,18.41141 3.3,2.63349 11.175,9.60663 17.5,15.49585 6.325,5.88923 20.95,18.99011 32.5,29.11306 11.55,10.12296 27.0137,24.27142 34.3639,31.44102 l 13.3638,13.03565 8.8908,10.5 8.8908,10.5 8.2453,7.5 c 4.535,4.125 12.1348,11.775 16.8884,17 4.7537,5.225 15.6177,17.825 24.1422,28 l 15.4992,18.5 9.9677,9.75 9.9677,9.75 6.5144,0 6.5143,0 4.1368,1.45952 c 2.2751,0.80273 6.2692,2.91683 8.8757,4.698 2.6064,1.78116 7.0913,5.63407 9.9664,8.56201 2.875,2.92794 7.1307,8.12634 9.457,11.552 2.3263,3.42566 7.0462,11.72947 10.4887,18.45292 l 6.2589,12.22446 1.5111,5.8314 1.511,5.83141 1.1073,14.94414 1.1072,14.94414 1.4078,6.96994 1.4077,6.96995 2.7871,4.53005 2.7871,4.53006 4.6909,3.1545 4.6909,3.1545 28.7799,7.04264 c 15.829,3.87346 38.005,9.06244 49.28,11.53109 11.275,2.46864 28.6,6.07387 38.5,8.01163 9.9,1.93776 27.45,5.09582 39,7.01792 11.55,1.9221 28.875,4.61437 38.5,5.98283 9.625,1.36845 25.825,3.4088 36,4.53411 10.175,1.12531 26.2535,2.71079 35.73,3.52329 9.4764,0.81251 29.2764,1.95154 44,2.5312 14.7235,0.57965 37.795,1.60795 51.27,2.2851 l 24.5,1.23119 44,-0.0377 44,-0.0377 18,-1.27466 c 9.9,-0.70106 26.8432,-2.14722 37.6516,-3.21369 10.8084,-1.06648 26.3334,-2.82089 34.5,-3.8987 l 14.8484,-1.95966 3.7974,-4.28896 c 2.0886,-2.35893 7.7508,-9.46396 12.5828,-15.78896 4.832,-6.325 11.4865,-15.55 14.7878,-20.5 3.3013,-4.95 9.6002,-15.075 13.9975,-22.5 4.3973,-7.425 11.1547,-19.35 15.0165,-26.5 3.8618,-7.15 13.2315,-25.15 20.8215,-40 7.59,-14.85 17.4024,-33.75 21.8053,-42 4.403,-8.25 12.1488,-21.975 17.213,-30.5 5.0642,-8.525 12.8464,-22.7 17.2937,-31.5 4.4474,-8.8 14.6995,-27.7 22.7824,-42 8.083,-14.3 19.5998,-34.775 25.5928,-45.5 5.9931,-10.725 14.6406,-27.15 19.2168,-36.5 4.5761,-9.35 10.8476,-23.109 13.9366,-30.57556 l 5.6163,-13.57556 -0.9802,-3.41784 -0.9802,-3.41784 0,-7.07846 0,-7.07846 1.6562,-4.860638 1.6562,-4.86065 4.2673,-4.26732 4.2673,-4.26733 5.7515,-1.67201 5.7515,-1.67201 5.3027,0.54729 5.3027,0.54728 5.1645,2.81088 5.1645,2.81088 2.6078,3.94065 2.6078,3.94064 -0.017,6.573028 -0.017,6.57303 -3.4124,7.31904 -3.4125,7.31904 -4.9232,4.42632 -4.9231,4.42632 -0.8068,-0.4986 -0.8067,-0.49861 -1.5794,0.60607 -1.5794,0.60607 -1.0684,3.9677 -1.0684,3.96769 -3.3099,5.17948 c -1.8204,2.84872 -5.4243,9.39234 -8.0087,14.5414 l -4.6988,9.36192 -10.366,26.29592 -10.366,26.29592 -7.988,15.84216 c -4.3934,8.71319 -11.7254,24.39216 -16.2933,34.84216 l -8.3052,19 -38.0477,76.5 c -20.9262,42.075 -41.3106,83.87695 -45.2986,92.89321 -3.988,9.01627 -9.4943,22.37956 -12.2362,29.69621 -2.7419,7.31665 -6.1944,17.7147 -7.6721,23.10679 l -2.6868,9.80379 -0.054,9.5 -0.054,9.5 1.7669,3.23307 1.767,3.23308 3.233,1.67843 3.2331,1.67843 5.5,-0.004 5.5,-0.004 9,-2.59159 c 4.95,-1.42537 11.475,-2.8745 14.5,-3.22028 3.025,-0.34579 17.7721,-2.63507 32.7713,-5.08729 14.9992,-2.45222 40.6492,-7.17571 57,-10.49665 16.3508,-3.32093 56.7287,-12.0477 89.7287,-19.39281 33,-7.34511 62.925,-13.922 66.5,-14.61531 l 6.5,-1.26056 4.681,-4.84746 4.6809,-4.84747 3.537,-1.47782 c 1.9449,-0.81272 4.6904,-1.47774 6.1007,-1.47774 l 2.5642,0 3.7179,1.54883 3.7179,1.54882 3.8364,3.70118 3.8364,3.70117 2.3886,4.66736 2.3885,4.66735 0.6196,3.87466 0.6196,3.87465 -1.1085,4.11665 -1.1085,4.11664 -3.4003,2.98548 -3.4003,2.98549 -3.6917,1.21839 -3.6917,1.21838 -5.6441,-0.56295 c -3.1042,-0.30962 -8.794,-1.24371 -12.644,-2.07577 l -7,-1.51282 -7.5,-0.0327 -7.5,-0.0327 -9.5,1.5396 c -5.225,0.84678 -12.875,2.40222 -17,3.45653 -4.125,1.05431 -16.0774,4.57817 -26.5609,7.83081 l -19.061,5.91389 -20.1085,4.66396 c -11.0597,2.56518 -30.8323,7.57096 -43.9391,11.12396 -13.1068,3.553 -48.1305,13.72947 -77.8305,22.61438 -29.7,8.8849 -54.3991,16.50724 -54.8869,16.93852 l -0.8869,0.78415 5.5191,12.81308 c 3.0356,7.04719 6.9154,17.08808 8.6219,22.31308 1.7064,5.225 3.7844,12.79192 4.6177,16.81538 l 1.5151,7.31537 0,10.70473 0,10.70472 -2.0642,7.4799 -2.0642,7.4799 -3.3472,6 -3.3472,6 -3.0744,2.26946 -3.0745,2.26947 -0.581,2.31516 -0.5811,2.31517 2.1522,5.91537 c 1.1838,3.25345 2.987,9.5946 4.0072,14.09144 l 1.855,8.17607 3.1708,7.61666 3.1708,7.61666 6.1513,10.20727 c 3.3833,5.614 11.5751,17.63227 18.204,26.70727 6.6289,9.075 13.1149,18.075 14.4131,20 1.2983,1.925 4.6936,5.98807 7.5451,9.02906 2.8514,3.04098 6.0071,7.09098 7.0125,9 l 1.828,3.47094 0.026,5.04469 0.026,5.0447 -2.3654,3.32183 -2.3653,3.32184 -4.099,1.86151 -4.0989,1.86151 -3.1849,0.022 c -1.7517,0.0121 -4.4517,-0.45667 -6,-1.04166 -1.5483,-0.58499 -4.0946,-2.27249 -5.6583,-3.75 l -2.8433,-2.68638 -2.2824,-4.5 -2.2823,-4.5 -1.1244,-5.29922 c -0.618,-2.91468 -1.124,-6.9106 -1.124,-8.87992 l 0,-3.58058 -11.1448,-19.6202 c -6.1296,-10.7911 -11.732,-20.25653 -12.4498,-21.03429 l -1.305,-1.41409 -1.6113,1.33721 -1.6112,1.33721 0.6504,6.57689 c 0.3578,3.61728 1.4809,10.17688 2.4958,14.57688 1.0149,4.4 2.3296,10.7 2.9217,14 l 1.0764,6 1.0259,0.34565 c 0.5642,0.19011 2.346,1.45653 3.9596,2.81427 l 2.9338,2.46863 1.0237,3.68573 c 0.563,2.02714 1.0245,5.48572 1.0255,7.68572 l 0,4 -1.952,3.20145 -1.9521,3.20145 -2.9945,1.54855 -2.9946,1.54855 -3.2996,-0.004 -3.2997,-0.004 -3.1711,-1.93359 -3.1711,-1.93359 -2.629,-4.48593 -2.6289,-4.48593 0.1516,-4.32674 0.1516,-4.32674 -3.1445,-9 c -1.7295,-4.95 -5.5385,-18.225 -8.4645,-29.5 -2.9261,-11.275 -6.1212,-25 -7.1003,-30.5 -0.9791,-5.5 -2.3267,-11.575 -2.9948,-13.5 -0.668,-1.925 -1.5303,-5.63212 -1.9162,-8.23805 l -0.7018,-4.73806 -1.5128,-1.51284 -1.5129,-1.51285 -2.6776,0.64255 c -1.4727,0.3534 -4.7027,1.79758 -7.1777,3.2093 -2.475,1.41171 -7.425,4.6725 -11,7.2462 -3.575,2.57369 -8.8898,6.08431 -11.8106,7.80139 -2.9209,1.71707 -8.0959,4.0622 -11.5,5.2114 l -6.1894,2.08945 -7.5,-0.058 -7.5,-0.058 -4.8114,-1.46191 -4.8115,-1.4619 -4.9713,-4.65011 -4.9713,-4.6501 -4.7173,-2.1057 -4.7172,-2.10569 -8,-0.40739 -8,-0.40739 -15.5,3.0579 c -8.525,1.68184 -19.325,3.50735 -24,4.05669 l -8.5,0.99879 -5,1.5758 c -2.75,0.86669 -19.625,5.19268 -37.5,9.61331 l -32.5,8.03752 -16.1301,5.31088 -16.1301,5.31089 -15.8699,7.56065 -15.8699,7.56064 -16.5,5.91827 c -9.075,3.25504 -22.8,7.96838 -30.5,10.47406 -7.7,2.50569 -21.2,6.64163 -30,9.19097 -8.8,2.54934 -22.975,6.3562 -31.5,8.45971 -8.525,2.1035 -22.475,5.26116 -31,7.01702 l -15.5,3.19248 -19,6.79196 c -10.45,3.73558 -26.425,9.07544 -35.5,11.86635 -9.075,2.79091 -23.7,7.10044 -32.5,9.57674 -8.8,2.4763 -27.7,7.4218 -42,10.99002 -14.3,3.56821 -35.9,8.73824 -48,11.48896 -12.1,2.75072 -25.3959,5.4603 -29.5465,6.02129 -4.1506,0.561 -18.7756,1.71377 -32.5,2.56172 l -24.9535,1.54173 -10,1.52013 c -5.5,0.83608 -12.475,2.20118 -15.5,3.03356 l -5.5,1.51342 -11,0.58579 -11,0.58578 -10,-1.59668 c -5.5,-0.87817 -14.95,-1.88414 -21,-2.23548 l -11,-0.6388 -15,1.13271 c -8.25,0.62299 -27.375,2.68514 -42.5,4.58255 l -27.5,3.44984 -15.5866,1.07646 -15.5866,1.07645 -15.9134,-2.02261 c -8.7524,-1.11244 -26.4884,-3.1401 -39.4134,-4.5059 -12.925,-1.36581 -33.85,-3.38797 -46.5,-4.49369 -12.65,-1.10572 -32,-2.69931 -43,-3.54131 -11,-0.84199 -34.17499,-2.43 -51.49999,-3.52889 l -31.5,-1.998 -18.7894,-10e-4 -18.7894,-10e-4 -9.7106,1.04949 c -5.339,0.57775 -30.1838,4.38675 -55.2088,8.46498 -25.025,4.07823 -53.825,8.52385 -64,9.87915 -10.175,1.3553 -24.575,3.04124 -32,3.74652 l -13.5,1.28234 -24.5,0.039 c -13.475,0.0215 -33.5,-0.11799 -44.5,-0.3099 l -20,-0.34894 -57,1.1335 c -31.35,0.62343 -58.35,1.27363 -60,1.44488 z"
     id="path2991"
     inkscape:connector-curvature="0" />
</svg>
