<?xml version="1.0" encoding="UTF-8" standalone="no"?>
<!-- Created with Inkscape (http://www.inkscape.org/) -->

<svg
   xmlns:dc="http://purl.org/dc/elements/1.1/"
   xmlns:cc="http://creativecommons.org/ns#"
   xmlns:rdf="http://www.w3.org/1999/02/22-rdf-syntax-ns#"
   xmlns:svg="http://www.w3.org/2000/svg"
   xmlns="http://www.w3.org/2000/svg"
   xmlns:sodipodi="http://sodipodi.sourceforge.net/DTD/sodipodi-0.dtd"
   xmlns:inkscape="http://www.inkscape.org/namespaces/inkscape"
   id="svg2"
   version="1.1"
   inkscape:version="0.48.2 r9819"
   width="805.85504"
   height="1032.1274"
   sodipodi:docname="M - Skeletonb.png">
  <metadata
     id="metadata8">
    <rdf:RDF>
      <cc:Work
         rdf:about="">
        <dc:format>image/svg+xml</dc:format>
        <dc:type
           rdf:resource="http://purl.org/dc/dcmitype/StillImage" />
        <dc:title></dc:title>
      </cc:Work>
    </rdf:RDF>
  </metadata>
  <defs
     id="defs6" />
  <sodipodi:namedview
     pagecolor="#ffffff"
     bordercolor="#666666"
     borderopacity="1"
     objecttolerance="10"
     gridtolerance="10"
     guidetolerance="10"
     inkscape:pageopacity="0"
     inkscape:pageshadow="2"
     inkscape:window-width="1920"
     inkscape:window-height="1176"
     id="namedview4"
     showgrid="false"
     fit-margin-top="0"
     fit-margin-left="0"
     fit-margin-right="0"
     fit-margin-bottom="0"
     inkscape:zoom="0.89648623"
     inkscape:cx="392.93158"
     inkscape:cy="491.2288"
     inkscape:window-x="0"
     inkscape:window-y="24"
     inkscape:window-maximized="1"
     inkscape:current-layer="svg2" />
  <path
     style="fill:#000000"
     d="m 322.03413,1031.8827 -17.32118,0.2447 -1.42882,-1.5787 -1.42882,-1.5788 0,-1.9712 0,-1.9713 1.2,-1.2 1.2,-1.2 3.479,0 3.479,0 3.35046,1.2115 3.35045,1.2116 3.22055,-1.7162 3.22054,-1.7163 2.5,0.017 c 1.375,0.01 4.58092,0.2776 7.12428,0.5954 l 4.62427,0.5779 3.20635,-1.6581 c 1.7635,-0.9119 5.75757,-2.4839 8.87573,-3.4932 3.11815,-1.0094 7.91937,-2.8044 10.66937,-3.9889 2.75,-1.1846 6.75073,-3.3585 8.89051,-4.8308 l 3.89051,-2.677 5.52916,-11.51673 5.52917,-11.51664 1.33029,-0.79969 1.3304,-0.79969 0,-7.33831 0,-7.33831 -3.58841,-9.862 c -1.97361,-5.4241 -4.01982,-11.437 -4.54715,-13.362 -0.52733,-1.925 -1.35187,-4.4 -1.83232,-5.5 -0.48045,-1.1 -1.88111,-5.15 -3.11257,-9 -1.23147,-3.85 -2.59095,-7.9 -3.02107,-9 -0.43012,-1.1 -1.06139,-3.575 -1.40281,-5.5 -0.34142,-1.925 -0.99913,-4.625 -1.46159,-6 -0.46245,-1.375 -2.29415,-7.675 -4.07042,-14 -1.77628,-6.325 -3.88715,-12.79711 -4.69083,-14.38246 l -1.46122,-2.88246 -0.8755,-6.18211 -0.87549,-6.18211 -2.45423,-6.93543 c -1.34982,-3.81449 -3.63733,-10.05912 -5.08334,-13.87697 -1.44602,-3.81785 -3.73579,-11.2009 -5.08839,-16.40678 l -2.45928,-9.46522 1.46648,-2.23813 1.46647,-2.23812 -0.58365,-3.59664 -0.58366,-3.59664 1.24275,-1.49743 1.24276,-1.49742 -3.09884,-3.52938 -3.09883,-3.52938 -0.63209,-2.51845 -0.63209,-2.51845 0.59323,-2.96617 c 0.32628,-1.63139 3.06861,-8.76293 6.09406,-15.84787 3.02545,-7.08493 8.43929,-18.88814 12.03075,-26.22935 3.59146,-7.34121 6.81228,-14.23727 7.15738,-15.32457 0.3451,-1.08731 2.78826,-5.59527 5.42925,-10.01769 2.641,-4.42242 6.06829,-10.37511 7.61621,-13.22819 1.54792,-2.85308 4.77975,-8.47808 7.18185,-12.5 2.40209,-4.02192 5.51759,-9.11258 6.92329,-11.31258 1.4057,-2.2 3.7153,-5.78486 5.1325,-7.96635 1.4172,-2.1815 3.2518,-4.71072 4.0768,-5.62049 0.825,-0.90977 2.85,-4.00279 4.5,-6.87338 1.65,-2.87058 4.9896,-7.99136 7.4214,-11.37951 2.4318,-3.38815 6.5215,-8.41027 9.0882,-11.16027 2.5668,-2.75 6.5064,-7.03928 8.7547,-9.53173 l 4.088,-4.53173 0.6547,-2.60869 0.6548,-2.60869 2.9191,-2.79667 2.9191,-2.79667 0,-2.26202 0,-2.26202 -3.5978,-2.74415 -3.5978,-2.74415 -5.9206,-0.42827 -5.9207,-0.42826 -2.0825,-2.92457 -2.0825,-2.92457 -1.3634,-5.7039 c -0.7499,-3.13665 -1.3792,-7.50341 -1.3983,-9.70341 -0.019,-2.2 0.6541,-7.30202 1.496,-11.33781 l 1.5309,-7.33781 3.4329,-6.66219 3.433,-6.66219 4.499,-3.78816 4.4991,-3.78816 9.1488,2.14789 9.1489,2.14789 1.9674,-1.96746 1.9675,-1.96746 -2.83,-2.18519 c -1.5565,-1.20186 -3.8844,-2.96901 -5.1732,-3.92701 l -2.3433,-1.74182 2.1974,-3.7244 2.1975,-3.72439 -0.5658,-3.74086 c -0.3112,-2.05748 -0.848,-5.34895 -1.193,-7.31439 l -0.6271,-3.57352 5.182,-10.92648 c 2.8501,-6.00956 5.8896,-12.67805 6.7543,-14.81885 l 1.5724,-3.89236 -1.7402,-1.27246 -1.7402,-1.27245 0.3246,-2.83518 0.3247,-2.83518 2.2833,-0.32391 2.2832,-0.32392 2.3753,-4.92361 2.3752,-4.9236 -0.6585,-0.40037 c -0.3622,-0.2202 -4.7004,0.47838 -9.6404,1.55239 l -8.9819,1.95276 -2.2681,-1.03343 -2.2681,-1.03343 0,-1.98249 0,-1.98248 2.1132,-1.96876 2.1132,-1.96877 5.1368,-1.94283 c 2.8252,-1.06855 7.7593,-2.70919 10.9647,-3.64586 l 5.828,-1.70303 -0.4875,-1.27042 -0.4875,-1.27042 2.3783,-5.85179 c 1.3081,-3.21848 2.2135,-6.01662 2.012,-6.21809 -0.2014,-0.20147 -3.6375,1.28104 -7.6356,3.29446 -3.9981,2.01342 -11.3567,6.16117 -16.3525,9.21722 -4.9957,3.05606 -9.9349,6.2751 -10.9759,7.15342 -1.0411,0.87833 -3.8205,4.58746 -6.1765,8.24252 -2.3561,3.65505 -4.8354,6.98649 -5.5096,7.4032 l -1.2259,0.75765 -5.0384,-0.17832 -5.0384,-0.17833 -4.3994,-2.19718 -4.3994,-2.19719 -2.1189,-3.02769 c -1.1654,-1.66524 -2.9274,-3.61752 -3.9155,-4.3384 -0.9882,-0.72089 -2.4511,-2.57634 -3.2511,-4.12322 -0.7999,-1.54688 -1.2446,-3.02232 -0.9881,-3.27876 0.2564,-0.25644 -0.4198,-1.26807 -1.5027,-2.24807 l -1.9688,-1.78181 -1.4821,0.56872 -1.4821,0.56873 -0.6536,3.80255 c -0.3596,2.09141 -2.4887,8.75256 -4.73142,14.80256 -2.24273,6.05 -4.44841,11.4275 -4.90151,11.95 -0.4531,0.5225 -0.82381,1.76611 -0.82381,2.76357 0,0.99746 0.52205,2.6495 1.16011,3.6712 l 1.16012,1.85764 -1.66012,4.14903 -1.66011,4.14903 0,4.40834 0,4.40833 -1.71034,1.71034 c -0.94069,0.94069 -3.17624,2.32284 -4.96788,3.07143 l -3.25754,1.36109 -3.83578,0 -3.83577,0 -4.94635,-2.47172 -4.94634,-2.47171 -18.5,-18.27829 -18.5,-18.27828 -5.90855,-8 c -3.2497,-4.4 -7.73042,-10.41239 -9.95715,-13.36088 -2.22673,-2.94848 -4.69545,-5.60909 -5.48606,-5.91248 l -1.43746,-0.5516 -1.35539,1.85361 -1.35539,1.85361 0,3.65388 0,3.65388 -1.75,1.57111 c -0.9625,0.86411 -3.55,2.22992 -5.75,3.03515 -2.2,0.80522 -5.8,1.94464 -8,2.53204 -2.2,0.58741 -7.63064,1.99134 -12.0681,3.11985 -4.43745,1.1285 -9.49995,2.05183 -11.25,2.05183 l -3.1819,0 0.0235,1.75 c 0.0129,0.9625 0.87735,4.959 1.9209,8.8811 l 1.89737,7.13111 0.67903,8.36889 c 0.37347,4.6029 0.80888,9.68241 0.96759,11.28781 0.15871,1.6054 -0.30163,7.9054 -1.02298,14 -0.72134,6.0946 -2.01588,13.74284 -2.87674,16.99608 l -1.56521,5.91499 -3.76175,3.77696 -3.76175,3.77696 -0.60852,3.80805 c -0.33469,2.09443 -1.21129,6.05805 -1.94802,8.80805 l -1.33949,5 -4.48838,6.5 -4.48838,6.5 -7.37038,7.63014 -7.37037,7.63014 -7.75857,5.58621 c -4.2672,3.07241 -11.10416,7.34292 -15.19322,9.49002 -4.08907,2.14711 -10.58467,5.06564 -14.43467,6.48564 -3.85,1.41999 -10.825,3.5871 -15.5,4.81579 l -8.5,2.23399 -19.5,0.064 -19.5,0.064 -10.40784,-2.44398 -10.407837,-2.44399 -1.59216,-2.77604 -1.59212,-2.77597 -4.88335,-2.02998 -4.883353,-2.02997 -4.68538,0 -4.68537,0 -6.17149,-3.75 c -3.39432,-2.0625 -8.8061,-5.67625 -12.02617,-8.03056 l -5.85468,-4.28055 -7.52586,-7.71945 -7.52586,-7.71944 -5.76237,-8 -5.76236,-8 -3.86688,-7.9471 c -2.12678,-4.37091 -3.86688,-8.70345 -3.86688,-9.62788 0,-0.92442 -0.68605,-3.32273 -1.52456,-5.32957 l -1.52457,-3.6488 0.16823,-5.22332 0.16824,-5.22333 -3.00428,-6 -3.00427,-6 L 0.56705,506.6295 0,500.13156 0.92389,488.79635 1.84778,477.46114 3.4288,471.79429 c 0.86956,-3.11677 2.47985,-8.36686 3.57842,-11.66686 1.09856,-3.3 3.29374,-8.56149 4.87817,-11.6922 1.58443,-3.13071 3.46334,-6.7194 4.17535,-7.97485 0.71202,-1.25546 3.73672,-5.66896 6.72156,-9.8078 2.98485,-4.13883 7.70985,-9.93329 10.5,-12.87658 2.79016,-2.94329 8.57186,-7.99346 12.84822,-11.22262 4.27636,-3.22915 9.81855,-7.06866 12.31596,-8.53225 l 4.54076,-2.66106 2.18403,1.05395 c 1.20122,0.57967 3.85154,1.28329 5.88959,1.56359 l 3.70554,0.50965 3.29446,-1.06052 c 1.81195,-0.58329 4.756953,-1.66947 6.544453,-2.41374 l 3.25,-1.35321 0,-3.39374 0,-3.39373 1.339,-1.11127 1.339,-1.11127 7.911,-1.73351 7.910997,-1.73351 15.5,-0.0277 15.5,-0.0277 7,1.36401 c 3.85,0.7502 9.92689,2.15338 13.5042,3.11818 3.57731,0.96479 10.02377,3.16347 14.32546,4.88595 4.30169,1.72248 11.0498,4.9918 14.9958,7.26515 3.946,2.27336 10.32454,6.48643 14.17454,9.36239 3.85,2.87596 9.30293,7.42846 12.11762,10.11667 2.81469,2.68821 7.36254,7.58765 10.10634,10.88765 2.7438,3.3 6.87014,8.8125 9.16964,12.25 l 4.18092,6.25 1.35741,0 c 0.74657,0 4.31079,-0.91221 7.92049,-2.02713 3.60969,-1.11492 6.80136,-2.41267 7.09258,-2.88388 0.29123,-0.47121 2.60896,-1.83421 5.15052,-3.02889 l 4.62102,-2.17213 0.47648,-1.82209 0.47649,-1.82208 2.31459,-1.0546 2.3146,-1.0546 1.99842,0.5226 1.99841,0.52259 2.27583,-1.21798 2.27582,-1.21798 -5.0504,-4.74216 -5.0504,-4.74216 -4.87319,-1.78695 c -2.68025,-0.98282 -5.62094,-2.5037 -6.53485,-3.37975 l -1.66166,-1.59281 -1.50732,-4.5 -1.50732,-4.5 -2.81839,0.32506 -2.8184,0.32506 -0.74731,1.17494 c -0.41102,0.64622 -0.75421,2.82564 -0.76263,4.84315 -0.008,2.01752 -0.29484,4.39666 -0.63649,5.28699 l -0.62118,1.61877 -2.82916,1.46302 -2.82916,1.46301 -3.00845,0 -3.00845,0 -5.50402,-4.11615 -5.50402,-4.11616 -1.57507,-5.41805 -1.57507,-5.41805 0.6005,-0.97162 0.6005,-0.97163 -1.22248,-3.38071 -1.22248,-3.38071 -6.59014,-0.66712 -6.59014,-0.66711 -1.62342,-1.21403 c -0.89288,-0.66771 -2.5787,-2.78107 -3.74626,-4.69634 l -2.12284,-3.48232 -0.004,-2.62788 -0.004,-2.62787 -1.49006,-3.56623 -1.49007,-3.56623 0.60395,-1.57385 0.60394,-1.57386 -1.23557,-2.98294 -1.23558,-2.98295 1.24414,-1.49909 1.24414,-1.4991 1.51731,0 1.51731,0 1.32844,-1.75 1.32844,-1.75 0.0318,-2.12756 0.0318,-2.12755 -1.31576,-1.09198 -1.31576,-1.09199 -6.44953,0.53403 -6.44953,0.53402 -2.70678,-1.02911 -2.70678,-1.02912 -0.62557,-2.49246 -0.62557,-2.49245 0.92597,-2.79292 0.92597,-2.79291 1.97339,-0.29357 1.97338,-0.29356 2.8237,1.46495 2.82369,1.46495 2.12459,-0.78023 2.12459,-0.78023 0.28558,-1.89116 0.28558,-1.89115 -3.58399,-13.5 c -1.9712,-7.425 -4.68496,-18 -6.03057,-23.5 -1.34561,-5.5 -2.62768,-10.675 -2.84905,-11.5 -0.22136,-0.825 -0.9556,-4.30453 -1.63163,-7.73228 l -1.22916,-6.23228 1.62662,-2.48254 c 0.89517,-1.36532 1.62715,-2.7233 1.62715,-3.01765 0,-0.29435 -1.125,-0.53518 -2.5,-0.53518 -1.375,0 -2.5,-0.25179 -2.5,-0.55954 0,-0.30774 -1.13808,-5.59524 -2.52907,-11.75 -1.39099,-6.15475 -3.39023,-15.46546 -4.44276,-20.69046 -1.05254,-5.225 -2.42457,-13.31229 -3.04898,-17.97176 -0.6244,-4.65947 -1.27506,-8.70947 -1.44591,-9 -0.17086,-0.29053 -0.61896,-3.21245 -0.99578,-6.49316 -0.37682,-3.28071 -0.84179,-6.21842 -1.03327,-6.52824 -0.19148,-0.30982 -0.82204,-4.15061 -1.40125,-8.53508 -0.5792,-4.38447 -1.33237,-14.12039 -1.67371,-21.63537 l -0.62061,-13.66362 2.09567,-1.12157 2.09567,-1.12157 0,-1.00865 0,-1.00865 -1.25,0.16232 c -0.6875,0.0893 -1.78551,0.109 -2.44002,0.0438 l -1.19002,-0.11845 0.45592,-19.12123 c 0.25076,-10.51668 0.64487,-19.42694 0.87579,-19.80058 0.23092,-0.37364 0.69224,-6.056576 1.02515,-12.628766 0.33291,-6.57218 1.02202,-15.324426 1.53136,-19.449426 0.50935,-4.125 1.58725,-12.225 2.39534,-18 0.80809,-5.775 2.19039,-13.875 3.07177,-18 l 1.60251,-7.5 3.35316,-7 3.35316,-7 5.92746,-6.1309899 5.92746,-6.1309901 3.18048,-1.64469 c 1.74926,-0.90457995 3.18048,-1.42096495 3.18048,-1.14752395 0,0.273442 -1.13274,3.05848395 -2.51719,6.18898305 l -2.51719,5.6918149 -2.05254,11.086698 c -1.12889,6.097684 -2.47957,14.236698 -3.00151,18.086698 -0.52195,3.85 -1.39228,11.05 -1.93409,16 -0.5418,4.95 -1.20631,10.575 -1.47669,12.5 -0.27038,1.925 -0.73262,7.55 -1.0272,12.5 -0.29458,4.949996 -0.75846,11.024996 -1.03084,13.499996 -0.27237,2.475 -0.49989,11.924996 -0.5056,21.000006 -0.006,9.075 0.23675,19.875 0.53879,24 0.30203,4.125 0.75955,12.50236 1.01671,18.61636 0.25716,6.114 0.68405,11.739 0.94865,12.5 0.26461,0.761 0.95469,5.88364 1.53351,11.38364 l 1.05241,10 3.94998,20.5 c 2.17248,11.275 4.63331,23.425 5.46849,27 0.83519,3.575 1.80008,8.525 2.14421,11 0.34413,2.475 2.63779,12.825 5.09703,23 2.45923,10.175 6.26853,24.125 8.46512,31 2.19658,6.875 4.94378,14.8625 6.10488,17.75 l 2.1111,5.25 4.31598,0 4.31599,0 0,-1.38922 c 0,-0.76406 0.82408,-2.4069 1.83128,-3.65075 l 1.83128,-2.26154 2.70409,0.67869 2.70409,0.67868 0.95806,2.5199 0.95807,2.5199 -1.3803,3.30352 -1.38029,3.30351 -2.92414,2.08216 c -1.60827,1.1452 -4.24668,2.40638 -5.86313,2.80263 -1.61646,0.39626 -3.21091,1.13409 -3.54323,1.63963 l -0.60421,0.91916 2.48213,6.14515 2.48214,6.14515 2.97783,2.78171 2.97784,2.78172 3.73926,0 3.73925,0 1.70294,1.88172 1.70294,1.88173 1.02796,3.72297 1.02797,3.72298 3.92408,4.25713 c 2.15825,2.34142 3.92409,4.76931 3.92409,5.3953 l 0,1.13817 1.27691,0 c 0.7023,0 3.7398,1.83194 6.75,4.07098 l 5.47309,4.07099 2.90808,5.03797 2.90808,5.03797 4.98493,3.64105 c 2.74171,2.00257 6.8513,5.55354 9.13241,7.89104 2.28111,2.3375 4.57925,4.23093 5.10699,4.20763 0.52773,-0.0233 3.84503,-3.86443 7.37177,-8.53582 3.52675,-4.6714 7.04541,-9.71383 7.81925,-11.2054 0.77383,-1.49157 1.9744,-3.38795 2.66792,-4.21418 0.69353,-0.82623 4.00039,-6.00223 7.34859,-11.50223 3.3482,-5.5 8.15916,-14.00731 10.69102,-18.90514 2.53187,-4.89783 6.84385,-14.23164 9.58218,-20.74181 2.73833,-6.51016 4.97878,-12.13695 4.97878,-12.50398 0,-0.36703 1.74699,-2.9812 3.88219,-5.80926 l 3.8822,-5.14193 4.3678,-1.29564 c 2.4023,-0.71259 5.04281,-1.63866 5.86781,-2.05792 l 1.5,-0.76229 0,-1.36452 0,-1.36451 -6.85364,-2.63517 c -3.7695,-1.44935 -7.1484,-3.03627 -7.50867,-3.5265 -0.36026,-0.49023 -1.86957,-1.96438 -3.35402,-3.27587 l -2.699,-2.38455 -3.11988,5.01884 -3.11988,5.01883 -3.28883,1.77115 -3.28883,1.77116 -1.63677,5.19241 -1.63676,5.19241 -1.89394,1.71399 -1.89394,1.71399 -9.34074,1.50357 -9.34075,1.50356 -1.76217,-2.17619 c -0.9692,-1.19691 -1.76218,-2.82369 -1.76218,-3.61507 0,-0.79139 -0.68782,-2.76898 -1.5285,-4.39466 l -1.52849,-2.95579 -3.94301,-2.48911 -3.94301,-2.48911 -1.52849,-2.95579 -1.5285,-2.95578 0,-2.91567 0,-2.91567 -6.01596,-2.19353 -6.01595,-2.19352 -1.71094,-2.61123 -1.71094,-2.61122 -0.0854,-4.57924 -0.0854,-4.57924 -2.38563,-1.19091 -2.38562,-1.19091 -1.70934,-3.33186 -1.70934,-3.33185 -1.07237,-5.80097 -1.07237,-5.80097 1.03006,-7.67627 1.03007,-7.67626 2.55243,-6.79027 2.55243,-6.79027 3.76338,-4.70973 c 2.06986,-2.59035 4.83609,-5.65233 6.14719,-6.80439 1.31109,-1.15206 5.15601,-3.74767 8.54426,-5.76801 l 6.16046,-3.67335 7.83954,-2.00843 c 4.31165,-1.10464 10.76444,-2.45191 14.33944,-2.99393 l 6.5,-0.9855 9,1.37194 9,1.37195 7,3.68247 c 3.85,2.02536 8.78341,4.67585 10.96312,5.88999 l 3.96313,2.20753 3.93476,4 3.93476,4 2.34235,5 2.34234,5 0.01,2.10078 c 0.005,1.15542 0.48803,3.4727 1.07257,5.14951 l 1.06279,3.04874 -2.64987,8.68756 -2.64987,8.68756 -2.03746,2.03746 -2.03747,2.03747 -4.8508,-0.5745 -4.8508,-0.57451 -2.07797,4.69759 -2.07796,4.69759 2.2852,1.85044 2.2852,1.85045 4.78575,-0.63485 4.78575,-0.63486 0.61025,3.05125 0.61025,3.05125 1.36751,-0.26446 1.36751,-0.26447 2.29425,2.85508 2.29425,2.85509 3.8665,-1.0676 3.8665,-1.06759 0.88452,0.54667 0.88452,0.54666 -0.57888,1.8239 -0.57888,1.82391 7.86152,-0.53884 7.8614,-0.53884 3.4268,1.5683 c 1.8847,0.86257 5.1867,2.27874 7.3378,3.14705 l 3.911,1.57875 1.7801,-0.56499 1.7802,-0.56499 12.0386,4.77148 12.0387,4.77148 1.0081,2.89211 1.0082,2.89211 -0.5741,0.92893 -0.5741,0.92894 1.1552,1.39192 1.1552,1.39191 3.1809,0.69724 c 1.7495,0.38348 5.5689,1.82715 8.4875,3.20817 l 5.3067,2.51094 6.9486,7.6061 6.9485,7.60611 5.6785,9 c 3.1231,4.95 7.5511,12.825 9.8398,17.5 2.2888,4.675 5.1122,10.975 6.2743,14 1.1621,3.025 3.7068,9.89806 5.6549,15.27347 l 3.5421,9.77348 0,2.41142 c 0,1.32629 -0.4357,3.55752 -0.9683,4.9583 l -0.9683,2.54687 2.0529,1.09872 2.053,1.09872 1.3962,3.34145 c 0.7678,1.8378 1.6062,5.03537 1.863,7.10572 l 0.4669,3.76428 -2.1127,5.06378 -2.1126,5.06379 -4.9303,5.78057 -4.9303,5.78056 0.5944,1.54907 0.5944,1.54907 2.9035,-0.6377 2.9034,-0.63771 1.5974,2.28058 c 0.8786,1.25431 1.5974,2.86868 1.5974,3.58748 l 0,1.30692 -4,5.06038 c -2.2,2.7832 -4,5.62522 -4,6.31559 0,0.69037 0.8555,2.02948 1.9012,2.9758 l 1.9012,1.72058 0.4495,4.1844 0.4495,4.18441 -1.7731,4.02478 c -0.9752,2.21363 -2.5955,4.74686 -3.6007,5.62941 -1.0052,0.88255 -3.3069,2.35412 -5.1148,3.27016 l -3.2873,1.66552 2.0373,2.58992 2.0372,2.58993 0,5.25435 0,5.25436 -1.7623,2.17639 -1.7624,2.1764 -2.8216,-1.07277 -2.8215,-1.07276 -0.8724,0.53918 -0.8725,0.53918 0.4825,1.25739 0.4826,1.25739 4.4738,1.32096 4.4738,1.32096 0,1.84431 0,1.84431 -3.5111,0.65868 c -1.931,0.36227 -3.7576,1.05766 -4.059,1.54531 l -0.5482,0.88664 -1.8939,0 c -1.0417,0 -2.9276,0.47307 -4.191,1.05127 l -2.297,1.05127 -1.9128,3.95262 -1.9128,3.95262 0.5336,0.53355 0.5335,0.53355 2.6564,-1.21031 2.6563,-1.21032 1.1729,1.17288 c 0.6451,0.64508 1.5024,1.17287 1.9051,1.17287 0.4027,0 3.0644,-3.13622 5.9147,-6.96937 l 5.1825,-6.96937 4.7228,-3.03063 4.7229,-3.03063 6.4265,0 6.4266,0 5.2139,1.90576 c 2.8677,1.04816 6.6358,2.96066 8.3736,4.25 1.7378,1.28933 4.8471,3.99758 6.9097,6.01832 l 3.75,3.67408 0.6256,4.32592 c 0.344,2.37926 0.8944,8.65213 1.2231,13.93973 l 0.5975,9.6138 -4.1108,3.30356 -4.1108,3.30356 0,3.30695 0,3.30696 2.75,1.42234 2.75,1.42233 3.0672,3.85335 c 1.687,2.11934 3.3801,4.69223 3.7625,5.71754 l 0.6951,1.8642 2.7376,-0.6748 c 1.5057,-0.37114 3.8626,-0.90398 5.2376,-1.18409 l 2.5,-0.50929 2.25,2.10885 2.25,2.10884 0,2.05208 0,2.05208 3.4007,3.97297 3.4007,3.97298 0.8034,3.68599 c 0.4419,2.02729 0.6968,4.68404 0.5665,5.90388 l -0.237,2.21789 2.5538,4.04543 2.5538,4.04544 0.5411,4.73668 c 0.2977,2.60517 1.2181,9.01167 2.0455,14.23667 0.8274,5.225 1.9825,10.625 2.567,12 l 1.0626,2.5 0.7928,30 0.7928,30 1.6279,10.5 c 0.8953,5.775 2.123,11.85 2.7281,13.5 0.6052,1.65 1.6512,4.35 2.3246,6 0.6735,1.65 1.7806,5.025 2.4603,7.5 0.6797,2.475 2.3494,6.40456 3.7103,8.73237 l 2.4744,4.23236 2.9921,2.51764 2.992,2.51763 5.519,0 5.519,0 2.7294,1.6123 2.7294,1.6123 2.8437,4.6377 2.8438,4.6377 0.031,3.20026 0.031,3.20026 -1.7,1.87848 c -0.935,1.03317 -1.7,2.40555 -1.7,3.04974 l 0,1.17126 4.5576,0 4.5575,0 4.6925,2.58542 4.6924,2.58542 4.5,4.34464 4.5,4.34464 5.422,2.03922 c 2.9821,1.12157 5.6821,2.39054 6,2.81994 0.3179,0.4294 3.8083,2.477 7.7565,4.55023 3.9482,2.07324 9.3768,5.24887 12.0637,7.05697 2.6868,1.80809 6.6564,4.61177 8.8214,6.23038 2.165,1.61861 5.7364,4.59593 7.9364,6.61627 2.2,2.02034 6.25,5.37565 9,7.45625 2.75,2.08061 5.45,4.28658 6,4.90216 0.55,0.61558 3.7,3.32125 7,6.0126 3.3,2.69135 8.25,6.95498 11,9.47474 2.75,2.51976 7.6239,6.58382 10.8308,9.03125 3.207,2.44743 7.707,5.92937 10,7.73764 2.2931,1.80827 6.6442,5.0183 9.6692,7.1334 3.025,2.1151 8.4319,6.48561 12.0154,9.71223 3.5835,3.22663 7.521,6.43291 8.75,7.12507 l 2.2346,1.25848 0,-4.32138 0,-4.32139 2.8047,-2.68709 2.8047,-2.68709 3.1184,0 3.1184,0 2.8998,2.89979 2.8997,2.8998 2.1772,5.68919 2.1771,5.68919 0,3.33835 0,3.33835 -3.5,6.71482 -3.5,6.71481 0,6.40751 0,6.40751 1.4811,2.86421 1.4812,2.86421 0.6449,5.48726 0.6449,5.48725 -2.5913,5.34888 c -1.4252,2.94188 -3.901,8.49887 -5.5018,12.34891 l -2.9105,7 -0.6719,4.4739 -0.6718,4.47393 -1.4591,1.6122 -1.4591,1.6123 2.2174,4.0481 2.2174,4.0481 -4.7716,7.1119 -4.7716,7.112 -2.3374,0.5866 c -1.2855,0.3227 -3.3956,0.4369 -4.6891,0.2538 l -2.3516,-0.3329 -0.3196,-2.25 -0.3195,-2.25 -1.8738,0 -1.8737,0 -1.4583,2.082 -1.4582,2.0819 -4.1209,0.5527 -4.1209,0.5528 -2.0012,-1.8111 -2.0012,-1.811 -1.1764,1.1763 c -0.647,0.647 -1.9141,1.1764 -2.8158,1.1764 l -1.6395,0 -1.1468,-2.517 -1.1469,-2.517 -1.8812,1.1748 -1.8812,1.1748 -1.7362,-0.6662 -1.7362,-0.6663 0.6522,-1.7415 c 0.3588,-0.9579 2.0672,-4.0903 3.7965,-6.9609 l 3.1442,-5.2193 2.8073,-0.9786 2.8073,-0.9787 0,-2.3964 0,-2.3964 5.078,-5.80303 5.0781,-5.803 -0.6219,-2.1027 c -0.3421,-1.1564 -0.8833,-5.47754 -1.2028,-9.60254 l -0.5807,-7.5 3.1246,-6.88832 3.1247,-6.88831 0,-6.86169 0,-6.86168 -1.7635,-1.76351 c -0.97,-0.96993 -2.7401,-3.13488 -3.9336,-4.811 -1.1935,-1.67611 -2.488,-4.37003 -2.8767,-5.98648 -0.3887,-1.61646 -1.9046,-4.74225 -3.3688,-6.94622 -1.4641,-2.20396 -5.0913,-6.61725 -8.0603,-9.8073 l -5.3983,-5.80009 -7.7673,-5.4427 c -4.272,-2.99349 -8.0491,-5.4427 -8.3935,-5.4427 -0.3444,0 -3.1874,-1.94788 -6.3179,-4.32862 l -5.6918,-4.32863 -13.6157,-6.67137 c -7.4886,-3.66926 -14.0735,-6.67138 -14.6331,-6.67138 -0.5596,0 -2.2914,-0.67872 -3.8485,-1.50826 -1.5571,-0.82955 -8.231,-3.77004 -14.831,-6.53443 l -12,-5.02617 -4.5,-3.16408 c -2.475,-1.74025 -4.725,-3.42781 -5,-3.75015 -0.275,-0.32233 -2.975,-2.2426 -6,-4.26726 -3.025,-2.02466 -7.3818,-4.98047 -9.6817,-6.56847 l -4.1817,-2.88727 -5.5366,-0.57143 -5.5367,-0.57144 -6.076,-3.23848 -6.076,-3.23848 -4.3591,-3.83704 -4.3591,-3.83704 -3.1298,0 -3.1298,0 -4.9488,-2.50773 -4.9488,-2.50773 -1.607,-2.45268 -1.6071,-2.45268 -0.014,-10.65382 -0.014,-10.65383 2.1036,-2.84527 c 1.157,-1.5649 2.1036,-3.43837 2.1036,-4.16326 0,-0.72489 -0.6101,-2.20562 -1.3558,-3.29049 -0.7457,-1.08488 -2.0409,-4.22251 -2.8783,-6.97251 -0.8373,-2.75 -2.014,-7.925 -2.6148,-11.5 -0.6008,-3.575 -1.566,-11.45 -2.145,-17.5 -0.579,-6.05 -1.5345,-14.375 -2.1234,-18.5 -0.589,-4.125 -1.9206,-12.675 -2.9593,-19 -1.0387,-6.325 -2.5896,-15.325 -3.4465,-20 -0.8568,-4.675 -2.0082,-12.1 -2.5585,-16.5 -0.5503,-4.4 -1.631,-10.475 -2.4014,-13.5 -0.7704,-3.025 -2.332,-9.325 -3.4702,-14 -1.1382,-4.675 -2.6638,-10.20196 -3.3902,-12.28212 -0.7265,-2.08017 -1.8464,-4.30767 -2.4887,-4.95 l -1.1679,-1.16788 0,2.18422 0,2.18423 -2.8663,3.20786 -2.8662,3.20787 -9.3838,0.0579 -9.3837,0.0579 -1.3136,4.15 -1.3136,4.15 -2.1864,0.58634 c -1.2026,0.32249 -3.7614,0.58953 -5.6864,0.59342 l -3.5,0.007 -3,-1.98682 -3,-1.98682 -2.0159,-0.007 -2.0159,-0.007 -6.5325,-3.81739 c -3.5929,-2.09957 -8.9166,-5.70186 -11.8304,-8.00511 l -5.2979,-4.18771 -2.4656,-0.61885 -2.4657,-0.61884 -3.8921,1.75511 -3.8921,1.7551 -3.8793,4.61885 c -2.1336,2.54036 -5.0792,6.4408 -6.5457,8.66765 l -2.6664,4.04881 -4.2503,2.45119 -4.2502,2.45209 -6.8465,7 -6.8466,7 -3.6534,5.43058 c -2.0095,2.98682 -4.3285,6.41341 -5.1535,7.61463 -0.825,1.20123 -2.8025,4.38247 -4.3944,7.06942 -1.5919,2.68695 -3.9339,6.46037 -5.2045,8.38537 -1.2706,1.925 -4.1306,7.39131 -6.3556,12.14735 -2.2251,4.75605 -4.0455,9.15784 -4.0455,9.78177 0,0.62393 -1.575,4.00061 -3.5,7.50374 -1.925,3.50313 -3.5,6.88853 -3.5,7.5231 0,0.63457 -0.9634,3.26658 -2.14085,5.8489 -1.17745,2.58233 -3.0261,6.72014 -4.10813,9.19514 -1.08203,2.475 -2.40743,5.85 -2.94535,7.5 -0.53791,1.65 -1.17215,4.125 -1.40942,5.5 -0.23727,1.375 -0.71288,6.63352 -1.05692,11.6856 l -0.62553,9.1856 2.69088,3.19793 c 1.47998,1.75886 3.52708,4.83702 4.5491,6.84036 l 1.85823,3.64243 0.24478,2.97404 c 0.13462,1.63572 0.17691,3.88055 0.094,4.98851 l -0.1508,2.01447 -5.15286,6.36834 -5.15287,6.36834 1.26796,3.61719 c 0.69738,1.98946 1.8314,4.96719 2.52005,6.61719 0.68866,1.65 2.43816,5.925 3.88778,9.5 1.44963,3.575 2.63439,7.07533 2.63281,7.77852 -0.002,0.70318 1.41557,4.07818 3.14924,7.5 1.7336,3.42181 3.5622,7.79648 4.0635,9.72148 0.5013,1.925 1.5659,7.325 2.3658,12 0.7998,4.675 2.0976,12.775 2.884,18 0.7863,5.225 2.3092,12.425 3.3841,16 l 1.9545,6.5 1.1753,12 c 0.6464,6.6 1.5525,14.7 2.0136,18 0.4611,3.3 0.8763,10.41545 0.9227,15.8121 l 0.084,9.81211 1.5722,5.18789 c 0.8647,2.85335 1.9897,5.96929 2.5,6.92433 0.5103,0.95501 0.9278,2.41751 0.9278,3.25001 l 0,1.5136 0.9743,0 0.9744,0 1.664,3.25 c 0.9153,1.7875 3.5141,5.5 5.7751,8.25 2.261,2.75003 5.1542,6.12503 6.4293,7.50003 1.2751,1.375 3.1879,4.1696 4.2507,6.2102 l 1.9322,3.71 0,4.1056 0,4.1056 -1.0352,1.9342 -1.0352,1.9343 -8.2648,0 -8.2648,0 -1.237,-1.2371 -1.2371,-1.237 -7.7129,-0.7117 c -4.2422,-0.3914 -9.821,-1.0149 -12.3975,-1.3856 l -4.6846,-0.6739 -6.81543,3.8621 -6.81546,3.8622 -17.5,0.2658 c -9.625,0.1461 -25.29453,0.3759 -34.82118,0.5105 z m 78.62742,-66.9099 c 0.1684,-1.73504 -0.1719,-7.58504 -0.7562,-13 -0.5844,-5.41495 -1.6932,-14.12037 -2.464,-19.34537 -0.7708,-5.225 -1.9158,-12.65 -2.5444,-16.5 -0.6285,-3.85 -1.8492,-10.6 -2.7125,-15 -0.8633,-4.4 -2.0522,-8.9 -2.642,-10 -0.5899,-1.1 -1.3954,-4.025 -1.7902,-6.5 -0.3948,-2.475 -1.39209,-7.45378 -2.21622,-11.06396 -0.82413,-3.61017 -2.1461,-8.11017 -2.93771,-10 -0.79162,-1.88982 -3.19513,-6.13604 -5.34116,-9.43604 l -3.90185,-6 -0.30274,5.84504 -0.30274,5.84503 1.38036,2.15497 c 0.7592,1.18523 2.21065,4.62996 3.22544,7.65496 1.01479,3.025 2.17932,7.975 2.58783,11 0.40851,3.025 1.46488,9.325 2.34748,14 0.8826,4.675 2.55524,12.55 3.71698,17.5 1.16173,4.95 2.47443,9.73617 2.91703,10.63593 0.4427,0.89976 1.3266,4.49976 1.9643,8 0.6377,3.50024 2.2691,10.86407 3.6253,16.36407 1.3562,5.5 2.8797,11.94257 3.3856,14.31682 0.5058,2.37425 1.2652,4.84925 1.6874,5.5 l 0.7678,1.18318 0.3062,-3.15463 z m 367.8162,-50.34537 2.3776,0 0,-0.91345 c 0,-0.5024 -2.6397,-3.0899 -5.866,-5.75 -3.2263,-2.6601 -6.8973,-5.51155 -8.1578,-6.33655 -1.2606,-0.825 -3.6834,-2.65311 -5.3841,-4.06247 -1.7007,-1.40936 -6.3008,-5.00936 -10.2225,-8 -3.9217,-2.99064 -8.3936,-6.33753 -9.9377,-7.43753 -1.5441,-1.1 -4.9597,-3.6875 -7.5902,-5.75 -2.6306,-2.0625 -5.2086,-3.75 -5.729,-3.75 -0.5203,0 -1.0961,-0.3375 -1.2794,-0.75 -0.1833,-0.4125 -3.4833,-3.45766 -7.3333,-6.76701 -3.85,-3.30936 -8.5928,-7.1975 -10.5395,-8.64031 -1.9467,-1.44282 -4.6467,-3.78989 -6,-5.21571 -1.3533,-1.42583 -2.817,-2.60019 -3.2527,-2.60969 -0.4358,-0.01 -1.3358,-0.4605 -2,-1.00221 -0.6643,-0.5417 -2.6891,-2.1725 -4.4995,-3.62398 -1.8105,-1.45148 -7.4355,-4.82924 -12.5,-7.50614 -5.0646,-2.6769 -11.9083,-6.22113 -15.2083,-7.87607 -3.3,-1.65495 -7.4625,-3.28405 -9.25,-3.62023 l -3.25,-0.61123 0,-0.88871 0,-0.88871 -3,0 -3,0 0,1.00464 0,1.00464 11.8854,8.74536 c 6.537,4.80995 13.965,10.09536 16.5067,11.74536 2.5416,1.65 11.0307,7.33765 18.8645,12.63923 7.8339,5.30158 15.504,10.81408 17.0449,12.25 1.5408,1.43592 3.0641,2.61077 3.385,2.61077 0.321,0 4.6499,3.0375 9.6199,6.75 4.9701,3.7125 10.6468,7.7339 12.615,8.93645 1.9682,1.20255 6.5036,3.873 10.0786,5.93434 3.575,2.06133 7.625,4.58979 9,5.61879 1.375,1.02901 5.558,4.09606 9.2957,6.81567 3.7376,2.71961 7.17,4.94475 7.6275,4.94475 0.4575,0 1.3921,0.675 2.0768,1.5 l 1.2449,1.5 2.3775,0 z M 498.35535,621.04735 c 1.1,-0.21594 2.7362,-0.39876 3.636,-0.40627 l 1.6361,-0.0136 1.8403,-3.75 1.8404,-3.75 0.5752,-9.5 0.5752,-9.5 -1.5516,-1.55505 c -0.8534,-0.85528 -3.4164,-2.99278 -5.6955,-4.75 l -4.1439,-3.195 -4.0025,0 -4.0026,0 -3.0038,3.42116 -3.0038,3.42117 -1.0998,5.12805 c -0.6048,2.82044 -1.0968,6.11841 -1.0931,7.32884 l 0.01,2.20078 1.9868,3 1.9868,3 0.01,2.50945 0.01,2.50946 2.25,1.42439 c 1.2375,0.78341 3.825,1.74948 5.75,2.14681 1.925,0.39733 4.4,0.54574 5.5,0.32981 z m -151.76392,-132.41992 2.26388,0 0,-1.59563 0,-1.59563 -2.12742,-2.98768 -2.12741,-2.98768 -1.89893,0.49658 -1.89893,0.49658 -2.97366,-2.50216 -2.97365,-2.50217 0,-1.23679 0,-1.23679 -2.5,-2.34863 c -1.375,-1.29175 -2.51252,-2.83269 -2.52782,-3.42431 -0.0153,-0.59163 -1.36571,-2.8439 -3.00091,-5.00505 -1.6352,-2.16115 -8.18928,-9.24865 -14.56463,-15.75 l -11.59154,-11.82064 -1.40755,0 -1.40755,0 0,1.40708 0,1.40708 2.93927,3.34292 c 1.61661,1.83861 6.60827,7.39292 11.0926,12.34292 4.48432,4.95 10.62686,12.26297 13.65007,16.25105 l 5.49675,7.25104 6.64678,5.99896 6.64677,5.99895 2.26388,0 z m 14.14014,-10 c 0.95781,0 2.46726,-0.5625 3.35433,-1.25 l 1.61285,-1.25 2.70745,-6.5 c 1.4891,-3.575 3.59837,-8.975 4.68727,-12 1.0889,-3.025 2.34533,-7.075 2.79207,-9 0.44675,-1.925 1.46763,-5.3 2.26862,-7.5 0.801,-2.2 1.76452,-6.14085 2.14115,-8.75744 l 0.68478,-4.75745 -1.81239,-0.54499 c -0.99681,-0.29974 -3.61239,-1.45277 -5.81239,-2.56228 l -4,-2.0173 -2.36981,-2.98309 -2.3698,-2.9831 -0.29696,-4.40477 -0.29696,-4.40477 -2.48491,-3.29241 c -1.3667,-1.81082 -3.24385,-5.0924 -4.17145,-7.2924 -0.9276,-2.2 -2.32184,-6.38446 -3.09833,-9.29879 -0.77648,-2.91433 -1.42773,-6.73933 -1.44722,-8.5 l -0.0354,-3.20121 -1.42913,-2.5 c -0.78602,-1.375 -1.44508,-3.33196 -1.46456,-4.34879 l -0.0354,-1.84879 3.0735,-2.87108 3.0735,-2.87108 -0.3235,-2.178 -0.3235,-2.178 -1.69723,-1.06373 -1.69723,-1.06373 -2.67995,0.9616 -2.67995,0.9616 -1.62282,4.10475 -1.62282,4.10475 -5.03356,5.48902 -5.03356,5.48902 -5.61766,9.40623 c -3.08971,5.17343 -8.36269,13.68123 -11.71773,18.90623 -3.35504,5.225 -7.0595,11.28719 -8.23212,13.47153 -1.17263,2.18434 -2.50676,5.27808 -2.96475,6.87497 l -0.83269,2.90345 12.56292,12.51743 c 6.90961,6.88459 13.86806,14.31913 15.46323,16.5212 1.59518,2.20207 5.60915,6.91165 8.91995,10.46573 l 6.01963,6.46196 3.46915,-0.65082 3.46916,-0.65082 1.94629,1.04162 1.94629,1.04163 0.63511,2.00106 0.63512,2.00106 1.74148,0 z m 59.40128,-14 2.2775,0 2.2358,-1.56608 2.2359,-1.56608 2.1159,-4.14733 2.1158,-4.14733 6.1945,-6.28659 c 3.407,-3.45762 6.5289,-6.28659 6.9375,-6.28659 0.4087,0 2.1755,-1.07929 3.9263,-2.39843 1.7508,-1.31913 7.6833,-4.7271 13.1833,-7.57326 5.5,-2.84616 10.7875,-5.88661 11.75,-6.75656 l 1.75,-1.58173 0,-2.84501 0,-2.84501 -1.1139,0 c -0.6126,0 -2.7501,0.86538 -4.75,1.92307 -1.9999,1.05768 -6.1111,3.07241 -9.1361,4.47717 -3.025,1.40476 -8.3289,4.09848 -11.7865,5.98605 -3.4575,1.88756 -7.7325,4.51846 -9.5,5.84643 -1.7674,1.32798 -3.983,2.69782 -4.9234,3.04409 l -1.7098,0.62959 -2.9902,4.12787 c -1.6446,2.27032 -3.9905,6.22889 -5.2131,8.7968 -1.2226,2.56791 -3.0451,5.74212 -4.05,7.05379 l -1.827,2.38486 0,1.86514 0,1.86514 2.2775,0 z m -175.94338,-7.57127 c 1.19121,-0.35894 5.86159,-2.22345 10.37861,-4.14335 l 8.21276,-3.49073 1.14986,-1.38549 1.14986,-1.38549 -1.59137,-0.61067 -1.59138,-0.61067 -8.37896,3.59884 c -4.60842,1.97935 -8.83789,3.59883 -9.3988,3.59883 -0.56092,0 -1.56369,0.65529 -2.22839,1.4562 l -1.20853,1.45619 0.67025,1.08448 0.67024,1.08448 2.16585,-0.65262 z m 165.62588,-3.42873 c 0.4632,0 3.0702,-2.5875 5.7934,-5.75 2.7232,-3.1625 5.1302,-6.2891 5.3489,-6.948 0.2187,-0.6589 2.1977,-3.3589 4.3977,-6 2.2,-2.6411 5.4127,-6.18734 7.1394,-7.88054 l 3.1394,-3.07853 5.8606,-2.84222 c 3.2233,-1.56322 8.5842,-4.54958 11.913,-6.63636 3.3289,-2.08678 8.6164,-4.96793 11.75,-6.40255 l 5.6976,-2.60841 0,-1.34379 c 0,-0.73908 -0.884,-3.4061 -1.9645,-5.92669 l -1.9645,-4.58291 -1.4545,0 c -0.7999,0 -2.8381,0.7875 -4.5292,1.75 -1.6911,0.9625 -3.0775,2.0875 -3.081,2.5 0,0.4125 -0.5748,0.75 -1.2697,0.75 -0.6948,0 -3.7323,1.66213 -6.75,3.69362 -3.0176,2.03149 -7.9616,5.70037 -10.9866,8.15306 -3.025,2.45269 -8.2,7.41221 -11.5,11.02114 -3.3,3.60893 -7.7155,8.29304 -9.8122,10.40914 l -3.8122,3.84744 -1.8701,4.36263 c -1.0285,2.39944 -2.3336,6.04172 -2.9003,8.09395 l -1.0303,3.73133 0.5216,0.84384 c 0.2868,0.46412 0.9004,0.84385 1.3635,0.84385 z m -7.7804,-10 c 0.4289,0 1.6936,-1.6875 2.8105,-3.75 1.117,-2.0625 2.5886,-4.64315 3.2703,-5.73478 0.6818,-1.09163 2.0271,-2.57965 2.9896,-3.30671 l 1.75,-1.32192 0,-1.58118 0,-1.58119 11.25,-11.15262 11.25,-11.15263 5,-3.38224 c 2.75,-1.86023 6.5124,-4.68462 8.361,-6.27643 1.8486,-1.5918 5.3361,-3.85374 7.75,-5.02651 l 4.389,-2.13232 0,-1.05074 c 0,-0.5779 -0.8955,-2.51323 -1.9853,-4.30073 l -1.9816,-3.25 -1.2647,0.008 -1.2647,0.008 -4.5,4.62744 -4.5,4.62743 -6.5,4.22481 -6.5,4.22482 -8.1493,8.39023 c -4.4822,4.61463 -10.9004,11.83952 -14.2629,16.05531 l -6.1135,7.66508 -2.4262,6.44586 -2.4262,6.44585 1.139,1.13907 c 0.6265,0.62648 1.49,1.13906 1.9188,1.13906 z M 281.54629,424.58671 c 0.65504,0.0224 1.51169,-0.47818 1.90365,-1.1124 l 0.71267,-1.15312 -5.90365,-5.39412 c -3.24701,-2.96677 -7.25365,-6.27118 -8.90365,-7.34314 -1.65,-1.07197 -3.3375,-1.95071 -3.75,-1.95276 -0.4125,-0.002 -0.75,0.47839 -0.75,1.06767 l 0,1.0714 7.75,7.38788 7.75,7.38788 1.19098,0.0407 z m 117.00966,-2.95928 c 0.4886,0 2.6684,-2.33607 4.8439,-5.19127 2.1755,-2.8552 10.2589,-11.5177 17.9631,-19.25 7.7042,-7.7323 17.0417,-16.67421 20.75,-19.8709 l 6.7424,-5.81218 -0.022,-2.18782 -0.022,-2.18783 -1.8206,-2.36729 -1.8205,-2.36729 -1.9072,0.61436 -1.9073,0.61435 -7.4866,7.11199 c -4.1177,3.9116 -8.2162,7.62542 -9.1079,8.25294 -0.8916,0.62752 -4.9344,4.06594 -8.984,7.64094 -4.0497,3.575 -8.8013,8.04097 -10.5594,9.92437 l -3.1964,3.42437 -1.5079,5.57563 c -0.8294,3.0666 -1.8089,7.93813 -2.1767,10.82563 l -0.6687,5.25 0.8883,0 z m -19.34088,-7.88049 c 1.02288,-0.89073 2.79692,-3.64451 3.94233,-6.11951 1.1454,-2.475 2.67101,-4.85986 3.39025,-5.29969 l 1.3077,-0.79969 0,-2.49997 0,-2.49997 1.3589,-2.70034 c 0.7474,-1.48519 1.6191,-4.38784 1.9371,-6.45034 l 0.5782,-3.75 -1.4935,0 -1.4935,0 -2.9392,3.21803 -2.93922,3.21804 -0.61777,3.29301 c -0.33978,1.81115 -1.01676,3.5396 -1.50441,3.84098 -0.48765,0.30139 -0.88664,1.24091 -0.88664,2.08783 0,0.84692 -0.72627,3.07036 -1.61394,4.94098 l -1.61394,3.40113 -1.35088,0 -1.35087,0 -0.99644,1.86186 -0.99644,1.86186 1.21126,1.52311 c 0.66619,0.8377 1.88625,1.74115 2.71125,2.00765 l 1.5,0.48454 1.85976,-1.61951 z m -9.78656,-14.11951 c 0.69477,0 1.97503,-0.27314 2.84501,-0.60699 l 1.58179,-0.60699 0,-5.6705 0,-5.67051 1.65938,-2.3691 c 0.91267,-1.30301 3.43918,-3.99064 5.61448,-5.97251 2.1753,-1.98187 5.42568,-4.37451 7.22308,-5.31698 l 3.268,-1.71359 0.7739,-2.78641 c 0.4257,-1.53253 0.9205,-3.23642 1.0996,-3.78642 0.1791,-0.55 0.5694,-2.125 0.8673,-3.5 l 0.5416,-2.5 -0.8988,-1.35701 -0.8988,-1.35701 -1.8749,0.60064 c -1.0312,0.33036 -3.1045,1.84102 -4.6074,3.35702 -1.50298,1.516 -4.42798,4.86852 -6.50004,7.45004 -2.07207,2.58152 -5.27619,6.78651 -7.12027,9.34442 l -3.35286,4.65074 -3.39714,2.00435 -3.39713,2.00436 0,1.03521 c 0,0.56936 0.52764,2.88741 1.17252,5.15122 0.64489,2.26381 1.83963,4.90352 2.65499,5.86602 0.81536,0.9625 2.05092,1.75 2.74569,1.75 z m 41.26454,-21.17627 c 2.5642,-2.34807 5.1123,-4.61851 5.6623,-5.04541 0.55,-0.4269 3.682,-2.91416 6.96,-5.52725 3.278,-2.61309 7.4405,-6.16857 9.25,-7.90107 l 3.29,-3.15 0,-2.62475 0,-2.62475 -2.5651,-0.97525 c -1.4108,-0.53639 -3.1541,-0.97525 -3.8739,-0.97525 l -1.3087,0 -6.0646,5.25 c -3.3355,2.8875 -8.3058,6.98185 -11.0452,9.09855 l -4.9806,3.84855 -0.3747,6.65145 c -0.2062,3.6583 -0.2031,7.00987 0.01,7.44793 l 0.3815,0.79648 4.6622,-4.26923 z m -48.40918,-1.82373 1.47807,0 1.79669,-2.65673 c 0.98817,-1.4612 5.39668,-6.44644 9.79668,-11.07831 l 8,-8.42158 3.68414,-1.90843 c 2.0263,-1.04964 4.8582,-2.99644 6.293,-4.32622 l 2.6089,-2.4178 -0.6538,-2.60491 c -0.3596,-1.43271 -1.003,-2.82071 -1.4297,-3.08446 l -0.7759,-0.47954 -1.2358,1.48899 c -0.6796,0.81894 -1.5988,1.48899 -2.0426,1.48899 -0.4437,0 -3.56507,1.83208 -6.93627,4.0713 l -6.12946,4.0713 -0.57975,1.6787 c -0.31887,0.92328 -2.87993,3.84393 -5.69126,6.49033 l -5.1115,4.81162 -3.82375,1.57647 -3.82375,1.57646 0.58173,2.31781 c 0.31996,1.27479 1.01701,3.46265 1.549,4.86191 l 0.96727,2.5441 1.47806,0 z m 2.5834,-27 c 0.49167,0 2.14592,-0.5625 3.67613,-1.25 1.53021,-0.6875 7.05778,-4.0625 12.2835,-7.5 5.22571,-3.4375 9.79675,-6.25 10.15785,-6.25 0.3611,0 0.9445,-0.75025 1.2964,-1.66722 l 0.6397,-1.66721 -0.9744,-0.97442 -0.9744,-0.97442 -3.4595,1.64163 c -1.90273,0.9029 -3.79072,1.64164 -4.19554,1.64164 -0.40483,0 -4.94954,2.57124 -10.09937,5.71387 l -9.36331,5.71387 -0.56406,1.77718 -0.56406,1.77718 0.62357,1.00895 c 0.34296,0.55492 1.02583,1.00895 1.51749,1.00895 z"
     id="path2989"
     inkscape:connector-curvature="0" />
</svg>
