<?xml version="1.0" encoding="UTF-8" standalone="no"?>
<!-- Created with Inkscape (http://www.inkscape.org/) -->

<svg
   xmlns:dc="http://purl.org/dc/elements/1.1/"
   xmlns:cc="http://creativecommons.org/ns#"
   xmlns:rdf="http://www.w3.org/1999/02/22-rdf-syntax-ns#"
   xmlns:svg="http://www.w3.org/2000/svg"
   xmlns="http://www.w3.org/2000/svg"
   xmlns:sodipodi="http://sodipodi.sourceforge.net/DTD/sodipodi-0.dtd"
   xmlns:inkscape="http://www.inkscape.org/namespaces/inkscape"
   id="svg2"
   version="1.1"
   inkscape:version="0.48.2 r9819"
   width="814.37067"
   height="1187.0668"
   sodipodi:docname="ericbrighteyeswi00hagguoft_0093d.png">
  <metadata
     id="metadata8">
    <rdf:RDF>
      <cc:Work
         rdf:about="">
        <dc:format>image/svg+xml</dc:format>
        <dc:type
           rdf:resource="http://purl.org/dc/dcmitype/StillImage" />
        <dc:title></dc:title>
      </cc:Work>
    </rdf:RDF>
  </metadata>
  <defs
     id="defs6" />
  <sodipodi:namedview
     pagecolor="#ffffff"
     bordercolor="#666666"
     borderopacity="1"
     objecttolerance="10"
     gridtolerance="10"
     guidetolerance="10"
     inkscape:pageopacity="0"
     inkscape:pageshadow="2"
     inkscape:window-width="1600"
     inkscape:window-height="876"
     id="namedview4"
     showgrid="false"
     fit-margin-top="0"
     fit-margin-left="0"
     fit-margin-right="0"
     fit-margin-bottom="0"
     inkscape:zoom="0.5"
     inkscape:cx="367.17207"
     inkscape:cy="648.29726"
     inkscape:window-x="0"
     inkscape:window-y="24"
     inkscape:window-maximized="1"
     inkscape:current-layer="svg2" />
  <path
     style="fill:#000000"
     d="m 550.50051,1185.9999 c -0.3399,-0.55 -1.4915,-1 -2.559,-1 -1.0676,0 -1.941,-0.45 -1.941,-1 0,-0.55 -0.9,-1 -2,-1 -1.1,0 -2,-0.45 -2,-1 0,-0.55 -0.8449,-1 -1.8776,-1 -1.0326,0 -2.3741,-0.5983 -2.981,-1.3296 -0.6258,-0.7541 -2.3267,-1.1501 -3.9293,-0.9148 -1.7764,0.2607 -3.3144,-0.174 -4.1414,-1.1704 -1.1495,-1.3851 -5.2634,-1.5852 -32.5862,-1.5852 -26.8735,0 -31.3515,0.2109 -31.8461,1.5 -0.3166,0.825 -1.2789,1.5 -2.1384,1.5 -0.8595,0 -1.8218,-0.675 -2.1384,-1.5 -0.3166,-0.825 -1.3374,-1.5 -2.2686,-1.5 -2.1777,0 -4.093,-1.9263 -4.093,-4.1167 0,-0.9441 -0.5625,-1.9229 -1.25,-2.175 -1,-0.3666 -1,-0.7233 0,-1.7833 0.6875,-0.7287 1.25,-2.585 1.25,-4.125 0,-1.54 0.45,-2.8 1,-2.8 0.55,0 1,-1.71 1,-3.8 0,-2.09 0.5587,-4.3587 1.2416,-5.0416 0.9889,-0.9889 0.938,-1.4523 -0.25,-2.2762 -1.1236,-0.7792 -1.1832,-1.1596 -0.2416,-1.5417 1.5265,-0.6194 1.6376,-3.5529 0.1895,-5.001 -1.6601,-1.6601 -0.7621,-10.8395 1.0605,-10.8395 1.0498,0 1.5923,-1.2756 1.8075,-4.25 0.1691,-2.3375 0.7316,-4.25 1.25,-4.25 0.5184,0 0.9425,-0.9141 0.9425,-2.0314 0,-1.1172 0.675,-2.2904 1.5,-2.607 0.9724,-0.3731 1.5,-1.9241 1.5,-4.4096 0,-2.1087 0.45,-4.1121 1,-4.452 0.55,-0.3399 1,-1.4915 1,-2.559 0,-1.0676 0.45,-1.941 1,-1.941 0.55,0 1,-0.9 1,-2 0,-1.1 0.45,-2 1,-2 0.55,0 1,-0.8449 1,-1.8776 0,-1.0326 0.6852,-2.4461 1.5226,-3.1411 0.8374,-0.695 1.2772,-2.0366 0.9774,-2.9813 -0.2998,-0.9447 0.14,-2.2863 0.9774,-2.9813 0.8374,-0.695 1.5226,-2.1085 1.5226,-3.1411 0,-1.0327 0.45,-1.8776 1,-1.8776 0.55,0 1,-1.1113 1,-2.4696 0,-1.3583 0.9,-4.0719 2,-6.0304 1.1,-1.9585 2,-4.4793 2,-5.6018 0,-1.1226 0.7165,-2.7576 1.5923,-3.6333 1.035,-1.035 1.3998,-2.5544 1.0424,-4.3414 -0.3513,-1.7564 -0.024,-3.1858 0.9077,-3.9587 0.8182,-0.679 1.4576,-2.9107 1.4576,-5.0872 0,-2.1327 0.45,-3.8776 1,-3.8776 0.5771,0 1,-3.147 1,-7.441 0,-4.0925 0.45,-7.7191 1,-8.059 0.55,-0.3399 1,-3.2649 1,-6.5 0,-3.2351 0.45,-6.1601 1,-6.5 0.55,-0.3399 1,-2.1986 1,-4.1304 0,-1.9319 0.7165,-4.229 1.5923,-5.1047 1.035,-1.035 1.3998,-2.5544 1.0424,-4.3414 -0.3513,-1.7564 -0.024,-3.1858 0.9077,-3.9587 1.7739,-1.4722 1.862,-3.1604 0.249,-4.7734 -0.8018,-0.80175 -1.1121,-4.00375 -0.9217,-9.51245 0.2279,-6.5942 -0.038,-8.5736 -1.2913,-9.6139 -2.135,-1.7718 -2.1154,-9.6708 0.029,-11.8155 1.1347,-1.1348 1.4584,-2.72 1.1004,-5.3895 -0.3409,-2.5411 -0.048,-4.1628 0.8923,-4.9433 0.906,-0.752 1.3996,-3.2136 1.3996,-6.9801 0,-3.2002 0.45,-6.0967 1,-6.4366 0.55,-0.3399 1,-1.9415 1,-3.559 0,-1.6176 0.45,-2.941 1,-2.941 0.55,0 1,-2.025 1,-4.5 0,-2.475 0.45,-4.5 1,-4.5 0.55,0 1,-0.9 1,-2 0,-1.1 0.4414,-2 0.981,-2 0.5395,0 1.2633,-1.12498 1.6084,-2.49998 0.3451,-1.375 1.0286,-2.5 1.519,-2.5 0.4904,0 0.8916,-0.6059 0.8916,-1.3464 0,-2.3223 2.8019,-7.0896 5.926,-10.0827 1.6516,-1.5823 2.8114,-3.1868 2.5774,-3.5655 -0.2341,-0.3787 1.1319,-2.1981 3.0355,-4.0431 1.9036,-1.8451 3.4611,-4.1664 3.4611,-5.1585 0,-0.9921 0.45,-1.8038 1,-1.8038 0.55,0 1,-0.8449 1,-1.8776 0,-1.0326 0.6701,-2.4336 1.489,-3.1133 0.8189,-0.6796 1.2739,-1.5837 1.011,-2.0091 -0.2629,-0.4253 0.1921,-1.3294 1.011,-2.00911 0.8399,-0.69705 1.489,-2.88975 1.489,-5.02997 0,-2.08682 0.5625,-4.05672 1.25,-4.37756 1,-0.46666 1,-0.7 0,-1.16666 -0.6875,-0.32084 -1.25,-1.44584 -1.25,-2.5 0,-1.05417 -0.45,-1.91667 -1,-1.91667 -0.55,0 -1,-0.87344 -1,-1.94098 0,-1.06754 -0.411,-2.19497 -0.9132,-2.5054 -1.2011,-0.74232 -6.0868,-10.57501 -6.0868,-12.24996 0,-0.71701 -0.45,-1.30366 -1,-1.30366 -0.55,0 -1,-0.86734 -1,-1.92742 0,-1.06008 -1.125,-2.81234 -2.5,-3.89392 -1.375,-1.08158 -2.5,-2.68924 -2.5,-3.57258 0,-0.88334 -0.45,-1.60608 -1,-1.60608 -0.55,0 -1,-0.66131 -1,-1.46958 0,-0.80827 -0.9,-3.07196 -2,-5.03042 -1.1,-1.95846 -2,-4.17087 -2,-4.91647 0,-0.74561 -1.575,-2.10303 -3.5,-3.01651 -2.2384,-1.06218 -3.5,-2.36486 -3.5,-3.61394 0,-1.21923 -0.6812,-1.95308 -1.8129,-1.95308 -2.253,0 -7.1871,-5.01488 -7.1871,-7.30472 0,-0.9703 -0.7753,-1.69528 -1.8129,-1.69528 -1.8983,0 -7.6002,-5.25355 -6.6899,-6.16385 0.2888,-0.28885 -2.6244,-3.63265 -6.4738,-7.43066 -3.8494,-3.79802 -7.0045,-7.50013 -7.0112,-8.22692 -0.017,-1.812 -2.5318,-4.17857 -4.4408,-4.17857 -0.8643,0 -1.5714,-0.69649 -1.5714,-1.54775 0,-0.85126 -1.125,-2.59036 -2.5,-3.86467 -1.375,-1.27431 -2.5,-3.05282 -2.5,-3.95225 0,-0.89943 -0.45,-1.63533 -1,-1.63533 -0.55,0 -1,-0.83026 -1,-1.84501 0,-1.01476 -0.9,-2.6595 -2,-3.65499 -1.1,-0.99549 -2,-2.34549 -2,-3 0,-0.65451 -0.9033,-2.00754 -2.0074,-3.00672 -2.6202,-2.37123 -4.9926,-7.19289 -4.9926,-10.14692 0,-1.2905 -0.45,-2.34636 -1,-2.34636 -0.55,0 -1,-1.27156 -1,-2.82569 0,-1.70752 -0.9718,-3.73862 -2.4558,-5.13274 -1.3506,-1.26888 -2.3631,-2.60605 -2.25,-2.97147 0.1132,-0.36543 -1.069,-2.18449 -2.627,-4.04235 -2.2411,-2.67237 -3.0156,-3.08202 -3.7083,-1.9612 -0.6974,1.1283 -1.1284,1.16395 -2.1173,0.17509 -2.6174,-2.61745 -14.27,-0.59355 -16.397,2.84794 -0.3273,0.52962 -2.2163,0.85376 -4.1977,0.72031 -2.133,-0.14365 -3.7681,0.25357 -4.0081,0.97374 -0.5591,1.6774 -7.0646,1.53341 -8.7926,-0.19461 -0.7761,-0.77604 -2.2379,-1.19475 -3.2485,-0.93048 -1.0106,0.26428 -2.4236,-0.22578 -3.14,-1.08902 -0.7164,-0.86323 -2.3459,-1.56952 -3.6211,-1.56952 -1.2752,0 -2.5967,-0.45 -2.9366,-1 -0.3399,-0.55 -3.5165,-1 -7.059,-1 -3.6273,0 -6.441,-0.43684 -6.441,-1 0,-0.55 -1.3234,-1 -2.941,-1 -1.6175,0 -3.2191,-0.45 -3.559,-1 -0.3399,-0.55 -1.6614,-1 -2.9366,-1 -1.2752,0 -2.8704,-0.66503 -3.545,-1.47785 -0.6746,-0.81281 -2.1922,-1.29625 -3.3725,-1.07431 -1.1802,0.22195 -2.4834,0.43698 -2.8959,0.47785 -0.4125,0.0409 -0.75,1.80457 -0.75,3.91932 0,2.57502 -0.6606,4.44284 -2,5.65499 -1.1,0.99549 -2,2.64023 -2,3.65499 0,1.01475 -0.45,1.84501 -1,1.84501 -0.55,0 -1,0.70714 -1,1.57143 0,0.86428 -0.6603,2.2317 -1.4673,3.03869 -0.9116,0.91159 -1.2615,2.49574 -0.9241,4.18297 0.4118,2.05914 -0.08,3.30077 -2.0327,5.13562 -1.4168,1.33096 -2.5759,3.24148 -2.5759,4.2456 0,1.00413 -0.45,1.82569 -1,1.82569 -0.55,0 -1,1.35 -1,3 0,1.65 -0.45,3 -1,3 -0.55,0 -1,1.25631 -1,2.79179 0,1.98784 -1.2959,4.06359 -4.5,7.20821 -3.2041,3.14462 -4.5,5.22037 -4.5,7.20821 0,2.04695 -0.4922,2.79179 -1.845,2.79179 -2.3538,0 -5.7053,3.54183 -4.2201,4.45974 1.7472,1.07984 1.2097,2.54026 -0.9349,2.54026 -1.2506,0 -2,0.66667 -2,1.77924 0,0.97858 -0.9,2.42792 -2,3.22076 -1.1,0.79284 -2,2.18708 -2,3.09831 0,0.91124 -0.6701,2.21289 -1.489,2.89255 -0.8189,0.67967 -1.2828,1.56935 -1.0308,1.97709 0.252,0.40773 -0.653,1.78518 -2.011,3.061 -1.3581,1.27582 -2.4692,3.14124 -2.4692,4.14536 0,1.00413 -0.45,1.82569 -1,1.82569 -0.55,0 -1,0.9 -1,2 0,1.1 -0.45,2 -1,2 -0.55,0 -1,0.86734 -1,1.92742 0,1.06008 -1.125,2.81234 -2.5,3.89392 -1.375,1.08158 -2.5,2.3951 -2.5,2.91894 0,1.58118 -2.9411,6.96592 -4.5208,8.27694 -0.8135,0.67522 -1.4792,1.76913 -1.4792,2.43091 0,0.66178 -1.125,2.26012 -2.5,3.55187 -1.5227,1.43053 -2.5,3.45322 -2.5,5.17431 0,1.55413 -0.45,2.82569 -1,2.82569 -0.55,0 -1,0.87344 -1,1.94098 0,1.06754 -0.45,2.2191 -1,2.55902 -0.55,0.33992 -1,2.39148 -1,4.55902 0,2.16754 -0.4241,3.94098 -0.9425,3.94098 -0.5184,0 -1.0809,1.9125 -1.25,4.25 -0.2556,3.53302 -0.6871,4.30391 -2.5575,4.56955 -1.2375,0.17575 -2.25,0.94957 -2.25,1.71958 0,0.77002 -0.9,3.00241 -2,4.96087 -1.1,1.95846 -2,4.64085 -2,5.96087 0,1.7275 -0.6304,2.4895 -2.25,2.7195 -1.446,0.2054 -2.3642,1.1236 -2.5696,2.5696 -0.2053,1.446 -1.0094,2.25 -2.25,2.25 -1.2637,0 -1.9304,0.6907 -1.9304,2 0,1.1 -0.45,2 -1,2 -0.55,0 -1,0.6059 -1,1.3464 0,2.0724 -2.7573,7.124 -4.9926,9.1469 -1.3321,1.2056 -2.0074,3.082 -2.0074,5.5784 0,2.0721 -0.5614,3.9894 -1.25,4.2688 -0.9416,0.3821 -0.882,0.7625 0.2416,1.5417 1.188,0.8239 1.2389,1.2873 0.25,2.2762 -0.7432,0.7432 -1.2416,3.94728 -1.2416,7.98258 0,3.7075 -0.45,7.0191 -1,7.359 -0.55,0.3399 -1,2.8149 -1,5.5 0,2.6851 -0.45,5.1601 -1,5.5 -0.55,0.3399 -1,3.6864 -1,7.4366 0,4.9662 -0.4251,7.1713 -1.5647,8.1171 -1.0683,0.8866 -1.4809,2.6617 -1.3005,5.5956 0.1903,3.0943 -0.2814,4.9343 -1.6853,6.5738 -2.6482,3.0929 -4.4495,6.4381 -4.4495,8.2633 0,0.8325 -0.45,1.5136 -1,1.5136 -0.55,0 -1,0.8427 -1,1.8727 0,1.0301 -1.575,3.2181 -3.5,4.8624 -2.2573,1.9282 -3.5,3.8711 -3.5,5.4723 0,1.36535 -0.9,3.29705 -2,4.29255 -1.1,0.9955 -2,2.913 -2,4.2611 0,1.4234 -1.0482,3.2755 -2.5,4.4176 -1.5716,1.2362 -2.5,2.9762 -2.5,4.6857 0,1.9069 -1.3587,4.051 -4.5483,7.1774 -2.8776,2.8206 -4.3848,5.0875 -4.1032,6.1714 0.2448,0.9423 -0.1835,2.2349 -0.9517,2.8725 -0.7683,0.6375 -1.3968,2.0041 -1.3968,3.0367 0,1.0327 -0.45,1.8776 -1,1.8776 -0.6189,0 -1,5.3137 -1,13.941 0,8.2153 0.4107,14.1948 1,14.559 0.55,0.3399 1,1.9415 1,3.559 0,1.6176 -0.45,2.941 -1,2.941 -0.55,0 -1,1.3234 -1,2.941 0,1.6175 0.45,3.2191 1,3.559 0.55,0.3399 1,1.9415 1,3.559 0,1.6176 -0.45,2.941 -1,2.941 -1.9211,0 -1.0341,4.1783 1,4.7103 2.0427,0.5341 2.8094,2.2897 1,2.2897 -0.55,0 -1,1.3234 -1,2.941 0,1.6175 -0.45,3.2191 -1,3.559 -1.3006,0.8038 -1.3006,4.5 0,4.5 1.8023,0 1.0466,3.954 -1,5.2321 -1.1,0.6869 -2,1.6229 -2,2.0799 0,1.39 2.7594,3.688 4.4286,3.688 2.1918,0 1.9611,1.7397 -0.4286,3.2321 -1.1,0.6869 -2,1.9412 -2,2.7873 0,0.8461 -2.925,4.4374 -6.5,7.9806 -3.575,3.5432 -6.5,7.2427 -6.5,8.2211 0,0.9784 -0.45,1.7789 -1,1.7789 -0.55,0 -1,2.025 -1,4.5 0,2.475 0.45,4.5 1,4.5 0.55,0 1,2.475 1,5.5 0,3.025 0.45,5.5 1,5.5 0.55,0 1,1.2803 1,2.845 0,2.7526 -2.5873,6.155 -4.6804,6.155 -0.5627,0 -2.4356,1.35 -4.1622,3 -1.7266,1.65 -3.6603,3 -4.2973,3 -0.6369,0 -2.6877,1.575 -4.5572,3.5 -1.8696,1.925 -4.026,3.5 -4.792,3.5 -0.7661,0 -1.671,0.45 -2.0109,1 -0.3877,0.6274 -10.84661,1 -28.06768,1 l -27.44965,0 -2.99134,-2.6653 c -1.64524,-1.4659 -2.99134,-3.4909 -2.99134,-4.5 0,-1.0091 -0.45,-1.8347 -1,-1.8347 -0.55,0 -1,-1.3234 -1,-2.941 0,-1.6175 -0.45,-3.2191 -1,-3.559 -0.55,-0.3399 -1,-1.9415 -1,-3.559 0,-1.6176 0.45,-2.941 1,-2.941 0.55,0 1,-0.9 1,-2 0,-1.1 0.45,-2 1,-2 0.55,0 1,-1.575 1,-3.5 0,-1.925 -0.45,-3.5 -1,-3.5 -0.55,0 -1,-0.9 -1,-2 0,-1.1 0.45,-2 1,-2 1.44868,0 1.23057,-4.7257 -0.25,-5.4167 -1,-0.4666 -1,-0.7 0,-1.1666 0.6875,-0.3209 1.25,-1.8408 1.25,-3.3776 0,-1.5368 0.67005,-3.3503 1.48899,-4.03 0.81894,-0.6796 1.2739,-1.5837 1.01101,-2.0091 -0.26289,-0.4254 0.19207,-1.3295 1.01101,-2.0091 0.81894,-0.6797 1.48899,-2.2215 1.48899,-3.4263 0,-1.2047 1.35,-3.4838 3,-5.0646 1.65,-1.5808 3,-3.4433 3,-4.139 0,-0.6956 1.575,-2.7943 3.5,-4.6639 1.925,-1.8695 3.5,-4.1412 3.5,-5.0481 0,-0.907 0.45,-1.649 1,-1.649 0.55,0 1,-1.2803 1,-2.845 0,-3.6619 2.7949,-6.155 6.90017,-6.155 3.44256,0 6.65109,-2.299 5.59449,-4.0086 -0.34807,-0.5632 -1.05494,-0.7632 -1.57082,-0.4443 -1.41716,0.8758 -2.35636,-2.5146 -1.05662,-3.8143 0.62303,-0.623 1.13278,-1.9428 1.13278,-2.9328 0,-0.99 0.45,-1.8 1,-1.8 0.55,0 1,-0.8625 1,-1.9167 0,-1.0541 0.5625,-2.1203 1.25,-2.3693 1,-0.3622 1,-0.8761 0,-2.5698 -1.72496,-2.9215 -1.56437,-5.8096 0.3642,-6.5496 1.08026,-0.4146 1.4602,-1.4251 1.14863,-3.0549 -0.34582,-1.8091 0.3964,-3.2709 2.8858,-5.6838 3.27198,-3.1713 3.35137,-3.4449 3.35137,-11.5521 0,-4.8692 0.41362,-8.3038 1,-8.3038 0.55,0 1,-1.2949 1,-2.8776 0,-1.5826 0.69522,-3.4545 1.54493,-4.1597 1.11127,-0.9223 1.48211,-2.8346 1.32117,-6.8128 -0.14305,-3.5359 0.20142,-5.6724 0.95507,-5.9236 1.56787,-0.5226 1.51347,-3.947 -0.0712,-4.4803 -0.98884,-0.3329 -0.99381,-0.7313 -0.0238,-1.9072 0.96827,-1.1737 0.96827,-1.7601 0,-2.7876 -0.96882,-1.0281 -0.96383,-1.3974 0.0238,-1.7595 0.91183,-0.3344 1.25,-3.9528 1.25,-13.37495 0,-7.9445 0.38495,-12.9167 1,-12.9167 0.57707,0 1,-3.147 1,-7.441 0,-4.0925 -0.45,-7.7191 -1,-8.059 -0.55,-0.3399 -1,-2.3015 -1,-4.359 0,-2.0576 -0.48369,-4.2247 -1.07486,-4.8159 -1.44627,-1.4462 -1.4352,-25.6551 0.012,-26.1375 0.62316,-0.2077 1.06291,-3.4227 1.06291,-7.77088 0,-4.2778 0.42322,-7.4167 1,-7.4167 0.55,0 1,-2.025 1,-4.5 0,-2.475 0.45,-4.5 1,-4.5 0.55,0 1,-1.3234 1,-2.941 0,-1.6175 0.45,-3.2191 0.99999,-3.559 0.55,-0.3399 1,-1.6899 1,-3 0,-1.3101 0.4215,-2.6425 0.9367,-2.9609 1.1498,-0.7106 4.0633,-6.4267 4.0633,-7.972 0,-0.619 0.9,-1.77423 2,-2.56707 1.1,-0.79284 2.0329,-2.12968 2.0731,-2.97076 0.04,-0.84108 0.915,-2.87924 1.9439,-4.52924 3.2185,-5.16096 4.983,-8.75647 4.983,-10.15364 0,-0.7405 0.45,-1.34636 1,-1.34636 0.55,0 1,-0.9 1,-2 0,-1.1 0.45,-2 1,-2 0.55,0 1.0329,-0.7875 1.0731,-1.75 0.04,-0.9625 0.915,-3.1 1.9439,-4.75 3.2185,-5.16096 4.983,-8.75647 4.983,-10.15364 0,-0.7405 0.45,-1.34636 1,-1.34636 0.55,0 1,-1.77344 1,-3.94098 0,-2.16754 0.45,-4.2191 1,-4.55902 1.3006,-0.80384 1.3006,-8.19616 0,-9 -0.5719,-0.35345 -1,-5.49071 -1,-12 0,-6.50929 0.4281,-11.64655 1,-12 0.55,-0.33992 1,-4.41648 1,-9.05902 0,-4.96065 0.4123,-8.44098 1,-8.44098 0.55,0 1,-2.1949 1,-4.87756 0,-3.11565 0.5418,-5.32724 1.5,-6.12244 0.9536,-0.79139 1.5,-3.00023 1.5,-6.06343 0,-2.65019 0.45,-5.09665 1,-5.43657 0.55,-0.33992 1,-3.26492 1,-6.5 0,-3.23508 0.45,-6.16008 1,-6.5 0.55,-0.33992 1,-2.81492 1,-5.5 0,-2.68508 0.45,-5.16008 1,-5.5 0.55,-0.33992 1,-2.39148 1,-4.55902 0,-2.16754 0.45,-3.94098 1,-3.94098 0.55,0 1,-0.91412 1,-2.03138 0,-1.11727 0.675,-2.29041 1.5,-2.60699 0.9724,-0.37316 1.5,-1.9241 1.5,-4.4096 0,-2.1087 0.45,-4.11211 1,-4.45203 0.55,-0.33992 1,-1.94148 1,-3.55902 0,-1.61754 0.45,-2.94098 1,-2.94098 0.55,0 1,-1.28026 1,-2.84501 0,-1.57502 0.8928,-3.65297 2,-4.65499 1.4154,-1.28094 2,-3.07997 2,-6.15499 0,-2.38975 -0.1546,-4.34501 -0.3435,-4.34501 -0.1889,0 -2.9593,0.9 -6.1565,2 -3.1972,1.1 -6.1927,2 -6.6566,2 -1.156,0 -1.0718,-6.74082 0.093,-7.46086 2.7173,-1.67936 4.0634,-7.20924 4.0634,-16.69278 0,-5.89757 0.401,-9.84636 1,-9.84636 0.6108,0 1,-4.64699 1,-11.94098 0,-6.88197 0.4237,-12.20283 1,-12.55902 0.55,-0.33992 1,-3.26492 1,-6.5 0,-3.23508 0.45,-6.16008 1,-6.5 0.55,-0.33992 1,-1.68992 1,-3 0,-1.31008 0.4215,-2.64247 0.9367,-2.96086 1.9087,-1.17967 4.1233,-6.87918 3.0787,-7.92371 -1.6979,-1.69794 -1.1369,-6.42436 0.9988,-8.41405 1.5018,-1.39915 1.9715,-3.00627 1.8463,-6.3174 -0.092,-2.44248 0.3924,-5.48796 1.0773,-6.76773 0.7329,-1.36942 0.9867,-3.70499 0.6169,-5.67618 -0.3456,-1.84214 -0.1788,-4.15726 0.3707,-5.14471 1.2864,-2.31182 5.2655,-17.66912 5.8416,-22.54536 0.3901,-3.3014 0.1875,-3.75 -1.6934,-3.75 -4.8591,0 -3.5898,-3.23104 5.1764,-13.17663 1.5125,-1.716 2.75,-3.79224 2.75,-4.61387 0,-2.40337 3.936,-15.46929 5.5294,-18.35553 1.523,-2.75865 1.0598,-11.37181 -0.6691,-12.44029 -1.1884,-0.73446 -1.0839,-5.15746 0.1397,-5.91368 0.55,-0.33992 1,-1.94148 1,-3.55902 0,-1.61754 0.45,-2.94098 1,-2.94098 0.55,0 1,-1.32344 1,-2.94098 0,-1.61754 0.4215,-3.20149 0.9367,-3.51988 1.2298,-0.76006 4.0633,-6.47322 4.0633,-8.19278 0,-0.7405 0.45,-1.34636 1,-1.34636 0.55,0 1,-1.77344 1,-3.94098 0,-2.16754 -0.45,-4.2191 -1,-4.55902 -0.55,-0.33992 -1,-1.29862 -1,-2.13045 0,-0.83182 -0.6963,-2.20875 -1.5474,-3.05983 -1.3966,-1.39657 -1.3966,-1.71413 0,-3.25732 0.8511,-0.94043 1.5474,-2.46195 1.5474,-3.38114 0,-0.91919 0.45,-1.67126 1,-1.67126 0.55,0 1,-1.03665 1,-2.30366 0,-2.21123 3.0628,-8.86866 6.9913,-15.19634 1.2673,-2.0413 1.8859,-4.9973 1.9356,-9.25 0.04,-3.45127 0.5209,-6.25 1.0731,-6.25 0.55,0 1,-0.8625 1,-1.91667 0,-1.05416 0.5113,-2.0871 1.1362,-2.29541 0.8104,-0.27012 0.7459,-1.00389 -0.2249,-2.55837 -1.0741,-1.71994 -1.1029,-2.43798 -0.1363,-3.40459 1.5891,-1.5891 1.5746,-4.54063 -0.025,-5.07901 -0.9525,-0.32059 -0.893,-0.85505 0.25,-2.24595 1.1431,-1.3909 1.2026,-1.92536 0.25,-2.24595 -2.1515,-0.72415 -1.5824,-9.64321 0.75,-11.75405 1.1,-0.99549 2,-2.36013 2,-3.03254 0,-0.67242 0.675,-1.78277 1.5,-2.46746 0.9536,-0.79139 1.5,-3.00023 1.5,-6.06343 0,-2.65019 0.3858,-5.05695 0.8573,-5.34835 1.6637,-1.0282 2.1062,-11.21406 0.9438,-21.72306 -0.8433,-7.62393 -0.8892,-13.28627 -0.162,-20 0.5579,-5.15084 0.8991,-9.52089 0.7582,-9.71122 -0.1408,-0.19034 -2.6482,2.17216 -5.5719,5.25 -2.9237,3.07783 -6.0271,5.59606 -6.8963,5.59606 -0.8692,0 -2.6373,1.125 -3.9291,2.5 -1.2917,1.375 -3.1843,2.5 -4.2057,2.5 -1.0214,0 -2.1161,0.675 -2.4326,1.5 -0.3166,0.825 -1.3724,1.5 -2.3462,1.5 -0.9738,0 -2.3308,0.675 -3.0155,1.5 -0.6847,0.825 -2.0113,1.5 -2.9481,1.5 -0.9368,0 -2.7601,1.125 -4.0519,2.5 -1.4636,1.55792 -3.4472,2.5 -5.264,2.5 -2.9367,0 -6.6359,3.19642 -6.7027,5.79181 -0.018,0.7105 -0.9202,2.24384 -2.0042,3.40742 -1.7548,1.88348 -2.0408,1.93375 -2.607,0.45818 -0.673,-1.75381 -3.4221,-2.32185 -3.4221,-0.7071 0,0.52267 0.7237,1.3553 1.6082,1.8503 1.3586,0.76028 0.9067,1.62178 -2.9108,5.54969 -2.4854,2.55733 -5.0862,4.6497 -5.7794,4.6497 -0.6933,0 -2.074,0.73625 -3.0684,1.63612 -1.6738,1.51483 -1.8544,1.51483 -2.4357,0 -0.3454,-0.89987 -1.4013,-1.63612 -2.3466,-1.63612 -2.1568,0 -6.0673,4.06982 -6.0673,6.31445 0,0.92705 -0.45,1.68555 -1,1.68555 -0.55,0 -1,2.18269 -1,4.85043 0,4.21179 -0.395,5.15316 -3,7.14957 -2.2008,1.6866 -3,3.13014 -3,5.41833 0,2.61521 -1.5783,4.69153 -9.7679,12.85043 -5.3723,5.35218 -10.4776,9.73124 -11.345,9.73124 -1.9577,0 -4.5603,2.83781 -5.04409,5.5 -0.20341,1.11932 -1.295,2.13354 -2.47896,2.30327 -1.16353,0.16679 -3.14988,1.40429 -4.4141,2.75 -1.26422,1.3457 -2.89737,2.44673 -3.62922,2.44673 -0.73184,0 -3.53376,2.25 -6.22649,5 -2.69273,2.75 -5.53707,5 -6.32075,5 -1.93174,0 -5.7735,4.2226 -5.7735,6.34584 0,0.94431 -0.675,1.97595 -1.5,2.29253 -0.825,0.31659 -1.5,1.33188 -1.5,2.25621 0,0.92433 -2.25,3.89677 -5,6.60542 -2.75,2.70865 -5,5.67413 -5,6.58996 0,0.91583 -0.675,2.22535 -1.5,2.91004 -0.825,0.68469 -1.5,2.48469 -1.5,4 0,1.51531 -0.675,3.31531 -1.5,4 -0.825,0.68469 -1.5,2.08979 -1.5,3.12244 0,1.03266 -0.42284,1.87756 -0.93963,1.87756 -0.5168,0 -1.0793,1.6875 -1.25,3.75 -0.24931,3.01222 -0.75304,3.81287 -2.56037,4.06955 -2.1248,0.30177 -2.25,0.77666 -2.25,8.53416 l 0,8.21461 -5.5,5.43168 -5.5,5.43168 0,9.58416 c 0,6.12101 0.43361,10.01777 1.2,10.78416 0.93333,0.93333 0.93333,1.46667 0,2.4 -0.77007,0.77007 -1.2,4.71111 -1.2,11 l 0,9.8 -3.33333,0 c -4.2492,0 -5.09093,0.87372 -3.03273,3.148 1.51872,1.67817 1.51616,1.85717 -0.0351,2.45243 -0.94791,0.36375 -2.45003,-0.0607 -3.46486,-0.97915 C 84.48143,560.22073 84,560.58614 84,565 c 0,2.2 0.45,4 1,4 0.55,0 1,1.8 1,4 0,2.2 -0.45,4 -1,4 -0.60317,0 -1,4.16667 -1,10.5 0,6.33333 0.39683,10.5 1,10.5 0.57815,0 1,3.17713 1,7.53138 0,5.77208 0.3504,7.66585 1.5,8.10699 0.825,0.31659 1.5,1.00654 1.5,1.53324 0,0.52669 0.91483,3.0842 2.03295,5.68335 1.43251,3.32996 3.09165,5.29587 5.61747,6.65611 6.90875,3.72061 10.52996,11.53947 12.4075,26.79007 1.61387,13.10896 2.1394,15.17718 4.49726,17.69886 1.28568,1.375 3.31561,4.75 4.51097,7.5 1.19537,2.75 3.05273,5.96439 4.12749,7.14308 1.07476,1.1787 2.70836,3.6537 3.63023,5.5 0.98469,1.97211 2.56123,3.4831 3.8217,3.66279 4.62258,0.65898 5.83013,3.61726 6.18937,15.16285 0.35634,11.45246 -0.34982,14.74418 -5.26258,24.53128 -1.3804,2.75 -2.52685,5.675 -2.54768,6.5 -0.0208,0.825 -0.93193,2.85 -2.02468,4.5 -2.91828,4.40646 -2.53757,7.55286 1.35857,11.2278 2.01325,1.89894 4.29336,5.6923 5.69227,9.47004 1.28353,3.46619 3.34188,8.33219 4.5741,10.81334 5.25926,10.58981 9.57337,21.9005 10.48476,27.48882 0.5382,3.3 1.24462,7.70008 1.56984,9.77796 0.47388,3.02774 -0.0586,5.05844 -2.68163,10.22615 -3.25632,6.41548 -3.26906,6.49775 -2.51071,16.22204 1.38658,17.7801 0.5113,30.16088 -2.37845,33.64281 -1.716,2.06766 -9.23212,5.63104 -11.87736,5.63104 -1.97495,0 -2.09252,0.37695 -1.54898,4.96626 0.70199,5.92711 -0.76098,10.21141 -5.05487,14.80301 -3.40723,3.6435 -8.83745,5.5387 -13.3079,4.6446 -1.62314,-0.3246 -4.83408,-0.083 -7.13541,0.5365 -8.5871,2.3123 -17.0496,-2.6794 -19.39238,-11.4388 -0.81978,-3.0651 -1.97983,-5.0195 -3.2801,-5.5263 C 77.26399,887.71957 67,875.00241 67,872.24414 67,871.75161 65.8796,870.29607 64.51022,869.0096 61.78134,866.44595 58,857.38686 58,853.41283 c 0,-3.56808 2.30126,-7.542 5.90253,-10.19277 2.49747,-1.83829 3.0983,-3.00054 3.10175,-6 0.003,-2.45622 1.02059,-5.24888 2.99572,-8.22006 3.39243,-5.10321 3.58145,-6.7471 1.47213,-12.80293 -1.2355,-3.54713 -1.29759,-5.39143 -0.35348,-10.5 2.0429,-11.05407 2.14935,-15.42193 0.48539,-19.91635 -0.87167,-2.35439 -1.73031,-5.89191 -1.90809,-7.86115 -0.17778,-1.96924 -1.326,-5.20294 -2.5516,-7.18601 -1.22561,-1.98307 -2.63004,-5.99688 -3.12096,-8.91957 -0.92543,-5.50957 -2.29626,-10.16332 -4.51097,-15.31399 -0.70948,-1.65 -1.61724,-4.125 -2.01725,-5.5 -0.40002,-1.375 -1.82311,-3.96268 -3.16243,-5.75039 -5.47472,-7.30763 -5.50447,-7.57712 -5.23357,-47.39881 C 49.33147,653.70316 49.47656,651 51.0771,651 c 1.03829,0 2.16515,-1.25616 2.82507,-3.14922 C 55.39029,643.58197 55.28258,641.47941 53.5,640 52.675,639.31531 52,637.48677 52,635.93657 c 0,-1.55019 -0.45,-3.09665 -1,-3.43657 -0.55,-0.33992 -1,-3.91833 -1,-7.95203 0,-5.59661 -0.35534,-7.47035 -1.5,-7.9096 -1.05234,-0.40382 -1.5,-2.04525 -1.5,-5.5 0,-3.45475 -0.44766,-5.09618 -1.5,-5.5 -1.2087,-0.46382 -1.5,-2.73174 -1.5,-11.67841 0,-7.55529 -0.3994,-11.4984 -1.25,-12.34088 C 41.07258,579.95767 35.03118,577 33.31498,577 32.55722,577 31.67821,576.325 31.36163,575.5 31.04504,574.675 29.70917,574 28.39301,574 26.34133,574 26,573.51824 26,570.62244 26,568.76479 25.325,566.68469 24.5,566 23.675,565.31531 23,563.48677 23,561.93657 23,560.38638 22.55,558.83992 22,558.5 21.45,558.16008 21,556.55852 21,554.94098 21,551.9032 18.00515,548 15.67431,548 c -0.72912,0 -2.30412,-1.0415 -3.5,-2.31445 -2.722,-2.89744 -3.07254,-10.12689 -0.53819,-11.09941 1.51483,-0.58129 1.51483,-0.76187 0,-2.43573 C 10.73625,531.15607 10,529.78331 10,529.09983 10,528.41635 9.325,527.18214 8.5,526.35714 7.675,525.53214 7,523.98929 7,522.92857 7,521.86786 6.55,521 6,521 5.45,521 5,520.1551 5,519.12244 5,518.08979 4.325,516.68469 3.5,516 2.675,515.31531 2,513.91021 2,512.87756 2,511.8449 1.55,511 1,511 c -0.55,0 -1,-0.675 -1,-1.5 0,-0.825 0.45,-1.5 1,-1.5 0.55,0 1,-0.8449 1,-1.87756 0,-1.03265 0.675,-2.43775 1.5,-3.12244 0.825,-0.68469 1.5,-2.01846 1.5,-2.96394 0,-0.94547 2.925,-4.52777 6.5,-7.96067 4.96025,-4.76307 6.5,-6.90358 6.5,-9.03606 0,-1.53694 0.675,-3.35464 1.5,-4.03933 1.95232,-1.62029 1.95232,-6.8892 0,-7.63837 C 18.675,471.04504 18,469.75731 18,468.5 18,467.24269 17.325,465.95496 16.5,465.63837 15.675,465.32179 15,464.14865 15,463.03138 15,461.73132 14.34274,461 13.17431,461 10.95698,461 7,456.99104 7,454.74457 7,453.84997 6.55,452.83992 6,452.5 c -1.30141,-0.80432 -1.30141,-9.19568 0,-10 0.55,-0.33992 1,-3.19589 1,-6.34661 0,-5.51655 0.17707,-5.90299 4.78435,-10.44098 C 14.41574,423.12058 17.28564,421 18.1619,421 c 0.87627,0 2.1498,-0.67065 2.83008,-1.49033 0.74105,-0.89292 2.12268,-1.26801 3.44665,-0.93572 1.35293,0.33957 2.71317,-0.0519 3.50802,-1.00966 C 28.97875,416.32068 31.47478,416 40.12244,416 c 9.54423,0 11.12271,0.24515 12.87756,2 1.1,1.1 2,2.59656 2,3.32569 0,0.72912 1.125,2.38256 2.5,3.67431 2.27012,2.13266 2.5,3.09817 2.5,10.5 0,7.40183 -0.22988,8.36734 -2.5,10.5 -1.99683,1.87592 -2.5,3.31988 -2.5,7.17431 C 55,457.97454 55.0175,458 58.32569,458 61.80965,458 66,454.68176 66,451.9229 c 0,-0.79651 1.125,-2.29304 2.5,-3.32562 1.375,-1.03259 2.5,-2.63595 2.5,-3.56304 0,-0.92709 1.125,-2.74249 2.5,-4.03424 1.375,-1.29175 2.5,-3.09175 2.5,-4 0,-0.90825 1.125,-2.70825 2.5,-4 1.47091,-1.38185 2.5,-3.46138 2.5,-5.05187 0,-1.48678 0.675,-3.26344 1.5,-3.94813 0.825,-0.68469 1.5,-2.01135 1.5,-2.94813 0,-0.93678 1.125,-2.76012 2.5,-4.05187 1.47091,-1.38185 2.5,-3.46138 2.5,-5.05187 0,-1.48678 0.675,-3.26344 1.5,-3.94813 0.825,-0.68469 1.5,-2.03469 1.5,-3 0,-0.96531 0.675,-2.31531 1.5,-3 0.825,-0.68469 1.5,-2.08979 1.5,-3.12244 C 95,397.8449 95.45,397 96,397 c 0.55,0 1,-1.58912 1,-3.53138 0,-2.21652 0.55851,-3.74571 1.5,-4.10699 0.825,-0.31659 1.5,-1.45961 1.5,-2.54005 0,-1.08044 0.69027,-2.65471 1.53394,-3.49838 0.84367,-0.84367 1.2784,-2.33911 0.96606,-3.3232 -0.31234,-0.98409 0.12239,-2.47953 0.96606,-3.3232 0.92047,-0.92047 1.53394,-3.31942 1.53394,-5.99838 0,-3.0459 0.47661,-4.64734 1.5,-5.04005 0.94149,-0.36128 1.5,-1.89047 1.5,-4.10699 0,-1.94226 0.45,-3.53138 1,-3.53138 0.56239,0 1,-2.79767 1,-6.39301 0,-4.76019 0.38311,-6.54003 1.5,-6.96862 0.93327,-0.35813 1.5,-1.8824 1.5,-4.03441 0,-2.49832 0.69423,-4.00488 2.5,-5.4253 1.375,-1.08158 2.5,-2.58881 2.5,-3.3494 0,-0.76059 3.15,-4.50876 7,-8.32926 3.85,-3.8205 7,-7.74593 7,-8.72318 0,-1.03654 0.74115,-1.77682 1.77889,-1.77682 0.97839,0 4.67789,-2.925 8.22111,-6.5 3.54322,-3.575 7.01772,-6.5 7.72111,-6.5 1.46879,0 5.27889,-3.54866 5.27889,-4.91667 0,-0.50416 -0.5625,-1.12291 -1.25,-1.375 -1,-0.36666 -1,-0.72333 0,-1.78333 0.6875,-0.72875 1.25,-1.92086 1.25,-2.64913 C 155,287.43195 169.51411,273 171.36851,273 c 0.8324,0 1.7916,-0.45 2.1315,-1 0.3399,-0.55 1.379,-1.00777 2.309,-1.01728 2.0862,-0.0213 6.191,-4.20808 6.191,-6.31465 0,-0.85252 0.45,-1.82815 1,-2.16807 0.55,-0.33992 1,-1.33615 1,-2.21385 0,-0.8777 1.8,-3.30812 4,-5.40093 2.8832,-2.74274 4,-4.61969 4,-6.72272 0,-1.60469 0.675,-3.47781 1.5,-4.1625 0.825,-0.68469 1.5,-2.05229 1.5,-3.03911 0,-0.98682 0.4745,-1.95239 1.0545,-2.14571 0.5799,-0.19332 1.1831,-1.24332 1.3405,-2.33333 0.1681,-1.16515 1.2011,-2.11684 2.5067,-2.30941 1.2213,-0.18016 2.4662,-0.96766 2.7664,-1.75 0.3002,-0.78234 1.3426,-1.42244 2.3164,-1.42244 0.9739,0 2.3308,-0.675 3.0155,-1.5 0.6847,-0.825 2.0898,-1.5 3.1224,-1.5 1.1463,0 1.8776,-0.70608 1.8776,-1.81291 0,-0.9971 1.3287,-3.08591 2.9527,-4.6418 1.624,-1.5559 2.9207,-3.10259 2.8816,-3.4371 -0.2621,-2.24054 0.482,-3.10819 2.6657,-3.10819 2,0 2.5,-0.5 2.5,-2.5 0,-2.16552 0.4449,-2.5 3.3257,-2.5 2.2544,0 4.0822,-0.80529 5.6743,-2.5 1.2917,-1.375 2.8763,-2.5 3.5213,-2.5 1.8357,0 5.4787,-3.55995 5.4787,-5.35384 0,-2.09088 6.9682,-8.58382 9.25,-8.6191 1.1423,-0.0177 1.75,-0.81163 1.75,-2.28651 0,-1.24542 1.0098,-2.91238 2.25,-3.71427 2.2156,-1.43259 2.7674,-1.65346 4.75,-1.90128 0.55,-0.0688 1,-0.94656 1,-1.95069 0,-1.00412 1.125,-2.88256 2.5,-4.17431 1.375,-1.29175 2.5,-3.18431 2.5,-4.2057 0,-1.02139 0.7875,-2.1008 1.75,-2.39868 0.9625,-0.29789 2.5314,-0.95877 3.4864,-1.46862 0.9551,-0.50985 2.2287,-0.927 2.8304,-0.927 1.4754,0 17.9332,-17.02133 17.9332,-18.54726 0,-0.66432 0.675,-1.76805 1.5,-2.45274 0.825,-0.68469 1.5,-2.01135 1.5,-2.94813 0,-0.93678 1.125,-2.76012 2.5,-4.05187 1.375,-1.29175 2.5,-3.07018 2.5,-3.95207 0,-2.43 3.6525,-5.04793 7.0428,-5.04793 1.7619,0 3.2597,-0.62486 3.5956,-1.5 0.3166,-0.825 1.5442,-1.5 2.728,-1.5 1.1839,0 2.7415,-0.94311 3.4613,-2.09579 1.1154,-1.78598 1.0512,-2.38053 -0.4343,-4.02197 -1.6726,-1.84825 -1.6124,-2.06104 1.4876,-5.25943 1.7768,-1.83328 5.4861,-4.38964 8.2428,-5.6808 4.4468,-2.08279 4.771,-2.43679 2.8738,-3.13859 -3.6815,-1.36189 -2.1896,-4.91693 2.7524,-6.55843 4.4242,-1.46951 5.3059,-2.62584 2.75,-3.60662 -0.825,-0.31658 -1.5,-1.42562 -1.5,-2.46453 0,-1.56814 0.999,-1.99334 5.8823,-2.50375 8.9446,-0.9349 15.2616,-2.85268 14.6496,-4.44749 -0.8817,-2.29767 2.4399,-7.31683 5.5626,-8.4054 1.6315,-0.56872 3.6491,-2.35458 4.4838,-3.96858 1.702,-3.29133 4.9031,-4.84862 9.9665,-4.84862 2.9845,0 3.6751,-0.51064 5.4828,-4.05409 2.0535,-4.02519 2.0999,-4.04934 6.5088,-3.38818 5.4776,0.82142 6.9863,-1.30795 3.532,-4.98494 l -2.1847,-2.32544 4.0394,-6.2496 c 2.2216,-3.43729 3.7794,-6.6701 3.4618,-7.18404 -0.3177,-0.51393 -0.043,-2.22488 0.6103,-3.8021 1.6058,-3.87676 6.9078,-5.88451 14.0048,-5.30337 3.923,0.32124 6.0734,0.0176 7.5,-1.05901 1.9668,-1.48431 1.9475,-1.56455 -1.1592,-4.82931 -6.9088,-7.26035 -7.3269,-14.77699 -0.7537,-13.55179 6.5227,1.21581 10.7401,3.49712 12.4004,6.70774 l 1.667,3.2235 2.7456,-3.26296 c 3.3323,-3.96028 7.9424,-4.59945 11.3566,-1.57455 l 2.2568,1.99942 3.2432,-2.92902 c 1.7838,-1.61096 3.7759,-3.53731 4.4268,-4.28078 1.4686,-1.67749 3.3165,-0.66023 3.3165,1.82575 0,5.77025 4.019,6.69993 8.5443,1.97649 1.6052,-1.67546 3.8269,-5.61296 4.9371,-8.75 1.701,-4.80643 2.4361,-5.75204 4.6722,-6.01084 2.2605,-0.26162 2.8275,0.21986 3.8275,3.25 1.471,4.45716 3.7513,4.609 8.3661,0.55712 2.1318,-1.87174 4.5176,-3 6.3437,-3 1.6098,0 3.8003,-0.66069 4.868,-1.4682 1.0676,-0.8075 3.1002,-1.4825 4.5168,-1.5 2.7533,-0.034 6.9243,3.62291 6.9243,6.07089 0,1.83597 8.311,8.89731 10.4718,8.89731 2.5108,0 2.9334,-2.77512 1.0565,-6.93732 -1.6318,-3.6186 -1.6325,-3.97403 -0.013,-6.44622 2.7551,-4.20484 5.4891,-3.36919 11.0468,3.37637 5.1677,6.27217 8.4271,7.72124 8.4512,3.75717 0.04,-6.51356 4.022,-9.82754 9.3675,-7.79516 3.9163,1.48897 10.0919,1.29217 14.2731,-0.45484 1.9745,-0.825 3.76,-1.5 3.9678,-1.5 1.2168,0 -0.1123,2.19826 -3.6382,6.01748 -2.8807,3.12029 -3.7078,4.65168 -2.9254,5.41639 0.7773,0.75972 1.716,0.32028 3.2662,-1.529 1.1964,-1.42732 2.9628,-2.8757 3.9253,-3.21861 0.9625,-0.34292 1.75,-1.07349 1.75,-1.62349 0,-0.55 0.675,-0.74098 1.5,-0.4244 0.9779,0.37526 1.5,1.93066 1.5,4.46862 0,3.22634 0.3425,3.89301 2,3.89301 1.6053,0 2,-0.66667 2,-3.37756 0,-5.52102 1.6366,-5.94782 10.0633,-2.62434 4.0902,1.61318 8.4492,2.94855 9.6867,2.96748 1.2375,0.0189 2.25,0.48442 2.25,1.03442 0,0.55 1.3155,1 2.9233,1 1.6417,0 4.1972,1.07192 5.829,2.44499 2.2242,1.87153 4.2944,2.51654 8.8267,2.75 l 5.921,0.30501 -3.5,1.57763 -3.5,1.57764 6.3527,0.66776 c 3.4939,0.36727 7.9939,0.40606 10,0.0862 5.4214,-0.86445 12.4643,3.31661 13.1473,7.80508 0.4258,2.79829 0.9526,3.32997 3.5511,3.58421 2.0785,0.20337 3.642,-0.35447 4.905,-1.75 1.5301,-1.6908 3.0928,-2.05407 8.9489,-2.08032 4.347,-0.0195 7.7805,-0.552 8.865,-1.37491 1.1236,-0.85252 3.3295,-1.16733 6.0394,-0.86189 3.1391,0.35383 4.6222,0.056 5.6024,-1.12509 1.7837,-2.14933 2.4113,-2.04675 6.0115,0.98258 2.2583,1.90024 3.0767,3.44229 3.0767,5.79706 0,2.43048 0.9793,4.16441 4.0399,7.15298 2.3419,2.28681 3.9766,4.78884 3.8893,5.95295 -0.5585,7.44861 1.7088,8.52086 7.418,3.50812 2.216,-1.94568 4.5002,-3 6.4996,-3 2.0399,0 3.4382,-0.66403 4.1333,-1.96276 0.5777,-1.07952 1.606,-1.78109 2.2851,-1.55906 0.6792,0.22204 3.8,0.90756 6.9352,1.52338 l 5.7005,1.11966 4.6221,8.68871 4.6222,8.68871 -3.003,6.50068 c -2.8606,6.19241 -6.1422,15.7412 -6.1422,17.87234 0,0.54773 2.25,3.79943 5,7.22599 2.75,3.42657 5,7.09385 5,8.14952 0,1.05567 4.05,6.54534 9,12.19927 6.1506,7.02526 9,11.06506 9,12.75989 0,1.36787 2.2965,5.75016 5.1211,9.77223 9.6664,13.76439 15.6299,29.04391 16.5959,42.52144 0.3911,5.45676 0.1518,6.38401 -2.6435,10.24134 -1.6904,2.33274 -3.0735,4.99334 -3.0735,5.91245 0,1.92419 4.844,9.93629 9.6821,16.01451 1.8249,2.29256 3.3179,4.93233 3.3179,5.86615 0,0.93382 2.25,4.56093 5,8.06024 3.0222,3.84569 5,7.3686 5,8.90619 0,1.57786 1.5189,4.19161 4,6.88329 3.5616,3.86391 4,4.89088 4,9.37067 0,3.3058 0.4638,5.20917 1.3525,5.55018 1.6217,0.62232 4.8063,9.00015 5.0054,13.1681 0.1111,2.32479 -0.4563,3.26282 -2.6018,4.30164 -1.5092,0.7307 -3.0158,2.4119 -3.3482,3.73602 -0.3323,1.32412 -2.1458,3.31707 -4.03,4.42877 -2.7872,1.64448 -3.3159,2.45947 -2.8359,4.37185 0.4684,1.86621 -0.1311,2.90053 -2.9093,5.01958 -1.9246,1.46796 -3.9186,2.66902 -4.4311,2.66902 -0.5125,0 -2.1583,0.9647 -3.6572,2.14377 -2.635,2.07268 -3.0623,2.10321 -12.8849,0.92072 -8.212,-0.9886 -11.0966,-1.79748 -15.0479,-4.21967 -4.3158,-2.64562 -5.0617,-2.82327 -6.3683,-1.51669 -1.5671,1.56706 -0.9452,3.67187 1.0849,3.67187 1.6454,0 7.6718,11.15645 7.6718,14.20255 0,1.34685 -1.1064,3.48824 -2.4587,4.75863 -2.4338,2.28643 -2.6286,2.30277 -19.25,1.61341 -15.0215,-0.623 -16.9359,-0.90078 -18.1633,-2.6355 -0.8904,-1.25854 -2.5453,-1.93909 -4.7152,-1.93909 -2.2899,0 -4.4214,-0.94665 -6.7652,-3.00457 C 709.44041,304.30186 703.17981,302 697.34061,302 c -4.5179,0 -14.341,-4.12134 -14.341,-6.01685 0,-1.803 -3.3589,-1.01264 -5.9453,1.39892 -2.0579,1.91887 -3.9583,2.47583 -9.7726,2.86419 -6.1548,0.4111 -7.4664,0.20752 -8.905,-1.38208 -2.1076,-2.32887 -3.2713,-2.36182 -4.0327,-0.11418 -0.326,0.9625 -1.637,4.1125 -2.9133,7 -1.9263,4.35824 -2.7545,5.25 -4.8758,5.25 -2.3944,0 -2.5553,-0.31002 -2.5553,-4.92327 0,-3.79254 0.5742,-5.60565 2.5,-7.89436 2.7535,-3.27231 3.3256,-7.18237 1.0509,-7.18237 -2.2087,0 -6.2146,6.02863 -6.8702,10.33923 -0.7514,4.94067 -2.3697,6.88137 -5.0719,6.08237 -2.9177,-0.86273 -4.6088,-3.28912 -4.6088,-6.61273 0,-4.05413 -2.5994,-3.55281 -4.0283,0.7769 -0.6509,1.97217 -2.5191,5.10699 -4.1515,6.96626 -2.9778,3.39153 -3.6218,8.22609 -1.0245,7.69065 0.6865,-0.14153 1.6606,0.82726 2.1646,2.15286 0.504,1.3256 1.3941,2.70545 1.978,3.06634 0.5839,0.36088 1.0617,2.42418 1.0617,4.5851 0,3.70933 0.4332,4.26987 7.75,10.02781 4.2625,3.35437 8.2432,6.72597 8.8459,7.49244 1.664,2.11598 1.4884,18.11791 -0.2143,19.53107 -2.1355,1.77225 -1.6397,4.91084 1.1184,7.08036 1.375,1.08158 2.5,2.73826 2.5,3.68151 0,2.17582 9.0219,11.13983 11.2118,11.13983 0.9037,0 2.528,1.125 3.6095,2.5 1.0816,1.375 2.9143,2.5 4.0726,2.5 1.5441,0 2.1061,0.6272 2.1061,2.35043 0,1.43401 1.1697,3.24686 3,4.64957 2.1591,1.65466 3,3.14244 3,5.30762 0,2.38913 1.4867,4.51995 7.2216,10.35043 3.9718,4.03807 7.9434,7.34195 8.8257,7.34195 0.8822,0 2.6609,1.125 3.9527,2.5 1.2917,1.375 3.1843,2.5 4.2057,2.5 1.0214,0 2.1161,0.675 2.4327,1.5 0.3166,0.825 1.3279,1.5 2.2475,1.5 0.9195,0 4.5709,2.925 8.1141,6.5 3.5432,3.575 7.1876,6.5 8.0987,6.5 0.911,0 2.2166,0.675 2.9013,1.5 0.6847,0.825 1.983,1.5 2.8851,1.5 0.9021,0 2.485,1.125 3.5176,2.5 1.7366,2.3124 2.4956,2.5 10.1149,2.5 6.1023,0 8.5602,-0.38881 9.4824,-1.5 0.6847,-0.825 2.7648,-1.5 4.6224,-1.5 1.8577,0 3.3776,-0.45 3.3776,-1 0,-0.58333 3.3333,-1 8,-1 4.6667,0 8,0.41667 8,1 0,0.55 0.7521,1 1.6713,1 0.9191,0 2.5013,0.75122 3.5159,1.66938 1.7283,1.56413 1.9337,1.54836 3.2573,-0.25 1.3195,-1.79282 1.4574,-1.80399 2.0911,-0.16938 0.5594,1.443 1.9481,1.75 7.9164,1.75 8.2902,0 10.548,1.46841 10.548,6.86013 0,1.9243 0.5987,3.43239 1.5,3.77824 1.1699,0.44892 1.5,2.43859 1.5,9.04005 0,6.19061 0.4029,8.86739 1.5,9.96444 0.825,0.825 1.5,2.60698 1.5,3.95995 0,1.35298 -0.675,2.71898 -1.5,3.03556 -0.9103,0.3493 -1.5,1.86149 -1.5,3.84617 0,1.79882 -0.675,3.83077 -1.5,4.51546 -0.825,0.68469 -1.5,1.94186 -1.5,2.7937 0,0.85185 -0.6859,2.30667 -1.5241,3.23294 -1.5094,1.66784 -1.0899,4.97336 0.6311,4.97336 0.4911,0 0.893,1.125 0.893,2.5 0,1.375 -0.45,2.5 -1,2.5 -0.55,0 -1,0.82156 -1,1.82569 0,2.2441 -4.0194,6.17431 -6.3145,6.17431 -1.8441,0 -1.9535,0.44176 -1.6966,6.84869 0.1924,4.80064 -2.7526,9.15131 -6.1946,9.15131 -1.0214,0 -2.1161,0.675 -2.4327,1.5 -0.3944,1.02776 -2.0012,1.5 -5.1039,1.5 -3.5457,0 -5.0311,0.54249 -6.8453,2.5 -2.2002,2.37407 -2.8697,2.5 -13.2921,2.5 -10.5158,0 -11.0575,-0.10464 -12.9416,-2.5 -1.0816,-1.375 -2.6342,-2.5 -3.4502,-2.5 -0.816,0 -2.0438,-0.675 -2.7285,-1.5 -0.6847,-0.825 -2.0347,-1.5 -3,-1.5 -0.9653,0 -2.3153,-0.675 -3,-1.5 -0.6847,-0.825 -2.0898,-1.5 -3.1224,-1.5 -1.0327,0 -1.8776,-0.4187 -1.8776,-0.93045 0,-0.51175 -0.9941,-1.07425 -2.209,-1.25 -1.3971,-0.20209 -2.4229,-1.23846 -2.791,-2.81955 -0.3681,-1.58109 -1.3939,-2.61746 -2.791,-2.81955 -2.319,-0.33547 -2.9042,-1.63277 -1.209,-2.68045 1.6887,-1.04371 1.1103,-2.5 -0.9931,-2.5 -1.1354,0 -5.0521,-3.05299 -9.1024,-7.09534 -6.2698,-6.25738 -7.5085,-8.02237 -7.828,-11.15466 -0.042,-0.4125 -1.2015,-0.75 -2.5765,-0.75 -1.375,0 -2.5,-0.45 -2.5,-1 0,-0.55 -0.8449,-1 -1.8776,-1 -1.0326,0 -2.4377,-0.675 -3.1224,-1.5 -0.6847,-0.825 -2.7166,-1.5 -4.5155,-1.5 -1.9846,0 -3.4968,-0.58975 -3.8461,-1.5 -0.3166,-0.825 -1.4632,-1.5 -2.548,-1.5 -1.0848,0 -2.2505,-0.45 -2.5904,-1 -0.3399,-0.55 -1.5056,-1 -2.5904,-1 -1.0848,0 -2.2314,-0.675 -2.548,-1.5 -0.3166,-0.825 -1.6043,-1.5 -2.8616,-1.5 -1.2573,0 -2.5648,-0.72639 -2.9055,-1.6142 -0.4336,-1.13002 -1.4198,-1.46119 -3.2879,-1.10407 -2.0216,0.38645 -3.3707,-0.19198 -5.5645,-2.3858 -1.8159,-1.81587 -3.9405,-2.89593 -5.6966,-2.89593 -1.5403,0 -3.3608,-0.675 -4.0455,-1.5 -0.6847,-0.825 -2.0595,-1.5 -3.0551,-1.5 -0.9956,0 -2.0958,-0.9 -2.4449,-2 -0.5176,-1.63085 -1.513,-2 -5.3931,-2 -3.7825,0 -5.2399,0.51266 -7.1069,2.5 -1.2918,1.375 -3.1478,2.5 -4.1246,2.5 -0.9768,0 -2.2115,0.77813 -2.7437,1.72919 -0.9091,1.6244 -1.0939,1.61501 -3.0497,-0.15499 -1.1451,-1.0363 -2.082,-2.63599 -2.082,-3.55487 0,-0.91889 -1.101,-2.70507 -2.4467,-3.96929 -1.3457,-1.26422 -2.5832,-3.25516 -2.75,-4.42431 -0.2378,-1.66686 -1.1128,-2.19273 -4.0533,-2.4361 -2.8,-0.23173 -3.75,-0.7576 -3.75,-2.07568 0,-2.19481 -4.0477,-6.11395 -6.3145,-6.11395 -1.3587,0 -1.6855,-0.9815 -1.6855,-5.06286 0,-4.56099 -0.2061,-5.03184 -2.0795,-4.75 -1.7719,0.26659 -2.8671,-1.42541 -7.4045,-11.4397 -4.4571,-9.83697 -5.2376,-12.40411 -4.7888,-15.75 0.3519,-2.62422 0.1474,-3.99744 -0.5955,-3.99744 -0.6225,0 -1.1317,0.81 -1.1317,1.8 0,0.99 -0.5512,2.35123 -1.225,3.02496 -0.9666,0.96661 -0.9545,1.65803 0.057,3.27836 0.9491,1.51964 0.9931,2.40196 0.1695,3.39432 -0.8311,1.00142 -0.767,1.55124 0.253,2.17164 1.8025,1.09636 4.7451,5.44886 4.7451,7.01875 0,0.68366 -1.35,2.62404 -3,4.31197 -4.1686,4.26437 -4.0164,8.04827 0.5,12.4343 1.925,1.86943 3.5,3.89847 3.5,4.50898 0,0.61051 1.3179,2.56053 2.9286,4.33337 5.2987,5.83184 8.0714,10.70448 8.0714,14.18443 0,1.85474 0.5625,3.57725 1.25,3.8278 0.8162,0.29745 0.122,1.64438 -2,3.88094 -1.7875,1.88397 -3.25,4.36137 -3.25,5.50534 0,1.14397 -0.675,2.64015 -1.5,3.32484 -1.9072,1.58283 -2.0002,9.33995 -0.1306,10.89158 1.1197,0.92934 0.6643,1.86297 -2.4989,5.12245 -3.668,3.77959 -6.8705,5.17143 -6.8705,2.98597 0,-0.55 -0.675,-1 -1.5,-1 -0.825,0 -1.5,0.81 -1.5,1.8 0,0.99 -0.5137,2.31374 -1.1416,2.94164 -0.8556,0.85551 -0.7235,2.0228 0.5267,4.65752 0.9176,1.93373 2.1064,3.78656 2.6417,4.11738 0.5352,0.33082 0.9582,2.48744 0.9399,4.79248 -0.036,4.501 -2.628,8.69098 -5.377,8.69098 -2.1363,0 -2.0065,1.91586 0.3004,4.43555 1.0396,1.13545 3.2896,4.7153 5,7.95522 2.659,5.03675 3.1099,6.9506 3.1099,13.20121 0,4.02074 -0.7576,9.9199 -1.6835,13.10923 -0.926,3.18933 -1.8569,9.69627 -2.0687,14.45987 -0.3588,8.06708 -0.1966,8.95864 2.3644,13 1.7554,2.77007 2.9041,6.16992 3.1771,9.40285 0.3963,4.69431 0.1459,5.40092 -3.4309,9.68067 -2.1221,2.5392 -4.6669,5.77293 -5.6551,7.18606 -1.091,1.56014 -2.7502,2.56934 -4.2243,2.56934 -1.7206,0 -2.9105,0.93369 -4.0855,3.20594 -1.1432,2.2108 -1.3064,3.32309 -0.5257,3.58333 0.6227,0.20757 1.1322,1.15162 1.1322,2.0979 0,0.94627 1.575,3.24705 3.5,5.11283 3.0435,2.94987 3.5,4.0189 3.5,8.19617 0,2.64211 0.45,4.80383 1,4.80383 0.55,0 1,0.68111 1,1.51357 0,0.83246 0.5455,2.387 1.2121,3.45452 0.6667,1.06752 1.0042,2.0896 0.75,2.27128 -5.4684,3.90868 -9.9621,8.29025 -9.9621,9.71364 0,1.0917 1.3826,2.47517 3.4575,3.45981 1.9017,0.90238 3.7327,2.086 4.0691,2.63025 0.3364,0.54426 1.0044,0.74677 1.4846,0.45003 0.4801,-0.29674 1.6494,1.15842 2.5985,3.23369 0.9491,2.07526 2.3613,4.5236 3.1383,5.44074 2.0786,2.45354 1.22,6.266 -1.498,6.65202 -2.185,0.31033 -3.2571,2.18045 -1.25,2.18045 0.55,0 1,1.36412 1,3.03138 0,1.77208 0.6231,3.27051 1.5,3.60699 0.825,0.31659 1.5,1.13333 1.5,1.81498 0,2.11598 2.8294,7.03775 5.4742,9.5224 1.3892,1.30508 2.5258,3.44092 2.5258,4.74631 0,1.30539 1.125,3.41605 2.5,4.69036 1.4202,1.3162 2.5,3.42968 2.5,4.89323 0,1.41698 0.45,2.85443 1,3.19435 0.55,0.33992 1,1.94148 1,3.55902 0,1.61754 0.45,2.94098 1,2.94098 0.55,0 1,1.32344 1,2.94098 0,1.61754 0.45,3.2191 1,3.55902 0.55,0.33992 1,2.79333 1,5.45203 0,3.37439 0.4529,5.00779 1.5,5.4096 0.985,0.37797 1.5,1.93947 1.5,4.54797 0,2.1848 0.45,4.25048 1,4.5904 0.55,0.33992 1,1.90398 1,3.47568 0,1.57171 0.5625,3.08589 1.25,3.36486 0.9416,0.38207 0.882,0.76241 -0.2416,1.54169 -1.188,0.82388 -1.2389,1.28727 -0.25,2.27613 0.6829,0.6829 1.2416,2.95164 1.2416,5.04164 0,2.09 0.45,3.8 1,3.8 0.6061,0 1,4.33333 1,11 0,6.66667 0.3939,11 1,11 0.55,0 1,1.7449 1,3.87756 0,2.22676 0.6386,4.40754 1.5,5.12244 0.825,0.68469 1.5,2.28823 1.5,3.56343 0,1.27519 0.45,2.59665 1,2.93657 0.55,0.33992 1,1.94148 1,3.55902 0,1.61754 0.45,2.94098 1,2.94098 0.55,0 1,0.87344 1,1.94098 0,1.06754 0.45,2.2191 1,2.55902 0.55,0.33992 1,2.54734 1,4.90538 0,4.12822 2.1179,9.93142 4.0633,11.13376 0.5152,0.31839 0.9367,2.35234 0.9367,4.51988 0,2.16754 0.45,3.94098 1,3.94098 0.55,0 1,1.35 1,3 0,1.65 -0.45,3 -1,3 -0.55,0 -1,2.22344 -1,4.94098 0,2.71754 -0.438,5.21166 -0.9732,5.54248 -0.5353,0.33082 -1.7116,2.15738 -2.614,4.05902 -0.9024,1.90164 -2.0394,3.45752 -2.5267,3.45752 -0.4874,0 -0.8861,0.9 -0.8861,2 0,1.09997 -0.45,1.99997 -1,1.99997 -0.55,0 -1,1.3234 -1,2.941 0,1.6175 -0.45,3.2191 -1,3.559 -0.55,0.3399 -1,2.8088 -1,5.4864 0,4.0019 -0.445,5.2184 -2.5,6.8349 -1.375,1.0816 -2.5,2.6627 -2.5,3.5136 0,0.8509 -0.45,1.8252 -1,2.1651 -0.55,0.3399 -1,2.3915 -1,4.559 0,2.1676 -0.45,3.941 -1,3.941 -0.55,0 -1,2.475 -1,5.49998 0,3.025 -0.45,5.5 -1,5.5 -0.5624,0 -1,2.7977 -1,6.393 0,4.7602 -0.3831,6.54 -1.5,6.9686 -0.825,0.3166 -1.5,1.4898 -1.5,2.607 0,1.1173 -0.45,2.0314 -1,2.0314 -0.55,0 -1,1.3234 -1,2.941 0,1.6175 -0.45,3.2191 -1,3.559 -0.55,0.3399 -1,1.9415 -1,3.559 0,1.6176 -0.45,2.941 -1,2.941 -0.55,0 -1,0.9 -1,2 0,1.1 -0.45,2 -1,2 -0.55,0 -1,1.2716 -1,2.8257 0,1.7211 -0.9773,3.7438 -2.5,5.1743 -1.5227,1.4305 -2.5,3.4532 -2.5,5.1743 0,1.5541 -0.45,2.8257 -1,2.8257 -0.55,0 -1,1.3234 -1,2.941 0,1.6175 -0.45,3.2191 -1,3.559 -0.55,0.3399 -1,1.6899 -1,3 0,1.3101 -0.45,2.6601 -1,3 -0.55,0.3399 -1,1.4433 -1,2.452 0,1.0087 -0.675,2.09295 -1.5,2.40955 -0.825,0.3166 -1.5,1.4898 -1.5,2.607 0,1.1173 -0.45,2.0314 -1,2.0314 -0.55,0 -1,1.1113 -1,2.4696 0,1.3583 -0.9,4.0719 -2,6.0304 -1.1,1.9585 -2,4.0449 -2,4.6365 0,0.5916 -1.125,1.9607 -2.5,3.0423 -1.375,1.0815 -2.5,2.7345 -2.5,3.6731 0,0.9387 -0.9,2.3554 -2,3.1482 -1.1,0.7928 -2,1.9288 -2,2.5244 0,1.5111 -4.9742,11.3416 -6.0868,12.0292 -0.5022,0.3104 -0.9132,1.7226 -0.9132,3.1381 0,1.4155 -0.9981,3.4393 -2.2179,4.4973 -1.682,1.4586 -1.9075,2.1155 -0.9331,2.7177 1.0063,0.6219 0.8368,1.5918 -0.7821,4.474 -1.1368,2.024 -2.0669,4.1641 -2.0669,4.7557 0,0.5916 -1.125,1.9606 -2.5,3.0422 -1.375,1.0815 -2.5,2.8339 -2.5,3.8939 0,1.0601 -0.45,1.9275 -1,1.9275 -0.55,0 -1,1.3233 -1,2.941 0,1.6175 -0.45,3.2191 -1,3.559 -0.55,0.3398 -1,1.9414 -1,3.5589 0,1.6177 -0.45,2.9411 -1,2.9411 -0.55,0 -1,1.3233 -1,2.941 0,1.6175 -0.45,3.2191 -1,3.559 -0.55,0.3398 -1,2.1114 -1,3.9365 0,1.8252 -0.6864,3.8881 -1.5252,4.5843 -1.367,1.1345 -1.367,1.4408 0,2.9512 0.8388,0.927 1.5252,2.386 1.5252,3.2423 0,3.3845 5.8436,11.7856 8.1977,11.7856 0.7755,0 2.9351,1.5735 4.7991,3.4967 2.4108,2.4873 3.6101,3.1393 4.1546,2.2584 0.6082,-0.9841 1.0203,-0.9834 2.007,0 0.6829,0.6829 2.0516,1.2416 3.0416,1.2416 0.99,0 1.8,0.45 1.8,1 0,0.55 0.81,1 1.8,1 2.1057,0 4.2,1.8449 4.2,3.7 0,1.7757 3.6573,5.3 5.5,5.3 0.8333,0 1.5,0.8889 1.5,2 0,1.4695 0.6667,2 2.5136,2 2.4751,0 5.4863,1.3147 8.5429,3.7299 1.6615,1.3128 6.2359,0.893 6.7397,-0.6186 0.3269,-0.9807 5.7907,1.4113 6.7429,2.952 0.3184,0.5152 1.9024,0.9367 3.5199,0.9367 1.6176,0 2.941,0.45 2.941,1 0,0.55 2.475,1 5.5,1 3.025,0 5.5,0.45 5.5,1 0,0.55 0.742,1 1.649,1 0.9069,0 3.1786,1.575 5.0481,3.5 1.8695,1.925 4.0525,3.5 4.851,3.5 0.7986,0 1.4519,0.8625 1.4519,1.9167 0,1.0541 0.5113,2.0871 1.1362,2.2954 0.8155,0.2718 0.7619,0.9782 -0.1898,2.5021 -1.1127,1.7817 -1.0944,2.404 0.1138,3.8672 1.1084,1.3425 1.1521,1.8407 0.1898,2.1646 -1.4798,0.498 -1.7006,4.254 -0.25,4.254 1.5272,0 1.1902,5.9526 -0.4286,7.5714 -0.7857,0.7857 -2.1091,1.4286 -2.941,1.4286 -0.8318,0 -1.7905,0.45 -2.1304,1 -0.3399,0.55 -2.8415,1 -5.559,1 -2.7176,0 -4.941,0.45 -4.941,1 0,1.5816 -39.6765,1.3362 -40.4167,-0.25 -0.4666,-1 -0.7,-1 -1.1666,0 -0.7283,1.5605 -25.9619,1.7949 -26.9167,0.25 z m 90.5,-719.05892 c 0,-0.51754 -0.675,-0.94098 -1.5,-0.94098 -1.5464,0 -1.9867,1.17996 -0.8605,2.30615 0.7989,0.79893 2.3605,-0.10419 2.3605,-1.36517 z M 401.38661,53.47106 C 403.83151,51.02613 402.27531,49 397.95251,49 c -4.7819,0 -5.8055,1.47171 -2.7783,3.99467 2.8369,2.36436 4.2185,2.4703 6.2124,0.47639 z m 75.2552,-29.97878 C 477.46181,21.35543 474.33271,17 471.97741,17 c -1.5225,0 -1.9769,0.67813 -1.9769,2.95031 0,4.16781 5.3137,7.00173 6.6413,3.54197 z M 443.50051,15 c 0.3399,-0.55 1.2665,-1 2.059,-1 0.7926,0 1.441,0.45 1.441,1 0,0.55 -0.9266,1 -2.059,1 -1.1325,0 -1.7809,-0.45 -1.441,-1 z"
     id="path2987"
     inkscape:connector-curvature="0" />
</svg>
