<?xml version="1.0" encoding="UTF-8" standalone="no"?>
<!-- Created with Inkscape (http://www.inkscape.org/) -->

<svg
   xmlns:dc="http://purl.org/dc/elements/1.1/"
   xmlns:cc="http://creativecommons.org/ns#"
   xmlns:rdf="http://www.w3.org/1999/02/22-rdf-syntax-ns#"
   xmlns:svg="http://www.w3.org/2000/svg"
   xmlns="http://www.w3.org/2000/svg"
   xmlns:sodipodi="http://sodipodi.sourceforge.net/DTD/sodipodi-0.dtd"
   xmlns:inkscape="http://www.inkscape.org/namespaces/inkscape"
   id="svg2"
   version="1.1"
   inkscape:version="0.48.2 r9819"
   width="1765.6566"
   height="980.72552"
   sodipodi:docname="M - Harpy.png">
  <metadata
     id="metadata8">
    <rdf:RDF>
      <cc:Work
         rdf:about="">
        <dc:format>image/svg+xml</dc:format>
        <dc:type
           rdf:resource="http://purl.org/dc/dcmitype/StillImage" />
        <dc:title></dc:title>
      </cc:Work>
    </rdf:RDF>
  </metadata>
  <defs
     id="defs6" />
  <sodipodi:namedview
     pagecolor="#ffffff"
     bordercolor="#666666"
     borderopacity="1"
     objecttolerance="10"
     gridtolerance="10"
     guidetolerance="10"
     inkscape:pageopacity="0"
     inkscape:pageshadow="2"
     inkscape:window-width="1600"
     inkscape:window-height="876"
     id="namedview4"
     showgrid="false"
     fit-margin-top="0"
     fit-margin-left="0"
     fit-margin-right="0"
     fit-margin-bottom="0"
     inkscape:zoom="0.5"
     inkscape:cx="883.82814"
     inkscape:cy="484.34144"
     inkscape:window-x="0"
     inkscape:window-y="24"
     inkscape:window-maximized="1"
     inkscape:current-layer="svg2" />
  <path
     style="fill:#000000"
     d="m 961.32814,979.56809 c 0,-0.8613 0.424,-1.828 0.9422,-2.1483 1.5567,-0.962 2.3617,-9.0994 1.1282,-11.4042 -0.6173,-1.1535 -4.5982,-4.7068 -8.8464,-7.8963 -10.3228,-7.7501 -14.224,-13.65537 -14.224,-21.53094 0,-3.20024 0.5186,-7.87817 1.1525,-10.3954 1.3324,-5.29171 0.1948,-9.64468 -3.9436,-15.08986 -1.3714,-1.80456 -3.217,-4.58442 -4.1012,-6.17747 -1.85,-3.33298 -10.7204,-12.96766 -12.255,-13.31094 -0.6815,-0.15244 -1.1489,8.92026 -1.3789,26.76941 -0.2731,21.18684 -0.6908,28.07651 -1.9399,32 -1.3389,4.2051 -1.4129,6.1829 -0.4655,12.4411 0.6195,4.0926 1.5154,8.4642 1.9908,9.7146 0.5001,1.3154 0.4839,2.5087 -0.038,2.8315 -1.282,0.7924 -8.7994,-7.2294 -11.2336,-11.9872 -1.1256,-2.2 -3.7513,-5.8625 -5.8349,-8.1388 -2.0836,-2.2763 -5.0107,-6.7226 -6.5047,-9.88058 l -2.7163,-5.74177 2.7944,-9.82867 2.7943,-9.82866 -1.6764,-9.79076 c -0.922,-5.38492 -2.1144,-14.96576 -2.6498,-21.29076 -0.5354,-6.325 -1.4461,-13.075 -2.0238,-15 -2.1068,-7.02026 -3.0518,-12.72735 -3.9063,-23.59227 -0.5564,-7.07534 -1.6033,-12.86955 -2.8908,-16 -2.2183,-5.39357 -2.7719,-8.23823 -3.777,-19.40734 -0.5129,-5.70075 -1.2555,-8.26099 -3.0959,-10.67386 -2.0728,-2.71763 -2.546,-4.8297 -3.289,-14.68259 -0.915,-12.13267 -1.7653,-14.90693 -5.1185,-16.70151 -1.1339,-0.60688 -2.7104,-2.65598 -3.5033,-4.55357 -2.7705,-6.63084 -11.54,-9.27726 -16.3419,-4.9316 -0.9376,0.84851 -2.6422,1.54274 -3.788,1.54274 -2.3604,0 -2.76,-1.67998 -3.8329,-16.11403 -0.8123,-10.92966 -1.5059,-12.11134 -4.3794,-7.46185 -2.3075,3.73358 -5.455,6.05973 -6.9496,5.13603 -2.1207,-1.31071 -2.2005,-13.05559 -0.1484,-21.84888 2.5761,-11.03818 2.6399,-20.81827 0.1714,-26.25264 -2.1926,-4.82705 -7.3761,-9.45863 -10.5857,-9.45863 -1.8374,0 -2.4429,-0.69764 -2.9496,-3.39855 -0.3507,-1.86921 -1.5291,-4.53195 -2.6187,-5.91722 -1.2285,-1.56167 -2.1901,-4.73489 -2.531,-8.35145 -0.3024,-3.20803 -1.1449,-7.63278 -1.8722,-9.83278 -1.8278,-5.52883 -3.389,-13.81606 -4.0192,-21.33507 -0.648,-7.73078 -0.8954,-8.16493 -4.6526,-8.16493 -3.1184,0 -8.8913,-2.48392 -8.8913,-3.82568 0,-0.42588 0.5625,-1.33668 1.25,-2.02401 1.4499,-1.44951 1.9619,-20.15031 0.5517,-20.15031 -0.4847,0 -2.6789,0.91702 -4.8758,2.03782 -6.4156,3.27297 -7.522,1.16017 -3.5542,-6.7873 1.3044,-2.61279 4.0988,-8.12552 6.2098,-12.25052 3.1184,-6.09339 3.8562,-8.62529 3.9337,-13.5 0.053,-3.3 0.3716,-6.675 0.7091,-7.5 1.1573,-2.82962 1.7407,-7.51042 2.008,-16.11311 l 0.2677,-8.61311 4.8931,-4.42813 4.8931,-4.42813 -2.8931,-1.87599 c -3.594,-2.33047 -6.3931,-5.44469 -6.3931,-7.11275 0,-2.30597 1.1958,-4.42878 2.4948,-4.42878 0.7044,0 3.5704,-1.575 6.3689,-3.5 2.7984,-1.925 5.5316,-3.5 6.0737,-3.5 0.542,0 1.4782,-1.9125 2.0803,-4.25 1.8726,-7.26946 3.1105,-10.75 3.8232,-10.75 0.6747,0 3.1158,-2.39923 14.9587,-14.70205 3.2836,-3.41113 7.1728,-6.5039 8.6427,-6.87282 3.4193,-0.8582 4.5226,-2.61382 11.3912,-18.1271 l 5.666,-12.79803 -0.2879,-9.8865 c -0.1583,-5.43758 -0.8168,-10.83758 -1.4633,-12 -0.6465,-1.16243 -1.243,-6.3885 -1.3255,-11.6135 -0.1044,-6.61007 -0.6852,-10.71681 -1.9093,-13.5 -0.984,-2.23717 -2.0953,-8.25339 -2.5218,-13.65128 -0.8894,-11.25764 -2.193,-14.00674 -8.8128,-18.58513 -17.1695,-11.87484 -17.5878,-12.11537 -19.3932,-11.14917 -1.3544,0.72485 -1.7862,0.58482 -1.7862,-0.57924 0,-1.27567 -1.6482,-1.5342 -9.75,-1.52939 -5.3625,0.003 -12.45,0.47062 -15.75,1.03873 -3.3,0.56812 -9.825,1.68244 -14.5,2.47627 -21.3727,3.62917 -40.9387,9.42495 -48.3297,14.31612 -4.5249,2.99443 -5.6703,5.46767 -5.6703,12.24394 0,2.72286 -0.5402,6.68161 -1.2005,8.79724 -1.0843,3.47432 -1.6762,3.9685 -6.1154,5.10623 -3.971,1.01773 -5.6609,1.01343 -8.7995,-0.0224 -2.1365,-0.70512 -3.8846,-1.66001 -3.8846,-2.12198 0,-0.46197 -0.461,-0.83994 -1.0245,-0.83994 -1.8498,0 -13.9908,-8.16011 -15.03,-10.10184 -0.5587,-1.04399 -1.5625,-1.9001 -2.2307,-1.90248 -0.6681,-0.002 -3.4648,-2.05818 -6.2148,-4.56846 -7.0355,-6.42224 -13.7689,-9.42722 -21.124,-9.42722 -3.262,0 -6.8186,-0.59244 -7.9035,-1.31653 -7.1921,-4.8003 -28.1934,-4.75834 -33.2939,0.0665 -0.7268,0.6875 -1.6596,1.25 -2.0728,1.25 -0.4132,0 -1.7626,2.025 -2.9987,4.5 -1.2466,2.49612 -2.9534,4.5 -3.83286,4.5 -0.872,0 -3.14316,1.18812 -5.04702,2.64026 -3.30061,2.5175 -3.85891,2.61223 -12.0072,2.03719 -4.70011,-0.33169 -9.01238,-1.06981 -9.58283,-1.64026 -0.57046,-0.57043 -2.95102,-1.03716 -5.29014,-1.03716 -2.33912,0 -5.28662,-0.39696 -6.55,-0.88214 -3.29506,-1.2654 -16.04683,-3.86428 -24.79705,-5.05377 -9.44592,-1.28407 -82.10728,-2.2253 -91.49188,-1.18516 -11.13039,1.23364 -23.02152,-0.20476 -35.21165,-4.25934 -14.01254,-4.66073 -31.07625,-7.65882 -54.67483,-9.60636 -5.9831,-0.49377 -11.6081,-1.20917 -12.5,-1.58979 -2.70779,-1.15552 -10.28155,-2.57705 -16.59552,-3.11484 -3.28563,-0.27985 -6.87326,-1.13877 -7.97251,-1.90871 -1.09924,-0.76994 -2.99694,-1.39989 -4.2171,-1.39989 -1.22016,0 -2.49659,-0.45 -2.83651,-1 -0.33992,-0.55 -2.66097,-1 -5.15789,-1 -2.49692,0 -5.95786,-0.65851 -7.69098,-1.46337 -2.04973,-0.95188 -7.34545,-1.57683 -15.15113,-1.78799 -10.45676,-0.28288 -19.01587,-1.6992 -27.5,-4.55057 -0.825,-0.27727 -4.2,-0.42163 -7.5,-0.32081 -6.83227,0.20874 -26.7297,-2.18355 -30.53048,-3.67071 -5.24975,-2.05412 -67.21469,-3.45036 -93.92646,-2.11643 -16.60322,0.82912 -18.54833,0.7584 -19.36683,-0.70419 -0.70139,-1.25331 -1.08969,-1.33498 -1.69448,-0.35641 -0.62586,1.01267 -2.00417,1.02954 -6.81338,0.0834 -4.51196,-0.88768 -9.75748,-0.9216 -20.848588,-0.13485 -8.15088,0.57818 -18.64478,1.30804 -23.31978,1.62192 -10.92678,0.73361 -15.23884,2.42129 -20.96508,8.20543 -12.75073,12.87965 -15.91516,13.89268 -22.62983,7.24447 -4.13566,-4.09473 -4.66974,-5.86836 -4.83295,-16.04989 -0.0682,-4.25348 0.13844,-4.60284 3.77173,-6.37721 8.98758,-4.3892 12.40913,-10.84992 11.03919,-20.84471 -0.58204,-4.24643 -0.43611,-4.57683 3.51548,-7.95924 l 4.12272,-3.52889 -2.54245,-4.54894 c -3.9231,-7.0192 -4.71508,-7.37863 -9.75295,-4.42624 -3.23786,1.89751 -6.04683,2.60948 -11.26937,2.85637 l -6.9564905,0.32886 -0.29891,-3.05626 c -0.27981,-2.86103 0.5904705,-5.92037 2.6864505,-9.44374 0.49078,-0.825 1.72935,-3.3 2.75239,-5.5 1.02304,-2.2 3.32257,-5.84635 5.11007,-8.10299 1.7875,-2.25665 3.25,-4.67803 3.25,-5.38084 0,-2.11522 -6.46057,-0.48339 -11.31827,2.8588 -5.6369305,3.8783 -9.1681005,4.78152 -11.10831045,2.84131 -1.31426,-1.31426 -1.24816,-1.70066 0.57281995,-3.34863 1.13219,-1.02461 2.67113,-3.04759 3.41988,-4.49551 0.74875,-1.44793 4.41518,-5.02715 8.1476205,-7.95384 3.73244,-2.92669 9.51779,-8.15559 12.85632,-11.61978 3.83717,-3.98158 6.87897,-6.29852 8.26905,-6.29852 1.89209,0 2.10696,-0.38381 1.5396,-2.75 -0.36266,-1.5125 -1.20924,-3.875 -1.88129,-5.25 -1.97194,-4.03459 -2.4254,-10.378 -0.89181,-12.47532 3.1458,-4.30214 6.54548,-5.51123 15.51549,-5.51809 l 8.6211,-0.007 2.3789,-3.49317 c 1.30839,-1.92124 2.6747,-3.49624 3.03623,-3.5 0.36153,-0.004 2.74119,2.31092 5.28813,5.14373 l 4.6308,5.15056 2.71187,-2.52837 c 3.59622,-3.35248 5.82256,-4.39742 11.21187,-5.26194 2.475,-0.39703 6.07293,-1.68679 7.99539,-2.86613 1.92247,-1.17935 5.23606,-2.93264 7.363538,-3.89621 2.12748,-0.96357 5.95455,-3.48525 8.50461,-5.60375 2.55005,-2.1185 5.58883,-4.35128 6.75284,-4.96173 1.39229,-0.73018 2.33576,-2.48184 2.75758,-5.11974 0.62015,-3.8782 0.74761,-3.99154 3.88362,-3.45322 1.78333,0.30612 5.04242,1.40411 7.24242,2.43998 2.2,1.03586 8.275,2.39398 13.5,3.01802 5.225,0.62405 11.75,1.52674 14.5,2.00599 12.53789,2.18499 17.50747,2.7634 24.41809,2.84201 7.93221,0.0902 19.30209,1.65033 22.58191,3.09854 1.1,0.48571 15.725,1.08846 32.5,1.33944 18.6627,0.27922 32.24649,0.91322 35,1.63356 3.29934,0.86314 5.83406,0.89313 9.5,0.11242 2.75,-0.58565 10.35621,-1.26975 16.90268,-1.52023 6.78463,-0.25958 12.18367,-0.91005 12.55614,-1.51273 1.40915,-2.28004 20.39672,-4.04355 43.54118,-4.04397 12.65,-2.3e-4 24.8,-0.44469 27,-0.98768 2.2,-0.54299 6.925,-1.00677 10.5,-1.03062 7.50135,-0.05 28.20144,-2.25935 42,-4.48263 5.225,-0.84187 13.775,-2.21595 19,-3.05351 11.32287,-1.81502 16.46014,-2.89797 20.5,-4.32143 1.65,-0.58139 5.92559,-2.08975 9.50132,-3.35192 3.57573,-1.26217 7.92019,-3.30736 9.65437,-4.54486 1.73418,-1.2375 3.66508,-2.25 4.29089,-2.25 0.62581,0 1.68134,-0.4392 2.34563,-0.976 9.64445,-7.79356 15.50444,-13.12736 21.84659,-19.88489 l 7.6388,-8.13911 16.2902,0 c 15.48488,0 18.10945,0.34344 26.9322,3.52426 1.925,0.69401 6.65,1.78298 10.5,2.41992 3.85,0.63695 8.86918,1.63143 11.15373,2.20996 3.87159,0.98043 6.52328,0.87734 18.47226,-0.71812 3.84751,-0.51374 5.28041,-0.20457 8.51471,1.83714 2.1387,1.35016 4.4599,3.14313 5.1581,3.98439 0.6982,0.84126 3.7491,3.03997 6.7797,4.88601 3.0307,1.84604 6.6869,4.33229 8.125,5.525 1.4381,1.19271 4.2306,2.47048 6.2056,2.83949 1.975,0.369 4.0697,1.0663 4.6549,1.54955 1.4663,1.21078 17.3382,2.93686 26.436,2.87495 10.8733,-0.074 28.0196,-2.32506 31.5,-4.13552 1.65,-0.85829 4.9936,-1.89201 7.4303,-2.29714 2.4367,-0.40514 5.9379,-1.58335 7.7804,-2.61825 1.8426,-1.0349 3.9976,-1.88164 4.7889,-1.88164 1.8492,0 9.5004,-3.97199 9.5004,-4.93199 0,-0.40153 1.2375,-1.34711 2.75,-2.1013 1.5125,-0.75418 3.9509,-2.45438 5.4187,-3.77822 3.49,-3.1476 5.2216,-2.07612 4.3249,2.67603 -0.3773,1.99951 -0.6518,8.31496 -0.6101,14.03432 0.057,7.81973 0.453,10.81548 1.5962,12.07874 0.8489,0.93805 1.5203,3.52195 1.5203,5.85116 0,2.29419 0.45,4.17126 1,4.17126 0.55,0 1,0.7151 1,1.58911 0,1.89524 13.6029,15.41089 15.5104,15.41089 0.7301,0 2.6015,0.64677 4.1586,1.43726 6.844,3.47458 14.5416,6.56274 16.3583,6.56274 1.4099,0 1.9727,0.67764 1.9727,2.375 0,7.56093 0.5558,8.17199 11.3559,12.48447 15.9815,6.38143 53.9225,21.74475 67.6441,27.39091 6.875,2.82892 15.65,7.24036 19.5,9.8032 l 7,4.65972 14.9066,0.73482 c 8.1986,0.40415 15.5111,0.9668 16.25,1.25033 0.8426,0.32336 1.3434,-0.21425 1.3434,-1.44224 0,-2.75167 -2.0274,-8.25621 -3.0408,-8.25621 -0.4649,0 -3.5185,-2.475 -6.7859,-5.5 -5.3566,-4.95928 -6.3798,-5.5 -10.4077,-5.5 -2.4569,0 -5.8468,0.48095 -7.533,1.06877 -3.6677,1.27854 -6.2558,0.13784 -16.1577,-7.12135 -8.755,-6.41835 -12.0561,-10.76599 -12.6901,-16.71326 -0.2776,-2.60379 -0.9593,-5.63416 -1.5149,-6.73416 -1.7599,-3.48447 -11.4362,-9.43151 -18.0718,-11.10697 -12.6921,-3.20472 -25.4652,-12.86411 -28.3011,-21.40215 -1.8709,-5.63253 -1.2927,-8.7532 1.8409,-9.93747 3.1615,-1.19476 5.3346,0.40199 6.3415,4.65944 0.6611,2.79542 2.1141,4.68084 5.6901,7.38359 4.4346,3.35172 5.4939,3.68178 13.8379,4.31167 4.9697,0.37516 9.2601,0.45776 9.5343,0.18357 1.2423,-1.24237 -1.0358,-5.65234 -3.7474,-7.25412 -4.0569,-2.39647 -3.7645,-3.33756 1.0371,-3.33756 5.4808,0 6.2888,-2.30698 2.044,-5.83593 -9.9136,-8.24172 -13.5402,-12.14182 -16.2123,-17.43522 -3.247,-6.43237 -5.2205,-7.62799 -11.5071,-6.97164 -4.0047,0.4181 -4.3577,0.20816 -10.5,-6.24497 -6.4712,-6.79861 -8.3257,-9.84572 -7.4235,-12.19696 0.8182,-2.13228 1.8949,-1.58725 7.2787,3.68472 5.1689,5.06143 9.2888,6.52403 9.2888,3.29761 0,-0.93632 -1.3575,-3.103 -3.0167,-4.81484 -4.3268,-4.4641 -5.952,-11.50052 -2.65,-11.47307 0.6417,0.005 3.9081,3.04385 7.2586,6.75225 5.4371,6.01777 6.8421,6.98416 13.071,8.9903 3.8384,1.23626 7.6828,2.24775 8.543,2.24775 0.8603,0 2.2875,1.10408 3.1717,2.4535 2.6378,4.02585 10.037,7.83399 13.6706,7.0359 1.6978,-0.37289 3.3426,-1.34434 3.6552,-2.15877 1.1264,-2.93546 -1.9594,-9.68301 -7.7751,-17.00154 -7.4565,-9.38318 -7.7159,-11.26862 -1.0883,-7.91016 4.3435,2.20099 6.5467,4.23434 12.424,11.46613 0.9702,1.1938 3.0906,2.43586 4.7119,2.76012 3.5008,0.70016 6.4122,4.67234 5.6501,7.7087 -0.4359,1.73701 0.6372,3.1103 5.4237,6.94039 3.3013,2.64174 6.746,6.43473 7.7106,8.49031 1.2989,2.76809 2.4442,3.7961 4.4916,4.03184 2.1533,0.24794 2.7481,-0.0992 2.7481,-1.60397 0,-1.76342 -1.2117,-3.27068 -6.9439,-8.63742 -2.7062,-2.53358 -2.7622,-6.57503 -0.091,-6.57503 1.0807,0 2.4465,0.9 3.0352,2 1.6268,3.03965 4,2.51554 4,-0.88337 0,-1.95843 -0.59,-3.03767 -1.8394,-3.36437 -1.0736,-0.28078 -3.9211,-4.38809 -6.8402,-9.86664 -3.6871,-6.91972 -6.1595,-10.25999 -9.4107,-12.71364 -8.0655,-6.08704 -14.9097,-13.03155 -14.9097,-15.1282 0,-2.93967 1.5964,-2.53205 5.703,1.45622 1.9821,1.925 4.5756,3.5 5.7633,3.5 1.1877,0 3.4812,1.38152 5.0966,3.07005 5.2486,5.48619 14.4027,9.4126 15.9831,6.8555 0.8114,-1.31286 -4.879,-8.69666 -9.4611,-12.27672 -2.7322,-2.13468 -4.3971,-2.70704 -6.9997,-2.40641 -2.7677,0.31971 -3.9521,-0.16775 -6.25,-2.57229 -4.7529,-4.9735 -2.9574,-6.63362 2.3472,-2.17013 2.8478,2.39627 8.1535,3.38349 9.1881,1.70959 0.6489,-1.04992 -5.0882,-10.20959 -6.3947,-10.20959 -0.5613,0 -2.9229,-1.69278 -5.2481,-3.76173 -2.3252,-2.06895 -6.4777,-5.30307 -9.2277,-7.18693 -2.75,-1.88386 -7.8846,-6.09311 -11.4102,-9.3539 -3.5256,-3.26079 -7.5884,-6.43917 -9.0284,-7.06307 -5.5667,-2.41186 -21.0813,-14.97724 -25.2357,-20.438698 -6.7954,-8.93311 -7.16,-10.173641 -7.4468,-25.337237 -0.2898,-15.3244925 0.4016,-17.63230154 4.9414,-16.49290454 2.9888,0.750163 4.2056,4.07410704 7.6376,20.86518654 2.4628,12.049522 5.6509,18.572681 10.7119,21.917519 8.9496,5.914924 9.4184,6.092114 14.9134,5.636424 l 5.3102,-0.44036 7.2176,6.82785 c 3.9698,3.75532 7.5938,6.82785 8.0534,6.82785 1.449,0 0.9162,-2.18678 -1.5641,-6.41903 -2.7491,-4.69108 -4.0938,-11.157963 -2.522,-12.129382 1.0959,-0.677306 10.5541,8.910082 11.4192,11.575152 0.2726,0.8397 1.448,2.1897 2.6121,3 1.1641,0.81029 3.7133,2.7193 5.6648,4.24224 1.9516,1.52294 6.0169,3.48661 9.034,4.36371 3.4609,1.00609 6.7303,2.83937 8.8577,4.96675 1.8546,1.85461 4.601,3.63564 6.103,3.95783 9.9875,2.14237 13.2252,3.36257 19.0181,7.16739 3.5801,2.35144 6.8926,4.27534 7.3611,4.27534 2.271,0 0.4272,-10.25042 -2.3555,-13.09482 -4.7424,-4.84765 -6.4459,-10.93522 -3.0428,-10.87338 0.9625,0.0175 2.5624,0.64781 3.5553,1.4007 1.691,1.28217 7.1988,9.64785 10.3978,15.79286 1.5999,3.07326 5.9012,6.77464 7.8727,6.77464 2.3478,0 2.5372,-1.84452 0.9693,-9.43534 -0.8501,-4.11419 -1.5454,-10.44666 -1.5454,-14.07216 0,-6.73376 -0.8624,-9.2538 -5.5114,-16.10445 -1.5746,-2.320297 -2.5252,-5.176807 -2.5883,-7.777597 -0.055,-2.260749 -0.4229,-5.235453 -0.8179,-6.610453 -2.3055,-8.025073 5.3677,-9.232008 7.9959,-1.257677 1.5237,4.62333 7.8394,16.257677 8.8254,16.257677 0.3961,0 1.6937,-1.316787 2.8836,-2.926193 2.0334,-2.750263 2.3904,-2.864258 5.9381,-1.896033 5.305,1.447831 5.9631,2.228301 6.4884,7.695076 0.6388,6.64855 6.3086,15.72751 12.25706,19.62715 3.4535,2.26405 5.3106,4.51605 7.5703,9.17995 3.6833,7.60251 9.1637,12.32005 14.3122,12.32005 4.3916,0 7.4547,3.02261 11.3792,11.22853 2.8798,6.02134 5.4768,7.29032 6.0915,2.97642 0.3012,-2.11359 -5.5023,-12.26998 -7.8349,-13.71165 -0.5294,-0.32715 -1.9379,-3.80623 -3.1301,-7.7313 -1.6764,-5.51921 -3.1098,-8.05719 -6.3253,-11.19924 -3.9385,-3.84868 -7.784,-12.64591 -6.214,-14.21587 0.3276,-0.32766 1.9993,0.58524 3.7147,2.02868 1.7154,1.44344 3.5344,2.68068 4.0422,2.74943 0.5078,0.0687 1.3733,0.2375 1.9233,0.375 0.55,0.1375 1.7875,0.31314 2.75,0.39031 3.2836,0.26328 4.2314,1.71721 6.2404,9.57233 1.7669,6.90815 2.6832,8.59128 7.5929,13.94681 9.2807,10.12337 9.6969,10.49318 12.5014,11.10915 1.4893,0.32712 3.4637,1.4299 4.3875,2.45064 0.9237,1.02073 4.6125,3.57115 8.1973,5.66759 3.5847,2.09645 7.8946,5.55025 9.5776,7.67511 l 3.0598,3.86339 1.2306,-2.9266 c 1.353,-3.21789 11.6142,-12.73341 16.7208,-15.50564 3.3872,-1.83884 5.5316,-6.04969 5.6656,-11.12506 0.074,-2.80431 -3.3445,-9.61803 -4.8255,-9.61803 -1.668,0 -9.0984,-7.28705 -9.0984,-8.92294 0,-0.9719 -0.9218,-2.60134 -2.0485,-3.62097 -1.3956,-1.26294 -1.9534,-2.82647 -1.75,-4.90499 0.2737,-2.79737 0.5952,-3.04295 3.8668,-2.95315 4.6908,0.12876 18.7407,9.07115 22.2607,14.16834 5.9022,8.54671 7.2104,17.63341 4.0745,28.30221 -2.4829,8.4475 -5.0372,12.16868 -13.0136,18.95909 -6.7314,5.73053 -7.3899,6.62219 -7.3899,10.00605 0,2.0432 0.675,5.62806 1.5,7.96636 0.825,2.3383 1.5,6.63535 1.5,9.549 0,4.18045 0.523,5.91909 2.4801,8.24502 2.7327,3.24761 6.3742,11.11622 7.003,15.13235 0.7718,4.92926 2.6374,11.5795 3.4895,12.43887 1.0156,1.02434 9.0274,-5.13023 9.0274,-6.93478 0,-0.67915 1.3946,-1.72097 3.0991,-2.31517 1.7046,-0.59421 4.5437,-2.65747 6.3093,-4.58503 l 3.2102,-3.50467 5.6907,1.19364 c 4.4144,0.92592 6.9723,0.92483 11.4046,-0.005 6.566,-1.37723 19.1485,-8.56831 26.1452,-14.94232 2.5525,-2.32537 5.0909,-4.23957 5.6409,-4.25376 0.55,-0.0142 3.7,-1.37242 7,-3.01828 3.3,-1.64586 7.35,-2.99453 9,-2.99703 4.4701,-0.007 14.5751,-5.18555 18.2213,-9.33832 1.7617,-2.00647 5.8076,-5.05281 8.9909,-6.76962 3.1833,-1.71682 8.7168,-5.24665 12.2967,-7.84406 10.7108,-7.77121 10.1032,-7.64539 17.3498,-3.59288 7.4322,4.15634 12.4258,4.56288 17.6413,1.43621 5.2068,-3.1214 8.569,-6.594 12.7472,-13.1657 4.6384,-7.29553 7.6005,-8.75377 15.5815,-7.67072 9.1014,1.23509 14.5749,-1.01986 21.9747,-9.05306 l 4.782,-5.19128 5.9424,0.68968 c 8.3715,0.97162 12.8729,-1.48168 26.015,-14.17866 5.8776,-5.67838 11.4043,-10.32443 12.2814,-10.32443 0.8772,0 2.6692,1.15858 3.9822,2.57461 1.517,1.63609 3.8629,2.77254 6.4353,3.11756 3.6979,0.49601 4.4416,0.18002 8.6021,-3.65492 2.5047,-2.30882 5.032,-5.64603 5.6162,-7.41602 0.5841,-1.76999 3.2911,-5.41368 6.0155,-8.097096 l 4.9534,-4.878934 8.4105,-0.441436 c 11.8564,-0.622303 14.4656,0.49353 24.373,10.423346 8.855,8.87487 11.8033,10.37613 16.714,8.51051 2.8294,-1.07493 3.2722,-0.93911 5.5736,1.70923 1.4631,1.68372 5.118,3.82396 8.8122,5.16025 5.544,2.00539 6.9437,2.15266 11.5,1.20993 2.8533,-0.59035 6.9878,-1.36847 9.1878,-1.72916 5.1264,-0.84047 9.5446,-3.57596 11.7051,-7.24705 1.0734,-1.82404 3.1109,-3.32199 5.5,-4.04369 4.712,-1.42339 22.9694,-18.173931 24.9341,-22.876159 1.6494,-3.947546 1.7616,-9.703472 0.2445,-12.538343 -0.9813,-1.833582 -0.8906,-1.993345 0.75,-1.320805 1.0264,0.420796 2.57,0.969592 3.43,1.219545 1.4621,0.424942 5.7969,8.208526 11.0371,19.818632 3.2451,7.189709 13.8717,17.31206 19.0425,18.13891 2.9103,0.46537 4.3065,1.33021 5.324,3.29781 1.7091,3.30514 9.2614,10.35452 13.3687,12.47846 1.6856,0.87165 4.6922,1.58482 6.6815,1.58482 2.8381,0 4.3275,0.75358 6.9177,3.5 3.6841,3.90629 7.1682,4.48265 12.7809,2.11429 1.8061,-0.76214 6.8839,-2.36635 11.2839,-3.5649 4.7694,-1.29917 10.4511,-3.7683 14.0697,-6.11429 3.3384,-2.1643 6.6876,-3.9351 7.4428,-3.9351 2.9761,0 20.818,-6.58219 26.421,-9.74717 6.5133,-3.67919 11.0838,-7.37161 19.8497,-16.036379 5.4089,-5.346486 5.8568,-5.589209 6.9206,-3.750396 2.7517,4.756415 5.6616,6.649816 9.1999,5.986036 4.6156,-0.865898 14.5676,1.393234 17.4245,3.95542 1.9954,1.789569 2.2652,2.802999 1.8873,7.090259 -0.2424,2.75122 -1.1953,6.97232 -2.1173,9.38021 -1.5515,4.05145 -1.5547,4.51257 -0.043,6.18256 0.8982,0.99252 2.2744,1.55848 3.0583,1.25769 0.8654,-0.33209 3.4798,1.58193 6.656,4.87291 2.877,2.9809 8.2847,7.81125 12.0172,10.73411 3.7324,2.92287 7.3988,6.49896 8.1476,7.94689 0.7487,1.44792 2.2877,3.4709 3.4199,4.49551 1.8209,1.64797 1.887,2.03437 0.5728,3.34863 -1.9402,1.94021 -5.4714,1.03699 -11.1083,-2.84131 -4.8577,-3.34219 -11.3183,-4.97402 -11.3183,-2.8588 0,0.70281 1.4625,3.12419 3.25,5.38084 1.7875,2.25664 4.087,5.90299 5.1101,8.10299 1.023,2.2 2.2616,4.675 2.7524,5.5 2.0959,3.52337 2.9662,6.58271 2.6864,9.44374 l -0.2993,3.05626 -6.9565,-0.32886 c -5.2225,-0.24689 -8.0315,-0.95886 -11.2694,-2.85637 -5.0378,-2.95239 -5.8298,-2.59296 -9.7529,4.42624 l -2.5425,4.54894 4.1228,3.52889 c 3.9515,3.38241 4.0975,3.71281 3.5154,7.95924 -1.3699,9.99479 2.0516,16.45551 11.0392,20.84471 3.6333,1.77437 3.8399,2.12373 3.7718,6.37721 -0.1617,10.08648 -0.6721,11.67588 -5.377,16.74478 -3.6351,3.91646 -5.2613,4.94184 -8.0814,5.09569 -3.7008,0.20191 -3.7526,0.15336 -14.9053,-13.98332 -3.4274,-4.34445 -9.1365,-6.44677 -19.5642,-7.20439 -43.2845,-3.14479 -34.8184,-3.59158 -74.5,3.93171 -30.5618,5.79425 -38.2838,7.41707 -43,9.03666 -9.087,3.12057 -17.7704,5.4989 -29,7.94287 -13.1984,2.87246 -19.7398,4.84909 -32.8251,9.91878 -5.1288,1.98709 -11.8788,4.07795 -15,4.64637 -3.1212,0.56841 -9.4999,2.29418 -14.1749,3.83503 -4.675,1.54085 -10.4447,3.04076 -12.8215,3.33312 -2.3768,0.29236 -6.013,1.65091 -8.0803,3.01899 -3.1321,2.07275 -4.226,3.79578 -6.5615,10.33557 -1.5415,4.31648 -3.5304,8.60385 -4.4197,9.5275 -1.8244,1.89476 -11.0157,2.29235 -28.7133,1.24203 -12.1807,-0.72291 -29.3582,2.19377 -38.9037,6.60571 -8.8597,4.09496 -14.2845,5.53566 -32,8.49848 -28.2913,4.73157 -31.3259,5.37576 -37.4341,7.94668 -3.3031,1.39026 -7.2567,2.52122 -8.7858,2.51325 -2.9444,-0.0153 -12.8192,2.80637 -22.7801,6.50942 -3.3,1.2268 -9.9289,3.4675 -14.7309,4.97933 -4.8019,1.51183 -11.1019,4.24789 -14,6.08014 -9.9341,6.28073 -16.6942,9.4456 -20.1755,9.4456 -1.9049,0 -4.5861,0.42684 -5.9582,0.94853 -3.2149,1.22229 -9.648,0.1822 -10.3607,-1.67507 -0.3032,-0.79014 0.4136,-3.15336 1.5929,-5.25162 1.7183,-3.05739 1.9856,-4.57801 1.3458,-7.65718 -1.6588,-7.98407 -9.2937,-10.27169 -44.7134,-13.39735 -10.0958,-0.89092 -13.9259,-0.78442 -24.1371,0.67119 -11.3732,1.62127 -12.243,1.62427 -13.8194,0.0478 -1.3102,-1.31016 -2.1245,-1.44573 -3.6809,-0.61277 -1.0992,0.58827 -3.6555,0.97076 -5.6806,0.84999 -2.0251,-0.12078 -4.807,0.24148 -6.182,0.80503 -1.375,0.56354 -4.75,1.54409 -7.5,2.17899 -7.4477,1.71949 -12.9214,5.85518 -13.3274,10.06966 -0.4172,4.33145 1.4837,11.37374 4.4828,16.60726 2.9223,5.09952 5.0932,12.06968 6.2769,20.15311 1.5831,10.81124 -1.4111,16.26243 -8.9323,16.26243 -4.177,0 -7.7554,-2.22651 -9.0497,-5.6307 -0.5818,-1.53031 -2.6555,-3.17129 -5.6052,-4.43571 -5.119,-2.19426 -5.8727,-1.84805 -6.9748,3.20417 -0.3165,1.45077 -1.8911,3.61049 -3.4991,4.79938 l -2.9238,2.16161 -3.0911,-2.20111 c -4.0912,-2.91316 -7.6889,-1.75057 -10.1519,3.28056 -1.6353,3.34052 -1.6622,3.98706 -0.301,7.24482 1.6874,4.03853 3.0323,4.49992 4.5966,1.57698 1.2675,-2.36829 4,-2.66954 4,-0.44098 0,0.85746 0.4094,1.306 0.9098,0.99675 2.2746,-1.40583 4.0896,0.74125 4.0584,4.80122 -0.035,4.50902 -1.7824,7.64301 -4.2623,7.64301 -0.8656,0 -2.8504,1.90094 -4.4108,4.22431 -5.6857,8.46575 -12.9801,10.83626 -20.6672,6.71627 -2.1133,-1.13268 -3.9428,-1.92018 -4.0654,-1.75 -0.1227,0.17018 -0.7557,2.78442 -1.4068,5.80942 -0.8578,3.98581 -0.8987,7.03896 -0.1486,11.08998 0.5693,3.07448 0.9459,7.57448 0.8368,10 -0.109,2.42551 0.1714,7.56002 0.6232,11.41002 0.7016,5.97764 1.3281,7.56633 4.2899,10.8776 1.9076,2.13267 4.3139,5.78901 5.3473,8.12519 1.2417,2.80727 2.8752,4.6603 4.8171,5.46467 3.3826,1.40112 6.2644,7.32391 5.1162,10.51504 -0.3992,1.10963 -2.146,2.44806 -3.8817,2.9743 -2.6898,0.81549 -3.1559,1.4324 -3.1559,4.17733 0,3.79076 -5.569,14.9135 -10.4483,20.86805 -3.5995,4.39274 -10.1132,8.05054 -19.5517,10.97944 -7.3123,2.2691 -9.3843,3.70109 -11.3505,7.84462 -1.8296,3.85565 -2.1815,9.7418 -0.6725,11.25079 0.5374,0.53736 1.274,5.01486 1.6369,9.95 0.3629,4.93513 1.0939,9.81635 1.6246,10.84714 1.5767,3.06284 7.5307,8.03848 11.0147,9.20481 4.319,1.44582 4.6904,4.92698 1.3256,12.4247 -1.4183,3.16053 -2.5788,6.61651 -2.5788,7.67996 0,1.06346 -1.3877,5.73218 -3.0837,10.37496 -2.4303,6.65285 -2.9734,9.47294 -2.563,13.30993 0.5136,4.80098 3.5963,9.63147 6.1467,9.63147 1.3538,0 5.5047,4.20747 5.4896,5.56445 -0.01,0.51455 -2.6089,2.14418 -5.7848,3.6214 -3.1759,1.47722 -7.0575,3.87507 -8.6259,5.32857 -2.7456,2.54461 -2.8282,2.89328 -2.2242,9.39265 0.3451,3.71247 1.6956,9.69511 3.0013,13.29476 1.3056,3.59964 2.6617,8.06431 3.0135,9.92149 0.6776,3.5766 9.3982,21.3224 15.4192,31.37668 14.78,24.6807 15.1956,25.05844 29.3379,26.66737 11.5304,1.31178 13.7662,2.0951 17.7697,6.2256 2.4506,2.52839 3.3812,4.64033 4.1509,9.41977 0.5457,3.38837 1.4333,7.32095 1.9725,8.73907 2.4105,6.33998 0.5574,24.80655 -3.0913,30.8064 -2.3825,3.91771 -9.2724,9.33879 -12.8745,10.12995 -2.7155,0.59642 -2.851,0.9036 -3.2277,7.3172 -0.3499,5.95609 -0.8861,7.42422 -4.8598,13.30801 -5.4627,8.08863 -10.4122,12.48821 -16.764,14.90173 -8.0187,3.04686 -9.677,-0.64982 -2.0588,-4.58935 3.5235,-1.82206 9.8564,-14.53153 9.8564,-19.78068 0,-2.00479 -0.3701,-3.64507 -0.8224,-3.64507 -1.3551,0 -5.861,-7.53 -7.9013,-13.20427 -1.0494,-2.91847 -2.0106,-8.22892 -2.1359,-11.80102 -0.3292,-9.38693 -1.1307,-14.71996 -2.8334,-18.85515 -3.3253,-8.07559 -8.2882,-9.91607 -10.2039,-3.78411 -0.5403,1.7295 -1.4636,8.54455 -2.0519,15.14455 -1.5384,17.26086 -5.573,31.43188 -11.0822,38.9246 -1.6481,2.24147 -4.9029,6.99273 -7.2328,10.55835 -6.6759,10.21663 -13.4244,13.29814 -20.78586,9.49137 -4.5259,-2.34046 -3.8819,-3.20999 4.34486,-5.86653 2.0189,-0.65193 4.7048,-6.31279 4.7048,-9.9159 0,-1.30479 -1.3418,-4.80675 -2.9819,-7.78212 -3.7763,-6.85109 -3.9072,-11.93977 -0.4731,-18.39844 l 2.5451,-4.78655 -2.2951,-2.51682 c -1.2622,-1.38425 -4.095,-4.35982 -6.29496,-6.61239 -2.2,-2.25256 -5.5595,-7.02057 -7.4655,-10.59557 -3.1718,-5.94893 -3.4992,-7.36531 -3.8618,-16.7065 l -0.3963,-10.20651 7.9894,-8.34239 c 7.04666,-7.35811 8.26296,-9.19215 10.30886,-15.54454 2.2578,-7.01002 2.2742,-7.32883 0.6175,-11.9511 -0.9361,-2.61193 -1.6999,-6.18931 -1.6971,-7.94974 0.01,-5.81471 -2.166,-13.72828 -5.10206,-18.56424 -1.5911,-2.62077 -2.893,-5.20827 -2.893,-5.75 0,-2.70764 -10.69,1.52667 -14.0376,5.56031 -2.1492,2.5896 -6.2762,1.76912 -8.2124,-1.63265 -2.1154,-3.71679 -2.1642,-4.91289 -0.35,-8.5816 1.9297,-3.90241 3.6,-9.54053 3.6,-12.15204 0,-3.95396 -3.3154,-2.33563 -9.9217,4.84296 -3.5319,3.83792 -6.7468,6.97804 -7.1442,6.97804 -0.3974,0 -2.1678,1.35 -3.9341,3 -1.7663,1.65 -3.8044,3 -4.529,3 -0.7247,0 -2.6668,1.13535 -4.316,2.523 l -2.9984,2.52301 -3.7178,-2.52301 c -6.4929,-4.4062 -10.3905,-3.13108 -11.1548,3.64936 -0.4195,3.722 -0.087,4.90883 2.1089,7.51803 1.4339,1.70408 2.6071,3.51742 2.6071,4.02965 0,0.51223 1.1078,1.9721 2.4619,3.24415 2.1507,2.02047 2.386,2.89575 1.8618,6.92432 -0.7782,5.98103 -1.7783,7.11149 -6.2912,7.11149 -4.3998,0 -7.5505,2.79249 -6.5846,5.83596 0.3455,1.0886 1.3171,2.24363 2.1591,2.56673 1.9359,0.74286 1.361,2.84991 -3.3899,12.42532 -2.7903,5.62377 -3.5631,8.29825 -3.3229,11.5 0.3651,4.86584 0.3399,5.69514 -0.4797,15.77467 -0.6636,8.16119 0.3272,11.54357 4.4831,15.30467 1.1563,1.04644 2.1024,2.70398 2.1024,3.68342 0,0.97943 -3.3929,4.84719 -7.5398,8.59501 -9.1916,8.30706 -13.0138,15.07786 -11.9768,21.21597 0.5774,3.41786 0.1621,4.9072 -2.8912,10.36692 -4.2751,7.64467 -4.5381,10.79644 -1.7569,21.05603 1.1666,4.30358 2.5737,11.27858 3.1268,15.5 1.2032,9.18193 7.2964,27.58301 12.8292,38.74337 5.0488,10.18393 9.8098,15.43193 14.0001,15.43193 1.7503,0 4.2625,1.01097 5.8819,2.36702 1.5547,1.30187 5.9767,4.28434 9.8267,6.62771 3.85,2.34338 9.3252,5.79722 12.1671,7.6752 3.4689,2.2923 7.1771,3.7382 11.2828,4.39941 21.3652,3.44076 29.15016,16.03832 23.9434,38.7446 -1.2217,5.32734 -2.9044,10.81106 -3.7394,12.18606 -1.9223,3.16544 -6.302,8 -7.2473,8 -0.3956,0 -0.6489,-4.4061 -0.5629,-9.79134 l 0.1563,-9.79134 -5.2938,-6.45866 c -8.0435,-9.81344 -8.8384,-10.5602 -14.8573,-13.95704 -9.1595,-5.16927 -14.5375,-1.97012 -6.1902,3.68228 6.3204,4.27987 7.9809,7.16345 8.9085,15.46988 0.4511,4.04042 1.295,9.14622 1.8751,11.34622 7.3716,27.9535 7.7791,45.5605 1.2003,51.8634 -3.3442,3.204 -9.1426,4.6758 -9.1426,2.3206 z M 1079.814,738.8997 c 1.4238,-1.57331 1.758,-3.48518 1.613,-9.22894 -0.1573,-6.23411 -0.672,-8.11919 -3.6898,-13.5156 -2.4671,-4.41161 -4.0957,-6.27107 -5.4925,-6.27107 -1.8065,0 -1.9301,0.47318 -1.3712,5.25 0.3379,2.8875 1.0284,6.55465 1.5345,8.14922 0.506,1.59458 0.9201,5.33666 0.9201,8.31574 0,8.58279 2.6381,11.55234 6.4859,7.30065 z m -61.4859,-32.86892 c 0,-9.24507 -1.2104,-17.14669 -2.6267,-17.14669 -0.738,0 -2.7261,1.2375 -4.418,2.75 -4.4055,3.93834 -4.2356,7.62096 0.6473,14.02475 5.0011,6.55884 6.3974,6.64002 6.3974,0.37194 z M 896.32814,225.50424 c 0,-1.7124 -1.5305,-3.5354 -5.4571,-6.5 -9.7546,-7.36478 -10.1121,-4.1687 -0.6858,6.12985 3.1805,3.47478 6.1429,3.65328 6.1429,0.37015 z m 69,-77.87199 c 0,-0.68852 -3.428,-4.62602 -7.6178,-8.75 -4.1898,-4.12399 -10.6529,-11.09816 -14.3624,-15.49816 -12.9741,-15.38921 -20.964,-21.41505 -22.6318,-17.06861 -0.5796,1.51023 1.8205,5.3591 7.612,12.20706 3.7999,4.49308 5.9583,7.64924 11.5308,16.86155 3.2809,5.42371 4.3661,6.35512 11.2993,9.69737 7.7598,3.7407 14.1699,4.89461 14.1699,2.55079 z m 114.67646,-3.35393 c -0.7811,-4.81344 -3.1434,-8.22232 -6.2357,-8.99845 -1.3937,-0.34978 -2.7502,-0.41968 -3.0146,-0.15531 -0.2644,0.26436 0.9333,3.2434 2.6616,6.62009 2.2774,4.44967 3.697,6.13944 5.158,6.13944 1.7566,0 1.9406,-0.46371 1.4307,-3.60577 z m -13.6765,-19.50291 c 0,-2.69876 -2.2885,-6.90431 -5.2748,-9.6933 -2.4483,-2.2866 -2.4684,-2.28815 -3.0061,-0.23181 -0.5469,2.09117 3.4856,10.91192 5.5855,12.21781 1.5701,0.9764 2.6954,0.0192 2.6954,-2.2927 z m -88.99996,-11.50389 c 0,-1.8959 -11.6612,-13.74457 -12.381,-12.57998 -0.7979,1.291 5.0849,11.87177 7.5673,13.61051 2.3037,1.61352 4.8137,1.07616 4.8137,-1.03053 z m 35.99996,-9.2617 c 0,-0.48085 -0.675,-2.78743 -1.5,-5.12573 -0.825,-2.3383 -1.5,-6.01729 -1.5,-8.17553 0,-4.94571 -4.897,-16.62476 -7.298,-17.40524 -3.62666,-1.17893 -4.93136,1.44445 -4.49356,9.03535 0.453,7.85387 2.52226,12.11994 9.08366,18.72696 3.6734,3.69895 5.7079,4.74835 5.7079,2.94419 z"
     id="path2987"
     inkscape:connector-curvature="0" />
</svg>
