<?xml version="1.0" encoding="UTF-8" standalone="no"?>
<!-- Created with Inkscape (http://www.inkscape.org/) -->

<svg
   xmlns:dc="http://purl.org/dc/elements/1.1/"
   xmlns:cc="http://creativecommons.org/ns#"
   xmlns:rdf="http://www.w3.org/1999/02/22-rdf-syntax-ns#"
   xmlns:svg="http://www.w3.org/2000/svg"
   xmlns="http://www.w3.org/2000/svg"
   xmlns:sodipodi="http://sodipodi.sourceforge.net/DTD/sodipodi-0.dtd"
   xmlns:inkscape="http://www.inkscape.org/namespaces/inkscape"
   id="svg2"
   version="1.1"
   inkscape:version="0.48.2 r9819"
   width="769.26117"
   height="696.00378"
   sodipodi:docname="fieldbookofins00lutz_0473b.png">
  <metadata
     id="metadata8">
    <rdf:RDF>
      <cc:Work
         rdf:about="">
        <dc:format>image/svg+xml</dc:format>
        <dc:type
           rdf:resource="http://purl.org/dc/dcmitype/StillImage" />
        <dc:title></dc:title>
      </cc:Work>
    </rdf:RDF>
  </metadata>
  <defs
     id="defs6" />
  <sodipodi:namedview
     pagecolor="#ffffff"
     bordercolor="#666666"
     borderopacity="1"
     objecttolerance="10"
     gridtolerance="10"
     guidetolerance="10"
     inkscape:pageopacity="0"
     inkscape:pageshadow="2"
     inkscape:window-width="1920"
     inkscape:window-height="1176"
     id="namedview4"
     showgrid="false"
     fit-margin-top="0"
     fit-margin-left="0"
     fit-margin-right="0"
     fit-margin-bottom="0"
     inkscape:zoom="1"
     inkscape:cx="402.81798"
     inkscape:cy="340.78148"
     inkscape:window-x="0"
     inkscape:window-y="24"
     inkscape:window-maximized="1"
     inkscape:current-layer="svg2" />
  <path
     style="fill:#000000"
     d="m 670.21628,694.84168 c -4.648,-1.26847 -7.3983,-3.21714 -7.3983,-5.24183 0,-0.75766 0.9375,-1.37756 2.0833,-1.37756 3.72,0 1.4577,-2.30435 -5.9558,-6.06638 -6.0288,-3.05939 -7.9774,-3.59215 -11.6318,-3.18025 -3.8832,0.4377 -4.975,0.0651 -9.4622,-3.22879 -2.9856,-2.19162 -5.7054,-3.48071 -6.6109,-3.13327 -1.9806,0.76003 -9.0554,-2.83666 -10.3545,-5.26401 -0.6892,-1.28789 -2.4814,-2.01851 -5.7834,-2.35778 -2.6316,-0.27038 -7.3434,-1.67913 -10.4706,-3.13056 -3.1273,-1.45143 -6.0098,-2.63896 -6.4056,-2.63896 -0.3959,0 -2.1122,-1.04599 -3.8141,-2.32443 -1.7019,-1.27844 -5.3444,-2.92975 -8.0944,-3.66958 -2.75,-0.73983 -6.272,-2.39384 -7.8267,-3.67557 -1.5547,-1.28173 -3.4733,-2.33042 -4.2636,-2.33042 -0.7903,0 -2.2182,-0.3975 -3.1733,-0.88333 -0.955,-0.48583 -2.8614,-1.3325 -4.2364,-1.8815 -4.7873,-1.91144 -12.4397,-5.75336 -16.9008,-8.48517 -6.1038,-3.73775 -12.6502,-3.70097 -8.8992,0.05 1.6142,1.61415 -0.1435,3.29448 -2.7173,2.59779 -2.2284,-0.60321 -8.0787,-9.53325 -10.7323,-16.38212 -0.9623,-2.48362 -2.5996,-6.31567 -3.6385,-8.51567 -3.4665,-7.34096 -5.1119,-11.55381 -5.1119,-13.08874 0,-0.83649 -1.2952,-4.56455 -2.8782,-8.28459 -1.583,-3.72004 -3.3874,-9.13811 -4.0098,-12.04015 -0.6224,-2.90204 -1.7833,-6.20692 -2.5799,-7.34416 -0.7966,-1.13725 -2.1909,-4.58202 -3.0986,-7.65504 -0.9077,-3.07303 -2.9374,-9.41232 -4.5105,-14.08732 -2.685,-7.97959 -3.0203,-8.48155 -5.4773,-8.19871 -1.4394,0.16571 -3.1411,-0.12714 -3.7814,-0.65078 -1.7977,-1.47005 -17.2049,-5.87478 -26.6643,-7.62299 -19.2075,-3.54977 -31.1301,-6.03159 -34.5,-7.18152 -0.55,-0.18768 -3.025,-0.74407 -5.5,-1.23642 -2.475,-0.49235 -5.85,-1.37053 -7.5,-1.95151 -9.71648,-3.42127 -15.40849,-5.15807 -16.90455,-5.15807 -0.93457,0 -3.36337,-0.8989 -5.39733,-1.99755 -2.03397,-1.09865 -5.27312,-2.6491 -7.19812,-3.44545 -1.925,-0.79634 -4.625,-2.12241 -6,-2.94682 -1.375,-0.82441 -4.17656,-1.7673 -6.22569,-2.09531 -4.62272,-0.73996 -11.58394,-5.94765 -13.69093,-10.24216 -1.52314,-3.10451 -1.81482,-3.22816 -7.66671,-3.25 -3.34584,-0.0125 -6.36436,-0.30373 -6.70784,-0.64721 -0.60569,-0.60569 -13.54446,-5.2476 -14.86521,-5.33304 -0.36101,-0.0234 -0.44222,0.77648 -0.18048,1.7774 0.62136,2.37606 -0.74125,3.38277 -9.16314,6.76986 -6.22308,2.50278 -8.05439,2.78604 -16.5,2.55218 -6.83957,-0.1894 -9.81092,-0.66617 -10.61024,-1.70248 -1.44997,-1.87987 -2.48328,-1.8467 -1.75305,0.0563 0.48614,1.26684 -0.3984,1.40545 -5.78138,0.90594 -3.49543,-0.32436 -9.05533,-1.0422 -12.35533,-1.59521 -3.3,-0.553 -8.475,-1.36544 -11.5,-1.80541 -3.025,-0.43996 -7.525,-1.32621 -10,-1.96943 -2.475,-0.64322 -5.625,-1.40449 -7,-1.69172 -1.375,-0.28722 -3.91801,-1.15619 -5.65113,-1.93104 -3.82613,-1.71063 -6.34887,-1.80992 -6.34887,-0.24992 0,0.6374 -2.8125,3.91054 -6.25,7.27364 -8.28062,8.10138 -19.29449,20.1287 -24.25,26.48139 -6.15979,7.8965 -6.4012,8.08574 -10.32143,8.09067 -2.71774,0.003 -4.52745,0.80024 -6.92857,3.05068 -1.7875,1.67534 -3.25,3.40805 -3.25,3.85048 0,0.44244 -2.5875,2.63322 -5.75,4.86842 -3.1625,2.2352 -6.57244,5.04634 -7.57764,6.247 -1.37866,1.64673 -2.59999,2.06964 -4.97167,1.72155 -2.40883,-0.35354 -4.7291,0.48796 -9.92236,3.59858 -3.72808,2.23301 -6.77833,4.39866 -6.77833,4.81255 0,0.41388 -1.9125,1.68953 -4.25,2.83477 -8.65946,4.24262 -11.75,6.04839 -11.75,6.86538 0,0.46107 -2.58321,3.46309 -5.74046,6.67115 -8.00663,8.13549 -10.45382,15.87741 -6.12642,19.38152 1.80548,1.46199 1.95367,2.0626 0.96482,3.91029 -0.64257,1.20065 -1.81164,2.183 -2.59794,2.183 -0.7863,0 -1.89499,0.86952 -2.46375,1.93228 -2.32837,4.35059 -8.8988,3.26397 -11.47003,-1.89692 -1.34399,-2.69759 -1.42476,-9.03325 -0.16362,-12.83335 0.47862,-1.44217 0.28637,-2.87185 -0.5162,-3.8389 -1.05336,-1.2692 -1.02384,-1.50434 0.16738,-1.33352 2.98945,0.42866 4.02233,-0.0996 4.94622,-2.52959 0.52277,-1.375 1.41164,-2.5 1.97525,-2.5 0.56361,0 1.02475,-0.92158 1.02475,-2.04797 0,-2.11828 4.59068,-6.86475 6.6933,-6.92043 0.65631,-0.0174 1.79596,-0.89203 2.53255,-1.94366 1.58719,-2.26603 11.80227,-10.08794 13.17441,-10.08794 0.52475,0 2.11186,-1.3114 3.52691,-2.91423 1.58036,-1.79007 5.71378,-4.13686 10.71528,-6.08371 4.47835,-1.74322 9.08788,-4.25682 10.24339,-5.58577 1.15551,-1.32896 2.7216,-2.41629 3.48019,-2.41629 0.75859,0 3.34585,-2.1375 5.74947,-4.75 4.57192,-4.96922 9.64636,-8.82876 13.56843,-10.31993 1.40477,-0.53409 2.31607,-1.70535 2.31607,-2.97675 0,-2.87197 1.97487,-4.61002 8.53443,-7.51097 3.60896,-1.59605 7.99718,-4.8627 12.36943,-9.20797 3.72691,-3.70391 7.86068,-7.68604 9.18617,-8.84917 1.32548,-1.16314 3.98497,-4.19674 5.90997,-6.74133 1.925,-2.5446 4.5125,-4.90423 5.75,-5.24362 1.2375,-0.33939 2.25,-0.98641 2.25,-1.43782 0,-0.45141 2.1375,-2.27735 4.75,-4.05764 5.27362,-3.59371 8.29901,-3.84086 16.6815,-1.36272 2.71233,0.80186 6.53733,1.46279 8.5,1.46874 1.96268,0.006 5.7513,0.67307 8.41916,1.48247 5.79361,1.75772 18.89168,3.09265 16.64934,1.69686 -0.825,-0.51353 -3.12572,-1.2252 -5.11271,-1.58148 -1.98699,-0.35628 -4.34719,-1.45937 -5.24488,-2.45131 -2.16287,-2.38994 -3.20272,-10.2419 -1.72261,-13.0075 1.03553,-1.93491 0.89912,-2.14986 -1.36429,-2.14986 -1.90545,0 -2.97005,-0.90871 -4.39329,-3.75 -1.03313,-2.0625 -2.15712,-4.91287 -2.49775,-6.33414 -0.59211,-2.47061 -0.86437,-2.56383 -6.19663,-2.12164 -9.51552,0.78911 -24.65221,-2.15459 -28.67697,-5.57692 -1.5433,-1.3123 -2.49837,-0.74066 -9.84345,5.89156 -4.47387,4.03968 -9.02291,8.59278 -10.10896,10.118 -1.08606,1.52523 -2.61901,2.77314 -3.40655,2.77314 -0.78755,0 -1.43191,0.43844 -1.43191,0.97432 0,0.53588 -1.34112,1.66784 -2.98026,2.51547 -2.94427,1.52254 -13.87266,11.8791 -19.35489,18.34215 -2.68346,3.16355 -2.9207,3.24649 -4.69452,1.64121 -1.77163,-1.60331 -2.09059,-1.50833 -6.16928,1.83709 -2.36558,1.94029 -6.28843,5.36425 -8.71744,7.60878 -2.42901,2.24454 -4.79151,4.08098 -5.25,4.08098 -0.45849,0 -0.83361,0.62325 -0.83361,1.38499 0,2.09967 -4.66856,4.736 -7.24558,4.09158 -1.68138,-0.42045 -3.78981,0.65471 -8.2949,4.22984 -3.32226,2.63648 -7.67088,5.63101 -9.66359,6.65453 -1.99272,1.02351 -6.63989,4.53887 -10.32705,7.81189 -3.83588,3.40504 -7.29787,5.72303 -8.09225,5.4182 -0.85929,-0.32974 -2.33746,0.97076 -3.87906,3.41281 -1.36989,2.17006 -3.60776,4.67748 -4.97302,5.57203 -3.18137,2.08452 -9.770442,11.21726 -8.996492,12.46953 0.32449,0.52503 -0.0591,0.9546 -0.85241,0.9546 -1.5376,0 -2.62615,2.67967 -1.92956,4.75 0.23132,0.6875 1.39558,1.25689 2.58724,1.26531 5.478822,0.0387 6.157292,4.15648 1.16667,7.08069 -4.40462,2.58085 -5.99443,2.30669 -10.4662,-1.80485 -7.56252,-6.95332 -5.51991,-12.54997 10.6325,-29.13253 3.933022,-4.03776 7.655712,-7.86276 8.272652,-8.5 4.11475,-4.25016 9.69156,-8.83612 16.00171,-13.15862 4.01456,-2.75 8.45311,-6.07493 9.86345,-7.38873 1.41034,-1.3138 5.37007,-3.70172 8.79939,-5.3065 3.42932,-1.60477 8.63393,-5.1544 11.56581,-7.88807 2.93188,-2.73367 6.45569,-5.81898 7.83069,-6.85625 9.29447,-7.01149 12.04265,-8.93364 16.38765,-11.46198 2.6882,-1.56426 7.66024,-5.71384 11.04896,-9.22129 3.38873,-3.50745 6.86148,-6.37718 7.71724,-6.37718 0.85575,0 3.75872,-2.02832 6.45103,-4.50737 2.69232,-2.47905 5.57804,-5.06655 6.41273,-5.75 6.80856,-5.57491 10.00697,-7.74263 11.42404,-7.74263 0.90962,0 2.79861,-1.23521 4.19776,-2.74492 2.10944,-2.27613 3.33948,-2.72868 7.20225,-2.6498 7.56149,0.1544 25.5191,4.03179 30.50572,6.58676 2.45872,1.25977 3.36522,0.17866 1.86477,-2.22395 -0.66668,-1.06752 -1.22026,-2.95956 -1.23018,-4.20452 -0.0193,-2.42118 -5.87657,-7.96057 -9.70086,-9.17435 -1.2063,-0.38286 -3.29392,-2.00416 -4.63915,-3.60288 -2.39087,-2.84139 -18.46524,-12.98634 -20.57646,-12.98634 -0.58602,0 -1.0655,-0.39873 -1.0655,-0.88606 0,-0.48733 -1.4625,-1.61806 -3.25,-2.51272 -5.49493,-2.75028 -11.11393,-5.99901 -14.25353,-8.24095 -4.00606,-2.86067 -12.62169,-7.74333 -20.09011,-11.38552 -3.35151,-1.63445 -6.90875,-3.87241 -7.90499,-4.97324 -0.99624,-1.10083 -2.61504,-2.00151 -3.59734,-2.00151 -0.9823,0 -2.05619,-0.43719 -2.38643,-0.97153 -0.33024,-0.53434 -2.70356,-1.90183 -5.27403,-3.03888 -2.57048,-1.13704 -4.91434,-2.40903 -5.20858,-2.82665 -0.9689,-1.37513 -6.61387,-5.01825 -13.12663,-8.47156 -15.21149,-8.06573 -20.56876,-11.04125 -23.06273,-12.80945 -1.4599,-1.03506 -3.11474,-1.88193 -3.67742,-1.88193 -0.56268,0 -1.90797,-1.125 -2.98955,-2.5 -1.08158,-1.375 -2.27342,-2.5 -2.64854,-2.5 -1.22019,0 -11.78492,-8.55899 -23.030122,-18.65779 -21.43473,-19.24955 -42.08672,-42.23532 -55.26089,-61.50564 -2.88151,-4.21488 -5.23911,-8.08264 -5.23911,-8.59501 0,-0.51237 -0.9,-1.74607 -2,-2.74156 -1.1,-0.99549 -2,-2.41523 -2,-3.15499 0,-0.73975 -0.45,-1.34501 -1,-1.34501 -0.55,0 -1,-0.675 -1,-1.5 0,-0.825 -0.9,-2.4 -2,-3.5 -1.1,-1.1 -2.00193,-2.5625 -2.00428,-3.25 -0.002,-0.6875 -1.35043,-3.275 -2.99572,-5.75 -1.64529,-2.475 -2.99336,-5.13957 -2.99572,-5.92126 -0.002,-0.78169 -0.64153,-2.13169 -1.42039,-3 -1.80133,-2.00819 -9.5838901,-24.9761 -9.5838901,-28.28397 0,-1.36812 -0.66449,-3.8195 -1.47665,-5.4475 -0.81215,-1.62801 -1.89588,-5.85964 -2.40827,-9.40364 -0.5124,-3.544 -1.4229,-7.71042 -2.02335,-9.25873 -1.36069996,-3.50865 -1.41512996,-8.36699 -0.10285,-9.17803 0.61834,-0.38215 0.46758,-1.43472 -0.40235,-2.80902 -1.83690996,-2.90193 -1.86929996,-9.6929 -0.11302,-23.69785 0.79318,-6.325 1.67918,-14.2 1.9689,-17.5 0.28971,-3.3 0.83166,-9.375 1.20432,-13.5 0.67284,-7.44766 2.4169,-13.303257 4.31094,-14.473837 0.85297,-0.52716 3.1927901,-7.05244 3.5951601,-10.02616 0.32423,-2.39623 2.48497,-6.5 3.42242,-6.5 0.56361,0 1.02475,-0.81 1.02475,-1.8 0,-0.99 0.41294,-2.2275 0.91765,-2.75 0.50471,-0.5225 2.36298,-3.65 4.12949,-6.95 1.76652,-3.3 4.27857,-7.030711 5.58235,-8.290469 1.30378,-1.259758 2.37051,-2.616969 2.37051,-3.016025 0,-0.399056 2.22298,-2.180845 4.93995,-3.959531 5.4826,-3.589221 10.27799,-4.170478 13.83754,-1.677271 2.18882,1.533104 2.22251,1.494318 2.22251,-2.558447 0,-6.558473 2.07852,-18.360992 3.52185,-19.998257 0.72728,-0.825 1.63859,-2.85 2.02513,-4.5 1.05833,-4.517572 9.35722,-18.2072108 12.14477,-20.0336798 2.59303,-1.699019 7.25416,-2.235817 9.16414,-1.055386 1.90854,1.179547 1.2838,6.262614 -1.1384,9.262341 -3.8781,4.8027538 -7.71749,11.2059808 -7.71749,12.8710258 0,0.87295 -0.48296,2.489606 -1.07325,3.592568 -0.59029,1.102963 -1.71314,4.462104 -2.49524,7.464759 -0.78209,3.002654 -2.32604,7.23148 -3.43101,9.39739 -2.27086,4.451261 -5.05969,14.517191 -5.67991,20.500982 -2.78879,26.90557 -2.14642,61.819507 1.37071,74.499997 0.83903,3.025 2.19146,8.875 3.00539,13 0.81393,4.125 2.39206,10.2 3.50695,13.5 1.11489,3.3 2.39527,7.8 2.84527,10 1.28103,6.2627 4.95215,13.68752 7.03724,14.23278 1.36186,0.35613 1.64662,0.92232 1.0237,2.03542 -1.15459,2.06313 0.53162,7.99192 3.33664,11.7318 1.23755,1.65 2.83228,4.8 3.54384,7 0.71156,2.2 2.51046,5.8 3.99755,8 1.48709,2.2 5.28284,8.05 8.43499,13 3.15215,4.95 9.521522,14.81861 14.154152,21.93025 4.63264,7.11164 8.42298,13.10556 8.42298,13.31982 0,0.8129 6.62136,10.04599 12.44271,17.35062 3.33151,4.18038 7.40729,9.31123 9.05729,11.40189 1.65,2.09066 3.29295,4.83678 3.65099,6.10249 0.53377,1.88688 5.25696,8.26137 10.34901,13.96715 0.55,0.6163 3.7,4.22306 7,8.01504 3.3,3.79198 10.5,11.41785 16,16.94637 5.5,5.52852 14.275,14.4898 19.5,19.91396 11.10822,11.53163 23.45833,22.03187 34.17072,29.05241 4.19612,2.75 8.1563,5.9 8.80039,7 2.17794,3.71957 12.82074,11.51788 22.77889,16.6908 2.3375,1.21425 4.25,2.56806 4.25,3.00847 0,0.4404 0.89085,0.80073 1.97968,0.80073 1.29432,0 2.66834,-1.3499 3.96891,-3.89923 1.09408,-2.14457 3.49661,-4.83084 5.33896,-5.96947 2.8827,-1.78161 3.89783,-1.92238 7.28109,-1.00968 2.16225,0.58331 5.41463,2.47798 7.22752,4.21037 3.71152,3.54674 8.20384,10.71799 8.20384,13.09608 0,2.21496 1.80714,1.95478 5.40561,-0.77826 1.70191,-1.29261 5.33878,-3.33959 8.08193,-4.54885 2.74315,-1.20926 5.93815,-3.0917 7.1,-4.1832 2.51328,-2.3611 2.45064,-3.81639 -1.28762,-29.91776 -4.18354,-29.21036 -5.00509,-34.32326 -6.24302,-38.85333 -0.6543,-2.39433 -1.80715,-9.81933 -2.56188,-16.5 -0.75474,-6.68067 -1.87155,-15.52167 -2.48181,-19.64667 -3.28788,-22.22408 -4.20488,-27.9433 -5.20176,-32.44279 -0.6023,-2.71853 -1.27166,-7.21853 -1.48747,-10 -0.44329,-5.71354 -0.88345,-8.73242 -2.90402,-19.91768 -0.78098,-4.32326 -1.41996,-9.57441 -1.41996,-11.66923 0,-2.09482 -0.65882,-6.43261 -1.46405,-9.63953 -0.80523,-3.20692 -1.91828,-11.00577 -2.47345,-17.33077 -0.55516,-6.325 -1.46683,-14.2 -2.02592,-17.5 -1.42705,-8.42306 -4.16765,-29.12483 -4.56727,-34.5 -0.60705,-8.16516 -0.45203,-78.251827 0.1823,-82.418257 0.34179,-2.24496 1.06034,-4.638509 1.59679,-5.319005 0.53644,-0.680496 0.75361,-1.815124 0.48258,-2.521397 -1.10838,-2.888412 5.61996,-24.174209 8.76891,-27.741338 1.21381,-1.375 2.47599,-3.267235 2.80485,-4.204967 0.87672,-2.499931 9.57115,-8.497976 14.19772,-9.794616 5.02874,-1.409349 11.75112,-0.05027 15.04163,3.041006 2.41517,2.26893 2.47484,2.269213 10.95591,0.05201 5.90618,-1.544052 10.37122,-1.319183 14.93428,0.75212 2.23614,1.015053 5.23744,2.325434 6.66954,2.911956 1.58991,0.651154 5.77589,5.602564 10.75,12.7157 4.4804,6.407113 8.14618,11.848021 8.14618,12.090907 0,0.242887 3.36419,3.637268 7.47599,7.543069 7.35683,6.988275 11.33469,12.465535 24.7185,34.035865 0.93198,1.50203 2.18171,4.540317 2.77718,6.751737 0.59547,2.21142 1.52045,4.29132 2.0555,4.622 0.53506,0.33069 0.97283,1.44016 0.97283,2.4655 0,1.02534 1.125,3.20125 2.5,4.83534 1.375,1.6341 2.5,3.24853 2.5,3.58762 0,0.3391 0.86257,2.52414 1.91683,4.85565 4.21917,9.3307 5.90927,13.68285 6.55707,16.88482 0.3733,1.84485 1.3046,5.15428 2.0696,7.35428 1.9033,5.47301 2.559,21.17002 0.9405,22.51325 -0.6751,0.56032 -1.4984,2.69907 -1.8295,4.75276 -0.6813,4.22628 -4.4158,16.84055 -5.76419,19.47042 -0.48967,0.95504 -0.89031,2.40227 -0.89031,3.21607 0,0.81381 -0.63846,2.95741 -1.41879,4.76357 -0.78034,1.80616 -2.29718,5.30893 -3.37076,7.78393 -1.07358,2.475 -2.98294,7.425 -4.24302,11 -1.26008,3.575 -2.66823,6.9275 -3.12924,7.45 -0.461,0.5225 -0.83819,1.65416 -0.83819,2.51481 0,0.86064 -0.83094,3.13314 -1.84653,5.05 -2.3942,4.51887 -3.48358,8.98519 -2.19157,8.98519 0.55,0 1.30475,-1.2375 1.67724,-2.75 0.37248,-1.5125 1.23688,-3.65 1.92089,-4.75 0.684,-1.1 1.54175,-3.43141 1.90609,-5.1809 0.36434,-1.7495 1.30851,-3.7171 2.09816,-4.37245 0.78965,-0.65535 1.43792,-1.69894 1.4406,-2.31909 0.005,-1.20521 5.17612,-11.60098 10.26022,-20.62756 4.6021,-8.17081 7.7464,-12 9.8536,-12 1.0347,0 1.8813,-0.45 1.8813,-1 0,-1.83729 4.6958,-1.02852 9.624,1.65758 6.6765,3.63892 8.8291,5.74818 10.8659,10.64731 0.9593,2.30731 2.8049,6.44511 4.1015,9.19511 8.5987,18.23839 11.838,32.82724 12.8785,58 0.2727,6.6 0.7578,13.125 1.0779,14.5 0.6345,2.72595 0.7165,18.55351 0.1228,23.71634 -0.2034,1.76898 -0.9426,3.90648 -1.6427,4.75 -1.0167,1.2251 -1.0223,1.83544 -0.028,3.03366 1.349,1.62533 0.3041,3.65296 -3.25,6.3067 -0.9625,0.71869 -1.756,2.29369 -1.7633,3.5 -0.01,1.20632 -1.3878,6.0183 -3.0676,10.6933 -1.6797,4.675 -3.3137,9.4 -3.631,10.5 -0.3173,1.1 -0.9912,2.53135 -1.4975,3.18078 -0.5063,0.64943 -2.041,7.5848 -3.4104,15.41193 -1.3695,7.82713 -3.3652,16.0428 -4.4351,18.25705 -1.0698,2.21424 -1.9451,4.62248 -1.9451,5.35164 0,0.72915 -0.4015,2.10713 -0.8924,3.06217 -0.4908,0.95504 -1.4086,2.86143 -2.0395,4.23643 -3.1415,6.84591 -9.4661,15.37749 -14.3226,19.32027 -10.39222,8.43707 -24.72629,13.25596 -41.5442,13.96651 -6.21431,0.26255 -11.49993,0.67855 -11.74582,0.92444 -1.12859,1.12859 5.20984,11.59504 7.68553,12.69089 1.57794,0.69846 5.62446,5.46598 9.92501,11.69344 5.53658,8.01728 8.11262,10.87372 10.84745,12.02816 4.40236,1.85834 5.10856,1.46978 11.58657,-6.37521 9.85536,-11.93491 16.50006,-21.94249 16.50006,-24.85057 0,-0.76886 0.3684,-1.39793 0.8186,-1.39793 0.4503,0 2.5477,-3.2625 4.6609,-7.25 2.1132,-3.9875 5.0073,-9.01726 6.4314,-11.17724 1.424,-2.15998 3.7331,-6.02016 5.1314,-8.57816 1.3982,-2.55801 3.5766,-5.96575 4.8408,-7.57276 1.2643,-1.60701 2.9318,-4.27184 3.7057,-5.92184 4.4986,-9.59146 11.96,-15.63304 20.9112,-16.93219 4.8896,-0.70965 12.4947,-3.75768 15.5151,-6.21825 1.6655,-1.35687 15.103,-8.30092 16.121,-8.33085 0.9555,-0.0281 12.7502,-8.02562 13.4095,-9.09249 0.3149,-0.50942 1.4647,-0.92622 2.5553,-0.92622 1.0905,0 2.9675,-0.91741 4.171,-2.0387 1.2036,-1.12128 3.3223,-2.31557 4.7082,-2.65397 1.386,-0.3384 2.7449,-0.8839 3.0199,-1.21223 1.4684,-1.75308 10.2075,-5.0627 15,-5.68068 3.025,-0.39007 5.7392,-1.0728 6.0315,-1.51718 0.749,-1.13878 12.8926,-1.82909 13.5471,-0.7701 0.8289,1.34118 4.7784,1.03947 8.892,-0.67927 3.7631,-1.57235 18.4395,-2.94164 27.0294,-2.52182 1.1,0.0538 3.6937,-0.18256 5.7638,-0.52516 2.3374,-0.38684 4.3115,-0.16834 5.209,0.57655 0.795,0.6597 2.7012,0.95089 4.2363,0.64707 1.7718,-0.35068 4.069,0.15222 6.2909,1.37726 3.3333,1.83771 9.7479,4.96294 18.5,9.01329 6.2285,2.88244 21.8137,8.98425 22.9651,8.9911 0.5692,0.003 2.1599,0.59302 3.5349,1.3103 1.375,0.71727 4.8622,2.15327 7.7493,3.19111 7.6302,2.74289 15.8949,9.54412 17.1584,14.12015 0.5595,2.02651 2.1038,4.85181 3.4316,6.27843 1.3278,1.42662 3.6388,4.84385 5.1356,7.59385 1.4967,2.75 3.7145,6.35 4.9284,8 1.2139,1.65 3.4339,5.12922 4.9333,7.73161 1.4994,2.60238 3.5605,5.17812 4.5802,5.72385 1.0197,0.54574 2.828,2.86083 4.0184,5.14465 1.9396,3.72121 2.2098,6.12001 2.6017,23.10078 0.2405,10.42161 0.6932,19.36227 1.0058,19.86812 0.3126,0.50586 0.6118,4.11338 0.6647,8.01671 0.088,6.45869 -0.1352,7.29111 -2.4785,9.25562 -1.7897,1.50036 -2.7599,3.53097 -3.1815,6.65866 -0.3336,2.475 -0.9307,6.9596 -1.327,9.96577 -0.6279,4.76404 -1.1671,5.76612 -4.2001,7.80516 -3.3637,2.26136 -6.2117,8.15466 -5.2848,10.93546 0.2138,0.64138 -0.7642,1.92158 -2.1734,2.84489 -1.5568,1.02008 -2.5621,2.60886 -2.5621,4.04938 0,2.2272 -0.9392,6.91208 -3.1383,15.65338 -0.543,2.15868 -1.9892,4.43866 -3.403,5.36501 -2.2449,1.47088 -2.6685,1.47347 -4.8718,0.0298 -1.3272,-0.86961 -2.7047,-2.90878 -3.0611,-4.53147 -0.9966,-4.53762 -3.1841,-4.65575 -3.8949,-0.21035 -0.7541,4.71566 -4.0092,7.97354 -6.4394,6.44494 -0.9397,-0.59106 -1.9429,-2.90107 -2.2573,-5.19748 -0.3112,-2.27346 -1.5085,-5.15078 -2.6606,-6.39404 -2.1789,-2.35132 -3.6374,-6.95654 -4.734,-14.94726 -0.3537,-2.57773 -1.7448,-6.31021 -3.0913,-8.29441 -1.7359,-2.55788 -2.4501,-4.97688 -2.4544,-8.31323 0,-2.58807 -0.5866,-5.83059 -1.2961,-7.20559 -3.7875,-7.34061 -5.9203,-14.24147 -5.3973,-17.46395 0.3835,-2.3633 0.089,-3.7978 -0.9578,-4.66661 -4.8372,-4.01443 -9.3427,-14.41783 -9.3427,-21.57244 0,-2.98657 -2.6597,-6.41011 -8.354,-10.75343 -2.2743,-1.73466 -3.8012,-4.02608 -4.6116,-6.92077 -0.7684,-2.74427 -3.7402,-7.37538 -8.123,-12.65845 -3.8013,-4.58203 -6.9114,-8.68662 -6.9114,-9.12132 0,-1.5287 -9.0322,-9.79983 -15.1101,-13.8369 -3.6529,-2.42633 -8.2233,-4.48839 -11.2678,-5.08383 -9.546,-1.86699 -14.1085,-3.17141 -19.1544,-5.47625 -2.7678,-1.26425 -6.3678,-2.62156 -8,-3.01626 -1.6322,-0.39469 -5.5424,-2.00285 -8.6892,-3.57369 -7.8974,-3.94223 -10.5697,-3.7524 -30.2785,2.15085 -11.6043,3.47577 -13.74,4.06027 -20.2316,5.53701 -3.4274,0.77968 -9.0524,2.7324 -12.5,4.33937 -3.4476,1.60697 -7.7227,3.46682 -9.5002,4.133 -3.9123,1.46633 -24.4226,21.32943 -29.928,28.98371 -2.1758,3.025 -5.0828,7.525 -6.4601,10 -4.24,7.61951 -5.3568,9.48115 -5.9989,10 -0.3404,0.275 -1.7816,2.75 -3.2026,5.5 -2.6523,5.13276 -4.2482,7.31824 -11.1786,15.30788 -7.0142,8.0863 -12.8537,13.33578 -18.23468,16.39231 l -5.23467,2.97343 2.61349,3.42647 c 4.84199,6.34818 9.26096,5.40348 18.51856,-3.95892 14.0762,-14.23567 17.2518,-18.0575 25.2474,-30.38531 4.7244,-7.28428 8.5899,-13.52713 8.5899,-13.87301 0,-1.05252 9.0816,-13.48305 14.8914,-20.38285 6.0459,-7.18004 18.9352,-17.97299 23.6086,-19.76871 2.29,-0.87992 4.065,-0.86357 7.5,0.0691 8.5723,2.32747 9.0067,2.74134 26,24.77 4.125,5.34729 8.689,11.68148 10.1422,14.07599 5.3898,8.88096 21.2427,31.50552 25.233,36.01143 4.3608,4.92427 5.9221,6.97756 16.228,21.34221 3.5513,4.95 7.7345,10.38841 9.296,12.08537 4.8813,5.30491 6.5457,8.36972 5.2495,9.66598 -1.7931,1.79309 -1.4433,2.37712 3.1013,5.17705 2.3375,1.44015 6.275,4.16338 8.75,6.05163 2.475,1.88825 8.1,5.93556 12.5,8.99401 4.4,3.05845 9.669,6.79048 11.7089,8.29339 17.6581,13.00975 28.2449,20.24284 33.7698,23.07216 3.5867,1.83677 7.2317,3.97427 8.1,4.75 0.8684,0.77572 1.9692,1.41041 2.4463,1.41041 0.9361,0 5.7005,3.12408 14.5701,9.55392 3.0773,2.23083 7.8023,4.88182 10.5,5.8911 2.6977,1.00928 6.9,3.45954 9.3384,5.44502 2.4384,1.98548 4.99,3.83496 5.6701,4.10996 1.7786,0.71919 8.2009,5.92291 12.3417,10 1.9551,1.925 4.503,4.175 5.662,5 6.3021,4.48581 15.4458,13.62404 17.4924,17.4818 l 2.3435,4.41756 -2.3959,2.55032 c -2.1069,2.24269 -3.2059,2.55032 -9.1108,2.55032 -9.1562,0 -11.2422,-1.66667 -10.3258,-8.25 0.3636,-2.6125 1.1379,-4.75 1.7205,-4.75 0.5827,0 2.3215,1.20919 3.8641,2.68709 2.7664,2.65035 2.8047,2.65656 2.8047,0.45455 0,-1.2279 -1.0125,-3.22856 -2.25,-4.44591 -3.9113,-3.84764 -11.4167,-9.69575 -12.4433,-9.69575 -0.543,0 -2.0892,-1.54873 -3.436,-3.44163 -3.3424,-4.69758 -9.6598,-9.55837 -12.4227,-9.55837 -2.066,0 -9.9507,-5.90203 -17.7012,-13.25 -2.9982,-2.84253 -4.7468,-3.48717 -4.7468,-1.75 0,2.81595 -4.1223,0.32784 -22.059,-13.31426 -7.6099,-5.78784 -8.0179,-5.96278 -9.4237,-4.04032 -1.2338,1.68741 -1.7146,1.42194 -6.6735,-3.68474 -4.7851,-4.92783 -8.1437,-7.59835 -22.3438,-17.76661 -2.2,-1.57535 -6.2286,-4.10542 -8.9524,-5.62238 -2.7239,-1.51697 -6.8975,-4.47016 -9.2747,-6.56265 -2.3772,-2.09248 -5.7735,-4.53562 -7.5475,-5.4292 -1.774,-0.89357 -4.4045,-2.55883 -5.8456,-3.70058 -1.4411,-1.14175 -3.4379,-1.91842 -4.4375,-1.72593 -1.5772,0.30374 -1.3859,0.84134 1.4476,4.06853 3.1675,3.60754 3.4093,5.77814 0.6438,5.77814 -2.3172,0 -10.2164,-9.6601 -10.7975,-13.20439 -0.9215,-5.62027 -11.9875,-27.2644 -17.2362,-33.71255 -1.65,-2.02705 -4.8,-6.48495 -7,-9.90645 -4.1065,-6.38646 -5.8266,-8.86668 -23,-33.16243 -5.5,-7.78103 -10.9786,-15.80488 -12.1747,-17.83076 -1.1961,-2.02588 -2.5976,-4.16158 -3.1144,-4.74599 -0.5168,-0.58442 -2.8459,-3.85531 -5.1758,-7.26864 -2.3299,-3.41334 -4.9995,-6.61458 -5.9325,-7.11387 -3.6349,-1.94537 -9.9688,3.14119 -22.9683,18.44508 -10.2103,12.02021 -17.1656,20.80206 -16.7805,21.18717 0.5916,0.59154 7.6462,-3.75657 7.6462,-4.7127 0,-0.45539 1.2375,-1.46858 2.75,-2.25153 1.5125,-0.78294 8.0797,-4.21711 14.5939,-7.63147 7.6903,-4.03088 13.5046,-6.40462 16.5795,-6.76881 4.3088,-0.51031 5.0719,-0.26572 8.4651,2.71356 3.9201,3.44194 7.6115,9.61269 7.6115,12.72394 0,1.01191 0.4208,2.26734 0.9352,2.78984 0.5143,0.5225 1.9095,4.325 3.1003,8.45 1.1908,4.125 3.0139,10.425 4.0514,14 1.0375,3.575 2.826,10.325 3.9745,15 1.1484,4.675 2.5045,8.9275 3.0133,9.45 0.5089,0.5225 0.9253,2.21611 0.9253,3.76357 0,1.54746 0.4182,3.59496 0.9294,4.55 0.5112,0.95504 1.6775,5.76599 2.5919,10.69101 2.6984,14.53462 11.3625,36.77159 18.2287,46.78516 1.7875,2.60686 3.25,5.14843 3.25,5.64793 0,3.25706 5.6799,9.93765 13.6026,15.99904 8.4156,6.43844 11.1814,8.18554 24.3974,15.41137 3.025,1.65391 6.625,3.76152 8,4.68356 1.375,0.92205 5.65,2.92362 9.5,4.44794 9.7878,3.87528 11.9576,5.15772 12.2887,7.26321 0.3542,2.25279 27.4138,16.30721 31.397,16.30721 3.9287,0 5.8143,0.9894 5.8143,3.05091 0,1.2793 1.8214,2.65435 6,4.52958 3.3,1.48095 6,3.06312 6,3.51593 0,0.45281 1.9125,1.369 4.25,2.03596 2.3375,0.66697 4.925,1.77449 5.75,2.46116 0.825,0.68667 3.75,2.42171 6.5,3.85563 2.75,1.43393 5.675,3.01263 6.5,3.50823 0.825,0.49559 3.6978,1.90223 6.3839,3.12587 2.6861,1.22363 5.072,2.94297 5.3018,3.82076 0.4152,1.58537 6.4686,6.09597 8.1811,6.09597 0.4921,0 4.0984,3.12828 8.014,6.95174 6.3883,6.23801 7.1158,7.34171 7.0859,10.75 -0.039,4.45706 -2.8109,8.29826 -5.9882,8.29826 -2.5939,0 -11.9785,-7.54034 -11.9785,-9.6245 0,-2.46578 2.9784,-2.74445 5.3653,-0.50201 2.6158,2.45737 3.6347,2.67688 3.6347,0.78305 0,-2.18155 -14.324,-13.54123 -20.7459,-16.45259 -3.8973,-1.76684 -8.1913,-4.56313 -11.1684,-7.27295 -0.948,-0.86295 -3.5778,-2.31085 -5.8439,-3.21756 -2.266,-0.90671 -7.3597,-3.80066 -11.3191,-6.431 -10.169,-6.7555 -16.8994,-10.26081 -19.331,-10.06784 -1.1504,0.0913 -7.2667,-3.21242 -13.5917,-7.34158 -16.6586,-10.87527 -16.6545,-10.87302 -19.8914,-10.87302 -1.8731,0 -5.6844,-1.80301 -10.3691,-4.90533 -4.074,-2.69793 -11.1946,-6.80685 -15.8234,-9.13093 -4.6289,-2.32408 -10.2972,-5.51669 -12.5963,-7.09467 -2.2991,-1.57799 -4.6603,-2.86907 -5.2472,-2.86907 -0.5868,0 -3.8177,-2.025 -7.1798,-4.5 -3.3621,-2.475 -6.5563,-4.5 -7.0984,-4.5 -0.5421,0 -2.2926,-0.93064 -3.89,-2.06809 -3.2881,-2.34131 -3.9521,-1.19002 -0.9044,1.56809 2.6194,2.37048 2.5479,4.5 -0.1511,4.5 -1.3063,0 -4.6645,-2.50111 -8.5511,-6.36871 -6.3139,-6.28298 -6.4248,-6.48824 -8.236,-15.25 -1.0097,-4.88471 -3.0839,-12.70629 -4.6094,-17.38129 -1.5255,-4.675 -2.8782,-9.4345 -3.0059,-10.57667 -0.1278,-1.14217 -1.1241,-3.92242 -2.214,-6.17833 -1.09,-2.25591 -2.966,-8.74641 -4.169,-14.42333 -1.2029,-5.67692 -2.8731,-12.79667 -3.7114,-15.82167 -1.8376,-6.63095 -4.0493,-15.70759 -5.4826,-22.5 -0.5803,-2.75 -2.1384,-8.22559 -3.4623,-12.16797 -1.324,-3.94239 -2.4072,-8.18544 -2.4072,-9.429 0,-2.45848 -1.44,-7.50084 -3.628,-12.70378 -1.0088,-2.39882 -1.103,-3.83338 -0.3448,-5.25 1.6611,-3.1039 -1.1781,-2.4449 -4.5272,1.05075 -1.5808,1.65 -3.3652,3 -3.9653,3 -0.6001,0 -4.3776,1.575 -8.3944,3.5 -4.0168,1.925 -7.9095,3.5 -8.6504,3.5 -0.7409,0 -1.9626,0.61556 -2.715,1.36792 -0.7523,0.75236 -4.5226,3.0005 -8.3784,4.99586 -3.8558,1.99537 -7.8848,4.42047 -8.9535,5.38912 -2.7794,2.51934 -14.3932,9.90877 -17.9885,11.44542 -4.0934,1.74959 -15.327,10.03539 -15.3979,11.3574 -0.031,0.58065 -1.1827,2.58205 -2.559,4.44757 -1.3764,1.86552 -2.1639,3.70581 -1.75,4.08953 0.4138,0.38372 6.1524,0.93934 12.7524,1.23472 6.6,0.29537 16.05,1.28308 21,2.19491 4.95,0.91183 11.1659,1.88765 13.8131,2.16848 3.9907,0.42336 4.9767,0.94107 5.7709,3.03 0.5268,1.38567 3.3565,5.27782 6.2883,8.64923 6.0547,6.9628 15.6228,19.97707 15.6374,21.26953 0,0.47317 1.5911,2.84969 3.5238,5.28115 1.9328,2.43146 3.7772,5.46896 4.0987,6.75 0.3216,1.28104 0.9691,2.32916 1.439,2.32916 1.0315,0 8.2787,10.19633 12.4288,17.48663 1.65,2.89847 4.3191,7.01221 5.9313,9.14165 1.6122,2.12945 5.4087,7.18155 8.4365,11.22689 6.6531,8.88893 11.5342,12.28123 31.8485,22.1345 5.619,2.72543 11.4016,5.25281 12.8503,5.61639 1.4486,0.36359 4.0911,2.1183 5.8722,3.89935 1.781,1.78106 6.3484,4.70312 10.1497,6.49347 3.8013,1.79036 7.8115,4.05165 8.9115,5.02511 2.1887,1.93694 15.8793,7.97601 18.0817,7.97601 0.7547,0 2.1322,1.15995 3.0612,2.57767 1.8587,2.83677 10.4647,7.42233 13.93,7.42233 3.3448,0 10.6129,4.21258 16.1771,9.37626 2.5512,2.36753 3.25,3.82132 3.25,6.76089 0,4.5056 -1.2387,5.50951 -4.2207,3.42078 -1.2234,-0.85686 -4.0491,-1.55793 -6.2793,-1.55793 -4.3621,0 -8.5,-2.21825 -8.5,-4.5567 0,-1.75794 3.3176,-1.88644 5.9681,-0.23115 2.1722,1.35653 3.5557,0.59531 2.7473,-1.5115 -0.8109,-2.11301 -7.7121,-5.10395 -8.9411,-3.87498 -1.3098,1.30987 -2.7441,0.74633 -11.4543,-4.50055 -3.949,-2.37882 -7.4896,-4.32512 -7.868,-4.32512 -0.3784,0 -2.2255,-1.35 -4.1048,-3 -1.8792,-1.65 -4.0761,-3 -4.882,-3 -0.8059,0 -1.4652,-0.37777 -1.4652,-0.83948 0,-1.19133 -4.6524,-3.16052 -7.4671,-3.16052 -1.3051,0 -5.6714,-2.28269 -9.7029,-5.07265 -7.8492,-5.43198 -12.8929,-7.92735 -16.0229,-7.92735 -1.0718,0 -4.7865,-2.025 -8.2549,-4.5 -3.4684,-2.475 -6.705,-4.5 -7.1925,-4.5 -0.4875,0 -3.1304,-1.5081 -5.8731,-3.35133 -7.6464,-5.13888 -18.5566,-10.912 -19.2712,-10.19737 -0.3518,0.35181 -0.094,1.51309 0.5725,2.58061 1.8002,2.88263 1.4852,3.96809 -1.1515,3.96809 -3.323,0 -7.393,-4.45529 -9.0338,-9.88886 -1.295,-4.28883 -6.648,-15.25605 -8.5861,-17.59131 -0.4683,-0.56423 -3.4084,-5.96795 -6.5335,-12.00827 -5.2278,-10.10438 -8.9243,-16.25564 -10.5232,-17.51156 -0.3501,-0.275 -2.3194,-2.975 -4.3761,-6 -2.0568,-3.025 -4.8967,-6.80901 -6.3109,-8.4089 -1.4143,-1.5999 -3.9667,-5.23285 -5.6721,-8.07323 -6.8499,-11.40881 -6.6922,-11.24668 -11.5528,-11.87599 -44.2558,-5.72993 -48.6718,-6.38412 -53.0479,-7.85841 -2.0203,-0.68065 -8.147,-1.09651 -14.4922,-0.98368 -11.49504,0.20442 -16.03592,-0.69272 -20.94126,-4.13732 -1.65107,-1.15941 -4.20609,-1.96296 -5.8446,-1.83811 -3.20305,0.24407 -7.94095,-2.29968 -11.66331,-6.26195 -3.01008,-3.20408 -4.05863,-3.23703 -4.05863,-0.12751 0,4.44007 1.77417,7.5651 4.29491,7.5651 1.28943,0 3.29458,1.09278 4.45589,2.4284 1.45766,1.67647 3.60358,2.62496 6.93033,3.0632 2.65038,0.34914 6.84387,1.04945 9.31887,1.55624 12.2195,2.50209 26.81,4.96105 29.4121,4.95685 1.6017,-0.003 5.2017,0.63432 8,1.41534 2.7984,0.78101 10.2321,2.3839 16.5194,3.56198 12.5802,2.35717 28.3087,7.07669 31.8185,9.54746 1.2375,0.87117 2.25,2.5989 2.25,3.8394 0,1.24051 0.9,4.11826 2,6.39499 1.1,2.27674 2,4.65433 2,5.28354 0,0.62921 0.7415,2.56345 1.6477,4.29831 3.9132,7.49149 4.3523,8.58463 4.3523,10.83608 0,1.30526 0.6144,3.26083 1.3653,4.3457 0.7509,1.08488 1.6965,3.09751 2.1013,4.47251 1.4105,4.79068 10.809,26.61911 15.2851,35.5 6.8958,13.68178 15.2568,20.63742 37.7483,31.40328 2.75,1.31632 5.7814,2.77658 6.7364,3.24502 0.9551,0.46843 2.2503,0.8517 2.8783,0.8517 0.628,0 3.6716,1.45285 6.7636,3.22856 3.0919,1.77571 9.8118,4.91955 14.9331,6.9863 5.1213,2.06675 10.2839,4.43889 11.4725,5.27143 1.1886,0.83254 3.0735,1.51648 4.1886,1.51987 1.1151,0.003 3.1525,0.58047 4.5275,1.28241 1.375,0.70194 4.4189,1.89832 6.7643,2.65862 2.3454,0.76031 4.7269,1.9397 5.2922,2.62088 1.9891,2.39671 14.6444,7.77929 20.7876,8.84139 2.806,0.48515 12.5559,4.50693 18.1559,7.48927 2.5787,1.37329 7.2528,11.72951 6.444,14.27773 -0.6411,2.01982 -1.9946,2.09434 -8.0457,0.44293 z M 249.81798,414.70451 c 0,-0.28478 -4.6125,-3.86932 -10.25,-7.96564 -10.92967,-7.94173 -20.78277,-15.61102 -31.49756,-24.51658 -9.54522,-7.93347 -35.23744,-32.10345 -36.3651,-34.21051 -0.52674,-0.98422 -1.54083,-1.78949 -2.25354,-1.78949 -0.71271,0 -1.87909,-1.0125 -2.59194,-2.25 -0.71286,-1.2375 -3.84725,-4.5 -6.96533,-7.25 -3.11807,-2.75 -7.22337,-7.01034 -9.12288,-9.46743 -1.89951,-2.45709 -4.35365,-5.37875 -5.45365,-6.49259 -3.13101,-3.17038 -23.68871,-30.35806 -29.19934,-38.61629 -1.54036,-2.30839 -4.37566,-6.53649 -6.30066,-9.39578 -1.925,-2.85929 -4.93996,-7.41028 -6.69991,-10.11331 -1.75995,-2.70303 -4.572452,-6.75864 -6.250002,-9.01246 -1.67755,-2.25383 -3.05009,-4.45979 -3.05009,-4.90214 0,-0.44235 -1.3767,-2.64831 -3.05933,-4.90214 -5.83225,-7.8121 -13.94067,-20.6897 -13.94067,-22.14025 0,-0.80168 -0.3993,-1.45761 -0.88734,-1.45761 -1.0279,0 -10.11548,-15.82467 -12.0596,-21 -1.35773,-3.61431 -3.29317,-8.15904 -6.84692,-16.07767 -1.12991,-2.51772 -2.52448,-7.69272 -3.09905,-11.5 -2.26831,-15.03045 -5.01654,-29.31586 -5.97788,-31.07321 -0.55634,-1.01702 -1.6937,-6.57412 -2.52746,-12.34912 -1.63576,-11.33004 -1.3497,-41.575957 0.47082,-49.781187 0.52243,-2.35465 0.68899,-5.32067 0.37011,-6.59115 -0.31887,-1.27048 0.12608,-5.033901 0.98878,-8.363157 0.8627,-3.329255 1.56854,-7.079178 1.56854,-8.333162 l 0,-2.279969 -2.31445,2.174314 c -1.27295,1.195873 -3.01122,2.174314 -3.86282,2.174314 -2.97265,0 -12.4657,10.358362 -16.68228,18.2029 -2.27725,4.23659 -4.14045,8.17899 -4.14045,8.76089 0,0.58191 -0.93962,3.05697 -2.08805,5.50014 -1.14842,2.44317 -1.80588,4.89868 -1.461,5.4567 0.34487,0.55801 -0.29051,2.91367 -1.41196,5.234797 -1.12144,2.32113 -2.03899,6.07071 -2.03899,8.3324 0,2.26169 -0.39924,4.53967 -0.88721,5.06217 -2.26993,2.43058 -4.1726701,14.8202 -4.1670601,27.13372 0.01,21.8933 0.9361701,31.38548 3.7111901,38.03416 0.7387,1.76984 1.34308,5.68078 1.34308,8.69098 0,3.01021 0.45734,5.75576 1.01631,6.10122 0.55897,0.34546 0.75799,1.0461 0.44225,1.55697 -0.31573,0.51086 0.0488,2.16727 0.81003,3.6809 0.76124,1.51363 2.13723,4.25102 3.05775,6.08309 0.92051,1.83207 1.67366,3.79456 1.67366,4.3611 0,0.56653 2.025,5.27716 4.5,10.46807 2.475,5.19091 4.5,10.1253 4.5,10.96532 0,0.84002 2.1375,4.78328 4.75,8.76279 5.85349,8.91639 6.23139,9.5211 11.13293,17.8146 2.17882,3.68661 8.42239,12.23661 13.87459,19 5.4522,6.7634 10.0997,12.81471 10.32779,13.44736 1.27629,3.5402 27.88255,29.80413 40.875642,40.34972 2.37177,1.925 4.81332,3.95 5.42568,4.5 0.61235,0.55 2.34327,1.63448 3.84649,2.40995 1.50322,0.77547 3.54516,2.12547 4.53764,3 2.98404,2.62938 8.09184,6.09005 8.98866,6.09005 0.46223,0 3.68995,2.07345 7.17271,4.60768 3.48277,2.53422 8.56908,5.79672 11.30292,7.25 7.33759,3.90057 8.567,4.6532 10.5868,6.4811 1.0096,0.91367 2.40573,1.66122 3.10252,1.66122 1.07502,0 4.66682,2.18729 8.57563,5.2223 1.74786,1.35712 11.68689,7.7777 12.03986,7.7777 0.18639,0 5.87866,3.37398 12.64951,7.49773 6.77085,4.12376 12.83563,7.49876 13.4773,7.5 0.64166,0.001 1.31666,0.34599 1.5,0.76609 0.18333,0.4201 5.05833,3.38198 10.83333,6.58197 5.775,3.19998 11.625,6.9601 13,8.35582 l 2.5,2.53768 -3,-0.63499 c -2.81277,-0.59535 -2.8803,-0.54146 -1.08204,0.86342 1.36959,1.06999 2.27968,1.19818 3.18314,0.44837 0.90051,-0.74735 2.07716,-0.60988 4.08205,0.47691 2.83883,1.53884 5.31685,2.04649 5.31685,1.08922 z"
     id="path2987"
     inkscape:connector-curvature="0" />
</svg>
