<?xml version="1.0" encoding="UTF-8" standalone="no"?>
<!-- Created with Inkscape (http://www.inkscape.org/) -->

<svg
   xmlns:dc="http://purl.org/dc/elements/1.1/"
   xmlns:cc="http://creativecommons.org/ns#"
   xmlns:rdf="http://www.w3.org/1999/02/22-rdf-syntax-ns#"
   xmlns:svg="http://www.w3.org/2000/svg"
   xmlns="http://www.w3.org/2000/svg"
   xmlns:sodipodi="http://sodipodi.sourceforge.net/DTD/sodipodi-0.dtd"
   xmlns:inkscape="http://www.inkscape.org/namespaces/inkscape"
   id="svg2"
   version="1.1"
   inkscape:version="0.48.2 r9819"
   width="2852.134"
   height="1841.5052"
   sodipodi:docname="Tadpole_(PSF)c.png">
  <metadata
     id="metadata8">
    <rdf:RDF>
      <cc:Work
         rdf:about="">
        <dc:format>image/svg+xml</dc:format>
        <dc:type
           rdf:resource="http://purl.org/dc/dcmitype/StillImage" />
        <dc:title></dc:title>
      </cc:Work>
    </rdf:RDF>
  </metadata>
  <defs
     id="defs6" />
  <sodipodi:namedview
     pagecolor="#ffffff"
     bordercolor="#666666"
     borderopacity="1"
     objecttolerance="10"
     gridtolerance="10"
     guidetolerance="10"
     inkscape:pageopacity="0"
     inkscape:pageshadow="2"
     inkscape:window-width="1600"
     inkscape:window-height="876"
     id="namedview4"
     showgrid="false"
     fit-margin-top="0"
     fit-margin-left="0"
     fit-margin-right="0"
     fit-margin-bottom="0"
     inkscape:zoom="0.25"
     inkscape:cx="709.54444"
     inkscape:cy="629.24918"
     inkscape:window-x="0"
     inkscape:window-y="24"
     inkscape:window-maximized="1"
     inkscape:current-layer="svg2" />
  <path
     style="fill:#000000"
     d="m 525.56616,1840.5647 c -3.33292,-2.4397 -2.56655,-9.2548 1.94542,-17.2998 2.12414,-3.7875 5.124,-9.3613 6.66635,-12.3863 1.54235,-3.025 3.71939,-6.6399 4.83787,-8.0331 3.90298,-4.8615 6.26175,-18.6792 3.93185,-23.0326 -1.31024,-2.4482 -4.02636,-2.4537 -8.80117,-0.018 -2.06617,1.0541 -5.53575,2.2392 -7.71016,2.6337 -4.92304,0.893 -8.30901,2.5885 -14.28097,7.1512 -5.18297,3.9599 -32.40564,17.4674 -38.67252,19.1887 -2.2,0.6043 -6.10484,1.1013 -8.67742,1.1043 -3.86566,0 -5.03711,-0.4517 -6.75,-2.6293 -4.24626,-5.3982 -1.93598,-11.3834 8.68775,-22.507 5.77821,-6.0501 9.53153,-8.8713 18.01907,-13.544 13.54992,-7.4597 24.85959,-12.8875 28.71501,-13.781 6.65269,-1.5417 7.22947,-4.613 1.42264,-7.5754 -2.5626,-1.3074 -3.88939,-2.5874 -3.56314,-3.4376 0.81303,-2.1187 -1.86458,-2.6279 -16.35391,-3.1096 -14.59278,-0.4852 -23.47906,0.9291 -29.68518,4.7245 -4.14181,2.533 -19.93939,7.865 -23.30241,7.865 -3.3551,0 -5.01241,-1.6978 -5.01241,-5.1349 0,-9.1235 10.68471,-19.8637 22.18662,-22.3019 2.41998,-0.513 2.6323,-0.9042 2.13934,-3.9419 -0.53993,-3.3273 -0.44996,-3.4221 6.70526,-7.0686 8.12002,-4.1382 3.78089,-3.9492 36.46878,-1.5881 7.7,0.5562 14.82138,1.0421 15.82528,1.0798 3.40714,0.128 14.38049,-4.102 16.41762,-6.3286 4.04359,-4.4197 3.79321,-6.0022 -2.6792,-16.9342 -3.33504,-5.6328 -6.06667,-10.9256 -6.07029,-11.7616 -0.004,-0.836 -0.90066,-2.87 -1.99341,-4.52 -2.2448,-3.3895 -2.6239,-7.3886 -0.75,-7.9116 0.6875,-0.1919 4.78779,-0.8906 9.11174,-1.5526 7.65128,-1.1716 7.99531,-1.1345 12.85048,1.3845 2.7438,1.4235 6.85602,2.8739 9.13826,3.223 7.09633,1.0857 9.29884,2.7752 11.1951,8.5875 1.95779,6.001 3.11261,7.7692 5.07398,7.7692 3.68138,0 17.87758,-17.18 17.18177,-20.7931 -0.45395,-2.3572 -10.13809,-8.8376 -14.18893,-9.4949 -7.93563,-1.2878 -22.19128,-15.0839 -26.06357,-25.2233 -1.83484,-4.8045 -3.69494,-6.0161 -6.73681,-4.3881 -2.94396,1.5756 -19.25818,0.1316 -24.81202,-2.1961 -2.475,-1.0373 -8.0409,-2.5537 -12.36867,-3.3698 -4.32777,-0.816 -9.85284,-2.6465 -12.27793,-4.0677 -2.42509,-1.4212 -5.18419,-2.3466 -6.13133,-2.0564 -3.05039,0.9347 -9.1202,-1.114 -12.75423,-4.3047 -2.98704,-2.6226 -4.34887,-3.1068 -8.75264,-3.1117 -2.86836,0 -7.9152,-0.5234 -11.2152,-1.156 -3.3,-0.6326 -8.25,-1.1925 -11,-1.2442 -4.39228,-0.083 -5.0373,0.1677 -5.3069,2.0594 -0.17888,1.2552 0.49212,2.7152 1.60859,3.5 1.05352,0.7406 3.3237,3.6376 5.04485,6.4376 3.92607,6.3872 6.04566,18.777 3.95698,23.1301 -3.20699,6.6839 -16.82142,9.7481 -22.31523,5.0225 -1.44278,-1.241 -4.05537,-4.9181 -5.80576,-8.1712 -2.89206,-5.3749 -3.95833,-6.3496 -11.68253,-10.6797 -4.675,-2.6207 -11.91944,-5.933 -16.09876,-7.3606 -4.17932,-1.4276 -9.097,-3.701 -10.92817,-5.052 -5.24221,-3.8675 -9.33053,-4.2002 -13.75113,-1.1189 -5.85116,4.0785 -12.35648,12.2914 -13.39421,16.91 -0.5081,2.2614 -0.6233,6.5168 -0.256,9.4566 0.40979,3.2799 0.18891,7.0554 -0.57167,9.772 -1.17575,4.1993 -1.10477,4.5871 1.38052,7.5407 3.30984,3.9335 4.24474,7.5011 2.51261,9.5882 -1.07257,1.2924 -2.52059,1.4808 -7.47774,0.9729 -13.81501,-1.4154 -17.97361,-3.8724 -24.02163,-14.1926 -2.54492,-4.3426 -2.58648,-4.7276 -2.5154,-23.3103 0.0922,-24.1102 -0.19191,-24.4432 -14.01625,-16.4283 -3.4992,2.0287 -8.46129,4.7319 -11.02689,6.0071 -6.49196,3.2268 -18.34048,16.2243 -21.87552,23.9967 -3.17148,6.9732 -4.98491,8.3274 -11.14402,8.3221 -4.90026,0 -9.85176,-2.5955 -12.40452,-6.4914 -2.45618,-3.7487 -1.3318,-15.7547 2.11189,-22.5505 3.01603,-5.9518 8.36182,-12.1021 13.02312,-14.983 1.84413,-1.1397 4.37913,-3.737 5.63334,-5.7718 1.25421,-2.0348 4.68037,-6.3142 7.61369,-9.5097 2.93332,-3.1956 5.16206,-6.3239 4.95275,-6.9519 -0.64549,-1.9364 -9.80019,-3.6985 -19.32086,-3.7187 -6.94521,-0.015 -10.70001,0.5338 -16,2.3377 -8.47594,2.8848 -19.51531,9.4854 -21.08471,12.6069 -2.13859,4.2535 -5.96524,5.2684 -8.87883,2.3549 -1.25979,-1.2598 -1.56723,-2.8678 -1.22643,-6.4146 0.60173,-6.2622 5.32299,-12.7739 14.31789,-19.7476 7.85016,-6.0861 12.01687,-8.1566 16.41481,-8.1566 2.47412,0 7.03212,-2.8287 7.03212,-4.3641 0,-0.2003 -2.1375,-1.173 -4.75,-2.1616 -2.6125,-0.9885 -5.69494,-2.4072 -6.84987,-3.1525 -1.15492,-0.7453 -4.18456,-1.566 -6.73253,-1.8238 -5.80219,-0.5871 -23.37567,-5.686 -30.6676,-8.898 -3.025,-1.3325 -7.64562,-3.178 -10.26804,-4.101 -2.62242,-0.923 -7.08837,-3.2743 -9.92433,-5.2251 -2.83596,-1.9508 -7.21534,-4.1343 -9.73196,-4.8521 -8.558,-2.4413 -17.95861,-6.1846 -20.44713,-8.142 -1.36476,-1.0736 -4.65199,-2.7581 -7.30496,-3.7434 -2.65297,-0.9853 -6.43366,-3.3248 -8.40154,-5.1989 -2.38038,-2.2669 -4.8907,-3.5887 -7.5,-3.9492 -2.15712,-0.298 -6.39704,-1.3889 -9.42204,-2.4243 -3.025,-1.0353 -7.40992,-2.3675 -9.74427,-2.9602 -3.29197,-0.836 -6.00032,-2.8552 -12.07077,-8.9995 -4.789097,-4.8474 -9.566067,-8.6674 -12.308887,-9.8431 -4.98534,-2.137 -10.56698,-7.2181 -11.96319,-10.8903 -1.48054,-3.8942 -1.06783,-6.2069 1.58018,-8.8549 l 2.49306,-2.493 -4.24306,-1.8476 c -3.22782,-1.4055 -4.82161,-2.9646 -6.66105,-6.5162 -1.32989,-2.5678 -3.23718,-5.1071 -4.23842,-5.6429 -1.00123,-0.5359 -4.07564,-3.9533 -6.83201,-7.5944 -4.75221,-6.2774 -5.01158,-6.9377 -5.01158,-12.7586 0,-4.2867 -0.93537,-8.8208 -3.1004,-15.0287 -3.67915,-10.5495 -3.52631,-11.1388 5.58512,-21.5344 3.13338,-3.575 6.74811,-8.5573 8.03272,-11.0718 2.94593,-5.7664 15.73559,-22.9197 22.80905,-30.5913 3.85152,-4.1772 5.59152,-6.9743 6.1194,-9.8369 1.08448,-5.881 3.35571,-9.069 8.483517,-11.9076 2.51382,-1.3916 6.82059,-4.8359 9.57059,-7.654 2.75,-2.8182 7.18638,-6.2395 9.85863,-7.603 2.67225,-1.3636 8.06061,-4.4718 11.97414,-6.9073 3.91352,-2.4355 7.81451,-4.4281 8.66886,-4.4281 0.85435,0 2.45077,-0.6286 3.54762,-1.3968 1.66901,-1.1691 13.24155,-7.762 25.95075,-14.7843 1.65,-0.9117 6.375,-3.5312 10.5,-5.8212 6.99993,-3.886 13.47368,-9.7492 19.63763,-17.7855 1.38697,-1.8082 4.3984,-4.45 6.69207,-5.8706 2.29366,-1.4206 5.2953,-3.5781 6.6703,-4.7945 1.375,-1.2165 4.36283,-2.7404 6.63962,-3.3865 5.24648,-1.4889 7.36038,-4.6476 7.36038,-10.9983 0,-4.4141 0.52828,-5.5736 5.25,-11.5228 2.8875,-3.6381 7.5,-9.653 10.25,-13.3663 4.72422,-6.3792 10.90215,-13.0926 16.50184,-17.9323 1.37399,-1.1875 3.30667,-3.325 4.29484,-4.75 1.35071,-1.9478 2.66096,-2.5909 5.27852,-2.5909 1.91501,0 6.25984,-1.4023 9.65519,-3.1163 3.45078,-1.7419 9.60665,-3.7157 13.95826,-4.4754 4.28171,-0.7474 10.08428,-2.1111 12.89461,-3.0303 4.36499,-1.4277 6.29802,-1.5109 13.26322,-0.5707 4.48444,0.6053 11.05648,1.3789 14.60454,1.7191 8.07083,0.7737 9.54732,1.5699 12.06604,6.507 1.44465,2.8318 2.66149,3.9664 4.25326,3.9658 3.69807,0 16.49331,-2.9155 28.78056,-6.5548 17.2094,-5.0971 28.74577,-7.3722 45.44912,-8.9629 8.25,-0.7856 18.6,-1.8953 23,-2.466 11.28719,-1.464 90.75808,-2.2481 94.22562,-0.9297 1.67067,0.6352 19.68867,1.1593 46.74643,1.3598 24.21541,0.1795 47.31421,0.7781 51.33071,1.3303 4.3287,0.5952 24.2836,0.8478 49,0.6203 43.7651,-0.4028 43.6118,-0.3894 63.6972,-5.5899 4.4,-1.1392 10.7,-2.6593 14,-3.3781 3.3,-0.7187 7.8,-1.7664 10,-2.3283 2.2,-0.5618 12.55,-2.184 23,-3.6048 10.45,-1.4208 24.4,-3.4398 31,-4.4868 14.9537,-2.372 42.7495,-3.3036 60.514,-2.0282 14.4072,1.0345 29.5185,3.7323 42.486,7.5852 10.4102,3.093 20.5254,5.4347 23.476,5.4347 2.8803,0 11.8039,2.4941 18.524,5.1773 2.75,1.098 7.5354,2.6149 10.6342,3.3709 3.0987,0.756 8.0487,2.4418 10.99991,3.7462 2.9512,1.3045 10.3159,3.8081 16.3659,5.5636 6.05,1.7555 12.35,3.6645 14,4.2423 8.3791,2.9338 21.6318,6.7628 26.6369,7.6958 3.1003,0.578 7.6003,1.9452 10,3.0382 2.3997,1.0931 7.0631,2.4789 10.3631,3.0795 5.3573,0.9751 25.5269,7.4417 40.5,12.9848 3.025,1.1199 6.5752,2.0508 7.8894,2.0688 1.3142,0.018 4.6138,1.4013 7.3325,3.0741 2.7187,1.6729 7.1908,3.4678 9.938,3.9888 2.7471,0.521 5.517,1.27 6.1553,1.6645 0.6383,0.3945 4.541,1.4702 8.6726,2.3904 9.1746,2.0435 20.3358,5.9467 29.0122,10.1458 3.575,1.7302 10.55,4.5952 15.5,6.3667 4.95,1.7715 15.075,5.754 22.5,8.8501 7.425,3.096 19.125,7.3932 26,9.5493 20.6273,6.4691 23.6251,7.6868 46,18.685 11.825,5.8125 24.3967,11.9719 27.9371,13.6876 3.5404,1.7157 8.3856,4.7297 10.7672,6.6977 2.3816,1.968 6.7821,4.3511 9.7789,5.2958 2.9967,0.9446 5.7418,2.1919 6.1002,2.7717 0.3583,0.5798 3.5685,2.3629 7.1338,3.9625 3.5652,1.5997 7.6749,3.7427 9.1325,4.7624 5.6002,3.9176 15.6105,6.9572 27.1503,8.2441 6.325,0.7054 12.625,1.266 14,1.246 11.7976,-0.1722 41.7074,-1.1738 42.5,-1.4234 0.55,-0.1731 3.925,0 7.5,0.3811 7.3034,0.7819 40.5712,2.3576 67,3.1734 15.0815,0.4655 27.1538,1.49 47,3.9887 2.475,0.3116 13.95,1.0011 25.5,1.5322 29.4457,1.354 44.5689,2.5571 47.6129,3.7879 1.4371,0.581 6.7515,1.7706 11.8099,2.6436 5.0585,0.8729 10.9114,2.4617 13.0066,3.5306 2.2458,1.1457 7.6599,2.3505 13.19,2.9351 30.3122,3.2044 40.3316,4.6242 46.8806,6.6432 8.3463,2.5731 18.4452,5.1917 28.5,7.3899 5.5,1.2024 13.375,3.0229 17.5,4.0455 4.125,1.0226 10.425,2.1743 14,2.5591 3.575,0.3849 8.075,1.2817 10,1.9928 1.925,0.7111 6.425,1.9886 10,2.8389 3.575,0.8503 11.45,2.7139 17.5,4.1413 6.05,1.4274 12.8,3.4227 15,4.4339 3.6425,1.6743 11.6311,3.9906 29.5,8.5535 3.575,0.9129 13.7,4.0873 22.5,7.0543 8.8,2.9669 20.624,6.3023 26.2756,7.412 5.6516,1.1097 14.9958,3.5969 20.765,5.5271 5.7691,1.9302 11.5231,3.5094 12.7866,3.5094 1.2635,0 7.4443,1.5848 13.7351,3.5218 6.2907,1.937 15.4877,4.7232 20.4377,6.1915 4.95,1.4684 10.2492,3.2762 11.776,4.0174 1.5268,0.7411 6.9848,2.4152 12.1288,3.7201 5.1441,1.3049 10.7674,3.104 12.4964,3.9981 1.7289,0.894 6.3959,2.4864 10.3711,3.5385 3.9752,1.0521 13.0777,3.9805 20.2277,6.5076 7.15,2.5271 15.7,5.4239 19,6.4374 3.3,1.0135 8.475,2.7932 11.5,3.9549 3.025,1.1617 9.5008,3.2635 14.3906,4.6707 9.4801,2.7281 21.3621,8.2406 25.8284,11.9826 1.4954,1.2529 5.0954,3.0432 8,3.9785 2.9045,0.9352 8.431,3.389 12.281,5.453 3.85,2.0639 8.8,4.3209 11,5.0155 2.2,0.6946 8.275,3.6357 13.5,6.5358 5.225,2.9 11.1093,5.938 13.0762,6.7511 1.9669,0.813 8.7169,4.3966 15,7.9636 6.2831,3.5669 14.5962,8.0828 18.4735,10.0353 3.8773,1.9525 9.0211,5.197 11.4305,7.2101 2.4095,2.013 6.1399,4.5575 8.2899,5.6543 8.9743,4.5783 22.6569,15.7748 37.797,30.9293 4.9131,4.9178 8.9329,9.4076 8.9329,9.9773 0,0.5697 1.758,2.7053 3.9068,4.7457 4.7586,4.5188 12.0932,18.5763 12.0932,23.1778 0,5.7229 -3.7369,16.4081 -6.7313,19.2472 -4.0952,3.8829 -12.7233,9.4498 -16.6598,10.7489 -1.8969,0.6261 -4.0474,1.863 -4.7789,2.7488 -0.7315,0.8858 -3.7852,2.6982 -6.7861,4.0274 l -5.4561,2.4169 -40.9457,-0.1133 c -22.5201,-0.062 -41.3449,-0.3601 -41.833,-0.6618 -0.4881,-0.3016 -8.8573,-0.7398 -18.5982,-0.9738 -9.741,-0.2339 -20.5472,-0.9269 -24.0137,-1.54 -6.9199,-1.2237 -15.7934,-0.5788 -23.8361,1.7324 -4.9953,1.4354 -23.1718,2.0946 -44.7575,1.623 -5.6094,-0.1225 -10.8561,0.3754 -14.2004,1.3476 -4.4284,1.2873 -7.252,1.3742 -17.1036,0.5263 -15.2817,-1.3154 -73.3902,-0.7381 -78.9386,0.7842 -2.4972,0.6852 -8.1709,0.9348 -14.3042,0.6294 -7.1178,-0.3544 -12.4485,-0.034 -17.7817,1.0671 -5.8595,1.2103 -8.5778,1.3312 -11.7835,0.524 -2.8259,-0.7116 -6.9186,-0.7366 -12.717,-0.078 -5.8939,0.6697 -13.3223,0.6067 -23.9123,-0.2027 -8.4493,-0.6458 -23.2709,-1.0491 -32.937,-0.8961 -16.7094,0.2644 -17.8911,0.1551 -24,-2.22 -8.2967,-3.2257 -16.6146,-4.1421 -21.0637,-2.3207 -2.8591,1.1706 -5.8279,1.1638 -19.8616,-0.046 -9.075,-0.7821 -20.1,-1.8484 -24.5,-2.3697 -4.4,-0.5212 -12.275,-1.3961 -17.5,-1.9441 -5.225,-0.5481 -11.525,-1.3618 -14,-1.8083 -2.475,-0.4466 -6.0272,-0.4967 -7.8939,-0.1115 -4.4151,0.9112 -29.3531,-0.7012 -39.6061,-2.5608 -16.7336,-3.035 -15.6469,-2.9408 -23,-1.9948 -3.5265,0.4536 -8.9786,-0.1254 -18.5,-1.9647 -7.425,-1.4343 -16.875,-3.2546 -21,-4.045 -4.125,-0.7905 -11.1,-2.1999 -15.5,-3.1321 -4.4,-0.9322 -10.925,-2.035 -14.5,-2.4507 -3.575,-0.4157 -8.525,-1.4227 -11,-2.2376 -2.475,-0.815 -8.1,-2.02 -12.5,-2.6778 -4.4,-0.6578 -10.4169,-2.2864 -13.3708,-3.6192 -2.954,-1.3327 -6.9232,-2.4231 -8.8204,-2.4231 -3.9837,0 -17.2418,-2.2944 -28.8088,-4.9855 -4.4,-1.0237 -12.275,-2.3796 -17.5,-3.013 -5.225,-0.6335 -12.2,-1.9715 -15.5,-2.9734 -3.3,-1.0019 -11.625,-3.2807 -18.5,-5.0641 -6.875,-1.7833 -13.85,-3.9321 -15.5,-4.7751 -1.8497,-0.945 -6.4509,-1.6505 -12,-1.84 -8.134,-0.2777 -12.311,-0.982 -25,-4.2154 -15.4334,-3.9328 -35.5886,-5.9285 -43.4579,-4.3031 -3.1144,0.6433 -7.4809,1.1696 -9.7034,1.1696 -2.3121,0 -5.9228,0.9992 -8.4398,2.3356 -2.4194,1.2846 -7.0989,2.6484 -10.3989,3.0308 -3.3,0.3824 -8.925,1.5592 -12.5,2.6151 -3.575,1.056 -9.425,2.3661 -13,2.9113 -13.6927,2.0885 -20.4249,4.0667 -22.75,6.685 -2.105,2.3705 -2.252,3.4484 -2.2809,16.728 -0.045,20.5915 -1.1252,27.1596 -6.1689,37.5001 -4.6673,9.5691 -10.2744,16.375 -15.8221,19.2053 -1.9866,1.0134 -4.2153,2.5697 -4.9528,3.4584 -1.3452,1.6208 -15.3358,8.5007 -17.4161,8.5643 -0.6101,0.019 -2.9092,0.9034 -5.1092,1.9661 -2.2,1.0627 -4.4738,1.9474 -5.053,1.9661 -0.5791,0.019 -2.947,1.4268 -5.2619,3.1292 -4.6582,3.4257 -14.7716,6.8832 -20.1851,6.9008 -1.925,0.01 -5.075,0.98 -7,2.1639 -5.4697,3.364 -15.0346,6.84 -18.8216,6.84 -1.8933,0 -4.885,0.8916 -6.6483,1.9814 -1.7633,1.0898 -6.1556,2.5997 -9.7606,3.3554 -3.605,0.7556 -7.8404,2.2813 -9.412,3.3903 -4.9121,3.4662 -13.0089,7.1873 -18.0329,8.2875 -5.4481,1.1931 -15.0633,4.8151 -17.3246,6.5261 -3.8707,2.9288 -16.9772,6.4593 -23.9793,6.4593 -5.7363,0 -7.9975,0.4786 -11.3426,2.4007 -6.5823,3.7822 -12.6176,4.5801 -25.6781,3.3949 -13.5871,-1.2329 -11.3065,-1.2074 -41.3791,-0.463 -18.55961,0.4594 -24.24011,0.9077 -25.49991,2.0124 -1.0803,0.9473 -3.9559,1.41 -8.621,1.3873 -3.85,-0.019 -9.8497,0.7308 -13.3328,1.6656 -4.1974,1.1266 -7.8254,1.476 -10.7591,1.036 -2.7952,-0.4191 -4.933,-0.2432 -5.8014,0.4776 -2.2069,1.8316 -13.4194,0.5122 -15.4401,-1.8169 -2.793,-3.2191 -5.8293,-3.539 -7.622,-0.8029 -2.2521,3.437 -11.0693,9.2281 -18.0446,11.8514 -3.3,1.2411 -8.2658,3.9094 -11.0352,5.9296 -2.7694,2.0202 -6.8194,4.5587 -9,5.641 -9.2241,4.5784 -14.2116,7.5496 -18.1552,10.8157 -2.9451,2.4392 -5.188,3.4706 -7.5471,3.4706 -2.6064,0 -4.24,0.9058 -7.3095,4.0529 -2.1741,2.2291 -6.0957,5.4294 -8.7147,7.1118 -5.0278,3.2298 -5.666,3.2654 -15.2383,0.8501 -8.2745,-2.0879 -9.2688,-2.6857 -9.9995,-6.0127 -0.8225,-3.7449 2.6567,-9.4823 7.4768,-12.3296 1.6625,-0.9821 3.0227,-2.2086 3.0227,-2.7257 0,-0.517 2.9748,-3.9791 6.6106,-7.6934 3.6358,-3.7144 8.3202,-9.0417 10.4098,-11.8386 4.0423,-5.4106 9.4296,-10.4148 11.212,-10.4148 0.5934,0 2.4713,-1.0583 4.1733,-2.3518 4.6358,-3.5233 8.5977,-5.2938 13.5447,-6.053 5.0778,-0.7792 7.0496,-2.0689 7.0496,-4.6107 0,-3.2243 -3.1827,-3.1943 -9.4464,0.089 -3.3224,1.7415 -9.4186,4.2927 -13.5471,5.6692 -4.1286,1.3765 -11.0738,4.2421 -15.4338,6.368 -4.3601,2.1258 -9.5351,4.1594 -11.5,4.519 -1.965,0.3597 -4.4118,1.2312 -5.4375,1.9366 -1.0256,0.7055 -2.5532,1.0186 -3.3946,0.6957 -0.8589,-0.3296 -2.0928,0.1829 -2.8136,1.1686 -1.8271,2.4989 -11.5142,8.5693 -13.6746,8.5693 -0.9983,0 -2.0682,-0.7875 -2.3775,-1.75 -0.3093,-0.9625 -1.0184,-2.9722 -1.5758,-4.4659 l -1.0134,-2.7159 -6.9722,6.7159 c -3.8347,3.6937 -8.0999,8.621 -9.4783,10.9495 -2.7359,4.622 -7.107,8.3752 -14.8352,12.7379 -2.75,1.5525 -7.25,4.0984 -10,5.6575 -3.3495,1.899 -6.4398,2.8407 -9.3618,2.8529 -4.0007,0.017 -4.7789,0.4735 -9.3994,5.5181 -5.6523,6.1712 -8.6267,6.9492 -13.1039,3.4274 -3.8126,-2.999 -3.6914,-10.4454 0.2874,-17.6619 5.5798,-10.1202 23.251,-28.6502 28.282,-29.6564 1.5377,-0.3075 2.7957,-1.0922 2.7957,-1.7437 0,-0.6515 2.5755,-3.9253 5.7234,-7.275 5.1317,-5.4609 7.81,-7.2883 13.5266,-9.2294 0.9625,-0.3269 1.75,-1.1339 1.75,-1.7935 0,-1.7101 7.2645,-5.5675 10.485,-5.5675 1.6875,0 3.7146,-1.0702 5.3638,-2.8319 1.4582,-1.5576 3.9275,-3.1509 5.4874,-3.5407 2.9371,-0.734 5.3101,-2.8536 9.7673,-8.7241 3.5452,-4.6696 13.6075,-10.4897 24.1266,-13.9552 8.841,-2.9127 14.2589,-5.3117 15.1107,-6.691 0.2571,-0.4164 -6.1269,-0.7641 -14.1866,-0.7726 -15.4392,-0.016 -26.9331,-1.7448 -27.8719,-4.1914 -0.7758,-2.0217 3.0417,-5.6552 10.9833,-10.4535 8.202,-4.9558 22.1472,-10.7989 25.8295,-10.8228 1.4272,-0.01 3.3543,-0.8558 4.2824,-1.8813 1.0128,-1.1192 3.6812,-2.1007 6.6749,-2.4553 2.7431,-0.3249 6.2161,-1.2826 7.7176,-2.1282 6.038,-3.4004 17.2477,-4.8894 41.23,-5.4766 14.6469,-0.3586 23.4894,-0.9521 23.4717,-1.5754 -0.054,-1.8931 -8.8918,-5.381 -13.7874,-5.441 -5.3906,-0.066 -8.6843,-1.4159 -8.6843,-3.559 0,-0.7863 -0.9311,-1.928 -2.0691,-2.537 -2.69,-1.4396 -14.6131,-0.2715 -17.803,1.7442 -1.3046,0.8244 -6.3122,2.3062 -11.1279,3.2928 -4.8156,0.9866 -9.8247,2.4943 -11.1313,3.3504 -2.3895,1.5657 -17.813,3.9829 -36.3687,5.6999 -5.5,0.5089 -13.15,1.3337 -17,1.833 -9.2113,1.1944 -42.9829,1.6209 -52.5,0.6629 -9.2473,-0.9308 -22.2145,-5.0144 -25.9776,-8.1809 -1.5461,-1.3009 -3.0335,-2.3653 -3.3054,-2.3653 -0.2719,0 -0.807,1.6666 -1.1892,3.7035 -0.3821,2.0369 -1.5572,5.394 -2.6112,7.4601 -1.0541,2.0662 -1.9166,4.5915 -1.9166,5.6117 0,5.2736 -20.4203,39.4883 -25.5889,42.8749 -1.3894,0.9104 -3.4653,3.4991 -4.6129,5.7526 -3.6695,7.2049 -7.1054,10.8431 -12.4889,13.224 -3.5078,1.5513 -8.1455,5.2141 -14.2187,11.2297 -4.9571,4.9101 -10.9429,9.876 -13.3017,11.0354 -2.3589,1.1593 -5.3305,3.2141 -6.6036,4.5662 -1.2731,1.3521 -5.289,3.8636 -8.9243,5.5812 -3.6352,1.7176 -9.2117,4.89 -12.3922,7.0498 -4.3382,2.9461 -7.2926,4.1335 -11.827,4.7536 -11.85266,1.621 -29.3178,16.3936 -42.64722,36.0725 -1.70801,2.5217 -5.08301,6.4034 -7.5,8.626 -2.417,2.2227 -5.83249,6.1385 -7.58999,8.7019 -1.80387,2.631 -4.91933,5.54 -7.15394,6.6801 -2.47601,1.2631 -4.64985,3.3971 -5.80455,5.698 -1.93481,3.8554 -10.91219,10.7966 -15.34606,11.8654 -1.46846,0.3539 -3.29085,0.024 -4.41667,-0.8005 z M 88.170333,1465.1955 c -0.72187,-0.2889 -1.58437,-0.2534 -1.91666,0.079 -0.33229,0.3323 0.25833,0.5687 1.3125,0.5253 1.16494,-0.048 1.4019,-0.285 0.60416,-0.6042 z M 1327.3714,1173.9738 c -1.7113,-1.0435 -4.1646,-3.4043 -5.4517,-5.2462 -1.2872,-1.842 -3.9774,-5.374 -5.9783,-7.849 -3.8088,-4.7114 -6.3832,-10.8257 -7.322,-17.3902 -0.306,-2.1396 -1.6262,-5.5146 -2.9338,-7.5 -1.3076,-1.9854 -2.6589,-4.7348 -3.003,-6.1098 -0.344,-1.375 -1.5029,-3.0417 -2.5752,-3.7038 -1.81,-1.1176 -1.9995,-0.8413 -2.6457,3.8574 -0.5921,4.3052 -0.3691,5.5036 1.4931,8.0225 2.7497,3.719 2.0245,5.8239 -2.0064,5.8239 -5.7918,0 -7.4812,-1.9669 -9.8775,-11.5 -0.94,-3.7394 -0.362,-15.5159 1.5338,-31.25 0.7359,-6.1081 -1.0106,-7.3618 -2.0896,-1.5 -0.3797,2.0625 -1.5548,5.7197 -2.6113,8.1271 -1.0566,2.4074 -1.9279,5.5574 -1.9363,7 -0.02,3.4688 -0.9559,4.7813 -4.3205,6.0605 -3.0327,1.153 -6.0248,0.1711 -6.9679,-2.2867 -0.6257,-1.6305 0.7593,-8.5981 2.7135,-13.6509 0.7444,-1.925 1.6873,-6.425 2.0952,-10 0.555,-4.865 1.5006,-7.5591 3.7593,-10.7103 2.9123,-4.0633 2.9596,-4.299 1.3537,-6.75 -0.9153,-1.3968 -2.4753,-2.5397 -3.4667,-2.5397 -2.413,0 -5.8434,3.7919 -7.2763,8.043 -0.6408,1.9014 -1.605,4.0195 -2.1425,4.707 -2.5825,3.3029 -9.4199,-0.9261 -8.1669,-5.0512 2.3343,-7.6845 8.1933,-19.6155 10.9012,-22.1988 5.6308,-5.3716 5.9145,-6.046 3.9455,-9.3791 -0.9655,-1.6346 -3.5037,-3.7602 -5.6403,-4.7237 -2.1366,-0.9635 -5.2084,-3.423 -6.8261,-5.4655 -1.6177,-2.0426 -4.0333,-3.9878 -5.3679,-4.3228 -2.6113,-0.6554 -12.8366,2.9311 -25.174,8.8297 -7.5819,3.6249 -21.6729,8.5505 -29.9699,10.4761 -3.6921,0.8569 -5.8379,0.8823 -7.9123,0.094 -1.5655,-0.5952 -4.7044,-0.8035 -6.9754,-0.463 -9.7162,1.4571 -32.0374,-4.1178 -39.6056,-9.8917 -3.1526,-2.4051 -6.3264,-3.7406 -10.9408,-4.6037 -10.5318,-1.9698 -12.559,-3.0696 -32.3774,-17.5653 -2.2674,-1.6584 -5.0259,-4.8882 -6.13,-7.1773 -2.6969,-5.5915 -6.3444,-9.3073 -9.1361,-9.3073 -1.2622,0 -3.9963,0.8847 -6.0757,1.9659 -2.0794,1.0813 -6.9308,2.692 -10.7808,3.5794 -14.5543,3.3547 -25.3596,7.2046 -32,11.4018 -3.6499,2.3069 -7.7157,4.0865 -19,8.316 -9.2107,3.4522 -14.4362,4.7132 -22.00001,5.3086 -4.4,0.3464 -10.475,1.2165 -13.5,1.9336 -8.0955,1.9191 -9.0023,2.0258 -46.5,5.4689 -4.95,0.4545 -11.25,1.3465 -14,1.9823 -2.75,0.6357 -14.7504,1.3061 -26.6676,1.4897 -11.9171,0.1837 -22.1264,0.6175 -22.6871,0.964 -2.8144,1.7394 -17.5792,2.5612 -28.768,1.6011 -15.3157,-1.3141 -22.093,-2.727 -24.4667,-5.1008 -2.3252,-2.3252 -3.2774,-2.3715 -6.4201,-0.3123 -1.7316,1.1346 -3.8247,1.4501 -7.2149,1.0876 -23.5586,-2.519 -31.9538,-2.8786 -38.4758,-1.648 -6.1631,1.1629 -7.5378,1.0821 -15.5307,-0.9128 -6.559,-1.6371 -11.8827,-2.2011 -21.1235,-2.238 -7.9682,-0.032 -13.7763,-0.5511 -16.3595,-1.4625 -2.3918,-0.8438 -5.5341,-1.1686 -7.8007,-0.8062 -2.6942,0.4308 -4.6571,0.098 -6.765,-1.1472 -2.4674,-1.4575 -3.5202,-1.5622 -6.2253,-0.6192 -1.8114,0.6314 -5.527,0.8815 -8.3754,0.5638 -3.3931,-0.3786 -6.5509,-0.055 -9.3638,0.9601 -2.7779,1.0023 -5.9216,1.3327 -9.0998,0.9563 -3.3967,-0.4023 -5.5767,-0.129 -7.2558,0.9095 -1.3201,0.8165 -6.4503,2.041 -11.4003,2.721 -4.95,0.68 -10.3046,1.6416 -11.8992,2.1369 -1.5946,0.4953 -4.6535,0.9005 -6.7977,0.9005 -2.9386,0 -4.5069,0.6564 -6.3692,2.6659 -2.2011,2.375 -3.6959,2.8106 -13.7022,3.9927 -10.64471,1.2576 -24.86333,1.1577 -32.2414,-0.2264 -1.86437,-0.3498 -5.05808,-0.061 -7.17508,0.648 -2.30317,0.7717 -7.72941,1.19 -13.69178,1.0556 -5.43214,-0.1224 -12.18214,0.2218 -15,0.7649 -13.45636,2.5934 -16.94475,3.1126 -28.1234,4.1858 -6.6,0.6337 -14.025,1.27 -16.5,1.414 -2.475,0.1441 -8.325,0.6809 -13,1.1928 -4.675,0.5119 -16.825,0.7522 -27,0.5338 -10.175,-0.2183 -20.75,-0.3281 -23.5,-0.244 -14.00011,0.4281 -26.333,0.049 -29.95345,-0.9215 -5.03109,-1.3482 -20.4082,-3.0445 -35.54655,-3.9213 -8.23572,-0.477 -12.49348,-1.1905 -15,-2.5138 -4.05676,-2.1417 -16.34048,-5.5843 -20.01481,-5.6094 -1.38314,-0.01 -4.19401,-0.9171 -6.24637,-2.0171 -2.05237,-1.1 -4.79423,-2 -6.09304,-2 -1.29881,0 -5.38314,-1.575 -9.07629,-3.5 -3.69315,-1.925 -7.95367,-3.5 -9.46782,-3.5 -3.43011,0 -17.04998,-4.6762 -19.18041,-6.5853 -0.86831,-0.7781 -2.74497,-1.4147 -4.17036,-1.4147 -1.4254,0 -5.66496,-1.5535 -9.42126,-3.4522 -3.7563,-1.8986 -9.60437,-3.8925 -12.99571,-4.4309 -3.39134,-0.5383 -7.44134,-1.6247 -9,-2.4142 -1.55866,-0.7895 -4.63393,-1.7596 -6.83393,-2.1558 -3.86367,-0.6958 -13.89034,-6.0352 -18,-9.5853 -3.05648,-2.6403 -7.56553,-4.617 -12.12118,-5.3137 -2.26665,-0.3467 -6.09165,-1.5244 -8.5,-2.6172 -2.40835,-1.09272 -5.84702,-1.99672 -7.64148,-2.00872 -3.56031,-0.024 -14.66908,-2.9017 -20.24766,-5.2451 -4.81016,-2.0206 -19.38837,-1.699 -23.63471,0.5214 -4.91413,2.5695 -10.60457,3.1411 -13.96616,1.4028 -2.57612,-1.3322 -3.23912,-1.3354 -5.73464,-0.028 -2.30893,1.2097 -4.03329,1.2869 -9.48797,0.4245 -3.66641,-0.5797 -9.83365,-1.4629 -13.70497,-1.9627 -4.84476,-0.6254 -8.23907,-1.7232 -10.889537,-3.5219 -2.15654,-1.4639 -5.25092,-2.61361 -7.03309,-2.61361 -5.2449,0 -12.46219,-2.97765 -14.7642,-6.09127 -1.43674,-1.9433 -3.86128,-3.37349 -7.52402,-4.43827 -3.31645,-0.96412 -7.01632,-3.02766 -9.57728,-5.34155 -4.63859,-4.1911 -9.88145,-7.51041 -13.6731,-8.6566 -7.47597,-2.25993 -32,-21.7274 -32,-25.40199 0,-0.61325 -1.74355,-3.01745 -3.87456,-5.34266 -2.1310195,-2.32521 -5.2810195,-7.02733 -6.9999995,-10.44914 -2.83535005,-5.64405 -3.12379005,-7.08266 -3.10767004611,-15.5 C 0.03070345,890.91718 1.5159035,880.53128 4.4532335,875.5191 c 1.43093,-2.44171 3.00032,-6.88868 3.48752,-9.88217 0.49165,-3.02078 2.1976695,-7.51128 3.8338895,-10.09132 1.62143,-2.55674 3.23939,-6.79031 3.59546,-9.40793 0.35607,-2.61762 1.74189,-6.55931 3.07959,-8.75931 1.3377,-2.2 3.63608,-6.25 5.10752,-9 1.47144,-2.75 4.61868,-7.09099 6.99388,-9.64664 2.37519,-2.55566 5.04048,-6.37452 5.92287,-8.48636 0.88238,-2.11184 2.43207,-4.74585 3.44375,-5.85335 1.01168,-1.10751 2.7461,-3.81365 3.85425,-6.01365 1.10816,-2.2 4.97805,-7.375 8.59976,-11.5 3.62171,-4.125 10.04993,-12 14.28493,-17.5 4.235,-5.5 11.7784,-14.11487 16.7631,-19.14415 4.98469,-5.02928 13.32513,-13.97186 18.534287,-19.8724 5.20916,-5.90054 11.51487,-12.13567 14.01268,-13.85585 2.49781,-1.72018 8.13577,-6.9526 12.52879,-11.6276 4.39303,-4.675 8.35914,-8.66144 8.81359,-8.85876 2.05597,-0.89267 9.39295,-14.01123 9.88407,-17.67274 0.72753,-5.42417 8.05032,-17.50618 14.78966,-24.40176 20.84202,-21.32519 53.41089,-35.7292 64.8299,-28.67187 1.75109,1.08224 19.32238,-1.43532 24.1701,-3.46301 2.475,-1.03524 8.1,-2.59835 12.5,-3.47357 4.4,-0.87522 10.925,-2.8858 14.5,-4.46795 3.575,-1.58215 8.075,-3.15589 10,-3.49719 1.925,-0.34131 7.55,-1.94424 12.5,-3.56208 4.95,-1.61784 14.625,-4.05724 21.5,-5.4209 13.69488,-2.71639 18.89662,-4.05422 42,-10.80196 14.83298,-4.33222 32.06578,-8.00862 46,-9.81351 3.575,-0.46306 9.65,-1.49294 13.5,-2.2886 3.85,-0.79567 9.25,-1.69906 12,-2.00753 2.75,-0.30848 8.6,-1.23768 13,-2.06489 8.71539,-1.63852 47.86508,-5.54628 61.5,-6.13867 4.675,-0.20312 11.66435,-0.841 15.53189,-1.41753 3.86754,-0.57653 15.11754,-1.51116 25,-2.07697 9.88246,-0.5658 26.29311,-1.50112 36.46811,-2.07847 10.175,-0.57736 35.37496,-1.19852 55.99996,-1.38036 20.625,-0.18184 49.65,-0.44552 64.5,-0.58594 27.89,-0.26374 55.8961,0.63226 65.5,2.09554 18.1176,2.76042 34.2425,4.35512 60.5,5.98323 6.6,0.40924 14.7,1.24207 18,1.85074 10.2625,1.89285 22.694,3.21736 30.1849,3.21603 3.9517,-7.1e-4 8.3257,0.43244 9.72,0.96254 1.3943,0.5301 8.5111,1.4422 15.8151,2.02688 18.2634,1.46198 29.5068,2.84888 41.3752,5.10374 5.5523,1.05489 14.7773,2.57187 20.5,3.37107 5.7227,0.7992 13.3298,1.91362 16.9048,2.47649 3.575,0.56287 11.675,1.76123 18.00001,2.66302 6.325,0.90179 12.85,2.1821 14.5,2.84514 1.65,0.66304 7.275,2.01283 12.5,2.99954 8.7291,1.64843 18.055,3.86773 36.5,8.68595 3.85,1.00569 9.25,2.11784 12,2.47143 2.75,0.35359 10.85,2.21867 18,4.14462 7.15,1.92596 15.7,4.05161 19,4.72368 3.3,0.67208 9.0502,2.45103 12.7783,3.95324 3.7281,1.50221 9.3531,3.10238 12.5,3.55593 5.8009,0.83606 23.8426,6.45592 25.7153,8.01016 0.5618,0.46626 6.7095,2.23089 13.6615,3.92142 9.1267,2.21936 13.8724,2.90477 17.0739,2.46595 3.0856,-0.42292 5.3601,-0.12879 7.4797,0.96727 3.5567,1.83923 17.7784,3.21429 29.2913,2.83209 1.925,-0.0639 9.575,-0.15526 17,-0.20301 7.425,-0.0477 15.3357,-0.49713 17.5793,-0.99861 2.2437,-0.50149 9.4437,-1.59469 16,-2.42933 19.3917,-2.4686 45.4058,-6.40056 52.9207,-7.9988 3.85,-0.81881 15.775,-2.19436 26.5,-3.05678 16.7421,-1.34627 50.0961,-4.95777 78.5,-8.49983 4.4,-0.5487 10.7,-1.00491 14,-1.01382 3.3,-0.009 9.9044,-0.65628 14.6764,-1.43863 8.8551,-1.45173 76.6286,-2.40663 112.3236,-1.5826 8.8,0.20315 18.7,0.39046 22,0.41624 8.0558,0.0629 39.7356,-1.27055 46.0647,-1.93898 2.7855,-0.29419 7.9605,-0.091 11.5,0.45156 5.6742,0.86979 24.7512,1.80536 54.9353,2.69412 8.921,0.26268 23.3583,1.19899 51.5,3.33996 6.6,0.50211 16.275,1.70751 21.5,2.67866 5.225,0.97115 11.075,1.67649 13,1.56742 1.925,-0.10907 7.4375,0.48329 12.25,1.31634 17.3348,3.0007 26.3373,4.45756 31.25,5.05714 7.1222,0.86923 33.7157,6.25972 42,8.51336 3.85,1.04735 9.925,2.34006 13.5,2.87269 16.6223,2.47654 26.7346,4.44787 42,8.18762 17.9144,4.38873 41.5352,9.5455 49.5,10.8066 2.75,0.43541 11.525,2.42754 19.5,4.42694 7.975,1.9994 17.425,4.36813 21,5.26385 3.575,0.89572 9.4271,2.21827 13.0047,2.93899 3.5775,0.72073 7.665,1.75159 9.0833,2.29081 1.4182,0.53921 7.2661,1.95375 12.9953,3.14341 5.7292,1.18965 14.0167,2.99559 18.4167,4.0132 4.4,1.0176 14.0078,3.01729 21.3506,4.44375 7.3428,1.42646 14.2847,3.09352 15.4265,3.70458 1.1417,0.61105 6.159,1.47871 11.1494,1.92814 10.308,0.92831 34.5429,7.23932 57.0735,14.86252 8.25,2.79138 19.725,6.4579 25.5,8.14783 5.775,1.68993 15.3598,4.61174 21.2995,6.49291 5.9398,1.88117 11.6963,3.42031 12.7922,3.42031 6.225,0 24.9456,5.17432 37.9083,10.47777 9.4747,3.87638 28.285,10.41942 37.5,13.04411 4.4,1.25324 13.4,3.95324 20,6.00001 6.6,2.04676 13.575,4.10677 15.5,4.57781 1.925,0.47103 6.65,2.03358 10.5,3.47232 3.85,1.43874 9.9399,3.40553 13.533,4.37065 3.5932,0.96511 7.4182,2.22396 8.5,2.79744 1.0819,0.57348 6.692,1.97858 12.467,3.12244 6.8462,1.35604 12.9359,3.31199 17.5,5.6209 3.85,1.94764 8.7784,4.02743 10.9519,4.62177 4.8368,1.32256 25.3363,10.8456 61.0481,28.35984 14.85,7.28293 30.825,14.97922 35.5,17.10287 4.675,2.12366 10.1858,4.89418 12.2461,6.15672 4.7254,2.89564 12.3843,7.06253 25.7539,14.01168 24.807,12.89401 41.232,22.00875 50,27.7465 3.575,2.33947 12.125,7.10106 19,10.58129 6.875,3.48024 15.1098,8.07146 18.2995,10.2027 3.1898,2.13125 8.1398,4.69648 11,5.70052 10.4225,3.65862 25.4217,12.97034 32.2005,19.99058 2.2,2.27834 6.025,5.32922 8.5,6.77973 2.475,1.45051 7.2,4.62534 10.5,7.05517 3.3,2.42983 7.8,5.33634 10,6.4589 3.9064,1.99328 12.105,7.6283 31.6647,21.76376 5.3157,3.84149 10.0421,6.98452 10.5032,6.98452 1.7756,0 10.9737,7.24777 13.8321,10.89915 3.2994,4.21474 9.0883,9.44246 14.5,13.09446 7.983,5.38712 16.1063,13.28772 16.6965,16.23892 0.3721,1.8606 1.7416,3.6715 3.658,4.8369 1.6847,1.0245 3.7566,3.1581 4.6043,4.7412 3.1066,5.8019 7.6436,11.0311 11.7264,13.5154 2.6236,1.5963 5.6941,4.9023 8.229,8.8602 6.751,10.5406 5.2853,18.8138 -3.333,18.8138 -1.6355,0 -4.5729,1.1066 -6.5274,2.4592 -3.8019,2.6309 -10.5447,4.5996 -26.5381,7.7484 -11.0517,2.1758 -13.7952,2.3447 -20.6993,1.2737 -3.8873,-0.6029 -5.2865,-0.3539 -8.2292,1.4648 -2.9754,1.8389 -4.7953,2.152 -11.3164,1.9471 -4.2739,-0.1343 -11.1458,0.289 -15.2708,0.9407 -4.125,0.6517 -12.9,1.6432 -19.5,2.2034 -6.6,0.5601 -15.825,1.4739 -20.5,2.0305 -4.675,0.5567 -18.625,0.9531 -31,0.881 -15.127,-0.088 -23.4831,0.253 -25.5,1.0411 -3.6054,1.4087 -13.6624,1.4093 -28.588,0 -7.4074,-0.6985 -12.2405,-0.711 -14.7395,-0.038 -4.1427,1.1156 -25.7908,-0.86 -32.9594,-3.0078 -3.4584,-1.0362 -4.7141,-0.9624 -8.3449,0.4904 -3.506,1.4028 -8.4448,1.7666 -27.4851,2.0248 -12.7662,0.1732 -23.8124,0.6883 -24.5471,1.1447 -1.8735,1.1637 -51.5596,1.348 -67.7648,0.2514 -7.3859,-0.4999 -21.5609,-1.119 -31.5,-1.3759 -23.1902,-0.5994 -21.4275,-0.5956 -33.0712,-0.071 -5.5,0.2477 -11.575,0.1216 -13.5,-0.2802 -1.925,-0.4018 -8.225,-0.4058 -14,-0.01 -11.1586,0.767 -39.5965,-0.9447 -62,-3.7318 -22.7926,-2.8354 -27.3572,-3.0505 -45.5,-2.144 -9.9,0.4947 -20.925,0.6129 -24.5,0.2626 -3.575,-0.3502 -8.975,-0.7834 -12,-0.9625 -3.025,-0.1792 -10.675,-0.7716 -17,-1.3166 -6.325,-0.5449 -12.85,-1.0165 -14.5,-1.0479 -1.65,-0.031 -6.375,-0.2747 -10.5,-0.5407 -7.5615,-0.4876 -19.4439,-1.1068 -41.5,-2.1628 -6.6,-0.316 -14.925,-1.014 -18.5,-1.5511 -11.6188,-1.7455 -32.3454,-2.343 -47.1513,-1.3593 -7.584,0.5038 -9.1738,0.3082 -12.8863,-1.5858 -3.2774,-1.672 -5.2782,-2.0292 -8.8487,-1.5799 -13.0316,1.6401 -16.8482,1.6635 -31.5412,0.1931 -8.7601,-0.8767 -22.4851,-1.6029 -30.5,-1.6138 -8.0149,-0.011 -17.7225,-0.4889 -21.5725,-1.0622 -9.5079,-1.4158 -17.9557,-1.9316 -38,-2.3201 -9.35,-0.1812 -18.9346,-0.8632 -21.2992,-1.5155 -2.3645,-0.6523 -5.073,-0.9403 -6.0189,-0.6401 -1.749,0.5551 -19.5747,-0.6108 -37.6819,-2.4647 -5.5,-0.5631 -13.825,-1.1956 -18.5,-1.4057 -4.675,-0.21 -11.875,-0.8776 -16,-1.4835 -19.3324,-2.8397 -26.4945,-3.4874 -39.5,-3.5719 -8.5525,-0.056 -14.8082,-0.5406 -16.077,-1.2464 -1.1424,-0.6354 -4.5174,-1.4332 -7.5,-1.7729 -2.9827,-0.3397 -8.573,-1.2437 -12.423,-2.009 -6.3439,-1.2609 -27.5399,-3.2223 -35,-3.2387 -19.0017,-0.042 -29.0561,-0.5799 -31.7987,-1.7018 -1.7607,-0.7202 -6.3513,-1.619 -10.2013,-1.9973 -3.85,-0.3783 -8.6156,-1.1049 -10.5903,-1.6147 -1.9747,-0.5097 -7.8247,-1.1436 -13,-1.4086 -5.1753,-0.265 -13.4597,-1.1592 -18.4097,-1.987 -4.95,-0.8279 -11.025,-1.5142 -13.5,-1.5252 -2.475,-0.011 -8.7329,-1.154 -13.9065,-2.54 -9.2126,-2.4681 -22.591,-3.9865 -44.5935,-5.0612 -6.05,-0.2955 -12.5284,-1.0162 -14.3965,-1.6014 -3.5473,-1.1113 -5.7389,-1.2666 -31.1035,-2.2029 -8.525,-0.3147 -16.4956,-0.8098 -17.7123,-1.1004 -1.2168,-0.2905 -9.5978,-0.7588 -18.6245,-1.0406 -9.0358,-0.2821 -18.8281,-1.1406 -21.7877,-1.91 -2.9565,-0.7687 -11.0005,-1.9137 -17.8755,-2.5444 -6.875,-0.6308 -14.1272,-1.567 -16.116,-2.0805 -1.9888,-0.5134 -6.0388,-0.9446 -9,-0.9581 -2.9612,-0.014 -7.8729,-0.858 -10.915,-1.8765 -6.4456,-2.1582 -17.4231,-3.2726 -34.3761,-3.4898 -10.0363,-0.1286 -12.8582,-0.5162 -16.5929,-2.2793 -2.6622,-1.2568 -7.6288,-2.3843 -12.1612,-2.7608 -10.0144,-0.8318 -19.1897,-2.84942 -25.0942,-5.51802 -2.6154,-1.1821 -8.0154,-2.5406 -12,-3.0189 -3.9845,-0.4782 -10.9403,-1.6729 -15.4572,-2.6549 -4.5169,-0.9819 -8.5025,-1.49542 -8.8569,-1.141 -0.3544,0.3544 1.3163,2.9215 3.7126,5.7047 3.1604,3.6706 5.3181,5.23892 7.8569,5.71062 1.925,0.3577 4.85,1.6587 6.5,2.8912 1.65,1.2325 5.25,3.1992 8,4.3706 4.0224,1.7133 5.7171,3.2497 8.6674,7.8582 2.0171,3.1507 4.1435,7.5285 4.7254,9.7285 1.4447,5.4619 4.4361,11.1016 7.5291,14.1946 1.418,1.418 2.5781,3.2018 2.5781,3.9641 0,0.7623 1.7787,3.3157 3.9527,5.6742 5.4286,5.8893 6.2685,8.6246 6.1929,20.1671 -0.036,5.5 0.3525,12.475 0.8634,15.5 0.5109,3.025 1.1254,10.225 1.3655,16 0.6047,14.543 3.9347,24.1367 11.0313,31.7804 2.447,2.6358 2.834,3.6184 1.969,5 -4.3012,6.8703 -17.8827,-5.0623 -22.1734,-19.4814 -1.1128,-3.7394 -2.3305,-9.1615 -2.7061,-12.049 -0.5354,-4.1159 -1.0683,-5.25 -2.4667,-5.25 -0.981,0 -2.3597,-0.6941 -3.0638,-1.5424 -2.556,-3.0799 -3.4589,0.4014 -3.8132,14.7036 -0.3737,15.0813 0.3847,19.7547 4.5747,28.1896 1.5023,3.0243 2.2972,6.1546 2.1113,8.3133 -0.3195,3.7073 4.0055,11.7717 9.4124,17.5506 3.0134,3.2207 3.3756,4.7597 1.55,6.5853 -1.7639,1.7639 -5.8668,1.4567 -9.4114,-0.7048 z M 571.38724,495.94977 c -0.23577,-0.23584 -17.01802,-0.5346 -37.29388,-0.66392 -39.57336,-0.25239 -63.12228,-1.54815 -75.11053,-4.1329 -4.125,-0.88937 -8.85,-1.55696 -10.5,-1.48353 -8.75463,0.38962 -11.16571,0.13437 -16.64622,-1.76227 -4.77426,-1.65223 -7.27821,-1.93834 -12.38497,-1.41514 -4.26594,0.43706 -9.16388,0.12519 -14.68484,-0.93502 -4.55618,-0.87494 -11.88397,-2.08093 -16.28397,-2.67997 -23.2301,-3.16267 -27.99291,-4.09049 -38.53166,-7.50618 -12.11132,-3.92536 -25.62239,-6.39857 -35.2748,-6.45708 -4.61235,-0.0279 -8.33866,-1.06529 -18.11958,-5.04418 -17.04784,-6.93508 -23.30112,-8.98684 -27.48051,-9.01661 -2.3645,-0.0168 -5.47443,-1.22532 -9.09345,-3.5336 -3.025,-1.9294 -8.39015,-4.40222 -11.92255,-5.49516 -3.53241,-1.09294 -6.92086,-2.40072 -7.52989,-2.90617 -0.60903,-0.50545 -4.65187,-2.28388 -8.98407,-3.95207 -4.33221,-1.66818 -8.84022,-3.9382 -10.01781,-5.04449 -1.17759,-1.10628 -4.72451,-2.90026 -7.88205,-3.98661 -3.15754,-1.08636 -6.96108,-2.84196 -8.45231,-3.90135 -1.49122,-1.05939 -4.51132,-2.67545 -6.71132,-3.59124 -2.2,-0.91579 -5.49367,-3.10477 -7.31926,-4.86439 -3.07181,-2.96081 -3.27187,-3.53479 -2.68359,-7.69932 0.61305,-4.3398 0.57809,-4.42018 -0.98202,-2.25774 -3.18327,4.41227 -4.82268,4.5566 -14.25732,1.25516 -4.8168,-1.68553 -10.17582,-3.72448 -11.90894,-4.53101 -1.73312,-0.80653 -3.45508,-1.46641 -3.82657,-1.46641 -2.75811,0 -19.90399,-8.62974 -28.5223,-14.35564 -14.01928,-9.31423 -18.02185,-12.67852 -24.24583,-20.37938 -2.88979,-3.57552 -7.789787,-8.22938 -10.888877,-10.34193 -6.96557,-4.74819 -11.88119,-11.31427 -15.8034,-21.10951 -5.92187,-14.78919 -4.99632,-29.02895 3.62775,-55.81354 0.7969,-2.475 2.79966,-9.61354 4.45059,-15.86342 2.9757,-11.26509 9.20767,-25.70012 12.78197,-29.60673 1.02145,-1.11642 3.054537,-4.27985 4.517967,-7.02985 4.37716,-8.2253 6.86638,-12.00439 10.68982,-16.22912 1.9965,-2.20604 5.49961,-7.10696 7.78468,-10.89093 6.89838,-11.42337 13.22058,-19.76576 20.46555,-27.00509 3.78413,-3.78117 9.05723,-9.61677 11.71801,-12.968 2.66078,-3.35122 8.03467,-8.75122 11.94197,-12 3.9073,-3.24877 10.24913,-8.92468 14.09295,-12.61314 4.14475,-3.97721 9.30388,-7.77378 12.67781,-9.32951 13.40496,-6.18108 26.26398,-12.89625 27.52231,-14.37254 1.17696,-1.38082 8.42374,-16.998114 14.42725,-31.091669 2.45953,-5.773883 17.12843,-21.200839 23.79478,-25.024437 7.11524,-4.081063 15.13802,-5.945979 28.4447,-6.612038 9.04785,-0.452886 12.77938,-0.219085 17.5,1.096472 9.88597,2.755054 11.47842,3.595983 12.15098,6.416592 0.99037,4.153459 1.18051,4.205005 6.14276,1.665308 8.35901,-4.278163 17.60649,-8.36325 21.70626,-9.588763 2.2,-0.65763 5.44073,-2.064366 7.20163,-3.12608 4.31823,-2.603627 27.26772,-10.757835 35.14462,-12.487276 3.49044,-0.766356 7.81128,-2.005497 9.60185,-2.753648 1.79058,-0.748151 5.23477,-1.686603 7.65375,-2.085447 8.28461,-1.365977 37.41163,-8.315532 43.62532,-10.408774 3.41536,-1.15055 8.58643,-2.109771 11.49128,-2.131601 5.52791,-0.04154 14.79839,-1.58386 25.78155,-4.289236 9.20718,-2.267915 23.9772,-4.4673281 34.5,-5.1374171 4.95,-0.315214 11.20902,-1.239238 13.90893,-2.053386 2.69991,-0.814148 8.09991,-1.493589 12,-1.509869 3.90009,-0.01628 13.39107,-0.717371 21.09107,-1.557979 21.09029,-2.30242501 77.90606,-2.84137801 97.49996,-0.924882 25.0085,2.446089 26.0991,2.605994 34.6249,5.076675 5.5161,1.598515 12.9431,2.688299 23.0101,3.376368 10.6697,0.7292561 17.2254,1.7277041 23.2283,3.5377101 4.5999,1.386939 9.7749,2.527049 11.5,2.533577 4.7631,0.01802 12.8244,2.428189 17.7367,5.302915 2.4217,1.417246 8.8961,3.542066 14.4,4.725922 5.5,1.183017 12.25,3.287233 15,4.676035 2.75,1.388803 7.5049,3.784276 10.5664,5.323273 3.8075,1.914075 9.6527,3.484552 18.5,4.970548 10.1848,1.710677 15.0589,3.122952 22.9336,6.645065 9.377,4.194004 10.9206,4.562261 24.7734,5.910128 10.3227,1.004389 16.9504,2.206016 22,3.988643 7.1046,2.508136 10.0513,3.010665 34.4018,5.866957 6.6963,0.785473 12.9963,1.851698 14,2.369388 3.3221,1.713551 12.5595,2.411322 36.3248,2.743916 18.96831,0.26546 24.84991,0.01728 30.50001,-1.28697 4.7541,-1.097407 12.7753,-1.694331 25,-1.860453 21.4608,-0.291632 30.7016,-0.77577 32.1738,-1.685623 0.5979,-0.369503 5.991,-1.102166 11.9848,-1.62814 8.4282,-0.739611 12.7042,-1.685318 18.8695,-4.173383 6.0264,-2.431945 10.8129,-3.513608 19.6128,-4.432156 6.4025,-0.668298 12.1056,-1.502263 12.6735,-1.853255 0.568,-0.350992 5.9045,-0.875038 11.8591,-1.164547 5.9546,-0.289509 14.1341,-0.996854 18.1767,-1.571879 4.0426,-0.575025 11.6926,-0.945912 17,-0.824194 5.3074,0.121718 15.4998,-0.527659 22.6498,-1.443061 7.15,-0.915401 17.05,-2.095394 22,-2.622205 4.95,-0.526811 12.825,-1.67204 17.5,-2.544954 4.675,-0.872913 13.225,-2.194239 19,-2.936279 14.3246,-1.840593 20.7884,-3.161519 32.5,-6.641653 5.5,-1.634334 12.7,-3.367907 16,-3.852384 3.3,-0.484477 8.25,-1.404305 11,-2.044064 14.6624,-3.411057 23.6666,-5.241158 29.5,-5.995886 3.575,-0.462535 9.2,-1.319515 12.5,-1.9044 3.3,-0.584885 11.7145,-1.502215 18.6988,-2.038511 6.9844,-0.536295 17.1094,-1.923254 22.5,-3.08213 5.3907,-1.158877 15.4262,-2.70886 22.3012,-3.4444081 6.875,-0.735548 14.3,-1.81614 16.5,-2.401317 2.2,-0.585176 9.85,-1.341138 17,-1.679915 7.15,-0.338777 17.5,-1.530288 23,-2.647802 8.723,-1.77237401 13.3841,-2.01093401 36.5,-1.86811101 14.575,0.09005 38.2,0.52637201 52.5,0.96959601 15.6473,0.484983 28.3891,0.431409 32,-0.134546 3.3,-0.517226 20.4,-1.16254901 38,-1.43405201 26.0205,-0.4014 33.7752,-0.202491 41.5,1.06448501 11.8947,1.950896 37.6272,5.39546 49.5,6.626098 16.6673,1.727595 30.9815,3.7975381 33.7591,4.8818271 1.5176,0.59238 8.4926,2.011366 15.5,3.153304 7.0075,1.141937 14.7659,2.689683 17.2409,3.439435 2.475,0.749752 7.875,1.659173 12,2.020937 4.125,0.361764 11.325,1.329614 16,2.150778 4.675,0.821165 12.325,2.082231 17,2.80237 7.7184,1.188949 29.512,8.66345 37.8853,12.99348 5.9253,3.064067 16.8792,6.722922 31.6147,10.55995 18.273,4.758177 26.4442,7.62947 52.5,18.448048 16.3106,6.772293 38.6774,15.551311 39.6209,15.551311 0.3761,0 8.8278,3.86141 18.7815,8.580905 9.9537,4.71951 22.5976,10.679014 28.0976,13.243354 5.5,2.56435 13.825,6.84849 18.5,9.52032 4.675,2.67184 11.3219,6.13835 14.7708,7.70337 3.4489,1.56501 7.605,3.79555 9.2358,4.95675 1.6308,1.1612 9.6089,5.61569 17.7292,9.89888 8.1203,4.28318 20.6142,11.62456 27.7642,16.31417 7.15,4.68961 15.475,9.76788 18.5,11.28506 3.025,1.51717 7.2016,4.09871 9.2814,5.73676 2.0798,1.63805 9.7957,6.0299 17.1464,9.75968 7.3507,3.72978 18.4741,10.13502 24.7186,14.23387 6.2445,4.09885 12.4786,8.04703 13.8536,8.77373 6.8871,3.63993 31.9838,21.00625 36.8976,25.53227 3.0813,2.83817 9.4274,7.67914 14.1024,10.75772 4.675,3.07858 10.975,7.44202 14,9.69655 3.025,2.25452 8.2,5.87025 11.5,8.03495 3.3,2.1647 9.825,6.85232 14.5,10.41693 4.675,3.56461 10.975,7.80148 14,9.41527 5.802,3.09526 10.7286,6.52882 24.5925,17.13946 4.6711,3.575 10.3862,7.82096 12.7002,9.43546 3.9804,2.77715 8.3988,6.25022 27.2073,21.38603 4.4,3.54083 9.125,7.71754 10.5,9.28156 1.375,1.56403 5.5659,4.42845 9.3132,6.36538 6.628,3.42596 20.4056,13.54514 26.2783,19.3004 1.5997,1.56773 5.5512,4.39859 8.7811,6.29079 3.23,1.89221 7.505,5.19583 9.5,7.34138 3.8873,4.18054 4.0906,4.37173 11.525,10.8387 5.2203,4.54101 7.6024,8.83308 7.6024,13.69824 0,2.20375 0.827,3.60854 3.1094,5.28212 5.7697,4.23054 5.8439,9.55478 0.1607,11.53595 -1.5247,0.53151 -4.522,2.15385 -6.6607,3.60519 -2.2331,1.51543 -5.2748,2.6388 -7.1449,2.6388 -2.6268,0 -4.0015,0.87418 -7.1104,4.52163 -6.4864,7.60988 -21.75,11.95629 -54.3541,15.47769 -5.225,0.56432 -11.975,1.44704 -15,1.96159 -3.025,0.51455 -6.6797,0.69242 -8.1217,0.39527 -1.4616,-0.30122 -3.9578,0.1507 -5.6415,1.02135 -2.1614,1.11773 -5.1115,1.4647 -10.3783,1.22066 -4.0472,-0.18753 -11.6335,0.29419 -16.8585,1.0705 -9.8785,1.46768 -30.8198,2.9514 -54,3.82594 -7.425,0.28013 -15.4471,0.76619 -17.8268,1.08015 -2.8936,0.38173 -5.9629,-0.0175 -9.2658,-1.20518 -4.1106,-1.47817 -5.6489,-1.58746 -9.1731,-0.65168 -2.4157,0.64143 -8.3144,0.93054 -13.7343,0.67314 -5.225,-0.24814 -14.45,-0.6052 -20.5,-0.79347 -6.05,-0.18826 -11.675,-0.61898 -12.5,-0.95713 -0.825,-0.33816 -6.675,-0.83122 -13,-1.09568 -6.325,-0.26447 -14.2,-0.90402 -17.5,-1.42122 -3.7969,-0.59508 -11.2606,-0.57837 -20.3269,0.0455 -7.8797,0.54224 -15.0797,0.69513 -16,0.33974 -0.9202,-0.35539 -5.0481,-1.03643 -9.1731,-1.51343 -4.125,-0.47699 -9.6427,-1.81944 -12.2615,-2.98322 -2.6189,-1.16378 -5.1686,-1.8644 -5.6661,-1.55692 -0.4975,0.30748 -1.9562,0.15923 -3.2415,-0.32944 -1.2853,-0.48867 -8.8483,-1.20232 -16.8068,-1.58588 -7.9584,-0.38356 -14.907,-0.96756 -15.4413,-1.29778 -0.5343,-0.33022 -4.1465,-0.93431 -8.0271,-1.34243 -11.557,-1.21544 -23.772,-2.91442 -28.3201,-3.93903 -2.3453,-0.52839 -8.1953,-0.97231 -13,-0.9865 -9.9507,-0.0294 -26.3438,-1.47223 -33.7356,-2.96925 -7.9759,-1.61532 -32.479,-3.28737 -52,-3.54841 -73.3944,-0.98142 -86.0062,-1.57483 -90.6859,-4.26691 -2.446,-1.4071 -3.2156,-1.38472 -8.6164,0.25051 -5.3542,1.62111 -9.1747,1.74732 -39.3141,1.29875 -21.2634,-0.31647 -34.6543,-0.91699 -36.8836,-1.65407 -1.925,-0.63646 -10.25,-1.33248 -18.5,-1.54671 -8.25,-0.21423 -16.2668,-0.87294 -17.8151,-1.46381 -1.5483,-0.59086 -4.8404,-1.0743 -7.3157,-1.0743 -2.4754,0 -5.3168,-0.43679 -6.3143,-0.97064 -0.9976,-0.53386 -14.1305,-1.23331 -29.1843,-1.55434 -15.0538,-0.32103 -28.9456,-1.00673 -30.8706,-1.52378 -4.3439,-1.16675 -11.1156,-1.22285 -14.1849,-0.11751 -2.2794,0.82087 -8.6589,0.48828 -42.3151,-2.20608 -9.35,-0.74852 -22.4,-1.29503 -29,-1.21447 -6.6,0.0806 -17.175,-0.41541 -23.5,-1.10216 -6.325,-0.68675 -19.4073,-1.26267 -29.0719,-1.27983 -13.4568,-0.0239 -18.6771,-0.40781 -22.2917,-1.6394 -3.8336,-1.30625 -5.5462,-1.40013 -9.1209,-0.5 -5.3943,1.35828 -15.0549,1.41772 -22.853,0.1406 -3.2106,-0.52581 -10.1856,-0.94986 -15.5,-0.94232 -50.5355,0.0717 -60.8673,-0.20156 -67.1625,-1.77616 -13.3445,-3.33784 -20.654,-4.55499 -26,-4.32942 -17.9503,0.7574 -56.5148,-2.25887 -63.5,-4.96656 -3.4987,-1.3562 -24.6024,-2.96783 -46,-3.51288 -8.25,-0.21015 -17.25,-0.89813 -20,-1.52883 -2.75,-0.6307 -14.0503,-1.26837 -25.1118,-1.41705 -11.0615,-0.14867 -20.6527,-0.60464 -21.3139,-1.01325 -1.5775,-0.97493 -18.2043,-2.74617 -29.5743,-3.15051 -12.1889,-0.43346 -31.8867,-2.23525 -38,-3.47592 -2.75,-0.5581 -9.95,-1.14804 -16,-1.31098 -7.5758,-0.20403 -12.2416,-0.82691 -14.9884,-2.00096 -2.1936,-0.93759 -5.0023,-1.45022 -6.2416,-1.13919 -1.2392,0.31103 -3.8565,-0.1044 -5.8161,-0.92318 -1.9597,-0.81879 -8.977,-2.86192 -15.594,-4.54028 -6.6171,-1.67837 -14.5903,-4.12875 -17.7183,-5.4453 -3.128,-1.31655 -8.8822,-2.70855 -12.7872,-3.09334 -7.9671,-0.78506 -8.449,-0.59035 -24.8544,10.04175 -16.14041,10.46043 -17.86991,11.49202 -19.26701,11.49202 -1.833,0 -6.5457,3.27049 -12.2476,8.49957 -2.483,2.27714 -6.758,5.43119 -9.5,7.00901 -2.7419,1.57782 -6.2414,3.89539 -7.7765,5.15014 -3.6417,2.97659 -18.199,10.89728 -23.4014,12.7328 -2.2404,0.79046 -10.5632,4.62574 -18.4952,8.52284 -7.9319,3.8971 -15.4275,7.08564 -16.6568,7.08564 -2.6729,0 -9.2667,3.22414 -11.0922,5.42376 -1.589,1.91471 -9.3689,4.32272 -17.9175,5.5458 -3.4948,0.50002 -7.2055,1.67954 -8.246,2.62116 -2.3077,2.08841 -12.2894,6.4331 -16.3998,7.13824 -1.65,0.28306 -3.7896,1.2065 -4.7547,2.0521 -0.9651,0.84559 -3.6651,1.85583 -6,2.24497 -2.3349,0.38915 -8.9703,2.07918 -14.7453,3.75564 -5.775,1.67645 -13.875,3.55496 -18,4.17447 -10.77,1.61747 -21.1863,4.14811 -23.4725,5.70261 -1.0848,0.73769 -2.7378,1.34125 -3.6732,1.34125 -0.9354,0 -4.9977,1.75958 -9.0275,3.91018 -7.1121,3.79561 -11.0973,4.89002 -30.8268,8.46564 -13.7303,2.48836 -20.8811,3.5017 -31.5,4.46383 -5.5,0.49833 -13.5444,1.86327 -17.8766,3.0332 -4.3321,1.16993 -9.2851,2.12715 -11.0066,2.12715 -1.7215,0 -4.702,0.51059 -6.6234,1.13464 -1.9213,0.62406 -10.6934,1.30591 -19.4934,1.51523 -8.8,0.20932 -17.8448,0.63954 -20.0996,0.95605 -2.5604,0.3594 -5.8589,-0.0218 -8.785,-1.01522 -5.4448,-1.84857 -14.81168,-2.09118 -17.85495,-0.46248 -1.98868,1.06431 -31.37844,1.92084 -32.356,0.94298 z"
     id="path2987"
     inkscape:connector-curvature="0" />
</svg>
