<?xml version="1.0" encoding="UTF-8" standalone="no"?>
<!-- Created with Inkscape (http://www.inkscape.org/) -->

<svg
   xmlns:dc="http://purl.org/dc/elements/1.1/"
   xmlns:cc="http://creativecommons.org/ns#"
   xmlns:rdf="http://www.w3.org/1999/02/22-rdf-syntax-ns#"
   xmlns:svg="http://www.w3.org/2000/svg"
   xmlns="http://www.w3.org/2000/svg"
   xmlns:sodipodi="http://sodipodi.sourceforge.net/DTD/sodipodi-0.dtd"
   xmlns:inkscape="http://www.inkscape.org/namespaces/inkscape"
   id="svg2"
   version="1.1"
   inkscape:version="0.48.2 r9819"
   width="1888"
   height="1493"
   sodipodi:docname="FleaB.png">
  <metadata
     id="metadata8">
    <rdf:RDF>
      <cc:Work
         rdf:about="">
        <dc:format>image/svg+xml</dc:format>
        <dc:type
           rdf:resource="http://purl.org/dc/dcmitype/StillImage" />
        <dc:title></dc:title>
      </cc:Work>
    </rdf:RDF>
  </metadata>
  <defs
     id="defs6" />
  <sodipodi:namedview
     pagecolor="#ffffff"
     bordercolor="#666666"
     borderopacity="1"
     objecttolerance="10"
     gridtolerance="10"
     guidetolerance="10"
     inkscape:pageopacity="0"
     inkscape:pageshadow="2"
     inkscape:window-width="1920"
     inkscape:window-height="1176"
     id="namedview4"
     showgrid="false"
     inkscape:zoom="0.4470923"
     inkscape:cx="944"
     inkscape:cy="746.5"
     inkscape:window-x="0"
     inkscape:window-y="24"
     inkscape:window-maximized="1"
     inkscape:current-layer="svg2" />
  <path
     style="fill:#000000"
     d="m 1155.8812,1491.1938 -3.0811,1.7995 -0.6634,-0.6633 -0.6633,-0.6633 0,-18.2229 0,-18.2229 -1.5139,-7.9807 c -0.8327,-4.3895 -2.6379,-11.7517 -4.0116,-16.3605 l -2.4977,-8.3797 -1.7528,-2.5 c -0.964,-1.375 -2.4173,-3.7983 -3.2296,-5.385 l -1.4769,-2.885 -2.2899,-1.5005 -2.29,-1.5004 -0.5984,0.5984 -0.5984,0.5984 2.6682,7.1984 2.6682,7.1985 -1.032,1.032 -1.032,1.032 -3.0736,-2.9434 -3.0737,-2.9434 -5.0106,-8.7544 -5.0106,-8.7544 -5.1133,-5.5947 -5.1133,-5.5947 -1.309,1.7902 -1.3091,1.7903 0,3.4257 c 0,1.8841 1.1513,10.1383 2.5584,18.3425 l 2.5583,14.9169 -0.3504,3.7163 -0.3505,3.7163 -2.1018,-4.5 -2.1019,-4.5 -4.1418,-23 -4.1419,-23 -3.7142,-5.134 c -2.0428,-2.8236 -7.1657,-9.3908 -11.3842,-14.5937 -4.2184,-5.2029 -9.1513,-10.7064 -10.962,-12.2299 l -3.2921,-2.7701 -0.375,1.125 c -0.2063,0.6188 0.8225,6.8576 2.2862,13.8639 1.4637,7.0063 4.9048,22.11 7.6468,33.5637 l 4.9856,20.8249 -0.3877,2.1751 -0.3878,2.1751 -1.7423,-3.8863 c -0.9584,-2.1374 -3.934,-12.2624 -6.6126,-22.5 -2.6786,-10.2375 -5.5933,-20.6387 -6.477,-23.1137 -0.8838,-2.475 -2.6894,-8.8688 -4.0124,-14.2086 -1.323,-5.3397 -3.0947,-11.0413 -3.9371,-12.6703 l -1.5316,-2.9618 -4.7597,-3.8296 c -2.6179,-2.1064 -8.4112,-7.6009 -12.8741,-12.2102 l -8.1144,-8.3804 -1.3914,0.4577 -1.3914,0.4578 -0.3076,3.6264 -0.3076,3.6264 3.0579,10.7963 c 1.6818,5.938 4.6202,18.4463 6.5296,27.7963 1.9095,9.35 4.4075,21.4554 5.5511,26.9009 l 2.0793,9.9009 -0.3013,3.5218 -0.3014,3.5218 -1.1248,0.3689 -1.1248,0.3689 -1.5806,-3.9505 c -0.8694,-2.1728 -2.5007,-7.5539 -3.6252,-11.9582 -1.1246,-4.4042 -2.0446,-9.3687 -2.0446,-11.0321 l 0,-3.0244 -1.0163,-0.6281 -1.0163,-0.6281 0.5028,-0.8136 0.5028,-0.8135 -2.0451,-5.8674 c -1.1248,-3.227 -3.5919,-12.2854 -5.4824,-20.1297 l -3.4373,-14.2624 -3.7541,-9.2376 -3.7541,-9.2376 -5.4647,-5.5 -5.4646,-5.5 -0.3621,2.8565 -0.362,2.8564 1.6902,7.5971 c 0.9296,4.1785 3.6731,14.368 6.0967,22.6436 l 4.4065,15.0464 0.5591,5.5 0.559,5.5 -2.0444,-2.5 c -1.1245,-1.375 -2.4685,-3.625 -2.9868,-5 -0.5183,-1.375 -2.7533,-7.4604 -4.9667,-13.5232 l -4.0243,-11.0232 -4.65884,-17.9768 -4.6587,-17.9768 -2.7426,-5 c -1.5084,-2.75 -6.4767,-10.85 -11.0407,-18 -4.564,-7.15 -8.9243,-14.0125 -9.6897,-15.25 -0.7653,-1.2375 -1.8311,-2.25 -2.3685,-2.25 l -0.9769,0 0,4.25 0,4.25 2.9953,15.5 c 1.6474,8.525 3.8958,21.0223 4.9963,27.7717 1.1006,6.7495 2.001,14.062 2.001,16.25 l 0,3.9783 -0.9678,0 -0.9679,0 -2.4849,-8.25 c -1.3667,-4.5375 -3.8676,-13.7815 -5.5575,-20.5421 -1.69,-6.7607 -4.4217,-20.2588 -6.0706,-29.9958 l -2.998,-17.7037 -3.9345,-15.0042 c -2.1639,-8.2523 -4.4264,-18.1315 -5.0277,-21.9538 l -1.0932,-6.9495 -3.888,-12.0505 c -2.1385,-6.6277 -4.6122,-14.8992 -5.4972,-18.381 -0.8851,-3.4819 -2.6397,-8.6569 -3.8992,-11.5 l -2.2901,-5.1694 -1.5776,-1.3026 -1.5776,-1.3027 -0.6774,2.1343 -0.6774,2.1342 0.6766,7.1684 c 0.3721,3.9426 1.2868,9.6434 2.0328,12.6684 l 1.3563,5.5 0.01,6.0215 0.01,6.0215 1.991,8.9785 c 1.0951,4.9382 3.8795,20.2285 6.1876,33.9785 l 4.1966,25 0.1157,7.9719 0.1156,7.9719 -1.6191,0.3262 -1.6192,0.3263 -1.2139,-4.7982 c -0.6677,-2.6389 -2.3131,-9.7481 -3.6564,-15.7981 -1.3433,-6.05 -4.2161,-20.45 -6.3841,-32 -2.1679,-11.55 -5.5385,-31.125 -7.4903,-43.5 -1.9518,-12.375 -3.9795,-27.4004 -4.506,-33.3898 -0.5265,-5.9894 -1.2159,-11.1485 -1.5321,-11.4647 l -0.5748,-0.5748 -1.702,1.0622 -1.7021,1.0622 -1.1858,3.5356 -1.1859,3.5355 -2.5902,26.0415 -2.5901,26.0415 1.0131,37.3254 c 0.5572,20.529 1.1799,43.6254 1.3837,51.3254 0.2038,7.7 0.1603,15.6875 -0.097,17.75 l -0.4671,3.75 -1.8906,0 -1.8906,0 0,-5.25 c 0,-2.8875 -0.6507,-9.075 -1.442,-13.75 l -1.4389,-8.5 -1.2113,-20.5 -1.2113,-20.5 -0.029,-32 -0.029,-32 1.741,-19 c 0.9576,-10.45 1.9817,-25.75 2.2758,-34 l 0.5348,-15 -3.1588,-18.5 -3.1588,-18.5 -1.4147,-2.1846 -1.4147,-2.1846 -3.4881,-12.379 -3.4881,-12.379 -1.5088,-9.4364 c -0.8299,-5.19 -1.9681,-15.5114 -2.5293,-22.9364 -0.5613,-7.425 -1.0216,-18.7324 -1.0229,-25.12756 l 0,-11.62755 -1.4016,-1.16323 -1.4016,-1.16324 -9.1458,-1.12607 -9.1459,-1.12608 -1.4756,1.47568 -1.4757,1.47567 1.4277,4.0466 c 0.7853,2.22563 4.3515,10.74917 7.925,18.94118 3.5735,8.192 6.7967,15.9071 7.1627,17.1446 l 0.6656,2.25 -1.4946,0 -1.4946,0 -2.845,-3.4515 c -1.5648,-1.8983 -4.7229,-7.1858 -7.018,-11.75 -2.2951,-4.5642 -5.5549,-11.39427 -7.244,-15.17799 l -3.0712,-6.87948 -3.7337,0.50654 c -2.0535,0.2786 -7.0204,1.48813 -11.0375,2.68785 l -7.3038,2.1813 -0.6094,1.58825 -0.6095,1.58825 5.1804,18.10338 c 2.8492,9.9569 5.6535,20.4355 6.2316,23.2859 l 1.0513,5.1825 -0.3184,3.3175 -0.3184,3.3175 -1.5,0 -1.5,0 -2.1329,-7.5018 c -1.173,-4.126 -3.2592,-10.201 -4.636,-13.5 -1.3767,-3.299 -4.3677,-11.7572 -6.6465,-18.7961 l -4.1435,-12.79785 0.6157,-0.9961 0.6156,-0.9961 -1.6093,-2.45603 -1.6092,-2.45602 -2.9317,0 -2.9316,0 -0.4992,3.25 c -0.2746,1.7875 -0.6904,12.0651 -0.924,22.839 l -0.4247,19.589 -1.1566,2.161 c -0.636,1.1886 -1.5419,2.161 -2.0129,2.161 l -0.8564,0 -0.6723,-2.6785 -0.6722,-2.6786 0.2184,-18.1669 0.2184,-18.1669 -0.6298,-1.01889 c -0.3463,-0.56038 -1.1172,-8.39243 -1.7131,-17.40455 l -1.0834,-16.38566 -0.9414,-0.95 -0.9414,-0.95 0,1.05842 0,1.05842 -5.5383,3.67723 -5.5383,3.67722 -0.9234,2.42871 -0.9234,2.42871 -5.2883,3.46776 -5.2883,3.46776 -5.917,1.68739 -5.917,1.6874 -4.9048,-0.5809 c -2.6977,-0.3195 -8.81,-1.76057 -13.583,-3.20238 l -8.6782,-2.62148 -4.0108,-2.31907 -4.0107,-2.31908 -2.1466,-3.84805 c -1.1806,-2.11643 -2.6228,-5.64806 -3.2048,-7.84806 -0.5821,-2.2 -1.9786,-11.65 -3.1035,-21 -1.1248,-9.35 -2.5106,-19.475 -3.0794,-22.5 -0.5689,-3.025 -1.7375,-7.44208 -2.5971,-9.81574 l -1.5627,-4.31574 -2.4401,-0.9277 -2.44,-0.92769 -3.2021,1.47476 c -1.7612,0.81112 -4.5522,2.28192 -6.2022,3.26845 -1.65,0.98654 -5.0563,3.01511 -7.5695,4.50794 l -4.5696,2.71424 -6.3443,0.86763 -6.3443,0.86764 -3.9953,-0.8977 -3.9954,-0.8977 -1.0408,1.0408 -1.0408,1.04081 -4.741,0 -4.741,0 -0.528,-0.8543 -0.528,-0.8543 -5.8098,-0.60725 -5.8098,-0.60724 -6.7122,-2.52646 -6.7122,-2.52647 -7.5375,0.63716 -7.5375,0.63715 -4.4245,-4.61762 -4.4244,-4.61761 -1.0391,-3.85865 -1.039,-3.85864 -4.7122,-4.77977 -4.7123,-4.77977 -1.852,2.35689 c -1.0186,1.29628 -3.4204,4.00361 -5.3373,6.01629 l -3.4853,3.65941 -4.6446,2.18319 -4.6445,2.1832 -7.0639,1.49473 -7.0639,1.49474 -9,-0.40898 -9,-0.40899 -5.1074,-2.24015 -5.1074,-2.24015 -3.5982,-3.68821 -3.5982,-3.6882 -3.0441,-7.38693 c -1.6743,-4.06282 -4.1693,-10.94855 -5.5445,-15.30163 -1.3751,-4.35307 -2.5002,-9.05798 -2.5002,-10.45533 l 0,-2.54065 -1.9493,-2.47811 -1.9493,-2.47811 -0.6461,-4.67962 c -0.3554,-2.57379 -1.2558,-7.15462 -2.0009,-10.17962 -0.7451,-3.025 -2.0181,-10.9 -2.829,-17.5 -0.8108,-6.6 -1.9471,-13.2375 -2.5251,-14.75 l -1.0508,-2.75 -1.4414,0 -1.4414,0 -0.3924,1.17705 -0.3923,1.17705 -1.1119,-0.68719 -1.1119,-0.68719 -3.2389,-9.73986 c -1.7813,-5.35692 -5.3739,-14.46486 -7.9835,-20.23986 -2.6096,-5.775 -6.2679,-13.19725 -8.1296,-16.49389 l -3.385,-5.99389 -1.7998,-0.34661 -1.7998,-0.34662 -2.4108,2.26482 -2.4108,2.26482 0,1.81496 c 0,0.99823 -0.8998,4.18228 -1.9995,7.07568 -1.0997,2.8934 -1.9997,6.07619 -2,7.07286 -3e-4,0.99667 2.0717,8.19667 4.6044,16 l 4.6049,14.18787 5.3951,11.56128 c 2.9673,6.35871 5.3951,12.09621 5.3951,12.75 l 0,1.18872 -2.2775,0 -2.2775,0 -2.1551,-1.50949 c -1.1853,-0.83022 -4.7861,-5.00107 -8.0017,-9.26855 l -5.8467,-7.75906 -4.8085,-9.31031 c -2.6448,-5.12067 -4.9423,-9.16232 -5.1057,-8.98145 -0.1634,0.18087 -1.7072,3.871 -3.4306,8.20028 -1.7234,4.32928 -4.0252,9.12375 -5.1151,10.65437 l -1.9816,2.78295 0,1.96733 0,1.96732 5.1785,7.8783 c 2.8482,4.33307 7.5732,11.9052 10.5,16.82696 l 5.3215,8.94865 0,2.24233 0,2.24234 -1.0438,0.6451 -1.0438,0.64511 -1.6247,-1.33609 c -0.8935,-0.73485 -4.1157,-4.71109 -7.1604,-8.83609 -3.0447,-4.125 -7.7592,-9.8625 -10.4767,-12.75 -2.7174,-2.8875 -5.3051,-5.25 -5.7504,-5.25 l -0.8096,0 -0.6554,3.49343 -0.6553,3.49342 0.5957,2.37351 c 0.3276,1.30543 2.2445,4.79589 4.2596,7.75657 2.0152,2.96069 6.7131,8.9987 10.4398,13.41781 l 6.7759,8.03473 3.4566,1.96527 c 1.9012,1.08089 8.056,5.56526 13.6773,9.96526 5.6213,4.4 11.4794,8.80265 13.0179,9.78367 l 2.7974,1.78368 0.6582,2.62239 0.6581,2.62239 -1.4476,1.44767 -1.4477,1.44767 -3.0855,-0.67768 -3.0854,-0.67768 -5.6999,-4.42605 -5.6999,-4.42606 -1.3475,0 -1.3476,0 -4.4199,-4.07413 -4.4199,-4.07413 -5.3078,-2.01612 -5.3077,-2.01612 -6.5,-4.30506 c -3.575,-2.36778 -9.5593,-5.98042 -13.2983,-8.02808 l -6.7984,-3.72303 -0.6266,0.62663 -0.6266,0.62663 1.1329,6.09227 1.133,6.09226 2.5359,3.32467 2.5358,3.32467 11.9553,7.82477 11.9554,7.82477 1.0508,2.89922 c 0.5779,1.59458 1.0508,3.28208 1.0508,3.75 l 0,0.85078 -1.25,-0.007 c -0.6875,-0.004 -4.7893,-2.02909 -9.1151,-4.5 -4.3258,-2.47135 -8.4817,-4.493 -9.2354,-4.493 l -1.3703,0 1.9635,4.98154 c 1.08,2.73984 3.5028,8.02734 5.3842,11.75 l 3.4207,6.76846 2.3512,2.16182 c 1.2931,1.189 6.1762,4.48694 10.8512,7.32876 4.675,2.84181 9.1635,5.81111 9.9745,6.59843 l 1.4746,1.4315 -6.1603,-2.08036 -6.1603,-2.08035 -1.1867,-1.4299 -1.1867,-1.4299 -1.8776,0 -1.8775,0 0,1.42516 0,1.42515 10.65,11.65098 10.6501,11.65098 5.5969,3.15869 5.5969,3.15869 4.503,4.5648 c 2.4767,2.51063 7.0176,7.69823 10.091,11.52799 3.0733,3.82976 6.1385,7.99218 6.8116,9.24983 l 1.2238,2.28664 -0.3117,2.69199 -0.3116,2.692 -1.6347,0.30966 -1.6347,0.30967 -4.7841,-3.034 -4.7841,-3.034 -5.8448,-1.14989 -5.8448,-1.1499 -4.6334,-2.93841 -4.6334,-2.93841 -0.784,1.26852 -0.784,1.26851 1.4691,3.55268 1.469,3.55267 4.712,4.73655 4.7119,4.73656 7.5,3.76344 7.5,3.76345 0.3102,1.6821 0.3103,1.6822 -3.3021,0.3178 -3.302,0.3179 -0.2931,1.5504 -0.2931,1.5503 2.2952,3.4058 2.2951,3.4057 9.9599,6.1985 9.9599,6.1985 2.8373,3.1754 2.8372,3.1754 -0.3074,3.0692 -0.3074,3.0691 -1.7818,1.1009 -1.7818,1.1008 -9.2182,-4.8553 -9.2182,-4.8554 -3,0.3554 -3,0.3553 -0.3072,3.6962 -0.3071,3.6962 2.794,5.7061 2.794,5.7061 6.5823,7.0977 c 3.6203,3.9037 8.496,9.5415 10.835,12.5284 2.339,2.9869 5.1518,7.1931 6.2506,9.347 l 1.998,3.9162 -0.5384,1.4031 -0.5384,1.403 -1.4942,0 -1.4941,0 -3.9157,-5.75 c -2.1536,-3.1625 -4.922,-6.65 -6.152,-7.75 -1.23,-1.1 -2.6236,-3.0125 -3.0968,-4.25 l -0.8605,-2.25 -1.0248,0 -1.0247,0 0,2.6026 0,2.6026 5.019,11.3378 5.0191,11.3378 0.1937,4.4508 0.1937,4.4508 -1.3753,1.657 -1.3752,1.6571 -2.0875,-0.2982 -2.0875,-0.2983 -4.2279,-6.4336 c -2.3253,-3.5385 -4.4011,-6.9135 -4.6128,-7.5 l -0.385,-1.0664 -2.766,2.5 -2.7661,2.5 -1.3711,3.2179 -1.3711,3.2179 -0.084,17.7821 -0.084,17.7821 -0.7145,5.7156 c -0.393,3.1435 -1.03,6.031 -1.4156,6.4166 l -0.7011,0.7011 -0.5671,-0.567 c -0.3119,-0.3119 -1.0444,-3.7831 -1.6278,-7.7137 l -1.0607,-7.1467 -1.717,-2.1203 -1.717,-2.1204 -4.0984,5.5477 c -2.254,3.0513 -5.7098,6.876 -7.6793,8.4995 -1.9696,1.6235 -9.0827,6.0267 -15.8069,9.7849 -6.7242,3.7582 -13.299,7.6587 -14.6107,8.6679 l -2.3849,1.8348 -14.155,0 -14.155,0 -5.8101,-1.5133 c -3.1956,-0.8324 -6.7653,-2.1824 -7.9327,-3 l -2.1225,-1.4867 -2.2007,0 -2.2008,0 -3.0767,-2.5889 -3.0767,-2.5889 0,-2.4565 0,-2.4566 2.4545,-2.4546 2.4545,-2.4545 3.323,0 3.3229,0 2.4368,1.7068 2.4367,1.7067 5.0358,0.8481 c 2.7697,0.4664 8.5271,1.0962 12.7943,1.3995 l 7.7585,0.5514 2.4915,-0.6253 2.4915,-0.6253 0,-1.481 0,-1.4809 -1.9798,0 c -1.0889,0 -3.9014,-0.7559 -6.25,-1.6798 -2.3486,-0.9238 -8.4078,-4.1418 -13.4647,-7.1509 l -9.1945,-5.4713 -3.6962,-3.7852 -3.6962,-3.7852 -0.4147,-4.8138 -0.4147,-4.8138 1.8054,-3.5 1.8054,-3.5 2.2554,-0.3203 2.2554,-0.3202 1.9465,4.541 1.9465,4.541 4.7981,4.6049 4.7981,4.605 9.1205,4.5325 9.1205,4.5326 4.57,0.5151 4.5699,0.5151 2.6459,-0.6641 2.6459,-0.6641 4.9136,-4.5961 4.9137,-4.5961 0,-1.3631 0,-1.3632 -0.9914,0 c -0.5452,0 -3.1327,1.6357 -5.75,3.6349 l -4.7586,3.6348 -0.3688,-1.8708 -0.3688,-1.8708 5.3688,-4.7703 5.3688,-4.7702 4.3398,-2.1265 4.3399,-2.1265 2.9996,-4.1173 c 1.6497,-2.2645 3.6555,-5.3735 4.4572,-6.9087 0.8017,-1.5353 2.5276,-7.1603 3.8354,-12.5 1.3077,-5.3398 2.6868,-11.8406 3.0646,-14.4463 l 0.6869,-4.7377 -0.6326,-1.6484 -0.6325,-1.6484 -1.856,1.6796 -1.8559,1.6796 -1.5714,5.2065 c -0.8642,2.8636 -2.5448,8.922 -3.7346,13.4632 l -2.1632,8.2567 -1.9612,2.4933 -1.9612,2.4933 -1.4274,0 -1.4274,0 0.01,-4.25 c 0.01,-2.3375 0.6761,-10.1 1.4903,-17.25 0.8141,-7.15 1.7509,-18.85 2.0816,-26 l 0.6013,-13 -1.4411,-4 -1.4411,-4 -1.5951,-0.3127 -1.5951,-0.3126 -1.0982,4.3126 c -0.604,2.372 -1.963,7.2377 -3.0201,10.8127 -1.057,3.575 -2.6383,7.5125 -3.5139,8.75 -0.8756,1.2375 -1.964,2.25 -2.4187,2.25 -0.4547,0 -1.0643,-0.9086 -1.3547,-2.0192 l -0.528,-2.0192 0.9203,-13.2308 c 0.5062,-7.2769 0.9396,-18.9801 0.9632,-26.007 l 0.043,-12.7762 -6.085,-17.72382 C 427.14966,978.4757 423.59526,968.925 422.59786,967 l -1.8137,-3.5 -1.5375,-0.30106 -1.5375,-0.30105 -1.3037,3.30105 -1.3037,3.30106 -0.075,15 -0.075,15 -3.4697,0 -3.4698,0 -0.6721,-4 c -0.3697,-2.2 -0.9746,-14.8 -1.3442,-28 -0.3696,-13.2 -1.0481,-27.29835 -1.5078,-31.32967 -0.4597,-4.03132 -1.1244,-7.61829 -1.4772,-7.97104 l -0.6414,-0.64137 -0.9475,1.47104 c -0.5211,0.80907 -1.8829,4.56625 -3.0261,8.34929 -1.1433,3.78304 -2.7235,10.08304 -3.5117,14 -0.7881,3.91696 -1.9284,8.24675 -2.534,9.62175 l -1.1011,2.5 -0.7469,-2 -0.7468,-2 0.8924,-7.5 0.8923,-7.5 2.4601,-9 c 1.353,-4.95 3.0051,-10.90504 3.6712,-13.23343 l 1.2112,-4.23343 -2.3242,-7.26657 c -1.2784,-3.99661 -2.9559,-8.50407 -3.7279,-10.01657 l -1.4036,-2.75 -0.9743,0 -0.9743,0 -0.014,12.75 c -0.01,7.0125 -0.285,13.7625 -0.6166,15 -0.3317,1.2375 -0.9443,2.25 -1.3614,2.25 l -0.7584,0 -0.6462,-3.23138 c -0.3555,-1.77726 -1.7569,-15.38976 -3.1142,-30.25 -1.3574,-14.86024 -2.7307,-28.81862 -3.0518,-31.01862 -0.3212,-2.2 -0.8207,-4.8328 -1.1102,-5.85066 l -0.5263,-1.85067 -0.9114,0.91141 -0.9114,0.9114 -1.5213,21.93926 c -0.8368,12.06659 -1.7623,22.72676 -2.0567,23.68926 -0.2944,0.9625 -0.8969,1.75 -1.3389,1.75 l -0.8036,0 -0.7155,-9.14594 -0.7155,-9.14593 0.2963,-17.53414 0.2963,-17.53413 -1.0597,-0.35323 -1.0597,-0.35324 -1.4001,1.66573 c -0.7701,0.91615 -2.9751,4.64317 -4.9001,8.28228 l -3.5,6.61655 -1.9339,0.35976 -1.9339,0.35977 -1.3161,-1.79987 -1.3161,-1.79987 0,-3.06205 0,-3.06205 1.8735,-6.49682 c 1.0305,-3.57325 3.0096,-9.27415 4.3982,-12.66866 l 2.5247,-6.17185 3.3453,-4.82815 c 1.84,-2.65549 5.6207,-8.65316 8.4016,-13.32816 2.7809,-4.675 8.0983,-12.52514 11.8164,-17.44475 3.7181,-4.91961 8.4026,-11.89461 10.4099,-15.5 2.0074,-3.60539 6.0494,-9.93025 8.9822,-14.05525 l 5.3325,-7.5 9.3438,-18.5 c 5.139,-10.175 11.1944,-22.863 13.4563,-28.19555 2.262,-5.33255 4.7561,-12.08255 5.5426,-15 0.7865,-2.91745 2.8266,-9.35445 4.5335,-14.30445 1.707,-4.95 3.9637,-12.375 5.0148,-16.5 1.0512,-4.125 2.8265,-12.225 3.9452,-18 1.1187,-5.775 2.4656,-14.88967 2.9931,-20.25482 l 0.9591,-9.75482 -0.4847,-3.74518 c -0.2665,-2.05985 -1.2043,-6.31674 -2.0839,-9.45976 l -1.5993,-5.71457 -2.679,-3.20897 -2.6789,-3.20896 -1.5926,0.6111 -1.5925,0.61111 -13.1558,15.73119 -13.1557,15.73119 -3.6025,2.86289 c -1.9813,1.57459 -5.5008,3.70262 -7.821,4.72895 -2.3202,1.02634 -7.8714,4.20928 -12.336,7.0732 l -8.1175,5.20714 -6.7367,2.33221 -6.7366,2.3322 -9,0.67348 -9,0.67349 -7.3686,2.49074 -7.3686,2.49075 -3.0479,-0.60958 -3.0479,-0.60958 -3.2668,-2.4917 -3.2668,-2.4917 -2.9271,0 -2.9272,0 -3.8896,2.68782 c -2.1392,1.4783 -5.9966,4.12741 -8.572,5.88693 l -4.6824,3.19911 -7.5352,2.53349 -7.5352,2.53349 -17.7531,-8.17042 -17.753,-8.17042 -10.0489,-10.11459 -10.0489,-10.11458 -1.9578,-3.63542 C 227.90416,626.63594 226.71336,625 226.33476,625 c -0.3786,0 -4.8888,-3.65452 -10.0226,-8.12116 -5.1338,-4.46663 -12.2544,-10.09163 -15.8235,-12.5 -3.5692,-2.40836 -7.0481,-4.37884 -7.731,-4.37884 l -1.2416,0 -0.5613,2.25 -0.5613,2.25 1.4767,7 c 0.8122,3.85 3.3685,12.4 5.6808,19 2.3124,6.6 7.0751,19.17307 10.5839,27.94015 l 6.3797,15.94015 9.4928,17.88117 c 5.2211,9.83464 11.3542,20.66157 13.6291,24.05985 l 4.1362,6.17868 16.6026,16.83797 16.6027,16.83798 11,9.26184 11,9.26184 8.349,8.82121 c 4.5919,4.85167 9.4096,10.43175 10.706,12.40019 l 2.3571,3.57897 1.5439,5.9601 1.544,5.9601 0,5.13491 0,5.13491 -1.8163,1.64375 c -0.999,0.90405 -3.5865,2.25274 -5.75,2.99706 l -3.9337,1.35333 -1.3007,3.90792 -1.3007,3.90792 -3.3062,3.5 c -1.8185,1.925 -3.539,4.17673 -3.8235,5.00385 -0.2845,0.82711 -2.6253,4.09174 -5.2019,7.25472 l -4.6846,5.75087 -2.7622,1.42838 c -1.5192,0.78562 -4.4177,3.13287 -6.4412,5.21613 l -3.679,3.78773 0,1.27916 c 0,0.70354 -0.3613,1.27916 -0.8028,1.27916 -0.4415,0 -4.8013,3.43501 -9.6885,7.63335 l -8.8858,7.63335 -5.0614,2.35688 -5.0615,2.35688 -3.7899,0.01 -3.7898,0.01 -3.7771,1.92691 c -2.0773,1.0598 -4.4219,2.70756 -5.2101,3.66169 l -1.4331,1.73478 -5.04,2.23284 -5.0401,2.23283 -1.3324,1.60548 -1.3324,1.60547 -1.3442,0 -1.3442,0 -5.029,4.46648 c -2.7659,2.45657 -7.6185,6.11638 -10.7834,8.13293 -3.1649,2.01654 -5.9793,3.99397 -6.2543,4.39429 -0.275,0.40033 -4.775,2.18162 -10,3.95843 l -9.5,3.23057 -8,1.4015 c -4.4,0.77082 -10.475,1.89873 -13.5,2.50645 -3.025,0.60772 -7.3431,1.90494 -9.5958,2.88271 l -4.0958,1.77776 -4.6906,6.09583 -4.6907,6.09583 -6.9327,5.42445 -6.9327,5.42446 -4.7266,2.28812 -4.7266,2.28811 -5.554196,0.36807 c -3.0549,0.20244 -6.4842,0.55749 -7.6207,0.78901 l -2.0664,0.42094 -2.1808,4.77703 c -1.1995,2.62691 -2.8678,7.47657 -3.7074,10.77657 -0.8397,3.3 -1.98,10.36151 -2.534,15.69224 l -1.0073,9.69226 0.9905,6.1504 0.9905,6.1504 4.5406,8.3978 4.5407,8.3979 -0.015,3.2595 c -0.01,1.7927 -0.355,3.7936 -0.7701,4.4465 -0.4151,0.6528 -2.9336,2.1209 -5.5967,3.2625 l -4.8421,2.0755 1.0803,1.3017 c 0.5942,0.7159 3.2321,2.2624 5.8621,3.4366 2.63,1.1743 8.8318,3.7073 13.781796,5.6291 l 9,3.494 10.1625,0.6937 10.1626,0.6938 1.2731,0.7868 1.2732,0.7869 -1.294,1.5591 -1.2939,1.5591 -3.6418,1.0338 c -2.0029,0.5687 -7.6917,1.3051 -12.6417,1.6366 l -9,0.6026 -9.364296,-1.1537 -9.3643,-1.1538 -3.4805,-1.4542 -3.4805,-1.4543 -7.2309,-7.0114 -7.2309,-7.0114 -1.1743,0 -1.1743,0 0.024,4.75 0.024,4.75 2.2988,5.5881 2.2988,5.5881 4.353,6.2056 4.353,6.2056 4.7084,3.4563 4.7085,3.4563 5.0052,0 5.0052,0 2.3608,1.9993 2.3608,1.9994 -1.9402,1.4999 c -1.0671,0.825 -4.3465,2.4003 -7.2875,3.5007 l -5.3473,2.0007 -4.2281,0 -4.2281,0 -3.4844,-1.847 -3.4844,-1.8471 -4.8223,-5.9029 c -2.6522,-3.2467 -6.3031,-8.4094 -8.113,-11.4728 -1.8098,-3.0633 -3.8195,-7.1722 -4.4659,-9.1308 l -1.1753,-3.5611 1.0673,-6.6808 1.0673,-6.6808 3.0306,-8.822 3.0306,-8.8219 -4.5597,-11.5285 -4.5596,-11.5285 0,-2.1063 0,-2.1063 2.6278,-5.0256 2.6278,-5.0255 0.5022,-4.45606 0.5023,-4.45604 -1.082,0 -1.082,0 -3.0961,4.5 -3.0961,4.5 -1.952,0 -1.9519,0 0,-1.6843 c 0,-0.9263 0.8987,-3.51383 1.9972,-5.74998 l 1.9973,-4.06572 5.3521,-6.27563 5.3522,-6.27562 1.262,-4.22438 c 0.6941,-2.3234 2.1119,-5.89394 3.1506,-7.93453 1.0387,-2.04059 1.8886,-4.17809 1.8886,-4.75 l 0,-1.03984 -1.75,0.01 c -0.9625,0.005 -4.1813,1.14153 -7.1528,2.52479 -2.9716,1.38327 -8.4321,4.52887 -12.1345,6.99023 l -6.7317,4.47498 -2.6469,0 -2.6469,0 -0.5709,-1.48766 -0.5708,-1.48766 2.539,-4.33252 2.539,-4.33253 3.8133,-2.62393 c 2.0972,-1.44316 5.0858,-3.1013 6.6413,-3.68477 1.5555,-0.58346 6.1392,-3.07078 10.186,-5.52739 4.0469,-2.4566 9.7917,-6.02341 12.7663,-7.92624 2.9746,-1.90283 8.8534,-5.16433 13.064,-7.24778 l 7.6556,-3.78809 0,-1.14671 0,-1.1467 -5.7188,0.11599 -5.7187,0.11599 -0.3445,-1.69743 -0.3444,-1.69744 4.0442,-2.06318 4.0441,-2.06318 12.5381,-2.97877 12.537996,-2.97877 3.9149,-1.99723 3.9149,-1.99722 1.5661,-2.2359 1.5661,-2.23589 0,-3.69994 0,-3.69995 -3.25,-1.0289 c -1.7875,-0.5659 -6.1718,-1.54042 -9.7428,-2.16559 -3.5711,-0.62517 -8.0135,-1.77206 -9.872196,-2.54864 -1.8586,-0.77659 -4.5618,-1.41968 -6.0071,-1.42911 -1.4454,-0.009 -5.9512,-0.88018 -10.0129,-1.93501 -4.0618,-1.05483 -7.8224,-2.35523 -8.3569,-2.88977 l -0.9719,-0.97188 2.4214,-1.58657 2.4214,-1.58657 7.8455,-2.00653 c 4.315,-1.10359 8.9814,-2.00653 10.3697,-2.00653 l 2.5243,0 4.235196,2.0502 4.2351,2.05019 24.5324,-0.30019 24.5325,-0.3002 1.1309,-1.13278 1.1309,-1.13277 -2.5264,-2.36723 -2.5265,-2.36722 -1.0181,-2.7146 -1.0181,-2.7146 1.0176,-0.6289 1.0176,-0.6289 5.6942,2.3435 5.6942,2.3435 12.7887,0 12.7886,0 3.2114,-3.73796 3.2113,-3.73796 3.7935,-1.54364 3.7935,-1.54364 0.6022,-1.56932 0.6022,-1.56933 -1.3957,-0.88376 -1.3957,-0.88376 -3.3072,-0.0153 c -1.8189,-0.008 -5.2668,-0.50876 -7.662,-1.11186 l -4.3548,-1.09655 -5.4919,1.59655 -5.4919,1.59655 -8.531,0 -8.531,0 -2.5651,-0.97525 -2.5651,-0.97525 0,-2.5017 0,-2.50169 2.5781,-1.68925 2.5781,-1.68925 10.6719,-2.33875 10.6719,-2.33874 4.8423,-2.49506 4.8423,-2.49506 4.1325,0 4.1324,0 8.608,-8.75 8.608,-8.75 7.7184,-10.39003 c 4.2451,-5.71452 8.6231,-12.16358 9.729,-14.33125 l 2.0106,-3.94122 -1.6921,-2.58251 c -0.9307,-1.42037 -3.518,-4.5634 -5.7497,-6.9845 -2.2317,-2.42109 -5.2822,-5.27395 -6.7789,-6.33969 l -2.7213,-1.9377 -1.5134,0.58077 c -0.8324,0.31942 -1.8355,1.33347 -2.2292,2.25345 -0.3936,0.91997 -1.0384,6.27327 -1.4329,11.89621 l -0.7172,10.22354 -1.2175,1.46702 -1.2175,1.46703 -1.5035,-0.57695 -1.5035,-0.57694 -1.0184,-2.61361 -1.0184,-2.61362 -0.7946,-22.68066 -0.7946,-22.68066 -3.2584,-7.06934 -3.2585,-7.06934 -1.2435,0 -1.2436,0 -0.7382,2.75 -0.7383,2.75 -0.6588,27.5 -0.6589,27.5 -1.2409,2.23965 -1.241,2.23965 -2.8698,1.48401 -2.8697,1.48402 -1.0386,-1.25141 -1.0386,-1.2514 -1.5207,-11.97226 c -0.8364,-6.58474 -1.9871,-16.32196 -2.557,-21.63826 l -1.0364,-9.66601 0.9953,-12.83399 c 0.5474,-7.0587 1.722,-17.28984 2.6101,-22.73586 l 1.6149,-9.90186 -0.6164,-4.49725 -0.6164,-4.49726 -1.1212,-1.35088 -1.1211,-1.35089 -1.7562,0 -1.7563,0 -1.2976,3.13286 c -0.7138,1.72307 -2.3834,4.42307 -3.7103,6 -1.3269,1.57693 -2.7904,2.86714 -3.2522,2.86714 -0.4618,0 -1.576,-0.73633 -2.476,-1.6363 l -1.6363,-1.6363 0.6537,-4.1137 c 0.3595,-2.26253 1.7387,-8.47025 3.0648,-13.79492 1.3262,-5.32469 2.4113,-10.99564 2.4113,-12.60214 l 0,-2.92089 -2.2852,-3.39096 -2.2852,-3.39097 -1.5365,-0.29591 -1.5366,-0.29591 -1.1715,2.57129 -1.1716,2.57128 -1.5567,12.62973 -1.5568,12.62973 -3.0244,7.84266 -3.0245,7.84266 -1.8598,0.99531 c -1.0228,0.54743 -2.8202,0.99532 -3.9942,0.99532 l -2.1345,0 0.612,-7.75 c 0.3365,-4.2625 1.2452,-18.325 2.0193,-31.25 l 1.4075,-23.5 2.1414,-17.5 2.1414,-17.5 3.9081,-10.62556 c 2.1494,-5.84406 4.1972,-12.14406 4.5507,-14 0.3535,-1.85594 1.2609,-4.60396 2.0164,-6.10671 l 1.3737,-2.73227 2.9897,-2.21036 2.9897,-2.21036 0.9882,-3.55737 0.9882,-3.55737 -0.065,-6 -0.065,-6 -0.795,-2 -0.7951,-2 0.929,-2.5 c 0.5109,-1.375 2.0683,-3.69447 3.4608,-5.15437 l 2.5318,-2.65437 8.1546,-0.65231 c 4.485,-0.35877 10.5073,-1.14623 13.3828,-1.74991 l 5.2284,-1.09761 6.4856,1.75558 6.4856,1.75558 11.4944,7.87058 11.4944,7.87059 0.5825,-0.94251 0.5825,-0.94251 -1.5063,-2.913 c -0.8285,-1.60215 -4.3344,-6.00409 -7.7909,-9.78209 -3.4565,-3.778 -7.9227,-8.89287 -9.9249,-11.36637 -2.0022,-2.4735 -5.7504,-7.98804 -8.3293,-12.25454 l -4.6889,-7.75725 -2.0814,-1.11392 -2.0813,-1.11391 -5.345,1.28223 -5.3449,1.28223 -0.6338,-0.63381 -0.6338,-0.63382 1.7286,-6.1609 1.7287,-6.16091 -2.3266,-3.11634 c -1.2796,-1.71399 -5.0323,-7.12041 -8.3392,-12.01427 -3.307,-4.89386 -6.3177,-9.39386 -6.6905,-10 -0.3729,-0.60614 -0.934,-1.92283 -1.247,-2.92598 l -0.5691,-1.8239 -1.6267,0.3239 -1.6267,0.32391 -3.9432,7 c -2.1688,3.85 -4.7583,7.83267 -5.7545,8.85039 l -1.8113,1.85039 -2.217,-1.18649 -2.217,-1.18649 0.6584,-3.50918 c 0.362,-1.93005 2.1703,-6.9538 4.0183,-11.1639 1.848,-4.2101 3.6627,-8.86994 4.0328,-10.3552 l 0.6728,-2.70048 -2.6515,-5.79952 c -1.4583,-3.18974 -3.7481,-7.67379 -5.0884,-9.96456 l -2.4368,-4.16504 -6.2577,6.2416 -6.2576,6.2416 -2.25,0.57982 -2.25,0.57982 0,-1.50201 c 0,-0.8261 0.9878,-2.92148 2.195,-4.65638 1.2072,-1.7349 4.5441,-5.86086 7.4153,-9.16879 l 5.2203,-6.01441 0.7269,-18.73559 0.7268,-18.73558 -10.5197,0 -10.5197,0 -1.2051,-1.45201 -1.205,-1.45201 0.6492,-2.04567 0.6493,-2.04566 2.4157,-0.6063 2.4157,-0.60631 3.1669,1.10398 3.1669,1.10398 5.2618,0 5.2619,0 2.7029,-3.21215 c 1.4865,-1.76668 4.0772,-5.99929 5.757,-9.40578 l 3.0542,-6.19364 -2.8227,-3.34421 c -1.5526,-1.83932 -3.6434,-5.14422 -4.6463,-7.34422 l -1.8234,-4 -0.022,-3.19098 -0.022,-3.19099 0.9793,-0.60526 0.9794,-0.60526 2.2706,1.16083 c 1.2489,0.63845 4.5898,3.41356 7.4243,6.1669 l 5.1536,5.00608 3.3464,-0.50341 c 1.8405,-0.27688 8.2964,-1.25041 14.3464,-2.16341 6.05,-0.913 12.0315,-2.08978 13.2923,-2.61507 l 2.2922,-0.95507 -4.9706,-9.1867 -4.9706,-9.1867 -2.6122,-1.36868 c -1.4368,-0.75278 -6.7565,-2.26476 -11.8217,-3.35997 l -9.2094,-1.99129 -6.1427,-2.85274 -6.1426,-2.85274 -3.9728,4.14723 c -2.185,2.28098 -5.9059,7.07223 -8.2685,10.64723 -2.3626,3.575 -6.124,8.525 -8.3586,11 -2.2346,2.475 -6.4722,6.525 -9.4169,9 l -5.354,4.5 -5.3979,8 c -2.9688,4.4 -7.6303,11.06634 -10.359,14.81408 l -4.9611,6.81408 -2.6663,6.9777 -2.666396,6.9777 -3.1466,4.6816 -3.1466,4.68161 -3.3617,2.25226 -3.3618,2.25227 -3.5515,0.66627 -3.5515,0.66626 -1.5867,-1.02631 -1.5868,-1.02631 0.1059,-3.52322 0.1058,-3.52322 6.032,-10.84239 c 3.3177,-5.96331 6.9173,-11.74238 7.9992,-12.84238 l 1.9672,-2 1.2803,-4 c 0.7042,-2.2 2.1844,-5.8 3.2893,-8 1.1049,-2.2 3.1632,-5.575 4.573996,-7.5 1.4108,-1.925 4.8732,-6.2 7.6941,-9.5 l 5.1291,-6 9.5188,-15 c 5.2353,-8.25 10.9147,-17.4788 12.6207,-20.50845 1.7061,-3.02964 3.7978,-7.4806 4.6482,-9.89103 l 1.5463,-4.38258 -1.0677,-1.28654 -1.0678,-1.28653 -3.5772,2.42756 c -1.9675,1.33517 -4.2073,2.42757 -4.9775,2.42757 -0.7702,0 -3.1223,0.87849 -5.2269,1.9522 -2.1047,1.07371 -5.1729,3.08498 -6.8183,4.46949 l -2.9916,2.51728 -7.8919,2.96543 c -4.3406,1.63099 -13.066896,4.55275 -19.391896,6.49279 l -11.5,3.52735 -17.8883,1.07657 -17.8883,1.07656 -1.796,0.96116 c -0.9878,0.52865 -2.9655,0.96117 -4.3949,0.96117 l -2.599,0 -4.776,-2.42016 c -2.6267,-1.33108 -6.9993,-4.21438 -9.7167,-6.40732 -2.7175,-2.19294 -6.8533,-5.77688 -9.1907997,-7.96432 l -4.25,-3.97715 0,-2.42308 0,-2.42307 4.1441,-1.82839 4.1440997,-1.82838 5.1059,2.56343 5.1059,2.56343 11.5131,1.57438 c 6.3322,0.8659 13.016,2.00538 14.8528,2.53217 l 3.3396,0.9578 4.1473,-1.52955 c 2.2809,-0.84125 10.0439,-3.26842 17.251,-5.3937 l 13.1039,-3.86415 12.896096,-5.67653 c 7.0929,-3.12209 16.2712,-7.02341 20.3962,-8.6696 4.125,-1.6462 8.0625,-3.45155 8.75,-4.01189 l 1.25,-1.01881 0,-2.80083 0,-2.80083 -2.3514,-2.82672 c -1.2933,-1.5547 -2.9071,-3.88211 -3.5862,-5.17202 l -1.2348,-2.34529 0.7036,-9.65471 0.7036,-9.65471 2.3319,-9.27735 2.332,-9.27735 4.5851,-9.67942 4.5852,-9.67943 6.3879,-9.54323 6.3878,-9.54322 7.1599,-7.34263 7.16,-7.34263 4.6677,-2.06197 c 2.5672,-1.13408 6.2427,-3.09001 8.1677,-4.3465 1.925,-1.25649 4.85,-2.59552 6.5,-2.97561 1.65,-0.38009 7.05,-2.3884 12,-4.46292 4.95,-2.07451 12.825,-4.90936 17.5,-6.29966 4.675,-1.3903 12.55,-3.65046 17.5,-5.02259 4.95,-1.37213 11.025,-2.95253 13.5,-3.51201 2.475,-0.55947 6.9606,-1.71838 9.9679,-2.57535 l 5.4679,-1.55813 5.0321,-0.0179 c 2.7677,-0.01 9.3071,-0.67683 14.5321,-1.4821 l 9.5,-1.46413 17.5,-5.7e-4 17.5,-5.7e-4 6.5,1.38194 6.5,1.38195 12.5,6.16993 12.5,6.16993 3.5,-0.60073 c 1.925,-0.3304 11.15,-0.96237 20.5,-1.40438 l 17,-0.80367 4,-1.84226 4,-1.84227 10.5,0.15964 10.5,0.15963 8.3392,-1.02143 8.3392,-1.02144 7.4253,-2.42384 7.4252,-2.42385 1.4372,0.55149 1.4371,0.55149 1.0678,3.23543 1.0678,3.23543 -0.2694,2.39239 -0.2694,2.3924 3.6777,1.23425 3.6777,1.23425 13.8223,1.04369 13.8223,1.04369 3.5,1.01807 3.5,1.01808 12,0.55873 c 6.6,0.3073 14.0802,0.95974 16.6226,1.44986 l 4.6226,0.89113 4.9885,3.10099 4.9885,3.101 15.0148,-1.40855 15.0148,-1.40855 2.3741,-2.24739 c 1.3057,-1.23606 8.2241,-6.15322 15.3741,-10.92701 7.15,-4.77379 19.875,-12.93198 28.2778,-18.1293 8.4029,-5.19732 17.6279,-11.38776 20.5,-13.75654 l 5.2222,-4.30687 2.1931,-0.56516 2.1932,-0.56517 1.0568,0.65316 1.0569,0.65316 0,3.00085 0,3.00084 -5.0677,5.35831 -5.0676,5.3583 -3.6824,1.72952 c -2.0253,0.95123 -4.7555,2.56305 -6.0672,3.58183 l -2.3848,1.85232 -2.375,0 -2.3749,0 -1.7124,2 -1.7125,2 -1.5907,0 -1.5906,0 -2.6871,2.80472 c -1.4779,1.54259 -2.6871,3.16867 -2.6871,3.6135 l 0,0.80878 2.75,-0.49216 c 1.5125,-0.27069 5.45,-1.42254 8.75,-2.55967 3.3,-1.13712 12.271,-3.70145 19.9355,-5.69851 l 13.9356,-3.63101 4.6662,-2.36455 4.6662,-2.36455 6.3982,-5.39454 c 3.5191,-2.96699 10.8983,-8.5823 16.3983,-12.47845 5.5,-3.89616 15.1363,-10.90829 21.414,-15.58253 6.2777,-4.67424 12.4645,-9.060841 13.7485,-9.748001 l 2.3345,-1.24938 0.6216,0.62161 0.6216,0.6216 -0.6674,2.65908 -0.6674,2.659071 -5.3251,5.32514 -5.3252,5.32514 -7.3775,4.75896 -7.3776,4.75896 -10.1701,9.0534 -10.1701,9.05339 5.6701,3.23813 5.6701,3.23813 3.0316,0.58219 3.0316,0.58219 3.9684,-1.48518 c 2.1826,-0.81685 11.1532,-4.46052 19.9347,-8.09705 8.7815,-3.63653 17.1065,-7.34624 18.5,-8.2438 1.3935,-0.89756 5.2337,-4.04724 8.5337,-6.99928 3.3,-2.95204 8.9242,-7.83283 12.4982,-10.8462 l 6.4982,-5.47886 9.8985,-5.04546 9.8985,-5.045461 2.0931,0.30032 2.0931,0.30033 0.3142,1.64996 0.3143,1.649951 -6.0388,4.64674 -6.0388,4.64674 -3.2652,1.10853 -3.2653,1.10852 -9.25,8.44201 -9.25,8.44201 0,2.43415 0,2.43416 1.4171,0.54379 1.4171,0.54378 9.6768,-2.05168 9.6769,-2.05168 3.656,-2.19847 c 2.0109,-1.20916 9.0561,-6.08543 15.6561,-10.83616 6.6,-4.75073 14.925,-10.69788 18.5,-13.21588 l 6.5,-4.57818 7,-7.389101 c 3.85,-4.06401 10.293,-11.08812 14.3179,-15.60915 4.0248,-4.52102 7.7373,-8.22004 8.25,-8.22004 l 0.9321,0 0,1.88605 0,1.88605 -4,5.99004 c -2.2,3.29453 -4,6.49581 -4,7.11396 0,0.61814 0.3964,1.1239 0.8809,1.1239 0.4845,0 3.8698,-1.125 7.5229,-2.5 3.653,-1.375 7.5324,-2.5 8.6209,-2.5 1.0885,0 5.9157,-1.36588 10.7272,-3.0353 l 8.7481,-3.0353 6.6936,-0.9531 6.6937,-0.9531 6.7062,-2.20149 6.7062,-2.20149 8.6002,-5.50015 c 4.73,-3.02509 11.0147,-6.75896 13.966,-8.29749 l 5.3659,-2.79734 0.8841,0.5464 c 0.4862,0.30052 0.8841,0.95418 0.8841,1.45258 0,0.4984 -1.3733,2.47024 -3.0517,4.38185 -1.6784,1.91162 -5.0526,4.73977 -7.4982,6.2848 -2.4456,1.54502 -4.4473,3.09478 -4.4483,3.44391 l 0,0.63477 5.6049,0.7003 c 3.0828,0.38516 7.7165,1.32733 10.2971,2.0937 l 4.6921,1.39341 9.2741,9.02152 c 5.101,4.96184 9.7102,9.02152 10.243,9.02152 0.5328,0 2.8632,-0.93987 5.1788,-2.08861 2.3156,-1.14873 7.8102,-4.4672 12.2102,-7.37437 4.4,-2.90718 12.60484,-7.83839 18.23294,-10.95825 l 10.2328,-5.67248 2.9987,-3.70314 c 1.6493,-2.03673 8.3211,-10.45315 14.8263,-18.70315 l 11.8276,-15 3.7186,-3.24386 c 2.0453,-1.78412 5.3937,-4.10375 7.4409,-5.15473 2.0472,-1.05097 9.0848,-5.77874 15.639,-10.5061403 l 11.9168,-8.59527001 1.3332,0 1.3332,0 0,1.25000001 c 0,0.6875 -0.8453,2.6 -1.8739,4.25 -1.0286,1.65 -11.884,13.2554203 -24.1231,25.7898203 -12.2392,12.5344 -22.0323,23.0105 -21.7626,23.28022 0.2697,0.26972 3.0974,0.9147 6.2838,1.4333 l 5.7934,0.94289 2.3224,2.18181 2.3224,2.18181 13.2321,-3.28152 c 7.2776,-1.80483 15.4994,-4.07828 18.2706,-5.05211 2.7712,-0.97382 7.0636,-2.70697 9.5386,-3.85144 l 4.5,-2.08085 5.162,-0.022 5.1621,-0.022 7.8379,1.49982 c 4.3109,0.82491 9.4201,1.49991 11.3537,1.5 l 3.5158,1.8e-4 10.4842,-5.9833 10.4843,-5.9833 6.0275,-2.02418 c 3.3151,-1.11329 9.5857,-3.57101 13.9346,-5.46158 l 7.9073,-3.4374 0.8153,0.50389 c 0.4484,0.27715 0.8153,1.27721 0.8153,2.22238 0,0.94516 -0.6862,2.69823 -1.525,3.89571 l -1.525,2.17723 3.775,0.96083 c 2.0763,0.52846 8.275,1.97589 13.775,3.21651 l 10,2.25567 5,0.059 5,0.059 18.1398,-7.73026 c 9.9732,-4.25165 18.4107,-7.73027 18.7463,-7.73027 0.3356,0 0.6102,0.67371 0.6102,1.49712 l 0,1.49712 -3.4496,3.81824 -3.4495,3.81825 -3.5505,1.91204 c -1.9527,1.05162 -3.5504,2.25971 -3.5504,2.68464 l 0,0.77259 1.8724,0 c 1.0298,0 5.4173,-1.16862 9.75,-2.59694 l 7.8776,-2.59695 10,0.48678 10,0.48678 9.8047,3.08916 9.8048,3.08916 15.1537,2.521 c 8.3346,1.38656 16.1289,2.52101 17.3208,2.52101 l 2.1671,0 5.7699,-2.5517 5.7698,-2.55169 3.4026,0.30169 3.4026,0.3017 -3.0751,4.16929 -3.0752,4.16929 8.2771,5.42686 c 4.5525,2.98477 10.5272,7.31078 13.2772,9.61335 l 5,4.1865 2.0605,0.52819 2.0604,0.5282 11.8155,-1.63397 c 6.4986,-0.89868 15.1303,-2.48174 19.1817,-3.51792 4.0514,-1.03617 10.1822,-3.08675 13.6241,-4.55684 l 6.2578,-2.67289 2.975,-0.12003 2.975,-0.12003 0.3397,1.70519 0.3397,1.70518 -5.2268,3.79482 -5.2269,3.79481 -12.5878,5.05212 -12.5879,5.05212 0,1.37009 0,1.3701 10.0054,3.61759 c 5.5029,1.98967 10.5472,3.95247 11.2095,4.36177 l 1.2041,0.74418 4.1678,-3.76538 c 2.2923,-2.07096 9.9015,-10.52375 16.9094,-18.78399 l 12.7415,-15.0186 7.8812,-7.58656 c 4.3346,-4.17261 9.1326,-8.39607 10.6623,-9.38546 l 2.7812,-1.7989 0.5343,0.53427 0.5343,0.53427 -2.9619,5.86744 -2.9619,5.86745 -5.3536,4.75416 c -2.9445,2.61479 -5.9275,5.30747 -6.6289,5.98375 -0.7014,0.67627 -3.44,3.93355 -6.0857,7.23839 -2.6458,3.30484 -5.3685,7.05141 -6.0504,8.32569 -0.682,1.27429 -1.9119,3.07033 -2.733,3.9912 -0.8212,0.92086 -4.1622,5.45622 -7.4243,10.07856 -3.2622,4.62234 -5.9313,8.821611 -5.9313,9.331701 0,0.5101 1.569,2.84225 3.4867,5.18256 l 3.4868,4.2551 6.788,2.66319 c 3.7334,1.46476 7.5066,2.66319 8.385,2.66319 l 1.5969,0 7.8783,-5.15251 c 4.3331,-2.83389 9.8014,-6.17888 12.1518,-7.43332 l 4.2735,-2.2808 3.2444,0.5265 3.2445,0.5265 35.982,-35.893201 c 19.7902,-19.74125 36.6571,-36.14905 37.4821,-36.46178 l 1.5,-0.56859 2.1976,0.81701 2.1977,0.817 1.5037,2.90789 1.5037,2.90788 -1.793,3.34322 -1.793,3.34322 -3.6935,1.91678 -3.6935,1.91678 -1.3427,3.21344 -1.3427,3.21345 -5.6487,4.92026 -5.6488,4.92027 -4.2234,6.40695 c -2.3229,3.52381 -4.9982,7.57381 -5.9452,9 -0.947,1.42618 -2.6882,4.39305 -3.8694,6.59305 -1.1812,2.2 -5.2923,8.3957 -9.1359,13.76821 -3.8435,5.372521 -9.6311,14.511111 -12.8612,20.307991 -3.23,5.79688 -7.411,12.42618 -9.2909,14.73179 -1.88,2.3056 -4.3921,6.07188 -5.5826,8.3695 l -2.1645,4.1775 1.6295,3.15128 1.6296,3.15129 3.4336,1.43464 3.4336,1.43464 3.3682,-1.40731 3.3682,-1.40732 2.8438,-3.8561 c 1.5641,-2.12086 5.5836,-7.00611 8.9321,-10.85611 3.3485,-3.85 10.6118,-12.4 16.1405,-19 5.5288,-6.6 12.1336,-13.9125 14.6774,-16.25 2.5438,-2.3375 5.0852,-4.250001 5.6475,-4.250001 l 1.0223,0 0,1.399511 c 0,0.76973 -1.6183,3.80723 -3.5962,6.75 -1.9779,2.94277 -6.0215,8.31781 -8.9858,11.94453 l -5.3897,6.59403 -1.624,3.90597 -1.624,3.90596 -4.1841,4.5 c -2.3012,2.475 -6.0768,7.06829 -8.3901,10.2073 -2.3134,3.13902 -4.2061,5.95152 -4.2061,6.25 l 0,0.5427 9.4024,0 9.4023,0 5.9125,-9.25 c 3.2519,-5.0875 7.8726,-12.94379 10.2681,-17.45842 l 4.3556,-8.20841 1.402,-0.538 1.402,-0.538 1.9275,1.0316 1.9276,1.0316 0,3.00465 0,3.00466 -1.8936,3.71016 c -1.0415,2.04059 -2.8893,4.61016 -4.1064,5.71016 -1.2171,1.1 -3.0544,3.64887 -4.0829,5.66414 -1.0286,2.01528 -2.3547,5.82646 -2.947,8.46927 l -1.0768,4.80513 0.5724,2.28073 0.5724,2.28073 2.2586,0 2.2586,0 7.4723,-3.8217 c 4.1098,-2.10194 9.7224,-5.42137 12.4724,-7.37653 2.75,-1.95516 6.4054,-4.26744 8.1232,-5.13842 l 3.1232,-1.58359 0.6268,0.62679 c 0.3447,0.34473 0.6268,1.89295 0.6268,3.44049 l 0,2.8137 -7,7.67906 -7,7.67906 0,1.87196 0,1.87195 1.6061,0.61632 1.6061,0.61633 4.1439,-2.02192 4.1439,-2.02193 10.5,-8.24337 c 5.775,-4.53386 11.6116,-8.66701 12.9703,-9.18479 l 2.4703,-0.94141 1.2797,1.75013 1.2797,1.75013 0,2.12473 0,2.12473 -3.75,2.1176 c -2.0625,1.16467 -7.7303,5.70855 -12.5952,10.0975 -4.8648,4.38894 -9.5028,8.91889 -10.3067,10.06654 l -1.4615,2.08664 2.9843,0 c 1.6414,0 6.4995,-0.48891 10.7958,-1.08647 l 7.8114,-1.08647 3.0873,-1.28995 3.0873,-1.28995 7.4237,-6.42222 c 4.083,-3.53223 8.8431,-7.41284 10.578,-8.62359 l 3.1543,-2.20135 2.0957,0 2.0956,0 0,2.80422 0,2.80422 -3.1246,4.94578 c -1.7186,2.72018 -6.2328,8.85109 -10.0316,13.62426 -3.7988,4.77316 -9.3796,10.93843 -12.4019,13.7006 l -5.495,5.02214 1.9608,1.04939 c 1.0785,0.57716 3.0271,1.04939 4.3304,1.04939 l 2.3696,0 3.4461,-3.62523 3.4462,-3.62523 5.0803,-2.28713 5.0804,-2.28712 10.1916,-9.1401 10.1916,-9.1401 2.8824,2.05246 c 1.5854,1.12885 3.2163,2.05245 3.6244,2.05245 0.408,0 2.9068,-2.025 5.5528,-4.5 2.6459,-2.475 5.2643,-4.5 5.8185,-4.5 0.5542,0 1.4585,0.84252 2.0096,1.87227 l 1.0021,1.87228 -0.8628,3.00836 c -0.4746,1.65459 -2.6966,6.92148 -4.9378,11.7042 l -4.075,8.69584 -3.6484,4.9701 -3.6484,4.97009 -1.8513,5.94817 -1.8513,5.94817 0.5777,1.50526 c 0.3176,0.82789 0.9147,1.50526 1.3268,1.50526 0.4121,0 2.7271,-1.51024 5.1445,-3.35608 2.4175,-1.84585 6.9183,-6.23335 10.0019,-9.75 3.0836,-3.51666 7.1883,-8.86892 9.1216,-11.89392 l 3.5151,-5.5 5.5719,-3.83391 5.5718,-3.83391 1.7974,0.34614 1.7974,0.34614 1.3475,2.8115 1.3475,2.8115 -0.5624,2.24096 -0.5625,2.24096 -3.7089,2.43531 -3.7089,2.43531 -2.0685,3.53219 c -1.1377,1.94271 -4.0194,6.21771 -6.4036,9.5 -2.3843,3.2823 -7.3113,10.24281 -10.9489,15.46781 -3.6376,5.225 -8.5493,12.8641 -10.9149,16.97579 l -4.3012,7.47578 0,3.77422 0,3.77421 0.8341,0 c 0.4588,0 5.7463,-5.44864 11.75,-12.10808 6.0038,-6.65945 13.3909,-15.5397 16.4159,-19.7339 3.025,-4.19421 7.1684,-9.35437 9.2075,-11.46705 l 3.7075,-3.84122 2.1903,0.32513 2.1904,0.32512 0.9941,1.58676 0.994,1.58676 -0.6694,3.56857 -0.6695,3.56857 -8.1509,12.84467 c -4.483,7.06457 -10.3206,16.404 -12.9724,20.75428 l -4.8216,7.90961 0,2.34039 0,2.34039 1.4669,0 1.4669,0 6.9099,-6.25 c 3.8004,-3.4375 8.1701,-7.825 9.7104,-9.75 1.5403,-1.925 4.6332,-5.45391 6.8732,-7.84203 l 4.0727,-4.34203 2.3899,-0.93639 2.3898,-0.93639 1.8602,1.68341 1.8601,1.68341 0,3.38485 0,3.38485 -1.9591,3.84019 -1.9591,3.8402 -9.5318,10.55609 c -5.2425,5.80585 -13.1875,15.42233 -17.6555,21.36996 l -8.1237,10.81388 -2.8846,6 -2.8846,6 0.013,3.5 c 0.01,1.925 0.2842,4.5125 0.6159,5.75 l 0.603,2.25 2.9491,0 2.9491,0 1.8912,1.01215 1.8912,1.01216 0.6544,3.48784 c 0.3598,1.91832 0.866,3.48785 1.1247,3.48785 0.2587,0 2.3461,-1.51551 4.6387,-3.36781 2.2926,-1.85229 5.1512,-3.87729 6.3526,-4.5 1.2013,-0.6227 3.3388,-1.13219 4.75,-1.13219 l 2.5657,0 0,1.62219 0,1.62218 -8.25,8.469 -8.25,8.46901 -6.1417,4.52214 -6.1416,4.52214 -1.0975,2.13667 c -0.6037,1.17517 -1.9552,4.94917 -3.0035,8.38667 -1.0483,3.4375 -1.7507,6.25 -1.561,6.25 0.1898,0 2.2801,-1.28072 4.6452,-2.84604 2.365,-1.56532 9.8277,-5.71133 16.5836,-9.21335 l 12.2835,-6.3673 6.7165,-5.25446 c 3.6941,-2.88995 8.1733,-6.0246 9.9539,-6.96588 l 3.2375,-1.71142 0.6326,0.63266 0.6327,0.63265 -0.6089,2.42593 -0.6088,2.42593 -4.5908,5.10598 -4.5907,5.10598 -8.1145,6.11445 -8.1145,6.11446 -9.5819,4.73734 -9.582,4.73735 -6.4741,4.60567 c -3.5607,2.53312 -7.8887,5.75902 -9.6179,7.16866 l -3.1439,2.56299 -3.0033,6.2442 c -1.6518,3.43431 -3.5474,7.8192 -4.2124,9.7442 -0.6651,1.925 -1.842,5.21045 -2.6155,7.301 l -1.4063,3.80101 -0.2374,4.65225 -0.2373,4.65225 4.9087,3.24447 c 2.6997,1.78446 5.2413,3.78269 5.6478,4.44051 l 0.7392,1.19603 -0.9814,2.81539 -0.9815,2.81539 -3.8243,3.29085 c -2.1034,1.80997 -5.6223,4.49311 -7.8198,5.96253 l -3.9954,2.67168 -0.6818,3.10442 -0.6819,3.10442 -3.2821,4.87725 c -1.8052,2.68248 -3.5893,6.10082 -3.9646,7.59631 -0.3754,1.49548 -2.624,6.15147 -4.9971,10.34665 -2.3731,4.19517 -4.6611,8.75259 -5.0846,10.12759 -0.4235,1.375 -5.149,11.275 -10.5012,22 -5.3522,10.725 -10.0815,20.625 -10.5095,22 -0.4281,1.375 -1.8385,3.89248 -3.1344,5.59439 l -2.3561,3.09439 0,1.51606 c 0,0.83384 -1.1873,3.26567 -2.6385,5.40408 -1.4511,2.13841 -4.1763,7.2637 -6.0559,11.38955 l -3.4174,7.50153 -3.9701,4.71021 -3.97,4.71021 -2.9225,7.18119 -2.9224,7.18119 -2.3643,2.6086 -2.3644,2.6086 -7.671,15.5 -7.6709,15.5 -8.0163,8.86846 -8.0163,8.86845 0.044,3.13155 c 0.024,1.72235 0.46,5.15654 0.9689,7.63154 l 0.9255,4.5 -1.1484,4.71224 -1.1483,4.71223 1.1391,3.71175 1.1392,3.71175 -2.9598,6.74363 c -1.6279,3.70899 -2.9598,7.19617 -2.9598,7.74929 0,0.55311 -1.1816,2.40992 -2.6258,4.12623 l -2.6258,3.12058 -3.7189,1.89727 c -2.0455,1.0435 -7.7589,3.03314 -12.6966,4.42142 l -8.9775,2.52415 -12.4277,6.03005 -12.4277,6.03004 -2.5275,0.005 -2.5275,0.005 -1.9725,1.35743 c -1.0849,0.74659 -4.3298,1.91522 -7.2109,2.59696 l -5.2384,1.23953 -2.4334,1.91409 -2.4334,1.91409 -5.1609,0.97876 c -2.8386,0.53831 -7.2613,1.90747 -9.8282,3.04256 l -4.6673,2.06381 -2.75,2.63348 c -1.5125,1.44841 -2.75,3.15454 -2.75,3.79139 0,0.63686 -0.8791,1.95346 -1.9535,2.92579 l -1.9534,1.76786 -0.2966,5.63215 -0.2965,5.63215 -5.4788,3.26871 c -3.0133,1.7978 -7.9633,4.20075 -11,5.3399 l -5.5212,2.07118 -9.5,0.97179 -9.5,0.9718 -5,2.39989 c -2.75,1.31994 -9.275,4.15985 -14.5,6.3109 -5.225,2.15105 -11.3,4.48148 -13.5,5.17872 -2.2,0.69724 -5.7021,2.12339 -7.7824,3.16922 l -3.7823,1.90151 -0.5718,2.859 -0.5718,2.859 -3.0209,0.60416 c -1.6614,0.33229 -5.5785,0.60417 -8.7047,0.60417 l -5.6838,0 -1.8086,1.32249 -1.8087,1.32248 1.5984,3.09085 1.5983,3.09085 8.0584,8.51312 8.0584,8.51313 10.7107,6.4295 c 5.891,3.53623 14.0858,7.89292 18.2108,9.68153 4.125,1.78861 11.55,5.40965 16.5,8.04675 4.95,2.6371 14.85,7.15163 22,10.03229 7.15,2.88065 14.2878,6.14089 15.8618,7.24497 l 2.8618,2.00742 -1.6501,0.9234 -1.65,0.92339 -7.2117,-1.11382 c -3.9665,-0.6126 -9.6868,-1.75715 -12.7118,-2.54344 -3.025,-0.78628 -10.9,-3.19515 -17.5,-5.35304 -6.6,-2.15789 -13.6466,-4.70917 -15.6591,-5.66952 l -3.6591,-1.74609 -1.5909,0.61049 -1.5909,0.61048 0,2.0045 0,2.0045 6.5335,7.77689 c 3.5934,4.27728 7.9175,9.88517 9.6091,12.46196 l 3.0756,4.68508 3.7972,1.51933 c 2.0885,0.83564 6.8769,2.03608 10.6409,2.66765 l 6.8437,1.14832 1.2331,1.56522 1.233,1.56523 -1.1055,1.33205 c -0.608,0.73262 -1.7584,1.33204 -2.5564,1.33204 l -1.4508,0 0.3233,1.75 0.3233,1.75 3.7885,1.85076 3.7886,1.85077 11.7114,2.39126 c 6.4413,1.3152 16.6615,2.91845 22.7115,3.56279 l 11,1.17153 1.4643,1.33645 1.4643,1.33644 -1.539,1.53896 -1.5389,1.53895 -6.4254,0.91278 c -3.5339,0.50202 -12.6128,1.20559 -20.1753,1.56348 l -13.75,0.65072 0,0.88501 c 0,0.48676 1.9125,2.09542 4.25,3.57482 l 4.25,2.6898 5.8391,1.82274 5.8391,1.82274 4.1609,0.0148 4.1609,0.0148 6,1.45271 c 3.3,0.79898 10.2914,3.15909 15.5365,5.24468 l 9.5365,3.79198 2.8483,2.24053 2.8484,2.24054 1.7884,0 1.7884,0 2.9794,2.50699 c 1.6387,1.37884 5.8357,3.84354 9.3268,5.47711 l 6.3473,2.97012 7.91,2.02289 7.9099,2.02289 4.7293,0 4.7292,0 2.2715,1.83932 2.2715,1.83932 -2.2943,2.29427 -2.2943,2.29427 -11.1164,-0.52144 -11.1164,-0.52144 -9,-2.20995 -9,-2.20995 -8.1072,-3.84333 -8.1072,-3.84333 -8.8928,-2.53887 c -4.891,-1.39637 -12.1847,-3.22286 -16.2082,-4.05886 -4.024,-0.83668 -8.8615,-1.52068 -10.7506,-1.52068 l -3.4346,0 0,0.99284 0,0.99285 13.25,6.61775 c 7.2875,3.63977 18.1115,9.53615 24.0533,13.10309 5.9418,3.56693 13.5531,8.69216 16.9139,11.3894 3.3608,2.69724 6.6718,4.90407 7.3578,4.90407 l 1.2472,0 2.5889,3.07673 2.5889,3.07672 0,1.42328 0,1.42327 -2.3014,0 -2.3013,0 -9.4487,-5.62066 c -5.1967,-3.09136 -15.8568,-8.79148 -23.6891,-12.66693 l -14.2405,-7.04629 -5.5095,-0.45689 -5.5095,-0.45689 0,1.91142 0,1.91142 4.75,4.54983 c 2.6125,2.50241 6.81,6.1887 9.3278,8.19176 l 4.5778,3.64193 6.9222,-2.9523 c 3.8072,-1.62376 7.5243,-2.96447 8.2601,-2.97935 l 1.3379,-0.0271 -0.684,4.25 -0.684,4.25 -1.4039,2.21482 -1.4039,2.21481 0,2.13398 0,2.13397 3.07,2.8678 3.07,2.86781 9.4738,5.2331 9.4737,5.2332 5.0379,4.3003 c 2.7709,2.3651 5.4353,4.3003 5.9211,4.3003 0.4857,0 1.4171,-1.0126 2.0697,-2.25 0.6527,-1.2375 4.7983,-5.9625 9.2126,-10.5 4.4143,-4.5376 8.4094,-8.25009 8.878,-8.25009 0.4686,0 3.1292,-1.8 5.9124,-4 2.7832,-2.2 5.4786,-4 5.9896,-4 0.5111,0 4.7745,-3.42116 9.4743,-7.60258 l 8.5451,-7.60258 0.5822,0.58225 0.5823,0.58225 -2.5198,3.77033 c -1.3858,2.07368 -4.4282,5.92292 -6.7608,8.55386 l -4.2411,4.78353 -3.1355,1.60488 c -1.7245,0.88268 -5.1605,3.28031 -7.6355,5.32815 -2.475,2.0478 -5.9625,4.472 -7.75,5.3873 l -3.25,1.6641 0,0.9743 0,0.9743 -1.9503,0 -1.9503,0 -0.7997,1.3966 c -0.4398,0.7682 -2.4872,2.3876 -4.5497,3.5988 l -3.75,2.2021 0,1.7463 0,1.7462 1.75,1.5344 c 0.9625,0.8439 3.1902,2.2637 4.9503,3.155 l 3.2004,1.6206 5.3931,0 5.3931,0 5.8671,-2.0186 c 3.2269,-1.1102 9.0349,-3.4533 12.9066,-5.2067 3.8716,-1.7535 11.3144,-5.543 16.5394,-8.4211 l 9.5,-5.2329 13.6538,-5.5448 13.6537,-5.54492 9.4361,-1.41754 9.4361,-1.41754 5.2664,-2.66866 c 2.8965,-1.46777 7.0904,-3.99001 9.3198,-5.60498 2.2294,-1.61498 4.2593,-2.73048 4.5109,-2.4789 0.2516,0.25159 -0.6078,1.87468 -1.9097,3.60688 -1.3019,1.7322 -3.4921,4.20311 -4.8671,5.49091 -1.375,1.2878 -6.55,5.78711 -11.5,9.99855 -4.95,4.2114 -10.2375,8.2993 -11.75,9.0843 -1.5125,0.785 -2.75,1.8192 -2.75,2.2981 l 0,0.8709 -7.25,4.4373 c -3.9875,2.4405 -13.679,8.3732 -21.5367,13.1838 l -14.2867,8.7465 -2.9518,0.8466 c -1.6235,0.4657 -4.7474,2.117 -6.942,3.6697 -2.1945,1.5527 -3.9997,3.2181 -4.0114,3.7009 l -0.021,0.8778 4.1461,-0.663 4.1462,-0.663 10.6757,-4.3724 c 5.8716,-2.4049 24.3683,-11.2186 41.1038,-19.5861 l 30.4282,-15.2136 6.5,-4.2073 c 3.575,-2.3138 7.1176,-4.95937 7.8724,-5.87873 l 1.3725,-1.67156 1.3775,0 1.3776,0 0,2.93269 0,2.9328 -8.25,6.0718 -8.25,6.0718 -12,6.1421 c -6.6,3.3782 -13.8,7.363 -16,8.8552 -2.2,1.4921 -12.55,7.3655 -23,13.052 -10.45,5.6864 -21.6601,11.7121 -24.9113,13.3903 l -5.9113,3.0514 -1.0718,1.7312 -1.0717,1.7313 1.7732,1.7687 1.7731,1.7688 11.7099,-0.067 11.7099,-0.067 9,-2.1191 9,-2.119 11.5452,-1.0572 11.5452,-1.0573 5.2406,-1.5563 5.2406,-1.5563 2.7142,-2.4518 c 1.4928,-1.3485 6.5392,-4.7794 11.2142,-7.6242 4.675,-2.8448 14.2869,-8.2937 21.3598,-12.1087 l 12.8597,-6.9363 4.1403,-0.5364 4.1402,-0.5364 -1.9427,2.188 c -1.0685,1.2034 -5.1185,4.6196 -9,7.5916 l -7.0573,5.4037 -9.4737,4.8368 -9.4737,4.8369 -3.3269,4.362 -3.327,4.3619 0.3017,2.1059 0.3016,2.1058 2.7969,-0.1948 2.7968,-0.1948 6.2021,-4.1879 c 3.4112,-2.3033 13.8522,-9.934 23.2022,-16.9569 9.35,-7.023 19.6375,-15.0842 22.8611,-17.9137 l 5.8611,-5.1445 1.0764,0.3588 c 0.592,0.1973 1.2397,0.8486 1.4392,1.4472 l 0.3628,1.0883 -4.3476,5.3333 c -2.3912,2.9333 -8.1837,8.7154 -12.8723,12.8492 -4.6886,4.1337 -9.8423,8.1635 -11.4527,8.955 -1.6104,0.7916 -4.053,2.6435 -5.428,4.1153 -1.375,1.4718 -6.9148,6.1418 -12.3108,10.3778 l -9.8107,7.7018 0.3107,2.1811 0.3108,2.1811 6,1.6718 6,1.6719 5.5251,0.08 5.5251,0.08 11.9749,-2.9249 c 6.5862,-1.6088 14.8999,-4 18.4749,-5.3138 l 6.5,-2.3889 12.3399,-8.1897 12.3399,-8.1897 2.4567,-0.6166 2.4566,-0.6166 0.7035,0.7327 0.7034,0.7326 -5,4.1374 c -2.75,2.2756 -6.6823,5.8385 -8.7385,7.9175 l -3.7385,3.78 -0.6193,2.4678 -0.6194,2.4677 0.5467,1.4246 0.5467,1.4247 1.8957,-0.4958 c 1.0426,-0.2726 5.5256,-3.2752 9.9622,-6.6724 4.4366,-3.3971 15.1985,-11.6941 23.9155,-18.4376 l 15.8489,-12.261 3.9454,-1.9602 c 2.17,-1.0782 4.1366,-1.7692 4.3701,-1.5356 0.2336,0.2336 0.139,1.5628 -0.2101,2.9538 l -0.6347,2.5291 -10.3912,8.9202 -10.3911,8.9201 -2.0942,0.6647 -2.0942,0.6647 0,0.8974 c 0,0.4936 0.948,1.4048 2.1066,2.0248 l 2.1065,1.1274 4.1435,-0.4938 c 2.2789,-0.2716 5.0432,-0.6506 6.1429,-0.8422 l 1.9995,-0.3484 0.3133,2.1984 0.3133,2.1984 -1.098,2.0516 -1.098,2.0516 -2.7148,0.01 -2.7148,0.01 -3,1.9868 -3,1.9868 -2.5,0.03 -2.5,0.03 -6.466,3.2264 -6.4659,3.2264 -0.3448,1.1823 -0.3448,1.1823 2.1574,1.1546 2.1575,1.1547 12.6533,-0.2981 c 6.9593,-0.164 17.1533,-0.264 22.6533,-0.2223 l 10,0.076 5.5244,2.1228 5.5244,2.1228 5.8567,6.0125 5.8567,6.0126 2.321,0 2.321,0 6.2979,4.3365 c 3.4638,2.3851 9.2229,6.0576 12.7979,8.1613 3.575,2.1036 8.4125,5.3573 10.75,7.2304 l 4.25,3.4057 0,1.933 0,1.9331 -1.9986,0 -1.9987,0 -8.8834,-4 c -4.8859,-2.2 -9.3994,-4 -10.0299,-4 -0.6305,0 -3.7211,-1.2913 -6.8679,-2.8696 -3.1468,-1.5783 -6.8465,-3.1745 -8.2215,-3.5472 l -2.5,-0.6777 4.3118,3.988 4.3118,3.9879 4.6882,2.2208 c 2.5785,1.2214 7.8382,4.56 11.6882,7.4191 3.85,2.8591 9.475,6.7794 12.5,8.7119 l 5.5,3.5136 7.5954,7.9538 7.5955,7.9539 4.01,5.9227 c 2.2055,3.2576 4.7501,7.363 5.6546,9.1231 l 1.6445,3.2004 0,3.133 0,3.133 -0.896,-0.3334 c -0.4928,-0.1833 -3.9444,-4.1583 -7.6701,-8.8333 -3.7258,-4.675 -10.9647,-12.6822 -16.0865,-17.7937 l -9.3124,-9.2937 -3.7066,-1.5487 c -2.0385,-0.8518 -5.3009,-2.6321 -7.2496,-3.9563 -1.9487,-1.3242 -4.1494,-2.4076 -4.8904,-2.4076 l -1.3473,0 0.6761,3.25 c 0.3719,1.7875 2.428,7.75 4.569,13.25 l 3.8928,10 5.4996,19.8958 c 3.0248,10.9427 6.1464,23.3177 6.9369,27.5 0.7905,4.1823 1.7515,11.9164 2.1356,17.1869 l 0.6984,9.5827 -1.1544,2.1569 -1.1544,2.157 -2.907,1.5033 -2.907,1.5032 -1.5154,-0.5815 -1.5153,-0.5814 -0.5015,-4.1615 c -0.2759,-2.2888 -0.7466,-9.3992 -1.0461,-15.8009 l -0.5446,-11.6395 -1.9489,-11.3605 -1.9489,-11.3605 -2.6804,-8 c -1.4742,-4.4 -3.9234,-10.4764 -5.4427,-13.503 -1.5193,-3.0267 -3.697,-6.6267 -4.8394,-8 l -2.077,-2.497 -0.064,7 c -0.035,3.85 -0.4869,10.2542 -1.0035,14.2316 l -0.9394,7.2315 -2.1134,4.1426 c -1.1624,2.2784 -3.4258,5.9542 -5.0298,8.1685 l -2.9163,4.0259 0,5.8821 0,5.882 -1.5477,3.7043 c -0.8513,2.0373 -2.5047,4.7228 -3.6743,5.9679 l -2.1266,2.2636 -1.8571,0 -1.8571,0 -0.5677,-1.4795 -0.5678,-1.4795 2.1205,-4.3804 2.1205,-4.3803 1.423,-7.4369 c 0.7826,-4.0903 1.9033,-13.0409 2.4905,-19.8902 l 1.0677,-12.4532 -0.9998,-7.8479 -0.9998,-7.8479 -2.6729,-5.956 -2.6729,-5.9559 -2.4568,-1.9325 -2.4568,-1.9325 -0.8824,0.5453 -0.8825,0.5454 -0.07,7.691 -0.07,7.691 -0.7398,1.8841 -0.7398,1.8841 -2.9399,-5.8841 -2.9399,-5.8841 -1.5,0 -1.5,0 -0.5,4.4911 -0.5,4.491 -1.5615,0.296 -1.5615,0.2959 -1.56,-1.787 -1.56,-1.787 -1.7507,-5.5 c -0.9629,-3.025 -3.1211,-8.1112 -4.7959,-11.3026 l -3.0452,-5.8027 -5.3606,-4.8993 -5.3606,-4.8992 -8.0878,-4.0481 -8.0878,-4.0481 -1.9391,0 c -1.0664,0 -4.0031,-0.9403 -6.5259,-2.0896 l -4.5869,-2.0895 -2.0043,0.8943 -2.0042,0.8943 6.7286,7.4453 c 3.7008,4.0948 12.2853,14.2759 19.0767,22.6246 6.7915,8.3487 13.1453,16.4487 14.1196,18 0.9744,1.5513 3.4486,4.6884 5.4983,6.9712 2.0497,2.2828 4.6901,6.0389 5.8675,8.3469 l 2.1408,4.1963 -0.5743,0.5743 -0.5743,0.5743 -3.7454,-3.0273 c -2.06,-1.665 -9.3365,-9.0545 -16.17,-16.4212 -6.8335,-7.3666 -17.6182,-18.9721 -23.966,-25.79 l -11.5416,-12.396 -3.0339,-1.8502 -3.034,-1.8502 -5.25,0 -5.25,0 0,0.8605 c 0,0.4732 1.1798,2.6107 2.6218,4.75 1.442,2.1392 6.3497,7.7675 10.9059,12.5072 l 8.2841,8.6176 1.6678,3.2253 c 0.9173,1.7739 1.4436,3.4495 1.1695,3.7236 -0.2741,0.2741 -1.485,0.1853 -2.6908,-0.1974 l -2.1924,-0.6959 -12.2604,-12.1454 -12.2603,-12.1455 -3.69,-5.8072 -3.6899,-5.8072 -1.1826,-0.3584 c -0.6505,-0.1971 -3.8858,-0.603 -7.1896,-0.902 l -6.0069,-0.5437 -1.4677,0.9071 -1.4677,0.9071 2.2246,4.5789 2.2246,4.5789 0,2.4733 0,2.4732 -1.3129,0 -1.3129,0 -2.5649,-2.75 c -1.4107,-1.5125 -3.0699,-3.7329 -3.6871,-4.9343 l -1.1222,-2.1842 0,-2.9433 0,-2.9433 -1.4237,-1.1816 -1.4236,-1.1815 -4.0764,1.0976 -4.0763,1.0977 0,1.5806 0,1.5807 3.6663,6.1308 c 2.0165,3.3719 5.9227,9.2808 8.6804,13.1308 2.7577,3.85 11.2531,14.0825 18.8787,22.7389 l 13.8647,15.7389 2.2049,1.1311 c 1.2128,0.6221 3.555,2.3934 5.205,3.9363 l 3,2.8052 4.25,1.6834 4.25,1.6834 0,1.9228 0,1.9228 -1.5377,0.59 -1.5377,0.5901 -4.7123,-1.7603 -4.7123,-1.7603 -6.5,-4.2795 c -3.575,-2.3536 -9.3959,-6.9036 -12.9354,-10.1111 -3.5395,-3.2074 -10.9052,-10.7817 -16.3682,-16.8317 l -9.9328,-11 -4.3982,-6.6378 -4.3983,-6.6378 -4.4612,-4.1122 -4.4612,-4.1122 -2.5537,0 -2.5538,0 -0.5825,1.518 -0.5825,1.5179 1.2954,3.2321 c 0.7124,1.7776 2.7381,5.5242 4.5015,8.3258 1.7634,2.8016 6.0208,8.364 9.4608,12.3608 3.44,3.9969 7.7655,9.5124 9.6123,12.2567 l 3.3578,4.9897 0,1.8995 0,1.8995 -1.0599,0 c -0.5829,0 -3.5633,-2.3625 -6.6232,-5.25 -3.0599,-2.8875 -10.4725,-10.9618 -16.4724,-17.9429 l -10.9091,-12.6928 -2.0423,-0.6482 -2.0422,-0.6482 -1.7906,-4.1773 -1.7906,-4.1773 -8.3849,-4.1729 -8.3848,-4.173 -6.4088,-1.6272 -6.4089,-1.6273 -2.3411,0.5876 -2.3412,0.5876 0,1.3993 0,1.3993 4.5387,5.3172 4.5387,5.3172 -0.2887,1.9123 -0.2887,1.9123 -1.8211,1.1022 -1.821,1.1021 -5.5731,-5.9515 -5.5731,-5.9514 -2.368,-5.3547 -2.3681,-5.3547 -3.4557,-1.4438 -3.4557,-1.4439 -3.0642,0 -3.0642,0 -3.7095,-1.5499 c -2.0401,-0.8524 -5.6397,-1.9825 -7.999,-2.5112 l -4.2897,-0.9613 -2.4688,0.6196 -2.4688,0.6196 0,1.155 c 0,0.6352 1.6565,3.6239 3.6811,6.6415 l 3.6811,5.4867 11.2002,11.5 11.2002,11.5 2.7441,5.4642 2.744,5.4641 8.1438,8.0359 8.1437,8.0358 9.9809,7.4567 c 5.4895,4.1011 11.2184,8.5728 12.7309,9.9371 1.5125,1.3642 2.75,2.8462 2.75,3.2933 l 0,0.8129 -2.8404,0 -2.8404,0 -8.2719,-4.9716 c -4.5496,-2.7343 -10.3589,-6.6655 -12.9096,-8.7359 -2.5507,-2.0704 -8.6877,-7.5562 -13.6377,-12.1906 -4.95,-4.6345 -16.801,-16.5658 -26.3355,-26.5141 -9.5346,-9.9483 -18.0691,-19.3253 -18.9657,-20.8378 -0.8965,-1.5125 -1.983,-2.75 -2.4144,-2.75 l -0.7844,0 0.01,2.75 0.01,2.75 2.3969,5.1478 2.3969,5.1478 7.7783,10.8522 c 4.2781,5.9687 10.3052,14.2272 13.3936,18.3522 3.0883,4.125 6.5233,9.075 7.6333,11 1.11,1.925 2.3055,4.625 2.6567,6 l 0.6385,2.5 -10.2556,-10.5 -10.2556,-10.5 -6.3305,-9 c -3.4818,-4.95 -7.9044,-10.9453 -9.828,-13.3229 l -3.4974,-4.323 -5.3362,-2.5266 -5.3362,-2.5265 -9.7871,-9.1645 c -5.3829,-5.0405 -11.2066,-10.1707 -12.9415,-11.4005 l -3.1543,-2.236 -2.0957,0 -2.0956,0 0,1.3434 c 0,0.7389 0.9,3.9594 2,7.1566 1.1,3.1972 2,6.6427 2,7.6566 l 0,1.8434 -1.0352,0 c -0.5693,0 -2.1567,-0.7349 -3.5275,-1.633 l -2.4923,-1.633 -13.6322,-17.1145 -13.6322,-17.1145 -1.5903,-3.5025 c -0.8747,-1.9264 -4.2563,-7.0919 -7.5148,-11.4789 l -5.9246,-7.9763 -0.4083,1.225 -0.4084,1.2251 3.0348,9.2513 c 1.6691,5.0882 3.3315,10.9388 3.6942,13.0013 l 0.6594,3.75 -0.9242,0 c -0.5083,0 -2.2459,-1.3887 -3.8613,-3.0861 -1.6154,-1.6973 -3.7473,-3.5253 -4.7376,-4.0622 -0.9902,-0.5368 -6.6956,-1.7991 -12.6786,-2.8049 l -10.8782,-1.8289 -7.0429,-3.804 -7.043,-3.8041 -0.6182,0.6183 -0.6182,0.6182 5.1541,16.3268 5.1541,16.3269 0.1857,5.3942 0.1857,5.3942 -1.2658,0.4444 -1.2659,0.4444 -2.3787,-5.3786 c -1.3082,-2.9583 -4.9889,-12.7643 -8.1793,-21.7913 l -5.8006,-16.4126 -2.5873,-2.8957 -2.5873,-2.8956 -4.6998,-0.5298 -4.6998,-0.5297 -0.6573,1.713 -0.6574,1.713 1.6525,8.4104 1.6525,8.4104 3.405,9.5267 c 1.8727,5.2396 4.6098,11.5826 6.0825,14.0955 l 2.6775,4.5689 3.6546,1.5205 c 2.01,0.8362 6.6553,3.2997 10.3228,5.4745 l 6.6683,3.954 3.3317,0.091 c 1.8325,0.05 13.6818,-0.6435 26.3318,-1.5409 12.65,-0.8974 25.7572,-1.9141 29.1271,-2.2594 l 6.1271,-0.6278 0.6119,0.9901 0.6119,0.99 -1.3479,1.1186 c -0.7413,0.6152 -3.9777,2.0234 -7.1921,3.1293 l -5.8443,2.0108 -12.0468,1.5591 -12.0469,1.559 -2.5,1.1884 -2.5,1.1883 0,1.4866 0,1.4865 4.5,1.3783 c 2.475,0.758 5.9625,1.9882 7.75,2.7338 1.7875,0.7455 3.25,1.7195 3.25,2.1643 l 0,0.8088 -4.25,1.1699 -4.25,1.1698 -2.9706,2.4193 -2.9706,2.4193 1.2351,1.4882 c 0.6793,0.8185 3.8978,2.6831 7.1522,4.1436 l 5.917,2.6554 18.3185,4.0085 c 10.0751,2.2046 20.6358,4.4577 23.4683,5.0068 l 5.1498,0.9983 17.8183,-1.5607 17.8183,-1.5607 4.2818,0.6421 4.2819,0.6421 0,0.7651 c 0,0.4208 -1.4625,1.3439 -3.25,2.0512 -1.7875,0.7073 -3.925,1.8525 -4.75,2.545 -0.825,0.6924 -4.0875,2.2256 -7.25,3.4071 l -5.75,2.1482 0,0.9051 c 0,0.4978 1.0125,1.556 2.25,2.3514 l 2.25,1.4464 5.9337,1.0767 c 3.2635,0.5922 9.1135,1.1216 13,1.1764 3.8864,0.055 8.1579,0.4047 9.4922,0.7776 l 2.4258,0.6779 0.3849,1.1547 0.3849,1.1547 -2.3107,1.2709 c -1.271,0.6989 -4.7858,1.7973 -7.8108,2.4408 l -5.5,1.17 3,0.7017 c 1.65,0.386 9.3,2.4268 17,4.5352 7.7,2.1084 15.251,4.1117 16.78,4.4517 1.529,0.34 10.529,1.7055 20,3.0344 9.471,1.3289 19.47,2.9065 22.22,3.5058 2.75,0.5993 5.662,1.5006 6.471,2.0029 l 1.4711,0.9133 -0.5824,0.5823 c -0.3203,0.3203 -4.3222,1.0089 -8.8932,1.5302 l -8.3108,0.9479 -2.3279,-0.5843 -2.3278,-0.5842 -2.4874,0.6243 -2.4873,0.6243 -1.6229,2.4768 -1.6229,2.4768 0.6086,2.4247 0.6085,2.4247 3.2517,1.9514 c 1.7884,1.0733 4.8044,2.2423 6.7021,2.5977 l 3.4504,0.6463 10.7542,4.9975 c 5.9149,2.7486 15.3946,6.5502 21.0661,8.448 l 10.3119,3.4506 7.4835,1.1073 c 4.1159,0.609 11.2611,1.7696 15.8782,2.5791 4.6171,0.8095 9.2779,1.9445 10.3574,2.5222 l 1.9626,1.0504 -1.1079,1.1079 -1.108,1.108 -11.9188,0.5494 -11.9188,0.5494 -0.6463,0.649 -0.6463,0.649 3.3157,2.4649 c 1.8236,1.3557 7.3657,4.6196 12.3157,7.2531 4.95,2.6335 13.95,7.7064 20,11.2731 6.05,3.5667 13.1599,8.0531 15.7999,9.9697 l 4.7998,3.4848 -0.2998,1.521 c -0.165,0.8366 -0.9981,1.9606 -1.8513,2.4979 l -1.5515,0.9768 -9.8897,-5.7096 c -5.4394,-3.1403 -11.983,-6.5347 -14.5414,-7.5431 -2.5583,-1.0084 -6.3601,-2.9929 -8.4483,-4.41 -2.0882,-1.4171 -4.4272,-2.5766 -5.1977,-2.5766 -0.7706,0 -2.6203,-0.8789 -4.1105,-1.953 l -2.7095,-1.953 -5.4679,1.453 c -3.0074,0.7991 -6.2699,1.453 -7.25,1.453 -0.9802,0 -1.7821,0.243 -1.7821,0.5401 0,0.297 2.7189,4.4595 6.0421,9.25 3.3231,4.7904 7.6389,11.4099 9.5906,14.7099 1.9517,3.3 5.2826,10.1543 7.402,15.2318 2.1193,5.0774 5.4493,14.1684 7.3998,20.202 l 3.5465,10.9703 0.6269,8.298 0.627,8.2979 -1.1514,4.233 -1.1514,4.233 -2.0734,1.1096 -2.0734,1.1097 -0.9244,-0.9244 -0.9244,-0.9244 -0.9958,-9.4182 -0.9958,-9.4183 -1.5462,-5 c -0.8504,-2.75 -3.7725,-9.6903 -6.4936,-15.4228 l -4.9474,-10.4229 -3.631,-4.4311 -3.6309,-4.431 -0.894,1.5975 -0.8941,1.5976 -0.01,4.2563 c 0,2.341 0.2818,9.2064 0.6367,15.2564 l 0.6454,11 -2.1177,16 c -1.1648,8.8 -2.618,17.575 -3.2294,19.5 -0.6114,1.925 -1.9799,4.7375 -3.041,6.25 l -1.9293,2.75 -1.4319,0 -1.4319,0 0,-2.2886 0,-2.2885 2.0223,-3.9615 2.0224,-3.9614 -0.6535,-2.9853 c -0.3594,-1.642 -1.251,-3.8972 -1.9812,-5.0118 l -1.3278,-2.0264 2.1332,-7.9882 2.1332,-7.9883 -0.02,-12 -0.02,-12 -4.0533,-12.5 c -2.2294,-6.875 -4.3181,-13.6798 -4.6415,-15.1218 l -0.5881,-2.6218 -4.0161,-3.6282 -4.016,-3.6282 -1.6134,0 -1.6135,0 -5.8596,-5.425 -5.8597,-5.425 -2.1246,-0.6743 -2.1247,-0.6744 -0.8873,0.8873 -0.8873,0.8873 2.5245,4.4621 c 1.3885,2.4541 4.1257,7.7091 6.0827,11.6777 l 3.5582,7.2158 -0.3687,1.106 -0.3686,1.106 -2.8008,-2.2031 -2.8008,-2.203 -0.824,-2.1187 c -0.4532,-1.1653 -4.7202,-7.0687 -9.4823,-13.1187 -4.762,-6.05 -10.4842,-13.1684 -12.7159,-15.8187 l -4.0577,-4.8187 -4.3634,-2.1199 -4.3634,-2.1199 -0.5186,0.5185 -0.5185,0.5186 1.5761,5.42 c 0.8669,2.9811 3.3658,9.4701 5.5531,14.4201 2.1872,4.95 4.8963,11.025 6.02,13.5 1.1237,2.475 5.3851,10.35 9.4698,17.5 4.0846,7.15 8.3478,14.164 9.4736,15.5866 l 2.0471,2.5866 0.541,4.0337 0.5411,4.0338 -1.1625,0.7184 -1.1625,0.7185 -3.2565,-3.453 -3.2566,-3.453 -3.7331,-7.104 c -2.0532,-3.9073 -4.7596,-8.3559 -6.0143,-9.8858 -1.2547,-1.53 -4.4731,-6.8318 -7.1521,-11.7818 -2.6789,-4.95 -5.7844,-11.025 -6.901,-13.5 -1.1166,-2.475 -6.1943,-12.825 -11.2837,-23 l -9.2535,-18.5 -2.9757,-3.1415 c -1.6366,-1.7278 -5.1359,-4.8667 -7.7764,-6.9754 -2.6404,-2.1086 -7.7257,-6.3512 -11.3007,-9.428 -3.575,-3.0767 -10.1882,-8.377 -14.696,-11.7784 -4.5077,-3.4014 -8.8952,-7.1827 -9.75,-8.403 l -1.554,-2.2187 0,-2.055 0,-2.055 1.6329,-2.3313 1.633,-2.3314 -1.383,-0.8758 c -0.7606,-0.4817 -2.3699,-0.8828 -3.5762,-0.8912 l -2.1933,-0.015 -1.5567,2.2225 -1.5567,2.2225 0,2.3875 0,2.3875 3.1443,5.8993 3.1442,5.8992 4.6058,5.3115 c 2.5331,2.9213 8.2057,9.7002 12.6057,15.0642 4.4,5.3639 8.1455,10.3946 8.3233,11.1792 l 0.3233,1.4266 -1.9755,0 -1.9754,0 -1.0459,-3 -1.0458,-3 -1.6304,0 -1.6304,0 -3.9603,-4 -3.9602,-4 -1.4613,0 -1.4614,0 0,1.5657 c 0,0.8612 0.4958,2.5487 1.1017,3.75 0.6059,1.2014 4.6835,8.5041 9.0612,16.2283 l 7.9596,14.044 7.9387,8.9183 7.9388,8.9183 0,1.2287 c 0,0.6758 -0.4635,1.5151 -1.0299,1.8652 l -1.0299,0.6365 -4.3566,-2.5531 -4.3565,-2.5531 -3.9879,-4.7744 c -2.1933,-2.6259 -12.4033,-17.1494 -22.6888,-32.2744 -10.2856,-15.125 -20.1296,-28.9953 -21.8757,-30.823 l -3.1747,-3.3229 -8.5,-4.6042 -8.5,-4.6042 -6.0465,-5.5729 -6.0465,-5.5728 -7.2506,-3.9444 c -3.9878,-2.1694 -9.0653,-5.4977 -11.2832,-7.3961 l -4.0327,-3.4518 -2.4328,-3.8539 -2.4328,-3.8538 -1.4644,0 -1.4644,0 -1.6146,2.4643 -1.6147,2.4642 -0.5251,5.7917 -0.5252,5.7917 9.2214,11.494 9.2213,11.4941 1.3803,3.1816 c 0.7591,1.7499 1.8818,3.4916 2.4948,3.8705 0.613,0.3789 2.4195,3.4471 4.0143,6.8184 l 2.8998,6.1295 8e-4,2.25 8e-4,2.25 0.9797,0 0.9797,0 1.9938,3.9082 1.9938,3.9083 0.5963,4.3417 0.5963,4.3418 -2.1522,-2.4626 c -1.1837,-1.3544 -3.3116,-4.5044 -4.7285,-7 -1.4169,-2.4956 -3.0778,-4.9874 -3.6909,-5.5374 -0.613,-0.55 -2.9727,-4.15 -5.2438,-8 -2.2711,-3.85 -8.8472,-13.525 -14.6135,-21.5 -5.7664,-7.975 -11.4069,-15.3316 -12.5345,-16.348 l -2.0502,-1.8479 -1.0033,0.62 -1.0032,0.6201 1.0737,3.2279 c 0.5906,1.7753 3.7476,9.0001 7.0157,16.055 l 5.9419,12.827 0.5772,3.5572 0.5772,3.5571 -1.4026,-0.4452 -1.4026,-0.4453 -8.8336,-13.939 -8.8336,-13.9389 -4.0974,-8.5 -4.0974,-8.5 -5.5756,-6 c -3.0665,-3.3 -6.9408,-7.575 -8.6093,-9.5 -1.6686,-1.925 -3.7857,-4.1031 -4.7048,-4.8403 l -1.6709,-1.3403 -3.7112,1.2248 -3.7113,1.2248 -3.0934,-1.666 -3.0935,-1.6659 -3.2155,-4.7185 -3.2156,-4.7186 -1.0198,-5.3938 -1.0199,-5.3938 -4.5868,-5.3689 c -2.5227,-2.9529 -8.9824,-9.3628 -14.3549,-14.2441 -5.3725,-4.8814 -10.8453,-9.4319 -12.1618,-10.1123 -1.3165,-0.6804 -3.3945,-2.1482 -4.6176,-3.2619 l -2.2239,-2.0248 -0.6339,1.652 -0.634,1.6521 0.6843,2.7263 c 0.3763,1.4995 4.8617,10.611 9.9674,20.2478 5.1058,9.6367 16.5908,31.8394 25.5224,49.3393 l 16.2392,31.8178 -0.5522,0.5523 -0.5523,0.5522 -2.3177,-0.5817 -2.3177,-0.5817 -5.4301,-8.2884 c -2.9866,-4.5586 -8.9088,-14.1384 -13.1606,-21.2884 -4.2518,-7.15 -9.0462,-14.575 -10.6543,-16.5 -1.6081,-1.925 -5.5173,-7.775 -8.6871,-13 -3.1698,-5.225 -10.4369,-18.8375 -16.149,-30.25 l -10.3857,-20.75 -1.0202,0 -1.0202,0 -1.0428,2.7429 -1.0429,2.7428 2.674,9.5072 c 1.4707,5.2289 5.5311,18.7869 9.0232,30.1289 3.4921,11.342 9.7342,29.7455 13.8714,40.8967 l 7.5221,20.2749 1.5384,1.6998 1.5383,1.6999 4.0368,1.2094 4.0367,1.2095 0.6096,1.5886 0.6097,1.5886 -1.8536,1.3554 -1.8537,1.3554 -4.1523,0 -4.1523,0 -5.4485,-1.8746 c -2.9967,-1.031 -8.7343,-2.4287 -12.7504,-3.1061 l -7.3018,-1.2317 -0.939,0.939 -0.939,0.939 0.5542,1.4442 0.5543,1.4442 5.7285,1.5989 c 3.1507,0.8794 8.2589,2.5386 11.3515,3.6871 l 5.6229,2.0882 9.3477,1.1366 9.3477,1.1366 6.4033,1.9777 6.4033,1.9778 2.3535,2.3535 2.3535,2.3535 -1.5612,3.7365 -1.5612,3.7364 1.1186,2.4551 1.1186,2.4551 1.794,-1.6235 1.7939,-1.6235 3.5659,0 3.5659,0 6.8554,2.1201 6.8553,2.1201 11.2618,0.6917 11.2618,0.6917 1.1369,1.1369 1.1368,1.1368 -1.6116,2.4596 -1.6116,2.4597 1.2129,0.9586 c 0.6672,0.5273 6.388,3.5892 12.713,6.8043 l 11.5,5.8456 10.5,7.9195 c 5.775,4.3557 13.3143,10.6614 16.7541,14.0126 l 6.254,6.0931 0.603,2.0248 c 0.3317,1.1137 1.9757,4.1998 3.6535,6.858 l 3.0505,4.833 -1.1914,6.4657 c -0.6552,3.5561 -2.0796,8.7192 -3.1652,11.4735 l -1.9739,5.0079 -4.8394,7.1934 -4.8393,7.1934 -3.9968,8.5 -3.9968,8.5 -6.5312,8 c -3.5922,4.4 -10.1336,11.4854 -14.5365,15.7453 l -8.0053,7.7454 -4.3685,1.9558 -4.3685,1.9558 -0.8548,-0.8548 -0.8547,-0.8547 0.8536,-1.4763 c 0.4695,-0.8119 5.245,-6.3678 10.6122,-12.3464 l 9.7586,-10.8701 5.0422,-7.4633 c 2.7731,-4.1049 6.4198,-10.3502 8.1037,-13.8785 l 3.0617,-6.4151 0.4913,-3.663 0.4913,-3.6631 -1.5398,-1.2779 -1.5398,-1.2779 -1.8139,0.9745 c -0.9976,0.5359 -4.7389,4.0972 -8.3139,7.9139 -3.575,3.8167 -7.4061,8.4719 -8.5135,10.3449 l -2.0134,3.4055 -4.9866,3.1982 c -2.7426,1.759 -5.5444,3.784 -6.2262,4.5 -0.6818,0.716 -3.0284,3.3599 -5.2147,5.8753 l -3.9749,4.5735 -3.7854,1.9265 c -2.0819,1.0596 -4.7763,2.939 -5.9876,4.1765 l -2.2022,2.25 -1.5478,0 -1.5477,0 0,0.953 0,0.953 -3.75,1.0414 c -2.0625,0.5728 -5.025,1.044 -6.5833,1.047 l -2.8334,0.01 0.4135,-1.25 0.4134,-1.25 9.218,-6.1208 c 5.0698,-3.3665 10.3773,-7.1915 11.7944,-8.5 1.4171,-1.3086 6.2526,-6.6542 10.7456,-11.8792 4.493,-5.225 9.22,-11.001 10.5045,-12.8356 1.2845,-1.8346 3.8687,-7.2346 5.7427,-12 l 3.4073,-8.6644 0.5866,-5.5634 0.5866,-5.5634 -5.3729,-2.077 c -2.9552,-1.1423 -8.4208,-3.331 -12.1458,-4.8638 l -6.7729,-2.7867 -0.9525,0.9525 -0.9525,0.9525 1.1309,3.6848 1.1309,3.6847 -1.2882,1.5523 -1.2883,1.5522 -1.303,-1.0815 -1.303,-1.0814 -0.6201,-2.8231 c -0.341,-1.5526 -1.9204,-4.8734 -3.5096,-7.3794 l -2.8896,-4.5564 -5.3047,-3.0421 -5.3046,-3.042 -2.75,-0.01 -2.75,-0.01 0,0.8042 c 0,0.4423 1.4182,3.0298 3.1515,5.75 1.7334,2.7202 3.9834,7.2971 5,10.1708 1.0167,2.8738 1.8485,5.9113 1.8485,6.75 l 0,1.525 -0.9569,0 c -0.5263,0 -3.383,-3.0375 -6.3482,-6.75 -2.9652,-3.7125 -7.1962,-9.45 -9.4023,-12.75 -2.2061,-3.3 -4.9808,-7.9071 -6.166,-10.238 l -2.155,-4.2379 -4.9571,-3.9184 -4.9571,-3.9184 -4.4853,-1.7129 -4.4854,-1.713 -2.5307,0.6352 -2.5307,0.6352 -1.7412,2.6573 -1.7412,2.6574 0.098,3.7305 0.098,3.7305 6.2756,13.3462 c 3.4516,7.3405 7.5333,16.7724 9.0704,20.9599 l 2.7948,7.6135 0.3103,3.7811 0.3103,3.7811 -1.2242,0.4301 -1.2243,0.4301 -5.6197,-8.7112 c -3.0908,-4.7912 -7.2234,-11.6874 -9.1835,-15.3248 -1.96,-3.6374 -4.5682,-7.7385 -5.796,-9.1135 -1.2277,-1.375 -3.2332,-4.525 -4.4565,-7 -1.2233,-2.475 -3.3207,-5.9625 -4.6609,-7.75 l -2.4367,-3.25 -1.9034,0 -1.9034,0 -0.2957,6.75 -0.2957,6.75 -2.1598,0.3077 -2.1598,0.3078 -7.4314,-15.3078 -7.4315,-15.3077 -4.7522,-5.5 c -2.6138,-3.025 -8.1443,-10.675 -12.2902,-17 -4.1458,-6.325 -8.6885,-13.2215 -10.0949,-15.3256 -1.4063,-2.1041 -3.6579,-4.6916 -5.0035,-5.75 -1.3455,-1.0584 -2.8564,-1.9244 -3.3576,-1.9244 l -0.9111,0 -2.4442,5.25 -2.4443,5.25 -0.01,2 -0.01,2 2.1381,3.5 c 1.1759,1.925 4.1252,7.4597 6.5541,12.2994 2.4288,4.8397 5.965,12.8103 7.8581,17.7123 l 3.4422,8.9129 0,2.488 0,2.488 1.4563,0.815 1.4563,0.815 3.02,6.6605 3.02,6.6605 0.6677,4.1753 0.6676,4.1752 -1.8606,-0.3583 -1.8606,-0.3583 -2.6998,-4.0199 c -1.4848,-2.2109 -7.7445,-13.2326 -13.9103,-24.4927 -6.1658,-11.2601 -12.2785,-21.9054 -13.5836,-23.6562 -1.3052,-1.7508 -2.373,-3.6483 -2.373,-4.2166 0,-0.5683 -4.5341,-6.1109 -10.0757,-12.3167 -5.5417,-6.2059 -11.6625,-12.9709 -13.6019,-15.0334 l -3.5261,-3.75 -1.3485,0 -1.3484,0 -1.0496,1.75 -1.0495,1.75 -2.0791,-2.4583 c -1.1435,-1.3521 -5.4853,-7.9898 -9.6483,-14.7505 -4.163,-6.7607 -8.157,-12.78 -8.8755,-13.3763 l -1.3064,-1.0842 0.8668,2.8346 c 0.4767,1.5591 1.8062,5.4926 2.9545,8.7413 1.1482,3.2486 2.0877,6.9345 2.0877,8.1909 l 0,2.2845 -1.1655,0.7203 -1.1655,0.7203 -2.2234,-2.7883 c -1.2228,-1.5336 -6.1756,-9.5937 -11.0063,-17.9113 -4.8306,-8.3177 -9.884,-16.5855 -11.2298,-18.373 -1.3458,-1.7875 -2.896,-3.25 -3.4448,-3.25 l -0.998,0 0.6686,2.25 c 0.3678,1.2375 1.9953,7.3605 3.6167,13.6067 l 2.948,11.3567 0,3.9766 0,3.9767 -1.2302,-0.4101 -1.2302,-0.4101 -2.3792,-6.4232 c -1.3086,-3.5328 -4.4225,-11.5983 -6.9198,-17.9233 -2.4973,-6.325 -6.4775,-15.6844 -8.845,-20.7986 l -4.3045,-9.2985 -3.2073,-4.0497 c -1.7641,-2.2273 -5.9171,-6.3046 -9.229,-9.0608 l -6.0216,-5.0112 -1.3159,1.7996 c -0.7238,0.9897 -2.2205,4.2174 -3.3262,7.1725 l -2.0103,5.373 1.4392,5.1868 c 0.7915,2.8528 1.9474,9.8072 2.5686,15.4541 l 1.1294,10.2673 1.5262,5.2327 c 0.8393,2.8781 4.7127,12.8828 8.6074,22.2328 l 7.0812,17 0.084,4.5 0.084,4.5 -1.5,0 -1.5,0 -3,-4.6193 c -1.65,-2.5406 -3.9,-6.1177 -5,-7.9492 -1.1,-1.8314 -2.5871,-4.3652 -3.3046,-5.6307 -0.7175,-1.2654 -1.73,-2.3008 -2.25,-2.3008 l -0.9454,0 0,-1.4446 c 0,-0.7945 -1.5709,-4.8918 -3.491,-9.1051 -1.92,-4.2132 -4.845,-11.6041 -6.5,-16.4241 -1.6549,-4.8199 -3.009,-9.5073 -3.009,-10.4163 l 0,-1.6528 -2.4447,-3.7285 c -1.3445,-2.0507 -3.1973,-5.9786 -4.1171,-8.7286 -0.9199,-2.75 -3.9293,-9.95 -6.6874,-16 -2.7582,-6.05 -6.0332,-14.1342 -7.2778,-17.965 l -2.2628,-6.9649 -0.9639,-0.3213 -0.9639,-0.3213 -0.6882,7.5948 c -0.3785,4.1771 -1.1059,8.6934 -1.6165,10.0362 l -0.9282,2.4415 -1.4112,0 -1.4113,0 -0.5933,-3.25 c -0.3263,-1.7875 -0.8959,-14.725 -1.2658,-28.75 l -0.6725,-25.5 -5.7823,-12.25 -5.7823,-12.25 -0.9945,0 -0.9945,0 -1.0408,5.25 c -0.5725,2.8875 -1.5283,9.975 -2.1241,15.75 -0.5958,5.775 -2.1712,17.7415 -3.5009,26.5922 -1.3297,8.8507 -2.7054,16.8421 -3.0571,17.7586 l -0.6395,1.6665 -2.3329,0.5855 -2.3328,0.5855 -1.0569,-0.6532 -1.0568,-0.6531 0.016,-6.691 0.016,-6.691 2.4683,-22.5 c 1.3576,-12.375 2.4755,-25.2859 2.4842,-28.691 l 0.016,-6.191 -1.191,-0.736 -1.191,-0.7361 -0.3736,1.1208 c -0.2055,0.6165 -1.7555,2.8336 -3.4445,4.9271 -1.6891,2.0934 -4.1648,6.1617 -5.5017,9.0407 l -2.4307,5.2346 -0.8365,7.7654 -0.8365,7.7655 -7.6293,23 -7.6294,23 -0.9419,7.239 -0.942,7.239 -1.9254,3.7741 c -1.059,2.0758 -3.157,5.0057 -4.6623,6.511 -1.5053,1.5053 -3.1256,2.7369 -3.6006,2.7369 l -0.8636,0 5e-4,-2.25 c 3e-4,-1.2375 0.9085,-4.6389 2.0182,-7.5587 l 2.0178,-5.3087 1.0254,-7.6913 c 0.5639,-4.2302 1.6753,-11.2913 2.4697,-15.6913 0.7944,-4.4 2.8332,-16.325 4.5307,-26.5 1.6975,-10.175 4.3642,-27.9016 5.926,-39.3924 l 2.8396,-20.8925 -0.521,-1.6075 c -0.2866,-0.8842 -1.1836,-3.1009 -1.9933,-4.926 l -1.4724,-3.3184 0.3294,-6.8394 0.3294,-6.8394 -0.6853,0.4268 c -0.3769,0.2347 -1.6568,3.0058 -2.8442,6.1578 l -2.159,5.731 -2.9461,13.5 c -1.6203,7.425 -3.4348,15.075 -4.0322,17 -0.5973,1.925 -1.7739,4.2875 -2.6146,5.25 l -1.5286,1.75 -1.845,0 -1.845,0 0,-4.4036 0,-4.4037 2.5083,-14.8463 c 1.3796,-8.1655 4.5174,-23.6214 6.9728,-34.3464 2.4554,-10.725 5.1806,-21.975 6.056,-25 l 1.5916,-5.50009 -0.6338,-8.5 c -0.3486,-4.675 -1.2724,-12.16958 -2.0529,-16.65461 -0.7804,-4.48504 -1.9168,-9.43504 -2.5252,-11 l -1.1062,-2.84539 -7.2278,22.04803 -7.2278,22.04816 -2.3808,4.2361 -2.3809,4.2361 -1.5466,-0.3192 -1.5467,-0.3192 0.1487,-4.5604 0.1486,-4.5605 4.6051,-14.76569 4.605,-14.76565 1.8985,-9.63888 c 1.0441,-5.30138 2.1283,-12.49067 2.4094,-15.97621 l 0.5109,-6.33734 -3.1631,-1.31749 c -1.7397,-0.72462 -5.4131,-1.59781 -8.1631,-1.94042 -2.75,-0.34261 -7.2734,-1.11094 -10.0521,-1.70741 l -5.0521,-1.08447 -7.39464,3.72387 c -4.0671,2.04813 -9.0972,4.79863 -11.1781,6.11223 l -3.7766,2.37082 -1.8484,0 -1.8484,0 -4.7351,3.13638 -4.7351,3.13638 0.8137,0.72714 c 0.4475,0.39993 2.3854,1.25324 4.3064,1.89625 l 3.4928,1.16911 9.1751,0.95141 9.1751,0.95141 2.5821,1.17647 2.58214,1.17648 0,1.78047 c 0,0.97926 -0.3502,1.99688 -0.77824,2.26139 -0.4279,0.26451 -11.1154,-0.0927 -23.75,-0.79367 l -22.9718,-1.2746 -2.211,1.44215 -2.211,1.44215 -0.5944,1.87277 -0.5944,1.87276 0.9434,1.78778 c 0.5189,0.98327 1.4407,4.26277 2.0484,7.28777 0.6077,3.025 1.7951,12.025 2.6386,20 0.8436,7.97504 2.184,17.87504 2.9787,22.00004 0.7948,4.125 1.9484,11.55 2.5635,16.5 l 1.1185,9 2.3129,5 2.3129,5 3.0669,14.3608 3.0668,14.3608 2.4186,4.1392 2.4185,4.1392 2.1638,7 2.1639,7 1.3669,10.354 1.367,10.354 5.8307,8.3814 c 3.2069,4.6098 7.9851,11.8755 10.6181,16.146 2.63304,4.2705 7.26634,12.3506 10.29614,17.9558 3.0299,5.6051 6.6463,13.0301 8.0364,16.5 1.3902,3.4698 3.6194,8.5347 4.9539,11.2551 1.3345,2.7205 2.4263,5.5291 2.4263,6.2413 0,0.7123 2.4043,6.5864 5.343,13.0537 2.9386,6.4673 5.8287,12.9407 6.4224,14.3854 l 1.0793,2.6266 8.0777,6.8657 c 4.4427,3.7761 8.0776,7.2208 8.0776,7.6547 0,0.434 -0.7414,1.0736 -1.6475,1.4213 l -1.6474,0.6322 -2.9091,-1.0981 -2.9091,-1.098 -0.3599,1.1844 c -0.198,0.6515 -0.6311,2.422 -0.9625,3.9345 l -0.6026,2.75 -0.8648,0 -0.8648,0 -3.1972,-6.4293 -3.1971,-6.4293 -4.5831,-3.5707 -4.5831,-3.5707 -1.7115,0 c -0.9413,0 -4.1324,-1.0707 -7.0913,-2.3792 -2.959,-1.3086 -9.1263,-3.5628 -13.7051,-5.0092 l -8.32524,-2.6299 -0.9194,0.5681 c -0.5056,0.3125 -0.9193,1.1633 -0.9193,1.8906 l 0,1.3223 3.0236,2.9561 3.0236,2.9562 9.38114,5.1819 c 5.1596,2.8501 11.9576,7.1827 15.1067,9.628 l 5.7256,4.446 3.6197,1.1892 c 1.9908,0.6541 7.8947,3.1698 13.1197,5.5906 5.225,2.4207 12.3774,6.0094 15.8942,7.9748 l 6.3941,3.5736 -1.533,0.858 -1.5331,0.8579 -7.7767,-1.9889 -7.7768,-1.989 -11.4293,-5.0703 c -6.2861,-2.7886 -11.6527,-4.8468 -11.9257,-4.5739 -0.273,0.273 -0.2142,1.3853 0.1307,2.4719 l 0.627,1.9754 11.4293,11.0721 11.4293,11.072 2.785,0.5305 c 1.5318,0.2918 5.6625,1.209 9.1795,2.0382 l 6.3945,1.5077 13.1055,6.3148 c 7.208,3.4731 20.7555,10.7027 30.1055,16.0657 9.35,5.363 17.9986,10.6821 19.2192,11.8202 l 2.2192,2.0693 -0.5948,0.9624 -0.5948,0.9623 -4.1244,-0.6532 -4.1244,-0.6532 -13.7538,-6.0635 c -7.5645,-3.335 -14.8556,-6.9303 -16.2025,-7.9898 -1.3468,-1.0594 -4.6053,-2.8801 -7.2411,-4.046 -2.6357,-1.166 -7.0237,-2.7085 -9.7509,-3.428 -2.7273,-0.7194 -5.1221,-1.1446 -5.3219,-0.9449 -0.1997,0.1998 1.1516,1.8779 3.0029,3.7293 l 3.3661,3.366 20.9506,12.1107 c 11.5228,6.6609 23.738,13.5655 27.1448,15.3435 3.4068,1.7781 6.9564,4.0751 7.888,5.1045 l 1.6938,1.8717 -1.2604,1.5187 -1.2605,1.5188 -2.2958,0 c -1.2626,0 -3.0075,0.2731 -3.8775,0.607 -0.87,0.3338 -1.5818,1.0109 -1.5818,1.5046 0,0.4937 5.4905,4.9927 12.2012,9.9978 6.7106,5.0051 16.8971,12.0905 22.6365,15.7454 5.7395,3.6549 12.2865,8.3284 14.5489,10.3857 l 4.1134,3.7405 -1.4093,0.917 -1.4093,0.917 -1.5907,-0.5595 c -0.8749,-0.3077 -2.2657,-1.115 -3.0907,-1.7939 -0.825,-0.6789 -4.425,-2.4359 -8,-3.9045 -3.575,-1.4686 -7.0625,-2.9178 -7.75,-3.2206 l -1.25,-0.5505 0,1.132 c 0,0.6225 1.5783,4.1582 3.5073,7.857 1.9291,3.6987 4.4041,8.293 5.5,10.2094 l 1.9927,3.4844 0,2.2988 0,2.2989 2.3904,4.7167 c 1.3147,2.5943 6.1156,10.3418 10.6687,17.2168 4.553,6.875 10.4105,16.5862 13.0167,21.5805 l 4.7385,9.0804 2.1232,7.1293 2.1232,7.1293 0.9697,0.5993 0.9696,0.5992 0,2.5068 c 0,1.3787 -0.4726,3.3897 -1.0502,4.4689 l -1.0501,1.9623 -0.9779,-0.6043 c -0.5378,-0.3324 -2.9169,-4.7325 -5.2867,-9.778 l -4.3088,-9.1737 -8.0568,-12 c -4.4312,-6.6 -9.7012,-13.6875 -11.7112,-15.75 -2.01,-2.0625 -4.0671,-3.75 -4.5713,-3.75 -0.5041,0 -1.4505,0.9976 -2.103,2.2168 l -1.1864,2.2168 0.6465,19.3042 0.6465,19.3043 -0.8777,1.729 c -0.4827,0.9509 -1.2706,3.0551 -1.7508,4.6761 l -0.8731,2.9471 -3.0812,1.7995 z m -131.6578,-264.2437 2.25,0.05 0,-1.3815 c 0,-0.7598 -3.0878,-7.6223 -6.8618,-15.25 -3.7739,-7.6277 -10.0739,-19.2352 -14,-25.7945 l -7.13824,-11.9261 0,-1.7895 0,-1.7895 -3,-3.069 c -1.65,-1.6879 -3,-3.4411 -3,-3.896 0,-0.4549 -4.5135,-6.6269 -10.03,-13.7155 l -10.03,-12.8885 -0.5694,-2.2142 -0.5694,-2.2141 -1.9496,-0.6188 -1.9495,-0.6188 -2.4511,1.606 -2.451,1.606 0,6.2669 0,6.2668 1.5241,5.9601 c 0.8382,3.2781 3.0301,10.0101 4.8709,14.9601 1.8407,4.95 3.845,10.8 4.4538,13 l 1.1071,4 6.9177,12 c 3.8048,6.6 8.2022,13.7515 9.7721,15.8923 l 2.8543,3.8922 4.6595,2.4165 c 2.56274,1.3291 8.86274,3.9426 14.00004,5.8078 5.1373,1.8653 10.353,3.4138 11.5905,3.4413 z m 309.9577,-4.9501 2.2923,0 0,-1.4347 c 0,-0.7891 -3.3614,-7.8901 -7.4697,-15.7799 -4.1083,-7.8899 -9.4522,-19.0773 -11.8754,-24.861 l -4.4057,-10.5158 -4.5802,-15.9543 c -2.519,-8.7749 -4.8811,-17.8574 -5.249,-20.1834 l -0.6689,-4.2291 -1.3756,-1.7709 -1.3755,-1.7709 -1.5,1.9411 -1.5,1.9412 0,9.1778 0,9.1779 1.5396,8.881 c 0.8468,4.8846 2.8686,14.5503 4.4929,21.4795 1.6243,6.9292 4.2545,16.9755 5.845,22.3251 l 2.8917,9.7264 2.2604,1.675 c 1.2433,0.9213 5.8887,3.5875 10.3232,5.925 l 8.0627,4.25 2.2922,0 z m -37.6703,-16 1.8922,0 0.9708,-1.8138 0.9707,-1.8138 -0.988,-4.4362 c -0.5435,-2.4399 -2.2837,-8.9362 -3.8673,-14.4362 -1.5836,-5.5 -3.6089,-13.5844 -4.5007,-17.9652 -0.8918,-4.3809 -2.2923,-14.7309 -3.1122,-23 -0.8198,-8.2692 -1.9655,-16.8348 -2.5459,-19.0348 -0.5805,-2.2 -2.8181,-7.375 -4.9726,-11.5 -2.1546,-4.125 -5.9861,-12.45 -8.5145,-18.5 -2.5285,-6.05 -6.5314,-16.85 -8.8953,-24 -2.364,-7.15 -5.0309,-16.5559 -5.9265,-20.9019 l -1.6283,-7.902 -2.0828,-2.9251 -2.0829,-2.9251 -1.0791,1.0791 -1.0791,1.0791 1.2052,9.5425 c 0.6629,5.2484 2.5724,17.06 4.2434,26.248 l 3.0381,16.7054 0.1975,8.2112 0.1974,8.2113 -1.1276,1.1276 -1.1277,1.1277 -2.076,-6.3389 c -1.1418,-3.4864 -6.1204,-22.9889 -11.0637,-43.3389 l -8.9877,-37 -1.1657,-8.2723 -1.1657,-8.2723 0.584,-9.22771 c 0.3212,-5.07523 0.8844,-11.86698 1.2517,-15.09278 l 0.6676,-5.86509 -1.2266,-5.48127 c -0.6747,-3.0147 -3.3934,-11.56162 -6.0416,-18.99315 -2.6483,-7.43154 -5.2988,-13.99568 -5.8901,-14.58698 l -1.0751,-1.07509 -0.7666,0.76897 -0.7667,0.76897 0,21.66437 0,21.66436 -1.4758,0 -1.4758,0 -1.8978,-7.5 -1.8979,-7.5 -0.1263,-15 -0.1264,-15 1.8625,-7.5933 1.8624,-7.59331 -6.0053,-13.90669 c -3.3029,-7.64869 -6.3291,-15.0317 -6.7248,-16.4067 -0.3957,-1.375 -1.707,-3.625 -2.9139,-5 -1.2069,-1.375 -3.4951,-4.3 -5.0848,-6.5 -1.5897,-2.2 -3.3642,-4.33061 -3.9432,-4.73469 -0.5791,-0.40408 -1.9979,-0.74158 -3.1529,-0.75 l -2.0999,-0.0153 -4.227,-3.062 -4.227,-3.062 -1.3864,-3.31832 -1.3865,-3.31833 -3.1701,-2.66747 c -1.7436,-1.46711 -4.9086,-3.55438 -7.0334,-4.63837 l -3.8633,-1.97089 -4.2532,-0.57474 -4.2532,-0.57474 -18.5,4.21764 -18.5,4.21765 -6.1887,0.0633 -6.1886,0.0633 -0.5868,2.33794 -0.5868,2.33793 -1.9745,1.97457 -1.9746,1.97452 -4.0769,0 -4.0769,0 -2.9231,2.92308 c -1.6077,1.60769 -2.9231,3.38415 -2.9231,3.94769 0,0.56354 3.7125,5.0113 8.25,9.88392 4.5375,4.87262 10.7821,11.98366 13.877,15.80231 3.0948,3.81865 11.3525,14.818 18.3505,24.443 6.9979,9.625 14.6373,19.525 16.9764,22 2.3392,2.475 4.994,5.61263 5.8996,6.97251 0.9056,1.35987 1.6465,2.99923 1.6465,3.64301 l 0,1.1705 -1.5633,0.59991 -1.5634,0.59992 -3.1866,-1.63856 c -1.7527,-0.90121 -5.8867,-3.6916 -9.1867,-6.20087 l -6,-4.56232 -15.4407,-15.46992 -15.4407,-15.46993 -0.4029,1.20855 -0.4028,1.20854 1.6994,7.63834 c 0.9346,4.20109 3.2403,12.50474 5.1237,18.45256 l 3.4243,10.81422 6.2199,4.19031 c 3.4209,2.30467 10.0448,7.29762 14.7198,11.09545 4.675,3.79782 11.8211,10.13223 15.8802,14.07646 4.0591,3.94422 11.7534,12.35973 17.0984,18.70112 5.3451,6.3414 10.8887,13.3838 12.3191,15.6497 1.4305,2.266 3.1546,4.3046 3.8315,4.5302 l 1.2306,0.4102 -0.6485,1.6901 -0.6485,1.69 -2.1057,0 -2.1056,0 -5.6757,-5.332 c -3.1217,-2.9326 -6.6244,-5.9701 -7.7838,-6.75 -1.1595,-0.7799 -8.9107,-7.6617 -17.225,-15.29289 -8.3144,-7.6312 -16.5657,-14.9437 -18.3363,-16.25 C 1119.5335,981.0688 1117.6712,980 1117.1656,980 l -0.9192,0 0.5233,2.75 c 0.2878,1.5125 2.0938,6.76511 4.0133,11.67247 l 3.49,8.92243 4.3502,6.0132 4.3502,6.0132 10.5908,10.5643 c 5.825,5.8104 11.0957,11.0144 11.7128,11.5644 0.6171,0.55 5.5263,5.9828 10.9092,12.073 5.383,6.0901 14.37,16.0568 19.9713,22.1482 l 10.184,11.0753 1.1489,4.3517 1.1489,4.3518 3.5318,3.6597 3.5319,3.6598 -0.6738,1.0902 -0.6738,1.0903 -3.191,-0.022 -3.191,-0.022 -4.3544,-1.9759 -4.3544,-1.9759 -1.9682,-2.5021 c -1.0825,-1.3762 -2.4631,-2.5022 -3.068,-2.5022 -0.6049,0 -3.6098,-2.1423 -6.6774,-4.7608 -3.0677,-2.6184 -7.7131,-6.4718 -10.3231,-8.5632 l -4.7454,-3.8025 -3.0709,-4.4633 -3.0709,-4.4634 -9.119,-7.5476 c -5.0155,-4.1513 -10.7232,-8.3566 -12.6837,-9.3451 -1.9605,-0.9886 -4.5771,-2.1105 -5.8146,-2.4932 l -2.25,-0.6957 0,2.6171 0,2.617 1.496,2.893 1.496,2.8929 8.254,6.4213 c 4.5397,3.5317 9.829,7.2225 11.754,8.2019 1.925,0.9794 6.157,3.5796 9.4045,5.7783 3.2474,2.1987 7.6349,5.561 9.75,7.4718 l 3.8455,3.4742 0,1.8837 0,1.8836 -1.3714,0 c -0.7543,0 -6.2668,-2.971 -12.25,-6.6021 -5.9832,-3.6312 -12.6097,-7.4876 -14.7256,-8.5698 l -3.8469,-1.9677 -1.3668,0.5245 -1.3668,0.5245 0.9956,2.8561 c 0.5476,1.5709 2.3743,4.5287 4.0594,6.573 l 3.0637,3.7168 5.6544,3.8316 c 3.1099,2.1074 7.549,4.7949 9.8646,5.9723 l 4.2101,2.1408 2.0797,0 2.0797,0 3.9601,2.0203 3.9602,2.0203 0,1.4797 0,1.4797 -6.441,0 -6.441,0 -0.7186,1.1628 -0.7186,1.1628 3.1754,2.8372 3.1754,2.8372 1.6804,0 1.6805,0 3.5537,2.3451 c 1.9546,1.2898 6.8446,4.2517 10.8666,6.582 l 7.3129,4.2369 0.6041,1.5742 0.6041,1.5743 -3.3098,2.9572 -3.3097,2.9573 -4.8972,-0.4705 -4.8972,-0.4706 2.2463,2.3911 2.2463,2.391 6.7811,3.3925 6.7811,3.3925 5.7626,1.1431 c 3.1694,0.6287 10.9376,2.757 17.2626,4.7297 6.325,1.9726 14.9354,5.0519 19.1342,6.8429 4.1989,1.791 10.2739,3.9337 13.5,4.7616 3.2262,0.8279 8.4533,2.4746 11.6158,3.6593 l 5.75,2.1541 0,1.4091 0,1.4091 -2.586,0.6491 -2.5861,0.649 -6.4139,-0.5148 c -3.5277,-0.2832 -6.414,-0.3013 -6.414,-0.04 0,0.261 1.0125,1.3449 2.25,2.4088 1.2375,1.0639 4.0934,3.2476 6.3465,4.8527 2.253,1.6051 5.2726,3.2136 6.7101,3.5744 l 2.6137,0.656 2.2899,2.3772 c 1.2594,1.3075 3.0773,3.2882 4.0398,4.4016 l 1.75,2.0244 4.4286,0 4.4285,0 1.5715,1.5714 c 0.8643,0.8643 1.5714,1.9286 1.5714,2.3652 0,0.4365 0.9327,1.9794 2.0726,3.4285 l 2.0726,2.6349 1.8922,0 z m 85.2126,-99.05 1.75,0.05 -0.01,-2.75 c 0,-1.5125 -1.5679,-9.7041 -3.4763,-18.2036 l -3.4699,-15.4537 -2.2737,-2.1767 -2.2736,-2.1767 -2.6777,-0.6206 -2.6776,-0.6205 -1.5724,1.5723 -1.5723,1.5724 0,4.7285 0,4.7286 -1.2,1.2 -1.2,1.2 -2.8657,0 -2.8658,0 -1.9342,1.0352 -1.9343,1.0352 0,2.9428 0,2.9428 6.75,5.6067 6.75,5.6066 7.5,3.8654 c 4.125,2.1259 8.2875,3.8878 9.25,3.9153 z m 61.5,-28.9756 1.25,0.026 0,-1.5332 c 0,-0.8433 -1.1782,-3.8808 -2.6183,-6.75 -1.4401,-2.8693 -4.521,-8.1418 -6.8464,-11.7168 -2.3254,-3.575 -6.843,-10.775 -10.039,-16 -3.196,-5.225 -9.0317,-13.775 -12.9682,-19 -3.9366,-5.225 -10.88,-15.0125 -15.4298,-21.75 l -8.2724,-12.25 -0.913,0 -0.9129,0 0,4.75 0,4.75 2.4495,10 c 1.3472,5.5 3.8347,14.05 5.5279,19 1.6931,4.95 3.9424,12.4572 4.9983,16.6827 l 1.9198,7.6828 2.5233,4.9795 2.5233,4.9795 2.984,2.1247 c 1.6411,1.1686 6.4911,3.723 10.7776,5.6765 4.2865,1.9534 10.9437,4.6253 14.7937,5.9374 3.85,1.3122 7.5625,2.3973 8.25,2.4113 z M 1392.6256,1055 c 0.4663,0 0.8478,-0.4138 0.8478,-0.9195 0,-0.5058 -2.7082,-8.1405 -6.0182,-16.9661 -3.31,-8.8256 -6.2893,-17.4017 -6.6205,-19.0581 l -0.6023,-3.0114 -1.3383,-1.1107 -1.3383,-1.1107 -0.6103,2.4317 -0.6103,2.4317 1.1347,8.4065 c 0.6241,4.6236 1.6347,10.4316 2.2457,12.9066 l 1.1111,4.5 5.4756,5.75 c 3.0115,3.1625 5.857,5.75 6.3233,5.75 z m -36.3348,-18.0341 2.3174,0.034 -0.6616,-2.0846 c -0.3639,-1.1465 -2.8669,-12.734 -5.5621,-25.75 -2.6952,-13.01596 -5.8506,-26.86787 -7.0118,-30.78201 l -2.1114,-7.11661 -2.4571,-2.88339 -2.4571,-2.88339 0.799,13 c 0.4394,7.15 0.7845,15.8108 0.7669,19.24622 l -0.032,6.24618 -1.1038,1.1038 -1.1038,1.1038 -1.5202,-5.35 c -0.8362,-2.94251 -2.501,-10.26942 -3.6996,-16.28204 -1.1986,-6.01263 -2.5048,-11.81198 -2.9027,-12.88745 l -0.7233,-1.95539 -5.9271,-2.2625 c -3.2599,-1.24437 -10.8771,-4.34967 -16.9271,-6.90066 l -11,-4.63818 -6.2334,-0.78114 -6.2335,-0.78113 -1.1623,0.71832 -1.1622,0.71832 0.6467,1.35093 c 0.3557,0.743 3.0352,4.72592 5.9546,8.85092 l 5.3079,7.5 8.9411,7.22611 8.9411,7.22611 5.7447,3.0797 5.7447,3.0797 1.0863,2.02983 1.0863,2.02984 -0.5722,0.57224 -0.5722,0.57223 -6.5088,-0.21071 -6.5088,-0.21071 0,0.90279 c 0,0.49657 1.4282,2.88277 3.1738,5.30287 1.7455,2.42 5.2291,6.7888 7.7411,9.7084 l 4.5674,5.3084 7.6732,4.9221 c 4.2203,2.7072 10.7492,6.4906 14.5089,8.4076 l 6.8356,3.4854 2.3174,0.034 z M 1546.4842,1034 c 0.556,0 10.3851,-4.5 21.8424,-10 11.4573,-5.5 21.3524,-10 21.9891,-10 l 1.1577,0 0,-1.0162 0,-1.0162 3.5,-1.669 c 1.925,-0.918 3.5,-2.0198 3.5,-2.4486 0,-0.4288 -0.8704,-1.2455 -1.9343,-1.8148 -1.0638,-0.5694 -3.1547,-1.0352 -4.6465,-1.0352 l -2.7122,0 -5.1528,3.4203 -5.1529,3.4202 -5.8997,1.9918 -5.8997,1.9917 -1.2271,1.6781 c -0.6749,0.923 -2.7228,2.5102 -4.551,3.527 -1.8281,1.0169 -5.168,2.7311 -7.4221,3.8093 l -4.0983,1.9605 -2.1517,2.7354 c -1.1834,1.5045 -2.1517,3.1247 -2.1517,3.6006 0,0.4758 0.4549,0.8651 1.0108,0.8651 z m -221.2469,-73.73964 1.3438,-0.51566 -0.3039,-3.12235 -0.3038,-3.12235 -3.3772,-0.32284 -3.3771,-0.32284 -0.9056,0.90562 -0.9057,0.90563 0.6514,1.6974 0.6513,1.69741 2.5915,1.35782 2.5915,1.35781 1.3438,-0.51565 z m -17.0139,-8.26041 1.25,5e-5 -0.018,-3.25 c -0.01,-1.7875 -0.6879,-7.975 -1.5063,-13.75 -0.8183,-5.775 -2.2009,-12.975 -3.0724,-16 -0.8714,-3.025 -3.4267,-9.47582 -5.6783,-14.33515 l -4.0939,-8.83515 -2.0654,3.83515 -2.0654,3.83515 -0.3226,19.54937 -0.3227,19.54937 8.3227,4.70058 c 4.5774,2.58531 8.8851,4.7006 9.5726,4.70063 z M 1280.2558,936 l 1.2671,0 0.9753,-2.5651 0.9752,-2.5651 -0.011,-17.1849 -0.011,-17.1849 -1.4647,-13.80189 c -0.8056,-7.59104 -1.9551,-15.6228 -2.5544,-17.84836 l -1.0896,-4.04648 -3.327,-3.32707 -3.3271,-3.32708 -2.5735,-5.43988 c -1.4154,-2.99194 -3.0333,-7.49172 -3.5953,-9.99952 l -1.0218,-4.55963 -3.5605,-6.07505 -3.5605,-6.07504 -0.9093,0 -0.9093,0 0.1911,18.75 0.1911,18.75 -1.1163,2.5 -1.1163,2.5 -1.5791,-5.5 c -0.8686,-3.025 -3.2139,-15.175 -5.2117,-27 l -3.6325,-21.5 -1.2679,-3 c -0.6974,-1.65 -2.2571,-3.88173 -3.4661,-4.95939 l -2.1981,-1.9594 -15.1289,-0.75266 c -8.3209,-0.41396 -16.5063,-1.02395 -18.1899,-1.35553 -1.6835,-0.33159 -10.1668,-2.63987 -18.8517,-5.12953 l -15.7907,-4.52666 -4.7093,-0.15841 -4.7093,-0.15842 -0.3107,2.18234 -0.3107,2.18234 1.8943,1.01377 c 1.0418,0.55758 7.1252,1.90858 13.5185,3.00222 l 11.6243,1.98845 4.4107,1.95105 4.4106,1.95105 8.3815,7.72009 8.3815,7.72009 3.75,1.91462 c 2.0625,1.05305 3.7534,2.01798 3.7576,2.1443 0,0.12633 0.4298,3.90102 0.9458,8.38822 l 0.9382,8.15854 5.5515,11.06951 c 3.0534,6.08823 7.3999,14.11688 9.659,17.84146 2.2591,3.72457 5.2647,8.00449 6.6792,9.51092 l 2.5718,2.73898 4.9086,0.65115 4.9086,0.65115 0.5911,1.54032 0.5911,1.54031 -4.081,3.56956 -4.081,3.56956 5.1547,8.68535 c 2.8352,4.77694 6.7298,11.50609 8.6548,14.95366 l 3.5,6.2683 7.0077,7.29635 7.0076,7.29634 1.2671,0 z m -254.5676,-6.04389 2.7148,0.0439 0.9365,-1.75 c 0.5151,-0.9625 1.2186,-3.775 1.5634,-6.25 l 0.6269,-4.5 -0.9441,-1.42301 -0.9442,-1.423 -5.6402,3.41832 c -3.1021,1.88008 -6.5917,4.43116 -7.7547,5.66906 l -2.1144,2.25074 0.5962,0.5962 c 0.3279,0.32791 2.3172,1.20994 4.4206,1.96005 2.1034,0.75012 5.0461,1.38361 6.5392,1.40775 z M 881.19736,884.76355 c 1.527,-0.69495 8.6263,-4.10463 15.7762,-7.57706 7.1499,-3.47243 15.4748,-7.52243 18.4998,-9 l 5.5,-2.68649 14,-16.65382 c 7.7,-9.1596 20.5241,-23.69651 28.498,-32.30425 l 14.498,-15.65042 0.7858,-2.12431 0.7858,-2.12432 -1.1011,-5.304 -1.1011,-5.30401 -0.9957,-0.61539 -0.9957,-0.6154 -1.687,1.44198 -1.687,1.44199 -6.8111,1.6314 -6.8112,1.6314 -2.6888,1.89792 c -1.4789,1.04385 -5.522,3.32179 -8.9847,5.06207 l -6.2958,3.16417 -0.5481,1.42828 -0.548,1.42829 3.003,9.28421 c 1.6517,5.10632 3.2542,10.72926 3.5611,12.49544 l 0.5581,3.21122 -1.0413,0.64355 -1.0413,0.64354 -2.3708,-2.22727 -2.3708,-2.22727 -4.0552,-9.24639 c -2.2303,-5.08552 -4.0551,-9.98039 -4.0551,-10.8775 l 0,-1.63111 -2.3249,0 c -1.2786,0 -5.6267,1.12303 -9.6623,2.49563 -4.0356,1.37259 -7.4837,2.64189 -7.6624,2.82067 -0.1788,0.17878 0.5692,2.8695 1.6622,5.97939 1.0931,3.10989 1.9874,6.34059 1.9874,7.17933 l 0,1.52498 -1.4331,0 -1.433,0 -3.679,-4.48976 -3.679,-4.48975 -0.8951,0.55317 c -0.4923,0.30424 -1.549,1.81773 -2.3482,3.36331 -0.7993,1.54559 -2.1102,5.96129 -2.9133,9.81269 l -1.46,7.00253 -2.7239,5.3739 c -1.4981,2.95565 -5.5152,11.89891 -8.9269,19.87391 -3.4117,7.975 -6.7629,16.20606 -7.447,18.29124 l -1.2438,3.79124 0.5649,1.47231 0.565,1.47231 2.7764,-1.26355 z M 775.03066,876 c 0.7286,0 1.5732,-0.40208 1.8769,-0.89352 l 0.5522,-0.89352 -1.4932,-4.23221 c -0.8213,-2.32771 -1.4932,-5.27407 -1.4932,-6.54746 l 0,-2.31526 -0.9098,-0.56226 -0.9097,-0.56226 -1.6273,0.62443 -1.6272,0.62442 -1.463,2.82916 c -0.8047,1.55604 -1.463,3.07521 -1.463,3.37594 0,0.30073 1.6273,2.34807 3.6163,4.54966 l 3.6164,4.00288 1.3246,0 z m -42.8073,-98.54212 c 1.5125,-0.97468 6.2944,-4.95046 10.6266,-8.83507 l 7.8766,-7.06294 -0.5962,-6.52993 c -0.3278,-3.59147 -1.7381,-17.32994 -3.1338,-30.52994 -1.3958,-13.2 -2.8096,-25.4625 -3.1418,-27.25 l -0.604,-3.25 -0.8213,0 c -0.4517,0 -1.0457,0.7875 -1.3199,1.75 -0.2741,0.9625 -0.97,4.225 -1.5464,7.25 -0.5764,3.025 -1.9572,12.7 -3.0686,21.5 -1.1114,8.8 -3.1413,24.55 -4.5109,35 -1.3696,10.45 -2.4948,19.16425 -2.5003,19.36501 -0.01,0.20076 1.2275,-0.43245 2.74,-1.40713 z M 355.85496,610 l 1.2636,0 7.9992,-8.25 c 4.3996,-4.5375 9.819,-10.725 12.0433,-13.75 2.2242,-3.025 5.9367,-8.7839 8.25,-12.79756 l 4.2061,-7.29756 4.4281,-4.98582 c 2.4354,-2.7422 4.4281,-5.39461 4.4281,-5.89425 0,-0.49963 2.2811,-3.51522 5.0692,-6.7013 2.7881,-3.18608 8.949,-9.28707 13.6909,-13.55776 l 8.6217,-7.76489 5.3466,-2.00043 5.3466,-2.00043 8.0023,0 8.0024,0 3.9323,2.00614 c 2.1628,1.10338 5.5568,3.43237 7.5421,5.17554 l 3.6098,3.16941 4.1,6.07445 c 2.255,3.34095 5.4435,7.76196 7.0854,9.82446 l 2.9854,3.75 1.2498,0 1.2498,0 1.0828,-5.04922 c 0.5956,-2.77707 1.0829,-6.42181 1.0829,-8.09941 l 0,-3.05018 -4.1152,-10.1506 c -2.2633,-5.58282 -5.3859,-13.75059 -6.939,-18.15059 -1.5532,-4.4 -3.7123,-10.475 -4.7981,-13.5 -1.0858,-3.025 -4.0803,-14.95 -6.6545,-26.5 -2.5741,-11.55 -5.5007,-23.475 -6.5036,-26.5 -1.0029,-3.025 -2.5679,-8.425 -3.4777,-12 -0.9099,-3.575 -3.2592,-11.675 -5.2208,-18 -1.9616,-6.325 -5.5665,-16.53783 -8.0109,-22.69518 l -4.4444,-11.19518 -3.1902,-5.30482 c -1.7545,-2.91765 -4.0147,-7.46831 -5.0226,-10.11258 l -1.8326,-4.80777 -10.4167,-11.11317 c -5.7292,-6.11225 -11.3475,-11.76507 -12.4851,-12.56184 l -2.0682,-1.44866 -2.3826,1.08557 -2.3825,1.08557 -1.3839,3.31212 -1.3839,3.31212 -5.3842,4.84086 -5.3842,4.84086 -5.1316,2.26941 c -2.8223,1.24817 -5.4578,2.7974 -5.8566,3.44273 -0.3989,0.64533 -1.85,1.60099 -3.2248,2.12368 l -2.4997,0.95036 -0.4593,1.73796 -0.4593,1.73796 -5.0099,2.78656 c -2.7555,1.53261 -8.3595,4.11714 -12.4533,5.7434 -4.0939,1.62626 -9.2564,4.10128 -11.4722,5.50005 l -4.0287,2.54321 -1.1355,2.49228 -1.1356,2.49229 2.0123,2.7211 2.0123,2.72111 4.2106,2.35206 4.2106,2.35206 3.3393,-0.62647 3.3394,-0.62647 9.8987,-4.84067 c 5.4442,-2.66237 10.8916,-5.15581 12.1051,-5.54098 l 2.2065,-0.70031 -0.6403,1.81539 c -0.3522,0.99846 -1.8118,3.08629 -3.2437,4.63962 l -2.6034,2.82423 -7.7426,4.03333 -7.7425,4.03332 0.5002,0.80934 c 0.2751,0.44514 3.9842,2.81169 8.2425,5.25901 4.2583,2.44732 8.723,4.75494 9.9216,5.12804 l 2.1793,0.67837 11.6307,-2.60856 c 6.3969,-1.4347 14.8423,-3.45173 18.7676,-4.48229 l 7.1369,-1.87373 0.8031,0.49637 c 0.4418,0.27301 0.8032,1.29403 0.8032,2.26894 l 0,1.77257 -4.75,2.99997 c -2.6125,1.64998 -6.8856,3.78724 -9.4957,4.74947 l -4.7457,1.7495 -0.8707,1.55599 -0.8708,1.556 2.3617,10.91986 c 1.299,6.00593 2.8268,11.78894 3.3953,12.85114 l 1.0336,1.93129 2.3713,0.59515 2.3713,0.59516 12.6765,-3.08335 C 421.92216,444.38751 428.50366,443 429.57566,443 l 1.949,0 -1.4816,2.86516 -1.4816,2.86515 -3.7941,1.7801 c -2.0867,0.97905 -5.2282,3.02612 -6.9811,4.54904 l -3.1871,2.76895 -5.8129,1.1462 c -3.1971,0.63041 -6.9379,1.46618 -8.3129,1.85726 l -2.5,0.71107 -0.6624,4.97853 c -0.3643,2.7382 -0.7018,9.54119 -0.75,15.11776 l -0.088,10.13921 1.9203,2.36079 1.9204,2.36078 18.8296,0.0529 c 10.3563,0.0291 19.3922,0.14159 20.0797,0.25 l 1.25,0.1971 0,1.47432 0,1.47432 -3.1652,1.6368 -3.1652,1.63679 -14.0848,2.91307 c -7.7467,1.60219 -16.2223,3.61335 -18.8348,4.46925 -2.6125,0.8559 -4.75,1.83836 -4.75,2.18324 0,0.34488 -0.7004,6.27122 -1.5565,13.16963 -0.8561,6.89842 -1.9809,13.8467 -2.4996,15.44062 l -0.9431,2.89803 1.069,1.28804 1.069,1.28805 -1.2271,2.29284 c -0.6749,1.26107 -2.9561,4.48024 -5.0694,7.15372 -2.1133,2.67348 -3.8423,5.38722 -3.8423,6.03053 l 0,1.16966 -1.874,1.17031 -1.8739,1.17031 -0.6359,2.53338 c -0.3497,1.39337 -2.1855,5.17752 -4.0796,8.40924 -1.894,3.23172 -4.1656,6.47498 -5.0479,7.20724 -0.8824,0.73227 -2.1854,2.71722 -2.8958,4.411 l -1.2915,3.07961 -4.5749,5.35148 c -2.5163,2.94332 -5.2524,6.75011 -6.0803,8.45954 l -1.5053,3.10804 0.4886,0.79047 c 0.2687,0.43476 1.0571,0.79047 1.7521,0.79047 z m -58.6151,-80.79956 0.3983,-1.19503 -1.9889,-6.2527 c -1.094,-3.43899 -2.508,-9.0868 -3.1422,-12.55068 l -1.1532,-6.29797 -5.0614,-15.20203 c -2.7837,-8.36112 -6.3553,-18.0736 -7.937,-21.58329 -1.5816,-3.50969 -3.3703,-8.23469 -3.9749,-10.5 -0.6045,-2.26531 -3.1293,-9.29374 -5.6106,-15.61874 l -4.5115,-11.5 -3.9387,-5.15217 -3.9387,-5.15216 -4.618,-3.59784 -4.6179,-3.59783 -1.3359,0 -1.3359,0 0,2.7701 c 0,1.52355 0.8988,6.01353 1.9973,9.97772 1.0986,3.96419 3.7366,11.15514 5.8623,15.9799 2.1257,4.82475 7.9913,17.92589 13.0346,29.11365 5.0433,11.18775 12.8377,27.61275 17.3208,36.5 4.4832,8.88724 9.5017,18.16011 11.1522,20.60637 l 3.001,4.44773 0.3983,-1.19503 z M 1671.9566,274 c 0.2657,0 1.6157,-2.23504 3,-4.96676 l 2.5168,-4.96675 0,-2.10657 0,-2.10657 -1.7249,0.33218 -1.7249,0.33219 -1.2603,2.49114 -1.2604,2.49114 -0.015,4.25 c -0.01,2.3375 0.2027,4.25 0.4685,4.25 z m -11.8306,-28.53964 c 0.7411,-1.01344 1.3474,-2.65661 1.3474,-3.65149 l 0,-1.80887 -1.4809,0 -1.481,0 -0.6132,2.44316 -0.6132,2.44317 0.7468,1.20833 0.7468,1.20832 1.3473,-1.84262 z M 1631.7934,209 l 1.32,0 4.18,-3.57792 4.18,-3.57793 0,-1.53708 0,-1.53709 -2.75,1.74446 c -1.5125,0.95946 -3.9875,2.8954 -5.5,4.3021 -1.5125,1.40671 -2.75,2.92345 -2.75,3.37055 l 0,0.81291 1.32,0 z"
     id="path2987"
     inkscape:connector-curvature="0" />
</svg>
