<?xml version="1.0" encoding="UTF-8" standalone="no"?>
<!-- Created with Inkscape (http://www.inkscape.org/) -->

<svg
   xmlns:dc="http://purl.org/dc/elements/1.1/"
   xmlns:cc="http://creativecommons.org/ns#"
   xmlns:rdf="http://www.w3.org/1999/02/22-rdf-syntax-ns#"
   xmlns:svg="http://www.w3.org/2000/svg"
   xmlns="http://www.w3.org/2000/svg"
   xmlns:sodipodi="http://sodipodi.sourceforge.net/DTD/sodipodi-0.dtd"
   xmlns:inkscape="http://www.inkscape.org/namespaces/inkscape"
   id="svg2"
   version="1.1"
   inkscape:version="0.48.2 r9819"
   width="898.56244"
   height="773.00745"
   sodipodi:docname="beastsoftarzan00burr_0066e.png">
  <metadata
     id="metadata8">
    <rdf:RDF>
      <cc:Work
         rdf:about="">
        <dc:format>image/svg+xml</dc:format>
        <dc:type
           rdf:resource="http://purl.org/dc/dcmitype/StillImage" />
        <dc:title></dc:title>
      </cc:Work>
    </rdf:RDF>
  </metadata>
  <defs
     id="defs6" />
  <sodipodi:namedview
     pagecolor="#ffffff"
     bordercolor="#666666"
     borderopacity="1"
     objecttolerance="10"
     gridtolerance="10"
     guidetolerance="10"
     inkscape:pageopacity="0"
     inkscape:pageshadow="2"
     inkscape:window-width="1600"
     inkscape:window-height="876"
     id="namedview4"
     showgrid="false"
     fit-margin-top="0"
     fit-margin-left="0"
     fit-margin-right="0"
     fit-margin-bottom="0"
     inkscape:zoom="0.70710678"
     inkscape:cx="415.95191"
     inkscape:cy="432.00742"
     inkscape:window-x="0"
     inkscape:window-y="24"
     inkscape:window-maximized="1"
     inkscape:current-layer="svg2" />
  <path
     style="fill:#000000"
     d="m 384.52334,771.42857 c -0.86429,-0.86428 -1.57832,-2.10178 -1.58674,-2.75 -0.008,-0.64821 -0.43095,-1.83568 -0.93895,-2.63881 -0.78906,-1.24746 -1.23017,-1.18283 -3.02733,0.44358 -2.83715,2.56759 -8.63295,4.4833 -13.61919,4.5016 -4.55497,0.0167 -10.51249,-1.72641 -11.61589,-3.39874 -0.44324,-0.67179 -4.89265,-1.0862 -11.66228,-1.0862 -6.02009,0 -11.25636,-0.30877 -11.63615,-0.68616 -0.3798,-0.37738 -1.69562,-0.30402 -2.92405,0.16303 -1.55827,0.59245 -3.56035,0.25513 -6.62231,-1.11575 -2.45786,-1.10042 -5.38437,-1.71506 -6.65159,-1.397 -1.24453,0.31235 -3.19563,-0.002 -4.33577,-0.6981 -1.71704,-1.04864 -2.27716,-1.00846 -3.26208,0.23398 -1.5127,1.90821 -13.85324,2.58886 -17.74095,0.97852 -2.51869,-1.04327 -2.82209,-1.74447 -3.44693,-7.96632 -0.54798,-5.45656 -0.3349,-7.56043 1.06434,-10.50911 0.96221,-2.02771 2.24109,-3.80615 2.84196,-3.95208 0.60086,-0.14593 4.46748,-1.06019 8.59248,-2.0317 4.125,-0.97151 12.48088,-4.18579 18.56863,-7.14285 C 325.90146,727.81978 328.4485,727 333.22508,727 c 4.62838,0 6.06848,-0.43256 8.05552,-2.4196 3.07917,-3.07917 4.62338,-7.47768 3.59818,-10.24904 -0.683,-1.84634 -1.36221,-2.08266 -4.69935,-1.63505 -3.5778,0.47988 -4.163,0.20532 -7.06424,-3.31439 -1.7398,-2.11068 -3.16328,-4.6139 -3.16328,-5.56271 0,-4.79575 -8.09135,-12.81921 -12.92769,-12.81921 -1.00508,0 -2.42653,-0.72188 -3.15877,-1.60418 -0.73224,-0.88229 -2.34566,-1.98981 -3.58538,-2.46115 -1.23972,-0.47134 -3.35408,-2.59958 -4.69858,-4.72941 C 302.73734,677.69984 294.32171,670 292.2416,670 c -0.7858,0 -4.80971,-1.40751 -8.94202,-3.12779 -6.09368,-2.53681 -9.18971,-4.72312 -16.38562,-11.57096 -4.87977,-4.64374 -9.17453,-9.42373 -9.5439,-10.6222 -0.36937,-1.19848 -1.2779,-2.85405 -2.01896,-3.67905 -6.18689,-6.88771 -7.58646,-9.36046 -9.43029,-16.6613 -1.76896,-7.00438 -1.88154,-9.27558 -1.05778,-21.3387 1.69951,-24.88741 10.3548,-55.14342 17.59321,-61.5 1.2526,-1.1 2.5932,-3.575 2.9791,-5.5 0.38591,-1.925 2.61023,-6.425 4.94294,-10 2.33271,-3.575 7.51494,-11.5625 11.51607,-17.75 4.00113,-6.1875 7.57664,-11.25 7.94557,-11.25 1.7127,0 12.23176,-11.55051 15.02264,-16.49568 1.9934,-3.5321 4.95175,-6.84565 8.18696,-9.16991 4.07602,-2.92833 5.73038,-5.05905 8.46791,-10.90618 3.18937,-6.81222 3.7476,-7.42497 8.92285,-9.79427 6.05327,-2.77129 8.05719,-5.87357 6.97543,-10.79876 -0.69568,-3.16742 -6.4207,-8.35658 -10.2913,-9.32804 -7.19235,-1.80517 -9.76444,-5.69023 -15.75626,-23.79937 l -3.90173,-11.79222 -5.19533,-2.45778 C 298.75146,390.79273 295.33497,390 291.6786,390 c -5.04781,0 -5.69045,-0.28914 -9.92792,-4.46675 -3.33812,-3.29096 -5.61281,-4.63978 -8.64137,-5.12407 -3.3901,-0.5421 -5.16641,-1.79069 -10.13401,-7.12332 -3.31286,-3.5563 -6.02339,-7.04537 -6.02339,-7.75348 0,-2.79604 -3.23272,-3.90947 -11.94925,-4.11564 -9.71978,-0.22989 -12.31845,-1.16104 -14.50215,-5.19638 -0.80966,-1.4962 -3.01912,-3.84536 -4.90991,-5.22036 -4.9261,-3.58231 -9.48364,-13.05441 -9.9259,-20.62934 -0.38411,-6.57895 -3.4568,-12.38884 -6.53088,-12.3487 -3.63513,0.0475 -9.85038,3.76291 -11.04283,6.60133 -0.72162,1.71769 -3.26091,4.0854 -6.30259,5.87671 -9.09437,5.35588 -10.2638,6.9669 -14.88075,20.5 -4.69837,13.77176 -7.97286,19.23049 -13.79683,23 -2.1244,1.375 -5.61673,3.76759 -7.76073,5.31688 -2.144,1.54928 -6.68163,4.69928 -10.08362,7 -22.63567,15.30818 -23.64313,16.43399 -23.84918,26.65089 -0.0773,3.83325 -0.97952,7.34907 -2.93778,11.44823 -2.66436,5.5772 -2.87461,7.00893 -3.67139,25 -1.10331,24.91289 -3.13906,41.36278 -6.26297,50.60808 -4.95062,14.65152 -8.10256,23.4906 -8.727886,24.47592 -0.34905,0.55 -0.94414,3.025 -1.32241,5.5 -1.56046,10.20987 -5.25485,17.39774 -13.44535,26.15948 -8.7827,9.39524 -10.00916,11.42078 -12.98689,21.44833 -3.86731,13.02324 -2.4023,22.04279 6.40256,39.41836 1.36771,2.69904 2.48674,6.07689 2.48674,7.50633 0,3.75274 1.60996,6.2182 5.27964,8.08516 1.7712,0.9011 4.45305,3.11018 5.95968,4.90907 1.50663,1.79889 4.70099,4.42032 7.09859,5.82541 2.521356,1.47761 6.343836,5.25783 9.066376,8.96614 4.93064,6.71591 7.77691,8.68172 12.57018,8.68172 3.64135,0 6.33663,3.29458 7.93788,9.70286 0.65927,2.63843 1.60827,6.34662 2.10888,8.24044 0.96013,3.63211 -0.50566,12.0019 -2.31072,13.19446 -1.39361,0.92072 -8.74857,-0.18021 -11.93087,-1.78587 -3.11649,-1.57247 -4.81719,-4.28148 -5.11426,-8.14643 -0.18358,-2.38843 -0.71794,-2.75979 -4.81427,-3.34574 -2.53426,-0.36251 -5.57181,-1.17506 -6.7501,-1.80566 -4.698466,-2.51454 -4.971826,2.17978 -0.673636,11.56825 1.414936,3.09066 2.572626,6.70792 2.572626,8.03837 0,1.33045 0.85175,4.08857 1.89278,6.12916 1.90912,3.74217 2.10722,4.33276 2.10722,6.28212 0,0.70836 1.78075,0.85326 5.25,0.42721 2.8875,-0.35462 6.28758,-0.25528 7.55574,0.22073 1.26816,0.47602 3.81972,0.68874 5.67014,0.47271 2.67869,-0.31272 3.61698,-1.03476 4.60373,-3.54269 0.68164,-1.73246 2.35759,-4.3674 3.72434,-5.85543 2.99182,-3.25732 4.06276,-2.74245 9.72499,4.67547 4.22331,5.53285 4.65031,8.5972 2.86074,20.53004 -0.92272,6.15272 -1.28495,6.79385 -6.7798,12 -3.19275,3.025 -6.4361,5.85986 -7.20744,6.29969 -0.77134,0.43983 -1.40244,1.63331 -1.40244,2.65217 0,2.23383 -4.58608,4.04814 -10.23256,4.04814 -2.71855,0 -3.79626,0.38622 -3.48798,1.25 0.24537,0.6875 -0.21091,2.54982 -1.01397,4.1385 -0.8274,1.63684 -1.21591,4.10938 -0.89659,5.70598 0.45986,2.29933 0.0356,3.19338 -2.30708,4.8615 -2.95746,2.1059 -9.84807,2.79712 -11.61182,1.16482 -0.522496,-0.48356 -2.749996,-1.43621 -4.949996,-2.11701 -3.9974,-1.23701 -11.5,-7.43728 -11.5,-9.50379 0,-0.60176 -1.8,-2.85176 -4,-5 -2.2,-2.14824 -4,-4.40852 -4,-5.02284 0,-0.61432 -1.35,-2.62904 -3,-4.47716 -1.65,-1.84812 -3,-4.34506 -3,-5.54876 0,-3.92047 -6.13805,-19.85768 -9.1057,-23.6426 -1.59187,-2.03025 -2.8943,-4.11265 -2.8943,-4.62756 0,-0.5149 -0.701,-1.51797 -1.55778,-2.22903 -0.85677,-0.71106 -2.1441,-2.67866 -2.86073,-4.37244 -0.71663,-1.69379 -2.86181,-4.76899 -4.76706,-6.83379 -4.36609,-4.73171 -7.30081,-10.57945 -9.37755,-18.68574 -0.89426,-3.49065 -2.41587,-7.19453 -3.38136,-8.23086 -0.96548,-1.03633 -2.30711,-3.72559 -2.98139,-5.97613 -0.67428,-2.25055 -2.75672,-6.17567 -4.62764,-8.7225 -6.67675,-9.08882 -8.64548,-17.09356 -5.89484,-23.96808 1.57113,-3.92663 1.55288,-4.20697 -0.45763,-7.03048 -1.6638,-2.33659 -2.09711,-4.44994 -2.10908,-10.2864 -0.014,-6.81067 -1.20309,-12.31099 -3.40911,-15.76885 -1.36194,-2.13479 -2.00937,-36.77536 -1.48729,-79.57678 0.0805,-6.6 -0.18954,-14.99324 -0.6001,-18.65165 -0.65181,-5.80811 -1.18044,-7.06097 -4.16849,-9.87938 C 6.4717342,484.3846 6.4627942,483.74854 10.061364,473 c 1.01275,-3.025 1.85244,-6.44265 1.86596,-7.59477 0.0135,-1.15213 0.91472,-4.75213 2.00267,-8 1.97077,-5.88342 1.97077,-5.9103 0,-7.2772 -2.43352,-1.68786 -2.72165,-7.61253 -0.43251,-8.8936 1.33762,-0.74856 1.37698,-1.49529 0.2926,-5.54969 -1.22407,-4.57666 -2.52592,-5.94259 -3.27362,-3.43474 -1.3891298,4.65926 -1.2349998,4.55473 -4.9854098,3.38087 -2.94358,-0.92132 -3.57914,-1.59904 -3.57914,-3.81654 0,-1.48296 -0.45,-2.97441 -1.00000002,-3.31433 -1.7095,-1.05653 -1.11077,-2.33648 1.75000002,-3.7411 1.86578,-0.91608 2.67891,-2.02792 2.52891,-3.45793 -0.14545,-1.38666 0.96637,-3.01341 3.25,-4.75522 1.9090998,-1.45615 3.4710898,-3.23895 3.4710898,-3.96178 0,-0.72284 0.83138,-2.38744 1.84751,-3.69911 1.01613,-1.31167 2.16933,-3.70057 2.56267,-5.30865 0.69438,-2.83883 5.04827,-9.79038 8.94929,-14.28872 2.28103,-2.6303 4.16298,-5.7752 5.70735,-9.53749 0.62085,-1.5125 1.53481,-2.75 2.03101,-2.75 0.49619,0 0.90217,-0.88434 0.90217,-1.9652 0,-1.08087 1.35572,-3.50928 3.01271,-5.39649 2.06453,-2.35137 3.36442,-5.27353 4.13026,-9.2848 0.86625,-4.53722 1.87716,-6.57458 4.49553,-9.06007 5.61974,-5.33457 6.33291,-9.71997 2.18091,-13.41074 -1.00068,-0.88951 -1.81941,-2.50726 -1.81941,-3.59501 0,-3.4517 3.27008,-5.2949 10.6054,-5.97782 5.87842,-0.54728 7.29378,-1.0686 9.60297,-3.53706 2.87192,-3.07003 2.87012,-2.95294 0.21652,-14.02856 C 65.463154,306.93082 67.378274,305 72.074354,305 l 3.87756,0 0,-4.38948 c 0,-4.03365 0.48638,-4.87435 6,-10.37089 3.3,-3.28978 6,-6.40532 6,-6.92343 0,-1.25269 5.32825,-6.3162 6.64643,-6.3162 0.57035,0 1.57629,-1.8 2.23542,-4 0.65914,-2.2 1.61268,-4 2.11898,-4 0.5063,0 2.379206,-2.22813 4.162016,-4.9514 1.78281,-2.72327 4.77224,-5.76077 6.64318,-6.75 1.87094,-0.98923 3.789,-2.79839 4.26235,-4.02035 0.47335,-1.22196 2.37406,-2.8541 4.22381,-3.62697 3.71106,-1.55058 6.7028,-6.58582 6.71545,-11.30241 0.004,-1.56688 0.90076,-5.77387 1.99236,-9.34887 1.0916,-3.575 1.98816,-8.5824 1.99236,-11.12756 0.005,-2.88553 0.57231,-5.09618 1.50764,-5.87244 0.825,-0.68469 1.5,-1.82664 1.5,-2.53768 0,-0.71103 1.35,-2.56697 3,-4.12431 3.65553,-3.45023 3.80055,-5.92046 0.5,-8.51667 -1.375,-1.08158 -2.5,-2.84796 -2.5,-3.9253 0,-3.10406 -2.70073,-3.32564 -6.06196,-0.49736 -4.10519,3.45429 -12.93804,3.55624 -12.93804,0.14932 0,-0.68091 -0.9,-2.05251 -2,-3.048 -1.31279,-1.18806 -2,-3.07997 -2,-5.50605 0,-2.05759 -1.1498,-5.85854 -2.59369,-8.57414 -1.42653,-2.68293 -3.16753,-7.88967 -3.86889,-11.57053 -0.88081,-4.62267 -2.68965,-9.04578 -5.848676,-14.30164 -2.51543,-4.18505 -4.85799,-8.50553 -5.2057,-9.60106 -0.3477,-1.09554 0.12106,-5.78791 1.04171,-10.42751 1.07434,-5.41412 1.44565,-10.33105 1.03666,-13.72735 -1.99258,-16.54637 -1.90293,-18.21362 1.28617,-23.91993 2.44628,-4.37717 3.18564,-7.24506 3.99317,-15.48904 0.701696,-7.16362 1.697026,-11.54272 3.409356,-15 1.33009,-2.68551 3.44726,-7.47531 4.70482,-10.64399 1.80664,-4.552195 2.83827,-5.883322 4.91578,-6.342948 7.22372,-1.598168 8.08673,-2.238748 8.11398,-6.022668 0.0114,-1.589126 1.26312,-2.663648 4.95069,-4.25 C 128.60175,32.955415 131.25126,32 131.77508,32 c 0.52382,0 3.24205,-1.575 6.04051,-3.5 2.79846,-1.925 5.35398,-3.5 5.67893,-3.5 0.32496,0 2.02331,-1.059851 3.77411,-2.355225 1.7508,-1.295374 5.8166,-3.657874 9.03511,-5.25 5.38409,-2.663393 10.59949,-7.357894 13.19747,-11.879353 0.83441,-1.45219 2.37034,-1.846414 7.5,-1.925011 4.39779,-0.06738 7.23756,-0.654428 8.92321,-1.844625 C 187.28429,0.785604 189.61963,0 191.11405,0 c 2.41675,0 2.75144,0.413638 3.02749,3.741683 0.21691,2.614951 0.83735,3.841551 2.06037,4.073325 1.43453,0.271856 1.75,-0.402655 1.75,-3.741684 0,-2.240328 0.4132,-4.073324 0.91821,-4.073324 2.90291,0 4.10953,1.652587 5.18023,7.094838 L 205.21212,13 l 3.8699,0 c 3.37579,0 3.86989,-0.294792 3.86989,-2.30887 0,-4.01551 2.22117,-6.021101 5.7982,-5.235454 2.46663,0.541764 3.10306,1.165449 2.9269,2.868311 -0.21209,2.050238 0.14204,2.163124 6.1268,1.953026 9.42418,-0.330841 14.93075,3.336229 15.46596,10.29948 0.2137,2.780207 2.68214,4.803057 2.68214,2.19797 0,-0.765712 0.57413,-2.177373 1.27584,-3.137024 1.18807,-1.624777 1.5578,-1.540574 5.37403,1.223889 4.49297,3.254687 6.05405,7.84707 3.71433,10.926754 -1.99074,2.620327 -1.75067,5.575407 0.3858,4.748876 0.9625,-0.372361 3.07787,-0.944829 4.70082,-1.272152 1.62295,-0.327323 3.95152,-1.67491 5.1746,-2.994638 2.13692,-2.305771 2.3442,-2.337236 5.30631,-0.805474 2.87707,1.487793 3.03963,1.862202 2.4391,5.617697 -0.55995,3.501793 -0.28325,4.399586 2.13342,6.922049 1.52726,1.594112 4.11052,3.19131 5.74057,3.54933 1.63006,0.35802 4.91399,1.51364 7.29763,2.56803 6.29394,2.78411 36.76453,4.40775 46.77572,2.49247 2.1,-0.40176 7.14506,-0.22618 11.21125,0.39019 6.79711,1.03033 8.16918,0.91409 17.02095,-1.4419 9.73035,-2.58983 16.89147,-3.2747 17.85971,-1.70805 0.65538,1.06042 -4.28227,6.58068 -6.66008,7.44592 -1.72512,0.62775 -2.45952,2.64932 -1,2.75269 10.94742,0.77529 23.01091,0.50525 24.70686,-0.55306 1.12372,-0.70123 4.36709,-1.81125 7.20747,-2.4667 4.52669,-1.04459 5.49575,-0.97458 7.84862,0.56708 1.47636,0.96735 4.77741,2.28624 7.33567,2.93086 5.41196,1.36369 7.76954,4.47515 5.8174,7.67765 -2.6504,4.348 6.49915,5.93915 15.20738,2.64463 3.74401,-1.41644 12.73028,0.97296 19.1266,5.08567 0.825,0.53046 4.12348,1.24801 7.32995,1.59456 3.93528,0.42531 6.36368,1.25343 7.47224,2.54814 0.93036,1.08657 2.95483,1.93184 4.67005,1.94985 1.66527,0.0175 3.90127,0.69249 4.96889,1.5 1.06762,0.80751 2.54834,1.4682 3.29049,1.4682 0.74215,0 2.56864,0.82905 4.05887,1.84233 8.48541,5.76964 14.42643,9.02134 20.20951,11.06127 3.575,1.26106 8.0992,3.37363 10.0538,4.69461 1.9545,1.32099 4.5464,2.40179 5.7597,2.40179 1.2134,0 2.9892,0.96429 3.9463,2.14287 0.9571,1.17858 2.5982,2.86608 3.647,3.75 1.0487,0.88392 3.6289,3.11537 5.7337,4.95876 5.0957,4.4629 8.4988,5.09869 27.3595,5.11163 l 16,0.011 12,5.97408 c 6.6,3.28574 14.025,6.4309 16.5,6.98924 28.0516,6.32824 30.1325,6.9294 33.6123,9.71035 1.9628,1.56865 5.7718,4.23892 8.4645,5.93393 7.0486,4.43713 14.9232,11.29644 14.9232,12.99912 0,0.80406 -1.125,1.9745 -2.5,2.60099 -3.211,1.46301 -3.1538,2.42423 0.25,4.20705 1.5125,0.7922 4.1514,2.94126 5.8643,4.77568 5.0322,5.38937 14.3251,18.12437 13.8209,18.9402 -0.2553,0.41312 0.3721,1.01657 1.3943,1.34099 1.6222,0.51489 4.9574,3.87507 20.4011,20.55413 1.7825,1.925 4.4109,5.3 5.841,7.5 1.4302,2.2 4.6243,6.36051 7.0982,9.24557 2.4738,2.88507 6.4553,9.18507 8.8478,14 2.3925,4.81494 5.6172,10.23259 7.1662,12.03923 1.5489,1.80663 2.8162,4.36758 2.8162,5.69098 0,1.3234 0.4786,2.70198 1.0636,3.06351 0.5849,0.36152 2.7817,4.17337 4.8818,8.47077 6.7622,13.83784 13.1392,19.98992 20.7209,19.98992 3.0041,0 5.0395,0.77949 7.8337,3 2.0953,1.66513 4.9797,3 6.4825,3 2.7207,0 6.0175,2.64554 6.0175,4.82874 0,1.74075 2.4906,1.4232 6.5,-0.82874 1.9585,-1.1 4.6108,-2 5.894,-2 3.4088,0 7.6044,4.62136 7.6138,8.38636 0.011,4.21019 3.278,5.61364 13.0694,5.61364 8.2083,0 13.2724,1.51886 16.3304,4.89789 2.08,2.29836 7.3429,3.63345 10.4437,2.64932 1.245,-0.39518 2.1452,-1.68359 2.3369,-3.34498 0.295,-2.55643 0.7284,-2.76553 8.0331,-3.8754 4.2467,-0.64524 8.7343,-1.88274 9.9725,-2.75 2.8809,-2.0179 7.1909,-2.02319 8.8609,-0.0109 1.8983,2.28732 6.4624,4.43406 9.427,4.43406 1.5081,0 2.8526,0.70765 3.2343,1.70228 0.3593,0.93625 1.8623,2.96743 3.34,4.51373 7.5735,7.92492 2.1144,27.78399 -7.6376,27.78399 -3.589,0 -4.9943,2.05542 -3.4184,5 1.3776,2.57397 0.3769,4.80985 -4.375,9.77547 -2.8074,2.93367 -5.2062,4.45374 -7.6436,4.84349 -2.5885,0.41392 -4.0267,1.39476 -5.3011,3.61544 l -1.749,3.04742 -8.161,-0.6806 c -4.4886,-0.37433 -8.7005,-1.1283 -9.3598,-1.67549 -1.957,-1.62419 -11.0254,-2.35792 -11.8882,-0.96188 -1.1036,1.78569 0.4997,2.89583 4.986,3.45226 2.8646,0.3553 4.8316,1.42541 6.9892,3.80228 1.6514,1.8193 4.24,4.0998 5.7525,5.06777 2.3702,1.51689 2.75,2.41927 2.75,6.53395 0,4.20364 -0.448,5.20832 -3.75,8.40946 -4.3366,4.20417 -8.1121,5.44981 -11.3179,3.73411 -1.2397,-0.6635 -4.4239,-1.36122 -7.0759,-1.55047 -6.0016,-0.42828 -10.0304,-2.44598 -16.0634,-8.04479 -3.8613,-3.58344 -5.3977,-4.36842 -8.55,-4.36842 -2.1135,0 -4.2703,-0.37175 -4.7928,-0.82612 -0.5225,-0.45437 -2.975,-1.40566 -5.45,-2.11398 -2.475,-0.70833 -5.4,-1.67879 -6.5,-2.15659 -1.1,-0.4778 -5.15,-1.351 -9,-1.94045 -8.0532,-1.23298 -17.0826,-5.25889 -17.7806,-7.92771 -0.2627,-1.00462 -2.2195,-2.61997 -4.3485,-3.58967 -3.806,-1.7335 -11.3709,-8.12561 -11.3709,-9.60802 0,-0.41616 -1.707,-2.49817 -3.7934,-4.6267 -6.8007,-6.93805 -8.3511,-9.33176 -7.0553,-10.89309 0.9194,-1.1078 0.5285,-2.06867 -1.8748,-4.60864 -1.6701,-1.76496 -3.5245,-4.16207 -4.121,-5.32692 -0.5964,-1.16484 -2.3379,-2.38162 -3.87,-2.70396 -1.617,-0.34021 -6.0214,-3.75163 -10.4992,-8.1321 -4.2425,-4.15032 -8.0675,-7.55083 -8.5,-7.55669 -0.4325,-0.006 -2.3613,-1.63351 -4.2863,-3.61702 -1.925,-1.9835 -4.5125,-3.99257 -5.75,-4.4646 -1.2375,-0.47202 -2.2639,-1.43187 -2.2809,-2.13298 -0.042,-1.7125 -7.7851,-7.34733 -11.2132,-8.15966 -1.5093,-0.35764 -2.6343,-1.20484 -2.5,-1.88267 0.1342,-0.67783 -0.4309,-1.25907 -1.2559,-1.29164 -3.0376,-0.11992 -6.7081,-1.77251 -15.5,-6.97858 -10.3561,-6.13236 -12.0793,-7.42119 -28.0271,-20.9622 -6.4776,-5.5 -13.9589,-11.70799 -16.6252,-13.79552 -2.6662,-2.08754 -4.8477,-4.62329 -4.8477,-5.63499 0,-1.01171 -1.125,-2.5766 -2.5,-3.47753 -1.5218,-0.9971 -2.5,-2.58091 -2.5,-4.04763 0,-1.53568 -0.7293,-2.64103 -2.011,-3.04781 -1.106,-0.35104 -2.6892,-1.94985 -3.5182,-3.5529 -1.711,-3.30885 -5.8622,-4.8048 -8.5958,-3.09766 -1.5038,0.93916 -2.3968,0.63809 -5.099,-1.71913 -3.5965,-3.13722 -11.249,-7.3205 -12.0062,-6.56325 -0.2629,0.26285 -2.7667,-0.0129 -5.564,-0.61287 -3.3952,-0.72813 -5.1938,-1.64931 -5.4099,-2.77074 -0.2681,-1.39066 -1.5835,-1.67997 -7.6385,-1.67997 -6.8388,0 -7.4458,-0.18007 -9.333,-2.76873 -2.1539,-2.95451 -9.953,-8.73127 -11.7879,-8.73127 -0.6067,0 -2.7053,-1.60217 -4.6635,-3.56038 -3.9808,-3.98074 -8.2056,-6.00706 -9.6056,-4.60706 -1.0721,1.07218 5.6682,6.96316 8.9168,7.79317 2.1243,0.54276 4.3158,4.79047 4.3158,8.36521 0,2.16498 -6.873,4.3282 -10.7117,3.37142 -4.477,-1.11587 -10.3374,-3.97994 -9.6172,-4.70012 0.3642,-0.36423 -0.088,-0.66224 -1.0044,-0.66224 -0.9167,0 -1.6667,-0.45 -1.6667,-1 0,-0.55 -1.35,-1 -3,-1 -1.65,0 -2.99,0.3375 -2.9778,0.75 0.012,0.4125 2.2622,2.71467 5,5.11593 2.7378,2.40126 4.9778,4.97292 4.9778,5.71481 0,1.79689 3.6651,3.77021 4.4983,2.42196 0.3409,-0.55148 1.047,-1.0027 1.5692,-1.0027 0.5222,0 0.4102,0.86343 -0.2488,1.91872 -1.0264,1.64346 -0.7048,2.48054 2.2415,5.8348 1.8919,2.15384 4.2258,5.22792 5.1864,6.83128 5.1803,8.64618 8.8219,13.87405 10.2027,14.64679 0.8529,0.47728 1.5507,1.25505 1.5507,1.72836 0,1.25096 5.2269,9.04005 6.0663,9.04005 0.3911,0 1.001,-1.54497 1.3552,-3.43327 0.5238,-2.79202 1.288,-3.64579 4.0917,-4.5711 4.3765,-1.44436 5.4868,-0.72386 5.4868,3.56051 0,2.54443 0.9381,4.47642 3.6089,7.4327 1.9849,2.19703 3.9445,3.7872 4.3546,3.5337 1.0956,-0.67708 4.1617,3.01432 9.5334,11.47746 2.6183,4.125 5.6064,8.625 6.6403,10 1.0339,1.375 4.3891,5.98851 7.4561,10.25223 3.3879,4.70989 6.4997,7.98398 7.9291,8.34275 1.6845,0.42279 2.7899,1.87323 3.8916,5.1066 1.4897,4.37218 1.4683,4.57312 -0.672,6.30627 -2.0918,1.69379 -2.1414,2.04994 -0.9208,6.61345 0.7095,2.65279 1.4601,4.99329 1.6679,5.20111 1.097,1.09706 2.5109,-1.37006 2.5109,-4.38143 0,-4.68586 1.5093,-4.32632 3.3962,0.80902 0.8588,2.3375 2.2143,6.05 3.0122,8.25 0.7979,2.2 4.2225,10.75 7.6102,19 3.3877,8.25 6.553,16.28962 7.0339,17.86583 0.4809,1.5762 1.3918,12.6012 2.0243,24.5 1.0982,20.66012 1.9276,25.86754 3.9232,24.63417 0.4948,-0.30581 1.3722,0.327 1.9498,1.40625 1.62,3.02688 1.2803,4.38719 -0.9498,3.804 -1.5689,-0.41029 -2,-0.0307 -2,1.76125 0,3.00323 2.4785,8.85082 4.4422,10.48055 0.8568,0.71106 1.5578,1.6826 1.5578,2.15896 0,0.47637 0.7492,1.7411 1.6648,2.81052 2.572,3.00389 6.2503,12.2183 6.295,15.76945 0.022,1.75504 0.4902,3.4691 1.0402,3.80902 0.55,0.33992 1,2.3703 1,4.51196 0,3.96743 0.712,6.25923 4.2447,13.66243 l 1.992,4.1744 -3.6184,5.95641 c -1.99,3.27603 -3.6183,7.2556 -3.6183,8.84348 0,3.69388 4.3889,10.19243 7.2779,10.77629 6.8769,1.38979 11.0591,1.54024 12.3784,0.44529 1.1572,-0.96039 2.1606,-0.47852 5.2161,2.50515 4.0254,3.93071 4.0346,3.93246 17.6276,3.37802 3.7742,-0.15394 6.4211,0.49856 10.7968,2.66155 5.1441,2.54286 6.5075,2.79912 12.1097,2.27598 3.4721,-0.32423 7.8775,-1.33561 9.7898,-2.24751 3.2812,-1.56473 3.8939,-1.54627 10.8903,0.32808 12.3033,3.2961 22.3836,6.43156 22.9134,7.12717 0.275,0.36108 2.357,1.47489 4.6266,2.47514 3.7627,1.65825 7.6218,4.94126 15.8321,13.46874 1.6273,1.69016 3.8661,3.20451 4.975,3.36522 1.1089,0.16071 2.523,1.31277 3.1424,2.56014 0.9789,1.97133 0.6994,2.72046 -2.1371,5.72803 -4.8844,5.17904 -2.7806,9.4857 5.4366,11.12915 1.9193,0.38385 4.1387,1.8278 5.3706,3.49406 1.1548,1.56192 3.5211,3.30898 5.2585,3.88237 1.7374,0.57338 4.9047,1.9326 7.0385,3.02048 4.9432,2.52015 7.6728,2.50173 9.9979,-0.0675 1.4843,-1.64005 2.8456,-1.9869 6.8684,-1.75 4.7728,0.28106 5.0494,0.45353 5.6763,3.5393 1.0142,4.99158 2.5937,6.25616 7.8141,6.25616 6.1913,0 9.1001,2.09581 9.1001,6.5567 0,2.2592 -0.715,4.0451 -2.0791,5.1933 -6.1546,5.18022 -10.2397,9.94689 -13.909,16.22961 -3.0754,5.2658 -4.7614,7.15101 -6.8005,7.60398 -5.7224,1.27116 -6.7788,1.70802 -8.9614,3.70566 -2.526,2.31197 -2.7853,3.88081 -1.09,6.59529 0.9439,1.51141 0.7449,2.44028 -1.0681,4.98643 -1.2255,1.72097 -2.6275,3.12903 -3.1156,3.12903 -0.4881,0 -2.5878,1.15388 -4.666,2.56418 -8.3221,5.64751 -14.8668,7.43583 -27.213,7.43583 l -10.2607,0 -4.4105,-3.61404 c -2.9958,-2.45486 -4.74,-4.83785 -5.4378,-7.42956 -1.446,-5.36984 -6.8059,-16.56016 -8.675,-18.11138 -2.319,-1.92456 -8.8036,-1.61625 -11.1767,0.5314 -2.4838,2.24776 -3.6105,6.86951 -2.2806,9.35451 0.544,1.01653 2.2615,2.48601 3.8166,3.26552 4.7074,2.35968 6.3274,4.17733 6.3274,7.09952 0,1.5323 0.45,3.06411 1,3.40403 1.6338,1.00974 1.1373,6.07537 -0.75,7.65165 -4.8171,4.0233 -10.6972,4.84231 -14.3651,2.00084 -1.3117,-1.01613 -3.5099,-2.12218 -4.8849,-2.45789 -1.375,-0.33571 -4.1885,-2.20433 -6.2523,-4.15249 -2.0638,-1.94816 -4.19,-3.54211 -4.725,-3.54211 -2.1057,0 -5.1916,-9.13811 -4.8537,-14.37285 l 0.331,-5.12715 -4,-0.31534 c -2.6828,-0.21149 -4.9879,-1.22889 -7,-3.0896 -4.392,-4.06157 -9.0561,-5.7717 -17.5712,-6.4427 -7.3182,-0.57669 -7.6857,-0.49869 -11,2.33487 -1.8858,1.61232 -3.908,2.94978 -4.4936,2.97213 -3.1036,0.11846 -5.1332,12.87315 -2.3247,14.60893 1.3474,0.83276 1.0642,8.04743 -0.3605,9.18397 -0.6982,0.55695 -3.2365,0.72137 -5.75,0.37244 -3.8347,-0.53235 -4.5504,-0.99429 -4.8412,-3.1247 -0.4218,-3.09118 -2.9135,-6 -5.1395,-6 -0.9189,0 -2.7276,1.125 -4.0193,2.5 -1.9233,2.04727 -3.2937,2.5 -7.5673,2.5 -3.6747,0 -5.386,0.43596 -5.7842,1.47355 -0.311,0.81046 -0.022,1.82296 0.643,2.25 3.3279,2.13814 3.7705,3.92791 1.641,6.63508 -2.3278,2.95937 -5.046,3.38497 -7.2896,1.14137 -1.6974,-1.69733 -6.2078,-2.01306 -7.1429,-0.5 -1.0163,1.64434 -4.0671,1.13587 -6,-1 -1.0762,-1.18918 -3.08,-2 -4.9426,-2 -2.4397,0 -4.2301,-1.11511 -8.095,-5.04183 -4.7689,-4.84528 -5.1573,-5.03227 -9.9624,-4.79645 -6.4826,0.31816 -9.5,-1.3213 -9.5,-5.16172 0,-3.47523 -2.2368,-4.95297 -6.5115,-4.30177 -4.0401,0.61545 -13.2785,-4.01573 -14.5189,-7.27821 -0.5059,-1.33054 -0.6528,-3.75375 -0.3266,-5.38492 0.6058,-3.02907 0.3177,-3.53344 -7.3039,-12.7851 -2.4895,-3.0219 -6.3391,-4.43487 -6.3391,-2.32673 0,0.50781 1.0533,2.19531 2.3406,3.75 1.2874,1.5547 3.9629,5.38474 5.9457,8.5112 l 3.605,5.68447 -3.1822,3.11124 c -3.7037,3.62098 -8.4627,3.86335 -10.2067,0.51982 -2.1333,-4.08967 -6.4632,-10.3589 -7.7119,-11.16594 -0.7098,-0.45873 -2.6405,-1.28406 -4.2905,-1.83406 -2.0876,-0.69586 -3.3181,-1.98402 -4.0458,-4.23543 -1.0513,-3.25255 -4.5457,-7.26457 -6.3272,-7.26457 -0.5262,0 -2.6083,-2.25 -4.627,-5 -2.0187,-2.75 -4.1945,-5.01001 -4.8352,-5.02224 -0.6406,-0.0122 -2.2898,-0.90222 -3.6648,-1.97776 -1.375,-1.07554 -3.625,-1.97985 -5,-2.00957 -1.375,-0.0297 -3.34964,-0.69728 -4.3881,-1.48346 -1.68072,-1.27242 -2.39464,-1.13308 -6.5,1.26867 -2.53654,1.48395 -5.91614,3.9415 -7.51021,5.46122 -3.50488,3.34141 -8.20734,3.64777 -11.86225,0.77283 -1.39165,-1.09468 -3.48344,-2.13578 -4.64842,-2.31357 -3.07266,-0.46892 -4.0087,-1.83161 -3.39752,-4.94612 0.33306,-1.69724 1.18411,-2.75 2.22308,-2.75 2.19871,0 4.08342,-1.93852 4.08342,-4.2 0,-2.67673 -2.25781,-2.18412 -5.5,1.2 -1.5808,1.65 -3.22196,3 -3.64702,3 -0.96947,0 -10.22145,9.7916 -10.72415,11.34963 -0.71695,2.22207 -7.55286,8.65037 -9.19889,8.65037 -0.91529,0 -2.87453,-1.82898 -4.35386,-4.0644 -4.3543,-6.57979 -5.1251,-4.97708 -4.70437,9.78174 0.34449,12.08411 0.22155,13.1894 -1.67838,15.08933 -1.8116,1.8116 -2.47822,1.91869 -5.73046,0.92055 -4.46636,-1.37076 -6.02814,-3.68645 -6.84832,-10.15414 -0.34363,-2.7098 -1.27277,-5.64292 -2.06474,-6.51804 -0.79198,-0.87513 -1.40683,-3.15802 -1.36634,-5.07309 0.0405,-1.91507 -0.12491,-4.62599 -0.36755,-6.02425 -0.95981,-5.53118 -3.85955,-6.91277 -3.58418,-1.7077 0.0946,1.7875 0.0811,5.06384 -0.0299,7.28076 -0.17608,3.51642 -0.59992,4.18102 -3.32146,5.20829 -2.85855,1.07898 -3.06346,1.453 -2.44857,4.46924 0.36907,1.81044 0.99185,5.77331 1.38394,8.80637 0.3921,3.03306 1.65333,6.85806 2.80275,8.5 1.14941,1.64194 2.39178,4.23377 2.76082,5.75963 0.96143,3.97521 7.31585,12.04205 10.4529,13.26979 1.46728,0.57425 5.1145,2.26175 8.10493,3.75 2.99044,1.48826 5.97979,2.70592 6.64301,2.70592 1.2589,0 2.41984,2.17948 2.41984,4.54283 0,0.75859 -0.97666,2.28915 -2.17035,3.40124 -2.03785,1.89856 -2.06837,2.13466 -0.5,3.8677 1.20082,1.32689 1.67035,3.6778 1.67035,8.36333 0,3.991 0.62475,7.76997 1.6116,9.74815 1.64238,3.29223 1.54294,9.38704 -0.32757,20.07675 -0.43309,2.475 -0.39192,8.775 0.0915,14 0.48338,5.225 0.84518,13.42549 0.80399,18.22331 -0.0412,4.79781 0.35157,8.98687 0.87281,9.30901 1.29302,0.79913 1.19781,7.13183 -0.14494,9.64078 -0.79019,1.47648 -0.79019,2.34407 0,3.13426 1.72427,1.72427 1.42877,2.1287 -4.57787,6.26563 -5.27129,3.63048 -6.12347,3.89285 -12.10447,3.72666 -8.12372,-0.22572 -9.87859,-1.67872 -10.78449,-8.92935 -0.5035,-4.02985 -1.21041,-5.71196 -2.74579,-6.53367 -1.76348,-0.94378 -2.39716,-0.6821 -4.30655,1.77838 -1.23134,1.58674 -2.60992,3.22382 -3.0635,3.63793 -5.5446,5.06225 -7.7311,6.74706 -8.75613,6.74706 -0.67096,0 -2.27681,1.125 -3.56856,2.5 -2.73341,2.90959 -7.98036,3.37678 -10.42857,0.92857 z"
     id="path2987"
     inkscape:connector-curvature="0" />
</svg>
