<?xml version="1.0" encoding="UTF-8" standalone="no"?>
<!-- Created with Inkscape (http://www.inkscape.org/) -->

<svg
   xmlns:dc="http://purl.org/dc/elements/1.1/"
   xmlns:cc="http://creativecommons.org/ns#"
   xmlns:rdf="http://www.w3.org/1999/02/22-rdf-syntax-ns#"
   xmlns:svg="http://www.w3.org/2000/svg"
   xmlns="http://www.w3.org/2000/svg"
   xmlns:sodipodi="http://sodipodi.sourceforge.net/DTD/sodipodi-0.dtd"
   xmlns:inkscape="http://www.inkscape.org/namespaces/inkscape"
   id="svg2"
   version="1.1"
   inkscape:version="0.48.2 r9819"
   width="780.40216"
   height="713"
   sodipodi:docname="harrysladdertole00londiala_0022b.png">
  <metadata
     id="metadata8">
    <rdf:RDF>
      <cc:Work
         rdf:about="">
        <dc:format>image/svg+xml</dc:format>
        <dc:type
           rdf:resource="http://purl.org/dc/dcmitype/StillImage" />
        <dc:title></dc:title>
      </cc:Work>
    </rdf:RDF>
  </metadata>
  <defs
     id="defs6" />
  <sodipodi:namedview
     pagecolor="#ffffff"
     bordercolor="#666666"
     borderopacity="1"
     objecttolerance="10"
     gridtolerance="10"
     guidetolerance="10"
     inkscape:pageopacity="0"
     inkscape:pageshadow="2"
     inkscape:window-width="1600"
     inkscape:window-height="876"
     id="namedview4"
     showgrid="false"
     fit-margin-top="0"
     fit-margin-left="0"
     fit-margin-right="0"
     fit-margin-bottom="0"
     inkscape:zoom="1"
     inkscape:cx="370.50665"
     inkscape:cy="273.5"
     inkscape:window-x="0"
     inkscape:window-y="24"
     inkscape:window-maximized="1"
     inkscape:current-layer="svg2" />
  <path
     style="fill:#000000"
     d="m 370.76405,710.4339 0.4905,-2.56609 -6.3739,0.68259 c -5.5445,0.59376 -6.374,0.46673 -6.374,-0.97611 0,-1.80177 0.8793,-3.04477 5.5846,-7.89481 3.6889,-3.80229 6.7569,-8.87609 8.3103,-13.74345 0.9294,-2.91233 0.8456,-4.14898 -0.4587,-6.76349 -1.3169,-2.63985 -1.4076,-4.07842 -0.5186,-8.22402 0.978,-4.56016 0.8487,-5.47627 -1.3995,-9.91281 -1.3624,-2.68856 -2.9657,-8.18396 -3.5628,-12.212 -0.5972,-4.02804 -1.7773,-8.83846 -2.6225,-10.68981 -0.8453,-1.85136 -1.8646,-5.78161 -2.2653,-8.7339 -0.4006,-2.95228 -1.4618,-6.17825 -2.3583,-7.16882 -0.8964,-0.99057 -3.0581,-4.48532 -4.8036,-7.76611 -1.7455,-3.28079 -4.2269,-7.22348 -5.5142,-8.76153 -2.6192,-3.12955 -9.7072,-17.63812 -10.7957,-22.09818 -0.4135,-1.69439 -1.0749,-2.52369 -1.595,-2 -0.8781,0.88399 -2.7149,10.78966 -3.1899,17.20238 -0.1348,1.81925 -0.8223,3.78685 -1.5279,4.37244 -0.7056,0.58559 -1.2989,2.47211 -1.3185,4.19226 -0.02,1.72016 -0.6876,5.82756 -1.4844,9.12756 -2.0691,8.56922 -1.8279,14.07218 1.0125,23.09638 4.3033,13.67215 3.6055,19.56427 -2.4751,20.8998 -1.6596,0.3645 -3.0174,1.24688 -3.0174,1.96083 0,0.71396 -0.6208,1.81329 -1.3795,2.44297 -0.7587,0.62968 -1.6366,2.43054 -1.9509,4.00191 -0.81,4.05022 -3.2898,6.23153 -6.2419,5.4906 -1.7947,-0.45044 -2.4277,-0.20175 -2.4277,0.95379 0,3.04667 -6.5652,3.19113 -12.5198,0.27547 -2.9531,-1.44598 -6.5192,-3.06628 -7.9247,-3.60066 -3.1839,-1.21049 -3.2454,-3.23658 -0.3794,-12.49288 2.2564,-7.28743 6.9453,-14.52821 9.4079,-14.52821 0.7788,0 1.416,-0.4549 1.416,-1.0109 0,-0.55599 0.8609,-2.91849 1.9132,-5.25 1.0836,-2.40111 2.114,-7.44376 2.3765,-11.63028 0.3288,-5.24337 0.9097,-7.6409 1.9991,-8.25055 2.715,-1.5194 2.9475,-7.74134 0.6114,-16.35827 -2.0038,-7.39113 -2.1594,-10.16117 -2.0438,-36.39559 l 0.1251,-28.3956 -2.5612,-2.5612 c -4.3665,-4.36652 -10.4203,-19.71834 -10.4203,-26.42483 0,-2.12315 -0.5658,-3.72591 -1.4327,-4.05857 -0.7879,-0.30237 -2.9613,-2.93801 -4.8298,-5.85699 -1.8684,-2.91897 -5.1612,-6.84873 -7.3173,-8.7328 -2.1561,-1.88407 -5.5942,-5.70907 -7.6403,-8.5 -2.046,-2.79093 -4.071,-5.52442 -4.5,-6.07442 -0.4289,-0.55 -1.5475,-2.66103 -2.4857,-4.69118 -1.09645,-2.3727 -2.34664,-3.64842 -3.49997,-3.57145 -2.36577,0.15788 -10.74105,-5.83522 -12.34628,-8.83463 -0.9709,-1.81413 -1.8161,-2.22295 -3.6462,-1.76363 -3.04807,0.76502 -5.75133,-1.62741 -8.93692,-7.90931 -4.65617,-9.18185 -8.60905,-11.44733 -9.87967,-5.66223 -0.75375,3.4318 -3.22165,4.9588 -4.57077,2.82815 -0.48607,-0.76765 -0.89066,-3.57359 -0.89908,-6.23543 -0.0115,-3.63873 -0.51892,-5.25171 -2.04476,-6.5 -1.11619,-0.91316 -2.26856,-3.00015 -2.5608,-4.63776 -0.66305,-3.71537 -1.13287,-4.19941 -2.62642,-2.70586 -1.46906,1.46906 -4.78333,1.55647 -4.78333,0.12615 0,-3.86903 2.93076,-11.24582 6.27316,-15.7897 2.85226,-3.87756 3.63182,-5.64814 2.83682,-6.44314 -0.795,-0.795 -1.85384,-0.53944 -3.85311,0.92997 -3.23868,2.38033 -8.29281,3.57391 -10.18406,2.40505 -1.07343,-0.66342 -0.96689,-1.32607 0.54709,-3.403 1.03406,-1.41853 2.3301,-2.63815 2.8801,-2.71026 0.55,-0.0721 -0.0103,-0.42374 -1.24503,-0.78142 -2.06302,-0.5976 -1.79953,-0.99446 3.25,-4.89508 5.79928,-4.47978 6.79129,-6.25524 3.49503,-6.25524 -2.49245,0 -2.58557,-2.16009 -0.18672,-4.33102 1.48056,-1.33989 1.85027,-3.41045 2.01492,-11.28454 0.12191,-5.83001 -0.23237,-10.16651 -0.89589,-10.96601 -0.60365,-0.72735 -0.79591,-2.27284 -0.42724,-3.43442 0.53274,-1.67851 0.29315,-2.04752 -1.16738,-1.79798 -1.64274,0.28066 -1.84582,-0.48165 -1.91435,-7.18603 -0.11182,-10.94061 -0.12694,-11 -2.8002,-11 -1.89461,0 -2.80761,-1.00133 -4.5,-4.93538 -1.16773,-2.71446 -2.12314,-5.33991 -2.12314,-5.83433 0,-0.49442 -2.26371,-3.04223 -5.03046,-5.66179 -3.84169,-3.63732 -5.34039,-4.50561 -6.34201,-3.67434 -1.56396,1.29797 -2.62753,0.46379 -2.62753,-2.06083 0,-1.18055 -0.72868,-1.83333 -2.04651,-1.83333 -1.22692,0 -2.72873,-1.19891 -3.75,-2.99368 -0.98304,-1.72757 -2.53588,-2.99635 -3.67165,-3 -1.08249,-0.003 -2.94824,-1.1469 -4.14611,-2.54095 -1.19787,-1.39405 -2.77651,-2.40655 -3.5081,-2.25 -0.73904,0.15814 -1.4869,-0.74724 -1.68287,-2.03735 -0.194,-1.27709 -1.48279,-3.97709 -2.86398,-6 -1.38119,-2.02291 -2.41733,-3.00302 -2.30253,-2.17802 0.39224,2.81892 -0.058,6.49866 -0.97195,7.94314 -1.42216,2.24778 -5.86088,-0.21565 -6.59319,-3.65913 -1.80305,-8.47825 -10.34803,-19.70924 -13.50914,-17.75556 -0.57306,0.35417 -2.16765,-0.0937 -3.54353,-0.99517 -2.69544,-1.76613 -4.18683,-1.54086 -11.09277,1.67549 -2.52986,1.17825 -7.63891,2.21326 -12.93075,2.61955 -8.57698,0.65852 -8.76345,0.72813 -9.51613,3.55238 -0.82438,3.09325 -4.54873,7.6193 -6.2697,7.6193 -1.269375,0 -7.355485,6.69249 -8.106945,8.91464 -0.29486,0.87195 -2.08591,2.71036 -3.98011,4.08536 -2.40236,1.74388 -4.23984,4.46592 -6.07533,9 -4.94716,12.22061 -5.67928,15.17424 -5.06876,20.44926 0.32151,2.77791 0.7073,6.1302 0.85731,7.44953 0.45927,4.03933 -2.05525,3.51197 -3.93421,-0.82511 -3.44091,-7.94241 -4.0554,-3.60189 -1.67189,11.8095 0.54324,3.5125 0.3999,4.29239 -0.72163,3.92616 -2.3943,-0.78187 -4.20685,-5.9596 -5.1829,-14.80546 -0.51608,-4.67713 -1.45094,-9.59471 -2.07748,-10.92794 -1.06751,-2.2716 -1.15968,-2.14582 -1.46566,2 -0.49725,6.73766 2.41747,20.86073 5.9275,28.72125 1.41868,3.17704 1.65561,4.78909 0.90894,6.18426 -0.55546,1.03789 -1.00993,4.61665 -1.00993,7.95281 0,4.20289 -0.38389,6.05597 -1.25,6.03394 -2.32772,-0.0592 -4.75,-2.67636 -4.75,-5.1321 0,-1.34388 -1.10019,-4.66927 -2.44486,-7.38976 -4.96504,-10.04506 -8.48751,-22.92562 -8.67457,-31.72017 -0.17662,-8.30378 -2.76413,-28.64007 -3.91848,-30.797 -1.17185,-2.18963 -14.79345,-5.49695 -20.96209,-5.08959 -3.85077,0.25429 -4.87847,-0.10945 -7.12326,-2.52121 -1.4428,-1.5501 -3.24847,-4.16755 -4.01261,-5.81656 -1.05958,-2.28656 -2.33576,-3.19971 -5.3767396,-3.84723 -4.96842,-1.05795 -8.82853,-5.40603 -6.2457,-7.03524 1.44841,-0.91363 1.37626,-1.42311 -0.71765,-5.06755 -3.57970004,-6.23044 -3.84659004,-9.36531 -1.54513,-18.14895 1.89828,-7.24486 2.53612,-8.33995 7.66097,-13.15284 3.0746596,-2.8875 6.0154396,-5.25 6.5350596,-5.25 1.26107,0 11.82506,-10.03254 11.82506,-11.23016 0,-0.51703 2.6362,-3.93926 5.85822,-7.60495 3.22203,-3.66569 6.25953,-7.41569 6.75,-8.33333 0.88509,-1.65592 9.37307,-11.23564 20.89178,-23.5789 3.3,-3.53622 6.16824,-6.89444 6.37387,-7.46269 0.20563,-0.56825 2.68063,-3.36511 5.5,-6.21523 14.96179,-15.12496 20.63286,-22.00867 20.61164,-25.01902 -0.0281,-3.98226 4.45415,-15.72265 6.958745,-18.22724 2.10629,-2.10629 3.22669,-2.4566 6.63011,-2.07299 3.30885,0.37296 4.51136,0.0296 6.26057,-1.78788 1.19079,-1.23723 2.16507,-2.73702 2.16507,-3.33288 0,-0.59585 1.27088,-1.74057 2.82418,-2.54381 1.56894,-0.81133 3.93639,-3.60064 5.32656,-6.27568 14.2265,-27.3756 28.87155,-47.575077 49.2378,-67.912266 5.5613,-5.553365 15.12435,-15.346805 21.25121,-21.763201 10.03054,-10.504563 11.97218,-12.055173 19.5,-15.572943 4.59814,-2.14872 11.28525,-4.41503 14.86025,-5.03625 C 238.9268,8.2199 249.66449,5.06987 254.3826,2.43956 256.78938,1.0978 259.82688,0 261.1326,0 c 3.47431,0 3.25518,4.79336 -0.37595,8.2239 C 257.89333,10.92904 240.94476,19 238.12744,19 c -1.39705,0 -12.70536,4.90088 -19.29041,8.360227 -3.648,1.916412 -11.04686,9.378614 -14.77639,14.902886 -1.94453,2.880288 -6.6417,8.528956 -10.43815,12.552596 -13.8313,14.659009 -23.05447,31.309461 -30.11655,54.368921 -1.43238,4.67709 1.25434,2.27062 6.03415,-5.40473 2.45661,-3.94478 7.50406,-10.18149 11.21656,-13.85936 3.7125,-3.67787 6.75,-7.41458 6.75,-8.30379 0,-0.88921 0.43498,-1.61675 0.96662,-1.61675 0.53164,0 3.12909,-1.92058 5.77211,-4.26795 2.64301,-2.347375 9.74553,-7.599003 15.78338,-11.670285 6.03784,-4.071282 11.20289,-7.663203 11.47789,-7.982048 C 222.55784,54.860934 228.46541,51 229.27907,51 c 1.12199,0 5.68731,-4.923492 7.0783,-7.633625 0.67207,-1.309434 2.49058,-2.395422 4.70767,-2.81135 1.98692,-0.372749 6.61161,-2.570602 10.27709,-4.884118 10.14533,-6.403354 18.04462,-9.593517 27.66452,-11.172437 2.2,-0.36109 5.8708,-1.4772 8.1573,-2.48025 4.4196,-1.93879 24.0955,-7.02863 27.0713,-7.00291 2.9178,0.0252 4.5372,1.57201 3.8645,3.69131 -0.9514,2.99751 -7.8904,7.01212 -14.3159,8.28252 -10.0048,1.97807 -14.6213,3.588626 -24.6195,8.589069 C 276.50115,36.910194 273.71415,38 272.97105,38 c -0.743,0 -1.939,0.796255 -2.6577,1.769455 -2.0366,2.757847 -12.76561,11.539083 -18.3876,15.049481 -2.7945,1.744895 -6.1927,4.411956 -7.55155,5.926801 -1.35886,1.514844 -4.60904,4.329263 -7.22262,6.254263 -6.37426,4.694867 -19.68207,17.55114 -23.2585,22.46933 -1.58754,2.18313 -4.3274,5.24835 -6.08859,6.81159 -1.76119,1.56324 -3.47901,3.71454 -3.81739,4.78067 -0.33837,1.06612 -1.2001,1.93841 -1.91495,1.93841 -1.11253,0 -3.80225,3.27778 -8.11571,9.89008 -0.57762,0.88546 -2.98191,3.63492 -5.34287,6.10992 -2.36096,2.475 -4.9748,5.85 -5.80853,7.5 -0.83373,1.65 -3.21862,4.8 -5.29977,7 -2.08114,2.2 -4.06489,4.94118 -4.40834,6.09151 -0.6066,2.03173 -0.44637,2.06456 5.60586,1.14853 6.13397,-0.92839 6.2656,-0.89888 8.51212,1.90849 2.88719,3.60799 2.96881,8.67724 0.19634,12.19374 -1.89926,2.40894 -1.93484,2.69016 -0.38015,3.00414 2.09455,0.423 10.7521,-1.86776 11.55647,-3.05781 1.04902,-1.55204 7.81041,-2.12368 9.41062,-0.79562 1.68664,1.39979 2.04599,8.47776 0.61898,12.19192 -0.48921,1.27331 -2.79799,4.47593 -5.13061,7.11693 -4.00062,4.52953 -4.09195,4.7644 -1.61052,4.1416 2.7313,-0.68552 3.43479,0.35239 1.52995,2.25723 -0.80089,0.80089 -0.49842,1.29181 1.11054,1.80248 1.21617,0.38599 3.84896,2.16427 5.85066,3.95173 2.00171,1.78745 6.45196,5.15587 9.88946,7.48537 3.4375,2.32949 6.25,4.61814 6.25,5.08587 0,0.46773 1.23704,0.7657 2.74898,0.66215 2.18609,-0.14971 2.81681,0.28913 3.08023,2.14316 0.30963,2.17936 0.41669,2.21455 1.64146,0.53957 2.129,-2.91157 6.16488,-0.43818 7.5246,4.61145 1.18921,4.41637 5.81451,8.49337 13.75473,12.12416 2.3375,1.06886 4.25,2.29879 4.25,2.73318 0,1.48771 7.4713,4.35337 12.778,4.90107 4.5488,0.46947 5.5894,0.24194 7.3023,-1.59668 1.0987,-1.17929 2.3956,-2.14417 2.8821,-2.14417 0.4864,0 2.9478,1.575 5.4697,3.5 5.0153,3.82831 7.5828,4.23059 13.2977,2.08352 5.6549,-2.12457 17.122,-2.95137 19.0254,-1.37176 0.8537,0.70853 2.7205,1.36426 4.1485,1.45717 1.428,0.0929 4.9171,0.7068 7.7537,1.3642 3.6653,0.84946 5.9798,0.89576 8,0.16002 2.6248,-0.95592 2.6638,-1.04131 0.5093,-1.1142 -1.3414,-0.0454 -2.164,-0.58716 -1.9349,-1.27443 0.6337,-1.9011 5.7685,-2.88128 12.2682,-2.34189 3.3,0.27385 9.825,0.75163 14.5,1.06172 13.4124,0.88964 20.9276,3.75424 25.6717,9.78534 1.0564,1.34304 3.3957,2.76584 5.1985,3.1618 2.0396,0.44797 5.3514,2.79363 8.7676,6.20981 l 5.4899,5.4899 5.6862,-0.42189 c 3.1273,-0.23203 9.2861,-0.9587 13.6861,-1.61482 21.3075,-3.1773 21.1737,-3.16876 24.9458,-1.59269 2.7196,1.13634 8.4019,1.56308 23.0745,1.7329 10.7065,0.12391 19.4693,0.52665 19.473,0.89497 0.014,1.39519 20.2852,-0.98767 23.0761,-2.71258 0.5031,-0.31093 1.645,-0.15667 2.5375,0.34281 1.0936,0.612 2.8082,0.32377 5.2579,-0.8839 3.7031,-1.82553 16.2569,-4.916 19.9693,-4.916 1.1263,0 2.2901,-0.39188 2.5861,-0.87084 0.296,-0.47896 2.0101,-1.1611 3.809,-1.51586 1.7989,-0.35476 5.5208,-1.70873 8.2708,-3.00884 2.75,-1.3001 5.9,-2.60361 7,-2.8967 1.1,-0.29309 4.7,-1.53743 8,-2.7652 3.3,-1.22776 8.025,-2.61435 10.5,-3.08129 7.095,-1.33857 13.5968,-3.28335 15.1105,-4.51975 0.7642,-0.62423 3.4145,-1.71023 5.8895,-2.41333 2.475,-0.70309 4.983,-1.63865 5.5732,-2.079 0.5903,-0.44035 3.1935,-0.97727 5.7849,-1.19315 2.5914,-0.21588 4.8085,-0.5643 4.9268,-0.77427 0.1183,-0.20997 0.7117,-1.28177 1.3187,-2.38177 0.607,-1.1 2.407,-2.39043 4,-2.86763 1.593,-0.47719 3.5862,-1.20747 4.4292,-1.62284 4.1874,-2.06309 7.8355,-2.08399 11.5998,-0.0665 2.1108,1.1313 4.3394,2.05692 4.9526,2.05692 0.6131,0 2.8697,1.25859 5.0148,2.79687 2.145,1.53828 5.475,3.41685 7.4,4.1746 3.8077,1.49885 9.3005,4.98579 9.8333,6.24241 0.1834,0.43237 1.0098,0.78612 1.8366,0.78612 1.8875,0 10.0337,5.78525 10.7408,7.62795 0.2896,0.75463 1.0679,1.37205 1.7295,1.37205 0.6616,0 4.1632,1.19373 7.7813,2.65273 5.013,2.02144 8.5548,2.70087 14.8828,2.85502 7.0444,0.17161 8.5176,0.50679 9.7101,2.20931 0.9186,1.31148 3.4879,2.41666 7.4139,3.18905 3.3045,0.65012 6.274,1.6122 6.5989,2.13796 0.325,0.52576 1.2601,0.95593 2.0781,0.95593 0.8179,0 4.7289,1.53829 8.6909,3.41841 5.77,2.73804 8.1492,4.60522 11.9538,9.38121 2.6125,3.27954 4.75,6.2502 4.75,6.60146 0,0.35127 1.0352,2.31722 2.3005,4.36879 4.0935,6.63756 6.6393,17.33218 6.6751,28.04196 0.016,4.68723 0.9089,10.43046 2.4885,16 2.9234,10.30812 5.0617,28.81683 3.9298,34.01595 -0.4397,2.01972 -0.8473,7.72222 -0.9058,12.67222 -0.1568,13.28233 -1.0391,16.70828 -5.6524,21.94934 -3.4301,3.89683 -4.5506,4.55066 -7.7982,4.55066 -5.0409,0 -6.0508,-1.46749 -5.3698,-7.80236 0.5398,-5.02165 0.4069,-5.39302 -3.4134,-9.53757 -2.9259,-3.17426 -4.1541,-5.50648 -4.6535,-8.83634 -0.4708,-3.13975 -1.5844,-5.39189 -3.6396,-7.36089 l -2.9612,-2.83697 -0.094,2.43709 c -0.3731,9.70597 0.4824,23.27931 1.7592,27.90998 2.0109,7.29322 1.7367,13.70028 -0.7199,16.82344 -1.1509,1.46311 -1.9456,4.02297 -1.9456,6.2671 0,2.08654 -0.6278,4.42148 -1.3951,5.18876 -0.8561,0.85611 -1.1858,2.48937 -0.8535,4.22775 0.3749,1.96122 0.028,3.20809 -1.1272,4.05286 -1.2571,0.91923 -1.4513,1.80557 -0.7873,3.59368 1.0066,2.71103 0.7744,21.35694 -0.3036,24.37352 -0.3931,1.1 -1.1317,2.9 -1.6415,4 -0.5098,1.1 -0.8571,5.6 -0.7719,10 0.085,4.4 -0.1466,9.72575 -0.5154,11.83501 -0.5859,3.35166 -0.4048,3.90446 1.4368,4.38605 1.6375,0.42822 1.975,1.07795 1.5139,2.91499 -0.3263,1.30017 -0.2369,2.36395 0.1987,2.36395 0.4356,0 0.9181,3.0375 1.0722,6.75 0.3945,9.49841 1.479,12.8841 9.2076,28.74388 5.8305,11.96458 7.706,14.84392 12.8673,19.7539 9.7678,9.29239 10.2302,13.05677 8.8756,72.25222 -0.2392,10.45 -0.053,20.35 0.4137,22 0.4667,1.65 1.0633,5.25 1.3258,8 0.7339,7.68924 2.4167,15.5404 4.3939,20.5 0.9868,2.475 2.3945,7.82408 3.1283,11.88684 1.3182,7.29878 1.3019,7.44781 -1.3673,12.5 -2.1305,4.03261 -2.6758,6.37162 -2.5803,11.06822 0.1022,5.02693 -0.2244,6.23481 -2.0956,7.75 -3.174,2.57011 -11.2413,2.32456 -19.2669,-0.58644 -4.3334,-1.57179 -6.9021,-2.04476 -7.5556,-1.39122 -1.2108,1.21083 -13.1726,-0.0124 -13.1726,-1.34703 0,-0.50778 1.125,-1.43583 2.5,-2.06232 1.375,-0.6265 2.5,-1.75597 2.5,-2.50995 0,-0.75398 0.6701,-1.62802 1.4891,-1.94231 0.8191,-0.31429 1.9709,-2.43767 2.5596,-4.71861 0.5887,-2.28095 1.2844,-4.88921 1.5461,-5.79613 0.2617,-0.90693 1.6367,-2.80987 3.0556,-4.22877 1.5705,-1.57044 2.3425,-3.19837 1.9732,-4.16073 -0.3336,-0.8695 -0.096,-7.1259 0.527,-13.90312 0.9774,-10.62377 0.895,-13.82023 -0.598,-23.19032 -0.9524,-5.97746 -2.3664,-13.08729 -3.1421,-15.79961 -0.7758,-2.71233 -1.4105,-8.6333 -1.4105,-13.15771 0,-6.96276 -0.4101,-9.01667 -2.6701,-13.37276 -1.4686,-2.83059 -3.9327,-6.20891 -5.4758,-7.50737 -1.5432,-1.29846 -5.1113,-5.40696 -7.9293,-9.13 -2.8179,-3.72303 -6.2038,-7.6189 -7.5242,-8.65749 -1.3203,-1.03858 -2.4006,-2.46092 -2.4006,-3.16076 0,-0.69984 -0.9,-2.08692 -2,-3.08241 -1.1,-0.99549 -2,-2.2673 -2,-2.82625 0,-0.55895 -0.6608,-1.74643 -1.4684,-2.63884 -0.8076,-0.89241 -1.5761,-3.0357 -1.7077,-4.76285 -0.1648,-2.16351 -0.9523,-3.46516 -2.5316,-4.18473 -1.2608,-0.57445 -2.2923,-1.56924 -2.2923,-2.21065 0,-0.64141 -0.8955,-2.11356 -1.99,-3.27144 -1.0945,-1.15788 -3.1729,-3.41652 -4.6185,-5.01919 -2.3095,-2.56031 -2.741,-2.71288 -3.5557,-1.25719 -1.4404,2.57396 -3.813,10.91811 -3.825,13.45252 -0.011,2.32562 -2.1447,3.87196 -3.8706,2.80524 -0.91,-0.56236 0.2843,-5.11093 4.4171,-16.82424 l 1.6716,-4.73762 -3.0292,-3.45006 -3.0292,-3.45006 -0.6425,5.18768 c -0.9954,8.03593 -2.7722,15.72056 -3.7786,16.34256 -0.5016,0.30998 -2.1852,-0.6563 -3.7415,-2.14728 -2.4123,-2.31121 -3.1319,-4.35452 -4.8802,-13.85924 -2.1027,-11.43095 -2.6827,-15.78423 -3.7834,-28.39553 -0.5604,-6.42053 -2.3438,-10.58671 -3.8759,-9.05457 -0.7801,0.78015 -2.404,14.80441 -2.4375,21.05174 -0.032,5.88586 -1.4992,7.71644 -2.6168,3.26389 -0.7504,-2.99002 -0.7755,-3.99983 -0.4436,-17.86307 0.2065,-8.62495 -0.052,-11.16062 -1.2594,-12.36832 -1.6764,-1.67633 -3.7111,-0.97444 -3.7111,1.28014 0,0.79454 -0.8846,3.09501 -1.9657,5.11217 -2.3457,4.37654 -2.4222,4.21309 -4.5266,-9.67481 -1.449,-9.56262 -3.3806,-18 -4.1207,-18 -1.2927,0 -5.2275,2.44908 -4.8683,3.03017 0.2507,0.40575 -0.8255,1.2685 -2.3917,1.91724 -2.6355,1.09166 -2.8218,1.52397 -2.5014,5.80388 0.2533,3.38457 1.106,5.44532 3.1802,7.68653 3.5309,3.81514 6.1942,8.05981 6.1942,9.87201 0,0.75911 -0.9159,2.20905 -2.0353,3.22209 -1.1194,1.01304 -1.8085,2.43278 -1.5313,3.15498 0.5724,1.4917 -0.5615,1.74515 -1.9834,0.44334 -0.5225,-0.47837 -2.6109,-1.12076 -4.6408,-1.42753 -4.7233,-0.71379 -4.2422,1.0832 1.2659,4.72826 4.2305,2.79962 4.6639,3.71082 2.5856,5.43564 -1.4963,1.24183 -18.149,1.9784 -19.2749,0.85255 -1.2966,-1.29664 -2.1591,-0.75858 -2.7856,1.73784 -0.3799,1.51352 -1.9983,3.11259 -4.2145,4.16426 l -3.5978,1.70726 0.4078,6.4042 c 0.2416,3.79427 0.9397,6.73295 1.7131,7.21089 0.7823,0.4835 1.0461,1.62319 0.6584,2.84463 -0.7004,2.2067 4.3848,14.09712 6.9336,16.2124 1.451,1.20427 9.6801,17.53072 10.9401,21.7052 0.975,3.23007 -1.4307,10.21891 -3.9944,11.60465 -2.406,1.30043 -12.3997,13.35344 -12.523,15.1034 -0.2697,3.82901 -1.7154,6.06725 -8.4985,13.15796 -1.1413,1.19302 -2.6672,3.59863 -3.3909,5.3458 -0.7237,1.74717 -2.5859,3.83345 -4.1382,4.63619 -1.8789,0.9716 -3.1694,2.7109 -3.8604,5.20284 -0.5709,2.05883 -2.1531,5.54332 -3.5159,7.74332 -1.3629,2.2 -3.1692,5.46453 -4.0141,7.2545 -0.8448,1.78998 -3.1348,5.75362 -5.0887,8.80808 -1.9539,3.05447 -4.8898,8.33995 -6.5241,11.7455 -1.6344,3.40556 -4.0522,8.21692 -5.3731,10.69192 -1.3208,2.475 -2.4281,5.77502 -2.4606,7.33337 -0.059,2.84629 -5.8464,9.66663 -8.2022,9.66663 -0.6869,0 -0.8877,1.09566 -0.5292,2.88818 0.4601,2.30044 -0.087,3.65757 -2.6906,6.66896 -2.8067,3.24693 -3.8162,3.76018 -7.1493,3.63488 -2.1996,-0.0827 -4.5843,0.4904 -5.504,1.32269 -0.8925,0.80773 -3.9914,1.91782 -6.8865,2.46685 -6.1627,1.16875 -21.4398,0.49067 -21.9278,-0.97327 -0.1848,-0.55456 -0.9736,-1.00829 -1.7527,-1.00829 -2.1084,0 -1.7153,-1.6677 0.8333,-3.53588 2.0197,-1.48048 2.0453,-1.5935 0.25,-1.10419 -6.4013,1.74465 -7.1416,1.70985 -9.9073,-0.4657 l -2.8208,-2.21882 2.864,-1.4564 c 4.7057,-2.39289 12.75,-7.86888 14.4836,-9.85947 0.8907,-1.02275 2.0526,-3.20954 2.5818,-4.85954 0.6972,-2.17347 2.5621,-3.90029 6.7687,-6.26774 3.1935,-1.79725 7.3349,-4.60975 9.203,-6.25 1.8681,-1.64024 4.0559,-2.98226 4.8618,-2.98226 0.9307,0 1.4668,-1.00321 1.4695,-2.75 0,-1.65716 1.5928,-4.84522 4.0016,-8.02237 5.137,-6.77562 8.9941,-12.89457 8.9941,-14.26819 0,-0.59417 1.7667,-4.76562 3.9261,-9.26988 4.7558,-9.92028 11.9161,-29.48672 12.6349,-34.52658 0.2873,-2.01464 0.9478,-5.91298 1.4676,-8.66298 0.5198,-2.75 0.9538,-8.15 0.9645,-12 0.011,-3.85 0.035,-7.9 0.054,-9 0.057,-3.31673 -1.2191,-8.5 -2.0931,-8.5 -1.4901,0 -2.1319,4.01842 -2.3673,14.82246 -0.239,10.96955 -1.9907,19.17754 -4.0927,19.17754 -1.5693,0 -1.7082,-5.6523 -0.2403,-9.77483 0.8713,-2.44695 0.8816,-4.02855 0.041,-6.25636 -0.8585,-2.2744 -0.7979,-4.81813 0.2553,-10.72518 1.431,-8.02592 1.7837,-13.03403 0.7215,-10.24363 -0.314,0.825 -0.8867,1.725 -1.2726,2 -0.3859,0.275 -1.7051,3.5375 -2.9316,7.25 -1.2982,3.9296 -2.798,6.75 -3.5894,6.75 -1.626,0 -2.6922,-1.45195 -1.7547,-2.38946 0.3676,-0.36764 0.7765,-1.4429 0.9087,-2.38948 0.5672,-4.06367 2.8953,-10.95688 6.4034,-18.95978 1.9747,-4.50486 2.1235,-5.61823 1.0621,-7.94785 -0.9882,-2.1687 -1.4171,-2.42031 -2.1504,-1.26128 -0.5038,0.79632 -0.9229,2.66418 -0.9313,4.1508 -0.01,1.48662 -0.4224,3.73662 -0.9199,5 -0.4976,1.26338 -1.4838,4.99705 -2.1916,8.29705 -0.7079,3.3 -1.6447,6.24783 -2.082,6.55074 -0.4372,0.3029 -0.9766,1.8779 -1.1986,3.5 -0.513,3.74873 -3.6791,11.44926 -4.7075,11.44926 -0.4295,0 -1.0156,-0.7875 -1.3025,-1.75 -0.8017,-2.69029 -0.073,-41.51717 0.8158,-43.5 0.4562,-1.01703 0.3702,-1.75 -0.2054,-1.75 -0.5447,0 -1.2257,0.9 -1.5133,2 -0.313,1.1966 -1.3641,2 -2.6167,2 -1.9852,0 -2.0936,0.51761 -2.0936,10 0,8.94794 -0.7627,11.81093 -2.4285,9.11561 -0.7622,-1.23323 -0.735,-29.84392 0.032,-34.11561 0.4081,-2.27201 0.2881,-3.14914 -0.3422,-2.5 -1.6498,1.69933 -4.2671,14.67589 -4.2643,21.14301 0,4.4802 -0.3948,6.29549 -1.4654,6.70633 -2.2978,0.88175 -2.6717,-0.70458 -2.5003,-10.6076 0.088,-5.08296 0.083,-9.69174 -0.012,-10.24174 -0.094,-0.55 -0.1877,-3.14194 -0.2073,-5.75987 -0.019,-2.61793 -0.4354,-5.00699 -0.9241,-5.30902 -0.4887,-0.30203 -0.8885,-2.83197 -0.8885,-5.62209 0,-3.41003 -0.6892,-6.1881 -2.1025,-8.47486 l -2.1025,-3.4019 -2.5339,2.53387 c -1.3936,1.39363 -3.035,2.53493 -3.6475,2.53622 -0.6125,0.001 -2.6886,1.35811 -4.6136,3.01515 -1.925,1.65704 -6.2,4.66771 -9.5,6.69038 -5.4685,3.35181 -6.7285,3.70046 -14.2245,3.93601 -4.5235,0.14214 -9.0235,0.67119 -10,1.17565 -0.9765,0.50447 -3.5342,1.23519 -5.6837,1.62383 -2.1495,0.38864 -5.8871,2.21763 -8.3058,4.06442 -2.4187,1.84679 -5.7173,3.64767 -7.3303,4.00195 -3.9327,0.86377 -4.3054,1.70832 -4.6162,10.46291 -0.2747,7.73541 -1.9854,20.64535 -2.9405,22.19075 -1.19,1.92546 -2.401,-0.54837 -2.4341,-4.97242 -0.019,-2.58004 -0.6509,-7.56257 -1.4035,-11.07229 -1.2748,-5.94544 -2.6018,-8.06592 -5.0708,-8.10338 -1.7105,-0.0259 -3.7791,-4.1268 -2.6508,-5.25506 1.4547,-1.4547 0.261,-3.76025 -1.9468,-3.76025 -1.0411,0 -2.7679,-0.8749 -3.8372,-1.94422 -1.0693,-1.06933 -3.6568,-2.26191 -5.75,-2.65018 l -3.8058,-0.70596 3.2944,3.38539 c 1.8563,1.90758 2.7954,3.55171 2.1514,3.76639 -1.8392,0.61306 -5.6339,-1.87145 -6.8139,-4.46128 -1.1994,-2.63358 -4.1314,-3.26522 -4.1314,-0.89014 0,2.01468 -0.6781,1.90861 -6.4195,-1.00419 -2.7057,-1.37269 -5.6307,-2.50396 -6.5,-2.51393 -0.8693,-0.01 -4.0149,-1.35996 -6.9903,-3 -6.4751,-3.56913 -9.5672,-3.91413 -8.8004,-0.98188 0.6955,2.65986 -1.7522,2.62507 -6.2028,-0.0882 -3.006,-1.83256 -3.5163,-1.89603 -4.2795,-0.53224 -0.664,1.18642 -1.4441,1.32888 -3.3366,0.60934 -3.6793,-1.39887 -8.4755,-0.10695 -9.4879,2.55569 -0.4732,1.24483 -1.7177,3.09404 -2.7655,4.10935 -1.0477,1.01532 -2.5721,3.19603 -3.3876,4.84603 -0.8154,1.65 -2.2345,4.49679 -3.1535,6.3262 -1.632,3.24892 -1.5974,3.50262 1.4906,10.92035 2.3504,5.64593 3.1085,8.90211 2.9552,12.69255 -0.1995,4.93167 0.056,5.44989 7.8091,15.84563 4.4085,5.91098 8.4394,11.53933 8.9575,12.50746 0.9314,1.74038 2.741,10.58981 3.4836,17.03604 0.4638,4.02571 -1.547,5.22869 -4.4096,2.63806 -1.0796,-0.97691 -1.9628,-1.28201 -1.9628,-0.67795 0,0.60405 1.0125,1.81149 2.25,2.68318 1.5792,1.11241 1.8936,1.80761 1.0546,2.33196 -0.8834,0.5521 -0.9319,1.78436 -0.186,4.72181 0.5552,2.18611 1.6213,6.44974 2.3692,9.47474 2.718,10.99411 7.4962,21.55602 11.8898,26.28209 5.6989,6.13011 6.1205,10.96411 1.5805,18.12286 l -3.0418,4.79651 2.5825,3.38584 c 1.4204,1.86221 3.4642,3.85772 4.5419,4.43445 2.4986,1.33724 2.489,4.51645 -0.029,9.45464 -1.6622,3.26025 -1.8188,4.52782 -0.9553,7.73452 1.1028,4.09535 0.6544,5.78909 -1.5325,5.78909 -0.7467,0 -1.5217,0.49213 -1.7222,1.09363 -0.515,1.54515 -20.2186,7.90637 -24.4895,7.90637 -3.2673,0 -3.5072,-0.20154 -3.0552,-2.5661 z m 172.3468,-195.16307 c -0.3323,-0.33229 -0.5687,0.25834 -0.5252,1.3125 0.048,1.16495 0.2849,1.4019 0.6041,0.60417 0.2889,-0.72187 0.2534,-1.58438 -0.079,-1.91667 z"
     id="path2987"
     inkscape:connector-curvature="0" />
</svg>
