<?xml version="1.0" encoding="UTF-8" standalone="no"?>
<!-- Created with Inkscape (http://www.inkscape.org/) -->

<svg
   xmlns:dc="http://purl.org/dc/elements/1.1/"
   xmlns:cc="http://creativecommons.org/ns#"
   xmlns:rdf="http://www.w3.org/1999/02/22-rdf-syntax-ns#"
   xmlns:svg="http://www.w3.org/2000/svg"
   xmlns="http://www.w3.org/2000/svg"
   xmlns:sodipodi="http://sodipodi.sourceforge.net/DTD/sodipodi-0.dtd"
   xmlns:inkscape="http://www.inkscape.org/namespaces/inkscape"
   id="svg2"
   version="1.1"
   inkscape:version="0.48.2 r9819"
   width="939.13043"
   height="930.19989"
   sodipodi:docname="M - Pegasus 3b.png">
  <metadata
     id="metadata8">
    <rdf:RDF>
      <cc:Work
         rdf:about="">
        <dc:format>image/svg+xml</dc:format>
        <dc:type
           rdf:resource="http://purl.org/dc/dcmitype/StillImage" />
        <dc:title></dc:title>
      </cc:Work>
    </rdf:RDF>
  </metadata>
  <defs
     id="defs6" />
  <sodipodi:namedview
     pagecolor="#ffffff"
     bordercolor="#666666"
     borderopacity="1"
     objecttolerance="10"
     gridtolerance="10"
     guidetolerance="10"
     inkscape:pageopacity="0"
     inkscape:pageshadow="2"
     inkscape:window-width="1600"
     inkscape:window-height="876"
     id="namedview4"
     showgrid="false"
     fit-margin-top="0"
     fit-margin-left="0"
     fit-margin-right="0"
     fit-margin-bottom="0"
     inkscape:zoom="1"
     inkscape:cx="483.65157"
     inkscape:cy="510.72177"
     inkscape:window-x="0"
     inkscape:window-y="24"
     inkscape:window-maximized="1"
     inkscape:current-layer="svg2" />
  <path
     style="fill:#000000"
     d="m 399.66187,926.76461 c -7.5937,-5.2377 -7.5928,-5.1279 -0.1553,-18.2865 2.7271,-4.8247 3.111,-6.4474 3.1269,-13.2155 0.017,-7.197 0.2179,-7.9199 2.9909,-10.7566 1.635,-1.6727 5.7975,-4.07699 9.25,-5.34301 4.9173,-1.80316 7.6476,-3.69737 12.6026,-8.74337 3.4789,-3.54283 6.978,-7.67902 7.7756,-9.19152 0.7977,-1.5125 1.8255,-2.75 2.2839,-2.75 0.4584,0 2.8784,-1.8 5.3778,-4 2.4993,-2.2 4.8897,-4 5.312,-4 0.4223,0 1.4783,-0.63184 2.3466,-1.40408 0.8683,-0.77225 5.4037,-3.32169 10.0787,-5.66542 8.5063,-4.26451 12.7173,-7.52643 28.8668,-22.36069 7.7146,-7.08643 8.8726,-8.62332 10.8832,-14.44478 2.6141,-7.56891 2.8616,-14.7025 0.756,-21.79277 -1.5284,-5.14687 -2.8478,-6.59746 -17.7466,-19.51083 -5.1104,-4.42937 -17.719,-19.20599 -22.8863,-26.82143 -1.3061,-1.925 -3.7244,-4.9866 -5.3739,-6.80356 -1.6496,-1.81696 -3.683,-4.51696 -4.5188,-6 -0.8357,-1.48304 -3.5707,-5.84644 -6.0777,-9.69644 -4.3993,-6.75609 -6.4036,-10.62456 -10.7509,-20.75 -1.8865,-4.3939 -2.3059,-4.75 -5.5956,-4.75 -3.4734,0 -3.5562,0.0918 -3.5562,3.94098 0,2.16754 0.45,4.2191 1,4.55902 0.55,0.33992 1,2.06302 1,3.82912 0,1.76609 0.9,6.45884 2,10.42832 1.1,3.96948 2,8.29259 2,9.60691 0,1.31432 1.3293,6.70808 2.954,11.98614 2.8533,9.26959 2.9031,9.76777 1.4604,14.62588 -2.4345,8.19767 -5.4542,9.17851 -21.9144,7.11817 -4.95,-0.6196 -16.8102,-1.78319 -26.356,-2.58577 -9.5459,-0.80257 -19.8959,-1.88952 -23,-2.41543 -3.1042,-0.52591 -10.8523,-0.87456 -17.218,-0.77477 -10.6585,0.16708 -11.8875,0.38899 -15.5382,2.80546 -2.1803,1.44321 -5.40951,2.94146 -7.176,3.32945 -3.60123,0.79096 -3.99898,2.01921 -1.53543,4.74141 1.16996,1.29278 1.35943,2.16931 0.6272,2.90154 -1.98447,1.98447 -16.30357,-3.03082 -16.30357,-5.71037 0,-0.76233 -0.45,-1.38606 -1,-1.38606 -1.38853,0 -1.25112,1.28989 0.49384,4.63569 1.89854,3.6403 1.90034,5.79228 0.006,7.36431 -0.92928,0.77124 -1.5,2.96806 -1.5,5.77384 0,4.14135 -0.44931,4.97071 -5.25,9.69082 -4.50715,4.43165 -18.16598,13.53534 -20.30776,13.53534 -0.38993,0 -3.79946,1.575 -7.57673,3.5 -9.00735,4.5904 -15.64442,4.86762 -18.85383,0.78751 -1.17351,-1.49187 -1.908,-3.40437 -1.6322,-4.25 0.2758,-0.84563 1.66819,-4.68751 3.0942,-8.53751 2.36744,-6.39168 2.56815,-8.10421 2.30962,-19.70623 -0.32634,-14.64506 -1.12139,-13.25938 11.16381,-19.45736 9.16285,-4.62273 15.23891,-10.40975 21.87713,-20.83641 9.10738,-14.30499 14.45185,-16.61182 33.89862,-14.63169 6.47751,0.65957 14.5292,1.63402 17.8926,2.16545 7.8784,1.24482 18.7059,1.23286 25.3544,-0.028 5.3373,-1.0122 10.961,-4.73597 12.742,-8.43713 1.0114,-2.10187 -0.8547,-8.90655 -3.1726,-11.56862 -3.1333,-3.59858 -5.5212,-10.37408 -6.9044,-19.59078 -2.1867,-14.57109 -3.6347,-26.58674 -3.6347,-30.161 0,-5.09776 5.1197,-11.57842 12.2642,-15.52433 6.6842,-3.69173 13.7239,-7.63601 15.0509,-8.43293 1.177,-0.70679 -1.6559,-3.52109 -5.5023,-5.46626 -1.8221,-0.9214 -7.3628,-3.46025 -12.3128,-5.64187 -4.95,-2.18163 -11.925,-5.29876 -15.5,-6.92696 -3.575,-1.6282 -9.65,-4.20737 -13.5,-5.73148 -8.6907,-3.4404 -22.89617,-10.61483 -29.38174,-14.83912 -2.6897,-1.7519 -7.49621,-4.76028 -10.68114,-6.68528 -6.76239,-4.08725 -20.26718,-15.23516 -22.44247,-18.52575 -0.82794,-1.25244 -3.52794,-4.24764 -6,-6.65599 -2.47206,-2.40836 -5.84465,-6.30754 -7.49465,-8.66485 -1.65,-2.35731 -4.45459,-6.16868 -6.23242,-8.46971 -1.77783,-2.30104 -4.10804,-5.78997 -5.17823,-7.75319 -1.85181,-3.39704 -4.1633,-6.48909 -12.78948,-17.10833 -3.32996,-4.09933 -4.29453,-4.68978 -7.79987,-4.77459 -2.2,-0.0532 -6.65735,-0.9857 -9.90523,-2.07218 -4.49032,-1.5021 -8.61166,-1.97541 -17.20077,-1.97541 -6.21256,0 -13.45521,-0.41388 -16.09478,-0.91973 -2.63957,-0.50584 -7.72422,-1.48029 -11.29922,-2.16542 -9.73424,-1.86554 -23.48536,-7.41451 -27.86942,-11.24613 -0.89682,-0.78381 -3.85277,-2.59202 -6.56878,-4.01825 -4.48907,-2.3573 -5.62595,-2.53577 -12.5,-1.96227 -5.94602,0.49608 -7.86259,1.05495 -8.96947,2.61549 -0.77421,1.09153 -3.35502,4.17722 -5.73512,6.85708 -2.3801,2.67987 -4.53511,5.8775 -4.78892,7.10586 -0.2538,1.22835 -1.24059,9.98992 -2.19287,19.47015 l -1.7314,17.23677 3.01568,3.76323 c 4.38709,5.47458 5.0183,7.04512 5.78293,14.38853 0.66419,6.37881 0.58935,6.70437 -2.01125,8.75 -1.4856,1.16858 -3.99041,2.12469 -5.56624,2.12469 -1.57583,0 -2.86514,0.36 -2.86514,0.8 0,3.16995 7.46784,4.2451 13.73784,1.97784 4.65469,-1.68316 8.16001,0.356 9.83639,5.72216 0.68727,2.2 1.73923,5.60695 2.33768,7.571 1.82115,5.97684 1.3714,18.45333 -0.82005,22.74893 -1.04947,2.05715 -2.63904,6.20172 -3.53237,9.21017 -2.44801,8.24412 -5.3285,10.9699 -11.59254,10.9699 -3.48,0 -6.37296,-2.55309 -11.43962,-10.09569 -1.62721,-2.42237 -4.82781,-6.45976 -7.11246,-8.97197 -3.576875,-3.93316 -4.167005,-5.21991 -4.248155,-9.26304 -0.15063,-7.50423 -2.06568,-12.30499 -6.34695,-15.91089 -2.29372,-1.93189 -5.12924,-5.9046 -6.96506,-9.75841 l -3.09637,-6.5 1.79903,-16 c 2.64319,-23.5078 3.2881,-47.04376 1.58651,-57.90006 -1.73175,-11.04869 -0.59346,-17.26117 4.55484,-24.85905 1.95316,-2.88249 4.57005,-8.02632 5.81532,-11.43074 2.80991,-7.68202 5.709045,-11.83431 9.814805,-14.0573 6.49809,-3.51828 31.07298,-1.76875 39.90759,2.84109 1.96263,1.02409 4.76357,1.20833 4.76357,0.31334 0,-0.32599 -2.51747,-3.36349 -5.59439,-6.75 -8.5419,-9.40137 -12.47455,-18.59102 -15.90122,-37.15728 -2.10882,-11.42591 -4.17617,-15.90919 -7.50439,-16.2741 -1.375,-0.15076 -5.58034,-1.03611 -9.3452,-1.96746 -6.81465,-1.6858 -6.86318,-1.68301 -10.87431,0.62551 -2.216015,1.27537 -5.660675,4.11963 -7.654805,6.32058 -1.99413,2.20095 -7.17134,6.76782 -11.50492,10.1486 -4.33358,3.38078 -8.60263,6.72439 -9.48679,7.43025 -1.12365,0.89707 -1.78206,3.65833 -2.18728,9.17309 -0.53316,7.25583 -0.88401,8.26104 -4.367,12.51157 -4.93364,6.02086 -8.2592,8.25246 -9.88105,6.63061 -0.65926,-0.65926 -1.19865,-1.73249 -1.19865,-2.38495 0,-1.93441 -2.82119,-1.83707 -5.43471,0.1875 -2.25986,1.75061 -2.32795,2.05528 -0.94808,4.24243 2.43496,3.85954 4.18929,10.49906 3.49988,13.24585 -1.22333,4.87414 -8.7537,12.08556 -18.11709,17.34974 -26.4437398,14.86689 -40.6044798,11.55695 -31.2808498,-7.3116 1.88275,-3.81019 3.98817,-10.07762 4.67871,-13.92762 1.74284,-9.71702 4.8891598,-17.5 7.0744798,-17.5 2.75395,0 10.57669,-6.52989 12.38306,-10.33653 0.90453,-1.90615 1.6446,-4.86916 1.6446,-6.58447 0,-6.20448 9.06459,-17.49835 17.5,-21.80382 10.56336,-5.39159 34.03229,-26.09094 42.5,-37.48456 4.42709,-5.95682 11.16745,-9.39563 22.172515,-11.31202 4.58012,-0.79757 10.2201,-1.84247 12.53329,-2.322 2.31319,-0.47954 6.54703,-0.50179 9.40854,-0.0494 6.48914,1.02579 9.83811,4.05712 13.77371,12.46731 3.85229,8.23214 13.03248,20.30907 18.34796,24.1375 5.22187,3.76101 10.54297,8.74344 13.43151,12.57663 2.15279,2.85682 8.08241,7.7114 9.41908,7.7114 0.87076,0 14.20266,-15.7764 15.63349,-18.5 0.57788,-1.1 1.59739,-4.7 2.26558,-8 2.53916,-12.54023 8.1019,-19.99059 19.78599,-26.5 5.47001,-3.04744 7.80948,-8.29958 9.28898,-20.85392 1.51208,-12.83075 7.94436,-28.54696 20.93291,-51.14608 3.31035,-5.75975 8.29267,-11.49638 21.47245,-24.72329 10.8904,-10.92935 18.53989,-17.79905 20.93273,-18.79884 4.16882,-1.74189 12.60127,-9.83959 12.60127,-12.10107 0,-0.79179 -0.7875,-1.72525 -1.75,-2.07437 -2.04934,-0.74333 -9.05792,-5.98603 -11.31555,-8.46447 -1.47237,-1.61638 -1.7349,-1.57315 -4.41119,0.72653 -3.95545,3.39882 -9.13136,4.60163 -22.88336,5.31782 l -11.8601,0.61765 -2.8899,3.46223 c -1.58944,1.90422 -2.8899,4.19698 -2.8899,5.09501 0,2.24531 -2.7225,4.34296 -7.64526,5.89057 -3.55928,1.11895 -4.59092,1.08085 -7.29784,-0.26954 -2.15036,-1.07274 -4.64741,-1.401 -7.85474,-1.0326 -3.86484,0.44394 -5.32541,0.11582 -8.20216,-1.84261 -3.0092,-2.0486 -3.5,-2.93778 -3.5,-6.34095 0,-3.54803 0.38739,-4.16569 3.73818,-5.96017 2.056,-1.10107 3.98325,-2.63969 4.28278,-3.41916 1.02876,-2.67713 -1.12762,-3.30043 -7.81584,-2.25917 -6.51398,1.01413 -14.70512,0.5575 -14.70512,-0.81977 0,-0.40305 -1.34863,-2.2563 -2.99694,-4.11833 -4.66039,-5.26462 -6.3636,-13.80535 -3.85227,-19.31711 0.99162,-2.17638 0.78415,-3.05478 -1.5,-6.35081 -3.21185,-4.6347 -3.27574,-6.40653 -0.4932,-13.67776 2.41025,-6.29837 3.30542,-6.99706 10.09998,-7.88318 5.01465,-0.65399 8.30524,-2.30924 13.24243,-6.66129 3.50617,-3.09062 13.47805,-8.98531 18.5,-10.93592 3.69736,-1.43611 8.52755,-3.43977 13.5,-5.60006 8.16213,-3.54605 14.62363,-5.87449 20.82648,-7.50493 5.18953,-1.36409 8.56877,-3.12885 14.09232,-7.35955 8.18885,-6.27216 12.01179,-8.11184 19.72664,-9.4929 8.834,-1.5814 12.95867,-2.84038 21.35456,-6.51812 6.9671,-3.05187 7.9591,-3.79995 7.6831,-5.7941 -1.5113,-10.91797 -1.4473,-11.54631 1.6249,-15.97562 4.2277,-6.09522 7.9912,-9.29149 13.2345,-11.23962 4.1697,-1.54925 5.1438,-1.56238 11.8696,-0.16 8.8046,1.83581 10.2667,1.27834 13.1295,-5.00592 1.6408,-3.60163 2.5101,-4.46945 4.2285,-4.22116 4.7063,0.67999 4.4633,13.27929 -0.3053,15.83141 -2.5124,1.34459 -2.5323,2.98113 -0.036,2.98113 2.6466,0 5.0714,-2.65153 5.0714,-5.54575 0,-1.64948 0.9251,-2.88126 2.9503,-3.92857 1.6227,-0.83912 3.3787,-1.52568 3.9022,-1.52568 1.2371,0 3.1475,5.51638 3.1475,9.08855 0,2.64551 0.2203,2.78029 4.25,2.60078 4.5809,-0.20407 4.9429,0.47807 3.3489,6.31067 -0.5505,2.01442 0.065,3.32549 3.1689,6.75 2.1187,2.3375 4.3484,4.25 4.9549,4.25 0.6065,0 3.464,-1.55505 6.3499,-3.45566 12.8136,-8.43873 16.6371,-4.17758 7.2666,8.09838 -3.6336,4.76021 -3.008,6.09018 2.0109,4.27531 2.9701,-1.07399 3.9868,-0.91043 9.2129,1.48216 6.2288,2.85164 7.5677,4.09554 6.7375,6.25913 -0.6495,1.69261 -6.6629,1.75584 -9.3175,0.098 -2.6311,-1.64313 -5.483,0.0984 -5.483,3.34816 0,2.12903 0.3872,2.35412 3.5764,2.07935 5.0603,-0.43597 7.0224,2.01672 4.1009,5.12645 -1.9451,2.07051 -1.9987,2.47908 -0.6629,5.05388 0.7993,1.54069 1.9146,4.5145 2.4785,6.60846 0.8634,3.20654 1.5419,3.90417 4.3006,4.42169 4.3668,0.81922 7.7065,3.27267 7.7065,5.66142 0,1.47418 -0.6947,1.9433 -2.8776,1.9433 -6.1435,0 -6.4034,3.9019 -1.1991,18 2.5577,6.92847 3.0313,9.43189 2.5615,13.54034 -0.5826,5.0954 -2.54,11.84822 -3.7995,13.10766 -0.3769,0.37693 -0.6853,1.71068 -0.6853,2.96388 0,2.00881 0.5623,2.31462 4.75,2.58333 4.0524,0.26003 4.7969,0.63499 5.0693,2.55318 0.3471,2.44362 -2.7931,4.25161 -7.3844,4.25161 -2.9646,0 -3.1192,1.83841 -0.8198,9.74796 1.88,6.46699 1.2608,14.09262 -1.2985,15.99171 -0.9188,0.68181 -1.3584,1.55181 -0.9769,1.93333 0.3815,0.38152 1.2261,0.16117 1.877,-0.48967 0.6508,-0.65086 1.9309,-1.18336 2.8446,-1.18336 1.3735,0 1.7939,1.60252 2.4269,9.25 1.1892,14.36845 1.1297,18.75006 -0.2661,19.61273 -1.5322,0.94695 -5.2221,13.44501 -5.2221,17.68774 0,4.89546 -4.581,12.74542 -11.0244,18.89141 -9.8597,9.40457 -12.2592,15.25341 -14.9976,36.55812 -0.9809,7.63097 0.5229,14.88671 5.1747,24.96797 1.6415,3.55738 3.2349,7.71988 3.5409,9.25 0.6333,3.16661 1.4901,3.47052 3.3764,1.19764 0.7233,-0.87142 3.257,-2.92052 5.6305,-4.55356 5.9159,-4.07026 15.7638,-17.38871 20.232,-27.36205 2.3883,-5.33101 7.0844,-18.17087 7.1319,-19.5 0.03,-0.825 1.0396,-3.35054 2.2446,-5.61231 12.8775,-24.17022 13.6993,-26.83172 10.3083,-33.38769 -5.6709,-10.96388 -7.396,-21.46194 -5.6869,-34.60675 1.2525,-9.63297 2.8358,-14.60665 7.6061,-23.89325 6.8386,-13.31295 9.2486,-16.52156 21.8445,-29.08302 10.294,-10.26572 14.6264,-13.85279 20.119,-16.65767 3.85,-1.96606 9.925,-5.19998 13.5,-7.18649 9.4231,-5.23609 17.5342,-9.08253 25.5,-12.09255 3.85,-1.45479 7.9,-3.44197 9,-4.41596 2.4088,-2.13301 15.2953,-11.06431 15.9639,-11.06431 0.69,0 12.6872,-8.23729 14.5644,-10 0.8786,-0.825 3.9605,-3.3 6.8486,-5.5 2.8881,-2.2 7.3847,-5.8 9.9923,-8 2.6077,-2.2 6.2698,-5.125 8.138,-6.5 1.8682,-1.375 5.6685,-4.3 8.4451,-6.5 8.2102,-6.50536 12.5648,-9.81901 17.0837,-13 2.344,-1.65 6.1553,-4.575 8.4695,-6.5 2.3142,-1.925 6.2972,-5.2161 8.851,-7.31354 11.0914,-9.10938 30.5886,-27.68354 36.4102,-34.68646 2.0574,-2.475 4.3291,-5.175 5.048,-6 0.7189,-0.825 4.1814,-5.1 7.6943,-9.5 11.6098,-14.5413097 13.5207,-16.1693597 21.183,-18.04710966 11.8607,-2.90660004 15.8774,0.87735996 13.7765,12.97830966 -0.926,5.3334 -6.4064,20.37629 -8.951,24.5688 -0.5007,0.825 -2.1147,3.73464 -3.5865,6.46587 -1.4719,2.73123 -4.4211,7.03519 -6.5537,9.56436 -3.633,4.30851 -5.0076,7.96977 -2.9922,7.96977 1.6884,0 19.6791,-16.84707 32.5021,-30.43588 7.088,-7.51138 14.963,-15.06894 17.5,-16.79459 2.5369,-1.72564 4.8944,-3.55374 5.2389,-4.06243 0.8348,-1.2326997 9.1023,-2.1175197 12.296,-1.3159597 5.0995,1.2798897 6.9883,10.1205697 4.3467,20.3445097 -0.9876,3.82233 -10.4692,24.77676 -13.5566,29.96036 -4.8869,8.2046 -12.1586,16.94746 -21.1393,25.41578 -6.0124,5.66942 -10.6938,10.6929 -10.4031,11.16327 0.2907,0.47037 1.2714,0.18478 2.1793,-0.63464 3.331,-3.00645 13.4474,-7.64042 16.6797,-7.64042 3.5266,0 7.5031,3.68061 7.4383,6.88486 -0.091,4.48431 -7.0298,19.11514 -9.0661,19.11514 -0.4956,0 -0.9012,0.4188 -0.9012,0.93066 0,1.71847 -4.4651,8.30268 -8.4097,12.4009 -2.1503,2.23408 -3.3984,4.2324 -2.7735,4.4407 0.6249,0.20831 4.5765,-1.45524 8.7812,-3.69676 4.2048,-2.24153 8.0653,-4.0755 8.5788,-4.0755 0.5136,0 6.6464,-2.75806 13.6285,-6.12902 6.9821,-3.37097 15.7181,-7.19399 19.4133,-8.4956 8.2853,-2.91842 25.6605,-11.58136 31.7526,-15.83124 2.4909,-1.73761 11.0884,-6.38235 19.1057,-10.32163 8.0173,-3.93929 15.8721,-8.18838 17.4551,-9.44242 1.583,-1.25405 5.1483,-3.42736 7.9231,-4.82958 2.7747,-1.40222 10.2782,-5.78972 16.6744,-9.75 7.2433,-4.48477 12.7121,-7.20973 14.5,-7.22496 1.5788,-0.0135 4.7918,-0.46769 7.1401,-1.00945 4.9728,-1.1472 12.2516,0.29275 14.5942,2.88711 1.3164,1.45796 1.3093,2.44945 -0.062,8.64679 -1.967,8.88816 -3.0691,11.87822 -5.9345,16.10068 l -2.3068,3.39932 2.859,0 c 6.8025,0 9.6709,6.74047 5.8556,13.75997 -2.6177,4.81611 -13.5114,16.22723 -19.7996,20.74003 -2.2991,1.65 -7.1485,5.62737 -10.7764,8.8386 -8.6227,7.63246 -12.8499,10.48158 -24.7918,16.70985 -5.4438,2.83919 -11.5636,6.57728 -13.5997,8.30686 -7.1164,6.04544 -22.3111,15.64469 -24.764,15.64469 -2.251,0 -15.0776,6.82286 -18.5375,9.86065 -4.3064,3.78108 -2.9989,3.92997 4.9941,0.56871 3.3,-1.38775 8.7,-3.57079 12,-4.85121 12.9756,-5.03461 28.401,-11.94051 36.5,-16.34089 17.6675,-9.59932 28.3851,-14.23726 32.8999,-14.23726 1.0066,0 3.0159,0.93266 4.465,2.07258 2.255,1.77374 2.6349,2.83755 2.6349,7.37788 0,8.70413 -3.1667,14.29298 -16.7314,29.52871 -10.8762,12.21596 -19.5446,19.02958 -31.2686,24.57784 -7.5936,3.59359 -8.592,4.11001 -21.9986,11.3779 -4.1242,2.2358 -7.9977,4.06509 -8.6078,4.06509 -0.6101,0 -4.0168,1.4625 -7.5705,3.25 -11.6126,5.84115 -25.3943,10.75 -30.1809,10.75 -0.9032,0 -1.6422,0.39893 -1.6422,0.8865 0,1.96527 7.044,1.79296 16.5,-0.40362 5.5,-1.27763 12.25,-2.59362 15,-2.92442 2.75,-0.3308 7.25,-1.06676 10,-1.63546 9.886,-2.04445 11.7847,-2.14917 15.6768,-0.86466 4.5522,1.50239 8.8232,6.05072 8.8232,9.39626 0,4.43504 -2.9593,9.3068 -8.7043,14.3294 -14.4924,12.67006 -17.7849,14.6924 -30.2957,18.60827 -12.1829,3.81322 -28.5263,7.72537 -35.5,8.49766 -3.3,0.36546 -6.9,1.18447 -8,1.82002 -1.8478,1.06759 -1.8664,1.20703 -0.2447,1.83183 1.7388,0.6699 12.2207,0.0931 20.5804,-1.13254 5.4875,-0.80452 11.7048,1.80143 13.7545,5.76509 1.3357,2.58299 1.2532,3.20114 -1.0271,7.70112 -3.8664,7.62992 -16.2459,15.50566 -30.0631,19.12584 -2.75,0.72052 -6.35,2.01998 -8,2.8877 -1.65,0.86772 -4.575,2.12966 -6.5,2.80431 -3.1162,1.09214 -2.5953,1.16479 4.75,0.66259 7.2003,-0.49228 8.25,-0.35596 8.25,1.07141 0,1.89906 0.1752,1.83525 -11.25,4.09616 -4.8125,0.95233 -8.75,2.10048 -8.75,2.55144 0,0.45097 7.0875,0.7311 15.75,0.62252 14.6272,-0.18335 16.0501,-0.037 19.9602,2.05258 2.3156,1.2375 4.8673,2.25 5.6705,2.25 0.8032,0 1.7354,1.25223 2.0716,2.78274 1.1666,5.31172 -4.4733,12.89378 -13.2863,17.86156 -2.5663,1.44659 -7.2857,4.14341 -10.4877,5.99293 -3.2019,1.84952 -6.6628,3.36277 -7.6909,3.36277 -1.0282,0 -2.1475,0.45 -2.4874,1 -0.3399,0.55 -1.9149,1 -3.5,1 -2.8874,0 -4.8014,1.53394 -3.5145,2.81653 0.3772,0.37591 6.3848,0.69733 13.3502,0.71427 12.2746,0.0299 12.8105,0.12194 17.4143,2.99271 3.8286,2.38738 4.75,3.50451 4.75,5.75905 0,7.07447 -9.9683,17.96717 -19.3278,21.12016 -2.6553,0.8945 -6.0359,2.25114 -7.5126,3.01476 -4.5488,2.35225 -21.984,5.52514 -36.1596,6.58037 -7.425,0.55272 -17.325,1.4346 -22,1.95973 -18.2106,2.04558 -58.8983,0.77275 -64.0883,-2.00486 -2.3354,-1.24986 -5.9117,-1.22126 -5.9117,0.0473 0,0.55 0.6613,1 1.4696,1 0.8083,0 3.1707,0.96821 5.25,2.15157 2.0792,1.18337 6.3578,3.56382 9.508,5.2899 6.0464,3.31305 16.7724,12.02061 16.7724,13.61616 0,1.87454 -2.7219,0.80357 -15.5,-6.09863 -13.4418,-7.26072 -17.5,-8.91767 -17.5,-7.14521 0,0.56683 1.9993,2.75311 4.4428,4.8584 4.7885,4.12567 13.5572,16.46975 13.5572,19.08507 0,0.88041 0.5324,3.07296 1.183,4.87234 1.8228,5.04084 -0.033,7.98004 -6.9378,10.98902 -3.1598,1.37699 -6.4426,2.87368 -7.2951,3.326 -0.8524,0.45231 -4.0024,1.36125 -7,2.01986 -5.2504,1.1536 -13.7621,0.30272 -25.2001,-2.51918 -4.1436,-1.02228 -3.4783,1.09133 2.25,7.14822 4.4898,4.74733 6.3298,8.40648 4.2272,8.40648 -0.425,0 -3.1643,-1.575 -6.0873,-3.5 -2.9229,-1.925 -5.5002,-3.5 -5.7272,-3.5 -0.9801,0 -0.1789,2.84811 2.11,7.5 4.0682,8.26804 2.0093,16.95146 -5.7321,24.17542 -1.8098,1.68882 -4.4966,4.48808 -5.9706,6.22059 -2.4696,2.90282 -3.019,3.09848 -7,2.49325 -2.376,-0.36122 -6.345,-1.31876 -8.82,-2.12787 -8.3382,-2.72587 -28.6584,-13.15897 -33.5986,-17.25074 -6.276,-5.19805 -6.709,-3.77164 -2.356,7.76175 2.2837,6.05064 2.9504,9.01065 2.272,10.08623 -1.706,2.70448 -3.1319,2.33459 -4.8349,-1.25418 -0.9167,-1.93185 -2.3003,-4.03826 -3.0746,-4.6809 -0.7743,-0.64264 -1.4201,-1.67584 -1.435,-2.29599 -0.024,-1.01005 -6.5045,-8.62756 -7.3396,-8.62756 -0.5839,0 0.6117,10.47282 1.2558,11 0.336,0.275 1.0859,1.36188 1.6665,2.4153 0.5805,1.05341 5.0805,4.36624 10,7.36185 4.9194,2.9956 10.7493,7.08371 12.9553,9.0847 2.206,2.00098 5.7552,4.98815 7.8871,6.63815 4.8798,3.77681 28.2579,31.62933 29.7401,35.43222 0.351,0.90047 1.3932,2.26382 2.316,3.02967 0.9228,0.76584 2.3551,2.70216 3.1828,4.30291 0.9244,1.78761 3.2451,3.68016 6.0152,4.90552 7.182,3.17692 16.2442,1.34858 35.0788,-7.0773 4.823,-2.15764 12.3691,-5.13425 16.7691,-6.61469 7.4749,-2.51504 8.8205,-2.65707 20.5,-2.16377 13.5836,0.57372 22.7414,2.972 30.8186,8.07093 2.2779,1.43798 4.3706,2.61451 4.6504,2.61451 0.2797,0 3.2135,2.05704 6.5194,4.57121 7.136,5.42699 10.1988,10.31629 14.5827,23.27921 1.7948,5.30727 5.1038,13.76779 7.3533,18.80117 6.2108,13.89692 7.2863,23.04592 5.0369,42.84841 -0.9964,8.7713 -5.4671,27.99825 -6.9757,30 -0.4145,0.55 -1.9569,4.375 -3.4277,8.5 -1.4707,4.125 -4.0742,9.975 -5.7856,13 -1.7115,3.025 -3.6078,6.4 -4.2141,7.5 -2.2845,4.14436 -9.1621,13.99972 -11.8235,16.94241 -21.1748,23.41343 -21.5129,23.72596 -37.07,34.26774 -5.0406,3.41559 -9.6147,6.57777 -10.1647,7.02708 -0.55,0.44931 -2.3996,1.80306 -4.1101,3.00833 -6.6666,4.69736 -13.1641,11.87345 -15.17,16.75444 -1.1301,2.75 -3.0189,8.825 -4.1973,13.5 -2.2561,8.95008 -7.6864,20.86134 -11.3487,24.89319 -1.1957,1.31625 -7.1761,4.81477 -13.2898,7.77448 -10.8795,5.26686 -18.2397,7.37759 -32.3841,9.287 -3.575,0.48261 -11.0755,2.37774 -16.6679,4.2114 -11.2257,3.68081 -17.3321,8.00961 -17.3321,12.28675 0,2.22736 2.2498,5.50983 3.8214,5.57556 0.3732,0.0156 2.6477,1.78083 5.0544,3.92271 l 4.3758,3.89431 -0.4294,5.9354 c -0.3483,4.816 -1.0418,6.7086 -3.6772,10.0361 -3.5224,4.4474 -12.363,10.2903 -19.2422,12.7174 -2.3746,0.8378 -6.3616,2.8043 -8.8601,4.3699 -5.3075,3.3258 -10.4091,4.5052 -13.1479,3.0395 -3.5085,-1.8777 0.014,-5.1798 13.1052,-12.2851 2.475,-1.3433 5.3263,-3.3568 6.3362,-4.4745 1.7877,-1.9784 1.7745,-2.1157 -0.5,-5.2058 -1.2849,-1.7456 -4.161,-4.2461 -6.3912,-5.5568 -4.8583,-2.8551 -7.9937,-8.1175 -8.9013,-14.94002 -0.5393,-4.05369 -0.1544,-6.45686 2.0024,-12.5 1.4686,-4.11481 3.634,-8.54716 4.8121,-9.84965 2.1025,-2.32466 14.7599,-11.13183 15.9984,-11.13183 1.6701,0 20.4465,-9.45243 24.3621,-12.26443 7.2004,-5.17098 9.0399,-12.92909 4.121,-17.38066 -1.1258,-1.01886 -3.2179,-3.85053 -4.6491,-6.29259 -6.4245,-10.96268 -1.103,-37.23146 10.4796,-51.73062 1.8314,-2.29256 3.3298,-4.65506 3.3298,-5.25 0,-0.59493 0.4846,-1.0817 1.0768,-1.0817 0.5922,0 3.9193,-2.8125 7.3934,-6.25 3.4742,-3.4375 9.7584,-9.175 13.9649,-12.75 13.3249,-11.32445 33.2891,-32.54684 39.3763,-41.8579 2.0287,-3.10316 4.7011,-6.46226 5.9386,-7.46468 2.7789,-2.25101 3.0273,-4.16379 0.355,-2.73362 -2.8158,1.50695 -4.9813,-1.29287 -2.8715,-3.71256 0.8302,-0.95218 2.0684,-2.80958 2.7515,-4.12755 1.1486,-2.2162 1.0785,-2.35357 -0.9327,-1.82762 -1.3771,0.36012 -2.3748,0.047 -2.7205,-0.85369 -0.3002,-0.78231 -1.1823,-1.42238 -1.9602,-1.42238 -0.778,0 -1.9291,-1.12945 -2.5581,-2.50989 -0.9849,-2.16182 -0.8137,-2.86099 1.2349,-5.04158 2.87,-3.05505 4.8476,-10.03277 4.9075,-17.31592 l 0.044,-5.36738 -7.8148,-7.76249 c -5.4958,-5.45898 -8.8342,-7.98151 -11.25,-8.50059 -1.8894,-0.40596 -8.105,-2.26002 -13.8124,-4.12013 -9.7324,-3.17186 -15.1228,-4.16488 -15.1228,-2.78593 0,0.32785 0.718,3.0658 1.5955,6.08433 1.8601,6.39878 1.4344,9.71895 -2.5731,20.06755 -2.6749,6.90728 -11.5361,21.25203 -13.1281,21.25203 -0.6972,0 -6.8943,8.56688 -6.8943,9.53071 0,0.23675 -1.5265,2.80169 -3.3922,5.69987 -6.5313,10.1459 -29.9342,29.18929 -44.7201,36.38963 -15.049,7.32849 -16.0569,12.13726 -6.5615,31.30534 5.6114,11.32763 16.4573,27.66016 21.6316,32.57445 5.8483,5.55435 8.3831,10.7835 7.7877,16.06548 -0.5177,4.5935 -4.2586,10.30082 -8.0988,12.35601 -1.3133,0.70285 -4.1335,3.58635 -6.2672,6.40779 -9.3755,12.39738 -17.9338,19.36538 -26.7164,21.75198 -2.9727,0.80778 -7.0285,4.23866 -18.0053,15.23069 -7.7925,7.80343 -16.1211,15.76366 -18.5078,17.6894 -3.8116,3.07531 -4.4077,4.1053 -4.8991,8.46461 -0.5591,4.96056 -3.0568,8.42654 -6.126,8.50074 -0.7564,0.018 -3.4163,2.2833 -5.911,5.0333 -5.4062,5.9595 -7.6284,6.2956 -9.9153,1.5 -2.2928,-4.8081 -3.7134,-4.444 -2.9268,0.75 0.354,2.3375 0.7527,5.1309 0.8859,6.2075 0.1586,1.2814 -0.7074,2.4227 -2.5077,3.3045 -2.0827,1.0202 -2.75,2.0697 -2.75,4.3247 0,12.7095 -19.5014,24.7366 -44.5,27.4446 -4.5767,0.4958 -5.4647,0.2211 -10.4897,-3.2448 z m 74.7897,-50.8365 c 0,-3.65946 -1.3144,-4.167 -3.1706,-1.2243 -0.7166,1.13609 -0.6284,2.07053 0.301,3.19048 2.0431,2.46173 2.8696,1.89542 2.8696,-1.96618 z m 2.2,-5.45 c 0,-0.55 -0.4766,-1 -1.059,-1 -0.5825,0 -0.7809,0.45 -0.441,1 0.3399,0.55 0.8165,1 1.059,1 0.2426,0 0.441,-0.45 0.441,-1 z"
     id="path2987"
     inkscape:connector-curvature="0" />
</svg>
