<?xml version="1.0" encoding="UTF-8" standalone="no"?>
<!-- Created with Inkscape (http://www.inkscape.org/) -->

<svg
   xmlns:dc="http://purl.org/dc/elements/1.1/"
   xmlns:cc="http://creativecommons.org/ns#"
   xmlns:rdf="http://www.w3.org/1999/02/22-rdf-syntax-ns#"
   xmlns:svg="http://www.w3.org/2000/svg"
   xmlns="http://www.w3.org/2000/svg"
   xmlns:sodipodi="http://sodipodi.sourceforge.net/DTD/sodipodi-0.dtd"
   xmlns:inkscape="http://www.inkscape.org/namespaces/inkscape"
   id="svg2"
   version="1.1"
   inkscape:version="0.48.2 r9819"
   width="678.13721"
   height="895.35223"
   sodipodi:docname="irishfairytales01step_0013h.png">
  <metadata
     id="metadata8">
    <rdf:RDF>
      <cc:Work
         rdf:about="">
        <dc:format>image/svg+xml</dc:format>
        <dc:type
           rdf:resource="http://purl.org/dc/dcmitype/StillImage" />
        <dc:title></dc:title>
      </cc:Work>
    </rdf:RDF>
  </metadata>
  <defs
     id="defs6" />
  <sodipodi:namedview
     pagecolor="#ffffff"
     bordercolor="#666666"
     borderopacity="1"
     objecttolerance="10"
     gridtolerance="10"
     guidetolerance="10"
     inkscape:pageopacity="0"
     inkscape:pageshadow="2"
     inkscape:window-width="1600"
     inkscape:window-height="876"
     id="namedview4"
     showgrid="false"
     fit-margin-top="0"
     fit-margin-left="0"
     fit-margin-right="0"
     fit-margin-bottom="0"
     inkscape:zoom="0.67698661"
     inkscape:cx="-324.04329"
     inkscape:cy="465.18293"
     inkscape:window-x="0"
     inkscape:window-y="24"
     inkscape:window-maximized="1"
     inkscape:current-layer="svg2" />
  <path
     style="fill:#000000"
     d="m 358.56991,895.35226 -1.2577,0 -3.0789,-3.88748 -3.079,-3.88748 -4.5786,-2.15224 c -2.5183,-1.18373 -6.0081,-2.41947 -7.7551,-2.74609 -1.747,-0.32662 -6.3264,-2.10747 -10.1764,-3.95745 -3.85,-1.84998 -8.5746,-4.52054 -10.499,-5.93458 l -3.499,-2.57097 -10.50104,0.66191 -10.50099,0.66191 -4.5,-1.48978 c -2.475,-0.81937 -6.75,-1.96889 -9.5,-2.55449 -2.75,-0.58559 -8.21228,-1.52868 -12.1384,-2.09574 l -7.13841,-1.03103 -6.86159,-3.06286 -6.8616,-3.06286 -5.5,-5.29458 c -3.025,-2.91202 -7.075,-6.21858 -9,-7.34791 -1.925,-1.12933 -6.7198,-3.00353 -10.6551,-4.16489 l -7.1551,-2.11156 -8.3449,-0.0962 c -4.5897,-0.0529 -9.9199,0.19928 -11.8449,0.56046 l -3.5,0.6567 -5,-1.59295 c -2.75,-0.87612 -7.475,-2.01518 -10.5,-2.53123 -3.025,-0.51606 -7.525,-1.36314 -10,-1.88242 l -4.5,-0.94413 -5.93847,-3.32102 -5.93847,-3.32101 -4.31153,-4.11842 -4.31153,-4.11842 0,-2.62926 0,-2.62926 3.49223,-3.70242 3.49222,-3.70241 0.62543,-3.54991 0.62544,-3.5499 3.63234,-3.86621 3.63234,-3.86621 9.25294,-4.42294 9.25294,-4.42295 1.41821,-3.39424 1.4182,-3.39425 5.82886,-2.73092 5.82885,-2.73091 7.64349,-5.87824 7.64348,-5.87823 2.70947,-3.90976 c 1.4902,-2.15037 5.05279,-6.06872 7.91685,-8.70745 2.86406,-2.63873 7.55439,-6.59769 10.42295,-8.79769 l 5.21556,-4 3.7241,-4.64038 c 2.04825,-2.55221 6.80527,-8.62721 10.57114,-13.5 3.76587,-4.87279 10.29087,-14.07133 14.5,-20.4412 4.20913,-6.36987 10.12796,-15.10609 13.15296,-19.41384 3.025,-4.30774 9.04617,-12.59603 13.38037,-18.41842 l 7.88038,-10.58616 -1.38038,-0.1899 c -0.7592,-0.10445 -4.36267,-0.47185 -8.00771,-0.81646 l -6.62734,-0.62656 -0.69527,-7.05595 -0.69528,-7.05595 2.32262,-3.23253 c 1.27743,-1.77789 3.44761,-4.71474 4.82261,-6.52634 1.375,-1.8116 3.44589,-4.23938 4.60198,-5.39506 1.15609,-1.15569 4.19359,-5.16719 6.75,-8.91446 l 4.64802,-6.81324 -0.0145,-2.68679 c -0.008,-1.47773 -0.68003,-4.59707 -1.49338,-6.93186 -0.81336,-2.33478 -2.71931,-6.54358 -4.23545,-9.35288 l -2.75662,-5.10781 -4.5,-4.66032 -4.5,-4.66032 -7.14145,-2.78258 -7.14144,-2.78258 -5.51761,-5.78464 -5.51762,-5.78464 -5.10229,-10.57811 c -2.80626,-5.81796 -6.89718,-13.64963 -9.09094,-17.40371 -2.19381,-3.75408 -3.9887,-7.40216 -3.9887,-8.10685 0,-0.70469 -1.58112,-3.6626 -3.5136,-6.57312 l -3.5136,-5.29186 -2.53943,-9.94276 -2.53944,-9.94275 -0.57688,-8.07299 -0.57688,-8.073 1.21094,-2.26265 1.21093,-2.26265 -0.50566,-0.50566 -0.50566,-0.50566 -1.8343,0.58218 -1.83431,0.58219 -0.99105,2.25912 -0.99106,2.25912 -2.5,0.0505 c -1.375,0.0278 -3.32056,0.51417 -4.32346,1.08087 -1.00291,0.5667 -2.35291,2.05632 -3,3.31027 l -1.17654,2.27992 -3.5,1.27697 c -1.925,0.70233 -5.525,2.107 -8,3.12148 -2.475,1.01448 -6.8056,3.4275 -9.62356,5.36225 -2.81796,1.93476 -7.89882,5.45947 -11.29078,7.83269 l -6.16722,4.31496 -3.00059,4.1422 c -1.65033,2.2782 -4.12651,4.88078 -5.50262,5.7835 -1.37612,0.90272 -5.97,4.75002 -10.20863,8.54956 -4.23863,3.79954 -9.0566,7.57597 -10.7066,8.39207 -1.65,0.8161 -5.41626,3.06308 -8.36947,4.99329 -2.95321,1.93021 -6.55321,4.2946 -8,5.25421 -1.44679,0.9596 -3.3835,1.7471 -4.3038,1.75 l -1.67328,0.005 -2.82672,2.36169 c -1.5547,1.29892 -7.32673,5.32636 -12.82673,8.94986 -5.499996,3.6235 -11.574996,7.88588 -13.499996,9.47196 -1.925,1.58607 -6.65,5.27045 -10.5,8.1875 -3.85,2.91705 -8.74492,6.92941 -10.87761,8.91636 l -3.87761,3.61263 -9.62259,13 c -5.29242,7.15 -10.83812,14.8 -12.32378,17 -1.48566,2.2 -4.98718,8.79437 -7.78116,14.65416 l -5.07996,10.65416 -1.90276,11.4833 -1.90276,11.4833 -0.16974,14.36254 -0.16974,14.36254 2.57261,6.35989 c 1.41494,3.49794 3.03893,6.92176 3.60886,7.6085 0.56994,0.68673 3.95161,7.14754 7.51483,14.35735 l 6.47858,13.10875 4.65612,6.12241 4.65613,6.1224 7.30415,6.23224 7.30414,6.23224 6.70885,3.40523 6.70885,3.40523 8.61559,8.84811 8.615576,8.8481 5.43869,1.84118 5.43869,1.84118 1.1909,3.43982 1.19089,3.43982 -0.79653,1.28882 -0.79654,1.28882 -6.35134,-0.53353 -6.351336,-0.53353 -6.5,-2.27247 c -3.575,-1.24986 -11.225,-4.3642 -17,-6.92076 l -10.5,-4.64829 -6,-4.19839 c -3.3,-2.30911 -10.08822,-6.87399 -15.08494,-10.14418 l -9.08494,-5.9458 -6.41506,-6.80185 -6.41506,-6.80159 -4.6042,-6.99472 c -2.53231,-3.8471 -5.62531,-8.99807 -6.87332,-11.44662 -1.2480196,-2.44854 -3.1305996,-6.94854 -4.1835096,-10 -1.05291,-3.05145 -3.0249,-10.9481 -4.3822,-17.5481 l -2.46783004,-12 -0.10103,-6 c -0.0556,-3.3 -0.0371,-10.5 0.0411,-16 l 0.14213,-10 2.41149004,-10 2.41148,-10 6.5611996,-17.3927 6.5612,-17.3927 3.18563,-5.6073 c 1.75209,-3.08402 4.73676,-7.8573 6.63258,-10.6073 1.89583,-2.75 5.36556,-7.25 7.71052,-10 2.34496,-2.75 12.39578,-13.22946 22.33516,-23.28769 l 18.07161,-18.2877 12.77399,-11.09122 c 7.0257,-6.10017 15.448006,-13.39571 18.716236,-16.21231 3.26824,-2.81659 10.24324,-8.89335 15.5,-13.5039 5.25677,-4.61055 14.50776,-13.40953 20.55776,-19.5533 6.05,-6.14377 14.09976,-14.5215 17.88836,-18.61718 3.78859,-4.09569 9.18859,-9.87098 12,-12.83398 l 5.11164,-5.38728 4,-2.47918 c 2.2,-1.36355 5.64498,-4.05158 7.6555,-5.9734 2.01053,-1.92181 4.70655,-4.01821 5.99115,-4.65865 l 2.33563,-1.16444 0.36647,-1.97489 c 0.20156,-1.08618 0.82314,-2.53738 1.3813,-3.22488 l 1.01484,-1.25 1.87755,0 1.87756,0 0,-0.95953 c 0,-0.52774 1.2375,-2.14364 2.75,-3.59088 l 2.75,-2.63136 4.34497,-1.91429 4.34497,-1.91428 0.50949,-1.94826 0.50948,-1.94826 2.39554,-1.56962 2.39555,-1.56963 0,-1.92024 0,-1.92024 2.08195,-1.45826 2.08195,-1.45825 0.54079,-4.03183 0.54078,-4.03183 -2.12408,-3.43682 -2.12407,-3.43682 -0.63457,-4.62967 -0.63456,-4.62968 1.71861,-4.50012 1.71862,-4.50013 1.66729,0.0351 c 0.91701,0.0193 4.49567,0.64185 7.95259,1.38341 l 6.28529,1.34827 1.51243,-3.61976 c 0.83184,-1.99086 2.50346,-4.69224 3.71471,-6.00305 1.21125,-1.31081 3.80401,-3.40596 5.7617,-4.65589 l 3.55942,-2.27259 1.30083,-4.35776 c 0.71546,-2.39677 2.36918,-6.18528 3.67493,-8.41892 l 2.3741,-4.06116 -0.87743,-2.93884 c -0.48259,-1.61633 -2.2363,-6.31381 -3.89714,-10.43881 l -3.01971,-7.5 -2.26563,-10.5 -2.26562,-10.5 0.27708,-26.5 c 0.15239,-14.575 0.62291,-40.45 1.04559,-57.5 l 0.76851,-31 3.52378,-9.56807 c 1.93808,-5.26243 4.67366,-11.78743 6.07907,-14.5 1.40541,-2.71256 3.84235,-6.83242 5.41543,-9.15524 1.57307,-2.32283 7.48613,-9.18894 13.14013,-15.25803 l 10.28,-11.03471 5.80128,-4.463978 5.80127,-4.46398 5.36234,-1.96293 c 2.94927,-1.07962 7.33347,-2.47536 9.74267,-3.10164 2.4092,-0.62628 6.8095,-1.53405 9.7785,-2.01727 l 5.3982,-0.87858 2.7215,-1.86145 c 1.4968,-1.02379 4.5215,-2.38958 6.7215,-3.03507 2.2,-0.64549 6.6701,-1.62934 9.9336,-2.18634 3.2635,-0.55699 7.4078,-1.01271 9.2096,-1.01271 l 3.2758,0 2.6116,-2.75 2.6116,-2.75 -0.7162,-7 c -0.3939,-3.85 -0.7032,-8.48809 -0.6874,-10.30687 l 0.029,-3.30688 4.6876,-6.03623 4.6875,-6.036233 -0.5284,-1.3771 -0.5285,-1.37709 -2.2928,-0.57982 -2.2928,-0.57982 -1.6749,-3.69998 -1.6749,-3.69998 -0.5308,-5.273823 c -0.292,-2.900603 -0.8023,-5.713103 -1.1341,-6.25 l -0.6034,-0.976177 -3.852,0 -3.8521,0 -2.5889,3.076725 -2.5889,3.076726 0,1.423274 0,1.423275 -0.8395,0 c -0.4617,0 -1.3617,-1.146174 -2,-2.547053 l -1.1605,-2.547053 0,-2.902056 0,-2.902055 3.25,-2.388172 c 1.7875,-1.313494 5.5,-3.323054 8.25,-4.465688 l 5,-2.077518 8.2703,-1.261332 L 386.18501,0 l 7.3547,1.143414 7.3548,1.143415 5.4662,2.045165 5.4662,2.045165 5.9087,4.627347 5.9088,4.627346 6.1372,2.90167 6.1372,2.90167 7.8628,1.482443 c 4.3245,0.815343 10.1523,2.146683 12.9507,2.958534 2.7983,0.81185 5.9483,1.48151 7,1.48814 l 1.9121,0.012 4.2444,2.42681 c 2.3344,1.33474 6.0882,3.91682 8.3416,5.73795 2.2535,1.821133 5.37,4.498283 6.9256,5.949223 1.5556,1.45095 4.5518,3.92595 6.6584,5.5 2.1065,1.57406 5.5175,4.64202 7.58,6.81769 2.0625,2.17567 3.75,4.30161 3.75,4.72432 0,0.42271 1.445,1.51583 3.2112,2.42915 l 3.2112,1.6606 4.8427,-1.24114 4.8426,-1.24113 1.7749,1.60622 c 0.9762,0.88342 2.4369,1.60622 3.2461,1.60622 0.8092,0 1.9668,0.49553 2.5725,1.10118 l 1.1011,1.10117 -0.8041,2.80391 -0.8042,2.80391 2.7561,8.2143 2.7561,8.21429 -0.2518,6.63062 c -0.1385,3.64684 -0.3119,7.305618 -0.3855,8.130618 -0.073,0.825 1.2442,5.52238 2.9283,10.43863 l 3.0619,8.93864 2.9674,17.06136 c 1.6321,9.38375 4.0835,23.36137 5.4475,31.06137 l 2.4801,14 -0.5556,5.5 -0.5555,5.5 -3.4056,10.75859 c -1.873,5.91723 -4.2841,12.44223 -5.358,14.5 l -1.9524,3.74141 -5.1006,5.25 -5.1006,5.25 -2.2129,0.17105 c -1.2171,0.0941 -3.1129,0.23835 -4.2129,0.32061 -1.1,0.0823 -4.025,-0.43984 -6.5,-1.16022 -2.475,-0.72039 -6.0454,-1.31466 -7.9343,-1.32062 l -3.4343,-0.0108 -4.2924,-2.07791 -4.2923,-2.07791 -2.6061,-3.09706 c -1.4333,-1.70339 -4.2155,-4.37615 -6.1827,-5.93948 l -3.5767,-2.84241 -8.3577,-2.60581 c -4.5968,-1.4332 -8.6016,-3.00037 -8.8997,-3.48262 l -0.5419,-0.8768 -2.0479,0 -2.048,0 0.6761,1.75 c 0.3719,0.9625 1.5628,4.37617 2.6466,7.58593 l 1.9704,5.83593 -0.5242,4.45735 c -0.2883,2.45154 -1.2102,6.80037 -2.0486,9.66407 l -1.5245,5.20672 -5.2374,7 c -2.8806,3.85 -6.183,7.9 -7.3388,9 -1.1558,1.1 -2.6563,3.05104 -3.3345,4.33565 l -1.2332,2.33564 0.5613,0.5613 0.5613,0.5613 -5.5854,7.97094 -5.5853,7.97094 -4.814,12.13212 c -2.6477,6.67266 -5.1242,13.36961 -5.5033,14.88211 l -0.6893,2.75 5.0898,0 c 2.7994,0 8.2444,-0.54094 12.0999,-1.20208 l 7.01,-1.20208 5.2585,2.27823 c 2.8922,1.25303 5.7086,2.401 6.2586,2.55104 0.55,0.15004 1.8471,0.6368 2.8824,1.08167 l 1.8825,0.80886 1.854,-1.15782 c 1.0197,-0.6368 2.2977,-1.15782 2.8402,-1.15782 0.5424,0 3.586,-1.17042 6.7635,-2.60094 3.1776,-1.43052 7.5774,-3.52237 9.7774,-4.64857 2.2,-1.12619 4.7104,-2.65577 5.5787,-3.39906 0.8683,-0.74329 1.9894,-1.35143 2.4914,-1.35143 0.5019,0 3.3915,-1.68142 6.4212,-3.7365 3.0298,-2.05507 5.7337,-3.99014 6.0087,-4.30016 0.275,-0.31001 2.8692,-2.00359 5.765,-3.7635 2.8958,-1.75991 5.6509,-3.19984 6.1226,-3.19984 0.4717,0 2.6025,-1.99538 4.735,-4.43418 2.1326,-2.4388 4.8426,-5.7013 6.0223,-7.25 l 2.1449,-2.81582 4.8551,-2.49305 c 2.6703,-1.37118 5.5301,-2.99808 6.3551,-3.61533 l 1.5,-1.12227 4.9575,-0.64399 4.9575,-0.64398 6.7489,-4.00948 6.749,-4.00948 1.3817,-1.97266 c 0.7599,-1.08497 3.333,-3.43902 5.7179,-5.23121 2.385,-1.7922 5.9453,-4.47886 7.9119,-5.97034 1.9666,-1.49149 4.9256,-3.48665 6.5756,-4.4337 l 3,-1.7219 7.0601,-0.0863 7.06,-0.0863 6.2616,-3.73001 c 3.4439,-2.0515 6.5349,-3.73 6.8689,-3.73 0.3341,0 2.0652,-1.59156 3.847,-3.53681 l 3.2395,-3.53681 3.5461,0.23882 3.5461,0.23881 0.7055,-0.70551 0.7055,-0.70552 2.34,1.53324 2.3401,1.53324 1.924,-1.02973 1.9241,-1.02973 3.1315,0 3.1315,0 2.1842,-1.25 2.1843,-1.25 7.5,-0.0991 c 4.125,-0.0545 9.7955,-0.44111 12.6011,-0.85908 l 5.1012,-0.75995 0.6452,1.68153 0.6453,1.68152 -1.0819,2.02162 -1.082,2.02162 -4.4269,1.95824 -4.4269,1.95823 -8.7376,1.49866 -8.7375,1.49866 -5.5,2.02542 c -3.025,1.11398 -7.75,3.15922 -10.5,4.54498 -2.75,1.38575 -5.7701,2.67218 -6.7112,2.85873 -0.9412,0.18655 -3.7555,1.5372 -6.254,3.00145 l -4.5429,2.66226 -1.9959,2.53748 c -1.0978,1.39558 -1.996,2.8638 -1.996,3.26269 l 0,0.72523 5.3724,0.55448 5.3724,0.55448 4.0941,2.08869 4.0942,2.08869 1.1172,2.08746 1.1172,2.08747 -1.1642,2.81049 c -0.6403,1.54577 -2.253,3.83339 -3.5837,5.08359 -1.3308,1.2502 -2.4196,2.68502 -2.4196,3.18848 0,0.50347 1.0125,1.76006 2.25,2.79242 1.2375,1.03236 2.6305,1.89199 3.0956,1.91029 0.4651,0.0183 2.1526,0.96391 3.75,2.10136 l 2.9044,2.0681 0,1.89672 0,1.89672 -1.9343,1.03519 -1.9342,1.03518 -4.3306,0 -4.3305,0 -3.8778,-2.07835 -3.8777,-2.07835 -0.8422,1.32835 c -0.4631,0.73059 -0.849,1.62697 -0.8574,1.99195 -0.01,0.36498 -2.5473,3.17549 -5.642,6.24558 l -5.6268,5.58197 -3.6848,0.99223 -3.6849,0.99223 -3.9384,-0.46953 c -2.1661,-0.25824 -6.3009,-1.01662 -9.1884,-1.68529 l -5.25,-1.21575 0,-2.41915 0,-2.41915 -2.25,0.71778 c -1.2375,0.39479 -4.8115,1.44334 -7.9421,2.33011 l -5.6922,1.61232 -7.0234,-1.20439 -7.0235,-1.20439 -7.2844,2.61583 c -4.0064,1.4387 -9.8719,3.91609 -13.0344,5.50531 l -5.75,2.88948 0,0.84631 0,0.84632 5.25,0.6306 c 2.8875,0.34683 7.0501,0.63451 9.2503,0.63929 2.2003,0.005 6.9253,-0.61086 10.5,-1.3681 3.5748,-0.75723 8.4103,-1.89907 10.7455,-2.53742 l 4.2458,-1.16063 1.9268,1.03121 1.9269,1.0312 7.8273,-0.56424 7.8274,-0.56423 4.2263,-1.50321 4.2263,-1.50321 0.9855,0.60906 0.9855,0.60906 -1.0314,2.71277 c -0.5673,1.49202 -1.7199,3.47347 -2.5613,4.40321 l -1.5298,1.69043 3.8494,3.84711 3.8495,3.84712 5,2.88631 c 2.75,1.58747 5.588,3.7089 6.3067,4.71428 l 1.3067,1.82797 1.3231,0 1.3232,0 4.1942,5.55518 4.1942,5.55518 2.6759,1.13567 c 1.4718,0.62461 3.6885,2.02822 4.926,3.11913 l 2.25,1.98347 0,1.7187 0,1.71869 -1.7261,0.66237 -1.7261,0.66237 -6.5239,-0.6768 -6.5239,-0.67679 -11,-3.7256 -11,-3.72561 -1.1154,0.38549 -1.1154,0.38548 -5.1716,-2.03847 -5.1717,-2.03846 -3.9176,0 -3.9177,0 -0.6872,3.66324 -0.6873,3.66324 0.9878,1.58676 c 0.5433,0.87272 2.7447,2.59194 4.892,3.82049 2.1472,1.22855 6.2138,2.91327 9.0367,3.74381 l 5.1326,1.51009 3.8674,3.54003 c 2.1271,1.94701 5.2174,4.25406 6.8674,5.12677 1.65,0.87271 3.675,2.15418 4.5,2.8477 0.825,0.69353 4.425,2.73742 8,4.54199 3.575,1.80457 7.5125,4.18632 8.75,5.29277 l 2.25,2.01174 0,2.2905 0,2.2905 -1.9343,1.03519 c -1.0638,0.56935 -2.6865,1.03518 -3.6058,1.03518 l -1.6716,0 -8.002,-4.5 c -4.4011,-2.475 -8.5652,-4.5 -9.2534,-4.5 -0.6883,0 -3.2273,-1.57063 -5.6422,-3.49029 l -4.3907,-3.4903 -2.2125,-0.01 c -1.2169,-0.005 -4.8169,-0.96518 -8,-2.13298 l -5.7875,-2.12328 -2.6356,-2.45419 -2.6356,-2.45419 -2.7635,0.32747 -2.7636,0.32746 -1.0625,1.69723 -1.0624,1.69723 0.9616,2.69949 0.9616,2.69948 6.5,3.43984 c 3.575,1.89192 6.95,3.79196 7.5,4.22233 0.55,0.43037 3.3657,1.33708 6.2572,2.01492 l 5.2573,1.23244 1.9927,2.53338 c 1.096,1.39336 1.9928,2.93234 1.9928,3.41996 0,0.48762 -1.1303,1.40155 -2.5117,2.03095 l -2.5116,1.14438 -4.7384,-1.20599 c -2.6061,-0.66329 -6.0883,-1.57308 -7.7383,-2.02175 -1.65,-0.44867 -5.4214,-2.25361 -8.3808,-4.01098 l -5.3807,-3.19521 -2.8768,-0.57535 -2.8767,-0.57534 -2.9925,-3.4083 -2.9925,-3.4083 -0.027,-1.71521 -0.027,-1.7152 -2.7231,-3.11424 c -1.4977,-1.71253 -4.2981,-4.26221 -6.2231,-5.66566 l -3.5,-2.55173 -6.5,-1.6607 -6.5,-1.66071 -4.5,-2.80713 c -2.475,-1.54392 -6.798,-3.54914 -9.6066,-4.45605 l -5.1065,-1.64891 -3.2091,-2.8651 -3.2091,-2.86511 -4.3772,-1.10218 c -2.4074,-0.6062 -5.297,-1.10218 -6.4212,-1.10218 l -2.0441,0 -8.8324,8.25 c -4.8577,4.5375 -11.0511,9.91446 -13.763,11.9488 -2.712,2.03433 -6.9558,5.20412 -9.4308,7.04397 -2.475,1.83985 -5.0972,3.7109 -5.8271,4.15788 -0.73,0.44699 -4.1027,1.4602 -7.4951,2.25159 l -6.168,1.43888 -2.3291,1.52609 -2.3291,1.52609 -6.2607,-0.67047 -6.2607,-0.67046 -5.4031,2.32432 -5.403,2.32432 -5.2479,4.2745 c -2.8864,2.35097 -5.6321,4.27449 -6.1016,4.27449 -0.4695,0 -1.3901,1.17747 -2.0458,2.61659 l -1.1922,2.61659 1.5545,1.13669 1.5545,1.13669 0.6095,3.75594 0.6096,3.75593 -1.7566,4.59944 -1.7565,4.59943 1.289,3.90574 1.289,3.90575 3.4797,-0.65281 3.4798,-0.6528 -0.7493,1.21244 -0.7494,1.21244 1.9082,2.17597 c 1.0495,1.19678 3.6312,5.04033 5.7372,8.54122 l 3.829,6.36525 -0.9473,3.13475 -0.9473,3.13475 1.6252,9.26035 1.6253,9.26036 1.1896,1.18964 1.1897,1.18965 0,2.84966 0,2.84966 1.6357,3.16321 c 0.8997,1.73976 2.711,4.00899 4.0252,5.04273 l 2.3894,1.87952 1.6006,3.65761 c 0.8803,2.01168 1.9504,5.69066 2.3779,8.17551 l 0.7773,4.5179 2.5224,5.4821 c 1.3873,3.01515 3.8527,8.6321 5.4786,12.4821 1.6258,3.85 3.435,8.575 4.0203,10.5 l 1.0642,3.5 0.2728,7.60205 0.2728,7.60206 -1.6377,3.89794 c -0.9007,2.14387 -3.3201,9.29795 -5.3763,15.89795 -2.0562,6.6 -4.8553,15.375 -6.2201,19.5 -1.3648,4.125 -2.8316,9.3 -3.2596,11.5 -0.4279,2.2 -1.6599,9.175 -2.7377,15.5 l -1.9596,11.5 -3.0592,8.35067 -3.0593,8.35067 -1.5638,1.72807 c -0.8602,0.95044 -1.5639,2.4179 -1.5639,3.26102 0,0.84311 -1.3084,4.41858 -2.9076,7.94547 l -2.9076,6.41253 -1.0924,5.90944 c -0.6008,3.2502 -1.0924,7.54079 -1.0924,9.53466 l 0,3.62521 -1.3079,1.78861 -1.3078,1.78861 -4.9422,-0.0618 -4.9421,-0.0618 -8.5,-1.90431 -8.5,-1.9043 -5.4707,-3.71226 -5.4706,-3.71226 -3.0294,0.59242 -3.0293,0.59241 -2.4227,1.78864 c -1.3325,0.98375 -2.8659,2.66606 -3.4077,3.73845 -0.5418,1.0724 -1.3781,2.62482 -1.8585,3.44982 -0.4803,0.825 -2.4956,4.86545 -4.4782,8.97878 l -3.6049,7.47877 -0.6745,5.52123 -0.6744,5.52122 -4.6432,8 -4.6432,8 -1.6082,9.42914 -1.6082,9.42914 -2.4382,2.89759 -2.4381,2.89758 0,3.5002 0,3.5002 2.8566,2.85666 2.8567,2.85665 18.8933,-0.52613 18.8934,-0.52613 7.6963,-2.00251 7.6963,-2.00251 16.8037,0.53213 16.8037,0.53213 5.0712,0.86072 5.0712,0.86071 8.9288,5.58206 c 4.9108,3.07014 10.641,6.37415 12.7337,7.34224 l 3.805,1.76017 5.785,5.69589 5.785,5.69588 1.16,4.60692 1.1601,4.60691 0,4.99816 0,4.99817 -0.9534,0.58919 -0.9533,0.58919 -2.1775,-1.78018 c -1.1976,-0.97909 -4.1784,-3.47412 -6.624,-5.54451 -2.4456,-2.07038 -5.6493,-4.38571 -7.1192,-5.14517 -1.4699,-0.75946 -4.5782,-1.89349 -6.9073,-2.52007 l -4.2346,-1.13923 -4.7654,2.00928 c -2.6209,1.10511 -6.5653,2.45619 -8.7653,3.0024 -2.2,0.54621 -8.0096,2.39634 -12.9101,4.1114 l -8.9101,3.11829 -8.7066,1.09897 -8.7066,1.09897 -7.8833,-2.36548 -7.8833,-2.36549 -11.2776,-0.42586 -11.2775,-0.42587 -5.2225,1.72775 c -2.8723,0.95026 -8.0055,2.31835 -11.407,3.04019 l -6.1846,1.31243 -2.8154,1.80466 c -1.5485,0.99257 -5.19866,3.72486 -8.1115,6.07175 -2.91284,2.34689 -6.88997,4.93305 -8.83808,5.74702 l -3.542,1.47995 0.41496,1.24489 0.41497,1.2449 3.92311,0.78774 c 2.15771,0.43326 7.97311,1.76221 12.92314,2.95323 l 9,2.16548 2.6026,1.56611 c 1.4314,0.86135 4.4097,3.19889 6.6183,5.19453 2.2086,1.99564 5.5067,5.82064 7.329,8.5 1.8222,2.67936 4.7355,6.67157 6.4739,8.87157 l 3.1607,4 1.6154,4.16435 c 0.8884,2.2904 3.1161,6.5654 4.9503,9.5 1.8342,2.93461 3.8783,6.59432 4.5424,8.1327 0.664,1.53838 1.2074,3.96117 1.2074,5.38398 0,1.42281 -0.5213,4.32664 -1.1583,6.45295 l -1.1583,3.86605 -1.2577,0 z m -105.92573,-94.33655 2,-0.16345 0.0634,-3.5 c 0.0349,-1.925 0.1474,-5.11504 0.25,-7.08897 l 0.1866,-3.58897 2.75,-3.62286 2.75,-3.62286 6.5,-3.48743 6.5,-3.48744 1.75,-3.13178 c 0.9625,-1.72247 1.75,-3.75279 1.75,-4.51182 l 0,-1.38004 4.26125,-5.28892 c 2.34369,-2.9089 5.12622,-6.63891 6.18341,-8.28891 1.05718,-1.65 2.51462,-3.59464 3.23874,-4.32143 0.72413,-0.72678 1.3166,-1.93773 1.3166,-2.69098 0,-0.75326 -0.45492,-1.65071 -1.01092,-1.99434 l -1.01093,-0.62479 -6.06623,3.68504 -6.06623,3.68504 -0.49408,1.28756 -0.49408,1.28755 -6.32919,4.09317 c -3.48106,2.25125 -6.62936,4.09318 -6.99622,4.09318 -0.36685,0 -3.22416,2.04314 -6.34957,4.54032 -3.1254,2.49717 -7.3374,5.90784 -9.36,7.57926 l -3.67746,3.03894 -2.65499,7.27953 -2.655,7.27954 1.27038,4.24014 1.27038,4.24015 4.56207,2.31451 4.56207,2.31451 2,-0.16345 z"
     id="path2989"
     inkscape:connector-curvature="0" />
</svg>
