<?xml version="1.0" encoding="UTF-8" standalone="no"?>
<!-- Created with Inkscape (http://www.inkscape.org/) -->

<svg
   xmlns:dc="http://purl.org/dc/elements/1.1/"
   xmlns:cc="http://creativecommons.org/ns#"
   xmlns:rdf="http://www.w3.org/1999/02/22-rdf-syntax-ns#"
   xmlns:svg="http://www.w3.org/2000/svg"
   xmlns="http://www.w3.org/2000/svg"
   xmlns:sodipodi="http://sodipodi.sourceforge.net/DTD/sodipodi-0.dtd"
   xmlns:inkscape="http://www.inkscape.org/namespaces/inkscape"
   id="svg2"
   version="1.1"
   inkscape:version="0.48.2 r9819"
   width="1324"
   height="1768"
   sodipodi:docname="M - Nomad, Horse.png">
  <metadata
     id="metadata8">
    <rdf:RDF>
      <cc:Work
         rdf:about="">
        <dc:format>image/svg+xml</dc:format>
        <dc:type
           rdf:resource="http://purl.org/dc/dcmitype/StillImage" />
        <dc:title></dc:title>
      </cc:Work>
    </rdf:RDF>
  </metadata>
  <defs
     id="defs6" />
  <sodipodi:namedview
     pagecolor="#ffffff"
     bordercolor="#666666"
     borderopacity="1"
     objecttolerance="10"
     gridtolerance="10"
     guidetolerance="10"
     inkscape:pageopacity="0"
     inkscape:pageshadow="2"
     inkscape:window-width="1920"
     inkscape:window-height="1176"
     id="namedview4"
     showgrid="false"
     inkscape:zoom="0.75510045"
     inkscape:cx="662"
     inkscape:cy="586.92274"
     inkscape:window-x="0"
     inkscape:window-y="24"
     inkscape:window-maximized="1"
     inkscape:current-layer="svg2" />
  <path
     style="fill:#000000"
     d="m 803.5584,1742.1534 c -4.0457,-0.064 -9.8307,-0.5235 -12.8557,-1.0205 l -5.5,-0.9036 -4.5,-2.8002 -4.5,-2.8003 0.2922,-2.7067 0.2921,-2.7068 3.0381,-5.2225 c 1.6709,-2.8724 6.4895,-10.3531 10.7078,-16.6238 l 7.6698,-11.4013 3.5,-1.3889 c 1.925,-0.7639 6.8361,-3.0449 10.9135,-5.0688 l 7.4136,-3.6798 2.0344,-3.448 c 1.1189,-1.8964 2.1133,-4.1598 2.2098,-5.0299 0.097,-0.8701 0.8906,-4.8797 1.7646,-8.9102 l 1.5891,-7.3283 2.5603,-5.1717 c 1.4081,-2.8445 3.9337,-7.6468 5.6125,-10.6718 1.6787,-3.025 4.5397,-7.975 6.3578,-11 1.818,-3.025 4.4192,-7.75 5.7805,-10.5 1.3612,-2.75 4.5966,-11.525 7.1898,-19.5 2.5932,-7.975 5.5297,-16.3 6.5256,-18.5 0.996,-2.2 2.5894,-6.475 3.5409,-9.5 0.9516,-3.025 2.7514,-10.45 3.9997,-16.5 1.2483,-6.05 2.8213,-14.9484 3.4955,-19.7743 l 1.2259,-8.7743 -0.5921,-3.2257 c -0.3256,-1.7741 -0.6289,-9.3007 -0.674,-16.7257 l -0.082,-13.5 -1.4624,-15.5 c -0.8043,-8.525 -1.7206,-16.9436 -2.0362,-18.708 l -0.5737,-3.208 -3.6466,-4.8472 c -2.0056,-2.666 -5.9895,-7.7474 -8.853,-11.292 -2.8635,-3.5447 -10.6345,-13.7477 -17.2689,-22.6735 -6.6345,-8.9258 -12.896,-17.0258 -13.9146,-18 -1.0185,-0.9742 -5.3747,-6.9463 -9.6803,-13.2713 -4.3057,-6.325 -9.3532,-13.75 -11.2167,-16.5 -1.8635,-2.75 -4.0201,-5.7064 -4.7925,-6.5697 -0.7723,-0.8634 -2.2624,-4.0134 -3.3113,-7 -1.0489,-2.9867 -3.1312,-8.1303 -4.6273,-11.4303 -1.4961,-3.3 -3.9041,-8.3754 -5.3511,-11.2787 -1.447,-2.9033 -3.245,-6.5033 -3.9955,-8 -0.7506,-1.4967 -3.0547,-5.4213 -5.1203,-8.7213 -2.0657,-3.3 -5.8911,-10.05 -8.501,-15 -2.6099,-4.95 -5.514,-10.125 -6.4535,-11.5 -0.9396,-1.375 -3.5848,-6.55 -5.8783,-11.5 l -4.17,-9 -1.5062,-5.9601 -1.5061,-5.9601 0,-3.7899 0,-3.7899 -0.654,0 c -0.3598,0 -2.2093,1.8168 -4.11,4.0374 l -3.4558,4.0374 -6.1167,4.1537 -6.1167,4.1538 -8.0547,0.4228 -8.0546,0.4227 -4.852,-1.6473 c -2.6686,-0.906 -5.0167,-1.4826 -5.218,-1.2813 -0.2013,0.2013 -0.6237,5.2788 -0.9387,11.2834 l -0.5727,10.9174 -1.9507,11 -1.9507,11 -3.1091,8.5 -3.109,8.5 -1.6183,1.8735 -1.6183,1.8734 -8.5,-0.594 -8.5,-0.594 -6.4815,-2.0738 -6.4816,-2.0738 -4.7156,-3.026 -4.7157,-3.026 -3.65,-4.0401 -3.6499,-4.0401 -1.394,-3.3361 -1.3939,-3.3362 -2.2589,-1.5871 c -1.2424,-0.873 -3.9464,-2.6834 -6.0089,-4.0233 l -3.75,-2.4361 -0.106,2.7198 c -0.058,1.496 -0.097,4.7449 -0.086,7.2199 0.011,2.475 0.064,7.5142 0.1187,11.1982 l 0.099,6.6981 -1.4276,3.8019 c -0.7852,2.091 -1.7053,5.7713 -2.0448,8.1786 l -0.6171,4.3767 -1.4679,2.0958 -1.4679,2.0957 0,4.2545 0,4.2544 -2.7068,1.773 -2.7067,1.7731 -9.0433,-0.075 -9.0432,-0.075 -9.817,-3.1924 -9.817,-3.1924 -0.8561,0.529 c -0.4708,0.291 -1.1595,1.9865 -1.5305,3.7677 -0.3709,1.7812 -2.1591,7.7385 -3.9738,13.2385 -1.8147,5.5 -4.0327,12.7 -4.9289,16 -0.8961,3.3 -2.0217,7.125 -2.5013,8.5 -0.4797,1.375 -1.7738,4.75 -2.8758,7.5 -1.1021,2.75 -2.9872,7.7 -4.1892,11 -1.2019,3.3 -2.6006,6.9 -3.1081,8 -0.5076,1.1 -2.4611,6.5 -4.3412,12 -1.8801,5.5 -5.0255,14.0469 -6.9898,18.9931 -1.9642,4.9462 -3.5713,9.4917 -3.5713,10.1011 0,0.6093 -1.125,3.2238 -2.5,5.8098 -1.375,2.586 -2.5,5.295 -2.5,6.02 0,0.7249 -1.5099,6.2136 -3.3553,12.197 -1.8454,5.9835 -5.2204,15.4096 -7.5,20.9471 -2.2796,5.5374 -4.1447,10.5787 -4.1447,11.2029 0,0.6242 -0.5456,2.3324 -1.2125,3.7961 l -1.2125,2.6611 -4.8934,-0.5795 -4.8934,-0.5795 -1.5473,-1.2842 c -0.8511,-0.7063 -2.092,-2.5796 -2.7577,-4.1628 l -1.2103,-2.8785 1.3804,-4.6219 c 0.7593,-2.542 2.4509,-6.8718 3.7592,-9.6218 1.3083,-2.75 2.9332,-6.8 3.611,-9 0.6777,-2.2 1.6247,-5.0337 2.1044,-6.2971 0.4796,-1.2633 0.8721,-3.3743 0.8721,-4.6909 l 0,-2.394 0.8606,-0.5319 c 0.4733,-0.2925 1.6426,-3.3565 2.5984,-6.809 0.9558,-3.4524 2.2981,-7.6271 2.9829,-9.2771 0.6848,-1.65 2.5045,-7.05 4.0436,-12 1.5392,-4.95 3.1846,-9.7814 3.6565,-10.7364 0.4719,-0.9551 0.858,-2.4621 0.858,-3.3489 0,-0.8868 0.6226,-3.0304 1.3836,-4.7636 0.761,-1.7331 2.2826,-5.1761 3.3813,-7.6511 1.0987,-2.475 2.726,-6.6532 3.6163,-9.2849 0.8904,-2.6318 1.6379,-5.5568 1.6612,-6.5 0.023,-0.9433 1.1873,-4.8651 2.5864,-8.7151 1.3992,-3.85 3.8536,-11.5 5.4542,-17 1.6006,-5.5 3.4034,-11.35 4.0062,-13 0.6029,-1.65 2.4464,-7.275 4.0967,-12.5 1.6503,-5.225 3.2199,-10.2254 3.4879,-11.1121 l 0.4873,-1.6121 -1.736,-0.6662 -1.736,-0.6661 -2.2723,2.1347 -2.2723,2.1347 -4.3223,-0.5412 c -2.3772,-0.2977 -8.3722,-0.9765 -13.3222,-1.5086 -4.95,-0.532 -10.1546,-1.4187 -11.5658,-1.9704 -1.4113,-0.5518 -4.5613,-2.2833 -7,-3.8479 -2.4388,-1.5647 -5.8967,-3.9419 -7.6842,-5.2829 l -3.25,-2.438 0,-1.1376 c 0,-0.6257 -1.125,-2.1946 -2.5,-3.4863 -1.375,-1.2917 -2.512,-2.8327 -2.5266,-3.4243 l -0.027,-1.0757 -5.2207,-3.2519 -5.2207,-3.252 -2.0027,3.5802 c -1.1015,1.9691 -3.6883,6.1325 -5.7486,9.252 -2.0602,3.1194 -4.5282,6.7967 -5.4844,8.1717 -0.9563,1.375 -3.9194,5.2 -6.5848,8.5 l -4.8462,6 -7.1693,6.3588 c -3.9432,3.4974 -8.29439,7.0858 -9.66939,7.9744 -1.375,0.8885 -5.3694,3.7875 -8.87645,6.4422 l -6.37646,4.8268 -6.63593,3.3418 -6.63593,3.3418 -1.25,7.8571 c -0.68751,4.3214 -2.16462,10.7746 -3.28248,14.3403 -1.11786,3.5658 -3.13728,8.46 -4.48761,10.876 l -2.45514,4.3927 0,4.6754 0,4.6754 2.37999,7.9487 c 1.309,4.3717 5.30221,15.8516 8.8738,25.5109 l 6.4938,17.5623 5.37621,9.8609 5.3762,9.861 3.09616,3.0768 c 1.70289,1.6922 5.07789,4.7112 7.5,6.7089 l 4.40384,3.6323 1.60979,3.3677 c 0.8854,1.8523 2.0826,4.4928 2.6605,5.8678 0.5778,1.375 2.724,5.9967 4.7694,10.2704 l 3.7187,7.7704 4.1208,2.4701 4.1208,2.4702 -1.905,0.01 -1.905,0.01 1.81,2 c 0.9955,1.1 1.5291,2 1.1858,2 -0.3433,0 -2.4674,-0.9607 -4.7201,-2.1349 l -4.0959,-2.1349 -1.1349,1.1349 -1.1349,1.1349 1.5694,0 1.5693,0 5.1307,4.0851 5.1306,4.085 0,1.115 0,1.1149 -1.2,-1.2 c -0.66,-0.66 -1.6088,-1.2 -2.1084,-1.2 l -0.9084,0 0.6747,2.6882 0.6747,2.6883 1.6837,1.2799 1.6837,1.28 -1.595,0.032 -1.595,0.032 -1.655,-1.8287 c -0.9104,-1.0077 -1.6551,-2.1956 -1.6551,-2.6417 0,-0.4461 -0.7875,-1.4088 -1.75,-2.1395 l -1.75,-1.3284 -2.2666,-0.032 -2.2666,-0.032 3.531,5.1331 c 1.942,2.8232 3.8235,6.3107 4.1811,7.75 0.3576,1.4393 1.5607,3.8544 2.6737,5.3669 l 2.0235,2.75 2.229,0 c 1.226,0 4.2418,0.8628 6.7018,1.9172 2.46,1.0545 4.7824,2.4183 5.1609,3.0307 l 0.6882,1.1135 3.4329,-0.6441 3.433,-0.644 1.6653,1.3634 1.6653,1.3633 4.9292,10.426 4.9291,10.426 2.4268,8.074 2.4267,8.074 0.5879,5.5356 0.5879,5.5355 -2.259,5.2512 -2.259,5.2511 -2.4221,1.9053 -2.4221,1.9052 -5.3888,1.2059 -5.3887,1.206 -2.515,-1.6479 -2.515,-1.6479 -2.2065,0 -2.2064,0 -1.8364,-1.6619 c -1.01,-0.914 -7.3032,-4.635 -13.9849,-8.2688 l -12.1485,-6.607 -1.9546,-2.6179 -1.95452,-2.6179 -2.85382,-10.3633 c -1.56961,-5.6997 -2.86979,-11.1596 -2.88929,-12.1331 l -0.0355,-1.7694 -2.5,-3.9603 -2.5,-3.9603 0,-1.9804 0,-1.9804 -1.25,-1.0037 c -0.6875,-0.5521 -3.50554,-2.9323 -6.26232,-5.2895 -2.75678,-2.3571 -7.31707,-5.9732 -10.13398,-8.0357 l -5.12165,-3.75 -3.07387,0 -3.07387,0 -2.46501,-4.25 -2.46501,-4.25 -1.2524,-6 -1.2524,-6 -0.64997,-12 -0.64996,-12 -2.20942,-10 c -1.21518,-5.5 -2.94605,-12.925 -3.84637,-16.5 -0.90032,-3.575 -3.07905,-10.1 -4.84161,-14.5 -1.76257,-4.4 -5.49631,-13.3112 -8.29721,-19.8026 l -5.09255,-11.8026 -2.0312,-2.5823 c -1.11716,-1.4202 -2.0312,-2.9628 -2.0312,-3.4279 0,-0.4652 -1.6481,-3.442 -3.66244,-6.6152 -2.01434,-3.1732 -5.59092,-8.2444 -7.94796,-11.2694 l -4.28553,-5.5 -2.15759,-4.8828 -2.1576,-4.8829 0.72347,-14.1171 0.72347,-14.1172 1.85348,-6 1.85348,-6 4.60616,-5.25 4.60615,-5.25 1.17246,-0.014 1.17245,-0.014 4,-4.8302 c 2.2,-2.6565 5.8504,-6.255 8.11199,-7.9966 l 4.112,-3.1665 0.62931,-5.2391 c 0.34612,-2.8816 0.63323,-9.012 0.63801,-13.6232 l 0.009,-8.384 -1.14777,-3.8309 -1.14778,-3.8309 -3.85222,-2.5493 c -2.11904,-1.4025 -3.85254,-2.9792 -3.85254,-3.5041 l 0,-0.9544 -1.46463,0.562 -1.46462,0.562 -4.92548,10.1566 c -2.70901,5.5861 -5.6471,12.6316 -6.52909,15.6566 -0.88199,3.025 -2.70366,10.225 -4.04816,16 -1.3445,5.775 -2.94999,13.425 -3.56776,17 -0.61776,3.575 -2.02457,9.65 -3.12624,13.5 -1.10166,3.85 -3.05062,9.25 -4.33102,12 -1.28039,2.75 -2.88501,6.8 -3.56582,9 -0.6808,2.2 -1.60168,4.463 -2.04638,5.0288 -0.44471,0.5659 -2.22896,5.0659 -3.965,10 -1.73604,4.9342 -3.98095,10.7712 -4.9887,12.9712 -1.00774,2.2 -2.93648,6.7 -4.28608,10 -1.34961,3.3 -3.13106,8.025 -3.95878,10.5 -0.82772,2.475 -2.21783,6.975 -3.08912,10 -0.8713,3.025 -2.06148,9.1 -2.64483,13.5 -0.58336,4.4 -1.53609,11.375 -2.11719,15.5 l -1.05653,7.5 -2.86665,8.2004 c -1.57666,4.5102 -3.84933,10.1266 -5.05037,12.4808 -1.20104,2.3543 -3.2127,7.2141 -4.47035,10.7996 -1.25765,3.5856 -4.37149,11.4692 -6.91965,17.5192 -2.54815,6.05 -5.24414,12.6367 -5.99109,14.6371 -0.74694,2.0004 -1.83915,6.9504 -2.42712,11 -0.58797,4.0496 -1.75935,12.5379 -2.60306,18.8629 -0.84372,6.325 -2.45301,18.475 -3.5762,27 -1.1232,8.525 -2.72771,18.2 -3.56556,21.5 l -1.52338,6 -1.45579,1.6232 -1.45578,1.6232 -0.83241,5.2657 -0.83241,5.2658 -1.62737,0.9108 -1.62738,0.9107 0,2.6456 0,2.6456 -2.30525,2.5547 -2.30525,2.5547 -1.24303,5 -1.24302,5 -3.02281,5.0187 -3.0228,5.0186 -3.87704,2.2314 c -2.13237,1.2272 -4.55916,2.2313 -5.39287,2.2313 l -1.51583,0 -2.53605,-3.7321 -2.53605,-3.7322 0,-1.7992 0,-1.7993 -1.65624,-0.6355 -1.65624,-0.6356 -2.84376,3.1827 -2.84376,3.1828 0,6.4639 0,6.464 1.59158,3.9778 1.59157,3.9777 -1.17277,3.5535 -1.17277,3.5536 -3.2632,2.4889 c -1.79475,1.369 -3.54695,2.489 -3.89376,2.489 -0.34681,0 -3.46339,1.2975 -6.92573,2.8832 -3.46234,1.5858 -9.70939,3.8413 -13.88232,5.0122 l -7.58716,2.129 -13.93543,0.6339 -13.93543,0.6339 -2.27147,-1.2156 -2.27148,-1.2157 0.66809,-3.1804 c 0.36745,-1.7493 1.93183,-5.8805 3.4764,-9.1805 1.54456,-3.3 4.59329,-9.8824 6.77495,-14.6276 l 3.96664,-8.6277 4.87115,-5.0233 4.87114,-5.0233 4.5,-1.2364 c 2.475,-0.6801 6.62442,-2.149 9.22093,-3.2642 l 4.72094,-2.0277 4.04124,-5.7612 4.04124,-5.7612 2.98517,-7.3237 c 1.64185,-4.028 3.27744,-8.8987 3.63465,-10.8237 l 0.64948,-3.5 6.00752,-11.5 c 3.30414,-6.325 7.75361,-14.2 9.88771,-17.5 2.1341,-3.3 6.13467,-10.388 8.89015,-15.7511 l 5.00995,-9.7512 2.45551,-7.7367 c 1.35053,-4.2552 2.45482,-8.4172 2.45398,-9.2489 -8.4e-4,-0.8316 1.56412,-8.0371 3.47769,-16.0121 1.91357,-7.975 4.00289,-17.7172 4.64294,-21.6494 l 1.16373,-7.1493 -0.63476,-11.8507 c -0.34912,-6.5178 -0.92098,-16.423 -1.27082,-22.0115 l -0.63606,-10.1608 1.16204,-11.3392 c 0.63912,-6.2365 1.64108,-12.9141 2.22658,-14.8391 0.5855,-1.925 2.19906,-6.425 3.58569,-10 1.38663,-3.575 3.16116,-7.7505 3.9434,-9.2788 l 1.42226,-2.7788 2.53845,-13.7212 c 1.39615,-7.5467 2.97808,-18.1503 3.5154,-23.5636 l 0.97694,-9.8423 -0.61811,-37.1577 c -0.33996,-20.4367 -0.73632,-45.0326 -0.8808,-54.6576 l -0.26268,-17.5 -5.59743,-10.7342 c -3.07859,-5.9039 -6.55558,-13.2951 -7.72664,-16.4251 l -2.1292,-5.6908 -0.57114,-9.5749 -0.57114,-9.575 -2.82072,-2.8132 -2.82073,-2.8133 -1.1794,-3.5736 -1.17941,-3.5736 0.46891,-7.1132 0.46891,-7.1131 2.26621,-4.9418 2.2662,-4.9419 -0.69891,-8.0121 -0.6989,-8.0122 -2.54563,-5.0235 c -1.40009,-2.763 -3.37385,-7.4308 -4.38613,-10.3731 -1.01228,-2.9422 -2.58244,-8.3079 -3.48924,-11.9237 l -1.64874,-6.5741 0.56049,-4.5988 c 0.30827,-2.5293 1.30641,-7.0738 2.21809,-10.0988 0.91168,-3.025 2.70842,-8.65 3.99274,-12.5 l 2.33514,-7 1.20394,-8.9789 1.20394,-8.979 -0.59639,-9.021 -0.59639,-9.0211 -1.10398,-3.1546 -1.10397,-3.1547 -4.68542,-2.0819 c -2.57698,-1.145 -5.81042,-2.7209 -7.18542,-3.502 -1.375,-0.7811 -6.67699,-3.502 -11.78221,-6.0465 -5.10521,-2.5445 -11.80341,-6.299 -14.88487,-8.3433 -3.08147,-2.0444 -6.32948,-4.167 -7.2178,-4.717 -0.88831,-0.55 -1.84012,-1.2565 -2.11512,-1.5699 -0.275,-0.3135 -3.17084,-2.5267 -6.43519,-4.9184 -3.26435,-2.3916 -6.7999,-5.0601 -7.85676,-5.9301 -1.05687,-0.8699 -4.2829,-3.8316 -7.16896,-6.5816 -2.88606,-2.75 -6.6215,-7.025 -8.30099,-9.5 -1.67949,-2.475 -5.58311,-7.65 -8.67472,-11.50003 -3.0916,-3.85 -8.61114,-11.275 -12.26565,-16.5 l -6.64455,-9.5 -8.19229,-16.1182 -8.19229,-16.1182 -3.19177,-10.3818 c -1.75547,-5.71 -3.61398,-11.7584 -4.13001,-13.4409 -0.51604,-1.6825 -1.36526,-6.6325 -1.88717,-11 -0.52191,-4.3675 -1.43394,-13.34088 -2.02674,-19.94088 -0.5928,-6.6 -1.16123,-15.6 -1.26318,-20 -0.10194,-4.4 -0.0694,-17.85509 0.0723,-29.90021 l 0.2576,-21.90021 -1.04979,-1.04979 -1.04984,-1.04979 0,-2.3 0,-2.3 -2.38499,0 -2.38499,0 -1.53755,2.34659 -1.53754,2.3466 -2.99168,1.23919 -2.99168,1.23919 -1.21059,2.92263 -1.21059,2.92263 -4.502314,1.99158 -4.50232,1.99159 -2.33896,0 c -1.28642,0 -3.81672,-0.62101 -5.62288,-1.38003 -1.80616,-0.75902 -4.89087,-1.88402 -6.85492,-2.5 -1.96405,-0.61598 -4.48584,-1.11997 -5.60398,-1.11997 l -2.03298,0 -2.64602,-2.45225 c -1.45531,-1.34874 -2.64602,-2.96819 -2.64602,-3.59879 0,-0.6306 1.39759,-2.45208 3.10575,-4.04775 1.70817,-1.59567 3.44929,-2.90121 3.86916,-2.90121 l 0.7634,0 0.59192,-3.25 c 0.32556,-1.7875 0.88692,-4.2625 1.24748,-5.5 l 0.65555,-2.25 -2.42954,0 -2.42954,0 -2.48972,2.75 c -1.36934,1.5125 -3.79711,4.70921 -5.39503,7.10381 l -2.90532,4.35381 -2.35391,0.89496 c -1.29466,0.49222 -5.41005,1.17899 -9.14533,1.52615 l -6.79141,0.63119 -4.01793,-3.62996 -4.01794,-3.62996 -1.5252,0 -1.52521,0 -3.03599,-3.4578 -3.03599,-3.45781 -0.68015,-4.53552 -0.68014,-4.53552 0.57912,-3.25668 0.57913,-3.25667 -1.46658,-1.94113 -1.46658,-1.94113 0,-2.68642 0,-2.68643 1.5,-1.24489 c 0.825,-0.68469 1.5,-1.85803 1.5,-2.60742 0,-0.74939 -1.40465,-3.64538 -3.12144,-6.43552 l -3.12144,-5.07298 0.5839,-3.59814 0.5839,-3.59814 2.58725,-2.7005 2.58725,-2.70051 3.81631,-1.1434 c 2.09897,-0.62886 4.79452,-1.14339 5.99012,-1.14339 l 2.17382,0 3.71016,-1.89359 c 2.04059,-1.04148 4.61017,-2.89627 5.71017,-4.12177 1.1,-1.2255 6.35067,-5.33952 11.66815,-9.14226 l 9.66816,-6.91407 0.68879,-4.07692 0.68879,-4.07692 2.52826,-5.52244 2.52826,-5.52244 3.95244,-3.95245 3.95244,-3.95244 3.38024,-1.41235 3.38023,-1.41235 2.65525,0 2.65525,0 5.79832,3.18764 5.798314,3.18764 1.5598,-1.29452 c 0.85789,-0.71198 7.91137,-4.39642 15.67441,-8.18764 7.76303,-3.79122 14.74647,-6.89312 15.51875,-6.89312 l 1.40415,0 0,-2.37756 0,-2.37755 1.5,-1.24489 1.5,-1.24489 0,-2.42301 0,-2.42301 2.45455,-2.45454 c 1.35,-1.35 2.91387,-2.45455 3.47528,-2.45455 0.5614,0 4.0186,-2.925 7.68267,-6.5 l 6.66193,-6.5 2.86279,0 2.86278,0 0,1 c 0,0.55 0.38931,1 0.86514,1 0.47583,0 2.06777,-0.94598 3.53764,-2.10219 l 2.6725,-2.10218 -1.28764,-1.56044 -1.28764,-1.56043 1.31314,-0.44176 c 0.72222,-0.24297 3.80633,-2.83735 6.85356,-5.7653 l 5.54043,-5.32353 -0.7123,-1.15253 c -0.39176,-0.63389 -1.08907,-5.8599 -1.54957,-11.61336 l -0.83728,-10.46083 1.39168,-7.9155 c 0.76542,-4.35352 2.05308,-9.84745 2.86145,-12.20872 0.80838,-2.36128 2.36399,-6.36576 3.45691,-8.89886 l 1.98713,-4.60562 1.67921,-0.64438 c 0.92357,-0.3544 2.57334,-0.64437 3.66615,-0.64437 l 1.98694,0 -0.63353,7.75 -0.63352,7.75 1.46784,8.15889 1.46784,8.1589 2.74131,6.3411 2.74131,6.34111 2.41141,2.25 c 1.32628,1.2375 2.85927,2.25 3.40664,2.25 0.54737,0 2.46754,-1.60713 4.26704,-3.57139 l 3.27182,-3.57139 4.1772,-0.56028 4.17719,-0.56028 0,-0.79878 0,-0.79878 -2.25,-0.31955 -2.25,-0.31955 0,-1.5 0,-1.5 -1.25,-0.79969 c -0.6875,-0.43983 -1.25,-1.22733 -1.25,-1.75 l 0,-0.95031 3.9349,0 3.9349,0 2.7943,1.06239 2.79431,1.06239 0.35413,-1.06239 0.35413,-1.06239 1.66666,0.006 c 0.91667,0.003 2.98174,0.69194 4.58904,1.53012 l 2.92236,1.52396 0.61877,-1.00117 c 0.34031,-0.55065 1.2059,-7.87671 1.92352,-16.28013 0.71762,-8.40342 1.51317,-15.61644 1.76789,-16.02894 l 0.46312,-0.75 2.67848,0 2.67847,0 6.51251,6.77845 6.51251,6.77844 4.75,11.68668 4.75,11.68668 0,9.99633 0,9.99633 4.25,1.07131 c 2.3375,0.58921 6.275,2.03335 8.75,3.20918 2.475,1.17584 5.85,3.13701 7.5,4.35816 1.65,1.22116 6.29668,3.86724 10.32595,5.88018 l 7.32595,3.6599 8.44416,7.1529 8.44416,7.15289 5.63451,7.04629 c 3.09898,3.87545 7.22757,9.52128 9.17464,12.54628 1.94707,3.025 6.07713,10.45 9.17791,16.5 3.10078,6.05 6.63646,13.7 7.85705,17 l 2.21928,6 2.95433,4 2.95434,4 8.44849,17 8.44848,17 1.07801,4.87672 c 0.5929,2.68219 1.57661,5.80836 2.18601,6.94704 0.6094,1.13868 2.66067,6.59416 4.55837,12.12328 1.8977,5.52913 4.08196,12.30296 4.85393,15.05296 l 1.40356,5 0.65069,8.20356 0.65069,8.20356 5.97154,5.59631 c 3.28434,3.07798 6.11671,5.45114 6.29416,5.27369 0.17744,-0.17744 0.33407,-2.78739 0.34806,-5.79987 0.014,-3.01249 -0.17532,-10.42725 -0.42069,-16.47725 l -0.44612,-11 -1.01031,-4.5 -1.01032,-4.5 0.0617,-5 c 0.0339,-2.75 -0.24008,-7.13621 -0.60888,-9.74714 l -0.67055,-4.74713 2.17946,-3.69392 2.17947,-3.69392 -0.69792,-9.30895 -0.69792,-9.30894 -0.88108,0 -0.88108,0 0,-1.86514 0,-1.86514 2.10938,-2.68164 2.10938,-2.68164 -0.70113,-5.70322 -0.70113,-5.70322 -1.52704,-1.71001 -1.52705,-1.71 0.63426,-3.38087 0.63425,-3.38087 -1.54416,-3.69569 -1.54416,-3.69569 1.04496,-3.88069 1.04497,-3.88069 -1.19748,-2.62817 -1.19747,-2.62816 1.81146,-5.03752 1.81147,-5.03751 -0.61019,-6.16706 c -0.3356,-3.39189 -0.90272,-9.16585 -1.26026,-12.83103 l -0.65007,-6.66395 0.61527,-2.45144 0.61528,-2.45144 5.75367,-4.73674 5.75367,-4.73674 6.01106,0.6683 6.01106,0.6683 8.35762,8.68384 c 4.59665,4.77611 9.43985,10.37133 10.76255,12.43383 l 2.4049,3.75 1.401,0 1.401,0 4.1305,7.16415 4.1304,7.16416 -0.5639,1.46951 -0.5639,1.46952 2.0162,3.41726 2.0163,3.41727 0.6272,3.9222 0.6271,3.92219 2.3765,3.22115 c 1.3071,1.77163 2.3765,3.75254 2.3765,4.40203 0,0.64948 1.5886,4.66666 3.5301,8.92708 1.9415,4.26041 5.5415,10.85562 8,14.65602 2.4585,3.8004 4.4699,7.29069 4.4699,7.7562 0,0.4655 0.5925,1.33812 1.3167,1.93915 0.7242,0.60103 3.7617,6.06651 6.75,12.14551 l 5.4333,11.05274 2,-0.63486 c 1.1,-0.34917 5.15,-0.84526 9,-1.10242 l 7,-0.46757 4,0.96369 c 2.2,0.53003 4.79,1.28983 5.7555,1.68844 l 1.7554,0.72474 1.5184,-3.85908 c 0.8351,-2.12249 2.5746,-6.10908 3.8655,-8.85908 1.2909,-2.75 3.416,-7.25 4.7225,-10 l 2.3754,-5 3.9222,-4.29473 3.9223,-4.29472 4.8387,-2.08155 4.8387,-2.08155 2.8475,-3.24309 2.8474,-3.2431 0.5126,-11.61446 0.5125,-11.61447 1.6347,-2.26617 c 0.8991,-1.24639 3.1365,-4.51616 4.9719,-7.26616 l 3.3372,-5 5.9108,-5.68989 c 3.251,-3.12944 7.5561,-6.95444 9.5669,-8.5 l 3.6561,-2.81011 1.253,-3.74704 1.253,-3.74704 -3.7911,-8.07871 -3.7911,-8.0787 0.5588,-5.67426 0.5588,-5.67425 5.4599,-10.78293 5.4599,-10.78292 1.6567,-6.71708 1.6567,-6.71707 2.7066,-5.682 2.7066,-5.682 4.7693,-2.02061 4.7693,-2.0206 1.7307,-3.25986 1.7307,-3.25987 5.1711,-5.16678 5.171,-5.16678 -0.5527,-4.12075 -0.5527,-4.12075 -2.194,0 -2.194,0 -2.0745,-2.25 c -1.141,-1.2375 -2.2371,-3.14483 -2.4358,-4.23852 l -0.3613,-1.98851 -1.7386,-0.33481 -1.7385,-0.33481 0,1.38623 0,1.38624 -2.8047,2.68709 c -1.5426,1.47806 -3.3388,2.68725 -3.9915,2.68725 l -1.1869,0 -1.249,2 -1.249,2 -1.2595,0 -1.2594,0 0,1.77749 0,1.7775 -1.6037,2.28966 -1.6038,2.28966 0.4651,2.43284 0.4651,2.43285 -0.7389,0 c -0.4064,0 -1.2991,-0.675 -1.9838,-1.5 l -1.2449,-1.5 -1.8185,0 -1.8186,0 -0.618,1 -0.618,1 1.118,0 1.118,0 -0.618,1 c -0.3399,0.55 -1.2437,1 -2.0083,1 l -1.3903,0 -3.0294,-3.24141 c -1.6661,-1.78277 -3.5412,-4.47706 -4.1667,-5.98729 l -1.1374,-2.74588 -0.884,0.54631 -0.8839,0.5463 -0.1276,-1.80901 c -0.07,-0.99496 -0.2334,-2.81341 -0.3626,-4.041 -0.1293,-1.22759 -0.7971,-2.90924 -1.4841,-3.73701 l -1.249,-1.50504 0.6163,-2.45568 0.6163,-2.45568 -1.1418,-2.50603 -1.1418,-2.50602 3.1371,-4.88883 3.1372,-4.88882 0,-1.66246 0,-1.66245 -1.4286,0 c -0.7857,0 -2.1357,-0.70714 -3,-1.57143 l -1.5714,-1.57143 0,-3.32158 0,-3.32158 -1.5,-0.57561 -1.5,-0.5756 0,1.46861 0,1.46862 -0.8,0 c -0.44,0 -1.34,-0.54 -2,-1.2 l -1.2,-1.2 0,-4.1 0,-4.1 0.8884,-0.95 0.8883,-0.95 0.4544,-12.01743 0.4543,-12.01743 1.751,-3.6899 c 0.963,-2.02944 2.7695,-4.7216 4.0143,-5.98257 l 2.2633,-2.29267 0.6621,-3.61008 0.662,-3.61007 -3.6475,-5.3026 -3.6476,-5.30259 0.6195,-6.66486 0.6194,-6.66486 -2.491,-2.16586 -2.4909,-2.16585 0.01,-5.25662 0.01,-5.25661 2.3593,-5 c 1.2976,-2.75 3.8121,-6.8 5.5876,-9 1.7756,-2.2 3.8872,-5.26862 4.6924,-6.81915 l 1.464,-2.81916 -0.1944,-16.18084 -0.1944,-16.18085 1.0288,-2.5411 c 0.5659,-1.3976 1.759,-3.14709 2.6514,-3.88776 0.8925,-0.74066 2.2612,-2.74717 3.0417,-4.4589 0.7805,-1.71173 2.0926,-4.78372 2.9157,-6.82665 l 1.4966,-3.71441 2.3159,-0.49825 c 1.2737,-0.27405 7.0409,-0.69765 12.8159,-0.94134 l 10.5,-0.44308 15.3302,2.44484 c 8.4316,1.34466 17.2066,3.05553 19.5,3.80194 2.2933,0.7464 5.9698,1.66659 8.1698,2.04486 l 4,0.68778 3,1.78658 3,1.78659 3.7055,0.55936 3.7055,0.55936 6.7945,3.99704 6.7945,3.99705 10.9158,9.08576 10.9159,9.08576 7.8341,10.06413 7.8342,10.06414 0,3.49508 0,3.49508 -2.4585,4.17807 -2.4585,4.17807 -1.8941,1.16643 -1.8942,1.16644 -0.6407,4.67418 -0.6406,4.67419 -1.8814,4.15938 -1.8815,4.15938 -5.6925,6.5 -5.6924,6.5 0.5711,2.5 c 0.3142,1.375 0.8587,5.75416 1.2102,9.73146 l 0.6389,7.23147 -1.6968,4.44301 -1.6968,4.44301 -8.4461,8.67743 -8.4461,8.67742 4e-4,4.1481 5e-4,4.1481 4.9801,4.28871 4.98,4.28872 2.5407,4.33535 2.5407,4.33536 5.8472,1.15037 5.8472,1.15037 7.8546,4.72556 7.8545,4.72556 5.9272,8.5 5.9272,8.5 4.6882,10.5 4.6883,10.5 4.6087,14.5 c 2.5349,7.975 5.7799,18.55 7.2112,23.5 1.4314,4.95 3.8176,12.93278 5.3029,17.73951 l 2.7004,8.73951 0.9153,-0.29462 0.9153,-0.29461 8.1784,-24.4449 c 4.4976,-13.44469 12.555,-37.71989 17.9049,-53.94489 5.3498,-16.225 11.4888,-34.45 13.6422,-40.5 2.1534,-6.05 8.6056,-25.625 14.3383,-43.5 5.7327,-17.875 12.9638,-40.6 16.0692,-50.5 3.1054,-9.9 8.5771,-27.225 12.1594,-38.5 3.5823,-11.275 8.2326,-25.675 10.334,-32 2.1014,-6.325 7.2045,-21.85 11.3403,-34.5 4.1359,-12.65 9.5479,-29.3 12.0268,-37 2.4789,-7.7 8.6452,-26.825 13.7029,-42.5 5.0577,-15.675 10.8995,-33.675 12.9818,-40 2.0823,-6.325 7.2595,-22.3 11.5049,-35.5 4.2454,-13.2 8.1675,-24.55757 8.7157,-25.23904 l 0.9968,-1.23904 -0.6272,-3.34341 -0.6273,-3.34341 1.9665,-1.77963 1.9665,-1.77962 -0.5771,-2.88545 -0.5771,-2.88544 1.0267,-1.25248 c 0.5647,-0.68886 1.5516,-3.21518 2.1931,-5.61403 l 1.1664,-4.36156 1.9314,-0.50508 1.9314,-0.50507 0,-0.90812 0,-0.90812 2.348,-0.89273 2.3481,-0.89272 0.7354,-7.33252 c 0.4045,-4.03289 1.0633,-11.382533 1.464,-16.332533 l 0.7285,-9 8.7604,-16.5 c 4.8182,-9.075 10.3533,-19.0875 12.3001,-22.25 l 3.5398,-5.75 1.3879,0 1.3878,0 -0.024,1.75 c -0.013,0.9625 -0.4466,3.55 -0.9633,5.75 -0.5167,2.2 -1.8739,11.875 -3.016,21.5 l -2.0766,17.5 -1.9484,5.57061 c -1.0716,3.06384 -3.062,7.56384 -4.423,10 -1.3609,2.436173 -3.8882,7.241893 -5.6161,10.679393 l -3.1417,6.25 -0.818,0 -0.8179,0 -0.9961,3.25 c -0.5479,1.7875 -1.2973,7.06132 -1.6654,11.7196 l -0.6694,8.4696 -1.4121,2.73074 c -0.7766,1.50191 -1.412,3.52368 -1.412,4.49284 l 0,1.76209 -2.4548,2.03757 -2.4549,2.03756 -7.1459,22.5 c -3.9303,12.375 -7.7306,24.525 -8.4451,27 -0.7146,2.475 -5.4229,17.1 -10.463,32.5 -5.04,15.4 -11.1351,33.85 -13.5445,41 -2.4094,7.15 -8.501,26.05 -13.5369,42 -5.0359,15.95 -11.6234,36.875 -14.6388,46.5 -3.0155,9.625 -6.1506,19.75 -6.9668,22.5 -0.8163,2.75 -3.5245,11.525 -6.0183,19.5 -2.4938,7.975 -6.5825,21.025 -9.0861,29 -2.5036,7.975 -19.9404,61.075 -38.7486,118 -18.8082,56.925 -35.127,106.425 -36.264,110 -1.1371,3.575 -3.7302,10.04402 -5.7627,14.37559 l -3.6953,7.87559 1.0631,5.29351 1.0631,5.29351 -0.512,3.8309 c -0.2816,2.10699 -0.9747,6.86761 -1.5403,10.57915 l -1.0283,6.74824 2.2217,4.58947 2.2217,4.58947 -0.5004,9.16229 -0.5005,9.16228 -3.6312,8.94433 -3.6312,8.94432 0,2.22889 0,2.22889 3.9127,7.32679 3.9127,7.32678 2.4771,7.5 c 1.3625,4.125 2.9877,9.75 3.6117,12.5 0.6239,2.75 1.5791,8.6 2.1226,13 0.5435,4.4 1.4787,14.525 2.0781,22.5 l 1.09,14.5 -0.5493,15.16066 -0.5493,15.16066 9.6969,0.65117 9.6968,0.65116 2,0.85315 c 1.1,0.46923 5.0341,1.57058 8.7425,2.44746 3.7083,0.87687 9.2768,2.71513 12.3744,4.08503 3.0976,1.36989 6.1085,2.49071 6.6908,2.49071 0.5824,0 5.3011,2.56659 10.4859,5.70354 l 9.427,5.70354 1.5331,2.5465 c 0.8431,1.4005 2.3548,3.7472 3.3593,5.2148 1.0044,1.4677 2.3912,4.4787 3.0817,6.6912 l 1.2555,4.0227 8.5409,4.0589 c 4.6975,2.2323 9.2367,4.0588 10.0871,4.0588 0.8504,0 3.4089,0.9 5.6857,2 2.2767,1.1 4.7937,2 5.5933,2 0.7996,0 3.1838,0.838 5.2983,1.8621 2.1145,1.0241 5.8695,2.8405 8.3445,4.0365 2.475,1.1959 7.2,3.9264 10.5,6.0679 3.3,2.1414 8.7803,5.0352 12.1784,6.4306 3.3981,1.3954 10.9987,4.9145 16.8901,7.82 l 10.7118,5.2829 4.1098,3.6034 4.1099,3.6035 6.0666,2.1465 6.0666,2.1466 5.77953,0 5.7795,0 5.6539,-1.5784 c 3.1096,-0.8682 8.1289,-2.5532 11.1539,-3.7445 l 5.5,-2.1659 13.9312,-8.3565 c 7.6621,-4.5961 14.6371,-8.6093 15.5,-8.9183 0.8628,-0.309 2.6938,-1.3121 4.0688,-2.2291 1.375,-0.917 5.2,-2.6169 8.5,-3.7775 3.3,-1.1607 8.7,-2.9247 12,-3.92 l 6,-1.8098 26,-0.1217 26,-0.1217 6.3244,-0.7539 6.3245,-0.7538 1.1255,1.1256 1.1256,1.1255 -5.7,0 -5.7,0 0,1 0,1 2.1288,0 c 1.1708,0 5.7833,1.2107 10.25,2.6904 4.4667,1.4798 9.2462,3.4355 10.6212,4.346 1.375,0.9106 6.1,3.3617 10.5,5.4468 l 8,3.7912 9.5558,9.6128 9.5558,9.6128 6.8763,9 c 3.782,4.95 8.4819,11.47603 10.4442,14.50233 1.9624,3.0262 4.9179,7.28 6.5679,9.4528 1.65,2.1728 4.7431,5.6593 6.8736,7.7478 l 3.8736,3.7971 -1.1236,0 -1.1236,0 0,1.4758 c 0,0.8117 0.7875,2.7579 1.75,4.3248 0.9625,1.5669 3.4259,4.3143 5.4743,6.1052 2.0484,1.791 5.3487,5.4691 7.3339,8.1735 l 3.6096,4.9173 -0.4528,1.2517 -0.4528,1.2517 -1.2689,-2.7002 -1.269,-2.7002 -3.0114,-1.0498 c -1.6562,-0.5774 -3.1692,-1.0498 -3.3621,-1.0498 -0.193,0 -0.3508,0.9066 -0.3508,2.0147 l 0,2.0147 3.25,1.9816 3.25,1.9815 -2.25,0 c -1.2375,0 -2.25,0.1442 -2.25,0.3159 0,0.1717 0.8472,2.0842 1.8826,4.25 1.0354,2.1658 2.1962,5.5128 2.5795,7.4378 0.3832,1.925 2.2654,7.775 4.1825,13 1.9172,5.225 4.5431,11.75 5.8355,14.5 1.2923,2.75 2.9081,6.9087 3.5905,9.2415 l 1.2409,4.2414 -1.8149,4.0247 -1.8149,4.0247 2.3335,2.4838 2.3334,2.4839 2.0168,0 2.0169,0 -1.8447,1.3489 -1.8447,1.3489 3.1535,6.3108 c 1.7345,3.471 3.1536,6.9043 3.1536,7.6297 l 0,1.3188 -2.5271,-1.1514 -2.5272,-1.1514 -1.1826,1.1826 -1.1827,1.1827 1.7811,3.0153 1.7812,3.0153 -0.2002,15.2249 -0.2002,15.2249 0.61,2.5 c 0.3354,1.375 1.3092,10.1466 2.1639,19.4924 l 1.5539,16.9925 1.965,7.8949 1.9649,7.895 -0.1201,5.6126 -0.1201,5.6126 -0.9307,-4.5 c -0.5119,-2.475 -2.56,-11.4191 -4.5513,-19.8758 l -3.6207,-15.3758 -1.4086,1.8758 -1.4086,1.8758 0.4366,10 0.4365,10 1.5634,5 c 0.8598,2.75 2.1177,8.825 2.7952,13.5 l 1.2319,8.5 1.6921,4 c 0.9307,2.2 1.9793,5.8285 2.3302,8.0632 0.351,2.2348 1.4892,6.7348 2.5294,10 1.0403,3.2653 2.6054,10.4368 3.478,15.9368 0.8726,5.5 1.8799,14.275 2.2384,19.5 l 0.6518,9.5 -0.5398,-0.5114 c -0.2969,-0.2813 -1.2285,-5.2313 -2.0703,-11 -0.8417,-5.7688 -2.4618,-14.8932 -3.6001,-20.2765 -1.1384,-5.3834 -3.2295,-13.4591 -4.647,-17.9462 -1.4174,-4.487 -3.2716,-9.218 -4.1203,-10.5134 l -1.5432,-2.3552 -0.9817,0.9817 -0.9816,0.9816 1.2011,8.3197 c 0.6606,4.5758 1.5961,10.7947 2.0788,13.8197 l 0.8776,5.5 0.069,12.5 0.069,12.5 0.9282,5.5 c 0.5105,3.025 1.4364,12.25 2.0574,20.5 0.6211,8.25 1.5456,18.0112 2.0545,21.6916 0.5089,3.6803 0.9253,8.8733 0.9253,11.5399 l 0,4.8483 1.5445,5.9299 1.5446,5.9298 0.9562,10.0303 0.9562,10.0302 -0.6296,4.75 -0.6296,4.75 -0.8099,0 -0.8099,0 -0.5214,-4.25 c -0.2868,-2.3375 -1.0139,-8.75 -1.6157,-14.25 l -1.0942,-10 -1.5231,-5.4206 c -0.8378,-2.9814 -2.1758,-9.9564 -2.9735,-15.5 -0.7976,-5.5437 -1.893,-14.8044 -2.4341,-20.5794 -0.5411,-5.775 -1.4205,-12.6218 -1.9542,-15.2152 l -0.9703,-4.7152 0.5502,-1.4336 0.5501,-1.4337 -0.9548,-0.5901 -0.9549,-0.5902 -1.1668,1.4059 -1.1667,1.4059 1.0887,19.3331 c 0.5989,10.6332 1.5229,23.1886 2.0535,27.9008 0.5306,4.7123 0.9863,11.6873 1.0127,15.5 0.026,3.8128 0.641,11.6573 1.3658,17.4323 0.7248,5.775 2.0633,14.325 2.9743,19 0.9111,4.675 2.3881,11.875 3.2824,16 l 1.6258,7.5 -0.122,11.9569 -0.122,11.957 1.4739,6.3551 1.4738,6.3551 0,9.438 0,9.4379 -0.875,0 -0.875,0 -0.625,-3.125 c -0.3437,-1.7188 -0.6332,-6.1063 -0.6432,-9.75 l -0.018,-6.625 -1.8868,-11.5 -1.8868,-11.5 -1.2987,-3 -1.2988,-3 -0.3832,3.5 -0.3833,3.5 1.1485,9.1639 1.1484,9.1639 -0.6972,3.7166 -0.6973,3.7166 1.2145,7.1195 c 0.668,3.9157 1.8541,10.2122 2.6358,13.9922 0.7817,3.7799 1.4213,7.9424 1.4213,9.25 l 0,2.3773 -0.8634,0 -0.8633,0 -1.2872,-6.0654 -1.2872,-6.0655 -0.7599,1.2296 -0.7599,1.2296 0.5548,7.3359 0.5548,7.3358 -1.0084,0 -1.0085,0 -0.6359,-4.6396 c -0.3497,-2.5517 -0.6359,-6.6992 -0.6359,-9.2165 l 0,-4.577 -1.4306,-4.0335 c -0.7869,-2.2184 -1.6955,-5.2709 -2.0191,-6.7834 l -0.5884,-2.75 -1.119,0 -1.1191,0 0.6403,6.25 c 0.3521,3.4375 1.0725,10.525 1.6008,15.75 0.5283,5.225 1.2357,10.625 1.5721,12 l 0.6114,2.5 -1.5162,-1.8618 -1.5162,-1.8619 -0.6203,-5.6381 c -0.3412,-3.101 -0.853,-6.8757 -1.1375,-8.3882 l -0.5171,-2.75 -1.8136,0 -1.8135,0 -0.5664,1.4759 -0.5664,1.476 2.4713,15.774 c 1.3592,8.6758 2.7628,19.5576 3.119,24.1818 l 0.6478,8.4077 -1.1597,-0.7167 -1.1596,-0.7167 -0.015,-3.691 -0.015,-3.691 -1.9335,-7.6719 c -1.0634,-4.2196 -2.8334,-12.335 -3.9332,-18.0342 -1.0998,-5.6991 -2.296,-11.1343 -2.6581,-12.078 -0.3622,-0.9438 -1.0745,-1.7159 -1.5829,-1.7159 -0.5084,0 -1.193,0.6999 -1.5212,1.5554 l -0.5969,1.5555 1.2031,7.6945 c 0.6618,4.232 2.5404,14.2196 4.1747,22.1946 1.6344,7.975 3.3981,16.975 3.9194,20 0.5212,3.025 0.9503,8.6799 0.9535,12.5663 l 0.01,7.0664 1.0623,5.7467 c 0.5843,3.1606 0.8755,6.2808 0.6472,6.9336 l -0.4151,1.187 -3.1754,-6.5 -3.1754,-6.5 -1.4542,-11.999 c -0.7998,-6.5994 -2.1702,-15.1494 -3.0453,-19 -0.8751,-3.8505 -2.0368,-8.801 -2.5816,-11.001 -0.5447,-2.2 -1.4504,-6.3278 -2.0126,-9.1729 l -1.0221,-5.173 -1.9375,-1.7534 -1.9376,-1.7534 -1.0191,1.0191 -1.0192,1.0192 1.0579,14.9072 c 0.5819,8.199 1.4761,17.6072 1.9872,20.9072 0.5111,3.3 1.1624,9.0375 1.4473,12.75 l 0.5179,6.75 -0.9433,0 -0.9433,0 -0.5221,-2.25 c -0.2871,-1.2375 -1.1846,-5.4892 -1.9944,-9.4483 -0.8098,-3.959 -2.6531,-10.484 -4.0963,-14.5 -1.4431,-4.0159 -3.0146,-8.6517 -3.4922,-10.3017 -0.4777,-1.65 -1.8454,-6.477 -3.0395,-10.7266 l -2.1711,-7.7267 -1.9619,-0.6227 -1.9619,-0.6227 -1.0994,1.0994 -1.0994,1.0994 1.2897,6.2441 c 0.7093,3.4343 2.3686,9.6218 3.6873,13.75 1.3186,4.1282 2.4128,8.4058 2.4314,9.5058 0.019,1.1 1.1474,5.15 2.5084,9 1.361,3.85 2.4749,7.675 2.4752,8.5 l 6e-4,1.5 -1.9562,-3.2083 c -1.0759,-1.7646 -2.6504,-5.5896 -3.4989,-8.5 -0.8485,-2.9104 -2.9154,-8.6594 -4.593,-12.7754 l -3.0503,-7.4837 -2.4649,-10.231 c -1.3557,-5.6271 -2.73,-10.9219 -3.054,-11.7663 -0.3241,-0.8444 -0.995,-1.5353 -1.4909,-1.5353 l -0.9018,0 0.4807,5.25 c 0.2644,2.8875 0.7384,14.25 1.0533,25.25 l 0.5726,20 -1.6618,-1.6529 -1.6617,-1.6529 -2.7538,-14.3471 c -1.5146,-7.8909 -3.2956,-17.5697 -3.9578,-21.5085 l -1.204,-7.1614 -1.406,-1.8386 -1.406,-1.8386 -1.0037,1.5 c -0.552,0.825 -1.0106,2.5606 -1.019,3.8569 -0.01,1.2963 0.657,5.3463 1.4787,9 0.8217,3.6537 2.7888,12.4931 4.3714,19.6431 l 2.8774,13 -0.5821,0.9955 -0.5821,0.9954 -2.0849,-6.6793 c -1.1467,-3.6736 -2.6114,-7.7215 -3.2549,-8.9954 -0.6435,-1.2739 -1.8992,-5.2307 -2.7905,-8.7928 -0.8913,-3.5622 -2.0394,-7.2593 -2.5513,-8.2158 -0.5119,-0.9566 -1.6157,-5.6671 -2.4529,-10.468 l -1.5222,-8.7288 -1.211,-1.4685 -1.2109,-1.4685 -0.5283,5.1692 -0.5284,5.1691 0.6106,18.5574 0.6106,18.5575 -0.5883,3.6192 -0.5882,3.6192 -1.6997,-5.9327 c -0.9348,-3.263 -2.2198,-9.0827 -2.8556,-12.9327 -0.6358,-3.85 -1.4728,-9.7 -1.8601,-13 -0.3872,-3.3 -1.3137,-7.9307 -2.0587,-10.2905 l -1.3547,-4.2905 -1.4724,0.2905 c -0.8099,0.1598 -1.9493,1.0477 -2.5321,1.9732 l -1.0596,1.6827 2.1384,4.8173 2.1385,4.8173 0.4939,12 0.4939,12 -0.9829,-1.7559 -0.9828,-1.7558 -0.7731,-11.5202 -0.7731,-11.5202 -1.1739,-1.1739 -1.174,-1.174 -1.2322,1.2322 -1.2322,1.2322 0.104,3.9678 c 0.057,2.1823 -0.086,3.9678 -0.3188,3.9678 -0.2326,0 -1.0912,-1.5997 -1.9082,-3.5548 -0.8169,-1.9552 -2.3383,-7.4677 -3.381,-12.25 -1.0427,-4.7824 -2.6453,-11.6202 -3.5615,-15.1952 -0.9162,-3.575 -2.2967,-8.7896 -3.0679,-11.5879 l -1.4022,-5.0879 0.01,-3.9121 c 0,-2.1517 -0.6507,-6.8371 -1.4563,-10.4121 -0.8055,-3.575 -2.1259,-11.9 -2.9341,-18.5 l -1.4695,-12 -1.5681,-3 -1.5681,-3 -0.01,-4 c -0.01,-2.2 -0.6754,-8.05 -1.4887,-13 l -1.4788,-9 0.034,-12 c 0.019,-6.6 0.3854,-15.15 0.8151,-19 l 0.7812,-7 -0.9085,-4 c -0.4997,-2.2 -1.0502,-6.25 -1.2234,-9 -0.1732,-2.75 -0.7966,-6.8 -1.3853,-9 -0.5887,-2.2 -1.3584,-8.05 -1.7104,-13 l -0.6401,-9 1.6418,-5.6451 1.6417,-5.6451 -0.2904,-8.8436 -0.2905,-8.8437 -1.6107,-0.3077 -1.6107,-0.3078 -2.1222,5.7965 c -1.1672,3.1881 -2.4402,7.3715 -2.8288,9.2965 -0.3887,1.925 -0.7678,7.775 -0.8425,13 -0.075,5.225 -0.2348,14.45 -0.3556,20.5 l -0.2197,11 -1.3104,-3 -1.3104,-3 -1.2587,4.5 c -0.6923,2.475 -1.5245,5.175 -1.8493,6 l -0.5905,1.5 -0.6862,-15.5 -0.6861,-15.5 0.486,-2.1969 0.486,-2.1969 -1.1727,-3.5531 -1.1726,-3.5531 -0.843,0 -0.843,0 -0.618,3.25 c -0.3399,1.7875 -1.1092,5.1625 -1.7094,7.5 l -1.0914,4.25 -0.8701,0 c -0.4785,0 -0.87,-0.395 -0.87,-0.8779 0,-0.4828 0.675,-2.4934 1.5,-4.4679 l 1.5,-3.59 0,-3.8206 0,-3.8207 -1.9961,-3.9153 -1.9962,-3.9153 0.9962,-0.9962 0.9961,-0.9961 0,-2.5884 c 0,-1.4236 -0.8264,-4.935 -1.8364,-7.8031 -1.0101,-2.8681 -2.1351,-5.5133 -2.5,-5.8783 -0.365,-0.3649 -0.6636,-1.6444 -0.6636,-2.8432 l 0,-2.1797 1.7265,-3.4037 1.7264,-3.4036 -0.2255,-5.4997 -0.2256,-5.4997 -1.0009,-0.3336 -1.0009,-0.3337 0,-6.4663 0,-6.4663 -1.4265,-2.7586 -1.4265,-2.7585 -0.064,-22.7753 -0.064,-22.7753 1.4588,-8.1665 1.4587,-8.1665 3.1019,-7.5 3.1018,-7.5 2.4674,-10.5 c 1.357,-5.775 3.6279,-14.325 5.0464,-19 1.4184,-4.675 3.2078,-9.5062 3.9764,-10.736 l 1.3974,-2.236 0.6451,-6.1712 0.645,-6.1712 -1.2507,0.7729 -1.2507,0.773 0.6701,-10.8658 c 0.3685,-5.9761 0.7352,-19.8657 0.8149,-30.8657 l 0.1449,-20 -1.7885,-9 -1.7885,-9 -3.0797,-8.2826 -3.0797,-8.2825 -7.8658,-7.3997 -7.8659,-7.3996 -2.9891,-1.4912 c -1.644,-0.8201 -2.9891,-1.2484 -2.9891,-0.9517 0,0.2966 1.6133,2.7371 3.5852,5.4233 1.9718,2.6862 3.3483,4.884 3.0588,4.884 -0.2895,0 -2.7945,-2.1746 -5.5666,-4.8325 -2.7721,-2.6579 -6.6058,-5.6757 -8.5193,-6.7062 l -3.4791,-1.8736 -0.5829,0.5828 -0.5828,0.5828 6.0434,6.0434 6.0433,6.0433 -4e-4,1.33 -4e-4,1.33 -5.3418,-5.5 c -2.938,-3.025 -6.7313,-6.5206 -8.4295,-7.768 l -3.0876,-2.268 -0.5912,0.9566 -0.5912,0.9565 1.2711,0.8114 c 0.699,0.4463 2.9935,2.764 5.0987,5.1504 2.1053,2.3864 3.6086,4.5582 3.3406,4.8261 -0.2679,0.2679 -4.4051,-2.5023 -9.1938,-6.156 l -8.7067,-6.6432 -5.1984,0.2408 -5.1984,0.2408 -1.2647,-0.7817 -1.2648,-0.7817 -6.6708,0.6908 c -3.6689,0.3799 -10.2707,1.606 -14.6707,2.7247 -4.4,1.1186 -8.7875,2.4472 -9.75,2.9523 l -1.75,0.9186 0,1.4328 0,1.4329 2.426,1.282 2.4259,1.2819 3.5388,4.6439 c 1.9464,2.5541 5.3994,8.1144 7.6734,12.3563 l 4.1346,7.7125 2.964,8.6437 2.964,8.6436 1.8583,13 c 1.022,7.15 1.8528,14.125 1.8463,15.5 -0.01,1.375 0.074,11.4098 0.1799,22.2996 l 0.192,19.7997 -2.6542,3.83 -2.6542,3.83 0.6703,7.3977 0.6704,7.3976 -1.5904,7.4727 c -0.8748,4.11 -2.0516,11.7477 -2.6152,16.9727 l -1.0247,9.5 -0.4496,21 -0.4495,21 -1.027,7 c -0.5648,3.85 -1.6967,11.275 -2.5153,16.5 -0.8186,5.225 -1.9654,12.2 -2.5485,15.5 -0.5831,3.3 -1.4988,9.3396 -2.0349,13.4213 l -0.9747,7.4213 -0.051,12.0787 -0.051,12.0787 2.0094,7.5 c 1.1051,4.125 2.6661,9.3154 3.4688,11.5343 0.8027,2.2188 4.0826,9.4409 7.2887,16.049 3.206,6.6082 7.4042,15.3677 9.3292,19.4658 1.925,4.098 3.8547,7.9009 4.2883,8.4509 0.4335,0.55 4.0633,5.5 8.0661,11 l 7.2778,10 4.0788,2.6947 c 2.2434,1.482 7.1724,5.757 10.9535,9.5 3.781,3.7429 8.9976,9.5762 11.5923,12.9628 l 4.7178,6.1575 0.6138,8.8425 c 0.3376,4.8634 1.0042,10.6425 1.4812,12.8425 0.477,2.2 2.2473,9.85 3.934,17 l 3.0668,13 0.8812,9.5 c 0.4847,5.225 1.1357,10.625 1.4467,12 0.3109,1.375 0.7847,4.525 1.0529,7 0.2681,2.475 1.1763,7.1095 2.0182,10.2988 0.8418,3.1893 1.5306,6.9314 1.5306,8.3157 0,1.3844 0.502,3.455 1.1156,4.6015 l 1.1155,2.0844 0.7589,6.0998 0.7589,6.0998 2.1154,4.5 2.1154,4.5 0.4821,4.7874 0.4821,4.7873 3.4613,6.2127 3.4612,6.2126 4.1239,11 c 2.2681,6.05 6.2911,16.4 8.9399,23 2.6487,6.6 5.4948,14.025 6.3245,16.5 0.8298,2.475 2.0029,6.975 2.6069,10 0.6041,3.025 1.3305,10.1039 1.6142,15.7309 l 0.5159,10.2309 -2.5162,5.7691 -2.5162,5.7691 -2.551,2.0945 -2.551,2.0944 -0.9403,4.1849 -0.9403,4.1849 2.2388,4.7206 2.2388,4.7207 0.023,9.223 0.023,9.223 -3.3206,3.0351 -3.3206,3.0351 -6.4676,3.4322 -6.4675,3.4322 -7.6129,1.6937 -7.6128,1.6936 -7.2221,-0.6105 -7.2222,-0.6104 -2.3769,-0.9888 c -1.3072,-0.5438 -3.4433,-1.9077 -4.7467,-3.0309 l -2.37,-2.0421 3.3009,-9.2426 c 1.8155,-5.0834 3.8696,-10.1426 4.5646,-11.2426 0.695,-1.1 1.7272,-4.0784 2.2938,-6.6186 0.5666,-2.5402 1.4963,-5.8445 2.066,-7.3429 l 1.0358,-2.7244 4.9894,-5.0157 4.9894,-5.0157 0,-4.1642 0,-4.1641 -3.161,-7.9772 -3.1611,-7.9772 -0.709,-21.5 -0.709,-21.5 -1.1079,-5.5 c -0.6094,-3.025 -2.0486,-11.4075 -3.1982,-18.6278 -1.1497,-7.2203 -2.9846,-16.4453 -4.0776,-20.5 -1.0929,-4.0547 -2.6698,-10.4769 -3.5041,-14.2716 l -1.5169,-6.8995 -4.4736,-10.992 -4.4736,-10.992 -7.0197,-10.3126 -7.0196,-10.3126 -6.8356,-5.0674 -6.8356,-5.0674 -0.5987,-1.5603 c -0.3294,-0.8582 -0.6033,-2.9861 -0.6089,-4.7286 l -0.01,-3.1682 -3.3286,-9.5267 -3.3287,-9.5266 -4.5361,-8.6689 c -2.4948,-4.7678 -6.2057,-10.9433 -8.2464,-13.7233 l -3.7103,-5.0545 -1.4043,0 -1.4042,0 -5.3296,-4.75 c -2.9313,-2.6125 -7.3235,-6.4811 -9.7606,-8.5969 -2.437,-2.1158 -8.6433,-7.9658 -13.7916,-13 l -9.3606,-9.1531 -5.83383,-8 -5.8337,-8 -7.9729,-6.28 -7.973,-6.28 -6.8945,-8.22 c -3.7919,-4.521 -9.9574,-12.495 -13.7011,-17.72 -3.7436,-5.225 -8.6658,-11.3422 -10.9382,-13.5938 -2.2724,-2.2517 -8.4066,-8.8001 -13.6316,-14.5521 -5.225,-5.752 -10.5623,-11.2808 -11.8606,-12.2862 l -2.3606,-1.8281 -0.6394,1.0043 c -0.3517,0.5523 -2.2144,1.9592 -4.1394,3.1263 l -3.5,2.1221 -3.711,0 -3.7111,0 -2.109,-2.25 -2.109,-2.25 -1.4638,1.9874 -1.4637,1.9873 0.6219,18.0127 0.6219,18.0126 1.4119,7.2078 c 0.7765,3.9644 1.4119,8.3212 1.4119,9.6818 l 0,2.474 2.9112,7.8956 c 1.6012,4.3426 4.2138,10.5608 5.8059,13.8182 1.5921,3.2574 5.5548,10.4226 8.806,15.9226 l 5.9114,10 5.4508,6.5 c 2.9979,3.575 8.3619,9.7699 11.92,13.7664 l 6.4693,7.2665 0.8191,4.2335 c 0.4506,2.3285 0.8388,5.7406 0.8627,7.5825 l 0.043,3.3488 -1.7053,3.6512 c -0.9379,2.0081 -4.2564,7.0261 -7.3744,11.1511 l -5.6691,7.5 -2.6922,9 c -1.4808,4.95 -3.5623,11.505 -4.6256,14.5666 -1.0633,3.0616 -1.9434,6.2116 -1.9558,7 -0.012,0.7884 -1.2755,3.9084 -2.8072,6.9334 -1.5316,3.025 -4.4985,8.425 -6.5932,12 -2.0946,3.575 -4.6564,8.9329 -5.6928,11.9066 l -1.8844,5.4065 0,3.1001 0,3.1001 -2.9063,8.4933 c -1.5984,4.6714 -3.6427,10.4684 -4.5428,12.8822 l -1.6366,4.3888 -1.4619,10.6112 c -0.804,5.8362 -2.3118,15.3362 -3.3506,21.1112 l -1.8886,10.5 -1.4953,3.5 c -0.8224,1.925 -2.5037,7.55 -3.7363,12.5 -1.2325,4.95 -2.5998,11.925 -3.0383,15.5 l -0.7974,6.5 -2.4068,5.5 c -1.3237,3.025 -3.4396,8.7676 -4.7019,12.7613 l -2.2952,7.2613 -3.596,3.4927 -3.5959,3.4927 -2.025,0.6084 c -1.1138,0.3345 -3.2706,1.7747 -4.793,3.2002 l -2.7679,2.592 -7.2321,0.105 c -3.9776,0.058 -8.1996,0.4319 -9.3821,0.8314 l -2.1501,0.7263 0.5551,4.2144 0.5551,4.2143 1.4613,2.2521 1.4614,2.252 -0.4032,6.3324 -0.4033,6.3324 -2.4631,3.0157 -2.4632,3.0157 -4.5,2.0704 c -2.475,1.1387 -7.2649,2.7811 -10.6443,3.6498 l -6.1443,1.5795 -7.3557,-0.1169 z m -397.74011,-415.4545 0.88441,-0.5466 0,-2.8186 0,-2.8185 1.4138,-1.1734 c 0.77759,-0.6453 2.40153,-3.2879 3.60875,-5.8724 1.20722,-2.5845 3.7908,-7.3991 5.74128,-10.6991 1.95049,-3.3 4.37655,-7.2193 5.39126,-8.7095 1.0147,-1.4902 1.84491,-2.9132 1.84491,-3.1621 0,-0.2489 -1.9125,-0.7431 -4.25,-1.0982 -2.3375,-0.3551 -7.06324,-1.6031 -10.50165,-2.7734 l -6.25165,-2.1278 -2.99835,2.8726 -2.99835,2.8726 0,1.3129 0,1.3129 -0.83948,0 c -0.46172,0 -1.35207,1.125 -1.97857,2.5 l -1.13907,2.5 -2.12843,0 -2.12843,0 0.67702,1.75 c 0.37236,0.9625 0.91647,2.9361 1.20913,4.3857 l 0.5321,2.6357 2.57149,1.3643 2.57149,1.3643 2.86882,4.5 2.86881,4.5 1.07315,4.2376 1.07315,4.2376 0.88441,-0.5466 z m -154.36559,-273.4348 1.25,0.01 0,-3.9006 c 0,-2.1454 -0.87355,-9.0079 -1.94122,-15.25 l -1.94121,-11.3494 -4.51432,-12.8735 -4.51433,-12.87363 -1.00907,-7.1264 c -0.55498,-3.9196 -1.72276,-12.5265 -2.59505,-19.1265 -0.87229,-6.6 -2.30759,-16.275 -3.18955,-21.5 l -1.60356,-9.5 -1.34584,-2.2148 -1.34585,-2.2148 0,-4.9406 0,-4.9405 -3.5,-4.1893 -3.5,-4.1892 0,-1.4054 0,-1.4054 -1,0 -1,0 0,2 0,2 -1.07196,0 -1.07195,0 0.67207,-5.3791 0.67208,-5.3791 -0.96382,-0.5957 -0.96381,-0.5956 -0.58988,4.9806 c -0.32444,2.7393 -0.9609,5.6436 -1.41437,6.4539 l -0.82448,1.4732 0.33703,-13.2291 0.33702,-13.22908 -2.11285,-3.36278 -2.11285,-3.36278 -0.55881,0.5588 -0.5588,0.55881 1.04706,4.80397 c 0.57588,2.64219 1.27541,8.06648 1.55451,12.05396 l 0.50745,7.25 -0.94182,0 -0.94182,0 0,-1.5 0,-1.5 -0.85247,0 -0.85248,0 -0.65687,8.5457 -0.65687,8.5457 -1.23414,3.9543 c -0.67877,2.1749 -1.50537,3.9543 -1.83689,3.9543 l -0.60276,0 -0.6718,-14.8874 -0.6718,-14.8875 1.04602,-2.7512 1.04602,-2.75126 -0.52798,-0.52797 -0.52798,-0.52798 -0.58744,0.58744 c -0.3231,0.32309 -0.99057,2.31059 -1.48327,4.41667 l -0.89583,3.8292 0.63331,11.75 0.63331,11.75 -1.10473,0 -1.10472,0 -0.73499,-3.75 -0.73499,-3.75 -0.0603,-12 -0.0603,-11.99998 -1,-0.73469 c -0.55,-0.40408 -1.3375,-0.74158 -1.75,-0.75 l -0.75005,-0.0153 0,6.21428 0,6.2143 -1.64856,-1.6486 -1.64856,-1.6485 -0.9201,-4.81576 c -0.50606,-2.64864 -1.25577,-9.54072 -1.66603,-15.31572 l -0.74591,-10.5 -1.04906,-2.49752 -1.04905,-2.49752 -0.0186,9.99752 -0.0186,9.99752 1.7324,8.01698 1.73241,8.017 2.26503,4.983 2.26504,4.983 0.42724,7.5 0.42723,7.5 -1.42615,-2.5 -1.42614,-2.5 -0.72448,-4.5 -0.72447,-4.5 -2.74094,-6.5002 -2.74093,-6.5002 -1.30095,-6.49981 -1.30096,-6.49977 0.22287,-7.67209 0.22287,-7.67208 -1.53272,-2.82792 -1.53272,-2.82791 -0.04,6.62427 -0.04,6.62428 -1.5,4.25145 -1.5,4.25145 0.0119,3.12428 c 0.007,1.71835 0.72188,5.59927 1.58967,8.62425 0.86779,3.025 2.02435,8.1256 2.57014,11.3347 l 0.99234,5.8346 -0.66377,0.6638 -0.66377,0.6638 -1.31146,-1.7935 -1.31146,-1.7936 -0.67526,-4.5029 c -0.37139,-2.4767 -1.28581,-5.9439 -2.03203,-7.7049 l -1.35678,-3.202 -0.67652,1.7364 -0.67652,1.7364 0.58189,4.2636 c 0.32004,2.345 0.86199,6.4116 1.20433,9.037 l 0.62243,4.7733 -0.63187,2.5176 -0.63186,2.5175 -0.97069,-0.5999 -0.97068,-0.5999 0,-3.8592 c 0,-2.1226 -0.27314,-4.571 -0.60699,-5.441 l -0.60718,-1.5818 -1.24366,0 -1.24367,0 0.80629,5.1006 c 0.44346,2.8053 1.33769,6.7428 1.98717,8.75 0.64949,2.0072 2.199,5.6823 3.44335,8.1668 l 2.26247,4.5174 0.7169,5.7379 0.71689,5.7379 3.88412,6.4399 c 2.13627,3.542 3.86794,7.0271 3.84816,7.7448 l -0.036,1.3047 -2.55522,-3 c -1.40537,-1.65 -3.83757,-4.9586 -5.40489,-7.3525 l -2.84966,-4.3525 -0.67143,-5.3739 -0.67143,-5.374 -1.86653,-2.1521 -1.86653,-2.1521 -0.65287,-3.6214 c -0.35906,-1.9918 -1.2871,-4.7465 -2.06229,-6.1215 l -1.40944,-2.5 0.64362,5.9945 0.64363,5.9944 3.48203,7.3377 c 1.91512,4.0357 3.2834,7.5363 3.04063,7.7791 -0.24277,0.2428 -1.18081,0.1577 -2.08453,-0.1891 -0.90372,-0.3468 -1.64313,-0.9464 -1.64313,-1.3324 0,-0.3861 -0.6962,-1.5754 -1.54712,-2.643 l -1.54712,-1.9412 0.62658,3.25 0.62657,3.25 -0.9436,0 -0.94359,0 -1.63586,-4.2834 -1.63586,-4.2834 0,-2.6348 c 0,-1.4491 -0.28762,-3.3843 -0.63916,-4.3004 l -0.63917,-1.6657 -0.84552,1.3339 c -0.46504,0.7336 -0.85242,2.6009 -0.86084,4.1496 l -0.0153,2.8157 -1.17007,2.1843 -1.17008,2.1842 -1.30128,-6 c -0.7157,-3.3 -1.7731,-8.246 -2.34977,-10.9911 l -1.0485,-4.9912 0.66376,-7.3247 0.66375,-7.3248 -1.3049,-5.6841 c -0.7177,-3.1262 -1.73804,-6.1341 -2.26743,-6.6841 l -0.96253,-1 0.57648,8 0.57647,8 -1.40785,-3 -1.40784,-3 -0.0451,-4.309 -0.0451,-4.309 -1,0.618 -1,0.6181 0,8.3819 0,8.382 1,0.618 1,0.6181 0,3.8819 0,3.882 -1.00187,0.6192 -1.00188,0.6192 -1.08683,-2.8102 c -0.59775,-1.5456 -1.48631,-5.5102 -1.97456,-8.8102 -0.48826,-3.3 -1.0492,-12.075 -1.24655,-19.49998 l -0.35881,-13.5 0.74272,-2.5 c 0.40849,-1.375 1.65375,-5.65 2.76724,-9.5 1.11349,-3.85 2.78669,-9.76397 3.71821,-13.14215 l 1.69367,-6.14215 -0.72167,-1.16769 -0.72167,-1.16769 -1.46196,1.80984 -1.46195,1.80984 0.38476,-3.25 0.38476,-3.25 -0.71017,0 c -0.3906,0 -1.05966,1.0125 -1.4868,2.25 l -0.77662,2.25 -0.40622,-3.84809 -0.40623,-3.8481 1.44647,-1.6519 1.44647,-1.65191 -0.082,-8.75 -0.082,-8.75 -1.7983,0 -1.7983,0 0,-2.05902 0,-2.05901 -1,0.61803 -1,0.61803 0,3.5 0,3.5 -1.06354,-0.6573 -1.06353,-0.6573 0.4971,-9.65171 c 0.2734,-5.30845 0.80125,-11.07926 1.173,-12.82403 l 0.67589,-3.17231 -4.41638,-0.66228 -4.41638,-0.66228 -4.19807,2.18816 c -2.30894,1.20349 -4.47848,2.64186 -4.8212,3.19639 l -0.62312,1.00824 1.06107,0.65578 c 0.58359,0.36067 1.73204,2.67286 2.55211,5.13819 l 1.49104,4.48242 0.52698,17.5 c 0.28984,9.625 0.96462,24.7 1.49951,33.5 l 0.97254,16 1.52858,10 c 0.84072,5.49998 1.97176,12.55808 2.51343,15.68468 0.54167,3.1266 1.7506,8.7516 2.68652,12.5 0.93591,3.7484 3.02012,10.1173 4.63157,14.153 1.61144,4.0357 4.4002,9.6607 6.19723,12.5 1.79703,2.8393 4.91321,8.4195 6.92485,12.4005 2.01163,3.981 5.65869,10.056 8.10459,13.5 2.44589,3.444 8.63638,12.0334 13.75664,19.0876 5.12026,7.05422 11.58989,15.60392 14.37694,18.99952 l 5.06737,6.1737 9.43263,7.3386 c 5.18795,4.0362 11.00763,8.2125 12.93263,9.2806 1.925,1.0681 5.89407,3.2413 8.82016,4.8292 2.92609,1.588 8.32609,4.1501 12,5.6938 3.67391,1.5436 7.80484,3.378 9.17984,4.0765 1.375,0.6985 3.0625,1.2728 3.75,1.2761 z m 212.6061,-181.14459 1.856,-3.82828 3.2577,-2.86026 3.2576,-2.86025 0.4609,-5.5581 0.461,-5.5581 1.9253,-2.72438 c 1.059,-1.49841 2.4472,-3.62566 3.085,-4.72721 0.6377,-1.10155 1.5419,-2.27953 2.0093,-2.61773 0.4674,-0.3382 2.1515,-2.63991 3.7424,-5.11491 1.5908,-2.475 3.4589,-4.83736 4.1512,-5.24968 0.6923,-0.41233 2.2655,-2.82922 3.4959,-5.37089 l 2.237,-4.6212 3.3508,-1.97701 3.3508,-1.97702 -0.542,-0.877 -0.542,-0.87701 -4.2065,0.57228 -4.2065,0.57228 -2.7831,-2.19603 -2.7832,-2.19602 -2.4668,-4.86811 -2.4669,-4.8681 0,-2.98619 0,-2.98619 1.1259,-2.47117 1.126,-2.47117 -2.2082,-4.56157 -2.2083,-4.56157 1.2037,-3.64698 1.2036,-3.64698 2.8786,-1.08657 2.8787,-1.08658 0,-0.98634 c 0,-0.54249 -1.6386,-4.60634 -3.6414,-9.03076 -2.0028,-4.42443 -5.7666,-12.31942 -8.3642,-17.54442 -2.5975,-5.225 -6.8089,-13.21867 -9.3586,-17.7637 -2.5497,-4.54504 -4.6358,-8.56344 -4.6358,-8.92979 0,-0.36635 -3.8249,-7.70403 -8.4997,-16.30594 l -8.49968,-15.63985 -3.57824,-4.18036 -3.57823,-4.18036 -1.92207,0 -1.92208,0 0,0.93261 c 0,0.51294 -0.7875,1.2044 -1.75,1.53657 l -1.75,0.60396 -2.25,3.53277 -2.25,3.53277 0,2.3237 c 0,1.27803 0.72969,5.85933 1.62154,10.18066 l 1.62154,7.85696 3.01224,3.43717 3.01225,3.43717 -0.60248,7.81283 -0.60249,7.81283 1.10799,0 1.10799,0 -0.56851,4.80016 -0.5685,4.80016 1.89025,4.22201 1.89024,4.222 -1.02738,8.39919 -1.02739,8.39919 1.56635,4.61359 1.56636,4.61359 0,3.39996 c 0,1.86997 -0.45006,4.58371 -1.00014,6.03053 l -1.00015,2.63057 0.89894,1.68452 0.89893,1.68453 -0.69259,6.67175 -0.6926,6.67175 1.29381,1.76938 1.2938,1.76938 0,5.10887 0,5.10887 -1.16997,1.16997 -1.16997,1.16997 1.24395,3.78003 1.24396,3.78003 -1.09615,2.8734 -1.09615,2.87339 0.62528,3.33301 0.62528,3.33302 -1.34723,3.04359 c -0.74097,1.67397 -1.60136,3.04359 -1.91198,3.04359 -0.31062,0 -1.39596,0.60779 -2.41188,1.35064 l -1.84711,1.35065 6.90598,4.48173 6.90599,4.48172 8.5,9.00638 8.5,9.00637 1.8561,-3.82827 z M 232.2027,614.27029 c 0.275,0 0.5,-0.225 0.5,-0.5 0,-0.275 -0.225,-0.5 -0.5,-0.5 -0.275,0 -0.5,0.225 -0.5,0.5 0,0.275 0.225,0.5 0.5,0.5 z m -3.5,-1 1.33333,0 -0.66666,-0.66667 -0.66667,-0.66666 -0.66667,0.66666 -0.66666,0.66667 1.33333,0 z"
     id="path2987"
     inkscape:connector-curvature="0" />
</svg>
