<?xml version="1.0" encoding="UTF-8" standalone="no"?>
<!-- Created with Inkscape (http://www.inkscape.org/) -->

<svg
   xmlns:dc="http://purl.org/dc/elements/1.1/"
   xmlns:cc="http://creativecommons.org/ns#"
   xmlns:rdf="http://www.w3.org/1999/02/22-rdf-syntax-ns#"
   xmlns:svg="http://www.w3.org/2000/svg"
   xmlns="http://www.w3.org/2000/svg"
   xmlns:sodipodi="http://sodipodi.sourceforge.net/DTD/sodipodi-0.dtd"
   xmlns:inkscape="http://www.inkscape.org/namespaces/inkscape"
   id="svg2"
   version="1.1"
   inkscape:version="0.48.2 r9819"
   width="1737.9799"
   height="1015.5579"
   sodipodi:docname="artoftrapping00shub_0068d.png">
  <metadata
     id="metadata8">
    <rdf:RDF>
      <cc:Work
         rdf:about="">
        <dc:format>image/svg+xml</dc:format>
        <dc:type
           rdf:resource="http://purl.org/dc/dcmitype/StillImage" />
        <dc:title></dc:title>
      </cc:Work>
    </rdf:RDF>
  </metadata>
  <defs
     id="defs6" />
  <sodipodi:namedview
     pagecolor="#ffffff"
     bordercolor="#666666"
     borderopacity="1"
     objecttolerance="10"
     gridtolerance="10"
     guidetolerance="10"
     inkscape:pageopacity="0"
     inkscape:pageshadow="2"
     inkscape:window-width="1600"
     inkscape:window-height="876"
     id="namedview4"
     showgrid="false"
     fit-margin-top="0"
     fit-margin-left="0"
     fit-margin-right="0"
     fit-margin-bottom="0"
     inkscape:zoom="1"
     inkscape:cx="539.90017"
     inkscape:cy="681.15944"
     inkscape:window-x="0"
     inkscape:window-y="24"
     inkscape:window-maximized="1"
     inkscape:current-layer="svg2" />
  <path
     style="fill:#000000"
     d="m 1555.8502,1015.2256 c -0.2041,-0.5505 -2.3575,-1.2735 -4.7852,-1.6067 -2.4278,-0.3333 -5.1278,-1.2323 -6,-1.9978 -3.0084,-2.6401 -9.9635,-5.4705 -10.464,-4.2583 -0.3392,0.8213 -0.6991,0.832 -1.2958,0.038 -0.4543,-0.6044 -1.5011,-1.1391 -2.3261,-1.1883 -6.502,-0.388 -10.5678,-1.3916 -12.3766,-3.055 -1.1679,-1.074 -3.4121,-1.9427 -4.9871,-1.9304 -1.5751,0.012 -3.1501,-0.4232 -3.5,-0.9678 -0.35,-0.5446 -1.6608,-1.31 -2.9129,-1.7009 -2.8829,-0.8998 -4.8259,-4.0026 -5.5488,-8.8612 -0.4282,-2.8772 -0.1896,-3.9466 0.9807,-4.3957 0.8506,-0.3264 1.9258,0.02 2.3893,0.7702 0.6746,1.0915 1.2058,0.9451 2.6619,-0.7338 1.3594,-1.5674 2.7617,-2.0227 5.549,-1.8015 2.0514,0.1627 3.9982,-0.1383 4.3262,-0.6691 0.3729,-0.6034 1.0903,-0.555 1.9147,0.1292 1.0287,0.8538 1.5755,0.3151 2.4886,-2.4514 0.7915,-2.3983 1.782,-3.5456 3.0612,-3.5456 1.191,0 1.6963,-0.5075 1.3649,-1.371 -0.2893,-0.754 0.1748,-1.6399 1.0314,-1.9686 0.8566,-0.3287 1.5575,-0.1296 1.5575,0.4424 0,0.572 0.7071,0.3329 1.5714,-0.5314 0.8643,-0.8643 2.2143,-1.5714 3,-1.5714 0.7857,0 1.4368,-0.3375 1.4468,-0.75 0.024,-0.9915 4.7209,-6.8137 8.4818,-10.51415 1.65,-1.62347 2.8447,-3.69068 2.6549,-4.59381 -0.1898,-0.90312 -0.039,-1.34151 0.3345,-0.97419 0.6273,0.61637 1.805,-0.15157 6.3923,-4.16785 2.7877,-2.4408 5.8662,-7.40628 5.4037,-8.716 -0.2362,-0.66879 0.7139,-2.44897 2.1112,-3.95593 2.2285,-2.40337 2.3649,-2.93415 1.1099,-4.32088 -1.5055,-1.66361 -0.9607,-6.40592 0.6235,-5.42684 0.4964,0.30681 0.6304,0.9983 0.2977,1.53664 -0.3327,0.53833 -0.2846,1.74473 0.1069,2.6809 0.5765,1.37833 0.8685,1.1553 1.5355,-1.17248 0.5907,-2.06181 0.4145,-3.28368 -0.6233,-4.32143 -1.2624,-1.26245 -1.2556,-1.638 0.053,-2.94684 0.825,-0.825 1.5,-2.3413 1.5,-3.36955 0,-1.02826 0.4738,-2.16235 1.0528,-2.52021 0.579,-0.35787 0.8648,-1.17192 0.6351,-1.80902 -0.2297,-0.6371 0.052,-2.05836 0.6249,-3.15836 1.1224,-2.15304 1.5989,-6.5 0.7126,-6.5 -0.2974,0 -0.4987,-8.775 -0.4473,-19.5 0.051,-10.725 -0.2409,-19.5 -0.6496,-19.5 -0.4087,0 -0.8389,-6.4125 -0.9561,-14.25 -0.2699,-18.05884 -0.3764,-19.32691 -1.7629,-20.99761 -0.6621,-0.79776 -0.931,-3.14035 -0.6387,-5.56505 0.3341,-2.7718 0.1177,-4.18734 -0.64,-4.18734 -0.6296,0 -0.8858,-0.675 -0.5692,-1.5 0.3166,-0.825 0.1885,-1.5 -0.2846,-1.5 -0.4731,0 -1.1425,-1.125 -1.4876,-2.5 -0.3451,-1.375 -1.0775,-2.5 -1.6275,-2.5 -0.5511,0 -0.7345,-1.05783 -0.4086,-2.35624 0.3401,-1.35515 0.029,-2.94841 -0.731,-3.75 -0.7273,-0.76657 -1.4764,-2.95207 -1.6648,-4.85667 -0.1883,-1.90461 -1.2008,-4.20739 -2.25,-5.1173 -1.0491,-0.90991 -1.9075,-1.97947 -1.9075,-2.37679 0,-0.39733 -0.9697,-1.50765 -2.1549,-2.46738 -1.1853,-0.95973 -2.2254,-2.60686 -2.3114,-3.66029 -0.086,-1.05343 -0.7762,-3.04033 -1.5337,-4.41533 -0.7575,-1.375 -1.4452,-3.32885 -1.5283,-4.34188 -0.083,-1.01304 -0.728,-2.19849 -1.4332,-2.63435 -0.7053,-0.43585 -1.0807,-1.39726 -0.8343,-2.13647 0.2464,-0.7392 0.083,-1.80374 -0.363,-2.36565 -0.4461,-0.56191 -1.9428,-2.43661 -3.3261,-4.16601 -1.3833,-1.72939 -2.5151,-3.67403 -2.5151,-4.32142 0,-1.86803 -2.8678,-4.23398 -4.1623,-3.43393 -0.8101,0.5007 -0.965,0.17382 -0.4963,-1.04759 0.5175,-1.34848 0.2982,-1.62838 -0.9118,-1.16404 -0.8763,0.33624 -2.0064,0.61134 -2.5114,0.61134 -0.505,0 -0.9182,0.69083 -0.9182,1.53518 0,1.23238 -0.4,1.3211 -2.028,0.44983 -1.1154,-0.59695 -1.793,-1.46563 -1.5058,-1.9304 0.2873,-0.46477 -0.1501,-1.10307 -0.9719,-1.41844 -0.8219,-0.31537 -1.4943,-1.6124 -1.4943,-2.88228 0,-1.26988 -0.6199,-3.19651 -1.3776,-4.28138 -0.7578,-1.08488 -1.3765,-3.22876 -1.375,-4.76418 0,-3.35767 -0.1918,-3.58957 -3.3092,-3.93677 -1.9295,-0.2149 -2.4442,0.19347 -2.4671,1.9573 -0.016,1.22587 -0.5783,2.77837 -1.25,3.45 -0.9615,0.96152 -1.2542,0.38136 -1.3766,-2.72886 -0.086,-2.1725 -0.074,-4.92846 0.026,-6.12436 0.1172,-1.40473 -0.5356,-2.40197 -1.8445,-2.81739 -1.1143,-0.35366 -2.026,-1.3428 -2.026,-2.19808 0,-1.33459 -0.2392,-1.36048 -1.6872,-0.18261 -1.4743,1.19923 -1.606,1.15563 -1.0437,-0.34553 0.354,-0.94489 0.2059,-1.98849 -0.3291,-2.3191 -0.5349,-0.33062 -0.7137,-1.02003 -0.3973,-1.53203 0.3164,-0.51199 -0.041,-0.9309 -0.7938,-0.9309 -0.7531,0 -2.7686,-1.36812 -4.4789,-3.04028 -3.4059,-3.3299 -3.3282,-3.39224 -4.7853,3.83807 -1.032,5.12096 -3.0088,2.33512 -2.9958,-4.22192 0.01,-4.96451 -0.2145,-5.57583 -2.0462,-5.57585 -1.6658,-2e-5 -2.0178,0.5714 -1.8495,3.00242 0.1144,1.65135 -0.1502,3.22376 -0.5879,3.49426 -1.0786,0.66662 -2.1787,-2.40719 -1.3445,-3.75688 0.423,-0.68444 0.058,-0.84593 -0.9968,-0.44114 -1.0763,0.41304 -1.664,0.13099 -1.664,-0.79868 0,-0.95197 -0.5909,-1.21579 -1.75,-0.78138 -1.5325,0.57433 -1.5794,0.44613 -0.3776,-1.03139 0.894,-1.09904 0.9812,-1.68723 0.25,-1.68723 -1.6256,0 -1.3769,-2.06129 0.4989,-4.13401 2.2493,-2.48544 1.1503,-4.51584 -2.7919,-5.15816 -2.4998,-0.40732 -3.7431,-0.0648 -4.9897,1.37484 -0.9132,1.05453 -2.1507,1.91733 -2.75,1.91733 -0.5993,0 -1.0897,0.58899 -1.0897,1.30887 0,0.71988 -0.6852,2.18238 -1.5226,3.25 -1.4145,1.8033 -1.4776,1.6571 -0.8886,-2.05887 0.3487,-2.2 1.1859,-4.45 1.8604,-5 1.5519,-1.26548 0.8551,-3.5 -1.0916,-3.5 -0.828,0 -1.1741,0.48792 -0.7885,1.1118 0.6413,1.0376 -1.1272,2.8384 -2.8213,2.87289 -1.4404,0.0293 -7.783,-7.45053 -7.3265,-8.64013 0.2528,-0.6589 -0.052,-2.28236 -0.6775,-3.60767 l -1.1372,-2.40967 -3.4428,2.33639 c -1.8936,1.28501 -4.004,2.33639 -4.6898,2.33639 -1.4229,0 -2.5751,-5.81951 -1.3073,-6.60305 1.5481,-0.95613 0.847,-2.39645 -1.1665,-2.39645 -1.1,0 -1.9513,0.3375 -1.8918,0.75 0.4291,2.97601 -1.5624,5.16228 -4.9606,5.44574 -2.0062,0.16734 -3.7081,0.75426 -3.7821,1.30426 -0.3553,2.64134 -1.7,5.5 -2.5872,5.5 -1.0796,0 -0.6054,-5.14203 1.0536,-11.42497 0.7912,-2.99647 0.7247,-4.36995 -0.2811,-5.806 -1.2615,-1.80095 -1.4077,-1.76647 -3.4342,0.80983 -1.1641,1.47997 -2.1166,3.30517 -2.1166,4.056 0,2.21879 -1.5895,1.5615 -2.8351,-1.17237 -0.9957,-2.18531 -1.4458,-2.38254 -3.2425,-1.42095 -1.6965,0.90795 -2.3453,0.77484 -3.4726,-0.71249 -2.0466,-2.70042 -1.7423,-5.0193 0.744,-5.66949 2.0088,-0.5253 2.0638,-0.72495 0.652,-2.36663 -0.848,-0.98611 -1.8211,-2.58043 -2.1624,-3.54293 -0.3414,-0.9625 -1.1113,-1.75 -1.711,-1.75 -0.5998,0 -0.8123,-0.45 -0.4724,-1 1.3549,-2.19222 -1.5001,-0.82031 -4.162,2 -3.6638,3.88187 -4.3465,3.78103 -3.7907,-0.55998 0.2638,-2.06003 0.063,-3.31716 -0.4767,-2.98368 -0.5128,0.31695 -1.2151,0.11894 -1.5605,-0.44003 -0.3455,-0.55897 -0.1992,-1.01631 0.3251,-1.01631 0.5243,0 0.8883,-1.12468 0.809,-2.49929 -0.1563,-2.70941 -2.6442,-3.54122 -2.6442,-0.88408 0,1.1243 -0.6091,1.45735 -2,1.09362 -1.3801,-0.3609 -2.0396,-0.01 -2.1276,1.13337 -0.4024,5.22222 -0.7425,6.45908 -1.9911,7.24003 -0.9355,0.58509 -1.8997,0.18332 -2.9874,-1.24475 -1.4368,-1.88648 -1.4495,-2.42237 -0.1212,-5.08518 1.1015,-2.20801 1.1847,-3.16199 0.3222,-3.69505 -0.6394,-0.39521 -0.9271,-1.35759 -0.6393,-2.13862 0.2879,-0.78103 0.1124,-2.06611 -0.3899,-2.85575 -0.7569,-1.18983 -1.1832,-1.21167 -2.4895,-0.12755 -0.8669,0.71948 -1.5762,1.75814 -1.5762,2.30814 0,0.55783 0.6633,0.44954 1.5,-0.24489 0.8367,-0.69443 1.5,-0.80272 1.5,-0.24489 0,0.55 -0.6852,1.56863 -1.5226,2.26363 -0.8374,0.69499 -1.281,2.02459 -0.9858,2.95466 0.3082,0.97129 -0.3206,2.46685 -1.4775,3.51381 -2.2583,2.04379 -2.2471,2.07033 -2.4228,-5.73721 -0.081,-3.60755 0.2558,-4.75368 1.4009,-4.76531 1.3384,-0.0136 1.3393,-0.12422 0.01,-0.98469 -1.9213,-1.24163 -6.3011,-1.29623 -5.5427,-0.0691 0.3164,0.512 0.118,1.21356 -0.441,1.55902 -0.559,0.34546 -1.0163,0.125 -1.0163,-0.48992 0,-0.61492 -0.45,-0.83992 -1,-0.5 -0.55,0.33992 -1,0.0933 -1,-0.54797 0,-0.6413 -0.6202,-0.92803 -1.3781,-0.63716 -0.758,0.29086 -1.864,0.0431 -2.4577,-0.55063 -0.7726,-0.77263 -1.5486,-0.69009 -2.73,0.29039 -1.4214,1.17961 -1.8439,1.10552 -3.0423,-0.53341 -1.0996,-1.50371 -1.1293,-2.0699 -0.1418,-2.69694 0.9036,-0.57376 0.7851,-0.7979 -0.4275,-0.80897 -0.9226,-0.008 -2.6074,1.167 -3.7441,2.61204 -1.6218,2.06171 -2.3636,2.38093 -3.4458,1.48274 -0.7586,-0.62953 -2.1112,-0.86369 -3.006,-0.52035 -0.8947,0.34333 -2.4113,0.32317 -3.3702,-0.0448 -1.5558,-0.59701 -1.4817,-0.8665 0.6883,-2.50334 1.3375,-1.00886 3.0959,-1.57947 3.9076,-1.26801 0.9422,0.36158 1.2189,0.15084 0.7654,-0.58298 -0.3907,-0.6321 -0.2236,-2.05858 0.3711,-3.16994 0.7789,-1.45531 0.7753,-2.02067 -0.013,-2.02067 -0.6018,0 -0.8039,-0.46971 -0.4491,-1.0438 1.0664,-1.72555 -1.3919,-3.73362 -4.3014,-3.51359 -4.2272,0.31966 -8.0127,2.57246 -8.6606,5.15399 -0.3238,1.29012 -1.4834,2.82449 -2.5769,3.40972 -1.0935,0.58523 -1.9882,1.52477 -1.9882,2.08788 0,0.56311 0.4464,0.74792 0.9921,0.41069 0.5456,-0.33722 1.7831,-0.15246 2.75,0.41058 1.5961,0.92951 1.5621,1.02651 -0.3697,1.05412 -1.1701,0.0167 -2.6877,0.70541 -3.3724,1.53041 -0.6847,0.825 -1.8648,1.5 -2.6224,1.5 -0.7577,0 -1.2651,0.52571 -1.1276,1.16825 0.1375,0.64253 -0.6863,1.65855 -1.8307,2.25782 -1.1444,0.59926 -1.9019,1.62601 -1.6834,2.28166 0.2186,0.65565 -0.5326,1.77288 -1.6693,2.48273 -2.3619,1.47503 -2.8079,3.30798 -0.5986,2.4602 2.3498,-0.90172 2.8098,1.15889 0.5708,2.55718 -2.3645,1.47666 -2.7458,3.00068 -0.5388,2.15379 0.825,-0.31659 1.5,-0.043 1.5,0.60785 0,0.76226 1.4243,1.08062 4.0018,0.89452 2.7251,-0.19676 4.5406,0.24979 5.6905,1.39972 2.0327,2.03271 1.3581,2.91307 -2.39,3.11909 -1.5413,0.0847 -3.3688,0.51229 -4.0612,0.95016 -0.6925,0.43787 -2.1171,0.52377 -3.1659,0.1909 -1.0488,-0.33287 -2.1702,-0.17917 -2.492,0.34157 -0.3219,0.52074 -1.434,0.72484 -2.4713,0.45356 -1.0374,-0.27128 -2.1634,-0.0446 -2.5023,0.50364 -1.1017,1.78265 0.5356,4.14294 2.7469,3.95992 1.1866,-0.0982 4.2919,0.41903 6.9005,1.1494 3.493,0.978 4.743,1.82079 4.743,3.198 0,1.18442 -0.7116,1.87004 -1.941,1.87004 -1.0675,0 -2.1876,0.39899 -2.4889,0.88664 -0.3014,0.48765 -2.1075,1.1792 -4.0136,1.53677 -2.4882,0.4668 -3.3072,1.06279 -2.904,2.11337 0.3088,0.80477 1.1402,1.46322 1.8475,1.46322 0.7073,0 1.4929,0.5625 1.7457,1.25 0.6976,1.89685 -0.2355,3.75 -1.8881,3.75 -0.8244,0 -1.1736,0.48865 -0.7913,1.10726 0.3764,0.609 0.6971,3.984 0.7127,7.5 0.016,3.51601 0.4092,6.39274 0.8747,6.39274 0.4655,0 0.8463,0.59656 0.8463,1.32569 0,0.72912 1.1507,2.40668 2.557,3.72789 1.4598,1.37139 2.3655,3.13493 2.1105,4.10973 -0.2455,0.93914 0.1788,1.94746 0.943,2.24072 0.7642,0.29326 1.3895,0.0973 1.3895,-0.43541 0,-0.53274 0.5112,-0.96862 1.1359,-0.96862 0.771,0 0.9378,1.4457 0.5192,4.5 -0.5097,3.71868 -0.3385,4.5 0.9865,4.5 1.2813,0 1.3635,0.28888 0.4094,1.43855 -2.1144,2.54765 0.1935,10.37228 5.1399,17.42625 0.912,1.30064 1.389,3.06627 1.0601,3.92361 -0.4266,1.11166 -0.154,1.38834 0.9504,0.96455 1.1561,-0.44365 1.5486,0.072 1.5486,2.03473 0,1.44593 0.481,2.7893 1.0688,2.98525 0.5879,0.19595 0.8533,0.9181 0.5898,1.60476 -0.2635,0.68667 0.4351,2.07591 1.5526,3.08719 1.6245,1.47012 1.7913,2.12835 0.8325,3.28368 -0.9552,1.15095 -0.8527,1.63889 0.5035,2.3979 0.9366,0.5241 1.7028,1.60531 1.7028,2.4027 0,3.25316 6.824,14.25158 11.8501,19.09911 1.2926,1.24664 3.6458,4.19827 5.2294,6.55917 1.5836,2.3609 3.9684,5.89954 5.2995,7.86364 3.913,5.7738 5.882,12.59603 4.3963,15.2327 -0.6806,1.20791 -1.2938,2.91433 -1.3625,3.79202 -0.1571,2.00602 -4.4293,7.86409 -5.8509,8.02261 -0.584,0.0651 -1.4235,0.0571 -1.8655,-0.0179 -1.192,-0.20216 -3.0355,1.94068 -5.2377,6.08845 -2.2289,4.19783 -16.0056,18.93073 -16.8824,18.05399 -0.3169,-0.31698 -0.5763,-0.13927 -0.5763,0.39492 0,0.53418 -1.4625,2.59278 -3.25,4.57466 -5.6027,6.21194 -6.3958,7.34991 -5.984,8.58549 0.2204,0.66106 -0.087,1.20193 -0.6827,1.20193 -0.5958,0 -1.0833,0.49661 -1.0833,1.10358 0,0.60697 -2.25,3.79632 -5,7.08744 -2.75,3.29113 -5,6.55249 -5,7.24747 0,1.53823 -9.6421,10.58603 -10.4357,9.79246 -0.3104,-0.31035 -0.5643,0.18572 -0.5643,1.10238 0,0.91667 -0.5976,1.66667 -1.3281,1.66667 -1.5605,0 -15.2267,13.29316 -28.6719,27.88925 -5.225,5.67225 -10.5125,11.24878 -11.75,12.3923 -1.2375,1.14352 -2.25,2.59693 -2.25,3.22981 0,0.63287 -1.1371,1.75926 -2.527,2.50308 -1.3898,0.74382 -2.7886,2.39486 -3.1084,3.66898 -0.3198,1.27412 -0.9826,2.31658 -1.473,2.31658 -0.4904,0 -0.8916,0.57908 -0.8916,1.28685 0,0.70777 -2.0194,3.42459 -4.4875,6.03739 -2.4682,2.6128 -4.3807,5.0826 -4.25,5.4884 0.1306,0.4058 -1.393,3.0106 -3.3858,5.7885 -4.1969,5.8503 -9.0824,8.5603 -16.5803,9.197 -3.3939,0.2882 -5.7953,1.0957 -6.905,2.3219 -0.9357,1.034 -2.3028,1.88 -3.0379,1.88 -0.7351,0 -1.8578,0.8346 -2.4948,1.8546 -0.873,1.3979 -2.1063,1.7742 -5.0084,1.5282 -2.2923,-0.1944 -3.8503,0.1107 -3.8503,0.7538 0,0.6456 -0.9811,0.834 -2.4387,0.4681 -1.3684,-0.3434 -2.7399,-0.1247 -3.125,0.4984 -0.4932,0.7979 -0.8957,0.7717 -1.4303,-0.093 -0.7611,-1.2316 -2.8442,0.5586 -6.8746,5.9081 -1.3985,1.8562 -2.6802,2.3855 -5.5177,2.2789 -2.1673,-0.082 -3.4478,0.2627 -3.0958,0.8321 0.3301,0.5341 0.2361,0.9655 -0.2089,0.9587 -0.4449,-0.01 -1.8442,-1.6101 -3.1095,-3.5629 -1.6891,-2.607 -2.8849,-3.4611 -4.5,-3.2139 -1.2097,0.1852 -2.111,0.8165 -2.0028,1.4029 0.372,2.0172 -15.7082,2.3953 -22.5147,0.5294 -5.5473,-1.5207 -9.8371,-4.7151 -11.066,-8.2401 -0.7589,-2.1771 -1.8053,-2.9341 -4.7934,-3.4676 -4.8322,-0.8627 -8.3226,-3.9898 -8.3226,-7.4561 0,-2.98 2.675,-8.9793 4.0037,-8.9793 0.4715,0 1.001,-1.0125 1.1767,-2.25 0.1881,-1.3238 0.9371,-2.1596 1.8196,-2.0304 0.825,0.1208 4.0875,-1.0398 7.25,-2.5791 3.1625,-1.5393 5.75,-2.4257 5.75,-1.9697 0,0.4561 0.675,0.8292 1.5,0.8292 0.825,0 1.5069,-0.7875 1.5153,-1.75 0.011,-1.2444 0.244,-1.3899 0.8067,-0.5038 1.0657,1.6782 16.809,-0.2344 18.8667,-2.29212 0.7998,-0.79977 2.097,-1.45412 2.8827,-1.45412 0.7857,0 1.4286,-0.45 1.4286,-1 0,-0.55 0.88,-1 1.9556,-1 1.8667,0 6.6539,-2.6992 12.0444,-6.79105 1.375,-1.04374 3.7375,-2.20131 5.25,-2.57238 1.5125,-0.37107 2.75,-1.14824 2.75,-1.72705 0,-1.10787 2.4548,-3.90952 3.4255,-3.90952 1.443,0 22.5745,-21.92618 22.5745,-23.42345 0,-0.93202 0.4308,-1.42831 0.9574,-1.10287 0.5266,0.32544 1.6631,-0.773 2.5257,-2.44098 0.8625,-1.66799 1.3307,-3.0327 1.0403,-3.0327 -0.2904,0 0.9817,-1.4625 2.827,-3.25 1.8452,-1.7875 6.4437,-6.85 10.2188,-11.25 3.7752,-4.4 7.2164,-8.15 7.6473,-8.33333 0.4309,-0.18334 0.7835,-1.19584 0.7835,-2.25 0,-1.05417 0.4362,-1.91667 0.9693,-1.91667 0.5331,0 2.5447,-2.46284 4.4703,-5.47297 1.9255,-3.01014 4.4143,-6.04338 5.5307,-6.74055 1.1163,-0.69716 2.0297,-1.83433 2.0297,-2.52703 0,-0.6927 0.4359,-1.25945 0.9686,-1.25945 0.5328,0 0.7096,-0.675 0.393,-1.5 -0.3166,-0.825 -0.1798,-1.5 0.304,-1.5 0.4838,0 1.7278,-1.575 2.7645,-3.5 1.0366,-1.925 2.1515,-3.5003 2.4774,-3.50066 0.975,-10e-4 0.7207,-9.44569 -0.2732,-10.14594 -0.5047,-0.35564 0.024,-1.96892 1.1746,-3.58507 1.7968,-2.5233 1.8942,-3.13837 0.6894,-4.35339 -0.7717,-0.77822 -1.5636,-3.00645 -1.7598,-4.95164 -0.1963,-1.94518 -0.675,-4.05159 -1.064,-4.6809 -0.3889,-0.62931 -0.297,-1.39769 0.2043,-1.70751 0.5405,-0.33406 0.4777,-2.27217 -0.1543,-4.76221 -0.8136,-3.20519 -0.7762,-4.29544 0.1578,-4.6068 0.8792,-0.29303 0.7887,-0.73141 -0.321,-1.55688 -0.9471,-0.70445 -1.6082,-2.91954 -1.7086,-5.72521 -0.2383,-6.65815 -3.456,-10.39722 -8.6819,-10.08887 -3.4285,0.2023 -4.0161,-0.0824 -4.5485,-2.20362 -0.3363,-1.33977 -0.3205,-3.89016 0.035,-5.66755 0.5014,-2.50683 0.334,-3.12748 -0.7465,-2.76732 -1.7197,0.57322 -3.9107,-1.4908 -3.9107,-3.68402 0,-0.89674 -0.45,-1.35233 -1,-1.01241 -0.55,0.33992 -1,-0.066 -1,-0.90203 0,-2.08348 -4.169,-5.829 -5.2664,-4.73153 -1.1333,1.13326 -5.7155,-0.96061 -5.7258,-2.61644 0,-0.6875 0.4422,-1.25 0.9922,-1.25 1.6221,0 1.1417,-3.0084 -0.5863,-3.6715 -0.8725,-0.3348 -4.2729,-3.24568 -7.5565,-6.46862 -5.4094,-5.30957 -7.1891,-6.33403 -10.3945,-5.98336 -1.2664,0.13854 -4.4627,-5.07621 -4.4627,-7.28081 0,-1.53054 -1.0809,-2.01512 -3.734,-1.67402 -0.7869,0.10115 -0.9908,-0.4901 -0.5628,-1.63152 0.5467,-1.45808 0.4046,-1.57507 -0.766,-0.63068 -1.1569,0.9334 -2.2172,0.31468 -5.4372,-3.17305 -3.3232,-3.59954 -3.7462,-4.49492 -2.5,-5.29221 0.825,-0.52782 1.1734,-1.30157 0.7742,-1.71945 -0.3992,-0.41788 -1.2992,-0.30105 -2,0.25962 -1.0721,0.85774 -4.7522,1.04921 -8.1131,0.42212 -0.4614,-0.0861 -0.5871,-1.95652 -0.2794,-4.15652 0.3077,-2.2 0.1752,-4 -0.2945,-4 -1.627,0 -2.0278,-4.40816 -0.5493,-6.04186 2.0789,-2.29716 1.8614,-2.6004 -1.6885,-2.35464 -5.6222,0.38924 -7.6865,-1.83399 -4.307,-4.63867 0.9972,-0.82763 1.1993,-1.62316 0.5717,-2.25078 -1.4196,-1.41952 0.8756,-4.64506 2.8141,-3.95494 0.8645,0.30775 1.2501,0.20368 0.857,-0.23126 -0.3932,-0.43495 -0.2843,-1.59535 0.242,-2.57866 0.6673,-1.24682 0.581,-1.94456 -0.2852,-2.3057 -0.8976,-0.37426 -0.7568,-0.91244 0.508,-1.94091 2.1067,-1.71316 2.3322,-4.13998 0.3127,-3.36499 -2.0243,0.77676 -2.5346,-2.45345 -0.7258,-4.59372 2.186,-2.58661 0.6598,-3.28453 -1.9222,-0.879 -1.2197,1.13628 -2.6354,1.80775 -3.1461,1.49214 -0.5106,-0.3156 -1.593,0.37496 -2.4052,1.53458 -1.8722,2.67295 -3.9743,2.70433 -4.6633,0.0696 -0.3398,-1.29951 0.2302,-2.74996 1.5719,-4 1.1578,-1.07865 1.7402,-1.96119 1.2941,-1.96119 -0.446,0 -0.3923,-0.5625 0.1194,-1.25 1.5339,-2.06071 -0.4288,-10.75 -2.4281,-10.75 -0.4357,0 -0.724,-2.025 -0.6407,-4.5 0.083,-2.475 -0.1766,-4.5 -0.5776,-4.5 -1.4644,0 -4.0391,3.71548 -4.0391,5.82874 0,1.5493 -0.6106,2.17126 -2.1317,2.17126 -1.9182,0 -2.0766,-0.41037 -1.5819,-4.09829 0.3023,-2.25406 1.4907,-5.09995 2.6408,-6.32419 1.1501,-1.22424 1.7979,-2.51914 1.4394,-2.87754 -0.3584,-0.35841 -0.054,-1.37182 0.6766,-2.25203 1.082,-1.30369 1.0886,-1.74846 0.036,-2.39917 -0.9052,-0.55945 -0.9624,-1.00273 -0.191,-1.47947 2.7711,-1.71267 2.9999,-4.19205 0.6403,-6.93815 -1.4784,-1.72048 -2.5982,-2.32698 -3.024,-1.63788 -0.372,0.60188 -0.1325,1.74962 0.5322,2.55052 0.8737,1.05284 0.8921,1.4562 0.066,1.4562 -0.7467,0 -0.9988,1.53495 -0.728,4.4335 0.4123,4.41386 -0.4608,5.76512 -3.1248,4.83586 -0.7623,-0.2659 -1.25,-2.28086 -1.25,-5.16413 0,-4.57245 -1.9931,-8.2696 -4.9981,-9.27126 -1.6173,-0.53912 -3.1603,-8.47293 -2.4176,-12.43166 0.5114,-2.72614 0.3181,-3.40231 -0.973,-3.40231 -0.8862,0 -1.6113,-0.66088 -1.6113,-1.46862 0,-0.83191 0.5933,-1.24093 1.3686,-0.94344 1.9951,0.76561 2.839,-3.52322 1.046,-5.31622 -0.9735,-0.97344 -1.3125,-2.74566 -1.0081,-5.27038 0.2849,-2.36369 -0.072,-4.50371 -0.9422,-5.65256 -0.7704,-1.01683 -1.415,-2.56303 -1.4325,-3.43601 -0.017,-0.87298 -1.791,-3.43657 -3.9412,-5.69687 -2.2091,-2.32223 -3.4051,-4.27948 -2.75,-4.50015 0.8284,-0.27902 0.7568,-0.87816 -0.2508,-2.09864 -0.7756,-0.93947 -2.0102,-1.47788 -2.7436,-1.19646 -0.9196,0.35289 -1.5309,-0.72358 -1.9699,-3.46895 -0.4741,-2.96505 -0.9457,-3.72401 -1.8484,-2.97483 -0.6666,0.55318 -1.508,0.70968 -1.8699,0.34779 -0.3619,-0.3619 -0.658,0.51545 -0.658,1.94966 0,3.29465 -1.9525,4.62326 -2.6839,1.8263 -0.3022,-1.15534 -0.8492,-2.10062 -1.2158,-2.10062 -0.8547,0 -0.6645,-4.76917 0.2258,-5.65943 0.3706,-0.37065 0.6739,-1.1239 0.6739,-1.6739 0,-0.55 -0.2786,-0.72143 -0.619,-0.38096 -0.3405,0.34048 -1.3329,-0.0948 -2.2054,-0.96726 -1.0495,-1.04946 -1.7142,-1.20256 -1.9643,-0.45238 -0.2079,0.62366 -1.353,1.12951 -2.5446,1.12412 -1.9981,-0.009 -2.1846,-0.56722 -2.3972,-7.17108 -0.1337,-4.15638 0.2389,-7.72676 0.888,-8.50895 0.8434,-1.01622 0.7157,-1.79283 -0.5195,-3.15766 -0.9009,-0.99549 -1.638,-2.33705 -1.638,-2.98124 0,-0.64419 -0.6609,-1.17126 -1.4686,-1.17126 -0.8995,0 -1.2439,-0.58568 -0.8887,-1.51134 0.415,-1.08145 0.1216,-1.33546 -1.0314,-0.89301 -1.9213,0.7373 -2.0302,1.58543 -0.4113,3.20435 0.9333,0.93333 0.8749,1.2 -0.2629,1.2 -0.8046,0 -1.9071,1.0125 -2.45,2.25 -1.3533,3.0848 -3.9871,2.91966 -3.9871,-0.25 0,-2.66503 -1.6287,-5 -3.4876,-5 -0.6217,0 -0.8523,-0.45 -0.5124,-1 0.3399,-0.55 0.1903,-1 -0.3326,-1 -0.5228,0 -1.26,-1.23299 -1.6383,-2.73998 -0.3782,-1.50699 -1.1352,-3.0166 -1.6823,-3.35469 -0.601,-0.37148 -0.3688,-1.24048 0.587,-2.19625 0.9728,-0.97277 1.1937,-1.82129 0.5739,-2.20434 -0.5542,-0.34253 -1.0077,-1.39621 -1.0077,-2.34152 0,-0.9453 -0.9,-2.48934 -2,-3.43119 -1.8766,-1.60679 -2.4626,-5.17851 -2.3272,-14.18367 0.016,-1.0734 -0.362,-2.4234 -0.8403,-3 -0.4783,-0.5766 -1.7346,-2.09896 -2.7918,-3.38303 -1.1228,-1.36378 -3.1462,-2.40342 -4.8657,-2.5 -4.111,-0.2309 -14.4645,-9.17791 -13.6371,-11.78462 0.4644,-1.46327 0.2181,-1.7243 -1.1366,-1.20448 -1.1723,0.44986 -1.4975,0.28848 -1.0096,-0.50093 0.4098,-0.66307 -0.5828,-2.55826 -2.305,-4.40096 -1.774,-1.8982 -2.6555,-3.6055 -2.132,-4.12907 0.5236,-0.52357 0.095,-1.74891 -1.0365,-2.96346 -1.2932,-1.38809 -1.5977,-2.40227 -0.9237,-3.07629 1.498,-1.498 1.2151,-2.6232 -0.4945,-1.96715 -0.825,0.31659 -1.5,0.13371 -1.5,-0.40638 0,-0.5401 -1.0985,-0.98199 -2.4411,-0.98199 -2.3636,0 -2.39,0.0782 -0.8291,2.46034 1.3565,2.07033 1.3919,2.59641 0.2232,3.3187 -1.121,0.69285 -0.9612,1.22927 0.8291,2.78196 1.2198,1.05797 2.2179,2.51037 2.2179,3.22755 0,0.71718 0.7875,2.20321 1.75,3.30227 1.674,1.91148 1.6691,1.96872 -0.1113,1.3174 -1.3674,-0.50018 -1.7149,-0.29919 -1.3095,0.75733 0.6313,1.64508 -2.0047,4.26978 -3.1034,3.09005 -0.3992,-0.42868 -0.1448,-0.98647 0.5653,-1.23955 0.9138,-0.32567 0.66,-1.00748 -0.8685,-2.33314 -1.3422,-1.16413 -1.9212,-2.4942 -1.5297,-3.5143 0.4541,-1.18339 0.2081,-1.47949 -0.8816,-1.06134 -0.9847,0.37789 -1.5166,-0.0189 -1.5266,-1.13865 -0.011,-1.26187 -0.2305,-1.3796 -0.8249,-0.44298 -0.6016,0.94803 -1.6549,0.46774 -4.1013,-1.87022 -2.5417,-2.42892 -3.4812,-2.83955 -4.1225,-1.80184 -0.6544,1.05888 -1.4246,0.81919 -3.6301,-1.12978 -1.5397,-1.36059 -2.9509,-2.8113 -3.136,-3.2238 -0.1851,-0.4125 -0.9741,-0.75 -1.7532,-0.75 -0.7792,0 -1.4167,-0.45 -1.4167,-1 0,-0.55 -0.45,-1 -1,-1 -0.55,0 -1,1.5 -1,3.33333 0,1.83334 -0.2699,3.60323 -0.5998,3.93311 -1.0921,1.09209 -5.2613,-1.4647 -4.7141,-2.8909 0.3879,-1.01071 -0.4288,-1.37554 -3.0791,-1.37554 -1.9839,0 -3.607,0.45 -3.607,1 0,0.55 -1.0553,1 -2.345,1 -3.0124,0 -5.8693,3.03519 -4.6754,4.96707 0.6005,0.97157 0.2196,1.99286 -1.2036,3.22716 -2.4271,2.10508 -3.1822,2.19394 -5.9689,0.70252 -1.5413,-0.82487 -2.2501,-0.79793 -2.8093,0.10677 -0.5362,0.86759 -0.9418,0.89604 -1.4335,0.10054 -0.4629,-0.74898 -1.2731,-0.7951 -2.4935,-0.14195 -0.9943,0.53214 -2.092,0.68336 -2.4393,0.33604 -0.3473,-0.34732 -0.6318,0.006 -0.6322,0.78518 -4e-4,0.81559 -1.09,1.47966 -2.568,1.56512 -1.8237,0.10544 -2.4119,-0.25665 -2.0307,-1.25 0.3005,-0.78319 -0.073,-1.39845 -0.8487,-1.39845 -0.7619,0 -1.582,-0.5625 -1.8225,-1.25 -0.3178,-0.90865 -0.9961,-0.75432 -2.484,0.56514 -1.4003,1.24177 -2.2643,1.46334 -2.7352,0.70144 -0.4797,-0.77626 -1.0679,-0.79862 -1.9412,-0.0738 -0.68919,0.57193 -1.50629,0.78656 -1.81589,0.47695 -0.5251,-0.52501 -3.0033,1.19765 -6.4384,4.47541 -1.9252,1.83703 -8.3678,2.40681 -7.7057,0.68149 0.2632,-0.68585 -0.3382,-2.25559 -1.3364,-3.4883 -1.4152,-1.74774 -2.4143,-2.09086 -4.5368,-1.55814 -1.4971,0.37574 -2.4374,1.14354 -2.0897,1.70623 0.3503,0.56679 0.016,0.8177 -0.7491,0.5626 -0.7597,-0.25326 -1.8612,0.47586 -2.4477,1.62026 -0.5864,1.1444 -1.8584,2.01307 -2.8265,1.93038 -1.1305,-0.0966 -1.5679,0.35107 -1.2225,1.25118 0.2958,0.77083 -0.5746,3.04077 -1.9342,5.04429 -1.7977,2.64908 -2.1852,3.98839 -1.4205,4.90979 2.0935,2.52254 -0.688,2.23125 -3.6202,-0.37911 -1.8128,-1.61379 -2.8554,-3.40175 -2.627,-4.50489 0.5848,-2.83375 -0.6868,-6.67118 -2.2124,-6.67118 -1.9005,0 -2.9431,-3.15771 -1.3718,-4.15474 0.7062,-0.44805 0.8339,-0.82842 0.2839,-0.84526 -0.55,-0.0168 -0.325,-0.46684 0.5,-1 1.213,-0.78387 1.0694,-0.9723 -0.75,-0.98469 -1.2375,-0.008 -2.25,-0.41283 -2.25,-0.89868 0,-1.49654 -4.3107,-2.1032 -5.8606,-0.82478 -1.1458,0.94512 -1.5541,0.94244 -1.8755,-0.0123 -0.6116,-1.81678 -4.1746,1.82206 -4.1636,4.25222 0.015,3.3907 -1.7708,10.36637 -3.0488,11.90617 -0.673,0.81097 -0.9334,1.94419 -0.5786,2.51829 0.9976,1.61407 -1.0715,1.23237 -2.4729,-0.4562 -0.6847,-0.825 -0.9532,-1.5 -0.5968,-1.5 0.3565,0 0.053,-1.2375 -0.6754,-2.75 -0.728,-1.5125 -1.243,-4.55 -1.1445,-6.75 0.1939,-4.33298 -1.1332,-6.91791 -2.9466,-5.73899 -1.3712,0.89143 -4.941,0.97598 -5.6367,0.1335 -0.275,-0.33302 -2.6291,-0.83929 -5.2313,-1.12505 -3.4171,-0.37525 -5.0657,-0.11647 -5.9357,0.93171 -0.9394,1.13193 -0.9388,1.61542 0,2.19731 1.9804,1.22392 -1.8829,4.70418 -4.7491,4.27825 -2.6323,-0.3912 -5.9816,-3.79087 -6.0851,-6.17673 -0.053,-1.2198 -0.3133,-1.1731 -1.3935,0.25 -0.7307,0.9625 -1.811,1.75 -2.4008,1.75 -1.4911,0 -2.232,2.89505 -1.7275,6.75 0.2339,1.7875 0.017,3.25 -0.4817,3.25 -1.7875,0 -10.671,-10.00978 -12.0107,-13.53335 -0.5161,-1.35669 -1.5691,-2.46668 -2.3404,-2.46668 -1.7152,0 -3.8797,2.43412 -2.9719,3.34201 0.3619,0.36189 -0.2904,0.65799 -1.4496,0.65799 -2.399,0 -3.7732,1.54358 -2.2257,2.5 0.5679,0.35101 0.7766,1.05253 0.4636,1.55893 -0.313,0.5064 -1.4779,0.074 -2.5888,-0.96094 -2.0162,-1.87835 -9.0774,-2.32689 -11.6455,-0.73972 -0.6085,0.37609 -1.5218,-0.0585 -2.0295,-0.96565 -0.6295,-1.12494 -1.1448,-1.29062 -1.6204,-0.52104 -1.1886,1.92317 -2.5794,1.24482 -2.5794,-1.25808 0,-1.89483 -0.6271,-2.47855 -3.044,-2.83327 -3.2081,-0.47085 -5.0731,0.91133 -2.9773,2.20657 0.8788,0.54314 0.9157,0.96043 0.1281,1.44722 -1.6466,1.01761 -1.3383,2.36371 0.5048,2.20487 2.322,-0.20011 4.3126,3.1534 2.5314,4.26473 -0.7674,0.4788 -1.1044,1.66131 -0.7757,2.72153 0.4089,1.31871 -0.5937,3.03558 -3.3801,5.78785 -3.1004,3.06238 -3.716,4.20889 -2.8319,5.27417 0.6214,0.74864 0.862,1.62886 0.5348,1.95604 -1.0554,1.0554 2.1086,3.37127 3.7469,2.74258 1.2188,-0.46769 1.4241,-0.17782 0.8871,1.25287 -0.602,1.60413 -0.4777,1.6819 0.8996,0.56278 1.1493,-0.93377 1.7921,-0.98485 2.2884,-0.18182 0.3796,0.6142 1.3197,0.87517 2.0891,0.57994 2.1598,-0.8288 1.6532,1.19392 -0.6012,2.40044 -1.2609,0.6748 -2,0.70536 -2,0.0827 0,-1.60309 -6.1025,-0.35507 -7.8722,1.60996 -1.7461,1.93869 -2.1488,6.00152 -0.8015,8.08529 0.5343,0.82641 0,1.9518 -1.5,3.18516 -2.289,1.87667 -2.2949,1.9305 -0.3682,3.36082 1.077,0.79947 2.427,1.28338 3,1.07534 0.5731,-0.20804 1.7039,0.0426 2.5129,0.55687 1.206,0.76664 0.8127,1.59355 -2.1834,4.58963 -2.1031,2.10305 -4.1439,3.35204 -4.8074,2.94202 -0.8064,-0.49843 -1.0607,0.35667 -0.8462,2.84623 0.1686,1.95729 -0.014,3.87895 -0.405,4.27034 -0.3914,0.3914 -0.182,1.34983 0.4654,2.12986 0.916,1.10372 0.8586,1.62307 -0.2587,2.34201 -1.2334,0.79363 -1.2367,1.05188 -0.024,1.83303 1.1945,0.7691 1.156,1.16545 -0.25,2.57143 -2.2411,2.24108 -2.1857,4.64772 0.088,3.81756 1.1559,-0.42204 0.8101,0.32016 -1.0183,2.18605 -1.7285,1.76398 -2.5609,3.47855 -2.2161,4.565 0.3038,0.95698 -0.1899,2.48212 -1.0969,3.3892 -1.5245,1.5245 -1.5261,1.78539 -0.02,3.44941 1.549,1.71167 1.6241,7.64829 0.1274,10.07005 -0.3072,0.49712 -0.064,1.20931 0.5397,1.58265 0.7077,0.43737 0.1508,1.66773 -1.5657,3.4594 -1.7732,1.85087 -2.286,3.01424 -1.5334,3.47933 0.8048,0.49739 0.8234,1.06876 0.065,1.98295 -0.5862,0.70632 -0.8024,1.97074 -0.4804,2.80982 0.322,0.83908 0.1047,1.82267 -0.4828,2.18577 -1.7413,1.07617 -1.2368,2.14427 1.6297,3.45032 1.4838,0.67607 2.2713,1.53581 1.75,1.91052 -0.5213,0.37471 -1.6228,1.54683 -2.4478,2.6047 -1.3946,1.78821 -1.3419,1.88266 0.75,1.34362 2.6853,-0.69197 2.9762,0.96116 0.5,2.84092 -1.0688,0.8113 -1.2634,1.34082 -0.5,1.36025 1.5477,0.0394 1.6793,3.0318 0.1333,3.0318 -0.6141,0 -0.9014,0.82303 -0.6383,1.82896 0.263,1.00593 -0.1,2.61965 -0.8066,3.58605 -0.7625,1.04281 -1.0629,3.12413 -0.7391,5.11992 0.3799,2.34072 0.053,3.85599 -1.0768,4.98538 -2.0371,2.03707 -2.1095,3.88054 -0.1225,3.11806 1.9577,-0.75125 1.929,0.76066 -0.045,2.3994 -0.8501,0.70546 -1.2892,1.95064 -0.9759,2.76706 0.3133,0.81642 -0.2288,2.37913 -1.2045,3.47269 -1.7275,1.93602 -1.7086,1.96786 0.718,1.21114 2.1781,-0.6792 2.3295,-0.58113 1.2015,0.77807 -0.8833,1.06427 -0.9546,1.76297 -0.2259,2.21334 0.5857,0.36197 0.7283,1.18953 0.317,1.83903 -0.8867,1.40001 -1.4611,5.5762 -1.5686,11.40322 -0.063,3.41607 -0.3344,4.00944 -1.4212,3.1075 -0.7388,-0.61315 -1.637,-0.82105 -1.9961,-0.46199 -0.3591,0.35906 0.1404,1.23285 1.1099,1.94176 0.9695,0.70892 1.861,2.70834 1.9811,4.44317 0.1793,2.59018 -0.1293,3.11785 -1.7255,2.95074 -1.0691,-0.11193 -2.1436,0.35931 -2.3877,1.04718 -0.2996,0.84446 0.1518,1.03298 1.3898,0.58043 1.7339,-0.63383 1.7301,-0.55237 -0.071,1.49932 -1.7773,2.02417 -1.7941,2.29212 -0.25,3.99831 0.9103,1.00581 1.655,2.26609 1.655,2.80064 0,1.88964 -2.5148,6.35512 -3.5833,6.36282 -0.5959,0.004 -1.0834,1.33801 -1.0834,2.96381 0,1.62581 0.375,2.72425 0.8334,2.44098 1.8434,-1.13933 0.6365,1.25697 -1.7959,3.5657 -1.4418,1.36845 -2.1006,2.62738 -1.4827,2.83333 0.6115,0.20386 1.1119,1.20282 1.1119,2.21993 0,1.0171 0.9,2.13492 2,2.48405 1.1,0.34913 2,1.26362 2,2.0322 0,1.72469 -3.0034,3.37418 -4.9094,2.69622 -0.9953,-0.35405 -1.2156,0.003 -0.75,1.21692 0.3627,0.94503 0.6594,2.15799 0.6594,2.69546 0,0.53748 0.45,0.69912 1,0.3592 1.5971,-0.98707 1.1573,0.66497 -0.75,2.81736 -1.2544,1.41554 -1.4033,2.09622 -0.5259,2.40344 0.9124,0.31948 0.8195,1.0461 -0.365,2.8539 -0.983,1.50017 -1.1638,2.4253 -0.4741,2.4253 0.6132,0 1.115,1.37235 1.115,3.04966 0,1.67731 0.5637,4.26481 1.2528,5.75 1.4487,3.12273 1.5518,6.08943 0.2829,8.14252 -0.5721,0.92575 -0.4673,1.58061 0.2935,1.83421 0.6508,0.21694 0.8459,0.9185 0.4337,1.55902 -0.9155,1.42241 -1.0934,5.66459 -0.2376,5.66459 0.3401,0 0.6679,2.44915 0.7286,5.44256 0.088,4.34094 -0.1796,5.33132 -1.3218,4.89301 -0.7877,-0.30225 -1.4321,-0.0514 -1.4321,0.55744 0,0.60885 0.422,1.10699 0.9378,1.10699 1.0607,0 1.072,3.97509 0.016,5.5 -0.3809,0.55 -0.9967,2.6875 -1.3683,4.75 -0.3717,2.0625 -1.1054,3.75 -1.6304,3.75 -0.5251,0 -0.9547,2.22344 -0.9547,4.94098 0,2.71754 -0.45,5.2191 -1,5.55902 -0.55,0.33992 -1.0005,1.60398 -1.0012,2.80902 -6e-4,1.25225 -2.3369,4.7605 -5.4527,8.18819 -3.1621,3.47854 -5.08,6.36889 -4.5667,6.8822 0.5133,0.51332 0.069,1.98904 -1.0586,3.51385 -1.9872,2.68781 -2.8918,5.43844 -3.4279,10.423 -0.1666,1.54894 -1.0206,3.60937 -1.8979,4.57874 -0.8773,0.96936 -1.595,2.68445 -1.595,3.8113 0,1.12684 -0.6806,2.61362 -1.51236,3.30393 -1.08913,0.9039 -1.21737,1.61054 -0.45826,2.5252 0.74012,0.8918 0.73522,1.37636 -0.0165,1.62692 -1.25159,0.4172 -4.98063,17.62171 -4.99981,23.06741 -0.0209,5.94382 -2.71203,11.44556 -11.86059,24.24813 -6.82009,9.54408 -8.94442,13.3825 -10.4548,18.89065 -1.04254,3.80202 -2.74165,8.31197 -3.77579,10.02211 -1.03414,1.71014 -2.88774,5.13435 -4.11911,7.60935 -3.01561,6.06124 -9.30616,14.96381 -11.81522,16.72122 -1.12184,0.78576 -4.61548,1.67797 -7.76367,1.98269 -3.61396,0.3498 -6.50154,1.25931 -7.83338,2.46731 -3.05521,2.77117 -25.20323,3.96437 -27.27386,1.46947 -0.81707,-0.98454 -2.85404,-1.6407 -5.09317,-1.6407 -2.59429,0 -4.55365,-0.76191 -6.42908,-2.5 -1.70954,-1.58435 -3.86902,-2.49953 -5.89602,-2.49872 -1.75916,7e-4 -7.02348,-0.51229 -11.69848,-1.13998 -11.15331,-1.49749 -14,-3.81179 -14,-11.38172 0,-2.83044 -0.27587,-5.42211 -0.61303,-5.75928 -0.33717,-0.33717 -1.92949,0.36026 -3.53849,1.54984 -2.4402,1.80412 -3.24856,1.9611 -4.8734,0.94637 -2.63989,-1.64864 -5.80354,-1.53091 -7.61794,0.28349 -0.825,0.825 -2.62909,1.5 -4.0091,1.5 -1.38001,0 -4.97877,1.63927 -7.99725,3.64283 l -5.48815,3.64282 -9.50492,-0.56707 c -7.04346,-0.42022 -10.84542,-0.16682 -14.68131,0.97852 -2.84703,0.85007 -8.85104,1.60348 -13.34226,1.67424 -7.33176,0.11552 -8.42648,-0.11584 -10.71737,-2.265 -1.75338,-1.6449 -4.11996,-2.54436 -7.56563,-2.87545 -2.92132,-0.2807 -4.76094,-0.89144 -4.40753,-1.46327 0.38009,-0.615 -0.65367,-0.7322 -2.76851,-0.31388 -2.44218,0.48307 -2.9628,0.38594 -1.88347,-0.35142 1.25916,-0.86021 1.27864,-1.22035 0.125,-2.31068 -1.05763,-0.99959 -1.46806,-1.01563 -1.81521,-0.0709 -0.35311,0.96094 -0.72977,0.96094 -1.77004,0 -0.72681,-0.67138 -1.11714,-1.5582 -0.86741,-1.9707 0.24973,-0.4125 -0.61331,-0.75 -1.91787,-0.75 -4.41814,0 -7.56822,-4.72223 -8.83594,-13.2458 -1.43194,-9.62769 -0.70553,-13.61802 3.15182,-17.31359 2.23613,-2.14235 2.88714,-3.50717 2.4685,-5.17516 -0.74532,-2.96958 0.53194,-2.88181 2.84279,0.19535 1.63976,2.18352 2.0164,2.29237 3.34272,0.96605 0.84907,-0.84906 2.31316,-1.23498 3.38937,-0.89341 1.13487,0.3602 1.89463,0.1242 1.89463,-0.5885 0,-0.90549 0.35169,-0.89796 1.47165,0.0315 2.26832,1.88254 8.2016,2.95028 9.45109,1.70079 0.76968,-0.76968 1.07726,-0.69968 1.07726,0.24518 0,0.92673 0.37404,1.02204 1.25,0.31851 0.6875,-0.55217 2.825,-1.25729 4.75,-1.56694 8.91852,-1.43461 17.65326,-3.72364 20.18883,-5.29072 0.68969,-0.42624 2.84185,-0.73441 4.78257,-0.68481 1.94073,0.0496 4.2036,-0.47683 5.0286,-1.16984 0.825,-0.69301 2.70751,-1.54651 4.18335,-1.89665 1.47584,-0.35015 2.97679,-1.56118 3.33544,-2.69118 0.38753,-1.22101 1.3274,-1.91797 2.31665,-1.71789 0.91551,0.18516 2.78496,-0.68924 4.15434,-1.94313 1.36938,-1.25388 3.05688,-2.27979 3.75,-2.27979 0.69312,0 1.26022,-0.45 1.26022,-1 0,-0.55 1.15714,-1 2.57143,-1 1.41428,0 3.2617,-0.69027 4.10537,-1.53394 0.84367,-0.84367 2.33324,-1.28026 3.31015,-0.9702 1.09366,0.34711 2.01113,-0.0485 2.38756,-1.02944 0.33625,-0.87625 1.07188,-1.30857 1.63474,-0.9607 0.56286,0.34786 0.78369,1.02029 0.49075,1.49428 -0.29294,0.47399 -0.10768,1.12443 0.41169,1.44542 0.51938,0.32099 1.23901,-0.34488 1.5992,-1.47972 0.36018,-1.13483 1.40508,-1.98955 2.32199,-1.89936 0.91692,0.0902 2.72947,0.11215 4.0279,0.0488 L 658.20068,881 l -2.36079,-1.96673 -2.36078,-1.96673 4.75661,-0.0333 c 3.87286,-0.0271 5.17343,-0.52054 7,-2.65588 1.23387,-1.44244 3.48089,-3.96503 4.99339,-5.60576 2.7629,-2.99713 3.72818,-5.49421 1.62027,-4.19145 -0.69191,0.42762 -0.93412,0.15983 -0.625,-0.69098 0.2776,-0.76406 0.9555,-1.29519 1.50645,-1.18029 1.9147,0.3993 14.67743,-15.20552 13.71275,-16.7664 -0.36322,-0.5877 0.0775,-1.88386 0.97929,-2.88036 0.90182,-0.99651 1.50841,-2.43065 1.34796,-3.18699 -0.16045,-0.75634 0.18515,-1.2912 0.76799,-1.18859 0.65425,0.11519 1.01754,-1.98919 0.9495,-5.5 -0.0606,-3.12761 0.25956,-6.46232 0.7115,-7.41046 0.45194,-0.94814 1.01999,-4.54814 1.26233,-8 0.24235,-3.45186 0.8771,-9.42611 1.41057,-13.27611 0.53346,-3.85 1.25952,-9.475 1.61345,-12.5 0.35394,-3.025 0.90541,-6.175 1.2255,-7 0.32008,-0.825 0.74361,-3.525 0.94117,-6 1.48422,-18.59413 1.78825,-25 1.1865,-25 -0.38182,0 -0.56196,-1.66676 -0.40032,-3.70391 0.16163,-2.03715 -0.14802,-4.97155 -0.68812,-6.52089 -0.71583,-2.05344 -0.63213,-3.23855 0.3088,-4.37231 0.77125,-0.9293 0.91153,-1.82652 0.3485,-2.22911 -0.51826,-0.37055 -0.93933,-6.07375 -0.93569,-12.67375 0.004,-7.54758 -0.41231,-12.44541 -1.12243,-13.20046 -0.62096,-0.66025 -1.44328,-3.29604 -1.82736,-5.85733 -0.38409,-2.56128 -1.60102,-6.264 -2.70428,-8.22827 -1.10326,-1.96427 -2.18162,-5.40347 -2.39634,-7.64267 -0.21472,-2.2392 -0.61796,-6.51398 -0.89609,-9.49951 -0.27812,-2.98554 -1.07745,-5.79804 -1.77629,-6.25 -0.89974,-0.5819 -0.94938,-1.04067 -0.17009,-1.57176 1.39986,-0.954 1.40643,-27.46063 0.007,-28.42378 -0.61596,-0.42395 -0.52163,-1.22484 0.25441,-2.15991 1.01035,-1.21739 0.82526,-1.77197 -1.02357,-3.06694 -1.76501,-1.23627 -1.99336,-1.84441 -1.04767,-2.7901 0.94569,-0.94569 1.20927,-0.91139 1.20927,0.1574 0,0.75166 0.28585,1.08081 0.63522,0.73144 0.34938,-0.34937 -0.43139,-1.74344 -1.73504,-3.09792 -2.08611,-2.16747 -2.38462,-3.47323 -2.49008,-10.89209 -0.0659,-4.63617 -0.43669,-8.9421 -0.82397,-9.56875 C 681.17795,612.51271 681.33763,612 681.92009,612 c 0.58246,0 1.05902,-0.45 1.05902,-1 0,-0.55 -0.67881,-1 -1.50847,-1 -1.25593,0 -1.30029,-0.33337 -0.26495,-1.99121 1.07286,-1.71791 0.92279,-2.21587 -1.09337,-3.62804 -1.68794,-1.18228 -1.9927,-1.84956 -1.09742,-2.40287 0.92509,-0.57173 0.7116,-1.33265 -0.84166,-2.99988 -1.8889,-2.02749 -1.93648,-2.37851 -0.51513,-3.79986 1.42136,-1.42136 1.39918,-1.62454 -0.24011,-2.19958 -1.25265,-0.4394 -1.44342,-0.85773 -0.62251,-1.36507 0.65099,-0.40234 1.18362,-1.21007 1.18362,-1.79495 0,-0.67059 -0.55411,-0.60356 -1.5,0.18146 -2.09122,1.73556 -1.8702,0.33507 0.57029,-3.61373 1.13866,-1.84239 1.756,-3.85831 1.37188,-4.47984 -0.38412,-0.62152 -0.0927,-1.50439 0.64764,-1.96193 1.05135,-0.64977 0.81275,-1.29442 -1.08981,-2.9445 -1.96478,-1.70405 -2.1644,-2.28036 -1.03223,-2.98008 1.1199,-0.69214 1.15551,-1.16645 0.17619,-2.34646 -0.93387,-1.12525 -0.94454,-1.57327 -0.0446,-1.87324 0.8521,-0.28404 0.53963,-2.56086 -1.11755,-8.14311 -1.62595,-5.47703 -2.69345,-7.598 -3.64109,-7.23436 -0.73739,0.28296 -1.34071,0.0628 -1.34071,-0.48932 0,-0.66801 -0.62095,-0.67148 -1.85625,-0.0104 -1.41415,0.75683 -2.36682,0.51776 -4,-1.00377 -2.30571,-2.14809 -2.79592,-3.9193 -1.08473,-3.9193 0.58246,0 0.76194,-0.48068 0.39885,-1.06817 -0.3631,-0.5875 -1.30272,-0.82161 -2.08807,-0.52024 -0.97804,0.37531 -1.61565,-0.39083 -2.02385,-2.43183 C 659.99729,543.34089 659.28722,542 658.74712,542 c -0.54009,0 -0.71216,-0.70317 -0.38236,-1.5626 0.40109,-1.04524 -1.36365,-3.48965 -5.33004,-7.38281 -4.55332,-4.46927 -5.80189,-6.30881 -5.37918,-7.92525 0.36485,-1.39519 -0.004,-2.31768 -1.09278,-2.73561 -0.98431,-0.37772 -1.42855,-1.30705 -1.10783,-2.31756 0.29831,-0.93986 -0.37539,-2.66463 -1.52121,-3.89452 -1.13115,-1.21415 -1.81482,-2.59882 -1.51925,-3.07706 0.29556,-0.47823 -0.40246,-2.06434 -1.55117,-3.52469 -1.70973,-2.17357 -2.35593,-2.43328 -3.56259,-1.43184 -1.17534,0.97544 -1.65812,0.93241 -2.3825,-0.21236 -1.22324,-1.93313 -1.18297,-4.20446 0.0609,-3.4357 0.55,0.33992 1,0.19568 1,-0.32052 0,-0.51621 -2.11209,-2.66926 -4.69354,-4.78456 -3.00889,-2.46556 -4.4446,-3.19729 -4,-2.03867 0.38145,0.99403 0.69354,2.47208 0.69354,3.28455 0,0.81248 0.45,1.19912 1,0.8592 1.41876,-0.87684 1.26125,4.83875 -0.17287,6.27287 -0.89717,0.89717 -0.89717,1.77799 0,3.74706 1.47324,3.23342 1.46547,3.52958 -0.0771,2.93763 -1.44396,-0.5541 -1.85112,4.66664 -0.44129,5.65842 1.43823,1.01176 -1.62848,4.89036 -3.79926,4.80507 -1.13873,-0.0447 -1.44972,-0.30353 -0.71771,-0.59724 1.00044,-0.40142 1.02569,-0.83886 0.11199,-1.93981 -0.92582,-1.11554 -0.80108,-1.83995 0.57954,-3.36551 0.96761,-1.0692 1.49384,-2.63576 1.1694,-3.48124 -0.88309,-2.30128 -2.66418,-1.85243 -2.39088,0.60252 0.13102,1.17687 -0.24537,2.31306 -0.83641,2.52487 -0.70113,0.25126 -1.00234,-1.62199 -0.86665,-5.38977 0.14568,-4.04529 -0.25917,-6.30607 -1.35175,-7.5485 -1.16877,-1.32906 -1.27358,-2.05977 -0.41815,-2.9152 0.85543,-0.85543 0.71165,-1.46818 -0.57363,-2.44457 -1.06419,-0.80843 -1.24076,-1.31506 -0.4652,-1.3348 1.79933,-0.0458 1.54162,-2.70592 -0.33179,-3.42481 -2.25231,-0.8643 -2.27491,-0.84382 -1.8135,1.64301 0.22961,1.2375 0.14998,1.6875 -0.17696,1 -1.28348,-2.69901 -2.12061,-1.03895 -1.41684,2.80965 0.61672,3.37259 0.49053,3.96301 -0.74562,3.48866 -1.02784,-0.39442 -1.30863,-0.10363 -0.90802,0.94035 0.76011,1.98081 -0.75649,1.94017 -2.42052,-0.0649 -0.92534,-1.11496 -0.98612,-1.77523 -0.20769,-2.25633 0.77185,-0.47703 0.67688,-1.25939 -0.31805,-2.62004 -1.10081,-1.50545 -1.68642,-1.672 -2.61476,-0.74366 -0.65797,0.65796 -1.64628,1.19627 -2.19628,1.19627 -0.55556,0 -0.46667,-0.53333 0.2,-1.2 1.83073,-1.83073 1.43679,-2.67468 -0.95637,-2.04886 -1.6175,0.42299 -1.95135,0.23218 -1.33596,-0.76356 0.59646,-0.96508 0.36616,-1.15314 -0.84363,-0.6889 -0.91522,0.3512 -1.66404,0.18684 -1.66404,-0.36525 0,-0.65752 -0.62224,-0.67078 -1.80379,-0.0384 -1.56922,0.83982 -1.81644,0.51929 -1.90102,-2.46481 -0.0535,-1.8866 0.2941,-3.43018 0.7724,-3.43018 0.4783,0 0.58064,-0.75312 0.22742,-1.67361 -0.48654,-1.2679 -0.23652,-1.51792 1.03138,-1.03138 0.92049,0.35318 1.67361,0.2063 1.67361,-0.32643 0,-0.53274 -0.675,-0.96862 -1.5,-0.96862 -0.825,0 -1.5,-0.43588 -1.5,-0.96862 0,-0.53273 -0.75312,-0.67961 -1.67361,-0.32639 -1.2679,0.48654 -1.51792,0.23652 -1.03138,-1.03138 0.92368,-2.40708 -0.90949,-2.0621 -2.71122,0.51022 -0.84609,1.20797 -1.28208,3.17009 -0.97568,4.39091 0.64491,2.56949 -1.42142,4.32927 -2.7046,2.30338 -0.48009,-0.75797 -0.87978,-1.00848 -0.8882,-0.55669 -0.0379,2.03235 -3.11015,-2.54893 -3.69736,-5.51339 -0.56858,-2.87047 -0.45544,-3.14384 0.8554,-2.06672 3.3318,2.73777 3.02523,-1.52121 -0.37286,-5.17988 -1.14327,-1.23095 -1.80049,-1.46566 -1.80049,-0.64301 0,0.74075 -0.64234,1.04906 -1.5,0.71994 -0.825,-0.31658 -1.5,-0.0916 -1.5,0.5 0,0.59159 -0.675,0.81659 -1.5,0.5 -0.825,-0.31658 -1.5,-0.12389 -1.5,0.4282 0,0.66001 -0.66418,0.64834 -1.93931,-0.0341 -1.36081,-0.72828 -2.14024,-0.71279 -2.61287,0.0519 -0.47578,0.76983 -0.98578,0.77761 -1.73689,0.0265 -0.75112,-0.75112 -1.46505,-0.72995 -2.43146,0.0721 -1.0632,0.88238 -1.71566,0.63924 -2.92755,-1.09097 -0.85768,-1.22452 -2.18774,-1.98529 -2.95567,-1.69061 -0.76794,0.29469 -1.39625,0.0448 -1.39625,-0.55527 0,-0.69626 -0.57035,-0.61771 -1.57622,0.21708 -1.15559,0.95906 -1.76432,1.00378 -2.28113,0.16757 -0.39319,-0.63621 -2.16958,-0.95522 -4.01707,-0.7214 -2.60005,0.32905 -3.19135,0.10435 -2.75025,-1.04512 0.38022,-0.99084 -0.0977,-1.4643 -1.47814,-1.4643 -1.12203,0 -2.7483,-0.70825 -3.61394,-1.57389 -1.22623,-1.22623 -1.74584,-1.29565 -2.35235,-0.3143 -0.60028,0.97127 -1.10309,0.99017 -2.19669,0.0826 -0.78003,-0.64736 -1.71432,-0.88092 -2.07622,-0.51903 -0.36189,0.36191 -0.65799,-0.092 -0.65799,-1.00866 0,-0.91667 -0.45,-1.66667 -1,-1.66667 -0.55,0 -1,0.40787 -1,0.90638 0,0.49851 -0.9,0.67103 -2,0.38337 -1.1,-0.28766 -2,-0.92053 -2,-1.40638 0,-0.48585 -0.70329,-0.88337 -1.56286,-0.88337 -0.88958,0 -1.48617,0.75389 -1.38484,1.75 0.4266,4.19386 -0.2669,4.26566 -3.6727,0.38024 C 523.36748,466.85861 521.31034,465 520.78728,465 c -1.27044,0 -3.80817,2.59452 -3.80817,3.89339 0,0.56993 -0.82898,1.4799 -1.84217,2.02214 -1.3033,0.69751 -1.77812,1.951 -1.62321,4.28518 0.26394,3.97702 -1.22002,6.30527 -3.05052,4.7861 -0.89586,-0.7435 -1.41342,-0.61338 -1.82486,0.45881 -0.37394,0.97447 -1.7963,1.45073 -4.07659,1.36501 -2.07532,-0.078 -3.24809,-0.54294 -2.87842,-1.14109 0.38269,-0.61919 -0.0686,-0.74371 -1.16724,-0.32211 -1.1571,0.44402 -2.2421,0.0705 -3.06521,-1.05514 -1.07192,-1.46594 -0.96976,-1.95562 0.64379,-3.08579 1.05484,-0.73884 1.62911,-1.8106 1.27616,-2.38168 -0.41434,-0.67042 -0.93702,-0.56055 -1.47509,0.31006 -0.65032,1.05224 -1.09816,1.0836 -2.03896,0.1428 -0.9408,-0.9408 -1.61219,-0.7368 -3.05676,0.92881 -1.81366,2.09116 -1.87957,2.09556 -3.25336,0.21679 -1.00471,-1.37402 -1.10176,-2.2796 -0.34238,-3.19461 2.09577,-2.52525 -0.12873,-2.35481 -2.33154,0.17864 -2.32531,2.67434 -4.89364,3.44597 -4.89364,1.47025 0,-0.80699 -0.39655,-0.79334 -1.41097,0.0485 -1.06391,0.88297 -1.58644,0.88709 -2.12434,0.0168 -0.76604,-1.23946 -5.46469,3.07124 -5.46469,5.0135 0,0.574 -0.45,1.04364 -1,1.04364 -1.26677,0 -1.25935,-0.64689 0.0352,-3.06574 0.62398,-1.16591 0.65708,-1.93426 0.0833,-1.93426 -0.52352,0 -1.14117,0.5625 -1.37257,1.25 -0.33049,0.98195 -0.73578,0.9901 -1.88998,0.038 -1.18719,-0.9793 -1.74636,-0.81978 -2.91262,0.83089 -1.70307,2.41046 -4.94335,4.39082 -4.94335,3.02123 0,-0.51162 1.06767,-1.95782 2.3726,-3.21377 1.76765,-1.70131 2.08899,-2.58715 1.26028,-3.47429 -1.45002,-1.55225 -5.59295,0.22483 -5.73142,2.45844 -0.0542,0.87421 -0.1667,2.70621 -0.25,4.07111 -0.0908,1.48722 -0.8527,2.61856 -1.90146,2.82333 -1.66129,0.32437 -2.26315,-1.17809 -1.82465,-4.55496 0.24206,-1.86406 -1.62775,-1.50955 -3.11865,0.5913 -1.87873,2.64736 -5.80191,4.6311 -5.82201,2.94388 -0.009,-0.79218 -0.30047,-0.90158 -0.75867,-0.28518 -0.40885,0.55 -2.03285,2.125 -3.6089,3.5 -2.6942,2.35051 -2.82687,2.3739 -2.21875,0.39118 0.42117,-1.37322 0.0654,-2.59135 -1.02004,-3.49216 -1.47898,-1.22744 -1.59378,-1.1532 -1.01865,0.65886 0.4848,1.52748 -0.26717,2.91171 -2.98354,5.49215 -2.58148,2.45229 -3.77436,3.05577 -4.12498,2.08682 -0.35883,-0.99165 -0.6892,-1.04613 -1.21219,-0.19991 -0.39541,0.63979 -1.80343,1.19226 -3.12895,1.22772 -1.32551,0.0355 -3.49616,0.57542 -4.82366,1.19991 -1.86042,0.87519 -2.50983,0.84893 -2.83333,-0.11457 -0.62263,-1.85441 -2.23553,-1.514 -2.36903,0.5 -0.11048,1.66667 -0.13778,1.66667 -0.57333,0 -0.25152,-0.9625 -1.0852,-1.75 -1.85261,-1.75 -0.76741,0 -1.17908,0.56343 -0.91483,1.25206 0.26425,0.68863 -0.42487,1.81744 -1.53139,2.50847 -1.18857,0.74231 -2.01182,0.84377 -2.01182,0.24796 0,-0.55466 -0.675,-1.00847 -1.5,-1.00847 -0.825,0 -1.50689,0.5625 -1.51531,1.25 -0.0102,0.83588 -0.34154,0.75305 -1,-0.25 -0.80979,-1.23357 -1.13851,-1.2616 -1.85067,-0.15783 -0.72392,1.12199 -1.21789,1.1224 -3.01117,0.002 -1.17986,-0.73684 -2.39549,-2.12831 -2.70141,-3.09217 -0.75356,-2.37427 -1.43379,-2.19383 -4.84911,1.2863 -1.78082,1.81461 -3.57579,2.77751 -4.58221,2.45808 -2.04592,-0.64935 -5.49012,2.97509 -5.49012,5.77742 0,1.127 -0.5625,2.23883 -1.25,2.47074 -0.6875,0.2319 -1.25,-0.27673 -1.25,-1.1303 0,-1.06123 -0.55335,-1.34457 -1.75,-0.8961 -1.53249,0.57433 -1.57942,0.44613 -0.37756,-1.03139 1.5621,-1.92037 0.15937,-2.31904 -1.68171,-0.47796 -0.94569,0.94569 -1.54016,0.73686 -2.72737,-0.95811 -0.8833,-1.2611 -2.13861,-1.92927 -3.00207,-1.59793 -0.99764,0.38283 -1.30386,0.10009 -0.93438,-0.86275 0.42395,-1.10481 -0.25922,-1.3685 -2.98866,-1.15355 -4.16735,0.3282 -4.48918,-0.74377 -1.03825,-3.45827 2.65687,-2.0899 3.32797,-3.64391 1.25,-2.89455 -1.39436,0.50284 -6.75,-2.27394 -6.75,-3.49972 0,-1.27008 -2.66115,-0.89761 -3.85376,0.5394 -0.80013,0.96409 -0.79057,1.63188 0.0352,2.45762 1.80602,1.80602 -0.86527,4.45815 -3.22067,3.19758 C 351.93376,491.44054 350.18101,491 349.04485,491 c -1.13616,0 -2.06574,-0.49814 -2.06574,-1.10699 0,-0.60884 0.675,-0.84797 1.5,-0.53138 1.71063,0.65643 1.8976,-0.18425 0.52417,-2.35676 -0.81095,-1.28276 -1.16117,-1.21174 -2.46568,0.5 -1.18083,1.54945 -1.71199,1.70532 -2.37776,0.6978 -0.6851,-1.03678 -1.11895,-0.98203 -2.16018,0.27257 -0.71661,0.86346 -2.02688,1.37658 -2.91173,1.14028 -0.88485,-0.2363 -2.90328,-0.71932 -4.48539,-1.07339 l -2.87657,-0.64377 2.08054,-2.21464 c 1.46201,-1.55623 1.80601,-2.65598 1.15709,-3.69918 -0.77888,-1.25211 -1.25662,-1.27799 -3.05136,-0.16525 -2.93597,1.82029 -3.54739,0.76833 -2.01558,-3.46782 1.44832,-4.00526 0.57115,-5.30687 -3.59612,-5.33616 -1.19822,-0.008 -2.77322,-0.57781 -3.5,-1.26531 -0.72679,-0.6875 -1.88393,-1.295 -2.57143,-1.35 -0.6875,-0.055 -1.86875,-0.1675 -2.625,-0.25 -0.75625,-0.0825 -1.64318,-1.49089 -1.97095,-3.12976 -0.42871,-2.14356 -1.02505,-2.81511 -2.125,-2.39301 -0.89142,0.34207 -1.52905,0.0417 -1.52905,-0.72024 0,-0.98416 -0.28375,-1.02324 -1.14876,-0.15823 -0.865,0.865 -1.85525,0.7834 -4.00903,-0.33035 -2.84734,-1.47242 -6.17901,-0.77069 -7.00506,1.47544 -0.32771,0.89109 -3.53394,1.44159 -7.08715,1.21684 -1.05986,-0.067 -1.75,-0.91687 -1.75,-2.15494 0,-1.89077 -0.50284,-2.01766 -6.69744,-1.69008 -6.51865,0.34472 -6.77541,0.26538 -9.61824,-2.97243 -1.60644,-1.82963 -3.43009,-3.22894 -4.05256,-3.10958 -0.62247,0.11937 -2.93176,-0.17331 -5.13176,-0.65039 -2.2,-0.47709 -4.5625,-0.77252 -5.25,-0.65651 -0.6875,0.116 -1.25,-0.28537 -1.25,-0.89194 0,-0.60657 -0.45318,-0.82277 -1.00706,-0.48045 -0.55389,0.34231 -1.28696,-0.10699 -1.62905,-0.99846 -0.34208,-0.89147 -1.23891,-1.38411 -1.99293,-1.09477 -0.75403,0.28935 -1.37096,0.0902 -1.37096,-0.44252 0,-0.53274 -0.71803,-0.96862 -1.59563,-0.96862 -0.8776,0 -2.7901,-0.84103 -4.25,-1.86896 -2.38019,-1.67591 -4.42054,-1.84285 -19.75308,-1.61615 -9.41136,0.13914 -17.97378,0.72113 -19.04511,1.29449 -1.07053,0.57293 -4.50106,1.27765 -7.6234,1.56604 -3.12234,0.28839 -6.59884,1.01771 -7.72555,1.62071 -1.12671,0.603 -2.48847,0.82448 -3.02614,0.49218 -0.53767,-0.3323 -1.9785,0.0969 -3.20184,0.95376 -1.22335,0.85686 -3.22258,1.55793 -4.44274,1.55793 -1.22016,0 -2.46506,0.39899 -2.76645,0.88664 -0.30138,0.48765 -2.12794,1.18304 -4.05901,1.54531 -1.93108,0.36227 -3.51105,1.02218 -3.51105,1.46645 0,0.44428 -3.79432,2.04205 -8.43182,3.55061 -4.6375,1.50856 -9.20725,3.59967 -10.15499,4.64691 -0.94774,1.04724 -2.46857,1.90408 -3.37962,1.90408 -0.91104,0 -2.5288,0.79973 -3.59501,1.77718 -1.06621,0.97745 -3.51356,2.86559 -5.43856,4.19587 -3.54731,2.45139 -4.44128,3.23774 -12.17291,10.70746 -2.50047,2.41577 -7.07097,5.30925 -10.82709,6.85441 -3.575,1.47064 -7.13568,3.18941 -7.91262,3.81949 -1.05684,0.85706 -1.50944,0.85819 -1.79704,0.004 -0.2578,-0.76526 -2.85147,-1.01733 -7.87464,-0.76531 -5.773526,0.28966 -7.613926,0.0534 -8.029956,-1.03075 -0.67055,-1.74741 1.06559,-5.21241 4.40703,-8.7956 2.51995,-2.70226 2.52705,-2.75635 0.6365,-4.84539 -1.8879,-2.0861 -1.88376,-2.13539 0.32942,-3.92752 2.524536,-2.04425 2.836066,-2.99432 0.98186,-2.99432 -1.55805,0 -4.01075,-3.75379 -3.25339,-4.97922 0.3052,-0.49382 -0.0639,-1.26302 -0.82014,-1.70932 -2.51166,-1.48221 -3.95004,-5.26551 -2.61397,-6.87538 1.65499,-1.99415 2.21072,-1.84978 6.06144,1.57457 1.86203,1.65586 4.337576,3.26448 5.501216,3.57471 3.64373,0.97142 10.09808,-1.40715 12.57748,-4.63507 1.26875,-1.65177 3.31931,-4.18202 4.55681,-5.62278 1.2375,-1.44075 2.25,-2.9717 2.25,-3.4021 0,-0.43041 0.68164,-1.46419 1.51475,-2.2973 1.353,-1.353 1.29756,-1.90144 -0.51915,-5.13594 -3.2167,-5.72706 -1.1999,-7.21785 3.92767,-2.90328 1.97257,1.6598 3.08725,2.1084 3.10604,1.25 0.0445,-2.03057 5.07299,-7.09398 9.25212,-9.31629 2.04521,-1.08758 3.71857,-2.32508 3.71857,-2.75 0,-0.42493 0.83429,-0.7726 1.85398,-0.7726 1.01968,0 3.00254,-1.06446 4.40635,-2.36546 1.4038,-1.301 4.5831,-3.34851 7.0651,-4.55003 2.482,-1.20152 5.05424,-2.83706 5.71609,-3.63454 0.66185,-0.79748 2.06755,-1.44997 3.12377,-1.44997 1.05621,0 4.03861,-1.9125 6.62755,-4.25 2.58894,-2.3375 5.60716,-4.74151 6.70716,-5.34224 1.1,-0.60073 2.54622,-2.20304 3.21382,-3.56068 0.66761,-1.35763 3.93011,-5.54538 7.25,-9.3061 3.3199,-3.76072 6.03618,-7.23504 6.03618,-7.72071 0,-1.65634 -3.23163,-2.15775 -4.08451,-0.63374 -0.53963,0.96426 -2.44126,1.51977 -5.35317,1.56379 -2.98727,0.0452 -5.41607,0.77608 -7.17414,2.15898 -1.46184,1.14988 -3.44211,2.0907 -4.40059,2.0907 -0.95849,0 -2.32887,0.70629 -3.04529,1.56952 -0.71642,0.86324 -2.15707,1.34607 -3.20143,1.07297 -1.34695,-0.35224 -1.73969,-0.0818 -1.35124,0.93047 0.40312,1.05054 -0.30158,1.43543 -2.67101,1.45884 -1.77024,0.0175 -3.96128,0.59682 -4.86898,1.28739 -2.72289,2.07155 -10.45045,0.68889 -9.53165,-1.70547 0.27704,-0.72197 -1.16633,-1.17732 -4.00872,-1.26463 -3.05668,-0.0939 -4.29979,0.23323 -3.9867,1.04913 0.75727,1.97341 -2.0554,5.06022 -3.54131,3.88647 -0.70469,-0.55664 -2.11487,-0.99841 -3.13373,-0.98172 -2.03328,0.0333 -10.58722,8.4445 -10.62435,10.44703 -0.0136,0.73267 -1.36825,1.26213 -3.27318,1.27931 l -3.25,0.0293 3.38568,3.07781 c 2.65657,2.41502 3.08727,3.2668 2,3.95538 -1.94332,1.23071 -3.30999,1.13141 -9.60177,-0.69766 -4.33117,-1.25911 -6.06364,-1.35992 -8.02359,-0.46691 -2.11793,0.96499 -2.40985,0.9048 -1.91139,-0.39416 1.0165,-2.64897 -1.23323,-1.68093 -5.733096,2.46691 -2.38672,2.2 -5.05846,4 -5.93719,4 -0.87874,0 -2.69873,1.18741 -4.04444,2.6387 l -2.44673,2.63869 3.65626,4.70793 c 2.01095,2.58935 4.51946,5.11444 5.57447,5.6113 1.05502,0.49686 2.40502,1.71724 3,2.71195 2.640306,4.41413 -9.83277,6.34118 -14.38409,2.2223 C 83.082854,442.68889 81.648004,442 80.824684,442 c -0.82332,0 -2.55447,-1.12568 -3.847,-2.50152 -3.15614,-3.35955 -8.00736,-4.61549 -12.50094,-3.23637 -2.56205,0.78631 -3.85052,0.785 -4.64027,-0.005 -0.61324,-0.61324 -2.60625,-0.84781 -4.5388,-0.5342 -2.59769,0.42154 -4.18492,0.0124 -6.45063,-1.66268 -1.65283,-1.22199 -3.64927,-1.97463 -4.43654,-1.67253 -0.78726,0.30236 -1.43139,0.11365 -1.43139,-0.41908 0,-0.53274 -0.6199,-0.96862 -1.37756,-0.96862 -0.75765,0 -1.95475,-0.69548 -2.66021,-1.54551 -0.70546,-0.85003 -1.96208,-1.28479 -2.79249,-0.96613 -0.83041,0.31866 -1.77082,0.22664 -2.08979,-0.20449 -1.60319,-2.1669 -9.94883,-8.13618 -11.79761,-8.43833 C 18.746504,419.27108 0.02461396,402.84069 2.239586e-4,400.30902 -0.01137604,399.10398 0.42911396,397.83992 0.97911396,397.5 1.529114,397.16008 1.979114,396.10677 1.979114,395.1593 c 0,-1.17817 1.42235,-2.14264 4.5,-3.05136 2.475,-0.73078 4.5,-1.72902 4.5,-2.21832 0,-0.48929 0.60615,-0.88962 1.34699,-0.88962 0.74084,0 2.27795,-0.7875 3.41579,-1.75 5.44334,-4.60453 6.31948,-5.25 7.12621,-5.25 0.47636,0 1.44481,-0.69728 2.15209,-1.5495 0.70729,-0.85223 3.12489,-2.41854 5.37245,-3.48069 2.24756,-1.06216 5.63981,-3.51488 7.53833,-5.4505 1.89853,-1.93562 3.94928,-3.51931 4.55722,-3.51931 1.41973,0 6.88642,-4.3584 11.99092,-9.55994 2.2,-2.24182 6.925,-6.36031 10.5,-9.1522 6.89686,-5.38609 14,-12.56762 14,-14.1545 0,-1.03819 6.99083,-10.24256 10.57032,-13.91724 1.30695,-1.34171 2.02363,-3.05287 1.73726,-4.14792 -0.2681,-1.02523 0.1951,-2.92248 1.02934,-4.21612 1.39833,-2.16837 2.37225,-5.9146 4.64106,-17.85208 0.4704,-2.475 1.37469,-6.3 2.00954,-8.5 0.63485,-2.2 1.262486,-4.675 1.394756,-5.5 0.13228,-0.825 0.77537,-2.48292 1.42911,-3.68426 0.65373,-1.20134 1.18861,-2.75018 1.18861,-3.44187 0,-0.69168 1.6875,-2.88453 3.75,-4.873 2.0625,-1.98847 4.65,-4.90842 5.75,-6.48879 1.1,-1.58036 3.52121,-4.25459 5.38046,-5.94273 3.18319,-2.89024 9.78574,-9.63377 15.48864,-15.81935 1.39447,-1.5125 2.85689,-2.75 3.24982,-2.75 1.32618,0 16.03433,-14.49722 18.88108,-18.61032 1.1,-1.58933 4.5875,-5.6279 7.75,-8.97461 3.1625,-3.34671 5.75,-6.45251 5.75,-6.90178 0,-0.44927 1.74452,-2.66105 3.87672,-4.91507 C 190.19062,180.27297 193.49427,177 194.65649,177 c 0.72744,0 1.32262,-0.40033 1.32262,-0.88962 0,-0.4893 1.99611,-1.47901 4.43581,-2.19936 2.43969,-0.72036 4.28016,-1.56158 4.08993,-1.86938 -0.34707,-0.56156 4.15562,-2.79285 10.22426,-5.0666 1.7875,-0.66972 3.25,-1.61309 3.25,-2.09636 0,-0.48327 1.035,-0.87868 2.3,-0.87868 1.265,0 2.78119,-0.48119 3.3693,-1.0693 0.58812,-0.58812 1.69827,-1.16162 2.467,-1.27444 0.76874,-0.11283 3.06935,-1.23827 5.11247,-2.50099 2.04311,-1.26271 4.17296,-2.01266 4.73299,-1.66654 0.56003,0.34612 1.01824,0.20454 1.01824,-0.31461 0,-0.963 8.7049,-4.17412 11.31545,-4.17412 0.79181,0 1.93942,-0.60217 2.55023,-1.33815 0.61081,-0.73599 2.91591,-1.87905 5.12244,-2.54015 2.20654,-0.66109 4.01188,-1.6864 4.01188,-2.27847 0,-0.59207 0.89955,-0.84125 1.999,-0.55374 1.09946,0.28751 2.25555,0.10766 2.5691,-0.39968 0.31355,-0.50734 1.1015,-0.59148 1.751,-0.18698 2.10941,1.31373 5.5451,0.22645 8.75276,-2.76995 1.72681,-1.61309 2.58696,-2.93288 1.91145,-2.93288 -2.1122,0 0.79492,-2.72752 3.67851,-3.45126 1.41888,-0.35611 3.25844,-1.32614 4.08792,-2.15562 0.82947,-0.82948 2.1069,-1.27837 2.83872,-0.99755 0.73182,0.28083 2.58483,-0.81829 4.11781,-2.44249 1.53298,-1.62419 3.3512,-2.95308 4.04048,-2.95308 0.68929,0 1.25325,-0.57499 1.25325,-1.27776 0,-1.88031 3.74162,-4.75862 5.37241,-4.13283 0.77399,0.29701 2.5856,-0.63833 4.0258,-2.07853 1.44021,-1.44021 2.95724,-2.40923 3.3712,-2.15339 0.41396,0.25584 1.62119,-0.16994 2.68275,-0.94617 1.88635,-1.37933 1.88691,-1.41132 0.0247,-1.41132 -3.09249,0 0.24267,-2.45187 5.27316,-3.8766 2.86054,-0.81016 4.25501,-1.76269 4.26531,-2.91354 0.0132,-1.46952 0.15157,-1.49902 0.98469,-0.20986 0.89709,1.38815 1.4524,0.68074 1.07753,-1.37268 -0.0876,-0.47998 0.56351,-0.59531 1.44697,-0.25629 1.26439,0.48519 1.46493,0.17103 0.94217,-1.47604 -0.56991,-1.79564 -0.35648,-1.99479 1.50478,-1.40405 1.69538,0.53809 2.2928,0.21456 2.73644,-1.4819 0.39619,-1.51504 1.12949,-2.02332 2.42883,-1.68354 1.02371,0.26771 2.1268,0.0571 2.45131,-0.46794 0.36859,-0.59638 1.05451,-0.56919 1.82764,0.0724 1.32531,1.09998 7.58431,-0.6737 7.58431,-2.1492 0,-0.42942 0.90298,-0.78076 2.00661,-0.78076 1.10364,0 2.98479,-1.125 4.18034,-2.5 1.19555,-1.375 2.88007,-2.51001 3.74339,-2.52224 0.86331,-0.0122 2.69466,-0.90222 4.06966,-1.97776 1.375,-1.07554 3.71094,-1.96553 5.19098,-1.97776 1.48004,-0.0122 2.9691,-0.47224 3.30902,-1.02224 0.33992,-0.55 1.45398,-1 2.47568,-1 1.02171,0 2.00765,-0.40486 2.19099,-0.89968 0.54532,-1.47186 9.0889,-1.78442 9.57569,-0.35032 0.24976,0.73578 -0.43273,1.25 -1.65903,1.25 -3.42677,0 -2.35286,1.98686 1.16667,2.15846 6.55764,0.31973 9.43065,0.23243 18.04484,-0.54833 7.39257,-0.67004 8.60873,-1.0214 7.62756,-2.20363 -0.93307,-1.12428 -0.65931,-2.10234 0.3276,-1.17043 0.1375,0.12984 1.95021,-0.81472 4.02824,-2.09901 2.89854,-1.7914 4.09624,-2.07116 5.14405,-1.20155 1.03977,0.86293 1.74919,0.75015 2.97176,-0.47242 2.1619,-2.1619 2.02116,-2.72965 -0.47988,-1.93585 -1.83528,0.5825 -1.95744,0.42213 -1.01699,-1.33513 0.58787,-1.09843 2.98899,-3.50016 5.33583,-5.33719 2.34685,-1.83702 4.41699,-3.68089 4.60032,-4.09748 C 427.99578,68.34085 428.56337,68 429.07375,68 c 0.51039,0 3.56498,-1.8 6.78798,-4 3.223,-2.2 6.16255,-4 6.53233,-4 0.36979,0 1.88245,-1.122078 3.36147,-2.493507 1.57053,-1.456273 3.38925,-2.2713 4.3722,-1.959322 0.92569,0.293801 1.9622,0.08254 2.30336,-0.469467 1.12325,-1.817455 15.54802,-5.475997 15.54802,-3.94343 0,0.476149 2.25,0.865726 5,0.865726 2.75,0 5,-0.419676 5,-0.932612 0,-1.566746 4.00461,-2.308453 5.54799,-1.027562 1.19388,0.990833 1.45201,0.817254 1.45201,-0.976398 0,-1.199804 0.45,-1.903347 1,-1.563428 0.55,0.339919 1,0.19396 1,-0.324352 0,-1.574259 4.07112,-2.153875 4.64393,-0.661167 0.55688,1.451197 3.34373,0.879629 4.59076,-0.941539 0.49384,-0.72121 0.7397,-0.663167 0.75,0.177058 0.008,0.6875 0.69031,1.25 1.51531,1.25 0.825,0 1.50103,-0.3375 1.50228,-0.75 0.001,-0.4125 1.39877,-0.80032 3.10559,-0.861823 1.70681,-0.0615 3.4989,-0.736502 3.9824,-1.5 0.63187,-0.997779 0.88341,-1.036638 0.89442,-0.138177 0.009,0.758988 1.39014,1.25 3.51531,1.25 2.09123,0 3.53178,-0.503133 3.57895,-1.25 0.0604,-0.955606 0.19494,-0.964003 0.57145,-0.03565 0.62895,1.550781 10.15464,0.682885 15.07661,-1.373645 1.91904,-0.801826 3.72258,-1.224451 4.00786,-0.939167 0.28528,0.285285 1.7893,-0.138354 3.34225,-0.941418 C 539.60919,39.657053 542.47714,39 544.42945,39 c 1.95231,0 3.54966,-0.3375 3.54966,-0.75 0,-0.4125 1.0125,-0.798512 2.25,-0.857805 1.2375,-0.05929 3.375,-0.363354 4.75,-0.67569 1.375,-0.312337 3.0625,-0.601324 3.75,-0.642195 0.6875,-0.04087 1.25,-0.722752 1.25,-1.515293 0,-2.404551 2.21552,-2.98476 3.69119,-0.966663 1.14676,1.568283 1.53918,1.652934 2.25951,0.487407 0.50497,-0.817054 2.30473,-1.356624 4.27769,-1.282453 3.02563,0.113745 13.77792,-3.470281 15.4613,-5.153667 C 586.0228,27.289638 586.86907,27 587.54939,27 c 0.68032,0 2.87435,-1.449643 4.87561,-3.221428 2.31312,-2.047882 4.7363,-3.242942 6.6517,-3.280485 1.65717,-0.03248 3.33966,-0.587534 3.73886,-1.233451 0.41471,-0.671023 2.14525,-0.994755 4.03744,-0.755285 2.81729,0.356549 3.13023,0.20054 2.09642,-1.04512 -1.97863,-2.384112 0.71548,-1.778436 3.21719,0.723269 1.41751,1.417509 1.76731,2.327563 0.99377,2.58541 -0.65655,0.218851 -0.94246,0.804474 -0.63535,1.301385 0.65375,1.057795 5.36599,-1.743722 7.2725,-4.323644 0.72513,-0.981261 1.74071,-1.523127 2.25683,-1.204146 0.51612,0.31898 2.22362,-0.335196 3.79445,-1.453725 1.57083,-1.11853 3.14276,-1.746985 3.49318,-1.396568 0.35042,0.350417 0.63712,0.112121 0.63712,-0.529545 C 629.97911,12.525 630.50618,12 631.15037,12 c 0.64419,0 1.88169,-0.606575 2.75,-1.347944 0.86831,-0.741369 3.82874,-1.936196 6.57874,-2.655171 2.75,-0.718975 5.57061,-1.749231 6.26802,-2.289457 0.69741,-0.540225 2.04741,-1.059878 3,-1.154784 6.07282,-0.605031 11.23418,-1.943264 11.24729,-2.916188 0.01,-0.728654 0.30872,-0.674004 0.83297,0.152298 0.59907,0.944226 1.50316,1.028128 3.38187,0.313844 1.41031,-0.5362 2.77308,-0.766035 3.02837,-0.510744 0.25529,0.255291 2.15108,0.680144 4.21287,0.944118 3.04642,0.390038 3.64029,0.197452 3.17004,-1.02801 C 675.30228,0.678583 675.51989,0 676.10411,0 c 0.58423,0 1.29759,0.9 1.58525,2 0.61697,2.3593 3.13031,2.587832 5.84862,0.531803 2.52094,-1.906743 4.44113,-1.920494 4.44113,-0.031803 0,2.075069 3.67442,1.888357 4.9199,-0.25 0.58673,-1.007354 1.03219,-1.211454 1.04969,-0.480948 0.02,0.834806 0.84686,1.064135 2.41644,0.670197 1.4275,-0.358281 2.89663,-0.05224 3.65707,0.76181 0.75635,0.809673 2.62365,1.202756 4.61126,0.970713 4.24705,-0.495819 7.75855,0.384 9.84,2.465444 1.18822,1.188226 1.93432,1.334104 2.73389,0.534537 0.79956,-0.799567 1.59257,-0.531364 2.90576,0.982767 0.99335,1.145342 2.45083,1.835032 3.23884,1.532644 0.78802,-0.302388 2.22846,0.03204 3.20099,0.743172 0.97253,0.711133 2.52419,1.095284 3.44812,0.853669 0.92394,-0.241615 2.38854,0.269349 3.25466,1.135475 0.86613,0.866126 2.22407,1.325616 3.01766,1.02109 0.89757,-0.344432 1.64613,0.223547 1.98068,1.502872 0.29579,1.131107 1.332,2.056558 2.30268,2.056558 0.97068,0 2.61528,0.769607 3.65467,1.710237 1.59948,1.447507 2.02465,1.492021 2.76769,0.289763 0.74042,-1.198022 1.18443,-1.143071 2.83524,0.350894 1.32946,1.203148 2.08325,1.393632 2.34986,0.593815 0.38554,-1.156622 4.94859,2.434933 13.09282,10.305291 2.13427,2.0625 4.35457,3.75 4.93399,3.75 0.57943,0 1.89378,0.968854 2.92079,2.15301 1.02702,1.184155 1.87419,1.746655 1.88261,1.25 0.008,-0.496656 0.34592,-0.45301 0.75,0.09699 1.30067,1.770363 10.08501,7.548475 11.05198,7.269698 0.51451,-0.148334 2.2996,0.934299 3.96687,2.405851 1.66728,1.471553 3.24854,2.458422 3.51391,2.193043 0.75705,-0.757049 16.08523,3.813035 17.20193,5.12874 0.55,0.648015 1.5625,0.988713 2.25,0.757106 0.6875,-0.231608 1.25,0.13614 1.25,0.817216 0,0.836288 0.5888,0.705445 1.8136,-0.403013 1.4336,-1.297375 2.071,-1.383996 3.0417,-0.413347 0.9706,0.97065 1.4026,0.945415 2.0613,-0.120416 0.5887,-0.952434 1.0365,-1.019758 1.5251,-0.22926 0.4319,0.698908 1.2772,0.791421 2.2512,0.246374 0.9782,-0.547419 2.5853,-0.361041 4.3113,0.499972 2.2949,1.144847 5.7703,1.264066 7.9958,0.274286 0.275,-0.122303 1.175,-0.286425 2,-0.364715 0.825,-0.07829 3.525,-0.722291 6,-1.431113 2.475,-0.708822 6.3,-1.754431 8.5,-2.323577 2.2,-0.569146 4.9,-1.417023 6,-1.884171 1.1,-0.467148 4.025,-1.078667 6.5,-1.358932 2.475,-0.280264 6.3,-0.766822 8.5,-1.08124 2.2,-0.314418 5.232,-0.716937 6.7378,-0.894488 1.5057,-0.177551 3.3745,-0.851271 4.1527,-1.497155 1.0924,-0.906623 1.5125,-0.881894 1.8426,0.108475 0.3231,0.969243 0.8314,0.878987 2.0797,-0.369243 1.5829,-1.582909 5.6872,-1.466329 5.6872,0.16154 0,0.417103 1.1359,0.758369 2.5243,0.758369 1.3883,0 3.3536,0.95625 4.3673,2.125 1.0136,1.16875 2.2402,2.134739 2.7257,2.146642 0.4855,0.0119 1.5577,1.474404 2.3827,3.25 1.2616,2.715204 2.0431,3.228358 4.9167,3.228358 1.8791,0 3.5957,0.53722 3.8146,1.193823 0.2188,0.656603 1.0606,0.939526 1.8706,0.628719 1.9102,-0.733014 5.9112,2.742287 4.3021,3.736796 -1.1605,0.717196 4.913,3.254232 8.4559,3.532202 1.0229,0.0803 2.215,0.72057 2.649,1.42291 0.4341,0.70234 1.4975,1.00521 2.3631,0.67304 0.9126,-0.35019 2.7798,0.41078 4.444,1.81117 2.2697,1.90976 3.1431,2.16257 4.1743,1.20822 1.0407,-0.96314 1.1853,-0.86807 0.716,0.47078 -0.4979,1.42051 0.015,1.62242 3.3487,1.3173 2.5029,-0.22909 4.4586,0.1615 5.3695,1.07235 1.7647,1.76471 3.2461,1.83382 3.916,0.18269 0.3397,-0.83706 0.7802,-0.90859 1.3334,-0.21654 0.4543,0.5684 2.0582,1.0184 3.5641,1 2.2695,-0.0277 2.6333,-0.37573 2.1258,-2.03346 -0.6057,-1.97863 -0.5868,-1.97817 1.762,0.0429 1.5089,1.29837 3.5587,1.96788 5.6242,1.837 1.7875,-0.11326 3.25,0.14868 3.25,0.58208 0,0.4334 1.1762,0.788 2.6137,0.788 1.4376,0 2.9361,0.52149 3.33,1.15887 0.3939,0.63738 1.4069,0.89384 2.251,0.56991 0.9624,-0.3693 2.4935,0.55044 4.1055,2.46613 2.7612,3.28156 4.2705,3.98464 3.3382,1.55509 -0.7805,-2.03385 0.3508,-1.89707 1.9065,0.23052 0.9982,1.36518 2.816,1.73464 8.61019,1.75 4.1994,0.0111 7.8756,0.51962 8.5842,1.18732 0.6816,0.64232 2.8439,1.04052 4.8052,0.8849 2.4879,-0.1974 3.4238,0.0874 3.0959,0.94192 -0.3192,0.8319 0.7057,1.21592 3.1948,1.19698 3.7095,-0.0282 9.0532,1.91824 10.3995,3.78801 0.4378,0.608 0.7409,0.39973 0.75,-0.51536 0.01,-0.87027 0.8927,-1.53572 2.0401,-1.53572 1.1616,0 1.8288,0.51048 1.5652,1.19753 -0.3131,0.81593 0.635,1.11069 2.9752,0.925 2.0538,-0.16296 3.4348,0.18335 3.4348,0.86135 0,1.26633 8.3621,1.55889 9.5856,0.33537 0.4136,-0.4137 1.5439,-0.0356 2.5116,0.84013 1.8054,1.63391 5.9028,1.16301 5.9028,-0.67839 0,-0.52562 1.2032,-0.16732 2.6737,0.79622 1.9592,1.28369 2.7832,1.42348 3.0834,0.52306 0.6564,-1.96948 2.6834,-1.42039 3.7696,1.02116 0.6814,1.53163 1.7335,2.17066 3.2952,2.0015 1.3222,-0.14322 2.0328,0.17454 1.6772,0.75 -0.3394,0.54917 0.047,0.9985 0.8585,0.9985 0.8117,0 1.704,-0.5625 1.9829,-1.25 0.3616,-0.89101 0.7445,-0.93353 1.3334,-0.14808 1.1658,1.55501 6.2575,1.11545 7.3846,-0.6375 0.5919,-0.92071 1.22,-1.09314 1.6915,-0.46442 1.0785,1.438 8.4829,1.7412 9.3231,0.38176 0.7941,-1.28491 11.8226,-1.85959 12.5671,-0.65486 0.9936,1.60756 5.61,0.68821 7.4162,-1.4769 1.0324,-1.2375 1.892,-1.6875 1.9103,-1 0.036,1.34793 4.0333,1.78458 4.0333,0.44057 0,-1.14057 27.3168,-0.61883 29.6116,0.56556 1.0386,0.53606 3.1259,0.90787 4.6384,0.82624 1.5125,-0.0816 2.75,0.0941 2.75,0.3905 0,1.19774 6.0922,3.13266 7.9784,2.53399 1.1119,-0.3529 2.0216,-0.19164 2.0216,0.35836 0,1.60654 4.15,2.51008 5.0252,1.09408 0.6099,-0.98696 1.911,-0.8833 6.0966,0.48576 3.8846,1.27058 6.9489,1.5736 11.3497,1.12237 3.3157,-0.33996 10.5285,-0.12698 16.0285,0.47328 5.5,0.60027 13.15,1.40771 17,1.79432 3.85,0.38661 7.5652,1.06013 8.2561,1.49671 0.6908,0.43658 3.0745,0.81888 5.2971,0.84956 2.2225,0.0307 4.5823,0.58636 5.2439,1.23485 0.6616,0.6485 2.1029,1.23161 3.2029,1.29581 4.5157,0.26354 10.5331,1.19048 11.4643,1.76598 0.5469,0.338 1.9037,0.12791 3.015,-0.46688 1.1114,-0.59478 2.0207,-0.69059 2.0207,-0.21291 0,0.47768 1.3442,0.86852 2.9871,0.86852 1.6429,0 3.7804,0.70244 4.75,1.56099 0.9696,0.85855 3.3379,1.52913 5.2629,1.49019 6.8429,-0.13844 15.8287,1.37082 17.0706,2.86717 0.6874,0.8283 1.8034,1.29358 2.4799,1.03397 0.6766,-0.25962 2.2008,0.4323 3.3872,1.5376 1.8056,1.68215 2.4125,1.79768 3.7243,0.70895 1.319,-1.09467 1.8451,-0.9575 3.3218,0.86612 1.6137,1.99279 2.6246,2.15949 12.5881,2.07575 11.5914,-0.0974 14.721,1.22881 7.4928,3.17517 -2.2356,0.60198 -4.0647,1.4588 -4.0647,1.90406 0,0.44525 2.2859,1.5478 5.0797,2.4501 5.8233,1.88073 11.2121,5.38203 10.373,6.73973 -0.3139,0.50794 0.1574,0.92353 1.0473,0.92353 0.8899,0 1.3744,0.39427 1.0765,0.87615 -0.6852,1.10878 5.5336,5.42007 11.4437,7.93344 6.0827,2.5868 17.2517,5.2292 23.9798,5.67324 3.025,0.19965 6.7999,0.86027 8.3887,1.46806 1.5888,0.60779 3.1278,0.8659 3.4202,0.57358 0.7178,-0.7178 5.3763,2.37483 6.9978,4.64561 0.7187,1.00646 1.8437,1.83343 2.5,1.83772 0.6563,0.004 1.6913,1.01679 2.3001,2.25 4.1605,8.4288 7.6724,13.19499 14.75,20.01809 4.4362,4.27675 8.5431,7.59277 9.1263,7.36895 0.5833,-0.22382 2.8386,1.33953 5.0119,3.47411 2.1732,2.13458 4.5259,3.88105 5.2282,3.88105 0.7022,0 1.2768,0.48032 1.2768,1.06739 0,0.61231 0.8527,0.79675 2,0.43261 1.1473,-0.36414 2,-0.1797 2,0.43261 0,0.58707 0.7004,1.06739 1.5564,1.06739 0.856,0 2.7685,1.25946 4.25,2.79879 3.8155,3.96448 9.8326,8.2289 10.5702,7.4913 0.3429,-0.34288 0.6234,-0.11255 0.6234,0.51186 0,0.6244 0.6169,0.89854 1.371,0.60919 0.754,-0.28934 1.6487,0.19773 1.9881,1.08239 0.3395,0.88467 2.7601,2.54961 5.3791,3.69989 2.619,1.15027 6.7868,3.47634 9.2618,5.16904 2.475,1.6927 4.725,3.01057 5,2.92862 0.275,-0.082 0.8616,0.49719 1.3036,1.28699 1.2365,2.20948 8.3594,5.4885 10.3026,4.7428 1.1745,-0.45071 1.4905,-0.28642 0.9941,0.51686 -0.7603,1.23014 1.7498,4.47884 2.7149,3.51377 0.5914,-0.59144 1.9563,0.39494 7.1241,5.1485 1.7938,1.65 5.5733,5.12545 8.3991,7.72322 3.6452,3.35122 5.6494,4.53137 6.8996,4.06277 1.5995,-0.59952 1.6236,-0.48753 0.262,1.21401 -1.3732,1.71604 -1.3396,1.81424 0.3977,1.16195 1.0437,-0.39188 6.8655,-0.72602 12.9374,-0.74254 12.7986,-0.0348 14.5806,0.76595 18.6649,8.38736 1.375,2.56578 2.9574,4.56025 3.5165,4.43215 1.4525,-0.33283 10.4835,3.51447 10.4835,4.4661 0,0.43724 0.6609,0.79498 1.4686,0.79498 0.9819,0 1.2513,0.58002 0.8128,1.75 -0.541,1.44354 -0.397,1.54 0.8226,0.55084 1.1889,-0.96438 1.7167,-0.81753 2.6957,0.75 0.9063,1.45117 0.92,1.94916 0.054,1.94916 -0.6645,0 -0.3777,0.86824 0.6685,2.02433 1.0076,1.11338 2.3108,1.86472 2.8961,1.66964 0.5852,-0.19507 1.6976,0.27892 2.472,1.05332 0.7744,0.7744 2.2314,1.1927 3.2376,0.92956 3.3784,-0.88348 9.8849,1.82311 12.9202,5.37455 1.6211,1.89673 2.9485,3.73362 2.9498,4.08197 0,0.34835 0.9607,0.88401 2.1322,1.19034 1.4227,0.37205 1.9311,1.07481 1.5314,2.11663 -0.3748,0.97657 -0.05,1.55966 0.8701,1.55966 0.8077,0 1.4686,0.3596 1.4686,0.79911 0,0.87019 5.7655,3.18048 8.071,3.23416 1.7408,0.0405 5.929,3.41005 5.929,4.77003 0,1.38803 1.9102,1.92746 6.25,1.76495 2.0625,-0.0772 3.7509,0.10081 3.7519,0.39566 0,0.29485 2.2225,2.04949 4.9365,3.89921 5.4503,3.7147 6.8337,5.80042 4.2562,6.41684 -1.2676,0.30315 -0.9387,0.73757 1.3054,1.72413 1.65,0.72538 3.3375,1.24621 3.75,1.15739 0.4125,-0.0888 0.75,0.28852 0.75,0.83852 0,0.55 0.5028,1 1.1172,1 0.6145,0 2.977,1.78984 5.25,3.97742 2.2731,2.18758 6.6078,6.36077 9.6328,9.27376 7.2845,7.01474 10.8903,11.46363 11.6076,14.32141 0.3237,1.28996 1.2145,2.86482 1.9795,3.4997 0.765,0.63488 1.1443,1.55334 0.8429,2.04102 -0.3014,0.48768 0.1801,0.88669 1.07,0.88669 0.8899,0 1.3224,0.47836 0.9611,1.06301 -0.7915,1.28053 2.4424,5.11469 3.6725,4.35439 0.4765,-0.29449 0.8664,-0.0589 0.8664,0.52358 0,0.58246 0.9,1.95902 2,3.05902 1.1,1.1 1.5194,2 0.9319,2 -0.9933,0 2.5212,5.8317 4.2447,7.04341 0.4251,0.29887 0.9377,1.62317 1.1391,2.94287 0.2955,1.93615 1.3623,2.67659 5.5252,3.83467 2.8375,0.78936 5.1591,1.82756 5.1591,2.30712 0,0.47956 0.6429,0.87193 1.4286,0.87193 2.0234,0 4.7821,3.00845 4.1852,4.56411 -0.2757,0.71843 1.246,3.21769 3.3815,5.55393 2.1355,2.33624 3.8569,4.50291 3.8253,4.81483 -0.242,2.38889 0.3232,5.09632 0.9792,4.69083 0.44,-0.27188 1.3438,0.37656 2.0085,1.44098 1.3535,2.16721 0.2749,2.6074 -1.6791,0.68532 -1.7745,-1.74557 -0.4583,3.49647 2.1367,8.50964 1.2056,2.32915 1.7137,4.68537 1.3354,6.19269 -0.9219,3.67304 0.9944,7.40171 7.6638,14.91254 1.5208,1.71268 2.5603,3.64765 2.31,4.29995 -0.5657,1.47435 1.2629,8.33489 2.2219,8.33598 0.3867,4.5e-4 0.84,2.12131 1.0074,4.71304 0.1674,2.59173 0.7977,5.30671 1.4007,6.03329 0.7822,0.94247 0.791,1.95607 0.031,3.53696 -3.0611,6.36644 -3.9997,30.35224 -1.2936,33.05836 0.5817,0.58165 1.0576,1.83541 1.0576,2.78612 0,0.95072 0.7809,2.50943 1.7352,3.4638 4.1409,4.1409 6.2072,14.67147 3.4884,17.77765 -1.5514,1.77237 -1.5586,1.90912 -0.072,1.36874 1.9779,-0.71904 3.3173,2.99141 1.7581,4.87018 -0.5537,0.66715 -0.6446,1.43679 -0.2021,1.71032 0.4426,0.27352 0.7673,8.00139 0.7217,17.17305 -0.066,13.1786 -0.3778,16.85791 -1.4886,17.54439 -1.1329,0.70018 -0.8755,1.42177 1.327,3.72069 3.1156,3.25203 3.4823,4.46762 1.0684,3.54129 -1.2161,-0.46664 -1.4411,-0.27783 -0.836,0.70132 0.6051,0.97915 0.3801,1.16796 -0.836,0.70132 -2.335,-0.89605 -2.1554,1.84108 0.2305,3.51226 2.564,1.79589 2.2994,7.54335 -0.4166,9.04651 -1.9306,1.06854 -4.3825,3.70298 -4.4461,4.77711 -0.017,0.29545 0.8426,0.60306 1.9113,0.68356 1.3073,0.0985 1.7631,-0.3227 1.393,-1.28719 -0.3667,-0.95565 0.1291,-1.43357 1.4871,-1.43357 1.808,0 1.9359,0.35308 1.1373,3.13779 -0.495,1.72579 -1.6404,3.95605 -2.5455,4.95614 -1.5149,1.67399 -1.5173,1.94658 -0.03,3.43364 0.8884,0.88841 1.6153,1.18129 1.6153,0.65085 0,-0.53044 0.675,-1.22346 1.5,-1.54005 0.825,-0.31658 1.5,-0.17187 1.5,0.32159 0,1.53687 -2.9961,3.97872 -4.2789,3.48735 -0.7522,-0.28809 -1.2796,0.54647 -1.3734,2.17312 -0.084,1.45246 -0.6616,2.95552 -1.2839,3.34015 -0.6224,0.38463 -0.8441,1.44826 -0.4929,2.36363 0.3513,0.91536 1.0104,1.43455 1.4648,1.15373 1.6574,-1.02432 2.0459,1.58336 0.4705,3.15867 -0.8916,0.8917 -1.3944,2.21246 -1.1171,2.93503 0.2773,0.72257 0.034,2.80205 -0.5396,4.62106 -1.2686,4.01988 -1.6571,6.32676 -1.7662,10.48587 -0.076,2.91989 -2.2041,6.32143 -3.9539,6.32143 -0.4003,0 -0.5439,-1.575 -0.3192,-3.5 0.4341,-3.71808 -1.2361,-4.88411 -2.2809,-1.59238 -0.7009,2.20853 -2.8661,3.38782 -7.234,3.94007 -0.6626,0.0838 -1.4607,1.83981 -1.7736,3.90231 -0.3129,2.0625 -0.9685,4.98555 -1.4568,6.49568 -0.5224,1.61545 -0.5173,2.97474 0.012,3.30214 0.4952,0.30606 0.1719,1.66833 -0.7186,3.02726 -1.2583,1.92042 -1.512,4.13674 -1.1389,9.94994 0.3367,5.24666 0.1093,7.78681 -0.7619,8.50983 -1.7367,1.44136 -2.521,4.95827 -1.1144,4.99695 0.6541,0.018 0.4672,0.56094 -0.4303,1.25 -2.2152,1.70079 -4.1308,5.55732 -3.371,6.78667 0.3492,0.56492 -0.53,2.19199 -1.9537,3.6157 -1.4237,1.4237 -2.5886,3.46817 -2.5886,4.54325 0,1.07507 -1.8,4.52076 -4,7.65708 -2.2,3.13631 -4,6.27536 -4,6.97567 0,0.7003 -1.1412,2.76952 -2.5361,4.59827 -1.3948,1.82874 -2.4307,3.71122 -2.3019,4.18327 0.1289,0.47206 -0.1369,1.95491 -0.5906,3.29523 -0.7562,2.2341 -0.9295,2.29387 -2.0817,0.71808 -1.1455,-1.56656 -1.3132,-1.49452 -1.8923,0.81306 -0.3495,1.39256 -1.2412,2.53192 -1.9816,2.53192 -2.4916,0 -6.3485,3.91367 -6.9829,7.08562 -0.6261,3.13058 -0.6426,3.13804 -3.2119,1.45456 -1.4204,-0.93069 -3.2212,-1.44708 -4.0018,-1.14755 -0.7806,0.29953 -1.4192,0.10872 -1.4192,-0.42401 0,-0.53274 -1.5034,-0.96862 -3.3409,-0.96862 -2.5614,0 -4.3112,-0.95118 -7.5,-4.07698 -2.2875,-2.24233 -4.1591,-4.91997 -4.1591,-5.95031 0,-1.03033 -0.5625,-2.23319 -1.25,-2.67302 -2.311,-1.47847 -5.8484,-7.33148 -5.1317,-8.49105 0.4684,-0.75787 0.1547,-0.9355 -0.9222,-0.52225 -0.8976,0.34444 -1.898,0.19592 -2.2231,-0.33006 -0.3251,-0.52598 -0.082,-0.95633 0.5406,-0.95633 0.6223,0 0.224,-1.15372 -0.8851,-2.56382 -1.1092,-1.41011 -1.7668,-3.21521 -1.4613,-4.01134 0.3786,-0.98645 0.074,-1.26293 -0.9547,-0.86801 -2.182,0.83733 -2.891,-0.91772 -3.1055,-7.68777 -0.1047,-3.30137 -0.7161,-6.31844 -1.3613,-6.71722 -0.7038,-0.43494 -1.4005,-4.79288 -1.7455,-10.91683 -0.5579,-9.90593 -2.2455,-17.01829 -4.7557,-20.04292 -1.0458,-1.26003 -0.8762,-1.36865 1.1386,-0.7292 1.8548,0.58871 2.1833,0.45757 1.5171,-0.60576 -0.4677,-0.74642 -0.7269,-2.10829 -0.5761,-3.02637 0.4925,-2.99784 -3.4114,-0.91937 -5.1599,2.74715 -0.8975,1.88215 -2.1442,3.42209 -2.7705,3.42209 -0.8334,0 -0.843,-0.35613 -0.036,-1.32848 1.1596,-1.39728 1.9435,-4.61186 2.068,-8.48054 0.041,-1.27111 0.5238,-2.03121 1.0743,-1.69098 0.55,0.33992 1,-0.30852 1,-1.44098 0,-1.3347 -0.649,-2.05902 -1.845,-2.05902 -2.6254,0 -5.5113,-3.5295 -4.8751,-5.96236 0.4454,-1.70333 0.1634,-1.93603 -1.7608,-1.45308 -1.4555,0.36531 -2.7886,-0.0138 -3.6551,-1.03946 -0.7502,-0.88798 -1.9252,-2.24046 -2.6111,-3.0055 -1.7713,-1.97566 -0.4798,-4.74638 1.8655,-4.00201 1.0399,0.33005 1.8816,0.11972 1.8816,-0.4702 0,-0.58707 0.6269,-1.06739 1.393,-1.06739 0.7662,0 1.6713,-0.7251 2.0114,-1.61134 0.4559,-1.18825 0.1922,-1.44784 -1.0044,-0.98866 -1.2168,0.46694 -1.4613,0.20214 -0.9775,-1.05871 0.3549,-0.92476 0.1975,-1.95814 -0.3498,-2.29639 -0.5473,-0.33824 -1.6754,-2.24323 -2.507,-4.2333 -1.3276,-3.17752 -1.3323,-3.68717 -0.039,-4.18357 0.8101,-0.31089 1.473,-1.08448 1.473,-1.71909 0,-0.778 -0.4072,-0.83527 -1.25,-0.17582 -0.6875,0.53791 -2.2625,1.22588 -3.5,1.52883 -2.7991,0.68523 -3.1337,-1.8467 -0.3604,-2.72691 1.0393,-0.32986 2.0849,-1.62151 2.3237,-2.87033 0.4699,-2.45844 -1.6762,-5.34274 -2.7195,-3.65475 -1.1033,1.78525 -2.739,1.03573 -2.2041,-1.00996 0.7636,-2.91991 -0.2115,-2.49314 -4.9666,2.17362 -4.4348,4.35242 -4.6833,4.28778 -5.6101,-1.45927 -0.3261,-2.02196 0.1202,-3.18457 1.6281,-4.24073 1.5413,-1.07956 1.7865,-1.74599 0.9502,-2.58233 -0.6401,-0.64014 -0.8901,-2.58872 -0.5784,-4.50927 0.3525,-2.17244 0.1443,-3.38202 -0.5821,-3.38202 -0.6219,0 -1.1308,0.42955 -1.1308,0.95455 0,1.25288 -4.8109,6.04545 -6.0685,6.04545 -0.5377,0 -0.2678,-1.08333 0.5998,-2.4074 0.9768,-1.49079 1.1985,-2.64154 0.5824,-3.02235 -0.6159,-0.38063 -0.3508,-1.74673 0.6956,-3.58535 1.6602,-2.91686 1.6418,-3.01264 -1.0236,-5.31334 -2.1186,-1.82871 -2.4496,-2.60761 -1.5084,-3.54889 0.9413,-0.94127 0.8786,-1.41066 -0.2857,-2.13867 -1.1074,-0.69246 -1.5715,-0.44286 -1.8016,0.96902 -0.1706,1.04596 -0.9313,2.41732 -1.6906,3.04747 -0.7593,0.63016 -1.1341,1.78784 -0.833,2.57262 0.3012,0.78479 0.2599,1.42689 -0.092,1.42689 -1.2464,0 -2.2819,-4.50192 -1.4348,-6.23772 0.473,-0.96926 1.2687,-2.59004 1.7682,-3.60176 0.5347,-1.08297 0.541,-2.41957 0.015,-3.25 -0.4911,-0.77578 -0.8998,-1.076 -0.9082,-0.66713 -0.02,0.95239 -5.0153,-3.36077 -5.0153,-4.33011 0,-0.39932 1.0125,-0.46513 2.25,-0.14625 2.0918,0.53904 2.1446,0.44459 0.75,-1.34362 -0.825,-1.05787 -1.725,-2.14841 -2,-2.42341 -0.275,-0.275 -0.9976,-1.39771 -1.6058,-2.49491 -0.6082,-1.0972 -1.7332,-2.04116 -2.5,-2.09768 -3.308,-0.24386 -3.8942,-0.46586 -3.8942,-1.4748 0,-0.65074 0.8752,-0.7896 2.2422,-0.35575 2.0158,0.6398 2.1006,0.54107 0.8397,-0.97812 -0.7713,-0.92937 -2.0553,-1.43918 -2.8535,-1.13291 -0.9904,0.38008 -1.267,0.0771 -0.8711,-0.95449 0.319,-0.83124 0.2427,-1.51134 -0.1694,-1.51134 -0.4122,0 -1.2745,-1.39112 -1.9163,-3.09138 -1.3472,-3.56916 -3.5888,-3.02057 -2.6669,0.65267 0.3412,1.3591 0.1723,2.43871 -0.3813,2.43871 -1.4062,0 -4.2234,-4.56249 -4.2234,-6.83982 0,-1.37086 -0.7058,-1.91018 -2.5,-1.91018 -1.375,0 -2.5,0.39375 -2.5,0.875 0,1.73322 -2.9608,0.82333 -5.4629,-1.67884 -1.4046,-1.40461 -3.0001,-2.27805 -3.5455,-1.94098 -0.5454,0.33707 -0.9916,-0.0336 -0.9916,-0.82372 0,-0.79011 -0.6513,-1.97712 -1.4474,-2.63778 -0.796,-0.66067 -2.2454,-3.30327 -3.2209,-5.87245 -0.9754,-2.56918 -2.6866,-5.44959 -3.8026,-6.40091 -1.4356,-1.22375 -1.6884,-1.95686 -0.8643,-2.50634 0.8594,-0.57308 0.7638,-1.29922 -0.3648,-2.77031 -1.057,-1.37783 -1.6742,-1.60755 -1.9981,-0.74367 -0.5012,1.33693 -3.2796,1.75346 -3.3352,0.5 -0.018,-0.4125 -0.9362,-1.83454 -2.0399,-3.16008 -1.4464,-1.73724 -2.3105,-2.10622 -3.095,-1.32167 -1.6054,1.60532 -7.8318,-2.17569 -7.8318,-4.75584 0,-0.62174 -0.4019,-0.88207 -0.8931,-0.5785 -0.4912,0.30357 -1.9537,-0.79079 -3.25,-2.43191 -2.8159,-3.56492 -3.8465,-3.80891 -3.1765,-0.752 0.4088,1.86528 0.2943,1.99352 -0.6698,0.75 -0.8783,-1.13291 -1.287,-1.19409 -1.6701,-0.25 -0.836,2.06045 -2.6155,1.40966 -2.0508,-0.75 0.2877,-1.1 0.3053,-2 0.039,-2 -1.1343,0 -8.1056,8.5521 -7.6165,9.34355 0.2957,0.47849 0.8594,0.34939 1.2527,-0.28688 0.3932,-0.63627 1.7995,-1.22523 3.125,-1.30879 1.3255,-0.0836 2.6863,-0.55102 3.024,-1.0388 0.6297,-0.90966 7.886,4.87047 7.886,6.28176 0,1.00592 -10.4648,12.00916 -11.4215,12.00916 -0.9096,0 -3.5785,2.63168 -3.5785,3.52857 0,0.36929 -1.575,2.24643 -3.5,4.17143 -1.925,1.925 -3.5,3.905 -3.5,4.4 0,1.1633 0.134,1.14872 4.1279,-0.44899 1.8546,-0.74194 4.3812,-1.07944 5.6145,-0.75 2.185,0.58367 2.1977,0.66528 0.5,3.19156 -0.9583,1.42592 -2.6424,3.94051 -3.7424,5.58798 -1.1,1.64748 -2.6097,2.79008 -3.3549,2.53912 -0.9795,-0.32984 -1.1692,0.12901 -0.6846,1.65573 0.5034,1.58631 0.3127,1.97481 -0.7662,1.5608 -2.6406,-1.01329 -4.909,2.5171 -4.4817,6.9749 0.2781,2.90074 -0.1087,4.62749 -1.3311,5.94239 -1.4336,1.54217 -1.8129,5.02823 -0.832,7.64651 0.103,0.275 0.1385,0.82406 0.079,1.22014 -0.06,0.39608 0.8995,1.24927 2.1316,1.89599 2.698,1.41623 4.1343,3.58941 4.4174,6.68345 0.1648,1.80171 -0.1799,2.17571 -1.5923,1.72742 -2.2254,-0.7063 -4.0961,1.37316 -3.6048,4.00704 0.2017,1.08128 0.4011,2.31929 0.4432,2.75114 0.042,0.43185 0.864,0.41803 1.8265,-0.0307 0.9625,-0.44875 3.077,-0.75544 4.6989,-0.68153 1.6519,0.0753 3.8266,-0.68333 4.9445,-1.72479 1.2262,-1.14237 2.3531,-1.50162 2.9229,-0.93179 0.5101,0.51005 1.5527,0.68743 2.3169,0.39417 0.9554,-0.36662 1.1963,-0.0298 0.7712,1.07815 -0.3523,0.91808 -0.1131,1.61134 0.556,1.61134 0.7424,0 0.9262,0.78179 0.4999,2.12523 -0.4246,1.3377 -0.2965,1.89155 0.3458,1.49462 0.9054,-0.55956 0.9952,1.34609 0.3363,7.13015 -0.078,0.6875 -0.8174,1.25 -1.6424,1.25 -0.825,0 -1.5,0.70156 -1.5,1.55902 0,0.93567 0.4678,1.26991 1.1699,0.83595 0.7974,-0.49277 0.9569,-0.16784 0.501,1.02023 -0.5718,1.49025 -0.2422,1.64954 2.2714,1.09747 3.4667,-0.76142 6.1344,0.49434 10.9167,5.13888 2.3472,2.2796 4.0721,3.18772 5.3089,2.79516 1.2953,-0.41112 1.8321,-0.0734 1.8321,1.15257 0,0.95373 0.263,1.47102 0.5845,1.14954 1.0373,-1.03729 4.3723,2.59016 5.4872,5.9684 0.5959,1.80553 1.7222,3.28278 2.503,3.28278 0.7807,0 3.1629,1.575 5.2936,3.5 2.1308,1.925 4.4086,3.5 5.0619,3.5 0.6533,0 0.9097,0.45 0.5698,1 -0.3399,0.55 0.196,1.03656 1.191,1.08124 0.9949,0.0447 3.0465,0.17204 4.559,0.28302 1.5125,0.11098 2.75,-0.15058 2.75,-0.58124 0,-1.64743 2.9815,-0.6862 4.047,1.30477 0.8264,1.54414 1.731,1.93377 3.4739,1.49633 2.9032,-0.72867 3.3364,-0.0674 3.829,5.84479 0.3052,3.66381 0.091,4.57073 -0.9798,4.15961 -0.7536,-0.28916 -1.3701,-0.14497 -1.3701,0.32042 0,1.41644 2.2939,2.86086 6.754,4.25286 3.6755,1.14711 4.246,1.70345 4.246,4.1407 0,1.80401 0.3978,2.56971 1.1071,2.13129 0.7406,-0.45771 0.8897,9.4e-4 0.4503,1.38534 -0.4871,1.5348 -0.01,2.49386 1.8489,3.71143 1.3782,0.90301 2.8888,1.40512 3.3569,1.1158 0.4681,-0.28932 2.9629,-0.77954 5.544,-1.08937 4.0881,-0.49074 4.6928,-0.3272 4.6928,1.26924 0,1.2573 0.7063,1.80765 2.25,1.75317 1.6025,-0.0566 2.342,0.56808 2.5696,2.1706 0.1757,1.2375 0.8079,2.25 1.4049,2.25 0.597,0 0.3407,0.82293 -0.5695,1.82874 -2.2728,2.51141 -2.0833,3.17126 0.9107,3.17126 1.4112,0 3.5487,0.5417 4.75,1.20377 1.2014,0.66207 2.8593,1.22457 3.6843,1.25 0.9261,0.0285 1.4155,0.86952 1.2792,2.19801 -0.2723,2.65395 2.222,4.84822 5.5112,4.84822 1.5005,0 3.2461,1.0323 4.4448,2.62853 1.8969,2.52594 1.907,2.76954 0.2593,6.2419 -1.8206,3.83657 -1.4415,6.9302 0.7463,6.09065 0.7241,-0.27787 2.2037,0.20302 3.2879,1.06863 1.9299,1.54081 1.9241,1.56085 -0.2787,0.95468 -1.2375,-0.34054 -2.2431,-0.25134 -2.2347,0.19822 0.03,1.60914 1.5184,3.09255 3.4847,3.47344 1.3803,0.26738 2,1.18322 2,2.9559 0,1.41267 0.6246,3.32383 1.388,4.24703 1.1972,1.44777 1.1439,1.94834 -0.388,3.64102 -1.3578,1.50037 -1.5089,2.28437 -0.6415,3.32945 0.8738,1.05294 0.6766,1.78129 -0.8585,3.17055 -1.2797,1.15815 -1.6659,2.19761 -1.0792,2.90463 0.5669,0.68299 0.4288,1.76441 -0.3637,2.8482 -1.5648,2.13995 -2.9831,2.29962 -2.1955,0.24717 0.7143,-1.86126 -0.7296,-1.96641 -2.227,-0.16218 -1.382,1.6652 -1.7488,7.51945 -0.6313,10.07622 0.5953,1.36197 0.4991,1.70549 -0.3334,1.19099 -0.7021,-0.43396 -1.1699,-0.0997 -1.1699,0.83595 0,0.85746 0.5625,1.56591 1.25,1.57433 0.8359,0.0102 0.7531,0.34154 -0.25,1 -1.3333,0.87528 -1.3333,1.10426 0,2.06082 1.1295,0.8103 1.1912,1.20143 0.25,1.58333 -0.6875,0.27897 -1.25,1.14471 -1.25,1.92387 0,0.77917 0.5625,1.42356 1.25,1.43198 0.9731,0.0119 0.9656,0.19575 -0.034,0.82995 -0.7077,0.44909 -0.9963,1.56404 -0.643,2.48469 0.3972,1.0351 0.144,1.67005 -0.6661,1.67005 -1.0166,0 -1.0403,0.26667 -0.107,1.2 1.4475,1.44753 1.6017,3.16629 0.2067,2.30411 -0.5523,-0.34128 -0.9708,0.40965 -0.9426,1.69099 0.028,1.26769 -0.1983,3.8799 -0.5027,5.8049 -0.3044,1.925 -0.6166,4.175 -0.6938,5 -0.077,0.825 -0.584,2.0625 -1.1264,2.75 -0.6652,0.84328 -0.6209,1.25 0.1364,1.25 1.5271,0 1.4266,2.69137 -0.1276,3.41667 -0.8647,0.40353 -0.9095,0.7482 -0.1453,1.11822 1.3299,0.64398 0.5857,5.46511 -0.8437,5.46511 -0.5965,0 -0.5293,0.57429 0.1651,1.41097 0.6441,0.77604 0.7793,1.65305 0.3006,1.94893 -0.4787,0.29587 -0.7565,2.02344 -0.6172,3.83903 1.0777,14.04682 1.119,17.85081 0.2003,18.41863 -0.6549,0.40471 -0.5579,0.92006 0.2691,1.43122 1.055,0.65199 1.0521,1.08846 -0.016,2.375 -0.8606,1.03697 -0.9282,1.57622 -0.1975,1.57622 0.6108,0 1.0446,0.7875 0.964,1.75 -0.3504,4.18119 0.2849,7.22189 1.8324,8.76932 1.036,1.03607 1.2792,1.91051 0.6454,2.32143 -1.359,0.88124 -1.4605,7.15925 -0.1157,7.15925 0.6423,0 0.8223,1.17879 0.4581,3 -0.4048,2.02382 -0.2014,3.00498 0.625,3.01531 0.7634,0.01 0.8482,0.29216 0.225,0.75 -1.4167,1.04081 -1.1822,4.70774 0.4248,6.64407 0.7481,0.90142 1.0918,1.90739 0.7637,2.23549 -0.3281,0.32809 0.5077,2.22168 1.8575,4.20796 1.3497,1.98629 2.454,4.21412 2.454,4.95073 0,0.73661 0.6975,2.03677 1.5499,2.88925 2.929,2.92895 1.3745,4.80719 -3.9785,4.80719 -3.0224,0 -5.0535,0.47792 -5.3151,1.25068 -0.2505,0.74002 0.1449,1.03258 0.9685,0.71653 1.8664,-0.71619 6.1525,3.10713 5.4718,4.88099 -0.2972,0.77445 -0.1148,1.83356 0.4052,2.35357 0.594,0.59398 0.1704,1.64688 -1.1392,2.8321 -1.7816,1.61228 -2.2179,1.67427 -3.0008,0.42637 -0.5039,-0.80313 -0.6621,-2.27612 -0.3516,-3.2733 0.5019,-1.61165 0.3327,-1.66824 -1.5228,-0.50945 -2.5157,1.57106 -2.6294,2.40053 -0.4443,3.23906 0.9037,0.34679 1.3856,0.88808 1.0708,1.20286 -0.3148,0.31478 0.9422,1.96228 2.7933,3.66112 2.69,2.46883 3.1705,3.45316 2.394,4.90413 -0.5344,0.99844 -1.6307,1.81534 -2.4364,1.81534 -0.8056,0 -1.4648,0.45 -1.4648,1 0,0.55 0.3375,0.90457 0.75,0.78794 1.4434,-0.40813 5.25,2.70791 5.25,4.29762 0,1.81067 -3.0496,4.91444 -4.8287,4.91444 -1.4903,0 -1.5346,1.71223 -0.057,2.20475 1.7147,0.57158 1.8534,5.25214 0.3079,10.38763 -0.7681,2.55208 -1.1507,5.03783 -0.8503,5.52389 0.3004,0.48605 -0.2105,0.88373 -1.1353,0.88373 -1.3848,0 -1.4608,0.26594 -0.4307,1.50705 1.776,2.14002 2.4781,12.20482 0.9775,14.01297 -0.6639,0.79998 -0.9586,2.10234 -0.6547,2.89413 0.3038,0.79179 -0.096,1.97762 -0.8881,2.63518 -1.6592,1.37698 -1.9726,3.39748 -0.3737,2.40933 0.6404,-0.39579 0.9402,0.0803 0.75,1.19099 -0.2295,1.33998 0.2032,1.7607 1.5689,1.52533 1.233,-0.21252 1.7102,0.13361 1.3786,1 -0.2789,0.72876 -1.288,4.02502 -2.2425,7.32502 -0.9544,3.3 -2.321,7.39118 -3.0369,9.09147 -0.7158,1.7004 -1.6196,5.6379 -2.0085,8.75 -0.3888,3.11222 -1.0748,5.65852 -1.5243,5.65852 -0.4496,0 -1.0803,0.7875 -1.4016,1.75 -0.3213,0.9625 -2.3316,3.04 -4.4674,4.6166 -3.141,2.3187 -3.8832,3.4944 -3.8832,6.1513 0,5.6413 -7.8936,17.1974 -10.9467,16.0258 -0.8484,-0.3256 -2.3491,0.138 -3.3349,1.0302 -0.9858,0.8921 -2.2323,1.3501 -2.77,1.0178 -0.5377,-0.3323 -1.1285,-0.2639 -1.313,0.1521 -0.1845,0.4159 -1.9104,1.6157 -3.8354,2.6663 -4.1074,2.2415 -20.0331,3.8459 -21.25,2.1408 -0.5012,-0.7023 -1.0415,-0.5988 -1.6289,0.3123 -0.49,0.7598 -1.0432,0.9202 -1.25,0.3624 z"
     id="path2987"
     inkscape:connector-curvature="0" />
</svg>
