<?xml version="1.0" encoding="UTF-8" standalone="no"?>
<!-- Created with Inkscape (http://www.inkscape.org/) -->

<svg
   xmlns:dc="http://purl.org/dc/elements/1.1/"
   xmlns:cc="http://creativecommons.org/ns#"
   xmlns:rdf="http://www.w3.org/1999/02/22-rdf-syntax-ns#"
   xmlns:svg="http://www.w3.org/2000/svg"
   xmlns="http://www.w3.org/2000/svg"
   xmlns:sodipodi="http://sodipodi.sourceforge.net/DTD/sodipodi-0.dtd"
   xmlns:inkscape="http://www.inkscape.org/namespaces/inkscape"
   id="svg2"
   version="1.1"
   inkscape:version="0.48.2 r9819"
   width="1347"
   height="730"
   sodipodi:docname="CaterpillarE.png">
  <metadata
     id="metadata8">
    <rdf:RDF>
      <cc:Work
         rdf:about="">
        <dc:format>image/svg+xml</dc:format>
        <dc:type
           rdf:resource="http://purl.org/dc/dcmitype/StillImage" />
        <dc:title></dc:title>
      </cc:Work>
    </rdf:RDF>
  </metadata>
  <defs
     id="defs6" />
  <sodipodi:namedview
     pagecolor="#ffffff"
     bordercolor="#666666"
     borderopacity="1"
     objecttolerance="10"
     gridtolerance="10"
     guidetolerance="10"
     inkscape:pageopacity="0"
     inkscape:pageshadow="2"
     inkscape:window-width="1920"
     inkscape:window-height="1176"
     id="namedview4"
     showgrid="false"
     inkscape:zoom="0.68873355"
     inkscape:cx="673.5"
     inkscape:cy="365"
     inkscape:window-x="0"
     inkscape:window-y="24"
     inkscape:window-maximized="1"
     inkscape:current-layer="svg2" />
  <path
     style="fill:#000000"
     d="m 1296.4519,730.63328 c -2.475,0.20148 -5.85,0.22163 -7.5,0.0448 -1.65,-0.17686 -5.459,-1.01571 -8.4644,-1.8641 -3.0054,-0.84839 -8.0761,-2.90179 -11.2682,-4.5631 l -5.8038,-3.02056 -2.7318,0.50622 c -1.5025,0.27842 -5.623,1.72795 -9.1566,3.22117 l -6.4248,2.71496 -4.3658,-0.49209 -4.3658,-0.49208 -1.9217,-1.73919 -1.9218,-1.73918 -1.0305,-3.12908 c -0.5668,-1.72099 -2.12,-9.20408 -3.4517,-16.62908 -1.3316,-7.425 -3.1779,-15.75 -4.1027,-18.5 -0.9248,-2.75 -3.0331,-7.7 -4.6851,-11 -1.6519,-3.3 -4.631,-8.14361 -6.6202,-10.76358 l -3.6168,-4.76357 -3.5341,-2.38778 -3.5342,-2.38777 -6,-1.68534 -6,-1.68533 -5.5,-3.12699 c -3.025,-1.71985 -7.4757,-4.94334 -9.8905,-7.16332 -2.4148,-2.21997 -5.4189,-5.66199 -6.6758,-7.64892 l -2.2853,-3.61261 -4.3242,-1.05699 -4.3242,-1.05698 -18.5,-0.64077 c -10.175,-0.35242 -21.875,-1.06683 -26,-1.58758 l -7.5,-0.94681 -6.3686,-3.11386 -6.3685,-3.11385 -5.0305,-4.9257 -5.0304,-4.9257 -3.101,0.64117 c -1.7056,0.35265 -7.4115,2.59632 -12.68,4.98594 l -9.5789,4.34476 -10.4211,2.73344 -10.421,2.73344 -9,0.0403 -9,0.0402 -6.5,-3.05402 c -3.575,-1.67971 -8.9323,-3.85988 -11.90519,-4.84482 l -5.4052,-1.7908 -13.9377,-9.36808 -13.9377,-9.36809 -2.5131,0 -2.5132,0 -1.87,2.37723 c -1.0284,1.30748 -4.9182,4.40799 -8.6439,6.89002 -3.7257,2.48204 -10.5482,6.69978 -15.1611,9.37277 l -8.3872,4.85998 -2.2979,3.5 -2.2978,3.5 -2.0597,11 -2.0596,11 -1.8509,2.5 -1.8508,2.5 -3.9045,1.34592 -3.9045,1.34591 -9.0637,-0.50465 -9.0637,-0.50466 -3.4363,-1.45126 -3.4363,-1.45126 -2.7013,-2.72765 -2.7013,-2.72766 -1.6915,-7.66234 -1.6916,-7.66235 -2.4049,-2.88353 c -1.3227,-1.58594 -3.2637,-4.56684 -4.3133,-6.62421 l -1.9084,-3.74068 -3.1206,-2.62579 -3.1205,-2.62579 -2.7418,0 c -1.508,0 -4.9609,-0.65994 -7.6733,-1.46653 l -4.9315,-1.46653 -6.6617,-4.37809 -6.6617,-4.37808 -5.8865,-1.24922 -5.8866,-1.24921 -11.1617,0.34383 -11.1617,0.34383 -4.599,4.5 -4.599,4.5 -3.473,7.00708 -3.4731,7.00708 -1.4905,6.38929 c -0.8198,3.5141 -2.1627,7.80569 -2.9842,9.53685 l -1.4936,3.14757 -2.8881,1.70607 -2.8882,1.70606 -5.9142,0 -5.9142,0 -5.0439,-1.4979 -5.044,-1.4979 -2.7073,-2.12954 -2.7073,-2.12954 -3.9177,-8.24623 -3.9178,-8.24623 -6.4047,-5.99126 -6.4047,-5.99126 -5.3578,-3.01366 c -2.9468,-1.65752 -8.4728,-4.03078 -12.28,-5.27392 l -6.9223,-2.26027 -4.3804,-4.50715 -4.3805,-4.50716 -11.1973,0.60094 c -6.1585,0.33051 -19.7473,1.08947 -30.1973,1.68657 l -19,1.08563 -4.7033,1.52432 -4.7034,1.52432 -2.9973,3.41374 -2.9973,3.41374 -0.5489,3.27138 c -0.3019,1.79926 -0.4365,6.71857 -0.2993,10.9318 l 0.2495,7.66041 -2.397,2.56056 -2.3971,2.56057 -3.6029,1.19255 -3.603,1.19256 -7.0043,0.003 -7.0043,0.003 -2.2457,-1.20185 c -1.2351,-0.66102 -2.9781,-2.31971 -3.8734,-3.68599 l -1.6276,-2.48415 -0.8235,-8.16903 -0.8236,-8.16902 -2.0811,-2.81493 c -1.1447,-1.54821 -3.1916,-4.45125 -4.5488,-6.45119 l -2.4677,-3.63602 0,-3.80144 0,-3.80144 -1.0512,-0.64972 -1.0513,-0.64972 -2.5208,2.71993 -2.5207,2.71992 -5.449,-0.64043 -5.4491,-0.64043 -6.7289,-3.17509 -6.729,-3.17509 -5.2507,-4.95941 -5.2507,-4.95941 -1.0334,-4.10429 c -0.5684,-2.25736 -1.4476,-5.09299 -1.9538,-6.3014 l -0.9203,-2.19711 -2.4354,-1.59574 -2.4354,-1.59575 -5.3602,-0.85839 -5.3601,-0.8584 -12.84,1.90125 -12.84009,1.90125 -10.29415,0 -10.29415,0 -7.86579,3.95523 -7.8658,3.95523 -4.7107,4.54196 -4.7107,4.54196 -1.126,4.25281 -1.12599,4.25281 -2.60646,2.75633 -2.60646,2.75633 -3.55684,0.98809 -3.55685,0.9881 -5.5685,0.006 -5.5685,0.006 -5.16432,-1.53364 -5.16432,-1.53364 -1.01718,-1.90062 -1.01718,-1.90062 -0.006,-12.31574 -0.006,-12.31574 -1.0192,-3.6695 -1.0192,-3.6695 -4.44134,-2.60279 -4.44134,-2.6028 -2.40818,-3.22771 -2.40818,-3.2277 -1.67822,-5.16615 -1.67822,-5.16616 -2.62621,-2.6262 -2.6262,-2.6262 -7.81251,-4.06452 -7.81251,-4.06451 -5.25877,-5.70473 -5.25877,-5.70473 -3.58823,-7.4384 c -1.97352,-4.09112 -5.79852,-13.48243 -8.5,-20.86957 l -4.91092,-13.43203 -3.02904,-3.22442 -3.02904,-3.22441 -4.97096,-0.60307 c -2.73403,-0.33169 -6.99596,-1.0612 -9.47096,-1.62113 l -4.5,-1.01806 -9.31062,-4.4595 -9.31062,-4.45949 -9.68938,-6.45869 c -5.32916,-3.55227 -12.24213,-8.73849 -15.36215,-11.52493 -3.12003,-2.78645 -7.93385,-7.90779 -10.69739,-11.38077 l -5.02461,-6.31452 -4.04835,-7.50537 c -2.22659,-4.12796 -4.94112,-10.10027 -6.03229,-13.2718 -1.09116,-3.17154 -2.63803,-8.98507 -3.43748,-12.91896 l -1.45354,-7.15253 -1.64899,-19.41145 -1.64899,-19.41146 -1.89212,-7.39812 -1.89212,-7.39811 -2.17872,-3.19043 c -1.19829,-1.75474 -4.32366,-5.44043 -6.94527,-8.19043 l -4.76655,-5 -3.01293,-6 c -1.65712,-3.3 -4.14981,-9.48829 -5.53932,-13.75176 -1.38951,-4.26347 -3.26255,-11.01347 -4.16233,-15 l -1.63595,-7.24824 -0.52255,-16.25 -0.52255,-16.25 -1.72263,0 c -0.94744,0 -5.28211,0.94043 -9.63259,2.08986 l -7.90996,2.08985 -11.16098,0.16015 -11.16098,0.16014 -0.73152,-0.72583 -0.73152,-0.72584 1.17813,-1.41956 1.17813,-1.41956 3.71437,-0.67633 3.71437,-0.67633 5.5,-3.03421 5.5,-3.0342 3.75,-3.59702 3.75,-3.59702 0,-1.76853 c 0,-0.9727 -1.08339,-4.21827 -2.40752,-7.21238 l -2.40753,-5.44384 -2.0659,-1.10564 -2.06591,-1.10564 -5.27657,1.90409 c -2.90211,1.04724 -8.7411,3.30641 -12.97552,5.02037 -4.23442,1.71396 -10.29147,3.79156 -13.4601,4.61688 l -5.76115,1.50059 -5.2899,0 -5.2899,0 0,-0.89966 c 0,-0.49481 2.44264,-3.13209 5.42808,-5.86061 l 5.42808,-4.96096 3.14874,-0.62975 3.14874,-0.62975 3.85018,-2.75963 3.85019,-2.75964 1.59462,-2.6909 1.59462,-2.6909 -2.25173,-2.0978 c -1.23844,-1.15379 -3.27318,-2.35417 -4.52162,-2.66751 l -2.2699,-0.56971 -2.25,0.57196 -2.25,0.57195 -11.5,8.54998 -11.5,8.54998 -10,4.99012 -9.999998,4.99012 -2.25,-0.004 -2.25,-0.003 0,-0.81753 c 0,-0.44964 3.05352,-4.62331 6.78559,-9.27484 3.73208,-4.65152 7.557078,-9.55876 8.499998,-10.90498 0.94293,-1.34621 1.71441,-3.16464 1.71441,-4.04095 l 0,-1.59328 -4.684208,-4.68421 -4.68421,-4.68421 -1.30237,0 -1.30237,0 -1.40778,3.36931 -1.40779,3.3693 -2.35563,1.65928 c -1.2956,0.91261 -5.85244,2.76702 -10.12631,4.12092 -4.27387,1.3539 -9.61345,3.40175 -11.86573,4.55078 l -4.095047,2.08914 -2.32297,-0.58303 -2.32298,-0.58304 -4.20619,-5.99633 c -2.3134,-3.29798 -4.32622,-5.99633 -4.47293,-5.99633 -0.1467,0 -1.5026,3.15 -3.01309,7 -1.5105,3.85 -3.06413,7 -3.45251,7 -0.38839,0 -1.49758,-2.07231 -2.46488,-4.60513 l -1.75871,-4.60513 -3.09314,-3.52289 c -1.70123,-1.93759 -5.58344,-5.32 -8.62714,-7.51646 -3.0437,-2.19646 -6.78634,-5.40135 -8.31697,-7.12198 -1.53063,-1.72062 -4.06013,-5.60341 -5.62112,-8.62841 -1.56099,-3.025 -3.53457,-7.975 -4.38574,-11 -0.85118,-3.025 -2.06617,-8.875 -2.7,-13 l -1.15241,-7.5 0.0259,-19.59202 0.0259,-19.59202 1.49911,-10.02601 1.49912,-10.02601 1.99846,-5.25952 c 1.09915,-2.89274 3.20369,-6.99867 4.67675,-9.12429 l 2.67829,-3.86478 4.44187,-2.94217 4.44187,-2.94217 13.10432,-3.11529 13.10433,-3.11529 8.07312,-3.3457 c 4.440217,-1.84013 15.468137,-7.10522 24.506487,-11.70021 l 16.43336,-8.3545202 7.066628,0.1822702 7.06664,0.18228 5,-1.6012302 5,-1.60123 9.5,-0.0389 c 5.225,-0.0214 12.875,0.3342 17,0.79024 l 7.5,0.82918 7,-2.08552 7,-2.08552 9,-1.02756 9,-1.02756 14.81193,-0.008 14.81192,-0.008 5.29925,2.50695 5.29924,2.50694 7.61504,0.96549 7.61504,0.9655 4.27379,2.6880302 c 2.35058,1.47842 6.74879,4.70741 9.77379,7.17553 l 5.5,4.48749 5,2.34227 5,2.34226 4,0.0173 c 2.2,0.01 6.925,0.46032 10.5,1.00175 3.575,0.54143 9.11967,1.74402 12.32149,2.67242 l 5.82149,1.68799 1.86289,3.65156 1.86289,3.65156 5.96611,5.52357 5.96611,5.52356 2.84951,0.61625 2.84951,0.61625 4.67348,6.27865 c 2.57041,3.45327 6.43795,9.20366 8.59452,12.77866 2.15657,3.575 5.20102,9.425 6.76543,13 1.56441,3.575 5.0712,9.875 7.79286,14 2.72167,4.125 6.30193,9.075 7.95614,11 1.65421,1.925 7.65471,8.69038 13.33443,15.03418 5.67972,6.34379 14.18044,16.46879 18.89048,22.5 l 8.56371,10.96582 3.3752,7.03341 c 1.85635,3.86837 5.7096,13.76837 8.56278,22 l 5.18759,14.96659 4.80308,10.18844 c 2.64169,5.60364 8.44471,16.24053 12.89559,23.63754 4.45088,7.397 9.17678,15.78939 10.50201,18.64974 l 2.40949,5.20065 2.02698,1.41975 2.02698,1.41975 2.95882,7.74207 c 1.62736,4.25813 4.62777,14.26216 6.6676,22.23118 2.03983,7.96901 4.31604,15.66343 5.05824,17.0987 l 1.34948,2.60959 9.30255,0.66316 9.30254,0.66315 11.7259,2.39029 11.7258,2.3903 6.7742,2.53748 c 3.7258,1.39561 7.9413,2.78058 9.3679,3.0777 l 2.5939,0.54022 8.9117,7.90072 8.9117,7.90072 9.4631,11.15524 9.463,11.15524 2.4846,0.62358 2.4845,0.62358 11.0469,-2.35093 11.0468,-2.35093 15.8242,-0.41486 15.8241,-0.41486 11.6759,1.19586 c 6.4217,0.65773 16.3664,2.05401 22.0994,3.10285 5.7329,1.04884 13.8329,2.85661 18,4.01727 4.167,1.16066 9.91,3.20623 12.762,4.54572 l 5.1857,2.43542 2.0317,2.20784 c 1.1175,1.2143 2.9008,3.32548 3.9628,4.69149 l 1.931,2.48365 3.7552,-1.79068 3.7551,-1.79069 11.5964,-0.55233 11.5965,-0.55234 13.1746,1.08729 13.1746,1.08729 4.0889,1.63607 4.089,1.63606 2.7365,-0.54907 2.7364,-0.54907 17.5,3.39998 17.5,3.39999 11.1291,1.14251 11.1292,1.14251 15.8708,-0.35933 15.8709,-0.35933 4.2691,-2.24198 4.2691,-2.24197 7.2309,-1.19294 7.2309,-1.19293 17,-0.0632 17,-0.0632 5.5,1.40704 c 3.025,0.77386 8.2884,2.65672 11.6964,4.18412 3.408,1.5274 9.483,4.00969 13.5,5.5162 l 7.30357,2.73911 40.99999,0.10716 41,0.10715 6.5,1.76603 c 3.575,0.97131 11.45,3.57865 17.5,5.79409 6.05,2.21544 16.7664,6.54104 23.8143,9.61244 l 12.8143,5.58437 3.0247,2.82545 3.0246,2.82544 4.3679,-0.97886 4.3679,-0.97886 20.7931,-1.48455 c 11.4363,-0.8165 27.3182,-1.96869 35.2932,-2.56042 l 14.5,-1.07588 6,-1.83959 c 3.3,-1.01177 10.852,-3.96662 16.7822,-6.56632 l 10.7822,-4.72672 11.7178,-6.7255 c 6.4448,-3.69902 22.5178,-13.60033 35.7178,-22.0029 13.2,-8.40257 32.3801,-20.84643 42.6224,-27.65301 l 18.6225,-12.37561 4.6596,-2.06116 4.6596,-2.06116 3.2098,0.31097 3.2097,0.31097 0.3459,1.8244 0.3458,1.82441 -1.8343,2.02688 c -1.0089,1.11479 -8.6252,7.35111 -16.9252,13.8585 -8.3001,6.50739 -21.5506,17.59931 -29.4456,24.64871 -7.895,7.04941 -18.5714,16.48162 -23.7252,20.96048 -5.1538,4.47886 -10.8515,9.87886 -12.6614,12 -1.81,2.12114 -5.5485,7.23162 -8.3078,11.35662 -2.7593,4.125 -6.4854,10.41911 -8.2803,13.98691 -1.7949,3.56779 -4.3282,9.31557 -5.6295,12.77283 l -2.366,6.28592 0,5.95434 0,5.95434 2.5447,6.76057 2.5446,6.76057 4.6346,7.43583 c 2.549,4.08971 8.0834,11.76494 12.2987,17.05608 l 7.6641,9.62026 18.4067,19.31122 c 10.1236,10.62118 21.012,22.30146 24.1964,25.95618 3.1843,3.65472 8.5324,10.69495 11.8846,15.64495 l 6.0948,9 8.2511,16.61835 8.251,16.61834 1.2453,6.96802 1.2452,6.96803 -1.2221,11.85354 -1.2221,11.85355 -1.9459,6.30023 -1.946,6.30024 -4.2128,5.98018 c -2.3171,3.28909 -7.0892,10.10057 -10.6047,15.13661 l -6.3917,9.15643 -7.1083,13.52329 -7.1082,13.5233 -2.5,1.75745 -2.5,1.75745 -4.5,0.36633 z"
     id="path2987"
     inkscape:connector-curvature="0" />
</svg>
