<?xml version="1.0" encoding="UTF-8" standalone="no"?>
<!-- Created with Inkscape (http://www.inkscape.org/) -->

<svg
   xmlns:dc="http://purl.org/dc/elements/1.1/"
   xmlns:cc="http://creativecommons.org/ns#"
   xmlns:rdf="http://www.w3.org/1999/02/22-rdf-syntax-ns#"
   xmlns:svg="http://www.w3.org/2000/svg"
   xmlns="http://www.w3.org/2000/svg"
   xmlns:sodipodi="http://sodipodi.sourceforge.net/DTD/sodipodi-0.dtd"
   xmlns:inkscape="http://www.inkscape.org/namespaces/inkscape"
   id="svg2"
   version="1.1"
   inkscape:version="0.48.2 r9819"
   width="1292.5026"
   height="705.89423"
   sodipodi:docname="australianinsect00frog_04152e.png">
  <metadata
     id="metadata8">
    <rdf:RDF>
      <cc:Work
         rdf:about="">
        <dc:format>image/svg+xml</dc:format>
        <dc:type
           rdf:resource="http://purl.org/dc/dcmitype/StillImage" />
        <dc:title></dc:title>
      </cc:Work>
    </rdf:RDF>
  </metadata>
  <defs
     id="defs6" />
  <sodipodi:namedview
     pagecolor="#ffffff"
     bordercolor="#666666"
     borderopacity="1"
     objecttolerance="10"
     gridtolerance="10"
     guidetolerance="10"
     inkscape:pageopacity="0"
     inkscape:pageshadow="2"
     inkscape:window-width="1920"
     inkscape:window-height="1176"
     id="namedview4"
     showgrid="false"
     fit-margin-top="0"
     fit-margin-left="0"
     fit-margin-right="0"
     fit-margin-bottom="0"
     inkscape:zoom="1"
     inkscape:cx="589.85628"
     inkscape:cy="374.54784"
     inkscape:window-x="0"
     inkscape:window-y="24"
     inkscape:window-maximized="1"
     inkscape:current-layer="svg2" />
  <path
     style="fill:#000000"
     d="m 1126.3563,702.23885 c -3.9951,-3.17404 -5.5772,-3.86402 -7.8719,-3.43306 -2.409,0.4524 -2.6803,0.30841 -1.6831,-0.89313 0.9612,-1.15821 0.6495,-1.77885 -1.6281,-3.24142 -1.5493,-0.99491 -3.6893,-2.60002 -4.7555,-3.5669 -1.0662,-0.96688 -2.282,-1.75797 -2.7018,-1.75797 -0.4198,0 -2.2475,-1.47321 -4.0615,-3.27381 -5.0009,-4.96401 -12.4764,-10.72619 -13.9156,-10.72619 -0.7044,0 -2.6537,-1.31824 -4.3317,-2.92942 -1.6779,-1.61117 -5.7508,-5.20865 -9.0508,-7.99439 -3.3,-2.78574 -6.7312,-5.68626 -7.625,-6.44559 -0.8937,-0.75933 -1.7937,-1.77435 -2,-2.2556 -0.2062,-0.48125 -2.8137,-2.98753 -5.7944,-5.56952 -4.2695,-3.69846 -5.7926,-4.49478 -7.1784,-3.75314 -1.4652,0.78416 -2.272,0.0447 -4.8306,-4.4272 -1.6894,-2.95273 -3.0716,-5.80729 -3.0716,-6.34347 0,-0.53618 -1.477,-2.5064 -3.2823,-4.37827 -1.8052,-1.87187 -4.1348,-5.6534 -5.1767,-8.4034 -1.042,-2.75 -3.104,-6.67092 -4.5824,-8.71316 -1.4783,-2.04223 -3.923,-6.23776 -5.4327,-9.32338 -1.5096,-3.08563 -3.3706,-5.85035 -4.1354,-6.14383 -0.7648,-0.29349 -1.3905,-1.80342 -1.3905,-3.35542 0,-1.85138 -1.2037,-4.09805 -3.5,-6.53289 -1.925,-2.04109 -3.5,-4.50291 -3.5,-5.47071 0,-0.9678 -1.5762,-4.10181 -3.5026,-6.96448 -1.9264,-2.86267 -4.2664,-6.84539 -5.1999,-8.85049 -2.9602,-6.35842 -7.42662,-13.14564 -8.65062,-13.14564 -1.0761,0 -3.0364,-8.88562 -7.1701,-32.5 -1.3639,-7.79191 -3.3214,-15.95718 -4.5548,-19 -0.4459,-1.1 -1.1067,-4.925 -1.4684,-8.5 -0.3618,-3.575 -1.3274,-7.93988 -2.1458,-9.69973 -0.8184,-1.75985 -1.247,-3.58962 -0.9525,-4.06616 0.6707,-1.08513 -2.2689,-15.55066 -3.2986,-16.23249 -0.4166,-0.27589 -0.7471,-2.07662 -0.7343,-4.00162 0.029,-4.31879 -3.1869,-19.0617 -4.5156,-20.70314 -0.5356,-0.66172 -0.8238,-2.86921 -0.6404,-4.90554 0.2096,-2.3255 -0.1313,-3.8615 -0.9164,-4.13019 -0.6875,-0.23529 -1.25,0.2847 -1.25,1.15554 0,0.87083 -0.45,1.58333 -1,1.58333 -1.2888,0 -1.2897,-3.59027 0,-5.99735 1.213,-2.26657 -0.047,-9.1855 -1.7781,-9.76248 -0.6713,-0.22376 -1.256,0.41816 -1.2994,1.4265 -0.052,1.2116 -0.2612,1.37598 -0.6163,0.48472 -0.2954,-0.74174 0.012,-2.37408 0.6824,-3.62742 0.9893,-1.84857 0.9391,-2.72674 -0.2658,-4.65138 -0.8169,-1.30493 -1.7574,-4.39759 -2.0901,-6.87259 -1.9774,-14.71126 -4.1443,-26.6806 -5.0465,-27.87586 -0.5712,-0.75673 -1.0794,-3.87936 -1.1292,-6.93918 -0.055,-3.3929 -0.5629,-5.72072 -1.3011,-5.96678 -0.8204,-0.27347 -0.9946,-1.55333 -0.5409,-3.97213 0.5716,-3.04676 0.4294,-3.47654 -0.972,-2.93874 -1.8931,0.72642 -2.2418,-1.3071 -0.5195,-3.02936 1.7557,-1.75716 -0.8512,-21.27795 -2.843,-21.27795 -1.0495,0 -1.2656,-0.52102 -0.7256,-1.75 1.6626,-3.78457 1.6464,-8.90584 -0.034,-10.58583 -1.046,-1.04598 -1.4181,-2.41413 -1.008,-3.70626 0.6129,-1.93108 -0.404,-12.29903 -2.6441,-26.95791 -0.5464,-3.575 -1.6261,-12.35 -2.3994,-19.5 -0.7734,-7.15 -1.4562,-13.45 -1.5175,-14 -0.061,-0.55 -0.7383,1.89085 -1.5046,5.42412 -0.7662,3.53326 -1.9036,6.73955 -2.5274,7.12508 -0.6986,0.43178 -0.8786,1.86444 -0.4687,3.73068 0.7051,3.21049 -1.0115,5.53083 -2.0635,2.78925 -1.2751,-3.32287 -2.5442,-0.0558 -2.2502,5.79262 0.1697,3.37604 -0.043,6.70075 -0.4737,7.38825 -0.4416,0.70557 -0.321,1.25 0.2767,1.25 1.4889,0 1.3254,3.72335 -0.191,4.34937 -0.7572,0.31262 -0.3631,0.78561 1,1.19996 2.509,0.76265 3.0932,3.45067 0.75,3.45067 -0.825,0 -1.5,0.47656 -1.5,1.05902 0,0.58246 0.392,0.81675 0.8711,0.52064 1.4169,-0.87566 2.2293,7.77006 0.8383,8.92034 -0.6652,0.55 -1.3165,2.0125 -1.4476,3.25 -0.1785,1.6859 0.2812,2.25 1.8334,2.25 2.5976,0 2.0261,2.10808 -0.9817,3.62092 -1.7506,0.88049 -1.9079,1.24399 -0.7334,1.6947 1.6011,0.61438 1.6193,5.37599 0.025,6.52951 -0.4978,0.36018 -1.0605,2.67986 -1.2505,5.15485 -0.19,2.47499 -0.8006,4.78124 -1.3568,5.125 -0.6639,0.41036 -0.6311,0.85995 0.095,1.30904 1.4813,0.91549 1.406,6.7961 -0.1315,10.26893 -1.8083,4.08438 -3.3298,5.35271 -7.1685,5.97564 -2.7596,0.44782 -3.9698,0.0531 -6.2121,-2.02603 -1.5316,-1.42021 -2.9485,-2.41846 -3.1487,-2.21832 -0.2001,0.20013 0.1022,2.0968 0.6718,4.21482 0.5697,2.11802 1.1617,6.52393 1.3158,9.79093 l 0.28,5.93999 -4,2.29356 c -5.5768,3.19765 -7.6499,2.91741 -12.3806,-1.67354 -2.2669,-2.2 -4.465,-4 -4.8846,-4 -0.9136,0 -4.2349,-7.40983 -4.2349,-9.44784 0,-0.78877 -0.45,-1.71224 -1,-2.05216 -0.55,-0.33992 -1,-1.49148 -1,-2.55902 0,-1.06754 -0.45,-1.94098 -1,-1.94098 -0.55,0 -1,-1.125 -1,-2.5 0,-1.375 -0.3873,-2.5 -0.8608,-2.5 -0.8403,0 -5.1382,-12.35901 -5.1382,-14.77821 0,-0.67199 -0.4766,-1.22179 -1.059,-1.22179 -0.5825,0 -0.7727,-0.46325 -0.4228,-1.02943 0.3499,-0.56619 -0.2444,-3.82869 -1.3207,-7.25 -1.0762,-3.42132 -2.2723,-7.56887 -2.658,-9.2168 -0.3857,-1.64793 -2.2238,-6.16189 -4.0848,-10.03104 -1.861,-3.86914 -3.9871,-9.39298 -4.7247,-12.27518 l -1.3411,-5.24038 -2.3688,2.52142 c -1.3028,1.38677 -3.2199,2.52141 -4.2602,2.52141 -4.3816,0 -9.3052,5.85469 -6.9251,8.2348 0.9479,0.94794 -0.75,5.74311 -2.0387,5.7574 -0.3871,0.004 -0.4614,2.62451 -0.1651,5.8227 0.2963,3.1982 0,8.4857 -0.6683,11.75 -0.6639,3.26431 -1.4264,7.3976 -1.6943,9.1851 -0.268,1.7875 -0.9405,3.25 -1.4944,3.25 -0.554,0 -0.772,0.89955 -0.4845,1.999 0.2875,1.09946 0.115,2.25101 -0.3834,2.55902 -0.4984,0.30801 -0.9061,1.43346 -0.9061,2.501 0,1.06754 -0.3504,1.94098 -0.7787,1.94098 -0.4282,0 -1.2796,3.18177 -1.892,7.07061 -1.166,7.40473 -3.564,11.26654 -8.0793,13.01074 -1.8651,0.72048 -2.25,1.62884 -2.25,5.31057 0,2.60911 -0.504,4.6094 -1.2216,4.8486 -0.7258,0.24195 -1.2331,2.31963 -1.25,5.11987 -0.016,2.59197 -0.5252,5.03373 -1.1324,5.42614 -0.6073,0.39241 -1.6677,3.73478 -2.3565,7.4275 -1.0961,5.87626 -1.6475,6.94714 -4.4189,8.58228 -2.664,1.57181 -3.938,3.83869 -8.0288,14.28598 -2.6743,6.82974 -4.9295,13.90623 -5.0116,15.72552 -0.082,1.8193 -0.6618,3.6246 -1.2883,4.01178 -1.3187,0.81503 -7.2919,16.68346 -7.2919,19.37181 0,0.99473 -0.4319,1.8086 -0.9598,1.8086 -1.0372,0 -5.0402,11.99689 -5.0402,15.10534 0,1.04206 -0.4384,1.89466 -0.9743,1.89466 -1.2837,0 -3.5999,4.61546 -4.5166,9 -0.4024,1.925 -1.3499,4.20307 -2.1056,5.06238 -2.1036,2.39216 -6.4631,15.1744 -5.8424,17.13005 0.3268,1.0296 -0.2693,2.43349 -1.4694,3.4611 -1.4006,1.19919 -1.7161,2.0941 -1.0299,2.92089 0.6842,0.82449 0.5044,1.37805 -0.5832,1.79541 -0.8648,0.33187 -1.4791,1.17193 -1.3651,1.86679 0.114,0.69486 -0.273,2.38838 -0.86,3.76338 -7.0576,16.53242 -10.2535,24.52649 -10.2535,25.64772 0,0.74375 -0.3666,1.35228 -0.8148,1.35228 -1.1644,0 -3.9327,6.13696 -4.7617,10.55625 -0.3877,2.06672 -1.3139,4.92455 -2.0581,6.35072 -0.7442,1.42616 -1.3558,3.4209 -1.3592,4.43274 -0.01,2.54917 -3.945,5.58705 -7.2914,5.62702 -3.1495,0.0376 -7.1918,2.33466 -10.3554,5.88452 -1.1774,1.32109 -2.6319,2.09836 -3.2323,1.72728 -0.6004,-0.37108 -2.7791,0.47195 -4.8415,1.87339 -2.06244,1.40144 -4.52958,2.54808 -5.48255,2.54808 -0.95298,0 -2.21435,0.9 -2.80305,2 -0.5887,1.1 -1.97626,2 -3.08346,2 -1.31021,0 -2.47458,1.09757 -3.33482,3.14349 -1.12057,2.66503 -1.46343,2.89029 -2.25269,1.47998 -0.83111,-1.48512 -1.78335,-1.23931 -8.87999,2.29234 -4.37197,2.17571 -9.49897,5.10972 -11.39332,6.52002 -1.89435,1.41029 -4.39185,2.56417 -5.55,2.56417 -1.15815,0 -2.53322,0.40866 -3.05572,0.90814 -0.5225,0.49948 -6.575,3.71415 -13.45,7.1437 -6.875,3.42956 -16.87465,8.68609 -22.22145,11.68119 -8.69972,4.87329 -9.7874,5.79722 -10.34902,8.79093 -0.34517,1.83992 -1.48302,4.11946 -2.52856,5.06566 -2.14315,1.93952 -2.56686,0.52312 -0.81995,-2.74101 1.58034,-2.95289 0.61545,-3.20563 -3.47248,-0.90957 -1.99474,1.12038 -4.71191,1.94724 -6.03817,1.83747 -1.32625,-0.10976 -3.45964,0.30967 -4.74087,0.93208 -8.10746,3.93851 -17.87644,8.21989 -21.14632,9.26763 -2.31378,0.74138 -4.24751,2.16825 -4.91052,3.62339 -1.17826,2.58601 -2.3761,3.09007 -2.98713,1.25699 -0.28595,-0.85786 -0.91465,-0.85786 -2.51759,0 -1.17505,0.62887 -3.33553,1.1434 -4.80107,1.1434 -1.46554,0 -4.08262,0.63721 -5.81574,1.41603 -1.73312,0.77881 -7.20113,2.86395 -12.15113,4.63364 -4.95,1.76969 -10.575,3.99252 -12.5,4.93962 -1.925,0.9471 -5.01971,2.01215 -6.87714,2.36678 -1.85742,0.35463 -6.03338,1.99459 -9.2799,3.64436 -3.24653,1.64976 -6.11432,2.99957 -6.37287,2.99957 -1.11971,0 -0.34708,-3.00309 0.77991,-3.03138 1.6528,-0.0415 13.55473,-5.96862 11.98527,-5.96862 -0.6676,0 -3.58114,0.89977 -6.47454,1.9995 -5.5804,2.12099 -7.76472,2.47324 -7.75441,1.2505 0.0146,-1.72959 6.5233,-4.24856 12.58155,-4.86925 5.84221,-0.59855 6.66,-0.95939 7.9861,-3.52379 0.81256,-1.57133 2.16739,-2.85696 3.01073,-2.85696 0.84333,0 1.25522,0.45 0.9153,1 -0.92476,1.49629 0.92866,1.22436 7.27498,-1.06736 3.14876,-1.13705 8.29465,-2.91261 11.43531,-3.9457 3.14066,-1.03308 7.76913,-3.02777 10.28548,-4.43264 2.51636,-1.40486 5.27636,-2.5543 6.13333,-2.5543 0.85698,0 1.77114,-0.81451 2.03147,-1.81003 0.37437,-1.43156 1.53004,-1.82597 5.52708,-1.88627 2.77955,-0.0419 5.33692,-0.46492 5.68304,-0.93997 1.05277,-1.44493 14.03235,-7.36373 16.14824,-7.36373 1.08959,0 1.98107,-0.39825 1.98107,-0.885 0,-0.96869 1.78597,-1.91834 35.47154,-18.8612 12.63435,-6.35471 23.57899,-12.16147 24.32143,-12.90391 0.74244,-0.74244 2.01067,-1.34989 2.8183,-1.34989 2.13891,0 9.68644,-4.02488 11.05359,-5.89457 0.64439,-0.88126 1.46234,-1.31156 1.81767,-0.95623 0.35533,0.35533 3.64748,-1.10788 7.31589,-3.25157 3.66841,-2.1437 7.19426,-3.89763 7.83522,-3.89763 0.64096,0 3.50582,-1.575 6.36636,-3.5 2.86054,-1.925 5.49326,-3.50193 5.85049,-3.50428 0.35723,-0.002 2.67451,-1.35043 5.14951,-2.99572 2.475,-1.64529 5.11,-2.99336 5.8556,-2.99572 2.1026,-0.007 6.8403,-4.4166 6.3441,-5.90523 -0.2439,-0.7317 -0.048,-1.61581 0.4341,-1.9647 1.1488,-0.83044 6.3662,-7.83971 6.3662,-8.55271 0,-0.30349 2.2825,-5.39601 5.0723,-11.31672 2.7898,-5.9207 5.9739,-13.01492 7.0758,-15.76492 1.102,-2.75 2.6157,-6.35 3.3638,-8 2.0142,-4.44197 2.8487,-9.5 1.5676,-9.5 -0.5937,0 -1.0795,-0.45 -1.0795,-1 0,-0.55 0.6947,-1 1.5438,-1 0.8492,0 1.4141,-0.56498 1.2556,-1.25552 -0.1586,-0.69053 0.7217,-2.26553 1.9561,-3.5 1.2345,-1.23446 2.2445,-3.11792 2.2445,-4.18546 0,-1.06754 0.45,-2.2191 1,-2.55902 0.55,-0.33992 1,-1.25314 1,-2.02938 0,-0.77624 1.09,-3.79426 2.4221,-6.7067 3.1876,-6.96873 3.9979,-10.38629 2.6589,-11.21384 -1.7628,-1.08951 -1.2369,-2.38819 1.1058,-2.73053 1.7252,-0.25209 2.9512,-2.21943 5.8079,-9.31955 1.9917,-4.95 4.3391,-10.35593 5.2165,-12.01317 0.8774,-1.65725 1.9127,-5.13025 2.3007,-7.71778 0.3881,-2.58753 1.3197,-5.21432 2.0704,-5.83731 0.7506,-0.62299 1.6634,-2.77499 2.0285,-4.78222 0.365,-2.00724 1.9519,-6.22419 3.5264,-9.371 1.5746,-3.14682 2.8628,-6.83696 2.8628,-8.20031 0,-1.36336 0.6046,-2.83869 1.3436,-3.27852 2.7787,-1.65395 6.0399,-15.29969 3.6564,-15.29969 -1.6252,0 -1.1526,-3.05571 1.2271,-7.93428 1.4282,-2.92772 2.1699,-6.17256 2.0675,-9.0446 -0.088,-2.46338 0.319,-5.05554 0.904,-5.76035 0.5849,-0.70482 1.4432,-3.31392 1.9073,-5.798 0.6714,-3.59399 0.4341,-5.55582 -1.1619,-9.60483 -1.9676,-4.99182 -1.9701,-5.14848 -0.1341,-8.26038 l 1.8716,-3.17207 -6.3508,0.4044 c -8.5832,0.54653 -11.7513,-0.9122 -14.5432,-6.69622 -1.2301,-2.54852 -3.0065,-5.66994 -3.9475,-6.93649 -1.5903,-2.14049 -6.2615,-15.15673 -7.0689,-19.69718 -0.2587,-1.45503 -1.6472,0.22198 -5.0957,6.15445 -2.6071,4.48495 -5.4006,8.70255 -6.2078,9.37245 -0.8072,0.66989 -1.4676,2.27377 -1.4676,3.56416 0,1.45626 -0.4741,2.17122 -1.25,1.88494 -1.6827,-0.62088 -6.75,8.73715 -6.75,12.4655 0,1.61726 -0.45,3.21858 -1,3.5585 -0.55,0.33992 -1,0.0864 -1,-0.56343 0,-1.73749 -2.1904,0.28768 -5.5418,5.12377 -2.114,3.05043 -2.5033,4.29453 -1.6204,5.17746 1.425,1.42502 1.5258,3.7622 0.1622,3.7622 -0.55,0 -1,-0.675 -1,-1.5 0,-0.825 -0.3375,-1.49693 -0.75,-1.49317 -0.8473,0.008 -5.25,6.20226 -5.25,7.38675 0,0.42341 -1.575,2.69191 -3.5,5.04112 -1.925,2.3492 -3.5,4.97563 -3.5,5.8365 0,2.62518 -1.141,4.7288 -2.5648,4.7288 -1.3504,0 -6.6401,8.03439 -6.3512,9.64664 0.084,0.46935 0.1,2.09086 0.034,3.60336 -0.1344,3.12172 -2.1184,3.82413 -2.1184,0.75 0,-1.1 -0.3375,-1.99693 -0.75,-1.99317 -1.48953,0.0136 -5.25,6.67859 -5.25,9.30505 0,1.47847 -0.45,2.68812 -1,2.68812 -0.55,0 -1,-0.45 -1,-1 0,-2.15751 -1.63855,-0.79474 -4.25728,3.54076 -1.5085,2.49741 -2.74272,5.40829 -2.74272,6.46861 0,1.24138 -0.49839,1.73661 -1.39965,1.39076 -0.91553,-0.35132 -3.07735,1.94633 -6.25,6.6427 -2.66769,3.94888 -6.98385,9.7172 -9.59146,12.81848 -4.0195,4.78046 -4.74247,6.28556 -4.75,9.88869 -0.009,4.27989 -1.26196,5.63886 -2.41902,2.6236 -0.49013,-1.27725 -1.26582,-0.74056 -3.61326,2.5 -3.12936,4.31994 -4.97661,5.24843 -4.97661,2.5014 0,-1.30933 -0.63133,-1.4899 -3.25,-0.9295 -5.70475,1.22081 -41.29151,2.45905 -72.06574,2.50753 -18.00021,0.0284 -30.5611,0.44587 -31.69661,1.05358 -1.44827,0.77509 -2.10339,0.609 -2.84834,-0.72216 -0.8888,-1.5882 -4.28778,-1.74784 -41.80339,-1.96339 -22.45935,-0.12904 -40.94802,-0.25407 -41.08552,-0.27784 -1.1375,-0.19665 4.17428,-4.04322 5.58333,-4.04322 1.00834,0 2.12886,-0.29552 2.49005,-0.65671 0.36119,-0.36119 6.6927,-0.59833 14.07003,-0.52699 11.54087,0.11162 13.50045,-0.0973 14.03747,-1.49678 0.57069,-1.4872 0.73029,-1.48136 1.86333,0.0682 1.07013,1.46349 3.95187,1.7621 21.1254,2.18898 10.93742,0.27188 20.26741,0.72991 20.73331,1.01785 0.46589,0.28794 1.22721,0.28859 1.69181,10e-4 0.4646,-0.28714 12.4939,-0.73908 26.73177,-1.00433 16.72145,-0.3115 26.01057,-0.85285 26.23594,-1.52895 0.23946,-0.71839 0.94674,-0.72675 2.25492,-0.0266 1.85086,0.99055 37.30518,-0.29209 44.43264,-1.60745 5.01804,-0.92608 8.39055,-2.55026 7.90777,-3.80834 -0.25175,-0.65605 2.41911,-4.32033 5.93523,-8.14283 5.34376,-5.8094 6.14809,-7.12907 4.90092,-8.04102 -1.24056,-0.90712 -0.96246,-1.31035 1.64997,-2.39246 3.78482,-1.56772 10.19602,-9.18065 8.27165,-9.8221 -0.76045,-0.25349 0.31765,-1.60236 2.65394,-3.32048 2.16406,-1.59147 4.48117,-4.213 5.14914,-5.82562 0.66797,-1.61262 1.80572,-3.15891 2.52832,-3.4362 1.53313,-0.58832 7.50306,-8.99829 7.50306,-10.56973 0,-0.5884 1.83011,-2.89993 4.06691,-5.13673 3.27563,-3.27563 3.83742,-4.34344 2.88738,-5.48817 -0.93783,-1.13001 -0.79785,-1.56319 0.68309,-2.11389 3.01267,-1.12029 6.36008,-5.61717 6.3614,-8.54585 7.9e-4,-1.75169 0.76222,-3.12207 2.14622,-3.86276 2.3659,-1.26622 6.7737,-5.94846 6.8234,-7.24838 0.017,-0.45427 2.0566,-3.45759 4.5316,-6.67404 2.475,-3.21645 4.5,-6.55727 4.5,-7.42404 0,-0.8664 0.4259,-1.57558 0.9465,-1.57558 1.108,0 8.0535,-10.1878 8.0535,-11.81304 0,-0.60831 1.1623,-2.18379 2.583,-3.50107 1.4206,-1.31727 6.3022,-8.56273 10.848,-16.10101 l 8.2651,-13.70596 -1.724,-7.23613 c -1.6575,-6.95726 -4.2414,-13.04372 -7.228,-17.02633 -1.3602,-1.81371 -1.8544,-1.70686 -13.3283,2.88182 -12.629,5.05058 -16.894,6.79617 -22.2098,9.08993 -2.0264,0.87444 -4.73582,1.1908 -7.04113,0.82216 -3.07511,-0.49173 -5.53343,0.21267 -13.70604,3.92727 -13.9435,6.33758 -27.1138,10.90664 -29.37221,10.18985 -1.18482,-0.37605 -6.77204,1.52556 -14.74707,5.01916 -24.3365,10.66102 -38.19453,15.20853 -42.8135,14.04925 -1.32414,-0.33235 -4.28692,0.43414 -7.30381,1.88954 -5.85944,2.82668 -17.47402,6.03456 -25.30706,6.98965 -3.99734,0.4874 -5.92505,0.281 -7.36254,-0.78831 -1.72961,-1.28659 -2.64189,-1.18716 -8.1583,0.88921 -13.42194,5.05201 -29.79291,7.47381 -37.13843,5.494 -3.9035,-1.0521 -4.29495,-1.46194 -4.87781,-5.10694 -0.65524,-4.09766 -1.7387,-5.07169 -2.73973,-2.46305 -0.31658,0.825 -1.48972,1.5 -2.60699,1.5 -1.11726,0 -2.03138,0.45 -2.03138,1 0,0.55 -0.6199,1 -1.37756,1 -0.75765,0 -1.95475,0.69548 -2.66021,1.54551 -0.70546,0.85003 -1.87115,1.31968 -2.59042,1.04367 -0.71927,-0.27601 -1.57373,-0.0715 -1.8988,0.45449 -0.73672,1.19204 -3.47301,1.26467 -3.47301,0.0922 0,-0.47528 2.025,-1.6375 4.5,-2.58271 2.475,-0.94521 4.5,-2.13135 4.5,-2.63586 0,-0.50451 0.57482,-0.91729 1.27738,-0.91729 2.02402,0 11.51717,-8.90249 9.54935,-8.95519 -0.92031,-0.0246 -3.01027,1.08019 -4.64436,2.45519 -1.6341,1.375 -3.41352,2.5 -3.95428,2.5 -0.54076,0 -1.5434,0.675 -2.22809,1.5 -0.68469,0.825 -2.04164,1.5 -3.01546,1.5 -0.97381,0 -2.03119,0.67917 -2.34973,1.50928 -0.31854,0.8301 -0.95576,1.3926 -1.41606,1.25 -0.4603,-0.14261 -3.69021,1.42822 -7.17759,3.49072 -6.6325,3.92258 -11.41757,5.1134 -9.04116,2.25 0.68469,-0.825 1.79565,-1.5 2.46881,-1.5 1.90961,-1e-5 7.53119,-3.04044 7.53119,-4.07325 0,-0.50972 0.70502,-0.92676 1.56672,-0.92676 0.8617,0 3.04167,-1.125 4.84439,-2.5 1.80272,-1.375 3.64272,-2.5 4.08889,-2.5 0.44617,0 2.28617,-1.125 4.08889,-2.5 1.80272,-1.375 3.75769,-2.5 4.34439,-2.5 0.5867,0 1.06672,-0.45 1.06672,-1 0,-1.14039 -2.31656,-1.3501 -3.36228,-0.30439 -0.38258,0.38259 -1.24508,0.7889 -1.91666,0.90291 -0.67158,0.11401 -4.56482,2.0614 -8.65164,4.32753 -4.08682,2.26612 -7.88732,3.96798 -8.44554,3.78191 -0.55823,-0.18608 2.33553,-2.2107 6.43058,-4.49916 8.11168,-4.5331 7.54435,-5.33925 -1.55446,-2.2088 -6.38771,2.19769 -8.5,2.46933 -8.5,1.09307 0,-0.49881 2.5875,-1.69438 5.75,-2.65682 3.1625,-0.96245 6.1775,-2.12933 6.7,-2.59308 0.5225,-0.46374 1.77583,-0.84317 2.78518,-0.84317 2.13196,0 6.76482,-2.81815 6.76482,-4.11501 0,-1.16145 -3.33295,-1.14144 -4.55,0.0273 -1.03229,0.99134 -13.27357,6.08771 -14.62241,6.08771 -0.45517,0 -0.82759,-0.70156 -0.82759,-1.55902 0,-0.85746 0.45345,-1.27877 1.00767,-0.93624 0.55422,0.34253 1.71115,-0.0807 2.57096,-0.94051 0.85981,-0.85981 3.35936,-1.85049 5.55457,-2.20152 2.62437,-0.41965 3.65344,-0.97607 3.0048,-1.62471 -0.64863,-0.64863 -2.12546,-0.56132 -4.31224,0.25496 -4.20602,1.57002 -17.07968,3.95311 -18.07576,3.34607 -2.07628,-1.26533 -0.13696,-2.21301 5.5,-2.68764 8.14931,-0.68617 8.26483,-0.71599 15.07265,-3.89139 3.24266,-1.51248 5.54276,-3.16875 5.19099,-3.73794 -0.88119,-1.42579 -3.18657,-1.27399 -5.79882,0.38184 -2.82746,1.79224 -10.71482,3.11544 -10.71482,1.79754 0,-0.53589 1.9125,-1.26935 4.25,-1.62991 2.57754,-0.39758 5.62732,-1.83678 7.75,-3.65723 l 3.5,-3.00167 -11,0.63667 c -17.31892,1.0024 -17.92999,1.07527 -20.48569,2.44304 -1.76487,0.94453 -2.52174,0.98537 -2.79984,0.15106 -0.22061,-0.66183 -2.56473,-1.1434 -5.56567,-1.1434 -3.9085,0 -6.10745,0.62714 -8.93436,2.54808 -3.91048,2.65723 -7.66335,2.39147 -4.11593,-0.29148 1.6966,-1.28315 1.07592,-1.39978 -5.76006,-1.08239 -5.53559,0.25702 -8.20128,0.84417 -9.60662,2.11598 -1.74132,1.57588 -2.07883,1.59909 -3.222,0.22165 -1.49986,-1.80721 -11.32542,-1.32474 -13.73424,0.67441 -1.08717,0.90226 -1.88517,0.91415 -3.27094,0.0487 -1.86946,-1.1675 -13.35977,-0.58241 -34.90064,1.77714 -5.1678,0.56608 -9.65076,0.77446 -9.96215,0.46308 -0.31138,-0.31139 -0.006,-1.46377 0.67956,-2.56086 1.14743,-1.83732 0.78937,-2.20119 -4.53785,-4.61158 -3.93722,-1.78146 -7.28897,-2.56719 -10.49914,-2.46123 -3.84126,0.12679 -4.92135,-0.22885 -5.82541,-1.9181 -0.9426,-1.76127 -1.70158,-1.97377 -5.03693,-1.41027 -3.23064,0.54582 -3.82601,0.40003 -3.35706,-0.82204 0.4155,-1.08278 -0.7615,-1.92779 -4.34139,-3.11684 -2.70129,-0.89722 -5.65289,-1.34679 -6.55911,-0.99904 -1.00928,0.38729 -1.87641,0.0362 -2.23803,-0.90619 -0.6099,-1.58933 -8.24822,-3.66902 -13.47572,-3.66902 -1.82917,0 -2.95078,-0.51979 -2.95078,-1.36749 0,-1.449 -7.67017,-3.66004 -14.22906,-4.10174 -2.05099,-0.13812 -4.48064,-0.87655 -5.39924,-1.64095 -2.01523,-1.67695 -16.91489,-6.34559 -44.8717,-14.06001 -3.85,-1.06238 -9.10554,-2.61739 -11.67898,-3.45559 -2.57343,-0.8382 -5.49843,-1.42114 -6.5,-1.29542 -1.00156,0.12571 -2.49602,-0.0679 -3.32102,-0.43034 -0.825,-0.3624 -4.47218,-1.27838 -8.10484,-2.03552 -3.63266,-0.75713 -7.68266,-2.06957 -9,-2.91652 -3.68111,-2.36667 -13.4807,-4.87928 -17.8107,-4.56665 -2.13684,0.15429 -4.55719,-0.27721 -5.37856,-0.95889 -0.82137,-0.68168 -4.74888,-2.14155 -8.72779,-3.24416 -6.52831,-1.80909 -7.40038,-1.85455 -8.935,-0.46574 -1.87762,1.69923 -6.04311,2.09503 -6.04311,0.5742 0,-0.53065 1.0125,-1.50803 2.25,-2.17196 2.09837,-1.1258 1.87934,-1.29632 -3.25,-2.53024 -3.025,-0.7277 -7.7485,-1.21281 -10.49666,-1.07803 -3.82949,0.18781 -4.99744,-0.0967 -5,-1.21821 -0.004,-1.77968 -13.67865,-5.17587 -15.69402,-3.89773 -2.15413,1.36614 -3.54503,0.97965 -4.09907,-1.13901 -0.35708,-1.36547 -1.36401,-2 -3.17381,-2 -1.45794,0 -4.60231,-0.49139 -6.98748,-1.09199 -3.15017,-0.79322 -4.90143,-0.78974 -6.40083,0.0127 -1.67427,0.89604 -2.24368,0.77176 -3.01458,-0.65801 -0.64598,-1.19809 -4.18955,-2.53397 -11.0628,-4.17055 -8.60686,-2.04936 -10.47145,-2.21567 -12.52411,-1.11712 -3.215833,1.72106 -6.312833,0.65309 -4.486753,-1.5472 1.14635,-1.38127 0.42523,-1.50248 -6.67749,-1.12239 -4.61807,0.24714 -9.29003,1.11254 -11.12286,2.06033 -1.73812,0.89883 -4.43244,1.63423 -5.98737,1.63423 -1.55494,0 -3.82807,0.70107 -5.05142,1.55793 -1.22334,0.85687 -2.57124,1.34349 -2.99532,1.08139 -1.94794,-1.20389 -26.22543,5.78589 -26.22543,7.55062 0,0.58091 -1.02906,0.7686 -2.36953,0.43216 -4.44139,-1.11472 -24.61507,6.35819 -31.3366704,11.608 -1.82004,1.42152 -3.53981,-0.16286 -3.03622,-2.79722 0.28378,-1.48451 -0.11014,-2.54606 -1.08337,-2.91952 -3.33232,-1.27874 1.15353,-3.69435 17.3257904,-9.32989 3.37778,-1.17705 19.03251,-5.55829 27.75884,-7.76878 3.16736,-0.80233 7.34355,-2.34886 9.28041,-3.43674 1.93687,-1.08787 4.18289,-1.97795 4.99117,-1.97795 0.80827,0 1.46958,-0.45 1.46958,-1 0,-0.55 1.575,-1 3.5,-1 1.925,0 3.5,-0.45 3.5,-1 0,-0.55 1.37573,-1 3.05718,-1 3.794,0 11.43882,-1.75353 15.50188,-3.55575 2.88514,-1.27973 7.33757,-0.97082 8.44094,0.58564 0.83629,1.17969 20.997863,5.90816 22.588713,5.2977 0.81718,-0.31359 2.25652,0.096 3.19854,0.9102 1.88517,1.62936 9.63437,3.76221 13.66914,3.76221 1.41391,0 3.35214,0.44813 4.30718,0.99584 2.36194,1.35456 16.483,5.09093 17.05995,4.51398 0.2545,-0.25451 -0.27667,-0.74648 -1.18039,-1.09327 -2.44155,-0.93691 -1.9889,-2.60476 0.60687,-2.2361 1.2375,0.17575 2.67539,1.28835 3.19531,2.47243 0.75187,1.71233 2.9005,2.61095 10.5,4.3914 13.15468,3.08194 19.24541,4.6456 21.30469,5.46952 1.23114,0.49258 1.75,0.22372 1.75,-0.90681 0,-2.27091 1.52069,-1.99539 4.29408,0.778 1.40249,1.40249 4.2019,2.67478 6.79546,3.08843 2.42575,0.38689 8.01046,1.74864 12.41046,3.02611 10.65048,3.09219 14.74953,3.71364 17.58252,2.66565 1.7666,-0.65351 3.47481,-0.28087 6.78801,1.48078 2.43504,1.29472 5.00972,2.35404 5.72151,2.35404 0.71179,0 5.32365,1.35 10.24857,3 4.92492,1.65 10.32396,3 11.99788,3 1.67391,0 3.30117,0.41696 3.61614,0.92659 1.15481,1.86852 47.37324,15.33343 50.19834,14.62437 1.39238,-0.34946 2.54528,-0.0193 3.04411,0.87185 0.94807,1.69366 15.32214,6.57719 19.35914,6.57719 1.54051,0 3.49458,0.69365 4.34237,1.54145 0.8478,0.8478 4.81744,2.46411 8.82143,3.59181 4.00399,1.12771 8.09221,2.47831 9.08495,3.00136 5.14539,2.71096 24.42393,7.94963 27.19503,7.38986 3.80346,-0.7683 5.23077,-0.76086 9.25,0.0483 2.59416,0.52223 3.25,0.32866 3.25,-0.95924 0,-2.04468 3.58477,-2.13796 4.36163,-0.1135 0.36375,0.94793 1.89702,1.5 4.166,1.5 1.97472,0 3.33151,-0.41891 3.01508,-0.9309 -1.05981,-1.71481 1.74464,-2.39662 2.96924,-0.72188 1.55978,2.13309 7.48805,2.25404 7.48805,0.15274 0,-1.89252 2.38205,-1.94951 3.92212,-0.0938 1.72076,2.07338 9.62428,1.43751 9.43899,-0.75941 -0.18115,-2.14789 2.97927,-2.14647 4.76246,0.002 1.21663,1.46594 3.35966,1.57677 19.31413,0.99886 12.1858,-0.4414 18.18212,-1.03262 18.68237,-1.84204 0.57019,-0.92259 1.32857,-0.92233 3.35537,0.001 3.64128,1.65908 10.65457,1.49081 13.23641,-0.31758 1.36525,-0.95626 2.38612,-1.13977 2.78152,-0.5 0.34357,0.55589 3.92496,1.01072 7.95866,1.01072 5.75045,0 7.46443,-0.33992 7.93811,-1.5743 0.54966,-1.4324 0.74601,-1.4324 2.17842,0 1.90242,1.90243 5.79694,2.05159 7.61001,0.29147 0.72679,-0.70556 4.92143,-1.87504 9.32143,-2.59883 4.4,-0.7238 8.45,-1.67995 9,-2.12478 1.55516,-1.25778 11.98541,-2.94089 14.36632,-2.31827 1.23749,0.32386 2.13368,0.0892 2.13368,-0.55841 0,-0.61415 -1.15156,-1.11663 -2.55902,-1.11663 -3.29493,0 -2.29218,-1.65414 1.50885,-2.48898 2.43002,-0.53372 32.6339,-14.86788 33.96732,-16.12021 0.22944,-0.21548 0.48955,-1.37442 0.57803,-2.57542 0.13122,-1.78106 1.62138,-2.70261 8.08285,-4.99864 4.35708,-1.54825 8.82197,-3.26287 9.92197,-3.81025 1.1,-0.54738 8.48268,-3.42912 16.40596,-6.40387 7.92328,-2.97474 14.80734,-6.12585 15.29792,-7.00246 0.49058,-0.87661 3.0079,-2.54652 5.59404,-3.71089 2.58614,-1.16438 6.67006,-3.00233 9.07538,-4.08433 2.40531,-1.082 5.26226,-2.13847 6.34877,-2.34772 1.68541,-0.32458 1.87832,0.007 1.31382,2.2558 -0.58304,2.32303 -0.47329,2.4799 0.92381,1.32042 0.92735,-0.76963 1.3414,-2.08478 0.99749,-3.16834 -0.39999,-1.26024 -0.16742,-1.70707 0.72742,-1.39757 1.30131,0.45008 5.77737,-5.50183 5.85603,-7.78688 0.0223,-0.64936 1.3537,-2.71632 2.95854,-4.59323 1.60485,-1.87691 2.69553,-3.77238 2.42374,-4.21215 -0.27179,-0.43977 1.33208,-2.6814 3.56415,-4.9814 2.23208,-2.3 3.93561,-4.30044 3.78563,-4.44541 -0.14999,-0.14498 -6.1227,0.1837 -13.2727,0.7304 -7.15,0.54671 -16.15,0.76971 -20,0.49557 -3.85,-0.27415 -12.16491,-0.0389 -18.47757,0.52286 -10.54365,0.93821 -11.66238,1.23618 -13.74878,3.66201 -1.24917,1.45238 -2.27176,2.9236 -2.27243,3.26937 -6.7e-4,0.34577 -1.23872,1.15472 -2.75122,1.79765 -3.89936,1.65755 -11.8538,9.12805 -12.73028,11.9558 -0.53985,1.74165 -0.95635,2.02943 -1.5491,1.07033 -0.62634,-1.01344 -1.62963,-0.68719 -4.41125,1.43446 -1.98029,1.51044 -4.31802,3.84129 -5.19495,5.17966 -0.87694,1.33838 -2.34226,2.43342 -3.25627,2.43342 -0.91401,0 -3.44976,1.7852 -5.63499,3.96711 -2.18524,2.1819 -4.3584,3.9819 -4.82926,4 -0.93969,0.0361 -8.7614,5.93971 -9.77987,7.38156 -0.86571,1.2256 -10.77148,4.65133 -13.44969,4.65133 -1.18934,0 -4.16705,-1.1204 -6.61714,-2.48978 -4.22845,-2.36333 -18.9313,-7.51022 -21.45404,-7.51022 -0.64959,0 -2.45505,-0.61997 -4.01212,-1.37772 -6.13563,-2.98589 -10.68473,-4.72067 -28.33104,-10.80388 -4.675,-1.61162 -9.46812,-3.40735 -10.65139,-3.99051 -1.18326,-0.58316 -2.75826,-0.84173 -3.5,-0.57458 -0.74173,0.26714 -2.02361,-0.0922 -2.84861,-0.79853 -2.48783,-2.12999 -16.07659,-6.45478 -20.28132,-6.45478 -2.91305,0 -3.79678,-0.35409 -3.40857,-1.36576 0.77194,-2.01162 -10.07462,-5.6333 -11.23725,-3.75213 -1.20794,1.95449 -7.2113,0.48096 -6.84722,-1.68066 0.16495,-0.97933 -0.52324,-1.75635 -1.72564,-1.94842 -2.12564,-0.33955 -13.1985,-3.53138 -20.22301,-5.82943 -2.32266,-0.75985 -4.97523,-1.09289 -5.89461,-0.74009 -0.94094,0.36107 -2.15476,0.0241 -2.77699,-0.77103 -1.34558,-1.7194 -7.34549,-3.91248 -10.70388,-3.91248 -1.35107,0 -3.34413,-0.5983 -4.429,-1.32956 -2.27911,-1.53623 -19.56484,-7.32735 -25.76636,-8.63233 -8.144,-1.71373 -19.14293,-6.25337 -20.42424,-8.4298 -0.86464,-1.46866 -16.78555,-13.60831 -17.84703,-13.60831 -0.36681,0 -2.7839,-1.554 -5.37132,-3.45334 -3.43949,-2.52482 -5.33248,-3.2891 -7.04035,-2.84248 -1.669,0.43645 -2.12397,0.26787 -1.59349,-0.59046 1.2216,-1.9766 -1.49501,-4.43797 -12.81805,-11.61372 -1.73576,-1.1 -5.62096,-3.89389 -8.6338,-6.20864 -17.31692,-13.30456 -25.60995,-19.29136 -26.72275,-19.29136 -0.69032,0 -1.25512,-0.66344 -1.25512,-1.47432 0,-0.81088 -1.30737,-2.15039 -2.90526,-2.97669 -1.59789,-0.8263 -3.51039,-2.09703 -4.25,-2.82385 -2.62105,-2.57573 -21.98919,-17.254984 -25.34088,-19.206034 -1.87162,-1.0895 -3.65922,-3.002 -3.97245,-4.25 -0.45817,-1.82549 -1.26323,-2.26911 -4.11785,-2.26911 -3.08249,0 -3.46575,-0.2602 -2.91929,-1.98196 0.51147,-1.61149 -0.53297,-2.733 -5.58765,-6 -3.41918,-2.20992 -6.78443,-4.01804 -7.47832,-4.01804 -0.6939,0 -1.41163,-0.3375 -1.59497,-0.75 -0.69655,-1.56725 -11.59085,-9.25 -13.11668,-9.25 -0.87924,0 -1.85417,-0.4135 -2.16652,-0.91889 -0.77178,-1.24876 -17.18832,-11.08111 -18.50153,-11.08111 -0.57673,0 -1.93336,-0.7875 -3.01473,-1.75 -4.83339,-4.30207 -6.86254,-5.85469 -9.60212,-7.34716 -1.61246,-0.87843 -5.18175,-2.95434 -7.93175,-4.61313 -2.75,-1.65879 -8.375,-4.946057 -12.5,-7.305044 -4.125,-2.358988 -9.3,-5.44931 -11.5,-6.867382 -4.3429,-2.799341 -7.071,-3.829318 -18.5,-6.984575 C 92.034357,13.730673 80.332047,11.193727 65.856277,9.2899372 c -5.225,-0.687169 -11.48125,-1.832236 -13.90277,-2.544593 -2.76093,-0.812203 -6.76104,-1.074977 -10.72673,-0.704655 -5.46639,0.510459 -6.4165,0.349383 -7.00638,-1.187814 -1.16783,-3.043316 0.98245,-5.02339904 5.2574,-4.84128804 9.5591,0.407213 18.34272,1.19464604 19.19388,1.72069104 1.52287,0.941186 21.25521,3.980772 27.1846,4.187539 3.025,0.105487 6.85,0.668998 8.5,1.252247 8.185433,2.8934208 13.992553,4.1966448 14.320203,3.2137128 0.59361,-1.7808288 4.05631,-1.1386748 5.1798,0.960589 0.5887,1.1 1.80248,2 2.69729,2 2.19176,0 12.0832,2.940127 15.80271,4.697189 2.76689,1.307053 8.48922,5.010095 11.09388,7.179075 2.81965,2.348022 7.83398,4.340142 8.19539,3.255912 0.67106,-2.013163 2.28978,-1.20385 3.28136,1.640577 0.98419,2.823247 9.08946,7.583917 13.36617,7.850677 1.08835,0.0679 2.18143,0.73125 2.42906,1.47414 0.80819,2.42457 5.47886,6.09784 14.13414,11.11586 6.66056,3.86155 8.86323,4.70411 10.17849,3.89346 1.38677,-0.85472 1.78535,-0.548 2.29331,1.76473 0.64166,2.92147 5.65837,6.12838 9.58688,6.12838 1.15582,0 2.35669,0.9623 2.86312,2.29432 0.47976,1.26187 3.73113,4.0337 7.22525,6.15961 6.35188,3.86464 22.46607,14.2587 24.35295,15.70827 0.55,0.42253 2.72454,2.21303 4.8323,3.97887 2.90511,2.43385 4.02728,2.89515 4.6382,1.90667 1.11651,-1.80655 3.02573,-0.38987 3.04747,2.26128 0.0124,1.51559 1.55372,3.19519 5,5.448674 2.74012,1.79172 4.98203,3.70422 4.98203,4.25 0,0.54577 0.92958,0.99231 2.06574,0.99231 2.87607,0 5.93426,1.79561 5.93426,3.48429 0,0.77766 1.68124,2.67433 3.7361,4.21482 4.38493,3.28731 8.72056,6.96556 11.66178,9.89359 1.15616,1.15098 3.67712,3.13489 5.60212,4.40867 1.925,1.27378 4.93337,3.65461 6.68527,5.29073 1.7519,1.63612 4.2269,3.08229 5.5,3.21371 3.53407,0.36481 3.60212,0.40107 3.45362,1.83991 -0.21147,2.04895 9.44473,9.13702 10.38185,7.62073 0.88633,-1.43412 2.97926,-0.42531 2.97926,1.43603 0,1.84495 9.22703,9.36541 12.49786,10.18634 1.51977,0.38144 2.96676,1.41749 3.21555,2.30235 0.57209,2.03476 12.77898,11.04906 16.77855,12.39029 1.65442,0.5548 3.45804,1.34879 4.00804,1.76442 0.55,0.41564 4.825,2.17292 9.5,3.90508 4.675,1.73215 10.35154,3.99133 12.61453,5.02039 3.69636,1.68087 4.2703,1.71525 5.64722,0.33833 1.37692,-1.37693 1.59734,-1.32902 2.16875,0.47133 0.47145,1.48542 2.89176,2.69164 9.35277,4.66116 4.7942,1.46142 10.96673,3.52938 13.71673,4.59545 2.75,1.06607 9.5,3.13017 15,4.58688 15.30795,4.0544 19.44701,5.22472 20.26392,5.72959 0.41253,0.25496 5.2469,1.64769 10.74306,3.09495 5.49616,1.44727 10.8187,2.88074 11.82787,3.1855 1.74962,0.52836 1.75589,0.43358 0.13499,-2.04022 -0.93492,-1.42688 -1.36801,-2.59432 -0.96241,-2.59432 0.4056,0 0.19435,-0.65441 -0.46946,-1.45425 -2.66558,-3.21183 -5.01793,-8.96579 -4.0579,-9.92582 0.62979,-0.62979 0.5981,-1.42328 -0.0899,-2.25233 -1.41247,-1.70191 -0.32593,-3.29348 1.86088,-2.72583 0.96195,0.2497 2.649,-0.27928 3.749,-1.17552 1.60407,-1.30693 1.6599,-1.52302 0.28203,-1.09156 -0.94489,0.29588 -1.98395,0.10762 -2.30902,-0.41836 -0.53265,-0.86185 0.80425,-1.33217 2.00773,-0.70633 0.26441,0.1375 1.16953,-0.73338 2.01138,-1.93528 1.24298,-1.77461 2.18625,-2.0789 5.01925,-1.61916 2.15276,0.34934 3.48863,0.1589 3.48863,-0.49733 0,-0.5849 0.90653,-1.35118 2.01452,-1.70284 1.10799,-0.35166 1.77048,-1.03425 1.47221,-1.51686 -0.91197,-1.47559 6.62429,-2.39029 8.751,-1.06214 1.6261,1.01552 1.99794,0.8984 2.4333,-0.76639 0.58071,-2.22065 4.29386,-3.58511 5.76172,-2.11725 1.58374,1.58374 4.58489,1.17678 3.92888,-0.53275 -0.64946,-1.69245 2.12793,-2.13493 3.13837,-0.5 1.05939,1.71413 3.66215,1.09594 4.21025,-1 0.60823,-2.32588 1.24909,-2.43128 4.83865,-0.79577 2.25545,1.02766 2.78553,0.94956 3.61497,-0.53257 0.76342,-1.36415 1.73187,-1.59425 4.51355,-1.0724 2.32762,0.43667 3.7966,0.25179 4.28556,-0.53935 0.54929,-0.88879 2.09657,-0.95792 5.91328,-0.26421 2.90146,0.52736 5.40458,0.55891 5.70555,0.0719 0.29487,-0.47717 -0.16538,-0.8676 -1.02284,-0.8676 -0.85746,0 -1.55902,-0.45 -1.55902,-1 0,-1.5981 3.81433,-1.15419 4.77098,0.55525 1.11693,1.99584 12.88168,1.70806 12.47902,-0.30525 -0.34896,-1.74479 1.58286,-1.56 3.47528,0.33243 1.87864,1.87863 8.29154,1.09467 9.57441,-1.17045 0.91239,-1.61097 3.70031,-1.92137 3.70031,-0.41198 0,0.55 0.47656,1 1.05902,1 0.58246,0 0.74058,-0.51524 0.35137,-1.14499 -0.50456,-0.81639 0.12423,-0.93677 2.19099,-0.41946 5.38713,1.3484 10.39776,1.77907 12.1527,1.04455 3.61198,-1.5118 11.27324,-1.24785 12.28198,0.42313 0.87007,1.44128 1.05578,1.4449 1.90708,0.0372 0.6868,-1.13571 2.38552,-1.51611 6.25,-1.39959 2.91877,0.088 6.0903,-0.23634 7.04783,-0.72075 1.1542,-0.58391 2.79983,-0.33319 4.8827,0.7439 1.97476,1.02119 3.37137,1.25309 3.75998,0.62432 0.6668,-1.07892 9.49088,-0.85027 12.37908,0.32077 0.98254,0.39838 2.42101,0.16839 3.25,-0.51961 1.04167,-0.8645 1.8624,-0.92299 2.73932,-0.19521 0.68863,0.57151 3.33805,1.03911 5.8876,1.03911 3.71426,0 5.30379,-0.58878 7.99794,-2.96254 2.79766,-2.46496 2.9845,-2.85954 1.11241,-2.34928 -2.37802,0.64816 -2.96024,-0.41127 -1.19572,-2.17579 0.73904,-0.73904 -0.51958,-1.24068 -4.20931,-1.67768 -4.51935,-0.53525 -5.58749,-0.31911 -7.55428,1.5286 l -2.29069,2.15195 0,-2.10693 c 0,-2.90705 -3.59809,-3.9154 -6.05081,-1.69571 -1.61231,1.45912 -1.99388,1.50112 -2.46575,0.27144 -0.41642,-1.08516 -2.22893,-1.4276 -7.13345,-1.34775 -4.50551,0.0733 -6.72994,-0.29625 -7.06685,-1.1742 -0.31548,-0.82214 -1.38858,-1.05614 -2.99473,-0.65302 -1.53264,0.38467 -2.80076,0.14657 -3.2709,-0.61413 -0.49707,-0.80427 -1.60525,-0.97656 -3.14266,-0.48861 -2.53157,0.80349 -3.55543,0.50202 -3.08528,-0.90843 0.15927,-0.4778 -1.31089,-0.56847 -3.26701,-0.2015 -1.95612,0.36697 -4.11116,0.32447 -4.78897,-0.0944 -0.67781,-0.41891 -2.52097,-0.62649 -4.09591,-0.46129 -2.07812,0.21798 -2.65246,-0.0411 -2.09403,-0.94468 0.59472,-0.96229 -0.4584,-1.10145 -4.63709,-0.61275 -3.60765,0.42192 -4.90747,0.31317 -3.90656,-0.32685 1.70867,-1.09258 1.02861,-1.25423 -4.25,-1.0102 -2.37207,0.10966 -3.75,-0.27337 -3.75,-1.0424 0,-0.8684 -1.40428,-1.04945 -4.91496,-0.63366 -3.89074,0.4608 -5.03907,0.25866 -5.51056,-0.97002 -0.45274,-1.17983 -1.42896,-1.39578 -4.06996,-0.90033 -2.87521,0.5394 -3.37228,0.3858 -2.88245,-0.89069 0.71258,-1.85695 -1.76906,-2.06936 -4.85865,-0.41587 -1.69691,0.90816 -2.3422,0.80235 -3.32794,-0.54573 -0.83932,-1.14784 -1.99778,-1.47786 -3.69363,-1.05222 -1.78453,0.44788 -2.65023,0.15248 -3.11688,-1.06358 -0.50825,-1.32448 -1.39056,-1.54404 -4.13553,-1.02908 -2.34785,0.44046 -3.48944,0.27718 -3.48944,-0.49909 0,-0.72629 -0.91138,-0.92498 -2.45999,-0.53631 -1.84208,0.46234 -2.73177,0.1096 -3.54198,-1.40428 -0.78631,-1.46924 -1.93802,-1.95646 -4.21466,-1.78299 -1.77538,0.13528 -3.30976,-0.2925 -3.54136,-0.98731 -0.22477,-0.67435 -1.30332,-1.22606 -2.39677,-1.22606 -1.09345,0 -2.58109,-0.5625 -3.30586,-1.25 -0.72477,-0.6875 -2.49263,-2.10053 -3.92857,-3.14007 -1.43595,-1.03954 -2.61081,-2.4236 -2.61081,-3.07569 0,-0.65209 -1.125,-2.24249 -2.5,-3.53424 -3.17999,-2.98745 -3.14111,-3.79022 0.25,-5.16168 4.85869,-1.96498 11.60411,-2.62189 17.25,-1.6799 3.025,0.50471 8.2,1.33206 11.5,1.83856 17.78433,2.72963 26.8532,4.25084 45,7.54829 11,1.99881 24.725,4.24443 30.5,4.99028 5.775,0.74585 16.575,2.46873 24,3.82864 7.425,1.3599 19.8,3.6222 27.5,5.02733 14.57631,2.65995 20.10172,3.14927 20.66667,1.83019 0.18333,-0.42806 2.96066,-2.9019 6.17183,-5.49743 4.25836,-3.44192 5.42568,-4.87754 4.31315,-5.30446 -2.56301,-0.98352 -0.72754,-3.65568 2.03481,-2.96238 2.97729,0.74725 8.48864,-2.85948 8.08778,-5.29279 -0.19406,-1.17796 0.45668,-1.67075 2.22576,-1.68551 3.53064,-0.0294 7.55969,-2.2879 9.05025,-5.07303 0.69848,-1.30513 2.21042,-2.6659 3.35986,-3.02393 1.14944,-0.35803 3.88989,-1.93198 6.08989,-3.49767 2.2,-1.56569 5.575,-3.13504 7.5,-3.48745 4.378,-0.8015 8,-3.00234 8,-4.861104 0,-3.23942 1.9079,-2.10826 5.8339,3.458814 2.2914,3.24913 4.1761,6.492 4.1883,7.20637 0.026,1.51253 3.9224,-3.18044 3.9556,-4.76405 0.0122,-0.5846 1.3722,-2.35629 3.0222,-3.93709 1.65,-1.5808 3,-3.439474 3,-4.130394 0,-0.69091 0.7875,-1.84568 1.75,-2.56614 1.9683,-1.47335 9.0145,-9.92585 11.6174,-13.93609 1.8391,-2.83343 7.3175,-4.58252 9.0201,-2.87988 0.5569,0.55688 1.645,1.0125 2.4181,1.0125 0.7732,0 2.742,1.12442 4.3752,2.49871 2.8418,2.39122 2.9837,2.89671 3.297,11.75 0.3597,10.162824 2.9955,27.818864 4.74,31.751294 0.61,1.375 1.148,4.75 1.1956,7.5 0.064,3.69126 0.4472,4.92342 1.4644,4.70741 1.0035,-0.21311 1.1886,0.33018 0.6815,2 -1.533,5.04744 -1.5087,7.72154 0.078,8.60956 1.1596,0.64894 1.3435,1.40307 0.6794,2.78639 -0.5007,1.04315 -0.6644,3.69664 -0.3637,5.89664 0.525,3.84014 0.7467,4.05055 5.5468,5.2649 2.75,0.6957 7.7,1.48906 11,1.76303 3.3,0.27397 9.3324,0.94745 13.4052,1.49662 4.0728,0.54916 7.5049,0.8808 7.6267,0.73697 1.0358,-1.22232 8.4681,-17.9682 8.4681,-19.07948 0,-0.79044 0.675,-1.99735 1.5,-2.68204 0.825,-0.68469 1.5,-1.81601 1.5,-2.51404 0,-1.84649 4.8802,-2.77825 7.9315,-1.51435 3.7949,1.57188 5.4103,4.52123 3.9604,7.23044 -1.7995,3.36246 1.4515,8.43151 7.3122,11.40137 3.8853,1.9688 4.7959,2.14225 4.7959,0.91343 0,-0.83427 0.3878,-1.51685 0.8617,-1.51685 0.4739,0 0.7906,-2.23706 0.7039,-4.97125 -0.11,-3.4664 0.2687,-5.1349 1.251,-5.51184 1.0651,-0.40874 1.1343,-0.87116 0.2837,-1.89606 -0.8501,-1.02437 -0.7579,-1.66014 0.3777,-2.60259 0.9677,-0.80309 1.285,-2.11466 0.8911,-3.68379 -0.4254,-1.695 -0.071,-2.83206 1.1649,-3.73563 1.3562,-0.99168 1.6393,-2.14387 1.1967,-4.87089 -0.418,-2.57584 -0.1824,-3.72437 0.8449,-4.11856 0.7834,-0.30064 1.4244,-1.42342 1.4244,-2.49507 0,-1.07165 1.9077,-3.53307 4.2393,-5.46983 3.6765,-3.05386 4.4434,-3.33671 5.7763,-2.13042 0.8453,0.76503 3.3252,1.98098 5.5107,2.70211 l 3.9737,1.31115 -0.3574,5.86091 c -0.2351,3.85463 0.057,6.11706 0.8532,6.60917 0.888,0.54877 0.927,1.27841 0.1464,2.73697 -1.2001,2.2425 -0.3652,19.00976 0.9883,19.84626 0.4557,0.28164 0.3168,1.33161 -0.3088,2.33325 -2.0263,3.24464 -0.3438,5.08611 4.647,5.08611 2.4922,0 4.5313,0.36111 4.5313,0.80246 0,0.44135 2.3177,1.63588 5.1505,2.65452 4.8262,1.73549 5.2283,1.74548 6.3886,0.15871 1.1098,-1.51767 1.3481,-1.37807 2.2976,1.34548 1.154,3.31054 3.431,3.91401 5.8062,1.53883 1.7389,-1.73892 5.6399,-1.9542 8.4229,-0.46482 1.3076,0.69983 1.9342,2.09573 1.9342,4.30887 0,3.57399 1.5044,6.02959 4.2879,6.99935 2.5478,0.88764 3.0371,-1.32147 1.2435,-5.61415 -1.9778,-4.73347 -2.0821,-8.43124 -0.1937,-6.86399 0.7357,0.61058 1.9016,4.26568 2.5908,8.12245 0.6893,3.85676 1.6004,7.01229 2.0249,7.01229 0.4244,0 2.4704,1.35 4.5466,3 2.0763,1.65 4.1052,3 4.5087,3 0.4035,0 1.0321,-2.25 1.3969,-5 1.0518,-7.92845 2.831,-6.17184 2.0257,2 -0.7111,7.21739 -0.055,8.48127 2.8782,5.54762 1.6498,-1.6498 2.819,-1.04617 2.0178,1.04172 -0.2941,0.76659 0.236,1.68958 1.178,2.05108 0.9421,0.36151 2.8545,1.7153 4.2498,3.00843 1.3953,1.29313 3.0911,2.35115 3.7685,2.35115 0.6773,0 1.7917,0.675 2.4764,1.5 0.6847,0.825 1.9125,1.5 2.7285,1.5 0.816,0 2.3686,1.125 3.4502,2.5 1.0815,1.375 2.6088,2.5 3.3939,2.5 0.7851,0 1.4274,0.45 1.4274,1 0,0.55 0.9531,1.95312 2.118,3.11803 1.7099,1.70989 2.2851,1.85442 2.9847,0.75 0.4767,-0.75241 0.8877,-1.81803 0.9134,-2.36803 0.065,-1.3828 4.98392,-4.85179 4.98392,-3.51457 0,2.09216 -3.0849,8.52945 -4.6555,9.71467 -1.39192,1.05044 -1.27052,1.28037 0.9737,1.84363 1.7671,0.44352 2.7593,1.53271 3.1924,3.50457 0.3563,1.62211 1.4957,3.13631 2.6312,3.49671 1.2512,0.39712 1.7884,1.19451 1.4314,2.12479 -0.3143,0.81902 -0.3003,2.56931 0.031,3.88953 0.503,2.00407 0.9181,2.2315 2.514,1.37742 1.4885,-0.79664 2.053,-0.65416 2.5511,0.64392 0.3896,1.01529 0.012,2.01797 -0.965,2.56496 -1.1538,0.64566 -1.4944,1.94581 -1.2121,4.62621 0.2159,2.05049 0.4185,4.30649 0.4502,5.01334 0.069,1.54316 2.4408,0.43116 5.7658,-2.70344 2.6957,-2.54134 4.3047,-2.66683 4.2533,-0.33174 -0.021,0.9625 -1.445,2.65 -3.1639,3.75 -4.1077,2.62858 -5.6253,5.07228 -4.0983,6.59928 0.8724,0.87243 2.0397,0.60709 4.7801,-1.08655 1.9942,-1.23247 3.8827,-1.98394 4.1967,-1.66993 1.1028,1.10278 -0.6717,3.74753 -3.6524,5.44375 -3.4286,1.95104 -3.4626,2.05027 -1.5615,4.55938 1.3373,1.76508 1.5957,1.71033 5.8984,-1.25 2.4748,-1.70276 4.7562,-3.09593 5.0696,-3.09593 1.5941,0 0.1665,2.82874 -3.1331,6.20784 -3.8101,3.9018 -3.5161,5.03471 0.5647,2.17643 3.3146,-2.32167 5.2238,-0.26584 2.5646,2.76167 -1.759,2.00265 -1.7711,2.13649 -0.1385,1.54048 2.8248,-1.03129 3.53,2.35858 0.8594,4.13176 -2.0238,1.34379 -2.0745,1.60483 -0.6223,3.20948 0.9784,1.08113 1.6559,3.88482 1.7779,7.35782 l 0.1971,5.61111 4.2186,0.002 c 3.3395,10e-4 4.0987,-0.31091 3.643,-1.4983 -0.6271,-1.63434 2.1111,-2.16225 3.0804,-0.59388 0.8988,1.45428 4.7405,-0.0237 7.3372,-2.82278 1.594,-1.71819 2.2143,-2.008 1.8524,-0.86537 -0.6012,1.89787 0.8776,3.38526 1.8313,1.84202 0.3306,-0.53496 1.2617,-0.71915 2.0691,-0.40933 0.8074,0.30983 1.468,0.0164 1.468,-0.65208 0,-0.78297 0.8524,-1.00146 2.3957,-0.6141 1.6517,0.41455 2.5813,0.11797 2.993,-0.95498 0.3284,-0.85594 0.9832,-1.3177 1.455,-1.02612 0.4718,0.29158 2.8374,-2.20561 5.257,-5.54931 2.9875,-4.1285 4.506,-5.54669 4.7318,-4.41928 0.1828,0.9131 -0.8297,3.18379 -2.25,5.04597 -3.0275,3.96922 -3.377,6.06716 -0.8325,4.99763 0.9625,-0.40457 2.7523,-0.95322 3.9773,-1.21922 2.0732,-0.4502 9.2727,-9.82275 9.2727,-12.07165 0,-1.3828 2.8178,-2.29136 3.5304,-1.13833 0.327,0.52902 -1.0086,2.91821 -2.968,5.30932 -3.5113,4.28511 -4.4475,6.64149 -2.6387,6.64149 0.5081,0 3.1908,-0.52331 5.9618,-1.16292 4.8792,-1.12626 5.1525,-1.38076 8.6694,-8.07351 1.9973,-3.80082 3.7896,-6.75238 3.983,-6.55901 0.1934,0.19338 -0.088,2.13896 -0.6252,4.32351 -2.0716,8.42413 -2.0725,8.46583 -0.1776,7.80653 2.5175,-0.87593 4.2649,-3.34476 4.2649,-6.02573 0,-1.26988 0.4697,-2.30887 1.0438,-2.30887 0.5741,0 0.9327,-0.5625 0.7969,-1.25 -0.1359,-0.6875 0.5378,-2.72572 1.497,-4.52937 0.9592,-1.80365 1.4933,-3.68506 1.1869,-4.1809 -0.7351,-1.18926 1.1846,-2.33749 2.524,-1.50972 0.6763,0.41802 0.7081,1.06014 0.089,1.80902 -0.5274,0.63853 -1.2744,2.84847 -1.6598,4.91097 -0.3854,2.0625 -1.1007,3.75 -1.5895,3.75 -0.4888,0 -0.8887,0.81 -0.8887,1.8 0,0.99 -0.5252,2.32525 -1.1672,2.96722 -1.7197,1.71971 1.6898,2.77135 4.6347,1.42955 2.4812,-1.13053 6.5302,-10.17095 7.0105,-15.65293 0.2545,-2.90539 1.8373,-4.46065 2.8584,-2.80861 0.2858,0.46244 -0.7245,4.51024 -2.245,8.9951 l -2.7646,8.1543 3.0866,-0.59665 c 3.7496,-0.72481 4.2862,-1.49678 8.0866,-11.63285 1.65,-4.40074 3.5839,-8.19307 4.2975,-8.4274 1.7229,-0.56574 1.1065,2.94594 -1.5397,8.77227 -1.1241,2.475 -2.3389,5.48616 -2.6996,6.69147 l -0.6558,2.19147 5.5238,-1.94147 c 3.0381,-1.06781 6.1809,-1.94147 6.9841,-1.94147 0.8031,0 2.0298,-1.575 2.7259,-3.5 0.696,-1.925 1.5698,-3.5 1.9415,-3.5 0.8517,0 4.9223,-9.36827 4.9223,-11.32839 0,-1.81222 2.7293,-2.98358 3.2578,-1.39817 0.2129,0.6386 -0.658,2.70112 -1.9354,4.58337 -1.2773,1.88226 -2.3224,4.04059 -2.3224,4.79631 0,0.75571 -0.5625,2.28164 -1.25,3.39096 -2.0671,3.33546 0.7551,4.134 5.6327,1.59378 3.4896,-1.81731 4.3989,-2.98231 5.9645,-7.64105 1.016,-3.02324 2.0187,-7.1745 2.2282,-9.225 0.2096,-2.05051 1.2908,-4.63801 2.4028,-5.75 1.112,-1.112 2.0218,-2.56181 2.0218,-3.22181 0,-0.79334 0.3361,-0.86391 0.9917,-0.20826 1.078,1.07795 -0.8113,7.40826 -2.2109,7.40826 -0.4295,0 -0.7907,1.4625 -0.8028,3.25 -0.012,1.7875 -0.92,5.2295 -2.0177,7.6489 -1.0977,2.41939 -1.7965,4.5982 -1.5529,4.8418 0.6285,0.62854 7.5448,-1.97822 8.59,-3.2376 1.0438,-1.25767 6.0095,-14.16952 6.5392,-17.0031 0.2056,-1.1 0.6394,-3.6875 0.9639,-5.75 0.3689,-2.34432 1.1354,-3.75 2.0448,-3.75 0.8001,0 1.4542,0.1125 1.4535,0.25 -0.011,2.30831 -3.3468,15.55885 -4.9093,19.5 -1.1447,2.8875 -1.8673,5.25 -1.6057,5.25 2.4474,0 8.5624,-3.60066 9.075,-5.34349 0.3488,-1.18608 2.096,-5.30651 3.8825,-9.15651 3.1017,-6.68396 5.0388,-12.24692 4.7547,-13.65409 -0.2387,-1.18207 2.6933,-3.03237 3.7602,-2.37298 1.2013,0.74242 1.4222,3.52707 0.2799,3.52707 -0.4202,0 -1.8107,2.3625 -3.0901,5.25 -1.2793,2.8875 -3.1928,7.18948 -4.2522,9.55996 -2.482,5.55385 -1.5897,7.37937 2.7299,5.585 1.9777,-0.82159 3.9593,-2.8745 5.4016,-5.59627 1.2529,-2.36428 2.8375,-5.3447 3.5213,-6.62316 2.1782,-4.07234 2.6339,-0.45253 0.4993,3.96563 -1.1177,2.31328 -1.8862,4.35189 -1.7078,4.53024 0.1783,0.17835 2.1722,-0.46225 4.4308,-1.42356 3.5675,-1.5184 4.256,-2.33857 5.2446,-6.24784 0.6258,-2.475 1.5539,-5.28139 2.0622,-6.23643 0.5084,-0.95504 0.9243,-2.61598 0.9243,-3.69098 0,-1.07501 0.3897,-2.19537 0.8659,-2.48971 0.4762,-0.29433 0.6488,-1.67089 0.3834,-3.05901 -0.4885,-2.55552 0.2832,-3.10856 2.4313,-1.74245 0.8868,0.56397 0.7249,2.36427 -0.6504,7.23469 -1.0069,3.56614 -2.142,7.2535 -2.5223,8.19414 -0.5521,1.36587 -0.2429,1.62389 1.5357,1.28136 1.2248,-0.23589 2.3236,-0.5555 2.4416,-0.71025 1.0112,-1.32553 5.5148,-11.95827 5.5148,-13.02007 0,-2.32942 2.438,-6.74529 3.7286,-6.75349 0.9411,-0.006 0.9704,0.63563 0.1254,2.7422 -0.6066,1.5125 -1.4346,3.65 -1.8399,4.75 -0.4053,1.1 -1.4743,3.70277 -2.3755,5.78393 -2.0773,4.79706 -2.0586,5.3883 0.1114,3.51666 0.9625,-0.83016 3.1627,-2.11271 4.8893,-2.85011 2.6137,-1.11625 3.933,-3.06597 7.8798,-11.6456 2.6465,-5.75293 5.3457,-10.30488 6.1107,-10.30488 1.7991,0 1.7416,1.48571 -0.1298,3.35714 -0.825,0.825 -1.5019,1.86965 -1.5042,2.32143 0,0.45179 -1.1273,3.0352 -2.5,5.74091 -2.5836,5.09257 -3.2316,8.15333 -1.4996,7.08284 0.548,-0.33864 1.9439,-0.7982 3.1021,-1.02124 3.2081,-0.61783 4.6135,-2.17664 7.5137,-8.33349 1.4632,-3.10617 3.049,-6.42898 3.5241,-7.38402 0.4752,-0.95504 0.8639,-2.41754 0.8639,-3.25 0,-0.8469 0.8809,-1.51357 2,-1.51357 2.3284,0 2.7027,2.51639 0.5,3.36163 -0.825,0.31658 -1.5,1.33769 -1.5,2.26913 0,0.93144 -1.144,3.64556 -2.5422,6.03138 -1.3981,2.38582 -2.2899,4.33786 -1.9815,4.33786 0.3083,0 2.802,-1.17203 5.5415,-2.60451 3.9185,-2.04891 5.4028,-3.55788 6.958,-7.07364 1.0999,-2.48662 2.4344,-4.18638 3.0082,-3.83173 0.6587,0.40711 0.4866,1.18211 -0.4763,2.14507 -1.8247,1.82462 -1.9936,3.75798 -0.2577,2.94879 0.6875,-0.32048 1.9395,-0.83485 2.7823,-1.14304 0.8428,-0.30819 2.1537,-1.96403 2.9131,-3.67964 1.5457,-3.49197 4.0972,-6.7613 5.2768,-6.7613 1.607,0 0.6989,2.97187 -1.2222,4 -2.4774,1.32586 -2.6935,3.4937 -0.25,2.50809 0.9625,-0.38823 4,-0.83192 6.75,-0.98597 2.75,-0.15405 6.6875,-0.60963 8.75,-1.0124 2.523,-0.49269 3.75,-0.36869 3.75,0.37899 0,0.61121 -0.9296,1.11129 -2.0657,1.11129 -1.1362,0 -2.8757,0.43344 -3.8655,0.9632 -0.9899,0.52976 -4.519,1.15032 -7.8425,1.37903 -3.3236,0.2287 -7.0842,1.14526 -8.3571,2.0368 -2.549,1.78541 -0.8778,2.23111 2.1965,0.58579 1.3438,-0.71918 1.9343,-0.71337 1.9343,0.019 0,0.58413 1.0033,0.81718 2.25,0.52262 1.2375,-0.29239 3.6,-0.69283 5.25,-0.88988 1.65,-0.19704 4.125,-0.81355 5.5,-1.37002 2.987,-1.20887 4.5206,-0.57882 3.0129,1.23783 -1.4781,1.78105 -5.7575,2.439 -17.2751,2.65605 -6.4047,0.1207 -10.1201,0.61522 -10.8028,1.43786 -0.8169,0.98424 1.1212,1.40716 9.0122,1.9666 5.529,0.39199 10.0528,1.08255 10.0528,1.53458 0,0.45203 -5.2875,0.59061 -11.75,0.30797 -10.7753,-0.47126 -11.9574,-0.34458 -14.25,1.52708 l -2.5,2.04097 3.5,0.0927 c 6.3967,0.16943 13.4897,1.09319 14.2827,1.86012 0.4304,0.41633 -4.7446,0.6906 -11.5,0.6095 -10.0752,-0.12096 -12.802,0.16503 -15.1721,1.59125 l -2.8895,1.73872 3.8895,0.99965 c 2.1392,0.54981 6.4691,1.51432 9.622,2.14337 3.1529,0.62904 6.0014,1.57878 6.33,2.11052 0.6485,1.04916 -0.2919,0.92884 -13.6703,-1.74925 -8.6377,-1.7291 -14.7569,-1.25818 -15.5759,1.19867 -0.1872,0.56148 2.2038,2.26858 5.3131,3.79357 3.5943,1.76278 5.3054,3.12079 4.6978,3.72839 -0.6076,0.60761 -2.9356,-0.13558 -6.3915,-2.0404 -6.6398,-3.65974 -8.4409,-3.73265 -13.1506,-0.53234 -2.0235,1.375 -4.2655,2.50412 -4.9821,2.50916 -0.7167,0.005 1.7344,1.42545 5.4469,3.15648 3.7125,1.73102 6.75,3.52033 6.75,3.97625 0,0.77914 -8.022,-2.01295 -12.1857,-4.24126 -1.4307,-0.76572 -3.0961,-0.44966 -6.813,1.29296 -2.7056,1.26853 -4.9378,2.58123 -4.9603,2.91712 -0.023,0.33589 2.2116,0.8775 4.9648,1.20358 8.3815,0.99266 9.7117,2.85766 1.4942,2.095 -3.85,-0.35731 -7.6005,-0.97224 -8.3345,-1.36651 -1.3729,-0.7375 -12.1178,2.92094 -12.1484,4.13632 -0.01,0.37351 2.5704,1.20978 5.7329,1.85838 5.9275,1.21567 10.2767,2.9361 7.25,2.86791 -3.7672,-0.0849 -13.2007,-2.61206 -13.8853,-3.71979 -0.5923,-0.95833 -1.5762,-0.89071 -4.4378,0.30495 -2.0223,0.84496 -3.6769,1.98025 -3.6769,2.52287 0,0.54262 -1.039,0.98658 -2.3089,0.98658 -1.2698,0 -3.1329,0.60258 -4.1401,1.33906 -1.6631,1.21611 -1.3364,1.50043 3.5589,3.09665 5.7709,1.88177 9.0792,3.48433 7.2953,3.53388 -0.6021,0.0167 -3.742,-0.84293 -6.9776,-1.91035 -3.8831,-1.28104 -6.1009,-1.58777 -6.5246,-0.90236 -0.4143,0.67047 -1.1251,0.52098 -2.0058,-0.4219 -1.017,-1.0886 -1.8775,-1.20098 -3.3807,-0.44151 -4.7692,2.40951 -5.5926,2.70653 -7.5029,2.70653 -1.1075,0 -2.0136,0.49814 -2.0136,1.10699 0,0.60884 -0.6033,0.87548 -1.3407,0.59252 -0.7374,-0.28296 -1.9162,-0.15877 -2.6196,0.27597 -0.8738,0.54003 -0.2115,1.15393 2.0907,1.93781 3.4716,1.18211 7.5316,5.55953 6.0218,6.49265 -0.4679,0.28919 -1.404,-0.50783 -2.0801,-1.77116 -1.7047,-3.1853 -10.5818,-5.55368 -12.7372,-3.39825 -1.2948,1.29478 -1.1034,1.78049 1.597,4.05272 3.0463,2.56326 3.9879,4.71075 2.0655,4.71075 -0.5514,0 -2.5983,-1.76624 -4.5486,-3.92497 -2.6366,-2.91841 -4.1405,-3.81716 -5.8643,-3.50457 -3.2923,0.597 -9.5845,3.32483 -9.5845,4.15511 0,0.3843 1.8937,2.62826 4.2082,4.98658 4.7723,4.86256 3.9602,5.86131 -1.0471,1.28785 -1.8065,-1.65 -3.7209,-3 -4.2542,-3 -0.5333,0 -1.2069,-0.61812 -1.4968,-1.3736 -0.444,-1.15705 -1.4638,-1.13765 -6.4686,0.12306 -3.2678,0.82317 -5.9415,1.82295 -5.9415,2.22173 0,0.39879 1.8563,1.56214 4.1251,2.58523 2.2688,1.02309 3.6544,2.01706 3.0792,2.20883 -0.5753,0.19176 -3.2191,-0.7105 -5.8752,-2.00503 -4.2091,-2.05148 -5.439,-2.22987 -9.5791,-1.38935 -2.6125,0.53038 -4.75,1.30217 -4.75,1.71509 0,0.41291 2.7,1.7977 6,3.07731 3.3,1.2796 6,2.71448 6,3.18863 0,0.47414 -0.5625,0.64872 -1.25,0.38795 -0.6875,-0.26078 -4.5125,-1.5225 -8.5,-2.80383 -3.9875,-1.28133 -7.25,-2.6677 -7.25,-3.08083 0,-0.41313 -1.3797,-0.2702 -3.0659,0.31763 l -3.0659,1.06879 2.9568,1.79814 c 3.3837,2.05776 4.5784,3.59292 3.3749,4.33672 -0.458,0.28307 -2.8279,-0.80845 -5.2663,-2.4256 -3.5934,-2.38306 -5.0969,-2.82164 -7.9336,-2.31424 -1.925,0.34433 -3.95,0.8935 -4.5,1.22038 -0.55,0.32689 -2.9574,0.726 -5.3499,0.88693 -2.3924,0.16092 -5.1753,0.73436 -6.1842,1.27432 -1.0089,0.53996 -3.0311,0.98174 -4.4938,0.98174 -1.8076,0 -2.8248,0.63289 -3.1761,1.97611 -0.4279,1.63617 -0.8618,1.79144 -2.5227,0.90259 -1.4325,-0.76668 -3.1873,-0.7606 -6.1396,0.0213 -4.8186,1.27623 -15.6562,2.99238 -17.7142,2.80508 -0.7807,-0.0711 -4.457,0.24366 -8.1695,0.69936 -9.4265,1.1571 -9.1883,3.11445 1,8.21539 4.2625,2.13409 7.9934,4.20449 8.2909,4.60089 0.2975,0.39639 5.7701,3.18723 12.1613,6.20186 6.3911,3.01463 11.9118,5.95281 12.2681,6.52929 0.9589,1.55153 2.5297,1.27095 2.5297,-0.45187 0,-0.83333 0.8889,-1.5 2,-1.5 1.1111,0 2,0.66667 2,1.5 0,0.825 -0.45,1.5 -1,1.5 -0.55,0 -1,0.43886 -1,0.97525 0,0.62348 0.9639,0.60876 2.6724,-0.0408 1.4699,-0.55884 3.3824,-0.72763 4.25,-0.37509 1.2588,0.51144 1.0829,0.8311 -0.8703,1.5818 l -2.448,0.94084 2.8791,1.49368 c 2.2058,1.14439 3.5732,1.25173 5.8472,0.45901 1.6324,-0.56908 4.981,-1.03468 7.4413,-1.03468 3.8923,0 4.3091,0.19773 3.2096,1.52258 -0.6984,0.84146 -2.0575,1.27061 -3.0383,0.95932 -0.9761,-0.30979 -2.052,-0.1146 -2.3909,0.43375 -0.3389,0.54835 -1.3892,0.72543 -2.3341,0.3935 -2.68,-0.94143 -0.292,1.18445 4.0015,3.56238 2.961,1.63997 3.8786,1.79148 4.5,0.74306 0.4293,-0.72432 3.593,-2.21855 7.0305,-3.32051 4.9384,-1.5831 6.25,-1.71926 6.25,-0.64882 0,0.74511 -0.6178,1.35474 -1.3729,1.35474 -2.3706,0 -10.6999,4.07315 -10.1497,4.96337 0.2885,0.46688 1.4241,0.61363 2.5236,0.32612 1.1173,-0.29218 1.999,-0.0302 1.999,0.59388 0,0.61415 0.81,1.11663 1.8,1.11663 0.99,0 2.3703,0.5625 3.0673,1.25 1.0147,1.00085 1.5038,0.95102 2.4536,-0.25 1.8282,-2.31155 8.1791,-3.47628 8.1791,-1.5 0,0.55 -0.8858,0.9537 -1.9685,0.89712 -1.0827,-0.0566 -2.5252,0.45368 -3.2054,1.13393 -0.9824,0.98241 -0.6032,1.36353 1.8435,1.85288 4.4859,0.89718 9.3343,0.7552 12.2653,-0.35918 1.5487,-0.58883 2.5651,-0.60678 2.5651,-0.0453 0,0.51146 -1.575,1.22541 -3.5,1.58654 -1.925,0.36113 -3.5,1.23338 -3.5,1.93832 0,1.41777 2.7208,2.78631 3.9855,2.00469 0.4427,-0.27363 1.0416,0.11929 1.3309,0.87315 0.5971,1.55594 5.6836,1.01259 5.6836,-0.60713 0,-0.5455 1.0125,-0.74851 2.25,-0.45113 1.2375,0.29739 4.05,-0.0971 6.25,-0.87653 4.5981,-1.62914 5.5,-1.74243 5.5,-0.69083 0,0.7227 -6.9318,3.24348 -8.9192,3.24348 -0.5228,0 -2.2174,0.48494 -3.7657,1.07765 l -2.8151,1.07765 3.5,1.48307 c 6.7069,2.84195 12.8475,3.68976 15.287,2.11061 1.2171,-0.78793 3.563,-1.75016 5.213,-2.13828 1.65,-0.38812 3.7875,-0.93963 4.75,-1.22558 3.7517,-1.11458 1.5031,1.43747 -2.6712,3.03165 -2.4317,0.92866 -4.9556,2.33234 -5.6087,3.11928 -0.9668,1.16485 -0.6561,1.63729 1.6712,2.54166 6.2158,2.4154 16.4767,2.89916 18.8965,0.89089 0.756,-0.62743 1.8946,-0.81939 2.5302,-0.42657 0.6356,0.39281 1.5389,0.094 2.0073,-0.66391 0.778,-1.25883 6.935,-2.04048 6.9169,-0.87812 -0.016,0.99905 -5.5953,3.09443 -9.8151,3.68591 -4.5154,0.6329 -3.9716,2.26907 0.764,2.29878 2.3616,0.0148 2.3779,0.0632 0.5,1.48351 -1.8768,1.41959 -1.8583,1.47291 0.5589,1.61069 5.1986,0.29631 7.6751,-0.3735 13.5961,-3.67734 6.5093,-3.63211 7.4039,-3.93064 7.4039,-2.47072 0,0.51195 -3.0375,2.44298 -6.75,4.29117 l -6.75,3.36035 3,1.45882 c 4.4564,2.16706 11.2618,0.99536 13.9739,-2.40592 1.8852,-2.36431 3.5261,-2.65032 3.5261,-0.61461 0,2.14591 -5.2033,5.98608 -8.2023,6.05352 l -3.2977,0.0742 4,1.85167 c 4.9062,2.27117 8.4108,2.45124 11.0964,0.57015 2.4408,-1.7096 15.018,-3.37328 14.0846,-1.86309 -0.3396,0.54955 -3.1059,1.7819 -6.1474,2.73855 -3.0414,0.95665 -5.7561,2.10533 -6.0325,2.55262 -0.6805,1.10102 8.0677,4.01054 9.145,3.04151 0.4696,-0.42243 3.8914,-2.41204 7.6039,-4.42135 4.7439,-2.56756 6.75,-3.23459 6.75,-2.24443 0,0.77489 -1.6875,2.12065 -3.75,2.99058 -2.0625,0.86994 -4.6478,2.28657 -5.7451,3.14807 -1.7127,1.34463 -1.7835,1.70016 -0.5,2.51156 0.8223,0.51986 2.256,0.9521 3.1861,0.96052 0.93,0.008 1.9691,0.46531 2.309,1.01531 1.0479,1.69548 3.9709,1.1248 10.1091,-1.97363 6.6354,-3.34943 12.047,-4.89695 10.957,-3.1333 -0.3763,0.60881 -1.3326,1.10693 -2.1251,1.10693 -0.7926,0 -1.441,0.34015 -1.441,0.75589 0,0.67391 -2.0212,1.6662 -8.4795,4.16288 -1.9083,0.73772 -1.8962,0.8098 0.3358,2.00434 2.9266,1.56626 13.1437,2.67754 13.1437,1.4296 0,-0.50991 0.9118,-0.99578 2.0262,-1.07973 1.1144,-0.084 3.4335,-0.85471 5.1536,-1.7128 1.7201,-0.8581 3.9905,-1.56018 5.0453,-1.56018 1.7047,0 1.7511,0.16667 0.4178,1.5 -0.825,0.825 -2.2072,1.5 -3.0715,1.5 -0.8643,0 -1.5714,0.50248 -1.5714,1.11663 0,0.61545 -0.8768,0.88734 -1.9535,0.60577 -1.0745,-0.28097 -2.7364,0.0616 -3.6932,0.76119 -1.5312,1.11966 -1.1591,1.39587 3.1065,2.30562 4.6258,0.98659 5.0645,0.88333 9.6514,-2.27192 5.1547,-3.54583 16.8888,-8.01119 16.8888,-6.42697 0,1.00082 -4.4063,3.17408 -7,3.45253 -0.825,0.0886 -2.01,0.22766 -2.6334,0.30909 -0.6233,0.0814 -1.3596,1.01323 -1.6361,2.07065 -0.3128,1.19624 -1.5556,2.04629 -3.2895,2.25 -1.5327,0.18008 -2.9536,0.83621 -3.1574,1.45807 -0.3661,1.1166 4.1136,2.87297 6.391,2.50572 0.646,-0.10418 1.46,0.27242 1.8089,0.8369 0.38,0.6148 2.1143,-0.13585 4.3254,-1.87211 2.0301,-1.59414 4.5911,-3.12722 5.6911,-3.40686 6.4553,-1.64101 7.3034,-1.64915 7.9071,-0.0758 0.4562,1.18897 0.1883,1.44025 -1.0352,0.97077 -1.814,-0.69611 -7.3719,1.38614 -7.3719,2.76187 0,0.47458 -0.675,0.60386 -1.5,0.28727 -0.8807,-0.33797 -1.5,-0.0135 -1.5,0.78603 0,1.66206 2.4587,2.72053 4.5,1.93723 0.825,-0.31659 1.5,-0.0775 1.5,0.53138 0,2.06804 2.0452,1.1184 3,-1.39301 0.5819,-1.53056 1.7356,-2.5 2.9752,-2.5 1.1137,0 2.0248,-0.3825 2.0248,-0.85 0,-1.19893 5.946,-0.86595 6.25,0.35 0.1375,0.55 -0.7996,1.14866 -2.0824,1.33035 -2.7386,0.38788 -6.2884,3.16522 -5.5574,4.34803 0.2793,0.45189 2.7154,0.82162 5.4136,0.82162 3.9877,0 5.1199,0.40007 6.0499,2.13769 1.1127,2.07908 1.0032,2.12415 -3.9948,1.64392 -2.8263,-0.27158 -5.3429,-0.16349 -5.5924,0.2402 -0.2495,0.40369 1.339,2.77048 3.5299,5.25954 4.5967,5.22202 4.7968,5.83021 1.7667,5.36778 -1.2802,-0.19537 -3.0105,-1.77719 -4.0952,-3.74373 -2.657,-4.81722 -5.7316,-7.9054 -7.8707,-7.9054 -1.6074,0 -1.6785,0.27669 -0.5757,2.23782 0.6922,1.2308 2.046,2.83132 3.0085,3.55671 0.9625,0.72538 1.75,2.32836 1.75,3.56217 0,1.23382 0.5008,2.74409 1.1129,3.35617 0.612,0.61207 0.8105,1.60207 0.441,2.2 -1.0916,1.7662 -2.5539,1.24351 -2.5539,-0.91287 0,-1.1 -0.366,-2 -0.8134,-2 -0.4473,0 -1.4313,-1.575 -2.1866,-3.5 -0.7553,-1.925 -1.7393,-3.5 -2.1866,-3.5 -0.4474,0 -0.8134,-0.675 -0.8134,-1.5 0,-0.825 -0.45,-1.5 -1,-1.5 -0.55,0 -1,-0.59771 -1,-1.32825 0,-1.19651 -9.7463,-4.25882 -10.6567,-3.34838 -0.1965,0.1965 0.9959,2.22523 2.6497,4.50829 3.3015,4.5576 3.727,6.16834 1.6294,6.16834 -1.9754,0 -3.9477,-2.71002 -3.2657,-4.48727 0.3193,-0.832 0.2545,-1.51273 -0.144,-1.51273 -0.3985,0 -1.322,-1.35 -2.0524,-3 -0.7878,-1.77974 -2.0833,-3 -3.1851,-3 -1.0214,0 -2.1488,-0.47185 -2.5052,-1.04856 -0.4391,-0.71039 -1.1277,-0.6505 -2.1352,0.1857 -0.9838,0.81648 -1.7153,0.88785 -2.161,0.21084 -1.0613,-1.61204 -5.4381,-2.37352 -6.8599,-1.19351 -0.9518,0.78993 -1.4525,0.64781 -1.9091,-0.54185 -0.3403,-0.88694 -1.2456,-1.61262 -2.0118,-1.61262 -0.7661,0 -1.393,-0.4822 -1.393,-1.07157 0,-0.58936 -1.0125,-0.94074 -2.25,-0.78085 -1.2375,0.15989 -2.8125,-0.0595 -3.5,-0.48745 -3.6233,-2.25561 -2.8924,3.22751 1.0938,8.20604 1.3149,1.64218 3.7229,8.40044 3.1849,8.93848 -0.2097,0.20967 -1.0463,-0.89811 -1.8593,-2.46172 -8.2006,-15.77355 -8.2034,-15.77731 -13.0244,-17.57526 -3.9918,-1.48874 -4.645,-1.52389 -4.645,-0.25 0,0.81528 0.45,1.48233 1,1.48233 0.55,0 1,0.9 1,2 0,1.1 0.45,2 1,2 0.55,0 1.0143,1.0125 1.0318,2.25 0.017,1.2375 0.6849,3.11308 1.4831,4.16796 1.07,1.41415 1.1632,2.26496 0.3548,3.23898 -1.4976,1.8045 -2.8697,0.73847 -2.8697,-2.22953 0,-1.35 -0.3918,-3.23594 -0.8706,-4.19098 -0.4789,-0.95504 -1.9362,-4.04642 -3.2385,-6.86973 -2.2079,-4.7865 -2.6997,-5.20989 -7.2791,-6.26695 -2.7012,-0.62351 -5.069,-0.97586 -5.2619,-0.783 -0.1928,0.19285 1.4495,2.92046 3.6497,6.06135 2.2002,3.14089 4.0004,6.14073 4.0004,6.66631 0,1.59354 -1.4639,1.07164 -2.5129,-0.8959 -0.5429,-1.01832 -3.0121,-4.60634 -5.4871,-7.9734 -4.6276,-6.29554 -7.7014,-8.10599 -6.65,-3.9168 0.6815,2.71541 -0.7065,5.59193 -1.825,3.78214 -0.3987,-0.64519 -0.725,-2.71823 -0.725,-4.60676 0,-2.13113 -0.4877,-3.43369 -1.2857,-3.43369 -0.7071,0 -2.5541,-0.65805 -4.1043,-1.46233 -1.5503,-0.80428 -2.932,-1.34898 -3.0706,-1.21043 -0.1385,0.13854 0.4512,3.38409 1.3105,7.21233 2.4363,10.85394 2.6454,12.46043 1.6219,12.46043 -1.3004,0 -3.0489,-6.23572 -3.7853,-13.5 -0.5966,-5.88498 -2.1895,-8.5 -5.1776,-8.5 -0.7199,0 -1.3089,-0.45 -1.3089,-1 0,-0.55 -0.4978,-1 -1.1062,-1 -0.779,0 -0.8955,2.66152 -0.3938,9 0.5922,7.48219 0.4704,9 -0.7223,9 -1.0827,0 -1.3686,-1.16542 -1.1654,-4.75 0.3355,-5.91635 -1.5626,-15.34714 -3.023,-15.01941 -0.5991,0.13445 -3.2541,-0.58509 -5.9001,-1.59898 -2.6459,-1.01389 -5.0237,-1.63048 -5.2839,-1.37021 -0.4928,0.49273 0.9945,7.98074 2.2481,11.31853 0.638,1.69888 0.5267,1.76196 -0.9662,0.54763 -0.9279,-0.75485 -1.6897,-2.32985 -1.6928,-3.5 -0.01,-2.71844 -1.7002,-8.6823 -3.017,-10.62756 -0.8796,-1.29934 -1.2135,-1.24033 -2.4964,0.44113 -0.8146,1.06762 -1.481,2.98012 -1.481,4.25 0,1.26988 -0.3407,2.30887 -0.7572,2.30887 -0.4165,0 -0.5988,-1.99206 -0.4051,-4.4268 0.3481,-4.37777 0.3095,-4.43863 -3.4928,-5.49442 -7.2684,-2.01824 -7.4275,-1.73523 -4.433,7.88611 1.1208,3.60109 1.4678,5.995 0.8385,5.78524 -0.5904,-0.1968 -1.9086,-3.89686 -2.9292,-8.22235 -2.1828,-9.25051 -2.8684,-10.2584 -7.5786,-11.14206 -1.9561,-0.36696 -4.7028,-1.26191 -6.1039,-1.98879 -1.4011,-0.72687 -2.6844,-1.18458 -2.8518,-1.01711 -0.1675,0.16746 0.5994,3.13413 1.7043,6.5926 2.4048,7.52762 2.4469,8.13293 0.5145,7.39141 -0.8218,-0.31537 -1.3051,-0.87939 -1.074,-1.25337 0.9297,-1.50423 -4.1316,-14.61731 -5.764,-14.93378 -0.9873,-0.19141 -1.6677,0.31858 -1.6677,1.25 0,0.86532 0.4766,1.57332 1.059,1.57332 0.5825,0 0.8018,0.41628 0.4873,0.92506 -0.3144,0.50879 -0.1526,1.97129 0.3596,3.25 1.761,4.39592 2.3953,6.32933 2.7312,8.32494 0.3319,1.97186 0.3157,1.97269 -1.1502,0.0589 -0.8178,-1.06762 -1.4869,-2.71762 -1.4869,-3.66667 0,-0.94904 -0.436,-1.87553 -0.9689,-2.05887 -0.5329,-0.18333 -1.2436,-2.13333 -1.5794,-4.33333 -0.6684,-4.37887 -2.8843,-8.5 -4.5704,-8.5 -0.5899,0 -2.3795,-0.93064 -3.9769,-2.06809 l -2.9044,-2.0681 0,2.03315 c 0,1.11823 0.7073,4.11654 1.5718,6.66291 0.8646,2.54637 1.3314,4.87025 1.0375,5.16418 -0.6534,0.65343 -1.9333,-2.39985 -4.1718,-9.95263 -0.9338,-3.15072 -2.1089,-5.47448 -2.6115,-5.16391 -0.5025,0.31057 -1.4715,0.10167 -2.1533,-0.46422 -2.6891,-2.2317 -3.3177,0.22893 -2.135,8.35671 0.6403,4.4 1.0362,8.15756 0.8798,8.35014 -1.0144,1.24887 -2.3779,-1.68526 -2.9644,-6.37912 -0.3778,-3.0236 -1.0843,-5.74306 -1.57,-6.04325 -0.4857,-0.30019 -0.8831,-1.80811 -0.8831,-3.35093 0,-2.38231 -0.6456,-3.05169 -4.2834,-4.44098 -5.2847,-2.01825 -5.7166,-2.02405 -5.7166,-0.0768 0,0.85746 0.45,1.2809 1,0.94098 0.5691,-0.35169 1,0.50617 1,1.99064 0,1.43478 0.7082,3.97815 1.5737,5.65195 0.8656,1.6738 1.2848,3.33223 0.9316,3.6854 -0.9441,0.94418 -4.2297,-3.7898 -5.0636,-7.29574 -0.3966,-1.66774 -0.7879,-3.25725 -0.8696,-3.53225 -0.082,-0.275 -0.4998,-1.82653 -0.929,-3.44785 -0.6064,-2.29038 -0.9848,-2.62493 -1.6965,-1.5 -0.8942,1.41339 -1.0653,1.24657 -1.3216,-1.28845 -0.1768,-1.74899 -3.625,-2.22811 -3.625,-0.50369 0,0.77366 0.3092,1.71582 0.687,2.09369 0.3779,0.37788 0.7557,1.46538 0.8396,2.41667 0.084,0.9513 0.4971,3.24545 0.9184,5.09812 0.5854,2.57441 0.4578,3.26577 -0.5413,2.93273 -1.3249,-0.44164 -3.8491,-8.52281 -3.8844,-12.43621 -0.019,-2.11128 -4.3024,-5.78304 -6.0404,-5.17802 -0.4946,0.17216 0.4328,2.44918 2.0609,5.06006 3.1314,5.02156 3.4127,5.75376 2.2102,5.75162 -0.4125,-7.4e-4 -2.2967,-2.8701 -4.1872,-6.37636 -3.1521,-5.84628 -6.5442,-9.47426 -7.7401,-8.27836 -0.2654,0.26539 0.2924,1.66513 1.2394,3.11054 0.9471,1.44541 1.8418,3.62196 1.9883,4.83677 0.1465,1.21481 0.5807,2.99624 0.965,3.95874 0.3946,0.98862 0.2488,1.75 -0.3352,1.75 -1.175,0 -4.1802,-5.56853 -4.1802,-7.74591 0,-0.79125 -0.8749,-2.55083 -1.9441,-3.91018 -1.0693,-1.35936 -1.6942,-3.12294 -1.3887,-3.91907 0.3897,-1.01543 0.074,-1.26295 -1.0559,-0.82919 -0.8862,0.34008 -1.6113,0.12018 -1.6113,-0.48866 0,-0.60885 -0.4913,-1.10699 -1.0919,-1.10699 -1.3002,0 -0.8713,10.16333 0.47,11.1382 0.483,0.351 0.5689,1.1385 0.191,1.75 -1.4677,2.37477 -2.4503,0.88033 -3.0497,-4.6382 -0.9381,-8.63617 -1.4165,-10.25 -3.0385,-10.25 -0.8145,0 -1.4809,-0.37777 -1.4809,-0.83948 0,-1.11515 -4.9248,-3.32504 -5.9702,-2.67897 -0.4511,0.27883 -1.0783,-0.16545 -1.3936,-0.98729 -0.3154,-0.82184 -1.461,-1.49426 -2.5458,-1.49426 -1.0848,0 -2.255,-0.45734 -2.6005,-1.01631 -0.3454,-0.55897 -1.047,-0.75742 -1.559,-0.44098 -0.512,0.31643 -0.9309,-0.12623 -0.9309,-0.98369 0,-0.89235 -0.8552,-1.55902 -2,-1.55902 -1.1,0 -2.3375,-0.1125 -2.75,-0.25 -0.4125,-0.1375 -0.8013,3.42173 -0.8641,7.90941 l -0.1141,8.1594 3.8448,1.73375 c 3.526,1.59001 4.3512,1.61003 9.9533,0.24143 6.9059,-1.68709 8.1922,-0.85935 6.032,3.8817 -0.8706,1.91078 -0.8755,2.89218 -0.02,3.9235 2.0572,2.47871 0.2799,4.40081 -4.0693,4.40081 -4.4701,0 -18.963,-3.58676 -20.463,-5.06427 -2.1374,-2.10532 -2.3892,-0.7102 -0.4839,2.68193 1.1175,1.98972 1.7876,3.86196 1.489,4.16054 -1.0593,1.05936 -4.5074,-3.08655 -6.155,-7.40066 -2.319,-6.07212 -3.8349,-5.63247 -3.0083,0.87246 2.1389,16.8328 2.245,17.19342 8.7529,29.75 12.6441,24.39604 19.12,36.5065 19.7854,37 0.3707,0.275 1.5007,2.3 2.511,4.5 1.0103,2.2 3.8729,7.375 6.3613,11.5 6.1007,10.11283 15.1976,25.8929 15.1976,26.36274 0,0.76439 13.3029,22.34942 18.2656,29.63726 2.8089,4.125 6.2607,9.28113 7.6707,11.45808 1.41,2.17694 5.8262,8.9063 9.8137,14.95414 6.7794,10.28234 8.6249,14.58778 6.2529,14.58778 -1.4897,0 -9.0029,-7.04607 -9.0029,-8.44314 0,-0.66572 -2.0749,-3.42586 -4.6109,-6.13363 -5.3205,-5.68094 -14.5139,-19.235 -25.9106,-38.20035 -4.3882,-7.30242 -10.6285,-17.65242 -13.8675,-23 -5.3604,-8.85017 -9.7284,-16.60354 -20.6886,-36.72288 -2.0973,-3.85 -4.4445,-8.125 -5.2161,-9.5 -0.7715,-1.375 -3.564,-6.55 -6.2055,-11.5 -2.6415,-4.95 -5.5746,-10.125 -6.5181,-11.5 -0.9434,-1.375 -2.9735,-5.0875 -4.5113,-8.25 -1.8963,-3.89983 -3.3873,-5.75 -4.6337,-5.75 -1.0107,0 -1.8377,0.45 -1.8377,1 0,0.55 0.45,1 1,1 0.55,0 1,0.64571 1,1.4349 0,0.7892 0.5248,2.7017 1.1662,4.25 1.432,3.45677 1.3389,3.17284 2.2345,6.8151 0.4058,1.65 1.237,4.125 1.8471,5.5 0.6102,1.375 1.167,2.725 1.2373,3 0.07,0.275 0.4928,2.075 0.939,4 0.4461,1.925 1.083,3.95 1.4154,4.5 0.3323,0.55 0.7033,1.65576 0.8243,2.45724 0.2193,1.45212 1.0697,3.47298 4.1915,9.96089 0.9046,1.87997 1.7291,4.45276 1.8323,5.71732 0.1031,1.26455 0.8255,3.7764 1.6052,5.58187 0.7797,1.80547 2.1286,5.53268 2.9976,8.28268 3.7341,11.81678 13.2829,37.25768 14.6085,38.92117 0.4728,0.59336 1.6016,3.66633 2.5083,6.82883 0.9068,3.1625 2.0775,5.75 2.6017,5.75 0.5241,0 1.2476,1.17364 1.6076,2.60809 0.36,1.43446 2.8436,4.86731 5.519,7.62856 2.6755,2.76125 4.8645,5.24557 4.8645,5.5207 0,1.01273 7.4804,8.73434 8.2274,8.49265 0.4249,-0.1375 0.7726,0.65 0.7726,1.75 0,1.1 0.5625,2.00173 1.25,2.00385 0.6875,0.002 2.968,2.13962 5.0678,4.75 2.0998,2.61038 8.901,9.92115 15.1139,16.24615 6.2129,6.325 11.4698,12.03008 11.6822,12.67796 0.2124,0.64788 2.9355,3.86758 6.0515,7.15489 5.2434,5.53174 6.9648,6.82029 13.8346,10.35605 1.375,0.70769 2.95,1.8154 3.5,2.46157 0.55,0.64618 12.2482,5.77209 25.996,11.39091 13.7478,5.61882 25.5403,10.9931 26.2055,11.94283 0.7885,1.12579 3.1229,1.92428 6.707,2.29419 6.4573,0.66645 11.0915,2.64484 11.0915,4.73507 0,2.35621 -5.1266,2.38863 -8.4064,0.0531 -1.5963,-1.13664 -4.0816,-2.06662 -5.5229,-2.06662 -1.4414,0 -5.6469,-1.49968 -9.3457,-3.33262 -9.7065,-4.81012 -17.9636,-7.94695 -19.0886,-7.25169 -0.5363,0.33148 -1.6543,-0.0764 -2.4844,-0.9065 -0.83,-0.83005 -2.3862,-1.50919 -3.4581,-1.50919 -1.072,0 -2.5092,-0.675 -3.1939,-1.5 -0.6847,-0.825 -1.8681,-1.5 -2.6298,-1.5 -0.7617,0 -3.5191,-1.08475 -6.1275,-2.41055 -7.6647,-3.89657 -11.9122,-5.58981 -14.0204,-5.58981 -1.087,0 -2.5366,-0.675 -3.2213,-1.5 -0.6847,-0.825 -1.8346,-1.5 -2.5554,-1.5 -0.7208,0 -7.1783,-6.51166 -14.35,-14.47035 -7.1717,-7.9587 -15.7799,-17.2962 -19.1294,-20.75 -3.3494,-3.45381 -7.5086,-7.96715 -9.2426,-10.02965 -1.734,-2.0625 -3.731,-3.75 -4.4377,-3.75 -0.7067,0 -1.2904,-0.5625 -1.2971,-1.25 -0.01,-0.6875 -3.0443,-4.31219 -6.75,-8.05487 -3.7058,-3.74267 -8.5378,-8.99769 -10.7378,-11.67781 -2.2,-2.68013 -4.4523,-4.90544 -5.0051,-4.94514 -0.5528,-0.0397 -2.0812,-2.88468 -3.3965,-6.32218 -1.3152,-3.4375 -3.1752,-8.05 -4.1334,-10.25 -3.1703,-7.27986 -7.0329,-18.76545 -6.4924,-19.30592 0.2925,-0.29248 -0.214,-1.3558 -1.1254,-2.36293 -0.9114,-1.00713 -1.3073,-1.83115 -0.8797,-1.83115 0.4275,0 0.2335,-0.65529 -0.4311,-1.4562 -0.6647,-0.8009 -0.9163,-1.92908 -0.5591,-2.50706 0.3572,-0.57798 -0.054,-1.32083 -0.9139,-1.65079 -0.8599,-0.32996 -1.5634,-1.36178 -1.5634,-2.29294 0,-0.93115 -0.4736,-2.16663 -1.0525,-2.7455 -0.5789,-0.57887 -1.2229,-2.35637 -1.4311,-3.95 -0.2082,-1.59363 -0.4659,-3.01001 -0.5725,-3.14751 -0.1066,-0.1375 -0.257,-0.5875 -0.3342,-1 -0.077,-0.4125 -0.418,-1.2 -0.7574,-1.75 -0.3394,-0.55 -0.947,-2.575 -1.3502,-4.5 -0.4032,-1.925 -1.1952,-4.07337 -1.7601,-4.77417 -0.5648,-0.70079 -0.7593,-1.54186 -0.4321,-1.86904 0.3272,-0.32719 -0.059,-1.24846 -0.8575,-2.04727 -0.7988,-0.79881 -1.4524,-2.69523 -1.4524,-4.21428 0,-1.51905 -0.317,-3.07892 -0.7045,-3.46639 -0.3874,-0.38746 -0.8664,-1.91374 -1.0643,-3.39174 -0.198,-1.47799 -0.7307,-3.14848 -1.1839,-3.71219 -0.4531,-0.5637 -1.7376,-4.17492 -2.8543,-8.02492 -2.7218,-9.38389 -6.13892,-18.71116 -7.42752,-20.27417 -0.5778,-0.70079 -0.8142,-1.51047 -0.5254,-1.79929 0.7679,-0.76787 -0.9813,-7.86134 -3.1361,-12.71795 -2.49,-5.61226 -3.7019,-9.22566 -5.0768,-15.13782 -0.6304,-2.71108 -2.0195,-6.15554 -3.0867,-7.65437 -1.0673,-1.49883 -1.9405,-3.03307 -1.9405,-3.40942 0,-0.37635 -2.0243,-2.99839 -4.4985,-5.82676 -2.4742,-2.82836 -5.3525,-6.95097 -6.3962,-9.16135 -1.0438,-2.21038 -3.2666,-5.02422 -4.9395,-6.25297 -2.1535,-1.58164 -3.2873,-3.47551 -3.8824,-6.48473 -0.5654,-2.85886 -1.5657,-4.61212 -3.0551,-5.35468 -1.218,-0.60723 -3.1774,-1.9641 -4.3543,-3.01527 -2.132,-1.90427 -2.137,-1.9022 -1.3665,0.56887 0.4253,1.36405 1.5301,8.46565 2.4552,15.78134 1.4668,11.60133 1.9682,13.50187 3.923,14.87106 2.0674,1.44809 2.1175,1.70649 0.6458,3.33268 -1.3918,1.53799 -1.446,2.7051 -0.4246,9.14885 0.6439,4.06229 2.0083,8.7891 3.032,10.50401 2.2573,3.78176 2.5117,6.82625 0.3293,3.94084 -1.4534,-1.92151 -1.468,-1.92151 -1.4462,0 0.012,1.06762 0.912,3.90277 2,6.30033 2.2988,5.06621 2.3788,5.50653 0.8258,4.54673 -1.622,-1.00247 -0.5216,6.53699 1.5644,10.71856 0.94,1.88433 1.2473,3.61604 0.7328,4.13049 -1.1256,1.12558 1.1919,13.54529 3.393,18.18377 0.9032,1.90339 1.3562,3.92336 1.0068,4.48882 -0.3495,0.56546 0.063,3.38061 0.917,6.2559 1.0196,3.43333 1.3339,6.87599 0.9156,10.0295 -0.6562,4.9461 1.5495,20.12647 4.2085,28.9643 0.7739,2.5725 1.1639,5.31105 0.8667,6.08567 -0.2973,0.77461 0.1245,3.39484 0.9371,5.82273 0.8127,2.42788 2.1866,8.19816 3.0531,12.82285 0.8665,4.62469 2.0717,9.00646 2.6782,9.73727 0.6065,0.7308 0.8353,2.02582 0.5083,2.87781 -0.3269,0.85199 0.1021,3.44522 0.9535,5.76274 0.8513,2.31751 1.6664,6.12757 1.8112,8.4668 0.1679,2.71297 1.0496,5.09013 2.4346,6.56445 2.4403,2.59758 2.8862,4.89393 0.7944,4.09122 -1.5365,-0.58959 -0.9513,2.85782 2.3918,14.09119 0.9821,3.3 2.04,8.41014 2.3509,11.35588 0.3108,2.94573 0.9699,5.87073 1.4647,6.5 0.49472,0.62926 1.18522,2.94412 1.53432,5.14412 1.6111,10.1519 3.4091,15.58958 6.8853,20.82327 2.0625,3.10528 3.7835,5.99038 3.8244,6.41135 0.041,0.42096 2.0279,3.46538 4.4155,6.76538 2.3876,3.3 7.2838,11.85577 10.8803,19.01282 3.5966,7.15705 7.4596,14.00074 8.5845,15.20819 1.1249,1.20745 2.0596,3.00168 2.0771,3.98718 0.045,2.52953 2.3682,5.29181 4.4509,5.29181 1.4416,0 1.539,0.26896 0.5351,1.4785 -0.9862,1.18835 -0.863,2.03893 0.6276,4.33417 1.02,1.57062 2.8998,4.48534 4.1772,6.47716 1.2775,1.99182 3.19,3.89677 4.25,4.23322 1.1809,0.37481 1.9274,1.51942 1.9274,2.95544 0,1.37651 1.2381,3.38548 3,4.86806 1.65,1.38838 3,2.89657 3,3.35154 0,0.45497 1.2083,1.72152 2.6852,2.81456 1.4769,1.09304 4.9644,4.07515 7.75,6.62691 2.7856,2.55175 7.7648,6.68407 11.0648,9.18292 7.7437,5.86371 11.9558,9.79219 13.4073,12.50438 0.6397,1.19523 2.0472,2.17314 3.1279,2.17314 1.0806,0 1.9648,0.62093 1.9648,1.37985 0,1.40259 7.8332,7.7708 15.9986,13.00647 2.4758,1.58747 6.2362,4.37117 8.3566,6.18598 2.1204,1.81482 5.4094,4.03717 7.3089,4.93855 2.2419,1.06384 3.3413,2.22263 3.1333,3.30254 -0.5417,2.81317 -3.0777,2.22609 -8.2974,-1.92091 z M 816.85628,366.28735 c 0,-0.51754 -0.45,-0.94098 -1,-0.94098 -0.55,0 -1,0.70156 -1,1.55902 0,0.85746 0.45,1.2809 1,0.94098 0.55,-0.33992 1,-1.04148 1,-1.55902 z m 186.00002,-13.4007 c 0,-0.73793 -1.1206,-3.74887 -2.4902,-6.69098 l -2.49032,-5.3493 -0.01,3.75 c -0.01,2.08084 0.4829,3.75 1.0972,3.75 0.6088,0 0.848,0.675 0.5314,1.5 -0.3166,0.825 -0.1398,1.5 0.393,1.5 0.53272,0 0.96862,0.92656 0.96862,2.05902 0,1.13246 0.45,1.7809 1,1.44098 0.55,-0.33992 1,-1.22179 1,-1.95972 z m 4.7321,-16.95845 c -0.6963,-4.47498 -1.7757,-8.09871 -2.4821,-8.33334 -1.878,-0.62372 -1.539,3.21222 0.973,11.01168 2.7166,8.43477 3.1255,7.70909 1.5091,-2.67834 z m -192.33682,-5.28004 c -0.6516,-4.29099 -1.2741,-7.80179 -1.3833,-7.80179 -0.1092,0 -0.3374,-1.88406 -0.5072,-4.1868 -0.1697,-2.30274 -0.6295,-4.70587 -1.0215,-5.34028 -0.3921,-0.63442 -0.8406,-3.02536 -0.9966,-5.3132 -0.156,-2.28785 -1.046,-9.33472 -1.9779,-15.65972 -0.9319,-6.325 -1.6345,-13.4125 -1.5615,-15.75 0.073,-2.3375 -0.2227,-4.24684 -0.6572,-4.24297 -0.4346,0.004 -4.1213,5.27868 -8.1927,11.7218 l -7.4026,11.71477 2.5967,9.5282 c 5.5183,20.24899 5.5899,20.43499 8.9549,23.2513 1.7895,1.4977 3.8161,2.7352 4.5036,2.75 0.6875,0.0148 1.25,0.4769 1.25,1.0269 0,0.55 0.675,1 1.5,1 0.825,0 1.5,0.42071 1.5,0.9349 0,0.5142 0.4575,2.13811 1.0166,3.60869 0.7643,2.01035 1.3325,2.41154 2.29,1.61689 1.019,-0.8457 1.0368,-2.61596 0.089,-8.85869 z m 185.19312,-4.04673 c -1.09242,-1.0924 -1.84152,0.64486 -1.05722,2.45181 0.74372,1.71337 0.79762,1.71181 1.21202,-0.0351 0.2385,-1.00555 0.1688,-2.09305 -0.1548,-2.41667 z M 791.83608,275.14444 c 2.2111,-4.51107 4.0202,-8.31611 4.0202,-8.45565 0,-0.13953 -1.6875,0.32099 -3.75,1.0234 -2.0625,0.7024 -5.1875,1.18635 -6.9446,1.07544 -3.0241,-0.19089 -3.1235,-0.0881 -1.8625,1.92855 0.7326,1.1716 1.8775,4.49269 2.5443,7.38019 0.6667,2.8875 1.3833,5.25 1.5923,5.25 0.209,0 2.1891,-3.69087 4.4003,-8.20193 z m 32.4919,-4.14378 c 0.338,-1.56515 2.0311,-4.13965 3.7626,-5.72112 l 3.1482,-2.87541 -3.4616,-1.44633 c -1.9038,-0.79548 -4.3096,-2.38347 -5.3462,-3.52888 -1.7831,-1.9703 -4.5747,-2.84354 -4.5747,-1.43101 0,0.35835 0.9899,5.3694 2.1999,11.13566 2.1911,10.44249 2.7441,10.94309 4.2718,3.86709 z M 557.21791,238.84637 c 0.33482,-0.87253 1.83174,-1.5 3.57847,-1.5 4.88952,0 19.19074,-7.22326 24.65442,-12.45245 1.70177,-1.62874 8.48666,-7.18513 12.90548,-10.56877 2.2,-1.68462 4.675,-3.6141 5.5,-4.28775 5.4742,-4.46988 8.7659,-6.59179 9.33812,-6.01958 0.36403,0.36404 0.66188,0.13688 0.66188,-0.50478 0,-1.56038 -9.1442,-1.50667 -49.10657,0.28845 -39.474,1.77319 -81.28148,2.33889 -89.39343,1.2096 -4.88042,-0.67942 -5.76675,-0.59545 -4.75,0.45 0.6875,0.70691 1.25,2.05298 1.25,2.99128 0,1.09927 1.51148,2.25266 4.25,3.24312 2.3375,0.84542 7.36145,2.70713 11.16432,4.13714 5.46613,2.05544 7.0909,2.32916 7.75736,1.30687 0.64716,-0.99267 1.24794,-0.78742 2.58568,0.88337 2.10507,2.62917 24.94086,12.15026 31.24264,13.02622 2.475,0.34403 5.65504,1.47532 7.06676,2.51398 1.41171,1.03865 5.83977,2.73036 9.84013,3.75935 4.00036,1.02899 7.53282,2.13033 7.84991,2.44742 1.07969,1.07969 3.02763,0.58067 3.60483,-0.92347 z m 138.60353,-21.5 c 0.44087,0 1.0148,-0.81537 1.27541,-1.81193 0.3305,-1.26384 2.80116,-2.50285 8.16762,-4.09597 4.23159,-1.25622 8.23335,-2.366 8.8928,-2.46619 0.65946,-0.10018 1.76554,-0.53604 2.45796,-0.96858 0.69242,-0.43253 2.26742,-0.5029 3.5,-0.15637 1.70493,0.47933 1.88892,0.38803 0.76908,-0.38166 -1.29597,-0.89074 -1.29597,-1.07532 0,-1.54369 1.4844,-0.53647 8.67297,-2.53078 16.97197,-4.7085 7.9288,-2.08058 10.0027,-3.15888 8.8189,-4.58528 -0.6708,-0.80826 -3.5308,-1.28183 -7.7415,-1.28183 -10.57316,0 -33.44367,2.05909 -34.73025,3.12686 -1.8378,1.52523 -12.34715,17.6356 -12.34715,18.92762 0,0.64647 0.69988,0.89093 1.58179,0.55251 0.86998,-0.33385 1.9425,-0.60699 2.38337,-0.60699 z m 53.91324,-49.04386 c -0.7581,-0.4219 -4.0784,-1.03853 -7.3784,-1.37028 -8.8329,-0.88798 -12.8332,-1.70368 -14.36462,-2.92906 -1.03998,-0.83217 -1.81313,-0.53804 -3.25,1.23642 -1.03696,1.28059 -1.88538,2.71543 -1.88538,3.18854 0,0.83827 25.6311,1.8024 27.3784,1.02986 0.4831,-0.21361 0.2582,-0.73358 -0.5,-1.15548 z m -38.08781,-0.32672 c 2.94798,-1.82195 0.90567,-3.29045 -6.24788,-4.49246 -5.61808,-0.94401 -7.9816,-0.97244 -9.58318,-0.1153 -1.69065,0.90481 -2.48328,0.81432 -3.87146,-0.44196 -2.0712,-1.87441 -4.0917,-1.9908 -7.5114,-0.43268 -1.93175,0.88016 -2.86489,0.85867 -4.01085,-0.0924 -1.19803,-0.99428 -2.48947,-0.90858 -6.52961,0.43334 -2.89772,0.96247 -5.03621,2.27557 -5.03621,3.0924 0,1.96787 3.64423,1.78913 4.41386,-0.21649 0.57193,-1.49043 0.80444,-1.4763 2.61105,0.15866 1.59757,1.44579 2.4447,1.58452 4.35648,0.71345 1.70828,-0.77834 2.68024,-0.77436 3.46881,0.0142 0.79406,0.79406 1.759,0.79326 3.50641,-0.003 1.82776,-0.83278 2.86224,-0.78274 4.27712,0.20691 1.02645,0.71796 2.76627,1.50491 3.86627,1.74878 3.08138,0.68315 14.93231,0.26591 16.29059,-0.57356 z m 76.75711,-17.08004 c -0.8574,-3.69716 -1.3699,-7.02807 -1.1388,-7.40201 0.2311,-0.37395 0.048,-2.69758 -0.4062,-5.16364 -0.4546,-2.46605 -1.1222,-6.95873 -1.4836,-9.98373 -0.6348,-5.31361 -2.673,-17.24306 -4.3566,-25.5 -0.8447,-4.142504 -3.0921,-8.500004 -4.384,-8.500004 -0.4072,0 -1.0115,1.2375 -1.343,2.75 -1.1489,5.243464 -1.5785,5.942224 -2.3616,3.841164 -0.646,-1.733174 -0.9122,-1.626944 -2.8927,1.15437 -1.1997,1.68477 -2.1812,4.20469 -2.1812,5.59982 0,1.39514 -0.5209,2.85854 -1.1575,3.252 -0.7931,0.49016 -0.98,0.0365 -0.5936,-1.44098 0.3101,-1.186 0.2685,-2.13997 -0.092,-2.11993 -1.3554,0.0753 -6.157,7.36878 -6.1717,9.37459 -0.01,1.14893 -0.4516,2.76397 -0.9847,3.58897 -0.7686,1.18932 -0.9739,0.98219 -0.9913,-1 l -0.022,-2.5 -1.9868,3 c -1.1723,1.77014 -1.9749,4.63982 -1.9578,7 0.045,6.22726 5.0725,24.79534 7.2931,26.93648 1.1439,1.10307 17.3638,4.56352 21.3902,4.56352 1.1291,0 3.1153,0.86611 4.4137,1.9247 2.3517,1.91728 2.362,1.91588 2.6641,-0.36426 0.1668,-1.25892 -0.3982,-5.3139 -1.2556,-9.01106 z m -40.5828,0.70062 c -0.1328,-2.83498 -3.8416,-13.67225 -4.5671,-13.34507 -0.8674,0.39123 -7.3978,10.69933 -7.3978,11.67737 0,0.26518 1.0125,0.88912 2.25,1.38654 2.7599,1.10935 9.7632,1.31203 9.7149,0.28116 z m -19.25945,-9.5 c 9.00895,-11.97799 13.29275,-17.98533 13.26275,-18.59908 -0.044,-0.8992 -2.1239,-3.38112 -4.1903,-5.00023 -1.464,-1.14703 -1.969,-1.10241 -3.3691,0.29762 -0.9058,0.90581 -1.9308,1.33889 -2.2779,0.9624 -0.347,-0.37648 -0.068,-0.88541 0.6191,-1.13095 1.909,-0.68178 1.4878,-2.27976 -0.6009,-2.27976 -1.0179,0 -4.89373,2.3625 -8.61281,5.25 -3.71909,2.8875 -7.83178,5.96118 -9.13932,6.83039 -1.30754,0.86922 -3.84426,2.89617 -5.63716,4.50435 -3.60749,3.23581 -7.17321,5.81968 -12.52192,9.07393 l -3.54802,2.15867 5.90507,0.62154 c 3.24778,0.34185 7.70506,1.00391 9.90506,1.47124 2.2,0.46733 6.75778,0.90374 10.12839,0.96979 l 6.12839,0.12009 3.94867,-5.25 z"
     id="path2987"
     inkscape:connector-curvature="0" />
</svg>
