<?xml version="1.0" encoding="UTF-8" standalone="no"?>
<!-- Created with Inkscape (http://www.inkscape.org/) -->

<svg
   xmlns:dc="http://purl.org/dc/elements/1.1/"
   xmlns:cc="http://creativecommons.org/ns#"
   xmlns:rdf="http://www.w3.org/1999/02/22-rdf-syntax-ns#"
   xmlns:svg="http://www.w3.org/2000/svg"
   xmlns="http://www.w3.org/2000/svg"
   xmlns:sodipodi="http://sodipodi.sourceforge.net/DTD/sodipodi-0.dtd"
   xmlns:inkscape="http://www.inkscape.org/namespaces/inkscape"
   id="svg2"
   version="1.1"
   inkscape:version="0.48.2 r9819"
   width="2472.4312"
   height="1546.1624"
   sodipodi:docname="tortoise2B.png">
  <metadata
     id="metadata8">
    <rdf:RDF>
      <cc:Work
         rdf:about="">
        <dc:format>image/svg+xml</dc:format>
        <dc:type
           rdf:resource="http://purl.org/dc/dcmitype/StillImage" />
        <dc:title></dc:title>
      </cc:Work>
    </rdf:RDF>
  </metadata>
  <defs
     id="defs6" />
  <sodipodi:namedview
     pagecolor="#ffffff"
     bordercolor="#666666"
     borderopacity="1"
     objecttolerance="10"
     gridtolerance="10"
     guidetolerance="10"
     inkscape:pageopacity="0"
     inkscape:pageshadow="2"
     inkscape:window-width="1920"
     inkscape:window-height="1176"
     id="namedview4"
     showgrid="false"
     fit-margin-top="0"
     fit-margin-left="0"
     fit-margin-right="0"
     fit-margin-bottom="0"
     inkscape:zoom="0.5"
     inkscape:cx="1238.3144"
     inkscape:cy="775.3247"
     inkscape:window-x="0"
     inkscape:window-y="24"
     inkscape:window-maximized="1"
     inkscape:current-layer="svg2" />
  <path
     style="fill:#000000"
     d="m 236.43313,1544.7763 -2.68052,1.3861 -1.70685,-0.9552 c -0.93876,-0.5253 -2.2632,-1.9484 -2.94319,-3.1623 l -1.23636,-2.2072 -0.52591,-19.1775 -0.52591,-19.1776 -2.0989,-2.8224 -2.09889,-2.8225 -2.79625,-0.3304 -2.79624,-0.3305 -4.32642,1.6523 -4.32642,1.6523 -2.50378,2.9756 -2.50378,2.9755 -1.45587,4.9025 c -0.80072,2.6963 -1.76043,7.0625 -2.13267,9.7025 l -0.67681,4.8002 -2.30849,4 -2.30849,4 -4.61413,3.8254 c -2.53777,2.1039 -6.51285,4.911 -8.8335,6.2379 -2.32065,1.327 -4.958,2.418 -5.86078,2.4247 l -1.64142,0.012 -1.66006,-4.1489 c -0.91303,-2.2819 -2.78915,-8.6944 -4.16916,-14.25 l -2.5091,-10.1011 -0.55097,-10.5 -0.55097,-10.5 -2.29072,-4 -2.29072,-4 -2.96287,-2.1802 c -1.62958,-1.1992 -4.70492,-2.9081 -6.83409,-3.7978 -2.12916,-0.8896 -4.95356,-2.6085 -6.27644,-3.8197 l -2.40523,-2.2023 -2.75841,-6.0075 c -1.51714,-3.3041 -4.13002,-10.7291 -5.80642,-16.5 -1.6764,-5.7709 -3.5442,-12.7233 -4.15068,-15.4498 l -1.10268,-4.9572 2.54974,-8.0428 2.54974,-8.0427 1.97729,-18.4616 1.9773,-18.4616 -1.4195,-2.1665 -1.4195,-2.1664 -3.30685,-0.5818 c -1.81877,-0.3199 -6.00686,-0.8375 -9.30686,-1.15 -3.3,-0.3126 -15.10098,-0.9863 -26.2244,-1.4973 l -20.22439,-0.929 -8.77561,-2.9474 c -4.82658,-1.6211 -13.6463,-5.0313 -19.59938,-7.5783 -5.95307,-2.5471 -16.07807,-7.3942 -22.5,-10.7715 -6.42192,-3.3772 -13.58086,-7.4275 -15.90876,-9.0005 l -4.23254,-2.8602 -1.62335,-5.5841 -1.62336,-5.5841 -0.0513,-5.6299 -0.0513,-5.6298 1.67798,-3.2406 1.67799,-3.2406 2.24302,-1.4696 2.24301,-1.4697 9.64556,-1.5522 c 5.30506,-0.8536 11.43492,-2.1834 13.62192,-2.955 2.187,-0.7716 5.77381,-2.5376 7.9707,-3.9245 2.19689,-1.3868 6.64371,-3.6366 9.88183,-4.9995 3.23812,-1.3629 13.95329,-4.7994 23.81149,-7.6365 9.8582,-2.8372 19.30029,-5.8595 20.98242,-6.7161 1.68214,-0.8567 5.82759,-3.9736 9.21211,-6.9266 3.38453,-2.953 6.54752,-5.3691 7.02888,-5.3691 0.48136,0 5.1372,-2.7566 10.34632,-6.1259 5.20912,-3.3692 17.75427,-10.4567 27.87813,-15.75 l 18.407,-9.6241 4.27902,-4.1505 4.27902,-4.1505 0.65945,-3.5152 0.65944,-3.5152 -1.59102,-5.4729 -1.59103,-5.4729 -11.10652,-18.3391 c -6.10858,-10.0864 -12.58296,-21.2741 -14.38751,-24.8614 l -3.28099,-6.5223 -3.21505,-10.4288 c -1.76828,-5.7358 -4.23127,-14.9608 -5.4733,-20.5 l -2.25825,-10.0712 -4.671,-0.671 -4.67101,-0.671 -4.72263,-2.8028 -4.72263,-2.8029 -6,0.076 -6,0.076 -3.96144,2.1481 -3.96144,2.1481 -5.53856,-0.012 -5.53856,-0.012 -5,-1.3324 c -2.75,-0.7328 -6.4081,-2.0609 -8.12911,-2.9513 -1.72101,-0.8904 -5.67464,-3.9454 -8.78585,-6.7889 l -5.65675,-5.1699 -2.6086,-4.4513 -2.60859,-4.4512 0.60596,-11.1656 0.60596,-11.1657 2.47993,-13.088 c 1.36397,-7.1984 3.41917,-20.0234 4.56713,-28.5 1.14796,-8.4766 3.63604,-25.53705 5.52906,-37.91205 1.89302,-12.375 4.15596,-27.675 5.02875,-34 l 1.5869,-11.5 3.44007,-10.3254 3.44008,-10.3254 5.66662,-11.0781 c 3.11665,-6.093 8.66263,-15.62162 12.32441,-21.17466 3.66177,-5.55304 10.3165,-14.6428 14.78829,-20.19946 l 8.13052,-10.10301 10.11085,-9.61374 10.11084,-9.61375 14.68677,-7.402 14.68676,-7.40201 6.5,-2.21943 c 3.575,-1.22068 13.025,-3.81625 21,-5.76792 l 14.5,-3.5485 31,-0.61731 31,-0.61731 4.90126,-2.25668 4.90127,-2.25668 6.09873,-5.32566 c 3.35431,-2.92911 7.22374,-6.04949 8.59874,-6.93419 1.375,-0.88469 6.55,-3.0214 11.5,-4.74825 l 9,-3.13973 7.5,-4.00693 c 4.125,-2.20382 10.5811,-6.05431 14.347,-8.55666 l 6.8469,-4.54973 8.8997,-8.46918 8.8997,-8.46919 4.3885,-6.63956 c 2.4138,-3.65176 6.2954,-10.45167 8.6259,-15.11093 2.3305,-4.65925 4.8471,-10.19982 5.5924,-12.31237 l 1.3552,-3.84101 5.4844,-8.41373 5.4843,-8.41374 11.788,-12.15385 11.788,-12.15385 9.5,-7.94245 c 5.225,-4.36835 14,-11.01312 19.5,-14.76615 5.5,-3.75304 10.9569,-7.88295 12.1265,-9.17759 l 2.1264,-2.35389 0.7093,-3.96544 c 0.3901,-2.181 1.3983,-5.331 2.2405,-7 0.8422,-1.66901 2.4911,-4.09085 3.6643,-5.38188 1.1731,-1.29102 3.933,-3.2689 6.133,-4.39528 2.2,-1.12638 7.825,-4.60705 12.5,-7.73483 4.675,-3.12777 13.45,-8.55705 19.5,-12.06506 6.05,-3.508 18.425,-11.06582 27.5,-16.79513 9.075,-5.72932 21.675,-13.67215 28,-17.65073 6.325,-3.97859 18.025,-11.04852 26,-15.71097 7.975,-4.66244 23.725,-13.32043 35,-19.23996 l 20.5,-10.76279 9.1372,-3.31495 c 5.0254,-1.82322 10.4254,-3.97237 12,-4.77589 1.5745,-0.80353 8.0378,-3.29541 14.3628,-5.53752 6.325,-2.24211 17.575,-5.87141 25,-8.06512 7.425,-2.19372 15.7499,-4.49175 18.4999,-5.10674 l 4.9998,-1.11817 8.837,-4.49697 c 4.8603,-2.47333 19.0474,-10.26086 31.527,-17.30563 12.4796,-7.04476 24.703,-13.84447 27.1632,-15.11046 2.4602,-1.26599 12.3481,-5.55175 21.9731,-9.5239 9.625,-3.97215 28.0488,-11.79867 40.9417,-17.39227 l 23.4417,-10.17018 8.1102,-2.35023 8.1101,-2.35023 17.4482,-2.58308 17.4481,-2.58309 17,-0.96993 c 9.35,-0.53346 24.875,-1.26995 34.5,-1.63665 l 17.50005,-0.66673 9.5,-3.73548 c 5.225,-2.05452 14.225,-5.34518 20,-7.31259 5.775,-1.96741 18.7853,-5.86531 28.9118,-8.66198 10.1264,-2.79668 25.2014,-7.30101 33.5,-10.00961 8.2985,-2.70861 23.8632,-7.25404 34.5882,-10.10096 10.725,-2.84692 23.0011,-6.01719 27.2802,-7.04503 4.2791,-1.02785 24.0791,-5.1326 44,-9.12168 l 36.2198,-7.25306 27.5,0.11665 27.5,0.11666 11.5,1.15084 c 6.325,0.63297 13.975,1.62194 17,2.19771 3.025,0.57578 9.55,2.42269 14.5,4.10425 l 9,3.05737 7,-0.5459 7,-0.54591 10.3959,-3.64108 c 5.7178,-2.0026 14.2678,-5.24153 19,-7.19764 4.7323,-1.95611 12.8791,-5.69192 18.1041,-8.3018 l 9.5,-4.74524 14.2495,-5.18946 c 7.8372,-2.85421 17.3639,-6.47376 21.1705,-8.04344 3.8065,-1.56969 9.3946,-3.40756 12.418,-4.08416 l 5.497,-1.23018 16.8325,0.55544 16.8325,0.55544 11.3835,2.12147 c 6.2609,1.16681 12.2446,2.58237 13.2972,3.14568 1.0525,0.56331 11.455,3.24166 23.1165,5.95188 11.6615,2.71022 30.556,7.39312 41.9877,10.40644 11.4317,3.01332 24.7067,6.82527 29.5,8.47101 4.7933,1.64574 13.4409,4.13107 19.2169,5.52294 5.7759,1.39188 15.4252,3.43527 21.4428,4.54086 l 10.9412,2.01017 5.0571,-0.0168 5.0571,-0.0168 8.5,-3.58704 c 4.675,-1.97286 10.75,-4.4256 13.5,-5.45053 l 5,-1.8635 19.5,-0.0474 19.5,-0.0474 6.5,-1.52529 c 3.575,-0.83892 10.775,-2.93726 16,-4.66299 l 9.5,-3.1377 10.5,0.0611 10.5,0.0611 4.2913,1.01962 4.2914,1.01962 5.5132,3.34136 5.5132,3.34135 5.2386,5.00566 c 2.8812,2.75311 7.1356,7.57921 9.4541,10.72468 2.3185,3.14546 7.3038,10.80179 11.0783,17.01407 3.7746,6.21227 8.9012,15.35367 11.3925,20.31422 l 4.5298,9.01918 4.0736,12.96675 c 2.2405,7.13171 4.719,16.11675 5.5078,19.96675 0.7887,3.85 2.1619,12.175 3.0515,18.5 l 1.6175,11.5 1.9321,6.5 1.932,6.5 3.0751,4.83761 c 1.6913,2.66068 6.1323,8.0676 9.8688,12.01537 l 6.7938,7.17776 4.3334,8.32928 4.3333,8.32927 2.4489,1.11579 2.4489,1.11578 1.2512,-1.71119 1.2513,-1.71119 0.598,-5.04895 0.5979,-5.04895 4.6772,-11.70029 4.6772,-11.70029 12.3723,-24.74008 c 6.8047,-13.60704 13.5449,-27.33204 14.9782,-30.5 1.4333,-3.16796 4.5197,-10.0757 6.8588,-15.35054 l 4.2529,-9.59061 6.0059,-8.93211 c 3.3033,-4.91267 7.6242,-12.14561 9.6022,-16.07321 1.9779,-3.92761 5.1384,-10.89238 7.0234,-15.47728 1.8849,-4.58489 5.6988,-14.86117 8.4752,-22.83617 l 5.048,-14.5 2.1073,-11.36266 2.1074,-11.36266 3.4371,-11.33912 c 1.8903,-6.23651 5.2809,-15.97332 7.5345,-21.63734 2.2536,-5.66402 7.4851,-17.27322 11.6256,-25.79822 4.1405,-8.525 11.105,-23.375 15.4767,-33 4.3717,-9.625 11.7779,-24.89152 16.4583,-33.92561 4.6804,-9.03409 9.8575,-18.38438 11.5047,-20.77843 1.6471,-2.39406 4.025,-6.70253 5.2842,-9.57439 1.2591,-2.87187 5.7648,-15.12157 10.0125,-27.22157 l 7.7232,-21.999997 8.1605,-16.49398 8.1605,-16.49398 6.4153,-7.35579 c 3.5285,-4.04568 10.1846,-10.65106 14.7914,-14.67862 l 8.376,-7.32283 9.9596,-6.12039 c 5.4778,-3.36622 14.7604,-9.71207 20.6281,-14.10189 l 10.6685,-7.9815 7.3738,-3.64434 L 2196.3822,0 l 17.7161,0.122965 17.7161,0.122965 14.5,1.540569 c 7.975,0.847312 20.8,2.468514 28.5,3.602684 l 14,2.06211 20.6341,0.58213 20.6341,0.58214 9.7412,-1.75394 9.7412,-1.75394 6.0903,0.68904 6.0903,0.68903 8.5344,2.96656 c 4.6939,1.63161 14.8032,4.7819 22.4651,7.00065 l 13.9306,4.03409 4.9482,2.50742 c 2.7214,1.37908 9.0526,5.28297 14.0693,8.67531 5.0167,3.39233 13.1712,8.61284 18.1212,11.60112 l 9,5.43324 5.5724,5.56676 5.5724,5.56676 1.1622,4.63157 c 0.6392,2.54736 1.8557,11.23539 2.7033,19.30673 0.8476,8.07135 2.2178,17.891977 3.0448,21.823627 l 1.5037,7.14846 0.029,15.5448 0.029,15.54481 -7.0291,14 -7.029,14 -2.5696,2.75 -2.5696,2.75 -4.5584,0 -4.5583,0 -2.6512,2.86421 -2.6512,2.8642 -5.7524,11.00051 -5.7524,11.0005 -12.7476,0.68827 c -7.0112,0.37854 -21.5226,1.32523 -32.2476,2.10374 l -19.5,1.41548 -3.5,-0.81305 c -1.925,-0.44718 -5.4132,-1.79246 -7.7514,-2.98952 -2.3383,-1.19705 -7.0633,-2.89734 -10.5,-3.77841 l -6.2486,-1.60194 -6.6212,0.55402 -6.6212,0.55403 -15.3788,3.69017 -15.3788,3.69018 -12.3619,0.6288 -12.3618,0.62881 -12.6382,21.01115 c -6.9509,11.55613 -13.6746,22.45928 -14.9414,24.2292 -1.2668,1.76993 -3.6027,6.0839 -5.1909,9.5866 l -2.8876,6.36855 -6.0069,20.90225 c -3.3038,11.49624 -7.829,26.18088 -10.056,32.63253 -2.227,6.45166 -7.1482,19.50166 -10.9361,29 -3.7878,9.49835 -8.26,21.57133 -9.9381,26.82884 -1.6781,5.25752 -6.4166,22.13252 -10.53,37.5 l -7.4788,27.94088 -5.6699,15 c -3.1184,8.25 -8.1373,20.51338 -11.153,27.25196 l -5.4831,12.25197 -6.4573,21.74803 -6.4574,21.74804 -1.925,10 c -1.0588,5.5 -2.4248,14.275 -3.0356,19.5 -0.6108,5.225 -1.5564,12.1033 -2.1012,15.2851 -0.5448,3.18181 -2.5066,10.60681 -4.3595,16.5 -1.8529,5.8932 -6.3566,19.25586 -10.0083,29.69481 l -6.6394,18.97992 -6.9323,28.10116 -6.9323,28.10117 -5.4117,15.91892 c -2.9764,8.75541 -7.2937,20.64392 -9.594,26.41892 l -4.1822,10.5 -11.5124,22 c -6.3319,12.1 -13.7977,25.825 -16.5908,30.5 -2.7931,4.675 -7.4749,12.2804 -10.404,16.90088 l -5.3257,8.40089 -2.8897,9.09911 -2.8898,9.09912 -3.1784,17.5 -3.1784,17.5 -1.7796,4 -1.7797,4 -7.9714,7.58909 -7.9715,7.5892 -3.1794,0.6358 -3.1793,0.6359 0,1.503 0,1.503 6.75,5.5946 c 3.7125,3.0771 15.975,11.8201 27.25,19.4289 11.275,7.6088 24.0032,16.5978 28.2849,19.9756 l 7.7849,6.1414 5.7151,6.9698 c 3.1433,3.8334 7.3745,9.6968 9.4027,13.0298 l 3.6876,6.0601 1.6127,7.17195 c 0.8869,3.9445 3.133,11.8969 4.9914,17.6719 1.8583,5.775 4.7339,14.1705 6.3902,18.6567 1.6563,4.4862 4.5773,11.2662 6.4912,15.0666 1.9138,3.8004 5.0892,10.9014 7.0564,15.7799 1.9671,4.8784 5.3407,11.8393 7.4967,15.4684 l 3.9201,6.5985 2.0831,6.1834 2.083,6.1834 0,4.6937 0,4.6937 2.6345,4.4955 2.6346,4.4955 0.5146,9.0266 0.5147,9.0265 3.7169,4.0658 c 2.0444,2.2362 4.4136,5.4313 5.2651,7.1004 0.8515,1.669 1.8182,4.594 2.1484,6.5 0.3301,1.9059 0.9736,7.765 1.43,13.0201 l 0.8297,9.5546 4.5699,9.9696 4.5698,9.9695 1.58,6.0972 1.5799,6.0971 1.9844,16.7738 c 1.0915,9.2256 2.1816,16.971 2.4226,17.212 0.241,0.241 7.5632,0.5367 16.2716,0.6573 l 15.8333,0.2191 13.0764,2.8354 13.0764,2.8355 6.1776,-2.1379 6.1776,-2.1379 3.8371,0 3.837,0 4.7612,1.4329 4.7612,1.4329 10.6477,6.1138 10.6478,6.1137 7.432,5.9619 7.4321,5.9619 4.8899,5.7415 c 2.6894,3.1578 7.376,9.4964 10.4147,14.0858 3.0386,4.5894 6.8821,11.2451 8.5412,14.7905 l 3.0165,6.446 0.4792,8.2095 0.4792,8.2096 -1.3424,3.9865 -1.3424,3.9866 -2.8141,1.3487 -2.8141,1.3488 -0.5241,1.3658 -0.5241,1.3657 2.6561,6.6393 c 1.4609,3.6515 3.3796,9.973 4.2638,14.0475 l 1.6077,7.4084 -2.3403,2.4911 -2.3403,2.4912 -5.3728,2.0102 c -2.9551,1.1056 -6.2159,2.0102 -7.2464,2.0102 l -1.8736,0 -2.3389,-2.7866 c -1.2864,-1.5326 -4.0466,-5.6951 -6.1338,-9.25 -2.0872,-3.5549 -5.033,-7.9656 -6.5462,-9.8016 l -2.7514,-3.3382 -8.4537,-0.9319 c -4.6496,-0.5126 -9.9751,-1.4272 -11.8345,-2.0325 l -3.3807,-1.1006 -3.6193,-3.1939 c -1.9906,-1.7567 -5.6738,-4.3727 -8.185,-5.8134 l -4.5656,-2.6195 -2.4344,1.2091 -2.4343,1.2092 -0.2524,1.9749 -0.2523,1.975 8.4979,11.5 c 4.6738,6.325 9.5124,13.525 10.7523,16 l 2.2545,4.5 -0.041,7 -0.041,7 -2.3361,4.1493 -2.3361,4.1492 -2.2533,1.206 -2.2533,1.2059 -2.0496,-0.6505 -2.0497,-0.6506 -7.0493,-8.3711 c -3.8771,-4.6041 -9.0067,-9.9751 -11.3991,-11.9356 l -4.3499,-3.5644 -4.4204,-1.9459 c -2.4311,-1.0703 -9.0169,-3.1292 -14.6349,-4.5754 l -10.2145,-2.6294 -4.7855,0.3063 -4.7854,0.3062 -0.3098,2.6818 -0.3099,2.6817 5.2704,11.8183 5.2703,11.8182 0.04,8.5 0.039,8.5 -2.5817,0.3002 -2.5817,0.3002 -13.3145,-6.6644 -13.3145,-6.6643 -4.2156,-3.8858 -4.2157,-3.8859 -1.7101,0 -1.7101,0 -4.5101,2.6431 -4.5102,2.6432 -25.1679,-0.1223 -25.1679,-0.1223 -9.9544,-1.0346 -9.9544,-1.0346 -1.6737,-1.2362 c -0.9205,-0.68 -5.216,-3.9053 -9.5456,-7.1674 -4.3295,-3.2621 -10.5238,-8.4371 -13.7649,-11.5 -3.2412,-3.0629 -7.5731,-7.6765 -9.6265,-10.2524 l -3.7335,-4.6836 -0.7203,-4.8033 c -0.3961,-2.6418 -1.319,-5.961 -2.0507,-7.376 -0.7317,-1.415 -3.2756,-4.518 -5.6532,-6.8956 -2.3775,-2.3776 -6.7984,-6.0041 -9.8241,-8.0588 l -5.5014,-3.736 -3.9986,-4.4241 c -2.1993,-2.4333 -5.7041,-6.655 -7.7885,-9.3816 -2.0844,-2.7266 -4.8017,-6.5316 -6.0385,-8.4555 l -2.2486,-3.4979 -5.9616,-3.9112 -5.9615,-3.9112 -7.029,-7.0963 -7.0291,-7.0963 -3.8843,-6.4945 -3.8842,-6.4946 -6.189,-6.5 -6.189,-6.5 -2.1097,-4.1358 -2.1098,-4.1358 -1.6181,-7.1142 -1.6181,-7.1142 -0.9008,0 -0.9008,0 -0.4655,2.25 c -0.256,1.2375 -0.6898,12.825 -0.9641,25.75 l -0.4987,23.5 -1.5633,10.5 c -0.8598,5.775 -2.2446,13.1632 -3.0773,16.4182 l -1.514,5.9182 -1.9776,3.1998 -1.9776,3.1999 0,2.5559 0,2.5559 2.75,2.1512 c 1.5125,1.1832 5.062,3.5799 7.8878,5.3261 2.8257,1.7461 7.3013,4.6373 9.9457,6.4248 l 4.8081,3.25 2.113,0 2.1131,0 5.6395,3.3959 c 3.1017,1.8678 10.2277,6.8522 15.8354,11.0764 l 10.1959,7.6805 5.5345,2.4476 c 3.044,1.3462 7.9326,3.1448 10.8636,3.9969 2.931,0.852 8.138,2.686 11.5712,4.0754 l 6.2422,2.5262 11.2423,6.9635 11.2423,6.9635 4.3195,6.6871 c 2.3758,3.6778 6.3492,10.062 8.8299,14.187 2.4808,4.125 5.2624,9.4141 6.1816,11.7536 l 1.6711,4.2537 0.6327,6.807 0.6326,6.807 -1.5845,5.4505 -1.5845,5.4505 -4.6725,5.474 c -2.5699,3.0107 -5.3526,6.5119 -6.1837,7.7803 l -1.5112,2.3064 -0.2943,10.9056 -0.2943,10.9056 -1.1243,2.1008 -1.1243,2.1007 -2.5043,0.9522 -2.5043,0.9521 -5.3878,0 -5.3879,0 -2.4493,-1.116 -2.4492,-1.1159 -15.3211,-32.0304 -15.321,-32.0304 -2.9075,-2.9074 -2.9075,-2.9075 -2.5532,0.3038 -2.5532,0.3038 -0.8089,3 c -0.445,1.65 -1.7192,13.9093 -2.8316,27.2428 l -2.0225,24.2428 -1.4592,7.6265 -1.4592,7.6265 -1.7753,3.6307 -1.7754,3.6307 -6.5,2.2146 -6.5,2.2146 -3.7748,0.035 -3.7747,0.035 -0.8802,-2.3151 c -0.4841,-1.2733 -1.1916,-4.9858 -1.5722,-8.25 -0.3806,-3.2642 -1.5097,-9.7866 -2.5091,-14.4943 l -1.8171,-8.5594 -3.0689,-7.958 -3.069,-7.958 -2.9404,-3.4826 -2.9405,-3.4826 -1.8266,1.0967 -1.8265,1.0967 -4.0951,7.4033 -4.0951,7.4033 -4.1968,4.7051 -4.1968,4.7051 -7.2081,4.469 -7.2081,4.469 -6.5,2.1789 -6.5,2.1789 -14,0.1116 -14,0.1115 -10.5,-2.8494 -10.5,-2.8493 -13.34,-0.6152 -13.3401,-0.6152 -1.885,-2.33 -1.8851,-2.33 -1.0193,-3.67 c -0.5606,-2.0185 -1.0219,-4.6153 -1.0249,-5.7708 0,-1.1554 -0.4959,-3.5071 -1.0951,-5.2261 l -1.0895,-3.1253 -6.6605,-4.7442 c -3.6633,-2.6094 -8.5909,-6.519 -10.9503,-8.688 l -4.2897,-3.9436 -6.3208,-9.086 -6.3207,-9.086 -3.5596,-9 c -1.9578,-4.95 -4.7082,-12.825 -6.112,-17.5 l -2.5523,-8.5 -1.4337,-9.5 c -0.7886,-5.225 -3.5071,-18.275 -6.0411,-29 -2.534,-10.725 -5.3255,-22.65 -6.2032,-26.5 l -1.5958,-7 -6.2851,-16.5 c -3.4568,-9.075 -7.6606,-21 -9.3418,-26.5 -1.6812,-5.5 -4.6115,-16.3 -6.5117,-24 l -3.4551,-14 -2.1669,-4.8094 -2.1669,-4.8095 -1.4129,-0.5422 -1.413,-0.5422 -7.062,2.145 -7.062,2.145 -0.566,1.475 -0.566,1.475 5.0646,7.7316 c 2.7855,4.2525 6.2631,10.3591 7.7279,13.5704 1.4649,3.2113 3.2818,8.1613 4.0376,11 l 1.3743,5.1613 0,6 0,6 -2.9567,5.1553 -2.9568,5.1553 -4.2839,3.4782 c -2.3561,1.913 -6.9955,4.8362 -10.3097,6.496 l -6.0259,3.0177 -9.9741,3.0358 c -5.4858,1.6697 -12.6741,3.6266 -15.9741,4.3488 l -6,1.3129 -29,-0.092 -29,-0.092 -12.5,-1.6151 -12.5,-1.6151 -18.5,-0.6579 -18.5,-0.6578 -22.5,1.1493 c -12.375,0.6321 -28.575,1.841 -36,2.6865 -7.425,0.8455 -21.8571,3.0614 -32.0714,4.9242 -10.2143,1.8628 -24.6143,4.7379 -32,6.3891 -7.3857,1.6512 -19.9536,4.8279 -27.9286,7.0594 -7.975,2.2314 -19.675,5.3803 -26,6.9975 -6.325,1.6172 -22.6321,5.4408 -36.238,8.497 -13.606,3.0561 -29.9549,6.4484 -36.3311,7.5385 l -11.5929,1.9819 -15.169,0.9568 c -8.343,0.5263 -30.694,1.2535 -49.669,1.6161 l -34.5,0.6593 -28,-1.6055 c -15.4,-0.883 -40.825,-2.1223 -56.5,-2.7541 l -28.5,-1.1486 -62.50001,-0.1089 -62.5,-0.1088 -3.1548,1.3319 -3.1548,1.3319 -0.4754,1.818 -0.4754,1.8181 1.7696,4.85 c 0.9733,2.6676 3.57,9.8001 5.7704,15.8501 l 4.0007,11 2.5133,10.5 c 1.3823,5.775 2.7951,12.1497 3.1394,14.1659 l 0.6261,3.6659 -8.2796,3.2284 -8.2795,3.2284 -10,0.4445 -10,0.4445 -4.5,-2.4077 -4.5,-2.4077 -3.2775,-6.4311 -3.2774,-6.4311 -0.9516,-5.9433 -0.9516,-5.9433 -1.4043,-1.4043 -1.4043,-1.4043 -1.9529,1.0451 c -1.0741,0.5749 -3.5605,2.8246 -5.5254,4.9995 l -3.5724,3.9543 -1.1133,5.8482 c -0.6123,3.2164 -1.5818,7.5705 -2.1546,9.6756 l -1.0414,3.8275 -3.613,1.5096 -3.613,1.5096 -4.5134,-0.6768 -4.5133,-0.6768 -3.2299,-3.23 -3.23,-3.2299 -1.5287,-5.4303 -1.5288,-5.4304 -0.6792,-10.2334 -0.6793,-10.2335 -1.1223,-1.5056 -1.1224,-1.5056 -5.5,-1.0516 -5.5,-1.0516 -5,0.6432 -5,0.6432 -3.1726,1.4747 -3.1727,1.4747 -0.7316,1.6727 -0.7316,1.6728 -0.6854,13 -0.6854,13 -2.0923,4.7233 -2.0923,4.7234 -3.3181,2.0229 -3.318,2.0229 -5.0685,0 -5.0685,0 -4.9719,-1.4765 -4.9719,-1.4765 -2.7293,-2.8488 -2.7293,-2.8488 -0.9803,-3.4181 c -0.5356,-1.8714 -0.9767,-5.3726 -0.9767,-7.7719 l 0,-4.3622 -1.5772,-6.0865 c -0.8674,-3.3476 -2.848,-8.8894 -4.4014,-12.3152 l -2.8242,-6.2288 -2.6685,-2.3202 -2.6684,-2.3201 -3.1073,-5.8299 -3.1073,-5.8299 -4.5564,-4.0107 c -2.5061,-2.2059 -7.3679,-5.583 -10.804,-7.5046 -3.4361,-1.9216 -11.8516,-5.9106 -18.701,-8.8645 -6.8494,-2.9539 -14.2089,-6.4788 -16.3543,-7.8331 -2.1454,-1.3544 -6.8115,-4.9318 -10.3691,-7.9499 l -6.4683,-5.4875 -9.6898,-11.3935 -9.6898,-11.3934 -4.7565,-3.6031 -4.7565,-3.603 -4.7849,-1.6074 -4.785,-1.6074 -4.8597,0 -4.8597,0 -6.8554,2.1127 c -3.7704,1.1619 -8.4729,2.9354 -10.45,3.941 l -3.5947,1.8285 -2.9053,3.4018 c -1.5979,1.871 -6.4865,8.31 -10.8635,14.3089 l -7.9583,10.9071 -8.5417,8.5754 -8.5418,8.5753 -7.5,3.5554 c -4.125,1.9555 -10.7656,4.9958 -14.7568,6.7563 l -7.2569,3.2008 -8.2431,1.4801 c -4.5338,0.8141 -11.0455,1.7291 -14.4706,2.0335 l -6.2273,0.5533 -4.4531,-4.5818 -4.453,-4.5818 -5.0939,1.5127 c -2.8017,0.832 -7.0086,2.3334 -9.3487,3.3365 -2.3401,1.0031 -6.6263,2.3324 -9.5249,2.954 l -5.2701,1.1303 -9.7909,0 -9.7908,0 -7.5099,-1.9207 c -4.1304,-1.0564 -11.2766,-3.4092 -15.8804,-5.2284 l -8.3705,-3.3078 -8.0296,-4.9086 c -4.4162,-2.6998 -12.097,-7.3142 -17.0683,-10.2544 l -9.0389,-5.3456 -3.1903,-0.6381 -3.1903,-0.6381 -3.5209,3.5209 -3.5208,3.5208 -0.01,2.85 -0.01,2.85 -2.3931,5.1396 -2.393,5.1395 -3.6938,4.0886 c -2.0316,2.2488 -5.1742,5.0035 -6.9835,6.1218 l -3.2897,2.0331 -0.4998,1.9113 -0.4999,1.9114 1.7817,2.9297 1.7817,2.9298 5.2025,4.3868 5.2024,4.3867 1.2997,2.5109 c 0.7148,1.3809 3.8468,5.6174 6.96,9.4143 3.1132,3.7969 6.5677,8.6821 7.6767,10.856 l 2.0165,3.9525 1.4296,6.644 1.4296,6.644 1.1914,21.15 1.1913,21.15 -1.1515,8.6064 -1.1515,8.6064 -1.6503,3.4778 -1.6504,3.4779 -3.1435,1.9066 -3.1436,1.9067 -5.2992,1.1091 -5.2992,1.1091 -4.7008,-0.07 c -2.5854,-0.039 -5.5026,-0.3871 -6.4827,-0.7743 l -1.782,-0.704 -1.8477,-2.8167 -1.8477,-2.8167 -2.6794,3.5127 -2.6793,3.5128 -1.0227,3.704 -1.0227,3.704 -8.2247,8.3364 -8.2246,8.3365 -4.4436,2.0158 -4.4437,2.0159 -3.5536,0.022 -3.5537,0.022 -5.334,2.658 -5.334,2.6581 -1.6123,-1.0102 -1.6124,-1.0102 -0.3201,-2.3978 c -0.1762,-1.3189 -1.3926,-5.842 -2.7033,-10.0514 l -2.383,-7.6536 -1.55258,-14.781 -1.55258,-14.781 -1.7442,-3.5654 -1.7442,-3.5655 -3.13392,-0.3047 -3.13391,-0.3047 -6.1937,5.7343 -6.19369,5.7342 -4.30347,6.0705 -4.30347,6.0704 -2.54498,6.3547 c -1.39973,3.4951 -4.71574,9.9532 -7.36891,14.3514 -2.65317,4.3981 -6.33162,9.7628 -8.17432,11.9215 l -3.35037,3.9248 -2.68052,1.3862 z"
     id="path2987"
     inkscape:connector-curvature="0" />
</svg>
