<?xml version="1.0" encoding="UTF-8" standalone="no"?>
<!-- Created with Inkscape (http://www.inkscape.org/) -->

<svg
   xmlns:dc="http://purl.org/dc/elements/1.1/"
   xmlns:cc="http://creativecommons.org/ns#"
   xmlns:rdf="http://www.w3.org/1999/02/22-rdf-syntax-ns#"
   xmlns:svg="http://www.w3.org/2000/svg"
   xmlns="http://www.w3.org/2000/svg"
   xmlns:sodipodi="http://sodipodi.sourceforge.net/DTD/sodipodi-0.dtd"
   xmlns:inkscape="http://www.inkscape.org/namespaces/inkscape"
   id="svg2"
   version="1.1"
   inkscape:version="0.48.2 r9819"
   width="777.14655"
   height="351.19901"
   sodipodi:docname="americanentomolo03sayt_0158b.png">
  <metadata
     id="metadata8">
    <rdf:RDF>
      <cc:Work
         rdf:about="">
        <dc:format>image/svg+xml</dc:format>
        <dc:type
           rdf:resource="http://purl.org/dc/dcmitype/StillImage" />
        <dc:title></dc:title>
      </cc:Work>
    </rdf:RDF>
  </metadata>
  <defs
     id="defs6" />
  <sodipodi:namedview
     pagecolor="#ffffff"
     bordercolor="#666666"
     borderopacity="1"
     objecttolerance="10"
     gridtolerance="10"
     guidetolerance="10"
     inkscape:pageopacity="0"
     inkscape:pageshadow="2"
     inkscape:window-width="1920"
     inkscape:window-height="1176"
     id="namedview4"
     showgrid="false"
     fit-margin-top="0"
     fit-margin-left="0"
     fit-margin-right="0"
     fit-margin-bottom="0"
     inkscape:zoom="1"
     inkscape:cx="382.14655"
     inkscape:cy="178.06234"
     inkscape:window-x="0"
     inkscape:window-y="24"
     inkscape:window-maximized="1"
     inkscape:current-layer="svg2" />
  <path
     style="fill:#000000"
     d="m 304.4834,350.07209 c -0.43115,-1.12354 0.15652,-2.29897 1.75053,-3.50133 2.5898,-1.95349 2.66782,-1.85729 -2.83738,-3.49864 -0.6875,-0.20497 -1.25,-0.8368 -1.25,-1.40407 0,-1.07846 2.01589,-1.33881 8.18203,-1.05671 2.02511,0.0926 4.72511,-0.38679 6,-1.06542 3.81218,-2.02925 9.81797,-7.16124 9.81797,-8.38952 0,-0.63005 1.334,-2.4236 2.96444,-3.98566 1.63045,-1.56207 2.74547,-3.19443 2.47783,-3.62748 -0.26764,-0.43305 0.32585,-1.60169 1.31887,-2.59698 1.59233,-1.59596 8.17695,-14.35807 10.22079,-19.80961 0.4124,-1.1 2.51086,-5.63011 4.66323,-10.06691 2.70391,-5.5737 3.72888,-8.8189 3.31634,-10.5 -0.59225,-2.41343 -0.61088,-2.40682 -2.30497,0.81691 -0.93934,1.7875 -2.14633,3.25 -2.68221,3.25 -0.53588,0 -0.97432,0.5335 -0.97432,1.18555 0,0.65205 -0.84767,2.11455 -1.88371,3.25 -1.03605,1.13545 -3.58586,5.21445 -5.66626,9.06445 -2.0804,3.85 -4.09708,7.225 -4.48151,7.5 -0.38443,0.275 -1.03967,1.59043 -1.45609,2.92319 -0.41643,1.33275 -1.13929,2.90775 -1.60636,3.5 -3.18967,4.04449 -5.79806,6.57681 -6.77437,6.57681 -0.62642,0 -2.78791,0.88379 -4.8033,1.96397 -5.41151,2.9004 -12.92716,4.15453 -22.93453,3.82706 -7.95676,-0.26037 -8.86129,-0.48246 -8.58468,-2.10789 0.25983,-1.52682 -0.009,-1.64655 -1.68426,-0.75 -3.1207,1.67015 -8.12493,1.35444 -8.12493,-0.5126 0,-1.2347 0.65481,-1.43563 3,-0.92054 3.48826,0.76615 4.13349,-0.91843 0.75,-1.95812 -2.14608,-0.65945 -2.11144,-0.73424 0.75,-1.61922 1.65,-0.51031 4.90636,-0.6515 7.23636,-0.31375 7.43958,1.07841 12.74834,0.7744 15.29071,-0.87564 1.36011,-0.88273 4.49793,-1.83085 6.97293,-2.10693 2.475,-0.27608 4.61019,-0.52995 4.74488,-0.56415 0.13468,-0.0342 1.21574,-2.12762 2.40236,-4.65204 1.18662,-2.52442 2.76392,-4.82256 3.50512,-5.10699 0.7412,-0.28443 1.34764,-0.96236 1.34764,-1.50652 0,-1.78004 7.40452,-12.82006 11.75,-17.51905 2.3375,-2.52766 4.25,-4.97416 4.25,-5.43666 0,-1.03916 3.26395,-4.3668 5.125,-5.22499 0.75625,-0.34874 -0.875,-0.37944 -3.625,-0.0682 -2.75,0.3112 -7.36923,0.82893 -10.26496,1.15051 -3.94089,0.43764 -5.70131,0.20068 -7,-0.94227 -0.95427,-0.83982 -3.31004,-1.78211 -5.23504,-2.09399 -7.71219,-1.24946 -10.58082,-1.99225 -12.31469,-3.18868 -0.99808,-0.68871 -2.6348,-1.03773 -3.63714,-0.77561 -1.00235,0.26211 -2.1248,-0.0126 -2.49433,-0.61054 -0.36953,-0.59796 -2.22032,-1.08716 -4.11286,-1.08716 -1.89254,0 -3.44098,-0.50248 -3.44098,-1.11663 0,-0.62412 -0.8817,-0.88606 -1.999,-0.59388 -1.09946,0.28751 -2.21892,0.16692 -2.48771,-0.26798 -0.26878,-0.4349 -2.55829,-1.10109 -5.0878,-1.48041 -2.52951,-0.37933 -6.65206,-1.78125 -9.16124,-3.11539 -2.50917,-1.33414 -5.81855,-2.42571 -7.35417,-2.42571 -1.53563,0 -3.02466,-0.37637 -3.30896,-0.83639 -0.28431,-0.46001 -2.19014,-0.89929 -4.23519,-0.97617 -2.04505,-0.0769 -4.179,-0.60051 -4.7421,-1.16361 -0.56311,-0.56311 -1.86341,-1.02383 -2.88957,-1.02383 -1.02616,0 -2.84866,-0.53488 -4.05,-1.18861 -1.20134,-0.65374 -2.85926,-1.29683 -3.68426,-1.42911 -0.825,-0.13227 -3.3,-0.75454 -5.5,-1.38284 -2.2,-0.62829 -6.13769,-1.5331 -8.75042,-2.0107 -2.61273,-0.47759 -8.08831,-2.02044 -12.16797,-3.42854 -4.07965,-1.40811 -8.72947,-2.5602 -10.33292,-2.5602 -1.60344,0 -3.2527,-0.3375 -3.665,-0.75 -0.41231,-0.4125 -1.72481,-0.8255 -2.91667,-0.91778 -1.19186,-0.0923 -3.96702,-0.68273 -6.16702,-1.3121 -2.2,-0.62937 -8.725,-2.02695 -14.5,-3.10573 -11.00859,-2.05642 -18.33538,-4.1457 -23.70281,-6.75899 -3.17452,-1.5456 -3.23415,-1.52711 -6.75,2.09304 -1.95095,2.00884 -3.54719,4.09021 -3.54719,4.62527 0,0.53506 -1.0125,2.24487 -2.25,3.79956 -1.2375,1.5547 -2.99901,4.40173 -3.91447,6.32673 -0.91546,1.925 -2.98312,6.2 -4.59479,9.5 -1.61168,3.3 -2.73286,6.57692 -2.49151,7.28204 0.24134,0.70513 -0.21028,2.28013 -1.00359,3.5 -1.62556,2.49962 -4.2635,9.82322 -3.95063,10.96796 0.11275,0.4125 -0.47001,0.75 -1.29501,0.75 -0.825,0 -1.5,0.65973 -1.5,1.46607 0,1.33873 -0.63257,3.02507 -4.51411,12.03393 -2.26961,5.26764 -2.82449,6.94501 -3.11014,9.40175 -0.15359,1.32096 -0.75096,2.87346 -1.3275,3.45 -0.57654,0.57654 -1.04825,2.06208 -1.04825,3.3012 0,1.23912 -0.50603,3.51162 -1.12451,5.05 -2.30167,5.72504 -2.70964,6.92077 -4.19565,12.29705 -0.83611,3.025 -1.80386,7.525 -2.15056,10 -0.3467,2.475 -1.25366,5.45246 -2.01546,6.61659 -2.28948,3.49859 -12.97526,4.25383 -37.26586,2.63384 -6.18863,-0.41274 -11.25464,-0.52543 -11.25781,-0.25043 -0.003,0.275 -1.12694,1.02002 -2.49728,1.6556 -3.90833,1.81273 -4.14125,-0.39142 -0.44442,-4.20559 l 3.2733,-3.37718 -2.74216,-1.04257 c -3.01461,-1.14615 -2.99889,-3.61264 0.0216,-3.3908 1.04434,0.0767 4.14879,0.59399 6.89879,1.14953 2.75,0.55554 11.75,0.88965 20,0.74246 14.75839,-0.2633 15.00546,-0.30435 15.33911,-2.54877 0.18651,-1.25464 -0.21882,-3.32366 -0.90074,-4.59783 -0.84921,-1.58676 -0.921,-2.72125 -0.22787,-3.60076 0.55659,-0.70625 1.26654,-2.9433 1.57767,-4.97122 0.31113,-2.02793 2.17357,-6.95092 4.13876,-10.93999 1.96521,-3.98906 3.57309,-7.8568 3.57309,-8.59498 0,-0.73818 0.76011,-3.01518 1.68914,-5.06002 0.92902,-2.04483 1.76002,-4.16788 1.84665,-4.71788 0.24951,-1.58404 1.39761,-4.19168 7.62265,-17.31301 3.21286,-6.77215 5.84156,-12.66491 5.84156,-13.09501 0,-0.4301 0.9,-1.59649 2,-2.59198 1.1,-0.99549 2,-2.59209 2,-3.548 0,-0.95591 0.675,-1.99704 1.5,-2.31363 0.825,-0.31658 1.5,-1.46317 1.5,-2.54797 0,-1.0848 0.49253,-2.27677 1.09451,-2.64881 0.60198,-0.37204 2.33305,-3.43692 3.84682,-6.81083 2.95997,-6.59722 11.57183,-16.81052 16.18701,-19.19713 3.81342,-1.972 16.92302,-1.68859 27.87166,0.60253 4.675,0.9783 11.65,2.24794 15.5,2.82142 11.96928,1.7829 22.56762,3.79417 25.5,4.83918 0.825,0.294 2.92727,0.68283 4.6717,0.86406 1.74444,0.18123 8.87208,1.96404 15.83921,3.9618 6.96713,1.99777 12.87877,3.42104 13.13697,3.16283 0.49555,-0.49555 -21.08907,-7.68545 -23.07229,-7.68545 -0.63616,0 -5.18842,-1.30616 -10.11612,-2.90258 -4.92771,-1.59642 -11.20947,-3.20228 -13.95947,-3.56857 -2.75,-0.36629 -5.9,-1.04672 -7,-1.51206 -3.27041,-1.38351 -10.78238,-3.2284 -14,-3.43831 -1.65,-0.10764 -3.675,-0.49237 -4.5,-0.85496 -1.63446,-0.71833 -13.3207,-4.01221 -21.87827,-6.1666 -2.95806,-0.7447 -5.72861,-1.92083 -6.15678,-2.61363 -1.98465,-3.21124 -16.34497,7.3721 -25.04717,18.45938 -2.97978,3.79647 -6.76778,8.57541 -8.41778,10.61987 -1.65,2.04446 -3.675,4.72252 -4.5,5.95125 -0.825,1.22873 -4.3125,5.85878 -7.75,10.28899 -3.4375,4.43022 -6.25,8.50506 -6.25,9.05521 0,0.55015 -1.71037,3.29116 -3.80083,6.09114 -2.09046,2.79998 -4.58657,6.77837 -5.54692,8.84087 -0.96035,2.0625 -2.17497,3.75 -2.69917,3.75 -0.52419,0 -0.9816,0.5625 -1.01646,1.25 -0.0349,0.6875 -1.36247,3.725 -2.95026,6.75 -1.58778,3.025 -4.21022,8.2167 -5.82764,11.53712 -1.61743,3.32041 -3.55231,6.5253 -4.29975,7.12197 -0.87145,0.69567 -7.95341,1.0664 -19.74116,1.03342 -16.50482,-0.0462 -18.51509,0.13032 -19.68347,1.72817 -0.7157,0.97878 -1.78121,1.48298 -2.3678,1.12044 -1.7108,-1.05733 -1.23302,-3.38165 0.93346,-4.54112 2.64383,-1.41493 2.53615,-2.78475 -0.25,-3.18045 -1.2375,-0.17575 -2.25,-0.99455 -2.25,-1.81955 0,-0.93341 0.75545,-1.3866 2,-1.19977 3.75381,0.5635 13.98909,0.26599 21,-0.61042 3.85,-0.48127 8.34703,-0.49586 9.9934,-0.0324 4.37219,1.23071 4.5066,1.15589 4.5066,-2.50847 0,-3.30327 2.26997,-8.36403 7.38861,-16.47249 1.43626,-2.27519 2.61139,-4.54055 2.61139,-5.03413 0,-0.49359 0.70704,-1.48423 1.57121,-2.20142 0.86416,-0.71719 2.10166,-2.54027 2.75,-4.05129 0.64833,-1.51102 3.09946,-4.91683 5.44694,-7.56846 7.18805,-8.11936 14.66314,-17.40834 16.03642,-19.92777 0.71751,-1.31636 1.65058,-2.39338 2.07348,-2.39338 0.42291,0 2.94149,-3.17965 5.59684,-7.06589 4.11017,-6.01546 10.01276,-12.31149 22.20405,-23.68411 1.32658,-1.2375 2.95401,-2.2625 3.61651,-2.27778 0.6625,-0.0153 2.4872,-1.33543 4.05489,-2.93367 4.68708,-4.77844 8.15785,-5.85633 17.64966,-5.48134 10.72417,0.42367 17.73062,1.24123 19.84899,2.31612 0.90805,0.46076 5.92601,1.41789 11.15101,2.12696 5.225,0.70907 10.00546,1.68184 10.62325,2.16172 0.61779,0.47987 1.80977,0.60905 2.64885,0.28707 0.83908,-0.32199 1.82267,-0.10475 2.18577,0.48275 0.36309,0.58749 1.78095,1.06817 3.15081,1.06817 1.36985,0 3.93079,0.74992 5.69098,1.6665 1.76019,0.91657 4.32534,1.79215 5.70034,1.94571 2.23739,0.24988 9.6173,2.09781 15.75,3.94379 1.2375,0.37249 2.25,0.43866 2.25,0.14703 0,-0.29163 -2.3625,-2.96313 -5.25,-5.93667 -7.58818,-7.81428 -11.4926,-13.01164 -13.87184,-18.46543 -6.65741,-15.26041 -6.15482,-21.75927 2.1438,-27.72124 5.19494,-3.73219 11.15386,-6.56964 13.85016,-6.595 3.61971,-0.0341 4.43936,-1.48131 3.03634,-5.36129 -0.72063,-1.99287 -1.66984,-3.6234 -2.10935,-3.6234 -0.43951,0 -0.79911,-0.47295 -0.79911,-1.05101 0,-0.57806 -4.50063,-7.77806 -10.0014,-16 -5.50077,-8.22194 -9.74363,-14.94899 -9.42857,-14.94899 0.31505,0 -0.19936,-0.77219 -1.14315,-1.71597 -1.95241,-1.95241 -21.32491,-31.219045 -23.68657,-35.784035 -0.85362,-1.65 -2.75256,-4.35 -4.21988,-6 -1.46732,-1.65 -4.8732,-6.15 -7.56863,-10 -10.94655,-15.63548 -20.67806,-28.23437 -26.16047,-33.86866 -1.53523,-1.57776 -2.79133,-3.25768 -2.79133,-3.73315 0,-0.47548 -2.3625,-2.10958 -5.25,-3.63134 -4.98368,-2.62649 -5.85873,-2.75564 -17.25,-2.54586 l -12,0.22099 -23.05705,7.92011 c -20.82397,7.15305 -44.44295,17.33327 -44.44295,19.15573 0,0.3906 -1.8,1.95758 -4,3.48218 -2.2,1.5246 -4,3.11321 -4,3.53025 0,1.48121 -5.8283,6.96975 -7.40121,6.96975 -2.72457,0 -1.84209,-1.36961 5.65121,-8.77068 10.16711,-10.04199 15.96105,-13.83447 27.25,-17.83677 2.2,-0.77997 5.35,-2.04923 7,-2.82057 4.02193,-1.88016 19.67099,-7.82729 26.5,-10.07083 3.025,-0.9938 7.525,-2.74664 10,-3.8952 3.22071,-1.49463 6.30166,-2.05173 10.83746,-1.95966 3.48561,0.0707 5.96061,-0.19044 5.5,-0.58043 -1.07201,-0.90766 -15.89268,-5.71522 -19.83746,-6.43491 -10.41522,-1.90018 -26.46384,-1.59694 -42.5,0.80304 -9.075,1.35817 -18.99756,3.33596 -22.05013,4.39508 -8.77239,3.04367 -20.1761,8.65073 -23.44987,11.53 -1.65,1.45117 -3.3958,2.63904 -3.87956,2.63971 -0.48376,6.7e-4 -3.2959603,2.47622 -6.2493303,5.50122 -2.95337,3.025 -5.59506997,5.5 -5.87043997,5.5 -3.61577003,0 8.61914997,-12.24114 19.29691027,-19.30671 8.3456,-5.52236 11.43,-6.7306 29.70242,-11.63523 12.38633,-3.32471 17.9908,-3.99768996 38,-4.56301996 15.35585,-0.43385 16.23522,-0.2541 38.89102,7.94981996 10.70722,3.8772 17.93723,4.78085 39.68314,4.95986 l 11.57416,0.0953 3.92584,4.67432 c 5.40044,6.43006 7.31299,9.31057 16.48333,24.82568 4.38861,7.425 8.42335,14.175 8.96608,15 2.6004,3.95282 26.97643,52.017375 26.97643,53.192005 0,0.55965 1.10643,3.2204 2.45873,5.91277 1.35231,2.69238 2.24627,4.89523 1.98658,4.89523 -0.25968,0 0.23923,1.6875 1.10869,3.75 0.86946,2.0625 2.61253,6.68571 3.87348,10.2738 2.80851,7.99171 6.98286,16.00747 6.09519,11.70424 -0.41925,-2.03247 -0.1234,-2.94402 1.10901,-3.41694 1.79491,-0.68877 5.16593,2.67283 8.87353,8.84874 1.10286,1.83709 3.38307,4.03027 5.06712,4.87373 1.68405,0.84346 4.3299,2.53096 5.87965,3.75 1.54976,1.21904 3.32928,2.21643 3.95451,2.21643 1.6097,0 17.27441,17.102 20.85654,22.77021 1.644,2.60138 4.84486,6.41847 7.11303,8.48241 4.83445,4.39915 11.51661,9.21655 11.99269,8.64593 0.18288,-0.2192 2.0392,-3.99855 4.12515,-8.39855 5.5077,-11.6177 18.02934,-23.34202 25.15723,-23.55533 2.35785,-0.0706 6.72339,-5.5263 5.97745,-7.47019 -0.33006,-0.86015 -1.85625,-1.4745 -3.66294,-1.4745 -4.07333,0 -6.96564,-1.62467 -6.96564,-3.91274 0,-2.63338 1.83316,-3.80082 7.22965,-4.60417 3.93626,-0.58597 4.73323,-1.06298 4.75094,-2.84358 0.0117,-1.17673 0.29313,-4.05201 0.62538,-6.38951 0.36454,-2.56464 0.20832,-4.25 -0.39395,-4.25 -1.60416,0 -2.29333,-2.97955 -1.17325,-5.07244 1.33263,-2.49005 4.1696,-2.45978 6.45803,0.0689 1.12936,1.24792 2.21854,1.66615 2.90499,1.11547 0.60402,-0.48455 2.66661,-1.21697 4.58354,-1.62761 6.99418,-1.49827 9.67711,-4.61177 7.93116,-9.20398 -2.64858,-6.96628 2.77297,-9.9335 7.89784,-4.32249 2.48948,2.72564 3.16378,2.93464 8.58852,2.66209 6.48139,-0.32562 8.59715,-1.95261 8.59715,-6.61107 0,-2.80792 1.61689,-5.00887 3.67968,-5.00887 1.50789,0 5.64807,7.66068 4.84362,8.9623 -1.11683,1.80706 3.59547,2.24019 5.51112,0.50655 2.38126,-2.15501 4.70046,-1.30544 6.25741,2.29223 1.24131,2.86834 4.70817,3.4239 4.70817,0.75449 0,-1.646 5.63636,-6.51557 7.54154,-6.51557 2.62919,0 3.53869,3.52114 2.02078,7.82338 -1.30099,3.68738 -1.26209,4.13835 0.49399,5.72758 1.5171,1.37295 2.20313,1.47861 3.36101,0.51766 1.80895,-1.5013 5.16805,0.0496 6.03696,2.78732 1.13186,3.5662 4.64629,4.10163 8.97982,1.36811 2.8825,-1.81824 4.35266,-2.21802 5.5,-1.49563 2.43245,1.53155 2.4644,4.24131 0.0879,7.4557 -2.03376,2.7508 -2.07031,3.0932 -0.57399,5.37688 1.82734,2.78887 2.36281,2.87557 7.76457,1.25716 3.22856,-0.9673 4.10019,-0.93012 4.8016,0.20478 1.20542,1.95042 -1.96752,6.97706 -4.4041,6.97706 -1.83026,0 -1.80146,0.16738 0.43907,2.55232 1.64304,1.74894 3.07018,2.38356 4.53397,2.01618 3.03516,-0.76178 5.70525,2.43434 4.85704,5.81391 -0.63304,2.52223 -0.4982,2.61809 3.70143,2.63124 6.51385,0.0204 9.10378,0.94005 8.5552,3.03781 -0.29949,1.14526 0.20283,1.95053 1.41434,2.26735 2.35208,0.61508 3.52029,3.44977 2.03414,4.93592 -0.61616,0.61616 -3.07497,1.0191 -5.46403,0.89544 -3.10541,-0.16075 -6.17363,0.64082 -10.76249,2.8117 -3.53031,1.6701 -7.05625,3.03691 -7.83542,3.03734 -0.77916,4.3e-4 -1.07951,0.33829 -0.66743,0.75079 0.41207,0.4125 8.69957,1.0709 18.41666,1.46311 19.64589,0.79297 30.12844,1.48107 34.74989,2.28107 2.32618,0.40267 3.55292,0.01 5,-1.60189 4.22897,-4.70957 26.41749,-17.89229 30.11546,-17.89229 0.73107,0 2.11062,-0.42232 3.06566,-0.93848 0.95504,-0.51617 6.23643,-2.04329 11.73643,-3.39361 5.5,-1.35032 12.475,-3.1851 15.5,-4.07727 3.025,-0.89218 7.93988,-1.88781 10.92196,-2.21251 4.5801,-0.4987 6.10589,-1.23379 9.82675,-4.73425 2.42263,-2.27913 4.92472,-4.3287 5.56018,-4.55459 0.63547,-0.2259 1.75807,-1.0134 2.49468,-1.75 3.05955,-3.05956 6.43206,-1.5897 13.33911,5.81364 6.47145,6.93644 6.85805,7.17819 12.77323,7.98714 6.34414,0.86761 14.74561,4.52145 18.09281,7.86865 1.06722,1.06722 3.18935,2.20949 4.71584,2.53836 2.84608,0.61318 8.97589,2.84972 13.08941,4.77585 1.27268,0.59593 4.26689,2.98156 6.65379,5.30142 4.29642,4.17572 4.4283,4.22351 13.18603,4.77806 4.86542,0.30809 10.87121,0.80756 13.34621,1.10995 15.99123,1.95374 21.07534,2.80053 21.5643,3.59168 0.30455,0.49278 1.62562,0.89596 2.9357,0.89596 1.31008,0 2.66008,0.45 3,1 0.33992,0.55 1.49148,1 2.55902,1 1.06754,0 1.94098,0.39541 1.94098,0.87868 0,0.48327 1.3672,1.44499 3.03822,2.13715 6.5793,2.72524 6.56625,7.59719 -0.0382,14.27139 -4.82083,4.87173 -5.40681,5.83694 -5.09196,8.38737 0.0797,0.64603 -0.31693,1.46009 -0.88152,1.80902 -0.56459,0.34893 -1.02652,1.28287 -1.02652,2.07541 0,0.79254 -0.73125,2.28473 -1.625,3.31598 -0.89375,1.03125 -2.42433,2.78683 -3.40128,3.90128 -0.97695,1.11445 -2.05284,2.89765 -2.39086,3.96266 -0.33802,1.06501 -1.94072,3.42174 -3.56154,5.23719 -1.62083,1.81544 -3.07768,3.69295 -3.23744,4.17224 -0.15977,0.4793 -1.414,1.1064 -2.78718,1.39357 -9.35132,1.95561 -12.01533,2.56396 -16.16138,3.69055 l -4.66468,1.26751 5.45383,8.25 c 2.9996,4.5375 5.91276,8.25 6.47369,8.25 0.56093,0 0.7651,0.41224 0.4537,0.91608 -0.9462,1.531 1.29195,6.08392 2.99078,6.08392 1.12187,0 1.40986,0.5743 0.97502,1.94436 -0.4395,1.38473 0.0994,2.41384 1.87227,3.57547 1.36916,0.89711 2.25674,2.23736 1.97241,2.97832 -0.28434,0.74097 0.41782,2.28201 1.56034,3.42453 1.14253,1.14253 2.0776,2.41482 2.07795,2.82732 3.4e-4,0.4125 2.01059,3.31032 4.46721,6.4396 4.32651,5.51116 4.56933,5.66013 7.74277,4.75 1.8019,-0.51678 4.17916,-0.92463 5.28279,-0.90633 1.91323,0.0317 1.90002,0.12214 -0.28394,1.94312 l -2.29054,1.90985 2.24914,1.2037 c 1.23702,0.66204 3.01372,2.15013 3.94823,3.30688 2.35721,2.91781 15.45634,5.53013 22.30301,4.44781 5.80662,-0.9179 12.58068,0.66442 12.58068,2.93866 0,1.09634 -0.7575,1.3152 -2.99998,0.86671 -3.54696,-0.70939 -3.69052,-0.34052 -0.93851,2.41149 1.13382,1.13382 1.92132,3.01108 1.75,4.17167 -0.40002,2.70994 -2.81149,3.57491 -2.81149,1.00846 0,-2.46985 -5.78518,-4.29522 -12,-3.78628 -2.475,0.20268 -6.975,-0.0632 -10,-0.59081 -3.025,-0.52763 -9.325,-1.6387 -14,-2.46905 -4.675,-0.83036 -10.81888,-2.62079 -13.65308,-3.97874 -4.27617,-2.04885 -6.5132,-2.44428 -13.14576,-2.32374 -11.44922,0.20807 -17.77076,-1.59249 -22.94999,-6.53685 -2.33686,-2.23088 -4.03372,-4.63107 -3.7708,-5.33374 0.26292,-0.70268 -0.4126,-2.04019 -1.50117,-2.97224 -1.08856,-0.93206 -1.9792,-2.2375 -1.9792,-2.90098 0,-0.66348 -0.56775,-1.80098 -1.26166,-2.52776 -0.69392,-0.72679 -1.80927,-2.55893 -2.47856,-4.07143 -0.6693,-1.5125 -1.67655,-2.75 -2.23834,-2.75 -0.56181,0 -1.02146,-0.60526 -1.02146,-1.34501 0,-0.73976 -0.9,-2.1595 -2,-3.15499 -1.1,-0.99549 -2,-2.41142 -2,-3.14651 0,-0.7351 -0.92576,-1.90286 -2.05724,-2.59502 -1.13148,-0.69216 -2.72892,-2.6602 -3.54986,-4.37343 -3.22948,-6.73962 -6.93287,-8.41789 -11.1963,-5.07385 -0.71687,0.56229 -4.31687,1.64601 -8,2.40828 -3.68313,0.76227 -8.4966,1.81968 -10.6966,2.34981 -2.2,0.53013 -6.25,1.3756 -9,1.87883 -8.63096,1.5794 -14.92122,3.12978 -17.15465,4.22815 -1.18505,0.5828 -2.53505,0.83744 -3,0.56586 -0.46494,-0.27158 -4.22035,0.0936 -8.34535,0.81155 -11.96811,2.08297 -41.64056,1.76675 -57.5,-0.61279 -16.96625,-2.5456 -25.33858,-4.2019 -30,-5.93488 -9.33692,-3.47121 -13.60558,-3.48629 -20.3693,-0.072 -8.39152,4.23603 -13.80868,6.06852 -19.66505,6.65222 -4.44411,0.44294 -5.31455,0.2035 -7.42431,-2.04224 -1.53048,-1.62912 -3.49606,-2.55674 -5.46565,-2.57944 -4.18121,-0.0482 -6.54302,-1.55679 -12.03308,-7.68622 -4.64049,-5.18092 -4.71353,-5.2169 -9.3598,-4.61185 -2.57555,0.33539 -5.2256,1.03638 -5.88901,1.55775 -0.6634,0.52137 -1.69569,0.64541 -2.29397,0.27565 -1.55889,-0.96344 -5.99983,2.21986 -5.99983,4.30074 0,2.31596 -5.58609,13.07101 -8.33333,16.04438 -3.62922,3.92796 -7.38126,5.37519 -12.00736,4.63147 -6.38905,-1.02714 -8.27757,-2.71551 -9.70485,-8.67629 -1.04522,-4.36517 -2.25573,-6.24055 -6.86178,-10.63067 -9.31573,-8.87895 -12.09268,-9.96227 -12.09268,-4.71747 0,1.2837 -0.675,2.59301 -1.5,2.9096 -0.825,0.31658 -1.5,1.15889 -1.5,1.87179 0,0.71291 -0.9,2.9754 -2,5.02776 -1.1,2.05237 -2,4.69766 -2,5.87844 0,1.18078 -1.53003,5.34491 -3.40008,9.25362 -5.22046,10.91167 -6.59992,14.46869 -6.59992,17.01824 0,1.289 -0.675,2.90383 -1.5,3.58852 -0.825,0.68469 -1.5,2.38244 -1.5,3.77277 0,5.28097 -9.3192,20.22723 -12.61195,20.22723 -0.50045,0 -2.70499,1.56914 -4.89898,3.48697 -2.19399,1.91783 -4.66407,3.73243 -5.48907,4.03245 -0.825,0.30001 -2.4086,1.99338 -3.51912,3.76303 -1.81568,2.89337 -2.72506,3.32358 -9.02568,4.2699 -3.85361,0.57879 -7.56069,1.39481 -8.23795,1.81338 -0.74633,0.46126 -1.48703,0.0948 -1.8804,-0.93031 z m 433.66315,-40.43542 c -1.97089,-1.27369 -6,-1.27369 -6,0 0,0.55 1.6875,0.99311 3.75,0.98469 2.78938,-0.0114 3.36575,-0.26364 2.25,-0.98469 z m -23,-7.36587 c 0,-0.78244 -1.35,-2.8678 -3,-4.63413 -1.65,-1.76633 -3,-3.76978 -3,-4.45212 0,-1.92258 -3.03571,-7.54788 -4.07324,-7.54788 -0.50972,0 -0.92676,-0.70737 -0.92676,-1.57193 0,-1.90683 -4.93057,-10.63662 -6.58855,-11.6653 -0.65352,-0.40547 -1.49521,-1.96035 -1.87041,-3.45528 -0.3752,-1.49493 -1.57394,-3.34266 -2.66385,-4.10606 -1.08991,-0.76341 -1.79732,-1.90853 -1.57201,-2.54472 0.22531,-0.63619 -0.4571,-2.39459 -1.51645,-3.90754 -1.72546,-2.46428 -2.36168,-2.69057 -6.10742,-2.17225 -2.29972,0.31822 -5.08131,0.93756 -6.18131,1.37632 -1.1,0.43875 -3.25867,1.30377 -4.79705,1.92225 -1.53838,0.61848 -3.90088,1.12451 -5.25,1.12451 -1.34912,0 -2.45295,0.35161 -2.45295,0.78136 0,0.42974 2.25,3.14034 5,6.02355 2.75,2.88321 5,5.92072 5,6.75003 0,0.82931 0.675,1.76685 1.5,2.08343 0.825,0.31659 1.5,1.17695 1.5,1.91191 0,0.73497 0.7875,1.92433 1.75,2.64302 0.9625,0.71868 2.3438,2.4606 3.06955,3.87091 2.55396,4.96298 13.1616,17.44161 15.24658,17.93579 1.16025,0.275 5.44502,0.62527 9.52171,0.77838 5.8732,0.22058 7.41216,-0.017 7.41216,-1.14425 z M 354.13124,275.82765 c -0.0132,-1.45727 -0.14929,-1.48367 -0.98469,-0.19098 -1.2656,1.95837 -1.2656,3.28218 0,2.5 0.55,-0.33992 0.99311,-1.37898 0.98469,-2.30902 z M 332.077,248.2107 c 2.11601,-2.25239 2.14389,-4.57403 0.0549,-4.57403 -0.98141,0 -5.40017,-2.89738 -11.24736,-7.37491 -2.80872,-2.1508 -3.90849,-3.83888 -4.36633,-6.7021 -0.59236,-3.70437 -0.82475,-3.89541 -7.24185,-5.95321 -8.99519,-2.88452 -30.6415,-13.53368 -41.62985,-20.48029 -4.95,-3.12929 -11.25,-6.82089 -14,-8.20355 -2.75,-1.38267 -5.675,-3.10086 -6.5,-3.8182 -2.82697,-2.45806 -18.10195,-8.59079 -20.62119,-8.27917 l -2.51775,0.31143 2.06947,2.20819 c 1.13821,1.2145 2.06947,2.46399 2.06947,2.77665 0,0.31265 1.28836,2.01897 2.86301,3.79181 7.10055,7.99422 14.39386,16.5682 17.38215,20.43435 1.79016,2.31605 3.66941,4.22855 4.1761,4.25 0.50669,0.0214 1.63169,0.64764 2.5,1.39154 2.40487,2.06029 17.73735,8.28789 25.32763,10.28732 4.577,1.20568 6.93184,2.35422 7.31739,3.56897 0.37265,1.17412 1.55843,1.79117 3.44209,1.79117 1.58048,0 3.15171,0.45 3.49163,1 0.33992,0.55 1.43638,1 2.43657,1 1.0002,0 2.38777,0.68587 3.08349,1.52417 0.69572,0.83829 1.48154,1.30757 1.74626,1.04284 0.6141,-0.6141 7.89261,3.07211 8.72485,4.4187 0.34477,0.55786 1.88056,1.01429 3.41286,1.01429 1.5323,0 3.60048,0.9 4.59597,2 0.99549,1.1 2.81709,2 4.048,2 1.23091,0 2.49704,0.675 2.81363,1.5 0.86356,2.25041 4.00014,1.80827 6.56882,-0.92597 z m 288.06955,-87.57403 c 0,-0.55 -0.70156,-1 -1.55902,-1 -0.85746,0 -1.2809,0.45 -0.94098,1 0.33992,0.55 1.04148,1 1.55902,1 0.51754,0 0.94098,-0.45 0.94098,-1 z M 237.6403,133.81429 c -1.32566,-5.08842 -3.32907,-10.54198 -4.45202,-12.11902 -1.12295,-1.57704 -2.04173,-3.42359 -2.04173,-4.10344 0,-0.67985 -0.85449,-3.08539 -1.89887,-5.34563 -1.04438,-2.26024 -3.0506,-6.80953 -4.45828,-10.10953 -1.40767,-3.300005 -4.56765,-9.825005 -7.02218,-14.500005 -2.45453,-4.675 -6.94646,-13.33233 -9.98207,-19.23851 -3.03561,-5.90619 -6.6485,-12.21898 -8.02864,-14.02844 -1.38015,-1.80946 -3.3223,-5.07713 -4.3159,-7.26149 -0.9936,-2.18436 -3.98919,-7.32222 -6.65686,-11.41747 -2.66768,-4.09525 -5.07288,-8.02587 -5.34488,-8.73471 -0.93288,-2.43103 -6.8129,-8.18661 -9.3485,-9.15064 -1.39474,-0.53028 -7.24017,-1.06204 -12.98985,-1.18169 -13.51023,-0.28116 -14.0149,-0.21201 -10.88276,1.49125 1.41417,0.76902 3.88917,3.33851 5.5,5.70996 1.61084,2.37146 7.00856,9.48674 11.99495,15.81174 12.11967,15.37323 17.43384,22.68893 17.43384,24.00014 0,0.59705 1.96744,3.20376 4.37209,5.7927 2.40465,2.58894 6.44139,7.85716 8.97053,11.70716 2.52915,3.85 6.88115,10.375 9.67112,14.5 8.24924,12.196585 11.98626,18.121555 11.98626,19.003955 0,0.45616 0.3375,0.97938 0.75,1.16272 0.90075,0.40033 5.25,6.4972 5.25,7.35956 0,0.33397 1.01363,2.03969 2.25251,3.79049 1.23888,1.7508 2.70138,3.91338 3.25,4.80573 2.52495,4.10691 7.93703,11.77135 8.15686,11.55152 0.13457,-0.13458 -0.83996,-4.40794 -2.16562,-9.49635 z"
     id="path2987"
     inkscape:connector-curvature="0" />
</svg>
