<?xml version="1.0" encoding="UTF-8" standalone="no"?>
<!-- Created with Inkscape (http://www.inkscape.org/) -->

<svg
   xmlns:dc="http://purl.org/dc/elements/1.1/"
   xmlns:cc="http://creativecommons.org/ns#"
   xmlns:rdf="http://www.w3.org/1999/02/22-rdf-syntax-ns#"
   xmlns:svg="http://www.w3.org/2000/svg"
   xmlns="http://www.w3.org/2000/svg"
   xmlns:sodipodi="http://sodipodi.sourceforge.net/DTD/sodipodi-0.dtd"
   xmlns:inkscape="http://www.inkscape.org/namespaces/inkscape"
   id="svg2"
   version="1.1"
   inkscape:version="0.48.2 r9819"
   width="663.88562"
   height="426.83313"
   sodipodi:docname="Bobcat_(PSF)b.png">
  <metadata
     id="metadata8">
    <rdf:RDF>
      <cc:Work
         rdf:about="">
        <dc:format>image/svg+xml</dc:format>
        <dc:type
           rdf:resource="http://purl.org/dc/dcmitype/StillImage" />
        <dc:title></dc:title>
      </cc:Work>
    </rdf:RDF>
  </metadata>
  <defs
     id="defs6" />
  <sodipodi:namedview
     pagecolor="#ffffff"
     bordercolor="#666666"
     borderopacity="1"
     objecttolerance="10"
     gridtolerance="10"
     guidetolerance="10"
     inkscape:pageopacity="0"
     inkscape:pageshadow="2"
     inkscape:window-width="1920"
     inkscape:window-height="1176"
     id="namedview4"
     showgrid="false"
     fit-margin-top="0"
     fit-margin-left="0"
     fit-margin-right="0"
     fit-margin-bottom="0"
     inkscape:zoom="1"
     inkscape:cx="384.8618"
     inkscape:cy="245.83312"
     inkscape:window-x="0"
     inkscape:window-y="24"
     inkscape:window-maximized="1"
     inkscape:current-layer="svg2" />
  <path
     style="fill:#000000"
     d="m 591.883,425.38791 c -3.2883,-0.795 -6.4158,-1.88251 -6.95,-2.41669 C 584.3989,422.43705 582.9965,422 581.8168,422 c -5.0999,0 -7.6489,-7.54878 -5.0231,-14.87573 0.8625,-2.40665 1.5681,-5.49169 1.5681,-6.85564 0,-1.36396 1.123,-3.89488 2.4954,-5.62427 7.0449,-8.87675 6.5897,-8.53691 11.8503,-8.84776 4.6121,-0.27252 5.0912,-0.54012 5.9032,-3.2966 0.486,-1.65 0.8758,-7.89193 0.8661,-13.87096 -0.017,-10.50394 -0.1289,-11.05685 -3.3162,-16.37691 -1.9035,-3.17708 -4.9907,-6.59233 -7.2988,-8.07439 -2.2,-1.41265 -4.9,-3.32888 -6,-4.25829 -1.1,-0.92942 -4.925,-3.16466 -8.5,-4.96722 -3.575,-1.80256 -7.4,-4.0328 -8.5,-4.95609 -1.7082,-1.43376 -6.7129,-4.50799 -21.3536,-13.11683 -1.5159,-0.89138 -3.8565,-1.95711 -5.2013,-2.36828 -1.3448,-0.41118 -3.1201,-1.33024 -3.9451,-2.04236 -1.3373,-1.15429 -10.154,-4.68899 -15.5,-6.2141 -1.1,-0.3138 -4.4455,-2.30644 -7.4345,-4.42809 -3.8476,-2.73117 -5.7456,-3.54616 -6.5,-2.79117 -0.6389,0.63944 -1.0608,5.95038 -1.0537,13.26553 0.011,11.41554 1.1701,19.04072 3.703,24.36152 0.5661,1.1893 0.8388,5.15435 0.606,8.81123 -0.4564,7.16679 -1.521,8.74217 -9.8208,14.53209 -1.925,1.34288 -5.0315,3.91596 -6.9034,5.71796 -1.8719,1.802 -3.8613,3.27636 -4.421,3.27636 -0.9314,0 -11.65928,4.77683 -16.00384,7.12608 -1.00553,0.54373 -5.05553,1.3788 -9,1.85573 -3.94447,0.47692 -9.58978,1.78262 -12.54513,2.90154 -2.95536,1.11892 -5.65536,1.97717 -6,1.90721 -0.34465,-0.07 -2.20163,0.14819 -4.12663,0.48477 -1.925,0.33658 -9.125,1.10202 -16,1.70098 -21.29969,1.85567 -33.32897,3.16505 -37.68107,4.10156 -5.64963,1.21572 -9.47147,0.28906 -13.32538,-3.23094 -3.05723,-2.79235 -3.20463,-3.25207 -2.80668,-8.75369 0.33506,-4.63216 1.1171,-6.77513 3.86657,-10.59538 3.63111,-5.04525 4.34233,-5.61855 9.94656,-8.01782 1.925,-0.82413 4.77057,-2.50678 6.32348,-3.73923 2.36305,-1.8754 4.07531,-2.24437 10.5,-2.26263 7.36535,-0.0209 14.17652,-1.75032 14.17652,-3.5995 0,-0.48327 0.3375,-0.78021 0.75,-0.65985 0.4125,0.12035 3.9,-0.97785 7.75,-2.44044 3.85,-1.4626 9.1219,-3.41625 11.71533,-4.34145 2.59344,-0.9252 5.39659,-2.72191 6.22924,-3.99268 1.35313,-2.06514 1.35059,-2.76896 -0.0239,-6.62739 -0.84579,-2.37428 -2.21098,-7.24187 -3.03375,-10.81687 -2.78352,-12.09454 -3.4497,-14 -4.89466,-14 -0.78686,0 -3.2304,-0.93808 -5.43008,-2.08461 -4.96624,-2.58855 -8.69972,-3.05704 -10.17699,-1.27704 -1.30043,1.56692 -3.88518,1.8284 -3.88518,0.39303 0,-0.53273 -0.63435,-0.72519 -1.40966,-0.42767 -0.84751,0.32522 -1.67195,-0.28547 -2.06739,-1.53139 -0.68429,-2.15603 -3.10171,-2.83605 -3.70011,-1.04085 -0.23193,0.6958 -1.40487,0.66159 -3.60422,-0.1051 -2.49276,-0.86898 -3.60565,-0.85005 -4.72678,0.0804 -2.1247,1.76334 -4.49184,0.45885 -4.49184,-2.47539 0,-2.52882 -1.35339,-3.38663 -2.47638,-1.56959 -0.37948,0.61401 -1.52961,0.60623 -3.18066,-0.0215 -1.83309,-0.69694 -3.00982,-0.63173 -4.04081,0.22391 -1.75149,1.45361 -3.26255,-0.34586 -3.28684,-3.9142 -0.0216,-3.16874 -1.37106,-2.79515 -2.70921,0.75 -1.30696,3.46254 -2.89232,3.87907 -3.8061,1 -0.59698,-1.88093 -4.5,-2.9248 -4.5,-1.20353 0,1.3323 -5.01612,0.79619 -5.89752,-0.63032 -0.66215,-1.07164 -0.94363,-1.0225 -1.43193,0.25 -0.76441,1.99202 -2.67055,2.07646 -2.67055,0.1183 0,-1.10946 -0.97188,-1.36886 -4,-1.06761 -2.63056,0.2617 -4.00524,-0.007 -4.01531,-0.78445 -0.009,-0.69837 -0.40137,-0.57175 -0.95839,0.3093 -0.5187,0.82043 -0.70034,2.45884 -0.40366,3.64091 0.29668,1.18207 0.0894,2.42731 -0.46053,2.76721 -0.63147,0.39027 -0.42272,1.77506 0.56651,3.75802 1.29962,2.60515 1.34778,3.49019 0.28268,5.19569 -0.92864,1.48699 -0.96946,2.16043 -0.14754,2.4344 1.53319,0.51106 1.44803,3.9189 -0.11376,4.55262 -0.9663,0.39208 -0.93685,0.7263 0.12976,1.47254 0.86806,0.60733 1.21043,2.11902 0.92319,4.07613 -0.25111,1.71094 -0.1426,3.11079 0.24114,3.11079 0.38373,0 0.31956,2.02407 -0.1426,4.49793 -0.46217,2.47386 -0.59442,5.1387 -0.2939,5.92186 0.30053,0.78316 0.0305,2.38786 -0.59998,3.56599 -0.86335,1.61318 -0.8611,2.48583 0.009,3.53434 0.63551,0.76575 0.83302,1.91402 0.43891,2.55171 -0.62479,1.01092 -1.71509,16.83052 -1.64916,23.92817 0.0337,3.6306 2.04022,14.11181 3.22624,16.85274 1.6804,3.88343 -0.57821,13.2683 -4.65666,19.34921 -3.5965,5.36231 -5.06548,6.54243 -11.37603,9.13904 -9.3462,3.84568 -12.83281,4.81672 -18.24379,5.08095 -3.22549,0.1575 -6.38015,0.802 -7.01037,1.43222 -0.65175,0.65183 -4.293,1.14584 -8.44576,1.14584 -5.78774,0 -7.68594,-0.38594 -9.16301,-1.86301 -1.02465,-1.02465 -3.61215,-2.18773 -5.75,-2.58461 -4.11994,-0.76485 -7.38699,-3.03106 -7.38699,-5.12403 0,-1.97937 -2.27752,-2.26207 -4.83775,-0.60051 -2.02869,1.3166 -11.53861,2.5981 -17.66225,2.38005 -19.45317,-0.69265 -28.3016,-2.29234 -31,-5.60441 -0.55,-0.67508 -1.72351,-1.49836 -2.60781,-1.8295 -1.58396,-0.59315 -2.89219,-4.81479 -2.89219,-9.33307 0,-1.26999 1.15107,-4.92624 2.55794,-8.125 2.95219,-6.7123 8.72327,-11.87389 16.18381,-14.47464 l 4.75825,-1.65872 0.29469,-7.73721 c 0.20663,-5.42521 -0.16689,-8.70991 -1.25,-10.9924 -0.84958,-1.79036 -1.54469,-3.60188 -1.54469,-4.02561 0,-0.42372 -1.11871,-3.56675 -2.48603,-6.9845 -1.36731,-3.41775 -2.9622,-8.62806 -3.54419,-11.57846 -1.96001,-9.93634 -10.36668,-29.7098 -16.21339,-38.13577 -1.95716,-2.82054 -7.4795,-5.7286 -10.87851,-5.7286 -1.03284,0 -2.79194,-0.91406 -3.90913,-2.03125 -1.11719,-1.11719 -3.36719,-2.29844 -5,-2.625 -1.63281,-0.32656 -2.96875,-1.16436 -2.96875,-1.86176 0,-1.56518 -2.24339,-2.48199 -6.07331,-2.48199 -1.82674,0 -3.37463,-0.7444 -4.15876,-2 -0.68696,-1.1 -2.00304,-2 -2.92462,-2 -2.10193,0 -8.93478,-6.43795 -11.4094,-10.75 -1.02582,-1.7875 -2.67538,-3.25 -3.6657,-3.25 -1.06815,0 -2.4696,-1.40299 -3.44533,-3.44911 -1.13327,-2.37649 -2.42747,-3.54268 -4.16165,-3.75 -1.79088,-0.2141 -3.11461,-1.47219 -4.58906,-4.36152 -1.13969,-2.23335 -4.40366,-6.28335 -7.25326,-9 -2.8496,-2.71665 -5.48211,-6.16186 -5.85004,-7.65602 -0.36792,-1.49416 -1.18643,-2.61916 -1.81891,-2.5 -0.63248,0.11916 -2.04996,-1.67954 -3.14996,-3.99711 -1.1,-2.31757 -2.36964,-4.23007 -2.82143,-4.25 -1.48827,-0.0657 -3.17908,-2.50084 -3.14963,-4.53624 0.0159,-1.1 -1.10909,-3.1484 -2.5,-4.55201 -6.29388,-6.35128 -9.88544,-10.7358 -10.19411,-12.4448 -0.40004,-2.2149 -4.12097,-6.50319 -5.6428,-6.50319 -0.59324,0 -1.72428,-0.9218 -2.51341,-2.04845 -1.42507,-2.03457 -1.46538,-2.0278 -5.95173,1 -2.48432,1.67665 -5.20168,3.04845 -6.03858,3.04845 -0.8369,0 -1.671635,0.39052 -1.854975,0.86782 -0.79677,2.07435 -4.76195,2.20356 -6.7457,0.21981 -1.91716,-1.91716 -3.90352,-1.21679 -2.58763,0.91237 0.33992,0.55 -0.34866,1 -1.53018,1 -1.23413,0 -4.02505,-1.93112 -6.55902,-4.53838 -2.42594,-2.49611 -4.4108,-4.07111 -4.4108,-3.5 0,2.03584 -3.98236,0.99494 -5.59196,-1.46162 -0.90093,-1.375 -2.28365,-2.5 -3.07271,-2.5 -3.10335,0 -7.58731,-3.32787 -10.34677,-7.67909 -3.17664,-5.00905 -7.02077,-8.40074 -6.94501,-6.12761 0.024,0.71868 0.42355,3.274 0.888,5.67847 0.93332,4.83191 -0.45878,19.03985 -2.01939,20.61006 -0.63456,0.63847 -0.75317,-2.85864 -0.33914,-10 0.64063,-11.04986 -0.39194,-17.32981 -2.62274,-15.9511 -0.68457,0.42308 -0.81281,3.09337 -0.36623,7.62548 0.71743,7.28073 -1.10449,24.53008 -2.7825,26.34379 -0.56786,0.61378 -0.65558,-4.24181 -0.22714,-12.57222 C 44.755755,175.99322 43.765125,171 39.784255,171 c -2.2075,0 -2.42245,0.40279 -2.42245,4.53941 0,7.16094 -2.04998,23.86479 -3.05511,24.89392 -1.54645,1.5834 -1.71547,0.31016 -0.85398,-6.43333 1.00369,-7.85659 1.33073,-23.91169 0.50392,-24.7385 -1.15891,-1.15892 -1.65207,0.53739 -2.13612,7.34759 C 31.131435,186.30402 30.427795,190 29.271175,190 c -0.57103,0 -0.77102,-1.39415 -0.46622,-3.25 0.98603,-6.00362 1.06596,-18.24513 0.12243,-18.75 -0.51393,-0.275 -1.08095,1.075 -1.26004,3 -1.51171,16.24885 -3.25177,24 -5.38778,24 -0.66875,0 -0.85514,-0.71591 -0.4556,-1.75 2.2517,-5.82795 3.94627,-23.98156 2.81639,-30.17142 -0.86511,-4.73937 -3.27855,-6.88264 -3.27855,-2.91154 0,1.97581 -1.41383,9.09142 -3.69528,18.59774 -0.29894,1.24563 -0.93979,2.50968 -1.42412,2.80901 -0.48433,0.29934 -0.91223,2.43019 -0.95089,4.73523 -0.0386,2.30504 -0.40996,5.05808 -0.82513,6.11787 -0.67849,1.73195 -0.82032,1.75627 -1.40201,0.2404 -0.70319,-1.83247 0.28042,-7.75388 2.85167,-17.16729 2.05354,-7.51806 3.3439,-17.5 2.26222,-17.5 -0.44905,0 -0.81646,0.61901 -0.81646,1.37557 0,0.75656 -1.08114,3.82023 -2.40254,6.80814 -1.3214,2.98792 -2.98415,8.89391 -3.695,13.12443 C 10.553405,183.53866 9.6095549,187 9.1668049,187 c -1.83142,0 0.66853,-13.0263 4.5821301,-23.8757 2.20413,-6.11037 2.31695,-7.02388 0.93303,-7.55494 -2.85889,-1.09706 -4.9509701,3.49774 -7.3938401,16.23904 -0.66523,3.46963 -1.54724,5.94463 -1.96001,5.5 -1.34371,-1.44738 1.09565,-14.49717 3.65345,-19.54474 4.2092901,-8.30664 2.0491001,-7.58502 -2.4831,0.82948 -2.34232,4.34877 -3.99462,6.657 -3.67177,5.1294 C 3.6128349,160.00283 8.3935849,150 9.3852549,150 c 1.5338701,0 -0.26512,-3.94193 -2.05881,-4.51122 -2.18528,-0.69358 -5.96948,-6.8073 -6.08282,-9.82735 -0.16846,-4.4886 3.30202,-17.06874 6.61584,-23.98174 2.13721,-4.45848 3.6795801,-9.45378 4.0694001,-13.17969 0.34526,-3.3 0.78934,-6.26287 0.98686,-6.58416 1.09574,-1.78236 1.33458,-7.25567 0.39336,-9.01435 -0.60039,-1.12183 -3.27666,-4.4525 -5.9472801,-7.40149 -6.06728,-6.6997 -7.69887999,-9.5 -5.53518,-9.5 0.84435,0 1.53518,0.45 1.53518,1 0,0.55 0.46583,1 1.03518,1 1.28909,0 -0.0687,-2.64854 -2.89322,-5.64355 C 0.39192491,61.1775 -0.24485509,59.94 0.08868491,59.60645 1.8490949,57.84605 4.5353649,59.65845 8.8241049,65.5 11.448775,69.075 14.128085,72 14.778135,72 c 0.65004,0 1.75142,1.575 2.44751,3.5 0.69609,1.925 1.62409,3.5 2.06222,3.5 1.65775,0 -0.41751,-5.70782 -6.07391,-16.70569 C 7.4365949,51.06127 6.6417749,48.9916 8.1118049,49.00875 c 1.26192,0.0147 8.2008001,11.44348 11.3334401,18.66686 2.62319,6.04868 2.89114,6.36972 2.3573,2.82439 -0.48676,-3.23267 -4.19039,-17.63279 -5.97978,-23.25 -0.219,-0.6875 0.20976,-1.25 0.95281,-1.25 1.55652,0 6.02225,13.2072 7.70962,22.80086 0.60953,3.46547 1.31054,6.09854 1.55782,5.85127 0.63774,-0.63775 -1.38644,-24.76275 -2.26864,-27.03858 -0.51906,-1.33901 -0.34583,-1.75797 0.59694,-1.44371 2.14792,0.71597 3.94082,7.4697 4.09483,15.42501 0.0811,4.19145 0.57881,7.40515 1.14674,7.40515 0.60239,0 0.81001,-2.01241 0.51953,-5.03554 -0.32866,-3.42044 -0.12892,-4.91884 0.62277,-4.67167 0.60864,0.20013 1.25042,1.34112 1.42617,2.53554 0.40489,2.75163 0.56136,2.73352 4.99717,-0.57833 4.37491,-3.26638 5.60732,-4.70238 7.66361,-8.9296 1.52075,-3.12627 1.48784,-3.24369 -1.96204,-7 -1.92981,-2.10122 -3.51089,-4.62373 -3.51351,-5.60558 -0.003,-0.98185 -0.76728,-2.94891 -1.69922,-4.37124 -1.59545,-2.43496 -1.5936,-2.65979 0.0317,-3.84822 1.4734,-1.07738 1.5468,-1.65577 0.50131,-3.95038 -0.9724,-2.13417 -0.96697,-2.84757 0.0263,-3.46145 0.79585,-0.49187 1.00863,-1.73943 0.58473,-3.42839 C 38.390415,18.97778 38.553185,18 39.253415,18 c 0.6754,0 1.10841,-2.12556 1.10841,-5.44098 0,-2.99254 0.45,-5.7191 1,-6.05902 0.55,-0.33992 1,0.0835 1,0.94098 0,0.85746 0.79767,1.55902 1.7726,1.55902 1.01976,0 2.6124,1.56827 3.75,3.69262 2.76899,5.17084 12.6729,14.72183 13.56184,13.07858 0.37823,-0.69916 1.21304,-4.6462 1.85514,-8.7712 1.84304,-11.84005 3.30254,-17 4.80849,-17 0.75348,0 1.09185,0.45 0.75193,1 -0.33992,0.55 -0.19689,1 0.31784,1 0.51473,0 1.94777,2.3625 3.18453,5.25 1.23676,2.8875 2.55937,5.475 2.93914,5.75 0.37977,0.275 2.06907,2.525 3.754,5 1.68493,2.475 5.93023,6.96625 9.434,9.98055 3.50377,3.01429 6.95851,6.27679 7.67719,7.25 0.71869,0.9732 2.14472,1.76945 3.16896,1.76945 2.803195,0 8.093285,3.325 7.557285,4.75 -0.32169,0.85523 0.66394,1.25 3.12088,1.25 2.97976,0 3.39151,0.24044 2.41881,1.41247 -0.98324,1.18474 -0.15653,1.48801 5.12756,1.88101 3.46489,0.25771 8.9998,1.3908 12.2998,2.518 12.62234,4.31147 16.82439,5.24509 30.20496,6.71104 7.58727,0.83124 17.62004,2.46515 22.29504,3.6309 7.68748,1.91694 11.76211,2.14603 42.62592,2.39651 28.66652,0.23265 35.14563,0.55456 40.5,2.01221 3.50574,0.95438 6.80158,2.11833 7.32408,2.58655 0.5225,0.46822 2.15966,0.85131 3.63813,0.85131 1.47848,0 6.67598,1.18331 11.55,2.62958 17.44967,5.17784 19.97397,5.70801 28.36187,5.95676 4.675,0.13864 11.2,-0.35213 14.5,-1.09059 3.3,-0.73847 10.05,-2.25608 15,-3.37247 20.4093,-4.60299 29.8917,-5.52217 57.5,-5.57376 14.575,-0.0272 33.025,0.50261 41,1.17744 7.975,0.67483 23.05,1.4369 33.5,1.69349 20.4225,0.50146 40.4099,2.26218 41.95,3.69544 0.5225,0.48626 1.6649,0.88411 2.5386,0.88411 0.8737,0 3.2226,0.83308 5.2197,1.85128 1.9971,1.0182 6.2548,2.85659 9.4614,4.0853 3.2067,1.22872 7.0426,2.88118 8.5242,3.67214 2.698,1.44028 5.4007,1.89518 18.1243,3.05061 7.0072,0.63633 16.4186,-1.4914 19.5032,-4.40933 0.7268,-0.6875 1.9015,-1.25 2.6105,-1.25 0.709,0 3.0393,-1.20005 5.1786,-2.66677 2.1392,-1.46673 4.5645,-2.74228 5.3895,-2.83457 2.1214,-0.2373 9,-4.51539 9,-5.59744 0,-0.49567 0.6261,-0.90122 1.3913,-0.90122 0.7653,0 3.6255,-2.1375 6.3562,-4.75 2.7307,-2.6125 6.3623,-5.9642 8.0703,-7.44823 2.9432,-2.5573 3.0853,-3.01429 2.7201,-8.75 C 623.59742,42.3029 623.82072,41 624.93812,41 c 1.6385,0 1.781,-0.88676 0.4744,-2.95225 -0.5053,-0.79874 -0.6705,-1.85398 -0.367,-2.34497 0.3035,-0.491 1.3866,0.38 2.407,1.93554 l 1.8554,2.82826 -0.2051,-3.98329 c -0.2462,-4.78044 1.476,-6.21499 2.3809,-1.98329 0.583,2.72632 0.6535,2.77193 0.7734,0.5 0.3689,-6.98831 3.0204,-9.66159 3.2235,-3.25 l 0.1188,3.75 1.1463,-4.81821 c 1.2955,-5.44504 2.6161,-5.23006 2.6161,0.42586 0,2.07587 0.45,4.05243 1,4.39235 0.5552,0.3431 1.0068,-0.40913 1.0153,-1.69098 0.019,-2.81577 1.5992,-5.52781 2.6242,-4.50282 0.4116,0.41154 0.645,2.49952 0.5187,4.63994 -0.1263,2.14042 0.2364,4.17972 0.8061,4.53178 0.606,0.37457 1.0357,-0.37069 1.0357,-1.79646 0,-1.34011 0.675,-2.99677 1.5,-3.68146 1.2997,-1.07869 1.5,-0.5689 1.5,3.81854 0,5.1634 1.5955,8.05355 2.1785,3.94629 0.5741,-4.04394 2.3072,-2.39416 2.8734,2.73517 0.3963,3.58988 0.779,4.50646 1.357,3.25 1.4015,-3.04658 2.7134,-1.91862 2.0265,1.74247 -0.8862,4.72418 0.054,7.17614 2.1006,5.47765 2.2094,-1.8336 2.8551,-0.53088 1.5676,3.16241 -0.8407,2.41167 -0.8375,3.4139 0.013,3.93925 0.6271,0.38754 0.8309,1.20493 0.453,1.81642 -0.3937,0.63708 -0.01,1.1118 0.8976,1.1118 1.4278,0 1.4189,0.32173 -0.09,3.25 -0.9211,1.7875 -2.5076,3.83802 -3.5257,4.5567 -1.0181,0.71869 -1.8511,2.02594 -1.8511,2.90499 0,1.42164 0.2101,1.40818 1.9007,-0.12185 2.7839,-2.5194 3.6864,-0.15165 1.1643,3.05467 -1.1358,1.44387 -2.065,3.86277 -2.065,5.37534 0,3.03362 -3.8724,6.35007 -6.3186,5.4114 -0.7828,-0.3004 -1.6923,0.15467 -2.021,1.01128 -0.4124,1.07488 -0.01,1.55747 1.312,1.55747 2.283,0 3.7095,1.85405 1.841,2.39286 -0.7224,0.2083 -3.3384,0.93638 -5.8134,1.61796 -4.0251,1.10846 -4.2626,1.32817 -2.25,2.08199 3.8048,1.42511 2.5003,2.90719 -2.5589,2.90719 -2.6802,0 -5.6681,0.64991 -6.75,1.4682 -1.8484,1.39807 -1.7995,1.46971 1.0232,1.5 2.802,0.0301 2.8702,0.12584 1.2464,1.74968 -1.4186,1.41862 -2.2256,1.52625 -4.6322,0.61787 -3.9874,-1.50508 -5.7911,0.26579 -2.7676,2.71723 2.7419,2.22308 1.8188,3.32702 -1.6722,1.99975 -1.7868,-0.67934 -3.5265,-0.66567 -5.3887,0.0423 -2.4406,0.92791 -2.5531,1.15577 -1,2.02494 3.462,1.93746 1.8919,3.08719 -3.25,2.37999 -3.4451,-0.47382 -5,-0.33774 -5,0.43755 0,0.61887 0.675,1.38424 1.5,1.70082 1.8266,0.70093 2.0027,3.36163 0.2225,3.36163 -0.7026,0 -2.3067,-0.7209 -3.5647,-1.602 -2.4791,-1.73647 -4.27,-1.11023 -2.3411,0.81867 1.6178,1.61782 1.4851,2.78337 -0.3167,2.78337 -0.825,0 -1.5,-0.45 -1.5,-1 0,-0.55 -0.7053,-1 -1.5674,-1 -1.1123,0 -1.3831,0.58068 -0.9326,2 0.4433,1.3966 0.1797,2 -0.8736,2 -0.8296,0 -1.7865,-0.45 -2.1264,-1 -0.3399,-0.55 -1.0491,-1 -1.5759,-1 -0.5268,0 0.1674,2.22042 1.5426,4.93427 1.3752,2.71385 2.7962,7.45151 3.1578,10.52812 0.3616,3.07661 1.044,5.83275 1.5165,6.12474 0.4724,0.292 0.859,1.40435 0.859,2.47189 0,1.06754 0.4988,1.94098 1.1084,1.94098 0.6939,0 0.8648,0.97081 0.457,2.59565 -0.3755,1.49602 -0.1473,3.20315 0.5386,4.02962 0.9215,1.1104 0.9115,2.04526 -0.044,4.14317 -1.5462,3.39352 -1.958,15.14792 -0.6117,17.46029 0.6856,1.17739 0.6527,2.66611 -0.1028,4.66787 -0.7205,1.90871 -0.7677,3.28087 -0.1347,3.91391 0.6331,0.63303 0.6284,1.62593 -0.013,2.83213 -0.5434,1.02155 -1.2693,5.45736 -1.613,9.85736 -0.8336,10.66988 -1.5278,15.36919 -2.8283,19.14744 -0.7876,2.28798 -0.7749,3.92638 0.047,6 0.7797,1.96805 0.8798,6.10835 0.3228,13.35256 -0.5842,7.59929 -0.4118,13.26258 0.6241,20.5 1.7538,12.25332 4.0097,22.17087 4.1512,18.25 0.1275,-3.53124 2.0993,-3.6199 2.0993,-0.0944 0,1.46058 1.125,4.13056 2.5,5.93328 1.375,1.80272 2.5,3.56797 2.5,3.92279 0,1.59274 8.3851,8.48926 10.3316,8.49746 3.238,0.0137 11.2544,4.19484 13.4889,7.03557 1.0785,1.37116 3.1458,4.61525 4.594,7.2091 l 2.6329,4.71608 0.1682,37.76506 c 0.1518,34.05776 0.1384,42.29107 -0.084,51.62295 -0.07,2.93519 -3.5135,9.59801 -7.123,13.7821 -1.1198,1.298 -2.6014,3.16815 -3.2925,4.15589 -1.3211,1.88826 -6.1138,2.82753 -15.7162,3.08008 -3.1254,0.0822 -7.0111,0.93516 -9,1.97557 -4.5931,2.40275 -8.4631,3.00618 -10.9034,1.70014 -1.31,-0.70107 -2.1839,-0.71939 -2.5949,-0.0544 -0.7358,1.19047 -0.4436,1.21278 -7.9805,-0.60939 z"
     id="path2987"
     inkscape:connector-curvature="0" />
</svg>
