<?xml version="1.0" encoding="UTF-8" standalone="no"?>
<!-- Created with Inkscape (http://www.inkscape.org/) -->

<svg
   xmlns:dc="http://purl.org/dc/elements/1.1/"
   xmlns:cc="http://creativecommons.org/ns#"
   xmlns:rdf="http://www.w3.org/1999/02/22-rdf-syntax-ns#"
   xmlns:svg="http://www.w3.org/2000/svg"
   xmlns="http://www.w3.org/2000/svg"
   xmlns:sodipodi="http://sodipodi.sourceforge.net/DTD/sodipodi-0.dtd"
   xmlns:inkscape="http://www.inkscape.org/namespaces/inkscape"
   id="svg2"
   version="1.1"
   inkscape:version="0.48.2 r9819"
   width="2174.832"
   height="1316.4698"
   sodipodi:docname="Agouti_A-42_(PSF)c.png">
  <metadata
     id="metadata8">
    <rdf:RDF>
      <cc:Work
         rdf:about="">
        <dc:format>image/svg+xml</dc:format>
        <dc:type
           rdf:resource="http://purl.org/dc/dcmitype/StillImage" />
        <dc:title></dc:title>
      </cc:Work>
    </rdf:RDF>
  </metadata>
  <defs
     id="defs6" />
  <sodipodi:namedview
     pagecolor="#ffffff"
     bordercolor="#666666"
     borderopacity="1"
     objecttolerance="10"
     gridtolerance="10"
     guidetolerance="10"
     inkscape:pageopacity="0"
     inkscape:pageshadow="2"
     inkscape:window-width="1600"
     inkscape:window-height="876"
     id="namedview4"
     showgrid="false"
     fit-margin-top="0"
     fit-margin-left="0"
     fit-margin-right="0"
     fit-margin-bottom="0"
     inkscape:zoom="0.4165802"
     inkscape:cx="1118.1361"
     inkscape:cy="675.18432"
     inkscape:window-x="0"
     inkscape:window-y="24"
     inkscape:window-maximized="1"
     inkscape:current-layer="svg2" />
  <path
     style="fill:#000000"
     d="m 1588.1594,1315.4052 c -2.0165,-0.975 -2.1466,-1.6376 -1.803,-9.1823 0.2583,-5.6741 0.9906,-9.3285 2.4233,-12.0928 1.1291,-2.1788 2.053,-4.5413 2.053,-5.25 0,-0.7087 0.45,-1.2886 1,-1.2886 0.55,0 1.0029,-0.5625 1.0064,-1.25 0.019,-3.724 26.7145,-31.7486 30.2436,-31.7495 0.9625,-3e-4 1.75,-0.4137 1.75,-0.9187 0,-0.505 0.2998,-1.6995 0.6662,-2.6544 0.5892,-1.5352 0.1856,-1.6593 -3.4862,-1.0722 -2.2839,0.3652 -5.7471,1.4245 -7.6961,2.3538 -3.0288,1.4444 -4.1984,1.5147 -8.0513,0.4842 -3.7827,-1.0117 -4.9887,-0.957 -7.4971,0.3402 -2.1899,1.1324 -3.8512,1.3091 -6.2124,0.6609 -4.6067,-1.2647 -34.9092,1.7796 -38.9074,3.9088 -0.9263,0.4933 -3.0817,0.8969 -4.7898,0.8969 -1.7081,0 -5.0001,0.9751 -7.3157,2.1668 -2.3156,1.1918 -6.0102,2.3129 -8.2102,2.4915 -2.2,0.1785 -6.6549,0.5362 -9.8998,0.7949 -3.2448,0.2587 -8.3057,1.0088 -11.2463,1.6669 -4.527,1.0131 -5.6154,0.9656 -7.1002,-0.3098 -3.0586,-2.6272 -5.1672,-2.8233 -8.5154,-0.792 -3.8924,2.3613 -4.0492,2.4251 -9.7383,3.9599 -2.475,0.6677 -5.9778,1.8458 -7.7839,2.6179 -4.0249,1.7207 -8.4101,1.8099 -10.0161,0.2039 -2.0552,-2.0552 -1.4785,-9.2392 0.9148,-11.395 1.1631,-1.0478 2.4897,-2.8853 2.948,-4.0834 0.4583,-1.198 3.4441,-4.1204 6.6352,-6.494 3.1911,-2.3737 6.2163,-4.9782 6.7226,-5.7878 0.5063,-0.8095 1.8954,-2.3872 3.0868,-3.5059 1.1914,-1.1186 6.8928,-6.5715 12.6699,-12.1175 13.9909,-13.4312 16.445,-14.5241 37.8227,-16.8441 1.925,-0.2089 4.85,-0.9348 6.5,-1.613 1.65,-0.6782 4.8,-1.5859 7,-2.017 6.0096,-1.1778 12.9012,-3.1311 13.7734,-3.9039 0.4254,-0.3769 0.9767,-1.7409 1.2252,-3.0312 0.2485,-1.2903 1.5243,-3.5073 2.8351,-4.9266 1.3108,-1.4193 3.1916,-3.9968 4.1796,-5.7277 1.6979,-2.9746 8.2039,-7.3529 10.9262,-7.3529 0.6878,0 2.0325,-0.864 2.9882,-1.9201 3.7699,-4.1657 13.9965,-5.0779 43.3551,-3.8671 10.9731,0.4525 18.2507,0.3448 19.9339,-0.2952 1.8429,-0.7006 3.4833,-0.6632 5.3812,0.123 2.438,1.0098 3.3547,0.7211 8.5661,-2.6981 3.2098,-2.1059 6.6005,-4.1465 7.5349,-4.5346 0.9343,-0.3881 2.5093,-1.4389 3.5,-2.3351 3.8565,-3.4889 16.513,-12.3179 19.3315,-13.4854 1.6333,-0.6765 2.9696,-1.6779 2.9696,-2.2252 0,-0.5474 2.5875,-3.6247 5.75,-6.8384 3.1625,-3.2138 7.7321,-7.8873 10.1548,-10.3855 2.4226,-2.4983 6.416,-6.0039 8.8742,-7.7903 6.2495,-4.5416 11.7079,-10.5136 15.7605,-17.2435 1.9033,-3.1608 3.4605,-6.0682 3.4605,-6.4611 0,-0.3928 4.1625,-4.9896 9.25,-10.2149 12.2329,-12.5645 13.6017,-14.6556 16.9065,-25.8285 0.5693,-1.925 1.8125,-4.4 2.7625,-5.5 1.8991,-2.199 4.329,-9.5 3.1617,-9.5 -0.4026,0 -1.789,1.125 -3.0807,2.5 -1.2917,1.375 -3.0577,2.5023 -3.9243,2.5051 -1.5976,0.01 -3.5778,1.8523 -13.2123,12.3248 -7.8297,8.5108 -9.0954,9.7385 -11.8972,11.5405 -1.3935,0.8963 -4.4151,3.6877 -6.7146,6.2031 -2.2995,2.5154 -5.7718,5.4303 -7.7163,6.4774 -1.9444,1.0472 -3.5353,2.6112 -3.5353,3.4756 0,1.9192 -21.2864,24.077 -25.5887,26.6362 -6.5461,3.8938 -11.0348,7.2704 -14.1664,10.6563 -1.7902,1.9357 -5.3902,4.2765 -8,5.2017 -2.6097,0.9253 -8.4948,3.477 -13.078,5.6704 -4.5832,2.1935 -9.8036,4.1048 -11.601,4.2474 -1.7973,0.1426 -3.7082,0.5314 -4.2462,0.8639 -0.5381,0.3326 -4.0927,1.0834 -7.899,1.6684 -3.8064,0.5851 -7.8207,1.45 -8.9207,1.922 -6.8524,2.9403 -7.7484,3.1459 -9.0401,2.0739 -1.4711,-1.2209 -6.0985,0.688 -8.4052,3.4674 -0.7148,0.8612 -2.1245,1.5659 -3.1327,1.5659 -1.0083,0 -3.491,1.125 -5.5171,2.5 -2.0262,1.375 -4.8587,2.5054 -6.2944,2.512 -1.4358,0.01 -4.5689,1.1317 -6.9626,2.5 -2.3936,1.3684 -5.4372,2.488 -6.7635,2.488 -1.3264,0 -3.1929,0.4228 -4.148,0.9396 -0.955,0.5168 -2.8614,1.1723 -4.2364,1.4567 -1.375,0.2843 -5.5087,2.5351 -9.186,5.0016 -3.6774,2.4665 -8.1774,5.2493 -10,6.184 -1.8227,0.9347 -4.6143,2.785 -6.2036,4.1117 -6.8602,5.7269 -11.6943,-0.4716 -9.4438,-12.1092 1.1275,-5.8304 3.7353,-10.7505 13.5834,-25.6268 1.7875,-2.7002 3.25,-5.3151 3.25,-5.811 0,-0.496 0.675,-1.4619 1.5,-2.1466 4.3017,-3.5701 -0.5907,-5.1352 -9,-2.8792 -2.2,0.5902 -6.475,1.4405 -9.5,1.8896 -3.025,0.449 -9.0075,1.377 -13.2944,2.0621 -5.3936,0.8621 -9.3979,0.9556 -13,0.3036 -3.0664,-0.5549 -7.0088,-0.585 -9.5935,-0.073 -3.7627,0.7453 -4.8069,0.5593 -7.3292,-1.3055 -2.5208,-1.8637 -3.3392,-2.0098 -5.7243,-1.0219 -1.5306,0.634 -4.7575,1.0114 -7.1708,0.8385 -3.4218,-0.245 -4.6051,-0.8096 -5.3749,-2.5642 -1.4292,-3.2576 -4.0159,-2.7681 -7.1608,1.355 -2.485,3.258 -3.1106,3.5566 -6.4993,3.1021 -2.3398,-0.3139 -4.4271,0.011 -5.5513,0.8632 -0.9908,0.7513 -3.624,1.3804 -5.8515,1.3979 -2.2275,0.017 -4.5381,0.5199 -5.1347,1.1165 -0.5965,0.5965 -2.149,0.934 -3.45,0.75 -2.8097,-0.3976 -3.6009,-3.6214 -1.7262,-7.0331 0.6956,-1.2659 1.3572,-2.7516 1.4703,-3.3016 0.878,-4.2717 5.2819,-11.0457 10.2808,-15.8139 3.2787,-3.1273 6.3599,-5.6861 6.847,-5.6861 0.4871,0 1.8004,-0.8522 2.9183,-1.8937 1.118,-1.0415 3.5231,-2.6644 5.3447,-3.6064 1.8216,-0.942 3.8043,-2.1173 4.4059,-2.6119 2.5913,-2.13 13.6404,-7.267 20.0939,-9.3423 6.6819,-2.1486 16.7785,-4.5298 26.5,-6.2496 3.921,-0.6937 4.5405,-1.1474 4.8145,-3.5265 0.2772,-2.4061 6.2943,-8.7696 8.2922,-8.7696 0.358,0 3.2665,-1.575 6.4633,-3.5 3.1968,-1.925 6.6324,-3.5 7.6347,-3.5 1.0024,0 2.6038,-0.3892 3.5589,-0.8649 7.8887,-3.9296 13.7573,-6.1351 16.3243,-6.1351 1.674,0 4.002,-0.5129 5.1733,-1.1398 1.2079,-0.6464 8.5364,-1.3053 16.9308,-1.5221 13.0855,-0.338 15.2368,-0.16 18.5602,1.5355 5.5722,2.8427 10.7713,4.0065 20.2369,4.5297 8.0232,0.4436 8.6818,0.3222 12,-2.2114 6.438,-4.9157 18.055,-12.1919 19.4652,-12.1919 0.7659,0 3.3395,-1.4849 5.7191,-3.2997 2.3796,-1.8148 6.4632,-4.1773 9.0747,-5.25 2.6114,-1.0727 6.6614,-3.4125 9,-5.1996 2.3385,-1.787 7.4015,-5.387 11.2511,-8 3.8496,-2.6129 11.4729,-8.2881 16.9406,-12.6116 9.0491,-7.1553 24.016,-17.6391 25.1821,-17.6391 1.2662,0 19.5186,-19.78089 20.0028,-21.67779 0.732,-2.8677 -0.099,-5.2695 -2.8799,-8.3222 -5.664,-6.2178 -9.5792,-11.7924 -10.6766,-15.2018 -1.1997,-3.7272 -16.7847,-20.7982 -18.9877,-20.7982 -0.5943,0 -1.0805,0.8449 -1.0805,1.8775 0,2.3924 -2.3765,4.3874 -4.702,3.9473 -1.2865,-0.2435 -2.2247,-2.0958 -3.298,-6.5111 -1.4205,-5.8436 -1.6029,-6.095 -3.4411,-4.7422 -1.0677,0.7856 -2.5531,1.4285 -3.3011,1.4285 -1.9128,0 -4.2578,-6.14277 -4.2578,-11.15345 0,-2.92176 -0.6518,-4.91146 -2.1213,-6.47569 -1.9679,-2.09471 -2.2902,-2.14734 -4.457,-0.72762 -2.6085,1.70914 -2.5913,1.71678 -10.4249,-4.64326 -4.6077,-3.741 -9.8778,-8.85024 -19.4968,-18.90181 -5.3981,-5.64083 -10.0263,-9.09819 -12.1793,-9.09819 -0.4283,0 0.1936,1.0125 1.3819,2.25 1.1882,1.2375 3.9913,4.14468 6.2289,6.4604 4.674,4.837 5.3797,8.2896 1.6943,8.2896 -2.6138,0 -6.4487,-3.64934 -18.1903,-17.3102 -0.8558,-0.99562 -2.8277,-3.81567 -4.3822,-6.2668 -2.9714,-4.68537 -7.7405,-9.06917 -8.7586,-8.05101 -0.33,0.33 0.6027,1.54604 2.0726,2.7023 2.8699,2.25743 5.6327,6.85638 5.6327,9.37605 0,3.26951 -4.7509,1.69019 -8.4331,-2.80333 -1.9618,-2.39415 -3.5669,-4.68718 -3.5669,-5.09563 0,-0.40845 -0.8344,-1.93711 -1.8542,-3.39701 -1.0198,-1.4599 -2.1295,-3.77937 -2.4661,-5.15437 -0.6519,-2.66365 -8.5726,-11.27266 -17.9626,-19.52368 -3.1444,-2.76303 -5.7171,-4.88557 -5.7171,-4.71676 0,0.16881 1.1012,2.42947 2.447,5.02368 2.4206,4.66573 12.0054,15.27569 16.4962,18.26045 1.7562,1.16727 2.1518,2.08168 1.6223,3.75 -1.0358,3.26341 -3.463,2.7122 -9.3609,-2.12583 -6.4824,-5.31753 -7.2066,-6.31407 -15.1782,-20.88509 -1.4194,-2.59454 -2.5069,-3.53563 -3.6006,-3.11594 -2.4137,0.92623 -8.9645,-6.10706 -13.994,-15.02468 -2.4375,-4.32182 -4.4318,-8.2934 -4.4318,-8.82574 0,-0.53234 -3.4875,-5.43822 -7.75,-10.90196 -12.3762,-15.86401 -14.9413,-19.76075 -20.6789,-31.41445 -5.9482,-12.08132 -8.7338,-15.68499 -15.7454,-20.36921 -7.5067,-5.01493 -9.233,-5.39763 -11.6757,-2.5883 -2.0052,2.30616 -2.0207,2.52073 -0.3881,5.36531 0.9353,1.6297 1.3859,3.27771 1.0014,3.66225 -1.3185,1.31848 -6.6255,-1.75666 -10.6352,-6.16253 -2.2062,-2.42413 -4.825,-4.39321 -5.8197,-4.37572 -2.8523,0.0502 -5.0294,2.25329 -4.9141,4.97296 0.09,2.13193 -0.2808,2.45024 -2.5488,2.18619 -1.46,-0.16998 -2.949,0.16752 -3.309,0.75 -1.7526,2.83578 -13.2403,-1.03304 -16.1207,-5.42914 -2.5275,-3.85741 -0.6134,-5.30799 4.0709,-3.08514 1.9819,0.94047 4.1457,1.50785 4.8084,1.26083 0.6627,-0.24701 0,-0.92771 -1.4639,-1.51267 -1.4678,-0.58496 -3.2712,-2.32059 -4.0076,-3.85697 -1.5064,-3.14304 -4.8236,-4.41077 -4.8236,-1.84344 0,0.89159 -1.1291,2.66752 -2.5092,3.9465 l -2.5092,2.32543 4.0092,4.00918 c 4.0779,4.07785 5.319,8.24447 2.4559,8.24447 -1.7307,0 -15.0837,-10.44628 -15.7379,-12.31201 -0.283,-0.80702 -1.1048,-0.57709 -2.5627,0.717 -1.1804,1.04774 -2.1365,2.17274 -2.1247,2.5 0.012,0.32725 1.8117,1.86169 4,3.40986 4.3137,3.05195 5.0548,5.20881 2.1107,6.14323 -2.6543,0.84243 -6.3018,-0.78159 -9.9506,-4.43042 -2.3728,-2.3728 -3.5513,-2.92008 -4.7925,-2.2255 -1.1229,0.62844 -1.2873,1.14265 -0.5174,1.61847 1.5366,0.9497 1.4356,5.58066 -0.1216,5.57411 -0.6875,-0.003 -2.5541,-0.79732 -4.148,-1.76538 -2.4203,-1.46997 -3.7558,-1.60297 -8.1017,-0.80685 -4.3837,0.80305 -5.3709,1.39641 -6.2651,3.76538 -1.3662,3.61939 -4.9745,3.74379 -9.0528,0.31211 -2.3675,-1.99209 -4.0592,-2.49689 -8.3268,-2.48469 -3.5323,0.0101 -4.8755,0.31921 -3.9455,0.90796 0.8284,0.52444 1.6014,3.19934 1.8738,6.48469 0.4487,5.41013 0.3831,5.59204 -2.015,5.59204 -1.7076,0 -4.0982,-1.71229 -7.6842,-5.50391 -4.322,-4.56998 -5.6193,-5.40001 -7.645,-4.8916 -2.791,0.70049 -2.8284,0.80078 -1.3368,3.58774 1.2567,2.34827 -0.219,6.80777 -2.2529,6.80777 -0.656,0 -3.1331,-2.025 -5.5046,-4.5 -4.6439,-4.84664 -9.6388,-6.33803 -8.6574,-2.58492 0.8111,3.10134 -3.7934,5.49456 -8.9591,4.6566 -2.3259,-0.37729 -6.0289,-0.91849 -8.2289,-1.20266 -2.2,-0.28417 -5.4325,-1.60846 -7.1833,-2.94285 -1.9372,-1.47645 -4.4816,-2.41057 -6.5,-2.38632 l -3.3167,0.0398 3.9981,1.99399 c 2.199,1.09669 4.6597,2.65555 5.4683,3.46412 1.2935,1.29351 1.2153,1.72494 -0.6508,3.59105 -1.9936,1.99356 -2.2602,2.02335 -4.4408,0.49603 -2.9469,-2.06411 -7.8748,-2.16428 -7.8748,-0.16006 0,4.24592 -7.8531,3.94634 -17.7322,-0.67644 -5.3056,-2.48272 -6.941,-2.81195 -11,-2.21457 -2.6223,0.38594 -5.633,1.29902 -6.6905,2.02906 -1.7671,1.21995 -1.7842,1.38049 -0.2117,1.98393 0.941,0.36111 3.5051,0.36967 5.698,0.019 4.7791,-0.7642 6.2636,1.27016 3.3092,4.53478 -2.4995,2.7619 -9.4731,2.12892 -16.4554,-1.49362 -4.9879,-2.58779 -8.7643,-2.71799 -5.297,-0.18261 1.6229,1.1867 1.5907,1.35229 -0.4783,2.45956 -2.2716,1.21577 -10.7264,0.55773 -11.6305,-0.90521 -0.5837,-0.94443 -5.3548,-0.0815 -6.0854,1.10068 -0.2993,0.48433 0.3272,0.8806 1.3923,0.8806 2.4497,0 4.5852,2.50551 3.8248,4.48727 -0.7484,1.95013 -7.2406,1.9579 -10.6433,0.0127 -1.375,-0.78602 -4.7125,-1.44508 -7.4167,-1.46456 -5.5214,-0.0398 -5.4961,0.9681 0.047,1.87018 4.3568,0.70904 6.4085,3.24389 4.7304,5.84438 -1.7931,2.77872 -7.6098,2.02219 -13.6359,-1.77349 -3.9693,-2.50021 -6.546,-3.35895 -10.7246,-3.57427 -4.1881,-0.2158 -4.6652,-0.11868 -2,0.40718 2.6367,0.52025 3.5806,1.25913 3.8268,2.99562 0.7617,5.37317 -6.5452,7.2525 -10.7589,2.76719 -1.2545,-1.33527 -2.9247,-2.18069 -3.7116,-1.87871 -0.7869,0.30197 -2.2818,-0.22109 -3.3219,-1.16237 -2.4665,-2.2322 -5.0915,-1.31671 -7.2795,2.53884 -1.7119,3.01651 -1.8549,3.06303 -7.5,2.44027 -3.1652,-0.34918 -6.9654,-0.86167 -8.4449,-1.13885 -2.2211,-0.41612 -2.9601,0.0182 -4.2391,2.49144 -1.8321,3.54295 -4.3355,4.55733 -7.9014,3.20159 -3.2295,-1.22784 -8.2877,0.3536 -9.7258,3.04074 -1.0397,1.94268 -5.3785,2.6184 -6.3824,0.99399 -0.3062,-0.49545 -3.5953,-0.67427 -7.309,-0.39738 -3.7138,0.2769 -8.3273,0.58765 -10.2523,0.69055 -1.925,0.1029 -4.625,0.91348 -6,1.80128 -3.0722,1.98362 -9.2728,3.04098 -17.553,2.99321 -7.5008,-0.0433 -8.6625,0.93788 -10.4346,8.81317 -1.9415,8.62809 -2.6849,10 -5.4184,10 -2.257,0 -5.7915,-3.23168 -6.8905,-6.30018 -0.798,-2.22817 -2.1088,0.34565 -2.0809,4.08604 0.015,2.04278 0.5991,6.40924 1.2974,9.70324 l 1.2698,5.98911 -2.9964,2.51089 c -2.4903,2.0868 -3.1154,3.52432 -3.7008,8.5109 -0.6804,5.79544 -2.642,10.5 -4.3781,10.5 -0.4617,0 -2.5456,-1.35581 -4.6307,-3.01291 -2.0852,-1.65711 -3.9761,-2.82809 -4.202,-2.60219 -0.2259,0.2259 -0.1067,2.03172 0.265,4.01292 0.5359,2.85629 1.1372,3.60218 2.904,3.60218 2.3373,0 4.5492,3.42642 4.5492,7.04705 0,3.30868 -3.5675,5.95295 -8.0314,5.95295 -4.8277,0 -6.3844,2.32005 -3.1001,4.62048 2.7692,1.93962 2.8469,7.23455 0.1485,10.13085 -1.5434,1.65667 -2.741,2.00543 -5.4032,1.57343 -4.0379,-0.65527 -5.0357,0.63657 -6.1304,7.93696 -0.3927,2.61895 -1.5621,5.83993 -2.5987,7.15773 -1.0366,1.31781 -1.8847,2.89741 -1.8847,3.51024 0,0.61282 -1.35,4.09159 -3,7.73058 -1.65,3.639 -3,7.37568 -3,8.30374 0,0.928 -1.125,2.7442 -2.5,4.036 -1.375,1.2917 -2.5,3.295 -2.5,4.4518 0,3.5745 -2.7203,6.3251 -6.9647,7.0422 -3.5849,0.6057 -4.0414,1.0218 -4.6439,4.2331 -0.3675,1.9588 -0.3937,7.434 -0.058,12.1671 0.3899,5.5017 0.1947,9.7568 -0.5412,11.7968 -1.9805,5.4905 0.5287,10.6772 9.3412,19.309 4.8524,4.7529 8.5276,7.54759 10.034,7.62999 1.3074,0.071 4.3922,1.485 6.855,3.1411 2.4628,1.656 6.122,3.694 8.1315,4.5287 2.0095,0.8347 3.9524,2.4587 4.3174,3.6089 0.3651,1.1502 1.2384,2.0913 1.9408,2.0913 1.0915,0 7.9836,5.4411 15.0882,11.9115 5.2786,4.8074 11.8153,16.3042 12.8072,22.5251 0.8323,5.2207 -1.0691,12.5327 -3.9698,15.2657 -1.2856,1.2112 -2.3374,2.6672 -2.3374,3.2356 0,0.5684 1.4625,3.8864 3.25,7.3735 3.7694,7.3535 5.7286,11.8565 8.7835,20.1886 1.21,3.3 2.5985,6.675 3.0856,7.5 2.0228,3.4258 3.1142,6.88 4.2896,13.5754 0.8474,4.8272 1.957,7.7903 3.4919,9.3252 1.8055,1.8055 2.1372,2.9755 1.6796,5.9246 -0.6328,4.0786 0.7873,6.7142 3.9447,7.3211 1.6416,0.3155 1.9968,1.2519 2.1036,5.5459 0.1102,4.4289 -0.2667,5.5451 -2.6405,7.8193 -2.6731,2.561 -2.8753,2.5982 -5.8289,1.0708 -1.6829,-0.8703 -4.2181,-1.5823 -5.6338,-1.5823 l -2.5741,0 2.5244,4.742 c 1.3884,2.6082 2.5244,5.7443 2.5244,6.9692 0,3.3366 -3.8758,10.428 -7.3927,13.5262 -2.2013,1.9393 -2.7541,2.97 -1.8961,3.5351 2.6576,1.7501 6.2276,13.2003 6.6184,21.2275 0.1684,3.4583 0.1173,3.5038 -4.2832,3.8174 -2.4495,0.1746 -6.3993,-0.1724 -8.7773,-0.7712 -4.3319,-1.0908 -13.7023,-7.0769 -14.6217,-9.3408 -0.2692,-0.663 -0.525,-0.1484 -0.5685,1.1434 -0.1059,3.1509 -5.5922,8.1527 -8.9347,8.1456 -9.7828,-0.021 -14.0895,-4.7541 -22.6824,-24.9306 -3.2926,-7.7313 -5.4338,-15.4478 -5.4499,-19.6414 -0.01,-1.6927 -1.1369,-5.8462 -2.5119,-9.2301 -1.4391,-3.5416 -2.5,-8.1466 -2.5,-10.8514 0,-2.5844 -0.524,-6.3059 -1.1645,-8.2699 -3.9439,-12.0944 -5.3228,-15.0052 -9.1357,-19.286 -6.0268,-6.7662 -10.0827,-11.8424 -12.2128,-15.285 -3.0267,-4.8917 -5.7553,-7.5758 -9.82,-9.66 -2.4765,-1.2698 -3.6414,-2.4643 -3.2918,-3.3753 0.2975,-0.7755 -0.2697,-1.9848 -1.2605,-2.6873 -0.9908,-0.7026 -2.6272,-3.0259 -3.6364,-5.1629 -1.8867,-3.9954 -8.2605,-11.3279 -17.4846,-20.1145 -14.1634,-13.4917 -21.2236,-21.048 -23.6537,-25.3158 -1.467,-2.5763 -3.6616,-5.8092 -4.8769,-7.1842 -2.129,-2.4088 -4.0866,-5.7198 -6.5035,-11 -0.6294,-1.375 -1.5856,-5.425 -2.1249,-9 -0.5393,-3.57499 -1.4698,-7.39669 -2.0677,-8.49269 -1.8054,-3.3094 -2.951,-8.5615 -3.8188,-17.5073 -0.4534,-4.675 -1.1329,-11.4631 -1.51,-15.0847 -0.4919,-4.7249 -0.3084,-7.2669 0.6496,-9 0.8361,-1.5126 1.3564,-5.9661 1.392,-11.9153 0.031,-5.225 0.4608,-10.1403 0.9544,-10.923 1.2322,-1.95339 2.5703,-8.23213 3.5327,-16.57701 0.444,-3.85 1.5712,-12.85 2.5048,-20 0.9336,-7.15 1.447,-15.25 1.1409,-18 -0.5777,-5.1889 1.5387,-17.7725 3.3578,-19.96432 0.5651,-0.68093 1.2046,-3.66753 1.4211,-6.63687 0.2164,-2.96935 0.9809,-8.42231 1.6988,-12.11769 1.316,-6.77428 0.8715,-9.14294 -1.307,-6.96445 -1.4813,1.48137 -6.4387,1.54986 -7.334,0.10133 -0.4226,-0.68386 -1.711,-0.0834 -3.5012,1.63174 -2.7239,2.60968 -3.8544,2.75082 -8.0667,1.00716 -1.1218,-0.46437 -1.7836,-0.0388 -2.1564,1.38654 -0.3204,1.22533 -1.3601,2.05656 -2.5724,2.05656 -3.1106,0 -3.4848,1.63476 -1.5841,6.92054 0.9564,2.6597 1.4589,5.56563 1.1166,6.45764 -0.8762,2.28332 -4.9562,2.01865 -6.4793,-0.42032 -1.2542,-2.00821 -1.3246,-1.99287 -4.2406,0.92308 -1.6309,1.63087 -2.9652,3.4929 -2.9652,4.13784 0,0.64495 -0.7187,2.38935 -1.5972,3.87645 -1.4017,2.37288 -1.426,3.12614 -0.1984,6.15429 2.3518,5.8013 0.1535,9.1655 -3.5615,5.45048 -2.1189,-2.11881 -3.3511,-1.87503 -5.2617,1.04096 -1.386,2.11533 -1.4612,2.98795 -0.4491,5.20935 1.0391,2.28059 0.9593,2.85595 -0.5493,3.95904 -0.9708,0.70986 -2.479,1.29065 -3.3517,1.29065 -1.8493,0 -3.8082,2.1999 -6.3411,7.12122 -1.5669,3.04454 -1.6523,4.14277 -0.6359,8.1793 0.6457,2.56442 0.9118,5.34588 0.5913,6.18103 -0.8849,2.30607 -5.7225,1.93953 -6.3557,-0.48155 -0.7458,-2.85212 -1.4368,-2.48434 -4.5397,2.41625 -2.8592,4.51567 -3.3316,6.52183 -1.9153,8.13375 1.5375,1.74978 4.3202,10.39033 3.6799,11.42631 -0.3479,0.56303 -1.702,1.02369 -3.0089,1.02369 -1.808,0 -2.6789,-0.83701 -3.6419,-3.5 -1.4027,-3.87767 -2.8643,-4.61788 -2.8643,-1.45025 0,1.12731 -0.7226,3.44697 -1.6057,5.15479 -0.9998,1.93325 -1.4013,4.36487 -1.0641,6.44297 0.608,3.7468 -1.2104,6.3526 -4.433,6.3526 -3.1751,0 -3.183,2.3296 -0.029,8.4093 3.8929,7.5033 4.2117,8.423 3.1473,9.0808 -1.1088,0.6853 -4.8995,-3.2007 -6.0872,-6.2401 -1.581,-4.0461 -2.2297,-3.298 -7.7107,8.8921 -1.1627,2.5859 -1.8362,5.602 -1.5205,6.8091 0.4232,1.6185 0.044,2.3036 -1.4981,2.7069 -2.0494,0.5359 -7.1994,7.2729 -7.1994,9.4179 0,2.5025 -12.0431,25.60069 -14.4299,27.67599 -1.4135,1.2291 -2.5701,3.0824 -2.5701,4.1183 0,1.6103 -4.1536,13.2039 -7.0326,19.6297 -1.6475,3.6771 -6.7424,12.2067 -9.8715,16.5263 -1.7028,2.3506 -3.0959,5.3047 -3.0959,6.5647 0,1.26 -0.3933,2.534 -0.874,2.8311 -0.4807,0.2971 -2.0624,2.9112 -3.5149,5.809 -5.1393,10.2533 -9.262,17.6236 -11.7054,20.9259 -1.3604,1.8386 -3.0385,4.468 -3.7292,5.843 -1.7444,3.4729 -3.1599,5.7559 -6.9803,11.2584 -1.8171,2.6171 -3.099,5.0921 -2.8485,5.5 0.6497,1.0583 -2.1017,16.2311 -3.1916,17.5997 -0.5001,0.628 -1.2326,3.8126 -1.6278,7.0768 -0.3951,3.2642 -1.1621,7.0892 -1.7044,8.5 -1.4935,3.8855 -4.0162,17.6744 -4.7083,25.7355 -0.453,5.2764 -1.1706,7.7857 -2.7168,9.5 -1.1556,1.2813 -2.7913,4.3546 -3.6349,6.8296 -0.8436,2.475 -2.0801,6.075 -2.7478,8 -0.6676,1.925 -3.4283,8 -6.1347,13.5 -2.7064,5.5 -4.9142,10.675 -4.9061,11.5 0.021,2.1052 -4.6252,7.6695 -5.5978,6.7045 -0.441,-0.4375 -0.3136,-1.5773 0.2832,-2.5328 1.5698,-2.5137 2.6633,-8.1717 1.5793,-8.1717 -0.5055,0 -1.4316,1.125 -2.0581,2.5 -1.0999,2.4141 -2.7836,2.958 -8.6819,2.8045 -2.2757,-0.059 -13.1606,8.8346 -17.8622,14.5948 -4.4089,5.4017 -8.8275,8.2046 -13.4807,8.5517 -2.1977,0.1639 -5.3727,1.2784 -7.0554,2.4766 -1.6828,1.1982 -4.9815,2.3853 -7.3306,2.6379 -6.5551,0.705 -8.9138,1.3999 -11.8508,3.4912 -2.2368,1.5928 -3.4759,1.7791 -7.2023,1.0829 -4.9231,-0.9197 -6.3682,-0.4226 -11.3871,3.9171 -4.1453,3.5842 -10.4985,4.7187 -13.9093,2.4839 -4.1667,-2.7301 -5.0303,-5.8643 -2.911,-10.5642 2.6072,-5.7818 0.9425,-7.2426 -4.7922,-4.2052 -2.3291,1.2336 -6.0099,2.2359 -8.2184,2.2377 -2.2,0 -5.35,0.7345 -7,1.6281 -3.5662,1.9312 -9.9334,3.552 -13.7175,3.4918 -1.4945,-0.024 -2.9836,0.3876 -3.309,0.914 -0.3253,0.5265 -1.8599,0.9572 -3.4101,0.9572 -1.5502,0 -3.3787,0.675 -4.0634,1.5 -0.6847,0.825 -1.6813,1.5 -2.2147,1.5 -0.5334,0 -2.124,0.9079 -3.5347,2.0175 -3.024,2.3787 -5.5317,1.8991 -9.5006,-1.8169 -3.3444,-3.1313 -3.3481,-3.2433 -0.3237,-9.6364 1.3345,-2.8209 2.7454,-6.4002 3.1354,-7.9542 0.6527,-2.6003 0.5487,-2.7394 -1.3056,-1.747 -1.1082,0.593 -4.6181,1.1633 -7.7998,1.2673 -5.1707,0.1689 -6.0329,-0.099 -8.1206,-2.5264 -1.2846,-1.4935 -2.3357,-3.0703 -2.3357,-3.5041 0,-0.8065 8.6002,-10.9965 12.3221,-14.5998 1.1362,-1.1 3.967,-3.35 6.2906,-5 2.3237,-1.65 7.817,-5.7507 12.2074,-9.1127 9.8107,-7.5125 25.9985,-15.5769 34.3245,-17.0997 1.87,-0.342 2.8072,-1.2604 3.1999,-3.1356 0.5816,-2.7772 10.4217,-11.152 13.1032,-11.152 0.7889,0 1.7236,-0.4682 2.0773,-1.0405 1.601,-2.5905 8.893,-5.9879 14.9177,-6.9503 3.6175,-0.578 8.0353,-1.9397 9.8173,-3.0263 1.782,-1.0865 5.04,-2.0087 7.24,-2.0494 2.2,-0.041 4.8129,-0.3948 5.8065,-0.7867 4.056,-1.6 13.5213,-21.3222 15.575,-32.4524 0.5891,-3.1932 1.7172,-7.0182 2.5069,-8.5 0.7897,-1.4819 1.9377,-6.0694 2.5512,-10.1944 2.1857,-14.6962 3.0813,-18.5324 4.9027,-21 1.1719,-1.5876 2.0431,-4.9669 2.3872,-9.2597 0.2979,-3.7179 1.0018,-7.3179 1.5641,-8 1.3907,-1.6871 4.8632,-11.4549 7.7288,-21.7403 3.4482,-12.3764 7.9651,-24.1371 11.4383,-29.7817 1.6716,-2.7167 3.0421,-5.3397 3.0454,-5.8289 0,-0.4892 0.6089,-2.0444 1.3456,-3.4561 0.7367,-1.4116 1.6691,-3.88659 2.0721,-5.49999 0.4029,-1.6133 3.8232,-9.2519 7.6006,-16.9747 10.6028,-21.6769 14.9714,-35.1804 14.7065,-45.4586 -0.1293,-5.01509 0.3746,-7.64227 2.2058,-11.50002 5.8027,-12.22446 6.994,-15.27159 7.6232,-19.5 l 0.6696,-4.5 -2.1873,2.75 c -2.5704,3.2316 -4.5689,3.5029 -6.0072,0.81547 -1.1511,-2.1509 -0.5348,-4.03427 3.4576,-10.56547 1.3448,-2.2 3.385,-5.8 4.5339,-8 1.1489,-2.2 2.9096,-5.35 3.9127,-7 1.0031,-1.65 2.1127,-5.025 2.4658,-7.5 l 0.6419,-4.5 -1.9569,2.92303 c -2.5232,3.7687 -4.5708,4.90752 -5.9139,3.28914 -0.7697,-0.92737 0.385,-3.50994 4.3534,-9.73714 5.1872,-8.13953 7.3543,-13.42455 6.0426,-14.7362 -0.3399,-0.33999 -1.3083,0.36719 -2.1518,1.5715 -1.7871,2.5514 -4.4203,2.90528 -4.4203,0.59404 0,-0.8776 0.9165,-2.88269 2.0366,-4.45577 3.2219,-4.52473 4.3972,-8.72097 2.9358,-10.48182 -0.8952,-1.07861 -1.5916,-1.19779 -2.5161,-0.43055 -0.898,0.74527 -1.4727,0.74628 -1.9318,0.003 -1.1034,-1.78522 0.4217,-4.79227 2.7375,-5.39788 2.1456,-0.56109 2.1236,-0.64921 -0.9635,-3.85797 -1.7376,-1.80607 -3.7531,-5.24913 -4.4789,-7.65124 -1.3949,-4.6168 -3.2119,-6.14027 -5.0868,-4.2653 -2.113,2.11293 -6.1752,1.08756 -10.9828,-2.77221 -1.5764,-1.26561 -1.75,-1.15222 -1.75,1.14301 0,4.41763 -5.2633,5.09418 -9.8176,1.26198 -3.9029,-3.28404 -4.8829,-3.15556 -5.7206,0.75 -0.966,4.50433 -1.3222,4.89508 -3.4324,3.76574 -1.0897,-0.58318 -2.1273,-2.6358 -2.5263,-4.99746 -0.7223,-4.27503 -2.5031,-6.48933 -2.5031,-3.1121 0,5.39717 -8.6636,4.17343 -13.1192,-1.8531 -1.2732,-1.72214 -3.6579,-3.98145 -5.2992,-5.02069 -2.9802,-1.88691 -2.9874,-1.88617 -5.2352,0.53924 -4.5704,4.9315 -11.7473,2.06223 -14.5607,-5.82125 -1.1628,-3.25844 -2.3205,-3.48779 -3.7857,-0.75 -1.5322,2.86299 -6.4627,2.6282 -9.5455,-0.45455 -2.0461,-2.04618 -2.4545,-3.42704 -2.4545,-8.3 0,-5.34185 -1.1269,-8.24545 -3.2,-8.24545 -1.2071,0 -0.9601,2.76878 0.45,5.04408 1.0303,1.66245 0.9864,2.18465 -0.25,2.97112 -4.91,3.12334 -7.8387,-0.36855 -6.6331,-7.90854 0.3342,-2.0894 0.3201,-4.08634 -0.031,-4.43765 -1.0151,-1.01509 -3.4326,4.45001 -2.821,6.37713 0.6676,2.10326 -1.9393,4.95386 -4.5303,4.95386 -1.03,0 -3.1018,-1.05711 -4.6038,-2.34914 -2.2783,-1.95967 -2.8032,-3.34573 -3.1659,-8.36008 -0.2398,-3.31493 0.052,-6.92121 0.6514,-8.04047 0.9203,-1.71968 0.7463,-2.12065 -1.1399,-2.62627 -1.2244,-0.3282 -3.6886,-0.60288 -5.4761,-0.61039 -3.8104,-0.016 -4.066,1.33218 -1.8389,9.69752 1.5049,5.65269 0.586,7.82709 -3.0096,7.12141 -2.5675,-0.50392 -4.8789,-9.37048 -3.5616,-13.66256 1.2177,-3.96785 0.3471,-6.76363 -3.106,-9.97427 -2.2111,-2.0558 -2.548,-2.12276 -3.1242,-0.62105 -0.6154,1.60365 -0.3601,2.85485 2.4043,11.78514 1.0029,3.23978 0.9496,4.10513 -0.332,5.38674 -1.9105,1.91041 -4.4465,1.01239 -5.566,-1.97095 -0.4697,-1.2516 -1.1759,-5.75864 -1.5694,-10.01565 -0.6275,-6.78886 -0.9201,-7.63288 -2.381,-6.86817 -2.9245,1.53084 -6.1656,-0.46699 -6.1656,-3.80057 0,-1.63526 -0.4185,-3.23186 -0.93,-3.54799 -0.5115,-0.31612 -1.2352,-3.01695 -1.6081,-6.00184 -0.4221,-3.37862 -1.3922,-6.07331 -2.57,-7.13922 -1.4118,-1.27769 -1.8919,-3.08519 -1.8919,-7.12292 0,-6.36857 -1.2898,-9.27927 -4.1119,-9.27927 -1.9843,0 -2.0216,0.34989 -1.3305,12.47986 0.8117,14.24885 0.4446,14.95386 -6.1621,11.83262 -4.4521,-2.10333 -6.1832,-6.28893 -6.3332,-15.31248 -0.05,-3.025 -0.7767,-7.46769 -1.6142,-9.87266 -1.1756,-3.37587 -1.3697,-6.59576 -0.8511,-14.12491 l 0.6717,-9.75225 -3.5437,-0.4137 c -3.2674,-0.38146 -3.5312,-0.21581 -3.3843,2.12491 0.1369,2.18182 -0.2272,2.51215 -2.5907,2.35035 -2.0595,-0.14099 -2.75,0.26769 -2.75,1.62755 0,0.9987 0.675,2.37602 1.5,3.06071 0.825,0.68469 1.5,2.31479 1.5,3.62244 0,1.9705 -0.5092,2.37756 -2.9743,2.37756 -4.1817,0 -5.5506,-3.22856 -7.0856,-16.71123 -1.2606,-11.07248 -1.3247,-11.25813 -5.1786,-15 -3.6463,-3.54042 -3.8687,-3.6249 -3.3923,-1.28877 0.2805,1.375 0.7821,4.89642 1.1148,7.82537 0.5796,5.10315 0.5107,5.3118 -1.6525,5 -2.5186,-0.36301 -3.4437,-3.24816 -4.1697,-13.00298 -0.424,-5.69721 -2.2099,-9.30159 -6.5539,-13.22738 -1.1593,-1.04774 -2.1079,-2.3432 -2.1079,-2.8788 0,-1.69008 -6.8987,-8.68919 -7.5407,-7.65043 -0.337,0.54539 -0.4658,4.2412 -0.2861,8.21292 0.3224,7.12319 0.2928,7.2213 -2.1732,7.2213 -2.3567,0 -2.5433,-0.40125 -3.2547,-7 -0.4151,-3.85 -0.9473,-8.35 -1.1827,-10 -2.6999,-18.9258 -3.3992,-20.69814 -9.1083,-23.08353 -4.3475,-1.8165 -4.4543,-1.80176 -4.4543,0.61491 0,2.27851 -2.6254,3.74326 -4.0879,2.28073 -1.4184,-1.41838 -4.9007,-10.89954 -6.7968,-18.50541 -0.9177,-3.68131 -1.9013,-6.92605 -2.1858,-7.21052 -0.2845,-0.28448 -1.3622,1.05178 -2.3949,2.96945 -2.3753,4.41064 -3.7703,3.95117 -4.8688,-1.60369 -0.4766,-2.41021 -2.1714,-5.96517 -3.7662,-7.89992 -1.5948,-1.93474 -2.8996,-4.0019 -2.8996,-4.5937 0,-0.59179 -1.5147,-2.5441 -3.366,-4.33847 -3.0932,-2.99805 -3.4079,-3.10263 -3.8818,-1.29033 -0.2836,1.08469 0.3281,3.25203 1.3594,4.81632 2.4604,3.73174 2.3743,5.22353 -0.3616,6.26562 -2.3312,0.88795 -5.7165,-1.05993 -5.7813,-3.32645 -0.017,-0.60225 -1.1377,-3.34501 -2.49,-6.09501 -1.3524,-2.75 -2.9887,-7.7 -3.6363,-11 -0.6476,-3.3 -2.1839,-7.575 -3.4141,-9.5 -1.2301,-1.925 -2.9502,-6.02863 -3.8223,-9.11918 -0.8722,-3.09054 -2.2654,-6.18314 -3.0959,-6.87244 -2.0416,-1.69438 -1.9224,-0.13599 0.405,5.2936 2.0005,4.66696 1.4307,6.69802 -1.879,6.69802 -2.0659,0 -7.4084,-11.5886 -9.9725,-21.63167 -0.4398,-1.72241 -2.5465,-5.67059 -4.6816,-8.77371 -2.1351,-3.10313 -4.661,-7.07973 -5.6131,-8.8369 -0.952,-1.75716 -3.3145,-4.00724 -5.25,-5.00017 -4.1148,-2.11104 -4.5722,-1.09567 -1.0127,2.24829 1.3784,1.29495 3.8535,4.63589 5.5002,7.42431 1.6468,2.78842 3.5488,5.84891 4.2269,6.80109 1.0088,1.41665 0.9204,2.04362 -0.4864,3.45039 -1.6255,1.62555 -1.8834,1.5618 -4.7356,-1.17076 -1.659,-1.58946 -3.9507,-4.82005 -5.0927,-7.1791 -1.142,-2.35905 -3.4179,-5.72523 -5.0575,-7.48041 -1.6395,-1.75518 -4.3358,-5.92726 -5.9917,-9.2713 -4.9228,-9.94184 -7.2683,-13.56493 -9.1194,-14.08674 -0.9625,-0.27133 -2.7515,-0.78087 -3.9756,-1.13232 -1.9886,-0.57094 -1.8821,-0.24767 1,3.03479 1.7741,2.02059 3.2256,4.08478 3.2256,4.58709 0,0.50231 2.1499,3.52415 4.7777,6.7152 6.8511,8.31989 11.5356,16.04309 10.8363,17.86544 -0.4266,1.1117 -1.6657,1.4691 -4.3246,1.24732 -2.9799,-0.24856 -4.0334,-0.91193 -5.258,-3.31084 -0.8423,-1.65 -1.7807,-3.225 -2.0854,-3.5 -0.3048,-0.275 -1.5904,-2.525 -2.8569,-5 -1.2666,-2.475 -4.8423,-8.87243 -7.946,-14.21652 l -5.6431,-9.71652 -4.0589,-0.0335 c -2.2324,-0.0184 -4.9324,-0.69417 -6,-1.50168 -3.6488,-2.75984 -3.6773,-1.53564 -0.057,2.47108 1.989,2.20159 3.6164,4.38157 3.6164,4.84441 0,0.46284 2.25,3.41273 5,6.55531 5.3354,6.09705 5.5688,6.66601 3.9648,9.66314 -2.6843,5.01574 -7.5079,0.34009 -21.4741,-20.81574 -3.2469,-4.91827 -3.7253,-5.25 -7.5721,-5.25 l -4.1062,0 3.7477,5.21652 c 2.7457,3.82187 3.7129,6.14146 3.6176,8.67617 -0.2361,6.28147 -3.0879,6.48023 -6.9277,0.48285 -1.2375,-1.93282 -2.25,-3.88487 -2.25,-4.33789 0,-0.45302 -0.6282,-1.06472 -1.3959,-1.35934 -0.7678,-0.29462 -2.4257,-2.36776 -3.6842,-4.60699 -1.7653,-3.141 -2.8859,-4.07132 -4.9041,-4.07132 -1.4387,0 -3.1558,-0.54 -3.8158,-1.2 -2.7282,-2.72821 -0.9007,1.05087 2.7146,5.61364 3.3652,4.24706 3.749,5.23058 2.8289,7.25 -2.4137,5.29735 -10.2412,0.36408 -14.2435,-8.97693 -1.2879,-3.00585 -2.6231,-4.67114 -3.75,-4.67724 -2.3436,-0.0127 -2.2073,0.98218 0.6687,4.88031 2.0454,2.77244 2.2618,3.7283 1.4021,6.19427 -0.6148,1.76367 -1.7272,2.91597 -2.815,2.91597 -2.2442,0 -6.7222,-5.04188 -10.0041,-11.26369 -1.5427,-2.9247 -3.1756,-4.73631 -4.269,-4.73631 -1.8324,0 -1.7259,2.01191 0.4137,7.8151 1.0904,2.95749 1.0762,9.28541 -0.025,11.02239 -1.6062,2.53398 -5.4789,0.92835 -6.5155,-2.70132 -0.6641,-2.32519 -1.8119,-3.66055 -3.7174,-4.32482 -1.5162,-0.52855 -3.4891,-2.07877 -4.3842,-3.44494 -1.2695,-1.93737 -2.3292,-2.416 -4.816,-2.17518 -2.5368,0.24567 -3.2592,0.8197 -3.5343,2.80877 -0.8118,5.86849 -4.9632,6.68364 -7.982,1.56728 -2.6937,-4.56557 -8.7992,-6.54484 -10.9068,-3.53579 -1.6344,2.33347 -3.0388,2.48131 -5.1866,0.54601 -0.9411,-0.84789 -4.0024,-1.48689 -7.5788,-1.5819 -12.1856,-0.32373 -12.8525,0.21514 -8.0514,6.50504 4.8267,6.32322 6.7396,10.17032 6.3621,12.7949 -0.2624,1.82436 -0.8936,1.3471 -4.0607,-3.07 -2.0625,-2.87659 -3.75,-5.61618 -3.75,-6.08798 0,-1.19103 -6.6553,-8.13756 -7.7964,-8.13756 -0.5118,0 -3.1754,0.42571 -5.919,0.94603 -2.7436,0.52031 -10.5331,1.42748 -17.31,2.01592 -16.9519,1.47195 -19.9746,2.03363 -19.9746,3.71169 0,0.77991 2.025,5.58065 4.5,10.66831 2.475,5.08766 4.5,9.8351 4.5,10.54988 0,0.71477 0.6518,2.49402 1.4485,3.95388 1.9723,3.61415 5.5515,12.19973 5.5515,13.31659 0,0.49944 0.7406,2.03841 1.6458,3.41995 0.9053,1.38153 2.8645,5.9782 4.354,10.21482 1.4895,4.23661 4.0585,11.07793 5.7091,15.20293 3.2221,8.05267 4.8804,15 3.5805,15 -0.9217,0 -1.7871,-1.91476 -6.7796,-15 -1.9935,-5.225 -4.7237,-11.79485 -6.0672,-14.59967 -1.3434,-2.80482 -2.4426,-5.40512 -2.4426,-5.77845 0,-0.37333 -1.6192,-4.15348 -3.5983,-8.40033 -3.4349,-7.37118 -6.5987,-14.39882 -8.4283,-18.72155 -0.4656,-1.1 -2.225,-5.0689 -3.9099,-8.81977 -1.6849,-3.75087 -3.0635,-7.16863 -3.0635,-7.59501 0,-0.42639 -0.8862,-1.57721 -1.9693,-2.5574 -1.5842,-1.43371 -3.3927,-1.72576 -9.25,-1.49371 -10.4498,0.41399 -12.3172,0.3436 -21.78074,-0.82097 -8.5788,-1.05569 -11.2635,-0.47852 -9.2772,1.99448 0.875,1.08948 3.0682,8.91957 8.3447,29.79238 0.9273,3.6681 1.1412,9.4086 0.2702,7.25 -0.2774,-0.6875 -1.0697,-1.25 -1.7607,-1.25 -0.8056,0 -2.5246,-5.65038 -4.7916,-15.75 -4.1651,-18.5562 -6.5218,-25.32165 -10.1338,-29.09173 -1.4584,-1.52224 -2.6516,-3.53058 -2.6516,-4.46299 0,-0.9324 -0.3375,-1.73773 -0.75,-1.78962 -0.4125,-0.0519 -7.05,-0.23809 -14.75,-0.41378 -7.7,-0.17569 -16.8059,-0.72486 -20.2353,-1.22038 -4.0865,-0.59048 -6.5849,-0.55127 -7.25,0.11377 -0.5581,0.5581 -1.0147,3.7402 -1.0147,7.07133 0,3.33113 -0.4622,7.62863 -1.0272,9.55 -0.565,1.92137 -1.21,8.4434 -1.4334,14.4934 -0.4299,11.64405 -1.0811,14.82058 -2.9126,14.20709 -1.5867,-0.53149 -1.0445,-8.79889 2.9008,-44.2284 l 0.5592,-5.02131 -7.6287,-3.28038 c -8.6513,-3.72013 -10.0016,-3.3924 -11.0148,2.67348 -0.3353,2.00724 -1.2053,5.67452 -1.9333,8.14952 -1.7258,5.86702 -3.558,21.0857 -3.3404,27.74618 0.1896,5.80492 -0.2824,6.80826 -2.7563,5.85893 -1.4834,-0.56925 -1.6161,-2.14091 -1.1715,-13.87354 0.4737,-12.49757 2.4852,-23.36643 5.9273,-32.02677 0.9366,-2.35649 0.8142,-3.06278 -0.7799,-4.5 -4.7571,-4.28904 -9.6297,-7.3634 -10.413205,-6.57021 -2.169,2.19575 -11.7563,22.97121 -14.4743,31.36541 -1.6727,5.16585 -4.5502,12.9759 -6.4477,17.5 -0.4614,1.1 -2.31,6.63091 -4.1081,12.29092 -1.7981,5.66001 -3.6765,10.54257 -4.1741,10.85014 -1.8188,1.12403 -2.0652,-0.7555 -0.8371,-6.3849 1.7101,-7.83904 13.5422,-43.57393 16.4746,-49.75616 1.3044,-2.75 2.6478,-5.675 2.9854,-6.5 0.3376,-0.825 1.9599,-3.75 3.6053,-6.5 4.2027,-7.02431 4.2824,-7.23887 3.639,-9.80216 -0.6368,-2.53743 -7.1675,-6.26976 -8.1602,-4.66361 -0.9163,1.48268 -4.0836,1.14692 -5.5212,-0.5853 -2.2405,-2.69963 -6.9785,-1.42976 -9.0354,2.42163 -0.9901,1.85381 -2.6759,4.32881 -3.7462,5.5 -1.0704,1.17119 -2.2854,3.25444 -2.7001,4.62944 -0.4147,1.375 -2.181,4.75 -3.9252,7.5 -2.9829,4.70326 -4.9148,8.52807 -12.4338,24.61745 -6.3994,13.69355 -8.6516,9.90177 -2.5653,-4.31901 4.802,-11.22015 4.8744,-11.36972 9.1743,-18.96423 3.374,-5.95922 6.1851,-10.36856 13.8676,-21.75222 l 2.3067,-3.41801 -5.7001,-3.53693 c -3.1351,-1.94531 -5.8533,-3.90418 -6.0405,-4.35303 -0.1871,-0.44885 -1.6496,-1.49319 -3.25,-2.32074 -1.6003,-0.82755 -2.9096,-2.24308 -2.9096,-3.14563 0,-0.90254 -0.1875,-1.45348 -0.4167,-1.22432 -0.2291,0.22917 -0.38,0.64167 -0.3351,0.91667 0.045,0.275 -4.9032,6.97869 -10.9956,14.89708 -6.1197,7.95407 -10.8446,15.00255 -10.5578,15.75 0.2895,0.75442 -0.1232,1.35292 -0.9328,1.35292 -2.0381,0 -4.762,3.26403 -4.762,5.7063 0,1.12684 -0.675,2.60901 -1.5,3.2937 -0.825,0.68469 -1.5,1.66679 -1.5,2.18244 0,0.51565 -1.4625,2.91369 -3.25,5.32897 -7.7075,10.41438 -9.0185,12.51781 -14.0016998,22.46402 -2.8865999,5.76148 -5.8743,10.65765 -6.63939997,10.88037 -1.97710003,0.57553 -0.8055,-3.7944 3.17860007,-11.8558 1.7668999,-3.575 3.1402999,-7.12061 3.0520999,-7.87914 -0.088,-0.75852 2.9687998,-5.38959 6.7932998,-10.29126 3.8246,-4.90166 7.7218,-10.22993 8.6605,-11.84059 0.9386,-1.61066 8.5346,-11.88723 16.88,-22.83682 l 15.1734,-19.90835 -3.2832,-3.18216 c -3.8679,-3.74894 -5.9621,-9.44503 -6.2727,-17.06168 -0.1234,-3.025 -0.3089,-6.63868 -0.4123,-8.03039 -0.2386,-3.21406 4.822,-14.57932 7.8321,-17.58944 1.6956,-1.69557 2.2893,-3.4363 2.2893,-6.71227 0,-2.69886 0.5809,-4.90516 1.4903,-5.65988 0.9482,-0.78692 1.2708,-2.11174 0.8867,-3.64185 -0.6151,-2.45112 1.2437,-8.36617 2.6292,-8.36617 0.42,0 2.6154,-1.90787 4.8787,-4.23972 3.3251,-3.42574 4.1151,-4.95496 4.1151,-7.9652 0,-4.72165 4.9146,-10.79508 8.7353,-10.79508 2.3919,0 2.4977,-0.22602 1.9651,-4.19671 -0.7686,-5.73079 1.3856,-10.80329 4.5881,-10.80329 1.616,0 2.782,0.85925 3.5989,2.65213 0.8401,1.84384 1.5268,2.33371 2.2531,1.60735 0.7264,-0.72635 0.7213,-1.64917 -0.017,-3.02793 -0.5837,-1.09075 -1.1725,-4.79771 -1.3084,-8.2377 -0.2412,-6.10908 -0.1606,-6.32706 3.4688,-9.37418 3.4334,-2.88255 3.7213,-3.53771 3.7888,-8.61967 0.084,-6.29235 2.5779,-11.5 5.508305,-11.5 1.675,0 1.8811,0.63471 1.6232,5 l -0.2954,5 1.9447,-2.44224 c 2.6461,-3.32313 3.9987,-8.26079 4.6866,-17.10939 0.4723,-6.07596 1.1208,-8.21552 3.5192,-11.61185 1.6847,-2.38558 2.9403,-5.45241 2.9403,-7.1819 0,-2.19035 0.7968,-3.5858 2.9044,-5.08653 4.145,-2.95152 5.0956,-2.60213 5.0956,1.87289 0,5.58259 1.3988,5.76059 4.4434,0.56545 2.1201,-3.61783 2.4228,-4.88787 1.5524,-6.51423 -2.5226,-4.71362 1.6772,-12.86552 5.9325,-11.51495 1.8228,0.57854 2.0717,0.24231 2.0717,-2.79908 0,-4.82158 2.8789,-8.17636 6.2833,-7.32191 2.4993,0.62727 2.5973,0.90095 2.115,5.90076 -0.4745,4.91938 -0.4182,5.08868 0.9118,2.74298 0.7796,-1.375 1.6763,-5.13614 1.9926,-8.35809 0.6165,-6.27937 4.6518,-13.64191 7.4769,-13.64191 1.2661,0 1.4002,1.15549 0.8372,7.21272 l -0.6703,7.21272 2.8246,-2.7061 c 2.6286,-2.51841 2.7966,-3.14507 2.4215,-9.03471 -0.3561,-5.59301 -0.1184,-6.65932 2.0447,-9.17407 3.4592,-4.02165 6.119,-2.92673 5.1706,2.12855 l -0.6876,3.66522 2.6084,-1.90217 c 2.0436,-1.49028 2.6165,-2.76828 2.6454,-5.90216 0.083,-9.00677 3.7636,-14.94684 6.7392,-10.87743 1.4728,2.01421 1.2834,2.17721 4.2095,-3.62257 3.2172,-6.37681 5.0823,-8.21553 7.6737,-7.56512 1.883,0.47258 2.2738,0.0323 2.8344,-3.19336 1.3963,-8.03304 4.1287,-11.68207 6.5568,-8.75636 0.8534,1.02827 0.7478,2.66653 -0.4269,6.62206 -0.8584,2.89068 -1.5511,6.63661 -1.5392,8.32428 l 0.022,3.0685 5.0361,-5.23618 c 4.96744,-5.16463 5.03204,-5.3131 4.72854,-10.86488 -0.2496,-4.56448 0.035,-5.84331 1.5049,-6.76382 1.4823,-0.92823 2.1488,-0.7257 3.6573,1.11123 1.1492,1.39945 1.6319,3.09599 1.2804,4.5 -0.5607,2.23886 -0.5501,2.24106 1.6065,0.3361 1.7095,-1.50998 2.0415,-2.60737 1.562,-5.16306 -0.8162,-4.35076 0.2792,-7.41939 2.6485,-7.41939 1.4807,0 1.9326,0.70154 1.9326,3 0,2.26812 0.4581,3 1.8776,3 3.361,0 4.4532,-2.5616 3.7914,-8.8925 -0.5139,-4.91695 -0.316,-6.11695 1.241,-7.52601 1.7069,-1.54478 1.9794,-1.54929 3.4712,-0.0575 0.8903,0.89037 1.6188,2.65661 1.6188,3.92498 0,1.26837 0.675,2.86633 1.5,3.55102 0.825,0.68469 1.5,1.86479 1.5,2.62244 0,0.75766 0.9,1.37756 2,1.37756 1.6404,0 2,-0.66667 2,-3.70784 0,-2.90147 -0.7758,-4.50235 -3.5674,-7.36118 -3.2712,-3.35004 -3.4344,-3.78627 -1.9661,-5.25455 1.2382,-1.23827 2.1882,-1.37803 4.1909,-0.61661 2.0572,0.78217 2.8452,0.63513 3.8326,-0.71523 1.1554,-1.58014 1.4379,-1.5465 4.0113,0.47779 1.5227,1.19769 3.4345,2.17762 4.2486,2.17762 1.2704,0 1.2513,-0.3493 -0.1349,-2.46482 -1.9159,-2.92408 -2.0717,-5.67842 -0.415,-7.33518 1.7067,-1.70671 3.8696,-1.48512 5.3684,0.55 1.2129,1.64689 1.3329,1.63217 2.0373,-0.25 1.0505,-2.80703 2.4793,-3.52487 4.6761,-2.3492 2.6413,1.4136 3.3803,0.23832 1.2974,-2.06331 -1.6613,-1.8357 -1.6456,-2.02109 0.3395,-4.00613 1.3155,-1.31557 3.369,-2.08135 5.5813,-2.08135 2.403,0 3.5,-0.45795 3.5,-1.46104 0,-0.80358 0.9841,-2.3779 2.1869,-3.49849 1.7082,-1.59142 2.1366,-3.01016 1.957,-6.48073 -0.1785,-3.44869 0.1834,-4.66454 1.6169,-5.43173 2.2547,-1.20669 3.4059,-0.47868 5.0088,3.16744 1.0957,2.49236 1.5948,2.72682 4.603,2.16247 3.3587,-0.63009 3.3771,-0.61241 4.0498,3.87331 0.5215,3.47729 1.4067,5.05479 3.8767,6.90838 4.7125,3.53648 5.1588,3.71559 6.7486,2.70818 1.1919,-0.75521 0.9638,-1.32621 -1.2719,-3.18401 -1.6268,-1.3518 -2.9592,-3.67379 -3.3074,-5.76378 -0.3208,-1.925 -1.9691,-5.66058 -3.663,-8.30128 -2.6396,-4.11514 -2.9203,-5.15122 -1.964,-7.25 1.5372,-3.37371 3.1327,-3.07517 6.7796,1.26854 l 3.121,3.71734 3.6222,-2.4673 c 3.0402,-2.0709 3.6232,-3.05011 3.629,-6.09486 0.012,-6.100536 5.1843,-7.997716 6.5854,-2.41526 0.351,1.39855 1.186,2.54282 1.8555,2.54282 1.5785,0 4.8657,-3.750916 6.3536,-7.249996 0.7745,-1.82126 1.9181,-2.75 3.3861,-2.75 1.2192,0 3.452,-1.18345 4.9618,-2.6299 3.5938,-3.44306 5.5342,-2.56703 6.9733,3.14814 l 1.1583,4.59996 2.8823,-2.76147 c 1.5853,-1.51881 3.3642,-4.58291 3.9531,-6.8091 0.589,-2.2262 2.2113,-5.25414 3.6052,-6.72877 1.6293,-1.72363 3.1658,-5.29489 4.3022,-10 0.9723,-4.02537 3.1045,-10.24386 4.7382,-13.81886 1.6337,-3.575 3.2263,-7.23988 3.5391,-8.14416 0.3128,-0.90429 2.7386,-4.42802 5.3907,-7.83052 2.6521,-3.40249 5.3892,-7.23367 6.0824,-8.51373 1.706,-3.15007 18.8816,-17.378132 23.2396,-19.251342 1.925,-0.82743 4.4,-1.99785 5.5,-2.60093 14.6276,-8.0196201 19.3572,-9.9164901 26.9053,-10.79063013 6.5344,-0.75676 8.6586,-0.62779 12.25,0.74375003 2.3896,0.9126 4.3966,2.16064 4.46,2.77341 0.2319,2.23904 0.5405,3.1895 2.2984,7.0782201 1.3342,2.95125 1.6815,5.634 1.3595,10.5 -0.2379,3.59476 -0.086,7.21093 0.3367,8.035932 0.4231,0.825 1.0175,2.625 1.3209,4 0.9562,4.33441 2.1736,5.57319 3.993,4.06325 0.8669,-0.71948 1.5762,-1.88143 1.5762,-2.58211 0,-1.47901 4.3962,-5.31944 12.5702,-10.981142 3.1763,-2.2 7.7497,-5.6875 10.1632,-7.75 2.4135,-2.0625 5.0013,-3.75 5.7507,-3.75 0.7493,0 2.6994,-1.125 4.3335,-2.5 1.6341,-1.3750001 3.3561,-2.5027801 3.8268,-2.5061701 0.4706,-0.003 2.2056,-0.76476 3.8556,-1.69195 3.689,-2.07297 16.4996,-2.37705 18.8253,-0.44684 0.8451,0.70136 4.1551,1.54323 7.3556,1.87082 7.757,0.79397 14.3784,5.6163701 24.2357,17.6510401 1.5363,1.87565 2.9608,8.075802 3.7617,16.373102 0.2787,2.8875 0.5776,5.2458 0.6642,5.24068 0.087,-0.005 6.1309,-1.5618 13.4318,-3.45929 7.3009,-1.89749 13.9384,-3.19515 14.75,-2.8837 2.4972,0.95828 1.7146,4.31007 -1.2743,5.45767 -7.6884,2.95197 -21.7477,6.02385 -24.8801,5.4362 -4.129,-0.77461 -4.3468,0.48887 -0.8699,5.04732 1.375,1.80273 2.5,3.7202 2.5,4.26106 0,2.46454 2.5123,1.26706 7.5222,-3.58545 3.1674,-3.06785 6.3414,-5.26449 7.6069,-5.26449 1.1943,0 4.5254,-1.15161 7.4022,-2.55914 7.1345,-3.49058 16.1234,-4.67678 22.6368,-2.98722 5.1938,1.34725 7.0316,2.8999 6.5649,5.54636 -0.2192,1.24273 -2.4914,1.5 -13.2488,1.5 -11.0483,0 -13.506,0.29272 -16.4842,1.96335 -4.2635,2.39166 -9.9244,4.50123 -12.1334,4.52159 -0.9814,0.009 -1.8443,1.11277 -2.1617,2.76506 -0.2906,1.5125 -0.4259,2.85461 -0.3008,2.98247 0.1251,0.12787 2.8979,-0.17856 6.1617,-0.68095 3.2638,-0.50239 9.9842,-1.41484 14.9342,-2.02767 4.95,-0.61283 11.1718,-1.5439 13.8263,-2.06904 6.265,-1.23943 19.8264,-1.22744 23.1086,0.0204 2.4467,0.93023 3.4403,3.36584 1.7893,4.38621 -0.4267,0.26372 -4.5556,0.74414 -9.1753,1.06761 -4.6197,0.32347 -8.5841,0.7728 -8.8098,0.99851 -0.2257,0.22571 0.5281,0.91267 1.6752,1.52658 1.1472,0.61392 2.0857,1.94928 2.0857,2.96748 0,2.5865 7.5262,3.64091 14.0513,1.96858 4.0434,-1.03629 5.3463,-1.0154 7.4674,0.11977 1.6963,0.90785 6.2008,1.39461 13.2569,1.43255 9.6385,0.0518 10.7235,0.242 11.0544,1.93763 0.5116,2.62234 -1.2828,3.4443 -9.2292,4.22758 -6.6448,0.65499 -6.8014,0.73124 -4.25,2.06809 2.8961,1.5174 3.1797,2.46442 1.614,5.3899 -1.0057,1.87917 -0.5206,1.93426 17.0314,1.93426 15.5314,0 18.1515,0.22137 18.6719,1.57754 1.3343,3.47715 -1.8212,4.49508 -15.2481,4.91886 -7.106,0.22428 -14.492,0.87934 -16.4134,1.45569 -1.9214,0.57635 -4.9589,1.04791 -6.75,1.04791 -3.7168,0 -4.3222,1.853416 -1.2352,3.781286 1.6477,1.02902 3.107,0.98106 7.8943,-0.25946 6.1618,-1.59668 12.2868,-1.98599 13.4198,-0.85298 1.479,1.47904 -2.963,4.38234 -8.4337,5.51231 -5.2337,1.08101 -5.6186,1.32888 -3.9156,2.52174 2.0616,1.444 4.596,1.04118 19.0138,-3.02201 10.3053,-2.90421 23.093,-2.88286 32.5,0.0542 7.56,2.36043 10.5768,5.12634 7.96,7.29806 -1.1439,0.9494 -3.3003,0.75584 -10.2052,-0.91604 -8.9624,-2.16998 -18.2548,-2.80371 -18.2548,-1.24488 0,0.47971 1.8172,1.16278 4.0383,1.51794 2.3703,0.37903 4.2978,1.32222 4.6667,2.28356 0.8075,2.10432 -3.413,5.67324 -5.6198,4.7522 -2.3166,-0.96684 -15.9326,-1.68101 -18.7185,-0.98179 -2.3652,0.59363 -2.3539,0.62826 1.236,3.78024 l 3.6231,3.18113 6.6371,-1.80588 c 9.7948,-2.66506 24.1538,-3.17741 32.1371,-1.14669 3.575,0.90938 8.1151,2.00583 10.0891,2.43656 5.7226,1.24868 12.4109,5.36055 12.4109,7.63005 0,2.72945 -4.5886,2.4616 -15.5,-0.90479 -9.4456,-2.91415 -24.6488,-4.47028 -27.5905,-2.82403 -1.5861,0.88765 -1.2828,1.13172 2.1198,1.70574 6.1288,1.03395 13.8109,3.58828 15.4511,5.13756 1.166,1.10125 1.2343,1.79256 0.3217,3.25385 -1.735,2.77826 0.2439,4.10864 6.1479,4.133 2.7775,0.0115 7.75,0.63622 11.05,1.38836 7.037,1.60388 37.5622,12.25298 38.8692,13.56005 0.493,0.49297 0.6024,1.66243 0.2431,2.5988 -0.5538,1.44316 -1.5207,1.60054 -6.3478,1.03322 -3.132,-0.3681 -7.0169,-1.32897 -8.6331,-2.13527 -1.6163,-0.8063 -3.7484,-1.466 -4.738,-1.466 -0.9896,0 -2.9499,-0.52426 -4.3562,-1.16502 -2.2063,-1.00524 -2.8873,-0.85473 -4.9653,1.09743 -1.8907,1.77624 -3.0707,2.11695 -5.4909,1.58538 -2.3406,-0.51409 -3.2313,-0.28957 -3.7004,0.93276 -0.3398,0.88541 -1.8019,2.25323 -3.2492,3.0396 -2.4342,1.32264 -1.8929,1.43277 7.2243,1.46981 8.9277,0.0363 18.8701,1.67672 24.1443,3.98371 10.3029,4.50661 25.5,12.50802 25.5,13.42595 0,0.63211 -0.8387,1.67307 -1.8638,2.31326 -1.486,0.92803 -3.0774,0.72341 -7.8507,-1.00946 -3.2928,-1.19538 -6.6166,-2.66469 -7.3862,-3.26513 -1.9291,-1.50506 -9.3083,-4.33037 -15.8993,-6.08745 -3.025,-0.80643 -10.9,-1.67532 -17.5,-1.93087 l -12,-0.46464 3.1409,1.95628 c 1.7275,1.07596 3.4582,2.46969 3.846,3.09718 0.5024,0.81298 1.0368,0.71603 1.8591,-0.33732 0.9961,-1.27594 1.9975,-1.29941 7.3189,-0.17146 3.3907,0.7187 6.6532,1.60853 7.25,1.97738 2.3712,1.46552 0.8509,2.55261 -3.5699,2.55261 -4.5916,0 -4.6304,0.0272 -2.845,2 1.3853,1.53071 3.08,2 7.2224,2 4.9573,0 5.359,-0.16816 4.7776,-2 -0.7812,-2.4612 -0.8121,-2.46124 11.2145,0.0138 17.339,3.56829 20.6869,4.50915 26.2855,7.38702 13.6214,7.00184 11.3074,10.89657 -2.5035,4.21362 -6.4209,-3.10698 -17.6112,-6.61444 -21.103,-6.61444 -1.2552,0 -1.2527,0.37165 0.019,2.8319 1.1919,2.30471 3.0794,3.36853 10.1394,5.71449 4.7712,1.58542 8.9034,3.47783 9.1825,4.20534 0.2792,0.72752 -0.236,2.14452 -1.145,3.14889 -1.5668,1.73126 -1.4042,1.93163 3.1287,3.85699 4.8156,2.04539 12.8651,4.57675 19.2134,6.04209 4.0077,0.92509 5.3812,3.21515 1.9013,3.17009 -1.2833,-0.0166 -6.4938,-0.84361 -11.5789,-1.83775 -5.0851,-0.99415 -9.4669,-1.58621 -9.7375,-1.31568 -1.2984,1.29849 8.5177,6.73999 15.8372,8.77915 12.54,3.4936 26.9566,8.77854 27.364,10.03128 0.9065,2.78761 -6.0933,2.32657 -17.7181,-1.16699 -6.9072,-2.0758 -15.0695,-3.72361 -15.6365,-3.15668 -0.2371,0.23708 2.4266,1.85205 5.9192,3.58883 4.8944,2.43386 7.5036,3.11696 11.3813,2.97971 5.5478,-0.19636 7.738,0.63828 6.9645,2.65402 -0.2793,0.72786 0.6987,2.11396 2.1735,3.08023 3.7028,2.42622 17.9692,2.07799 28.698,-0.70049 4.4,-1.13949 10.475,-2.44094 13.5,-2.89211 3.025,-0.45117 8.5834,-1.41301 12.3521,-2.13741 6.2439,-1.2002 6.9638,-1.16439 8.1102,0.4035 1.5464,2.11482 4.7071,2.17198 12.199,0.2206 7.323,-1.9074 14.2735,-1.86875 16.8387,0.0936 1.9505,1.49217 1.9534,1.56452 0.1191,2.92413 -1.2374,0.91721 -4.556,1.38822 -9.7013,1.37691 -4.3012,-0.009 -8.6298,0.397 -9.6191,0.90322 -0.9893,0.50622 -3.2776,1.20082 -5.0852,1.54355 -1.8076,0.34273 -6.435,1.57949 -10.2832,2.74835 -5.4411,1.65268 -6.7608,2.40958 -5.9353,3.40424 1.361,1.63986 13.2308,2.93716 15.6578,1.71129 5.197,-2.62506 13.3986,-6.16071 17.8472,-7.69377 2.75,-0.94771 5.9,-2.09161 7,-2.542 1.1,-0.4504 3.125,-1.01457 4.5,-1.25372 1.375,-0.23915 6.775,-1.56927 12,-2.95583 13.1997,-3.50282 16.2832,-3.84451 19.5233,-2.1635 2.55,1.32293 3.494,1.16039 12.3687,-2.1296 5.2844,-1.95902 10.8273,-4.44049 12.3175,-5.51438 1.4902,-1.07388 2.9969,-1.95252 3.3482,-1.95252 1.2372,0 26.8308,-13.15235 34.8373,-17.90263 4.4577,-2.64482 12.83,-7.94021 18.605,-11.76752 5.775,-3.82732 11.175,-7.21642 12,-7.53134 0.825,-0.31491 4.8543,-2.64841 8.954,-5.18554 4.0997,-2.53713 8.0619,-4.61297 8.8048,-4.61297 0.7429,0 4.2856,-1.77012 7.8727,-3.9336 5.8807,-3.5468 15.9225,-6.84578 17.138,-5.63027 1.2079,1.20796 -1.0026,3.45111 -5.4296,5.50972 -2.662,1.23781 -5.7399,3.04734 -6.8399,4.02116 -1.1,0.97383 -4.475,2.98681 -7.5,4.47329 -5.4896,2.69757 -17.4316,13.76768 -16.8212,15.59303 0.7818,2.33789 23.2511,-12.00289 32.4039,-20.68146 4.3545,-4.12888 9.2673,-8.20816 10.9173,-9.06506 1.65,-0.8569 6.6,-4.11556 11,-7.24146 8.8652,-6.2981 16.7855,-11.04535 18.4281,-11.04535 0.5895,0 1.0719,0.5625 1.0719,1.25 -10e-5,1.49714 -6.3464,6.74067 -8.1966,6.77224 -0.7169,0.0122 -2.4284,0.90222 -3.8034,1.97776 -1.375,1.07554 -3.0064,1.96553 -3.6253,1.97776 -1.1649,0.023 -8.5493,8.18096 -7.9488,8.78143 0.7362,0.73627 18.0414,-10.19934 30.8048,-19.46636 4.9046,-3.56108 6.7693,-3.60673 6.7693,-0.16572 0,2.00406 0.01,2.00415 2.75,0.0332 1.5125,-1.08676 5,-4.07471 7.75,-6.6399 5.9044,-5.50758 12.3019,-9.11849 13.6922,-7.7282 0.6056,0.60563 -0.2598,1.72343 -2.369,3.05982 -3.6161,2.29115 -22.7208,21.148 -21.426,21.148 0.4367,0 1.9885,-0.83754 3.4484,-1.86119 1.4599,-1.02366 4.4544,-2.44193 6.6544,-3.15171 4.2165,-1.36037 8.9095,-4.43888 14.1652,-9.29219 4.6321,-4.27746 26.4838,-19.69491 27.9142,-19.69491 0.2973,0 2.6033,-1.575 5.1244,-3.5 4.729,-3.61087 6.7188,-4.24325 7.8077,-2.48138 0.3463,0.56024 -0.66,1.57274 -2.2361,2.25 -3.892,1.67238 -16.6076,11.12064 -15.4747,11.4983 0.7248,0.24159 13.9074,-6.82186 32.6993,-17.52078 6.8932,-3.92458 12.9082,-6.23798 13.8278,-5.31832 0.6755,0.67549 0.5404,1.17211 -0.4106,1.50973 -6.7703,2.40344 -6.9172,2.51864 -6.9172,5.42269 0,3.2128 -1.9064,4.79767 -8.5,7.06659 -3.8615,1.32878 -17.926,11.9805 -17.018,12.88855 1.0095,1.00941 19.7249,-7.15489 21.6109,-9.42736 2.5544,-3.07783 19.5739,-13.39124 27.6394,-16.74876 5.1442,-2.14145 16.1052,-5.63926 17.6716,-5.63926 0.3279,0 0.5961,0.675 0.5961,1.5 0,1.95673 0.2028,1.93211 9,-1.09288 4.125,-1.41841 11.775,-3.69028 17,-5.04861 5.225,-1.35833 11.75,-3.292196 14.5,-4.297496 6.2947,-2.30112 20.4009,-5.24027 21.5984,-4.50022 1.5616,0.96516 0.9899,2.07794 -1.6965,3.30194 -1.6321,0.74366 -2.3915,1.72203 -2.0425,2.631576 0.3056,0.79629 -0.1003,2.10369 -0.9019,2.90532 -2.2931,2.2931 -1.7134,2.78407 1.3914,1.17849 1.567,-0.81029 5.0545,-2.00566 7.75,-2.65638 2.6956,-0.65072 11.4261,-3.993536 19.4011,-7.428496 14.4294,-6.21497 32.1918,-12.49324 35.3457,-12.49324 2.1162,0 2.1159,1.83248 -7e-4,4.17126 -1.543,1.70502 -1.5374,1.82874 0.083,1.82874 3.4173,0 0.8481,2.42841 -3.9956,3.77667 -8.7936,2.44773 -9.7821,2.59763 -9.0223,1.36832 0.8794,-1.42298 -0.7859,-1.44611 -5.708,-0.0793 -2.4872,0.69068 -4.1042,1.86099 -4.6862,3.3916 -0.8891,2.3385 -10.2128,7.542666 -13.5133,7.542666 -0.8915,0 -1.3857,0.38066 -1.0981,0.84591 1.0133,1.6396 18.3024,-3.51663 38.0952,-11.361356 19.037,-7.54515 24.8477,-9.64932 30.25,-10.95404 4.4687,-1.07926 5.25,-1.05608 5.25,0.1558 0,0.78306 -2.475,2.51831 -5.5,3.85611 -3.025,1.3378 -5.5,2.69541 -5.5,3.01693 0,0.32151 2.525,0.26908 5.6112,-0.11651 4.1542,-0.51904 5.8208,-0.36185 6.4186,0.60539 0.9701,1.56963 7.7403,0.2698 19.233,-3.69259 3.9805,-1.37236 8.3622,-2.74755 9.7372,-3.05599 1.375,-0.30843 3.25,-1.21286 4.1667,-2.00983 1.912,-1.66231 17.9712,-6.21434 22.0833,-6.25957 1.7437,-0.0192 2.75,0.49787 2.75,1.41305 0,1.87384 -3.8565,4.5567 -6.5501,4.5567 -1.1578,0 -4.8737,1.125 -8.2576,2.5 -3.3839,1.375 -6.9981,2.5 -8.0315,2.5 -1.0334,0 -4.5299,1.3443 -7.7699,2.98733 -3.24,1.64304 -6.4443,2.99304 -7.1207,3 -0.6763,0.007 -2.9602,0.70507 -5.0752,1.55133 -2.874,1.14994 -3.8265,2.09138 -3.7702,3.72655 0.063,1.84684 -0.8594,2.43835 -5.9205,3.794546 -4.4188,1.18409 -5.9969,2.06553 -6,3.35141 0,0.95963 -1.1293,2.40787 -2.5043,3.21833 -2.433,1.43407 -2.3928,1.45746 1.5,0.87302 5.5753,-0.83704 18.5767,-4.95486 27,-8.551456 3.9977,-1.70693 17.0985,-6.17332 21,-7.15939 2.2,-0.55603 6.25,-1.60287 9,-2.32631 2.75,-0.72343 7.925,-1.59464 11.5,-1.93601 9.8159,-0.93731 18.043,-2.60778 22.5464,-4.57792 8.8549,-3.87391 11.0936,-2.05881 4.0726,3.30207 -3.6406,2.77982 -6.2506,3.75393 -13.8042,5.15198 -5.1231,0.94821 -12.9726,2.58948 -17.4432,3.64726 -4.4706,1.05778 -11.6706,2.43757 -16,3.0662 -4.3294,0.62863 -8.3216,1.490036 -8.8716,1.914236 -0.55,0.4242 -2.8139,1.25607 -5.0309,1.84859 -2.217,0.59253 -4.917,1.78139 -6,2.64192 -1.8098,1.43803 -1.2006,1.51391 7.5309,0.93796 5.225,-0.34465 11.75,-1.30952 14.5,-2.14416 2.75,-0.83464 8.825,-1.89373 13.5,-2.35354 4.675,-0.4598 12.55,-2.156796 17.5,-3.771096 8.6807,-2.83094 28.3099,-8.36301 41.2349,-11.62115 9.7108,-2.4479 14.7756,-1.88909 11.0151,1.21531 -0.6875,0.56755 -4.954,2.25444 -9.481,3.74866 -4.5271,1.49422 -7.988,3.10996 -7.691,3.59055 0.8271,1.33824 4.7037,1.04424 9.5463,-0.72399 2.4066,-0.87877 6.6257,-2.18446 9.3757,-2.90153 2.75,-0.71708 8.2568,-2.24808 12.2373,-3.40224 3.9806,-1.15415 8.3681,-2.09846 9.75,-2.09846 6.7051,0 -1.0475,4.86353 -10.9873,6.89287 -3.3,0.67374 -7.125,1.61525 -8.5,2.09225 -5.4919,1.90518 -28.7754,8.844086 -33,9.834626 l -4.5,1.0551 5,-0.3284 c 5.2286,-0.3434 24.4727,-4.76651 30.5,-7.010186 9.7708,-3.63719 32.2424,-4.95465 34.391,-2.01627 0.9739,1.33193 1.7299,1.34998 6.1102,0.14591 5.766,-1.58494 14.6899,-3.29084 22.2712,-4.25735 2.8999,-0.36969 5.5139,-1.06285 5.8091,-1.54036 0.2951,-0.4775 3.693,-0.86819 7.5508,-0.86819 6.1413,0 6.9727,0.21782 6.6794,1.75 -0.3557,1.85818 -4.17,3.08496 -17.8117,5.7287 -17.1727,3.328046 -16.8098,3.208636 -14.6191,4.810586 2.935,2.14608 -0.088,4.58991 -7.2295,5.84414 l -6.3486,1.115 3.1419,1.52163 c 2.3734,1.14948 3.6815,1.26156 5.3485,0.45825 4.323,-2.08311 17.3814,-6.22831 19.6208,-6.22831 1.2526,0 3.4718,-0.65245 4.9317,-1.44988 3.6914,-2.01636 18.5645,-4.736256 21.6561,-3.960316 4.4908,1.127106 1.0171,3.134376 -9.3188,5.384926 -5.3256,1.15962 -12.608,2.96901 -16.183,4.02086 -3.575,1.05186 -7.7344,2.20616 -9.2431,2.56512 -1.5087,0.35895 -2.4878,1.0657 -2.1758,1.57056 0.59,0.95466 8.3558,0.31111 14.4189,-1.1949 1.925,-0.47815 5.7795,-1.09425 8.5654,-1.36913 2.786,-0.27487 7.061,-1.40507 9.5,-2.51154 2.4391,-1.10648 6.113,-2.02166 8.1644,-2.03374 2.0513,-0.0121 5.4263,-0.65218 7.5,-1.42245 2.0736,-0.77027 6.0202,-1.92183 8.7702,-2.55903 2.75,-0.6372 6.575,-1.56633 8.5,-2.064726 7.4904,-1.93937 24.3168,-4.97575 27.5735,-4.97575 1.8846,0 3.4265,0.38164 3.4265,0.84809 0,1.0786 -9.4221,4.15191 -12.7288,4.15191 -3.5368,0 -23.568,4.982566 -24.7712,6.161586 -0.6549,0.64177 -0.03,0.74025 1.8113,0.28539 2.3342,-0.57669 2.9054,-0.33418 3.3666,1.42924 0.6379,2.4393 0.9986,2.4854 8.5393,1.09142 3.0715,-0.56779 7.9916,-1.20811 10.9337,-1.42292 2.942,-0.21481 8.0491,-0.67356 11.3491,-1.01945 6.0611,-0.6353 9.3304,0.32207 8.0691,2.36293 -0.4008,0.64857 -3.8916,1.14225 -8.3781,1.18489 -5.8021,0.0551 -8.4278,0.54685 -10.691,2.00208 -5.1005,3.27961 -9.4473,4.98516 -15.3381,6.01821 -3.1141,0.54609 -7.0119,1.53598 -8.6619,2.19976 -2.9281,1.17795 -2.8563,1.21971 3,1.74332 5.9751,0.53423 19.599,-1.76769 32.5,-5.49129 6.3242,-1.82533 19.2928,-4.79825 33,-7.56489 5.225,-1.05461 11.4977,-2.40267 13.9394,-2.9957 2.4417,-0.59302 9.5292,-1.351 15.75,-1.68438 9.937,-0.53254 11.3106,-0.41258 11.3106,0.98781 0,2.79456 -1.6392,3.1582 -18.6701,4.14197 -3.9436,0.2278 -7.9936,0.85055 -9,1.38391 -1.0065,0.53336 -5.2049,1.52341 -9.3299,2.20013 -17.638,2.89356 -29,5.32816 -29,6.21403 0,1.05675 1.2082,0.9834 11,-0.66782 9.4099,-1.58681 16.5,-0.96084 16.5,1.45673 0,0.96704 -1.2178,1.59483 -3.5,1.80434 -1.925,0.17671 -3.9275,0.73921 -4.45,1.25 -0.5225,0.51078 -3.3646,0.9287 -6.3157,0.9287 -2.9512,0 -6.249,0.47266 -7.3284,1.05035 -1.8053,0.9662 -5.5283,1.58925 -11.9059,1.99249 -1.8879,0.11936 -1.5206,0.39066 1.5,1.10802 4.0996,0.97362 6.5565,0.74072 17,-1.61151 3.3,-0.74327 12.075,-2.30691 19.5,-3.47476 7.425,-1.16784 16.0021,-2.56013 19.0602,-3.09397 7.3429,-1.28183 16.9398,-1.2474 16.9398,0.0608 0,0.56727 -0.5625,1.18085 -1.25,1.36353 -7.1116,1.88964 -12.5132,2.91736 -19.25,3.66257 -13.4462,1.48738 -22.9358,3.4339 -25.5013,5.23088 -1.344,0.9414 -3.3561,1.71853 -4.4712,1.72695 -1.1151,0.008 -2.6673,0.42026 -3.4493,0.9152 -1.0485,0.66363 -0.3058,1.2004 2.8293,2.04458 3.5203,0.94792 6.5152,0.76934 17.4218,-1.03885 7.2439,-1.20096 16.0016,-2.5627 19.4615,-3.0261 3.4599,-0.46339 6.6852,-1.0863 7.1673,-1.38422 4.2556,-2.63012 43.0419,-5.95408 43.0419,-3.68867 0,0.61856 -1.0125,1.35563 -2.25,1.63795 -2.8218,0.64374 -21.2644,3.17327 -29.25,4.01184 -5.7114,0.59975 -11.8612,2.6704 -12.894,4.34139 -0.2634,0.4262 6.13,0.84269 14.2076,0.92553 16.0309,0.16441 21.6864,1.02163 21.6864,3.28704 0,1.16159 -2.0385,1.51959 -10,1.75624 -5.5,0.16349 -11.8627,-0.16796 -14.1394,-0.73654 -2.8925,-0.72239 -5.1517,-0.71009 -7.5,0.0408 -1.8483,0.59104 -4.0356,1.29024 -4.8606,1.55379 -2.8335,0.90517 1.1234,2.13244 12.1577,3.77088 12.7451,1.89247 15.2773,1.94361 17.8134,0.35975 1.5528,-0.96974 3.6127,-0.87196 10.2365,0.48589 7.5174,1.54106 9.0658,1.56273 16.5685,0.23183 11.1903,-1.98508 27.8497,-3.50182 38.4739,-3.50283 7.1746,-6.9e-4 8.75,0.27368 8.75,1.52391 0,2.38701 -4.3745,3.47525 -13.97,3.47525 -9.0499,0 -32.3612,2.37583 -39.53,4.02879 -2.2,0.50728 -5.8859,0.93332 -8.191,0.94676 -2.305,0.0135 -4.4691,0.47445 -4.809,1.02445 -0.3399,0.55 -2.193,1 -4.118,1 -2.0187,0 -3.245,0.41263 -2.8975,0.97491 0.3364,0.54439 2.5043,0.71424 4.9092,0.38461 4.6653,-0.63946 8.6063,0.79714 8.6063,3.13729 0,1.15781 1.9691,1.38659 10.4556,1.21482 8.7738,-0.17759 10.6637,0.0585 11.75,1.46759 1.1529,1.49561 2.3331,1.56861 10.7944,0.66768 16.6301,-1.77072 18.4522,-1.68328 18.8196,0.9031 0.2484,1.74929 -0.1709,2.25 -1.884,2.25 -2.7406,0 -10.1078,2.05028 -11.3856,3.16858 -0.5225,0.45728 -4.01,0.83142 -7.75,0.83142 -3.74,0 -6.8,0.41045 -6.8,0.9121 0,0.89908 2.2916,1.37203 12.8753,2.65729 4.0291,0.48927 6.1413,1.38475 8.4336,3.57542 2.6806,2.56166 3.5915,2.85674 7.3747,2.38893 10.1133,-1.25055 13.601,-1.62369 28.3164,-3.02946 19.6728,-1.87937 26.0919,-1.89407 28.5589,-0.0654 1.7937,1.32963 1.8176,1.56432 0.3145,3.09088 -1.2398,1.25916 -4.0934,1.75424 -12,2.08195 -5.7054,0.23648 -12.3984,0.63497 -14.8734,0.88554 -17.3957,1.76115 -28.9298,2.51748 -31.5,2.06556 -2.8235,-0.49645 -2.8858,-0.44025 -1.0589,0.95485 1.0677,0.81529 3.534,1.48234 5.4807,1.48234 3.1645,0 8.4287,1.6725 17.6239,5.5993 1.6752,0.71537 5.0502,1.71164 7.5,2.21392 5.2391,1.07416 43.8514,0.63965 58.9543,-0.66341 11.0422,-0.95271 14,-0.38484 14,2.68786 0,1.51839 -1.7958,1.97993 -12.75,3.27699 -11.9169,1.41103 -12.554,1.59403 -9.75,2.80049 l 3,1.29082 -2.5,0.99733 c -1.4063,0.56101 -7.5311,0.80209 -14,0.55107 -6.325,-0.24544 -12.625,-0.15669 -14,0.19722 -2.1987,0.56592 -1.8973,0.80713 2.5,2.00112 2.75,0.7467 5.45,1.68707 6,2.0897 0.55,0.40264 4.1442,1.98139 7.9872,3.50834 6.765,2.688 7.5438,2.77199 24.5,2.64207 26.8412,-0.20568 45.638,1.00376 47.7036,3.06939 0.9296,0.9296 1.4406,1.9397 1.1356,2.24468 -0.3049,0.30498 -6.5528,0.55792 -13.8841,0.56209 -8.1305,0.005 -13.8414,0.43229 -14.6416,1.09645 -0.7216,0.59888 -6.9642,1.59415 -13.8724,2.21172 l -12.5604,1.12285 2.816,2.69324 c 2.291,2.19104 4.2751,2.87395 10.6405,3.66235 8.478,1.05006 12.6062,3.31817 10.5496,5.7962 -0.6154,0.74152 -2.7513,1.36252 -4.7464,1.38001 -3.199,0.0281 -3.4244,0.18615 -1.908,1.33799 1.2577,0.9554 6.8974,1.35149 21,1.47487 23.49,0.20552 32.3604,0.94433 33.9215,2.8253 2.7131,3.26911 -0.5469,3.83802 -20.7007,3.61253 -11.0167,-0.12327 -19.4404,0.17252 -19.4404,0.68261 0,1.66846 3.4121,1.85812 31.7695,1.76589 28.7379,-0.0935 31.2348,0.20959 29.9215,3.63178 -0.7288,1.89943 -5.4725,2.51671 -23.5374,3.06287 -7.8905,0.23856 -14.5101,0.59753 -14.7103,0.79772 -0.2002,0.20019 -0.1111,1.33113 0.1981,2.51319 0.656,2.50853 1.9864,2.85727 16.3586,4.28804 30.2969,3.01609 37.0342,4.44594 32.9916,7.00174 -0.8204,0.51867 -2.8416,0.95427 -4.4916,0.96798 -5.185,0.0431 -32.8557,-3.06517 -36.071,-4.05187 -1.689,-0.51834 -4.164,-0.92822 -5.5,-0.91084 l -2.429,0.0316 2.7235,2.2184 c 1.4979,1.22012 3.9729,3.15602 5.5,4.302 3.0134,2.26134 12.1545,4.4164 18.7332,4.4164 2.2677,0 6.7206,0.67656 9.8953,1.50347 4.0517,1.05533 11.0855,1.51645 23.5977,1.547 16.4543,0.0402 17.963,0.19556 19.6142,2.02016 2.8222,3.11847 0.5277,4.34151 -8.3261,4.43807 -23.1561,0.25255 -28.6861,0.55532 -27.2378,1.4913 0.825,0.53316 3.3,1.02112 5.5,1.08437 5.6318,0.1619 9,1.2636 9,2.94375 0,1.78327 -6.8694,3.05026 -10.4562,1.92853 -1.3991,-0.43755 -6.8188,-1.07739 -12.0438,-1.42186 l -9.5,-0.62631 2.1671,2.18508 c 1.3095,1.3204 3.2882,2.13628 5,2.06175 2.9693,-0.12927 6.877,-0.17016 11.7058,-0.12246 1.5802,0.0156 3.8302,0.54709 5,1.18107 2.477,1.34232 27.5543,1.73778 35.0439,0.55263 3.814,-0.60354 5.4659,-0.41818 7.3655,0.82646 2.2741,1.49008 2.3313,1.72225 0.8021,3.25574 -1.2368,1.24033 -4.1896,1.77568 -11.8655,2.15125 -8.4321,0.41258 -10.1512,0.76227 -9.8319,2 0.2128,0.825 0.4662,2.27833 0.5629,3.22963 0.2682,2.63561 1.0507,3.01687 6.7673,3.2972 8.6474,0.42404 25.1106,3.02804 27.5931,4.36442 1.3266,0.71414 2.1676,1.9601 1.975,2.92622 -0.3902,1.95812 -3.0154,2.00031 -12.7853,0.20548 -3.575,-0.65677 -8.75,-1.60533 -11.5,-2.10792 -9.0514,-1.65423 -29.6873,-4.06102 -30.2234,-3.52499 -0.289,0.28902 0.6555,1.92902 2.099,3.64445 1.4434,1.71543 2.6385,3.87193 2.6558,4.79224 0.06,3.18906 4.1226,4.83411 13.569,5.49426 5.0053,0.34978 11.4178,1.13294 14.25,1.74035 4.4384,0.95185 5.1496,1.43137 5.1496,3.47183 0,1.3021 -0.7743,2.80079 -1.7207,3.33042 -1.3996,0.78323 -0.9796,1.08877 2.25,1.63701 2.1839,0.37072 4.8707,0.94615 5.9707,1.27872 1.1,0.33258 3.8,0.53216 6,0.44351 8.06,-0.32479 17.831,3.77946 15.2182,6.39229 -2.1147,2.1147 -26.0142,-0.57807 -40.6381,-4.57872 -7.6059,-2.08075 -9.1361,-2.04125 -7.3381,0.18943 0.5649,0.7008 1.3398,2.73667 1.722,4.52417 0.6311,2.95147 1.0321,3.24954 4.3655,3.24503 l 3.6705,-0.005 -3,-2.43588 -3,-2.43587 7.5,0.57725 c 4.125,0.31748 8.175,0.91361 9,1.32471 0.825,0.4111 3.4792,1.07554 5.8981,1.47652 5.2002,0.862 9.6581,2.70388 13.087,5.4072 3.4562,2.72487 1.8202,3.72619 -3.6832,2.25427 -3.7078,-0.99169 -4.789,-0.98816 -5.4106,0.0177 -0.9866,1.59625 0.8173,3.82408 3.0963,3.82408 0.9585,0 2.8159,0.83815 4.1275,1.86255 3.9527,3.08695 11.0882,6.42125 16.3134,7.62298 5.2019,1.19633 7.3022,3.16801 6.262,5.87855 -0.8131,2.11895 -7.4245,2.19174 -12.3447,0.13592 -1.9745,-0.825 -4.5476,-1.50101 -5.7179,-1.50224 -1.1704,-10e-4 -7.5132,-2.04669 -14.0951,-4.54546 -11.1099,-4.21775 -17.4953,-5.34652 -16.701,-2.9523 0.1824,0.55 2.098,1.6906 4.2568,2.53466 5.253,2.0538 8.7459,5.53088 7.1546,7.12213 -1.109,1.10905 -4.8039,0.48397 -10.8473,-1.83511 -0.8212,-0.31512 -1.3959,0.0968 -1.3959,1.00043 0,1.07238 1.7358,1.87712 5.75,2.66577 8.6387,1.69721 14.5186,3.84174 27.9256,10.1851 6.6966,3.16841 14.3219,6.3012 16.9452,6.96176 8.7675,2.20767 13.8623,4.41951 14.1982,6.16398 0.8422,4.37324 -7.2751,3.03278 -20.2795,-3.34887 -7.9046,-3.87906 -9.0418,-4.47193 -13.0395,-6.79832 -7.4847,-4.3556 -8.2146,-4.53956 -11.5677,-2.91561 -3.1665,1.53359 -3.1733,1.5527 -0.8127,2.28869 1.3092,0.40821 5.9804,2.54524 10.3804,4.74896 4.4,2.20373 10.0271,5.0165 12.5047,6.25061 6.9286,3.45127 16.6695,10.18447 17.3683,12.00556 1.6599,4.32565 -1.1143,4.68959 -6.7186,0.88136 -2.0955,-1.42389 -4.0555,-2.3433 -4.3557,-2.04312 -1.3261,1.32604 0.9368,3.50939 6.2392,6.01997 3.1485,1.49072 7.1704,3.81327 8.9377,5.16122 1.7672,1.34796 3.8734,2.45083 4.6802,2.45083 1.6754,0 5.8442,3.59442 5.8442,5.03896 0,2.154 -4.5439,0.70609 -11.1061,-3.53896 -3.8259,-2.475 -7.3823,-4.5 -7.9029,-4.5 -0.5207,0 -3.3192,-1.08557 -6.2188,-2.41237 -2.8997,-1.32681 -7.2972,-2.954 -9.7722,-3.61598 -2.475,-0.66198 -5.625,-1.56885 -7,-2.01526 -1.375,-0.44641 -4.6046,-1.09186 -7.177,-1.43434 l -4.6769,-0.62269 0.7458,2.78897 c 0.6297,2.35442 2.8387,3.8482 14.177,9.58701 7.3871,3.73892 15.9061,8.34796 18.9311,10.2423 3.025,1.89434 6.85,4.10645 8.5,4.91579 1.65,0.80935 4.3368,2.56471 5.9706,3.90081 2.4948,2.0402 2.7667,2.67487 1.6979,3.96276 -0.916,1.10372 -2.0288,1.31457 -3.9706,0.75233 -3.3271,-0.96335 -28.1083,-13.67771 -30.1873,-15.48803 -0.8308,-0.72344 -3.1978,-1.91098 -5.2599,-2.63897 -3.0068,-1.06149 -3.9971,-1.07515 -5,-0.069 -1.0015,1.00467 -0.7526,1.63488 1.2493,3.16306 1.375,1.04963 3.85,2.20437 5.5,2.5661 5.2483,1.15057 15.8857,5.68812 19.241,8.20754 2.669,2.0041 3.1315,2.89919 2.6209,5.07178 -0.9403,4.00041 -1.7776,4.38561 -4.6396,2.13437 -1.4412,-1.13364 -5.2308,-3.20098 -8.4213,-4.59409 -3.1906,-1.39311 -7.601,-3.3291 -9.801,-4.3022 -2.2,-0.97311 -6.475,-2.59025 -9.5,-3.59366 -3.025,-1.00341 -6.0625,-2.02595 -6.75,-2.2723 -2.4639,-0.88289 -1.2357,3.72933 1.4628,5.49301 1.492,0.97518 4.3045,3.23994 6.25,5.03281 1.9455,1.79288 5.7872,4.42774 8.5372,5.85527 2.75,1.42752 6.125,3.62257 7.5,4.87789 1.375,1.25531 3.4532,2.56943 4.6181,2.92027 1.165,0.35083 2.9222,1.52638 3.905,2.61234 0.9828,1.08596 2.3048,1.97447 2.9378,1.97447 1.0252,0 4.8437,2.41692 21.5467,13.63789 4.5458,3.05386 8.9924,7.74996 8.9924,9.49697 0,1.74851 -4.6232,0.62887 -9,-2.1796 -2.475,-1.58815 -6.3,-3.86463 -8.5,-5.05885 -2.2,-1.19422 -5.0732,-3.00946 -6.3849,-4.03386 -1.3116,-1.0244 -3.6503,-1.86255 -5.197,-1.86255 -1.5468,0 -4.9281,-1.125 -7.5141,-2.5 -2.586,-1.375 -5.3358,-2.5 -6.1105,-2.5 -0.7747,0 -3.4725,-1.15225 -5.995,-2.56056 -2.5225,-1.40832 -7.1091,-3.02489 -10.1925,-3.5924 -3.0833,-0.5675 -6.1685,-1.49535 -6.856,-2.06188 -0.9075,-0.74786 -1.25,-0.59553 -1.25,0.55601 0,1.00108 3.7804,3.53578 10.25,6.87244 6.2516,3.22426 10.3761,5.96904 10.5733,7.03639 0.2019,1.09255 -0.299,1.75 -1.3333,1.75 -3.6018,0 -0.3904,2.58426 10.0642,8.09876 6.0202,3.17549 12.4037,6.5585 14.1857,7.51781 1.7819,0.9593 3.496,2.55132 3.8091,3.53783 0.3131,0.9865 2.0052,2.77468 3.7601,3.97373 5.411,3.69691 12.6909,11.20251 12.6909,13.08428 0,3.78617 -3.2766,2.16961 -19.7645,-9.75119 -14.57,-10.5341 -18.4841,-13.10869 -21.2355,-13.96811 -1.375,-0.42948 -3.8925,-1.84113 -5.5944,-3.137 -1.7019,-1.29586 -3.6043,-2.35611 -4.2275,-2.35611 -0.6231,0 -3.6283,-1.35 -6.6781,-3 -3.0498,-1.65 -5.7599,-3 -6.0225,-3 -0.2626,0 -0.4775,1.73886 -0.4775,3.86414 0,4.2222 -1.04,3.53157 12.5,8.30121 2.8035,0.98758 4.0951,2.06753 4.3181,3.61046 0.2867,1.98434 -0.01,2.14319 -3,1.61094 -1.825,-0.32476 -5.6806,-1.43832 -8.5681,-2.47457 -5.2034,-1.8674 -5.25,-1.8665 -5.25,0.10186 0,1.15153 0.6704,1.98596 1.5956,1.98596 0.8776,0 2.7901,0.83891 4.25,1.86425 1.4599,1.02534 4.4544,2.48774 6.6544,3.24979 4.7403,1.64197 22.7104,12.50953 30.5,18.44515 8.4436,6.43396 11,9.35686 11,12.57717 0,3.82834 -2.0449,3.69737 -6.7471,-0.43211 -2.0641,-1.81266 -4.9491,-4.046 -6.4112,-4.96297 -2.3226,-1.45667 -2.8116,-1.48247 -3.8724,-0.20424 -1.7201,2.0726 -4.3432,1.81336 -6.5643,-0.64876 -1.6886,-1.87187 -17.9144,-10.8495 -21.155,-11.70496 -0.7931,-0.20936 -1.25,0.75364 -1.25,2.63469 0,2.2292 1.2675,4.23884 5.1094,8.10099 3.7137,3.73326 4.9668,5.68172 4.5873,7.13287 -0.4097,1.56679 0.3739,2.4501 3.6406,4.10362 2.2895,1.15889 8.4805,4.973 13.7578,8.47579 5.2773,3.5028 9.9598,6.36872 10.4056,6.36872 1.916,0 7.4993,5.27279 7.4993,7.08228 0,4.32362 -2.9159,3.64238 -13.036,-3.04555 -8.0308,-5.30724 -8.6256,-5.42154 -10.3389,-1.98698 -1.4062,2.81869 -1.3416,3.07989 1.4516,5.87314 5.4912,5.49119 3.0268,8.91117 -2.9883,4.14709 -2.1319,-1.68849 -4.1291,-3.06998 -4.4383,-3.06998 -0.3091,0 -2.8517,-1.35 -5.6501,-3 -6.239,-3.67863 -8.474,-3.89831 -7.6303,-0.75 0.3317,1.2375 0.6091,3.27259 0.6166,4.52243 0.01,1.73327 1.9711,3.56461 8.2637,7.71863 11.8353,7.81299 15.9986,11.71735 15.5868,14.61713 -0.5494,3.868 -3.7304,3.56448 -7.8854,-0.75238 -2.0412,-2.12069 -5.3713,-4.98081 -7.4003,-6.35581 -2.0289,-1.375 -5.027,-3.56849 -6.6623,-4.87443 -3.3175,-2.64931 -5.1294,-2.1539 -2.5493,0.69704 0.9133,1.00918 1.6605,2.10627 1.6605,2.43797 0,0.33171 2.4108,3.13223 5.3573,6.22338 5.9387,6.23012 8.6767,12.56526 6.5422,15.13716 -2.33,2.80749 -4.9969,1.18023 -6.748,-4.1174 -1.9182,-5.80329 -5.1616,-7.5883 -5.1368,-2.82704 0.015,2.885 0.343,3.61552 5.387,11.99992 2.6507,4.40627 2.9277,5.75812 3.203,15.63201 0.1657,5.94474 -0.076,11.79474 -0.5381,13 -0.4617,1.20527 -2.9043,4.40389 -5.4281,7.10806 -4.1765,4.47499 -4.9913,4.91666 -9.0706,4.91666 -2.8124,0 -4.6724,0.49666 -4.9935,1.33334 -0.8015,2.08874 -4.1668,1.56188 -5.229,-0.81864 -0.6417,-1.43817 -3.0972,-2.87627 -7.4028,-4.33562 -3.5434,-1.20101 -7.2263,-2.52931 -8.1842,-2.95179 -3.1838,-1.40426 -3.2659,2.24497 -0.1372,6.10443 2.2268,2.74695 4.4642,4.04462 9.8788,5.72964 5.8364,1.81628 7.0566,2.57285 7.3405,4.55147 0.2027,1.41296 -0.303,2.73319 -1.25,3.26315 -2.2783,1.27498 -2.0937,1.7931 2.9555,8.29548 4.3011,5.53889 5.3962,9.36477 2.914,10.18022 -1.2052,0.39594 -6.3008,-4.38017 -11.7798,-11.04114 -2.1008,-2.55413 -4.2154,-4.64387 -4.6989,-4.64387 -0.8024,0 0.9092,5.35078 2.8787,9 0.4453,0.825 1.6264,4.54001 2.6247,8.25559 1.7378,6.46773 1.7396,6.83903 0.043,8.71408 -1.4128,1.56104 -2.6101,1.84507 -5.9,1.39957 -3.5448,-0.48001 -4.4698,-0.19257 -6.5518,2.03592 -3.3076,3.54027 -5.3779,3.26363 -8.9052,-1.18991 -1.6487,-2.08162 -4.1748,-4.41477 -5.6136,-5.18478 -2.2827,-1.22166 -2.8157,-1.20025 -4.184,0.16809 -1.2249,1.22491 -1.3279,2.01699 -0.4705,3.61903 0.6037,1.12801 1.0976,2.98051 1.0976,4.11667 0,1.13616 0.4284,2.06574 0.952,2.06574 1.7895,0 6.7917,8.49328 7.5079,12.7478 0.6086,3.61482 0.4413,4.33338 -1.1224,4.82215 -3.5972,1.12438 -4.8418,2.16312 -5.1603,4.30681 -0.3768,2.53625 -4.0408,5.22956 -6.7749,4.98 -7.6594,-0.69916 -10.0746,1.78825 -5.9334,6.11078 2.4543,2.56177 3.2671,6.48902 1.7658,8.53246 -2.1718,2.95604 -7.8457,5.70757 -12.8305,6.22205 -5.7039,0.58869 -7.3985,1.6837 -5.5171,3.56508 2.0495,2.04952 1.338,9.16357 -1.1371,11.3697 -2.3041,2.05365 -10.6284,4.34317 -15.7911,4.34317 -3.9387,0 -5.8846,3.40497 -2.9819,5.21773 2.723,1.7005 2.7217,5.78227 0,5.78227 -2.3635,0 -3.9752,3.47817 -3.9752,8.57867 0,1.89666 -0.529,4.29551 -1.1755,5.33079 -0.9407,1.50619 -0.8585,2.19936 0.4109,3.46884 4.1095,4.10941 -1.9837,8.29194 -7.6361,5.24168 -3.4332,-1.85267 -11.0406,-8.79916 -12.508,-11.42135 -0.5177,-0.92508 -1.2864,-1.33691 -1.7081,-0.91517 -1.1115,1.11146 1.4696,7.7994 4.1358,10.71654 1.2567,1.375 3.0054,4.65722 3.886,7.29383 1.4286,4.27745 1.4403,5.10462 0.109,7.67913 -2.5404,4.9126 -7.3217,4.99675 -18.8043,0.33097 -6.6804,-2.71451 -9.2576,-2.60969 -5.9281,0.24111 1.2201,1.04469 2.2184,2.66911 2.2184,3.60981 0,2.08215 -3.7773,3.46782 -5.3007,1.94449 -0.6063,-0.60461 -1.911,-1.09931 -2.901,-1.09931 -1.4349,0 -1.8,0.81561 -1.8,4.02144 0,3.30125 -0.4404,4.22209 -2.459,5.14185 -1.9729,0.89889 -2.9673,0.78738 -5.0298,-0.564 -2.5124,-1.6462 -2.6688,-1.60406 -6.894,1.85815 -2.4851,2.03637 -5.4267,3.54256 -6.9187,3.54256 -1.4275,0 -3.7243,1.04613 -5.1039,2.32474 -2.2776,2.11082 -2.5243,3.13111 -2.6811,11.088 -0.1499,7.60953 0.1089,9.11372 1.9658,11.42526 3.7093,4.61753 4.4005,7.19532 2.4941,9.30185 -2.3513,2.59818 -3.0739,2.39496 -7.6087,-2.13985 -4.604,-4.60403 -5.7886,-4.77109 -11.2647,-1.58861 -2.8359,1.64811 -3.8941,2.87236 -3.636,4.20663 0.2002,1.03509 0.4252,3.68198 0.5,5.88198 0.1937,5.69671 -2.8993,5.98926 -8.0551,0.76188 -5.5732,-5.65063 -9.7236,-8.26188 -13.1315,-8.26188 -6.9934,0 -7.9856,2.38347 -2.6774,6.4322 1.925,1.46827 3.5,3.26658 3.5,3.99625 0,0.72966 0.7362,1.93765 1.636,2.68443 0.8998,0.74677 2.6982,2.93937 3.9964,4.87244 1.2982,1.93307 3.4771,5.08968 4.8421,7.01468 2.2826,3.21923 2.4327,4.10166 1.8712,11 -0.3357,4.125 -1.1747,9.38901 -1.8645,11.6978 -1.1349,3.79898 -1.0702,4.36416 0.6809,5.9489 2.774,2.51047 2.1561,7.73732 -0.9671,8.18006 -1.2678,0.17972 -2.9266,-0.189 -3.6861,-0.81939 -0.9724,-0.80698 -1.9499,-0.84171 -3.3034,-0.11737 -2.0365,1.08989 -5.2055,5.36822 -5.2055,7.02766 0,1.14186 -14.078,15.08236 -15.2311,15.08236 -0.4229,0 -0.7689,0.435 -0.7689,0.9666 0,1.1972 8.921,11.3952 10.4132,11.9038 1.8752,0.6392 4.5414,4.5407 4.5646,6.6796 0.012,1.1275 0.4166,2.4775 0.8987,3 0.482,0.5225 1.1745,4.4228 1.5387,8.6673 0.6069,7.0722 0.4919,7.8238 -1.3765,8.9906 -1.1213,0.7002 -2.0387,1.9961 -2.0387,2.8796 0,0.8836 -0.843,2.5784 -1.8733,3.7664 -1.0303,1.188 -2.1701,4.0159 -2.5328,6.2843 -0.3627,2.2684 -1.7698,6.47119 -3.1267,9.33959 -1.357,2.8683 -2.4672,5.6724 -2.4672,6.2312 0,0.5588 -1.3418,2.7654 -2.9818,4.9035 -3.3808,4.4076 -3.3289,4.3502 -7.8627,8.6902 -3.4081,3.2626 -6.24,10.2299 -10.1902,25.0711 -1.0913,4.1 -3.0676,8.4144 -4.8974,10.6914 -1.6874,2.0996 -3.0679,4.596 -3.0679,5.5474 0,0.9515 -0.5974,2.4404 -1.3275,3.3087 -0.7301,0.8683 -1.8703,3.4817 -2.5338,5.8075 -0.7133,2.5005 -2.263,4.9527 -3.7919,6 -1.422,0.9742 -3.5959,2.7837 -4.8308,4.0212 -1.235,1.2375 -2.6696,2.25 -3.1882,2.25 -0.5186,0 -1.7232,1.7687 -2.677,3.9304 -0.9537,2.1617 -4.1903,6.5486 -7.1924,9.7487 -3.0021,3.2001 -5.4584,6.6144 -5.4584,7.5873 0,0.9729 -1.5385,3.263 -3.4188,5.089 -1.8803,1.8261 -4.1213,4.8556 -4.9799,6.7324 -0.8586,1.8767 -2.025,4.0872 -2.592,4.9122 -0.567,0.825 -1.707,3.1875 -2.5335,5.25 -0.8265,2.0625 -2.1004,3.75 -2.8309,3.75 -0.7306,0 -1.8568,1.6875 -2.5027,3.75 -0.6458,2.0625 -3.1934,6.45 -5.6611,9.75 -2.4678,3.3 -5.273,7.3144 -6.234,8.9209 -0.9609,1.6065 -5.6846,6.984 -10.4971,11.95 -4.8125,4.9661 -8.75,9.457 -8.75,9.9798 0,0.5229 -2.3625,3.3071 -5.25,6.1872 -5.3498,5.3362 -11.0789,11.4461 -18.2627,19.4765 -2.2069,2.4671 -7.2373,7.0665 -11.1785,10.221 -4.2251,3.3816 -7.2978,6.6319 -7.4873,7.9199 -0.1862,1.2655 -1.794,3 -3.8215,4.1225 -1.925,1.0658 -3.846,2.5397 -4.269,3.2752 -0.7822,1.3602 -13.77,14.5004 -19.231,19.4566 -5.4975,4.9893 -12.7667,9.9904 -14.5214,9.9904 -0.9535,0 -2.2138,0.5785 -2.8006,1.2855 -2.7182,3.2753 -15.4322,10.7862 -22.4183,13.2439 -6.6221,2.3297 -8.3555,3.4548 -12,7.7889 -5.7874,6.8827 -8.2856,9.0608 -15.0231,13.0982 -5.5976,3.3544 -6.0145,3.4428 -14.5,3.0746 -8.1109,-0.352 -9.0094,-0.1914 -12.5464,2.2423 -2.0953,1.4418 -4.2522,3.4482 -4.793,4.4586 -1.1276,2.107 -8.1863,6.808 -10.2223,6.808 -0.7507,0 -2.1794,0.9 -3.1749,2 -1.9547,2.16 -5.7019,2.4923 -9.1733,0.8137 z"
     id="path2987"
     inkscape:connector-curvature="0" />
</svg>
