<?xml version="1.0" encoding="UTF-8" standalone="no"?>
<!-- Created with Inkscape (http://www.inkscape.org/) -->

<svg
   xmlns:dc="http://purl.org/dc/elements/1.1/"
   xmlns:cc="http://creativecommons.org/ns#"
   xmlns:rdf="http://www.w3.org/1999/02/22-rdf-syntax-ns#"
   xmlns:svg="http://www.w3.org/2000/svg"
   xmlns="http://www.w3.org/2000/svg"
   xmlns:sodipodi="http://sodipodi.sourceforge.net/DTD/sodipodi-0.dtd"
   xmlns:inkscape="http://www.inkscape.org/namespaces/inkscape"
   id="svg2"
   version="1.1"
   inkscape:version="0.48.2 r9819"
   width="1512.925"
   height="255.37256"
   sodipodi:docname="householdcampins00feltrich_0056d.png">
  <metadata
     id="metadata8">
    <rdf:RDF>
      <cc:Work
         rdf:about="">
        <dc:format>image/svg+xml</dc:format>
        <dc:type
           rdf:resource="http://purl.org/dc/dcmitype/StillImage" />
        <dc:title></dc:title>
      </cc:Work>
    </rdf:RDF>
  </metadata>
  <defs
     id="defs6" />
  <sodipodi:namedview
     pagecolor="#ffffff"
     bordercolor="#666666"
     borderopacity="1"
     objecttolerance="10"
     gridtolerance="10"
     guidetolerance="10"
     inkscape:pageopacity="0"
     inkscape:pageshadow="2"
     inkscape:window-width="1920"
     inkscape:window-height="1176"
     id="namedview4"
     showgrid="false"
     fit-margin-top="0"
     fit-margin-left="0"
     fit-margin-right="0"
     fit-margin-bottom="0"
     inkscape:zoom="1"
     inkscape:cx="773.92514"
     inkscape:cy="122.9095"
     inkscape:window-x="0"
     inkscape:window-y="24"
     inkscape:window-maximized="1"
     inkscape:current-layer="svg2" />
  <path
     style="fill:#000000"
     d="m 142.27654,252.8766 c -1.82148,-2.77993 -3.19566,-9.43924 -3.29179,-15.95211 -0.0328,-2.22121 -0.95302,-5.79092 -2.04496,-7.9327 -1.89973,-3.72621 -1.91051,-4.01101 -0.25,-6.60405 3.32663,-5.19484 10.30449,-13.92469 11.13014,-13.92469 1.79787,0 19.18112,-12.27226 18.83863,-13.29973 -0.20058,-0.60176 -4.13947,-2.40166 -8.75308,-3.99977 -4.61361,-1.59812 -9.97603,-3.9845 -11.91649,-5.30308 -1.94047,-1.31858 -4.27117,-2.39742 -5.17935,-2.39742 -2.16314,0 -3.00115,3.38218 -1.40866,5.68531 0.69012,0.99808 1.57059,2.82684 1.9566,4.06391 0.88109,2.82369 -1.58322,3.8897 -12.32683,5.33236 -4.18309,0.56171 -8.42417,1.26332 -9.42463,1.55915 -1.6456,0.48658 -1.66615,0.64963 -0.21555,1.71033 1.37014,1.00187 1.40638,1.44199 0.24908,3.0247 -1.08812,1.48808 -3.10999,1.94795 -10.28445,2.33919 -11.484983,0.62629 -21.074503,0.65246 -25.179943,0.0687 -1.93139,-0.27463 -6.59698,0.59969 -11.5,2.15506 -10.21298,3.23983 -16.39648,3.21624 -19.05972,-0.0727 l -1.88158,-2.32366 -2.15441,2.91655 c -2.06616,2.79706 -10.65441,21.72227 -10.65441,23.4782 0,1.22714 -2.7477,2.09695 -4.5,1.42453 -2.47256,-0.94882 -1.43885,-8.01676 2.93595,-20.07428 0.84066,-2.31696 1.83254,-6.11419 2.20418,-8.4383 0.37164,-2.3241 1.72964,-5.77871 3.01779,-7.67689 2.16793,-3.19464 2.72271,-5.03026 2.09208,-6.92216 -0.1375,-0.4125 -1.825,-0.75 -3.75,-0.75 l -3.5,0 0,-5 c 0,-8.3994 -6.88992,-16.35306 -15.5,-17.89305 -21.66773039,-3.87545 -24.3781304,-5.08596 -20.3675904,-9.0965 1.36112,-1.36113 2.71102,-1.59675 6.29995,-1.09967 2.5122004,0.34795 9.1706104,0.90007 14.7964704,1.22693 l 10.22883,0.5943 -1.54995,-4.54885 c -1.18851,-3.48807 -1.28938,-5.03574 -0.43259,-6.63668 0.61455,-1.1483 0.80262,-2.59709 0.41792,-3.21955 -0.3847,-0.62245 -0.61974,-3.38404 -0.5223,-6.13685 0.1399,-3.95288 0.71642,-5.5049 2.74226,-7.38238 2.30684,-2.13791 2.49803,-2.86497 1.89892,-7.22103 -0.84945,-6.17625 1.84797,-17.88075 4.6868,-20.33667 2.68207,-2.32031 5.48171,-2.21564 6.80362,0.25437 1.51967,2.83953 3.43773,0.74822 3.71828,-4.05413 0.3645,-6.239345 4.11581,-19.189375 7.39055,-25.513145 3.85367,-7.44176 4.6808,-8.43709 7.01127,-8.43709 1.47298,0 1.87756,0.74147 1.87756,3.44098 0,1.89254 0.49224,3.74521 1.09387,4.11704 1.27548,0.78828 0.77911,5.59811 -1.3872,13.44198 -2.20585,7.98707 -3.11094,15.367885 -1.78396,14.547765 0.59251,-0.36619 1.07729,-1.37048 1.07729,-2.231735 0,-0.86127 1.17039,-4.17392 2.60087,-7.36145 1.8798,-4.18875 3.40163,-6.12719 5.4892,-6.99189 1.58858,-0.65801 4.48931,-2.96848 6.44607,-5.13437 3.20041,-3.54247 3.53448,-4.44755 3.32622,-9.0116 -0.168,-3.68181 0.20435,-5.39233 1.35732,-6.2354 0.87385,-0.63898 3.61375,-5.46647 6.08865,-10.72775 4.36269,-9.27444 6.90474,-12.0405 9.072853,-9.87239 0.729,0.729 0.65491,2.02908 -0.24408,4.28279 -6.030673,15.11851 -7.821403,24.73603 -4.605723,24.73603 0.84227,0 1.77121,-0.7875 2.06432,-1.75 0.57,-1.8717 3.729943,-8.8312 6.243153,-13.75 3.49738,-6.84501 10.65727,-15.41776 12.91115,-15.45891 2.59017,-0.0473 2.89637,1.72208 0.7818,4.51778 -1.76966,2.3397 -2.01956,4.32889 -0.3318,2.64113 1.42393,-1.42393 5.43873,-1.59357 6.26013,-0.26451 0.31799,0.51452 -0.3525,2.59247 -1.48999,4.61766 -1.13748,2.0252 -1.8776,3.87272 -1.64471,4.10561 0.74921,0.74922 6.23192,-4.41251 9.13211,-8.59749 1.88318,-2.71743 3.56129,-4.06127 5.07147,-4.06127 2.8362,0 3.7655,2.23557 1.93411,4.6528 -2.38469,3.14752 -1.7495,4.34888 2.28688,4.32524 4.67004,-0.0273 11.85602,-3.20745 14.31675,-6.33577 2.33837,-2.97275 19.16438,-15.7185 26.33897,-19.95185 2.97389,-1.75473 7.49894,-4.69157 10.05568,-6.5263 4.58311,-3.28889 7.5386,-3.59881 7.5386,-0.79053 0,0.79 -1.9125,2.58789 -4.25,3.99531 -4.64251,2.79527 -11.75,8.79853 -11.75,9.9245 0,1.38172 4.63683,0.67616 8.5,-1.2934 2.15759,-1.1 4.50273,-2 5.21144,-2 1.89789,0 1.56749,1.9561 -0.46144,2.732 -0.9625,0.36808 -3.76025,2.20226 -6.21721,4.07595 -2.45697,1.8737 -5.60697,3.89524 -7,4.49231 l -2.53279,1.08559 2.58096,0.35718 c 1.67048,0.23119 6.04909,-1.44074 12.4122,-4.73948 7.05092,-3.65531 10.04202,-4.75565 10.57652,-3.8908 0.40991,0.66324 0.51377,1.80919 0.23081,2.54657 -0.61546,1.60386 1.29124,1.8103 2.25891,0.24456 0.3726,-0.60286 2.08665,-0.87873 3.80902,-0.61304 1.94283,0.29971 3.76642,-0.0756 4.80396,-0.98862 2.712,-2.38658 9.53333,-2.87852 11.77566,-0.84925 2.38163,2.15535 5.41364,1.6589 5.89031,-0.96445 0.36163,-1.99029 3.93787,-6.48852 5.15858,-6.48852 0.35656,0 6.14792,-2.96555 12.86969,-6.5901 6.72177,-3.62456 12.87659,-6.33868 13.67739,-6.03139 2.53312,0.97205 1.588,3.06777 -2.53174,5.61391 l -3.98773,2.46455 2.4514,1.28441 c 1.67782,0.8791 2.25029,1.80848 1.81412,2.94513 -0.50822,1.3244 -0.24773,1.5032 1.28633,0.88295 7.01523,-2.83641 9.69844,-2.76177 9.20013,0.25595 -0.42516,2.57474 7.05062,2.77039 12.38661,0.32418 4.09788,-1.87862 4.26324,-2.12623 3.98581,-5.96858 -0.32731,-4.5333 2.118,-10.18101 4.40812,-10.18101 2.19513,0 2.91343,2.7853 1.79699,6.96804 -1.32359,4.95886 -0.76898,6.16619 2.47871,5.39593 4.40064,-1.0437 6.21563,-3.24803 14.17581,-17.2167103 3.70346,-6.49891 7.04946,-9.39404001 9.74143,-8.42880001 1.97281,0.70738 1.54572,2.07232001 -3.25,10.38668031 -2.475,4.29092 -4.5,8.04764 -4.5,8.34827 0,1.63451 11.49899,-1.89051 22.5,-6.8974 4.58444,-2.0865203 10.48611,-3.4985703 12.0746,-2.8890103 1.7571,0.67426 1.88502,4.0325303 0.1754,4.6047003 -0.6875,0.23008 0.1,0.17482 1.75,-0.12282 5.54947,-1.00105 9,-0.71749 9,0.73959 0,0.86705 -4.50082,3.01107 -11.98517,5.70925 -14.02133,5.05484 -15.4303,5.32066 -18.75914,3.53912 -2.24305,-1.20044 -2.78081,-1.10177 -5.13068,0.94142 -2.90277,2.52392 -3.34739,3.92174 -1.24745,3.92174 0.75765,0 1.96621,0.7093 2.68569,1.57622 1.08413,1.30629 1.06229,1.73178 -0.12755,2.48468 -2.04358,1.29312 -0.78837,1.15001 3.68857,-0.42054 2.13165,-0.74781 9.27573,-1.9066 15.87573,-2.57511 6.6,-0.6685 13.125,-1.47877 14.5,-1.8006 1.375,-0.32182 6.1,-0.62553 10.5,-0.67489 l 8,-0.0898 -0.2602,-3 c -0.43715,-5.04023 2.15241,-11.95266 4.61519,-12.31955 1.91451,-0.28522 2.14245,0.14461 2.12115,4 -0.0131,2.37575 -0.43825,6.10691 -0.94474,8.29147 -0.50648,2.18456 -0.75585,4.13696 -0.55415,4.33866 0.2017,0.2017 2.46622,-3.27317 5.03226,-7.72193 3.27175,-5.67225 5.23687,-8.08865 6.57801,-8.08865 2.33206,0 2.37089,0.81385 0.2873,6.02125 -2.46733,6.16648 -2.67716,6.14426 13.12518,1.39004 10.87415,-3.27155 27.91431,-7.18953 29.17118,-6.70723 3.43575,1.31842 -0.10352,5.29594 -4.71243,5.29594 -1.60538,0 -2.00794,0.42944 -1.54163,1.64462 0.7412,1.93153 -2.00862,5.34848 -4.32211,5.37069 -0.87725,0.008 -2.27001,0.4578 -3.09501,0.99861 -2.07407,1.35961 4.25804,0.23926 9.64022,-1.70567 5.3553,-1.9352 8.7069,-0.53945 7.76038,3.23176 -0.48266,1.92309 -0.229,2.45999 1.16225,2.45999 0.97882,0 2.56035,0.70651 3.51451,1.57001 1.10744,1.00222 4.55178,1.78306 9.52394,2.15911 6.43826,0.48692 8.16534,0.99506 9.95857,2.92998 2.62663,2.83418 3.59746,2.91987 5.13775,0.45348 1.24421,-1.99229 8.10302,-6.9141 14.80238,-10.62202 2.2,-1.21764 6.5028,-3.59255 9.56177,-5.27758 5.96672,-3.28673 8.65562,-3.04863 7.47785,0.66217 -0.37092,1.16867 -1.24933,2.12485 -1.95202,2.12485 -0.70269,0 -2.09211,0.9 -3.0876,2 -1.7809,1.96787 -1.74724,1.99943 2.09501,1.96438 4.36332,-0.0398 11.68228,-1.71793 21.40175,-4.90709 7.52122,-2.46786 10.50324,-2.37351 10.50324,0.33233 0,1.34918 -1.17434,2.23637 -4.10598,3.10198 -6.19299,1.82857 -6.80495,2.39685 -4.8762,4.52809 1.53516,1.69633 1.52249,1.88626 -0.18486,2.7713 -2.77967,1.4409 -18.02029,6.20901 -19.84629,6.20901 -0.88259,0 -1.31806,0.46381 -0.96771,1.03068 0.76299,1.23454 6.8164,0.29133 10.68138,-1.66433 3.43636,-1.73877 6.70708,-1.74116 8.72092,-0.006 1.90608,1.64196 10.72216,3.37213 21.57874,4.23487 4.4,0.34966 8.17167,0.79303 8.38148,0.98526 0.91161,0.83526 4.11852,-1.80951 4.11852,-3.39655 0,-2.58473 6.92071,-13.18353 8.60846,-13.18353 2.41825,0 2.56982,2.38656 0.44855,7.06252 -2.74111,6.04228 -2.64774,7.93748 0.39107,7.93748 2.37101,0 11.15813,-6.59648 16.47623,-12.36868 2.31342,-2.51096 5.01506,-3.35862 6.37384,-1.99984 0.79676,0.79676 -0.90909,4.15689 -3.67311,7.23516 l -2.12504,2.36663 3.5,-0.75309 c 1.925,-0.4142 5.975,-1.07478 9,-1.46795 3.025,-0.39317 8.92554,-1.75368 13.11231,-3.02337 8.15012,-2.47161 10.88769,-2.23495 10.88769,0.94121 0,1.50461 -1.04121,2.26341 -4.25,3.09725 -2.3375,0.60742 -6.4501,1.90599 -9.13912,2.88572 l -4.88912,1.78131 3.13912,0.62783 c 5.92989,1.18597 3.17302,4.89154 -4.11088,5.52551 -0.9625,0.0838 -1.75,0.65982 -1.75,1.28012 0,0.74856 1.29578,0.9206 3.85346,0.51161 2.98736,-0.47769 4.95402,-0.0499 8.75,1.90323 3.68703,1.89709 5.75654,2.36632 8.37813,1.89963 5.27756,-0.93952 6.81084,-2.06711 6.33234,-4.65687 -0.66224,-3.58427 5.01889,-11.78541 8.16405,-11.78541 3.28361,0 3.20238,1.50353 -0.45707,8.46025 l -2.97909,5.66335 3.18979,-0.3118 c 2.28482,-0.22334 3.3428,-0.92162 3.72909,-2.46127 0.29662,-1.1822 2.68451,-4.62556 5.30643,-7.6519 3.5696,-4.12018 5.26525,-5.37217 6.75,-4.9839 2.69178,0.70392 2.49137,2.92982 -0.63254,7.02547 -1.86228,2.44157 -2.30642,3.73797 -1.54238,4.50201 0.70988,0.70988 1.51041,0.74113 2.36541,0.0923 0.71081,-0.53939 2.19238,-1.03817 3.29238,-1.10842 1.1,-0.0702 4.25,-0.62946 7,-1.24271 2.75,-0.61325 7.025,-1.48347 9.5,-1.93383 2.475,-0.45036 5.89614,-1.39436 7.60254,-2.09778 1.70639,-0.70342 3.84389,-0.99447 4.75,-0.64676 2.25484,0.86526 2.07721,4.3946 -0.28482,5.65872 -1.06275,0.56876 -2.21556,1.92668 -2.5618,3.01759 -0.67683,2.13249 -5.01486,4.46882 -10.25592,5.52353 -3.31892,0.6679 -4.24184,1.92669 -2,2.72785 0.6875,0.24569 4.06451,0.16457 7.50446,-0.18026 7.07493,-0.70922 10.08409,0.23221 8.15849,2.55242 -1.30731,1.57521 -1.27926,1.63479 1.46327,3.10802 1.32111,0.70967 2.6525,0.62542 4.5,-0.28478 2.16501,-1.06663 3.56477,-1.04613 8.00547,0.11724 2.95993,0.77544 5.83831,1.12768 6.39641,0.78276 0.5581,-0.34493 3.4798,-0.54659 6.49266,-0.44814 5.13465,0.16779 5.44302,0.0455 4.92088,-1.95114 -0.78983,-3.02032 0.91678,-6.16757 4.44124,-8.19033 4.45006,-2.55398 6.86712,-2.27925 6.86712,0.78053 0,2.69521 0.44418,2.71925 8.5,0.45997 1.65,-0.46275 5.7,-1.10835 9,-1.43467 9.3887,-0.92839 11.333,1.93819 3.45305,5.09111 -3.74675,1.49916 -3.82602,1.62878 -2.3622,3.86285 0.83305,1.2714 1.37841,3.5919 1.2119,5.15666 l -0.30275,2.8447 14.2708,0.27758 c 12.9373,0.25165 14.3241,0.11148 14.8407,-1.5 1.455,-4.5384 2.9407,-6.19434 7.4546,-8.30853 4.0084,-1.87744 5.1284,-2.05254 6.3966,-1.00005 2.279,1.89142 2.0001,2.34286 -3.4429,5.57432 -4.797,2.84794 -6.8779,5.38949 -3.2698,3.99364 0.9625,-0.37236 3.1,-0.92056 4.75,-1.21823 1.65,-0.29766 5.25,-1.13628 8,-1.86359 6.7607,-1.78805 18.6822,-2.72409 20.3719,-1.59952 2.5093,1.6701 0.5725,3.49018 -5.4325,5.10504 -4.7183,1.26885 -5.8755,1.96632 -5.6285,3.39248 0.171,0.98738 -0.1719,2.37689 -0.7619,3.08779 -1.106,1.33263 1.0929,1.9318 11.7006,3.18822 3.7918,0.44913 4.348,0.24432 5.1639,-1.90157 1.2605,-3.31548 6.7441,-7.72758 9.6042,-7.72758 3.1398,0 4.0532,1.71169 2.0781,3.89416 -1.8978,2.09698 -1.0464,3.41739 1.3696,2.12435 2.5559,-1.36785 20.6752,-4.09367 22.5161,-3.38725 3.0674,1.17708 1.2972,2.87831 -8.6636,8.32627 -5.3361,2.91848 -5.3434,3.73565 -0.034,3.78982 2.5938,0.0265 9.216,0.15521 14.716,0.28609 8.406,0.20003 11.1955,-0.15967 17.5,-2.25662 9.961,-3.31314 19.5407,-4.41623 20.3367,-2.34175 0.3181,0.82888 -0.1062,2.19162 -0.9429,3.02832 -0.8367,0.8367 -1.2205,2.00803 -0.8528,2.60297 0.3677,0.59493 -0.3626,2.17934 -1.623,3.52091 -1.5612,1.66192 -1.9657,2.76505 -1.269,3.46171 0.5624,0.56237 6.037,1.22046 12.1657,1.46243 6.1288,0.24196 12.2353,0.71402 13.57,1.04901 1.8985,0.47648 2.5748,0.14255 3.1069,-1.53397 0.9248,-2.9138 4.8878,-2.37562 5.328,0.72355 0.387,2.72488 0.2818,2.72212 12.1464,0.31861 5.2437,-1.06227 13.809,-2.62657 19.034,-3.47623 5.225,-0.84965 13.325,-2.2532 18,-3.11898 4.675,-0.86578 17.275,-2.91626 27.99996,-4.55662 10.725,-1.64036 21.75,-3.41833 24.5,-3.95104 2.75,-0.53271 10.175,-1.65699 16.5,-2.4984 6.325,-0.84141 16.225,-2.26549 22,-3.16464 5.775,-0.89914 13.4802,-1.72309 17.1226,-1.83099 3.6424,-0.10791 7.172,-0.53573 7.8434,-0.95071 0.6715,-0.41499 4.8913,-0.90347 9.3774,-1.08551 4.4861,-0.18204 11.5316,-0.59057 15.6566,-0.90784 23.2279,-1.78654 122.4244,-2.26792 128.7952,-0.62501 2.0376,0.52548 7.7548,1.23569 12.7048,1.57825 4.95,0.34256 11.025,1.04748 13.5,1.56649 2.475,0.51901 7.65,1.10671 11.5,1.30599 12.4386,0.64383 32.8636,2.61399 38.0426,3.66952 2.7734,0.56524 8.6234,1.49827 13,2.07339 4.3766,0.57511 10.6574,1.42715 13.9574,1.89342 15.7364,2.22343 22.6248,3.15261 30,4.04669 4.4,0.53341 9.8,1.39994 12,1.92562 2.2,0.52568 7.15,1.17348 11,1.43954 3.85,0.26607 13.3208,1.16982 21.0463,2.00833 31.869,3.45905 54.8247,2.70923 75.6891,-2.4723 7.0045,-1.73951 13.417,-2.90121 14.25,-2.58155 0.833,0.31966 1.5146,1.71175 1.5146,3.09353 0,1.93262 -0.6346,2.64697 -2.75,3.09579 -1.5125,0.3209 -5.45,1.19853 -8.75,1.95028 -19.8843,4.52969 -34.4947,5.92256 -53.7183,5.1212 -8.645,-0.36038 -16.295,-0.85427 -17,-1.09753 -0.7049,-0.24327 -5.1067,-0.65439 -9.7817,-0.91361 -4.675,-0.25922 -13.9,-1.17124 -20.5,-2.02672 -6.6,-0.85547 -16.275,-2.04722 -21.5,-2.64834 -5.225,-0.60111 -11.4661,-1.52638 -13.869,-2.05615 -2.403,-0.52978 -7.128,-1.18849 -10.5,-1.46381 -12.0676,-0.9853 -30.2432,-3.4848 -36.5786,-5.03028 -3.7331,-0.91067 -8.0507,-1.31647 -10.2556,-0.96389 -2.0945,0.33492 -7.5181,-0.05 -12.0525,-0.85531 -12.0636,-2.1426 -43.8895,-4.77433 -55.3339,-4.57565 -5.4507,0.0946 -12.1604,-0.0959 -14.9104,-0.42347 -26.4657,-3.1522 -116.4323,-1.43606 -129.0093,2.4609 -1.6552,0.51284 -6.3326,1.00074 -10.3943,1.08423 -5.3756,0.1105 -6.9115,0.41676 -5.645,1.12556 1.0105,0.56549 4.1107,0.66933 7.3943,0.24767 3.1099,-0.39935 8.315,-0.65496 11.5671,-0.56802 3.252,0.0869 12.252,-0.29688 20,-0.85293 25.3209,-1.8172 35.7452,-2.18457 60.0872,-2.11754 21.1263,0.0582 52.3186,1.34018 62.5,2.56876 1.925,0.23229 14.525,1.61484 28,3.07233 13.475,1.45749 27.65,2.99693 31.5,3.42099 3.85,0.42405 8.8,1.23859 11,1.81008 2.2,0.5715 7.6,1.32112 12,1.66583 4.4,0.3447 9.125,0.83316 10.5,1.08546 1.375,0.2523 7.9,1.11904 14.5,1.92609 24.5287,2.99938 42.2504,5.41674 50.881,6.94052 4.8845,0.862395 9.947,1.567995 11.25,1.567995 1.7084,0 2.369,0.56202 2.369,2.01548 0,1.8669 -0.4976,1.98167 -6.75,1.55671 -3.7125,-0.25233 -10.125,-0.9582 -14.25,-1.5686 -4.125,-0.6104 -13.3699,-1.73765 -20.5443,-2.505 -14.2654,-1.525775 -30.235,-3.741955 -43.4557,-6.030535 -4.675,-0.80927 -14.8,-1.92338 -22.5,-2.47579 -7.7,-0.55241 -18.5999,-1.43163 -24.222,-1.95383 -5.6221,-0.52219 -16.4221,-1.23049 -24,-1.57399 -7.5779,-0.3435 -16.7857,-0.99265 -20.4618,-1.44255 -12.3434,-1.51065 -67.612,-1.88365 -102.8162,-0.69389 -13.475,0.45541 -33.275,1.01026 -44,1.233 -10.725,0.22275 -22.2,0.86004 -25.5,1.41621 -3.3,0.55616 -10.3875,1.01381 -15.75,1.017 -5.8295,0.003 -9.75,0.4079 -9.75,1.00579 0,0.55 0.675,1 1.5,1 0.825,0 1.5,0.63925 1.5,1.42054 0,2.28488 4.1226,2.58279 29.5,2.13172 74.7595,-1.32882 163.559,0.22557 193.5,3.38711 5.225,0.55172 16.25,1.467725 24.5,2.035565 8.25,0.56785 19.95,1.68188 26,2.47563 22.8413,2.99675 28.3754,3.54247 42,4.14166 7.7,0.33863 14.225,0.74429 14.5,0.90146 0.275,0.15717 6.575,0.67288 14,1.14604 25.1178,1.6006 74.3446,0.48286 99.75,-2.26493 4.3341,-0.46877 5.25,-0.29544 5.25,0.9935 0,0.85873 -0.7977,1.98827 -1.7728,2.51009 -2.7002,1.44511 -15.7974,2.94693 -35.7272,4.09672 -30.5174,1.76062 -49.609,1.35265 -90.5,-1.93392 -6.875,-0.55257 -15.65,-1.23736 -19.5,-1.52174 -3.85,-0.28439 -10.825,-0.97787 -15.5,-1.54108 -9.7088,-1.16963 -21.2402,-2.29781 -45.5,-4.45151 -9.35,-0.83007 -21.275,-2.00811 -26.5,-2.61787 -5.225,-0.60977 -17.15,-1.28809 -26.5,-1.50738 -9.35,-0.2193 -19.7,-0.60489 -23,-0.85687 -18.9626,-1.447975 -162.8011,-0.71276 -165.3216,0.84503 -0.6141,0.37948 -7.3179,0.71145 -14.8974,0.7377 -9.2774,0.0321 -15.5674,0.55304 -19.2473,1.59396 -4.1391,1.17083 -8.14496,1.40613 -16.49996,0.96917 -10.3142,-0.53942 -16.2361,0.13918 -13.8866,1.59129 4.0484,2.50201 10.3747,3.64885 14.9702,2.71379 12.01716,-2.44518 15.79506,-2.88831 30.38266,-3.56368 33.6971,-1.56009 150.6205,0.13584 154.2309,2.23706 0.9986,0.58117 44.1256,4.43059 55.2691,4.9332 4.95,0.22326 17.325,0.61208 27.5,0.86405 21.9507,0.54357 19.0291,0.35589 32,2.05569 5.775,0.7568 19.95,1.88072 31.5,2.4976 28.5452,1.52458 31.4384,1.7135 43.5,2.84041 5.775,0.53956 11.175,0.97171 12,0.96033 5.9977,-0.0827 15.4477,0.5657 27,1.85262 9.9018,1.10306 17.6313,1.31071 29,0.77909 8.525,-0.39864 21.125,-0.63667 28,-0.52895 6.875,0.10772 16.512,-0.30282 21.4156,-0.91232 7.5086,-0.9333 9.1444,-0.87937 10.3655,0.34177 1.2666,1.26659 1.1508,1.6435 -0.9156,2.98057 -1.301,0.84184 -5.9967,2.0216 -10.4348,2.62168 -8.9524,1.21048 -67.6296,1.76192 -73.9307,0.6948 -2.2,-0.37258 -12.1,-1.17861 -22,-1.79119 -24.902,-1.54084 -25.4478,-1.57204 -39.5,-2.2573 -14.4101,-0.70272 -32.964,-2.2637 -44.5,-3.74389 -4.4,-0.56457 -14.3,-1.22739 -22,-1.47295 -7.7,-0.24556 -23.675,-0.95408 -35.5,-1.5745 -11.825,-0.62041 -23.75,-1.20813 -26.5,-1.30604 -2.75,-0.0979 -6.3722,-0.49223 -8.0494,-0.87628 -1.6772,-0.38404 -6.6272,-0.93968 -11,-1.23476 -12.3967,-0.83652 -15.0697,-1.05057 -28.9506,-2.31837 -7.15,-0.65304 -30.325,-1.45912 -51.5,-1.7913 -39.3018,-0.61655 -45.2448,-0.61683 -64.5,-0.003 -6.05,0.19283 -14.9375,0.43373 -19.75,0.53534 -4.8125,0.10161 -8.7499,0.52224 -8.7497,0.93474 2e-4,0.4125 17.1305,0.8547 38.0675,0.98268 20.9369,0.12797 38.5819,0.5508 39.211,0.93961 0.6291,0.38882 6.5612,0.79607 13.1825,0.905 6.6213,0.10893 20.3637,0.90958 30.5387,1.77921 39.3607,3.36408 60.6763,4.8953 93.5,6.71665 11,0.61038 24.725,1.75464 30.5,2.5428 5.775,0.78815 13.65,1.6527 17.5,1.92121 13.4418,0.93749 32.0805,2.53466 42.5,3.6419 5.775,0.61368 12.75,1.23626 15.5,1.38352 2.75,0.14726 7.925,0.59312 11.5,0.99081 3.575,0.39769 7.85,0.82714 9.5,0.95433 1.65,0.1272 6.6,0.735 11,1.35067 4.4,0.61567 15.1509,1.587 23.8908,2.15851 8.74,0.57151 16.2665,1.2713 16.7257,1.55509 1.4733,0.91056 29.8671,1.88993 46.5072,1.60414 13.745,-0.23606 16.2106,-0.0505 16.7127,1.25822 1.1278,2.93886 -3.0675,3.64413 -22.5961,3.79869 -22.9326,0.18149 -38.9881,-0.65342 -63.2403,-3.28861 -9.9,-1.0757 -22.05,-2.14116 -27,-2.36768 -4.95,-0.22652 -15.75,-1.109 -24,-1.96108 -29.7043,-3.06791 -34.0301,-3.47894 -36,-3.42062 -2.2963,0.068 -27.9852,-2.95728 -31.0135,-3.65233 -1.1075,-0.25417 -5.1575,-0.53813 -9,-0.63102 -3.8426,-0.0929 -7.8028,-0.59224 -8.8004,-1.10968 -1.1464,-0.5946 -2.2504,-0.5821 -3,0.034 -1.1623,0.95524 -35.6646,-0.0996 -37.3919,-1.14314 -0.4368,-0.2639 -8.8567,-0.77255 -18.7109,-1.13035 -9.8542,-0.3578 -18.2334,-0.8462 -18.6203,-1.08533 -0.3869,-0.23913 -8.8467,-0.89965 -18.7995,-1.46782 -9.9529,-0.56817 -20.6988,-1.23938 -23.8798,-1.49157 -23.7228,-1.88077 -119.2528,-2.88277 -120.8673,-1.26776 -0.4123,0.4125 -0.5425,0.95719 -0.2893,1.21043 0.2532,0.25324 9.6657,0.94938 20.9167,1.54698 47.3293,2.51394 110.1238,6.89059 127.9562,8.91831 4.125,0.46905 14.025,1.59223 22,2.49595 7.975,0.90373 17.2,2.10936 20.5,2.67919 11.2732,1.9466 47.2058,5.73912 65.5,6.91321 7.425,0.47652 18.9,1.53347 25.5,2.34877 6.6,0.8153 16.5,1.76876 22,2.1188 5.5,0.35003 17.425,1.50323 26.5,2.56265 9.075,1.05943 19.2,2.11953 22.5,2.35579 3.3,0.23625 11.85,1.1095 19,1.94054 12.3889,1.43996 17.5179,1.8031 46.6117,3.30012 7.3889,0.3802 17.1207,0.17844 23.5,-0.48721 5.9886,-0.62488 13.8133,-1.20837 17.3883,-1.29665 3.575,-0.0883 10.7111,-0.82761 15.858,-1.64297 7.9548,-1.26018 9.4894,-1.2749 10.2347,-0.0982 2.3468,3.70565 -0.9111,4.9136 -15.9539,5.9152 -6.9513,0.46285 -14.6638,1.27767 -17.1388,1.81072 -2.475,0.53306 -11.7,1.01053 -20.5,1.06105 -19.8822,0.11414 -39.0975,-1.05086 -78.5,-4.75934 -5.775,-0.54353 -13.65,-1.26178 -17.5,-1.59611 -3.85,-0.33433 -12.85,-1.25511 -20,-2.04619 -7.15,-0.79109 -15.25,-1.50561 -18,-1.58784 -2.75,-0.0822 -11.975,-0.98584 -20.5,-2.00803 -31.7918,-3.81201 -43.7634,-5.03718 -53.5,-5.47522 -5.5,-0.24744 -14.95,-1.15889 -21,-2.02546 -20.4908,-2.93496 -38.3305,-4.87835 -91,-9.91317 -2.75,-0.26288 -13.325,-0.94942 -23.5,-1.52564 -10.175,-0.57623 -20.3,-1.30319 -22.5,-1.61548 -3.2987,-0.46825 -3.7783,-0.33578 -2.7354,0.75556 1.2686,1.32766 4.342,1.80862 24.7354,3.87096 6.05,0.61183 12.35,1.50881 14,1.99329 1.65,0.48448 7.5,1.18546 13,1.55773 5.5,0.37226 11.575,0.81066 13.5,0.97421 1.925,0.16356 13.4,1.03778 25.5,1.94271 12.1,0.90494 24.925,2.05753 28.5,2.56133 6.6853,0.9421 28.8592,4.30733 39.5,5.99474 3.3,0.52331 9.6,1.427 14,2.00819 10.711,1.41482 20.7148,2.85733 28,4.0375 3.3,0.53459 9.825,1.40941 14.5,1.94404 10.9463,1.25182 27.516,3.83073 32,4.98049 3.9756,1.0194 13.5568,2.47376 26,3.94663 4.675,0.55337 12.325,1.48798 17,2.07692 20.594,2.59434 35.5518,3.37542 65.5,3.42032 23.5041,0.0352 33.9912,-0.32647 39.5,-1.36239 14.0924,-2.65005 21.2505,-1.44981 13.4729,2.25909 -4.4487,2.12144 -20.421,4.73129 -26.6165,4.34909 -2.5539,-0.15755 -7.7289,0.0685 -11.5,0.50227 -9.8824,1.13682 -44.7182,0.99262 -52.3564,-0.21672 -7.5162,-1.19003 -26.5604,-3.60709 -29.5,-3.74409 -4.2247,-0.19689 -27.2148,-3.19182 -31.5,-4.10351 -2.475,-0.52656 -7.875,-1.4616 -12,-2.07786 -4.125,-0.61626 -11.775,-1.81997 -17,-2.67491 -5.225,-0.85495 -13.775,-2.15672 -19,-2.89284 -5.225,-0.73611 -12.2,-1.80142 -15.5,-2.36735 -3.3,-0.56594 -10.275,-1.49696 -15.5,-2.06894 -5.225,-0.57198 -11.75,-1.4784 -14.5,-2.01426 -12.2521,-2.38745 -29.6196,-5.01191 -36.5,-5.51564 -4.125,-0.302 -11.0965,-0.98611 -15.4922,-1.52025 -4.3957,-0.53413 -10.1302,-0.68753 -12.7434,-0.34088 -2.7997,0.3714 -5.268,0.20126 -6.0097,-0.41424 -0.6922,-0.57447 -8.4577,-1.55283 -17.2566,-2.17412 -21.0491,-1.48627 -45.0709,-3.87806 -49.698,-4.94829 -2.035,-0.47068 -3.897,-0.65876 -4.1378,-0.41796 -0.2408,0.2408 -4.6508,-0.24291 -9.8001,-1.07491 -16.7749,-2.71047 -26.3055,-3.81628 -29.3622,-3.40684 -2.6921,0.36061 -2.3948,0.58843 2.8962,2.21974 3.2429,0.99983 7.9679,2.00107 10.5,2.22497 14.9143,1.3188 25.9363,2.64055 36.1038,4.32956 6.325,1.05071 14.65,2.19541 18.5,2.54378 6.6357,0.60045 17.67,2.25053 31,4.63576 6.9342,1.2408 7.9281,1.37756 20,2.75221 17.5406,1.99738 19.0365,2.20587 22.5,3.13595 3.8445,1.0324 7.6617,1.63676 16,2.53326 3.025,0.32524 6.4,0.98073 7.5,1.45666 2.2335,0.96636 6.9622,1.67318 19.5,2.91474 4.675,0.46295 10.975,1.59302 14,2.51129 3.025,0.91826 13.15,2.32421 22.5,3.12434 9.35,0.80013 31.175,3.68616 48.5,6.41341 44.0966,6.94155 44.7347,7.01083 71.5,7.76389 31.7314,0.89278 45.5729,0.84471 53.75,-0.18667 6.4034,-0.80767 6.75,-0.74676 6.75,1.18624 0,2.23692 -0.9542,2.76207 -8.8063,4.84674 -4.4384,1.17833 -10.327,1.23781 -36,0.36358 -43.3647,-1.47668 -52.0199,-1.93225 -57.6937,-3.03676 -2.75,-0.53534 -9.0438,-1.62942 -13.9861,-2.43129 -4.9424,-0.80187 -9.6674,-1.72259 -10.5,-2.04606 -0.8327,-0.32347 -6.4639,-1.22074 -12.5139,-1.99393 -6.05,-0.77319 -17.975,-2.30697 -26.5,-3.4084 -8.525,-1.10142 -19.775,-2.5 -25,-3.10794 -5.225,-0.60794 -12.425,-1.72639 -16,-2.48543 -3.575,-0.75904 -11.675,-1.85383 -18,-2.43286 -18.4611,-1.69005 -38.88,-4.85204 -53,-8.20737 -2.475,-0.58813 -8.325,-1.43456 -13,-1.88096 -4.675,-0.44639 -11.8609,-1.44488 -15.9688,-2.21885 -4.1078,-0.77397 -8.1693,-1.22401 -9.0256,-1.00009 -0.8563,0.22393 -4.4704,-0.11131 -8.0313,-0.74497 -3.5608,-0.63366 -8.2743,-1.34101 -10.4743,-1.5719 -2.2,-0.23088 -7.825,-1.14825 -12.5,-2.03859 -4.675,-0.89035 -13.5032,-1.94589 -19.6183,-2.34565 -6.115,-0.39976 -11.6282,-1.04202 -12.2515,-1.42724 -0.6233,-0.38522 -4.6201,-0.71748 -8.8818,-0.73835 -4.2616,-0.0209 -12.4734,-0.65723 -18.2484,-1.41412 -9.317,-1.22109 -50.4767,-4.28105 -57,-4.23757 -1.375,0.009 -8.57496,-0.26069 -15.99996,-0.59966 -17.5736,-0.8023 -17.7445,-0.79784 -20.2212,0.52765 -1.4651,0.7841 -5.3674,0.89717 -12.697,0.3679 -5.82,-0.42027 -13.2818,-0.91557 -16.5818,-1.10068 -3.3,-0.18511 -8.25,-0.60793 -11,-0.93961 -3.2542,-0.3925 -7.0949,-0.0357 -11,1.02197 -3.3,0.89376 -11.4,2.10195 -18,2.68486 -6.6,0.58292 -12.675,1.28207 -13.5,1.55367 -6.2148,2.04599 23.7432,5.1582 44,4.57098 10.5058,-0.30455 13.922,-0.0797 15.4028,1.01388 1.0465,0.77288 1.6167,1.86815 1.267,2.43394 -0.8887,1.43801 -8.7023,3.2747 -13.9311,3.2747 -2.4066,0 -6.669,0.68103 -9.4719,1.51341 -5.3886,1.60024 -6.8676,1.5344 -26.2668,-1.16933 -10.6859,-1.48934 -16.9891,-3.38675 -17.0078,-5.11976 0,-0.39838 -1.1991,-1.27741 -2.655,-1.95341 -2.151,-0.99868 -2.8525,-0.9725 -3.7422,0.13966 -1.6741,2.09272 -7.8055,3.69597 -15.8362,4.14092 -7.8794,0.43657 -17.2528,2.80546 -14.7588,3.72994 2.4604,0.91203 27.2409,4.72399 30.691,4.72118 1.755,-0.001 3.437,0.39547 3.7377,0.882 0.3007,0.48654 2.5405,1.18359 4.9772,1.54901 5.0437,0.75634 7.9254,3.11827 5.1187,4.19531 -0.9353,0.35893 -5.5985,0.38688 -10.3626,0.0621 -5.3634,-0.36562 -7.8441,-0.2555 -6.5143,0.28916 2.7108,1.11027 3.435,2.26801 2.4329,3.88945 -0.6236,1.00887 -1.9112,1.0364 -6.1841,0.13224 -6.9802,-1.47707 -16.7201,-3.4261 -24.8965,-4.98202 -3.575,-0.6803 -10.1542,-2.11929 -14.6205,-3.19776 -7.2486,-1.75029 -9.3357,-1.84738 -19.4373,-0.9042 -11.8465,1.10609 -14.9635,2.30317 -11.4422,4.39435 2.1068,1.25116 21.3716,7.22897 27.7317,8.60507 5.0721,1.09743 7.3098,2.97926 5.5685,4.68306 -1.0537,1.03108 -3.1956,0.79542 -11.3002,-1.24325 -5.5,-1.38351 -11.4625,-2.88246 -13.25,-3.331 -1.7875,-0.44855 -3.25,-0.64551 -3.25,-0.43769 0,0.85245 9.9649,5.30142 16.5,7.36662 3.85,1.21667 8.4625,2.84222 10.25,3.61234 3.0989,1.33509 4.2523,3.69511 2.3734,4.8563 -1.1407,0.70499 -10.5469,-2.09601 -15.4844,-4.61098 -2.1235,-1.08164 -7.0593,-2.63351 -10.9685,-3.44859 -3.9091,-0.81508 -7.5717,-1.84652 -8.139,-2.2921 -0.5673,-0.44558 -3.444,-1.37597 -6.3927,-2.06753 -2.9487,-0.69156 -10.7115,-3.45049 -17.2507,-6.13096 -11.7429,-4.81369 -15.888,-5.82427 -15.888,-3.87368 0,0.55 0.675,1 1.5,1 2.1725,0 1.8415,2.74687 -0.4808,3.98974 -2.4125,1.2911 -11.8617,-0.0468 -17.60507,-2.49258 -4.32331,-1.84108 -20.57769,-3.37771 -18.91413,-1.78807 1.32855,1.26952 9.28172,3.84836 23.5,7.61996 4.9088,1.30212 19.8868,6.19543 27.25,8.90254 2.8796,1.05871 3.8099,4.42445 1.471,5.32197 -0.7034,0.26994 -3.9239,-0.41918 -7.1565,-1.53138 -3.2327,-1.1122 -6.8821,-2.02218 -8.1099,-2.02218 -1.2277,0 -7.4525,-1.8 -13.83272,-4 -14.35509,-4.94984 -16.01874,-5.0465 -11.07038,-0.64315 2.65416,2.36182 3.5776,3.86434 3.11535,5.06895 -0.87207,2.27258 -2.39032,1.7488 -17.5808,-6.06521 l -12.41395,-6.38576 -1.92235,2.06341 c -1.62388,1.74303 -2.18066,1.86143 -3.58605,0.76258 -0.91504,-0.71545 -1.89019,-1.59776 -2.16701,-1.96069 -0.27683,-0.36293 -2.75183,-1.13137 -5.5,-1.70765 -2.74818,-0.57628 -9.04669,-1.97903 -13.99669,-3.11722 -10.1338,-2.33013 -14.95581,-2.39936 -12.48617,-0.17926 0.81739,0.7348 7.33617,3.6598 14.48617,6.5 10.57025,4.19883 13,5.53525 13,7.1503 0,1.09771 -0.78396,2.13729 -1.75242,2.3238 -0.96383,0.18561 -9.06383,-2.5651 -18,-6.1127 -8.93617,-3.54761 -17.37258,-6.78589 -18.74758,-7.19618 -1.375,-0.4103 -3.07337,-1.20505 -3.77417,-1.76611 -0.70079,-0.56106 -1.46673,-0.82755 -1.70208,-0.59219 -0.48479,0.48479 10.97368,9.19718 16.56859,12.59785 3.72535,2.26432 5.38243,4.68202 4.35189,6.34947 -1.12147,1.81458 -4.67053,0.83333 -10.27283,-2.84024 -6.62628,-4.34501 -7.84786,-5.09937 -14.90625,-9.20504 -6.76011,-3.93216 -7.42689,-3.83878 -3.26326,0.45699 2.52461,2.60474 3.1045,3.79166 2.26338,4.63278 -1.41934,1.41934 -2.27005,0.99554 -10.26527,-5.11384 -3.575,-2.73176 -8.525,-6.41067 -11,-8.17536 -2.475,-1.7647 -6.40313,-4.86284 -8.72918,-6.88478 -3.96063,-3.4428 -4.75436,-3.71094 -12.5,-4.22282 -4.54895,-0.30062 -10.29582,-1.0296 -12.77082,-1.61996 -11.82265,-2.82003 -22.15126,-3.07145 -18.84695,-0.45876 0.74082,0.58576 2.69695,1.42244 4.34695,1.85928 3.74165,0.99063 3.09856,0.7829 14.7116,4.75208 5.34138,1.82561 10.02888,3.63658 10.41667,4.02436 0.38778,0.38779 1.5459,0.70507 2.57358,0.70507 4.04023,0 8.54913,4.7998 5.99295,6.37961 -0.82433,0.50946 -6.30932,-0.5773 -9.4448,-1.87135 -1.07703,-0.4445 -1.75,-0.27538 -1.75,0.43978 0,0.63911 2.41439,2.22978 5.36532,3.53482 4.84008,2.14051 6.63468,3.92544 6.63468,6.59893 0,0.50501 -0.47501,0.91821 -1.05559,0.91821 -1.60192,0 -17.96578,-7.13953 -21.96267,-9.58227 -7.35959,-4.49792 -15.07536,-8.27771 -18.21793,-8.92459 l -3.26381,-0.67183 2.70636,2.58934 c 1.48849,1.42414 3.01486,2.58935 3.39193,2.58935 0.37707,0 3.53568,1.8 7.01914,4 3.48345,2.2 6.73389,4 7.2232,4 1.83508,0 6.15937,4.21605 6.15937,6.00519 0,2.36117 -3.60551,3.5671 -5.63332,1.88417 -1.62005,-1.34453 -15.23622,-9.1814 -24.11668,-13.88051 -2.8875,-1.52793 -5.25,-2.41041 -5.25,-1.96107 0,0.44934 4.05,4.55198 9,9.11698 4.95,4.565 9,8.64543 9,9.06762 0,1.40513 -3.91125,0.7922 -7.02389,-1.10071 -4.55926,-2.77266 -20.5373,-16.09896 -28.50192,-23.7717 l -6.97419,-6.71862 -15,-1.76997 c -8.25,-0.97349 -17.7,-1.77304 -21,-1.77679 l -6,-0.007 3.5,1.35282 c 24.95729,9.64656 39.35595,15.67015 40.88674,17.10473 1.77329,1.66182 0.73318,4.45466 -1.65901,4.45466 -1.00927,0 -4.0609,-1.07563 -6.78139,-2.39028 -2.72049,-1.31465 -7.19634,-3.16225 -9.94634,-4.10578 -2.75,-0.94352 -5.9,-2.08033 -7,-2.52625 -3.27481,-1.32754 -6.86281,-1.93791 -5.89405,-1.00268 0.49173,0.47472 4.94405,2.98533 9.89405,5.57914 4.95,2.59381 9.95825,5.58271 11.12944,6.64199 2.59832,2.35004 6.95787,4.87828 14.87056,8.62389 3.3,1.56211 8.93397,4.60415 12.51993,6.76009 3.58597,2.15593 9.77347,5.46932 13.75,7.36307 5.03526,2.39795 7.23007,3.99168 7.23007,5.25 0,1.13143 -0.73693,1.80681 -1.97149,1.80681 -2.15948,0 -10.24404,-3.62907 -16.52851,-7.41947 -2.2,-1.32691 -6.925,-3.86481 -10.5,-5.63979 -3.575,-1.77498 -7.625,-4.0087 -9,-4.96383 -5.71519,-3.96998 -19.8788,-10.80024 -25,-12.05599 -3.025,-0.74175 -7.525,-2.55209 -10,-4.02298 -2.475,-1.47088 -5.57148,-2.99869 -6.88107,-3.39513 -3.62455,-1.09721 7.35252,9.04757 12.94388,11.96248 5.48207,2.85792 7.11906,4.6224 5.98732,6.4536 -1.36252,2.2046 -5.36324,0.54284 -16.34971,-6.79113 -5.61023,-3.74488 -12.90042,-8.29705 -16.20042,-10.11572 -3.3,-1.81867 -8.27009,-5.61179 -11.04465,-8.42915 -4.7493,-4.82256 -10.72219,-8.40849 -19.95535,-11.98054 -4.91299,-1.9007 -21.09838,-3.70386 -26.04332,-2.90141 -3.53504,0.57366 -3.35341,0.70197 6.70492,4.73625 12.72017,5.10191 16.42626,7.04661 17.18192,9.01583 0.77423,2.01759 -3.97482,3.25853 -6.48088,1.69347 -1.00953,-0.63046 -3.41661,-1.14629 -5.34907,-1.14629 -1.93246,0 -3.51357,-0.39752 -3.51357,-0.88337 0,-0.48585 -0.9,-1.11872 -2,-1.40638 -3.1677,-0.82837 -2.32487,0.66087 1.25,2.20868 8.09016,3.5028 28.50755,13.56799 30.90437,15.23497 1.4599,1.01535 3.10222,1.8461 3.6496,1.8461 0.54737,0 3.8529,1.78896 7.34562,3.97547 3.49273,2.18651 9.72541,5.72287 13.85041,7.85857 6.16003,3.18934 7.5,4.31036 7.5,6.27453 0,3.62975 -3.08253,2.77269 -14.25352,-3.96301 -12.03843,-7.25874 -12.0791,-7.28072 -27.30252,-14.75614 -17.19652,-8.44432 -19.54315,-9.45012 -23.57437,-10.10429 l -3.52822,-0.57256 4.77098,4.63716 c 2.62404,2.55044 5.54316,4.88224 6.48693,5.18178 2.36268,0.74989 3.21645,3.4101 1.32711,4.13511 -0.88188,0.33841 -3.40156,-0.74604 -5.89662,-2.53785 -2.3962,-1.72083 -4.61153,-3.12877 -4.92296,-3.12877 -0.31143,0 -2.93787,-1.79806 -5.83652,-3.9957 -2.89866,-2.19763 -5.59905,-3.99763 -6.00087,-4 -0.66173,-0.004 -3.13638,-1.5831 -16.04799,-10.24103 -7.58295,-5.08477 -5.71419,-0.66051 2.8546,6.75825 3.16262,2.73817 7.13932,6.18589 8.8371,7.66162 2.28517,1.98629 2.79641,2.97797 1.96847,3.8184 -1.77098,1.79768 -6.88927,-0.9572 -15.8816,-8.54811 -4.4,-3.71428 -10.26951,-8.21512 -13.04335,-10.00187 -2.77384,-1.78674 -5.63732,-3.96433 -6.3633,-4.83908 -0.72598,-0.87475 -1.66328,-1.37828 -2.08289,-1.11895 -0.41961,0.25934 -3.88992,-0.59204 -7.71181,-1.89195 -3.82189,-1.29991 -10.17758,-2.68772 -14.12377,-3.08402 -6.79314,-0.68221 -7.17488,-0.61187 -7.17488,1.32193 0,3.20384 -1.26815,3.2488 -6.05281,0.21462 -3.1297,-1.98471 -6.29876,-2.99842 -10.69719,-3.42182 -3.4375,-0.33089 -6.25,-0.26047 -6.25,0.1565 0,0.41697 3.61214,4.34757 8.02697,8.73467 9.28063,9.22231 11.32859,13.73689 8.60104,18.96033 -0.86624,1.65892 -2.01943,4.23703 -2.56265,5.72914 -0.54322,1.49212 -2.69926,3.79342 -4.7912,5.114 -2.09193,1.32058 -4.41451,3.13726 -5.16128,4.03706 -0.74678,0.89981 -1.81143,1.63601 -2.36589,1.63601 -0.55447,0 -3.12581,1.5214 -5.71409,3.38089 -2.58828,1.8595 -6.69202,4.27337 -9.11943,5.36417 -2.42741,1.0908 -5.50441,3.1694 -6.83778,4.6191 -1.33338,1.44971 -2.87239,2.63584 -3.42002,2.63584 -0.54764,0 -3.64289,1.6875 -6.87834,3.75 l -5.88263,3.75 0.49937,4.5 c 0.27465,2.475 0.78736,6.10002 1.13936,8.05559 0.78214,4.34534 -1.07,6.34981 -4.96415,5.37244 -4.23112,-1.06194 -8.31625,-10.17742 -9.25298,-20.64691 -0.5548,-6.20074 -0.397,-6.98654 2.04627,-10.18983 1.45608,-1.90902 6.47017,-6.01452 11.14243,-9.12333 4.67225,-3.10881 8.495,-5.96386 8.495,-6.34456 0,-0.3807 1.4625,-1.54276 3.25,-2.58236 6.18956,-3.59978 9.63827,-6.66863 9.09248,-8.09095 -0.29618,-0.77182 -2.8569,-3.06053 -5.69049,-5.08602 -2.8336,-2.02549 -6.05199,-4.48428 -7.15199,-5.46398 -1.1,-0.9797 -4.85188,-4.10718 -8.33751,-6.94997 l -6.33752,-5.16869 -7.18022,0.67284 c -4.28162,0.40122 -8.28322,0.25348 -9.91249,-0.36596 -1.50274,-0.57135 -2.73226,-0.85959 -2.73226,-0.64054 0,0.21905 1.7244,2.12042 3.83201,4.22525 4.79778,4.79149 9.84175,12.17897 10.72893,15.71376 0.46639,1.85823 0.1616,3.26233 -0.98262,4.52667 -0.91229,1.00808 -2.87812,4.23438 -4.36852,7.16957 -1.68223,3.313 -4.22662,6.38482 -6.7098,8.10068 -4.75712,3.28714 -29.94348,16.34378 -40.75,21.12485 -4.10265,1.81512 -4.11578,1.85595 -4.19898,13.0651 -0.0395,5.3233 -0.43253,7.11823 -1.74248,7.95797 -1.30212,0.83472 -2.14901,0.67023 -3.6792,-0.71457 -3.77277,-3.41431 -5.02874,-7.87351 -5.59649,-19.86979 -0.52497,-11.09254 -0.44665,-11.73231 1.70848,-13.95539 3.45917,-3.56825 8.78521,-7.16768 13.75867,-9.29833 7.92331,-3.39439 14.5,-7.31124 14.5,-8.6357 0,-0.70746 -3.6,-2.78039 -8,-4.60649 -6.85257,-2.84399 -9.004,-4.38171 -15,-10.72119 -6.31451,-6.67622 -7.46084,-7.46162 -11.70594,-8.02024 -5.18178,-0.68187 -10.85057,-3.10934 -12.09375,-5.17875 -1.36046,-2.26463 -2.72296,-1.52095 -1.77612,0.96944 0.48108,1.26534 0.66723,3.40284 0.41367,4.75 -0.67132,3.56659 1.90762,8.89388 7.10279,14.67215 2.50764,2.78911 4.55766,5.90498 4.55559,6.92417 -0.0105,5.18109 -11.39579,21.35307 -15.03282,21.35307 -0.4311,0 -2.96173,1.72059 -5.62362,3.82353 -6.97501,5.51039 -16.4812,11.88642 -22.03246,14.7777 -7.78968,4.05711 -8.38417,5.23042 -8.21974,16.22278 0.12179,8.14204 -0.12117,9.72737 -1.66362,10.85524 -2.65928,1.9445 -4.17636,1.6283 -6.07258,-1.2657 z M 1059.9251,141.5567 c 2.2507,-0.63648 2.032,-0.82599 -2.1928,-1.90032 -5.6738,-1.44277 -11.4701,-1.54779 -12.2891,-0.22265 -1.1456,1.85367 9.7738,3.4544 14.4819,2.12297 z m 17.5,-60.093645 c 0.7412,-1.19936 -2.2089,-1.19936 -5,0 -1.6859,0.72445 -1.4988,0.87047 1.191,0.92972 1.755,0.0386 3.4691,-0.37972 3.809,-0.92972 z M 114.34632,59.107135 c 0.31835,-1.59175 0.57882,-3.83796 0.57882,-4.99159 0,-2.06962 -0.0183,-2.07128 -1.37999,-0.125 -0.759,1.08488 -2.73419,4.27034 -4.38933,7.07881 l -3.00933,5.10629 3.81051,-2.08722 c 2.65654,-1.45512 3.9858,-2.96366 4.38932,-4.98129 z m 474.57882,-6.64408 c 1.21948,-0.78809 1.09025,-0.97224 -0.69098,-0.98469 -1.20504,-0.008 -2.4691,0.43469 -2.80902,0.98469 -0.78687,1.27319 1.52988,1.27319 3.5,0 z"
     id="path2987"
     inkscape:connector-curvature="0" />
</svg>
