<?xml version="1.0" encoding="UTF-8" standalone="no"?>
<!-- Created with Inkscape (http://www.inkscape.org/) -->

<svg
   xmlns:dc="http://purl.org/dc/elements/1.1/"
   xmlns:cc="http://creativecommons.org/ns#"
   xmlns:rdf="http://www.w3.org/1999/02/22-rdf-syntax-ns#"
   xmlns:svg="http://www.w3.org/2000/svg"
   xmlns="http://www.w3.org/2000/svg"
   xmlns:sodipodi="http://sodipodi.sourceforge.net/DTD/sodipodi-0.dtd"
   xmlns:inkscape="http://www.inkscape.org/namespaces/inkscape"
   id="svg2"
   version="1.1"
   inkscape:version="0.48.2 r9819"
   width="1158.6935"
   height="484.87872"
   sodipodi:docname="1280px-Cricket_(PSF)d.png">
  <metadata
     id="metadata8">
    <rdf:RDF>
      <cc:Work
         rdf:about="">
        <dc:format>image/svg+xml</dc:format>
        <dc:type
           rdf:resource="http://purl.org/dc/dcmitype/StillImage" />
        <dc:title></dc:title>
      </cc:Work>
    </rdf:RDF>
  </metadata>
  <defs
     id="defs6" />
  <sodipodi:namedview
     pagecolor="#ffffff"
     bordercolor="#666666"
     borderopacity="1"
     objecttolerance="10"
     gridtolerance="10"
     guidetolerance="10"
     inkscape:pageopacity="0"
     inkscape:pageshadow="2"
     inkscape:window-width="1920"
     inkscape:window-height="1176"
     id="namedview4"
     showgrid="false"
     fit-margin-top="0"
     fit-margin-left="0"
     fit-margin-right="0"
     fit-margin-bottom="0"
     inkscape:zoom="1"
     inkscape:cx="612.7496"
     inkscape:cy="234.83486"
     inkscape:window-x="0"
     inkscape:window-y="24"
     inkscape:window-maximized="1"
     inkscape:current-layer="svg2" />
  <path
     style="fill:#000000"
     d="m 550.1347,483.60505 c -0.33487,-0.87265 -0.13416,-2.1586 0.44601,-2.85767 0.76354,-0.92001 0.44923,-2.3507 -1.13813,-5.18054 -1.20614,-2.15024 -2.41798,-3.88352 -2.69298,-3.85174 -0.275,0.0318 -3.67387,0.62499 -7.55303,1.31824 -6.05213,1.08157 -8.0621,1.03094 -14.16353,-0.3568 -3.91077,-0.88949 -8.48552,-1.34224 -10.16611,-1.00613 -1.68059,0.33612 -3.857,0.25652 -4.83647,-0.1769 -4.45353,-1.97068 -10.25035,-3.08014 -11.18901,-2.14148 -0.64077,0.64077 -1.95283,0.58504 -3.78622,-0.16084 -4.08063,-1.66012 -18.39807,-3.012 -21.14171,-1.99623 -2.57973,0.95508 -12.85792,-0.38176 -16.0437,-2.08674 -1.09381,-0.58539 -2.23176,-1.06434 -2.5288,-1.06434 -1.2983,0 -3.72853,6.52188 -4.38322,11.76301 -0.55844,4.47059 -1.12247,5.78938 -2.59757,6.07346 -1.69437,0.32631 -1.83519,-0.14762 -1.39747,-4.70309 0.54324,-5.6536 -0.76659,-6.03073 -1.8007,-0.51846 -0.67451,3.59545 -2.80578,5.39176 -4.44833,3.74921 -0.53525,-0.53525 0.30451,-4.65148 2.06722,-10.13283 2.98422,-9.27983 3.82735,-16.2313 1.96865,-16.2313 -0.55,0 -1,0.45 -1,1 0,0.55 -0.73388,1 -1.63084,1 -1.35687,0 -1.49949,-0.62999 -0.84895,-3.75 1.11773,-5.36064 1.36592,-21.20234 0.34209,-21.8351 -0.47426,-0.29311 -0.8623,0.58933 -0.8623,1.96098 0,3.71429 -1.75193,7.62412 -3.41623,7.62412 -2.10533,0 -2.83412,-1.6637 -1.6764,-3.82693 2.6746,-4.99752 3.56935,-28.17307 1.0877,-28.17307 -0.39475,0 -0.50426,1.11669 -0.24335,2.48152 0.67484,3.53019 -0.52973,7.51848 -2.27077,7.51848 -1.65057,0 -1.72978,-0.39882 -1.48947,-7.5 0.0931,-2.75 0.84859,-6.43988 1.67895,-8.19973 0.83036,-1.75985 1.1701,-3.74929 0.75497,-4.42097 -0.52464,-0.8489 -0.99962,-0.55933 -1.55786,0.94973 -0.4417,1.19403 -1.54367,2.17097 -2.44882,2.17097 -1.33651,0 -1.51156,-0.61063 -0.93168,-3.25 1.10826,-5.04436 1.77842,-19.34786 0.86367,-18.4336 -0.44926,0.44902 -1.51227,2.69902 -2.36225,5 -1.09866,2.97422 -2.11533,4.1836 -3.51693,4.1836 -2.46172,0 -2.32119,-1.36244 0.92826,-9 1.51747,-3.56669 2.56237,-7.93641 2.57647,-10.77475 0.0205,-4.13227 -0.29958,-4.89768 -2.37912,-5.68832 -1.32157,-0.50246 -2.69813,-1.39132 -3.05902,-1.97525 -1.27168,-2.05762 -17.18385,-0.92796 -34.53812,2.45198 -17.9041,3.48702 -39.70484,5.72352 -50.24197,5.15423 -6.43388,-0.3476 -8.32343,-0.86176 -11.18328,-3.04308 -1.89272,-1.44365 -4.03383,-2.63912 -4.75803,-2.65661 -2.07269,-0.0501 -4.36088,-2.18084 -6.23339,-5.80457 -1.34916,-2.61094 -1.58248,-4.67654 -1.07306,-9.5 0.3715,-3.51757 0.21156,-7.30768 -0.37255,-8.82852 -0.66072,-1.72032 -0.69244,-3.84703 -0.0895,-6 0.96321,-3.43941 7.03862,-10.83511 8.9008,-10.83511 2.08432,0 0.98857,-3.68561 -1.9259,-6.47785 -1.63729,-1.56862 -3.49165,-4.46532 -4.12081,-6.4371 -1.57738,-4.94354 -2.52331,-5.73265 -4.62868,-3.86134 -0.9755,0.86705 -4.24863,1.98368 -7.27363,2.4814 -4.06106,0.66818 -5.39038,1.28298 -5.08101,2.34991 0.23045,0.79474 0.95855,5.49498 1.618,10.44498 1.10727,8.31139 1.04378,9.40609 -0.82976,14.30746 -2.01237,5.26454 -6.4136,9.11008 -8.76399,7.65746 -0.54891,-0.33925 -3.05698,0.37991 -5.57348,1.59813 -4.3622,2.1117 -5.38355,2.18597 -21.91357,1.59341 -9.53596,-0.34184 -19.27718,-1.03948 -21.64715,-1.55031 -2.36997,-0.51082 -7.45904,-1.19614 -11.30904,-1.52291 -3.85,-0.32678 -9.7,-1.06801 -13,-1.64718 -17.40012,-3.05382 -28.84899,-3.17495 -43.06178,-0.45559 -7.68595,1.47056 -11.68287,1.23698 -14.30276,-0.83586 -1.78761,-1.41435 -6.13546,3.44797 -6.13546,6.86146 0,1.317 -0.61012,2.75441 -1.35582,3.19424 -1.98815,1.17265 -5.00783,8.128 -5.08089,11.70304 -0.0474,2.32036 -0.50412,3.06148 -1.82177,2.95635 -2.71747,-0.21682 -3.58716,5.88994 -1.34972,9.47743 1.36482,2.18835 -1.05274,3.85571 -3.43416,2.36849 -1.76525,-1.10242 -2.1107,-0.93325 -3.02961,1.48368 -0.78409,2.0623 -0.61894,4.27307 0.67681,9.05993 1.26236,4.66355 1.41965,6.62628 0.59695,7.44898 -1.6973,1.6973 -4.20179,-0.87804 -4.20179,-4.32065 0,-4.21846 -1.37666,-3.50992 -2.84542,1.46449 -1.16943,3.96061 -1.08324,4.75129 0.98119,9.0005 1.7345,3.57014 1.98853,4.93315 1.08736,5.83432 -0.90116,0.90116 -1.64863,0.74803 -3.1995,-0.65549 -1.113,-1.00724 -2.02363,-2.43661 -2.02363,-3.17637 0,-0.73975 -0.45,-1.34501 -1,-1.34501 -0.55,0 -1,0.49449 -1,1.09887 0,0.60438 -0.73263,2.64277 -1.62806,4.52975 -1.48031,3.11952 -1.48556,3.58835 -0.0579,5.16591 1.6734,1.84909 3.82138,9.73671 2.90191,10.65618 -0.30211,0.30211 -1.34781,0.54929 -2.32378,0.54929 -1.27807,0 -2.02932,-1.18894 -2.68542,-4.25 l -0.91094,-4.25 -1.2172,2.99735 c -0.66946,1.64855 -0.9875,3.89855 -0.70675,5 2.95025,11.57453 3.57693,15.85942 2.50786,17.14756 -1.78689,2.15307 -3.87712,-0.27112 -3.89504,-4.51735 -0.008,-1.99516 -0.49259,-4.30256 -1.07593,-5.12756 -0.76234,-1.07815 -0.88222,0.98251 -0.42626,7.32721 0.63249,8.80114 0.62754,8.82624 -1.67407,8.5 -2.10812,-0.29882 -2.33143,-0.89123 -2.57353,-6.82721 -0.1458,-3.575 -0.80176,-7.54505 -1.45768,-8.82233 -1.04355,-2.03209 -1.6353,-2.22606 -4.73491,-1.55201 -1.94827,0.42367 -10.665855,0.79372 -19.372405,0.82233 -13.88476,0.0456 -15.98741,0.26706 -17.11024,1.80201 -1.82819,2.49918 -4.45296,2.16086 -5.54632,-0.71489 -0.92518,-2.43341 -0.98554,-2.44477 -4.72525,-0.88899 -2.08346,0.86674 -5.03707,2.21843 -6.56358,3.00375 -2.43093,1.25059 -3.04822,1.23681 -4.97251,-0.11101 -2.98216,-2.08879 -6.65092,-1.92377 -10.25201,0.46114 -1.65,1.09275 -4.4074,1.98979 -6.12756,1.99341 -1.72015,0.004 -3.68,0.67225 -4.35522,1.48584 -1.17778,1.41914 -3.02828,2.51532 -11.26722,6.6744 -4.40386,2.2231 -4.64371,3.11812 -1.25,4.6644 3.01824,1.3752 3.46165,5.18195 0.60359,5.18195 -2.3701,0 -8.10358,-6.39233 -8.10358,-9.0348 0,-1.08086 -0.45,-1.9652 -1,-1.9652 -0.55,0 -1,0.87071 -1,1.9349 0,3.59085 1.94919,7.09528 4.48207,8.05828 2.59149,0.98529 3.49329,3.91697 1.26793,4.12197 -7.38887,0.68069 -12.39872,-6.53162 -11.57258,-16.66021 0.26043,-3.19299 0.74695,-4.01531 2.5253,-4.2683 1.2115,-0.17234 2.48172,-1.19239 2.82271,-2.26677 1.11708,-3.51959 9.79302,-6.90809 17.97457,-7.0202 7.50059,-0.10278 19.49974,-2.11011 19.51531,-3.26471 0.0316,-2.34131 1.96173,-4.07248 4.67763,-4.19543 1.54388,-0.0699 5.10385,-0.19738 7.91104,-0.28331 3.9352,-0.12045 5.72766,-0.73423 7.82758,-2.68037 2.94247,-2.72699 3.18458,-2.73266 19.56844,-0.45882 16.074865,2.23096 17.000005,2.26425 17.000005,0.6116 0,-0.85747 1.27537,-3.0372 2.83416,-4.84383 5.12471,-5.93954 10.67655,-15.11964 15.59387,-25.7848 2.66264,-5.775 5.29567,-11.07451 5.85116,-11.77669 1.41538,-1.78911 12.22574,-24.20302 16.0238,-33.22331 2.33326,-5.54144 3.07735,-8.69152 2.84937,-12.06274 -0.21503,-3.17983 0.15688,-4.94902 1.2271,-5.83722 1.02251,-0.84861 1.34648,-2.22035 0.96952,-4.10514 -0.9568,-4.78401 2.36049,-10.67584 7.37857,-13.10505 5.03739,-2.43856 8.36974,-2.10655 17.76652,1.77012 4.28864,1.76929 14.24443,3.73898 34.81865,6.88864 15.847,2.42599 29.12905,4.60638 29.51566,4.84532 0.38662,0.23895 4.0709,0.90418 8.18728,1.4783 4.11639,0.57412 10.78167,2.12022 14.81173,3.43577 7.05753,2.30382 7.30861,2.32007 6.8173,0.44131 -0.28055,-1.07284 -0.0343,-2.99484 0.5472,-4.27112 0.92666,-2.0338 0.60946,-2.71371 -2.5673,-5.50294 -2.54701,-2.23631 -3.62459,-4.01569 -3.62459,-5.98522 0,-2.31046 -0.35131,-2.71092 -2,-2.27978 -1.75683,0.45942 -2,0.0307 -2,-3.52623 0,-3.00279 -0.45959,-4.19511 -1.77838,-4.61368 -4.63155,-1.47 -17.22162,-17.14619 -17.22162,-21.44304 0,-0.77127 -1.39015,0.34707 -3.08922,2.4852 -5.53702,6.96784 -13.95677,13.3875 -17.55848,13.3875 -1.77885,0 -3.50175,-0.43281 -3.82868,-0.96179 -0.74862,-1.21128 -4.51907,0.15922 -8.46588,3.07722 -3.14966,2.32865 -6.41149,1.97 -5.42656,-0.59667 0.52017,-1.35556 0.21639,-1.33826 -2.34845,0.13376 -1.62024,0.92989 -3.69668,1.40261 -4.61431,1.05048 -2.53116,-0.97129 -2.06035,-4.60349 0.73444,-5.66607 3.37185,-1.28197 3.84245,-2.50495 1.70741,-4.43714 -1.7395,-1.57422 -2.04023,-1.46983 -5.37642,1.86636 -2.14334,2.14334 -4.50873,3.53385 -6.01141,3.53385 -1.36265,0 -2.99868,0.62793 -3.63562,1.39539 -1.59226,1.91855 -7.63883,2.91473 -10.00508,1.64836 -2.54382,-1.36142 -3.46891,-4.4518 -2.0989,-7.01168 0.91785,-1.71503 1.72084,-1.94318 4.99595,-1.41947 4.56095,0.72932 9.64626,-1.87292 13.07787,-6.69218 1.82193,-2.55865 1.94492,-3.3856 0.95132,-6.39625 l -1.14114,-3.45768 -3.36742,3.36742 c -4.65442,4.65442 -9.76782,6.27547 -13.03744,4.13314 -2.70687,-1.77362 -3.21229,-4.69946 -1.11279,-6.44189 1.01333,-0.84099 9.94188,-3.12516 12.21587,-3.12516 1.33773,0 3.43494,-3.70692 3.43494,-6.07143 l 0,-2.92857 -2.05115,2.05115 c -1.40741,1.40741 -2.71462,1.84058 -4.16514,1.3802 -4.27222,-1.35595 -14.74734,-1.1801 -15.94894,0.26774 -0.72385,0.87218 -2.14097,1.17293 -3.80484,0.80748 -3.92364,-0.86177 -6.47437,2.31083 -5.60096,6.96649 0.73938,3.94124 -1.23819,5.76009 -3.87943,3.56805 -1.15546,-0.95894 -1.72514,-0.60223 -3.01179,1.88589 -1.45892,2.82124 -1.4515,3.27499 0.092,5.63074 1.57475,2.40337 1.57248,2.66699 -0.0366,4.25224 -1.61075,1.58689 -1.7947,1.58323 -3.01455,-0.06 -1.72807,-2.32782 -1.83698,-2.28265 -3.94807,1.6374 -1.69448,3.14646 -1.70904,3.5632 -0.20472,5.8591 1.74382,2.66139 1.20764,5.7535 -0.99766,5.7535 -0.7468,0 -1.88198,-0.9794 -2.52262,-2.17644 -1.16352,-2.17406 -1.16636,-2.17343 -2.60668,0.57551 -1.11555,2.1291 -1.19938,3.44763 -0.37039,5.82566 1.47379,4.22772 1.3419,7.45753 -0.33073,8.09938 -1.8514,0.71045 -2.59777,-0.14884 -2.59777,-2.99078 0,-3.38936 -1.48692,-2.86591 -4.02419,1.41667 -2.03972,3.44278 -2.13136,4.23908 -1.11858,9.71981 0.66533,3.6005 0.74081,6.33215 0.19018,6.88278 -1.6664,1.6664 -3.90701,-0.19128 -4.27604,-3.54525 l -0.3639,-3.30734 -1.27708,3 c -0.77561,1.82201 -1.0331,4.634 -0.65575,7.16133 0.7059,4.72789 -0.94229,6.78719 -3.0859,3.85563 -1.22832,-1.67984 -1.37425,-1.64288 -2.39972,0.60778 -0.7154,1.57015 -0.80289,4.28904 -0.25375,7.88582 1.05256,6.89376 0.63092,8.98946 -1.80855,8.98946 -1.54134,0 -1.92668,-0.71182 -1.92668,-3.55902 0,-4.90477 -1.61741,-3.47796 -2.46506,2.17457 -0.96372,6.42657 -1.45285,7.38445 -3.77076,7.38445 -1.843925,0 -1.964345,-0.43347 -1.36841,-4.92578 0.41659,-3.14041 0.26083,-5.16842 -0.429725,-5.5952 -0.63198,-0.39059 -0.81739,-1.87936 -0.44514,-3.57422 0.60023,-2.73282 0.44088,-2.91413 -2.69145,-3.06233 -1.83121,-0.0866 -4.00446,-0.0483 -4.82946,0.0852 -0.825,0.13352 -3.975,0.61077 -7,1.06057 -3.025,0.44979 -7.3,1.30071 -9.5,1.89092 -5.66903,1.52088 -11.78874,1.36967 -14.05887,-0.34737 -2.51249,-1.90035 -6.5953,-1.91205 -11.09537,-0.0318 -4.632,1.93537 -5.0851,1.89662 -5.84576,-0.5 -0.90321,-2.84578 -4.57851,-2.56493 -14.02214,1.07148 -7.77241,2.9929 -14.47786,7.1251 -14.47786,8.92192 0,0.49039 1.87753,1.02999 4.17228,1.19911 4.85717,0.35798 6.07457,2.28227 2.48001,3.92007 -3.09235,1.40896 -6.19697,0.68564 -10.97539,-2.55709 l -3.6769,-2.49521 0,2.46987 c 0,1.80319 -0.53984,2.46986 -2,2.46986 -1.23915,0 -1.99894,-0.66574 -1.99722,-1.75 0.002,-0.9625 -0.96441,-3.57617 -2.14652,-5.80816 -2.01960997,-3.81331 -2.05307997,-4.23566 -0.55474,-7 0.87699,-1.61801 2.03055,-3.88533 2.56345,-5.03849 0.53291,-1.15315 2.46879,-2.80199 4.30197,-3.66409 4.76488,-2.24079 21.02728,-3.19517 28.70531,-1.68461 5.87437,1.15571 6.32491,1.10888 7.65923,-0.79613 1.88921,-2.69723 6.94507,-3.31548 12.27146,-1.5006 3.9771,1.35514 4.6238,1.32721 7.70621,-0.33278 3.21947,-1.7338 3.85402,-1.73892 14.69349,-0.1186 14.47009,2.16305 13.79736,2.22796 13.79736,-1.33129 0,-2.26155 0.59766,-3.25198 2.36868,-3.92532 2.80636,-1.06698 4.34194,-3.00205 11.631325,-14.65738 3.025,-4.83681 7.4125,-11.66404 9.75,-15.17163 2.3375,-3.50759 4.25,-6.72248 4.25,-7.14419 0,-0.42172 0.9,-1.58124 2,-2.57673 1.1,-0.99549 2,-2.21492 2,-2.70986 0,-0.49493 1.73496,-3.46269 3.85547,-6.59501 2.1205,-3.13232 4.57607,-7.0977 5.45681,-8.81196 0.88074,-1.71425 3.16622,-5.16691 5.07884,-7.67258 2.26438,-2.9665 3.50704,-5.71653 3.56221,-7.88318 0.31242,-12.27091 0.485,-13.06251 3.30744,-15.17129 3.25468,-2.43173 14.87643,-3.61707 17.1296,-1.74711 0.75737,0.62857 4.69188,1.77711 8.74334,2.55231 4.05146,0.7752 8.08999,1.6872 8.9745,2.02665 1.37319,0.52699 1.71014,-0.66922 2.30564,-8.18539 1.1168,-14.09577 3.50398,-27.16762 6.07834,-33.28402 l 2.38916,-5.67639 -2.48495,-9.42109 c -2.44438,-9.26729 -4.89425,-32.82516 -4.50097,-43.28123 0.10054,-2.67309 1.46985,-8.97309 3.04291,-14 1.57306,-5.02692 3.08389,-10.26485 3.35739,-11.63985 1.83109,-9.20543 8.61103,-21.716163 16.41864,-30.296593 6.44877,-7.08708 18.66306,-16.65079 25.28563,-19.79847 2.475,-1.17636 5.625,-2.92717 7,-3.89069 1.375,-0.96352 3.62327,-2.10138 4.99616,-2.52857 1.37289,-0.42719 2.95481,-1.40394 3.51537,-2.17056 0.56056,-0.76661 4.19126,-2.20977 8.06821,-3.20702 5.21187,-1.34062 9.76877,-3.59777 17.48463,-8.66059 15.13636,-9.93182 30.06294,-16.9512 49.96292,-23.49558 25.99587,-8.5490803 32.91045,-9.8355403 74.97271,-13.9486503 11.275,-1.10254 21.48241,-2.23033003 22.68313,-2.50622003 2.87643,-0.66089 86.07969,-0.74429 93.81687,-0.094 8.74928,0.73532003 24.74085,2.40957003 34.5,3.61200003 4.675,0.57601 13,1.45924 18.5,1.96272 13.119,1.20095 30.7899,3.52271 42,5.5183403 4.95,0.8812 18,3.15034 29,5.04253 28.2026,4.85134 31.3719,5.54444 75.6394,16.54159 8.6017,2.13687 16.9267,4.3753 18.5,4.97428 4.0136,1.52802 22.7691,6.89612 29.3606,8.40342 14.7759,3.37886 33.4892,9.29881 46.3053,14.64868 7.8071,3.25891 15.9947,6.20296 18.1947,6.54234 2.2,0.33937 4.675,1.18196 5.5,1.87242 0.825,0.69046 4.6505,2.38055 8.5012,3.75575 3.8506,1.37521 11.5006,4.8084 17,7.62931 5.4993,2.82092 13.3738,6.43611 17.4988,8.03375 8.9117,3.45155 11.009,4.52754 17.1952,8.82149 2.5824,1.79247 10.6824,6.191503 18,9.775623 14.7603,7.22948 23.5332,11.94865 25.804,13.8807 0.8254,0.70231 6.505,3.78806 12.6213,6.85721 6.1163,3.06915 12.3251,6.69663 13.7973,8.06105 1.4722,1.36442 4.118,3.16725 5.8795,4.00629 1.7615,0.83903 4.2759,2.52933 5.5877,3.75621 2.2764,2.12911 2.3018,2.2915 0.5589,3.56598 -1.0044,0.73441 -2.1712,1.33529 -2.593,1.33529 -1.0523,0 -22.4179,-11.05073 -27.3509,-14.14647 -2.2,-1.38063 -7.375,-4.2143 -11.5,-6.29706 -4.125,-2.08276 -9.3,-5.05347 -11.5,-6.60159 -5.0307,-3.54007 -21.213,-12.31058 -25.4198,-13.77707 -1.7427,-0.60753 -4.3862,-1.93685 -5.8744,-2.95404 -1.4882,-1.01718 -5.6308,-3.12347 -9.2058,-4.68064 -11.7407,-5.113913 -19.3759,-8.583693 -28,-12.724523 -4.675,-2.24467 -9.4,-4.41957 -10.5,-4.83312 -1.1,-0.41355 -4.925,-1.87945 -8.5,-3.25757 -17.2256,-6.64026 -23.4006,-8.93457 -34.5,-12.81853 -21.7942,-7.62634 -25.9012,-8.96189 -36.5,-11.86954 -5.775,-1.58429 -15.225,-4.25331 -21,-5.93115 -5.775,-1.67785 -11.2582,-3.0637 -12.1849,-3.07967 -0.9267,-0.016 -2.9517,-0.54744 -4.5,-1.18104 -3.5917,-1.46982 -18.0241,-5.54755 -25.8151,-7.29382 -3.3,-0.73966 -10.95,-2.53439 -17,-3.98829 -12.0057,-2.88516 -17.645,-4.02881 -39.5,-8.01072 -7.975,-1.45301 -16.75,-3.05585 -19.5,-3.56186 -5.9016,-1.08591 -30.6328,-4.6199 -38.5,-5.50149 -3.025,-0.33898 -10.225,-1.29895 -16,-2.13327 -5.775,-0.83432 -11.85,-1.65896 -13.5,-1.83253 -1.65,-0.17358 -7.05,-0.80744 -12,-1.40858 -13.50273,-1.6398003 -16.91766,-1.9779903 -25.83765,-2.5587803 -9.73401,-0.63379 -49.06771,-1.98122 -56.16235,-1.92393 -12.37239,0.0999 -39.6859,1.48273 -46.5,2.35417 -11.10544,1.4202503 -40.61014,4.8699703 -47.5,5.5537503 -5.56249,0.55204 -17.77288,3.1716 -33.5,7.18694 -3.575,0.91274 -10.775,3.40968 -16,5.54875 -5.225,2.13907 -11.975,4.70418 -15,5.70025 -3.025,0.99608 -9.63283,3.88338 -14.68406,6.41623 -5.05123,2.53286 -9.66373,4.60519 -10.25,4.60519 -0.58627,0 -1.06594,0.50625 -1.06594,1.125 0,0.74483 1.09826,0.89063 3.25,0.43144 1.7875,-0.38146 5.725,-1.09103 8.75,-1.57683 3.025,-0.48579 8.2,-1.33281 11.5,-1.88227 3.3,-0.54946 11.175,-1.47041 17.5,-2.04656 6.325,-0.57614 18.2714,-1.70104 26.54755,-2.49977 8.27615,-0.79873 23.12615,-1.7771 33,-2.17416 22.4099,-0.90116 77.25758,-0.95962 87.95245,-0.0937 4.4,0.35624 14.975,1.12293 23.5,1.70377 22.73615,1.54908 48.63809,3.90787 55.5,5.05417 3.3,0.55127 10.275,1.20303 15.5,1.44836 11.7254,0.55053 26.7383,2.62587 42.5,5.87509 6.6,1.36057 16.275,3.16637 21.5,4.01289 5.225,0.84653 16.8376,3.80792 25.8058,6.58087 8.9682,2.77296 17.8054,5.04174 19.6382,5.04174 5.6372,0 38.6268,10.73837 43.056,14.01511 0.55,0.40688 3.9929,1.47974 7.6508,2.38413 9.5573,2.36296 52.2818,17.44349 73.3492,25.890173 12.7869,5.12666 38.6202,14.71052 39.6525,14.71052 0.4781,0 2.7769,0.85335 5.1084,1.89633 2.3315,1.04298 8.2891,3.55739 13.2391,5.58759 4.95,2.03019 12.6,5.43368 17,7.5633 4.4,2.12963 11.3601,5.48379 15.4669,7.4537 4.1068,1.9699 8.1568,4.18262 9,4.91714 0.8432,0.73452 3.5581,2.21903 6.0331,3.2989 6.6338,2.8944 27.3936,16.69663 29.8935,19.87482 4.0841,5.19201 0.2775,7.11071 -5.9418,2.99497 -2.1498,-1.42271 -4.5237,-2.58675 -5.2753,-2.58675 -0.7515,0 -2.1809,-0.9 -3.1764,-2 -0.9955,-1.1 -2.6137,-2 -3.596,-2 -0.9823,0 -2.0754,-0.46823 -2.429,-1.04052 -1.0294,-1.66554 -11.5567,-7.94837 -25.475,-15.20378 -3.025,-1.57689 -7.075,-3.72594 -9,-4.77565 -16.2381,-8.85479 -28.1233,-13.98748 -58,-25.04765 -11.825,-4.37754 -22.9778,-8.62815 -24.7839,-9.44578 -1.8062,-0.81764 -4.0787,-1.48662 -5.05,-1.48662 -0.9714,0 -2.1936,-0.3992 -2.7161,-0.88711 -0.5225,-0.48791 -4.55,-2.01699 -8.95,-3.39796 -4.4,-1.38096 -9.35,-3.22899 -11,-4.10673 -1.65,-0.87773 -3.832,-1.59865 -4.8489,-1.60204 -1.0169,-0.003 -3.2669,-0.61526 -5,-1.35971 -1.7331,-0.744453 -6.3011,-2.342563 -10.1511,-3.551353 -3.85,-1.20879 -7.9,-2.56968 -9,-3.0242 -1.1,-0.45451 -6.05,-2.03669 -11,-3.51595 -4.95,-1.47926 -12.825,-3.95344 -17.5,-5.49819 -4.675,-1.54474 -13.225,-4.26653 -19,-6.04841 -5.775,-1.78188 -14.55,-4.59735 -19.5,-6.25659 -10.2424,-3.43327 -21.8968,-6.58583 -28.5,-7.70935 -2.475,-0.42111 -8.55,-1.69287 -13.5,-2.82613 -11.7255,-2.68444 -24.0407,-4.95869 -34,-6.27876 -4.4,-0.58321 -8.9,-1.20595 -10,-1.38386 -1.1,-0.17791 -6.05,-0.85693 -11,-1.50893 -4.95,-0.65199 -12.825,-1.80682 -17.5,-2.56627 -4.675,-0.75946 -12.55,-1.64711 -17.5,-1.97257 -10.40609,-0.68419 -15.4766,-1.08016 -32,-2.49895 -19.1234,-1.64205 -39.67544,-2.90258 -58,-3.55736 -30.16851,-1.07799 -99.19975,2.08906 -118.5,5.43661 -3.025,0.52467 -12.925,1.9097 -22,3.07785 -9.075,1.16815 -18.12721,2.55412 -20.11602,3.07993 -1.98881,0.52582 -4.82498,0.95603 -6.30259,0.95603 -6.5698,0 -16.42216,3.14342 -20.2367,6.45657 -2.11458,1.83663 -6.12077,5.32016 -8.90265,7.74117 -6.31496,5.4958 -15.84277,15.806 -17.5026,18.93988 -0.68817,1.29931 -2.37843,3.84973 -3.75613,5.66759 -2.33263,3.07789 -8.63983,17.518873 -11.65914,26.694793 -1.74096,5.2909 -3.34975,12.83533 -4.0516,19 -0.31309,2.75 -0.91907,8.10848 -1.34663,11.90774 -0.42756,3.79926 -0.40047,9.19926 0.0602,12 0.46066,2.80074 0.59866,6.10476 0.30666,7.34226 -0.51442,2.18015 -0.29864,2.25 6.95064,2.25 10.06969,0 17.24461,2.70693 22.27414,8.40351 l 3.78242,4.28408 13.42928,-0.89784 c 8.65953,-0.57895 16.3937,-0.53523 21.77564,0.12308 4.9553,0.60614 9.25009,0.66167 10.57072,0.13668 4.5955,-1.82686 16.53296,-4.02036 25.22436,-4.63497 11.16436,-0.78948 19.93186,0.69338 23.44806,3.9658 2.49573,2.32271 2.80525,2.35759 14.05194,1.58351 6.325,-0.43533 20.5,-1.08215 31.5,-1.43739 11,-0.35523 29.45,-0.96109 41,-1.34634 26.35159,-0.87896 68.32781,0.1146 75,1.77522 2.75,0.68444 8.78509,2.05066 13.4113,3.03605 l 8.41131,1.79162 5.08869,-3.09328 c 7.33649,-4.45966 17.82116,-12.92813 27.5887,-22.2834 10.6357,-10.18681 12.9736,-11.40633 21.867,-11.40633 6.7087,0 7.0006,0.10172 7.8917,2.75 0.5535,1.64498 0.5657,4.06451 0.03,6.02134 -0.7239,2.64621 -0.5026,3.82228 1.158,6.15437 2.4385,3.42454 2.5529,5.20673 0.5792,9.02336 -1.1853,2.29213 -1.225,3.05614 -0.2028,3.9045 1.7224,1.42944 18.6885,-14.40877 18.6814,-17.43946 -0.01,-3.60349 6.9183,-11.27331 13.5107,-14.95995 4.7739,-2.66972 7.3254,-3.45416 11.2354,-3.45416 4.9555,0 5.1141,0.0941 7.7579,4.6054 2.0135,3.43583 2.5436,5.38186 2.0874,7.66288 -0.4236,2.11813 -0.1044,3.61779 1.0389,4.88118 1.605,1.77347 1.739,2.94615 1.3013,11.38322 -0.3056,5.88889 0.5532,7.49176 6.6058,12.32989 3.0017,2.39942 5.4577,4.94942 5.4577,5.66667 0,2.36769 -2.4498,2.25299 -5.8359,-0.27323 l -3.3359,-2.48878 1.4504,2.86639 c 0.7977,1.57651 2.2555,5.34138 3.2394,8.36638 2.189,6.72989 4.063,9.73224 6.5714,10.52839 2.6776,0.84983 2.5185,4.47161 -0.1964,4.47161 -1.6124,0 -1.9392,0.41085 -1.3921,1.75 0.3932,0.9625 1.588,4.27945 2.6552,7.37101 1.0672,3.09155 3.0436,6.65749 4.3921,7.92431 2.5844,2.42789 3.1615,4.55142 1.3969,5.13963 -0.6555,0.21852 -0.2853,2.04812 0.9781,4.83333 1.118,2.46495 2.0448,5.15672 2.0594,5.98172 0.03,1.68939 5.6054,8 7.0681,8 0.5221,0 0.9493,0.9 0.9493,2 0,1.17029 -0.6667,2 -1.607,2 -1.0545,0 -1.3983,0.5438 -1,1.58179 0.3338,0.86998 0.607,2.06472 0.607,2.65499 0,0.59026 0.8946,0.26355 1.9881,-0.72603 1.9255,-1.74255 2.1186,-1.70879 6.1311,1.07187 2.2786,1.5791 4.578,4.119 5.1097,5.64423 0.5317,1.52523 1.1025,2.77315 1.2684,2.77315 0.1659,0 2.7094,-1.63569 5.6522,-3.63487 7.6704,-5.21094 46.5557,-23.36774 50.0414,-23.36598 0.9301,4.7e-4 1.9317,-0.38859 2.2259,-0.86458 0.2942,-0.47599 5.1582,-2.33605 10.809,-4.13346 5.6508,-1.79742 13.458,-4.33297 17.3493,-5.63457 8.7269,-2.919 12.4249,-3.07835 12.4249,-0.5354 0,1.8187 -8.086,6.1484 -14.4792,7.75299 -1.517,0.38074 -5.8667,2.20507 -9.6659,4.05406 -3.7993,1.849 -7.3549,3.36181 -7.9014,3.36181 -0.5465,0 -4.6971,1.73633 -9.2236,3.85851 -4.5265,2.12217 -13.8549,6.49667 -20.7299,9.72109 -14.7882,6.93573 -25,12.48351 -25,13.5817 0,0.43406 1.0169,0.40258 2.2597,-0.07 1.2429,-0.47254 6.5304,-1.38474 11.75,-2.02711 5.2197,-0.64238 11.7403,-1.59696 14.4903,-2.12129 2.75,-0.52433 8.6,-1.63848 13,-2.47587 19.2115,-3.6563 41.0134,-10.06455 60.9931,-17.92774 9.9234,-3.90546 10.6058,-4.04036 12.2287,-2.41747 2.7105,2.71045 -1.6128,5.46179 -17.7218,11.27824 -4.125,1.48941 -9.75,3.52814 -12.5,4.53052 -2.75,1.00239 -7.925,2.54607 -11.5,3.43042 -3.575,0.88434 -11.675,3.00999 -18,4.72366 -24.0603,6.51878 -39.6979,9.9153 -45.6502,9.9153 -5.875,0 -15.6294,1.83371 -15.1287,2.84402 4.8859,9.85847 5.7291,10.7555 14.4956,15.42194 1.8247,0.97128 6.7974,2.23666 11.0504,2.81196 4.2531,0.5753 9.0829,1.4494 10.7329,1.94245 1.65,0.49304 8.175,1.19362 14.5,1.55684 10.4932,0.60259 17.2625,0.22286 53.5,-3.0012 6.8963,-0.61357 36.4781,-5.04719 51,-7.6437 11.1235,-1.9889 17.3548,-3.33481 48.5,-10.47555 17.6996,-4.05803 53.2875,-14.5834 76,-22.47749 11.275,-3.91881 25.45,-8.722 31.5,-10.67375 6.05,-1.95176 15.5,-5.47133 21,-7.82129 5.5,-2.34995 12.25,-5.07728 15,-6.06072 4.8637,-1.73932 13.5,-7.11495 13.5,-8.40298 0,-0.81564 11.6201,-8.30763 15.2198,-9.81283 5.8117,-2.43019 15.6291,-4.44659 23.2802,-4.78155 4.4,-0.19262 8.675,-0.47537 9.5,-0.62832 0.825,-0.15295 7.5097,0.074 14.8549,0.50433 10.1402,0.59408 15.1936,1.39963 20.9931,3.34647 9.8315,3.30033 17.1991,6.98861 19.3798,9.70175 1.9342,2.40651 2.3071,7.78169 0.7426,10.70501 -2.372,4.43199 -5.4429,4.92717 -27.8088,4.48406 -11.5626,-0.22908 -22.5167,-0.0206 -24.3423,0.46325 -5.4331,1.44 -17.3202,2.29805 -34.3193,2.47729 -13.8557,0.14609 -16.5361,0.43947 -20,2.18915 -2.2,1.11125 -7.15,3.04105 -11,4.28843 -11.1572,3.61491 -22.3342,7.65996 -47,17.00976 -5.5,2.08482 -14.275,5.16699 -19.5,6.84926 -26.1489,8.41904 -35.4129,11.29149 -45.5,14.10805 -6.05,1.68931 -12.35,3.49756 -14,4.01836 -1.65,0.52079 -7.725,2.12077 -13.5,3.55552 -5.775,1.43474 -12.075,3.00095 -14,3.48046 -1.925,0.47951 -6.2,1.38246 -9.5,2.00655 -3.3,0.6241 -7.35,1.52884 -9,2.01054 -1.65,0.4817 -5.25,1.17892 -8,1.54938 -2.75,0.37046 -8.141,1.52428 -11.9799,2.56405 -3.839,1.03978 -8.339,1.89258 -10,1.89513 -1.6611,0.003 -13.5951,1.75716 -26.5201,3.89914 -12.925,2.14198 -30.7,4.63119 -39.5,5.53157 -8.8,0.90038 -21.175,2.28821 -27.5,3.08407 -16.8203,2.11644 -42.6333,2.17212 -46.5,0.10031 -4.2791,-2.29273 -5.8616,-2.09832 -5.1303,0.63028 0.3316,1.2375 0.6091,2.5875 0.6166,3 0.01,0.4125 0.8352,0.75 1.8393,0.75 1.0042,0 2.8826,1.125 4.1744,2.5 1.2917,1.375 2.9451,2.5 3.6743,2.5 1.6837,0 1.7565,3.95919 0.076,4.11842 -1.9161,0.18152 -2.0945,0.15909 -4.4737,-0.56226 -2.207,-0.66915 -2.2118,-0.64597 -0.6468,3.09953 0.8672,2.07555 3.5553,5.51535 5.9736,7.644 4.8688,4.28565 5.3723,5.63246 2.3969,6.41056 -2.3743,0.62089 -2.4317,1.08134 -0.6091,4.88611 0.765,1.597 2.1686,4.59602 3.1191,6.66448 2.188,4.76163 4.2239,5.27558 15.8373,3.99796 7.8011,-0.85822 9.6682,-0.76709 12.6439,0.61715 4.9196,2.28856 8.2227,8.36859 7.4015,13.62405 -0.7922,5.07021 -2.0648,7.5 -3.9279,7.5 -1.6004,0 -1.6124,-0.0518 -1.8211,-7.90863 -0.079,-2.97475 -0.6417,-5.57824 -1.2504,-5.78554 -0.7431,-0.25311 -0.9712,1.19504 -0.6943,4.40863 0.4477,5.19653 -2.3176,11.28554 -5.1253,11.28554 -2.3654,0 -2.8584,-1.91656 -1.1599,-4.50879 2.0163,-3.07725 1.991,-3.49117 -0.2138,-3.49117 -0.99,0 -2.3255,-0.52549 -2.9677,-1.16775 -1.3239,-1.32382 -12.2323,-2.15065 -12.2323,-0.92717 0,2.76207 2.467,6.84401 5.0153,8.29841 3.1708,1.80968 3.9353,4.49449 1.5415,5.41309 -2.4328,0.93354 1.1083,6.82693 5.6285,9.3674 4.1802,2.34943 4.562,4.30987 0.9429,4.84127 -1.5348,0.22535 -2.0629,0.83966 -1.7192,2 0.2728,0.92111 0.7768,2.85481 1.1199,4.2971 l 0.6238,2.62235 3.6737,-1.74138 c 9.1385,-4.33187 20.1736,-4.90421 20.1736,-1.04631 0,2.25134 -2.534,4.44904 -4.0497,3.51228 -1.4327,-0.88543 -12.7936,1.46819 -13.6316,2.82401 -1.1689,1.89144 15.8846,-0.0616 28.08,-3.21582 14.2724,-3.6914 15.1722,-3.72912 17.8282,-0.7473 1.9265,2.1629 2.3339,2.23784 5.6743,1.04389 4.3987,-1.57221 10.3318,-1.74109 11.7387,-0.33415 1.0527,1.05264 5.6531,0.25847 20.3601,-3.51475 4.1648,-1.06852 9.2654,-1.55042 14.1974,-1.34137 6.6656,0.28252 7.7591,0.0907 8.157,-1.43097 0.3618,-1.38338 0.958,-1.57371 2.8026,-0.89464 3.1965,1.1768 5.8668,6.06366 5.8774,10.75616 0,2.13711 0.019,6.36685 0.032,9.39943 0.017,4.24341 -0.4619,6.03411 -2.0812,7.77217 -2.1731,2.33256 -3.9848,2.17572 -3.9848,-0.34497 0,-1.80865 -0.9634,-1.78322 -3.4411,0.0908 -1.0676,0.80751 -3.2051,1.4682 -4.75,1.4682 -2.1567,2e-5 -2.8089,-0.47165 -2.8089,-2.03136 0,-1.11727 0.7875,-2.28307 1.75,-2.59068 3.1569,-1.00894 6.25,-2.70242 6.25,-3.42192 0,-0.38831 -1.4196,-0.98994 -3.1547,-1.33696 -1.7351,-0.34701 -3.7625,-1.13542 -4.5055,-1.75202 -1.5277,-1.26791 -8.6552,-1.3849 -21.8398,-0.35849 -6.3275,0.49259 -10.3499,1.38313 -13.5461,2.99905 -3.6259,1.83319 -5.362,2.14922 -8.5771,1.56131 -2.217,-0.40541 -4.5887,-1.08183 -5.2704,-1.50315 -0.7369,-0.45542 -1.7729,-0.0365 -2.555,1.03308 -1.1921,1.63034 -1.6995,1.67239 -5.4088,0.44822 -3.3604,-1.10902 -5.3062,-1.12698 -10.8679,-0.10027 -3.7261,0.68785 -9.2497,1.69898 -12.2747,2.24697 -6.5103,1.17935 -18.151,1.07953 -21.4747,-0.18415 -1.2948,-0.49227 -2.648,-1.82082 -3.0071,-2.95233 -0.3591,-1.1315 -1.0641,-2.05728 -1.5665,-2.05728 -1.3154,0 -1.9671,3.39817 -2.3971,12.5 -0.2079,4.4 -0.4177,8.3375 -0.4663,8.75 -0.048,0.4125 -0.9883,0.75 -2.0883,0.75 -1.1,0 -2.0344,-0.3375 -2.0765,-0.75 -0.042,-0.4125 -0.2503,-1.65 -0.4627,-2.75 -0.2124,-1.1 -0.933,-7.57337 -1.6014,-14.38527 -0.8181,-8.33869 -1.4732,-11.68763 -2.0051,-10.25 -0.4344,1.1744 -1.4793,2.13527 -2.3221,2.13527 -1.1889,0 -1.5322,-1.2214 -1.5322,-5.45121 0,-2.99817 -0.6681,-8.01628 -1.4847,-11.15137 -1.6027,-6.15329 -3.1959,-8.98391 -2.0525,-3.64659 0.5454,2.54569 0.332,3.3907 -0.9841,3.89571 -2.4394,0.93611 -3.2689,-1.08149 -3.9458,-9.59806 -0.8949,-11.25811 -3.2839,-18.78796 -6.4433,-20.3077 -1.5573,-0.74914 -8.1702,-1.38178 -16.5896,-1.58709 -12.8002,-0.31215 -14.5874,-0.59046 -20.8547,-3.24755 -3.7701,-1.59838 -6.9801,-2.90614 -7.1334,-2.90614 -0.1533,0 -0.5139,1.0125 -0.8014,2.25 -0.7989,3.43976 -5.3267,13.76617 -6.5897,15.02918 -0.8277,0.82776 -1.436,0.80566 -2.3261,-0.0845 -0.9404,-0.94042 -0.9176,-2.46783 0.1039,-6.95 0.72,-3.15957 1.4657,-8.44468 1.657,-11.74468 l 0.3479,-6 -0.8829,4.84775 c -1.0162,5.5807 -1.3675,6.11683 -3.4775,5.30717 -2.1705,-0.83291 -1.9898,-7.35325 0.3234,-11.66644 1.2266,-2.28705 1.5973,-4.16744 1.0814,-5.4844 -0.4319,-1.10224 -1.1326,-2.90408 -1.5573,-4.00408 -0.6,-1.55441 -0.8966,-0.99743 -1.3313,2.5 -0.3834,3.08477 -1.031,4.5 -2.0593,4.5 -1.2366,0 -1.5043,-1.8441 -1.5242,-10.5 -0.025,-10.65342 -1.9093,-20.46814 -3.716,-19.35152 -0.5448,0.33668 -0.7698,2.57007 -0.5001,4.96309 0.5105,4.52922 -1.0481,7.25527 -3.3387,5.83958 -1.51,-0.9332 -0.7064,-14.79988 0.9751,-16.82589 2.1905,-2.63947 -0.7238,-2.83861 -3.0129,-0.20588 -3.6843,4.23722 -13.7024,6.81595 -24.9758,6.4289 -6.5269,-0.22408 -10.093,0.0609 -11.0872,0.88595 -0.806,0.66896 -4.2991,1.94222 -7.7624,2.82948 -5.9962,1.53614 -9.0581,1.51924 -19.5776,-0.10804 -3.2918,-0.50922 -4.3613,-0.24457 -5.905,1.46125 -1.0368,1.14569 -2.85043,2.08308 -4.03019,2.08308 -1.17975,0 -2.64881,0.5038 -3.26458,1.11957 -1.10979,1.10979 -4.60387,2.03207 -15.34861,4.05133 -4.48102,0.84211 -7.06605,0.71318 -13.2399,-0.66037 -4.21944,-0.93874 -8.7687,-2.56969 -10.10946,-3.62433 -2.41259,-1.89774 -2.44448,-1.8963 -3.09053,0.13922 -0.39514,1.24499 -1.83648,2.29349 -3.65188,2.65657 -1.6495,0.3299 -3.52581,1.45183 -4.16957,2.49317 -0.7557,1.2224 -5.24576,3.16107 -12.67048,5.47074 -10.4068,3.23733 -18,6.25276 -18,7.14823 0,0.18662 1.14467,1.84006 2.54372,3.6743 1.94535,2.55049 2.3811,3.98293 1.8524,6.08944 l -0.69132,2.75444 4.8976,-0.68543 c 2.69368,-0.37699 9.04847,-0.96436 14.12176,-1.30528 8.00112,-0.53766 9.30788,-0.40168 9.85558,1.0256 0.52535,1.36905 1.56276,1.53599 6.1757,0.99383 4.44164,-0.52202 5.77565,-0.33521 6.70763,0.93935 0.96797,1.32378 1.90844,1.42224 5.60014,0.58625 2.44023,-0.5526 7.80046,-1.38534 11.91161,-1.85054 7.74431,-0.87631 11.02518,-0.13828 11.02518,2.48014 0,0.78422 0.86349,2.23089 1.91887,3.21481 3.28275,3.0605 3.61689,6.88053 0.94503,10.80402 -2.571,3.7754 -5.8639,4.67803 -5.8639,1.60738 0,-1.03265 0.675,-2.43775 1.5,-3.12244 1.72603,-1.43248 1.97435,-3 0.47525,-3 -0.56361,0 -1.41673,1.03099 -1.89583,2.2911 -1.28511,3.38009 -3.89151,5.29681 -5.29468,3.89364 -0.84065,-0.84065 -0.83672,-1.77525 0.0154,-3.64535 1.02344,-2.2462 0.90182,-2.5761 -1.13852,-3.08819 -2.6419,-0.66308 -32.87223,0.28591 -36.79952,1.15521 -1.45087,0.32115 -3.51023,0.11707 -4.57637,-0.45351 -1.06613,-0.57058 -6.55112,-1.35511 -12.18887,-1.7434 -6.43206,-0.443 -10.754,-1.20953 -11.60221,-2.05775 -0.7438,-0.74346 -1.80872,-1.35175 -2.36682,-1.35175 -1.66342,0 -4.12813,4.24834 -4.12813,7.11552 0,2.93923 -2.12029,4.36419 -3.87814,2.60634 -1.57943,-1.57943 -1.38316,-5.69713 0.43803,-9.18973 0.88894,-1.70478 1.28835,-4.00067 0.93848,-5.39464 -0.75537,-3.00963 -2.22787,-1.7074 -2.67142,2.36251 -0.41723,3.82838 -3.20326,4.07075 -3.63697,0.3164 -0.1705,-1.47598 0.46173,-4.17598 1.40496,-6 1.85519,-3.58754 1.75223,-4.49737 -0.45167,-3.99127 -0.96911,0.22255 -1.25419,-0.29298 -0.90353,-1.63391 0.81238,-3.10655 -2.62988,-5.39626 -6.9064,-4.59398 -3.44145,0.64562 -3.54251,0.7896 -3.00798,4.28541 1.38137,9.03411 3.73677,21.5906 6.1185,32.61735 1.42558,6.6 3.94903,18.975 5.60767,27.5 4.24381,21.81205 4.68331,23.0844 7.86253,22.76213 2.04908,-0.20771 2.65513,0.22675 2.91923,2.09269 0.32039,2.26375 0.55243,2.32518 6,1.58862 3.11669,-0.42141 10.38564,-0.81215 16.15322,-0.86831 8.7737,-0.0854 10.77454,0.18592 12.25,1.66138 0.96992,0.96992 1.76349,2.49095 1.76349,3.38007 0,1.27627 0.5789,1.46079 2.75,0.87656 1.5125,-0.40701 5.225,-0.79697 8.25,-0.86658 4.84278,-0.11144 5.61949,0.14806 6.5,2.17164 0.72618,1.66891 1.54763,2.13882 3,1.71614 6.18649,-1.80045 19.65985,-3.63356 23.83734,-3.24318 3.47027,0.32429 5.58982,1.1904 7.5,3.06473 1.46446,1.43698 4.17276,3.98728 6.01856,5.66734 3.0295,2.75759 3.2882,3.41652 2.6608,6.77571 -0.83,4.44318 -0.9824,4.64009 -2.9939,3.8682 -0.8598,-0.32996 -1.8355,-1.96056 -2.1681,-3.62354 -0.3326,-1.66298 -0.9984,-3.0236 -1.4797,-3.0236 -1.293,0 -1.0621,3.72761 0.3733,6.02592 1.0196,1.63274 0.9675,2.49883 -0.2844,4.72935 -1.7747,3.1618 -4.69565,4.10734 -5.5788,1.8059 z M 692.29,367.5238 c -1.3972,-2.62779 -2.572,-5.72328 -2.6107,-6.87886 -0.039,-1.15558 -0.4922,-3.00106 -1.0079,-4.10106 -0.6698,-1.42854 -0.7816,-0.68682 -0.3916,2.59588 0.3973,3.34384 0.1461,4.92789 -0.9223,5.81457 -1.1874,0.98541 -1.6593,0.86198 -2.4658,-0.64486 -1.6582,-3.09838 -2.5471,-14.07262 -1.2651,-15.61743 0.8506,-1.0249 0.7942,-2.33793 -0.2257,-5.25713 -0.7477,-2.14007 -1.6676,-5.56274 -2.0441,-7.60595 -0.9348,-5.07201 -2.5477,-5.76034 -1.8828,-0.80351 0.4249,3.1685 0.1806,4.11766 -1.1961,4.64594 -2.7447,1.05324 -3.6299,-1.51587 -3.3173,-9.62751 l 0.289,-7.5 -3.5,-1.72698 c -1.925,-0.94983 -4.5613,-2.94417 -5.8585,-4.43186 -2.101,-2.40961 -2.4612,-2.52129 -3.2997,-1.02303 -0.5176,0.92503 -1.5263,1.68187 -2.2414,1.68187 -0.7152,0 -3.2335,1.40041 -5.5964,3.11202 -2.3628,1.71162 -5.7721,3.72881 -7.5764,4.48266 l -3.2803,1.37063 1.641,4.17774 c 1.0424,2.65354 2.8397,4.88495 4.9264,6.11613 3.6984,2.18208 4.2842,4.66683 1.2853,5.45107 -2.3817,0.62282 -2.3886,0.8032 -0.202,5.25409 0.9361,1.90539 3.277,4.51993 5.202,5.81008 4.292,2.87653 4.855,4.18922 2.1054,4.90828 -2.2177,0.57992 -2.4572,1.40272 -1.4751,5.0673 0.4142,1.54568 1.3588,2.25 3.0177,2.25 2.8426,0 4.0929,2.40231 2.3459,4.50735 -1.0782,1.29912 0.1413,1.41591 9.8875,0.94694 10.6404,-0.51199 18.0163,0.47301 20.6061,2.75179 1.998,1.75805 1.5309,-1.06559 -0.9471,-5.72616 z m -327.10773,-28.51403 7.93267,-2.68402 -4.93267,-0.73452 c -2.71297,-0.40399 -5.47546,-1.18115 -6.13887,-1.72703 -1.4247,-1.1723 -3.2938,-0.25514 -3.2938,1.61625 0,0.7252 -0.69957,1.89913 -1.5546,2.60874 -0.85502,0.70961 -2.03237,2.18294 -2.61633,3.27408 -0.92408,1.72666 -0.81977,1.87669 0.8046,1.1572 1.02648,-0.45467 5.43603,-2.03449 9.799,-3.5107 z M 646.7496,240.16051 c 0,-0.48585 -0.8795,-1.11336 -1.9545,-1.39447 -1.0749,-0.28111 -2.1639,-1.57109 -2.42,-2.86663 -2.0114,-10.17732 -4.0982,-17.25672 -6.6448,-22.54252 -1.6394,-3.40284 -2.9807,-7.23143 -2.9807,-8.50796 0,-1.27653 -1.125,-4.43427 -2.5,-7.0172 -1.375,-2.58293 -2.5,-5.59029 -2.5,-6.68303 0,-2.90053 -1.1196,-3.17422 -6.0442,-1.47755 -3.1409,1.08214 -6.6285,3.79235 -12.1207,9.41902 -7.5639,7.74899 -7.6906,7.96223 -6.6425,11.17671 0.5876,1.80235 1.549,5.59881 2.1364,8.43658 l 1.068,5.15957 5.2111,0.65108 c 5.4899,0.68593 14.5619,5.44776 19.7124,10.34691 1.5513,1.47557 3.6631,2.54643 4.6929,2.37968 1.0298,-0.16676 3.5856,0.60086 5.6795,1.7058 4.2779,2.25744 5.3071,2.49287 5.3071,1.21401 z m -53,-19.61663 c 0,-0.825 -0.45,-1.5 -1,-1.5 -0.55,0 -1,0.675 -1,1.5 0,0.825 0.45,1.5 1,1.5 0.55,0 1,-0.675 1,-1.5 z m -22.8888,-22.59312 c 2.6889,-2.25121 4.8888,-4.44001 4.8888,-4.864 0,-0.42398 -1.7567,-1.9883 -3.9039,-3.47625 l -3.9038,-2.70538 -3.8462,2.10952 c -4.6392,2.54448 -10.74661,6.87377 -11.10755,7.87366 -0.1438,0.39834 2.55625,1.65137 6.00005,2.7845 3.4438,1.13313 6.4239,2.13018 6.6226,2.21566 0.1987,0.0855 2.5612,-1.68649 5.25,-3.93771 z M 202.69045,159.04388 c 0.62322,-10.175 1.61742,-20.3 2.20934,-22.5 0.59193,-2.2 1.44692,-6.25 1.9,-9 2.75753,-16.73704 17.29985,-45.487773 27.48928,-54.347373 4.53627,-3.94424 1.76848,-3.64763 -4.15972,0.44578 -3.10773,2.14587 -6.82701,4.67679 -8.26508,5.62426 -1.43807,0.94747 -3.66824,2.97247 -4.95594,4.5 -3.57276,4.23817 -14.15873,20.356343 -14.15873,21.558033 0,0.584 -0.58291,1.77225 -1.29536,2.64056 -1.4419,1.75734 -4.21053,9.7009 -5.2555,15.07874 -0.37405,1.925 -1.08048,3.99895 -1.56986,4.60878 -2.33408,2.9086 -0.37548,39.8925 2.2688,42.84122 0.46856,0.5225 0.85192,2.585 0.85192,4.58333 0,4.2424 0.89165,5.52796 2.59434,3.74048 0.76594,-0.80409 1.63123,-8.09579 2.34651,-19.77381 z"
     id="path2987"
     inkscape:connector-curvature="0" />
</svg>
