<?xml version="1.0" encoding="UTF-8" standalone="no"?>
<!-- Created with Inkscape (http://www.inkscape.org/) -->

<svg
   xmlns:dc="http://purl.org/dc/elements/1.1/"
   xmlns:cc="http://creativecommons.org/ns#"
   xmlns:rdf="http://www.w3.org/1999/02/22-rdf-syntax-ns#"
   xmlns:svg="http://www.w3.org/2000/svg"
   xmlns="http://www.w3.org/2000/svg"
   xmlns:sodipodi="http://sodipodi.sourceforge.net/DTD/sodipodi-0.dtd"
   xmlns:inkscape="http://www.inkscape.org/namespaces/inkscape"
   id="svg2"
   version="1.1"
   inkscape:version="0.48.2 r9819"
   width="2100.7085"
   height="1100.3195"
   sodipodi:docname="Tapir_(PSF)c.png">
  <metadata
     id="metadata8">
    <rdf:RDF>
      <cc:Work
         rdf:about="">
        <dc:format>image/svg+xml</dc:format>
        <dc:type
           rdf:resource="http://purl.org/dc/dcmitype/StillImage" />
        <dc:title></dc:title>
      </cc:Work>
    </rdf:RDF>
  </metadata>
  <defs
     id="defs6" />
  <sodipodi:namedview
     pagecolor="#ffffff"
     bordercolor="#666666"
     borderopacity="1"
     objecttolerance="10"
     gridtolerance="10"
     guidetolerance="10"
     inkscape:pageopacity="0"
     inkscape:pageshadow="2"
     inkscape:window-width="1600"
     inkscape:window-height="876"
     id="namedview4"
     showgrid="false"
     fit-margin-top="0"
     fit-margin-left="0"
     fit-margin-right="0"
     fit-margin-bottom="0"
     inkscape:zoom="0.31178707"
     inkscape:cx="1131.896"
     inkscape:cy="566.46777"
     inkscape:window-x="0"
     inkscape:window-y="24"
     inkscape:window-maximized="1"
     inkscape:current-layer="svg2" />
  <path
     style="fill:#000000"
     d="m 962.21308,1099.4669 c -1.1,-0.437 -4.9057,-1.1163 -8.457,-1.5097 -9.432,-1.0445 -13.043,-2.7891 -13.043,-6.3015 l 0,-2.8346 -9.4718,0.034 c -8.5476,0.03 -9.694,-0.1886 -11.75,-2.2442 -1.7743,-1.774 -2.2782,-3.4037 -2.2782,-7.3687 0,-4.9028 -0.1259,-5.1329 -3.4041,-6.2223 -4.6357,-1.5405 -6.006,-3.9018 -4.084,-7.0378 0.8184,-1.3355 9.4558,-10.7273 19.1941,-20.8707 18.7146,-19.493 25.4128,-24.635 37.5152,-28.7988 16.5402,-5.6907 36.79112,-20.98391 42.27282,-31.92391 1.5158,-3.02501 4.139,-7.98226 5.8294,-11.01611 4.1462,-7.44151 9.7302,-22.11175 11.6348,-30.56684 1.3254,-5.88417 1.4047,-9.60492 0.531,-24.91706 -1.483,-25.99003 -2.7222,-40.2987 -3.9837,-46 -0.6086,-2.75 -1.4961,-9.95 -1.9723,-16 -1.2285,-15.60567 -2.7975,-24.67191 -6.0568,-35 -1.5622,-4.95 -3.7696,-13.65463 -4.9055,-19.34361 -1.1358,-5.68899 -3.6895,-14.91399 -5.6748,-20.5 -1.9853,-5.58642 -4.91062,-14.65679 -6.50052,-20.15679 -4.0828,-14.1228 -5.2962,-17.87108 -8.9029,-27.5 -1.7511,-4.675 -4.2195,-11.65 -5.4854,-15.5 -1.2659,-3.85 -5.2527,-12.82232 -8.8595,-19.9385 -6.8738,-13.56174 -13.072,-21.24624 -24.1737,-29.9703 -10.2429,-8.04922 -47.3998,-45.50983 -58.7357,-59.2158 -2.3311,-2.81854 -6.0749,-7.31854 -8.3196,-10 -2.2446,-2.68147 -5.7959,-7.4629 -7.8916,-10.6254 -2.0957,-3.1625 -4.1544,-5.75 -4.575,-5.75 -0.4205,0 -2.4943,-2.30095 -4.6084,-5.11322 -2.1141,-2.81227 -5.1938,-6.82641 -6.8438,-8.92031 -1.65,-2.09391 -5.8432,-7.45667 -9.3181,-11.91725 -3.475,-4.46058 -8.0669,-9.21405 -10.2042,-10.56327 -2.1373,-1.34922 -7.3941,-5.28152 -11.6818,-8.73844 -7.2154,-5.81734 -16.4375,-10.74751 -20.1036,-10.74751 -0.8475,0 -4.95,-1.75119 -9.1166,-3.89154 -4.1666,-2.14035 -9.1507,-4.35162 -11.0757,-4.91394 -1.925,-0.56231 -8.45,-2.85799 -14.5,-5.10151 -6.05,-2.24351 -15.1357,-5.21403 -20.1904,-6.60114 -5.0547,-1.38712 -12.0626,-3.8107 -15.5731,-5.38575 -3.5104,-1.57504 -10.6248,-4.49821 -15.8096,-6.49592 -5.1848,-1.99772 -11.9019,-4.92318 -14.9269,-6.50103 -3.8294,-1.99743 -6.4441,-2.7253 -8.6082,-2.39631 -3.5064,0.53305 -6.6381,-0.87704 -19.4031,-8.73646 -4.6688,-2.8746 -11.339,-6.30564 -14.8228,-7.62452 -3.4837,-1.31889 -8.6718,-3.89342 -11.529,-5.72118 -2.8573,-1.82777 -7.432,-4.06636 -10.166,-4.97465 -5.1952,-1.72598 -24.0443,-12.32715 -31.0245,-17.44893 -5.7909,-4.24918 -12.6869,-7.55342 -22.4464,-10.75533 -4.675,-1.53378 -9.4,-3.35165 -10.5,-4.03972 -1.1,-0.68807 -6.216,-2.88697 -11.369,-4.88646 -5.1529,-1.99948 -10.3279,-4.26282 -11.5,-5.02965 -1.172,-0.76683 -4.606,-2.06276 -7.631,-2.87985 -3.025,-0.81709 -9.1,-3.08448 -13.5,-5.03865 -4.4,-1.95417 -8.8122,-3.55854 -9.8049,-3.56525 -0.9926,-0.007 -3.9176,-0.99679 -6.5,-2.20017 -6.6733,-3.10984 -27.0411,-4.13876 -78.6951,-3.97545 -23.1,0.073 -46.5,-0.33191 -52,-0.89988 -5.5,-0.56797 -14.95,-1.18005 -21,-1.36018 -6.9357,-0.2065 -12.6167,-0.92773 -15.3757,-1.95202 -2.4067,-0.89348 -7.3567,-1.6384 -11,-1.65539 -9.6562,-0.045 -20.6363,-1.66537 -24.3699,-3.59634 -1.7899,-0.92574 -5.9544,-1.81318 -9.2544,-1.97209 -3.3,-0.1589 -8.475,-0.98373 -11.5,-1.83294 -3.025,-0.8492 -6.7671,-1.54935 -8.3157,-1.55588 -1.5487,-0.007 -3.7736,-0.52449 -4.9443,-1.15102 -1.1707,-0.62654 -6.573,-1.3075 -12.0051,-1.51325 -6.2911,-0.23829 -12.0058,-1.09137 -15.7416,-2.34985 -3.2257,-1.08666 -9.9266,-2.67668 -14.891,-3.53339 -4.9643,-0.85671 -11.1807,-2.17419 -13.8142,-2.92773 -11.8082,-3.37883 -27.4607,-8.57452 -30.381,-10.08466 -2.9563,-1.52879 -3.8546,-1.53274 -11.9452,-0.0525 -10.1573,1.8583 -25.4203,2.09264 -31.3459,0.48127 -4.9148,-1.33651 -16.7039,-5.97332 -25.3849,-9.98425 -3.4479,-1.59305 -7.9479,-2.9224 -10,-2.95411 -4.6449,-0.0718 -15.6688,-2.96916 -19.931402,-5.23853 -1.7602,-0.93713 -3.4328,-1.70385 -3.7169,-1.70385 -0.2841,0 -3.794,2.96365 -7.7997,6.58589 -9.2441,8.35915 -17.9808,12.63673 -26.5,12.97469 -3.7875,0.15025 -9.7066,1.45485 -15.1473,3.33855 -9.8498,3.41022 -12.0065,3.36106 -20.6925,-0.47165 C 8.8527779,358.94551 4.8863779,351.38175 1.1491779,324.7565 -0.26892205,314.65272 -0.33192205,311.69892 0.72537795,304.88828 c 0.68299995,-4.4 2.08469995,-9.88781 3.11479995,-12.19514 1.0301,-2.30732 1.8729,-4.51604 1.8729,-4.90825 0,-2.96348 9.5657001,-20.33049 15.7626001,-28.61793 13.0794,-17.4916 55.8161,-58.98502 68.5935,-66.59794 4.3208,-2.57441 10.581002,-6.87493 13.911402,-9.55672 6.5835,-5.30135 15.764,-10.93815 19.7325,-12.11571 1.375,-0.408 4.975,-2.22592 8,-4.03982 3.025,-1.81391 9.7311,-5.15768 14.9025,-7.43061 5.1714,-2.27293 10.5195,-5.01129 11.8848,-6.08524 1.3654,-1.07395 3.1256,-1.95264 3.9116,-1.95264 0.7861,0 3.9879,-1.17336 7.1152,-2.60746 3.1272,-1.4341 10.7889,-4.58256 17.0258,-6.99656 6.2369,-2.41401 12.5369,-5.06376 14,-5.88834 4.4176,-2.48977 26.8996,-11.34985 39.4201,-15.53532 6.4679,-2.16219 13.1481,-4.6491 14.8447,-5.52647 3.7813,-1.95538 26.4968,-9.83423 37.3953,-12.97054 10.4394,-3.004193 16.3455,-4.969423 25.5,-8.485043 4.125,-1.58414 10.425,-3.65474 14,-4.60135 3.575,-0.9466 10.1,-3.74409 14.5,-6.216634 4.4,-2.47255 9.35,-4.85947 11,-5.30428 1.65,-0.44481 6.6,-1.98435 11,-3.4212 4.4,-1.43685 17.675,-5.74116 29.5,-9.56514 11.825,-3.82398 26.225,-8.80015 32,-11.05816 9.5979,-3.75274 11.1723,-4.75918 18.3254,-11.71448 4.304,-4.18497 9.3413,-9.85903 11.194,-12.60903 4.9766,-7.38692 12.3924,-14.21254 17.3291,-15.9502 2.3917,-0.84184 5.2284,-2.64908 6.3037,-4.0160998 1.0989,-1.39714 3.7926,-2.9458 6.1514,-3.53671 2.308,-0.57817 7.6615,-2.19187 11.8965,-3.58599 8.5969,-2.82998 9.7022,-2.62822001 15.4652,2.8231 3.0973,2.9297 3.2694,2.96776 8,1.76902 6.7605,-1.7131 23.0939,-0.003 30.4087,3.18398 17.1509,7.4722798 20.9642,11.3006598 23.0045,23.0956498 0.6867,3.96949 1.3708,7.37565 1.5203,7.56925 0.1495,0.1936 1.3011,-0.3689 2.559,-1.25 3.1635,-2.21576 7.1694,-2.00296 9.4356,0.50123 2.1546,2.38078 4.1588,2.32105 21.9066,-0.65292 20.335,-3.40751 22.1937,-3.11233 21.1437,3.35793 -0.6095,3.75598 -0.8391,3.72915 6.8563,0.80138 5.4063,-2.05687 11.5,-2.10184 11.5,-0.0849 0,0.83861 1.0813,1.93585 2.4029,2.43832 1.3215,0.50246 2.6981,1.39132 3.059,1.97524 0.9281,1.50177 4.6841,1.31646 8.8839,-0.43831 5.528,-2.30975 10.3406,-1.94143 13.0666,1 1.2873,1.38898 3.4339,2.5 4.8303,2.5 1.3883,0 3.1275,0.89452 3.8853,1.99837 1.351,1.96782 1.55,1.97303 13.0122,0.34106 11.628,-1.65557 11.6431,-1.65505 14.3849,0.50163 1.5095,1.18742 3.5883,2.15894 4.6196,2.15894 1.0312,0 2.6374,0.89061 3.5695,1.97914 1.8348,2.14296 5.8861,2.07843 13.6201,-0.21693 2.9112,-0.864 4.2923,-0.85198 5.7365,0.0499 2.6262,1.64009 5.5972,1.49601 11.2995,-0.54797 l 4.8703,-1.74574 4.2921,4.74079 4.2921,4.7408 6.8376,-0.0354 c 4.0317,-0.0209 7.8635,-0.6219 9.3376,-1.46456 1.375,-0.78602 4.6271,-1.44508 7.227,-1.46457 4.6341,-0.0347 5.5386,0.5877 8.301,5.71192 0.073,0.13604 2.682,-0.22379 5.797,-0.79963 4.7483,-0.87778 6.2384,-0.77423 9.2204,0.64082 3.5301,1.67516 3.5784,1.66707 6.446,-1.08027 2.7773,-2.66085 6.0086,-2.9267 6.0086,-0.49434 0,0.68672 1.2543,0.84139 3.4631,0.42701 2.6274,-0.4929 4.3259,-0.11643 7.0385,1.56006 2.9913,1.84872 4.0184,2.02992 6.2869,1.10913 1.4913,-0.60534 5.4115,-0.94421 8.7115,-0.75305 3.8789,0.22468 7.0203,-0.16449 8.8862,-1.10087 2.3335,-1.17104 3.325,-1.21355 5.1778,-0.22194 1.3128,0.70259 3.4972,0.94377 5.1139,0.56463 5.6807,-1.33221 5.8073,-1.27746 6.1325,2.6511 0.3413,4.12368 0.7064,4.27465 6.2919,2.60122 2.787,-0.83503 4.1953,-0.84916 5.1561,-0.0517 0.9847,0.81717 2.402,0.54854 5.5554,-1.05289 4.1275,-2.09616 4.3098,-2.10482 7.2868,-0.34627 3.0061,1.77574 3.1447,1.76269 8.9493,-0.84223 3.2427,-1.45526 8.1103,-2.90819 10.8169,-3.22875 4.5156,-0.5348 5.0628,-0.36641 6.6421,2.04391 2.0104,3.06817 2.8424,3.16276 9.1082,1.03546 3.3368,-1.13287 5.3043,-1.30996 6.8301,-0.61475 1.5356,0.69968 2.9335,0.56246 4.9307,-0.484 3.5504,-1.86025 5.6221,-1.06482 5.6221,2.15862 0,3.2915 1.5547,3.22612 8.7201,-0.36674 8.3735,-4.19859 11.7649,-4.72617 13.9531,-2.17056 2.107,2.46074 3.8679,2.57621 8.6726,0.56869 5.1516,-2.15248 9.3497,-1.93751 10.6793,0.54683 1.0232,1.91194 1.783,2.01552 11.52862,1.57167 9.7819,-0.4455 10.5261,-0.34263 11.9202,1.64772 1.4542,2.07616 1.5675,2.08447 5.1468,0.3776 5.6369,-2.68802 15.6859,-3.32814 18.9254,-1.20555 2.2821,1.49525 3.274,1.56448 7.5878,0.5296 4.2739,-1.02528 5.2097,-0.96688 6.7431,0.42081 2.239,2.0263 3.5608,2.02581 6.6563,-0.002 1.552,-1.0169 3.6657,-1.42943 5.7148,-1.11535 1.7886,0.27413 4.8269,-0.1543 6.7519,-0.95206 2.8786,-1.19298 4.1682,-1.23203 7.264,-0.21998 3.1815,1.04009 5.5027,0.90905 15,-0.84677 6.1798,-1.14251 14.611,-2.59622 18.736,-3.23047 4.125,-0.63426 9.075,-1.55684 11,-2.05018 4.3588,-1.11707 26.1867,-3.87876 39.5,-4.99757 24.9333,-2.09532 44.6988,-3.98249 46.756,-4.46416 1.2342,-0.28898 9.444,-1.19202 18.244,-2.00675 31.0194,-2.87187 36.1589,-3.54282 53,-6.91899 19.4014,-3.88943 26.5197,-5.12051 38.4697,-6.65316 4.6583,-0.59746 12.5333,-1.97201 17.5,-3.05456 5.2662,-1.14785 18.3888,-2.5761 31.482,-3.42648 12.3484,-0.80202 26.2984,-2.12326 31,-2.93611 16.0571,-2.77607 30.5416,-4.62285 43.5483,-5.5524 7.15,-0.51099 13.9,-1.18121 15,-1.48939 1.1,-0.30817 15.725,-1.42718 32.5,-2.48669 30.4355,-1.92231 42.7581,-1.91863 70.5,0.021 7.7,0.53837 24.125,1.44943 36.5,2.02458 12.375,0.57515 25.2,1.46329 28.5,1.97365 3.3,0.51036 14.55,2.35574 25,4.10085 13.5165,2.2572 22.8962,3.239 32.5,3.40189 14.7134,0.24956 24.0515,1.843 38.2808,6.5322 4.9412,1.62835 9.5423,2.96064 10.2245,2.96064 0.6823,0 3.2102,0.84693 5.6176,1.88206 2.4074,1.03513 7.5271,2.17117 11.3771,2.52454 3.85,0.35336 10.375,1.59217 14.5,2.7529 16.0415,4.51392 33.7469,10.11513 39,12.33786 3.025,1.27996 7.075,2.7636 9,3.29697 9.1067,2.52325 47.4727,19.07615 65.8728,28.420654 8.4551,4.2939 19.4801,10.666973 24.5,14.162383 20.2014,14.06626 24.8105,17.40878 33.2639,24.12264 4.8475,3.85 11.7818,9.7 15.4095,13 3.6277,3.3 9.0098,7.8 11.9602,10 2.9504,2.2 8.5928,7.00001 12.5388,10.6667 3.9459,3.66668 10.275,8.67505 14.0646,11.12971 3.7896,2.45466 10.6144,8.34214 15.1661,13.0833 4.5518,4.74116 8.7099,8.62029 9.2403,8.62029 0.5304,0 2.4312,1.96394 4.2241,4.3643 1.7928,2.40037 7.677,9.62199 13.076,16.04806 5.3989,6.42606 11.1324,13.57463 12.741,15.88569 1.6086,2.31107 6.0958,8.70195 9.9714,14.20195 7.9175,11.2357 8.1113,11.54222 15.1754,24 5.5302,9.7527 15.033,32.57159 16.2269,38.96544 0.4072,2.181 1.4607,5.331 2.341,7 0.8803,1.66901 1.9206,5.05956 2.3119,7.53456 0.3913,2.475 1.4246,8.55 2.2963,13.5 4.2454,24.10795 0.099,33.42385 -12.1682,27.33779 -3.2113,-1.59322 -5.2524,-3.45251 -6.4088,-5.83779 -3.3301,-6.86926 -4.2195,-7.04006 -5.0844,-0.97651 -0.4297,3.01208 -0.9517,9.52651 -1.1599,14.47651 -0.2082,4.95 -1.1424,12.375 -2.076,16.5 -0.9335,4.125 -2.057,9.975 -2.4965,13 -0.4395,3.025 -1.5163,7.46908 -2.3928,9.87573 -0.8765,2.40665 -1.6052,5.78165 -1.6194,7.5 -0.014,1.71835 -1.157,6.27427 -2.5396,10.12427 -1.3826,3.85 -2.9098,8.51215 -3.3938,10.36034 -0.484,1.84819 -1.7698,5.22319 -2.8574,7.5 -3.1955,6.6896 -6.2881,14.70514 -8.1923,21.23271 -0.9776,3.35117 -2.4463,7.40117 -3.2638,9 -0.8175,1.59882 -1.7977,4.48195 -2.1781,6.40695 -0.3804,1.925 -1.9554,5.975 -3.5,9 -1.5445,3.025 -3.3732,7.3 -4.0636,9.5 -0.6904,2.2 -2.3198,5.83985 -3.6209,8.08856 -2.51,4.33825 -7.8576,20.56204 -9.5297,28.91144 -0.5507,2.75 -1.8182,6.35 -2.8168,8 -0.9985,1.65 -2.3656,5.7 -3.038,9 -0.6723,3.3 -2.908,10.725 -4.968,16.5 -3.6514,10.23598 -9.1092,30.96241 -10.533,40 -1.0432,6.6215 -1.9473,22.41387 -1.7747,31 0.1784,8.87384 3.1267,20.60602 7.7902,31 1.8508,4.125 3.6851,8.85 4.0763,10.5 0.3911,1.65 2.6083,5.25 4.9271,8 2.3188,2.75 5.2454,7.025 6.5036,9.5 1.2582,2.475 4.2475,7.36482 6.643,10.86627 2.3954,3.50145 4.3553,6.95448 4.3553,7.6734 0,0.71893 1.5583,3.34864 3.4629,5.84382 1.9046,2.49518 4.666,6.91085 6.1365,9.8126 1.4704,2.90175 3.665,6.85722 4.877,8.78991 1.2119,1.9327 2.9876,6.214 3.9461,9.514 0.9584,3.3 2.3804,7.47777 3.16,9.28393 1.6024,3.71222 1.7638,13.26117 0.3502,20.71607 -0.5215,2.75 -1.4174,8.375 -1.9909,12.5 -0.5735,4.125 -1.6972,10.875 -2.497,15 -0.7998,4.125 -1.6604,12.225 -1.9125,18 -0.8318,19.05894 -1.5822,28.46047 -2.5142,31.5 -0.5059,1.65 -1.4129,6.825 -2.0155,11.5 -0.6027,4.675 -1.5087,10.525 -2.0136,13 -0.5048,2.475 -0.8856,8.775 -0.8462,14 0.044,5.8722 -0.4688,10.9804 -1.3435,13.37667 -1.0851,2.97245 -1.1929,5.25683 -0.4622,9.79395 0.7529,4.67542 0.6103,7.1148 -0.6799,11.62333 -0.8981,3.13833 -2.3368,12.23105 -3.1972,20.20605 -0.8604,7.975 -2.4091,16.975 -3.4417,20 -1.0326,3.025 -3.0974,9.77498 -4.5885,14.99998 -1.4911,5.225 -3.3228,11.42831 -4.0705,13.78501 -0.7476,2.3568 -1.3593,4.9001 -1.3593,5.6518 0,1.9748 -11.1852,18.3448 -15.8142,23.1447 -2.1649,2.2448 -7.7048,6.0072 -12.311,8.3608 -4.6061,2.3536 -10.0368,5.7803 -12.0681,7.6148 -3.7614,3.3968 -6.413,4.3777 -17.6367,6.5241 -4.9721,0.9509 -7.8027,0.9474 -13.1948,-0.016 -7.3404,-1.3118 -8.4276,-2.0349 -9.5032,-6.3205 -0.8246,-3.2855 -0.8539,-3.2895 -5.0504,-0.6959 -1.823,1.1266 -6.1511,2.887 -9.6181,3.9119 -7.4386,2.1991 -19.5766,6.6283 -22.0399,8.0426 -2.2775,1.3076 -3.7636,1.2647 -3.7636,-0.1086 0,-0.6081 -1.125,-2.4427 -2.5,-4.0768 -1.375,-1.6341 -2.5,-3.8213 -2.5,-4.8604 0,-1.0391 -0.7757,-3.5159 -1.7237,-5.5039 -1.8506,-3.8809 -1.23,-3.7723 -10.4035,-1.8211 -3.0049,0.6391 -16.504,-4.2286 -17.2712,-6.2279 -0.2649,-0.6903 -0.013,-2.9507 0.5588,-5.023 0.7366,-2.6679 0.7157,-4.8513 -0.072,-7.4791 -1.4158,-4.7257 -0.5822,-6.9557 6.2756,-16.7882 2.9208,-4.1877 5.6418,-8.1871 6.0467,-8.8876 1.2224,-2.11491 -7.1733,-0.3275 -13.4111,2.8551 -7.1737,3.6601 -29.7758,8.6562 -42.5037,9.3953 -10.6966,0.6211 -23.799,-1.3186 -28.1457,-4.1666 -1.2211,-0.8001 -4.1532,-2.4348 -6.5158,-3.6325 -2.8605,-1.4502 -4.4822,-3.0129 -4.8545,-4.6777 -0.4326,-1.93531 -1.2834,-2.57081 -3.7664,-2.81321 -2.4753,-0.2417 -3.3531,-0.8934 -3.8456,-2.8555 -0.8738,-3.4816 1.5468,-8.1792 8.6169,-16.72262 11.6665,-14.09758 18.2495,-20.37108 22.5734,-21.51192 3.1059,-0.81948 4.4299,-1.84949 5.6404,-4.38802 1.7385,-3.64559 9.5423,-9.0856 29.2346,-20.37933 4.6324,-2.65669 5.2891,-3.57181 10.7527,-14.98447 7.5675,-15.8074 10.3245,-28.31764 9.3008,-42.20257 -0.9449,-12.81666 -10.0696,-40.27441 -22.1464,-66.64245 -15.9696,-34.86726 -28.3373,-57.48827 -35.8113,-65.5 -2.3089,-2.475 -5.9227,-6.975 -8.0307,-10 -2.1079,-3.025 -5.4812,-7.3 -7.4961,-9.5 -2.015,-2.2 -5.1662,-6.475 -7.0027,-9.5 -1.8364,-3.025 -4.9634,-7.525 -6.9487,-10 -1.9853,-2.475 -4.4547,-5.85 -5.4876,-7.5 -1.0328,-1.65 -4.8788,-6.375 -8.5467,-10.5 -3.6679,-4.125 -8.4245,-10.3747 -10.5704,-13.88823 -2.1458,-3.51352 -5.098,-7.27287 -6.5604,-8.35411 -1.4625,-1.08123 -5.2976,-5.56059 -8.5226,-9.95412 -13.8074,-18.81069 -30.074,-36.13474 -38.8635,-41.39015 -5.872,-3.51097 -6.1576,-3.57287 -13.3899,-2.90201 -4.0645,0.37702 -11.0395,1.75675 -15.5,3.06607 -4.4606,1.30932 -10.5851,2.39706 -13.6101,2.41719 -6.649,0.0443 -19.8485,3.31978 -40.5,10.05031 -3.3,1.0755 -6.9125,1.95537 -8.0277,1.95526 -1.1153,-1.2e-4 -5.3903,1.06116 -9.5,2.35838 -4.1098,1.29723 -10.1723,2.92631 -13.4723,3.62018 -5.603,1.17811 -17.6738,4.77532 -30.5,9.08925 -3.025,1.01742 -11.8,3.16523 -19.5,4.7729 -8.4525,1.76479 -15.9412,3.96043 -18.8989,5.54106 -3.2165,1.71892 -6.4791,2.62435 -9.5,2.63645 -4.7385,0.019 -18.8907,2.27263 -25.0941,3.99609 -1.9289,0.53588 -5.2674,0.97684 -7.4191,0.9799 -2.1517,0.003 -6.2017,0.6479 -9,1.43295 -5.2933,1.48501 -20.0241,3.57585 -25.1398,3.56826 -1.6215,-0.002 -9.0231,1.09773 -16.4481,2.44476 -14.9307,2.70869 -37.1469,4.50949 -64.4264,5.2223 -12.6521,0.33059 -18.7261,0.88192 -20.6443,1.87385 -2.4614,1.27287 -13.168,1.37522 -27.9293,0.26701 -1.375,-0.10323 -4.4125,-0.10126 -6.75,0.004 -4.1143,0.18594 -4.25,0.29884 -4.25,3.53552 0,5.42597 3.9126,15.45284 14.499,37.15655 5.5543,11.38723 12.5004,30.66474 12.5018,34.69617 4e-4,1.26711 1.3957,5.22883 3.1007,8.80383 1.705,3.575 4.1786,9.77337 5.497,13.77416 2.435,7.38907 6.0597,14.84806 11.4417,23.54462 2.891,4.67141 5.7929,12.69701 9.8282,27.18122 2.2557,8.09629 4.5271,14.73806 7.6949,22.5 1.2346,3.025 2.5506,7.525 2.9245,10 0.7259,4.80484 2.0498,10.56209 3.5877,15.60149 0.6912,2.26471 0.5489,4.05329 -0.5275,6.6293 -1.1135,2.66517 -1.3294,5.81917 -0.8825,12.89851 0.4698,7.44437 0.5008,41.89593 0.052,58.3707 -0.045,1.65 0.4403,8.39372 1.0783,14.98604 1.2521,12.93838 0.3534,26.55692 -2.3819,36.09323 -2.4577,8.5681 -14.4157,23.4208 -18.8564,23.4208 -3.3351,0 -7.2823,3.5226 -10.0357,8.9563 -1.3264,2.6174 -4.6685,6.7881 -7.427,9.2682 -5.0211,4.5144 -6.1408,4.9676 -22.5952,9.1455 -2.75,0.6983 -6.0445,1.8337 -7.3212,2.5231 -1.2766,0.6894 -7.1266,1.4861 -13,1.7704 l -10.6788,0.517 -4,-3.5711 c -4.7078,-4.2029 -9.1411,-4.7132 -13.5671,-1.5616 -4.0695,2.8977 -13.1332,4.2119 -19.9329,2.89 -11.7846,-2.2909 -14.5516,-4.1123 -13.332,-8.7761 0.5009,-1.9154 0.1613,-2.1617 -2.9799,-2.1617 -3.396,0 -6.6881,-2.0365 -6.6881,-4.1372 0,-1.8384 2.1836,-5.098 8.2071,-12.2509 3.2939,-3.9115 7.7589,-10.326 9.9223,-14.2544 4.7832,-8.6857 10.3689,-13.98021 23.0599,-21.85761 8.6705,-5.3817 9.8402,-6.4636 11.3522,-10.49996 0.9271,-2.475 2.6872,-6.075 3.9112,-8 3.3494,-5.26742 7.5416,-16.40716 7.5909,-20.17056 0.024,-1.83119 0.4164,-5.25775 0.8721,-7.61457 1.3006,-6.72621 -0.4781,-20.41781 -3.4022,-26.18827 -1.3824,-2.72806 -2.5135,-5.69046 -2.5135,-6.58311 0,-1.93144 -5.1065,-17.10599 -9.067,-26.94349 -1.5499,-3.85 -3.5765,-9.7 -4.5035,-13 -1.6923,-6.02426 -5.1815,-13.70063 -8.3869,-18.45114 -7.7897,-11.54486 -10.0027,-14.99881 -11.5556,-18.03535 -0.9806,-1.91757 -4.1265,-6.41757 -6.9909,-10 -2.8644,-3.58243 -6.7821,-8.98851 -8.7059,-12.01351 -1.9238,-3.025 -4.5278,-6.4 -5.7868,-7.5 -1.2589,-1.1 -4.2578,-4.925 -6.6642,-8.5 -6.169,-9.1651 -11.9774,-16.99584 -15.2057,-20.5 -1.52,-1.65 -3.5289,-4.125 -4.4642,-5.5 -0.9353,-1.375 -4.1476,-6.1 -7.1384,-10.5 -2.9908,-4.4 -7.7014,-10.7 -10.468,-14 -2.7666,-3.3 -8.8742,-11.04311 -13.5723,-17.20691 -8.5572,-11.22663 -10.1654,-12.95159 -11.1538,-11.9632 -0.5533,0.55328 -2.1226,16.75982 -2.8731,29.67011 -0.2398,4.125 -0.617,26.4 -0.8383,49.5 -0.2214,23.1 -0.8727,44.7 -1.4474,48 -0.589,3.38122 -1.0231,20.03437 -0.9947,38.15477 0.053,33.64508 -0.2163,36.51025 -4.7303,50.38487 -1.3492,4.14681 -2.453,8.53301 -2.453,9.74712 0,1.21411 -1.594,3.97188 -3.5423,6.12838 -1.9483,2.1565 -6.2296,9.18234 -9.514,15.613 -3.2845,6.43065 -6.8655,12.82823 -7.9577,14.21683 -1.0923,1.38861 -1.986,3.13776 -1.986,3.88701 0,0.74928 -1.5525,3.08068 -3.45,5.18098 -2.2443,2.4842 -4.3412,6.5491 -6.0004,11.632 -1.4028,4.29731 -3.8633,10.11771 -5.4678,12.93421 -1.6044,2.8165 -3.2267,6.9209 -3.6051,9.1209 -0.3783,2.2 -1.6951,5.575 -2.9261,7.5 -1.231,1.925 -2.7841,5.1594 -3.4513,7.1875 -0.6672,2.0282 -2.0223,4.7282 -3.0113,6 -0.9891,1.2719 -2.0964,3.8875 -2.4608,5.8125 -0.3644,1.925 -1.9967,5.525 -3.6274,8 -2.9849,4.5303 -9.9237,11.9796 -11.171,11.9929 -0.3692,0 -3.8321,2.9078 -7.6954,6.4532 -3.8633,3.5453 -8.5113,7.209 -10.3288,8.1414 -1.8175,0.9324 -4.3132,2.4808 -5.5459,3.441 -1.2327,0.9601 -3.9118,2.059 -5.9535,2.4421 -2.0417,0.383 -5.3081,1.497 -7.2587,2.4755 -1.9506,0.9785 -6.2465,2.0242 -9.5465,2.3238 -3.3,0.2995 -6.675,0.8123 -7.5,1.1393 -0.825,0.3271 -2.9625,-0.2995 -4.75,-1.3925 -2.6563,-1.6243 -3.25,-2.6186 -3.25,-5.443 0,-1.9006 -0.4598,-3.7399 -1.0218,-4.0872 -0.562,-0.3473 -5.1745,1.6859 -10.25002,4.5183 -8.5774,4.7867 -27.3002,12.0523 -30.7282,11.9244 -0.825,-0.031 -2.4,-0.4135 -3.5,-0.8506 z"
     id="path2987"
     inkscape:connector-curvature="0" />
</svg>
