<?xml version="1.0" encoding="UTF-8" standalone="no"?>
<!-- Created with Inkscape (http://www.inkscape.org/) -->

<svg
   xmlns:dc="http://purl.org/dc/elements/1.1/"
   xmlns:cc="http://creativecommons.org/ns#"
   xmlns:rdf="http://www.w3.org/1999/02/22-rdf-syntax-ns#"
   xmlns:svg="http://www.w3.org/2000/svg"
   xmlns="http://www.w3.org/2000/svg"
   xmlns:sodipodi="http://sodipodi.sourceforge.net/DTD/sodipodi-0.dtd"
   xmlns:inkscape="http://www.inkscape.org/namespaces/inkscape"
   id="svg2"
   version="1.1"
   inkscape:version="0.48.2 r9819"
   width="886"
   height="787.06366"
   sodipodi:docname="39088001578236_0105d.png">
  <metadata
     id="metadata8">
    <rdf:RDF>
      <cc:Work
         rdf:about="">
        <dc:format>image/svg+xml</dc:format>
        <dc:type
           rdf:resource="http://purl.org/dc/dcmitype/StillImage" />
        <dc:title></dc:title>
      </cc:Work>
    </rdf:RDF>
  </metadata>
  <defs
     id="defs6" />
  <sodipodi:namedview
     pagecolor="#ffffff"
     bordercolor="#666666"
     borderopacity="1"
     objecttolerance="10"
     gridtolerance="10"
     guidetolerance="10"
     inkscape:pageopacity="0"
     inkscape:pageshadow="2"
     inkscape:window-width="1600"
     inkscape:window-height="876"
     id="namedview4"
     showgrid="false"
     fit-margin-top="0"
     fit-margin-left="0"
     fit-margin-right="0"
     fit-margin-bottom="0"
     inkscape:zoom="1"
     inkscape:cx="430"
     inkscape:cy="362.91704"
     inkscape:window-x="0"
     inkscape:window-y="24"
     inkscape:window-maximized="1"
     inkscape:current-layer="svg2" />
  <path
     style="fill:#000000"
     d="m 695.3358,785.57943 -0.6014,-1.56721 1.1328,-1.13279 1.1328,-1.13278 0,-2.79153 0,-2.79152 -2,-1.24902 c -1.1,-0.68696 -2,-1.58402 -2,-1.99345 0,-0.40944 -1.3617,-2.95756 -3.0261,-5.66249 l -3.0261,-4.91805 -1.401,-0.53762 -1.401,-0.53761 -3.0818,1.16325 -3.0818,1.16325 -3.4911,-1.88008 -3.4911,-1.88007 0,-1.20298 c 0,-0.66164 -1.125,-2.86077 -2.5,-4.88694 l -2.5,-3.68396 0,-1.97464 0,-1.97464 -2.569,0.64478 -2.569,0.64478 -5.9202,-6.37573 -5.9201,-6.37573 -0.011,-1.25 -0.011,-1.25 -3.9291,0 -3.9292,0 -3.0708,-4.55013 c -1.689,-2.50257 -3.0709,-4.88964 -3.0709,-5.30458 0,-0.41495 -1.5933,-2.49395 -3.5407,-4.61999 l -3.5407,-3.86553 -2.1498,-0.15839 -2.1499,-0.15838 -0.7323,-1.4215 c -0.7247,-1.4068 -4.6827,-24.84432 -5.4495,-32.27023 -0.2186,-2.1168 -1.1301,-7.5168 -2.0254,-12 -0.8953,-4.4832 -2.0066,-10.17627 -2.4694,-12.65127 -0.4629,-2.475 -1.5258,-7.425 -2.3622,-11 -0.8363,-3.575 -2.0104,-8.75 -2.6091,-11.5 -0.5987,-2.75 -1.988,-8.0375 -3.0874,-11.75 l -1.9989,-6.75 -1.3927,0 -1.3926,0 -0.7997,-1.32541 c -0.4398,-0.72898 -1.5448,-1.59857 -2.4554,-1.93243 l -1.6557,-0.60702 -0.6998,-3.31757 c -0.3849,-1.82466 -1.2877,-4.66757 -2.0063,-6.31757 -0.7186,-1.65 -2.0466,-5.33001 -2.9509,-8.1778 l -1.6444,-5.1778 -2.7324,-3.8222 c -1.5028,-2.10221 -4.7006,-7.6472 -7.1061,-12.3222 -2.4055,-4.675 -5.4255,-9.89248 -6.7112,-11.59439 l -2.3375,-3.09439 0,-1.63302 0,-1.63302 -6.25,-10.01076 c -3.4375,-5.50592 -7.6,-12.41969 -9.25,-15.36393 -7.7664,-13.85821 -8.8092,-15.56843 -9.3845,-15.39095 -0.3385,0.10443 -3.2513,-1.32641 -6.4728,-3.17964 l -5.8574,-3.3695 -5.0212,-4.8652 c -4.8583,-4.7074 -6.5527,-5.95028 -5.2597,-3.85814 l 0.6224,1.00707 -1.4826,0.56892 -1.4826,0.56892 -2.8308,-1.77332 c -2.9187,-1.82841 -7.2369,-5.51884 -10.162,-8.68478 -0.9179,-0.99337 -3.1979,-2.97959 -5.0668,-4.41381 l -3.3981,-2.60768 0.537,9.41381 0.537,9.41381 -0.9065,6.40258 -0.9065,6.40259 -1.6494,1.20606 -1.6494,1.20607 -0.3407,2.39135 c -0.1874,1.31524 -1.0967,3.82053 -2.0206,5.56731 l -1.6799,3.17596 -3.6455,0.92535 -3.6456,0.92534 -3.007,-0.44134 -3.007,-0.44133 -3.0494,-7.65997 c -1.6772,-4.21298 -3.7276,-9.90997 -4.5565,-12.65997 -6.1524,-20.41133 -7.634,-25.84197 -8.7307,-32 -0.3918,-2.2 -1.7097,-7.73675 -2.9286,-12.30388 l -2.2162,-8.30388 -4.5405,-4.19612 c -2.4973,-2.30787 -7.5234,-6.2139 -11.1692,-8.68008 -3.6458,-2.46618 -7.5287,-5.39681 -8.6287,-6.51252 -2.3477,-2.38124 -11.4926,-9.78244 -11.5163,-9.32047 -0.01,0.17432 -0.4328,5.35127 -0.9419,11.50433 l -0.9257,11.18738 -1.5523,3.00192 -1.55238,3.00191 -2.22821,1.56071 -2.22822,1.5607 -2.72548,0 -2.72547,0 1.07832,3.09328 1.07832,3.09327 -1.14953,3.8368 -1.14953,3.8368 -5.26268,5.31993 c -6.23227,6.30006 -9.34757,8.83795 -10.02149,8.16403 -0.27038,-0.27037 -1.77091,0.13399 -3.33452,0.89858 l -2.84293,1.39016 -6.78381,-0.22204 -6.78382,-0.22205 -1.21618,-1.00199 c -0.66891,-0.55109 -3.69413,-1.45803 -6.72273,-2.01542 -3.02859,-0.55739 -7.52859,-1.71742 -10,-2.57784 -2.4714,-0.86042 -5.29978,-1.57095 -6.28527,-1.57896 l -1.79152,-0.0145 -2.03178,-1.89289 -2.03178,-1.8929 -7.17641,-2.61192 c -3.94702,-1.43656 -7.78339,-2.60976 -8.52527,-2.60711 -0.74188,0.003 -2.76688,-0.64222 -4.5,-1.43305 C 314.12397,467.64303 300.93991,463.33697 298,462.9639 l -2.5,-0.31725 -0.58794,8.5 c -0.5951,8.60359 -2.38465,18.06031 -4.0187,21.23643 -0.49135,0.95504 -0.89336,2.54739 -0.89336,3.53856 0,0.99117 -0.9,3.56742 -2,5.72501 -1.1,2.15759 -2,4.27773 -2,4.71144 l 0,0.78856 1.52475,0 1.52475,0 0.97525,2.5651 C 290.56114,511.12255 291,513.001 291,513.88606 l 0,1.60922 -2.27309,-2.13546 -2.27309,-2.13545 -1.42118,3.21114 c -0.78166,1.76613 -2.23377,4.08349 -3.22691,5.1497 -0.99315,1.06621 -1.80573,2.44328 -1.80573,3.06016 0,0.61688 -1.26459,2.44453 -2.81021,4.06144 -1.54561,1.61691 -4.13311,4.73984 -5.75,6.93984 -1.61688,2.2 -3.50229,4.59464 -4.18979,5.32143 -0.6875,0.72678 -1.25,1.73928 -1.25,2.25 l 0,0.92857 -1.38499,0 -1.38499,0 -1.53928,2.25 c -0.8466,1.2375 -2.58585,3.41564 -3.86501,4.84032 l -2.32573,2.59031 -4.95307,0.66839 c -5.22397,0.70494 -11.69589,2.67429 -12.56045,3.82203 l -0.51352,0.68172 -5.98648,0.0348 c -10.59606,0.0616 -13.8697,-0.11003 -19.98648,-1.04817 -3.3,-0.50612 -8.344,-1.07629 -11.20889,-1.26704 l -5.2089,-0.34681 -1.71114,2.61154 c -0.94113,1.43635 -2.53463,3.49544 -3.54111,4.57577 C 188.82348,562.63987 188,564.09156 188,564.78552 l 0,1.26175 -1.35764,0.79969 c -1.52813,0.90011 -12.81116,15.52944 -17.23056,22.34078 -1.5912,2.4524 -3.172,4.68391 -3.51291,4.95891 -0.3409,0.275 -1.407,2.03566 -2.36911,3.91257 -0.9621,1.87691 -3.32224,5.02691 -5.24475,7 l -3.49548,3.58743 -2.01538,4.27229 -2.01537,4.27228 -2.51426,1.97772 c -1.38284,1.08774 -3.10859,1.97771 -3.83499,1.97771 -0.7264,0 -2.86252,1.04629 -4.74694,2.32509 -1.88441,1.27879 -6.34272,3.77538 -9.90734,5.54797 -3.56463,1.77259 -7.33032,4.00313 -8.3682,4.95676 -1.03789,0.95362 -3.68707,2.80483 -5.88707,4.11379 -2.2,1.30896 -4.9,3.16418 -6,4.12271 -1.1,0.95853 -4.22829,2.97588 -6.95174,4.483 l -4.95175,2.74021 -0.38111,-1.14333 -0.38111,-1.14334 -4.16715,0.66188 -4.16714,0.66187 -1,1.19341 c -0.55,0.65638 -3.025,1.98057 -5.5,2.94266 -2.475,0.96208 -5.625,2.2219 -7,2.79959 -1.375,0.57769 -3.33258,0.94409 -4.35017,0.81421 l -1.85017,-0.23614 -3.14983,1.2642 c -1.73241,0.69531 -4.71679,2.30623 -6.63196,3.57983 l -3.48214,2.31563 -1.86665,0 -1.86666,0 -3.02585,3.25 c -1.66421,1.7875 -4.20725,4.03453 -5.65121,4.99341 l -2.62536,1.74341 -1.82143,0.007 -1.82143,0.007 -1.46707,-1.46707 -1.46706,-1.46707 -4.71151,2.93205 c -2.59132,1.61263 -6.2865,4.29676 -8.2115,5.96473 -1.925,1.66797 -3.76563,3.03372 -4.09029,3.03501 -0.32465,10e-4 -1.1751,2.44014 -1.88987,5.41966 -0.71478,2.97952 -1.68665,6.01702 -2.15972,6.75 L 12,695.64665 l -0.98527,-1.5 -0.98527,-1.5 0.6141,-4.75 0.6141,-4.75 -1.18785,0 -1.18784,0 0.48799,0.78959 0.48799,0.78959 -2.9261,1.96041 c -1.60935,1.07823 -2.92739,2.29791 -2.92897,2.71041 l -0.00288,0.75 -2,0 -2,0 0,-1.77749 c 0,-2.54726 2.66638,-5.99863 5.94353,-7.69331 l 2.82213,-1.45938 0.60389,-2.40609 0.60389,-2.4061 3.26328,-2.45011 c 4.37131,-3.28204 14.76245,-8.80752 16.56331,-8.80752 l 1.44486,0 -1.26922,-1.52932 -1.26922,-1.52931 2.12976,-2.26702 2.12975,-2.26702 4.95736,-1.78264 c 2.72655,-0.98046 6.89671,-1.98378 9.26702,-2.22961 2.37031,-0.24584 5.20966,-0.82927 6.30966,-1.29651 1.1,-0.46725 3.25867,-1.35558 4.79705,-1.97406 l 2.79706,-1.12451 3.75294,0 3.75295,0 1.20377,-1.20377 1.20378,-1.20378 4.599,-1.16773 4.59901,-1.16774 3.64722,0.82311 3.64722,0.82311 2,-2.31075 c 2.23148,-2.57819 12.8329,-9.32852 19.77615,-12.59223 2.49221,-1.17148 5.31936,-3.00077 6.28256,-4.06509 0.96319,-1.06432 2.12638,-1.93513 2.58485,-1.93513 0.86917,0 2.07534,-0.91891 9.73727,-7.4183 l 4.61917,-3.91831 -0.2632,-1.19829 -0.2632,-1.1983 1.5132,-1.25584 c 0.83226,-0.69072 1.5132,-1.7675 1.5132,-2.39286 l 0,-1.13701 1.84078,-1.14958 c 1.01243,-0.63227 5.03351,-5.57802 8.93573,-10.99055 3.90222,-5.41253 9.49768,-12.38146 12.43434,-15.48651 2.93666,-3.10505 5.99154,-6.93005 6.78862,-8.5 1.39305,-2.7438 10.41714,-14.03119 12.49431,-15.62796 l 1.00622,-0.77351 -2.69238,0.31638 -2.69238,0.31638 -1.90571,1.72464 -1.90571,1.72464 -8.65191,-0.66504 L 152,554.8516 l 0,-0.72748 0,-0.72747 3.125,-0.625 c 1.71875,-0.34375 5.48865,-0.625 8.37756,-0.625 l 5.25255,0 1.19154,-1.43572 1.19155,-1.43572 2.9309,-0.64374 c 3.30488,-0.72587 3.4718,-1.18591 1.41604,-3.90278 l -1.45125,-1.91795 1.1055,-1.33205 c 0.60802,-0.73262 1.49436,-1.33204 1.96963,-1.33204 l 0.86414,0 1.52595,3.65211 1.52595,3.65212 3.44387,-3.90212 c 1.89413,-2.14616 4.65913,-6.2588 6.14445,-9.13919 1.48532,-2.88039 3.52994,-5.98764 4.5436,-6.90499 L 197,525.83667 l 0,-1.34501 c 0,-0.73975 0.35369,-1.34501 0.78597,-1.34501 0.43228,0 3.15453,-4.18562 6.04943,-9.30137 l 5.26347,-9.30137 3.94918,-4.44863 c 2.17205,-2.44675 3.9498,-4.79152 3.95057,-5.21062 0.002,-0.85931 5.28119,-9.18636 15.68472,-24.73801 2.02362,-3.025 4.73156,-7.45295 6.01765,-9.83989 l 2.33833,-4.33988 -1.26966,0.40458 c -0.69831,0.22251 -1.71387,1.38796 -2.25679,2.58988 l -0.98713,2.18531 -2.5687,0 c -1.41278,0 -5.24357,0.84988 -8.51287,1.88863 -3.26929,1.03874 -9.76917,2.45151 -14.44417,3.13947 l -8.5,1.25084 -2.76219,1.93731 -2.7622,1.9373 -3.2378,-0.69721 c -1.7808,-0.38347 -4.36281,-1.2652 -5.73781,-1.9594 -1.375,-0.6942 -6.55,-2.04677 -11.5,-3.00571 -4.95,-0.95894 -10.51365,-2.36017 -12.36367,-3.11384 -3.16862,-1.29086 -7.39013,-2.16393 -21.63633,-4.47469 -12.54333,-2.03455 -19.18618,-2.80168 -24.69098,-2.85135 l -5.69099,-0.0513 -0.61803,-1 -0.61803,-1 -7.03986,0 -7.03985,0 -3.28034,-1.55662 -3.28035,-1.55663 -9.46383,-9.85273 -9.46383,-9.85274 -1.77011,-3.73023 c -2.42479,-5.10986 -7.50278,-11.72233 -14.93726,-19.45105 -3.4389,-3.575 -7.27117,-7.85 -8.51614,-9.5 -1.24498,-1.65 -5.98975,-6.87755 -10.54395,-11.61678 l -8.28035,-8.61678 -0.71631,-3.38322 c -0.39397,-1.86077 -0.94358,-5.96609 -1.22135,-9.12294 l -0.50505,-5.73971 3.08831,-6.33931 C 29.61026,349.34129 31,346.04585 31,345.50471 c 0,-0.54113 1.26212,-2.19307 2.80472,-3.67097 l 2.80472,-2.68709 1.26102,0 c 0.69356,0 2.24394,-0.53828 3.44528,-1.19617 l 2.18426,-1.19617 5,-0.32972 c 2.75,-0.18135 6.0125,-0.55164 7.25,-0.82288 l 2.25,-0.49316 0,-4.28982 0,-4.28982 1.35894,-1.85846 1.35894,-1.85846 17.39106,-0.0485 17.39106,-0.0485 9,2.62149 c 4.95,1.44182 14.32184,4.48715 20.82631,6.7674 l 11.82631,4.14591 7.83042,3.94838 c 4.30673,2.17161 8.0996,3.94838 8.42859,3.94838 0.329,0 2.90702,1.11382 5.72895,2.47517 l 5.13077,2.47516 0.75954,-0.46942 0.75954,-0.46942 0.55606,1.44907 0.55607,1.44908 3.79872,1.90518 c 2.0893,1.04785 7.84872,3.40617 12.79872,5.2407 4.95,1.83454 9.225,3.62899 9.5,3.98767 0.62908,0.82051 13.09627,3.67974 18.75,4.30014 l 4.25,0.46636 0,-0.68905 c 0,-0.37897 -2.6926,-2.02365 -5.98355,-3.65484 -3.29095,-1.63119 -5.99095,-3.3033 -6,-3.7158 l -0.0164,-0.7499 -1.75,-0.0664 -1.75,-0.0664 -4.5,-3.38732 c -2.475,-1.86302 -6.975,-5.07689 -10,-7.14192 -3.025,-2.06504 -6.3842,-4.57191 -7.46489,-5.57083 l -1.96489,-1.81621 -1.28511,0.49315 -1.28511,0.49314 0,-1.46861 0,-1.46862 -1.20103,0 -1.20104,0 -6.09324,-6.30672 c -3.35129,-3.46869 -7.17664,-7.85619 -8.50079,-9.75 -1.32415,-1.8938 -2.67964,-3.66828 -3.0122,-3.94328 -0.33256,-0.275 -3.00386,-4.43965 -5.93622,-9.25478 l -5.33156,-8.75478 -0.34842,-2.24522 c -0.19163,-1.23485 -0.63072,-3.5952 -0.97577,-5.2452 l -0.62735,-3 -2.66283,-3.5 c -1.46455,-1.925 -3.28429,-4.85 -4.04386,-6.5 l -1.38104,-3 -0.71205,-11.55759 -0.71205,-11.55759 -3.9253,-5.18622 -3.9253,-5.18621 -6.95497,-3.50312 -6.95498,-3.50311 -6.05887,-0.003 -6.05887,-0.003 -1.63516,-1.25 -1.63516,-1.25 -0.30597,-3.42299 -0.30597,-3.42299 -1.15891,-0.37998 -1.15891,-0.37998 -0.71963,3.27647 c -1.30221,5.92888 -7.53412,13.98653 -13.57923,17.55746 l -2.72659,1.61064 -1.3051,2.4386 -1.30509,2.43859 0.0808,4.14209 c 0.0445,2.27815 0.4266,6.02368 0.84919,8.32341 l 0.76833,4.18131 -4.62517,6.95725 -4.62517,6.95725 -0.60145,3.00727 -0.60145,3.00727 2.2517,2.2517 2.25171,2.25171 3.17346,-1.14754 c 1.74545,-0.63131 3.92906,-1.1477 4.85251,-1.1477 l 1.679,0 0,1.82174 0,1.82175 -4.81975,2.17825 -4.81976,2.17826 -3.68024,0 -3.68025,0 0,-0.92857 c 0,-0.51072 -0.7875,-1.71587 -1.75,-2.67812 l -1.75,-1.74954 -0.10619,-5.57189 -0.10618,-5.57188 0.97863,-1.25 0.97863,-1.25 -1.51404,0 -1.51403,0 -0.65389,2.6053 -0.65389,2.60531 0.65902,4.39469 0.65903,4.3947 -4.04616,0 -4.04615,0 -0.57473,-1.81079 -0.57472,-1.81079 -3.82868,-1.68921 c -2.10578,-0.92906 -4.47325,-1.68921 -5.26105,-1.68921 l -1.43237,0 -1.705,-2.75 -1.70501,-2.75 -0.0266,1.43428 c -0.0146,0.78885 0.91818,3.38594 2.07292,5.77132 l 2.09952,4.33704 3.65048,3.73062 c 2.00776,2.05184 4.28865,4.96657 5.06864,6.47717 l 1.41818,2.74656 -0.62107,0.62107 -0.62107,0.62106 -3.29711,-2.07753 c -1.8134,-1.14265 -4.71968,-2.73181 -6.45838,-3.53147 l -3.16128,-1.45393 -1.70266,-3.58809 c -0.93647,-1.97346 -2.00564,-3.5881 -2.37593,-3.5881 -0.37029,0 -0.73975,-0.88283 -0.82103,-1.96185 -0.0813,-1.07901 -0.89762,-3.54201 -1.81409,-5.47332 L 23.79743,283.2 l 0.69968,-6.02847 0.69968,-6.02847 0.87651,-0.54171 0.87651,-0.54172 -0.59442,-4.70649 -0.59442,-4.70649 -2.44004,-4.48251 -2.44004,-4.4825 0.13543,-6.5175 c 0.0745,-3.58462 0.0892,-9.21749 0.0328,-12.51749 l -0.10267,-6 -4.9239,-5.32984 -4.9239,-5.32984 -0.67846,-4.52428 -0.67846,-4.52427 0.54549,-5.28525 0.54548,-5.28525 3.58584,-5.40066 3.58583,-5.40066 5.24784,-3.14087 5.24784,-3.14086 5,-0.76131 c 2.75,-0.41872 5.77247,-0.64908 6.71659,-0.51191 l 1.71659,0.2494 0.61693,-2.8072 c 0.33932,-1.54396 0.78732,-3.36211 0.99556,-4.04034 l 0.37862,-1.23314 1.53786,0.59013 1.53785,0.59013 0,1.81122 c 0,0.99617 -0.27314,2.52303 -0.60699,3.39301 l -0.60704,1.58179 -1.39301,0 c -3.07458,0 -0.98569,1.68687 6.61638,5.34299 L 59,187.33263 l 0,0.90701 0,0.90701 1.55202,0 1.55202,0 1.04791,-3.00603 1.0479,-3.00603 2.44665,-0.61406 2.44664,-0.61407 0.63508,0.63507 0.63507,0.63508 -3.36329,3.47004 -3.36329,3.47004 0.68164,0.68165 0.68165,0.68164 0,-0.70185 0,-0.70185 2.22923,1.19305 c 1.22607,0.65617 3.50234,1.34128 5.05837,1.52245 l 2.82914,0.3294 4.72496,-2.39431 4.72496,-2.39432 6.18718,-1.21725 6.18719,-1.21726 12.03425,0.42907 12.03424,0.42906 1.19524,1.19524 1.19524,1.19524 2.12759,0 c 3.10893,0 13.98562,4.62715 20.15811,8.57564 2.94422,1.8834 5.86442,3.42436 6.48933,3.42436 0.6249,0 2.52866,1.05673 4.23058,2.34829 1.70191,1.29156 4.75133,2.89138 6.77648,3.55514 l 3.68209,1.20685 5.06791,0.11544 5.06791,0.11544 0,0.76815 0,0.76814 4.75,0.62448 c 6.59526,0.86707 14.25,2.75062 14.25,3.5064 0,0.34663 3.4875,2.13996 7.75,3.98519 4.2625,1.84522 8.94447,4.17655 10.40437,5.18072 1.4599,1.00417 2.99334,1.82576 3.40763,1.82576 0.41429,0 3.04482,1.74867 5.84563,3.88594 2.8008,2.13727 7.06816,4.87871 9.48301,6.09208 2.41486,1.21337 5.2482,3.00506 6.29631,3.98152 1.04811,0.97646 3.42988,2.59624 5.29282,3.5995 l 3.38716,1.82411 0.49232,1.88264 0.49232,1.88264 2.07422,0.54241 2.07421,0.54242 0,1.05004 0,1.05003 0.60656,-0.60655 0.60655,-0.60656 1.14345,0.92482 c 4.98548,4.03224 7.48793,5.83603 9.64344,6.95109 1.375,0.71129 4.075,2.52453 6,4.02942 1.925,1.50488 5.19963,3.6889 7.27697,4.85336 2.07733,1.16447 5.99212,3.80559 8.69954,5.86915 11.6194,8.85618 22.22218,15.73874 29.77152,19.3255 2.33642,1.11006 5.45712,3.13884 6.9349,4.5084 l 2.68688,2.49011 1.31509,-0.50465 1.3151,-0.50465 0,0.83205 0,0.83205 6.25,2.76244 c 3.4375,1.51933 9.175,4.12036 12.75,5.78004 3.575,1.65969 7.4,3.35717 8.5,3.77218 1.1,0.415 3.70467,1.50469 5.78815,2.42153 2.08349,0.91684 4.78349,1.73603 6,1.82041 l 2.21185,0.15343 1.93856,1.78155 c 1.06621,0.97985 2.47727,1.78155 3.13569,1.78155 0.65843,0 2.26107,0.5785 3.56144,1.28556 l 2.36431,1.28556 0.31633,1.46444 c 0.17398,0.80544 0.89207,2.05396 1.59575,2.77448 l 1.27943,1.31004 7.40424,2.04942 c 4.07234,1.12718 8.41377,2.04795 9.64763,2.04616 l 2.24339,-0.003 -0.46067,0.74538 -0.46067,0.74538 6.21728,1.82016 6.21729,1.82016 14.2896,7.32826 c 7.8593,4.03054 14.4968,7.32826 14.75,7.32826 0.2532,0 0.4604,-0.6789 0.4604,-1.50866 l 0,-1.50866 2.6653,-2.99134 2.6653,-2.99134 2.7696,0 c 1.5233,0 3.9229,0.4385 5.3326,0.97444 l 2.5629,0.97443 6.2532,6.27557 c 3.4392,3.45156 6.8912,7.51306 7.6711,9.02556 0.7799,1.5125 1.8071,2.75 2.2827,2.75 0.4756,0 1.7663,1.52806 2.8683,3.39569 l 2.0035,3.3957 3.4602,0.64915 c 3.4132,0.64032 12.1619,4.33969 14.6743,6.20504 0.7101,0.52716 4.441,2.01669 8.291,3.31007 3.85,1.29338 8.125,2.91045 9.5,3.59349 1.375,0.68303 3.625,1.4014 5,1.59637 1.375,0.19497 2.7673,0.71747 3.094,1.16111 0.5974,0.81123 17.1583,6.8516 22.0042,8.02574 l 2.5981,0.62953 1.0814,-2.37346 c 0.5948,-1.3054 3.8132,-5.54734 7.1519,-9.42655 3.3387,-3.8792 6.0704,-7.49725 6.0704,-8.0401 l 0,-0.987 2,-0.63478 c 1.1,-0.34913 2,-0.97539 2,-1.39169 0,-0.98109 11.9996,-13.33776 19.1095,-19.67824 10.6777,-9.52209 12.0616,-10.58086 17.5528,-13.42989 l 5.537,-2.87278 3.4003,1.62151 c 1.8702,0.89183 3.4004,1.98817 3.4004,2.4363 l 0,0.81479 1.8333,0 c 1.0084,0 2.1709,0.3375 2.5834,0.75 0.4125,0.4125 1.1647,0.75 1.6716,0.75 0.5068,0 3.6486,2.69379 6.9816,5.98621 l 6.06,5.9862 5.2828,8.0138 5.2829,8.01379 3.3387,7.5 c 1.8362,4.125 4.0023,8.2906 4.8134,9.25689 1.6944,2.0186 2.6023,3.51679 6.3833,10.53344 1.502,2.78747 3.1404,5.32115 3.6407,5.6304 0.5004,0.30924 2.1334,2.92859 3.6289,5.82077 1.4955,2.89217 3.7298,6.6085 4.965,8.2585 1.2352,1.65 3.1919,4.8577 4.3483,7.12821 l 2.1025,4.12822 4.5159,3.97507 4.5159,3.97508 5.2759,1.59521 c 2.9018,0.87736 10.2138,3.39301 16.2489,5.59034 6.0352,2.19733 11.1362,3.83198 11.3356,3.63256 0.1995,-0.19942 1.4642,0.59519 2.8105,1.76581 l 2.4479,2.12839 10.7165,3.7599 c 5.8941,2.06795 12.2915,4.61886 14.2165,5.6687 1.925,1.04984 5.2082,2.45536 7.296,3.12339 l 3.796,1.21458 2.4967,3.95504 2.4967,3.95504 1.5664,0.60108 c 0.8615,0.3306 2.6779,1.63115 4.0363,2.89013 l 2.4699,2.28905 3.1313,0.68773 c 4.0052,0.8797 10.0398,4.01975 11.9627,6.22467 0.821,0.94149 2.2634,3.37169 3.2052,5.40044 l 1.7125,3.68864 5.6651,0.69031 5.6652,0.6903 4,1.99378 c 4.2818,2.13421 7.5,5.01197 7.5,6.70652 l 0,1.04181 2.25,0.0145 c 4.0487,0.0262 19.6694,6.21974 20.5548,8.14992 l 0.3049,0.66447 2.9991,-0.86013 2.9991,-0.86014 2.8807,0.36458 c 1.5844,0.20051 6.8476,1.34713 11.6961,2.54804 l 8.8153,2.18346 4.6665,2.31443 4.6666,2.31443 0.5834,-0.58347 0.5835,-0.58347 0,1.16666 0,1.16667 1.5,0 1.5,0 0,1.88342 0,1.88343 -2.75,0.54338 -2.75,0.54339 -2.1318,-1.37242 -2.1318,-1.37242 -8.8682,-1.66434 -8.8682,-1.66434 -6.5,0.64471 -6.5,0.64472 -1.25,1.65636 c -1.8664,2.47319 -1.5727,2.99099 2.0862,3.67741 l 3.3363,0.62588 3.1637,2.82461 3.1638,2.82461 0,1.34635 0,1.34635 -2.1743,2.31445 -2.1743,2.31445 1.2524,0 c 0.6889,0 4.7048,1.63537 8.9243,3.63415 l 7.6719,3.63414 3.25,3.06202 3.25,3.06202 0,2.80384 0,2.80383 -1.3604,0 c -0.7483,0 -3.0153,-1.12296 -5.0378,-2.49547 -2.0225,-1.3725 -5.3211,-3.33879 -7.3302,-4.36952 l -3.6529,-1.87407 -1.5593,3.11953 -1.5594,3.11932 -6.5,0.7922 -6.5,0.7922 -8.4922,-0.61402 c -4.6707,-0.33771 -10.7166,-1.03586 -13.4353,-1.55145 l -4.943,-0.93743 -0.6274,1.01518 -0.6275,1.01519 -5.9373,1.62766 c -3.2655,0.89522 -7.0623,1.76412 -8.4373,1.9309 -1.375,0.16677 -5.875,1.28343 -10,2.48145 l -7.5,2.17822 -11.1464,0.3741 -11.1465,0.37409 -4.5834,-0.85628 -4.5835,-0.85629 -4.8834,0.88758 c -2.6858,0.48817 -10.1175,1.22301 -16.5148,1.63297 l -11.6314,0.74538 -0.2553,-0.73903 -0.2553,-0.73903 -8.5,-0.64347 -8.5,-0.64346 -3,-1.31106 c -1.65,-0.72108 -5.1128,-2.24358 -7.6951,-3.38333 -2.5824,-1.13975 -4.9534,-2.07227 -5.2691,-2.07227 l -0.5739,0 0.6275,2.5 0.6274,2.5 -3.8584,-0.0439 -3.8584,-0.0439 -4,-1.51698 c -3.7223,-1.41168 -9.4249,-3.06458 -18.9098,-5.48102 -2.1504,-0.54785 -5.9754,-1.83027 -8.5,-2.84982 -9.3383,-3.77122 -11.619,-4.52704 -12.8402,-4.25509 l -1.25,0.27837 0,-0.85862 c 0,-0.47224 -1.4925,-1.57034 -3.3166,-2.44022 l -3.3167,-1.58159 -2.4402,0.46647 -2.4402,0.46647 -7.9931,-2.11064 c -4.3963,-1.16085 -9.4607,-2.79087 -11.2543,-3.62226 l -3.261,-1.51163 -0.989,0.61119 -0.9889,0.61119 0,-1.4506 0,-1.45061 -2.5171,-0.63175 c -1.3843,-0.34745 -5.0217,-2.23393 -8.0829,-4.19217 -3.0612,-1.95823 -5.772,-3.35424 -6.024,-3.10223 -0.252,0.25201 0.6853,1.81716 2.0829,3.47812 1.3976,1.66096 2.5411,3.33549 2.5411,3.7212 0,0.3857 0.8473,1.89574 1.8829,3.35564 1.8938,2.66966 4.5673,7.2485 8.5566,14.65437 5.1414,9.54459 11.0326,18.76402 14.1997,22.22167 l 3.4155,3.72889 1.1309,3.77472 1.131,3.77472 0.7743,0 c 0.4259,0 1.0833,1.0125 1.4609,2.25 0.3776,1.2375 1.4732,4.05 2.4347,6.25 0.9615,2.2 2.0415,5.2375 2.3999,6.75 l 0.6517,2.75 -1.519,0 -1.5191,0 0.036,2.25 c 0.02,1.2375 0.727,4.95 1.572,8.25 0.845,3.3 2.1566,9.6 2.9147,14 0.7581,4.4 1.9103,9.8 2.5604,12 0.6501,2.2 1.2831,5.57847 1.4066,7.50771 0.2652,4.14437 3.9727,25.65307 6.0637,35.17828 0.8072,3.6773 1.7492,8.7398 2.0933,11.25 l 0.6255,4.56401 1.0308,0 1.0307,0 -0.6108,0.61086 -0.6109,0.61086 5.0642,6.13914 c 2.7854,3.37653 6.3875,7.45669 8.0048,9.06702 l 2.9405,2.92788 0.5343,2.67154 0.5344,2.67153 3.8171,1.6841 3.8171,1.68411 4.2116,3.96648 c 2.3164,2.18157 4.606,3.96649 5.088,3.96649 l 0.8764,0 0,2.07946 0,2.07945 3.0353,-0.66665 3.0352,-0.66666 3.2148,3.4636 3.2147,3.46361 2.1859,0.67062 2.1858,0.67062 5.8142,5.42336 c 3.1977,2.98285 6.1516,5.43668 6.5641,5.45297 0.4125,0.0163 0.75,0.70462 0.75,1.52962 l 0,1.5 1,0 1,0 0,1.52475 0,1.52475 2.75,1.04186 c 1.5125,0.57303 3.7625,1.99033 5,3.14957 l 2.25,2.1077 0,1.32568 0,1.32569 -1.5497,0 c -0.8523,0 -2.9116,-0.70429 -4.5762,-1.56508 l -3.0265,-1.56509 -2.4136,1.58145 -2.4136,1.58145 0.3533,3.22714 0.3533,3.22714 -1.4785,2.2565 c -1.7317,2.64292 -3.0723,2.8791 -3.9127,0.68927 z m -462.12349,-237.48315 3.95721,-3.18011 0.9925,0.9925 0.99251,0.99251 3.17273,-0.80976 c 1.74501,-0.44536 4.14496,-1.10708 5.33323,-1.47048 l 2.16048,-0.66074 6.28685,-8.11059 c 3.45777,-4.46082 7.781,-9.42247 9.60718,-11.02588 l 3.32033,-2.91528 3.58382,-6.40848 3.58382,-6.40847 -0.5488,-2.22243 -0.5488,-2.22242 3.01584,-14.5 c 4.40734,-21.19027 4.75361,-23.13867 4.81918,-27.1163 l 0.0596,-3.61631 -9.75,-0.58485 c -5.3625,-0.32167 -10.58772,-0.71933 -11.61161,-0.8837 l -1.86161,-0.29884 -1.13839,1.94542 c -0.62611,1.06998 -1.96508,2.86998 -2.97547,4 -1.0104,1.13002 -2.76162,3.85458 -3.89161,6.05458 -1.12999,2.2 -3.3408,5.56503 -4.91292,7.47784 -1.57211,1.91282 -2.85839,3.83041 -2.85839,4.26131 0,0.43091 -1.73388,3.36588 -3.85307,6.52216 -2.11919,3.15628 -4.90205,7.65119 -6.18414,9.98869 -1.28209,2.3375 -2.64935,4.25 -3.03835,4.25 -0.389,0 -1.39785,1.72591 -2.24189,3.83537 -0.84403,2.10945 -2.62131,5.14695 -3.9495,6.75 -1.32819,1.60304 -3.59647,4.95357 -5.04063,7.4456 -1.44416,2.49203 -4.02201,5.86703 -5.72856,7.5 l -3.10282,2.96903 -1.54446,3.25 -1.54446,3.25 -0.88606,0 c -0.48732,0 -0.88605,0.42744 -0.88605,0.94987 0,0.52243 -1.35,2.95019 -3,5.39502 -3.53485,5.23766 -3.61303,5.65511 -1.05902,5.65511 l 1.94099,0 0.65065,1.05279 0.65066,1.05278 1.15836,-0.38612 1.15836,-0.38612 0,-1.33333 0,-1.33333 1.1875,-0.39584 1.1875,-0.39583 2.19731,2.19731 2.1973,2.1973 0.91489,-1.6348 0.91488,-1.63481 2.0177,0 2.0177,0 -0.65029,2.04886 -0.65028,2.04886 5.21044,-0.48399 5.21044,-0.484 3.95722,-3.1801 z m 144.30986,-88.90588 -2.59337,-5.11778 -0.90431,0.5589 -0.90431,0.55889 -2.81009,-3.72734 c -2.47566,-3.28373 -18.1165,-19.83873 -29.93374,-31.68325 -4.43574,-4.44599 -13.40024,-12.22843 -16.7914,-14.5773 -2.06216,-1.42834 -5.19716,-4.62618 -5.78244,-5.89833 -0.16638,-0.36165 -2.55251,-2.3782 -5.30251,-4.48123 l -5,-3.82368 -0.73059,4.82368 c -0.40183,2.65303 -1.37439,10.03568 -2.16124,16.40589 -0.78686,6.37021 -2.19066,14.61264 -3.11956,18.31652 -0.92889,3.70388 -1.48685,6.93637 -1.23991,7.18332 0.24695,0.24694 4.45452,1.75048 9.35015,3.3412 8.18583,2.65978 17.39856,6.20193 24.90115,9.57412 1.65,0.74163 4.32001,1.6776 5.93335,2.07995 1.61334,0.40235 4.08834,1.33428 5.5,2.07095 1.41166,0.73668 3.24165,1.34242 4.06665,1.34608 0.825,0.004 3.94272,0.93509 6.92828,2.06983 l 5.42827,2.06316 2.40551,-0.60375 2.40552,-0.60374 -0.64281,1.04008 -0.6428,1.04008 1.55901,0 1.55902,0 0,1 0,1 4,0 4,0 0,1.41667 0,1.41666 1.25,0.42988 1.25,0.42987 0.30777,-1.26578 0.30777,-1.26578 -2.59337,-5.11777 z M 210,458.3508 c 5.225,-0.83803 10.5125,-1.56429 11.75,-1.61392 l 2.25,-0.0902 0,-0.91667 0,-0.91666 0.64766,0.64766 0.64766,0.64766 3.60234,-1.87321 c 1.98129,-1.03026 5.51484,-2.38977 7.85234,-3.02113 l 4.25,-1.14793 0,-1.99125 0,-1.99124 1.51273,-0.58049 1.51274,-0.58049 1.29069,1.07118 1.2907,1.07118 5.31263,-4.93567 5.31263,-4.93567 -0.59338,-1.54631 -0.59338,-1.54632 1.97732,-1.97732 1.97732,-1.97732 2.75,-0.1343 c 5.83164,-0.28478 11.98064,0.31169 17.64915,1.71202 3.24453,0.80153 6.05385,1.30261 6.24294,1.11353 0.83241,-0.83242 2.60839,-12.01761 3.36473,-21.19125 0.45346,-5.5 1.52906,-13.72213 2.39023,-18.2714 l 1.56576,-8.2714 2.15389,-5.00684 2.15389,-5.00685 2.82133,-2.00896 2.82133,-2.00897 5.29338,-0.0487 5.29337,-0.0487 8.5,5.64901 c 13.57616,9.02258 16.05113,11.15083 28,24.07754 3.025,3.27255 8.83764,8.87401 12.91698,12.44768 l 7.41699,6.49759 -0.72291,-8 c -1.32206,-14.63036 -1.50583,-15.97433 -2.73463,-20 l -1.22097,-4 -2.37862,-3.25 c -1.30824,-1.7875 -2.79342,-3.25 -3.3004,-3.25 -1.99421,0 -11.66622,-5.16623 -14.97644,-7.99955 -1.925,-1.64767 -4.0625,-2.99681 -4.75,-2.9981 l -1.25,-0.002 0,-1 0,-1 -1.06672,0 c -1.08242,0 -5.93715,-3.36726 -11.48797,-7.9681 -1.68007,-1.39254 -4.57092,-3.6569 -6.42411,-5.0319 -1.85319,-1.375 -4.68936,-3.9361 -6.30261,-5.69134 -1.61325,-1.75524 -6.7099,-6.0063 -11.32589,-9.44681 -4.61598,-3.44051 -8.3927,-6.54063 -8.3927,-6.88914 0,-0.34852 -2.1375,-2.1396 -4.75,-3.98019 -2.6125,-1.84059 -6.87002,-5.29356 -9.46116,-7.67326 -2.59114,-2.37971 -5.85364,-4.84729 -7.25,-5.48352 C 272.14248,315.34617 271,314.48632 271,314.07163 c 0,-0.73495 -3.79131,-3.05169 -15,-9.16597 -3.025,-1.65013 -7.075,-4.20841 -9,-5.68507 -3.30323,-2.5339 -11.8606,-6.94201 -21.48581,-11.06786 -2.36162,-1.01231 -4.59499,-2.3278 -4.96304,-2.92332 -0.36805,-0.59552 -1.30429,-1.08276 -2.08053,-1.08276 -0.77624,0 -3.78719,-1.06912 -6.69098,-2.37583 -2.9038,-1.3067 -7.03929,-2.94041 -9.18997,-3.63046 -2.15069,-0.69006 -6.42569,-2.46408 -9.5,-3.94227 -3.07432,-1.47819 -6.70187,-3.1468 -8.06122,-3.708 l -2.47155,-1.02038 -1.78794,5.07701 -1.78793,5.07702 2.25949,1.79324 c 1.24271,0.98628 3.56724,2.50182 5.1656,3.36787 3.65229,1.97892 3.78899,2.08777 16.1527,12.8618 1.2623,1.1 4.44685,3.8 7.07676,6 2.62992,2.2 7.09377,6.1375 9.91967,8.75 2.8259,2.6125 5.60192,4.75 6.16893,4.75 0.56701,0 1.64853,0.74502 2.40338,1.6556 0.75484,0.91059 4.52244,4.1389 8.37244,7.17404 3.85,3.03514 8.77631,7.24012 10.94735,9.3444 2.17104,2.10428 4.31243,3.82596 4.75865,3.82596 0.80155,0 4.62928,3.14018 9.75163,8 1.44928,1.375 4.29862,3.625 6.33188,5 2.03325,1.375 3.6999,2.8375 3.70366,3.25 0.004,0.4125 0.45631,0.75 1.00569,0.75 1.30235,0 8.17034,6.73135 10.43468,10.22709 l 1.76646,2.72709 0,3.58367 0,3.58367 -1.6,1.76798 c -0.88,0.97239 -1.6,2.28467 -1.6,2.91619 l 0,1.1482 -2.41347,1.58137 -2.41347,1.58137 0.91347,3.18508 c 0.50241,1.7518 0.91347,4.81888 0.91347,6.81574 l 0,3.63064 -2.49771,4.4689 c -1.37375,2.45789 -3.44079,5.32236 -4.59342,6.36549 l -2.09571,1.89658 -5.65658,1.13742 -5.65658,1.13742 -0.61598,-0.96912 -0.61598,-0.96912 -1.88402,0.9755 c -1.03621,0.53652 -3.00902,1.45199 -4.38402,2.03437 l -2.5,1.05888 -10,0.72134 c -5.5,0.39674 -21.4566,0.76025 -35.45911,0.8078 l -25.4591,0.0865 -2.27357,3.5 c -1.25047,1.925 -2.77323,4.08831 -3.38391,4.80736 l -1.11033,1.30736 -2.15699,-0.30736 -2.15699,-0.30741 0.34596,-4.81959 0.34595,-4.81959 -1.84595,-1.39861 c -1.01528,-0.76923 -2.62588,-1.41291 -3.57911,-1.43041 l -1.73316,-0.0318 -2.41502,4.75 -2.41502,4.75 -3.06133,2.25 c -1.68374,1.2375 -3.30456,2.25 -3.60183,2.25 -0.9434,0 -0.58255,-6.75917 0.51497,-9.64587 l 1.05546,-2.77606 -0.56995,-2.27085 -0.56994,-2.27084 -2.93586,-1.51819 c -1.61472,-0.83501 -3.4082,-1.51819 -3.98551,-1.51819 l -1.04966,0 0,1.40673 0,1.40673 -4.03895,3.34327 -4.03895,3.34327 -2.45627,0.66224 -2.45627,0.66224 -0.5513,-0.89202 -0.5513,-0.89202 1.54652,-4.55517 C 129.30407,410.12658 130,407.25368 130,406.2477 l 0,-1.82905 -4.11089,-2.84885 -4.11089,-2.84884 -3.40257,3.71284 -3.40257,3.71285 -3.48654,0 -3.48654,0 0,-3.07143 0,-3.07143 1.4137,-1.4137 1.4137,-1.4137 -0.24749,-1.76487 -0.24749,-1.76487 -4.10927,-2.29352 -4.10927,-2.29351 -5.04369,5.01721 -5.04369,5.01722 -1.41471,-0.54288 -1.41471,-0.54287 -0.54181,-2.07192 -0.54182,-2.07191 2.44327,-3.2033 C 91.90053,388.89935 93,387.04963 93,386.55066 l 0,-0.90721 -5.82037,-2.7484 C 80.07789,379.54158 79.92067,379.53774 77,382.64665 l -2.34863,2.5 -1.871,0 -1.871,0 0.64843,-3.45641 0.64843,-3.45641 -1.26922,-2.86736 -1.26922,-2.86736 -3.0839,-2.16235 c -1.69614,-1.1893 -4.09138,-2.89516 -5.32275,-3.79081 l -2.23886,-1.62845 -7.26114,-0.79876 c -3.99363,-0.43931 -7.41906,-0.64234 -7.61207,-0.45116 -0.56467,0.5593 4.13828,8.47907 5.03507,8.47907 l 0.81586,0 0,1.42661 0,1.42661 5.37173,3.07339 c 2.95445,1.69036 6.10445,3.07339 7,3.07339 l 1.62827,0 0,1 0,1 2,0 2,0 0,2.45986 0,2.45986 4,1.19843 4,1.19843 0,1.76134 0,1.76135 5,1.66073 5,1.66073 0,1.41964 0,1.41963 -1.25,0.079 -1.25,0.0789 1.5,0.56364 c 0.825,0.31 2.75615,1.4434 4.29144,2.51866 l 2.79144,1.95502 -1.00948,1.21634 -1.00947,1.21635 5.05063,1.81618 5.05064,1.81619 -0.48772,1.86504 -0.48772,1.86504 4.40512,1.9486 4.40512,1.94859 0,1.05623 0,1.05623 -1,0 c -0.55,0 -1,0.41425 -1,0.92054 l 0,0.92055 3,0.65891 3,0.65891 0,2.97256 0,2.97257 3,1.0458 3,1.04581 0,1.29519 0,1.29518 1.37686,0.52835 1.37685,0.52835 4.2797,-0.57403 4.2797,-0.57403 -0.56294,2.15267 -0.56293,2.15267 0.65638,-0.0148 c 0.36101,-0.008 3.55989,-0.69914 7.10863,-1.53558 l 6.45225,-1.52079 3.23103,-2.46442 3.23103,-2.46443 1.56672,0 1.56672,0 0,2.27216 0,2.27215 -3.02337,3.66788 -3.02337,3.66787 -1.97663,0.62736 -1.97663,0.62736 0,0.99162 0,0.99163 1.0438,-0.6451 1.04381,-0.64511 1.20619,0.94957 c 0.66341,0.52226 3.2312,1.25372 5.7062,1.62546 4.42399,0.66447 9.5571,2.07155 13.5,3.7006 1.1,0.45447 5.375,1.50277 9.5,2.32955 8.65441,1.73463 16.83631,4.12288 19,5.54601 l 1.5,0.9866 3,-0.11889 c 1.65,-0.0654 7.275,-0.80454 12.5,-1.64257 z m 456,-31.12082 c 0,-0.50416 -0.3375,-1.06666 -0.75,-1.25 -1.0295,-0.45755 -13.4587,-19.62481 -15.1307,-23.33333 -0.744,-1.65 -1.7978,-3.8577 -2.3419,-4.90599 -0.544,-1.04829 -2.586,-5.09829 -4.5378,-9 -1.9517,-3.90171 -4.6041,-8.48649 -5.8941,-10.1884 -1.29,-1.70192 -2.3455,-3.61442 -2.3455,-4.25 0,-0.63559 -0.3401,-1.15561 -0.7559,-1.15561 -0.4157,0 -1.3963,-1.44685 -2.1791,-3.21522 -0.7827,-1.76837 -2.6685,-5.06048 -4.1906,-7.31581 l -2.7675,-4.10059 -3.8034,-1.16898 -3.8035,-1.16898 -0.3333,0.98479 -0.3334,0.98479 -2.1666,0.02 -2.1667,0.02 -9.593,9.22999 -9.593,9.22998 -1.8726,3.25 c -1.0299,1.7875 -2.2256,3.25 -2.657,3.25 -0.4314,0 -0.7844,0.47639 -0.7844,1.05864 0,2.13113 -8.5145,11.86122 -13.3609,15.26843 l -1.8609,1.30828 1.5191,1.51907 1.5191,1.51907 11.8418,2.83323 c 6.513,1.55827 12.3117,3.18497 12.886,3.61488 1.2763,0.95545 20.0869,5.1093 23.1876,5.12041 l 2.2317,0.008 -0.4909,0.79441 -0.491,0.79441 3.2592,1.01313 c 1.7926,0.55723 7.3092,1.96772 12.2592,3.13442 4.95,1.1667 9.9751,2.60306 11.1668,3.19191 1.8244,0.90146 11.1122,3.45648 13.5832,3.73667 0.4125,0.0468 0.75,-0.32745 0.75,-0.83162 z M 67.53684,180.20626 l -0.58119,-0.94038 2.21074,-2.05962 c 1.2159,-1.13278 2.80088,-2.05961 3.52217,-2.05961 l 1.31144,0 0,1.8 0,1.8 -1.2,1.2 -1.2,1.2 -1.74098,0 -1.74099,0 -0.58119,-0.94039 z m 8,-7 -0.58119,-0.94038 2.21074,-2.05962 c 1.2159,-1.13278 2.80088,-2.05961 3.52217,-2.05961 l 1.31144,0 0,0.98857 c 0,1.49112 -3.27571,5.01143 -4.66322,5.01143 -0.67031,0 -1.48028,-0.42317 -1.79994,-0.94039 z M 45.6875,167.50082 C 45.30938,167.12269 45,166.03817 45,165.09077 l 0,-1.72255 1.79235,-2.21346 1.79234,-2.21345 1.28707,1.55082 1.28707,1.55083 -1.32941,2.728 c -1.38976,2.85182 -2.97509,3.89668 -4.14192,2.72986 z m 36.71241,-2.51612 -0.71813,-1.16195 2.26989,-1.83805 c 1.24845,-1.01093 2.89505,-1.83805 3.65911,-1.83805 l 1.38922,0 0,1.34501 0,1.34501 -1.82874,1.65499 c -2.14708,1.94308 -3.77144,2.11093 -4.77135,0.49304 z M 91,156.80164 l 0,-1.34501 1.82874,-1.65499 c 1.00581,-0.91025 2.35581,-1.65499 3,-1.65499 l 1.17126,0 0,1.34501 0,1.34501 -1.82874,1.65499 c -1.00581,0.91025 -2.35581,1.65499 -3,1.65499 l -1.17126,0 0,-1.34501 z m -40.52051,-4.39737 c 0.87091,-4.64232 1.24433,-5.25762 3.19082,-5.25762 l 1.55227,0 -0.70207,3.74238 c -0.87091,4.64232 -1.24433,5.25762 -3.19082,5.25762 l -1.55227,0 0.70207,-3.74238 z M 99,149.84665 c 0,-0.715 0.54,-1.84 1.2,-2.5 0.66,-0.66 1.785,-1.2 2.5,-1.2 l 1.3,0 0,1.89301 0,1.89301 -1.58179,0.60699 c -0.86998,0.33385 -1.99498,0.60699 -2.5,0.60699 l -0.91821,0 0,-1.3 z m -44,-7.26574 c 0,-0.86116 0.46583,-2.43616 1.03518,-3.5 l 1.03519,-1.93426 1.46481,0 1.46482,0 0,1.03518 c 0,1.50495 -3.07677,5.96482 -4.11501,5.96482 l -0.88499,0 0,-1.56574 z m 51,0.68887 c 0,-1.08665 3.89734,-4.12313 5.29206,-4.12313 l 0.84704,0 -0.31955,2.25 -0.31955,2.25 -2.75,0.31642 -2.75,0.31642 0,-1.00971 z m 7,-5.94882 c 0,-1.22199 4.44128,-5.17431 5.81445,-5.17431 l 1.18555,0 0,1.34501 0,1.34501 -1.82874,1.65499 -1.82874,1.65499 -1.67126,0 -1.67126,0 0,-0.82569 z m -52.98894,-6.19498 1.08143,-2.02066 -0.60526,-0.97934 -0.60526,-0.97933 1.67564,0 1.67565,0 -0.60297,2.25 c -0.33164,1.2375 -0.60913,2.5875 -0.61664,3 l -0.01365,0.75 -1.53518,0 -1.53519,0 1.08143,-2.02067 z m 62.39518,-0.13103 -0.71179,-1.15171 1.8439,-1.34829 c 1.01415,-0.74157 2.4329,-1.3483 3.15278,-1.3483 l 1.30887,0 0,1.13976 c 0,1.1369 -2.88039,3.76811 -4.19098,3.82844 -0.38004,0.0175 -1.01129,-0.48647 -1.40278,-1.1199 z m -60.83117,-5.72684 -0.54297,-0.87853 1.55719,-3.12147 1.55719,-3.12146 0.95815,0 c 0.52698,0 1.21849,0.67847 1.53671,1.50772 l 0.57856,1.50772 -1.633,2.49228 c -1.68939,2.57834 -3.07197,3.13447 -4.01183,1.61374 z M 129,124.74922 l 0,-1.5322 2.07814,-1.11219 2.07814,-1.11219 1.5994,0.61375 1.5994,0.61375 -1.42754,1.35593 c -0.78515,0.74576 -2.44004,1.65955 -3.67754,2.03064 l -2.25,0.67472 0,-1.53221 z m 8,-5.40257 c 0,-0.44 0.54,-1.34 1.2,-2 l 1.2,-1.2 1.8,0 1.8,0 0,0.8 c 0,0.44 -0.54,1.34 -1.2,2 l -1.2,1.2 -1.8,0 -1.8,0 0,-0.8 z m -69.65267,-4.73725 -0.58989,-1.53724 1.77627,-1.96276 c 0.97694,-1.07951 2.15652,-1.96275 2.62128,-1.96275 l 0.84501,0 0,2.3 0,2.3 -1.2,1.2 c -1.61952,1.61952 -2.74393,1.50969 -3.45267,-0.33725 z m 78.17781,-0.42207 -0.64317,-1.04068 0.61803,-1 0.61803,-1 1.88197,0 1.88197,0 0.65915,1.06653 c 0.79073,1.27944 0.59252,1.49049 -2.20696,2.34992 l -2.16585,0.6649 -0.64317,-1.04067 z m 8.97486,-6.04068 -0.61803,-1 0.61803,-1 0.61803,-1 1.94099,0 1.94098,0 0,0.8 c 0,1.00626 -2.15328,3.2 -3.14098,3.2 -0.40754,0 -1.0191,-0.45 -1.35902,-1 z m -80.95202,-2.92236 -0.57339,-0.92777 1.17322,-2.57493 1.17322,-2.574942 1.17282,0 c 0.64505,0 1.42387,0.25106 1.73072,0.5579 l 0.55791,0.557912 -0.51615,1.97376 -0.51616,1.97376 -1.81439,0.97104 -1.8144,0.97104 -0.5734,-0.92777 z m 89.46701,-4.10565 1.08536,-2.028012 0.94982,0.58703 C 165.57258,100.00052 166,100.91313 166,101.70567 l 0,1.44098 -2.03518,0 -2.03519,0 1.08536,-2.02801 z m 7.66035,-3.629982 -0.65799,-0.65799 1.11377,-1.34201 1.11377,-1.34201 1.87755,0 1.87756,0 0,1.39301 0,1.39301 -1.58179,0.60699 c -2.02838,0.77836 -2.92573,0.76614 -3.74287,-0.051 z M 79,94.051018 c 0,-0.6026 0.91617,-2.38227 2.03593,-3.95483 l 2.03593,-2.8592 1.46407,0.56182 c 0.80524,0.309 1.46407,0.94049 1.46407,1.40331 0,1.29602 -4.58606,5.94453 -5.86467,5.94453 l -1.13533,0 0,-1.09563 z m 99.86078,-1.93764 2.36079,-1.96673 1.88921,0 1.88922,0 0,0.96482 c 0,1.36746 -3.44812,3.04122 -6.18426,3.00191 l -2.31574,-0.0333 2.36078,-1.96673 z m 9.31047,-5.63552 0.34918,-1.83121 2.32875,-0.33121 2.32875,-0.33121 -0.34918,1.83121 -0.34918,1.83121 -2.32875,0.33121 -2.32875,0.33121 0.34918,-1.83121 z m -102.1576,-3.08121 c 0.008,-0.4125 0.285,-1.7625 0.61664,-3 l 0.60297,-2.25 1.95076,0 1.95076,0 -0.70217,2.25 c -0.89594,2.87089 -4.46067,5.29096 -4.41896,3 z M 196,82.181828 c 0,-1.18679 3.3094,-3.03518 5.43426,-3.03518 l 1.56574,0 0,1.38337 0,1.38337 -2.25,0.60297 c -1.2375,0.33164 -2.8125,0.60913 -3.5,0.61664 l -1.25,0.01365 0,-0.96482 z m 10.17668,-5.701571 0.32332,-1.66639 2.99537,-0.40068 2.99537,-0.400679 1.50463,-1.239569 c 2.0735,-1.708221 7.15526,-3.808992 7.75739,-3.20686 0.27188,0.271872 0.24413,1.146287 -0.0617,1.943145 l -0.55597,1.448832 -3.16939,0.696114 -3.16939,0.696115 -1.89818,1.898181 -1.89813,1.898182 -2.57332,0 -2.57333,0 0.32333,-1.666391 z M 92,73.781507 c 0,-0.750828 0.93603,-2.555116 2.08007,-4.009528 l 2.08008,-2.644387 0.91992,0.568545 0.91993,0.568545 0,1.785995 0,1.785996 -1.82874,1.654987 c -1.00581,0.910244 -2.35581,1.654988 -3,1.654988 l -1.17126,0 0,-1.365141 z m 131,-4.967908 0,-1.423674 4.00579,-1.016778 4.00579,-1.016778 0.60708,0.982272 0.60708,0.982272 -0.86287,0.791576 c -0.47458,0.435367 -2.55037,1.091549 -4.61287,1.458181 l -3.75,0.666604 0,-1.423675 z m -122,-4.610247 0,-1.943296 2.20927,-1.547433 2.20927,-1.547434 0.93938,0.939383 0.93939,0.939383 -1.67171,2.551346 -1.67171,2.551347 -1.47694,0 -1.47695,0 0,-1.943296 z m 133.6204,1.230367 C 234.27918,65.092497 234,64.510546 234,64.140496 c 0,-0.884933 4.67055,-2.993848 6.63039,-2.993848 l 1.53628,0 -0.40152,1.204552 -0.40152,1.204552 -3.06141,1.249186 -3.06141,1.249186 -0.62041,-0.620405 z M 245,60.269093 c 0,-1.400576 2.46338,-3.063 4.97024,-3.354198 l 2.3093,-0.268247 0.40567,1.136333 0.40568,1.136333 -3.19467,1.113667 C 246.04349,61.37605 245,61.42637 245,60.269093 z m -137.61468,-3.560702 -0.63835,-1.663505 2.30083,-2.449119 2.30083,-2.449119 1.32568,0 1.32569,0 0,1.571429 c 0,1.554782 -0.87377,2.644645 -4.24209,5.291195 l -1.73424,1.362624 -0.63835,-1.663505 z m 147.62248,0.188257 0.008,-1.25 2.69157,-1.25 c 1.48016,-0.6875 3.50165,-1.25 4.49199,-1.25 l 1.80064,0 0,1.051027 0,1.051026 -3.46788,1.448974 c -1.90734,0.796935 -3.93234,1.448973 -4.5,1.448973 l -1.03212,0 0.008,-1.25 z m -139.4142,-9.598556 -0.52444,-0.848556 1.93159,-2.07332 c 1.06238,-1.140325 2.88073,-2.374563 4.04078,-2.74275 l 2.10919,-0.66943 0.54917,0.549172 0.54918,0.549173 -2.87129,3.042134 -2.87129,3.042133 -1.19423,0 c -0.65682,0 -1.43022,-0.38185 -1.71866,-0.848556 z m 10.69171,-7.953953 -1.2147,-0.771884 2.33105,-2.712803 2.33104,-2.712804 2.13365,0 2.13365,0 0,0.834702 c 0,0.726251 -5.54608,6.191146 -6.24134,6.149985 -0.14226,-0.0084 -0.80527,-0.36266 -1.47335,-0.787196 z M 135,29.869023 l 0,-1.4124 1.96275,-1.776269 1.96276,-1.776268 1.53724,0.589896 c 2.91808,1.119771 1.27888,3.720677 -3.21275,5.097665 l -2.25,0.689776 0,-1.4124 z m 8.5374,-6.661861 -0.58063,-0.939486 2.76139,-2.560514 2.7614,-2.560514 1.76022,0 1.76022,0 0,1.325686 0,1.325686 -2.31445,2.174314 -2.31445,2.174314 -1.62653,0 c -0.8946,0 -1.88782,-0.422769 -2.20717,-0.939486 z M 154,15.301636 c 0,-0.464757 0.82293,-1.589757 1.82874,-2.5 l 1.82874,-1.654988 2.17126,0 2.17126,0 0,1.524751 0,1.524751 -2.5651,0.975249 c -1.4108,0.536387 -3.2108,0.975249 -4,0.975249 l -1.4349,0 0,-0.845012 z m 10.52632,-7.1124 -0.59171,-0.957412 2.98303,-1.542588 c 1.64067,-0.848423 3.45539,-1.542588 4.0327,-1.542588 l 1.04966,0 0,1.464816 0,1.464816 -1.93426,1.035184 c -2.42015,1.295224 -4.76663,1.328168 -5.53942,0.07777 z M 175,1.573324 175,0 l 1.66713,0.323324 1.66714,0.323324 0.4162,1.25 0.4162,1.25 -2.08334,0 -2.08333,0 0,-1.573324 z"
     id="path2991"
     inkscape:connector-curvature="0" />
</svg>
