<?xml version="1.0" encoding="UTF-8" standalone="no"?>
<!-- Created with Inkscape (http://www.inkscape.org/) -->

<svg
   xmlns:dc="http://purl.org/dc/elements/1.1/"
   xmlns:cc="http://creativecommons.org/ns#"
   xmlns:rdf="http://www.w3.org/1999/02/22-rdf-syntax-ns#"
   xmlns:svg="http://www.w3.org/2000/svg"
   xmlns="http://www.w3.org/2000/svg"
   xmlns:sodipodi="http://sodipodi.sourceforge.net/DTD/sodipodi-0.dtd"
   xmlns:inkscape="http://www.inkscape.org/namespaces/inkscape"
   id="svg2"
   version="1.1"
   inkscape:version="0.48.2 r9819"
   width="2895.4194"
   height="2056.3223"
   sodipodi:docname="Musk_Ox_(PSF)c.png">
  <metadata
     id="metadata8">
    <rdf:RDF>
      <cc:Work
         rdf:about="">
        <dc:format>image/svg+xml</dc:format>
        <dc:type
           rdf:resource="http://purl.org/dc/dcmitype/StillImage" />
        <dc:title></dc:title>
      </cc:Work>
    </rdf:RDF>
  </metadata>
  <defs
     id="defs6" />
  <sodipodi:namedview
     pagecolor="#ffffff"
     bordercolor="#666666"
     borderopacity="1"
     objecttolerance="10"
     gridtolerance="10"
     guidetolerance="10"
     inkscape:pageopacity="0"
     inkscape:pageshadow="2"
     inkscape:window-width="1600"
     inkscape:window-height="876"
     id="namedview4"
     showgrid="false"
     fit-margin-top="0"
     fit-margin-left="0"
     fit-margin-right="0"
     fit-margin-bottom="0"
     inkscape:zoom="0.22014925"
     inkscape:cx="1259.1353"
     inkscape:cy="958.89769"
     inkscape:window-x="0"
     inkscape:window-y="24"
     inkscape:window-maximized="1"
     inkscape:current-layer="svg2" />
  <path
     style="fill:#000000"
     d="m 859.47956,2054.1268 c -3.2089,-1.8802 -6.6654,-2.8216 -12.5,-3.4044 -15.2692,-1.5251 -17.0647,-2.0346 -17.0647,-4.8425 0,-1.8179 -0.4733,-2.4183 -1.7394,-2.2062 -0.9566,0.1603 -3.5443,-0.1946 -5.7503,-0.7886 -3.1549,-0.8496 -5.1167,-0.7517 -9.1921,0.4586 -10.5644,3.1372 -17.09848,1.5675 -20.12078,-4.8337 -1.6451,-3.4842 -1.6669,-4.0252 -0.25,-6.1877 1.962,-2.9944 1.9823,-5.3379 0.053,-6.0784 -0.825,-0.3166 -1.5,-1.1806 -1.5,-1.92 0,-1.2271 6.56458,-14.3026 12.77308,-25.4416 5.3041,-9.5163 7.2277,-13.3372 7.2491,-14.3989 0.012,-0.6056 0.9022,-2.2261 1.9778,-3.6011 1.0755,-1.375 1.9655,-3.5787 1.9777,-4.897 0.012,-1.3184 1.5973,-4.3191 3.5223,-6.6683 1.925,-2.3492 3.5,-4.9565 3.5,-5.794 0,-0.8375 0.45,-1.8008 1,-2.1407 0.55,-0.3399 1,-1.4364 1,-2.4366 0,-1.0002 0.6482,-2.3565 1.4405,-3.0141 0.7923,-0.6575 1.1942,-1.8376 0.893,-2.6224 -0.3062,-0.7982 0.05,-1.4409 0.8095,-1.4587 0.8914,-0.021 0.691,-0.5355 -0.5842,-1.5 -1.0676,-0.8075 -1.3785,-1.4682 -0.6909,-1.4682 0.7516,0 0.9374,-0.4985 0.466,-1.25 -1.3376,-2.1326 -0.4703,-5.2311 4.1985,-15 0.9091,-1.9021 0.9707,-2.75 0.1998,-2.75 -0.613,0 -0.3681,-0.5625 0.544,-1.25 2.4993,-1.8836 4.9914,-8.4666 3.5439,-9.3612 -0.7783,-0.481 -0.5169,-0.9568 0.7915,-1.4408 1.0744,-0.3975 3.1913,-3.1359 4.7043,-6.0853 3.5624,-6.9451 7.2452,-13.2989 10.8066,-18.6444 1.5689,-2.355 4.2733,-6.855 6.0096,-10 1.7363,-3.1451 4.4419,-7.3581 6.0124,-9.3622 1.5705,-2.0042 2.8598,-4.0292 2.8652,-4.5 0.01,-0.4709 1.5803,-2.8319 3.5,-5.2468 1.9196,-2.4149 3.4903,-5.3523 3.4903,-6.5275 0,-2.6982 2.6679,-6.5818 4.5215,-6.5818 0.7744,0 1.8384,-0.7875 2.3642,-1.75 0.5259,-0.9625 3.4604,-4.225 6.5211,-7.25 3.0607,-3.025 5.5713,-5.9742 5.5791,-6.5538 0.01,-0.5796 1.5674,-2.5595 3.466,-4.3996 5.674,-5.4995 17.2484,-25.7255 30.575,-53.4294 2.3501,-4.8856 5.0081,-9.0751 5.9066,-9.3101 1.7204,-0.4499 5.4391,-6.7364 6.9845,-11.8071 0.5028,-1.65 3.2387,-9.525 6.0796,-17.5 8.6503,-24.2826 8.6506,-24.2839 7.1941,-24.7694 -0.9904,-0.3302 -0.9251,-0.7051 0.276,-1.5834 0.8656,-0.6329 1.677,-2.6116 1.803,-4.397 0.1261,-1.7854 0.6192,-3.2471 1.0958,-3.2482 0.4767,0 0.6516,-1.127 0.3887,-2.502 -0.2628,-1.375 -0.064,-2.5 0.4425,-2.5 0.5061,0 0.6589,-0.423 0.3393,-0.9401 -0.3195,-0.517 0.036,-1.5162 0.7897,-2.2204 0.7539,-0.7043 1.1613,-2.0812 0.9054,-3.06 -0.2589,-0.99 0.077,-1.7795 0.7582,-1.7795 0.6768,0 0.9664,-0.6703 0.648,-1.5 -0.3165,-0.825 -0.085,-1.5 0.5155,-1.5 0.7197,0 0.6673,-0.5105 -0.1538,-1.5 -1.0196,-1.2285 -0.9513,-1.5 0.3775,-1.5 1.439,0 1.8968,-1.8854 1.5868,-6.5357 -0.02,-0.2947 0.6553,-1.2268 1.5,-2.0714 1.7564,-1.7565 2.0006,-3.9875 0.5357,-4.8929 -1.5758,-0.9738 -1.1656,-2.5008 0.5,-1.8616 0.9288,0.3564 1.5,0 1.5,-0.9481 0,-0.838 -0.5625,-1.7506 -1.25,-2.028 -0.6875,-0.2774 -0.2375,-0.5399 1,-0.5834 2.5423,-0.089 2.9564,-2.2296 0.8407,-4.3453 -0.8428,-0.8428 -1.081,-1.9404 -0.5925,-2.7307 0.4492,-0.7269 0.6288,-1.8123 0.399,-2.4122 -0.2297,-0.5999 0.7412,-1.1574 2.1575,-1.239 3.1887,-0.1835 3.2159,-0.212 3.8946,-4.064 0.4495,-2.5516 0.174,-3.2725 -1.4471,-3.787 -2.7327,-0.8673 -2.5209,-3.0755 0.99,-10.3235 2.1919,-4.5249 3.5294,-6.1772 5,-6.1772 1.1043,0 2.0078,-0.4359 2.0078,-0.9686 0,-0.5328 -0.675,-0.7096 -1.5,-0.393 -1.8383,0.7054 -1.842,0.2357 -0.052,-6.489 0.7832,-2.9428 2.1977,-6.2053 3.1431,-7.25 0.9523,-1.0523 1.2179,-1.8994 0.5954,-1.8994 -1.4549,0 -0.3733,-3.1243 1.6445,-4.75 0.8532,-0.6875 1.0575,-1.25 0.4538,-1.25 -0.6051,0 -0.8629,-0.8972 -0.5745,-2 0.2877,-1.1 1.1721,-2 1.9654,-2 0.7933,0 1.2118,-0.3731 0.93,-0.8292 -0.2819,-0.456 0.8487,-3.4138 2.5124,-6.5728 3.2777,-6.2237 3.6439,-7.4707 4.4853,-15.27 0.5019,-4.6518 0.2177,-5.7078 -2.8259,-10.5 -5.0216,-7.9064 -8.063,-22.4513 -7.7512,-37.0685 0.2871,-13.4636 0.2638,-13.7595 -1.0852,-13.7595 -0.5825,0 -0.7809,0.45 -0.441,1 0.3399,0.55 0.1415,1 -0.441,1 -0.5825,0 -1.059,0.81 -1.059,1.8 0,0.99 -0.5588,2.3587 -1.2417,3.0416 -0.9888,0.9889 -0.9379,1.4337 0.25,2.1847 0.8204,0.5187 1.0012,0.95 0.4017,0.9584 -0.5994,0.01 -1.6632,1.9278 -2.3639,4.2653 -0.7008,2.3375 -1.6177,5.15 -2.0376,6.25 -1.9267,5.047 -3.3424,13.6684 -3.4218,20.8385 -0.076,6.8607 -0.3669,8.0654 -2.3331,9.6574 -2.7496,2.2262 -5.8257,1.5867 -7.9481,-1.6523 -1.2655,-1.9315 -1.4611,-4.35 -1.0201,-12.6166 0.3,-5.6248 0.7555,-11.127 1.0121,-12.227 0.7677,-3.2901 1.6224,-9.5993 2.2353,-16.5 0.3176,-3.575 0.983,-10.5122 1.4787,-15.4159 0.8727,-8.6317 0.7089,-10.5841 -0.8877,-10.5841 -1.2722,0 -4.1503,14.1347 -4.1366,20.3157 0.01,3.1987 -0.451,6.6824 -1.0179,7.7416 -0.5668,1.0591 -1.3088,5.5329 -1.6488,9.9416 -0.4781,6.2004 -1.1506,8.7377 -2.9693,11.2028 -1.2932,1.7528 -2.354,4.5619 -2.3574,6.2426 0,1.6806 -0.6589,4.3071 -1.4567,5.8366 -0.7978,1.5295 -1.1947,3.4478 -0.882,4.2628 0.3128,0.815 0.1086,2.0385 -0.4538,2.719 -1.2396,1.5003 -1.953,5.7428 -2.6856,15.9724 -0.3046,4.2544 -1.0467,8.9794 -1.649,10.5 -0.6024,1.5207 -1.0411,4.6532 -0.9749,6.9612 0.1332,4.6455 -3.4238,15.3037 -5.1074,15.3037 -0.9899,0 -0.6373,-16.3955 0.6398,-29.75 0.2236,-2.3375 0.012,-4.25 -0.4703,-4.25 -0.8831,0 -1.1484,0.9139 -4.4994,15.5 -2.6969,11.7385 -5.1194,14.6923 -8.9269,10.8847 -1.4871,-1.487 -1.7706,-1.4747 -3.5715,0.155 -1.0759,0.9736 -1.9561,2.2206 -1.9561,2.7709 0,2.0041 -5.1516,7.6894 -6.9676,7.6894 -3.0808,0 -2.9372,-2.246 0.4473,-7 3.3007,-4.6361 4.7088,-7.3922 5.1091,-10 1.5041,-9.798 4.4675,-26.259 7.831,-43.5 4.0451,-20.7348 7.6846,-43.7485 8.0654,-51 0.2311,-4.4 0.8776,-11.375 1.4366,-15.5 0.559,-4.125 1.0303,-8.2875 1.0473,-9.25 0.043,-2.4232 -1.6918,-2.199 -2.492,0.3221 -0.9191,2.8958 -5.432,24.5858 -6.1228,29.4279 -0.3139,2.2 -0.9134,4.45 -1.3321,5 -0.9245,1.2142 -2.1344,7.4913 -2.545,13.2039 -0.1662,2.3121 -0.587,4.6648 -0.9352,5.2281 -0.3482,0.5634 -0.8592,3.6216 -1.1357,6.7962 -0.2764,3.1745 -1.1627,8.4718 -1.9694,11.7718 -0.8068,3.3 -1.6379,6.9018 -1.8471,8.0039 -0.2091,1.1021 -0.9478,4.0271 -1.6415,6.5 -0.6937,2.4729 -1.3518,5.1711 -1.4625,5.9961 -0.1106,0.825 -0.9571,4.2 -1.8812,7.5 -0.924,3.3 -2.082,9.9803 -2.5734,14.8451 -0.5442,5.3882 -1.4851,9.499 -2.4077,10.5184 -0.8329,0.9204 -2.5223,4.3651 -3.7541,7.655 -1.7003,4.5407 -3.7519,7.4488 -8.5175,12.0733 -5.1235,4.9718 -6.4008,6.8615 -6.9471,10.2784 -1.1743,7.3435 -8.081,15.684 -11.3268,13.678 -0.5169,-0.3194 -1.2225,-0.1235 -1.5679,0.4355 -1.1722,1.8967 -4.5386,1.0479 -5.6671,-1.4289 -0.8061,-1.7692 -0.817,-3.6158 -0.039,-6.6794 0.6845,-2.6967 0.7337,-4.8713 0.1355,-5.989 -0.5165,-0.9652 -0.9921,-5.272 -1.0568,-9.5707 -0.1149,-7.6383 -0.1363,-7.7022 -0.9428,-2.8157 -0.7812,4.733 -3.927,17.3681 -5.993,24.071 -0.5206,1.689 -0.9466,4.025 -0.9466,5.191 0,1.166 -0.45,2.3981 -1,2.738 -0.55,0.3399 -1,2.3756 -1,4.5238 0,2.8353 -0.529,4.189 -1.9301,4.9388 -1.0616,0.5682 -2.0741,2.0465 -2.25,3.2852 -0.2344,1.6504 -0.9879,2.2522 -2.8199,2.2522 -2.1956,0 -2.4966,-0.426 -2.4726,-3.5 0.015,-1.925 0.3334,-5.975 0.7074,-9 0.6131,-4.9587 0.5366,-5.309 -0.7774,-3.5589 -0.8015,1.0677 -1.4574,2.7613 -1.4574,3.7636 0,1.0023 -0.4335,2.6038 -0.9633,3.5589 -2.4442,4.4058 -5.0367,10.7765 -5.0367,12.3772 0,1.8198 -2.0017,6.9736 -3.0525,7.8592 -0.3264,0.275 -0.8839,1.2875 -1.239,2.25 -0.7448,2.0185 -4.2603,2.3601 -4.9803,0.4839 -0.2672,-0.6963 0.3524,-3.9588 1.377,-7.25 6.2529,-20.0864 6.7063,-22.2438 5.0275,-23.9227 -1.2281,-1.2281 -1.6321,-4.0024 -1.7691,-12.15 -0.098,-5.8072 -0.3996,-10.7806 -0.6709,-11.0519 -0.2713,-0.2713 -1.0195,1.2243 -1.6627,3.3237 -0.6431,2.0993 -1.5425,4.717 -1.9987,5.817 -1.3765,3.3193 -2.8329,7.8363 -3.4799,10.7933 -0.6924,3.1643 -4.1232,4.9567 -6.8014,3.5534 -1.4668,-0.7687 -1.751,-0.4664 -1.7561,1.8681 0,1.5319 -0.6784,4.0741 -1.5,5.6495 -0.8216,1.5754 -1.4939,3.4181 -1.4939,4.095 0,0.6769 -0.9,2.0452 -2,3.0407 -1.1923,1.0791 -2,3.08 -2,4.955 0,3.685 -1.5373,5.545 -4.5833,5.545 -2.2387,0 -3.3757,-2.2554 -3.403,-6.75 -0.012,-2.0067 -1.9002,-3.3617 -2.0902,-1.5 -0.1264,1.239 -4.5196,19.6662 -5.7791,24.2403 -0.7838,2.8464 -3.53068,3.7639 -5.75128,1.9209 -1.1256,-0.9341 -1.3409,-2.2942 -0.8442,-5.3326 0.82,-5.0155 3.3391,-15.5442 4.206,-17.5786 0.3515,-0.825 0.731,-2.625 0.8433,-4 0.1124,-1.375 0.5157,-4.975 0.89628,-8 l 0.6921,-5.5 -1.94108,3.024 c -2.1337,3.324 -3.9217,8.3399 -4.6256,12.976 -0.2504,1.65 -0.537,3 -0.6368,3 -0.1,0 -0.3541,1.125 -0.5652,2.5 -0.9703,6.3209 -1.7302,9.5782 -2.4495,10.5 -0.4292,0.55 -1.3377,3.8454 -2.0188,7.323 -1.247,6.3662 -2.9236,9.177 -5.4741,9.177 -1.5864,0 -3.9989,4.9045 -4.8932,9.9477 -0.7487,4.2226 -3.1429,8.0523 -5.0339,8.0523 -2.4789,0 -4.3225,-2.7307 -3.7755,-5.5922 0.3581,-1.8734 0.1651,-2.4875 -0.6279,-1.9974 -0.6297,0.3892 -1.145,2.2268 -1.145,4.0835 0,5.3066 -1.5423,8.1509 -5.0907,9.3879 -1.7785,0.62 -3.3646,0.9962 -3.5247,0.8361 -1.5431,-1.5431 -1.7601,-6.5417 -0.7162,-16.4919 1.3314,-12.69 3.2708,-29.061 3.8562,-32.5518 6.0508,-36.0802 8.2717,-55.6742 6.3103,-55.6742 -0.4592,0 -0.8349,0.9158 -0.8349,2.0352 0,1.1193 -0.6232,3.0318 -1.385,4.25 -0.7618,1.2181 -1.6918,4.6898 -2.0666,7.7148 -0.7893,6.3702 -3.534,15.486 -12.0436,40 -4.7084,13.5637 -6.8032,30.2878 -3.9318,31.3896 2.4,0.921 1.7679,7.7598 -1.073,11.6104 -1.375,1.8637 -2.5,3.8977 -2.5,4.52 0,1.63 -4.3502,5.48 -6.192,5.48 -3.9443,0 -4.1896,-2.3138 -2.0431,-19.2761 1.1291,-8.9231 1.9495,-16.3309 1.823,-16.4616 -0.8038,-0.8309 -4.9692,6.6961 -5.2834,9.5474 -0.2101,1.9067 -0.8304,4.3045 -1.3784,5.3285 -1.195,2.2329 -5.1943,2.4485 -6.9169,0.3728 -1.8075,-2.1778 -2.6704,-1.1456 -3.9596,4.7359 -0.6333,2.8892 -1.6802,7.2781 -2.3264,9.7531 -1.3937,5.3376 -1.1856,4.3325 -2.1741,10.5 -0.4407,2.75 -1.138,5.45 -1.5496,6 -1.4895,1.9908 -1.7248,7.6682 -0.3399,8.1996 1.6651,0.639 1.7438,3.4971 0.1404,5.1004 -3.289,3.2891 -8.0168,-0.51 -7.6378,-6.1375 0.133,-1.9755 -0.048,-3.8814 -0.4016,-4.2352 -0.6054,-0.6055 -3.7606,5.828 -3.7606,7.6681 0,0.4681 -0.9995,2.9084 -2.2211,5.4229 -1.8675,3.8438 -2.6239,4.5249 -4.75,4.2768 -2.1262,-0.2481 -2.5776,-0.8813 -2.8352,-3.9769 -0.1842,-2.2152 0.5004,-5.3514 1.7189,-7.8733 2.2102,-4.5745 2.3964,-3.531 -2.6679,-14.9449 -1.0925,-2.4621 -1.1103,-2.4656 -1.177,-0.2286 -0.042,1.4147 -1.0139,2.7026 -2.5762,3.4144 -3.6627,1.6689 -6.647,-0.3272 -9.7401,-6.5148 l -2.585,-5.171 -1.181,3.25 c -1.007,2.7711 -1.667,3.25 -4.4796,3.25 -2.5885,0 -3.9724,-0.8072 -6.4288,-3.75 -1.7217,-2.0625 -3.9363,-4.65 -4.9215,-5.75 -4.3563,-4.8638 -6.2548,-10.098 -8.1186,-22.3824 -1.0171,-6.7035 -1.6891,-8.2447 -2.8412,-6.5157 -1.2045,1.8076 -4.262,2.4329 -6.3726,1.3034 -1.1177,-0.5982 -3.4763,-4.2054 -5.2413,-8.016 -1.7651,-3.8107 -3.4256,-6.7122 -3.69,-6.4478 -0.4452,0.4453 0.6796,15.1667 1.4181,18.5585 0.1796,0.825 0.6669,3.075 1.083,5 1.3522,6.2564 1.647,6.7932 4.0633,7.3996 2.5899,0.6501 4.1769,5.0304 3.0775,8.4943 -0.6943,2.1876 -5.2557,4.1304 -7.5408,3.2119 -2.4332,-0.978 -6.9929,-5.359 -6.9929,-6.7187 0,-0.6888 -0.8585,-1.5248 -1.9077,-1.8578 -2.16,-0.6856 -10.0923,-8.9438 -10.0923,-10.507 0,-0.5622 -0.45,-1.0223 -1,-1.0223 -0.55,0 -1,0.81 -1,1.8 0,0.99 -0.4983,2.2983 -1.1073,2.9073 -1.2527,1.2527 -1.6474,14.6413 -0.53,17.9793 0.4025,1.2027 1.7231,2.3277 2.9346,2.5 3.2216,0.4583 3.3842,4.2229 0.3149,7.2921 -2.9575,2.9576 -7.0993,3.2793 -9.9295,0.7713 -1.4083,-1.2479 -2.0973,-1.4004 -2.4015,-0.5317 -0.2347,0.6701 -2.0146,1.5163 -3.9554,1.8804 -2.9916,0.5612 -3.9,0.2616 -5.9677,-1.9684 -1.3415,-1.4467 -2.8409,-2.6303 -3.3321,-2.6303 -0.4912,0 -1.0355,-1.2126 -1.2095,-2.6947 -0.3121,-2.6574 -0.3545,-2.6369 -3.0684,1.4814 -1.5509,2.3537 -3.842,4.4498 -5.25,4.8031 -3.4591,0.8682 -7.1441,-0.2251 -7.8495,-2.3289 -0.8399,-2.5048 -2.8945,-5.5365 -4.6719,-6.8936 -0.8378,-0.6397 -2.1593,-2.7841 -2.9366,-4.7652 -1.1081,-2.824 -1.967,-3.605 -3.9767,-3.6158 -1.4099,-0.01 -3.626,-0.2981 -4.9248,-0.6457 -2.2284,-0.5965 -2.3224,-0.4407 -1.6679,2.7636 1.8274,8.9459 2.6229,10.8958 4.4454,10.8958 5.0548,0 5.0791,7.3902 0.034,10.3703 -2.9483,1.7416 -3.0019,1.7318 -5.7863,-1.0562 -1.9053,-1.9078 -3.3847,-5.0685 -4.5935,-9.8141 -0.9807,-3.85 -1.9644,-7.6102 -2.1861,-8.3561 -0.2583,-0.8692 -1.2293,-1.1487 -2.7046,-0.7784 -1.2659,0.3177 -3.9587,0.1202 -5.984,-0.439 -3.3354,-0.921 -4.0514,-1.7898 -7.6001,-9.2216 -2.1549,-4.5127 -4.222,-9.6826 -4.5937,-11.4888 -0.3777,-1.8353 -1.7374,-3.9795 -3.0826,-4.8609 -1.3237,-0.8673 -4.5032,-4.8863 -7.0654,-8.931 -2.5622,-4.0447 -5.0151,-7.1336 -5.451,-6.8643 -1.4779,0.9135 1.4055,8.6264 9.7394,26.0513 2.3967,5.0112 4.3576,9.3853 4.3576,9.7202 0,1.005 9.9983,15.4223 11.6403,16.785 1.1873,0.9854 1.9413,1.0015 3.4274,0.073 2.2808,-1.4244 5.9323,-1.5718 5.9323,-0.2395 0,0.5227 -0.5625,1.3102 -1.25,1.75 -0.6875,0.4398 -1.7455,1.6997 -2.3512,2.7997 -1.7994,3.2678 -7.6305,3.1877 -12.0264,-0.1651 -3.6739,-2.8022 -11.5441,-14.1929 -16.7641,-24.263 -1.5476,-2.9854 -3.1853,-6.1354 -3.6394,-7 -7.2471,-13.798 -12.4348,-32.3252 -14.4405,-51.5719 -0.2292,-2.2 -0.6187,-4.9 -0.8655,-6 -0.2468,-1.1 -0.9591,-8.75 -1.583,-17 -0.6238,-8.25 -1.5529,-16.8 -2.0647,-19 -0.5117,-2.2 -1.656,-8.275 -2.5428,-13.5 -0.8868,-5.225 -2.0233,-11.3 -2.5256,-13.5 -0.5023,-2.2 -1.1789,-7.15 -1.5038,-11 -0.3248,-3.85 -0.6947,-8.2249 -0.8221,-9.722 -0.2496,-2.934 -1.5697,-5.0264 -1.7,-2.6947 -0.043,0.7792 -0.051,3.8917 -0.017,6.9167 0.034,3.025 -0.016,10.225 -0.1117,16 -0.2659,16.0949 0.055,35.5105 0.7552,45.7003 0.4833,7.0341 1.0884,9.7263 2.5698,11.4344 3.1032,3.578 3.3238,6.3504 0.779,9.7923 -1.7135,2.3177 -2.7931,2.9291 -4.3385,2.4568 -3.6233,-1.1071 -4.1633,-2.1634 -5.4201,-10.6025 -0.6784,-4.5547 -1.5112,-9.8563 -1.8507,-11.7813 l -0.6174,-3.5 -0.8176,5 c -0.5156,3.1527 -0.4242,5.981 0.2474,7.6551 1.727,4.3051 0.8214,7.2965 -2.3185,7.6584 -2.4713,0.2849 -2.8239,-0.1004 -3.8611,-4.2198 -1.3121,-5.2105 -2.1515,-6.0717 -6.774,-6.9489 l -3.3546,-0.6367 0.6201,4.246 c 1.2254,8.3903 1.1699,8.9576 -0.9553,9.7587 -2.0527,0.7738 -9.2002,-1.1033 -10.3555,-2.7196 -0.33,-0.4617 -1.8031,-1.6043 -3.2735,-2.5392 -2.0866,-1.3267 -2.9156,-2.968 -3.7764,-7.4769 -1.2315,-6.4504 -2.9737,-10.3356 -6.6265,-14.7771 l -2.4672,-3 0.5559,18.5 c 0.738,24.5653 0.8169,25 4.533,25 3.4583,0 3.41,-0.1785 1.3461,4.9798 -1.3541,3.3842 -2.062,4.0202 -4.4743,4.0202 -3.9696,0 -5.9204,-4.1632 -6.879,-14.6802 -0.589,-6.4623 -1.2007,-8.7295 -2.6519,-9.8281 -1.0374,-0.7855 -2.2298,-1.4424 -2.6498,-1.4599 -1.0639,-0.044 -5.6525,-10.3053 -6.3792,-14.2651 -0.3297,-1.7967 -1.6186,-5.0667 -2.8642,-7.2667 -3.0954,-5.467 -5.4675,-15.3169 -6.1406,-25.4976 -0.9381,-14.1889 -1.0216,-16.1057 -1.19,-27.2977 l -0.1624,-10.7949 -3.4894,0.6546 c -2.6966,0.5059 -3.6298,0.289 -4.107,-0.9547 -0.3396,-0.8851 -1.6146,-1.6093 -2.8333,-1.6093 -3.5253,0 -7.4889,-8.9777 -12.5826,-28.5 -0.574,-2.2 -1.9122,-5.575 -2.9737,-7.5 l -1.9301,-3.5 -0.042,3.1243 c -0.023,1.7183 -0.7235,5.0559 -1.5564,7.4167 -1.7437,4.9421 -1.6177,5.5975 3.224,16.7678 3.3062,7.6278 3.4698,8.4404 1.9961,9.9141 -1.2871,1.2871 -1.8982,1.3622 -3.0834,0.3785 -1.7993,-1.4932 -5.9054,-9.2694 -7.524,-14.2487 -1.5179,-4.6697 -3.905,-7.3618 -7.2622,-8.1903 -1.4652,-0.3615 -4.0564,-2.4154 -5.7582,-4.5641 -2.2527,-2.8442 -3.6316,-3.7663 -5.07,-3.3901 -5.7302,1.4985 -9.8365,-2.1004 -13.5827,-11.9041 -2.2678,-5.9347 -2.9004,-6.788 -4.6262,-6.2403 -2.7913,0.8859 -8.5385,-4.883 -9.8994,-9.9367 -0.5839,-2.1687 -2.3884,-5.2698 -4.0098,-6.8912 -1.6215,-1.6215 -3.5998,-4.2082 -4.3962,-5.7483 -2.7154,-5.2511 -6.4156,-19.9302 -7.3664,-29.2238 -0.8146,-7.9628 -1.7349,-11.0413 -6.5042,-21.7582 -5.7082,-12.8263 -8.4539,-16.5308 -6.938,-9.3606 1.2377,5.8541 1.0124,15.6112 -0.3712,16.0785 -0.6525,0.2204 -1.9415,-0.7519 -2.8645,-2.1605 -1.339,-2.0436 -1.6796,-5.0372 -1.6853,-14.8121 -0.01,-11.9168 -0.099,-12.4343 -3.3856,-18.9759 -1.8581,-3.6988 -3.3784,-7.6097 -3.3784,-8.691 0,-1.0813 -0.3946,-2.2099 -0.877,-2.508 -0.4823,-0.2981 -1.3615,-2.4622 -1.9537,-4.809 -0.5921,-2.3469 -1.6746,-5.0827 -2.4054,-6.0798 -1.283,-1.7503 -1.3347,-1.7503 -1.5009,0 -0.095,0.9971 -0.4503,3.3878 -0.7903,5.3128 -0.34,1.925 -0.6264,4.6187 -0.6365,5.986 -0.024,3.2866 -1.5532,6.014 -3.3713,6.014 -2.2851,0 -2.2217,-6.6146 0.2106,-22 1.6921,-10.7026 1.7224,-13.1963 0.2555,-21 -0.5686,-3.025 -1.3792,-7.631 -1.8013,-10.2355 -0.7866,-4.8542 -2.1641,-7.6151 -2.0861,-4.1812 0.024,1.0542 0.413,3.8265 0.8646,6.1607 0.9952,5.1439 -0.6802,8.52 -3.1931,6.4345 -1.3373,-1.1099 -3.5904,-10.3481 -3.8238,-15.6785 -0.6106,-13.9472 -0.5303,-45.2528 0.127,-49.5 0.4682,-3.025 1.3826,-10.225 2.0319,-16 1.6355,-14.5443 2.7328,-23.0574 3.3514,-26 2.1119,-10.0465 3.9257,-29.2404 4.1578,-44 0.1514,-9.625 0.5913,-18.5174 0.9775,-19.7609 0.3862,-1.2436 1.7734,-2.5298 3.0826,-2.8584 2.7613,-0.6931 3.2035,-2.3735 0.6305,-2.396 -0.9882,-0.01 -1.3147,-0.3351 -0.75,-0.75 0.55,-0.4041 1.1125,-1.2972 1.25,-1.9847 0.4069,-2.0341 -7.0117,-1.4995 -17.3451,1.25 -5.1677,1.375 -9.6229,2.5 -9.9004,2.5 -0.2774,0 -0.5045,-1.0633 -0.5045,-2.363 0,-2.2748 -0.3637,-2.389 -9.75,-3.059 -12.6934,-0.9062 -22.8835,-2.3395 -27.25,-3.8329 -4.2514,-1.4541 -11,-5.4746 -11,-6.5532 0,-0.6773 -11.5251,-12.2699 -24.2988,-24.4411 -2.8027,-2.6705 -3.7843,-4.3249 -3.4116,-5.75 0.2878,-1.1004 0.1009,-2.0008 -0.4153,-2.0008 -1.8457,0 -7.3976,2.7184 -8.6594,4.2399 -1.0166,1.2258 -2.7928,1.4521 -8.5,1.0829 -3.9682,-0.2567 -8.4803,-0.4251 -10.027,-0.3741 -1.5467,0.051 -3.3097,-0.215 -3.9178,-0.5908 -0.6081,-0.3758 -3.4668,-0.7538 -6.3526,-0.84 -5.5228,-0.1648 -5.309,-0.017 -11.9479,-8.2409 -2.5298,-3.1336 -6.4696,-12.7081 -6.4696,-15.7224 0,-2.6391 -4.8969,-12.3011 -6.5574,-12.9383 -0.8828,-0.3387 -2.5686,0.059 -3.7463,0.8839 -1.312098,0.9191 -1.603398,1.4998 -0.7521,1.4998 0.764,0 1.1065,0.2827 0.761,0.6282 -0.3456,0.3455 -2.607598,-0.3022 -5.026798,-1.4393 -4.8919,-2.2995 -9.6784,-7.3472 -9.6784,-10.2066 0,-1.0254 -0.45,-2.1424 -1,-2.4823 -0.55,-0.3399 -1.009,-4.079 -1.0201,-8.309 -0.011,-4.2301 -0.4409,-10.6028 -0.9552,-14.1617 -0.7868,-5.4443 -0.6793,-6.7534 0.6775,-8.2527 1.4925,-1.6491 1.421,-2.1361 -0.9581,-6.5293 -1.6753,-3.0935 -2.4722,-5.9577 -2.2876,-8.2217 0.1941,-2.38 -0.7652,-5.5298 -3.0455,-10 -7.9833,-15.6495 -8.3104,-17.4143 -7.2331,-39.0256 0.3765,-7.55385 0.8407,-9.24365 4.1697,-15.17975 5.0643,-9.0306 7.8329,-16.36441 11.0879,-29.37141 1.5069,-6.0219 3.6351,-14.0389 4.7293,-17.8155 l 1.9894,-6.8667 -2.3271,-4.6333 c -1.2799,-2.5484 -2.6188,-4.7681 -2.9753,-4.9328 -0.3565,-0.1646 -0.4097,-2.0771 -0.1183,-4.25 0.4296,-3.2031 0.2212,-3.9506 -1.1018,-3.9506 -0.8974,0 -1.6317,-0.4 -1.6317,-0.8889 0,-0.4888 0.7875,-0.8263 1.75,-0.75 1.2371,0.098 1.75,-0.5939 1.75,-2.3611 0,-1.375 0.45,-2.8375 1,-3.25 0.6288,-0.4716 0.4432,-1.1494 -0.5,-1.8261 -1.1294,-0.8103 -1.1912,-1.2014 -0.25,-1.5833 0.6875,-0.279 1.25,-1.6089 1.25,-2.9553 0,-1.3464 0.675,-2.7071 1.5,-3.0236 0.825,-0.3166 1.5,-1.1884 1.5,-1.9373 0,-0.7995 -0.6192,-1.124 -1.5,-0.786 -1.1029,0.4232 -1.5,-0.1324 -1.5,-2.0988 0,-2.2721 0.3384,-2.5904 2.25,-2.1162 1.2375,0.307 1.66,0.2907 0.9389,-0.036 -1.0562,-0.4789 -1.0249,-0.9146 0.1607,-2.2408 0.8095,-0.9054 1.6975,-2.9962 1.9733,-4.6462 0.5102,-3.0523 3.1835,-11.2508 4.9405,-15.1514 0.532998,-1.1833 0.750498,-2.7583 0.483298,-3.5 -0.267098,-0.7418 0.051,-2.0236 0.7061,-2.8486 0.6555,-0.825 1.8029,-3.525 2.5497,-6 0.7468,-2.475 1.7081,-4.9738 2.1363,-5.5527 0.4283,-0.579 0.1222,-2.3179 -0.6801,-3.8643 -1.8547,-3.5749 -1.8533,-3.5831 0.6004,-3.5831 1.1324,0 1.81,-0.40282 1.5057,-0.89519 -0.3043,-0.49236 0.1299,-1.15739 0.965,-1.47783 2.4719,-0.94854 3.4809,-4.86362 1.7573,-6.81857 -0.8202,-0.93039 -1.5579,-2.77636 -1.6392,-4.10215 -0.1232,-2.00917 -0.4317,-2.23332 -1.8524,-1.34624 -2.357,1.47168 -3.5729,-0.0711 -1.3418,-1.70245 1.1901,-0.87019 1.9773,-3.08745 2.3042,-6.48967 0.3337,-3.47297 0.9468,-5.16787 1.8694,-5.16787 0.755,0 1.3727,-0.45 1.3727,-1 0,-0.55 -0.6838,-1 -1.5195,-1 -2.1973,0 -1.0858,-5.13421 1.4877,-6.87197 1.1175,-0.75459 2.0318,-2.29209 2.0318,-3.41667 0,-1.12458 -0.3375,-1.70719 -0.75,-1.29469 -0.4125,0.4125 -0.75,1.2375 -0.75,1.83333 0,0.59583 -0.5426,1.2642 -1.2058,1.48526 -2.0406,0.6802 -0.5267,-4.03793 1.944,-6.05882 1.244,-1.0175 1.7304,-1.5786 1.0809,-1.2469 -1.5156,0.77405 -2.7078,-1.07128 -1.2672,-1.96159 0.5965,-0.36864 0.8429,-1.29973 0.5477,-2.0691 -0.2952,-0.76937 -0.026,-1.39885 0.5985,-1.39885 0.6244,0 0.8531,-0.28216 0.5083,-0.62702 -0.3449,-0.34485 0.018,-2.17138 0.8069,-4.05895 1.3467,-3.22306 1.4402,-8.69387 0.1704,-9.96373 -0.3132,-0.31314 -3.6538,-0.90794 -7.4237,-1.32177 -7.348598,-0.80667 -11.051598,-1.82403 -21.259998,-5.84103 -10.1174,-3.9812 -16.6395,-8.65878 -27.8444,-19.96957 -4.4174,-4.45913 -9.8446,-9.30733 -12.0606,-10.77378 -3.7525,-2.48331 -7.0971,-6.84784 -11.8787,-15.50137 -5.3822,-9.74049 -11.6939,-20.70953 -13.2015,-22.94278 -4.638,-6.87038 -13.8816996,-30.11699 -18.0923996,-45.5 -4.7388,-17.31213 -2.02520001,-35.3252 5.8872,-39.07985 4.4691996,-2.12082 10.5607996,-1.35422 13.8889996,1.74788 1.376,1.28258 3.7847,4.86284 5.3525,7.95613 1.5679,3.09329 3.4353,5.85686 4.1498,6.14127 0.7145,0.28441 2.4241,2.69009 3.7991,5.34596 2.7946,5.39784 2.5205,4.98181 7.9039,11.99795 2.1561,2.81013 5.3045,7.53513 6.9963,10.5 1.6919,2.96486 4.8994,7.34215 7.1279,9.72731 2.7115,2.90216 3.8653,4.92393 3.4882,6.11206 -0.4216,1.32825 1.1425,3.05659 6.2101,6.86226 3.7255,2.79777 7.8986,5.93697 9.2736,6.97602 1.375,1.03904 5.875,3.14838 10,4.68742 4.125,1.53905 9.0337,3.93909 10.9082,5.33342 2.680198,1.99375 4.421098,2.48894 8.151698,2.31871 5.6223,-0.25653 16.9966,3.17333 19.426,5.85781 0.9361,1.03442 2.2461,1.67202 2.911,1.41687 1.5234,-0.58459 7.899,2.03747 9.9561,4.09464 1.4031,1.40305 1.6624,1.18483 2.6975,-2.26986 0.9381,-3.13106 0.8549,-4.51664 -0.4597,-7.6631 -1.6254,-3.88993 -1.3738,-4.98025 1.8602,-8.0629 0.5769,-0.55 1.818,-2.66394 2.7579,-4.69765 1.6735,-3.62109 1.6573,-3.78998 -0.7827,-8.15557 -1.3704,-2.45185 -3.1519,-4.71128 -3.9589,-5.02096 -0.807,-0.30968 -1.4673,-1.49682 -1.4673,-2.63809 0,-1.19767 -2.3255,-4.3455 -5.5,-7.44477 -3.025,-2.95334 -5.5,-5.6888 -5.5,-6.07878 0,-0.38999 0.635,-0.18212 1.411,0.46193 1.588,1.31789 3.1636,-0.18742 2.062,-1.96991 -0.3548,-0.5741 -0.1013,-1.6991 0.5634,-2.5 0.97,-1.16876 0.9016,-1.4562 -0.3465,-1.4562 -0.8553,0 -1.873,-1.0125 -2.2615,-2.25 -0.3885,-1.2375 -1.7688,-3.24101 -3.0673,-4.45225 -1.2986,-1.21124 -2.3611,-2.88291 -2.3611,-3.71482 0,-0.83191 -0.9,-1.99423 -2,-2.58293 -1.4092,-0.7542 -2,-2.09382 -2,-4.53518 0,-1.90565 -0.4059,-3.46482 -0.9021,-3.46482 -0.4962,0 -1.3556,-1.2375 -1.9097,-2.75 -0.5541,-1.5125 -2.0606,-3.87669 -3.3478,-5.25376 -2.5973,-2.77863 -6.8404,-10.14923 -6.8404,-11.88239 0,-0.61262 0.9,-1.11385 2,-1.11385 2.0821,0 2.8792,-3.3386 1.0649,-4.45992 -0.5143,-0.31787 -2.2573,-3.0191 -3.8733,-6.00273 -2.9352,-5.41923 -2.9363,-5.42792 -1.0796,-8.48107 2.8983,-4.76593 5.7667,-4.09462 11.5095,2.69372 7.819,9.24251 9.2691,10.69277 9.9804,9.98148 0.3697,-0.36971 -0.177,-2.66106 -1.2148,-5.09189 -1.997,-4.67726 -8.3072,-12.13116 -22.6371,-26.73988 -4.812498,-4.90617 -8.749998,-9.65356 -8.749998,-10.54976 0,-0.89621 0.7582,-2.18386 1.6849,-2.86145 1.5763,-1.1526 1.5686,-1.53618 -0.1182,-5.95314 -3.374,-8.83456 1.7629,-13.02523 7.091598,-5.78536 3.6549,4.96574 21.1194,21.81179 21.847,21.07334 0.7536,-0.76482 -11.1061,-18.1077 -15.674,-22.92068 -0.7322,-0.77146 -2.3414,-3.42766 -3.5761,-5.90266 -2.5701,-5.15215 -4.4512,-8.26985 -5.442098,-9.02007 -1.1016,-0.83394 -4.8131,-9.98166 -4.8131,-11.86284 0,-4.47509 6.311398,-5.72249 8.181998,-1.61709 0.971,2.13106 2.818,3.47279 2.818,2.04705 0,-1.05367 -2.5325,-6.09908 -3.3546,-6.68332 -1.3148,-0.93434 -1.0906,-5.62238 0.3521,-7.36065 0.6861,-0.82669 2.0063,-1.50308 2.9339,-1.50308 0.9275,0 2.5599,-0.64159 3.6275,-1.42575 1.8697,-1.37327 1.8767,-1.5354 0.1911,-4.40429 -2.5459,-4.33324 -2.2089,-5.6594 2.276,-8.95768 3.4828,-2.56128 4.6499,-2.89043 8.6499,-2.43957 3.3281,0.37513 4.4252,0.19978 3.9149,-0.62577 -1.1535,-1.86647 3.5912,-1.36068 8.2214,0.8764 2.3033,1.11284 4.1878,2.46284 4.1878,3 0,0.53716 0.4766,0.97666 1.0591,0.97666 0.5824,0 0.7934,-0.42969 0.4688,-0.95486 -0.3245,-0.52517 -0.6441,-4.52269 -0.7101,-8.88337 -0.1015,-6.70493 0.2224,-8.40949 2.0992,-11.04514 1.2206,-1.71415 2.6386,-3.11663 3.1511,-3.11663 0.5126,0 0.9319,-0.8632 0.9319,-1.91821 0,-3.27704 1.0776,-4.9666 4.5273,-7.09866 4.5094,-2.78693 7.3568,-1.88359 12.9665,4.11365 2.5225,2.69677 4.8509,4.90322 5.1741,4.90322 1.6202,0 -1.1856,-9.03726 -4.4455,-14.31877 -3.4704,-5.62247 -3.6947,-6.47571 -3.5733,-13.59018 0.1739,-10.18565 2.7252,-19.4583 7.122,-25.88496 1.992,-2.91166 7.8027,-8.98666 12.9125,-13.5 5.1099,-4.51335 9.2965,-8.77467 9.3036,-9.4696 0.01,-0.69494 4.216,-5.86994 9.3533,-11.5 5.1372,-5.63007 9.9312,-11.36149 10.6533,-12.73649 1.7757,-3.38136 9.4537,-13.48497 14.4387,-19 7.917,-8.75896 25.3473,-22.01915 32.2953,-24.56888 6.5129,-2.39007 7.5805,-3.49003 6.4003,-6.59426 -1.116,-2.93536 0.5144,-7.14144 6.2174,-16.03902 3.4219,-5.33881 16.6637,-19.07141 20.5366,-21.29784 4.2086,-2.41941 8.9688,-6.97413 7.9481,-7.60498 -1.5503,-0.9581 -0.267,-2.56858 2.6251,-3.29445 1.3608,-0.34154 3.6173,-1.76403 5.0144,-3.16109 1.397,-1.39707 4.0004,-3.17486 5.7852,-3.95066 1.7848,-0.77579 2.5701,-1.43504 1.7451,-1.46499 -1.3333,-0.0484 -1.3333,-0.16216 0,-1.02383 1,-0.64625 1.0834,-0.97448 0.25,-0.98469 -0.756,-0.009 -0.4596,-0.80563 0.75,-2.01531 1.1,-1.1 2.4508,-1.8875 3.0018,-1.75 0.9922,0.24764 3.3792,-3.12611 4.5989,-6.5 0.3616,-1.00021 1.6538,-1.75 3.016,-1.75 1.3108,0 2.3833,-0.45 2.3833,-1 0,-0.55 0.5191,-1 1.1534,-1 0.6344,0 3.6719,-2.31125 6.75,-5.13611 3.0782,-2.82487 7.4242,-6.8136 9.658,-8.86385 2.2337,-2.05026 5.0462,-4.25484 6.25,-4.89907 1.2037,-0.64424 2.1886,-2.08583 2.1886,-3.20354 0,-1.51937 0.4651,-1.8846 1.8429,-1.4473 1.0408,0.33033 2.8905,-0.20538 4.25,-1.23086 1.3239,-0.99867 6.0071,-2.85595 10.4071,-4.12729 4.4,-1.27134 9.1945,-2.93713 10.6543,-3.70175 1.4599,-0.76463 3.3117,-1.39023 4.1152,-1.39023 0.8034,0 2.6604,-0.94358 4.1265,-2.09684 2.1689,-1.70604 2.9441,-1.86586 4.159,-0.8575 0.8214,0.68164 1.807,0.92575 2.1902,0.54247 0.3833,-0.38328 0.035,-1.11552 -0.7741,-1.62719 -1.162,-0.73487 -0.9984,-0.93353 0.7789,-0.94563 1.2375,-0.008 2.25,0.52469 2.25,1.18469 0,0.93333 0.2667,0.93333 1.2,0 0.66,-0.66 1.9918,-1.2 2.9596,-1.2 0.9677,0 2.8193,-1.14291 4.1145,-2.53979 l 2.355,-2.53979 2.6855,2.11237 c 2.9476,2.31857 3.7463,1.22303 0.9354,-1.28314 -2.1745,-1.93886 -13.9148,-6.75147 -14.6577,-6.00855 -0.2999,0.29983 -0.8393,-0.22131 -1.1988,-1.15811 -0.3595,-0.9368 -2.3951,-2.40007 -4.5235,-3.25171 -4.5549,-1.82252 -4.9549,-3.95848 -1.4944,-7.98149 2.2359,-2.59946 2.5975,-2.69362 6.1529,-1.60243 2.4745,0.75945 4.3918,0.83049 5.5587,0.20598 2.6361,-1.41076 3.2051,-1.1789 2.6178,1.06668 -0.3984,1.52378 0.2441,2.41941 2.6156,3.64577 1.7291,0.89416 4.9399,3.33464 7.135,5.4233 2.1951,2.08865 4.167,3.62173 4.3818,3.40683 0.8102,-0.81015 -4.4326,-8.07579 -9.3383,-12.94137 -6.2248,-6.17396 -8.3401,-9.99322 -6.8508,-12.36965 2.1318,-3.40141 4.7827,-2.43872 11.6531,4.23176 3.6843,3.57704 6.6986,6.77665 6.6986,7.11025 0,0.33359 1.0613,2.03901 2.3583,3.78981 1.297,1.7508 2.9478,4.56889 3.6685,6.2624 1.0326,2.42669 1.7961,2.98625 3.6032,2.64078 l 2.293,-0.43834 -2.5654,-5.06264 c -3.154,-6.22418 -11.5056,-17.30144 -15.7259,-20.85838 -1.7224,-1.4517 -3.9265,-4.00855 -4.898,-5.68188 -1.7254,-2.97206 -1.7161,-3.07759 0.4046,-4.56298 2.7948,-1.95755 3.9426,-1.30901 11.6045,6.55702 7.7928,8.00049 15.0015,17.27954 16.8371,21.67272 1.205,2.88391 1.6516,3.20739 2.9455,2.13356 1.2558,-1.04227 1.2987,-1.5494 0.2429,-2.87236 -0.7052,-0.88364 -2.3946,-3.74412 -3.7543,-6.35662 -1.3597,-2.6125 -3.0441,-4.75 -3.7431,-4.75 -0.7464,0 -1.2709,-1.24246 -1.2709,-3.0109 0,-1.65599 -0.8598,-4.91849 -1.9107,-7.25 -1.0509,-2.3315 -2.8762,-7.12635 -4.0561,-10.65521 l -2.1454,-6.41612 2.1096,-2.08388 c 2.0864,-2.06098 2.1219,-2.06228 3.2267,-0.11783 0.6144,1.08133 2.1654,3.01428 3.4465,4.29545 1.2812,1.28117 2.3294,2.70384 2.3294,3.1615 0,0.45766 0.6701,1.38819 1.489,2.06785 0.819,0.67967 1.2198,1.67133 0.8908,2.20371 -0.329,0.53237 0.6601,2.28138 2.1981,3.88669 1.538,1.60531 2.3746,2.93242 1.8592,2.94915 -0.5154,0.0167 -0.1401,0.49438 0.834,1.06146 0.974,0.56708 1.5132,1.44824 1.198,1.95814 -0.3151,0.50989 0.1,0.66895 0.9219,0.35346 1.1329,-0.43475 1.2731,-1.1568 0.579,-2.98237 -1.0321,-2.71476 -3.8447,-7.29229 -5.6339,-9.16945 -0.6545,-0.6866 -1.9844,-3.0491 -2.9554,-5.25 -0.9711,-2.20091 -2.054,-4.00165 -2.4064,-4.00165 -0.3525,0 -0.6722,-0.5625 -0.7104,-1.25 -0.038,-0.6875 -0.3854,-2.6672 -0.7715,-4.39933 -0.5924,-2.65712 -0.3722,-3.25405 1.409,-3.81936 2.0388,-0.6471 3.8175,0.83759 8.8267,7.36772 0.6755,0.88053 3.07,3.99079 5.3213,6.91167 3.7569,4.8745 6.7561,11.59607 8.9095,19.96765 0.4638,1.80309 1.4117,3.96318 2.1063,4.80019 1.125,1.35552 1.4276,1.35723 2.7692,0.0157 1.3062,-1.30615 1.3312,-2.27563 0.1889,-7.30019 -0.7245,-3.1867 -1.9261,-6.79068 -2.6703,-8.00883 -0.7441,-1.21819 -1.353,-3.17947 -1.353,-4.35844 0,-1.75982 -0.4271,-2.03639 -2.3858,-1.54478 -1.8909,0.47458 -2.5105,0.13398 -2.9864,-1.64159 -0.8369,-3.12252 -0.7754,-3.74041 0.3722,-3.74041 0.55,0 1,0.675 1,1.5 0,0.825 0.7232,1.5 1.607,1.5 1.1278,0 1.4004,-0.5219 0.9142,-1.75 -0.3811,-0.9625 -1.1977,-4.11542 -1.8148,-7.00649 -0.964,-4.51649 -0.8925,-5.48599 0.5083,-6.88674 0.8966,-0.89664 2.3376,-1.35881 3.2022,-1.02704 2.9321,1.12513 11.1535,21.22384 12.8367,31.38127 0.7348,4.43451 1.3753,6.0601 2.1017,5.33376 0.5746,-0.57462 2.5619,-1.04476 4.4162,-1.04476 3.8921,0 6.9491,-2.39316 5.4645,-4.27788 -0.5295,-0.67217 -1.7638,-4.59712 -2.7428,-8.72212 -0.9791,-4.125 -3.3161,-10.57703 -5.1935,-14.33784 -4.0011,-8.01542 -4.2035,-12.96278 -0.5514,-13.48148 2.4767,-0.35178 8.2517,3.25617 8.2517,5.15528 0,0.65987 1.0417,2.76673 2.3148,4.68191 2.4853,3.73881 6.6852,14.62913 6.6852,17.3348 0,0.90603 0.4,1.64733 0.8889,1.64733 0.4889,0 0.868,0.5625 0.8425,1.25 -0.1139,3.06546 0.3459,4.75 1.2965,4.75 1.2263,0 0.1894,-12.99121 -1.1534,-14.45 -0.481,-0.5225 -0.8745,-2.00735 -0.8745,-3.29966 0,-1.29231 -0.6181,-3.56481 -1.3735,-5.05 -0.7555,-1.48519 -2.5806,-6.22389 -4.056,-10.53045 -2.959,-8.63755 -2.4511,-11.04163 2.2122,-10.47045 1.9182,0.23496 3.2465,1.84476 6.0856,7.37571 7.0735,13.78021 11.0645,24.59299 11.1071,30.09306 0.034,4.45022 0.9451,6.33179 3.064,6.33179 1.5445,0 1.763,-0.65399 1.4197,-4.25 -0.7103,-7.43995 -3.5891,-22.04735 -5.5565,-28.19417 -2.4739,-7.72908 -2.4136,-10.21196 0.2828,-11.65502 1.9076,-1.02095 2.5271,-0.78699 4.8754,1.84121 1.4796,1.65593 2.9055,3.6289 3.1686,4.38438 0.3837,1.10152 0.8696,1.02697 2.4533,-0.3764 2.4679,-2.18695 5.681,-2.24349 7.7874,-0.13704 2.7339,2.73387 8.5299,12.3304 8.5299,14.12302 0,2.57878 3.146,10.26402 4.2016,10.26402 0.5115,0 1.7293,-0.42782 2.7063,-0.95071 1.9374,-1.03685 1.9385,-0.58501 -0.041,-16.71707 -1.0225,-8.3313 -1.0107,-10.45355 0.065,-11.75 1.6256,-1.95873 4.9466,-1.98903 7.485,-0.0683 1.7291,1.30842 2.0249,1.23192 3.0232,-0.78181 1.5881,-3.20377 6.1291,-3.4771 9.2805,-0.5586 1.3817,1.27956 4.0699,5.58897 5.9739,9.57647 3.6101,7.56057 4.7191,8.60111 5.5954,5.25 0.2994,-1.14494 0.029,-2.00655 -0.6333,-2.01531 -0.8454,-0.0112 -0.8543,-0.21293 -0.033,-0.75 1.3536,-0.88535 -0.9136,-10.75789 -3.0295,-13.1919 -0.7456,-0.85768 -1.2863,-3.54111 -1.2175,-6.04279 0.1167,-4.24681 0.2943,-4.51672 3.1562,-4.79714 2.4941,-0.24438 3.6353,0.42139 6.4279,3.75 1.8676,2.22593 3.7383,4.04714 4.1572,4.04714 0.4189,0 0.9013,-1.68548 1.072,-3.74551 0.2726,-3.2891 0.676,-3.80746 3.3104,-4.25396 2.7387,-0.46417 3.0917,-0.98688 4.0533,-6.00151 0.8123,-4.236759 1.6128,-5.776249 3.5,-6.731299 4.0166,-2.03272 6.7354,-1.46264 10.6546,2.23408 l 3.7126,3.501799 1.3858,-3.474509 c 1.1048,-2.76984 2.0911,-3.60683 4.8635,-4.12693 3.2651,-0.61253 3.4646,-0.87401 3.2642,-4.27729 -0.3419,-5.8044 -0.052,-6.86085 2.0354,-7.4066 2.1591,-0.56464 8.9328,3.95148 8.9942,5.99655 0.034,1.11604 3.0359,3.28518 4.5473,3.28518 0.3533,0 0.4974,-1.68241 0.3202,-3.73868 -0.2807,-3.25836 0.038,-3.91149 2.4841,-5.08368 3.661,-1.75466 5.1665,-1.07215 7.2308,3.27811 0.9335,1.96709 2.0728,3.80867 2.5319,4.09241 0.4591,0.28374 0.5791,1.18221 0.2665,1.9966 -0.3125,0.81439 -0.1267,2.03748 0.4129,2.71797 0.7669,0.96735 5.3708,14.402179 5.7355,16.737269 0.043,0.275 0.6432,1.51759 1.3339,2.76131 0.6907,1.24373 1.1662,2.81873 1.0568,3.5 -0.2214,1.3783 0.9529,4.62224 2.3137,6.39175 0.6604,0.85875 1.897,0.75622 4.8448,-0.40169 2.1769,-0.85511 3.958,-1.97224 3.958,-2.4825 0,-0.51027 -1.1592,-3.92951 -2.5759,-7.59831 -1.4167,-3.66881 -3.063,-8.02056 -3.6584,-9.67056 -1.7993,-4.98647 -5.8407,-13.428339 -6.6757,-13.944359 -1.1845,-0.73207 -1.1161,-6.8193 0.093,-8.27621 1.8045,-2.17428 5.1512,-1.38235 9.067,2.14552 2.0625,1.8582 3.75,3.71683 3.75,4.1303 0,0.71189 2.1932,5.65626 7.5164,16.944749 1.2968,2.75 3.0509,6.575 3.8979,8.5 1.3531,3.07496 1.5429,3.20338 1.5629,1.05754 0.019,-2.0692 -2.1108,-16.238699 -3.5789,-23.807539 -0.24,-1.23748 -1.1028,-2.24998 -1.9173,-2.24998 -0.8145,0 -1.481,-0.45 -1.481,-1 0,-0.55 -1.0125,-1.0522 -2.25,-1.116 -2.0333,-0.10483 -2.0574,-0.16233 -0.25,-0.59706 3.5055,-0.84317 3.8096,-1.98477 1.9248,-7.22602 -1.6408,-4.563044 -1.6716,-5.242624 -0.2999,-6.614334 2.4975,-2.49751 6.0856,-0.28154 10.4385,6.446764 3.4512,5.33441 4.2447,6.01441 6.4346,5.51441 1.3739,-0.31368 2.642,-0.71436 2.818,-0.89041 0.1761,-0.17604 -0.3987,-2.72696 -1.2773,-5.66871 -1.5585,-5.218414 -1.5453,-5.391254 0.5427,-7.098644 1.1771,-0.9625 2.7275,-1.75 3.4454,-1.75 1.4549,0 7.4732,7.162414 7.4732,8.893914 0,0.60835 0.3477,1.10609 0.7726,1.10609 0.425,0 1.6208,1.575 2.6575,3.5 2.3323,4.33074 3.3511,4.42589 3.7566,0.35085 0.38,-3.81864 3.011,-5.8347 5.5633,-4.26295 0.9625,0.59272 3.4959,3.5914 5.6297,6.66373 2.4685,3.55408 4.3875,5.39122 5.2756,5.05043 1.123,-0.43095 1.1529,-0.82832 0.1528,-2.03338 -1.8898,-2.27703 3.4878,-6.65827 7.0827,-5.77044 6.1714,1.52414 9.8937,8.37501 10.596,19.501759 0.1562,2.475 0.3356,5.09239 0.3986,5.81642 0.072,0.82765 1.1357,1.19894 2.8646,1 2.0798,-0.2393 2.6915,-0.80386 2.51,-2.31642 -0.9351,-7.792529 -4.34,-22.828089 -5.4913,-24.249089 -2.2441,-2.76969 4.1774,-11.793104 7.8845,-11.079194 1.8597,0.35815 6.18,7.929264 6.2878,11.019274 0.096,2.74704 2.0487,3.16731 4.41,0.94906 3.639,-3.41867 6.4539,-1.84704 9.7629,5.45081 2.7778,6.12637 2.9361,6.27538 6.1189,5.76195 2.6226,-0.42305 3.7467,-0.0154 5.6973,2.06614 2.0831,2.22299 2.4417,3.613649 2.5118,9.741229 0.073,6.40632 0.315,7.2521 2.3295,8.15101 1.2363,0.55164 2.5332,0.71757 2.882,0.36873 0.3489,-0.34884 0.1597,-3.90703 -0.4203,-7.90709 -1.0257,-7.07303 -0.9805,-7.38272 1.6479,-11.272829 1.4864,-2.2 3.5837,-4.11506 4.6608,-4.2557 2.6375,-0.34439 6.73568,5.6642 8.84268,12.965029 0.9063,3.14013 2.3958,6.12797 3.3102,6.63965 0.9143,0.51169 2.5979,2.60139 3.7413,4.64379 1.5679,2.80072 3.306,4.17949 7.0715,5.60953 2.7459,1.04284 5.6675,1.86091 6.4925,1.81794 1.0255,-0.0534 1.1046,-0.23771 0.25,-0.58252 -0.6875,-0.27741 -1.25,-1.11007 -1.25,-1.85034 0,-0.74027 -1.8487,-4.1293 -4.1083,-7.53118 -3.5563,-5.35405 -3.9623,-6.50579 -3.0214,-8.57071 1.7304,-3.798 6.1314,-2.99848 12.4563,2.26292 1.8199,1.51394 3.6005,2.16372 5,1.8246 1.5378,-0.37264 4.8805,1.25213 11.4294,5.55548 9.0205,5.92741 11.9269,6.69087 10.9279,2.87054 -0.5157,-1.97193 2.7103,-6.89903 4.5171,-6.89903 0.5808,0 2.6856,1.3875 4.6775,3.08333 8.9645,7.63219 19.5539,15.91667 20.345,15.91667 0.7734,0 0.5081,-3.31804 -0.7699,-9.6294 -0.6124,-3.02483 3.0964,-7.3706 6.2904,-7.3706 1.7747,0 3.9663,1.4271 6.9106,4.5 4.6236,4.82538 5.3454,5.25145 5.3454,3.15499 0,-1.80048 3.2528,-4.65499 5.3045,-4.65499 0.9059,0 3.0803,1.575 4.832,3.5 3.9675,4.35998 4.8635,4.38854 4.8635,0.15499 0,-3.16048 2.4093,-6.65499 4.5882,-6.65499 1.2171,0 3.0638,2.94021 7.2233,11.5 1.8709,3.85 4.2416,7.91619 5.2683,9.03597 1.0267,1.11978 2.7484,4.796 3.8261,8.16937 1.0777,3.37337 2.7293,7.62229 3.6703,9.44203 l 1.711,3.30863 0.9233,-2.478 c 1.0432,-2.79994 0.3623,-13.70033 -1.185,-18.9714 -1.668,-5.68228 -1.2888,-12.45835 0.8033,-14.35161 3.6606,-3.31279 6.3247,-1.09212 9.1229,7.60422 0.6652,2.06756 1.5639,3.54016 1.9971,3.27244 0.847,-0.52347 2.0042,-7.66185 2.6791,-16.52697 0.4955,-6.50949 2.8542,-9.60246 6.6049,-8.66111 2.7395,0.68758 7.2284,8.72545 8.3247,14.90643 0.3658,2.0625 0.9525,3.7492 1.3038,3.74821 0.3513,-9.8e-4 1.8203,-1.91348 3.2644,-4.25 1.9261,-3.11633 2.7728,-6.11327 3.1777,-11.24821 0.6596,-8.364789 1.0913,-9.640859 3.8426,-11.359109 3.406,-2.12705 4.6689,0.22077 5.0342,9.359109 0.1759,4.4 0.7522,8 1.2806,8 0.5285,0 3.0035,-3.86321 5.5,-8.58491 4.6472,-8.789129 14.32644,-22.068979 18.31104,-25.122709 1.2255,-0.93919 3.6973,-2.89728 5.493,-4.351324 4.3801,-3.54685 6.6029,-2.68403 5.9706,2.317554 -0.4158,3.2893 -1.1339,5.9852 -4.2954,16.12527 -0.5649,1.81159 -0.4068,2.27183 0.6584,1.91713 0.7709,-0.25671 1.5591,-1.32945 1.7516,-2.38388 0.1925,-1.05442 1.655,-4.76102 3.25,-8.2369 1.595,-3.47587 2.9,-6.9792 2.9,-7.78518 0,-2.401204 3.1614,-6.499424 7.3598,-9.540724 4.2886,-3.10664 6.6402,-2.57021 6.6402,1.51471 0,2.53723 -4.8749,17.725894 -6.1242,19.080964 -1.165,1.26366 -1.1119,2.55 0.1051,2.55 0.5396,0 1.2778,-1.2375 1.6406,-2.75 0.3628,-1.5125 2.3912,-5.74476 4.5077,-9.40502 2.1164,-3.660264 4.3298,-7.935264 4.9187,-9.500004 2.0006,-5.3166 9.2445,-15.44484 12.104,-16.92353 1.5665,-0.81005 2.8481,-1.91125 2.8481,-2.44713 0,-0.53587 0.8519,-0.97432 1.893,-0.97432 2.0438,0 3.4021,2.21123 2.2287,3.62815 -0.3971,0.47952 -1.7339,3.57185 -2.9707,6.87185 -2.0768,5.54149 -3.1759,8.07366 -7.5539,17.403644 -2.0715,4.41461 -2.0226,6.75273 0.1529,7.31697 2.7769,0.72021 4.25,-0.20493 4.25,-2.66908 0,-1.255 0.8787,-3.39888 1.9526,-4.76419 2.1478,-2.730414 9.0437,-17.972664 10.9882,-24.287344 2.2297,-7.24121 4.0838,-10.41701 7.6854,-13.16408 4.0225,-3.06812 6.6227,-2.43104 7.2085,1.76621 0.6335,4.53939 1.8407,3.94795 5.1171,-2.50726 1.8068,-3.55958 4.13,-7.3789 5.1627,-8.48737 2.6334,-2.82664 8.5969,-3.82462 10.6409,-1.78072 1.4425,1.44254 1.3824,2.22465 -0.6817,8.87756 -3.3382,10.75916 -3.4409,12.46585 -0.7916,13.16192 1.2199,0.32049 2.3679,0.14419 2.5512,-0.39177 0.1834,-0.53597 0.9709,-0.97449 1.75,-0.97449 1.7507,0 1.8682,-1.65011 0.1667,-2.34053 -0.8111,-0.32913 -0.8983,-0.79726 -0.2484,-1.33334 0.5509,-0.45437 1.6563,-2.0952 2.4565,-3.6463 0.8002,-1.55109 2.4037,-3.80109 3.5634,-5 1.1596,-1.1989 3.3338,-3.81986 4.8317,-5.82434 3.5722,-4.78058 8.1394,-6.79144 10.3666,-4.56423 1.4512,1.45115 1.2378,2.17667 -2.4702,8.39855 -2.2322,3.74561 -3.8873,7.08734 -3.678,7.42608 0.2094,0.33874 1.5112,0.39979 2.8929,0.13565 1.3817,-0.26413 2.3111,-0.80557 2.0654,-1.2032 -1.1105,-1.79675 16.993,-20.88012 21.9701,-23.15928 3.7135,-1.70052 4.0894,-1.71287 5.2477,-0.1724 1.0226,1.35991 0.93,2.0314 -0.5131,3.72133 -2.7364,3.2045 -5.4584,8.56201 -4.3502,8.56201 0.5487,0 1.2617,-0.42737 1.5845,-0.94972 1.142,-1.8478 12.2188,-9.77772 18.7943,-13.45498 7.8267,-4.37695 13.0105,-4.68994 13.5598,-0.81874 0.2507,1.76693 -0.3516,2.51174 -2.6905,3.3271 -1.8756,0.65383 -3.1305,1.85572 -3.3231,3.18272 -0.231,1.59216 -1.3181,2.34073 -4.2921,2.95562 -4.5362,0.93788 -7.0191,2.71339 -3.9673,2.83695 1.3682,0.0554 1.055,0.39731 -1.05,1.14605 -1.65,0.58691 -3.9,1.72495 -5,2.52898 -1.8833,1.3766 -1.825,1.42366 1,0.80678 1.65,-0.3603 4.2193,-1.53386 5.7095,-2.60792 1.4902,-1.07406 3.4216,-1.95284 4.2918,-1.95284 0.8703,0 2.5484,-0.9 3.7291,-2 1.1807,-1.1 2.998,-2 4.0384,-2 1.0404,0 3.768,-1.56593 6.0614,-3.47985 2.2934,-1.91391 7.3198,-6.1245 11.1698,-9.35686 7.9602,-6.6831595 12.2773,-9.16328952 15.9503,-9.16328952 1.8236,0 2.5497,0.53234002 2.5497,1.86937002 0,2.06013 -7.5912,12.1306295 -9.1441,12.1306295 -0.5357,0 -0.7077,0.43084 -0.3822,0.95741 0.3254,0.52658 -0.6933,1.62191 -2.2638,2.43407 -1.5706,0.81216 -3.4404,2.18132 -4.1552,3.04259 -2.275,2.7412 3.7374,1.92775 6.7851,-0.918 2.4985,-2.33298 9.1562,-6.64534 18.8871,-12.2337495 7.3348,-4.21235 11.8346,-1.78462 6.1969,3.3433695 -1.738,1.58087 -4.3063,4.11181 -5.7072,5.62431 -1.401,1.5125 -3.0927,2.75 -3.7595,2.75 -1.5112,0 -3.0024,1.81522 -3.9021,4.75 -0.5834,1.90305 -0.317,2.25 1.7276,2.25 1.3295,0 4.1723,-1.26309 6.3174,-2.80686 20.7575,-14.9392295 33.9864,-22.4597995 38.702,-22.0020095 1.979,0.19212 3.2981,0.92448 3.4898,1.93749 0.4004,2.11667 -2.3857,4.87138 -4.927,4.87138 -1.0958,0 -3.2012,1.1243095 -4.6786,2.4984595 -1.4774,1.37416 -4.6413,4.07416 -7.0308,6 -3.3057,2.66424 -3.8764,3.50154 -2.3864,3.50154 1.0771,0 3.0321,-1.03943 4.3446,-2.30986 1.3125,-1.27042 4.6364,-3.62719 7.3864,-5.23726 2.75,-1.61007 5.9,-3.4779795 7,-4.1509195 1.1,-0.67293 2.675,-1.52204 3.5,-1.88691 0.825,-0.36487 3.9169,-1.73252 6.8708,-3.03922 6.328,-2.7992 8.956,-2.99062 9.8289,-0.71593 0.6266,1.63277 -3.9204,6.29537 -6.1997,6.35737 -0.55,0.015 -2.125,0.9312795 -3.5,2.0362695 -1.375,1.10498 -4.75,3.54149 -7.5,5.41447 -2.75,1.87297 -6.5508,5.00889 -8.4462,6.9687 -2.9153,3.01437 -3.1463,3.56263 -1.5,3.55899 1.0704,-0.002 4.4212,-1.88529 7.4462,-4.18427 3.025,-2.29898 10.2572,-7.35955 16.0715,-11.2457 14.1349,-9.4474695 13.9599,-9.3360695 17.6982,-11.2664895 3.034,-1.56673002 3.3882,-1.56991002 4.9141,-0.044 1.3577,1.35767 1.4201,1.91472 0.3579,3.1946 -0.7076,0.8526 -1.9204,1.55018 -2.6949,1.55018 -0.7746,0 -3.5568,2.1375 -6.1825,4.7499995 -2.6258,2.6125 -7.2244,6.65104 -10.2192,8.97453 -2.9948,2.32349 -6.5701,5.12102 -7.9451,6.21673 l -2.5,1.9922 7.3167,0.0333 c 6.4582,0.0294 7.7372,-0.28746 10.9005,-2.7002 10.0742,-7.68394 28.7283,-18.2665295 32.1988,-18.2665295 1.0813,0 2.2563,0.46979 2.6112,1.04398 0.9418,1.52388 -2.1051,5.6918995 -4.7506,6.4984595 -3.1774,0.96877 -5.7766,3.44598 -5.7766,5.50556 0,1.83139 -1.9112,2.952 -5.0347,2.952 -3.6332,0 -6.9653,2.22954 -6.9653,4.66052 0,2.04701 0.4807,2.33948 3.845,2.33948 2.575,0 4.4429,-0.66059 5.655,-2 0.9955,-1.1 2.3027,-2.01422 2.905,-2.0316 1.517,-0.0438 5.4779,-3.70013 9.362,-8.64228 3.0988,-3.94286 3.5881,-4.18017 9.5,-4.60743 3.4282,-0.24775 8.033,-0.93996 10.233,-1.53825 4.9091,-1.3350195 8.2278,-0.61346 9.0468,1.96696 0.9888,3.11555 -1.3863,5.1053 -5.2327,4.38371 -3.0012,-0.56304 -3.3141,-0.39607 -3.3141,1.76859 0,2.69472 -2.8097,5.7003 -5.3287,5.7003 -1.1161,0 -1.6713,0.83059 -1.6713,2.5 0,1.375 0.44,2.5 0.9778,2.5 1.7819,0 22.02,-10.82037 25.1253,-13.43327 3.5205,-2.96233 9.8969,-3.62938 9.8969,-1.03534 0,0.84226 -0.622,1.77008 -1.3823,2.06183 -1.744,0.66924 -7.9887,8.36916 -7.3253,9.03248 0.2712,0.27123 4.7039,-0.85803 9.8504,-2.50946 19.7826,-6.34796 24.6985,-7.4928 26.3366,-6.13335 0.8363,0.6941 1.5206,2.0669 1.5206,3.05066 0,2.21532 -4.6081,6.19456 -9.1171,7.87292 -3.1559,1.1747 -5.9952,2.48679 -13.0357,6.024 -1.566,0.78676 -2.8472,2.02426 -2.8472,2.75 0,0.72574 -0.6232,1.31953 -1.385,1.31953 -0.7617,0 -2.1903,1.2375 -3.1746,2.75 -1.1234,1.7262 -1.2593,2.32047 -0.365,1.59627 1.2405,-1.00463 5.3538,-3.32529 12.4246,-7.00982 1.1,-0.57319 3.575,-1.72029 5.5,-2.54911 1.925,-0.82882 4.625,-1.99118 6,-2.58303 4.2736,-1.83951 16.1151,-4.37413 17.662,-3.78051 0.9221,0.35382 1.3535,1.58404 1.155,3.29301 -0.2589,2.22851 -1.2328,3.09917 -5.317,4.75369 -2.75,1.11403 -5.5946,2.5889 -6.3214,3.2775 -0.7268,0.6886 -1.9643,1.252 -2.75,1.252 -0.7857,0 -1.4286,0.45 -1.4286,1 0,1.97858 5.8651,0.92828 17.0029,-3.0448 9.0827,-3.23999 12.4473,-3.98615 16.9092,-3.75 4.8844,0.2585 5.7243,0.6172 6.8205,2.91293 l 1.2501,2.61812 6.13,-1.41617 c 3.3716,-0.7789 8.438,-1.28205 11.2587,-1.11813 4.9655,0.28858 5.1286,0.39343 5.1286,3.29805 0,2.9729 -0.09,3.02174 -10,5.40647 -5.5,1.32355 -11.35,2.97635 -13,3.67288 -1.65,0.69654 -4.219,1.57028 -5.709,1.94165 -1.4899,0.37138 -3.2325,1.30608 -3.8724,2.07712 -1.4384,1.7331 -1.133,1.73736 3.7057,0.0516 2.1316,-0.74266 4.4826,-1.14037 5.2243,-0.8838 0.7417,0.25657 2.3167,-0.005 3.5,-0.58158 1.1833,-0.57643 3.5014,-1.28293 5.1514,-1.56999 1.65,-0.28706 9.6515,-1.71048 17.7812,-3.16316 14.7192,-2.63016 17.7326,-2.66975 17.7035,-0.23258 -0.032,2.63963 -1.8306,3.87252 -10.0467,6.88499 -14.2048,5.20824 -17.323,6.43793 -20.438,8.05989 -1.65,0.85915 -3.5625,1.36134 -4.25,1.11597 -0.6875,-0.24537 -1.25,0.0737 -1.25,0.70916 0,1.26701 9.5341,0.47928 13.8785,-1.14666 4.986,-1.86605 25.5223,-5.84952 27.2802,-5.29159 2.3529,0.74677 2.4059,4.63575 0.091,6.70161 -0.9625,0.85908 -3.7305,2.08947 -6.151,2.7342 -2.4206,0.64473 -6.6956,2.23946 -9.5,3.54384 l -5.099,2.37161 3.2859,0.68136 c 1.8072,0.37475 3.8322,1.45398 4.5,2.39829 0.6677,0.944314 3.3775,2.671004 6.0217,3.837084 l 4.8077,2.12016 -0.6626,-2.08757 c -0.4839,-1.52474 -0.2973,-1.93839 0.6924,-1.53424 6.5341,2.66842 8.8816,2.91648 16.0212,1.69284 14.0111,-2.4013 21.668,-0.98537 25.3583,4.68934 3.4621,5.32383 7.6834,8.26393 11.9754,8.34086 8.1322,0.14577 31.3939,3.62728 32.9688,4.93434 0.8952,0.743 1.4935,2.290279 1.3295,3.438399 -0.2682,1.87668 -0.9043,2.06842 -6.2983,1.89846 -5.1829,-0.1633 -5.4855,-0.082 -2.222,0.59713 7.0613,1.46942 9.1166,8.25059 3.6752,12.12526 -5.6014,3.98856 -15.1392,3.49965 -13.5301,-0.69355 0.3353,-0.8738 -0.2575,-1.33446 -1.7045,-1.32448 -2.2077,0.0152 -6.2244,1.94018 -4.1094,1.96938 0.6101,0.008 3.1373,1.80054 5.6162,3.98248 2.4788,2.18195 4.6796,3.80911 4.8908,3.61592 1.2504,-1.14433 18.9225,1.51776 22.8838,3.44719 8.353,4.06846 12.954,10.33037 11.125,15.14093 -0.5219,1.37266 -0.632,3.00848 -0.2447,3.63518 0.3874,0.62669 5.6352,2.98842 11.662,5.24829 6.0267,2.25987 12.3902,5.19706 14.141,6.52709 1.7508,1.33003 3.6633,2.41823 4.25,2.41823 1.5407,0 1.3153,4.69063 -0.2543,5.29295 -0.7266,0.27881 -3.7497,-0.12305 -6.718,-0.89301 -9.4241,-2.4446 -13.1814,-1.80817 -15.4716,2.62065 -1.1245,2.17445 -1.1708,2.99149 -0.2131,3.7595 1.6253,1.30333 15.8609,7.21991 17.3714,7.21991 0.6521,0 1.3356,0.34476 1.519,0.76614 0.1833,0.42138 3.7083,2.7618 7.8333,5.20095 4.125,2.43915 8.5732,5.24438 9.8849,6.23386 1.3116,0.98948 3.3475,1.79905 4.5242,1.79905 1.1766,0 5.7284,2.05395 10.1151,4.56434 6.3545,3.63653 8.3288,4.34798 9.7122,3.5 2.484,-1.52256 4.491,-1.32665 8.6274,0.84215 6.6198,3.47086 22.9838,8.1213 33.8892,9.63089 5.9109,0.81821 11.422,1.74217 12.247,2.05326 2.2817,0.86036 22.4183,2.44455 32,2.51751 23.9614,0.18244 52.8725,-3.47001 66.0253,-8.34123 3.589,-1.32919 7.0346,-2.24696 7.657,-2.0395 0.6223,0.20746 2.7312,-0.29119 4.6864,-1.1081 1.9551,-0.81692 5.7095,-1.79722 8.343,-2.17846 2.6336,-0.38123 5.2383,-1.01656 5.7883,-1.41183 0.55,-0.39528 3.25,-1.28154 6,-1.96946 2.75,-0.68793 6.131,-1.66825 7.5134,-2.17849 1.3824,-0.51024 3.8574,-1.16253 5.5,-1.44953 4.8528,-0.84787 15.9295,-4.72738 16.6822,-5.84282 0.3826,-0.56694 0.9689,-0.75754 1.3029,-0.42355 0.7964,0.79638 5.8346,-0.79092 24.0015,-7.56175 8.25,-3.07478 15.5921,-5.59342 16.3157,-5.59697 0.7237,-0.004 2.2987,-0.54732 3.5,-1.20837 1.2014,-0.66105 2.6343,-1.32307 3.1843,-1.47117 6.4513,-1.73708 10.088,-2.88339 10.5,-3.30962 0.852,-0.88146 17.3988,-6.07997 19.25,-6.04776 0.9625,0.0168 1.75,-0.41954 1.75,-0.96954 0,-0.55 0.7999,-1 1.7775,-1 0.9776,0 2.6651,-0.59656 3.75,-1.32569 1.0849,-0.72913 4.6725,-2.11351 7.9725,-3.07639 3.3,-0.96289 6.9,-2.12246 8,-2.57682 7.8596,-3.24647 13.5624,-5.0224 17,-5.29402 4.4826,-0.3542 14.5,-3.78206 14.5,-4.9618 0,-0.4209 0.6007,-0.76528 1.3348,-0.76528 1.7052,0 11.959,-3.36309 17.1652,-5.62991 2.2,-0.9579 4.3069,-1.66823 4.6821,-1.57851 0.3751,0.0897 2.4001,-0.56959 4.5,-1.46514 2.0998,-0.89555 5.3929,-1.96555 7.3179,-2.37777 1.925,-0.41222 6.1461,-1.71884 9.3801,-2.90359 3.2341,-1.18476 7.7341,-2.56849 10,-3.07497 2.266,-0.50648 8.3949,-2.09166 13.6199,-3.52262 5.225,-1.43097 10.85,-2.82126 12.5,-3.08954 1.65,-0.26827 4.8,-0.96515 7,-1.54861 3.2403,-0.85937 18.8129,-2.04451 25.5,-1.94067 1.688,0.0262 16.4215,-1.67938 19.5,-2.25737 6.0502,-1.13593 10.9205,-1.68368 19.0775,-2.14562 4.9926,-0.28274 10.1676,-0.7508 11.5,-1.04014 7.33,-1.59177 48.9167,-2.40923 52.5055,-1.03208 0.7972,0.30594 5.8297,0.14195 11.1833,-0.36441 8.2251,-0.77797 15.5673,-1.07661 24.4837,-0.99588 8.5896,0.0778 13.6373,-0.40653 13.1111,-1.25795 -0.3813,-0.61687 0.2543,-0.71467 1.6878,-0.25969 1.2647,0.40139 4.8086,0.87575 7.8753,1.05414 3.0667,0.17838 9.4857,0.57489 14.2644,0.88112 5.3523,0.34298 8.9269,0.17133 9.3091,-0.447 0.3412,-0.55209 1.6468,-1.00379 2.9014,-1.00379 3.9932,0 17.6242,3.88041 19.2133,5.46958 0.8418,0.84173 2.6412,1.53042 3.9989,1.53042 1.3576,0 4.1535,0.85967 6.213,1.91037 2.8535,1.45576 4.1943,1.65871 5.6343,0.85284 1.0394,-0.58163 4.8488,-1.37621 8.4656,-1.76571 5.1316,-0.55267 7.5641,-0.32734 11.0758,1.026 2.475,0.95381 6.975,2.06648 10,2.4726 3.025,0.40612 6.7152,1.36064 8.2003,2.12115 1.4852,0.76051 3.496,1.38275 4.4684,1.38275 1.6644,0 21.2059,6.53333 33.3313,11.14368 7.0712,2.68863 16.1636,7.26611 22.5,11.3274 15.8197,10.13956 19.1715,12.42817 20.4398,13.95637 1.8084,2.17904 12.8336,10.57255 13.8874,10.57255 0.4426,0 2.2322,1.4625 3.9768,3.25 4.671,4.78601 8.1547,7.75 9.1088,7.75 0.4633,0 1.3785,0.64607 2.0339,1.43572 0.6553,0.78965 2.5104,1.7254 4.1224,2.07946 1.612,0.35405 2.9309,1.04883 2.9309,1.54395 0,0.49512 1.9125,1.87066 4.25,3.05675 2.3375,1.18609 5.6,3.24025 7.25,4.56482 1.65,1.32456 6.825,5.21557 11.5,8.64668 15.5184,11.38942 23.223,17.96336 38.5,32.85022 6.05,5.89549 11.675,11.37451 12.5,12.17559 4.6351,4.50072 17.9749,18.65117 20.4067,21.64681 1.5626,1.925 6.0479,6.8972 9.9673,11.04933 3.9193,4.15213 11.4832,13.15213 16.8087,20 5.3254,6.84787 11.1465,14.02567 12.9356,15.95067 1.7891,1.925 4.6339,5.3 6.3216,7.5 1.6877,2.2 5.5686,7.15 8.6242,11 3.0556,3.85 6.9571,9.025 8.67,11.5 1.7128,2.475 6.2984,7.83646 10.1901,11.91436 3.8917,4.0779 7.0758,7.60674 7.0758,7.84187 0,0.43872 5.5981,7.05235 12.25,14.47232 2.0625,2.30063 3.75,4.69563 3.75,5.32222 0,0.62659 0.9,1.95374 2,2.94923 1.1,0.99549 2,2.35803 2,3.02787 0,2.3776 4.2461,11.00994 6.6268,13.47213 1.3294,1.375 3.9626,4.58468 5.8514,7.13262 2.901,3.91344 3.343,5.19418 2.8471,8.25 -0.3846,2.37001 -0.197,3.61738 0.5439,3.61738 0.6219,0 1.1613,-0.7875 1.1985,-1.75 0.056,-1.44536 0.2477,-1.37824 1.1017,0.3856 1.0114,2.08872 11.8299,8.3644 14.4191,8.3644 2.1582,0 13.4115,9.93495 13.4115,11.84029 0,0.97206 1.618,3.31815 3.5955,5.21354 1.9775,1.89539 4.9788,5.4382 6.6696,7.8729 1.6908,2.4347 5.1353,6.75351 7.6545,9.59737 5.5891,6.3094 7.5459,8.67672 11.9654,14.4759 1.8862,2.475 3.7199,4.725 4.075,5 0.3551,0.275 1.6045,2.075 2.7765,4 1.172,1.925 3.0976,4.53324 4.2791,5.79608 1.1815,1.26285 4.4738,5.57538 7.3163,9.58341 8.3408,11.76095 13.8319,19.30694 19.2369,26.4354 8.989,11.85548 16.9136,25.00267 23.3178,38.68511 10.7559,22.97974 10.4917,22.37281 14.1481,32.5 1.6878,4.675 4.4242,12.1 6.0807,16.5 1.6566,4.4 3.439,9.70271 3.9609,11.78379 0.5219,2.08109 1.3899,4.55609 1.9288,5.5 1.8587,3.25554 11.0126,28.21251 11.6331,31.71621 0.1948,1.1 1.2288,5.23585 2.2978,9.19078 1.069,3.95493 2.4196,10.25493 3.0013,14 0.5817,3.74507 1.4729,9.28422 1.9804,12.30922 4.1466,24.716 5.4261,74.30671 2.4898,96.5 -1.0423,7.87814 -1.3885,13.29716 -1.8847,29.5 -0.6894,22.51097 -1.1457,27.93257 -3.5767,42.49997 -1.1014,6.6 -2.0364,12.675 -2.0778,13.5 -0.042,0.825 -0.7459,5.325 -1.5653,10 -1.7719,10.1084 -2.021,11.8163 -2.7713,19 -0.9961,9.5386 -1.3167,11.1221 -8.6039,42.5 -2.1221,9.1374 -7.258,27.34376 -9.0271,31.99996 -1.0448,2.75 -1.8999,5.607 -1.9002,6.3489 -3e-4,0.7418 -0.6303,2.7668 -1.4,4.5 -0.7697,1.7331 -2.9766,7.87615 -4.9043,13.65115 -1.9276,5.775 -3.9575,11.625 -4.5107,13 -0.5532,1.375 -2.212,6.325 -3.6862,11 -1.4742,4.675 -3.0353,8.95 -3.4691,9.5 -1.3371,1.6952 -3.8468,11.6864 -4.5216,18 -0.3527,3.3 -1.1374,7.0125 -1.7439,8.25 -1.2036,2.456 -3.3333,2.9818 -4.0503,1 -0.5799,-1.603 -2.1695,2.2834 -3.5789,8.75 -1.4726,6.7563 -1.7076,18.8158 -0.7406,38 0.8083,16.0355 1.0583,19.8388 2.0376,31 0.2896,3.3 0.8014,13.6464 1.1375,22.992 0.3361,9.3455 0.8283,17.3434 1.0937,17.7729 2.0452,3.3092 3.4682,53.5503 2.0601,72.7351 -0.8027,10.9366 -2.6986,24.2343 -4.9188,34.5 -1.0705,4.95 -2.3368,11.025 -2.814,13.5 -0.4772,2.475 -1.1355,5.85 -1.4629,7.5 -0.3275,1.65 -1.0668,5.475 -1.643,8.5 -1.6776,8.808 -2.9421,14.0888 -4.9085,20.5 -5.4865,17.8874 -7.5093,23.8463 -8.6023,25.3411 -2.4184,3.3073 -2.6476,-4e-4 -0.5256,-7.5851 1.1935,-4.2658 2.3732,-9.0234 2.6215,-10.5723 0.2484,-1.549 1.8192,-7.6446 3.4907,-13.5457 1.6715,-5.9011 3.2209,-12.5088 3.4429,-14.6837 0.2221,-2.1748 0.9153,-7.1043 1.5403,-10.9543 0.6251,-3.85 1.5612,-9.7 2.0801,-13 0.519,-3.3 1.8339,-11.625 2.922,-18.5 1.7892,-11.3045 2.4453,-18.9151 2.1123,-24.5 -0.192,-3.2196 -1.7017,0.1257 -2.9333,6.5 -3.9143,20.2589 -8.3494,40.9245 -9.2904,43.2892 -0.9265,2.3284 -0.8214,3.0001 0.6367,4.0663 1.5718,1.1493 1.6247,1.8642 0.5287,7.1436 -0.6698,3.2265 -1.8463,7.6476 -2.6144,9.8247 -0.9236,2.6175 -1.0657,4.357 -0.4197,5.1353 0.9465,1.1405 -0.082,3.6648 -4.9046,12.0409 -0.9501,1.65 -2.3039,5.025 -3.0084,7.5 -0.7046,2.475 -1.6557,5.4 -2.1135,6.5 -3.4873,8.3785 -7.2147,18.4563 -10.3561,28 -1.4483,4.4 -3.0399,8.9 -3.5369,10 -1.3257,2.9342 -5.0269,14.1726 -6.7513,20.5 -0.8245,3.025 -1.6527,9.1 -1.8405,13.5 -0.5978,14.0054 -2.0784,23.1627 -4.2348,26.191 -1.1317,1.5894 -2.3393,5.4594 -2.7522,8.8205 -0.9306,7.5758 -2.0192,10.4885 -3.9196,10.4885 -1.276,0 -1.4259,-1.6889 -0.9984,-11.25 0.5132,-11.4793 2.1259,-29.8481 3.0948,-35.25 0.4399,-2.4527 -0.1469,-1.9054 -3.2165,3 -2.065,3.3 -5.3689,9.15 -7.342,13 -1.9732,3.85 -4.3284,8.125 -5.2339,9.5 -0.9055,1.375 -2.6849,5.65 -3.9541,9.5 -1.2692,3.85 -2.9197,7.6238 -3.6678,8.3863 -0.9533,0.9717 -1.1595,2.6167 -0.6894,5.5 0.7066,4.3347 3.9844,10.6137 5.5407,10.6137 0.5051,0 0.9184,0.6447 0.9184,1.4326 0,4.1308 -9.3636,1.7256 -12.8699,-3.3059 -1.8376,-2.637 -6.1339,-18.6667 -6.1314,-22.8767 0,-3.1259 -1.8511,-2.8174 -3.0035,0.5 -0.5254,1.5125 -1.6502,4.0431 -2.4996,5.6235 -0.8494,1.5804 -2.0712,5.9459 -2.7151,9.7011 -1.2848,7.4923 -0.2465,11.3253 3.3796,12.4762 2.4583,0.7803 2.3492,4.1528 -0.1601,4.9492 -2.958,0.9388 -5.6905,-0.2566 -8,-3.5 -1.1286,-1.5849 -2.8917,-3.1482 -3.918,-3.474 -1.0263,-0.3257 -2.1249,-1.5821 -2.4413,-2.7919 -0.861,-3.2925 -2.1771,-1.1147 -3.6356,6.0159 -0.8152,3.9854 -1.7724,6.25 -2.6417,6.25 -1.8771,0 -1.7223,2.6483 0.1978,3.3851 1.3951,0.5354 1.3767,0.9115 -0.1735,3.5357 -1.779,3.0116 -3.928,4.0416 -8.4827,4.0655 -3.0937,0.016 -5.905,2.8132 -5.905,5.8746 0,1.2118 -0.639,3.7327 -1.4201,5.602 -1.5602,3.7342 -2.4031,18.0826 -1.2136,20.6582 0.4665,1.01 0.1221,2.2476 -0.9136,3.2833 -2.3648,2.3648 -8.3734,1.4426 -16.0768,-2.4674 -5.7112,-2.8988 -6.6927,-3.8851 -10.5159,-10.5671 -3.6278,-6.3406 -4.5993,-7.3699 -6.9566,-7.3699 -4.1585,0 -5.6648,-0.8778 -8.0057,-4.6656 -1.7341,-2.8057 -2.1155,-4.8814 -1.9993,-10.8808 0.079,-4.0775 -0.2675,-8.2101 -0.7698,-9.1836 -2.0294,-3.9327 -3.4639,-7.8257 -3.2317,-8.77 0.1404,-0.5706 -0.2348,-0.5284 -0.8737,0.098 -0.6158,0.6041 -1.2717,2.4041 -1.4574,4 -0.1858,1.596 -0.4235,2.9018 -0.5283,2.9018 -0.3643,0 -1.1815,4.0107 -1.1717,5.75 0.01,0.9625 -0.4684,1.75 -1.0529,1.75 -0.6506,0 -0.8272,1.1785 -0.4553,3.0381 0.4358,2.179 0.1884,3.1989 -0.875,3.6069 -2.1379,0.8205 -1.8237,2.355 0.4822,2.355 3.4031,0 4.2896,3.3171 2.5165,9.4163 -3.0266,10.4113 -8.3858,15.3151 -13.9611,12.7749 -4.3201,-1.9684 -4.8906,-5.1894 -3.4876,-19.6912 2.1901,-22.638 2.6638,-32.8832 1.6295,-35.25 -2.0378,-4.6635 -3.8533,-2.2068 -6.0968,8.25 -0.9441,4.4 -2.1538,9.8 -2.6883,12 -1.1216,4.6163 -3.0077,25.9092 -2.87,32.4006 0.078,3.6765 -0.4409,4.9519 -3.153,7.75 -2.7143,2.8004 -3.9679,3.3494 -7.649,3.3494 -3.639,0 -4.9076,-0.5406 -7.314,-3.1167 -1.6013,-1.7142 -3.1807,-4.1892 -3.5097,-5.5 -0.3289,-1.3108 -0.8868,-2.369 -1.2397,-2.3515 -1.9282,0.096 -4.2083,3.1419 -4.9151,6.5669 -0.6933,3.3597 -1.2161,3.9467 -3.7658,4.2282 -3.7669,0.416 -5.2506,1.7832 -3.6607,3.3731 1.9589,1.9589 1.3799,4.5122 -1.55,6.8355 -2.4686,1.9575 -3.5535,2.1223 -10.6014,1.6109 l -7.8514,-0.5696 0.4756,3.7116 c 0.967,7.5475 3.6385,17.4561 5.1596,19.1369 2.5979,2.8707 1.9813,5.0747 -1.4199,5.0747 -5.0698,0 -8.8278,-7.622 -10.6004,-21.5 -0.4216,-3.3 -0.8263,-6.225 -0.8996,-6.5 -0.073,-0.275 -0.4857,-2.8625 -0.9167,-5.75 -0.7295,-4.8881 -2.2244,-6.888 -2.9899,-4 -1.8256,6.8869 -3.3763,15.0056 -3.5091,18.3714 -0.089,2.2668 -0.5978,5.6388 -1.1297,7.4934 -0.5319,1.8546 -0.9671,4.8031 -0.9671,6.5523 0,1.7492 -0.5152,5.4124 -1.145,8.1405 -0.9499,4.1156 -1.7045,5.2271 -4.4313,6.5274 -2.8368,1.3527 -3.3821,2.2239 -3.9849,6.3661 -0.3842,2.6394 -1.3266,6.0364 -2.0943,7.5489 -0.7677,1.5125 -1.1435,2.75 -0.835,2.75 0.3085,0 0.079,0.9 -0.5095,2 -0.7999,1.4946 -0.7605,2 0.1559,2 0.6745,0 0.3561,0.6364 -0.7076,1.4141 -2.0756,1.5178 -2.5812,4.6209 -0.9483,5.8206 0.55,0.4041 0.01,0.7416 -1.2047,0.75 -1.7247,0.012 -2.3481,0.7796 -2.8633,3.5263 -0.3623,1.9311 -1.0577,3.7577 -1.5454,4.0591 -0.4876,0.3013 -0.8866,1.3642 -0.8866,2.3618 0,0.9976 -0.9502,3.9621 -2.1117,6.5876 -1.8681,4.2233 -1.967,5.2121 -0.8571,8.575 0.69,2.0906 1.8652,4.0355 2.6116,4.3219 1.65,0.6332 1.7984,3.2699 0.2138,3.7981 -0.8542,0.2847 -0.8488,0.9316 0.021,2.5573 0.6405,1.1969 1.3019,4.5504 1.4697,7.4522 0.1678,2.9018 0.8332,6.2589 1.4787,7.4603 1.5184,2.8256 1.4793,3.3157 -0.2642,3.3157 -0.7908,0 -1.4301,0.7875 -1.4207,1.75 0.079,8.0601 -0.3698,14.709 -1.3502,20 -0.8896,4.8009 -0.8773,7.6991 0.053,12.5 1.1665,6.0202 1.379,9.673 1.0617,18.25 -0.1895,5.1223 0.8633,8.277 2.9468,8.8304 0.9061,0.2407 0.3829,0.4898 -1.1626,0.5536 -2.4916,0.1029 -2.7577,0.4276 -2.3474,2.866 0.2545,1.5125 0.8073,3.6095 1.2284,4.6599 0.5769,1.4389 0.046,2.4904 -2.1527,4.2638 -2.4209,1.9526 -2.6646,2.5145 -1.4299,3.2965 1.2442,0.7879 0.9852,1.483 -1.5788,4.2362 -1.6871,1.8115 -3.5944,5.2061 -4.2385,7.5436 -3.0018,10.8936 -3.781,12.882 -5.7801,14.75 -2.8871,2.6977 -9.4622,15.4374 -13.5226,26.2009 -1.8256,4.8395 -4.7663,11.2036 -6.5349,14.1423 -1.7685,2.9388 -3.4933,6.7638 -3.8328,8.5 -1.5766,8.0639 -6.3424,16.4518 -11.2761,19.8462 -2.4008,1.6519 -4.658,2.7105 -5.0159,2.3526 -0.3579,-0.3579 0.011,-1.0694 0.8203,-1.5811 1.2386,-0.7833 1.1985,-0.9327 -0.2533,-0.9456 -0.9484,-0.01 -2.4804,1.4472 -3.4045,3.2347 -4.5136,8.731 -11.5122,14.3184 -15.9144,12.7054 -2.9191,-1.0696 -8.0625,1.3728 -8.8234,4.1897 -0.8028,2.9723 -4.9834,6.0415 -7.1151,5.2236 -0.8903,-0.3417 -1.8774,-1.9144 -2.1936,-3.495 -0.3161,-1.5805 -0.8987,-2.8737 -1.2947,-2.8737 -1.1757,0 -4.0857,3.6109 -3.4347,4.2619 0.3297,0.3298 -0.1779,1.9158 -1.1282,3.5245 -1.7653,2.9885 -11.0301,8.2813 -14.2393,8.1347 -1.3887,-0.063 -1.4334,-0.1911 -0.2278,-0.65 1.7782,-0.6769 2.9635,-2.2813 2.9847,-4.0402 0.018,-1.476 -4.3827,-0.6858 -7.3055,1.312 -1.7465,1.1938 -1.7387,1.302 0.1913,2.6539 1.8961,1.328 1.655,1.5601 -4.1792,4.0235 -3.4052,1.4379 -7.9913,3.1593 -10.1913,3.8254 -2.2,0.6661 -6.7,2.6889 -10,4.4951 -3.3,1.8063 -10.05,4.6985 -15,6.4272 -4.95,1.7287 -12.2207,4.6899 -16.1571,6.5804 l -7.1571,3.4374 -5.2284,-1.6885 c -3.7519,-1.2118 -5.9666,-2.6923 -7.8429,-5.243 -1.8468,-2.5106 -3.2534,-3.4633 -4.7903,-3.2445 -1.4976,0.2133 -2.9003,-0.6754 -4.5,-2.8508 l -2.3242,-3.1607 -19.647,0.7131 -19.647,0.7131 -0.8011,-2.3622 c -0.4406,-1.2993 -0.712,-2.6998 -0.603,-3.1123 0.1089,-0.4125 -0.2519,-0.75 -0.8019,-0.75 -0.55,0 -1,-1.6353 -1,-3.634 0,-1.9987 -0.4941,-5.2832 -1.098,-7.2989 -0.9011,-3.0073 -0.6923,-5.4504 1.1637,-13.616 1.2439,-5.4731 2.3112,-11.7601 2.3717,-13.9711 0.072,-2.6366 1.0022,-5.2175 2.7027,-7.5 2.5439,-3.4145 6.1772,-11.8892 6.4032,-14.9356 0.063,-0.8494 0.1916,-3.0069 0.2856,-4.7944 0.1312,-2.4916 0.624,-3.25 2.1121,-3.25 3.1523,0 3.6411,-1.2775 4.592,-12 0.3171,-3.575 1.2268,-8.7192 2.0217,-11.4315 0.7949,-2.7123 1.4453,-5.7205 1.4453,-6.6849 0,-0.9644 0.5227,-3.0202 1.1615,-4.5685 0.6388,-1.5483 1.0973,-3.127 1.019,-3.5081 -0.078,-0.3812 1.2147,-3.9812 2.8736,-8 1.6588,-4.0189 4.8678,-12.257 7.131,-18.307 2.2633,-6.05 4.6671,-11.675 5.342,-12.5 0.6748,-0.825 1.8402,-3.236 2.5897,-5.3577 0.8399,-2.3774 3.2096,-5.4038 6.1757,-7.8872 2.6471,-2.2163 5.9404,-6.2546 7.3184,-8.974 1.3781,-2.7195 4.1063,-6.3499 6.0627,-8.0677 2.05,-1.7999 5.0716,-6.32 7.1316,-10.6683 1.9659,-4.1498 4.1165,-8.0922 4.779,-8.7609 0.6625,-0.6687 3.3066,-5.3937 5.8758,-10.5 2.5692,-5.1063 5.9651,-11.1127 7.5464,-13.3475 3.378,-4.7742 10.1622,-20.0561 12.525,-28.2135 0.9117,-3.1478 1.9841,-6.1732 2.383,-6.7232 0.3989,-0.55 1.3284,-2.9125 2.0655,-5.25 0.7371,-2.3375 1.7182,-4.25 2.1802,-4.25 0.4619,0 0.8399,-1.1789 0.8399,-2.6199 0,-2.518 3.9468,-15.6013 6.6132,-21.9221 0.7057,-1.673 1.8294,-5.273 2.497,-8 0.6676,-2.7269 2.2988,-8.108 3.6248,-11.958 1.326,-3.85 2.7875,-8.8 3.2478,-11 0.4603,-2.2 2.2392,-8.725 3.9531,-14.5 1.714,-5.775 2.9293,-11.2584 2.7007,-12.1854 -0.2286,-0.927 0.1352,-1.8968 0.8083,-2.1551 1.2326,-0.473 1.9272,-5.1871 1.7179,-11.6595 -0.062,-1.925 0.5589,-5.2172 1.3803,-7.3161 0.8215,-2.0988 1.781,-7.2164 2.1323,-11.3723 0.5431,-6.4249 0.3907,-7.6951 -1.0183,-8.4836 -2.3887,-1.3368 -2.0784,-6.564 0.7349,-12.3817 2.7234,-5.6313 3.4161,-9.502 4.3637,-24.3816 1.1737,-18.4311 1.3771,-17.3559 -3.4655,-18.3245 -5.7273,-1.1455 -11.9133,-8.0442 -12.8572,-14.3383 -0.7432,-4.9559 -1.7422,-5.953 -5.5627,-5.5522 -2.1638,0.2269 -2.8275,-0.2882 -3.7386,-2.9018 -0.6093,-1.7477 -0.9178,-3.4849 -0.6857,-3.8605 0.2321,-0.3756 0.065,-1.2613 -0.3723,-1.9682 -0.9063,-1.4665 -3.3407,6.8834 -2.641,9.0588 0.2338,0.7271 0.6848,4.0022 1.0022,7.278 0.3174,3.2758 0.9643,6.3432 1.4376,6.8165 0.4807,0.4807 2.3539,-0.05 4.244,-1.2023 4.2388,-2.5842 4.8835,-2.5822 4.8835,0.015 0,1.147 -1.5557,3.4627 -3.4571,5.146 -2.4985,2.212 -3.2352,3.5054 -2.657,4.6647 1.4528,2.9125 -0.2163,6.5749 -3.1528,6.9182 -1.9169,0.2241 -3.9534,1.9785 -7.1008,6.1171 -4.2953,5.6479 -5.2635,7.5574 -6.1402,12.1097 -0.4358,2.2631 -9.2018,24.6707 -10.3503,26.4575 -0.353,0.5491 -1.5418,3.4639 -2.6418,6.4773 -1.5318,4.1961 -2.645,5.7053 -4.7551,6.4464 -4.768,1.6743 -5.464,-0.4284 -2.4011,-7.2535 1.4609,-3.2553 2.654,-6.3125 2.6512,-6.7937 -0.01,-1.3532 -4.9183,4.9596 -4.959,6.375 -0.02,0.6875 -0.486,1.25 -1.036,1.25 -0.55,0 -1,0.5855 -1,1.3012 0,0.7156 -1.8,4.0713 -4,7.457 -2.2,3.3857 -4,6.5771 -4,7.0918 0,0.5148 -0.675,1.195 -1.5,1.5116 -0.825,0.3166 -1.5,1.224 -1.5,2.0165 0,0.7925 -2.2773,6.0941 -5.0607,11.7814 -2.7834,5.6873 -6.7858,13.9405 -8.8942,18.3405 -2.1083,4.4 -6.5359,13.625 -9.8389,20.5 -7.8216,16.2798 -13.2062,27.9179 -13.2062,28.5434 0,1.1847 -5.3542,8.4566 -6.2265,8.4566 -0.5284,0 -1.1986,-0.9095 -1.4893,-2.0211 -0.4152,-1.588 -0.8237,-1.776 -1.9063,-0.8775 -0.7579,0.6289 -1.3779,1.5265 -1.3779,1.9946 0,0.4681 -1.575,4.0874 -3.5,8.0429 -1.925,3.9554 -3.5,8.2423 -3.5,9.5264 0,1.2841 -0.45,2.3347 -1,2.3347 -0.55,0 -1,0.6811 -1,1.5136 0,0.8324 -0.4076,2.2949 -0.9057,3.25 -2.0342,3.9 -6.0943,14.0728 -6.0943,15.2697 0,0.7058 -1.7863,5.1611 -3.9696,9.9008 -3.3393,7.2491 -4.0302,9.8838 -4.3508,16.5917 -0.4647,9.7214 -3.2276,18.1439 -6.1964,18.8891 -1.334,0.3348 -3.1253,2.6978 -4.9685,6.5543 -1.5853,3.3169 -3.1963,6.0308 -3.5799,6.0308 -0.3835,0 -1.1956,1.9125 -1.8045,4.25 -0.6089,2.3375 -1.4499,4.7451 -1.8687,5.3503 -1.3639,1.9705 -4.8127,3.2951 -6.2563,2.4029 -0.8412,-0.5198 -2.4322,-0.3167 -4.0429,0.5163 -1.4608,0.7554 -3.547,1.1404 -4.6361,0.8556 -1.4513,-0.3795 -2.7459,0.5026 -4.848,3.3035 -1.5774,2.1018 -3.4447,4.1753 -4.1496,4.6079 -0.8218,0.5044 -1.2523,2.8704 -1.1999,6.595 0.045,3.1946 -0.4634,6.6657 -1.1298,7.7134 -1.5047,2.3661 -9.1278,7.3413 -13.6086,8.8817 -1.8442,0.634 -3.6615,1.4611 -4.0384,1.8381 -0.3769,0.3769 -1.3688,0.6853 -2.2042,0.6853 -0.8354,0 -2.4479,0.8412 -3.5833,1.8693 -1.1355,1.0281 -4.7645,2.6736 -8.0645,3.6568 -3.3,0.9832 -6.4275,2.167 -6.95,2.6307 -0.5225,0.4638 -2.4285,0.8432 -4.2356,0.8432 -4.7124,0 -11.2439,1.664 -23.9684,6.1061 -6.1348,2.1416 -11.8812,3.8939 -12.7699,3.8939 -0.8887,0 -4.4194,1.1563 -7.846,2.5696 -9.1317,3.7665 -17.4968,6.3948 -23.7301,7.4561 -3.025,0.515 -8.65,1.6217 -12.5,2.4593 -7.185,1.563 -21.3685,3.3806 -32,4.1007 -11.2,0.7586 -34.5751,0.4445 -36.3175,-0.488 -1.0907,-0.5837 -2.4042,-0.5531 -3.5399,0.082 -0.9932,0.5558 -4.0715,0.993 -6.8406,0.9715 -3.9239,-0.03 -5.3534,-0.4939 -6.4791,-2.1011 -0.7944,-1.1341 -2.6545,-2.6892 -4.1336,-3.4556 -1.4791,-0.7665 -4.0049,-2.6149 -5.6129,-4.1074 -2.5122,-2.332 -2.699,-2.8395 -1.3281,-3.6067 0.8775,-0.491 1.8913,-2.2401 2.253,-3.8869 0.3617,-1.6467 1.0719,-2.994 1.5782,-2.994 1.2179,0 1.1881,-3.7166 -0.036,-4.473 -0.526,-0.3251 -0.7312,-1.1778 -0.456,-1.8949 0.7786,-2.0289 -10.3231,-0.9141 -14.8271,1.4889 -4.5293,2.4165 -12.0705,2.2918 -12.5438,-0.2074 -0.1652,-0.8725 1.7386,-3.7975 4.2307,-6.5 2.4922,-2.7025 4.536,-5.4761 4.5418,-6.1636 0.01,-0.6875 0.4466,-1.25 0.9793,-1.25 0.5328,0 0.7553,-0.5625 0.4946,-1.25 -0.2608,-0.6875 1.7783,-3.4574 4.5313,-6.1553 2.753,-2.6979 5.0055,-5.4317 5.0055,-6.0752 0,-0.9907 5.2738,-8.3806 10.5484,-14.7809 0.7984,-0.9688 1.4516,-2.0279 1.4516,-2.3536 0,-0.9146 8.0134,-11.8943 12.7064,-17.4099 2.3135,-2.7191 4.6986,-5.8634 5.3002,-6.9874 0.6016,-1.1241 1.5212,-1.7796 2.0436,-1.4567 0.5224,0.3229 0.9526,0 0.956,-0.722 0.01,-1.4018 0.7397,-2.8641 6.2599,-12.4872 1.9493,-3.398 3.2868,-6.4355 2.9724,-6.75 -0.3145,-0.3145 -0.061,-0.5718 0.5644,-0.5718 0.625,0 2.5609,-2.9537 4.302,-6.5639 1.7412,-3.6101 3.6844,-7.0976 4.3184,-7.75 2.0923,-2.1532 4.5767,-8.4363 4.5767,-11.5749 0,-2.4444 1.0839,-4.0772 5.2105,-7.8489 2.8658,-2.6192 8.5105,-8.0248 12.5439,-12.0123 4.0334,-3.9875 7.8124,-7.25 8.3978,-7.25 0.5854,0 3.426,-2.3625 6.3123,-5.25 2.8864,-2.8875 7.0002,-6.6959 9.1418,-8.4631 2.1415,-1.7673 5.9187,-5.0227 8.3937,-7.2344 2.475,-2.2117 4.7686,-4.0283 5.097,-4.0369 0.5241,-0.014 2.2352,-1.3071 6.6108,-4.9971 0.6643,-0.5602 1.6768,-1.0185 2.25,-1.0185 0.5732,0 1.0474,-0.5625 1.0537,-1.25 0.01,-0.6875 1.8063,-2.1099 4,-3.1609 2.1937,-1.051 3.9885,-2.5885 3.9885,-3.4166 0,-0.8282 0.2822,-1.2236 0.6272,-0.8786 0.7187,0.7186 8.1123,-4.1705 12.2887,-8.126 1.5492,-1.4674 3.6645,-3.3887 4.7005,-4.2697 1.7358,-1.4761 9.7122,-10.0557 20.8235,-22.3982 2.4757,-2.75 5.5263,-6.9125 6.779,-9.25 1.6643,-3.1056 2.8962,-4.25 4.5748,-4.25 1.2635,0 3.2893,-1.02 4.5018,-2.2667 2.242,-2.3051 7.7045,-12.5719 7.7045,-14.4805 0,-0.576 1.6391,-4.2339 3.6426,-8.1285 3.8726,-7.5284 7.9412,-11.4157 9.4288,-9.0087 0.4509,0.7295 0.9712,1.1145 1.1562,0.8554 1.0971,-1.5362 4.7724,-9.877 4.7724,-10.8305 0,-0.6273 0.3954,-1.1405 0.8787,-1.1405 0.4833,0 1.4297,-1.3303 2.1032,-2.9562 0.9851,-2.3783 0.9601,-3.5536 -0.128,-6.0118 -1.5113,-3.4143 -2.3532,-3.8265 -9.1082,-4.4597 -6.0336,-0.5656 -6.3813,-0.8161 -7.2018,-5.19 -0.5709,-3.0431 -0.16,-4.4792 2.5071,-8.761 1.7545,-2.8167 3.2728,-5.5713 3.374,-6.1213 0.1013,-0.55 0.9002,-2.35 1.7754,-4 0.8752,-1.65 3.1768,-7.95 5.1147,-14 4.8875,-15.2584 4.947,-15.5 3.8197,-15.5 -0.8528,0 -2.5052,3.455 -2.3915,5 0.02,0.275 -0.8137,1.6945 -1.8532,3.1544 -1.0396,1.4599 -1.8901,3.5423 -1.8901,4.6275 0,1.0853 -0.675,2.5334 -1.5,3.2181 -0.825,0.6847 -1.5,2.0898 -1.5,3.1224 0,1.0327 -0.4104,1.8776 -0.9121,1.8776 -0.5017,0 -1.2177,1.8089 -1.5912,4.0198 -0.3736,2.2109 -1.2006,4.5841 -1.8379,5.2738 -0.6374,0.6897 -1.2901,1.9183 -1.4507,2.7302 -0.1605,0.8119 -1.735,4.1762 -3.4989,7.4762 -2.4494,4.5823 -3.2548,7.4177 -3.4087,12 -0.3616,10.7671 -1.1769,15.7059 -2.9084,17.6192 -2.3115,2.5542 -5.0008,2.363 -7.9275,-0.5637 -2.205,-2.205 -2.3943,-3.0452 -1.9316,-8.5747 0.5029,-6.0101 0.4684,-6.1163 -1.76,-5.4245 -2.7022,0.8389 -3.4652,1.9406 -6.8501,9.8908 -2.3051,5.414 -2.8857,6.0566 -5.5,6.0878 -3.5672,0.043 -5.5416,3.5207 -6.2193,10.9558 -0.5681,6.2333 -1.5581,7.5093 -5.826,7.5093 -3.18,0 -3.3776,0.2005 -3.3776,3.4286 0,4.2013 -2.1898,6.5714 -6.0714,6.5714 -3.6586,0 -3.8123,-2.046 -0.8353,-11.1197 4.9647,-15.1321 10.6073,-46.9899 10.86,-61.3155 0.087,-4.9144 0.3324,-9.218 0.5459,-9.5636 0.2136,-0.3455 0.076,-2.8137 -0.3064,-5.4848 l -0.6947,-4.8566 -1.6374,3.4201 c -0.9006,1.8811 -2.3937,7.4701 -3.3179,12.4201 -0.9243,4.95 -2.2789,11.025 -3.0104,13.5 -0.7314,2.475 -2.0927,7.425 -3.0251,11 -0.9323,3.575 -2.1213,7.3108 -2.6421,8.3018 -0.5208,0.991 -1.1442,5.5957 -1.3853,10.2326 -0.466,8.9601 -2.4741,15.4656 -4.7739,15.4656 -3.1101,0 -4.7055,3.5155 -4.801,10.5795 -0.052,3.8063 0.2234,8.1613 0.6109,9.6778 0.9264,3.6255 -1.7999,7.9916 -4.7169,7.554 -1.1509,-0.1727 -2.8924,-1.8414 -3.9111,-3.7478 -1.6052,-3.0037 -1.7737,-5.1442 -1.3382,-17 0.274,-7.4599 0.7328,-15.026 1.0196,-16.8135 0.4749,-2.9607 0.292,-3.25 -2.0554,-3.25 -1.4172,0 -2.7875,0.675 -3.0453,1.5 -0.2577,0.825 -0.7473,2.2875 -1.0879,3.25 -0.3406,0.9625 -0.7458,3.7012 -0.9004,6.0861 -0.1982,3.0581 -0.8998,4.7694 -2.3807,5.8067 -1.1548,0.8088 -2.0996,1.8719 -2.0996,2.3624 0,2.689 -9.3949,8.9948 -13.4011,8.9948 -0.9914,0 -1.599,0.8549 -1.5991,2.25 -3e-4,3.5672 4.3525,14.75 5.7413,14.75 0.6924,0 2.1692,0.9103 3.2818,2.0229 2.9574,2.9574 1.1202,5.9771 -3.6365,5.9771 -4.2816,0 -9.537,-4.9472 -13.3017,-12.5216 -3.8812,-7.8087 -7.9872,-24.768 -10.1349,-41.861 -1.0976,-8.7354 -2.2369,-16.2729 -2.5317,-16.75 -1.6249,-2.6291 -2.1343,0.5926 -2.1952,13.8826 -0.2566,56.0584 -0.1608,66.1628 0.6589,69.5283 1.0523,4.3199 2.7462,6.7217 4.7406,6.7217 2.2772,0 1.5518,3.5688 -1.0032,4.9362 -7.2731,3.8924 -13.6441,-7.4576 -15.0735,-26.8533 -0.4485,-6.0844 -1.0707,-8.7463 -2.2455,-9.6053 -1.0069,-0.7363 -1.3704,-1.8524 -0.9554,-2.9338 0.6657,-1.7348 -2.975,-9.5438 -4.4495,-9.5438 -0.405,0 -1.0329,-1.35 -1.3953,-3 -0.3624,-1.65 -1.1069,-3 -1.6545,-3 -0.6414,0 -0.7375,3.2913 -0.27,9.25 0.3991,5.0875 0.8158,12.175 0.9259,15.75 0.2582,8.3786 0.098,7.8971 2.9986,9 5.0103,1.9049 2.2387,9 -3.5157,9 -4.7026,0 -8.0053,-3.713 -9.3663,-10.5301 -1.0354,-5.1856 -1.5155,-6.0147 -3.655,-6.3111 -1.3546,-0.1876 -3.2533,-1.0474 -4.2191,-1.9105 -0.9659,-0.8632 -2.0569,-1.2686 -2.4245,-0.9011 -0.3675,0.3676 -0.7595,5.7933 -0.871,12.0573 -0.1115,6.2639 -0.5095,11.8854 -0.8846,12.4922 -0.8149,1.3185 -4.2201,1.4684 -4.9919,0.2196 -0.6918,-1.1193 -2.8659,-16.3396 -4.0163,-28.1163 -0.2417,-2.475 -1.1523,-8.55 -2.0235,-13.5 -3.6888,-20.9599 -6.37,-39.0392 -6.4882,-43.75 -0.079,-3.136 -1.7058,-1.8404 -1.8837,1.5 -0.8858,16.6276 -0.9231,41.5573 -0.068,45.4847 1.907,8.7603 2.9292,17.738 2.336,20.5162 -0.3964,1.857 -1.4093,2.9573 -3.1165,3.3858 -2.7236,0.6835 -2.7242,0.7009 -0.4201,10.8633 0.4988,2.2 1.3735,6.25 1.9438,9 1.4302,6.8971 3.9231,12.5 5.5616,12.5 1.8001,0 2.8191,4.035 1.4389,5.698 -1.6646,2.0056 -5.3851,1.5487 -8.509,-1.0451 -2.199,-1.8259 -3.6693,-2.2445 -6.6213,-1.8853 -4.6331,0.5636 -6.8538,-1.1771 -9.3995,-7.3683 -1.8282,-4.4461 -2.6856,-5.2119 -3.8059,-3.3993 -0.9992,1.6167 -4.3526,1.1466 -5.3497,-0.75 -0.506,-0.9625 -1.2327,-4.225 -1.6149,-7.25 -0.3822,-3.025 -1.0934,-7.075 -1.5804,-9 -0.4869,-1.925 -1.0971,-5.075 -1.3558,-7 -1.3892,-10.336 -3.1259,-16.592 -5.3163,-19.1507 -0.8437,-0.9855 -1.0237,-1.8915 -0.4466,-2.2481 0.6055,-0.3742 0.4179,-3.1201 -0.5019,-7.3493 -2.12,-9.7473 -2.2707,-10.1049 -3.407,-8.0811 -0.5622,1.0012 -0.5809,2.6105 -0.047,4.0155 0.4903,1.2896 1.15,6.1628 1.466,10.8292 0.541,7.9891 1.2934,15.8489 2.1373,22.3251 0.2035,1.5624 1.1138,3.6625 2.0228,4.6669 1.3022,1.439 1.4186,2.2634 0.5487,3.8888 -0.6071,1.1345 -0.8355,3.1322 -0.5074,4.4394 0.7412,2.9531 -2.0906,6.2889 -3.9961,4.7075 -0.6798,-0.5642 -1.4712,-0.7907 -1.7586,-0.5033 -1.3944,1.3945 -4.1681,-5.8153 -5.9208,-15.3906 -1.0722,-5.8571 -2.216,-12.1118 -2.5418,-13.8993 -0.6148,-3.3722 -1.2647,-3.8972 -2.8808,-2.3269 -1.7165,1.6678 -6.4951,-0.1138 -8.8464,-3.2982 -3.1138,-4.217 -4.6287,-10.4421 -5.0191,-20.6249 -0.1792,-4.675 -0.3841,-9.9625 -0.4552,-11.75 -0.071,-1.7875 -0.6059,-3.25 -1.1883,-3.25 -0.5825,0 -0.812,0.3997 -0.5101,0.8881 0.7613,1.2319 0.7735,14.4758 0.025,27.6119 -0.3446,6.05 -0.5757,12.35 -0.5137,14 0.1386,3.6849 3.0452,18.5351 3.9624,20.2438 0.9427,1.7564 5.095,-1.2537 5.095,-3.6935 0,-1.01 0.7515,-2.1247 1.6701,-2.4772 4.6732,-1.7933 3.3358,7.4311 -1.9957,13.764 -2.226,2.6442 -2.6871,2.7781 -6.7791,1.9689 -3.7747,-0.7465 -4.7223,-1.4695 -6.7542,-5.153 -1.2999,-2.3565 -3.3682,-9.0925 -4.5962,-14.9688 -1.2279,-5.8763 -2.7529,-11.951 -3.3888,-13.4993 -0.6358,-1.5483 -1.1561,-3.4342 -1.1561,-4.191 0,-1.8466 -1.6885,-2.803 -2.1859,-1.2382 -0.2175,0.6844 -0.249,7.0943 -0.07,14.2443 0.6271,25.0359 0.3843,28.2286 -2.3549,30.9679 -0.8427,0.8426 -2.8612,1.5321 -4.4855,1.5321 -2.2104,0 -3.1866,0.6136 -3.8807,2.4392 -1.7992,4.7323 -8.7274,6.1266 -12.5586,2.5275 -1.924,-1.8075 -2.3056,-1.863 -3.4369,-0.5 -2.2501,2.7113 -7.8662,1.9176 -11.1264,-1.5725 -1.5957,-1.7081 -2.9012,-3.4457 -2.9012,-3.8613 0,-0.4155 -1.0852,-0.5481 -2.4115,-0.2946 -4.0411,0.7725 -4.906,-2.4755 -4.7963,-18.0115 0.097,-13.6939 0.075,-13.8308 -2.0973,-13.5303 -1.6854,0.233 -2.6248,-0.5764 -4.0468,-3.4874 -1.5483,-3.1695 -1.8584,-6.2816 -1.8914,-18.9841 -0.025,-9.8184 -0.3478,-14.3594 -0.9112,-12.8363 -0.4795,1.2962 -1.807,3.3284 -2.9498,4.5158 -1.345,1.3974 -2.1785,3.7563 -2.363,6.6875 -0.3266,5.1875 -2.1275,9.0477 -6.3379,13.5846 -2.76,2.974 -5.5218,8.6631 -4.6358,9.5491 0.2177,0.2177 0.5463,1.3819 0.7302,2.5872 0.184,1.2053 1.0615,2.753 1.95,3.4393 1.9278,1.4889 2.4287,4.2496 1.4485,7.9826 -1.3757,5.2387 -8.9209,4.5024 -10.3877,-1.0137 -1.0293,-3.8709 -1.0237,-3.8366 -1.3066,-7.9711 l -0.2567,-3.75 -0.6183,3.5 c -0.5413,3.0636 -1.0236,3.5391 -3.8684,3.8134 -2.9015,0.2797 -3.25,0.6462 -3.25,3.418 0,6.7898 2.3558,16.2602 5.1348,20.6422 3.0371,4.7891 2.6844,6.5262 -1.2104,5.9611 -1.6713,-0.2425 -3.1487,-1.9869 -5.3654,-6.3347 -3.358,-6.5865 -3.2989,-6.2758 -4.1826,-22 -0.34,-6.05 -0.6893,-11.088 -0.7763,-11.1956 -0.087,-0.1076 -0.6667,0.1187 -1.2883,0.5029 -0.6217,0.3842 -1.2454,2.9473 -1.386,5.6956 -0.1405,2.7484 -0.6334,5.7589 -1.0953,6.69 -0.4992,1.0063 -0.3619,2.7415 0.3386,4.2788 0.999,2.1927 0.8692,3 -0.8533,5.3072 -1.1174,1.4966 -2.4331,2.6407 -2.9237,2.5424 -0.4907,-0.098 -1.6461,0.5036 -2.5677,1.3376 -2.0107,1.8197 -4.7208,1.4593 -6.1551,-0.8186 -0.729,-1.1577 -0.6858,-8.7187 0.1429,-25 0.6534,-12.8372 1.4597,-32.0561 1.7917,-42.7088 0.332,-10.6527 0.8954,-20.5527 1.252,-22 0.9695,-3.9352 0.7745,-27.2578 -0.2519,-30.1237 -0.7783,-2.1733 -0.696,-2.3291 0.643,-1.2177 1.3547,1.1242 1.623,0.1807 2.2775,-8.0079 0.408,-5.1052 0.8962,-12.2072 1.0847,-15.7822 0.1886,-3.575 0.7569,-9.425 1.2629,-13 0.506,-3.575 1.2202,-11.9 1.587,-18.5 0.3668,-6.6 0.7869,-14.1584 0.9335,-16.7963 0.2433,-4.3797 -1.2287,-7.6954 -2.1669,-4.8808 -0.2158,0.6474 -0.9174,1.1771 -1.559,1.1771 -0.6417,0 -1.2329,1.0125 -1.3138,2.25 -0.081,1.2375 -0.4261,3.825 -0.7671,5.75 -0.341,1.925 -1.0803,6.425 -1.6428,10 -0.5626,3.575 -1.4785,9.0923 -2.0353,12.2607 -0.5569,3.1683 -0.7374,6.2058 -0.4011,6.75 0.3363,0.5441 0.1906,0.9893 -0.3238,0.9893 -0.5143,0 -1.216,2.3625 -1.5592,5.25 -0.3432,2.8875 -1.0285,7.95 -1.523,11.25 -0.4945,3.3 -1.3761,10.0283 -1.9591,14.9518 -0.5831,4.9235 -1.5163,10.9985 -2.0739,13.5 -0.5577,2.5015 -1.4713,8.3732 -2.0303,13.0482 -0.559,4.675 -1.2034,9.85 -1.432,11.5 -0.2287,1.65 -0.9196,9.3 -1.5355,17 -0.6159,7.7 -1.5309,16.025 -2.0334,18.5 -0.5024,2.475 -1.1857,8.3888 -1.5183,13.1417 -0.5674,8.1069 -0.4484,8.8723 1.9243,12.3685 1.391,2.0498 2.3257,4.056 2.077,4.4583 -0.2486,0.4023 -0.6437,2.7115 -0.8781,5.1315 -0.851,8.7886 -1.8569,11.9952 -4.256,13.5671 -1.339,0.8774 -3.353,1.304 -4.628,0.9803 -3.6667,-0.931 -5.1053,-4.4454 -5.2846,-12.91 -0.091,-4.2694 -0.4589,-8.0569 -0.8186,-8.4166 -0.3598,-0.3598 -0.6541,0.7158 -0.6541,2.3901 0,3.6017 -1.9978,5.5691 -5.195,5.1159 -2.1438,-0.3039 -2.2862,-0.7365 -2.0364,-6.1843 0.1478,-3.2216 1.1892,-11.3216 2.3144,-18 3.1214,-18.5261 3.1607,-18.9514 2.0268,-21.8925 -1.1333,-2.9395 -3.1098,-3.7339 -3.1098,-1.25 0,0.825 -0.422,1.5 -0.9379,1.5 -0.5158,0 -0.9563,0.7875 -0.979,1.75 -0.2521,10.7162 -1.2828,24.3525 -2.0218,26.75 -0.5085,1.65 -1.2241,7.5448 -1.5901,13.0995 -0.7223,10.9638 -0.072,13.296 5.9537,21.3481 3.078,4.113 2.1521,5.7978 -2.3279,4.2361 -1.68,-0.5857 -4.5267,-0.8259 -6.3261,-0.534 -4.9811,0.8084 -8.1515,-2.2698 -10.6998,-10.3883 -2.0592,-6.5603 -4.0107,-20.1261 -4.4971,-31.2614 -0.3174,-7.2667 -2.1969,-13.6413 -4.2549,-14.431 -1.8518,-0.7106 -3.5544,1.2326 -2.8239,3.2229 0.5939,1.618 3.1607,19.8341 3.2702,23.2081 0.4673,14.3944 1.1519,23.2636 2.0141,26.0939 2.1509,7.0603 2.1874,10.6261 0.1278,12.49 -1.8524,1.6764 -2.0023,1.6691 -3.3537,-0.1645 -0.7781,-1.0557 -2.1706,-4.6194 -3.0945,-7.9194 -2.2572,-8.0626 -2.3024,-8.101 -5.0907,-4.3216 -3.3668,4.5634 -6.092,5.4021 -9.4607,2.9115 l -2.6952,-1.9927 -0.679,4.2014 c -0.3734,2.3108 -1.6618,6.2264 -2.8631,8.7014 -1.785,3.6774 -2.7348,4.5541 -5.1961,4.7961 -5.737,0.5641 -10.8326,-7.8993 -12.027,-19.9759 -0.3438,-3.4761 -1.0489,-9.2452 -1.5669,-12.8202 -2.298,-15.86 -2.8308,-28.7664 -3.282,-79.5 -0.2641,-29.7 -0.5068,-54.1428 -0.5393,-54.3174 -0.086,-0.4633 -4.2073,0.7705 -6.7635,2.0248 -2.0799,1.0207 -2.2066,1.7368 -2.2446,12.6872 -0.022,6.3829 -0.09,24.8804 -0.1506,41.1054 -0.069,18.427 -0.4851,29.7338 -1.1086,30.1228 -0.6509,0.4061 -0.5971,1.3725 0.1546,2.777 0.6341,1.1848 1.3563,8.3296 1.605,15.8772 0.603,18.3054 2.3594,44.877 3.2537,49.223 0.6443,3.1313 1.0242,3.4672 3.6068,3.1887 l 2.8867,-0.3112 -0.6505,6.9994 c -0.8478,9.1214 -1.9811,11.9176 -5.153,12.7137 -3.4768,0.8726 -5.9917,-1.559 -8.0634,-7.7962 -1.4541,-4.3779 -1.906,-4.8838 -3.7913,-4.244 -1.1772,0.3994 -3.7894,0.7765 -5.8049,0.8379 -4.596,0.1401 -5.2957,0.8482 -5.0112,5.0718 0.1255,1.8642 -0.2189,3.6657 -0.7653,4.0034 -0.5464,0.3377 -0.7272,1.9455 -0.4017,3.5728 0.699,3.4951 -0.9804,5.9637 -4.0572,5.9637 -3.5283,0 -6.4687,-2.7717 -7.1915,-6.7787 -0.3692,-2.0467 -0.9009,-4.1189 -1.1815,-4.6048 -0.2806,-0.486 -0.6242,-2.511 -0.7636,-4.5 -0.4351,-6.2104 -1.6993,-31.3725 -1.8397,-36.6165 -0.099,-3.7106 -0.5194,-5 -1.6289,-5 -1.0706,0 -1.7245,1.7031 -2.3039,6 -1.2162,9.0202 -1.4193,12.5499 -0.7459,12.9661 0.5308,0.328 0.7867,3.4056 1.4163,17.0339 0.076,1.65 0.5886,3.3375 1.1386,3.75 0.6526,0.4895 0.6057,1.0105 -0.1349,1.5 -0.7598,0.5021 -0.8952,2.318 -0.4096,5.4929 0.3989,2.6087 0.4596,5.0085 0.1349,5.333 -0.3247,0.3245 -0.6218,3.3119 -0.6602,6.6387 -0.1224,10.6058 -5.4439,11.2402 -10.2693,1.2243 -1.2865,-2.6703 -2.7408,-7.5739 -3.2318,-10.897 -0.491,-3.323 -1.3391,-9.1919 -1.8846,-13.0419 -0.5454,-3.85 -1.2154,-16.6242 -1.4887,-28.3872 -0.2733,-11.763 -0.7459,-21.6362 -1.0502,-21.9405 -0.3042,-0.3043 -1.2716,0.1651 -2.1496,1.0431 -1.4096,1.4096 -1.4293,1.9314 -0.1681,4.4595 1.3209,2.6477 1.2547,3.0481 -0.8798,5.323 -1.4962,1.5947 -2.3143,3.6986 -2.3257,5.9811 -0.01,1.9365 -0.2228,7.121 -0.4734,11.521 -0.7064,12.3991 -1.4604,34.2042 -1.4696,42.5 -0.013,12.1037 0.3067,14.4872 1.9606,14.5964 4.5058,0.2974 5,0.5329 5,2.3834 0,1.0888 -0.6833,3.6875 -1.5184,5.7747 -1.4317,3.5781 -1.87,3.8617 -7.6706,4.9641 -8.0783,1.5352 -9.378,0.7573 -10.8028,-6.4655 -1.6891,-8.5625 -2.5119,-10.7217 -4.2118,-11.0515 -1.9762,-0.3835 -2.9511,3.2612 -1.7308,6.4708 0.5139,1.3518 0.9344,2.8669 0.9344,3.367 0,1.301 -5.8676,4.1605 -7.0445,3.4331 -2.4387,-1.5072 -5.039,-11.3098 -5.4307,-20.4725 -0.3285,-7.6854 -0.5693,-9 -1.6486,-9 -0.7678,0 -0.9427,1.8218 -0.5522,5.75 2.1564,21.6893 2.1531,21.7065 -4.5411,24.0528 -4.2595,1.493 -5.7923,0.9355 -10.22,-3.7167 -1.6154,-1.6974 -3.3929,-3.0861 -3.95,-3.0861 -0.5799,0 -0.5,0.5129 0.1871,1.2 2.724,2.724 0.3275,9.3513 -3.657,10.113 -4.57,0.8736 -14.143,-5.8471 -14.143,-9.9291 0,-1.3465 -0.6363,-3.9711 -1.414,-5.8324 -1.3548,-3.2423 -1.5897,-3.3607 -5.6012,-2.8226 -5.3026,0.7112 -5.6605,0.2011 -8.4036,-11.9789 -0.3406,-1.5125 -0.9894,-2.75 -1.4417,-2.75 -1.1605,0 0.3166,8.8561 1.7094,10.2489 0.6331,0.6331 1.1511,2.3211 1.1511,3.7511 0,1.43 0.4222,3.0275 0.9383,3.55 0.8386,0.8491 1.7534,4.6646 1.9795,8.2564 0.045,0.7185 1.4939,2.5957 3.2193,4.1716 5.2897,4.8314 1.2745,8.4934 -4.41,4.022 -1.3984,-1.1 -3.0341,-2 -3.6348,-2 -1.8915,0 -1.1855,4.9068 1.0238,7.1161 2.6499,2.6499 2.139,8.6288 -1.0062,11.774 -2.8768,2.8768 -4.0514,2.6523 -4.7641,-0.9109 -0.3323,-1.6615 -0.996,-3.263 -1.475,-3.559 -0.4789,-0.296 -0.8708,-1.3862 -0.8708,-2.4225 0,-2.2954 -3.6246,-4.9977 -6.7035,-4.9977 -2.4481,0 -3.7275,2.9226 -3.1294,7.1483 0.2634,1.8605 0.862,2.2905 2.8664,2.0585 2.1047,-0.2436 2.7517,0.3103 3.8229,3.2727 2.3335,6.453 0.7238,18.7002 -2.6268,19.9859 -3.2399,1.2433 -11.2296,-7.2924 -11.2296,-11.9969 0,-1.3463 -1.6211,-3.7004 -4.0746,-5.9169 -2.241,-2.0247 -4.5351,-5.002 -5.0978,-6.6164 -0.6566,-1.8834 -1.7168,-2.9352 -2.9586,-2.9352 -1.7572,0 -1.9093,0.6475 -1.6522,7.0363 0.2171,5.3936 -0.067,7.2577 -1.2168,7.9847 -4.6499,2.94 -8.0896,-1.35 -9.6091,-11.9845 -1.2723,-8.9045 -1.5656,-9.5672 -3.8478,-8.6914 -2.7167,1.0425 -1.8516,5.5988 3.1621,16.6549 2.9918,6.5975 0.9949,8.1428 -4.5228,3.5 -1.6341,-1.375 -3.4107,-2.5 -3.9479,-2.5 -0.5373,0 -1.2805,2.2893 -1.6517,5.0873 -0.3712,2.7979 -1.2124,5.9479 -1.8694,7 -1.479,2.3682 -6.9122,2.5711 -9.142,0.3413 -1.7941,-1.7941 -1.9,-3.6796 -2.1873,-38.9286 -0.1075,-13.2 -0.7051,-27.15 -1.3278,-31 -0.6228,-3.85 -1.2942,-8.35 -1.4921,-10 -0.5257,-4.3831 -2.5034,-18.4781 -3.1219,-22.25 -0.9543,-5.8199 -2.371,-3.4263 -2.3675,4 0,3.9875 -0.3922,8.6 -0.8758,10.25 -0.5149,1.757 -0.5003,4.243 0.035,6 0.9652,3.1663 1.1019,31.8785 0.1761,37.0104 -0.2986,1.6557 -0.088,4.2072 0.4682,5.67 0.5562,1.4628 1.0667,5.9581 1.1345,9.9896 0.068,4.0315 0.6249,9.4561 1.2378,12.0546 0.8242,3.4946 0.8198,5.3171 -0.017,7 -0.6221,1.2515 -1.2667,3.1272 -1.4326,4.1682 -0.7261,4.5582 -6.8015,4.6538 -6.8015,0.107 0,-2.372 -3.6099,-14.4188 -4.632,-15.4577 -0.2477,-0.2518 -0.2282,5.7062 0.043,13.2401 0.4659,12.9213 0.381,13.7585 -1.4966,14.7633 -5.275,2.8231 -7.0481,-1.2568 -8.1684,-18.7955 -0.098,-1.5335 0.1703,-1.5541 -3.4814,0.2676 -3.3349,1.6637 -6.8114,0.939 -9.1786,-1.9134 -3.257,-3.9245 -4.6352,-0.01 -3.031,8.6126 0.6431,3.4558 1.9447,6.9705 2.8925,7.8104 3.4983,3.1003 3.3085,9.7662 -0.3477,12.2075 -1.7817,1.1897 -7.2728,0.8705 -8.3373,-0.4847 -1.8613,-2.3695 -4.2542,-10.2741 -5.8272,-19.25 -2.7575,-15.7339 -4.2518,-23.9417 -4.7336,-26 -0.2575,-1.1 -0.7861,-4.3484 -1.1747,-7.2186 l -0.7065,-5.2186 -4.2787,0.5865 c -2.6804,0.3673 -4.5367,0.1688 -4.9695,-0.5314 -1.5608,-2.5255 -2.2014,-0.8265 -1.3695,3.6321 1.0566,5.663 1.1143,6.0238 4.4713,27.9399 1.4482,9.4545 2.9846,17.7587 3.4142,18.4538 0.6267,1.014 1.2694,1.0026 3.2508,-0.058 3.4792,-1.862 4.9994,-0.5623 4.3102,3.6847 -1.3402,8.2588 -8.703,10.7557 -15.115,5.1259 l -3.5348,-3.1036 -0.032,5.8536 c -0.033,6.0315 -1.5266,9.3536 -4.206,9.3536 -1.8797,0 -4.1378,-2.5832 -3.3593,-3.8429 1.3448,-2.176 -2.1245,-3.256 -6.7323,-2.0957 -9.2075,2.3184 -14.9145,-2.1613 -16.2369,-12.7455 -0.3653,-2.9237 -0.8669,-5.3159 -1.1147,-5.3159 -2.1537,0 -4.2439,2.5962 -4.8159,5.9817 -0.3724,2.2043 -1.092,4.2642 -1.5991,4.5776 -1.9379,1.1977 -4.7787,-0.7814 -6.1859,-4.3096 l -1.4653,-3.6738 -2.5996,8.4621 c -1.4298,4.6541 -3.0853,11.387 -3.6791,14.962 -0.5937,3.575 -1.5346,8.975 -2.091,12 -1.8332,9.9681 -2.1631,13.3736 -2.4708,25.5 -0.1675,6.6 -0.5191,13.575 -0.7814,15.5 -0.2623,1.925 -0.7865,8.9 -1.1649,15.5 -0.3784,6.6 -0.7868,13.575 -0.9076,15.5 -0.2164,3.4489 -4.1846,13.3879 -13.5744,34 -2.6308,5.775 -5.3418,11.9837 -6.0245,13.7972 -0.6827,1.8134 -2.461,3.9279 -3.9519,4.6988 -1.4908,0.771 -3.4085,2.4373 -4.2615,3.7029 -2.7988,4.1526 -15.0546,16.4043 -25.4847,25.4761 -6.145,5.3448 -12.2694,11.7879 -15.3181,16.1152 -2.7938,3.9654 -5.5205,7.2098 -6.0594,7.2098 -0.5389,0 -2.0503,1.2375 -3.3586,2.75 -2.1354,2.4687 -2.4499,2.5668 -3.0746,0.9592 -0.594,-1.5284 -1.6065,-0.9424 -6.9116,4 -8.2746,7.7089 -16.5767,14.7139 -19.0391,16.0644 -6.1109,3.3516 -20.5529,10.0834 -24.0015,11.1876 -2.1992,0.7042 -4.426,1.676 -4.9485,2.1596 -0.5225,0.4836 -2.5179,0.8792 -4.4343,0.8792 -1.9163,0 -5.3138,0.8593 -7.55,1.9096 -4.4507,2.0903 -7.5624,2.7048 -21.0657,4.1595 -4.95,0.5333 -12.6,1.8881 -17,3.0108 -11.3475,2.8954 -14.5,3.3366 -14.5,2.0295 0,-0.6102 0.675,-1.1094 1.5,-1.1094 2.6193,0 1.5754,-1.4415 -2.3534,-3.25 -4.8722,-2.2427 -5.6112,-2.2057 -9.219,0.4617 l -2.9915,2.2116 -4.2887,-2.3428 c -3.5596,-1.9445 -4.66,-2.1441 -6.4723,-1.1742 -2.591,1.3866 -9.2136,-0.043 -11.1811,-2.4135 -0.6814,-0.821 -2.0838,-1.4928 -3.1164,-1.4928 -2.6767,0 -5.8776,-3.557 -5.8776,-6.5314 0,-1.3922 -0.675,-2.7904 -1.5,-3.107 -2.0045,-0.7692 -1.8903,-3.1673 0.3774,-7.9238 5.3495,-11.2206 7.1226,-15.2158 7.1226,-16.0491 0,-0.5051 0.9224,-2.6393 2.0498,-4.7427 1.1273,-2.1034 2.9473,-6.1468 4.0444,-8.9852 1.0971,-2.8384 3.7471,-8.7608 5.8888,-13.1608 2.1418,-4.4 4.6089,-9.6684 5.4824,-11.7075 0.8734,-2.0392 2.0633,-4.0012 2.6441,-4.3602 0.5808,-0.3589 1.9194,-2.6669 2.9747,-5.1288 1.0553,-2.4619 3.9086,-7.0248 6.3406,-10.1398 4.1752,-5.3478 4.4038,-5.9704 4.0988,-11.1637 -0.1851,-3.1507 0.168,-6.0997 0.8267,-6.9039 1.2636,-1.543 1.6544,-19.0961 0.4252,-19.0961 -0.4087,0 -0.1148,-1.4625 0.6532,-3.25 0.768,-1.7875 1.9531,-5.95 2.6335,-9.25 0.6804,-3.3 2.5371,-8.0914 4.126,-10.6476 2.214,-3.5618 2.7969,-5.5436 2.4954,-8.4833 -0.5521,-5.3813 0.7057,-9.4628 6.2771,-20.3691 2.6691,-5.225 5.7562,-12.2 6.8601,-15.5 1.1039,-3.3 2.9459,-7.8908 4.0932,-10.2017 1.1473,-2.3109 2.086,-4.7572 2.086,-5.4361 0,-2.7241 3.3799,-14.4778 4.9851,-17.3357 0.9411,-1.6756 1.5616,-4.0264 1.3788,-5.2241 -0.2093,-1.3719 0.3094,-2.4084 1.4019,-2.8011 1.7812,-0.6404 10.4654,-13.3109 12.0637,-17.6014 0.4917,-1.3199 0.7711,-3.1874 0.6208,-4.1499 -0.1591,-1.0183 0.3615,-1.75 1.2452,-1.75 0.9389,0 1.2988,-0.5725 0.9429,-1.5 -0.3166,-0.825 -0.1819,-1.5 0.2994,-1.5 0.4812,0 0.6571,-0.8329 0.3909,-1.8509 -0.2662,-1.018 0.2259,-2.5609 1.0937,-3.4286 0.8677,-0.8677 1.5776,-2.185 1.5776,-2.9273 0,-0.7423 1.5808,-4.6482 3.5129,-8.6798 1.9321,-4.0316 4.0193,-9.3412 4.6382,-11.7991 0.8044,-3.1947 1.7986,-4.7249 3.4871,-5.3668 1.4388,-0.5471 2.3618,-1.7118 2.3618,-2.9803 0,-1.1453 1.218,-4.1939 2.7068,-6.7748 2.1942,-3.8038 2.7025,-5.9233 2.6843,-11.1924 -0.012,-3.575 -0.3539,-7.7971 -0.759,-9.3824 l -0.7367,-2.8825 -1.9866,2.1325 c -2.311,2.4804 -6.1221,2.7852 -7.9088,0.6324 -3.1026,-3.7385 -11.6586,-0.7051 -14.7011,5.2119 -1.0713,2.0834 -2.6903,5.1381 -3.5977,6.7881 -0.9075,1.65 -3.2618,6.375 -5.2317,10.5 -1.97,4.125 -4.2249,8.625 -5.0109,10 -0.786,1.375 -1.4358,3.2936 -1.4439,4.2636 -0.01,0.9699 -0.4261,2.5449 -0.929,3.5 -2.178,4.1363 -5.1177,12.3702 -5.6782,15.904 -0.3343,2.1078 -0.9544,4.5074 -1.3779,5.3324 -0.4235,0.825 -0.716,2.9625 -0.6498,4.7501 0.066,1.7875 -0.1072,3.25 -0.3851,3.25 -1.1073,-2e-4 -2.6979,7.0653 -1.7258,7.6661 0.5638,0.3485 0.2799,1.0068 -0.6615,1.5336 -0.9072,0.5077 -1.4072,1.3151 -1.1111,1.7942 0.2961,0.4791 -0.529,3.2639 -1.8335,6.1885 -3.4807,7.8037 -3.7881,8.8304 -4.2866,14.3175 -0.7953,8.754 -1.3907,11.2672 -2.982,12.5878 -1.9547,1.6222 -8.2601,14.2848 -8.8576,17.7878 -0.2462,1.4434 -0.9106,5.5494 -1.4764,9.1244 -0.5659,3.575 -1.7651,9.2 -2.665,12.5 -0.8998,3.3 -1.8618,7.0254 -2.1377,8.2786 -0.3684,1.6737 -0.9914,2.1233 -2.3462,1.6932 -1.4237,-0.4518 -1.9777,0.055 -2.4274,2.2214 -0.3205,1.5437 -0.9763,4.3818 -1.4573,6.3068 -2.3054,9.2263 -4.6176,24.1347 -3.8197,24.6279 0.5177,0.3199 0.5103,1.036 -0.018,1.7111 -0.4993,0.6386 -1.1939,2.6683 -1.5435,4.5106 -0.3496,1.8423 -1.8026,4.7365 -3.2289,6.4316 -2.1565,2.5628 -2.4777,3.683 -1.907,6.6504 1.9102,9.9315 -0.2317,25.3972 -4.0947,29.5654 -1.3332,1.4385 -2.841,2.3579 -3.3505,2.043 -1.3753,-0.85 -2.1541,0.9512 -2.6643,6.1617 -0.2511,2.5635 -0.8639,5.1519 -1.3619,5.7519 -0.498,0.6001 -1.8022,4.231 -2.8983,8.0687 -3.326,11.646 -6.0969,18.9191 -7.651,20.0831 -1.4508,1.0866 -4.8894,9.3946 -3.8883,9.3946 0.2817,0 -0.1567,1.2375 -0.9742,2.75 -2.5557,4.7283 -7.7956,22.7477 -6.8809,23.6624 0.2724,0.2725 -0.9089,2.2684 -2.6252,4.4354 -1.7164,2.167 -3.1206,4.4003 -3.1206,4.9628 0,0.5625 -0.3375,1.1727 -0.75,1.3561 -0.4125,0.1833 -3.3803,4.2724 -6.5951,9.0868 -3.2148,4.8145 -6.3882,9.0895 -7.0519,9.5 -0.6637,0.4106 -2.7212,2.659 -4.5722,4.9965 -2.2359,2.8235 -4.1485,4.25 -5.6982,4.25 -1.2829,0 -2.3326,0.4597 -2.3326,1.0215 0,0.5618 -2.475,3.5363 -5.5,6.61 -3.025,3.0737 -5.5,6.4686 -5.5,7.5443 0,3.1769 -1.5666,5.737 -7.395,12.0844 -1.4091,1.5345 -2.282,3.4179 -1.966,4.2415 0.3453,0.8998 -0.1593,1.7118 -1.2852,2.0683 -3.5053,1.1097 -7.8616,3.7597 -12.0686,7.3416 -9.0925,7.7413 -11.8709,9.6885 -21.15854,14.8286 -5.2946,2.9303 -13.6767,7.1566 -18.6267,9.3919 -4.95,2.2352 -11.025,4.9752 -13.5,6.089 -7.4624,3.358 -21.1858,8.7789 -22.2245,8.7789 -0.5353,0 -2.3912,0.6396 -4.1243,1.4214 -1.7332,0.7818 -8.1012,2.1564 -14.1512,3.0547 -6.05,0.8982 -12.8,2.0636 -15,2.5896 -4.4426,1.0622 -8.542,1.5287 -25.7181,2.9265 -6.4449,0.5245 -12.7449,1.1556 -14,1.4024 -1.3394,0.2634 -4.1138,-0.6247 -6.7172,-2.1501 z m -171.61588,-324.46 c -0.9265,-3.4565 -2.3306,-8.9845 -3.1202,-12.2845 -3.1521,-13.1743 -3.5152,-14.168 -4.3853,-12 -1.4165,3.5294 -0.9977,10.0692 1.0567,16.5 1.1,3.4433 2,6.8546 2,7.5806 0,0.726 0.589,1.6799 1.3088,2.1197 0.7198,0.4398 1.9487,2.3747 2.7309,4.2997 2.1444,5.2773 2.4096,1.2478 0.4091,-6.2155 z m 282.55118,-69.7845 c 0,-0.55 -0.675,-1 -1.5,-1 -0.825,0 -1.5,0.45 -1.5,1 0,0.55 0.675,1 1.5,1 0.825,0 1.5,-0.45 1.5,-1 z m 7.0702,-20.6845 c 0.5613,-1.4764 0.8323,-3.6139 0.6022,-4.75 -0.4063,-2.0056 -0.44,-2.0002 -1.162,0.1845 -0.409,1.2375 -1.2536,2.2569 -1.877,2.2653 -0.6233,0.01 -0.4584,0.4927 0.3666,1.0761 1.1288,0.7984 1.1907,1.1864 0.25,1.5681 -1.5028,0.6098 -1.6694,2.3405 -0.2252,2.3405 0.5636,0 1.484,-1.208 2.0454,-2.6845 z m 683.12584,-91.4333 -0.4705,-3.2059 -1.4625,2.7912 c -1.1886,2.2687 -1.2187,2.9419 -0.1605,3.5959 2.0054,1.2393 2.6079,0.3237 2.0935,-3.1812 z m -0.196,-5.3822 c 0,-0.825 -0.45,-1.5 -1,-1.5 -0.55,0 -1,0.675 -1,1.5 0,0.825 0.45,1.5 1,1.5 0.55,0 1,-0.675 1,-1.5 z m -677.00004,-25.5 c 0,-1.65 -0.4765,-3 -1.059,-3 -0.5824,0 -0.7809,-0.45 -0.441,-1 0.34,-0.55 0.1415,-1 -0.4409,-1 -0.5825,0 -1.0925,0.7875 -1.1334,1.75 -0.041,0.9625 -0.263,2.7625 -0.4937,4 -0.3208,1.7212 0.049,2.25 1.5743,2.25 1.5486,0 1.9937,-0.6698 1.9937,-3 z m 1089.63034,-37.25 c -0.3317,-1.2375 -0.6091,-5.5875 -0.6166,-9.6667 -0.01,-4.0791 -0.3229,-7.1075 -0.7007,-6.7296 -0.7952,0.7951 -1.04,2.0563 -1.9144,9.8602 -0.731,6.5241 -0.1681,8.7861 2.1866,8.7861 1.2211,0 1.4918,-0.5829 1.0451,-2.25 z M 444.41488,172.38227 c 0,-0.825 -0.45,-1.5 -1,-1.5 -0.55,0 -1,0.675 -1,1.5 0,0.825 0.45,1.5 1,1.5 0.55,0 1,-0.675 1,-1.5 z m 244.7646,-61.91618 c -0.1057,-2.42891 0.427,-5.57318 1.1838,-6.98729 1.1967,-2.23619 1.1348,-3.36766 -0.4755,-8.686059 -1.256,-4.1485 -2.5141,-6.38328 -3.9121,-6.94933 -2.0213,-0.81838 -2.0224,-0.83709 -0.061,-0.9767 1.1986,-0.0853 1.4759,-0.35217 0.6921,-0.66601 -0.7193,-0.28802 -2.1267,0.21738 -3.1275,1.12311 -1.6361,1.48065 -1.6934,2.12156 -0.5677,6.35262 0.6885,2.58821 1.7667,8.024609 2.3958,12.080869 0.6291,4.05627 1.3871,7.76877 1.6845,8.25 1.3372,2.16365 2.3633,0.50247 2.1873,-3.54121 z m 875.23542,-4.5913 c 0.825,-0.41815 3.525,-1.09722 6,-1.50905 3.9794,-0.66216 4.2311,-0.84859 2.1755,-1.61145 -1.4295,-0.53054 -3.0904,-0.45275 -4.3139,0.20205 -1.245,0.66633 -2.4332,0.71595 -3.1755,0.13262 -1.7237,-1.3546 -13.6861,-2.39591 -13.6861,-1.19136 0,0.54157 -0.825,0.98467 -1.8333,0.98467 -2.8222,0 -3.3415,1.15158 -1.4164,3.14098 1.4709,1.52007 2.7855,1.71289 8.2497,1.21001 3.575,-0.32902 7.175,-0.94033 8,-1.35847 z M 722.91488,93.882271 c -0.3399,-0.55 -1.2664,-1 -2.059,-1 -0.7925,0 -1.441,0.45 -1.441,1 0,0.55 0.9266,1 2.0591,1 1.1324,0 1.7809,-0.45 1.4409,-1 z"
     id="path2987"
     inkscape:connector-curvature="0" />
</svg>
