<?xml version="1.0" encoding="UTF-8" standalone="no"?>
<!-- Created with Inkscape (http://www.inkscape.org/) -->

<svg
   xmlns:dc="http://purl.org/dc/elements/1.1/"
   xmlns:cc="http://creativecommons.org/ns#"
   xmlns:rdf="http://www.w3.org/1999/02/22-rdf-syntax-ns#"
   xmlns:svg="http://www.w3.org/2000/svg"
   xmlns="http://www.w3.org/2000/svg"
   xmlns:sodipodi="http://sodipodi.sourceforge.net/DTD/sodipodi-0.dtd"
   xmlns:inkscape="http://www.inkscape.org/namespaces/inkscape"
   id="svg2"
   version="1.1"
   inkscape:version="0.48.2 r9819"
   width="2242.9973"
   height="1501.2023"
   sodipodi:docname="diamondfairybook00papiala_0055e.png">
  <metadata
     id="metadata8">
    <rdf:RDF>
      <cc:Work
         rdf:about="">
        <dc:format>image/svg+xml</dc:format>
        <dc:type
           rdf:resource="http://purl.org/dc/dcmitype/StillImage" />
        <dc:title></dc:title>
      </cc:Work>
    </rdf:RDF>
  </metadata>
  <defs
     id="defs6" />
  <sodipodi:namedview
     pagecolor="#ffffff"
     bordercolor="#666666"
     borderopacity="1"
     objecttolerance="10"
     gridtolerance="10"
     guidetolerance="10"
     inkscape:pageopacity="0"
     inkscape:pageshadow="2"
     inkscape:window-width="1600"
     inkscape:window-height="876"
     id="namedview4"
     showgrid="false"
     fit-margin-top="0"
     fit-margin-left="0"
     fit-margin-right="0"
     fit-margin-bottom="0"
     inkscape:zoom="0.35355339"
     inkscape:cx="639.35759"
     inkscape:cy="665.93729"
     inkscape:window-x="0"
     inkscape:window-y="24"
     inkscape:window-maximized="1"
     inkscape:current-layer="svg2" />
  <path
     style="fill:#000000"
     d="m 1739.8089,1500.0778 c -1.65,-0.5784 -3.675,-1.5924 -4.5,-2.2534 -0.825,-0.6611 -3.3,-2.0198 -5.5,-3.0195 -5.5361,-2.5155 -14.1786,-9.4358 -24.6873,-19.7677 -4.8949,-4.8125 -9.4724,-8.75 -10.1722,-8.75 -1.3916,0 -7.0642,-6.0333 -8.8317,-9.3932 -0.6095,-1.1588 -1.3783,-2.3369 -1.7085,-2.6181 -0.3302,-0.2812 -2.5128,-4.2195 -4.8503,-8.7517 -2.8862,-5.5961 -4.25,-9.5045 -4.25,-12.1797 0,-2.1666 -0.3906,-4.1807 -0.868,-4.4757 -1.1394,-0.7042 -0.597,-13.3312 0.7189,-16.7345 0.5642,-1.459 1.5035,-2.9481 2.0874,-3.309 0.5839,-0.3609 1.0617,-2.4592 1.0617,-4.6629 0,-2.2037 0.481,-4.9054 1.0689,-6.0039 0.5879,-1.0985 1.2437,-4.7122 1.4575,-8.0306 0.2137,-3.3183 0.908,-6.6592 1.543,-7.4243 0.6349,-0.765 0.9078,-2.0335 0.6064,-2.819 -0.3014,-0.7854 0.3232,-3.7209 1.3881,-6.5234 1.0648,-2.8025 1.9389,-5.8781 1.9423,-6.8347 0,-0.9566 0.7,-3.07 1.5481,-4.6963 1.5256,-2.9257 2.2173,-7.3963 2.9464,-19.043 0.9886,-15.7923 1.4692,-19.7589 2.5521,-21.0636 0.6438,-0.7757 0.8945,-2.51 0.5572,-3.854 -0.3373,-1.344 -0.1426,-3.6816 0.4327,-5.1946 0.5752,-1.513 1.4269,-6.1568 1.8926,-10.3194 0.4657,-4.1626 1.0677,-8.4684 1.3378,-9.5684 0.4452,-1.8132 1.3452,-6.8188 2.4271,-13.5 0.2227,-1.375 0.6001,-5.3541 0.8387,-8.8425 0.2386,-3.4884 0.8436,-7.9884 1.3443,-10 0.9216,-3.702 0.7432,-13.9191 -0.4258,-24.3822 -0.5636,-5.0452 -1.0146,-5.9515 -3.7985,-7.6351 -4.1772,-2.5262 -14.2698,-3.9335 -24.1589,-3.3687 -4.4,0.2513 -10.025,0.518 -12.5,0.5927 -4.3163,0.1303 -8.8559,2.4035 -13.1068,6.5634 -3.8143,3.7327 -7.6305,6.6764 -10.8932,8.4026 -1.925,1.0185 -5.0815,3.0969 -7.0145,4.6187 -1.933,1.5217 -4.633,3.1071 -6,3.523 -1.367,0.4159 -3.8355,1.5563 -5.4855,2.5342 -1.65,0.978 -4.4374,2.0819 -6.1942,2.4532 -1.7568,0.3713 -5.1318,2.1311 -7.5,3.9106 -2.3682,1.7796 -6.1058,3.7756 -8.3058,4.4357 -4.5197,1.3561 -8.2267,3.9831 -8.689,6.1575 -0.4142,1.9486 -6.3001,4.0032 -11.5216,4.0218 -2.5632,0.01 -4.715,0.6207 -5.5,1.5631 -3.8037,4.5665 -5.312,5.452 -9.2868,5.452 -2.2662,0 -4.9938,0.6607 -6.0615,1.4682 -1.0676,0.8075 -3.667,1.4825 -5.7764,1.5 -3.1558,0.026 -4.3913,-0.5961 -6.973,-3.5122 l -3.1376,-3.5439 -9.527,0.6778 c -12.1186,0.8623 -18.2513,3.8354 -22.0389,10.6842 -5.7072,10.3202 -9.0592,12.1004 -22.4541,11.9252 -6.9762,-0.091 -10.8471,0.3092 -12.9036,1.3351 -1.6158,0.8061 -5.2321,1.4656 -8.0363,1.4656 -4.6601,0 -5.5139,-0.3869 -9.9305,-4.5 -2.6576,-2.475 -5.4691,-4.5562 -6.2478,-4.625 -0.7788,-0.069 -1.7534,-0.2078 -2.1659,-0.3091 -0.4125,-0.1012 -2.775,-0.5459 -5.25,-0.9881 -2.475,-0.4421 -4.95,-1.1477 -5.5,-1.5678 -1.5398,-1.1761 -6.7852,-0.6607 -7.2415,0.7116 -0.2234,0.6719 0.7171,2.3449 2.0901,3.7179 5.0293,5.0293 3.9423,8.495 -2.0704,6.601 -1.528,-0.4813 -4.0157,-1.1459 -5.5282,-1.4769 -1.7763,-0.3886 -2.75,-1.2482 -2.75,-2.4277 0,-2.7081 -3.2279,-5.1359 -6.8287,-5.1359 -2.1184,0 -3.1713,-0.4863 -3.1713,-1.4648 0,-1.3504 -2.0878,-3.0076 -4.5,-3.5719 -2.3265,-0.5443 -5.5,-2.3468 -5.5,-3.1238 0,-0.4617 0.8734,-0.8395 1.941,-0.8395 1.0675,0 2.17,-0.3706 2.45,-0.8236 0.6173,-0.9989 -2.5997,-11.5151 -4.7956,-15.6764 -0.8707,-1.65 -1.5859,-3.8478 -1.5892,-4.884 0,-1.0362 -0.5059,-3.5518 -1.1166,-5.5902 -0.9323,-3.1118 -1.4795,-3.6357 -3.4116,-3.2663 -4.0365,0.7716 -5.225,-2.7903 -6.3063,-18.8986 -0.5404,-8.0514 -1.524,-15.6507 -2.1857,-16.8871 -0.6618,-1.2365 -0.9572,-3.7637 -0.6566,-5.6162 0.3254,-2.0055 -0.033,-4.4785 -0.8853,-6.1128 -0.7875,-1.5097 -1.4346,-4.4057 -1.4379,-6.4358 0,-2.03 -0.4562,-3.9691 -1.0062,-4.309 -0.55,-0.3399 -1,-1.4449 -1,-2.4556 0,-1.0106 -3.123,-4.9605 -6.9399,-8.7774 -3.8169,-3.8169 -7.2234,-8.0695 -7.5699,-9.4501 -1.0499,-4.1831 -9.0169,-10.0705 -14.3475,-10.6024 -2.5212,-0.2516 -5.5795,-1.1098 -6.7963,-1.9071 -3.2782,-2.148 -5.7194,-0.3441 -9.4095,6.9531 -1.7353,3.4317 -4.451,8.7145 -6.0347,11.7395 -1.5837,3.025 -2.8846,6.4341 -2.8909,7.5757 -0.01,1.1416 -1.1363,3.1326 -2.5113,4.4243 -1.375,1.2917 -2.5143,3.0577 -2.5318,3.9243 -0.017,0.8666 -0.6925,2.4492 -1.5,3.5168 -0.8075,1.0677 -1.4682,2.8377 -1.4682,3.9335 0,2.4442 -3.8237,13.5656 -5.3723,15.6254 -1.489,1.9806 -3.6096,5.6888 -5.7256,10.0121 -2.0806,4.2511 -4.5441,6.5163 -7.9677,7.3264 -3.9979,0.946 -6.9344,4.04 -6.9344,7.3063 0,1.6006 -0.6132,3.7978 -1.3627,4.8827 -1.3013,1.8835 -2.3104,5.8163 -2.9943,11.6695 -0.1734,1.4833 -2.0754,4.845 -4.2267,7.4705 -4.339,5.2952 -8.126,12.2095 -8.5785,15.6628 -0.4534,3.4596 7.9243,19.4161 11.2145,21.3597 3.3781,1.9954 4.12,5.17 2.3604,10.0989 -0.7287,2.0411 -1.3447,4.5977 -1.3688,5.6812 -0.024,1.0836 -1.0564,4.0832 -2.2939,6.6657 -1.8287,3.8164 -3.1412,5.0859 -7.0095,6.7799 -5.8339,2.5548 -14.3114,2.7736 -17.6219,0.4548 -1.7849,-1.2502 -3.7355,-1.5017 -8.3805,-1.0805 -6.9211,0.6276 -10.1469,-0.7982 -11.1876,-4.9448 -0.3519,-1.4022 -1.9613,-3.6614 -3.5763,-5.0204 -1.7392,-1.4634 -3.3771,-4.1738 -4.0173,-6.6478 -0.8222,-3.1775 -2.726,-5.7323 -7.9566,-10.677 -7.5454,-7.1331 -10.1424,-11.9172 -12.0434,-22.1862 -0.6428,-3.4726 -2.061,-7.5869 -3.1514,-9.143 -1.6328,-2.3302 -1.791,-3.3004 -0.8969,-5.5 0.5971,-1.4689 1.0372,-4.0208 0.978,-5.6708 -0.059,-1.65 0.3721,-7.011 0.9583,-11.9134 1.0105,-8.4508 1.9601,-10.5337 4.8198,-10.5713 1.2704,-0.017 2.9966,-14.1362 1.9377,-15.8496 -0.3394,-0.5492 -0.1507,-3.1737 0.4195,-5.8321 0.5701,-2.6585 1.0729,-5.2836 1.1173,-5.8336 0.044,-0.55 0.8687,-2.125 1.8319,-3.5 0.9632,-1.375 2.3171,-4.3 3.0087,-6.5 0.6916,-2.2 2.5976,-5.4163 4.2355,-7.1474 2.413,-2.5501 3.2527,-4.7297 4.4249,-11.4845 0.937,-5.399 1.123,-9.0473 0.5278,-10.3525 -2.2728,-4.9847 -3.168,-7.7718 -3.168,-9.8627 0,-1.2391 -0.5316,-2.7845 -1.1813,-3.4342 -0.6498,-0.6498 -1.4971,-3.8588 -1.8829,-7.1312 -0.4213,-3.5728 -1.5719,-7.1721 -2.8802,-9.0094 -1.5163,-2.1295 -2.0311,-3.9956 -1.6934,-6.1384 0.5512,-3.4974 -0.9189,-8.5556 -2.6833,-9.2327 -0.6497,-0.2493 -8.3808,0.1528 -17.1801,0.8936 -8.7993,0.7408 -20.4824,1.4592 -25.9623,1.5964 -9.6754,0.2422 -10.0437,0.3369 -12.7353,3.2762 -2.1159,2.3105 -2.638,3.6782 -2.2065,5.7793 0.3766,1.8338 -0.1289,3.8758 -1.5147,6.118 -1.144,1.8511 -2.08,4.1481 -2.08,5.1046 0,0.9564 -1.2848,4.5033 -2.8551,7.8819 -4.6756,10.0599 -7.371,17.4682 -6.7317,18.5025 0.3301,0.5342 -0.4835,2.259 -1.808,3.8331 -1.3245,1.5741 -2.9373,4.8747 -3.584,7.3347 -0.6467,2.46 -2.4353,6.0645 -3.9747,8.01 -1.5393,1.9455 -3.1187,5.4306 -3.5097,7.7447 -0.3909,2.3141 -1.1217,4.4614 -1.6238,4.7718 -1.844,1.1396 -1.0157,12.1578 1.1956,15.9057 1.4631,2.4798 1.803,3.9514 1.1101,4.8072 -0.5491,0.6783 -0.9917,2.4926 -0.9836,4.0317 0.019,3.5762 -2.6966,5.6292 -7.4998,5.6698 -3.0853,0.026 -4.0779,-0.4831 -5.5,-2.8217 -0.9544,-1.5694 -2.1853,-2.9146 -2.7353,-2.9893 -4.5103,-0.6127 -11.5,-5.9082 -11.5,-8.7125 0,-2.6652 -3.6156,-7.4224 -7.1516,-9.4098 -4.7117,-2.6481 -9.4591,-12.0431 -10.3765,-20.5349 -1.1639,-10.7747 -1.2102,-18.9614 -0.1187,-21 0.5889,-1.1 1.1901,-6.275 1.336,-11.5 0.1458,-5.225 0.5345,-10.6411 0.8636,-12.0357 0.6841,-2.8987 0.8592,-2.8543 -11.9307,-3.0293 -6.005,-0.082 -8.2594,0.2738 -9.483,1.4973 -1.9754,1.9754 -0.7375,4.438 3.2031,6.3723 3.4434,1.6901 3.4916,4.9279 0.093,6.2202 -3.5896,1.3647 -3.5708,1.3707 -7.9766,-2.5235 -6.7791,-5.9918 -7.4335,-6.5013 -8.3513,-6.5013 -1.1241,0 -2.1725,2.6011 -1.3714,3.4022 0.3287,0.3288 1.353,0.5978 2.2761,0.5978 2.3636,0 5.3566,3.5979 4.6104,5.5424 -0.4408,1.1488 -1.4168,1.4642 -3.3713,1.0897 -1.5129,-0.29 -6.0133,-0.8215 -10.0008,-1.1812 -6.0837,-0.5487 -7.25,-0.4113 -7.25,0.854 0,0.9818 0.6539,1.3369 1.8742,1.0177 1.4591,-0.3815 1.9694,0.1582 2.3037,2.4364 0.5303,3.6129 -1.6049,4.7482 -11.5814,6.158 -5.4915,0.7761 -7.4673,0.684 -9.6604,-0.4501 -1.5164,-0.7841 -4.3574,-1.6242 -6.3134,-1.8668 -1.956,-0.2426 -4.023,-0.7294 -4.5932,-1.0819 -1.5251,-0.9425 -14.3185,-2.5532 -23.73393,-2.988 -7.7792,-0.3593 -8.4147,-0.2265 -12.2631,2.5612 -4.2454,3.0754 -8.318,3.2129 -9.4288,0.3184 -0.6666,-1.7373 -4.572,-1.822 -8.3066,-0.1802 -3.4882,1.5335 -4.4644,2.8639 -3.2103,4.3749 1.7513,2.1103 -1.1151,6.1885 -5.9456,8.4592 -10.4292,4.9022 -19.0729,6.8991 -30.0913,6.9515 -11.9,0.057 -15.9727,-0.4926 -24.8774,-3.3548 -4.5801,-1.4722 -11.1051,-2.9134 -14.5,-3.2027 -3.3949,-0.2893 -7.337,-0.985 -8.7602,-1.5459 -1.4232,-0.561 -2.9982,-0.9218 -3.5,-0.8019 -2.8003,0.6696 -14.8102,-4.947 -17.0411,-7.9695 -0.6698,-0.9075 -3.1093,-1.6626 -6,-1.8572 -23.2425,-1.5648 -26.4946,-1.978 -28.0851,-3.5685 -1.4515,-1.4515 -1.4844,-1.9757 -0.2671,-4.2502 1.1951,-2.233 1.186,-2.7261 -0.065,-3.5384 -3.7894,-2.4601 -8.2341,-2.2059 -29.4562,1.6845 -2.5168,0.4614 -3.3724,0.05 -5.2901,-2.5438 -1.9346,-2.6168 -2.5959,-2.9293 -4.2853,-2.0251 -2.5307,1.3543 -4.9928,0.5764 -7.8705,-2.4867 -1.2455,-1.3258 -2.822,-2.1966 -3.5032,-1.9352 -0.6812,0.2614 -2.4562,-1.1211 -3.9444,-3.0723 -1.4882,-1.9511 -3.3641,-3.5475 -4.1685,-3.5475 -0.8045,0 -2.3166,-0.5332 -3.3601,-1.185 -1.4157,-0.884 -2.8722,-0.9079 -5.7365,-0.094 -4.7127,1.3392 -7.6334,1.1095 -9.9092,-0.7793 -1.1493,-0.954 -4.6453,-1.5291 -10.3334,-1.7002 -19.5327,-0.5872 -27.0964,-0.074 -27.0964,1.838 0,0.5063 -2.0385,0.9205 -4.5301,0.9205 -5.4225,0 -15.9232,4.1792 -19.4699,7.7488 -1.375,1.384 -6.6625,5.4529 -11.75,9.0422 -5.0875,3.5892 -9.25,6.893 -9.25,7.3418 0,0.4487 -1.4625,1.5652 -3.25,2.4811 -1.7875,0.9158 -3.475,1.9816 -3.75,2.3684 -0.275,0.3868 -1.9218,0.9796 -3.6595,1.3174 -6.1103,1.1877 -4.9903,-1.4256 5.3783,-12.5497 1.5178,-1.6284 1.4874,-1.75 -0.4368,-1.75 -1.1374,0 -4.3942,2.1375 -7.2373,4.75 -2.8431,2.6125 -6.4462,5.425 -8.0067,6.25 -9.8459,5.205 -10.2064,5.3271 -12.8837,4.3615 -3.0545,-1.1016 -3.0838,-3.4474 -0.083,-6.668 2.595,-2.7855 2.4425,-3.4218 -1.0018,-4.1783 -1.612,-0.3541 -3.4671,-1.2898 -4.1225,-2.0795 -1.6362,-1.9715 -3.2019,-1.8076 -7.6169,0.7972 -2.6163,1.5437 -6.2609,2.4464 -11.8071,2.9244 -7.0261,0.6055 -8.4264,0.4422 -11.2726,-1.3145 -2.1816,-1.3465 -3.25,-2.7816 -3.25,-4.3653 0,-1.2977 -0.4301,-2.6253 -0.9558,-2.9502 -0.5257,-0.3249 -5.3632,-0.626 -10.75,-0.6692 -10.7768,-0.086 -17.115,-1.7698 -20.895,-5.5498 -2.4784,-2.4783 -6.2856,-3.022 -8.1445,-1.163 -0.8604,0.8604 -2.2843,0.8263 -5.7241,-0.1367 -5.079,-1.422 -15.7871,-0.8705 -17.95,0.9245 -0.7395,0.6137 -4.2102,1.5121 -7.7126,1.9964 -5.997,0.8292 -17.3804,2.952 -28.1328,5.2462 -4.6347,0.9889 -12.5713,-0.071 -16.8011,-2.2445 -2.4208,-1.2437 -33.2335,-1.9261 -34.6312,-0.767 -1.1295,0.9367 -41.2728,1.2184 -83.6484,0.5868 -9.2651,-0.138 -17.0686,0.11 -17.3413,0.5512 -0.2727,0.4412 -3.0422,0.7108 -6.1545,0.5992 -8.3541,-0.2996 -35.0409,1.0982 -39.6587,2.0772 -2.2,0.4665 -6.25,0.4889 -9,0.05 -2.75,-0.439 -5.225,-0.4542 -5.5,-0.034 -0.5464,0.8355 -8.9582,1.9434 -18.6964,2.4624 -4.2963,0.2289 -7.1033,0.976 -9.1543,2.4365 -1.627,1.1585 -4.0996,2.1063 -5.4947,2.1063 -1.3951,0 -2.7672,0.3731 -3.049,0.8291 -0.2818,0.456 -3.1209,1.4315 -6.309,2.1678 -3.1882,0.7363 -6.2466,1.6563 -6.7966,2.0445 -0.55,0.3881 -3.25,0.9733 -6,1.3005 -13.4362,1.5987 -25.4119,5.84 -31.5,11.1561 -1.375,1.2007 -4.075,2.8006 -6,3.5555 -1.925,0.7548 -4.4,2.2088 -5.5,3.231 -2.7942,2.5966 -15.1078,8.5513 -19.3153,9.3406 -1.9243,0.361 -4.6655,1.2653 -6.0917,2.0095 -1.4262,0.7442 -4.0986,1.3559 -5.9387,1.3592 -1.8402,0 -4.5402,0.6262 -6,1.3839 -2.5693,1.3336 -5.0158,2.0634 -17.5678,5.2409 -3.2523,0.8233 -6.84,2.1459 -7.9725,2.9392 -1.1325,0.7932 -3.1964,1.449 -4.5865,1.4573 -1.3902,0.01 -4.3275,0.6635 -6.5275,1.4561 -2.200001,0.7925 -5.378301,1.4608 -7.062901,1.4849 -1.6845,0.024 -5.2845,1.1128 -8,2.4192 -2.7154,1.3064 -6.9426,2.7116 -9.3937,3.1228 -2.4511,0.4111 -5.6011,1.5543 -7,2.5403 -5.3268,3.7548 -6.76,3.5308 -12.1967,-1.9059 -3.9415,-3.9416 -5.9432,-5.1682 -9.1927,-5.6332 -3.9687,-0.568 -4.4218,-0.3463 -10.154,4.9678 -5.1216,4.7481 -6.4621,5.505 -9.1562,5.1702 -4.7781,-0.5937 -10.7865,-6.0213 -13.8189,-12.483 -4.0115,-8.5479 -6.1473996,-12.1508 -8.9175996,-15.0422 -2.3317,-2.4338 -5.73500003,-12.5926 -5.90020003,-17.6121 -0.1983,-6.0226 1.37050003,-13.0189 3.71290003,-16.5585 1.419,-2.1443 2.58,-4.2713 2.58,-4.7268 0,-0.4555 4.2947996,-4.9321 9.5439996,-9.948 8.3845,-8.0119 10.1719,-9.2545 14.7126,-10.2283 2.8428,-0.6097 5.4806,-1.6132 5.8618,-2.2301 0.5092,-0.8238 2.2579,-0.7895 6.5873,0.1293 6.7564,1.4338 15.9129,0.9898 25.2943,-1.2265 5.0763,-1.1992 8.9093,-1.3627 17.5,-0.7462 6.05,0.4341 12.3065,1.091 13.9035,1.4596 2.328701,0.5376 3.516501,0.1165 6.000001,-2.1271 4.0263,-3.6374 7.0623,-5.2974 9.6886,-5.2974 1.1655,0 4.8261,-0.7014 8.1345,-1.5587 5.7856,-1.4992 6.0864,-1.4824 7.8773,0.4399 2.2587,2.4244 8.1428,1.8721 11.0523,-1.0374 1.014,-1.0141 2.6596,-1.8438 3.6567,-1.8438 1.8548,0 6.1131,-3.9805 7.9384,-7.4205 1.077,-2.0299 9.8591,-4.9628 14.2487,-4.7586 3.3974,0.1581 9.8345,-2.7361 10.4819,-4.7127 0.8937,-2.7287 6.7535,-5.874 10.0438,-5.3911 2.2596,0.3316 3.5661,-0.186 5.4017,-2.1398 1.8667,-1.987 3.3963,-2.5773 6.6788,-2.5773 3.5611,0 4.5969,-0.4766 6.3319,-2.9131 1.5991,-2.2458 3.9628,-3.4986 10.3181,-5.469 4.5341,-1.4057 9.1438,-2.5051 10.2438,-2.443 1.1,0.062 3.575,-0.1995 5.5,-0.5812 3.0177,-0.5983 3.9562,-0.2737 6.8117,2.3562 3.2915,3.0315 5.1883,3.833 5.1883,2.1924 0,-0.4717 5.0615,-1.1779 11.2479,-1.5694 6.6944,-0.4236 11.8561,-1.2293 12.75,-1.9903 2.9493,-2.5105 11.3554,-4.6027 20.0238,-4.9837 2.487,-0.1093 4.962,-0.4609 5.5,-0.7812 2.2777,-1.3562 7.3174,-1.8294 9.7271,-0.9132 1.9154,0.7282 2.883,0.6416 3.6897,-0.3305 0.8543,-1.0293 0.4159,-1.4531 -2.0036,-1.937 -1.7034,-0.3407 -4.2463,-1.5234 -5.6509,-2.6282 -3.2632,-2.5668 -3.6675,-2.5293 -5.284,0.4912 -2.0572,3.8439 -5.2142,3.1714 -10.4627,-2.2285 -3.7947,-3.9043 -4.4942,-5.1916 -4.0124,-7.385 0.4948,-2.2527 0.039,-2.9931 -3.0015,-4.872 -2.7072,-1.6731 -3.871,-3.2853 -4.7534,-6.5845 -1.3183,-4.9288 -2.7021,-5.8737 -6.2409,-4.2613 -1.9792,0.9017 -2.9737,0.77 -5.2002,-0.6888 l -2.7529,-1.8038 5.962,-5.464 c 3.2791,-3.0052 7.312,-6.1219 8.962,-6.9259 6.3715,-3.1048 7.5,-3.7853 7.5,-4.5233 0,-0.4196 0.6297,-0.7629 1.3995,-0.7629 0.7697,0 3.7399,-1.575 6.6005,-3.5 2.8605,-1.925 5.5693,-3.5 6.0194,-3.5 0.4502,0 2.3175,-0.7511 4.1495,-1.6692 6.2313,-3.1225 6.8038,-3.3308 9.0675,-3.299 1.245,0.017 3.0452,0.6253 4.0006,1.3507 1.4561,1.1057 2.5879,1.025 7,-0.4991 2.8946,-1 6.2896,-1.8328 7.5443,-1.8508 1.2548,-0.018 2.5249,-0.667 2.8224,-1.4424 0.2975,-0.7753 1.7281,-1.7077 3.179,-2.0718 1.451,-0.3642 3.906,-1.9889 5.4557,-3.6105 2.2859,-2.3919 3.1773,-2.7558 4.7238,-1.9281 2.809,1.5033 7.016,1.2404 7.6761,-0.4798 0.3166,-0.825 1.1868,-1.5 1.9339,-1.5 0.747,0 2.8957,-1.35 4.775,-3 1.8792,-1.65 4.0034,-3 4.7204,-3 0.717,0 3.4259,-1.7895 6.0197,-3.97668 2.5939,-2.1871 5.9979,-4.5464 7.5644,-5.2428 1.5665,-0.6964 3.7206,-2.0569 4.7868,-3.0233 1.0662,-0.9665 2.2952,-1.7572 2.731,-1.7572 0.4358,0 1.0757,-1.1289 1.422,-2.5087 0.4075,-1.6237 1.5608,-2.7307 3.2691,-3.1379 1.4516,-0.346 3.0894,-0.9396 3.6394,-1.3191 0.55,-0.3794 3.0978,-1.4645 5.6618,-2.4111 2.564,-0.9467 4.892,-2.321 5.1733,-3.0541 0.2813,-0.733 2.9084,-1.871 5.8381,-2.5288 2.9297,-0.6577 6.0018,-1.4528 6.8268,-1.7668 0.825,-0.314 2.5342,-0.4689 3.7982,-0.3443 2.2099,0.2179 10.4339,-1.8184 16.7018,-4.1355 4.2156,-1.5583 16.3758,-2.4689 20.2231,-1.5143 2.261,0.561 4.1047,0.3439 6.1767,-0.7276 2.8773,-1.4879 3.0464,-1.4372 6.5451,1.9604 2.1945,2.1312 4.5824,3.4878 6.139,3.4878 1.4012,0 3.3899,0.4508 4.4193,1.0018 1.7197,0.9203 7.7434,1.4106 29.4968,2.4011 9.5877,0.4365 13.5,1.7616 13.5,4.5723 0,1.1137 0.5625,2.0874 1.25,2.164 10.8139,1.2041 28.3173,1.5171 30.4959,0.5453 1.7197,-0.7671 2.6754,-0.6132 4.0787,0.6568 3.6158,3.2722 4.046,2.153 3.6869,-9.5913 -0.3264,-10.6758 -0.1656,-11.7768 3.1519,-21.5711 1.9228,-5.6766 3.2655,-10.9218 2.9837,-11.656 -0.2817,-0.7343 0.3163,-2.08476 1.3289,-3.00116 1.0127,-0.9165 2.4202,-3.0963 3.1279,-4.844 2.039,-5.0356 6.812,-10.4109 9.7698,-11.0024 2.3121,-0.4625 2.911,-1.3306 4.0421,-5.8591 0.7303,-2.9239 2.2108,-6.2855 3.2901,-7.4702 1.0793,-1.1847 1.8747,-3.2097 1.7675,-4.5 -0.322,-3.8774 -0.095,-4.3428 3.0101,-6.1772 3.2023,-1.8917 4.8878,-6.1852 4.2185,-10.7459 -0.3253,-2.2164 -1.0413,-2.7994 -4.0486,-3.2967 -2.0094,-0.3323 -5.0948,-0.6091 -6.8565,-0.6152 -2.6558,-0.01 -3.4419,-0.5664 -4.6007,-3.261 -2.5374,-5.9004 -4.8563,-16.8521 -3.8305,-18.0908 0.5748,-0.6942 0.6317,-2.9505 0.1418,-5.6251 -0.6395,-3.4914 -0.3831,-5.628 1.1748,-9.792 1.6538,-4.42 1.7717,-5.5926 0.693,-6.8923 -1.0892,-1.3124 -0.9889,-1.7936 0.6189,-2.9692 1.8753,-1.3713 1.8688,-1.438 -0.2878,-2.9485 -2.8616,-2.0044 -2.7864,-3.9541 0.2936,-7.6145 2.8506,-3.3878 3.1677,-5.3474 1,-6.1792 -0.825,-0.3166 -1.5,-1.4898 -1.5,-2.607 0,-2.4464 -3.1315,-2.7571 -5.3572,-0.5314 -0.825,0.825 -2.1913,1.5 -3.0362,1.5 -0.845,0 -2.0179,0.9 -2.6066,2 -0.8471,1.5828 -2.0939,2 -5.9762,2 -5.5331,0 -6.6376,-0.9437 -4.9501,-4.2293 1.6759,-3.263 7.0905,-8.7707 8.6224,-8.7707 0.7171,0 1.3039,-0.4388 1.3039,-0.975 0,-0.5363 2.0314,-1.90044 4.5142,-3.03154 5.4953,-2.5033 15.4854,-12.3159 15.4854,-15.2104 0,-0.4306 0.8449,-0.7829 1.8776,-0.7829 1.0326,0 2.3442,-0.5625 2.9147,-1.25 1.5697,-1.8918 -9.7803,-1.6223 -12.87,0.3056 -2.2481,1.4028 -12.3651,1.835 -13.6183,0.5818 -1.4628,-1.4628 1.3627,-4.9942 5.3703,-6.71213 2.8399,-1.21731 4.2779,-2.38531 3.9096,-3.17543 -0.3204,-0.68741 -0.8604,-2.03734 -1.1999,-2.99984 -0.9487,-2.68957 -2.1705,-2.15911 -7.3107,3.17398 -3.3261,3.45082 -5.842,5.12962 -8.4096,5.61132 -2.6432,0.4958 -3.6637,1.2003 -3.6637,2.5289 0,1.013 -0.4031,2.8754 -0.8959,4.1388 -1.7627,4.5197 -3.139,10.3724 -3.5065,14.9113 -0.2055,2.53784 -1.1364,5.77834 -2.0685,7.20104 -0.9322,1.4227 -1.4285,3.4264 -1.1027,4.4527 0.3915,1.2338 -0.2663,2.6724 -1.9418,4.2465 l -2.534,2.3805 -2.1783,-2.1783 c -2.3619,-2.3618 -2.7375,-6.9372 -1.8238,-22.21674 0.386,-6.4567 0.8475,-7.9676 3.3169,-10.8611 1.5777,-1.8486 3.2773,-4.4361 3.7768,-5.75 0.4996,-1.3139 1.4034,-2.3889 2.0084,-2.3889 0.6051,0 1.0185,-1.2375 0.9188,-2.75 -0.1,-1.5125 -0.1336,-3.2527 -0.075,-3.86711 0.1688,-1.77907 7.8615,-6.41391 9.5624,-5.76124 2.3167,0.889 4.5956,-0.3225 3.9197,-2.0838 -0.8415,-2.19301 -6.5832,-1.94903 -10.8761,0.46215 -1.9585,1.1 -4.463,2 -5.5656,2 -1.1027,0 -3.1212,0.73147 -4.4856,1.62548 -2.13,1.39561 -3.1038,1.45107 -6.8858,0.39216 -2.4228,-0.67833 -4.8633,-0.95011 -5.4234,-0.60396 -3.5361,2.18543 -15.0666,-3.55576 -13.7952,-6.86884 0.5399,-1.40695 -1.8969,-2.93944 -3.2976,-2.0738 -0.4249,0.26264 -3.8718,-0.37937 -7.6597,-1.4267 -3.7879,-1.04732 -8.6871,-2.11975 -10.8871,-2.38318 -5.2902,-0.63344 -7.5,-1.58252 -7.5,-3.2211 0,-2.70745 -2.1758,-6.00439 -5.0519,-7.65503 -1.7262,-0.9907 -2.9481,-2.52567 -2.9481,-3.70334 0,-1.10623 -0.9,-2.49299 -2,-3.08169 -1.1,-0.5887 -2.0006,-1.61703 -2.0013,-2.28518 -6e-4,-0.66815 -1.1256,-2.52231 -2.5,-4.12036 -1.3742,-1.59805 -2.4987,-3.44141 -2.4987,-4.09636 0,-2.4566 3.0591,-7.19179 5.4849,-8.49003 2.5592,-1.36962 3.4736,-5.29764 1.5151,-6.50807 -1.71,-1.05684 -1.0997,-4.18989 1.1009,-5.65098 4.2543,-2.82478 6.506,-16.1432 3.4184,-20.2202 -1.0904,-1.43985 -2.9847,-1.94185 -8.2181,-2.17776 -11.0123,-0.49639 -17.2126,-1.33097 -19.5808,-2.6356 -1.309,-0.72112 -5.9894,-1.21208 -11.4025,-1.19608 l -9.1822,0.0271 -4.4176,4.67674 c -2.4297,2.57225 -4.9219,4.67678 -5.5382,4.67678 -1.0002,0 -3.7217,1.13021 -16.1799,6.71952 -1.925,0.86364 -5.525,3.22946 -8,5.25738 -2.475,2.02792 -5.175,4.00537 -6,4.39433 -3.689,1.73927 -5.8226,3.40491 -9.2869,7.24997 -2.0422,2.26666 -3.7131,4.57406 -3.7131,5.12756 0,1.62948 -2.4974,3.23161 -5.6058,3.59613 -1.5918,0.18668 -4.5864,0.95253 -6.6546,1.7019 -3.1819,1.15291 -4.4893,1.14961 -8.5,-0.0214 -2.6068,-0.76116 -7.2146,-1.54305 -10.2396,-1.73753 -8.195,-0.52686 -9.5468,-0.99765 -10.8071,-3.76383 -1.4988,-3.28938 -2.9172,-3.18354 -6.7191,0.50138 l -3.1213,3.02535 -5.5769,-2.55317 c -3.0673,-1.40425 -6.1267,-3.21566 -6.7987,-4.02536 -0.672,-0.80975 -1.7575,-1.47223 -2.4123,-1.47223 -1.7068,0 -6.2066,5.06068 -7.0911,7.97513 -1.1974,3.9455 -0.5526,15.27631 0.9668,16.99001 1.6714,1.88498 3.3075,7.91078 2.7926,10.28486 -0.2088,0.9625 -1.22,1.75 -2.2472,1.75 -1.0272,0 -2.1282,0.4215 -2.4466,0.93668 -0.3184,0.51517 -1.9873,1.63931 -3.7088,2.49809 -2.5302,1.26224 -3.4366,1.32228 -4.7301,0.31333 -3.3392,-2.60447 -3.8702,-4.44631 -4.5233,-15.68847 -0.3693,-6.3578 -1.3672,-13.71464 -2.2175,-16.34855 -1.707,-5.28771 -2.097,-13.57466 -0.857,-18.21108 0.4413,-1.65 2.7588,-5.55332 5.15,-8.67404 4.4247,-5.77468 5.2614,-7.82596 3.192,-7.82596 -0.6356,0 -2.6051,-1.10554 -4.3766,-2.45675 -1.7715,-1.35122 -3.496,-2.18168 -3.8322,-1.84547 -1.0404,1.04033 -4.7796,-8.61292 -4.4485,-11.48421 0.2271,-1.96958 1.3548,-3.26192 4.1131,-4.71357 l 3.8001,-2 3.4317,3.71551 c 1.8874,2.04353 3.2045,4.30767 2.9267,5.03143 -0.2777,0.72375 1.0864,2.85832 3.0314,4.74348 3.507,3.39912 3.5523,3.41131 5.4596,1.46857 1.0578,-1.07744 2.0644,-2.62328 2.2368,-3.43518 0.1724,-0.81191 0.8302,-2.03578 1.4618,-2.71973 0.6316,-0.68394 1.4609,-3.93676 1.8429,-7.22849 0.8944,-7.70634 2.2832,-8.93375 7.8293,-6.91981 4.4594,1.61932 6.6403,4.57596 6.6648,9.0352 0.019,3.52557 0.9136,3.95026 5.6085,2.66322 3.7913,-1.03932 13.4062,-9.51456 13.4062,-11.81713 0,-0.56253 3.2625,-3.44843 7.25,-6.41312 3.9875,-2.96469 8.6165,-6.90541 10.2867,-8.75715 3.8802,-4.30199 8.2949,-8.01503 11.486,-9.66046 1.3799,-0.71151 3.7846,-3.73014 5.3438,-6.70807 3.0152,-5.75898 7.3825,-9.74974 11.8835,-10.85877 3.6073,-0.88885 3.6073,-3.89508 0,-6.45432 -5.7242,-4.06109 -10.4021,-6.1866 -12.5445,-5.69981 -3.0522,0.69354 -5.7974,-1.93002 -9.1151,-8.71103 l -2.7985,-5.72005 -2.9677,2.96765 c -2.4057,2.40567 -3.0644,4.0575 -3.4788,8.72285 -0.2812,3.16537 -0.7552,6.43021 -1.0534,7.25521 -0.2982,0.825 -0.4525,3.6375 -0.3429,6.25 0.1906,4.54625 0.083,4.75 -2.5086,4.75 -2.6236,0 -7.4365,-4.21187 -7.4393,-6.51022 -7e-4,-0.55562 -1.1262,-2.22348 -2.5012,-3.70635 -1.375,-1.48288 -2.5,-3.36422 -2.5,-4.18077 0,-1.88129 -1.6605,-2.96098 -2.4899,-1.61897 -0.3455,0.55897 -1.925,1.01631 -3.5101,1.01631 -1.5851,0 -3.1253,0.39375 -3.4228,0.875 -0.2974,0.48125 -1.6302,0.875 -2.9618,0.875 -1.3316,0 -4.004,1.20734 -5.9386,2.68297 -3.0819,2.35066 -3.6286,3.44989 -4.4135,8.875 -0.4928,3.40562 -0.7675,10.34612 -0.6104,15.42334 0.315,10.18596 0.2251,10.34518 -6.5658,11.63542 -3.4889,0.66287 -7.0871,-1.2794 -7.0871,-3.82555 0,-0.63187 -1.6139,-2.69962 -3.5864,-4.59501 -3.2629,-3.13532 -3.5368,-3.81847 -3.0359,-7.57369 0.4425,-3.31812 0.1538,-4.48646 -1.4721,-5.95796 -1.5681,-1.41905 -2.4028,-1.58404 -3.7141,-0.73409 -0.9303,0.60299 -1.6287,1.82339 -1.5519,2.71199 0.077,0.88861 -1.1608,2.70978 -2.75,4.04705 -1.6126,1.35688 -2.8896,3.4277 -2.8896,4.68577 0,3.43224 2.0928,14.13915 3.1681,16.20801 0.6714,1.29177 0.4998,2.52467 -0.581,4.17416 -2.0354,3.10644 -4.9759,3.9233 -7.7915,2.16448 -1.2626,-0.78868 -3.5925,-1.73597 -5.1775,-2.10509 -3.1614,-0.73619 -6.5326,-4.15144 -6.5848,-6.67078 -0.062,-2.95247 -4.7042,-6.89602 -8.1184,-6.89602 -5.146,0 -9.5516,-3.40267 -11.3811,-8.79013 -0.8796,-2.59043 -2.1472,-5.38487 -2.817,-6.20987 -1.3808,-1.70096 -10.069,-6 -12.1258,-6 -0.745,0 -2.6003,-1.6875 -4.1229,-3.75 -1.5226,-2.0625 -4.2404,-5.325 -6.0395,-7.25 -1.7991,-1.925 -4.2068,-4.5125 -5.3503,-5.75 -3.1012,-3.35597 -2.5804,-5.1776 3.2876,-11.5 3.857,-4.15563 6.0573,-5.75 7.9353,-5.75 1.4292,0 2.9584,-0.61645 3.3982,-1.36989 0.4398,-0.75344 2.5997,-2.31 4.7997,-3.45903 2.2,-1.14902 5.125,-3.65385 6.5,-5.56628 2.9837,-4.14984 6.2206,-5.83853 9.5767,-4.99619 1.9564,0.49102 3.071,-0.0729 5.4267,-2.74533 1.6306,-1.8498 2.9718,-3.6507 2.9806,-4.00199 0.01,-0.35129 1.5369,-0.92403 3.3958,-1.27276 2.4357,-0.45694 4.1496,-1.74502 6.136,-4.61129 1.5159,-2.18748 3.1313,-3.97724 3.5898,-3.97724 0.4585,0 3.3681,-2.3625 6.4658,-5.25 6.7266,-6.27022 10.6178,-8.3146 17.6586,-9.27766 2.8985,-0.39647 6.2442,-1.08924 7.4349,-1.53949 1.2187,-0.46085 3.7964,-0.36815 5.8978,0.21208 3.6065,0.9958 3.8596,0.89223 7.4696,-3.05711 2.0552,-2.2483 4.4085,-4.08782 5.2297,-4.08782 0.8212,0 2.025,-0.6409 2.6751,-1.42422 0.6501,-0.78332 4.1335,-2.92082 7.741,-4.75 3.6074,-1.82918 7.9681,-4.09167 9.6904,-5.02775 1.7223,-0.93608 4.1664,-1.72358 5.4312,-1.75 1.2648,-0.0264 3.6632,-0.75317 5.3298,-1.61502 1.6667,-0.86184 4.2318,-1.44831 5.7004,-1.30327 3.6265,0.35817 11.9901,-2.98714 12.6476,-5.05888 0.293,-0.92318 2.4439,-2.88656 4.7798,-4.36306 2.3359,-1.4765 4.8124,-3.58978 5.5034,-4.69617 0.6909,-1.1064 1.8723,-2.01163 2.6253,-2.01163 0.753,0 1.8808,-0.61656 2.5062,-1.37013 0.8959,-1.07947 0.4098,-1.92491 -2.2915,-3.98528 -2.6523,-2.02298 -3.6746,-3.76181 -4.5147,-7.67909 -0.5973,-2.78517 -1.086,-5.69361 -1.086,-6.4632 0,-1.82094 3.4861,-5.37857 8.5,-8.67438 2.2,-1.44613 6.5482,-5.14902 9.6626,-8.22863 3.1144,-3.07961 5.9358,-5.59929 6.2698,-5.59929 0.3341,0 2.2859,-1.05624 4.3375,-2.34721 4.4858,-2.82272 9.8827,-3.72476 25.6608,-4.28894 l 11.9307,-0.42661 12.5693,-6.26641 c 12.9602,-6.46129 17.1223,-8.83102 20.5693,-11.7112 2.5661,-2.14418 6.7761,-4.33496 12.7463,-6.63282 2.6104,-1.00475 4.7479,-2.16431 4.75,-2.57681 0,-0.4125 2.539,-0.75 5.6377,-0.75 7.0928,0 12.8775,-1.6204 17.366,-4.86457 1.925,-1.39134 3.725,-2.79936 4,-3.12894 0.275,-0.32958 3.2,-1.73547 6.5,-3.12419 5.6561,-2.38023 6.2728,-2.44573 10.76,-1.14267 4.4569,1.29424 4.9505,1.24667 7.75,-0.74677 2.9927,-2.131 3.3575,-3.12313 3.0228,-8.22219 -0.1448,-2.20577 1.2878,-4.12405 7.4683,-10 6.9842,-6.64001 13.4989,-14.68407 13.4989,-16.66779 0,-0.43827 0.9,-1.83457 2,-3.10288 1.1,-1.26831 2,-3.47926 2,-4.91323 0,-1.43396 1.0694,-3.76052 2.3765,-5.17013 2.556,-2.75655 4.1511,-6.41668 4.4985,-10.32203 0.1876,-2.10919 6.8938,-9.76201 9.9389,-11.34182 2.9349,-1.52265 8.3752,-0.96363 9.9623,1.02367 0.5374,0.67295 1.0046,6.12303 1.0382,12.1113 0.035,6.26585 0.5121,11.33869 1.1234,11.95 0.5842,0.58423 1.0622,2.46624 1.0622,4.18224 0,2.1202 1.1216,4.43031 3.5,7.20897 1.925,2.24893 3.5,4.74997 3.5,5.55787 0,0.8079 0.675,3.08441 1.5,5.05892 0.825,1.9745 1.5,4.96858 1.5,6.65351 0,3.31956 2.3532,5.04755 4.2672,3.13351 1.687,-1.68695 4.8626,-1.36364 8.1974,0.83458 2.491,1.642 3.2099,1.74228 4.5,0.62772 0.8445,-0.72955 2.6982,-1.60173 4.1195,-1.93818 1.4212,-0.33644 4.2956,-1.97188 6.3875,-3.6343 2.0919,-1.66243 4.3614,-3.0226 5.0435,-3.0226 0.682,0 1.7596,-0.62608 2.3947,-1.39129 1.5762,-1.89923 8.8645,-2.8456 12.8987,-1.67488 2.6712,0.77516 3.9234,0.58661 6.5,-0.97871 4.5805,-2.78268 6.4576,-3.56391 13.1915,-5.49022 3.3,-0.944 8.1443,-3.00978 10.765,-4.59063 6.849,-4.13132 9.9766,-3.744 11.2665,1.3952 0.3795,1.51218 1.1118,3.01009 1.6273,3.32868 0.5155,0.31859 3.282,-1.03567 6.1479,-3.00945 2.8658,-1.97379 5.731,-3.5887 6.367,-3.5887 0.636,0 2.2071,-0.88391 3.4914,-1.96425 6.7183,-5.65172 8.7939,-7.03575 10.5511,-7.03575 1.0601,0 4.0757,-0.73196 6.7013,-1.62659 4.5533,-1.55145 4.8622,-1.53814 6.6885,0.28818 2.557,2.557 3.2812,10.03823 1.3348,13.78984 -1.3128,2.53047 -3.5597,11.16334 -4.8276,18.54857 -0.7591,4.42154 -2.6335,8.28943 -5.1448,10.61686 -2.5289,2.34372 -2.4573,4.49004 0.2409,7.21987 1.9407,1.96342 1.378,10.78258 -0.8704,13.64091 -2.0184,2.56602 -2.4172,6.54403 -0.8165,8.14471 1.0709,1.07097 -2.1434,9.71638 -4.0509,10.89525 -0.5343,0.33024 -0.9715,2.53819 -0.9715,4.90656 0,2.90989 -0.7065,5.20436 -2.1791,7.07638 -1.1985,1.52364 -2.5095,4.62183 -2.9134,6.88486 -0.4039,2.26303 -1.0408,5.08889 -1.4154,6.27968 -0.8878,2.82288 3.0401,5.517 8.4922,5.82463 2.1593,0.12184 5.0737,0.97351 6.4764,1.8926 2.458,1.61051 2.4906,1.76238 0.9001,4.18972 -1.4023,2.14028 -1.4542,2.88491 -0.3454,4.95674 1.1585,2.16471 3.4632,3.61668 6.4846,4.0854 0.55,0.0853 1.225,0.26213 1.5,0.39291 0.275,0.13077 2.6747,0.35155 5.3327,0.49061 2.6579,0.13906 5.9166,0.83295 7.2414,1.54198 2.5187,1.34794 2.218,1.43061 9.7603,-2.68359 2.6281,-1.43357 2.9921,-1.40446 5,0.39989 1.1911,1.0703 2.9531,2.22394 3.9156,2.56363 3.0146,1.06394 2.0381,4.99526 -2.25,9.05868 -2.2,2.08471 -4,4.46908 -4,5.2986 0,1.61853 0.6324,1.59874 19,-0.59476 6.0203,-0.71896 9.306,-0.69621 11.2627,0.078 2.7489,1.08759 4.5215,4.76197 3.2724,6.78306 -0.7341,1.1879 -0.7809,1.17608 5.6374,1.4252 5.0114,0.19451 8.8275,2.64312 8.8275,5.66418 0,2.62647 -2.1064,3.83236 -7.5047,4.29629 -2.7018,0.23219 -5.081,0.92819 -5.2871,1.54667 -0.2062,0.61847 -2.1374,1.1245 -4.2915,1.1245 -2.2425,0 -3.9167,0.48253 -3.9167,1.12882 0,0.80799 2.7712,0.93453 9.75,0.44525 7.7464,-0.5431 10.1529,-0.38658 11.7104,0.76163 1.691,1.24655 1.797,1.80391 0.7715,4.05475 -0.9947,2.183 -1.8463,2.60953 -5.2105,2.60953 -2.2117,0 -4.0214,0.36 -4.0214,0.8 0,1.74289 2.563,3.2 5.6286,3.2 3.3699,0 6.3714,2.14178 6.3714,4.54644 0,1.56766 8.4864,5.80498 10.324,5.15483 0.6468,-0.22886 2.301,0.36097 3.676,1.31073 1.375,0.94976 4.4125,2.69474 6.75,3.87774 4.897,2.47836 5.4719,4.91247 1.8099,7.66257 -1.3421,1.00785 -2.193,2.23234 -1.8909,2.7211 0.7748,1.25365 5.452,-0.0788 7.831,-2.23092 1.6137,-1.45977 3.6419,-1.79697 10.5,-1.74567 6.3656,0.0476 9.3685,-0.39189 11.9588,-1.75028 6.6469,-3.48574 12.9799,-2.24486 13.0259,2.55226 0.022,2.33193 -9.0469,10.9012 -11.5372,10.9012 -3.3384,0 -14.7414,3.99678 -16.9475,5.94014 -1.1,0.96901 -2.9,2.11721 -4,2.55157 -1.7795,0.70267 -1.6417,0.9004 1.25,1.79367 2.2584,0.69764 3.2801,1.64628 3.3485,3.10928 0.3207,6.85088 0.4154,7.10731 2.7464,7.43733 2.6132,0.36997 7.7771,-1.41636 10.3116,-3.56702 2.263,-1.92033 8.231,-1.27282 8.6497,0.93847 0.1774,0.9369 -0.6278,2.98886 -1.7894,4.55992 -1.7496,2.36651 -1.932,3.3294 -1.0635,5.61369 1.2764,3.35731 3.1424,2.98773 10.08,-1.99645 3.485,-2.50374 5.7513,-3.3806 8.7374,-3.3806 4.1726,0 4.4157,-0.22731 9.8181,-9.18161 0.5988,-0.99254 1.8363,-2.63065 2.75,-3.64024 0.9137,-1.0096 1.6612,-2.30614 1.6612,-2.8812 0,-0.57506 1.4945,-2.67713 3.321,-4.67126 3.577,-3.90513 7.4891,-4.76432 9.679,-2.12569 1.9945,2.4032 4.3104,1.75802 7.5125,-2.0928 7.809,-9.39115 19.3914,-20.60641 23.0688,-22.33756 3.8887,-1.8306 10.4187,-8.12484 10.4187,-10.04251 0,-0.4968 4.6125,-4.74604 10.25,-9.44275 13.58333,-11.31648 29.75003,-27.44102 29.75003,-29.67236 0,-0.38528 1.3055,-2.0981 2.9012,-3.80626 2.4048,-2.57434 3.6626,-3.10576 7.3508,-3.10576 5.092,0 10.0684,1.48513 13.8927,4.14609 4.3542,3.0296 6.9541,2.81428 8.2393,-0.68235 1.1821,-3.21615 3.3711,-6.53569 7.866,-11.92844 1.5125,-1.81463 2.75,-3.78659 2.75,-4.38213 0,-0.59554 0.9533,-1.59299 2.1184,-2.21656 1.761,-0.94245 2.0313,-1.78391 1.6017,-4.98678 -0.6443,-4.80327 2.0147,-7.10736 6.7203,-5.82332 3.294,0.89884 5.5596,-0.36201 5.5596,-3.09397 0,-0.94741 0.9415,-2.57464 2.0923,-3.61606 2.0694,-1.87282 2.1243,-1.85765 5.0249,1.38864 2.8404,3.17901 4.8828,3.48831 4.8828,0.73946 0,-1.89878 5.7303,-6.71379 13.75,-11.55377 1.7875,-1.07878 3.25,-2.39298 3.25,-2.92046 0,-0.52748 -1.5729,-2.67159 -3.4952,-4.7647 -4.7994,-5.22562 -4.5107,-8.02527 0.9952,-9.65165 1.5232,-0.44992 2.6519,0.32857 4.7341,3.2652 2.8147,3.96975 7.0573,5.91379 9.1378,4.18712 0.6493,-0.53888 1.7797,-2.69576 2.5119,-4.79306 1.3972,-4.00189 11.2885,-14.31326 13.7302,-14.31326 0.7623,0 1.4073,-1.0125 1.4333,-2.25 0.15,-7.12854 1.4378,-15.92099 3.1855,-21.75 1.1534,-3.84656 1.8868,-4.67739 5.0504,-5.72162 7.6235,-2.51627 8.9959,1.72332 3.8399,11.86176 -4.1546,8.16938 -3.3783,10.77568 1.5572,5.22798 2.0291,-2.28072 3.2413,-4.55982 2.9724,-5.58822 -0.7319,-2.79888 5.0867,-7.7799 9.0882,-7.7799 5.2119,0 6.147,-3.39909 5.9809,-21.74088 -0.1221,-13.48338 0.067,-15.36824 1.7255,-17.20091 1.0245,-1.13202 2.4521,-2.05821 3.1725,-2.05821 1.6533,0 3.3686,3.13764 3.3756,6.17494 0.015,6.43472 1.5687,13.32506 3.0046,13.32506 1.2041,0 1.438,-1.20672 1.186,-6.11662 -0.2727,-5.31066 -0.064,-6.1819 1.5803,-6.61202 1.0419,-0.27247 2.8124,-2.24499 3.9344,-4.38338 2.0348,-3.87816 4.8212,-4.76445 6.4955,-2.06606 0.4622,0.74481 0.9141,0.55425 1.3443,-0.56682 0.4333,-1.12924 -0.2608,-2.47059 -2.0947,-4.0481 -2.5401,-2.18483 -2.7715,-3.02109 -3.1302,-11.31105 l -0.3873,-8.95179 4.0336,-5.47208 c 2.2185,-3.00964 5.2721,-7.37338 6.7858,-9.69718 1.5138,-2.32381 3.5447,-4.4932 4.5133,-4.82087 2.3636,-0.79965 5.0717,-6.20728 4.1536,-8.29429 -0.4015,-0.91286 -0.6164,-2.33474 -0.4776,-3.15974 0.2433,-1.44525 5.6676,-8.56822 9.3409,-12.26605 5.8173,-5.85613 8.7221,-10.96678 8.7221,-15.34573 0,-2.45222 -0.707,-5.53758 -1.5711,-6.85635 -1.1965,-1.82609 -1.3157,-2.8749 -0.5,-4.39907 0.5891,-1.10072 1.0854,-3.4934 1.1029,-5.31706 0.017,-1.82366 0.6925,-4.18925 1.5,-5.25687 2.4078,-3.18339 1.8743,-7.41674 -1.1059,-8.77458 -1.9054,-0.86817 -3.038,-0.88312 -4.3599,-0.0575 -0.9823,0.61341 -4.2647,1.23011 -7.2943,1.37044 -4.3793,0.20286 -6.0697,-0.18642 -8.2472,-1.89925 l -2.7389,-2.15442 2.6072,-3.09848 c 3.0261,-3.59627 3.1748,-4.68966 1.0505,-7.72252 -0.9968,-1.42316 -2.5941,-2.22251 -4.441,-2.22251 -1.5863,0 -3.1533,-0.43526 -3.4821,-0.96725 -0.3287,-0.53198 -1.8719,-0.71241 -3.4292,-0.40095 -2.4175,0.4835 -3.5084,-0.14014 -7.4612,-4.26528 -2.5464,-2.65736 -4.6298,-5.40194 -4.6298,-6.09905 0,-0.69711 -0.45,-1.26747 -1,-1.26747 -1.8427,0 -1.0247,-6.15656 1.2417,-9.34563 2.6754,-3.76461 6.6281,-7.38729 8.9069,-8.16334 0.9067,-0.30879 2.8264,-2.90809 4.2659,-5.77623 2.0641,-4.11238 2.5611,-6.40917 2.3514,-10.86453 l -0.2659,-5.64972 -5.7528,-2.8e-4 c -3.164,-1.5e-4 -6.0031,0.40473 -6.309,0.89973 -0.3059,0.495 -1.4297,0.9 -2.4972,0.9 -1.0676,0 -1.941,0.47989 -1.941,1.06642 0,1.37042 -5.2315,0.78245 -5.6975,-0.64035 -0.1935,-0.59065 1.2167,-3.12806 3.1337,-5.63867 3.6763,-4.8147 4.6021,-10.18276 3.0284,-17.55939 -1.2666,-5.9369 -11.2786,-12.8602 -19.6001,-13.55342 -4.7748,-0.39777 -8.4832,-1.995 -10.8645,-4.67951 -1.7014,-1.91806 -8.5137,-4.41366 -9.829,-3.60076 -0.9881,0.61066 -5.171,-2.97364 -5.171,-4.43096 0,-0.52729 -1.6152,-2.64726 -3.5894,-4.71104 -3.6157,-3.77972 -5.9402,-7.90688 -5.4903,-9.7478 0.1339,-0.54752 0.345,-5.94752 0.4692,-12 0.1568,-7.644181 0.7798,-12.531321 2.04,-16.004521 2.72,-7.49665 4.5133,-11.3466 5.5973,-12.01654 0.5352,-0.33082 0.9732,-1.37979 0.9732,-2.33104 0,-0.95124 0.8471,-3.391 1.8824,-5.42169 1.0353,-2.03068 2.2061,-6.28363 2.6019,-9.45099 0.8805,-7.04744 3.4811,-12.38145 7.2081,-14.7844 1.5442,-0.99559 3.1675,-2.41433 3.6073,-3.15275 0.4398,-0.73843 1.3398,-1.34365 2,-1.34494 0.6602,-0.001 2.7518,-1.328361 4.6481,-2.949061 1.8963,-1.62069 4.8213,-3.61129 6.5,-4.42355 1.6787,-0.81227 4.7844,-2.29769 6.9016,-3.30094 7.3556,-3.48553 10.6696,-5.35372 12.9038,-7.27424 1.2357,-1.06229 3.5819,-3.06876 5.2137,-4.45882 1.6317,-1.39006 4.2141,-2.80133 5.7385,-3.13615 1.5244,-0.33482 3.0284,-1.02414 3.3421,-1.53183 0.3138,-0.50768 2.3501,-0.92306 4.5251,-0.92306 2.175,0 4.7359,-0.4210603 5.691,-0.9356803 5.0191,-2.70456 8.8415,-4.06432 11.4252,-4.06432 1.5849,0 3.8782,-0.63523 5.0964,-1.41162 1.4241,-0.90767 8.7927,-1.94075 20.6402,-2.89376002 16.2699,-1.30874 18.9021,-1.30896 22.5,-0.002 2.241,0.81412002 4.5246,1.59834002 5.0746,1.74271002 0.55,0.14437 1.675,0.51788 2.5,0.83002 2.4471,0.92585 7.3539,2.12987 9.5,2.33108 1.1,0.10313 4.025,0.71773 6.5,1.36578 2.475,0.64805 5.2472,1.28519 6.1605,1.41586 0.9132,0.13066 3.3894,1.3365303 5.5025,2.6797103 2.1131,1.34317 5.513,3.29223 7.5554,4.33124 3.5505,1.80622 9.7475,7.7012 9.8125,9.33424 0.017,0.42716 2.0668,2.31076 4.5552,4.18577 5.9183,4.45961 14.7049,14.667361 16.433,19.090881 0.7521,1.925 1.8111,3.80146 2.3535,4.1699 0.5424,0.36845 1.598,3.06845 2.3456,6 0.7477,2.93156 2.467,7.00795 3.8206,9.05866 1.3537,2.05071 2.4612,4.0077 2.4612,4.34887 0,0.34117 0.7261,2.15053 1.6136,4.0208 1.1234,2.36726 1.42,4.69205 0.9763,7.65113 -0.3506,2.33785 -0.6697,4.70064 -0.7092,5.25064 -0.039,0.55 -0.3879,1.225 -0.7744,1.5 -0.3864,0.275 -1.6935,1.91947 -2.9045,3.65437 -2.3255,3.33163 -2.8102,6.317461 -1.2817,7.895631 1.3566,1.40064 5.0799,12.516 5.0799,15.16534 0,1.31638 -0.6072,2.28466 -1.4326,2.28466 -1.6048,0 -3.0338,3.4363 -2.0746,4.98841 0.3421,0.55347 2.4076,1.29185 4.5901,1.64084 3.3299,0.53247 3.8706,0.94194 3.3615,2.54588 -0.4545,1.43219 0.8885,3.36524 5.3572,7.71081 3.2801,3.1897 6.2435,6.68081 6.5854,7.75802 1.0472,3.29941 7.8409,8.9339 13.1079,10.87123 2.7471,1.01049 6.1098,3.10795 7.4726,4.66103 1.3628,1.55308 3.0335,2.82378 3.7126,2.82378 0.679,0 2.4913,1.57499 4.0273,3.49997 1.5359,1.92498 3.4676,3.50667 4.2926,3.51485 1.6405,0.0163 16.2963,7.15629 18.5806,9.05211 0.7807,0.64788 1.4194,2.36461 1.4194,3.81497 0,3.80882 3.2933,5.65346 7.2025,4.03424 2.5247,-1.04577 3.4322,-0.97242 5.8834,0.47555 2.507,1.48087 3.6764,1.55899 8.6602,0.57848 9.2492,-1.81967 12.2268,-1.13875 14.534,3.32372 2.484,4.80433 6.7002,9.04108 10.6081,10.65981 2.9662,1.22861 7.1118,6.78703 7.1118,9.53537 0,0.75611 1.4625,2.38466 3.25,3.619 1.7875,1.23434 3.3991,2.3516 3.5814,2.48279 0.1822,0.1312 -0.1939,3.70334 -0.8358,7.93809 -0.8395,5.53844 -0.8624,8.00429 -0.081,8.7853 0.5972,0.59716 1.0858,2.52161 1.0858,4.27656 0,4.02407 5.5761,12.36054 9.638,14.40919 5.6358,2.8425 10.3619,7.37853 10.362,9.94528 0,1.34491 1.2375,3.737 2.75,5.31577 2.3257,2.4276 2.7564,3.74749 2.7915,8.55471 0.023,3.12633 -0.4853,8.27875 -1.1293,11.44982 -0.6439,3.17107 -0.843,5.96815 -0.4424,6.21573 0.4005,0.24758 1.0024,4.33431 1.3374,9.08162 0.5327,7.54786 0.2924,9.59225 -1.9138,16.28428 -1.7225,5.22469 -2.3435,8.82112 -1.9572,11.33508 0.3112,2.02527 0.1491,4.77823 -0.3602,6.11771 -0.6514,1.71339 -0.5034,3.2497 0.499,5.18202 0.7838,1.51062 1.425,3.14325 1.425,3.62806 0,0.48481 1.5982,4.34153 3.5516,8.57049 6.9876,15.12757 7.772,18.48516 7.9012,33.81943 0.114,13.53963 0.2154,14.17657 3.0825,19.36949 1.6306,2.95322 5.1178,7.83477 7.7494,10.84789 4.1496,4.75112 4.7542,5.9964 4.5545,9.3805 -0.1931,3.27363 -0.5817,3.90212 -2.4123,3.90212 -1.2001,0 -2.6846,0.60554 -3.2988,1.34564 -1.1813,1.42336 -1.0683,9.04752 0.1522,10.26799 0.3958,0.39584 0.7197,2.86815 0.7197,5.49402 0,2.62587 0.4054,5.02486 0.9009,5.33108 0.5059,0.31271 0.1039,3.65505 -0.9173,7.62487 -1.5323,5.95731 -2.626,7.92236 -6.9589,12.50379 -2.8275,2.98963 -4.9003,5.82485 -4.6063,6.3005 0.2939,0.47565 -0.355,1.6697 -1.442,2.65345 -1.087,0.98375 -1.9764,2.41435 -1.9764,3.1791 0,0.76476 -1.0125,2.4231 -2.25,3.68519 -8.5056,8.67467 -14.6893,20.22752 -17.7246,33.11437 l -1.6487,7 -3.6883,-0.2201 c -3.4169,-0.20389 -3.6829,-0.0199 -3.6143,2.5 0.041,1.49606 0.4079,4.7451 0.8159,7.2201 0.7335,4.45076 -0.9059,11.35475 -4.2743,18 -1.2957,2.55624 -2.2029,5.5754 -5.1083,17 -1.6584,6.52115 -3.7596,10 -6.0399,10 -3.1083,0 -4.5904,5.92635 -4.8769,19.5 -0.073,3.44535 -0.8272,7.29148 -1.7722,9.03325 -0.9051,1.66828 -2.1951,6.84328 -2.8668,11.5 -0.6716,4.65671 -2.0141,9.59608 -2.9833,10.97638 -1.8833,2.68215 -2.6172,6.5433 -1.7089,8.99037 0.3063,0.825 1.3235,4.875 2.2606,9 0.9371,4.125 2.511,9.975 3.4977,13 0.9867,3.025 2.057,7.975 2.3783,11 0.3214,3.025 0.9827,8.2 1.4695,11.5 1.3999,9.49016 -2.1879,10.8297 -9.533,3.55929 -3.8342,-3.7952 -4.7453,-2.77212 -3.2288,3.62566 0.6278,2.64828 1.1526,8.86505 1.1663,13.81505 0.022,7.84007 -0.337,9.75308 -2.7838,14.84325 -1.5447,3.21379 -3.4111,6.07444 -4.1474,6.35699 -0.7364,0.28256 -1.3388,1.08549 -1.3388,1.7843 0,0.69882 -0.7137,1.86288 -1.586,2.58681 -2.8899,2.39847 -6.872,12.78216 -7.8341,20.42865 -0.9815,7.80099 -4.2067,20.03883 -5.9955,22.75 -0.9979,1.5125 -1.4477,2.75 -0.9994,2.75 0.4482,0 0.275,0.54004 -0.385,1.20004 -0.66,0.66 -1.2,2.01 -1.2,3 0,1.3968 0.7987,1.8 3.5657,1.8 3.2562,0 7.1833,-1.3615 8.4343,-2.9239 0.8927,-1.115 17.4215,-8.89078 20.1801,-9.49354 1.474,-0.32208 3.3544,-1.25993 4.1785,-2.0841 0.8242,-0.82418 1.915,-1.4985 2.4239,-1.4985 0.509,0 2.1759,-1.15883 3.7041,-2.57518 4.6288,-4.2898 7.4859,-4.9069 10.1915,-2.20128 l 2.3129,2.3129 -2.6581,3.73584 c -1.462,2.05472 -2.4655,3.92848 -2.23,4.16392 0.2354,0.23545 3.5711,0.0298 7.4126,-0.45692 3.8415,-0.48674 8.5917,-0.63653 10.5561,-0.33286 3.2013,0.4949 3.9743,0.12715 7.456,-3.54714 2.3786,-2.51012 4.786,-4.09928 6.2098,-4.09928 4.7308,0 3.7533,5.21671 -2.1506,11.47662 -1.9727,2.09172 -3.5868,3.96522 -3.5868,4.16322 0,0.1981 1.4963,0.3602 3.3252,0.3602 2.3851,0 4.8758,-1.2017 8.8095,-4.25004 8.4257,-6.52935 12.3667,-8.40868 14.2886,-6.81365 2.3331,1.9363 1.9167,4.79476 -0.9744,6.6891 -1.4031,0.91935 -3.1836,2.89459 -3.9566,4.38949 -1.2899,2.4944 -1.2188,2.8934 0.8655,4.8515 1.4853,1.3953 3.5691,2.1336 6.0224,2.1336 2.0632,0 4.6393,0.4752 5.7246,1.056 1.5968,0.8546 2.5682,0.5554 5.0925,-1.5686 3.328,-2.8003 6.7066,-2.7694 9.8814,0.091 0.8683,0.7821 2.1217,1.4221 2.7852,1.4221 0.6636,0 2.3342,0.7389 3.7125,1.642 1.3784,0.9031 3.5,1.772 4.7149,1.9309 8.4366,1.1035 13.0626,2.6072 14.7946,4.8091 1.1909,1.514 3.27,2.5738 5.6493,2.8798 3.2401,0.4166 4.255,0.017 7.2821,-2.8647 3.04,-2.8941 3.9222,-3.2384 6.5,-2.5367 2.3095,0.6286 3.7726,0.3175 6.4827,-1.3785 1.925,-1.2047 6.5389,-2.9524 10.2532,-3.8836 3.7142,-0.9313 9.1142,-2.7925 12,-4.1361 2.8857,-1.3435 5.9218,-2.4467 6.7468,-2.4516 0.825,0 3.2458,1.7907 5.3795,3.9902 2.1337,2.1995 4.2146,3.9991 4.6243,3.9991 0.4096,0 2.6093,-0.6578 4.8881,-1.4618 4.9631,-1.7511 6.6965,-1.2347 8.6708,2.583 1.5365,2.9714 5.1507,4.1804 4.0689,1.3612 -0.3203,-0.8347 0.144,-3.041 1.0319,-4.9028 1.1632,-2.4393 2.4794,-3.5581 4.7107,-4.0044 1.9573,-0.3915 5.0563,-2.6589 8.4234,-6.163 4.5924,-4.77942 5.7048,-5.46071 8.0685,-4.94156 2.3798,0.52268 2.9326,0.17197 4.1878,-2.65667 0.7954,-1.79236 2.3831,-3.49623 3.5283,-3.78638 2.2404,-0.5676 7.2147,-5.96168 9.2472,-10.02754 0.6874,-1.375 1.8002,-3.4 2.4729,-4.5 0.6728,-1.1 2.4478,-4.05235 3.9446,-6.56078 1.4967,-2.50842 3.849,-5.62018 5.2273,-6.91502 2.1729,-2.04127 2.8459,-2.19937 5.063,-1.18922 3.4093,1.55338 3.1631,1.67264 5.3361,-2.58498 1.0526,-2.0625 2.8618,-4.60724 4.0203,-5.65499 1.1585,-1.04774 2.1064,-2.43639 2.1064,-3.08589 0,-1.99598 7.2159,-10.56942 10.1905,-12.10765 1.5452,-0.79905 2.8095,-2.05696 2.8095,-2.79534 0,-2.02051 8.9561,-18.92157 10.7869,-20.35613 0.8775,-0.6875 1.1719,-1.27852 0.6542,-1.31339 -0.5176,-0.0349 0.1375,-0.4948 1.4557,-1.02209 1.7858,-0.71429 2.8257,-0.57066 4.0788,0.56338 0.925,0.83716 2.5676,1.5221 3.6502,1.5221 2.2462,0 8.4115,-6.05623 10.6462,-10.45786 1.3389,-2.63714 1.336,-3.21085 -0.027,-5.29097 -1.9295,-2.94486 -0.4613,-6.73985 3.2642,-8.43734 1.455,-0.66292 2.758,-2.25747 3.0523,-3.73527 0.2824,-1.41821 1.6025,-4.82856 2.9334,-7.57856 1.3309,-2.75 2.7285,-6.125 3.1057,-7.5 0.3772,-1.375 2.1212,-4.3 3.8755,-6.5 1.7542,-2.2 4.13,-6.025 5.2793,-8.5 3.2694,-7.04004 12.8966,-16.32818 16.4087,-15.8308 3.6532,0.51735 3.5143,4.18665 -0.3425,9.0544 -1.8269,2.30572 -3.8101,5.11117 -4.4072,6.23431 -0.5971,1.12315 -3.2672,5.55769 -5.9336,9.85454 -4.1137,6.62905 -4.8135,8.48033 -4.6198,12.22159 0.1754,3.38852 -0.2451,4.81439 -1.8164,6.1598 -2.3551,2.01646 -2.5896,3.60897 -0.7557,5.131 0.9919,0.8232 1.8245,-0.0582 3.6126,-3.8244 1.2779,-2.69178 3.1729,-5.6628 4.211,-6.60228 1.0381,-0.93947 1.8875,-2.31637 1.8875,-3.05976 0,-0.7434 1.125,-2.3298 2.5,-3.52535 1.375,-1.19555 2.5,-2.65127 2.5,-3.23493 0,-0.58367 4.1845,-5.11502 9.2989,-10.06967 5.1143,-4.95465 10.1355,-10.35845 11.1582,-12.00845 1.0226,-1.65 3.2359,-4.125 4.9183,-5.5 1.6824,-1.375 4.26,-3.78172 5.728,-5.34826 2.7392,-2.92314 7.8966,-12.27936 7.8966,-14.32543 0,-0.62974 2.5875,-4.26828 5.75,-8.08564 3.1625,-3.81736 6.9585,-8.47066 8.4355,-10.34066 10.0738,-12.75422 14.3888,-17.62041 24.0748,-27.15001 6.0095,-5.9125 11.2918,-10.75 11.7384,-10.75 0.4466,0 2.7671,-1.59979 5.1567,-3.55509 2.3895,-1.95531 5.8353,-4.76781 7.6572,-6.25 1.8219,-1.4822 3.9321,-3.26228 4.6894,-3.95573 0.7572,-0.69346 3.3178,-1.52687 5.6901,-1.85203 3.571,-0.48946 4.6406,-0.22946 6.2156,1.51082 1.0462,1.15612 2.5354,2.10203 3.3092,2.10203 1.9042,0 12.1979,-4.87301 15.2267,-7.20832 1.344,-1.03624 3.369,-1.7952 4.5,-1.68658 3.9279,0.37724 14.0521,-4.50246 18.2887,-8.81493 1.9003,-1.93429 4.2357,-3.29017 5.6671,-3.29017 4.7774,0 10.9924,-3.57142 13.6006,-7.81549 1.375,-2.23739 3.4,-4.48398 4.5,-4.99244 6.6129,-3.05671 7.8549,-3.86445 8.7349,-5.68072 1.2598,-2.60009 13.369,-8.58794 17.2799,-8.54469 1.6582,0.0183 4.5832,-0.80072 6.5,-1.82012 1.9169,-1.0194 5.0854,-2.14842 7.0413,-2.50893 1.9558,-0.36051 5.3135,-1.55146 7.4614,-2.64654 2.148,-1.09509 5.3587,-1.99107 7.1349,-1.99107 1.7763,0 3.5077,-0.45 3.8476,-1 0.3399,-0.55 3.0399,-1 6,-1 2.9601,0 5.6231,-0.39015 5.9178,-0.86701 0.4907,-0.7939 8.3458,-1.79094 21.0822,-2.67593 9.147,-0.63557 17.9334,-1.44863 24,-2.22084 3.3,-0.42006 8.025,-0.39117 10.5,0.0642 2.475,0.45537 7.65,1.00025 11.5,1.21084 19.5654,1.07021 21.0461,1.32304 25.2706,4.3149 1.5011,1.0632 5.3321,2.51227 8.5133,3.22017 3.4936,0.77745 6.8593,2.29879 8.5,3.84216 1.4938,1.40529 3.2402,2.44437 3.8807,2.30906 0.6406,-0.13531 2.1337,1.11488 3.3181,2.77821 1.1844,1.66333 2.8293,3.02424 3.6552,3.02424 2.1866,0 9.7821,5.46592 11.7331,8.44339 0.9213,1.40614 2.495,2.55661 3.4971,2.55661 2.0688,0 4.0763,2.13066 6.1243,6.5 0.7734,1.65 2.382,4.3545 3.5747,6.01 1.1927,1.65549 2.482,4.4369 2.865,6.1809 0.3831,1.744 1.3425,3.7071 2.1322,4.36245 0.7896,0.65535 1.4357,1.82556 1.4357,2.60048 0,0.77492 0.6532,1.65961 1.4516,1.96598 0.7984,0.30638 1.9756,2.20475 2.616,4.21862 0.6403,2.01386 2.2371,4.69228 3.5483,5.95204 1.3113,1.25976 2.3841,2.86626 2.3841,3.57 0,0.70374 1.58,3.12539 3.5111,5.38143 2.4401,2.85076 3.8188,5.72705 4.52,9.43 1.3971,7.37796 3.9393,16.98358 5.0457,19.06453 0.5078,0.95504 0.9232,2.58758 0.9232,3.62788 0,1.04029 0.675,3.50694 1.5,5.48145 0.825,1.9745 1.5,5.8279 1.5,8.5631 0,2.73521 0.4168,5.23073 0.9263,5.54561 0.527,0.32568 0.5814,1.77518 0.1263,3.36209 -0.44,1.53428 -0.6638,4.70261 -0.4972,7.04074 0.1665,2.33812 -0.088,5.46424 -0.5665,6.94692 -0.4781,1.48268 -1.1089,4.61486 -1.4017,6.96039 -0.2929,2.34554 -0.9717,5.08529 -1.5085,6.08833 -0.96,1.79372 -0.4855,5.68416 0.9326,7.64706 1.8546,2.56704 5.2795,15.38606 5.1345,19.21809 -0.089,2.35571 0.3825,5.15507 1.0481,6.2208 2.3755,3.80376 -4.4102,11.78637 -7.6989,9.05696 -0.8223,-0.68241 -1.495,-1.76549 -1.495,-2.40685 0,-0.64137 -0.9,-2.93141 -2,-5.089 -1.1,-2.15759 -2,-4.44763 -2,-5.089 0,-0.64136 -0.675,-1.72631 -1.5,-2.411 -0.825,-0.68469 -1.5,-2.23305 -1.5,-3.44079 0,-1.20775 -1.5266,-3.91181 -3.3924,-6.00904 -3.1048,-3.48987 -3.7011,-3.7552 -7.0348,-3.1298 -3.4169,0.64102 -3.9743,0.35507 -9.0022,-4.61852 -9.1123,-9.0138 -11.3155,-10.28664 -17.8194,-10.29472 -5.8012,-0.007 -7.0497,0.66681 -4.1948,2.2645 2.2341,1.25026 4.4769,8.29754 3.3255,10.44904 -2.8192,5.2678 -8.4776,4.35433 -15.092,-2.43639 -3.7402,-3.83988 -5.9498,-5.19584 -10.3231,-6.33495 -3.0608,-0.79758 -6.4662,-1.44978 -7.5679,-1.44978 -1.1017,0 -3.6964,-0.97454 -5.766,-2.16565 -3.5221,-2.02709 -3.9616,-2.06649 -6.8697,-0.61575 -2.7518,1.37278 -3.813,1.38674 -9.2867,0.12219 -3.399,-0.78524 -7.2414,-2.12321 -8.5388,-2.97328 -3.2385,-2.122 -16.4151,-0.96005 -19.8623,1.75152 -1.3152,1.03453 -3.5312,1.88097 -4.9245,1.88097 -1.3933,0 -2.8114,0.45 -3.1513,1 -0.3399,0.55 -1.9149,1 -3.5,1 -1.5851,0 -3.1278,0.39775 -3.4282,0.88388 -0.3005,0.48613 -2.535,1.8187 -4.9657,2.96125 -2.4307,1.14256 -5.6521,3.21981 -7.1588,4.61612 -1.5066,1.39631 -3.3486,2.53875 -4.0933,2.53875 -0.7447,0 -1.354,0.45 -1.354,1 0,0.55 -0.6378,1 -1.4173,1 -1.8692,0 -11.4624,9.4601 -20.0278,19.75 -3.7771,4.5375 -7.2612,8.25 -7.7426,8.25 -0.4813,0 -1.1625,0.7875 -1.5139,1.75 -0.3513,0.9625 -1.6902,3.02555 -2.9752,4.58455 -2.2625,2.74494 -2.2823,2.92608 -0.6264,5.72929 1.6472,2.78857 1.6291,3.00404 -0.4934,5.87495 -1.2119,1.63913 -2.2034,3.34708 -2.2034,3.79545 0,0.81775 -11.5164,13.53378 -20.0682,22.15857 -5.5295,5.57676 -12.2723,11.63304 -17.1321,15.38788 -1.9794,1.52938 -5.1067,4.11256 -6.9493,5.7404 -1.8427,1.62784 -4.2487,3.25451 -5.3466,3.61482 -1.0979,0.36032 -2.4479,1.22343 -3,1.91803 -0.5521,0.6946 -3.372,2.47926 -6.2665,3.96591 -2.8944,1.48665 -5.5944,3.2708 -6,3.96477 -0.4055,0.69396 -2.9873,2.41261 -5.7373,3.8192 -2.75,1.4066 -6.125,3.60754 -7.5,4.89099 -1.375,1.28344 -4.4125,3.183 -6.75,4.22124 -2.3375,1.03823 -4.25,2.17896 -4.25,2.53494 0,0.35598 -1.5578,1.21055 -3.4618,1.89904 -1.904,0.68849 -5.7862,2.85069 -8.6271,4.80489 -2.8409,1.95419 -7.2456,4.2594 -9.7882,5.12267 -2.5426,0.86328 -5.9729,2.3898 -7.6229,3.39231 -1.65,1.0024 -3.5996,1.8243 -4.3324,1.8264 -1.2847,0 -13.8782,5.0953 -17.3739,7.0244 -0.9385,0.518 -3.526,1.2327 -5.75,1.5883 -2.224,0.3556 -4.0437,0.9844 -4.0437,1.3973 0,0.8852 -13.3687,2.9937 -18.9818,2.9937 -2.1451,0 -4.1783,0.45 -4.5182,1 -0.3399,0.55 -3.4899,1 -7,1 -3.5101,0 -6.6601,0.45 -7,1 -0.3399,0.55 -2.7515,1 -5.359,1 -2.6076,0 -5.1685,0.3923 -5.691,0.8718 -0.5225,0.4795 -4.5774,1.1339 -9.0109,1.4541 -6.9365,0.5011 -8.5181,0.3043 -11.3387,-1.411 -2.1788,-1.325 -4.0024,-1.75 -5.4391,-1.2676 -1.1887,0.3992 -3.1967,0.6066 -4.4621,0.461 -1.2655,-0.1456 -4.4155,0.8372 -7,2.1841 -2.5846,1.3469 -8.0742,3.6589 -12.1992,5.13784 -4.125,1.4789 -8.9046,3.5128 -10.6213,4.5197 -1.7168,1.007 -4.9793,2.1447 -7.25,2.5284 -2.2708,0.3836 -4.1287,1.0555 -4.1287,1.493 0,0.4375 -0.7875,1.0684 -1.75,1.4019 -0.9625,0.3336 -4.675,2.1832 -8.25,4.1103 -5.0637,2.7295 -7.6601,3.5051 -11.75,3.5101 -2.8875,0 -5.25,0.4206 -5.25,0.9269 0,0.5063 -1.4625,1.2225 -3.25,1.5915 -1.7875,0.369 -4.9279,1.7547 -6.9786,3.0794 -2.0507,1.3247 -4.3007,2.4229 -5,2.4404 -0.6993,0.017 -2.1449,0.6925 -3.2125,1.5 -1.0677,0.8075 -2.7711,1.4682 -3.7856,1.4682 -1.2581,0 -2.4684,1.5099 -3.8076,4.75 -1.0798,2.6125 -2.4229,5.425 -2.9846,6.25 -0.5617,0.825 -1.6501,2.8591 -2.4187,4.5203 -0.7685,1.6612 -2.3344,3.8684 -3.4798,4.905 -1.1455,1.0366 -2.0826,2.294 -2.0826,2.7942 0,0.5003 -1.3662,2.0592 -3.0359,3.4642 -4.3384,3.6505 -5.9641,7.4141 -5.9641,13.8071 0,4.081 0.5577,6.3445 2.0656,8.384 1.5207,2.0569 1.9823,3.9588 1.75,7.2096 -0.2845,3.9804 -0.5864,4.4468 -3.0632,4.7318 -2.0571,0.2367 -2.889,0.9906 -3.3104,3 -0.3095,1.4761 -1.0424,3.5562 -1.6286,4.6224 -0.8702,1.5826 -0.6296,2.2803 1.3104,3.8 1.3069,1.0238 4.2672,3.5264 6.5783,5.5614 7.0189,6.1802 11.016,9.2 12.1774,9.2 0.6078,0 2.3079,1.35 3.7781,3 1.4701,1.65 3.2255,3 3.9007,3 0.6753,0 1.5058,0.5625 1.8457,1.25 2.1349,4.318 4.5629,7.4074 6.6428,8.45186 3.0277,1.5205 3.9608,3.8848 3.2395,8.2082 -0.4218,2.5283 -0.1279,3.7325 1.1366,4.6572 3.0273,2.2136 2.3116,7.1582 -1.5193,10.4971 -4.6448,4.0482 -11.5689,8.9356 -12.6595,8.9356 -0.4925,0 -1.9464,1.1187 -3.2309,2.486 l -2.3355,2.486 2.7018,2.5039 c 2.2726,2.1062 2.526,2.8321 1.5957,4.5705 -0.6083,1.1366 -1.7104,2.2985 -2.4491,2.5819 -0.7386,0.2835 -1.9164,1.9456 -2.6173,3.6936 -0.7009,1.7479 -2.3171,4.4501 -3.5916,6.0048 -1.2745,1.5547 -2.3172,3.6983 -2.3172,4.76358 0,1.0653 -0.5488,2.8155 -1.2195,3.8895 -1.0464,1.6756 -0.8121,2.3778 1.6514,4.9491 3.2887,3.4327 4.4524,8.5121 3.4528,15.0711 -0.5576,3.6588 -0.3305,4.8859 1.2148,6.5645 1.0453,1.1354 1.9005,2.5096 1.9005,3.0538 0,1.9578 6.8245,7.5804 9.1504,7.5389 1.2923,-0.023 5.0496,-0.5439 8.3496,-1.1573 3.3,-0.6134 8.7,-1.261 12,-1.439 3.3,-0.178 7.755,-0.6719 9.8999,-1.0975 3.1549,-0.6259 4.1452,-0.4385 5.1831,0.9811 1.0684,1.461 1.8384,1.5857 4.6001,0.7449 7.3531,-2.2386 8.6598,-2.3047 8.1652,-0.4132 -0.2564,0.9805 0.8983,3.6446 2.5948,5.9866 1.6813,2.3209 3.0569,5.3384 3.0569,6.7055 0,1.5571 0.9471,3.1062 2.5355,4.1469 2.1182,1.3879 2.4973,2.3382 2.3028,5.7731 -0.128,2.2614 -0.144,5.7992 -0.035,7.8617 0.2598,4.9409 2.8052,5.0024 8.1251,0.1962 3.0615,-2.7659 4.876,-3.5973 8.1843,-3.75 3.7748,-0.1742 4.3208,0.084 4.8765,2.3038 0.5999,2.3973 0.9372,2.4981 8.2106,2.4548 7.3515,-0.044 7.7529,-0.1747 13.0352,-4.25 6.0697,-4.6827 8.7889,-5.1814 11.8053,-2.165 l 2.0397,2.0397 2.9603,-2.1078 c 1.6281,-1.1593 2.9602,-2.4869 2.9602,-2.9501 0,-2.1266 5.5686,-9.0129 8.6151,-10.6535 1.8617,-1.0026 3.3849,-2.1549 3.3849,-2.5607 0,-0.4058 1.3436,-2.2681 2.9858,-4.1384 1.6422,-1.8704 3.1158,-4.2528 3.2748,-5.2943 0.4964,-3.2528 3.286,-6.3223 6.8314,-7.5167 4.5862,-1.5451 5.902,-2.7038 5.9398,-5.2304 0.017,-1.1702 0.58,-2.8305 1.25,-3.6896 3.2449,-4.1606 8.3964,-2.7848 15.8093,4.2223 2.5252,2.3868 6.9127,6.1308 9.75,8.32 2.8374,2.1891 5.1589,4.319 5.1589,4.7331 0,0.4141 2.1495,1.8421 4.7766,3.1734 2.6271,1.3312 5.8739,3.8523 7.2151,5.6024 2.4705,3.2235 7.3106,6.3752 8.2886,5.3972 0.2936,-0.2936 1.9199,0.1829 3.614,1.0589 2.3163,1.1978 3.0292,2.2081 2.8748,4.0738 -0.1129,1.3645 -0.5572,2.4809 -0.9872,2.4809 -0.43,0 -0.7819,0.669 -0.7819,1.4866 0,1.3206 6.0657,4.6817 7.8179,4.332 1.8494,-0.3691 4.1821,1.6397 4.1821,3.6013 0,1.2133 1.35,3.4993 3,5.0801 1.65,1.5808 3.0124,3.3525 3.0275,3.9371 0.029,1.1041 4.1347,4.323 9.6963,7.6013 1.7731,1.0452 3.8765,3.4626 4.6743,5.372 0.9351,2.238 2.8102,4.1791 5.2763,5.4621 2.1041,1.0947 5.1012,3.3712 6.6604,5.0589 1.6057,1.7382 3.8464,3.0686 5.1682,3.0686 3.722,0 5.497,1.0586 5.497,3.2782 0,2.5953 2.7687,5.7478 4.4736,5.0936 1.5598,-0.5986 5.5264,4.1985 5.5264,6.6836 0,1.1617 1.0243,2.0107 2.9309,2.4294 3.0339,0.6664 5.8111,3.1066 4.7468,4.1708 -0.8875,0.8875 1.1843,4.3435 2.6075,4.3495 0.6681,0 3.9852,2.6541 7.3712,5.8916 5.9468,5.6861 11.9654,8.8462 14.7863,7.7637 1.7471,-0.6705 12.2657,2.0611 15.6733,4.0701 1.8798,1.1083 3.7089,1.3347 6.5,0.8043 2.1362,-0.4059 5.956,-0.8112 8.4884,-0.9006 2.5325,-0.089 6.1843,-1.0133 8.1152,-2.0531 3.4449,-1.8553 3.5992,-1.855 8.224,0.014 2.5922,1.0476 5.1412,2.6876 5.6644,3.6444 1.3403,2.4511 5.9993,4.652 9.6292,4.5488 2.0643,-0.059 4.3339,0.9489 6.8976,3.0621 2.1015,1.7322 4.5285,3.1495 5.3934,3.1495 0.8649,0 4.0275,2.188 7.028,4.8623 7.3415,6.5434 16.6457,11.2047 21.078,10.5598 2.8111,-0.409 3.9952,0.087 7.1849,3.0073 2.1005,1.9234 3.7362,4.3011 3.6348,5.2838 -0.711,6.896 0.018,7.6277 11.4362,11.4758 4.5339,1.528 6.3627,3.9907 6.4321,8.6615 0.027,1.8428 0.7536,4.1282 1.6138,5.0788 3.2408,3.581 0.9259,8.01 -7.436,14.2268 -1.925,1.4312 -5.75,4.9404 -8.5,7.7981 -2.75,2.8578 -6.125,5.6488 -7.5,6.2021 -3.2916,1.3247 -22.6663,2.0216 -24.8197,0.8927 -3.882,-2.0351 -9.0841,-4.049 -10.459,-4.049 -0.812,0 -2.0624,-0.7061 -2.7787,-1.5691 -0.9954,-1.1995 -2.3788,-1.4216 -5.8724,-0.943 -12.5684,1.7219 -13.3938,1.5829 -18.6751,-3.1456 -2.6923,-2.4105 -6.6228,-4.8518 -8.7344,-5.4251 -4.1018,-1.1137 -10.5754,-4.1907 -14.6607,-6.9686 -1.375,-0.935 -4.525,-2.1282 -7,-2.6515 -2.475,-0.5234 -6.525,-2.2519 -9,-3.8411 -2.475,-1.5893 -4.725,-2.9052 -5,-2.9243 -0.275,-0.019 -1.9195,-1.0466 -3.6544,-2.2833 -1.7349,-1.2366 -3.3679,-2.2484 -3.6288,-2.2484 -0.7633,0 -11.8265,-6.7934 -13.5985,-8.3502 -0.89,-0.782 -3.8683,-2.6122 -6.6183,-4.0672 -2.75,-1.455 -7.25,-4.429 -10,-6.609 -2.75,-2.1799 -5.6325,-3.9658 -6.4056,-3.9686 -0.7731,0 -2.8806,-1.13 -4.6833,-2.505 -1.8027,-1.375 -3.6888,-2.5 -4.1914,-2.5 -0.5025,0 -1.9514,-0.9 -3.2197,-2 -1.2683,-1.1 -3.1106,-2 -4.094,-2 -0.9834,0 -2.0302,-0.3919 -2.3262,-0.8708 -0.296,-0.479 -1.9424,-1.1517 -3.6587,-1.495 -1.7163,-0.3432 -4.8279,-1.9764 -6.9147,-3.6291 -2.0868,-1.6528 -4.1077,-3.0051 -4.4908,-3.0051 -0.3831,0 -3.0669,-2.025 -5.9639,-4.5 -2.897,-2.475 -5.5993,-4.5 -6.0049,-4.5 -0.4057,0 -4.4072,-2.4239 -8.8922,-5.3865 -4.485,-2.9626 -10.1705,-6.3995 -12.6344,-7.6376 -2.4639,-1.2381 -6.0639,-3.4934 -8,-5.0117 -2.3744,-1.8621 -6.2869,-3.3718 -12.0202,-4.6382 -10.3272,-2.2811 -15.2607,-1.4038 -22.2934,3.9644 -2.5402,1.939 -6.2133,4.0518 -8.1626,4.6951 -1.9492,0.6433 -3.544,1.4786 -3.544,1.8562 0,0.3776 -1.7477,1.4436 -3.8837,2.3691 -2.1361,0.9254 -6.7058,3.5065 -10.1551,5.7359 -3.4492,2.2293 -6.63,4.0533 -7.0684,4.0533 -0.4384,0 -4.9811,2.9118 -10.0949,6.4707 -5.1139,3.559 -10.1375,7.0465 -11.1636,7.75 -1.0262,0.7036 -2.8972,2.0668 -4.1578,3.0293 -1.2606,0.9625 -3.0408,1.75 -3.9562,1.75 -1.9301,0 -9.8098,4.439 -11.5045,6.481 -0.6347,0.7648 -2.3754,1.6587 -3.8683,1.9866 -1.4928,0.3279 -4.4685,2.1568 -6.6125,4.0643 -2.1441,1.9074 -4.2438,3.4681 -4.666,3.4681 -1.6192,0 -6.7192,6.4747 -7.4169,9.416 -0.4023,1.6962 -0.82,3.309 -0.9282,3.584 -0.1081,0.275 -0.5388,1.4 -0.9569,2.5 -0.4182,1.1 -1.4898,3.4545 -2.3815,5.2322 -1.1604,2.3136 -1.3143,3.539 -0.5416,4.3117 0.7728,0.7728 0.667,2.2699 -0.3723,5.2679 -0.7986,2.3035 -1.6593,6.2132 -1.9126,8.6882 -0.2534,2.475 -2.2378,8.1513 -4.4098,12.6141 -2.1721,4.4627 -3.9492,9.4701 -3.9492,11.1275 0,1.6574 -0.7217,3.6124 -1.6037,4.3445 -1.1521,0.9561 -1.4612,2.3931 -1.0978,5.1028 0.3479,2.5936 -0.1049,4.9494 -1.4495,7.5415 -1.2336,2.3781 -1.8059,5.0615 -1.5504,7.2696 0.2227,1.925 -0.1985,5.525 -0.936,8 -0.7375,2.475 -1.3458,6.2033 -1.3518,8.2852 -0.01,2.0818 -0.7627,4.9327 -1.6817,6.3353 -0.9924,1.5145 -1.2834,2.8201 -0.7166,3.2148 0.5249,0.3656 1.0052,1.7897 1.0672,3.1647 0.062,1.375 0.2166,3.4 0.3435,4.5 0.3914,3.3925 -1.0106,8.6736 -3.0708,11.5668 -1.0807,1.5177 -1.9707,4.261 -1.9779,6.0963 -0.034,8.8769 -0.6224,15.4783 -1.4993,16.8369 -0.5326,0.825 -1.0453,6.45 -1.1394,12.5 -0.094,6.05 -0.4657,12.1728 -0.8258,13.6062 -0.4152,1.6531 -0.1505,3.1161 0.7236,4 2.2162,2.2411 2.7892,4.7496 1.6541,7.2409 -0.8427,1.8496 -0.6499,2.9956 0.9457,5.6193 2.1615,3.5544 1.7353,5.8794 -1.9888,10.8488 -2.5022,3.3389 -1.4176,11.7879 1.877,14.6218 2.2426,1.929 2.3291,2.3744 1.3284,6.8399 -0.9642,4.3026 -0.8523,5.0714 1.1278,7.7498 1.2091,1.6353 2.4915,2.9733 2.8497,2.9733 1.2186,0 3.0368,5.2222 2.4556,7.0531 -0.3182,1.0028 -2.0962,2.3242 -3.9509,2.9363 -4.8993,1.6169 -6.1603,3.4685 -4.4889,6.5916 1.0355,1.9347 1.1007,3.4275 0.2836,6.4889 -1.1032,4.1329 -0.1322,6.1354 1.9602,4.043 1.2363,-1.2363 5.0907,-1.5462 4.5141,-0.3629 -0.2009,0.4125 -0.9672,1.947 -1.7028,3.41 -1.2111,2.4088 -1.0974,2.9755 1.204,6 1.3977,1.837 2.689,4.9017 2.8695,6.8104 0.3034,3.2091 0.7046,3.5856 5.3281,5.0002 7.9167,2.4222 8.0471,2.6495 4.2243,7.368 -1.8542,2.2888 -3.6516,4.9227 -3.9941,5.8531 -0.3425,0.9305 -1.8844,2.4862 -3.4265,3.4572 -1.542,0.9709 -4.0757,2.7972 -5.6304,4.0582 -3.0791,2.4976 -7.9872,2.9013 -13.1733,1.0835 z M 364.51597,1079.0228 c 2.0389,0.1167 3.978,-0.2261 4.309,-0.7617 0.3311,-0.5356 2.6251,-0.9739 5.0978,-0.9739 2.4727,0 6.4659,-0.8975 8.8738,-1.9944 2.4079,-1.0969 5.0056,-1.7535 5.7727,-1.4592 0.7671,0.2944 2.5853,0.083 4.0404,-0.4707 1.9392,-0.7372 3.7579,-0.6134 6.8105,0.4636 3.6802,1.2984 4.5158,1.2944 7.1804,-0.035 1.6586,-0.8274 4.4156,-1.5044 6.1268,-1.5044 1.7111,0 4.7903,-0.9 6.8427,-2 2.0523,-1.1 4.7457,-2.0028 5.9852,-2.0062 1.2395,0 3.6036,-0.7202 5.2536,-1.593 1.65,-0.8728 5.475,-1.9874 8.5,-2.4769 3.025,-0.4894 7.975,-1.6332 11,-2.5417 3.025,-0.9086 10.675,-2.9589 17,-4.5562 6.325,-1.5974 12.918,-3.5617 14.6511,-4.3652 1.7332,-0.8034 4.9956,-1.4608 7.25,-1.4608 2.2544,0 4.0989,-0.45 4.0989,-1 0,-0.55 1.039,-1 2.3089,-1 3.014,0 6.5349,-2.5552 5.1911,-3.7674 -1.944,-1.7535 -10.6333,-4.431 -12.66,-3.901 -3.7013,0.9679 -12.0118,-3.8152 -12.8512,-7.3965 -0.3874,-1.6526 -1.361,-2.5207 -3.0298,-2.7014 -4.542,-0.4918 -10.442,-2.5688 -12.5234,-4.4088 -1.1355,-1.0037 -2.6752,-1.8249 -3.4216,-1.8249 -1.6428,0 -14.0664,4.8652 -15.623,6.1181 -0.6099,0.491 -3.1296,1.5008 -5.5994,2.2441 -2.4698,0.7433 -7.5102,3.6659 -11.2008,6.4946 -3.6907,2.8288 -7.0725,5.1432 -7.5151,5.1432 -0.4426,0 -2.3282,1.3428 -4.1902,2.984 -1.862,1.6412 -3.8355,2.999 -4.3855,3.0173 -0.55,0.018 -2.0597,1.1505 -3.355,2.516 -1.2952,1.3655 -3.0421,2.4827 -3.8819,2.4827 -0.8399,0 -3.1552,1.0109 -5.1451,2.2465 -3.7887,2.3524 -13.4651,5.4011 -21.118,6.6534 -2.475,0.405 -6.1994,1.9087 -8.2764,3.3415 -2.7306,1.8836 -5.6385,2.7871 -10.5,3.2622 -8.5027,0.8311 -10.2236,1.3207 -10.2236,2.9088 0,3.4188 7.101,5.9659 13,4.6631 1.375,-0.3037 4.1682,-0.4566 6.2071,-0.3399 z m 697.47033,-375.199 c 1.0024,-1.35487 3.3567,-4.52969 5.2317,-7.05515 3.0925,-4.16523 3.2639,-4.73702 1.845,-6.15588 -0.8745,-0.87449 -4.3617,-1.88548 -7.9091,-2.29294 -3.4898,-0.40084 -7.5825,-1.23602 -9.095,-1.85595 -1.5125,-0.61994 -2.75,-0.93326 -2.75,-0.69627 0,0.23699 -1.7452,-0.18484 -3.8781,-0.93739 -3.7642,-1.32807 -3.99,-1.27608 -7.684,1.7688 -2.5621,2.11193 -5.2718,3.30884 -8.2919,3.66265 -2.4674,0.28905 -4.6471,1.01305 -4.8438,1.60888 -0.1968,0.59584 0.2172,1.10025 0.92,1.12093 0.7028,0.0207 4.2756,1.44568 7.9395,3.16667 3.664,1.72099 7.264,3.15805 8,3.19348 0.7361,0.0354 4.0383,1.5735 7.3383,3.41795 7.3657,4.11688 10.7133,4.3847 13.1774,1.05422 z M 814.30887,518.28722 c 0,-0.55 -0.45,-1 -1,-1 -0.55,0 -1,0.45 -1,1 0,0.55 0.45,1 1,1 0.55,0 1,-0.45 1,-1 z"
     id="path2987"
     inkscape:connector-curvature="0" />
</svg>
