<?xml version="1.0" encoding="UTF-8" standalone="no"?>
<!-- Created with Inkscape (http://www.inkscape.org/) -->

<svg
   xmlns:dc="http://purl.org/dc/elements/1.1/"
   xmlns:cc="http://creativecommons.org/ns#"
   xmlns:rdf="http://www.w3.org/1999/02/22-rdf-syntax-ns#"
   xmlns:svg="http://www.w3.org/2000/svg"
   xmlns="http://www.w3.org/2000/svg"
   xmlns:sodipodi="http://sodipodi.sourceforge.net/DTD/sodipodi-0.dtd"
   xmlns:inkscape="http://www.inkscape.org/namespaces/inkscape"
   id="svg2"
   version="1.1"
   inkscape:version="0.48.2 r9819"
   width="1595.202"
   height="378.01678"
   sodipodi:docname="australianinsect00frog_0135b.png">
  <metadata
     id="metadata8">
    <rdf:RDF>
      <cc:Work
         rdf:about="">
        <dc:format>image/svg+xml</dc:format>
        <dc:type
           rdf:resource="http://purl.org/dc/dcmitype/StillImage" />
        <dc:title></dc:title>
      </cc:Work>
    </rdf:RDF>
  </metadata>
  <defs
     id="defs6" />
  <sodipodi:namedview
     pagecolor="#ffffff"
     bordercolor="#666666"
     borderopacity="1"
     objecttolerance="10"
     gridtolerance="10"
     guidetolerance="10"
     inkscape:pageopacity="0"
     inkscape:pageshadow="2"
     inkscape:window-width="1920"
     inkscape:window-height="1176"
     id="namedview4"
     showgrid="false"
     fit-margin-top="0"
     fit-margin-left="0"
     fit-margin-right="0"
     fit-margin-bottom="0"
     inkscape:zoom="1"
     inkscape:cx="795.85568"
     inkscape:cy="90.844251"
     inkscape:window-x="0"
     inkscape:window-y="24"
     inkscape:window-maximized="1"
     inkscape:current-layer="svg2" />
  <path
     style="fill:#000000"
     d="m 793.35568,376.72568 c -12.00471,-1.87419 -19.5,-4.62903 -19.5,-7.16709 0,-0.76233 -0.36601,-1.38606 -0.81335,-1.38606 -0.44735,0 -1.43134,-1.575 -2.18665,-3.5 -0.75531,-1.925 -1.7393,-3.5 -2.18665,-3.5 -0.44734,0 -0.81335,-1.35 -0.81335,-3 l 0,-3 -7.75,-0.19207 c -9.06005,-0.22454 -9.71513,-0.1861 -18.20104,1.06805 -7.87388,1.1637 -9.64973,2.91516 -7.23022,7.13091 0.90404,1.5752 1.27771,3.23055 0.83039,3.67855 -0.44732,0.44801 -4.77306,0.96984 -9.61274,1.15964 -8.23896,0.32309 -8.76599,0.47292 -8.27451,2.35235 0.77789,2.97465 -1.53414,3.86915 -8.26188,3.19645 -13.91475,-1.39131 -22.99977,-5.74057 -26.03051,-12.46153 -2.09521,-4.64635 -2.0361,-4.62875 -17.96949,-5.34919 -6.6,-0.29843 -13.6875,-0.8356 -15.75,-1.19372 -3.31255,-0.57517 -3.75,-0.41504 -3.75,1.37273 0,1.11312 0.675,2.28287 1.5,2.59946 2.46075,0.94427 1.70234,3.54948 -1.24894,4.29021 -3.1126,0.78121 -19.13207,-1.01719 -23.91608,-2.68491 -1.85368,-0.6462 -4.32538,-2.82551 -5.99223,-5.2834 -3.70374,-5.46141 -3.44959,-5.32893 -10.63895,-5.54584 -11.27665,-0.34022 -36.08714,-2.13897 -43.2038,-3.13224 -9.12399,-1.27345 -40.58285,-0.58164 -47,1.03356 -3.11448,0.78392 -9.90235,1.14983 -18,0.97031 -7.15,-0.1585 -14.575,-0.1583 -16.5,4.4e-4 -8.91657,0.73533 -31.37419,0.283 -39.46206,-0.79481 -8.96034,-1.19409 -15.11066,-3.63909 -27.69595,-11.01029 -6.79718,-3.9811 -8.84199,-6.1435 -8.84199,-9.35045 0,-2.13264 0.85788,-3.39602 3.45969,-5.09502 3.55501,-2.32144 6.36263,-6.2702 5.24958,-7.38325 -0.34489,-0.34489 -1.81057,0.77943 -3.25707,2.49849 -2.87916,3.42169 -6.42185,4.07199 -8.50555,1.56128 -0.82206,-0.99052 -2.14774,-1.35107 -3.61428,-0.98299 -1.68143,0.42201 -2.90571,-0.0969 -4.46815,-1.89387 -1.66319,-1.91283 -2.55884,-2.25747 -3.94242,-1.517 -2.36155,1.26386 -6.25949,1.22046 -7.56418,-0.0842 -0.72318,-0.72318 -1.43437,-0.57006 -2.32245,0.5 -1.29158,1.55626 -5.14795,2.09627 -6.35441,0.88981 -0.35891,-0.35892 -3.79336,-0.74091 -7.6321,-0.84887 -3.94345,-0.11091 -7.65523,-0.75708 -8.53286,-1.48544 -1.28298,-1.06479 -1.86832,-1.00407 -3.3633,0.34887 -2.46631,2.23198 -5.85607,2.06042 -7.1525,-0.36199 -1.00644,-1.88054 -1.21732,-1.90371 -3.53077,-0.38788 -1.66851,1.09325 -3.5299,1.41148 -5.7833,0.98874 -1.82759,-0.34286 -4.8203,-0.10138 -6.65047,0.53662 -2.79648,0.97486 -3.86461,0.8708 -6.69224,-0.65198 -2.83815,-1.52844 -3.73463,-1.61398 -5.72894,-0.54666 -1.72831,0.92496 -2.90026,0.97848 -4.35682,0.19895 -1.0959,-0.58651 -8.01465,-1.54564 -15.375,-2.13141 -7.36035,-0.58576 -14.05746,-1.25381 -14.88246,-1.48455 -0.825,-0.23074 -12.975,-1.11695 -27,-1.96935 -14.025,-0.8524 -34.275,-2.23547 -45,-3.07348 -10.725,-0.83802 -25.125,-1.96519 -32,-2.50482 -12.92739,-1.0147 -33.89828,-2.19422 -71,-3.99344 -24.872856,-1.2062 -40.816316,-2.55682 -46.499996,-3.93917 -2.2,-0.53507 -8.95,-1.22374 -15,-1.53037 -31.72814,-1.6081 -46.60024026,-4.04779 -47.31147026,-7.7612 -0.18435,-0.9625 0.22488,-1.75 0.90941,-1.75 0.68451996,0 1.99855996,-0.68235 2.92009996,-1.51633 0.92154,-0.83398 3.74461,-1.72569 6.2734803,-1.98158 2.52888,-0.25589 4.96033,-0.5627 5.40322,-0.6818 0.44289,-0.1191 1.85604,0.14009 3.14034,0.57597 1.74169,0.59113 2.9016,0.2603 4.56445,-1.30187 2.71567,-2.55124 6.13957,-2.70778 7.53248,-0.34439 0.89951,1.52622 1.15953,1.55819 2.03344,0.25 0.55112,-0.825 1.14731,-1.91388 1.32487,-2.41973 0.17756,-0.50586 1.83412,-0.16581 3.68126,0.75566 3.1138,1.55337 3.49042,1.55594 5.17079,0.0352 1.38152,-1.25025 2.70926,-1.46091 5.58501,-0.88611 2.07494,0.41473 6.69762,1.04245 10.27262,1.39494 3.575,0.35248 7.07071,1.00531 7.76824,1.45074 0.76573,0.48897 2.70986,-0.0811 4.90664,-1.4388 3.51141,-2.17017 3.74275,-2.18878 6.62768,-0.53306 2.8726,1.64865 3.07391,1.63609 5.15781,-0.32163 2.74919,-2.58273 5.72352,-2.5965 8.03963,-0.0372 2.35795,2.60551 5.30042,2.53612 8.20597,-0.1935 2.140756,-2.01114 2.633826,-2.0854 5.930706,-0.89324 2.922,1.05661 4.04251,1.06121 5.97957,0.0245 1.31106,-0.70167 2.38375,-1.64972 2.38375,-2.10678 0,-0.45706 1.125,-0.83102 2.5,-0.83102 1.375,0 2.5,0.41968 2.5,0.93261 0,2.07233 4.07251,2.15195 6.90506,0.135 3.19445,-2.27466 7.07348,-2.68907 8.82024,-0.94231 1.52072,1.52072 7.91619,0.25135 8.67322,-1.72145 0.38291,-0.99783 1.27747,-1.32407 2.53565,-0.92474 1.34794,0.42782 2.28011,-0.011 3.04011,-1.43105 1.3991,-2.61425 5.15758,-2.63996 7.02572,-0.0481 1.7114,2.37445 3.30452,2.54293 4.97804,0.52646 1.58174,-1.90588 7.37635,-2.98714 9.53486,-1.77918 2.42928,1.35949 6.6697,0.27047 7.22571,-1.85571 0.7611,-2.91045 4.12691,-3.36712 7.33509,-0.9952 3.57395,2.64234 3.72229,2.6327 6.10496,-0.39637 2.05507,-2.61259 6.53181,-3.38953 8.45412,-1.46722 1.12673,1.12673 4.36722,0.29097 4.36722,-1.12635 0,-0.48377 1.62299,-1.55772 3.60665,-2.38655 3.26302,-1.36337 3.87415,-1.34893 6.41422,0.15152 2.77784,1.64091 2.86026,1.61436 7.78213,-2.50646 5.7255,-4.79366 7.86051,-5.18017 9.197,-1.66494 0.52277,1.375 1.59983,2.5 2.39346,2.5 2.51583,0 4.60654,-1.16723 4.60654,-2.57181 0,-3.1619 7.75406,-4.63439 10.02094,-1.90296 1.10639,1.33312 1.46818,1.34293 2.87244,0.0779 2.41825,-2.17847 6.89991,-3.01959 8.59468,-1.61305 1.19882,0.99493 1.6744,0.74746 2.64114,-1.37431 1.86976,-4.10368 5.13156,-5.76944 8.79601,-4.49201 1.69114,0.58954 3.07479,1.47786 3.07479,1.97406 0,1.95093 3.65339,0.74653 6.3265,-2.08563 2.73082,-2.89331 2.91414,-2.93912 5.79673,-1.44848 3.30082,1.70692 5.84489,1.25317 10.20766,-1.82061 2.38139,-1.6778 3.1913,-1.8016 5.10076,-0.77969 3.37505,1.80627 6.86549,0.922 8.31195,-2.10576 1.60586,-3.36141 5.67429,-4.4691 8.82711,-2.40329 3.15042,2.06424 4.09025,1.95012 4.75108,-0.57691 0.45207,-1.72871 1.13129,-2.03796 3.66066,-1.66673 1.70808,0.2507 3.34589,0.067 3.63956,-0.40814 0.29367,-0.47518 1.96136,-0.59732 3.70597,-0.27143 2.38387,0.4453 3.72069,0.0802 5.38021,-1.46932 2.59702,-2.42491 5.5516,-2.65867 7.28006,-0.576 1.07376,1.29381 1.63147,1.17411 4.31503,-0.92609 2.88925,-2.26118 3.26305,-2.31825 5.98023,-0.91314 2.61522,1.35238 3.07827,1.33596 4.74025,-0.16812 1.26471,-1.14454 2.73655,-1.47041 4.69675,-1.03988 2.38759,0.52441 3.22183,0.13065 5.0971,-2.40579 2.51145,-3.39691 5.56974,-3.89724 8.36413,-1.36835 1.72491,1.56102 1.98808,1.52463 4.23439,-0.58568 2.01038,-1.88865 2.74191,-2.06458 4.55344,-1.09507 1.59635,0.85433 2.50985,0.86329 3.50862,0.0344 0.74268,-0.61637 2.40142,-1.02761 3.68607,-0.91387 4.17586,0.36975 5.83574,-0.0765 5.83574,-1.56905 0,-2.40219 3.85053,-3.92431 6.67355,-2.63806 3.24923,1.48045 3.32645,1.45161 3.32645,-1.24213 0,-4.78461 5.44511,-6.95705 11.58575,-4.62239 2.21926,0.84376 3.09983,0.68374 4.8151,-0.87504 4.20385,-3.82031 6.55334,-4.4928 10.80008,-3.09125 3.75012,1.23766 4.01885,1.17623 6.48373,-1.48203 2.20786,-2.38108 3.08357,-2.68259 6.19339,-2.13242 10.54518,1.86559 12.14646,1.8259 14.03169,-0.34779 2.12492,-2.45005 6.29954,-2.76175 8.09026,-0.60407 1.74804,2.10625 5.35925,1.86551 7.5,-0.5 2.14049,-2.36521 7.12281,-2.59986 9.94113,-0.4682 3.55779,2.69098 10.36953,1.43197 13.22912,-2.44514 0.81763,-1.10857 2.79762,-1.58666 6.57109,-1.58666 3.89351,0 5.90995,-0.50902 7.22503,-1.82386 1.48478,-1.48449 2.72447,-1.70003 6.66266,-1.15839 3.96439,0.54524 5.46642,0.27736 8.31451,-1.48285 2.70573,-1.67224 3.91001,-1.91605 5.43438,-1.10023 2.02749,1.08507 7.77933,0.44144 9.74236,-1.09017 0.6435,-0.50207 4.19468,-0.43805 8.34408,0.15045 6.974,0.98909 7.32693,0.93773 10.20644,-1.48522 1.64046,-1.38035 3.60729,-2.50973 4.37074,-2.50973 0.76345,0 1.84142,-0.84706 2.3955,-1.88235 1.49356,-2.79075 3.92723,-3.33185 7.33633,-1.63116 2.88576,1.43961 3.20874,1.38316 6.51487,-1.13854 3.11896,-2.37895 3.80811,-2.53408 6.66617,-1.5006 4.83664,1.74895 7.3419,1.40213 9.73254,-1.34735 2.64921,-3.04686 6.8062,-3.27004 9.31305,-0.5 2.75903,3.04869 6.00831,2.51119 9.0678,-1.5 2.06482,-2.70712 3.39026,-3.5 5.85089,-3.5 1.74972,0 3.673,0.49169 4.27395,1.09264 1.43371,1.43371 4.46947,-0.16491 6.65905,-3.50663 l 1.63492,-2.49521 4.5895,1.70099 4.58949,1.70099 2.00061,-2.74639 c 2.27836,-3.12769 4.37999,-3.46705 6.9678,-1.12511 1.78924,1.61924 2.85825,1.47278 6.07166,-0.83184 1.34186,-0.96237 2.42345,-0.96373 5.07099,-0.006 1.85094,0.66931 4.74995,1.21692 6.44226,1.21692 4.42416,0 11.10662,-4.14043 13.09054,-8.11086 0.9298,-1.8608 2.51363,-3.53694 3.51963,-3.72476 3.13154,-0.58466 6.50963,0.75211 7.17165,2.83794 0.91779,2.89172 4.16103,2.46625 5.73468,-0.75232 1.27311,-2.60385 4.38601,-3.3205 5.76458,-1.32711 1.32958,1.92255 4.33567,1.95823 6.72369,0.0798 2.68881,-2.11534 6.27631,-2.68847 6.27631,-1.00302 0,0.55 2.14047,1 4.7566,1 2.61613,0 6.17564,0.40698 7.91003,0.90439 2.93097,0.84059 3.49485,0.56056 7.9934,-3.96956 4.44677,-4.47799 5.13558,-4.82687 8.4787,-4.29438 3.21135,0.51151 3.90152,0.22413 5.87623,-2.44682 2.73132,-3.6943 5.7065,-4.60616 8.67744,-2.65952 2.83545,1.85786 5.14477,1.8497 9.65336,-0.0341 1.9745,-0.825 6.2888,-1.5 9.58733,-1.5 5.16993,0 6.45049,-0.39526 9.28211,-2.86508 4.2751,-3.72885 7.59336,-4.79738 8.39671,-2.70387 0.87271,2.27424 7.48832,2.05587 10.05115,-0.33177 1.3633,-1.27011 2.50413,-1.60696 3.43856,-1.01531 0.76911,0.48697 5.125,0.8923 9.67976,0.90072 6.99244,0.0129 8.37799,-0.25707 8.902,-1.73469 1.68479,-4.75075 5.24746,-6.44383 8.23788,-3.91489 2.87292,2.42958 9.14465,0.19914 12.31924,-4.38113 3.27859,-4.73035 5.61759,-4.98977 8.60138,-0.95398 2.59532,3.51036 4.94432,3.78735 8.19672,0.96653 1.3616,-1.18095 2.9979,-1.76225 3.903,-1.38654 4.228,1.75512 5.3753,1.6513 7.1059,-0.64297 1.6223,-2.15073 2.0125,-2.24289 4.3039,-1.01656 2.2148,1.18534 3.0035,1.09647 6.5157,-0.73418 2.803,-1.461 5.0323,-1.91458 7.4676,-1.51939 2.8063,0.45539 3.6794,0.17525 4.5554,-1.46156 0.7305,-1.36494 1.7399,-1.85335 3.0968,-1.4985 1.1072,0.28954 2.0131,0.92395 2.0131,1.4098 0,1.28032 3.399,1.08439 4.7576,-0.27425 0.8768,-0.87682 1.5595,-0.82407 2.8146,0.2175 1.4493,1.20283 1.9661,1.00331 4.1249,-1.59238 8.3355,-10.02217 7.7618,-9.76237 12.3348,-5.58559 3.6071,3.29464 6.3875,3.12594 9.2897,-0.56367 2.0877,-2.65409 4.8688,-2.99865 6.6715,-0.82656 1.0788,1.29989 1.6163,1.17329 4.181,-0.9847 2.763,-2.32493 3.0895,-2.38035 5.3392,-0.90631 2.3538,1.5423 2.4343,1.48899 4.5516,-3.01531 2.5489,-5.4225 5.1038,-6.00655 6.9351,-1.58536 0.6835,1.65 1.8496,3 2.5914,3 0.7418,0 2.3468,-1.35 3.5667,-3 2.4693,-3.33985 3.9907,-3.73051 5.8419,-1.5 1.7615,2.12253 3.7511,1.85954 4.5314,-0.599 0.5579,-1.75772 1.1786,-1.99071 3.8174,-1.43298 1.7332,0.3663 5.25112,0.74835 7.81762,0.84899 2.5665,0.10065 4.9861,0.50254 5.3768,0.89311 0.8602,0.85994 5.601,-1.47403 7.4021,-3.64418 0.7148,-0.86127 2.166,-1.56594 3.2249,-1.56594 1.0589,0 3.0734,-1.237498 4.4767,-2.749998 2.1759,-2.34523 3.3473,-2.75046 7.9583,-2.75314 4.6554,-0.003 5.735,-0.38494 7.7672,-2.75 2.4789,-2.88484 4.5299,-3.44458 6.2648,-1.7097 1.4929,1.49297 5.6558,-0.32289 8.2234,-3.58713 1.924,-2.44589 2.3885,-2.5895 4.9475,-1.52952 3.516,1.45637 7.5987,0.10328 10.388,-3.44274 1.9883,-2.52769 5.191,-3.27847 6.3039,-1.47777 0.9969,1.61305 4.053,1.15141 5.9018,-0.89152 1.0457,-1.15551 2.4923,-1.68742 3.7177,-1.36698 1.3091,0.34235 2.5045,-0.18739 3.4415,-1.52513 0.7896,-1.12732 3.5739,-2.81138 6.1873,-3.74236 13.206,-4.70433 16.0291,-6.03962 19.2939,-9.12572 3.9494,-3.73328 5.4953,-4.07681 8.0287,-1.78414 2.6024,2.35519 8.4366,0.93621 11.0101,-2.67786 2.2409,-3.14715 4.651,-3.74834 5.5574,-1.38629 0.8123,2.11699 3.9998,1.86177 6.3718,-0.51019 1.6383,-1.63834 2.7748,-1.88792 6.1434,-1.34925 3.2899,0.52608 5.0118,0.18103 8.4388,-1.69102 4.0701,-2.22339 4.4082,-2.25896 6.1853,-0.65075 2.6705,2.41683 3.9512,2.12617 5.7223,-1.29879 1.7099,-3.30655 2.5816,-3.5905 5.4751,-1.78349 1.6278,1.01657 2.4407,0.85222 4.9459,-1 3.2222,-2.38224 5.5882,-2.81973 6.579,-1.21651 1.026,1.66014 4.0743,1.12786 6.0513,-1.05664 1.1333,-1.2523 2.6605,-1.87625 3.9049,-1.59538 1.5157,0.34208 2.8287,-0.61057 5.0816,-3.68694 4.0682,-5.55544 5.8034,-5.67915 10.4941,-0.74821 3.861,4.05878 5.9681,5.10867 5.9681,2.97367 0,-1.13271 3.9693,-0.82655 7.1852,0.5542 1.1586,0.49746 2.3868,-0.0833 3.9303,-1.85857 2.5206,-2.89891 5.5543,-3.29914 8.4434,-1.11393 2.5124,1.90032 4.8807,1.91201 6.4411,0.0318 0.6847,-0.825 2.3289,-1.5 3.6538,-1.5 1.3249,0 2.668,0.675 2.9846,1.5 0.8112,2.114 3.118,1.86292 4.5937,-0.5 1.6659,-2.66751 4.6212,-2.53823 5.7152,0.25 0.8508,2.16852 0.9256,2.13231 2.0656,-1 1.5558,-4.27517 4.4192,-4.31784 5.8938,-0.0878 1.3733,3.93948 2.6356,2.91043 2.2283,-1.81662 -0.1681,-1.95095 0.8398,-7.21431 2.2397,-11.69636 1.3998,-4.48205 3.2366,-10.68792 4.0817,-13.79082 2.0642,-7.5792003 5.6951,-8.8661803 8.6199,-3.0553203 0.7466,1.4833303 2.3902,3.8219603 3.6524,5.1969603 1.2622,1.375 2.8964,3.35625 3.6314,4.40277 1.7624,2.50918 3.3524,1.37867 4.6054,-3.27452 1.1334,-4.20926 5.8822,-11.0352503 7.7164,-11.0918103 0.6501,-0.02 2.0338,1.20106 3.0751,2.71356 1.7548,2.5491403 6.243,11.6605903 6.243,12.6740003 0,0.24519 0.4673,1.67488 1.0384,3.17709 l 1.0385,2.73129 2.8706,-3.41619 2.8707,-3.41619 3.5699,1.89616 c 4.0728,2.16326 4.9693,4.15105 4.8954,10.85384 -0.029,2.6125 0.2698,4.75 0.6636,4.75 0.3939,0 2.1964,-2.28448 4.0056,-5.07663 1.8093,-2.79214 4.3713,-5.56951 5.6934,-6.17191 2.0968,-0.95534 2.8221,-0.69 5.6765,2.07662 3.7901,3.67345 4.6774,3.90954 4.6774,1.2445 0,-2.31162 4.5796,-6.17114 6.4643,-5.44791 0.9347,0.35868 1.5409,-0.78587 2.016,-3.80587 0.3736,-2.37534 2.2184,-6.86163 4.0995,-9.96953 1.8811,-3.1079003 3.4202,-6.2621503 3.4202,-7.0094503 0,-2.78939997 3.3253,-3.70013997 9.0789,-2.48655997 6.3281,1.33477997 8.8567,2.99415997 10.8901,7.14673997 0.808,1.65 3.3859,5.1079503 5.7287,7.6843403 l 4.2596,4.68434 2.1917,-3.18434 c 3.3509,-4.86842 9.7302,-10.6159203 12.5756,-11.3300703 1.9654,-0.49327 2.9764,-0.0909 4.4035,1.75273 2.2221,2.8706103 8.982,16.3983203 8.7786,17.5675003 -0.3857,2.21788 0.236,2.52067 1.5743,0.76663 0.9862,-1.29261 1.7379,-1.57824 2.25,-0.85493 1.3851,1.95637 6.5993,3.20224 8.9638,2.14178 2.9087,-1.30453 5.3052,-0.28079 5.3052,2.26631 0,1.95602 0.1449,1.98212 2.9503,0.53139 3.7169,-1.92205 4.9616,-1.91536 7.1203,0.0382 1.396,1.26329 1.6266,2.68432 1.1996,7.39234 -0.5059,5.57921 -0.4053,5.90686 2.3507,7.66298 1.5835,1.00901 3.1614,2.23227 3.5065,2.71836 1.0804,1.52185 -0.2737,4.65483 -3.335,7.71616 -3.493,3.49303 -3.3502,3.54293 2.7076,0.94624 2.5662,-1.1 5.3657,-2 6.2211,-2 0.8554,0 3.5394,-1.8289 5.9644,-4.06422 4.6203,-4.25887 7.572,-4.77714 8.1116,-1.4243 0.7221,4.48692 0.945,4.62311 4.8774,2.98004 5.5292,-2.31025 6.5165,-1.48546 6.2075,5.18574 -0.2624,5.66529 -0.2518,5.68818 3.1774,6.85506 3.2802,1.11621 3.4406,1.39455 3.4406,5.9696 0,3.94849 0.3366,4.84897 1.8999,5.08195 1.0449,0.15574 2.2755,0.87558 2.7347,1.59965 1.1969,1.88755 1.0578,7.22412 -0.2217,8.50361 -1.3202,1.32019 -0.1266,2.22982 3.8536,2.93688 9.436,1.67622 27.0524,8.24794 29.2689,10.91863 1.1428,1.377048 1.4545,1.19753 2.5838,-1.48836 1.4952,-3.55589 3.6421,-4.08463 3.2658,-0.80428 -0.1419,1.2375 0.067,3.21776 0.4643,4.400588 0.817,2.43219 5.3943,4.00576 6.9953,2.40477 1.7661,-1.76603 2.7261,-1.1852 2.1085,1.27562 -0.4689,1.8682 0.1725,2.90228 3.2309,5.20858 2.0988,1.58268 3.9583,3.21053 4.1321,3.61745 0.1739,0.40691 1.4133,0.23995 2.7543,-0.37103 2.9131,-1.32729 4.2118,-0.43337 2.4516,1.6875 -1.0465,1.26103 -0.7939,2.13673 1.4741,5.1103 1.732,2.2707 3.3369,3.41802 4.3705,3.12427 4.2546,-1.20921 4.5968,-1.13687 4.9292,1.04195 0.1888,1.2375 -0.138,2.25 -0.7262,2.25 -1.6932,0 -1.2569,2.46617 1.2022,6.79544 2.2404,3.94426 2.3108,3.97917 5.0884,2.52381 1.5491,-0.81167 3.1143,-1.15394 3.4782,-0.7606 0.3639,0.39334 0.1629,0.89478 -0.4466,1.11432 -0.6095,0.21954 -1.8521,0.94543 -2.7614,1.61309 -1.5164,1.1135 -1.4544,1.58625 0.7489,5.71394 1.7697,3.31525 3.0891,4.58331 5.0114,4.81642 3.0461,0.3694 3.5524,2.18358 0.6093,2.18358 -2.3028,0 -2.4121,0.9798 -0.8975,8.04213 0.9272,4.32355 1.5905,5.34579 4.1732,6.43173 l 3.0707,1.29114 -3.0704,0.67438 c -2.9371,0.6451 -3.0496,0.8564 -2.5909,4.8675 0.6801,5.94637 1.0411,6.73541 2.777,6.06926 2.2296,-0.85554 1.8912,1.3644 -0.3944,2.58761 -2.4531,1.31289 -3.0573,3.28724 -4.0903,13.36565 -0.4606,4.49382 -1.1464,9.18309 -1.524,10.4206 -0.5154,1.68862 -0.2833,2.25 0.93,2.25 2.2305,0 2.0353,1.73232 -0.278,2.46653 -1.2381,0.39298 -2.0303,1.7643 -2.2864,3.95808 -0.4923,4.2166 -0.048,5.57539 1.8234,5.57539 0.8116,0 1.1975,0.44999 0.8576,1 -0.3399,0.55 -1.3985,1 -2.3524,1 -2.1821,0 -4.4565,7.55433 -3.06,10.16368 0.6302,1.1776 0.5204,1.98593 -0.3441,2.53292 -1.4342,0.90745 -4.6263,12.15511 -3.9907,14.0617 0.2357,0.70712 2.1001,1.24169 4.3305,1.24169 2.1542,0 3.9167,0.45 3.9167,1 0,0.55 -2.2019,1 -4.893,1 -3.5393,0 -5.061,0.43762 -5.5,1.58179 -1.0911,2.84331 -0.6437,4.17535 1.5993,4.76192 2.5566,0.66855 1.6482,2.08216 -1.3664,2.12625 -2.8928,0.0423 -5.6863,6.94504 -3.9414,9.73915 1.0434,1.67071 0.9237,2.02463 -0.841,2.48609 -1.1316,0.29594 -2.0575,1.29558 -2.0575,2.22143 0,0.92585 -0.4371,2.12049 -0.9714,2.65476 -0.5342,0.53427 -1.1301,2.01126 -1.324,3.28224 -0.194,1.27096 -0.7694,2.61135 -1.2786,2.97861 -0.5093,0.36728 -1.7042,2.351 -2.6553,4.40828 -1.7216,3.7239 -1.7183,3.7477 0.7414,5.35939 1.3589,0.89038 2.1988,2.05885 1.8664,2.59661 -0.3839,0.62116 -1.0007,0.58128 -1.6914,-0.10939 -1.8719,-1.87189 -4.2291,-1.19786 -6.4859,1.85459 -1.997,2.70108 -2.0435,3.07309 -0.569,4.54762 1.9678,1.96779 1.0111,3.28944 -1.108,1.53072 -1.2325,-1.02285 -1.8318,-1.0097 -3.1312,0.0687 -1.2157,1.00892 -1.4638,2.37798 -1.0191,5.62244 0.5964,4.35154 -0.712,5.94965 -1.8739,2.28878 -0.3491,-1.1 -1.2097,-2 -1.9124,-2 -0.7027,0 -2.0921,0.9 -3.0876,2 -0.9955,1.1 -2.3915,2 -3.1024,2 -0.7108,0 -2.45,2.30477 -3.8648,5.1217 -2.714,5.40345 -5.3696,8.01514 -11.7086,11.51516 -6.398,3.53257 -10.8101,6.79478 -10.8174,7.99813 0,0.62424 1.1325,1.88151 2.5251,2.79393 3.787,2.48135 1.932,4.02089 -1.9523,1.62026 l -3.2621,-2.01606 -2.1587,2.29789 c -2.667,2.83888 -2.6977,3.87136 -0.1824,6.14765 1.087,0.98375 1.6976,2.23987 1.3567,2.79138 -0.3408,0.55151 -1.9194,-0.48588 -3.508,-2.30532 l -2.8883,-3.30807 -2.7184,2.0424 c -2.296,1.72508 -2.7184,2.78749 -2.7184,6.83799 0,2.80794 -0.4145,4.62304 -1,4.37928 -0.55,-0.22898 -1,-2.1044 -1,-4.16761 0,-2.06321 -0.3007,-3.75071 -0.6682,-3.75 -2.4061,0.005 -4.293,1.95024 -6.4369,6.63737 -1.3494,2.95015 -3.1153,5.36392 -3.9242,5.36392 -2.02,0 -1.8069,-2.01333 0.5293,-5 2.8709,-3.67027 2.4706,-4.66913 -2.1685,-5.41095 -2.8665,-0.45837 -5.131,-1.68528 -7.25,-3.92806 -1.6948,-1.79382 -3.7715,-3.52486 -4.6149,-3.84675 -0.8434,-0.32189 -2.4184,-2.43162 -3.5,-4.68828 -2.0183,-4.21098 -2.8797,-4.88456 -3.9767,-3.10965 -0.9939,1.60824 -2.4899,0.0964 -2.4899,-2.51631 0,-1.31008 -0.45,-2.66008 -1,-3 -0.5977,-0.36941 -1,0.86761 -1,3.07496 0,7.85463 -3.1851,14.3153 -7.0959,14.39324 -1.2366,0.0246 -1.5743,-0.95116 -1.5,-4.33477 0.084,-3.82168 -0.444,-4.9523 -4.2304,-9.06039 -2.3794,-2.5816 -4.9729,-6.24164 -5.7634,-8.13343 -1.6327,-3.90766 -5.0971,-5.00606 -3.7521,-1.18961 2.1785,6.18145 -1.3438,14.26801 -4.3964,10.09331 -0.694,-0.94906 -1.2618,-2.50924 -1.2618,-3.46705 0,-0.95782 -0.8026,-1.99623 -1.7836,-2.30759 -4.0103,-1.2728 -7.3526,-11.68908 -5.5383,-17.25971 0.6707,-2.05931 0.4889,-3.63632 -0.6814,-5.90911 l -1.5963,-3.10015 -1.9375,4.60015 c -2.3581,5.59907 -2.6731,8.42448 -1.3296,11.92708 0.564,1.47019 1.4081,6.34772 1.8758,10.83895 0.9283,8.91282 -0.6341,19.58669 -3.5094,23.97489 -2.2668,3.4596 -7.0735,3.15921 -11.8009,-0.7375 -5.1202,-4.22049 -7.6204,-9.57928 -8.4772,-18.16917 -0.5429,-5.44295 -1.093,-7.2341 -2.2216,-7.2341 -1.1844,0 -1.5369,1.57791 -1.6753,7.5 -0.1075,4.60142 -0.9743,9.77466 -2.2428,13.38561 -2.4346,6.93074 -1.9874,16.40994 0.8161,17.29852 0.8811,0.27926 2.2152,0.69489 2.9646,0.92364 1.1245,0.3432 1.1347,0.69061 0.058,1.98764 -1.325,1.59655 -5.6121,1.54654 -13.8347,-0.1614 -3.4829,-0.72345 -12.0861,-8.26399 -12.0861,-10.59324 0,-0.66653 -0.8853,-2.15427 -1.9674,-3.3061 -2.2548,-2.40014 -5.0326,-14.28984 -5.0326,-21.54103 0,-2.68158 -0.3521,-5.0932 -0.7824,-5.35914 -0.4303,-0.26595 -1.8843,1.16999 -3.2311,3.19098 -4.2836,6.42774 -8.3961,11.57459 -11.4865,14.37551 -1.65,1.49542 -3.0606,3.29946 -3.1347,4.00898 -0.074,0.70952 -0.1865,1.85253 -0.25,2.54003 -0.063,0.6875 -0.6793,1.25 -1.3685,1.25 -1.5054,0 -6.7468,5.36835 -6.7468,6.91019 0,3.0118 -11.9743,-1.12516 -13.9518,-4.82015 -0.8336,-1.55751 -0.7799,-3.40001 0.2135,-7.33501 1.1387,-4.51019 1.0999,-6.45939 -0.2734,-13.75211 -2.0477,-10.87368 -3.2443,-11.20093 -9.4021,-2.57146 -2.5631,3.59187 -6.7811,8.73728 -9.3732,11.43425 -9.2983,9.67428 -11.4951,12.69273 -12.8343,17.63429 -1.8031,6.65368 -1.7948,6.69179 1.3713,6.32157 2.1905,-0.25615 2.75,0.0853 2.75,1.67843 0,3.79759 -9.5012,1.93264 -16.7743,-3.29254 -3.7993,-2.72954 -5.7032,-5.19599 -8.8651,-11.48465 l -4.0266,-8.00859 1.1209,-8.60711 c 0.6165,-4.73391 1.3544,-10.09667 1.6396,-11.91725 0.5177,-3.30383 0.5141,-3.3071 -1.9111,-1.71806 -2.0174,1.32186 -3.6818,1.44013 -9.8066,0.69685 -7.2771,-0.8831 -7.4285,-0.8546 -11.1971,2.10777 -2.1012,1.65164 -5.1971,5.44258 -6.8799,8.42429 -1.6828,2.98172 -4.5761,6.63136 -6.4297,8.1103 -1.8535,1.47894 -3.3701,3.50607 -3.3701,4.50473 0,0.99866 -0.4658,2.68616 -1.0352,3.75 -1.4379,2.68679 -11.0541,2.65233 -18.2041,-0.0652 -2.8934,-1.09972 -5.3359,-1.99972 -5.4278,-2 -0.092,-2.7e-4 -0.6572,2.28437 -1.2561,5.07699 -0.5989,2.79262 -1.7612,5.74976 -2.5829,6.57143 -2.0181,2.01815 -1.8793,3.01704 0.5061,3.64083 1.1,0.28766 2,1.29811 2,2.24546 0,1.49939 -0.6799,1.63252 -5.25,1.02804 -11.8709,-1.57015 -17.0646,-7.67491 -18.3451,-21.56325 -0.9959,-10.80213 -1.0414,-26.22447 -0.083,-28.15834 0.7418,-1.49682 -0.1835,-1.63777 -9.5,-1.44714 l -10.3218,0.2112 0.2183,2.94714 c 0.1201,1.62093 0.4421,5.07712 0.7155,7.68043 0.6302,5.99966 -0.6018,6.76671 -10.8681,6.76671 -8.1771,0 -9.0909,0.74758 -5.5374,4.53009 2.4989,2.66003 1.7109,5.23686 -1.8886,6.17559 -4.2809,1.11642 -18.6038,0.70427 -23.5384,-0.67733 -4.932,-1.38086 -9.5454,-6.05546 -13.3513,-13.52835 -1.1205,-2.2 -2.9551,-4.83013 -4.077,-5.84474 -1.897,-1.71558 -2.3771,-1.74053 -6.8564,-0.35628 -14.3384,4.43095 -18.7986,6.51891 -19.9517,9.34009 -0.8948,2.18907 -0.8617,3.02629 0.1515,3.83108 0.7131,0.56642 1.5837,2.42065 1.9345,4.12051 0.9542,4.62229 -1.082,5.66741 -12.5972,6.46598 -10.4982,0.72804 -12.6465,1.6058 -11.3228,4.62614 0.438,0.99947 0.8421,2.04222 0.898,2.31722 0.056,0.275 0.4589,1.0625 0.8954,1.75 1.4297,2.25153 -0.3544,3.25 -5.807,3.25 -9.4368,0 -24.795,-3.77164 -28.5225,-7.00451 -1.2654,-1.09752 -2.5695,-1.99834 -2.8978,-2.00181 -0.89,-0.009 -4.097,-5.9386 -4.097,-7.57472 0,-1.63366 -1.9061,-1.81779 -5.2029,-0.5026 -1.2634,0.50399 -4.4346,1.46248 -7.04712,2.12996 -4.3594,1.11381 -4.75,1.46368 -4.75,4.2549 0,1.67271 0.7371,3.85579 1.638,4.85128 1.3264,1.46563 1.4009,2.09568 0.3918,3.31162 -1.533,1.84715 -7.3024,3.52284 -12.1548,3.5303 -5.022,0.008 -9.875,1.07533 -9.875,2.17239 0,0.50425 0.9,1.88285 2,3.06356 2.628,2.82084 2.523,4.15175 -0.4531,5.74453 -2.8144,1.50623 -18.7358,0.92726 -20.8123,-0.75682 -0.679,-0.55073 -3.9346,-1.54886 -7.2346,-2.21808 -3.3,-0.66922 -6.5488,-1.66174 -7.2196,-2.2056 -1.9991,-1.62083 -9.2804,-14.82017 -9.2804,-16.82323 0,-1.01922 -0.3804,-2.08823 -0.8453,-2.37557 -0.7594,-0.46935 -22.0436,4.20757 -23.0837,5.07233 -0.2359,0.19617 0.5516,1.68291 1.75,3.30388 1.1985,1.62096 2.179,3.66339 2.179,4.53872 0,2.20752 -6.4036,4.71999 -13,5.10058 -3.025,0.17453 -5.638,0.33343 -5.8067,0.35311 -0.1687,0.0197 0.3938,1.03591 1.25,2.25829 2.882,4.1147 2.0548,5.4848 -3.7493,6.20998 -6.8563,0.85664 -12.3422,-0.4284 -22.95329,-5.37664 -7.89026,-3.67945 -13.66412,-8.56359 -13.77251,-11.65024 -0.0175,-0.49809 -0.63146,-1.69565 -1.36437,-2.66125 -1.25829,-1.65779 -1.54914,-1.66182 -5.2182,-0.0722 -2.1371,0.92589 -6.36063,2.21934 -9.38563,2.87434 -3.84822,0.83326 -5.38009,1.60575 -5.10073,2.57222 2.33117,8.06494 1.05317,9.02598 -12.32747,9.27015 -5.76692,0.10523 -10.79351,0.49954 -11.17021,0.87624 -0.37671,0.3767 0.39133,1.56121 1.70675,2.63224 l 2.39166,1.94732 -2.8151,1.07768 c -3.44503,1.31883 -6.83992,1.2459 -17.1849,-0.36917 z"
     id="path2987"
     inkscape:connector-curvature="0" />
</svg>
