<?xml version="1.0" encoding="UTF-8" standalone="no"?>
<!-- Created with Inkscape (http://www.inkscape.org/) -->

<svg
   xmlns:dc="http://purl.org/dc/elements/1.1/"
   xmlns:cc="http://creativecommons.org/ns#"
   xmlns:rdf="http://www.w3.org/1999/02/22-rdf-syntax-ns#"
   xmlns:svg="http://www.w3.org/2000/svg"
   xmlns="http://www.w3.org/2000/svg"
   xmlns:sodipodi="http://sodipodi.sourceforge.net/DTD/sodipodi-0.dtd"
   xmlns:inkscape="http://www.inkscape.org/namespaces/inkscape"
   id="svg2"
   version="1.1"
   inkscape:version="0.48.2 r9819"
   width="1188"
   height="924"
   sodipodi:docname="burrobook00mcca_0010f.png">
  <metadata
     id="metadata8">
    <rdf:RDF>
      <cc:Work
         rdf:about="">
        <dc:format>image/svg+xml</dc:format>
        <dc:type
           rdf:resource="http://purl.org/dc/dcmitype/StillImage" />
        <dc:title></dc:title>
      </cc:Work>
    </rdf:RDF>
  </metadata>
  <defs
     id="defs6" />
  <sodipodi:namedview
     pagecolor="#ffffff"
     bordercolor="#666666"
     borderopacity="1"
     objecttolerance="10"
     gridtolerance="10"
     guidetolerance="10"
     inkscape:pageopacity="0"
     inkscape:pageshadow="2"
     inkscape:window-width="1920"
     inkscape:window-height="1176"
     id="namedview4"
     showgrid="false"
     inkscape:zoom="0.72241212"
     inkscape:cx="594"
     inkscape:cy="462"
     inkscape:window-x="0"
     inkscape:window-y="24"
     inkscape:window-maximized="1"
     inkscape:current-layer="svg2" />
  <path
     style="fill:#000000"
     d="m 522.89549,907.21891 -9.3168,0.50017 -7,-1.35852 c -3.85,-0.74718 -8.1631,-1.8994 -9.5847,-2.5605 l -2.5847,-1.20198 -1.5735,-2.66479 c -0.8655,-1.46564 -1.8789,-4.29362 -2.2521,-6.28442 l -0.6786,-3.61963 1.9893,-3.88037 c 1.0941,-2.1342 2.9248,-5.00537 4.0683,-6.38037 1.1434,-1.375 2.4829,-2.95 2.9766,-3.5 0.4936,-0.55 2.2756,-2.17378 3.9599,-3.60839 l 3.0624,-2.60839 2.0638,-5.87176 2.0638,-5.87176 6.4947,-6.54494 6.4948,-6.54495 0,-1.14157 c 0,-0.62787 0.4744,-1.2997 1.0542,-1.49297 l 1.0542,-0.35139 0.9426,-4.19534 c 0.5185,-2.30744 1.9593,-6.57431 3.202,-9.48194 l 2.2592,-5.2866 -0.1742,-9.5 c -0.096,-5.225 -0.4152,-15.575 -0.7098,-23 l -0.5356,-13.5 -0.9357,-4.5 c -0.5147,-2.475 -1.7145,-7.42184 -2.6664,-10.99299 -0.9518,-3.57114 -2.811,-8.93608 -4.1316,-11.92208 l -2.401,-5.42909 -1.6519,-9.94666 -1.6519,-9.94666 -2.7458,5.36874 -2.7458,5.36874 0.5597,6.21047 0.5597,6.21046 -1.4465,2.28954 -1.4465,2.28953 0.1206,12.53786 0.1205,12.53786 2.8975,8.1549 2.8976,8.1549 -1.7164,3.59916 -1.7163,3.59915 0.6415,5.45809 0.6415,5.45808 -1.1777,0 -1.1778,0 -3.8592,4.05694 -3.8593,4.05693 -4.0734,-0.46797 -4.0735,-0.46798 -4.0272,2.91731 c -2.215,1.60452 -4.0273,3.10735 -4.0273,3.33961 0,0.23227 0.7072,1.12945 1.5715,1.99373 l 1.5714,1.57143 2.2543,0 2.2542,0 2.3089,2.4577 2.3089,2.45769 -0.6631,4.14672 -0.6631,4.14671 -4.1076,4.87141 -4.1077,4.87142 -2.1138,0.5891 c -1.1626,0.324 -4.6962,1.70782 -7.8525,3.07515 l -5.7386,2.48606 -11.7614,2.03608 -11.7614,2.03609 -7.8183,0.0571 -7.8184,0.0572 -2.6816,-2.02546 -2.6817,-2.02546 0.084,-5.86876 0.084,-5.86876 4.3863,-8 c 2.4124,-4.4 6.0124,-10.7 7.9998,-14 l 3.6136,-6 2.1659,-0.98713 c 1.1913,-0.54292 2.1659,-1.29372 2.1659,-1.66844 0,-0.37472 1.6875,-1.70226 3.75,-2.95009 2.0625,-1.24783 6.2969,-4.24404 9.4099,-6.65825 l 5.6598,-4.38947 2.0902,-4.85869 2.0901,-4.85869 0,-3.04439 0,-3.04438 1.4932,-3.77023 c 0.8213,-2.07363 1.904,-6.47024 2.4059,-9.77024 0.502,-3.3 1.6516,-10.5 2.5546,-16 l 1.6418,-10 -0.5446,-7.5 c -0.2996,-4.125 -0.8015,-12.45 -1.1153,-18.5 l -0.5706,-11 -2.0919,-4.39489 -2.0918,-4.39489 -0.364,-6.98922 -0.3641,-6.98922 -2.4632,-12.37946 -2.4632,-12.37945 0.4417,-6.23644 c 0.2429,-3.43003 1.0844,-8.65071 1.87,-11.6015 l 1.4282,-5.36507 -0.9274,-7.63493 c -0.5101,-4.19921 -1.6128,-12.52255 -2.4505,-18.49631 -0.8376,-5.97377 -1.9317,-11.93627 -2.4311,-13.25 l -0.9083,-2.38861 -1.0057,0 -1.0057,0 -0.6533,2.75 c -0.3594,1.5125 -1.3377,3.5375 -2.1741,4.5 -0.8363,0.9625 -1.2336,1.75 -0.8827,1.75 0.3508,0 -0.2544,1.58869 -1.345,3.53042 l -1.983,3.53041 0,6.54291 0,6.54291 -1.75,-0.33731 -1.75,-0.3373 0.3482,-6.87319 0.3481,-6.87319 1.8981,-3.11283 1.8982,-3.11283 0,-2.053 0,-2.05299 3.2,-4.35133 3.2,-4.35132 -0.033,-3.09568 c -0.018,-1.70262 -0.5916,-6.3144 -1.274,-10.24838 l -1.2406,-7.15271 -2.1761,-0.58364 c -1.1968,-0.321 -3.3586,-0.58979 -4.8039,-0.5973 l -2.6284,-0.0137 -3.59,-1.5 c -1.9745,-0.825 -4.0545,-1.5 -4.6221,-1.5 -0.5677,0 -0.9607,0.3375 -0.8734,0.75 0.087,0.4125 -0.2233,1.65 -0.6903,2.75 -0.4669,1.1 -3.0535,4.7 -5.7479,8 -2.6944,3.3 -5.7642,7.125 -6.8219,8.5 -1.0577,1.375 -3.4639,4.42079 -5.3472,6.76841 l -3.4241,4.26842 -2.9497,6.23158 -2.9496,6.23159 -4.0479,3.24399 -4.0479,3.24399 -1.5661,-0.60098 c -0.8614,-0.33054 -1.5662,-1.00283 -1.5662,-1.49399 0,-0.49115 0.374,-0.89301 0.8311,-0.89301 0.457,0 1.4695,-1.21143 2.25,-2.69208 0.7804,-1.48064 2.6805,-4.06814 4.2224,-5.75 1.5418,-1.68185 3.9322,-5.30792 5.3119,-8.05792 l 2.5086,-5 5.7711,-6 c 3.1741,-3.3 7.1346,-7.8 8.801,-10 1.6665,-2.2 3.7096,-5.35 4.5402,-7 0.8307,-1.65 1.7991,-3.93804 2.1519,-5.08452 l 0.6416,-2.08453 -3.4395,-1.85227 -3.4394,-1.85227 -1.0476,-2.29906 -1.0475,-2.29905 -2.2779,0.84227 -2.2779,0.84227 -1.25,-0.43975 -1.25,-0.43976 0,0.97205 0,0.97204 -3.2909,0.61738 c -1.81,0.33956 -6.4225,2.12679 -10.25,3.97163 l -6.9591,3.35425 -1.9049,2.13966 c -1.0478,1.17681 -2.2853,2.13966 -2.75,2.13966 l -0.8451,0 0,-1.57143 0,-1.57143 1.5475,-1.54742 1.5474,-1.54743 -1.5474,-1.70989 c -0.8511,-0.94043 -1.5475,-2.08901 -1.5475,-2.5524 0,-0.46339 -0.749,-1.67017 -1.6644,-2.68174 l -1.6645,-1.83922 2.2692,-2.41549 2.2693,-2.41549 -0.6638,-1.07403 -0.6638,-1.07403 -1.7185,0 c -0.9451,0 -2.7379,0.71406 -3.9839,1.58679 l -2.2655,1.5868 -1.4903,-1.23688 c -0.8197,-0.68029 -1.3629,-1.61934 -1.2071,-2.0868 0.1559,-0.46745 0.5517,-0.73741 0.8797,-0.59991 0.3279,0.1375 1.331,-0.35975 2.2289,-1.10501 l 1.6327,-1.355 -1.0142,-1.895 -1.0141,-1.89499 -1.9514,0 -1.9514,0 -1.3775,-3.29669 -1.3774,-3.29669 -3.0896,-2.59974 -3.0896,-2.59975 -6.0731,-0.70485 -6.073,-0.70485 -1.4583,-2.81988 -1.4582,-2.81987 -3.0151,-2.14694 -3.0151,-2.14693 0,-1.4319 0,-1.43191 -1.25,-0.0677 -1.25,-0.0677 2.5,-1.15791 c 1.375,-0.63685 3.625,-2.34358 5,-3.79273 l 2.5,-2.63482 6.2417,-2.2584 6.2417,-2.2584 2.0665,0.54042 2.0666,0.54041 -0.3082,-1.40064 c -0.1696,-0.77031 -2.1083,-3.99753 -4.3083,-7.17156 l -4,-5.77097 -7.25,-7.03011 c -3.9875,-3.86656 -7.25,-7.48348 -7.25,-8.03759 0,-0.55412 -2.1375,-3.04188 -4.75,-5.52836 -2.6125,-2.48649 -7,-6.27198 -9.75,-8.41221 -2.75,-2.14023 -6.013,-4.86558 -7.2511,-6.05635 -1.2382,-1.19076 -4.1632,-3.45843 -6.5,-5.03928 -2.3369,-1.58084 -7.1739,-5.0257 -10.7489,-7.65525 -3.575,-2.62954 -6.95,-5.12303 -7.5,-5.54108 -0.55,-0.41805 -2.8,-2.07084 -5,-3.67287 -2.2,-1.60202 -4.45,-3.38845 -5,-3.96984 -0.55,-0.58138 -3.2321,-2.85222 -5.9602,-5.04632 -2.7282,-2.19409 -6.2312,-5.23159 -7.7845,-6.75 -1.5533,-1.5184 -3.2548,-2.76074 -3.7811,-2.76074 -0.5263,0 -3.0982,-1.59815 -5.7155,-3.55144 -2.6173,-1.95329 -6.7538,-5.21267 -9.1922,-7.24305 -2.4385,-2.03039 -6.2635,-4.92297 -8.5,-6.42796 -2.2366,-1.50499 -5.8665,-3.92303 -8.0665,-5.37341 -2.2,-1.45039 -5.575,-4.04766 -7.5,-5.77172 -1.925,-1.72406 -4.5063,-3.69666 -5.7364,-4.38354 -1.23,-0.68688 -2.6974,-1.24888 -3.2609,-1.24888 -0.5634,0 -2.932,-0.86257 -5.2636,-1.91683 -2.3315,-1.05426 -6.4338,-2.85426 -9.1162,-4 l -4.8771,-2.08317 -3.316,0 -3.3159,0 -6.5422,5.55007 -6.5421,5.55007 -4.6386,6.50041 -4.6385,6.5004 -5.1263,2.94014 -5.1262,2.94014 -1.8121,0.009 c -0.9966,0.005 -4.0391,0.73779 -6.7609,1.62808 l -4.9489,1.61869 -2.489,2.95803 -2.48905,2.95803 0,1.93684 c 0,1.06527 -0.5625,2.94324 -1.25,4.17328 -0.6875,1.23004 -2.54021,3.66224 -4.11713,5.40489 -1.57693,1.74265 -3.37693,4.17732 -4,5.41039 l -1.13287,2.24193 -5.12326,3.58961 c -2.81779,1.97428 -7.99279,5.71457 -11.5,8.31175 -3.50721,2.59718 -8.01009,5.97218 -10.00641,7.5 l -3.62968,2.77786 -2.84564,4.5 c -1.5651,2.475 -4.32216,6.45077 -6.12678,8.83505 l -3.28114,4.33505 0.50071,0.81017 0.50071,0.81016 -1.3902,0.53347 -1.3902,0.53347 -1.70811,5.14302 -1.70811,5.14263 -1.645937,0.59339 c -0.90527,0.32636 -3.5484,2.31927 -5.87361,4.42868 l -4.22765,3.8353 -2.57201,0 -2.572,0 -3.07182,-1.5885 -3.07182,-1.5885 -3.45433,0.64803 -3.45432,0.64804 -1.41146,-1.17141 -1.41146,-1.17141 -1.55059,0.59502 -1.55059,0.59501 -0.56913,-1.48314 -0.56914,-1.48314 -1.21301,0 c -0.66716,0 -3.09401,-1.61007 -5.39301,-3.57792 l -4.18,-3.57793 0,-1.17605 0,-1.17605 -6.25,-6.19272 -6.25,-6.19273 -1.86858,-4.8033 c -1.02772,-2.64181 -3.11339,-6.60469 -4.63482,-8.8064 l -2.76625,-4.00309 -0.99601,-3.60728 -0.99602,-3.60727 0.78945,-7.38963 c 0.43419,-4.0643 1.46038,-9.63963 2.28041,-12.38963 l 1.49096,-5 0.63912,-8 0.63912,-8 2.53666,-9.5 2.53666,-9.5 5.02694,-10.5 c 2.76481,-5.775 6.97394,-15.9 9.35361,-22.5 2.37968,-6.6 5.47788,-15.6 6.8849,-20 l 2.55821,-8 0.0165,-3.5 c 0.009,-1.925 0.0384,-6.425 0.0651,-10 l 0.0486,-6.5 1.10876,-4 1.10876,-4 -0.23919,-2.77643 -0.2392,-2.77643 1.7621,-8.22357 1.76209,-8.22357 5.60878,-6 c 3.08482,-3.3 7.06195,-7.71444 8.83805,-9.80987 l 3.22929,-3.80987 -0.53833,-0.87103 -0.53833,-0.87103 1.01631,-0.62812 1.01632,-0.62811 0,-1.7665 0,-1.76649 5.43189,-7.42449 c 2.98754,-4.08347 7.372517,-9.44949 9.744387,-11.92449 l 4.3125,-4.5 1.03753,-3.5 1.03752,-3.5 3.14535,-2 3.14534,-2 1.6514,-4.23941 1.65141,-4.23941 3.92133,-3.35652 3.92134,-3.35652 0,-1.15407 c 0,-0.63474 0.3375,-1.15407 0.75,-1.15407 l 0.75,0 0.14216,-2.75 c 0.0782,-1.5125 0.349,-4.38687 0.60179,-6.38749 l 0.45963,-3.63748 2.21144,-3.10569 2.21145,-3.10569 -0.59341,-0.96016 -0.59341,-0.96015 1.78018,-2.27858 c 0.97909,-1.25322 3.49116,-3.97854 5.58238,-6.05628 l 3.80221,-3.7777 5.19779,-2.62154 c 2.85878,-1.44184 5.48013,-3.06233 5.82522,-3.60108 l 0.62743,-0.97955 5.37259,0.69408 c 2.9549,0.38174 7.6007,1.33423 10.324,2.11663 l 4.9515,1.42254 2.763,2.6471 2.7629,2.64709 -0.5223,0.84522 -0.5224,0.84522 1.4512,2.0719 1.4512,2.07191 0.6028,-1.32015 0.6027,-1.32015 -0.4703,8.5 c -0.2587,4.675 -0.5944,11.14629 -0.746,14.38064 l -0.2758,5.88063 5.2308,1.99598 5.2308,1.99598 -0.475,0.7686 -0.4751,0.7686 1.5761,0.60479 c 0.8668,0.33263 1.8767,0.59789 2.2442,0.58947 0.3675,-0.008 -0.01,-0.45153 -0.8318,-0.98469 l -1.5,-0.96937 1.1786,-0.0153 c 0.6482,-0.008 1.7839,0.54719 2.5238,1.23469 0.7399,0.6875 2.0095,1.4047 2.8215,1.59379 0.8119,0.18908 3.0511,0.56338 4.9761,0.83178 l 3.5,0.488 4.3176,2.11018 4.3175,2.11017 0.9621,1.79769 0.9621,1.79769 2.9207,1.51035 c 1.6064,0.83069 3.2192,1.51035 3.5839,1.51035 l 0.6632,0 -0.6748,-4.5 -0.6748,-4.5 2.4063,0 2.4063,0 1.655,1.82874 c 0.9102,1.00581 1.6549,2.35581 1.6549,3 l 0,1.17126 0.8865,0 0.8865,0 0.6628,4.42023 0.6629,4.42023 3.5247,-0.32759 c 1.9386,-0.18017 3.746,-0.54885 4.0164,-0.81929 0.2704,-0.27043 -0.035,-2.44962 -0.6799,-4.84264 -0.6444,-2.39302 -1.1118,-4.57594 -1.0388,-4.85094 0.073,-0.275 1.2561,-0.58634 2.629,-0.69186 l 2.4961,-0.19186 -0.5821,0.94186 -0.5821,0.94186 1.4916,0 1.4917,0 0.6185,1.94885 0.6185,1.94885 1.8855,0.59843 1.8855,0.59843 0.4257,1.70272 0.4257,1.70272 -0.2236,-2.25 -0.2237,-2.25 0.7447,0 c 0.4096,0 0.9919,-0.94528 1.294,-2.10062 l 0.5493,-2.10061 1.1821,0.73055 1.182,0.73055 -0.4633,4.82152 -0.4632,4.82152 1.0485,1.04855 c 0.5767,0.5767 1.4351,1.04854 1.9076,1.04854 l 0.859,0 -0.6181,-1 -0.618,-1 0.859,0 c 0.4725,0 1.3598,0.50079 1.9719,1.11287 l 1.1129,1.11287 1.1034,-0.68197 1.1035,-0.68197 -0.7411,-1.1809 c -0.4076,-0.64949 -0.8577,-2.8684 -1.0003,-4.9309 l -0.2593,-3.75002 0.784,0 c 0.4312,0 1.324,0.54 1.984,1.2 l 1.2,1.2 0,-1.11667 c 0,-0.61416 -0.5625,-1.31756 -1.25,-1.56309 l -1.25,-0.44643 0.7439,-0.79744 0.7439,-0.79744 1.9387,1.75449 1.9387,1.75449 -0.5445,1.41878 -0.5444,1.41878 1.2237,1.47453 1.2238,1.47453 -0.561,1.46181 -0.5609,1.4618 1.5645,-0.60034 1.5644,-0.60034 -0.6013,1.90127 -0.6013,1.90127 2.9859,0.20974 2.9859,0.20975 -0.015,-0.70975 c -0.01,-0.39036 -0.4326,-1.36965 -0.9428,-2.1762 l -0.9274,-1.46646 1.0122,-1.21962 1.0121,-1.21962 -1.0694,-1.99818 -1.0693,-1.99818 0,-2.91075 0,-2.91075 2.0903,-1.89172 2.0903,-1.89171 1.4301,1.95583 c 0.7866,1.0757 1.8829,3.63698 2.4361,5.69172 0.5533,2.05474 1.5566,4.33765 2.2296,5.07313 0.6729,0.73548 1.7057,2.19145 2.295,3.23548 0.5893,1.04404 1.5626,2.06196 2.1628,2.26205 l 1.0914,0.3638 -0.035,-6.92522 -0.035,-6.92522 1.0915,-1.87906 1.0915,-1.87906 0.03,1.12868 0.03,1.12868 3.0537,1.26489 3.0538,1.26489 0.5574,2.78717 0.5574,2.78717 1.8889,2.02745 1.8888,2.02744 0,2.54182 0,2.54181 1.5,0 1.5,0 0,-8.41352 0,-8.41351 2.75,0.73543 2.75,0.73543 0.1599,1.42809 c 0.088,0.78544 0.6851,4.65573 1.327,8.60063 l 1.1671,7.17255 1.3252,0.50855 1.3253,0.50855 0.5978,-0.59777 c 0.3288,-0.32877 0.5977,-1.78276 0.5977,-3.2311 l 0,-2.63333 -0.8831,-0.95 c -0.4857,-0.5225 -1.1978,-3.2 -1.5823,-5.95 l -0.6991,-5 1.1453,1.11299 1.1452,1.11299 0.089,3.13701 0.089,3.13701 0.6322,0 c 0.3478,0 1.4004,-1.30031 2.3392,-2.88958 l 1.7069,-2.88958 3.3846,-0.39514 3.3847,-0.39514 -0.511,4.03472 c -0.2811,2.2191 -0.7938,4.48472 -1.1394,5.03472 l -0.6284,1 0.6004,5.5 c 0.3303,3.025 0.6738,4.80983 0.7635,3.96628 0.09,-0.84355 1.6975,-3.91562 3.5731,-6.82682 1.8756,-2.9112 3.6647,-5.54765 3.9758,-5.85878 l 0.5657,-0.56568 1.4189,1.17759 1.4189,1.17758 1.2303,-0.28508 1.2303,-0.28509 0.4215,1.13967 0.4216,1.13966 -3.5466,2.1919 -3.5465,2.19189 -0.07,2.16844 -0.07,2.16844 -0.7707,-1.97205 -0.7707,-1.97204 -0.5029,2.63075 -0.5029,2.63075 1.3439,-0.51569 1.3438,-0.5157 0,5.13838 0,5.13837 1.4743,0.56574 1.4743,0.56574 1.3908,-1.39079 1.3908,-1.39079 1.8564,-7.20633 1.8564,-7.20634 1.2785,0 1.2785,0 0,0.92371 c 0,0.50804 -0.5151,3.15555 -1.1448,5.88334 l -1.1448,4.95964 1.366,4.62627 1.3659,4.62627 1.0289,-0.33673 1.0288,-0.33674 0.3222,-2.73194 0.3221,-2.73194 1.5558,-0.59703 1.5559,-0.59703 1.8498,2.40609 1.8498,2.40609 0.022,2.11514 0.022,2.11514 2,2.54259 c 1.1,1.39842 2,3.03411 2,3.63486 l 0,1.09227 1.468,0 1.4681,0 1.3345,-2.54694 1.3344,-2.54693 1.8525,2.04693 1.8524,2.04694 3.7617,0 3.7617,0 0.3992,1.19759 0.3992,1.19759 3.1714,-1.31364 3.1714,-1.31365 -0.5696,-0.92164 -0.5696,-0.92163 3.6349,-4.02333 3.6348,-4.02332 -0.3025,-2.18899 -0.3025,-2.18898 2.6943,0 2.6942,0 0.9504,-1 c 0.5227,-0.55 1.3933,-3.1375 1.9346,-5.75 0.5412,-2.6125 0.8751,-4.75 0.7418,-4.75 -0.1332,0 -2.557,-0.43898 -5.3861,-0.97551 l -5.1439,-0.97552 -2.7426,-1.92316 -2.7427,-1.92317 -4.9596,-0.61092 -4.9596,-0.61092 -1.032,-1.03204 -1.032,-1.03204 1.2128,-0.7496 1.2129,-0.7496 -2.282,-2.45876 -2.282,-2.45876 -4.1855,-2 -4.1854,-2 0.5034,-1.35045 0.5034,-1.35044 -2.6739,-2.14956 c -1.4707,-1.18225 -3.6114,-2.6961 -4.7572,-3.36411 -1.1458,-0.66802 -2.9369,-1.23052 -3.9803,-1.25 l -1.897,-0.0354 -4.2713,-3.5 -4.2712,-3.5 -1.5227,0 c -0.8375,0 -1.7816,-0.41891 -2.098,-0.9309 l -0.5754,-0.9309 0.9781,-0.6045 0.9781,-0.6045 -0.9415,-2.47629 -0.9414,-2.47628 1.141,-4.94324 1.141,-4.94324 1.3387,-0.51369 1.3386,-0.51369 1.5,0.5756 c 0.825,0.31659 1.5,0.95151 1.5,1.41095 l 0,0.83534 6.904,2.22356 6.9039,2.22356 4.8461,-3.13956 c 2.6653,-1.72677 6.3265,-4.54103 8.136,-6.25393 l 3.29,-3.11436 8.21,-1.48931 8.21,-1.48932 8.5,0.57628 c 4.675,0.31695 9.5125,0.85424 10.75,1.19398 l 2.25,0.6177 0,-3.49068 0,-3.49067 -2.5854,-4.62596 c -1.4221,-2.54427 -2.9705,-4.62595 -3.441,-4.62595 -0.4706,0 -1.0989,0.39375 -1.3963,0.875 l -0.5408,0.875 -2.625,0 -2.625,0 0.9555,-0.625 c 0.5256,-0.34375 0.9486,-1.32978 0.9401,-2.19117 l -0.015,-1.56617 -4.5833,0.70677 -4.5833,0.70676 -0.3457,-0.92754 c -0.1901,-0.51015 -1.4276,-2.21338 -2.75,-3.78495 -1.3224,-1.57158 -2.4044,-3.30834 -2.4044,-3.85946 0,-0.55113 1.5907,-2.39867 3.5348,-4.10565 l 3.5348,-3.10359 1.3938,0 c 0.7666,0 2.0763,-0.6825 2.9105,-1.51667 0.8341,-0.83416 3.5186,-3.04484 5.9656,-4.91261 2.4469,-1.86777 5.5634,-3.99777 6.9255,-4.73333 1.3621,-0.73557 4.0488,-2.73263 5.9704,-4.43792 l 3.4938,-3.10054 0.465,-3.16844 0.465,-3.16845 -1.3536,-1.12341 -1.3536,-1.1234 -10.4779,0.53476 -10.478,0.53477 -2.498,-1.96496 -2.4981,-1.96496 0,-1.427417 0,-1.42742 -1,0 -1,0 0,-2.391592 0,-2.391592 2.4994,-0.627306 2.4994,-0.627305 2.393,-3.731103 c 1.3162,-2.052106 3.359,-4.743602 4.5396,-5.981102 1.1806,-1.2375 2.6915,-2.253334 3.3576,-2.257409 l 1.211,-0.0074 6.75,-6.930779 6.75,-6.930778 0,-4.502796 0,-4.502796 -1.0163,-0.628115 -1.0163,-0.628116 0.4807,-0.777772 0.4807,-0.777772 4.4935,0.681938 4.4934,0.681938 1.2922,-0.83533 c 0.7107,-0.459432 2.9994,-1.307877 5.086,-1.885433 l 3.7939,-1.050102 0.9783,-2.57303 0.9783,-2.573031 -0.6796,-3.622437 -0.6796,-3.622437 -2.8992,-2.708296 -2.8993,-2.708297 -0.9143,-3.188243 -0.9144,-3.188243 0.53,-0.857628 0.5301,-0.857636 2.407,0 2.4071,0 3.4558,1.647958 3.4558,1.647957 5.1586,-1.019985 5.1586,-1.019986 0.5399,1.40677 c 0.2969,0.773724 2.6231,2.840976 5.1695,4.593894 l 4.6296,3.187124 4.4048,0.02813 4.4047,0.02813 0.2784,1.897442 c 0.1532,1.043593 0.982,2.601023 1.842,3.460955 l 1.5635,1.563515 5.9197,0.03904 5.9197,0.03904 2.9989,2.217269 2.9988,2.217269 6.7554,1.079183 c 3.7155,0.59355 7.0418,1.256176 7.3919,1.472501 0.35,0.216324 5.4422,0.701076 11.3161,1.077225 l 10.6797,0.683907 2.478,-1.623677 2.4781,-1.623661 2.0566,0 2.0566,0 1.1246,2.468124 1.1245,2.468124 5.104,1.731966 5.104,1.731966 7,0.170866 c 3.85,0.09398 9.25,0.484025 12,0.866776 2.75,0.382751 7.25,1.111346 10,1.619102 2.75,0.507755 7.475,1.206285 10.5,1.552289 3.025,0.346004 6.625,0.763919 8,0.928701 1.375,0.164782 3.5391,0.336162 4.8091,0.380844 l 2.309,0.08124 -0.5746,0.929687 -0.5746,0.929688 4.2656,-0.323372 c 2.346,-0.177854 6.7405,-0.653093 9.7655,-1.056087 l 5.5,-0.732715 2.295,-2.090136 2.2949,-2.090137 1.7051,1.048332 c 0.9378,0.576582 2.155,2.0428 2.705,3.258262 l 1,2.209931 2.5,0.577241 c 1.375,0.317483 3.5394,1.226666 4.8097,2.020407 l 2.3096,1.443166 5.6377,0.917553 c 3.1007,0.504654 7.0114,1.530812 8.6904,2.280352 l 3.0526,1.362798 8.5453,-0.637757 8.5453,-0.637757 2.2047,-2.204728 2.2047,-2.204728 1.4286,0 c 0.7857,0 2.1707,0.742084 3.0777,1.649076 l 1.649,1.649076 -0.4205,1.608194 -0.4206,1.608194 6.5929,-0.235584 6.5929,-0.235585 9.2393,1.478314 9.2392,1.478315 10.4434,0 10.4434,0 0.6054,-1.907619 0.6055,-1.907619 1.4619,-0.560996 1.4619,-0.560996 1.3646,0.523627 1.3645,0.523627 1.1604,2.546746 1.1604,2.546747 1.4623,-1.213634 1.4624,-1.213634 1.3598,0.521817 1.3598,0.521818 6.5433,-1.371581 6.5433,-1.371582 3.353,0.96164 c 1.8442,0.528901 3.6935,0.961639 4.1096,0.961639 l 0.7566,0 0,-2.45031 0,-2.45031 1.25,-0.79969 c 0.6875,-0.439829 1.925,-1.671444 2.75,-2.736921 l 1.5,-1.937231 -1.5357,0.573617 -1.5357,0.573617 0,-1.773834 0,-1.773833 3.2857,2.506136 c 1.8072,1.378375 3.2857,2.732827 3.2857,3.009893 0,0.277065 -0.675,-0.05644 -1.5,-0.741134 l -1.5,-1.244889 0,1.122444 c 0,0.617345 0.3375,1.161113 0.75,1.208374 0.4125,0.04726 2.325,0.267607 4.25,0.489657 1.925,0.222051 6.4171,0.423149 9.9823,0.446884 l 6.4823,0.04315 6.0177,1.556589 c 3.3098,0.856124 6.4677,1.904883 7.0177,2.330576 0.55,0.425693 4.2443,1.55447 8.2095,2.508393 l 7.2095,1.734405 2.7378,2.537283 2.7378,2.537283 3.3446,0.923497 c 1.8396,0.507924 4.7883,1.91909 6.5528,3.135925 l 3.208,2.212427 0.1371,1.718236 0.1371,1.718237 -0.8871,-0.548255 -0.8871,-0.548255 0.014,2.309017 c 0.01,1.269959 0.2714,3.269238 0.5863,4.442842 l 0.5726,2.133827 2.1637,-0.52148 c 1.1901,-0.286819 3.5963,-1.584541 5.3471,-2.883829 1.7508,-1.299284 3.6326,-2.362338 4.1818,-2.362338 0.5491,0 3.6166,-2.596504 6.8167,-5.77001 l 5.8182,-5.77001 0.1092,-3.28253 0.1091,-3.282531 1.3336,-2.49176 1.3335,-2.49176 1.9608,0.294301 1.9607,0.2943 -0.2094,8.504656 -0.2093,8.504656 3.5541,4.152197 3.5541,4.152197 1.9897,-0.520307 1.9896,-0.520306 0.6387,1.664334 0.6387,1.664335 -2.1251,2.262065 -2.1251,2.26207 1.9693,2.11387 c 1.0832,1.16263 3.445,3.21124 5.2486,4.55248 l 3.2792,2.43861 8.5,2.24756 8.5,2.24757 5.9986,3.11768 5.9985,3.11769 6.5015,0.0193 6.5014,0.0193 0,1.5 0,1.5 1.2711,0.81146 1.271,0.81146 -0.5843,0.94536 -0.5842,0.94537 1.932,2.74317 c 1.0626,1.50875 2.2564,3.78726 2.6529,5.06335 l 0.7209,2.32018 -1.9658,0.51405 -1.9658,0.51406 -1.2928,2.41577 -1.2929,2.41577 -4.581,0.0318 -4.5811,0.0318 -1.75,1.32844 -1.75,1.32844 0,2.13975 0,2.13976 0.75,0.0314 c 0.4125,0.0173 1.4986,1.06285 2.4136,2.32348 l 1.6635,2.29205 -1.5988,3.30113 -1.5988,3.30113 1.461,2.60286 1.4609,2.60285 4.9743,3.7675 4.9743,3.7675 2.6276,0.005 2.6276,0.005 1.2448,1.5 c 0.6847,0.825 1.7888,1.5 2.4535,1.5 l 1.2086,0 1.3728,2.56504 1.3727,2.56503 -1.4538,0.98678 -1.4538,0.98677 -6,-0.76979 -6,-0.7698 -18,-0.0556 -18,-0.0556 -2.2294,-1.25065 -2.2295,-1.25064 -2.3313,0.5851 -2.3312,0.58511 -2.5275,2.68909 c -1.3901,1.47901 -3.0503,3.67202 -3.6893,4.87336 l -1.1618,2.18447 0,2.54669 0,2.54669 2.75,0.60172 c 1.5125,0.33095 4.0547,1.01453 5.6493,1.51906 1.5945,0.50452 4.3703,0.91732 6.1684,0.91732 l 3.2692,0 2.0816,3.36803 c 1.1448,1.85242 2.0815,4.09738 2.0815,4.9888 l 0,1.62077 -2.25,-0.003 c -1.2375,-0.002 -6.075,0.45493 -10.75,1.01472 -4.675,0.55979 -12.2552,1.48909 -16.8449,2.06512 l -8.345,1.04732 -1.655,0.93301 c -0.9103,0.51315 -3.2294,1.3062 -5.1535,1.76233 l -3.4985,0.82933 -0.3006,1.561 -0.3006,1.56101 1.4277,0.54788 1.4278,0.54788 3.7211,-0.83926 3.7212,-0.83925 4.3998,3.35843 4.3997,3.35843 -0.9557,0.5907 c -0.5257,0.32489 -4.7683,0.69407 -9.4279,0.8204 l -8.4721,0.22969 -0.7112,0.71115 -0.7112,0.71116 2.7616,3.62061 2.7616,3.62061 4.082,-0.38928 4.082,-0.38928 1.764,1.76407 1.7641,1.76407 -3.5153,1.6681 -3.5152,1.6681 0.3029,1.61372 0.3029,1.61372 2.2034,0.96957 2.2034,0.96957 0.2908,2.02106 0.2907,2.02107 2.8093,1.34232 2.8092,1.34232 1.1189,2.45569 1.1189,2.45568 1.5719,-0.69132 c 0.8645,-0.38022 3.8218,-1.50792 6.5718,-2.50599 2.75,-0.99807 5.9,-1.82985 7,-1.84838 1.1,-0.0185 6.5,-1.13833 12,-2.48842 l 10,-2.45472 13,-0.0628 c 7.15,-0.0345 17.1896,-0.038 22.3102,-0.008 l 9.3102,0.0551 5.1898,1.83363 c 2.8544,1.0085 7.0302,2.33852 9.2796,2.95559 l 4.0897,1.12195 6.8634,4.50787 c 3.77484,2.47933 6.43444,4.51476 5.91024,4.52318 l -0.9531,0.0153 1.3734,0.86999 1.3735,0.87 3.3969,-0.93793 3.3968,-0.93792 5.7297,1.47094 5.7297,1.47094 14.5,6.72605 c 7.975,3.69932 15.8568,7.75887 17.5151,9.02123 1.6584,1.26235 9.3084,9.02935 17,17.26 l 13.9849,14.96481 3.7796,5.95565 3.7797,5.95564 0.9203,5.65446 c 0.5061,3.10995 1.1609,6.04388 1.4551,6.51984 0.2941,0.47596 1.2074,5.65669 2.0294,11.51275 l 1.4947,10.64737 1.1512,2.15111 1.1513,2.15112 1.9013,13.07166 c 1.0457,7.18941 2.131,16.67069 2.4118,21.0695 0.2808,4.39882 1.145,11.14882 1.9204,15 l 1.4097,7.00216 0.5429,10.89584 0.5428,10.89584 1.5286,8.15787 1.5287,8.15786 -1.004,6.94629 c -0.5521,3.82047 -1.0128,9.03022 -1.0237,11.57724 l -0.02,4.63094 2.4061,6.36906 c 1.3233,3.50298 3.5197,8.61906 4.8808,11.36906 1.3612,2.75 2.9885,6.61243 3.6164,8.58317 l 1.1417,3.58317 3.0874,3.15788 3.0874,3.15788 3.8479,1.03613 c 2.1163,0.56986 4.0812,1.41375 4.3665,1.8753 l 0.5186,0.83918 -1.9047,1.72378 -1.9048,1.72378 -2.0716,-0.65752 -2.0717,-0.65753 0,1.13313 c 0,0.62322 0.4963,2.06047 1.1029,3.19388 l 1.1029,2.06076 -1.0852,2.38156 -1.0851,2.38156 2.0613,5.24195 c 1.1337,2.88307 2.7953,6.05691 3.6925,7.05299 l 1.6312,1.81105 -1.2441,0.7689 -1.2441,0.7689 0.6408,1.67005 0.6409,1.67005 -1.607,0 -1.607,0 -0.1107,1.75 c -0.061,0.9625 -0.035,2.875 0.056,4.25 0.092,1.375 0.8226,5.14674 1.6238,8.38165 l 1.4566,5.88165 -2.5131,5.48919 -2.513,5.4892 0,2.41127 c 0,1.3262 0.6897,4.08432 1.5326,6.12916 l 1.5326,3.71788 1.5675,1.18347 1.5676,1.18346 -0.6954,1.12508 -0.6953,1.12508 -2.6548,-0.55452 -2.6548,-0.55452 -2.6284,3.74597 -2.6284,3.74598 1.5913,2.38692 c 0.8752,1.31281 2.3955,4.67054 3.3784,7.46162 0.9829,2.79108 1.7871,6.10446 1.7871,7.36307 l 0,2.28839 -1.2,0 -1.2,0 1.2,1.2 1.2,1.2 0,2.06481 0,2.06481 -2.0605,3.84448 -2.0605,3.84449 -0.039,9.6407 -0.039,9.64071 -1.5289,3.69816 -1.5288,3.69817 1.1906,7.30183 c 0.6548,4.01601 1.2077,7.97684 1.2286,8.80184 0.021,0.825 0.4997,3.3 1.064,5.5 l 1.0258,4 0.2533,12 c 0.1393,6.6 0.7261,20.1 1.3042,30 0.578,9.9 1.7036,24.975 2.5013,33.5 0.7977,8.525 1.4503,16.4 1.4502,17.5 -10e-5,1.1 0.5015,4.41292 1.1148,7.36204 l 1.1149,5.36204 -1.6011,5.50776 -1.6012,5.50775 -2.9494,3.08628 -2.9494,3.08628 -2.0289,-1.26706 -2.0289,-1.26706 -2.9159,0.64044 -2.9159,0.64044 -0.1184,1.17055 c -0.065,0.64379 -0.049,1.55541 0.035,2.0258 0.084,0.47039 -0.3851,1.5042 -1.0434,2.29735 l -1.1968,1.44209 4.045,4.20265 c 2.2247,2.31146 4.5511,5.19231 5.1697,6.4019 l 1.1248,2.19925 -1.6932,3.55075 -1.6932,3.55075 -0.9205,0 c -0.5062,0 -2.287,1.14993 -3.9573,2.55539 -1.6703,1.40547 -5.1103,3.60456 -7.6444,4.88687 l -4.6074,2.33148 -7.1916,1.11313 -7.1915,1.11313 -9.0237,0 -9.0236,0 -3.5348,-3.10359 -3.5348,-3.10359 0,-2.44607 0,-2.44607 1.7056,-3.20034 c 0.9381,-1.76019 1.6131,-3.53784 1.5,-3.95034 -0.1131,-0.4125 0.1972,-0.75 0.6895,-0.75 0.4923,0 2.992,-1.98073 5.5549,-4.40163 l 4.6599,-4.40162 -0.8689,-6.48515 -0.8689,-6.48515 0.7707,-2.08331 0.7706,-2.08331 2.7933,-0.62286 c 1.5363,-0.34257 3.5002,-0.81079 4.3643,-1.04048 0.864,-0.22969 2.9495,-1.76546 4.6345,-3.41281 l 3.0635,-2.9952 0.4756,-2.48789 0.4756,-2.48789 -1.3601,-1.12879 -1.3601,-1.1288 0,-9.62755 0,-9.62756 1.9901,-3.26415 1.9902,-3.26416 0.018,-23.23584 c 0.01,-12.77972 0.054,-28.86085 0.097,-35.73585 l 0.079,-12.5 -1.6751,-6.5 c -0.9213,-3.575 -2.2998,-7.8919 -3.0634,-9.59311 l -1.3883,-3.09312 -0.4754,-5.75281 -0.4754,-5.75281 -1.6816,-2.65408 c -0.9249,-1.45974 -2.8165,-3.87482 -4.2036,-5.36685 -1.3871,-1.49202 -3.2764,-4.41702 -4.1986,-6.5 l -1.6767,-3.78722 -0.6989,5.90589 -0.699,5.90589 -1.5276,3.21917 -1.5276,3.21916 2.5546,3.76449 c 1.4051,2.07047 2.5547,4.40628 2.5547,5.19069 0,0.78441 -0.4633,2.29195 -1.0296,3.3501 l -1.0297,1.92391 -3.0846,1.59511 -3.0846,1.59512 0.6405,4.00567 0.6406,4.00567 -3.4005,7.15956 c -1.8703,3.93776 -4.3442,10.08457 -5.4977,13.65957 l -2.0972,6.5 -4.5922,27 c -2.5257,14.85 -5.2185,29.25 -5.984,32 -0.7655,2.75 -2.4052,11.525 -3.6437,19.5 l -2.2518,14.5 -0.011,6 -0.011,6 1.3154,4.63389 1.3154,4.63388 2.4026,1.09468 2.4025,1.09467 0,1.62709 0,1.62708 -2.5,2.97108 c -1.375,1.63409 -2.5,3.58226 -2.5,4.32926 0,0.74699 0.4693,2.59264 1.043,4.10143 l 1.043,2.74326 -2.793,2.33883 c -1.5362,1.28636 -4.143,3.05657 -5.793,3.93379 -1.65,0.87723 -4.4625,2.98286 -6.25,4.67918 l -3.25,3.08421 0,2.63543 c 0,1.44948 -0.9149,5.74871 -2.0331,9.55383 -1.1182,3.80513 -3.0307,8.93157 -4.25,11.39209 l -2.2169,4.47368 -4.086,2.8505 -4.086,2.85049 -11.2445,1.01858 -11.24454,1.01857 -8.2961,-2.58658 -8.2961,-2.58659 -2.6559,-3.48215 -2.656,-3.48215 2.0321,-3.98329 2.0321,-3.98329 4.1015,-3.79073 c 2.2558,-2.08489 4.6738,-4.91572 5.3733,-6.29072 l 1.2717,-2.5 -0.3518,-3 c -0.1935,-1.65 -0.6373,-4.4625 -0.9863,-6.25 l -0.6259,-3.24973 0.9922,0 0.9922,0 1.2325,-2.97547 1.2325,-2.97547 3.4322,-1.2411 3.4321,-1.2411 4.20674,-5.48554 c 2.3136,-3.01705 4.6079,-6.14361 5.0983,-6.9479 0.4905,-0.8043 1.0384,-3.30084 1.2176,-5.54789 0.1791,-2.24704 0.3685,-6.97033 0.4207,-10.4962 l 0.095,-6.41066 2.771,-4.08934 c 1.524,-2.24913 3.7261,-5.88933 4.8935,-8.08933 l 2.1225,-4 2.0211,-10.5 c 1.1116,-5.775 4.6986,-25.575 7.9711,-44 3.2725,-18.425 6.3692,-36.11528 6.8817,-39.31173 l 0.9317,-5.81174 -2.4897,-6.18826 -2.4897,-6.18827 -2.8546,-3.26834 -2.8547,-3.26834 -0.6438,-2.56526 -0.6439,-2.56526 0.5811,-4.90662 0.5812,-4.90663 -2.8187,-5.25977 c -1.5502,-2.89288 -4.9575,-9.30978 -7.5717,-14.25978 -2.6143,-4.95 -7.333,-12.6 -10.4862,-17 l -5.73294,-8 -2.2832,-7 c -1.2557,-3.85 -2.9592,-8.35 -3.7856,-10 -0.8264,-1.65 -2.7403,-4.42143 -4.2531,-6.15874 l -2.7507,-3.15874 -1.6793,-5.34126 c -0.9237,-2.93769 -2.6338,-7.14126 -3.8003,-9.34126 -1.1665,-2.2 -5.055,-8.275 -8.6411,-13.5 l -6.5202,-9.5 -8.9174,-10 c -4.9046,-5.5 -13.4076,-14.6125 -18.8956,-20.25 -5.488,-5.6375 -10.3909,-10.25 -10.8952,-10.25 -0.5043,0 -2.9482,-1.87234 -5.4308,-4.16076 l -4.5139,-4.16077 -4.4151,0.167 c -2.4283,0.0919 -5.4495,0.56718 -6.7138,1.0563 -1.2642,0.48912 -3.5362,1.96314 -5.0487,3.2756 -1.5125,1.31247 -2.75,2.67761 -2.75,3.03366 0,0.35604 -2.7224,3.26671 -6.0498,6.46816 -3.3274,3.20145 -7.3672,6.49581 -8.9773,7.32081 l -2.9274,1.5 -0.031,1 -0.031,1 -2.6916,1.25 c -1.4804,0.6875 -3.2769,1.25 -3.9922,1.25 l -1.3007,0 0,0.87981 0,0.87981 -5.9789,0.43248 -5.979,0.43248 -0.7281,0.72813 -0.7281,0.72814 1.598,2.70957 1.598,2.70958 6.8591,3.69631 6.859,3.69631 2.8121,0.0537 c 1.5467,0.0295 5.082,0.79613 7.8563,1.70356 l 5.0442,1.64987 4.4659,4.10013 c 2.4562,2.25507 6.7753,6.25571 9.598,8.89031 l 5.1322,4.79018 -2.0463,0.53514 -2.0464,0.53515 -0.9096,3.67467 -0.9096,3.67468 -2.0435,-0.27816 -2.0436,-0.27816 -2.1982,2.52816 c -1.209,1.39048 -2.578,2.52815 -3.0422,2.52815 -0.4641,0 -2.7666,-2.05136 -5.1165,-4.55858 -2.35,-2.50722 -5.9835,-5.69075 -8.0745,-7.07451 l -3.8018,-2.51592 -4.3437,0.65138 -4.3437,0.65138 -4.3121,4.02225 c -2.3716,2.21224 -4.1691,4.09014 -3.9945,4.17312 0.1747,0.083 1.8165,0.93838 3.6486,1.90088 1.8321,0.9625 3.9082,1.75 4.6136,1.75 l 1.2826,0 2.584,2.58401 2.584,2.584 1.8834,-0.59775 1.8833,-0.59775 4.1604,3.01374 4.1603,3.01375 1.8144,0 1.8144,0 2.9612,2.25 c 1.6287,1.2375 4.1515,3.375 5.6063,4.75 1.4547,1.375 3.805,3.4 5.2227,4.5 l 2.5777,2 0.01,2.28701 0.01,2.28701 -4.5924,-0.55126 c -2.5258,-0.3032 -5.4212,-0.99486 -6.4343,-1.53702 -1.0129,-0.54216 -2.5879,-0.98574 -3.4998,-0.98574 l -1.658,0 -2.3734,-1.86696 -2.3735,-1.86695 -6.1684,-0.69788 -6.1684,-0.69787 -2.2087,-1.44717 -2.2086,-1.44716 -3.5759,2.42666 -3.5759,2.42667 -0.5813,-0.58134 -0.5814,-0.58133 0.013,0.91666 c 0.01,0.50417 1.8284,4.47289 4.0476,8.81938 2.2192,4.3465 4.9308,9.0418 6.026,10.43402 1.0951,1.39221 3.4844,3.54601 5.3095,4.78622 l 3.3184,2.25492 1.7894,3.7709 1.7894,3.77089 0.4836,4.29017 0.4835,4.29017 -6.4357,0 -6.4358,0 -3.3397,-2.46397 -3.3398,-2.46398 -4.1289,-6.28602 c -2.2709,-3.45732 -5.8099,-9.29199 -7.8643,-12.96594 l -3.7353,-6.6799 -7.7403,-2.95632 -7.7403,-2.95633 -0.9871,-2.11377 -0.9871,-2.11377 -2.0129,-0.0222 -2.0129,-0.0222 -2.5,-1.95553 -2.5,-1.95553 -3,0.0234 -3,0.0235 -2.2679,4.70432 -2.268,4.70432 3.8384,3.5 c 2.1112,1.925 5.3367,5.44993 7.1679,7.83317 l 3.3294,4.33317 3.2722,-0.61385 3.2721,-0.61386 0.5297,0.85714 0.5298,0.85715 -0.5115,1.95586 -0.5115,1.95585 -2.9757,1.3172 -2.9758,1.31719 -2.5506,-0.64018 -2.5507,-0.64017 -2.1639,-2.2769 c -1.1901,-1.2523 -3.5139,-3.83493 -5.1639,-5.73918 -1.65,-1.90426 -3.7747,-4.05587 -4.7216,-4.78136 -0.9469,-0.72548 -3.4094,-1.69971 -5.4722,-2.16495 l -3.7506,-0.84589 -7.0088,2.9448 -7.0089,2.94481 -2.3088,0 -2.3087,0 -3.782,-1.92942 -3.782,-1.92942 0.072,2.07821 0.072,2.07821 -1.1339,0.39585 -1.134,0.39586 -1.6803,-1.68036 -1.6804,-1.68036 -0.897,0.89704 -0.897,0.89703 2.3924,13.48868 c 1.3158,7.41877 3.0274,17.08868 3.8035,21.48868 0.7761,4.4 1.3696,9.76142 1.3189,11.91426 l -0.092,3.91427 -1.3412,0.44946 -1.3411,0.44946 0.2847,-3.36372 c 0.1565,-1.85005 -0.052,-5.16373 -0.4639,-7.36373 -0.4117,-2.2 -1.6037,-7.375 -2.6488,-11.5 -1.0451,-4.125 -2.6478,-12 -3.5615,-17.5 -0.9137,-5.5 -1.8821,-12.025 -2.152,-14.5 l -0.4908,-4.5 -1.0728,-1.31952 -1.0729,-1.31953 -1.7037,0.44555 -1.7038,0.44555 -1.8204,-2.12603 c -1.0012,-1.16931 -1.7524,-2.35102 -1.6694,-2.62602 0.083,-0.275 -0.8467,-1.02272 -2.066,-1.6616 -1.2194,-0.63888 -3.8439,-1.46679 -5.8322,-1.83981 l -3.6151,-0.6782 -0.6059,0.98024 -0.6058,0.98024 -10.9985,0.0597 -10.9986,0.0597 -2.6537,2.46072 -2.6538,2.46073 0.5648,4.21086 0.5648,4.21086 2.5788,4.97058 2.5788,4.97059 0.073,6.15772 c 0.04,3.38674 0.4127,8.54538 0.8279,11.46363 l 0.7549,5.30593 -2.7264,2.29416 -2.7265,2.29416 -8.6271,2.74705 -8.6271,2.74705 -1.462,-0.561 -1.4619,-0.561 0.3523,2.71386 c 0.1937,1.49263 0.9185,4.85902 1.6106,7.48087 0.6921,2.62185 1.653,5.0109 2.1353,5.30902 l 0.877,0.54201 0,2.334 0,2.33399 -1.5227,0.58431 -1.5226,0.58431 -1.9774,-1.97732 -1.9773,-1.97737 0,-2 0,-2 -0.8786,0 -0.8787,0 -1.04,-2.75 c -0.5721,-1.5125 -1.8024,-4.86031 -2.7341,-7.43958 l -1.6941,-4.68957 -3.296,-1.56405 -3.296,-1.56405 -1.4622,0.5611 -1.4622,0.56109 -0.5937,-1.54728 -0.5938,-1.54727 2.6157,-0.65649 2.6156,-0.65648 1.8355,1.14629 c 1.0095,0.63046 2.1177,1.14629 2.4626,1.14629 l 0.627,0 -0.6495,-3.25 c -0.3572,-1.7875 -0.8665,-5.275 -1.1318,-7.75 -0.2652,-2.475 -0.9186,-5.78919 -1.452,-7.36487 l -0.9697,-2.86487 0.5822,-0.94196 0.5821,-0.94197 -0.6353,-2.53121 -0.6353,-2.53121 -2.4588,1.6111 -2.4589,1.6111 0,-1.02306 c 0,-0.56268 0.4359,-1.02305 0.9687,-1.02305 l 0.9686,0 -0.6177,-1.75 c -0.3396,-0.9625 -1.4632,-2.69254 -2.4968,-3.84454 l -1.8793,-2.09455 0.6582,-1.71515 0.6581,-1.71516 -2.8169,-2.9403 -2.817,-2.9403 0.9371,-0.0153 c 0.5154,-0.008 1.5369,-0.39555 2.27,-0.86028 l 1.3329,-0.84496 -3.6297,-7.20767 -3.6297,-7.20767 -3.2032,-1.34692 -3.2033,-1.34692 -1.0681,0.88639 -1.0682,0.88639 -1.9876,-1.39221 -1.9877,-1.39221 -6.4442,-1.15038 c -3.5443,-0.63271 -8.3951,-1.51477 -10.7796,-1.96014 l -4.3355,-0.80976 0.6854,2.13082 c 0.3769,1.17196 1.536,5.33586 2.5757,9.25312 1.0396,3.91726 3.2447,10.30509 4.9001,14.19519 l 3.0097,7.07289 0,2.63815 0,2.63815 -1.076,-0.35869 -1.0761,-0.35869 -3.7677,-9.98512 c -2.0722,-5.49181 -4.0855,-11.7804 -4.474,-13.97464 -0.3885,-2.19424 -1.1565,-5.41517 -1.7068,-7.15762 l -1.0004,-3.16809 -2.2825,-1.49555 c -1.2554,-0.82255 -3.6456,-1.71038 -5.3116,-1.97295 -1.666,-0.26256 -3.9586,-0.97481 -5.0946,-1.58277 l -2.0654,-1.10538 -1.8224,0.68444 c -1.0024,0.37645 -2.3502,1.38733 -2.9952,2.24642 l -1.1727,1.56197 0.5964,3 0.5963,3 -4.7526,-4.75 -4.7525,-4.75 -1.3714,0 -1.3714,0 -0.918,-1.6404 -0.918,-1.6404 -1.1317,0.69942 -1.1317,0.69941 0,1.94099 0,1.94098 -2.0052,2.00522 -2.0052,2.00521 1.2552,2.0253 1.2552,2.0253 -1.3898,0.86492 -1.3898,0.86492 2.1349,4.35456 2.135,4.35457 3.8957,4.17525 3.8957,4.17524 5.3592,2.23391 5.3591,2.2339 5.1475,5.14839 5.1475,5.14839 -0.9531,1.70307 -0.9531,1.70308 -2.5887,-3.07645 -2.5886,-3.07645 -6.0042,-3.90143 -6.0042,-3.90143 -0.9386,0.58013 -0.9387,0.58014 1.0051,1.00511 1.0051,1.00512 -0.5158,3.1784 -0.5158,3.17841 1.3478,1.1082 c 0.7413,0.60951 3.8228,2.46291 6.8478,4.11865 3.025,1.65575 5.95,3.0494 6.5,3.097 0.55,0.0476 2.3875,0.34684 4.0834,0.66498 l 3.0833,0.57844 0,1.50992 0,1.50993 -3.3298,-0.38874 -3.3298,-0.38874 -0.5416,1.70641 -0.5416,1.70641 -1.4348,0.5506 -1.4349,0.55061 -2.7856,-2.34389 c -1.532,-1.28914 -4.3567,-3.00533 -6.277,-3.81375 l -3.4916,-1.46987 -5.1469,-4.64447 c -2.8308,-2.55447 -5.5736,-4.64448 -6.095,-4.64448 -0.5214,0 -1.7626,0.9 -2.7581,2 l -1.8099,2 -1.8248,0 c -1.0036,0 -3.6526,-0.73135 -5.8866,-1.62522 l -4.0618,-1.62522 0.3657,-1.0972 0.3657,-1.09719 2.1591,-0.52759 2.1591,-0.52758 -2.3164,-5 c -1.2741,-2.75 -2.632,-6.35 -3.0177,-8 -0.3857,-1.65 -1.1903,-4.2375 -1.7881,-5.75 l -1.0869,-2.75 -1.5499,0 -1.55,0 -2.0006,1.75 -2.0006,1.75 0.743,-1.26955 0.7429,-1.26955 -1.1434,-3.46481 -1.1435,-3.46482 -2.6321,-2.07035 -2.632,-2.07036 -1.6816,2.22936 -1.6816,2.22935 -1.614,0.23688 -1.614,0.23688 0,-0.91151 c 0,-0.50134 0.4019,-0.91152 0.8931,-0.91152 0.4911,0 1.1448,-0.65623 1.4526,-1.45828 l 0.5596,-1.45828 -6.6699,-3.54172 c -3.6685,-1.94795 -7.0221,-3.54172 -7.4526,-3.54172 l -0.7828,0 0.01,2.75 0.01,2.75 3.0111,8.77156 c 1.656,4.82436 3.7055,12.02436 4.5544,16 l 1.5434,7.22844 0.3198,9 0.3198,9 1.505,4.69793 1.5049,4.69793 2.2119,2.80207 2.2119,2.80207 -0.2788,18 c -0.1533,9.9 -0.03,21.6 0.2736,26 0.3037,4.4 0.8963,10.40601 1.3169,13.34669 l 0.7647,5.34669 -1.3364,5.57072 -1.3364,5.57072 2.6998,7.62224 c 1.485,4.19222 2.6999,8.52689 2.6999,9.63258 0,1.1057 0.3888,2.43786 0.8641,2.96036 0.4752,0.5225 1.4393,3.2 2.1424,5.95 0.703,2.75 1.685,9.275 2.1821,14.5 0.4972,5.225 1.0846,11.51718 1.3055,13.98261 l 0.4016,4.48261 1.0522,0.35073 1.0521,0.35072 0,2.25 c 0,1.2375 0.3131,2.56302 0.6956,2.94561 0.3826,0.38259 0.8107,2.82009 0.9514,5.41667 0.1407,2.59658 0.4983,7.42105 0.7948,10.72105 0.2965,3.3 0.8234,7.125 1.1709,8.5 0.3475,1.375 0.787,4.03774 0.9767,5.91719 l 0.345,3.4172 1.0328,1.0328 c 0.5681,0.56805 1.0328,1.85693 1.0328,2.86419 l 0,1.83139 -1.5,0.5756 -1.5,0.57561 0,2.42855 0,2.42854 -4.3972,1.88486 -4.3972,1.88485 -3.1028,4.50979 -3.1028,4.50978 0,4.36983 0,4.36982 1.2,1.2 c 0.66,0.66 0.8887,1.2 0.5081,1.2 l -0.6919,0 1.5321,3.82913 1.5321,3.82914 -1.0002,2.63093 -1.0003,2.63093 -4.0399,4.03994 -4.0395,4.03993 -1.25,-0.25 -1.25,-0.25 -0.094,1.5 c -0.052,0.825 -0.5763,2.66723 -1.1658,4.09383 l -1.0718,2.59384 -2.8342,1.09244 c -1.5587,0.60084 -5.1665,1.55992 -8.0173,2.13129 -2.8508,0.57136 -9.3758,1.26392 -14.5,1.53901 z m 175.953,-241.45041 3.5249,0 6.1027,-2.16608 c 3.3564,-1.19135 6.9273,-2.86973 7.9352,-3.72973 l 1.8326,-1.56364 -0.5351,-3.02028 c -0.2943,-1.66115 -0.8326,-4.48277 -1.1961,-6.27027 l -0.661,-3.25 -1.0115,0 -1.0115,0 0.61,3.04971 0.6099,3.04971 -0.8696,-0.53747 c -0.4783,-0.29561 -1.1649,-2.00548 -1.5257,-3.79971 -0.3609,-1.79423 -0.7342,-4.0167 -0.8296,-4.93882 -0.095,-0.92212 -0.4316,-1.51708 -0.7471,-1.32212 -0.3154,0.19495 -1.1911,-1.04095 -1.9461,-2.74645 l -1.3726,-3.10091 1.096,-4.07697 1.0959,-4.07697 -0.9355,-0.95 -0.9356,-0.95 0,-2.24258 0,-2.24258 -2.1694,0.41778 -2.1694,0.41779 -2.8201,2.70189 -2.8202,2.7019 -0.6786,-0.67861 -0.6786,-0.6786 1.4182,-2.66164 1.4181,-2.66164 2.586,-1.58686 2.5859,-1.58685 -1.9747,-6.25 -1.9747,-6.25 -5.2388,0 -5.2388,0 -1.1034,1.32959 -1.1035,1.3296 0.4911,15.4204 0.491,15.42041 1.8551,12.23498 1.855,12.23499 1.2574,1.51501 1.2573,1.51502 3.5249,0 z m 8.5509,-50 1.3702,0 -1.1932,-4.69926 -1.1932,-4.69926 -1.1522,-0.38407 -1.1523,-0.38408 0,2.51824 c 0,1.38503 0.4389,3.67253 0.9753,5.08333 l 0.9752,2.5651 1.3702,0 z m -28.948,-1.9727 0.9727,-0.9727 -0.9227,-4.7773 -0.9227,-4.7773 -3.25,-0.31336 c -1.7875,-0.17235 -3.25,-0.081 -3.25,0.20295 0,0.28397 0.5223,1.66248 1.1606,3.06336 0.6382,1.40088 1.5382,2.54705 2,2.54705 l 0.8394,0 0,1.8 0,1.8 1.2,1.2 1.2,1.2 0.9727,-0.9727 z m 34.3129,-0.0273 c 0.377,0 1.727,-0.97844 3,-2.17431 1.2729,-1.19588 2.3144,-2.54588 2.3144,-3 l 0,-0.82569 -2.393,0 -2.393,0 -0.607,1.58179 c -0.3338,0.86998 -0.607,2.21998 -0.607,3 0,0.78001 0.3085,1.41821 0.6856,1.41821 z m 374.17281,-49.1199 1.3584,0.1199 -0.5621,-2.25 c -0.3092,-1.2375 -1.2856,-6.3 -2.1697,-11.25 l -1.6074,-9 -1.2412,-16 -1.2412,-16 0.7389,-4.5 c 0.4064,-2.475 0.9711,-12.375 1.2548,-22 0.2838,-9.625 0.963,-23.35 1.5094,-30.5 0.5464,-7.15 1.3259,-19.525 1.7322,-27.5 0.4062,-7.975 0.7046,-17.65 0.663,-21.5 -0.042,-3.85 -0.1535,-10.375 -0.2486,-14.5 l -0.1728,-7.5 -1.3209,3 c -0.7266,1.65 -2.7924,6.825 -4.5909,11.5 -1.7984,4.675 -5.2896,13.225 -7.7582,19 -2.4686,5.775 -7.2071,15.675 -10.5299,22 -3.3229,6.325 -7.0313,12.85 -8.2408,14.5 -1.2096,1.65 -2.4588,3.9 -2.7761,5 -0.3172,1.1 -0.7958,3.27133 -1.0634,4.82518 -0.2677,1.55384 -1.033,6.07627 -1.7007,10.04983 l -1.2139,7.22466 2.1902,8.95017 c 1.2047,4.92259 2.564,11.87516 3.0206,15.45016 l 0.8303,6.5 2.774,9 2.7741,9 1.1167,7.31616 1.1168,7.31615 4.7614,3.45183 c 2.6188,1.89851 8.0188,6.76479 12,10.81395 l 7.2386,7.36212 1.3584,0.11989 z M 183.13779,193.7685 c 0.5175,0 0.9409,-0.17686 0.9409,-0.39301 0,-0.21616 -0.6983,-0.661 -1.5519,-0.98855 l -1.5519,-0.59553 0.6109,0.98854 c 0.336,0.5437 1.0344,0.98855 1.552,0.98855 z m 702.6241,-99.812497 0.5252,-1.3125 -0.6042,-0.604167 -0.6042,-0.604166 0.079,1.916666 0.079,1.916667 0.5253,-1.3125 z m -1.1832,143.812497 -1.5,1.24489 0,-1.01546 c 0,-0.5585 0.675,-1.27447 1.5,-1.59106 0.825,-0.31658 1.5,-0.41982 1.5,-0.22943 0,0.19039 -0.675,0.90637 -1.5,1.59106 z"
     id="path2995"
     inkscape:connector-curvature="0" />
</svg>
