<?xml version="1.0" encoding="UTF-8" standalone="no"?>
<!-- Created with Inkscape (http://www.inkscape.org/) -->

<svg
   xmlns:dc="http://purl.org/dc/elements/1.1/"
   xmlns:cc="http://creativecommons.org/ns#"
   xmlns:rdf="http://www.w3.org/1999/02/22-rdf-syntax-ns#"
   xmlns:svg="http://www.w3.org/2000/svg"
   xmlns="http://www.w3.org/2000/svg"
   xmlns:sodipodi="http://sodipodi.sourceforge.net/DTD/sodipodi-0.dtd"
   xmlns:inkscape="http://www.inkscape.org/namespaces/inkscape"
   id="svg2"
   version="1.1"
   inkscape:version="0.48.2 r9819"
   width="1922.007"
   height="1436"
   sodipodi:docname="russianstorybookwils_0019d.png">
  <metadata
     id="metadata8">
    <rdf:RDF>
      <cc:Work
         rdf:about="">
        <dc:format>image/svg+xml</dc:format>
        <dc:type
           rdf:resource="http://purl.org/dc/dcmitype/StillImage" />
        <dc:title></dc:title>
      </cc:Work>
    </rdf:RDF>
  </metadata>
  <defs
     id="defs6" />
  <sodipodi:namedview
     pagecolor="#ffffff"
     bordercolor="#666666"
     borderopacity="1"
     objecttolerance="10"
     gridtolerance="10"
     guidetolerance="10"
     inkscape:pageopacity="0"
     inkscape:pageshadow="2"
     inkscape:window-width="1600"
     inkscape:window-height="876"
     id="namedview4"
     showgrid="false"
     fit-margin-top="0"
     fit-margin-left="0"
     fit-margin-right="0"
     fit-margin-bottom="0"
     inkscape:zoom="0.5"
     inkscape:cx="956"
     inkscape:cy="726"
     inkscape:window-x="0"
     inkscape:window-y="24"
     inkscape:window-maximized="1"
     inkscape:current-layer="svg2" />
  <path
     style="fill:#000000"
     d="m 820,1435 c 0,-0.55 -1.35,-1 -3,-1 -1.65,0 -3,-0.45 -3,-1 0,-0.55 -0.9,-1 -2,-1 -1.1,0 -2,-0.45 -2,-1 0,-0.55 -0.9,-1 -2,-1 -1.1,0 -2,-0.45 -2,-1 0,-0.55 -0.9,-1 -2,-1 -1.1,0 -2,-0.45 -2,-1 0,-0.55 -0.7071,-1 -1.5714,-1 -2.6052,0 -4.4286,-2.6469 -4.4286,-6.4286 0,-1.9643 -0.45,-3.5714 -1,-3.5714 -0.55,0 -1,-1.35 -1,-3 0,-1.65 0.45,-3 1,-3 0.55,0 1,-1.8 1,-4 0,-2.2 0.45,-4 1,-4 0.55,0 1,-1.35 1,-3 0,-1.65 0.45,-3 1,-3 0.55,0 1,-0.9 1,-2 0,-1.1 0.45,-2 1,-2 0.55,0 1,-1.1571 1,-2.5714 0,-3.2805 2.1481,-5.4286 5.4286,-5.4286 1.4143,0 2.5714,-0.45 2.5714,-1 0,-0.55 0.9,-1 2,-1 1.1553,0 2,-0.6667 2,-1.5784 0,-0.8681 1.8,-3.3078 4,-5.4216 2.2,-2.1138 4,-4.5535 4,-5.4216 0,-0.8681 0.45,-1.5784 1,-1.5784 0.55,0 1,-0.6868 1,-1.5263 0,-2.5784 8.6491,-10.4737 11.4737,-10.4737 1.3895,0 2.5263,-0.45 2.5263,-1 0,-0.55 0.9,-1 2,-1 1.1515,0 2,-0.6667 2,-1.5714 0,-2.2297 2.4827,-4.4286 5,-4.4286 2.5173,0 5,-2.1989 5,-4.4286 0,-0.8643 0.45,-1.5714 1,-1.5714 0.55,0 1,-0.8007 1,-1.7792 0,-0.9786 0.9,-2.428 2,-3.2208 1.1,-0.7928 2,-2.2422 2,-3.2208 0,-0.9785 0.45,-1.7792 1,-1.7792 0.55,0 1,-1.5955 1,-3.5455 0,-4.2835 3.6777,-8.4545 7.4546,-8.4545 2.303,0 2.5454,-0.381 2.5454,-4 0,-2.2 0.45,-4 1,-4 0.55,0 1,-2.25 1,-5 0,-2.75 0.45,-5 1,-5 0.55,0 1,-1.8 1,-4 0,-2.2 0.45,-4 1,-4 0.55,0 1,-0.8007 1,-1.7792 0,-0.9786 0.9,-2.428 2,-3.2208 1.1,-0.7928 2,-2.1428 2,-3 0,-0.8572 0.9,-2.2072 2,-3 1.3929,-1.004 2,-2.5887 2,-5.2208 0,-2.0785 0.45,-3.7792 1,-3.7792 0.55,0 1,-0.9 1,-2 0,-1.2506 0.6667,-2 1.7792,-2 0.9786,0 2.428,-0.9 3.2208,-2 0.7928,-1.1 2.2422,-2 3.2208,-2 1.3102,0 1.7792,-0.7907 1.7792,-3 l 0,-3 -7.5988,0 c -7.1537,0 -7.7629,-0.1757 -10.4012,-3 -1.5413,-1.65 -3.3119,-3 -3.9345,-3 -0.6227,0 -2.6922,-1.56 -4.5988,-3.4667 -2.6474,-2.6473 -3.4667,-4.3017 -3.4667,-7 0,-1.9433 0.45,-3.5333 1,-3.5333 0.55,0 1,-1.8 1,-4 0,-2.2 0.45,-4 1,-4 0.55,0 1,-0.9 1,-2 0,-1.3333 -0.6667,-2 -2,-2 -1.1,0 -2,-0.45 -2,-1 0,-0.55 -1.35,-1 -3,-1 -1.65,0 -3,-0.45 -3,-1 0,-0.55 -1.35,-1 -3,-1 -1.65,0 -3,-0.45 -3,-1 0,-0.6333 -7.3333,-1 -20,-1 -12.6667,0 -20,-0.3667 -20,-1 0,-0.55 -1.1603,-1 -2.5784,-1 -1.7009,0 -3.8863,-1.3613 -6.4216,-4 -2.1469,-2.2345 -4.7921,-4 -5.993,-4 -2.5234,0 -5.007,-2.1967 -5.007,-4.4286 0,-0.8643 -0.45,-1.5714 -1,-1.5714 -0.55,0 -1,-0.9 -1,-2 0,-1.3043 -0.6667,-2 -1.9167,-2 -1.0541,0 -2.1791,-0.5625 -2.5,-1.25 -0.4666,-1 -0.7,-1 -1.1666,0 -0.4144,0.888 -3.7445,1.25 -11.5,1.25 -6.6111,0 -10.9167,0.3944 -10.9167,1 0,0.55 -2.25,1 -5,1 -2.75,0 -5,-0.45 -5,-1 0,-0.55 -2.25,-1 -5,-1 -2.75,0 -5,-0.45 -5,-1 0,-0.55 -1.35,-1 -3,-1 -1.65,0 -3,-0.45 -3,-1 0,-0.55 -0.9,-1 -2,-1 -1.1,0 -2,-0.45 -2,-1 0,-0.55 -1.35,-1 -3,-1 -1.65,0 -3,-0.45 -3,-1 0,-0.55 -1.8,-1 -4,-1 -2.2,0 -4,-0.45 -4,-1 0,-0.55 -1.35,-1 -3,-1 -1.65,0 -3,-0.45 -3,-1 0,-0.55 -1.35,-1 -3,-1 -1.65,0 -3,-0.45 -3,-1 0,-0.55 -0.9,-1 -2,-1 -1.1515,0 -2,-0.6667 -2,-1.5714 0,-2.0211 -2.4075,-4.4286 -4.4286,-4.4286 -0.8643,0 -1.5714,-0.45 -1.5714,-1 0,-0.55 -1.8,-1 -4,-1 -2.2,0 -4,-0.45 -4,-1 0,-0.55 -1.8,-1 -4,-1 -2.2,0 -4,-0.45 -4,-1 0,-0.55 -0.9,-1 -2,-1 -1.1,0 -2,-0.45 -2,-1 0,-0.55 -0.9,-1 -2,-1 -1.1,0 -2,-0.45 -2,-1 0,-0.55 -1.1695,-1 -2.5988,-1 -1.5981,0 -3.6779,-1.1552 -5.4012,-3 -1.5413,-1.65 -3.3413,-3 -4,-3 -0.6587,0 -2.4587,-1.35 -4,-3 -1.5413,-1.65 -3.4225,-3 -4.1804,-3 -0.758,0 -2.0268,-0.9 -2.8196,-2 -0.7928,-1.1 -2.2422,-2 -3.2208,-2 -0.9785,0 -1.7792,-0.45 -1.7792,-1 0,-0.55 -1.35,-1 -3,-1 -1.65,0 -3,-0.45 -3,-1 0,-0.55 -0.7103,-1 -1.5784,-1 -0.8681,0 -3.3078,-1.8 -5.4216,-4 -2.1138,-2.2 -4.3606,-4 -4.993,-4 -1.4815,0 -4.007,-2.5211 -4.007,-4 0,-1.4757 -2.5243,-4 -4,-4 -1.6539,0 -4,-2.5975 -4,-4.4286 0,-0.8643 -0.45,-1.5714 -1,-1.5714 -0.55,0 -1,-0.8007 -1,-1.7792 0,-0.9786 -0.9,-2.428 -2,-3.2208 -1.1,-0.7928 -2,-2.2422 -2,-3.2208 0,-0.9785 -0.45,-1.7792 -1,-1.7792 -0.55,0 -1,-1.35 -1,-3 0,-1.65 -0.45,-3 -1,-3 -0.55,0 -1,-0.7042 -1,-1.5649 0,-0.8607 -2.25,-3.7565 -5,-6.4351 -2.75,-2.6786 -5,-5.5744 -5,-6.4351 0,-0.8607 -0.45,-1.5649 -1,-1.5649 -0.55,0 -1,-0.9 -1,-2 0,-1.1 -0.45,-2 -1,-2 -0.55,0 -1,-0.9 -1,-2 0,-1.1 -0.45,-2 -1,-2 -0.55,0 -1,-0.9 -1,-2 0,-1.1 -0.45,-2 -1,-2 -0.55,0 -1,-0.9 -1,-2 0,-1.1 -0.45,-2 -1,-2 -0.55,0 -1,-0.7195 -1,-1.5988 0,-0.8793 -1.35,-2.8599 -3,-4.4012 -1.65,-1.5413 -3,-3.5219 -3,-4.4012 0,-0.8793 -0.45,-1.5988 -1,-1.5988 -0.55,0 -1,-1.1603 -1,-2.5784 0,-1.7009 -1.3613,-3.8863 -4,-6.4216 -3.2055,-3.0798 -4,-4.554 -4,-7.4216 0,-1.9681 -0.45,-3.5784 -1,-3.5784 -0.55,0 -1,-0.7071 -1,-1.5714 0,-1.9274 -2.3765,-4.4286 -4.2078,-4.4286 -0.7429,0 -1.9994,0.9 -2.7922,2 -0.7928,1.1 -2.2422,2 -3.2208,2 -0.9785,0 -1.7792,0.45 -1.7792,1 0,0.55 -0.9,1 -2,1 -1.1,0 -2,-0.45 -2,-1 0,-0.55 -1.2507,-1 -2.7792,-1 -1.6321,0 -3.3743,-0.8255 -4.2208,-2 -1.2227,-1.6965 -2.5887,-2 -9,-2 -6.4113,0 -7.7773,-0.3035 -9,-2 -0.7928,-1.1 -2.1428,-2 -3,-2 -0.8572,0 -2.2072,-0.9 -3,-2 -0.8465,-1.1745 -2.5887,-2 -4.2208,-2 -1.5285,0 -2.7792,-0.45 -2.7792,-1 0,-0.55 -1.35,-1 -3,-1 -1.65,0 -3,0.45 -3,1 0,0.55 -1.7625,1 -3.9167,1 -2.1555,0 -4.1789,0.5621 -4.5,1.25 -0.4666,1 -0.7,1 -1.1666,0 C 497.7032,1035.721 484,1035.4834 484,1037 c 0,0.55 -0.9,1 -2,1 -1.1,0 -2,0.45 -2,1 0,0.55 -1.35,1 -3,1 -1.65,0 -3,0.45 -3,1 0,0.55 -1.8,1 -4,1 -2.2,0 -4,0.45 -4,1 0,0.55 -2.1507,1 -4.7792,1 -3.6321,0 -5.1253,0.4801 -6.2208,2 -0.7928,1.1 -2.4993,2 -3.7922,2 -2.6994,0 -5.2078,2.1331 -5.2078,4.4286 0,0.9047 -0.8485,1.5714 -2,1.5714 -1.1,0 -2,0.45 -2,1 0,0.55 -0.9,1 -2,1 -1.1,0 -2,0.45 -2,1 0,0.55 -0.9,1 -2,1 -1.1,0 -2,0.45 -2,1 0,0.55 -0.9,1 -2,1 -1.1,0 -2,0.45 -2,1 0,0.55 -0.9,1 -2,1 -1.1,0 -2,0.45 -2,1 0,0.55 -1.35,1 -3,1 -1.65,0 -3,0.45 -3,1 0,0.55 -0.9,1 -2,1 -1.1,0 -2,0.45 -2,1 0,0.55 -0.9,1 -2,1 -1.1,0 -2,0.45 -2,1 0,0.55 -0.7103,1 -1.5784,1 -0.8681,0 -3.3078,1.8 -5.4216,4 -2.1138,2.2 -4.5535,4 -5.4216,4 -0.8681,0 -1.5784,0.45 -1.5784,1 0,0.55 -0.9,1 -2,1 -1.1,0 -2,0.45 -2,1 0,0.55 -0.9,1 -2,1 -1.1,0 -2,0.45 -2,1 0,0.6036 -4.1905,1 -10.5714,1 -7.8286,0 -10.9421,0.3707 -12,1.4286 -1.6389,1.6389 -1.9138,4.5714 -0.4286,4.5714 0.55,0 1,1.35 1,3 0,1.65 0.45,3 1,3 0.55,0 1,2.25 1,5 0,2.75 -0.45,5 -1,5 -0.55,0 -1,1.35 -1,3 0,1.65 -0.45,3 -1,3 -0.55,0 -1,1.35 -1,3 0,1.65 -0.45,3 -1,3 -0.5556,0 -1,2.6667 -1,6 0,3.3333 -0.4444,6 -1,6 -0.55,0 -1,1.2507 -1,2.7792 0,1.6321 -0.8255,3.3743 -2,4.2208 -1.1,0.7928 -2,2.0525 -2,2.7992 0,0.7467 -1.8,3.087 -4,5.2008 -2.2,2.1138 -4,4.5535 -4,5.4216 0,0.8681 -0.45,1.5784 -1,1.5784 -0.55,0 -1,0.6955 -1,1.5455 0,2.0004 -4.4541,6.4545 -6.4545,6.4545 -0.85,0 -1.5455,0.45 -1.5455,1 0,0.55 -0.7071,1 -1.5714,1 -1.8125,0 -4.4286,2.3404 -4.4286,3.9619 0,1.6656 -6.7123,8.0381 -8.4667,8.0381 -0.8433,0 -1.5333,0.45 -1.5333,1 0,0.5889 -3.5238,1 -8.5714,1 -9.3997,0 -11.4286,0.9637 -11.4286,5.4286 0,1.6758 -0.5498,2.5714 -1.5784,2.5714 -0.8681,0 -3.3078,1.8 -5.4216,4 -2.1138,2.2 -4.5535,4 -5.4216,4 -0.8681,0 -1.5784,0.45 -1.5784,1 0,0.55 -0.9,1 -2,1 -1.1,0 -2,0.45 -2,1 0,0.55 -0.9,1 -2,1 -1.1,0 -2,0.45 -2,1 0,0.55 -0.9,1 -2,1 -1.3333,0 -2,0.6667 -2,2 0,1.1373 -0.6667,2 -1.5454,2 -2.0005,0 -6.4546,4.4541 -6.4546,6.4545 0,0.85 -0.6868,1.5455 -1.5263,1.5455 -1.7436,0 -10.4737,8.3787 -10.4737,10.0521 0,0.6076 -1.8,2.8341 -4,4.9479 -2.2,2.1138 -4,4.5535 -4,5.4216 0,0.8681 -0.45,1.5784 -1,1.5784 -0.55,0 -1,0.9 -1,2 0,1.1 -0.45,2 -1,2 -0.55,0 -1,0.8007 -1,1.7792 0,0.9786 -0.9,2.428 -2,3.2208 -1.1032,0.7952 -2,2.5887 -2,4 0,1.4113 -0.8968,3.2048 -2,4 -1.1,0.7928 -2,2.2422 -2,3.2208 0,0.9785 -0.45,1.7792 -1,1.7792 -0.55,0 -1,0.69 -1,1.5333 0,2.5194 -6.64976,8.4667 -9.46667,8.4667 -1.39333,0 -2.53333,0.45 -2.53333,1 0,0.55 -0.9,1 -2,1 -1.1,0 -2,0.45 -2,1 0,0.55 -0.71946,1 -1.59879,1 -0.87933,0 -2.85988,1.35 -4.40121,3 -1.54133,1.65 -3.52188,3 -4.40121,3 -0.87933,0 -1.59879,0.45 -1.59879,1 0,0.55 -1.35,1 -3,1 -1.65,0 -3,0.45 -3,1 0,0.55 -2.04,1 -4.53333,1 -3.83932,0 -5.06406,0.5307 -8,3.4667 -1.90667,1.9066 -3.46667,4.1566 -3.46667,5 0,0.8433 -0.45,1.5333 -1,1.5333 -0.55,0 -1,1.5955 -1,3.5455 0,3.5362 3.50552,8.4545 6.02597,8.4545 1.63182,0 3.97403,2.6101 3.97403,4.4286 0,0.8643 0.45,1.5714 1,1.5714 0.55,0 1,0.9 1,2 0,1.1 0.45,2 1,2 0.55,0 1,1.5943 1,3.5428 0,3.1023 -0.99472,4.5268 -8,11.4572 -4.4,4.3529 -8,8.4281 -8,9.056 0,0.6279 1.35,2.4027 3,3.944 1.65,1.5413 3,3.5219 3,4.4012 0,0.8793 0.45,1.5988 1,1.5988 0.55,0 1,0.8007 1,1.7792 0,0.9786 0.9,2.428 2,3.2208 1.1,0.7928 2,2.2422 2,3.2208 0,0.9785 0.45,1.7792 1,1.7792 0.55,0 1,0.9 1,2 0,1.1 0.45,2 1,2 0.55,0 1,1.35 1,3 0,1.65 0.45,3 1,3 0.55,0 1,2.25 1,5 0,2.75 -0.45,5 -1,5 -0.55,0 -1,2.25 -1,5 0,2.75 -0.45,5 -1,5 -0.55556,0 -1,2.6667 -1,6 0,3.3333 -0.44444,6 -1,6 -0.55,0 -1,0.8007 -1,1.7792 0,0.9786 -0.9,2.428 -2,3.2208 -1.1,0.7928 -2,2.0493 -2,2.7922 0,1.7406 -2.46719,4.2078 -4.20781,4.2078 -0.74287,0 -1.99935,0.9 -2.79219,2 -1.09551,1.5199 -2.58869,2 -6.22076,2 -2.62858,0 -4.77924,0.45 -4.77924,1 0,0.55 -1.8,1 -4,1 -2.2,0 -4,0.45 -4,1 0,0.5714 -3,1 -7,1 -4,0 -7,0.4286 -7,1 0,0.5556 -2.66667,1 -6,1 -3.33333,0 -6,0.4444 -6,1 0,0.5926 -3.66667,1 -9,1 -5.33333,0 -9,-0.4074 -9,-1 0,-0.55 -2.25,-1 -5,-1 -2.75,0 -5,-0.45 -5,-1 0,-0.6 -4,-1 -10,-1 -6,0 -10,0.4 -10,1 0,0.55 -1.35,1 -3,1 -1.65,0 -3,-0.45 -3,-1 0,-0.6061 -4.33333,-1 -11,-1 -6.66667,0 -11,-0.3939 -11,-1 0,-0.5714 -3,-1 -7,-1 -4,0 -7,0.4286 -7,1 0,0.5556 -2.66667,1 -6,1 -3.33333,0 -6,-0.4444 -6,-1 0,-0.6 -4,-1 -10,-1 -6,0 -10,-0.4 -10,-1 0,-0.55 -1.35,-1 -3,-1 -1.65,0 -3,-0.45 -3,-1 0,-0.55 -0.9,-1 -2,-1 -1.33333,0 -2,-0.6667 -2,-2 0,-1.1 -0.45,-2 -1,-2 -0.55,0 -1,-1.35 -1,-3 0,-1.65 -0.45,-3 -1,-3 -0.55,0 -1,-0.9 -1,-2 0,-1.1 -0.45,-2 -1,-2 -0.58333,0 -1,-3.3333 -1,-8 0,-4.6667 0.41667,-8 1,-8 0.55,0 1,-1.8 1,-4 0,-2.9412 0.40909,-4 1.54545,-4 2.42996,0 6.45455,-4.6481 6.45455,-7.4545 0,-1.4 0.45,-2.5455 1,-2.5455 0.55,0 1,-0.9 1,-2 0,-1.1 0.45,-2 1,-2 0.55,0 1,-1.6071 1,-3.5714 0,-3.7817 1.8234,-6.4286 4.42857,-6.4286 0.86429,0 1.57143,-0.45 1.57143,-1 0,-0.55 0.70714,-1 1.57143,-1 2.02104,0 4.42857,-2.4075 4.42857,-4.4286 0,-0.8643 0.45,-1.5714 1,-1.5714 0.55,0 1,-0.6955 1,-1.5455 0,-2.0004 4.45408,-6.4545 6.45455,-6.4545 0.84999,0 1.54545,-0.45 1.54545,-1 0,-0.55 0.9,-1 2,-1 1.1,0 2,-0.45 2,-1 0,-0.55 0.70714,-1 1.57143,-1 1.92738,0 4.42857,-2.3765 4.42857,-4.2078 0,-0.7429 0.9,-1.9994 2,-2.7922 1.1,-0.7928 2,-2.2422 2,-3.2208 0,-1.0389 0.74025,-1.7792 1.77924,-1.7792 0.97858,0 2.42793,-0.9 3.22076,-2 0.79283,-1.1 2.14283,-2 3,-2 0.85716,0 2.20717,-0.9 3,-2 0.79283,-1.1 2.49932,-2 3.79219,-2 4.91278,0 7.11647,-6.1828 3.20781,-9 -2.0606,-1.4852 -2.84843,-7 -1,-7 0.55,0 1,-2.25 1,-5 0,-2.75 0.45,-5 1,-5 0.55,0 1,-0.7071 1,-1.5714 0,-2.0211 2.40753,-4.4286 4.42857,-4.4286 0.86429,0 1.57143,-0.45 1.57143,-1 0,-0.55 0.71946,-1 1.59879,-1 0.87933,0 2.85988,-1.35 4.40121,-3 1.54133,-1.65 3.32902,-3 3.97264,-3 1.49827,0 4.02736,-2.5119 4.02736,-4 0,-1.6539 2.59747,-4 4.42857,-4 0.90476,0 1.57143,-0.8485 1.57143,-2 0,-1.1 0.45,-2 1,-2 0.55,0 1,-0.9 1,-2 0,-1.1 0.45,-2 1,-2 0.55,0 1,-0.9 1,-2 0,-1.1 0.45,-2 1,-2 0.55,0 1,-0.9 1,-2 0,-1.1 0.45,-2 1,-2 0.55,0 1,-0.9 1,-2 0,-1.1 0.45,-2 1,-2 0.55,0 1,-1.8 1,-4 0,-2.2 0.45,-4 1,-4 0.55,0 1,-1.6195 1,-3.5988 0,-2.7092 0.74155,-4.2915 3,-6.4012 1.84484,-1.7233 3,-3.8031 3,-5.4012 0,-1.4293 0.45,-2.5988 1,-2.5988 0.55,0 1,-1.2507 1,-2.7792 0,-1.6321 0.82553,-3.3743 2,-4.2208 1.1,-0.7928 2,-2.1428 2,-3 0,-0.8572 0.9,-2.2072 2,-3 1.1,-0.7928 2,-2.2422 2,-3.2208 0,-0.9785 0.45,-1.7792 1,-1.7792 0.55,0 1,-2.25 1,-5 0,-2.75 -0.45,-5 -1,-5 -0.55,0 -1,-1.8 -1,-4 0,-2.2 -0.45,-4 -1,-4 -0.61905,0 -1,-5.3333 -1,-14 0,-8.6667 0.38095,-14 1,-14 0.55,0 1,-0.9 1,-2 0,-1.1 0.45,-2 1,-2 0.55,0 1,-2.25 1,-5 0,-2.75 0.45,-5 1,-5 0.55,0 1,-1.35 1,-3 0,-1.65 0.45,-3 1,-3 0.55,0 1,-0.8007 1,-1.7792 0,-0.9786 0.9,-2.428 2,-3.2208 1.1,-0.7928 2,-2.2422 2,-3.2208 0,-0.9785 0.45,-1.7792 1,-1.7792 0.55,0 1,-0.9 1,-2 0,-1.1 0.45,-2 1,-2 0.55,0 1,-0.9 1,-2 0,-1.1 0.45,-2 1,-2 0.55,0 1,-0.9 1,-2 0,-1.1 0.45,-2 1,-2 0.55,0 1,-1.2507 1,-2.7792 0,-1.6321 0.82553,-3.3743 2,-4.2208 1.1,-0.7928 2,-2.029 2,-2.7471 0,-1.5529 8.48538,-10.2529 10,-10.2529 2.21381,0 10,-8.9336 10,-11.4737 0,-2.2337 0.41675,-2.5263 3.59879,-2.5263 2.70923,0 4.2915,-0.7416 6.40121,-3 1.54133,-1.65 3.77902,-3 4.97264,-3 2.54125,0 5.02736,-2.19 5.02736,-4.4286 0,-0.9047 0.84848,-1.5714 2,-1.5714 1.1,0 2,-0.45 2,-1 0,-0.55 1.35,-1 3,-1 1.65,0 3,-0.45 3,-1 0,-0.55 0.9,-1 2,-1 2.86312,0 2.86312,-6.9364 0,-9 -1.1,-0.7928 -2,-2.0525 -2,-2.7992 0,-0.7467 -1.8,-3.087 -4,-5.2008 -2.2,-2.1138 -4,-4.5535 -4,-5.4216 0,-0.8681 -0.45,-1.5784 -1,-1.5784 -0.55,0 -1,-0.9 -1,-2 0,-1.1 -0.45,-2 -1,-2 -0.55,0 -1,-0.9 -1,-2 0,-1.1 -0.45,-2 -1,-2 -0.55,0 -1,-1.7007 -1,-3.7792 0,-2.6321 -0.60709,-4.2168 -2,-5.2208 -1.1,-0.7928 -2,-2.2422 -2,-3.2208 0,-0.9785 -0.45,-1.7792 -1,-1.7792 -0.6,0 -1,-4 -1,-10 0,-6 -0.4,-10 -1,-10 -0.55,0 -1,-0.9 -1,-2 0,-1.1 -0.45,-2 -1,-2 -0.55,0 -1,-1.8 -1,-4 0,-2.2 -0.45,-4 -1,-4 -0.6,0 -1,-4 -1,-10 0,-6 0.4,-10 1,-10 0.60606,0 1,-4.3333 1,-11 0,-6.6667 0.39394,-11 1,-11 0.55,0 1,-2.25 1,-5 0,-2.75 0.45,-5 1,-5 0.55,0 1,-0.9 1,-2 0,-1.1 0.45,-2 1,-2 0.55,0 1,-0.8007 1,-1.7792 0,-0.9786 0.9,-2.428 2,-3.2208 1.35525,-0.9768 2,-2.5887 2,-5 0,-2.4113 0.64475,-4.0232 2,-5 1.10324,-0.7952 2,-2.5887 2,-4 0,-1.4113 0.89676,-3.2048 2,-4 1.17447,-0.8465 2,-2.5887 2,-4.2208 0,-1.5285 0.45,-2.7792 1,-2.7792 0.55,0 1,-0.9 1,-2 0,-1.1 0.45,-2 1,-2 0.55,0 1,-0.9 1,-2 0,-1.1 0.45,-2 1,-2 0.55,0 1,-0.9 1,-2 0,-1.1 0.45,-2 1,-2 0.55,0 1,-1.8 1,-4 0,-2.2 0.45,-4 1,-4 0.55,0 1,-0.9 1,-2 0,-1.1 0.45,-2 1,-2 0.55,0 1,-0.6808 1,-1.5128 C 202,866.777 220.38423,848 222.05861,848 223.97842,848 226,845.2156 226,842.5714 c 0,-1.671 0.55026,-2.5714 1.57143,-2.5714 0.86428,0 2.21428,-0.6429 3,-1.4286 0.78571,-0.7857 1.42857,-2.1357 1.42857,-3 0,-0.8643 0.45,-1.5714 1,-1.5714 0.55,0 1,-1.2507 1,-2.7792 0,-1.6321 0.82553,-3.3743 2,-4.2208 1.1,-0.7928 2,-2.0616 2,-2.8196 0,-0.7579 1.35,-2.6391 3,-4.1804 1.65,-1.5413 3,-3.5219 3,-4.4012 0,-0.9321 0.834,-1.5988 2,-1.5988 1.7693,0 2,-0.6667 2,-5.7792 0,-4.6321 -0.397,-6.0654 -2,-7.2208 -1.1745,-0.8465 -2,-2.5887 -2,-4.2208 0,-1.5285 -0.45,-2.7792 -1,-2.7792 -0.55,0 -1,-0.9 -1,-2 0,-1.1 -0.45,-2 -1,-2 -0.55,0 -1,-1.8 -1,-4 0,-2.2 -0.45,-4 -1,-4 -0.55,0 -1,-1.7007 -1,-3.7792 0,-2.6321 0.60709,-4.2168 2,-5.2208 1.1,-0.7928 2,-2.1428 2,-3 0,-0.8572 0.9,-2.2072 2,-3 1.1745,-0.8465 2,-2.5887 2,-4.2208 0,-1.5285 0.45,-2.7792 1,-2.7792 0.55,0 1,-0.9 1,-2 0,-1.1 0.45,-2 1,-2 0.55,0 1,-0.9 1,-2 0,-1.1 0.45,-2 1,-2 0.55,0 1,-1.35 1,-3 0,-1.65 0.45,-3 1,-3 0.55,0 1,-1.35 1,-3 0,-1.65 0.45,-3 1,-3 0.55,0 1,-0.9 1,-2 0,-1.1 -0.45,-2 -1,-2 -0.55,0 -1,-0.9 -1,-2 0,-1.1 -0.45,-2 -1,-2 -0.55,0 -1,-0.9 -1,-2 0,-1.1 -0.45,-2 -1,-2 -0.55,0 -1,-0.6955 -1,-1.5454 0,-0.85 -1.1046,-2.65 -2.4545,-4 -1.8861,-1.8861 -3.5073,-2.4546 -7,-2.4546 -2.50005,0 -4.5455,0.45 -4.5455,1 0,0.55 -1.8,1 -4,1 -2.2,0 -4,-0.45 -4,-1 0,-0.5556 -2.66667,-1 -6,-1 -3.33333,0 -6,-0.4444 -6,-1 0,-0.5556 -2.66667,-1 -6,-1 -3.33333,0 -6,-0.4444 -6,-1 0,-0.55 -2.25,-1 -5,-1 -2.75,0 -5,-0.45 -5,-1 0,-0.55 -0.9,-1 -2,-1 -1.1,0 -2,-0.45 -2,-1 0,-0.55 -0.9,-1 -2,-1 -1.1,0 -2,-0.45 -2,-1 0,-0.55 -0.9,-1 -2,-1 -1.1,0 -2,-0.45 -2,-1 0,-0.55 -1.35,-1 -3,-1 -1.65,0 -3,-0.45 -3,-1 0,-0.55 -0.69545,-1 -1.54545,-1 C 172.45408,706 168,701.5459 168,699.5454 168,698.6955 167.55,698 167,698 c -0.60606,0 -1,-4.3333 -1,-11 0,-6.66667 0.39394,-11 1,-11 0.55,0 1,-1.35 1,-3 0,-1.65 0.45,-3 1,-3 0.55,0 1,-0.71028 1,-1.5784 0,-0.86812 1.8,-3.30784 4,-5.4216 2.2,-2.11376 4,-4.55348 4,-5.4216 0,-1.03296 0.89805,-1.5784 2.59879,-1.5784 1.59812,0 3.67787,-1.15516 5.40121,-3 1.54133,-1.65 3.32902,-3 3.97264,-3 C 191.64983,650 194,647.4157 194,645.57143 194,644.70714 194.69545,644 195.54545,644 c 0.85,0 2.65,-1.10455 4,-2.45455 1.35,-1.35 2.45455,-3.15 2.45455,-4 0,-0.85 0.80066,-1.54545 1.77924,-1.54545 0.97858,0 2.42792,-0.9 3.22076,-2 1.00395,-1.39291 2.58869,-2 5.22076,-2 2.07858,0 3.77924,-0.45 3.77924,-1 0,-0.55 0.9,-1 2,-1 1.33333,0 2,-0.66667 2,-2 0,-1.1 0.45,-2 1,-2 0.55,0 1,-0.69545 1,-1.54545 0,-2.42996 4.64811,-6.45455 7.45455,-6.45455 1.4,0 2.54545,-0.45 2.54545,-1 0,-0.55 0.9,-1 2,-1 1.1,0 2,-0.45 2,-1 0,-0.55 1.35,-1 3,-1 1.65,0 3,-0.45 3,-1 0,-0.55 1.35,-1 3,-1 1.65,0 3,-0.45 3,-1 0,-0.55 1.35,-1 3,-1 1.65,0 3,-0.45 3,-1 0,-0.55 0.9,-1 2,-1 1.1,0 2,-0.45 2,-1 0,-0.55 0.9,-1 2,-1 1.1,0 2,-0.45 2,-1 0,-0.55 0.8007,-1 1.7792,-1 0.9786,0 2.428,-0.9 3.2208,-2 1.004,-1.39291 2.5887,-2 5.2208,-2 2.0785,0 3.7792,-0.45 3.7792,-1 0,-0.55 0.9,-1 2,-1 1.1,0 2,-0.45 2,-1 0,-0.55 0.8007,-1 1.7792,-1 0.9786,0 2.428,-0.9 3.2208,-2 1.1976,-1.66156 2.5887,-2 8.2208,-2 3.8528,0 6.7792,-0.43167 6.7792,-1 0,-0.55 1.8,-1 4,-1 2.2,0 4,-0.45 4,-1 0,-0.55 1.35,-1 3,-1 1.65,0 3,-0.45 3,-1 0,-0.55 1.35,-1 3,-1 1.65,0 3,-0.45 3,-1 0,-0.55 2.25,-1 5,-1 2.75,0 5,-0.45 5,-1 0,-0.55 0.9,-1 2,-1 1.1,0 2,-0.45 2,-1 0,-0.55 2.25,-1 5,-1 2.75,0 5,-0.45 5,-1 0,-0.57143 3,-1 7,-1 4,0 7,-0.42857 7,-1 0,-0.55 1.35,-1 3,-1 1.65,0 3,-0.45 3,-1 0,-0.55556 2.6667,-1 6,-1 3.3333,0 6,-0.44444 6,-1 0,-0.55 1.8,-1 4,-1 2.2,0 4,-0.45 4,-1 0,-0.57143 3,-1 7,-1 4,0 7,-0.42857 7,-1 0,-0.57143 3,-1 7,-1 4,0 7,-0.42857 7,-1 0,-0.59259 3.6667,-1 9,-1 5.3333,0 9,-0.40741 9,-1 0,-0.58333 3.3333,-1 8,-1 4.6667,0 8,-0.41667 8,-1 0,-0.59259 3.6667,-1 9,-1 5.3333,0 9,-0.40741 9,-1 0,-0.58333 3.3333,-1 8,-1 4.6667,0 8,-0.41667 8,-1 0,-0.55 1.8,-1 4,-1 2.2,0 4,0.45 4,1 0,0.55 1.35,1 3,1 1.65,0 3,0.45 3,1 0,0.58333 3.3333,1 8,1 4.6667,0 8,0.41667 8,1 0,0.55 2.25,1 5,1 2.75,0 5,-0.45 5,-1 0,-0.55 0.9,-1 2,-1 1.1,0 2,-0.45 2,-1 0,-0.55 0.9,-1 2,-1 1.1,0 2,-0.45 2,-1 0,-0.55 1.6195,-1 3.5988,-1 2.7092,0 4.2915,-0.74155 6.4012,-3 1.5413,-1.65 3.5219,-3 4.4012,-3 0.8793,0 1.5988,-0.45 1.5988,-1 0,-0.55 0.6868,-1 1.5263,-1 1.7127,0 10.4737,-8.3648 10.4737,-10 0,-1.6352 8.761,-10 10.4737,-10 0.8395,0 1.5263,-0.45 1.5263,-1 0,-0.55 0.9,-1 2,-1 1.1,0 2,-0.45 2,-1 0,-0.55 0.9,-1 2,-1 1.1,0 2,-0.45 2,-1 0,-0.57143 3,-1 7,-1 l 7,0 0,-3 c 0,-1.65 0.45,-3 1,-3 0.5556,0 1,-2.66667 1,-6 0,-3.33333 0.4444,-6 1,-6 0.55,0 1,-0.9 1,-2 0,-1.1 0.45,-2 1,-2 0.55,0 1,-1.8 1,-4 0,-2.2 0.45,-4 1,-4 0.55,0 1,-0.9 1,-2 0,-1.1 0.45,-2 1,-2 0.55,0 1,-0.69545 1,-1.54545 0,-1.76524 4.3591,-6.45455 6,-6.45455 1.6409,0 6,-4.68931 6,-6.45455 0,-0.85 0.45,-1.54545 1,-1.54545 0.6061,0 1,-4.33333 1,-11 0,-6.66667 -0.3939,-11 -1,-11 -0.55,0 -1,-1.8 -1,-4 0,-2.2 0.45,-4 1,-4 0.55,0 1,-1.8 1,-4 0,-2.2 0.45,-4 1,-4 0.55,0 1,-1.35 1,-3 0,-1.65 0.45,-3 1,-3 0.55,0 1,-0.9 1,-2 0,-1.1 0.45,-2 1,-2 0.55,0 1,-0.9 1,-2 0,-1.1 0.45,-2 1,-2 0.55,0 1,-1.8 1,-4 0,-2.2 0.45,-4 1,-4 0.55,0 1,-0.70422 1,-1.56492 0,-0.86071 2.25,-3.7565 5,-6.43508 2.75,-2.67858 5,-5.36437 5,-5.96841 0,-1.40426 6.5917,-8.03159 7.9884,-8.03159 0.5803,0 3.5203,-2.46522 6.5333,-5.47826 4.5134,-4.51334 5.4783,-6.08389 5.4783,-8.91667 0,-1.89112 0.5625,-3.7009 1.25,-4.02174 1,-0.46666 1,-0.7 0,-1.16666 C 653.7674,371.72478 653.5565,368 655,368 c 0.55,0 1,-1.35 1,-3 0,-1.65 0.45,-3 1,-3 0.55,0 1,-0.9 1,-2 0,-1.1 0.45,-2 1,-2 0.55,0 1,-0.9 1,-2 0,-1.1 0.45,-2 1,-2 0.55,0 1,-0.80066 1,-1.77924 0,-0.97858 0.9,-2.42792 2,-3.22076 1.1,-0.79284 2,-2.24218 2,-3.22076 0,-0.97858 0.45,-1.77924 1,-1.77924 0.55,0 1,-0.9 1,-2 0,-1.1 0.45,-2 1,-2 0.55,0 1,-0.70422 1,-1.56492 0,-0.86071 2.25,-3.7565 5,-6.43508 3.4346,-3.34539 5,-5.67319 5,-7.43508 0,-1.4107 0.45,-2.56492 1,-2.56492 0.6191,0 1,-5.33333 1,-14 0,-8.66667 0.381,-14 1,-14 0.55,0 1,-1.35 1,-3 0,-1.65 0.45,-3 1,-3 0.5556,0 1,-2.66667 1,-6 0,-3.33333 0.4444,-6 1,-6 0.55,0 1,-2.25 1,-5 0,-2.75 0.45,-5 1,-5 0.55,0 1,-1.25066 1,-2.77924 0,-1.63207 0.8255,-3.37425 2,-4.22076 1.1032,-0.79517 2,-2.58869 2,-4 0,-1.41131 0.8968,-3.20483 2,-4 1.1,-0.79284 2,-2.24218 2,-3.22076 0,-0.97858 0.45,-1.77924 1,-1.77924 0.55,0 1,-0.9 1,-2 0,-1.1 0.45,-2 1,-2 0.55,0 1,-0.80066 1,-1.77924 0,-0.97858 0.9,-2.42792 2,-3.22076 1.1,-0.79284 2,-2.14284 2,-3 0,-0.85716 0.9,-2.20716 2,-3 1.1,-0.79284 2,-2.4921 2,-3.77614 0,-1.5324 2.0617,-4.35828 6,-8.22386 3.3,-3.23908 6,-6.3963 6,-7.01605 0,-1.47485 2.5364,-3.98395 4.0274,-3.98395 0.6436,0 2.4313,-1.35 3.9726,-3 1.5413,-1.65 3.329,-3 3.9726,-3 1.6772,0 4.0274,-2.5843 4.0274,-4.42857 0,-1.02545 0.9029,-1.57143 2.5988,-1.57143 1.5981,0 3.6779,-1.15516 5.4012,-3 1.5413,-1.65 3.4225,-3 4.1804,-3 0.758,0 2.0268,-0.9 2.8196,-2 0.7928,-1.1 2.2422,-2 3.2208,-2 0.9785,0 1.7792,-0.45 1.7792,-1 0,-0.55 0.8007,-1 1.7792,-1 0.9786,0 2.428,-0.9 3.2208,-2 0.7928,-1.1 2.2422,-2 3.2208,-2 0.9785,0 1.7792,-0.45 1.7792,-1 0,-0.55 0.9,-1 2,-1 1.1,0 2,-0.45 2,-1 0,-0.55 0.9,-1 2,-1 1.1,0 2,-0.45 2,-1 0,-0.55 0.9,-1 2,-1 1.1,0 2,-0.45 2,-1 0,-0.56833 2.9264,-1 6.7792,-1 5.6321,0 7.0232,-0.33844 8.2208,-2 1.3641,-1.89254 2.5887,-2 22.7922,-2 18.6092,0 21.565,-0.21439 23.0203,-1.66964 1.2142,-1.2142 1.3311,-1.78249 0.4286,-2.08334 C 840.5585,164.01949 840,162.97083 840,161.91667 840,160.66667 839.3043,160 838,160 c -1.3333,0 -2,-0.66667 -2,-2 0,-1.1 -0.45,-2 -1,-2 -0.5926,0 -1,-3.66667 -1,-9 0,-5.33333 -0.4074,-9 -1,-9 -0.55,0 -1,-1.7625 -1,-3.91667 0,-2.15555 -0.5621,-4.17896 -1.25,-4.5 -1,-0.46666 -1,-0.7 0,-1.16666 C 832.2637,127.71029 832.4994,116 831,116 c -0.5556,0 -1,-2.66667 -1,-6 0,-3.33333 -0.4444,-6 -1,-6 -0.5926,0 -1,-3.66667 -1,-9 0,-5.33333 0.4074,-9 1,-9 0.55,0 1,-1.35 1,-3 0,-1.65 0.45,-3 1,-3 0.55,0 1,-0.69545 1,-1.54546 C 832,76.56466 836.4085,72 838.2338,72 c 0.7286,0 1.9734,-0.9 2.7662,-2 0.7928,-1.1 2.1428,-2 3,-2 0.8572,0 2.2072,-0.9 3,-2 0.7928,-1.1 2.2422,-2 3.2208,-2 0.9785,0 1.7792,-0.45 1.7792,-1 0,-0.55 1.2507,-1 2.7792,-1 1.6321,0 3.3743,-0.82553 4.2208,-2 0.7928,-1.1 2.0322,-2 2.7541,-2 1.6058,0 8.2459,-6.49478 8.2459,-8.06546 0,-0.62267 1.35,-2.39321 3,-3.93454 1.7955,-1.67728 3,-3.81235 3,-5.31788 0,-1.3835 0.5625,-2.77795 1.25,-3.09879 1,-0.46666 1,-0.7 0,-1.16666 -1.955,-0.91235 -1.4765,-3.28113 1.2046,-5.96213 C 880.9396,27.96952 884,27.16679 884,29 c 0,0.55 0.7071,1 1.5714,1 2.0211,0 4.4286,2.40753 4.4286,4.42857 0,0.86429 0.45,1.57143 1,1.57143 0.55,0 1,2.25 1,5 0,6.01444 1.7157,6.58634 6,2 2.1097,-2.25845 3.692,-3 6.4012,-3 1.9793,0 3.5988,-0.45 3.5988,-1 0,-0.58333 3.3333,-1 8,-1 4.6667,0 8,0.41667 8,1 0,0.55 1.8,1 4,1 2.2,0 4,0.45 4,1 0,0.55 2.5195,1 5.5988,1 4.9314,0 5.9328,-0.35758 8.4012,-3 1.5413,-1.65 3.5219,-3 4.4012,-3 0.8793,0 1.5988,-0.45 1.5988,-1 0,-0.55 2.25,-1 5,-1 2.75,0 5,-0.45 5,-1 0,-0.58914 3.5329,-1 8.5988,-1 8.2648,0 8.7076,0.11653 11.4012,3 2.7291,2.92154 6,4.01183 6,2 0,-0.55 1.8,-1 4,-1 2.2,0 4,-0.45 4,-1 0,-0.55 1.8,-1 4,-1 2.2,0 4,-0.45 4,-1 0,-0.60606 4.3333,-1 11,-1 6.6667,0 11,-0.39394 11,-1 0,-0.55 0.8007,-1 1.7792,-1 0.9786,0 2.428,-0.9 3.2208,-2 0.7928,-1.1 2.2422,-2 3.2208,-2 0.9785,0 1.7792,-0.45 1.7792,-1 0,-0.55 0.69,-1 1.5333,-1 0.8434,0 3.0934,-1.56 5,-3.46667 2.6474,-2.64738 3.4667,-4.30171 3.4667,-7 C 1046,11.59 1045.55,10 1045,10 c -0.55,0 -1,-1.35 -1,-3 0,-1.65 -0.45,-3 -1,-3 -0.55,0 -1,-0.9 -1,-2 0,-1.66667 0.6667,-2 4,-2 2.2,0 4,0.45 4,1 0,0.55 0.9,1 2,1 1.3333,0 2,0.66667 2,2 0,1.1 0.45,2 1,2 0.55,0 1,0.9 1,2 0,1.1 0.45,2 1,2 0.5556,0 1,2.66667 1,6 0,3.33333 -0.4444,6 -1,6 -0.55,0 -1,0.9 -1,2 0,1.1 -0.45,2 -1,2 -0.55,0 -1,1.60714 -1,3.57143 0,3.66216 -1.8107,6.42857 -4.2078,6.42857 -0.7429,0 -1.9994,0.9 -2.7922,2 -0.7928,1.1 -2.2422,2 -3.2208,2 -0.9785,0 -1.7792,0.45 -1.7792,1 0,0.55 -0.9,1 -2,1 -1.1,0 -2,0.45 -2,1 0,0.55 -0.9,1 -2,1 -1.1,0 -2,0.45 -2,1 0,0.55 -1.35,1 -3,1 -1.65,0 -3,0.45 -3,1 0,0.55 -0.7071,1 -1.5714,1 -1.8311,0 -4.4286,2.3461 -4.4286,4 0,1.97251 2.7516,4 5.4286,4 1.4143,0 2.5714,-0.45 2.5714,-1 0,-0.55 0.9,-1 2,-1 1.1,0 2,0.45 2,1 0,0.55 2.1507,1 4.7792,1 3.6321,0 5.1253,0.48006 6.2208,2 0.7928,1.1 2.5116,2 3.8195,2 1.3529,0 3.5862,1.29334 5.1805,3 2.5662,2.74712 3.3586,3 9.4012,3 3.7325,0 6.5988,-0.43436 6.5988,-1 0,-0.55 1.8,-1 4,-1 2.2,0 4,-0.45 4,-1 0,-0.55 0.9,-1 2,-1 1.1,0 2,0.45 2,1 0,0.55 1.1571,1 2.5714,1 2.9173,0 6.7317,3.06562 4.6697,3.75298 -0.6826,0.22753 -1.2411,1.27619 -1.2411,2.33035 0,1.05417 -0.45,1.91667 -1,1.91667 -0.55,0 -1,0.9 -1,2 0,1.55556 -0.6667,2 -3,2 -1.65,0 -3,0.45 -3,1 0,0.55 -0.9,1 -2,1 -1.1,0 -2,0.45 -2,1 0,0.55399 -2.6389,1 -5.9167,1 -3.7961,0 -6.0984,0.44799 -6.4238,1.25 -0.383,0.94376 -0.7895,0.88251 -1.6595,-0.25 -0.87,-1.13251 -1.2765,-1.19376 -1.6595,-0.25 -0.2789,0.6875 -1.3697,1.25 -2.4238,1.25 -1.0542,0 -1.9167,0.45 -1.9167,1 0,0.55 -0.9,1 -2,1 -1.1,0 -2,0.45 -2,1 0,0.55 -0.9,1 -2,1 -1.3333,0 -2,0.66667 -2,2 0,1.1 -0.45,2 -1,2 -0.55,0 -1,1.8 -1,4 0,3.77778 0.1667,4 3,4 1.65,0 3,0.45 3,1 0,0.55 1.6195,1 3.5988,1 2.7092,0 4.2915,0.74155 6.4012,3 2.2473,2.40574 3.6285,3 6.9726,3 4.0439,0 7.0274,-1.68719 7.0274,-3.97403 0,-1.66133 4.6751,-6.02597 6.4545,-6.02597 0.85,0 1.5455,-0.45 1.5455,-1 0,-0.55556 2.6667,-1 6,-1 3.3333,0 6,0.44444 6,1 0,0.57143 3,1 7,1 4,0 7,0.42857 7,1 0,0.55 0.7103,1 1.5784,1 0.8681,0 3.3078,1.8 5.4216,4 3.6247,3.7726 7,5.21915 7,3 0,-0.55 0.6955,-1 1.5455,-1 0.85,0 2.65,-1.10455 4,-2.45455 1.886,-1.88606 2.4545,-3.50729 2.4545,-7 0,-2.5 -0.45,-4.54545 -1,-4.54545 -0.5786,0 -1,-3.19048 -1,-7.57143 C 1130,73.84761 1131.063,72 1136,72 c 4.5934,0 6,1.97594 6,8.42857 0,3.06429 0.45,5.57143 1,5.57143 0.55,0 1,0.9 1,2 0,1.1 0.45,2 1,2 0.5513,0 1,2.59308 1,5.77924 0,4.63207 -0.397,6.06538 -2,7.22076 -1.3552,0.97681 -2,2.58869 -2,5 0,2.41131 -0.6448,4.02319 -2,5 -1.1,0.79284 -2,2.04932 -2,2.79219 0,2.16011 -2.6418,4.20781 -5.4286,4.20781 -1.4143,0 -2.5714,0.45 -2.5714,1 0,0.61364 -4.8571,1 -12.5714,1 -12.8051,0 -15.4286,0.7155 -15.4286,4.20781 0,0.74287 -0.9,1.99935 -2,2.79219 -1.1032,0.79517 -2,2.58869 -2,4 0,1.41131 -0.8968,3.20483 -2,4 -1.1032,0.79517 -2,2.58869 -2,4 0,1.41131 -0.8968,3.20483 -2,4 -1.1,0.79284 -2,2.24218 -2,3.22076 0,0.97858 -0.45,1.77924 -1,1.77924 -0.55,0 -1,0.80066 -1,1.77924 0,0.97858 -0.9,2.42792 -2,3.22076 -3.098,2.2329 -2.5907,5 0.9167,5 1.6041,0 3.1791,0.5625 3.5,1.25 0.4666,1 0.7,1 1.1666,0 0.9213,-1.97425 5.8094,-1.47995 7.4167,0.75 0.8465,1.17447 2.5887,2 4.2208,2 1.5285,0 2.7792,0.45 2.7792,1 0,0.55 0.9,1 2,1 1.1,0 2,0.45 2,1 0,0.55 1.2507,1 2.7792,1 1.6321,0 3.3743,0.82553 4.2208,2 1.4852,2.0606 7,2.84843 7,1 0,-1.524 6.2431,-1.13067 8.4411,0.5318 2.5132,1.90084 5.0204,1.8638 6.9875,-0.10323 2.2695,-2.2695 1.9353,-5.15558 -0.9286,-8.01948 -1.9184,-1.91837 -2.5,-3.53636 -2.5,-6.95454 0,-2.45 0.45,-4.45455 1,-4.45455 0.55,0 1,-1.8 1,-4 0,-2.2 0.45,-4 1,-4 0.55,0 1,-1.35 1,-3 0,-1.65 0.45,-3 1,-3 0.55,0 1,-0.80066 1,-1.77924 0,-0.97858 0.9,-2.42792 2,-3.22076 1.1,-0.79284 2,-2.24218 2,-3.22076 0,-1.59782 1.1216,-1.77924 11,-1.77924 6.6667,0 11,0.39394 11,1 0,0.55 0.9,1 2,1 1.1,0 2,0.45 2,1 0,0.55 1.35,1 3,1 1.65,0 3,0.45 3,1 0,0.55 2.0542,1 4.5649,1 4.1619,0 4.9949,-0.44145 9.4351,-5 4.0463,-4.15421 5.4732,-5 8.4351,-5 1.9607,0 3.5649,-0.45 3.5649,-1 0,-0.55 0.9,-1 2,-1 1.1,0 2,-0.45 2,-1 0,-0.55 0.9,-1 2,-1 1.1,0 2,-0.45 2,-1 0,-0.55 0.9,-1 2,-1 1.1,0 2,-0.45 2,-1 0,-0.55 1.8,-1 4,-1 2.2,0 4,-0.45 4,-1 0,-0.55 0.9,-1 2,-1 1.1,0 2,-0.45 2,-1 0,-0.55 2.25,-1 5,-1 2.75,0 5,0.45 5,1 0,0.55 0.9,1 2,1 1.1,0 2,0.45 2,1 0,0.55 0.6188,1 1.375,1 0.7563,0 1.6378,1.31381 1.9589,2.91957 0.3466,1.73309 1.4134,3.18284 2.625,3.56739 3.3412,1.06045 6.0721,-0.39205 6.7072,-3.56739 0.5068,-2.53405 1.0296,-2.91957 3.9589,-2.91957 1.8563,0 3.375,0.45 3.375,1 0,0.55 1.35,1 3,1 1.65,0 3,0.45 3,1 0,0.55 1.35,1 3,1 1.65,0 3,0.45 3,1 0,0.55 0.675,1 1.5,1 0.825,0 1.5,0.86786 1.5,1.92857 0,3.77908 2.7715,5.24389 8.5547,4.52133 5.1118,-0.63868 5.4264,-0.53548 8.8725,2.91064 1.965,1.96504 3.5728,4.26279 3.5728,5.10613 0,0.84333 0.4327,1.53333 0.9615,1.53333 0.5288,0 1.4388,1.77286 2.0223,3.93969 1.1213,4.16417 3.4649,5.68745 7.0162,4.56031 1.1,-0.34913 2,-1.28802 2,-2.08644 0,-1.0803 0.7035,-1.2793 2.75,-0.7779 1.5125,0.37056 2.9,1.05414 3.0833,1.51905 0.1834,0.46491 0.9913,0.84529 1.7955,0.84529 1.9342,0 6.3712,4.49505 6.3712,6.45455 0,0.85 0.45,1.54545 1,1.54545 0.55,0 1,1.73285 1,3.85078 0,2.11792 0.494,5.26792 1.0978,7 0.8854,2.53986 1.6499,3.14922 3.9508,3.14922 4.5644,0 13.3116,2.1025 15.0301,3.61267 0.8683,0.76303 2.1058,1.38733 2.75,1.38733 0.6442,0 1.1713,0.34329 1.1713,0.76287 0,0.76379 2.963,2.57015 6.25,3.81019 0.9625,0.36311 1.75,1.05772 1.75,1.54357 0,0.48585 0.9,0.88337 2,0.88337 1.1,0 2,0.45 2,1 0,0.55 1.5484,1 3.441,1 1.8925,0 3.7191,0.45 4.059,1 0.3399,0.55 2.1114,1 3.9366,1 1.8252,0 3.8787,0.675 4.5634,1.5 0.6847,0.825 2.4847,1.5 4,1.5 1.5153,0 3.3153,0.675 4,1.5 0.6847,0.825 1.8648,1.5 2.6224,1.5 0.7577,0 1.3776,0.45 1.3776,1 0,0.58271 3.3137,1 7.941,1 4.3675,0 8.2191,0.45 8.559,1 0.3399,0.55 1.8413,1 3.3365,1 1.4952,0 3.6061,0.60788 4.691,1.35083 1.0849,0.74296 4.1002,1.63301 6.7006,1.97788 4.5349,0.60141 5.4898,0.92082 10.5083,3.51516 1.2301,0.63587 3.5926,1.15613 5.25,1.15613 1.6575,0 3.0136,0.45 3.0136,1 0,0.55 0.8625,1 1.9167,1 1.0541,0 2.0666,0.44226 2.25,0.98279 0.1833,0.54054 1.8144,1.14415 3.6247,1.34137 1.8102,0.19722 3.8127,0.87997 4.45,1.51721 0.6372,0.63725 1.9135,1.15863 2.8362,1.15863 0.9226,0 2.2377,0.675 2.9224,1.5 0.8684,1.0464 3.1735,1.5 7.6224,1.5 3.5851,0 6.3776,0.43787 6.3776,1 0,0.55 1.6918,1 3.7595,1 2.6764,0 4.1192,-0.57615 5.0084,-2 0.7969,-1.27595 2.3321,-2 4.2406,-2 1.6453,0 2.9915,-0.45 2.9915,-1 0,-0.55 0.9,-1 2,-1 1.1,0 2,-0.45 2,-1 0,-0.55 0.9,-1 2,-1 1.1,0 2,-0.45 2,-1 0,-0.55 1.8,-1 4,-1 2.2,0 4,-0.45 4,-1 0,-0.55 0.9,-1 2,-1 1.1,0 2,-0.45 2,-1 0,-0.55 1.8,-1 4,-1 2.2,0 4,-0.45 4,-1 0,-0.55 1.35,-1 3,-1 1.65,0 3,0.45 3,1 0,0.55 1.4625,1.01431 3.25,1.0318 1.7875,0.0175 4.1235,0.6925 5.1911,1.5 2.9822,2.25558 5.0445,1.78257 8.8589,-2.0318 l 3.5,-3.5 10.6,0 c 6.4,0 10.6,0.39623 10.6,1 0,0.55 0.9,1 2,1 1.1,0 2,0.45 2,1 0,0.55 0.6188,1 1.375,1 0.7563,0 1.6426,1.338 1.9697,2.97333 0.751,3.75497 4.5432,4.98535 8.1274,2.63691 C 1582.1599,203.84915 1590,203.3947 1590,205 c 0,0.55 0.9,1 2,1 1.1,0 2,0.45 2,1 0,0.55 0.8007,1 1.7792,1 0.9786,0 2.428,0.9 3.2208,2 0.7928,1.1 2.2248,2 3.1822,2 1.177,0 2.0806,1.26209 2.7901,3.89718 1.5328,5.69248 5.5433,6.82529 9.2146,2.60282 2.1552,-2.47867 5.8131,-3.42255 5.8131,-1.5 0,0.55 0.9,1 2,1 1.1,0 2,0.45 2,1 0,0.55 0.7071,1 1.5714,1 1.8516,0 4.4286,2.35245 4.4286,4.04274 0,0.65207 1.8,2.7634 4,4.69183 3.9291,3.44412 4,3.62645 4,10.29122 0,6.28965 -0.2555,7.09081 -3.5,10.97421 -1.925,2.30407 -3.5,4.64419 -3.5,5.20026 0,0.55606 -1.125,2.34801 -2.5,3.98211 -1.375,1.63409 -2.5,3.61155 -2.5,4.39436 0,2.52495 4.0018,5.65609 6.5952,5.16032 1.6855,-0.32221 3.2901,0.3925 5.393,2.40213 1.6465,1.57345 3.6727,2.86082 4.5027,2.86082 0.83,0 1.5091,0.45 1.5091,1 0,0.55 0.8007,1 1.7792,1 0.9786,0 2.428,0.9 3.2208,2 0.7928,1.1 2.2422,2 3.2208,2 0.9785,0 1.7792,0.45 1.7792,1 0,0.55 1.35,1 3,1 1.65,0 3,0.45 3,1 0,0.55 0.9,1 2,1 1.1,0 2,-0.45 2,-1 0,-0.55 0.9,-1 2,-1 1.1,0 2,-0.45 2,-1 0,-0.55 2.25,-1 5,-1 2.75,0 5,-0.45 5,-1 0,-0.55 1.35,-1 3,-1 1.65,0 3,-0.45 3,-1 0,-0.55 1.35,-1 3,-1 1.65,0 3,-0.45 3,-1 0,-0.55 0.9,-1 2,-1 1.1,0 2,-0.45 2,-1 0,-0.55 0.9,-1 2,-1 1.1,0 2,-0.45 2,-1 0,-0.55 0.7042,-1 1.5649,-1 0.8607,0 3.7565,-2.25 6.4351,-5 2.6786,-2.75 5.3698,-5 5.9805,-5 1.5503,0 6.0195,-4.6283 6.0195,-6.23379 0,-0.72858 0.9,-1.97337 2,-2.76621 1.1,-0.79284 2,-2.24218 2,-3.22076 0,-0.97858 0.45,-1.77924 1,-1.77924 0.55,0 1,-0.9 1,-2 0,-1.1 0.45,-2 1,-2 0.6111,0 1,-4.66667 1,-12 0,-7.33333 -0.3889,-12 -1,-12 -0.55,0 -1,-0.9 -1,-2 0,-1.1 -0.45,-2 -1,-2 -0.55,0 -1,-0.9 -1,-2 0,-1.1 -0.45,-2 -1,-2 -0.55,0 -1,-0.71946 -1,-1.59879 0,-0.87933 -1.35,-2.85988 -3,-4.40121 -1.65,-1.54133 -3,-3.52188 -3,-4.40121 0,-0.87933 -0.45,-1.59879 -1,-1.59879 -0.55,0 -1,-1.35 -1,-3 0,-1.65 0.45,-3 1,-3 0.55,0 1,-0.9 1,-2 0,-1.77778 0.6667,-2 6,-2 3.3333,0 6,0.44444 6,1 0,0.55 1.35,1 3,1 1.65,0 3,0.45 3,1 0,0.58333 3.3333,1 8,1 4.6667,0 8,0.41667 8,1 0,0.55 2.25,1 5,1 2.75,0 5,0.45 5,1 0,0.57143 3,1 7,1 4,0 7,0.42857 7,1 0,0.55 0.9,1 2,1 1.1,0 2,0.45 2,1 0,0.55 2.25,1 5,1 2.75,0 5,0.45 5,1 0,0.55 1.8,1 4,1 2.2,0 4,0.45 4,1 0,0.55 2.25,1 5,1 2.75,0 5,0.45 5,1 0,0.55 0.9,1 2,1 1.1,0 2,0.45 2,1 0,0.55 1.8,1 4,1 2.2,0 4,0.45 4,1 0,0.55 1.35,1 3,1 1.65,0 3,0.45 3,1 0,0.55 1.8,1 4,1 2.2,0 4,0.45 4,1 0,0.55 0.9,1 2,1 1.1,0 2,0.45 2,1 0,0.55 0.8007,1 1.7792,1 0.9786,0 2.428,0.9 3.2208,2 0.8465,1.17447 2.5887,2 4.2208,2 1.5285,0 2.7792,0.45 2.7792,1 0,0.55 0.9,1 2,1 1.1,0 2,0.45 2,1 0,0.55 0.9,1 2,1 1.1,0 2,0.45 2,1 0,0.55 0.9,1 2,1 1.1,0 2,0.45 2,1 0,0.55 1.35,1 3,1 1.65,0 3,0.45 3,1 0,0.55 0.9,1 2,1 1.1,0 2,0.45 2,1 0,0.55 0.8007,1 1.7792,1 0.9786,0 2.428,0.9 3.2208,2 0.7928,1.1 2.1428,2 3,2 0.8572,0 2.2072,0.9 3,2 0.7928,1.1 2.2422,2 3.2208,2 0.9785,0 1.7792,0.45 1.7792,1 0,0.55 0.9,1 2,1 1.1,0 2,0.45 2,1 0,0.55 0.7103,1 1.5784,1 0.8681,0 3.3078,1.8 5.4216,4 2.1138,2.2 4.5535,4 5.4216,4 0.8681,0 1.5784,0.45 1.5784,1 0,0.55 0.7103,1 1.5784,1 0.8681,0 3.3078,1.8 5.4216,4 2.1138,2.2 4.3489,4 4.9671,4 1.6668,0 6.0329,4.67125 6.0329,6.45455 0,0.85 0.45,1.54545 1,1.54545 1.7679,0 1.0657,3.51115 -1,5 -1.1,0.79284 -2,2.24218 -2,3.22076 0,1.57386 -1.0389,1.77924 -9,1.77924 -5.3333,0 -9,0.40741 -9,1 0,0.57143 -3,1 -7,1 -4,0 -7,0.42857 -7,1 0,0.55 -0.9,1 -2,1 -1.1,0 -2,0.45 -2,1 0,0.55 -0.9,1 -2,1 -1.1,0 -2,0.45 -2,1 0,0.55 -1.35,1 -3,1 -1.65,0 -3,0.45 -3,1 0,0.55 -1.2507,1 -2.7792,1 -1.6321,0 -3.3743,0.82553 -4.2208,2 -0.7928,1.1 -2.0493,2 -2.7922,2 -1.7406,0 -4.2078,2.46719 -4.2078,4.20781 0,0.74287 -0.9,1.99935 -2,2.79219 -1.1,0.79284 -2,2.24218 -2,3.22076 0,0.97858 -0.45,1.77924 -1,1.77924 -0.55,0 -1,0.9 -1,2 0,1.14799 -0.6667,2 -1.5649,2 -0.8607,0 -3.7565,2.25 -6.4351,5 -2.6786,2.75 -5.3815,5 -6.0065,5 -2.1961,0 -3.9935,2.89338 -3.9935,6.42857 0,1.96429 -0.45,3.57143 -1,3.57143 -0.55,0 -1,1.35 -1,3 0,1.65 -0.45,3 -1,3 -0.5926,0 -1,3.66667 -1,9 0,5.33333 0.4074,9 1,9 0.5714,0 1,3 1,7 0,4 -0.4286,7 -1,7 -0.55,0 -1,1.35 -1,3 0,1.65 -0.45,3 -1,3 -0.55,0 -1,1.25066 -1,2.77924 0,1.63207 -0.8255,3.37425 -2,4.22076 -1.1,0.79284 -2,2.24218 -2,3.22076 0,0.97858 -0.45,1.77924 -1,1.77924 -0.55,0 -1,0.70714 -1,1.57143 0,2.02104 -2.4075,4.42857 -4.4286,4.42857 -0.8643,0 -1.5714,0.45 -1.5714,1 0,0.55 -0.9,1 -2,1 -1.1,0 -2,0.45 -2,1 0,0.55 -1.35,1 -3,1 -1.65,0 -3,0.45 -3,1 0,0.55 -2.25,1 -5,1 -2.75,0 -5,-0.45 -5,-1 0,-0.57143 -3,-1 -7,-1 -4,0 -7,-0.42857 -7,-1 0,-0.55 -1.8,-1 -4,-1 -2.2,0 -4,-0.45 -4,-1 0,-0.55 -0.9,-1 -2,-1 -1.1,0 -2,-0.45 -2,-1 0,-0.55 -0.9,-1 -2,-1 -1.3333,0 -2,-0.66667 -2,-2 0,-1.33333 -0.6667,-2 -2,-2 -1.1,0 -2,-0.45 -2,-1 0,-0.55 -1.1695,-1 -2.5988,-1 -1.5981,0 -3.6779,-1.15516 -5.4012,-3 -1.5413,-1.65 -3.5219,-3 -4.4012,-3 -0.8793,0 -1.5988,-0.45 -1.5988,-1 0,-0.55 -1.35,-1 -3,-1 -1.65,0 -3,-0.45 -3,-1 0,-0.55 -0.9,-1 -2,-1 -1.1,0 -2,-0.45 -2,-1 0,-0.55 -1.2507,-1 -2.7792,-1 -1.6321,0 -3.3743,-0.82553 -4.2208,-2 -1.004,-1.39291 -2.5887,-2 -5.2208,-2 -2.0785,0 -3.7792,-0.45 -3.7792,-1 0,-0.55 -0.9,-1 -2,-1 -1.1,0 -2,-0.45 -2,-1 0,-0.55 -1.35,-1 -3,-1 -1.65,0 -3,-0.45 -3,-1 0,-0.55 -0.9,-1 -2,-1 -1.1,0 -2,-0.45 -2,-1 0,-0.55 -1.35,-1 -3,-1 -1.65,0 -3,-0.45 -3,-1 0,-0.55 -1.35,-1 -3,-1 -1.65,0 -3,-0.45 -3,-1 0,-0.55 -0.9,-1 -2,-1 -1.1,0 -2,-0.45 -2,-1 0,-0.55 -0.9,-1 -2,-1 -1.1,0 -2,-0.45 -2,-1 0,-0.55 -1.35,-1 -3,-1 -1.65,0 -3,-0.45 -3,-1 0,-0.55 -1.35,-1 -3,-1 -1.65,0 -3,-0.45 -3,-1 0,-0.55 -0.8007,-1 -1.7792,-1 -0.9786,0 -2.428,-0.9 -3.2208,-2 -1.0955,-1.51994 -2.5887,-2 -6.2208,-2 -2.6285,0 -4.7792,-0.45 -4.7792,-1 0,-0.55 -0.9,-1 -2,-1 -1.1,0 -2,-0.45 -2,-1 0,-0.55 -1.35,-1 -3,-1 -2.2093,0 -3,-0.46897 -3,-1.77924 0,-0.97858 -0.9,-2.42792 -2,-3.22076 -1.1,-0.79284 -2,-2.24218 -2,-3.22076 0,-1.11257 -0.7494,-1.77924 -2,-1.77924 -1.1,0 -2,-0.45 -2,-1 0,-0.55 -1.8,-1 -4,-1 -2.2,0 -4,-0.45 -4,-1 0,-0.55 -0.7103,-1 -1.5784,-1 -0.8681,0 -3.3078,-1.8 -5.4216,-4 -2.1138,-2.2 -4.5535,-4 -5.4216,-4 -0.8681,0 -1.5784,-0.45 -1.5784,-1 0,-0.55 -0.9,-1 -2,-1 -1.1,0 -2,-0.45 -2,-1 0,-0.55 -1.3125,-1 -2.9167,-1 -1.6041,0 -3.1095,-0.5625 -3.3452,-1.25 -0.2708,-0.78989 -1.5534,-0.0537 -3.4845,2 -1.6808,1.7875 -3.6761,3.25 -4.4341,3.25 -0.7579,0 -2.0267,0.9 -2.8195,2 -0.8465,1.17447 -2.5887,2 -4.2208,2 -1.5285,0 -2.7792,0.45 -2.7792,1 0,0.55 -1.8,1 -4,1 -2.2,0 -4,0.45 -4,1 0,0.55 -1.8,1 -4,1 -2.2,0 -4,0.45 -4,1 0,0.55 -1.8,1 -4,1 -2.2,0 -4,0.45 -4,1 0,0.55 -0.9,1 -2,1 -1.1,0 -2,0.45 -2,1 0,0.55 -0.9,1 -2,1 -1.1,0 -2,0.45 -2,1 0,0.55 -0.9,1 -2,1 -1.1,0 -2,0.45 -2,1 0,1.54698 -19.6906,1.30587 -20.4167,-0.25 -0.4666,-1 -0.7,-1 -1.1666,0 -0.3507,0.75141 -2.5445,1.25 -5.5,1.25 -2.7042,0 -4.9167,0.45 -4.9167,1 0,0.55 -0.9,1 -2,1 -1.3333,0 -2,0.66667 -2,2 0,1.1 -0.45,2 -1,2 -1.4818,0 -1.2486,9.71732 0.25,10.41667 1,0.46666 1,0.7 0,1.16666 -0.6875,0.32084 -1.25,1.71529 -1.25,3.09879 0,1.50553 -1.2045,3.6406 -3,5.31788 -1.65,1.54133 -3,3.52188 -3,4.40121 0,0.93212 -0.834,1.59879 -2,1.59879 -1.1,0 -2,0.45 -2,1 0,0.55 -0.7195,1 -1.5988,1 -0.8793,0 -2.8599,1.35 -4.4012,3 -1.5413,1.65 -3.5219,3 -4.4012,3 -1.1098,0 -1.5988,0.91761 -1.5988,3 0,1.65 -0.45,3 -1,3 -0.55,0 -1,1.35 -1,3 0,1.65 0.45,3 1,3 0.55,0 1,1.8 1,4 0,2.2 0.45,4 1,4 0.55,0 1,1.35 1,3 0,1.65 -0.45,3 -1,3 -0.55,0 -1,0.9 -1,2 0,1.1 -0.45,2 -1,2 -0.55,0 -1,0.9 -1,2 0,1.1 -0.45,2 -1,2 -0.55,0 -1,0.69672 -1,1.54827 0,0.85155 -3.15,4.65483 -7,8.45173 -3.85,3.7969 -7,7.41046 -7,8.03013 0,0.61967 -1.8,2.85611 -4,4.96987 -2.2,2.11376 -4,4.45414 -4,5.20084 0,0.7467 -0.9,2.00632 -2,2.79916 -1.1,0.79284 -2,2.02241 -2,2.73239 0,1.68443 -20.5832,22.26761 -22.2676,22.26761 -0.71,0 -1.9396,0.9 -2.7324,2 -0.7928,1.1 -2.2422,2 -3.2208,2 -0.9785,0 -1.7792,0.45 -1.7792,1 0,0.55 -0.8007,1 -1.7792,1 -0.9786,0 -2.428,0.9 -3.2208,2 -0.7928,1.1 -2.0616,2 -2.8195,2 -0.758,0 -2.6392,1.35 -4.1805,3 -1.5413,1.65 -3.5219,3 -4.4012,3 -0.8793,0 -1.5988,0.45 -1.5988,1 0,0.55 -0.9,1 -2,1 -1.1,0 -2,0.45 -2,1 0,0.55 -0.7195,1 -1.5988,1 -0.8793,0 -2.8599,1.35 -4.4012,3 -1.5413,1.65 -3.4225,3 -4.1805,3 -0.7579,0 -2.0267,0.9 -2.8195,2 -0.7928,1.1 -2.1428,2 -3,2 -0.8572,0 -2.2072,0.9 -3,2 -0.8465,1.17447 -2.5887,2 -4.2208,2 -1.5285,0 -2.7792,0.45 -2.7792,1 0,0.55 -0.9,1 -2,1 -1.1,0 -2,0.45 -2,1 0,0.55 -1.1695,1 -2.5988,1 -1.5981,0 -3.6779,1.15516 -5.4012,3 -1.7233,1.84484 -3.8031,3 -5.4012,3 -1.4293,0 -2.5988,0.45 -2.5988,1 0,0.55 -0.8007,1 -1.7792,1 -0.9786,0 -2.428,0.9 -3.2208,2 -0.7928,1.1 -2.4822,2 -3.7541,2 -2.6011,0 -9.2459,6.08481 -9.2459,8.46667 0,0.86666 -0.8696,1.53333 -2,1.53333 -1.1,0 -2,0.45 -2,1 0,0.55 -1.35,1 -3,1 -1.65,0 -3,0.45 -3,1 0,0.58333 -3.3333,1 -8,1 -4.6667,0 -8,0.41667 -8,1 0,1.56071 -23.7046,1.31724 -24.3405,-0.25 -0.383,-0.94376 -0.7895,-0.88251 -1.6595,0.25 -0.87,1.13251 -1.2765,1.19376 -1.6595,0.25 -0.3658,-0.90169 -3.8277,-1.25 -12.4238,-1.25 -7.2778,0 -11.9167,-0.38928 -11.9167,-1 0,-0.60606 -4.3333,-1 -11,-1 -6.6667,0 -11,-0.39394 -11,-1 0,-0.55 -1.35,-1 -3,-1 -1.65,0 -3,-0.45 -3,-1 0,-0.55 -2.25,-1 -5,-1 -2.75,0 -5,-0.45 -5,-1 0,-0.60606 -4.3333,-1 -11,-1 -6.6667,0 -11,-0.39394 -11,-1 0,-0.55 -0.9,-1 -2,-1 -1.1,0 -2,-0.45 -2,-1 0,-0.55556 -2.6667,-1 -6,-1 -3.3333,0 -6,-0.44444 -6,-1 0,-0.55 -2.25,-1 -5,-1 -2.75,0 -5,-0.45 -5,-1 0,-0.59259 -3.6667,-1 -9,-1 -5.3333,0 -9,-0.40741 -9,-1 0,-0.55 -2.1507,-1 -4.7792,-1 -3.6321,0 -5.1253,-0.48006 -6.2208,-2 -1.2289,-1.70507 -2.5887,-2 -9.2208,-2 -4.5195,0 -7.7792,-0.41903 -7.7792,-1 0,-0.59259 -3.6667,-1 -9,-1 -5.3333,0 -9,-0.40741 -9,-1 0,-0.57143 -3,-1 -7,-1 -4,0 -7,-0.42857 -7,-1 0,-0.55 -1.8,-1 -4,-1 -2.2,0 -4,-0.45 -4,-1 0,-0.55 -2.25,-1 -5,-1 -2.75,0 -5,0.45 -5,1 0,0.58333 -3.3333,1 -8,1 -4.6667,0 -8,-0.41667 -8,-1 0,-0.55 -1.35,-1 -3,-1 -1.65,0 -3,0.45 -3,1 0,0.55 -2.25,1 -5,1 -2.75,0 -5,0.45 -5,1 0,0.58333 -3.3333,1 -8,1 -4.6667,0 -8,0.41667 -8,1 0,0.55 -1.8,1 -4,1 -2.2,0 -4,0.45 -4,1 0,0.55 -1.35,1 -3,1 -1.65,0 -3,0.45 -3,1 0,0.55 -1.35,1 -3,1 -1.65,0 -3,0.45 -3,1 0,0.55 -1.7007,1 -3.7792,1 -2.6321,0 -4.2168,0.60709 -5.2208,2 -0.7928,1.1 -2.2422,2 -3.2208,2 -0.9785,0 -1.7792,0.45 -1.7792,1 0,0.55 -0.8007,1 -1.7792,1 -0.9786,0 -2.428,0.9 -3.2208,2 -0.7928,1.1 -2.2422,2 -3.2208,2 -0.9785,0 -1.7792,0.45 -1.7792,1 0,0.55 -0.9,1 -2,1 -1.1,0 -2,0.45 -2,1 0,0.55 -0.9,1 -2,1 -1.3333,0 -2,0.66667 -2,2 0,1.47126 -0.6667,2 -2.5217,2 -1.7221,0 -4.2589,1.73713 -8,5.47826 -3.0131,3.01304 -5.4783,5.97332 -5.4783,6.5784 0,0.60508 -1.8,2.82958 -4,4.94334 -2.2,2.11376 -4,4.37293 -4,5.02039 0,0.64745 -1.35,2.43828 -3,3.97961 -1.65,1.54133 -3,3.52188 -3,4.40121 0,0.87933 -0.45,1.59879 -1,1.59879 -0.55,0 -1,1.35 -1,3 0,2.61371 -0.3579,3 -2.7792,3 -1.6321,0 -3.3743,0.82553 -4.2208,2 -1.0039,1.39291 -2.5887,2 -5.2208,2 -2.0785,0 -3.7792,0.45 -3.7792,1 0,0.56833 -2.9264,1 -6.7792,1 -5.6321,0 -7.0232,0.33844 -8.2208,2 -0.8465,1.17447 -2.5887,2 -4.2208,2 -1.5285,0 -2.7792,0.45 -2.7792,1 0,0.55 -0.9,1 -2,1 -1.1,0 -2,0.45 -2,1 0,0.55 -0.9,1 -2,1 -1.7778,0 -2,0.66667 -2,6 0,3.33333 0.4444,6 1,6 0.55,0 1,1.8 1,4 0,2.2 0.45,4 1,4 0.55,0 1,1.35 1,3 0,1.65 0.45,3 1,3 0.55,0 1,0.9 1,2 0,1.1 0.45,2 1,2 0.55,0 1,0.71946 1,1.59879 0,0.87933 1.35,2.85988 3,4.40121 1.65,1.54133 3,3.33216 3,3.97961 0,0.64746 1.8,2.90663 4,5.02039 2.2,2.11376 4,4.45414 4,5.20084 0,0.7467 0.9,2.00632 2,2.79916 1.1,0.79284 2,2.02902 2,2.74708 0,1.82121 8.6132,10.25292 10.4737,10.25292 0.9649,0 1.5263,0.92754 1.5263,2.52174 0,1.72211 1.7371,4.25887 5.4783,8 3.013,3.01304 5.9573,5.47826 6.5427,5.47826 0.5855,0 4.6261,3.6 8.979,8 4.3529,4.4 8.5094,8 9.2365,8 0.7271,0 1.9707,0.9 2.7635,2 0.7928,1.1 2.0464,2 2.7857,2 0.7393,0 3.5357,2.25 6.2143,5 2.6786,2.75 5.5744,5 6.4351,5 0.8607,0 1.5649,0.45 1.5649,1 0,0.55 0.9,1 2,1 1.1,0 2,0.45 2,1 0,0.55 1.1467,1 2.5483,1 1.8308,0 4.4918,1.9707 9.4517,7 3.7969,3.85 7.6002,7 8.4517,7 0.8516,0 1.5483,0.45 1.5483,1 0,0.55 0.8007,1 1.7792,1 0.9786,0 2.428,0.9 3.2208,2 0.7928,1.1 2.2422,2 3.2208,2 0.9785,0 1.7792,0.45 1.7792,1 0,0.55 1.6071,1 3.5714,1 3.5392,0 6.4286,1.7978 6.4286,4 0,1.9725 2.7516,4 5.4286,4 1.4143,0 2.5714,0.45 2.5714,1 0,0.55 0.7042,1 1.5649,1 0.8607,0 3.7565,2.25 6.4351,5 2.6786,2.75 5.5744,5 6.4351,5 0.8607,0 1.5649,0.45 1.5649,1 0,0.55 0.9,1 2,1 1.1,0 2,0.45 2,1 0,0.55 0.9,1 2,1 1.1,0 2,0.45 2,1 0,0.55 1.35,1 3,1 1.65,0 3,0.45 3,1 0,0.55 0.9,1 2,1 1.1,0 2,0.45 2,1 0,0.55 0.9,1 2,1 1.1,0 2,0.45 2,1 0,0.55 0.9,1 2,1 1.1,0 2,0.45 2,1 0,0.55 0.9,1 2,1 1.1,0 2,0.45 2,1 0,0.55 0.9,1 2,1 1.1,0 2,0.45 2,1 0,0.55 1.8,1 4,1 2.2,0 4,0.45 4,1 0,0.55 1.8,1 4,1 2.2,0 4,0.45 4,1 0,0.5556 2.6667,1 6,1 3.3333,0 6,0.4444 6,1 0,0.5714 3,1 7,1 4,0 7,0.4286 7,1 0,0.55 0.9,1 2,1 1.1,0 2,0.45 2,1 0,0.55 1.35,1 3,1 1.65,0 3,0.45 3,1 0,0.55 0.9,1 2,1 1.1,0 2,0.45 2,1 0,0.55 2.25,1 5,1 2.75,0 5,0.45 5,1 0,0.55 1.35,1 3,1 1.65,0 3,0.45 3,1 0,0.55 1.8,1 4,1 2.2,0 4,0.45 4,1 0,0.55 1.35,1 3,1 1.65,0 3,0.45 3,1 0,0.55 1.5955,1 3.5455,1 4.8075,0 8.4545,-3.647 8.4545,-8.4545 0,-3.1276 0.2986,-3.5455 2.5333,-3.5455 3.3777,0 9.4667,-6.089 9.4667,-9.4667 0,-1.7619 -0.5418,-2.5333 -1.7792,-2.5333 -0.9786,0 -2.428,-0.9 -3.2208,-2 -1.0955,-1.5199 -2.5887,-2 -6.2208,-2 -2.6285,0 -4.7792,-0.45 -4.7792,-1 0,-0.5833 -3.3333,-1 -8,-1 -4.6667,0 -8,-0.4167 -8,-1 0,-0.55 -1.2507,-1 -2.7792,-1 -1.6321,0 -3.3743,-0.8255 -4.2208,-2 -0.7928,-1.1 -2.1428,-2 -3,-2 -0.8572,0 -2.2072,-0.9 -3,-2 -0.7928,-1.1 -2.0616,-2 -2.8195,-2 -0.758,0 -2.7533,-1.4625 -4.4341,-3.25 -1.9311,-2.0537 -3.2137,-2.7899 -3.4845,-2 -0.2357,0.6875 -1.2911,1.25 -2.3452,1.25 -1.0542,0 -1.9167,0.45 -1.9167,1 0,0.55 -0.9,1 -2,1 -1.1,0 -2,0.45 -2,1 0,0.55 -1.8,1 -4,1 l -4,0 0,-5 c 0,-2.75 0.45,-5 1,-5 0.55,0 1,-1.35 1,-3 0,-2.9333 -0.1111,-3 -5,-3 -2.75,0 -5,0.45 -5,1 0,0.55 -0.9,1 -2,1 -1.1,0 -2,0.45 -2,1 0,0.55 -0.8007,1 -1.7792,1 -0.9786,0 -2.428,0.9 -3.2208,2 -1.0955,1.5199 -2.5887,2 -6.2208,2 l -4.7792,0 0,-6 c 0,-5.0852 0.2713,-6 1.7792,-6 0.9786,0 2.428,-0.9 3.2208,-2 0.7928,-1.1 2.2422,-2 3.2208,-2 0.9785,0 1.7792,-0.45 1.7792,-1 0,-0.55 0.9,-1 2,-1 1.1,0 2,-0.45 2,-1 0,-0.55 0.9,-1 2,-1 1.4762,0 2,-0.6667 2,-2.5454 0,-2.6854 -3.9882,-7.4546 -6.2338,-7.4546 -0.7286,0 -1.9734,-0.9 -2.7662,-2 -0.7928,-1.1 -2.2422,-2 -3.2208,-2 -0.9785,0 -1.7792,-0.45 -1.7792,-1 0,-0.5714 -3,-1 -7,-1 -4,0 -7,0.4286 -7,1 0,0.55 -0.9,1 -2,1 -1.1,0 -2,0.45 -2,1 0,0.55 -0.7071,1 -1.5714,1 -1.8311,0 -4.4286,2.3461 -4.4286,4 0,1.4757 -2.5243,4 -4,4 -2.3985,0 -4,-2.9743 -4,-7.4286 0,-2.5143 0.45,-4.5714 1,-4.5714 0.55,0 1,-1.8 1,-4 0,-2.2 0.45,-4 1,-4 0.55,0 1,-0.7071 1,-1.5714 0,-2.0211 2.4075,-4.4286 4.4286,-4.4286 0.8643,0 1.5714,-0.45 1.5714,-1 0,-0.55 0.9,-1 2,-1 1.1,0 2,-0.45 2,-1 0,-0.55556 2.6667,-1 6,-1 3.3333,0 6,0.44444 6,1 0,0.55 2.25,1 5,1 2.75,0 5,0.45 5,1 0,0.55 0.7195,1 1.5988,1 0.8793,0 2.8599,1.35 4.4012,3 1.5413,1.65 3.5219,3 4.4012,3 0.8793,0 1.5988,0.7071 1.5988,1.5714 0,1.8185 2.3422,4.4286 3.974,4.4286 1.6614,0 6.026,4.6751 6.026,6.4546 0,0.85 0.45,1.5454 1,1.5454 0.55,0 1,0.9 1,2 0,1.3333 0.6667,2 2,2 1.1,0 2,0.45 2,1 0,0.55 1.35,1 3,1 2.0392,0 3,-0.4949 3,-1.5454 0,-2.0005 -4.4541,-6.4546 -6.4545,-6.4546 -1.9891,0 -2.0712,-4.6171 -0.1169,-6.5714 2.1522,-2.1523 7.8536,-1.8119 9.5714,0.5714 0.8465,1.1745 2.5887,2 4.2208,2 1.8306,0 2.7792,0.5234 2.7792,1.5333 0,2.5194 6.6498,8.4667 9.4667,8.4667 1.3933,0 2.5333,0.45 2.5333,1 0,0.55 1.8,1 4,1 2.2,0 4,0.45 4,1 0,0.55 0.9,1 2,1 1.1,0 2,0.45 2,1 0,0.55 1.35,1 3,1 1.65,0 3,0.45 3,1 0,0.55 0.9,1 2,1 1.1,0 2,0.45 2,1 0,0.5556 2.6667,1 6,1 3.3333,0 6,0.4444 6,1 0,0.55 0.9,1 2,1 1.1,0 2,0.45 2,1 0,0.55 0.9,1 2,1 1.1,0 2,0.45 2,1 0,0.55 0.7195,1 1.5988,1 0.8793,0 2.8599,1.35 4.4012,3 1.5413,1.65 3.7673,3 4.9467,3 2.4808,0 7.0533,4.1843 7.0533,6.4546 0,0.85 0.7071,1.5454 1.5714,1.5454 1.8311,0 4.4286,2.3461 4.4286,4 0,2.7095 2.9708,4 9.2078,4 5.2035,0 6.6111,0.3613 7.7922,2 0.7952,1.1032 2.5887,2 4,2 1.4113,0 3.2048,0.8968 4,2 0.8465,1.1745 2.5887,2 4.2208,2 1.5285,0 2.7792,0.45 2.7792,1 0,0.55 0.6823,1 1.5161,1 0.8339,0 4.8839,3.3677 9,7.4839 5.346,5.346 7.4839,8.2026 7.4839,10 0,1.3838 0.45,2.5161 1,2.5161 0.55,0 1,1.35 1,3 0,1.65 0.45,3 1,3 0.55,0 1,1.35 1,3 0,1.65 0.45,3 1,3 0.5714,0 1,3 1,7 0,4 -0.4286,7 -1,7 -0.55,0 -1,1.35 -1,3 0,1.65 -0.45,3 -1,3 -0.55,0 -1,0.9 -1,2 0,1.1304 -0.6667,2 -1.5333,2 -0.8434,0 -3.0934,1.56 -5,3.4667 -1.9067,1.9066 -3.4667,4.1566 -3.4667,5 0,0.8433 -0.7103,1.5333 -1.5784,1.5333 -0.8681,0 -3.3078,1.8 -5.4216,4 -2.1138,2.2 -4.5535,4 -5.4216,4 -0.8681,0 -1.5784,0.45 -1.5784,1 0,0.55 -1.35,1 -3,1 -1.65,0 -3,0.45 -3,1 0,0.55 -1.8,1 -4,1 -2.2,0 -4,0.45 -4,1 0,0.55 -2.25,1 -5,1 -2.75,0 -5,0.45 -5,1 0,0.55 -0.9,1 -2,1 -1.1,0 -2,0.45 -2,1 0,0.6222 -5.6667,1 -15,1 -9.3333,0 -15,-0.3778 -15,-1 0,-0.6 -4,-1 -10,-1 -6,0 -10,-0.4 -10,-1 0,-0.625 -6,-1 -16,-1 -10,0 -16,-0.375 -16,-1 0,-0.55 -1.8,-1 -4,-1 -2.2,0 -4,-0.45 -4,-1 0,-0.6 -4,-1 -10,-1 -6,0 -10,-0.4 -10,-1 0,-0.6 -4,-1 -10,-1 -6,0 -10,-0.4 -10,-1 0,-0.5556 -2.6667,-1 -6,-1 -3.3333,0 -6,-0.4444 -6,-1 0,-0.5714 -3,-1 -7,-1 -4,0 -7,-0.4286 -7,-1 0,-0.5907 -3.5931,-1 -8.7792,-1 -7.6321,0 -8.9676,-0.2613 -10.2208,-2 -0.8465,-1.1745 -2.5887,-2 -4.2208,-2 -1.5285,0 -2.7792,-0.45 -2.7792,-1 0,-0.55 -1.8,-1 -4,-1 -2.2,0 -4,-0.45 -4,-1 0,-0.55 -1.8,-1 -4,-1 -2.2,0 -4,-0.45 -4,-1 0,-0.55 -1.7007,-1 -3.7792,-1 -2.6321,0 -4.2168,-0.6071 -5.2208,-2 -0.7928,-1.1 -2.2422,-2 -3.2208,-2 -0.9785,0 -1.7792,-0.45 -1.7792,-1 0,-0.55 -0.9,-1 -2,-1 -1.1,0 -2,-0.45 -2,-1 0,-0.55 -1.7007,-1 -3.7792,-1 -2.6321,0 -4.2168,-0.6071 -5.2208,-2 -0.7928,-1.1 -2.2422,-2 -3.2208,-2 -0.9785,0 -1.7792,-0.45 -1.7792,-1 0,-0.55 -0.9,-1 -2,-1 -1.1,0 -2,-0.45 -2,-1 0,-0.55 -0.8007,-1 -1.7792,-1 -0.9786,0 -2.428,-0.9 -3.2208,-2 -0.8465,-1.1745 -2.5887,-2 -4.2208,-2 -1.5285,0 -2.7792,-0.45 -2.7792,-1 0,-0.55 -0.9,-1 -2,-1 -1.1,0 -2,-0.45 -2,-1 0,-0.55 -0.7195,-1 -1.5988,-1 -0.8793,0 -2.8599,-1.35 -4.4012,-3 -1.5413,-1.65 -3.5219,-3 -4.4012,-3 -0.8793,0 -1.5988,-0.45 -1.5988,-1 0,-0.55 -1.1442,-1 -2.5428,-1 -1.8522,0 -4.692,-2.1724 -10.4572,-8 -4.3529,-4.4 -8.4054,-8 -9.0055,-8 -0.6001,0 -4.1976,-3.15 -7.9945,-7 -3.7969,-3.85 -7.3902,-7 -7.9851,-7 C 942.0914,750 936,743.131 936,740.9619 936,738.4779 933.7885,736 931.5714,736 930.5503,736 930,735.0996 930,733.4286 930,730.7516 927.9725,728 926,728 c -1.6539,0 -4,-2.5975 -4,-4.4286 0,-0.8643 -0.45,-1.5714 -1,-1.5714 -0.55,0 -1,-0.8007 -1,-1.7792 0,-0.9786 -0.9,-2.428 -2,-3.2208 -1.1,-0.7928 -2,-2.2422 -2,-3.2208 C 916,712.8007 915.2929,712 914.4286,712 912.068,712 910,709.465 910,706.5714 910,705.1571 909.55,704 909,704 c -0.55,0 -1,-0.9 -1,-2 0,-1.1 -0.45,-2 -1,-2 -0.55,0 -1,-1.35 -1,-3 0,-1.65 -0.45,-3 -1,-3 -0.55,0 -1,-1.35 -1,-3 0,-1.65 0.45,-3 1,-3 0.55,0 1,-0.9 1,-2 0,-1.1 0.45,-2 1,-2 0.55,0 1,-1.8 1,-4 0,-3.33333 -0.3333,-4 -2,-4 -1.3333,0 -2,0.66667 -2,2 0,1.1 -0.45,2 -1,2 -0.55,0 -1,0.9 -1,2 0,1.1 -0.45,2 -1,2 -0.55,0 -1,1.35 -1,3 0,1.65 -0.45,3 -1,3 -0.5556,0 -1,2.6667 -1,6 0,3.3333 -0.4444,6 -1,6 -0.55,0 -1,1.8 -1,4 0,2.2 -0.45,4 -1,4 -0.55,0 -1,1.35 -1,3 0,1.65 -0.45,3 -1,3 -0.55,0 -1,1.35 -1,3 0,1.65 -0.45,3 -1,3 -0.55,0 -1,0.9 -1,2 0,1.1 -0.45,2 -1,2 -0.55,0 -1,0.9 -1,2 0,1.1 -0.45,2 -1,2 -0.55,0 -1,0.8007 -1,1.7792 0,0.9786 -0.9,2.428 -2,3.2208 -1.1,0.7928 -2,2.5025 -2,3.7992 0,1.4433 -1.5511,3.8479 -4,6.2008 -2.2,2.1138 -4,4.5535 -4,5.4216 0,0.8681 -0.45,1.5784 -1,1.5784 -0.55,0 -1,0.9 -1,2 0,1.1 -0.45,2 -1,2 -0.55,0 -1,1.1695 -1,2.5988 0,1.5981 -1.1552,3.6779 -3,5.4012 -1.65,1.5413 -3,3.5219 -3,4.4012 0,0.8793 -0.45,1.5988 -1,1.5988 -0.55,0 -1,1.1455 -1,2.5455 0,2.8064 -4.0246,7.4545 -6.4545,7.4545 -0.85,0 -1.5455,0.45 -1.5455,1 0,0.55 -0.7071,1 -1.5714,1 -2.2386,0 -4.4286,2.4861 -4.4286,5.0274 0,1.1936 -1.35,3.4313 -3,4.9726 -1.65,1.5413 -3,3.4225 -3,4.1804 0,0.758 -0.9,2.0268 -2,2.8196 -1.1032,0.7952 -2,2.5887 -2,4 0,1.4113 -0.8968,3.2048 -2,4 -1.1,0.7928 -2,2.1428 -2,3 0,0.8572 -0.9,2.2072 -2,3 -1.5199,1.0955 -2,2.5887 -2,6.2208 0,2.6285 -0.45,4.7792 -1,4.7792 -0.55,0 -1,0.9 -1,2 0,1.1 -0.45,2 -1,2 -0.5556,0 -1,2.6667 -1,6 0,3.3333 -0.4444,6 -1,6 -0.5714,0 -1,3 -1,7 0,4 -0.4286,7 -1,7 -0.5833,0 -1,3.3333 -1,8 0,4.6667 0.4167,8 1,8 0.55,0 1,1.1348 1,2.5217 0,1.7222 1.7371,4.2589 5.4783,8 3.013,3.0131 5.9585,5.4783 6.5454,5.4783 0.587,0 2.1718,1.1046 3.5218,2.4546 2.106,2.106 2.4545,3.3838 2.4545,9 0,3.6969 -0.4352,6.5454 -1,6.5454 -0.55,0 -1,0.9 -1,2 0,1.1 -0.45,2 -1,2 -0.55,0 -1,1.35 -1,3 0,1.65 -0.45,3 -1,3 -0.55,0 -1,0.7071 -1,1.5714 0,1.8185 -2.3422,4.4286 -3.974,4.4286 -1.6614,0 -6.026,4.6751 -6.026,6.4546 0,0.85 -0.45,1.5454 -1,1.5454 -0.55,0 -1,0.9 -1,2 0,1.1 -0.45,2 -1,2 -0.55,0 -1,1.35 -1,3 0,2.3333 0.4444,3 2,3 1.1,0 2,0.45 2,1 0,0.55 1.5955,1 3.5455,1 3.7903,0 8.4545,3.5608 8.4545,6.4546 0,0.85 0.45,1.5454 1,1.5454 0.55,0 1,0.9 1,2 0,1.3333 0.6667,2 2,2 1.3333,0 2,0.6667 2,2 0,1.1 0.45,2 1,2 0.55,0 1,0.9 1,2 0,1.4869 0.6667,2 2.5988,2 1.5981,0 3.6779,1.1552 5.4012,3 1.7233,1.8448 3.8031,3 5.4012,3 1.4293,0 2.5988,0.45 2.5988,1 0,0.55 1.7007,1 3.7792,1 2.6321,0 4.2169,0.6071 5.2208,2 0.8465,1.1745 2.5887,2 4.2208,2 1.5285,0 2.7792,0.45 2.7792,1 0,0.55 1.35,1 3,1 1.65,0 3,0.45 3,1 0,0.55 2.25,1 5,1 2.75,0 5,0.45 5,1 0,0.55 0.6967,1 1.5483,1 0.8515,0 4.6548,3.15 8.4517,7 3.7969,3.85 7.3956,7 7.9972,7 1.893,0 6.0028,4.8151 6.0028,7.0329 0,1.1707 1.7953,3.8488 4,5.9671 2.4489,2.3529 4,4.7575 4,6.2008 0,1.2967 0.9,3.0064 2,3.7992 1.1,0.7928 2,2.2422 2,3.2208 0,0.9785 0.45,1.7792 1,1.7792 0.55,0 1,0.9 1,2 0,1.1 0.45,2 1,2 0.55,0 1,0.9 1,2 0,1.1 0.45,2 1,2 0.55,0 1,0.9 1,2 0,1.1 0.45,2 1,2 0.55,0 1,2.25 1,5 0,2.75 0.45,5 1,5 0.5714,0 1,3 1,7 0,4 0.4286,7 1,7 0.5714,0 1,3 1,7 0,4 -0.4286,7 -1,7 -0.55,0 -1,2.25 -1,5 0,2.75 -0.45,5 -1,5 -0.5833,0 -1,3.3333 -1,8 0,4.6667 -0.4167,8 -1,8 -0.55,0 -1,0.9 -1,2 0,1.1 -0.45,2 -1,2 -0.55,0 -1,1.35 -1,3 0,1.65 0.45,3 1,3 0.55,0 1,0.9 1,2 0,1.1 0.45,2 1,2 0.55,0 1,1.2507 1,2.7792 0,1.6321 0.8255,3.3743 2,4.2208 1.1,0.7928 2,2.2422 2,3.2208 0,0.9785 0.45,1.7792 1,1.7792 0.55,0 1,1.35 1,3 0,1.65 0.45,3 1,3 0.5556,0 1,2.6667 1,6 0,3.3333 0.4444,6 1,6 0.55,0 1,1.35 1,3 0,1.65 0.45,3 1,3 0.55,0 1,0.9 1,2 0,1.1 0.45,2 1,2 0.55,0 1,0.7103 1,1.5784 0,0.8681 1.8,3.3078 4,5.4216 2.2,2.1138 4,4.3489 4,4.9671 0,0.6181 1.1046,2.2284 2.4546,3.5784 2.0676,2.0676 3.4126,2.4545 8.5333,2.4545 5.6027,0 6.3503,0.2715 9.5454,3.4667 2.131,2.131 3.4667,4.4427 3.4667,6 0,1.3933 0.45,2.5333 1,2.5333 0.55,0 1,2.25 1,5 l 0,5 6.7792,0 c 5.6321,0 7.0232,0.3384 8.2208,2 0.7928,1.1 2.2422,2 3.2208,2 0.9785,0 1.7792,0.45 1.7792,1 0,0.55 0.9,1 2,1 1.1,0 2,0.45 2,1 0,0.55 0.6868,1 1.5263,1 0.8395,0 3.5395,2.0132 6,4.4737 3.6067,3.6067 4.4737,5.1571 4.4737,8 0,1.9395 0.45,3.5263 1,3.5263 0.55,0 1,0.8007 1,1.7792 0,0.9786 0.9,2.428 2,3.2208 1.1,0.7928 2,2.2422 2,3.2208 0,0.9785 0.45,1.7792 1,1.7792 0.55,0 1,1.8 1,4 0,2.2 0.45,4 1,4 0.6,0 1,4 1,10 0,6 -0.4,10 -1,10 -0.55,0 -1,2.25 -1,5 0,2.75 -0.45,5 -1,5 -0.55,0 -1,1.35 -1,3 0,1.65 -0.45,3 -1,3 -0.55,0 -1,1.8 -1,4 0,2.2 -0.45,4 -1,4 -0.55,0 -1,0.9 -1,2 0,1.1 -0.45,2 -1,2 -0.5926,0 -1,3.6667 -1,9 0,5.3333 -0.4074,9 -1,9 -0.5714,0 -1,3 -1,7 0,4 0.4286,7 1,7 0.55,0 1,0.9 1,2 0,1.1 -0.45,2 -1,2 -0.6,0 -1,4 -1,10 0,6 -0.4,10 -1,10 -0.5714,0 -1,3 -1,7 0,4 -0.4286,7 -1,7 -0.55,0 -1,0.9 -1,2 0,1.1 -0.45,2 -1,2 -0.55,0 -1,1.8 -1,4 0,2.2 -0.45,4 -1,4 -0.55,0 -1,0.9 -1,2 0,1.1 -0.45,2 -1,2 -0.55,0 -1,1.2507 -1,2.7792 0,1.6321 -0.8255,3.3743 -2,4.2208 -1.1745,0.8465 -2,2.5887 -2,4.2208 0,1.5285 -0.45,2.7792 -1,2.7792 -0.55,0 -1,1.6195 -1,3.5988 0,2.7092 -0.7416,4.2915 -3,6.4012 -1.65,1.5413 -3,3.7822 -3,4.9796 0,1.2329 -1.735,3.8442 -4,6.0204 -2.2,2.1138 -4,4.5535 -4,5.4216 0,1.0287 -0.8956,1.5784 -2.5714,1.5784 -2.677,0 -5.4286,2.0275 -5.4286,4 0,1.566 -2.5604,4 -4.2078,4 -0.7429,0 -1.9994,0.9 -2.7922,2 -0.7928,1.1 -2.1428,2 -3,2 -0.8572,0 -2.2072,0.9 -3,2 -0.8465,1.1745 -2.5887,2 -4.2208,2 -1.5285,0 -2.7792,0.45 -2.7792,1 0,0.55 -1.35,1 -3,1 -1.65,0 -3,0.45 -3,1 0,0.55 -1.35,1 -3,1 -1.65,0 -3,0.45 -3,1 0,0.55 -1.35,1 -3,1 -1.65,0 -3,0.45 -3,1 0,0.5556 -2.6667,1 -6,1 -3.3333,0 -6,0.4444 -6,1 0,0.64 -9,1 -25,1 -16,0 -25,-0.36 -25,-1 0,-0.55 -2.25,-1 -5,-1 -2.75,0 -5,-0.45 -5,-1 0,-0.55 -2.25,-1 -5,-1 -2.75,0 -5,0.45 -5,1 0,0.5714 -3,1 -7,1 -4,0 -7,0.4286 -7,1 0,0.6061 -4.3333,1 -11,1 -6.6667,0 -11,0.3939 -11,1 0,0.55 -1.35,1 -3,1 -1.65,0 -3,-0.45 -3,-1 z M 1322,377 c 0,-0.55 2.25,-1 5,-1 2.75,0 5,-0.45 5,-1 0,-0.55 0.9,-1 2,-1 1.1,0 2,-0.45 2,-1 0,-0.55 1.7007,-1 3.7792,-1 2.6321,0 4.2168,-0.60709 5.2208,-2 0.7928,-1.1 2.1428,-2 3,-2 0.8572,0 2.2072,-0.9 3,-2 0.7928,-1.1 2.0616,-2 2.8195,-2 0.758,0 2.6392,-1.35 4.1805,-3 1.5413,-1.65 3.3119,-3 3.9345,-3 1.6862,0 8.0655,-6.69661 8.0655,-8.46667 0,-0.84333 0.7103,-1.53333 1.5784,-1.53333 0.8681,0 3.3078,-1.8 5.4216,-4 2.1138,-2.2 4.3729,-4 5.0204,-4 0.6474,0 2.4383,-1.35 3.9796,-3 1.5413,-1.65 3.3413,-3 4,-3 0.6587,0 2.4587,-1.35 4,-3 2.1097,-2.25845 3.692,-3 6.4012,-3 1.9793,0 3.5988,-0.45 3.5988,-1 0,-0.55 0.6999,-1 1.5554,-1 0.8554,0 4.2055,-2.7 7.4446,-6 3.2391,-3.3 6.5892,-6 7.4446,-6 0.8555,0 1.5554,-0.71946 1.5554,-1.59879 0,-0.87933 1.35,-2.85988 3,-4.40121 1.65,-1.54133 3,-3.33216 3,-3.97961 0,-0.64746 1.8,-2.90663 4,-5.02039 2.2,-2.11376 4,-4.45414 4,-5.20084 0,-0.7467 0.9,-2.00632 2,-2.79916 1.1,-0.79284 2,-2.24218 2,-3.22076 0,-0.97858 0.45,-1.77924 1,-1.77924 0.55,0 1,-1.8 1,-4 0,-2.2 0.45,-4 1,-4 0.55,0 1,-1.8 1,-4 0,-2.2 0.45,-4 1,-4 0.55,0 1,-0.9 1,-2 0,-1.1 -0.45,-2 -1,-2 -0.55,0 -1,-0.9 -1,-2 0,-1.1 -0.45,-2 -1,-2 -0.55,0 -1,-1.35 -1,-3 0,-2.66667 -0.3333,-3 -3,-3 -1.65,0 -3,-0.45 -3,-1 0,-0.55 -0.9,-1 -2,-1 -1.1,0 -2,-0.34015 -2,-0.75589 0,-1.07082 -5.2044,-3.24074 -9.4093,-3.9231 -1.9573,-0.31762 -4.071,-1.19479 -4.6971,-1.94925 -0.6474,-0.78006 -3.0267,-1.37176 -5.516,-1.37176 -2.4077,0 -4.3776,-0.45 -4.3776,-1 0,-0.55 -1.8,-1 -4,-1 -2.2,0 -4,-0.45 -4,-1 0,-0.55 -1.035,-1 -2.3,-1 -1.265,0 -2.762,-0.46196 -3.3266,-1.02658 -0.5646,-0.56461 -3.3512,-1.30189 -6.1924,-1.63839 -2.8412,-0.3365 -5.6743,-1.22454 -6.2959,-1.97342 -0.6215,-0.74889 -2.3983,-1.36161 -3.9485,-1.36161 -1.5502,0 -3.0967,-0.45 -3.4366,-1 -0.3399,-0.55 -1.6899,-1 -3,-1 -1.3101,0 -2.6601,-0.45 -3,-1 -0.3399,-0.55 -1.9149,-1 -3.5,-1 -1.5851,0 -3.1601,-0.45 -3.5,-1 -0.3399,-0.55 -1.7323,-1 -3.0942,-1 -1.3619,0 -3.4728,-0.62622 -4.691,-1.3916 -1.2181,-0.76538 -4.4274,-1.70422 -7.1317,-2.0863 -2.7043,-0.38209 -6.0217,-1.41858 -7.372,-2.30333 -1.3503,-0.88474 -4.5377,-1.94314 -7.0831,-2.35198 -2.5454,-0.40885 -5.7771,-1.03169 -7.1815,-1.38409 -2.098,-0.52644 -2.7669,-0.17232 -3.75,1.98534 -0.6581,1.44434 -1.2087,3.39239 -1.2236,4.32901 -0.034,2.16994 -6.5199,9.20295 -8.4864,9.20295 -0.8176,0 -1.4865,0.45 -1.4865,1 0,0.55 -1.35,1 -3,1 -1.65,0 -3,0.45 -3,1 0,0.55 -1.8,1 -4,1 -2.2,0 -4,0.45 -4,1 0,0.55 -1.35,1 -3,1 -1.65,0 -3,0.45 -3,1 0,0.55 -0.9,1 -2,1 -1.1,0 -2,0.45 -2,1 0,0.55 -0.9,1 -2,1 -1.1,0 -2,0.45 -2,1 0,0.55556 -2.6667,1 -6,1 -3.3333,0 -6,0.44444 -6,1 0,0.55 -2.25,1 -5,1 -2.75,0 -5,0.45 -5,1 0,0.62222 -5.6667,1 -15,1 -9.3333,0 -15,-0.37778 -15,-1 0,-0.60606 -4.3333,-1 -11,-1 -6.6667,0 -11,0.39394 -11,1 0,0.55 -0.9,1 -2,1 -1.1,0 -2,0.45 -2,1 0,0.55 -0.8007,1 -1.7792,1 -0.9786,0 -2.428,0.9 -3.2208,2 -0.7928,1.1 -2.1428,2 -3,2 -0.8572,0 -2.2072,0.9 -3,2 -0.7928,1.1 -2.2422,2 -3.2208,2 -0.9785,0 -1.7792,0.45 -1.7792,1 0,0.55 -1.8,1 -4,1 -2.2,0 -4,0.45 -4,1 0,0.55 -1.35,1 -3,1 -1.65,0 -3,0.45 -3,1 0,0.55 -1.2507,1 -2.7792,1 -1.6321,0 -3.3743,0.82553 -4.2208,2 -0.7928,1.1 -2.2422,2 -3.2208,2 -0.9785,0 -1.7792,0.45 -1.7792,1 0,0.55 -0.9,1 -2,1 -1.1,0 -2,0.45 -2,1 0,0.55 -1.35,1 -3,1 -1.65,0 -3,0.45 -3,1 0,0.55 -2.25,1 -5,1 -2.75,0 -5,-0.45 -5,-1 0,-0.55 -1.35,-1 -3,-1 -1.65,0 -3,-0.45 -3,-1 0,-0.55 -0.8007,-1 -1.7792,-1 -0.9786,0 -2.428,-0.9 -3.2208,-2 -0.7928,-1.1 -2.2422,-2 -3.2208,-2 -0.9785,0 -1.7792,-0.45 -1.7792,-1 0,-0.55 -2.25,-1 -5,-1 -2.75,0 -5,-0.45 -5,-1 0,-0.55 -0.9,-1 -2,-1 -1.1,0 -2,-0.45 -2,-1 0,-0.55 -0.9,-1 -2,-1 -1.1,0 -2,-0.45 -2,-1 0,-0.55 -0.8007,-1 -1.7792,-1 -0.9786,0 -2.428,-0.9 -3.2208,-2 -1.1554,-1.603 -2.5887,-2 -7.2208,-2 -3.1861,0 -5.7792,-0.44869 -5.7792,-1 0,-0.55 -1.8,-1 -4,-1 -2.2,0 -4,0.45 -4,1 0,0.55 -1.35,1 -3,1 -1.65,0 -3,0.45 -3,1 0,0.55 -1.8,1 -4,1 -2.2,0 -4,0.45 -4,1 0,0.57143 -3,1 -7,1 -4,0 -7,-0.42857 -7,-1 0,-1.5089 -2.9436,-1.19927 -4.6299,0.48701 -1.316,1.31602 -1.198,1.77599 1.026,4 1.8701,1.87011 3.5662,2.51299 6.6299,2.51299 4.7281,0 6.974,1.7482 6.974,5.42857 0,1.41429 0.45,2.57143 1,2.57143 0.55,0 1,0.9 1,2 0,1.55556 0.6667,2 3,2 1.65,0 3,0.45 3,1 0,0.55 1.35,1 3,1 1.65,0 3,0.45 3,1 0,0.55 2.25,1 5,1 2.75,0 5,0.45 5,1 0,0.55 2.25,1 5,1 2.75,0 5,0.45 5,1 0,0.55 2.25,1 5,1 2.75,0 5,0.45 5,1 0,0.55 0.9,1 2,1 1.1,0 2,0.45 2,1 0,0.55 2.25,1 5,1 2.75,0 5,0.45 5,1 0,0.55 0.9,1 2,1 1.1,0 2,0.45 2,1 0,0.55 1.8,1 4,1 2.2,0 4,0.45 4,1 0,0.55 0.9,1 2,1 1.1,0 2,0.45 2,1 0,0.55 1.35,1 3,1 1.65,0 3,0.45 3,1 0,0.55 0.8007,1 1.7792,1 0.9786,0 2.428,0.9 3.2208,2 0.7928,1.1 2.2422,2 3.2208,2 0.9785,0 1.7792,0.45 1.7792,1 0,0.55 0.8007,1 1.7792,1 0.9786,0 2.428,0.9 3.2208,2 0.7928,1.1 2.0376,2 2.7662,2 2.0781,0 6.2338,4.68381 6.2338,7.02597 0,2.39375 2.1828,4.97403 4.2078,4.97403 0.7429,0 1.9994,0.9 2.7922,2 1.2724,1.76539 2.5887,2 11.2208,2 5.8528,0 9.7792,-0.4015 9.7792,-1 0,-0.58333 3.3333,-1 8,-1 4.6667,0 8,0.41667 8,1 0,0.6 4,1 10,1 6,0 10,0.4 10,1 0,0.55 1.35,1 3,1 1.65,0 3,0.45 3,1 0,0.55 2.25,1 5,1 2.75,0 5,0.45 5,1 0,0.55 0.9,1 2,1 1.1,0 2,0.45 2,1 0,0.55 1.35,1 3,1 1.65,0 3,0.45 3,1 0,0.55 1.35,1 3,1 1.65,0 3,0.45 3,1 0,0.55 0.9,1 2,1 1.1,0 2,0.45 2,1 0,0.55 0.9,1 2,1 1.1,0 2,0.45 2,1 0,0.55 0.8007,1 1.7792,1 0.9786,0 2.428,0.9 3.2208,2 0.7928,1.1 2.0364,2 2.7635,2 0.7271,0 4.8836,3.6 9.2365,8 4.3529,4.4 8.6087,8 9.4572,8 0.8761,0 1.5428,0.86424 1.5428,2 0,1.1 0.45,2 1,2 0.55,0 1,1.15714 1,2.57143 0,3.79351 2.2375,5.42857 7.4286,5.42857 2.5143,0 4.5714,0.45 4.5714,1 0,0.55 1.8,1 4,1 2.2,0 4,-0.45 4,-1 z"
     id="path2987"
     inkscape:connector-curvature="0" />
</svg>
