<?xml version="1.0" encoding="UTF-8" standalone="no"?>
<!-- Created with Inkscape (http://www.inkscape.org/) -->

<svg
   xmlns:dc="http://purl.org/dc/elements/1.1/"
   xmlns:cc="http://creativecommons.org/ns#"
   xmlns:rdf="http://www.w3.org/1999/02/22-rdf-syntax-ns#"
   xmlns:svg="http://www.w3.org/2000/svg"
   xmlns="http://www.w3.org/2000/svg"
   xmlns:sodipodi="http://sodipodi.sourceforge.net/DTD/sodipodi-0.dtd"
   xmlns:inkscape="http://www.inkscape.org/namespaces/inkscape"
   id="svg2"
   version="1.1"
   inkscape:version="0.48.2 r9819"
   width="639.75531"
   height="326.47714"
   sodipodi:docname="39088001578236_0109b.png">
  <metadata
     id="metadata8">
    <rdf:RDF>
      <cc:Work
         rdf:about="">
        <dc:format>image/svg+xml</dc:format>
        <dc:type
           rdf:resource="http://purl.org/dc/dcmitype/StillImage" />
        <dc:title></dc:title>
      </cc:Work>
    </rdf:RDF>
  </metadata>
  <defs
     id="defs6" />
  <sodipodi:namedview
     pagecolor="#ffffff"
     bordercolor="#666666"
     borderopacity="1"
     objecttolerance="10"
     gridtolerance="10"
     guidetolerance="10"
     inkscape:pageopacity="0"
     inkscape:pageshadow="2"
     inkscape:window-width="1920"
     inkscape:window-height="1176"
     id="namedview4"
     showgrid="false"
     fit-margin-top="0"
     fit-margin-left="0"
     fit-margin-right="0"
     fit-margin-bottom="0"
     inkscape:zoom="1"
     inkscape:cx="324.86189"
     inkscape:cy="100.25414"
     inkscape:window-x="0"
     inkscape:window-y="24"
     inkscape:window-maximized="1"
     inkscape:current-layer="svg2" />
  <path
     style="fill:#000000"
     d="m 630.57171,323.78548 c -0.18259,-1.57355 -1.22292,-3.17608 -2.45977,-3.78904 -1.17884,-0.58422 -2.86997,-1.66526 -3.75807,-2.40231 -1.08287,-0.89871 -3.16997,-1.16481 -6.33649,-0.80789 -3.47729,0.39194 -5.70494,0.0306 -8.45209,-1.37086 -2.05168,-1.04669 -5.2346,-1.90307 -7.07316,-1.90307 -2.1374,0 -4.80664,-1.07649 -7.40216,-2.98526 -2.23263,-1.6419 -4.90879,-3.1223 -5.94701,-3.28977 -1.03822,-0.16748 -3.95221,-1.52411 -6.47553,-3.01474 -2.52332,-1.49063 -4.87669,-2.71023 -5.22971,-2.71023 -0.35302,0 -3.01349,-1.79806 -5.91214,-3.9957 -2.89866,-2.19763 -6.07191,-3.99763 -7.05167,-4 -0.97977,-0.002 -2.05489,-0.71703 -2.38917,-1.58815 -0.49007,-1.27711 -0.77449,-1.32553 -1.46861,-0.25 -0.70455,1.09168 -1.03962,1.06152 -1.84553,-0.16615 -0.54158,-0.825 -0.99158,-2.2875 -1,-3.25 -0.008,-0.9625 -0.46531,-1.75 -1.01531,-1.75 -0.55,0 -1,0.45 -1,1 0,0.55 -0.45,1 -1,1 -0.55,0 -1.01001,-1.4625 -1.02224,-3.25 -0.0122,-1.7875 -0.91223,-4.375 -2,-5.75 l -1.97776,-2.5 -1.78828,2.29505 c -2.47522,3.17665 -3.43713,1.68019 -1.65762,-2.57878 1.21619,-2.91075 1.25411,-4.02827 0.21624,-6.37298 -0.69221,-1.56381 -1.85027,-2.84329 -2.57347,-2.84329 -0.7232,0 -1.04254,0.4407 -0.70964,0.97933 0.76947,1.24503 -1.20896,5.02067 -2.63082,5.02067 -0.67436,0 -0.81224,-1.02203 -0.37099,-2.75 1.32587,-5.19219 1.46497,-6.59947 0.88196,-8.9224 -0.59632,-2.3759 -3.36738,-3.30382 -3.36738,-1.1276 0,0.82866 -0.32095,0.87905 -1.03716,0.16284 -0.71621,-0.71621 -0.70934,-1.89939 0.0222,-3.82352 0.87557,-2.30291 0.75238,-3.01083 -0.71001,-4.08015 -0.97724,-0.71458 -2.21833,-0.92288 -2.77221,-0.46527 -1.66527,1.37583 -11.33298,-0.9264 -17.18468,-4.09229 -3.02368,-1.63587 -8.49472,-3.94026 -12.15787,-5.12087 -3.66316,-1.18061 -7.93231,-3.18925 -9.48701,-4.46365 -1.55468,-1.2744 -3.73668,-2.31709 -4.84886,-2.31709 -1.84699,0 -6.71904,-1.79674 -11.04128,-4.07186 -1.58296,-0.83323 -12.57678,1.25387 -15.28312,2.90139 -0.55,0.33482 -2.0125,0.47794 -3.25,0.31805 -2.73223,-0.35302 -2.77405,-0.0578 -0.3825,2.69965 1.02712,1.18428 3.08042,2.25363 4.56289,2.37632 1.48246,0.12269 3.22959,0.87012 3.8825,1.66096 0.99503,1.20523 0.73829,1.3526 -1.58676,0.9108 -5.90877,-1.12278 -3.66386,4.22249 3.02387,7.20003 4.94151,2.20008 5.56669,3.45276 1.25,2.50466 -1.65,-0.3624 -3,-0.2516 -3,0.24623 0,1.22459 4.36527,5.25377 5.69201,5.25377 1.47091,0 3.74398,2.89735 2.91972,3.7216 -0.37029,0.3703 -1.95828,-0.0858 -3.52885,-1.01357 -2.54825,-1.50529 -2.99151,-1.52305 -4.11859,-0.165 -1.01886,1.22765 -1.00677,2.29822 0.0626,5.53832 0.72906,2.20907 1.83073,4.33197 2.44816,4.71757 0.61743,0.38559 2.35985,3.26529 3.87203,6.39933 1.81659,3.76493 3.93541,6.43123 6.24501,7.85864 3.35813,2.07544 3.43488,2.25306 1.95177,4.51657 -2.02205,3.08604 -1.95353,4.34491 0.20618,3.78821 1.21931,-0.31429 2.5039,0.77548 4.23607,3.59362 1.36734,2.22459 2.82984,4.04471 3.25,4.04471 0.42016,0 0.76393,0.675 0.76393,1.5 0,0.825 0.46412,1.5 1.03138,1.5 0.56727,0 1.30978,0.7875 1.65003,1.75 0.34025,0.9625 2.80113,4.99719 5.46862,8.96597 2.66748,3.96878 4.84997,7.47667 4.84997,7.79531 0,0.31864 -1.57025,0.28477 -3.48944,-0.0753 -2.69657,-0.50588 -3.62976,-0.28895 -4.10699,0.95469 -0.99053,2.58119 -2.40361,1.85703 -2.40361,-1.23174 0,-6.54125 -2.76695,-12.32001 -8.60778,-17.97729 -3.14585,-3.04701 -6.65854,-5.60877 -7.80598,-5.69282 -1.52876,-0.11197 -2.11324,-0.86815 -2.18728,-2.8298 -0.0585,-1.54937 -1.77381,-4.67402 -4.07224,-7.418 -2.18416,-2.60756 -5.65661,-8.11602 -7.71655,-12.24102 -5.0979,-10.20844 -7.1503,-13.83437 -8.96708,-15.84189 -0.94352,-1.04258 -1.22103,-2.22299 -0.71507,-3.04165 0.97539,-1.57822 0.23586,-5.11646 -1.0694,-5.11646 -0.49947,0 -1.33585,1.125 -1.85862,2.5 -1.03075,2.71109 -3,3.39839 -3,1.04705 0,-0.79912 0.53303,-2.62281 1.18451,-4.05265 0.97943,-2.14962 0.88031,-3.11466 -0.57253,-5.57413 -3.42018,-5.78989 -5.82755,-7.44633 -10.34132,-7.11552 -2.38399,0.17472 -5.44106,-0.35863 -7.16478,-1.25 -1.65361,-0.85511 -3.94713,-1.55475 -5.09671,-1.55475 -1.14959,0 -3.45871,-1.01182 -5.13139,-2.24848 -2.72039,-2.01127 -3.16448,-2.08229 -4.2095,-0.67317 -1.61058,2.1717 -14.60658,9.89325 -17.66828,10.49757 -1.375,0.27139 -3.88195,0.92784 -5.571,1.45876 -4.49531,1.41303 -11.63871,1.12128 -13.87013,-0.56648 -1.06762,-0.80751 -2.80181,-1.4682 -3.85376,-1.4682 -1.05195,0 -5.10724,-3.16311 -9.01177,-7.02913 -3.90452,-3.86602 -7.63347,-6.82409 -8.28654,-6.57348 -0.65308,0.25061 -2.02428,-0.31896 -3.04711,-1.26571 -1.02283,-0.94675 -4.35229,-3.74713 -7.39881,-6.22306 -5.07114,-4.12137 -5.91599,-4.46549 -10,-4.07319 -3.38993,0.32563 -3.98073,0.61064 -2.46088,1.18718 1.1,0.41727 3.09094,1.93288 4.42431,3.36803 1.33338,1.43515 2.91082,2.60936 3.50543,2.60936 0.59462,0 3.10367,1.85018 5.57569,4.11151 2.47201,2.26133 5.67519,5.17079 7.11817,6.46546 3.09291,2.77504 6.04331,11.00251 5.19237,14.47946 -1.20521,4.92452 -6.73153,8.94357 -12.29769,8.94357 -1.81622,0 -3.31735,0.61578 -3.65665,1.5 -0.4068,1.0601 -2.0608,1.5 -5.63988,1.5 -3.37493,0 -5.69466,0.5705 -6.95406,1.71024 -1.25873,1.13914 -2.11985,1.35111 -2.57874,0.63478 -1.04186,-1.62635 -5.18895,-2.69808 -5.18895,-1.34098 0,1.4395 -2.51335,3.99596 -3.92857,3.99596 -1.42159,0 -1.35933,-1.3121 0.13307,-2.8045 0.93933,-0.93933 -0.10636,-1.1078 -4.75,-0.76523 -8.17684,0.60322 -9.4545,1.23522 -9.4545,4.67672 0,1.79175 -0.52481,2.89301 -1.37868,2.89301 -1.56954,0 -3.40155,4.06487 -3.8309,8.5 -0.19564,2.02093 -0.76748,2.89537 -1.75221,2.6794 -2.0996,-0.46048 -4.03821,2.6656 -4.03821,6.51173 0,3.42748 -0.81272,4.09615 -2.6931,2.21577 -1.50369,-1.50369 -6.3069,1.70113 -6.3069,4.20811 0,1.60713 -0.77387,1.88517 -5.25,1.88621 -4.05282,9.4e-4 -5.86692,0.53181 -7.95537,2.328 -4.39338,3.77857 -17.30937,8.17796 -20.45992,6.96898 -1.74095,-0.66807 -1.73166,-3.2982 0.0117,-3.2982 3.40145,0 21.24508,-10.36807 22.7802,-13.23648 0.86752,-1.62098 0.87177,-2.26408 0.0168,-2.54905 -2.45401,-0.81801 -1.01676,-2.34557 1.6548,-1.75879 2.32218,0.51003 3.44171,-0.0289 6.58097,-3.16818 3.17764,-3.17764 3.53747,-3.9375 2.24939,-4.75 -1.24336,-0.78429 -0.9277,-1.16301 1.66903,-2.00236 2.23429,-0.72221 3.30459,-1.75789 3.54041,-3.4259 0.25777,-1.82329 -0.0313,-2.24903 -1.21798,-1.79367 -0.85578,0.3284 -1.79931,0.20335 -2.09672,-0.27787 -0.29741,-0.48123 0.92567,-1.18854 2.71797,-1.5718 4.32287,-0.9244 5.93159,-2.34589 5.21392,-4.60708 -0.468,-1.47453 -0.0714,-1.85882 1.91841,-1.85882 1.3796,0 2.74264,-0.37906 3.02897,-0.84236 0.28633,-0.46329 -2.89767,-0.87221 -7.07555,-0.90871 -4.17789,-0.0365 -7.8731,-0.51215 -8.21159,-1.05699 -0.33849,-0.54485 -4.44043,-1.00106 -9.11543,-1.01382 -4.7945,-0.0131 -10.66939,-0.6979 -13.47633,-1.5709 -4.88924,-1.52063 -5.02051,-1.50559 -7.5,0.85947 -1.68871,1.61077 -3.01995,2.14043 -4.02367,1.60091 -0.825,-0.44346 -3.975,-1.11548 -7,-1.49338 -10.68854,-1.33527 -12.55817,-1.70808 -18.31264,-3.65163 -3.19696,-1.07975 -6.16669,-1.74438 -6.59942,-1.47694 -0.43272,0.26743 -7.26703,-1.48792 -15.18735,-3.90078 -7.92033,-2.41286 -15.97559,-4.62032 -17.90059,-4.90546 -1.925,-0.28514 -5.47897,-1.24134 -7.8977,-2.12489 -2.41874,-0.88355 -7.38033,-1.98096 -11.02576,-2.4387 -3.64543,-0.45774 -9.09147,-1.51975 -12.1023,-2.36003 -7.14949,-1.99532 -19.8842,-4.96016 -22.66711,-5.27726 -1.20607,-0.13743 -2.59178,-0.49642 -3.07934,-0.79775 -0.7521,-0.46482 -9.78975,-2.13508 -16.72779,-3.09148 -1.1,-0.15163 -4.88682,-1.23726 -8.41516,-2.4125 -3.52833,-1.17524 -7.817765,-2.1368 -9.532075,-2.1368 -1.7143,0 -5.57748,-0.6697 -8.58484,-1.48821 -3.00736,-0.81852 -8.16793,-1.70635 -11.467927,-1.97296 -3.3,-0.26661 -7.48828,-0.9229 -9.3073,-1.45841 -1.81902,-0.53552 -3.93497,-0.73282 -4.70212,-0.43843 -0.76714,0.29438 -1.97886,0.17051 -2.6927,-0.27526 -1.93097,-1.20583 -3.52348,-1.45531 -12.2405,-1.91757 -4.36844,-0.23166 -9.37859,-0.89511 -11.13367,-1.47434 -1.75508,-0.57923 -4.7059,-1.03908 -6.55739,-1.0219 -10.52025,0.0976 -25.7911599,-0.54425 -26.3545899,-1.10776 -2.23965,-2.23996 22.9647799,-2.85014 34.4882599,-0.83493 3.025,0.52901 9.045,1.22612 13.37777,1.54913 4.33278,0.32302 8.89699,0.9748 10.14268,1.44842 1.2457,0.47361 3.13722,0.633 4.20338,0.35419 1.06616,-0.27881 8.65196,0.70287 16.857317,2.1815 8.20537,1.47863 16.22233,2.62407 17.815485,2.54542 1.59315,-0.0786 5.59747,0.79167 8.89849,1.93406 3.30102,1.14239 6.53928,1.87084 7.19614,1.61878 1.15701,-0.44399 7.50338,0.95904 23.88537,5.28048 4.33215,1.14278 9.28215,2.08434 11,2.09234 1.71785,0.008 4.99438,0.6665 7.28118,1.46332 2.28679,0.79682 6.78679,1.87707 10,2.40055 3.2132,0.52348 7.90835,1.65862 10.43365,2.52251 2.5253,0.8639 6.31435,1.79131 8.4201,2.06092 3.80715,0.48743 16.98343,3.98789 27.48844,7.30267 3.025,0.95451 6.175,1.74266 7,1.75144 0.825,0.009 4.56408,1.06681 8.30906,2.35118 3.74499,1.28438 7.68204,2.10694 8.74901,1.82793 1.06697,-0.27902 2.19194,-0.0996 2.49995,0.39881 0.30801,0.49837 2.37119,0.90612 4.58485,0.90612 l 4.02484,0 -4.0085,-3.75 c -2.20467,-2.0625 -4.31725,-4.99175 -4.69463,-6.50945 -0.37738,-1.5177 -1.08629,-3.00675 -1.57536,-3.30902 -0.48907,-0.30226 -0.88922,-1.32627 -0.88922,-2.27557 0,-0.9493 -2.5875,-4.44185 -5.75,-7.76122 -3.1625,-3.31937 -7.4375,-7.91741 -9.5,-10.21786 -2.0625,-2.30045 -3.75,-3.89477 -3.75,-3.54292 0,0.35185 -2.2189,-1.33436 -4.93088,-3.74712 -2.71199,-2.41276 -6.87449,-6.03812 -9.25,-8.05636 -2.37552,-2.01824 -6.56912,-5.71799 -9.31912,-8.22168 -2.75,-2.50369 -5.39059,-4.56491 -5.86798,-4.58048 -0.76734,-0.025 -4.6122,-2.94614 -9.86808,-7.49719 -4.55337,-3.94275 -16.21025,-12.53113 -17.00832,-12.53113 -0.49416,0 -1.50716,-0.5625 -2.2511,-1.25 -0.74395,-0.6875 -3.52431,-2.94821 -6.17858,-5.02379 -2.65427,-2.07559 -7.52594,-5.92852 -10.82594,-8.56208 -3.3,-2.63356 -7.575,-5.85278 -9.5,-7.15382 -1.925,-1.30104 -4.28623,-3.16542 -5.24717,-4.14307 -0.96094,-0.97764 -4.95653,-4.33824 -8.87908,-7.46798 -3.92256,-3.12974 -9.43633,-7.90624 -12.25283,-10.61445 -2.81651,-2.70822 -7.9694,-7.4802 -11.450875,-10.60442 -12.16971,-10.9209 -30.170047,-29.462197 -30.170047,-31.076737 0,-0.47942 -2.17829,-3.06136 -4.84064,-5.73766 -2.66234,-2.67629 -5.12322,-5.65349 -5.46861,-6.61599 -0.34539,-0.9625 -1.31711,-1.75 -2.15937,-1.75 -0.84226,0 -1.53138,-0.375 -1.53138,-0.83333 0,-0.458336 -1.3375,-2.145836 -2.97223,-3.749996 -1.63472,-1.60417 -2.98774,-3.36667 -3.00671,-3.91667 -0.019,-0.55 -2.61897,-3.54651 -5.77778,-6.658902 -6.35775,-6.26434 -9.24328,-9.54054 -9.24328,-10.49472 0,-0.58053 -8.66516,-11.204 -10.07048,-12.34638 -0.33829,-0.275 -2.16217,-2.525 -4.05306,-5 -1.89089,-2.475 -4.65284,-5.79371 -6.13767,-7.37492 -1.48482,-1.58121 -3.2488799,-4.39371 -3.9201299,-6.25 -0.67124,-1.85629 -1.54157,-3.37508 -1.93406,-3.37508 -1.20785,0 -5.97840005,-9.2861798 -5.62080005,-10.9412498 0.23372,-1.08166 0.837,-0.64053 1.97105005,1.44125 0.89883,1.65 2.67619,4.125 3.94969,5.5 1.2735,1.375 2.99046,3.8058298 3.81546,5.4018398 0.8249999,1.59602 5.7015499,7.67102 10.8367899,13.5 5.13524,5.82899 10.06977,11.83566 10.96561,13.34816 0.89585,1.5125 1.98179,2.75 2.4132,2.75 0.43142,0 0.78505,0.5625 0.78585,1.25 8e-4,0.6875 3.2633,4.43007 7.25,8.316829 3.9867,3.886755 8.47156,8.917713 9.96634,11.179903 1.49479,2.26219 4.60758,5.83212 6.91732,7.933166 2.30973,2.10106 4.91172,4.67815 5.7822,5.72688 0.87048,1.04873 3.04519,3.57827 4.83269,5.6212 1.7875,2.04293 3.25,3.90916 3.25,4.14718 0,1.6907 35.148922,35.247347 43.518692,41.547267 4.98025,3.74864 7.42666,5.77349 14.53157,12.02757 2.03068,1.7875 4.01063,3.25 4.3999,3.25 0.38926,0 3.29463,2.25 6.45637,5 3.16175,2.75 6.07082,5 6.46461,5 0.39379,0 2.48681,1.63843 4.65114,3.64095 2.16434,2.00252 4.95724,4.32153 6.20644,5.15336 1.2492,0.83183 3.39628,2.54481 4.77128,3.80663 1.375,1.26182 2.725,2.22591 3,2.14242 0.86994,-0.2641 7,3.65235 7,4.47225 0,0.43141 0.63705,0.78439 1.41567,0.78439 0.77862,0 3.12134,1.8 5.20605,4 2.08472,2.2 4.23121,4 4.76998,4 0.53877,0 3.03355,1.70065 5.54394,3.77923 2.5104,2.07858 5.70862,4.50286 7.10716,5.38729 1.39853,0.88443 5.07477,4.02128 8.16941,6.97077 3.09464,2.94949 9.10977,8.28771 13.36696,11.86271 4.25719,3.575 8.80384,7.625 10.10367,9 1.29983,1.375 3.14044,3.3269 4.09025,4.33757 3.59282,3.82303 5.07896,3.96422 8.25856,0.78463 1.63749,-1.6375 3.738,-3.12377 4.66779,-3.30283 1.31992,-0.2542 1.72316,-1.53061 1.83941,-5.82247 0.20686,-7.63721 0.67715,-8.87752 4.02461,-10.6142 1.61265,-0.83665 3.62029,-2.144 4.46144,-2.90523 0.84114,-0.76123 4.21714,-2.6052 7.50222,-4.09773 3.28509,-1.49253 7.36536,-3.76355 9.06727,-5.04671 1.70192,-1.28317 4.00932,-2.33303 5.12756,-2.33303 1.11824,0 2.62066,-0.70789 3.33871,-1.57309 0.71805,-0.8652 3.02315,-2.44934 5.12244,-3.52032 2.0993,-1.07098 3.8169,-2.30475 3.8169,-2.7417 0,-1.18583 6.72296,-4.16489 9.39907,-4.16489 1.28217,0 3.47538,-0.9 4.8738,-2 1.39842,-1.1 3.01814,-2 3.59938,-2 0.58123,0 3.14968,-1.16845 5.70767,-2.59656 3.23663,-1.80699 5.60406,-2.45141 7.78548,-2.11923 2.98233,0.45415 18.52646,-3.7498 19.6346,-5.31023 0.275,-0.38724 3.49733,-1.22098 7.16072,-1.85275 3.6634,-0.63177 8.33214,-1.84704 10.37497,-2.70059 2.24184,-0.9367 6.01969,-1.45782 9.52991,-1.31456 3.19861,0.13054 6.40488,-0.23063 7.12503,-0.80261 0.72015,-0.57198 4.45937,-1.60854 8.30937,-2.30347 3.85,-0.69493 7.45,-1.60435 8,-2.02093 0.55,-0.41658 4.825,-1.08217 9.5,-1.47907 4.675,-0.3969 9.06613,-1.17989 9.75807,-1.73997 0.74573,-0.60361 3.18921,-0.73734 6,-0.32838 2.60806,0.37946 5.41693,0.66726 6.24193,0.63956 0.825,-0.0277 5.1,-0.23372 9.5,-0.45784 4.4,-0.22411 12.05,0.20122 17,0.94518 4.95,0.74396 11.84056,1.58842 15.31237,1.87658 3.4718,0.28816 6.74333,0.79028 7.27008,1.11583 0.52674,0.32554 3.53618,0.584 6.68763,0.57435 5.79007,-0.0177 12.69425,1.4407 14.96719,3.16165 0.68049,0.51523 1.91799,0.67557 2.75,0.3563 0.832,-0.31927 1.51367,-0.25711 1.51483,0.13812 0.001,0.39524 3.71365,1.53968 8.25,2.54321 4.53634,1.00352 9.02929,2.24102 9.98433,2.75 0.95504,0.50897 2.6104,0.92541 3.67857,0.92541 1.06818,0 2.53679,0.5625 3.26357,1.25 0.72679,0.6875 3.65093,1.31421 6.4981,1.39269 3.22545,0.0889 7.21428,1.10663 10.58255,2.70008 2.97323,1.40656 6.71777,2.79528 8.32119,3.08603 1.60342,0.29076 3.41588,1.21322 4.02769,2.04992 0.61181,0.83671 1.99042,1.52128 3.06358,1.52128 1.07316,0 2.84811,0.7875 3.94434,1.75 2.61381,2.29495 5.18664,3.90495 8.98151,5.62035 1.70365,0.7701 4.10285,3.02682 5.33156,5.01492 1.22872,1.9881 2.98483,3.6175 3.90247,3.62089 0.91764,0.003 2.90093,0.64911 4.40732,1.43493 2.49715,1.30266 2.86076,1.25474 4.11991,-0.54295 0.75957,-1.08444 3.91747,-3.49907 7.01756,-5.36584 3.10008,-1.86677 6.79862,-4.77522 8.21897,-6.46322 3.11889,-3.70658 4.17306,-3.84011 4.97859,-0.63063 0.41668,1.66019 -0.40694,4.50823 -2.58053,8.92343 -3.46407,7.03653 -7.80732,11.63812 -10.98472,11.63812 -1.11881,0 -2.00866,0.66451 -2.00866,1.5 0,0.84106 0.89238,1.5 2.03138,1.5 1.11727,0 2.29041,0.675 2.60699,1.5 1.06601,2.77796 2.21977,1.99098 14.29768,-9.75242 3.2163,-3.12721 5.42843,-4.54494 6.46875,-4.14574 2.36519,0.90761 1.09021,4.48688 -5.10485,14.331 -4.75685,7.55876 -5.19556,8.68486 -3.72714,9.56716 0.91538,0.55 2.62347,1.75931 3.79575,2.68735 2.9607,2.34383 1.29094,4.75213 -4.67965,6.74945 -5.08605,1.70143 -6.42169,3.38733 -3.06318,3.86647 1.16915,0.16679 3.03175,1.29179 4.13912,2.5 1.87378,2.04441 1.92013,2.54343 0.6684,7.19673 -0.73974,2.75 -1.36484,6.36548 -1.38912,8.03439 -0.0332,2.28615 -0.7839,3.47139 -3.04413,4.80654 -1.65,0.97468 -3,2.14792 -3,2.6072 0,1.29075 -8.64891,3.01324 -28.5,5.67598 -2.2,0.2951 -7.06542,-0.1746 -10.81205,-1.04378 -8.56181,-1.98626 -10.68795,-1.99049 -10.68795,-0.0213 0,0.85746 0.3489,1.34338 0.77534,1.07983 1.24395,-0.76881 12.99088,2.76051 12.85139,3.86115 -0.14292,1.12771 -1.44109,1.13039 -6.98205,0.0144 -3.7373,-0.75273 -3.81962,-0.7098 -2.6892,1.40242 1.33862,2.50124 4.86796,4.08318 9.10962,4.08318 4.13313,0 3.66755,1.81424 -0.56191,2.18963 l -3.49681,0.31037 2.30956,2.88405 c 1.61279,2.01395 3.27044,2.91902 5.49453,3 3.8149,0.13888 4.1562,1.15652 0.68045,2.02887 -2.35637,0.59141 -2.41856,0.76789 -1.02177,2.89965 0.81801,1.24845 3.0721,2.84297 5.00907,3.54339 1.93698,0.70042 3.52178,1.74251 3.52178,2.31576 0,0.57324 -0.675,0.78324 -1.5,0.46665 -2.88843,-1.10839 -1.46872,1.14962 1.75,2.78334 7.26713,3.68855 14.78612,8.20946 17.25314,10.37371 1.4391,1.26248 4.27711,2.83748 6.3067,3.5 2.92263,0.95403 3.75631,1.78009 4.00822,3.97153 0.34344,2.98775 2.18194,2.80182 2.18194,-0.22066 0,-1.58441 0.48295,-1.72675 3.52835,-1.0399 1.94059,0.43768 4.07809,1.24959 4.75,1.80425 0.67191,0.55466 4.37165,2.01187 8.22165,3.23825 9.24647,2.94538 14.5,5.65237 14.5,7.47143 0,0.81383 0.45,1.47968 1,1.47968 0.55,0 1,1.125 1,2.5 0,2.92295 -0.67165,3.10713 -3.15041,0.86388 -1.67386,-1.51483 -1.85444,-1.51483 -2.43573,0 -0.99332,2.58855 -3.24989,1.90438 -3.59744,-1.09072 z M 300.98193,257.3324 c 0.21631,-0.64895 1.04131,-0.93124 1.83333,-0.62732 2.2265,0.85439 3.46927,0.49366 3.14619,-0.91322 -0.16161,-0.70375 0.091,-1.27955 0.56144,-1.27955 0.4704,0 1.75234,-0.83574 2.84875,-1.8572 1.09641,-1.02146 4.09577,-2.17246 6.66525,-2.55778 2.56948,-0.38532 4.93953,-1.1338 5.26678,-1.6633 0.34962,-0.5657 3.19005,-0.69686 6.88754,-0.31804 4.22575,0.43294 6.52075,0.27545 6.98733,-0.47949 0.44522,-0.72039 -0.22441,-1.12419 -1.86423,-1.12419 -1.40746,0 -2.55902,-0.46412 -2.55902,-1.03138 0,-1.7127 2.79293,-2.23645 5.98749,-1.12283 2.36738,0.82528 3.01251,0.76506 3.01251,-0.28118 0,-1.56466 -3.06905,-2.53186 -8.09446,-2.55096 -2.37746,-0.009 -4.57821,-0.85968 -6.5,-2.51243 -1.59805,-1.37433 -3.35554,-2.50406 -3.90554,-2.51051 -0.55,-0.006 -3.69115,-2.032 -6.98033,-4.50122 -6.16615,-4.62899 -7.45826,-5.08512 -10.33541,-3.64851 -0.92634,0.46254 -4.72176,0.56482 -8.43426,0.22729 -3.7125,-0.33754 -6.75,-0.29727 -6.75,0.0895 0,0.38673 -1.0125,0.84696 -2.25,1.02271 -3.40064,0.48297 -2.81905,3.8564 1.12282,6.51283 1.85505,1.25012 3.78869,2.01592 4.29697,1.70178 1.30499,-0.80652 9.83021,3.36499 9.83021,4.81006 0,2.20557 2.31667,-0.9666 2.49738,-3.41962 0.21378,-2.90174 2.51964,-2.97179 3.57876,-0.10872 0.54874,1.48339 0.34633,2.55764 -0.63545,3.37244 -0.79238,0.65762 -1.44069,1.82522 -1.44069,2.59466 0,0.76945 -1.125,1.91158 -2.5,2.53807 -2.80931,1.28001 -3.02837,1.88968 -1.3,3.61805 1.85326,1.85326 -0.12061,3.04352 -5.62183,3.39 -3.09329,0.19483 -5.09195,0.82611 -5.37973,1.6992 -0.25185,0.76405 -0.0235,1.1207 0.50751,0.79253 0.53098,-0.32816 2.27686,-0.20448 3.87973,0.27485 4.12545,1.2337 5.19284,1.20787 5.64096,-0.13649 z m -65.21607,53.69264 c -1.90836,-2.29943 -0.45757,-4.51273 2.95805,-4.51273 1.66726,0 3.03138,-0.45 3.03138,-1 0,-0.55 2.25,-1 5,-1 3.77778,0 7.12132,-0.16366 7.12132,0.96967 0,0.97204 -3.09553,2.03033 -4.88919,2.03033 -1.52232,0 -4.42345,1.125 -6.44694,2.5 -4.27629,2.90581 -5.10117,3.02912 -6.77462,1.01273 z"
     id="path2987"
     inkscape:connector-curvature="0"
     sodipodi:nodetypes="ssssssssssscssscssscscsssssssssssssssssssssssssssscsscssssssssssssccssscsssssssssssssssssssssssssssssssssssssssssssssssssscssssscsssssssssssssssssssssssssssssssssssssscssssssssscsscscsscssssssscsssssssssssssssscssssssscssssssssssssssssssssscsssssssssssssssssssssssssssssssssssssssssssscsssssssssssscssssssssssssssssssscssssssssssscssssssssssssssssssssscsssssssssssscscsssssscsssssssscssccssssssss" />
</svg>
