<?xml version="1.0" encoding="UTF-8" standalone="no"?>
<!-- Created with Inkscape (http://www.inkscape.org/) -->

<svg
   xmlns:dc="http://purl.org/dc/elements/1.1/"
   xmlns:cc="http://creativecommons.org/ns#"
   xmlns:rdf="http://www.w3.org/1999/02/22-rdf-syntax-ns#"
   xmlns:svg="http://www.w3.org/2000/svg"
   xmlns="http://www.w3.org/2000/svg"
   xmlns:sodipodi="http://sodipodi.sourceforge.net/DTD/sodipodi-0.dtd"
   xmlns:inkscape="http://www.inkscape.org/namespaces/inkscape"
   id="svg2"
   version="1.1"
   inkscape:version="0.48.2 r9819"
   width="592.97797"
   height="310.55896"
   sodipodi:docname="americaninsects00kell_0618c.png">
  <metadata
     id="metadata8">
    <rdf:RDF>
      <cc:Work
         rdf:about="">
        <dc:format>image/svg+xml</dc:format>
        <dc:type
           rdf:resource="http://purl.org/dc/dcmitype/StillImage" />
        <dc:title></dc:title>
      </cc:Work>
    </rdf:RDF>
  </metadata>
  <defs
     id="defs6" />
  <sodipodi:namedview
     pagecolor="#ffffff"
     bordercolor="#666666"
     borderopacity="1"
     objecttolerance="10"
     gridtolerance="10"
     guidetolerance="10"
     inkscape:pageopacity="0"
     inkscape:pageshadow="2"
     inkscape:window-width="1920"
     inkscape:window-height="1176"
     id="namedview4"
     showgrid="false"
     fit-margin-top="0"
     fit-margin-left="0"
     fit-margin-right="0"
     fit-margin-bottom="0"
     inkscape:zoom="1"
     inkscape:cx="255.97798"
     inkscape:cy="157.26753"
     inkscape:window-x="0"
     inkscape:window-y="24"
     inkscape:window-maximized="1"
     inkscape:current-layer="svg2" />
  <path
     style="fill:#000000"
     d="m 252.22798,310.1757 c -2.0625,0.33865 -6.1125,0.47971 -9,0.31347 l -5.25,-0.30226 0,-1.92274 0,-1.92274 -2.75,0.50213 -2.75,0.50213 -1.37812,-0.91532 -1.37811,-0.91533 0.77048,-1.24667 0.77049,-1.24667 11.10763,0.54402 11.10763,0.54402 4.24821,-2.65915 c 2.33652,-1.46254 4.24902,-2.96213 4.25,-3.33243 9.9e-4,-0.37031 1.10868,-1.98875 2.46155,-3.59654 l 2.45977,-2.92326 1.4641,-4.40347 c 0.80525,-2.4219 2.01398,-6.42846 2.68607,-8.90346 0.67208,-2.475 1.40971,-6.975 1.63919,-10 0.22948,-3.025 0.42563,-6.4 0.4359,-7.5 0.0103,-1.1 -0.0877,-4.02563 -0.21769,-6.50139 l -0.23635,-4.50139 1.30527,-3.99861 c 0.7179,-2.19924 2.3882,-7.14861 3.71177,-10.99861 1.32357,-3.85 3.9659,-11.08433 5.87184,-16.07629 l 3.46535,-9.07629 -1.14881,-5.42371 c -0.63185,-2.98304 -2.18376,-7.67371 -3.44869,-10.42371 -1.26493,-2.75 -3.48757,-7.7 -4.93919,-11 l -2.63932,-6 -1.12967,-8 -1.12967,-8 -1.70809,-2.26189 -1.70808,-2.26189 0.43148,-2.23811 0.43148,-2.23811 -1.00914,2.28557 -1.00915,2.28556 -2.86211,1.64263 -2.86212,1.64263 -0.16758,4.07181 c -0.0922,2.23949 0.26324,6.3218 0.7898,9.0718 0.52656,2.75 1.19648,6.8 1.4887,9 0.29223,2.2 0.92289,6.35556 1.40147,9.23458 l 0.87015,5.23458 2.65178,2.65179 c 1.45848,1.45848 2.65178,3.01386 2.65178,3.4564 0,0.44254 -0.46971,1.09491 -1.0438,1.44972 l -1.04381,0.64511 -1.34139,-1.11326 -1.34139,-1.11325 -2.01938,3.42259 -2.01938,3.42259 0.92033,0.92033 0.92032,0.92032 0.9456,8.93425 c 0.52008,4.91384 1.4374,12.75925 2.03848,17.43425 l 1.09288,8.5 -0.56611,2.93438 c -0.31136,1.61391 -1.1595,3.63891 -1.88476,4.5 -0.72526,0.86109 -2.09182,3.66302 -3.0368,6.22652 l -1.71815,4.66089 -4.728,5.08911 -4.728,5.0891 -1.22332,0 -1.22332,0 0,1.02144 0,1.02144 -2.75,1.2082 c -1.5125,0.66452 -3.04615,1.62703 -3.40812,2.13892 -0.36196,0.51188 -1.48696,1.02067 -2.5,1.13062 -1.01303,0.10996 -3.86688,1.15292 -6.34188,2.31769 -2.475,1.16477 -5.01436,2.12765 -5.64301,2.13973 l -1.14301,0.022 -0.57561,1.5 -0.5756,1.5 -1.28139,0.004 c -0.70476,0.002 -3.29567,1.34057 -5.75758,2.9738 l -4.47619,2.96953 -1.00327,-1.00327 -1.00327,-1.00327 2.92344,-2.33108 2.92345,-2.33107 -5.69398,-0.71142 -5.69398,-0.71141 0,-0.7972 0,-0.79721 3.75,-0.61983 c 2.0625,-0.34091 5.775,-0.63467 8.25,-0.65281 l 4.5,-0.033 4.3592,-1.97804 c 2.39757,-1.08792 5.09757,-1.98623 6,-1.99624 l 1.6408,-0.0182 4.40048,-2.98181 c 2.42027,-1.63999 4.84082,-2.9818 5.379,-2.9818 0.53819,0 3.44958,-2.57176 6.46975,-5.71502 l 5.49121,-5.71502 1.29869,-3.68086 1.29868,-3.68086 -1.336,-3.87779 -1.33601,-3.87778 -0.53582,-19.53742 -0.53583,-19.53741 -0.92335,-2.43892 c -0.50784,-1.34141 -1.20483,-5.13892 -1.54886,-8.43892 -0.34403,-3.3 -0.88736,-8.925 -1.20739,-12.5 -0.32004,-3.575 -0.50933,-8.975 -0.42065,-12 0.0887,-3.025 0.27255,-8.228 0.4086,-11.56223 l 0.24737,-6.06223 0.73408,-1.18777 c 0.40375,-0.65298 0.53748,-1.18748 0.29719,-1.18748 -0.24029,0 -2.02562,0.66381 -3.9674,1.47514 l -3.5305,1.47514 -1.41689,4.27486 -1.41689,4.27486 -5.42473,3.80212 c -2.9836,2.09116 -8.12473,6.12489 -11.42473,8.96383 -3.3,2.83895 -8.66812,7.76549 -11.92915,10.94788 -3.26104,3.1824 -6.29854,5.78617 -6.75,5.78617 l -0.82085,0 0,1.81217 c 0,0.99669 0.93165,3.80919 2.07033,6.25 1.13868,2.44081 3.05118,6.46283 4.25,8.93783 1.19882,2.475 2.4498,4.725 2.77997,5 0.33016,0.275 1.18648,1.625 1.90294,3 0.71646,1.375 4.0007,6.55 7.29832,11.5 l 5.99566,9 0.47759,4.21579 0.47758,4.21579 -3.08515,4.8078 c -1.69683,2.64429 -4.34112,5.96291 -5.8762,7.37473 l -2.79104,2.56693 -3.5,1.33911 -3.5,1.33911 -3.75288,3.32037 -3.75288,3.32037 -2.31679,0 -2.31678,0 -2.23963,2.5758 -2.23963,2.5758 -3.21101,1.34165 c -1.76605,0.7379 -4.09046,2.31343 -5.16536,3.50118 l -1.95436,2.15954 -5.12183,2.42301 c -2.81701,1.33266 -5.82911,2.42302 -6.69355,2.42302 -0.86445,0 -2.28353,0.27314 -3.15351,0.60699 l -1.58179,0.60699 0,2.35783 0,2.35782 -1.97542,1.05721 -1.97542,1.05722 -0.6015,-2.39656 -0.60149,-2.39656 -2.57644,-1.17391 -2.57644,-1.1739 1.90335,-1.27061 c 1.04685,-0.69883 4.23678,-2.25203 7.08874,-3.45156 2.85196,-1.19953 6.0879,-2.18096 7.19098,-2.18096 l 2.00561,0 0.62686,-1.01429 c 0.34478,-0.55786 2.50884,-1.96844 4.80902,-3.13463 2.30018,-1.16619 5.17407,-3.10282 6.38641,-4.30361 1.21234,-1.2008 3.91234,-3.05271 6,-4.11537 2.08766,-1.06265 4.02074,-2.20419 4.29574,-2.53674 0.275,-0.33255 1.70624,-1.23255 3.18053,-2 1.4743,-0.76745 5.8618,-4.28882 9.75,-7.82526 l 7.06947,-6.42991 0,-1.08796 c 0,-0.59838 -1.05935,-2.65492 -2.35411,-4.5701 -1.29477,-1.91517 -4.94765,-9.33213 -8.11753,-16.48213 -3.16987,-7.15 -6.57623,-15.475 -7.56968,-18.5 -0.99345,-3.025 -2.55416,-8.875 -3.46826,-13 -0.91409,-4.125 -1.90428,-8.77039 -2.20043,-10.32308 l -0.53844,-2.82308 5.45441,-5.28301 5.4544,-5.28301 6.50818,-3.63958 c 3.5795,-2.00177 7.81842,-4.05433 9.41982,-4.56124 1.6014,-0.5069 4.14096,-1.19037 5.64345,-1.51881 l 2.73181,-0.59716 1.54387,-2.98552 c 0.84913,-1.64203 1.28939,-2.98551 0.97835,-2.98551 -0.31103,0 -2.26692,0.86799 -4.34642,1.92887 -2.0795,1.06088 -6.89907,2.92412 -10.71016,4.14053 -3.81109,1.2164 -8.95426,3.22477 -11.42926,4.46304 -2.475,1.23826 -5.23216,3.08753 -6.12702,4.10947 -0.89486,1.02195 -2.22996,3.5655 -2.96689,5.65233 -0.73692,2.08683 -2.11003,4.62091 -3.05135,5.6313 l -1.71148,1.83707 0.52951,22.86869 0.52952,22.8687 1.40511,5.66846 1.4051,5.66847 -1.01829,2.6783 -1.01829,2.67831 -1.73796,0.4984 -1.73796,0.4984 -4.83068,5.90603 -4.83069,5.90603 -2.40698,0.60411 -2.40698,0.60411 -3.9717,3.64469 c -2.18444,2.00458 -5.79086,5.21969 -8.01426,7.14469 -2.22341,1.925 -6.40419,5.8597 -9.29063,8.74377 l -5.24808,5.24377 -1.82317,0.006 -1.82317,0.006 -3.60683,4.01777 -3.60683,4.01777 -0.76941,-1.24493 -0.76941,-1.24493 1.6044,-1.77284 1.6044,-1.77284 -1.53255,0 -1.53254,0 -1.14797,-1.38322 -1.14797,-1.38321 1.60731,-0.61679 c 0.88403,-0.33877 3.21083,-0.61632 5.17068,-0.61632 l 3.56337,0 8.1373,-8.25 c 4.47551,-4.5375 10.00886,-9.9375 12.29633,-12 2.28748,-2.0625 4.63537,-3.75 5.21755,-3.75 l 1.05851,0 0,-1.28759 0,-1.28759 5.03356,-4.95787 5.03355,-4.95787 -0.28355,-21.00454 -0.28356,-21.00454 0.86993,-8.42901 0.86992,-8.42902 -3.86992,3.03816 c -2.12846,1.67099 -6.95891,4.66787 -10.73432,6.65975 l -6.8644,3.62158 -4.8856,0.6481 -4.88561,0.6481 0,0.64377 c 0,0.35407 -1.60662,1.50899 -3.57027,2.56648 l -3.57027,1.92272 -0.87253,-1.41178 -0.87253,-1.41177 1.0853,-1.30771 1.0853,-1.3077 -0.61043,-0.61044 -0.61044,-0.61043 -2.97171,1.23092 -2.97171,1.23092 -1.10103,-0.68048 -1.10103,-0.68047 0.60806,-1.91585 0.60807,-1.91584 -1.02034,0 c -0.56118,0 -2.17871,0.52779 -3.59451,1.17287 l -2.57418,1.17288 -1.17288,-1.17288 -1.17287,-1.17287 1.2,-1.2 c 0.66,-0.66 1.2,-1.56 1.2,-2 l 0,-0.8 -2.25,-0.0181 -2.25,-0.0181 -5.40977,-2.98189 c -2.97537,-1.64006 -5.78683,-2.98191 -6.24768,-2.98191 -0.46086,0 -3.01262,-1.56237 -5.67059,-3.47193 -2.65797,-1.90956 -6.50312,-5.04736 -8.54477,-6.97289 l -3.7121,-3.50096 -3.95754,-1.06565 -3.95755,-1.06566 0,-0.91176 c 0,-0.50148 0.7875,-1.37045 1.75,-1.93105 l 1.75,-1.01928 -3.5,-0.0457 c -1.925,-0.0251 -4.00256,-0.37633 -4.6168,-0.78041 l -1.11681,-0.73469 0.11681,-2.5 0.1168,-2.5 -3.26558,-1.5 -3.26558,-1.5 0.54441,-2.28898 0.54442,-2.28898 -3.51564,-1.46893 -3.51565,-1.46893 0.23681,-2.20203 0.23681,-2.20206 -3.75,-1.79792 -3.75,-1.79793 0,-0.99213 c 0,-0.54567 0.45,-0.99213 1,-0.99213 l 1,0 0,-1.40217 0,-1.40218 -3.07554,-1.07214 -3.07554,-1.07214 0.64449,-2.03061 0.64449,-2.03061 -1.81895,-0.57643 c -1.00042,-0.31704 -2.93945,-1.02938 -4.30896,-1.58299 l -2.49001,-1.00656 1.74001,-1.27233 c 0.95701,-0.69978 1.74001,-1.62311 1.74001,-2.05184 0,-0.42873 -0.7875,-1.37731 -1.75,-2.10795 l -1.75,-1.32844 -2.69098,-0.0318 -2.69099,-0.0318 -0.70283,-1.13721 -0.70284,-1.13722 2.3102,-1.74259 2.31021,-1.74259 -2.16837,-0.68821 -2.16836,-0.68821 0.64944,-2.58758 0.64944,-2.58757 -1.89746,-1.39029 -1.89746,-1.39028 0,-3.20413 0,-3.20412 -3.25,-1.43047 -3.25,-1.43046 0,-1.31954 0,-1.31953 2,0 2,0 0,-0.9121 0,-0.9121 -3.94243,-0.66607 -3.94243,-0.66607 -1.26982,-1.53004 -1.26983,-1.53005 1.70295,-1.24522 1.70294,-1.24522 -1.88221,-1.70338 -1.88222,-1.70338 0.47757,-1.82622 0.47757,-1.82621 -2.10845,-1.47681 -2.10844,-1.47681 0.59839,-1.55937 0.59838,-1.55937 -1.66544,-2.5418 -1.66545,-2.54179 -1.99528,-0.63328 -1.99529,-0.63328 0.59329,-2.36384 0.59328,-2.36384 -3.50854,-3.50854 c -1.9297,-1.92971 -3.50854,-3.93849 -3.50854,-4.46396 0,-0.52548 -1.8,-2.49615 -4,-4.37927 l -4,-3.42385 0,-1.20373 c 0,-0.66205 -0.68656,-2.53138 -1.52568,-4.15407 l -1.52568,-2.95034 -1.9153,0 -1.91531,0 -0.548,-0.88669 L 0,37.51804 l 1.48899,-1.23575 1.48899,-1.23575 0,-1.67755 c 0,-0.92266 -0.3933,-2.10506 -0.87401,-2.62756 l -0.87401,-0.95 0.82203,-7.5 0.82202,-7.5 3.73752,-3.26636 3.73751,-3.26635 4.99597,-1.48365 c 2.74779,-0.816 5.98305,-1.48364 7.18947,-1.48364 1.20643,0 3.60688,-0.28268 5.33435,-0.62817 L 31.00968,4.03509 29.24383,2.73468 27.47798,1.43427 29.3289,0.71713 31.17983,0 l 0.86378,1.39571 0.86378,1.39572 11.91745,0.0298 11.91745,0.0298 1.36785,1.02947 c 0.75231,0.5662 4.57056,1.83007 8.485,2.80859 l 7.11717,1.77913 4.72414,0.0714 4.72413,0.0714 1.14925,1.84024 1.14924,1.84023 2.05946,0 2.05945,0 1.2,1.2 1.2,1.2 1.2,-1.2 c 0.66,-0.66 1.75468,-1.2 2.43261,-1.2 l 1.23261,0 0.65773,2.07232 0.65773,2.07232 1.53641,-0.58957 1.53641,-0.58958 1.36051,1.12913 1.36052,1.12913 1.4838,-0.56938 1.48379,-0.56939 1.52894,1.52894 c 0.84092,0.84092 1.52894,2.12804 1.52894,2.86027 l 0,1.33134 5.75,3.77182 c 3.1625,2.07451 7.1,4.88646 8.75,6.24878 1.65,1.36232 4.575,3.16654 6.5,4.00938 1.925,0.84284 4.039,1.43532 4.69777,1.31662 l 1.19778,-0.21582 1.08741,2.03185 1.08741,2.03184 1.96481,0 1.96482,0 0,1.02234 c 0,0.56229 1.88916,3.07184 4.19813,5.57678 l 4.19813,4.55443 2.731,1.41226 2.731,1.41225 0.63826,2.01097 0.63826,2.01097 1.95736,0 1.95736,0 0.9505,2.5 0.9505,2.5 0.94783,0 c 0.5213,0 2.30411,1.35629 3.96179,3.01397 1.65769,1.65768 3.29763,3.90768 3.64431,5 l 0.63035,1.98597 1.43261,0 1.43261,0 0,1.59362 0,1.59362 2,0.52301 2,0.52301 0,1.16069 0,1.16068 3.10283,2.72269 3.10283,2.72268 1.39717,0 1.39717,0 0.15753,1.75 c 0.0866,0.9625 0.13328,2.33268 0.10364,3.04485 l -0.0539,1.29485 2.55087,1.6714 2.55088,1.6714 2.09549,0.0337 2.09549,0.0337 0.31438,2.72879 0.31437,2.72879 3.81914,1.02839 3.81913,1.02838 1.23894,1.49283 c 0.68141,0.82115 1.80373,1.49292 2.49404,1.49292 0.69031,0 1.79663,-0.65249 2.45848,-1.44997 0.66185,-0.79748 3.07945,-2.34854 5.37244,-3.44681 2.29299,-1.09826 7.76908,-2.90616 12.16908,-4.01756 l 8,-2.02072 11.77976,-0.56854 11.77976,-0.56853 2.59554,-0.98682 c 1.42754,-0.54276 4.00165,-0.97093 5.72024,-0.95151 1.71858,0.0194 9.8747,-0.19246 18.1247,-0.47084 l 15,-0.50616 6.5,1.48012 c 3.575,0.81407 10.63281,2.38625 15.68402,3.49373 5.0512,1.10749 9.81159,2.01361 10.57863,2.01361 0.76704,0 6.30923,1.57504 12.31598,3.50009 l 10.92137,3.50008 2.5,1.82438 2.5,1.82437 7,1.1337 7,1.13369 8.35483,4.22097 8.35483,4.22096 3.95889,3.80371 3.9589,3.8037 2.87525,-2.12577 2.87526,-2.12577 7.81102,-0.71097 7.81102,-0.71097 3.9111,-1.66237 3.9111,-1.66238 7.0889,-0.44604 c 3.8989,-0.24532 9.1139,-0.76412 11.5889,-1.15287 2.475,-0.38876 6.525,-0.71125 9,-0.71665 2.475,-0.005 10.2979,0.28357 17.3843,0.64216 l 12.8843,0.65197 2.3613,1.54716 2.3613,1.54717 2.3867,-0.59903 2.3867,-0.59903 6.8677,2.69166 6.8677,2.69165 3.6914,2.88722 c 2.0302,1.58796 3.9496,2.88721 4.2653,2.88721 0.3157,0 3.8295,2.31416 7.8086,5.14257 l 7.2347,5.14258 8.75,8.85934 8.75,8.85934 0,1.49809 0,1.49808 1.2971,0 1.297,0 3.5641,3.75 c 1.9602,2.0625 5.539,6.38633 7.9529,9.60851 2.4139,3.22219 6.5249,9.04471 9.1356,12.93894 2.6107,3.89423 5.0857,7.3329 5.5,7.64148 0.4143,0.30859 2.1538,2.58607 3.8654,5.06107 1.7117,2.475 3.8492,5.94015 4.75,7.70034 0.9009,1.76019 1.6379,4.13681 1.6379,5.28138 l 0,2.08105 -1.5127,0.58049 -1.5128,0.58049 -1.5492,-1.28573 c -0.852,-0.70715 -3.062,-3.56999 -4.911,-6.36187 -1.849,-2.79188 -3.6729,-6.32552 -4.0531,-7.85253 l -0.6913,-2.77638 -2.1349,-1.13232 c -1.1743,-0.62277 -2.808,-2.0734 -3.6305,-3.22362 -0.8226,-1.15021 -2.6325,-4.3413 -4.022,-7.0913 l -2.5265,-5 -5.3586,-5.5 -5.3587,-5.5 -1.3828,-3.25 -1.3827,-3.25 -1.4013,0 -1.4012,0 -5.6595,-5.75 c -3.1127,-3.1625 -6.3018,-6.96655 -7.0869,-8.45344 l -1.4275,-2.70344 -3.4697,-0.95803 c -1.9083,-0.52691 -4.9451,-1.96497 -6.7484,-3.19568 -1.8033,-1.23071 -4.7412,-3.77059 -6.5287,-5.64418 -1.7875,-1.87359 -3.25,-3.73325 -3.25,-4.13257 l 0,-0.72603 -4.75,-1.33477 -4.75,-1.33478 -5.9089,-3.43549 -5.9088,-3.43549 -0.8259,1.30195 c -0.4542,0.71607 -0.8327,1.56533 -0.8411,1.88723 l -0.015,0.58528 -4.75,-0.17073 c -2.6125,-0.0939 -6.1,-0.50241 -7.75,-0.9078 -1.65,-0.40539 -4.6663,-1.4382 -6.7028,-2.29515 l -3.7028,-1.55807 -4.2972,1.02223 -4.2972,1.02223 -8.3723,-0.38169 -8.3723,-0.3817 -7.7943,1.99006 c -4.2872,1.09453 -9.0924,1.99006 -10.6786,1.99006 l -2.8841,0 -2.69153,1.25 -2.69157,1.25 -0.008,1.09029 -0.008,1.09028 5.75,1.23702 c 3.1625,0.68036 8.225,1.87379 11.25,2.65207 l 5.5,1.41505 1.1102,1.50765 1.1103,1.50764 1.6254,0 c 0.894,0 3.7694,0.51729 6.3898,1.14953 2.6203,0.63223 6.6951,1.99315 9.055,3.02425 l 4.2907,1.87472 0.5663,1.47575 0.5663,1.47575 2.6571,0 2.6571,0 5.0017,1.82818 5.0017,1.82818 4.9842,3.50177 4.9842,3.50176 3,0.74564 c 1.65,0.4101 6.15,2.54371 10,4.74135 3.85,2.19764 8.125,4.57733 9.5,5.28819 1.375,0.71086 4.525,2.25726 7,3.43645 2.475,1.17919 6.4125,3.7716 8.75,5.76091 l 4.25,3.61693 0,1.37532 0,1.37532 1.4847,0 1.4847,0 5.1488,7.75 5.1489,7.75 -0.064,2.66955 -0.064,2.66956 1.4643,0.56192 1.4643,0.56192 3.0125,6.71412 3.0124,6.71412 -0.2795,2.13253 -0.2794,2.13252 2.7335,3.24861 c 1.5034,1.78673 2.7335,3.83397 2.7335,4.54943 0,0.71546 0.675,1.86103 1.5,2.54572 l 1.5,1.24489 0,2.37755 0,2.37756 0.9805,0 0.9805,0 3.0195,6.4583 3.0195,6.4583 0,1.91925 0,1.91926 -1.4872,1.23432 -1.4873,1.23432 -1.3604,-0.52202 -1.3604,-0.52203 -2.2456,-4.77748 c -1.2352,-2.62761 -2.4875,-6.26742 -2.783,-8.08846 l -0.5373,-3.31099 -3.3694,-3.57259 -3.3689,-3.57258 0,-1.86979 0,-1.86978 -1.0871,-0.67187 -1.0871,-0.67188 0.5036,-1.92574 0.5036,-1.92575 -2.1665,-2.36205 -2.1665,-2.36205 -2.3238,-6.07913 -2.3238,-6.07913 0.5642,-1.77776 0.5643,-1.77776 -3.4984,-2.79146 -3.4985,-2.79146 -2.492,-4.91775 -2.492,-4.91775 0,-2.03325 0,-2.03324 -1.6918,0 -1.6919,0 -6.8183,-4.0507 -6.8183,-4.05069 -1.522,-2.32288 -1.522,-2.32288 -4.3055,-0.48528 -4.3054,-0.48528 -7.1624,-4.25511 -7.1632,-4.25511 0,-0.88604 0,-0.88603 -2.31,0 -2.31,0 -7.44,-3.64025 c -4.092,-2.00214 -8.7603,-4.56673 -10.374,-5.69909 -1.6136,-1.13236 -3.6386,-2.11682 -4.5,-2.18769 -0.8613,-0.0709 -3.3411,-0.46811 -5.5108,-0.88276 l -3.9447,-0.75391 -4.8053,-2.435 -4.8052,-2.43499 0,-1.09979 0,-1.09978 -1.8985,0.49647 -1.8985,0.49647 -4.9818,-1.29226 c -2.74,-0.71074 -6.2732,-1.9424 -7.8515,-2.73702 -1.5783,-0.79462 -4.3575,-1.72784 -6.17589,-2.07382 l -3.30619,-0.62906 -2.47315,1.62048 -2.47315,1.62047 -5.47066,-0.64297 -5.47066,-0.64297 0,1.11438 c 0,0.61291 1.125,2.45136 2.5,4.08546 1.375,1.63409 2.5,3.37618 2.5,3.8713 0,0.49512 -1.12548,1.63767 -2.50107,2.53899 l -2.50107,1.63876 -5.24893,-2.0474 c -2.88691,-1.12607 -6.28915,-2.34226 -7.56052,-2.70265 -1.27138,-0.36038 -3.83983,-1.62862 -5.70768,-2.81831 l -3.39608,-2.16306 -0.0423,-2.14228 -0.0423,-2.14228 -7.25,-1.74693 c -3.9875,-0.9608 -8.47416,-2.36394 -9.97036,-3.11807 l -2.72035,-1.37114 -1.1651,-2.23965 c -0.6408,-1.23181 -1.26219,-2.3602 -1.38086,-2.50754 -0.11867,-0.14733 -1.29522,0.30325 -2.61455,1.0013 -1.31933,0.69806 -4.47624,2.71142 -7.01537,4.47414 l -4.61659,3.20495 -2.7561,0.49978 c -1.51586,0.27488 -3.0009,0.74456 -3.30008,1.04375 l -0.54402,0.54397 1.41666,0.0125 1.41667,0.0125 4.0656,3.73754 c 2.23608,2.05564 5.38608,4.71947 7,5.91962 1.61392,1.20014 5.1844,3.68534 7.9344,5.52266 l 5,3.34057 -0.10575,2.47258 -0.10575,2.47257 1.42206,1.03984 1.42207,1.03984 0.29911,6.46492 0.29911,6.46493 -1.41915,1.6381 -1.41914,1.6381 -0.0549,2.3619 c -0.0302,1.29905 -0.4869,4.71952 -1.01493,7.60106 l -0.96004,5.23916 1.25644,3.4746 1.25643,3.4746 -1.67413,1.84989 -1.67413,1.8499 0.97754,0.97754 c 0.53765,0.53765 1.39287,2.984 1.9005,5.43634 0.50762,2.45235 2.09966,7.2594 3.53786,10.68234 l 2.61491,6.22354 1.04637,5.66032 1.04636,5.66033 -0.66911,4.86502 -0.66911,4.86503 -0.90631,0.56013 -0.90632,0.56013 -0.004,2.19099 -0.004,2.19098 -2.16607,3.5 -2.16607,3.5 0.19649,2.89177 0.1965,2.89177 -1.64796,1.82099 -1.64797,1.82098 0.59323,1.54593 0.59323,1.54593 -1.03288,2.71666 c -0.56808,1.49417 -1.26728,4.39252 -1.55377,6.44079 l -0.5209,3.72411 2.83182,-0.19946 2.83236,-0.19954 -0.18042,1.99919 -0.18042,1.99918 1.43042,0.80051 c 0.78673,0.44027 1.43042,1.13655 1.43042,1.54728 l 0,0.74677 -2.25,-0.10365 -2.25,-0.10365 -3.31766,-1.94281 -3.31765,-1.94282 0.32101,-8.41778 0.321,-8.41779 1.24665,-0.41555 1.24665,-0.41555 0,-3.29422 0,-3.29422 1.54446,-1.28179 1.54446,-1.28178 -0.60789,-2.76767 -0.60788,-2.76767 1.56343,-3.02333 c 0.85988,-1.66283 1.56342,-3.27068 1.56342,-3.57299 0,-0.30231 -0.51289,-0.54966 -1.13976,-0.54966 -0.62686,0 -1.73755,-0.7875 -2.46819,-1.75 l -1.32844,-1.75 -0.033,-4 c -0.0181,-2.2 -0.65963,-7.15 -1.42553,-11 -0.7659,-3.85 -2.04755,-8.8 -2.84812,-11 -0.80056,-2.2 -1.76165,-6.66692 -2.13575,-9.9265 l -0.68019,-5.9265 -1.93023,-1.35198 -1.93024,-1.35199 0.56362,-6.72152 c 0.30999,-3.69683 1.21984,-10.54651 2.02189,-15.22151 0.80205,-4.675 1.69706,-9.857 1.9889,-11.51556 l 0.53061,-3.01555 -3.65897,-1.32311 -3.65898,-1.3231 -3.2443,-2.84853 -3.2443,-2.84853 -2.06314,-4.31281 c -1.13472,-2.37205 -2.57001,-5.57148 -3.18952,-7.10986 -0.61949,-1.53838 -1.12636,-3.67588 -1.12636,-4.75 l 0,-1.95295 -1.03212,0 c -0.56766,0 -2.48016,0.61748 -4.25,1.37218 -1.76983,0.7547 -5.01788,2.81956 -7.21788,4.58858 l -4,3.21641 -5.34038,7.16142 c -2.93721,3.93877 -6.26451,7.88722 -7.394,8.77433 l -2.05362,1.61292 5.394,4.19848 c 2.9667,2.30916 6.10223,4.73335 6.96785,5.38708 0.86562,0.65373 4.16563,2.5386 7.33334,4.1886 l 5.75948,3 4.29902,4 c 2.36447,2.2 5.31089,5.50221 6.5476,7.33825 l 2.24858,3.33825 -1.30589,4.16175 c -0.71824,2.28896 -3.29103,8.88675 -5.71731,14.66175 -2.42629,5.775 -5.46212,12.79837 -6.74631,15.60749 -1.28418,2.80912 -3.92816,7.59819 -5.8755,10.64237 l -3.54062,5.53488 -2.84232,2.35393 -2.84232,2.35392 4.3042,5.65965 4.3042,5.65965 0,1.93354 0,1.93354 2.25,1.04511 2.25,1.04511 1.86007,3.8654 c 1.02304,2.12598 2.17762,4.54041 2.56573,5.36541 l 0.70567,1.5 3.16262,1.5 3.16263,1.5 0.0216,1.09501 c 0.0119,0.60226 0.89719,1.88738 1.96732,2.85583 l 1.94567,1.76081 6.80433,1.30951 c 3.74237,0.72023 8.0784,1.80038 9.6356,2.40033 l 2.83128,1.09082 -0.40961,1.24384 -0.40961,1.24385 -2.19309,0.32236 -2.1931,0.32236 2.27143,1.85335 2.27142,1.85335 -1.74157,0.67804 -1.74156,0.67804 -3.5656,-2.10375 c -1.96103,-1.15706 -4.15973,-2.10375 -4.88595,-2.10375 l -1.32039,0 -1.37245,-1.65389 -1.37244,-1.6539 -6.12414,-2.74781 -6.12413,-2.74781 -2.62587,-3.44269 c -1.44422,-1.89347 -2.62586,-3.96271 -2.62586,-4.59829 l 0,-1.15561 -1.01242,0 -1.01242,0 -3.52476,-5.25 c -1.93862,-2.8875 -5.30952,-7.725 -7.49089,-10.75 -2.18136,-3.025 -5.37753,-6.71028 -7.1026,-8.18952 l -3.13647,-2.68952 0.54702,-4.07839 0.54703,-4.07838 3.32624,-5.2321 c 1.82943,-2.87765 5.16845,-7.70709 7.42005,-10.73209 2.25159,-3.025 6.37157,-9.55 9.15551,-14.5 2.78394,-4.95 5.32424,-9.9 5.64511,-11 l 0.58341,-2 -5.82062,-2.88953 -5.82062,-2.88952 -10.59591,-9.89538 -10.59592,-9.89538 -3.05461,-6.46509 -3.05461,-6.4651 -1.08916,0 -1.08916,0 0.69513,-4.25 0.69512,-4.25 2.57038,-3.5 c 1.41371,-1.925 4.85296,-5.67213 7.64277,-8.32695 l 5.0724,-4.82696 7.29612,-3.515 7.29613,-3.51501 -1.29613,-1.56294 c -0.71286,-0.85962 -2.74417,-2.16824 -4.514,-2.90804 l -3.21788,-1.3451 -5.67386,0 -5.67385,0 -2.79814,2.92798 -2.79813,2.92798 -1.56013,5.25352 c -0.85807,2.88944 -1.56013,6.11509 -1.56013,7.16811 0,1.05303 -0.69597,4.30866 -1.54661,7.23474 l -1.54661,5.32014 -1.45339,1.20621 -1.45339,1.20621 0,1.98018 0,1.98017 2.44315,4.64738 c 1.34374,2.55606 4.01365,8.24738 5.93314,12.64738 l 3.48998,8 1.17532,6.5 1.17531,6.5 -1.69226,4.5 c -0.93075,2.475 -2.07551,6.525 -2.54392,9 -0.4684,2.475 -1.76991,8.12352 -2.89224,12.55226 -1.12234,4.42875 -2.4601,10.95375 -2.97282,14.5 -0.51271,3.54626 -1.3858,7.61541 -1.94018,9.04256 -0.55439,1.42715 -1.66424,3.25108 -2.46633,4.05317 l -1.45835,1.45835 -2.73277,10.91415 c -1.50303,6.00278 -3.22037,12.05385 -3.81631,13.44683 -0.59595,1.39297 -1.156,3.20768 -1.24457,4.03268 -0.0886,0.825 -0.22766,2.24492 -0.30909,3.15539 l -0.14806,1.65538 -3.5626,4.34462 c -1.95943,2.38953 -4.09693,4.89247 -4.75,5.56207 -0.65307,0.6696 -3.0999,3.0321 -5.4374,5.25 -2.3375,2.2179 -4.25,3.86796 -4.25,3.66681 0,-0.20115 -1.6875,-0.0887 -3.75,0.25 z"
     id="path2989"
     inkscape:connector-curvature="0" />
</svg>
