<?xml version="1.0" encoding="UTF-8" standalone="no"?>
<!-- Created with Inkscape (http://www.inkscape.org/) -->

<svg
   xmlns:dc="http://purl.org/dc/elements/1.1/"
   xmlns:cc="http://creativecommons.org/ns#"
   xmlns:rdf="http://www.w3.org/1999/02/22-rdf-syntax-ns#"
   xmlns:svg="http://www.w3.org/2000/svg"
   xmlns="http://www.w3.org/2000/svg"
   xmlns:sodipodi="http://sodipodi.sourceforge.net/DTD/sodipodi-0.dtd"
   xmlns:inkscape="http://www.inkscape.org/namespaces/inkscape"
   id="svg2"
   version="1.1"
   inkscape:version="0.48.2 r9819"
   width="1278.4227"
   height="604.79773"
   sodipodi:docname="halfhourswithins00pack_0322b.png">
  <metadata
     id="metadata8">
    <rdf:RDF>
      <cc:Work
         rdf:about="">
        <dc:format>image/svg+xml</dc:format>
        <dc:type
           rdf:resource="http://purl.org/dc/dcmitype/StillImage" />
        <dc:title></dc:title>
      </cc:Work>
    </rdf:RDF>
  </metadata>
  <defs
     id="defs6" />
  <sodipodi:namedview
     pagecolor="#ffffff"
     bordercolor="#666666"
     borderopacity="1"
     objecttolerance="10"
     gridtolerance="10"
     guidetolerance="10"
     inkscape:pageopacity="0"
     inkscape:pageshadow="2"
     inkscape:window-width="1920"
     inkscape:window-height="1176"
     id="namedview4"
     showgrid="false"
     fit-margin-top="0"
     fit-margin-left="0"
     fit-margin-right="0"
     fit-margin-bottom="0"
     inkscape:zoom="1"
     inkscape:cx="645.86427"
     inkscape:cy="300.91341"
     inkscape:window-x="0"
     inkscape:window-y="24"
     inkscape:window-maximized="1"
     inkscape:current-layer="svg2" />
  <path
     style="fill:#000000"
     d="m 1195.4011,603.94391 c -0.3196,-0.51721 0.4137,-1.86721 1.6296,-3 2.6205,-2.44139 2.1047,-2.60333 -1.8021,-0.56577 -3.8352,2.00022 -5.3643,1.89035 -5.3643,-0.38543 0,-1.19048 0.9392,-2.12732 2.534,-2.52759 3.9486,-0.99102 5.0342,-4.52624 3.0142,-9.81551 -0.9285,-2.43126 -2.6692,-5.61172 -3.8682,-7.06768 -1.199,-1.45596 -3.305,-4.22116 -4.68,-6.14489 -1.6936,-2.36948 -3.3064,-3.50749 -5,-3.52809 -1.609,-0.0196 -3.1746,-1.03746 -4.393,-2.85615 -2.1977,-3.28071 -8.1078,-7.59503 -9.3514,-6.82644 -0.4685,0.2895 -3.0801,-1.23925 -5.8037,-3.39722 -2.7235,-2.15797 -5.4769,-3.92837 -6.1186,-3.93421 -0.6416,-0.006 -1.3166,-0.40442 -1.5,-0.88571 -0.1833,-0.48129 -3.0817,-2.25541 -6.4408,-3.94247 -4.6925,-2.35673 -6.3809,-2.79403 -7.2875,-1.8875 -0.9065,0.90654 -2.3875,0.55055 -6.3924,-1.53652 -9.6913,-5.05039 -28.7084,-10.46483 -51.7126,-14.72329 -20.7823,-3.84714 -26.0531,-4.9932 -28.167,-6.12449 -2.9628,-1.58568 -3.579,-0.0388 -2.721,6.83067 1.0649,8.52593 1.0333,34.05082 -0.043,34.71597 -1.646,1.01726 -2.0395,-1.00256 -2.5518,-13.09582 -0.8262,-19.50664 -1.6489,-27.62989 -2.6925,-26.58632 -1.3518,1.35184 -6.8248,18.08349 -6.8248,20.86439 0,1.27599 -0.6392,4.01659 -1.4204,6.09022 -0.7813,2.07363 -1.7017,5.45774 -2.0453,7.52024 -0.3437,2.0625 -1.0545,3.75 -1.5796,3.75 -1.396,0 -1.1048,-5.63175 0.6463,-12.5 2.9262,-11.47757 3.3909,-13.04912 6.3524,-21.48393 1.6383,-4.66616 2.6565,-8.79985 2.2627,-9.18599 -0.3939,-0.38614 -5.8911,-0.24186 -12.2161,0.32061 -12.6555,1.12544 -25.3948,0.75842 -28.5,-0.82111 -1.1,-0.55953 -3.0695,-1.577 -4.37673,-2.26105 -3.7488,-1.96177 -4.7092,0.0652 -7.074,14.93147 -2.518,15.82876 -3.2557,18 -6.1158,18 -1.9253,0 -2.0479,-0.37072 -1.4053,-4.25 0.3872,-2.3375 1.0538,-4.925 1.4813,-5.75 1.3238,-2.55469 3.1743,-16.26688 2.8236,-20.92228 -0.1832,-2.43225 -0.8956,-4.60725 -1.5831,-4.83333 -0.6875,-0.22608 -1.25,0.14552 -1.25,0.82579 0,0.68026 -1.1102,3.58368 -2.4672,6.45205 -1.3569,2.86836 -2.7687,7.10067 -3.1372,9.40512 -0.6698,4.18903 -3.6731,9.12059 -4.8442,7.95463 -0.3414,-0.33992 -0.1271,-2.58992 0.4764,-5 0.6034,-2.41009 1.5479,-6.40698 2.0988,-8.88198 0.5509,-2.475 2.0978,-6.5859 3.4375,-9.13533 1.3398,-2.54943 2.4359,-5.11485 2.4359,-5.70094 0,-0.58609 -5.0625,-6.85983 -11.25,-13.94165 -6.1875,-7.08183 -12.825,-14.80595 -14.75,-17.16472 -1.925,-2.35877 -6.1326,-7.27413 -9.3503,-10.92302 -3.2176,-3.64888 -6.6397,-7.53434 -7.6046,-8.63434 -0.9649,-1.1 -7.4946,-8.75 -14.5104,-17 -7.0158,-8.25 -15.1404,-17.7 -18.0547,-21 -2.9142,-3.3 -7.2342,-8.475 -9.5998,-11.5 -6.7638,-8.64893 -22.7509,-27.14654 -26.7926,-31 -2.0191,-1.925 -5.1953,-5.75 -7.0583,-8.5 -3.6795,-5.43161 -11.3584,-14.96896 -20.0293,-24.87688 -3.025,-3.45657 -6.1765,-7.14833 -7.0034,-8.2039 -4.2393,-5.41187 -14.5031,-17.98333 -15.0382,-18.41922 -0.3376,-0.275 -6.1945,-7.7 -13.0153,-16.5 -6.8209,-8.8 -12.9765,-16.59771 -13.6792,-17.32826 -0.7026,-0.73054 -4.221,-5.09782 -7.8186,-9.70506 l -6.5411,-8.37681 -5.7021,4.41493 c -6.667,5.16203 -16.6957,14.7083 -23.632,22.4952 -2.6945,3.025 -10.5903,11.35 -17.5462,18.5 -6.9558,7.15 -16.3703,17.275 -20.9212,22.5 -14.3709,16.49991 -19.5482,22.36699 -21.455,24.31368 -1.7096,1.74526 -1.7348,2.13365 -0.3268,5.03867 0.839,1.73121 2.7212,5.84765 4.1825,9.14765 4.1817,9.44317 7.5696,16.77977 9.0216,19.5366 0.7348,1.39513 2.3017,4.99513 3.482,8 3.2186,8.19372 7.1617,16.81269 10.2655,22.43826 1.5248,2.76383 7.051,13.57514 12.2803,24.02514 5.2293,10.45 9.9442,19.15 10.4775,19.33333 0.5333,0.18334 0.9697,0.90006 0.9697,1.59272 0,0.69266 1.1143,3.24266 2.4762,5.66667 1.3619,2.424 3.2039,6.07781 4.0935,8.11956 0.8895,2.04176 2.3627,3.93113 3.2738,4.1986 12.5376,3.68072 38.6589,8.56997 45.8568,8.58322 1.8917,0.003 3.5672,0.66149 4.0975,1.60913 0.6521,1.16524 4.0124,2.0137 12.2997,3.10569 l 11.4025,1.50246 10,-4.27668 c 5.5,-2.35218 10.225,-4.54763 10.5,-4.87879 2.2336,-2.68971 9,-5.1545 9,-3.27842 1e-4,2.16134 -10.1067,13.22251 -12.0815,13.22251 -0.5051,0 -0.9184,0.45 -0.9184,1 0,0.55 1.35,1 3,1 1.65,0 3,0.48868 3,1.08597 0,0.6941 2.0695,0.96473 5.7352,0.75 4.5695,-0.26769 5.742,-0.0311 5.769,1.16403 0.038,1.67368 3.0348,1.80341 12.9159,0.55909 4.6378,-0.58403 6.5566,-1.38196 8.8584,-3.68378 1.9498,-1.9498 2.7651,-3.60049 2.4235,-4.90679 -0.5345,-2.04415 0.7167,-2.71814 1.798,-0.96852 1.2408,2.0076 2.3396,0.90875 3,-3 0.8499,-5.03036 2.1407,-5.14814 2.7399,-0.25 0.5601,4.578 -1.5869,12.3727 -3.9799,14.44914 -4.4192,3.83458 -10.3468,4.93832 -23.8091,4.43336 -7.123,-0.26718 -16.7759,-1.02054 -21.4509,-1.67414 -4.675,-0.6536 -8.95,-1.19716 -9.5,-1.20791 -0.55,-0.0108 -5.05,1.56343 -10,3.49818 -11.142,4.35498 -18.9917,6.75137 -22.1148,6.75137 -1.3119,0 -2.3852,0.35415 -2.3852,0.78701 0,0.72285 12.2465,8.21299 13.4284,8.21299 0.2843,0 2.8917,1.06254 5.7943,2.36121 2.9025,1.29866 6.5148,2.86401 8.0273,3.47856 1.5125,0.61454 2.75,1.76625 2.75,2.55934 0,0.82567 1.3891,1.72224 3.25,2.09771 1.7875,0.36065 5.05,1.29557 7.25,2.07761 2.2,0.78204 8.0001,1.85961 12.8891,2.39461 5.778,0.63228 9.535,1.55728 10.7347,2.64295 1.3906,1.2585 3.0202,1.54168 6.6109,1.14876 5.8069,-0.63545 7.2653,-0.16921 7.2653,2.32258 0,1.69059 0.7372,1.90987 6.25,1.85904 10.2054,-0.0941 14.1986,-1.1098 14.5696,-3.70583 0.1757,-1.2301 -0.1618,-2.23654 -0.75,-2.23654 -0.5883,0 -1.0696,-0.675 -1.0696,-1.5 0,-2.30797 1.619,-1.78703 3.8849,1.25 1.9631,2.63116 2.0531,2.65423 2.0834,0.53393 0.017,-1.21884 -0.7239,-3.80069 -1.6475,-5.73745 -2.1856,-4.58329 -0.8936,-5.79117 2.1473,-2.0074 4.768,5.93284 3.7851,13.72883 -2.345,18.59961 -2.3323,1.85322 -3.5654,2.02767 -11.1231,1.57364 -4.675,-0.28086 -12.1,-1.23431 -16.5,-2.11879 -4.4,-0.88448 -12.725,-2.54323 -18.5,-3.68611 -5.775,-1.14288 -14.885,-3.66368 -20.2446,-5.60177 -5.3595,-1.9381 -10.4098,-3.26852 -11.2229,-2.95651 -0.8131,0.31201 -2.8694,-0.60323 -4.5697,-2.03388 -4.4342,-3.73118 -8.3288,-6.53927 -17.9628,-12.95167 -4.675,-3.11169 -8.725,-5.92896 -9,-6.26061 -0.275,-0.33164 -11.525,-0.60622 -25,-0.61016 -23.6683,-0.007 -35.4715,-0.75081 -62,-3.90744 -6.875,-0.81805 -17.225,-1.97563 -23,-2.57238 -23.30832,-2.40854 -29.34065,-3.95157 -34.73369,-8.88461 -3.26158,-2.98339 -4.08944,-4.51723 -4.65699,-8.6284 -0.37964,-2.75 -1.13998,-7.2952 -1.68964,-10.10043 l -0.99938,-5.10044 -3.96015,1.05703 c -2.17808,0.58136 -3.96015,1.58396 -3.96015,2.22799 0,2.34218 -3.19274,3.75262 -8.23469,3.63777 -3.63821,-0.0829 -5.45997,0.34582 -6.28929,1.47998 -0.89107,1.21862 -2.72442,1.55382 -7.74319,1.41575 -3.64354,-0.10024 -6.86001,0.27911 -7.21328,0.85072 -0.81625,1.32071 -7.07769,1.33848 -9.52814,0.027 -1.28883,-0.68976 -2.66146,-0.64723 -4.37983,0.13571 -2.06229,0.93964 -3.30228,0.76447 -7.04625,-0.9954 -2.49894,-1.17464 -6.12954,-2.13571 -8.068,-2.13571 -1.93846,0 -4.3603,-0.52199 -5.38187,-1.15997 -1.49646,-0.93455 -2.41689,-0.77422 -4.73643,0.82505 -7.46133,5.14439 -16.5518,7.73813 -18.92903,5.40091 -0.5225,-0.5137 -2.87609,-1.15164 -5.23021,-1.41764 -6.23906,-0.70496 -10.48826,-3.36723 -16.43929,-10.29975 -3.6064,-4.2012 -6.19979,-8.57474 -8.18014,-13.79518 l -2.89965,-7.64378 -5.1923,5.36076 c -5.97776,6.17169 -13.06926,9.88855 -19.03882,9.9788 -5.24581,0.0793 -6.02653,-0.43094 -8.5116,-5.56278 -1.64357,-3.39403 -4.95799,-18.01847 -4.95799,-21.8764 0,-0.51041 -0.45,-0.64991 -1,-0.30999 -0.55,0.33992 -1,1.7994 -1,3.24329 0,1.44389 -0.9191,4.52388 -2.04245,6.84441 -1.6288,3.36465 -3.19653,4.78377 -7.7408,7.00708 -3.1341,1.53337 -7.08774,2.74856 -8.78587,2.70043 -5.77139,-0.1636 -12.84401,-4.84494 -22.563,-14.93437 -12.42452,-12.89809 -14.95073,-15.36084 -15.75663,-15.36084 -0.37248,0 -1.2548,3.2625 -1.96071,7.25 -1.73252,9.78654 -3.04622,13.8641 -5.24697,16.28599 -1.16121,1.27788 -2.23565,4.8152 -2.88558,9.5 -0.56952,4.1052 -1.53852,8.70723 -2.15333,10.22673 -1.26865,3.13545 -5.14782,4.57709 -7.36491,2.73707 -0.81085,-0.67295 -2.12144,-0.9752 -2.91242,-0.67168 -2.51452,0.96492 -8.25484,-1.25382 -11.91304,-4.6046 -4.03424,-3.69522 -7.19424,-10.33952 -8.24273,-17.33136 -0.39528,-2.6359 -1.77341,-7.17745 -3.06251,-10.09235 l -2.34383,-5.2998 -7.31261,0 c -4.02194,0 -7.74011,0.39794 -8.26261,0.88431 -0.5225,0.48638 -3.96052,2.49071 -7.64005,4.45409 -3.67953,1.96338 -7.50453,4.02393 -8.5,4.57901 -3.79288,2.11494 -10.73575,5.08259 -11.89079,5.08259 -2.30016,0 -2.34721,3.0296 -0.11265,7.25355 2.82692,5.34367 4.14908,9.80092 7.71203,25.99878 3.05205,13.87524 2.84371,17.74767 -0.95483,17.74767 -4.12057,0 -5.75034,-3.45788 -6.5019,-13.79505 -1.01074,-13.90192 -5.43147,-34.66863 -7.0381,-33.062 -0.23118,0.23119 0.0281,3.65662 0.57629,7.61207 0.54814,3.95545 0.86238,17.74575 0.69831,30.6451 -0.28026,22.03445 -0.42572,23.62417 -2.40429,26.27662 -6.11263,8.19455 -10.62437,0.78551 -6.86154,-11.26781 0.84287,-2.69991 1.98214,-12.10893 2.53171,-20.90893 1.34718,-21.57159 1.38573,-24.15554 0.45188,-30.29542 -0.57198,-3.76066 -0.43233,-5.99254 0.48184,-7.70068 1.12191,-2.0963 0.88359,-3.56122 -1.85533,-11.40468 -1.72842,-4.94969 -3.14258,-9.43567 -3.14258,-9.96886 0,-0.54388 3.67789,-0.99643 8.37841,-1.03094 4.60813,-0.0338 11.00267,-0.74503 14.2101,-1.58046 3.20743,-0.83543 6.83559,-1.51896 8.06257,-1.51896 1.22699,0 2.47085,-0.38827 2.76414,-0.86283 0.29329,-0.47455 2.5668,-1.43218 5.05225,-2.12806 3.48608,-0.97604 4.84484,-0.99481 5.94458,-0.0821 0.82284,0.6829 3.66418,1.05415 6.72016,0.87806 4.98779,-0.28739 5.33008,-0.4789 5.90753,-3.30507 0.33713,-1.65 1.22517,-4.125 1.97343,-5.5 1.16694,-2.14436 2.0356,-13.99298 1.75952,-24 -0.0379,-1.375 -0.0769,-4.89978 -0.0866,-7.83284 l -0.0177,-5.33284 -17.10244,-16.16716 c -17.89186,-16.91342 -22.16282,-20.68932 -42.60565,-37.66716 -2.98013,-2.475 -6.46079,-5.5125 -7.73481,-6.75 -1.27402,-1.2375 -2.63344,-2.25561 -3.02094,-2.26247 -0.3875,-0.007 -2.72955,-1.82129 -5.20455,-4.03209 -6.30311,-5.63025 -7.07439,-6.21439 -7.56177,-5.72701 -0.2366,0.23661 -1.0037,4.44451 -1.70466,9.35088 -0.89389,6.25678 -1.68279,8.92069 -2.64181,8.92069 -1.83088,0 -6.09176,14.47441 -6.09176,20.69398 0,4.47153 -1.25414,6.42776 -2.27976,3.55602 -0.24554,-0.6875 -0.70869,-1.01185 -1.02922,-0.72078 -1.13155,1.02753 -5.79705,20.5532 -6.38471,26.72078 -0.32754,3.4375 -0.81834,6.25 -1.09067,6.25 -0.27234,0 -1.05155,-0.76092 -1.73159,-1.69092 -1.06725,-1.45956 -1.3902,-0.97393 -2.36024,3.54922 -0.6181,2.88208 -1.12381,8.34144 -1.12381,12.1319 0,6.89383 -1.58815,10.30072 -2.74305,5.88438 -0.47389,-1.81217 -0.9002,-1.00519 -1.92788,3.64938 -0.72569,3.28682 -1.58297,8.67604 -1.90507,11.97604 -0.81683,8.36859 -1.16633,9.23465 -2.81617,6.97836 -1.23757,-1.69248 -1.42016,-1.57361 -2.45234,1.5965 -0.61336,1.88383 -1.52748,7.16584 -2.03136,11.73782 -0.96396,8.74644 -1.65665,10.56176 -3.12413,8.18732 -1.54843,-2.50542 -2.28315,-0.29308 -2.90049,8.73382 -0.56479,8.25854 -0.72609,8.75304 -2.78529,8.53935 -1.84349,-0.19131 -2.43072,0.61577 -3.75,5.15391 -0.86032,2.9594 -1.56422,8.34898 -1.56422,11.97683 0,4.94936 -0.34536,6.59609 -1.38337,6.59609 -0.76085,0 -1.6101,-0.86704 -1.88722,-1.92675 -0.48658,-1.86066 -0.73927,-1.87302 -7.36664,-0.36039 -5.84644,1.3344 -8.63988,1.3959 -18.86277,0.41531 -6.6,-0.63309 -15.61384,-1.14591 -20.03076,-1.13962 -7.84236,0.0112 -8.05472,0.076 -9.05176,2.76145 -0.7617,2.05163 -0.61899,4.07 0.56196,7.94786 0.87062,2.85883 1.90641,5.52133 2.30176,5.91667 1.27591,1.27591 0.76614,2.38547 -1.09599,2.38547 -1.08946,0 -2.48185,-1.39886 -3.48382,-3.5 -1.93836,-4.06478 -2.7743,-4.24531 -6.59116,-1.42338 -4.05627,2.99894 -23.60887,9.71904 -46.11023,15.8478 -12.12906,3.30362 -29.984711,9.24182 -30.552671,10.1608 -0.8118,1.31352 -5.209,1.12977 -5.66449,-0.23671 -0.25558,-0.76674 -5.63845,0.5698 -16.10986,4 -16.10132,5.27443 -19.09716,5.8922 -20.16838,4.15893 -0.37526,-0.60718 -2.12992,-0.21891 -4.51918,1 -2.14816,1.09591 -4.8937,1.99256 -6.10119,1.99256 -1.2075,0 -3.68594,1.13686 -5.50766,2.52635 -1.82172,1.38949 -6.58919,4.26128 -10.59439,6.38176 -8.0560503,4.26513 -9.4540203,6.89139 -6.26174,11.76343 1.1105,1.69484 1.33242,2.8756 0.66576,3.54226 -1.4854303,1.48543 -4.2103203,-3.23529 -4.3735303,-7.57689 -0.0752,-2.0003 -0.25688,-3.63691 -0.40374,-3.63691 -0.14686,0 -0.98652,2.475 -1.86591,5.5 -1.59832,5.49804 -3.07587,6.88096 -4.20577999,3.93644 -1.53669001,-4.00455 6.10782999,-19.43644 9.62824999,-19.43644 1.8930803,0 7.0361703,-1.92037 8.0345103,-3 1.00434,-1.08611 6.14671,-3 8.06062,-3 1.93755,0 3.01224,-0.40678 7.92583,-3.00001 3.88567,-2.05073 35.23941,-10.36157 43.26355,-11.46773 3.199,-0.44099 4.75,-1.13159 4.75,-2.11497 0,-2.18983 3.8041,-3.34458 40.500001,-12.29388 23.70384,-5.78084 32.48919,-9.04807 35.25,-13.10933 1.2375,-1.82042 2.25,-3.6933 2.25,-4.16196 0,-1.32417 -8.85179,-1.00667 -18.41138,0.66039 -5.93974,1.0358 -9.25474,1.20136 -10.51799,0.52529 -2.09582,-1.12165 -7.19208,0.019 -21.86581,4.89415 -5.74789,1.90965 -10.219791,2.85141 -11.734511,2.47124 -1.61135,-0.40442 -3.71558,0.13398 -6.15977,1.57609 -2.46799,1.45615 -4.63649,2.00553 -6.46933,1.63896 -2.96086,-0.59217 -6.97684,0.76246 -16.10583,5.43269 -3.17054,1.62199 -6.69265,2.94907 -7.82692,2.94907 -1.13427,0 -3.3745,1.31219 -4.97829,2.91598 -3.31947,3.31947 -4.49342,2.72358 -2.4383,-1.23768 1.60892,-3.10118 1.32604,-3.26032 -1.96375,-1.10477 -1.32083,0.86544 -2.70391,2.95036 -3.07351,4.63314 -0.45809,2.08565 -0.92628,2.64819 -1.47079,1.76715 -0.94566,-1.53011 -0.39683,-3.24147 2.5669,-8.004 1.81153,-2.91101 3.66599,-4.08468 10.57306,-6.69157 4.60692,-1.73876 10.62622,-3.68745 13.37622,-4.33042 2.75,-0.64297 8.375,-2.21269 12.5,-3.48828 21.993061,-6.80097 28.419631,-8.56504 38.000001,-10.43085 5.775,-1.12471 12.87693,-2.99939 15.78207,-4.16597 4.86399,-1.95317 5.96082,-2.03344 13.85726,-1.01411 5.11142,0.65982 9.24547,0.74822 10.2346,0.21885 0.91269,-0.48846 2.25917,-2.61596 2.99219,-4.72779 0.73302,-2.11182 2.67729,-6.76468 4.32061,-10.33968 1.64331,-3.575 3.3499,-7.4 3.7924,-8.5 0.44251,-1.1 2.65323,-5.92825 4.91272,-10.72944 2.25948,-4.80119 4.10815,-8.96859 4.10815,-9.2609 0,-0.55933 2.06288,-5.23341 7.63429,-17.29782 1.85114,-4.00848 3.36571,-7.52067 3.36571,-7.80486 0,-0.28419 0.86005,-2.40452 1.91121,-4.71184 3.64432,-7.99934 8.84858,-19.23967 13.0543,-28.19514 7.71716,-16.43257 9.03449,-19.36973 9.03449,-20.14366 0,-0.42213 1.62779,-4.3875 3.61732,-8.81192 1.98952,-4.42443 5.13952,-11.43941 7,-15.58884 1.86047,-4.14942 3.38268,-8.3986 3.38268,-9.44261 0,-2.94659 14.6655,-31.60337 18.80442,-36.74434 2.73133,-3.3926 4.78957,-4.87448 7.8884,-5.67946 7.93833,-2.06214 10.92027,-1.487 15.84998,3.05704 2.47396,2.28042 4.6711,3.96792 4.88255,3.75 0.21144,-0.21791 1.96605,-5.12121 3.89914,-10.89621 5.46385,-16.32296 7.04588,-19.44775 11.12125,-21.96647 2.91773,-1.80325 4.48399,-2.1212 7.91496,-1.60669 3.7717,0.5656 5.15672,1.61278 11.71486,8.8573 4.09061,4.51872 9.4584,10.91586 11.92843,14.21586 2.47002,3.3 4.74318,6.225 5.05145,6.5 0.30827,0.275 1.25848,1.52208 2.11158,2.77128 0.8531,1.2492 3.09151,3.9492 4.97424,6 3.83439,4.17666 12.64201,15.13735 23.85874,29.69113 4.125,5.35221 8.09464,10.36271 8.82143,11.13444 1.90916,2.02723 4.17857,1.72318 4.17857,-0.55983 0,-1.85544 2.01268,-7.5733 5.81133,-16.50957 3.92812,-9.24081 21.98594,-43.8329 26.98885,-51.70064 0.9349,-1.47025 3.72482,-5.88245 6.19982,-9.80489 2.475,-3.92244 6.75,-10.30736 9.5,-14.18872 2.75,-3.88136 6.35,-9.1789 8,-11.77233 1.65,-2.59342 4.9125,-6.99301 7.25,-9.77687 2.3375,-2.78386 4.25,-5.48786 4.25,-6.00889 0,-0.93454 5.42018,-8.16768 14.73192,-19.65951 11.78766,-14.54744 35.82481,-38.76184 48.75937,-49.11892 2.74521,-2.19818 6.57021,-5.41325 8.5,-7.14461 4.18303,-3.7529 28.87351,-22.35207 29.67248,-22.35207 0.30659,0 3.54516,-2.10546 7.19683,-4.6788 13.68396,-9.64312 24.8698,-17.045466 32.1394,-21.268606 4.125,-2.39635 9.3,-5.51343 11.5,-6.92685 2.2,-1.41343 5.575,-3.41303 7.5,-4.44357 1.925,-1.03054 7.325,-3.95274 12,-6.49378 14.24903,-7.744882 46.27646,-23.23656 51,-24.66871 1.375,-0.416892 4.3713,-1.596831 6.6584,-2.622086 5.2784,-2.366174 16.0952,-6.442531 23.8416,-8.984775 3.3,-1.083008 8.025,-2.677968 10.5,-3.544354 21.1214,-7.393652 20.1484,-7.07877 52,-16.827504 2.475,-0.757516 6.975,-2.052448 10,-2.877627 3.025,-0.825179 8.875,-2.434647 13,-3.576596 4.125,-1.141949 9.75,-2.550625 12.5,-3.130392 2.75,-0.579767 6.8,-1.4913641 9,-2.0257731 8.7386,-2.122718 33.6807,-5.90968 45.5,-6.908282 6.875,-0.58086 24.425,-1.32581505 39,-1.65545505 25.3711,-0.573813 30.3675,-0.346554 57.9423,2.63549505 24.8666,2.689185 63.81593,11.7022941 88.05773,20.3771221 9.1316,3.267701 26.1132,9.568093 28.5,10.573856 1.1,0.463525 3.575,1.513599 5.5,2.333499 1.925,0.819901 4.5476,1.807252 5.828,2.194115 2.9785,0.899912 25.3778,12.284363 26.1156,13.273239 0.8507,1.140322 4.8817,3.245838 6.2141,3.245838 0.6516,0 1.8953,0.61667 2.7636,1.370379 0.8683,0.753708 3.6037,2.490085 6.0787,3.858616 10.5851,5.852946 13.2235,7.518826 27.4914,17.357745 38.9912,26.887926 75.9748,59.699986 89.5093,79.413256 1.3216,1.925 2.6612,3.725 2.977,4 1.7946,1.56324 7.234,9.48625 10.9844,16 12.7717,22.18197 16.0316,29.27272 21.3777,46.5 4.0272,12.97711 4.5474,15.42187 6.6758,31.3743 1.7095,12.81252 1.8626,16.587 0.9706,23.91943 -0.5826,4.78845 -1.2813,9.44079 -1.5527,10.33853 -0.2715,0.89774 0.4524,4.1604 1.6085,7.25035 4.0963,10.94843 3.056,36.27473 -2.1338,51.94794 -3.1321,9.45899 -4.1582,11.7551 -6.1854,13.84147 -0.7097,0.73039 -2.4815,3.35298 -3.9373,5.82798 -2.9377,4.99411 -15.2633,18.10211 -20.9489,22.27866 -2.0149,1.48009 -4.2649,3.2704 -5,3.97846 -1.6029,1.54383 -11.1371,7.78007 -15.3366,10.03151 -9.8979,5.3064 -25.7775,10.20004 -38.2761,11.79557 -10.0794,1.2867 -24.0876,0.26546 -37.7239,-2.7502 -8.2402,-1.82233 -9.7682,-2.83035 -5.5648,-3.67105 3.3138,-0.66275 9.6569,0.33947 17.5648,2.77528 5.7291,1.76471 18.0128,2.00758 27.5,0.54373 18.1033,-2.79331 40.6363,-13.70745 56.2788,-27.25938 2.6283,-2.27707 5.1098,-4.38367 5.5145,-4.68135 2.0338,-1.49622 12.2067,-13.91542 12.2067,-14.90213 0,-0.62651 0.353,-1.1391 0.7844,-1.1391 1.27,0 4.424,-5.86757 8.3317,-15.5 4.3158,-10.63847 6.523,-26.18767 5.4073,-38.0939 -0.9753,-10.40716 -2.3816,-10.68994 -6.993,-1.4061 -4.4296,8.91767 -16.0407,23.45916 -22.8435,28.60853 -5.9786,4.52547 -15.2381,9.28508 -26.6869,13.7177 -4.2378,1.64076 -7.6801,2.12736 -15,2.12039 -8.5197,-0.008 -10.8404,-0.45527 -22.4899,-4.3336 -7.1444,-2.37851 -15.2444,-5.78219 -18,-7.56374 -6.4832,-4.19159 -12.2524,-7.05118 -16.0101,-7.93574 -4.992,-1.1751 -13.6285,-5.73342 -13.1903,-6.96183 0.5835,-1.63611 4.3872,-0.99145 10.1903,1.72709 2.75,1.28829 6.125,2.69173 7.5,3.11876 1.375,0.42704 4.3,1.98481 6.5,3.46171 18.9559,12.72542 43.1282,18.11261 59,13.14911 7.6234,-2.38402 16.9388,-6.7272 18.5231,-8.6362 0.672,-0.8097 1.8417,-1.47218 2.5993,-1.47218 0.7577,0 1.3776,-0.45 1.3776,-1 0,-0.55 0.469,-1 1.0422,-1 0.5732,0 1.7327,-0.5625 2.5767,-1.25 2.9449,-2.39885 12.3572,-12.4163 14.8642,-15.81985 3.1601,-4.29002 11.4141,-21.14526 12.1177,-24.74512 0.5032,-2.57413 -2.089,-8.90051 -11.7536,-28.68503 -4.1903,-8.57813 -11.096,-20.97447 -12.8082,-22.99188 -0.8035,-0.94678 -1.9285,-2.51683 -2.5,-3.489 -0.5714,-0.97217 -2.7265,-4.30791 -4.789,-7.41277 -2.0625,-3.10485 -3.75,-5.89821 -3.75,-6.20747 0,-0.6847 -3.9752,-5.65831 -19.1016,-23.89888 -11.2393,-13.55329 -32.0562,-35.0184 -38.599,-39.80088 -1.7603,-1.28672 -5.3603,-4.44959 -8,-7.02859 -10.9692,-10.71708 -36.4422,-30.70178 -50.7994,-39.85454 -3.85,-2.45438 -8.2912,-5.32954 -9.8693,-6.38925 -1.5781,-1.05971 -4.5031,-2.82995 -6.5,-3.93386 -1.9969,-1.10392 -9.0307,-5.2089 -15.6307,-9.122186 -10.5413,-6.25016 -25.6901,-13.99475 -36.5,-18.66006 -13.0944,-5.651234 -32.6777,-13.311844 -39,-15.256031 C 967.10477,49.18985 936.89197,43.885274 895.86427,42.323517 c -42.7342,-1.626717 -96.3694,5.682945 -141,19.21616 -6.325,1.917912 -15.2686,4.594341 -19.8747,5.947621 -10.4597,3.073092 -33.2968,10.670926 -38.6253,12.850486 -2.2,0.89989 -4.9,2.00362 -6,2.45274 -1.1,0.44911 -3.7028,1.55394 -5.7839,2.45517 -2.0812,0.90124 -4.4298,1.63861 -5.2192,1.63861 -0.7894,0 -3.1367,0.86324 -5.2161,1.9183 -5.9849,3.03662 -18.21141,8.65215 -25.08358,11.520656 -3.46652,1.44696 -11.61389,5.31513 -18.10526,8.59594 -6.49137,3.2808 -12.07859,5.9651 -12.41604,5.9651 -0.33746,0 -3.66509,1.97168 -7.39474,4.38151 -6.30118,4.07136 -9.1277,5.74888 -18.28118,10.84973 -7.30281,4.06954 -32.71751,21.72593 -37.43856,26.00974 -1.06621,0.96746 -2.36343,1.75902 -2.88271,1.75902 -0.51927,0 -1.67192,0.7991 -2.56143,1.77578 -0.88952,0.97668 -2.7423,2.4892 -4.1173,3.36115 -2.87508,1.82323 -15.83791,12.86818 -27.5303,23.45713 -4.41666,3.99986 -9.17526,8.17309 -10.57465,9.27386 -1.3994,1.10076 -6.11077,5.72929 -10.46971,10.28562 -4.35894,4.55633 -9.56014,9.87323 -11.55824,11.81535 -1.99809,1.94211 -5.14942,5.55745 -7.00297,8.03408 -1.85354,2.47664 -4.26874,5.48188 -5.3671,6.67833 -1.09837,1.19644 -2.44703,2.77895 -2.99703,3.51668 -0.55,0.73773 -2.575,3.14861 -4.5,5.3575 -1.925,2.2089 -5.075,5.9866 -7,8.3949 -1.925,2.4083 -3.98102,4.86718 -4.56893,5.46418 -0.9446,0.95918 -3.32985,4.27297 -10.85022,15.07403 -1.14447,1.64373 -2.56442,3.44373 -3.15546,4 -0.59103,0.55628 -3.48324,4.38641 -6.42714,8.51141 -2.94389,4.125 -7.07282,9.79157 -9.17539,12.59237 -2.10257,2.80081 -3.82286,5.52845 -3.82286,6.06144 0,0.53299 -0.79154,1.84142 -1.75897,2.90763 -3.14078,3.46144 -8.24103,10.20871 -8.24103,10.90229 0,0.37176 -1.35,2.63808 -3,5.03627 -1.65,2.39819 -3,4.64819 -3,5 0,0.35181 -1.27093,2.52073 -2.8243,4.81982 -4.05135,5.99632 -13.1757,24.54194 -13.1757,26.78017 0,1.04183 1.51675,3.58304 3.37056,5.64713 1.85382,2.06408 5.67659,6.67788 8.49505,10.25288 2.81846,3.575 6.81421,8.61511 8.87943,11.20023 3.61089,4.5199 6.45011,5.91106 7.75496,3.79977 0.33992,-0.55 1.50833,-1 2.59647,-1 1.08814,0 6.71338,-2.25 12.50054,-5 5.78716,-2.75 10.75655,-5 11.04308,-5 0.28654,0 2.84724,-1.49662 5.69044,-3.32583 2.84321,-1.8292 6.29447,-3.99681 7.66947,-4.8169 4.57664,-2.72963 13.46724,-5.88374 16,-5.6763 1.375,0.11262 6.1,-1.59635 10.5,-3.7977 13.72057,-6.86452 23.84779,-9.24648 25.12803,-5.91023 0.4813,1.25426 1.03361,1.27962 3.71861,0.1708 9.57002,-3.95212 34.86359,-4.80647 36.85673,-1.24491 1.07593,1.92258 4.79663,2.14615 4.79663,0.28822 0,-0.72206 1.06517,-3.53456 2.36705,-6.25 5.46796,-11.40501 7.63295,-16.16857 7.63295,-16.79454 0,-0.36542 0.84302,-2.572 1.87338,-4.90351 1.03035,-2.3315 4.01267,-9.4141 6.62737,-15.7391 2.6147,-6.325 5.87192,-14.2 7.23826,-17.5 3.73224,-9.01411 3.80397,-9.19526 8.18608,-20.67464 2.2412,-5.87105 4.07491,-11.0888 4.07491,-11.59501 0,-1.97205 3.85041,-4.24531 8.07308,-4.76632 7.08021,-0.87357 8.64557,0.59254 13.91839,13.03597 6.35316,14.99294 8.7867,19.5 10.52885,19.5 0.81383,0 1.47968,-0.46921 1.47968,-1.0427 0,-0.57348 1.7679,-3.43581 3.92866,-6.36073 2.87303,-3.88907 4.78752,-5.48981 7.125,-5.9573 6.40114,-1.28023 7.71591,-0.82107 11.37646,3.97301 3.01205,3.94475 15.15168,27.36071 16.92048,32.63772 0.3227,0.9625 1.0031,1.75 1.5121,1.75 0.509,0 4.2356,-3.7125 8.2814,-8.25 4.0457,-4.5375 7.5871,-8.475 7.8697,-8.75 0.2825,-0.275 2.5321,-2.975 4.9991,-6 2.467,-3.025 6.0117,-7.17792 7.8772,-9.22872 1.8655,-2.0508 4.0952,-4.7508 4.955,-6 0.8597,-1.2492 2.0825,-2.72128 2.7173,-3.27128 0.6348,-0.55 3.7437,-4.15 6.9087,-8 3.165,-3.85 6.9413,-8.19479 8.3917,-9.65508 1.4505,-1.46029 5.1122,-5.91748 8.1372,-9.90487 8.7643,-11.55259 18.0494,-22.3377 20.3647,-23.65461 4.4039,-2.50491 5.6625,-1.80389 16.9289,9.42921 1.5365,1.53194 4.6865,5.36826 7,8.52515 4.4685,6.09747 5.6586,6.72761 7.8101,4.13528 1.1292,-1.36062 2.6349,-1.51764 9.2573,-0.96535 9.2424,0.77078 18.101,4.55686 26.1082,11.15834 9.5214,7.84997 49.8366,49.64038 61.6751,63.93193 1.8223,2.2 4.9359,5.575 6.919,7.5 1.9831,1.925 5.5926,5.95349 8.0212,8.95219 2.4285,2.99871 5.9905,7.08699 7.9155,9.08508 4.9457,5.13349 10,11.65558 10,12.90409 0,0.58225 0.4051,1.05864 0.9002,1.05864 0.4951,0 3.9826,3.5294 7.75,7.84312 3.7674,4.31371 10.1032,10.72621 14.0795,14.25 4.7366,4.19744 7.2368,7.15518 7.25,8.57677 0.025,2.70652 19.6544,22.54081 28.6853,28.98512 3.4843,2.4863 6.335,4.76894 6.335,5.07253 0,0.30358 -0.6441,1.05158 -1.4314,1.66222 -1.1691,0.90686 0.8106,3.4459 10.8071,13.86024 6.7312,7.0125 12.5542,12.75 12.9401,12.75 0.3858,0 2.5237,1.31997 4.75083,2.93326 2.2271,1.6133 5.3732,3.22405 6.9913,3.57946 1.6182,0.3554 2.9421,1.28544 2.9421,2.06674 0,1.78796 -1.7828,1.75963 -5,-0.0795 -1.375,-0.78602 -3.304,-1.44508 -4.2866,-1.46456 -2.43773,-0.0484 10.0734,11.61178 16.4136,15.2971 5.1898,3.01666 5.5641,3.57633 3.6636,5.47686 -0.9459,0.94586 0.089,2.53631 4.75,7.2988 3.2777,3.34917 7.6001,7.14602 9.6053,8.43745 6.3746,4.10531 17.208,9.45435 19.148,9.45435 1.0681,0 1.6822,0.53707 1.4292,1.25 -0.5836,1.64468 -4.1311,1.19352 -9.9085,-1.26012 -7.1252,-3.02608 -7.4438,-2.44668 -1.6344,2.972 4.3842,4.08923 5.9801,4.96858 9.0743,5 3.591,0.0365 17.8887,-3.33144 28.0327,-6.60327 5.8821,-1.89721 7.6309,-1.38123 6.9736,2.05758 -0.4904,2.56521 -0.4724,2.57238 5.3736,2.14378 3.2261,-0.23651 11.2656,-0.72323 17.8656,-1.08158 11.9053,-0.64641 12.0079,-0.63311 13,1.68503 0.837,1.95579 2.1408,2.50845 8,3.3912 3.85,0.58003 8.125,1.74832 9.5,2.59618 1.375,0.84787 5.425,2.33549 9,3.30583 8.4695,2.29882 9.9323,2.9943 19.8591,9.4417 9.5765,6.21986 14.5339,12.20224 16.1054,19.43524 1.8735,8.62253 -0.897,8.85043 -3.3888,0.27877 -0.8555,-2.94288 -2.2297,-5.91024 -3.0538,-6.59414 -1.6326,-1.35496 -1.7792,-1.14512 -2.9574,4.2318 -0.8892,4.05801 -2.5645,3.34063 -2.5645,-1.09813 0,-3.56756 -0.3099,-3.98429 -4.25,-5.71581 -2.3375,-1.02723 -6.6428,-3.60713 -9.5673,-5.73311 -7.8784,-5.72725 -19.839,-11.13487 -24.0073,-10.85415 -1.9142,0.12891 -5.0992,-0.55426 -7.0779,-1.51816 -3.8691,-1.88484 -8.6248,-2.56589 -30.9718,-4.43537 -12.7337,-1.06527 -14.4728,-1.02648 -15.2374,0.33985 -0.6643,1.18703 -3.6307,1.70865 -12.8757,2.26412 -6.6069,0.39697 -12.0126,1.08977 -12.0126,1.53955 0,1.00024 6.8347,2.39835 22,4.50034 20.1892,2.79833 23.3106,3.37274 33,6.07283 5.225,1.45601 11.5994,3.22866 14.1654,3.9392 2.566,0.71055 5.716,1.97993 7,2.82085 1.284,0.84092 5.0346,2.38574 8.3346,3.43293 13.0381,4.13739 26.6163,10.90541 28.1303,14.02147 1.0959,2.25562 7.3636,7.17359 9.1423,7.17359 1.1588,0 4.7701,4.04745 5.5246,6.19173 0.3274,0.93046 1.857,2.50546 3.3991,3.5 1.542,0.99455 3.8979,3.09534 5.2353,4.66842 1.3373,1.57308 2.9288,3.37308 3.5366,4 0.6078,0.62692 2.375,3.58761 3.9271,6.57932 2.2775,4.3898 2.7236,6.31321 2.3118,9.96722 -0.2807,2.49026 -0.9616,4.67814 -1.5131,4.86197 -0.5515,0.18382 -2.2832,1.43553 -3.8483,2.78156 -3.1094,2.6741 -3.9299,2.93164 -4.8089,1.50939 z m -155.8617,-90.40138 c 0.4445,-0.44453 -0.088,-1.30265 -1.1834,-1.90692 -2.0699,-1.14181 -2.5956,-1.7072 -12.3225,-13.25131 -3.244,-3.85 -10.1216,-11.51619 -15.2837,-17.03598 -5.162,-5.51979 -14.11053,-15.17794 -19.88553,-21.46255 -5.775,-6.28461 -12.975,-13.95549 -16,-17.0464 -7.3285,-7.48817 -23.1249,-24.58097 -42.4697,-45.95507 -8.7112,-9.625 -18.5817,-20.43159 -21.9344,-24.01464 -3.3528,-3.58305 -9.0209,-9.87021 -12.5959,-13.97147 -5.8645,-6.72777 -15.3134,-16.9961 -22.0102,-23.91894 -1.3807,-1.42722 -5.2057,-5.73403 -8.5,-9.57069 -3.2944,-3.83665 -6.8898,-7.93669 -7.9898,-9.11119 -9.9384,-10.6115 -14.7811,-15.84195 -19.3924,-20.94531 -22.8242,-25.25956 -37.0898,-38.46776 -41.5472,-38.46776 -0.6665,0 -2.2521,1.10738 -3.5236,2.46085 -2.1026,2.23805 -2.195,2.74288 -1.0216,5.57579 0.7096,1.71322 2.459,4.36107 3.8875,5.88411 4.1524,4.4272 11.8577,13.60789 15.7743,18.7947 1.9871,2.6315 5.7977,7.02627 8.468,9.76616 2.6702,2.73989 4.855,5.32224 4.855,5.73857 0,0.86132 2.5232,4.13243 5.5541,7.20052 1.1298,1.14362 3.128,3.6543 4.4406,5.5793 1.3125,1.925 3.6506,4.74141 5.1958,6.2587 1.5452,1.51728 2.8095,3.00617 2.8095,3.30864 0,0.61822 5.3196,7.54226 8.75,11.38909 1.2375,1.38772 2.25,2.84606 2.25,3.24076 0,0.39469 3.1812,3.25587 7.0694,6.35818 5.0507,4.02989 6.8943,6.09674 6.4563,7.23813 -0.6796,1.77113 10.6405,13.3028 17.5425,17.87035 3.9626,2.62229 4.9881,4.77689 2.6818,5.63405 -1.4109,0.52438 7.5816,10.14176 14.682,15.7021 5.0092,3.92277 6.2475,5.95611 4.3519,7.14596 -0.9099,0.57108 1.3381,3.28327 7.7161,9.3095 4.95,4.677 9.7875,8.76817 10.75,9.09148 2.8922,0.97151 2.1922,3.60214 -0.7613,2.86087 -2.0325,-0.51014 -2.3934,-0.32313 -1.893,0.98094 0.34,0.88619 0.9544,1.61125 1.3653,1.61125 0.4108,0 2.0292,1.18838 3.5965,2.64084 4.6039,4.26676 16.8114,14.67601 19.9998,17.0536 l 2.9427,2.19445 -2.691,0.0555 c -1.48,0.0306 -2.9691,-0.39439 -3.309,-0.94439 -0.3399,-0.55 -1.1533,-1 -1.8076,-1 -1.5884,0 15.8878,16.73199 18.264,17.48615 1.0223,0.32449 2.1134,1.25342 2.4246,2.06428 0.4424,1.15293 -0.028,1.34667 -2.1576,0.88876 -4.7221,-1.01528 8.9494,11.2788 16.4409,14.7845 3.572,1.67152 6.3357,3.60743 6.3357,4.43795 0,1.06245 -0.6273,1.28362 -2.25,0.79335 -1.2375,-0.37388 -2.6775,-1.0792 -3.2,-1.56738 -0.5225,-0.48819 -1.5605,-0.88761 -2.3067,-0.88761 -1.8923,0 -0.1513,2.33935 9.7941,13.15996 l 8.1249,8.84004 5.66893,-0.0271 c 3.1178,-0.0149 9.9438,-0.44107 15.1688,-0.94705 5.225,-0.50598 9.8687,-0.55255 10.3194,-0.10349 0.4507,0.44906 -3.5993,1.57416 -9,2.50022 -14.9657,2.56618 -22.06543,5.62623 -16.0694,6.92609 3.6685,0.79528 36.5459,0.18874 37.4251,-0.69044 z m -279.29353,-7.21017 c 0.3275,-0.85356 0.2031,-1.3094 -0.2766,-1.01296 -0.4796,0.29643 -3.391,-0.8052 -6.4696,-2.44807 -3.0787,-1.64286 -5.8669,-2.98703 -6.196,-2.98703 -0.329,0 -0.3019,1.34956 0.06,2.99902 1.2238,5.57178 -1.8835,2.33386 -3.873,-4.03587 -1.0303,-3.29861 -2.376,-6.3082 -2.9905,-6.68799 -0.6146,-0.37979 -6.5216,-2.55526 -13.1268,-4.83437 -6.6052,-2.27911 -12.7202,-4.45434 -13.5888,-4.83384 -1.166,-0.50938 -2.0324,0.30252 -3.3099,3.10153 -2.0113,4.40685 -5.4181,8.81751 -6.2038,8.03182 -0.2986,-0.29867 0.1626,-2.91909 1.025,-5.82317 1.9902,-6.70172 1.976,-9.30649 -0.082,-15.04941 l -1.6601,-4.63228 -11.5948,-0.50363 c -7.5366,-0.32736 -14.2198,-1.25833 -19.0948,-2.65988 -11.26893,-3.23982 -15.00001,-3.67581 -15.00001,-1.75282 0,4.54844 2.51775,12.28183 4.86158,14.93258 2.88173,3.25914 13.39163,10.74831 15.08353,10.74831 0.5802,0 1.0549,0.37797 1.0549,0.83994 0,0.46197 1.9125,1.44302 4.25,2.18013 2.3375,0.7371 4.7,1.66553 5.25,2.06318 1.6926,1.22379 22.65,7.70673 29,8.97084 8.9885,1.78937 31.2936,4.68664 37.143,4.82461 3.8053,0.0897 5.2979,-0.28236 5.7386,-1.43064 z m 41.6859,0.5102 c 0.7711,-0.47656 -0.6627,-1.01706 -3.6486,-1.37544 -6.9683,-0.83637 -12.5969,-2.05232 -22.9189,-4.95117 -15.5276,-4.36082 -20.5457,-5.63165 -22.2378,-5.63165 -0.9021,0 2.6073,2.91692 7.7988,6.48204 l 9.439,6.48205 15.1486,-0.11039 c 8.3318,-0.0607 15.7203,-0.46366 16.4189,-0.89544 z M 213.90693,488.6025 c 0.84847,-0.67001 2.59725,-3.6932 3.88618,-6.7182 2.66295,-6.24966 10.74374,-28.72333 12.22529,-34 0.93765,-3.3395 17.64247,-54.22879 19.85961,-60.5 7.6089,-21.52178 24.95025,-75.74924 24.47151,-76.52386 -1.16317,-1.88206 -11.3821,-8.97614 -12.93001,-8.97614 -3.49914,0 -13.59439,21.09325 -16.21478,33.87955 -0.85894,4.19125 -1.72605,7.79708 -1.92692,8.01295 -0.20086,0.21588 -1.05108,-0.17672 -1.88937,-0.87244 -1.27314,-1.05661 -1.52526,-0.95655 -1.53076,0.6075 -0.004,1.02984 -0.86822,3.17946 -1.92132,4.77692 -1.6496,2.50228 -5.80164,16.1564 -7.55521,24.84552 -0.62421,3.09303 -2.17254,3.65559 -2.75226,1 -0.66755,-3.0579 -7.23371,12.88342 -10.2496,24.884 -2.44159,9.71534 -2.42412,9.6836 -4.08644,7.42487 -0.78572,-1.06762 -1.42858,-1.38043 -1.42858,-0.69514 0,0.6853 -0.84709,3.13381 -1.88243,5.44113 -6.31148,14.06557 -8.30014,19.29616 -9.28977,24.43395 -1.24227,6.44943 -2.44903,8.49208 -3.76195,6.36773 -1.16415,-1.88363 -2.30257,0.47708 -4.52987,9.39346 -2.58598,10.35228 -2.37191,9.88105 -3.90914,8.60526 -1.07296,-0.89047 -1.67431,-0.24756 -2.93453,3.13738 -0.87176,2.34155 -2.1492,7.06986 -2.83874,10.50736 -1.21835,6.07364 -2.05145,7.35688 -3.3803,5.20675 -0.35462,-0.57379 -1.49938,0.63301 -2.5439,2.68178 -1.04452,2.04878 -1.64799,3.98074 -1.34104,4.29326 0.30695,0.31251 8.28765,1.29156 17.73488,2.17565 9.44724,0.8841 17.62679,1.65728 18.17679,1.7182 0.55,0.0609 1.6942,-0.43744 2.54266,-1.10744 z m 522.95734,-5.8576 c 0,-0.62667 -1.2654,-3.21417 -2.812,-5.75 -1.5467,-2.53583 -3.8169,-6.70701 -5.045,-9.26929 l -2.233,-4.65869 -6.205,1.749 c -3.5154,0.99089 -6.3053,2.36005 -6.4364,3.1587 -0.457,2.78332 3.2114,5.60462 8.2746,6.36383 2.7263,0.40878 5.8568,1.26133 6.9568,1.89455 1.7488,1.00668 1.3719,1.21411 -3,1.6513 l -5,0.5 7,2.69456 c 8.0884,3.11353 8.5,3.1942 8.5,1.66604 z M 320.04543,462.56029 c 1.48289,-1.4829 24.29404,-12.67599 25.83324,-12.67599 0.54208,0 0.9856,-0.56686 0.9856,-1.25969 0,-0.85877 1.84208,-1.28472 5.78778,-1.33833 8.05238,-0.1094 11.21222,-1.04337 11.21222,-3.31404 0,-2.61404 -1.86258,-3.08794 -12.13665,-3.08794 -6.76235,0 -10.02633,0.47981 -13.2481,1.9475 -2.35126,1.07112 -7.83907,2.40968 -12.19513,2.97457 -10.72937,1.39139 -12.65692,1.84304 -13.46826,3.15583 -0.90397,1.46264 1.44422,9.22084 3.74955,12.38815 2.14331,2.94472 1.84774,2.84194 3.47975,1.20994 z m 394.45984,-8.67599 c 6.2604,0 8.3489,-1.04453 6.5856,-3.2938 -0.52,-0.66341 -1.7449,-3.3437 -2.7219,-5.9562 -1.7932,-4.79479 -3.4779,-6.22396 -3.5365,-3 -0.063,3.47281 -2.7127,-1.55594 -3.4485,-6.5451 -0.3817,-2.58769 -1.942,-7.6299 -3.4673,-11.2049 -1.5254,-3.575 -3.1517,-7.4 -3.6141,-8.5 -0.7232,-1.72051 -0.8913,-1.54582 -1.2028,1.25 -0.1992,1.7875 -0.6712,3.24906 -1.0489,3.2479 -0.3776,-0.001 -1.5599,-3.71365 -2.6272,-8.25 -2.9882,-12.70065 -4.9733,-18.48248 -7.367,-21.45732 -1.2058,-1.49859 -2.1924,-3.22625 -2.1924,-3.83924 0,-2.69131 -4.2903,-14.45134 -5.2721,-14.45134 -2.2181,0 -14.2773,14.04243 -12.8283,14.93796 0.9984,0.61705 24.1004,47.67326 24.1004,49.08986 0,0.85145 3.1411,7.11124 4,7.97142 0.275,0.27542 1.8451,3.07067 3.4891,6.21166 1.9117,3.65236 3.3355,5.36454 3.95,4.75 0.5285,-0.52849 3.7693,-0.9609 7.2019,-0.9609 z m -18.641,0.54401 c 0,-0.2508 -1.35,-2.7456 -3,-5.54401 -1.65,-2.79841 -3,-5.50238 -3,-6.00882 0,-0.50645 -0.8476,-1.37445 -1.8836,-1.9289 -1.0557,-0.56495 -2.1906,-2.64413 -2.5819,-4.72995 -0.8955,-4.77364 -5.0117,-12.91772 -6.8938,-13.63997 -0.7987,-0.30647 -1.7443,-2.05013 -2.1013,-3.87479 -0.3571,-1.82466 -0.8876,-4.56585 -1.179,-6.09152 -0.2914,-1.52568 -1.5518,-4.00068 -2.8008,-5.5 -1.249,-1.49933 -2.5666,-4.33537 -2.928,-6.30232 -0.3614,-1.96694 -1.2983,-4.44194 -2.082,-5.5 -1.3616,-1.8382 -1.6536,-1.70142 -6.56751,3.07627 -2.82843,2.75 -6.49847,6.69277 -8.15565,8.76171 l -3.01305,3.76172 3.0933,3.52308 c 3.47046,3.95263 3.45554,3.90813 2.13623,6.37329 -0.74573,1.39342 -0.29539,2.46512 2.0394,4.85319 2.2972,2.34964 2.85169,3.64175 2.37605,5.53685 -0.34475,1.37362 -0.1401,2.76883 0.4606,3.14008 0.59457,0.36746 1.08103,1.95406 1.08103,3.52576 0,1.57171 0.35375,3.00765 0.78612,3.19099 0.43237,0.18333 1.81785,1.80262 3.07884,3.59842 1.26094,1.7958 3.49474,3.87378 4.96384,4.61773 2.7772,1.40632 15.0911,4.26881 21.1712,4.92143 1.925,0.20662 3.8375,0.44769 4.25,0.53571 0.4125,0.088 0.75,-0.0452 0.75,-0.29595 z m -300.5,-58.54401 c 0.33992,-0.55 1.49148,-1 2.55902,-1 1.06754,0 1.94098,-0.26268 1.94098,-0.58374 0,-0.32105 -2.8125,-4.01898 -6.25,-8.21762 -8.85055,-10.81025 -10.98333,-13.19864 -11.78613,-13.19864 -0.38805,0 -1.01849,2.76614 -1.40099,6.14697 l -0.69545,6.14698 6.31629,5.80585 c 6.31864,5.80801 8.15747,6.7752 9.31628,4.9002 z m -27.02022,-28.77331 c 0.32743,-2.59968 1.06419,-6.47323 1.63723,-8.60789 1.00331,-3.7375 0.89541,-4.03368 -2.91448,-8 -2.176,-2.26534 -7.89958,-9.0688 -12.71905,-15.1188 -4.81948,-6.05 -9.59003,-11.9 -10.60122,-13 -1.0112,-1.1 -3.98587,-4.42369 -6.6104,-7.38598 -2.62452,-2.96229 -5.89686,-6.60289 -7.27186,-8.09022 -1.375,-1.48733 -6.775,-7.38863 -12,-13.11402 -15.75763,-17.26668 -17.90848,-19.23063 -19.55983,-17.86012 -0.79209,0.65737 -1.44017,1.96513 -1.44017,2.90612 0,0.94099 -0.3084,2.01929 -0.68534,2.39622 -1.05839,1.05839 -3.28276,7.90949 -3.2996,10.16281 -0.008,1.10814 -0.91506,3.69401 -2.01506,5.74637 -3.01025,5.61648 -2.57799,6.98969 3.77021,11.97712 3.17361,2.49333 8.00229,6.49722 10.7304,8.89752 11.9133,10.4818 26.11934,23.28501 27.49939,24.78384 6.2808,6.8214 33.23444,30.04209 34.19222,29.45676 0.38072,-0.23267 0.96013,-2.55005 1.28756,-5.14973 z m 7.8864,0.63773 c 0.4072,-1.74651 0.1036,-3.05958 -0.90001,-3.8925 -0.83298,-0.69131 -1.68463,-1.0803 -1.89256,-0.86442 -0.52067,0.54057 -0.82661,3.80837 -0.68876,7.35679 0.0995,2.56063 0.3025,2.76489 1.491,1.5 0.75672,-0.80536 1.65237,-2.6503 1.99033,-4.09987 z m 247.26022,-16.57655 c 5.43048,-3.96667 11.2236,-8.32686 12.8736,-9.6893 l 3,-2.47718 -4.83032,-9.8107 c -2.65668,-5.39588 -6.22096,-12.6295 -7.92062,-16.07472 l -3.0903,-6.26402 -2.32938,2.18834 c -1.28116,1.20358 -2.32938,2.56113 -2.32938,3.01677 0,0.45564 -3.4875,5.43331 -7.75,11.06151 -4.2625,5.62819 -8.2,10.99157 -8.75,11.91862 -0.55,0.92705 -4.5082,6.23041 -8.796,11.78524 -7.2831,9.43527 -8.43858,12.05757 -5.31294,12.05757 0.70016,0 4.34771,1.49467 8.10566,3.32149 l 6.83264,3.32148 5.21172,-3.57148 c 2.86645,-1.96432 9.65484,-6.81695 15.08532,-10.78362 z m 45.1011,1.29152 c 6.1868,-4.12724 6.5197,-4.74339 4.7947,-8.87198 -1.4695,-3.51708 -3.5222,-5.7587 -3.5222,-3.84641 0,0.53848 -2.475,3.87831 -5.5,7.42186 -5.06163,5.9293 -6.54768,9.33612 -4.82419,11.05962 0.3717,0.3717 1.6092,-0.1384 2.75,-1.13356 1.14081,-0.99515 3.97659,-3.07844 6.30169,-4.62953 z m -92.68189,0.17061 c 1.85919,-2.3375 3.7345,-4.4 4.16737,-4.58333 0.43286,-0.18334 0.78702,-0.79338 0.78702,-1.35565 0,-0.56227 1.13178,-2.43727 2.51507,-4.16666 3.18451,-3.98128 3.46348,-4.36361 6.48493,-8.88753 1.375,-2.05874 2.8375,-3.74624 3.25,-3.75 0.4125,-0.004 0.75,-0.65947 0.75,-1.45714 0,-0.79767 0.59734,-1.81017 1.32741,-2.25 1.3167,-0.79324 13.13893,-16.28892 19.60667,-25.69895 2.68083,-3.90038 3.13978,-5.22563 2.25102,-6.5 -0.614,-0.88041 -2.48903,-4.30238 -4.16673,-7.60438 -1.6777,-3.302 -4.1604,-7.352 -5.51711,-9 l -2.46676,-2.99636 -1.77744,2.25781 c -2.03116,2.5801 -6.97004,12.23563 -17.25937,33.74219 -11.93681,24.95006 -19.99769,42.85654 -19.99769,44.42294 0,1.10994 1.79462,1.89243 4.58264,1.99811 1.30985,0.0497 3.33693,-1.49805 5.46297,-4.17105 z m -184.36494,-15.5 c 3.00434,-5.0875 5.88023,-9.25 6.39088,-9.25 0.51065,0 0.83403,-0.3375 0.71862,-0.75 -0.43854,-1.56744 21.54962,-37.27942 24.16654,-39.25 0.3652,-0.275 2.87716,-3.65 5.58214,-7.5 2.70498,-3.85 5.49191,-7.59623 6.19319,-8.32497 0.70127,-0.72873 2.68083,-3.36821 4.39902,-5.86552 5.09775,-7.40933 12.82391,-17.43212 17.96835,-23.30951 2.64776,-3.025 7.6423,-8.86435 11.09897,-12.97634 12.74037,-15.15569 49.43333,-50.9323 64.12509,-62.52366 3.60134,-2.84135 10.39767,-8.21387 13.67678,-10.81152 0.82514,-0.65367 5.01011,-3.66348 9.29992,-6.68848 4.28982,-3.025 11.00629,-7.8625 14.92549,-10.75 3.9192,-2.8875 7.46459,-5.25 7.87865,-5.25 0.41406,0 1.36648,-0.5625 2.11649,-1.25 0.75002,-0.6875 2.24466,-1.7874 3.32143,-2.44422 1.07677,-0.65682 6.68277,-4.0782 12.45777,-7.60308 16.97702,-10.36223 30.79666,-17.62841 54.5,-28.655356 4.95,-2.30277 9.80394,-4.61955 10.78654,-5.14839 3.04148,-1.63696 24.76606,-9.95295 33.71346,-12.90521 4.675,-1.54256 17.725,-5.946793 29,-9.787179 38.4717,-13.103865 68.6524,-20.373857 102,-24.569952 32.7246,-4.117709 39.0277,-4.620226 52,-4.145767 6.875,0.251451 20.0242,0.702883 29.2204,1.003183 16.8198,0.549242 25.4781,1.556169 47.3887,5.51112 11.4697,2.070322 47.36873,10.834575 52.42463,12.798769 1.3565,0.52697 5.6163,1.955073 9.4663,3.173561 21.6139,6.84059 53.7758,21.231285 70.3156,31.462435 4.9437,3.05805 9.4826,5.56009 10.0865,5.56009 0.6038,0 1.0979,0.45 1.0979,1 0,0.55 0.404,1 0.8978,1 2.6262,0 32.0266,19.502716 45.1124,29.925306 5.2306,4.16608 11.1572,8.80765 13.1701,10.3146 7.3077,5.4709 33.555,29.32529 43.1007,39.17134 5.3795,5.54881 13.2545,14.34131 17.5,19.53887 8.1848,10.02043 8.1325,9.95049 15.4498,20.63933 2.6019,3.8008 6.1114,8.87126 7.7989,11.26768 2.8662,4.07036 10.5696,16.70109 13.9703,22.90597 0.825,1.50529 1.7505,2.9619 2.0568,3.2369 0.3062,0.275 1.1034,1.85 1.7716,3.5 2.9364,7.25108 10.7611,22 11.6716,22 2.9498,0 0.5618,-33.20567 -3.344,-46.5 -0.5656,-1.925 -1.8839,-6.65 -2.9297,-10.5 -1.0457,-3.85 -3.2112,-9.925 -4.8121,-13.5 -4.5947,-10.26006 -14.6282,-30.44939 -15.4061,-31 -0.3886,-0.275 -3.7933,-5 -7.5661,-10.5 -3.7728,-5.5 -8.6781,-12.24475 -10.9008,-14.98832 -10.4294,-12.87376 -46.0115,-45.40935 -59.803,-54.682776 -2.069,-1.39118 -5.5368,-4.17181 -7.7064,-6.17916 -2.1696,-2.00736 -4.2096,-3.64974 -4.5334,-3.64974 -0.5948,0 -10.3858,-6.65922 -20.4984,-13.94175 -3.025,-2.178425 -5.8622,-3.982707 -6.3049,-4.009512 -0.4426,-0.02681 -3.444,-1.840966 -6.6697,-4.031466 -10.0049,-6.794189 -51.6008,-28.017272 -54.9121,-28.017272 -0.4602,0 -3.9364,-1.379016 -7.725,-3.064479 -3.7886,-1.685464 -8.2383,-3.665907 -9.8883,-4.400984 -5.0712,-2.259237 -32.4348,-11.211388 -43,-14.067696 -17.33443,-4.686358 -39.63063,-8.7692241 -66.00003,-12.0858391 -13.5628,-1.705863 -52.9715,-2.30893 -75.8206,-1.160274 -22.1501,1.113518 -64.5057,8.0675531 -77.6794,12.7535821 -1.375,0.489103 -5.875,1.874117 -10,3.07781 -4.125,1.203693 -15.15,4.570347 -24.5,7.481455 -9.35,2.911108 -20.825,6.43831 -25.5,7.838227 -11.6307,3.482795 -26.8704,8.521733 -30.5,10.084711 -1.65,0.710523 -7.95,3.212745 -14,5.560493 -6.05,2.347749 -13.475,5.365668 -16.5,6.706487 -3.025,1.340819 -6.4,2.805668 -7.5,3.25522 -8.59314,3.511875 -11.14235,4.726349 -20.5,9.766451 -3.025,1.629288 -8.875,4.770476 -13,6.980426 -4.125,2.20994 -10.65,5.72174 -14.5,7.804 -3.85,2.08226 -12.98093,7.76494 -20.29096,12.62817 -7.31003,4.863226 -13.49238,8.842236 -13.73857,8.842236 -0.24618,0 -1.36489,0.7875 -2.48602,1.75 -1.12112,0.9625 -3.51426,2.65 -5.31808,3.75 -5.89807,3.59675 -13.09835,8.32448 -16.66637,10.9432 -1.925,1.41285 -8.225,6.03368 -14,10.26852 -5.775,4.23485 -10.725,7.95083 -11,8.25775 -0.275,0.30691 -2.975,2.57645 -6,5.04342 -9.1454,7.45833 -25.37629,22.48324 -36.87429,34.13449 -8.48253,8.5956 -37.00272,44.49435 -45.59572,57.39196 -5.15153,7.73216 -11.08275,15.96037 -14.53821,20.16845 -0.54548,0.66429 -0.99178,1.64497 -0.99178,2.17929 0,0.53432 -1.8,3.68144 -4,6.99361 -2.2,3.31216 -4,6.27983 -4,6.59482 0,0.31499 -1.575,2.86235 -3.5,5.66081 -1.925,2.79846 -3.51317,5.82511 -3.52926,6.72589 -0.0161,0.90079 -1.57206,4.33779 -3.45771,7.63779 -6.45874,11.30318 -9.17438,16.47727 -12.07162,23 -0.97719,2.2 -2.31927,4.675 -2.9824,5.5 -0.66313,0.825 -1.51847,3.2429 -1.90076,5.37311 -0.38228,2.13021 -1.109,4.60521 -1.61491,5.5 -0.50592,0.89479 -1.75626,3.92191 -2.77854,6.72694 -1.83298,5.02949 -1.83088,5.13824 0.1523,7.8607 l 2.011,2.76066 1.44507,-2.8607 c 0.79479,-1.57339 3.90317,-7.02321 6.9075,-12.11071 z m 297.33383,0.56592 c 6.6119,-5.2851 24.5585,-22.9044 38.0141,-37.32089 24.9596,-26.742 31.3242,-33.66123 33.7561,-36.69749 1.4934,-1.86459 3.9528,-4.71472 5.4653,-6.33363 1.5125,-1.61891 2.75,-3.21557 2.75,-3.54813 0,-0.33257 -2.4866,-3.17196 -5.5257,-6.30976 l -5.5257,-5.7051 -4.0972,2.29954 c -4.6828,2.62814 -24.7438,22.64907 -33.8673,33.79954 -3.3752,4.125 -8.4916,10.2 -11.3699,13.5 -2.8783,3.3 -7.6515,9.15 -10.607,13 -2.9555,3.85 -6.0825,7.675 -6.9488,8.5 -0.8663,0.825 -3.5718,4.2 -6.0123,7.5 -2.4404,3.3 -5.5646,7.24409 -6.9427,8.76465 l -2.5057,2.76466 2.6903,5.48534 c 1.4796,3.01694 3.0392,5.48535 3.4656,5.48535 0.4264,0 3.6938,-2.33283 7.2609,-5.18408 z m -34.48686,-11.306 6.88481,-6.49009 -4.84817,-9.25991 c -2.66648,-5.09296 -5.68429,-10.45439 -6.70622,-11.91429 -1.02193,-1.4599 -1.85806,-2.96544 -1.85806,-3.34563 0,-1.58656 -4.25152,-6.5 -5.62434,-6.5 -0.81849,0 -3.71285,2.18987 -6.43191,4.86638 -5.56151,5.47448 -6.06437,7.78316 -2.84537,13.06342 2.64477,4.33833 10.46672,19.79613 11.82499,23.36864 0.56492,1.48586 1.40791,2.70156 1.8733,2.70156 0.46539,0 3.94433,-2.92054 7.73097,-6.49008 z"
     id="path2987"
     inkscape:connector-curvature="0" />
</svg>
