<?xml version="1.0" encoding="UTF-8" standalone="no"?>
<!-- Created with Inkscape (http://www.inkscape.org/) -->

<svg
   xmlns:dc="http://purl.org/dc/elements/1.1/"
   xmlns:cc="http://creativecommons.org/ns#"
   xmlns:rdf="http://www.w3.org/1999/02/22-rdf-syntax-ns#"
   xmlns:svg="http://www.w3.org/2000/svg"
   xmlns="http://www.w3.org/2000/svg"
   xmlns:sodipodi="http://sodipodi.sourceforge.net/DTD/sodipodi-0.dtd"
   xmlns:inkscape="http://www.inkscape.org/namespaces/inkscape"
   id="svg2"
   version="1.1"
   inkscape:version="0.48.2 r9819"
   width="999.23444"
   height="1010.4095"
   sodipodi:docname="Toucan_(PSF)c.png">
  <metadata
     id="metadata8">
    <rdf:RDF>
      <cc:Work
         rdf:about="">
        <dc:format>image/svg+xml</dc:format>
        <dc:type
           rdf:resource="http://purl.org/dc/dcmitype/StillImage" />
        <dc:title></dc:title>
      </cc:Work>
    </rdf:RDF>
  </metadata>
  <defs
     id="defs6" />
  <sodipodi:namedview
     pagecolor="#ffffff"
     bordercolor="#666666"
     borderopacity="1"
     objecttolerance="10"
     gridtolerance="10"
     guidetolerance="10"
     inkscape:pageopacity="0"
     inkscape:pageshadow="2"
     inkscape:window-width="1920"
     inkscape:window-height="1176"
     id="namedview4"
     showgrid="false"
     fit-margin-top="0"
     fit-margin-left="0"
     fit-margin-right="0"
     fit-margin-bottom="0"
     inkscape:zoom="0.70710678"
     inkscape:cx="476.9679"
     inkscape:cy="516.79682"
     inkscape:window-x="0"
     inkscape:window-y="24"
     inkscape:window-maximized="1"
     inkscape:current-layer="svg2" />
  <path
     style="fill:#000000"
     d="m 48.891114,1010.1244 c -0.0651,-0.3839 -0.0798,-0.9915 -0.0326,-1.3502 0.0472,-0.3587 -2.48701,-0.4253 -5.63158,-0.148 -4.80296,0.4235 -6.54573,0.085 -10.89633,-2.1147 -2.84841,-1.4404 -7.25657,-3.0071 -9.79591,-3.4815 -4.48226,-0.8374 -4.56719,-0.8075 -2.91054,1.0231 3.09846,3.4237 0.76514,2.9676 -3.00415,-0.5873 -2.03326,-1.9176 -5.25729,-4.227 -7.1645003,-5.1321 -2.20935,-1.0484 -3.70568,-2.6001 -4.12362,-4.2764 -0.36078,-1.447 -1.70151,-4.8809 -2.9794,-7.6309 -2.74045,-5.89746 -3.17204,-14.52806 -0.84296,-16.85716 0.825,-0.825 1.50534,-2.9946 1.51187,-4.8214 0.0156,-4.3708 2.43351,-13.326 4.41413,-16.3488 0.8657,-1.3213 1.574,-3.0992 1.574,-3.951 0,-0.8518 0.4351,-2.3302 0.96688,-3.2852 0.5317803,-0.955 3.9110603,-9.38643 7.5095103,-18.73643 3.59844,-9.35 8.99522,-22.03104 11.99283,-28.18009 3.48775,-7.15446 5.02806,-11.32082 4.27781,-11.5709 -0.76318,-0.25439 0.96163,-5.42733 4.94138,-14.81991 3.36258,-7.936 6.80047,-16.4541 7.63975,-18.9291 2.87439,-8.4764 18.46483,-46.49344 23.17013,-56.5 10.162658,-21.61249 14.968398,-32.54791 20.047428,-45.61773 2.91057,-7.48975 6.62157,-16.26475 8.24665,-19.5 2.802658,-5.57957 6.472368,-14.16951 12.765978,-29.88227 3.666,-9.15262 15.94885,-34.35381 22.90741,-47 3.02637,-5.5 5.50964,-10.36546 5.51837,-10.81214 0.009,-0.44667 -2.01636,0.6473 -4.50019,2.43106 -2.57144,1.84666 -4.05816,3.52619 -3.45267,3.90041 2.68236,1.65778 -6.24794,5.74226 -14.37547,6.57495 -6.59873,0.67606 -6.60298,0.67484 -7.70576,-2.20892 -0.79038,-2.06683 -0.79796,-3.37796 -0.0267,-4.62179 0.59218,-0.95504 1.07668,-2.58534 1.07668,-3.62288 0,-2.49795 3.73491,-10.87917 6.5243,-14.64069 1.22358,-1.65 3.12457,-5.475 4.22443,-8.5 1.09985,-3.025 2.32948,-6.2875 2.73249,-7.25 0.44135,-1.05405 0.29252,-1.75 -0.37423,-1.75 -1.77289,0 -1.28997,-2.26645 1.29278,-6.06731 1.31988,-1.94237 2.98182,-5.53433 3.6932,-7.98214 0.71139,-2.4478 1.83098,-5.35055 2.48799,-6.45055 1.20374,-2.01538 2.15758,-6.35795 3.05392,-13.90367 1.32845,-11.18359 6.78464,-31.59633 8.44547,-31.59633 0.5058,0 0.91963,-0.85186 0.91963,-1.89301 0,-1.04116 0.675,-2.15203 1.5,-2.46862 2.07786,-0.79735 1.94124,1.13817 -1,14.1677 -2.5365,11.23654 -3.21872,16.7794 -1.56238,12.69393 0.44596,-1.1 2.01752,-7.175 3.49235,-13.5 1.47484,-6.325 3.57474,-15.2692 4.66645,-19.87599 1.09171,-4.6068 1.74163,-8.6193 1.44426,-8.91667 -0.29738,-0.29737 -0.54068,-0.0157 -0.54068,0.62599 0,0.64167 -0.51462,1.16667 -1.1436,1.16667 -0.8228,0 -0.93059,-2.03376 -0.38425,-7.25 0.41764,-3.9875 0.85186,-9.275 0.96494,-11.75 0.19689,-4.30981 3.33423,-12.36948 13.81884,-35.5 2.24374,-4.95 4.42877,-9.14157 4.85562,-9.31461 0.42685,-0.17303 0.56166,-0.87341 0.29957,-1.5564 -0.26208,-0.68299 0.55931,-2.44727 1.82532,-3.92062 1.428,-1.66186 2.78388,-5.24694 3.5716,-9.4436 1.4251,-7.59244 14.29468,-38.48692 19.89716,-47.76477 1.99272,-3.3 6.94633,-10.5 11.00802,-16 10.40343,-14.08746 17.82183,-25.77269 21.90244,-34.5 7.73261,-16.53796 15.47404,-29.96736 23.92283,-41.5 2.41758,-3.3 5.99859,-8.7 7.9578,-12 6.93149,-11.67505 46.59557,-57.32705 72.60691,-83.56806 19.88928,-20.0649 26.46337,-25.41642 40.3968,-32.8843 17.60363,-9.435 22.20092,-12.57516 30.32106,-20.71075 4.57659,-4.58529 8.85159,-8.34668 9.5,-8.35865 0.64842,-0.012 4.55012,-5.9566 8.67044,-13.21028 4.12033,-7.25369 8.44636,-14.3314 9.61336,-15.72824 1.167,-1.39685 3.1103,-4.33972 4.3185,-6.53972 1.2082,-2.2 3.6322,-6.10702 5.3866,-8.68226 1.7545,-2.57525 5.3609,-8.06782 8.0141,-12.20571 2.6532,-4.13789 6.5251,-9.27627 8.6041,-11.41861 2.0791,-2.142341 4.0588,-4.974771 4.3994,-6.294291 0.3406,-1.31952 2.2506,-4.19913 4.2444,-6.39913 1.9939,-2.2 5.8424,-6.925 8.5523,-10.5 2.7099,-3.575 5.253,-6.54078 5.6514,-6.59061 1.1808,-0.14771 15.2243,-14.09481 15.2243,-15.11981 0,-2.17305 4.12,-4.978936 19,-12.939755 1.375,-0.735627 3.0754,-1.340276 3.7786,-1.343664 0.7031,-0.0034 3.8615,-1.310077 7.0186,-2.903752 3.157,-1.593675 9.3317,-4.085861 13.7214,-5.538191 4.3898,-1.45233 9.7814,-3.507294 11.9814,-4.5665885 2.2,-1.059294 5.6582,-2.181994 7.6848,-2.494888 2.7812,-0.429384 3.7621,-1.096061 4,-2.718502 0.3967,-2.704828 4.6309,-3.95352795 10.9847,-3.239437 2.7206,0.305759 4.9364,0.09289 5.309,-0.51000495 1.0074,-1.629943 4.1058,-1.234927 12.1842,1.55337195 8.261,2.851326 12.3373,2.650697 12.3373,-0.607222 0,-2.62908395 1.9223,-2.49773395 7.5961,0.519052 2.586,1.375 5.2945,2.5 6.0189,2.5 1.9165,0 8.385,3.22866 8.385,4.185212 0,0.448134 0.7448,0.814788 1.655,0.814788 1.4883,0 1.4727,-0.201411 -0.155,-2 -0.9955,-1.1 -2.4152,-2 -3.155,-2 -0.7397,0 -1.345,-0.626855 -1.345,-1.393011 0,-2.611696 2.7171,-2.442434 7.0718,0.440549 4.3079,2.851942 4.3653,2.860445 6.1772,0.91557 1.0059,-1.079709 2.0692,-1.963108 2.3628,-1.963108 0.2937,0 3.1793,2.8125 6.4125,6.2500005 l 5.8786,6.25 1.1464,-3.25 c 1.4029,-3.9771825 2.8726,-4.1072495 5.3092,-0.469836 2.5094,3.746241 5.8511,5.291389 7.5381,3.4855 0.9865,-1.056087 1.598,-1.100129 2.6901,-0.19376 0.7773,0.645142 1.4133,1.742885 1.4133,2.43943 0,0.696544 0.7875,1.203944 1.75,1.127555 1.3222,-0.104935 1.8723,0.831414 2.25,3.830094 0.4809,3.817344 0.7102,4.03462 6,5.686989 3.025,0.944904 6.911,1.480949 8.6355,1.191211 1.7245,-0.289738 3.4191,-0.06788 3.7658,0.493023 0.3466,0.560901 3.2107,1.324128 6.3645,1.696061 3.1538,0.371932 11.8092,2.035233 19.2342,3.696223 7.425,1.66098 16.2,3.62255 19.5,4.35902 7.5445,1.68373 22.5127,5.44877 24.5,6.16261 0.825,0.29634 3.431,0.65815 5.7912,0.80402 2.3601,0.14587 4.9452,0.80808 5.7446,1.47157 0.7995,0.66348 2.3394,0.97468 3.4221,0.69155 1.0827,-0.28314 2.4405,0.0538 3.0173,0.74885 0.8038,0.96844 8.4316,3.94289 13.0248,5.07895 0.275,0.068 1.175,0.41285 2,0.76629 4.4469,1.90508 16.0022,5.39385 16.0153,4.83533 0.01,-0.35788 0.346,-0.17775 0.75,0.40028 0.4041,0.57803 4.7007,2.35449 9.5479,3.9477 4.8472,1.59321 9.0363,3.25778 9.309,3.69904 0.2727,0.44127 1.3305,0.8023 2.3506,0.8023 1.5387,0 6.7868,2.26955 16.0272,6.93104 3.9166,1.97576 5.7387,2.9077 8.6543,4.42617 1.7349,0.903531 3.7875,1.642791 4.5615,1.642791 0.7739,0 2.392,0.91753 3.5957,2.03895 1.2037,1.12143 2.1885,1.77481 2.1885,1.45196 0,-0.32284 2.025,0.80624 4.5,2.50909 2.475,1.70284 4.5,2.85431 4.5,2.55882 0,-0.29549 2.8125,1.15187 6.25,3.21637 3.4375,2.0645 7.6,4.40839 9.25,5.20865 1.65,0.80025 4.8811,2.70627 7.1802,4.23559 2.2991,1.52931 4.4666,2.78057 4.8167,2.78057 0.8485,0 7.9125,5.29597 8.3365,6.25 0.1833,0.4125 0.9974,0.75 1.809,0.75 0.8116,0 1.197,0.45084 0.8565,1.00187 -0.3406,0.55103 0.4738,1.41743 1.8096,1.92532 1.3359,0.5079 3.3804,2.13311 4.5434,3.61158 1.1799,1.49999 2.7291,2.45228 3.505,2.15451 0.8029,-0.30807 1.9208,0.45711 2.6451,1.81032 0.6899,1.28916 2.2111,2.58404 3.3804,2.87752 1.1693,0.29347 3.9504,2.24028 6.1802,4.32623 2.2298,2.08596 5.6029,5.16572 7.4958,6.84392 4.9109,4.35391 16.9416,17.22252 16.9416,18.12156 0,0.41626 1.0125,1.80945 2.25,3.09597 5.146,5.34982 6.578,7.02283 11.11152,12.9812 2.6155,3.4375 5.1303,6.25 5.5886,6.25 0.4582,0 1.1025,1.0732 1.4317,2.38489 0.3292,1.31169 2.1824,4.73849 4.1182,7.61511 1.9359,2.87662 3.7891,6.30342 4.1183,7.61511 0.3292,1.31169 0.9602,2.38489 1.4022,2.38489 0.4421,0 1.1192,1.9125 1.5047,4.25 0.3855,2.3375 1.1929,4.8579 1.7941,5.60088 1.2176,1.50481 1.1275,1.16558 2.695,10.14912 0.6238,3.575 1.3996,7.175 1.724,8 2.2414,5.69982 1.8738,24.24152 -0.6013,30.33392 -0.6332,1.55865 -0.9203,3.20772 -0.6379,3.66459 0.2823,0.45687 0.091,0.9816 -0.4256,1.16608 -0.5164,0.18448 -1.1493,2.19368 -1.4065,4.46491 -0.2572,2.27122 -0.9783,5.08372 -1.6025,6.25 -0.6241,1.16627 -0.8389,2.1205 -0.4772,2.1205 0.3617,0 0.1564,0.6039 -0.4561,1.34201 -0.6126,0.7381 -0.8131,1.64275 -0.4455,2.01033 0.3676,0.36758 -0.012,1.22618 -0.8436,1.90799 -0.8316,0.68182 -3.2155,3.37717 -5.2975,5.98967 -2.082,2.6125 -4.2017,4.75 -4.7105,4.75 -0.5087,0 -2.0295,-1.10455 -3.3795,-2.45455 -1.7801,-1.78005 -2.4546,-3.5433 -2.4546,-6.41666 0,-2.17917 -0.3375,-4.11212 -0.75,-4.29546 -0.4125,-0.18333 -2.2742,-3.39527 -4.13722,-7.13764 -2.2607,-4.54125 -3.8406,-6.63039 -4.75,-6.28138 -0.7495,0.2876 -1.3628,-0.0386 -1.3628,-0.72494 0,-0.68632 -0.9419,-1.90969 -2.0932,-2.71861 -1.1513,-0.80892 -3.0202,-2.25826 -4.153,-3.22076 -1.1329,-0.9625 -2.4177,-1.75 -2.8553,-1.75 -0.4375,0 -2.0268,-1.14122 -3.5318,-2.53603 -1.5051,-1.39482 -3.3214,-2.31158 -4.0363,-2.03724 -0.7149,0.27433 -1.7407,-0.325 -2.2796,-1.33187 -0.9158,-1.71122 -6.0289,-3.57365 -8.7651,-3.19265 -0.6679,0.093 -2.1304,-0.74695 -3.25,-1.86656 -1.1196,-1.11961 -2.8607,-2.03565 -3.869,-2.03565 -1.0083,0 -2.114,-0.2807 -2.4571,-0.62379 -0.3431,-0.34308 -3.9056,-1.71286 -7.9167,-3.04395 -4.0111,-1.33109 -8.6429,-3.0413 -10.2929,-3.80047 -5.9133,-2.72073 -14.0618,-5.47643 -17.5,-5.91829 -1.925,-0.24739 -5.075,-1.11488 -7,-1.92774 -1.925,-0.81287 -8.45,-2.67459 -14.5,-4.13716 -6.05,-1.46256 -12.575,-3.24551 -14.5,-3.9621 -8.3967,-3.12572 -11.0936,-3.71188 -21.3133,-4.63241 -5.9473,-0.5357 -12.6973,-1.38637 -15,-1.89038 -2.3027,-0.504 -8.4617,-1.21201 -13.6867,-1.57336 -11.7516,-0.8127 -12.9134,-1.13036 -14.0013,-3.82829 -0.7609,-1.88686 -0.88,-1.92354 -0.9353,-0.28823 -0.057,1.68533 -0.6418,1.8087 -5.8134,1.22641 -3.1625,-0.35608 -6.6159,-0.65887 -7.6742,-0.67285 -2.1142,-0.028 -19.3032,-2.48504 -24.0758,-3.44153 -1.65,-0.33068 -7.05,-1.46809 -12,-2.52758 -4.95,-1.05949 -9.9,-2.09092 -11,-2.29208 -1.1,-0.20115 -2.675,-0.64601 -3.5,-0.98856 -3.2364,-1.34382 -20.5855,-6.95556 -22,-7.11611 -2.2495,-0.25535 -10.2219,-2.51923 -12.5,-3.54957 -4.9686,-2.24724 -20.8139,-7.1211 -23.9557,-7.36853 -2.9579,-0.23295 -3.6061,0.10936 -4.3386,2.29135 -1.0035,2.98926 -0.7208,9.45662 0.8872,20.30077 0.991,6.68272 0.695,19.57714 -0.6718,29.26445 -0.1552,1.1 -0.5596,4.475 -0.8987,7.5 -0.8946,7.97931 -3.3761,21.30169 -5.6811,30.5 -1.1026,4.4 -2.4032,9.90634 -2.8902,12.2363 -0.4871,2.32997 -1.5211,5.47997 -2.2979,7 -0.7767,1.52004 -1.749,4.3387 -2.1605,6.2637 -0.4115,1.925 -1.3657,4.38763 -2.1204,5.47251 -0.7548,1.08487 -1.3723,3.25777 -1.3723,4.82865 0,2.52631 -6.9188,19.24399 -9.2716,22.40277 -0.4932,0.66216 -2.4101,4.26216 -4.2597,8 -4.1049,8.29525 -10.4985,18.24908 -16.3326,25.42697 -4.1731,5.13442 -18.0539,19.68753 -24.9389,26.14681 -0.7166,0.67226 -3.9959,3.80979 -7.2875,6.97229 -3.2916,3.1625 -6.5303,5.75473 -7.1972,5.7605 -0.6668,0.006 -4.1375,4.32967 -7.7125,9.60865 -3.575,5.27898 -7.8651,11.23675 -9.5336,13.2395 -1.6686,2.00274 -4.3645,5.44135 -5.9909,7.64135 -1.6265,2.2 -5.0312,6.25 -7.566,9 -2.5348,2.75 -8.299,9.05 -12.8093,14 -4.5102,4.95 -10.6224,11.025 -13.5826,13.5 -2.9603,2.475 -6.4986,5.85 -7.863,7.5 -1.3643,1.65 -5.1932,5.025 -8.5085,7.5 -3.3154,2.475 -6.2273,5.24894 -6.471,6.16432 -0.2436,0.91538 -1.9577,2.44337 -3.809,3.39554 -1.8514,0.95217 -5.5522,3.69073 -8.2242,6.08568 -2.672,2.39495 -5.372,4.36007 -6,4.36693 -0.628,0.007 -3.0212,1.75814 -5.3181,3.89174 -2.2969,2.1336 -6.9094,5.38186 -10.25,7.21836 -3.3406,1.83649 -6.0738,3.61695 -6.0738,3.95656 0,0.33962 1.7325,1.29804 3.8501,2.12983 2.7954,1.09808 5.1435,3.32502 8.5723,8.13009 2.5973,3.63976 4.4247,7.09932 4.061,7.68791 -0.4468,0.72291 -1.055,0.7435 -1.8744,0.0634 -0.6672,-0.55369 -2.2045,-0.74743 -3.4163,-0.43053 -1.2118,0.31689 -2.9207,-0.0193 -3.7976,-0.74697 -0.8769,-0.72773 -2.9091,-1.22296 -4.5162,-1.1005 -2.5204,0.19205 -3.0048,-0.19193 -3.5254,-2.79489 -0.6753,-3.37658 -1.8782,-3.94289 -2.5904,-1.21951 -0.746,2.85274 -9.3616,4.47431 -13.4644,2.53417 -2.88,-1.36193 -3.4291,-1.3542 -5.4725,0.077 -1.9445,1.362 -2.0114,1.59082 -0.4653,1.59082 2.1173,0 1.7473,1.89842 -0.6669,3.42126 -1.2142,0.76587 -2.2247,0.72838 -3.6052,-0.13377 -1.5245,-0.95207 -2.1529,-0.91519 -3.06153,0.17971 -1.48845,1.79346 -7.02723,3.74879 -7.02723,2.48078 0,-1.44639 -1.24666,-1.1058 -4,1.09279 l -2.5,1.9963 5.5,-0.61034 c 3.025,-0.33569 7.31767,-1.26895 9.53926,-2.07391 2.9825,-1.08067 4.7392,-1.19746 6.7146,-0.4464 1.846,0.70184 2.8776,0.68981 3.328,-0.0388 0.3589,-0.58078 1.7023,-0.8553 2.9853,-0.61004 1.3838,0.26454 2.5436,-0.1039 2.8513,-0.90583 0.2853,-0.74346 1.214,-1.35175 2.0637,-1.35175 0.8497,0 2.4187,-0.54562 3.4865,-1.21249 1.6001,-0.99927 2.6897,-0.8325 6.1963,0.94828 3.1456,1.59754 4.5959,1.87762 5.5636,1.07448 0.966,-0.80165 1.7832,-0.65708 3.1189,0.55172 0.9955,0.9009 2.6659,1.63801 3.7119,1.63801 2.5084,0 12.4406,4.13876 12.4406,5.18401 0,0.4488 0.675,0.81599 1.5,0.81599 0.825,0 1.5,0.47296 1.5,1.05103 0,0.57806 1.5259,1.68859 3.391,2.46784 4.3551,1.81971 9.5542,7.02547 10.915,10.92908 0.5852,1.67863 0.9807,3.16455 0.879,3.30205 -0.1017,0.1375 0.7591,1.19409 1.913,2.34797 1.5337,1.53373 1.9912,3.01293 1.7008,5.5 -0.2414,2.06807 0.039,3.40203 0.7149,3.40203 0.6117,0 2.2755,1.2375 3.6974,2.75 2.1125,2.24722 2.5344,3.56538 2.3077,7.2098 -0.1527,2.45288 -0.7672,4.62302 -1.3658,4.82253 -0.6491,0.21637 0.133,2.52663 1.9382,5.72519 1.6645,2.94935 2.9289,5.95421 2.8099,6.67747 -0.1191,0.72325 0.1349,2.12149 0.5644,3.10719 1.1008,2.5263 0.1331,10.48823 -1.8383,15.12581 l -1.6655,3.91799 -1.9808,-2.12618 c -1.0895,-1.16934 -1.9809,-2.59494 -1.9809,-3.16794 0,-0.57299 -0.6199,-1.04181 -1.3775,-1.04181 -1.9735,0 -4.1768,-2.98555 -3.8084,-5.16041 0.1868,-1.10271 -1.1123,-3.19827 -3.208,-5.17479 -2.235,-2.10786 -3.97,-4.99681 -4.7481,-7.90594 -0.9991,-3.73544 -1.9327,-4.96146 -5.042,-6.62114 -2.3604,-1.2599 -3.816,-1.59834 -3.816,-0.88728 0,0.81664 -0.3596,0.78997 -1.2416,-0.0921 -0.9889,-0.98886 -0.9696,-1.40979 0.095,-2.06757 1.0085,-0.62328 0.3317,-1.82058 -2.7584,-4.87994 -2.252,-2.22968 -4.0947,-4.53928 -4.0947,-5.13241 0,-0.59313 -0.675,-1.07842 -1.5,-1.07842 -0.825,0 -1.5,-0.45585 -1.5,-1.013 0,-0.55715 -2.0293,-1.99894 -4.5097,-3.20399 -3.957,-1.92244 -5.0268,-2.05298 -8.7282,-1.06502 -2.3202,0.61928 -4.8337,0.78168 -5.5856,0.36089 -2.6605,-1.48892 -6.0164,0.17031 -9.1391,4.51869 -1.7389,2.42133 -3.8087,4.40243 -4.5995,4.40243 -0.7908,0 -1.4379,0.675 -1.4379,1.5 0,0.825 -0.675,1.5 -1.5,1.5 -0.825,0 -1.5,0.41968 -1.5,0.93261 0,0.51294 -0.7875,1.18726 -1.75,1.4985 -1.8285,0.59128 -7.11961,7.63136 -6.25,8.31596 0.275,0.21649 -0.31473,0.84958 -1.31057,1.40688 -1.01835,0.5699 -1.71903,1.9612 -1.60131,3.17966 0.11511,1.19151 -0.11102,2.90245 -0.50252,3.80208 -0.39149,0.89963 -0.7959,3.37463 -0.89868,5.5 -0.10279,2.12537 -0.62443,4.1777 -1.15921,4.56074 -0.84791,0.6073 -1.5311,6.71686 -1.65539,14.80357 -0.0768,4.99671 1.56654,9.4893 3.60125,9.84517 2.33671,0.40869 6.78543,4.92679 6.03953,6.1337 -0.2858,0.46236 -0.2449,1.55625 0.091,2.43089 0.7449,1.94114 7.973,2.22263 8.7368,0.34024 0.3444,-0.8487 0.7724,-0.91356 1.3333,-0.20202 0.4544,0.57638 1.9512,1.11849 3.3262,1.20467 1.375,0.0862 3.2875,1.12695 4.25,2.31281 1.3833,1.70437 1.75,1.81863 1.75,0.54532 0,-2.47586 1.8869,-1.90927 2.559,0.76839 0.97,3.86466 0.1356,8.16341 -1.5145,7.80235 -1.8527,-0.4054 -15.6568,2.64603 -19.3252,4.27188 -3.089,1.36903 -13.09786,0.20712 -15.60837,-1.81194 -0.76396,-0.61441 -2.34925,-0.99128 -3.52286,-0.83748 -1.30827,0.17144 -3.12602,-0.8005 -4.69836,-2.51218 -2.85045,-3.10306 -7.27054,-12.86665 -6.4361,-14.2168 0.29417,-0.47599 -0.16058,-1.1323 -1.01057,-1.45847 -1.16276,-0.44619 -1.43755,-1.64831 -1.10976,-4.85478 0.23961,-2.34396 -0.10391,-5.38675 -0.7634,-6.76175 -1.3585,-2.83245 -1.2681,-6.62681 0.30048,-12.612 1.52104,-5.80378 2.22522,-15.56513 1.07142,-14.85204 -0.518,0.32014 -0.94182,1.13031 -0.94182,1.80037 0,1.59025 -5.95509,6.80946 -7.01918,6.15182 -0.91803,-0.56737 -3.98082,2.16248 -3.98082,3.54809 0,0.49137 0.9,1.37506 2,1.96376 2.75878,1.47645 2.70629,6.55164 -0.0832,8.04452 -1.64802,0.88199 -2.46115,0.77283 -3.89255,-0.52256 -0.99515,-0.9006 -3.09521,-1.98092 -4.66681,-2.40071 -2.23455,-0.59687 -2.87975,-1.36898 -2.95974,-3.54194 -0.0563,-1.52828 -0.70232,-3.14953 -1.43569,-3.60279 -0.95609,-0.59089 -1.03645,-1.19938 -0.28401,-2.1503 0.57717,-0.72942 1.34186,-3.93236 1.6993,-7.11764 0.7003,-6.2406 4.58734,-13.70858 7.13523,-13.70858 0.8368,0 1.48746,-0.90405 1.48746,-2.06672 0,-1.1367 1.12285,-3.53885 2.49522,-5.33812 1.37236,-1.79927 2.22683,-3.53978 1.89881,-3.8678 -0.32802,-0.32802 0.55624,-1.83947 1.96502,-3.35878 1.40879,-1.51931 3.06617,-3.98093 3.68307,-5.47026 0.6169,-1.48934 1.98479,-2.9336 3.03976,-3.20948 1.05497,-0.27588 1.91812,-1.28847 1.91812,-2.25021 0,-1.62709 -0.14323,-1.61898 -2.06105,0.11662 -1.63928,1.48353 -2.22794,1.59519 -2.8766,0.54564 -0.67397,-1.09051 -1.44457,-1.09213 -4.43895,-0.009 -1.99287,0.72063 -3.6234,1.68687 -3.6234,2.1472 0,0.46033 -1.0125,0.74994 -2.25,0.64358 -3.91301,-0.33629 -5.88866,0.0843 -5.25,1.11768 0.33992,0.55 -0.0835,1 -0.94098,1 -0.85747,-3.5e-4 -1.55903,-0.46072 -1.55903,-1.0234 0,-0.56268 -1.11192,-0.2945 -2.47093,0.59596 -1.35901,0.89046 -4.62151,1.73362 -7.25,1.8737 -2.62849,0.14008 -6.57907,0.95199 -8.77907,1.80425 -3.32717,1.28892 -4.05271,2.07097 -4.31336,4.64935 -0.22791,2.25452 -0.82536,3.09979 -2.19098,3.09979 -1.03269,0 -2.15574,-0.45 -2.49566,-1 -1.15749,-1.87285 -3.2814,-1.0071 -3.93694,1.60477 -0.49396,1.9681 -1.13152,2.47984 -2.60841,2.09362 -1.07506,-0.28113 -1.95465,-0.10328 -1.95465,0.39523 0,1.58048 -3.03576,0.97677 -3.69235,-0.73428 -0.51749,-1.34856 -1.10947,-1.05266 -3.32511,1.66206 -2.08261,2.55172 -3.1261,3.11953 -4.58904,2.49715 -1.04143,-0.44306 -3.09124,-0.71124 -4.55513,-0.59596 -2.00314,0.15775 -2.84381,-0.3634 -3.39797,-2.10649 -0.69819,-2.19615 -0.77231,-2.21372 -1.431,-0.33932 -0.8408,2.39261 -4.50489,3.4526 -8.31157,2.40446 -2.23686,-0.6159 -4.34449,0.0266 -10.44726,3.18461 -4.2048,2.17589 -8.59783,4.85121 -9.76228,5.94515 -1.16446,1.09395 -2.82059,1.989 -3.6803,1.989 -0.8597,0 -2.1233,0.675 -2.80799,1.5 -0.68469,0.825 -2.03469,1.5 -3,1.5 -0.96531,0 -2.31531,0.675 -3,1.5 -0.68469,0.825 -1.659,1.5 -2.16514,1.5 -0.50614,0 -3.26354,1.72253 -6.12756,3.82785 -9.3162,6.84829 -14.78681,9.66153 -15.75172,8.10028 -0.69151,-1.11888 -1.28013,-0.9911 -3.15291,0.68447 -3.32773,2.9773 -8.67298,6.54533 -10.12473,6.75841 -0.68746,0.10089 -4.9939,2.19619 -9.56987,4.65622 -11.10902,5.97217 -11.80148,6.38534 -13.92992,8.31155 -1.0096,0.91367 -2.55194,1.66122 -3.42744,1.66122 -0.94451,0 -1.85161,1.18292 -2.23073,2.90904 -1.72905,7.87231 -34.11392,105.46674 -38.68852,116.59096 -2.00453,4.87451 -3.24124,7.72601 -7.8067,18 -1.22201,2.75 -3.04825,7.25 -4.05831,10 -1.01005,2.75 -3.2,8.71999 -4.86656,13.26666 -1.66656,4.54666 -6.25386,18.04666 -10.19401,30 -7.32323,22.21669 -11.57952,32.37943 -12.76059,30.46843 -0.76981,-1.24559 -5.63584,10.74974 -16.13103,39.76491 -4.44854,12.2985 -9.72317,26.45586 -13.78515,37.00003 -1.37722,3.575 -2.43554,7.7308 -2.35181,9.2352 0.0876,1.5743 -0.70292,3.5904 -1.86254,4.75 -1.10812,1.1081 -2.01476,3.3166 -2.01476,4.9078 0,1.5911 -0.606758,3.1258 -1.348358,3.4104 -0.74159,0.2846 -2.49241,2.6952 -3.89071,5.357 -4.59766,8.752 -6.24766,11.3268 -7.26265,11.3332 -0.55094,0 -2.12594,2.1267 -3.5,4.71816 -4.01368,7.5699 -12.39407,15.8294 -20.934098,20.6319 -8.20595,4.6147 -13.98798,7.0014 -14.1826,5.8543 z"
     id="path2987"
     inkscape:connector-curvature="0" />
</svg>
