<?xml version="1.0" encoding="UTF-8" standalone="no"?>
<!-- Created with Inkscape (http://www.inkscape.org/) -->

<svg
   xmlns:dc="http://purl.org/dc/elements/1.1/"
   xmlns:cc="http://creativecommons.org/ns#"
   xmlns:rdf="http://www.w3.org/1999/02/22-rdf-syntax-ns#"
   xmlns:svg="http://www.w3.org/2000/svg"
   xmlns="http://www.w3.org/2000/svg"
   xmlns:sodipodi="http://sodipodi.sourceforge.net/DTD/sodipodi-0.dtd"
   xmlns:inkscape="http://www.inkscape.org/namespaces/inkscape"
   id="svg2"
   version="1.1"
   inkscape:version="0.48.2 r9819"
   width="1475.4457"
   height="1714.8562"
   sodipodi:docname="M - Griffin 2.png">
  <metadata
     id="metadata8">
    <rdf:RDF>
      <cc:Work
         rdf:about="">
        <dc:format>image/svg+xml</dc:format>
        <dc:type
           rdf:resource="http://purl.org/dc/dcmitype/StillImage" />
        <dc:title></dc:title>
      </cc:Work>
    </rdf:RDF>
  </metadata>
  <defs
     id="defs6" />
  <sodipodi:namedview
     pagecolor="#ffffff"
     bordercolor="#666666"
     borderopacity="1"
     objecttolerance="10"
     gridtolerance="10"
     guidetolerance="10"
     inkscape:pageopacity="0"
     inkscape:pageshadow="2"
     inkscape:window-width="1600"
     inkscape:window-height="876"
     id="namedview4"
     showgrid="false"
     fit-margin-top="0"
     fit-margin-left="0"
     fit-margin-right="0"
     fit-margin-bottom="0"
     inkscape:zoom="0.5"
     inkscape:cx="760.42571"
     inkscape:cy="845.03439"
     inkscape:window-x="0"
     inkscape:window-y="24"
     inkscape:window-maximized="1"
     inkscape:current-layer="svg2" />
  <path
     style="fill:#000000"
     d="m 1264.302,1711.5718 c -1.6589,-1.7875 -3.7859,-4.4926 -4.7267,-6.0114 -1.2882,-2.0795 -2.2587,-2.6268 -3.9301,-2.2162 -1.2588,0.3092 -3.9341,-0.3352 -6.1809,-1.4886 -2.1788,-1.1186 -4.7625,-2.0338 -5.7416,-2.0338 -0.979,0 -2.3421,-0.9 -3.0291,-2 -0.6869,-1.1 -1.9623,-2 -2.8341,-2 -1.7309,0 -5.0362,-3.2422 -6.8026,-6.6726 -0.7193,-1.397 -0.8895,-4.8852 -0.4766,-9.7701 l 0.6423,-7.5974 -20.3985,0.253 c -19.0165,0.2358 -20.8032,0.1014 -26.3744,-1.9837 -6.8129,-2.5499 -10.8135,-5.8049 -8.7267,-7.1004 1.8637,-1.1569 0.1347,-2.3379 -8.2973,-5.6672 -3.85,-1.5201 -7.15,-3.1458 -7.3333,-3.6127 -0.1834,-0.4669 -1.0012,-0.8489 -1.8174,-0.8489 -1.029,0 -1.2894,0.6133 -0.8493,2 0.9,2.8355 -0.9699,2.4829 -3.977,-0.75 -4.8721,-5.2381 -5.6567,-12.4383 -2.4338,-22.3348 2.6627,-8.1764 5.3203,-11.2038 9.1055,-10.3724 2.4043,0.528 3.062,0.1365 4.8441,-2.8839 3.6662,-6.2139 6.1093,-7.1708 18.0379,-7.0656 9.0144,0.08 11.2789,0.444 15.3299,2.4672 l 4.7532,2.3738 5.6701,-2.991 c 3.2584,-1.7188 5.5459,-3.5663 5.378,-4.3435 -0.1607,-0.7439 0.6483,-2.0112 1.7977,-2.8162 1.6889,-1.183 1.8572,-1.744 0.8776,-2.9243 -0.9893,-1.1921 -0.8228,-1.5623 0.9064,-2.0145 2.6829,-0.7016 2.2064,-3.9415 -2.0226,-13.7523 -2.0934,-4.8564 -2.8207,-7.874 -2.4494,-10.1624 0.3915,-2.4126 -0.3576,-5.0808 -2.8947,-10.3107 -1.8826,-3.8807 -3.4229,-7.2747 -3.4229,-7.5423 0,-1.1475 -20.1153,-33.3359 -35.5,-56.8069 -2.75,-4.1954 -6.1215,-9.4894 -7.4923,-11.7645 -1.3708,-2.275 -4.7909,-5.9097 -7.6002,-8.0771 -8.1349,-6.276 -34.4075,-33.5725 -34.4075,-35.7484 0,-2.6656 -1.3018,-3.5318 -10.5,-6.9865 -10.5967,-3.9799 -15.7271,-5.0418 -29.7352,-6.1547 -8.0135,-0.6366 -13.216,-1.5873 -16.4045,-2.9978 -2.5682,-1.136 -4.8062,-1.9286 -4.9734,-1.7614 -0.6509,0.6509 12.5255,7.2855 20.605,10.375 10.2068,3.9031 8.4279,4.4032 -2.6281,0.7389 -11.0312,-3.656 -36.6818,-16.5607 -51.3638,-25.8409 -14.5025,-9.1667 -24.3376,-16.2988 -25.4828,-18.4793 -0.8273,-1.5753 -3.22609,-3.3134 -6.18439,-4.4811 -13.8351,-5.4608 -23.3042,-11.4259 -43.1565,-27.1866 -13.9309,-11.0596 -29.4023,-29.291 -32.1673,-37.9058 -3.5301,-10.9985 -11.7957,-22.028 -17.9787,-23.9904 -3.827,-1.2146 -18.7943,-16.9202 -26.7881,-28.1095 -9.2294,-12.9187 -22.3994,-38.7726 -29.7131,-58.3295 -0.911,-2.4361 -2.9983,-9.6361 -4.6384,-16 -6.2866,-24.3936 -10.0253,-34.2718 -16.8694,-44.5706 -1.462,-2.2 -3.6802,-6.025 -4.9293,-8.5 -3.477,-6.8891 -6.5191,-9.5553 -12.3862,-10.8553 -20.2935,-4.4966 -33.6172,-6.7508 -57.7058,-9.7631 -24.621,-3.0788 -27.6121,-3.4009 -36,-3.8766 -4.675,-0.265 -11.1023,-0.7044 -14.2829,-0.9764 -7.0726,-0.6047 -21.5114,-4.113 -23.409,-5.6879 -2.072,-1.7196 -10.0223,-3.0852 -24.8081,-4.2612 -8.9885,-0.715 -23.7748,-4.4116 -28.5,-7.1251 -1.375,-0.7896 -5.264,-2.7724 -8.6422,-4.4061 -7.3973,-3.5774 -12.5065,-6.8999 -26.4677,-17.2118 -5.8355,-4.3101 -11.0623,-7.8365 -11.6152,-7.8365 -0.5528,0 -2.2146,-0.9513 -3.6927,-2.114 -1.4781,-1.1627 -2.8951,-1.9064 -3.1489,-1.6527 -0.7938,0.7939 3.638,5.7667 5.1393,5.7667 0.7851,0 1.4274,0.675 1.4274,1.5 0,2.56 -3.6949,1.6513 -6.4111,-1.5767 -1.4239,-1.6922 -2.5889,-3.422 -2.5889,-3.8439 0,-1.4878 -9.7087,-10.8701 -14.0767,-13.6035 -2.4328,-1.5224 -7.0554,-4.7574 -10.2725,-7.1889 l -5.8492,-4.4209 0.6871,4.0669 c 0.5638,3.337 0.4021,4.067 -0.9008,4.067 -1.2058,0 -1.5879,-1.0409 -1.5879,-4.3257 0,-4.721 -1.8084,-7.0803 -7.7146,-10.0647 -3.1812,-1.6075 -3.2374,-1.5936 -5.4031,1.3357 -1.9598,2.6508 -8.1497,6.0547 -11.0102,6.0547 -0.5982,0 1.3236,-2.6043 4.2705,-5.7873 5.6427,-6.0948 8.8574,-13.485 8.8574,-20.362 0,-3.6585 -0.7908,-4.7583 -8.1011,-11.2675 -2.4194,-2.1543 -5.4173,-4.8257 -6.6619,-5.9366 l -2.263,-2.0197 1.073,3.0781 c 0.5901,1.6929 2.5968,5.4893 4.4592,8.4365 3.8789,6.1383 2.7033,8.0698 -1.7008,2.7945 l -2.8054,-3.3605 -0.012,7.4623 c -0.019,11.6275 -4.459,25.075 -9.335,28.2699 -3.0257,1.9825 -6.0609,2.3307 -3.578,0.4105 0.8663,-0.67 2.3917,-2.4726 3.3897,-4.0058 1.6204,-2.4894 1.6503,-2.9174 0.2794,-4 -1.0406,-0.8218 -1.6928,-3.6285 -2.0245,-8.7124 -0.6035,-9.2486 -2.7326,-14.1191 -10.9812,-25.1214 -3.4549,-4.6082 -7.9704,-10.94633 -10.0343,-14.08453 -3.4729,-5.2806 -5.7042,-7.7528 -5.7042,-6.3199 0,1.3259 5.6263,11.5706 10.998,20.02583 5.3794,8.4675 7.8359,13.5 6.5896,13.5 -0.3009,0 -1.8101,-2.1375 -3.3537,-4.75 -1.5436,-2.6125 -5.6836,-9.1525 -9.2001,-14.5334 l -6.3935,-9.78343 -3.1582,6.7834 c -3.2646,7.01203 -10.7944,15.17363 -14.2098,15.40193 -2.9023,0.194 -4.7336,-0.2561 -5.3982,-1.3267 -0.3443,-0.5546 -1.4155,1.059 -2.3805,3.5857 -1.7361,4.546 -4.0322,7.4172 -5.0875,6.3619 -0.3001,-0.3001 0.4334,-2.4647 1.6301,-4.8103 1.7263,-3.3838 2.1522,-5.8732 2.0619,-12.0524 -0.1341,-9.18103 -0.9667,-11.73693 -5.5774,-17.12363 -1.8941,-2.2128 -5.3571,-7.8856 -7.6956,-12.6062 -3.8873,-7.8471 -4.2863,-9.3726 -4.6548,-17.7977 l -0.403,-9.2149 -6.6336,-0.6713 c -3.6485,-0.3692 -7.6885,-1.3374 -8.9776,-2.1517 -1.2891,-0.8142 -6.4641,-2.5124 -11.5,-3.7737 -5.0359,-1.2613 -11.8561,-3.1927 -15.1561,-4.2919 -8.8644,-2.9529 -10.3586,-3.1988 -20.2429,-3.3317 -8.1996,-0.1103 -9.6452,0.169 -15.6122,3.0168 -3.6167,1.7262 -8.0539,4.6563 -9.8604,6.5114 -4.8904,5.0222 -9.1714,10.3299 -9.926,12.3068 -0.8521,2.232 0.014,6.2926 1.7758,8.3297 1.6299,1.8842 1.7857,3.9213 0.3,3.9213 -2.3789,0 -5.0083,-2.2701 -7.4446,-6.4274 -1.4152,-2.4149 -3.1394,-4.608 -3.8316,-4.8736 -1.6194,-0.6214 -4.1713,-22.9383 -3.3271,-29.0969 1.8506,-13.50211 9.8731,-27.26991 19.67,-33.75675 3.4732,-2.29968 1.6871,-3.81563 -5.3513,-4.54206 -8.4436,-0.87146 -27.1357,5.13136 -35.239,11.3167 -2.4354,1.85901 -4.8741,3.38001 -5.4193,3.38001 -1.3983,0 -1.2306,-2.62504 0.3705,-5.79966 0.749,-1.48519 1.6077,-5.20346 1.9083,-8.26283 0.3006,-3.05936 1.727,-8.36693 3.1697,-11.79459 1.4426,-3.42767 2.3488,-6.67586 2.0136,-7.2182 -0.3352,-0.54235 -2.0784,-0.71051 -3.8738,-0.37369 -2.8153,0.52815 -3.635,0.17196 -5.9582,-2.58906 -1.9781,-2.35083 -4.6106,-3.79511 -9.9077,-5.43576 -8.2734,-2.56249 -20.2566,-7.9775 -21.2652,-9.60933 -0.3759,-0.60825 -3.4431,-2.36167 -6.816,-3.8965 -3.3729,-1.53482 -12.4326,-5.8138 -20.1326,-9.50884 -16.4914,-7.91379 -21.5947,-9.98489 -27,-10.95747 -4.3858,-0.78914 -9.6197,-2.96662 -13.5,-5.61646 -5.2048,-3.55434 -11.7371,-6.70282 -18.5,-8.91672 -9.8741,-3.23239 -13.26225,-5.03751 -16.65366,-8.87266 -2.90878,-3.28938 -3.00199,-3.31734 -5.00752,-1.50236 -1.12397,1.01717 -2.70871,3.13564 -3.52166,4.7077 -1.32623,2.56466 -1.29485,3.38673 0.30553,8.00236 1.24986,3.60471 1.81865,8.4358 1.90073,16.14407 0.0644,6.05 0.648,12.26679 1.29685,13.8151 1.59783,3.81278 1.42812,15.8488 -0.3269,23.1849 -1.13796,4.75676 -1.19158,6.67614 -0.25875,9.26311 0.96309,2.67088 0.85493,4.47046 -0.59592,9.91534 -0.97492,3.65872 -2.81805,8.71532 -4.09585,11.23688 -2.62686,5.18395 -11.7279,14.08467 -14.40155,14.08467 -0.9708,0 -2.79377,1.39137 -4.05105,3.09194 -1.25728,1.70056 -3.92941,3.79754 -5.93806,4.65995 -4.88036,2.09538 -21.282028,2.10794 -26.152088,0.02 -3.67626,-1.5761 -11,-7.96081 -11,-9.58962 0,-0.55747 2.66471,-0.7381 6.43006,-0.43585 l 6.43005,0.51614 0.68914,-3.88129 c 0.37903,-2.13472 1.9141,-5.2313 3.41128,-6.8813 3.50804,-3.86614 6.081948,-7.65841 10.207998,-15.03995 l 3.33147,-5.96002 -0.061,-18 c -0.0362,-10.67282 -0.58196,-20.37955 -1.34075,-23.84563 -0.70385,-3.2151 -1.29641,-11.79573 -1.31682,-19.06806 -0.0204,-7.27233 -0.34476,-14.9918 -0.72079,-17.15437 -0.76545,-4.40205 1.76633,-13.47825 4.64793,-16.66238 1.61132,-1.78048 1.47947,-2.06005 -2.75816,-5.84823 -2.44771,-2.1881 -6.02538,-5.02979 -7.950378,-6.31487 -1.925,-1.28508 -8.98686,-7.90975 -15.69303,-14.72149 -6.70619,-6.81173 -17.50619,-17.78497 -24.00003,-24.38497 -15.03565,-15.28147 -29.83609,-28.16197 -35.0335,-30.48893 -2.98882,-1.33813 -4.34577,-2.69432 -5.16588,-5.16296 -0.61174,-1.84146 -2.22732,-4.69811 -3.59017,-6.34811 l -2.4779,-3 -4.26976,4.54563 c -2.34837,2.5001 -4.80897,5.4251 -5.468,6.5 -1.03576,1.68936 -1.33878,1.75097 -2.23468995,0.45437 -2.85877005,-4.13736 0.72636995,-14.84396 7.29687995,-21.7913 5.68369,-6.00968 9.22384,-8.19436 13.95468,-8.61167 1.74975,-0.15435 4.53137,-0.89635 6.18137,-1.64889 4.50675,-2.05547 14.16192,-1.64174 19.77948,0.84756 6.69298,2.96584 16.27609,10.74797 18.18248,14.76537 1.3966,2.94313 1.96496,3.30355 4.43156,2.81023 2.83649,-0.5673 7.90567,1.3808 11.27978,4.33487 1.55459,1.36105 1.64698,0.66076 1.30228,-9.87059 -0.47188,-14.41657 -3.34168,-28.14894 -7.53208,-36.04191 -0.49824,-0.93847 -1.20304,-3.56453 -1.56621,-5.83568 -0.36317,-2.27115 -1.26675,-4.36208 -2.00794,-4.6465 -2.04432,-0.78448 -3.6458,-8.16987 -2.93443,-13.53243 1.23161,-9.28433 7.11895,-18.40888 10.5211,-16.30624 0.57419,0.35487 1.04398,0.16866 1.04398,-0.4138 0,-0.58246 -1.9125,-1.08613 -4.25,-1.11927 -2.3375,-0.0331 -6.39187,-0.27163 -9.00971,-0.52998 -2.61784,-0.25836 -5.70365,0.0354 -6.85736,0.65288 -1.37754,0.73724 -2.43589,0.78439 -3.08293,0.13735 -1.53855,-1.53855 0.8676,-5.07913 3.97886,-5.85477 1.49663,-0.37312 4.63222,-1.69204 6.96798,-2.93094 3.048,-1.61667 6.01206,-2.26715 10.5,-2.30427 7.12393,-0.0589 11.13302,0.95315 18.25316,4.60794 6.375758,3.27269 9.214908,5.84654 11.617638,10.53204 2.04706,3.9919 3.86091,4.6857 5.88236,2.25 1.78603,-2.15204 11.47567,-1.92131 16.57491,0.39468 2.2412,1.01792 6.5162,4.27884 9.5,7.24649 10.56512,10.50794 15.34934,31.38344 9.12259,39.80557 -2.15807,2.91895 -2.16052,2.97372 -0.32423,7.25762 2.67287,6.23555 3.54592,19.93164 1.70161,26.69436 -0.80977,2.96929 -1.94539,5.87179 -2.5236,6.45 -1.62638,1.62638 -1.25866,4.18606 1.19872,8.34412 4.0829,6.90856 2.29303,25.72952 -3.00388,31.58649 -1.42554,1.57627 -1.45469,2.37512 -0.25539,7 0.74459,2.87137 1.26138,8.37067 1.14843,12.22067 l -0.20537,7 4.90328,4.75 c 3.09077,2.99415 5.79342,4.75 7.31132,4.75 4.67581,0 21.43371,9.12638 25.85161,14.07885 0.978,1.09631 3.6898,1.86553 7.7922,2.21031 6.381,0.5363 17.7986,5.14712 24.4188,9.86111 1.6789,1.19545 5.3557,2.76603 8.1708,3.49018 10.1195,2.60319 24.6681,8.16024 27.9827,10.68843 1.859,1.41789 5.5749,3.08798 8.2577,3.71132 6.4298,1.49396 10.5762,3.08043 12.1992,4.66757 0.7268,0.71073 2.1189,1.29223 3.0935,1.29223 0.9746,0 4.205,0.83101 7.1785,1.84669 2.9736,1.01567 6.0135,1.63838 6.7552,1.38379 0.7418,-0.25459 2.3168,0.0152 3.5,0.5996 3.1009,1.53142 26.1137,6.16992 30.6105,6.16992 0.6757,0 -0.4543,-2.34237 -2.5111,-5.20527 -4.6506,-6.47323 -7.377,-12.61426 -11.0081,-24.79473 -2.3769,-7.97314 -2.8382,-11.3483 -2.8699,-21 -0.038,-11.45608 -0.022,-11.53255 4.0785,-20.02463 3.2061,-6.63948 5.1738,-9.34845 8.898,-12.25 2.63,-2.04895 5.1579,-3.72537 5.6176,-3.72537 0.4598,0 0.8359,-0.58039 0.8359,-1.28976 0,-1.51151 -14.274,-8.36757 -25.4566,-12.22731 -9.4455,-3.26014 -19.9117,-3.2696 -23.5011,-0.0212 -1.9267,1.74369 -2.2394,1.7698 -3.7001,0.30906 -2.8054,-2.80536 -0.9586,-10.15432 3.7299,-14.84284 2.1603,-2.16036 4.5253,-3.92792 5.2555,-3.92792 0.7302,0 4.2177,-1.19353 7.75,-2.65229 5.6721,-2.34243 7.6783,-2.63977 17.1724,-2.54509 5.9125,0.059 10.75,-0.2691 10.75,-0.72902 0,-0.94841 -5.2455,-5.0886 -9,-7.10349 -4.4318,-2.37841 -12.2311,-3.71901 -15.8699,-2.72783 -2.1443,0.58409 -3.729,0.5588 -4.3573,-0.0695 -1.4222,-1.42218 2.2924,-3.15627 8.2803,-3.86545 6.3982,-0.75777 5.4532,-1.67186 -2.3853,-2.3073 -4.5936,-0.37239 -6.1678,-0.88284 -6.1678,-2 0,-0.92585 1.1483,-1.62771 3,-1.83366 1.65,-0.18352 3.675,-0.91842 4.5,-1.63313 0.825,-0.7147 4.1201,-2.52515 7.3224,-4.0232 3.2023,-1.49806 6.038,-3.2855 6.3014,-3.97208 0.4653,-1.21248 -0.9448,-4.72515 -7.5546,-18.81982 -1.7492,-3.73005 -3.8436,-8.66159 -4.6542,-10.95898 -0.8105,-2.2974 -3.52,-8.02055 -6.021,-12.71811 -2.501,-4.69762 -6.1194,-12.36608 -8.0408,-17.04108 -1.9215,-4.675 -5.487,-12.70821 -7.9234,-17.85157 -2.4364,-5.14336 -4.4298,-9.76869 -4.4298,-10.27852 0,-1.64183 -5.9994,-12.86991 -6.8767,-12.86991 -0.4664,0 -1.1389,2.47602 -1.4946,5.50226 -0.7498,6.37908 -3.2186,13.1264 -5.0618,13.83369 -0.9368,0.35947 -1.1544,2.44793 -0.8157,7.82717 0.5671,9.00602 -2.1463,17.97792 -6.6042,21.83688 -2.7009,2.33808 -2.856,2.87168 -2.3946,8.23868 0.4144,4.82044 0.063,6.61883 -2.1979,11.23943 -1.4802,3.02541 -4.6855,7.49498 -7.1229,9.93237 -2.8219,2.82195 -4.4316,5.31842 -4.4316,6.87307 0,2.48958 -4.3559,8.78201 -8.3083,12.00203 -3.5489,2.89125 -11.018,6.49742 -15.008,7.24593 -2.0382,0.38237 -3.9524,1.0942 -4.2538,1.58185 -0.8174,1.32261 -6.0556,1.07104 -9.712,-0.46643 -3.7939,-1.59527 -11.0057,-8.5788 -14.4006,-13.9447 -1.3215,-2.08877 -3.0585,-4.04942 -3.86,-4.35699 -2.1888,-0.83994 -1.7526,-3.34524 0.5825,-3.34524 1.1219,0 3.8657,0.93147 6.0973,2.06994 l 4.0574,2.06994 6.4316,-6.81994 c 3.5374,-3.75097 7.1497,-8.39494 8.0274,-10.31994 0.8777,-1.925 2.8645,-6.23184 4.4151,-9.57075 5.4649,-11.7676 7.0189,-16.8097 10.8767,-35.29055 2.1424,-10.26308 4.8311,-21.03448 5.975,-23.93645 1.1438,-2.90196 2.1013,-6.27213 2.1277,-7.48927 0.026,-1.21714 0.902,-3.78798 1.9456,-5.71298 6.2198,-11.47235 6.5475,-13.93189 2.9491,-22.13053 -1.6185,-3.68758 -2.9427,-7.44179 -2.9427,-8.34267 0,-1.49849 -1.8147,-6.17649 -9.5145,-24.5268 -1.5,-3.575 -3.2354,-7.85278 -3.8564,-9.50618 -0.621,-1.6534 -2.051,-4.3534 -3.1779,-6 -1.1268,-1.6466 -2.586,-4.11882 -3.2427,-5.49382 -0.6567,-1.375 -1.6329,-3.175 -2.1693,-4 -2.2406,-3.44597 -14.0392,-26.20082 -14.0392,-27.07609 0,-0.52373 -2.8692,-6.90835 -6.376,-14.18807 -5.728,-11.89068 -9.2764,-20.56865 -12.5265,-30.63506 -0.6036,-1.86958 -1.1036,-5.24458 -1.1111,-7.5 -0.023,-6.82961 -0.8575,-8.60078 -4.0533,-8.60078 -1.6539,0 -3.2396,0.72518 -3.8084,1.74167 -1.2532,2.23931 -2.0909,1.34215 -3.1559,-3.37989 -1.3301,-5.89764 0.8903,-9.48387 7.8659,-12.70428 3.166,-1.46162 6.6208,-2.6575 7.6774,-2.6575 2.6472,0 10.2444,2.92546 14.6163,5.62833 1.9956,1.23375 5.2552,2.92295 7.2437,3.75379 4.0048,1.67331 11.7572,9.58295 15.4316,15.74469 1.3269,2.22524 3.0069,7.58773 3.7997,12.12887 1.2613,7.22517 1.8001,8.45253 4.7936,10.92006 5.5786,4.59835 11.6249,18.80853 11.8298,27.80271 0.067,2.94906 0.6476,5.41217 1.3709,5.81791 1.7352,0.97334 5.5145,6.73427 8.3339,12.70364 1.5727,3.3298 2.5211,7.5053 2.8392,12.5 0.6731,10.5684 3.0363,13.06516 5.9156,6.25 1.4091,-3.33548 1.4564,-6.34768 0.4274,-27.25 -1.1222,-22.7942 -2.2353,-36.08477 -4.0622,-48.5 -0.4855,-3.3 -0.9208,-8.52681 -0.9672,-11.61514 -0.063,-4.19156 -0.6451,-6.32792 -2.2959,-8.42662 -1.8292,-2.32549 -2.2816,-4.41324 -2.6168,-12.07788 -0.3453,-7.8953 -0.095,-9.90693 1.6903,-13.59523 2.0781,-4.29278 6.3961,-7.78513 9.6256,-7.78513 2.9272,0 1.0521,-2.28476 -3.0439,-3.70903 -2.7584,-0.95916 -4.5947,-1.07664 -6.1096,-0.39088 -3.0737,1.39134 -3.9976,-1.52923 -1.5345,-4.85059 1.5248,-2.05594 3.165,-2.72343 8.4729,-3.44796 7.9642,-1.08713 11.5605,0.26709 19.3454,7.28488 2.8149,2.53747 6.3393,5.44995 7.8321,6.47219 3.3587,2.29996 5.8591,7.99987 7.5195,17.14139 2.1245,11.69649 2.1087,11.6677 6.565,12.02284 8.0917,0.64487 15.8878,5.74404 20.8024,13.60616 4.7516,7.60144 6.404,13.42845 7.1088,25.0675 l 0.5872,9.6965 -3.2665,3.72024 c -3.2181,3.66529 -3.268,3.87305 -3.3725,14.06486 -0.099,9.65488 -0.3302,10.78586 -3.4652,16.9624 -1.8475,3.63977 -4.5911,7.52868 -6.097,8.64202 -2.1512,1.59049 -2.5337,2.40585 -1.7848,3.80512 3.1047,5.80118 -1.8859,19.69232 -8.7507,24.35704 -3.6046,2.44941 -3.6848,2.64455 -3.8119,9.27868 -0.1348,7.04069 -1.8774,12.27664 -4.0858,12.27664 -2.5783,0 -2.4376,2.07228 0.3897,5.74163 4.2173,5.47337 8.2816,15.50565 8.9348,22.05518 0.46,4.61122 1.2941,6.62174 4.3567,10.50061 2.0833,2.63859 4.7117,6.70591 5.8409,9.03849 2.7201,5.61894 6.2439,19.57061 5.5194,21.85305 -0.3774,1.18919 -0.068,1.81104 0.8999,1.81104 1.8418,0 10.172,9.16197 12.1549,13.36853 1.6786,3.5608 5.5052,18.0128 5.5052,20.79143 0,1.01202 0.5966,1.84004 1.3257,1.84004 2.8483,0 7.8401,7.82804 10.3227,16.18789 l 1.546,5.20584 1.8806,-2.44687 c 1.0343,-1.34577 1.8905,-2.86393 1.9028,-3.37368 0.012,-0.50974 1.7097,-3.38539 3.7722,-6.39032 4.525,-6.59257 16.7964,-16.12117 24.4493,-18.98447 6.1834,-2.31352 17.6766,-3.53717 19.8542,-2.11383 1.5092,0.98646 1.7205,0.75912 -9.2669,9.96874 -4.1069,3.44237 -9.7897,13.81707 -9.781,17.85642 0.012,5.35928 2.2506,10.56434 6.1066,14.19597 3.9517,3.72165 9.5231,6.89431 12.1069,6.89431 0.7793,0 3.1094,-3.2625 5.1781,-7.25 6.6175,-12.75553 12.7627,-20.96686 24.5736,-32.8355 11.858,-11.91595 20.7639,-18.0757 28.0635,-19.41007 2.6019,-0.47563 5.8997,-2.8795 12.5,-9.11158 4.9311,-4.65602 11.2157,-9.73301 13.9657,-11.28219 6.4689,-3.64418 23.2517,-9.64649 31.297,-11.19325 4.1754,-0.80275 7.5446,-2.20404 10,-4.15907 2.0366,-1.62163 7.753,-4.90251 12.703,-7.29084 7.7401,-3.73455 10.7498,-4.58291 21.5,-6.06037 14.3989,-1.97893 17.1385,-3.37791 27.785,-14.18847 5.1498,-5.22916 8.2203,-7.28831 17,-11.40053 5.8932,-2.76027 13.4451,-6.04738 16.7819,-7.30468 8.747,-3.29584 14.1613,-6.22422 18.1945,-9.84065 5.4493,-4.88619 11.9206,-14.1642 12.6716,-18.16758 0.5536,-2.9506 1.0192,-3.49646 2.5644,-3.00606 1.3055,0.41437 3.1478,-0.53895 5.9717,-3.09021 2.2461,-2.02918 3.925,-3.84822 3.7309,-4.04229 -0.1941,-0.19408 -2.2456,0.56157 -4.5588,1.67923 -4.0386,1.95124 -6.1412,1.911 -6.1412,-0.11752 0,-0.52447 2.3625,-2.04632 5.25,-3.38187 2.8875,-1.33556 6.2318,-3.28962 7.4317,-4.34237 3.9647,-3.47837 13.3183,-18.51089 13.3183,-21.40426 0,-4.30408 -4.1041,-15.79987 -5.6407,-15.79987 -0.7476,0 -1.3593,-0.5109 -1.3593,-1.13533 0,-1.92623 -4.6067,-5.53152 -10.691,-8.36707 -8.8617,-4.12987 -9.348,-4.30525 -16.309,-5.88175 -21.4125,-4.84944 -44.3427,-4.76823 -61.5547,0.218 -5.5301,1.60203 -11.4702,3.64479 -13.2003,4.53947 -3.9643,2.05002 -7.1336,2.08042 -7.9029,0.0758 -0.8174,-2.13008 2.8145,-5.74968 7.3861,-7.36103 2.0745,-0.73122 7.3307,-3.07517 11.6804,-5.20878 4.3498,-2.13362 8.7107,-3.87931 9.691,-3.87931 0.9803,0 2.0428,-0.42137 2.3611,-0.93637 0.3183,-0.515 1.3573,-0.92537 2.309,-0.91193 0.9517,0.0134 4.2053,-0.68188 7.2303,-1.54517 8.2468,-2.35348 16.8649,-3.11842 33.75,-2.99561 8.3875,0.061 15.25,-0.17947 15.25,-0.5344 0,-2.06492 -23.5251,-11.61168 -38.5,-15.62374 -17.3078,-4.63709 -41.9283,-4.33588 -51.6663,0.63208 -4.7233,2.40965 -5.8337,2.40646 -5.8337,-0.0168 0,-2.51747 3.8491,-5.11804 12.5,-8.44545 14.5353,-5.59074 52.9318,-5.89608 71.5,-0.56859 4.125,1.18352 10.4102,2.98282 13.9671,3.99843 6.684,1.90848 8.1543,1.80159 6.4975,-0.47234 -0.5305,-0.72817 -2.9227,-4.12398 -5.3158,-7.54626 -3.0675,-4.38645 -5.5754,-6.77814 -8.5,-8.10614 -5.4166,-2.45949 -7.7499,-2.37915 -16.0597,0.55295 -7.4168,2.61704 -8.5891,2.53113 -8.5891,-0.62941 0,-6.34758 -22.2991,-15.71021 -38,-15.95489 -7.243,-0.11287 -15.9701,0.94759 -17.5,2.12648 -0.55,0.42382 -2.9457,1.34823 -5.3238,2.05426 -7.6153,2.26086 -15.1949,13.59656 -15.1811,22.70425 0.01,5.04773 -2.5895,5.2976 -6.5112,0.62644 -3.8071,-4.5347 -5.9434,-10.78707 -7.4249,-21.73018 -1.6679,-12.32035 -1.3138,-18.25401 1.6484,-27.61854 2.9779,-9.41399 6.5634,-15.0315 14.3381,-22.46353 7.5438,-7.21136 10.6765,-9.03163 19.763,-11.48344 11.7549,-3.17179 40.2956,-3.18977 46.3156,-0.0292 1.1239,0.59005 2.162,0.25835 3.3704,-1.07693 3.0973,-3.42247 9.7391,-6.23578 14.7229,-6.2363 4.5272,-4.8e-4 4.8857,-0.21862 8.8897,-5.40854 7.7992,-10.10924 16.6578,-14.30112 31.9215,-15.10527 8.0601,-0.42463 10.2948,-0.18759 14.5,1.53809 4.9789,2.04316 16.4636,3.66778 23.9714,3.391 4.9519,-0.18255 18.6061,-7.0288 25.1157,-12.59307 9.4998,-8.12016 17.3068,-18.53802 23.4042,-31.2312 9.5187,-19.81537 12.9569,-34.48 9.5801,-40.86074 -0.8732,-1.65 -1.5904,-3.49498 -1.5938,-4.09996 0,-0.60498 -1.3449,-2.94793 -2.981,-5.20656 -3.1763,-4.3848 -2.5675,-6.25016 1.2282,-3.76312 1.5988,1.04761 3.2034,1.27451 5.2127,0.73714 l 2.9029,-0.77635 -3.6845,-2.27713 c -3.9646,-2.45027 -4.7472,-4.1144 -1.9345,-4.11339 2.599,9.3e-4 12.9374,8.49416 14.8562,12.20478 1.362,2.63375 1.5544,4.94219 1.0508,12.60824 -0.5642,8.58898 -0.4591,9.42533 1.2394,9.86951 2.047,0.53529 3.651,3.10282 5.0567,8.09409 0.663,2.35427 0.4875,4.74358 -0.6233,8.48384 -1.6374,5.51371 -2.4845,18.98294 -1.389,22.08365 0.5708,1.61528 0.8286,1.49089 2.0727,-1 l 1.4208,-2.84474 0.334,3.08708 c 0.1838,1.6979 -0.313,4.96532 -1.1039,7.26094 -1.6682,4.84209 -0.5243,6.39405 1.9403,2.6325 2.2543,-3.44043 4.0499,-1.79691 2.5953,2.37553 -0.5766,1.65417 -0.8262,3.8572 -0.5547,4.89562 0.2716,1.03842 -0.2125,2.47421 -1.0758,3.19063 -2.1234,1.76228 -1.9765,3.0577 0.3467,3.0577 1.1676,0 2.4353,-1.1727 3.2449,-3.00171 0.7307,-1.65094 1.781,-2.84049 2.3338,-2.64345 1.534,0.54681 0.9018,6.54932 -0.8995,8.53976 -1.5876,1.7543 -2.1983,5.1054 -0.9303,5.1054 0.6206,0 6.3248,-5.1594 19.2017,-17.36787 7.7038,-7.30392 21.2772,-27.63 28.469,-42.63213 2.2411,-4.675 4.6236,-8.84097 5.2944,-9.25771 1.9965,-1.24023 3.3798,-6.85724 4.1471,-16.84001 0.5665,-7.36965 1.047,-9.40222 2.2227,-9.40222 1.1019,0 1.4124,0.89442 1.17,3.36984 -0.2596,2.6509 0.314,4.03763 2.6887,6.5 4.0945,4.24575 5.3557,7.93912 5.3446,15.65197 -0.012,8.13198 -4.284,21.33294 -11.4821,35.47819 -6.0652,11.91875 -12.6044,22.67842 -14.4849,23.83345 -1.1208,0.68843 -1.0686,1.27349 0.3001,3.36239 1.2368,1.88764 1.4952,3.70494 1.019,7.16655 -0.4561,3.31574 -0.3455,4.21006 0.388,3.13761 0.5643,-0.825 1.0329,-2.29563 1.0413,-3.26807 0.01,-0.97244 1.8827,-4.79744 4.165,-8.5 2.5588,-4.15117 4.0862,-7.78617 3.9841,-9.48193 -0.091,-1.5125 0.2623,-2.75 0.7852,-2.75 2.7842,0 5.9176,2.19128 7.053,4.93239 1.6253,3.92392 0.8647,8.65805 -2.494,15.52307 -1.4504,2.96458 -2.7532,6.44699 -2.895,7.73868 -0.1418,1.2917 -1.9059,4.64268 -3.9204,7.44663 -2.0144,2.80395 -3.6626,5.50101 -3.6626,5.99347 0,0.49246 -0.9009,2.57621 -2.0019,4.63057 -1.1011,2.05435 -1.7761,3.73519 -1.5,3.73519 2.5993,0 7.5019,2.82205 7.5019,4.31828 0,0.6968 -2.025,1.80852 -4.5,2.47048 -3.4358,0.91893 -4.5,1.67745 -4.5,3.2074 0,1.10211 0.1125,2.00176 0.25,1.99921 0.1375,-0.003 2.95,-1.11687 6.25,-2.47627 7.3155,-3.01353 8.5,-3.08587 8.5,-0.5191 0,1.55556 -0.6667,2 -3,2 -1.8827,0 -3,0.51348 -3,1.37868 0,0.75827 -1.314,1.92295 -2.9199,2.58816 -5.1494,2.13293 -15.3255,14.19474 -22.575,26.75834 l -4.7462,8.22518 7.1555,8.77482 c 8.5163,10.44365 10.6238,14.66419 17.5621,35.17144 4.8155,14.23304 5.33,16.62543 5.8586,27.241 0.5918,11.88493 2.0848,20.25844 4.0592,22.76728 0.6082,0.7727 2.5682,2.01624 4.3557,2.76342 1.7875,0.74719 3.25,1.85497 3.25,2.46173 0,1.03798 -0.6415,0.95463 -6.25,-0.81206 -1.4079,-0.44348 -1.75,0.0525 -1.75,2.53687 0,4.87294 -4.2905,13.39856 -7.7405,15.38124 -3.6343,2.08853 -4.5735,5.76818 -2.6483,10.3757 2.0866,4.99393 1.6457,12.07815 -1.2377,19.8882 -2.8811,7.80361 -3.9646,12.5 -2.8839,12.5 0.3941,0 3.0045,-2.05704 5.8008,-4.5712 2.7964,-2.51416 6.4049,-5.25411 8.019,-6.08878 1.614,-0.83467 6.4583,-4.56249 10.765,-8.28405 6.962,-6.01605 35.5505,-26.05597 37.1709,-26.05597 0.3474,0 4.15,-2.5875 8.4503,-5.75 4.3003,-3.1625 9.1655,-6.46872 10.8116,-7.34716 5.1817,-2.76526 13.7443,-8.04253 20.7798,-12.80681 3.7329,-2.52782 8.2426,-5.49603 10.0216,-6.59603 13.6701,-8.45246 36.5924,-28.51978 45.5543,-39.88063 5.72099,-7.25232 11.90209,-18.11242 13.62739,-23.943 0.8122,-2.74484 1.8112,-4.17937 2.9146,-4.18511 0.9234,-0.005 2.0855,-0.66678 2.5826,-1.47104 1.053,-1.70378 1.226,-1.5668 3.3853,2.68012 2.0262,3.98517 2.1294,13.62492 0.2042,19.08153 -0.7827,2.21833 -3.4424,8.23741 -5.9105,13.37573 -4.7399,9.86789 -8.1217,19.8424 -6.7276,19.8424 0.4571,0 1.5198,-1.05115 2.3616,-2.3359 0.8418,-1.28474 4.9358,-6.34724 9.0978,-11.25 4.1621,-4.90275 8.1437,-9.59518 8.848,-10.42761 0.7044,-0.83243 2.3656,-3.08243 3.6916,-5 1.326,-1.91757 4.2816,-5.73649 6.5679,-8.48649 2.2863,-2.75 6.3307,-8.6 8.9875,-13 2.6568,-4.4 6.8952,-11.1908 9.4186,-15.09067 2.5235,-3.89986 9.8369,-17.62486 16.2522,-30.5 6.4153,-12.87513 16.0381,-32.18433 21.384,-42.90933 9.4085,-18.87518 16.437,-35.64835 16.447,-39.25 0.01,-2.21142 4.2341,-2.37798 6.3614,-0.2506 5.1804,5.18039 1.8549,30.0448 -7.9994,59.80991 -2.5145,7.59511 -4.3502,14.03088 -4.0794,14.30169 0.2708,0.27081 2.197,-2.56838 4.2805,-6.30931 2.0834,-3.74093 4.5407,-8.15169 5.4605,-9.80169 0.9199,-1.65 5.7646,-10.25559 10.7659,-19.12354 11.0917,-19.66654 27.4628,-52.49718 32.6002,-65.37646 2.0843,-5.225 4.3617,-10.175 5.0611,-11 2.2176,-2.61584 18.5541,-43.63819 18.5541,-46.5909 0,-0.35969 -0.5766,-0.17545 -1.2813,0.40942 -0.7048,0.58488 0.2056,-3.38817 2.023,-8.829 1.8174,-5.44082 5.5844,-17.45175 8.3711,-26.69096 2.7867,-9.23921 5.9708,-19.72356 7.0759,-23.29856 3.7387,-12.09564 8.8054,-31.488395 8.7523,-33.499995 -0.032,-1.22513 -0.8181,-0.25655 -2.0282,2.5 -1.421,3.23685 -1.7985,3.6579 -1.3449,1.5 0.3468,-1.65 1.7193,-8.175 3.0499,-14.5 1.3306,-6.325 3.7257,-16.675 5.3223,-23 3.5451,-14.04373 4.2599,-18.42355 4.2599,-26.1002 0,-6.967639 1.3788,-8.8998 6.3511,-8.8998 2.9343,0 3.6722,0.521494 5.3065,3.75 2.3605,4.66302 2.8792,7.34213 3.7015,19.11882 1.1448,16.39657 -2.7256,54.51463 -8.5425,84.131175 -1.5663,7.975 -4.0836,20.8 -5.5939,28.5 -1.5104,7.7 -4.5303,19.85 -6.711,27 -2.1806,7.15 -4.4162,15.25 -4.9679,18 -0.5517,2.75 -2.2611,8.825 -3.7988,13.5 -5.8836,17.88737 -4.4388,17.10843 5.5644,-3 9.7618,-19.62314 14.4906,-30.98362 14.4906,-34.81197 0,-2.3299 2.1695,-4.17941 2.7743,-2.36508 0.2158,0.64738 1.7253,1.17705 3.3545,1.17705 6.7742,0 10.6215,9.64767 9.5707,24 -1.0347,14.133 -16.0017,71.29481 -24.8406,94.87071 -2.8104,7.49611 -6.1211,17.00429 -7.3571,21.12929 -3.0757,10.26462 -8.4708,23.08302 -16.1097,38.27533 -5.179,10.29991 -6.13,12.88803 -4.9079,13.35698 2.4943,0.95717 1.7404,3.16997 -2.3343,6.8512 -2.1608,1.9522 -5.9999,7.53322 -8.75,12.72031 -2.6949,5.08311 -6.5874,11.49209 -8.6499,14.24219 -4.194,5.59219 -4.6581,7.99761 -1.8346,9.50869 1.6215,0.86781 2.524,0.2979 5.8833,-3.71482 5.4028,-6.4539 14.2013,-19.32705 14.2013,-20.77809 0,-0.65015 1.7682,-5.00946 3.9294,-9.68734 2.1612,-4.67789 4.2305,-10.10972 4.5984,-12.07073 0.8257,-4.40144 3.2169,-3.9895 3.6652,0.63139 0.2997,3.08967 0.4306,2.98076 5.5063,-4.5819 2.8596,-4.26074 6.8773,-10.78574 8.9283,-14.5 2.051,-3.71427 6.9836,-11.92821 10.9614,-18.25321 3.9778,-6.325 11.0603,-18.475 15.739,-27 4.6787,-8.525 9.2926,-16.36114 10.253,-17.41365 1.7094,-1.87318 1.7956,-1.85203 4.0777,1 2.2221,2.77703 2.3316,2.80815 2.3363,0.66365 0.01,-2.86962 1.5899,-2.89405 3.1131,-0.048 1.6462,3.07595 0.4117,29.31855 -2.0133,42.79803 -1.0389,5.775 -1.6795,10.71828 -1.4235,10.98506 1.1057,1.15224 5.2315,-5.36851 23.0845,-36.48506 6.3113,-11 13.6214,-23.6 16.2448,-28 6.6148,-11.09468 16.2593,-29.18876 21.5872,-40.5 2.4611,-5.225 5.3782,-11.075 6.4824,-13 8.2842,-14.442 28.387,-57.20189 35.4951,-75.5 0.6554,-1.68712 0.87,-1.45246 1.3719,1.5 l 0.5949,3.5 3.1566,-7.5 c 1.7362,-4.125 5.1626,-12.675 7.6142,-19 5.6931,-14.68757 19.0587,-44.996245 22.7106,-51.499995 4.5521,-8.10699 17.0061,-45.26295 19.9434,-59.5 0.6241,-3.0250001 2.0151,-6.5635951 3.0911,-7.8635451 1.8665,-2.254799 2.0714,-2.288246 4.4542,-0.726947 1.3738,0.900129 2.5579,1.288724 2.6314,0.863545 0.074,-0.425179 0.4479,1.476947 0.832,4.226947 0.9232,6.6102291 -0.3275,19.5849501 -3.3456,34.7070501 -1.3495,6.76112 -3.8673,20.39295 -5.5952,30.29295 -5.6204,32.200975 -8.2372,44.017385 -12.4019,55.999995 -4.7124,13.55877 -11.574,34.18868 -17.1292,51.5 -3.0886,9.625 -5.8507,18.0625 -6.138,18.75 -0.2873,0.6875 -0.1076,1.25 0.3994,1.25 1.6461,0 37.9235,-52.37852 42.2486,-61 2.8437,-5.66852 6.0605,-10.26917 6.7195,-9.61017 0.2777,0.27773 -0.4977,2.12731 -1.7232,4.11017 -1.2255,1.98286 -1.9832,3.85014 -1.6838,4.1495 0.2993,0.29937 1.4278,-1.1868 2.5076,-3.30259 1.0799,-2.1158 2.8897,-4.68461 4.0218,-5.70847 2.0209,-1.82764 2.1057,-1.80943 4.6542,1 2.4016,2.64757 2.5595,3.38502 2.111,9.86156 -0.5905,8.52561 -6.0557,26.0981 -12.5959,40.5 -2.6226,5.775 -6.6863,15.45 -9.0304,21.5 -23.4234,60.45361 -29.6232,74.68845 -38.9809,89.5 -0.5212,0.825 -4.4738,8.7 -8.7836,17.5 -4.3098,8.8 -9.6855,18.925 -11.946,22.5 -2.2605,3.575 -4.4108,8.12824 -4.7786,10.1183 -0.3727,2.01709 -2.0881,5.11481 -3.8763,7 -4.6337,4.88495 -10.6191,12.4501 -10.6191,13.42178 0,2.14833 24.9337,-25.13977 36.298,-39.72548 3.8008,-4.8782 7.5199,-8.69018 8.4846,-8.6963 0.9446,-0.006 2.9307,-0.30791 4.4137,-0.67092 1.9377,-0.4743 3.5556,-0.0482 5.75,1.5144 2.8978,2.06337 3.0537,2.52535 3.0537,9.04672 0,9.12379 -2.6099,16.20451 -15.8205,42.92085 -12.1693,24.61042 -17.0274,32.66142 -31.2558,51.79759 -11.2965,15.19295 -16.5465,21.67723 -25.0971,30.99757 -3.1408,3.42348 -6.5742,8.14848 -7.6299,10.5 -1.8686,4.16226 -19.279,22.04451 -28.9463,29.73082 -2.3373,1.85833 -4.1035,3.52495 -3.9248,3.70361 0.7618,0.76178 28.7767,-15.29978 35.1819,-20.17051 3.8541,-2.93082 10.2679,-8.72456 14.2529,-12.87496 7.6178,-7.93411 10.5998,-10.12689 12.3233,-9.06175 0.5733,0.35431 1.9167,-0.14712 2.9854,-1.11429 2.4908,-2.25414 2.8643,-1.79555 3.6006,4.42141 0.9534,8.05048 -4.1965,21.81966 -13.5175,36.14116 -1.9688,3.025 -4.124,6.49756 -4.7894,7.7168 -1.1688,2.14186 -18.1041,24.66915 -23.1417,30.7832 -8.7967,10.67627 -16.6383,18.22035 -30.7211,29.55538 -8.8,7.083 -17.125,13.82391 -18.5,14.97978 l -2.5,2.10159 3,-0.64676 c 6.2356,-1.34433 32.4194,-15.04344 40,-20.92758 2.2,-1.70767 5.8365,-4.3413 8.081,-5.85252 2.2446,-1.51121 5.3662,-4.08916 6.9371,-5.72878 3.313,-3.45798 4.9383,-3.83452 4.1894,-0.97054 -0.2892,1.10582 -0.037,3.30412 0.5592,4.88513 2.018,5.34619 -3.5703,17.30901 -15.404,32.97554 -6.5349,8.65145 -7.4976,9.85688 -11.768,14.73501 -1.9771,2.25843 -6.5197,7.83003 -10.0947,12.38132 -8.5468,10.88078 -19.1675,23.16933 -25.9975,30.07993 -3.0264,3.06213 -9.3475,9.58713 -14.0469,14.5 -4.6994,4.91288 -12.0934,12.0825 -16.431,15.9325 -4.3377,3.85 -9.0427,8.06246 -10.4556,9.36102 -1.413,1.29856 -4.819,4.22356 -7.569,6.5 -2.75,2.27644 -7.25,6.4149 -10,9.19658 -2.75,2.78168 -7.1622,6.76951 -9.8048,8.86186 -2.6427,2.09234 -4.5839,4.02518 -4.3139,4.29519 0.471,0.47099 11.9688,-2.91075 16.1187,-4.74084 4.834,-2.13177 18.3875,-6.8208 22.5,-7.78419 2.475,-0.57979 5.2837,-1.35633 6.2416,-1.72564 2.6969,-1.03985 3.246,2.04838 0.7992,4.49518 -2.4811,2.48119 -1.9392,4.08854 1.1097,3.29122 2.8254,-0.73886 4.8495,2.05928 4.8495,6.7041 0,2.42277 -1.0971,5.17679 -3.4095,8.55887 -3.8435,5.62123 -20.0106,22.4822 -26.0905,27.2101 -2.2,1.7108 -6.475,5.14415 -9.5,7.62968 -9.9666,8.18921 -19.4528,14.41653 -30.9575,20.32239 -6.2404,3.20346 -11.3903,6.27448 -11.4443,6.82448 -0.054,0.55 1.2518,1.13568 2.9018,1.30151 5.0484,0.50738 17.6659,3.21693 19.4658,4.18019 0.9343,0.50001 2.2718,1.59969 2.9723,2.44374 1.1287,1.35996 1.4708,1.29116 3.0058,-0.60451 1.0043,-1.24025 2.2334,-1.82941 2.9248,-1.40206 2.6383,1.63053 -2.0475,14.62589 -7.3265,20.31903 -1.3982,1.50792 -2.5422,3.06562 -2.5422,3.46158 0,1.45634 -7.7501,8.15046 -17.767,15.34622 -10.362,7.44367 -36.9704,19.28592 -46.733,20.79881 -3.8825,0.60166 -3.831,0.54321 1.75,-1.98946 13.0293,-5.91267 2.5174,-5.68147 -17.75,0.3904 -2.75,0.82387 -7.25,1.78068 -10,2.12625 -5.7036,0.71671 -6.8191,2.99789 -2.0852,4.26394 1.6031,0.42874 3.1781,1.18582 3.5,1.68241 0.3218,0.49659 2.1602,1.70621 4.0852,2.68805 4.7093,2.40196 13.687,9.42734 18.0791,14.14747 6.6807,7.17972 14.0112,21.26854 13.8575,26.63345 l -0.063,2.21298 -0.9044,-2.25 c -1.3641,-3.39389 -3.8753,-2.72359 -5.6194,1.5 -0.8517,2.0625 -2.2752,4.56696 -3.1632,5.56546 -1.5007,1.6873 -11.7691,6.92766 -18.6862,9.53622 -3.7911,1.42969 -15.4938,3.1026 -21.8853,3.12851 -5.9637,0.0242 -27.0661,-4.23332 -36.9034,-7.44543 -3.9662,-1.29506 -7.3125,-2.25643 -7.4363,-2.13639 -0.6964,0.67563 13.2406,16.88746 18.0504,20.99665 4.5455,3.88335 5.646,5.39735 5.4825,7.54295 -0.1216,1.5965 1.0094,4.4831 2.791,7.1232 3.5859,5.3136 4.5119,7.4387 5.0257,11.534 0.3468,2.7634 -0.014,3.2711 -3.3681,4.7361 -2.0661,0.9025 -6.0065,2.1221 -8.7565,2.7102 -2.75,0.5881 -5.9,1.6507 -7,2.3613 -3.0623,1.9782 -17.9297,3.9397 -24.9162,3.2873 -3.4301,-0.3203 -8.6365,-1.5283 -11.5697,-2.6845 -3.34239,-1.3175 -6.98989,-1.9908 -9.77189,-1.8038 l -4.4388,0.2982 2.0938,2.652 c 3.7806,4.7885 15.42549,10.4885 37.60279,18.4057 30.3651,10.8403 46.9424,17.7347 58.447,24.30783 4.7041,2.6878 15.078,8.097 23.053,12.0205 7.975,3.9235 15.7284,7.9167 17.2297,8.8738 1.5013,0.9571 7.6094,4.786 13.5735,8.5087 25.5648,15.957 46.4629,36.9621 49.5244,49.7778 0.3345,1.4004 2.0852,4.225 3.8903,6.2769 3.9292,4.4662 10.7755,7.2266 22.7821,9.1859 4.675,0.7628 12.55,2.1046 17.5,2.9816 4.95,0.8771 11.25,1.9456 14,2.3746 2.75,0.4289 6.9834,1.805 9.4075,3.058 2.4241,1.2529 6.6991,2.9579 9.5,3.7889 5.6532,1.6772 14.1318,5.7333 15.0332,7.1918 0.3202,0.5182 2.0396,1.2576 3.8208,1.6432 1.7812,0.3855 5.7135,1.932 8.7385,3.4367 3.025,1.5046 9.1,3.9113 13.5,5.3481 9.4244,3.0776 35.3896,6.6613 44,6.0728 7.4718,-0.5106 16.2958,-2.2654 16.983,-3.3773 0.2848,-0.4609 4.0885,-2.9312 8.4526,-5.4897 4.3641,-2.5585 9.5869,-6.4807 11.6064,-8.7159 5.4687,-6.0533 10.1495,-16.831 11.9909,-27.6098 1.471,-8.6113 1.4622,-9.8472 -0.1212,-16.9643 -4.8498,-21.7989 -15.5274,-40.5266 -38.4117,-67.3709 -5.225,-6.12923 -10.9458,-12.92613 -12.7129,-15.10433 -1.7671,-2.1782 -5.4655,-6.5056 -8.2186,-9.6164 -10.2016,-11.5273 -19.2991,-22.7572 -21.1896,-26.1562 -2.8696,-5.1594 -6.8112,-11.0267 -11.8477,-17.6358 -5.0069,-6.5704 -11.8412,-21.50901 -12.9746,-28.36029 -0.4098,-2.47713 -1.4872,-6.23922 -2.3942,-8.3602 -0.9071,-2.12097 -2.4105,-10.93541 -3.341,-19.58764 -2.1438,-19.93474 -1.1063,-29.01205 4.6666,-40.83071 6.0337,-12.35257 18.5855,-26.20332 23.762,-26.22105 1.6227,-0.006 1.6187,-2.67005 -0.01,-3.70459 -1.2409,-0.79037 -3.7445,-6.86764 -3.7445,-9.0893 0,-0.63119 0.6274,-0.90688 1.3941,-0.61265 1.0621,0.40754 1.5585,-0.96956 2.0842,-5.78138 1.0558,-9.66382 3.4367,-13.72586 10.7592,-18.35625 3.4444,-2.17806 7.6125,-5.37258 9.2625,-7.09894 2.9017,-3.036 9.0894,-5.60549 16.5,-6.85176 5.3189,-0.89451 29.1652,1.11495 33.1906,2.79687 1.9534,0.81618 6.71,3.78117 10.5702,6.58885 3.8602,2.80768 7.4413,5.10487 7.9579,5.10487 0.5166,0 3.2638,2.475 6.105,5.5 2.8412,3.025 5.8128,5.5 6.6037,5.5 0.7908,0 1.7196,0.8878 2.064,1.9729 0.7413,2.33549 8.4766,9.03689 17.3918,15.06707 11.1865,7.56649 20.9093,6.34404 30.1306,-3.78832 4.1743,-4.58676 4.6608,-6.12268 2.951,-9.31739 -0.8034,-1.50114 -0.7088,-1.93426 0.4225,-1.93426 2.7515,0 3.9433,6.44705 2.5545,13.81878 -2.0343,10.79756 -11.8509,27.59111 -18.133,31.02048 -1.6732,0.91341 -5.5589,3.33317 -8.6348,5.37726 -3.0759,2.04408 -6.8151,3.98502 -8.3093,4.31319 -2.121,0.46585 -3.3765,1.96479 -5.7258,6.83596 -1.7997,3.73151 -5.0277,8.12736 -8.0312,10.9368 l -5.022,4.69753 -8.1074,0 c -7.7482,0 -8.2173,0.13058 -10.5871,2.94696 -5.2349,6.22127 -20.9515,10.87371 -32.784,9.70476 -7.7811,-0.7687 -22.4723,-7.94892 -28.936,-14.14229 -4.5562,-4.36555 -8.7573,-11.4075 -10.0825,-16.90016 -1.1146,-4.61967 0.4213,-13.34485 3.0241,-17.18041 5.5654,-8.20109 -6.5499,-2.17919 -12.8246,6.37445 -4.999,6.81464 -5.6903,8.8655 -6.8453,20.30757 -0.7946,7.87173 -1.6159,11.75754 -2.6594,12.58205 -1.3431,1.06132 -1.3206,2.05421 0.2043,9 0.9427,4.29389 3.6936,11.90173 6.1131,16.90631 2.4195,5.00458 4.3991,9.86443 4.3991,10.79966 0,2.06763 2.4961,7.04413 5.568,11.1011 1.2494,1.65 3.8529,5.80301 5.7856,9.22892 3.6924,6.54525 11.551,16.41305 31.8762,40.02605 28.6324,33.264 36.7702,43.91923 36.7702,48.14523 0,1.3304 2.6066,6.2846 5.7924,11.0094 10.0558,14.9134 15.7573,29.0922 17.327,43.0904 0.5242,4.675 1.2045,10.6264 1.5117,13.2252 0.8878,7.5105 -1.3502,23.8961 -4.7136,34.5101 -1.7019,5.3706 -3.691,11.6442 -4.4202,13.9415 -1.5724,4.9528 -8.1114,14.1 -12.4706,17.4446 -1.7051,1.3082 -4.5462,3.5318 -6.3135,4.9412 -3.8316,3.0559 -18.0675,11.382 -21.9888,12.8607 -1.5266,0.5757 -3.0446,1.7476 -3.3734,2.6043 -0.9826,2.5607 -7.9098,5.4602 -14.5887,6.1063 -4.0147,0.3884 -6.7253,1.191 -7.5524,2.236 -0.9764,1.2338 -3.7722,1.775 -11.5,2.226 -9.3517,0.5458 -10.6169,0.3987 -15.0522,-1.75 -5.9062,-2.8614 -17.8609,-3.5006 -15.6502,-0.8368 0.6888,0.8299 2.9939,2.4878 5.1225,3.6841 6.6805,3.7547 3.9687,5.4283 -3.0192,1.8633 -2.0952,-1.0689 -5.9023,-3.5409 -8.4601,-5.4934 -4.6092,-3.5182 -4.6507,-3.5283 -4.6507,-1.1291 0,1.3912 1.0634,3.2573 2.5,4.3873 2.434,1.9146 3.3396,4.1787 1.6714,4.1787 -1.6496,0 -10.1421,-6.2027 -13.091,-9.5612 -2.6653,-3.0356 -6.0804,-4.6026 -6.0804,-2.79 0,0.3568 2.0777,3.1693 4.6172,6.25 2.9323,3.5572 5.3919,5.6082 6.74,5.6205 2.4675,0.022 3.5343,3.3047 1.4912,4.588 -2.1227,1.3335 -4.9862,0.018 -9.8484,-4.5227 -2.475,-2.3116 -6.75,-5.1584 -9.5,-6.3263 -9.7024,-4.1204 -16.0466,-7.195 -20.25,-9.8137 -5.7434,-3.5781 -5.3661,-1.6334 0.75,3.8655 6.2276,5.5992 6.4663,7.6335 0.4843,4.1278 l -4.5157,-2.6463 -1.0821,3.1042 c -0.5952,1.7073 -1.498,3.1042 -2.0063,3.1042 -1.4747,0 -6.8802,-9.1649 -6.8802,-11.665 0,-2.4061 -3.5534,-9.9409 -5.1549,-10.9307 -0.5213,-0.3222 -0.2726,1.03 0.5525,3.005 1.6462,3.9397 1.2228,4.4621 -1.5689,1.9357 -2.7373,-2.4773 -2.2356,0.2678 2.1301,11.655 1.5871,4.1395 1.9535,6.675 1.4811,10.25 -1.2002,9.0841 -4.8334,6.0803 -17.0612,-14.1056 -3.7833,-6.2456 -7.7224,-12.6835 -8.7537,-14.3064 -1.0312,-1.623 -1.875,-4.1235 -1.875,-5.5568 0,-3.3134 -10.1658,-19.1987 -11.4588,-17.9058 -0.2364,0.2365 0.4867,2.4419 1.6069,4.901 1.1203,2.4591 2.5147,6.6036 3.0989,9.21 0.5841,2.6064 2.3222,6.6008 3.8624,8.8763 6.0634,8.9581 10.0918,22.9647 12.1361,42.1974 2.5575,24.0607 5.9127,40.191 10.3975,49.987 1.5036,3.2844 2.0674,5.7078 1.5301,6.5768 -1.4001,2.2646 -3.8361,-1.0457 -6.4461,-8.76 -2.5211,-7.4513 -3.0091,-7.1411 -3.8859,2.4693 -0.5065,5.5516 -0.2701,6.8584 1.9155,10.5879 2.3209,3.9602 3.2413,7.5789 1.9277,7.5789 -2.1715,0 -4.8959,-2.9524 -7.6477,-8.2877 l -3.2041,-6.2123 -0.6814,5.962 c -0.6608,5.7809 -0.5446,6.1975 3.8268,13.721 2.5424,4.3755 4.2525,8.4258 3.9216,9.288 -0.3894,1.0149 -1.9148,1.529 -4.5363,1.529 -5.596,0 -6.9894,-0.768 -8.6636,-4.7748 -0.8117,-1.9428 -1.7277,-3.2804 -2.0356,-2.9725 -1.7248,1.7248 4.4044,13.7398 11.2606,22.074 1.279,1.5547 2.3254,3.1972 2.3254,3.6499 0,0.4528 -3.91,0.5979 -8.6889,0.3225 l -8.6889,-0.5006 1.5408,2.3507 c 0.8474,1.293 3.4089,3.6191 5.6922,5.1691 5.2102,3.5371 15.1448,13.0971 15.1448,14.5738 0,1.5345 -1.6485,1.3844 -4.3684,-0.3978 -1.8523,-1.2137 -3.3153,-1.3129 -7.5422,-0.5113 -7.1567,1.3573 -7.4617,1.6785 -5.148,5.4222 1.4447,2.3375 1.7023,3.5511 0.9197,4.3337 -1.2853,1.2853 -0.1786,3.5754 1.2894,2.6681 0.5721,-0.3536 0.8916,0.1828 0.7349,1.2337 -0.5219,3.4981 1.2863,9.7935 4.6143,16.0649 3.4801,6.5578 14.9521,20.2944 16.9488,20.2944 0.6365,0 4.9585,1.8508 9.6044,4.113 4.6459,2.2621 11.1471,5.1472 14.4471,6.4114 15.5097,5.9415 23.9837,12.1217 30.3025,22.1003 4.4662,7.0529 11.1861,32.8963 11.2787,43.3753 0.1338,15.1567 8.5607,33.619 24.4195,53.5 8.4313,10.5697 14.7039,16.5434 20.4486,19.4741 4.0605,2.0715 5.9627,4.4473 4.6288,5.7812 -0.368,0.3679 -1.6016,0.087 -2.7415,-0.6253 -1.4159,-0.8842 -2.3972,-0.9694 -3.0978,-0.2688 -0.7007,0.7007 0.4454,1.7401 3.6178,3.2814 7.0232,3.4121 6.0549,6.2912 -1.2584,3.7418 -5.9578,-2.0769 -4.2083,-0.1694 1.9605,2.1376 5.5356,2.0701 8.0661,4.1865 6.6723,5.5803 -0.2838,0.2839 -3.3387,-0.4105 -6.7887,-1.5431 -3.4499,-1.1326 -6.3684,-2.0592 -6.4855,-2.0592 -0.1171,0 0.501,1.575 1.3735,3.5 0.8964,1.9778 2.3157,3.5 3.2632,3.5 0.9223,0 3.1659,0.6261 4.9858,1.3913 2.7736,1.1662 3.8031,1.1761 6.3648,0.061 1.6807,-0.7316 4.2934,-1.5913 5.8059,-1.9104 1.8793,-0.3964 2.75,-1.2073 2.75,-2.5611 0,-1.0941 0.6715,-1.9809 1.5,-1.9809 1.7981,0 1.8233,0.3348 0.3716,4.929 -3.3756,10.6821 -9.6838,19.7816 -16.3887,23.6408 -1.6488,0.949 -1.3208,1.3303 2.9044,3.3756 4.9615,2.4019 11.2022,2.415 15.653,0.033 2.1836,-1.1686 2.6054,-4.9327 0.7597,-6.7784 -0.9333,-0.9333 -0.7041,-1.2 1.0314,-1.2 1.2272,0 2.4795,0.6466 2.7827,1.4369 0.3033,0.7902 1.1892,1.1921 1.9687,0.893 1.8581,-0.7131 1.8285,1.7441 -0.051,4.229 -0.8075,1.0676 -1.4825,3.0511 -1.5,4.4077 -0.04,3.1326 -3.0248,11.0334 -4.1677,11.0334 -0.4752,0 -0.8641,0.4008 -0.8641,0.8906 0,2.5387 18.0988,0.9322 21.5241,-1.9106 0.9371,-0.7777 1.5058,-0.7407 2.046,0.1334 0.4466,0.7227 -0.2012,1.9792 -1.6076,3.118 -1.6929,1.3709 -2.0113,2.1204 -1.1317,2.664 0.6923,0.4279 1.2798,3.1125 1.3525,6.1805 0.1741,7.343 -2.8311,13.5861 -9.2371,19.19 l -5.0882,4.451 0.8568,4.8916 c 0.9728,5.553 0.017,14.7795 -2.2081,21.3196 -1.9531,5.7402 -1.9013,8.5953 0.221,12.1881 1.3521,2.2889 1.4811,3.3199 0.5932,4.7416 -1.4512,2.3237 0.9465,7.7173 3.7574,8.4524 1.057,0.2764 1.9217,1.2685 1.9217,2.2046 0,2.3147 -4.8358,1.1853 -7.275,-1.6991 -0.9763,-1.1545 -2.0975,-1.7765 -2.4917,-1.3824 -0.3941,0.3942 0.041,1.1405 0.9663,1.6585 2.2421,1.2547 3.3163,8.8149 1.8737,13.1862 -0.6222,1.8853 -2.1788,4.4119 -3.4589,5.6146 -2.3645,2.2212 -9.6163,4.0985 -9.6121,2.4882 0,-0.4844 -3.1528,-0.7312 -7.009,-0.5484 -5.609,0.2659 -7.2111,0.706 -8.0109,2.2004 -0.5498,1.0274 -4.3575,4.3952 -8.4615,7.4839 -6.9951,5.2647 -8.3239,5.836 -21.2414,9.1322 -7.5787,1.9339 -15.5795,3.4426 -17.7795,3.3527 -2.2,-0.09 -6.9635,-0.2395 -10.5855,-0.3325 -5.4977,-0.1412 -7.2859,-0.6544 -10.8249,-3.107 -2.568,-1.7796 -4.5055,-2.5393 -4.9145,-1.927 -0.3713,0.5559 -1.407,1.28 -2.3015,1.609 -1.1274,0.4147 -1.4751,1.3895 -1.1334,3.1771 0.7175,3.7536 -2.5804,3.4058 -6.3639,-0.6712 z m 32.2476,-67.7076 c 2.8181,-1.6163 6.7105,-4.4352 8.6497,-6.2641 2.9457,-2.7782 3.6435,-4.2664 4.2405,-9.0445 1.7979,-14.3902 1.3785,-17.3161 -4.4783,-31.2417 -6.0934,-14.4881 -18.5689,-40.2081 -22.6014,-46.596 -3.8838,-6.1524 -21.4344,-41.7041 -21.4344,-43.419 0,-0.2665 -2.7213,-4.4204 -6.0472,-9.2308 -3.8035,-5.501 -8.4437,-10.676 -12.5057,-13.9471 -3.5521,-2.8604 -7.6204,-6.4604 -9.0406,-8 -2.0091,-2.1779 -2.4289,-2.3553 -1.8912,-0.7992 3.8252,11.0708 6.5855,20.2443 7.9446,26.4032 0.8986,4.0718 2.123,8.3468 2.721,9.5 1.9423,3.7455 11.2979,14.8794 20.6683,24.5968 5.0384,5.225 10.5579,11.525 12.2657,14 1.7077,2.475 4.4863,5.4 6.1746,6.5 4.7142,3.0714 4.7426,4.7774 0.065,3.9391 -2.1202,-0.38 -5.5425,-1.2566 -7.605,-1.9481 -3.9409,-1.3211 -4.5429,-0.7335 -2.5379,2.4771 1.8526,2.9665 -0.089,3.8407 -2.2583,1.017 -1.0501,-1.3668 -1.9193,-1.9239 -1.9316,-1.238 -0.039,2.176 6.9428,9.0575 11.3571,11.1945 2.3387,1.1321 5.6851,2.0584 7.4364,2.0584 2.276,0 3.1843,0.4647 3.1843,1.6292 0,1.3999 -0.8441,1.5336 -6,0.9503 -3.8313,-0.4335 -6,-0.3127 -6,0.3342 0,0.5571 3.4544,3.617 7.6765,6.7996 4.2221,3.1827 7.8596,6.3492 8.0834,7.0367 0.8289,2.5472 -2.5323,1.1195 -7.6513,-3.25 -2.8996,-2.475 -5.4288,-4.5 -5.6204,-4.5 -0.7628,0 1.4568,6.0921 2.6926,7.3907 0.7256,0.7624 2.0463,2.2238 2.9351,3.2477 0.8887,1.0239 5.0723,5.2148 9.2969,9.3133 6.1556,5.9716 7.6221,7.9577 7.3842,10 -0.2059,1.7663 -0.9874,2.6464 -2.547,2.8679 -3.0466,0.4326 -2.8288,1.6926 0.75,4.3385 4.7275,3.4952 3.9574,5.0067 -2.1924,4.3036 -3.302,-0.3776 -6.0325,-0.1441 -7.5,0.6413 -2.6387,1.4122 -3.1529,3.1586 -0.6469,2.1969 1.3467,-0.5167 1.5437,-0.1896 1.0419,1.7294 -0.3404,1.3016 -0.1326,2.9525 0.4617,3.6687 0.7812,0.9412 0.7386,1.714 -0.1535,2.789 -0.7078,0.8529 -0.9652,2.5587 -0.6034,4 0.4663,1.8579 0.2347,2.513 -0.8883,2.513 -0.8355,0 -1.5191,-0.75 -1.5191,-1.6667 0,-0.9166 -0.2111,-1.4555 -0.4692,-1.1975 -0.258,0.2581 -0.1991,2.1331 0.1309,4.1667 0.74,4.5604 2.1047,4.6731 8.9622,0.7399 z M 348.50401,797.27753 c -0.3513,-1.39933 -1.0701,-5.78683 -1.5975,-9.75 -1.6673,-12.53047 -3.6693,-20.0129 -7.4124,-27.70405 -1.9988,-4.10714 -3.9736,-7.80687 -4.3883,-8.22162 -1.2747,-1.2747 -7.799,3.89698 -9.5372,7.55997 -2.3798,5.01509 -2.039,9.45183 1.4224,18.51617 4.0442,10.59073 8.5252,16.34521 15.1775,19.49102 6.7058,3.17107 7.1058,3.17792 6.3355,0.10851 z m 390.4492,-18.1478 c 1.3599,-0.93062 2.6975,-1.96502 2.9725,-2.29868 0.275,-0.33366 2.4201,-1.16757 4.7668,-1.85314 8.6626,-2.53067 14.7205,-7.98564 22.5918,-20.34328 7.9782,-12.5256 9.002,-19.58092 4.5433,-31.31153 -1.0455,-2.75073 -1.9011,-5.78883 -1.9014,-6.75133 -8e-4,-2.82278 -2.7395,-2.02896 -7.2728,2.10805 -6.0891,5.55671 -7.9584,6.31288 -13.7174,5.54892 -4.4973,-0.59658 -5.5379,-0.33132 -10.5011,2.6767 -3.0301,1.8364 -5.5092,3.72911 -5.5092,4.20604 0,0.47692 -1.8,2.64923 -4,4.82735 -4.1306,4.0895 -4.9127,6.57237 -2.75,8.73003 0.8223,0.82037 1.4448,6.10684 1.8194,15.45 0.4246,10.59185 1.0032,15.02922 2.2757,17.45291 1.934,3.68378 3.1588,3.96932 6.6824,1.55796 z M 295.85181,410.4108 c 0.7553,-0.91003 0.8166,-1.63004 0.1726,-2.02801 -0.5491,-0.33937 -1.4868,0.29557 -2.0837,1.41097 -1.2345,2.30676 0.1404,2.75067 1.9111,0.61704 z M 1418.8951,147.32177 c 0,-0.55 -0.4362,-0.325 -0.9694,0.5 -0.5332,0.825 -0.9694,1.95 -0.9694,2.5 0,0.55 0.4362,0.325 0.9694,-0.5 0.5332,-0.825 0.9694,-1.95 0.9694,-2.5 z m 2.8375,-5.02646 c -0.3079,-0.30789 -0.8671,0.24711 -1.2426,1.23333 -0.5427,1.4252 -0.4278,1.54006 0.5598,0.5598 0.6834,-0.67834 0.9907,-1.48524 0.6828,-1.79313 z m -65.1402,1424.85979 c -1.2826,-1.2826 -0.6505,-2.1418 1.2165,-1.6536 3.1552,0.8251 7.6216,-2.2551 9.5857,-6.6108 1.7209,-3.8162 3.5311,-5.3691 3.5311,-3.0291 0,2.1097 -4.0422,8.8764 -6.2091,10.3941 -2.2761,1.5942 -6.9158,2.1079 -8.1242,0.8994 z M 1421.0046,1.4051079 c -0.043,-1.05416596 0.193,-1.64479096 0.5253,-1.31249996 0.3323,0.332292 0.3678,1.19479196 0.079,1.91666696 -0.3192,0.797733 -0.5562,0.560776 -0.6042,-0.604167 z"
     id="path2987"
     inkscape:connector-curvature="0" />
</svg>
