<?xml version="1.0" encoding="UTF-8" standalone="no"?>
<!-- Created with Inkscape (http://www.inkscape.org/) -->

<svg
   xmlns:dc="http://purl.org/dc/elements/1.1/"
   xmlns:cc="http://creativecommons.org/ns#"
   xmlns:rdf="http://www.w3.org/1999/02/22-rdf-syntax-ns#"
   xmlns:svg="http://www.w3.org/2000/svg"
   xmlns="http://www.w3.org/2000/svg"
   xmlns:sodipodi="http://sodipodi.sourceforge.net/DTD/sodipodi-0.dtd"
   xmlns:inkscape="http://www.inkscape.org/namespaces/inkscape"
   id="svg2"
   version="1.1"
   inkscape:version="0.48.2 r9819"
   width="974.11151"
   height="1621.5482"
   sodipodi:docname="Screech_owl_(PSF)b.png">
  <metadata
     id="metadata8">
    <rdf:RDF>
      <cc:Work
         rdf:about="">
        <dc:format>image/svg+xml</dc:format>
        <dc:type
           rdf:resource="http://purl.org/dc/dcmitype/StillImage" />
        <dc:title></dc:title>
      </cc:Work>
    </rdf:RDF>
  </metadata>
  <defs
     id="defs6" />
  <sodipodi:namedview
     pagecolor="#ffffff"
     bordercolor="#666666"
     borderopacity="1"
     objecttolerance="10"
     gridtolerance="10"
     guidetolerance="10"
     inkscape:pageopacity="0"
     inkscape:pageshadow="2"
     inkscape:window-width="1600"
     inkscape:window-height="876"
     id="namedview4"
     showgrid="false"
     fit-margin-top="0"
     fit-margin-left="0"
     fit-margin-right="0"
     fit-margin-bottom="0"
     inkscape:zoom="0.25"
     inkscape:cx="474.90574"
     inkscape:cy="1365.602"
     inkscape:window-x="0"
     inkscape:window-y="24"
     inkscape:window-maximized="1"
     inkscape:current-layer="svg2" />
  <path
     style="fill:#000000"
     d="m 846.90574,1620.8799 c -1.1,-0.6312 -3.1938,-2.2547 -4.6528,-3.6077 -3.0589,-2.8367 -7.5218,-3.1953 -15.3478,-1.2332 -3.206,0.8038 -7.0876,0.993 -10.8161,0.5272 -5.0561,-0.6317 -6.4199,-1.3056 -10.4424,-5.1598 -2.5446,-2.4383 -6.9682,-5.7547 -9.8301,-7.3698 -2.8619,-1.6152 -6.1225,-4.2274 -7.2458,-5.8049 -1.9469,-2.7342 -2.3322,-2.8472 -8.2451,-2.4195 l -6.2028,0.4486 -8.1086,-8.4743 c -11.6494,-12.1751 -22.8368,-32.1777 -35.9552,-64.2865 -1.3482,-3.3 -3.6744,-8.8986 -5.1693,-12.4412 -2.62,-6.2091 -7.0569,-22.3612 -9.9487,-36.2177 -1.9165,-9.183 -3.8161,-12.5242 -7.5922,-13.3536 -4.673,-1.0264 -9.5498,-5.9162 -16.4136,-16.4575 -11.7552,-18.0536 -16.529,-28.3237 -16.2829,-35.03 0.1237,-3.3711 -1.5802,-6.3084 -11.0216,-19 -2.3999,-3.2261 -6.5236,-13.4835 -9.2464,-23 -2.3976,-8.3795 -5.9542,-15.9951 -7.4769,-16.0095 -0.5509,-0.01 -3.8111,-1.7919 -7.2449,-3.9703 l -6.2432,-3.9608 -3.5229,2.0786 c -6.7526,3.9841 -12.8236,1.366 -31.7436,-13.6896 -12.6593,-10.0736 -13.3117,-10.4511 -18.1887,-10.5249 -2.7821,-0.042 -5.7334,-0.2043 -6.5584,-0.3604 -0.825,-0.1562 -4.7295,-0.5957 -8.6766,-0.9768 l -7.1766,-0.6929 -2.5734,4.3911 c -2.9654,5.0602 -3.1198,6.4858 -1.1245,10.3845 0.7969,1.557 1.6539,3.5432 1.9044,4.4138 0.5164,1.7939 11.7712,5.9172 16.1516,5.9172 10.1755,0 22.4919,7.4426 22.498,13.5952 0,2.1027 0.8189,3.4516 2.9584,4.885 4.3324,2.9027 10.2062,11.2425 12.2319,17.3671 3.6002,10.8853 4.2905,16.5353 2.9154,23.8617 -2.7087,14.4314 -6.3841,21.3136 -13.2897,24.8847 -1.5864,0.8203 -2.618,1.9223 -2.2926,2.4489 0.3255,0.5266 -0.6723,0.9602 -2.2173,0.9636 -1.5449,0 -4.1147,0.687 -5.7105,1.5193 -6.5392,3.4101 -9.3342,-2.9437 -3.7509,-8.5269 7.6694,-7.6695 8.1573,-8.6549 8.0821,-16.3253 -0.039,-3.9453 -0.4221,-8.0733 -0.852,-9.1733 -0.7568,-1.9362 -0.8046,-1.9282 -1.4973,0.2507 -1.2939,4.0696 -6.6899,7.2493 -12.3021,7.2493 -5.8878,0 -18.5204,-2.6384 -22.6657,-4.7339 -3.7637,-1.9025 -7.5389,-5.9689 -9.2255,-9.9369 -1.0809,-2.5429 -2.4902,-3.5806 -7.1174,-5.2404 -3.1733,-1.1383 -7.861,-3.1989 -10.4171,-4.5792 -5.163,-2.7881 -7.7977,-3.1275 -9.7776,-1.2596 -1.012,0.9548 -1.4288,0.968 -1.7646,0.056 -0.2418,-0.6566 -1.0079,-0.9758 -1.7026,-0.7092 -0.6946,0.2665 -2.5205,0.01 -4.0577,-0.5779 -2.5454,-0.9678 -2.7476,-0.8822 -2.266,0.9591 0.5166,1.9755 -0.6036,2.549 -4.0762,2.0868 -0.7106,-0.095 -2.6576,0.9771 -4.3267,2.3815 -3.6797,3.0963 -7.1421,3.2632 -9.7446,0.4697 l -1.9413,-2.0837 -5.2002,3.5771 c -3.5384,2.434 -5.8957,3.4025 -7.3768,3.0307 -2.2258,-0.5586 -11.6183,3.9475 -11.6183,5.574 0,2.1439 -6.8827,7.9857 -9.4086,7.9857 -2.8412,0 -8.5914,3.6496 -8.5914,5.4529 0,1.7437 -4.0389,8.9399 -5.7793,10.2971 -0.8816,0.6875 -3.2044,1.2561 -5.1618,1.2637 -5.4861,0.021 -7.838,0.9699 -8.4502,3.4093 -0.6165,2.4563 -4.368,4.577 -8.0967,4.577 -1.3167,0 -2.6721,0.45 -3.012,1 -0.3399,0.55 -1.9619,1 -3.6045,1 -5.987,0 -10.4085,-8.221 -8.0541,-14.9749 0.6383,-1.8311 0.6804,-3.0251 0.1066,-3.0251 -0.5214,0 -0.948,0.3452 -0.948,0.7672 0,0.4219 -1.9601,3.0094 -4.3557,5.75 -4.5889,5.2495 -7.6443,13.9716 -7.6443,21.8214 0,3.1152 -0.4352,3.8764 -2.711,4.7416 -4.5125,1.7157 -7.2124,0.3471 -9.4949,-4.8128 -1.7384,-3.9299 -1.9656,-5.8872 -1.4539,-12.5232 0.5323,-6.9024 1.2176,-9.0228 5.5974,-17.3189 2.7449,-5.1994 6.4665,-11.2898 8.2702,-13.5343 2.1212,-2.6395 3.1681,-4.9306 2.9641,-6.487 -0.1748,-1.3336 0.6082,-3.5803 1.7564,-5.04 1.1394,-1.4485 2.0717,-3.392 2.0717,-4.3189 0,-0.9268 1.4899,-3.4536 3.311,-5.6151 1.821,-2.1615 3.8969,-5.3836 4.6131,-7.1603 0.7162,-1.7767 4.9095,-6.5888 9.3184,-10.6937 l 8.0162,-7.4635 -5.3794,0.017 c -5.469,0.017 -10.9746,1.4369 -16.3803,4.2243 -6.4881,3.3457 -13.9479,6.6464 -15.021,6.6464 -0.6212,0 -2.2203,1.1678 -3.5537,2.595 -1.3334,1.4273 -3.6091,3.2116 -5.0571,3.9651 -1.4481,0.7535 -2.9159,2.4978 -3.2618,3.8761 -0.9832,3.9174 -3.7569,4.6818 -18.3332,5.0522 l -13.5922,0.3455 -2.84,-2.84 c -3.1905,-3.1905 -3.8832,-9.0297 -1.4855,-12.5214 0.745,-1.0849 1.5826,-3.21 1.8613,-4.7225 0.4073,-2.2099 0.1351,-2.75 -1.3859,-2.75 -1.041,0 -2.1359,0.6338 -2.4331,1.4084 -0.2973,0.7747 -1.8111,1.9348 -3.3639,2.578 -5.3835,2.2299 -11.9936,12.9025 -13.4949,21.7887 -1.159,6.8598 -7.3857,10.7883 -11.6398,7.3436 -2.1396,-1.7326 -2.3814,-2.7217 -2.3894,-9.7732 -0.01,-4.315 0.3867,-9.1196 0.87,-10.6767 l 0.8788,-2.8313 -5.7388,3.2388 c -5.4033,3.0494 -11.8084,4.2893 -20.9903,4.0632 -1.0843,-0.027 -2.6593,0.5683 -3.5,1.3223 -0.8407,0.754 -2.8785,1.521 -4.5285,1.7045 -2.4284,0.2701 -3.0603,0.8577 -3.3164,3.0837 l -0.3164,2.75 -8.3685,0 c -4.6027,0 -9.4671,0.4177 -10.8098,0.9282 -2.0662,0.7855 -9.0852,1.2337 -17.1889,1.0975 -3.6856,-0.062 -21.374,1.8 -23.7004,2.4948 -1.2648,0.3777 -4.0996,1.5108 -6.2996,2.5179 -8.7712,4.0152 -17.1061,6.3059 -22.5385,6.1943 -4.7533,-0.098 -5.6748,0.1897 -6.5,2.0268 -0.647,1.4405 -2.5969,2.5595 -5.9615,3.4213 -6.5949,1.6891 -10.0205,1.6406 -13.8928,-0.197 -5.3462,-2.5369 -8.4728,-10.2182 -5.4072,-13.2838 1.9344,-1.9344 -0.3976,-1.3236 -4.4424,1.1637 -4.7492,2.9202 -10.7576,8.3616 -10.7576,9.7423 0,0.5816 -1.5155,2.9331 -3.3678,5.2257 -5.7528,7.1202 -5.9151,7.7624 -4.725,18.7017 1.2096,11.1184 0.9019,12.7254 -2.6046,13.6055 -3.8527,0.967 -7.426,-2.4386 -10.6465,-10.1469 -2.3738,-5.6819 -2.8653,-8.3381 -2.9735,-16.0702 -0.124,-8.866 0.03,-9.5688 3.5939,-16.3914 2.0479,-3.9205 3.7235,-7.8036 3.7235,-8.629 0,-0.8254 0.6794,-2.8145 1.5098,-4.4203 1.4694,-2.8415 1.4314,-2.9601 -1.4179,-4.4336 -3.5255,-1.8231 -14.7055,-1.5519 -20.341899,0.4935 -2.8905,1.0489 -4.4949,1.106 -7,0.2492 -1.7875,-0.6114 -5.7919,-1.4035 -8.8987,-1.7602 -6.4951,-0.7458 -9.2809,-2.97 -8.3526,-6.6689 0.4749,-1.892 0,-2.728 -2.3557,-4.1176 -1.6234,-0.9589 -3.578,-1.7435 -4.3436,-1.7435 -0.7656,0 -4.7553,2.208 -8.8659,4.9066 -8.088799,5.3101 -9.773799,7.7357 -11.875199,17.0934 -1.9043,8.4803 -3.1466,10.4537 -6.8052,10.8108 -3.5418,0.3457 -3.2557,0.9709 -5.0607,-11.0596 -1.6913,-11.2725 0.9406,-18.9899 10.9985,-32.2512 5.0258,-6.6265 5.9226,-7.2993 16.809099,-12.6094 6.325,-3.0852 13.3,-6.0102 15.5,-6.5 3.5533,-0.7911 4.0348,-1.2509 4.3116,-4.1164 0.442,-4.5769 4.2233,-7.2742 10.1975,-7.2742 2.6067,0 6.5212,-0.6286 8.698899,-1.397 10.523,-3.7127 54.9248,-6.8372 63.792,-4.4889 13.7293,3.6359 36.6434,4.3102 47.5,1.3978 3.575,-0.959 9.789,-2.1226 13.8089,-2.5858 4.0198,-0.4632 10.9948,-1.9535 15.5,-3.3117 4.5051,-1.3583 11.6786,-3.4677 15.9411,-4.6877 l 7.75,-2.218 0,-4.7215 c 0,-4.3531 0.2925,-4.9128 3.75,-7.1743 2.0625,-1.3491 4.5786,-2.7605 5.5912,-3.1365 1.5482,-0.5749 0.109,-2.553 -9.0439,-12.43 -5.9868,-6.4605 -13.3965,-15.5714 -16.466,-20.2464 -7.3503,-11.1951 -14.5465,-23.854 -15.9707,-28.0944 -0.6291,-1.8731 -1.681,-4.0806 -2.3375,-4.9056 -0.6566,-0.825 -1.788,-3.0002 -2.5144,-4.8337 -0.784,-1.9791 -3.4759,-4.9258 -6.6246,-7.2519 -2.9172,-2.1551 -7.2345,-5.7865 -9.5941,-8.0699 -2.3595,-2.2833 -6.9692,-6.6454 -10.2438,-9.6933 -12.581,-11.7106 -30.0371,-35.4399 -39.8354,-54.1512 -10.6248,-20.2897 -16.3481,-32.1779 -21.1828,-44 -2.272,-5.5555 -4.0008,-7.7351 -11.8981,-15 -13.6275,-12.5362 -24.0205,-27.6023 -37.250599,-54 -3.0385,-6.0626 -11.7073,-30.1526 -14.9339,-41.5 -0.7819,-2.75 -1.427,-7.0515 -1.4335,-9.55887 -0.014,-5.18927 -0.9873,-6.72582 -6.2495,-9.86161 -2.949,-1.7574 -4.5465,-3.95209 -7.5724,-10.40339 -2.1093,-4.49687 -4.4471,-9.75113 -5.195299,-11.67613 -0.7482,-1.925 -2.3459,-4.7041 -3.5505,-6.17577 -2.2271,-2.72089 -7.7334,-18.82774 -11.3923,-33.32423 -1.1106,-4.4 -2.2292,-12.725 -2.4859,-18.5 -0.4403,-9.90563 -1.8663,-20.05883 -3.097,-22.05014 -0.7948,-1.286 -4.4598,-15.47663 -5.6691,-21.94986 -2.3793,-12.73735 -2.477,-17.52228 -0.6559,-32.14257 1.8745,-15.04962 3.0442,-19.85743 4.8312,-19.85743 1.9147,0 1.0353,-2.52112 -1.2252,-3.51287 -3.8639,-1.69518 -11.9348,-21.17209 -13.255,-31.98713 -0.3356,-2.75 -0.173,-16.025 0.3614,-29.5 0.9468,-23.87236 1.0507,-24.70436 4.0576,-32.47719 1.6973,-4.38745 3.086,-8.47369 3.086,-9.08052 0,-0.60683 1.1071,-3.29006 2.4601,-5.96273 l 2.4602,-4.85939 -2.3783,-7.28162 c -1.3086,-4.00654 -4.8235,-11.00504 -7.8149,-15.56008 -5.6713,-8.63575 -6.3736,-10.77161 -9.298,-28.27847 -0.9188,-5.5 -2.8256003,-12.7 -4.2374003,-16 -1.7569,-4.1065 -2.794,-8.84026 -3.2863,-15 -0.3956,-4.95 -0.9463,-10.125 -1.2236,-11.5 -1.8234,-9.0388 -3.22159996,-31.53917 -3.07729996,-49.5184 0.08,-9.97039 0.4899,-13.76339 1.74999996,-16.20034 1.0669,-2.06315 1.6455,-5.6399 1.6455,-10.17258 0,-3.84486 0.4317,-7.25746 0.9594,-7.58357 0.5276,-0.32611 0.923,-2.71516 0.8786,-5.30902 -0.044,-2.59385 0.6851,-8.76609 1.6213,-13.71609 1.833,-9.69198 2.4783,-15.73787 2.9352,-27.5 0.3566003,-9.18115 2.0012003,-20.00243 3.4519003,-22.71306 0.5927,-1.10742 2.0116,-5.11251 3.1531,-8.90021 1.1415,-3.7877 3.636,-11.83673 5.5433,-17.88673 1.9073,-6.05 4.5594,-14.6 5.8935,-19 1.3341,-4.4 3.3138,-10.475 4.3993,-13.5 1.0855,-3.025 3.3928,-10.9 5.1273,-17.5 1.7345,-6.6 4.9053,-17.175 7.0462,-23.5 4.2854,-12.66072 7.9909,-26.02535 7.9909,-28.82118 0,-0.98937 1.5197,-4.92185 3.377199,-8.73884 1.8574,-3.81699 3.9138,-8.73998 4.5697,-10.93998 1.593,-5.3437 3.0439,-8.3623 5.8652,-12.2025 1.5557,-2.1175 2.1327,-3.89594 1.7032,-5.24923 -0.4992,-1.57299 -0.075,-2.2651 1.832,-2.99021 1.3648,-0.51892 2.7983,-1.98177 3.1854,-3.25078 0.3871,-1.269 1.3635,-3.05958 2.1698,-3.97906 1.3104,-1.49448 1.1918,-1.85135 -1.1183,-3.36501 -1.9196,-1.25779 -2.5842,-2.54664 -2.5842,-5.0118 0,-2.87506 0.3675,-3.36186 2.75,-3.64251 2.6756,-0.31518 2.6148,-0.41833 -2.25,-3.8147 -6.1541,-4.29652 -13.1991,-11.4622 -14.1034,-14.34504 -0.8907,-2.83945 -8.513499,-13.48981 -11.916399,-16.64916 -5.7976,-5.38279 -12.1466,-17.31968 -13.8614,-26.06148 -0.371,-1.89119 -2.7371,-9.06352 -5.2581,-15.93852 -4.7074,-12.83762 -4.6505,-12.5069 -6.8818,-40 -0.3794,-4.675 -1.3174,-10.01746 -2.0844,-11.87212 -0.767,-1.85467 -1.3945,-4.14832 -1.3945,-5.09699 0,-0.94868 -0.8377,-2.69074 -1.8615,-3.87124 -1.0811,-1.24652 -2.1473,-4.5598 -2.543,-7.90301 -0.6295,-5.31721 -0.4938,-5.90931 1.7768,-7.75664 1.4949,-1.21623 3.1207,-4.30024 4.1487,-7.86967 0.9298,-3.228313 2.8804,-7.533724 4.3347,-9.567577 C 29.471042,55.980322 32.684442,52 33.614542,52 c 0.5617,0 0.2945,-1.109168 -0.5938,-2.464817 -2.0085,-3.065383 -2.0653,-5.916553 -0.1496,-7.506483 2.0597,-1.70942 8.6912,-0.41165 13.0657,2.55694 1.9936,1.35294 5.0169,2.41436 6.8768,2.41436 1.8255,0 5.742999,0.443862 8.705599,0.98636 4.7116,0.86278 6.0129,1.670125 10.3865,6.443896 3.2864,3.587174 7.2276,6.531091 11.5,8.590064 3.575,1.722889 8.3,4.04396 10.5,5.157936 2.2,1.113975 8.589099,6.728565 14.198099,12.476864 8.0998,8.30107 10.6265,11.59657 12.2804,16.01701 1.1453,3.06104 3.5539,7.42456 5.3525,9.6967 1.7986,2.27215 4.498,6.05384 5.9987,8.40377 1.5007,2.34993 4.853,5.81316 7.4494,7.69607 5.0515,3.6632 8.895,8.06663 11.5902,13.27863 1.6989,3.28532 6.2235,6.99324 7.2639,5.95283 0.3139,-0.31394 -0.1501,-1.60002 -1.0312,-2.85797 -0.8811,-1.25794 -1.602,-3.31204 -1.602,-4.56467 0,-3.8611 4.1429,-2.92746 7.932,1.78755 3.0112,3.74703 3.4021,3.94261 4.9961,2.5 2.7121,-2.45443 3.754,-1.91984 6.6584,3.41663 2.3372,4.29416 3.0376,4.89978 5.0754,4.38833 2.9399,-0.73787 4.606,0.60606 7.374,5.94811 2.6413,5.09766 8.7098,12.68189 10.1474,12.68189 0.5772,0 -0.5779,-1.8013 -2.5669,-4.00288 -6.9695,-7.71433 -3.7566,-11.62545 5.2981,-6.4496 3.0439,1.73992 4.7361,2.20192 5.45,1.48795 1.6816,-1.68156 5.4853,-1.18464 6.5793,0.85952 0.7576,1.41552 0.628,2.21552 -0.5122,3.16173 -1.2202,1.0127 -1.2661,1.42883 -0.2289,2.07503 0.8824,0.54978 1.4704,0.0983 1.8386,-1.41173 0.4774,-1.95775 1.2857,-2.25547 6.8412,-2.5201 3.9555,-0.18842 8.161,0.31808 11.3012,1.36111 2.983,0.99078 8.0917,1.64516 12.6589,1.62146 10.8191,-0.0561 14.5039,1.12166 18.3042,5.85051 2.7109,3.37342 3.7593,3.967 7.0062,3.967 2.1001,0 5.8187,-0.53503 8.2637,-1.18895 3.3278,-0.89007 5.3613,-0.90784 8.0889,-0.0707 2.8921,0.88761 4.5049,0.8091 7.819,-0.38063 2.3755,-0.85275 8.8128,-1.65209 14.9331,-1.85428 5.9167,-0.19547 12.3908,-0.89438 14.3868,-1.55314 5.9808,-1.97382 17.1025,-0.75908 23.1411,2.52753 4.482,2.43939 5.9093,2.73494 10.9854,2.27465 3.2088,-0.29096 8.1851,-1.54038 11.0585,-2.7765 4.2582,-1.83181 6.4224,-2.15131 11.7019,-1.72753 3.5626,0.28598 11.3972,0.15588 17.4102,-0.28909 6.0131,-0.44497 15.7986,-0.45416 21.7456,-0.0204 9.6874,0.70654 11.0875,0.59569 13.4516,-1.06508 1.4514,-1.01954 2.9299,-3.01335 3.2856,-4.43069 0.703,-2.80079 6.3391,-5.85692 8.9521,-4.85419 0.9904,0.38003 2.0502,-0.54335 3.1679,-2.75994 2.5065,-4.9712 7.5249,-9.83106 10.1518,-9.83106 1.3812,0 2.3038,0.60073 2.3038,1.5 0,0.825 0.2727,1.5 0.6061,1.5 1.847,0 9.0447,-7.07004 12.5967,-12.37336 3.4432,-5.14084 4.1326,-7.01161 4.2842,-11.62664 0.2223,-6.76383 7.2268,-23.97443 11.6324,-28.58181 1.6679,-1.74419 2.7042,-3.71433 2.3877,-4.53907 -0.3225,-0.84057 0.9593,-3.13345 3.0291,-5.41819 1.9736,-2.17851 5.5762,-6.99843 8.0059,-10.71093 2.4297,-3.7125 4.8322,-6.75 5.339,-6.75 0.5067,0 1.8742,-1.4625 3.0387,-3.25 9.1301,-14.01383 11.0802,-17.49995 11.0802,-19.8078 0,-1.44772 0.9,-3.44671 2,-4.4422 1.1,-0.99549 2,-2.37523 2,-3.06609 0,-1.88876 5.743,-6.34408 11.4433,-8.87747 2.7812,-1.23604 7.2382,-4.31579 9.9044,-6.84389 2.6662,-2.5281 6.1079,-4.87333 7.6481,-5.21163 1.5403,-0.3383 4.6637,-2.5019 6.941,-4.80801 C 570.43894,1.49389 572.19424,0 573.73154,0 c 0.8559,0 1.8343,0.45 2.1742,1 0.3399,0.55 1.2505,1 2.0235,1 2.2403,0 16.223,8.86229 18.4503,11.69387 1.1144,1.41672 2.0262,3.26723 2.0262,4.11225 0,0.84502 0.6006,2.24683 1.3347,3.11514 2.2763,2.69268 8.6727,23.52189 8.5087,27.707888 -0.09,2.305198 0.7032,5.577932 1.9161,7.902743 1.1386,2.18246 2.8168,6.588137 3.7293,9.790394 1.8118,6.358504 1.1397,11.900395 -2.447,20.177715 -0.9534,2.2 -2.2996,6.025 -2.9917,8.5 -0.6921,2.475 -1.6615,5.53367 -2.1542,6.79705 -0.4928,1.26338 -0.8959,3.09166 -0.8959,4.06285 0,0.97119 -1.125,4.09781 -2.5,6.94804 -1.375,2.85024 -2.5,6.03632 -2.5,7.08017 0,1.04385 -0.675,2.15693 -1.5,2.47352 -0.825,0.31658 -1.5,1.51672 -1.5,2.66698 0,1.15025 -1.575,4.15409 -3.5,6.67518 -1.925,2.5211 -3.5,5.43494 -3.5,6.4752 0,1.04026 -0.6785,2.92687 -1.5077,4.19248 -1.8949,2.89193 -0.9918,8.16526 1.7241,10.06757 1.7229,1.20674 1.7668,1.47098 0.3741,2.25041 -1.5953,0.89273 -1.3619,2.4397 1.4796,9.81055 0.4241,1.1 1.0288,4.025 1.3438,6.5 0.3149,2.475 1.0335,7.60589 1.5968,11.40197 0.8717,5.87401 0.788,7.16295 -0.5615,8.65421 -1.1806,1.30447 -1.3252,2.22391 -0.5659,3.59803 1.3965,2.52751 3.8205,8.36871 4.6046,11.09579 0.3558,1.2375 1.0507,2.25 1.5443,2.25 1.2351,0 3.2596,3.9722 3.5676,7 0.1398,1.375 1.6447,6.325 3.3441,11 1.6993,4.675 2.9876,8.5 2.8627,8.5 -0.1249,0 0.8157,2.15405 2.0902,4.78678 1.2849,2.65428 2.076,5.70921 1.7758,6.85732 -0.7326,2.80146 0.9248,6.8559 2.8027,6.8559 1.5695,0 2.1088,3.07824 0.7747,4.4222 -0.4125,0.41554 -0.75,1.95304 -0.75,3.41666 0,1.7583 -0.7248,2.97943 -2.1363,3.59931 -1.6912,0.74269 -2.0967,1.7139 -1.9462,4.66111 0.1045,2.04761 0.7048,4.34315 1.3339,5.1012 1.6756,2.019 4.6363,14.66661 5.7998,24.77608 0.22,1.91211 2.3761,7.31211 4.7913,12 2.4151,4.68789 5.6115,12.23126 7.103,16.76304 1.4915,4.53177 3.169,8.52212 3.7277,8.86742 1.544,0.95424 6.8268,13.26221 6.8268,15.90516 0,2.02971 0.9933,4.55233 4.1297,10.48782 0.436,0.825 2.8567,5.51085 5.3794,10.413 2.5228,4.90215 5.4341,10.1029 6.4697,11.55723 2.1023,2.95247 6.0162,12.71201 6.0274,15.02977 0,0.825 2.0292,4.63639 4.5005,8.46975 2.4713,3.83337 4.4933,7.49355 4.4933,8.13373 0,0.64019 1.9446,4.0288 4.3213,7.53025 2.3767,3.50145 5.0532,8.16627 5.9479,10.36627 0.8946,2.2 3.395,8.05 5.5564,13 3.5102,8.03922 6.7464,18.03559 9.2635,28.61441 2.1408,8.99702 3.8203,30.71459 3.72,48.10311 -0.073,12.61428 0.2613,19.16234 1.0243,20.08169 0.6226,0.75029 3.3542,2.57357 6.0701,4.05173 6.3019,3.42995 29.0582,20.41554 35.5965,26.56968 9.1271,8.59091 18.9278,15.71949 24.8364,18.06496 3.2099,1.27424 7.5741,3.71126 9.6982,5.41561 2.124,1.70435 6.0196,4.44286 8.6568,6.08559 2.6372,1.64274 6.373,4.73037 8.3018,6.86142 1.9287,2.13105 6.2068,6.639 9.5068,10.01766 3.3,3.37867 8.8921,9.85353 12.427,14.38858 3.5348,4.53506 6.6848,8.24636 7,8.24735 0.3151,9.8e-4 1.8251,1.98367 3.3553,4.40598 1.5303,2.4223 4.3218,5.57837 6.2034,7.01349 1.8815,1.43511 5.5367,5.41492 8.1227,8.84402 2.5861,3.4291 6.3558,8.03472 8.3772,10.23472 2.0215,2.2 5.1898,6.475 7.0406,9.5 1.8509,3.025 5.2588,8.03552 7.5732,11.13449 8.0341,10.75779 14.9791,26.09641 18.0502,39.86551 0.7973,3.575 2.5027,8.075 3.7896,10 2.8985,4.33559 7.1598,17.3425 8.5179,26 0.5609,3.575 1.4907,8.075 2.0663,10 1.877,6.27754 4.0452,20.20859 3.4413,22.11135 -0.3632,1.14408 0.3558,3.11287 1.8708,5.12338 2.0798,2.75983 6.1019,15.71305 8.2814,26.66997 0.2631,1.32259 0.9196,3.22921 1.4589,4.23695 0.8888,1.6608 4.3594,18.17796 5.6435,26.85835 0.2847,1.925 0.95,4.03904 1.4784,4.69787 0.5284,0.65883 1.3427,3.58383 1.8096,6.5 0.4669,2.91617 1.8077,8.45213 2.9796,12.30213 2.0193,6.63437 3.1715,14.46009 4.6376,31.5 0.3549,4.125 1.113,8.4 1.6846,9.5 0.5716,1.1 1.1479,3.35 1.2807,5 0.1327,1.65 0.6681,7.05 1.1896,12 1.2487,11.852 0.1784,27.38926 -2.1293,30.9113 -0.9697,1.4799 -3.0497,2.9186 -4.6955,3.2478 -1.8148,0.3629 -2.9566,1.2178 -2.9597,2.2159 0,0.8937 -1.0819,3.4039 -2.398,5.5782 -1.9338,3.1949 -2.202,4.4418 -1.3982,6.5 0.5471,1.4008 1.3651,4.7968 1.8179,7.5468 0.4528,2.75 1.7592,7.6574 2.9033,10.9052 1.1441,3.2479 2.0867,7.5229 2.0947,9.5 0.01,1.9772 0.6821,5.5113 1.4981,7.8536 1.196,3.4334 1.3671,7.7507 0.8829,22.274 -0.3817,11.4467 -0.2359,18.4622 0.3998,19.2412 1.6962,2.0785 4.2046,11.8584 4.2046,16.3932 0,4.3835 0.2949,5.9988 3.9853,21.8328 1.1537,4.95 2.2775,10.575 2.4974,12.5 1.2463,10.9134 7.0485,31.0922 11.6452,40.5 2.6874,5.5 4.8832,10.675 4.8796,11.5 0,0.825 0.8933,3.8673 1.993,6.7607 1.0997,2.8934 1.9995,6.4105 1.9995,7.8158 0,1.4052 0.5096,3.5072 1.1324,4.671 1.9073,3.5638 3.7944,12.9419 3.832,19.043 0.025,4.0265 0.6144,6.6159 1.9356,8.5 3.5446,5.055 4.6451,40.1702 1.677,53.5092 -1.4076,6.3259 -2.3643,8.398 -5.0633,10.9661 l -3.3278,3.1664 2.4383,2.8977 c 1.5265,1.8142 2.2184,3.5907 1.8502,4.7507 -0.5872,1.8501 0.1075,2.2145 6.0256,3.1616 1.8266,0.2923 1.9727,0.9674 1.6855,7.7889 -0.173,4.1079 -0.7969,9.2689 -1.3865,11.4689 -0.5897,2.2 -1.1582,6.25 -1.2635,9 -0.1052,2.75 -0.8821,6.35 -1.7262,8 -1.8185,3.5543 -1.3988,5.4669 1.0585,4.8243 2.6216,-0.6855 4.4969,2.1192 3.6191,5.4127 -0.405,1.5197 -0.8231,5.0583 -0.9291,7.8636 -0.2513,6.6514 -4.019,13.1663 -9.3459,16.1601 -2.1913,1.2316 -4.6895,2.2393 -5.5515,2.2393 -1.3927,0 -1.3775,0.3322 0.1361,2.9808 1.8785,3.2871 0.9418,6.2334 -2.1768,6.847 -1.6884,0.3322 -17.8936,-10.0705 -19.983,-12.8278 -0.6252,-0.825 -3.8309,-3.75 -7.1239,-6.5 -3.293,-2.75 -6.9672,-6.125 -8.165,-7.5 -3.6348,-4.1729 -3.6338,-4.212 -0.4765,17.5451 0.5623,3.8748 1.4963,8.2916 2.0756,9.8151 0.5792,1.5235 1.0531,3.7706 1.0531,4.9935 0,1.2229 0.9,3.9887 2,6.1463 1.1,2.1576 2.016,5.2902 2.0356,6.9614 0.02,1.6712 0.7355,5.7386 1.5908,9.0386 0.8554,3.3 1.7836,7.35 2.0628,9 0.2792,1.65 1.886,7.725 3.5706,13.5 1.9128,6.5574 3.1833,13.4059 3.3835,18.2391 0.1764,4.2564 0.9348,9.2087 1.6854,11.0051 0.7505,1.7963 1.6915,6.5835 2.091,10.638 0.3996,4.0546 1.1757,8.5523 1.7249,9.9949 0.5491,1.4426 1.4123,7.7979 1.9182,14.1229 0.5059,6.325 1.3413,13.525 1.8564,16 2.046,9.8305 4.0912,25.8185 4.0296,31.5 -0.072,6.6246 -2.2696,26.1857 -3.8199,34 -2.4878,12.5393 -7.4735,20.3882 -14.205,22.3628 -2.4332,0.7137 -6.4489,2.3273 -8.9239,3.5857 -2.475,1.2585 -5.7826,2.5923 -7.3503,2.964 -1.5677,0.3718 -4.1821,1.6606 -5.8099,2.864 -1.8894,1.397 -5.1977,2.4342 -9.1496,2.8688 -3.4046,0.3744 -8.2874,1.2365 -10.8507,1.9157 -3.8612,1.0232 -5.4256,0.9831 -9.1215,-0.2336 -4.0527,-1.3342 -4.5558,-1.3167 -5.4976,0.1912 -2.0112,3.2205 -25.7992,7.1114 -29.7204,4.8613 z"
     id="path2987"
     inkscape:connector-curvature="0" />
</svg>
