<?xml version="1.0" encoding="UTF-8" standalone="no"?>
<!-- Created with Inkscape (http://www.inkscape.org/) -->

<svg
   xmlns:dc="http://purl.org/dc/elements/1.1/"
   xmlns:cc="http://creativecommons.org/ns#"
   xmlns:rdf="http://www.w3.org/1999/02/22-rdf-syntax-ns#"
   xmlns:svg="http://www.w3.org/2000/svg"
   xmlns="http://www.w3.org/2000/svg"
   xmlns:sodipodi="http://sodipodi.sourceforge.net/DTD/sodipodi-0.dtd"
   xmlns:inkscape="http://www.inkscape.org/namespaces/inkscape"
   id="svg2"
   version="1.1"
   inkscape:version="0.48.2 r9819"
   width="1150.1912"
   height="586.54175"
   sodipodi:docname="Beaver_2_(PSF)c.png">
  <metadata
     id="metadata8">
    <rdf:RDF>
      <cc:Work
         rdf:about="">
        <dc:format>image/svg+xml</dc:format>
        <dc:type
           rdf:resource="http://purl.org/dc/dcmitype/StillImage" />
        <dc:title></dc:title>
      </cc:Work>
    </rdf:RDF>
  </metadata>
  <defs
     id="defs6" />
  <sodipodi:namedview
     pagecolor="#ffffff"
     bordercolor="#666666"
     borderopacity="1"
     objecttolerance="10"
     gridtolerance="10"
     guidetolerance="10"
     inkscape:pageopacity="0"
     inkscape:pageshadow="2"
     inkscape:window-width="1920"
     inkscape:window-height="1176"
     id="namedview4"
     showgrid="false"
     fit-margin-top="0"
     fit-margin-left="0"
     fit-margin-right="0"
     fit-margin-bottom="0"
     inkscape:zoom="1"
     inkscape:cx="634.67162"
     inkscape:cy="317.84342"
     inkscape:window-x="0"
     inkscape:window-y="24"
     inkscape:window-maximized="1"
     inkscape:current-layer="svg2" />
  <path
     style="fill:#000000"
     d="m 42.671624,585.98511 c -0.825,-0.30543 -2.07394,-1.0095 -2.77543,-1.5646 -0.70149,-0.5551 -3.85149,-1.11357 -7,-1.24104 -6.09829,-0.2469 -8.52987,-1.34623 -20.49276,-9.2649 -4.06596,-2.6914 -8.01038,-6.32066 -9.87944,-9.09009 -3.10023996,-4.59369 -3.10486996,-4.62061 -1.30905,-7.61807 0.99121,-1.65444 3.06632,-5.38182 4.61137,-8.28305 1.54505,-2.90124 6.75481,-10.4679 11.57724,-16.8148 4.82244,-6.3469 10.56807,-14.14091 12.76807,-17.32003 11.16929,-16.14023 21.08879,-26.69079 28.66795,-30.49173 3.11737,-1.56337 8.00602,-5.03758 10.86366,-7.72047 2.85765,-2.6829 5.54557,-4.878 5.97317,-4.878 0.4276,0 2.95287,-1.79766 5.61172,-3.99481 2.65885,-2.19714 7.27858,-5.23151 10.26606,-6.74304 2.98749,-1.51153 5.62758,-3.49691 5.86687,-4.41196 0.51833,-1.98212 5.523686,-6.09454 13.750566,-11.29752 3.3,-2.08705 7.46315,-5.24083 9.25144,-7.00842 1.7883,-1.76759 5.6133,-4.78006 8.5,-6.69437 5.86906,-3.89204 20.62588,-13.78547 31.24856,-20.94999 3.85,-2.59665 9.61923,-7.01625 12.82052,-9.82132 3.20128,-2.80508 7.25128,-5.82632 9,-6.71388 1.74871,-0.88756 5.05521,-3.13271 7.34778,-4.98922 2.29256,-1.85651 4.70413,-3.37547 5.35905,-3.37547 0.65492,0 2.15418,-0.84703 3.3317,-1.88229 1.17752,-1.03526 4.61595,-4.08683 7.64095,-6.78125 9.49096,-8.45378 16.39116,-13.98474 19.5,-15.63051 1.65,-0.87349 6.00285,-4.47715 9.67299,-8.00814 3.67015,-3.53098 9.07015,-7.80675 12,-9.5017 6.47532,-3.74604 13.57821,-9.75493 12.64729,-10.69933 -0.37385,-0.37926 -2.62385,0.64223 -5,2.26998 -5.56735,3.81383 -12.31821,7.23324 -14.28044,7.23324 -2.09136,0 -1.95232,-2.66979 0.20183,-3.87531 2.59998,-1.45502 0.9435,-2.33569 -2.16808,-1.15267 -3.35582,1.27588 -7.26961,1.32885 -8.02376,0.1086 -1.03042,-1.66725 2.39935,-3.95045 6.96212,-4.63468 3.2962,-0.4943 4.48805,-1.12509 4.48805,-2.37534 0,-0.94324 1.77461,-2.6997 3.97975,-3.93906 2.18886,-1.23021 4.34202,-2.88409 4.7848,-3.67529 0.84397,-1.5081 19.83322,-14.45625 21.20096,-14.45625 0.43428,0 1.35883,-0.68587 2.05455,-1.52417 2.78478,-3.35546 -0.54731,-2.62647 -9.49149,2.07652 -7.53742,3.9633 -9.66006,4.69896 -10.66902,3.69765 -1.83085,-1.81697 -0.8141,-2.56765 15.33052,-11.31876 16.28564,-8.82755 31.32625,-19.93124 26.99804,-19.93124 -0.44653,0 -7.28119,4.275 -15.18811,9.5 -7.90692,5.225 -15.39002,9.5 -16.6291,9.5 -1.23907,0 -2.53552,0.45734 -2.88098,1.01631 -0.34546,0.55897 -1.04702,0.75742 -1.55902,0.44098 -2.21167,-1.36688 -0.51796,-3.60347 5.3191,-7.02399 3.4375,-2.01438 7.825,-4.89928 9.75,-6.41089 1.925,-1.51161 5.075,-3.54361 7,-4.51555 1.925,-0.97195 6.27787,-4.0711 9.67304,-6.88702 9.87988,-8.19425 13.64878,-11.05168 16.49748,-12.50774 3.36994,-1.72248 10.6602,-9.1121 8.98959,-9.1121 -0.68519,0 -3.41068,2.025 -6.05666,4.5 -2.64597,2.475 -5.49324,4.5 -6.32727,4.5 -1.38274,0 -17.50828,10.28431 -23.43341,14.94501 -2.29615,1.80616 -5.34277,1.84477 -5.34277,0.0677 0,-0.42532 3.0375,-3.11593 6.75,-5.97914 3.7125,-2.86322 7.07542,-6.07364 7.47316,-7.13427 0.39773,-1.06062 1.96219,-2.39949 3.47657,-2.97526 1.51438,-0.57576 6.81396,-4.32872 11.77684,-8.33991 4.96289,-4.01118 11.94843,-9.42606 15.52343,-12.03305 5.8958,-4.29939 9.11167,-7.5511 7.46788,-7.5511 -0.9197,0 -29.38814,19.06196 -30.03742,20.11252 -0.30167,0.48811 -1.19589,0.88748 -1.98716,0.88748 -0.79127,0 -3.63096,1.575 -6.31042,3.5 -2.67945,1.925 -5.6055,3.5 -6.50231,3.5 -3.60439,0 -1.23092,-3.25682 6.00563,-8.24079 14.07459,-9.69346 23.78795,-17.14428 37.71053,-28.92657 5.15053,-4.35874 2.26258,-4.34585 -3.6422,0.0163 -12.75297,9.42116 -22.88503,16.15108 -24.31585,16.15108 -3.32085,0 -0.56289,-3.61625 6.61454,-8.673 4.12323,-2.90497 11.48985,-9.00443 16.37026,-13.55438 4.88042,-4.54994 13.50108,-11.73539 19.15702,-15.96767 5.65595,-4.23227 10.59544,-8.19971 10.97666,-8.81653 1.31114,-2.12147 -0.51803,-2.32696 -2.7611,-0.31017 -3.1028,2.78977 -22.32139,16.32175 -23.18073,16.32175 -0.38433,0 -2.17372,1.125 -3.97644,2.5 -1.80272,1.375 -4.0227,2.5 -4.93328,2.5 -3.92648,0 -0.83509,-3.37776 11.42716,-12.48571 7.19552,-5.34456 14.24491,-11.02169 15.6653,-12.61584 1.42039,-1.59415 2.97397,-2.89845 3.4524,-2.89845 1.38525,0 20.95918,-16.17368 20.33244,-16.80042 -0.3111,-0.3111 -1.79578,0.41232 -3.29928,1.60762 -1.50349,1.19529 -4.75863,3.36916 -7.23363,4.83083 -2.475,1.46166 -8.22521,5.17856 -12.77825,8.25977 -13.32249,9.01582 -17.22175,10.74551 -17.22175,7.63946 0,-0.80451 2.5875,-3.22158 5.75,-5.37128 3.1625,-2.14969 8.76009,-6.89146 12.43909,-10.53726 3.77059,-3.73656 7.56253,-6.62872 8.69098,-6.62872 1.10104,0 2.25221,-0.40502 2.55816,-0.90005 0.30594,-0.49503 -0.905,-0.83253 -2.69098,-0.75 -2.05353,0.0949 -5.88731,1.93343 -10.42889,5.00131 -6.88584,4.65144 -9.31836,5.19849 -9.31836,2.09562 0,-1.32765 8.08913,-6.97178 23.93919,-16.70338 3.54155,-2.17444 9.39155,-6.60302 13,-9.8413 3.60844,-3.23827 9.00194,-7.57851 11.98554,-9.64498 2.9836,-2.06647 5.60795,-4.31777 5.83189,-5.00289 0.67165,-2.05484 -13.50512,6.46029 -25.25662,15.17013 -6.05,4.48407 -12.125,8.69109 -13.5,9.34894 -1.375,0.65785 -3.44761,1.88975 -4.60579,2.73756 -1.81582,1.32922 -2.2685,1.34544 -3.28736,0.11779 -1.24421,-1.49918 -1.62024,-1.15374 14.39315,-13.22233 3.3,-2.48707 10.5,-8.88345 16,-14.21418 5.5,-5.33073 12.38051,-11.66173 15.29003,-14.06887 9.27244,-7.67143 4.70274,-5.6899 -7.48787,3.2469 -11.16538,8.18523 -15.32746,10.19512 -15.28196,7.37973 0.0301,-1.86136 10.53487,-12.86123 18.20542,-19.06342 3.69908,-2.99099 12.31361,-9.20655 19.14338,-13.812368 6.82977,-4.60581 12.25288,-8.54957 12.05136,-8.76389 -0.72068,-0.76649 -22.91327,12.263458 -30.62188,17.979038 -4.75296,3.52412 -8.45457,5.5961 -9.36991,5.24485 -0.83221,-0.31934 -1.36159,-1.08768 -1.1764,-1.70742 0.36612,-1.22526 21.75834,-17.430688 28.86193,-21.864008 2.41225,-1.50548 6.4109,-4.3093 8.8859,-6.23072 2.475,-1.92143 6.075,-4.38229 8,-5.46858 9.50935,-5.36622 -5.30826,0.17143 -17.83505,6.66533 -6.29326,3.26244 -8.16495,3.43536 -8.16495,0.75433 0,-2.68439 20.38252,-12.59854 39.5,-19.21297 5.5,-1.90294 10.225,-3.70482 10.5,-4.00419 1.94923,-2.12193 -17.30128,3.38684 -29.2946,8.38301 -5.50137,2.29176 -7.7054,2.3794 -7.7054,0.30639 0,-1.1031 9.84343,-6.15363 15.5,-7.95283 2.2,-0.69976 5.8,-2.30699 8,-3.57162 3.77995,-2.17284 15.9272,-7.40579 27,-11.63142 l 5,-1.90811 -4.5,0.59215 c -4.53818,0.59718 -14.04303,3.26155 -23.78751,6.66804 -11.20268,3.91624 -13.62847,0.91631 -2.88624,-3.56936 12.38177,-5.17031 22.05649,-7.42364 39.03251,-9.09104 3.77232,-0.37052 6.47232,-1.04161 6,-1.49131 -0.47232,-0.4497 -3.33376,-0.45116 -6.35876,-0.003 -3.025,0.44792 -9.69914,1.10085 -14.83143,1.45096 -8.56292,0.58413 -9.30348,0.49144 -8.99209,-1.12546 0.37641,-1.95456 -0.13445,-1.83443 24.79545,-5.8307 18.20497,-2.91826 24.33398,-4.98273 12.02807,-4.05148 -4.125,0.31216 -10.69072,1.09156 -14.59049,1.732 -3.89977,0.64044 -7.94977,0.83032 -9,0.42195 -1.83031,-0.7117 -1.81688,-0.81809 0.32388,-2.56504 1.43615,-1.17197 4.82728,-2.08016 9.5,-2.54423 3.99663,-0.39692 9.9711,-1.55306 13.27659,-2.5692 8.88427,-2.73112 32.25679,-5.07316 42.98956,-4.30777 7.53324,0.53722 8.79267,0.42187 7.72581,-0.70756 -0.97087,-1.02782 -6.04815,-1.40893 -21.304,-1.59912 -11.01614,-0.13734 -20.43539,-0.50065 -20.93167,-0.80737 -5.73756,-3.54601 18.12523,-5.48423 55.22491,-4.48556 8.09302,0.21786 14.96149,0.14919 15.26327,-0.15258 0.99426,-0.99451 -15.79096,-2.8582995 -25.72786,-2.8569995 -9.08376,10e-4 -9.75,-0.13538 -9.75,-1.99872 0,-2.10092 -0.20398,-2.05324 10.5,-2.4542 6.57248,-0.2462 27.40957,2.14484 35,4.01622 3.3,0.8135895 9.375,1.9274195 13.5,2.4751595 4.125,0.54774 9.3,1.23486 11.5,1.52693 2.70356,0.35892 3.51384,0.22786 2.5,-0.40438 -2.61194,-1.62885 -33.83498,-7.9666895 -41.49168,-8.4222395 -2.90865,-0.17305 -4.08269,-0.7176 -4.32708,-2.007 -0.30641,-1.61655004 0.41684,-1.72125004 8.36701,-1.21122 4.78633,0.30705 14.15852,1.62513 20.82709,2.92905 17.62953,3.44714 18.7811,3.61381 18.17325,2.63031 -0.30295,-0.49019 -2.91282,-1.18956 -5.79971,-1.55414 -9.49669,-1.19934 -13.71824,-3.18932 -10.70996,-5.04855004 1.60747,-0.99346 20.91804,2.48844004 25.96108,4.68107004 2.475,1.07608 7.50587,2.33487 11.17972,2.7973 3.67384,0.46243 7.16753,1.14227 7.76376,1.51076 1.16606,0.72066 14.53021,4.5449895 15.79386,4.5196195 1.62576,-0.0326 -2.43423,-2.03924 -6.23734,-3.08273 -2.2,-0.6036295 -4.5625,-1.5586095 -5.25,-2.1221795 -2.14991,-1.76236 -1.37388,-3.0317 1.5,-2.45353 1.5125,0.30429 5.15273,1.05806 8.08939,1.67505 2.93667,0.61698 10.8948,3.8067795 17.68474,7.0884295 11.31613,5.46922 21.39276,9.32672 22.21515,8.50433 0.18293,-0.18293 -2.27108,-1.37811 -5.45334,-2.65596 -3.18227,-1.27785 -7.81094,-3.55022 -10.28594,-5.04971 -2.475,-1.49949 -6.4125,-3.48667 -8.75,-4.41595 -4.32382,-1.7189495 -5.78424,-4.4724395 -2.37212,-4.4724395 2.22178,0 7.86784,2.1828 14.12212,5.4596895 2.475,1.29676 6.525,2.88771 9,3.53544 2.475,0.64773 9.6152,3.63611 15.8671,6.64084 6.25191,3.00474 11.58193,5.24834 11.84448,4.98578 0.51058,-0.51058 -6.20586,-4.97857 -10.26222,-6.82678 -2.51395,-1.14543 -3.21534,-3.20353 -1.46121,-4.28765 1.46844,-0.90754 13.99029,6.86218 18.49649,11.47695 2.15669,2.20865 4.3167,4.01573 4.80001,4.01573 0.48332,0 2.75449,1.50539 5.04705,3.34532 2.29257,1.83993 5.05771,3.66491 6.14477,4.05552 1.71011,0.61449 1.64273,0.35407 -0.5,-1.93236 -1.36206,-1.45341 -3.71397,-3.37542 -5.22647,-4.27113 -3.12655,-1.85156 -3.64706,-4.19735 -0.93135,-4.19735 2.21719,0 16.01765,11.25635 29.06274,23.70505 6.36978,6.07856 10.07495,8.93997 10.90882,8.4246 1.46048,-0.90262 -0.44539,-3.09545 -8.63498,-9.93513 -5.13552,-4.28902 -6.57929,-7.19452 -3.57503,-7.19452 1.82981,0 8.18522,5.04745 16.68353,13.25 5.5003,5.30889 7.73627,6.77677 7.73627,5.07874 0,-0.36919 -0.75437,-1.50482 -1.67637,-2.52363 -1.24963,-1.38083 -1.3877,-2.14104 -0.54238,-2.98636 1.58542,-1.58542 3.47548,0.1756 7.92432,7.38329 3.30958,5.36195 12.17223,13.79796 14.49573,13.79796 0.517,0 -1.7918,-2.59949 -5.1306,-5.77664 -5.82652,-5.54429 -7.67533,-9.22336 -4.63498,-9.22336 0.78968,0 3.84418,2.3625 6.78798,5.25 6.1651,6.04741 16.9829,14.56112 19.5348,15.37409 0.9578,0.30514 -0.178,-1.17295 -2.524,-3.28464 -4.0281,-3.62578 -5.4252,-6.33945 -3.2637,-6.33945 1.3307,0 10.0292,6.20075 10.0292,7.1494 0,0.95101 12.6174,11.12253 15.9522,12.85987 1.7954,0.93535 2.5543,0.97128 2.8333,0.13413 0.6019,-1.8056 1.5934,-1.4299 8.8716,3.36152 6.6725,4.392718 9.8183,5.801308 19.6157,8.783278 4.2893,1.3055 4.8632,1.29112 5.6653,-0.14198 0.7938,-1.41855 1.5367,-1.4472 6.7271,-0.25948 5.7879,1.32444 31.063,2.49313 26.4089,1.22111 -1.3342,-0.36466 -2.6329,-1.2842 -2.8859,-2.04341 -0.3769,-1.13047 1.0582,-1.27531 7.9258,-0.79998 8.3825,0.58017 11.5581,0.11704 12.0987,-1.76446 0.176,-0.61272 4.1482,-0.85799 10.2566,-0.63331 9.1953,0.33822 9.8624,0.23788 8.5924,-1.29238 -2.1077,-2.539538 -0.1623,-3.541058 4.9383,-2.542438 2.475,0.48457 6.0176,0.90063 7.8724,0.92458 2.9102,0.0376 3.1991,-0.16538 2.1075,-1.48062 -2.0036,-2.4143 -0.551,-2.7806 6.2975,-1.58798 8.6174,1.50066 9.2661,1.4719 7.759,-0.34405 -2.0279,-2.44337 -0.3924,-3.28666 4.678,-2.41217 11.0346,1.90314 14.0216,2.10451 14.7094,0.99165 0.8345,-1.3503 6.8809,-1.46986 11.2316,-0.2221 1.92,0.55063 3.50838,0.53504 4.08348,-0.0401 1.2293,-1.22934 9.182,0.54775 14.428,3.22404 2.5222,1.28672 4.9792,1.82761 6.6641,1.46704 1.833,-0.39224 4.5483,0.37031 8.669,2.434578 3.3,1.65315 6.7663,3.00741 7.7029,3.00948 2.3183,0.005 6.2985,1.83013 12.4991,5.73108 2.861,1.79997 5.8111,3.27268 6.5557,3.27268 0.7446,0 2.8786,1.125 4.7423,2.5 1.8637,1.375 4.0596,2.5 4.8798,2.5 0.8202,0 2.4203,0.8247 3.5557,1.83268 1.1355,1.00797 8.8145,4.8838 17.0645,8.61295 8.25,3.72915 16.125,7.80779 17.5,9.06364 1.375,1.25586 4.975,3.31621 8,4.57856 3.025,1.26236 7.075,3.33361 9,4.60278 16.6365,10.96867 26.598,19.54935 27.4103,23.61093 0.6641,3.32056 -1.7449,8.93051 -6.0131,14.00301 -1.3188,1.56728 -2.6865,4.05241 -3.0394,5.52252 -1.7861,7.44097 -7.5638,13.91364 -14.7128,16.48272 -2.925,1.05111 -16.645,15.2342 -16.645,17.20676 0,2.10447 -4.7875,6.77893 -9.2977,9.07818 -4.4108,2.24859 -7.9283,2.93271 -23.1202,4.49658 -9.8548,1.01447 -18.2488,2.19644 -18.6531,2.62659 -0.4044,0.43016 -1.4723,3.70308 -2.3732,7.27317 -1.8385,7.28589 -2.9616,9.00309 -4.7311,7.23358 -0.8916,-0.89156 -0.8995,-2.07444 -0.032,-4.89914 0.6285,-2.04809 0.9352,-3.93143 0.6815,-4.18519 -1.2038,-1.20376 -4.633,3.73925 -6.0785,8.76183 -2.192,7.61628 -2.7489,8.54598 -5.3492,8.93075 -2.1193,0.31359 -2.2118,0.0815 -1.5944,-4 0.3605,-2.38309 0.8921,-5.5704 1.1814,-7.0829 1.0329,-5.40117 -1.6239,-2.64716 -5.6043,5.80913 -2.2158,4.70752 -4.0287,8.98252 -4.0287,9.5 0,0.51748 -0.9589,0.94087 -2.1308,0.94087 -1.8888,0 -2.0592,-0.39766 -1.5,-3.5 0.3469,-1.925 0.9147,-5.075 1.2616,-7 0.347,-1.925 0.2319,-3.5 -0.2558,-3.5 -1.3471,0 -5.7072,9.85657 -6.8566,15.5 -1.3401,6.57927 -3.7937,6.84798 -4.5656,0.5 l -0.5473,-4.5 -0.6992,5.5 c -0.3846,3.025 -0.8133,6.84615 -0.9527,8.49145 -0.2699,3.18322 -3.0815,4.70242 -4.0469,2.18661 -0.2997,-0.78106 -0.1118,-4.90865 0.4175,-9.17242 0.5294,-4.26377 0.7691,-7.94572 0.5327,-8.18211 -0.509,-0.50894 -4.6569,12.82062 -4.6569,14.96508 0,0.81297 -0.9,1.71348 -2,2.00114 -1.4187,0.371 -2,1.36401 -2,3.41663 0,2.77883 -1.5202,5.29362 -3.19998,5.29362 -1.8571,0 0.3713,-12.36136 4.66978,-25.90472 0.3693,-1.16374 0.2249,-2.09528 -0.3249,-2.09528 -0.5444,0 -1.4825,1.6875 -2.0846,3.75 -0.6022,2.0625 -1.96058,6.675 -3.01878,10.25 -1.0582,3.575 -2.4535,8.525 -3.1007,11 -0.6471,2.475 -1.3488,5.09992 -1.5592,5.83316 -0.2105,0.73323 -0.9449,1.14786 -1.6321,0.9214 -2.1026,-0.6929 -1.9976,-9.8847 0.2037,-17.8281 2.4456,-8.82551 2.4952,-9.54346 0.5468,-7.92646 -0.825,0.68469 -1.5,2.03483 -1.5,3.00032 0,0.96549 -0.6639,3.34438 -1.4753,5.28642 -0.8115,1.94204 -1.9607,5.70949 -2.5539,8.37212 -2.1835,9.80141 -5.1919,18.34114 -6.4612,18.34114 -2.103,0 -2.5298,-2.70729 -1.003,-6.3615 0.7837,-1.87578 1.3905,-5.37431 1.3483,-7.77451 -0.042,-2.40019 0.474,-7.13678 1.147,-10.52575 0.673,-3.38897 1.0127,-6.76397 0.7549,-7.5 -0.5818,-1.66109 -2.6576,7.8692 -4.1736,19.16176 -0.8454,6.2974 -1.5223,8.5 -2.6121,8.5 -2.5722,0 -1.4222,-15.78322 1.7715,-24.31255 0.5524,-1.47533 0.4184,-1.51376 -1.0666,-0.30568 -0.9342,0.75998 -2.648,4.50776 -3.8085,8.32841 -2.0497,6.74825 -2.1053,10.30414 -0.2824,18.03982 0.8829,3.74654 -1.3624,3.55303 -4.4779,-0.38592 -2.2306,-2.82016 -2.3542,-3.61299 -1.8234,-11.69467 0.3132,-4.76818 0.8756,-9.45691 1.2498,-10.41941 0.3742,-0.9625 0.2368,-1.75 -0.3053,-1.75 -1.4142,0 -2.8466,4.3877 -4.2441,13 -0.6693,4.125 -1.7076,8.10822 -2.3073,8.85159 -0.5997,0.74337 -1.1099,3.43538 -1.1337,5.98223 -0.034,3.59235 -0.4356,4.70712 -1.7932,4.97173 -1.4329,0.27929 -1.7763,-0.4423 -1.8954,-3.98223 -0.08,-2.37782 -0.05,-5.74069 0.067,-7.47304 0.1167,-1.73235 -0.2117,-3.41168 -0.7297,-3.73184 -1.6186,-1.00032 -3.4241,7.91162 -3.0497,15.0531 0.3281,6.25766 0.1927,6.82846 -1.6204,6.82846 -1.5853,0 -2.1815,-1.02967 -3,-5.18094 -0.5619,-2.84952 -1.3303,-5.48329 -1.7077,-5.85282 -0.3774,-0.36954 -0.2649,-1.77991 0.25,-3.13416 0.5143,-1.35423 0.9356,-3.19796 0.9356,-4.09716 0,-1.3083 -0.2497,-1.38505 -1.25,-0.38419 -0.7096,0.71002 -1.3627,4.36299 -1.5107,8.45 -0.5984,16.52863 -1.2683,20.69929 -3.3246,20.69929 -1.0531,0 -1.9813,-0.5625 -2.0628,-1.25 -0.081,-0.6875 -0.2398,-1.925 -0.3519,-2.75 -0.1121,-0.825 -0.2705,-5.4375 -0.3519,-10.25 -0.081,-4.8125 -0.535,-8.75 -1.0079,-8.75 -1.1381,0 -5.3262,21.16716 -5.1131,25.84235 0.2517,5.52367 0.098,6.15765 -1.4919,6.15765 -2.5171,0 -3.5352,-3.56394 -3.5352,-12.37524 0,-8.63172 -1.4399,-12.38717 -2.4548,-6.40255 -1.7716,10.44616 -2.0968,14.95809 -1.498,20.78302 0.6906,6.71816 0.1063,8.6514 -2.332,7.71573 -1.776,-0.68152 -2.7152,-7.27456 -2.7152,-19.06053 0,-6.78488 -0.2865,-8.77396 -1.1406,-7.91983 -0.6653,0.66534 -1.3476,6.16548 -1.6373,13.2 -0.3874,9.40822 -0.8031,12.0594 -1.8907,12.0594 -0.7668,0 -1.6734,-0.7875 -2.0148,-1.75 -0.3413,-0.9625 -1.3218,-2.56497 -2.1788,-3.56105 -1.3445,-1.56254 -1.3607,-1.93316 -0.1184,-2.70094 0.7919,-0.48944 1.5083,-2.25115 1.592,-3.91492 0.084,-1.66377 0.4402,-5.62334 0.7923,-8.79906 0.6017,-5.42725 0.5509,-5.62388 -0.8463,-3.27403 -0.8435,1.41852 -1.5156,5.09556 -1.5538,8.5 -0.063,5.64464 -0.1604,5.88155 -1.6416,4 -1.4608,-1.8556 -1.5416,-1.44156 -1.1194,5.73451 0.2503,4.25399 0.227,7.96258 -0.052,8.24133 -0.9256,0.92556 -3.1886,-1.68757 -3.3327,-3.84828 -0.078,-1.17016 -0.4341,-0.32756 -0.7911,1.87244 -0.4316,2.65943 -0.2147,4.53116 0.6474,5.58487 1.0093,1.23367 1.0459,2.30409 0.1652,4.83051 -0.803,2.3037 -0.8257,3.87526 -0.078,5.41513 1.4146,2.91377 2.229,15.74414 1.1297,17.7982 -0.6624,1.23769 -0.4549,1.60719 0.8455,1.50574 1.3546,-0.10569 1.6682,0.56697 1.4657,3.14399 -0.1602,2.03774 0.2568,3.47587 1.1017,3.8001 0.8677,0.33294 1.1827,1.4984 0.871,3.22156 -0.2687,1.48495 -0.151,2.38644 0.2615,2.00331 0.4125,-0.38312 2.3865,-0.0511 4.3867,0.73779 2.0002,0.7889 8.0753,2.31885 13.5001,3.39989 9.6247,1.91796 9.9756,2.08601 14.5,6.9432 9.4169,10.1095 11.1367,13.55227 11.1367,22.29401 0,10.15764 -3.4192,12.50878 -7.9683,5.47915 l -2.4689,-3.81529 -1.7965,7.30827 c -0.988,4.01956 -2.5086,7.99257 -3.3791,8.82893 -1.4195,1.3639 -1.7014,1.32816 -2.7349,-0.34672 -0.6338,-1.02705 -3.0266,-3.91011 -5.3175,-6.40681 l -4.1652,-4.53945 -0.6352,4.90681 c -0.7912,6.11238 -1.7316,7.90681 -4.1434,7.90681 -1.5115,0 -2.0001,-0.94923 -2.4347,-4.73 -0.3883,-3.37754 -1.3711,-5.59352 -3.4371,-7.75 -3.109,-3.24502 -5.0252,-3.65783 -8.8629,-1.90927 -2.043,0.93088 -2.9817,0.72848 -5.797,-1.25 -1.8476,-1.2984 -3.7192,-2.92323 -4.159,-3.61073 -0.4398,-0.6875 -1.5152,-1.25 -2.3897,-1.25 -0.8746,0 -2.2255,-0.7875 -3.0021,-1.75 -1.3014,-1.61285 -1.3635,-1.57367 -0.7929,0.5 0.3406,1.2375 0.2199,2.25 -0.2682,2.25 -1.0786,0 -9.2385,-8.73015 -10.7085,-11.4568 -0.5802,-1.07624 -2.1763,-2.2202 -3.5469,-2.54213 -1.8802,-0.44162 -2.6461,-1.4343 -3.1197,-4.0432 -0.5655,-3.11459 -0.7011,-3.2345 -1.3667,-1.20787 -0.8251,2.51261 -3.5056,3.08608 -3.5056,0.75 0,-1.99568 -0.3726,-1.92116 -5,1 -4.5742,2.88757 -5.5742,3.05191 -6.3452,1.0427 -0.3076,-0.80151 -2.3935,-2.6152 -4.6353,-4.03042 -4.2367,-2.67448 -5.8587,-2.82345 -27.2956,-2.50688 -5.9089,0.0873 -8.7239,-1.30895 -8.7239,-4.32698 0,-3.25865 -3.3824,-2.81874 -6.4591,0.84005 -2.1836,2.59669 -3.5343,3.42608 -4.7909,2.94187 -2.2136,-0.85295 -2.1954,-1.08 0.3454,-4.30261 1.8687,-2.37021 1.9143,-2.69436 0.4209,-2.99629 -2.4296,-0.49122 -6.1475,0.61263 -7.8721,2.33719 -1.4522,1.45224 -4.6442,1.10034 -4.6442,-0.512 0,-0.43966 -0.9,-0.56404 -2,-0.27638 -1.5501,0.40536 -2,0.0307 -2,-1.66557 0,-2.05035 -0.3316,-2.15038 -5.25,-1.58368 -6.99652,0.80616 -8.45656,-0.19398 -6.31862,-4.3283 1.84457,-3.567 1.32952,-3.7664 -3.98881,-1.54426 -2.12007,0.88583 -5.15984,1.36122 -6.87213,1.07475 -5.76837,-0.96504 -13.57064,-4.06884 -13.57064,-5.39842 0,-0.73015 -0.675,-1.58656 -1.5,-1.90314 -0.825,-0.31659 -1.5,-1.18834 -1.5,-1.93723 0,-0.82264 -0.61738,-1.12472 -1.55966,-0.76313 -1.04833,0.40228 -1.74671,-0.11681 -2.13022,-1.58336 l -0.57057,-2.18186 -2.29575,2.15674 c -2.85516,2.68229 -5.39584,1.65668 -2.85396,-1.15207 2.21453,-2.44702 1.14329,-2.3958 -5.24169,0.25062 -4.98338,2.0655 -5.33288,2.08379 -8.75807,0.45843 -2.95408,-1.4018 -4.274,-1.5027 -7.67565,-0.58673 -2.25945,0.60841 -7.32702,1.15672 -11.26126,1.21846 -4.03074,0.0633 -8.05903,0.69004 -9.22839,1.43588 -1.83315,1.1692 -2.34925,1.03192 -4.42432,-1.17689 -1.292,-1.37527 -1.95565,-2.50049 -1.47477,-2.50049 0.48087,0 0.38736,-0.48695 -0.20779,-1.0821 -0.71466,-0.71466 -1.71638,-0.75881 -2.95,-0.13003 -9.0709,4.62345 -11.48123,5.25846 -15.44836,4.06988 -2.89989,-0.86883 -4.5379,-0.89075 -6.18235,-0.0827 -4.65832,2.28893 -6.6177,2.3874 -8.30452,0.41733 -1.6085,-1.87859 -1.80861,-1.84853 -9.61686,1.44457 -9.00168,3.79643 -12.05381,4.23336 -11.60965,1.66197 0.44505,-2.57652 -3.0463,-2.12128 -8.00478,1.04374 -5.46904,3.49093 -8.79421,4.75085 -10.65446,4.037 -0.80875,-0.31034 -2.90679,0.15228 -4.66232,1.02805 -2.14743,1.07128 -5.90166,1.59232 -11.47314,1.59232 -4.55469,0 -9.54806,0.48857 -11.09636,1.08572 -1.54831,0.59715 -5.2901,1.23089 -8.3151,1.40833 -3.025,0.17743 -7.56811,0.88863 -10.0958,1.58044 -5.68143,1.55496 -8.80757,0.73562 -6.76682,-1.77355 1.16613,-1.43381 1.14632,-1.59924 -0.13738,-1.14724 -0.825,0.29048 -3.88401,1.37137 -6.7978,2.40196 -5.56808,1.9694 -8.37087,1.41067 -9.00277,-1.7947 -0.278,-1.41015 8.12335,-6.72923 18.80057,-11.90308 2.29107,-1.11017 2.86808,-1.72395 1.67051,-1.77693 -1.00622,-0.0445 -5.90478,1.94405 -10.88569,4.41905 -4.98091,2.475 -10.45764,4.49545 -12.17051,4.48988 -1.71287,-0.006 -5.8792,0.96084 -9.25852,2.14758 -3.4238,1.20236 -6.93634,1.85374 -7.93328,1.47118 -3.37373,-1.29463 1.4719,-4.26452 12.49944,-7.66091 11.02442,-3.39543 19.26969,-6.78453 22.57805,-9.28037 1.82278,-1.37511 -1.3529,-0.46118 -19.5,5.61193 -2.475,0.82829 -7.8926,2.82342 -12.0391,4.43364 -4.14651,1.61022 -8.10398,2.73938 -8.79439,2.50924 -0.6904,-0.23013 -3.6852,0.56781 -6.6551,1.7732 -5.14989,2.09016 -7.51141,2.0586 -7.51141,-0.10042 0,-0.54285 2.3625,-2.08689 5.25,-3.43122 6.28882,-2.92786 4.31872,-3.07049 -7.75,-0.56109 -4.95,1.02924 -12.52893,2.18947 -16.84206,2.57828 -7.41487,0.66843 -7.8085,0.82439 -7.22593,2.863 0.33888,1.18583 0.88195,3.37055 1.20684,4.85493 0.32489,1.48439 1.3302,3.36813 2.23403,4.18608 1.551,1.40363 10.38271,2.81235 18.12712,2.8914 1.925,0.0197 7.40188,0.44441 12.17085,0.94391 5.66922,0.59379 11.31622,0.54025 16.31258,-0.15468 11.3186,-1.57428 15.24121,-0.30933 21.52156,6.94017 2.74725,3.1712 4.99501,6.39355 4.99501,7.16079 0,0.76724 1.32773,1.89614 2.95051,2.50867 3.0652,1.15698 7.03925,6.54675 7.04575,9.55573 0.002,1.04315 -1.05667,1.99709 -2.66498,2.40075 -2.05827,0.51659 -3.08122,0.16039 -4.47206,-1.55723 -0.99184,-1.22487 -2.23629,-1.95946 -2.76544,-1.63243 -1.22057,0.75435 -0.26943,7.38853 1.45779,10.16808 1.94356,3.1277 4.7055,13.27758 4.0663,14.9433 -0.85314,2.22327 -4.01195,1.72046 -6.61787,-1.05342 -1.78978,-1.90514 -3.35862,-2.5 -6.59327,-2.5 -2.33456,0 -5.59665,-0.77594 -7.24909,-1.72431 -2.81377,-1.61488 -3.12214,-1.61779 -4.85914,-0.0458 -1.02008,0.92316 -1.95276,2.86335 -2.07261,4.31152 -0.11986,1.44817 -1.0872,3.73814 -2.14964,5.08882 -1.41863,1.80349 -1.87108,3.77589 -1.70341,7.42582 0.18836,4.10018 -0.18376,5.35718 -2.12615,7.18195 -2.18756,2.0551 -2.54561,2.10542 -5.05058,0.7098 -1.48286,-0.82616 -4.32682,-3.93017 -6.31992,-6.89779 -1.9931,-2.96761 -4.45577,-5.51777 -5.4726,-5.66701 -1.01684,-0.14924 -2.31113,-0.88974 -2.87619,-1.64557 -0.56507,-0.75582 -3.11748,-2.41202 -5.67202,-3.68044 -2.55455,-1.26842 -5.84651,-3.42067 -7.31548,-4.78277 -3.4267,-3.17742 -4.07401,-2.46209 -1.89913,2.09868 1.63808,3.4351 1.63591,4.00469 -0.0424,11.12381 -0.9729,4.12682 -2.29303,7.50164 -2.93362,7.49958 -2.60957,-0.008 -7.64794,-4.08193 -8.30574,-6.71524 -0.90874,-3.63791 -12.61865,-16.56783 -18.35898,-20.27174 -3.6811,-2.3752 -5.30843,-4.50551 -8.94244,-11.70643 -2.44334,-4.84157 -4.8535,-9.92785 -5.3559,-11.30285 -1.91495,-5.24088 -7.14382,-14.58818 -9.30772,-16.63877 -1.24132,-1.17633 -2.75655,-3.99414 -3.36717,-6.2618 -0.61062,-2.26767 -2.51569,-5.65444 -4.2335,-7.52617 -3.02937,-3.30081 -3.20101,-3.35511 -5.70828,-1.80605 -1.42174,0.87839 -3.82546,2.72714 -5.34158,4.10834 -2.10445,1.91716 -3.03334,2.23452 -3.92637,1.34149 -0.89304,-0.89304 -0.77319,-1.60801 0.50659,-3.02215 2.29525,-2.53623 2.12271,-3.9088 -0.22435,-1.78473 -1.35386,1.22522 -2.10558,1.38867 -2.61273,0.56808 -0.47613,-0.77039 -1.81035,-0.0875 -4.02736,2.06131 -2.74458,2.66016 -3.80117,3.0921 -6.13727,2.509 -1.55206,-0.38741 -3.5754,-1.38327 -4.49632,-2.21303 -1.51876,-1.36843 -2.02997,-1.11274 -5.5,2.75086 -4.7631,5.30335 -7.53549,7.93456 -8.26416,7.84333 -0.30879,-0.0387 -1.34448,-0.38048 -2.30153,-0.75961 -1.52607,-0.60454 -1.22886,-1.4261 2.41651,-6.67971 4.41104,-6.35707 8.33275,-14.31455 7.47662,-15.17069 -0.28275,-0.28274 -2.57907,2.34216 -5.10294,5.83311 -10.59876,14.65995 -12.43462,16.68394 -17.39145,19.17362 -2.74544,1.37895 -5.25427,2.24462 -5.57518,1.92371 -1.32949,-1.3295 -0.42814,-4.1219 1.80223,-5.58329 2.71015,-1.77576 6.9364,-9.80106 6.44214,-12.2331 -0.20044,-0.98632 -2.4576,1.62757 -5.8085,6.72652 -7.52784,11.45486 -9.0887,12.84067 -13.82029,12.27034 -3.43722,-0.4143 -4.10568,-0.0966 -6.73453,3.2006 -3.11658,3.90893 -8.39261,6.71735 -10.84882,5.77481 -1.01816,-0.3907 -2.97212,1.44934 -6.11653,5.75994 -2.54124,3.48372 -5.15565,6.80002 -5.8098,7.36954 -0.65415,0.56953 -5.23937,5.27868 -10.18937,10.46477 -4.95,5.1861 -10.8,10.96605 -13,12.84432 -2.2,1.87828 -4,3.63076 -4,3.89441 0,0.26365 -7.65,8.21345 -17,17.66624 -17.40226,17.59356 -23.7809,22.87593 -43,35.60975 -10.57009,7.00332 -13.18036,8.67735 -22,14.10914 -3.75617,2.31333 -16.68564,8.75664 -58.5,29.15304 -9.625,4.69493 -21.012,9.67855 -25.30444,11.07472 -4.29245,1.39617 -11.49245,3.86218 -16,5.48002 -4.50756,1.61784 -11.12056,3.47157 -14.69556,4.11941 -7.611446,1.37929 -16.630426,4.05638 -23.094676,6.85514 -2.52708,1.09412 -9.27708,2.97218 -15,4.17347 -5.72293,1.20129 -13.1978,2.82224 -16.61084,3.60212 -6.66242,1.52235 -7.01398,1.54901 -9.29448,0.70473 z M 252.9277,330.22171 c 7.04556,-3.87272 14.14037,-10.33984 9.93505,-9.05607 -1.26988,0.38766 -4.95899,2.46509 -8.19803,4.61652 -3.23904,2.15143 -7.02344,4.4285 -8.40977,5.06016 -2.32453,1.05912 -2.67607,2.85601 -0.55874,2.85601 0.49861,0 3.75278,-1.56448 7.23149,-3.47662 z M 389.67162,132.69833 c 0,-0.55 -0.45,-1 -1,-1 -0.55,0 -1,0.45 -1,1 0,0.55 0.45,1 1,1 0.55,0 1,-0.45 1,-1 z"
     id="path2987"
     inkscape:connector-curvature="0" />
</svg>
