<?xml version="1.0" encoding="UTF-8" standalone="no"?>
<!-- Created with Inkscape (http://www.inkscape.org/) -->

<svg
   xmlns:dc="http://purl.org/dc/elements/1.1/"
   xmlns:cc="http://creativecommons.org/ns#"
   xmlns:rdf="http://www.w3.org/1999/02/22-rdf-syntax-ns#"
   xmlns:svg="http://www.w3.org/2000/svg"
   xmlns="http://www.w3.org/2000/svg"
   xmlns:sodipodi="http://sodipodi.sourceforge.net/DTD/sodipodi-0.dtd"
   xmlns:inkscape="http://www.inkscape.org/namespaces/inkscape"
   id="svg2"
   version="1.1"
   inkscape:version="0.48.2 r9819"
   width="1745.5846"
   height="1679.9943"
   sodipodi:docname="Ibex_(PSF)c.png">
  <metadata
     id="metadata8">
    <rdf:RDF>
      <cc:Work
         rdf:about="">
        <dc:format>image/svg+xml</dc:format>
        <dc:type
           rdf:resource="http://purl.org/dc/dcmitype/StillImage" />
        <dc:title></dc:title>
      </cc:Work>
    </rdf:RDF>
  </metadata>
  <defs
     id="defs6" />
  <sodipodi:namedview
     pagecolor="#ffffff"
     bordercolor="#666666"
     borderopacity="1"
     objecttolerance="10"
     gridtolerance="10"
     guidetolerance="10"
     inkscape:pageopacity="0"
     inkscape:pageshadow="2"
     inkscape:window-width="1600"
     inkscape:window-height="876"
     id="namedview4"
     showgrid="false"
     fit-margin-top="0"
     fit-margin-left="0"
     fit-margin-right="0"
     fit-margin-bottom="0"
     inkscape:zoom="0.350951"
     inkscape:cx="792.85334"
     inkscape:cy="861.51854"
     inkscape:window-x="0"
     inkscape:window-y="24"
     inkscape:window-maximized="1"
     inkscape:current-layer="svg2" />
  <path
     style="fill:#000000"
     d="m 268.6187,1679.4982 c -0.276,-0.276 -4.5135,-0.5413 -9.4167,-0.5895 -16.9119,-0.1663 -27.818,-3.8272 -33.0544,-11.0955 -1.5732,-2.1838 -3.8185,-4.9476 -4.9895,-6.1418 -1.6603,-1.6933 -2.2451,-3.8281 -2.6558,-9.6955 -0.2897,-4.1383 -1.2122,-9.7633 -2.0499,-12.5 -0.8378,-2.7367 -1.7888,-6.2134 -2.1133,-7.7259 -0.7513,-3.5014 -3.2431,-3.5779 -8.1471,-0.25 -5.588,3.7921 -7.803,3.3061 -13.9127,-3.0526 -2.9343,-3.0539 -6.3179,-7.4414 -7.519,-9.75 -6.5316,-12.5538 -6.2247,-11.4316 -5.019,-18.3556 0.6146,-3.5293 0.8794,-6.8022 0.5883,-7.2731 -0.291,-0.4709 0.1793,-2.5518 1.0452,-4.6241 1.107,-2.6496 1.3407,-4.833 0.7871,-7.3563 -0.8772,-3.9985 -0.8763,-4.0149 0.5116,-9.5366 0.7868,-3.13 0.6651,-4.5025 -0.5873,-6.6226 -1.0761,-1.8217 -1.3431,-3.5918 -0.8373,-5.5517 1.0548,-4.0881 1.4434,-9.666 1.9424,-27.8774 0.241,-8.8 0.8855,-17.9551 1.4321,-20.3447 0.6691,-2.9253 0.6574,-5.3094 -0.036,-7.2977 -0.72,-2.0654 -0.6826,-5.2684 0.1243,-10.6553 0.6346,-4.2363 1.3844,-13.1023 1.6662,-19.7023 0.2818,-6.6 0.961,-14.9261 1.5093,-18.5024 0.5482,-3.5763 0.9259,-8.7513 0.8392,-11.5 -0.2413,-7.6494 1.081,-21.6437 2.3617,-24.9937 0.6299,-1.6479 1.0279,-5.4729 0.8845,-8.5 -0.1434,-3.0272 0.3731,-8.827 1.1479,-12.8885 0.7748,-4.0615 1.1815,-8.2536 0.9037,-9.3157 -0.2777,-1.0621 -0.01,-2.914 0.6023,-4.1154 0.6089,-1.2014 2.0196,-7.9343 3.1348,-14.9621 1.1151,-7.0278 2.9881,-15.3528 4.1621,-18.5 1.1741,-3.1472 2.0969,-6.8472 2.0507,-8.2222 -0.046,-1.375 0.8476,-5.2 1.986,-8.5 1.1384,-3.3 2.0174,-7.7141 1.9532,-9.8091 -0.064,-2.095 0.5476,-5.0937 1.3596,-6.6639 0.8119,-1.5701 1.771,-5.481 2.1314,-8.6909 0.3603,-3.2098 1.1049,-6.4058 1.6546,-7.1022 0.5692,-0.7209 0.7351,-3.5196 0.3853,-6.5 -0.6886,-5.8685 0.4879,-10.6878 5.0617,-20.7339 1.6276,-3.575 3.4333,-7.625 4.0126,-9 2.2041,-5.2314 7.1353,-10.8119 10.1364,-11.471 1.8177,-0.3993 4.4881,-2.4311 6.811,-5.1822 2.1015,-2.489 5.9584,-6.65 8.5709,-9.2466 2.6125,-2.5965 4.75,-5.056 4.75,-5.4655 0,-0.4094 0.8786,-2.673 1.9524,-5.0302 1.8826,-4.1324 7.0842,-9.6167 12.4653,-13.1425 1.4203,-0.9306 2.5967,-2.4278 2.6141,-3.327 0.017,-0.8993 0.6925,-2.5085 1.5,-3.5761 0.8076,-1.0677 1.4726,-2.6427 1.478,-3.5 0.016,-2.514 4.9101,-12.3424 7.499,-15.0589 2.9992,-3.1471 7.4871,-13.1814 7.5041,-16.7785 0.01,-1.4968 0.9317,-5.6465 2.0547,-9.2215 1.1229,-3.575 2.4344,-9.6125 2.9144,-13.4167 0.8533,-6.7633 0.8114,-6.974 -1.8893,-9.5 -3.3041,-3.0904 -4.9052,-12.2059 -2.9122,-16.5801 0.8827,-1.9372 0.9039,-3.4197 0.083,-5.8026 -1.7323,-5.0285 -2.3736,-11.0638 -1.3438,-12.6467 0.5797,-0.891 0.5855,-2.1101 0.015,-3.1758 -0.5091,-0.9513 -1.124,-5.0749 -1.3665,-9.1636 -0.2424,-4.0887 -1.212,-10.3096 -2.1545,-13.8243 -0.9498,-3.5417 -1.6752,-9.6675 -1.6274,-13.7424 0.096,-8.1718 -0.9194,-11.8523 -3.8334,-13.8933 -2.6092,-1.8276 -2.4816,-5.7708 0.2487,-7.6832 1.794,-1.2565 2.2788,-2.7534 2.6182,-8.0828 0.3174,-4.9842 0.8695,-6.8579 2.3201,-7.874 1.5765,-1.1042 1.6697,-1.5276 0.5424,-2.4631 -1.0736,-0.8911 -1.8706,-0.3427 -3.7721,2.5958 -4.0846,6.3119 -8.9102,5.2569 -8.9102,-1.9481 0,-3.2886 0.6748,-4.624 4,-7.9162 2.2,-2.1781 4,-4.2123 4,-4.5204 0,-0.3081 -0.7179,-2.073 -1.5953,-3.922 -1.5321,-3.2287 -1.6878,-3.3011 -3.9329,-1.8301 -2.8289,1.8536 -5.3804,0.7976 -7.4595,-3.0874 -1.2414,-2.3195 -1.2014,-3.0165 0.3368,-5.87263 1.9384,-3.5995 1.3504,-6.6504 -1.2818,-6.6504 -3.3201,0 -6.0673,-4.2593 -6.0673,-9.4067 0,-3.2636 -0.6339,-5.5836 -2,-7.3204 -1.1,-1.3984 -2,-3.9865 -2,-5.7512 0,-1.7647 -0.9,-5.8245 -2,-9.0217 -1.5828,-4.6003 -2,-8.4174 -2,-18.2963 0,-10.7341 -0.2452,-12.6627 -1.75,-13.7641 -1.474,-1.0788 -1.7581,-2.9888 -1.8009,-12.1102 -0.028,-5.9562 -0.5407,-11.9652 -1.1393,-13.3534 -1.4127,-3.2757 -1.5466,-13.9573 -0.2477,-19.7534 0.5607,-2.5016 1.1432,-12.0126 1.2945,-21.1355 0.172,-10.36636 0.7193,-17.40624 1.4593,-18.77133 2.8234,-5.20829 0.1486,-20.21988 -3.6156,-20.29114 -0.7148,-0.0135 -2.6552,-0.72558 -4.312,-1.58233 -3.9458,-2.04046 -3.7292,-5.78798 0.3617,-6.25869 5.6601,-0.65128 2.7217,-3.2988 -5.75,-5.1808 -7.1312,-1.5842 -9.5524,-2.68948 -11.3067,-5.16148 -0.7187,-1.01271 -1.9786,-1.8413 -2.7997,-1.8413 -2.524,0 -7.3936,-2.96819 -7.3936,-4.50663 0,-1.40599 1.8351,-2.12539 6.9216,-2.71342 3.4221,-0.3956 3.5854,-2.11772 0.3375,-3.55869 -1.5175,-0.67326 -3.8841,-1.8814 -5.2591,-2.68476 -1.375,-0.80337 -4.0958,-1.70592 -6.0463,-2.00568 -4.1686,-0.64065 -10.6378,-5.61489 -9.5634,-7.35334 0.4148,-0.67121 3.0806,-1.17748 6.2001,-1.17748 3.9623,0 5.6325,-0.41743 6.0528,-1.51273 1.1889,-3.0982 -1.6321,-4.47542 -15.4305,-7.53301 -2.908,-0.64439 -6,-1.8844 -6.8712,-2.75558 -1.4453,-1.44528 -1.3838,-1.74599 0.7016,-3.43468 1.6745,-1.35593 3.1105,-1.66927 5.3712,-1.172 1.6971,0.37329 5.2193,0.79426 7.827,0.93549 l 4.7412,0.25677 -1.8285,-2.64213 c -1.0057,-1.45317 -2.1195,-3.44748 -2.4751,-4.4318 -0.5593,-1.54812 -1.7042,-1.75057 -8.4821,-1.5 -7.1375,0.26387 -8.2079,0.0434 -12.0162,-2.47452 C 177.6117,749.5335 178.6504,747 186.729,747 c 2.0782,0 5.8056,-0.27783 8.283,-0.61739 l 4.5044,-0.61739 -1.3548,-2.71572 c -1.2714,-2.54845 -1.6854,-2.68829 -6.7233,-2.27051 -5.7516,0.47697 -14.9971,-1.68733 -19.5414,-4.57449 -4.7061,-2.98995 -5.2398,-5.07482 -2.1023,-8.21232 1.697,-1.69697 2.8253,-1.91174 7.2881,-1.38722 5.0107,0.58891 5.3421,0.48481 6.4922,-2.03924 0.6665,-1.4629 1.2119,-2.81551 1.2119,-3.00578 0,-0.87849 -3.8801,-1.59154 -14.2625,-2.62105 -7.4763,-0.74134 -11.8221,-1.6378 -12.984,-2.67839 -3.3385,-2.98987 -0.4095,-4.1723 11.0916,-4.47763 l 10.6549,-0.28287 -5.5,-2.74023 c -3.025,-1.50713 -6.85,-2.74807 -8.5,-2.75764 -6.9387,-0.0403 -17.428,-4.40575 -17.4847,-7.27688 -0.033,-1.66274 5.2112,-2.74178 8.8321,-1.81732 2.0089,0.51289 6.1276,1.20527 9.1526,1.53861 l 5.5,0.60609 -3.7811,-2.06614 c -2.0796,-1.13637 -4.1598,-1.83206 -4.6227,-1.54598 -1.1269,0.69646 -20.2289,-6.16437 -21.9645,-7.88896 -3.7349,-3.71108 3.2621,-4.68453 12.0181,-1.67201 3.0047,1.03374 7.9126,2.18944 10.9066,2.56822 l 5.4436,0.68868 -3,-2.06163 c -1.65,-1.1339 -4.4775,-2.0646 -6.2833,-2.06822 -1.8058,-0.004 -5.4058,-1.07923 -8,-2.39024 -2.5942,-1.31101 -7.5833,-3.11555 -11.0868,-4.01008 -9.4773,-2.41975 -13.1451,-4.43219 -13.7697,-7.55507 -0.3624,-1.81209 -2.0009,-3.55678 -5.0961,-5.42635 -4.184,-2.5272 -4.4293,-2.88828 -2.9602,-4.35733 1.469,-1.46905 2.0295,-1.46364 6.7638,0.0653 2.8391,0.91693 5.8199,1.66714 6.624,1.66714 0.8041,0 7.1649,2.5182 14.1351,5.596 14.3553,6.33875 18.1732,7.67347 18.1732,6.35325 0,-0.50113 -1.2375,-1.21034 -2.75,-1.57603 -1.5125,-0.36568 -3.875,-1.40549 -5.25,-2.31068 -1.375,-0.90519 -4.975,-2.72686 -8,-4.04816 -3.025,-1.32129 -6.8722,-3.39409 -8.5494,-4.6062 -1.6771,-1.21212 -5.7271,-3.53276 -9,-5.15699 -13.2915,-6.59623 -25.9935,-13.55563 -26.6844,-14.62034 -1.3188,-2.03264 -0.1769,-3.12221 3.8119,-3.63698 l 3.9219,-0.50612 -4.5879,-2.74388 C 105.1756,634.23474 102.515,633 101.7865,633 c -1.6016,0 -9.579097,-4.90355 -16.749697,-10.29548 -3.5755,-2.68858 -5.25,-4.65691 -5.25,-6.17114 0,-2.56148 -2.3096,-4.94017 -6.2519,-6.43903 -1.5114,-0.57466 -2.7481,-1.68416 -2.7481,-2.46553 0,-0.78138 -2.0984,-3.19184 -4.663,-5.35657 -6.0892,-5.13975 -5.3087,-6.69746 2.8797,-5.7471 3.6729,0.42629 9.1408,2.17508 14.1231,4.517 4.4715,2.10178 8.3179,3.63341 8.5477,3.40363 1.4149,-1.41489 -14.6117,-10.3832 -18.6268,-10.42337 -6.7895,-0.0679 -23.2607,-10.66476 -23.2607,-14.96487 0,-0.9833 -0.9,-2.93199 -2,-4.33041 -2.551,-3.24304 -2.551,-5.77029 0,-6.43738 1.1,-0.28766 2,-0.88039 2,-1.31718 0,-0.98169 -8.0929,-4.97257 -10.0836,-4.97257 -0.7987,0 -3.0191,-1.04018 -4.9343,-2.31151 -1.9152,-1.27133 -5.7321,-3.12872 -8.4821,-4.12753 -2.75,-0.99881 -6.594,-3.33363 -8.5422,-5.18849 -1.9482,-1.85486 -4.2556,-3.37247 -5.1275,-3.37247 -0.872,0 -2.186,-0.7237 -2.9201004,-1.60821 -1.1299,-1.36145 -1.0651,-1.80539 0.4227004,-2.89327 2.221,-1.62405 8.496,-0.0996 20.5059,4.98157 8.1687,3.45608 8.3982,3.49297 11.25,1.80837 1.6011,-0.94582 2.8956,-1.96015 2.8765,-2.25407 -0.07,-1.08146 -25.6384,-9.26343 -37.4653004,-11.98908 -5.884201,-1.35607 -8.533701,-3.41167 -6.726601,-5.21878 1.4821,-1.48203 10.8210014,-0.0419 23.2266014,3.58172 4.675,1.36555 13.1867,3.84081 18.9148,5.50058 5.7282,1.65977 12.7032,4.12457 15.5,5.47733 6.7748,3.27679 8.7886,3.55689 9.1466,1.27221 0.4028,-2.57127 0.6947,-2.73468 5.2067,-2.9146 2.8087,-0.11201 5.1589,0.60108 7.8684,2.38739 6.9602,4.58869 19.646397,9.76135 22.541297,9.19093 2.833,-0.55823 9.6747,1.54117 21.5174,6.6027 3.9573,1.69137 7.9172,3.07521 8.7996,3.07521 0.8825,0 2.8196,0.61185 4.3048,1.35966 1.4852,0.74781 4.0504,1.65589 5.7004,2.01794 l 3,0.65828 -2.6479,-2.38209 c -1.4563,-1.31015 -6.0763,-3.80937 -10.2667,-5.55384 -4.1904,-1.74446 -12.6738,-5.78475 -18.8521,-8.97842 -6.1783,-3.19366 -12.9389,-6.1263 -15.023597,-6.51696 -4.7296,-0.88634 -13.1086,-5.72168 -13.5079,-7.79514 -0.5558,-2.88584 4.008,-2.80782 13.0548,0.22315 8.549297,2.86426 20.553597,8.4093 27.743397,12.81515 1.925,1.17964 4.2396,2.14648 5.1435,2.14853 2.2989,0.005 20.8246,9.70742 23.8565,12.49398 3.6992,3.39989 12.8189,8.73677 14.1635,8.28857 0.8242,-0.27473 0.7513,-0.73119 -0.2474,-1.54845 -7.5202,-6.15406 -12.7771,-11.09946 -14.5675,-13.70419 -1.1833,-1.72146 -3.8833,-4.28782 -6,-5.70302 -2.1168,-1.41519 -6.2034,-4.84657 -9.0815,-7.62528 -2.878,-2.77871 -6.253,-5.34893 -7.5,-5.7116 -1.2469,-0.36267 -4.5171,-2.16455 -7.2671,-4.00419 -2.75,-1.83963 -6.35,-3.66442 -8,-4.05508 -1.65,-0.39066 -4.8111,-1.75486 -7.0246,-3.03155 -2.2135,-1.27669 -6.9644,-3.22929 -10.557597,-4.33911 -7.0944,-2.19124 -11.5853,-5.87451 -10.5266,-8.63351 1.2207,-3.18095 15.506597,-0.0792 25.364997,5.50716 3.9503,2.2385 7.538,4.07001 7.9726,4.07001 0.4345,0 1.3521,-0.9 2.0391,-2 0.687,-1.1 2.1452,-2 3.2405,-2 2.7799,0 2.482,-1.27123 -0.7584,-3.23724 -4.7705,-2.8943 -12.5034,-10.54382 -11.8035,-11.67625 0.3693,-0.59758 2.2531,-1.08651 4.1861,-1.08651 2.661,0 4.4073,0.85708 7.1909,3.52924 2.0221,1.94108 6.1515,5.14699 9.1765,7.12425 3.025,1.97725 6.5983,4.73699 7.9407,6.13276 1.3423,1.39576 7.8673,5.14445 14.5,8.33044 6.6326,3.18598 14.8718,7.38379 18.3093,9.32846 3.4375,1.94467 6.25,3.32593 6.25,3.06947 0,-0.25645 -0.837,-1.84251 -1.8599,-3.52456 -2.2548,-3.70769 -5.5049,-6.48956 -23.8655,-20.42725 -15.8106,-12.00193 -16.7476,-12.88784 -15.9179,-15.05008 1.0295,-2.68279 6.4713,-1.83857 9.8357,1.52589 1.6713,1.67125 4.7054,3.88895 6.7426,4.92824 2.0372,1.03928 5.6977,3.50097 8.1345,5.47041 6.6129,5.34465 16.4494,13.51711 22.0414,18.31273 2.7257,2.3375 5.3908,4.25 5.9225,4.25 1.8689,0 0.9376,-1.97274 -1.7595,-3.72695 -1.4994,-0.97518 -4.8446,-3.79805 -7.4338,-6.27305 -2.5892,-2.475 -5.6503,-5.4 -6.8023,-6.5 -1.1521,-1.1 -3.6956,-3.89736 -5.6522,-6.21636 -1.9567,-2.319 -5.1037,-4.77544 -6.9934,-5.45876 -1.8897,-0.68332 -4.1098,-2.27112 -4.9336,-3.52843 -0.8239,-1.25731 -2.9516,-2.91425 -4.7283,-3.68209 -4.1733,-1.8036 -22.7523,-19.5992 -22.7399,-21.78103 0.022,-3.79325 6.9114,-2.48835 10.9159,2.06748 4.5631,5.19126 15.4464,14.24062 19.5851,16.2847 l 4.0086,1.97984 -4.123,-3.83267 c -7.2987,-6.78475 -16.8947,-19.48163 -15.6583,-20.71806 2.2719,-2.27195 7.5809,0.94648 13.8692,8.40792 1.1484,1.3626 3.1734,3.41411 4.5,4.5589 1.3267,1.14479 5.8409,5.64479 10.0316,10 4.1908,4.35521 9.6947,9.62996 12.2309,11.72167 5.2475,4.3278 19.4824,20.11716 27.6496,30.6688 3.025,3.90818 6.6789,8.55081 8.1199,10.31694 1.4409,1.76613 3.8776,5.68615 5.4149,8.71115 1.5373,3.025 3.5773,6.4 4.5334,7.5 3.9208,4.51086 13.2987,19.46419 16.3868,26.12905 1.8167,3.92098 4.0553,7.97098 4.9747,9 3.2846,3.67632 10.7262,14.61423 13.739,20.19404 1.6859,3.1223 3.8221,6.80191 4.747,8.17691 2.215,3.29258 4.0843,7.71052 4.0843,9.6527 0,0.85722 1.125,2.89557 2.5,4.52967 1.375,1.63409 2.5,3.77376 2.5,4.75481 0,0.98105 1.125,3.44151 2.5,5.46768 1.375,2.02618 2.5,4.27829 2.5,5.00469 0,0.7264 0.9,2.4649 2,3.86332 1.1,1.39842 2,3.15898 2,3.91235 0,0.75337 0.7615,2.45695 1.6922,3.78574 0.9307,1.32878 1.8068,4.46641 1.9468,6.9725 0.2375,4.24833 0.7706,5.05301 7.8816,11.89642 8.2196,7.9102 8.4871,7.98858 15.9794,4.68182 1.65,-0.72824 4.4107,-1.77707 6.1349,-2.33073 3.3554,-1.0775 18.3651,-11.98166 18.3651,-13.34183 0,-0.44849 2.1375,-1.96103 4.75,-3.3612 2.6125,-1.40016 7,-3.89722 9.75,-5.54904 2.75,-1.65181 5.675,-3.26952 6.5,-3.59491 0.825,-0.32539 4.2355,-1.88591 7.579,-3.46781 3.3435,-1.5819 6.606,-2.87618 7.25,-2.87618 0.644,0 1.171,-0.83026 1.171,-1.84501 0,-2.88201 2.8799,-4.74759 11,-7.12557 15.3681,-4.5006 15.5237,-4.57064 15.1947,-6.83702 -0.2378,-1.63822 0.7562,-2.63474 4.5,-4.5112 2.6429,-1.32467 6.6053,-2.72202 8.8053,-3.10522 4.349,-0.75753 18.3839,-5.32957 20,-6.5153 1.5077,-1.10622 11.5892,-4.81124 15,-5.51263 6.2093,-1.27688 8.3424,-2.69698 9.9006,-6.5912 1.3012,-3.25199 2.2183,-4.04259 5.8219,-5.01838 2.3526,-0.63704 6.5275,-1.77168 9.2775,-2.52141 15.0527,-4.10381 18.9734,-4.68294 27.5717,-4.07261 7.5923,0.53891 9.5085,0.31393 15.5441,-1.82509 l 6.8842,-2.43978 -5.5,0.71021 c -3.025,0.39062 -9.1,0.71021 -13.5,0.71021 -6.4445,0 -8,-0.29167 -8,-1.5 0,-2.54595 18.6472,-6 32.3919,-6 8.7761,0 9.5879,-0.18539 15.1903,-3.46889 11.0714,-6.48875 27.1095,-7.31089 121.4178,-6.22407 54.4999,0.62806 61.9829,1.0411 78.8009,4.34962 7.0404,1.38505 13.472,2.26073 14.2923,1.94596 1.5522,-0.59565 2.5101,-0.4157 21.4068,4.02152 11.6679,2.73978 18.8597,3.23311 36.5,2.50373 4.95,-0.20467 12.375,0.19142 16.5,0.8802 8.0547,1.34496 11.2731,1.46304 26,0.95396 10.2001,-0.35259 26.4556,0.46351 31.75,1.594 2.5703,0.54884 3.25,0.36892 3.25,-0.86028 0,-1.36228 2.7482,-1.54115 22.25004,-1.44812 18.1734,0.0867 22.779,-0.17359 25.1372,-1.42058 l 2.8872,-1.52671 -2.7715,-1.90017 c -1.5243,-1.04509 -3.7235,-2.96696 -4.8872,-4.27081 -6.7909,-7.60908 -9.7214,-11.20505 -13.1441,-16.12936 -2.1025,-3.025 -5.6776,-7.30712 -7.9446,-9.51582 -2.2671,-2.2087 -5.1926,-6.2587 -6.5012,-9 -2.7668,-5.79583 -4.8204,-8.72544 -11.08954,-15.81977 -4.2807,-4.84407 -12.6723,-17.1063 -17.9055,-26.16441 -1.271,-2.2 -3.3427,-5.575 -4.6037,-7.5 -1.2609,-1.925 -4.138,-8.88121 -6.3934,-15.45826 -2.2554,-6.57704 -4.7111,-12.65204 -5.4571,-13.5 -1.7575,-1.99755 -5.0431,-10.1888 -6.635,-16.54174 -0.6891,-2.75 -1.8579,-6.21515 -2.5973,-7.70034 -0.7394,-1.48519 -1.3443,-3.63681 -1.3443,-4.78138 0,-1.14458 -0.6917,-2.34646 -1.537,-2.67085 -3.0855,-1.18403 -7.4263,-12.48172 -7.4485,-19.38599 -0.01,-2.65542 -0.884,-6.18223 -2.1101,-8.5 -2.8325,-5.35444 -4.86,-16.68048 -5.3634,-29.96144 -0.2294,-6.05 -1.0914,-13.7 -1.9157,-17 -1.612,-6.45357 -1.5121,-17.36851 0.2197,-24 0.5745,-2.2 1.2611,-8.725 1.5259,-14.5 0.2647,-5.775 1.175,-13.12604 2.0228,-16.33564 1.1311,-4.28236 1.3795,-8.30066 0.9331,-15.0966 -0.587,-8.93701 -0.4637,-9.70145 3.5246,-21.85305 2.2731,-6.92564 3.8653,-13.28944 3.5382,-14.14177 -1.115,-2.9055 2.845,-17.14681 6.8757,-24.7276 1.4447,-2.71703 2.7017,-7.21915 3.0993,-11.10045 0.7018,-6.84925 3.6271,-16.55706 6.1491,-20.40622 0.8175,-1.24757 1.4863,-3.39197 1.4863,-4.76533 0,-1.37336 1.519,-5.7767 3.3755,-9.78518 4.326,-9.34011 4.9428,-10.90099 5.1693,-13.08054 0.1024,-0.9858 1.0679,-2.7858 2.1456,-4 1.0777,-1.21419 2.5314,-4.23262 3.2306,-6.70762 1.9545,-6.91901 3.4988,-10.09136 7.3969,-15.19581 1.9724,-2.58269 4.5347,-6.63269 5.6941,-9 1.2013,-2.45298 6.9206,-9.03522 13.29794,-15.30419 6.1546,-6.05 13.2151,-13.65041 15.6901,-16.8898 2.475,-3.23939 6.9602,-7.89786 9.967,-10.35215 3.0069,-2.4543 6.8276,-6.41708 8.4905,-8.80619 2.7419,-3.93952 9.4668,-9.2054 19.3603,-15.16004 2.0178,-1.2145 5.9021,-4.1395 8.6317,-6.5 9.109,-7.87717 13.6459,-10.97406 22.5816,-15.41421 4.87796,-2.42383 9.12476,-4.82087 9.43746,-5.32674 1.2414,-2.00863 16.5622,-7.05087 21.424,-7.05087 4.4287,0 5.3647,-0.41216 8.7822,-3.8671 4.6006,-4.65096 14.0359,-8.6409 23.8252,-10.07503 9.6816,-1.41835 12.9366,-2.48783 18.5661,-6.10032 3.4015,-2.18269 6.9189,-3.41631 11.653,-4.0869 3.7295,-0.52828 10.6059,-1.85204 15.2809,-2.94169 4.675,-1.08965 9.7497,-1.96944 11.2771,-1.95507 1.5274,0.0144 5.8965,-1.60795 9.709,-3.60512 6.4357,-3.37135 7.7503,-3.67551 18.3691,-4.25 9.4822,-0.513 11.8153,-0.96065 13.6487,-2.61877 1.8543,-1.677 3.5515,-1.98829 10.5084,-1.9275 5.77,0.0504 9.03,0.55283 10.7039,1.64961 2.199,1.4408 2.661,1.43454 5.3454,-0.0725 1.6161,-0.90729 3.3007,-2.21642 3.7435,-2.90919 C 1189.3938,2.20335 1195.7013,0 1200.2308,0 c 2.3098,0 6.3734,0.74063 9.03,1.64585 3.918,1.335 5.4362,1.42679 8.038,0.48599 5.1922,-1.87755 16.1706,0.82934 19.7893,4.87936 2.7659,3.09558 2.9425,3.14278 9.5085,2.54165 20.5412,-1.88063 23.9587,-1.80879 28.7924,0.60528 2.5329,1.265 5.1279,3.0462 5.7668,3.95823 0.6388,0.91203 4.3046,2.6396 8.1462,3.83904 5.7578,1.7977 8.1267,2.04646 13.4848,1.4161 13.4821,-1.5861 19.9829,-0.013 24.1541,5.84495 1.1631,1.63343 4.0268,3.78946 6.3637,4.79119 2.337,1.00172 4.9605,2.8371 5.8301,4.07862 1.4891,2.12601 1.8131,2.18072 5.5708,0.94055 3.4438,-1.13654 4.3173,-1.1022 6.3824,0.25091 2.8478,1.86596 8.351,7.37216 11.354,11.36026 1.9946,2.64892 2.3854,2.77546 5.2484,1.69948 5.5132,-2.07196 15.1154,0.66968 21.5255,6.14604 2.9432,2.51442 5.9053,5.90926 6.5824,7.54409 1.184,2.85824 1.4768,2.97241 7.6251,2.97241 5.3029,0 7.3315,0.52921 11.8896,3.10166 6.34,3.57804 11.1036,8.87888 12.4899,13.89834 1.339,4.8483 6.3676,7.88283 14.7315,8.88975 6.4209,0.773 6.8103,0.98492 11.9449,6.50128 4.8911,5.2548 5.3076,6.08137 5.3076,10.53428 0,4.39308 0.2644,4.94157 2.9104,6.03758 1.6007,0.66305 6.0307,1.32278 9.8443,1.46608 7.7388,0.29078 7.8501,0.33686 14.5136,6.01082 3.6765,3.13044 5.164,5.30841 6.496,9.51101 2.3193,7.31799 8.5523,13.31376 16.7116,16.07556 3.3133,1.1215 7.188,3.06445 8.6105,4.31767 4.5048,3.9687 6.3891,13.05643 3.5628,17.18346 -0.7429,1.08488 -1.647,3.19201 -2.009,4.6825 -0.7554,3.10999 0.5261,4.10497 6.7315,5.22653 2.8696,0.51864 5.1546,2.03781 8.828,5.86902 4.6664,4.86697 4.9209,5.40434 4.3533,9.18989 -0.3655,2.43704 -0.01,5.98682 0.9112,9.01261 0.8328,2.74558 1.519,6.57933 1.525,8.51945 0.016,5.32799 2.3438,7.97251 7.0168,7.97251 4.5649,0 8.6093,3.63471 12.2401,11 3.3744,6.84514 2.9665,11.49593 -1.6662,19.00156 l -3.9201,6.35106 3.4201,2.9278 c 1.8811,1.61029 5.47,4.21563 7.9754,5.78965 2.5054,1.57402 6.0206,4.68531 7.8116,6.91397 3.5798,4.45455 3.5371,6.34571 -0.2537,11.2495 -1.1623,1.50345 -3.1784,4.11326 -4.4803,5.79957 -1.3019,1.68631 -2.2019,3.20146 -2,3.36701 0.2019,0.16554 3.2216,1.80331 6.7104,3.63948 5.0647,2.66558 7.1307,4.52402 10.25,9.22016 5.5397,8.3402 5.2803,10.16818 -2.5933,18.27783 -3.575,3.68216 -6.5,7.28048 -6.5,7.99626 0,0.71579 1.647,2.126 3.66,3.13379 4.1377,2.07156 8.9059,9.97409 7.9104,13.11041 -0.3264,1.02867 -3.2727,4.53693 -6.5472,7.79613 -3.2744,3.2592 -5.9692,6.22036 -5.9884,6.58036 -0.019,0.36 2.4113,2.03501 5.4009,3.72225 4.6913,2.6476 5.8553,3.94697 8.5,9.48842 1.6854,3.5314 3.0643,6.93003 3.0643,7.55251 0,1.36807 -4.4818,3.20978 -6.2413,2.56473 -3.4341,-1.25895 -6.3794,6.80144 -5.3792,14.72102 1.5624,12.37063 2.3507,15.84094 4.0167,17.68185 1.4024,1.54957 1.8649,4.36753 2.2621,13.78127 0.439,10.40407 0.7918,12.26266 2.9205,15.38716 1.3317,1.95456 2.4212,4.04339 2.4212,4.64185 0,0.59845 1.9376,3.27426 4.3057,5.94625 2.3682,2.67198 5.384,6.43315 6.7018,8.35815 1.3179,1.925 2.8491,3.80952 3.4027,4.18783 1.8607,1.27145 19.0307,17.27623 22.3274,20.81217 7.2901,7.81922 13.1503,13.71044 17.4078,17.5 2.4717,2.2 8.1545,7.4875 12.6287,11.75 4.4741,4.2625 8.6507,7.75 9.2814,7.75 0.6307,0 4.3638,2.99086 8.2956,6.64637 3.9319,3.6555 8.4227,7.43016 9.9795,8.38814 2.3345,1.43649 14.5361,14.02129 20.6392,21.28734 0.8416,1.00202 3.213,3.70202 5.2698,6 2.1785,2.43397 4.8051,7.10031 6.292,11.17815 3.0749,8.43298 6.2482,15.15828 8.6748,18.38486 0.9865,1.31167 1.7936,3.126 1.7936,4.03184 0,0.90585 2.0228,6.13266 4.4952,11.61515 2.4723,5.48248 4.4973,10.4432 4.5,11.02382 0,0.58063 1.5982,5.00734 3.5458,9.83714 3.302,8.18897 3.5114,9.35367 3.1032,17.26242 -0.295,5.71627 -0.9376,9.02923 -1.9712,10.16286 -4.1341,4.53417 -6.6471,6.91514 -9.9637,9.44009 -1.9926,1.517 -4.5029,4.74755 -5.5785,7.179 -1.3064,2.95335 -3.0634,4.98433 -5.2932,6.11841 -1.8357,0.93367 -4.6876,3.13814 -6.3376,4.89883 -2.0302,2.16641 -5.9093,4.27814 -12,6.53263 -7.7779,2.87902 -10.29,3.33952 -18.5,3.39125 -9.9411,0.0627 -19.8869,-1.41661 -26.2702,-3.90724 -6.5555,-2.55781 -7.2249,-2.18741 -11.347,6.27894 -2.8694,5.89351 -3.8337,9.18728 -4.0255,13.75 -0.1387,3.3 -0.7134,9.57129 -1.2771,13.9362 -0.5636,4.36491 -0.7944,8.86491 -0.5129,10 0.2816,1.13509 0.6785,5.4388 0.882,9.5638 0.6392,12.95818 2.5854,26.32796 4.5124,31 2.8533,6.91773 6.0383,17.75869 6.0383,20.55312 0,1.38111 0.6775,4.13263 1.5056,6.11448 0.8281,1.98185 1.9695,7.70489 2.5365,12.71788 1.2677,11.20826 2.6623,16.19384 5.653,20.20891 3.1701,4.25596 2.9664,6.3233 -0.6951,7.05561 -1.65,0.33 -3,1.02407 -3,1.54239 0,0.51831 0.8526,0.67179 1.8946,0.34105 2.8044,-0.89005 4.8135,1.74367 6.1159,8.01691 1.5119,7.28282 0.3823,8.88562 -5.6271,7.98442 -3.8754,-0.5811 -4.2587,-0.4411 -4.5573,1.6654 -0.276,1.9462 -0.8897,2.2834 -3.9917,2.1932 -3.3953,-0.099 -3.712,0.1404 -4.2938,3.242 -0.7895,4.2084 -4.4972,5.5 -8.7622,3.0522 -1.6881,-0.9688 -3.9426,-1.4047 -5.5758,-1.0781 -2.2031,0.4406 -3.652,-0.2529 -7.3756,-3.5306 -2.5486,-2.2434 -5.5775,-4.0789 -6.7307,-4.0789 -1.206,0 -4.3479,-2.2691 -7.3954,-5.34107 -2.9142,-2.9376 -6.5007,-5.64282 -7.97,-6.01159 -3.112,-0.78107 -7.7309,-5.40362 -7.7309,-7.73705 0,-0.8856 -1.2834,-3.38191 -2.8521,-5.54735 -3.7319,-5.15181 -6.6849,-11.4448 -6.3366,-13.50391 0.1656,-0.97921 -1.1519,-2.52443 -3.2669,-3.83156 -1.9494,-1.20481 -3.5444,-2.64032 -3.5444,-3.19002 0,-0.5497 -1.5432,-4.07433 -3.4293,-7.83251 -3.5894,-7.15218 -4.0963,-8.63929 -8.1458,-23.8983 -1.3711,-5.16636 -3.3272,-10.56636 -4.3469,-12 -1.0197,-1.43364 -2.0846,-4.85661 -2.3665,-7.60661 -0.6401,-6.24592 -2.0581,-12.53737 -4.2822,-19 -2.0714,-6.01881 -2.2528,-7.22252 -3.0151,-20 -0.362,-6.06811 -1.1668,-10.89578 -2.0469,-12.27825 -0.7977,-1.25303 -1.2128,-2.66264 -0.9225,-3.13246 0.6445,-1.04275 -3.1848,-6.08929 -4.6205,-6.08929 -0.5667,0 -3.2031,-1.95342 -5.8586,-4.34094 -4.8394,-4.35104 -13.4307,-8.23231 -20.7609,-9.37907 -2.0377,-0.31877 -4.5924,-1.18717 -5.6773,-1.92979 -2.9479,-2.01788 -3.5275,-1.68477 -3.5275,2.02736 0,4.18493 -2.3921,6.56428 -4.8338,4.80809 -4.6559,-3.34865 -6.1258,-2.2935 -6.1509,4.41513 -0.033,8.86235 -2.8921,12.14107 -8.1386,9.33325 -1.9337,-1.03492 -1.9754,-0.82376 -1.4295,7.25 0.6417,9.49207 -0.6806,14.63429 -4.2149,16.39094 -3.421,1.70034 -3.3611,1.53038 -4.7314,13.41714 -1.457,12.63909 -2.8713,15.27444 -7.9408,14.79643 l -3.0601,-0.28854 -0.5873,11.02436 c -0.3432,6.44298 -1.1914,12.26094 -2.0411,14 -1.2864,2.63301 -1.9229,2.95538 -5.528,2.79968 l -4.0742,-0.17595 -0.6347,6.07265 c -0.3491,3.33995 -0.6347,7.50319 -0.6347,9.25164 0,2.09796 -0.8501,3.97766 -2.5,5.52762 -1.375,1.29175 -2.5,2.72408 -2.5,3.18297 0,0.45889 -1.2752,2.59475 -2.8338,4.74636 -1.5587,2.1516 -3.6386,6.08521 -4.6222,8.74134 -0.9835,2.65613 -2.3123,5.27933 -2.9528,5.82933 -3.0953,2.65775 -5.376,7.67787 -6.5877,14.5 -1.7096,9.62557 -6.403,19.46507 -8.8108,18.47157 -4.8593,-2.0051 -4.8902,-1.9756 -5.9746,5.6951 -2.1592,15.2733 -4.0755,18.9686 -8.9524,17.2635 -3.2558,-1.1383 -4.2147,-5.3026 -2.0136,-8.7448 0.7686,-1.202 1.7024,-3.0854 2.0751,-4.1854 0.6777,-2 0.6777,-2 -0.8303,0 -0.8293,1.1 -2.7429,3.4973 -4.2524,5.3273 -2.6965,3.2692 -4.0146,7.236 -4.7094,14.1727 -0.4525,4.5178 -1.9058,9.9557 -3.4139,12.7736 -1.304,2.4366 -5.8746,3.073 -7.854,1.0936 -1.9651,-1.9651 -4.562,-0.178 -3.8521,2.6508 0.3527,1.4049 0.02,3.6996 -0.7602,5.2407 -0.7632,1.5077 -1.6918,4.422 -2.0637,6.4761 -0.478,2.6404 -2.0001,4.9756 -5.1949,7.97 -4.6663,4.3736 -13.3963,19.9201 -13.3963,23.8563 0,1.1253 -2.8911,7.3094 -6.4247,13.7425 -3.5336,6.433 -6.7427,13.0464 -7.1313,14.6964 -0.3886,1.65 -1.5046,3.9 -2.4802,5 -2.1749,2.4525 -3.4628,7.27183 -5.0773,19.00003 -0.7294,5.2988 -2.3539,11.4675 -3.9502,15 -1.4911,3.3 -3.0168,7.0115 -3.3904,8.2477 -0.3736,1.2362 -1.7461,2.5154 -3.0501,2.8427 -1.7124,0.4298 -2.805,1.8689 -3.9334,5.1805 -0.8593,2.522 -1.5624,5.6187 -1.5624,6.8816 0,1.5399 -0.9881,2.8071 -3,3.8475 -1.8303,0.9465 -3,2.3385 -3,3.5702 0,1.1103 -0.7034,5.0363 -1.5631,8.7243 -3.9411,16.9073 -4.2396,17.4518 -8.3588,15.2473 -1.4321,-0.7664 -2.0781,-2.096 -2.0781,-4.277 0,-4.7484 -2.0303,-2.0161 -2.4827,3.341 -0.8898,10.5374 -3.9244,19.3457 -7.0823,20.5575 -0.8033,0.3083 -2.124,0.01 -2.935,-0.6633 -2.4651,-2.0458 -4.0328,-0.4972 -5.9684,5.8957 -1.5957,5.2702 -2.1772,6.1043 -4.2557,6.1043 -1.324,0 -3.2318,-0.4412 -4.2394,-0.9805 -2.2849,-1.2228 -3.8818,1.0721 -6.3419,9.1139 -0.9478,3.0983 -2.686,6.8573 -3.8627,8.3532 -1.8695,2.3767 -2.6221,2.6427 -5.9645,2.1082 -3.5668,-0.5704 -3.8648,-0.4254 -4.4138,2.1468 -0.3238,1.5171 -1.5902,5.2334 -2.8144,8.2584 -1.8385,4.5433 -2.6939,5.5548 -4.9176,5.815 -2.2357,0.2616 -2.9801,-0.2892 -4.392,-3.25 -0.935,-1.9608 -2.0124,-3.565 -2.3942,-3.565 -0.3818,0 -2.6133,1.8624 -4.9588,4.1387 -2.6642,2.5855 -5.7274,4.4673 -8.1625,5.0144 -2.1438,0.4817 -6.9164,2.7257 -10.6059,4.9867 -14.7363,9.0306 -15.8349,9.4353 -32.7082,12.0487 -11.6187,1.7995 -18.7055,1.4656 -22.8161,-1.0748 -4.6445,-2.8705 -7.1151,-2.8169 -6.2838,0.1363 1.3168,4.6783 2.6702,18.1132 1.9793,19.6489 -1.0714,2.3818 -1.3377,42.8884 -0.3162,48.1011 0.485,2.475 1.1319,7.65 1.4376,11.5 1.1653,14.6771 1.5254,17.4333 2.6361,20.1754 1.0464,2.5833 1.5776,9.8276 2.2238,30.3246 0.13,4.125 0.612,8.3183 1.0711,9.3184 0.4985,1.0859 0.2169,4.7115 -0.6989,9 -2.8534,13.3619 -4.9678,28.1591 -4.67,32.6816 0.4937,7.4943 0.3432,10.1803 -1.0082,18 -1.484,8.5867 -0.8718,19.0236 1.5544,26.5 0.8924,2.75 1.5799,5.9588 1.5278,7.1306 -0.052,1.1719 1.5036,7.0219 3.4572,13 1.9535,5.9782 3.9226,12.8944 4.3758,15.3694 0.4531,2.475 1.2855,5.85 1.8498,7.5 2.1877,6.3977 5.1803,20.4759 5.1803,24.3699 0,2.2485 0.8635,6.9101 1.9188,10.3591 1.0554,3.4491 3.1109,11.221 4.5679,17.271 1.457,6.05 3.1451,12.35 3.7513,14 1.8189,4.9502 7.428,12.0022 11.9821,15.0645 2.354,1.5829 5.7581,4.1284 7.5647,5.6567 1.8066,1.5284 4.1859,2.7788 5.2873,2.7788 3.0182,0 10.634,8.4664 14.4728,16.0892 1.8729,3.7191 3.8222,7.0197 4.3318,7.3346 0.5096,0.3149 1.2382,3.3859 1.6191,6.8244 1.1338,10.2339 6.1733,23.9692 9.4348,25.7147 1.0637,0.5692 2.246,2.048 2.6274,3.286 0.3814,1.2381 2.0192,4.2341 3.6396,6.6578 1.6204,2.4237 4.2983,8.6059 5.9508,13.7382 l 3.0045,9.3316 -2.1024,2.9526 c -2.2848,3.2087 -4.2268,4.1294 -8.6696,4.1102 -1.5845,-0.01 -5.5809,0.2232 -8.8809,0.5112 -3.3,0.2881 -8.7,0.6738 -12,0.8573 -3.3,0.1834 -8.2949,0.8173 -11.0999,1.4085 -5.389,1.1359 -7.9307,0.8602 -13.0512,-1.4157 -1.7332,-0.7703 -3.7807,-1.4006 -4.55,-1.4006 -0.7694,0 -1.9468,-0.5479 -2.6165,-1.2176 -0.6696,-0.6696 -3.798,-1.2744 -6.9518,-1.344 -11.3576,-0.2504 -22.2306,-4.7137 -22.2306,-9.1255 0,-0.7221 -0.8717,-1.3129 -1.937,-1.3129 -2.022,0 -9.0393,-6.6769 -9.0543,-8.6151 0,-0.6134 -1.0212,-2.4022 -2.2587,-3.9752 -1.978,-2.5142 -2.2596,-4.072 -2.3293,-12.8848 l -0.079,-10.0249 -4.6244,-1 c -2.5435,-0.55 -5.0062,-1.45 -5.4728,-2 -1.2869,-1.5168 -4.8879,-10.4332 -6.26,-15.5 -2.153,-7.9509 -3.7262,-13.3695 -5.5164,-19 -1.2033,-3.7848 -1.822,-9.4347 -1.9838,-18.1172 -0.1639,-8.798 -0.7642,-14.2105 -1.9833,-17.8808 -1.2225,-3.6804 -1.5666,-6.7982 -1.144,-10.3658 0.3323,-2.8062 0.1983,-6.4598 -0.2978,-8.1192 -2.7066,-9.0526 -5.0883,-21.8655 -5.2077,-28.017 -0.099,-5.0926 -0.6129,-7.545 -1.8862,-9 -1.0897,-1.2453 -1.9763,-4.4527 -2.3495,-8.5 -1.2634,-13.7024 -2.3958,-21.6033 -3.4849,-24.3151 -0.6218,-1.5483 -1.1373,-5.5983 -1.1454,-9 -0.017,-7.0362 -2.0679,-16.8471 -5.0562,-24.1849 -1.1199,-2.75 -2.394,-5.9 -2.8314,-7 -2.8265,-7.1088 -6.3428,-13.6696 -9.6433,-17.9927 -2.0964,-2.746 -4.1564,-6.571 -4.5779,-8.5 -1.8383,-8.4146 -5.2544,-19.6282 -6.3995,-21.0073 -1.1518,-1.3872 -3.4402,-16.0408 -3.9961,-25.589 -0.131,-2.249 -0.6889,-4.949 -1.24,-6 -1.7199,-3.2808 -3.5209,-12.6272 -3.761,-19.5178 -0.1266,-3.6337 -0.7444,-8.1648 -1.3728,-10.069 -0.6284,-1.9042 -1.4046,-7.0311 -1.7248,-11.3932 -0.5281,-7.1936 -0.7568,-9.8343 -1.3148,-15.181 -0.1982,-1.8985 -4.972,7.2845 -5.0318,9.679 -0.02,0.786 -0.4564,2.811 -0.9708,4.5 -1.3941,4.5778 -3.836,14.3465 -5.1423,20.571 -0.6348,3.025 -1.718,7.075 -2.4071,9 -2.6766,7.4768 -3.3813,10.7965 -4.0334,19 -0.3716,4.675 -1.2759,11.425 -2.0095,15 -0.7861,3.8304 -1.0976,9.0928 -0.7586,12.813 0.3164,3.4722 0.078,8.6472 -0.5293,11.5 -0.6075,2.8529 -1.5247,8.337 -2.0383,12.187 -1.0234,7.6728 -5.9658,22.8539 -9.0817,27.8955 -1.0867,1.7583 -2.2892,5.157 -2.6723,7.5528 -0.3831,2.3958 -1.4661,5.1255 -2.4066,6.066 -3.3358,3.3358 -7.3326,13.3425 -7.7828,19.4857 -0.2418,3.3 -0.8945,6.566 -1.4503,7.2579 -0.5558,0.6918 -1.1952,4.017 -1.4209,7.3892 -0.2257,3.3722 -0.9264,7.0812 -1.557,8.2421 -0.7193,1.324 -1.2534,9.3799 -1.4329,21.6108 -0.1574,10.725 -0.5649,24.6147 -0.9055,30.866 -0.4847,8.8937 -0.2885,12.2652 0.9018,15.5 2.4908,6.769 4.0438,15.7632 3.7587,21.7686 -0.1702,3.5854 0.2905,6.7136 1.2668,8.6015 1.9928,3.8537 8.1801,9.2639 10.5945,9.2639 2.2771,0 8.0419,4.6511 8.0419,6.4884 0,1.3096 4.7161,8.984 9.4775,15.4226 1.3874,1.8761 2.5225,4.2266 2.5225,5.2233 0,0.9967 0.859,3.7367 1.9089,6.0889 2.5376,5.6852 3.9559,11.1384 4.5729,17.5831 0.2795,2.9185 0.9713,6.1718 1.5374,7.2295 0.566,1.0577 0.7567,3.0089 0.4236,4.336 -0.7172,2.8577 0.5697,5.5309 8.0246,16.6686 3.7568,5.6127 5.5326,9.2655 5.5326,11.3805 0,1.7132 1.1571,4.8176 2.5713,6.8988 1.4142,2.0812 2.823,5.335 3.1306,7.2306 0.5393,3.3232 0.3878,3.5225 -4.2282,5.5644 -2.6331,1.1647 -6.6294,2.3515 -8.8806,2.6373 -2.2512,0.2858 -4.8538,0.91 -5.7837,1.3872 -0.9298,0.4771 -4.1923,0.9252 -7.25,0.9957 -3.9751,0.092 -5.5594,0.5181 -5.5594,1.4966 0,1.5056 -2.9452,1.7066 -23.5,1.6033 -6.6,-0.033 -12.675,-0.3037 -13.5,-0.6011 -0.825,-0.2973 -3.975,-1.3167 -7,-2.2653 -4.0468,-1.269 -7.0227,-3.1969 -11.26296,-7.2965 -5.1649,-4.9936 -6.13,-6.6098 -9.2985,-15.5719 -1.9446,-5.5 -4.1937,-12.475 -4.9981,-15.5 -3.7253,-14.009 -3.8294,-14.1468 -8.9263,-11.8245 -2.2589,1.0292 -2.7723,0.9009 -4.1252,-1.0306 -1.2514,-1.7866 -2.1669,-2.0896 -4.814,-1.593 -2.9779,0.5587 -3.4123,0.3105 -4.8836,-2.7899 -2.7144,-5.7202 -3.7044,-17.4856 -1.9152,-22.762 1.8272,-5.3888 2.58,-21.2263 2.3123,-48.6452 -0.074,-7.5963 0.3386,-13.2145 1.1021,-15 0.6908,-1.6155 1.3211,-8.2812 1.4518,-15.3548 0.2784,-15.0629 2.0947,-41.8984 3.2265,-47.6714 0.4663,-2.3787 0.3935,-6.6764 -0.1694,-10 -1.3653,-8.0618 -1.0285,-15.1464 0.9298,-19.5574 1.3564,-3.0552 1.4723,-4.681 0.6417,-9 -0.6853,-3.5634 -0.6848,-7.5391 10e-4,-12.2712 1.3276,-9.1544 1.1406,-17.8837 -0.4441,-20.7254 -1.106,-1.9834 -2.2824,-31.782 -1.9452,-49.2746 0.042,-2.2 0.1986,-9.85 0.347,-17 0.243,-11.7022 0.055,-13.3993 -1.8825,-17 -1.7776,-3.3033 -2.1525,-5.6777 -2.1522,-13.6329 2e-4,-5.2982 -0.4479,-10.4732 -0.9958,-11.5 -1.396,-2.6168 -3.2933,-19.2401 -3.2907,-28.8325 0,-4.419 -0.2335,-10.7346 -0.5215,-14.0346 -0.288,-3.3 -0.671,-8.925 -0.8511,-12.5 -0.18,-3.575 -0.9441,-9.875 -1.698,-14 -0.8285,-4.534 -1.0856,-9.2796 -0.6501,-12 0.3963,-2.475 1.4197,-10.35 2.2743,-17.5 0.8545,-7.15 2.2318,-16.825 3.0605,-21.5 1.4505,-8.1816 1.4298,-8.6572 -0.5514,-12.6964 -2.5018,-5.1004 -4.0331,-5.6542 -13.2652,-4.7969 -5.3866,0.5002 -8.3427,0.2719 -11.7064,-0.9042 -2.475,-0.8654 -6.075,-1.6116 -8,-1.6582 -1.925,-0.047 -4.4,-0.4379 -5.5,-0.8693 -1.1,-0.4314 -3.3176,-0.4082 -4.928,0.052 -1.9018,0.543 -4.8808,0.331 -8.5,-0.6048 -3.06464,-0.7924 -6.47204,-1.4808 -7.57204,-1.5297 -15.5108,-0.6894 -30.3468,-1.0402 -40.5,-0.9574 -8.0999,0.066 -14.4616,-0.4147 -18.0726,-1.3655 -3.4673,-0.9129 -8.0009,-1.2819 -12,-0.9766 -3.9101,0.2986 -9.3204,-0.1227 -13.8139,-1.0755 -4.0625,-0.8615 -7.7838,-1.3207 -8.2695,-1.0206 -0.4857,0.3002 -2.3368,0.085 -4.1135,-0.478 -3.4248,-1.0854 -20.8673,-2.4524 -31.7305,-2.4868 -4.3212,-0.014 -7.6198,0.5718 -9.8409,1.7466 -3.3066,1.7491 -3.3826,1.7397 -7.3909,-0.9129 -3.4812,-2.3038 -5.2589,-2.7184 -12.6591,-2.9529 -4.735,-0.15 -10.6341,0.1573 -13.1091,0.6828 -2.475,0.5256 -6.075,1.1951 -8,1.4878 -2.476,0.3765 -4.8629,1.9424 -8.1582,5.352 -5.3338,5.5186 -14.1694,10.9429 -17.8418,10.9532 -1.375,0 -5.0561,-1.7294 -8.1802,-3.8516 -3.1241,-2.1223 -7.4397,-4.14 -9.5902,-4.4839 -2.1505,-0.3439 -5.5769,-1.7564 -7.6142,-3.139 -2.0373,-1.3825 -4.097,-2.5137 -4.5771,-2.5137 -0.4801,0 -1.6246,2.1375 -2.5433,4.75 -0.9188,2.6125 -2.306,6.2278 -3.0828,8.0339 -0.7767,1.8062 -1.4122,4.1548 -1.4122,5.2192 0,1.0644 -0.9136,3.6882 -2.0304,5.8307 -1.1167,2.1425 -2.4376,6.3974 -2.9353,9.4553 -0.4976,3.058 -1.5593,6.8314 -2.3592,8.3854 -1.6654,3.2354 -3.4947,9.0216 -4.687,14.8255 -0.4519,2.2 -1.9366,8.05 -3.2994,13 -2.5269,9.179 -6.4413,35.9666 -6.5757,45 -0.074,4.982 -1.5103,12.6376 -3.3062,17.6241 -0.5198,1.4433 -1.3365,5.0433 -1.8149,8 -0.4783,2.9567 -2.2285,10.3259 -3.8893,16.3759 -1.6608,6.05 -3.0383,12.5355 -3.0611,14.4121 -0.023,1.8767 -1.1119,5.2517 -2.4203,7.5 -2.2925,3.9397 -3.6452,8.3246 -4.1916,13.5879 -0.6065,5.8416 -3.3016,19.6949 -4.2799,22 -2.2708,5.3501 -3.4094,15.1162 -3.4393,29.5 -0.043,20.5161 1.1686,39.7399 2.982,47.3249 0.8317,3.4787 1.2966,7.4523 1.0332,8.8301 -0.2633,1.3778 -0.059,4.1566 0.4546,6.1751 0.5134,2.0184 1.3645,5.4699 1.8913,7.6699 0.5268,2.2 1.8068,5.575 2.8444,7.5 1.0375,1.925 2.8027,6.425 3.9226,10 3.7557,11.9897 11.8397,28.5407 16.2923,33.3566 0.9441,1.0212 2.8314,4.8462 4.194,8.5 1.3625,3.6539 4.3219,9.7863 6.5763,13.6275 2.2544,3.8413 4.0989,7.3823 4.0989,7.8688 0,0.8791 4.8727,7.2364 14.5632,19.0005 2.7848,3.3806 6.3848,8.7811 8,12.0011 1.6153,3.22 4.0618,6.5635 5.4368,7.4301 1.375,0.8666 3.85,2.7714 5.5,4.2329 1.65,1.4616 5.1375,3.4428 7.75,4.4027 2.6125,0.9598 4.75,2.143 4.75,2.6292 0,0.4862 1.6365,2.5204 3.6367,4.5206 2.0001,2.0001 5.5995,7.6697 7.9987,12.5991 4.3237,8.8835 7.028,12.8031 14.983,21.7164 2.2652,2.538 4.836,6.0225 5.7131,7.7433 0.877,1.7209 2.2981,3.3988 3.158,3.7288 0.8599,0.3299 2.4473,2.522 3.5276,4.8712 1.0804,2.3491 3.7418,7.4212 5.9143,11.2712 2.1726,3.85 3.9768,7.658 4.0094,8.4621 0.033,0.8042 1.8754,3.3128 4.0952,5.5745 2.7551,2.8073 3.8319,4.6441 3.393,5.7879 -0.3536,0.9215 -1.0448,1.6755 -1.536,1.6755 -0.4911,0 -0.893,0.5224 -0.893,1.1608 0,0.6384 -1.3554,2.3709 -3.012,3.85 -2.6621,2.3767 -4.0854,2.7586 -12.25,3.2868 -5.0809,0.3287 -11.0772,0.3468 -13.3252,0.04 -2.7454,-0.3745 -5.1093,-0.029 -7.2004,1.0524 -3.9189,2.0265 -11.8603,2.0727 -16.5903,0.096 -1.9921,-0.8324 -3.6221,-1.2935 -3.6221,-1.0248 0,0.2688 -1.2375,0.01 -2.75,-0.5837 -1.5125,-0.5899 -6.125,-1.2434 -10.25,-1.4522 -4.125,-0.2089 -8.7375,-0.5589 -10.25,-0.7778 -1.5125,-0.219 -4.4021,-0.4543 -6.4214,-0.5231 -2.9768,-0.1014 -4.505,-0.995 -8.0779,-4.7239 -2.4236,-2.5294 -5.2909,-6.4669 -6.3719,-8.75 -5.105,-10.7823 -5.8255,-11.2833 -10.2843,-7.1511 -3.2613,3.0225 -3.6289,3.0473 -6.9101,0.4664 -1.6597,-1.3056 -3.2295,-4.2088 -4.3848,-8.1094 -1.0124,-3.418 -3.2213,-7.7379 -5.0496,-9.8754 -2.501,-2.924 -3.25,-4.7287 -3.25,-7.8315 0,-2.2177 -0.45,-4.3102 -1,-4.6501 -0.55,-0.3399 -1,-1.6899 -1,-3 0,-1.3101 -0.45,-2.6601 -1,-3 -0.55,-0.3399 -1.0076,-1.604 -1.0169,-2.809 -0.01,-1.2102 -2.0792,-4.3899 -4.6236,-7.103 -4.0827,-4.3534 -4.5966,-5.4096 -4.5188,-9.2877 0.074,-3.7003 -0.2851,-4.5457 -2.3282,-5.4766 -2.4885,-1.1338 -5.5125,-6.2796 -5.5125,-9.3804 0,-0.965 -1.125,-3.2295 -2.5,-5.0322 -1.375,-1.8027 -2.5,-3.7322 -2.5,-4.2877 0,-0.5555 -0.8234,-1.598 -1.8299,-2.3167 -3.2721,-2.3365 -5.3091,-6.4045 -4.6073,-9.2008 0.5493,-2.1884 0.3175,-2.6059 -1.4467,-2.6059 -3.0379,0 -12.6819,-11.8891 -14.6199,-18.0234 -0.9002,-2.8495 -10.0534,-20.8771 -11.5177,-22.6844 -0.5381,-0.6643 -0.9785,-1.5179 -0.9785,-1.897 0,-0.3791 -1.6875,-2.7429 -3.75,-5.2529 -4.5114,-5.4903 -5.3018,-6.7785 -9.2905,-15.1418 -1.7048,-3.5747 -3.7851,-6.883 -4.6228,-7.3518 -1.758,-0.9838 -6.3124,-10.2906 -6.3269,-12.9286 -0.01,-1.784 -8.2954,-18.3849 -10.067,-20.1701 -0.5185,-0.5225 -0.9428,-2.1991 -0.9428,-3.7258 0,-1.5267 -0.8983,-4.2492 -1.9962,-6.05 -1.098,-1.8008 -1.998,-4.0508 -2,-5 0,-0.9492 -0.9021,-3.1992 -2,-5 -1.098,-1.8008 -1.998,-4.4072 -2,-5.7921 0,-1.3848 -1.1695,-4.2333 -2.5942,-6.33 -3.7,-5.445 -7.0268,-13.4497 -7.6783,-18.4752 -0.3083,-2.3777 -1.7055,-5.9777 -3.1049,-8 -1.3994,-2.0223 -3.2204,-5.5966 -4.0466,-7.9428 -0.8263,-2.3463 -2.5728,-5.7213 -3.8812,-7.5 -1.3084,-1.7788 -2.9711,-4.8091 -3.6948,-6.7341 -0.7237,-1.925 -2.7372,-5.075 -4.4745,-7 -3.2558,-3.6076 -5.5293,-7.9642 -5.5293,-10.5954 0,-0.8256 -0.874,-3.3103 -1.9423,-5.5214 -1.0683,-2.2111 -1.6731,-4.7219 -1.3439,-5.5796 0.3525,-0.9186 -0.233,-2.2262 -1.4245,-3.1816 -1.1127,-0.8921 -2.4916,-3.0333 -3.0644,-4.7582 -0.8571,-2.5809 -0.6941,-3.7074 0.9203,-6.3621 1.7806,-2.9279 1.8183,-3.3846 0.4083,-4.9426 -1.9675,-2.1741 -1.9575,-2.2872 0.4465,-5.0591 1.1,-1.2683 2,-3.5579 2,-5.0879 0,-1.53 0.4897,-4.0487 1.0882,-5.597 2.1611,-5.5906 4.5497,-16.9392 4.7982,-22.7971 0.1396,-3.2901 0.6862,-6.503 1.2148,-7.1399 0.5728,-0.6902 0.6455,-3.3236 0.18,-6.5181 -0.6418,-4.4034 -0.7978,-24.4879 -0.3873,-49.86 0.04,-2.475 -0.3626,-6.525 -0.8947,-9 -0.5321,-2.475 -1.2284,-6.6459 -1.5474,-9.2687 -0.6109,-5.0231 -4.1433,-10.3035 -6.0076,-8.9805 -2.1297,1.5115 -14.444,17.3486 -14.444,18.5763 0,1.4114 -5.3046,6.6464 -11.691,11.5377 -5.2412,4.0142 -20.309,18.9975 -20.309,20.1951 0,1.5327 -5.592,3.8597 -7.8537,3.2682 -3.6633,-0.958 -7.5967,1.513 -11.7079,7.3548 -2.1661,3.078 -4.6857,6.2487 -5.5991,7.046 -5.4316,4.7416 -11.9636,11.775 -16.2005,17.4439 -2.6737,3.5773 -7.8026,9.3894 -11.3976,12.9158 -3.5951,3.5263 -7.1805,7.9444 -7.9676,9.8179 -1.2661,3.0134 -4.9437,7.481 -10.5888,12.863 -7.9335,7.5639 -15.0084,15.2079 -16.3238,17.6367 -2.1581,3.9849 -3.0325,5.0427 -9.4911,11.4813 -6.2162,6.197 -14.143,13.0324 -17.6222,15.196 -1.2388,0.7703 -2.7313,2.852 -3.3168,4.6259 -0.5854,1.7739 -2.4969,4.4207 -4.2477,5.8818 -1.7508,1.4611 -3.8582,3.9164 -4.6832,5.4563 -0.825,1.5398 -2.8728,5.1966 -4.5507,8.1261 -1.6779,2.9296 -3.5526,6.2265 -4.166,7.3265 -1.7459,3.1311 -4.2833,9.2037 -4.2833,10.2511 0,0.5218 -1.4131,2.8995 -3.1402,5.2837 -2.7842,3.8435 -10.3336,20.9652 -9.2441,20.9652 0.2337,0 -0.4249,1.6875 -1.4635,3.75 -3.5471,7.0435 -6.0879,15.7443 -7.0816,24.25 -0.5462,4.675 -1.4704,10.075 -2.0537,12 -0.5834,1.925 -1.3062,7.0131 -1.6062,11.307 -0.3687,5.2779 -1.2069,8.928 -2.5872,11.2675 -1.5133,2.5649 -2.0173,5.0887 -1.9474,9.7511 0.052,3.4597 -0.3272,7.7604 -0.8424,9.5569 -0.6134,2.1388 -0.5526,5.1795 0.1761,8.8079 0.8477,4.2211 0.8087,7.4144 -0.1636,13.4017 -0.7021,4.3231 -1.3897,9.7834 -1.5282,12.134 -0.2571,4.3649 -1.8877,13.0012 -2.9959,15.8676 -0.3389,0.8765 0.2866,3.884 1.39,6.6833 1.1033,2.7993 2.5343,8.1571 3.1799,11.9063 0.9108,5.2893 1.8928,7.6183 4.3825,10.3942 1.7647,1.9677 4.052,5.0052 5.0827,6.75 1.1872,2.0099 2.6677,3.1725 4.0397,3.1725 2.1144,0 7.4031,5.6736 7.4031,7.9419 0,0.5915 1.3246,2.904 2.9436,5.139 2.7406,3.7833 3.6631,6.1011 7.1318,17.9191 0.7264,2.475 1.9168,5.4491 2.6453,6.6091 0.7286,1.16 1.0711,2.7699 0.7611,3.5775 -0.7984,2.0809 0.8375,5.8208 4.0585,9.278 1.5191,1.6306 3.6532,5.0056 4.7424,7.5 1.0892,2.4945 3.54,6.6804 5.4462,9.302 4.1621,5.7242 5.1582,11.1172 2.8706,15.541 -2.3864,4.6147 -4.3503,5.3033 -11.3908,3.994 -5.3317,-0.9915 -7.234,-0.8485 -15.883,1.1945 -5.4041,1.2765 -11.0409,2.9246 -12.5261,3.6624 -2.734,1.3582 -6.05,1.7578 -6.9681,0.8397 z M 1008.9502,590.8544 c 1.5004,-0.5775 2.9276,-2.07915 3.269,-3.43968 0.3334,-1.3281 1.2058,-2.41472 1.9387,-2.41472 0.733,0 2.7453,-1.35 4.4719,-3 3.1367,-2.99759 3.1486,-2.99993 14.8983,-2.91562 11.957,0.0858 15.7711,0.49339 31.7591,3.3938 16.2466,2.94734 15.5751,2.91483 11.2681,0.54555 -2.0525,-1.12909 -4.4013,-3.34755 -5.2196,-4.9299 -0.8182,-1.58235 -2.7705,-3.32419 -4.3384,-3.87076 -1.5679,-0.54656 -5.5191,-3.1558 -8.7804,-5.7983 -6.869,-5.56561 -30.47,-29.27477 -34.2677,-34.42477 -1.4196,-1.925 -3.5932,-4.4 -4.8304,-5.5 -1.2371,-1.1 -3.9553,-5.21933 -6.0405,-9.15407 -3.7663,-7.10727 -5.1434,-9.19622 -10.6767,-16.19573 -1.587,-2.00761 -4.03226,-6.1252 -5.43396,-9.1502 -1.4017,-3.025 -4.7157,-8.91656 -7.3644,-13.09236 -2.6488,-4.17579 -4.816,-8.06831 -4.816,-8.65003 0,-2.01788 -7.1569,-18.14289 -8.5747,-19.31962 -0.7839,-0.65058 -1.4253,-1.84581 -1.4253,-2.65606 0,-0.81026 -0.8483,-2.66766 -1.885,-4.12756 -1.7729,-2.4965 -2.53,-4.75201 -6.5972,-19.65437 -0.9007,-3.3 -2.1105,-7.35 -2.6886,-9 -0.578,-1.65 -1.2149,-4.5627 -1.4154,-6.47266 -0.8541,-8.13741 -2.9521,-15.84756 -6.4019,-23.52734 -0.8915,-1.98453 -1.0657,-3.03994 -2.889,-17.5 -0.5201,-4.125 -1.5083,-8.85 -2.196,-10.5 -2.232,-5.35532 -4.8929,-19.83281 -4.9101,-26.71505 -0.01,-3.69328 0.6338,-8.64328 1.4289,-11 1.5562,-4.6121 2.4382,-32.54564 1.0963,-34.71694 -0.4059,-0.65672 -0.075,-1.95318 0.7346,-2.88102 0.9622,-1.10233 1.7093,-5.15271 2.1556,-11.68699 0.4352,-6.37155 1.3569,-11.45138 2.5402,-14 1.0214,-2.2 2.0766,-5.8 2.3448,-8 1.6894,-13.85712 6.8834,-30.89022 11.74,-38.5 2.1208,-3.32314 3.2373,-6.03878 2.7026,-6.57351 -1.0837,-1.08371 -4.9396,2.09937 -6.7517,5.57351 -1.004,1.925 -5.9166,7.64649 -10.9168,12.71443 -6.6134,6.70291 -9.0913,9.90143 -9.0913,11.73497 0,2.5563 -4.4666,10.72014 -8.6869,15.87733 -1.2722,1.55469 -2.3131,3.76516 -2.3131,4.91214 0,1.14698 -1.0613,3.92495 -2.3584,6.17327 -1.2971,2.24832 -2.6832,5.43534 -3.0804,7.08227 -0.3971,1.64692 -1.2179,3.59189 -1.8239,4.32214 -2.8265,3.40567 -11.7373,27.85509 -11.7373,32.2046 0,1.57578 -1.35,6.89454 -3,11.81946 -1.65,4.92492 -3,9.81052 -3,10.85689 0,1.04638 -0.4585,2.36099 -1.0189,2.92136 -2.26654,2.2665 -5.19694,29.17266 -5.32384,48.88114 -0.021,3.3 0.5486,12.75 1.2663,21 0.7177,8.25 1.4363,17.475 1.5967,20.5 0.3312,6.24373 3.40654,18.84558 6.58884,27 2.4288,6.22327 3.294,9.41891 5.3588,19.79099 0.7983,4.01004 2.3695,8.45823 3.4917,9.88486 1.1222,1.42663 2.0448,3.32068 2.0501,4.20901 0.01,0.88833 1.2075,4.09014 2.6714,7.11514 3.6075,7.45463 5.2858,12.08324 5.3038,14.62756 0.01,1.17015 0.6722,2.67293 1.4754,3.3395 1.6544,1.37301 6.7618,11.70959 8.464,17.1297 1.3993,4.45556 6.672,12.90324 8.0537,12.90324 0.5621,0 1.022,0.6737 1.022,1.49712 0,0.82341 1.5733,3.23857 3.4962,5.36701 1.9229,2.12844 4.5873,6.33698 5.9208,9.3523 1.6209,3.66507 4.2692,7.12649 7.9893,10.44214 3.0605,2.72785 6.0588,6.37723 6.6627,8.10972 0.604,1.73249 2.0493,3.45189 3.2119,3.82087 1.1626,0.36898 4.424,2.85579 7.2476,5.52625 10.16,9.60889 12.3794,10.87974 17.97146,10.29067 2.75,-0.28969 6.1983,-0.98794 7.663,-1.55168 z m 131.6315,-9.52676 c 3.688,-0.9198 7.8305,-2.41619 9.2055,-3.32531 1.375,-0.90912 4.525,-3.02108 7,-4.69324 2.475,-1.67217 5.5681,-3.37374 6.8735,-3.78127 1.3054,-0.40754 3.9876,-1.70551 5.9606,-2.8844 1.9729,-1.17888 5.4048,-2.84195 7.6265,-3.6957 2.9271,-1.12485 3.9523,-2.04673 3.7231,-3.34796 -0.5215,-2.96002 2.3804,-5.14895 15.3429,-11.57358 10.6928,-5.29968 12.3915,-6.4733 12.6615,-8.74758 0.208,-1.75147 1.8113,-3.73905 4.8119,-5.96508 4.4151,-3.27542 15.6693,-9.30598 20.2025,-10.82556 2.2314,-0.74798 2.2167,-0.78254 -0.5119,-1.20121 -5.5867,-0.85719 -1.5325,-5.63116 7.8094,-9.19601 2.75,-1.04939 7.475,-2.88281 10.5,-4.07427 8.8005,-3.46626 11.1307,-4.01179 17.4934,-4.09542 5.1582,-0.0678 5.6254,-0.21842 3.3075,-1.06637 -1.7337,-0.63424 -5.4894,-0.65747 -10.5,-0.065 -8.4177,0.99542 -10.3009,0.74651 -10.3009,-1.36154 0,-1.9484 2.7085,-3.13017 9,-3.92688 3.025,-0.38306 5.7683,-0.86138 6.0963,-1.06293 0.328,-0.20154 2.838,-0.0121 5.5779,0.42104 5.8512,0.92495 7.8258,0.35215 7.8258,-2.2702 0,-2.68276 5.7509,-4.54453 12.0196,-3.89118 2.7609,0.28775 6.5859,0.0945 8.5,-0.42942 4.0507,-1.10867 5.9804,-0.68063 5.9804,1.32653 0,1.67521 4.2423,1.31636 15.7694,-1.33393 5.3353,-1.2267 7.6694,-2.28192 8.773,-3.96629 0.827,-1.26221 2.0268,-2.29493 2.6662,-2.29493 0.6394,0 2.1864,-0.96188 3.4378,-2.13752 1.3788,-1.29529 3.8792,-2.25176 6.3459,-2.42746 7.7811,-0.55423 10.3796,-1.70285 18.9194,-8.36295 4.7235,-3.6839 9.3825,-7.14128 10.3531,-7.68306 1.9392,-1.08245 11.7352,-14.26057 11.7352,-15.78693 0,-0.84768 -5.554,-13.05846 -8.1822,-17.9891 -1.5286,-2.86765 -3.9994,-20.9634 -4.2786,-31.33523 -0.1365,-5.07224 -0.7194,-9.79724 -1.2954,-10.5 -1.0639,-1.29826 -2.5001,-25.56218 -2.2625,-38.22462 0.1283,-6.83763 2.1754,-12.22801 7.5678,-19.92668 0.798,-1.1393 1.4509,-2.83919 1.4509,-3.77753 0,-2.70529 2.9083,-5.01135 5.3554,-4.24645 5.4093,1.69083 17.0726,13.06512 23.4792,22.89753 2.5086,3.85 6.9556,9.62236 9.8822,12.82746 2.9266,3.20511 5.9321,7.25511 6.679,9 1.6827,3.93148 7.0648,9.12396 8.5229,8.22276 0.5947,-0.36754 1.0813,-1.75143 1.0813,-3.07531 0,-1.32388 0.7645,-4.01014 1.6988,-5.96945 1.6182,-3.3935 1.609,-3.7144 -0.1949,-6.7681 -1.0415,-1.76314 -1.7974,-4.46794 -1.6799,-6.01067 0.1515,-1.98829 -0.6377,-3.59425 -2.7106,-5.51583 -3.8329,-3.55304 -6.1134,-9.28081 -6.1134,-15.35437 0,-3.54042 -0.6874,-5.93803 -2.4783,-8.64424 -1.363,-2.05971 -2.7734,-5.31256 -3.1342,-7.22856 -0.3608,-1.916 -1.4236,-4.38364 -2.3617,-5.48364 -0.938,-1.1 -3.5046,-5.17539 -5.7034,-9.05641 -4.2626,-7.52367 -5.9478,-13.98512 -4.1974,-16.09415 1.1998,-1.44572 -1.3886,-10.70606 -3.7535,-13.42818 -0.7543,-0.86831 -1.3715,-1.96037 -1.3715,-2.42682 0,-1.84887 -7.6159,-11.75816 -11.454,-14.9032 -2.2394,-1.83507 -4.7409,-4.60348 -5.5589,-6.15203 -0.8179,-1.54855 -2.3871,-3.78667 -3.4871,-4.97359 -1.1,-1.18692 -3.2503,-3.55043 -4.7785,-5.25223 -1.5282,-1.70181 -5.2013,-4.27955 -8.1625,-5.72831 -2.9611,-1.44876 -6.0428,-3.38808 -6.8482,-4.3096 -1.5893,-1.81845 -5.7108,-10.79868 -5.7108,-12.44307 0,-2.59567 -4.7282,-10.05763 -7.1745,-11.32267 -1.5022,-0.77678 -4.124,-3.43675 -5.8264,-5.91104 -1.7023,-2.47428 -3.476,-4.4987 -3.9414,-4.4987 -0.4654,0 -2.2709,-1.33091 -4.0123,-2.95757 -2.8017,-2.61724 -6.9845,-5.22522 -17.5991,-10.97306 -4.5348,-2.45563 -9.8369,-6.29102 -10.7499,-7.77623 -0.442,-0.71896 -2.536,-2.19098 -4.6533,-3.27115 -2.1173,-1.08017 -5.1307,-3.48328 -6.6964,-5.34025 C 1287.9873,156.39166 1261.2177,140 1255.4587,140 c -1.8046,0 -4.2036,-1.13802 -6.3243,-3 -1.8792,-1.65 -4.1731,-3 -5.0974,-3 -0.9243,0 -6.4212,-1.65074 -12.2152,-3.66831 -5.794,-2.01758 -12.3346,-3.98767 -14.5346,-4.37798 -2.2,-0.39032 -7.652,-1.47961 -12.1155,-2.42064 -8.0157,-1.68995 -8.1671,-1.68462 -12.3199,0.43398 -4.0937,2.08842 -4.3235,2.09948 -8.722,0.41969 -3.8896,-1.48543 -5.0267,-1.54563 -8.1801,-0.43302 -2.0144,0.71073 -4.4319,1.96523 -5.3722,2.78778 -1.0512,0.91955 -2.6412,1.26174 -4.1284,0.88849 -4.4144,-1.10794 -13.3937,1.38153 -25.1654,6.97706 -6.3983,3.04132 -12.39,6.19466 -13.3149,7.00742 C 1124.1232,144.99384 1113.9279,152 1112.856,152 c -0.6362,0 -5.1477,3.78222 -10.0256,8.40493 -4.8778,4.62271 -9.9205,8.72326 -11.206,9.11234 -2.7351,0.82784 -7.8372,5.36158 -7.8372,6.96412 0,0.60896 -2.5229,3.11227 -5.6064,5.56291 -3.0835,2.45063 -7.021,5.99951 -8.75,7.88639 -1.729,1.88688 -5.5061,5.87389 -8.3936,8.86003 -2.8875,2.98614 -5.25,5.95214 -5.25,6.59111 0,0.63897 -2.0538,3.3988 -4.564,6.13295 -7.0642,7.69437 -16.436,22.03935 -16.436,25.15788 0,0.74695 -2.7,6.74425 -6,13.32734 -3.3,6.58309 -6,12.88605 -6,14.00658 0,1.12053 -1.2772,4.85409 -2.8382,8.2968 -4.3079,9.50099 -10.1492,30.82328 -10.1737,37.13701 -0.014,3.51067 -2.178,12.17737 -3.7962,15.20113 -0.8488,1.58592 -0.7413,2.55674 0.4753,4.29367 1.2488,1.78297 1.3418,2.7496 0.4524,4.70166 -1.398,3.06831 -1.4822,22.60059 -0.1033,23.97945 1.2844,1.28438 3.119,34.25366 2.022,36.33729 -0.9546,1.8133 1.2125,18.77807 2.7708,21.68967 0.5877,1.09808 1.5936,5.94235 2.2354,10.76506 1.4099,10.59534 3.3774,16.29838 8.1606,23.65467 1.9894,3.05964 4.1442,7.55964 4.7884,10 1.415,5.36009 5.7413,15.49705 8.082,18.93701 0.9356,1.375 2.3754,4.77249 3.1995,7.54998 1.5642,5.27186 8.0297,18.85831 10.2076,21.45002 0.6932,0.825 2.0622,3.975 3.0421,7 0.98,3.025 3.2878,7.34635 5.1285,9.60299 1.8408,2.25665 3.3651,4.50665 3.3874,5 0.089,1.95981 5.6347,7.27742 8.2831,7.94212 1.7357,0.43563 4.741,3.05031 7.8509,6.83035 5.8843,7.15239 10.0634,10.49529 18.3254,14.65859 3.3,1.66291 9.3726,5.48553 13.4947,8.49471 4.1221,3.00918 7.9116,5.47124 8.421,5.47124 2.5772,0 13.4226,6.27377 13.882,8.03034 0.6277,2.40043 1.9176,2.43696 10.4968,0.2973 z"
     id="path2987"
     inkscape:connector-curvature="0" />
</svg>
