<?xml version="1.0" encoding="UTF-8" standalone="no"?>
<!-- Created with Inkscape (http://www.inkscape.org/) -->

<svg
   xmlns:dc="http://purl.org/dc/elements/1.1/"
   xmlns:cc="http://creativecommons.org/ns#"
   xmlns:rdf="http://www.w3.org/1999/02/22-rdf-syntax-ns#"
   xmlns:svg="http://www.w3.org/2000/svg"
   xmlns="http://www.w3.org/2000/svg"
   xmlns:sodipodi="http://sodipodi.sourceforge.net/DTD/sodipodi-0.dtd"
   xmlns:inkscape="http://www.inkscape.org/namespaces/inkscape"
   id="svg2"
   version="1.1"
   inkscape:version="0.48.2 r9819"
   width="1158.1497"
   height="963.04944"
   sodipodi:docname="M - Dragon.svg">
  <metadata
     id="metadata8">
    <rdf:RDF>
      <cc:Work
         rdf:about="">
        <dc:format>image/svg+xml</dc:format>
        <dc:type
           rdf:resource="http://purl.org/dc/dcmitype/StillImage" />
        <dc:title></dc:title>
      </cc:Work>
    </rdf:RDF>
  </metadata>
  <defs
     id="defs6" />
  <sodipodi:namedview
     pagecolor="#ffffff"
     bordercolor="#666666"
     borderopacity="1"
     objecttolerance="10"
     gridtolerance="10"
     guidetolerance="10"
     inkscape:pageopacity="0"
     inkscape:pageshadow="2"
     inkscape:window-width="1920"
     inkscape:window-height="1176"
     id="namedview4"
     showgrid="false"
     fit-margin-top="0"
     fit-margin-left="0"
     fit-margin-right="0"
     fit-margin-bottom="0"
     inkscape:zoom="0.68322293"
     inkscape:cx="464.44548"
     inkscape:cy="490.65997"
     inkscape:window-x="0"
     inkscape:window-y="24"
     inkscape:window-maximized="1"
     inkscape:current-layer="svg2" />
  <path
     style="fill:#000000"
     d="m 836.36027,962.0549 c -2.4013,-1.39863 -4.75,-6.21691 -4.75,-9.7445 0,-1.60817 0.675,-4.83709 1.5,-7.17539 0.825,-2.3383 1.5,-4.64488 1.5,-5.12573 0,-1.46841 -2.364,-0.93617 -5,1.12573 -3.0122,2.35615 -9.6546,2.63066 -12.6632,0.52333 -1.1596,-0.81217 -2.3933,-2.61217 -2.7416,-4 -1.4144,-5.6354 -5.6893,-0.99007 -7.0783,7.69159 -0.8299,5.18711 -2.2073,5.56182 -6.1048,1.66068 -2.4511,-2.45347 -3.6414,-4.79651 -4.3571,-8.57704 -1.2052,-6.36525 -0.2234,-9.70771 5.0722,-17.2693 2.5001,-3.56992 3.4911,-5.81099 2.8521,-6.45 -1.5552,-1.55514 -1.1621,-3.20855 1.5207,-6.39689 2.5218,-2.99699 3.4988,-9.18237 1.4503,-9.18237 -1.8787,0 -6.3945,2.75028 -8.8746,5.40499 -1.3334,1.42725 -2.7959,2.59501 -3.25,2.59501 -0.4541,0 -0.8183,-2.3625 -0.8093,-5.25 0.032,-10.21529 7.2517,-17.54282 19.4836,-19.77481 12.6878,-2.31518 12.5449,-2.31555 16.8601,0.043 2.2769,1.24451 5.4899,3.50877 7.1399,5.03168 5.3588,4.94609 12.7161,8.51753 20.3143,9.86124 4.0229,0.71142 7.4772,1.13071 7.6761,0.93175 0.199,-0.19896 -0.1675,-2.11356 -0.8143,-4.25469 -0.9633,-3.18841 -1.9715,-4.24741 -5.5713,-5.8516 -4.6541,-2.074 -13.1048,-9.99119 -13.1048,-12.27745 0,-0.74654 -1.6444,-2.61158 -3.6542,-4.14455 -2.187,-1.66809 -4.7641,-5.13399 -6.4184,-8.6319 -1.5202,-3.21458 -3.4367,-6.59574 -4.2587,-7.51368 -2.2091,-2.46675 -8.099,-14.73978 -10.596,-22.07925 -1.3643,-4.00999 -2.2161,-9.06496 -2.2749,-13.5 -0.052,-3.89936 -0.4978,-7.61042 -0.9913,-8.24681 -0.4934,-0.63639 -3.6893,-1.45954 -7.1018,-1.82922 -3.4126,-0.36968 -7.5637,-1.13947 -9.2247,-1.71066 -2.2909,-0.78776 -4.1077,-0.66925 -7.5247,0.49083 -2.4775,0.84115 -8.2173,1.85322 -12.755,2.24905 -7.9073,0.68976 -10.8882,0.37118 -25.7003,-2.74671 -6.4424,-1.3561 -20.4919,-5.5749 -22.7364,-6.82731 -0.9551,-0.5329 -2.224,-0.96891 -2.8199,-0.96891 -0.5958,0 -3.0557,-1.357 -5.4663,-3.01556 -2.4106,-1.65855 -5.7894,-3.29684 -7.5084,-3.64064 -2.0244,-0.40489 -3.4415,-1.45624 -4.0225,-2.98444 -1.0142,-2.66749 -4.6364,-3.16602 -8.2622,-1.13713 -4.681,2.61927 -11.7395,3.863 -25.1843,4.4375 l -14,0.59824 -5.1901,4.87101 c -2.8546,2.67906 -5.6509,4.87102 -6.214,4.87102 -1.6948,0 -6.0959,7.27553 -6.0959,10.07715 0,2.79454 2.7105,5.92285 5.1317,5.92285 0.8109,0 3.3924,1.41057 5.7367,3.1346 3.016,2.21801 3.9509,3.44614 3.197,4.2 -0.586,0.58597 -1.0654,2.22527 -1.0654,3.64289 0,3.7417 -2.4735,6.69843 -6.7531,8.07241 -2.0608,0.66162 -4.5163,1.8744 -5.4566,2.69505 -1.0522,0.91827 -2.6426,1.25794 -4.1356,0.88324 -1.5491,-0.38879 -2.8709,-0.0727 -3.657,0.87462 -0.8739,1.05289 -2.3081,1.31128 -4.9413,0.89022 -3.3089,-0.52912 -4.0099,-0.23698 -6.4825,2.70153 -2.1614,2.56866 -2.6587,3.99521 -2.2567,6.47288 1.015,6.25482 -4.9712,11.96422 -8.3172,7.93256 -2.0793,-2.50538 -7.5804,-1.84675 -11.14,1.33378 -2.9626,2.64707 -3.0966,3.04888 -2.0334,6.09867 1.3169,3.77772 0.2686,6.58515 -2.8255,7.56721 -1.8922,0.60054 -2.8973,3.50034 -1.2133,3.50034 0.4332,0 2.2683,1.2375 4.0779,2.75 2.291,1.91488 3.4126,3.81288 3.6934,6.25 0.2219,1.925 0.6922,5.384 1.0453,7.68666 0.9587,6.25264 -0.2693,10.72194 -4.262,15.51127 -5.067,6.07805 -8.0481,7.78779 -13.5924,7.79548 -5.4453,0.008 -5.9062,-1.04579 -2,-4.57153 l 2.75,-2.48219 -4.6022,0.62153 c -6.263,0.84584 -13.7367,-2.40346 -18.6912,-8.12623 -2.0386,-2.35474 -4.3816,-4.39815 -5.2066,-4.5409 -2.1998,-0.38064 -12.6696,1.95531 -19,4.23914 -6.2794,2.26545 -10.7702,5.06701 -16.5,10.2934 -3.9095,3.56606 -22.2088,13.10629 -29.8323,15.55288 -2.1077,0.67643 -5.7077,2.30235 -8,3.61314 -2.2947,1.31223 -5.8227,2.38867 -7.8503,2.3953 -2.8462,0.009 -3.8327,0.48473 -4.3431,2.09313 -0.3633,1.14459 -2.7317,3.39459 -5.2632,5 -3.9001,2.47337 -5.6207,2.91892 -11.272,2.91892 -7.1265,0 -11.1536,-1.9496 -12.4474,-6.02609 -1.5806,-4.98005 -7.397,0.53758 -8.602,8.16011 -0.978,6.18725 -1.9485,7.44007 -4.6452,5.99684 -3.3579,-1.79712 -4.4717,-6.27276 -4.0628,-16.32556 0.2875,-7.06486 0.9131,-10.3738 2.5985,-13.74313 2.3939,-4.78599 2.7467,-7.1154 1.3043,-8.61217 -0.5036,-0.5225 -1.5604,-3.2 -2.3485,-5.95 -1.2963,-4.52335 -1.7359,-5.03006 -4.6108,-5.31532 -4.301,-0.42677 -9.7011,3.06373 -12.142,7.84824 -1.075,2.10726 -2.3885,4.09952 -2.9187,4.42724 -1.7184,1.06197 -3.0646,-3.17925 -3.0613,-9.64442 0,-5.63521 0.4105,-6.9284 3.7836,-12.00163 4.4699,-6.72286 7.4079,-9.22165 12.4936,-10.62586 2.0619,-0.56932 5.1268,-2.19458 6.811,-3.61169 3.2067,-2.69824 3.6429,-2.81731 10.9086,-2.97741 4.1369,-0.0911 4.5255,-0.32101 4.8164,-2.84915 0.2906,-2.52527 0.037,-2.75 -3.101,-2.75 -1.8797,0 -5.5668,1.14277 -8.1936,2.53949 -2.6269,1.39671 -5.0003,2.31538 -5.2742,2.04148 -0.7291,-0.72916 2.6439,-8.77342 4.5851,-10.93461 3.6879,-4.10606 10.047,-6.8549 16.4385,-7.10592 3.4259,-0.13454 7.4103,-0.57092 8.8544,-0.96972 3.0476,-0.84165 12.318,3.48012 17.5074,8.16182 4.8695,4.39318 16.2326,9.62617 20.867,9.60979 6.3613,-0.0225 12.6872,-2.22983 19.384,-6.76381 3.8075,-2.57781 10.6018,-6.51503 15.0983,-8.74938 5.9627,-2.96286 9.8158,-5.77762 14.2352,-10.39919 6.6485,-6.95269 13.9344,-17.42198 17.0016,-24.42995 3.1827,-7.27196 5.9026,-18.91402 5.5802,-23.8855 l -0.2993,-4.6145 -21.5,-0.69549 c -25.5959,-0.828 -32.5287,-1.3801 -40.5,-3.22533 -12.7529,-2.95205 -17.2377,-4.36166 -23.9517,-7.52817 -3.8234,-1.80323 -9.1905,-3.94346 -11.9269,-4.75607 -2.7363,-0.8126 -7.258,-2.76498 -10.0483,-4.33861 -2.7902,-1.57363 -8.2231,-4.04596 -12.0731,-5.49406 -3.85,-1.4481 -7.45,-2.96909 -8,-3.37999 -0.55,-0.4109 -2.575,-1.35136 -4.5,-2.08992 -7.1126,-2.72885 -30.5105,-14.22154 -35.425,-17.40021 -2.7912,-1.80537 -6.4931,-3.83835 -8.2262,-4.51773 -1.7332,-0.67938 -4.1522,-2.30071 -5.3756,-3.60295 -1.2234,-1.30225 -3.6304,-2.67294 -5.3488,-3.04598 -1.7184,-0.37304 -7.8494,-3.17237 -13.6244,-6.22072 -16.8984,-8.91988 -18.2271,-9.58734 -24.0008,-12.05666 -7.3534,-3.14488 -18.7932,-8.72852 -22.4992,-10.98158 -2.2801,-1.38616 -4.3946,-1.7219 -8.8113,-1.39908 -6.7927,0.49649 -7.6887,1.76078 -7.6887,10.84937 0,4.30963 0.7466,6.92935 3.4804,12.21209 4.5729,8.83654 5.3201,12.62903 2.9945,15.19887 -1.3043,1.4412 -2.8523,1.9059 -5.739,1.72286 -3.2659,-0.20708 -4.3038,0.21144 -5.9714,2.40791 -2.871,3.78151 -3.5051,14.55416 -1.36,23.10743 2.1758,8.67582 2.2929,13.46516 0.3761,15.382 -1.2884,1.28836 -1.9398,1.33717 -3.8933,0.2917 -1.2903,-0.69055 -2.9724,-1.88196 -3.738,-2.64756 -4.4106,-4.4106 -8.1245,4.07173 -9.178,20.96192 -0.6985,11.19874 -1.9558,15.49164 -4.1414,14.14081 -0.519,-0.32073 -2.043,-0.3072 -3.3867,0.0301 -2.2511,0.56497 -2.4432,1.08467 -2.4432,6.60884 0,5.69118 -0.165,6.09627 -3.25,7.97721 -4.1512,2.53104 -3.1728,2.53554 2.3908,0.011 7.4487,-3.37991 15.8592,-1.86012 15.8592,2.86576 0,0.97588 1.1598,2.39505 2.5774,3.15372 1.4176,0.75867 3.0366,2.23739 3.5979,3.28604 1.3174,2.46157 1.3331,19.39442 0.021,22.73816 -1.3468,3.4324 -10.7827,13.66827 -13.3517,14.48364 -3.5554,1.12843 -4.1707,-1.00843 -1.2797,-4.44415 2.1371,-2.53989 2.7036,-4.29146 2.8063,-8.67762 0.182,-7.77239 -1.7205,-8.6905 -6.5124,-3.14282 l -3.6411,4.21531 -12.0427,-0.30407 c -10.3989,-0.26256 -12.571,-0.0346 -15.9119,1.66978 -5.0079,2.55482 -10.1102,7.71662 -11.9946,12.13429 -0.8211,1.925 -3.2424,5.40245 -5.3808,7.72766 -2.1383,2.32521 -3.904,4.80021 -3.9238,5.5 -0.06,2.12072 -4.2486,6.32824 -8.0168,8.05292 -1.954,0.89434 -4.429,2.59946 -5.5,3.78914 -1.071,1.18969 -3.9722,3.54508 -6.4472,5.23421 -6.8428,4.67001 -15.8762,12.73046 -16.5119,14.73348 -0.3116,0.98176 -2.2073,3.03652 -4.2127,4.56612 -2.8,2.13564 -4.7441,2.78109 -8.3767,2.78109 -2.6017,0 -5.3307,-0.4779 -6.0645,-1.06199 -0.7338,-0.58409 -2.9673,-1.58757 -4.9633,-2.22995 -1.996,-0.64238 -4.4282,-2.05103 -5.405,-3.13033 -2.3272,-2.57153 -5.1113,-2.49348 -6.544,0.18346 -1.7215,3.21673 -0.6097,11.00485 2.0928,14.66023 1.2888,1.74315 2.0406,3.472 1.6707,3.84188 -1.2821,1.28211 -8.2959,-1.62264 -12.3996,-5.13528 -3.2668,-2.79627 -4.3484,-4.57725 -5.2048,-8.57043 -2.2837,-10.64867 -0.9951,-19.33496 3.5764,-24.1065 3.3965,-3.5452 2.3827,-4.70212 -2.2039,-2.51493 -2.3054,1.09938 -6.0529,1.67922 -10.8526,1.67922 -8.4235,0 -12.0093,-1.93767 -13.3809,-7.23056 -1.1933,-4.6053 -3.3079,-5.51735 -8.4316,-3.63678 l -4.2884,1.57397 0.2552,6.14669 c 0.2281,5.49229 0.05,6.14668 -1.6733,6.14668 -2.7204,0 -8.1007,-4.80078 -9.7179,-8.67119 -3.1553,-7.55166 -0.855,-17.87072 5.4929,-24.64123 3.4151,-3.64246 10.3683,-6.68762 15.2702,-6.68762 3.669,0 3.8729,-0.16411 3.8729,-3.11765 0,-4.74191 5.9664,-10.18778 13.5036,-12.32556 3.298,-0.93543 7.3464,-2.15956 8.9964,-2.72029 9.781,-3.32397 9.7732,-3.32444 18.6503,1.11871 6.2234,3.11488 10.2561,4.40265 16.0704,5.1317 9.1524,1.14761 11.2332,0.38584 19.2213,-7.03683 2.7819,-2.585 6.633,-5.65252 8.558,-6.81671 4.9296,-2.98129 13.8845,-13.90082 16.0257,-19.54149 0.9917,-2.61245 2.3225,-7.99935 2.9574,-11.97089 0.6349,-3.97154 1.5718,-8.79599 2.082,-10.72099 3.0712,-11.58769 5.3694,-56.73937 3.3339,-65.5 -0.639,-2.75 -1.4605,-6.6875 -1.8257,-8.75 -0.3652,-2.0625 -0.756,-3.74322 -0.8686,-3.73494 -0.1126,0.008 -2.0047,0.65022 -4.2047,1.42654 l -4,1.41149 0.2932,7.91517 c 0.3471,9.3703 -0.6006,10.88564 -5.622,8.99026 -2.7977,-1.05601 -3.4186,-0.95557 -5.2183,0.84409 -1.8067,1.80675 -1.9248,2.55413 -1.0222,6.47005 1.6875,7.3217 1.3007,13.42085 -1.1104,17.50736 l -2.1797,3.69433 -1.9267,-2.37928 c -4.1355,-5.1072 -10.9393,-0.75796 -12.1435,7.76259 -1.1713,8.28802 -1.2125,8.34234 -6.3337,8.34234 -4.2633,0 -4.9611,0.37476 -8.8446,4.75 -3.8019,4.28336 -4.4198,4.6272 -6.2905,3.5 -3.018,-1.81856 -4.2758,-1.57018 -7.5958,1.5 l -2.9738,2.75 8.984,0.50409 c 11.9151,0.66856 18.484,3.47251 18.484,7.88999 0,1.6536 0.6434,3.36663 1.4299,3.80673 2.1592,1.20835 4.557,6.4092 4.5639,9.89915 0.014,6.86074 -9.6572,15.32167 -17.5771,15.37808 -4.4702,0.0318 -4.7347,-0.85182 -1.3939,-4.65674 1.6374,-1.86499 2.9772,-4.05023 2.9772,-4.8561 0,-1.74013 0.5075,-1.69933 -5.9365,-0.47725 -6.124,1.16139 -10.547,-0.49913 -12.0817,-4.53585 -0.5128,-1.34865 -1.48,-2.4521 -2.1494,-2.4521 -0.6694,0 -3.5262,2.4224 -6.3484,5.3831 -5.9695,6.26249 -10.2863,8.79512 -16.3029,9.56456 -3.3985,0.43464 -4.6771,1.16593 -6,3.43168 -0.9246,1.58363 -4.0299,5.12343 -6.9006,7.8662 -2.8707,2.74278 -5.4909,5.84213 -5.8227,6.88744 -0.3318,1.04531 -2.3139,2.77328 -4.4047,3.83994 -2.0908,1.06666 -4.8745,3.19661 -6.1859,4.73323 -1.3114,1.53662 -4.1805,3.98141 -6.3758,5.43287 -2.1953,1.45146 -5.7914,4.26361 -7.9914,6.24922 -2.2,1.98561 -4.5079,3.61055 -5.1287,3.61098 -0.6208,4.3e-4 -1.6547,1.23828 -2.2977,2.75078 -2.1606,5.08282 -5.7068,6.75519 -14.2158,6.70421 -6.5877,-0.0395 -8.2061,-0.41895 -11.7286,-2.75 -6.7881,-4.49218 -8.0643,-3.75869 -9.0263,5.18824 -0.5825,5.41785 -0.7101,5.61795 -3.7729,5.91494 -2.3692,0.22974 -4.0049,-0.43862 -6.4753,-2.64591 -3.0809,-2.75274 -3.3306,-3.45387 -3.6775,-10.32409 -0.3151,-6.23926 0.013,-8.21257 2.1357,-12.85409 1.3793,-3.01582 2.7369,-6.6083 3.0168,-7.9833 0.2798,-1.375 0.8412,-3.58357 1.2475,-4.90793 0.6721,-2.19111 0.5218,-2.34094 -1.6693,-1.66395 -7.1178,2.19921 -12.6147,-0.4227 -16.5082,-7.87403 -1.5949,-3.05213 -3.4622,-5.55041 -4.1497,-5.55171 -2.2667,-0.004 -5.1282,3.82233 -5.7518,7.69184 -1.215,7.53848 -1.5257,8.30578 -3.3623,8.30578 -2.8634,0 -4.7355,-2.9768 -6.12319997,-9.73642 -1.5599,-7.59863 -0.1612,-13.99775 3.87379997,-17.72296 1.4374,-1.3271 5.0885,-4.85981 8.1135,-7.85047 3.025,-2.99066 6.5125,-5.74972 7.75,-6.13125 1.2375,-0.38152 2.25,-1.25991 2.25,-1.95197 0,-1.34176 4.1085,-5.60693 5.401,-5.60693 0.4246,0 2.8085,-1.4625 5.2976,-3.25 6.0898,-4.37337 11.9003,-4.45365 18.3014,-0.25286 7.3324,4.81196 12.1348,6.67619 18.6318,7.23258 7.6798,0.65769 14.2831,-2.09245 22.3682,-9.31588 5.811,-5.19166 11.4624,-9.41384 12.6005,-9.41384 1.8699,0 10.4276,-7.7053 12.3433,-11.11386 1.2013,-2.13738 2.5227,-3.88614 2.9364,-3.88614 0.7408,0 2.1219,-2.67488 11.6175,-22.5 5.2895,-11.04359 5.4431,-11.42594 8.0379,-20 4.9602,-16.39006 12.545,-34.61541 17.4791,-42 1.1024,-1.65 2.4893,-4.76854 3.0819,-6.9301 0.5926,-2.16155 2.3029,-5.08655 3.8006,-6.5 l 2.7232,-2.5699 -1.2144,-11.5 c -1.2621,-11.95215 -3.6022,-24.33202 -5.5763,-29.5 -0.6302,-1.65 -2.7844,-5.25 -4.7871,-8 -6.0888,-8.36087 -11.4876,-18.09898 -13.86,-25 -1.7562,-5.10865 -2.408,-10.65848 -2.3022,-19.6031 0.1197,-10.12484 -0.1786,-10.55306 -9.8804,-14.18209 -6.7008,-2.50647 -21.7018,-8.36521 -30.5,-11.91192 -9.7221,-3.91918 -19.445,-9.18901 -25.0743,-13.59036 -1.6092,-1.25811 -7.8757,-6.10154 -13.9257,-10.76318 -12.902,-9.9412 -17.0895,-13.84996 -19.2293,-17.94935 -0.8612,-1.65 -3.0031,-4.8 -4.7597,-7 -2.589,-3.2427 -12.511,-25.41027 -12.511,-27.95206 0,-0.37185 -1.0566,-3.00976 -2.348,-5.86202 -4.3162,-9.53272 -5.8533,-21.22643 -5.4844,-41.72139 0.3203,-17.79231 0.4368,-18.70117 3.1997,-24.96453 6.7671,-15.34099 12.11,-25.74913 15.1387,-29.49099 1.7847,-2.20496 3.9732,-5.44375 4.8632,-7.19732 0.8901,-1.75358 3.5039,-4.67858 5.8085,-6.5 2.3046,-1.82143 7.4057,-6.57431 11.3358,-10.56195 3.9301,-3.98764 9.4451,-8.93764 12.2557,-11 8.2627,-6.06321 24.1041,-18.21027 32.9033,-25.22998 8.2737,-6.60056 13.4348,-10.55061 29.9896,-22.95276 5.0392,-3.77512 13.9648,-9.44 19.8348,-12.58861 5.87,-3.14862 12.5824,-7.1825 14.9165,-8.96419 2.3342,-1.78168 8.9335,-5.8317 14.6653,-9.00004 12.1165,-6.69767 24.2754,-14.37877 24.7546,-15.63813 0.1834,-0.48182 1.014,-0.87603 1.8459,-0.87603 0.8319,0 5.1819,-2.4122 9.6667,-5.36045 4.4847,-2.94825 9.9541,-6.27698 12.1541,-7.39719 15.5704,-7.92822 37.0343,-29.22656 48.0094,-47.63916 10.5387,-17.68029 13.5248,-31.3167 9.6205,-43.93204 -1.1625,-3.75586 -3.3011,-8.48086 -4.7525,-10.5 -3.2359,-4.50158 -13.3024,-11.51949 -19.3774,-13.50908 -5.602,-1.83465 -16.0794,-2.57586 -21.6638,-1.53257 -2.3228,0.43395 -8.1278,0.86591 -12.9001,0.95993 -9.4065,0.18531 -16.7376,2.25025 -20.5289,5.78239 -1.2429,1.15791 -3.037,2.35199 -3.987,2.65349 -2.193,0.69605 -4.7859,6.13844 -6.5719,13.79471 -3.1651,13.56738 -16.1094,30.88771 -24.066,32.20199 -15.3222,2.53091 -27.9314,6.48318 -29.6728,9.30072 -0.2777,0.44947 -3.7215,2.11209 -7.6529,3.69471 -6.4472,2.59547 -7.4937,3.42169 -10.6775,8.43002 -4.6419,7.30211 -13.9185,17.86134 -17.7382,20.19066 -2.0848,1.27137 -4.9664,1.85557 -9.1652,1.85813 -3.3683,0.002 -7.8774,0.62229 -10.0202,1.37829 -2.1427,0.75601 -6.3618,1.70315 -9.3757,2.10477 -3.0139,0.40161 -6.8298,1.51813 -8.4798,2.48116 -1.65,0.96302 -5.189,2.33876 -7.8644,3.05721 -3.4495,0.92633 -6.2126,2.65448 -9.5,5.94156 -5.6512,5.65078 -6.6676,6.07294 -16.1811,6.72038 -7.3994,0.50358 -7.5688,0.46235 -8.75,-2.13011 -0.6625,-1.45399 -1.2045,-5.53658 -1.2045,-9.0724 0,-4.66467 -0.5478,-7.32724 -1.9963,-9.70295 -2.7441,-4.5008 -2.547,-5.90922 1.5845,-11.32173 4.1429,-5.42753 5.8617,-9.77913 6.9015,-17.47261 1.1719,-8.67169 1.7883,-9.49895 12.0103,-16.11936 8.6515,-5.60329 17.9914,-14.69782 18.9284,-18.43123 0.3862,-1.53893 2.9686,-4.85257 5.7386,-7.36365 2.7699,-2.51107 5.6771,-5.80309 6.4603,-7.31559 0.7832,-1.5125 2.0789,-2.75 2.8793,-2.75 0.8004,0 1.7493,-1.2375 2.1087,-2.75 0.8042,-3.38509 3.1583,-6.20174 6.1347,-7.34001 1.9486,-0.74522 2.25,-1.58249 2.25,-6.25038 0,-3.8757 0.5619,-6.10419 2,-7.93248 1.1,-1.39842 2,-3.23794 2,-4.08781 0,-3.30895 2.534,-6.76552 8.325,-11.355968 9.232,-7.31817 13.9558,-10.27437 16.425,-10.27907 1.2375,-0.002 2.25,-0.45428 2.25,-1.00428 0,-0.55 0.4982,-1 1.107,-1 1.5995,0 13.4936,-5.790768 18.7795,-9.142958 2.4838,-1.57522 5.2639,-2.6267 6.1779,-2.33662 1.1067,0.35126 2.6141,-0.72127 4.5132,-3.210992 1.5682,-2.05613 3.6147,-4.501718 4.5476,-5.434639 0.9329,-0.932921 2.4926,-3.374428 3.4659,-5.425572 2.4874,-5.241815 11.3781,-14.063899 14.9677,-14.852328 4.3452,-0.954348 14.7567,-10.70371 19.0949,-17.880419 7.0918,-11.732147 9.351,-11.490571 6.311,0.674825 -2.2865,9.149545 -2.2206,8.608701 -1.0487,8.608701 1.0685,0 8.8547,-12.702568 12.4291,-20.27731 1.3556,-2.87248 3.2144,-7.8101897 4.1307,-10.9726897 1.5196,-5.24426796 3.4039,-7.595956 3.6057,-4.5 0.8612,13.2129817 -1.8914,31.4665627 -5.9699,39.5888387 -1.797,3.578659 -3.6631,20.168606 -2.267,20.154572 0.3604,-0.0036 2.0054,-0.900659 3.6554,-1.993411 1.65,-1.092752 3.6396,-1.989787 4.4213,-1.993411 0.7816,-0.0036 2.1316,-0.647858 3,-1.431632 0.8683,-0.783773 2.9287,-1.571273 4.5787,-1.75 2.8165,-0.305081 3.0029,-0.11088 3.0474,3.175043 0.061,4.474937 1.9892,4.841221 10.9376,2.077336 6.9267,-2.139423 15.3401,-2.921484 17.4436,-1.621448 0.7347,0.454027 0.9887,1.737478 0.6282,3.173726 -0.3329,1.326284 -0.1195,3.319055 0.4742,4.42838 1.0206,1.90697 1.703,1.979677 12.5142,1.333325 l 11.4347,-0.683631 1.5069,3.606478 c 1.2831,3.070868 2.2769,3.835139 6.6915,5.146158 2.8516,0.84682 7.3826,1.53968 10.0689,1.53968 6.4789,0 8.7528,1.3123 8.7528,5.05136 0,3.296478 1.6965,4.352108 12,7.466838 8.3622,2.52788 10.6525,5.52548 8.0036,10.4751 -1.5489,2.894148 -0.393,4.413138 6.1596,8.094428 7.6225,4.28235 11.237,8.29596 9.8332,10.91898 -1.5374,2.87261 -1.3105,3.46202 3.5036,9.10187 4.771,5.58936 5.567,8.89664 2.9682,12.33255 -1.9976,2.64109 -1.8441,5.81131 0.4209,8.69081 5.388,6.84964 6.5402,15.17666 2.6109,18.86806 -2.9433,2.76511 -3.2301,6.67923 -0.9606,13.1116 2.1125,5.98759 2.1275,10.49395 0.043,12.79774 -1.366,1.50943 -1.5087,2.35922 -0.6618,3.94173 1.5916,2.97384 1.3225,6.69346 -0.8655,11.96355 -1.0698,2.57696 -2.1341,6.2889 -2.3649,8.24875 -0.7699,6.53566 -3.8243,9.93663 -8.9242,9.93663 -3.7379,0 -4.7657,1.88708 -4.7657,8.74966 0,9.23321 -3.2647,14.58566 -6.7628,11.08756 -0.8837,-0.8837 -2.2896,-0.28482 -5.858,2.49524 -5.3326,4.15463 -7.2084,6.89825 -9.9418,14.54189 -2.2162,6.19719 -3.5738,7.06703 -7.4532,4.77541 -1.536,-0.90737 -3.4709,-1.64976 -4.2997,-1.64976 -1.7453,0 -13.6845,13.46599 -13.6845,15.43452 0,0.72632 -0.6966,1.89873 -1.548,2.60534 -1.2719,1.05558 -2.1668,0.98969 -5.0168,-0.36938 -4.1341,-1.97138 -3.3875,-2.6385 -12.6788,11.32952 l -6.3192,9.5 -5.711,0 -5.7111,0 -4.3319,5.5 c -2.3826,3.025 -5.8915,7.15021 -7.7975,9.16714 -3.4081,3.60634 -3.5361,3.64832 -7.7183,2.53202 -5.5346,-1.47727 -7.2379,-0.3706 -8.7892,5.71066 -0.6662,2.61156 -1.9239,5.53565 -2.7948,6.49798 -0.8709,0.96232 -1.5834,2.18865 -1.5834,2.72516 0,0.53651 -1.3401,3.08858 -2.978,5.67126 -2.5952,4.09222 -3.4157,4.69578 -6.3836,4.69578 -3.5843,0 -5.4878,1.73355 -13.6338,12.41618 -3.4463,4.51954 -5.6385,5.54988 -7.6112,3.57723 -1.4088,-1.40881 -5.8485,3.5556 -7.3307,8.19717 -0.9099,2.84922 -0.9035,4.6088 0.028,7.71827 1.245,4.15567 0.2479,7.04064 -2.4633,7.12711 -0.6202,0.0198 -2.4063,1.0821 -3.9693,2.36072 l -2.8417,2.32475 3.1528,3.59088 c 2.6024,2.964 2.9676,3.937 2.0917,5.57354 -1.5336,2.86553 -1.3102,4.11415 0.736,4.11415 0.9884,0 3.5547,1.8 5.7029,4 4.4668,4.57438 5.5721,4.79692 9.5957,1.93191 2.2399,-1.59495 2.9043,-2.85326 2.9043,-5.5 0,-3.69269 1.0462,-4.16929 4.6969,-2.13975 2.6846,1.49248 11.3031,12.41754 11.3031,14.32816 0,0.78604 1.023,1.37968 2.3776,1.37968 1.3076,0 2.9377,0.675 3.6224,1.5 0.6847,0.825 1.8341,1.5 2.5543,1.5 2.097,0 5.4457,-5.52445 5.4457,-8.98383 0,-3.05861 0.1192,-3.14948 3.25,-2.47731 1.7875,0.38377 4.0331,1.108 4.9902,1.6094 3.1581,1.65442 9.5923,11.20712 9.933,14.7473 0.3021,3.13902 0.6876,3.4867 5.1031,4.60208 l 4.7763,1.20653 3.0512,-3.47517 c 2.2187,-2.527 2.8927,-4.10696 2.47,-5.7908 -0.82,-3.26719 0.5562,-3.67798 5.0402,-1.50442 4.491,2.17695 8.031,5.71043 8.5422,8.52646 0.2255,1.24231 1.4524,2.18651 3.3498,2.57807 1.6467,0.3398 3.9913,1.24395 5.2102,2.00921 2.0194,1.26778 2.4901,1.12906 5.2985,-1.56157 2.7133,-2.59959 3.006,-3.4037 2.4458,-6.71946 -0.586,-3.46887 -0.4516,-3.76369 1.7016,-3.73105 1.2858,0.0195 3.3292,0.58647 4.5408,1.25995 2.7301,1.51764 12.2971,10.61076 12.2971,11.68806 0,0.43425 1.2375,1.02356 2.75,1.30956 1.5125,0.28601 3.7284,0.83065 4.9242,1.21032 1.7514,0.55605 2.4808,0.0976 3.75,-2.35685 0.8667,-1.67594 1.5758,-4.64451 1.5758,-6.59682 0,-3.29024 0.2229,-3.54966 3.0497,-3.54966 1.6773,0 4.2648,0.63891 5.75,1.41979 4.1262,2.1695 10.9998,9.77457 11.3702,12.58021 0.282,2.13542 0.9863,2.58909 4.8301,3.1109 2.475,0.33599 5.0277,0.41368 5.6728,0.17265 1.8525,-0.69226 4.4363,-6.97975 4.1173,-10.01919 -0.265,-2.52503 -0.03,-2.7378 2.7099,-2.45757 4.52,0.46223 9.8391,3.53373 11.3046,6.52785 0.7175,1.46595 1.7929,2.66536 2.3897,2.66536 0.5969,0 1.6888,0.7875 2.4264,1.75 0.9648,1.25873 1.5598,1.42161 2.1197,0.58023 0.4282,-0.64337 3.2492,-2.12634 6.269,-3.29548 18.2849,-7.07911 26.1991,-12.47183 38.7251,-26.38699 16.4069,-18.22647 18.937,-21.74651 20.2732,-28.2055 0.7106,-3.43516 2.6559,-8.09548 4.6108,-11.04577 3.9507,-5.96251 4.0313,-6.71484 1.3815,-12.89649 -1.4373,-3.35299 -2,-6.88775 -2,-12.56267 0,-9.07164 1.9292,-15.02628 5.4847,-16.92913 3.802,-2.0348 5.2832,-0.71392 6.0461,5.39178 0.4922,3.93939 1.5804,6.68223 3.7937,9.56197 3.5658,4.63961 5.9573,5.05876 9.6208,1.6862 2.2188,-2.04264 27.4761,-17.64815 28.5632,-17.64815 0.2209,0 3.4594,-1.43811 7.1966,-3.19581 9.4358,-4.4379 18.2949,-11.43595 18.2949,-14.45171 0,-3.10303 -1.8752,-2.9345 -5.2096,0.46819 -2.8406,2.89888 -10.1132,7.17933 -12.1978,7.17933 -1.879,0 -6.3124,-5.08321 -8.0396,-9.21788 -1.7875,-4.27917 -1.9417,-9.36136 -0.4789,-15.78212 1.6075,-7.05627 9.9534,-22.69606 15.1317,-28.35627 2.5882,-2.82905 7.7632,-8.49589 11.5,-12.59297 14.9337,-16.37345 33.5039,-34.11736 40.8693,-39.05076 1.2317,-0.825 6.6032,-4.875 11.9365,-9 9.6471,-7.4614 27.4495,-20.23897 36.9884,-26.54814 4.3588,-2.88303 22.5105,-15.40133 43.5,-29.99988 3.575,-2.48647 8.975,-6.14363 12,-8.12703 3.025,-1.98339 8.4552,-5.54775 12.0671,-7.92078 3.6119,-2.37304 7.6619,-4.77203 9,-5.33108 3.4984,-1.46165 10.8671,-5.87071 18.667,-11.16934 3.7212,-2.52794 16.2159,-10.13289 27.7659,-16.89988 11.55,-6.766988 22.6778,-13.361178 24.7286,-14.653748 2.0507,-1.29257 4.0402,-2.350118 4.4212,-2.350118 0.381,0 1.4031,-0.63429 2.2715,-1.40953 2.0584,-1.83783 31.1272,-18.590474 32.2577,-18.590474 0.7237,0 4.9776,-2.270015 18.821,-10.04342 3.4568,-1.941091 17.8502,-8.95658 18.3759,-8.95658 0.3142,0 3.8456,-1.617804 7.8477,-3.59512 4.002,-1.977316 11.7764,-5.311428 17.2764,-7.409138 5.5,-2.09771 12.25001,-4.944712 15.00001,-6.326671 15.866,-7.973156 29.0724,-11.30625 34.1117,-8.609292 5.3742,2.876166 2.0247,7.033116 -10.6797,13.25434 -5.2441,2.568026 -12.5598,6.697906 -16.2571,9.17751 -3.6972,2.479604 -6.9838,4.508371 -7.3035,4.508371 -0.3198,0 -2.5817,1.35 -5.02651,3 -2.4448,1.65 -4.6716,3 -4.9483,3 -1.5285,0 -14.8234,9.622712 -20.4895,14.830118 -6.8004,6.249889 -16.5133,19.379984 -15.5223,20.983424 0.3083,0.49892 2.6612,1.19505 5.2287,1.54696 4.8444,0.664 12.6716,4.07316 14.5511,6.33779 2.1054,2.53691 -0.9362,4.30171 -7.4139,4.30171 -5.1476,0 -7.0562,0.58055 -13.3737,4.067878 -6.6797,3.68732 -15.3633,9.88818 -19.4519,13.89047 -3.1812,3.11404 -7.844,11.09229 -8.4875,14.52251 -0.4584,2.44343 -0.1818,4.2606 0.8997,5.9112 1.4596,2.22769 2.2792,2.40779 12.5576,2.7596 9.2139,0.31537 11.4505,0.7145 13.8005,2.46268 1.5425,1.14747 2.9412,2.99866 3.1081,4.11376 0.2707,1.80827 -0.4218,2.10512 -6.4065,2.74603 -5.2095,0.55789 -9.4145,2.01894 -18.8036,6.5334 -10.3869,4.99428 -13.0812,6.81429 -19.0934,12.89766 -8.2891,8.38716 -12.4995,15.59687 -12.2052,20.89927 0.1919,3.45656 0.4315,3.71404 3.7052,3.98162 1.925,0.15734 4.9121,1.02003 6.638,1.91709 2.9077,1.51132 3.3958,1.50867 6.6511,-0.0361 1.9322,-0.9169 3.9854,-1.66709 4.5626,-1.66709 1.4703,0 19.1166,-5.67551 28.366,-9.12322 4.2448,-1.58223 8.5423,-2.87678 9.55,-2.87678 1.0078,0 2.2598,-0.35814 2.7823,-0.79586 1.7459,-1.46262 23.0435,-7.82732 34.2668,-10.24052 2.37431,-0.5105 4.69841,-1.16397 5.16471,-1.45217 0.7427,-0.45903 4.9332,-1.55651 25.0185,-6.55227 8.329,-2.07165 18.4416,-2.38423 21.8661,-0.67588 2.8969,1.44517 3.4623,1.40589 8.1262,-0.56456 4.6587,-1.96822 5.7012,-2.04136 14.7602,-1.03562 6.9453,0.77107 11.6161,1.93212 16.2475,4.03871 3.575,1.62608 7.7501,3.475 9.2781,4.10869 3.9495,1.63803 4.5673,4.06602 1.6387,6.4403 -2.0477,1.66008 -3.4852,1.88308 -9.4122,1.4602 -8.5182,-0.60774 -19.4437,0.79672 -25.5046,3.27858 -2.475,1.01348 -6.7441,2.14448 -9.4868,2.51333 -7.6902,1.0342 -13.8668,4.68679 -15.6032,9.22707 -0.4733,1.2375 -1.5466,2.25 -2.3853,2.25 -0.8386,0 -1.5247,0.78822 -1.5247,1.7516 0,1.15326 1.9642,2.67215 5.75,4.44648 6.5291,3.06002 19.6368,4.8839 37.75,5.25272 35.2663,0.7181 49.97702,1.65795 55.78282,3.5639 3.2401,1.06368 9.7895,2.43363 14.5542,3.04433 15.4549,1.98092 24.7578,6.78878 23.9575,12.38154 -0.5304,3.70611 -6.4976,4.79589 -16.6061,3.03274 -5.3406,-0.93151 -10.8657,-1.26923 -14.3389,-0.87647 -3.4258,0.3874 -7.5851,0.14316 -10.5642,-0.62034 -9.87922,-2.53197 -20.22262,1.44087 -18.77432,7.21113 1.3454,5.36067 8.2988,9.91077 19.48902,12.75299 1.925,0.48893 6.65,1.84416 10.5,3.01161 3.85,1.16745 11.0349,3.01188 15.9664,4.09873 4.9315,1.08685 10.3315,2.41589 12,2.95343 3.7376,1.20414 14.6487,3.95644 20.0336,5.05342 2.2,0.44817 6.7,1.55115 10,2.45107 3.3,0.89991 8.475,2.21275 11.5,2.91741 8.2581,1.92371 14.2992,3.65651 16.2063,4.64852 0.9385,0.48817 3.5547,1.18315 5.8139,1.5444 2.2591,0.36125 5.6662,1.71458 7.5712,3.0074 1.9051,1.29281 4.9083,3.09753 6.6737,4.01048 1.7655,0.91295 4.3901,2.83059 5.8325,4.26141 5.8052,5.75845 10.2353,9.14547 12.7516,9.74926 7.4379,1.78469 15.6012,8.30184 13.2917,10.61134 -0.9768,0.97682 -2.0013,0.79257 -4.9368,-0.88784 -2.0372,-1.16625 -5.2791,-2.43096 -7.2041,-2.81047 -1.925,-0.37951 -5.525,-1.3003 -8,-2.0462 -2.475,-0.7459 -7.425,-1.86566 -11,-2.48835 -3.575,-0.62269 -7.8186,-2.08176 -9.4302,-3.24239 -2.2127,-1.59347 -5.2737,-2.31107 -12.5,-2.93043 -5.2634,-0.45111 -16.3198,-1.5529 -24.5698,-2.44842 -28.205,-3.06157 -63.4088,-4.09095 -64.167,-1.87627 -0.1937,0.56581 1.1147,1.8934 2.9074,2.9502 3.4134,2.0121 9.7596,8.24103 9.7596,9.57916 0,4.0058 -2.8195,4.86574 -8.2161,2.50588 -3.0139,-1.31795 -9.2486,-2.75081 -23.78392,-5.46601 -4.5739,-0.8544 -34.6197,-2.91843 -49.5,-3.40045 -4.7879,-0.1551 -34.2499,2.19459 -36.7721,2.93268 -0.9746,0.28522 -7.4996,1.1603 -14.5,1.94462 -18.3665,2.05777 -20.3124,2.45693 -20.93151,4.29356 -0.3025,0.8974 -1.6139,3.9577 -2.9142,6.80068 -2.1243,4.64456 -2.3079,6.12532 -1.8092,14.59337 0.726,12.32805 2.2514,16.68014 6.74281,19.23758 5.7835,3.29313 17.5955,13.39482 20.7424,17.73911 3.072,4.24066 3.6561,7.55769 1.9066,10.82663 -1.2684,2.37011 -3.7017,2.48236 -6.1321,0.28288 -3.7317,-3.37712 -18.32451,-8.312 -29.82301,-10.08527 -1.9196,-0.29604 -3.9911,-1.22319 -4.6032,-2.06032 -0.9914,-1.35586 -1.3716,-1.34085 -3.4822,0.13746 -1.4498,1.01544 -4.334,1.65951 -7.4315,1.65951 -2.7842,0 -7.5215,0.85978 -10.5275,1.91061 -3.0059,1.05084 -7.7153,2.22462 -10.4653,2.6084 -2.75,0.38378 -5.9,1.25493 -7,1.93589 -1.1,0.68095 -4.475,2.00871 -7.5,2.95056 -3.025,0.94185 -6.6944,2.36093 -8.1543,3.1535 -1.4599,0.79257 -3.5106,1.44104 -4.5572,1.44104 -2.3456,0 -6.3577,3.1612 -17.1296,13.49677 -13.6069,13.0557 -25.8187,33.65611 -24.8606,41.93793 1.1432,9.8825 5.2768,18.41761 10.1747,21.00921 8.1729,4.32447 19.0736,14.22677 21.1612,19.22308 1.628,3.89622 1.7503,7.74595 0.3306,10.39875 -1.2448,2.32601 -4.2346,2.51902 -6.0035,0.38758 -3.7146,-4.47571 -14.6238,-9.4533 -20.7186,-9.4533 -1.8675,0 -4.9879,-1.12651 -7.2294,-2.60992 -3.4705,-2.29666 -4.3261,-2.4767 -7.1278,-1.5 -1.7512,0.61046 -4.6979,1.10992 -6.5483,1.10992 -1.8504,0 -4.1457,0.43011 -5.1008,0.9558 -2.9278,1.61159 -14.6062,6.71044 -17.2452,7.52937 -2.3534,0.7303 -8.0988,3.44829 -19.4912,9.22065 -6.0816,3.08144 -26.8081,16.75556 -28.5154,18.81275 -0.6762,0.81478 -1.8182,1.48143 -2.5377,1.48143 -2.4154,0 -8.3771,4.4733 -9.6623,7.25 -0.7,1.5125 -1.838,2.75 -2.5287,2.75 -0.6908,0 -1.2559,0.60748 -1.2559,1.34996 0,2.45276 -5.7121,9.28815 -8.8469,10.58661 -2.0488,0.84865 -3.864,2.83063 -5.4215,5.91962 -1.2878,2.55409 -2.8503,5.54381 -3.4722,6.64381 -2.3408,4.14019 -4.2594,8.86523 -4.2594,10.48959 0,2.46397 7.3831,8.68161 15.9843,13.46105 4.1336,2.29693 12.3385,7.81737 18.2331,12.26765 12.034,9.08539 12.9625,9.49101 33.7343,14.73626 5.5029,1.38958 8.3205,3.67254 7.4221,6.01371 -1.2788,3.33244 4.8634,5.85246 17.1262,7.02655 8.5658,0.82012 11.5,2.47924 11.5,6.50256 0,3.75752 2.6416,5.16007 13.9317,7.39705 10.6085,2.10193 13.638,3.5325 13.3475,6.30302 -0.1215,1.15837 0.3285,2.53537 1,3.06001 1.7241,1.34718 9.9554,3.24255 14.0818,3.24255 4.7987,0 6.6408,0.87452 7.6977,3.65432 1.1574,3.04436 4.6837,4.35731 12.8886,4.79892 10.2353,0.55088 11.8892,1.21141 12.2464,4.89103 l 0.3063,3.15573 11.5437,0.0635 c 6.349,0.0349 12.0865,0.39896 12.75,0.80902 0.6634,0.41005 1.2063,1.78674 1.2063,3.05931 0,2.0133 0.6168,2.38805 4.75,2.88588 10.7853,1.29908 13.8381,2.04958 15.539,3.8201 1.2025,1.25178 3.2023,1.86223 6.1007,1.86223 4.953,0 10.3093,1.5899 12.89431,3.82738 1.246,1.07844 4.1445,1.5839 9.6103,1.67589 6.3908,0.10756 8.3325,0.52994 10.5865,2.30301 3.491,2.74596 5.2595,2.32225 16.393,-3.92758 4.7444,-2.6633 9.1734,-4.85053 9.8423,-4.86053 0.6688,-0.01 2.6938,-0.66227 4.5,-1.4495 8.9503,-3.90111 18.9251,-7.53146 24.7112,-8.99379 3.5351,-0.8934 6.9101,-2.01127 7.5,-2.48415 0.59,-0.47288 2.6329,-1.19397 4.5399,-1.60241 1.9069,-0.40845 4.1569,-1.08412 5,-1.50149 1.6049,-0.79457 6.4958,-2.81293 19.0328,-7.85441 4.125,-1.65878 13.57502,-6.09206 21.00002,-9.85173 7.425,-3.75967 15.6193,-7.64116 18.2097,-8.62553 4.6926,-1.78331 19.8474,-11.25436 27.1122,-16.94395 2.1021,-1.64628 5.2185,-3.27885 6.9253,-3.62793 1.7068,-0.34908 3.2679,-1.12858 3.4691,-1.73222 0.6032,-1.80966 -6.589,0.009 -13.2163,3.34204 -3.3,1.65962 -9.1613,3.96481 -13.025,5.12264 -4.7267,1.41641 -7.9778,3.0996 -9.9371,5.14471 -3.2484,3.3906 -5.0552,3.94261 -4.2208,1.28955 2.1418,-6.8102 4.235,-11.06145 7.6648,-15.56693 4.3641,-5.73282 8.4835,-8.86432 14.5181,-11.03635 13.5558,-4.87913 33.6871,-20.10196 35.1138,-26.55216 0.3156,-1.42701 1.1694,-3.94456 1.8973,-5.59456 2.8832,-6.53554 4.4889,-18.4402 4.4889,-33.2797 0,-14.55135 1.4313,-23.13279 4.1374,-24.80522 1.9214,-1.18747 3.8626,1.86671 3.8626,6.07709 0,2.33601 0.8441,6.89341 1.8758,10.12756 2.3726,7.43808 4.4962,17.01359 6.7373,30.38027 3.1189,18.60125 1.6585,43.24058 -3.1709,53.5 -2.5615,5.44164 -9.5545,26.75768 -10.8048,32.93528 -1.2167,6.01129 -3.0454,7.79629 -4.6765,4.56472 -3.3529,-6.6426 -4.2193,-10.48587 -4.1605,-18.45447 0.035,-4.70004 -0.118,-8.54553 -0.3394,-8.54553 -0.2213,0 -1.5535,2.43318 -2.9604,5.40707 -2.9693,6.27672 -14.3475,17.53435 -30.0006,29.68267 -5.5,4.26855 -11.575,9.15274 -13.5,10.85375 -1.925,1.70102 -4.85,3.99374 -6.5,5.09492 -2.7363,1.8262 -19.1508,9.96159 -20.0991,9.96159 -0.2216,0 -7.7237,3.53673 -16.67132,7.8594 -8.9476,4.32268 -17.2721,8.178 -18.4989,8.56739 -2.8545,0.90597 -2.893,2.57321 -0.059,2.57321 1.1941,0 2.9456,0.70083 3.8921,1.5574 1.0984,0.994 4.7444,1.80795 10.0788,2.25 8.0261,0.66511 8.3697,0.79478 8.6573,3.26739 0.3794,3.26106 6.82142,6.58843 14.38982,7.43248 12.0594,1.34491 11.7407,1.20301 12.4338,5.53716 0.3479,2.17556 1.1866,3.95557 1.8639,3.95557 0.6772,0 4.6402,1.575 8.8066,3.5 4.1664,1.925 8.4188,3.5 9.4497,3.5 1.031,0 2.7479,0.64471 3.8156,1.43268 1.5558,1.14829 1.693,1.68424 0.6911,2.7 -0.6875,0.69703 -1.25,1.59429 -1.25,1.99393 0,1.02887 9.9494,6.58348 13.2764,7.41202 2.8826,0.71788 4.7611,3.1073 4.0325,5.12928 -0.2315,0.64236 2.5293,4.1916 6.1351,7.88722 3.6058,3.69561 6.556,7.08437 6.556,7.53056 0,0.4462 1.0125,1.90987 2.25,3.25262 1.2375,1.34274 3.8403,4.17842 5.784,6.30152 3.141,3.43097 6.966,9.94705 6.966,11.86694 0,0.38749 1.125,2.0415 2.5,3.6756 1.375,1.63409 2.5,3.65462 2.5,4.49006 0,0.83544 0.6216,2.71342 1.3814,4.17328 6.67,12.81582 8.4645,23.26467 8.8321,51.42833 0.192,14.70632 -0.026,17.66477 -1.4881,20.22596 -0.9422,1.65 -1.7159,3.51109 -1.7192,4.13576 -0.01,1.61686 -8.6209,18.01154 -12.2732,23.36424 -1.6887,2.475 -4.3108,6.3 -5.8269,8.5 -5.1169,7.42537 -12.4366,13.44407 -28.2221,23.20579 -2.8512,1.76318 -8.334,4.15228 -12.184,5.3091 -3.85,1.15683 -9.025,2.98262 -11.5,4.05731 -2.475,1.07469 -6.8622,2.38639 -9.7494,2.91489 -2.8871,0.5285 -6.6978,1.70993 -8.4681,2.62541 -2.0002,1.03434 -5.4187,1.63331 -9.0295,1.58211 -4.3967,-0.0623 -7.2398,0.59345 -11.68322,2.69487 -5.3717,2.54041 -6.3287,2.69228 -11.2212,1.78083 -2.9417,-0.54805 -10.0043,-0.92319 -15.6946,-0.83366 -9.2755,0.14594 -10.6724,-0.07 -13.5,-2.08693 -2.853,-2.03501 -4.121,-2.22213 -13.2862,-1.96068 -10.8275,0.30889 -15.3269,-0.8007 -22.246,-5.48605 -2.576,-1.74434 -4.6616,-2.25802 -8.7823,-2.16302 -4.5748,0.10547 -5.9183,0.60301 -8.7552,3.24231 -8.0973,7.53333 -13.5526,11.61768 -15.5172,11.61768 -1.3898,0 -2.4744,0.94431 -3.1585,2.75 -1.6271,4.29477 -4.8983,7.20821 -11.42721,10.17751 -6.4047,2.91282 -14.2093,4.42986 -17.9543,3.48993 -1.2519,-0.3142 -2.773,-1.66166 -3.3802,-2.99436 -1.5618,-3.4278 -3.9017,-3.00506 -5.8377,1.05468 -1.3476,2.82589 -1.4527,4.1481 -0.5608,7.05403 1.028,3.34963 0.9399,3.63623 -1.3905,4.52224 -3.1071,1.1813 -4.3943,1.15517 -6.6079,-0.13414 z m 142.75001,-89.26679 c 10.8317,-0.34404 13.3287,-1.07234 14.5325,-4.23867 0.8579,-2.25643 1.4089,-2.41443 8.41972,-2.41443 6.7796,0 7.6505,-0.22716 9.048,-2.35997 1.2245,-1.8688 2.7402,-2.48477 7.2827,-2.95955 7.6895,-0.80371 14.0688,-3.16819 17.7134,-6.56545 1.652,-1.53994 4.4537,-3.37023 6.226,-4.06731 4.9381,-1.94229 8.6841,-5.54618 7.897,-7.59741 -0.3956,-1.03087 0.01,-2.48502 0.9885,-3.56941 2.131,-2.3548 0.9983,-5.27542 -6.0298,-15.547 -2.7929,-4.08188 -6.203,-9.57093 -7.578,-12.1979 -1.375,-2.62696 -4.3,-6.6367 -6.5,-8.91052 -2.2,-2.27382 -4.9057,-5.16726 -6.0126,-6.42985 -3.7384,-4.2641 -11.3518,-10.00774 -16.3114,-12.30555 -2.712,-1.25649 -5.2376,-2.78078 -5.6125,-3.3873 -0.3748,-0.60653 -1.857,-1.10278 -3.29382,-1.10278 -1.4367,0 -3.3227,-0.61341 -4.191,-1.36314 -0.8683,-0.74973 -3.8287,-2.18569 -6.5787,-3.19103 -5.2909,-1.93423 -9.3464,-4.1698 -11,-6.06362 -0.55,-0.62991 -4.375,-1.93694 -8.5,-2.90452 -4.125,-0.96757 -9.075,-2.53504 -11,-3.48325 -4.1067,-2.0229 -10.3503,-3.3108 -11.325,-2.33609 -0.3751,0.3751 0.03,1.76897 0.9007,3.0975 1.3449,2.05266 1.4044,3.15864 0.3958,7.36281 -0.9287,3.87147 -0.9179,5.59664 0.05,7.9332 1.1521,2.78135 0.993,6.26675 -0.5973,13.08926 -0.4907,2.10503 0.1106,3.44508 2.9627,6.60194 1.9681,2.17845 5.3996,5.22296 7.6256,6.76557 4.5363,3.14366 10.9875,11.35072 10.9875,13.97799 0,1.4722 -0.8962,1.67747 -6.25,1.43142 -6.0996,-0.28033 -13.75,1.91541 -13.75,3.94644 0,1.17764 4.1934,8.89508 7.3491,13.52507 2.7108,3.97734 3.3471,7.96129 1.69,10.58155 -0.7522,1.18931 -1.6715,1.27327 -4.7997,0.43832 -2.1281,-0.56803 -4.4025,-0.85502 -5.0543,-0.63777 -1.7334,0.5778 -1.4521,4.02298 0.8154,9.98908 1.0998,2.8934 1.9995,7.44349 1.9995,10.11132 0,4.48983 0.1674,4.81892 2.25,4.42456 1.2375,-0.23433 3.375,0.0438 4.75,0.61794 1.375,0.57419 4.525,0.81458 7,0.5342 2.475,-0.28039 8.55,-0.63843 13.5,-0.79565 z m -89.5203,-21.84747 c -0.72,-1.81809 -1.8299,-3.98063 -2.4665,-4.80563 -0.6366,-0.825 -3.2956,-4.98941 -5.909,-9.25425 -2.6134,-4.26484 -5.7309,-8.25821 -6.92791,-8.87416 -1.197,-0.61595 -3.2214,-2.41403 -4.4988,-3.99575 -1.2773,-1.58171 -3.0173,-2.87584 -3.8665,-2.87584 -2.559,0 -1.354,12.09806 1.6035,16.0983 1.2774,1.72774 2.6284,4.28499 3.0022,5.68277 0.4883,1.82585 3.1806,4.05007 9.56211,7.89962 9.64,5.81527 11.7654,5.84323 9.5009,0.12494 z"
     id="path2989"
     inkscape:connector-curvature="0" />
</svg>
