<?xml version="1.0" encoding="UTF-8" standalone="no"?>
<!-- Created with Inkscape (http://www.inkscape.org/) -->

<svg
   xmlns:dc="http://purl.org/dc/elements/1.1/"
   xmlns:cc="http://creativecommons.org/ns#"
   xmlns:rdf="http://www.w3.org/1999/02/22-rdf-syntax-ns#"
   xmlns:svg="http://www.w3.org/2000/svg"
   xmlns="http://www.w3.org/2000/svg"
   xmlns:sodipodi="http://sodipodi.sourceforge.net/DTD/sodipodi-0.dtd"
   xmlns:inkscape="http://www.inkscape.org/namespaces/inkscape"
   id="svg2"
   version="1.1"
   inkscape:version="0.48.2 r9819"
   width="1629.0692"
   height="1088.855"
   sodipodi:docname="diamondfairybook00papiala_0089ib.png">
  <metadata
     id="metadata8">
    <rdf:RDF>
      <cc:Work
         rdf:about="">
        <dc:format>image/svg+xml</dc:format>
        <dc:type
           rdf:resource="http://purl.org/dc/dcmitype/StillImage" />
        <dc:title></dc:title>
      </cc:Work>
    </rdf:RDF>
  </metadata>
  <defs
     id="defs6" />
  <sodipodi:namedview
     pagecolor="#ffffff"
     bordercolor="#666666"
     borderopacity="1"
     objecttolerance="10"
     gridtolerance="10"
     guidetolerance="10"
     inkscape:pageopacity="0"
     inkscape:pageshadow="2"
     inkscape:window-width="1920"
     inkscape:window-height="1176"
     id="namedview4"
     showgrid="false"
     inkscape:zoom="0.73296089"
     inkscape:cx="806.65533"
     inkscape:cy="546.67663"
     inkscape:window-x="0"
     inkscape:window-y="24"
     inkscape:window-maximized="1"
     inkscape:current-layer="svg2"
     fit-margin-top="0"
     fit-margin-left="0"
     fit-margin-right="0"
     fit-margin-bottom="0" />
  <path
     style="fill:#000000"
     d="m 913.99983,1087.4518 c -1.7364,-0.802 -4.68485,-1.1834 -6.99995,-0.9053 -2.4214,0.2908 -4.6107,-0.018 -5.5473,-0.783 -1.3409,-1.0948 -5.4547,-11.882 -6.48399,-17.002 -0.19223,-0.9562 -1.53528,-3.2931 -2.98457,-5.1933 -4.24262,-5.5623 -4.35929,-17.5252 -0.28348,-29.0681 1.43233,-4.0565 3.80054,-26.4485 3.65094,-34.51965 -0.089,-4.7975 0.4429,-7.68671 2.0137,-10.93788 1.1741,-2.43003 2.1428,-5.12121 2.1529,-5.9804 0.01,-0.85919 1.36,-3.54239 3,-5.96265 1.6399,-2.42027 2.9818,-5.00777 2.9818,-5.75 0,-0.74224 0.3764,-1.34952 0.8364,-1.34952 0.9192,0 6.18345,-9.93032 6.53535,-12.3279 0.121,-0.82449 0.9535,-3.00051 1.85,-4.83559 2.698,-5.52286 4.7782,-10.57938 4.7782,-11.61519 0,-0.53704 0.652,-1.5176 1.449,-2.17903 2.0169,-1.67391 1.3974,-10.78772 -0.9913,-14.58336 -1.0242,-1.62741 -3.533,-4.81997 -5.5751,-7.09457 -4.47865,-4.98848 -6.19965,-8.26337 -7.81125,-14.86436 -0.6715,-2.75 -1.8286,-6.35 -2.5714,-8 -0.7429,-1.65 -2.529,-5.64398 -3.9692,-8.87551 -1.4401,-3.23153 -5.0537,-8.74605 -8.03012,-12.25449 -3.72566,-4.39159 -5.58856,-7.54589 -5.97943,-10.12449 -1.36259,-8.98919 -7.96537,-29.73806 -10.89773,-34.24551 -1.25233,-1.925 -3.5453,-5.525 -5.0955,-8 -1.5502,-2.475 -4.61555,-7.15397 -6.81188,-10.39771 -2.19633,-3.24374 -4.34143,-7.29374 -4.76689,-9 -0.42545,-1.70626 -1.33057,-4.67729 -2.01137,-6.60229 -0.6808,-1.925 -1.66141,-4.70489 -2.17913,-6.17754 -1.23449,-3.51152 -8.36386,-8.20343 -12.48135,-8.2141 -1.88504,-0.005 -4.1679,0.859 -5.5,2.08133 -1.25254,1.14933 -4.61198,3.25779 -7.46542,4.68547 -2.90959,1.45577 -6.8622,4.61666 -9,7.19727 -4.05219,4.89153 -16.50162,11.92158 -26.22558,14.80929 -6.44494,1.91394 -8.7925,3.19695 -13.41667,7.33257 -2.10668,1.88411 -5.70668,4.23778 -8,5.23038 -2.29332,0.9926 -5.55691,3.09862 -7.25241,4.68003 -1.69551,1.58142 -6.23097,5.40188 -10.07879,8.48993 -7.76833,6.23441 -23.24386,25.16854 -26.19771,32.05258 -2.23274,5.20346 -5.36081,12.1431 -9.25899,20.54109 -1.58497,3.41456 -2.88177,7.15665 -2.88177,8.31574 0,1.15909 -0.50156,3.09036 -1.11458,4.2917 C 714.1236,902.78822 704.44362,913 703.36155,913 c -0.65048,0 -2.8192,-5.46434 -3.57198,-9 -0.17565,-0.825 -0.84196,-6.74005 -1.48068,-13.14455 -1.2416,-12.44961 -1.08786,-13.3675 4.25257,-25.39014 2.51505,-5.662 3.36664,-9.46531 2.11937,-9.46531 -1.33403,0 -5.18099,4.87344 -5.18099,6.56343 0,1.92433 -2.87173,4.43657 -5.07143,4.43657 -2.67644,0 -2.418,-2.05028 1.07143,-8.5 1.65,-3.04979 3,-5.98494 3,-6.52254 0,-1.8883 -1.87268,-0.95287 -2.54755,1.27254 -0.37527,1.2375 -1.45914,3.15 -2.40858,4.25 -0.94945,1.1 -3.54642,5.68347 -5.77105,10.1855 -2.22462,4.50202 -4.99609,9.52149 -6.1588,11.15437 -1.16271,1.63288 -2.11402,3.66035 -2.11402,4.50548 0,0.84514 -0.39627,1.78152 -0.8806,2.08086 -1.4676,0.90703 -1.97793,5.79017 -0.86125,8.24102 0.57756,1.2676 2.10574,2.99641 3.39598,3.8418 1.29023,0.84539 2.34587,2.21284 2.34587,3.03877 0,0.82594 1.15562,1.94107 2.56805,2.47807 3.44344,1.30919 13.63927,10.18602 12.68693,11.04566 -0.41524,0.37481 -3.45498,1.67447 -6.75498,2.88813 -5.21655,1.91851 -7.13611,2.11715 -14.70081,1.52122 -9.21803,-0.72616 -11.3875,-1.58457 -19.57563,-7.7456 -4.98798,-3.75312 -14.37619,-15.26218 -17.71244,-21.71377 -3.13988,-6.07186 -0.44518,-28.59499 5.01869,-41.94779 1.47037,-3.59332 3.02157,-9.98548 3.51875,-14.5 1.08902,-9.88838 1.77164,-12.54079 3.84247,-14.93028 1.26848,-1.46368 1.536,-3.60028 1.26414,-10.09641 -0.32807,-7.83914 -0.0332,-9.67682 4.0195,-25.04703 1.90824,-7.23725 11.67624,-26.51192 16.04225,-31.65531 2.35569,-2.77513 6.98308,-7.83651 10.28308,-11.24752 7.74916,-8.00982 11.5962,-13.55739 14.97683,-21.59717 5.27624,-12.54788 15.40607,-32.87798 18.94672,-38.02519 1.96705,-2.85958 3.57645,-5.82374 3.57645,-6.58702 0,-0.76329 0.40186,-1.38779 0.89301,-1.38779 1.21075,0 2.10699,2.56189 2.10699,6.02277 0,1.57256 0.44584,3.13474 0.99076,3.47152 1.03397,0.63903 2.50385,-2.23895 5.87049,-11.49429 5.04449,-13.86797 6.4159,-16.75617 9.73402,-20.5 l 3.54516,-4 -0.80127,3.5 c -1.08914,4.7574 -0.93726,25.37757 0.1915,26 1.17978,0.65057 4.3941,-8.01262 5.524,-14.88818 0.48701,-2.9635 1.5585,-6.13188 2.3811,-7.04084 0.8226,-0.90896 1.98382,-3.92897 2.58049,-6.71113 1.10471,-5.15109 4.68466,-9.08263 9.48375,-10.41518 3.05697,-0.84882 1.92883,-4.93224 -2.33303,-8.44467 -2.00205,-1.65 -6.52466,-5.60621 -10.05023,-8.79157 -3.52558,-3.18536 -9.60663,-7.64635 -13.51344,-9.91331 -15.84855,-9.19625 -35.36499,-22.79831 -38.89847,-27.11045 -4.85894,-5.9297 -16.13061,-14.1553 -21.64343,-15.79448 -2.44123,-0.72588 -8.29123,-4.16086 -13,-7.63329 -6.6776,-4.92433 -10.5417,-6.94567 -17.5614,-9.18654 -4.95,-1.58016 -13.04013,-4.32049 -17.97807,-6.08962 -8.47885,-3.03774 -10.25821,-3.28778 -32,-4.49684 -12.66206,-0.70413 -24.37193,-1.81253 -26.02193,-2.4631 -1.65,-0.65057 -6.6,-1.84196 -11,-2.64754 -9.15106,-1.67545 -28.30472,-1.00679 -32.5,1.13457 -4.26222,2.17554 -23.26916,7.49609 -28.15357,7.88095 -2.552,0.20109 -5.05366,0.62126 -5.55923,0.93372 -0.50558,0.31247 -8.53953,0.39554 -17.85322,0.18461 -17.24566,-0.39058 -30.40712,-2.52585 -37.10647,-6.02004 -1.55513,-0.81111 -3.58929,-1.47752 -4.52035,-1.48091 -2.14913,-0.008 -8.36195,-3.65186 -11.39176,-6.68167 C 421.63677,528.04602 419.82029,527 418.87863,527 c -0.94167,0 -1.41893,-0.29319 -1.06059,-0.65153 C 418.55166,525.61485 413.97873,523 411.96213,523 c -0.72,0 -3.37246,-1.575 -5.89435,-3.5 -2.52188,-1.925 -5.65491,-3.5 -6.96229,-3.5 -1.30737,0 -3.66597,-0.67223 -5.24134,-1.49384 -1.57537,-0.82161 -3.65792,-1.49661 -4.62788,-1.5 -0.96996,-0.003 -2.54496,-0.44241 -3.5,-0.97561 -1.57408,-0.87881 -6.48626,-2.29975 -17.73643,-5.13062 -7.37847,-1.85663 -24.89288,-3.6524 -37.132,-3.80717 -23.03311,-0.29128 -36.93656,-3.43447 -47.57699,-10.75586 -2.61421,-1.79877 -6.59897,-3.04467 -13.5,-4.221 -5.38505,-0.91792 -11.00648,-2.48182 -12.49205,-3.47535 -1.65635,-1.10774 -3.49542,-1.55428 -4.75492,-1.15453 -1.38318,0.43901 -2.24978,0.14141 -2.65375,-0.91133 -0.32992,-0.85976 -0.97161,-1.33345 -1.42598,-1.05263 -0.45436,0.28081 -1.10877,0.0532 -1.45423,-0.50575 C 246.66446,480.45734 244.38336,480 241.94082,480 c -2.44254,0 -4.44098,-0.37777 -4.44098,-0.83948 0,-1.05675 -4.52996,-3.16052 -6.80539,-3.16052 -0.94121,0 -4.57717,-1.87257 -8.07991,-4.16126 -5.34139,-3.49006 -6.66855,-3.97395 -8.22809,-3 -1.02271,0.63869 -2.65308,1.14531 -3.62304,1.12582 -1.39264,-0.028 -1.2644,-0.31216 0.60966,-1.35113 2.36505,-1.31117 2.35815,-1.3228 -2,-3.372 -2.40527,-1.13097 -5.32638,-2.33445 -6.49135,-2.6744 -1.16496,-0.33995 -2.9222,-1.5066 -3.90498,-2.59256 C 197.99396,458.88851 196.82518,458 196.37946,458 c -0.44573,0 -3.8253,-3.00008 -7.51015,-6.66684 -6.54526,-6.51311 -6.64406,-6.68777 -4.28461,-7.57475 3.07241,-1.155 9.05471,-0.22903 13.75691,2.12937 2.64116,1.32468 5.92299,1.83908 11.80423,1.85021 4.4803,0.008 8.7553,0.4008 9.5,0.87181 0.7447,0.47102 3.154,0.97109 5.354,1.11128 2.2,0.14019 6.5875,0.52694 9.75,0.85945 3.1625,0.33251 5.75,0.20693 5.75,-0.27907 0,-0.83715 -9.89764,-6.30146 -11.41399,-6.30146 -1.25392,0 -12.0659,-5.16655 -12.59505,-6.0186 -0.27997,-0.45082 -5.67997,-3.46216 -12,-6.69187 -6.32003,-3.22971 -12.39096,-6.61329 -13.49096,-7.51907 C 182.68663,416.92511 177.50815,413 176.79015,413 c -0.46452,0 -2.22471,-1.2375 -3.91152,-2.75 -4.36404,-3.91307 -9.12241,-7.25 -10.3383,-7.25 -0.57227,0 -1.04049,-0.35291 -1.04049,-0.78425 0,-0.43134 -2.92441,-2.11884 -6.49868,-3.75 -3.57428,-1.63116 -6.49928,-3.21078 -6.5,-3.51026 -7.3e-4,-0.29949 -2.36382,-2.31818 -5.25132,-4.486 -2.8875,-2.16781 -5.578,-4.45335 -5.97889,-5.07898 -0.4009,-0.62563 -3.7759,-2.95598 -7.5,-5.17856 -6.31824,-3.77078 -13.27111,-9.59404 -13.27111,-11.115 0,-1.07367 -5.64219,-4.09659 -7.65429,-4.10095 -1.01514,-0.002 -4.32071,-2.25364 -7.34571,-5.0032 -3.024997,-2.74956 -6.287497,-5.25308 -7.249997,-5.56338 -0.9625,-0.31031 -1.75,-0.93664 -1.75,-1.39185 0,-0.45521 -1.11723,-1.88738 -2.48272,-3.18261 -1.3655,-1.29523 -2.4905,-2.64487 -2.5,-2.9992 -0.01,-0.35434 -1.36728,-2.08943 -3.01728,-3.85576 -1.65,-1.76633 -3,-4.09048 -3,-5.16477 0,-1.0743 -0.45084,-1.67463 -1.00187,-1.33407 -0.55103,0.34055 -1.40302,-0.42039 -1.8933,-1.69099 -0.49028,-1.27059 -2.06444,-3.31969 -3.49813,-4.55356 -1.43368,-1.23386 -2.6067,-2.9346 -2.6067,-3.77941 0,-0.84482 -1.8,-3.81321 -4,-6.59642 -2.2,-2.7832 -4,-5.7108 -4,-6.50576 0,-1.74789 -2.53499,-5.96055 -5.66135,-9.40804 -1.26338,-1.39316 -3.19497,-5.14284 -4.29242,-8.33262 -1.09745,-3.18979 -2.89445,-6.77493 -3.99335,-7.96699 -3.29859,-3.57823 -11.05288,-13.95978 -11.05288,-14.79775 0,-0.42944 -1.11858,-2.42913 -2.48575,-4.44376 -1.36716,-2.01463 -2.25456,-4.03703 -1.97199,-4.49424 0.28257,-0.4572 -0.39884,-1.31968 -1.51425,-1.91663 -1.1154,-0.59695 -2.02801,-1.68942 -2.02801,-2.42773 0,-0.7383 -0.675,-1.90257 -1.5,-2.58726 -0.825,-0.68469 -1.5,-2.39186 -1.5,-3.7937 0,-1.40185 -0.63256,-3.25925 -1.40569,-4.12756 -2.10037,-2.35894 -10.10683,-20.71551 -12.02882,-27.57874 -0.92414,-3.3 -2.26583,-7.89071 -2.98153,-10.20159 l -1.301281,-4.20158 3.006301,-0.6603 c 2.17214,-0.47708 3.24388,-0.23576 3.86255,0.86974 0.47093,0.84152 2.46175,3.18327 4.42404,5.20389 1.96229,2.02062 3.34063,4.26584 3.06299,4.98937 -0.27765,0.72354 1.26509,3.17609 3.42831,5.4501 2.16322,2.27402 3.93313,4.95495 3.93313,5.95762 0,2.55219 3.58751,6.83096 7.3383,8.75226 3.7615,1.9268 4.78925,3.28283 4.12036,5.43651 -0.29359,0.94531 0.53114,2.36714 2.02283,3.48735 1.38518,1.04023 2.51851,2.37553 2.51851,2.96733 0,0.59181 1.62455,1.71343 3.6101,2.4925 3.47026,1.36162 10.75429,9.9568 8.43795,9.9568 -1.5646,0 -1.26599,1.92492 0.58588,3.77679 1.31583,1.31582 1.36798,1.72258 0.26786,2.08928 -3.5116,1.17053 -5.45505,6.13393 -2.40179,6.13393 0.825,0 1.53553,0.7875 1.57895,1.75 0.0629,1.39393 0.19513,1.4448 0.64995,0.25 0.31404,-0.825 1.06602,-1.83061 1.67105,-2.23469 0.65597,-0.4381 0.29267,-0.7537 -0.89995,-0.7818 -1.97346,-0.0465 -1.97424,-0.0666 -0.0589,-1.51531 2.44884,-1.85221 4.55887,-1.88701 4.55887,-0.0752 0,0.76616 0.77489,1.69037 1.72197,2.0538 1.47512,0.56605 1.51096,0.79423 0.25,1.59167 -0.80958,0.51199 -1.24697,0.97222 -0.97197,1.02272 3.4099,0.62622 4.45191,1.00488 6.55217,2.38103 2.60152,1.70457 3.081,3.04841 1.44783,4.05777 -1.67942,1.03794 -1.11517,2.5 0.96482,2.5 1.08065,0 2.44648,0.9 3.03518,2 0.5887,1.1 0.77443,2 0.41274,2 -0.3617,0 -0.15807,0.60193 0.45249,1.33762 0.85446,1.02955 0.57559,1.62369 -1.21089,2.57978 -1.27655,0.68319 -2.32101,1.88126 -2.32101,2.66238 0,1.75451 1.29464,1.86029 2.08334,0.17022 0.45401,-0.97288 0.71031,-0.9799 1.15611,-0.0317 0.31503,0.67009 2.11503,1.50767 4,1.86129 3.07419,0.57677 4.92305,2.42042 2.42722,2.42042 -0.55,0 -1,0.47656 -1,1.05902 0,0.58246 0.41891,0.80012 0.9309,0.48369 0.512,-0.31644 1.21356,-0.11799 1.55902,0.44098 0.34546,0.55897 0.0391,1.04794 -0.6809,1.0866 -0.71996,0.0387 -0.40902,0.45702 0.69098,0.92971 1.34053,0.57605 1.5054,0.88518 0.5,0.93752 -1.56406,0.0814 -4.17381,4.55534 -3.21598,5.51317 1.12659,1.12658 3.13383,0.49881 2.62712,-0.82165 -0.28934,-0.75402 0.12331,-1.62015 0.91702,-1.92472 0.94303,-0.36188 2.67809,1.23939 5.00706,4.62095 1.96019,2.8461 3.47415,5.42565 3.36438,5.73234 -0.10978,0.30669 2.2754,2.74262 5.300397,5.4132 3.025,2.67057 5.67758,5.34465 5.89463,5.94239 0.59999,1.65238 6.19019,6.47895 8.26771,7.13833 1.01071,0.32078 1.83766,0.94833 1.83766,1.39454 0,0.44621 1.35,1.37048 3,2.05393 1.65,0.68345 3,1.63805 3,2.12132 0,0.48327 0.7875,1.70445 1.75,2.71373 0.9625,1.00928 2.40716,2.80278 3.21036,3.98557 0.80319,1.18278 3.95319,3.36258 7,4.844 6.45644,3.13924 12.03957,7.32504 12.03961,9.02636 4e-5,1.41009 1.2401,2.27751 4.0218,2.81321 1.1161,0.21494 3.16057,1.28068 4.54326,2.36831 2.56362,2.01654 7.26559,2.21222 13.7923,0.574 1.81178,-0.45476 3.11982,-0.29248 3.57467,0.44347 0.39453,0.63837 2.25045,1.35469 4.12427,1.59184 3.52091,0.4456 5.94373,2.6966 5.94373,5.52223 0,1.76728 4.96992,6.99596 6.64973,6.99596 0.57216,0 1.85478,0.9 2.85027,2 0.99549,1.1 2.59209,2 3.548,2 0.95591,0 1.99413,0.66741 2.30716,1.48314 0.35253,0.91868 1.21685,1.23459 2.27103,0.83006 1.15193,-0.44204 1.46824,-0.27501 0.97884,0.51686 -0.44864,0.72591 -0.0365,1.18201 1.08595,1.20174 2.1645,0.0381 5.30902,2.26221 5.30902,3.75512 0,0.58654 0.78669,1.21793 1.7482,1.40311 0.96381,0.18561 1.74901,1.22806 1.75,2.32332 0.002,1.7383 0.7831,2.02387 6.2518,2.28437 3.4375,0.16374 6.25,0.7528 6.25,1.30901 0,0.55622 0.42625,0.74786 0.94723,0.42588 0.52098,-0.32198 3.99073,1.00146 7.71055,2.94099 3.71983,1.93952 7.75677,3.5264 8.97099,3.5264 3.45752,0 5.37123,-1.05853 5.37123,-2.97099 0,-2.046 -6.73198,-7.02901 -9.4961,-7.02901 -2.34873,0 -11.89001,-9.87634 -14.51821,-15.02805 -1.07368,-2.10459 -2.9722,-4.12987 -4.21892,-4.50061 -1.24672,-0.37074 -3.84177,-1.87445 -5.76677,-3.34157 -1.925,-1.46712 -5.20146,-3.78401 -7.28103,-5.14863 -2.63233,-1.72735 -3.64328,-3.03139 -3.32762,-4.29231 0.24937,-0.99615 -0.13694,-2.03771 -0.85846,-2.31458 -0.72153,-0.27688 -1.10213,-1.30548 -0.84577,-2.28578 0.49108,-1.87791 -3.22007,-4.02693 -7.51251,-4.35027 -1.19604,-0.0901 -2.17461,-0.50649 -2.17461,-0.92532 0,-1.13146 -5.5911,-3.81288 -7.95034,-3.81288 -1.12731,0 -2.04966,-0.49814 -2.04966,-1.10699 0,-0.60884 -0.69203,-0.84143 -1.53785,-0.51686 -0.87507,0.3358 -1.78315,-0.0491 -2.10699,-0.89301 C 178.54194,349.66741 177.65898,349 176.89282,349 c -1.40138,0 -3.98956,-2.24534 -15.84947,-13.75 -3.54365,-3.4375 -6.8811,-6.25 -7.41655,-6.25 -0.53544,0 -2.34397,-1.15314 -4.01894,-2.56254 -1.67497,-1.40939 -5.197,-3.69244 -7.82673,-5.07343 -4.37031,-2.29506 -12.06811,-7.14119 -13.28132,-8.36122 -0.275,-0.27654 -1.625,-0.64764 -3,-0.82466 -3.20724,-0.4129 -11,-4.09673 -11,-5.19997 0,-0.46387 -0.9,-1.12905 -2,-1.47818 -1.1,-0.34913 -2.0148,-1.16695 -2.03289,-1.81739 -0.0181,-0.65043 -1.78023,-2.93198 -3.91586,-5.0701 -2.13563,-2.13812 -3.64768,-4.50062 -3.36012,-5.25 0.28757,-0.74938 0.0247,-1.36251 -0.58414,-1.36251 -0.60885,0 -1.10699,-0.42071 -1.10699,-0.9349 0,-0.5142 -0.52217,-2.2017 -1.16037,-3.75 -0.638197,-1.54831 -1.058107,-3.42276 -0.933117,-4.16545 0.12499,-0.7427 -0.2502,-1.05527 -0.83374,-0.69462 -0.58355,0.36065 -2.56862,-0.49419 -4.41128,-1.89965 C 92.318653,279.14992 90.364853,278 89.819533,278 c -1.14771,0 -10.46702,-6.95667 -11.54602,-8.61886 -0.39947,-0.61538 -2.02245,-1.65575 -3.60662,-2.31193 -2.79794,-1.15895 -4.84339,-4.02777 -9.13998,-12.81921 -1.1424,-2.3375 -2.59856,-4.25 -3.23593,-4.25 -0.63736,0 -3.32755,-2.25 -5.9782,-5 -2.65065,-2.75 -5.26792,-5 -5.81616,-5 -0.54824,0 -0.99681,-0.67649 -0.99681,-1.50332 0,-0.82682 -2.25,-3.83765 -5,-6.69073 -2.75,-2.85307 -5,-5.48273 -5,-5.84367 0,-0.69046 -3.17821,-4.75962 -5.04736,-6.46228 -4.37017,-3.98091 -6.42942,-6.61457 -9.12226,-11.66687 -1.69362,-3.17755 -3.90028,-6.03793 -4.90369,-6.3564 -1.00341,-0.31847 -2.13311,-1.56852 -2.51045,-2.77788 -0.37734,-1.20937 -1.86286,-3.59712 -3.30116,-5.30611 -5.4317812,-6.4541 -6.1150812,-7.45639 -6.1150812,-8.96991 0,-2.09699 -1.7747,-5.27314 -4.67446,-8.36579 -1.31866,-1.40637 -2.1986,-3.34409 -1.95543,-4.30604 0.24317,-0.96196 0.027,-2.00555 -0.4803,-2.3191 C 0.88228181,169.11835 0.70687181,168.47399 0.99981181,168 c 0.29294999,-0.47399 0.0949,-1.13231 -0.44001,-1.46293 -0.53495,-0.33061 -0.71915,-1.26171 -0.40932,-2.0691 C 0.54938181,163.42844 2.2878018,163 6.1068018,163 c 5.5727212,0 6.8642512,1.20372 3.74152,3.48711 -1.16389,0.85106 -1.31151,1.41772 -0.5,1.91926 0.63332,0.39142 1.1514902,0.23511 1.1514902,-0.34735 0,-1.72133 1.723311,-1.23178 5.952651,1.69098 2.18864,1.5125 3.78698,3.30413 3.55187,3.98139 -0.24943,0.71853 0.90945,1.57782 2.78248,2.06317 2.03485,0.52729 3.31628,1.54081 3.50041,2.76861 0.83634,5.57676 1.32966,6.60588 2.88121,6.0105 2.33731,-0.89691 4.66774,1.31612 3.22127,3.05901 -0.62413,0.75203 -0.96718,1.40076 -0.76233,1.44163 0.20484,0.0409 1.45147,0.2732 2.77027,0.51629 1.31881,0.24308 3.55246,0.99714 4.96367,1.67569 3.04054,1.46195 6.25763,6.76669 4.49466,7.41134 -1.28755,0.47081 -0.60991,4.32237 0.76048,4.32237 0.48585,0 0.88336,0.675 0.88336,1.5 0,0.825 0.62686,1.5 1.39302,1.5 1.33953,0 3.09452,2.69682 2.76574,4.25 -0.0873,0.4125 0.47412,0.75 1.24762,0.75 0.9326,0 1.2463,0.75798 0.9312,2.25 -0.43659,2.06725 -0.37966,2.0995 0.70091,0.39708 1.0915,-1.71965 1.49717,-1.53985 5.64046,2.5 2.45541,2.39411 5.29664,6.15292 6.31384,8.35292 1.1593,2.50731 3.1631,4.70002 5.36965,5.87586 1.9361,1.03173 3.75747,2.49423 4.04748,3.25 0.33911,0.8837 2.13269,1.37414 5.02536,1.37414 3.81538,0 5.03431,0.53626 8.03139,3.53333 1.94333,1.94334 3.53333,3.94667 3.53333,4.45187 0,0.50519 1.57096,2.44422 3.49103,4.30897 1.92006,1.86474 3.19506,3.6864 2.83333,4.04814 -0.36173,0.36173 0.0923,0.65769 1.00897,0.65769 0.91667,0 1.66667,0.44143 1.66667,0.98095 0,0.53952 1.237497,1.28358 2.749997,1.65347 1.5125,0.36988 4.24387,1.46354 6.0697,2.43035 3.00311,1.59019 3.14616,1.85876 1.5,2.81612 -1.07947,0.6278 -1.28721,1.07066 -0.51068,1.0887 0.71996,0.0167 1.05465,0.44198 0.74377,0.945 -0.31089,0.50302 5e-5,1.1425 0.69098,1.42105 0.69635,0.28074 0.36486,0.5699 -0.74377,0.6488 -1.75635,0.12499 -1.69544,0.27546 0.5,1.23516 1.375,0.60106 2.85002,1.01836 3.27783,0.92734 0.4278,-0.091 1.04285,0.52517 1.36678,1.36931 0.4518,1.17736 0.90833,1.26974 1.96034,0.39665 1.05571,-0.87617 1.51383,-0.76695 1.99021,0.47448 0.34035,0.88694 1.40093,1.61262 2.35684,1.61262 0.95591,0 2.55251,0.9 3.548,2 0.99549,1.1 2.59209,2 3.548,2 0.95591,0 1.99854,0.67889 2.31695,1.50865 0.3184,0.82976 1.82905,2.06403 3.35699,2.74283 1.52793,0.6788 3.65041,2.0249 4.71662,2.99135 1.06621,0.96644 2.73135,1.75717 3.70031,1.75717 0.96896,0 2.12161,0.59923 2.56144,1.33162 0.43983,0.73238 3.22408,2.63758 6.18721,4.23377 2.96314,1.59619 5.88389,3.69697 6.49055,4.66839 0.60666,0.97142 1.85728,1.76622 2.77914,1.76622 0.92187,0 1.83135,0.46568 2.02107,1.03483 0.18972,0.56916 2.35919,1.7288 4.82105,2.57698 2.46186,0.84818 6.61675,3.08005 9.23309,4.9597 3.07233,2.20725 5.55569,3.26874 7.01229,2.99733 1.24041,-0.23112 2.59279,-0.45366 3.00529,-0.49453 1.47221,-0.14587 0.72008,-2.07431 -0.80902,-2.07431 -0.85746,0 -1.35186,-0.3375 -1.09867,-0.75 0.25319,-0.4125 -1.85775,-2.28493 -4.69098,-4.16096 -2.83323,-1.87603 -9.03407,-7.38853 -13.77963,-12.25 C 161.62594,281.97757 157.09627,278 156.30556,278 c -0.7907,0 -4.10797,-2.46477 -7.3717,-5.47726 -3.26373,-3.0125 -6.20156,-5.4875 -6.52851,-5.5 -0.32695,-0.0125 -1.90195,-1.17407 -3.5,-2.58125 -1.59805,-1.40717 -4.14304,-3.21873 -5.65554,-4.02568 -1.5125,-0.80694 -2.75,-1.90561 -2.75,-2.44149 0,-0.53588 -0.6375,-0.97432 -1.41667,-0.97432 -0.77916,0 -1.56666,-0.35375 -1.75,-0.78612 -0.18333,-0.43237 -1.79583,-1.81301 -3.58333,-3.0681 -1.7875,-1.25508 -3.25,-2.65795 -3.25,-3.11749 0,-1.17599 -6.18254,-8.02829 -7.24359,-8.02829 -1.84134,0 -17.996967,-14.53122 -36.020287,-32.39854 C 66.915803,199.37066 58.028793,191 57.487013,191 c -1.45114,0 -13.9872,-12.09374 -13.9872,-13.49367 0,-0.658 -0.9,-2.01084 -2,-3.00633 -1.1,-0.99549 -2,-2.61367 -2,-3.59597 0,-0.9823 -0.44912,-2.06357 -0.99805,-2.40283 -0.54893,-0.33926 -2.1307,-3.01103 -3.51503,-5.93728 -1.38434,-2.92625 -4.08085,-7.28773 -5.99224,-9.69218 -1.9114,-2.40446 -3.47963,-4.93424 -3.48497,-5.62174 -0.005,-0.6875 -0.40511,-1.25 -0.88839,-1.25 -0.48327,0 -1.42439,-1.31747 -2.09137,-2.92771 -0.66698,-1.61023 -2.07158,-3.70498 -3.12132,-4.65498 -1.04975,-0.95001 -1.90863,-3.00754 -1.90863,-4.5723 0,-1.56475 -0.45,-2.84501 -1,-2.84501 -0.55,0 -1,-0.825 -1,-1.83333 0,-1.00834 -0.3375,-2.174 -0.75,-2.59036 -0.4125,-0.41636 -0.79587,-1.50386 -0.85194,-2.41667 C 13.619293,119.62411 13.389703,119 11.999813,119 c -0.825001,0 -1.514311,-0.7875 -1.531801,-1.75 -0.0175,-0.9625 -0.6780802,-2.60379 -1.4679702,-3.64732 -0.78989,-1.04353 -1.19902,-2.28103 -0.90918,-2.75 0.28984,-0.46897 -0.0621,-0.85957 -0.78203,-0.86799 -0.96544,-0.0113 -0.92267,-0.25964 0.16296,-0.94621 1.26691,-0.80121 1.23882,-1.02036 -0.20163,-1.57311 -1.73264,-0.66488 -3.1444,-4.23992 -4.23145,-10.715366 -0.61619,-3.670589 -0.56305,-3.750003 2.50941,-3.750003 2.29793,0 3.27906,0.535853 3.66194,2.000003 0.28766,1.1 0.8080302,2.0375 1.1563802,2.08333 0.34836,0.0458 1.639991,0.1952 2.870301,0.33192 1.23031,0.13672 3.09914,1.24273 4.15296,2.45779 1.34545,1.551316 2.05032,1.824716 2.36697,0.918076 0.34153,-0.977846 0.93011,-0.866506 2.42578,0.45888 1.08617,0.9625 2.46915,1.75 3.0733,1.75 1.77201,0 7.24406,7.26016 7.24406,9.61121 0,1.35834 0.78771,2.36152 2.12988,2.7125 1.42178,0.37181 1.93109,1.07504 1.53193,2.11523 -0.76399,1.99092 5.6607,8.56106 8.37153,8.56106 1.84459,0 2.38798,0.95311 2.06906,3.62916 -0.074,0.62104 0.83112,1.3817 2.0114,1.69035 1.44945,0.37904 1.94925,1.07381 1.53988,2.1406 -0.66204,1.72527 2.94652,6.53989 4.90166,6.53989 0.97173,0 2.12351,2.9093 2.83437,7.15943 0.18359,1.09764 4.96132,4.51877 7.36029,5.2704 1.25838,0.39426 2.25,1.51261 2.25,2.53756 0,1.64692 6.95734,9.74449 7.03041,8.18261 0.0167,-0.3575 0.48908,0.1375 1.04969,1.1 0.5606,0.9625 1.79691,1.75 2.74735,1.75 0.95044,0 2.49867,0.9 3.44052,2 0.94185,1.1 2.89064,2 4.33065,2 2.25044,0 2.53517,0.3308 2.02711,2.35508 -0.4499,1.79255 0.18106,3.10057 2.64159,5.47613 1.77797,1.71657 5.70197,5.60679 8.71999,8.64492 3.018017,3.03813 5.781107,5.52387 6.140197,5.52387 0.35909,0 4.89241,4.1625 10.07406,9.25 10.97799,10.77854 13.51226,13.0228 16.47668,14.59115 1.19803,0.63383 6.54086,5.20386 11.87294,10.15563 5.33208,4.95177 10.27413,9.00322 10.98234,9.00322 0.70821,0 3.46538,2.17648 6.12706,4.83662 2.66168,2.66013 7.05306,6.37263 9.75864,8.25 2.70558,1.87736 6.29337,4.65088 7.97286,6.16338 1.6795,1.5125 3.52357,2.75 4.09795,2.75 0.57437,0 3.35919,2.025 6.18849,4.5 2.82929,2.475 5.74676,4.5 6.48327,4.5 0.7365,0 3.36389,1.85518 5.83864,4.12262 3.82035,3.50032 5.40526,4.24097 10.49956,4.90661 9.26573,1.21068 17.0657,5.2847 24.1237,12.60011 2.37243,2.45894 10.30165,6.77865 11.05676,6.02353 0.67603,-0.67603 -3.20302,-9.23976 -4.56714,-10.08284 -0.61233,-0.37843 -1.11332,-1.35473 -1.11332,-2.16954 0,-2.78697 -4.4718,-7.53221 -9.45855,-10.03691 -2.74122,-1.37684 -7.92196,-5.45202 -11.51274,-9.05595 -3.59079,-3.60394 -7.97498,-7.17175 -9.74264,-7.92847 -1.76767,-0.75672 -3.73658,-2.3891 -4.37536,-3.62751 C 202.04707,242.29225 191.90383,233 187.03315,233 c -0.98501,0 -3.57932,-1.61569 -5.76512,-3.59043 -2.18579,-1.97474 -8.54033,-5.84214 -14.1212,-8.59423 -13.06528,-6.44288 -15.86295,-8.0912 -15.81075,-9.31534 0.0234,-0.55 -0.94084,-2.04686 -2.14286,-3.32635 -1.29564,-1.37914 -2.0586,-3.29465 -1.87384,-4.70453 0.24681,-1.88339 -0.77777,-3.16084 -4.92462,-6.14006 -2.87994,-2.06903 -5.72197,-3.87977 -6.31561,-4.02385 -0.59364,-0.14408 -3.89184,-1.23462 -7.32934,-2.42341 -5.68166,-1.9649 -6.25,-2.41834 -6.25,-4.98644 0,-1.80154 -0.72457,-3.21277 -2,-3.89536 -1.1,-0.5887 -2,-1.72953 -2,-2.53518 0,-0.80565 -0.39752,-1.46482 -0.88337,-1.46482 -0.48585,0 -1.13056,-0.94528 -1.43269,-2.10062 -0.30248,-1.15668 -1.02893,-1.8042 -1.61663,-1.44098 -0.58702,0.3628 -1.06731,0.18308 -1.06731,-0.39938 0,-0.58246 -0.80753,-1.05902 -1.79451,-1.05902 -0.98699,0 -3.4425,-2.16098 -5.4567,-4.80217 -2.0142,-2.64119 -6.15667,-7.3368 -9.205487,-10.43469 -3.04881,-3.09788 -5.5433,-5.93465 -5.5433,-6.30392 0,-0.36928 -1.33795,-2.36071 -2.97323,-4.42542 -1.63528,-2.0647 -2.68528,-4.04196 -2.33333,-4.3939 0.35194,-0.35195 0.21799,-0.6399 -0.29766,-0.6399 -0.51565,0 -2.05315,-2.1375 -3.41667,-4.75 -1.36351,-2.6125 -2.79916,-4.99077 -3.19032,-5.28505 -0.39117,-0.29427 -1.39936,-2.182 -2.24042,-4.19494 -0.84106,-2.01295 -2.09602,-4.02218 -2.78879,-4.46496 -0.69277,-0.44278 -2.12439,-2.38005 -3.18138,-4.30505 -1.05699,-1.925 -2.45925,-3.82615 -3.11615,-4.22478 -0.65689,-0.39863 -0.97712,-1.86113 -0.71162,-3.25 0.2655,-1.38887 0.046,-2.52522 -0.48783,-2.52522 -1.60988,0 -6.2626,-4.79362 -6.2626,-6.45225 0,-0.85126 -0.675,-1.54775 -1.5,-1.54775 -0.91545,0 -1.5,-0.93256 -1.5,-2.393006 0,-1.31616 -0.675,-2.65204 -1.5,-2.96862 -0.825,-0.31658 -1.5,-1.46317 -1.5,-2.547971 0,-1.084803 -0.48067,-2.269443 -1.06817,-2.632536 -0.58749,-0.363092 -0.82473,-1.294572 -0.52719,-2.069954 1.04532,-2.724058 -0.55159,-7.387912 -2.52964,-7.387912 -1.21913,0 -1.875,-0.711893 -1.875,-2.035183 0,-1.119352 -0.71378,-3.124563 -1.58619,-4.456025 -0.87241,-1.331463 -1.29585,-2.89063 -0.94098,-3.464817 0.35486,-0.574187 0.0562,-1.050867 -0.66381,-1.059289 -1.02258,-0.01196 -1.00593,-0.20726 0.0761,-0.892513 1.11368,-0.705305 0.98732,-1.090086 -0.64482,-1.963578 -2.26532,-1.212369 -4.24028,-5.971871 -4.24028,-10.218802 0,-1.535468 -0.45,-3.069875 -1,-3.409794 -1.98602,-1.22743 -1.01206,-3.5 1.5,-3.5 1.375,0 2.5,-0.45 2.5,-1 0,-0.55 1.58614,-1 3.52476,-1 2.87989,0 3.70643,0.477862 4.51782,2.611971 0.73913,1.944077 1.50554,2.477957 2.99722,2.087874 1.35849,-0.355254 3.11129,0.520077 5.44079,2.717073 2.67344,2.521382 3.56266,2.912754 4.00412,1.76233 0.46685,-1.21658 0.97331,-1.097591 2.85584,0.670955 C 68.098973,59.032592 69.803043,60 70.627193,60 c 3.17831,0 8.87264,7.93549 8.87264,12.364708 0,1.827293 0.60293,2.581819 2.25,2.815741 1.47271,0.209159 2.25321,1.010472 2.25929,2.319551 0.005,1.1 0.55815,2.965249 1.22898,4.144996 1.00313,1.76412 0.94105,2.376253 -0.34958,3.447387 -1.41758,1.176485 -1.39844,1.427321 0.19801,2.594672 2.13997,1.564784 2.06434,1.640632 -3.5867,3.597094 l -4.5,1.557957 10.75,0.07895 c 10.48511,0.077 11.34052,0.339008 10.86842,3.328948 -0.0651,0.4125 0.33158,0.75 0.88158,0.75 0.549997,0 0.999997,0.57499 0.999997,1.27776 0,0.70277 0.85289,2.008016 1.8953,2.900566 1.04242,0.89254 2.22432,3.57022 2.62645,5.9504 0.40213,2.38018 1.401,5.34992 2.21971,6.59943 0.81871,1.24951 1.20143,2.27184 0.8505,2.27184 -0.35094,0 0.12559,1.16549 1.05895,2.58997 0.93336,1.42448 2.40623,3.89194 3.27305,5.48323 0.86682,1.5913 4.17858,5.55568 7.35947,8.80975 3.18088,3.25407 5.71509,6.29911 5.63158,6.76677 -0.44632,2.49915 0.26796,4.35028 1.67861,4.35028 0.87649,0 1.82508,0.8851 2.10797,1.96688 0.28289,1.08179 1.3707,2.23868 2.41735,2.57087 1.04665,0.33219 2.6405,2.03017 3.5419,3.77329 2.07524,4.01306 19.46243,21.27592 22.35329,22.19344 1.52423,0.48378 2.01898,1.2609 1.66485,2.61509 -0.38344,1.4663 0.31165,2.2675 2.90858,3.35257 2.31063,0.96544 3.41244,2.08805 3.41244,3.47683 0,1.5954 0.64268,2.05103 2.89301,2.05103 1.62756,0 3.14065,0.64533 3.45914,1.47531 0.31138,0.81143 2.61853,1.99212 5.12702,2.62376 3.04416,0.76653 5.22797,2.08528 6.56684,3.96555 1.10328,1.5494 2.9008,3.10111 3.99449,3.44824 1.0937,0.34712 1.80984,0.93623 1.59143,1.30914 -0.77811,1.32851 1.33015,5.178 2.83585,5.178 0.84272,0 1.53222,0.59385 1.53222,1.31966 0,0.72582 1.125,2.29784 2.5,3.49339 1.375,1.19555 2.5,2.59637 2.5,3.11295 0,0.51657 1.0125,1.2552 2.25,1.64139 1.2375,0.3862 2.50001,1.08902 2.80559,1.56184 0.30557,0.47282 3.23057,1.39539 6.5,2.05017 6.009,1.20342 7.0536,1.82267 9.04654,5.36283 0.60617,1.07677 2.05228,2.09942 3.21359,2.27255 1.1613,0.17313 3.52544,1.63563 5.25363,3.25 1.72819,1.61437 3.90994,2.93522 4.84835,2.93522 0.9384,0 2.70428,1.35 3.92418,3 1.2199,1.65 3.07797,3 4.12904,3 1.05108,0 2.15835,0.40015 2.46061,0.88922 0.30227,0.48907 1.79132,1.17961 3.30902,1.53453 1.5177,0.35492 4.21393,1.40278 5.99164,2.32859 2.10903,1.09835 3.57245,1.34302 4.21139,0.70408 0.63894,-0.63894 -1.13837,-2.71271 -5.11465,-5.96781 -7.41841,-6.07294 -7.70289,-6.34361 -10.82893,-10.30356 -1.375,-1.7418 -2.87168,-3.17098 -3.32596,-3.17598 -1.58285,-0.0174 -12.70113,-9.15623 -12.17504,-10.00746 0.29153,-0.47169 -0.48899,-1.1508 -1.73448,-1.50913 -1.24549,-0.35833 -3.83952,-1.38056 -5.76452,-2.27163 -1.925,-0.89107 -4.175,-1.72912 -5,-1.86234 -2.0513,-0.33124 -7.96677,-7.44934 -7.98512,-9.60851 -0.008,-0.9625 -0.49515,-1.75 -1.08214,-1.75 -1.25856,0 -7.3914,-4.78474 -13.7788,-10.75 -2.50292,-2.3375 -5.38684,-4.25 -6.40872,-4.25 -1.02188,0 -3.07009,-1.28158 -4.55159,-2.84797 -1.4815,-1.56638 -5.50613,-4.55534 -8.94363,-6.64213 -3.4375,-2.0868 -6.25,-4.08319 -6.25,-4.43643 0,-0.35324 -1.4625,-1.47416 -3.25,-2.49094 -4.17712,-2.37605 -14.75,-12.62725 -14.75,-14.30123 0,-0.70471 -0.4114,-1.2813 -0.91423,-1.2813 -1.05464,0 -7.21927,-9.70384 -7.53613,-11.86274 -0.11669,-0.79506 -1.24766,-2.28407 -2.51327,-3.3089 -2.26552,-1.8345 -3.04497,-4.42807 -5.05747,-16.82836 -0.49094,-3.025 -1.18952,-6.5125 -1.55239,-7.75 -0.48811,-1.66457 -0.24731,-2.25 0.92547,-2.25 0.99827,0 1.37212,-0.55542 1.00965,-1.5 -0.34195,-0.8911 -0.01,-1.5 0.81793,-1.5 1.38815,0 8.82044,9.13833 8.82044,10.84512 0,0.49339 1.4625,1.92871 3.25,3.18959 1.7875,1.26088 5.95,5.34338 9.25,9.07223 3.3,3.72884 6.40986,6.80522 6.9108,6.83639 0.50094,0.0312 2.07594,1.3189 3.5,2.86162 3.304,3.57931 13.26226,11.05161 19.64626,14.74182 2.71862,1.57146 5.16794,3.10381 5.44294,3.40522 0.88344,0.96827 6.44292,4.1532 8.25,4.72629 0.9625,0.30524 1.75,0.9525 1.75,1.43835 0,0.48585 0.95221,0.88337 2.11602,0.88337 1.16382,0 4.20132,1.48064 6.75,3.29031 2.54869,1.80966 5.92176,3.93761 7.49571,4.72877 1.57395,0.79116 3.25032,2.46052 3.72525,3.7097 0.53999,1.42028 1.69528,2.27122 3.08355,2.27122 1.22102,0 3.45346,1.1817 4.96098,2.62599 1.50752,1.4443 3.78214,3.20217 5.05472,3.9064 3.19545,1.76831 9.76736,4.93388 13.03123,6.27689 1.4946,0.615 4.06373,2.97667 5.70919,5.24816 1.64546,2.27149 4.61227,5.32531 6.59293,6.78627 1.98066,1.46096 6.9422,5.24379 11.02566,8.40629 4.08346,3.1625 8.01629,5.75 8.73962,5.75 0.72332,0 1.85514,0.54 2.51514,1.2 0.93333,0.93333 1.2,0.85219 1.2,-0.36514 0,-2.58684 -3.38757,-6.10861 -12.4023,-12.89361 -6.80077,-5.11864 -8.68512,-7.09526 -9.17698,-9.62636 -1.27582,-6.56529 1.37431,-6.85669 11.95804,-1.31489 4.20156,2.2 8.56474,4 9.69596,4 2.53488,0 5.84514,1.66661 8.21424,4.13561 0.98392,1.02541 2.71275,1.86439 3.84183,1.86439 1.91071,0 3.09408,0.74097 10.78002,6.75 1.58285,1.2375 3.82544,2.25 4.98355,2.25 2.10356,0 6.10564,3.2063 6.10564,4.89159 0,0.49038 1.0125,1.15685 2.25,1.48106 2.40455,0.62996 9.75,7.15109 9.75,8.65585 0,0.4964 1.2375,2.19545 2.75,3.77567 6.21548,6.49377 9.98314,11.12936 9.46593,11.64656 -0.30209,0.3021 0.20074,0.54927 1.1174,0.54927 0.91667,0 1.66667,0.34767 1.66667,0.7726 0,0.72361 6.65721,4.70922 7.92182,4.74271 0.318,0.008 1.17062,0.39099 1.89471,0.85014 2.40776,1.52678 2.55594,-0.32949 0.37492,-4.69656 -1.18581,-2.37435 -2.84482,-6.30867 -3.6867,-8.74294 -0.93215,-2.69531 -3.09907,-5.79452 -5.54168,-7.92595 -3.38719,-2.95566 -4.14905,-4.35539 -4.89862,-9 -0.48819,-3.025 -1.0399,-6.16432 -1.22603,-6.97626 -0.74339,-3.24285 4.13438,-2.16153 9.89925,2.1945 3.16928,2.39477 6.88733,4.92234 8.26233,5.61684 6.30601,3.1851 8.32676,4.55858 11.75395,7.98903 3.80615,3.80978 7.54287,6.17589 9.75337,6.17589 0.70329,0 1.53772,0.675 1.85431,1.5 0.31658,0.825 1.48972,1.5 2.60699,1.5 1.11726,0 2.03138,0.45 2.03138,1 0,0.55 0.65264,1 1.45031,1 0.79767,0 1.81017,0.60416 2.25,1.34259 1.49515,2.51017 6.03479,4.74456 8.66909,4.26687 4.03495,-0.73168 4.54039,-1.39051 3.93391,-5.12778 C 397.3177,235.49024 397.51635,235 399.21395,235 c 2.4322,0 11.66765,6.12785 24.49084,16.25 1.9161,1.5125 3.91425,2.75 4.44033,2.75 0.52609,0 2.92694,1.96631 5.33524,4.36957 4.19722,4.18846 4.58227,4.35046 9.28959,3.90857 4.05926,-0.38105 5.24876,-0.0983 6.85933,1.63043 1.07165,1.15029 2.75249,2.09143 3.73519,2.09143 0.9827,0 2.84361,1.125 4.13536,2.5 1.29175,1.375 2.91066,2.5 3.59759,2.5 0.68693,0 2.58595,1.125 4.22004,2.5 1.6341,1.375 3.47976,2.5 4.10148,2.5 0.62171,0 1.5625,1.13653 2.09063,2.52563 0.52814,1.38909 1.7545,2.79344 2.72525,3.12078 4.17458,1.40767 13.26501,5.91091 13.26501,6.57126 0,1.86043 11.76916,8.1059 16,8.49063 7.45969,0.67835 9.02066,1.24294 10.1225,3.66121 0.63159,1.38619 4.04367,3.83192 8.50805,6.09844 6.10367,3.09877 8.17385,3.6875 11.43061,3.25067 8.86818,-1.18947 23.93884,7.83513 23.93884,14.33504 0,2.47875 0.50048,2.86692 5.12771,3.97698 3.50621,0.84112 5.2814,1.81778 5.61369,3.08849 0.26729,1.02211 0.88482,1.61188 1.37229,1.31061 0.48747,-0.30128 0.88631,0.18034 0.88631,1.07026 0,0.88992 0.38986,1.37709 0.86635,1.0826 0.4765,-0.29449 1.67124,0.35395 2.65499,1.44098 0.98375,1.08703 2.5435,1.97642 3.46611,1.97642 0.9226,0 2.77227,1.6875 4.11036,3.75 2.07685,3.20121 2.98246,3.76034 6.18817,3.82063 2.0654,0.0388 4.28599,0.60134 4.93465,1.25 0.64865,0.64865 2.38427,1.17937 3.85693,1.17937 1.47265,0 3.17731,0.60217 3.78812,1.33815 0.61081,0.73599 2.85261,1.86009 4.98178,2.498 2.62077,0.7852 5.97506,3.34081 10.38446,7.91185 7.50797,7.78317 11.89361,11.252 14.2259,11.252 2.39892,0 7.4826,2.83267 10.04425,5.59673 1.225,1.3218 2.85067,2.40869 3.6126,2.41532 0.76193,0.007 3.34376,1.13162 5.7374,2.5 2.39364,1.36837 5.37604,2.48795 6.62756,2.48795 1.25151,0 2.78475,0.61364 3.4072,1.36364 0.62244,0.75 2.86789,1.36363 4.98987,1.36363 2.12198,0 5.83031,0.91502 8.24073,2.03337 2.41041,1.11835 8.20757,3.22681 12.88257,4.68546 4.675,1.45865 10.11213,3.94064 12.08251,5.51553 2.35902,1.88551 4.0452,2.57747 4.9373,2.02613 1.99065,-1.23029 7.70805,2.03017 13.87647,7.91332 2.92926,2.79379 5.67878,4.86155 6.11004,4.59501 0.43126,-0.26653 1.04374,0.19199 1.36107,1.01893 0.31733,0.82694 0.92698,1.42792 1.35478,1.3355 1.53797,-0.33225 4.79005,1.59503 7.84303,4.64801 1.71039,1.71039 3.69556,2.91455 4.4115,2.6759 0.71593,-0.23864 1.02941,0.007 0.69663,0.54512 -0.33279,0.53846 0.50457,1.57288 1.8608,2.29872 1.35623,0.72583 2.46587,1.92979 2.46587,2.67546 0,1.66018 4.06864,3.30627 8.17209,3.30627 2.38647,0 2.90866,0.34718 2.42356,1.61134 -0.45926,1.1968 -0.19327,1.44823 1.03389,0.97733 2.21446,-0.84977 5.37046,0.2329 5.37046,1.84235 0,2.38815 5.15601,6.56898 8.10118,6.56898 1.74746,0 3.214,0.72041 3.83726,1.88497 0.55484,1.03674 2.11568,2.16278 3.46853,2.50233 1.35285,0.33954 2.75102,1.53511 3.10703,2.65681 0.4554,1.43483 1.20116,1.86368 2.5155,1.44653 1.12745,-0.35784 2.59643,0.13529 3.70485,1.24371 3.97601,3.97601 9.0653,7.26565 11.24043,7.26565 2.49519,0 16.02522,6.93204 16.02522,8.21044 0,0.43426 0.48002,0.78956 1.06672,0.78956 0.5867,0 2.55162,1.13258 4.36649,2.51685 1.96152,1.49613 4.99118,2.66026 7.47039,2.87045 3.96962,0.33655 5.43114,0.96035 5.73092,2.44603 0.9158,4.53853 1.61982,5.14963 5.26173,4.56727 3.16984,-0.50688 3.84312,-0.25612 4.97105,1.85145 0.94146,1.75914 1.93344,2.31754 3.56349,2.00593 1.79919,-0.34394 2.6052,0.29809 3.96094,3.15511 1.14091,2.40429 2.38132,3.58691 3.76218,3.58691 1.42033,0 1.88132,0.46581 1.48446,1.5 -0.36952,0.96296 0.0201,1.5 1.0883,1.5 2.29741,0 7.27333,4.96302 7.27333,7.25448 0,1.46215 0.47261,1.73029 2.12523,1.20577 1.43014,-0.4539 1.90143,-0.31241 1.44098,0.43262 -0.42595,0.6892 0.20036,1.10713 1.65917,1.10713 1.5753,0 2.96229,1.04768 4.23155,3.19638 2.70604,4.58096 6.63115,7.73546 9.67063,7.77202 1.44515,0.0174 3.18775,0.7066 3.87244,1.5316 0.68469,0.825 2.03469,1.5 3,1.5 0.96531,0 2.31531,0.675 3,1.5 0.68469,0.825 2.06323,1.5 3.06343,1.5 2.27142,0 2.76372,0.79391 3.49332,5.63331 1.0752,7.13104 6.8962,8.58977 12.2471,3.06908 1.7579,-1.81368 3.19605,-3.80836 3.19605,-4.43261 0,-0.62425 0.9265,-1.42906 2.0589,-1.78846 1.1324,-0.35941 4.6199,-2.34088 7.75,-4.40329 3.1301,-2.0624 9.2911,-5.46312 13.6911,-7.55717 4.4,-2.09404 9.0732,-4.64288 10.3849,-5.6641 1.3116,-1.02122 3.3366,-1.86677 4.5,-1.879 1.1633,-0.0122 3.2401,-0.90222 4.6151,-1.97776 1.375,-1.07554 4.0355,-1.96553 5.9122,-1.97776 3.3793,-0.022 11.9144,-4.2217 13.3141,-6.55122 0.3995,-0.66481 2.0779,-1.76862 3.73,-2.4529 1.652,-0.68429 4.6197,-2.7683 6.5949,-4.63114 1.9751,-1.86284 4.213,-3.38698 4.9729,-3.38698 2.6092,0 6.5529,-2.35693 6.0662,-3.62538 -0.29,-0.7557 4.24557,-4.73795 11.21127,-9.84357 17.736,-12.99978 20.1195,-14.92456 20.1605,-16.28105 0.021,-0.6875 0.8297,-1.25 1.7974,-1.25 0.9677,0 2.3215,-0.9 3.0084,-2 0.687,-1.1 1.8354,-2 2.552,-2 0.7166,0 2.1753,-0.81004 3.2415,-1.80009 1.0662,-0.99005 3.5001,-2.67755 5.4086,-3.75 4.2873,-2.40915 4.3035,-2.4205 11.03,-7.72196 3.337,-2.63006 5.6341,-5.26288 5.841,-6.69473 0.3488,-2.41445 2.784,-4.9011 7.0754,-7.22479 3.1152,-1.68683 7.8248,-6.37592 10.8292,-10.78211 1.3027,-1.91053 4.2554,-5.55926 6.5615,-8.1083 4.6669,-5.1586 6.2314,-7.33763 7.6834,-10.70196 0.5422,-1.25617 3.149,-3.62865 5.7929,-5.27218 2.6439,-1.64354 5.341,-3.76576 5.9935,-4.71606 4.4211,-6.43848 6.1641,-9.42263 7.2375,-12.39117 0.7869,-2.17617 3.0033,-4.62121 6.2177,-6.85912 2.7472,-1.91264 6.7981,-5.16503 9.002,-7.22753 2.2039,-2.0625 4.1731,-3.75 4.3759,-3.75 0.2029,0 2.9612,-1.79941 6.1295,-3.99869 3.1683,-2.19928 6.398,-3.99928 7.1772,-4 0.7791,-7.2e-4 1.132,-0.28594 0.7841,-0.63382 -0.8345,-0.83452 11.4042,-9.91838 22.4788,-16.68427 1.4738,-0.90039 4.5113,-1.92997 6.75,-2.28795 2.2387,-0.35799 4.0704,-1.00124 4.0704,-1.42946 0,-0.42821 0.9099,-0.54064 2.0219,-0.24983 1.3141,0.34364 2.8261,-0.30181 4.3187,-1.84362 2.8048,-2.89705 8.1845,-5.87236 10.618,-5.87236 1.9646,0 4.3855,-2.32259 3.4235,-3.28456 -0.6571,-0.65711 9.8952,-7.71544 11.5347,-7.71544 0.557,0 1.4945,-0.9 2.0832,-2 0.5887,-1.1 1.8785,-2 2.8662,-2 0.9877,0 2.3939,-1.11754 3.1249,-2.48343 0.731,-1.36589 2.1571,-2.74621 3.169,-3.06739 1.012,-0.32117 1.8399,-0.93211 1.8399,-1.35764 0,-0.42552 2.2361,-1.99074 4.9692,-3.47826 2.733,-1.48751 5.2495,-3.15819 5.5922,-3.71263 0.5441,-0.88032 3.7411,-2.47143 16.9386,-8.43009 1.65,-0.74498 4.125,-1.5038 5.5,-1.68627 1.4452,-0.1918 2.3797,-0.89355 2.2149,-1.66329 -0.401,-1.8731 1.6915,-4.121 3.8361,-4.121 0.9934,0 2.485,-0.67887 3.3148,-1.50861 0.8297,-0.82974 3.4493,-2.34891 5.8214,-3.37593 4.2139,-1.82452 12.5735,-8.47106 16.0588,-12.76809 0.9603,-1.18394 3.6603,-3.28314 6,-4.66488 2.3397,-1.38175 5.8048,-4.12557 7.7002,-6.09738 2.5263,-2.62818 4.2885,-3.58511 6.6021,-3.58511 1.7358,0 4.534,-1.0125 6.2182,-2.25 12.6863,-9.32113 16.1332,-12.10845 16.1873,-13.08981 0.072,-1.3147 5.4122,-6.66019 6.6531,-6.66019 1.3411,0 7.4575,-5.82144 8.9834,-8.55017 0.5997,-1.07241 2.7372,-2.74087 4.75,-3.7077 2.0128,-0.96683 3.6597,-2.20433 3.6597,-2.75 0,-0.54567 0.7875,-1.02766 1.75,-1.07108 1.1567,-0.0522 1.3025,-0.25786 0.4299,-0.60671 -0.9527,-0.38087 -0.7205,-0.9478 0.8342,-2.03679 1.5479,-1.08419 1.8492,-1.81425 1.0702,-2.59328 -1.6091,-1.60908 -1.3315,-2.38637 1.0774,-3.0163 3.1637,-0.82732 5.3331,0.73355 7.719,5.55381 1.1648,2.35302 2.1181,3.53285 2.1185,2.62184 6e-4,-1.16392 0.5954,-1.50088 2.0008,-1.13337 1.1,0.28766 2,0.90641 2,1.375 0,0.46859 0.675,0.59296 1.5,0.27638 0.825,-0.31659 1.5,-1.01274 1.5,-1.54702 0,-0.53428 1.7334,-2.63689 3.8521,-4.67248 2.1186,-2.03559 6.0002,-6.38781 8.6258,-9.6716 5.3471,-6.68766 11.1654,-12.47053 12.547,-12.47053 0.5025,0 2.5001,-2.3625 4.4391,-5.25 5.8886,-8.76899 15.5217,-22.09774 17.9137,-24.78604 1.241,-1.39482 2.9473,-3.86982 3.7917,-5.5 0.8444,-1.63018 2.347,-4.53896 3.3392,-6.46396 0.9922,-1.925 2.6336,-4.30503 3.6477,-5.28896 1.014,-0.98392 1.8437,-2.15257 1.8437,-2.59699 0,-0.44441 0.7875,-1.73899 1.75,-2.87683 4.6292,-5.47249 5.25,-6.32605 5.25,-7.21823 0,-1.11851 3.4177,-7.36796 6.0887,-11.13355 1.1345,-1.599406 3.1476,-2.824386 5.1849,-3.154986 4.8931,-0.79404 12.507,-5.720256 13.2177,-8.551868 0.9865,-3.930615 10.4266,-12.535358 16.0087,-14.592105 2.75,-1.013251 7.3492,-3.160136 10.2204,-4.770856 2.8713,-1.61072 9.6213,-4.290848 15,-5.955841 5.3788,-1.664993 12.9296,-4.525454 16.7796,-6.35658 3.85,-1.831126 9.25,-4.183952 12,-5.228503 10.4117,-3.954738 25.2643,-14.009344 33.321,-22.556943 1.9607,-2.080233 6.2906,-5.567999 9.622,-7.750591 9.0576,-5.934261 15.7021,-10.786181 19.057,-13.9158359 C 1605.6857,2.747154 1612.8589,0 1621.0228,0 c 7.5773,0 9.5598,0.856408 6.9659,3.009138 -0.819,0.6796641 -1.489,2.3279991 -1.489,3.6629671 0,3.4248879 -2.6153,8.0710269 -4.9625,8.8160079 -1.0915,0.346418 -3.2395,2.498503 -4.7734,4.782411 -2.0115,2.995027 -3.7172,4.342421 -6.1192,4.833668 -1.8316,0.374609 -3.8285,1.179415 -4.4375,1.788457 C 1605.598,27.501692 1604.2897,28 1603.2997,28 c -1.0516,0 -1.8,0.73186 -1.8,1.760218 0,2.428048 4.8924,7.495041 6.603,6.838624 1.7079,-0.655374 1.7198,-0.422513 0.1593,3.104105 -0.6808,1.538379 -3.6058,5.063733 -6.5,7.834119 -3.8387,3.674348 -5.2623,5.776821 -5.2623,7.771453 0,2.862589 -7.5304,11.357586 -13.3435,15.052673 -1.564,0.994121 -3.7398,3.8335 -4.8351,6.309731 -1.4546,3.288291 -2.9124,4.886961 -5.4065,5.929079 -3.576,1.494132 -4.7331,4.956936 -2.0061,6.003386 1.1893,0.456384 1.1309,1.503203 -0.375,6.718616 -0.981,3.3979 -2.8525,8.202996 -4.1588,10.677996 -1.3062,2.475 -3.4285,6.87216 -4.7162,9.77146 -1.3964,3.14425 -3.4141,5.85864 -5,6.72655 -1.4623,0.8003 -3.9433,2.60951 -5.5133,4.02047 -2.3404,2.10333 -2.7808,3.19686 -2.4452,6.07149 0.3379,2.89462 -0.2107,4.22597 -3.1455,7.63357 -1.9551,2.2701 -6.4849,8.39754 -10.0661,13.61653 -4.9656,7.23658 -7.2848,9.74953 -9.7701,10.58632 -4.9733,1.67452 -8.4541,9.57361 -4.2186,9.57361 1.1,0 2,-0.63098 2,-1.40217 0,-0.7712 1.35,-1.87279 3,-2.44799 1.65,-0.57519 2.9996,-0.95671 2.9992,-0.84782 -5e-4,0.10889 -0.6872,3.48816 -1.5262,7.50949 -2.2192,10.63745 -6.1331,16.86329 -14.9359,23.75851 -7.5265,5.89546 -8.921,8.05213 -7.8825,12.19013 0.6351,2.53017 -1.9558,6.23985 -4.3579,6.23985 -0.7663,0 -2.0107,1.4625 -2.7654,3.25 -1.2366,2.9288 -1.1721,3.57485 0.6526,6.5369 3.2761,5.31807 0.8169,14.31998 -4.4098,16.142 -1.6226,0.56564 -3.177,1.89573 -3.4542,2.95575 -0.3197,1.22243 -1.7151,2.1545 -3.8154,2.54853 -4.012,0.75266 -4.5045,1.87505 -4.5045,10.26659 0,5.66415 -0.3669,6.97625 -2.75,9.83447 -1.5125,1.81406 -4.0228,5.36096 -5.5784,7.88202 -2.7201,4.40833 -3.0107,4.58374 -7.595,4.58374 -7.5708,0 -10.46,4.83412 -5.8329,9.75941 2.2182,2.36112 2.221,2.40084 0.25,3.48815 -1.0965,0.6049 -3.1187,2.44143 -4.4937,4.08117 -7.3526,8.76821 -13.8207,14.67216 -16.09,14.68658 -2.9024,0.0184 -5.9784,1.90269 -4.2614,2.61037 0.8191,0.33756 0.6896,1.3918 -0.4512,3.67387 -1.8026,3.60582 -2.2784,6.70045 -1.0303,6.70045 0.4581,0 0.8329,0.87344 0.8329,1.94098 0,1.06754 0.3891,2.18146 0.8646,2.47537 0.7319,0.45229 0.8255,2.52838 0.263,5.83365 -0.2496,1.46716 -3.1276,0.72272 -3.1276,-0.80902 0,-0.85746 -0.4619,-1.27352 -1.0265,-0.92459 -0.5646,0.34893 -0.9021,1.38799 -0.75,2.30902 0.2033,1.23101 -0.5844,1.7576 -2.9735,1.98795 -3.118,0.30063 -3.25,0.48922 -3.25,4.64301 0,4.18023 -1.778,6.41688 -4.0063,5.03972 -1.1959,-0.73912 -5.9937,1.26519 -5.9937,2.50391 0,0.57723 1.0976,1.46682 2.4392,1.97688 1.3416,0.51006 2.9012,1.79067 3.4659,2.8458 0.8481,1.5846 0.3311,2.67191 -2.9711,6.24879 -2.1988,2.38171 -5.2209,5.137 -6.7159,6.12287 -1.4949,0.98586 -2.1556,1.79545 -1.4681,1.79907 2.5218,0.0133 1.1376,1.66268 -3.139,3.74038 -2.4139,1.17277 -5.9608,3.51244 -7.882,5.19926 -1.9212,1.68682 -4.1086,3.06972 -4.861,3.07311 -0.7524,0.003 -0.079,0.67839 1.4963,1.5 1.5754,0.82161 3.543,1.49384 4.3725,1.49384 1.2464,0 1.2857,0.268 0.2264,1.54432 -1.0714,1.29093 -0.9274,1.79248 0.8776,3.05671 2.2459,1.57308 2.9483,4.39897 1.0935,4.39897 -0.5862,0 -1.9362,-0.46583 -3,-1.03518 -1.5334,-0.82065 -1.9343,-0.70739 -1.9343,0.54651 0,0.86993 -1.3284,2.34409 -2.952,3.27591 -1.6236,0.93183 -3.2072,2.7109 -3.5191,3.95349 -0.56,2.23138 -2.1006,2.71785 -7.2789,2.2984 -1.8205,-0.14747 -2.25,0.33084 -2.25,2.50588 0,2.34794 -0.3254,2.62594 -2.5711,2.19665 -1.4402,-0.27532 -4.3051,0.34631 -6.5137,1.41339 -2.1684,1.04768 -5.1072,2.34765 -6.5306,2.88881 -1.9152,0.72818 -2.4064,1.43521 -1.8896,2.72004 0.384,0.95485 0.7799,2.1861 0.8797,2.7361 0.1,0.55 0.5451,1.58221 0.9895,2.2938 0.458,0.73336 0.2845,1.9246 -0.4006,2.75 -0.9736,1.17317 -0.8931,1.4562 0.414,1.4562 1.7761,0 2.2226,2.511 0.6224,3.5 -0.55,0.33992 -1,1.46596 -1,2.50231 0,1.03636 -1.0125,2.63147 -2.25,3.5447 -1.4633,1.07984 -1.8232,1.8247 -1.0293,2.13027 1.4315,0.55098 0.629,1.76683 -4.4707,6.77382 -1.7875,1.755 -3.25,3.74442 -3.25,4.42093 0,0.67651 -1.575,1.8881 -3.5,2.69242 -1.925,0.80431 -3.5,1.85508 -3.5,2.33503 0,0.47995 -1.5883,1.62634 -3.5296,2.54754 -1.9413,0.9212 -4.0745,2.54747 -4.7405,3.61394 -0.6661,1.06647 -1.8548,1.93904 -2.6417,1.93904 -0.7869,0 -2.1886,0.68585 -3.1148,1.52411 -1.6919,1.53109 -4.9734,1.08101 -4.9734,-0.68213 0,-1.46603 -6.5327,-3.84198 -10.5635,-3.84198 -1.9953,0 -4.8222,-0.84225 -6.2821,-1.87166 -2.9263,-2.06339 -10.7333,-2.40147 -11.9418,-0.51714 -0.3919,0.61117 -2.9626,1.45948 -5.7126,1.88515 l -5,0.77394 4,1.8073 c 2.2,0.99402 3.8507,1.9457 3.6682,2.11486 -0.659,0.61089 1.0703,5.80755 1.9326,5.80755 1.468,0 5.8992,4.26678 5.8992,5.68034 0,0.72581 0.3375,1.32055 0.75,1.32165 0.4125,0.001 0.8485,1.40376 0.9689,3.11703 0.1204,1.71328 0.9754,3.66819 1.9,4.34425 1.5667,1.14564 1.5688,1.45402 0.031,4.5366 -0.9075,1.81907 -1.65,3.9563 -1.65,4.7494 0,1.67892 -3.8029,7.38367 -5.6998,8.55042 -0.7151,0.43983 -1.3002,1.3498 -1.3002,2.02216 0,0.67235 -1.3331,2.83978 -2.9625,4.8165 -2.4082,2.92154 -3.8604,3.71316 -7.7612,4.23061 -3.4231,0.45408 -5.1928,1.26775 -6.1737,2.83839 -0.9784,1.56657 -1.0473,2.3111 -0.2388,2.58057 2.527,0.84235 0.8674,3.32679 -3.6138,5.40983 -2.6125,1.21439 -4.9009,2.5695 -5.0854,3.01135 -0.1845,0.44185 -0.7377,0.55475 -1.2293,0.25089 -1.5406,-0.95213 -5.1345,1.57849 -4.5192,3.18209 0.4059,1.05769 0.067,1.34224 -1.1724,0.98283 -0.959,-0.27823 -3.6359,-0.99455 -5.9487,-1.59182 -2.3127,-0.59727 -4.7877,-1.63655 -5.5,-2.30952 -1.9088,-1.80347 -4.0783,-1.46918 -6.776,1.04407 l -2.3961,2.23236 2.6655,0 c 1.727,0 3.2321,0.86475 4.2747,2.45602 1.8757,2.86257 1.2358,4.56567 -1.4512,3.86298 -1.0374,-0.27128 -2.1885,-0.004 -2.5581,0.59388 -0.3695,0.59792 -0.1765,1.08712 0.429,1.08712 1.8983,0 4.7692,3.41777 4.4654,5.31593 -0.1598,0.99877 -1.5635,2.91072 -3.1194,4.24878 -1.8887,1.62434 -2.3303,2.45432 -1.3288,2.49745 0.825,0.0355 0.4451,0.48729 -0.8443,1.00389 -1.2894,0.51661 -2.5502,1.72558 -2.8018,2.68662 -0.2517,0.96103 -2.0081,2.76323 -3.9032,4.00487 -1.8951,1.24165 -3.3343,2.81047 -3.1982,3.48626 0.1499,0.74392 -1.3307,1.43684 -3.7525,1.7562 -2.2,0.29012 -3.9398,0.9713 -3.8663,1.51374 1.4439,10.65202 1.4463,12.51834 0.017,13.06686 -0.8218,0.31538 -2.4645,0.0541 -3.6505,-0.5806 -1.186,-0.6347 -2.9086,-0.80942 -3.8281,-0.38826 -0.9196,0.42117 -3.7864,0.83897 -6.3707,0.92846 -2.5844,0.0895 -5.7884,0.87663 -7.1201,1.74921 -1.3318,0.87258 -3.9423,1.60922 -5.8012,1.63696 -8.5971,0.12834 -16.0392,1.3251 -16.5521,2.66177 -0.3187,0.83049 1.5463,3.4453 4.5668,6.40287 2.808,2.74951 5.125,5.56383 5.1489,6.25405 0.024,0.69022 2.6697,4.14264 5.8795,7.67205 l 5.836,6.41711 12.3705,0.36818 c 26.6285,0.79255 35.7504,1.69223 37.1966,3.66863 0.6108,0.83469 0.9504,0.82709 1.3027,-0.0291 0.308,-0.74835 1.9617,-0.96317 4.6739,-0.60713 2.3085,0.30304 9.7098,0.5641 16.4473,0.58013 6.7375,0.016 12.2502,0.28923 12.2504,0.60712 2e-4,0.3179 2.7925,0.698 6.2051,0.84468 3.4126,0.14668 7.9736,0.74299 10.1355,1.32514 4.7707,1.28461 13.3033,0.27743 14.046,-1.65797 0.3744,-0.97558 1.4565,-1.21516 3.5749,-0.79147 1.9439,0.38876 3.0381,0.20241 3.0381,-0.51739 0,-0.81595 11.8813,-1.12576 43.25,-1.12778 42.9352,-0.003 43.2809,0.0136 47.5,2.24829 5.4343,2.87833 5.4282,3.60834 -0.1767,21.08151 -4.79,14.93288 -5.2912,15.90881 -13.2322,25.76506 -2.9212,3.62564 -5.9957,8.23043 -6.8324,10.23287 -1.0117,2.4214 -2.7912,4.28866 -5.3129,5.57518 -2.1468,1.09518 -4.6145,3.46216 -5.6882,5.45596 -1.0431,1.93686 -2.2056,3.33056 -2.5833,3.0971 -0.3778,-0.23345 -4.7226,3.56549 -9.6553,8.44211 -5.3097,5.24935 -10.456,9.40445 -12.6146,10.18504 -4.1169,1.48867 -5.3127,3.82104 -3.6,7.02127 3.4246,6.39892 2.8252,9.89839 -1.6954,9.89839 -2.177,0 -3.7787,1.46269 -3.8326,3.5 -0.014,0.55 -0.8254,2.17604 -1.8019,3.61343 -1.8909,2.78325 -1.4059,2.6793 -22.7245,4.87069 -4.675,0.48056 -8.6321,0.90572 -8.7935,0.94481 -0.1615,0.0391 -2.7019,2.49867 -5.6453,5.46575 -4.4218,4.45724 -6.2781,5.59333 -10.6824,6.53788 -2.9318,0.62877 -6.3865,2.13866 -7.6771,3.35533 -1.9288,1.8183 -4.2947,2.40706 -13.2896,3.3072 -10.1529,1.01602 -11.245,1.33768 -15.1233,4.45439 -4.5513,3.65749 -10.6044,5.21933 -19.4951,5.03018 -4.3442,-0.0924 -6.108,0.46611 -10.6525,3.37318 -2.9955,1.91618 -6.3424,4.62318 -7.4377,6.01556 -1.0952,1.39238 -2.3808,2.5316 -2.8569,2.5316 -0.476,0 -1.385,0.83177 -2.0198,1.84839 -1.4615,2.34023 -13.7069,3.73456 -18.0097,2.05069 -1.5494,-0.60633 -5.882,-1.2099 -9.6279,-1.34126 -6.3797,-0.22371 -7.076,-0.028 -11,3.09197 -2.3041,1.83194 -4.6992,3.33517 -5.3226,3.3405 -2.388,0.0205 -2.115,4.42045 0.7035,11.33668 1.6077,3.94517 2.9246,7.68739 2.9265,8.31604 0,0.62866 0.6536,1.39251 1.4482,1.69744 0.7947,0.30494 1.7582,2.22462 2.1411,4.26595 0.7285,3.88283 5.4217,11.62927 8.8885,14.67078 1.1141,0.97745 3.7131,2.48881 5.7756,3.35858 2.384,1.00535 3.75,2.24558 3.75,3.40473 0,1.00282 1.35,2.78461 3,3.95951 1.65,1.1749 3,2.75934 3,3.52098 0,2.03765 -9.274,0.82136 -15.4464,-2.02582 -6.0635,-2.79692 -7.682,-2.38734 -6.8575,1.73529 l 0.6099,3.04954 -3.8891,-0.7296 c -3.7866,-0.71037 -3.8433,-0.67905 -2.153,1.18875 0.9549,1.05509 1.7361,2.66659 1.7361,3.58113 0,0.91453 0.9,2.22484 2,2.9118 1.1,0.68696 2.0011,1.70328 2.0023,2.25848 0,0.5552 1.3503,2.58445 2.9977,4.50945 1.6474,1.925 2.9964,4.0625 2.9977,4.75 0,0.6875 0.4523,1.25 1.0023,1.25 0.55,0 1,1.05526 1,2.34501 0,1.28976 0.9,3.1595 2,4.15499 2.3925,2.16519 2.6185,6.0545 0.4232,7.28307 -1.4109,0.78953 -1.3696,1.2516 0.3922,4.38818 1.9308,3.43774 1.9641,8.22898 0.065,9.40254 -0.4843,0.29934 -0.8806,1.33654 -0.8806,2.30489 0,1.79387 -4.4306,6.35741 -5.3143,5.47374 -0.267,-0.26702 -0.7347,-0.0821 -1.0394,0.41083 -0.3047,0.49297 1.68,3.23841 4.4103,6.10099 3.9202,4.11011 4.8412,5.6947 4.3794,7.53469 -0.3993,1.59114 -0.085,2.52158 0.9896,2.93415 2.0457,0.78502 2.0403,5.27417 -0.01,6.05993 -2.854,1.0952 -6.2491,0.63848 -9.611,-1.29294 -1.8874,-1.08426 -4.5881,-1.74683 -6.2908,-1.54331 -1.641,0.19614 -4.2977,-0.29889 -5.9037,-1.10007 -3.96,-1.97552 -5.5787,-1.83728 -8.2878,0.70778 -2.1594,2.02872 -2.4193,2.06008 -4.1432,0.5 -1.0115,-0.91546 -2.6208,-1.66447 -3.5762,-1.66447 -2.5644,0 -5.6353,-1.88202 -8.3657,-5.12687 -1.3297,-1.58022 -2.9919,-2.87313 -3.6938,-2.87313 -0.702,0 -2.561,-1.0125 -4.1313,-2.25 -1.5702,-1.2375 -4.6684,-2.76969 -6.8848,-3.40486 -2.2165,-0.63518 -5.0424,-1.47516 -6.2799,-1.86663 -2.1755,-0.68819 -2.2548,-0.48431 -2.3942,6.15486 -0.3909,18.60983 -0.2131,20.95926 1.8116,23.94352 1.0908,1.60771 3.5063,5.17311 5.3678,7.92311 1.8615,2.75 3.7258,5.14525 4.143,5.32278 0.4172,0.17753 1.0478,1.86503 1.4014,3.75 0.3537,1.88497 0.9666,3.42722 1.3622,3.42722 0.3955,0 2.4433,2.94816 4.5506,6.55146 2.1073,3.60331 4.6712,7.00089 5.6975,7.55018 1.0264,0.54929 1.622,1.39373 1.3236,1.87654 -0.2984,0.4828 0.364,1.16555 1.472,1.51721 1.108,0.35166 2.0145,1.43406 2.0145,2.40533 0,0.97127 0.3241,2.09008 0.7203,2.48625 1.468,1.46797 0.028,7.88694 -2.6775,11.9357 -1.5353,2.29753 -3.1057,5.19748 -3.4899,6.44432 -0.4014,1.30285 -2.2184,2.90202 -4.2723,3.76022 -1.9656,0.8213 -4.6169,2.5363 -5.8918,3.8113 -1.2749,1.2749 -4.2465,2.92925 -6.6034,3.67615 -2.357,0.7469 -5.4799,2.1742 -6.9398,3.1717 -1.4599,0.9976 -3.7958,1.8137 -5.191,1.8137 -1.3951,0 -2.8446,0.4985 -3.2212,1.1077 -0.4216,0.6822 -2.1498,0.8734 -4.4986,0.4979 -2.214,-0.3541 -4.0808,-0.1784 -4.4499,0.4188 -0.3496,0.5657 -1.1643,0.9339 -1.8103,0.8181 -0.646,-0.1157 -2.8979,0.5393 -5.0042,1.4557 -2.1062,0.9164 -4.8062,1.6347 -6,1.5961 -1.1937,-0.039 -3.0756,0.2188 -4.1819,0.572 -2.3688,0.7563 -13.4885,-6.6807 -13.4885,-9.0213 0,-0.7948 -0.4749,-1.445 -1.0553,-1.445 -1.9013,0 -6.2177,-10.86998 -5.4866,-13.81673 0.3661,-1.47583 0.8243,-3.80833 1.0182,-5.18333 0.1938,-1.375 1.0741,-5.2 1.9562,-8.5 1.1741,-4.39205 1.5568,-9.88587 1.428,-20.5 -0.1935,-15.96036 0.8106,-19.96678 6.9751,-27.8295 4.3539,-5.55338 6.1736,-12.32069 5.9617,-22.1705 -0.1006,-4.675 0.1836,-10.37869 0.6315,-12.67487 0.69,-3.53734 0.466,-4.66406 -1.4667,-7.37832 -1.8017,-2.53035 -2.2431,-4.38468 -2.1003,-8.82513 0.1532,-4.76332 -0.2799,-6.30877 -2.8362,-10.12168 -1.6594,-2.475 -3.019,-5.00181 -3.0213,-5.61514 0,-0.61333 -1.0168,-2.40233 -2.2543,-3.97555 -1.2375,-1.57323 -2.0534,-2.87142 -1.8131,-2.88486 0.2402,-0.0135 -0.2623,-1.14945 -1.1167,-2.52445 -1.4925,-2.40176 -3.302,-8.67846 -7.7838,-27 -1.7681,-7.22807 -3.186,-10.14602 -9.4754,-19.5 -10.489,-15.59977 -11.8545,-16.74319 -20.2653,-16.96975 -4.5945,-0.12376 -8.3749,0.41981 -11.671,1.67814 -2.7605,1.05385 -8.1642,1.98715 -12.4574,2.15156 -7.5569,0.28942 -7.5866,0.30147 -8.9427,3.62476 -1.5472,3.79189 -5.1674,7.01497 -9.6559,8.59674 -4.2629,1.5023 -7.88487,7.04563 -7.13417,10.91855 0.3199,1.65 1.0596,8.625 1.64377,15.5 1.6603,19.53841 1.4015,18.71929 7.9611,25.19796 3.231,3.19112 6.387,5.80204 7.0132,5.80204 0.6263,0 2.4975,0.9676 4.1584,2.15022 2.8069,1.99871 2.976,2.46848 2.4006,6.66709 -0.4562,3.32781 -0.2166,4.96164 0.9099,6.2064 1.3727,1.51682 1.3696,1.82181 -0.03,2.98364 -1.1818,0.98086 -2.0957,1.02642 -3.7752,0.18821 -3.8824,-1.9376 -9.7159,-4.1104 -9.7159,-3.61885 0,0.26106 -1.35,-0.22346 -3,-1.07671 -1.65,-0.85325 -3,-1.95948 -3,-2.45829 0,-1.0886 -3.89737,-2.52388 -5.99997,-2.20961 -5.2072,0.7783 -5.8123,1.1703 -5.2694,3.41373 0.3,1.23979 1.4804,3.28647 2.6231,4.54816 1.1647,1.28608 2.0927,3.69733 2.1119,5.48793 0.031,2.8577 0.8329,3.72158 7.61947,8.20601 8.0169,5.29744 10.3673,8.63692 11.9709,17.00822 1.18,6.15992 -1.4908,6.75598 -9.056,2.02112 -1.925,-1.2048 -5.75,-3.03692 -8.49997,-4.07137 -2.75,-1.03446 -6.5253,-2.90797 -8.3895,-4.16337 -3.9352,-2.64992 -7.347,-3.06244 -6.4721,-0.78253 0.3166,0.825 0.9774,1.5 1.4686,1.5 0.4911,0 0.893,0.60526 0.893,1.34501 0,0.73976 0.8589,2.12229 1.9086,3.0723 1.0498,0.95 2.4739,3.15725 3.1647,4.90498 0.6909,1.74774 1.8151,3.85271 2.4984,4.67771 0.6832,0.825 1.7806,3.52087 2.4387,5.99083 0.658,2.46996 2.0499,5.68943 3.093,7.15437 2.53187,3.55576 2.41657,4.13641 -1.1338,5.70794 -2.2053,0.97617 -3.3874,1.04499 -4.342,0.25279 -2.0102,-1.66837 -2.702,-0.14916 -1.0678,2.34498 0.9238,1.40994 1.2301,3.34948 0.8383,5.30845 -0.4918,2.45923 -0.1884,3.35463 1.4923,4.40426 1.1603,0.72461 2.1096,1.79358 2.1096,2.37548 0,1.81518 7.64627,9.11594 12.14847,11.59948 2.3633,1.30367 4.7592,3.27763 5.3242,4.3866 0.565,1.10897 2.0398,3.42644 3.2773,5.14994 1.2375,1.72349 2.25,3.61808 2.25,4.2102 0,1.68256 -4.6089,2.42574 -10.3042,1.66153 -9.2801,-1.24523 -12.69337,-1.35977 -13.25877,-0.44494 -0.7076,1.14501 -7.1456,1.17866 -7.8487,0.041 -0.2913,-0.47139 -2.9649,-1.10841 -5.9412,-1.4156 -4.5019,-0.46463 -6.0198,-1.16667 -9.0294,-4.17626 -1.9897,-1.98975 -3.6177,-4.06686 -3.6177,-4.61579 0,-0.54893 -0.6344,-1.24149 -1.4098,-1.53902 -0.7753,-0.29754 -1.6867,-1.64476 -2.0253,-2.99383 -0.7803,-3.10875 -6.7063,-9.70865 -11.2248,-12.50125 l -3.4666,-2.1425 -1.9367,2.07885 c -1.063,1.14334 -1.9345,2.68264 -1.9345,3.42064 0,0.73799 -0.5625,1.90431 -1.25,2.59181 -0.6875,0.6875 -1.2867,1.565 -1.3315,1.95 -0.1952,1.67585 -1.6454,6.86649 -2.4306,8.7 -1.3187,3.07907 -1.8295,13.70252 -0.7934,16.5 0.9708,2.62093 13.3263,15.00005 14.9715,15.00005 0.5236,0 0.672,0.4531 0.3296,1.007 -0.3423,0.5539 0.081,1.27715 0.941,1.60715 0.8599,0.3299 1.5634,1.2267 1.5634,1.9929 0,0.7661 0.4179,1.393 0.9286,1.393 0.5107,0 1.6565,0.728 2.5463,1.6177 0.8897,0.8898 3.2844,3.0291 5.3214,4.754 4.166,3.5277 4.4095,4.3075 4.4315,14.1925 0.01,4.5864 -0.5531,8.1643 -1.6061,10.2004 -0.8919,1.7248 -1.6217,3.9658 -1.6217,4.98 0,1.9886 -7.1665,10.2554 -8.8904,10.2554 -0.5758,0 -0.8281,0.57 -0.5608,1.2667 0.2674,0.6966 -0.4749,1.9341 -1.6494,2.75 -8.3487,5.799 -9.8994,7.1966 -9.8994,8.9222 0,1.0595 0.9,2.212 2,2.5611 5.0455,1.6014 -1.0701,9.7559 -8.7152,11.6209 -2.6316,0.642 -5.5005,1.5299 -6.3754,1.973 -2.3307,1.1808 -8.2667,6.8918 -7.2651,6.9899 0.8244,0.081 -10.6262,2.8054 -11.6443,2.7708 -0.275,-0.01 -1.85,-0.6407 -3.5,-1.4029 z m 31.4212,-40.4517 c 0.4167,0 1.2824,-1.1517 1.9238,-2.5594 1.0145,-2.2265 0.8246,-3.0071 -1.46,-6.0023 -2.6304,-3.4487 -2.4387,-5.0496 0.9003,-7.5192 0.432,-0.3195 1.0431,-2.1685 1.358,-4.1088 0.5009,-3.0867 0.1214,-3.9789 -3.0355,-7.1357 -1.9843,-1.9844 -3.6079,-4.0729 -3.6079,-4.6413 0,-1.567 -0.5938,-1.2915 -4.0799,1.8925 -2.8991,2.648 -3.1492,3.3288 -2.6341,7.1697 0.3131,2.3342 1.2768,4.64 2.1416,5.1239 0.8648,0.484 1.5724,1.9561 1.5724,3.2713 0,1.3152 0.45,2.6694 1,3.0093 1.4645,0.9051 1.2393,1.918 -1,4.5 -1.1,1.2683 -2,3.0997 -2,4.0697 0,1.8624 4.5224,4.0807 6.8318,3.3511 0.7325,-0.2315 1.6728,-0.4208 2.0895,-0.4208 z M 1398.4997,379.61663 c 0,-0.76085 1.0125,-1.69114 2.25,-2.0673 1.3734,-0.41748 1.7606,-0.88579 0.9938,-1.20204 -0.691,-0.28496 -1.044,-0.86164 -0.7845,-1.2815 0.2595,-0.41986 -0.8997,-0.80238 -2.576,-0.85004 -2.2318,-0.0635 -2.903,0.29056 -2.5071,1.32235 0.2974,0.77495 -0.2281,1.86267 -1.1677,2.41716 -1.4943,0.88174 -1.5204,1.13391 -0.2085,2.01113 2.1371,1.42895 4,1.26606 4,-0.34976 z"
     id="path2987"
     inkscape:connector-curvature="0" />
</svg>
