<?xml version="1.0" encoding="UTF-8" standalone="no"?>
<!-- Created with Inkscape (http://www.inkscape.org/) -->

<svg
   xmlns:dc="http://purl.org/dc/elements/1.1/"
   xmlns:cc="http://creativecommons.org/ns#"
   xmlns:rdf="http://www.w3.org/1999/02/22-rdf-syntax-ns#"
   xmlns:svg="http://www.w3.org/2000/svg"
   xmlns="http://www.w3.org/2000/svg"
   xmlns:sodipodi="http://sodipodi.sourceforge.net/DTD/sodipodi-0.dtd"
   xmlns:inkscape="http://www.inkscape.org/namespaces/inkscape"
   id="svg2"
   version="1.1"
   inkscape:version="0.48.2 r9819"
   width="1005.3328"
   height="654.25598"
   sodipodi:docname="M - Bear.png">
  <metadata
     id="metadata8">
    <rdf:RDF>
      <cc:Work
         rdf:about="">
        <dc:format>image/svg+xml</dc:format>
        <dc:type
           rdf:resource="http://purl.org/dc/dcmitype/StillImage" />
        <dc:title></dc:title>
      </cc:Work>
    </rdf:RDF>
  </metadata>
  <defs
     id="defs6" />
  <sodipodi:namedview
     pagecolor="#ffffff"
     bordercolor="#666666"
     borderopacity="1"
     objecttolerance="10"
     gridtolerance="10"
     guidetolerance="10"
     inkscape:pageopacity="0"
     inkscape:pageshadow="2"
     inkscape:window-width="1600"
     inkscape:window-height="876"
     id="namedview4"
     showgrid="false"
     fit-margin-top="0"
     fit-margin-left="0"
     fit-margin-right="0"
     fit-margin-bottom="0"
     inkscape:zoom="0.70710678"
     inkscape:cx="504.41949"
     inkscape:cy="319.57444"
     inkscape:window-x="0"
     inkscape:window-y="24"
     inkscape:window-maximized="1"
     inkscape:current-layer="svg2" />
  <path
     style="fill:#000000"
     d="m 322.8985,652.25947 -2.5381,-1.99652 -4.3847,-0.66332 -4.3846,-0.66331 -2.3497,-2.12004 c -2.7946,-2.52159 -9.1503,-11.85654 -9.1503,-13.43961 0,-0.61191 -0.7272,-2.63742 -1.6159,-4.50113 l -1.6159,-3.38857 1.7046,-3.59219 1.7046,-3.59219 5.1613,-3.93527 c 2.8387,-2.16439 6.5113,-4.60165 8.1613,-5.41612 l 3,-1.48086 6.8968,-0.67994 6.8967,-0.67993 2.4881,-1.95711 c 1.3684,-1.07641 2.9899,-1.95785 3.6032,-1.95876 0.6133,-9e-4 3.5902,-1.70255 6.6152,-3.78142 l 5.5,-3.77978 2.8925,-5.85557 2.8926,-5.85558 0.1074,-15.113 0.1075,-15.113 -1.3176,-11.12048 -1.3175,-11.12049 1.4308,-3.42446 1.4308,-3.42447 0.7419,-7.91646 c 0.408,-4.35406 1.1943,-9.05884 1.7474,-10.45506 l 1.0056,-2.53858 -0.091,-6.82988 -0.091,-6.82987 1.4801,-3.54225 c 0.814,-1.94824 1.4801,-4.29894 1.4801,-5.22378 0,-2.50931 -4.9489,-12.11164 -8.1735,-15.85902 l -2.8265,-3.28479 0,-2.05748 0,-2.05747 -2,-2.54259 -2,-2.54259 0,-2.47898 0,-2.47899 -2.1711,-3.86294 -2.1711,-3.86294 1.2136,-2.66353 1.2135,-2.66353 -1.9255,-2.10969 c -2.8767,-3.15186 -5.2837,-8.38177 -6.7496,-14.66591 l -1.3093,-5.61227 0.5565,-2.12805 0.5565,-2.12805 -5.6068,-5.87811 -5.6067,-5.87812 0,-3.03714 0,-3.03714 -1.4562,-1.20854 -1.4562,-1.20853 -1.0438,0.64511 -1.0438,0.6451 0,2.97237 0,2.97237 -1.4813,0.56841 -1.4812,0.5684 -7.2688,-6.58872 -7.2687,-6.58872 -1.7149,-0.0111 -1.7148,-0.0111 -1.0976,2.05102 c -0.6038,1.12806 -2.4863,3.37806 -4.1835,5 l -3.0859,2.94904 -3.2292,0 -3.2293,0 -1.1983,-1.4439 -1.1983,-1.4439 -4.6741,0.49986 -4.6741,0.49986 -4.4197,-4.05596 -4.4197,-4.05596 -4.8971,0 -4.897,0 -3.4864,-2.65918 -3.4863,-2.65919 -1.3865,-3.31831 -1.3865,-3.3183 -3.7132,-3.27251 c -2.0423,-1.79988 -4.5539,-3.86711 -5.5814,-4.59384 l -1.868,-1.32132 -3.0558,2.57132 c -1.6808,1.41423 -3.6357,2.57133 -4.3443,2.57133 -0.7086,0 -2.5124,0.96279 -4.0084,2.13953 l -2.72,2.13953 0.588,3.13394 0.5879,3.13395 -1.539,2.19722 -1.539,2.19723 -4.0722,1.22005 -4.0721,1.22005 -0.7999,2.05925 c -1.8974,4.88453 -4.9834,15.33758 -4.9834,16.87975 l 0,1.6795 -1.4916,0 -1.4915,0 -1.249,-2 -1.249,-2 -1.2595,0 -1.2594,0 -0.081,1.25 c -0.045,0.6875 -0.1732,2.51381 -0.2856,4.05846 l -0.2044,2.80847 -1.4644,0.92622 c -0.8054,0.50942 -2.4218,0.93312 -3.592,0.94154 l -2.1275,0.0153 -0.9963,-1.25 c -0.548,-0.6875 -1.297,-3.275 -1.6645,-5.75 l -0.6681,-4.5 -2.8067,-3.40252 -2.8067,-3.40251 -1.1513,0.71153 -1.1513,0.71153 0,1.86426 0,1.86426 2.408,2.86176 2.408,2.86175 0.1889,3.96497 c 0.1039,2.18073 0.1453,4.75247 0.092,5.71497 l -0.097,1.75001 -2.2911,0 -2.2911,0 -2.7089,-5.34991 c -1.4899,-2.94246 -2.7089,-6.0659 -2.7089,-6.94099 l 0,-1.59107 -1.0741,-0.66378 -1.074,-0.66379 -2.3749,2.23111 -2.3749,2.23111 -2.8011,-0.75291 c -1.5406,-0.4141 -4.826,-0.7106 -7.301,-0.6589 l -4.5,0.094 -3.3192,-2.90952 -3.3192,-2.90952 -1.4308,0.54906 c -0.787,0.30201 -1.4308,0.93776 -1.4308,1.4128 l 0,0.86372 -5.75,2.73978 -5.75,2.73979 -4,-0.14525 -4,-0.14525 -4.7495,1.51495 -4.7495,1.51495 -1.2505,1.72005 c -0.6878,0.94603 -2.3632,2.48495 -3.7231,3.41981 l -2.4725,1.69976 -3.220703,0 -3.220797,0 -1.3067,1.85862 -1.3067,1.85862 -17.5162,0.72281 -17.5161,0.7228 -2.7339,-2.53367 -2.7338,-2.53368 0.015,-2.79775 0.015,-2.79775 1.4443,-2.5 c 0.7943,-1.375 2.2189,-3.95794 3.1656,-5.73986 l 1.7214,-3.23986 1.8196,-0.57753 1.8197,-0.57753 0,-1.46399 0,-1.464 -1.4974,-0.57458 -1.4973,-0.57457 -4.7527,2.96077 -4.7526,2.96077 -10.7856,1.18982 -10.7855,1.18982 -2.5993,-2.04463 c -1.4297,-1.12455 -3.198,-2.04463 -3.9297,-2.04463 l -1.3303,0 -3.6024,-3.16288 -3.6023,-3.16288 0.5915,-2.35671 0.5915,-2.3567 -3.4442,-2.0321 L 8.2509997,381.09287 7.2696,378.27767 6.2882,375.46247 3.8004,374.83807 1.3125,374.21366 0.6563,371.59888 0,368.98409 2.0457,365.05938 c 1.1251,-2.1586 2.0457,-4.59026 2.0457,-5.40371 l 0,-1.47899 2,-1.71246 1.9999997,-1.71245 0,-5.06779 0,-5.06778 4.0000003,-4.41995 4,-4.41995 0,-3.13504 0,-3.13503 2.0852,-1.88709 c 1.1468,-1.0379 3.6218,-3.98044 5.5,-6.53897 l 3.4148,-4.65187 0,-1.72725 0,-1.72724 4,-4.77756 c 2.2,-2.62766 4,-5.19018 4,-5.6945 0,-0.50432 1.125,-2.44179 2.5,-4.3055 l 2.5,-3.38856 0,-2.68327 0,-2.68328 -1.566,-1.29961 c -0.8612,-0.71479 -2.2015,-2.52874 -2.9784,-4.03101 l -1.4124,-2.73139 -0.1215,-4.84144 -0.1215,-4.84144 1.5999,-4.37573 c 0.8799,-2.40665 1.5999,-5.42888 1.5999,-6.71607 0,-3.8295 7.8802,-21.02617 11.9484,-26.07446 1.4034,-1.74144 3.7891,-5.17482 5.3016,-7.62973 l 2.75,-4.46348 0,-2.23448 0,-2.23448 5.21,-6.13578 c 2.8655,-3.37469 7.1405,-8.25401 9.5,-10.84295 l 4.29,-4.70716 0,-2.13408 0,-2.13409 5.5,-6.62618 c 3.025,-3.6444 5.5,-7.1519 5.5,-7.79445 0,-0.64254 -0.6723,-2.4572 -1.4939,-4.03257 -0.8216,-1.57537 -1.4946,-3.76431 -1.4955,-4.86431 l 0,-2 -3.6385,-7.17954 -3.6385,-7.17954 0.654,-1.32045 c 0.3597,-0.72625 1.7604,-3.12046 3.1126,-5.32046 1.3523,-2.2 3.212,-5.68866 4.1327,-7.75257 l 1.6741,-3.75258 3.5973,-0.91691 c 1.9786,-0.5043 5.4759,-1.21196 7.7719,-1.57258 l 4.1746,-0.65568 1.1106,2.07516 1.1106,2.07516 3.2148,0.0406 3.2148,0.0406 3.4623,2.95936 3.4622,2.95936 1.6794,0 1.6793,0 0.6075,-2.42054 0.6076,-2.42053 -0.6148,-1.6021 -0.6148,-1.60209 4.6157,-4.93453 4.6156,-4.93453 0,-2.85575 0,-2.85575 2.8048,-2.68709 2.8047,-2.68709 1.5728,0 1.5728,0 1.3242,1.59555 1.3242,1.59555 3.8188,-0.61064 3.8187,-0.61064 2.9299,1.51509 2.9298,1.51509 6.8947,0 6.8947,0 1.8538,2.04852 1.8539,2.04853 3.0511,-0.29853 3.0512,-0.29844 0.5,-3.5 0.5,-3.5 3.3363,-1.66603 c 1.8351,-0.91632 4.0851,-2.34743 5,-3.18025 0.915,-0.83282 2.9012,-2.65015 4.4137,-4.03851 l 2.75,-2.5243 0,-5.390472 0,-5.390465 1.9594,-1.773251 1.9594,-1.773251 4.3644,-0.491932 4.3644,-0.491933 4.1364,2.110196 4.1363,2.110196 1.9831,0 1.9831,0 1.3068,-1.851086 c 0.7186,-1.018098 2.7558,-2.597755 4.527,-3.510351 l 3.2204,-1.659264 1.0648,-1.989649 1.0648,-1.98965 2.8612,0 2.8613,0 3.1036,-3.534796 3.1036,-3.534796 0,-2.406187 0,-2.406187 1.1881,-0.73431 1.1881,-0.734309 1.0619,1.837544 c 0.584,1.010649 1.8494,2.66453 2.8119,3.675292 l 1.75,1.837749 1.3539,0 1.354,0 2.6976,-2.5 2.6975,-2.5 2.3298,0 2.3298,0 2.6848,-3.51995 2.6848,-3.51995 0.5565,-3.429184 0.5564,-3.429184 5.3565,-5.664523 5.3565,-5.664524 2.7709,0.693279 2.771,0.693278 0.7996,1.420379 0.7997,1.420379 1.3995,0 1.3994,0 2.7267,-3.574926 2.7267,-3.574926 3.5576,-1.675152 3.5577,-1.675151 4.0165,-7.249813 4.0166,-7.249813 2.621,0.551017 2.621,0.551016 5.034,-5.301126 c 2.7687,-2.915619 6.5393,-7.184673 8.379,-9.486787 1.8397,-2.302113 3.9597,-4.44553 4.711,-4.763149 0.7513,-0.317618 7.4032,-0.867022 14.7819,-1.220898 l 13.4158,-0.643412 2.7181,2.520495 2.7182,2.520495 3.427,1.145773 3.4271,1.145773 6.1977,-0.634969 6.1976,-0.63497 2.1253,2.125262 2.1253,2.125261 1.4648,0 1.4648,0 1.0088,-1.884972 1.0088,-1.884971 2.6568,-0.666815 2.6568,-0.666815 2.3696,2.226101 2.3696,2.2261 2.4438,-2.29591 2.4439,-2.295909 9.3061,-0.874462 c 5.1184,-0.480954 10.8175,-1.130798 12.6648,-1.444097 l 3.3586,-0.569634 2.347,-2.532437 L 442.0043,0 l 1.2206,0.406874 1.2206,0.40687397 1.1209,3.94125503 1.1208,3.941255 13.3621,-0.332986 13.3622,-0.332987 7.7629,3.642911 7.7629,3.642911 3.5932,-0.674099 3.5933,-0.674099 6.1121,-4.885826 6.1121,-4.885825 3.7175,0 3.7176,0 1.81,2 1.8099,2 3.2102,0 3.2101,0 2.6031,2.047607 2.6032,2.047606 1.3023,2.702394 1.3023,2.702393 4.4794,0 4.4795,0 1.3448,4.25 1.3449,4.25 1.8766,0 1.8765,0 0.866,-3.25 0.8661,-3.25 1.9125,0.338531 c 1.0519,0.186193 4.4636,0.539647 7.5816,0.785454 l 5.6691,0.446922 0.6399,-1.035453 0.64,-1.035454 3.191,0.0046 3.191,0.0046 3.25,3.046058 3.25,3.046059 0,1.470754 c 0,0.808915 1.1848,3.261106 2.6328,5.449314 l 2.6329,3.978615 1.3201,0 1.3201,0 0.9463,-3.427223 0.9464,-3.427223 2.8507,-3.572747 2.8507,-3.572748 2.2148,-3e-5 2.2148,-2.9e-5 1.0352,1.934259 1.0352,1.934258 0,3.631483 0,3.631483 1.0695,1.998442 1.0695,1.998441 2.952,-0.648369 2.952,-0.648369 1.8311,2.261293 1.8311,2.261292 2.3277,-2.677106 c 1.2803,-1.472409 2.7595,-2.677107 3.2871,-2.677107 0.5277,0 1.5033,-0.743749 2.168,-1.652775 l 1.2085,-1.652775 1.1518,0.711792 1.1517,0.711792 0,1.859196 c 0,1.022557 0.2731,2.570999 0.6069,3.440983 l 0.607,1.581787 2.173,0 2.173,0 3.0546,-3.25 3.0546,-3.25 1.8123,-5.78176 c 2.0436,-6.519786 2.327,-6.842589 5.3201,-6.059885 l 2.1486,0.56188 1.2258,3.389883 1.2258,3.389882 1.5491,-0.04064 1.5492,-0.04064 3.4622,-2.95936 3.4622,-2.95936 3.0378,-0.0318 3.0378,-0.0318 1.9411,-1.468196 1.9411,-1.468204 2.6346,0 2.6345,0 2.1743,2.314451 2.1744,2.314451 0,1.662496 0,1.662496 2.75,1.772641 c 1.5125,0.974953 3.4529,2.617492 4.312,3.650086 l 1.5621,1.877445 2.1879,-0.694421 2.188,-0.69442 0,-1.398686 c 0,-0.769277 -0.7451,-2.961047 -1.6557,-4.870601 l -1.6556,-3.471916 1.6787,-2.562011 1.6787,-2.562011 2.3784,0 2.3785,0 2.8485,3.547475 c 1.5666,1.951111 3.8405,4.651111 5.053,6 l 2.2045,2.452525 1.488,0 1.488,0 0.3075,-4.242532 0.3075,-4.242531 2.8803,-1.374509 2.8804,-1.374509 3.8179,1.260047 3.818,1.260047 4.5298,-0.62088 4.5298,-0.620879 1.9764,-1.234272 1.9764,-1.234272 0.7939,0.793906 0.7939,0.793906 -1.7484,1.278482 c -0.9617,0.703164 -1.7484,1.753839 -1.7484,2.334832 0,0.580993 -1.2375,1.963693 -2.75,3.072667 l -2.75,2.016315 1.317,1.317091 1.3171,1.317091 2.0164,-2.75 2.0163,-2.75 1.3096,0 1.3096,0 0.6075,-1.583158 0.6075,-1.583158 1.2495,0.410812 1.2495,0.410812 0.5,4.422346 0.5,4.422346 1.5,0 1.5,0 0.3058,-3.673888 0.3058,-3.673888 1.4698,-1.219799 1.4697,-1.219798 3.2245,1.520946 c 4.3716,2.062121 9.6521,3.89126 12.9744,4.494274 l 2.75,0.499152 0,1.764056 0,1.764056 1.3332,1.106497 1.3333,1.106498 10.4167,0.654753 10.4168,0.654753 2.7003,1.361194 2.7003,1.361194 3.3754,0 3.3753,0 2.4243,2.595014 c 1.3334,1.427258 3.7413,3.279881 5.3508,4.11694 l 2.9265,1.521926 5.4666,-0.642486 5.4665,-0.642486 1.9623,1.775546 1.9624,1.775546 5.0795,-0.218967 5.0796,-0.218967 1.3151,1.091412 1.3151,1.091411 0,2.177556 0,2.177555 1.2,1.2 1.2,1.2 2.2758,0 2.2758,0 3.2742,1.996262 c 1.8008,1.097944 4.0604,1.997944 5.0213,2 l 1.7471,0.0037 3.886,3.510797 3.8861,3.510797 1.2577,3.036361 1.2577,3.036362 2.6091,1.313267 2.6092,1.313268 6,-0.458324 6,-0.458324 6.75,5.217614 6.75,5.217613 0,2.845101 0,2.8451 -2,1.070366 -2,1.07037 0.057,1.21481 0.057,1.21482 5.8474,4.750002 5.8474,4.75 2.1522,0 2.1521,0 2.9436,3.22286 c 3.0645,3.35518 3.6439,5.22634 1.9437,6.27714 -0.55,0.33992 -1,1.29669 -1,2.12617 l 0,1.50813 3.25,3.29177 c 1.7875,1.81047 5.9972,6.16775 9.3549,9.68284 l 6.1049,6.39109 1.662,3.23307 1.662,3.23308 2.8346,1.46584 2.8347,1.46584 3.1484,3.58587 3.1485,3.58588 0,1.47933 0,1.47934 4.4741,5.49305 4.4742,5.49305 1.5762,5.42199 1.5762,5.422 2.1801,2.77151 c 1.199,1.52434 3.2013,4.97589 4.4496,7.67013 l 2.2696,4.8986 0,5.45789 0,5.45788 1.1355,4.69282 1.1356,4.69282 2.2383,2.5 2.2384,2.5 0.5459,4.36158 0.5459,4.36158 2.8184,2.94182 2.8185,2.94183 0.585,7.96195 0.585,7.96195 1.9879,2.73465 1.9879,2.73464 1.2674,8.42627 1.2675,8.42627 1.4635,3.65756 1.4635,3.65756 3.95789,3.7505 3.95791,3.7505 -0.032,8.66567 -0.032,8.66567 -1.4682,1.94113 -1.4682,1.94113 0,1.84936 0,1.84937 2.0818,2.81577 2.0818,2.81578 0.538,5.93364 0.5381,5.93363 -3.6199,2.76099 -3.61981,2.76098 -0.036,3.19911 c -0.02,1.75951 -0.68759,5.89911 -1.48439,9.19911 l -1.4488,6 -0.054,7.5 -0.055,7.5 -3.4261,5.5 c -1.8843,3.025 -4.4115,7.3 -5.6161,9.5 l -2.19,4 -0.1562,6 -0.1562,6 -1.7679,7 c -0.9724,3.85 -2.1914,7.675 -2.7089,8.5 -0.5176,0.825 -1.6062,2.94627 -2.4192,4.71393 l -1.4783,3.21394 -1.9359,1.03606 c -1.064,0.56988 -2.9,1.03611 -4.0793,1.03611 l -2.1441,0 -4.0358,4.20039 -4.0357,4.20038 0.6373,5.42226 0.6373,5.42225 -2.6055,4.44586 -2.6054,4.44585 -0.5572,7.68151 -0.5573,7.6815 -2.3697,4.5 c -1.3034,2.475 -3.2656,6.06798 -4.3605,7.9844 l -1.9907,3.4844 0,2.6975 0,2.69751 -3.0227,2.15231 -3.0226,2.15231 -2.2274,3.98912 c -1.225,2.19402 -3.2213,5.86862 -4.4361,8.16578 l -2.2088,4.17667 -0.041,3.12788 -0.041,3.12787 -1.5,3.59001 -1.5,3.59 0,8.37713 0,8.37713 -2.1101,1.90499 -2.1102,1.90499 0.6633,6.5 0.6632,6.5 2.2834,2.5 2.2834,2.5 1.6179,12.88699 1.6179,12.88699 2.0442,2.17598 2.0442,2.17599 0.6472,13.49495 0.6472,13.49494 -1.2679,5.44208 -1.2679,5.44208 -2.0393,3.37923 -2.0394,3.37922 -5.4884,2.51268 -5.4884,2.51268 -11.1001,-0.81644 c -6.1052,-0.44905 -14.9252,-0.82399 -19.6002,-0.83321 l -8.5,-0.0168 -7,1.28009 c -3.85,0.70406 -9.6188,2.12602 -12.8196,3.15991 -7.7774,2.51226 -14.8254,3.71093 -29.0825,4.94619 l -11.902,1.03121 -1.8378,-1.66322 -1.8379,-1.66322 -4.9513,-0.47576 -4.9513,-0.47576 -4.9861,1.79296 -4.986,1.79296 -8.7366,-2.92138 -8.7366,-2.92138 -1.8288,-2.5 -1.8288,-2.5 -0.9639,-9.41594 -0.9638,-9.41594 0.5309,-0.85896 c 0.292,-0.47243 3.5349,-2.39155 7.2065,-4.26473 l 6.6756,-3.40577 8,-6.53701 c 4.4,-3.59536 9.4842,-7.7399 11.2984,-9.2101 1.8141,-1.4702 4.9311,-4.66562 6.9266,-7.10094 l 3.6283,-4.42785 0.9721,-5.68138 c 1.1853,-6.92814 1.1736,-13.06403 -0.038,-19.68138 l -0.9153,-5 -1.6862,-3.20034 -1.6863,-3.20034 0,-3.6553 0,-3.65531 -2.3484,-2.79099 -2.3485,-2.791 -0.6231,-5.26122 -0.6231,-5.26122 -2.3634,-3.59214 -2.3634,-3.5921 -0.741,-3.5 c -0.4076,-1.925 -1.3067,-10.14537 -1.9979,-18.2675 l -1.2567,-14.7675 -1.7098,-1.25017 -1.7097,-1.25018 -0.9363,-6.61153 c -0.515,-3.63635 -1.3958,-7.82019 -1.9575,-9.29743 l -1.0211,-2.68589 0,-4.87588 0,-4.87589 -1.1066,-0.6839 -1.1066,-0.6839 -4.1434,1.296 -4.1434,1.29599 -3.1533,2.93128 -3.1532,2.93127 -1.6619,4.64762 c -0.9141,2.55618 -2.3076,5.84204 -3.0968,7.3019 l -1.4348,2.65429 0,3.84571 0,3.84571 -1.9963,3.27417 -1.9963,3.27417 0,2.32084 0,2.32084 -2,1.80998 -2,1.80998 0,2.71015 0,2.71015 -2,2.54259 -2,2.54259 0,2.46982 0,2.46983 -1.5,1.24489 -1.5,1.24489 0,3.15505 0,3.15505 -1.6307,2.32814 -1.6307,2.32814 -3.2543,1.35973 -3.2543,1.35974 -3.115,5.51948 -3.115,5.51948 0,9.31515 0,9.31515 -0.8554,0.95 c -1.055,1.17214 -4.144,10.75987 -4.144,12.86373 0,0.84586 0.8983,3.01131 1.9962,4.8121 1.098,1.80079 1.998,3.88421 2,4.62981 0,0.74561 1.1288,2.69263 2.5038,4.32673 l 2.5,2.97108 0,4.30083 0,4.30083 -1.5,1.24489 -1.5,1.24489 0,1.75511 0,1.75511 1.5,1.24489 1.5,1.24489 0,2.82039 0,2.8204 -2.208,3.7422 -2.2079,3.7422 -0.1517,5.88885 -0.1517,5.88886 -1.3904,1.36452 c -2.1818,2.14123 -12.3718,7.21757 -16.0554,7.99829 -1.8342,0.38876 -4.9099,1.48076 -6.8349,2.42667 -1.925,0.9459 -5.5928,2.73575 -8.1505,3.97744 l -4.6505,2.25762 -8.3495,1.96255 -8.3495,1.96255 -13.6518,0.58762 -13.6517,0.58762 -5.8483,-2.27321 c -3.2165,-1.25026 -7.9304,-3.10031 -10.4753,-4.11122 l -4.627,-1.83802 -8.373,1.51135 -8.3729,1.51136 -21.5808,0.61433 -21.5807,0.61433 -5.7901,-2.65079 -5.7901,-2.6508 -1.9651,0 c -1.0807,0 -4.8109,0.75834 -8.2893,1.68519 l -6.3243,1.6852 -4.1403,-1.24044 -4.1402,-1.24045 -5.6996,-4.99148 c -3.1347,-2.74532 -6.262,-5.4382 -6.9495,-5.98418 l -1.25,-0.99269 0.028,-1.71058 c 0.015,-0.94081 1.2967,-4.54294 2.8474,-8.00473 l 2.8194,-6.29416 4.7102,-5.45584 4.7102,-5.45584 4.9954,0 4.9955,0 3.625,-2.4633 3.6251,-2.46329 2.7515,-4.42074 2.7516,-4.42074 3.7925,-1.86597 3.7925,-1.86596 2.0015,-3.47543 2.0016,-3.47543 0.3856,-9.60016 0.3856,-9.60016 -1.991,-3.92441 -1.9911,-3.92441 -0.7151,-6.23823 -0.7151,-6.23823 -1.7577,-2.26177 c -0.9668,-1.24397 -2.3379,-4.03959 -3.047,-6.21248 -0.7091,-2.17289 -2.3495,-6.34822 -3.6454,-9.27851 -1.296,-2.93029 -2.3562,-6.02705 -2.3562,-6.88168 0,-0.85463 -1.35,-4.62973 -3,-8.3891 l -3,-6.83523 0,-2.88697 0,-2.88697 -3.2677,-3.44541 c -1.7972,-1.89498 -4.9472,-4.91883 -7,-6.71967 l -3.7323,-3.27425 0,-1.52121 0,-1.5212 -2.6203,-2.62027 -2.6203,-2.62027 -1.3431,-3.2146 -1.3432,-3.2146 -3.2866,-2.66848 c -1.8076,-1.46766 -4.1865,-3.44562 -5.2865,-4.39545 -1.1,-0.94983 -4.3125,-3.62787 -7.1388,-5.9512 l -5.1388,-4.22422 -2.1818,0 -2.1818,0 -4.6794,-3.88154 -4.6794,-3.88155 -4,-1.24878 c -2.2,-0.68682 -4.5625,-1.69523 -5.25,-2.2409 l -1.25,-0.99212 0,-1.89224 0,-1.89224 -3.2524,-3.54895 -3.2524,-3.54896 -1.644,0.63086 -1.644,0.63086 -0.5314,2.68278 c -0.2923,1.47553 -1.1037,4.58324 -1.8031,6.90602 l -1.2716,4.22325 2.2988,2.44697 2.2988,2.44698 -2.5994,2.26011 -2.5993,2.26012 0,1.82992 0,1.82992 -3.4038,4.84257 -3.4038,4.84256 -0.6382,6.39718 c -0.351,3.51845 -1.0533,13.14718 -1.5607,21.39718 -0.5074,8.25 -1.1849,17.925 -1.5054,21.5 l -0.5829,6.5 0.9302,9.5 0.9301,9.5 -1.8828,3.78079 -1.8827,3.7808 0,7.50904 0,7.50905 -2,3.92032 c -1.1,2.15618 -2,4.69044 -2,5.6317 0,0.94126 -1.1721,4.67169 -2.6047,8.28984 l -2.6046,6.57846 -1.8144,2 -1.8144,2 -0.6894,4 -0.6894,4 -2.2975,3.5 -2.2974,3.5 -0.7161,3.5 c -0.3938,1.925 -1.3902,5.20063 -2.2143,7.27917 l -1.4984,3.77918 -1.8632,0.9972 -1.8633,0.99721 -2.136,4.96526 -2.136,4.96527 -3.8277,3.25835 c -2.1052,1.7921 -5.1161,4.23447 -6.691,5.4275 l -2.8633,2.16914 -3.9395,0.71451 c -2.1667,0.39298 -5.1382,1.32088 -6.6033,2.062 l -2.6639,1.34749 -5.8361,0.65025 -5.8361,0.65025 -4,1.73865 -4,1.73865 -28.0772,0.65983 -28.0772,0.65982 -2.5382,-1.99651 z m 344.881,-155.69378 0.6257,-1.63057 -1.6719,-3.11943 -1.672,-3.11944 -0.7832,-6.55733 -0.7831,-6.55733 -3.0871,-3.94267 -3.0871,-3.94267 -0.5403,-4.40351 -0.5403,-4.4035 -2.1881,-2.95952 -2.188,-2.95952 -0.2669,-4.94513 -0.2668,-4.94513 -2.1197,-2.2563 -2.1196,-2.25629 0,-2.56892 0,-2.56892 -2.25,-0.60297 c -2.9281,-0.78469 -10.1481,-0.79852 -12.1683,-0.0233 l -1.5817,0.60699 0,1.27056 c 0,0.69882 0.6081,1.77525 1.3513,2.39207 l 1.3513,1.1215 1.7988,6.75094 1.7988,6.75095 1.7318,2.5 c 2.8447,4.1066 8.5864,15.34378 9.3071,18.21514 l 0.6715,2.67555 3.7447,4.42187 c 2.0596,2.43202 4.5193,5.71912 5.466,7.30465 0.9468,1.58554 2.1362,3.55779 2.6432,4.38279 0.507,0.825 1.4102,2.7375 2.0072,4.25 l 1.0854,2.75 1.5528,0 1.5528,0 0.6257,-1.63056 z m -22.6884,-453.359642 1.5,-0.959585 -1.5335,-2.775103 -1.5334,-2.775102 -2.2166,-0.319551 -2.2165,-0.319551 0,2.498122 0,2.498123 1.5714,1.571428 c 1.8182,1.818235 2.3797,1.891924 4.4286,0.581219 z m -82.0547,-11.954831 1.4453,-0.914415 -1.9227,-3.570272 -1.9228,-3.570272 -1.2725,0 -1.2726,0 0,1.418213 c 0,0.780016 -0.2509,2.071994 -0.5576,2.871061 l -0.5575,1.452848 1.629,1.628939 c 1.8651,1.865114 2.4272,1.951869 4.4314,0.683898 z m 49.3047,2.695041 0.4166,-1.25 1.3334,0 1.3333,0 0.4167,1.25 0.4166,1.25 -2.1666,0 -2.1667,0 0.4167,-1.25 z"
     id="path2989"
     inkscape:connector-curvature="0" />
</svg>
