<?xml version="1.0" encoding="UTF-8" standalone="no"?>
<!-- Created with Inkscape (http://www.inkscape.org/) -->

<svg
   xmlns:dc="http://purl.org/dc/elements/1.1/"
   xmlns:cc="http://creativecommons.org/ns#"
   xmlns:rdf="http://www.w3.org/1999/02/22-rdf-syntax-ns#"
   xmlns:svg="http://www.w3.org/2000/svg"
   xmlns="http://www.w3.org/2000/svg"
   xmlns:sodipodi="http://sodipodi.sourceforge.net/DTD/sodipodi-0.dtd"
   xmlns:inkscape="http://www.inkscape.org/namespaces/inkscape"
   id="svg2"
   version="1.1"
   inkscape:version="0.48.2 r9819"
   width="714.28906"
   height="1847.9873"
   sodipodi:docname="SeahorseB.png">
  <metadata
     id="metadata8">
    <rdf:RDF>
      <cc:Work
         rdf:about="">
        <dc:format>image/svg+xml</dc:format>
        <dc:type
           rdf:resource="http://purl.org/dc/dcmitype/StillImage" />
        <dc:title></dc:title>
      </cc:Work>
    </rdf:RDF>
  </metadata>
  <defs
     id="defs6" />
  <sodipodi:namedview
     pagecolor="#ffffff"
     bordercolor="#666666"
     borderopacity="1"
     objecttolerance="10"
     gridtolerance="10"
     guidetolerance="10"
     inkscape:pageopacity="0"
     inkscape:pageshadow="2"
     inkscape:window-width="1920"
     inkscape:window-height="1176"
     id="namedview4"
     showgrid="false"
     fit-margin-top="0"
     fit-margin-left="0"
     fit-margin-right="0"
     fit-margin-bottom="0"
     inkscape:zoom="0.51082251"
     inkscape:cx="374.75708"
     inkscape:cy="935.7331"
     inkscape:window-x="0"
     inkscape:window-y="24"
     inkscape:window-maximized="1"
     inkscape:current-layer="svg2" />
  <path
     style="fill:#000000"
     d="m 251.63846,1847.9873 c -0.55,2e-4 -2.35,-0.6992 -4,-1.5543 -1.65,-0.855 -4.3714,-2.8772 -6.0476,-4.4938 l -3.0476,-2.9392 -2.7811,0 -2.781,0 -8.8765,4.1242 -8.8765,4.1242 -1.5047,-0.5774 -1.5047,-0.5774 -2.9978,-4.2968 c -1.6488,-2.3632 -3.6202,-5.1714 -4.3808,-6.2404 l -1.383,-1.9435 -8.6996,2.2982 -8.6997,2.2982 -3.0069,-1.2455 -3.0068,-1.2455 -1.5735,-3.1092 c -0.8654,-1.71 -2.2639,-3.8966 -3.1078,-4.8591 l -1.5344,-1.75 -2.3849,0 -2.3848,0 -4.1363,2.1102 -4.1364,2.1102 -4.438,-0.5002 -4.4381,-0.5003 -2.6358,-1.9308 -2.6357,-1.9308 -2.5,-4.7117 -2.5,-4.7116 -2.2324,-0.5715 -2.2323,-0.5715 -3.1669,1.104 c -1.7418,0.6072 -4.6845,1.104 -6.5395,1.104 l -3.3725,0 -3.9782,-6.155 -3.9782,-6.1551 0,-4.8449 0,-4.845 -1.75,-0.01 c -0.9625,0 -3.4236,-0.4703 -5.469,-1.0384 l -3.7189,-1.0329 -2.9675,-2.497 -2.9675,-2.497 -1.172,-5.7145 c -0.6445,-3.143 -1.6077,-6.2524 -2.1404,-6.9097 l -0.9684,-1.195 -5.2894,-1.0981 -5.2893,-1.098 -2.0861,-2.2206 c -1.1473,-1.2213 -2.7825,-3.8874 -3.6338,-5.9247 l -1.5477,-3.6999 -0.014,-2.7821 c -0.01,-1.5301 -0.2835,-3.7891 -0.6134,-5.0198 l -0.5997,-2.2376 -4.841,-3.4779 c -2.6626,-1.9129 -5.5374,-4.5408 -6.3886,-5.8399 l -1.5477,-2.362 0.92,-4.9224 0.9199,-4.9225 -5.9583,-6.2055 -5.95822,-6.2054 0.66016,-5.2946 c 0.36309,-2.912 1.003,-7.233 1.42202,-9.6022 l 0.76187,-4.3077 -4.8995,-5.6923 -4.89949,-5.6923 -0.51799,-2 -0.51798,-2 2.36225,-7 2.36226,-7 -0.42697,-4.2026 -0.42696,-4.2026 3.10051,-5.4191 3.10052,-5.4192 0,-5.1072 0,-5.1073 1.94132,-6.271 c 1.0678,-3.4491 2.2111,-7.5474 2.5408,-9.1074 l 0.5993,-2.8364 4.3254,-4.6636 4.3254,-4.6636 2.1851,-5 2.1851,-5 3.1988,-3.3353 c 1.7593,-1.8344 4.4632,-3.9974 6.0086,-4.8066 l 2.8098,-1.4713 1.825,-4.2576 1.825,-4.2576 3.1919,-2.6858 3.1919,-2.6858 1.9554,0 c 1.0755,0 3.4916,-0.6419 5.3691,-1.4263 l 3.4137,-1.4264 2.5396,-5.0116 2.5396,-5.0117 3.2646,-2.4439 c 1.7955,-1.3442 4.6146,-3.1102 6.2646,-3.9244 l 3,-1.4805 8.4463,-0.6774 8.4463,-0.6773 3.4661,-2.1422 3.4661,-2.1421 10.6967,-0.4408 10.6968,-0.4407 7.6066,2.2582 7.6066,2.2581 2.9425,-1.2188 2.9426,-1.2189 4.8417,2.6788 c 2.6629,1.4733 5.7417,3.4594 6.8417,4.4135 l 2,1.7346 4.2361,1.2059 4.236,1.2058 2.764,3.5159 2.7639,3.5158 5.5367,3.391 5.5367,3.391 3.2604,4.0572 3.2604,4.0572 1.4194,0 1.4193,0 4.938,6.5229 4.938,6.523 0.712,6.227 0.7119,6.2271 2.5166,8.5 2.5166,8.5 -0.1775,10.2888 -0.1775,10.2887 -2.0682,6.7113 c -1.1375,3.6911 -2.8734,8.2944 -3.8575,10.2293 l -1.7894,3.5182 -8.3627,7.9818 -8.3627,7.9819 -7.4853,3.7263 c -4.1169,2.0494 -11.5352,5.4879 -16.4852,7.641 l -9,3.9148 -9.5,0.5943 -9.5,0.5944 -10,-3.7267 -10,-3.7267 -4.7966,-4.9634 -4.7967,-4.9634 -3.1243,-6.5453 -3.1244,-6.5453 -0.9966,-8.6791 -0.9966,-8.6792 1.8459,-6.8192 1.8458,-6.8192 5.0581,-5.3482 5.0581,-5.3482 2.714,-1.4035 2.714,-1.4034 3.5993,0 3.5993,0 2.7027,1.3976 c 1.4865,0.7687 3.4821,2.2588 4.4346,3.3114 l 1.732,1.9138 -0.9174,3.1987 c -0.5046,1.7593 -1.4323,6.5952 -2.0615,10.7463 l -1.1441,7.5476 1.6015,2.4442 1.6015,2.4442 3.9066,2.5853 3.9066,2.5852 5.7012,-1.2758 5.7012,-1.2759 3.026,-2.0613 c 1.6642,-1.1337 3.9534,-3.3132 5.087,-4.8433 l 2.061,-2.7819 0.3845,-6.8048 0.3845,-6.8047 -2.1072,-4.1306 -2.1073,-4.1306 -6.1014,-6.5225 -6.1014,-6.5224 -3.645,-0.9659 c -2.0047,-0.5313 -7.1757,-1.3977 -11.491,-1.9253 l -7.8462,-0.9594 -6.4971,2.9151 c -3.5734,1.6032 -7.2813,2.915 -8.2398,2.915 l -1.7427,0 -6.6863,6.9258 -6.6862,6.9257 -2.3738,5.3676 c -1.3056,2.9521 -3.3206,8.4329 -4.4778,12.1795 l -2.104,6.8121 0,7.2347 0,7.2347 1.9891,7.9099 1.9891,7.91 3.6129,7 c 1.9871,3.85 5.1905,9.1513 7.1186,11.7807 l 3.5057,4.7807 9.1423,6.7949 c 5.0282,3.7372 9.7914,7.5863 10.5847,8.5537 l 1.4425,1.7587 6.5575,3.273 6.5576,3.2731 10.5,3.0959 10.5,3.0959 20.0158,1.1229 20.0158,1.1228 6.4842,-1.5147 c 3.5663,-0.8331 9.1842,-2.3965 12.4842,-3.4742 3.3,-1.0777 9.605,-3.496 14.0111,-5.374 l 8.0112,-3.4146 5.0396,-3.4374 c 2.7717,-1.8906 7.4917,-5.45 10.4888,-7.9097 l 5.4493,-4.4724 2.2527,-4.0276 c 1.2389,-2.2153 4.1006,-7.8527 6.3592,-12.5277 2.2586,-4.675 5.3811,-12.3976 6.9388,-17.1612 l 2.8323,-8.6613 2.6385,-14.8387 c 1.4512,-8.1614 3.5771,-20.0138 4.7242,-26.3388 l 2.0857,-11.5 0.079,-42.5 0.079,-42.5 -1.2235,-20.5 -1.2235,-20.5 -3.4315,-17.5 c -1.8873,-9.625 -4.6292,-22.225 -6.0931,-28 -1.4639,-5.775 -5.507,-19.05 -8.9847,-29.5 -3.4778,-10.45 -7.5089,-21.6309 -8.9581,-24.8464 -1.4492,-3.2155 -3.9329,-10.4155 -5.5193,-16 l -2.8843,-10.1536 -7.9874,-16.5 c -4.3931,-9.075 -9.9044,-19.875 -12.2474,-24 -2.343,-4.125 -15.3606,-29.5932 -28.928,-56.596 l -24.6681,-49.096 -6.5217,-9.904 c -3.587,-5.4472 -8.6067,-13.954 -11.155,-18.904 -2.5482,-4.95 -9.1702,-18.8047 -14.7154,-30.7882 -5.5453,-11.9836 -10.8933,-24.1336 -11.8846,-27 -0.9913,-2.8665 -11.7119,-25.6868 -23.8237,-50.7118 -12.1117,-25.025 -22.3518,-46.625 -22.7558,-48 -0.404,-1.375 -2.8801,-7.225 -5.5025,-13 l -4.7679,-10.5 -6.1702,-19.49996 c -3.3937,-10.72503 -7.1044,-21.52503 -8.246,-24.00003 l -2.0758,-4.50001 -0.3684,1.02271 c -0.2027,0.5625 -0.7026,3.7125 -1.1109,7 l -0.7424,5.9773 -3.3948,1.6947 c -1.8671,0.9321 -3.8696,2.1696 -4.45,2.75 -0.5804,0.5804 -1.8101,1.0553 -2.7328,1.0553 l -1.6775,0 -1.2189,-1.4687 -1.2189,-1.4686 -5.8863,-1.1581 -5.8862,-1.158 -0.9097,-1.1233 c -0.5004,-0.6178 -1.0706,-1.986 -1.2673,-3.0404 l -0.3576,-1.9172 -3,-0.9576 -3,-0.9576 -2.88,-2.6253 -2.88,-2.62521 -1.77145,-4 -1.77142,-4 -0.67684,-5.13675 -0.67684,-5.13675 6.32825,-6.42454 6.3283,-6.42454 8.25,-11.55479 c 4.5375,-6.35513 8.25,-12.05591 8.25,-12.66838 l 0,-1.1136 -3.7569,-1.9166 -3.7568,-1.9166 -5.2973,-5.60108 -5.2973,-5.60108 -2.5092,-5.48082 -2.5092,-5.48082 -1.0876,-8.77182 -1.08755,-8.77183 4.15905,-9.71811 4.159,-9.71812 -0.9688,-21.78188 -0.9688,-21.78189 -1.6547,-7.95452 -1.6548,-7.95452 0.4825,-25.54548 0.4825,-25.54548 4.1273,-21 4.1272,-21 3.0131,-9.5 c 1.6572,-5.225 3.717,-12.2 4.5773,-15.5 l 1.5643,-6 4.5027,-9.87383 4.5027,-9.87383 4.5747,-7.12617 c 2.5161,-3.91939 7.9952,-12.26624 12.1757,-18.54856 l 7.6009,-11.42238 16.5,-16.59839 16.5,-16.59839 16.8782,-14.97923 c 9.283,-8.23857 22.108,-18.96016 28.5,-23.82576 l 11.6218,-8.84654 14,-8.25306 14,-8.25307 15.1211,-7.15039 c 8.3166,-3.93272 15.8653,-7.1504 16.7749,-7.1504 0.9097,0 4.2302,-0.94054 7.379,-2.09009 3.1487,-1.14955 8.65,-2.8833 12.225,-3.85279 l 6.5,-1.76269 9.5,-4.59623 9.5,-4.59623 5,-1.26197 5,-1.26197 4.5,-2.96341 c 2.475,-1.62987 5.8084,-4.04058 7.4077,-5.35713 1.5992,-1.31655 6.4065,-4.15292 10.6829,-6.30305 l 7.7752,-3.90932 7.8171,-1.60336 7.8171,-1.60336 6.5,-2.56375 c 3.575,-1.41006 12.7686,-5.7612 20.4302,-9.6692 7.6616,-3.908 17.1116,-8.76677 21,-10.79728 l 7.0698,-3.69182 2.3596,-2.74139 2.3596,-2.74138 -0.4714,-4.90583 -0.4714,-4.90582 -2.6456,-2.66097 -2.6456,-2.66096 -5.2426,-1.56749 -5.2426,-1.5675 -6.5,3.45157 c -3.575,1.89836 -7.2875,4.34108 -8.25,5.42828 l -1.75,1.97671 0,2.85529 0,2.85529 1.6999,3.56477 1.6999,3.56477 -3.2113,3.21137 -3.2114,3.21136 -10.8675,-2.82101 -10.8675,-2.82102 -9.8933,-0.85935 -9.8933,-0.85934 -2.7332,-1.03918 -2.7333,-1.03917 -25.2445,-1.5817 c -13.8845,-0.86993 -28.1695,-2.03886 -31.7445,-2.59763 -3.575,-0.55877 -8.8529,-1.26215 -11.7287,-1.56305 l -5.2288,-0.5471 -5.2712,1.73062 -5.2713,1.73063 -9,0.83189 -9,0.83189 -10.3205,3.00885 c -5.6763,1.65487 -12.2157,3.29305 -14.5319,3.64039 l -4.2114,0.63153 -9.1783,-2.1548 -9.1783,-2.15481 -8.2898,1.62899 c -4.5594,0.89594 -12.7898,2.9249 -18.2898,4.50879 -5.5,1.58389 -11.8,3.19497 -14,3.58018 -2.2,0.38521 -5.6604,1.53483 -7.6897,2.55471 l -3.6896,1.85432 -8.8104,0.57278 -8.8103,0.57278 -6.7306,2.58887 -6.7306,2.58887 -0.5921,1.8656 -0.5921,1.86559 -4.057,2.06971 -4.057,2.06971 -11.9888,-1.15629 -11.9889,-1.15629 -2.4979,-0.94972 c -1.3739,-0.52234 -6.833,-1.39922 -12.1315,-1.94861 l -9.63353,-0.9989 -7.77112,-2.09683 -7.77112,-2.09682 -4.10106,-2.7543 -4.10106,-2.7543 -3.68542,-4.67188 c -2.02698,-2.56954 -5.98668,-6.56574 -8.79933,-8.88045 -2.8126503,-2.31471 -6.53036,-5.99711 -8.26157,-8.18311 L 0,410.55092 0.65265,407.07197 c 0.35896,-1.91342 1.52056,-5.18017 2.58133,-7.25946 l 1.92868,-3.78051 2.24945,-0.56458 2.2494497,-0.56457 3.8719403,1.61779 3.87194,1.6178 -0.73209,-1.81922 c -0.40265,-1.00057 -0.96156,-3.42895 -1.24204,-5.3964 l -0.50996,-3.57718 2.08059,-4.0783 2.08059,-4.07829 2.66276,-2.09452 2.66276,-2.09453 3.45314,0 3.45314,0 7.69827,-3.38473 7.69827,-3.38473 5.46373,-1.08261 c 3.00505,-0.59544 9.96376,-1.55683 15.46376,-2.13643 l 10,-1.05381 7.5,-3.54792 7.5,-3.54791 5,-3.70047 c 2.75,-2.03526 6.8253,-4.87785 9.0562,-6.31687 2.2309,-1.43902 6.5059,-4.86966 9.5,-7.62365 l 5.4438,-5.00726 -0.2057,-13.15111 -0.2057,-13.15112 3.877,-3.87696 3.8769,-3.87695 5.8968,-8.82874 c 3.2432,-4.8558 8.3164,-13.10373 11.2738,-18.32873 2.9573,-5.225 8.1794,-14.05137 11.6047,-19.61416 3.4252,-5.56278 8.5124,-14.66711 11.3049,-20.23183 l 5.0773,-10.11767 -0.026,-1.76817 -0.026,-1.76817 -10.0384,-12.5 c -5.5211,-6.875 -10.8573,-14.075 -11.8581,-16 -1.0009,-1.925 -2.7717,-6.9037 -3.9351,-11.06379 -1.1635,-4.16008 -2.1154,-8.52102 -2.1154,-9.69098 l 0,-2.1272 0.9097,-0.56226 0.9098,-0.56226 1.4868,0.57053 1.4868,0.57053 3.0618,5.7447 3.0619,5.7447 4.1499,4.71446 4.1498,4.71447 4.6417,3.08259 c 2.553,1.69543 6.0773,4.71048 7.8319,6.70012 l 3.1901,3.61754 0.6834,-0.68345 0.6835,-0.68344 -0.6182,-1.29313 c -0.34,-0.71122 -2.1817,-3.45969 -4.0928,-6.10771 l -3.4746,-4.81458 -1.4651,-5.18542 c -0.8058,-2.85198 -2.2678,-8.08707 -3.249,-11.63353 l -1.784,-6.44812 -0.032,-5.57788 -0.032,-5.57788 1.9018,-4.224 1.9019,-4.22401 1.6931,0 1.6932,0 1.759,1.9437 1.759,1.94369 0.8672,7.30631 c 0.4769,4.01846 1.5132,9.37613 2.3028,11.90593 l 1.4358,4.59962 6.9678,11.40038 6.9677,11.40037 2.1628,1.1109 c 1.1896,0.611 3.2693,2.15041 4.6217,3.42092 l 2.4589,2.31001 2.2536,-1.13235 c 1.2395,-0.6228 8.5537,-3.17268 16.2537,-5.66641 l 14,-4.53406 5,-2.93239 c 2.75,-1.61282 9.7015,-6.83899 15.4478,-11.61372 l 10.4478,-8.68131 4.2441,-6.6408 c 2.3344,-3.65243 6.1426,-9.71355 8.4628,-13.46914 l 4.2185,-6.82835 3.33,-11.17165 c 1.8316,-6.14441 3.3343,-12.1257 3.3395,-13.29177 l 0.01,-2.12011 -6.4121,-9.59056 -6.4122,-9.590553 -3.2346,-8.289325 -3.2346,-8.28933 -0.4807,-7.73247 -0.4807,-7.732471 1.6647,-0.638812 1.6647,-0.638811 2.0721,1.871281 2.0721,1.871283 3.001,6 c 1.6506,3.3 5.4317,9.63909 8.4026,14.08687 2.9708,4.447775 6.5215,9.138975 7.8902,10.424875 l 2.4887,2.338 -2.4154,-5.92487 c -1.328,-3.25869 -4.1165,-9.974875 -6.1961,-14.924875 l -3.7813,-9 -0.399,-7.000002 -0.3991,-7 0.891,-3.431981 0.8911,-3.43198 1.1454,-0.381799 1.1454,-0.381799 1.6506,3.191963 c 0.9078,1.75558 2.3304,5.496781 3.1613,8.31378 l 1.5108,5.121816 6.3542,12.519702 6.3543,12.519705 3.6022,4.20839 3.6022,4.20839 6.43,1.98603 c 3.5365,1.092313 8.5841,2.271773 11.2168,2.621013 l 4.7868,0.63499 6.0154,-2.44429 6.0155,-2.444293 4.9586,-3.47602 4.9586,-3.47602 1.1982,-2.45691 c 0.659,-1.351295 2.1202,-6.719255 3.247,-11.928795 l 2.0488,-9.47189 5.0702,-9.857519 5.0702,-9.857518 0.5275,-6.642482 0.5275,-6.642483 -2.4902,-8 c -1.3697,-4.4 -2.7732,-9.246734 -3.119,-10.770519 l -0.6286,-2.77052 1.0594,-1.97948 L 377.21006,9 l 1.9288,0 1.9288,0 2.536,3.732135 c 1.3949,2.052673 2.5361,4.320895 2.5361,5.040492 0,0.719597 0.8842,2.527636 1.9648,4.017866 l 1.9649,2.709507 1.0107,4.5 c 0.5559,2.475 1.014,6.75 1.018,9.5 l 0.01,5 -1.9654,7.5 -1.9657,7.5 -0.017,5.25 -0.017,5.250002 0.8957,0 c 0.4927,0 2.2319,-2.1375 3.8649,-4.750002 1.633,-2.6125 4.9187,-8.35 7.3015,-12.75 2.3828,-4.4 6.7465,-11.711832 9.6971,-16.248515 2.9507,-4.536684 6.6763,-11.140802 8.2791,-14.675819 l 2.9143,-6.427303 0.6628,-4.324181 c 0.3645,-2.3783 1.2867,-5.561682 2.0493,-7.074182 l 1.3866,-2.75 1.3194,0 1.3193,0 1.8333,2.02574 1.8332,2.02574 -0.1827,6.634136 -0.1828,6.634136 -1.0351,3.844001 c -0.5693,2.114201 -2.5698,7.429683 -4.4456,11.812184 -1.8758,4.382501 -5.2705,11.018256 -7.5438,14.746123 l -4.1333,6.77794 0.4737,6 0.4738,6.000002 1.4635,4.16537 1.4635,4.16537 4.5344,6.83463 4.5344,6.834625 8.7274,9.5 c 4.8001,5.225003 10.5347,11.923623 12.7436,14.885833 2.2089,2.9622 7.2194,8.76574 11.1344,12.89675 3.9149,4.13101 12.2384,12.05739 18.4965,17.61418 6.2582,5.55678 13.6832,11.8613 16.5,14.01003 2.8169,2.14874 8.4268,6.60275 12.4665,9.89781 l 7.345,5.99101 7.0086,2.85219 7.0087,2.8522 2.446,0 2.4461,0 3.2003,1.62059 c 1.7602,0.89132 3.9879,2.31107 4.9504,3.15499 l 1.75,1.5344 0,3.88485 0,3.88485 -1.9638,3.84935 -1.9638,3.84934 5.2965,5.00918 5.2964,5.00918 5.3491,2.71059 c 2.942,1.49082 9.4298,4.30718 14.4173,6.25857 l 9.0683,3.54797 6.5,0.0626 6.5,0.0626 3.9679,-1.36896 3.9679,-1.36895 5.2089,-4.92638 5.2089,-4.92638 4.7321,-1.42415 c 2.6027,-0.78337 5.9555,-1.42424 7.4508,-1.42424 l 2.7186,0 1.1397,1.37325 1.1397,1.37325 -0.564,1.46959 -0.5639,1.46959 -4.9135,2.22061 -4.9134,2.22061 -3.0399,4.13355 c -1.6719,2.27346 -3.0398,4.55767 -3.0398,5.07604 l 0,0.94248 11.25,-0.54848 11.25,-0.54848 10.5,-3.08481 10.5,-3.0848 2.75,-0.006 2.75,-0.006 0,1.97695 0,1.97694 -2.25,1.40245 c -1.2375,0.77134 -4.275,2.09966 -6.75,2.95182 -2.475,0.85216 -9.675,3.11209 -16,5.02207 -6.325,1.90998 -14.3946,4.28813 -17.9324,5.28478 l -6.4324,1.81208 -3.707,3.53646 -3.707,3.53645 -1.105,4 -1.1051,4 -0.01,4.79966 -0.01,4.79966 1.5013,2.90319 1.5013,2.9032 4.2487,2.94041 c 2.3368,1.61723 5.9972,4.67595 8.1343,6.79715 l 3.8856,3.85673 1.8475,4.106 1.8475,4.106 0.6169,8.894 c 0.3393,4.8917 1.0365,10.57122 1.5493,12.62116 l 0.9324,3.72716 6.576,8.61835 c 3.6168,4.7401 8.8386,12.28788 11.6041,16.77284 2.7655,4.48497 7.036,10.90909 9.49,14.27583 l 4.4619,6.12133 11.6516,3.09614 c 6.4084,1.70288 14.9962,4.01078 19.084,5.12867 4.0878,1.11788 8.6143,2.03252 10.0589,2.03252 l 2.6265,0 1.9411,-1.4682 c 1.0676,-0.8075 2.7286,-1.4825 3.6911,-1.5 l 1.7509,-0.0322 0,3.05103 0,3.05102 -3.25,1.33239 -3.25,1.33239 -8.75,1.21987 -8.75,1.21988 0,0.69631 c 0,0.38298 2.1375,3.3346 4.75,6.55917 2.6125,3.22457 5.9367,6.73973 7.3872,7.81147 l 2.6373,1.94862 6.6485,-0.0997 6.6484,-0.0997 0.5413,1.41053 0.5413,1.41053 -1.0424,1.94779 -1.0425,1.94779 -3.4961,1.65904 -3.4962,1.65904 -2.7884,-0.66903 c -1.5336,-0.36797 -4.1384,-1.3499 -5.7884,-2.18208 -1.65,-0.83218 -5.025,-3.21911 -7.5,-5.30428 l -4.5,-3.79122 -6.8227,-3.55539 -6.8227,-3.55538 -2.8898,0 -2.8899,0 -5.2792,4.30348 -5.2792,4.30348 -0.653,3.94652 -0.6529,3.94652 1.4457,8.34888 1.4457,8.34889 2.085,5.57242 2.0849,5.57243 4.614,4.21211 c 2.5377,2.31666 6.3709,5.76543 8.5181,7.66393 l 3.9041,3.45182 0.4739,5.71414 0.4738,5.71414 -2.3779,2.54563 c -1.3079,1.4001 -3.5029,3.11774 -4.8779,3.81698 -1.375,0.69923 -4.1423,1.56838 -6.1495,1.93144 l -3.6496,0.66011 -1.2569,1.5145 c -0.6913,0.83298 -2.3513,3.85857 -3.689,6.72354 l -2.432,5.20904 -1.4421,6.5 -1.4422,6.5 -0.5719,15 -0.5719,15 3.7546,7 c 2.065,3.85 4.8294,8.41628 6.1429,10.14729 1.3136,1.73101 2.7862,4.53488 3.2726,6.23081 l 0.8844,3.08352 -0.9495,3.43855 -0.9494,3.43855 -4.5679,5.08064 -4.568,5.08064 -5.7523,0 -5.7523,0 -1.4793,1.75 c -0.8136,0.9625 -2.969,5.35 -4.7897,9.75 -1.8208,4.4 -4.6061,10.8765 -6.1897,14.39222 l -2.8793,6.39221 -1.1009,6.66571 -1.1008,6.66571 3.728,7.11644 3.7279,7.11643 -0.3806,7.5382 -0.3807,7.53819 -3.4825,3.63122 -3.4824,3.63121 -6.3164,-0.62842 -6.3165,-0.62843 -2.6835,2.937 c -1.476,1.61534 -5.5988,7.78886 -9.1619,13.71893 l -6.4782,10.78194 0.097,3.68857 0.097,3.68857 2.6002,5.67964 c 1.4302,3.12379 3.5143,6.8417 4.6315,8.262 l 2.0313,2.58238 0,2.90498 0,2.90498 -1.9561,3.83437 -1.9562,3.83437 -3.2776,2.75796 -3.2776,2.75795 -10.0163,-0.63983 -10.0162,-0.63983 -6.0697,2.87996 -6.0698,2.87996 -3.6518,3.20638 -3.6519,3.20639 -3.1247,5.46137 -3.1247,5.46136 -2.5334,1.65996 -2.5334,1.65996 -4.1072,0.55 -4.1071,0.54999 -0.3457,1.79804 -0.3457,1.79804 1.1503,1.38606 1.1504,1.38607 4.6822,-2.74812 c 2.5752,-1.51147 8.5072,-4.35849 13.1822,-6.32671 4.675,-1.96822 11.425,-4.49104 15,-5.60626 3.575,-1.11522 11,-3.2115 16.5,-4.65842 5.5,-1.44691 13.825,-3.73847 18.5,-5.09237 l 8.5,-2.46163 3.2748,0.0127 3.2747,0.0127 0.875,2.3012 c 0.4812,1.26566 2.3416,4.47443 4.1342,7.1306 l 3.2593,4.8294 -1.1816,1.89209 -1.1816,1.8921 1.5726,0.60347 1.5726,0.60348 3.45,5.39325 3.45,5.39324 0,2.01281 0,2.01281 -2.1481,0.79465 -2.1482,0.79465 3.5345,2.18443 3.5345,2.18443 0.6,2.23869 c 0.33,1.23129 0.6062,3.49916 0.6137,5.03973 l 0.014,2.80102 -3.5,1.4624 -3.5,1.46239 0,1.44804 0,1.44803 3.8835,1.04572 3.8835,1.04572 0.983,1.24283 0.983,1.24282 0.052,5 0.052,5 -1.4269,1.58769 -1.427,1.58768 2.0081,1.8173 2.0081,1.81731 0,1.32596 0,1.32596 -2.5,0.62746 -2.5,0.62746 0,0.87254 0,0.87254 2.75,0.65694 c 1.5125,0.36131 3.3125,1.09999 4,1.64149 l 1.25,0.98456 0,3.65531 0,3.65532 2.1815,1.8678 2.1814,1.8678 -2.6088,2.24397 -2.6088,2.24397 2.9268,0.58536 2.9268,0.58535 1.9968,3.27512 1.9968,3.27511 0,2.13337 0,2.13337 -2.25,0.60297 c -1.2375,0.33164 -3.3,0.60913 -4.5833,0.61664 l -2.3333,0.0136 0.3921,1.17624 0.392,1.17623 3.8334,1.07554 3.8334,1.07554 1.1079,1.77669 1.1078,1.77669 -1.5,0.95622 c -0.825,0.52593 -2.7375,0.96312 -4.25,0.97154 l -2.7503,0.0152 0,1 0,1 2.75,0.0153 c 1.5125,0.008 3.263,0.34592 3.89,0.75 l 1.14,0.73469 0.36,5.45726 0.36,5.45726 -2.5,1.25959 -2.5,1.25959 0.1,1.03315 c 0.055,0.56823 0.1675,1.43437 0.25,1.92474 l 0.15,0.89159 2.4333,0.61074 2.4334,0.61073 0.492,1.74767 c 0.2706,0.96123 0.785,3.20414 1.1431,4.98426 l 0.6512,3.23658 -2.5765,1.17393 c -1.4171,0.64568 -2.5765,1.47949 -2.5765,1.85292 0,0.37343 1.125,1.19155 2.5,1.81805 l 2.5,1.13907 0,2.04644 0,2.04644 -2.9262,0.58524 -2.9263,0.58525 4.0665,3.86832 4.0664,3.86832 -1.2626,1.52144 -1.2627,1.52143 -2.5,0 -2.5,0 1.1556,1.39241 c 0.6356,0.76583 2.4583,1.93203 4.0506,2.59156 l 2.895,1.19914 0.5891,1.5352 0.5891,1.53519 -1.1397,1.37325 -1.1397,1.37325 -3.6276,0.0588 -3.6275,0.0588 1.8939,1.1912 c 1.0417,0.65515 3.0521,2.15215 4.4675,3.32665 l 2.5736,2.13547 -1.34,1.61453 -1.3399,1.61454 -3.3776,0 -3.3775,0 0,1 0,1 2.345,0 2.345,0 1.655,1.82874 1.655,1.82874 0,1.56427 0,1.56427 -1.6343,0.62712 -1.6342,0.62712 -3.3658,-0.63142 -3.3657,-0.63142 0,1.51251 0,1.51252 3.5,2.06505 3.5,2.06505 0,1.51467 0,1.51468 -2.5,0.62746 c -1.375,0.3451 -2.4931,0.91617 -2.4847,1.26905 0.01,0.35287 0.427,1.29234 0.9302,2.08771 l 0.9149,1.44612 -0.9654,1.80388 -0.9654,1.80388 -1.4058,0 c -0.7732,0 -1.7045,0.48331 -2.0696,1.07403 l -0.6638,1.07403 2.2516,2.39665 2.2515,2.39666 -1.2692,1.52931 -1.2692,1.52934 -1.8776,0 -1.8775,0 0,1.3651 c 0,0.7508 0.9436,2.5647 2.0968,4.0309 l 2.0969,2.6657 -1.2193,1.4691 -1.2193,1.4692 -1.8776,0 -1.8775,0 0,1.6056 0,1.6057 2.5515,3.0322 2.5514,3.0323 -0.3014,1.9884 -0.3015,1.9885 -4.167,1.6236 c -2.2919,0.893 -4.5016,1.9584 -4.9106,2.3675 l -0.7435,0.7439 1.7482,1.9317 1.7482,1.9318 -0.3674,1.82436 -0.3673,1.8244 -3.0915,-0.2967 -3.0914,-0.2967 -0.5438,2.0794 -0.5438,2.0794 2.4149,1.5823 2.415,1.5823 0,1.778 0,1.778 -1.4225,0.5459 -1.4224,0.5458 -0.3276,2.2271 -0.3275,2.227 -3.2627,1.0934 -3.2628,1.0935 1.6019,2.287 1.602,2.2871 -0.6046,1.5755 -0.6046,1.5755 -2.7346,-0.5518 c -1.5041,-0.3036 -3.5517,-0.8679 -4.5503,-1.2542 l -1.8157,-0.7022 2.0619,3.3822 2.062,3.3822 0,2.25 0,2.25 -1.6856,0 -1.6855,0 -2.3217,-2.1812 -2.3218,-2.1811 -1.4609,1.9311 c -0.8035,1.0622 -1.4752,2.2687 -1.4927,2.6812 l -0.032,0.75 2.5,0 2.5,0 0,4.3089 0,4.3088 -1.4079,1.9254 -1.4078,1.9253 -3.667,-1.326 c -2.0169,-0.7293 -3.8566,-1.1365 -4.0882,-0.9048 -0.2317,0.2316 0.702,1.4764 2.0748,2.7661 l 2.4961,2.3449 0,1.9616 0,1.9616 -4.5,-0.6167 -4.5,-0.6168 0,1.0213 c 0,0.5618 0.9707,2.3343 2.1571,3.9391 l 2.1572,2.9177 -1.2796,1.5418 -1.2796,1.5418 -3.4926,0 -3.4925,0 1.615,2.4648 1.615,2.4648 0,2.0352 0,2.0352 -1.6713,0 -1.6712,0 -1.8898,-1.7102 -1.8898,-1.7103 -0.9237,1.4603 c -0.508,0.8031 -0.9305,2.4727 -0.9389,3.7102 l -0.015,2.25 -2.441,0 -2.441,0 -0.6048,0.9786 -0.6048,0.9786 2.1105,2.8546 2.1105,2.8546 -2.3147,3.6245 -2.3147,3.6244 -2.191,0.042 -2.191,0.042 -0.618,-1 -0.6181,-1 -1.8819,0 -1.882,0 -0.5917,0.9574 -0.5917,0.9574 3.0327,1.5683 3.0327,1.5683 0,1.9743 0,1.9743 -1.8652,0 -1.8651,0 -2.5426,-2 c -1.3984,-1.1 -2.7939,-2 -3.1011,-2 -0.3072,0 0.3751,1.5825 1.5163,3.5167 l 2.0749,3.5166 -1.2311,1.4834 -1.231,1.4833 -2.3305,0 c -1.2818,0 -3.4786,-0.5231 -4.8818,-1.1624 l -2.5513,-1.1625 -0.7458,0.7521 -0.7457,0.7521 2.75,2.1979 2.75,2.1979 0,2.2125 0,2.2124 -2.3057,0 -2.3058,0 -3.3885,-2.4993 c -1.8637,-1.375 -3.767,-2.5 -4.2295,-2.5 -0.4625,0 -1.9536,0.7291 -3.3135,1.6201 l -2.4727,1.6202 3.5418,3.9203 3.5418,3.9204 -0.593,0.9595 -0.593,0.9595 -3.3575,0 -3.3576,0 -1.9131,-2.6263 -1.9132,-2.6263 -2.1386,1.1445 -2.1386,1.1446 0.8248,2.2317 0.8247,2.2318 -0.4397,1.25 -0.4398,1.25 -1.8493,0 -1.8492,0 -0.6348,2 -0.6348,2 -1.9823,0 c -1.0902,0 -3.3723,-0.7188 -5.0712,-1.5974 l -3.0889,-1.5973 -2.4849,1.1322 -2.4849,1.1321 1.7999,1.9888 1.7998,1.9889 -1.1006,1.1006 -1.1006,1.1006 -3.225,-1.1243 c -1.7737,-0.6183 -3.8366,-1.1242 -4.5842,-1.1242 l -1.3593,0 1.1983,1.9188 1.1983,1.9188 -1.3122,1.5812 -1.3123,1.5812 -2.5173,0 -2.5173,0 -1.1894,1.6266 -1.1895,1.6266 -2.1708,-1.1618 -2.1708,-1.1618 0,-1.4648 0,-1.4648 -1.5215,0 -1.5214,0 -1.1391,2.5 -1.1391,2.5 -2.217,0 -2.217,0 -1.2449,1.5 c -0.6847,0.825 -1.7765,1.5 -2.4263,1.5 l -1.1814,0 -3.3923,-3.5 -3.3924,-3.5 -1.4108,0 -1.4108,0 0.7484,1.75 c 0.4116,0.9625 0.9609,2.9875 1.2205,4.5 l 0.4721,2.75 -1.9392,0 -1.9392,0 -2.3486,-2.5 c -1.2918,-1.375 -2.7202,-2.5 -3.1743,-2.5 l -0.8257,0 0,1.3776 0,1.3775 -1.5,1.2449 -1.5,1.2449 -1.3795,-1.1449 -1.3795,-1.1449 -0.5955,-2.9775 -0.5955,-2.9776 -1.025,0 -1.025,0 0,2.8 0,2.8 -1.2,1.2 c -0.66,0.66 -1.7572,1.2 -2.4382,1.2 -0.681,0 -3.2768,-1.2375 -5.7684,-2.75 l -4.5302,-2.75 -0.032,-1.1276 c -0.017,-0.6201 -0.7257,-1.7035 -1.574,-2.4076 l -1.5424,-1.28 -1.1576,1.1576 c -0.6367,0.6367 -1.7077,1.1576 -2.3801,1.1576 l -1.2224,0 -1.0688,-3.25 -1.0688,-3.25 -1.4971,-14.9287 -1.4971,-14.9287 -3.6429,-12.5713 c -2.0036,-6.9142 -4.8871,-15.343 -6.4078,-18.7305 l -2.7649,-6.1592 -2.0381,-1.0908 c -1.121,-0.6 -2.9504,-1.0908 -4.0653,-1.0908 l -2.0272,0 -0.9732,3.75 c -0.5353,2.0625 -1.0559,4.425 -1.1571,5.25 -0.1011,0.825 -0.1305,1.9942 -0.065,2.5981 l 0.1185,1.0982 4.25,1.7715 c 2.3375,0.9744 5.2205,2.2213 6.4066,2.7709 l 2.1567,0.9993 1.7402,3.2315 1.7403,3.2315 -0.5373,4.7672 -0.5373,4.7672 -2.5799,2.5799 -2.5799,2.5798 -4.2797,1.5794 -4.2797,1.5794 -1.2992,3.9521 -1.2992,3.952 0.671,3.9714 0.6709,3.9714 7.8783,8.2263 7.8782,8.2264 0,1.1721 c 0,0.6447 -0.6898,2.6258 -1.5328,4.4024 l -1.5329,3.2303 -3.9671,3.8738 -3.9672,3.8738 0,1.8467 c 0,1.0157 0.7325,3.2631 1.6277,4.9943 0.8952,1.7311 3.8216,5.7838 6.5031,9.0059 2.6814,3.2222 5.6082,7.2959 6.5039,9.0528 0.8957,1.7569 3.5332,5.2473 5.8611,7.7564 2.3279,2.509 4.7223,5.477 5.3208,6.5953 l 1.0883,2.0335 -1.5709,2.2428 -1.571,2.2428 -5.4296,3.4733 -5.4297,3.4734 -1.0469,2.6884 -1.0469,2.6885 0.4722,6 0.4721,6 3.1878,8.2298 3.1878,8.2298 8.6851,7.3216 8.6851,7.3217 3.3983,6.6478 3.3982,6.6479 -1.6759,2.5578 -1.676,2.5578 -5.4891,3.0978 -5.4891,3.0979 -1.4832,2.1175 -1.4832,2.1176 0,4.8832 0,4.8831 1.5842,6.1444 1.5842,6.1443 2.9687,5.5879 2.9688,5.5879 8.5929,9.4121 8.5929,9.4121 2.9025,6.451 2.9026,6.4511 -0.2984,3.5489 -0.2984,3.549 -4,0.2665 c -2.2,0.1466 -4.9353,0.4734 -6.0785,0.7261 l -2.0786,0.4594 -1.1714,2.5711 -1.1715,2.571 0,8.2566 0,8.2566 2.4702,4.9464 2.4701,4.9463 5.9769,7.3246 5.9769,7.3245 1.1317,3.4289 1.1316,3.4289 -0.6555,2.9844 -0.6554,2.9843 -2.5581,2.0122 -2.5581,2.0122 -3.3965,0 -3.3965,0 -0.6423,1.6736 -0.6422,1.6737 1.0094,8.1474 1.0094,8.1474 4.9142,7.3422 c 2.7028,4.0382 6.5226,9.8562 8.4884,12.9289 1.9657,3.0728 4.1032,7.1165 4.75,8.986 0.6467,1.8696 1.1689,4.3446 1.1605,5.5 -0.01,1.1555 -0.3998,2.7076 -0.8698,3.4492 l -0.8545,1.3483 -5.3802,1.7742 -5.3802,1.7741 0.115,3.6373 0.1149,3.6373 3.4747,5.2402 c 1.9111,2.8821 5.1046,8.6785 7.0967,12.8808 l 3.6219,7.6406 -0.9313,3.2472 c -0.5122,1.7859 -1.6897,4.0852 -2.6166,5.1094 l -1.6853,1.8622 -1.6971,0 -1.6971,0 -3.3889,2.2838 -3.3889,2.2837 0.3277,14.9663 0.3277,14.9662 2.9133,6.9811 2.9133,6.981 0,3.1832 0,3.1832 -5.0277,3.0935 -5.0277,3.0936 -1.0088,2.6533 -1.0088,2.6534 1.0186,15.3032 1.0187,15.3033 -0.5909,2.9542 -0.5908,2.9542 -5.886,3.1372 -5.8859,3.1372 -1.0054,1.8785 -1.0053,1.8784 0,3.6481 0,3.6482 3.127,7.1244 3.1269,7.1245 0.1231,5.209 0.123,5.2089 -2.4006,2.559 -2.4007,2.5591 -4.1577,1.5878 -4.1577,1.5878 -1.074,14.2833 -1.074,14.2833 -1.1465,2.1423 -1.1465,2.1422 -2.7211,0.562 c -1.4967,0.3091 -4.0712,0.8977 -5.7212,1.308 l -3,0.746 -0.015,7.9538 -0.015,7.9538 -2.7694,5.2842 c -1.5231,2.9062 -3.678,6.1927 -4.7885,7.3032 l -2.0191,2.0192 -4.358,-0.6536 -4.358,-0.6535 -1.4683,2.3503 -1.4682,2.3502 -2.2657,9.5 -2.2656,9.5 -1.9983,4.321 -1.9983,4.3209 -2.3891,1.5654 -2.3892,1.5654 -4.2174,-0.071 -4.2174,-0.071 -2.678,1.0261 -2.678,1.0261 -1.572,3.9287 c -0.8646,2.1608 -1.572,4.9662 -1.572,6.2342 l 0,2.3055 -2.3813,2.2371 -2.3813,2.2371 -3.3687,0.1661 c -1.8528,0.091 -4.9862,-0.1692 -6.9633,-0.579 l -3.5946,-0.745 -2.6888,2.115 -2.6888,2.115 -3.5168,7.411 -3.5168,7.411 -2.4426,1.6004 -2.4425,1.6004 -3.2572,-0.5258 c -1.7915,-0.2891 -5.0788,-0.8358 -7.3052,-1.2148 l -4.0479,-0.689 -2.5656,3.8769 c -1.4111,2.1323 -3.5454,5.7974 -4.7428,8.1446 l -2.1772,4.2676 -2.5531,1.1633 -2.5532,1.1632 -6.21,-3.3513 -6.2101,-3.3514 -3.686,0.6915 -3.686,0.6915 -5.954,5.5124 -5.9541,5.5125 -3.7079,-0.6956 -3.7078,-0.6957 -3.7194,-3.3602 c -2.0458,-1.848 -4.1947,-3.3601 -4.7755,-3.3601 -0.5808,0 -2.4001,1.6307 -4.043,3.6237 -1.6428,1.993 -4.2631,4.4651 -5.8228,5.4934 -1.5597,1.0284 -3.2858,1.8699 -3.8358,1.8702 z"
     id="path2989"
     inkscape:connector-curvature="0" />
</svg>
