<?xml version="1.0" encoding="UTF-8" standalone="no"?>
<!-- Created with Inkscape (http://www.inkscape.org/) -->

<svg
   xmlns:dc="http://purl.org/dc/elements/1.1/"
   xmlns:cc="http://creativecommons.org/ns#"
   xmlns:rdf="http://www.w3.org/1999/02/22-rdf-syntax-ns#"
   xmlns:svg="http://www.w3.org/2000/svg"
   xmlns="http://www.w3.org/2000/svg"
   xmlns:sodipodi="http://sodipodi.sourceforge.net/DTD/sodipodi-0.dtd"
   xmlns:inkscape="http://www.inkscape.org/namespaces/inkscape"
   id="svg2"
   version="1.1"
   inkscape:version="0.48.2 r9819"
   width="1988.0195"
   height="1529.5941"
   sodipodi:docname="Mountain_Goat_(PSF)c.png">
  <metadata
     id="metadata8">
    <rdf:RDF>
      <cc:Work
         rdf:about="">
        <dc:format>image/svg+xml</dc:format>
        <dc:type
           rdf:resource="http://purl.org/dc/dcmitype/StillImage" />
        <dc:title></dc:title>
      </cc:Work>
    </rdf:RDF>
  </metadata>
  <defs
     id="defs6" />
  <sodipodi:namedview
     pagecolor="#ffffff"
     bordercolor="#666666"
     borderopacity="1"
     objecttolerance="10"
     gridtolerance="10"
     guidetolerance="10"
     inkscape:pageopacity="0"
     inkscape:pageshadow="2"
     inkscape:window-width="1600"
     inkscape:window-height="876"
     id="namedview4"
     showgrid="false"
     fit-margin-top="0"
     fit-margin-left="0"
     fit-margin-right="0"
     fit-margin-bottom="0"
     inkscape:zoom="0.28263473"
     inkscape:cx="984.85535"
     inkscape:cy="757.05578"
     inkscape:window-x="0"
     inkscape:window-y="24"
     inkscape:window-maximized="1"
     inkscape:current-layer="svg2" />
  <path
     style="fill:#000000"
     d="m 98.238084,1529.0224 c -4.7396,-0.325 -5.8709,-0.8312 -8.5254,-3.815 -2.138,-2.4032 -3.9218,-3.4403 -5.9172,-3.4403 -5.1012,0 -17.147,-9.392 -15.9722,-12.4534 0.2588,-0.6744 -0.2249,-1.8034 -1.075,-2.5088 -0.85,-0.7055 -1.5455,-2.551 -1.5455,-4.1012 0,-1.5502 -0.45,-3.0967 -1,-3.4366 -0.55,-0.3399 -1,-2.247 -1,-4.238 0,-5.9901 -4.4678,-18.0056 -6.9392,-18.6617 -0.8584,-0.2279 -2.8598,-0.7052 -4.4474,-1.0607 -3.604804,-0.8071 -8.846204,-4.7376 -10.541304,-7.9049 -1.2338,-2.3054 -3.452,-3.055 -12.0721,-4.0796 -1.375,-0.1635 -2.8283,-0.3552 -3.2296,-0.4262 -0.4014,-0.071 -1.6994,-2.0414 -2.8846,-4.3789 -1.1852,-2.3375 -3.4222,-5.7029 -4.971,-7.4786 -1.5489,-1.7758 -3.0815,-4.9258 -3.4059,-7 -0.8576,-5.483 -2.5778,-11.6023 -3.6228,-12.8866 -0.5623,-0.6913 -0.3353,-2.212 0.5972,-4 1.9114,-3.6652 1.9433,-9.4319 0.066,-11.9437 -2.4183003,-3.2356 0.5299,-17.3314 5.004,-23.9243 2.7721,-4.0849 3.6488,-12.7592 1.0736,-10.622 -2.5384,2.1067 -6.6268,-1.1898 -6.6268,-5.3432 0,-0.8689 2.025,-4.066 4.5,-7.1046 4.7181,-5.7925 5.2581,-7.2889 3.3272,-9.2199 -0.8972,-0.8971 -0.8972,-1.778 0,-3.747 0.645,-1.4158 1.1728,-3.3842 1.1728,-4.3741 0,-0.99 0.9123,-2.8518 2.0273,-4.1374 2.1952,-2.5312 2.6657,-4.0842 3.3227,-10.9686 0.2363,-2.475 0.8941,-6.2421 1.4618,-8.3713 1.2147,-4.5551 0.7571,-6.2467 -1.8759,-6.9352 -3.0645,-0.8014 -3.3336,-3.306 -1.1819,-11.0003 1.1064,-3.9563 2.0415,-8.2732 2.078,-9.5931 0.036,-1.32 1.4392,-3.8164 3.1172,-5.5476 2.9562,-3.0501 3.7865,-5.4835 2.3584,-6.9116 -1.4187,-1.4187 -1.2963,-5.1035 0.3092,-9.3074 0.9102,-2.3834 1.9891,-4.3335 2.3975,-4.3335 0.4083,0 1.1993,-1.8 1.7578,-4 0.5584,-2.2 0.672,-4 0.2524,-4 -1.3893,0 -1.9409,-7.0849 -0.9632,-12.3735 1.2597,-6.8145 2.0362,-14.2767 2.5106,-24.1265 0.6064,-12.5924 1.1705,-20.5528 1.878,-26.5 0.3598,-3.025 0.7951,-8.875 0.9672,-13 1.2418,-29.7595 1.7863,-36.4447 3.6653,-45 1.1476,-5.225 2.919,-11.525 3.9364,-14 1.0175,-2.475 2.6411,-6.4125 3.608104,-8.75 0.9669,-2.3375 2.1203,-4.25 2.5631,-4.25 1.1128,0 13.81,-12.8545 13.81,-13.9811 0,-0.5016 2.4297,-2.5247 5.3992,-4.4958 3.1821,-2.1121 5.6448,-4.5621 5.9972,-5.9662 0.3289,-1.3103 2.8492,-4.035 5.6008,-6.0548 2.7516,-2.0198 5.0028,-4.007 5.0028,-4.4158 0,-1.2761 6.1891,-10.4253 9.4189,-13.9238 1.694596,-1.8357 5.887596,-5.5821 9.317696,-8.3254 4.0471,-3.2368 6.8864,-6.4535 8.0875,-9.1625 1.018,-2.296 2.599,-4.7922 3.5134,-5.547 0.9144,-0.7549 1.6625,-2.112 1.6625,-3.0159 0,-0.9039 1.6996,-4.5613 3.7768,-8.1276 2.0773,-3.5662 4.3453,-8.3966 5.0402,-10.7341 0.6948,-2.3375 1.6064,-4.25 2.0256,-4.25 0.4193,0 1.5624,-2.2249 2.5403,-4.9443 0.9778,-2.7193 2.3914,-5.4534 3.1412,-6.0757 1.7707,-1.4695 5.7703,-13.47318 5.9909,-17.97998 0.094,-1.925 -0.5138,-4.71 -1.3513,-6.1888 -1.3724,-2.4235 -1.3608,-3.0649 0.117,-6.5 2.2928,-5.3299 3.1247,-15.8475 1.6854,-21.3112 -1.8839,-7.1519 -2.2255,-12.401 -1.0774,-16.5587 1.2886,-4.66723 -0.1285,-10.54653 -3.552,-14.73673 -1.2563,-1.5375 -2.7669,-4.6875 -3.3571,-7 -0.5902,-2.3125 -1.5331,-5.3852 -2.0953,-6.8283 -0.5623,-1.443 -0.7114,-4.2807 -0.3315,-6.3059 0.5605,-2.9874 0.2861,-4.113 -1.4542,-5.9655 -1.7679,-1.8818 -2.216,-3.8083 -2.5486,-10.9558 -0.222,-4.7699 -0.014,-10.0293 0.461,-11.6875 0.8631,-3.0094 -1.0877,-9.9616 -2.7953,-9.9616 -1.3929,0 -5.5387,-8.7158 -4.9167,-10.3366 0.3375,-0.8796 0.141,-1.8915 -0.4368,-2.2485 -0.5778,-0.3571 -0.8574,-1.6597 -0.6213,-2.8945 0.2747,-1.4368 -0.2316,-2.658 -1.4058,-3.3913 -1.1517,-0.7192 -1.8351,-2.3238 -1.8351,-4.3088 0,-1.7395 -0.7631,-4.006 -1.6958,-5.0366 -0.9327,-1.0306 -1.7909,-3.248 -1.9072,-4.9274 -0.4452,-6.4301 -1.6425,-10.3399 -3.5825,-11.6988 -1.5352,-1.0753 -1.8743,-2.1082 -1.4267,-4.3462 0.34,-1.7001 -0.063,-4.4878 -0.9581,-6.6234 -0.8499,-2.0283 -1.4336,-5.2629 -1.297,-7.1879 0.2231,-3.1471 -0.082,-6.1204 -1.7215,-16.7475 -0.3559,-2.3075 -1.352,-3.6876 -3.4415,-4.7682 -3.529196,-1.8249 -4.395296,-4.6346 -3.1447,-10.2006 1.0051,-4.4736 0.046,-10.4989 -2.536696,-15.9353 -1.012,-2.1302 -1.2798,-4.4388 -0.8263,-7.1231 0.4291,-2.5398 0.174,-5.1887 -0.7076,-7.3483 -0.7582,-1.8573 -1.3506,-5.627 -1.3165,-8.377 0.06,-4.82 0.1611,-4.9932 2.8121,-4.8117 1.5125,0.1036 2.749996,0.031 2.749996,-0.1608 0,-0.192 -1.970896,-1.3032 -4.379796,-2.4693 -3.2683,-1.5822 -5.3833,-1.9598 -8.3338,-1.4879 -3.5683,0.5705 -4.3361,0.2787 -7.8702,-2.9917 -4.2951,-3.9747 -7.7667,-5.3421 -9.6792,-3.8126 -0.6803,0.5441 -2.2601,1.303 -3.5105,1.6865 -1.9353,0.5935 -3.7295,-0.7875 -12.0605,-9.2832 -5.872404,-5.9885 -10.741804,-10.1182 -12.174104,-10.3249 -2.8435,-0.4102 -10.2301,-12.0748 -15.0994,-23.8444 -3.8382,-9.2774 -5.77,-11.4322 -11.7133,-13.0658 -2.5736,-0.7074 -5.0098,-1.7694 -5.4139003,-2.3601 -0.404,-0.5907 -0.7415,-4.3318 -0.75,-8.3135 -0.011,-5.3519 -0.6658,-8.8719 -2.5103,-13.5 -2.8426,-7.1329 -2.9305,-15.3982 -0.2596,-24.4239 1.5552,-5.2556 1.0099,-7.3367 -1.9223,-7.3367 -2.7202,0 -4.61620003,-4.8255 -4.03890003,-10.2793 0.3039,-2.8714 0.2083,-6.1154 -0.2125,-7.2089 -1.0688,-2.7778 1.09740003,-10.2515 4.50700003,-15.5496 1.5794,-2.4542 3.6688,-6.1954 4.6431,-8.3138 0.9743003,-2.1183 2.8645003,-5.1506 4.2005003,-6.7383 2.523,-2.9985 6.1735,-13.6477 5.06,-14.7611 -0.7416,-0.7416 -5.189,4.3556 -9.6099003,11.0136 -3.1642,4.7655 -5.6172,6.2312 -7.9823,4.7695 -3.8074,-2.3531 7.8049,-19.9961 22.4918003,-34.1726 3.8408,-3.7073 7.7819,-6.9941 8.7581,-7.3039 0.9762,-0.3098 3.2207,-3.1266 4.9879,-6.2594 1.7671,-3.1329 4.5988,-7.486 6.2925,-9.6736 l 3.0796,-3.9775 -5.7348,3.2275 c -3.1542,1.7751 -6.3443,3.2274 -7.0891,3.2274 -1.2008,0 -12.0467,11.3201 -15.4828,16.1596 -1.5451,2.1763 -5.0279,2.435 -5.797,0.4307 -0.5561,-1.4491 1.9228,-7.1421 3.3745,-7.7499 0.4471,-0.1872 2.8184,-3.2654 5.2696,-6.8404 4.7657,-6.9505 6.7206,-8.9759 14.2779,-14.7919 l 4.8183,-3.7081 -2.8061,-0.5077 c -6.0904,-1.1019 -4.2169,-3.4159 14.169504,-17.5009 1.1,-0.8427 -0.2045,-0.3979 -2.898904,0.9883 -2.6944,1.3862 -5.445,2.5203 -6.1125,2.5203 -0.6675,0 -2.9123,1.35 -4.9886,3 -4.4144,3.5082 -8.5,4.0152 -8.5,1.055 0,-2.0975 8.3892,-9.4596 15.0367,-13.1957 3.9183,-2.2022 3.935,-2.237 1.9577,-4.0792 -2.6565,-2.4749 -2.5406,-3.1196 1.1594,-6.4453 1.7346,-1.5591 4.249804,-3.867 5.589304,-5.1286 4.9355,-4.6484 17.2746,-11.6661 22.2569,-12.6584 5.872,-1.1695 7.0533,-1.6526 6.4455,-2.6361 -0.321,-0.5193 -0.9663,-0.7078 -1.4339,-0.4188 -1.0838,0.6698 -4.0116,-2.2153 -4.0116,-3.953 0,-0.7245 1.5064,-1.5999 3.3475,-1.9453 1.8411,-0.3454 5.5536,-2.2131 8.25,-4.1504 2.6964,-1.9374 8.5025,-5.2396 12.902496,-7.3382 8.2285,-3.92467 10.2274,-5.64983 14.7159,-12.7003 l 2.6065,-4.09435 -2.3555,0.45029 c -1.3921,0.2661 -2.4806,1.27308 -2.6612,2.46188 -0.1986,1.30717 -1.7064,2.52685 -4.3057,3.48297 -2.2,0.80925 -7.699,3.27238 -12.220096,5.47361 -9.5963,4.67227 -15.9062,5.95733 -16.8735,3.43644 -0.8601,-2.24128 1.1092,-4.35117 4.8223,-5.16672 1.6998,-0.37333 5.4512,-2.18889 8.3365,-4.03457 2.8852,-1.84569 7.2009,-4.13449 9.590396,-5.08623 2.3894,-0.95174 5.1514,-2.74837 6.1378,-3.99252 1.045,-1.31823 3.3399,-2.49401 5.5,-2.81793 13.2864,-1.99241 20.8302,-5.5877 21.3995,-10.19877 0.2474,-2.00395 1.3265,-2.845 5.5516,-4.32712 3.873,-1.35861 6.7565,-3.42868 11.0266,-7.91616 4.8889,-5.13771 5.4458,-6.07647 3.6049,-6.07647 -3.3581,0 -12.2401,4.47596 -15.8769,8.00093 -3.6035,3.49266 -7.725,3.82926 -8.3255,0.67994 -0.4942,-2.59185 5.8847,-7.89317 14.8264,-12.32193 6.6393,-3.28835 8.3358,-3.7087 14.7822,-3.6626 6.128,0.0438 7.4411,-0.24497 8.2852,-1.82213 0.77,-1.43884 0.6601,-1.87421 -0.4732,-1.87421 -0.8119,0 -1.7542,0.45 -2.0942,1 -0.9572,1.54886 -5.1055,1.18021 -6.5695,-0.58382 -1.7954,-2.16327 -0.201,-4.47832 4.0761,-5.91839 4.8715,-1.64021 4.7186,-3.07776 -0.4662,-4.38331 -9.8394,-2.47759 -3.4733,-5.27106 12.5413,-5.5032 l 11.5816,-0.16788 4.6269,-3.9717 4.6268,-3.9717 -9.0478,-0.30871 c -9.7398,-0.33232 -13.8692,-1.36445 -13.8692,-3.46654 0,-2.97301 2.2385,-3.64376 10.1294,-3.03525 4.6684,0.36 10.8092,0.0908 15.2483,-0.66857 7.055,-1.20679 7.4535,-1.41718 7.854,-4.14612 0.3765,-2.56518 0.129,-2.87481 -2.2979,-2.87481 -2.5804,0 -4.5315,-2.22376 -3.4651,-3.94926 0.2613,-0.42282 3.0753,-1.06901 6.2532,-1.43597 6.0989,-0.70425 11.0877,-2.33409 18.9778,-6.20011 4.6712,-2.28883 4.7162,-2.35296 1.6728,-2.38339 -3.2934,-0.0329 -6.3506,-2.53482 -4.7801,-3.91184 1.6747,-1.46838 13.8655,-5.43694 17.9076,-5.82958 2.2,-0.21371 5.575,-0.81384 7.5,-1.33363 1.925,-0.51978 4.9921,-0.94758 6.8158,-0.95064 4.5121,-0.008 7.1842,-1.62302 7.1842,-4.34322 0,-1.82115 1.0331,-2.65048 5.25,-4.21482 l 5.25,-1.94754 -7.1699,-0.5 c -7.6017,-0.5301 -8.9023,-1.06634 -8.0396,-3.31468 0.6214,-1.61927 5.0941,-2.68532 11.2664,-2.68532 3.6126,0 4.6404,-0.46823 6.375,-2.90437 1.1375,-1.5974 2.0681,-4.02426 2.0681,-5.39301 0,-2.56035 2.0034,-4.02228 4.3029,-3.1399 0.7166,0.27498 3.3041,-0.85596 5.75,-2.51318 2.4459,-1.65723 5.4091,-3.02133 6.5849,-3.03134 1.1758,-0.01 4.3993,1.53742 7.1633,3.43874 3.8684,2.661 5.2624,3.17157 6.0542,2.21751 0.7717,-0.92994 -0.2679,-1.79931 -4.1633,-3.48157 -9.5359,-4.11808 -12.192,-5.68548 -12.192,-7.19482 0,-3.46317 9.3687,-1.57127 17.5325,3.54049 3.4473,2.15857 10.2286,2.65422 12.9873,0.94926 1.4452,-0.89321 -0.6924,-3.48243 -2.8922,-3.50312 -0.8952,-0.008 -2.3026,-0.44361 -3.1276,-0.96708 -1.2844,-0.81497 -1.1788,-1.27364 0.7344,-3.19124 2.0237,-2.02835 2.5547,-2.12361 5.6332,-1.01042 1.8694,0.67598 5.6328,1.14998 8.3633,1.05334 2.7304,-0.0966 5.3704,0.0727 5.8667,0.37626 0.4964,0.30358 3.3774,-0.73124 6.4024,-2.29961 l 5.5,-2.85158 -4.8157,-0.0472 c -5.385,-0.0527 -8.6843,-1.40035 -8.6843,-3.54716 0,-4.1243 9.5982,-4.5903 20.5968,-1 5.5289,1.80481 9.6391,2.46705 14.7809,2.38149 l 7.1223,-0.11851 -6.9219,-1.13149 c -3.807,-0.62232 -7.0843,-1.62583 -7.2828,-2.23001 -0.1985,-0.60419 0.1147,-2.34949 0.696,-3.87844 1.2191,-3.20654 1.8628,-3.18797 17.5087,0.50511 12.7259,3.00382 18.5469,3.44339 21,1.5858 1.978,-1.4978 1.9764,-1.50853 -0.1477,-0.97432 -2.9195,0.73425 -6.2398,-1.21372 -7.4373,-4.36327 -1.6324,-4.29352 0.1421,-4.79125 8.2691,-2.31948 4.0238,1.22379 8.4409,2.83717 9.8159,3.58527 1.375,0.74811 4.209,2.30224 6.2976,3.45363 3.0082,1.65826 5.1909,2.03219 10.5,1.79882 l 6.7024,-0.2946 -6.25,-2.38399 c -3.8342,-1.46254 -6.25,-2.96451 -6.25,-3.88592 0,-1.98702 6.6842,-1.1196 14.7018,1.90788 3.189,1.2042 8.4982,2.32921 11.7982,2.50001 5.0886,0.26338 5.5823,0.1499 3.25,-0.74705 -1.5125,-0.58168 -2.75,-1.66477 -2.75,-2.40688 0,-4.51212 12.8623,-1.93759 28.3867,5.68188 7.4017,3.63281 13.1678,5.83407 15.2821,5.83407 1.8675,0 4.9075,0.63176 6.7555,1.40391 2.4161,1.00953 4.8651,1.18503 8.7179,0.62475 l 5.3578,-0.77915 -6.095,-0.12475 c -4.745,-0.0971 -6.5006,-0.57298 -7.9263,-2.14839 -3.0743,-3.39696 -0.765,-4.26134 10.1909,-3.81454 8.4994,0.34663 10.7596,0.83672 16.6927,3.61954 5.4992,2.57931 8.0814,3.20467 13,3.14834 9.7789,-0.11198 11.4512,-1.56384 2.8219,-2.44991 -6.0864,-0.62496 -7.5714,-1.14114 -8.8362,-3.07152 -2.0997,-3.2045 -0.9276,-4.51522 3.4624,-3.87205 2.0293,0.29731 6.6146,-0.0837 10.1896,-0.84667 7.6983,-1.64295 10.5264,-0.94512 15.6134,3.85262 3.4566,3.25997 10.0871,5.83442 17.5774,6.82484 2.9126,0.38513 3.5753,0.18703 3.143,-0.9395 -0.3012,-0.78513 -0.05,-1.48377 0.5592,-1.55252 0.6089,-0.0688 1.557,-0.2375 2.107,-0.375 0.55,-0.1375 2.4625,-0.32614 4.25,-0.4192 l 3.25,-0.16919 -3.9599,-2.08738 c -3.0334,-1.599 -5.7826,-2.08739 -11.75,-2.08739 -6.8872,0 -7.7901,-0.21247 -7.7901,-1.83324 0,-2.67605 3.7288,-4.24225 9.9957,-4.19856 6.3577,0.0443 12.6285,2.34008 23.9698,8.77539 6.6604,3.77923 8.7017,4.46854 12.9492,4.37284 5.9861,-0.13486 5.8389,-1.10237 -0.4347,-2.85889 -6.0268,-1.68738 -5.8735,-4.35582 0.2758,-4.80174 3.1864,-0.23106 6.2463,0.59921 12.3278,3.34508 6.6685,3.01093 8.7328,3.52541 11.7529,2.92923 2.0149,-0.39776 3.101,-0.92804 2.4135,-1.17841 -1.5123,-0.55075 -1.6478,-2.92465 -0.2173,-3.80874 2.8624,-1.76902 10.8486,-1.56662 16.9276,0.42901 3.5035,1.15015 7.2655,2.09119 8.3599,2.09119 1.8644,0 1.8855,-0.1153 0.3348,-1.82874 -4.192,-4.63215 -1.277,-5.05645 12.345,-1.79688 3.575,0.85545 8.059,1.57117 9.9643,1.59049 3.2375,0.0328 3.3549,-0.0743 1.7926,-1.63659 -0.9195,-0.91944 -2.7034,-1.77769 -3.9643,-1.9072 -7.7317,-0.79416 -13.7993,-3.98313 -12.2741,-6.45091 1.3583,-2.19777 10.6354,-0.42144 18.5101,3.54421 7.8794,3.96803 12.9443,4.27264 15.3916,0.92569 1.1171,-1.52778 1.6756,-1.53119 7.4744,-0.0456 4.1752,1.06964 10.8294,1.62477 19.9362,1.66318 15.403,0.0649 23.698,1.71323 31.4246,6.24431 l 4.7554,2.78868 6.7446,-1.66968 c 3.7096,-0.91832 6.8712,-1.77776 7.0258,-1.90986 0.4493,-0.38372 -4.9098,-3.70694 -6.309,-3.9123 -0.6987,-0.10255 -1.8783,-0.65025 -2.6213,-1.2171 -1.3469,-1.02759 -9.7606,-3.47736 -17.3509,-5.05192 -3.3787,-0.7009 -4,-1.21808 -4,-3.32978 0,-2.3946 0.2244,-2.48616 5.3213,-2.17161 2.9268,0.18062 7.8347,1.19312 10.9066,2.25 3.0719,1.05689 6.9092,1.92161 8.5275,1.92161 1.9783,0 3.8583,0.98071 5.7384,2.99337 2.7728,2.9683 9.8622,5.29576 20.4839,6.72492 3.5877,0.48274 3.8453,0.37575 2.6275,-1.09155 -0.7425,-0.89471 -2.4108,-1.62674 -3.7074,-1.62674 -4.3724,0 -10.3978,-3.04414 -10.3978,-5.25318 0,-1.90704 0.4231,-1.99652 6.678,-1.41243 3.6729,0.34298 6.9354,1.01915 7.25,1.5026 0.3146,0.48345 2.6674,1.79897 5.2285,2.92338 l 4.6564,2.04439 2.7707,-2.89195 c 1.5238,-1.59057 2.4827,-3.1799 2.1307,-3.53183 -0.3519,-0.35194 -3.4691,-1.61413 -6.9271,-2.80488 -5.4215,-1.86691 -6.2872,-2.50309 -6.2872,-4.62055 0,-2.11013 0.422,-2.42491 3,-2.23771 1.65,0.11981 5.6397,1.57662 8.866,3.23735 6.598,3.39637 9.2079,3.05949 5.1864,-0.66947 -3.2837,-3.04476 -2.8725,-4.68951 1.2746,-5.09908 2.3471,-0.23179 3.173,-0.81052 3.173,-2.22321 0,-1.78956 0.5983,-1.87055 9.5,-1.28582 6.5919,0.43301 9.5,0.28909 9.5,-0.47011 0,-0.60178 1.8904,-2.22142 4.2009,-3.59921 l 4.2008,-2.50508 -2.8892,-1.09849 c -1.5891,-0.60416 -5.7954,-0.96489 -9.3473,-0.8016 -8.2273,0.37821 -9.2465,-1.37391 -2.4984,-4.29508 6.0163,-2.60442 12.0213,-2.11186 18.3495,1.50511 3.4722,1.98463 5.879,2.56548 10.6686,2.5748 3.4017,0.007 7.4125,0.47877 8.9129,1.04921 1.8838,0.71621 3.0489,0.71621 3.7651,0 0.7162,-0.71621 0.5884,-1.04108 -0.4129,-1.04983 -0.7975,-0.007 -4.1009,-1.35696 -7.3409,-3 -3.24,-1.64303 -6.9043,-2.98733 -8.143,-2.98733 -2.9561,0 -4.1331,-3.03911 -1.8294,-4.72362 0.9601,-0.70201 2.9993,-1.27638 4.5316,-1.27638 4.0792,0 20.8064,6.60175 20.8239,8.21862 0,0.39523 0.5703,0.52109 1.2578,0.27967 0.6875,-0.24142 2.5552,-0.91689 4.1504,-1.50103 l 2.9003,-1.06208 -3.4003,-2.57627 c -5.8335,-4.41976 -13.0737,-7.39758 -16.4645,-6.77168 -4.4957,0.82986 -6.3345,-1.68857 -3.3859,-4.6372 3.3727,-3.37266 8.7758,-2.24913 19.158,3.9837 9.0988,5.46241 10.2277,5.624 14.7804,2.11563 l 2.4884,-1.91759 -2.9839,-1.1345 c -1.6412,-0.62397 -4.3646,-2.18752 -6.052,-3.47456 -1.6874,-1.28703 -4.7269,-3.03319 -6.7544,-3.88036 -3.8174,-1.59499 -4.8731,-4.24978 -2.1114,-5.30953 2.6719,-1.0253 8.6452,1.39095 15.1628,6.13351 3.4268,2.49352 6.4964,4.53367 6.8213,4.53367 0.3248,0 3.8194,-2.09806 7.7657,-4.66235 7.0991,-4.61293 7.1448,-4.67061 4.3177,-5.44225 -1.5716,-0.42895 -3.5966,-1.42745 -4.5,-2.21888 -1.4845,-1.30048 -10.1693,-5.54796 -17.4638,-8.54095 -3.5306,-1.44866 -3.2228,-4.122 0.6221,-5.40298 2.3386,-0.77915 4.1868,-0.2681 11.1992,3.09671 4.6192,2.21643 9.938,5.61513 11.8196,7.55268 l 3.4211,3.52282 2.3002,-2.44846 c 1.2651,-1.34665 2.1109,-2.58411 1.8796,-2.74992 -0.2313,-0.1658 -1.5456,-0.83786 -2.9206,-1.49345 -8.2749,-3.9455 -15.5,-8.96223 -15.5,-10.7625 0,-3.07227 5.4746,-2.23846 12.1634,1.85256 l 5.7514,3.51772 1.663,-3.66037 c 1.6292,-3.58584 1.6131,-3.7141 -0.7868,-6.29803 l -2.4499,-2.63764 2.2285,-1.56094 c 1.9663,-1.37723 2.5583,-1.39045 5.0298,-0.11235 3.54677,1.83409 4.90057,1.83288 4.90057,-0.004 0,-2.7497 -2.225,-6.32856 -4.61027,-7.41534 -2.8358,-1.29207 -3.4368,-6.13171 -0.7614,-6.13171 2.30287,0 11.45787,5.39844 14.31817,8.44304 2.774,2.9528 6.5174,3.33734 7.9292,0.81454 0.5363,-0.95834 1.5712,-1.74584 2.2997,-1.75 0.7285,-0.004 3.2534,-0.90758 5.6108,-2.00758 3.8326,-1.78836 4.2313,-2.29504 3.7674,-4.78806 -0.5827,-3.13147 1.9952,-5.03473 3.532,-2.60766 0.5071,0.80082 0.8903,0.91352 0.8991,0.26441 0.019,-1.37533 -6.3314,-6.35449 -8.168,-6.40465 -0.7242,-0.0198 -2.54,-1.03788 -4.0352,-2.26245 -1.967,-1.61102 -2.5618,-2.82589 -2.1515,-4.39486 0.91,-3.47975 2.8988,-3.40329 7.0177,0.26978 2.1188,1.8894 4.4384,3.21269 5.1547,2.94066 0.7163,-0.27204 2.4038,0.22707 3.75,1.10912 2.2701,1.48743 2.4476,1.47885 2.4476,-0.11827 0,-1.25036 0.4793,-1.52283 1.75,-0.99481 4.7438,1.97122 10.85595,3.46825 12.14335,2.97423 2.2491,-0.86305 -0.2428,-2.77822 -5.1757,-3.97782 -3.75425,-0.91298 -4.19715,-1.32586 -4.03075,-3.75804 0.1706,-2.49344 -0.2884,-2.87058 -5.25,-4.31293 -4.6565,-1.35371 -5.4369,-1.9292 -5.4369,-4.00961 0,-2.70497 0.9163,-2.91376 6.0066,-1.36866 1.9214,0.58321 5.1245,1.06219 7.118,1.06441 2.70115,0.003 4.34125,0.75197 6.43715,2.93962 1.5469,1.61457 3.4049,2.93559 4.129,2.93559 2.1998,0 8.3064,3.66427 7.5329,4.5201 -0.91,1.00675 1.46,-0.28334 4.9308,-2.68407 1.4599,-1.00981 3.3458,-1.83603 4.191,-1.83603 0.8451,0 1.7625,-0.36557 2.0386,-0.81237 0.7961,-1.28808 -3.6337,-5.80349 -6.384,-6.50745 -1.375,-0.35194 -3.5444,-2.2663 -4.8209,-4.25414 -3.9388,-6.133874 -0.7375,-8.614834 5.2365,-4.058214 1.7074,1.302314 4.5839,2.692784 6.3921,3.089934 1.8082,0.39715 3.8245,1.58163 4.4805,2.63217 1.3293,2.12848 4.7294,2.60803 4.6802,0.66007 -0.037,-1.48295 -4.5017,-6.750004 -5.7212,-6.750004 -1.3707,0 -5.255,-8.81599 -4.6169,-10.47885 0.6148,-1.60227 3.1654,-1.99628 4.8928,-0.75584 0.5627,0.40408 1.8783,2.0755 2.9235,3.71426 1.088,1.7059 2.0756,2.45397 2.3102,1.75 0.81,-2.43011 3.9533,-1.18298 5.8357,2.31538 1.5479,2.87665 2.3358,3.43758 4.1795,2.97543 1.5086,-0.37816 2.4685,-0.0573 2.8569,0.95506 0.701,1.826674 3.275,1.933244 8.5466,0.35384 2.9675,-0.8891 3.7463,-1.5506 3.2374,-2.75 -1.803,-4.24939 -1.6705,-6.19915 0.459,-6.75604 1.1831,-0.30937 2.1281,-1.36116 2.1281,-2.36844 0,-0.99657 0.675,-2.48694 1.5,-3.31194 0.825,-0.825 1.5,-2.22127 1.5,-3.10282 0,-2.17618 2.6313,-3.02904 5.4222,-1.75743 1.5826,0.72109 2.4989,2.23585 2.9527,4.88146 0.3618,2.10976 1.5172,4.85707 2.5673,6.10512 1.8685,2.22048 1.9862,2.2326 5.4836,0.56479 4.1185,-1.96395 4.3881,-3.48669 1.4659,-8.28004 -2.3144,-3.79656 -2.9089,-9.43676 -1.1771,-11.16857 1.736,-1.73595 3.0965,-0.25814 6.3323,6.87826 1.6501,3.63921 3.1564,6.77301 3.3474,6.964 0.7041,0.70415 5.5249,-2.04934 5.0195,-2.86703 -0.2878,-0.46582 -0.7383,-2.62993 -1.001,-4.80914 -0.2626,-2.17921 -1.1523,-5.57709 -1.977,-7.55085 -2.9656,-7.09767 1.1927,-7.477 7.8518,-0.71626 2.7591,2.80119 4.7124,5.70276 4.7124,7 0,1.37712 0.614,2.21565 1.6224,2.21565 1.1627,0 1.3401,-0.35425 0.6262,-1.25 -0.548,-0.6875 -1.3068,-3.39526 -1.6863,-6.01725 -0.3795,-2.62198 -1.5942,-6.81124 -2.6993,-9.30946 -1.5854,-3.58408 -1.757,-4.84608 -0.8137,-5.98275 2.7739,-3.34231 5.6447,-0.78871 8.8216,7.84697 1.171,3.18313 2.1291,6.89563 2.1291,8.25 0,2.75589 2.0782,3.27809 3.9707,0.99774 0.9747,-1.17441 0.8198,-2.02078 -0.7817,-4.26985 -2.8221,-3.96321 -3.8405,-11.47983 -1.7864,-13.18458 1.9062,-1.58198 4.4521,-0.77071 5.1671,1.6465 0.2884,0.97497 1.6951,4.15764 3.126,7.0726 1.7808,3.62764 3.0539,5.1264 4.0348,4.75 0.7882,-0.30246 2.2963,-0.54992 3.3513,-0.54992 2.7882,0 2.5974,-6.91878 -0.3318,-12.02953 -1.7701,-3.08852 -2.0135,-4.30374 -1.141,-5.69812 1.6748,-2.67659 4.4601,-2.13108 6.2723,1.22844 1.7204,3.18927 7.2439,12.7889 7.6576,13.30839 0.1354,0.17005 2.7402,-0.41586 5.7885,-1.30201 l 5.5423,-1.6112 -2.9349,-6.54121 c -3.2613,-7.26897 -3.7978,-13.39366 -1.351,-15.42433 2.265,-1.8798 4.4762,-0.15415 5.9173,4.61794 0.6564,2.17339 2.607,7.04016 4.3348,10.81504 l 3.1415,6.86341 3.7613,-0.7026 c 2.0687,-0.38642 3.8834,-0.8221 4.0327,-0.96816 0.1493,-0.14607 -0.3357,-5.26839 -1.0779,-11.38293 -0.9239,-7.61268 -1.0252,-11.44139 -0.3214,-12.14524 1.4426,-1.442562 5.2805,-1.283632 5.3634,0.22211 0.067,1.22238 2.8175,16.04087 3.8045,20.5 0.3747,1.69242 1.2065,2.25 3.3566,2.25 1.5722,0 3.2757,-0.5625 3.7856,-1.25 1.0658,-1.4371 1.022,-8.30808 -0.092,-14.4978 -0.637,-3.5381 -0.4774,-4.35807 0.9552,-4.90782 0.946,-0.36301 2.6017,-0.10942 3.6793,0.56353 1.6251,1.01493 2.1747,0.92887 3.2229,-0.50466 1.9342,-2.645232 4.3177,-1.01531 5.5499,3.79525 1.6549,6.46103 1.8237,6.8015 3.3719,6.8015 0.9041,0 1.8851,-1.93451 2.6623,-5.25 1.3624,-5.81167 2.516,-7.75 4.6127,-7.75 2.4191,0 3.7408,4.44292 2.627,8.83097 l -1.0003,3.94057 5.1147,0.50469 c 2.8131,0.27757 5.2226,0.40859 5.3544,0.29114 0.1319,-0.11744 0.6259,-3.03674 1.0978,-6.48733 0.8447,-6.17652 2.0647,-8.034442 5.2959,-8.064732 1.793,-0.0168 2.8319,2.765482 2.8529,7.641072 0.011,2.59749 0.3477,3.06905 1.8998,2.66316 1.2833,-0.33559 2.0854,-1.73967 2.5097,-4.39328 0.9734,-6.090632 6.3913,-14.926632 9.1517,-14.926632 0.6809,0 1.5092,-0.70657 1.8405,-1.57014 0.3566,-0.92906 1.4982,-1.43943 2.7962,-1.25 2.9707,0.43354 5.1651,8.4331 3.5136,12.808442 -0.6094,1.61445 -0.9033,3.10523 -0.6531,3.31283 0.2501,0.20761 2.2632,0.18745 4.4734,-0.0448 l 4.0187,-0.42227 0.3032,-6.116932 c 0.3326,-6.71121 1.4646,-9.71712 3.6595,-9.71712 2.1912,0 3.5995,3.52808 3.8096,9.54391 0.1047,2.99897 0.4154,5.446552 0.6904,5.439072 1.6238,-0.0442 2.9031,-1.94949 3.5211,-5.243972 1.2705,-6.77204 6.418,-10.92722 9.2739,-7.48607 0.731,0.88083 0.6294,1.99453 -0.3422,3.75 -1.9722,3.56353 -1.8976,7.381722 0.129,6.60405 0.87,-0.33385 3.795,-0.60699 6.5,-0.60699 4.219,0 4.9182,-0.27881 4.9182,-1.96105 0,-1.07857 0.8281,-2.76607 1.8402,-3.75 1.012,-0.98392 2.4205,-3.92645 3.1299,-6.53895 1.388,-5.1116 3.4907,-6.14631 6.4588,-3.17823 1.6212,1.62121 1.4392,6.64533 -0.4594,12.67823 -0.7272,2.31081 -0.5743,2.75 0.9575,2.75 4.3762,0 8.073,-1.31641 8.0738,-2.875 0,-2.45901 3.6305,-11.50209 4.7683,-11.88137 2.1213,-0.70709 4.2309,2.94676 4.2309,7.3278 0,4.13285 0.1784,4.42857 2.6713,4.42857 1.4692,0 3.4969,0.74724 4.5061,1.66053 1.0092,0.9133 2.0501,1.44526 2.3133,1.18214 0.2631,-0.26311 0.8228,-3.54992 1.2438,-7.304 0.5553,-4.95121 1.2633,-7.12948 2.5781,-7.93215 2.6086,-1.59235 5.3195,2.08298 6.1866,8.38733 l 0.6885,5.00615 4.2811,0 c 4.0035,0 4.3221,-0.20461 4.9121,-3.1547 0.8415,-4.20742 2.3467,-5.8453 5.3716,-5.8453 2.3782,0 2.4816,0.23082 2.0034,4.47288 l -0.5041,4.47289 4.5553,-0.19826 c 4.4199,-0.19236 4.6144,-0.33786 6.5384,-4.89179 2.0598,-4.87553 5.3854,-7.5567 8.087,-6.51998 1.9374,0.74344 1.9691,4.33782 0.068,7.66426 -2.1164,3.70227 -1.8611,4.33981 2.4653,6.15656 4.3999,1.847612 4.6017,1.727612 7.4111,-4.40656 3.232,-7.05701 7.1301,-3.59284 4.4243,3.93178 -2.5917,7.207242 0.048,5.791802 8.2823,-4.44117 0.7403,-0.91997 1.5394,-0.97786 2.9652,-0.21482 2.5631,1.37174 2.4624,2.75858 -0.5191,7.146242 -2.1028,3.09443 -2.2396,3.72509 -0.9182,4.23213 2.6365,1.01174 3.3891,0.67636 3.3891,-1.51026 -5e-4,-2.45825 5.5827,-9.893902 7.4285,-9.893902 0.6936,0 2.0445,0.86577 3.0022,1.92395 1.6585,1.83261 1.6461,2.05812 -0.2607,4.750002 -1.1009,1.55432 -2.3006,3.85613 -2.6659,5.11512 -0.6021,2.07495 -0.415,2.22654 1.9997,1.6205 1.4651,-0.36772 3.7305,-1.7353 5.0343,-3.03908 2.6034,-2.60343 4.543,-2.9324 7.6103,-1.29079 1.5311,0.81943 2.4193,0.73554 3.6843,-0.348 4.8907,-4.189162 8.5416,-2.67305 7.0008,2.90726 -1.1739,4.25164 -0.5008,5.27444 1.9886,3.02157 2.2821,-2.06528 3.0627,-2.07428 5.2874,-0.0609 1.6201,1.46611 1.9581,1.46611 4.0513,0 3.0807,-2.15784 5.5468,-2.01345 6.8387,0.40042 0.5887,1.1 2.0353,2 3.2147,2 1.1794,0 5.0104,0.96812 8.5134,2.15138 4.8044,1.62282 6.652,1.8685 7.5205,1 1.815,-1.81497 3.9474,-1.32579 8.1795,1.87644 2.1605,1.6347 4.3259,2.97218 4.812,2.97218 0.486,0 3.3142,1.14977 6.2847,2.55506 4.2255,1.99896 5.83,2.32543 7.3723,1.5 3.5283,-1.88828 6.6054,-1.21919 8.9448,1.94494 1.2199,1.65 3.0779,3 4.129,3 1.0511,0 2.2073,0.47931 2.5694,1.06514 0.4319,0.69888 1.3005,0.48396 2.5258,-0.625 2.4914,-2.2546 6.5224,-2.13645 9.778,0.2866 2.1033,1.56546 2.7668,3.05976 3.189,7.18195 0.5311,5.18483 1.8753,7.04586 5.1112,7.076 2.0329,0.0189 15.8557,13.28117 15.8557,15.21269 0,2.6295 2.0365,3.7431 4.6596,2.54794 2.8319,-1.29031 4.4183,-0.10434 7.1318,5.331834 0.9472,1.89748 3.3478,4.30052 5.3868,5.3923 3.5324,1.89137 3.8217,1.90101 7.2984,0.2431 6.4565,-3.07889 17.1476,1.42051 13.5825,5.71623 -0.5365,0.64641 -0.7355,2.09284 -0.4422,3.21429 0.4835,1.8488 0.8952,1.94237 4.4141,1.00313 3.2991,-0.88057 4.1874,-0.75853 5.925,0.81395 1.2661,1.14588 2.044,3.0963 2.044,5.12529 0,2.58478 0.4529,3.34284 2.1479,3.59501 2.7081,0.40291 4.9864,3.84715 3.0164,4.56003 -2.1086,0.76298 6.5107,8.25952 9.4965,8.25952 1.4285,0 3.7553,1.26225 5.449,2.95599 1.6258,1.62579 3.581,2.71614 4.345,2.42299 2.2918,-0.87946 5.7952,1.55705 5.2479,3.64982 -0.2718,1.03932 0.3078,2.57576 1.3158,3.48798 0.9909,0.89673 2.0787,2.83479 2.4174,4.30682 1.0383,4.51294 3.9943,10.15282 5.3277,10.16493 0.6949,0.006 2.1502,-0.54223 3.2338,-1.21898 2.869,-1.79171 5.1283,0.89462 5.4823,6.51848 0.3389,5.3844 1.0249,6.71197 3.4685,6.71197 1.0066,0 2.8926,0.86806 4.191,1.92902 1.8941,1.54764 2.1137,2.18029 1.1108,3.2 -2.2302,2.26767 -1.3367,3.61172 3.1526,4.74213 5.0118,1.262 10.0446,6.31081 9.2645,9.29401 -0.579,2.21414 3.6066,5.83484 6.7453,5.83484 3.2565,0 6.5876,2.80163 6.5876,5.54053 0,2.35433 0.098,2.38578 3.25,1.04889 1.7875,-0.75802 4.428,-1.83899 5.8678,-2.40215 3.1856,-1.246 3.8277,-3.96826 3.2062,-13.5928 -0.3252,-5.03649 -1.2882,-8.83496 -3.3197,-13.09447 -2.6909,-5.64217 -5.0112,-11.5258 -6.9684,-17.67026 -0.4678,-1.46865 -2.0173,-4.99312 -3.4432,-7.83217 -1.426,-2.83904 -2.6256,-6.13742 -2.6658,-7.32973 -0.04,-1.19231 -0.8277,-3.36578 -1.75,-4.82992 -0.9223,-1.46414 -3.1884,-5.25672 -5.0359,-8.42795 -1.8474,-3.17124 -4.1868,-6.4733 -5.1986,-7.33792 -1.0118,-0.86463 -2.7356,-4.17921 -3.8307,-7.36574 -1.987,-5.78198 -3.8373,-8.52824 -11.8617,-17.6059 -2.3375,-2.6443 -4.25,-5.096414 -4.25,-5.449134 0,-2.25483 -17.2152,-22.65128 -19.1184,-22.65128 -0.3699,0 -4.572,-4.47748 -9.338,-9.94997 -4.766,-5.47248 -10.9348,-11.65998 -13.7084,-13.75 -7.5797,-5.71158 -15.9116,-11.14048 -19.8352,-12.92416 -1.925,-0.87512 -3.8599,-2.21769 -4.2997,-2.983502 -0.4398,-0.76581 -1.3904,-1.39237 -2.1125,-1.39237 -0.722,0 -2.9839,-1.32802 -5.0263,-2.95115 -2.0425,-1.62312 -6.1523,-3.66011 -9.1331,-4.52664 -2.9807,-0.86652 -6.9434,-2.91351 -8.806,-4.54885 -1.8625,-1.63535 -4.452,-2.98931 -5.7544,-3.0088 -4.2148,-0.0631 -12.5452,-6.08716 -14.3917,-10.40733 -1.4893,-3.4844598 -0.5349,-6.1734898 3.1608,-8.9057598 2.303,-1.70263 3.3742,-1.76284 13.5711,-0.76282 7.4046,0.72617 13.2599,1.94114 17.6813,3.66882 12.6329,4.93641 27.628,11.7957498 30.6105,14.0024098 1.65,1.22079 5.7729,3.60572 9.162,5.29984 6.117,3.05773 17.2285,11.56908 20.5919,15.773292 0.9646,1.20579 3.7089,3.13876 6.0984,4.2955 2.3895,1.15674 6.7512,4.23353 9.6925,6.83732 2.9414,2.60379 9.2464,8.20702 14.0112,12.45162 4.7647,4.2446 14.6888,15.00329 22.0536,23.9082 7.3647,8.90492 15.7529,18.928764 18.6404,22.275204 2.8875,3.34643 5.25,6.45106 5.25,6.89916 0,1.08018 8.4406,13.16899 12.6586,18.12999 1.8378,2.1615 3.3414,4.30794 3.3414,4.76987 0,0.46193 1.125,2.62199 2.5,4.80013 1.375,2.17814 2.5,4.42883 2.5,5.00153 0,1.30251 12.5782,22.9797 17.4085,30.00177 1.9753,2.87162 3.5915,5.7596 3.5915,6.41774 0,0.65814 1.5766,3.81474 3.5035,7.01467 1.9268,3.19994 3.6872,6.83163 3.9118,8.07044 0.5325,2.93662 3.4181,8.49385 4.4104,8.49385 0.4259,0 1.269,-0.4947 1.8736,-1.09934 1.2128,-1.21275 5.3007,-0.31297 5.3007,1.16673 0,0.51293 1.0923,0.93261 2.4274,0.93261 2.7949,0 6.745,4.38723 5.9097,6.56382 -0.6826,1.77897 0.4208,1.77611 3.6465,-0.009 2.7665,-1.5314 6.0164,-0.48591 6.0164,1.93549 0,0.83141 1.4546,1.69239 3.511,2.07818 4.2601,0.79919 4.7873,1.51712 3.5344,4.81263 -0.5886,1.54801 -0.6064,2.77257 -0.045,3.11924 1.333,0.82384 5.0001,-6.87122 5.0001,-10.4922 0,-1.68958 0.675,-4.68746 1.5,-6.66196 0.825,-1.97451 1.5,-5.11005 1.5,-6.96788 0,-1.85784 0.3572,-3.37788 0.7937,-3.37788 0.9278,0 2.8489,-8.91934 3.7691,-17.49896 0.3538,-3.29943 1.2919,-7.25325 2.0847,-8.78627 1.6786,-3.24596 1.9483,-11.20683 1.4135,-41.71477 -0.3158,-18.00989 -0.6736,-22.19772 -2.2041,-25.79813 -2.3197,-5.4569 -5.1838,-16.089264 -5.0378,-18.701874 0.062,-1.1 -0.9542,-3.8 -2.257,-6 -4.6199,-7.80124 -10.3864,-20.07961 -12.1106,-25.78666 -1.3906,-4.60268 -3.0479,-7.12517 -8.0999,-12.32862 -3.4939,-3.59852 -6.3521,-7.019752 -6.3521,-7.603182 0,-0.58343 -1.35,-3.25482 -3,-5.93641 -3.3352,-5.42043 -3.5363,-6.5554 -1.6105,-9.09212 2.2593,-2.97607 7.0159,-3.27418 11.3074,-0.70867 4.9371,2.95143 9.3031,6.99102 9.3031,8.60751 0,0.70296 1.3398,2.80401 2.9772,4.669 1.6375,1.86499 2.7622,3.605982 2.4993,3.868862 -0.2629,0.26288 0.7599,1.59423 2.2728,2.95856 6.8609,6.18715 21.9221,24.37337 24.7807,29.92227 0.9715,1.88596 2.769,4.77902 3.9943,6.42902 4.7131,6.34673 15.9262,34.666524 16.933,42.766044 0.3528,2.83827 4.1727,16.83434 6.2047,22.73396 2.3794,6.90829 3.0897,10.58354 4.3485,22.5 1.2021,11.37949 1.6048,33.86477 0.6537,36.5 -0.2977,0.825 -0.8053,9.9375 -1.1279,20.25 -0.4405,14.07824 -0.2924,18.75 0.5941,18.75 0.6495,0 2.7314,-1.18267 4.6265,-2.62816 1.8951,-1.44549 4.8626,-2.98938 6.5944,-3.43088 1.7318,-0.4415 7.6477,-1.95882 13.1464,-3.37184 5.4987,-1.41302 11.2857,-2.56912 12.86,-2.56912 1.5743,0 5.4003,-1.31321 8.5023,-2.91825 5.591,-2.8929 11.1402,-5.38088 14.2594,-6.3932 2.0625,-0.66937 7.2927,2.48458 9.3651,5.64742 1.4882,2.27126 1.4363,2.78619 -0.7879,7.81532 -1.5365,3.47448 -3.3048,5.8048 -4.9859,6.57075 -1.4327,0.65279 -3.4048,2.44488 -4.3823,3.98242 -3.3219,5.22473 -10.8165,13.43089 -14.1485,15.49176 -1.9493,1.2057 -5.9804,6.10111 -9.7639,11.85738 -3.5441,5.39213 -9.9204,13.31446 -14.1695,17.60517 -4.2492,4.29072 -8.4054,9.16028 -9.2361,10.82126 -0.8307,1.66099 -3.1979,4.10786 -5.2604,5.43751 -2.3932,1.54282 -3.739,3.17102 -3.7196,4.5 0.027,1.86996 0.1326,1.90713 1.0319,0.36424 0.5508,-0.94503 2.6041,-2.47871 4.5628,-3.40818 3.0248,-1.43535 3.6957,-1.4778 4.4528,-0.28178 1.583,2.50056 0.983,5.68237 -1.6651,8.82939 -2.9733,3.53356 -1.6913,4.89556 2.9478,3.13178 3.0596,-1.16326 6.2813,0.24337 7.2021,3.14456 0.6492,2.0454 -2.2753,8.09813 -3.5362,7.31883 -1.8537,-1.14567 -1.8287,1.18464 0.027,2.52222 2.2843,1.64644 2.5864,6.29969 0.5306,8.17197 -1.2074,1.09954 -1.0327,1.69423 1.1858,4.03812 2.5554,2.69981 2.5722,2.81058 0.9422,6.22872 -1.1422,2.39515 -2.1354,3.29744 -3.1859,2.89432 -0.9622,-0.36923 -1.5263,-0.0152 -1.5263,0.95792 0,1.01059 1.1223,1.65184 3.25,1.85699 2.7041,0.26073 3.3029,0.77321 3.5652,3.05117 0.1734,1.50579 -0.3611,3.70343 -1.1877,4.88365 -1.3071,1.86615 -1.3156,2.33327 -0.065,3.58363 0.7908,0.79077 1.4378,2.08503 1.4378,2.87613 0,1.61854 -3.3911,4.83968 -5.2696,5.00553 -0.6767,0.0597 -1.7929,0.17716 -2.4804,0.26094 -2.0904,0.25472 -1.4904,4.15231 0.6392,4.15231 1.0391,0 2.9516,0.861 4.25,1.91333 l 2.3608,1.91334 -2.1081,2.8542 c -1.6176,2.19012 -1.9003,3.41573 -1.2152,5.26766 0.5516,1.49134 0.4974,3.54754 -0.142,5.38169 -2.1471,6.15931 -1.2661,11.83799 3.2958,21.24236 2.3818,4.91007 5.5632,12.16917 7.0698,16.13127 1.5066,3.9622 3.6371,8.3453 4.7345,9.7404 1.0973,1.395 1.701,3.0124 1.3415,3.5941 -0.3595,0.5817 0.8659,3.3986 2.7231,6.2597 1.8573,2.8611 4.1265,6.5519 5.0426,8.2019 5.9566,10.728 8.1097,14.3987 10.2647,17.5 1.3377,1.925 3.3709,4.85 4.5184,6.5 3.8106,5.4797 14.9749,26.3974 14.9749,28.0576 0,0.8985 0.8161,2.8282 1.8137,4.2881 0.9975,1.4599 2.3949,4.6793 3.1053,7.1543 1.3909,4.8462 8.3275,23.4944 10.6573,28.6512 0.783,1.7331 1.4237,4.519 1.4237,6.191 0,1.6719 0.4855,3.3399 1.079,3.7067 0.5934,0.3667 3.4692,5.696 6.3905,11.8427 3.1917,6.7154 7.5503,13.9071 10.921,18.0193 3.0852,3.7639 5.6095,7.5962 5.6095,8.5163 0,0.9201 0.4432,2.116 0.9848,2.6577 0.5417,0.5417 1.1709,2.7692 1.3982,4.95 0.2273,2.1808 1.1831,6.8116 2.124,10.2906 1.4341,5.3026 1.5156,7.022 0.5044,10.6337 -1.1994,4.2839 -0.2512,8.5408 1.9025,8.5408 0.4639,0 1.4012,1.4625 2.0828,3.25 0.6816,1.7875 2.369,5.6629 3.7497,8.612 3.0446,6.5033 2.7482,12.742 -1.0045,21.1458 -1.3489,3.0207 -3.3051,7.6918 -4.3472,10.3801 -1.4924,3.85 -2.9564,5.5723 -6.8947,8.111 -6.3728,4.108 -13.1329,7.546 -15.8668,8.0694 -2.8088,0.5377 -4.3445,2.7635 -5.135,7.4422 -1.2556,7.4319 -6.2622,13.94 -15.4982,20.1459 -4.675,3.1412 -9.4615,5.7411 -10.6366,5.7775 -1.1751,0.036 -4.6445,1.6939 -7.7096,3.6833 -4.4094,2.8619 -6.2337,4.8977 -8.7371,9.75 -1.7402,3.3731 -5.0483,8.8328 -7.3513,12.1328 -2.303,3.3 -4.7644,7.9925 -5.4698,10.4277 -1.5933,5.5013 -3.7133,8.8162 -6.1285,9.5828 -1.2106,0.3842 -2.4269,2.5666 -3.505,6.289 -0.9081,3.1353 -2.024,6.155 -2.4798,6.7104 -0.4558,0.5555 -1.1464,3.818 -1.5346,7.25 -0.3883,3.4321 -1.0181,6.2401 -1.3996,6.2401 -0.3815,0 -1.7046,2.0243 -2.9402,4.4984 -1.5623,3.1282 -3.0631,4.7027 -4.9272,5.1692 -4.2238,1.0571 -7.6108,3.4823 -12.5761,9.0049 -2.9819,3.3166 -4.6046,6.0388 -4.6046,7.7245 0,2.3001 -0.4008,2.603 -3.4433,2.603 -2.2046,0 -3.9134,0.6624 -4.75,1.8413 -3.6279,5.1122 -10.3066,4.5245 -16.6239,-1.4628 -6.2188,-5.894 -13.7118,-10.3779 -17.3523,-10.384 -1.8318,0 -4.9652,-0.4597 -6.9633,-1.0147 -3.2719,-0.9088 -4.0525,-1.8603 -7.8595,-9.5806 -2.3247,-4.7144 -4.544,-9.7578 -4.9318,-11.2076 -0.7459,-2.789 -3.3851,-3.8852 -11.7571,-4.8835 -2.3153,-0.276 -4.9504,-1.3485 -5.905,-2.4033 -0.9481,-1.0476 -2.2598,-1.9048 -2.915,-1.9048 -0.6552,0 -3.0341,-2.025 -5.2866,-4.5 -2.2524,-2.475 -4.7449,-4.5 -5.5388,-4.5 -2.1237,0 -4.4018,-4.0259 -6.3248,-11.1777 -2.04,-7.5873 -2.5962,-8.4177 -6.121,-9.1406 -1.5002,-0.3076 -4.8056,-2.7244 -7.3455,-5.3705 -6.4832,-6.7546 -10.0206,-10.2389 -14.7667,-14.545 -2.2635,-2.0537 -4.1839,-4.5287 -4.2677,-5.5 -0.084,-0.9714 -0.2019,-2.3013 -0.2624,-2.9553 -0.1815,-1.96 -5.9852,-9.2618 -7.3818,-9.2872 -0.7131,-0.013 -2.0631,-1.3708 -3,-3.0173 -0.9369,-1.6466 -2.244,-2.9966 -2.9046,-3 -0.6605,0 -2.819,-2.8997 -4.7966,-6.4359 -3.4305,-6.1343 -3.7428,-6.4068 -6.799,-5.9332 -2.5354,0.3928 -3.8357,-0.091 -6.2365,-2.3205 -2.8473,-2.6441 -10.1684,-12.5197 -9.6868,-13.0668 0.6529,-0.7418 -0.021,-2.2275 -2.03,-4.4764 -6.6387,-7.431 -8.3647,-9.5072 -9.8927,-11.8997 -1.4206,-2.2239 -11.8178,-8.8739 -13.8746,-8.8739 -1.0221,0 -2.9829,4.8295 -2.9829,7.3471 0,5.2367 -5.6121,6.2544 -9.8064,1.7783 -3.359,-3.5848 -6.2873,-5.1254 -9.742,-5.1254 -1.821,0 -3.8451,-1.2431 -6.3157,-3.8788 -2.0135,-2.1481 -5.6439,-4.5922 -8.1359,-5.4776 -3.9291,-1.3959 -5.0074,-1.423 -8.5,-0.2143 -3.7633,1.3024 -4.0037,1.6243 -4.0619,5.441 -0.072,4.7227 -2.3426,7.7302 -6.5303,8.65 -1.5867,0.3485 -3.1646,1.0862 -3.5065,1.6394 -0.3419,0.5532 -2.7096,1.9019 -5.2615,2.9971 -4.949,2.124 -12.2524,1.8804 -14.1257,-0.4711 -7.7347,-9.7091 -9.9631,-10.9387 -12.5818,-6.942 -1.291,1.9704 -1.516,3.8003 -1.0132,8.2436 0.86,7.6021 -0.3213,10.5203 -7.1857,17.7498 -1.6725,1.7614 -2.8521,2.203 -4.5,1.6845 -2.9441,-0.9262 -7.0876,-4.0539 -11.488,-8.6716 -3.866,-4.0569 -8.5184,-5.0869 -9.6506,-2.1365 -0.418,1.0893 -1.3342,1.4265 -2.8201,1.0379 -3.8101,-0.9964 -5.7448,1.8057 -5.0862,7.3665 1.411,11.9134 -5.3161,17.3699 -11.3819,9.2321 -4.4652,-5.9904 -6.3066,-6.7789 -6.3066,-2.7003 0,3.6 -2.5979,8.1879 -5.0829,8.9767 -3.4424,1.0925 -11.1603,6.572 -15.0135,10.659 -1.978,2.0981 -4.3193,3.8146 -5.2029,3.8146 -2.1909,0 -6.7007,-2.1271 -6.7007,-3.1605 0,-0.4617 -0.6201,-0.8395 -1.378,-0.8395 -0.7579,0 -2.0843,-1.0125 -2.9476,-2.25 -1.5328,-2.1974 -1.5707,-2.1491 -1.6219,2.0641 -0.068,5.5916 -4.3062,14.8888 -7.4375,16.3155 -1.3169,0.6 -2.8902,2.179 -3.4961,3.5088 -0.6059,1.3298 -1.8026,2.6868 -2.6594,3.0156 -0.8568,0.3287 -2.8405,3.1286 -4.4084,6.2219 -3.5099,6.9248 -6.4495,9.6807 -11.2356,10.5336 -2.77,0.4936 -4.6478,1.8275 -7.565,5.3736 -5.686,6.9119 -8.2505,10.8242 -8.2505,12.5865 0,0.8585 -1.3521,3.1008 -3.0046,4.9829 -4.4201,5.0342 -6.2081,10.946 -5.5106,18.22 0.4908,5.1182 0.2675,6.4727 -1.4207,8.6189 -1.1016,1.4005 -3.3087,2.8076 -4.9046,3.1267 -2.4457,0.4892 -2.8273,0.9691 -2.4286,3.0544 0.2601,1.3607 -0.1994,3.746 -1.0212,5.3008 -0.8217,1.5547 -2.2982,4.7666 -3.2811,7.1375 -2.8937,6.9799 -6.8994,8.0378 -11.5568,3.052 -1.6119,-1.7255 -3.0299,-2.963 -3.1512,-2.75 -2.2194,3.8963 -2.7206,5.2767 -2.7206,7.4929 0,1.448 -1.5552,5.1929 -3.4561,8.322 -2.743,4.5155 -4.489,6.1731 -8.4626,8.0343 -3.898,1.8257 -5.3173,2.0871 -6.4098,1.1803 -2.5598,-2.1243 -9.0534,1.9626 -18.5405,11.6691 -5.5974,5.7267 -9.212,10.2809 -9.6145,12.1136 -0.9512,4.3305 -2.9476,5.6553 -6.253,4.1493 -1.4724,-0.6709 -3.2846,-2.0871 -4.027,-3.1471 -2.0256,-2.8919 -3.9643,-2.4329 -3.4861,0.8253 0.3969,2.7042 -2.4815,10.6499 -10.0515,27.7475 -6.4058,14.468 -7.9489,19.9349 -6.8008,24.0933 0.5993,2.1702 0.6592,4.36537 0.1455,5.32527 -0.4908,0.917 -0.4965,2.3077 -0.013,3.1716 0.5167,0.9234 0.241,4.5113 -0.6897,8.9742 -1.0041,4.8146 -1.33,9.5506 -0.9247,13.4356 0.3444,3.3 0.8887,11.9959 1.2096,19.3241 0.5446,12.4339 0.4484,13.4695 -1.4393,15.5 -1.4284,1.53648 -2.1839,4.08588 -2.5711,8.67588 -0.3016,3.575 -0.8282,8.75 -1.1703,11.5 -0.3421,2.75 -1.0155,9.05 -1.4965,14 -1.4759,15.1907 -3.0577,24.3543 -5.5623,32.223 -0.7394,2.3227 -1.1452,4.7977 -0.9019,5.5 0.2432,0.7024 0.6643,3.8859 0.9358,7.0746 0.5464,6.4183 -0.715,10.3438 -3.6199,11.2658 -2.4139,0.7661 -5.3204,-1.4433 -3.8427,-2.921 1.4706,-1.4706 1.2938,-2.6424 -0.3986,-2.6424 -2.6644,0 -3.0589,2.4322 -3.0819,19 -0.019,13.6984 -0.3162,17.0434 -1.75,19.7003 -0.9499,1.7602 -2.3336,3.5602 -3.0749,4 -0.7413,0.4398 -2.3484,4.1252 -3.5713,8.1897 -1.2229,4.0645 -4.8914,12.6127 -8.1522,18.996 -3.2608,6.3834 -5.9287,12.5387 -5.9287,13.6786 0,4.3555 -3.3371,13.0994 -6.4634,16.9354 -4.5722,5.6102 -5.2131,9.9974 -4.3093,29.5 0.4554,9.8272 1.7538,15.8967 6.4013,29.924 0.8062,2.4331 1.4716,7.1581 1.4787,10.5 0.021,10.0631 0.3442,12.8495 2.0949,18.076 1.9961,5.9595 4.0112,18.7803 3.2595,20.7391 -0.8803,2.2941 2.3418,12.8699 5.1601,16.9367 2.5375,3.6615 5.372,6.7226 24.3811,26.3293 5.7142,5.8939 8.9686,10.0884 9.4193,12.1407 0.3918,1.7837 2.4434,4.759 4.7586,6.9012 2.2385,2.0711 4.9565,5.8328 6.0402,8.3593 1.0836,2.5265 2.8272,6.4233 3.8746,8.6594 1.0474,2.2362 1.9121,4.9362 1.9215,6 0.029,3.3007 5.3865,11.2494 10.5761,15.6916 7.8649,6.7322 21.4068,21.8009 21.4068,23.8203 0,2.2068 7.304,9.9224 9.393,9.9224 0.8097,0 1.7506,0.877 2.0908,1.9488 0.3402,1.0719 1.4419,2.2102 2.4483,2.5296 1.0311,0.3273 2.1,1.9319 2.4488,3.6762 1.0242,5.121 0.7795,5.8454 -1.9745,5.8454 -1.6906,0 -2.7635,0.6497 -3.0817,1.8662 -0.2868,1.097 -2.0436,2.3322 -4.2624,2.997 -2.0759,0.6219 -5.3184,2.1786 -7.2055,3.4592 -4.7987,3.2565 -13.3801,5.1396 -25.8568,5.674 -3.025,0.1296 -7.5554,0.8097 -10.0675,1.5115 -3.2904,0.9192 -5.0974,0.9793 -6.463,0.2151 -1.0425,-0.5834 -3.9123,-1.4376 -6.3773,-1.8981 -2.465,-0.4605 -4.7656,-1.2964 -5.1124,-1.8575 -0.3468,-0.5612 -3.0716,-1.2853 -6.0552,-1.6092 -3.3457,-0.3633 -6.853,-1.5489 -9.1519,-3.0939 -4.3,-2.8897 -12.013,-4.1397 -14.2237,-2.305 -1.7578,1.4589 -6.88,0.5517 -8.6023,-1.5236 -0.6554,-0.7896 -1.7417,-1.4357 -2.4142,-1.4357 -0.6724,0 -2.0139,-0.8745 -2.9812,-1.9433 -0.9673,-1.0688 -3.1745,-2.2439 -4.905,-2.6113 -3.7457,-0.7953 -6.6463,-3.1359 -6.6463,-5.3633 0,-0.8843 -1.0125,-2.0561 -2.25,-2.604 -1.2714,-0.563 -2.1298,-1.7205 -1.9736,-2.6614 0.1521,-0.9158 -0.5229,-1.936 -1.5,-2.2671 -2.3713,-0.8037 -7.2764,-5.1864 -7.2764,-6.5016 0,-0.5764 -0.3477,-1.048 -0.7726,-1.048 -2.3422,0 -6.2274,-13.0758 -6.2274,-20.9586 0,-3.7605 -0.5686,-5.591 -2.3973,-7.7169 l -2.3973,-2.787 -2.2015,3.7313 c -1.3974,2.3684 -2.9871,3.7673 -4.3527,3.83 -6.6886,0.3073 -10.555,0.687 -13.9062,1.3654 l -3.7549,0.7602 0.1689,-4.8622 c 0.153,-4.4038 -0.2,-5.2428 -3.745,-8.8991 -4.3991,-4.5372 -7.1333,-12.2506 -5.4545,-15.3875 0.7551,-1.4109 0.264,-2.905 -2.1555,-6.5577 -1.8027,-2.7217 -3.2314,-6.2779 -3.3643,-8.3742 -0.3332,-5.2555 -0.3508,-5.3167 -1.3495,-4.6995 -2.3763,1.4687 -4.0902,-0.7517 -4.092,-5.3012 0,-4.4109 -0.2256,-4.7844 -4.4801,-7.4722 l -4.4782,-2.8292 0.085,-7.6708 c 0.047,-4.2189 0.7579,-10.8397 1.5804,-14.7127 1.325,-6.2394 1.3257,-7.4481 0.01,-10.6061 -1.4815,-3.5459 -1.272,-8.3875 0.4079,-9.4258 0.4843,-0.2993 0.8806,-1.4335 0.8806,-2.5204 0,-1.0869 0.7061,-3.0538 1.569,-4.3708 1.4333,-2.1874 1.4233,-2.6171 -0.115,-4.9648 -0.9262,-1.4136 -2.4625,-2.5702 -3.414,-2.5702 -2.4299,0 -5.04,-3.1911 -5.04,-6.162 0,-1.3774 0.5135,-5.0614 1.1411,-8.1865 0.9993,-4.9758 0.929,-5.9165 -0.5652,-7.5677 -1.4767,-1.6317 -1.5481,-2.4708 -0.5304,-6.2346 0.7604,-2.8125 0.9218,-6.9992 0.4567,-11.8492 -0.3955,-4.125 -0.8966,-13.575 -1.1134,-21 -0.7555,-25.8736 -0.8876,-26.5201 -5.2454,-25.6871 -3.6039,0.6889 -6.1434,-0.9017 -6.1434,-3.8481 0,-1.3556 0.3418,-2.4648 0.7595,-2.4648 0.4177,0 1.3532,-0.9508 2.0789,-2.1129 1.1667,-1.8681 1.0208,-2.4246 -1.2594,-4.8047 -1.4185,-1.4805 -2.579,-3.2297 -2.579,-3.8871 0,-1.9139 -2.0243,-1.384 -4.0288,1.0547 l -1.8494,2.25 -2.2407,-2.2076 c -1.9711,-1.9419 -2.0943,-2.5292 -1.0235,-4.8792 1.7672,-3.8785 0.5184,-4.2508 -2.8752,-0.8572 -2.1966,2.1967 -3.1056,4.2335 -3.5473,7.9487 -0.3267,2.7474 -0.9689,5.8953 -1.4271,6.9953 -1.1599,2.7843 -5.6934,22.0503 -6.4684,27.4888 -0.3606,2.5307 -1.5993,5.5103 -2.8396,6.8306 -2.1056,2.2413 -2.2016,3.1642 -2.2384,21.5112 -0.021,10.5432 0.2965,20.7444 0.7057,22.6694 0.4093,1.925 0.4266,3.612 0.038,3.7488 -1.0735,0.3784 -0.5532,9.6683 0.7653,13.6634 0.6415,1.9438 1.3057,8.8986 1.4759,15.4551 0.3267,12.5835 1.8957,17.9329 7.9581,27.1327 1.2685,1.925 3.5034,5.525 4.9666,8 3.8165,6.456 4.7944,8.0569 7.4293,12.163 1.2928,2.0147 2.4488,4.3323 2.5688,5.1504 0.2046,1.3938 1.7051,3.343 10.7384,13.95 4.6954,5.5134 5.8919,7.9093 5.8919,11.7978 0,1.8351 1.6661,6.2213 3.9185,10.3157 2.1552,3.9177 4.2303,8.8106 4.6113,10.8731 0.4065,2.2005 1.2666,3.75 2.0815,3.75 0.7638,0 1.3887,0.3731 1.3887,0.8291 0,0.4559 2.2109,1.8646 4.9131,3.1302 4.0112,1.8787 5.0218,2.8803 5.5049,5.4554 0.7862,4.1907 3.2633,7.5853 5.5351,7.5853 2.158,0 7.5832,5.8471 8.5215,9.1843 0.3581,1.2736 1.1073,3.2506 1.6649,4.3932 0.667,1.3669 0.6888,3.8656 0.064,7.3051 -0.7425,4.085 -0.65,5.5278 0.4233,6.601 0.7554,0.7555 1.3735,1.795 1.3735,2.3101 0,0.5151 0.9351,2.1253 2.078,3.5783 2.7571,3.5051 1.9051,7.1742 -2.7879,12.0059 -2.8789,2.9639 -4.2673,3.6784 -6.71,3.4533 -2.5271,-0.233 -3.6188,-1.2042 -6.0801,-5.4091 -1.65,-2.8188 -3.5005,-5.7544 -4.1121,-6.5236 -0.6117,-0.7692 -1.4038,-2.6201 -1.7602,-4.1132 -0.4502,-1.8857 -1.1101,-2.5374 -2.1609,-2.1342 -1.198,0.4597 -1.444,2.0426 -1.1822,7.605 0.282,5.9907 0.037,7.2981 -1.6655,8.8842 -1.0979,1.0228 -3.0364,1.8597 -4.3077,1.8597 -1.3979,0 -2.3114,0.5986 -2.3114,1.5147 0,0.8331 -1.4239,2.3806 -3.1641,3.4389 -2.5448,1.5476 -4.4532,1.8341 -9.75,1.4636 -7.6477,-0.5349 -14.1546,-0.4928 -15.1102,0.098 -0.3676,0.2272 -2.945,0.053 -5.7276,-0.3867 -3.592,-0.5678 -5.7391,-0.4226 -7.4037,0.5005 -1.377,0.7638 -5.439,1.2738 -9.8444,1.2361 -4.6689,-0.04 -6.5563,-0.3282 -5,-0.7636 2.2451,-0.628 1.9537,-0.8784 -2.8582,-2.456 -3.1238,-1.0242 -6.5349,-1.4982 -8.18,-1.1369 -3.7251,0.8182 -14.442,-1.1353 -19.4618,-3.5475 -2.2,-1.0572 -6.925,-3.2911 -10.5,-4.9642 -3.575,-1.6732 -8.525,-4.4465 -11,-6.163 -7.5895,-5.2634 -13.8664,-15.0315 -14.03,-21.8337 -0.033,-1.375 -0.6236,-3.8203 -1.3122,-5.4341 -1.013,-2.3741 -0.9839,-4.8047 0.1523,-12.7357 1.3516,-9.4334 1.327,-9.9326 -0.6527,-13.2879 -1.1704,-1.9838 -1.6476,-3.7393 -1.1072,-4.0733 1.7745,-1.0967 0.9592,-4.126 -1.4588,-5.4201 -1.4994,-0.8024 -3.8587,-1.05 -6.25,-0.6559 -7.9211,1.3057 -7.5869,1.4422 -9.5355,-3.893 -1.0044,-2.75 -1.67,-6.35 -1.479,-8 0.191,-1.65 -0.077,-4.2469 -0.595,-5.7709 -0.5772,-1.6978 -0.5844,-3.2469 -0.018,-4 1.4021,-1.8655 1.4422,-6.8366 0.069,-8.4917 -2.2698,-2.7349 -3.6742,-8.5793 -3.207,-13.3462 0.3931,-4.0118 0.1728,-4.8364 -1.4281,-5.3445 -4.6359,-1.4714 -5.0319,-31.2837 -0.5894,-44.3677 0.8738,-2.5735 2.0093,-6.8963 2.5233,-9.6063 0.8323,-4.3883 0.7008,-5.1762 -1.2024,-7.202 -1.2794,-1.3619 -1.9108,-2.9961 -1.5734,-4.0727 1.4519,-4.633 3.3582,-9.1904 4.3636,-10.4318 1.9334,-2.3875 3.9537,-19.4113 2.51,-21.1509 -0.6395,-0.7705 -0.8322,-6.5102 -0.5181,-15.4325 l 0.5001,-14.2056 -2.7091,-3.5517 c -2.1467,-2.8145 -2.5936,-4.2627 -2.1532,-6.9767 0.8843,-5.4493 -1.4382,-6.5112 -5.8222,-2.6621 -4.845,4.254 -8.1505,4.1371 -10.0272,-0.3546 -0.797,-1.9073 -1.4518,-4.2698 -1.4553,-5.25 0,-0.9801 -1.3535,-2.5487 -3,-3.4856 -1.7494,-0.9954 -2.9937,-2.5296 -2.9937,-3.691 0,-1.0931 -0.37505,-2.2192 -0.83335,-2.5025 -0.4583,-0.2832 -0.6309,-1.9973 -0.3837,-3.809 0.3683,-2.6983 0.2116,-3.0679 -0.8667,-2.044 -3.338,3.1698 -7.5953,-0.8494 -8.5538,-8.0753 -0.7995,-6.0268 -3.4555,-9.2305 -6.3625,-7.6747 -1.542,0.8253 -2.3808,0.6192 -3.9771,-0.9771 -1.1171,-1.1128 -2.0274,-2.4731 -2.0274,-3.0231 0,-0.55 -1.1146,-1 -2.4769,-1 -4.5382,0 -5.6583,-3.4189 -5.3226,-16.2457 0.2247,-8.5867 -0.043,-11.8587 -1.0729,-13.0999 -1.5717,-1.8946 -5.2002,-2.1818 -6.8405,-0.5415 -0.612,0.612 -1.602,0.8105 -2.2,0.441 -1.6193,-1.0008 -1.2788,-3.7468 0.7999,-6.4503 1.567,-2.0381 1.655,-2.7578 0.5885,-4.8134 -0.9409,-1.8136 -0.9819,-3.1376 -0.1644,-5.3035 0.9016,-2.3885 0.7792,-3.2295 -0.7094,-4.8743 -1.4371,-1.588 -2.2994,-1.7976 -4.2864,-1.0422 -2.8839,1.0965 -14.05567,-0.401 -15.73747,-2.1095 -0.7741,-0.7864 -0.3029,-1.663 1.6722,-3.1112 3.4034,-2.4954 3.5842,-4.8495 0.3724,-4.8495 -3.2448,0 -4.2449,-1.6541 -4.429,-7.3249 -0.086,-2.6537 -0.6092,-6.5058 -1.1625,-8.5603 -0.7421,-2.7563 -0.6205,-5.5544 0.4643,-10.6751 0.8085,-3.8168 1.4779,-8.156 1.4874,-9.6426 0.023,-3.5894 2.0079,-7.7971 3.6779,-7.7971 1.7243,0 1.6806,-0.8228 -0.2387,-4.5 -1.5935,-3.0531 -3.0541,-9.0124 -4.4118,-18 -0.6857,-4.5402 -0.491,-5.3629 2.1174,-8.947 1.5799,-2.1709 2.8754,-4.4209 2.8788,-5 0,-0.5792 0.6864,-2.3575 1.5178,-3.9518 1.6977,-3.2553 1.2632,-4.4994 -0.9345,-2.6755 -0.8024,0.6659 -2.9507,1.0676 -4.7742,0.8925 -2.9788,-0.2859 -3.294,-0.6133 -3.1054,-3.226 0.1154,-1.5994 1.2817,-5.1994 2.5917,-7.99998 6.2695,-13.4036 6.3217,-13.605 4.0009,-15.4401 -3.6429,-2.8804 -3.6173,-5.4125 0.1539,-15.1774 3.8474,-9.9619 4.3728,-13.7192 2.0436,-14.613 -2.395,-0.9191 -1.8616,-7.829 1,-12.9547 2.8723,-5.14477 2.9865,-6.17967 0.9755,-8.83807 -1.4389,-1.9021 -1.4949,-1.8999 -3.7182,0.1447 -2.6404,2.4281 -9.6781,6.28637 -11.4668,6.28637 -0.6815,0 -1.9303,1.3367 -2.7751,2.9704 -1.6944,3.2766 -4.2909,5.0296 -7.4496,5.0296 -1.1362,0 -2.9658,0.9 -4.0658,2 -4.0198,4.0199 -12,1.6009 -12,-3.6376 0,-1.089 -0.7032,-2.8536 -1.5628,-3.9212 -1.2751,-1.5838 -1.6708,-1.6744 -2.1497,-0.4921 -0.3228,0.797 -2.5445,3.4348 -4.9372,5.8618 -4.7861,4.8548 -4.8445,5.0102 -3.2233,8.5684 1.7899,3.9284 0.3301,7.3469 -4.1031,9.6085 -4.9294,2.5148 -6.685,2.5162 -10.798,0.01 -1.9194,-1.1703 -5.037,-1.9963 -7.5344,-1.9963 -3.6419,0 -4.5092,-0.4215 -5.9759,-2.9043 -0.9435,-1.5988 -1.7156,-3.4823 -1.7156,-4.187 0,-0.7047 -0.93,-2.2713 -2.0668,-3.4813 l -2.0668,-2.2 -4.9332,4.9332 c -2.7132,2.7132 -4.9332,5.3141 -4.9332,5.7798 0,0.4656 -1.3055,2.2442 -2.9012,3.9523 -2.5019,2.6783 -3.5936,3.1058 -7.9319,3.1058 -4.4115,0 -5.2852,-0.3575 -7.0988,-2.9044 -1.1374,-1.5974 -2.0681,-3.6224 -2.0681,-4.5 0,-0.8775 -0.45,-1.5956 -1,-1.5956 -0.55,0 -1,0.8743 -1,1.9428 0,3.1003 -3.9786,8.9948 -7.1933,10.6572 -5.8733,3.0372 -16.212,-1.6879 -19.9145,-9.1015 -2.4124,-4.8303 -3.3121,-5.2518 -6.3333,-2.9667 -4.1167,3.1137 -13.5589,0.6542 -13.5589,-3.5318 0,-2.3279 -1.8969,-0.7458 -2.5229,2.1043 -0.884,4.0248 -3.9783,10.7986 -6.2156,13.6065 -0.9688,1.216 -3.4375,2.9047 -5.486,3.7528 l -3.7246,1.542 -4.0254,-5.0926 c -2.214,-2.8009 -4.0255,-5.6574 -4.0255,-6.3478 0,-0.6904 -0.946,-2.1114 -2.1023,-3.1579 -1.1564,-1.0464 -2.7429,-3.1411 -3.5257,-4.6549 -1.7276,-3.3407 -2.5906,-3.4523 -3.8848,-0.5024 -1.3353,3.0435 -5.2719,3.5023 -7.142,0.8325 -0.8022,-1.1454 -2.2248,-2.0825 -3.1613,-2.0825 -0.9365,0 -2.2648,-0.9 -2.9518,-2 -0.687,-1.1 -2.1131,-2 -3.1691,-2 -1.0561,0 -2.6238,-0.7036 -3.4839,-1.5637 -2.2329,-2.2329 -3.5791,-0.9163 -3.5791,3.5006 0,6.7231 -5.5377,16.0631 -9.5239,16.0631 -1.4508,0 -5.4343,-3.3438 -14.8842,-12.4937 -5.9489,-5.7602 -14.8613,-12.5063 -16.5223,-12.5063 -0.9216,0 -3.5757,1.3974 -5.8982,3.1054 -5.9353,4.3649 -9.8677,4.3639 -12.8505,0 -2.6785,-3.9216 -2.9414,-6.759 -0.8411,-9.0798 1.3074,-1.44457 1.3008,-1.89067 -0.057,-3.82867 -0.8451,-1.2067 -2.411,-2.1939 -3.4798,-2.1939 -1.9807,0 -2.4414,2.159 -1.9739,9.24997 0.1499,2.2722 -0.2274,2.75 -2.1715,2.75 -4.0267,0 -6.6123,-2.5614 -6.5024,-6.44127 0.056,-1.9778 -0.6303,-4.2712 -1.5986,-5.3411 -0.9333,-1.0313 -1.7273,-2.7396 -1.7645,-3.7963 -0.061,-1.724 -0.1781,-1.6925 -1.143,0.3067 -1.0096,2.0917 -4.2816,3.9401 -6.1045,3.4485 -0.4483,-0.121 -2.0508,0.66 -3.561,1.7353 -5.1597,3.6741 -7.4948,3.6127 -13.4708,-0.354 -3.007,-1.9958 -6.0141,-4.2878 -6.6826,-5.0933 -0.6684,-0.8054 -2.0603,-1.4645 -3.0929,-1.4645 -1.0327,0 -1.8776,-0.4095 -1.8776,-0.9102 0,-2.1799 -8.3419,-11.2058 -11.6242,-12.5772 -3.52,-1.4708 -3.6383,-1.4431 -6.3823,1.4945 -3.4951,3.7415 -4.8947,3.7492 -8.4421,0.047 -2.3142,-2.4156 -2.7091,-3.515 -2.1917,-6.1021 0.4714,-2.3567 0.072,-3.9528 -1.5781,-6.3036 -3.4832,-4.963 -5.2816,-4.8514 -5.2816,0.3277 0,2.3557 -0.5048,3.5763 -1.5667,3.788 -2.4199,0.4825 -6.9356,-3.6249 -8.977,-8.1653 -1.0135,-2.2541 -2.7722,-5.2234 -3.9082,-6.5984 l -2.0655,-2.5 0.621,4.1534 c 0.8426,5.6341 -1.6422,7.2906 -10.3382,6.892 -5.135,-0.2354 -6.5696,-0.6995 -8.1338,-2.6312 l -1.8992,-2.3455 -4.6711,3.8276 c -4.0958,3.3562 -4.5942,4.1772 -4.0475,6.6665 0.7979,3.6328 -0.3447,11.3237 -2.0233,13.6194 -0.8565,1.1713 -2.6169,1.7724 -5.1906,1.7724 l -3.8946,0 0.4149,5.7363 c 0.5901,8.1583 -0.1741,10.3345 -4.0162,11.43637 -2.5972,0.7449 -3.3709,1.6007 -3.9334,4.3511 -0.3851,1.8832 -1.4969,4.0065 -2.4706,4.7185 -2.059,1.5055 -2.399,3.1736 -2.6873,13.1859 -0.1665,5.7797 -0.5919,7.6237 -1.9592,8.4927 -1.3011,0.8268 -2.2575,0.7908 -3.75,-0.1413 -1.7135,-1.0701 -2.0255,-0.9966 -2.1558,0.5073 -0.084,0.9672 -0.213,2.2085 -0.2873,2.7585 -0.074,0.55 -1.5807,4.0387 -3.3477,7.7527 -1.767,3.7139 -3.2127,7.1463 -3.2127,7.6275 0,0.4812 -0.6735,1.4339 -1.4968,2.1172 -4.3209,3.586 -6.6442,27.29508 -4.361,44.50258 1.8158,13.6846 1.2384,20.0171 -2.9742,32.622 -5.9094,17.682 -6.999,19.7557 -10.7507,20.4595 -1.7637,0.3309 -4.1245,0.1104 -5.2462,-0.49 -3.2436,-1.7359 -3.4068,-1.4366 -2.8124,5.1585 0.6661,7.3917 -2.064,14.75 -5.4726,14.75 -1.7098,0 -4.0324,-3.4641 -4.3023,-6.4167 -0.046,-0.5041 -0.6196,-1.0953 -1.2746,-1.3136 -0.6779,-0.226 -1.6996,1.3013 -2.3722,3.5463 -1.0436,3.4833 -0.8755,4.8617 1.4408,11.817 2.9963,8.9971 3.3543,13.8721 1.0827,14.7438 -2.145,0.8231 -5.4194,-1.4224 -6.1244,-4.2 -1.943,-7.6556 -3.736,11.1727 -1.8721,19.6591 0.3598,1.638 0.027,3.4777 -0.8439,4.669 -1.4236,1.9469 -1.4755,1.9446 -5.3574,-0.2371 l -3.9199,-2.2031 -3.482,3.7176 c -7.0279,7.5035 -11.1287,14.9162 -13.7995,24.9441 -1.3519,5.076 -7.6483,12.6454 -10.8977,13.101 -1.2843,0.18 -3.084,-0.27 -3.9993,-1 -5.5519,-4.4281 -7.4863,-4.3397 -12.0613,0.5518 -1.3184,1.4095 -3.8972,3.0578 -5.7306,3.6629 -2.636,0.87 -3.5413,1.8716 -4.3262,4.7863 -1.4662,5.4453 -5.8828,14.1717 -7.4834,14.7859 -0.7668,0.2942 -2.6135,2.2944 -4.1038,4.4449 -4.2262,6.0984 -15.7911,11.5758 -13.8698,6.569 0.342,-0.8913 -0.2408,-1.7003 -1.5168,-2.1052 -1.1398,-0.3618 -2.0724,-0.9914 -2.0724,-1.3993 0,-0.4078 -0.6415,-1.6149 -1.4257,-2.6826 -1.3928,-1.8964 -1.4908,-1.8808 -4.25,0.6733 -3.4334,3.1782 -6.6933,4.076 -10.0986,2.7813 -3.4502,-1.3118 -4.1724,0.1247 -2.8869,5.7421 1.1543,5.0446 -0.1105,6.9024 -3.8388,5.6385 -1.1,-0.3729 -3.125,-0.584 -4.5,-0.469 -1.375,0.1149 -4.6771,0.3178 -7.3381,0.4508 -10.3533,0.5176 -11.5196,9.422 -3.5027,26.7419 1.1456,2.475 2.9799,6.436 4.0763,8.8022 1.0964,2.3662 1.7608,4.5349 1.4764,4.8193 -0.2845,0.2844 1.206,4.1984 3.312,8.6978 2.106,4.4994 4.3772,10.4307 5.047,13.1807 0.6698,2.75 1.5995,5.492 2.0659,6.0934 0.8587,1.1069 5.2654,9.3412 11.5905,21.6576 1.9069,3.7131 3.8819,7.0074 4.3889,7.3208 0.507,0.3134 2.0849,2.9004 3.5063,5.749 1.4215,2.8485 4.2042,6.8667 6.1839,8.9292 1.9798,2.0625 3.2454,3.75 2.8126,3.75 -0.4329,0 0.5409,1.6875 2.1639,3.75 1.6231,2.0625 3.8727,5.55 4.9993,7.75 2.8724,5.6092 8.3358,10.5702 18.2178,16.5425 4.675,2.8254 9.4,5.9459 10.5,6.9344 1.1,0.9885 4.5978,3.2468 7.7728,5.0185 3.1751,1.7717 6.2817,4.185 6.9037,5.3629 0.6219,1.1779 3.0549,4.2925 5.4064,6.9212 3.3486,3.7431 4.9507,6.876 7.3889,14.4488 1.7124,5.3181 3.6396,10.3034 4.2828,11.0785 0.6433,0.775 1.1866,3.2264 1.2075,5.4474 0.036,3.8518 0.2902,4.1747 5.5006,6.9932 8.825,4.7739 17.2222,11.1963 23.0729,17.6468 9.3806,10.3424 11.9644,13.78 11.9644,15.9184 0,1.1381 0.4865,2.37 1.0811,2.7375 1.3617,0.8416 0.2981,5.3562 -1.814,7.6999 -1.9224,2.1333 -6.1976,2.2698 -8.8259,0.2818 -2.7782,-2.1013 -3.0506,-1.9651 -4.7965,2.3983 -1.7043,4.2594 -3.9434,6.066 -6.6431,5.36 -0.943,-0.2465 -3.9663,0.9373 -6.7186,2.6308 -2.7523,1.6935 -5.7153,3.0791 -6.5845,3.0791 -0.8693,0 -1.8168,0.3824 -2.1057,0.8499 -0.9069,1.4674 -17.6629,2.3368 -19.2735,1.0001 -0.783,-0.6498 -3.7626,-1.3615 -6.6214,-1.5814 -13.0797,-1.0065 -19.1984,-1.3164 -33.0194,-1.6725 -13.0269,-0.3356 -15.0853,-0.6206 -17,-2.3537 -1.1981,-1.0845 -4.3262,-3.2064 -6.9513,-4.7155 -2.6251,-1.509 -5.283,-3.7074 -5.9066,-4.8853 -0.6235,-1.1779 -4.1379,-5.0839 -7.8098,-8.6799 -7.0796,-6.9336 -8.0108,-9.0264 -8.0108,-18.0049 0,-8.7223 -1.13,-9.4808 -8.1479,-5.4688 -4.843,2.7685 -8.2072,3.0851 -14.0819,1.325 -2.5692,-0.7698 -4.271,-2 -4.8413,-3.5 -0.4836,-1.2722 -1.4819,-2.313 -2.2183,-2.313 -0.7364,0 -2.8753,-2.0506 -4.7532,-4.5569 -2.2393,-2.9887 -3.9859,-4.4074 -5.0751,-4.1226 -2.8449,0.744 -4.2659,-1.0143 -4.3763,-5.4153 -0.096,-3.8437 -0.4267,-4.3722 -3.5561,-5.6903 -6.1175,-2.5768 -6.4452,-2.8696 -6.7614,-6.0415 -0.3389,-3.3993 -3.8153,-6.5397 -8.5569,-7.7297 -3.9092,-0.9812 -6.0121,-4.6298 -5.308,-9.2094 0.6407,-4.1675 -1.3053,-7.4589 -5.1271,-8.6719 -2.4198,-0.7681 -3.6819,-4.2428 -2.9436,-8.1047 0.2634,-1.378 0.089,-2.7463 -0.387,-3.0406 -0.4762,-0.2943 -0.8659,-1.3535 -0.8659,-2.3537 0,-1.0002 -0.6188,-2.3321 -1.3752,-2.9598 -0.7563,-0.6278 -1.6692,-2.9801 -2.0286,-5.2275 -0.3593,-2.2473 -1.3683,-5.4685 -2.242,-7.1581 -1.3324,-2.5765 -1.404,-3.8904 -0.4439,-8.1451 1.5884,-7.039 1.0152,-9.4956 -3.2295,-13.8411 -2.9815,-3.0523 -3.6808,-4.5172 -3.6808,-7.711 0,-2.5409 -0.6629,-4.579 -1.8644,-5.7318 -3.0394,-2.9165 -4.1076,-5.809 -4.0414,-10.9436 0.034,-2.665 -0.6429,-7.0954 -1.505,-9.8454 -0.8621,-2.75 -1.5724,-6.4569 -1.5783,-8.2375 -0.01,-2.6524 -0.6936,-3.6684 -3.7892,-5.6225 -3.0702,-1.9382 -3.9977,-3.2992 -4.9495,-7.2626 -0.6442,-2.6826 -1.0624,-6.0024 -0.9293,-7.3774 0.133,-1.375 -0.3711,-4.75 -1.1203,-7.5 -0.7492,-2.75 -1.8069,-6.8 -2.3505,-9 -0.5435,-2.2 -2.0871,-5.9692 -3.4302,-8.376 -1.343,-2.4067 -2.4419,-4.9082 -2.4419,-5.5588 0,-0.6506 -0.6152,-2.0243 -1.3672,-3.0527 -1.321,-1.8066 -1.5556,-1.8105 -6.9372,-0.1178 -4.0065,1.2602 -6.3037,2.7139 -8.1837,5.1786 -2.9324,3.8446 -6.4102,4.5316 -7.2221,1.4267 -0.6304,-2.4105 -1.1105,-2.4722 -3.3641,-0.4327 -0.9525,0.862 -3.9129,1.7051 -6.5787,1.8736 -2.6658,0.1685 -6.3041,0.9099 -8.0849,1.6474 -3.1365,1.299 -3.3602,1.2218 -7.135,-2.4642 l -3.897,-3.8053 -1.865,2.8214 c -1.0258,1.5518 -4.6276,5.53 -8.0041,8.8406 -3.3765,3.3106 -7.298,8.3353 -8.7146,11.1661 -2.7563,5.508 -5.3241,15.6351 -6.0833,23.9918 -0.2567,2.8263 -1.4171,7.9595 -2.5785,11.4072 -1.6529,4.9065 -2.1011,8.6275 -2.0629,17.1248 0.027,5.9709 -0.5119,13.4376 -1.1974,16.5927 -0.6854,3.1551 -1.0145,8.2116 -0.7313,11.2366 0.2832,3.025 0.1797,7.075 -0.2301,9 -1.2889,6.0554 -0.049,34.1979 1.7921,40.6554 2.7075,9.4996 6.7158,15.5367 13.9192,20.9647 3.5618,2.684 6.4872,5.3406 6.5009,5.9037 0.014,0.5631 2.6583,3.7486 5.8768,7.0788 3.544,3.667 6.4694,7.7987 7.4176,10.4762 1.9487,5.5028 4.7366,17.6689 4.7331,20.6544 0,1.6929 1.2675,2.8722 5.2474,4.8748 2.8875,1.453 7.3165,4.498 9.8421,6.7669 2.5256,2.2688 7.5278,6.6867 11.116,9.8175 5.2149,4.5501 6.8571,6.7106 8.1839,10.7672 1.8057,5.5204 1.196,8.1202 -2.3491,10.0175 -2.7929,1.4946 -3.3765,1.3357 -7.6554,-2.0844 -3.4989,-2.7966 -7.0339,-4.7371 -8.3875,-4.6039 -0.275,0.027 -1.5893,-0.5339 -2.9208,-1.2464 -2.0457,-1.0949 -2.5941,-1.0586 -3.5392,0.2338 -0.6151,0.8412 -2.2257,1.6857 -3.5792,1.8766 -2.2874,0.3227 -2.1923,0.4758 1.3496,2.1728 6.3369,3.036 6.1966,6.2035 -0.3104,7.0029 -1.925,0.2365 -4.625,0.8804 -6,1.4309 -1.375,0.5506 -2.725,0.9837 -3,0.9626 -2.2239,-0.1707 -8.9128,1.7818 -10.9662,3.2012 -3.9699,2.744 -5.8862,3.2374 -16.0338,4.1277 -12.144,1.0656 -18.4826,2.4463 -22.7272,4.9507 -1.8629,1.0991 -3.6989,1.9152 -4.0799,1.8134 -0.3811,-0.1017 -3.152,-0.3536 -6.157596,-0.5597 z M 999.76165,128.23534 c -1.0677,-0.80751 -2.6427,-1.45389 -3.5,-1.4364 -1.2463,0.0254 -1.1696,0.32623 0.3822,1.5 1.0677,0.80751 2.6427,1.45389 3.50005,1.4364 1.2463,-0.0254 1.1696,-0.32623 -0.38225,-1.5 z"
     id="path2987"
     inkscape:connector-curvature="0" />
</svg>
