<?xml version="1.0" encoding="UTF-8" standalone="no"?>
<!-- Created with Inkscape (http://www.inkscape.org/) -->

<svg
   xmlns:dc="http://purl.org/dc/elements/1.1/"
   xmlns:cc="http://creativecommons.org/ns#"
   xmlns:rdf="http://www.w3.org/1999/02/22-rdf-syntax-ns#"
   xmlns:svg="http://www.w3.org/2000/svg"
   xmlns="http://www.w3.org/2000/svg"
   xmlns:sodipodi="http://sodipodi.sourceforge.net/DTD/sodipodi-0.dtd"
   xmlns:inkscape="http://www.inkscape.org/namespaces/inkscape"
   id="svg2"
   version="1.1"
   inkscape:version="0.48.2 r9819"
   width="1423.4342"
   height="553.95612"
   sodipodi:docname="Armadillo_(PSF)d.png">
  <metadata
     id="metadata8">
    <rdf:RDF>
      <cc:Work
         rdf:about="">
        <dc:format>image/svg+xml</dc:format>
        <dc:type
           rdf:resource="http://purl.org/dc/dcmitype/StillImage" />
        <dc:title></dc:title>
      </cc:Work>
    </rdf:RDF>
  </metadata>
  <defs
     id="defs6" />
  <sodipodi:namedview
     pagecolor="#ffffff"
     bordercolor="#666666"
     borderopacity="1"
     objecttolerance="10"
     gridtolerance="10"
     guidetolerance="10"
     inkscape:pageopacity="0"
     inkscape:pageshadow="2"
     inkscape:window-width="1920"
     inkscape:window-height="1176"
     id="namedview4"
     showgrid="false"
     fit-margin-top="0"
     fit-margin-left="0"
     fit-margin-right="0"
     fit-margin-bottom="0"
     inkscape:zoom="1"
     inkscape:cx="689.57266"
     inkscape:cy="278.97955"
     inkscape:window-x="0"
     inkscape:window-y="24"
     inkscape:window-maximized="1"
     inkscape:current-layer="svg2" />
  <path
     style="fill:#000000"
     d="m 705.13686,551.08126 c -1.6382,-2.44524 -2.2533,-2.72832 -4,-1.841 -4.8136,2.44515 -5.6502,2.73629 -7.8635,2.73629 -1.2808,0 -3.6213,-1.35145 -5.207,-3.00659 -1.9329,-2.01753 -3.2117,-2.67546 -3.8871,-2 -0.5536,0.55362 -2.465,1.00659 -4.2476,1.00659 -1.7825,0 -3.5191,0.45 -3.859,1 -0.3399,0.55 -1.9149,1 -3.5,1 -1.5851,0 -3.134,0.40784 -3.4421,0.90632 -0.3081,0.49847 -2.8636,1.22312 -5.679,1.61034 -4.6687,0.64211 -5.3283,0.47828 -7.4989,-1.86267 -3.3252,-3.58603 -2.9864,-5.49538 1.8808,-10.60014 2.5583,-2.68322 3.4462,-4.11404 2.2392,-3.60857 -1.1,0.46067 -3.243,1.05082 -4.7622,1.31145 -1.5193,0.26062 -3.0083,0.87198 -3.3091,1.35857 -0.9833,1.59101 -12.0535,1.04166 -13.4729,-0.66858 -2.3592,-2.8427 -1.5623,-7.44648 1.7853,-10.3136 6.2512,-5.35397 7.3035,-6.13312 8.2839,-6.13312 0.5512,0 1.7835,-0.40075 2.7386,-0.89056 0.955,-0.48981 3.9864,-1.893 6.7364,-3.11821 2.75,-1.22521 6.73,-3.07445 8.8445,-4.10944 2.1145,-1.03498 4.883,-1.88179 6.1522,-1.88179 1.6482,0 2.597,-0.83011 3.3203,-2.9049 1.0555,-3.02787 11.6916,-11.0951 14.6281,-11.0951 0.8552,0 1.5549,-0.45 1.5549,-1 0,-0.55 1.3234,-1 2.941,-1 1.6175,0 3.2191,-0.45 3.559,-1 0.3399,-0.55 1.9278,-1 3.5286,-1 4.2355,0 8.6435,-2.83152 17.5609,-11.28048 4.3508,-4.12223 9.5573,-9.00798 11.57,-10.85724 2.0599,-1.89252 3.8981,-4.67368 4.2053,-6.36228 0.3001,-1.65 0.9411,-5.11541 1.4244,-7.7009 0.4834,-2.5855 0.6719,-6.11068 0.419,-7.83374 -0.385,-2.62305 -0.8054,-3.04007 -2.584,-2.56275 -1.1683,0.31354 -4.2617,0.57623 -6.8742,0.58374 -3.5495,0.0102 -4.75,0.39276 -4.75,1.51365 0,0.825 0.3975,1.5 0.8834,1.5 0.4858,0 1.1111,0.87094 1.3895,1.93542 0.5796,2.21664 -2.0219,3.71559 -3.6401,2.09736 -0.568,-0.56803 -1.7303,-1.04279 -2.5828,-1.05502 -0.8525,-0.0122 -2.675,-0.90222 -4.05,-1.97776 -1.7216,-1.34663 -4.0568,-1.95553 -7.5,-1.95553 l -5,0 2.3938,1.84055 c 1.3365,1.02756 2.0834,2.34287 1.691,2.97777 -1.6578,2.68243 -8.8462,0.16293 -12.3904,-4.34281 -1.7036,-2.16575 -2.782,-2.51998 -7.6716,-2.51998 -6.9245,0 -6.986,1.45591 -0.2037,4.82584 3.2796,1.62959 4.6809,2.93517 4.6809,4.36129 0,1.80792 -0.4192,1.95842 -3.75,1.34634 -2.0625,-0.379 -4.1775,-1.10408 -4.7,-1.61129 -0.5225,-0.5072 -1.6475,-0.92683 -2.5,-0.93252 -0.8525,-0.006 -2.348,-1.01818 -3.3234,-2.25 -5.271,-6.65696 -5.0311,-6.50494 -9.4766,-6.0063 -2.3375,0.26219 -4.25,0.87485 -4.25,1.36146 0,0.48661 2.4432,2.50695 5.4293,4.48963 5.6288,3.73731 7.3308,6.05549 5.6671,7.71911 -0.6254,0.62549 -2.2529,0.21162 -4.5899,-1.16722 -1.9914,-1.17499 -4.1576,-2.1484 -4.8137,-2.16314 -0.656,-0.0147 -3.6155,-2.26474 -6.5765,-5 -2.9611,-2.73526 -5.8861,-5.02652 -6.5,-5.09168 -1.4838,-0.15749 -4.0245,0.21973 -4.4854,0.66593 -0.5668,0.54884 2.1485,2.98089 4.193,3.75548 1.0561,0.40011 1.6703,1.42903 1.459,2.44405 -0.5351,2.57059 -4.1479,1.8078 -9.4621,-1.99776 -2.4955,-1.78707 -5.4265,-3.7596 -6.5132,-4.3834 -1.0868,-0.62381 -2.3784,-1.53662 -2.8703,-2.02848 -0.4918,-0.49186 -2.6197,-0.72975 -4.7286,-0.52863 l -3.8343,0.36566 3.3128,3.31281 c 4.0997,4.09968 4.2946,5.79029 0.5628,4.8805 -2.5766,-0.62815 -4.3658,-1.75053 -14.9058,-9.35028 -3.7729,-2.72035 -4.3907,-2.87469 -6.7035,-1.67475 -2.3164,1.20174 -2.405,1.46447 -0.9759,2.89359 0.8645,0.86451 1.267,2.06502 0.8945,2.6678 -0.7738,1.25199 -3.5593,1.49583 -3.5593,0.31157 0,-1.49918 -6.5268,-4.71985 -11,-5.42802 -2.475,-0.39183 -6.3,-1.00433 -8.5,-1.36112 l -4,-0.6487 3.3521,3.04145 c 3.3248,3.01677 3.505,5.18078 0.4312,5.18078 -0.8792,0 -3.8912,-1.76879 -6.6934,-3.93064 -6.3701,-4.91448 -9.1172,-5.96625 -15.4549,-5.91716 -4.6941,0.0364 -4.9526,0.16705 -3.8432,1.94339 0.6541,1.04743 1.6863,1.90441 2.2938,1.90441 0.6074,0 1.9285,0.91063 2.9358,2.02363 1.379,1.52375 1.5476,2.30738 0.6826,3.17236 -1.402,1.40203 -6.4586,-1.06228 -12.2007,-5.94599 -2.4158,-2.05464 -4.8968,-3.25 -6.7456,-3.25 -1.6084,0 -3.2226,-0.29823 -3.5871,-0.66272 -0.3645,-0.3645 -2.127,-0.80706 -3.9167,-0.98347 l -3.2539,-0.32074 4.4564,3.97703 c 3.4374,3.0676 4.1852,4.24828 3.2702,5.16326 -1.4995,1.4995 -4.8534,-0.0928 -11.3654,-5.39579 -3.4584,-2.81635 -5.5576,-3.77757 -8.25,-3.77757 -1.9861,0 -3.6112,0.30555 -3.6112,0.679 0,0.37344 1.6124,2.15589 3.5831,3.961 3.6846,3.37496 3.8015,5.36 0.3157,5.36 -2.186,0 -2.4293,-0.15848 -8.8988,-5.79651 -3.9177,-3.41421 -5.3002,-3.99152 -10.6841,-4.46176 -3.4013,-0.29707 -6.4404,-0.28391 -6.7535,0.0292 -0.8128,0.81276 2.2681,5.27543 5.7663,8.35245 2.0352,1.79021 2.774,3.16645 2.3263,4.33316 -0.3608,0.94036 -1.0906,1.55981 -1.6216,1.37658 -0.5311,-0.18324 -4.7729,-3.82066 -9.4262,-8.08316 -7.6566,-7.01354 -8.8476,-7.75 -12.5339,-7.75 -2.2403,0 -4.0733,0.20455 -4.0733,0.45455 0,0.80952 5.0647,5.54545 5.9304,5.54545 1.4097,0 4.1338,4.84228 3.0879,5.48872 -1.463,0.90416 -6.8134,-2.22072 -11.9255,-6.96504 -4.3816,-4.06639 -7.0295,-4.91692 -9.8604,-3.16732 -0.6778,0.41892 -1.6935,0.47672 -2.257,0.12843 -0.5635,-0.34828 -0.086,1.03772 1.061,3.07999 3.218,5.72947 0.965,6.64064 -3.9,1.5772 -2.9427,-3.06276 -4.7663,-4.14198 -6.999,-4.14198 -1.6606,0 -3.3281,0.4996 -3.7055,1.11021 -0.4026,0.65137 -2.086,0.88304 -4.0733,0.56055 -3.3037,-0.53611 -3.3499,-0.49639 -1.8729,1.6123 0.8329,1.18907 1.5143,2.44942 1.5143,2.80077 0,1.17946 -5.4721,-0.34864 -8.2725,-2.31011 -2.1492,-1.5054 -3.6654,-1.79106 -6.7447,-1.27081 -3.5815,0.60513 -6.6439,2.49713 -4.0418,2.49713 0.5824,0 1.059,0.92757 1.059,2.06127 0,1.88757 -0.4003,2.00413 -4.75,1.38315 -2.6125,-0.37297 -5.1775,-1.07554 -5.7,-1.56127 -0.5225,-0.48573 -2.6179,-0.88315 -4.6564,-0.88315 -3.158,0 -3.6323,0.28307 -3.206,1.91321 0.4624,1.7685 -0.093,1.9077 -7.3437,1.84028 -4.3141,-0.0401 -8.8949,0.26648 -10.1794,0.68132 l -2.3355,0.75425 2.1903,2.33144 c 4.0328,4.29272 0.5192,5.87115 -5.5193,2.4795 -3.563,-2.0012 -7.5152,-2.66143 -7.4827,-1.25 0.029,1.26717 4.356,4.9246 6.7016,5.6648 2.0293,0.64041 4.2585,5.50742 4.2755,9.3352 0.01,1.74123 -3.487,1.5663 -4.9944,-0.25 -0.6847,-0.825 -1.7806,-1.5 -2.4353,-1.5 -0.6548,0 -2.4839,-1.35 -4.0647,-3 -1.5808,-1.65 -3.24,-3 -3.6871,-3 -1.4901,0 -0.8382,1.8985 1.3526,3.9396 1.1911,1.10962 2.2298,2.88961 2.3084,3.95552 0.079,1.06592 0.6319,2.53807 1.2298,3.27145 1.9068,2.33885 6.4732,10.98989 6.0332,11.4299 -0.5764,0.57638 -9.3764,-2.44654 -13.9827,-4.80326 -3.5249,-1.80345 -5.7542,-1.74007 -5.7542,0.16359 0,0.46132 1.9125,2.97332 4.25,5.58222 6.4384,7.18592 7.1796,8.43142 5.8241,9.78689 -0.7465,0.74651 -1.4088,0.80534 -1.8657,0.16573 -0.9312,-1.30354 -11.2091,-6.47435 -11.206,-5.63775 10e-4,0.35536 1.3846,2.22111 3.0741,4.14611 4.4807,5.10536 6.2862,7.97061 5.511,8.74584 -0.3759,0.37588 -1.4493,0.12377 -2.3855,-0.56024 -0.9361,-0.68402 -2.4895,-1.50808 -3.452,-1.83126 -0.9625,-0.32318 -1.75,-1.04022 -1.75,-1.59342 0,-0.56816 -0.6527,-0.46413 -1.5,0.23908 -0.825,0.68469 -1.5,1.85132 -1.5,2.59251 0,0.74119 -1.35,2.34571 -3,3.56561 -1.9052,1.40857 -3.0297,3.15294 -3.0813,4.77994 -0.2175,6.85346 -11.7113,20.0428 -17.4785,20.0569 -1.8073,0.004 -7.9388,4.51591 -15.2775,11.24108 -2.9391,2.6934 -6.8842,4.76396 -9.077,4.76396 -2.8592,0 -4.0824,-2.18803 -4.1646,-7.45 -0.043,-2.7775 -0.306,-4.4875 -0.5834,-3.8 -0.2774,0.6875 -1.373,1.25 -2.4346,1.25 -1.0616,0 -2.7116,0.3975 -3.6667,0.88333 -0.955,0.48583 -3.0864,1.48703 -4.7364,2.22488 -1.65,0.73786 -4.2723,2.36561 -5.8274,3.61723 -1.555,1.25162 -4.6025,2.55953 -6.7721,2.90647 -2.1697,0.34694 -4.1864,1.02169 -4.4817,1.49944 -0.2952,0.47776 -1.6087,0.86865 -2.9188,0.86865 -1.3101,0 -2.6601,0.45 -3,1 -0.7115,1.15127 -8.4922,1.3797 -8.5153,0.25 -0.057,-2.80838 -1.7571,-3.17848 -5.7461,-1.25117 -2.2781,1.10064 -4.8122,2.00117 -5.6313,2.00117 -0.8191,0 -1.7674,0.45 -2.1073,1 -0.3399,0.55 -3.8967,1 -7.904,1 -5.9658,0 -7.6073,-0.35505 -9.0593,-1.9595 -1.7172,-1.89746 -1.6105,-2.16412 3.3696,-8.42279 2.8287,-3.55482 6.8194,-7.83296 8.8684,-9.50698 3.0835,-2.51928 3.376,-3.04945 1.6978,-3.0772 -1.1151,-0.0184 -3.0146,0.65786 -4.221,1.50288 -1.3652,0.95618 -4.9425,1.64026 -9.4725,1.81137 -7.6029,0.28718 -10.779,-0.51703 -10.779,-2.72933 0,-4.6962 9.6183,-15.06563 17.0075,-18.33561 2.4709,-1.09345 5.1675,-2.289 5.9925,-2.65677 0.825,-0.36776 4.2,-2.25958 7.5,-4.20405 3.3,-1.94447 6.7875,-3.78737 7.75,-4.09534 0.9625,-0.30797 1.75,-1.09246 1.75,-1.74331 0,-0.65085 0.5503,-1.7337 1.223,-2.40632 0.6726,-0.67262 1.0896,-2.77052 0.9266,-4.662 -0.2335,-2.71008 0.3181,-4.03004 2.6023,-6.22706 5.9414,-5.71482 10.8077,-9.26397 12.7481,-9.2977 1.1,-0.0191 3.125,-0.91475 4.5,-1.99029 1.375,-1.07554 3.1975,-1.96553 4.05,-1.97776 1.6534,-0.0237 3.95,-1.89721 3.95,-3.22224 0,-0.44 -1.125,-0.8 -2.5,-0.8 -1.375,0 -2.5,-0.45 -2.5,-1 0,-0.55 -0.5756,-1 -1.2792,-1 -0.7035,0 -2.9052,-1.57941 -4.8926,-3.5098 -2.3344,-2.26742 -4.1825,-3.29147 -5.2209,-2.89301 -0.884,0.33923 -1.6073,0.8141 -1.6073,1.05525 0,0.87252 4.9336,5.34756 5.8955,5.34756 1.4591,0 2.192,1.60841 1.525,3.34662 -0.3363,0.87628 -1.2966,1.30227 -2.2533,0.99956 -3.1279,-0.98974 -6.6647,-2.75788 -8.4172,-4.20804 -1.2558,-1.03916 -1.75,-1.10291 -1.75,-0.22574 0,2.53365 -8.6582,-1.26003 -9.5922,-4.20295 -0.5537,-1.74439 -0.802,-1.60556 -2.166,1.21071 -1.1606,2.39634 -1.2571,3.46456 -0.3912,4.33043 1.7201,1.72006 1.3852,5.7217 -0.5406,6.4607 -0.9436,0.36208 -1.8638,0.12738 -2.0834,-0.53138 -0.5808,-1.74245 -1.5816,-1.44234 -3.0543,0.91588 -1.1103,1.77776 -1.056,2.37519 0.3574,3.93699 1.9359,2.13914 1.1047,4.19614 -1.5214,3.76507 -1.61,-0.26428 -14.9427,9.40802 -15.8594,11.50536 -0.7544,1.72602 -8.1657,7.95788 -11.7461,9.87689 -2.0762,1.11277 -4.6238,3.10247 -5.6614,4.42155 -1.0376,1.31909 -2.4801,2.39835 -3.2056,2.39835 -0.7254,0 -1.5897,1.07876 -1.9207,2.39725 -0.5327,2.12262 -2.7506,3.96202 -10.0536,8.33801 -1.1338,0.67939 -3.0474,1.24189 -4.2525,1.25 -1.205,0.008 -2.4691,0.46474 -2.809,1.01474 -1.9816,3.20623 -7.1592,-3.77116 -6.266,-8.44396 0.4917,-2.57176 -1.4302,-3.66558 -2.734,-1.55604 -0.3399,0.55 -1.4877,1 -2.5505,1 -1.0629,0 -2.4946,0.9 -3.1816,2 -1.0574,1.69318 -2.332,2 -8.3084,2 -4.0952,0 -7.5555,0.49602 -8.2408,1.18126 -0.7189,0.71892 -4.0261,1.13032 -8.45,1.05112 -6.1316,-0.10978 -7.4833,-0.45102 -8.6407,-2.18126 -1.4635,-2.18801 -7.4729,-2.92011 -8.628,-1.05112 -0.3399,0.55 -2.5899,1 -5,1 -2.4101,0 -4.6601,0.45 -5,1 -0.3399,0.55 -1.4915,1 -2.559,1 -1.0676,0 -1.941,0.45 -1.941,1 0,1.42042 -10.3551,1.24491 -11.8,-0.2 -1.9137,-1.91372 -1.3993,-5.0654 1.3482,-8.26024 l 2.5458,-2.96025 -2.1674,-1.63488 c -2.1052,-1.58799 -2.1192,-1.73654 -0.4855,-5.17926 0.9251,-1.94941 2.8917,-4.62194 4.3704,-5.93895 9.6736,-8.61605 17.751,-14.82642 19.2836,-14.82642 0.9828,0 2.0394,-0.40868 2.3481,-0.90817 0.3088,-0.49949 2.8103,-1.48456 5.5591,-2.18905 2.7487,-0.70448 4.9977,-1.55662 4.9977,-1.89364 0,-0.33702 1.4771,-0.65463 3.2824,-0.70581 1.8053,-0.0512 4.8428,-0.94871 6.75,-1.99453 1.9072,-1.04582 5.4926,-2.48699 7.9676,-3.20261 2.475,-0.71561 5.2814,-1.70726 6.2364,-2.20365 0.9551,-0.4964 2.6856,-0.90254 3.8457,-0.90254 2.0306,0 8.0648,-3.59509 8.7512,-5.21388 0.1834,-0.43237 0.8626,-0.78612 1.5095,-0.78612 0.6469,0 1.721,-0.87249 2.3869,-1.93886 1.0951,-1.75353 0.9031,-1.9686 -2.0094,-2.25 -3.902,-0.377 -4.4597,-3.16658 -0.7203,-3.60274 1.375,-0.16038 3.4,-0.68515 4.5,-1.16617 1.1,-0.48101 3.3938,-1.44174 5.0974,-2.13496 3.8355,-1.56076 6.4021,-6.90727 3.3157,-6.90727 -1.0522,0 -1.9131,0.40077 -1.9131,0.89059 0,0.48983 -1.575,1.07447 -3.5,1.2992 -2.7113,0.31653 -3.5,0.0482 -3.5,-1.19059 0,-0.87956 0.5625,-2.18581 1.25,-2.90277 1.0058,-1.04893 0.882,-1.52752 -0.634,-2.45 -1.0361,-0.63054 -3.1261,-2.15893 -4.6443,-3.39643 -3.428,-2.79413 -4.5868,-2.82988 -5.2842,-0.16303 -0.3428,1.31089 -1.1928,1.96167 -2.2857,1.75 -1.9914,-0.38566 -5.2003,-5.36788 -5.3697,-8.33697 -0.063,-1.1 -1.9702,-4.025 -4.2388,-6.5 -2.2686,-2.475 -3.7564,-3.6 -3.3063,-2.5 1.2321,3.01091 1.1601,6.75392 -0.1386,7.2029 -1.2307,0.42553 -4.3273,-4.95185 -4.3802,-7.60654 -0.017,-0.878 -0.595,-2.33659 -1.2834,-3.24131 -1.005,-1.3208 -1.5745,-1.40888 -2.8899,-0.44699 -0.9011,0.65887 -1.5611,2.0741 -1.4666,3.14494 0.2738,3.10488 -3.7448,2.57105 -4.163,-0.553 -0.4414,-3.29711 -2.1653,-5.09564 -2.1653,-2.25902 0,1.17754 -0.4932,2.44583 -1.0961,2.81842 -0.6029,0.3726 -0.8818,2.08665 -0.6197,3.80902 0.492,3.23465 -0.6681,6.63158 -2.2648,6.63158 -0.5007,0 -1.4973,-1.20841 -2.2148,-2.68536 -0.7189,-1.47968 -2.514,-3.00553 -3.9983,-3.39846 l -2.6937,-0.71309 0.1937,7.14846 c 0.189,6.97594 0.1345,7.14845 -2.2612,7.14845 -1.7782,0 -2.6345,-0.68917 -3.1064,-2.5 l -0.6516,-2.5 -0.7519,2.75 c -0.4136,1.5125 -1.4048,2.75 -2.2026,2.75 -0.7979,0 -1.1567,0.47558 -0.7975,1.05684 1.1786,1.90694 -0.4729,5.94316 -2.4317,5.94316 -2.5142,0 -4.4563,-2.54257 -3.815,-4.99467 0.2884,-1.10293 0.1165,-2.00533 -0.382,-2.00533 -0.4985,0 -0.9064,1.0699 -0.9064,2.37756 0,1.30765 -0.675,2.93775 -1.5,3.62244 -0.825,0.68469 -1.5,1.84726 -1.5,2.58349 0,1.8911 -4.0279,5.41651 -6.1886,5.41651 -0.9962,0 -1.8114,-0.54643 -1.8114,-1.21429 0,-0.77217 -0.6059,-0.6084 -1.6641,0.44982 -1.3955,1.39548 -1.4507,1.92116 -0.3424,3.25666 1.9773,2.38249 -0.1212,4.06416 -2.9199,2.33991 -1.9323,-1.19045 -2.3678,-1.06626 -4.0956,1.1679 -1.0635,1.375 -1.943496,3.48594 -1.955796,4.69098 -0.026,2.5914 -1.9263,4.08214 -2.9963,2.35085 -0.51,-0.82505 -1.8906,0.17585 -4.3065,3.12188 -1.9558,2.38496 -5.4009,5.68629 -7.6559,7.33629 -2.2549,1.65 -5.4921,5.39278 -7.1936,8.31729 -1.7015,2.92451 -4.0743,5.69013 -5.2729,6.14583 -1.1986,0.45569 -2.7783,1.55041 -3.5105,2.4327 -0.7323,0.8823 -1.9513,1.60418 -2.7089,1.60418 -0.7577,0 -1.3776,0.45 -1.3776,1 0,0.55 -0.718,1 -1.5956,1 -0.8776,0 -2.7901,0.83719 -4.25,1.86041 -1.4599,1.02323 -4.1177,1.89316 -5.9062,1.93317 -1.7884,0.04 -4.4884,0.93418 -6,1.98704 -2.9367,2.04556 -13.0093,4.41491 -13.7403,3.2321 -0.6804,-1.10092 -14.3407,-1.09224 -15.0217,0.01 -0.9338,1.51105 -7.8219,1.15582 -11.3078,-0.58318 -1.72094,-0.8585 -4.05287,-2.85843 -5.1821,-4.44429 -1.82868004,-2.56815 -1.93346004,-3.40878 -0.95839004,-7.68909 0.60212004,-2.64314 1.51491004,-5.5871 2.02842004,-6.54214 0.51352,-0.95549 0.93367,-2.3573 0.93367,-3.11559 0,-0.75829 0.82421,-2.4519 1.83157,-3.76357 1.91993,-2.49986 5.20763,-8.63646 6.90313,-12.88486 5.3981,-13.5259 5.6058,-13.9845 9.3593,-20.66742 1.0483,-1.86638 1.906,-4.04104 1.906,-4.83258 0,-0.79154 0.8446,-2.94298 1.877,-4.78097 1.0323,-1.83799 2.1282,-5.11418 2.4353,-7.28041 0.6035,-4.25724 1.9506,-10.66466 3.5299,-16.79031 0.5462,-2.11843 1.7211,-10.89343 2.611,-19.5 0.8899,-8.60657 2.0519,-17.56727 2.5824,-19.91266 0.5304,-2.34539 0.9644,-5.80634 0.9644,-7.69098 0,-1.88465 0.45,-3.70475 1,-4.04467 0.55,-0.33992 1,-1.91492 1,-3.5 0,-1.58508 0.45,-3.16008 1,-3.5 0.55,-0.33992 1,-1.85695 1,-3.37119 0,-1.51423 0.9,-4.61594 2,-6.89267 1.1,-2.27674 2,-4.97127 2,-5.98783 0,-1.01657 0.3718,-2.27581 0.8261,-2.79831 0.4544,-0.5225 1.4065,-2.975 2.1159,-5.45 0.7093,-2.475 2.1946,-6.525 3.3005,-9 1.106,-2.475 2.5001,-5.625 3.0981,-7 0.5981,-1.375 1.891,-3.69447 2.8734,-5.15437 0.9823,-1.4599 1.786,-3.14117 1.786,-3.73614 0,-1.34063 10.159,-18.48405 11.2253,-18.94282 0.4261,-0.18334 0.7747,-0.79589 0.7747,-1.36122 0,-1.20685 6.4809,-9.21955 13.1689,-16.2814 2.5919,-2.73678 4.6267,-5.0502 4.5218,-5.14093 -0.1049,-0.0907 -1.9907,-0.39703 -4.1907,-0.68064 -6.2944,-0.81145 -10.4947,-1.8849 -11.0798,-2.83164 -0.296,-0.47896 -1.7492,-0.87252 -3.2292,-0.87458 -1.4801,-0.002 -4.2385,-1.01455 -6.1299,-2.25 -7.6401,-4.99042 -10.6584,-6.82262 -12.6441,-7.67531 -2.5374,-1.08959 -9.179,-9.11229 -12.0626,-14.57095 -1.1621,-2.2 -2.6653,-6.475 -3.3403,-9.5 -0.6751,-3.025 -1.6453,-6.30683 -2.156,-7.29296 -0.5108,-0.98613 -1.0055,-8.41113 -1.0994,-16.5 -0.1829,-15.76824 -0.085,-16.13268 6.564,-24.45704 1.9508,-2.44239 7.3221,-2.29167 8.9094,0.25 0.6869,1.1 1.6096,2 2.0503,2 0.4407,0 1.7775,0.90951 2.9707,2.02114 3.2994,3.07388 16.4279,11.97886 17.6603,11.97886 0.5976,0 1.0866,0.45 1.0866,1 0,0.55 0.6053,1 1.345,1 0.7398,0 2.1595,0.9 3.155,2 0.9955,1.1 2.3271,2 2.9592,2 0.6321,0 3.2943,1.36037 5.9161,3.02304 4.7496,3.01213 4.7729,3.01573 6.4458,0.99804 1.3735,-1.65664 3.0016,-2.05702 8.950796,-2.20113 4.4737,-0.10837 7.7252,0.27718 8.45,1.00195 0.648,0.64795 2.443,1.1781 3.989,1.1781 1.546,0 4.9435,0.98075 7.55,2.17945 5.3118,2.44284 18.2391,11.62707 18.2391,12.95805 0,0.47437 0.45,0.8625 1,0.8625 0.55,0 1.003,-0.5625 1.0067,-1.25 0,-0.6875 2.2373,-4.175 4.9636,-7.75 2.7263,-3.575 4.9733,-7.025 4.9933,-7.66667 0.02,-0.64166 0.3739,-1.31666 0.7864,-1.5 0.4125,-0.18333 2.2133,-3.28683 4.0018,-6.89666 1.7884,-3.60983 4.0623,-7.43483 5.0531,-8.5 0.9907,-1.06517 4.2123,-5.53667 7.1591,-9.93667 2.9468,-4.4 7.0854,-10.08745 9.1969,-12.63878 2.1115,-2.55133 3.8391,-5.06909 3.8391,-5.59501 0,-0.52593 0.9,-1.77072 2,-2.76621 1.1,-0.99549 2,-2.3239 2,-2.95204 0,-0.62814 1.8275,-2.92089 4.0612,-5.09501 2.2336,-2.17412 5.9461,-6.42795 8.25,-9.45295 2.3038,-3.025 4.5263,-5.65 4.9388,-5.83333 0.4125,-0.18334 0.75,-0.79485 0.75,-1.35892 0,-0.89019 5.9851,-6.89493 33,-33.108138 3.025,-2.93523 9.1,-7.74467 13.5,-10.68763 4.4,-2.94296 8.225,-5.63648 8.5,-5.98558 1.5918,-2.02071 17.7489,-14.28794 20.6015,-15.64159 1.8692,-0.88698 3.3985,-1.90519 3.3985,-2.26268 0,-0.3575 1.8,-1.76246 4,-3.12213 2.2,-1.35967 4,-2.81591 4,-3.23607 0,-0.42016 1.0553,-0.76393 2.345,-0.76393 1.2898,0 3.1595,-0.9 4.155,-2 0.9955,-1.1 2.6137,-2 3.596,-2 0.9823,0 2.0902,-0.49224 2.462,-1.09387 0.3811,-0.61661 2.461,-0.92366 4.767,-0.70374 3.8008,0.36246 4.4757,0.0145 9.5157,-4.90613 2.9836,-2.91294 6.265,-5.29626 7.292,-5.29626 1.027,0 1.8673,-0.45 1.8673,-1 0,-0.55 1.485,-1 3.3,-1 1.815,0 3.8008,-0.50079 4.4129,-1.11287 1.468,-1.46806 3.2871,-0.26615 3.2871,2.17189 0,1.06754 0.45,1.94098 1,1.94098 0.55,0 1,-0.63916 1,-1.42036 0,-2.05757 12.5269,-11.12547 17.3736,-12.57636 6.714,-2.00982 9.9903,-3.14056 12.3667,-4.26798 1.7765,-0.84282 2.6467,-0.69508 4.2033,0.71364 2.0701,1.87343 2.6878,1.68531 13.5564,-4.12868 6.1163,-3.27182 10.8885,-5.3202604 12.3945,-5.3202604 0.938,0 2.1827,-0.47722 2.766,-1.06049 0.5833,-0.58327 3.2427,-0.92077 5.9097,-0.75 4.0842,0.2615 4.9346,0.6677 5.3896,2.5743904 l 0.5402,2.26391 2.7064,-2.51391 c 1.4884,-1.3826404 3.1651,-2.5139004 3.7258,-2.5139004 0.5607,0 2.4928,-0.89832 4.2936,-1.99626 1.8008,-1.09795 4.2601,-1.99795 5.4652,-2 1.205,-0.002 2.4691,-0.45374 2.809,-1.00374 0.3399,-0.55 3.4689,-1 6.9533,-1 5.6798,0 6.6725,0.31506 9.5954,3.04552 2.2681,2.11874 3.5784,2.72736 4.3058,2 0.575,-0.57504 1.8616,-1.04552 2.8591,-1.04552 0.9974,0 2.5949,-0.3975 3.55,-0.88333 6.9992,-3.56055 13.3931,-5.05824002 21.7397,-5.09222002 5.349,-0.0218 6.3025,0.2927 8.75,2.88574002 1.5107,1.60061 2.7467,3.40442 2.7467,4.00847 0,0.71674 0.608,0.79059 1.75,0.21257 4.4533,-2.25391 9.6317,-3.13123 18.4821,-3.13123 9.4242,0 9.6337,0.0518 12.1099,2.9946 1.3859,1.64704 2.8062,3.8970404 3.1563,5.0000004 0.672,2.11717 2.9594,2.69188 4.0017,1.0054 0.3399,-0.55 1.6899,-1 3,-1 1.3101,0 2.6304,-0.40196 2.934,-0.89324 0.3036,-0.49128 6.1166,-0.96065 12.9176,-1.04305 l 12.3656,-0.1498204 3.011,3.4293104 c 2.3889,2.72083 3.5575,3.32485 5.6562,2.92366 1.4548,-0.27812 2.8901,-0.90193 3.1894,-1.38626 0.7371,-1.19267 17.1028,-1.12403 19.3548,0.0812 0.9884,0.52898 2.358,2.3159 3.0435,3.97094 l 1.2465,3.00915 12.6407,0.27906 12.6407,0.27907 0.3104,3.75 0.3103,3.75 5.6897,0.0151 c 5.8372,0.0154 11.7919,1.58005 14.4688,3.80172 0.8314,0.68996 1.8041,2.81345 2.1615,4.71885 0.5638,3.00527 1.0337,3.46437 3.5456,3.46437 1.5926,0 3.1738,0.45 3.5137,1 0.3399,0.55 2.1888,1 4.1087,1 3.777,0 9.4043,2.4399 10.691,4.63548 0.4398,0.75049 1.6773,1.36452 2.75,1.36452 1.0727,0 1.9503,0.45 1.9503,1 0,0.55 0.9,1 2,1 1.1,0 2,0.45 2,1 0,0.55 1.3561,1 3.0136,1 1.6574,0 3.7949,0.41089 4.75,0.91309 2.0122,1.05814 10.935,5.10113 16.7364,7.58345 6.291,2.69179 12.6638,5.57531 16.8445,7.62167 2.1145,1.03498 4.477,1.88179 5.25,1.88179 0.773,0 1.4055,0.45 1.4055,1 0,0.55 0.8152,1 1.8114,1 0.9963,0 2.7775,0.9 3.9582,2 1.1807,1.1 2.6832,2 3.3389,2 2.4078,0 11.8915,5.27746 11.8915,6.61735 0,0.80816 1.0388,1.38265 2.5,1.38265 1.375,0 2.5,0.45 2.5,1 0,0.55 0.6938,1 1.5418,1 0.848,0 2.5079,0.9 3.6886,2 1.1807,1.1 3.171,2 4.423,2 1.2519,0 2.7072,0.80531 3.234,1.78958 0.5268,0.98427 2.2301,2.43744 3.7852,3.22925 1.5551,0.79182 4.3924,2.68651 6.3052,4.210418 1.9129,1.52391 4.0027,2.77075 4.6442,2.77075 0.6415,0 4.9265,3.64719 9.5222,8.10487 4.5957,4.45768 10.1558,9.3553 12.3558,10.8836 2.2,1.52831 4.8572,3.73112 5.905,4.89513 1.0477,1.16402 2.3544,2.1164 2.9036,2.1164 0.5492,0 2.617,1.722 4.595,3.82668 1.978,2.10467 5.6214,5.21212 8.0964,6.90545 2.475,1.69334 5.4937,4.02133 6.7082,5.17333 1.2145,1.152 2.4616,2.09454 2.7714,2.09454 1.1484,0 8.5204,5.2964 8.5204,6.12146 0,1.02037 2.3123,3.92447 6.75,8.47743 1.7875,1.83395 3.25,3.89674 3.25,4.58399 0,0.68726 2.8125,3.98046 6.25,7.31823 3.4375,3.33777 7.2232,7.40297 8.4127,9.03378 1.1895,1.63081 3.6868,4.99011 5.5494,7.46511 1.8627,2.475 3.6874,5.28635 4.0549,6.24744 0.3675,0.96109 2.2578,4.23232 4.2006,7.26941 1.9428,3.03709 3.5324,6.17737 3.5324,6.9784 0,0.80102 0.8983,2.92979 1.9963,4.73058 1.0979,1.80079 1.9979,4.21167 2,5.3575 0,1.14584 0.3193,2.39895 0.7051,2.7847 0.3857,0.38574 0.7956,2.53564 0.9108,4.77753 0.1153,2.2419 0.6997,4.56629 1.2987,5.16531 0.599,0.59902 1.0891,2.79913 1.0891,4.88913 0,2.09 0.3375,3.80351 0.75,3.8078 0.4125,0.004 1.29,1.17139 1.9501,2.59354 0.9038,1.94752 0.9187,3.03625 0.06,4.411 -0.8702,1.39342 -0.8338,2.19415 0.1541,3.38445 1.6078,1.93725 1.6581,33.20849 0.057,35.13823 -0.7589,0.91446 0.2849,2.17957 4.0011,4.84944 2.7654,1.98672 5.0285,3.95046 5.0292,4.36388 6e-4,0.41341 1.1292,2.0633 2.5079,3.66641 2.2381,2.6024 2.7542,2.78229 4.8162,1.67874 2.835,-1.51724 9.8664,-1.06112 10.4375,0.67709 0.3995,1.21573 -5.2916,3.95118 -7.1066,3.41581 -0.4641,-0.13689 -0.6544,0.32767 -0.4229,1.03236 0.2315,0.70469 1.7362,1.42838 3.3438,1.6082 3.785,0.42338 5.0665,1.69258 3.5518,3.51766 -0.9556,1.15148 -0.5974,1.92483 1.8424,3.97782 1.6658,1.40165 3.0287,3.08911 3.0287,3.74992 0,0.8651 1.8127,1.05596 6.4748,0.68174 4.7096,-0.37805 6.7777,-0.15469 7.586,0.81928 1.7498,2.10832 0.1648,3.42663 -4.1199,3.42663 -6.7316,0 -4.3206,1.89199 2.8091,2.20431 5.2019,0.22787 6.75,0.63971 6.75,1.79569 0,1.03704 -1.3889,1.65432 -4.5,2 l -4.5,0.5 6.8543,6.75 c 3.7698,3.7125 7.0384,6.75 7.2635,6.75 0.2251,0 1.1907,-0.3975 2.1457,-0.88333 5.4586,-2.7768 7.4147,-3.19137 13.7655,-2.9174 5.3961,0.23279 6.971,0.63961 6.971,1.80073 0,1.44207 -0.8793,1.71076 -11.5,3.51413 -11.5188,1.95585 -10.1959,3.08745 3.0766,2.63178 9.5186,-0.3268 9.9234,-0.25515 9.9234,1.75669 0,1.52192 -0.6311,2.0974 -2.3,2.0974 -1.265,0 -2.8278,0.52779 -3.4729,1.17287 -0.8972,0.89717 -1.7846,0.89418 -3.775,-0.0127 -4.6869,-2.13551 -4.5498,-0.11779 0.2404,3.5387 2.5805,1.96973 5.5902,4.41828 6.6882,5.44123 2.2227,2.07073 4.6851,2.3941 6.2575,0.82174 0.6195,-0.61952 5.0352,-0.92196 10.95,-0.75 8.0157,0.23304 9.9118,0.5751 9.9118,1.78816 0,1.0741 -1.2777,1.57092 -4.5,1.7498 -5.5808,0.30979 -12.1131,2.25813 -11.4062,3.40203 0.2902,0.46947 1.4033,0.38489 2.4737,-0.18796 1.0704,-0.57284 5.8806,-0.91156 10.6893,-0.7527 6.97674,0.23047 8.74324,0.5919 8.74324,1.78883 0,0.93661 -1.1268,1.60715 -3,1.78527 -1.65,0.1569 -3.90004,0.68649 -5.00004,1.17688 -1.1,0.49038 -2.675,1.09712 -3.5,1.3483 -1.1663,0.3551 -1.0551,0.63003 0.5,1.23585 1.1,0.42853 3.2393,1.63786 4.754,2.68739 3.54564,2.45667 8.54244,3.90474 9.29154,2.69264 0.8131,-1.31554 12.1961,-1.15342 13.0236,0.18547 0.3779,0.6115 0.093,1.47916 -0.6337,1.92815 -0.8525,0.52685 0.077,0.93047 2.6218,1.13819 3.1592,0.25789 3.9428,0.71667 3.9428,2.30839 0,1.20585 -1.1397,2.53276 -2.9001,3.3765 l -2.9001,1.38998 4.0988,1.87904 c 3.8168,1.74978 4.4291,1.7733 8.9001,0.34198 2.6407,-0.84538 5.5827,-1.97288 6.5377,-2.50554 2.1351,-1.19083 6.7933,-1.23591 8.612,-0.0833 2.3741,1.50454 0.9048,4.58532 -2.357,4.94181 -1.6452,0.17982 -3.4189,0.74232 -3.9414,1.25 -0.5225,0.50768 -1.985,0.92305 -3.25,0.92305 -1.265,0 -2.3,0.45 -2.3,1 0,0.55 1.575,1 3.5,1 1.925,0 3.5,-0.45 3.5,-1 0,-0.55 0.8734,-1 1.941,-1 1.0675,0 2.2191,-0.45 2.559,-1 0.7884,-1.27568 5.1931,-1.30567 5.9749,-0.0407 0.8924,1.44403 -1.7165,5.04068 -3.6564,5.04068 -2.8762,0 -2.8951,1.63098 -0.034,2.96596 1.4938,0.69706 3.4605,1.64193 4.3707,2.0997 3.4295,1.72502 10.2673,1.28276 14.1256,-0.91362 2.0792,-1.18362 4.4417,-2.15204 5.25,-2.15204 0.8083,0 1.4696,-0.47716 1.4696,-1.06037 0,-0.61352 1.5768,-0.92957 3.7417,-0.75 5.8109,0.48201 5.613,3.33047 -0.4142,5.96197 -5.5139,2.40742 -5.8667,2.64251 -5.1069,3.40229 0.3046,0.30463 2.0671,-0.36868 3.9166,-1.49626 4.3728,-2.66588 8.8628,-2.75711 8.8628,-0.18007 0,1.03265 -0.67,2.43364 -1.489,3.1133 -1.9389,1.60912 -1.0135,3.00914 1.989,3.00914 1.3101,0 2.6601,0.45 3,1 1.2584,2.03616 4.0806,0.94942 5.1939,-2 1.3585,-3.59913 5.1796,-4.19987 6.0299,-0.94802 l 0.5366,2.05197 2.2871,-2.14861 c 2.9338,-2.7561 8.249,-2.9365 11.7275,-0.39804 1.4642,1.06848 2.6763,2.18974 2.6936,2.49167 0.017,0.30194 -1.6971,1.6412 -3.8097,2.97614 l -3.841,2.42716 2.4553,1.27386 c 3.8767,2.01123 13.2643,1.59115 16.2268,-0.72613 1.375,-1.07554 2.8805,-1.96553 3.3456,-1.97776 0.4651,-0.0122 2.1534,-0.95344 3.7518,-2.09156 3.5158,-2.50348 7.4026,-2.24969 7.4026,0.48336 0,1.15361 -1.3905,2.67996 -3.5,3.84188 -4.2666,2.35008 -5.8417,3.74408 -4.2304,3.74408 1.1922,0 7.7684,-3.4322 9.9151,-5.17479 1.563,-1.26882 7.5563,-0.64549 8.0422,0.83643 0.2095,0.6389 -0.9934,1.97342 -2.673,2.9656 -1.6797,0.99219 -3.0539,2.15695 -3.0539,2.58837 0,0.43141 3.4661,0.78439 7.7024,0.78439 7.1088,0 7.9373,-0.22142 10.75,-2.87311 3.6606,-3.45098 8.0819,-4.76337 9.2447,-2.74413 0.4416,0.76687 1.7029,1.57326 2.8029,1.79199 1.5214,0.30254 1.9679,1.13702 1.866,3.48751 -0.1091,2.51596 0.2008,3.00227 1.6685,2.61846 0.9914,-0.25924 2.5925,-0.0292 3.558,0.51113 1.3939,0.78002 3.07,-0.0376 8.1343,-3.96786 6.7297,-5.2228 9.3354,-5.75217 10.2293,-2.07814 0.5163,2.12252 0.6884,2.16011 3.4082,0.74475 3.7248,-1.93846 5.5473,-1.88441 6.3426,0.1881 0.4476,1.16646 -0.4972,2.66528 -3.096,4.91182 l -3.7401,3.23311 6.7774,0.33818 c 3.7276,0.18601 7.6942,-0.1445 8.8146,-0.73445 1.1204,-0.58996 3.1621,-1.67271 4.5371,-2.40613 5.043,-2.68989 6.032,-3.02123 9.0178,-3.02123 1.8499,0 3.2825,0.61878 3.6501,1.5766 0.3326,0.86714 1.6987,1.99249 3.0356,2.50078 1.8368,0.6983 2.2757,1.4128 1.7963,2.9234 -0.7511,2.36641 0.3742,2.56175 3.0591,0.53102 2.5481,-1.92732 7.3448,-1.9462 8.0795,-0.0318 0.93,2.42347 2.5843,1.75767 7.3616,-2.96276 3.6524,-3.60887 5.1952,-4.45495 8.191,-4.49182 4.327,-0.0532 5.8023,1.55507 3.1674,3.45322 -6.1794,4.45169 -6.1713,4.43507 -2.1432,4.46956 2.7309,0.0234 4.6206,-0.76311 7.1321,-2.9682 1.8793,-1.65 4.384,-3 5.5662,-3 2.6069,0 3.8062,2.61794 2.3025,5.02591 -1.0122,1.62073 -0.6129,1.73459 5.0145,1.42958 5.6493,-0.30618 6.4144,-0.64044 10.0571,-4.39344 4.2633,-4.39235 6.0978,-4.98263 7.5305,-2.4228 0.8344,1.49095 1.1954,1.50055 3.9907,0.10608 2.8663,-1.4299 3.1943,-1.39951 4.869,0.45106 1.7017,1.88032 1.7048,2.05076 0.059,3.25417 -2.4755,1.81008 -2.1562,2.54944 1.1005,2.54944 1.9427,0 4.1631,-1.26124 7.042,-4 4.1936,-3.98924 8.2733,-5.18031 9.7208,-2.83805 0.6788,1.09826 -0.9025,2.76957 -5.2315,5.52924 -1.0277,0.65516 -1.3759,1.21766 -0.7736,1.25 0.6022,0.0324 3.804,-1.69208 7.1149,-3.83206 3.3109,-2.13998 7.4307,-4.20074 9.155,-4.57946 2.7629,-0.60683 3.1351,-0.4306 3.1351,1.48449 0,1.32798 -0.7734,2.37533 -1.9888,2.69315 -1.0938,0.28604 -1.7422,0.91891 -1.4409,1.40638 1.0338,1.67274 4.083,0.88428 6.4904,-1.67829 1.3251,-1.41053 3.8559,-3.25107 5.624,-4.09008 4.5879,-2.1771 7.0751,-0.24794 3.8449,2.98226 -1.294,1.29392 -1.1572,1.54906 1.1389,2.12537 1.9953,0.50078 3.2369,0.0538 5.2752,-1.89901 1.4662,-1.40467 3.3911,-2.55394 4.2777,-2.55394 0.8866,0 1.7889,-0.53096 2.0052,-1.17991 0.232,-0.69578 1.1368,-0.89461 2.2053,-0.4846 1.3731,0.52692 1.6746,1.382 1.2449,3.53076 -0.5272,2.63584 -0.3774,2.79946 2.128,2.32432 1.4824,-0.28112 4.3356,-1.82647 6.3405,-3.43411 2.2317,-1.78945 4.5282,-2.79375 5.9217,-2.58972 3.3618,0.49218 3.5022,2.64411 0.2643,4.05233 -2.8049,1.2199 -2.7869,1.23444 1.9364,1.56166 3.629,0.25141 5.4813,-0.17785 7.7558,-1.79743 3.268,-2.32708 6.4765,-2.31202 6.4765,0.0304 0,1.09437 1.5822,1.61815 6,1.9863 5.8785,0.48987 6.0062,0.56393 6.3064,3.65612 0.2517,2.59387 -0.2995,3.61822 -3.0944,5.75 -1.8704,1.42664 -4.7083,2.60819 -6.3064,2.62568 -3.3794,0.037 -7.3019,2.478 -5.2086,3.24135 0.9296,0.33898 0.6343,1.1178 -1.0304,2.71762 -1.718,1.65114 -2.6278,1.94803 -3.45,1.12586 -1.2537,-1.25372 -7.9729,-1.52323 -9.1403,-0.36663 -0.8176,0.81003 -1.3952,0.87827 -9.3263,1.10194 -6.2835,0.17721 -7.0217,1.90488 -1,2.34056 6.0115,0.43495 5.8411,3.09655 -0.25,3.90411 -2.475,0.32814 -5.253,0.92554 -6.1733,1.32756 -1.128,0.49277 -1.998,0.12426 -2.6697,-1.13092 -1.4644,-2.73618 -8.7602,-2.91832 -9.4617,-0.23621 -0.4625,1.76884 -1.4521,1.94296 -11.0427,1.94296 -5.9443,0 -10.8039,0.43573 -11.1525,1 -0.3399,0.55 -1.604,1.00689 -2.809,1.01531 -1.6363,0.0114 -1.8421,0.2363 -0.8129,0.8882 0.758,0.48009 1.0689,1.37319 0.691,1.98469 -0.909,1.47074 -13.0682,1.44158 -15.4358,-0.037 -1.4122,-0.88191 -2.5591,-0.83035 -4.9363,0.22194 -2.0126,0.89084 -2.6796,1.6286 -1.9053,2.10719 0.9191,0.56803 0.9139,1.01413 -0.023,1.95093 -0.9379,0.93787 -1.8009,0.94736 -3.7887,0.0416 -3.1414,-1.43132 -13.126,-1.55478 -13.9801,-0.17287 -0.3399,0.55 -2.643,1 -5.118,1 -3.02,0 -4.2763,0.36204 -3.8197,1.10074 0.3797,0.61444 1.9135,0.85409 3.4718,0.54245 1.7725,-0.35451 3.2197,-0.0422 3.9648,0.85545 2.2423,2.70183 -0.012,3.5016 -9.8079,3.47912 -8.0768,-0.0185 -10.1074,-0.34796 -12.191,-1.97776 -2.6468,-2.07039 -6.4965,-2.62364 -7.4558,-1.07149 -0.3156,0.51067 0.4453,1.07317 1.691,1.25 1.2456,0.17682 2.2648,0.99649 2.2648,1.82149 0,1.99659 -14.9124,2.73253 -17.1831,0.848 -1.8701,-1.55203 -9.5059,-1.15014 -13.0464,0.68666 -2.8077,1.45666 -2.1733,2.07868 2.7193,2.6663 1.4201,0.17056 2.6331,1.0509 2.8233,2.04904 0.2877,1.50966 -0.4925,1.75 -5.6808,1.75 -3.3078,0 -6.2924,-0.45 -6.6323,-1 -0.3399,-0.55 -1.7127,-1 -3.0505,-1 -1.3495,0 -2.9886,-0.89044 -3.6816,-2 -1.3178,-2.11017 -6.1692,-2.77769 -7.2679,-1 -0.3399,0.55 -1.7915,1 -3.2257,1 -4.1197,0 -1.6741,1.36177 3.5177,1.9587 3.2776,0.37684 4.708,0.99702 4.708,2.0413 0,1.86396 -5.0104,2.57213 -7.9124,1.11834 -2.7117,-1.35852 -16.8466,-1.96633 -15.5423,-0.66834 1.2454,1.23932 1.226,4.26429 -0.032,5.042 -0.5428,0.33552 -1.9536,-0.29049 -3.135,-1.39113 -1.1814,-1.10063 -3.6868,-2.73135 -5.5675,-3.6238 -6.7306,-3.19392 -18.9857,-1.9423 -14.8215,1.51373 1.8994,1.57639 1.9284,3.41795 0.078,4.95367 -1.1603,0.96298 -2.2071,0.41529 -5.5,-2.87756 -3.4386,-3.43865 -4.7028,-4.06691 -8.1835,-4.06691 -3.727,0 -4.0631,0.20463 -3.5514,2.16167 0.6783,2.59385 -0.8656,5.83833 -2.7783,5.83833 -0.7567,0 -2.5535,-1.39948 -3.9928,-3.10995 l -2.6168,-3.10994 -11.4724,-0.14006 c -6.3098,-0.077 -11.4722,0.19745 -11.472,0.60995 10e-5,0.4125 0.4503,0.75 1.0003,0.75 1.3893,0 1.2582,3.72237 -0.162,4.60009 -0.6421,0.39688 -1.8723,-0.14569 -2.75,-1.21287 -2.871,-3.49102 -7.6056,-6.30338 -9.0789,-5.39283 -1.1187,0.69136 -1.1411,1.14169 -0.118,2.37435 1.4678,1.76866 1.1306,5.80299 -0.5308,6.34949 -0.6268,0.20618 -2.1334,-1.233 -3.3479,-3.1982 -3.607,-5.83627 -4.7108,-6.52003 -10.5248,-6.52003 -2.9533,0 -5.6477,-0.45 -5.9876,-1 -1.1332,-1.83348 -2.3636,-1.03111 -2.6836,1.75 -0.3867,3.36125 -2.8193,3.62862 -4.3879,0.48229 -1.7627,-3.53565 -2.777,-4.01204 -2.0446,-0.96033 0.4835,2.01468 0.2453,2.93312 -0.8721,3.36187 -1.826,0.7007 -4.5118,-1.28024 -4.5118,-3.3277 0,-2.5982 -2.7741,-4.30613 -6.9943,-4.30613 -2.2755,0 -5.0477,-0.48731 -6.1606,-1.08291 -1.1129,-0.5956 -4.5708,-1.10152 -7.6843,-1.12426 -3.945,-0.0288 -6.4943,-0.63052 -8.4108,-1.98519 l -2.75,-1.94383 0,2.8681 c 0,1.57745 0.54,3.40809 1.2,4.06809 0.9333,0.93333 0.9272,1.47278 -0.028,2.42752 -1.6862,1.68616 -4.2148,0.0194 -6.3672,-4.19714 -2.2929,-4.49148 -2.9716,-5.05298 -7.2838,-6.02554 -3.552,-0.8011 -3.7023,-0.7309 -3.2705,1.52764 0.732,3.82968 -2.1365,3.95597 -5.454,0.2401 -1.607,-1.79992 -3.3062,-3.27258 -3.7761,-3.27258 -0.4698,0 -1.1917,-0.3375 -1.6042,-0.75 -0.4125,-0.4125 -1.9985,-0.75 -3.5243,-0.75 -1.5259,0 -3.0525,-0.45 -3.3924,-1 -0.3399,-0.55 -1.4915,-1 -2.559,-1 -1.3912,0 -1.941,0.69141 -1.941,2.44098 0,1.34254 -0.4784,2.73663 -1.063,3.09796 -1.4009,0.86582 -4.937,-2.38516 -4.937,-4.53894 0,-0.92951 -0.9,-2.50451 -2,-3.5 -1.7418,-1.57634 -2,-1.60396 -2,-0.214 0,3.26493 -2.2388,2.79496 -5.64574,-1.18513 -2.4636,-2.87825 -4.3068,-4.1075 -6.1822,-4.12311 -1.4697,-0.0122 -3.7971,-0.90222 -5.1721,-1.97776 -1.375,-1.07554 -3.9625,-1.96553 -5.75,-1.97776 -3.1547,-0.0216 -4.2832,1.22117 -2.25,2.47776 1.3283,0.82095 1.2826,5.20734 -0.063,6.03894 -1.4318,0.88489 -4.937,-2.40584 -4.937,-4.63491 0,-0.9823 -0.45,-2.06411 -1,-2.40403 -0.55,-0.33992 -1,-1.62648 -1,-2.85902 0,-2.86769 -1.7864,-4.64098 -4.6753,-4.64098 -2.0291,0 -2.1697,0.27747 -1.3,2.5651 1.5551,4.09028 1.2169,10.12819 -0.6065,10.82791 -0.8703,0.33383 -1.7373,0.60697 -1.927,0.60697 -0.6311,0 -3.4915,-6.28535 -3.4915,-7.67204 0,-2.75131 -5.0613,-10.90408 -8.4293,-13.57796 -4.126,-3.27567 -5.1652,-3.40866 -5.8604,-0.75 -0.7926,3.03058 -5.2519,2.62922 -7.4117,-0.66709 l -1.7476,-2.66708 -0.5706,2.41708 c -0.4119,1.74477 -1.2534,2.41709 -3.0255,2.41709 -2.0387,0 -2.5441,-0.59333 -2.9809,-3.5 -0.7795,-5.18621 -3.9827,-12 -5.6412,-12 -1.6114,0 -9.2701,-5.65589 -10.8328,-8 -0.7467,-1.12 -1.1267,-0.10667 -1.5,4 -0.4606,5.06667 -0.697,5.5 -3,5.5 -2.1496,0 -2.5845,-0.56069 -3.1026,-4 -0.7396,-4.90972 -2.5438,-9.5 -3.734,-9.5 -0.4873,0 -0.6805,1.07528 -0.4293,2.3895 0.4924,2.57579 -2.388,7.89254 -3.987,7.35952 -1.4336,-0.47786 -3.9911,-8.69224 -3.5024,-11.24901 0.3289,-1.72037 -0.5281,-2.80179 -3.9221,-4.94895 l -4.3429,-2.74755 -1.9695,2.34824 c -1.6816,2.00487 -2.1165,2.12891 -2.9746,0.84825 -0.7775,-1.16057 -1.0084,-0.77792 -1.0203,1.69098 -0.01,1.75504 -0.4653,3.4691 -1.0153,3.80902 -0.55,0.33992 -1,1.71648 -1,3.05902 0,1.34254 -0.3989,2.44098 -0.8865,2.44098 -0.8379,0 -1.4701,2.22594 -2.7714,9.75927 -0.3097,1.7926 -0.9634,3.50665 -1.4526,3.80902 -0.4892,0.30236 -0.8895,1.42319 -0.8895,2.49073 0,1.06754 -0.3788,1.94098 -0.8417,1.94098 -0.4629,0 -1.3929,1.83959 -2.0665,4.08799 -0.6736,2.24839 -2.0949,5.63708 -3.1583,7.53041 -1.0634,1.89334 -1.9335,4.31506 -1.9335,5.3816 0,1.06654 -0.8577,3.4662 -1.906,5.33258 -1.9557,3.48202 -2.211,3.96746 -6.1369,11.66742 -3.3577,6.58559 -14.7067,17.91575 -18.98,18.94854 -4.0465,0.97799 -12.7006,3.92631 -15.2135,5.18306 -0.9551,0.47762 -3.7737,0.8684 -6.2636,0.8684 -4.7288,0 -7.8204,1.2518 -10.6663,4.31881 -1.1373,1.22567 -2.7713,1.71483 -5.0107,1.5 -2.7863,-0.26732 -3.3741,-0.76298 -3.6394,-3.06881 -0.2739,-2.38 -0.7601,-2.75 -3.6137,-2.75 -3.7375,0 -8.0304,3.59773 -10.1424,8.5 -0.7108,1.65 -3.8359,5.25 -6.9446,8 -3.1087,2.75 -7.4873,6.9125 -9.7302,9.25 -2.2429,2.3375 -4.6642,4.25 -5.3806,4.25 -0.7164,0 -2.8401,1.35 -4.7193,3 -1.8793,1.65 -3.8502,3 -4.3798,3 -0.5297,0 -1.7241,0.84095 -2.6542,1.86878 -0.9302,1.02782 -4.615,3.35278 -8.1884,5.16657 -4.95,2.51247 -6.775,3.02 -7.6638,2.13123 -1.4255,-1.42539 -5.7668,-1.5508 -5.7668,-0.16664 0,0.55 -1.0984,1 -2.441,1 -1.3425,0 -2.7191,0.45 -3.059,1 -0.3399,0.55 -1.5103,1 -2.6008,1 -1.0906,0 -2.9489,0.9 -4.1296,2 -1.1807,1.1 -3.4119,2 -4.9582,2 -1.5462,0 -2.8114,0.45 -2.8114,1 0,1.83927 -1.4813,1.02214 -3.4358,-1.89529 z M 1017.5727,386.97655 c 0,-0.55 -0.8734,-1 -1.941,-1 -1.0675,0 -2.2191,0.45 -2.559,1 -0.3505,0.56716 0.4896,1 1.941,1 1.4074,0 2.559,-0.45 2.559,-1 z"
     id="path2987"
     inkscape:connector-curvature="0" />
</svg>
