<?xml version="1.0" encoding="UTF-8" standalone="no"?>
<!-- Created with Inkscape (http://www.inkscape.org/) -->

<svg
   xmlns:dc="http://purl.org/dc/elements/1.1/"
   xmlns:cc="http://creativecommons.org/ns#"
   xmlns:rdf="http://www.w3.org/1999/02/22-rdf-syntax-ns#"
   xmlns:svg="http://www.w3.org/2000/svg"
   xmlns="http://www.w3.org/2000/svg"
   xmlns:sodipodi="http://sodipodi.sourceforge.net/DTD/sodipodi-0.dtd"
   xmlns:inkscape="http://www.inkscape.org/namespaces/inkscape"
   id="svg2"
   version="1.1"
   inkscape:version="0.48.2 r9819"
   width="2018.7439"
   height="2292.1829"
   sodipodi:docname="Ostrich_(PSF)b.png">
  <metadata
     id="metadata8">
    <rdf:RDF>
      <cc:Work
         rdf:about="">
        <dc:format>image/svg+xml</dc:format>
        <dc:type
           rdf:resource="http://purl.org/dc/dcmitype/StillImage" />
        <dc:title></dc:title>
      </cc:Work>
    </rdf:RDF>
  </metadata>
  <defs
     id="defs6" />
  <sodipodi:namedview
     pagecolor="#ffffff"
     bordercolor="#666666"
     borderopacity="1"
     objecttolerance="10"
     gridtolerance="10"
     guidetolerance="10"
     inkscape:pageopacity="0"
     inkscape:pageshadow="2"
     inkscape:window-width="1920"
     inkscape:window-height="1176"
     id="namedview4"
     showgrid="false"
     fit-margin-top="0"
     fit-margin-left="0"
     fit-margin-right="0"
     fit-margin-bottom="0"
     inkscape:zoom="0.39464883"
     inkscape:cx="1076.7119"
     inkscape:cy="1148.5376"
     inkscape:window-x="0"
     inkscape:window-y="24"
     inkscape:window-maximized="1"
     inkscape:current-layer="svg2" />
  <path
     style="fill:#000000"
     d="m 859,2291.8959 c -0.825,-0.2299 -4.875,-1.7873 -9,-3.4608 -4.125,-1.6735 -9.3,-3.7702 -11.5,-4.6593 -2.2,-0.8892 -5.8239,-3.2829 -8.053,-5.3194 -2.7869,-2.546 -6.529,-4.511 -11.9787,-6.29 -4.3592,-1.4229 -8.3188,-3.2895 -8.7991,-4.1479 -0.4804,-0.8584 -2.4351,-2.2132 -4.3437,-3.0107 -9.8755,-4.1262 -21.1442,-14.62 -26.2278,-24.4242 l -3.4022,-6.5617 2.1522,-6.8567 c 1.1838,-3.7713 2.1523,-7.3712 2.1523,-7.9998 0,-0.6287 0.8235,-2.027 1.83,-3.1073 3.4226,-3.6738 5.1038,-6.9545 5.092,-9.9368 -0.04,-10.1014 -0.8864,-33.9752 -1.3975,-39.4114 -0.8907,-9.4726 -3.2123,-15.497 -7.892,-20.4786 -4.5736,-4.8687 -8.701,-10.265 -11.9212,-15.5861 -2.5256,-4.1733 -6.7113,-16.3406 -6.7113,-19.5088 0,-1.2358 -0.7034,-3.9303 -1.563,-5.9878 -1.2817,-3.0674 -1.4883,-7.005 -1.1476,-21.8721 0.4,-17.4565 0.5294,-18.4104 3.4755,-25.6313 3.7088,-9.0901 4.8842,-13.0896 5.5967,-19.0445 0.2991,-2.4995 1.2373,-5.8745 2.0849,-7.5 0.8477,-1.6255 1.5439,-4.1664 1.5473,-5.6465 0,-1.48 0.4562,-2.9691 1.0062,-3.309 0.55,-0.3399 1,-1.5073 1,-2.5942 0,-1.0869 0.6166,-2.9728 1.3703,-4.191 1.4918,-2.4112 3.9844,-16.3319 3.1625,-17.6618 -0.2789,-0.4512 0.43,-3.4603 1.5754,-6.6867 1.1454,-3.2265 2.292,-7.4413 2.548,-9.3663 0.256,-1.925 1.1776,-6.425 2.0481,-10 0.8704,-3.575 1.73,-7.625 1.9102,-9 0.1802,-1.375 0.7969,-4.75 1.3705,-7.5 0.5736,-2.75 1.1977,-8.3913 1.387,-12.5363 0.1892,-4.145 0.842,-9.095 1.4507,-11 3.2506,-10.1736 3.8657,-13.0102 4.0874,-18.8492 0.1333,-3.512 0.6024,-7.337 1.0424,-8.5 0.44,-1.163 1.1336,-5.0018 1.5412,-8.5307 0.4077,-3.529 1.1645,-7.804 1.6818,-9.5 0.5173,-1.6961 1.1592,-4.1569 1.4265,-5.4685 0.2673,-1.3116 1.1412,-3.6518 1.942,-5.2004 0.8008,-1.5486 1.456,-4.1586 1.456,-5.8001 0,-1.6415 0.4667,-4.2122 1.0372,-5.7126 0.5705,-1.5005 1.2016,-4.7923 1.4026,-7.3151 0.201,-2.5229 0.8903,-7.7371 1.5318,-11.5871 0.6414,-3.85 1.3662,-11.5 1.6104,-17 0.4054,-9.1265 2.2696,-19.9341 4.3124,-25 2.3078,-5.7231 3.2417,-9.8598 4.1765,-18.5 0.5653,-5.225 1.7318,-12.2 2.5923,-15.5 0.8604,-3.3 1.5257,-7.3095 1.4783,-8.9099 -0.047,-1.6005 1.026,-5.124 2.3852,-7.8301 1.5875,-3.1607 2.2567,-5.775 1.8712,-7.3106 -0.33,-1.3148 0.3937,-7.3806 1.6081,-13.4796 1.2144,-6.099 1.9688,-11.3283 1.6763,-11.6208 -0.2924,-0.2924 0.1046,-2.6281 0.8822,-5.1903 0.7776,-2.5623 1.4285,-6.9087 1.4463,-9.6587 0.018,-2.75 0.8757,-8.825 1.9063,-13.5 1.0306,-4.675 2.1994,-12.55 2.5973,-17.5 0.3979,-4.95 1.1491,-9.5312 1.6693,-10.1805 0.5202,-0.6493 1.344,-6.9493 1.8305,-14 0.4865,-7.0507 1.1004,-14.6195 1.3643,-16.8195 0.2639,-2.2 0.7597,-8.05 1.1019,-13 0.3422,-4.95 1.0514,-10.6315 1.5759,-12.6256 1.3619,-5.1769 1.8334,-8.5629 3.4639,-24.8744 1.854,-18.548 2.3184,-21.9448 3.4178,-25 1.9993,-5.5559 4.2243,-25.8282 3.0712,-27.9828 -1.1636,-2.1743 0.2541,-22.395 2.0345,-29.0172 0.6654,-2.475 1.173,-6.4225 1.1281,-8.7722 -0.045,-2.3497 0.7895,-6.3047 1.8544,-8.7889 1.109,-2.5873 1.8899,-6.5627 1.8281,-9.3066 -0.1181,-5.2432 0.6958,-7.2156 5.6633,-13.7233 2.1125,-2.7675 3.1273,-5.0509 2.8004,-6.3011 -0.3209,-1.2271 0.2719,-2.6326 1.5846,-3.7565 1.6313,-1.3968 2.0974,-2.9528 2.0974,-7.0022 0,-2.8635 0.5625,-5.8022 1.25,-6.5305 3.3367,-3.5346 8.8755,-11.4707 9.364,-13.417 0.3073,-1.2244 -0.257,-3.609 -1.2826,-5.4199 -1.0073,-1.7785 -2.436,-4.3385 -3.175,-5.689 -0.7389,-1.3506 -3.3611,-3.735 -5.8269,-5.2988 -5.6662,-3.5934 -10.5895,-3.206 -14.3295,1.1274 -2.6896,3.1164 -6.0161,3.7196 -8.2413,1.4945 -0.7612,-0.7613 -3.2304,-2.326 -5.4869,-3.4773 -5.9241,-3.0222 -10.8072,-8.5955 -14.87,-16.9717 -3.3563,-6.9195 -3.4558,-7.4069 -1.7646,-8.6436 1.6901,-1.2358 1.6975,-1.502 0.1308,-4.6669 -5.541,-11.1931 -9.2327,-28.7593 -10.3727,-49.3564 -0.274,-4.95 -0.5761,-9.675 -0.6713,-10.5 -0.276,-2.391 3.812,-20.7634 6.1189,-27.5 2.8179,-8.2285 6.2211,-19.5971 6.6282,-22.1416 1.7864,-11.1663 3.0814,-15.4622 6.4382,-21.3584 1.7729,-3.1142 4.9754,-10.5953 5.5649,-13 0.547,-2.2313 0.1799,-2.6344 -3.4149,-3.75 -2.2153,-0.6875 -5.08,-1.25 -6.3659,-1.25 -1.6332,0 -3.1454,-1.233 -5.0158,-4.0897 -1.4727,-2.2494 -2.6776,-4.5545 -2.6776,-5.1225 0,-0.616 -0.6053,-0.5303 -1.5,0.2122 -0.825,0.6847 -1.4817,1.9773 -1.4594,2.8724 0.058,2.3039 4.8672,7.562 8.7094,9.5215 3.7192,1.8967 4.1747,4.0409 1.197,5.6345 -1.6242,0.8692 -2.9682,0.6557 -6.4347,-1.0224 -3.1794,-1.5392 -5.3355,-1.9422 -7.8583,-1.4689 -3.3583,0.63 -3.5439,0.5002 -5.452,-3.8134 -2.5094,-5.6729 -3.5423,-6.2616 -8.2565,-4.7057 -3.059,1.0096 -4.4474,1.0167 -6.8169,0.035 -1.6365,-0.6779 -6.0887,-1.3546 -9.8938,-1.5038 -5.518,-0.2164 -8.4178,-0.991 -14.3266,-3.827 -6.359,-3.0522 -10.9458,-4.297 -17.9082,-4.8603 -0.825,-0.067 -5.1,0.1967 -9.5,0.5853 -7.1264,0.6295 -8.4368,0.468 -12,-1.4782 -2.2,-1.2016 -5.575,-2.5384 -7.5,-2.9706 -6.5202,-1.464 -22.8485,-7.7649 -28.1884,-10.8776 -2.9214,-1.7029 -7.0488,-4.6768 -9.172,-6.6087 -2.9199,-2.6566 -4.7472,-3.5153 -7.5,-3.5243 -5.5594,-0.018 -12.674,-2.2681 -23.2894,-7.3651 -10.4039,-4.9955 -12.6945,-6.8657 -20.3209,-16.5916 -3.3601,-4.2851 -6.3587,-6.9531 -9.2545,-8.234 -2.8232,-1.2489 -5.6047,-3.6831 -8.1582,-7.1395 -2.1309,-2.8845 -8.6405,-9.484 -14.4658,-14.6655 -12.9572,-11.5252 -14.8484,-13.9934 -15.44,-20.1507 -0.3827,-3.9824 -1.0214,-5.2226 -3.7691,-7.3183 -1.8195,-1.3879 -4.3508,-2.5251 -5.625,-2.5271 -1.2742,0 -3.7143,-0.856 -5.4225,-1.8977 -2.4122,-1.4709 -3.2571,-2.8396 -3.7831,-6.129 -0.5266,-3.293 -2.0046,-5.6837 -6.6447,-10.7476 -3.9338,-4.293 -6.3353,-7.9114 -7.0465,-10.6172 -1.293,-4.9186 -9.9937,-13.7334 -19.9199,-20.1812 -3.575,-2.3222 -7.4493,-5.28 -8.6095,-6.5729 -3.68,-4.1007 -8.3528,-7.6916 -13.0835,-10.0542 -2.5227,-1.2599 -6.6613,-4.5149 -9.1969,-7.2332 -2.5355,-2.7184 -7.3101,-7.7562 -10.6101,-11.1951 -3.3,-3.4389 -6.9,-7.2911 -8,-8.5604 -1.1,-1.2693 -3.0308,-2.9828 -4.2907,-3.8078 -1.2598,-0.825 -2.8897,-3.3 -3.622,-5.5 -0.9519,-2.8601 -2.2311,-4.41133 -4.4887,-5.44313 -1.7661,-0.8072 -3.4126,-2.4597 -3.7364,-3.75 -0.3185,-1.2688 -0.6707,-2.3069 -0.7828,-2.3069 -0.1121,0 -2.2008,0.9824 -4.6416,2.1832 -3.2204,1.5843 -6.4953,2.2269 -11.9378,2.3425 -8.2141,0.1745 -11.6199,0.939 -14.1783,3.1827 -1.9371,1.69883 -5.8217,0.88533 -5.8217,-1.2191 0,-1.856 -3.8847,-4.4708 -5.6408,-3.7969 -0.7762,0.2978 -5.6745,0.2219 -10.8852,-0.1688 -6.7414,-0.5054 -9.474,-1.0851 -9.474,-2.0099 0,-2.0363 -2.0933,-2.408 -14.7116,-2.6127 -13.9653,-0.2265 -17.9761,-1.1214 -19.4414,-4.3375 -1.0733,-2.3556 -4.3656,-3.5627 -9.722,-3.5643 -1.4438,-5e-4 -4.8472,-0.8448 -7.5632,-1.8762 -3.4947,-1.3273 -5.7764,-1.6351 -7.8059,-1.053 -4.1665,1.1949 -12.4082,-0.028 -14.3039,-2.123 -2.46,-2.7183 -1.4552,-6.2138 2.2845,-7.947 3.6476,-1.6905 4.8651,-4.1106 3.3855,-6.7298 -0.7591,-1.3439 -2.2717,-1.7702 -6.2814,-1.7702 -5.2764,0 -5.2822,0 -5.8732,-3.5628 -0.659,-3.9677 -1.6166,-5.5155 -7.5935,-12.27251 -4.238,-4.7912 -6.1757,-5.4509 -10.8221,-3.6844 -1.4181,0.5392 -5.3311,1.4236 -8.6954,1.9654 -7.5337,1.2133 -9.8564,0.2503 -9.8564,-4.0865 0,-1.7868 -1.0089,-4.2695 -2.4133,-5.9385 -1.6053,-1.9078 -2.2231,-3.5951 -1.8453,-5.0398 0.5657,-2.1634 0.5236,-2.1692 -10.8367,-1.4989 -12.2251,0.7214 -11.1625,0.9875 -19.4925,-4.882 -2.6094,-1.8386 -4.2421,-1.9817 -20.2338,-1.7729 -10.0881,0.1318 -18.1757,-0.1904 -19.2529,-0.767 -1.0217,-0.5467 -2.3541,-2.8379 -2.9609,-5.0915 l -1.1033,-4.0974 -6.02506,0.5077 c -7.94443,0.6695 -12.63985,-0.6482 -13.42259,-3.7669 -0.79143,-3.153 0.15571,-4.5117 3.14537,-4.5117 1.34254,0 2.44098,-0.3949 2.44098,-0.8775 0,-2.1397 -3.82226,-3.6364 -10.72974,-4.2014 -8.24056,-0.674 -9.55993,-1.6544 -8.68345,-6.4525 0.87262,-4.7769 -2.17301,-6.9369 -8.29752,-5.8845 -2.63411,0.4526 -6.3015,0.7463 -8.14976,0.6528 -3.61648,-0.1831 -12.32348,-5.2337 -14.58232,-8.4587 -1.08533,-1.5495 -2.04403,-1.8302 -4.4479,-1.3022 -1.6854,0.3702 -4.03057,0.3664 -5.21148,-0.01 -2.00142,-0.6352 -2.11492,-1.1831 -1.67266,-8.0745 l 0.47446,-7.3935 -3.2908,0 c -4.31818,0 -5.14279,-1.5868 -2.52022,-4.8498 1.17152,-1.4576 3.32345,-4.4502 4.78207,-6.6502 1.45862,-2.2 4.23561,-5.4563 6.17109,-7.2362 3.86592,-3.5553 3.69221,-4.6118 -0.73755,-4.4858 -3.17507,0.09 -8.41304,3.084 -17.27826,9.8753 -5.26495,4.0333 -6.13015,4.3528 -12,4.4311 -3.47928,0.046 -8.92998,0.4094 -12.11268,0.8067 -5.00504,0.6248 -6.29884,0.417 -9.57796,-1.5384 C 85.1004,847.58966 83,843.02446 83,836.66056 c 0,-3.0461 -0.17292,-3.2073 -2.75,-2.5626 -6.62248,1.6566 -9.24964,1.7706 -9.32431,0.4046 -0.0409,-0.7477 -0.30973,-2.4844 -0.59746,-3.8594 -0.79109,-3.7804 -0.78467,-18.062 0.01,-21.7794 0.38927,-1.8215 0.23977,-4.141 -0.33629,-5.2173 -0.93375,-1.7448 -1.808,-1.8799 -8.76945,-1.3558 -6.80234,0.512 -8.39412,0.2865 -13.23249,-1.8753 -6.64539,-2.969 -11.50982,-6.9264 -13.69508,-11.1413 -1.90447,-3.6733 -1.98632,-12.6598 -0.21069,-23.1309 0.65286,-3.85 1.24474,-7.675 1.31528,-8.5 0.0705,-0.825 0.72395,-2.5608 1.45201,-3.8573 0.85778,-1.5276 0.98134,-2.6998 0.35101,-3.3302 -1.48326,-1.4832 -7.96702,0.6641 -10.16228,3.3656 -1.68941,2.079 -2.63746,2.3014 -9.06193,2.1257 C 10.26989,755.73596 6,753.90526 6,750.80726 c 0,-0.9845 -1.35,-3.0833 -3,-4.6641 -1.96529,-1.8829 -3,-3.8615 -3,-5.7367 0,-3.279 2.35151,-8.3373 4.22896,-9.0968 1.02719,-0.4156 1.02659,-0.6869 -0.003,-1.4143 -2.02787,-1.4325 -0.91736,-23.3657 1.51921,-30.0053 1.0602598,-2.8892 2.2263598,-5.5517 2.5913298,-5.9166 0.36499,-0.365 0.6636,-2.1636 0.6636,-3.997 0,-3.1428 -0.2,-3.3333 -3.4999998,-3.3333 -2.8144,0 -3.5,-0.3855 -3.5,-1.968 0,-2.1682 10.65471,-14.8687 17.10689,-20.3915 4.04976,-3.4664 4.09062,-3.5689 3.40635,-8.5442 -0.586,-4.2607 -0.35617,-5.5081 1.49336,-8.1056 2.61208,-3.6683 11.91784,-10.7198 16.04588,-12.1588 2.18957,-0.7633 2.94752,-1.6622 2.94752,-3.4955 0,-4.2577 1.70958,-6.0628 15.40451,-16.2652 14.43709,-10.7554 16.86142,-12.046 26.37476,-14.0405 8.09368,-1.6968 8.69115,-2.7898 1.44592,-2.645 -7.6889,0.1535 -7.70016,-2 -0.0229,-4.3754 7.58282,-2.3462 14.0451,-6.2355 15.79583,-9.5068 2.24203,-4.1893 12.13132,-8.2721 23.02581,-9.5062 5.05403,-0.5725 10.01162,-1.4811 11.01686,-2.0191 1.00524,-0.538 2.92042,-0.9782 4.25595,-0.9782 2.10011,0 4.52127,-1.5086 11.70325,-7.2921 8.59732,-6.9232 12.44657,-8.8149 23.47109,-11.5345 9.15082,-2.2575 11.87413,-3.3425 13.46507,-5.3651 1.167,-1.4836 3.41801,-2.7664 5.42641,-3.0923 1.88768,-0.3063 7.22869,-2.4208 11.86891,-4.6988 7.45093,-3.658 9.30323,-4.155 15.85263,-4.2535 4.1508,-0.062 11.8187,0.8153 17.4159,1.9935 13.154,2.769 42.0017,3.9838 42.8382,1.8039 1.3147,-3.4262 15.512,-4.6184 25.6618,-2.1549 7.8603,1.9079 21.3625,7.3045 24.5515,9.813 2.2609,1.7784 4.7561,2.2771 14.8333,2.9644 6.6634,0.4545 14.2086,1.3084 16.7673,1.8976 6.4186,1.4781 16.8339,8.0571 28.9854,18.309 5.0139,4.2302 8.1731,6.1129 11.209,6.68 4.5036,0.8414 16.7662,7.3331 22.7974,12.0687 2.0041,1.5736 4.31,2.8611 5.124,2.8611 1.881,0 10.1496,4.5932 11.7585,6.5318 0.6702,0.8075 1.6266,1.4682 2.1254,1.4682 1.0302,0 9.2461,6.166 15.633,11.7325 5.1546,4.4925 7.2221,5.6875 13.5824,7.8507 6.2837,2.1372 17.9895,13.174 24.8363,23.4168 6.0024,8.9797 10.0893,13.4413 14.7965,16.153 1.925,1.109 5.7407,4.9729 8.4794,8.5866 5.495,7.2504 9.1244,11.5578 14.7706,17.5295 2.0625,2.1814 3.75,4.3082 3.75,4.7261 0,0.418 0.6461,1.2961 1.4357,1.9515 0.7897,0.6553 1.7141,2.459 2.0544,4.0083 0.7666,3.4902 6.0831,5.6471 27.5099,11.1606 6.5799,1.6931 26.332,3.6496 29.031,2.8755 1.4819,-0.425 4.6687,-0.3911 7.0817,0.075 5.0597,0.9782 14.5429,0.3688 23.8873,-1.5349 5.6796,-1.1571 10.6332,-1.8275 30.7565,-4.1622 3.3948,-0.3939 4.5493,-1.0601 5.7028,-3.2908 2.2932,-4.4346 6.3152,-5.561 15.3527,-4.2997 8.3762,1.169 12.9679,0.6334 21.271,-2.4813 15.6724,-5.8789 22.985,-7.9415 31.3717,-8.8486 5.1777,-0.56 6.4172,-1.1312 9.5,-4.3773 4.3935,-4.6264 10.1741,-6.5719 17.0925,-5.7525 4.5794,0.5424 6.2794,0.122 15.591,-3.8552 5.7482,-2.4552 11.0277,-4.464 11.7322,-4.464 0.7045,0 2.3642,-1.1531 3.6882,-2.5624 1.324,-1.4093 3.8361,-3.4455 5.5825,-4.5248 2.7805,-1.7185 3.7772,-1.8273 8.0171,-0.8753 6.1147,1.373 9.8229,0.6774 15.4653,-2.9009 4.2946,-2.7235 6.55,-3.409 15.3765,-4.6736 5.7196,-0.8195 10.7297,-2.4799 12.7171,-4.2146 0.9444,-0.8244 2.6202,-1.2627 3.7239,-0.9741 2.9813,0.7797 9.9368,-1.0511 13.4219,-3.5327 2.6509,-1.8876 4.9508,-2.275 17.1,-2.8803 7.7204,-0.3846 15.3023,-1.1851 16.8486,-1.7789 2.6389,-1.0134 2.7721,-1.3419 2.1705,-5.3541 -0.5355,-3.5705 -0.2934,-4.589 1.4698,-6.1846 3.1744,-2.8729 11.0366,-3.4419 24.802,-1.7949 6.7396,0.8064 13.4073,1.1766 14.8171,0.8228 1.4098,-0.3539 3.3206,-1.9898 4.2462,-3.6354 0.9256,-1.6457 2.8079,-3.2846 4.1829,-3.6421 2.7758,-0.7217 12.9593,-0.8332 42,-0.46 10.725,0.1379 21.75,0.019 24.5,-0.2634 17.7003,-1.8199 16.0877,-1.2691 21.1856,-7.2362 2.5691,-3.0072 5.8283,-6.0519 7.2427,-6.7662 4.8773,-2.4628 15.5557,-3.7494 27.1769,-3.2743 10.0916,0.4126 12.1696,0.8227 18.1698,3.5859 7.5758,3.4889 9.9068,3.811 11.725,1.6201 1.5655,-1.8863 4.4193,-1.9175 7.2852,-0.08 3.8743,2.4845 8.0884,2.2846 11.4488,-0.543 2.3616,-1.9871 4.5971,-2.7124 9.8821,-3.2059 8.672,-0.8098 29.6001,1.7063 38.3505,4.6107 4.1581,1.3801 8.3512,2.0586 11.5334,1.8661 5.7728,-0.3491 13.6717,-0.4795 18,-0.2972 1.65,0.07 12.675,0 24.5,-0.1606 19.7788,-0.2639 24.7777,0.075 33.6577,2.2812 2.3639,0.5874 3.5665,0.3753 4.7845,-0.8435 1.2316,-1.2324 3.7729,-1.6627 10.4575,-1.7707 4.8568,-0.078 9.7616,-0.6409 10.8997,-1.25 3.337,-1.7859 12.2267,-1.2788 17.2006,0.9813 2.475,1.1246 7.2,2.7255 10.5,3.5576 3.3,0.832 8.475,2.1929 11.5,3.0241 8.9676,2.464 10.9121,2.6475 12.6634,1.1945 1.1451,-0.95 4.4097,-1.3367 10.7409,-1.2721 8.6208,0.088 16.15,1.5248 26.5957,5.0752 2.475,0.8412 6.525,1.4736 9,1.4052 4.3765,-0.1209 23.9558,3.0997 31,5.0991 6.3088,1.7908 14.4032,5.2469 19.8846,8.4904 4.2817,2.5336 5.7421,2.9629 7.1298,2.0963 2.4608,-1.5369 12.2033,1.346 23.4856,6.9494 11.5654,5.744 30.2246,10.9008 35.0557,9.6883 1.5697,-0.394 5.2063,0.7775 11.1375,3.5879 4.8438,2.295 9.9318,4.6399 11.3068,5.2108 1.375,0.5709 3.2893,1.4404 4.254,1.9323 0.9647,0.4918 7.0404,2.6302 13.5016,4.7518 6.4612,2.1217 16.2469,5.9031 21.746,8.4032 5.4991,2.5 13.1484,5.9784 16.9984,7.7297 3.85,1.7513 12.1102,5.3933 18.3561,8.0934 6.2458,2.7 12.5458,5.7176 14,6.7058 1.4541,0.9881 4.6689,2.6479 7.1439,3.6884 2.475,1.0406 5.6945,2.7037 7.1544,3.696 1.4599,0.9922 2.9862,1.804 3.3919,1.804 0.4057,0 3.4862,1.7338 6.8456,3.8529 3.3595,2.1191 9.0331,5.3508 12.6081,7.1817 3.575,1.8308 8.3,4.5275 10.5,5.9926 2.2,1.4652 6.25,3.495 9,4.5108 2.75,1.0159 7.7,3.5331 11,5.594 22.3506,13.958 28.8268,16.8778 45.0942,20.3307 21.5049,4.5645 31.0511,3.0892 47.2506,-7.3023 4.4245,-2.8382 8.7179,-5.1604 9.5408,-5.1604 2.6399,0 2.8894,2.0785 0.5486,4.5701 -3.2354,3.4439 -1.7027,4.1179 2.3445,1.0309 1.8756,-1.4305 3.9003,-2.601 4.4995,-2.601 0.5991,0 3.9316,-2.2982 7.4056,-5.1073 3.4739,-2.809 7.2452,-5.5432 8.3807,-6.076 1.1355,-0.5327 2.7285,-2.063 3.54,-3.4004 1.351,-2.2265 19.783,-21.3464 26.5396,-27.53 5.986,-5.4784 11.3559,-12.6973 11.3559,-15.2661 0,-1.0952 0.8427,-2.9203 1.8727,-4.0557 1.03,-1.1355 2.3048,-3.4145 2.8329,-5.0645 1.4376,-4.4918 4.0116,-4.518 3.4883,-0.035 -0.3517,3.0131 -0.1153,3.5355 1.6002,3.5355 1.6768,0 2.0816,-0.793 2.4248,-4.75 0.2265,-2.6125 0.6075,-5.4053 0.8465,-6.2061 0.3156,-1.0575 -0.7345,-1.6242 -3.8353,-2.0699 -4.9025,-0.7047 -6.5723,-1.979 -6.0509,-4.6178 0.2964,-1.5001 1.2893,-1.8562 5.1754,-1.8562 l 4.8087,0 2.3694,-7.2309 c 1.3033,-3.9771 2.6547,-8.7509 3.0032,-10.6087 0.6198,-3.3038 0.5471,-3.3915 -3.3213,-4.0101 -7.9409,-1.2698 -7.954,-5.9177 -0.017,-6.0691 4.1658,-0.08 4.2758,-0.1697 4.9736,-4.0812 0.3924,-2.2 0.7395,-6.3697 0.7712,-9.2659 0.056,-5.1386 -0.01,-5.2611 -2.6924,-5.0672 -1.5125,0.1093 -3.7625,-0.3494 -5,-1.0193 -4.1026,-2.2209 -2.0412,-5.6903 2.6518,-4.463 1.1521,0.3012 3.2205,-0.1899 4.5964,-1.0915 2.177,-1.4264 2.5018,-2.3676 2.5018,-7.2501 0,-3.0861 0.5111,-7.3169 1.1358,-9.4019 1.4871,-4.9636 0.6683,-7.1741 -2.2566,-6.0921 -4.9311,1.8241 -8.9985,-0.936 -6.4717,-4.3917 0.9895,-1.3531 1.6869,-1.5039 3.1555,-0.682 2.4194,1.354 5.0344,-0.01 5.7569,-2.9989 0.3025,-1.252 -0.013,-6.1014 -0.7019,-10.7764 -1.3944,-9.4681 -0.3981,-8.7333 -9.9453,-7.3355 -3.7287,0.5459 -3.8188,0.4866 -3.5,-2.3021 0.2868,-2.508 0.6987,-2.832 3.3273,-2.6164 1.7165,0.1408 4.0116,-0.5397 5.3643,-1.5905 l 2.3643,-1.8365 -2.4004,-9.4095 -2.4003,-9.4095 -4.6232,0.3235 c -4.0296,0.2819 -4.7129,0.041 -5.321,-1.8749 -0.7858,-2.4757 0.8296,-4.0262 4.0163,-3.8549 2.9938,0.1609 6.5047,-1.1753 6.4646,-2.4603 -0.02,-0.6234 -0.6786,-2.2584 -1.4646,-3.6334 -0.786,-1.375 -1.452,-3.85 -1.4799,-5.5 -0.085,-5.0436 -1.3407,-6.1475 -5.3449,-4.6995 -4.2929,1.5523 -8.6752,0.1799 -8.6752,-2.7167 0,-2.5446 1.663,-3.5153 5.5715,-3.2521 4.5594,0.3071 6.0446,-1.8904 4.0202,-5.9483 -0.8754,-1.7549 -1.606,-3.9091 -1.6235,-4.7871 -0.05,-2.5304 -2.5525,-5.1931 -4.263,-4.5367 -2.0048,0.7693 -5.7052,-1.2152 -5.7052,-3.0596 0,-0.7863 0.9289,-1.9268 2.0642,-2.5344 1.6714,-0.8945 1.9426,-1.7098 1.4253,-4.2851 -1.3353,-6.6479 -1.4296,-6.7641 -5.3183,-6.5518 -5.1477,0.2809 -8.1712,-0.9017 -8.1712,-3.1961 0,-1.574 0.7112,-1.9326 3.8333,-1.9326 2.1084,0 4.0918,-0.2584 4.4076,-0.5742 0.4692,-0.4692 -7.5745,-19.0928 -8.7571,-20.2754 -0.1924,-0.1924 -1.9329,0.1727 -3.8678,0.8113 -3.8881,1.2832 -7.616,0.094 -7.616,-2.4295 0,-1.6004 3.4618,-2.9829 5.0349,-2.0107 1.3964,0.8631 3.9676,-1.3432 3.9553,-3.394 -0.01,-0.8951 -1.1161,-4.004 -2.4684,-6.9086 l -2.4586,-5.2811 -6.5148,0.6675 c -7.0227,0.7195 -9.5484,-0.2666 -9.5484,-3.7278 0,-1.571 0.7754,-1.88 4.75,-1.8928 2.6125,-0.01 5.2995,-0.3644 5.971,-0.7911 1.5481,-0.9836 0.5729,-7.7048 -1.3492,-9.3 -0.7545,-0.6262 -1.3868,-1.6459 -1.4051,-2.2661 -0.018,-0.6201 -0.9146,-2.1853 -1.9918,-3.4782 -1.7435,-2.0926 -2.3051,-2.2298 -5.1159,-1.25 -4.5467,1.585 -6.5896,1.37 -8.8955,-0.9358 -2.681,-2.681 -1.7151,-3.9635 2.9847,-3.9635 2.2787,0 4.7847,-0.7729 6.1866,-1.9081 l 2.3563,-1.908 -2.4915,-7.1849 c -1.3703,-3.9517 -2.7643,-7.3536 -3.0978,-7.5597 -0.3336,-0.2062 -3.0291,0.5107 -5.99,1.5929 -6.8743,2.5127 -7.5816,2.4753 -8.137,-0.4297 -0.4088,-2.1389 -0.018,-2.4679 3.6222,-3.05 4.8978,-0.7832 8.603,-3.973 8.603,-7.4063 0,-2.1495 -3.6943,-14.83303 -4.6819,-16.07407 -0.1873,-0.23532 -2.0842,0.55218 -4.2154,1.75 -4.7114,2.64792 -5.1027,2.67356 -5.1027,0.33436 0,-1.09088 2.04,-3.23422 4.9968,-5.25 4.7414,-3.23238 4.9655,-3.58542 4.3836,-6.90651 -0.3373,-1.925 -1.215,-4.13812 -1.9506,-4.91805 -1.1473,-1.21661 -1.8842,-1.03904 -5.1873,1.25 -4.3948,3.04559 -6.2425,3.36477 -6.2425,1.07834 0,-1.73461 3.7896,-5.32368 5.6774,-5.37702 0.6476,-0.0183 2.048,-1.14007 3.1121,-2.49282 1.8366,-2.33483 1.8588,-2.80388 0.4382,-9.25 -0.823,-3.73475 -1.5811,-6.89811 -1.6847,-7.0297 -0.1035,-0.13158 -2.0421,0.489 -4.308,1.37908 -7.9614,3.12731 -10.107,-1.00309 -2.485,-4.78374 l 4.75,-2.35609 0.3037,-5.87835 c 0.2566,-4.96566 -0.045,-6.24975 -1.9434,-8.27036 l -2.2472,-2.39201 2.1935,-1.53634 c 2.7603,-1.93345 2.9685,-3.90816 0.2591,-2.45812 -3.152,1.68693 -10.0278,1.29749 -10.7596,-0.60943 -0.8449,-2.20179 2.5464,-4.60679 5.465,-3.87563 2.947,0.73824 7.7433,-3.73979 6.7203,-6.27423 -0.3787,-0.93804 -0.9177,-3.31352 -1.1979,-5.27885 l -0.5094,-3.57332 -5.3906,0.44703 c -5.8501,0.48513 -8.3935,-0.71585 -8.3935,-3.96334 0,-1.59157 0.643,-1.88013 3.7774,-1.69519 5.5684,0.32856 10.2226,-2.0242 10.2226,-5.16766 0,-2.14398 -0.698,-2.74366 -4.5,-3.86626 -2.475,-0.73078 -4.5,-1.89892 -4.5,-2.59587 0,-1.9852 2.653,-3.68984 5.1904,-3.33503 2.1472,0.30026 2.3096,-0.0276 2.3096,-4.66422 0,-4.91035 -0.069,-5.02187 -4.5,-7.23967 -2.475,-1.23887 -5.0359,-2.25714 -5.691,-2.26282 -1.7654,-0.0153 -2.6897,-2.02964 -1.4844,-3.23496 0.9917,-0.99168 5.7786,-0.22974 10.1892,1.62184 2.0342,0.85394 6.0106,-6.14608 4.1459,-7.29849 -0.677,-0.4184 -1.4529,-2.07428 -1.7242,-3.67972 -0.8328,-4.92751 -1.0993,-5.14346 -6.946,-5.62832 -5.5298,-0.45857 -7.4407,-1.65248 -7.4742,-4.66989 -0.012,-1.10728 1.3649,-1.24321 6.9847,-0.68945 6.6744,0.65768 7,0.59155 7,-1.42181 0,-1.49723 -1.091,-2.56353 -3.75,-3.66496 -6.7817,-2.80923 -7.1565,-3.78625 -1.6665,-4.34457 4.8853,-0.49682 4.9185,-0.52453 5.2336,-4.36315 0.2374,-2.8922 -0.2024,-4.34717 -1.75,-5.78895 -2.6667,-2.4844 -2.6146,-3.63104 0.1829,-4.02835 1.4092,-0.20014 2.3645,-1.12283 2.5564,-2.46923 0.2693,-1.88941 -0.2755,-2.20981 -4.5,-2.64631 -6.6749,-0.68968 -11.5901,-2.05509 -12.0179,-3.3385 -0.4089,-1.2268 13.4207,-2.79808 15.9807,-1.81569 2.1067,0.80839 3.7308,-2.38076 3.7308,-7.32579 0,-3.67239 -0.2335,-3.97741 -3.8814,-5.07034 -4.7454,-1.42177 -7.1458,-3.82229 -4.7437,-4.74404 0.88,-0.33772 3.0229,-0.11804 4.7618,0.48816 1.739,0.60621 3.5097,1.10219 3.935,1.10219 1.1082,0 2.7096,-5.58897 3.4697,-12.10895 l 0.6538,-5.60894 -4.6846,-0.52802 c -2.5765,-0.29041 -5.1837,-1.0272 -5.7938,-1.63731 -1.7252,-1.72518 2.1737,-4.20493 5.5332,-3.51919 3.9373,0.80367 9.1029,-0.46463 7.8914,-1.93754 -0.5248,-0.63803 -1.2778,-3.33334 -1.6733,-5.98958 -0.4665,-3.13326 -1.2896,-5.00798 -2.3436,-5.33761 -4.043,-1.26444 -10.538,-4.96337 -10.9436,-6.23239 -0.3595,-1.12494 0.4128,-1.25869 3.9359,-0.68167 8.5606,1.40202 8.3544,1.47273 8.6813,-2.97711 0.4469,-6.08311 -1.1029,-9.15574 -5.1869,-10.28339 -3.9791,-1.09866 -8.1178,-4.52958 -7.2188,-5.98422 0.3826,-0.61898 2.3308,-0.45975 5.2969,0.43292 2.5804,0.7766 5.0588,1.0449 5.5075,0.59622 0.4487,-0.44868 1.4247,-3.04045 2.1689,-5.7595 0.7442,-2.719048 1.6737,-5.689898 2.0655,-6.601898 0.5769,-1.34295 -0.3221,-1.95889 -4.7286,-3.23991 -5.9236,-1.72203 -8.7031,-4.00146 -6.9801,-5.7244 0.717,-0.71697 2.2339,-0.70559 4.9076,0.0368 7.1597,1.98798 9.3,1.49716 10.9774,-2.51737 2.4454,-5.85269 1.5833,-8.61496 -3.1075,-9.95612 -10.0106,-2.86218 -16.8497,-6.32489 -17.3233,-8.77104 -0.4215,-2.17674 1.5092,-2.12618 8.6048,0.22531 3.1452,1.04231 7.2935,2.22151 9.2185,2.62044 1.925,0.39894 4.7078,1.34235 6.184,2.09647 2.4939,1.27396 2.8321,1.18304 4.7718,-1.28292 2.8021,-3.56234 3.5571,-7.00612 1.9584,-8.93253 -0.7201,-0.86761 -5.1578,-3.46317 -9.8617,-5.76793 -9.7518,-4.77812 -15.0525,-8.411141 -15.0525,-10.316751 0,-2.18689 2.3169,-1.545 15.0456,4.168271 6.7152,3.01412 12.602,5.23756 13.0819,4.94099 1.9671,-1.21575 0.6367,-3.21044 -3.1275,-4.68906 -5.0144,-1.969721 -5.4581,-4.748041 -0.75,-4.696701 1.7875,0.0195 4.375,0.67854 5.75,1.46456 3.3418,1.91032 4,1.84637 4,-0.38859 0,-1.95112 -8.3528,-11.08719 -13.3587,-14.61141 -5.7977,-4.08162 -10.1644,-7.70947 -10.9467,-9.09439 -1.413,-2.50169 2.2203,-2.84465 5.3809,-0.50793 1.6121,1.19188 4.4622,3.20614 6.3337,4.47613 5.5413,3.76042 11.8986,8.8856 14.8496,11.97156 2.2627,2.36622 3.0249,2.66406 4.239,1.65648 1.5883,-1.31819 1.5445,-1.44802 -2.531,-7.50185 -3.2579,-4.83937 -4.5466,-8.5 -2.9924,-8.5 1.5623,0 4.1767,2.72663 7.9106,8.25 3.3115,4.89851 5.4045,5.73582 9.2257,3.69076 1.9567,-1.04719 1.9539,-1.1012 -0.2453,-4.75 -1.2235,-2.02992 -4.5063,-6.59578 -7.295,-10.14636 -2.7887,-3.55058 -5.6329,-7.53952 -6.3204,-8.86431 -1.4263,-2.7483596 -1.6326,-5.1800896 -0.4396,-5.1800896 1.2787,0 11.7029,12.4466096 16.372,19.5482996 3.8407,5.84164 4.5637,6.4517 7.6463,6.4517 3.0621,0 3.3373,-0.2263 2.7358,-2.25 -0.3678,-1.2375 -0.9295,-3.9375 -1.2483,-6 -0.7912,-5.11939 1.9338,-5.11939 4.3869,0 l 1.7969,3.75 0.3309,-2.90014 c 0.182,-1.59507 -0.2051,-4.97007 -0.8603,-7.5 -1.5646,-6.04181 -2.22,-15.0998596 -1.0925,-15.0998596 1.1139,0 5.9757,12.9693796 7.1224,18.9999996 1.2833,6.7485 2.7662,10 4.5607,10 1.2348,0 1.5581,-0.87531 1.385,-3.75 -0.3247,-5.3931 -0.073,-7.25 0.9824,-7.25 1.9254,0 4.1851,3.36416 3.9515,5.88286 -0.3358,3.6208 0.9749,7.11714 2.6682,7.11714 1.0663,0 1.3037,-1.04366 0.9664,-4.25 -0.2459,-2.3375 -0.678,-8.35165 -0.9604,-13.36478 -0.2823,-5.01313 -0.7349,-9.7381296 -1.0056,-10.4999996 -0.2708,-0.76187 0.1559,-2.23949 0.9482,-3.2836 2.2279,-2.93595 4.5396,-0.40888001 4.3646,4.77123 -0.1435,4.2481396 0.7006,15.6861896 1.7435,23.6271496 1.3376,10.18363 8.6946,7.00409 10.0086,-4.32549 0.2663,-2.29598 0.8978,-5.74951 1.4033,-7.67451 0.5056,-1.925 1.0313,-4.98848 1.1683,-6.80774 0.31,-4.1173096 2.449,-6.2615196 3.5462,-3.5548796 0.9885,2.43836 0.9705,11.0564296 -0.042,20.1126196 -0.6986,6.24907 -0.5951,7.25 0.75,7.25 0.8584,0 1.6054,-0.5625 1.6601,-1.25 0.8419,-10.57939 1.4806,-12.07691 4.9005,-11.49012 1.0142,0.17402 1.6014,1.71195 1.8131,4.74875 0.8072,11.57745 5.2179,5.07107 8.1407,-12.00863 0.834,-4.8739496 3.6575,-10.9999996 5.0698,-10.9999996 2.3408,0 2.6684,3.58342 0.8945,9.7862496 -1.0154,3.55075 -2.1185,9.21392 -2.4513,12.58483 l -0.6051,6.12892 4.0119,-4.5 c 3.3959,-3.80903 4.2894,-4.32888 5.8192,-3.38556 0.9939,0.61295 1.8719,1.96295 1.9509,3 0.079,1.03706 0.2109,2.33556 0.2929,2.88556 0.082,0.55 2.6423,-3.95 5.6894,-10 5.1981,-10.3207896 6.7884,-12.0165396 8.5992,-9.16982 1.6664,2.61951 -0.037,7.47098 -8.3885,23.88976 -0.7027,1.38148 -0.092,2.11941 3.1044,3.75 5.0982,2.60094 6.715,2.55734 8.1559,-0.21994 0.6421,-1.2375 2.6829,-4.12573 4.5352,-6.4183 1.8523,-2.29256 3.3678,-4.62474 3.3678,-5.18261 0,-1.26 3.6361,-2.49206 4.9528,-1.67824 1.287,0.7954 -0.2107,4.63959 -3.9886,10.23725 -5.5309,8.19534 -6.2569,10.17107 -4.9217,13.394591 0.6601,1.59352 1.5587,2.89731 1.997,2.89731 2.3796,0 4.4552,-1.83817 8.0456,-7.125361 3.7932,-5.58567 6.0539,-7.07682 7.4078,-4.88617 1.0883,1.76099 -3.471,10.392291 -7.9296,15.011531 -3.1802,3.29476 -4.2614,5.16958 -4.0367,7 0.1687,1.375 0.3442,2.8375 0.3901,3.25 0.2062,1.85589 11.1699,-0.40662 14.162,-2.92252 2.309,-1.94147 4.6929,-1.62231 5.439,0.72814 1.0781,3.39697 -1.6939,6.10857 -8.5768,8.39001 -6.8087,2.25679 -8.8086,5.01584 -3.6962,5.09904 1.5095,0.0246 3.287,0.58706 3.95,1.25 0.6629,0.66293 3.1544,1.20533 5.5367,1.20533 4.6311,0 6.4628,1.85617 4.3472,4.40529 -0.9286,1.11888 1.0832,2.71338 10.6381,8.43165 17.6927,10.588388 24.2831,18.020108 22.8333,25.748128 -0.854,4.55235 -3.3157,5.75454 -8.9026,4.34773 -3.5587,-0.89609 -4.9572,-0.82509 -7.2764,0.3694 -1.7572,0.90505 -7.5263,1.74777 -14.871,2.17231 -15.2061,0.87892 -21.5105,2.76325 -27.4317,8.19913 -2.5126,2.30661 -5.6173,5.02235 -6.8994,6.03499 -2.0981,1.65712 -2.2058,2.11629 -1.0771,4.5934 1.7787,3.90385 -0.174,5.83856 -3.1628,3.13371 -2.1006,-1.90105 -2.1387,-1.89324 -4.5746,0.9386 -2.2372,2.60095 -2.318,3.00845 -0.9053,4.56938 1.6985,1.87682 2.0455,4.63259 0.6889,5.47101 -0.4742,0.29302 -2.6982,-0.1885 -4.9425,-1.07006 -2.2442,-0.88155 -4.6688,-1.37628 -5.3879,-1.0994 -1.867,0.71881 -4.2863,11.67606 -2.887,13.07537 0.5937,0.59365 1.0794,2.11436 1.0794,3.37936 0,2.66567 -2.369,3.07386 -4.6429,0.8 -0.825,-0.825 -1.9092,-1.5 -2.4095,-1.5 -1.0657,0 -2.0249,3.66137 -1.6847,6.43074 0.1589,1.29407 -0.5258,2.11881 -2.0766,2.5011 -1.2725,0.3137 -3.0272,1.74635 -3.8993,3.18367 -1.5302,2.52182 -1.4579,2.78061 2.0637,7.3927 2.0071,2.62867 3.6493,5.38968 3.6493,6.13559 0,2.5464 -4.3267,1.38931 -7.0636,-1.88901 l -2.7092,-3.2452 -1.2297,4.4952 c -0.6763,2.47237 -1.8525,6.19182 -2.6136,8.26545 -2.0314,5.53436 -1.7794,6.29468 2.5126,7.58061 4.1404,1.24049 5.757,3.36503 3.7941,4.98623 -0.7919,0.65399 -2.5193,0.52544 -5.1582,-0.38385 -4.4687,-1.53983 -5.6151,-0.77802 -5.3375,3.54677 0.088,1.375 -0.4291,4.26244 -1.1497,6.41652 -1.1806,3.52918 -1.1299,4.0484 0.5134,5.25 1.003,0.73342 2.7502,1.34037 3.8825,1.34879 3.0402,0.0226 4.8054,1.47494 4.381,3.60452 -0.3134,1.57288 -1.2936,1.88017 -5.9975,1.88017 -5.6553,0 -7.0596,0.52728 -7.4009,2.77894 -0.1019,0.67158 -0.878,3.54443 -1.7247,6.38411 -1.6283,5.46079 -1.4353,6.33695 1.3962,6.33695 2.3725,0 4.9512,2.71561 4.2684,4.49496 -0.3456,0.90044 -1.8251,1.3892 -3.962,1.30886 -1.8758,-0.0705 -3.6842,0.14541 -4.0186,0.47984 -0.3344,0.33443 -0.8045,3.7451 -1.0446,7.57925 -0.3975,6.3491 -0.2536,7.02922 1.6126,7.62153 2.6687,0.84701 2.674,4.5359 0.01,6.81702 -1.4853,1.27176 -1.9786,2.77111 -1.8164,5.52064 0.1225,2.07609 -0.1083,4.31035 -0.5129,4.96503 -0.9867,1.5965 1.2153,20.6813 2.9706,25.7463 0.7688,2.21839 1.3978,5.93089 1.3978,8.25 l 0,4.21657 5.5314,0 c 4.0997,0 5.687,0.40563 6.1328,1.56722 0.8425,2.19569 -0.9267,3.6286 -5.3634,4.34377 -3.1734,0.51155 -3.8515,1.04843 -4.1077,3.25231 -0.3376,2.90374 1.4749,10.00996 4.9753,19.50595 1.8916,5.13141 2.7324,6.26094 4.9985,6.71414 1.4984,0.2997 3.2294,1.4886 3.8467,2.642 0.9925,1.8546 0.7702,2.23 -1.9237,3.2468 -2.8726,1.0843 -3.0109,1.3797 -2.4289,5.1888 0.3394,2.2214 1.1824,5.164 1.8733,6.539 0.6908,1.375 1.7531,4.3478 2.3607,6.6062 l 1.1046,4.1061 5.0685,-1.0021 c 4.2017,-0.8308 5.3367,-0.734 6.6369,0.5663 2.0513,2.0513 0.9681,4.7196 -1.9236,4.7383 -4.1244,0.027 -7.3115,2.3208 -6.984,5.0273 0.5424,4.4839 3.3685,13.3816 6.0536,19.0593 l 2.649,5.6014 5.3553,0.5872 c 2.9454,0.323 5.574,0.806 5.8413,1.0733 1.2951,1.295 -1.0803,4.5621 -3.7419,5.1467 -1.6251,0.3569 -2.9547,1.2542 -2.9547,1.9939 0,2.0617 5.9295,16.4052 8.3503,20.1995 1.8763,2.9409 2.546,3.2986 5.2655,2.8129 7.1628,-1.2794 8.9675,3.2329 2.3517,5.8801 -3.523,1.4096 -3.9014,1.8585 -2.9947,3.5528 0.5709,1.0667 1.4855,2.216 2.0326,2.5541 0.547,0.3381 1.0045,1.3757 1.0166,2.3057 0.012,0.9301 0.8685,3.5555 1.9033,5.8342 l 1.8813,4.1432 5.5097,-1.5335 c 5.8756,-1.6354 8.6837,-1.2506 8.6837,1.1901 0,1.7178 -4.9165,4.557 -7.8913,4.557 -2.7988,0 -3.5919,1.8086 -1.7067,3.8918 0.8789,0.9711 1.598,2.4335 1.598,3.2498 0,0.8163 1.125,3.8161 2.5,6.6664 1.375,2.8502 2.5,5.8503 2.5,6.6669 0,0.8165 0.6366,3.1812 1.4148,5.2549 0.7781,2.0736 1.6723,4.9503 1.987,6.3926 0.4192,1.9209 1.3782,2.7836 3.5852,3.225 3.5398,0.708 4.2139,4.1367 1.013,5.1526 -2.6513,0.8415 -2.52,3.6223 0.5191,11 1.3594,3.3 2.4737,6.5304 2.4763,7.1786 0.01,1.9099 2.94,4.2834 4.5358,3.6711 2.5787,-0.9896 6.4688,0.5514 6.4688,2.5624 0,2.0769 -1.8648,3.0879 -5.6953,3.0879 -2.4371,0 -2.5063,0.1697 -1.8512,4.5383 0.3743,2.496 1.3629,6.1713 2.1968,8.1673 0.834,1.996 1.5164,5.5795 1.5164,7.9634 0,3.2297 0.5201,4.6987 2.0408,5.7638 1.6471,1.1537 1.9166,2.0922 1.3966,4.8641 -0.9262,4.9368 0.059,6.7004 3.7529,6.7184 4.0167,0.02 6.1021,1.346 5.3201,3.3838 -0.3886,1.0127 -1.82,1.6065 -3.8957,1.6162 -5.6175,0.026 -6.2901,1.0232 -5.1042,7.5656 0.5721,3.1563 0.7006,7.2441 0.2856,9.0842 -0.415,1.8401 -0.3774,3.5787 0.083,3.8635 0.461,0.2849 1.1402,2.5325 1.5095,4.9947 l 0.6713,4.4767 6.9178,0 c 5.4206,0 7.0508,0.3465 7.5322,1.6009 0.9069,2.3634 -1.4654,3.3666 -8.0018,3.3838 l -5.8247,0.015 0.6841,5.25 c 0.3762,2.8875 0.7586,9.2109 0.8497,14.052 0.1875,9.9572 0.4256,10.3003 7.8482,11.3083 5.1321,0.697 7.3488,2.4321 6.3691,4.9852 -0.6305,1.6431 -2.8252,1.6076 -9.9581,-0.1611 -3.7668,-0.934 -4.6496,0.6359 -3.9424,7.011 0.5452,4.9142 3.3354,9.5546 5.7453,9.5546 1.3699,0 8.5535,5.8502 8.5535,6.9658 0,1.9124 -3.0712,1.7176 -7.6235,-0.4835 -2.6821,-1.2968 -5.1592,-2.0483 -5.5047,-1.67 -0.3454,0.3782 -0.864,2.9255 -1.1522,5.6606 -0.5212,4.945 -0.4939,5.002 4.8781,10.1636 5.7148,5.491 6.4304,7.0318 3.7447,8.0623 -1.0858,0.4167 -2.449,-0.284 -3.952,-2.0313 -3.6785,-4.2766 -5.3904,-3.5315 -5.3904,2.3461 0,2.7574 0.5354,5.8709 1.1898,6.9188 0.9331,1.4941 0.9067,2.2464 -0.1224,3.4864 -0.7218,0.8697 -1.884,1.5812 -2.5829,1.5812 -1.3881,0 -2.7767,2.7182 -2.0167,3.9479 0.2608,0.422 0.074,2.1619 -0.4145,3.8663 -1.2792,4.4604 -0.3069,6.9712 2.9793,7.693 1.5561,0.3417 3.4058,1.3161 4.1106,2.1653 1.0648,1.2831 0.9597,1.7791 -0.6221,2.9357 -1.0468,0.7655 -2.5576,1.3918 -3.3572,1.3918 -1.2377,0 -1.3725,2.6387 -0.907,17.75 0.5615,18.2294 -0.4373,38.6497 -2.3523,48.0883 -0.948,4.6727 -1.496,5.5109 -4.3951,6.7222 -3.5749,1.4937 -7.5095,6.88 -7.5095,10.2802 0,1.1576 -1.0647,4.4794 -2.3659,7.382 -1.3013,2.9025 -3.1427,7.3023 -4.0921,9.7773 -0.9495,2.475 -2.3603,5.85 -3.1351,7.5 -0.7749,1.65 -1.8096,5.025 -2.2994,7.5 -2.7945,14.1229 -3.2375,15.0985 -8.2571,18.1871 -6.0675,3.7334 -10.4679,10.713 -11.3127,17.9439 -0.6145,5.2592 -1.7074,9.186 -3.7715,13.5515 -0.5676,1.2004 -0.7823,2.8331 -0.4772,3.6282 0.7152,1.8639 -1.1228,3.6851 -3.739,3.7046 -4.7308,0.035 -5.0695,1.2341 -2.7449,9.7165 2.36,8.6113 2.1109,11.114 -1.7914,17.99711 -2.1728,3.8325 -10.4194,10.2711 -13.1554,10.2711 -0.8261,0 -3.5018,0.6814 -5.946,1.5142 -4.3548,1.4838 -6.3713,3.7996 -11.6002,13.3218 -0.7055,1.2848 -3.4945,4.983 -6.1977,8.2181 -6.8004,8.1386 -11.2046,19.67193 -10.4189,27.28433 0.4887,4.7356 0.1493,6.3833 -2.4375,11.8317 -4.1284,8.6956 -8.4758,14.32 -13.1464,17.0081 -3.0786,1.7718 -5.1951,4.4626 -9.671,12.295 -3.1515,5.5147 -7.6898,13.0404 -10.0853,16.7236 -2.3954,3.6832 -4.3553,7.1551 -4.3553,7.7152 0,0.5601 -1.3983,2.6109 -3.1072,4.5573 -1.709,1.9465 -3.5224,5.3864 -4.0297,7.6444 -1.0028,4.4631 -6.334,16.0068 -10.3386,22.3863 -2.7442,4.3717 -2.6814,4.2325 -4.5108,10 -0.6978,2.2 -2.1001,5.7487 -3.1162,7.886 -1.0161,2.1373 -1.6305,4.237 -1.3654,4.6659 0.4875,0.7888 -8.1574,28.6006 -9.4644,30.4481 -0.3891,0.55 -1.3163,3.025 -2.0604,5.5 -3.8809,12.9084 -7.3856,22.854 -9.094,25.8072 -1.0523,1.8189 -1.9133,3.9878 -1.9133,4.8198 0,0.832 -1.35,3.4748 -3,5.873 -1.65,2.3982 -3,4.567 -3,4.8197 0,0.2526 -3.1067,5.1215 -6.9038,10.8198 -8.0068,12.0159 -14.5576,19.859 -21.5962,25.8567 -2.75,2.3433 -11.075,10.4107 -18.5,17.9276 -7.425,7.5169 -15.1142,14.4204 -17.0872,15.3413 -1.9729,0.9208 -6.6642,3.4723 -10.4249,5.67 -3.7608,2.1977 -9.1995,4.486 -12.086,5.0853 -6.0486,1.2557 -6.616,1.7895 -8.798,8.279 -1.941,5.7728 -7.8928,13.8742 -13.8225,18.815 -9.7764,8.1459 -26.4417,17.5825 -37.018,20.9612 -3.2686,1.0442 -7.5933,3.2057 -9.6105,4.8033 -5.9427,4.7067 -20.1594,10.8269 -26.6529,11.4738 -2.2,0.2191 -7.0938,0.9605 -10.8752,1.6473 -4.1136,0.7473 -8.9338,0.959 -12,0.5272 -4.5421,-0.6397 -22.6697,-1.6023 -31.2802,-1.661 -3.4272,-0.023 -11.1362,3.1142 -30.0053,12.2125 -18.8198,9.0744 -23.968,10.1843 -47.8393,10.3132 -21.3601,0.1154 -46.1872,-1.6891 -56,-4.0703 -19.5315,-4.7396 -23.8662,-5.4733 -34,-5.7553 -13.2913,-0.3698 -18.9585,-1.1432 -27.5,-3.7526 -10.2779,-3.1399 -31.405,-10.8843 -32.45,-11.8949 -1.0648,-1.0298 -20.9991,-1.2358 -26.8,-0.277 -2.0625,0.341 -3.75,0.9884 -3.75,1.4389 0,0.4505 -1.2857,2.7541 -2.8571,5.1192 -4.1921,6.3092 -4.7472,10.5349 -1.8043,13.7332 2.531,2.7507 5.6614,9.9193 5.6614,12.9647 0,1.0215 -0.7237,2.4579 -1.6082,3.192 -1.3664,1.134 -1.8175,1.0485 -3,-0.5687 -0.7655,-1.0468 -1.3918,-3.0985 -1.3918,-4.5592 0,-2.2887 -3.5593,-8.0273 -4.2625,-6.8722 -0.1373,0.2257 -1.3252,3.5603 -2.6396,7.4103 -3.8211,11.1921 -4.1027,13.9817 -1.976,19.5786 2.1673,5.7039 2.3435,8.056 0.7249,9.6746 -1.6769,1.6769 -4.4786,-0.1501 -5.31,-3.4627 -0.9367,-3.7319 -2.0134,-1.6916 -3.5348,6.6985 -0.6467,3.5663 -2.3158,9.1903 -3.7091,12.4976 -1.3933,3.3074 -2.6138,8.2634 -2.7121,11.0134 -0.098,2.75 -0.7042,5.9 -1.3464,7 -2.1448,3.674 -6.0193,14.9483 -6.6659,19.3966 -0.3514,2.4181 -1.4902,6.4681 -2.5306,9 -1.2312,2.9964 -2.4657,10.5278 -3.5362,21.5743 -0.9046,9.3341 -2.0166,18.962 -2.4712,21.3954 -0.4634,2.4804 -0.3986,8.8644 0.1475,14.5291 0.5358,5.5575 1.107,17.9796 1.2693,27.6046 0.2036,12.0683 0.8058,19.5175 1.9401,24 2.5971,10.2637 1.3992,35.409 -2.2739,47.7314 -0.5297,1.7772 -0.7981,5.8272 -0.5963,9 0.7406,11.6468 0.8047,24.9388 0.1255,26.0378 -0.384,0.6212 0.1698,3.7398 1.2306,6.9301 1.0608,3.1904 2.4348,8.5007 3.0534,11.8007 0.6186,3.3 1.5212,7.575 2.0058,9.5 0.4845,1.925 1.6609,6.875 2.614,11 0.9532,4.125 2.1201,7.9275 2.5932,8.45 0.4732,0.5225 0.8603,2.0481 0.8603,3.3902 0,2.3692 2.7369,11.5202 7.6175,25.4694 1.3104,3.7453 2.3825,8.1062 2.3825,9.691 0,1.5847 0.4441,3.1558 0.9869,3.4913 0.5427,0.3354 1.6914,3.1745 2.5525,6.309 0.8611,3.1345 2.5127,7.6899 3.6702,10.123 1.1574,2.4332 2.2784,6.0332 2.491,8 0.2126,1.9669 1.042,5.7953 1.843,8.5076 0.801,2.7123 1.4564,5.8704 1.4564,7.0179 0,1.1475 1.2192,3.8783 2.7093,6.0685 2.0623,3.0311 2.7416,5.2956 2.8446,9.4821 0.2548,10.365 1.7313,15.1943 5.9288,19.3918 3.1247,3.1247 4.0523,6.9024 2.5722,10.4756 -1.0447,2.5221 -0.6853,3.9253 3.3174,12.9531 3.0165,6.8034 4.3639,11.1128 4.1078,13.1371 -0.2511,1.9836 0.9679,6.0521 3.5693,11.9127 2.1728,4.8952 3.9506,9.3921 3.9506,9.9931 0,0.601 1.575,4.4568 3.5,8.5684 1.925,4.1117 3.5,8.1549 3.5,8.9849 0,2.1469 3.903,11.7969 5.4938,13.5833 0.7347,0.825 2.0022,4.65 2.8167,8.5 0.8144,3.85 2.8762,10.375 4.5817,14.5 1.7055,4.125 3.1025,7.8563 3.1044,8.2917 0,0.742 2.3119,5.911 9.0259,20.2083 4.5904,9.7751 7.0471,16.7138 7.6123,21.5 0.338,2.863 1.8653,6.5007 4.1983,10 3.5537,5.3303 4.464,8.0994 7.889,24 0.8886,4.125 2.5764,8.85 3.7509,10.5 1.1744,1.65 3.1989,5.7 4.4988,9 1.2999,3.3 3.1654,7.0444 4.1455,8.3208 0.9801,1.2765 2.4784,4.8765 3.3296,8 2.58,9.4674 3.7532,12.5706 5.6955,15.0641 1.0217,1.3116 1.8576,3.2713 1.8576,4.3547 0,4.5651 15.7049,29.8297 19.675,31.6512 1.1962,0.5489 4.0628,3.778 6.3702,7.1757 2.3074,3.3978 6.3858,8.5967 9.0631,11.5531 2.6773,2.9564 6.5034,7.8386 8.5025,10.8494 1.999,3.0107 4.5205,5.7553 5.6033,6.099 1.2744,0.4044 1.8044,1.2533 1.5028,2.4067 -0.3273,1.2514 0.6794,2.4878 3.3817,4.1535 2.1162,1.3045 3.8597,2.6763 3.8745,3.0486 0.097,2.4352 18.3796,7.6053 20.5436,5.8093 0.8684,-0.7206 2.6739,-0.7278 5.8193,-0.023 3.5423,0.7939 5.9403,0.6684 10.7433,-0.562 8.9043,-2.2812 32.1496,-1.5605 36.7186,1.1385 1.7611,1.0403 3.2021,2.2329 3.2021,2.6502 0,0.4173 1.3693,1.4668 3.043,2.3323 1.6736,0.8655 3.4443,2.6294 3.935,3.9198 0.7093,1.8656 1.8784,2.4733 5.707,2.9664 5.3462,0.6886 4.5608,0.6781 19.815,0.2648 24.3442,-0.6595 44.2278,2.8363 54.125,9.5159 5.4008,3.6449 20.7973,18.9994 23.876,23.8109 1.2318,1.925 3.198,4.3572 4.3693,5.405 1.1713,1.0477 2.1297,2.3623 2.1297,2.9212 0,0.559 0.6449,1.7289 1.433,2.5998 0.7882,0.8709 1.7462,3.9438 2.1289,6.8287 0.7379,5.5627 0.6378,5.6854 -4.3119,5.2844 -1.4144,-0.1145 -2.25,0.3749 -2.25,1.3179 0,3.8619 -2.6789,4.6439 -15.8214,4.6186 -6.9732,-0.014 -14.5775,-0.4627 -16.8984,-0.9983 -4.373,-1.0092 -4.8248,-0.8911 -15.8897,4.1503 -2.2603,1.0298 -4.8113,1.8724 -5.669,1.8724 -0.8577,0 -2.8334,0.6458 -4.3905,1.4352 -3.6804,1.8658 -17.9052,3.783 -26.9479,3.6319 -3.9143,-0.065 -8.1893,0.2712 -9.5,0.7479 -1.4998,0.5456 -4.9775,0.3513 -9.3831,-0.5242 -3.85,-0.7651 -8.5236,-1.364 -10.3858,-1.3309 -1.8621,0.033 -7.2621,-0.6919 -12,-1.6111 -6.9226,-1.3432 -15.3889,-1.6971 -43.1142,-1.8026 -24.6494,-0.094 -36.3559,-0.5171 -41,-1.4825 -3.575,-0.7432 -9.65,-1.4629 -13.5,-1.5993 -13.1639,-0.4665 -23.2328,-3.2211 -30.2748,-8.2825 -1.7739,-1.2749 -3.2252,-3.0286 -3.2252,-3.897 0,-0.8684 -1.5396,-3.4578 -3.4214,-5.7542 -1.9944,-2.434 -3.6848,-5.8134 -4.0532,-8.103 -1.5748,-9.7893 -5.1221,-18.7036 -14.326,-36.0007 -1.4847,-2.7901 -6.7707,-9.1516 -11.7468,-14.1367 -9.0069,-9.0232 -9.0817,-9.0714 -16.7535,-10.7782 -4.2383,-0.9429 -7.9561,-2.1189 -8.2616,-2.6133 -0.3056,-0.4943 -1.5415,-0.9013 -2.7465,-0.9044 -2.5395,-0.01 -12.7607,-8.9275 -24.7588,-21.6093 -3.6483,-3.8563 -11.9322,-18.7357 -11.9322,-21.4325 0,-0.6292 -0.6096,-2.3384 -1.3546,-3.7983 -1.8501,-3.6253 -4.644,-12.5078 -4.6516,-14.7885 0,-1.0262 -0.6305,-3.0625 -1.3937,-4.5252 -0.7631,-1.4627 -1.7107,-5.0627 -2.1058,-8 -0.395,-2.9373 -1.053,-5.7906 -1.4621,-6.3406 -0.4091,-0.55 -1.7896,-5.5 -3.0677,-11 -2.8715,-12.3567 -2.4348,-10.686 -4.9661,-19 -1.1722,-3.85 -2.5057,-9.796 -2.9633,-13.2132 -0.5052,-3.7724 -1.6597,-7.2653 -2.9387,-8.8914 -1.1586,-1.473 -2.0818,-3.852 -2.0515,-5.2868 0.1176,-5.5677 -1.3313,-12.9009 -3.8743,-19.6086 -1.6598,-4.3779 -2.7096,-9.2476 -2.8026,-13 -0.2185,-8.8129 -1.3265,-13.7121 -3.6817,-16.2799 -1.3679,-1.4914 -2.0159,-3.3962 -1.8737,-5.5079 0.2433,-3.6125 -0.7068,-8.6686 -3.7012,-19.6959 -1.1177,-4.116 -1.7987,-8.4141 -1.5133,-9.5513 0.441,-1.7569 -1.8614,-7.7459 -5.6518,-14.7014 -0.5205,-0.9551 -0.9463,-2.7231 -0.9463,-3.929 0,-1.2059 -0.4216,-3.5746 -0.937,-5.2636 -4.8989,-16.0569 -8.5205,-29.4776 -10.2733,-38.071 -0.561,-2.75 -1.6435,-6.575 -2.4055,-8.5 -0.7621,-1.925 -1.8261,-6.709 -2.3644,-10.631 -0.5384,-3.9221 -1.438,-8.3389 -1.9993,-9.8151 -0.5613,-1.4763 -1.0205,-3.7428 -1.0205,-5.0368 0,-3.1763 -4.5997,-12.1495 -6.6266,-12.9273 -1.226,-0.4705 -1.4942,-1.4578 -1.0835,-3.9889 0.3367,-2.0747 -0.041,-4.4629 -0.985,-6.2322 -1.7046,-3.1943 -4.3674,-13.4585 -3.7505,-14.4568 0.2178,-0.3523 -0.6473,-2.8391 -1.9223,-5.5262 -1.2751,-2.6871 -2.922,-7.8107 -3.6598,-11.3857 -2.3603,-11.4361 -3.557,-14.5173 -5.5641,-14.3264 -2.4306,0.2313 -5.4082,-1.4316 -5.4082,-3.0202 0,-0.702 0.9,-2.2423 2,-3.423 2.3833,-2.5582 2.5,-4.3628 0.5286,-8.175 -1.5354,-2.9693 -2.7885,-7.4522 -4.9069,-17.5554 -0.692,-3.3 -1.9554,-7.35 -2.8076,-9 -0.8522,-1.65 -2.1268,-5.475 -2.8324,-8.5 -0.7056,-3.025 -2.1151,-7.3296 -3.1323,-9.5657 -1.0172,-2.2362 -1.8494,-4.5481 -1.8494,-5.1378 0,-1.1626 -4.109,-10.5405 -9.6548,-22.0346 -1.9208,-3.981 -4.993,-8.6536 -6.8271,-10.3837 -1.8342,-1.73 -4.0996,-4.9978 -5.0343,-7.2618 -0.9347,-2.264 -3.4075,-7.4914 -5.4951,-11.6164 -5.8895,-11.6373 -10.5944,-23.7797 -12.3993,-32 -0.9057,-4.125 -2.0839,-9.419 -2.6181,-11.7644 -0.5342,-2.3453 -0.9713,-5.3617 -0.9713,-6.7029 0,-1.3412 -0.3918,-3.4723 -0.8706,-4.7356 -0.9955,-2.6267 -3.006,-9.6146 -6.2317,-21.6594 -1.2318,-4.5993 -3.3537,-9.9993 -4.7155,-12 -6.6231,-9.7311 -10.2199,-19.4183 -14.9028,-40.1377 -2.1039,-9.3083 -1.0454,-23.4364 2.3564,-31.4515 3.4378,-8.1001 4.1965,-9.7816 5.2105,-11.5485 0.4735,-0.825 1.6921,-3.3 2.7081,-5.5 1.016,-2.2 3.1069,-5.9351 4.6464,-8.3001 1.5396,-2.3651 2.7992,-5.1409 2.7992,-6.1684 0,-1.0276 1.7698,-3.7104 3.933,-5.9618 2.1631,-2.2513 5.1096,-6.4506 6.5477,-9.3315 1.4381,-2.881 3.6315,-6.6384 4.8741,-8.3498 1.2427,-1.7114 2.876,-5.6822 3.6298,-8.824 1.0807,-4.505 2.1783,-6.4039 5.1929,-8.9843 2.3277,-1.9925 3.8225,-4.1517 3.8225,-5.5217 0,-1.2374 0.6366,-3.4442 1.4147,-4.9041 2.1923,-4.1133 5.4766,-13.2891 6.0998,-17.042 0.3094,-1.8633 0.9952,-4.1962 1.524,-5.1843 0.5288,-0.9881 0.9615,-2.7411 0.9615,-3.8955 0,-1.1544 1.0705,-4.2215 2.379,-6.8157 1.3084,-2.5943 2.6793,-6.7418 3.0464,-9.2168 0.367,-2.475 1.1501,-6.6739 1.7401,-9.3309 0.6512,-2.9325 0.7121,-5.1915 0.1549,-5.7487 -1.0459,-1.0459 -11.4742,5.4911 -18.9395,11.8723 -4.3865,3.7494 -4.8644,4.5896 -5.3489,9.4019 -0.4004,3.9775 -0.9648,5.3671 -2.282,5.6183 -1.1979,0.2285 -1.75,-0.3017 -1.75,-1.6806 0,-3.8817 -2.1615,-3.2751 -7.5576,2.1209 -3.92,3.92 -5.4424,6.2027 -5.4424,8.1604 0,3.4078 -1.6498,6.5864 -3.4186,6.5864 -1.7933,0 -2.7289,-3.8559 -1.4949,-6.1617 1.6152,-3.018 -0.091,-2.131 -6.5089,3.3843 -5.4607,4.6925 -7.8809,7.315 -8.1004,8.7774 -1.113,7.4157 -1.8254,10.0441 -2.9824,11.0043 -1.7631,1.4633 -3.4948,0.4701 -3.4948,-2.0043 0,-4.5469 -4.028,-2.9376 -12.3285,4.9258 -6.1733,5.8483 -7.6715,8.7825 -7.6715,15.0245 0,3.822 -0.3647,5.0497 -1.5,5.0497 -0.825,0 -1.5,-0.6484 -1.5,-1.441 0,-0.7925 -0.4279,-1.7054 -0.9509,-2.0286 -1.144,-0.7071 -14.6292,11.7777 -17.1255,15.855 -0.9715,1.5869 -4.4262,5.6369 -7.677,9 -8.4249,8.7159 -25.2466,31.4773 -25.2466,34.1612 0,0.4277 -1.979,4.1922 -4.3978,8.3655 -2.4188,4.1733 -5.3975,10.5129 -6.6193,14.0879 -2.763,8.085 -4.0403,11.0428 -10.0191,23.2009 -2.6238,5.3355 -5.5453,12.0337 -6.4923,14.8849 -0.947,2.8513 -2.9561,7.2608 -4.4647,9.7991 -1.5085,2.5383 -5.3897,9.4691 -8.6248,15.4018 -6.219,11.4047 -7.3603,12.9796 -15.7348,21.7133 -9.3642,9.7659 -15.3163,17.3371 -19.5275,24.8395 -2.2658,4.0368 -4.1197,7.6766 -4.1197,8.0886 0,0.4119 -2.191,5.8841 -4.8688,12.1604 -2.6778,6.2763 -6.0811,15.4615 -7.5628,20.4115 -1.4817,4.95 -3.0902,10.125 -3.5745,11.5 -0.4844,1.375 -2.0181,6.775 -3.4084,12 -1.3902,5.225 -3.4407,11.2826 -4.5566,13.4614 -1.1159,2.1788 -2.0324,4.4288 -2.0366,5 0,0.5712 -1.6062,5.9886 -3.5598,12.0386 -1.9536,6.05 -4.1776,15.05 -4.9421,20 -0.7645,4.95 -2.1042,12.15 -2.977,16 -2.866,12.6411 -3.7058,16.9406 -4.1996,21.5 -0.2681,2.475 -1.1233,6.4282 -1.9006,8.7849 -0.7773,2.3568 -1.4132,7.1447 -1.4132,10.64 0,3.4952 -0.9,10.729 -2,16.0751 -1.1,5.3461 -2,12.7927 -2,16.548 0,3.7554 -0.6583,9.6683 -1.4629,13.1399 -1.538,6.6365 -3.0889,18.8978 -4.087,32.3121 -0.3274,4.4 -1.0683,9.5255 -1.6464,11.39 -0.5782,1.8645 -0.7933,6.1395 -0.4782,9.5 0.4264,4.5459 -0.1364,9.5659 -2.1985,19.61 -1.5556,7.577 -2.5114,14.7725 -2.1787,16.4003 0.3261,1.5952 0.2559,7.2202 -0.1559,12.5 -1.9388,24.8548 -2.8383,37.3549 -3.3174,46.0997 -0.74,13.5054 -1.5166,65.9032 -1.2228,82.5 0.4527,25.5762 0.2999,27.5026 -2.6103,32.8989 -2.8932,5.3649 -3.1706,8.2871 -1.2911,13.6011 0.8095,2.2887 0.9548,4.8264 0.4199,7.3326 -0.8521,3.9929 1.5186,12.47 5.3603,19.1674 0.9465,1.65 2.959,6.15 4.4723,10 1.5133,3.85 4.4717,9.7486 6.5741,13.1081 2.1024,3.3594 3.8226,6.5936 3.8226,7.1872 0,0.5935 2.0123,3.2448 4.4717,5.8919 2.4594,2.647 4.4844,5.0717 4.5,5.3882 0.016,0.3165 3.0658,3.0033 6.7783,5.9707 3.7125,2.9674 8.8227,7.2085 11.356,9.4246 2.5334,2.2161 7.7084,5.5344 11.5,7.3739 3.7917,1.8396 7.569,3.6834 8.394,4.0974 0.825,0.414 3.975,1.3126 7,1.997 5.5831,1.263 10.0417,2.4721 22.3553,6.0623 3.7705,1.0993 8.2705,1.9973 10,1.9955 2.8388,0 7.665,1.1526 23.2326,5.5621 2.7983,0.7926 5.9419,1.4411 6.9856,1.4411 2.1961,0 12.4265,4.9768 12.4265,6.0451 0,0.3949 3.6341,4.7088 8.0757,9.5864 11.8111,12.9705 18.9243,24.3468 18.9243,30.2659 0,1.9435 -1.2119,3.6921 -4.4138,6.3686 -3.9482,3.3002 -4.9767,3.6765 -9.75,3.5664 -2.9349,-0.068 -7.4151,0.3679 -9.956,0.9678 -5.3907,1.2727 -24.3632,0.9145 -30.8802,-0.5831 -2.475,-0.5687 -7.2,-0.7377 -10.5,-0.3756 -7.9691,0.8746 -28.7635,-3.0576 -46,-8.6984 -7.7109,-2.5235 -21.5363,-5.3085 -22.4182,-4.5159 -0.23,0.2067 0.1,1.3876 0.7321,2.6243 1.1937,2.3332 3.2088,9.8597 3.5121,13.1175 0.1969,2.1151 -0.6168,2.6202 -8.326,5.1686 -4.5357,1.4993 -9.182,1.8455 -26.5,1.9746 -11.55,0.086 -21.675,-0.032 -22.5,-0.2615 z"
     id="path2987"
     inkscape:connector-curvature="0" />
</svg>
