<?xml version="1.0" encoding="UTF-8" standalone="no"?>
<!-- Created with Inkscape (http://www.inkscape.org/) -->

<svg
   xmlns:dc="http://purl.org/dc/elements/1.1/"
   xmlns:cc="http://creativecommons.org/ns#"
   xmlns:rdf="http://www.w3.org/1999/02/22-rdf-syntax-ns#"
   xmlns:svg="http://www.w3.org/2000/svg"
   xmlns="http://www.w3.org/2000/svg"
   xmlns:sodipodi="http://sodipodi.sourceforge.net/DTD/sodipodi-0.dtd"
   xmlns:inkscape="http://www.inkscape.org/namespaces/inkscape"
   id="svg2"
   version="1.1"
   inkscape:version="0.48.2 r9819"
   width="472.13379"
   height="591.15839"
   sodipodi:docname="fieldbookofins00lutz_0285c.png">
  <metadata
     id="metadata8">
    <rdf:RDF>
      <cc:Work
         rdf:about="">
        <dc:format>image/svg+xml</dc:format>
        <dc:type
           rdf:resource="http://purl.org/dc/dcmitype/StillImage" />
        <dc:title></dc:title>
      </cc:Work>
    </rdf:RDF>
  </metadata>
  <defs
     id="defs6" />
  <sodipodi:namedview
     pagecolor="#ffffff"
     bordercolor="#666666"
     borderopacity="1"
     objecttolerance="10"
     gridtolerance="10"
     guidetolerance="10"
     inkscape:pageopacity="0"
     inkscape:pageshadow="2"
     inkscape:window-width="1920"
     inkscape:window-height="1176"
     id="namedview4"
     showgrid="false"
     fit-margin-top="0"
     fit-margin-left="0"
     fit-margin-right="0"
     fit-margin-bottom="0"
     inkscape:zoom="1"
     inkscape:cx="295.12629"
     inkscape:cy="285"
     inkscape:window-x="0"
     inkscape:window-y="24"
     inkscape:window-maximized="1"
     inkscape:current-layer="svg2" />
  <path
     style="fill:#000000"
     d="m 224.48751,591.12656 c -1.02367,-0.0175 -2.64872,-0.6296 -3.61122,-1.36025 l -1.75,-1.32844 0.0316,-1.88975 0.0316,-1.88976 2.42044,-2.75 c 1.33123,-1.5125 2.87618,-2.75 3.43321,-2.75 0.55703,0 1.49445,-0.9 2.08315,-2 l 1.07037,-2 -1.91855,0 -1.91856,0 -0.49406,-1.8893 -0.49406,-1.8893 0.66247,-1.07191 c 0.36437,-0.58956 2.44671,-1.82486 4.62744,-2.74512 2.18072,-0.92026 4.86495,-1.78028 5.96495,-1.91116 1.1,-0.13088 2.38758,-0.29539 2.86129,-0.36559 l 0.86129,-0.12762 -0.62517,-3.33245 -0.62517,-3.33245 1.84503,-1.66973 1.84503,-1.66973 0.61027,0.61026 0.61027,0.61027 1.50755,-3.60808 1.50756,-3.60809 2.55102,0 2.55103,0 0,-3.88606 0,-3.88606 3.42562,-1.62556 3.42563,-1.62557 2.02848,-3.23837 c 1.11567,-1.78111 3.08468,-4.36338 4.37558,-5.73838 1.29089,-1.375 3.05269,-3.85 3.91509,-5.5 0.86241,-1.65 2.59299,-5.025 3.84574,-7.5 1.25274,-2.475 4.0116,-7.08241 6.13079,-10.23869 2.11919,-3.15628 3.85307,-6.19378 3.85307,-6.75 l 0,-1.01131 -1.07946,0 -1.07945,0 0.65051,-3.25 c 0.35778,-1.7875 1.49202,-5.05 2.52053,-7.25 1.02851,-2.2 2.79309,-6.475 3.92128,-9.5 1.1282,-3.025 2.98737,-9.29799 4.13149,-13.93998 1.14412,-4.64199 2.76428,-9.76279 3.60034,-11.37956 l 1.52012,-2.93959 -0.44575,-4.12043 -0.44575,-4.12044 1.96543,-6.5 c 1.08099,-3.575 2.84993,-9.30761 3.93099,-12.73914 1.08105,-3.43152 2.38049,-6.49558 2.88764,-6.80901 l 0.92208,-0.56988 0,-1.92119 0,-1.92119 5.99621,-11.7698 5.99621,-11.76979 0.004,-3.80902 0.004,-3.80901 -0.92306,0.57048 c -0.50769,0.31377 -1.20819,1.86866 -1.55668,3.45533 l -0.63362,2.88484 -1.94332,1.75868 c -1.06925,0.96727 -1.94374,2.16055 -1.94374,2.65172 0,0.49118 -1.47271,3.23394 -3.27268,6.09502 -1.79998,2.86108 -3.86171,6.55196 -4.58164,8.20196 -0.71992,1.65 -2.81933,5.28427 -4.66537,8.07615 -1.84603,2.79188 -4.0593,5.65948 -4.91837,6.37244 -0.85907,0.71297 -1.56939,1.8037 -1.57849,2.42385 -0.009,0.62016 -2.47004,3.82756 -5.46874,7.12756 -2.99871,3.3 -5.46626,6.3375 -5.48345,6.75 l -0.0313,0.75 -1.76265,0 -1.76265,0 -1.93012,2.57018 c -1.06157,1.41359 -2.40588,3.37757 -2.98735,4.3644 -0.58148,0.98682 -2.12973,3.76774 -3.44057,6.17982 -1.31083,2.41208 -4.61688,7.7606 -7.34677,11.8856 -2.72989,4.125 -5.50114,7.95 -6.15832,8.5 -0.65718,0.55 -2.24003,2.71127 -3.51743,4.80283 l -2.32256,3.80282 -5.38579,3.97872 c -2.96218,2.1883 -5.38579,4.39196 -5.38579,4.89704 0,0.50508 -1.35,2.91865 -3,5.36348 -1.65,2.44484 -3,4.85821 -3,5.36304 0,0.50484 -1.3797,2.23958 -3.06599,3.85498 l -3.06599,2.93709 -4.5367,7.68242 -4.5367,7.68242 -1.39731,0.53619 -1.39731,0.5362 0,2.09424 0,2.09425 -2.20789,-0.31286 -2.20788,-0.31286 -1.18682,2.35529 -1.18683,2.35529 -2.35529,1.20632 -2.35529,1.20631 0.26183,2.32168 0.26182,2.32168 -0.99284,1.19631 -0.99285,1.19631 -3.01898,-0.4431 -3.01898,-0.44309 0,0.62707 c 0,0.34489 0.5537,1.51369 1.23045,2.59733 l 1.23045,1.97027 -1.76024,1.76024 -1.76024,1.76025 -0.58684,-2.24408 -0.58684,-2.24408 -0.85478,0 -0.85478,0 -0.83671,3.22897 -0.8367,3.22896 -2.3474,0.021 -2.34739,0.021 -1.1518,4 -1.15179,4 -0.61303,-1.5 -0.61302,-1.5 -3.6626,4.25 -3.66261,4.25 -1.07267,0 c -0.58997,0 -2.57765,-1.1479 -4.41707,-2.55089 l -3.34439,-2.55082 0,-3.37653 0,-3.37653 2.63486,-2.07258 c 1.44917,-1.13992 3.14268,-2.07258 3.76335,-2.07258 0.62067,0 3.48498,-1.58696 6.36514,-3.52657 l 5.23665,-3.52656 0,-1.48005 0,-1.48005 2.70091,-2.24338 c 1.4855,-1.23387 6.1482,-5.61839 10.36156,-9.74339 l 7.66065,-7.5 0.75834,-2.41545 0.75834,-2.41545 2.82665,-2.37847 2.82665,-2.37847 0.58671,-1.84853 0.5867,-1.84854 2.73565,-1.13314 2.73565,-1.13314 4.79199,-6.47441 c 2.63559,-3.56092 5.14726,-6.4744 5.58148,-6.4744 0.43422,0 2.31401,-3.0375 4.1773,-6.75 1.8633,-3.7125 3.90635,-7.2 4.54012,-7.75 0.63376,-0.55 4.8566,-5.95 9.38409,-12 4.52749,-6.05 9.30177,-12.14962 10.60951,-13.55472 l 2.3777,-2.55472 0,-1.85089 0,-1.85089 2.5,-3.27767 c 1.375,-1.80272 2.51001,-3.64519 2.52224,-4.09439 0.0122,-0.4492 0.90222,-1.94172 1.97776,-3.31672 1.07554,-1.375 1.96553,-3.13152 1.97776,-3.90338 l 0.0222,-1.40337 4.75,-5.13884 c 2.6125,-2.82636 5.71645,-6.30781 6.89767,-7.73655 1.18123,-1.42873 2.42738,-3.47895 2.76923,-4.55602 l 0.62154,-1.95833 2.35661,-1.07374 2.35661,-1.07374 8.37417,-11.64729 c 4.60579,-6.40601 9.42177,-13.23622 10.70217,-15.17825 1.2804,-1.94203 2.96303,-5.62336 3.73917,-8.18073 l 1.41118,-4.64976 0.0108,-5.6408 0.0108,-5.64079 1.97804,-4.35921 c 1.08792,-2.39756 1.98792,-4.88632 2,-5.53058 l 0.022,-1.17138 -5.92524,1.67138 -5.92525,1.67138 -2.79755,4 -2.79755,4 -0.5272,6.49155 -0.52721,6.49154 -3,1.40942 c -1.65,0.77519 -5.475,3.49323 -8.5,6.0401 -3.025,2.54687 -7.15748,5.85393 -9.18328,7.34903 l -3.68323,2.71836 -2.98568,0 -2.98568,0 -2.83104,1.46042 c -1.55707,0.80324 -5.30604,2.55483 -8.33104,3.89243 -3.025,1.3376 -7.75,3.18348 -10.5,4.10197 -2.75,0.91849 -5.99667,2.3169 -7.21482,3.10758 -1.21815,0.79068 -2.82143,1.4376 -3.56284,1.4376 -0.74142,0 -3.73758,1.15275 -6.65813,2.56168 l -5.3101,2.56167 -4.90474,0.5809 -4.90473,0.58089 -1.68869,2.85871 -1.68868,2.85872 -1.67214,0.53072 c -0.91968,0.29189 -2.90518,1.67345 -4.41222,3.07013 l -2.74008,2.53941 -1.02007,-1.02007 -1.02007,-1.02007 1.67171,-2.55134 c 0.91944,-1.40324 1.40675,-2.55135 1.08291,-2.55135 -0.32384,0 -1.45921,0.46583 -2.52305,1.03518 l -1.93426,1.03519 -0.0129,1.21481 -0.0129,1.21482 -7.73709,4.94246 c -4.25539,2.71835 -9.53708,6.36426 -11.73708,8.10202 -2.2,1.73776 -8.03701,5.25115 -12.97112,7.80754 -4.93415,2.55639 -9.49324,4.64798 -10.13135,4.64798 l -1.16018,0 -2.66958,3.5 -2.66958,3.5 -1.94911,0 -1.94911,0 0,-1.83333 c 0,-1.00834 -0.2961,-2.12943 -0.65799,-2.49133 l -0.65799,-0.65799 -1.09201,0.87282 c -0.60061,0.48005 -2.89201,1.20628 -5.09201,1.61383 -2.2,0.40756 -6.8125,0.74409 -10.25,0.74786 l -6.25,0.007 0,2.87065 0,2.87064 -1.59362,0 -1.59362,0 -0.52301,-2 -0.52301,-2 -1.88337,0 -1.88337,0 0,2 0,2 -1.03138,0 c -0.56727,0 -1.29041,-0.675 -1.60699,-1.5 l -0.57561,-1.5 -2.39301,0 -2.39301,0 0,2 0,2 -1.5,0 -1.5,0 0,-1.5 0,-1.5 -0.80064,0 c -0.44034,0 -2.01183,0.5625 -3.49219,1.25 l -2.69157,1.25 -0.008,1.28138 -0.008,1.28139 -1.60092,0.61433 -1.60093,0.61433 -0.82286,-1.33141 -0.82286,-1.33142 -1.57621,1.30815 c -0.86652,0.71933 -1.57582,1.90133 -1.57582,2.62653 0,0.72519 -0.54962,1.65822 -1.22138,2.07339 l -1.22138,0.75486 -2.65917,-0.20262 -2.65916,-0.20262 -1.69206,2.58241 -1.69207,2.58241 -3.86357,-0.65275 -3.86358,-0.65274 -3.06382,2.26517 -3.06381,2.26518 -0.0173,1.06194 c -0.01,0.58407 -1.022,1.97641 -2.25,3.0941 -1.22799,1.11769 -3.42054,2.78302 -4.87233,3.70072 l -2.63961,1.66856 -1.76538,-1.95072 c -0.97093,-1.0729 -2.17703,-1.95072 -2.68019,-1.95072 -0.50316,0 -2.93735,1.39152 -5.4093,3.09227 l -4.49447,3.09228 -2.52396,-0.63348 -2.52396,-0.63347 1.19992,-1.44582 1.19991,-1.44581 -0.54163,-2.26298 -0.54163,-2.26299 3.80445,-4.23718 3.80446,-4.23717 4.46828,-0.16901 4.46829,-0.16902 1.15722,0.71521 1.15723,0.7152 0,-1.98146 0,-1.98147 3.5254,-1.16348 c 1.93898,-0.63992 4.75148,-2.18487 6.25,-3.43322 l 2.7246,-2.26973 3.68478,-0.67742 3.68479,-0.67741 0.31521,-2.21692 0.31522,-2.21692 2.38241,0.33529 2.38241,0.33529 4.61759,-1.72928 4.61759,-1.72929 1.78896,-1.85601 1.78895,-1.856 4.83907,0 4.83908,0 1.48482,-2.23627 1.48483,-2.23626 1.63714,1.35871 1.63715,1.35871 0,-1.10331 0,-1.10332 4.48606,0.61488 4.48606,0.61489 1.54526,-1.28246 1.54526,-1.28245 10.82254,0.65731 10.82254,0.65732 2.55387,-2.00888 c 1.40463,-1.10488 2.97565,-2.00887 3.49115,-2.00887 0.51551,0 1.75177,-0.9 2.74726,-2 0.99549,-1.1 2.35243,-2 3.01544,-2 0.66301,0 2.88746,-1.14143 4.94323,-2.53652 2.05577,-1.39508 6.73107,-4.16046 10.38955,-6.14528 3.65848,-1.98482 7.1424,-3.98883 7.74205,-4.45336 0.59965,-0.46454 3.52465,-2.13189 6.5,-3.70523 2.97535,-1.57334 6.7295,-3.18211 8.34255,-3.57505 l 2.93281,-0.71443 3.01082,-2.53343 c 1.65594,-1.39339 4.04868,-2.92803 5.31718,-3.41032 l 2.30637,-0.87688 0,-1.38989 c 0,-0.76444 0.90175,-2.53628 2.00389,-3.93743 l 2.0039,-2.54754 4.2461,-2.03477 c 2.33536,-1.11912 8.28422,-3.48738 13.21969,-5.26279 l 8.97358,-3.22803 -1.31356,-0.43785 -1.31357,-0.43786 -8.16001,2.20219 c -4.48801,1.2112 -9.19369,2.6122 -10.45707,3.11333 -1.26338,0.50113 -3.74135,0.91114 -5.5066,0.91114 -1.76526,0 -4.55658,-0.38017 -6.20295,-0.84483 l -2.9934,-0.84483 -11.5,3.18326 c -6.325,1.75079 -14.875,4.2186 -19,5.48401 -4.125,1.26542 -10.425,3.54183 -14,5.05871 -3.575,1.51688 -8.02229,3.3336 -9.88286,4.03717 -1.86057,0.70357 -4.56057,2.23899 -6,3.41205 l -2.61714,2.13284 -2.48519,0.14638 -2.48519,0.14637 -0.34814,1.04444 -0.34815,1.04443 -2.02365,0 -2.02366,0 0.57561,-1.5 0.5756,-1.5 -0.5756,-1.5 -0.57561,-1.5 -3.01545,0 -3.01546,0 1.23432,1.48727 1.23432,1.48726 -0.68329,1.76274 -0.6833,1.76273 -1.39655,-1.89732 -1.39654,-1.89732 0.52698,-0.85268 0.52698,-0.85268 -2.05901,0 -2.05902,0 0,2.58333 0,2.58334 -1.25,-0.41166 -1.25,-0.41167 -0.31955,-2.17167 -0.31955,-2.17167 -1.93045,0 -1.93045,0 0,1.94098 0,1.94099 -1.06731,0.65963 -1.06731,0.65963 -0.54932,-2.10061 -0.54932,-2.10062 -0.94793,0 c -0.52136,0 -2.08388,1.35 -3.47226,3 l -2.52434,3 -2.4111,0 -2.41111,0 0,-2.09878 0,-2.09877 -3.55716,2.09877 -3.55716,2.09878 -2.86611,0 -2.86612,0 -2.97108,2.5 -2.97108,2.5 -1.60565,0 -1.60564,0 0,-1.94098 0,-1.94099 -0.95333,-0.58919 -0.95333,-0.58919 -2.04667,1.75242 -2.04667,1.75241 0,1.41047 0,1.41046 -2.15301,1.86729 c -1.18416,1.02702 -2.57628,1.8673 -3.09362,1.8673 l -0.94061,0 -0.52301,-2 c -0.28766,-1.1 -0.80803,-1.99592 -1.15638,-1.99093 -0.34835,0.005 -1.69652,1.355 -2.99593,3 l -2.36256,2.99093 -1.68744,0 c -0.92809,0 -2.20837,-0.52093 -2.84506,-1.15762 l -1.15762,-1.15762 -1.61859,1.34332 -1.6186,1.34332 -0.90847,-1.4357 c -0.49966,-0.78964 -0.91537,-1.80352 -0.92379,-2.25309 l -0.01531,-0.81739 -2.07166,0.65753 -2.07167,0.65752 -1.9324,-1.7488 -1.93239,-1.7488 -2.543,1.15867 -2.54299,1.15866 -2.88703,0 -2.88703,0 -6.08984,2.64109 -6.08983,2.64108 L 4.03922,424.6191 0,422.79766 l 0.63447,-2.56965 0.63447,-2.56965 2.52131,-2.65141 2.52131,-2.65141 3.62941,-0.42371 3.62941,-0.42371 4.02796,0.7379 4.02795,0.7379 1.27841,-1.05881 1.27842,-1.0588 7.93372,0.6118 7.93372,0.61181 0.6549,-1.05966 0.6549,-1.05965 3.63296,0.43204 c 1.99814,0.23761 4.4724,0.79793 5.49837,1.24514 l 1.8654,0.81311 -0.6452,-2.03284 -0.6452,-2.03285 1.70953,-0.65601 1.70953,-0.65601 8.2849,0.67224 8.2849,0.67223 3.46966,-3.04641 c 1.90832,-1.67552 4.28674,-3.28797 5.28537,-3.58321 0.99864,-0.29525 5.34427,-1.01114 9.65695,-1.59087 4.31269,-0.57974 8.15418,-0.86066 8.53665,-0.62428 0.38248,0.23639 5.85392,-0.37221 12.15876,-1.35244 l 11.46335,-1.78224 7.10006,-4.14492 7.10007,-4.14493 1.66832,0 c 0.91757,0 5.14754,-0.91046 9.39993,-2.02324 4.25239,-1.11279 8.63162,-2.45253 9.73162,-2.97722 1.1,-0.52469 7.54768,-1.86423 14.32817,-2.97676 6.78049,-1.11253 14.23056,-2.02278 16.55572,-2.02278 l 4.22755,0 3.16166,-2.3326 3.16167,-2.3326 6.78261,-2.14154 c 3.73044,-1.17785 10.83262,-3.09185 15.78262,-4.25333 4.95,-1.16148 14.175,-2.96202 20.5,-4.0012 6.325,-1.03918 13.975,-2.38653 17,-2.99411 l 5.5,-1.1047 2,-1.68051 c 1.1,-0.92428 3.69019,-2.53558 5.75598,-3.58065 2.06578,-1.04508 3.58767,-2.06844 3.38197,-2.27414 -0.2057,-0.2057 -2.15967,0.0272 -4.34216,0.51758 l -3.96815,0.89159 -6.36494,-0.87046 -6.36494,-0.87046 -4.83929,1.60735 -4.83929,1.60736 -5.20959,-0.62226 c -2.86527,-0.34224 -7.68459,-0.73769 -10.70959,-0.87877 -3.025,-0.14108 -8.2,-0.84206 -11.5,-1.55772 -3.3,-0.71567 -6.9,-1.80316 -8,-2.41665 l -2,-1.11543 -9.5,-1.2166 c -5.225,-0.66912 -12.875,-1.96918 -17,-2.88902 l -7.5,-1.67244 -3.5,0.10505 -3.5,0.10504 -6.8968,-2.51439 -6.8968,-2.51439 -3.6532,0 -3.6532,0 -1.18988,1.18988 c -0.65443,0.65443 -1.75693,1.30621 -2.45,1.44839 -0.69306,0.14218 -2.93162,0.56302 -4.97457,0.93519 l -3.71445,0.67669 -1.17867,-2.5869 -1.17868,-2.58691 -3.60687,-2.30694 c -1.98379,-1.26882 -4.83692,-2.93305 -6.34031,-3.69828 l -2.73343,-1.39134 -0.59919,-1.88788 -0.59919,-1.88788 1.18193,-1.42413 1.18192,-1.42413 -1.5993,-1.59931 c -0.87962,-0.87962 -1.59931,-1.79546 -1.59931,-2.03521 0,-0.23974 1.19052,-2.64022 2.64561,-5.33439 l 2.6456,-4.89851 2.3544,-1.07273 2.35439,-1.07273 0,-2.02144 0,-2.02144 1.01905,0 1.01905,0 -0.59831,-2.38387 -0.59831,-2.38387 5.60724,-2.83921 5.60723,-2.8392 1.95846,1.22308 c 1.07715,0.67269 2.13707,1.22307 2.35539,1.22307 0.21832,0 0.60867,-0.7875 0.86745,-1.75 l 0.47052,-1.75 6.89611,-3.49549 6.89612,-3.49548 3.5,-3.13256 3.5,-3.13256 4.5,-0.45967 4.5,-0.45968 2.37352,0.85993 2.37351,0.85993 1.21566,-1.6625 1.21565,-1.6625 5.91083,-1.83378 5.91083,-1.83378 6,-0.56718 c 3.3,-0.31195 7.9125,-0.8012 10.25,-1.08721 l 4.25,-0.52002 0,-1.35539 c 0,-0.74547 -0.35206,-1.50539 -0.78236,-1.68873 -0.4303,-0.18333 -3.38359,-3.67799 -6.56287,-7.76592 -3.17928,-4.08792 -6.41817,-8.81292 -7.19753,-10.5 -0.77937,-1.68707 -1.98858,-3.95999 -2.68714,-5.05091 -0.69855,-1.09093 -2.44334,-3.79093 -3.8773,-6 -1.43396,-2.20908 -3.72384,-6.2665 -5.08861,-9.0165 -1.36478,-2.75 -3.89834,-7.7 -5.63014,-11 -1.73179,-3.3 -3.15442,-6.68737 -3.16138,-7.52749 -0.007,-0.84013 -0.62905,-2.41513 -1.38241,-3.5 l -1.36974,-1.97251 -2.52162,-10.5 c -1.3869,-5.775 -3.33657,-14.55 -4.33261,-19.5 l -1.81098,-9 -0.33839,-19.5 c -0.18611,-10.725 -0.35953,-20.4 -0.38538,-21.5 -0.0258,-1.1 -0.51124,-6.14785 -1.07865,-11.21744 l -1.03164,-9.21744 1.11907,-6.282562 c 0.61549,-3.45541 1.3231,-10.10756 1.57248,-14.78256 l 0.45341,-8.5 1.61642,-7 c 0.88904,-3.85 2.03514,-7.4275 2.5469,-7.95 0.51176,-0.5225 0.93047,-1.896645 0.93047,-3.053656 l 0,-2.103655 2.48095,-4.946345 c 1.36452,-2.720489 3.61452,-6.253837 5,-7.851883 1.38548,-1.598047 2.52209,-3.398047 2.52582,-4 l 0.007,-1.094461 6.74324,-6.587007 6.74323,-6.587007 3.55906,-1.619305 3.55907,-1.619304 2.44093,0.59734 c 1.34252,0.328538 3.11594,1.161751 3.94094,1.851586 0.825,0.689835 5.55,3.607886 10.5,6.484558 l 9,5.230314 4.24273,4.075485 4.24273,4.075485 1.54131,-1.951072 c 0.84772,-1.07309 2.91894,-4.313559 4.60271,-7.201042 1.68377,-2.887482 3.46845,-5.50154 3.96596,-5.809017 l 0.90432,-0.559048 0,-1.894066 0,-1.894065 3.59183,-1.704435 3.59183,-1.704435 0.52849,-1.377225 c 0.29067,-0.757473 2.38685,-2.682802 4.65817,-4.278508 2.27132,-1.595706 5.62324,-4.207683 7.4487,-5.804392 l 3.31902,-2.903108 5.18098,-1.578562 c 2.84954,-0.868208 6.64291,-1.876229 8.42972,-2.240045 L 287.12378,0 l 4.47098,2.829179 4.47098,2.829179 0.59766,1.75 0.59767,1.75 1.2796,0 c 0.70378,0 2.3211,0.903284 3.59404,2.007299 1.27293,1.104014 2.89914,3.016514 3.61378,4.25 0.71465,1.233485 1.62168,2.917701 2.01564,3.742701 0.39395,0.825 1.01116,1.725 1.37158,2 0.36042,0.275 2.30133,3.329082 4.31314,6.786849 2.01181,3.457768 3.9371,7.399519 4.27842,8.759449 0.34132,1.359929 1.00869,2.712462 1.48304,3.005629 0.47435,0.293166 1.48231,1.976415 2.23991,3.740551 0.75759,1.764137 2.37949,5.907522 3.60417,9.207522 1.2247,3.3 3.0919,7.849289 4.1493,10.109531 l 1.9226,4.109531 0.01,2.890469 0.01,2.890469 1.4938,2.86431 c 0.822,1.57537 1.4942,3.71897 1.4942,4.76357 0,1.04459 0.3964,2.68065 0.881,3.63569 0.4845,0.95504 1.6095,4.73529 2.5,8.40056 0.8904,3.66528 1.619,7.968032 1.619,9.561672 0,1.59364 0.9123,6.38042 2.0272,10.63729 1.115,4.25687 1.8338,8.05412 1.5973,8.43833 -0.2365,0.38422 0.1952,4.52358 0.9594,9.19858 l 1.3894,8.5 1.0284,16.5 c 0.5657,9.075 1.1342,25.5 1.2634,36.5 l 0.2349,20 -0.6504,8.5 c -0.3577,4.675 -1.137,11.425 -1.7318,15 -0.5948,3.575 -2.3808,10.55 -3.969,15.5 -1.5882,4.95 -3.2451,9.85404 -3.6819,10.89788 l -0.7944,1.89787 2.9138,-0.56536 2.9137,-0.56537 9.3601,1.91749 c 5.148,1.05462 9.5355,1.91749 9.75,1.91749 0.2144,0 0.3899,0.9 0.3899,2 l 0,2 0.9167,0 c 0.5041,0 1.1449,-0.5625 1.4238,-1.25 l 0.5072,-1.25 0.9752,1.39572 0.9753,1.39571 1.5641,-0.60021 1.5641,-0.60022 1.9307,2.4545 1.9307,2.4545 1.7851,0 c 0.9818,0 3.2466,0.52848 5.0329,1.17441 l 3.2477,1.17441 1.7031,3.77673 1.7031,3.77674 4.5135,3.79885 c 2.4823,2.08937 4.7956,4.02386 5.1405,4.29886 0.3448,0.275 1.1804,1.75867 1.8567,3.29705 l 1.2296,2.79706 0,5.75294 0,5.75295 -0.8698,0.95 c -0.4783,0.5225 -1.1422,2.74348 -1.4753,4.9355 l -0.6056,3.9855 2.307,-2.89317 2.3069,-2.89318 5.4184,-0.7412 5.4184,-0.74119 5.0338,2.3259 5.0339,2.32591 4.6059,5.00014 4.6059,5.00015 2.1103,6.53192 c 1.1606,3.59255 2.1102,7.45032 2.1102,8.57282 l 0,2.0409 0.9547,0 0.9547,0 0.6797,-3.62338 0.6798,-3.62337 -0.5891,-7.62663 -0.5891,-7.62662 -2.1705,-6.5 c -1.1938,-3.575 -2.1388,-7.33241 -2.1,-8.34981 l 0.07,-1.84981 1.8047,-1.36839 1.8046,-1.36838 2.1275,-0.0318 2.1276,-0.0318 0.9371,1.25 0.9372,1.25 1.1956,7.32878 1.1956,7.32878 -0.6384,1.03303 -0.6384,1.03302 1.3561,0.83815 1.3562,0.83815 0.3258,7.30004 0.3258,7.30005 -1.4132,5 c -0.7774,2.75 -1.7779,5.9 -2.2235,7 l -0.8101,2 2.1695,-1.90499 c 1.1933,-1.04775 2.1696,-2.43615 2.1696,-3.08535 0,-0.64919 2.661,-6.4634 5.9133,-12.92047 3.2523,-6.45706 6.6542,-12.55885 7.5598,-13.55952 l 1.6466,-1.8194 2.4028,-0.45933 2.4028,-0.45933 2.0374,2.16864 2.0373,2.16864 -0.016,2.43555 -0.016,2.43555 -2.8657,3.25 -2.8657,3.25 -1.9665,0 -1.9664,0 -1.7468,4.25 c -0.9607,2.3375 -2.8228,6.53276 -4.1381,9.32281 -1.3153,2.79004 -3.8048,6.72754 -5.5324,8.75 l -3.1409,3.67719 -1.6227,0.0222 -1.6228,0.0222 -2.5075,1.9556 c -1.375,1.07554 -3.0509,1.96553 -3.7243,1.97776 l -1.2243,0.0222 -1.4598,2.82283 c -0.8028,1.55256 -2.1644,3.40766 -3.0257,4.12245 -0.8612,0.71482 -1.5659,1.69455 -1.5659,2.1772 l 0,0.87756 1.9286,0 1.9285,0 1.3215,1.37747 c 0.7268,0.75761 1.9832,2.33261 2.7922,3.5 l 1.4707,2.12253 3.2793,0 3.2792,0 0,1.51357 c 0,0.83246 -0.5105,2.33098 -1.1344,3.33005 l -1.1344,1.81648 1.7494,2.66995 1.7494,2.66995 1.2872,0 1.2871,0 1.0979,3.14922 c 0.6038,1.73208 1.0978,3.55744 1.0978,4.05637 0,0.49894 -1.4503,2.23178 -3.2229,3.85078 l -3.2228,2.94363 -1.7581,0 -1.7581,0 -0.4991,-2.25 c -0.2745,-1.2375 -0.6206,-3.78717 -0.7691,-5.66593 l -0.2699,-3.41593 -4,-1.11028 -4,-1.11027 -0.3134,-3.22379 -0.3133,-3.2238 -0.9367,0 -0.9366,0 0,5 0,5 1.5,0 1.5,0 0,2 0,2 -1,0 -1,0 0,1.30572 c 0,0.71815 1.125,2.83057 2.5,4.69428 1.375,1.86371 2.5,3.77286 2.5,4.24255 0,0.4697 -1.2375,1.39477 -2.75,2.05572 l -2.75,1.20173 -0.1,1.25 c -0.055,0.6875 -0.1675,1.925 -0.25,2.75 l -0.15,1.5 -1.893,0 -1.893,0 -0.6103,-1.59024 -0.6102,-1.59024 0.5623,-0.90976 c 0.3092,-0.50037 1.2372,-0.90976 2.0622,-0.90976 l 1.5,0 -0.618,-1 -0.618,-1 -1.8614,0 -1.8614,0 -0.6986,-6.52366 -0.6987,-6.52366 -1.3371,1.10975 -1.3372,1.10975 -1.0438,-0.64511 -1.0438,-0.6451 0,-3.24099 0,-3.24098 -1.0581,-1.05811 -1.0581,-1.0581 -1.3665,-6.53133 -1.3666,-6.53133 -2.0753,-4.5557 c -1.1415,-2.50564 -2.0754,-5.05909 -2.0754,-5.67434 0,-0.61525 -1.1171,-2.32744 -2.4825,-3.80486 -1.3654,-1.47743 -4.2904,-4.8511 -6.5,-7.49705 -2.2096,-2.64595 -4.0175,-5.21027 -4.0175,-5.69848 0,-0.48821 -1.0125,-1.97544 -2.25,-3.30495 l -2.25,-2.41729 -1.5,0.74988 c -0.825,0.41243 -2.625,1.23616 -4,1.8305 -1.375,0.59434 -3.85,1.20899 -5.5,1.36589 l -3,0.28527 -1.3382,4.5 c -0.7359,2.475 -2.6484,7.33271 -4.25,10.7949 -1.6015,3.4622 -2.9118,6.96553 -2.9118,7.78518 0,0.81966 -0.7254,2.59747 -1.6121,3.95069 l -1.6121,2.4604 0.6338,3.37847 0.6338,3.37846 4.8348,6.88458 c 2.6592,3.78652 5.7814,8.6807 6.9381,10.87595 1.1568,2.19526 3.7058,5.79137 5.6645,7.99137 1.9586,2.2 4.4517,5.70136 5.5402,7.78079 l 1.979,3.7808 0,3.7393 0,3.73931 2,7.21724 c 1.1,3.96948 2,8.54364 2,10.1648 0,1.62116 0.4999,4.21436 1.1109,5.76266 0.6111,1.54831 1.2683,4.3901 1.4606,6.3151 0.1923,1.925 0.8417,7.325 1.4432,12 0.6014,4.675 1.3155,10.975 1.5868,14 l 0.4932,5.5 -0.8717,12.5 c -0.4794,6.875 -0.6841,13.04537 -0.4549,13.71193 0.2292,0.66657 1.1626,1.45582 2.0743,1.75389 0.9117,0.29808 3.4576,2.26078 5.6576,4.36157 2.2,2.10079 5.2375,4.62579 6.75,5.61112 l 2.75,1.79151 0,1.91637 0,1.91638 1.75,0.62872 c 0.9625,0.3458 2.5375,1.43786 3.5,2.4268 0.9625,0.98895 1.75,2.10894 1.75,2.48888 0,0.37993 1.499,2.14657 3.331,3.92585 l 3.3311,3.23505 1.7159,3.61597 1.7158,3.61596 0.9531,0 0.9531,0 0,3.06574 0,3.06574 -1.0352,1.93426 -1.0352,1.93426 -2.521,0 -2.5211,0 -1.962,-4.4356 c -1.0792,-2.43959 -2.8289,-5.47709 -3.8884,-6.75 -1.0594,-1.27292 -3.2153,-3.8894 -4.7909,-5.8144 -1.5755,-1.925 -4.188,-5.64035 -5.8054,-8.25634 l -2.9408,-4.75634 -1.3283,0.50499 -1.3282,0.50499 -2.6718,-2.81487 c -1.4694,-1.54818 -4.1708,-4.47257 -6.0029,-6.49865 l -3.3313,-3.68378 -1.1043,0 c -0.6074,0 -2.1279,0.96166 -3.379,2.13702 l -2.2748,2.13702 0.2254,-5.56878 0.2254,-5.56877 0.7349,-0.73491 0.7349,-0.73491 0,-3.13334 0,-3.13333 -1.1764,-1.17637 -1.1763,-1.17637 1.5766,-1.77363 1.5766,-1.77363 1.1184,-7.31183 1.1184,-7.31183 -1.5186,-4.47312 -1.5187,-4.47311 0,-3.02224 c 0,-1.66223 -0.4156,-4.909 -0.9235,-7.21505 -0.508,-2.30605 -1.6675,-9.14282 -2.5768,-15.19282 -0.9092,-6.05 -2.0677,-13.15551 -2.5744,-15.79003 l -0.9214,-4.79003 -4.1532,-5.62199 -4.1532,-5.62198 -6.3416,-12.42024 -6.3416,-12.42023 -4.6254,-4.49537 -4.6254,-4.49537 0.4648,-3.17238 0.4648,-3.17238 -0.5966,-2.29424 -0.5965,-2.29425 -1.809,1.32396 -1.809,1.32396 -0.2585,5.97028 -0.2585,5.97029 0.9207,3.5 c 0.5065,1.925 1.8263,5.50193 2.9331,7.94874 1.1067,2.44681 3.1151,8.07181 4.463,12.5 l 2.4508,8.05126 0.6213,11 c 0.3417,6.05 0.6432,19.55 0.67,30 l 0.049,19 -1.2042,9 c -0.6623,4.95 -1.7022,13.95 -2.3109,20 -0.6087,6.05 -1.1856,11.93626 -1.2821,13.08057 l -0.1754,2.08057 7.75,8.24055 7.75,8.24056 0,1.17887 c 10e-4,0.64839 1.3502,2.75388 2.9977,4.67888 l 2.9953,3.5 0,2.55 0,2.55 1.0575,1.05755 1.0576,1.05755 0.5584,5.41053 0.5584,5.41053 -1.5176,4.48192 -1.5175,4.48192 -3.7571,-0.23857 -3.757,-0.23857 -1.8414,-1.66642 -1.8413,-1.66642 0,-1.88286 0,-1.88286 2.75,0.28785 2.75,0.28785 0.3205,-3.92077 0.3206,-3.92077 -1.5706,-0.87892 -1.5705,-0.87892 0,-1.89052 0,-1.89051 -2.7679,-5.3098 c -1.5224,-2.92038 -4.6285,-7.8186 -6.9024,-10.88493 l -4.1345,-5.57514 -5.3476,-4.41111 c -2.9412,-2.42611 -5.6843,-4.8673 -6.0959,-5.42486 l -0.7482,-1.01375 0.5779,-2.75083 0.5778,-2.75082 -1.5796,-0.60616 -1.5796,-0.60617 0,-2.39301 0,-2.39301 1.9409,0 1.941,0 0.6181,-1 0.618,-1 -1.6756,0 -1.6757,0 0.7101,-2.25 c 0.3906,-1.2375 0.9441,-3.4875 1.2302,-5 l 0.52,-2.75 2.1365,-0.0222 2.1365,-0.0222 -2.3048,-1.77334 -2.3047,-1.77334 2.2688,-2.95443 c 1.2478,-1.62493 2.8213,-3.29967 3.4967,-3.72164 l 1.2279,-0.76722 -1.1025,-3.16263 -1.1025,-3.16264 -0.064,-9.07015 c -0.035,-4.98857 0.3318,-15.69931 0.8154,-23.80163 l 0.8793,-14.73149 -2.4049,-2.4064 -2.4048,-2.40639 -1.3283,-5.86212 c -0.7305,-3.22416 -1.9248,-7.66313 -2.654,-9.86437 -0.7292,-2.20124 -2.0443,-8.16605 -2.9226,-13.25513 l -1.5967,-9.25288 -1.9992,-3.73006 c -1.0996,-2.05153 -1.9993,-4.41172 -1.9994,-5.24486 -10e-5,-0.83315 0.9632,-4.43981 2.1406,-8.01481 1.1775,-3.575 2.7017,-7.87108 3.3872,-9.54684 l 1.2463,-3.04684 7.4705,-7.95316 7.4705,-7.95316 -0.7872,-2 -0.7872,-2 -0.058,-6 -0.058,-6 2.9874,-5.89092 c 1.643,-3.24001 2.9851,-6.61501 2.9823,-7.5 l 0,-1.60908 -2.4748,3 -2.4749,3 -1.0443,3.69638 -1.0442,3.69638 -2.6108,2.05362 c -1.4349,1.12942 -2.999,2.05355 -3.4749,2.05355 l -0.8651,0 0,-1.63976 0,-1.63975 1.7484,-1.27849 1.7485,-1.27848 -0.7762,-0.7762 -0.7763,-0.77621 -1.9916,1.99164 -1.9916,1.99164 -0.9453,5.80776 c -0.5199,3.19426 -1.3336,6.32302 -1.8084,6.9528 -0.4747,0.62978 -1.6554,3.39505 -2.6238,6.14505 l -1.7606,5 -3.8979,3.51548 -3.8978,3.51547 -1.9031,7.24883 c -1.0468,3.98685 -2.3793,7.82261 -2.9614,8.52389 -0.582,0.70129 -1.564,3.28235 -2.18227,5.7357 -0.61825,2.45335 -1.54556,6.71063 -2.06069,9.46063 -0.51512,2.75 -1.54418,7.7 -2.2868,11 -0.74262,3.3 -2.55276,10.275 -4.02254,15.5 -1.46977,5.225 -3.17136,11.075 -3.7813,13 l -1.10899,3.5 -2.61016,3.14151 c -1.43558,1.72783 -3.39765,4.18185 -4.36015,5.45339 l -1.75,2.31188 -0.0174,4.04661 c -0.01,2.22564 -0.65847,6.97161 -1.44204,10.54661 -0.78357,3.575 -2.37703,10.55 -3.54102,15.5 -1.16399,4.95 -2.49781,11.025 -2.96405,13.5 -0.46623,2.475 -1.49113,6.48776 -2.27755,8.91724 l -1.42986,4.41724 -2.1786,0.80591 -2.17861,0.80592 -0.86693,2.27685 c -0.47681,1.25226 -3.33237,6.77684 -6.34569,12.27684 -3.01332,5.5 -6.49612,11.8 -7.73955,14 -1.24343,2.2 -2.76882,4.7201 -3.38976,5.60021 -0.62094,0.88012 -3.6807,4.3953 -6.79947,7.81152 l -5.67048,6.2113 -4.71562,9.43849 -4.71562,9.43848 -1.11389,0.11848 c -0.61265,0.0652 -1.6764,0.0454 -2.3639,-0.0438 l -1.25,-0.16232 0,2.38885 0,2.38884 -1.82874,1.65499 c -1.00417,0.91022 -2.17922,1.65496 -2.60958,1.65496 -0.43036,0 -2.93238,1.8 -5.56004,4 l -4.77756,4 -1.86122,-0.0318 z"
     id="path2993"
     inkscape:connector-curvature="0" />
</svg>
