<?xml version="1.0" encoding="UTF-8" standalone="no"?>
<!-- Created with Inkscape (http://www.inkscape.org/) -->

<svg
   xmlns:dc="http://purl.org/dc/elements/1.1/"
   xmlns:cc="http://creativecommons.org/ns#"
   xmlns:rdf="http://www.w3.org/1999/02/22-rdf-syntax-ns#"
   xmlns:svg="http://www.w3.org/2000/svg"
   xmlns="http://www.w3.org/2000/svg"
   xmlns:sodipodi="http://sodipodi.sourceforge.net/DTD/sodipodi-0.dtd"
   xmlns:inkscape="http://www.inkscape.org/namespaces/inkscape"
   id="svg2"
   version="1.1"
   inkscape:version="0.48.2 r9819"
   width="806.66992"
   height="393.45844"
   sodipodi:docname="M - Ratsb.png">
  <metadata
     id="metadata8">
    <rdf:RDF>
      <cc:Work
         rdf:about="">
        <dc:format>image/svg+xml</dc:format>
        <dc:type
           rdf:resource="http://purl.org/dc/dcmitype/StillImage" />
        <dc:title></dc:title>
      </cc:Work>
    </rdf:RDF>
  </metadata>
  <defs
     id="defs6" />
  <sodipodi:namedview
     pagecolor="#ffffff"
     bordercolor="#666666"
     borderopacity="1"
     objecttolerance="10"
     gridtolerance="10"
     guidetolerance="10"
     inkscape:pageopacity="0"
     inkscape:pageshadow="2"
     inkscape:window-width="1600"
     inkscape:window-height="876"
     id="namedview4"
     showgrid="false"
     fit-margin-top="0"
     fit-margin-left="0"
     fit-margin-right="0"
     fit-margin-bottom="0"
     inkscape:zoom="1"
     inkscape:cx="402.9889"
     inkscape:cy="199.65227"
     inkscape:window-x="0"
     inkscape:window-y="24"
     inkscape:window-maximized="1"
     inkscape:current-layer="svg2" />
  <path
     style="fill:#000000"
     d="m 430.9889,392.30709 c -3.025,-0.71944 -8.52546,-1.35146 -12.22325,-1.40449 -4.32171,-0.062 -8.2509,-0.78661 -11,-2.02864 -2.35221,-1.06272 -5.04355,-2.16565 -5.98074,-2.45096 -0.9372,-0.28531 -4.7622,-4.46076 -8.5,-9.27877 -8.1412,-10.49396 -13.67839,-16.0078 -17.98191,-17.90605 -6.21941,-2.74335 -18.3141,-11.87003 -18.3141,-13.81987 0,-1.48934 -6.1735,-7.61214 -7.67516,-7.61214 -0.59397,0 -1.64015,-0.675 -2.32484,-1.5 -0.81995,-0.98797 -3.05357,-1.5 -6.5435,-1.5 -4.96003,0 -5.5912,0.29259 -9.87755,4.57895 -4.5564,4.5564 -4.57895,4.61302 -4.57895,11.49948 0,5.68434 0.49122,7.80373 2.75,11.86498 3.14511,5.65485 4.00646,6.02071 14.25,6.0527 5.91332,0.0185 8.66288,0.56471 12.99675,2.58197 3.02321,1.4072 6.17321,3.14237 7,3.85593 0.82679,0.71355 2.74075,1.59138 4.25325,1.95073 2.57036,0.61068 2.75,0.99834 2.75,5.93431 0,2.90452 -0.54,5.82095 -1.2,6.48095 -0.86371,0.86371 -7.64003,1.2 -24.18011,1.2 l -22.98012,0 -4.4335,-4.75 c -2.43842,-2.6125 -4.85552,-5.65 -5.37133,-6.75 -0.51581,-1.1 -2.0359,-3.8 -3.37797,-6 -1.34208,-2.2 -3.00805,-5.125 -3.70215,-6.5 -0.6941,-1.375 -2.08026,-3.70792 -3.08035,-5.18426 -1.26587,-1.8687 -1.95199,-5.18407 -2.25822,-10.91177 -0.24193,-4.52513 -0.93572,-8.82497 -1.54175,-9.55519 -0.91783,-1.10592 -3.05227,-19.38228 -3.00025,-25.68994 0.0217,-2.62879 2.89106,-6.65884 4.74107,-6.65884 0.86307,0 2.71339,-0.9 4.11181,-2 1.39842,-1.1 3.7951,-2 5.32594,-2 3.77476,0 5.94693,-0.93937 5.94693,-2.57181 0,-2.7009 -3.98475,-3.3237 -22.08455,-3.45172 -16.32574,-0.11547 -19.09024,0.10699 -24.36196,1.96039 -3.27058,1.14985 -6.87718,2.70043 -8.01467,3.44574 -1.13748,0.74531 -3.63655,1.68921 -5.55349,2.09755 -1.91693,0.40834 -4.16033,1.29609 -4.98533,1.97278 -0.825,0.67669 -5.325,2.27419 -10,3.55001 -4.675,1.27582 -8.95,2.64055 -9.5,3.03273 -2.52275,1.79887 -31.62333,4.65216 -36.06851,3.53649 -2.3462,-0.58886 -3.63821,-4.57216 -1.48301,-4.57216 0.52166,0 2.16237,-1.125 3.64602,-2.5 1.48365,-1.375 3.34836,-2.5 4.14379,-2.5 0.79544,0 2.59042,-0.9 3.98884,-2 1.39842,-1.1 3.64842,-2 5,-2 1.35158,0 3.60158,-0.9 5,-2 1.42291,-1.11926 4.05678,-2 5.98105,-2 2.74009,0 3.36808,-0.35544 3.09191,-1.75 -0.27358,-1.38153 -1.18387,-1.68505 -4.32332,-1.44152 -2.18722,0.16966 -25.80177,0.39466 -52.47677,0.5 -40.81122,0.16116 -50.32311,-0.0737 -60,-1.48123 -6.325,-0.92001 -14.875004,-1.9405 -19.000004,-2.26776 -7.44151,-0.59037 -27.3606,-3.71169 -36,-5.6412 -2.475,-0.55276 -7.425,-1.61859 -11,-2.36851 -7.53507,-1.58061 -15.84216,-4.35006 -18,-6.0009 -0.825,-0.63116 -4.2,-2.45255 -7.5,-4.04754 -3.3,-1.59498 -7.7953696,-4.61028 -9.9897196,-6.70065 -2.19434,-2.09038 -4.33184,-3.80069 -4.75,-3.80069 -1.15313,0 -0.90924,-4.7899 0.28136,-5.52574 0.57291,-0.35407 4.0604,0.25574 7.75,1.35514 3.6895996,1.0994 9.4083596,2.50916 12.7083596,3.13279 9.66106,1.82576 15.85731,3.22667 18,4.06963 4.10725,1.61584 6.10421,2.24272 10,3.13918 2.2,0.50624 5.8,1.35764 8,1.892 24.05762,5.84338 48.507394,7.13256 126.500004,6.67002 42.46209,-0.25182 58.41535,-0.66543 61,-1.58151 1.925,-0.68228 9.35,-1.47313 16.5,-1.75744 12.96585,-0.51558 23.93131,-2.8695 27.5,-5.90334 0.825,-0.70135 3.975,-1.59151 7,-1.97813 3.025,-0.38661 6.4,-1.26717 7.5,-1.95678 1.1,-0.68962 4.10394,-1.48774 6.67542,-1.77359 2.57795,-0.28658 5.89092,-1.47585 7.38486,-2.65099 1.49019,-1.17218 3.70904,-2.13124 4.93078,-2.13124 1.22173,0 4.27675,-1.56942 6.78892,-3.48761 5.10188,-3.89558 13.36851,-8.51239 15.24184,-8.51239 1.19406,0 6.91439,-2.26348 14.97818,-5.92673 2.2,-0.99942 9.175,-3.97667 15.5,-6.61611 15.32442,-6.39493 24.78315,-13.0764 32.94108,-23.26899 5.75791,-7.19398 6.67486,-9.72413 5.2133,-14.38506 -2.64765,-8.44342 -2.5237,-25.22392 0.20737,-28.07293 0.64859,-0.6766 2.90151,-3.60039 5.00649,-6.4973 3.88309,-5.34399 6.24796,-7.23288 9.05548,-7.23288 0.85536,0 4.14744,-1.79941 7.31574,-3.99869 3.1683,-2.19928 6.13266,-3.99928 6.58746,-4 1.84426,-0.003 6.67308,-6 6.67308,-8.28755 0,-2.41438 1.37996,-3.86182 14.91285,-15.64208 4.85032,-4.22216 5.08715,-4.66161 5.08715,-9.43959 0,-4.75349 0.27006,-5.26453 5.25,-9.9346 l 5.25,-4.92333 24,0.56289 c 13.2,0.30959 26.28001,1.09364 29.0667,1.74235 4.2064,0.97921 6.1698,0.90281 11.5639,-0.44996 3.5734,-0.89619 7.7105,-1.62944 9.1935,-1.62944 1.4831,0 4.9372,-1.574997 7.6759,-3.499997 2.7387,-1.925 5.3757,-3.5 5.8598,-3.5 0.4842,0 4.6513,-1.30444 9.2603,-2.89876 4.6089,-1.59431 11.3049,-3.89173 14.8799,-5.10537 3.575,-1.21364 9.875,-3.47925 14,-5.03471 18.3355,-6.91395 42.6665,-13.556118 48.3607,-13.202136 1.5734,0.09781 4.1386,-0.482958 5.7004,-1.290594 1.5618,-0.807637 4.2299,-1.46843 5.9291,-1.46843 1.6992,0 4.8302,-0.888066 6.9578,-1.97348 2.1952,-1.119884 6.7609,-2.182613 10.5559,-2.456987 3.6781,-0.265928 7.207,-0.890812 7.8418,-1.388632 0.6349,-0.497819 2.3918,-1.200749 3.9043,-1.562066 1.5125,-0.361316 2.75,-1.098366 2.75,-1.637887 0,-1.13074 -0.2931,-1.164568 -9,-1.038836 -8.7058,0.125716 -10.9756,-1.214479 -12.6042,-7.442112 -1.7866,-6.831824 -1.7225,-7.579303 0.9343,-10.899585 2.1637,-2.70408 2.8882,-2.928875 10.745,-3.334005 4.6337,-0.238931 9.0999,-0.995479 9.9249,-1.681217 3.5853,-2.980084 11.0844,-6.585193 13.6982,-6.585193 1.5631,0 6.0898,-0.9 10.0592,-2 3.9695,-1.1 8.9105,-2.004871 10.9799,-2.010824 4.9736,-0.01431 12.7299,-2.424917 15.9485,-4.956682 1.4212,-1.117872 3.3625,-2.032494 4.3142,-2.032494 0.9517,0 2.839,-0.872105 4.1941,-1.93801 1.355,-1.065906 3.7782,-2.2540588 5.3848,-2.6403398 1.6066,-0.386281 4.1926,-1.343296 5.7466,-2.1267 1.554,-0.783403 5.2944,-1.826195 8.3119,-2.317313 3.0176,-0.491119 6.8663,-1.58128 8.5527,-2.42258 4.1226,-2.05660499 17.7979,-3.16705499 20.5913,-1.67203999 4.3934,2.35125399 3.664,15.28299979 -1.3061,23.15606179 -2.2545,3.571457 -2.4648,4.55231 -1.5428,7.197176 1.7801,5.106432 1.328,12.617114 -0.9325,15.490874 -1.1,1.398424 -2.0017,3.269402 -2.0037,4.15773 0,0.888327 -0.9021,3.088517 -2,4.889311 -1.098,1.800793 -1.9963,4.001504 -1.9963,4.890468 0,1.492979 -3.0494,8.831718 -5.1256,12.335362 -0.4889,0.825 -1.3753,2.625 -1.9697,4 -0.5945,1.375 -1.6828,3.625 -2.4185,5 -4.872,9.10506 -9.4862,18.958947 -9.4862,20.258407 0,1.84618 -5.6907,15.44021 -7.6247,18.2141 -0.7564,1.08487 -1.3753,3.3053 -1.3753,4.93427 0,1.62898 -0.8526,4.79135 -1.8946,7.0275 -1.042,2.23614 -2.1284,6.54072 -2.4142,9.56572 -0.2858,3.025 -1.2304,6.85 -2.0992,8.5 -0.9795,1.86017 -1.582,5.53575 -1.5858,9.67402 l -0.01,6.67403 7.75,8.06498 c 4.2625,4.43574 8.7967,9.41993 10.076,11.07598 2.58,3.33963 4.3058,3.76201 6.174,1.51099 2.6781,-3.22696 9.1097,-0.78853 16.75,6.35048 5.3644,5.01247 3.9331,13.14952 -2.313,13.14952 -1.3371,0 -2.979,-0.89501 -3.6691,-2 -1.7245,-2.76138 -9.2443,-2.84694 -10.7028,-0.12177 -0.8538,1.59546 -2.7034,1.98392 -12.2851,2.58027 -14.7215,0.91623 -20.3015,-0.31593 -21.1734,-4.67537 -0.3338,-1.66822 -0.6068,-3.94319 -0.6068,-5.0555 0,-1.20545 -3.3892,-5.3963 -8.3903,-10.375 l -8.3863,-8.35263 -6.3853,0 c -6.361,0 -6.4039,0.0192 -11.3055,5.07207 -4.6379,4.78096 -15.3201,10.92793 -18.9905,10.92793 -0.8499,0 -3.2245,0.9 -5.2769,2 -2.0524,1.1 -5.2423,2 -7.0887,2 -1.8464,0 -4.5012,0.9 -5.8996,2 -1.454,1.14365 -4.0568,2 -6.079,2 -1.945,0 -4.3437,0.73061 -5.3304,1.62357 -1.2855,1.16333 -4.426,1.75622 -11.0788,2.09151 -7.1244,0.35906 -9.9405,0.93077 -12.1033,2.45709 -1.5502,1.09403 -3.4298,1.7546 -4.1769,1.46793 -1.7502,-0.67162 -3.1005,1.0501 -3.9533,5.0408 -0.3739,1.7495 -1.3139,3.70722 -2.089,4.35048 -0.7751,0.64327 -1.6993,2.7154 -2.0537,4.60474 -0.728,3.88031 -5.5945,9.37746 -10.5729,11.94286 -1.8346,0.94536 -3.8942,2.50979 -4.5769,3.47649 -0.6826,0.96671 -3.1576,2.70208 -5.5,3.85638 -2.3423,1.15429 -7.5703,5.40916 -11.6178,9.45525 -6.4398,6.4375 -7.2244,7.60837 -6.2803,9.37235 0.5933,1.10869 2.2407,2.23792 3.6608,2.50939 3.6115,0.69038 38.4786,-0.38995 38.4786,-1.19223 0,-0.36114 -0.5256,-1.18217 -1.1679,-1.82451 -0.8905,-0.89054 -0.881,-2.12549 0.04,-5.2 l 1.208,-4.0321 9.3375,0 c 7.0799,0 9.6383,0.36264 10.5823,1.5 1.7975,2.16585 3,1.84518 3,-0.8 0,-3.36646 1.8686,-4.7 6.586,-4.7 3.7025,0 4.8633,0.63842 10.05,5.52731 3.2252,3.04002 8.1669,6.83525 10.9816,8.43384 2.8147,1.59859 5.3881,3.6113 5.7186,4.47269 0.3305,0.86139 1.4265,1.56616 2.4354,1.56616 3.2415,0 10.2284,5.89805 10.2284,8.63448 0,3.11117 4.6259,7.29175 8.1151,7.33392 1.4383,0.0174 3.7593,0.9316 5.1577,2.0316 1.3984,1.1 2.9966,2 3.5514,2 1.0899,0 15.1758,14.91953 15.1758,16.07397 0,0.38451 3.1557,3.28093 7.0127,6.43649 7.2187,5.90578 12.9873,13.19833 12.9873,16.4182 0,1.00562 -2.5666,4.02056 -5.7035,6.69987 -3.1369,2.67931 -6.6615,5.77147 -7.8324,6.87147 -1.1709,1.1 -3.8441,3.56008 -5.9403,5.46685 l -3.8114,3.46686 -13.6062,0.65006 c -7.4834,0.35753 -15.1783,1.15995 -17.0996,1.78314 -1.9214,0.6232 -6.3346,1.13309 -9.8072,1.13309 -6.9756,0 -14.6335,1.58397 -17.6719,3.65533 -1.3364,0.91105 -5.2867,1.34467 -12.25,1.34467 -5.6526,0 -10.2775,0.35828 -10.2775,0.79617 0,0.4379 3.1326,3.60085 6.9613,7.02877 8.0282,7.18783 10.2079,7.4035 15.7377,1.55717 4.5078,-4.76582 12.301,-4.69975 12.301,0.1043 0,1.26574 1.6613,4.00056 3.75,6.1734 6.4073,6.66526 9.7927,12.25711 8.5803,14.17244 -0.9403,1.48548 -3.8302,1.66775 -26.443,1.66775 -24.6585,0 -25.5595,-0.0705 -31.3873,-2.45464 -3.3,-1.35006 -6.45,-2.75418 -7,-3.12029 -0.55,-0.3661 -5.05,-1.41699 -10,-2.3353 -4.95,-0.91832 -9.9,-1.91755 -11,-2.22052 -1.1,-0.30296 -8.1685,-0.87301 -15.7077,-1.26677 -10.213,-0.5334 -14.1646,-1.11452 -15.5,-2.27941 -1.458,-1.27186 -5.8959,-1.67757 -23.7923,-2.1751 -12.1,-0.33639 -26.5,-1.29186 -32,-2.12327 -5.5,-0.83141 -16.75,-1.78621 -25,-2.12178 -8.25,-0.33556 -17.7,-1.30744 -21,-2.15972 -7.64879,-1.97544 -12.39567,-2.85195 -26,-4.80088 -6.05,-0.86671 -12.35,-2.18302 -14,-2.92512 -2.99004,-1.34479 -31.5,-3.06698 -31.5,-1.9028 0,2.23001 3.9597,6.36738 7.85583,8.20833 4.10189,1.93818 6.29379,2.19341 18.77173,2.18584 11.75275,-0.007 14.35135,0.26109 15.4589,1.59561 0.73224,0.88229 2.3388,1.98721 3.57014,2.45536 1.23134,0.46815 3.01201,2.10878 3.95705,3.64583 0.94504,1.53704 3.09497,3.9908 4.77764,5.45278 2.71994,2.36322 2.94859,2.97322 2.06079,5.49768 -0.54924,1.56174 -2.33814,3.5118 -3.97534,4.33347 -3.89492,1.95477 -21.10843,2.26403 -28.47674,0.51162 z M 82.488896,261.27733 c -2.2,-0.79257 -4.97664,-1.44782 -6.17032,-1.4561 -1.19368,-0.008 -5.99516,-1.36506 -10.66996,-3.01506 -4.6748,-1.65 -9.05474,-3 -9.73319,-3 -2.1973,0 -11.67674,-4.90666 -12.22135,-6.32591 -0.29083,-0.7579 -3.29998,-3.2696 -6.687,-5.58156 -3.38701,-2.31195 -8.04122,-6.09107 -10.34267,-8.39804 -2.30146,-2.30697 -7.11241,-6.89449 -10.69101,-10.19449 -11.4372496,-10.54685 -18.1773196,-29.29077 -13.4844996,-37.5 0.78602,-1.375 1.44507,-3.40696 1.46456,-4.51547 0.0883,-5.02291 10.8103096,-19.37447 17.8882996,-23.94377 2.00592,-1.29495 5.13741,-3.74638 6.95886,-5.44761 1.82144,-1.70123 3.77071,-3.09315 4.3317,-3.09315 1.21188,0 9.82874,-6.79614 11.58325,-9.13574 0.67467,-0.89965 2.44745,-1.94213 3.9395,-2.31661 1.49206,-0.37448 4.09005,-2.05394 5.77333,-3.73213 1.68328,-1.67819 4.1855,-3.57015 5.5605,-4.20436 1.375,-0.63421 4.075,-2.49367 6,-4.13213 6.28656,-5.35081 22.21357,-21.86389 26.02151,-26.979027 4.33794,-5.82708 30.533894,-31.386329 37.409234,-36.5 2.58817,-1.925 6.94007,-5.4125 9.67089,-7.75 2.73082,-2.3375 5.55536,-4.25 6.27676,-4.25 0.7214,0 2.12612,-0.9 3.12161,-2 0.99549,-1.1 2.22995,-2 2.74324,-2 1.62447,0 13.5059,-5.78508 14.20516,-6.916506 0.3683,-0.595922 2.11224,-1.083494 3.87543,-1.083494 1.76318,0 4.77412,-0.834057 6.69098,-1.853461 1.91685,-1.019404 5.1692,-2.16414 7.22744,-2.543859 2.05824,-0.379719 5.88324,-1.798134 8.5,-3.152032 6.74694,-3.490831 17.08019,-5.412091 29.25775,-5.439893 16.53122,-0.03774 35.34848,2.902316 39.50584,6.172495 1.27029,0.999213 3.58864,1.818432 5.15189,1.820488 1.56325,0.0021 4.19227,0.819083 5.84227,1.815617 1.65,0.996533 6.825,3.109525 11.5,4.695539 4.675,1.586013 9.38763,3.468985 10.47251,4.184383 1.08487,0.715398 2.85587,1.300723 3.93555,1.300723 1.07967,0 3.01881,0.991846 4.3092,2.204103 2.18515,2.052849 3.28756,2.203026 16.06445,2.188415 12.55693,-0.01436 14.09925,-0.219259 18.21829,-2.420345 2.475,-1.322563 4.95,-2.757508 5.5,-3.188767 0.55,-0.43126 2.0362,-1.572282 3.30266,-2.535606 2.22378,-1.691498 2.24947,-1.878794 0.75,-5.46753 -2.30083,-5.506648 -1.95069,-8.536083 1.37042,-11.857193 2.67618,-2.676187 3.51665,-2.923077 9.95078,-2.923077 3.86523,0 9.41235,0.502505 12.32692,1.116678 5.10804,1.076393 6.34465,1.54904 13.63026,5.209658 1.83207,0.920515 3.76926,1.673664 4.30486,1.673664 0.53561,0 3.08664,0.986895 5.66896,2.193101 4.58843,2.143255 5.48156,2.186877 39.29552,1.919269 l 34.60038,-0.273831 2.77805,2.389572 c 7.60917,6.545136 2.07209,22.877062 -10.12133,29.853433 -3.51092,2.00874 -5.8449,4.24102 -7.2472,6.931383 -2.75491,5.285403 -8.71788,11.902203 -22.18095,24.613053 -2.98613,2.81929 -9.11873,8.894287 -13.628,13.499997 -4.50927,4.60571 -11.01745,10.84902 -14.46262,13.87402 -10.29513,9.03954 -19.83871,18.27048 -19.83871,19.18881 0,0.47338 1.23668,1.33088 2.74817,1.90554 1.51149,0.57467 3.42399,1.63524 4.25,2.35681 0.82601,0.72157 4.17557,1.52193 7.44347,1.77856 4.67371,0.36704 6.2742,0.93845 7.5,2.6777 0.8571,1.21609 2.57086,3.37513 3.80836,4.79785 2.44898,2.81553 2.95409,7.19064 1.05,9.09473 -0.8068,0.8068 -5.34334,1.2 -13.84501,1.2 -11.37502,0 -12.8268,-0.20087 -14.45499,-2 -1.51452,-1.67352 -3.07997,-2 -9.58989,-2 -12.34951,0 -16.03123,2.71923 -10.59566,7.82569 2.11445,1.98642 3.38905,2.17782 14.75,2.21495 12.20932,0.0399 12.49636,0.0927 15.77811,2.9001 4.00184,3.42345 3.95796,6.40718 -0.10111,6.87568 -3.25079,0.37521 -3.42763,1.15158 -0.77888,3.4195 1.66864,1.42874 1.80344,2.13686 0.90007,4.72827 -0.63421,1.8193 -1.97223,3.2762 -3.31941,3.61432 -1.2413,0.31154 -9.21725,0.42133 -17.72433,0.24397 -13.11958,-0.27353 -15.73263,-0.58812 -17.21459,-2.07248 -1.16404,-1.16593 -3.30866,-1.75206 -6.42574,-1.75616 -2.57321,-0.003 -6.02857,-0.75994 -7.67857,-1.68123 -1.77074,-0.98871 -6.48291,-1.9293 -11.5,-2.29552 -7.17215,-0.52352 -9.17977,-1.08103 -12.85144,-3.56877 -2.3933,-1.62158 -5.65044,-3.67627 -7.2381,-4.566 -1.58766,-0.88972 -3.45451,-2.06517 -4.14856,-2.61211 -0.69404,-0.54694 -2.53087,-1.29796 -4.08184,-1.66893 -1.55097,-0.37097 -4.37847,-2.23302 -6.28333,-4.13789 -5.21484,-5.21483 -7.27618,-4.76218 -19.89673,4.36918 -9.22073,6.67148 -12.82924,8.16743 -19.70137,8.16743 -3.58911,0 -8.94957,0.50256 -11.91214,1.1168 -6.40062,1.32705 -14.68213,1.22764 -31.88649,-0.38279 -2.10311,-0.19686 -2.45745,0.14991 -2.23197,2.18426 0.20403,1.84096 -1.29937,3.94008 -6.29746,8.7928 -3.61102,3.50598 -7.69842,6.80526 -9.08313,7.33172 -1.3847,0.52647 -5.6037,0.95721 -9.37556,0.95721 -6.6674,0 -6.9656,-0.10985 -10.73363,-3.95381 l -3.8757,-3.9538 -17.45128,-0.33185 c -16.11972,-0.30654 -17.8845,-0.52505 -23.12912,-2.86388 -3.12282,-1.39261 -6.27534,-3.02788 -7.0056,-3.63394 -0.73025,-0.60606 -2.56272,-1.41189 -4.07214,-1.79073 -1.50943,-0.37885 -2.74441,-1.01744 -2.74441,-1.41911 0,-0.90978 -12.19888,-8.79779 -15.613744,-10.09612 -1.38405,-0.52622 -3.42393,-0.95676 -4.53306,-0.95676 -1.10913,0 -3.93869,-1.575 -6.2879,-3.5 -2.3492,-1.925 -5.17675,-3.5 -6.28343,-3.5 -1.10669,0 -3.15632,-0.9 -4.55474,-2 -2.1163,-1.66468 -4.05679,-2 -11.57404,-2 l -9.03145,0 -4.62164,4 c -2.5419,2.2 -5.17558,4 -5.85261,4 -1.39302,0 -7.92343,6.65261 -11.95948,12.18328 -3.79233,5.19667 -3.78573,13.51614 0.0165,20.8448 3.50819,6.7619 12.30125,15.43489 20.75533,20.47192 3.69245,2.2 8.31143,5.2375 10.2644,6.75 1.95297,1.5125 4.32829,2.75 5.27849,2.75 0.9502,0 2.8718,0.9 4.27023,2 1.39842,1.1 3.05645,2 3.68451,2 0.62807,0 2.57158,0.7393 4.31893,1.64289 6.91059,3.5736 13.97305,4.54344 36.832034,5.05788 22.18958,0.49938 22.74525,0.4622 30,-2.00725 11.32573,-3.85518 14.16505,-5.25824 18.29362,-9.03986 2.09568,-1.91957 4.93061,-3.7713 6.29983,-4.11495 5.39934,-1.35515 7.10545,4.52478 2.7982,9.64366 -1.375,1.63409 -2.50777,3.49905 -2.51728,4.14436 -0.0223,1.51634 -4.25968,5.52588 -8.00248,7.57222 -10.0054,5.4704 -15.5026,8.10105 -16.9285,8.10105 -0.89586,0 -3.39413,0.9 -5.55172,2 -3.63293,1.85217 -5.84749,1.99676 -29.96144,1.95611 -20.065954,-0.0338 -26.956064,-0.37444 -30.038564,-1.48495 z"
     id="path2987"
     inkscape:connector-curvature="0" />
</svg>
