<?xml version="1.0" encoding="UTF-8" standalone="no"?>
<!-- Created with Inkscape (http://www.inkscape.org/) -->

<svg
   xmlns:dc="http://purl.org/dc/elements/1.1/"
   xmlns:cc="http://creativecommons.org/ns#"
   xmlns:rdf="http://www.w3.org/1999/02/22-rdf-syntax-ns#"
   xmlns:svg="http://www.w3.org/2000/svg"
   xmlns="http://www.w3.org/2000/svg"
   xmlns:sodipodi="http://sodipodi.sourceforge.net/DTD/sodipodi-0.dtd"
   xmlns:inkscape="http://www.inkscape.org/namespaces/inkscape"
   id="svg2"
   version="1.1"
   inkscape:version="0.48.2 r9819"
   width="372.8942"
   height="560.6554"
   sodipodi:docname="fieldbookofins00lutz_0301b.png">
  <metadata
     id="metadata8">
    <rdf:RDF>
      <cc:Work
         rdf:about="">
        <dc:format>image/svg+xml</dc:format>
        <dc:type
           rdf:resource="http://purl.org/dc/dcmitype/StillImage" />
        <dc:title></dc:title>
      </cc:Work>
    </rdf:RDF>
  </metadata>
  <defs
     id="defs6" />
  <sodipodi:namedview
     pagecolor="#ffffff"
     bordercolor="#666666"
     borderopacity="1"
     objecttolerance="10"
     gridtolerance="10"
     guidetolerance="10"
     inkscape:pageopacity="0"
     inkscape:pageshadow="2"
     inkscape:window-width="1920"
     inkscape:window-height="1176"
     id="namedview4"
     showgrid="false"
     fit-margin-top="0"
     fit-margin-left="0"
     fit-margin-right="0"
     fit-margin-bottom="0"
     inkscape:zoom="1"
     inkscape:cx="190.94536"
     inkscape:cy="252.86736"
     inkscape:window-x="0"
     inkscape:window-y="24"
     inkscape:window-maximized="1"
     inkscape:current-layer="svg2" />
  <path
     style="fill:#000000"
     d="m 71.445358,558.72211 c -1.1,-1.06496 -3.33931,-3.01264 -4.97625,-4.32817 -2.69397,-2.16502 -2.85616,-2.61627 -1.71002,-4.75785 1.29244,-2.41494 1.05555,-20.72105 -0.40201,-31.06695 -0.37825,-2.68483 -0.16068,-6.72097 0.50473,-9.36359 0.64325,-2.55458 1.372,-9.37822 1.61943,-15.16364 0.27289,-6.38062 1.02684,-11.67551 1.91643,-13.45872 0.8066,-1.61687 1.98804,-6.61973 2.62543,-11.11746 0.63738,-4.49773 2.00564,-10.08529 3.04057,-12.41679 2.37661,-5.35407 2.35948,-6.2609 -0.11831,-6.2609 -2.18464,0 -2.49709,-1.08474 -1.08407,-3.76357 0.50377,-0.95504 1.5802,-3.31143 2.39208,-5.23643 0.81188,-1.925 2.64971,-6.10084 4.08407,-9.27964 1.43435,-3.17879 2.60792,-6.38619 2.60792,-7.12755 0,-0.74136 0.675,-1.90812 1.5,-2.59281 0.825,-0.68469 1.5,-2.07593 1.5,-3.09165 0,-1.01572 0.86151,-3.54812 1.91447,-5.62756 1.75548,-3.4668 4.28842,-9.07633 7.57723,-16.78079 2.53816,-5.94596 5.44992,-14.05938 6.100992,-17 0.36533,-1.65 1.59267,-4.54268 2.72744,-6.42817 3.01288,-5.0061 8.67987,-17.04025 8.67987,-18.43216 0,-0.65855 1.33783,-4.33438 2.97295,-8.16852 1.63512,-3.83413 2.98512,-8.71033 3,-10.83599 0.0241,-3.44314 0.84539,-4.70575 7.52705,-11.5718 4.125,-4.23883 7.5,-8.14635 7.5,-8.68339 0,-0.53703 4.78124,-5.58598 10.62498,-11.21988 5.84374,-5.6339 10.35583,-10.51261 10.02686,-10.84158 -0.32896,-0.32897 -1.45094,0.0273 -2.49328,0.79168 -1.04234,0.7644 -5.21693,3.69079 -9.27686,6.50311 -4.05994,2.81231 -8.89179,6.52481 -10.73746,8.25 -1.84566,1.72518 -3.58293,3.1367 -3.8606,3.1367 -0.27766,0 -3.27518,1.9366 -6.66115,4.30357 -3.38597,2.36696 -6.93504,4.60239 -7.88683,4.96763 -0.9518,0.36523 -4.18232,2.23245 -7.17896,4.14938 -4.5297,2.89761 -5.565082,4.10719 -6.140292,7.17329 -0.38053,2.02839 -1.57331,5.98707 -2.65062,8.79706 -1.07731,2.80999 -3.85546,10.50907 -6.17366,17.10907 -2.3182,6.6 -4.68767,12.9 -5.26549,14 -0.57782,1.1 -1.85826,4.7 -2.84543,8 -0.98718,3.3 -2.17429,6.4275 -2.63804,6.95 -0.46374,0.5225 -0.84317,1.76611 -0.84317,2.76357 0,0.99746 -0.39078,2.59496 -0.8684,3.55 -1.03925,2.07806 -2.68538,6.87829 -9.19534,26.81416 -3.32938,10.19581 -5.99533,16.5096 -8.23373,19.5 -3.22093,4.30303 -5.70253,9.99931 -5.70253,13.08963 0,0.83895 -0.7342,2.99709 -1.63155,4.79588 -2.01456,4.03828 -7.9751,32.1744 -8.93449,42.17437 -1.07449,11.1997 -1.15982,34.8406 -0.14266,39.52861 0.49716,2.29142 1.71368,5.03537 2.70336,6.09767 1.07051,1.14906 1.9424,3.90527 2.15238,6.8041 0.33084,4.56721 0.17753,4.93469 -2.4457,5.86248 -1.98823,0.7032 -3.35981,0.6394 -4.73643,-0.22031 -1.06578,-0.66559 -2.95638,-1.21705 -4.20134,-1.22547 -1.84558,-0.0125 -1.98658,-0.20053 -0.76357,-1.0183 1.31263,-0.8777 1.28757,-1.12837 -0.20064,-2.00675 -4.70625,-2.77778 -5.54111,-4.87848 -3.77984,-9.51097 0.56073,-1.47485 1.1951,-12.41879 1.4097,-24.31987 0.25741,-14.27549 0.8112,-22.56236 1.6275,-24.35395 0.87123,-1.91214 0.9269,-3.09423 0.18815,-3.99524 -0.75042,-0.91524 -0.25937,-4.26951 1.72448,-11.77961 3.01101,-11.39856 11.45089,-37.4329 13.04395,-40.23643 0.54269,-0.95504 0.9867,-2.49832 0.9867,-3.42951 0,-2.50239 3.83827,-14.29149 5.99813,-18.42301 1.03192,-1.97392 2.9845,-6.76112 4.33908,-10.63822 1.35457,-3.87709 3.23152,-8.78706 4.17099,-10.91104 6.81242,-15.40175 7.4918,-17.09334 7.4918,-18.65372 0,-0.81931 0.89012,-3.4513 1.97804,-5.84887 1.08792,-2.39756 1.98792,-5.3166 2,-6.48676 0.0121,-1.17015 0.62408,-2.62727 1.36001,-3.23803 0.73593,-0.61077 2.13046,-3.92837 3.09896,-7.37245 0.9685,-3.44408 2.39138,-7.45639 3.16195,-8.91625 0.77057,-1.45986 1.40104,-3.64043 1.40104,-4.84571 0,-1.20528 0.62888,-3.38585 1.39752,-4.84571 0.76864,-1.45986 1.87788,-4.45429 2.46499,-6.65429 0.58711,-2.2 1.32538,-4.971 1.6406,-6.15777 0.31522,-1.18678 2.69347,-4.02428 5.28501,-6.30556 2.591532,-2.28128 6.961882,-6.14362 9.711882,-8.58298 2.75,-2.43936 6.40587,-5.45186 8.12416,-6.69444 1.71829,-1.24259 5.70252,-4.28425 8.85384,-6.75925 11.98955,-9.4164 33.69,-24.68724 47.37177,-33.33601 4.20763,-2.6598 8.55023,-5.63025 9.65023,-6.60098 1.1,-0.97074 2.69491,-2.00739 3.54425,-2.30366 3.28096,-1.14448 15.11383,-10.10004 17.5292,-13.26676 2.40043,-3.14712 2.48155,-3.64652 1.48812,-9.16059 -0.5779,-3.2076 -1.31835,-7.62503 -1.64545,-9.81651 -0.54044,-3.62073 -0.70071,-3.7995 -1.75543,-1.95802 -2.87073,5.01211 -6.18538,8.44253 -8.15762,8.44253 -6.40982,0 -7.51924,-7.2441 -1.5646,-10.21625 1.89116,-0.94393 4.35366,-2.63143 5.47222,-3.75 1.85372,-1.85372 1.87631,-2.03375 0.25516,-2.03375 -3.58053,0 -9.46913,-8.61108 -11.11238,-16.25 -0.43526,-2.02334 -1.19429,-2.75 -2.87252,-2.75 -1.25452,0 -2.70845,-0.37175 -3.23095,-0.82612 -4.07382,-3.54259 -28.42623,-4.96548 -38.31451,-2.23868 -2.40048,0.66196 -7.74831,1.42879 -11.88405,1.70408 -4.68161,0.31163 -8.87864,1.22896 -11.12068,2.43063 -1.98063,1.06155 -4.28281,1.93551 -5.11595,1.94214 -0.83315,0.007 -3.53981,1.19925 -6.01481,2.65028 -2.475,1.45103 -6.87974,2.98413 -9.788312,3.4069 -4.61634,0.67098 -5.90408,1.41429 -10.13438,5.84971 -2.66534,2.79458 -5.743,5.08106 -6.83925,5.08106 -1.09624,0 -2.57186,0.69728 -3.27914,1.5495 -0.70729,0.85223 -3.18787,2.41592 -5.5124,3.47486 -2.32454,1.05895 -5.43094,3.39918 -6.90312,5.2005 -1.47218,1.80133 -4.03494,4.85014 -5.69502,6.77514 -1.66008,1.925 -4.34817,5.43356 -5.97353,7.7968 -1.62536,2.36324 -3.72462,4.58536 -4.66502,4.93803 -2.27731,0.85405 -3.93423,2.98432 -5.84528,7.51517 -0.86994,2.0625 -1.9772,3.75 -2.46059,3.75 -1.42133,0 -5.37967,7.06906 -7.21827,12.89088 -1.67842,5.31459 -4.45652,8.60023 -9.53024,11.27136 -1.39757,0.73577 -4.31159,3.25026 -6.47561,5.58776 -4.12865,4.45965 -6.60037,5.15459 -11.0777496,3.11456 -2.09333,-0.95378 -2.58866,-2.03371 -3.09604,-6.75 -0.33221,-3.08801 -1.03198,-6.39595 -1.55504,-7.35099 -1.47216,-2.68799 -1.13673,-5.25774 1.04899,-8.03644 1.1,-1.39842 2.00285,-3.59661 2.00632,-4.88486 0.004,-1.55158 1.01691,-2.91732 3,-4.04576 1.64653,-0.93692 2.99368,-2.36462 2.99368,-3.17268 0,-0.80805 2.4749996,-3.58364 5.4999996,-6.16798 3.025,-2.58434 5.5,-5.29409 5.5,-6.02167 0,-2.5638 10.98641,-12.43418 13.84009,-12.43418 0.56725,0 3.46715,-2.475 6.44424,-5.5 2.97709,-3.025 5.89101,-5.5 6.47538,-5.5 0.58438,0 2.19845,-1.35 3.58684,-3 1.38838,-1.65 3.19806,-3 4.0215,-3 0.82345,0 1.76453,-0.84235 2.09129,-1.87189 0.70569,-2.22342 9.71796,-7.12811 13.09776,-7.12811 1.34908,0 2.83426,-0.86275 3.4429,-2 0.5887,-1.1 1.88479,-2 2.8802,-2 0.9954,0 2.62431,-0.9 3.6198,-2 0.99549,-1.1 3.07523,-2 4.62165,-2 1.8998,0 3.99033,-1.17865 6.44589,-3.63421 2.76815,-2.76814 4.68256,-3.75237 8.03333,-4.13005 3.012212,-0.33952 4.399132,-0.96636 4.399132,-1.98824 0,-1.19457 0.29117,-1.25074 1.45904,-0.28149 2.80336,2.32658 10.79396,-1.1296 9.06803,-3.92221 -0.35481,-0.57409 0.0564,-1.0438 0.91391,-1.0438 0.85746,0 1.55902,0.45 1.55902,1 0,0.55 1.0125,0.96447 2.25,0.92105 1.2375,-0.0434 1.6875,-0.30592 1,-0.58333 -3.71301,-1.49823 0.11839,-2.05201 11.5,-1.66218 17.26709,0.59142 38.01165,-2.30205 45.92948,-6.40629 2.5546,-1.32419 3.86088,-1.43897 6.64659,-0.58401 3.14948,0.9666 3.56144,0.85707 4.49672,-1.19565 1.31265,-2.88095 12.43594,-8.48959 16.83693,-8.48959 7.17501,0 1.42328,-4.53054 -8.34693,-6.57473 -3.51828,-0.73613 -9.64046,-3.08855 -13.60484,-5.2276 -3.96437,-2.13906 -8.33738,-4.16505 -9.71779,-4.50221 -4.80884,-1.17453 -28.16613,-21.00738 -35.99016,-30.55952 -1.925,-2.35017 -4.38056,-5.0297 -5.4568,-5.95449 -1.07624,-0.9248 -3.55124,-3.3699 -5.5,-5.43356 -1.94876,-2.06366 -5.6807,-5.975779 -8.2932,-8.693609 -2.6125,-2.71783 -4.7557,-5.52938 -4.76267,-6.2479 -0.007,-0.71851 -1.35696,-3.95729 -3,-7.1973 -1.64303,-3.24001 -2.98733,-6.63751 -2.98733,-7.55 0,-0.91249 -0.49971,-2.15879 -1.11047,-2.76955 -1.96823,-1.968232 -4.05793,-12.515338 -4.57677,-23.099881 -0.52834,-10.778338 0.11376,-13.901625 4.02355,-19.571128 1.93845,-2.810903 2.15278,-2.867592 8.75039,-2.314472 3.7198,0.311855 8.12468,1.271021 9.78863,2.13148 1.66394,0.860459 3.8352,1.565527 4.82501,1.566817 0.98981,0.0013 3.37466,1.350235 5.29966,2.997654 1.925,1.647419 3.88388,2.996363 4.35307,2.997654 1.53373,0.0042 10.79845,8.905131 17.03827,16.369208 3.35976,4.018957 8.19001,9.743031 10.73388,12.720166 2.54387,2.977135 7.21867,10.362972 10.38846,16.412972 3.16979,6.05 8.96344,16.29244 12.87478,22.760969 7.29981,12.07233 11.73117,19.73259 17.49291,30.23903 1.80972,3.3 4.10753,6.9 5.10625,8 2.10786,2.32163 6.61541,11.2177 8.61374,17 l 1.38237,4 -0.46311,-5.5 c -0.50375,-5.98269 -1.9008,-11.52703 -3.36314,-13.34692 -0.50959,-0.63419 -1.21929,-2.52472 -1.57711,-4.20116 -0.35782,-1.67644 -1.66839,-4.15144 -2.91237,-5.5 -6.52666,-7.07532 -20.668,-27.40314 -20.668,-29.70973 0,-0.30438 -1.20567,-2.13412 -2.67926,-4.0661 -3.75168,-4.918709 -9.98449,-17.450369 -11.1754,-22.469209 -0.54904,-2.31378 -1.75213,-6.90688 -2.67355,-10.20688 -1.41662,-5.073568 -1.59117,-9.242511 -1.13048,-27 0.51554,-19.871348 0.98862,-24.663841 2.66523,-27 0.39473,-0.55 0.99203,-2.152722 1.32734,-3.561605 0.33531,-1.4088831 1.74681,-3.8838831 3.13667,-5.5000001 1.38985,-1.616117 2.52756,-3.255504 2.52823,-3.643082 6.7e-4,-0.387578 1.61963,-1.00830199 3.59768,-1.37938699 4.53007,-0.849847 11.40354,1.09720899 11.40354,3.23029499 0,0.861266 1.10671,2.436475 2.45935,3.500464 1.35264,1.063989 4.49513,4.6113961 6.9833,7.8831261 4.20917,5.5347 6.01255,9.877304 9.74661,23.470189 0.60436,2.2 2.15942,7.065458 3.4557,10.812128 1.29628,3.746671 2.78912,10.271671 3.31742,14.5 0.93913,7.516332 2.75094,20.200872 3.31207,23.187872 0.15499,0.825 0.56249,1.95 0.90556,2.5 0.81839,1.31199 0.92248,4.16076 1.04135,28.499999 0.0551,11.275 -0.22251,25.45 -0.61685,31.5 l -0.71699,11 3.30624,3.02231 c 1.81843,1.66227 4.54738,3.56678 6.06434,4.23225 1.51695,0.66547 4.20153,3.25776 5.96573,5.76065 2.7758,3.93806 3.30273,4.29366 3.91396,2.64135 0.97377,-2.63237 6.16702,-6.15656 9.0723,-6.15656 2.57818,0 7.28581,3.085 11.27337,7.38766 1.73775,1.87506 3.14049,2.51255 4.74213,2.15511 1.25092,-0.27917 7.97523,-1.86551 14.94291,-3.52518 6.96767,-1.65967 13.80361,-3.01759 15.19098,-3.01759 1.38737,0 2.8006,-0.45 3.14052,-1 0.33992,-0.55 1.94148,-1 3.55902,-1 1.61754,0 2.94098,-0.34512 2.94098,-0.76693 0,-0.42181 1.89409,-0.8166 4.2091,-0.8773 2.315,-0.0607 4.37312,-0.60243 4.57359,-1.20385 0.23151,-0.69453 1.95445,-0.87556 4.72233,-0.49618 3.51695,0.48205 4.87947,0.18698 7.06126,-1.52922 1.48689,-1.16958 3.31775,-2.12652 4.06858,-2.12652 0.75083,0 1.38472,-0.3375 1.40864,-0.75 0.0239,-0.4125 2.65131,-3.6172 5.83862,-7.12155 5.10945,-5.61768 6.03694,-6.24213 7.83893,-5.27774 1.15036,0.61565 2.2393,2.42577 2.491,4.1407 0.38389,2.6156 -0.15412,3.53962 -3.80073,6.52774 -2.33635,1.91447 -4.70202,3.48085 -5.25704,3.48085 -1.00783,0 -5.43566,5.05195 -4.89857,5.58904 0.15604,0.15604 4.92992,-0.43282 10.60862,-1.30858 8.84107,-1.36346 10.45283,-1.39024 11.21498,-0.18638 1.31494,2.07705 1.12148,3.43638 -0.83249,5.84944 -1.6445,2.03087 -2.74486,2.18402 -17.75,2.47044 -19.19801,0.36644 -34.49646,1.83545 -47.99682,4.6088 -8.58033,1.76264 -25.24173,4.89555 -26.36354,4.95725 -0.19995,0.011 -0.0539,2.08497 0.32459,4.60882 0.48903,3.26108 0.29242,5.06949 -0.67951,6.25 -1.87501,2.27741 -4.04242,8.93004 -3.30049,10.13051 0.90484,1.46405 15.15841,8.03066 17.43148,8.03066 1.08319,0 2.22183,0.40838 2.53031,0.90751 0.30848,0.49913 3.14754,1.67074 6.30902,2.60358 3.16148,0.93283 7.03921,2.09472 8.61719,2.58197 1.57797,0.48724 7.7936,1.185 13.81251,1.55056 l 10.94347,0.66466 -0.31252,-3.79877 c -0.41876,-5.09025 1.29482,-5.43718 5.27138,-1.06725 1.78061,1.95676 3.8136,3.55774 4.51777,3.55774 2.54466,0 2.53701,2.19207 -0.0212,6.05772 -2.94962,4.45717 -5.73754,5.02809 -11.92626,2.44228 -1.9745,-0.825 -5.41273,-1.5 -7.6405,-1.5 -7.87463,0 -35.28936,-8.23894 -48.8473,-14.68005 -6.32547,-3.00511 -10.35407,-4.33522 -12.5,-4.12708 -3.05574,0.29639 -2.92171,0.44492 3.83356,4.24829 3.85,2.16764 7.24337,4.29189 7.54082,4.72056 0.29745,0.42866 2.51655,1.47647 4.93133,2.32845 2.41478,0.85199 5.85389,2.66524 7.64246,4.02945 1.78857,1.36421 3.70961,2.48038 4.26898,2.48038 0.55937,0 1.37689,0.58508 1.81672,1.30018 0.43983,0.7151 2.37469,2.39281 4.29969,3.72825 7.07079,4.90525 14.08791,14.3586 14.22451,19.16303 0.045,1.58393 0.50018,3.13839 1.01144,3.45437 0.51126,0.31597 1.7956,2.43743 2.85407,4.71434 1.05848,2.2769 2.95176,5.93983 4.2073,8.13983 3.52642,6.17913 5.49011,9.85874 6.13718,11.5 0.32525,0.825 1.71055,3.48328 3.07843,5.90728 1.36789,2.42401 2.48707,4.82954 2.48707,5.34563 0,0.51609 0.83309,2.13282 1.8513,3.59272 1.01822,1.4599 2.65657,4.79768 3.64079,7.41728 0.98422,2.6196 2.76748,5.3196 3.96281,6 6.29645,3.58403 9.5451,6.08078 9.5451,7.33587 0,0.77067 0.57224,1.40122 1.27164,1.40122 1.57449,0 15.72836,13.94613 15.72836,15.49751 0,0.6195 1.35,2.12447 3,3.34437 1.65,1.2199 3,2.70176 3,3.29303 0,0.59127 1.35,3.07536 3,5.5202 3.34973,4.96336 3.86659,9.66264 1.4433,13.12238 -2.06654,2.9504 -6.45172,2.90691 -9.26899,-0.0919 -2.75263,-2.93013 -2.83711,-5.68559 -0.17427,-5.68559 1.11111,0 2,-0.66667 2,-1.5 0,-0.84262 -0.89309,-1.5 -2.03785,-1.5 -1.56798,0 -1.97148,-0.55753 -1.75,-2.41804 0.29251,-2.45719 -4.17113,-8.20659 -15.71215,-20.23806 -2.75,-2.86686 -6.47523,-6.81705 -8.27828,-8.77819 -3.93346,-4.27832 -7.22172,-4.76357 -7.22172,-1.06571 0,3.65863 -3.75437,3.45283 -4.56086,-0.25 -0.32942,-1.5125 -1.44582,-4.55 -2.48087,-6.75 -4.42807,-9.41185 -9.95372,-23.13153 -9.95591,-24.71958 -0.001,-0.94577 -0.90236,-3.32196 -2.00236,-5.28042 -1.1,-1.95846 -2.00239,-4.78465 -2.00531,-6.28042 -0.003,-1.49577 -1.98947,-6.82715 -4.41457,-11.84752 -3.77934,-7.82386 -5.12178,-9.6097 -9.39646,-12.5 -2.74295,-1.85463 -9.16436,-7.34914 -14.2698,-12.21001 -5.10544,-4.86087 -12.01215,-10.6771 -15.34824,-12.92494 -3.33609,-2.24785 -6.29062,-4.36953 -6.56562,-4.71484 -0.275,-0.34531 -2.1875,-1.65329 -4.25,-2.90662 -2.73114,-1.65963 -3.75,-1.90678 -3.75,-0.90962 0,1.69747 9.10946,10.79397 10.80935,10.79397 0.68236,0 1.51065,1.35 1.84065,3 0.33,1.65 0.94127,3 1.35837,3 0.4171,0 1.00811,0.7875 1.31335,1.75 0.87998,2.77479 3.90411,7.30858 7.42828,11.13653 1.7875,1.94158 3.25,3.84514 3.25,4.23014 0,0.385 1.95051,3.10374 4.33447,6.04166 4.55748,5.6165 9.36435,14.28443 10.72609,19.34167 3.23402,12.01062 4.30123,18.31916 5.41339,32 1.53713,18.90855 3.0969,29.73759 4.50259,31.2603 0.8833,0.95684 3.61243,4.42493 6.06473,7.70688 2.4523,3.28195 5.24623,6.76945 6.20873,7.75 0.9625,0.98055 1.75,2.25181 1.75,2.82503 0,0.57321 0.44322,1.58571 0.98493,2.25 4.37027,5.35917 6.01507,7.59002 6.01507,8.15823 0,0.36396 1.40919,3.449 3.13154,6.85565 3.14433,6.2192 4.57034,10.85197 5.56912,18.09276 l 0.5378,3.89884 -3.36923,-0.67307 c -1.85308,-0.37018 -4.38138,-1.68454 -5.61845,-2.92079 -2.02766,-2.02631 -2.1284,-2.56778 -1.02273,-5.49704 0.96881,-2.56667 0.96864,-3.66219 -7.8e-4,-5.21449 -0.675,-1.08084 -1.23582,-2.53377 -1.24627,-3.22873 -0.0104,-0.69496 -1.47295,-3.47659 -3.25,-6.18138 -1.77705,-2.7048 -4.356,-6.78762 -5.731,-9.07293 -3.20016,-5.31882 -11.24043,-15.50926 -12.23683,-15.50926 -0.41974,0 -0.76317,0.675 -0.76317,1.5 0,2.7481 -6.28483,0.92991 -8.40058,-2.43028 -0.49532,-0.78665 -0.98937,-10.91165 -1.0979,-22.5 -0.24346,-25.99747 -1.9156,-40.71908 -5.04823,-44.44492 -4.65147,-5.53232 -13.08006,-17.2407 -15.95329,-22.16113 -1.65,-2.82565 -4.4625,-6.94099 -6.25,-9.14522 -1.7875,-2.20422 -3.25106,-4.5276 -3.25235,-5.16306 -0.001,-0.63547 -1.35023,-2.73039 -2.99765,-4.65539 -1.64742,-1.925 -2.99636,-3.82876 -2.99765,-4.23058 -0.001,-0.40182 -1.68511,-3.32682 -3.74182,-6.5 -3.31787,-5.11896 -3.77929,-5.49583 -4.0927,-3.34276 -0.19428,1.33467 -0.93884,3.35967 -1.65458,4.5 -1.30102,2.07281 -1.21541,2.51719 2.90403,15.07334 0.18045,0.55 0.43563,1.45 0.56708,2 0.13145,0.55 1.26712,3.925 2.52371,7.5 1.2566,3.575 2.82407,8.975 3.48326,12 1.28932,5.91658 2.80446,11.29502 4.08473,14.5 0.43941,1.1 1.54699,6.77469 2.4613,12.61042 1.31078,8.36625 1.43626,11.75036 0.59325,16 -1.16634,5.87965 -1.60702,9.5621 -3.21784,26.88958 -0.588,6.325 -1.4208,13.38562 -1.85066,15.69027 -0.42987,2.30464 -0.45027,4.55464 -0.0453,5 0.40493,0.44535 1.71243,3.46922 2.90556,6.71971 1.19312,3.25049 3.04869,7.14495 4.12349,8.65437 1.0748,1.50941 1.95418,3.24353 1.95418,3.85359 0,0.61006 0.39871,1.89059 0.88602,2.84563 0.4873,0.95504 1.90962,4.21143 3.1607,7.23643 1.25108,3.025 3.14378,7.41512 4.20601,9.75582 1.33337,2.93818 1.83041,5.87947 1.60541,9.5 -0.17925,2.8843 0.0551,5.84589 0.52084,6.58131 0.49475,0.78128 0.39747,1.78642 -0.23402,2.41791 -1.25036,1.25036 -9.06004,-0.68326 -9.26996,-2.29518 -0.0688,-0.52792 -0.20978,-1.52236 -0.31341,-2.20986 -0.10362,-0.6875 0.48713,-2.05381 1.31279,-3.03624 1.23408,-1.46842 1.2914,-2.36641 0.32211,-5.04693 -0.6485,-1.79338 -1.46917,-5.37707 -1.82371,-7.96376 -0.35459,-2.58669 -1.00136,-4.70307 -1.43732,-4.70307 -1.76525,0 -3.9355,-3.31659 -3.9355,-6.01427 0,-1.57927 -0.88354,-4.36889 -1.96341,-6.19915 -1.07988,-1.83026 -2.66238,-5.34348 -3.51668,-7.80716 -0.85429,-2.46368 -1.77607,-5.0926 -2.04841,-5.84204 -0.37458,-1.03079 -0.82672,-1.08747 -1.85658,-0.23275 -0.74879,0.62143 -2.05337,0.86435 -2.89907,0.53983 -2.02055,-0.77536 -1.71153,-12.83037 0.51125,-19.94446 0.85923,-2.75 2.10007,-9.05 2.75742,-14 0.65735,-4.95 1.84764,-12.09248 2.64508,-15.87218 1.9814,-9.39136 1.52195,-14.98241 -1.85511,-22.57478 -1.57717,-3.54582 -3.48432,-7.82082 -4.23811,-9.5 -0.75379,-1.67917 -1.84811,-4.62804 -2.43182,-6.55304 -0.58371,-1.925 -2.19605,-6.875 -3.58298,-11 -1.38692,-4.125 -2.97208,-11.07792 -3.52256,-15.45093 -0.55048,-4.37301 -1.45046,-8.40051 -1.99995,-8.95 -1.47179,-1.47179 -1.26318,8.92726 0.42901,21.38638 3.36167,24.75093 3.76721,30.7809 2.23421,33.22051 -0.97109,1.5454 -1.43245,5.08343 -1.41372,10.84155 0.0153,4.70112 -0.28354,11.67612 -0.66407,15.5 -0.38052,3.82387 -0.90228,9.20249 -1.15946,11.95249 -0.9235,9.87506 -2.60474,20.07681 -4.00214,24.28495 -0.78259,2.35672 -1.4229,7.41902 -1.4229,11.24955 0,7.52285 -2.46825,24.44779 -3.95102,27.09239 -0.50169,0.89479 -1.23674,3.36979 -1.63345,5.5 -0.39671,2.13021 -1.50807,5.44811 -2.4697,7.37311 -2.00671,4.01709 -4.4675,9.69685 -5.30738,12.25 -0.88816,2.6999 -4.02101,2.0764 -6.51475,-1.29656 -2.65996,-3.59778 -2.44465,-6.33292 0.53209,-6.75931 2.87407,-0.41168 4.84033,-2.88033 6.12829,-7.69413 0.58863,-2.2 1.80431,-6.475 2.70153,-9.5 0.89722,-3.025 1.77803,-7.56997 1.95735,-10.09993 0.17932,-2.52996 0.82802,-5.53788 1.44154,-6.68426 1.55538,-2.90626 1.3908,-9.18408 -0.37174,-14.17966 -1.04105,-2.95063 -1.19106,-4.76874 -0.5,-6.05998 1.6942,-3.16565 1.18825,-6.69034 -1.04416,-7.27413 -1.96933,-0.51499 -1.95406,-0.61469 0.5,-3.26266 1.49415,-1.61221 2.5314,-3.91527 2.5314,-5.62059 0,-1.58903 0.67545,-3.92002 1.50099,-5.17996 0.82555,-1.25994 1.69376,-4.61065 1.92937,-7.44602 0.2356,-2.83536 0.72948,-5.64242 1.09751,-6.2379 0.85529,-1.3839 2.75761,-18.90041 2.76444,-25.45491 0.003,-2.75 -0.71456,-9.5 -1.59427,-15 -1.83708,-11.48555 -2.67139,-32.94002 -1.6565,-42.59716 0.67775,-6.44905 -0.23234,-15.8776 -1.24544,-12.90284 -0.28096,0.825 -1.33162,4.11253 -2.3348,7.30561 -1.7441,5.55144 -6.79346,11.69439 -9.61251,11.69439 -1.8129,0 -12.6887,12.44986 -25.68763,29.40544 -6.78636,8.85201 -13.65744,17.36288 -15.26906,18.91306 -1.61162,1.55017 -4.81059,5.37517 -7.10884,8.5 -2.29824,3.12482 -5.58847,7.0315 -7.31161,8.6815 -1.72314,1.65 -4.87726,5.21431 -7.00914,7.9207 -5.67336,7.20221 -16.86008,18.01512 -21.99245,21.25755 -2.45657,1.55196 -4.46729,3.24673 -4.46827,3.76615 -0.003,1.39146 -8.83286,24.07384 -12.14556,31.19857 -1.57093,3.37863 -2.85623,7.00113 -2.85623,8.05 0,1.04887 -0.41579,2.33453 -0.92397,2.85703 -1.28185,1.31796 -5.07491,11.56443 -5.07553,13.7109 -4.8e-4,1.69373 -3.171262,9.63301 -5.087732,12.7391 -1.28938,2.08976 -1.52094,2.71924 -3.49456,9.5 -0.96051,3.3 -2.04654,6.45 -2.41341,7 -0.36686,0.55 -1.69277,3.925 -2.94647,7.5 -1.25371,3.575 -2.67971,6.9275 -3.1689,7.45 -0.48918,0.5225 -0.88943,1.69026 -0.88943,2.59501 0,0.90476 -0.9,2.4595 -2,3.45499 -1.1,0.99549 -2,3.06094 -2,4.58989 0,1.52895 -0.50139,4.04671 -1.11421,5.59501 -0.61282,1.54831 -1.07549,4.30504 -1.02816,6.12608 0.0473,1.82103 -0.61521,6.32103 -1.4723,10 -2.92082,12.53718 -4.25098,22.60702 -3.1622,23.93902 0.70144,0.85812 0.66824,1.67597 -0.1059,2.60875 -1.46385,1.76383 -1.5913,27.04737 -0.17714,35.14125 0.57658,3.3 1.05093,6.3375 1.05412,6.75 0.003,0.4125 0.66496,0.75 1.47061,0.75 2.71622,0 3.88952,3.86987 2.54601,8.39747 -2.05629,6.92964 -3.89311,8.0391 -7.51083,4.5366 z"
     id="path2987"
     inkscape:connector-curvature="0" />
</svg>
