<?xml version="1.0" encoding="UTF-8" standalone="no"?>
<!-- Created with Inkscape (http://www.inkscape.org/) -->

<svg
   xmlns:dc="http://purl.org/dc/elements/1.1/"
   xmlns:cc="http://creativecommons.org/ns#"
   xmlns:rdf="http://www.w3.org/1999/02/22-rdf-syntax-ns#"
   xmlns:svg="http://www.w3.org/2000/svg"
   xmlns="http://www.w3.org/2000/svg"
   xmlns:sodipodi="http://sodipodi.sourceforge.net/DTD/sodipodi-0.dtd"
   xmlns:inkscape="http://www.inkscape.org/namespaces/inkscape"
   id="svg2"
   version="1.1"
   inkscape:version="0.48.2 r9819"
   width="1230.4282"
   height="739.362"
   sodipodi:docname="dinosaurswithspe00matt_0030e.png">
  <metadata
     id="metadata8">
    <rdf:RDF>
      <cc:Work
         rdf:about="">
        <dc:format>image/svg+xml</dc:format>
        <dc:type
           rdf:resource="http://purl.org/dc/dcmitype/StillImage" />
        <dc:title></dc:title>
      </cc:Work>
    </rdf:RDF>
  </metadata>
  <defs
     id="defs6" />
  <sodipodi:namedview
     pagecolor="#ffffff"
     bordercolor="#666666"
     borderopacity="1"
     objecttolerance="10"
     gridtolerance="10"
     guidetolerance="10"
     inkscape:pageopacity="0"
     inkscape:pageshadow="2"
     inkscape:window-width="1600"
     inkscape:window-height="876"
     id="namedview4"
     showgrid="false"
     fit-margin-top="0"
     fit-margin-left="0"
     fit-margin-right="0"
     fit-margin-bottom="0"
     inkscape:zoom="0.70710678"
     inkscape:cx="634.25123"
     inkscape:cy="374.49663"
     inkscape:window-x="0"
     inkscape:window-y="24"
     inkscape:window-maximized="1"
     inkscape:current-layer="svg2" />
  <path
     style="fill:#000000"
     d="m 977.23733,739.18097 c -0.55,-0.2483 -7.3,-0.88785 -15,-1.42121 -17.16,-1.18864 -19.876,-2.06454 -22.786,-7.34846 -6.3726,-11.57119 -6.091,-10.4195 -5.8255,-23.82968 0.2154,-10.88259 0.017,-12.7625 -1.4783,-14 -3.2065,-2.65376 -5.3652,-9.10309 -5.3882,-16.09765 -0.026,-7.95636 -0.6187,-9.83179 -3.1059,-9.83179 -3.5793,0 -5.3297,4.60781 -5.7529,15.14446 -0.4186,10.4223 0.9431,16.13819 4.8491,20.35554 1.6695,1.80257 2.0711,6.83969 1.1025,13.82842 -0.1721,1.24159 -7.4695,8.25584 -9.9956,9.6078 -1.3962,0.74722 -7.0515,1.1561 -15.4123,1.11433 -7.2638,-0.0363 -15.6819,-0.0266 -18.7069,0.0215 -4.9549,0.0789 -8.7864,-0.7028 -21.4367,-4.37324 -8.2989,-2.40791 -12.3099,-8.74751 -11.2415,-17.76813 0.6001,-5.0668 3.5104,-11.71663 6.0503,-13.82459 0.8351,-0.69303 2.2879,-3.58793 3.2285,-6.4331 0.9407,-2.84517 2.5714,-6.83294 3.6239,-8.86171 1.6036,-3.09136 2.0076,-6.67568 2.4947,-22.13463 0.5529,-17.54524 0.4803,-18.58779 -1.487,-21.35054 -2.8755,-4.03837 -4.9404,-13.04368 -5.6924,-24.82616 -0.3511,-5.5 -1.3642,-12.93436 -2.2515,-16.52079 -1.5569,-6.29328 -1.5347,-6.82321 0.6362,-15.18834 3.2613,-12.56682 2.5042,-13.79469 -9.4083,-15.25812 -4.49735,-0.55248 -6.96445,-1.51173 -9.93115,-3.86141 -3.7034,-2.93316 -4.6003,-3.16222 -14.5161,-3.7074 -8.466,-0.46547 -11.2653,-1.01638 -14.0689,-2.76878 -1.925,-1.20322 -5.075,-2.19614 -7,-2.20648 -1.925,-0.0103 -5.3,-0.66727 -7.5,-1.45984 -2.2,-0.79258 -5.4753,-1.46081 -7.2785,-1.48495 -1.8031,-0.0241 -6.7453,-1.68905 -10.9825,-3.6998 l -7.7041,-3.65591 -22.0175,0.16132 c -12.1096,0.0887 -24.7174,0.49638 -28.0174,0.90591 l -6,0.74459 -0.2195,5.5 c -0.534,13.37853 -3.5419,28.66878 -7.8689,40 -0.7351,1.925 -1.8298,5.525 -2.4327,8 -0.6029,2.475 -1.737,5.90151 -2.5201,7.61446 -0.7832,1.71296 -2.1073,7.78796 -2.9424,13.5 -0.8352,5.71205 -2.418,13.5258 -3.5174,17.3639 -1.0995,3.83809 -1.999,9.79383 -1.999,13.23497 0,5.19969 0.5061,7.0791 2.9957,11.12531 1.6477,2.67778 3.2832,6.30577 3.6345,8.0622 0.424,2.12021 2.148,4.43798 5.1295,6.89633 6.0919,5.02307 9.1063,8.11548 13.2403,13.58303 3.8342,5.07109 4.0151,5.53762 6.5905,17.00261 2.2738,10.12215 1.4097,11.97729 -7.0905,15.22299 -7.3754,2.81621 -23.6684,3.33775 -26.9411,0.8624 -2.6948,-2.03825 -5.314,-1.83314 -6.791,0.5318 -1.0855,1.73824 -2.332,2 -9.5238,2 -7.7361,0 -8.6157,-0.22292 -13.5095,-3.42399 -2.879,-1.88319 -7.0346,-3.87448 -9.2346,-4.42509 -12.0205,-3.00848 -12.5986,-3.26456 -14.571,-6.45539 -1.8059,-2.92144 -1.923,-4.37846 -1.3652,-16.98714 0.6069,-13.72035 0.5967,-13.80914 -1.9756,-17.18167 -3.8011,-4.98343 -4.4588,-7.40798 -4.9461,-18.23266 -0.2426,-5.38673 -0.9363,-11.06085 -1.5416,-12.60916 -1.4694,-3.75869 -1.4172,-24.79334 0.07,-28.3698 0.7458,-1.79277 1.2396,-10.50675 1.3599,-23.99495 0.1793,-20.10465 0.3049,-21.37377 2.4744,-25 2.0179,-3.37275 2.3115,-5.30439 2.5068,-16.49343 l 0.2213,-12.67328 -5.7417,-2.57672 c -4.2859,-1.92352 -7.4041,-2.57667 -12.3011,-2.57667 -8.2374,0 -11.2521,1.11861 -12.098,4.4891 -0.5497,2.19015 -7.7147,13.81618 -9.5593,15.5109 -2.892,2.65713 -6.252,8.96847 -8.0262,15.07642 -1.1861,4.08297 -2.9807,8.99858 -3.9882,10.92358 -1.0075,1.925 -2.371,7.09556 -3.0299,11.49013 -0.659,4.39457 -2.2521,10.06996 -3.5402,12.61197 -1.7927,3.53757 -2.5925,7.5058 -3.4095,16.91503 -0.7661,8.82305 -1.5994,13.16679 -2.9518,15.38802 -1.0363,1.70217 -2.4065,5.65704 -3.0449,8.7886 -0.8041,3.94533 -2.3298,7.16963 -4.9683,10.5 l -3.8078,4.80625 -0.4872,12.94928 c -0.4813,12.79264 -0.4505,13.02762 2.5434,19.4255 2.22,4.744 3.2055,8.63595 3.6847,14.55072 0.3597,4.44098 1.2442,9.68859 1.9655,11.66136 1.8458,5.04847 0.6545,10.20786 -3.0831,13.35286 -2.8711,2.41588 -3.6789,2.56028 -14.3222,2.56028 l -11.2795,0 -4.5838,3.5 c -3.658,2.79311 -5.4857,3.5 -9.0492,3.5 -3.6387,0 -5.2409,-0.64798 -8.6546,-3.5 -4.4923,-3.75322 -4.4403,-3.74088 -16.518,-3.91964 -9.4246,-0.1395 -16.3691,-2.97299 -23.0684,-9.41237 -5.6229,-5.40476 -6.8951,-10.31762 -5.6461,-21.80432 0.8248,-7.58551 1.7226,-10.42654 6.2259,-19.70168 l 5.2622,-10.83801 1.3459,-19.16199 c 2.2342,-31.80798 3.5336,-37.24404 14.3815,-60.16199 1.5621,-3.3 4.9284,-11.625 7.4808,-18.5 2.5524,-6.875 5.9141,-15.70376 7.4704,-19.61946 2.549,-6.41339 2.7294,-7.62631 1.8192,-12.23006 -1.2169,-6.15424 1.1091,-23.19044 4.2562,-31.17494 1.8568,-4.7106 1.8857,-5.27741 0.4138,-8.12358 -2.9613,-5.72666 -31.5589,-32.83226 -34.7093,-32.89854 -24.4909,-0.51521 -22.4289,-0.0846 -33.2141,-6.9368 -2.6493,-1.68318 -5.2798,-1.93288 -22.5,-2.13584 -40.5968,-0.47847 -52.972,-0.0567 -61.0043,2.07906 -4.1226,1.0962 -9.1089,2.00368 -11.0805,2.01662 -3.9661,0.026 -14.4849,3.20759 -19.9152,6.02358 -8.3046,4.30655 -20.3144,7.22179 -32.5,7.88904 -10.075,0.55168 -12.4813,1.00521 -15,2.82723 -3.4462,2.49295 -12.17034,4.28369 -20.86921,4.28369 -4.41084,0 -6.54916,0.48736 -8.06634,1.83847 -2.70404,2.40806 -15.35753,6.01132 -23.56445,6.71032 -3.575,0.30449 -8.075,0.96946 -10,1.4777 -1.925,0.50824 -8.4128,1.84076 -14.41733,2.96116 -6.00454,1.1204 -14.77954,3.32421 -19.5,4.89737 -10.17304,3.39029 -18.97758,4.88573 -32.58267,5.53413 -8.28654,0.39493 -11.2851,1.01598 -17.5,3.62451 -11.58829,4.86388 -12.8527,5.13817 -23.02409,4.99458 -8.44135,-0.11916 -10.20346,0.17851 -15.499996,2.61832 -5.54137,2.5526 -7.12069,2.78292 -21.71935,3.16741 -13.16956,0.34686 -16.13864,0.1557 -18.16076,-1.16924 -3.05535,-2.00195 -4.97763,-7.51287 -3.75346,-10.76069 0.4963,-1.31672 0.54584,-3.34833 0.11008,-4.51469 -0.86281,-2.30945 -10.08056,-7.37935 -13.41663,-7.37935 -1.13934,0 -3.63848,-1.03404 -5.55366,-2.29786 -1.91517,-1.26382 -6.73232,-3.54876 -10.70477,-5.07763 -4.91667,-1.89228 -9.83956,-4.91006 -15.4192301,-9.45214 -4.50813,-3.66981 -8.36023999,-7.16675 -8.56023999,-7.77099 -0.2,-0.60424 0.47107,-2.12943 1.49125999,-3.38932 l 1.8549,-2.2907 8.4279701,2.80846 c 4.63539,1.54466 8.87798,3.14165 9.42798,3.54888 0.55,0.40722 4.15,1.74012 8,2.96199 3.85,1.22187 7.71149,2.83852 8.58108,3.59256 0.8696,0.75405 4.6946,2.43768 8.5,3.74141 6.61982,2.26795 13.87663,5.33045 19.57321,8.26023 1.45986,0.75081 3.30262,1.36511 4.09501,1.36511 0.7924,0 2.25521,0.9 3.2507,2 2.55472,2.82294 5.87744,2.48551 9.84722,-1 1.87924,-1.65 4.0324,-3.01497 4.7848,-3.03327 1.37184,-0.0334 5.86798,-3.33273 5.86798,-4.30606 0,-0.28532 -2.52982,-1.25419 -5.62182,-2.15306 -5.56503,-1.6178 -9.50002,-3.46257 -14.41703,-6.7589 -1.39637,-0.93612 -5.44637,-2.77428 -9,-4.08482 -8.66189,-3.19439 -19.76444,-8.54495 -23.51498,-11.33238 -1.6796,-1.2483 -4.72979,-2.96989 -6.77819,-3.82577 -2.4782,-1.03546 -4.28195,-2.7254 -5.39078,-5.05063 -1.52887,-3.20608 -1.53409,-3.62679 -0.0633,-5.09757 1.47078,-1.47077 2.74545,-1.22623 15.4446,2.96299 7.61284,2.51133 15.51457,5.26658 17.5594,6.12277 2.04484,0.85618 5.01308,1.5567 6.5961,1.5567 2.73926,0 16.64515,4.5698 21.00314,6.90212 1.12827,0.60384 3.15102,1.09788 4.49501,1.09788 3.14009,0 8.974986,2.4361 10.639916,4.44222 0.71106,0.85678 2.61732,1.55778 4.23614,1.55778 1.61881,0 3.72608,0.41893 4.68281,0.93096 2.38814,1.27809 10.129,0.13939 10.129,-1.49001 0,-1.24345 -7.78475,-5.39986 -13,-6.94091 -5.90104,-1.74369 -18.845216,-8.49911 -21.639506,-11.2934 -2.13813,-2.13812 -4.43273,-3.24489 -7.76283,-3.74427 -3.35608,-0.50327 -6.52172,-2.04216 -10.91257,-5.30483 -7.40519,-5.50252 -7.82249,-6.03229 -6.58013,-8.35366 1.57085,-2.93516 14.20091,-2.54627 20.15708,0.62065 2.50796,1.3335 8.98748,3.82683 14.39894,5.54074 5.411456,1.71391 12.089016,4.15699 14.839016,5.42907 2.75,1.27208 6.8,2.88544 9,3.58526 2.2,0.69981 6.025,2.1849 8.5,3.30021 2.76042,1.24392 7.3993,2.18585 12,2.43663 4.125,0.22485 9.19531,1.1275 11.26735,2.00589 2.9522,1.25151 4.25042,1.35168 6,0.46299 1.22796,-0.62375 4.8116,-2.07474 7.96364,-3.22444 3.15205,-1.14969 5.96058,-2.46183 6.24119,-2.91586 0.5745,-0.92956 -5.44404,-4.04502 -7.81429,-4.04502 -0.84692,0 -1.78601,-0.39829 -2.08687,-0.88508 -0.30086,-0.4868 -5.16491,-2.77209 -10.80902,-5.07841 -16.90201,-6.90661 -22.08434,-9.13254 -25.762,-11.06538 -16.10833,-8.46593 -16.88166,-9.1646 -13.36983,-12.07916 1.10682,-0.91858 4.16535,-1.30438 9.52686,-1.20173 6.37558,0.12207 8.71017,0.6217 12.11983,2.59379 2.32273,1.34343 6.69814,3.21124 9.72314,4.15069 5.67313,1.76186 7.37337,2.39055 12.5,4.62213 3.2966,1.43497 17.41342,5.45924 24.5,6.98419 2.475,0.53259 6.19661,1.64123 8.27024,2.46365 7.45466,2.95659 15.72976,1.3889 15.72976,-2.97994 0,-1.38861 -0.5625,-2.52822 -1.25,-2.53245 -1.93197,-0.0119 -5.75,-7.49266 -5.75,-11.2661 0,-7.91751 11.05277,-11.82493 34.53245,-12.20804 16.47319,-0.2688 18.4204,-0.62781 23.21755,-4.28074 5.23765,-3.98835 4.38406,-5.76095 -4.9471,-10.27339 -4.50843,-2.18022 -8.77306,-3.96403 -9.47697,-3.96403 -1.86363,0 -4.47729,-4.44203 -3.74165,-6.3591 0.34632,-0.90249 1.03153,-1.6409 1.52269,-1.6409 0.49115,0 0.89301,-0.62368 0.89301,-1.38595 0,-2.03578 6.9616,-8.59677 10.94758,-10.3176 2.56994,-1.1095 8.36821,-1.55803 22.77712,-1.76195 16.9112,-0.23933 19.5763,-0.49692 21.3024,-2.05901 1.0851,-0.98201 1.9729,-2.28457 1.9729,-2.89458 0,-0.61001 1.8298,-1.90183 4.0662,-2.87071 3.2375,-1.40258 4.0017,-2.21492 3.75,-3.9859 -0.2718,-1.91167 -1.1595,-2.33287 -6.3162,-2.99678 -14.5901,-1.87842 -14.0309,-1.6826 -18.8895,-6.61536 l -4.6352,-4.70599 3.4037,-6.95309 c 1.872,-3.82419 4.2189,-8.91661 5.2153,-11.31649 3.0077,-7.2438 25.6051,-28.13659 30.4323,-28.13659 1.0057,0 2.8736,-1.28903 4.1509,-2.86451 2.3018,-2.83894 10.7339,-8.54501 16.1196,-10.90817 1.5383,-0.67503 6.4246,-1.22732 10.8584,-1.22732 l 8.0614,0 4.1415,-4.3976 c 2.2779,-2.41867 5.1541,-4.90951 6.3916,-5.53518 3.9676,-2.00597 2.9966,-6.27171 -2.5,-10.98296 -2.6125,-2.23924 -5.3319,-4.07425 -6.0432,-4.0778 -0.7112,-0.004 -3.3657,-2.25646 -5.8989,-5.00646 -2.5332,-2.75 -5.2312,-5 -5.9955,-5 -0.7643,0 -3.2629,-1.8 -5.5525,-4 -2.2895,-2.2 -4.4509,-4 -4.8031,-4 -2.4132,0 -4.9035,-30.01026 -3.2361,-38.99977 1.2383,-6.67649 2.5784,-7.04557 26.2016,-7.21612 l 20.0008,-0.14439 4.4456,4.43014 c 2.4451,2.43658 5.1831,5.10514 6.0846,5.93014 0.9014,0.825 3.8695,3.975 6.5958,7 6.242,6.92592 5.6601,6.36 10.7955,10.49866 5.4069,4.35743 8.4078,4.43181 14.554,0.36072 2.6078,-1.72734 6.1725,-3.43085 7.9214,-3.78557 2.5552,-0.51823 3.2443,-1.20077 3.5075,-3.4738 0.3553,-3.06936 -3.9312,-8.60001 -6.6653,-8.60001 -1.4615,0 -15.5052,-13.99518 -17.2439,-17.18426 -0.5051,-0.92634 -0.9183,-3.62634 -0.9183,-6 1e-4,-3.7283 -0.4896,-4.72691 -3.5979,-7.33652 -3.5416,-2.97342 -3.6059,-3.16134 -4.1026,-11.98572 -0.3806,-6.76086 -1.0941,-10.12808 -2.9021,-13.69597 -2.7486,-5.42415 -3.0113,-10.34308 -0.9706,-18.17761 1.8153,-6.9696 3.0431,-9.22651 6.1143,-11.2388 2.0863,-1.367 2.9413,-1.42394 5.4956,-0.36593 3.9503,1.63629 12.3958,0.64331 21.0357,-2.47328 10.9861,-3.96291 20.3766,-4.85277 38.581,-3.65605 8.8349,0.58079 17.271,1.51509 18.7469,2.07623 4.0963,1.55742 13.5112,8.2648 19.204,13.6813 5.3081,5.05053 8.0668,9.08743 12.1245,17.74263 5.2888,11.28119 5.516,11.61398 7.9287,11.61398 1.3573,0 2.3425,-0.59743 2.3425,-1.42054 0,-0.79244 1.437,-1.73002 3.25,-2.12044 8.2431,-1.77516 10.2639,-4.58648 7.3744,-10.25868 -0.7566,-1.48519 -1.7017,-6.25898 -2.1002,-10.60842 -0.3984,-4.34945 -1.3791,-9.74945 -2.1792,-12 -2.8005,-7.8774 -6.345,-22.425248 -6.345,-26.041928 0,-2.00712 -0.615,-4.86446 -1.3666,-6.34965 -0.7516,-1.48519 -1.9242,-7.87534 -2.6058,-14.20034 -0.922,-8.55641 -1.946,-13.03578 -4.0008,-17.5 -1.5189,-3.3 -3.0583,-8.33633 -3.4209,-11.19185 -0.3627,-2.85551 -1.3472,-6.838 -2.1878,-8.84997 -0.8407,-2.01197 -1.9563,-7.32564 -2.4793,-11.80816 -1.3193,-11.30882 0.1192,-16.7863305 5.5288,-21.0535605 11.4878,-9.06183 24.6903,-6.21735997 33.4171,7.1997305 1.9691,3.02738 4.1228,5.20381 5.1495,5.20381 0.9707,0 4.1725,1.62187 7.1153,3.60415 2.9428,1.98228 6.9255,4.4094 8.8505,5.39359 1.925,0.98419 4.4,2.78653 5.5,4.00519 1.1,1.21867 4.5019,3.47983 7.5598,5.02481 3.0579,1.54498 6.1505,3.52078 6.8725,4.39066 0.7219,0.86988 2.0121,1.5816 2.867,1.5816 0.8549,0 3.843,1.57625 6.6402,3.50278 3.6951,2.54492 7.1996,3.90719 12.8154,4.98168 4.2513,0.8134 10.3484,2.80087 13.5491,4.4166 3.2007,1.61573 7.5476,3.26187 9.6596,3.65809 2.1463,0.40264 5.4272,2.14403 7.4382,3.94794 1.979,1.77515 4.7232,3.57524 6.0982,4.00019 8.2004,2.5344 18.4059,11.26714 24.3926,20.87254 5.0351,8.07842 6.7833,14.057958 5.93,20.283168 -0.3152,2.29958 -0.2665,6.22549 0.1082,8.72424 0.6303,4.20309 0.9393,4.59158 4.1278,5.18975 1.8956,0.35561 5.4824,2.20101 7.9705,4.10087 9.006,6.87657 12.7323,1.3629 5.9154,-8.75263 -5.9587,-8.84189 -10.8667,-29.406668 -8.5823,-35.959788 0.614,-1.76137 0.8429,-4.29229 0.5086,-5.62426 -0.3744,-1.49178 -0.033,-3.0783 0.8901,-4.13146 3.4608,-3.95005 4.7391,-8.17344 4.7391,-15.65717 0,-7.1481 0.1771,-7.74504 3.3516,-11.29966 1.8434,-2.06408 3.6505,-4.98469 4.0159,-6.49023 0.3653,-1.50554 1.6815,-3.40386 2.9248,-4.21848 1.9555,-1.28131 2.9587,-1.29693 7.4362,-0.11578 2.8467,0.75094 7.1801,2.71803 9.6298,4.3713 2.4497,1.65328 5.2989,3.27411 6.3315,3.60185 1.0326,0.32774 2.6334,1.87556 3.5573,3.4396 0.9239,1.56404 4.9457,5.0349 8.9374,7.71302 3.9917,2.67813 9.5617,6.74604 12.3778,9.03982 2.8162,2.29378 6.2042,4.51095 7.529,4.92704 2.5623,0.80479 13.2946,8.07073 18.593,12.58777 1.7514,1.4931 4.2264,3.04524 5.5,3.4492 3.2862,1.04227 16.4678,10.96251 18.1678,13.6728 0.7829,1.24807 1.7186,3.95308 2.0795,6.011148 0.5049,2.87997 1.2272,3.8853 3.1355,4.36426 4.3573,1.0936 5.4334,3.94222 5.4273,14.36631 -0.01,10.68314 -1.0854,15.67691 -4.5243,20.93616 -1.2916,1.97523 -2.657,4.85872 -3.0343,6.40774 -0.4282,1.75808 -2.142,3.73561 -4.5609,5.26255 -4.1099,2.59448 -4.6474,3.98232 -2.6175,6.7584 1.3373,1.82879 12.4685,4.06324 17.3539,3.48357 2.5835,-0.30653 2.7203,-0.60908 3.0494,-6.74507 0.3856,-7.18946 1.735,-9.36628 6.9826,-11.26384 1.8462,-0.66759 3.4125,-1.6859 3.4806,-2.26291 0.068,-0.57701 0.1807,-5.82862 0.25,-11.67025 0.1253,-10.55272 0.1503,-10.65627 3.8761,-16.07319 2.0625,-2.99862 3.75,-5.99284 3.75,-6.65382 0,-0.66098 1.6821,-4.45304 3.73795,-8.42681 2.0559,-3.973768 4.4184,-9.246308 5.25,-11.716758 1.2601,-3.74328 2.2618,-4.85516 6.012,-6.67294 7.8098,-3.78557 18,-1.67857 18,3.72182 0,1.03196 1.1964,2.16424 2.9225,2.76599 4.627,1.61298 5.4134,4.22266 4.8137,15.974048 -0.2927,5.73499 -0.1462,11.77327 0.3256,13.41839 0.4718,1.64512 2.9009,5.17534 5.398,7.84493 3.1245,3.34028 4.5448,5.72466 4.5549,7.64664 0.016,2.95545 0.8042,4.60393 5.2481,10.9713 1.5195,2.17724 4.3231,7.71424 6.2301,12.30444 1.907,4.5902 4.3736,9.31059 5.4814,10.48975 1.1078,1.17916 3.8944,6.6177 6.1926,12.08564 3.4959,8.31784 4.244,11.29427 4.5801,18.22241 0.3359,6.92394 0.055,8.99592 -1.7115,12.64587 -1.8634,3.84941 -4.0706,13.36746 -4.4158,19.04222 -0.138,2.26899 2.8041,3.25428 4.7917,1.60472 0.7235,-0.6004 1.599,-3.50472 1.9456,-6.45405 0.617,-5.24924 6.6847,-18.97542 10.9788,-24.83559 2.9217,-3.98728 13.2354,-11.70427 19.1219,-14.3076 2.8173,-1.24593 5.7219,-2.98779 6.4548,-3.8708 0.7328,-0.88301 1.8044,-1.60547 2.3812,-1.60547 0.5769,0 1.7831,-0.66456 2.6807,-1.47679 0.8975,-0.81223 5.2079,-1.9945 9.5787,-2.62727 4.3708,-0.63276 8.624,-1.73807 9.4516,-2.45623 0.8276,-0.71816 3.8047,-1.61085 6.6158,-1.98375 8.8533,-1.17443 13.3795,3.88201 13.3795,14.94682 0,7.05268 -1.2194,10.11397 -4.6917,11.77817 -2.4489,1.17374 -2.8972,2.0997 -3.5491,7.33123 -0.8234,6.60786 -3.0727,13.03634 -5.5118,15.75297 -1.8409,2.05034 -3.1825,19.96568 -3.6872,49.23485 -0.3595,20.84801 -0.9617,24.93563 -4.256,28.88791 -1.3239,1.58834 -2.2715,3.83834 -2.1057,5 0.4856,3.40157 3.9323,3.04796 8.5135,-0.87343 4.8444,-4.14658 9.9983,-6.51448 14.1793,-6.51448 1.7948,0 4.65467,-1.28892 7.28207,-3.28194 9.1289,-6.92472 11.6987,-7.99146 23.6171,-9.80336 11.2386,-1.70858 15.1315,-1.46793 16.6759,1.03087 0.7175,1.16105 1.8179,12.41773 1.7648,18.05443 -0.018,1.925 -0.7898,5.525 -1.7147,8 -3.3072,8.84998 -4.4855,15.65624 -4.5011,26 -0.01,5.775 -0.6989,14.1 -1.5339,18.5 -1.2554,6.61523 -1.9895,8.34619 -4.2411,10 -1.4976,1.1 -3.5144,2.7875 -4.4817,3.75 -0.9673,0.9625 -2.7937,1.75 -4.0587,1.75 -5.3839,0 -6.2548,5.64717 -1.791,11.6125 7.8178,10.44727 9.7189,10.79176 16.1353,2.9238 2.4506,-3.00503 8.9557,-8.79926 14.4557,-12.87605 11.53,-8.54643 12.6026,-8.85199 31.7237,-9.03708 11.9111,-0.1153 12.8659,0.0191 14.9505,2.10513 1.5438,1.5448 2.2109,3.38519 2.1749,6 -0.068,4.94279 -3.0518,13.12724 -5.932,16.2717 -3.0583,3.33893 -4.2606,6.82471 -3.6848,10.68296 0.2958,1.98177 -0.1302,4.047 -1.1286,5.47251 -0.8821,1.25925 -1.6037,3.95117 -1.6037,5.98205 0,3.14947 -0.6986,4.30964 -4.75,7.88883 -2.6125,2.30798 -6.775,5.58256 -9.25,7.27685 -7.1484,4.89351 -14.9736,12.05925 -14.9874,13.72429 -0.02,2.43218 2.928,5.97251 4.9734,5.97251 1.03,0 4.717,-2.78251 8.1933,-6.18336 8.5265,-8.34127 15.43,-13.57191 18.9257,-14.33971 1.5923,-0.34971 2.895,-1.05009 2.895,-1.55639 0,-0.50629 1.8592,-0.92054 4.1316,-0.92054 3.5449,0 4.7519,0.62029 8.5,4.36842 3.8563,3.85633 4.3684,4.89302 4.3684,8.84345 0,2.46127 -0.9,7.09092 -2,10.28813 -1.1,3.19721 -2.0066,7.88015 -2.0147,10.40655 -0.016,4.88432 -0.8422,6.82868 -5.2541,12.36017 -2.7809,3.48654 -2.8683,6.73328 -0.1814,6.73328 2.4908,0 8.9259,-4.33377 15.1136,-10.17837 3.398,-3.20955 7.086,-5.82163 8.2196,-5.82163 2.8891,0 9.1967,3.62274 11.862,6.81288 3.54,4.2371 2.8788,8.17661 -2.4465,14.57676 -3.1734,3.81391 -2.8875,8.95607 0.5248,9.43952 2.4653,0.34927 8.5369,-2.09043 11.3864,-4.57528 4.7873,-4.17472 8.7606,2.12075 8.8235,13.98037 0.027,5.16629 0.5158,6.96763 2.7832,10.26575 2.369,3.44594 3.7842,4.32545 10.2167,6.34956 11.9267,3.7529 15.5079,5.68802 18.6029,10.05212 1.7649,2.48864 4.3991,4.64725 6.864,5.62481 4.8694,1.93116 11.727,6.6167 16.6973,11.40878 2.0336,1.9606 4.6459,4.46473 5.8053,5.56473 4.9345,4.68206 9.9553,11.75885 10.5351,14.84915 0.7839,4.17861 -1.5392,10.01732 -4.703,11.82036 -1.765,1.00583 -10.6312,1.4525 -36.3347,1.83049 -18.7,0.275 -34.5499,0.85629 -35.2221,1.29175 -0.6721,0.43546 -8.4777,1.20591 -17.3457,1.71212 -12.3393,0.70435 -18.5071,0.59988 -26.278,-0.44512 -5.5848,-0.75102 -17.3542,-1.64939 -26.1542,-1.99639 -15.822,-0.62387 -27.348,-2.21982 -39,-5.40016 -4.9056,-1.33895 -11.8368,-1.66685 -38,-1.79769 -17.59997,-0.088 -33.12497,-0.43552 -34.49997,-0.77223 -5.2241,-1.27924 -5.4609,-0.36741 -5.4812,21.10964 -0.02,21.05572 0.2364,22.68958 5.8992,37.59357 1.4201,3.73752 2.5831,8.01252 2.5844,9.5 0,3.25379 8.0068,19.5356 11.3745,23.13859 3.1554,3.37579 3.936,6.23683 3.7313,13.67638 -0.1584,5.75755 0.034,6.3311 2.9379,8.77487 1.709,1.43807 3.6353,2.61682 4.2806,2.61945 1.516,0.006 6.97997,5.13223 12.67327,11.88939 7.2313,8.58253 11.0481,24.9875 7.5358,32.38924 -2.4224,5.10465 -5.545,6.73943 -14.8665,7.78309 -11.06837,1.23923 -24.94567,2.01467 -26.16927,1.46229 z"
     id="path2987"
     inkscape:connector-curvature="0" />
</svg>
