<?xml version="1.0" encoding="UTF-8" standalone="no"?>
<!-- Created with Inkscape (http://www.inkscape.org/) -->

<svg
   xmlns:dc="http://purl.org/dc/elements/1.1/"
   xmlns:cc="http://creativecommons.org/ns#"
   xmlns:rdf="http://www.w3.org/1999/02/22-rdf-syntax-ns#"
   xmlns:svg="http://www.w3.org/2000/svg"
   xmlns="http://www.w3.org/2000/svg"
   xmlns:sodipodi="http://sodipodi.sourceforge.net/DTD/sodipodi-0.dtd"
   xmlns:inkscape="http://www.inkscape.org/namespaces/inkscape"
   id="svg2"
   version="1.1"
   inkscape:version="0.48.2 r9819"
   width="850.06482"
   height="478.08765"
   sodipodi:docname="realmothergoosewrig_0070b.png">
  <metadata
     id="metadata8">
    <rdf:RDF>
      <cc:Work
         rdf:about="">
        <dc:format>image/svg+xml</dc:format>
        <dc:type
           rdf:resource="http://purl.org/dc/dcmitype/StillImage" />
        <dc:title></dc:title>
      </cc:Work>
    </rdf:RDF>
  </metadata>
  <defs
     id="defs6" />
  <sodipodi:namedview
     pagecolor="#ffffff"
     bordercolor="#666666"
     borderopacity="1"
     objecttolerance="10"
     gridtolerance="10"
     guidetolerance="10"
     inkscape:pageopacity="0"
     inkscape:pageshadow="2"
     inkscape:window-width="1600"
     inkscape:window-height="876"
     id="namedview4"
     showgrid="false"
     fit-margin-top="0"
     fit-margin-left="0"
     fit-margin-right="0"
     fit-margin-bottom="0"
     inkscape:zoom="1"
     inkscape:cx="396.58754"
     inkscape:cy="251"
     inkscape:window-x="0"
     inkscape:window-y="24"
     inkscape:window-maximized="1"
     inkscape:current-layer="svg2" />
  <path
     style="fill:#000000"
     d="m 268.25421,477.42097 c -1.26593,-1.26592 -0.61583,-4.84147 1.33333,-7.33333 1.07554,-1.375 1.97543,-3.175 1.99976,-4 0.0243,-0.825 2.28433,-5.09284 5.02224,-9.48409 2.7379,-4.39126 4.978,-8.74811 4.978,-9.68191 0,-1.9264 5.5131,-6.25296 6.88634,-5.40425 1.70064,1.05106 17.43152,-20.86372 18.75146,-26.12277 0.31846,-1.26884 0.88983,-2.30698 1.26972,-2.30698 1.07254,0 2.81485,-6.06663 3.01014,-10.48111 0.0969,-2.18962 0.59402,-5.78962 1.10478,-8 0.51077,-2.21039 0.93967,-5.7125 0.95311,-7.78246 0.0134,-2.06996 0.44971,-4.54496 0.96946,-5.5 1.47447,-2.70927 4.30541,-24.09179 3.58388,-27.06949 -0.60739,-2.50666 -2.90842,-7.45479 -6.123,-13.16694 -0.7738,-1.375 -1.69536,-4.22606 -2.04791,-6.33569 -0.80625,-4.82455 -2.13639,-5.32817 -7.22119,-2.73409 -2.23141,1.13838 -4.56824,2.06978 -5.19295,2.06978 -0.62471,0 -4.35514,1.51468 -8.28984,3.36595 -5.61366,2.64122 -8.99499,3.51021 -15.70431,4.03597 -8.29912,0.65032 -8.66636,0.58642 -12.5,-2.1751 -5.89517,-4.2465 -6.75146,-4.34516 -14.5859,-1.68049 -12.51769,4.25754 -27.94975,2.89619 -32.73623,-2.88785 -0.75485,-0.91216 -2.16225,-1.65848 -3.12756,-1.65848 -0.96531,0 -2.31531,-0.675 -3,-1.5 -0.68469,-0.825 -1.64369,-1.5 -2.1311,-1.5 -2.32894,0 -7.09119,-5.9043 -9.0126,-11.17394 -2.41146,-6.61367 -3.12026,-6.87532 -10.61845,-3.91981 -4.03851,1.59183 -5.98266,1.77078 -11.78702,1.08492 -8.75938,-1.03502 -13.65623,-2.04368 -15.00331,-3.0904 -0.57887,-0.4498 -5.59388,-2.34146 -11.14448,-4.20371 -5.5506,-1.86224 -11.32517,-4.35591 -12.83238,-5.54148 -1.50721,-1.18557 -3.50125,-2.15558 -4.4312,-2.15558 -0.92996,0 -2.74771,-1.125 -4.03946,-2.5 -1.29175,-1.375 -2.94519,-2.5 -3.67431,-2.5 -0.72913,0 -1.32569,-0.35492 -1.32569,-0.78871 0,-0.43379 -2.45276,-2.27524 -5.45058,-4.09211 -5.1049,-3.09389 -6.14718,-3.33113 -16.434282,-3.7407 -14.98006,-0.59641 -22.93398,-3.41543 -28.82483,-10.21606 l -4.20968,-4.85983 -6.73247,0.4645 c -12.87799,0.8885 -28.72975,-6.71085 -34.02996,-16.314 -3.26744,-5.92008 -7.04406,-13.97988 -7.7864,-16.61718 -0.7239,-2.57179 -2.74248,-7.05122 -3.53113,-7.83591 -0.27639,-0.275 -1.51222,-2.525 -2.74628,-5 -1.23407,-2.475 -3.8291304,-5.625 -5.7668004,-7 -4.72102,-3.3501 -7.18428,-8.33027 -5.59137,-11.30451 3.31383,-6.18752 14.3791304,-8.44225 22.7396804,-4.63358 4.28166,1.95052 4.66432,1.9714 7.08324,0.38646 2.0042,-1.3132 3.80601,-1.53415 8.33352,-1.02192 5.26382,0.59553 5.99598,0.434 8.25017,-1.82019 1.36054,-1.36054 4.21149,-2.75446 6.33544,-3.0976 2.12395,-0.34314 4.81994,-0.81791 5.99109,-1.05505 1.17115,-0.23714 4.32122,-2.34871 7.00016,-4.69238 5.124,-4.48274 8.14433,-6.7123 17.61184,-13.0008 6.37154,-4.23209 8.1527,-7.18229 11.69341,-19.36824 2.31885,-7.9807 2.52675,-10.66132 1.04199,-13.43562 -0.8552,-1.59794 -1.7441,-1.81313 -5.41261,-1.31031 -5.13648,0.70404 -15.94814,-2.23328 -23.3494,-6.34358 -5.06549,-2.81312 -12.06078,-9.54057 -14.87608,-14.3065 -0.95489,-1.6165 -3.01663,-3.38547 -4.58165,-3.93104 -1.56501,-0.54556 -4.06307,-1.84912 -5.55125,-2.89679 -1.48817,-1.04767 -5.25645,-2.21692 -8.37394,-2.59833 -6.22513,-0.76163 -10.23864,-3.34633 -9.23944,-5.9502 1.01418,-2.64289 10.37806,-9.54433 14.28622,-10.529322 15.98481,-4.02875 18.09799,-4.30461 27.32224,-3.56674 5.11453,0.40912 11.77415,0.93597 14.79915,1.17076 3.025,0.2348 7.3,0.57244 9.5,0.75032 17.529232,1.41732 36.326782,-0.20618 38.479652,-3.3234 0.6487,-0.93929 9.68731,-7.12144 10.41188,-7.12144 0.29215,0 2.31329,-1.8 4.49141,-4 2.17812,-2.2 4.21537,-4 4.52721,-4 0.65423,0 3.97586,-2.59031 7.08647,-5.52625 3.66258,-3.45693 13.90085,-11.91021 16.00338,-13.21328 1.1,-0.68174 3.75079,-2.18567 5.89064,-3.34207 2.13986,-1.1564 4.70097,-2.85748 5.69136,-3.78017 1.62637,-1.51519 14.09299,-7.95112 40.918,-21.12403 5.225,-2.56583 12.875,-5.67691 17,-6.91351 4.125,-1.236609 10.32195,-3.115146 13.771,-4.174533 3.44905,-1.059386 6.87935,-1.926157 7.62288,-1.926157 0.74354,0 3.42917,-0.918882 5.96807,-2.041959 2.5389,-1.123077 8.55861,-2.919112 13.37712,-3.991187 4.81851,-1.072076 10.77366,-2.660511 13.23366,-3.5298548 4.82654,-1.705661 7.66966,-2.347096 24.52727,-5.533584 6.05,-1.143593 13.25,-2.528974 16,-3.07862503 6.2993,-1.25905 38.0232,-1.210751 77.5,0.11799103 16.775,0.564626 37.025,1.2244 45,1.466164 7.975,0.241764 21.25,0.731939 29.5,1.089277 12.6559,0.548173 103.6519,1.468661 114.5,1.158246 9.6974,-0.277487 19.0585,-0.04969 24,0.584014 3.025,0.387933 8.8978,1.145109 13.0507,1.682613 4.1529,0.537504 9.5529,1.477345 12,2.088535 2.4471,0.61119 6.4743,1.2367508 8.9493,1.3901358 13.2223,0.819435 23.8651,3.592281 33.2364,8.65935 0.9551,0.516386 2.5381,0.938884 3.5179,0.938884 0.9798,0 3.437,1.125 5.4605,2.5 2.0235,1.375 4.3008,2.5 5.0607,2.5 1.698,0 9.0276,4.7949 13.6546,8.93263 1.8866,1.68705 4.2442,3.06737 5.2393,3.06737 2.9472,0 11.4483,3.56593 13.8621,5.81473 1.2312,1.14705 3.7368,2.79648 5.5678,3.66538 1.8311,0.86891 3.9079,2.36167 4.615,3.31724 0.7071,0.95558 2.6357,2.58988 4.2857,3.63178 1.65,1.04191 3.9275,2.83408 5.0612,3.98262 2.9678,3.00686 6.044,4.58825 8.9252,4.58825 2.4244,0 2.5136,-0.22841 2.5136,-6.4349 0,-3.5392 0.4706,-7.67266 1.0458,-9.18547 1.2666,-3.33147 6.3586,-8.37963 8.4523,-8.37963 0.834,0 4.5506,-2.91255 8.2591,-6.47232 3.7086,-3.55978 7.5453,-6.48478 8.526,-6.5 5.5205,-0.08568 19.4176,10.60728 21.8177,16.78742 1.5437,3.97479 1.0452,9.03878 -1.1009,11.1849 -1.1,1.1 -2,2.48142 -2,3.06982 0,2.68855 -9.0483,13.93018 -11.2123,13.93018 -1.8436,0 -4.7877,3.15923 -4.7877,5.13748 0,1.10819 2.3238,1.79997 9.25,2.75371 5.0875,0.70055 11.5,1.92639 14.25,2.7241 6.1575,1.78615 16.5786,8.81203 19.9356,13.44054 1.3739,1.8943 3.3005,4.55074 4.2812,5.903212 1.5054,2.07587 1.7795,4.56895 1.7595,16 -0.026,15.02379 -1.0001,18.26266 -7.9627,26.48547 -2.875,3.39541 -3.5608,3.76118 -4.9268,2.62755 -0.8727,-0.72432 -1.5868,-2.19935 -1.5868,-3.27784 0,-1.07849 -0.538,-1.78156 -1.1955,-1.56239 -3.7468,1.24894 -3.2768,15.94492 0.7022,21.95768 2.7726,4.18959 2.9611,4.81049 1.4611,4.81049 -0.5677,0 -1.4392,-1.0125 -1.9366,-2.25 -0.693,-1.7239 -0.9192,-1.84081 -0.9678,-0.5 -0.095,2.6235 -1.587,2.124 -4.4804,-1.5 -1.4271,-1.7875 -3.4428,-4.15 -4.4793,-5.25 -1.0365,-1.1 -2.1892,-3.0125 -2.5615,-4.25 -0.3723,-1.2375 -0.9996,-2.25 -1.394,-2.25 -0.3943,0 -1.4405,-1.2375 -2.3247,-2.75 -2.1955,-3.75543 -1.0981,-9.72663 3.5326,-19.22179 4.2582,-8.73137 4.9811,-13.02885 1.4152,-8.41307 -3.3985,4.39911 -4.4716,5.35117 -5.2051,4.61772 -0.3695,-0.36954 -0.4026,0.0298 -0.073,0.88741 0.7428,1.93562 -1.9364,4.30717 -3.9799,3.52299 -2.0927,-0.80302 -1.8987,-3.386 0.3069,-4.08601 4.5671,-1.44956 7.6113,-15.19676 4.836,-21.839 -0.8658,-2.07199 -1.291,-4.505052 -0.9449,-5.406802 0.4359,-1.13607 0.2505,-1.40554 -0.6038,-0.87753 -0.7072,0.43702 -2.0869,-0.0108 -3.2352,-1.04999 -1.9058,-1.72473 -1.9148,-1.85058 -0.187,-2.61333 1.2893,-0.56914 1.0516,-0.65481 -0.8203,-0.29563 -1.6399,0.31464 -3.1029,-0.0574 -3.8725,-0.98464 -0.6803,-0.81968 -2.6751,-1.49033 -4.4329,-1.49033 -7.8434,0 -16.2041,-3.86871 -22.8949,-10.59392 -2.4606,-2.47332 -3.7505,-2.90208 -9.75,-3.24109 -5.9133,-0.33413 -6.9142,-0.15213 -6.9142,1.25735 0,2.04152 2.867,6.63532 5.2326,8.38436 1.0115,0.74785 1.7975,2.67243 1.8377,4.5 0.07,3.19736 1.6256,8.07581 1.9744,6.1933 0.1019,-0.55 0.5508,0.575 0.9975,2.500002 0.4468,1.925 2.4413,8.18111 4.4324,13.90246 2.7268,7.83541 3.7297,12.5241 4.0641,19 0.5572,10.78907 2.2104,25.06926 4.1791,36.09754 1.7367,9.72917 2.0437,45.58274 0.4538,53 -0.5306,2.475 -1.6461,7.89126 -2.479,12.03612 -1.0392,5.17158 -3.8618,12.3881 -8.9959,23 -4.1148,8.50514 -8.8782,18.52901 -10.5852,22.27529 -1.7071,3.74627 -3.5555,6.53222 -4.1076,6.19098 -0.5522,-0.34123 -1.0039,-0.11245 -1.0039,0.50842 0,1.78868 -6.0701,10.13599 -10.2899,14.15024 l -3.8524,3.66464 0.1523,8.33715 c 0.1883,10.31187 2.6878,22.65164 5.1452,25.40161 1.0146,1.13545 1.8455,2.48545 1.8464,3 10e-4,0.51455 1.7311,2.56275 3.8449,4.55155 3.1928,3.00408 3.9459,4.48304 4.45,8.7395 0.6435,5.43312 -0.6806,10.92542 -3.0608,12.69615 -2.4378,1.81353 -6.658,22.86082 -6.6281,33.05583 0.022,7.53417 0.4038,9.74659 2.2095,12.80716 1.2006,2.03482 2.1829,4.35336 2.1829,5.15231 0,0.79894 0.9,2.22323 2,3.16508 1.1,0.94185 2,2.82037 2,4.17449 0,3.27623 -3.8443,11.09348 -5.4554,11.09348 -0.7024,0 -2.9414,2.13632 -4.9757,4.74739 -3.1986,4.10554 -3.6099,5.22062 -3.042,8.24771 0.3612,1.92517 0.9746,3.72635 1.3631,4.00261 0.3885,0.27626 1.6915,1.91383 2.8956,3.63905 1.9036,2.72736 2.0431,3.5757 1.0687,6.5 -1.3895,4.17023 -4.5054,6.81182 -8.0695,6.841 -1.5725,0.0129 -4.1666,1.29656 -6.1639,3.05022 l -3.4487,3.02799 -19.4633,0.62612 c -10.7048,0.34437 -20.1605,0.35861 -21.0125,0.0317 -1.3799,-0.52953 -1.3453,-1.26788 0.3174,-6.75924 1.0266,-3.39063 2.513,-6.90496 3.3031,-7.80964 3.3446,-3.82934 5.8125,-11.53438 5.1779,-16.16581 -0.3576,-2.60959 -0.1291,-5.78042 0.5405,-7.5 0.6379,-1.63848 1.2811,-8.48574 1.4291,-15.21615 0.1717,-7.80269 0.7124,-12.77106 1.4922,-13.71061 1.5366,-1.85145 1.6877,-8.95361 0.2884,-13.55368 -0.5853,-1.92424 -1.5773,-5.29861 -2.2045,-7.49861 -0.6272,-2.2 -2.1961,-6.475 -3.4865,-9.5 -1.2904,-3.025 -4.0106,-10.76783 -6.0449,-17.20629 -2.0344,-6.43846 -4.3737,-12.26634 -5.1985,-12.95086 -0.8248,-0.68452 -2.7749,-3.47759 -4.3336,-6.20684 -2.7308,-4.78136 -3.1192,-5.04602 -10.6555,-7.26027 -10.1066,-2.96931 -10.322,-2.95628 -10.322,0.62421 0,1.65 -0.45,3 -1,3 -0.55,0 -1,1.03665 -1,2.30366 0,3.25844 -4.8983,12.69634 -6.5894,12.69634 -0.7758,0 -1.4106,0.45 -1.4106,1 0,0.55 -0.6592,1 -1.4648,1 -0.8057,0 -1.9465,0.9 -2.5352,2 -1.2537,2.34258 -3.4924,2.72566 -2.6184,0.44806 0.3624,-0.94447 0.1819,-1.2963 -0.4612,-0.89885 -0.5812,0.3592 -0.7953,1.33432 -0.4758,2.16692 0.3439,0.8963 -1.26,3.9911 -3.9319,7.58659 -2.482,3.34002 -4.5127,6.78179 -4.5127,7.64837 0,0.86658 -1.575,3.91435 -3.5,6.77281 -1.925,2.85846 -3.5,5.7131 -3.5,6.34364 0,0.63054 -0.6241,0.90696 -1.3868,0.61427 -0.9784,-0.37545 -1.236,0.0445 -0.8748,1.42589 0.2816,1.07693 -0.1301,2.73077 -0.9151,3.67518 -0.7849,0.94442 -2.4336,5.25412 -3.6637,9.57711 -1.2302,4.323 -2.8286,8.45186 -3.552,9.17526 -1.7277,1.72776 -2.9284,10.54391 -1.6149,11.85747 4.0294,4.02941 -6.4193,15.60728 -14.0852,15.60728 -1.0991,0 -3.2154,1.23019 -4.7029,2.73377 -1.4875,1.50357 -2.9296,2.66946 -3.2046,2.59086 -0.275,-0.0786 -0.6072,2.04581 -0.7382,4.72092 -0.3079,6.28696 -3.9923,14.05869 -7.4507,15.71627 -1.4669,0.70305 -3.7954,2.61925 -5.1745,4.25822 -1.3791,1.63898 -3.1509,2.97996 -3.9372,2.97996 -0.7863,0 -2.5739,0.9 -3.9723,2 -2.3057,1.81365 -4.0186,1.99594 -18.3848,1.95645 -14.4552,-0.0397 -23.575,-0.85578 -24.9519,-2.2327 -0.2917,-0.29167 1.3012,-3.98709 3.5397,-8.21205 2.9294,-5.52922 4.0699,-8.88109 4.0699,-11.96187 0,-2.76592 0.7075,-5.17962 2,-6.8227 1.1,-1.39842 2,-2.95567 2,-3.46055 0,-1.24673 4.364,-5.26658 5.7175,-5.26658 0.9838,0 7.1001,-5.94708 12.0845,-11.75 1.0629,-1.2375 2.3455,-2.25 2.8502,-2.25 1.0473,0 10.4412,-19.21791 12.7091,-26 0.8276,-2.475 2.5995,-7.2 3.9375,-10.5 1.338,-3.3 4.346,-10.95 6.6846,-17 2.3385,-6.05 5.5489,-14.00043 7.1342,-17.66761 3.1625,-7.31557 3.5979,-13.11176 1.8782,-25.00116 -1.3503,-9.33507 -2.652,-11.83123 -6.1699,-11.83123 -1.5692,0 -3.6344,0.4331 -4.5895,0.96245 -8.2075,4.54914 -17.4393,7.2667 -37.2364,10.96116 -5.775,1.07771 -12.3,2.46116 -14.5,3.07432 -5.7524,1.60325 -9.0432,2.54347 -17.5,4.99995 -12.2703,3.56418 -19.0765,4.8937 -27.5153,5.3748 -15.7977,0.90063 -22.9952,1.88333 -24.6975,3.37203 -1.058,0.92532 -2.3959,1.21176 -3.5,0.74938 -0.9829,-0.41166 -4.0996,-0.88929 -6.926,-1.06139 -2.8263,-0.17211 -6.8677,-1.03532 -8.9808,-1.91824 -5.9477,-2.48509 -7.567,-1.05674 -9.3804,8.27441 -1.7978,9.25064 -1.1874,21.22982 1.2191,23.92403 1.7735,1.98552 2.7992,13.87279 1.3913,16.12423 -0.4864,0.77785 -0.3706,1.80262 0.2767,2.45 0.8172,0.81716 1.1129,0.608 1.1129,-0.78713 0,-3.56504 1.8871,-0.10474 3.5496,6.50893 0.8974,3.57009 2.179,7.39107 2.8479,8.49107 0.6688,1.1 1.7744,3.92333 2.4567,6.27407 1.4767,5.08781 1.0331,5.72911 -6.6583,9.62664 -7.3263,3.71254 -8.0218,8.18254 -2.8694,18.44088 1.287,2.56235 2.2186,5.10872 2.0701,5.65861 -0.1485,0.54989 -0.7815,3.593 -1.4068,6.76247 -1.0926,5.53817 -1.3775,5.92472 -7.3133,9.92228 -3.3971,2.28779 -7.4994,5.43209 -9.1163,6.98733 -1.6169,1.55525 -3.8934,2.82772 -5.0589,2.82772 -1.1655,0 -2.9925,0.66069 -4.0602,1.4682 -1.5426,1.1668 -5.7901,1.47472 -20.6911,1.5 l -18.75,0.0318 0,-2.94098 c 0,-1.61754 0.45,-3.2191 1,-3.55902 0.55,-0.33992 1,-1.64734 1,-2.90538 0,-1.25804 0.7374,-3.81898 1.6388,-5.69098 1.6449,-3.41659 2.3128,-4.25762 8.8311,-11.12031 2.6398,-2.77928 3.5301,-4.58677 3.5301,-7.16659 0,-2.53058 0.6692,-3.9385 2.5111,-5.28333 2.3433,-1.71087 2.5539,-2.58277 3.1506,-13.04485 0.5113,-8.96456 0.3212,-12.07092 -0.9484,-15.5 -1.3969,-3.77279 -2.6613,-8.87614 -8.1238,-32.78856 -0.691,-3.025 -2.1187,-7.075 -3.1727,-9 -1.054,-1.925 -2.1414,-4.58788 -2.4165,-5.9175 -0.6709,-3.24182 -2.6631,-3.74234 -3.5328,-0.88755 -0.3862,1.26778 -1.7744,4.68089 -3.0848,7.58469 -1.3105,2.90379 -2.3827,5.73213 -2.3827,6.28518 0,1.76258 -3.1845,5.9392 -4.0979,5.37466 -0.4836,-0.29885 -0.6435,0.0709 -0.3554,0.82168 0.2881,0.75077 -0.392,2.19388 -1.5114,3.20692 -1.1484,1.0393 -2.0353,3.09527 -2.0353,4.71829 0,1.63431 -0.6477,3.12496 -1.5,3.452 -0.825,0.31659 -1.5,1.42746 -1.5,2.46862 0,1.04115 -0.8625,2.75551 -1.9167,3.80968 -1.0541,1.05416 -1.7178,2.11547 -1.4748,2.35846 0.2429,0.24299 -0.3969,2.41799 -1.422,4.83333 -2.7787,6.54726 -4.5723,19.17752 -3.2877,23.15145 0.6031,1.86587 0.7407,5.25457 0.3243,7.98977 -0.6361,4.17802 -1.3753,5.28405 -6.1422,9.18946 -4.841,3.96616 -5.936,4.42801 -10.2648,4.32941 -3.6791,-0.0838 -5.20721,0.35206 -6.3475,1.81054 -2.19254,2.80434 -4.4686,8.33377 -4.4686,10.85594 0,2.10905 -4.67992,7.56497 -6.48899,7.56497 -0.48376,0 -2.70914,0.82474 -4.94529,1.83276 -8.39488,3.78429 -11.12603,4.16724 -29.72005,4.16724 -10.18179,0 -18.81234,-0.3 -19.179,-0.66667 z M 799.15934,60.580228 c 4.1381,-4.38771 5.3119,-10.44194 3.0663,-15.81625 -1.41,-3.37466 -1.8674,-3.67634 -5.5745,-3.67634 -3.6581,0 -4.289,0.39686 -6.6979,4.21269 -4.8607,7.69991 -4.1571,17.24005 1.3324,18.06605 1.541,0.23188 3.1988,0.48902 3.6838,0.57143 0.4851,0.0824 2.3705,-1.42851 4.1899,-3.35758 z"
     id="path3003"
     inkscape:connector-curvature="0"
     sodipodi:nodetypes="cscssssscscssssssssssssssssssssssssssscssssssssssssssssssssssssssssssssssssssssssssssssssssscssscsscsscsscssscsssssssccscsscscccssscsscccccccscccssssscccssscssccsccscccscccssssscscccscscsccccccsscsccssssssscscsssscsccccsssscssssccscsscssscssscssssccssssccsscsssssssscscssscsscsssscccscssscsccsccssssssscccscscc" />
</svg>
