<?xml version="1.0" encoding="UTF-8" standalone="no"?>
<!-- Created with Inkscape (http://www.inkscape.org/) -->

<svg
   xmlns:dc="http://purl.org/dc/elements/1.1/"
   xmlns:cc="http://creativecommons.org/ns#"
   xmlns:rdf="http://www.w3.org/1999/02/22-rdf-syntax-ns#"
   xmlns:svg="http://www.w3.org/2000/svg"
   xmlns="http://www.w3.org/2000/svg"
   xmlns:sodipodi="http://sodipodi.sourceforge.net/DTD/sodipodi-0.dtd"
   xmlns:inkscape="http://www.inkscape.org/namespaces/inkscape"
   id="svg2"
   version="1.1"
   inkscape:version="0.48.2 r9819"
   width="1035"
   height="1000.2872"
   sodipodi:docname="Pronghorn_(PSF)c.png">
  <metadata
     id="metadata8">
    <rdf:RDF>
      <cc:Work
         rdf:about="">
        <dc:format>image/svg+xml</dc:format>
        <dc:type
           rdf:resource="http://purl.org/dc/dcmitype/StillImage" />
        <dc:title></dc:title>
      </cc:Work>
    </rdf:RDF>
  </metadata>
  <defs
     id="defs6" />
  <sodipodi:namedview
     pagecolor="#ffffff"
     bordercolor="#666666"
     borderopacity="1"
     objecttolerance="10"
     gridtolerance="10"
     guidetolerance="10"
     inkscape:pageopacity="0"
     inkscape:pageshadow="2"
     inkscape:window-width="1920"
     inkscape:window-height="1176"
     id="namedview4"
     showgrid="false"
     fit-margin-top="0"
     fit-margin-left="0"
     fit-margin-right="0"
     fit-margin-bottom="0"
     inkscape:zoom="1"
     inkscape:cx="562"
     inkscape:cy="479.2887"
     inkscape:window-x="0"
     inkscape:window-y="24"
     inkscape:window-maximized="1"
     inkscape:current-layer="svg2" />
  <path
     style="fill:#000000"
     d="m 408.55342,994.64276 c -0.87258,-1.86255 -3.52387,0.3557 -4.59887,0.3557 -3.18784,0 -2.31029,-2.36129 4.52888,-12.18616 3.56589,-5.12261 7.79527,-11.88691 9.39863,-15.03178 6.19735,-12.15565 9.07937,-15.67082 20.94781,-25.5498 8.34456,-6.9458 10.70446,-12.03645 14.7103,-31.73226 0.8949,-4.4 2.0051,-9.575 2.46712,-11.5 3.32082,-13.83634 7.94134,-40.28184 10.04632,-57.5 0.60516,-4.95 1.53327,-12.15 2.06247,-16 0.94111,-6.84668 1.3991,-10.6487 2.31972,-19.25738 0.25041,-2.34156 0.75053,-4.73508 1.11137,-5.31894 1.11615,-1.80597 1.48251,-14.7873 0.43559,-15.43434 -0.54052,-0.33405 -0.99857,-2.94332 -1.01789,-5.79836 -0.0429,-6.34077 -1.91587,-14.75449 -5.48722,-24.64975 -2.02056,-5.59842 -2.55912,-8.59142 -2.15929,-12 0.29299,-2.49767 1.45158,-12.41623 2.57464,-22.04123 2.68713,-23.02943 2.87938,-39.85853 0.75394,-66 -1.82497,-22.44587 -3.66017,-32.02237 -8.68787,-45.33544 C 456.33158,605.35353 455,600.95489 455,599.88827 c 0,-2.23923 -4.60071,-4.43817 -6.37164,-3.04536 -1.29324,1.01712 -12.39151,2.14766 -27.62836,2.81439 -10.70144,0.46828 -20.15698,-0.57278 -30,-3.303 -3.025,-0.83906 -7.85589,-1.84786 -10.7353,-2.24178 -2.87942,-0.39392 -6.49323,-1.64623 -8.03069,-2.78292 -1.53745,-1.1367 -4.58157,-2.99034 -6.76469,-4.11921 -2.18313,-1.12888 -7.82175,-5.80087 -12.53027,-10.38222 -6.39292,-6.22024 -9.53705,-10.22906 -12.41531,-15.82971 -2.1199,-4.125 -4.86082,-8.85 -6.09094,-10.5 -1.23012,-1.65 -3.47532,-5.25 -4.98933,-8 -1.51401,-2.75 -4.82066,-7.60281 -7.34811,-10.78402 -2.52745,-3.18121 -6.10139,-7.68121 -7.9421,-10 -4.89216,-6.16278 -7.33289,-8.69491 -13.22084,-13.71598 -9.15627,-7.80818 -15.27245,-13.36684 -20.93937,-19.03061 -3.02118,-3.0195 -9.50605,-8.86036 -14.41082,-12.9797 -8.55862,-7.18805 -20.47561,-20.46501 -31.08223,-34.62935 -2.75,-3.67241 -5.77213,-7.49047 -6.71585,-8.48458 -0.94371,-0.9941 -2.80758,-3.96032 -4.14191,-6.59161 -1.33434,-2.63128 -3.37318,-5.64001 -4.53076,-6.68606 -6.89801,-6.23343 -23.1367,-49.27112 -26.26028,-69.59809 -0.54935,-3.575 -1.53199,-7.175 -2.18363,-8 -0.65164,-0.825 -2.00397,-3.12192 -3.00517,-5.10426 -1.0012,-1.98234 -3.75405,-5.22062 -6.11745,-7.19617 l -4.29708,-3.59192 -17.87393,-0.22687 c -39.04224,-0.49557 -74.1584,0.33347 -76.87394,1.81488 -3.3417,1.823 -11.97158,3.44583 -20.20157,3.79886 -4.28914,0.18398 -11.39843,0.6289 -15.79843,0.9887 -5.81039,0.47514 -9.50536,0.23741 -13.5,-0.86856 -3.025,-0.83752 -6.76125,-1.78297 -8.30278,-2.10101 -1.72609,-0.35611 -3.53854,-1.81433 -4.71807,-3.79595 -1.05341,-1.76973 -3.50466,-4.47438 -5.44722,-6.01033 C 12.58937,318.16988 11,316.36163 11,315.6875 11,315.01336 9.16317,312.23898 6.91816,309.52221 1.14378,302.53441 2.5394534e-8,299.87166 2.5394534e-8,293.41654 2.5394534e-8,286.9635 -0.01249997,286.97914 17.50231,271.59572 22.45104,267.24922 30.55,259.98039 35.5,255.44276 c 4.95,-4.53762 11.97906,-10.65639 15.62014,-13.59726 3.64108,-2.94087 11.06608,-8.94407 16.5,-13.34044 C 73.05406,224.10869 80.425,217.63191 84,214.11222 c 3.575,-3.51969 9.49618,-9.02066 13.15818,-12.22438 3.76996,-3.29818 8.03244,-8.22691 9.82624,-11.36215 3.14719,-5.50072 3.1607,-5.58467 2.05048,-12.74023 -0.61467,-3.96166 -1.21148,-7.22804 -1.32624,-7.25861 -0.11476,-0.0306 -2.45866,-1.87728 -5.20866,-4.10377 -8.06253,-6.52769 -13.70853,-10.09249 -22.10972,-13.95974 -4.33966,-1.99764 -8.99234,-4.15695 -10.3393,-4.79847 -1.34696,-0.64153 -5.73446,-4.39993 -9.75,-8.35202 -7.75172,-7.62923 -9.17668,-11.29584 -5.72955,-14.74296 2.00739,-2.0074 2.68632,-1.97672 7.47688,0.33782 L 66,126.81696 l 0,-2.97499 c 0,-5.31409 2.66562,-8.8004 6.75,-8.8282 1.2375,-0.008 2.25,-0.28669 2.25,-0.61838 0,-0.33169 -2.65361,-6.06919 -5.89692,-12.75 C 58.73028,80.278676 55.02674,69.326902 55.01942,59.998457 c -0.0115,-14.68755 4.27361,-27.459452 11.83533,-35.275384 5.30749,-5.485918 9.64316,-7.052765 18.1586,-6.562249 l 5.6862,0.327543 5.02421,-5.494955 c 11.51155,-12.59014686 28.58436,-16.4821979 42.47947,-9.6839549 7.48964,3.664342 10.90983,7.5124729 11.52459,12.9665659 0.66451,5.895542 -0.91646,8.722434 -4.87813,8.722434 -2.23128,0 -3.94655,-0.946106 -6.22497,-3.433559 -5.62522,-6.141309 -11.68663,-7.088975 -19.62206,-3.06779 -7.15722,3.626841 -7.61356,5.120906 -3.45169,11.300927 C 117.44793,32.614872 119,35.78485 119,36.84243 c 0,2.258872 -3.64667,3.249901 -8.85095,2.405362 l -3.42202,-0.555317 0.72272,4.819481 c 0.87253,5.818425 3.79969,12.178126 10.81006,23.486501 9.63034,15.534642 11.18368,17.229547 8.16211,8.905989 -1.1932,-3.286907 -1.45501,-6.411196 -1.03082,-12.300785 0.66479,-9.229922 2.5476,-13.061619 5.91454,-12.036653 3.16211,0.962614 5.42061,3.204621 6.14811,6.103214 1.31963,5.257818 9.82064,18.151319 17.03682,25.839791 9.5904,10.218074 9.75971,9.594454 2.98968,-11.011556 -1.4456,-4.4 -3.87799,-9.8 -5.40531,-12 -3.56777,-5.139122 -4.50047,-9.05847 -3.01126,-12.653741 2.49637,-6.026755 9.27603,-3.084264 24.10704,10.462872 18.20707,16.630948 21.85848,21.634811 34.67172,47.513822 8.34269,16.8498 13.95602,26.13029 15.82239,26.15908 1.5098,0.0233 7.78034,-8.62046 9.00965,-12.41953 0.52279,-1.61562 1.42945,-3.09714 2.01481,-3.29226 1.90258,-0.6342 2.26794,2.59954 0.77257,6.83787 -0.80402,2.27884 -1.45962,4.42427 -1.45689,4.76762 0.0114,1.43045 5.16609,-5.66728 6.62754,-9.12573 1.68731,-3.99294 2.3165,-4.40099 4.07485,-2.64264 1.38014,1.38014 2.97372,-1.371 5.27538,-9.10736 1.0008,-3.3639 2.19577,-5.5 3.07679,-5.5 2.39161,0 2.20514,4.88839 -0.43425,11.38396 -1.60753,3.95615 -2.06847,6.11381 -1.30522,6.10972 1.1088,-0.006 4.18973,-4.33632 5.86513,-8.24368 0.78308,-1.82632 4.81481,-2.47457 4.81481,-0.77417 0,0.53671 -0.89832,2.44921 -1.99626,4.25 -3.39217,5.56367 -2.21686,6.28069 2.31615,1.41301 2.58785,-2.77892 5.19399,-4.63884 6.5,-4.63884 3.20029,0 2.68301,1.7324 -1.87965,6.29506 -8.46905,8.46904 -7.24312,10.39349 1.72879,2.71383 3.20704,-2.74512 6.40759,-4.99512 7.11235,-5 2.23007,-0.0155 2.68857,3.14895 0.62311,4.3005 -2.69483,1.50244 -12.52003,10.90841 -11.96958,11.45885 0.25142,0.25142 3.57943,-1.61858 7.39559,-4.15556 6.7054,-4.45774 10.42163,-5.63178 11.63125,-3.67456 0.31889,0.51596 -2.57956,2.98188 -6.44098,5.47982 -7.48465,4.8418 -9.09667,6.46744 -3.77077,3.80264 1.7875,-0.89437 5.5,-1.68841 8.25,-1.76453 2.75,-0.0761 5.74198,-0.46555 6.64885,-0.8654 2.13724,-0.94233 3.37909,1.0683 1.82007,2.9468 -0.6618,0.79742 -3.65224,2.85101 -6.64543,4.56354 -2.99318,1.71252 -5.23674,3.3191 -4.98567,3.57016 0.25106,0.25106 3.79909,-0.69724 7.88451,-2.10734 4.08541,-1.41009 7.9567,-2.56381 8.60285,-2.56381 1.97508,0 1.30807,2.7911 -1.07518,4.49906 l -2.25,1.61247 2.78206,-0.67222 c 4.66085,-1.12618 6.21794,-1.00442 6.21794,0.48626 0,0.85324 -3.01105,2.57339 -7.5,4.28458 -4.125,1.57246 -6.375,2.65074 -5,2.39619 11.49028,-2.12716 17,-1.83752 17,0.89366 0,0.80404 -1.125,1.69547 -2.5,1.98095 -1.375,0.28548 -3.69009,0.76896 -5.14464,1.07441 -3.36621,0.70687 -2.1158,1.81088 3.87564,3.42186 9.26926,2.4923 8.91277,6.22313 -0.52754,5.521 l -6.20346,-0.46139 4,1.40473 c 2.2,0.77261 5.66094,1.43932 7.69098,1.48159 4.37345,0.0911 5.34002,1.21204 3.5929,4.16683 -1.06006,1.7928 -1.04418,2.25751 0.0911,2.66567 0.75625,0.27189 2.22906,1.34841 3.27292,2.39227 1.5376,1.5376 1.68621,2.29349 0.78279,3.98156 -0.89124,1.66529 -1.74915,1.96857 -4.27292,1.51053 -2.16811,-0.39349 -1.19898,0.33731 3.09221,2.33177 4.70633,2.18741 6.25,3.41408 6.25,4.96655 0,1.13392 -0.5625,2.08156 -1.25,2.10587 -0.6875,0.0243 0.4375,0.93505 2.5,2.02389 4.18218,2.20784 5.00501,4.92251 1.5,4.94876 -2.0191,0.0151 -1.91648,0.23044 1,2.0982 3.65784,2.34254 4.00079,3.36541 1.58216,4.71894 -1.37873,0.77158 -1.11872,1.05398 1.5,1.62915 3.59016,0.78853 4.21735,3.21307 1.12689,4.3563 -1.99146,0.7367 -1.97934,0.81287 0.5,3.14209 2.67681,2.51473 3.35495,5.03847 1.35386,5.03847 -0.6529,0 0.0907,1.33373 1.65245,2.96384 2.37577,2.47977 2.63132,3.21474 1.56465,4.5 -1.41626,1.70649 -1.04476,2.41921 4.26698,8.18607 2.01863,2.19158 2.70963,3.75388 2.27125,5.13509 -0.45416,1.43092 0.17549,2.66302 2.25518,4.41296 1.58689,1.33528 3.67455,3.63241 4.63925,5.10472 1.6139,2.46313 1.62256,2.72738 0.10842,3.30841 -0.94136,0.36124 -2.48553,-0.12867 -3.60834,-1.1448 -4.01225,-3.63104 -1.76049,0.60503 4.53425,8.52993 5.46831,6.88445 6.39381,8.60104 5.84529,10.84166 -0.35844,1.46417 -1.04236,2.81554 -1.51982,3.00306 -0.47747,0.18752 1.46489,2.21252 4.31636,4.5 2.85147,2.28748 7.6462,6.28732 10.65496,8.88854 3.5697,3.08616 6.72755,4.92231 9.08835,5.28446 1.98982,0.30524 7.02076,1.23393 11.17985,2.06375 6.22326,1.24166 9.23284,1.31039 17,0.38821 13.03247,-1.54731 26.41231,-4.6183 32.83181,-7.53568 5.36965,-2.44027 14.07281,-4.91004 29.93779,-8.49572 12.05068,-2.72359 30.44983,-4.31973 62.66843,-5.43653 16.1577,-0.56007 42.8794,-2.17899 59.5,-3.60476 13.19,-1.13149 91.9963,-2.95222 130.5,-3.01506 20.1214,-0.0328 27.0049,-0.37526 30.4446,-1.5145 2.6153,-0.86618 10.4354,-1.71142 19,-2.05359 36.7588,-1.46862 38.3672,-1.48112 40.546,-0.31509 1.632,0.87344 3.2262,0.88911 6.2982,0.0619 6.4658,-1.74107 33.5902,-0.2954 38.9063,2.07364 2.3073,1.02822 6.0174,1.86949 8.2446,1.86949 6.4081,0 33.167,10.5721 60.5009,23.90317 8.8327,4.30778 20.1094,9.52201 25.0594,11.58718 4.95,2.06517 11.3253,4.82027 14.1673,6.12246 5.3943,2.47157 17.7934,6.57966 27.2851,9.04015 6.5147,1.68879 25.0476,11.96113 25.0476,13.8833 0,0.72855 1.0125,1.46844 2.25,1.64419 1.2375,0.17575 2.25,0.99455 2.25,1.81955 0,0.825 -1.0125,1.6438 -2.25,1.81955 -3.9751,0.56455 -2.3984,2.18045 2.1276,2.18045 7.7543,0 8.8066,4.77528 1.1224,5.09368 -2.0724,0.0859 -1.2316,0.47713 2.7191,1.26532 6.7963,1.35591 9.1418,3.1393 6.5999,5.01809 -1.5052,1.11253 -1.3222,1.43565 1.75,3.09015 5.5069,2.96563 3.5743,6.66032 -2.3277,4.45002 -2.607,-0.97633 -2.5746,-0.8863 0.6617,1.83748 2.8327,2.38413 3.31,3.35045 2.8482,5.76626 -0.3728,1.95058 -0.058,3.26536 0.9601,4.00984 1.6902,1.23589 2.6585,11.12255 1.179,12.03697 -0.5167,0.31931 -0.4714,1.34642 0.107,2.42714 0.5515,1.03046 1.0027,2.85561 1.0027,4.05589 0,1.78858 -0.4511,2.09609 -2.5,1.70441 -3.0195,-0.57721 -3.1824,0.31722 -0.5,2.74475 2.5531,2.31051 2.5572,4.54153 0.01,5.20774 -1.5434,0.40361 -1.8525,1.07011 -1.3762,2.96763 0.4853,1.9337 0.1686,2.56365 -1.5096,3.00251 -2.5418,0.66468 -2.5524,0.73842 -0.5467,3.79949 1.9882,3.03437 1.5182,6.4903 -1.0771,7.9205 -1.1,0.60617 -2.169,1.19614 -2.3756,1.31103 -0.2065,0.1149 1.031,1.3924 2.75,2.8389 1.7191,1.44649 3.1256,3.27911 3.1256,4.07248 0,2.04041 -2.9205,2.91048 -5.1325,1.52907 -2.3294,-1.45476 -2.378,-0.20098 -0.1432,3.69301 1.6418,2.8606 1.6371,3.10084 -0.098,5.01803 -1.0022,1.10747 -1.5241,2.49597 -1.1597,3.08555 1.1247,1.81987 -0.4968,5.05406 -2.534,5.05406 -2.3217,0 -2.5349,2.25527 -0.382,4.04196 2.3133,1.91988 1.4626,6.38513 -1.291,6.77633 -2.1359,0.30345 -2.1708,0.45266 -0.75,3.20034 1.7199,3.32577 1.9338,6.58932 0.4904,7.48137 -0.55,0.33992 -1,1.91492 -1,3.5 0,1.58508 -0.45,3.16008 -1,3.5 -0.55,0.33992 -1.0028,1.60398 -1.0063,2.80902 0,1.39627 -1.1216,2.82573 -3.081,3.94095 -2.5991,1.47927 -3.3665,1.54562 -4.9608,0.42888 -3.593,-2.51662 -7.5454,-8.45897 -10.4879,-15.76829 -2.7726,-6.88736 -2.9955,-7.15894 -3.5917,-4.37678 -0.3496,1.63142 -0.6889,4.66486 -0.754,6.74097 -0.096,3.0511 -0.5976,3.95697 -2.6183,4.72525 -1.919,0.7296 -2.5,1.66552 -2.5,4.02713 0,1.69215 -0.8863,4.74079 -1.9697,6.77475 -2.8925,5.43082 -7.1161,16.91901 -7.7497,21.07886 -0.3032,1.99059 -1.1894,4.35626 -1.9693,5.25705 -0.78,0.90078 -2.3316,4.05078 -3.4481,7 -1.1164,2.94921 -2.6173,6.03721 -3.3353,6.86221 -0.7179,0.825 -1.6093,2.93141 -1.9809,4.6809 -0.3716,1.7495 -1.3217,3.7171 -2.1113,4.37245 -0.79,0.65535 -1.4361,2.79975 -1.4361,4.76534 0,2.18946 -0.9746,4.98016 -2.516,7.2044 -3.5738,5.15704 -5.4148,14.92555 -4.4344,23.52987 1.4307,12.55617 5.8687,29.43296 9.7158,36.94704 2.3846,4.65734 11.4194,16.51681 16.3793,21.5 6.0797,6.10817 21.4824,19.15341 24.7952,21 7.81,4.3535 15.2097,11.34661 18.3348,17.32746 l 3.2253,6.17254 -0.3073,19.31138 c -0.1782,11.19798 0.1181,20.65103 0.7052,22.5 1.9253,6.06349 1.5488,29.71454 -0.7942,49.90076 -0.5291,4.55832 -1.2756,16.61286 -1.6589,26.78786 -0.3833,10.175 -0.8678,20.975 -1.0767,24 -0.209,3.025 -0.5561,28.9 -0.7715,57.5 -0.2154,28.6 -0.864,55.375 -1.4414,59.5 -1.1966,8.54765 -4.7614,18 -6.7885,18 -0.7517,0 -1.3667,0.88378 -1.3667,1.96395 0,1.10111 -1.463,2.9683 -3.3301,4.25 -4.2435,2.91305 -9.6699,9.10449 -9.6699,11.03321 0,0.81572 -0.9257,2.65999 -2.0572,4.09838 -1.1314,1.43839 -2.4093,4.843 -2.8397,7.5658 -1.0329,6.53387 -3.2112,9.64104 -7.8177,11.15104 -2.082,0.68248 -4.6854,1.80797 -5.7854,2.50109 -2.0045,1.26304 -10.3003,3.10312 -26.861,5.95797 -9.2891,1.60131 -15.4368,1.16913 -16.3258,-1.14771 -0.29,-0.75555 -1.3525,-1.37373 -2.3612,-1.37373 -1.0087,0 -2.1239,-0.46919 -2.4784,-1.04265 -0.3544,-0.57346 2.923,-8.11096 7.2831,-16.75 4.36,-8.63904 8.2585,-17.05735 8.6633,-18.70735 0.4047,-1.65 3.1101,-6.60853 6.0119,-11.01895 4.1966,-6.37833 6.6869,-8.96966 12.172,-12.66582 12.2759,-8.27203 12.9555,-9.35058 15.3753,-24.40128 3.6701,-22.82715 5.1399,-46.26206 6.5485,-104.41395 0.7124,-29.40825 0.6585,-30.85795 -1.5063,-40.5 -1.2348,-5.5 -2.5901,-12.025 -3.0117,-14.5 -2.6094,-15.31809 -6.5557,-26.29616 -11.5031,-32 -1.1927,-1.375 -4.4602,-5.70833 -7.2611,-9.62963 -2.801,-3.9213 -8.7508,-10.6713 -13.2217,-15 -4.471,-4.3287 -10.9179,-10.5828 -14.3264,-13.89799 -3.4086,-3.3152 -10.0224,-9.2124 -14.6974,-13.1049 -4.675,-3.8925 -12.8875,-11.23659 -18.25,-16.32021 -5.3625,-5.08361 -9.75,-8.77555 -9.75,-8.2043 0,1.23733 7.1426,17.17686 9.9288,22.15703 1.0769,1.925 3.7082,7.11245 5.8473,11.52767 2.1391,4.41522 5.2781,9.94487 6.9755,12.2881 4.2743,5.90046 6.6077,13.83771 6.049,20.57552 -0.3567,4.30068 -1.2841,6.64469 -4.3766,11.06194 -6.9663,9.95039 -18.424,31.40463 -18.424,34.49839 0,0.97311 -1.0265,3.29458 -2.2812,5.15883 -1.2547,1.86425 -5.1351,8.66077 -8.6231,15.10336 -3.488,6.4426 -7.8615,13.48913 -9.7188,15.65897 -1.8573,2.16983 -3.3769,4.33598 -3.3769,4.81367 0,0.47769 -2.2785,4.00616 -5.0634,7.84104 -2.7848,3.83488 -6.8504,9.89751 -9.0345,13.47251 -5.0874,8.32707 -13.2259,20.31735 -20.7618,30.58818 -3.264,4.44849 -6.8871,9.84849 -8.0513,12 -1.1642,2.1515 -3.8869,6.61182 -6.0505,9.91182 -2.1635,3.3 -4.8741,7.575 -6.0234,9.5 -1.1494,1.925 -3.0855,5.15329 -4.3024,7.17397 -1.217,2.02068 -4.4119,7.64568 -7.0998,12.5 -2.6879,4.85432 -5.5854,9.95103 -6.4388,11.32603 -0.8535,1.375 -3.6115,6.55616 -6.129,11.51369 -6.514,12.82754 -13.6969,23.23675 -17.9154,25.96227 -1.9963,1.28984 -5.4624,2.63648 -7.7024,2.99254 -3.6853,0.58581 -6.47,2.4895 -10.2167,6.98455 -0.7092,0.85082 -2.3713,1.54695 -3.6935,1.54695 -1.6055,0 -2.987,0.98696 -4.1593,2.97146 -0.9654,1.6343 -3.0159,3.41089 -4.5565,3.94798 -2.0459,0.71319 -2.8013,1.64074 -2.8013,3.43965 0,3.07176 -4.1817,6.71887 -10.0948,8.80426 -11.3645,4.0079 -30.5061,5.80803 -41.4655,3.89953 C 693.6259,973.87477 687,970.80594 687,968.83667 c 0,-0.54927 3.3313,-4.45007 7.4028,-8.66844 C 703.3732,950.87435 707,946.55385 707,945.16155 c 0,-0.57651 3.2625,-4.34765 7.25,-8.38031 8.3186,-8.41285 18.7995,-15.092 28.0255,-17.85988 6.0222,-1.8067 7.1348,-2.66676 19.2906,-14.91231 7.0949,-7.14726 14.0561,-15.05545 15.4694,-17.57375 1.4132,-2.5183 4.6152,-7.35931 7.1156,-10.75779 7.2961,-9.91666 16.9365,-24.17072 22.6246,-33.45237 2.9017,-4.73476 7.0187,-10.88521 9.1489,-13.66767 4.2758,-5.58501 12.8272,-19.45922 20.0678,-32.55901 2.5841,-4.675 6.0814,-10.75 7.7719,-13.5 1.6905,-2.75 3.8686,-7.025 4.8403,-9.5 0.9716,-2.475 2.572,-5.625 3.5564,-7 2.5333,-3.53835 5.1788,-20.03339 4.4907,-28 -1.335,-15.4569 -4.3361,-30.6664 -8.0451,-40.77281 -6.1335,-16.7124 -8.244,-21.8036 -12.7017,-30.6399 -5.0166,-9.94407 -8.3831,-15.87778 -22.6371,-39.89926 -8.6979,-14.658 -17.5195,-31.70113 -19.2488,-37.18803 -1.826,-5.79407 -2.4028,-5.99659 -5.503,-1.93214 -2.6541,3.47974 -3.0271,3.63749 -7.5685,3.20112 -3.6883,-0.3544 -5.3587,-1.12093 -7.3305,-3.36399 -1.4046,-1.59774 -2.568,-3.69249 -2.5854,-4.65499 -0.039,-2.12978 -1.3769,-2.21217 -4.8773,-0.30022 -4.6336,2.53091 -16.248,7.55022 -17.4707,7.55022 -0.6472,0 -4.5533,1.0842 -8.6802,2.40933 -10.0346,3.22211 -19.5461,5.15089 -37.3399,7.57197 -16.5467,2.25138 -46.8177,2.73549 -66.1635,1.05811 -6.05,-0.52456 -20,-1.21326 -31,-1.53043 -11,-0.31717 -24.725,-1.23343 -30.5,-2.03612 -5.775,-0.8027 -14.55,-1.36617 -19.5,-1.25216 -4.95,0.11401 -11.1375,0.19025 -13.75,0.16943 -5.3788,-0.0429 -5.6466,0.53766 -3.2788,7.10987 0.9499,2.63675 1.456,8.22085 1.4849,16.3847 0.024,6.81159 0.4744,15.13659 1.0006,18.5 0.5262,3.36342 1.6714,10.6153 2.5448,16.1153 3.5136,22.12437 5.0995,69.11902 2.5892,76.72518 -1.427,4.32389 -1.8305,43.4252 -0.6838,66.27482 0.4416,8.8 0.9407,16.22979 1.1091,16.51064 0.1684,0.28085 1.0236,9.28085 1.9005,20 0.8769,10.71915 2.2845,24.66436 3.1281,30.98936 0.8436,6.325 2.187,16.45 2.9853,22.5 0.7983,6.05 1.5525,18.65 1.6761,28 l 0.2245,17 -2.8751,5 c -1.5814,2.75 -4.3286,6.575 -6.1051,8.5 -4.14,4.48614 -6.0335,8.3953 -6.7393,13.91342 -0.7525,5.88267 -3.4377,9.21502 -9.041,11.21974 -2.5477,0.9115 -5.9871,2.79728 -7.6429,4.19063 -2.4447,2.05702 -4.0935,2.53928 -8.7689,2.56487 -3.167,0.0173 -7.1082,-0.39758 -8.7582,-0.92204 -1.65,-0.52446 -6.9391,-1.09773 -11.7536,-1.27393 -12.88879,-0.47171 -13.84848,-3.06881 -6.0726,-16.43324 1.5231,-2.6177 3.7189,-6.17329 4.8796,-7.90131 1.1608,-1.72802 3.5777,-7.80302 5.371,-13.5 1.7933,-5.69698 4.257,-11.48314 5.4749,-12.85814 1.2178,-1.375 3.4259,-4.15708 4.9068,-6.1824 1.4809,-2.02532 3.5438,-3.95257 4.5842,-4.28278 1.0404,-0.33021 2.8684,-2.87091 4.0622,-5.646 1.8318,-4.25811 2.2397,-7.4916 2.6136,-20.71722 1.4168,-50.11635 0.5801,-66.26292 -5.0613,-97.6716 -1.2843,-7.15 -2.6242,-15.12701 -2.9777,-17.72669 -0.3535,-2.59968 -1.0441,-4.97479 -1.5347,-5.27801 -1.3168,-0.81385 -2.9311,2.77806 -3.6694,8.16509 -0.3575,2.60757 -1.2486,5.88822 -1.9803,7.29032 -0.7317,1.40211 -1.3332,4.21023 -1.3365,6.24027 0,2.03004 -0.4042,3.93696 -0.8906,4.23759 -1.035,0.63965 -2.4939,8.53424 -4.5409,24.57143 -1.3492,10.57072 -2.0686,17.20883 -4.606,42.5 -0.4966,4.95 -1.373,19.8 -1.9476,33 -0.5745,13.2 -1.4893,27.29506 -2.0328,31.32236 -0.5436,4.0273 -0.9883,10.38484 -0.9883,14.12788 0,3.74303 -0.6356,8.32297 -1.4123,10.17764 -0.77684,1.85466 -5.05184,7.35382 -9.50005,12.22034 -4.44821,4.86651 -8.08765,9.2755 -8.08765,9.79774 0,0.52225 -1.2092,2.07019 -2.68712,3.43987 -2.47656,2.29521 -2.5941,2.74758 -1.5,5.77325 2.47003,6.83075 0.8578,10.373 -6.31288,13.87002 -3.81854,1.8622 -16.25159,4.8288 -19.5126,4.6558 -1.36807,-0.073 -8.40541,0.2136 -15.63852,0.6359 l -13.15113,0.76794 z"
     id="path2987"
     inkscape:connector-curvature="0"
     sodipodi:nodetypes="ssssssssssscsssssssssssssssssssssssssssssscssssssssssssssssssscsssssscscssssscssssssssscsssssssssssssssscssssscssssssscssscsssssscssscssssssssscssssssssscscssssssssssssssssssssssssssssscsssssssssssscssssscccssssccsssccsscccscsccsscccsscsscscccscssscscscsssscscssssccssscscscssssssccssssscsscsssssscssscccscscscsccssssssssscscscsccssssccsccsssssssssccscsssssscccscsccssscscssssssscsccssscscssssscscs" />
</svg>
