<?xml version="1.0" encoding="UTF-8" standalone="no"?>
<!-- Created with Inkscape (http://www.inkscape.org/) -->

<svg
   xmlns:dc="http://purl.org/dc/elements/1.1/"
   xmlns:cc="http://creativecommons.org/ns#"
   xmlns:rdf="http://www.w3.org/1999/02/22-rdf-syntax-ns#"
   xmlns:svg="http://www.w3.org/2000/svg"
   xmlns="http://www.w3.org/2000/svg"
   xmlns:sodipodi="http://sodipodi.sourceforge.net/DTD/sodipodi-0.dtd"
   xmlns:inkscape="http://www.inkscape.org/namespaces/inkscape"
   id="svg2"
   version="1.1"
   inkscape:version="0.48.2 r9819"
   width="2630.7615"
   height="2379.8071"
   sodipodi:docname="Doe_2_(PSF)c.png">
  <metadata
     id="metadata8">
    <rdf:RDF>
      <cc:Work
         rdf:about="">
        <dc:format>image/svg+xml</dc:format>
        <dc:type
           rdf:resource="http://purl.org/dc/dcmitype/StillImage" />
        <dc:title></dc:title>
      </cc:Work>
    </rdf:RDF>
  </metadata>
  <defs
     id="defs6" />
  <sodipodi:namedview
     pagecolor="#ffffff"
     bordercolor="#666666"
     borderopacity="1"
     objecttolerance="10"
     gridtolerance="10"
     guidetolerance="10"
     inkscape:pageopacity="0"
     inkscape:pageshadow="2"
     inkscape:window-width="1600"
     inkscape:window-height="876"
     id="namedview4"
     showgrid="false"
     inkscape:zoom="0.25"
     inkscape:cx="1324.3828"
     inkscape:cy="1167.5052"
     inkscape:window-x="0"
     inkscape:window-y="24"
     inkscape:window-maximized="1"
     inkscape:current-layer="svg2"
     fit-margin-top="0"
     fit-margin-left="0"
     fit-margin-right="0"
     fit-margin-bottom="0" />
  <path
     style="fill:#000000"
     d="m 912.08844,2378.7542 c -1.262,-0.5065 -2.9537,-2.4987 -3.7595,-4.4271 -1.3667,-3.2711 -1.3261,-3.6453 0.605,-5.5764 2.493,-2.493 2.3127,-7.268 -0.2932,-7.7621 -1.7665,-0.335 -12.0918,3.4486 -19.0891,6.995 -3.5413,1.7948 -4.0144,1.8218 -6.25,0.3569 -3.1382,-2.0562 -3.2065,-6.8149 -0.1651,-11.4958 1.2355,-1.9014 3.5265,-5.7043 5.0911,-8.4508 1.5647,-2.7466 5.5022,-9.0001 8.75,-13.8969 3.2479,-4.8967 5.9052,-9.3299 5.9052,-9.8516 0,-0.5218 2.475,-4.6681 5.5,-9.2141 3.025,-4.5461 5.5,-8.6092 5.5,-9.0292 0,-0.4201 1.5271,-2.6394 3.3935,-4.932 1.8664,-2.2926 4.4018,-6.3289 5.6342,-8.9695 1.4824,-3.1764 4.4595,-6.6836 8.7966,-10.3631 3.6058,-3.0589 8.7861,-8.6477 11.5118,-12.4193 3.5763,-4.9488 5.9058,-7.1712 8.3687,-7.984 2.6267,-0.8669 3.3564,-1.6223 3.1675,-3.2794 -0.314,-2.7555 0.9805,-6.653 2.2098,-6.653 2.1935,0 4.911,-6.5946 4.945,-12 0.019,-3.025 0.5164,-8.875 1.1052,-13 0.5889,-4.125 1.198,-12.45 1.3536,-18.5 0.1556,-6.05 0.7872,-15.275 1.4037,-20.5 0.6164,-5.225 1.338,-14.0689 1.6035,-19.6531 0.2655,-5.5842 0.9382,-11.351 1.4948,-12.8151 1.4525,-3.8203 1.2139,-22.6495 -0.4059,-32.0318 -0.7596,-4.4 -1.6709,-14.3 -2.0251,-22 -1.2385,-26.9277 -1.6087,-31.6008 -2.9924,-37.7775 -0.9082,-4.0539 -1.3862,-12.3215 -1.3715,-23.7225 0.018,-13.9489 -0.5305,-21.254 -2.703,-36 -1.4991,-10.175 -2.5752,-20.075 -2.3912,-22 0.6724,-7.0387 0.1291,-15.6764 -1.4467,-23 -0.8875,-4.125 -2.2973,-10.6498 -3.1329,-14.4996 -0.8356,-3.8498 -1.5192,-8.0517 -1.5192,-9.3376 0,-1.2859 -1.3146,-8.2611 -2.9214,-15.5004 -1.6068,-7.2393 -3.8592,-17.8308 -5.0055,-23.5367 -1.7079,-8.5014 -2.6425,-11.0102 -5.1772,-13.897 -3.4681,-3.95 -5.9707,-9.3116 -7.8081,-16.7287 -0.6813,-2.75 -2.1194,-6.4269 -3.1959,-8.1709 -2.9856,-4.8369 -6.6618,-16.4991 -7.9134,-25.1042 -1.3834,-9.5108 -0.689,-64.5667 1.0244,-81.2249 1.9302,-18.7648 1.922,-25.0859 -0.037,-28.5 -1.7963,-3.1312 -1.9877,-5.4746 -3.9208,-48 -0.5396,-11.8705 -1.7339,-24.4712 -2.9383,-31 -1.758,-9.5304 -5.0984,-39.1383 -5.2461,-46.5 -0.1291,-6.4346 -3.0857,-37.4617 -4.3358,-45.5 -0.7698,-4.95 -1.3949,-12.6 -1.3892,-17 0.01,-8.0116 -3.6083,-28.2905 -6.7442,-37.7941 -1.6401,-4.9705 -1.6191,-21.2807 0.032,-24.9489 0.8772,-1.9486 -2.2687,-5.1241 -10.924,-11.0269 -2.75,-1.8754 -6.2007,-5.1694 -7.6682,-7.32 -3.6975,-5.4184 -6.1565,-5.2094 -6.9391,0.5899 -0.3339,2.475 -1.3464,6.4691 -2.25,8.8757 -0.9035,2.4067 -1.6427,5.5247 -1.6427,6.929 0,1.4043 -0.4178,3.9353 -0.9285,5.6243 -0.5107,1.6891 -1.3822,6.446 -1.9367,10.571 -4.8504,36.0824 -8.0435,57.4749 -10.1499,68 -1.0456,5.225 -2.3612,13.7903 -2.9234,19.034 -1.0288,9.596 -3.1729,20.6833 -6.8586,35.466 -1.0971,4.4 -3.0049,12.725 -4.2396,18.5 -1.2348,5.775 -3.2606,13.425 -4.502,17 -1.2413,3.575 -3.2099,10.775 -4.3746,16 -1.1647,5.225 -2.7534,11.975 -3.5304,15 -0.777,3.025 -2.1892,9.325 -3.1384,14 -0.9491,4.675 -2.9504,12.55 -4.4473,17.5 -1.4969,4.95 -3.5102,11.7 -4.4741,15 -0.9638,3.3 -2.5738,7.3691 -3.5777,9.0424 -1.4326,2.3878 -1.9563,6.0449 -2.4344,17 -1.5039,34.4621 -2.5064,51.432 -3.3969,57.4997 -1.1868,8.0873 -4.5268,17.3686 -7.8539,21.8249 -3.4373,4.6039 -8.1234,17.652 -12.2585,34.133 -1.173,4.675 -2.7429,10.75 -3.4888,13.5 -2.3604,8.7029 -6.3134,26.4547 -9.5751,43 -3.2163,16.3144 -4.262,22.8324 -5.9363,37 -1.6853,14.2613 -2.7193,20.3382 -4.29,25.2145 -1.5381,4.7751 -4.6681,19.4228 -6.5784,30.7855 -0.5548,3.3 -1.7114,9.6 -2.5702,14 -2.2292,11.4206 -3.5466,20.6052 -4.5184,31.5 -0.466,5.225 -1.3417,14.225 -1.9459,20 -0.6043,5.775 -1.3303,14.775 -1.6135,20 -0.5654,10.434 -2.7874,33.2494 -4.3825,45 -0.56,4.125 -1.2551,21.298 -1.5447,38.1622 -0.2897,16.8641 -0.7775,31.3157 -1.084,32.1145 -0.3065,0.7988 -1.7387,1.9907 -3.1826,2.6485 -3.6998,1.6858 -6.7554,-0.8107 -11.7647,-9.6124 -6.3631,-11.1812 -8.5936,-14.3128 -10.1939,-14.3128 -3.791,0 -9.8213,6.5272 -14.6795,15.889 -1.0306,1.9861 -2.8713,4.7977 -4.0904,6.2481 -1.2192,1.4505 -4.326,6.7212 -6.904,11.7129 -2.5781,4.9916 -5.675,9.7674 -6.8821,10.6128 -1.207,0.8455 -4.0561,1.5372 -6.3313,1.5372 -3.4213,0 -4.9451,0.7116 -8.811,4.1145 -2.5709,2.263 -5.4037,5.5255 -6.2951,7.25 -0.8915,1.7245 -3.0139,4.883 -4.7165,7.0189 -7.2071,9.041 -10.1961,11.7879 -13.6144,12.5117 -2.8808,0.6099 -3.4566,1.1569 -3.3381,3.171 0.1271,2.1597 -0.8303,2.8249 -8.5,5.9053 -4.7538,1.9093 -11.3432,3.7713 -14.6432,4.1378 -3.3,0.3666 -8.7866,1.3807 -12.1925,2.2536 -3.4059,0.873 -10.7823,1.8213 -16.3919,2.1075 -5.6097,0.2862 -10.7129,0.9465 -11.3406,1.4674 -1.1875,0.9856 -7.7686,-0.067 -12.6983,-2.0304 -1.4428,-0.5747 -5.9428,-1.4208 -10,-1.8802 -14.8538,-1.6818 -23.9317,-3.8735 -25.8486,-6.2407 -1.6423,-2.0281 -1.6609,-2.3345 -0.2061,-3.3982 1.3292,-0.9719 1.3983,-1.6093 0.4099,-3.7787 -0.654,-1.4352 -1.8737,-2.6095 -2.7105,-2.6095 -0.8368,0 -1.5203,-0.5625 -1.519,-1.25 0,-1.4061 7.0469,-12.4411 9.4157,-14.75 0.8465,-0.825 3.9111,-3.8058 6.8104,-6.6239 2.8993,-2.8182 6.6215,-5.8136 8.2715,-6.6565 3.6896,-1.8849 20.5,-18.0977 20.5,-19.7712 0,-2.0616 4.0872,-7.9484 5.5186,-7.9484 0.7455,0 2.8463,-1.5367 4.6684,-3.4149 3.7659,-3.8817 33.9901,-20.0657 40.633,-21.7575 3.8461,-0.9796 4.6369,-0.8659 7.2095,1.0361 3.0802,2.2773 5.4876,2.7267 6.4308,1.2005 0.3182,-0.5148 0.9768,-4.1085 1.4637,-7.9861 0.7016,-5.5873 1.594,-8.0388 4.301,-11.8142 1.8786,-2.6201 5.309,-8.7706 7.623,-13.6676 2.3141,-4.8971 5.7699,-11.0324 7.6797,-13.634 1.9098,-2.6016 3.4723,-5.182 3.4723,-5.7341 0,-0.5521 1.568,-3.2833 3.4845,-6.0693 1.9164,-2.7861 3.8972,-6.7741 4.4018,-8.8622 0.5045,-2.0882 2.4976,-9.8717 4.4292,-17.2967 1.9315,-7.425 3.7972,-15.975 4.146,-19 0.3488,-3.025 1.9458,-11.125 3.5489,-18 3.5717,-15.3174 4.9672,-22.5236 6.0236,-31.1048 0.4472,-3.6327 1.9617,-10.3827 3.3655,-15 1.4038,-4.6174 3.0241,-11.5452 3.6008,-15.3952 0.5766,-3.85 1.5084,-9.025 2.0706,-11.5 0.5623,-2.475 1.4502,-9.45 1.9733,-15.5 0.523,-6.05 1.4021,-13.025 1.9534,-15.5 0.5513,-2.475 1.4691,-8.775 2.0395,-14 0.5704,-5.225 1.7183,-12.425 2.5509,-16 2.5903,-11.1229 5.5512,-27.1702 6.4579,-35 1.7113,-14.7786 3.0308,-23.0697 4.1002,-25.7628 0.5978,-1.5054 1.455,-5.8872 1.9048,-9.7372 0.4498,-3.85 1.3453,-10.1197 1.9901,-13.9327 1.5107,-8.934 0.8508,-21.6947 -2.5377,-49.0673 -3.7823,-30.5542 -3.6366,-48.5074 0.5458,-67.2644 0.523,-2.3453 0.9509,-6.177 0.9509,-8.5148 0,-2.4356 0.9139,-5.9519 2.1406,-8.2356 3.2828,-6.1117 6.8408,-17.2487 7.9023,-24.7352 0.5264,-3.7125 1.4113,-10.0125 1.9664,-14 0.5552,-3.9875 1.2134,-17.1095 1.4627,-29.16 0.2494,-12.0505 0.7377,-23.8056 1.0851,-26.1224 0.3475,-2.3169 -0.07,-9.1074 -0.9271,-15.09 -3.6351,-25.3661 -3.8359,-28.4295 -3.5328,-53.8776 0.1704,-14.3 0.2245,-33.2 0.1203,-42 -0.4537,-38.3172 -0.4409,-50.33 0.054,-51.1381 0.5847,-0.9537 -2.6166,-20.8431 -4.242,-26.3553 -0.5665,-1.9214 -1.0301,-7.8981 -1.0301,-13.2815 0,-7.2482 -0.5363,-11.3804 -2.0669,-15.9237 -1.1367,-3.3745 -2.2906,-8.4228 -2.5641,-11.2184 -0.8856,-9.0526 -1.0188,-9.2791 -7.4847,-12.7254 -6.1267,-3.2655 -7.3078,-4.7955 -9.5392,-12.3576 -1.1095,-3.7599 -4.3698,-4.4123 -7.9552,-1.592 -2.0393,1.6041 -3.0282,1.8208 -4.5624,0.9996 -2.7906,-1.4934 -5.8275,-9.2417 -5.8275,-14.8681 0,-5.8222 -1.645,-7.6769 -4.8303,-5.4458 -5.6329,3.9454 -11.0887,-0.7936 -12.2497,-10.6404 -0.3945,-3.3462 -0.9651,-6.3318 -1.2679,-6.6346 -0.3028,-0.3028 -2.0359,-0.8519 -3.8513,-1.2202 -2.7523,-0.5584 -3.3446,-1.1622 -3.5648,-3.6341 -0.6045,-6.7858 -1.4063,-9.3561 -3.6859,-11.8159 -2.1469,-2.3165 -2.7366,-2.4794 -5.4952,-1.5178 -8.0674,2.8123 -11.1655,-1.7446 -11.9864,-17.6307 -0.5562,-10.7637 -1.1965,-13.5 -3.1589,-13.5 -1.9488,0 -2.1219,3.1905 -0.3514,6.478 1.5385,2.857 1.6089,3.6157 0.4635,4.9959 -2.194,2.6436 -6.1538,1.4874 -8.4728,-2.4739 -1.7364,-2.9662 -2.0647,-5.3303 -2.1529,-15.5 l -0.1041,-12 -2.3959,0.1986 c -4.3407,0.3598 -6.8401,-0.6893 -8.2507,-3.4631 -1.8017,-3.5429 -3.6453,-14.3886 -3.6453,-21.445 0,-7.0577 -1.5717,-8.7087 -6.5697,-6.9014 -4.8945,1.7698 -7.3214,0.6113 -9.6241,-4.5945 -1.8475,-4.1766 -2.2112,-4.4636 -4.9587,-3.9141 -2.3198,0.464 -3.5138,0.044 -5.4881,-1.9302 -2.3766,-2.3767 -2.4863,-2.9421 -1.8889,-9.7367 0.5896,-6.7049 0.4259,-7.6006 -2.3207,-12.7006 -2.5549,-4.744 -3.4703,-5.594 -6.7604,-6.2775 -4.4101,-0.9163 -5.353,-2.0398 -5.374,-6.4037 -0.028,-5.7552 -0.7274,-6.4389 -5.8873,-5.7544 -7.2795,0.9657 -8.341,-0.8436 -9.0844,-15.4833 -0.5986,-11.7893 -1.6126,-15.0941 -4.6313,-15.0941 -0.7385,0 -2.8803,-1.35 -4.7596,-3 -2.4411,-2.1434 -4.4433,-3 -7.0117,-3 -5.7625,0 -7.0329,-2.9112 -6.4553,-14.7928 0.6342,-13.0448 0.4366,-13.6757 -3.1579,-10.0812 -3.4296,3.4296 -4.9035,3.5702 -7.9245,0.7557 -1.9776,-1.8424 -2.2301,-2.917 -1.9385,-8.25 l 0.3352,-6.1317 -3.496,-0.3317 c -5.3548,-0.5081 -6.004,-1.5668 -6.004,-9.7907 l 0,-7.3776 -3,0 c -5.6435,0 -8.9832,-6.1974 -8.9944,-16.691 -0.01,-5.6243 -0.4846,-6.2621 -5.1402,-6.8513 -4.0428,-0.5117 -5.8654,-2.1313 -5.8654,-5.2121 0,-1.3802 -0.861,-3.9126 -1.9132,-5.6276 -1.4799,-2.4118 -1.959,-5.2698 -2.1155,-12.618 -0.1112,-5.225 0.1403,-11.6999 0.5589,-14.3886 l 0.7611,-4.8886 -3.5071,0.6579 c -4.6446,0.8713 -6.1835,-1.0562 -6.3931,-8.0078 -0.1276,-4.2337 -0.7742,-6.1841 -3.0267,-9.1285 -2.6966,-3.525 -2.8499,-4.2424 -2.616,-12.2444 0.3365,-11.516 -0.01,-12.6389 -4.1386,-13.4134 -1.8749,-0.3517 -3.9218,-1.2576 -4.5487,-2.013 -1.4989,-1.806 -2.108,-16.0267 -0.8952,-20.8999 1.0504,-4.2206 -0.1014,-6.6737 -3.1334,-6.6737 -3.6468,0 -5.2613,-3.4566 -4.9958,-10.6963 0.3354,-9.1453 0.2961,-9.3037 -2.3142,-9.3037 -5.0167,0 -6.3946,-2.2625 -6.9672,-11.4406 -0.3707,-5.9425 -0.1078,-9.7598 0.8671,-12.5895 1.5937,-4.6256 0.5351,-7.9699 -2.5227,-7.9699 -1.0065,0 -3.0591,-0.9668 -4.5614,-2.1485 -2.6675,-2.0983 -2.7189,-2.3379 -2.2004,-10.25 0.292,-4.4558 0.8273,-9.5016 1.1896,-11.2129 0.5335,-2.5195 0.1732,-3.5969 -1.8937,-5.6639 -3.707,-3.707 -4.0882,-6.6548 -2.6715,-20.6584 0.6992,-6.9115 1.3312,-17.2198 1.4045,-22.9074 0.1314,-10.2012 0.097,-10.3625 -2.5316,-11.9153 -3.4386,-2.03125 -4.8352,-5.20446 -4.8352,-10.98593 0,-3.56226 -0.5699,-5.24509 -2.4391,-7.20295 -2.1506,-2.25244 -2.6186,-4.21121 -3.9555,-16.55472 -0.834,-7.7 -1.4736,-15.35 -1.4214,-17 0.3026,-9.56447 -0.6483,-22.53971 -1.9054,-26 -1.1436,-3.14787 -1.3813,-8.47369 -1.1159,-25 l 0.3373,-21 -2.6768,-0.30936 c -1.4723,-0.17015 -3.236,-0.98315 -3.9195,-1.80668 -1.5265,-1.83932 -2.0848,-34.59395 -0.7051,-41.36416 0.8638,-4.23833 0.7531,-4.61623 -2.0505,-7 -3.9218,-3.3345 -4.304,-5.00928 -4.2904,-18.79984 0.01,-8.94077 -0.3585,-12.29081 -1.5492,-14.12725 -2.5924,-3.99848 -4.5543,-31.51083 -3.2864,-46.08615 l 0.4779,-5.49345 -3.2687,0.32078 c -2.9558,0.29006 -3.4228,-0.0457 -4.8776,-3.50656 -1.2823,-3.05061 -1.4847,-5.85674 -0.9972,-13.82733 0.8038,-13.14411 -1.3715,-24.59516 -5.5182,-29.04761 -1.5651,-1.68049 -2.8383,-4.18129 -2.8383,-5.57484 0,-5.78421 -10.0082,-30.01516 -13.5961,-32.91775 -2.828,-2.28778 -12.8981,-6.52318 -21.4039,-9.00227 -4.125,-1.20227 -10.875,-3.4309 -15,-4.95251 -4.125,-1.52162 -9.975,-3.29594 -13,-3.94294 -3.025,-0.647 -7.3,-1.61984 -9.5,-2.16186 -2.2,-0.54202 -7.375,-1.39426 -11.5,-1.89386 -4.125,-0.4996 -14.7,-3.00334 -23.5,-5.56386 -8.8,-2.56053 -17.7343,-5.07035 -19.8539,-5.57739 -2.1197,-0.50704 -10.9215,-4.43572 -19.5595,-8.7304 -8.6381,-4.29467 -17.2538,-8.11463 -19.1461,-8.48878 -3.4158,-0.67539 -10.0823,-2.61198 -25.4405,-7.39038 -4.4,-1.36896 -10.925,-3.72955 -14.5,-5.24574 -13.9381,-5.91148 -20.1887,-8.00981 -23.8594,-8.00981 -2.1012,0 -7.5129,-1.27953 -12.0261,-2.84341 -7.0914,-2.45726 -8.9125,-2.72633 -13.4099,-1.9813 -2.8622,0.47415 -9.7041,0.77199 -15.2041,0.66186 -5.5,-0.11013 -14.6357,0.40775 -20.3015,1.15084 -10.4247,1.36723 -26.8519,0.58977 -45.1967,-2.13905 -8.3707,-1.24515 -11.3619,-3.75614 -10.5075,-8.82064 0.3575,-2.11903 -0.022,-5.27605 -0.9495,-7.90403 -0.8496,-2.40665 -1.5448,-6.08234 -1.5448,-8.16821 0,-5.56538 -0.7896,-6.82232 -4.9977,-7.95543 -6.8755,-1.85138 -14.7266,-12.19888 -11.0023,-14.50063 1.4577,-0.90092 1.1578,-6.60003 -0.5,-9.5 -2.09230003,-3.66005 -1.81010003,-7.45416 0.8453,-11.36713 1.2899,-1.90078 2.8989,-5.63326 3.5755,-8.29441 0.6767,-2.66115 1.8713,-6.31623 2.6548,-8.12239 0.7834,-1.80616 1.4244,-4.14293 1.4244,-5.19284 0,-1.0499 0.8564,-3.39713 1.9031,-5.21607 1.0467,-1.81894 2.193,-4.65716 2.5473,-6.30716 0.3543,-1.65 1.1854,-3.68196 1.8469,-4.51546 4.9826,-6.2783 25.4344,-16.6624 35.6534,-18.10247 11.1049,-1.56491 31.3017,-7.25649 35.1174,-9.89627 1.4124,-0.97717 5.6874,-2.96362 9.5,-4.41432 3.8125,-1.45071 10.3069,-4.37916 14.4319,-6.50768 4.125,-2.12851 10.3498,-4.65839 13.8329,-5.62194 4.1183,-1.13929 8.6643,-3.45435 13,-6.62024 3.6669,-2.67758 8.4671,-5.33799 10.6671,-5.91202 9.3652,-2.44361 27.2795,-9.23746 31.1932,-11.82978 2.3297,-1.5431 6.9036,-3.33051 10.1644,-3.97202 3.2608,-0.64152 7.8793,-2.47643 10.2633,-4.07757 2.3841,-1.60114 4.5909,-2.49653 4.9041,-1.98974 0.6192,1.0018 8.0847,-1.56606 14.9375,-5.13796 2.3361,-1.21765 6.5627,-2.76915 9.3925,-3.44778 13.0666,-3.13362 37.8769,-10.76895 47.3399,-14.56875 2.6182,-1.05131 3.6423,-1.0435 5.673,0.0433 4.7367,2.53502 12.5194,-1.58561 15.818,-8.37496 2.4003,-4.94058 7.4648,-8.19626 20.1804,-12.97291 3.8765,-1.45621 10.1902,-5.0835 14.5,-8.33037 4.1985,-3.16308 10.1087,-6.80026 13.1337,-8.08263 13.2404,-5.61294 18.0141,-7.36584 26.1167,-9.59006 4.7392,-1.30095 9.4815,-2.82813 10.5383,-3.39374 1.0569,-0.56562 8.6544,-2.65482 16.8833,-4.64267 15.5949,-3.76724 26.8125,-6.52943 34.4617,-8.48572 5.3689,-1.37309 17.0074,-2.65673 34.0267,-3.75288 13.6654,-0.88013 55.9982,-0.6899 62.6403,0.28148 3.8176,0.55831 4.5303,0.28404 8.5,-3.27112 6.5258,-5.84436 15.0034,-12.047809 18.0446,-13.204059 1.5778,-0.59987 3.5473,-2.67688 4.7222,-4.97999 1.1086,-2.17302 5.209,-6.80365 9.112,-10.2903 3.903,-3.48665 9.3191,-9.58857 12.0358,-13.55982 5.5519,-8.11572 7.6997,-9.65516 13.1715,-9.44075 3.1526,0.12353 4.5451,-0.53335 8.1243,-3.83259 4.3855,-4.04235 10.0552,-7.0062 13.4027,-7.0062 1.0144,0 4.5859,-2.0372 7.9365,-4.52711 5.548,-4.12275 6.4504,-4.46983 10.103,-3.88575 3.7209,0.59501 4.1228,0.42487 5.5597,-2.35377 2.236,-4.32389 6.7529,-7.77747 16.7176,-12.78202 11.211,-5.63051 22.7334,-8.7999 28.906,-7.95095 3.6045,0.49575 5.0831,0.23063 7.0308,-1.26064 2.1495,-1.64585 12.156,-4.80193 21.44,-6.76225 1.6355,-0.34535 7.4855,-1.01774 13,-1.49422 6.8662,-0.59326 11.9341,-1.66014 16.0793,-3.38497 3.8237,-1.59107 8.9798,-2.74584996 14,-3.13554996 7.0092,-0.54409 8.419,-0.35665 11.947,1.58843996 2.2,1.21293 5.8,2.48618 8,2.82945 l 4,0.62413 0,5.63547 c 0,3.96106 0.52,6.21214 1.75,7.57635 0.9625,1.06748 1.75,2.82984 1.75,3.91635 0,3.12907 -5.2871,10.64219 -10.8745,15.45295 -4.1308,3.55662 -5.522,5.60127 -7.1615,10.52544 -1.1191,3.36124 -3.623,7.96686 -5.5642,10.23471 -2.7596,3.22395 -3.6034,5.1628 -3.8683,8.88865 -0.1863,2.62091 -0.6652,6.89916 -1.0643,9.50722 -1.0296,6.72965 -0.1664,7.35932 11.236,8.19631 5.3265,0.39099 10.8348,1.29913 12.2407,2.01808 5.1774,2.64769 10.7571,2.89162 14.4161,0.63022 4.531,-2.80034 6.9453,-2.62965 10.8552,0.76745 4.0836,3.54804 13.5623,7.14601 18.8259,7.14601 2.1814,0 5.6454,0.9 7.6977,2 2.3684,1.2694 5.6421,2 8.9616,2 4.3437,0 5.7891,0.490879 8.5291,2.896679 1.8146,1.59317 6.9776,4.31523 11.4735,6.04902 7.2848,2.80932 8.2938,3.51469 9.2733,6.4824 1.5334,4.64634 3.7561,6.32942 10.0645,7.62102 6.3479,1.29968 16.9301,7.97707 19.5001,12.30461 1.614,2.71789 1.6009,2.97968 -0.2758,5.5 -1.5005,2.01501 -3.1243,2.78151 -6.8068,3.21321 -2.66,0.31181 -5.0053,1.07401 -5.2119,1.69377 -0.2066,0.61976 -1.584,2.7117 -3.061,4.64875 -1.477,1.93705 -3.4939,4.66236 -4.4821,6.05623 -1.4103,1.98934 -2.6553,2.53431 -5.7898,2.53431 -5.6854,0 -11.5898,3.28948 -13.3148,7.41799 -1.1989,2.86937 -2.3019,3.66483 -7.2563,5.23288 l -5.8424,1.84912 -0.3189,4.48357 c -0.1754,2.46597 -0.8504,4.82158 -1.5,5.23469 -0.6496,0.41311 -3.8289,0.75801 -7.0651,0.76643 -7.0022,0.0182 -12.9637,1.6371 -15.2234,4.13395 -1.5356,1.69689 -1.4768,1.88589 0.9289,2.98199 3.2543,1.48274 3.5965,2.44724 2.9388,8.28227 -0.6914,6.13399 -3.3359,8.09412 -9.919,7.35211 -4.3353,-0.48866 -4.8416,-0.28697 -8.2304,3.27905 -3.6336,3.82366 -12.6901,7.4684 -15.6936,6.31584 -0.7435,-0.2853 -4.1384,0.87375 -7.5443,2.57568 -4.6777,2.33747 -7.5426,3.09442 -11.7117,3.09442 -3.0356,0 -6.9013,0.40138 -8.5903,0.89197 -7.4014,2.14971 -21.4389,6.49318 -25.5237,7.89747 -2.449,0.84193 -8.299,1.62303 -13,1.73579 -4.701,0.11275 -13.4973,0.74425 -19.5473,1.40332 -7.663,0.83479 -14.4609,0.92014 -22.4081,0.28134 -7.2298,-0.58113 -12.8068,-0.56194 -15.227,0.0524 -2.1004,0.53314 -4.5043,0.70636 -5.3419,0.38493 -1.7058,-0.65458 -2.0655,-4.19391 -0.523,-5.14719 2.5383,-1.56875 0.4394,-2.46825 -5.75,-2.46422 -3.7125,0.002 -8.775,-0.11714 -11.25,-0.26569 -4.0049,-0.24037 -4.5352,-0.022 -4.8201,1.98438 -0.4031,2.83862 2.1491,3.94259 5.2626,2.27632 2.7777,-1.48658 5.3434,-0.41256 10.3658,4.3392 5.1804,4.9013 14.1917,24.97592 14.1917,31.61519 0,3.09562 6.0012,22.09154 8.3766,26.51482 0.8861,1.65 1.6138,5.10821 1.6172,7.6849 0,2.5767 0.4971,5.9517 1.0971,7.5 0.6001,1.54831 2.3513,8.8901 3.8917,16.3151 1.5404,7.425 4.0283,18 5.5287,23.5 1.5004,5.5 3.1073,11.89491 3.5708,14.21092 0.4636,2.31601 1.5255,6.84506 2.3597,10.06457 0.8343,3.2195 1.9746,10.77459 2.5342,16.78908 1.8467,19.8505 2.8651,28.81427 4.4437,39.11123 1.3541,8.83275 2.3211,19.55988 4.0409,44.8242 0.2246,3.3 0.6584,8.025 0.9639,10.5 0.3055,2.475 1.2461,12.15 2.0901,21.5 1.9694,21.81693 3.2002,29.28453 5.4388,32.99968 2.5592,4.24719 6.6381,20.30781 8.0001,31.50032 0.6358,5.225 1.6142,13.30554 2.1742,17.95675 0.56,4.65121 1.6096,9.87204 2.3323,11.60185 0.7228,1.7298 1.6256,5.12427 2.0062,7.54325 0.3806,2.41898 2.4606,8.98755 4.6223,14.59682 3.6908,9.5771 5.0988,12.32757 13.0802,25.55133 1.7428,2.8875 5.0053,8.4 7.25,12.25 2.2447,3.85 5.2732,8.01412 6.7299,9.2536 1.4568,1.23948 6.5955,6.86448 11.4193,12.5 11.9797,13.99547 11.7087,13.78123 15.8354,12.5147 2.8963,-0.88891 3.9402,-0.71912 6.9266,1.12658 6.7196,4.15291 17.8048,7.24689 31.6613,8.83689 21.5367,2.47128 29.5809,2.68134 32.2083,0.84105 1.3496,-0.94533 4.3391,-1.57282 7.4931,-1.57282 4.6462,0 5.4964,-0.33661 7.4192,-2.93741 1.1945,-1.61557 3.4272,-3.45742 4.9616,-4.09299 3.128,-1.29567 19.5874,-0.79642 29.4061,0.89196 l 5.9795,1.02821 3.0404,-3.31941 c 3.2462,-3.54401 8.6946,-4.94926 17.7222,-4.57089 12.5385,0.52551 20.3005,-0.5821 30.5764,-4.36317 6.37,-2.34385 27.4078,-5.52535 41.40886,-6.26218 15.5311,-0.81734 12.6345,-0.857 37.7931,0.51736 43.1827,2.35898 56.8244,3.81292 76.5,8.15338 2.2,0.48532 7.375,1.16917 11.5,1.51967 8.8817,0.75466 8.5373,-0.66027 -0.6161,-2.531 -8.5587,-1.74918 -9.4233,-2.42705 -6.6462,-5.21049 2.3631,-2.36853 3.4008,-2.28596 12.7623,1.01538 17.4808,6.16465 39.1517,10.95201 44.1098,9.74436 7.0228,-1.71057 8.495,-1.63669 16.2588,0.8159 4.4941,1.41969 9.1988,3.25459 10.4548,4.07754 3.7492,2.45659 13.7097,5.52378 17.938,5.52378 3.8911,0 19.0372,2.60085 31.7386,5.45007 9.9334,2.22828 18.1802,3.34042 33.5,4.51765 7.7,0.5917 19.175,1.53835 25.5,2.10368 12.7258,1.13743 46.5902,1.45923 49.0937,0.46652 0.8765,-0.34757 4.418,-0.1771 7.8699,0.37881 4.1231,0.66401 7.8645,0.67695 10.9063,0.0377 2.5465,-0.53517 15.6551,-1.11996 29.1301,-1.29952 25.112,-0.33463 28.4963,-0.7039 56.5,-6.16471 16.4306,-3.20401 17.6878,-3.34065 37,-4.02142 9.35,-0.32959 19.7,-1.04042 23,-1.57964 3.3,-0.53921 10.95,-1.64691 17,-2.46157 6.05,-0.81465 13.475,-2.10174 16.5,-2.86019 3.025,-0.75845 8.2,-1.67508 11.5,-2.03696 3.3,-0.36187 10.275,-1.27202 15.5,-2.02255 12.1152,-1.74027 39.1207,-3.62724 49.5,-3.45875 4.4,0.0714 16.0039,-0.59737 25.7865,-1.48622 13.7131,-1.24598 19.6615,-1.38099 25.9738,-0.5895 4.503,0.56463 12.3309,1.0266 17.3954,1.0266 9.0305,0 9.2482,-0.0562 11.2841,-2.91542 1.8835,-2.6452 2.7935,-2.98275 9.8181,-3.64192 4.2581,-0.39958 12.2421,-0.83359 17.7421,-0.96447 5.5,-0.13087 15.4062,-0.72285 22.0138,-1.3155 7.838,-0.70301 14.2683,-0.75175 18.5,-0.14023 3.5674,0.51553 8.6237,0.94637 11.2362,0.95743 4.7433,0.0201 6.8304,1.24363 9.25,5.42284 1.2997,2.24484 19.1661,4.55151 36,4.64783 6.6,0.0378 14.25,0.51124 17,1.05216 2.75,0.54092 9.05,1.38465 14,1.87496 4.95,0.49031 11.4606,1.59591 14.4679,2.45689 3.0074,0.86099 7.2824,1.59535 9.5,1.63193 2.2177,0.0366 8.3071,0.72365 13.5321,1.52685 5.225,0.8032 14.225,2.07006 20,2.81524 17.8201,2.29942 38.1462,6.10288 49.634,9.28758 5.3063,1.47103 6.6772,1.52125 10.159,0.37215 3.4517,-1.13916 4.9994,-1.09617 10.866,0.3018 3.7625,0.89659 11.791,2.08179 17.841,2.63378 6.05,0.55199 16.175,1.47847 22.5,2.05884 6.325,0.58037 13.975,1.6629 17,2.40563 3.025,0.74272 9.1,1.63364 13.5,1.97981 15.4645,1.21669 22.678,2.44244 38.1196,6.47748 2.2658,0.59207 5.5708,0.78626 7.3444,0.43154 1.806,-0.3612 6.373,0.0586 10.3804,0.95406 3.9356,0.87946 9.8556,2.05293 13.1556,2.60772 8.4342,1.41793 19.5425,3.89133 22.5,5.0099 1.375,0.52005 6.55,2.14125 11.5,3.60267 32.0551,9.4638 42.5364,14.00292 61.6688,26.70661 7.8822,5.23366 17.6542,12.72112 21.7156,16.63879 4.0615,3.91768 7.7336,7.12305 8.1602,7.12305 0.4267,0 2.9537,1.70092 5.6156,3.77983 2.6619,2.0789 8.2148,5.91384 12.3398,8.52208 7.6114,4.81266 14.0953,9.19386 28.5,19.25746 4.4,3.074 10.5566,7.2432 13.6813,9.2649 7.4453,4.817 35.5362,23.9232 39.0979,26.5927 1.5286,1.1457 5.3536,4.1387 8.5,6.6512 3.1464,2.5125 9.5458,7.1673 14.2208,10.3441 4.675,3.1768 9.85,7.035 11.5,8.5738 6.9164,6.4502 35.0362,25.7465 40.6047,27.8636 1.4292,0.5434 7.0528,3.6316 12.4969,6.8628 5.4441,3.2312 11.9234,6.6756 14.3984,7.6543 2.475,0.9788 9.3029,4.4466 15.1731,7.7064 5.8703,3.2597 10.9087,5.9268 11.1965,5.9268 0.2878,0 3.3599,1.6875 6.8268,3.75 6.0944,3.6255 6.6687,3.7621 17.3036,4.1139 32.1165,1.0624 46.8806,-0.1302 60,-4.8465 9.1164,-3.2773 26.4977,-8.0174 29.3984,-8.0174 3.583,0 5.7202,2.3434 4.4938,4.9276 -0.4907,1.0341 -2.7927,3.4528 -5.1156,5.375 -3.47,2.8714 -5.343,3.6144 -10.5,4.165 -3.4521,0.3685 -7.7389,1.1239 -9.5261,1.6786 l -3.2496,1.0086 2.8469,2.8468 c 1.5657,1.5658 3.395,4.1704 4.0651,5.7882 1.1785,2.845 1.4212,2.9345 7.4028,2.7293 3.4013,-0.1167 8.6593,-0.7669 11.6843,-1.4451 6.622,-1.4845 10.4468,-0.3823 12.2263,3.5234 1.0705,2.3495 0.9347,2.8538 -1.2442,4.6181 -1.9975,1.6175 -3.3289,1.8635 -7.2622,1.3417 -4.7219,-0.6264 -16.3369,1.0141 -17.2127,2.4312 -0.3622,0.5861 1.2601,6.412 2.2019,7.9075 0.1371,0.2177 3.0107,-0.8433 6.3856,-2.3579 5.0322,-2.2583 6.5653,-2.5583 8.5208,-1.6673 5.8582,2.6691 0.9183,10.4041 -7.3935,11.5769 -7.3839,1.0419 -8.128,1.4478 -10.2388,5.5853 -2.8527,5.5917 -2.5217,6.0928 2.5439,3.8521 4.9207,-2.1767 8.0427,-1.8159 8.9472,1.0341 0.8078,2.5449 -0.9297,6.5947 -3.6647,8.5421 -7.9965,5.6935 -20.8816,12.9963 -25.6817,14.5555 -15.0034,4.8735 -23.9691,6.9833 -29.6757,6.9833 -3.3738,0 -9.7086,0.481 -14.0772,1.069 l -7.943,1.0689 -16.681,-5.5689 c -15.9213,-5.3154 -21.751,-6.5815 -21.751,-4.724 0,1.9446 10.5101,7.9492 17,9.7124 3.2773,0.8903 6,3.3397 6,5.3976 0,6.7982 -13.6004,4.8227 -23.1658,-3.3649 -4.4841,-3.8382 -11.0666,-7.3261 -20.9127,-11.0812 -8.7114,-3.3224 -9.7235,-3.2482 -10.1081,0.7411 -0.2769,2.8716 -0.6989,3.287 -3.6243,3.5679 -2.2395,0.215 -5.8938,-0.8942 -11.2932,-3.428 -7.7966,-3.6587 -8.0983,-3.7161 -12.9639,-2.4691 -6.2474,1.6011 -6.5876,1.3962 -19.6619,-11.8437 -10.1807,-10.3095 -12.9584,-11.9065 -17.6242,-10.1326 -3.6454,1.386 -8.6153,1.2848 -11.2927,-0.2299 -1.1807,-0.668 -5.0652,-4.3744 -8.6323,-8.2364 -3.567,-3.8619 -9.7194,-9.7119 -13.672,-13 -6.3363,-5.271 -7.7697,-7.1423 -12.1177,-15.8187 -2.7121,-5.4123 -4.9312,-10.4864 -4.9312,-11.2757 0,-1.911 -14.8238,-31.8074 -18.2796,-36.8659 -1.4962,-2.1902 -2.7204,-4.9871 -2.7204,-6.2152 0,-1.2282 -1.2791,-3.7113 -2.8424,-5.5179 -2.842,-3.2844 -12.1576,-21.1577 -12.1576,-23.3261 0,-1.8827 -3.806,-4.7471 -5.4628,-4.1114 -2.1823,0.8375 -1.907,3.9812 0.8263,9.4359 1.2999,2.5943 2.9356,6.5168 3.6349,8.7168 0.6992,2.2 2.3138,5.8023 3.588,8.0051 1.2741,2.2028 3.1646,6.7028 4.201,10 1.0363,3.2972 3.0831,7.7452 4.5484,9.8844 1.4653,2.1393 2.6642,4.6223 2.6642,5.5179 0,0.8956 1.149,3.3192 2.5533,5.3859 1.4044,2.0667 3.2233,5.6562 4.042,7.9769 0.8188,2.3206 3.3795,7.1214 5.6905,10.6684 3.684,5.6545 4.221,7.2037 4.3578,12.572 0.1042,4.0902 0.8591,7.4284 2.2742,10.056 1.9205,3.5663 2.0614,4.96 1.5099,14.9334 -0.4528,8.1865 -0.2493,12.0231 0.7954,15 1.95,5.5562 1.3955,6.8455 -4.2708,9.9295 -4.334,2.3588 -4.9529,3.0933 -4.9572,5.8829 0,1.7532 0.7509,5.2967 1.6748,7.8745 1.4789,4.1264 1.5203,5.3519 0.3459,10.2474 -1.0699,4.4595 -1.092,6.3679 -0.1121,9.6388 0.6721,2.2431 0.9626,5.2818 0.6457,6.7526 -0.3169,1.4709 -0.1099,4.2493 0.46,6.1743 0.5699,1.925 1.7402,6.8645 2.6007,10.9766 l 1.5644,7.4765 -2.8372,2.2314 c -1.5605,1.2273 -4.0486,3.4522 -5.5291,4.9442 -2.2692,2.2867 -2.9366,2.5096 -4.25,1.4196 -0.857,-0.7113 -1.5625,-2.4756 -1.5677,-3.9207 -0.01,-2.4162 -0.2143,-2.2857 -2.5566,1.6224 -1.401,2.3375 -2.9718,4.25 -3.4906,4.25 -1.6616,0 -1.0401,1.9641 3.5339,11.1692 3.5619,7.1684 4.5248,10.217 4.7103,14.913 0.218,5.5207 0,6.146 -3.294,9.6603 -3.2924,3.5075 -3.4621,4.0025 -2.5506,7.4393 0.7906,2.9809 0.6414,4.1932 -0.784,6.3687 -1.5821,2.4146 -2.214,2.6358 -6.235,2.1825 -3.5607,-0.4013 -4.5761,-0.1703 -4.9722,1.1314 -0.2737,0.8996 -1.1407,3.1152 -1.9266,4.9235 -1.3121,3.0192 -1.2597,3.5168 0.642,6.089 2.7426,3.7096 4.0195,9.5742 3.3058,15.1833 -0.4475,3.517 -0.099,5.4581 1.5234,8.4852 1.1571,2.1587 2.1037,5.3315 2.1037,7.0506 0,1.7192 0.874,8.8192 1.9422,15.778 1.7732,11.5516 1.8118,13.0915 0.4428,17.7014 -1.8526,6.2384 -3.9165,6.2525 -6.3409,0.043 l -1.7107,-4.3812 -1.2745,4.5522 c -1.4871,5.3115 -1.0892,6.253 3.4431,8.1467 3.9894,1.6669 6.7406,6.404 6.3066,10.8592 -0.4624,4.7469 -4.1143,5.6806 -11.8118,3.0199 -3.2982,-1.14 -5.9968,-1.712 -5.9968,-1.2711 0,0.441 -1.3846,2.1864 -3.0769,3.8787 l -3.0769,3.0769 2.5043,0 c 3.2334,0 6.9234,4.5058 6.066,7.4071 -1.2692,4.295 -5.7563,5.4621 -13.3086,3.4616 -1.1038,-0.2923 -1.3673,1.1435 -1.2721,6.931 0.073,4.4131 -0.4934,8.9607 -1.4313,11.5 -1.8111,4.9035 -1.8026,4.6608 -0.4017,11.4362 1.7702,8.561 -1.849,12.6087 -8.7103,9.7418 -3.4776,-1.453 -3.8464,-1.4406 -5.0229,0.1682 -0.6983,0.955 -1.2696,3.1639 -1.2696,4.9087 0,4.6072 -1.8626,13.708 -3.0481,14.8935 -0.5602,0.5602 -3.8989,1.026 -7.4195,1.0352 -5.7252,0.015 -6.7287,0.3306 -9.5035,2.989 -4.0479,3.8781 -4.5419,6.2552 -2.5274,12.1613 1.8412,5.3978 1.4752,10.2505 -1.1957,15.8513 -1.5965,3.3479 -1.5781,3.7584 0.3918,8.7638 2.4534,6.2341 5.9585,18.6424 6.8504,24.2513 0.3498,2.2 1.88,7.6 3.4003,12 5.6452,16.3378 8.1118,25.1002 8.0822,28.7111 -0.024,2.899 0.9019,4.8684 4.2308,9 2.3436,2.9089 4.9927,6.4328 5.8867,7.8308 0.894,1.3981 5.655,6.5731 10.58,11.5 4.925,4.927 10.2468,10.9831 11.8262,13.4581 1.5794,2.475 4.4633,6.3537 6.4087,8.6192 1.9454,2.2656 5.3371,7.1527 7.5371,10.8602 2.2,3.7075 5.35,8.1906 7,9.9624 1.65,1.7718 4.8,5.6025 7,8.5126 3.1243,4.1328 16.6923,18.99 21.2403,23.2586 0.4178,0.3921 7.0597,6.5826 14.7597,13.7565 27.375,25.5046 26.67,24.4515 30.1462,45.0305 0.8827,5.225 2.3881,11.075 3.3455,13 2.8158,5.6619 6.9214,28.5004 6.1954,34.4633 -0.1315,1.0797 0.4219,4.2297 1.2297,7 0.8079,2.7702 1.9822,11.5617 2.6097,19.5367 1.2962,16.4737 1.5208,18.7324 2.4882,25.0261 0.4716,3.0681 0.1787,6.2673 -0.9095,9.9315 -0.9938,3.3468 -1.6052,9.1156 -1.6052,15.1472 0,8.9913 -0.1971,9.976 -2.5581,12.7819 l -2.5581,3.0401 1.1617,10.7866 c 1.4345,13.3191 1.4736,14.1459 2.3526,49.7866 0.3934,15.95 1.173,31.925 1.7324,35.5 0.5595,3.575 1.2025,15.95 1.4289,27.5 0.2263,11.55 0.623,31.923 0.8814,45.2733 0.2585,13.3503 0.7409,24.7116 1.072,25.2475 0.3312,0.5358 0.831,5.5878 1.1108,11.2267 0.2797,5.6389 0.6755,12.7275 0.8794,15.7525 0.2039,3.025 0.6163,10.225 0.9164,16 0.3001,5.775 1.0036,13.65 1.5633,17.5 0.5597,3.85 1.4564,12.85 1.9925,20 1.1379,15.1731 1.6251,18.8525 3.5877,27.0917 1.9133,8.0322 1.6342,15.4746 -0.8734,23.2886 -2.1731,6.7718 -2.0106,10.0423 1.4461,29.1197 0.6477,3.575 1.1321,9.425 1.0764,13 -0.056,3.575 -0.1181,8.5513 -0.1384,11.0585 -0.028,3.496 -0.5995,5.0869 -2.4505,6.8259 -2.1345,2.0052 -2.846,2.1481 -6.1524,1.2351 -2.9473,-0.8138 -4.3701,-0.7058 -6.7215,0.5102 -3.4298,1.7736 -3.1776,1.829 -15.7492,-3.4623 -5.225,-2.1991 -9.893,-3.621 -10.3733,-3.1596 -0.4803,0.4614 -1.0111,3.6038 -1.1794,6.9833 -0.3235,6.4944 -1.2392,8.4698 -6.4186,13.8476 -2.2425,2.3283 -3.0515,3.966 -2.6735,5.4116 0.7314,2.7971 -0.8236,5.4234 -4.2647,7.2029 -2.4522,1.2681 -3.0287,2.4219 -4.1279,8.2604 -3.4173,18.1522 -25.0809,32.2864 -49.4857,32.2864 -6.0398,0 -7.7316,0.3571 -9.2098,1.9437 -2.8326,3.0404 -8.3277,3.6027 -28.7671,2.9437 -20.4017,-0.6578 -37.222,-2.4118 -39.2475,-4.0928 -0.6889,-0.5717 -1.2525,-2.4585 -1.2525,-4.1929 0,-2.7336 -0.5658,-3.4163 -4.25,-5.1276 -3.4655,-1.6097 -4.3048,-2.5336 -4.547,-5.0051 -0.261,-2.6629 1.0139,-4.3697 10.5,-14.0568 9.4265,-9.6263 17.2197,-18.0577 27.9076,-30.1929 1.5892,-1.8044 5.8144,-5.1821 9.3894,-7.506 5.5743,-3.6235 6.5452,-4.6949 6.8174,-7.5232 0.2688,-2.7929 1.3407,-4.017 7,-7.994 3.6754,-2.5829 8.9326,-7.0148 11.6826,-9.8488 5.0423,-5.1962 7.9933,-6.5988 16.3966,-7.793 2.4181,-0.3436 6.6086,-1.5764 9.3123,-2.7395 2.7036,-1.1631 6.1007,-2.1597 7.549,-2.2147 2.6214,-0.1 2.6336,-0.1381 2.6877,-8.4377 0.048,-7.4039 0.3064,-8.5417 2.3044,-10.1603 2.3633,-1.9145 2.9409,-4.457 1.25,-5.5021 -1.8388,-1.1364 -1.0286,-7.286 2.0654,-15.6775 4.8511,-13.1567 5.954,-20.1286 5.4662,-34.5513 -0.2377,-7.0242 -1.0812,-16.1462 -1.8746,-20.2712 -1.0327,-5.3697 -1.331,-12.4266 -1.0501,-24.8449 0.2158,-9.5396 0.6255,-17.7222 0.9106,-18.1833 0.285,-0.4612 0.5859,-11.106 0.6687,-23.6552 0.1062,-16.1083 -0.2221,-23.9381 -1.1167,-26.6312 -0.7596,-2.2863 -1.0031,-5.4914 -0.608,-8 0.3626,-2.302 0.7137,-5.7604 0.7802,-7.6854 0.2349,-6.8035 -3.047,-30.5801 -5.0381,-36.5 -1.11,-3.3 -2.2926,-8.7 -2.628,-12 -0.9037,-8.89 -1.6109,-13.5687 -2.6775,-17.7137 -0.5256,-2.0425 -1.8355,-8.5028 -2.9109,-14.3562 -1.1231,-6.1124 -2.8648,-12.114 -4.0919,-14.0995 -1.5993,-2.5878 -1.9872,-4.3771 -1.5426,-7.1168 0.3267,-2.0129 0.1955,-5.247 -0.2915,-7.1868 -0.487,-1.9399 -1.3975,-6.452 -2.0233,-10.027 -0.6258,-3.575 -1.9788,-10.1 -3.0066,-14.5 -1.0278,-4.4 -2.4012,-12.5 -3.052,-18 -0.6509,-5.5 -2.2155,-15.175 -3.477,-21.5 -1.2615,-6.325 -2.6094,-14.2 -2.9955,-17.5 -0.386,-3.3 -1.3439,-7.5435 -2.1286,-9.43 -2.1751,-5.2297 -4.1942,-16.182 -3.648,-19.7881 0.3945,-2.6045 -0.083,-3.7886 -2.5045,-6.21 -6.0175,-6.0176 -11.2491,-13.4293 -12.3174,-17.4505 -1.5062,-5.6694 -5.9658,-15.3638 -7.8518,-17.0684 -0.8561,-0.7738 -4.4815,-2.4813 -8.0565,-3.7945 -3.575,-1.3133 -11.3804,-5.6212 -17.3454,-9.5731 -8.1599,-5.4062 -11.694,-7.1854 -14.2724,-7.1854 -2.6081,0 -4.4637,-0.9557 -7.7664,-4 -2.3867,-2.2 -4.8425,-4 -5.4574,-4 -0.6149,0 -2.9507,-0.7333 -5.1907,-1.6296 -3.1937,-1.2779 -4.0075,-2.0873 -3.7703,-3.75 0.2577,-1.8061 1.0808,-2.1652 5.5526,-2.4227 2.8875,-0.1662 5.25,-0.7114 5.25,-1.2114 0,-0.9297 -1.724,-1.4312 -15.2426,-4.4337 -4.2585,-0.9458 -8.0205,-2.1693 -8.3602,-2.7189 -0.3396,-0.5496 -2.5021,-1.8071 -4.8055,-2.7944 -2.3034,-0.9873 -6.2652,-3.5376 -8.8041,-5.6672 -9.5205,-7.986 -12.7447,-10.4133 -18.4387,-13.8815 -6.4242,-3.9129 -19.0491,-13.5363 -30.8836,-23.5411 -4.905,-4.1467 -8.4984,-8.1455 -10.064,-11.1995 -1.8647,-3.6376 -2.9878,-4.75 -4.7957,-4.75 -3.097,0 -4.2235,1.5425 -5.1124,7 -0.4031,2.475 -1.5789,6.1696 -2.613,8.2102 -1.0341,2.0406 -1.8802,5.1635 -1.8802,6.9398 0,4.233 -1.7602,14.0743 -3.6397,20.35 -1.2114,4.0449 -1.2803,5.9551 -0.3605,10 0.6253,2.75 1.0194,7.25 0.8757,10 -0.1437,2.75 0.2501,8.15 0.8749,12 0.6249,3.85 1.582,10.825 2.1268,15.5 1.463,12.5528 4.7905,30.9279 6.4311,35.5132 0.7897,2.2073 1.7591,6.0323 2.1541,8.5 0.395,2.4677 1.8026,8.2923 3.1279,12.9436 1.3253,4.6512 2.4167,10.5012 2.4253,13 0.01,2.4987 0.6609,7.0182 1.4494,10.0432 1.8143,6.9594 12.566,37.8724 15.4774,44.5 4.3941,10.0028 15.2362,31.0503 16.9992,33 4.7601,5.2642 4.7559,8.5542 -0.014,10.5298 -3.2257,1.3361 -3.7243,3.0645 -1.4327,4.9664 0.8225,0.6826 1.9775,2.8752 2.5667,4.8724 0.9181,3.112 0.6962,4.6215 -1.5518,10.5541 -1.4427,3.8074 -3.7227,8.2295 -5.0667,9.8267 -1.6901,2.0086 -2.4436,4.1237 -2.4436,6.8594 0,4.8229 -1.9619,9.713 -4.9713,12.3912 -1.2361,1.1 -3.5976,4.6726 -5.2479,7.939 -1.6502,3.2665 -3.7806,7.0915 -4.7342,8.5 -0.9535,1.4086 -3.0319,4.5336 -4.6187,6.9445 -1.8793,2.8555 -4.3002,4.9901 -6.9452,6.1239 -4.7637,2.042 -9.2094,7.2443 -11.622,13.6 -0.9466,2.4936 -2.8774,5.6055 -4.2909,6.9154 -1.4134,1.31 -2.5698,2.9091 -2.5698,3.5536 0,1.7932 -6.9168,16.7121 -9.5409,20.5791 -1.2792,1.885 -3.0777,5.7711 -3.9967,8.6359 -0.919,2.8647 -3.1029,7.6836 -4.853,10.7086 -1.7502,3.025 -6.9908,13.0875 -11.6458,22.3611 -4.655,9.2736 -10.6181,20.9736 -13.2514,26 -2.6334,5.0264 -5.8576,11.8389 -7.165,15.1389 -1.3074,3.3 -4.6585,10.5 -7.4468,16 -2.7884,5.5 -5.0766,10.5242 -5.0851,11.1648 -0.01,0.6407 -2.683,6.4907 -5.9435,13 -6.7189,13.4138 -13.3174,28.625 -18.1478,41.8352 -1.9371,5.2974 -4.5931,10.4399 -6.4562,12.5 -4.7889,5.2953 -8.4332,12.705 -10.0657,20.4654 -0.8078,3.8404 -2.3515,8.4785 -3.4304,10.3071 -1.0788,1.8285 -3.7861,8.6859 -6.0161,15.2386 -2.23,6.5528 -5.1309,13.8435 -6.4463,16.2015 -1.3154,2.3581 -3.5916,8.1124 -5.0582,12.7874 -1.4666,4.675 -3.0603,8.9868 -3.5417,9.5818 -1.3221,1.6343 -7.4318,17.1293 -9.8503,24.9818 -1.175,3.815 -2.9655,8.7364 -3.9789,10.9364 -1.0134,2.2 -2.596,6.4111 -3.517,9.358 -0.921,2.9469 -2.7045,6.9969 -3.9635,9 -2.3515,3.7416 -4.5482,9.9498 -6.5509,18.5146 -1.7811,7.6173 -5.7142,14.4974 -9.5972,16.7885 -2.1473,1.2669 -3.4852,2.8493 -3.5405,4.1877 -0.2719,6.5828 0.4022,12.4153 1.6604,14.366 1.6738,2.5951 1.865,5.8974 0.3941,6.8065 -0.569,0.3516 -4.0565,1.0549 -7.75,1.5628 -11.5969,1.5947 -12.3628,1.8648 -12.0757,4.2584 0.5256,4.3831 -1.6613,6.345 -7.8538,7.0457 -3.1823,0.3601 -8.2093,1.7776 -11.1711,3.1498 -4.3604,2.0203 -6.2918,2.3748 -10.1511,1.8628 -4.3517,-0.5773 -4.9124,-0.4091 -6.4478,1.9343 -2.0784,3.172 -1.6415,6.025 0.9954,6.5005 1.0937,0.1972 2.3618,0.7107 2.8181,1.1411 1.612,1.5205 -3.7771,11.5112 -9.0594,16.795 -2.8986,2.8995 -5.2702,5.7004 -5.2702,6.2244 0,0.5239 -1.367,1.6594 -3.0377,2.5234 -1.6708,0.864 -3.8083,3.1879 -4.75,5.1643 -1.3873,2.9113 -3.0523,4.2041 -8.7723,6.8113 -3.8831,1.7699 -9.5081,4.019 -12.5,4.9981 -2.992,0.9791 -7.3586,2.89 -9.7035,4.2464 -7.1309,4.1249 -22.681,8.3175 -34.2365,9.2309 -5.775,0.4564 -13.0749,1.415 -16.222,2.1303 -5.5519,1.2617 -5.8,1.2275 -8.3419,-1.1502 -4.5831,-4.2871 -4.934,-5.8215 -2.0257,-8.857 3.3069,-3.4518 3.3158,-5.8732 0.024,-6.6993 -1.9281,-0.4839 -3.2318,-0.022 -5.25,1.8588 -5.6152,5.2338 -12.5252,6.4066 -16.1849,2.7469 -2.741,-2.741 -2.5184,-5.1117 1.0781,-11.4843 1.6929,-2.9997 2.8346,-5.848 2.537,-6.3295 -0.6557,-1.061 3.034,-11.0891 4.8517,-13.1862 0.7151,-0.825 2.2239,-3.3 3.353,-5.5 1.129,-2.2 3.9225,-6.0143 6.2078,-8.4763 2.2853,-2.462 4.8006,-5.7245 5.5894,-7.25 0.7889,-1.5255 2.0301,-2.7737 2.7582,-2.7737 1.5149,0 7.5273,-3.985 13.229,-8.7683 2.8143,-2.361 3.9305,-4.096 4.0208,-6.25 0.2319,-5.5319 0.3714,-5.9817 1.8547,-5.9817 0.8138,0 2.3539,-1.6875 3.4224,-3.75 2.0302,-3.9187 12.7861,-14.9685 29.3801,-30.183 5.3803,-4.9329 11.495,-11.1285 13.5883,-13.768 2.0934,-2.6394 6.8951,-7.274 10.6705,-10.299 12.5543,-10.0589 17.0177,-15.0021 18.9615,-21 1.7395,-5.3677 6.8155,-14.6822 14.2905,-26.2236 7.4778,-11.5458 16.1672,-24.3795 19.1452,-28.2764 1.6812,-2.2 4.3482,-6.7 5.9266,-10 1.5785,-3.3 4.4804,-8.428 6.4488,-11.3955 2.5913,-3.9068 3.7534,-6.9421 4.2114,-11 0.8568,-7.5902 2.1642,-11.5132 4.5593,-13.6808 2.6248,-2.3754 4.1917,-6.0705 6.9645,-16.4237 1.252,-4.675 3.0692,-10.1027 4.0381,-12.0617 0.9688,-1.9589 2.9887,-7.3589 4.4885,-12 1.4999,-4.641 3.8251,-10.182 5.1672,-12.3132 1.3421,-2.1312 3.9098,-7.3062 5.7061,-11.5 1.7962,-4.1938 4.4065,-9.8751 5.8006,-12.6251 2.5744,-5.0784 12.156,-32.0571 15.2715,-43 0.9396,-3.3 2.3318,-8.1096 3.0938,-10.6879 0.762,-2.5783 1.3901,-7.0783 1.3958,-10 0.011,-5.7347 7.8673,-30.1339 11.8918,-36.9333 1.1789,-1.9917 3.6419,-8.0667 5.4735,-13.5 1.8315,-5.4334 4.5162,-12.2165 5.9661,-15.0737 1.4498,-2.8572 3.7321,-9.3822 5.0716,-14.5 1.3395,-5.1178 3.5945,-11.9054 5.0111,-15.0836 1.4165,-3.1782 2.5755,-6.5566 2.5755,-7.5076 0,-0.9511 1.6039,-6.6757 3.5643,-12.7215 l 3.5643,-10.9924 -1.1801,-13 c -0.649,-7.15 -2.2529,-17.805 -3.5642,-23.6778 -1.3114,-5.8727 -2.3843,-12.536 -2.3843,-14.8071 0,-7.3273 -2.1748,-13.3348 -7.8982,-21.8177 -3.081,-4.5664 -6.9518,-10.4942 -8.6018,-13.1727 -1.65,-2.6786 -5.5703,-8.7191 -8.7118,-13.4233 -3.1416,-4.7042 -6.443,-9.9669 -7.3365,-11.6949 -0.8936,-1.7279 -3.7426,-6.1263 -6.3312,-9.7741 -2.5885,-3.6478 -7.117,-10.6824 -10.0633,-15.6324 -2.9463,-4.95 -6.6129,-11.025 -8.148,-13.5 -1.5351,-2.475 -5.3244,-9.3944 -8.4206,-15.3765 -3.0962,-5.982 -7.1727,-13.12 -9.059,-15.8622 -1.8863,-2.7421 -3.4296,-5.3481 -3.4296,-5.791 0,-0.7778 -16.5754,-32.6946 -23.8738,-45.9703 -5.5282,-10.0557 -16.1962,-35.9651 -20.793,-50.5 -1.3916,-4.4 -4.697,-12.5 -7.3455,-18 -2.6484,-5.5 -5.1039,-11.302 -5.4565,-12.8932 -1.2204,-5.5069 -10.839,-21.5262 -16.4051,-27.3219 -10.5159,-10.9496 -21.2042,-26.2704 -20.4197,-29.2701 0.3531,-1.3503 0.038,-2.0148 -0.9549,-2.0148 -0.815,0 -2.6039,-0.8827 -3.9755,-1.9615 -2.5941,-2.0405 -16.3338,-26.1873 -19.3682,-34.0385 -0.9565,-2.475 -2.4966,-5.625 -3.4224,-7 -0.9258,-1.375 -3.3627,-5.7257 -5.4152,-9.6682 -5.567,-10.6928 -5.8703,-10.8727 -15.955,-9.4619 -4.6152,0.6456 -10.8042,0.901 -13.7533,0.5675 -4.9196,-0.5563 -6.6186,-0.1057 -20.5954,5.4622 -8.3784,3.3377 -21.6963,9.2257 -29.5954,13.0845 -7.899,3.8587 -15.1794,7.0159 -16.1786,7.0159 -0.9992,0 -4.1063,0.6714 -6.9046,1.492 -42.1942,12.373 -43.0681,12.6666 -55.0879,18.5093 -5.5,2.6735 -10.8039,5.1091 -11.7865,5.4124 -0.9826,0.3034 -2.5365,1.8582 -3.453,3.4551 -3.0768,5.361 -3.8967,5.5205 -28.6771,5.578 -19.4658,0.045 -22.9864,0.2791 -23.3804,1.5532 -1.2425,4.0171 -3.3719,5 -10.8323,5 -7.1687,0 -7.3522,0.064 -8.9174,3.0902 -1.3805,2.6697 -1.9625,2.9917 -4.2756,2.3661 -6.6891,-1.8091 -33.1777,-2.2796 -33.1777,-0.5893 0,0.4194 1.575,1.5136 3.5,2.4316 6.2708,2.9904 3.4494,8.1535 -3.0957,5.665 -3.2951,-1.2528 -22.3915,-3.0895 -23.7019,-2.2797 -0.4822,0.298 -0.3875,1.031 0.2105,1.629 1.5196,1.5196 1.3568,4.6464 -0.2746,5.2724 -0.7489,0.2874 -4.3769,-0.1767 -8.062,-1.0314 -3.6852,-0.8546 -9.71,-1.5735 -13.3884,-1.5975 -3.6783,-0.024 -8.7129,-0.4774 -11.1879,-1.0077 -11.6261,-2.4912 -10.7624,-2.6286 -10.6239,1.6909 0.1132,3.5269 -0.1198,3.8883 -2.6967,4.1836 -1.5513,0.1778 -4.1201,-0.1298 -5.7084,-0.6835 -2.4455,-0.8525 -3.4688,-0.6074 -6.6795,1.5999 -2.933,2.0164 -5.4896,2.7427 -11.2915,3.208 -4.9104,0.3937 -8.4904,1.2637 -10.3685,2.5195 -2.8065,1.8767 -2.9793,1.8782 -8,0.067 -2.8223,-1.018 -8.2815,-2.1846 -12.1315,-2.5925 -3.85,-0.4079 -9.9366,-1.3108 -13.5257,-2.0064 -6.8184,-1.3215 -13.6696,-0.6202 -10.9221,1.118 0.7963,0.5038 3.1649,0.9229 5.2635,0.9313 4.7821,0.019 7.6843,1.5235 7.6843,3.9831 0,2.4888 -1.2965,2.7528 -15.5,3.1556 -24.2192,0.6869 -49.2097,-1.1205 -65.9362,-4.7688 -6.0851,-1.3273 -13.0888,-2.7817 -15.5638,-3.232 -12.0702,-2.1964 -17.8437,-3.4659 -21.5334,-4.7352 -5.197,-1.7876 -7.9164,-1.7553 -9.4666,0.1126 -1.7212,2.0739 -2.9591,1.922 -11.7823,-1.446 -10.6253,-4.0558 -10.5479,-4.0517 -10.6393,-0.5724 -0.1041,3.9606 -2.6891,4.3902 -5.8572,0.9735 -3.0296,-3.2672 -11.8721,-6.9689 -21.3611,-8.9422 -3.9269,-0.8167 -9.3923,-2.6161 -12.1452,-3.9989 -6.1933,-3.1106 -6.7087,-3.1114 -9.4018,-0.014 -2.7048,3.1108 -3.8973,3.1187 -9.135,0.061 -3.6513,-2.1318 -14.6781,-4.6433 -14.6781,-3.3432 0,0.2614 0.6813,1.841 1.5141,3.5103 3.4887,6.9932 -1.5562,8.3316 -8.227,2.1827 -4.4051,-4.0605 -4.4779,-4.0847 -10.2474,-3.4151 -4.3857,0.509 -6.5623,0.2857 -8.8755,-0.9105 -4.6206,-2.3894 -14.5898,-2.103 -18.8697,0.5421 -2.991,1.8486 -3.792,1.962 -6.118,0.8667 -6.5248,-3.0724 -14.7453,-5.9937 -16.8661,-5.9937 -2.5636,0 -2.89,1.0991 -1.1526,3.8811 2.6966,4.318 -3.1669,7.092 -7.7167,3.6507 -2.5746,-1.9473 -7.4479,-1.9158 -10.2781,0.067 -4.6467,3.2546 -19.163,38.9948 -19.163,47.1805 0,4.1164 -1.2184,11.2131 -4.5016,26.2211 -1.2634,5.775 -3.0303,15 -3.9265,20.5 -0.8963,5.5 -2.044,12.025 -2.5505,14.5 -1.4282,6.9789 -2.8082,14.8 -4.058,23 -0.6287,4.125 -1.737,9.3 -2.4629,11.5 -0.7259,2.2 -1.8545,7.15 -2.508,11 -1.8528,10.9155 -4.5442,19.2251 -9.5601,29.517 -4.7349,9.7154 -5.3678,12.1079 -7.8289,29.596 -0.7827,5.5621 -2.1112,12.7621 -2.9522,16 -2.5333,9.7536 -5.4762,24.5137 -6.1583,30.887 -0.5988,5.5957 -1.1491,8.5774 -4.9827,27 -2.7201,13.0714 -3.5837,18.9828 -4.1974,28.7307 -0.4833,7.6752 -1.0035,10.0843 -2.4628,11.4049 -2.5467,2.3048 -2.3218,4.6944 0.8999,9.563 2.7368,4.1358 2.7507,4.2447 2.8896,22.749 0.077,10.2264 0.5894,20.2222 1.139,22.2129 0.8106,2.9357 0.6329,4.4381 -0.9407,7.9529 -1.8518,4.1361 -1.8628,4.5051 -0.24,8.1036 1.4992,3.3248 1.6126,5.9861 0.9595,22.5266 -0.4074,10.316 -0.8375,22.1314 -0.9558,26.2564 -0.1183,4.125 -0.7267,9.75 -1.352,12.5 -3.3197,14.5991 -3.7611,23.1339 -3.7233,72 0.025,32.1402 0.1431,34.3282 2.1614,40 3.7101,10.4258 5.2361,22.7611 5.8144,47 0.8502,35.6333 1.3724,46.3103 2.7143,55.5 0.6826,4.675 1.127,9.175 0.9875,10 -0.5954,3.5201 -1.3028,18.2149 -1.2999,27 0,7.3136 0.5606,11.2261 2.4249,17 1.3319,4.125 2.9256,9.75 3.5416,12.5 0.6159,2.75 2.0807,8.825 3.2551,13.5 1.1743,4.675 2.667,11.875 3.317,16 0.65,4.125 1.4517,8.175 1.7816,9 1.8902,4.7281 2.6896,8.4953 2.209,10.4103 -0.334,1.3308 0.5645,4.289 2.3181,7.6314 1.5749,3.0021 4.3419,10.1019 6.1488,15.7775 4.004,12.5767 3.6075,14.3051 -4.2577,18.5589 -5.9976,3.2438 -8.6764,3.2137 -17.4704,-0.1965 -7.0435,-2.7314 -8.172,-3.801 -8.172,-7.745 0,-1.8252 -0.399,-3.5652 -0.8867,-3.8666 -2.1229,-1.312 -2.9297,2.8771 -3.2603,16.93 -0.351,14.9158 -0.3404,15.0018 1.897,15.3196 2.7178,0.3859 2.7071,0.1925 0.3328,5.995 -1.0544,2.577 -2.1681,5.8104 -2.4749,7.1854 -0.5122,2.2951 -6.7998,13.7198 -12.9447,23.5204 -4.5687,7.2868 -24.93546,29.5121 -27.62576,30.1468 -1.3956,0.3292 -6.1652,2.2864 -10.5992,4.3493 -13.6654,6.3577 -48.0676,11.2128 -56.2326,7.9359 z"
     id="path2987"
     inkscape:connector-curvature="0" />
</svg>
