<?xml version="1.0" encoding="UTF-8" standalone="no"?>
<!-- Created with Inkscape (http://www.inkscape.org/) -->

<svg
   xmlns:dc="http://purl.org/dc/elements/1.1/"
   xmlns:cc="http://creativecommons.org/ns#"
   xmlns:rdf="http://www.w3.org/1999/02/22-rdf-syntax-ns#"
   xmlns:svg="http://www.w3.org/2000/svg"
   xmlns="http://www.w3.org/2000/svg"
   xmlns:sodipodi="http://sodipodi.sourceforge.net/DTD/sodipodi-0.dtd"
   xmlns:inkscape="http://www.inkscape.org/namespaces/inkscape"
   id="svg2"
   version="1.1"
   inkscape:version="0.48.2 r9819"
   width="568.5"
   height="619.75073"
   sodipodi:docname="PeterM_Beeb.png">
  <metadata
     id="metadata8">
    <rdf:RDF>
      <cc:Work
         rdf:about="">
        <dc:format>image/svg+xml</dc:format>
        <dc:type
           rdf:resource="http://purl.org/dc/dcmitype/StillImage" />
        <dc:title></dc:title>
      </cc:Work>
    </rdf:RDF>
  </metadata>
  <defs
     id="defs6" />
  <sodipodi:namedview
     pagecolor="#ffffff"
     bordercolor="#666666"
     borderopacity="1"
     objecttolerance="10"
     gridtolerance="10"
     guidetolerance="10"
     inkscape:pageopacity="0"
     inkscape:pageshadow="2"
     inkscape:window-width="1920"
     inkscape:window-height="1176"
     id="namedview4"
     showgrid="false"
     showguides="true"
     inkscape:guide-bbox="true"
     fit-margin-top="0"
     fit-margin-left="0"
     fit-margin-right="0"
     fit-margin-bottom="0"
     inkscape:zoom="1"
     inkscape:cx="192.5"
     inkscape:cy="224.89888"
     inkscape:window-x="0"
     inkscape:window-y="24"
     inkscape:window-maximized="1"
     inkscape:current-layer="svg2">
    <sodipodi:guide
       orientation="-0.70710678,0.70710678"
       position="66.12712,773.96668"
       id="guide2987" />
  </sodipodi:namedview>
  <path
     style="fill:#000000"
     d="m 340.5,618.05041 c -2.48984,-1.21316 -3.58861,-2.46992 -3.80701,-4.35444 -0.27686,-2.38895 0.0899,-2.71615 3.73546,-3.33205 3.61674,-0.61105 4.16412,-1.08902 5.19766,-4.53867 0.98021,-3.27167 0.81014,-5.18999 -1.12283,-12.66456 -2.33671,-9.03576 -2.90916,-13.95315 -3.94651,-33.90057 -0.0312,-0.60044 -1.81738,-1.61921 -3.96925,-2.26392 -3.6157,-1.08329 -4.14668,-1.73479 -7,-8.58877 -1.69813,-4.07911 -3.08752,-8.29609 -3.08752,-9.37107 0,-1.07498 -1.17841,-2.72663 -2.61869,-3.67034 -2.32905,-1.52605 -2.56384,-2.2024 -2.12284,-6.11501 0.27272,-2.41955 0.37058,-4.39918 0.21747,-4.39918 -0.15311,0 -1.20766,1.575 -2.34344,3.5 -3.83248,6.49557 -5.60677,3.22503 -2.48418,-4.57908 1.05425,-2.63484 1.28685,-4.35406 0.64536,-4.77024 -2.50743,-1.62673 -2.01293,-32.0812 0.70066,-43.15068 0.60673,-2.475 1.2785,-6.79725 1.49282,-9.60501 0.40214,-5.2683 4.98296,-26.87109 6.59958,-31.12315 1.33648,-3.5152 1.11588,-10.72937 -0.50817,-16.61793 -0.78178,-2.83465 -1.70935,-7.29141 -2.06127,-9.90391 -0.74913,-5.56128 -2.24935,-6.04558 -5.76923,-1.86245 -1.67317,1.98845 -2.97522,5.64707 -4.18167,11.75 -0.96357,4.87435 -3.79824,14.93745 -6.29926,22.36245 -4.01982,11.93398 -4.60092,14.77602 -5.0094,24.5 -0.2931,6.97736 -0.9373,11.54854 -1.76157,12.5 -1.07026,1.23539 -0.96674,3.61691 0.5868,13.5 1.97201,12.54532 2.32993,18.26041 1.31004,20.91821 -1.83454,4.78075 -5.39301,-2.64917 -5.39301,-11.26036 0,-3.24852 -0.675,-7.81955 -1.5,-10.15785 -1.97259,-5.59091 -1.86239,-9.96078 0.47253,-18.73811 2.29898,-8.64222 3.72758,-21.25043 1.95589,-17.26189 -0.61077,1.375 -1.41155,4.525 -1.77953,7 -0.62627,4.21232 -0.89215,4.53196 -4.15896,5 -3.96327,0.56781 -3.64745,-1.83583 -2.69348,20.5 0.45839,10.73264 2.46309,19.68694 5.36698,23.97251 0.87413,1.29004 1.33657,5.13575 1.33657,11.11514 0,7.86446 -0.30308,9.52794 -2.1679,11.89867 -5.04471,6.41331 -18.8321,7.57408 -18.8321,1.58549 0,-2.13172 1.88138,-3.07181 6.14753,-3.07181 4.47032,0 6.54671,-1.5566 7.2783,-5.45631 0.49458,-2.63638 0.17333,-4.19941 -1.29016,-6.2771 -1.0718,-1.52163 -2.23618,-4.45409 -2.58751,-6.51659 -0.46841,-2.74982 -1.13159,-3.75 -2.48648,-3.75 -1.95272,0 -3.06168,-1.86309 -3.06168,-5.14371 0,-1.08908 -1.07492,-4.31477 -2.38872,-7.16822 -1.77214,-3.8489 -2.55529,-7.76931 -3.03404,-15.18807 -0.45478,-7.04725 -1.23441,-11.13284 -2.64035,-13.83657 -1.41905,-2.72891 -1.81147,-4.81506 -1.35923,-7.22572 0.3497,-1.86403 0.0852,-7.26836 -0.58787,-12.00962 -1.1674,-8.22401 -1.12631,-8.75216 0.89327,-11.48379 2.76495,-3.7398 2.67163,-4.9443 -0.38306,-4.9443 -2.20231,0 -2.5,-0.42739 -2.5,-3.5892 0,-2.93927 0.81485,-4.38114 4.5,-7.96269 3.00186,-2.91747 4.5,-5.21822 4.5,-6.91081 0,-3.38032 -1.97753,-3.21396 -5.5,0.4627 -4.07069,4.24888 -5.67753,3.96238 -4.90409,-0.87441 0.38401,-2.40149 0.19842,-4.13467 -0.48819,-4.55901 -0.60924,-0.37654 -1.10772,-2.49556 -1.10772,-4.70893 0,-5.92738 -1.84127,-4.77661 -7.63503,4.77177 -1.06134,1.74914 -1.21784,1.69204 -2.41052,-0.87942 -1.5046,-3.24399 -2.93591,-3.53691 -3.6647,-0.75 -0.77034,2.9458 -3.28975,2.49118 -3.28975,-0.59362 0,-1.79246 -0.64764,-2.76298 -2.09662,-3.1419 -1.68323,-0.44017 -1.98748,-1.09397 -1.54309,-3.31592 0.71759,-3.58796 -1.93579,-4.8175 -4.61483,-2.13846 -3.7377,3.7377 -4.19287,7.87553 -5.05368,45.94235 -0.31435,13.90117 -0.38847,14.32152 -3.00704,17.05472 -3.30397,3.4486 -3.31875,3.81689 -0.18474,4.60347 1.62589,0.40808 2.5,1.3279 2.5,2.63076 0,2.50712 -7.66612,10.9586 -9.94027,10.9586 -1.78093,0 -5.76157,-3.81649 -8.3441,-8 -1.7998,-2.91555 -4.22073,-16.96047 -3.43886,-19.95036 0.29451,-1.12621 0.13976,-2.29221 -0.34389,-2.59112 -1.69207,-1.04576 -3.77398,-7.00701 -4.41389,-12.63854 -0.35498,-3.12401 -1.25243,-6.18379 -1.99434,-6.79953 -0.74191,-0.61573 -1.87212,-3.30039 -2.51157,-5.96591 -0.63945,-2.66553 -2.25398,-5.87168 -3.58786,-7.12479 -1.7393,-1.63399 -2.42522,-3.34992 -2.42522,-6.06704 0,-2.08377 -0.93267,-6.15487 -2.0726,-9.04689 -2.94627,-7.47474 -6.56561,-23.12639 -8.95019,-38.70457 -1.12719,-7.36382 -2.93319,-16.01212 -4.01333,-19.21846 -1.08013,-3.20633 -1.96388,-8.16889 -1.96388,-11.02791 0,-9.96771 -1.03373,-4.05774 -2.02908,11.60055 -1.18596,18.65663 -2.95929,27.99631 -7.50557,39.52976 -1.84385,4.67765 -3.59893,9.69254 -3.90019,11.14422 -0.67617,3.25821 -4.37939,4.40703 -9.14072,2.83565 C 153.48011,397.69016 141.5,385.66386 141.5,383.34298 c 0,-0.67078 -2.51932,-3.8682 -5.59848,-7.10538 -10.65712,-11.204 -14.08007,-17.463 -15.98467,-29.22853 -0.88378,-5.45951 -1.93472,-8.86755 -2.90129,-9.40847 -0.83356,-0.46648 -1.51556,-1.70462 -1.51556,-2.75141 0,-1.04679 -0.51034,-3.02332 -1.13408,-4.39229 -0.89185,-1.95739 -0.78505,-3.55615 0.5,-7.48495 2.10189,-6.42616 2.16924,-13.70078 0.13408,-14.48175 -1.68769,-0.64762 -2.03251,-4.19123 -0.5,-5.13837 1.30064,-0.80384 1.30064,-4.5 0,-4.5 -1.917,0 -0.98183,-4.10908 1.5,-6.59091 1.375,-1.375 2.5,-3.21393 2.5,-4.08651 0,-2.45342 -3.82051,-8.05859 -7.06981,-10.37229 -3.4643,-2.4668 -4.55152,-2.2204 -13.84486,3.1376 -3.732,2.15166 -7.64043,3.91846 -8.68539,3.92623 -1.04497,0.008 -6.62494,1.62365 -12.39994,3.59086 -13.51161,4.60263 -35.77528,7.21552 -62.59253,7.34594 L 3.81494,295.85183 1.90747,292.27606 0,288.70029 2.2615,286.85646 c 3.60591,-2.93996 11.40851,-4.0712 31.7385,-4.60153 11.66392,-0.30427 21.1236,-1.0487 24.5,-1.92803 3.025,-0.78781 12.025,-3.01323 20,-4.94539 13.42775,-3.25321 32.13341,-10.72961 30.62331,-12.23971 -0.29414,-0.29414 -6.96722,-0.0369 -14.82906,0.57158 -15.94786,1.23438 -56.17228,0.79102 -70.83629,-0.78075 -9.02488,-0.96734 -13.891,-2.20219 -20.20796,-5.12808 -3.65149,-1.6913 -3.55409,-4.80817 0.26457,-8.46668 l 3.01457,-2.88814 7.23543,1.28517 c 3.97949,0.70684 10.16043,1.7398 13.73543,2.29546 3.575,0.55566 24.70979,1.18782 46.96619,1.4048 46.27743,0.45116 42.02303,-0.4659 47.9037,10.32596 l 2.94761,5.4093 4.0116,-7.9093 c 3.23448,-6.3771 4.95121,-8.53888 8.86191,-11.15929 2.66766,-1.7875 5.57354,-3.25 6.45752,-3.25 0.88397,0 3.28971,-0.70299 5.34608,-1.56219 2.05637,-0.85921 4.34865,-1.3282 5.09395,-1.0422 0.7453,0.286 2.7543,0.0322 4.46446,-0.56394 2.63114,-0.91722 4.17951,-0.66408 10.06715,1.64586 6.29307,2.469 7.24205,3.22145 9.93335,7.87613 1.63656,2.83049 3.16578,6.04634 3.39828,7.14634 0.23249,1.1 0.68452,3.2375 1.00451,4.75 0.75593,3.5731 3.31614,3.5731 3.72727,0 0.22587,-1.96308 0.9562,-2.84091 2.55221,-3.06769 l 2.23579,-0.31769 -1.98579,-3.89247 c -3.66513,-7.18426 -1.97762,-10.93106 2.01421,-4.47215 2.15487,3.48666 5,4.7129 5,2.15499 0,-0.73976 -0.9,-2.1595 -2,-3.15499 -2.87915,-2.6056 -2.6001,-6.32134 0.5651,-7.52475 4.41447,-1.67838 6.82463,-1.11978 9.77583,2.26574 1.82437,2.09286 2.57157,2.54336 2.08816,1.25901 -0.41403,-1.1 -0.95221,-3.6875 -1.19597,-5.75 -0.65136,-5.51135 2.2952,-5.13375 3.90173,0.5 l 1.21193,4.25 0.73652,-4.69972 c 0.40509,-2.58485 1.02862,-5.17235 1.38563,-5.75 0.87997,-1.42383 4.85144,-1.32991 6.33107,0.14972 0.93333,0.93333 1.2,0.66939 1.2,-1.18776 0,-1.31328 1.96227,-4.89078 4.36059,-7.95 2.39833,-3.05923 6.78583,-10.27596 9.75,-16.03718 2.96418,-5.76122 7.07691,-12.17372 9.13941,-14.25 2.29801,-2.31336 3.75,-4.72943 3.75,-6.23988 0,-1.35565 0.81125,-2.89898 1.80277,-3.42963 0.99152,-0.53064 3.09307,-3.35898 4.67009,-6.28518 1.57703,-2.9262 4.97801,-8.47037 7.55774,-12.32037 2.57972,-3.85 6.12839,-9.7 7.88594,-13 4.54634,-8.53632 7.67486,-13.90505 13.22485,-22.69467 2.67224,-4.23206 4.85861,-8.10888 4.85861,-8.61514 0,-0.50626 0.83608,-1.99366 1.85795,-3.30533 1.02187,-1.31167 6.80391,-11.85596 12.84898,-23.431751 6.04507,-11.575788 14.955,-27.550788 19.79984,-35.5 4.84484,-7.949212 10.13021,-17.265613 11.74527,-20.703113 1.61506,-3.4375 3.30953,-6.25 3.76549,-6.25 2.02844,0 7.07559,-5.540406 10.87849,-11.94163 6.05626,-10.1942 20.23691,-20.2924605 30.46462,-21.69432047 3.83258,-0.52532 4.70894,-0.24186 7.89159,2.55254997 4.37437,3.84075 6.10818,8.6514805 8.84823,24.5508905 1.54196,8.947385 1.91,14.083702 1.43542,20.03251 -1.22527,15.358586 -5.57573,49.865902 -6.98584,55.410854 -0.78174,3.07403 -2.389,10.9782 -3.5717,17.56482 -2.49523,13.89629 -7.92708,32.51626 -11.60037,39.76515 -1.4052,2.77302 -4.31509,7.26866 -6.46644,9.99031 -2.15134,2.72166 -3.8911,5.69556 -3.86614,6.60867 0.0271,0.99219 2.13956,2.66612 5.25,4.1602 7.08894,3.40513 7.12936,5.06947 0.45222,18.62099 -2.94819,5.98345 -5.99294,11.87104 -6.76612,13.08353 -0.77318,1.21249 -1.12883,2.48148 -0.79033,2.81997 0.3385,0.3385 12.55217,-5.04104 27.1415,-11.95452 14.58934,-6.91348 26.98774,-12.56997 27.55194,-12.56997 0.5643,0 5.6586,-1.97642 11.3207,-4.39204 13.23,-5.64431 43.1104,-16.2699 48.2947,-17.1738 2.2,-0.38358 4.7385,-1.0778 5.6412,-1.54273 0.9026,-0.46492 9.3304,-2.20569 18.7285,-3.86837 39.6885,-7.02164 66.1303,-1.91879 66.1303,12.76212 0,8.84567 -10.2776,30.6006 -19.4709,41.21482 -10.2175,11.79667 -34.7364,34.17792 -49.6507,45.32191 -22.3652,16.71138 -28.31,20.01235 -43.3784,24.08674 l -8,2.16315 0.3208,4.97664 c 0.2977,4.61778 0.046,5.25145 -3.4902,8.78758 -2.096,2.09601 -6.4425,5.40957 -9.659,7.36348 -6.578,3.99595 -6.4583,5.09421 0.8307,7.61773 4.3909,1.52018 5.3186,3.99554 1.6901,4.50987 -3.9398,0.55847 -1.7826,2.63203 3.6403,3.49917 4.9066,0.78459 6.9863,2.87653 3.9173,3.94035 -0.6875,0.23831 0.1658,0.75132 1.8963,1.14002 1.7305,0.38869 3.9377,1.58121 4.905,2.65004 1.0538,1.16438 3.0602,1.94332 5.0059,1.94332 2.6372,0 3.432,0.51658 4.231,2.75 1.0141,2.83444 2.0517,3.97823 8.4618,9.32768 4.3987,3.67087 4.675,5.17984 1.2353,6.74708 l -2.5148,1.14578 3.9185,3.91848 c 3.1768,3.17677 3.8993,4.5967 3.8169,7.50154 -0.065,2.2828 0.7227,4.6979 2.1698,6.65519 1.7434,2.35807 2.0085,3.38889 1.1404,4.43484 -0.8445,1.01753 -0.8241,1.85398 0.08,3.30229 0.9838,1.57535 0.9007,2.38306 -0.4426,4.30087 -2.2805,3.25596 -2.0758,5.17121 0.8461,7.91625 1.375,1.29175 2.5,2.97055 2.5,3.73068 0,0.76014 1.3961,2.65715 3.1024,4.2156 2.2254,2.03265 2.9257,3.39005 2.4774,4.80245 -0.3789,1.19382 -0.025,2.46635 0.8977,3.23253 2.3212,1.92648 1.9316,5.01874 -0.6325,5.01874 -2.0243,0 -2.0546,0.11084 -0.5,1.82874 2.0609,2.27721 2.1313,4.17126 0.155,4.17126 -1.7261,0 -2.0277,2.5558 -0.4189,3.55008 0.5945,0.36746 0.8174,1.71823 0.4953,3.00171 -0.3221,1.28348 -0.096,3.40867 0.5028,4.72265 1.3332,2.92593 -0.4265,10.53786 -2.6316,11.38405 -2.0363,0.78139 -1.7988,3.62533 0.5524,6.61438 2.3047,2.92989 2.5217,4.37682 0.75,5.0005 -0.8901,0.31334 -0.6068,1.32715 0.984,3.52114 1.3514,1.86384 2.5,5.3447 2.9073,8.81067 0.6128,5.21336 0.5141,5.66841 -1.0953,5.05085 -1.4024,-0.53817 -1.6186,-0.31398 -1.0439,1.08263 1.9511,4.74138 1.8795,5.51721 -0.4415,4.78057 -1.9999,-0.63474 -2.1192,-0.49731 -1.1464,1.3204 1.6835,3.14566 1.3445,4.37725 -1,3.63313 -1.8442,-0.58534 -1.9601,-0.42703 -1,1.36687 1.9147,3.57771 1.3312,4.33102 -3.1069,4.01058 l -4.1928,-0.30272 0.2759,5.95629 c 0.1518,3.27597 0.4711,6.27202 0.7096,6.6579 0.2384,0.38588 0.1391,3.20737 -0.2209,6.26996 -0.4364,3.71261 -1.1085,5.56836 -2.0168,5.56836 -0.8589,0 -1.3623,1.15386 -1.3623,3.12244 0,2.78879 -0.1764,2.97606 -1.6507,1.75253 -1.5092,-1.2526 -1.5887,-0.95702 -0.9276,3.45146 0.7132,4.75586 0.6928,4.80521 -1.501,3.63114 -1.9881,-1.064 -2.1431,-0.99229 -1.4612,0.6761 1.4931,3.65365 1.1414,4.87736 -1.3242,4.60779 -2.1075,-0.23041 -2.316,0.0736 -1.9168,2.79403 0.5141,3.50284 -1.0753,5.22816 -1.9024,2.06513 -0.6048,-2.31253 -4.3161,-2.95006 -4.3161,-0.74141 0,0.74757 -1.8,3.40412 -4,5.90345 -3.2762,3.72195 -4,5.28552 -4,8.64079 0,3.12989 -0.3869,4.09655 -1.6398,4.09655 -0.9018,0 -2.1749,0.73198 -2.8291,1.62661 -0.9825,1.34359 -1.5791,1.41807 -3.4289,0.42807 -1.947,-1.042 -2.5508,-0.86262 -4.6231,1.37339 -1.311,1.41456 -2.8206,2.57193 -3.3546,2.57193 -0.5341,0 -2.3622,1.17059 -4.0625,2.60132 -4.1622,3.50226 -6.5136,2.61959 -5.626,-2.11188 0.6478,-3.45286 0.6175,-3.48944 -2.8907,-3.48944 -3.2904,0 -3.5453,0.22069 -3.5453,3.06955 0,4.83948 -3.7796,3.60317 -7.5,-2.45323 -6.428,-10.4641 -17.04507,-21.40459 -18.93641,-19.51325 -0.30239,0.3024 0.3732,2.4602 1.50131,4.79512 2.66062,5.50684 2.28951,10.48046 -0.8149,10.92136 -1.2375,0.17575 -2.25,0.54784 -2.25,0.82686 0,0.27902 1.77902,2.99167 3.95338,6.02813 4.74565,6.62722 6.01097,12.55994 3.65178,17.12211 -1.37743,2.66365 -1.43315,4.42728 -0.43009,13.61363 1.39367,12.76377 0.27791,18.58972 -3.56022,18.58972 -5.36538,0 -7.31273,-7.48577 -2.60304,-10.00632 2.39504,-1.28179 2.58647,-5.04651 0.5501,-10.81822 -0.79095,-2.24179 -1.90191,-9.04356 -2.4688,-15.11504 -0.56689,-6.07148 -1.66511,-12.28136 -2.4405,-13.79974 -0.77538,-1.51837 -2.58282,-6.62909 -4.01652,-11.35715 -1.4337,-4.72806 -3.44624,-9.67806 -4.47231,-11 -3.50793,-4.51943 -4.30654,-7.04505 -5.28708,-16.72044 -0.70411,-6.94768 -1.73337,-11.2368 -3.6435,-15.18309 l -2.66218,-5.5 -0.62087,13 c -0.34149,7.15 -0.91314,13.675 -1.27035,14.5 -0.35721,0.825 -1.34726,6.21586 -2.20012,11.97969 -1.83949,12.43444 -3.19055,15.02031 -7.84735,15.02031 -3.97313,0 -7.23581,3.02843 -6.15463,5.71275 0.39592,0.98299 0.90991,7.63725 1.1422,14.78725 0.23229,7.15 0.9165,14.51908 1.52047,16.37573 1.37148,4.21607 1.39829,19.73856 0.0401,23.21909 -2.33853,5.99275 -6.58779,7.31581 -13.18007,4.10376 z M 227.64827,452.96878 c -0.54129,-1.43932 -1.23597,-5.99195 -1.54373,-10.11695 -0.30777,-4.125 -1.3385,-10.2 -2.29051,-13.5 -1.32242,-4.58391 -1.65842,-8.8865 -1.42368,-18.23017 0.27766,-11.0519 0.0868,-12.6897 -1.98088,-17 -3.04832,-6.35446 -10.1258,-14.63465 -11.06874,-12.94971 -0.67562,1.20726 1.41918,11.12742 4.75676,22.52615 1.2192,4.1639 1.31789,5.9438 0.44624,8.04816 -0.94093,2.2716 -0.55197,4.51093 2.44232,14.06108 2.03444,6.48875 3.9707,15.30554 4.51589,20.56316 0.52492,5.06219 1.23239,10.05388 1.57216,11.09265 0.33977,1.03878 0.81895,2.53841 1.06484,3.33253 0.30178,0.97463 1.10457,0.36268 2.47027,-1.88304 1.59845,-2.62843 1.81659,-3.87632 1.03906,-5.94386 z"
     id="path2989"
     inkscape:connector-curvature="0" />
</svg>
