<?xml version="1.0" encoding="UTF-8" standalone="no"?>
<!-- Created with Inkscape (http://www.inkscape.org/) -->

<svg
   xmlns:dc="http://purl.org/dc/elements/1.1/"
   xmlns:cc="http://creativecommons.org/ns#"
   xmlns:rdf="http://www.w3.org/1999/02/22-rdf-syntax-ns#"
   xmlns:svg="http://www.w3.org/2000/svg"
   xmlns="http://www.w3.org/2000/svg"
   xmlns:sodipodi="http://sodipodi.sourceforge.net/DTD/sodipodi-0.dtd"
   xmlns:inkscape="http://www.inkscape.org/namespaces/inkscape"
   id="svg2"
   version="1.1"
   inkscape:version="0.48.2 r9819"
   width="261.82645"
   height="588.21539"
   sodipodi:docname="M - Portuguese Man-of-war.png">
  <metadata
     id="metadata8">
    <rdf:RDF>
      <cc:Work
         rdf:about="">
        <dc:format>image/svg+xml</dc:format>
        <dc:type
           rdf:resource="http://purl.org/dc/dcmitype/StillImage" />
        <dc:title></dc:title>
      </cc:Work>
    </rdf:RDF>
  </metadata>
  <defs
     id="defs6" />
  <sodipodi:namedview
     pagecolor="#ffffff"
     bordercolor="#666666"
     borderopacity="1"
     objecttolerance="10"
     gridtolerance="10"
     guidetolerance="10"
     inkscape:pageopacity="0"
     inkscape:pageshadow="2"
     inkscape:window-width="1600"
     inkscape:window-height="876"
     id="namedview4"
     showgrid="false"
     fit-margin-top="0"
     fit-margin-left="0"
     fit-margin-right="0"
     fit-margin-bottom="0"
     inkscape:zoom="1"
     inkscape:cx="119.93231"
     inkscape:cy="296"
     inkscape:window-x="0"
     inkscape:window-y="24"
     inkscape:window-maximized="1"
     inkscape:current-layer="svg2" />
  <path
     style="fill:#000000"
     d="m 147.96853,583.96542 c -0.57247,-2.3375 -1.69747,-6.5 -2.49999,-9.25 -3.58445,-12.28285 -4.47533,-21.87742 -3.9623,-42.6732 0.50578,-20.5016 0.91025,-25.84904 4.05085,-53.55491 1.79265,-15.81453 1.46742,-25.88063 -1.8343,-56.77189 -0.58786,-5.5 -1.17921,-22.6 -1.31412,-38 -0.13491,-15.4 -0.48115,-34.3 -0.76943,-42 -0.28828,-7.7 -0.34171,-11.975 -0.11875,-9.5 0.60823,6.75156 3.3742,15.4208 5.94739,18.6406 3.47008,4.34208 3.95024,2.23067 1.10824,-4.87323 -2.07539,-5.18765 -2.68,-8.84521 -3.25142,-19.66913 -0.73075,-13.84191 -1.77392,-15.25601 -3.23096,-4.37982 l -0.77454,5.78158 -1.2415,-9 c -0.68283,-4.95 -2.16483,-14.94014 -3.29334,-22.20031 -1.12852,-7.26016 -1.86671,-13.75572 -1.64042,-14.43457 0.22628,-0.67885 1.05409,2.78629 1.83958,7.7003 1.15509,7.22623 1.49161,8.18173 1.76001,4.99721 0.18252,-2.16555 -0.15034,-5.85232 -0.73968,-8.19282 -1.22016,-4.84566 -1.45959,-17.72767 -0.31637,-17.02112 0.41534,0.25669 0.56685,-2.30425 0.33668,-5.69099 -0.23016,-3.38673 -0.57032,-9.3077 -0.7559,-13.1577 -0.64777,-13.43867 -2.05753,-22.5 -3.50054,-22.5 -0.73531,0 -0.87356,3.07447 -0.43841,9.75 1.09156,16.74543 1.50028,43.27852 0.58151,37.75 -1.51563,-9.12002 -0.008,41.50802 1.66765,56 1.39863,12.09641 1.4528,16.3115 0.39841,31 -0.67118,9.35 -1.64875,19.025 -2.17237,21.5 -2.71852,12.8495 -5.73932,31.69829 -5.30853,33.12338 0.2699,0.89286 -0.22717,5.61786 -1.1046,10.5 -3.19604,17.78314 -3.47295,26.58136 -1.34545,42.74867 3.67621,27.93629 5.61929,39.11972 7.75392,44.62795 1.46742,3.78654 2.09547,7.525 2.01595,12 -0.0635,3.575 -0.29821,5.6 -0.52153,4.5 -0.96741,-4.76517 -3.72065,-13.47464 -4.13016,-13.06513 -0.24622,0.24621 -0.62502,3.36134 -0.84179,6.92251 -0.21677,3.56117 -1.76734,10.6751 -3.44573,15.80873 -5.29331,16.19055 -7.69789,26.08199 -8.33541,34.28843 -0.94743,12.19583 -2.60887,11.87176 -2.60887,-0.50887 0,-11.61061 -0.10261,-11.24417 11.3259,-40.44567 0.71434,-1.82525 1.15921,-8.67797 1.13607,-17.5 -0.0325,-12.36926 -0.5359,-16.99811 -3.42608,-31.5 -3.01815,-15.14402 -3.39552,-18.85598 -3.45662,-34 -0.0619,-15.33455 0.2565,-18.66545 3.24974,-34 1.82507,-9.35 4.14954,-21.275 5.16548,-26.5 3.75926,-19.33399 4.3084,-29.38978 2.85449,-52.27062 -1.56503,-24.6294 -1.26768,-76.82981 0.44375,-77.90152 0.75951,-0.47561 0.69778,-3.54275 -0.21112,-10.48985 -0.70646,-5.39974 -1.2245,-14.65978 -1.15121,-20.57786 0.12278,-9.9145 -0.0146,-10.76015 -1.74809,-10.76015 -1.03474,0 -3.85114,-1.32293 -6.25866,-2.93984 -2.40752,-1.61691 -4.51606,-2.80108 -4.68565,-2.6315 -0.16958,0.16959 0.58414,2.73001 1.67494,5.68984 4.45016,12.07528 7.97434,31.62563 8.45096,46.8815 0.1976,6.325 0.18141,9.025 -0.036,6 -0.2174,-3.025 -1.13163,-7.075 -2.03163,-9 -0.9,-1.925 -1.96123,-7.40181 -2.35829,-12.17069 -0.39706,-4.76888 -1.06102,-9.21935 -1.47546,-9.88994 -0.80921,-1.30933 -3.60114,-8.76925 -8.95948,-23.93937 -1.84555,-5.225 -4.04613,-11.075 -4.89016,-13 l -1.53461,-3.5 -0.0391,3.26642 c -0.0215,1.79653 1.08586,8.92037 2.46086,15.83077 1.375,6.9104 2.5,14.14608 2.5,16.07929 0,1.93322 0.59686,4.70937 1.32636,6.16923 0.72951,1.45986 2.94089,5.80429 4.91418,9.65429 1.9733,3.85 4.35027,9.925 5.28217,13.5 2.37633,9.11627 3.39568,28.60753 2.06747,39.53272 -0.5996,4.932 -0.83043,11.66728 -0.51295,14.96728 0.86753,9.01752 -0.39955,9.34635 -2.07017,0.53724 -1.31642,-6.94145 -1.27497,-15.52463 0.12306,-25.48534 1.01841,-7.25595 0.91475,-8.89215 -1.04869,-16.5519 -1.19835,-4.675 -2.52224,-9.85 -2.94198,-11.5 -0.64249,-2.52565 -0.87084,-1.89318 -1.44419,4 -0.37458,3.85 -0.68424,9.12723 -0.68815,11.72717 -0.007,4.44187 -3.83041,16.65006 -6.05422,19.32959 -1.36471,1.64438 -2.76189,20.07891 -2.26901,29.93763 0.21981,4.39691 1.08372,11.30609 1.91978,15.35373 2.44521,11.83801 2.05295,30.15188 -0.6458,30.15188 -0.53298,0 -0.61232,-1.99702 -0.18873,-4.75 1.21256,-7.88056 0.76689,-18.34247 -1.09693,-25.75 -2.52184,-10.02274 -3.36176,-33.64118 -1.3958,-39.25 1.96421,-5.60385 0.65615,-5.39155 -3.08073,0.5 -2.90411,4.57861 -3.03546,5.29123 -3.64035,19.75 -0.34514,8.25 -0.85836,17.925 -1.14049,21.5 -0.700792,8.88007 -4.097402,22.13765 -6.192772,24.17148 -1.78342,1.73104 -7.09472,2.89939 -7.17594,1.57852 -0.20203,-3.28537 0.14879,-3.75 2.83144,-3.75 3.37853,0 4.37317,-1.0943 5.90796,-6.5 1.55086,-5.46226 3.52949,-34.61197 2.85089,-42 -0.91616,-9.97439 0.37285,-13.92895 6.634732,-20.35465 6.81152,-6.98972 7.21992,-7.80302 8.77094,-17.46669 1.59322,-9.92652 0.67575,-26.39187 -2.07163,-37.17866 -3.61727,-14.2022 -5.02321,-25.58736 -5.66117,-45.84365 -0.42602,-13.52703 -0.93121,-19.29641 -1.58704,-18.1245 -0.56882,1.01643 -0.68209,5.66855 -0.2771,11.381 0.90796,12.80683 -0.9369,30.31945 -3.72141,35.32596 -2.959372,5.32092 -3.299552,3.89551 -0.696822,-2.91981 2.990172,-7.82986 3.735172,-22.50134 1.564962,-30.819 l -1.565502,-6 0.580142,9.75 c 0.40115,6.74191 0.24282,9.75 -0.51319,9.75 -0.601352,0 -1.093352,1.575 -1.093352,3.5 0,3.61634 -1.5627,4.84126 -2.23258,1.75 -0.58865,-2.7164 -1.83542,18.80366 -1.31802,22.75 1.3865,10.57543 1.88365,12.763 3.52254,15.5 1.736632,2.90021 1.731012,3.19957 -0.16884,9 -3.02842,9.24606 -4.06093,9.21472 -3.26409,-0.0991 0.47706,-5.57615 0.32186,-8.79238 -0.49823,-10.32473 -0.66501,-1.24259 -1.58407,-9.81194 -2.08074,-19.40093 -1.11899,-21.60366 -5.3329,-49.70241 -7.17719,-47.85812 -0.484,0.484 -0.41777,2.84971 0.15081,5.38683 0.5576,2.48811 1.25149,12.12258 1.54198,21.40993 0.29049,9.28735 0.70359,18.46109 0.91798,20.38609 0.2144,1.925 0.67492,12.05 1.02337,22.5 0.44911,13.46885 0.33191,18.31106 -0.40262,16.63342 -1.50459,-3.43643 -4.21124,-31.57503 -4.44163,-46.17567 -0.10885,-6.89824 -0.49256,-13.01899 -0.85267,-13.60167 -0.36012,-0.58268 -1.12577,-6.05404 -1.70144,-12.15856 -1.4401,-15.27095 -2.40297,-17.55393 -3.8643,-9.16233 -0.94993,5.45491 -0.81332,8.65626 0.85264,19.98025 2.09672,14.25199 2.67726,32.98459 1.02223,32.98459 -0.54521,0 -0.91147,2.95912 -0.83547,6.75 0.0744,3.7125 -0.26513,9.45 -0.75457,12.75 -1.06759,7.19813 -1.07281,9.63978 -0.0619,29 0.4473,8.56667 1.39214,16.61701 2.20299,18.77024 0.78089,2.07363 1.42032,5.89863 1.42097,8.5 6.5e-4,2.60137 0.70605,8.10476 1.56755,12.22976 2.62296,12.55901 3.40262,18.19454 3.51124,25.37995 0.0846,5.59729 -0.30076,7.42741 -2.06705,9.81644 -2.00088,2.70635 -2.17288,4.12649 -2.1946,18.12005 -0.0208,13.39279 0.29425,16.36297 2.67107,25.18356 4.20104,15.59047 4.52112,17.86958 5.12601,36.5 0.65059,20.0378 0.66762,25.97071 0.16362,57 -0.201,12.375 0.0533,34.01596 0.56515,48.09102 0.51183,14.07506 0.58846,27.80006 0.1703,30.5 l -0.7603,4.90898 -1.43622,-4 c -1.17984,-3.28594 -1.51306,-16.49607 -1.86662,-74 -0.37313,-60.68681 -0.6528,-70.99784 -2.10205,-77.5 -0.9194,-4.125 -1.87068,-6.91029 -2.11395,-6.18953 -0.24327,0.72075 0.0352,3.20668 0.61874,5.52428 1.18823,4.71889 1.72674,26.91647 0.69354,28.58821 -1.84741,2.98918 -2.55139,0.0912 -2.59271,-10.67296 -0.0298,-7.75337 -0.51235,-12.77042 -1.41879,-14.75 -1.57141,-3.43184 -1.67566,-0.67743 -2.04388,54 -0.19373,28.76679 -1.38684,42.5 -3.69231,42.5 -1.18843,0 -0.98043,-4.63701 0.7714,-17.19711 0.87981,-6.308 1.31183,-13.69446 0.98169,-16.78439 -0.3243,-3.03517 -0.75393,-19.6935 -0.95475,-37.0185 -0.3174,-27.38358 -0.12874,-32.67612 1.44365,-40.5 2.61555,-13.01438 2.59126,-18.96038 -0.41198,-100.83373 -0.22908,-6.24517 -0.8804,-11.31674 -1.53778,-11.97412 -0.85385,-0.85385 -1.07151,8.40117 -0.86627,36.83373 0.25566,35.4162 0.14805,38.22781 -1.59748,41.74025 -1.93178,3.88725 -3.35723,5.33837 -4.309,4.3866 -0.30114,-0.30114 0.47076,-2.19517 1.71534,-4.20894 2.1767,-3.52197 2.22994,-4.14283 1.39814,-16.3026 -1.32184,-19.32348 -1.08146,-38.46132 0.94379,-75.14119 1.47744,-26.7585 1.63274,-35.71363 0.7717,-44.5 -0.59289,-6.05 -1.59249,-18.2 -2.22133,-27 -0.62885,-8.8 -1.75145,-19.825 -2.49468,-24.5 l -1.35133,-8.5 0.38943,14 c 0.21418,7.7 1.14869,17.825 2.07668,22.5 1.27935,6.44508 1.51723,10.79667 0.98395,18 -0.38682,5.225 -1.00205,20.15139 -1.3672,33.16975 -0.36514,13.01836 -0.97949,23.98396 -1.36522,24.368 -1.31415,1.30837 -2.06838,-4.72591 -1.4382,-11.50645 0.34576,-3.72023 0.20678,-8.06168 -0.30885,-9.64767 -0.51563,-1.586 -1.17133,-21.33363 -1.45711,-43.88363 -0.28578,-22.55 -0.53646,-41.1676 -0.55706,-41.37244 -0.0206,-0.20485 -0.74328,0.21334 -1.60597,0.9293 -1.28823,1.06915 -1.44593,2.60991 -0.88251,8.62245 0.42653,4.55171 0.31771,7.32069 -0.28771,7.32069 -0.53554,0 -1.27252,-3.7125 -1.63774,-8.25 -0.36521,-4.5375 -1.66741,-11.4 -2.89377,-15.25 l -2.22975,-7 -0.29423,5.01855 c -0.16183,2.7602 0.46913,11.5352 1.40214,19.5 3.04468,25.992 3.01484,33.98145 -0.127,33.98145 -1.75884,0 -1.95602,-3.62026 -0.41758,-7.66668 1.01042,-2.65759 0.91318,-4.40125 -1.52422,-27.33332 -0.20461,-1.925 -0.69109,-7.325 -1.08108,-12 -0.38999,-4.675 -1.11339,-9.4 -1.60754,-10.5 -0.64921,-1.44513 -0.76712,-0.89026 -0.425,2 1.20692,10.19644 1.80668,33.5 0.86218,33.5 -0.55907,0 -1.30647,-4.52984 -1.6912,-10.25 -0.64752,-9.62726 -2.22407,-18.45577 -3.13337,-17.54648 -0.22297,0.22298 0.29779,7.3559 1.15724,15.85095 1.88805,18.66181 1.86662,21.34251 -0.28481,35.6348 -1.41242,9.38295 -1.49051,12.28875 -0.48371,18 3.3844,19.1986 4.55743,56.79023 3.81666,122.31073 -0.0529,4.675 0.95048,15.025 2.22964,23 1.8576,11.58136 2.31264,18.22378 2.26066,33 -0.0631,17.9256 1.18067,30.08584 4.14225,40.5 0.69449,2.44213 1.17973,13.54197 1.2459,28.5 0.0697,15.76071 0.55831,26.46188 1.36974,30 1.46079,6.3696 2.22752,43.17812 0.94093,45.17133 -1.81985,2.81935 -2.88912,-1.78549 -2.71016,-11.67133 0.0996,-5.5 -0.62399,-16.075 -1.60791,-23.5 -1.03144,-7.78362 -1.90035,-21.54527 -2.05203,-32.5 -0.24537,-17.72025 -1.78079,-39.06075 -3.05752,-42.49591 -0.30579,-0.82275 -0.96961,-9.59775 -1.47517,-19.5 -1.77211,-34.71033 -2.30707,-40.74143 -5.32235,-60.00409 -1.03922,-6.63889 -1.01083,-9.27604 0.16684,-15.5 1.17363,-6.20257 1.21087,-9.40753 0.21526,-18.52676 -0.93057,-8.52358 -0.93647,-13.63131 -0.026,-22.5 0.99355,-9.67786 0.93101,-13.13041 -0.39968,-22.06324 -0.86765,-5.82451 -1.60918,-17.09498 -1.64783,-25.04551 -0.0387,-7.95052 -0.43806,-15.05056 -0.88756,-15.77786 -1.11728,-1.80782 -7.05353,13.71702 -7.05353,18.44685 0,1.9789 -0.46239,4.46199 -1.02753,5.51797 -0.56515,1.05598 -1.44087,3.83889 -1.94607,6.18425 -0.50519,2.34537 -2.33351,9.4393 -4.06294,15.7643 -7.06385,25.83445 -7.65547,32.27221 -4.36516,47.5 5.34333,24.72933 7.25376,33.2172 9.22818,41 1.77017,6.97764 2.1098,12.47281 2.65763,43 0.34545,19.25 1.1147,40.4 1.70944,47 1.46777,16.28804 1.5179,21.74837 0.20376,22.19429 -2.21191,0.75055 -7.80199,-45.4077 -7.00927,-57.87684 1.8807,-29.58292 1.85227,-35.10678 -0.22555,-43.81745 -1.11515,-4.675 -2.30196,-10.975 -2.63734,-14 -1.69885,-15.32305 -2.9255,-22.03282 -5.0274,-27.5 -5.04173,-13.11385 -6.11394,-29.54358 -2.77358,-42.5 1.20528,-4.675 3.37658,-13.225 4.82512,-19 1.44853,-5.775 5.06752,-17.81673 8.0422,-26.75941 2.97468,-8.94267 5.40162,-16.59267 5.3932,-17 -0.043,-2.07732 -2.33608,3.30005 -5.01469,11.75941 -2.53386,8.00222 -4.17753,11.06759 -10.42536,19.44278 -8.22894,11.03087 -11.33327,18.17613 -11.6675,26.85516 -0.1228,3.18887 -0.54499,5.99678 -0.93819,6.23979 -0.92669,0.57273 -2.25493,-8.21744 -1.44076,-9.53479 0.34091,-0.55162 0.37743,-1.00294 0.0811,-1.00294 -0.29628,0 -1.50704,1.89811 -2.69057,4.21803 -3.54988,6.95833 -4.80701,31.13706 -2.27033,43.6659 0.99835,4.93092 -1.43328,3.66281 -3.70088,-1.93003 -2.28758002,-5.64213 -2.48793002,-20.58108 -0.40843,-30.4539 1.6217,-7.69931 10.51452,-26.59452 15.82846,-33.63184 4.73558,-6.27139 15.12848,-23.76737 16.50408,-27.78388 0.96972,-2.83144 0.83944,-4.62753 -0.76166,-10.5 -1.06233,-3.89635 -2.2206,-9.78428 -2.57395,-13.08428 -0.75548,-7.05572 1.55449,-23.03257 4.36565,-30.19487 2.19428,-5.5906 3.95293,-17.55618 1.95553,-13.30513 -4.40357,9.37209 -6.02639,12.47123 -10.67684,20.38985 -2.87146,4.88942 -6.06909,11.40245 -7.10584,14.47341 -2.70702,8.01847 -4.31593,7.57931 -1.99288,-0.54397 1.07157,-3.74711 1.94832,-7.09227 1.94832,-7.43369 0,-0.34142 2.06736,-3.70373 4.59413,-7.47181 2.52676,-3.76807 4.18346,-6.98793 3.68154,-7.15523 -0.50192,-0.16731 0.1191,-3.33143 1.38005,-7.03138 2.97447,-8.72782 2.93251,-12.25832 -0.0681,-5.72718 -1.26342,2.75 -3.20176,5.80228 -4.30743,6.78285 -1.92869,1.71047 -2.00526,1.71047 -1.88596,0 0.0684,-0.98057 1.47015,-4.03285 3.11504,-6.78285 2.6536,-4.43642 2.9522,-5.73266 2.64914,-11.5 -0.18786,-3.575 -0.41286,-8.86321 -0.5,-11.75159 -0.1518,-5.03139 -0.28794,-5.27588 -3.24679,-5.83096 -1.84059,-0.3453 -4.64737,0.072 -6.94713,1.03293 -2.12234,0.88677 -4.4193,1.39722 -5.10436,1.13433 -0.68506,-0.26288 -2.58748,-0.0931 -4.22759,0.37727 -3.78983,1.08691 -4.42894,0.41997 -2.46698,-2.57436 1.46199,-2.23129 1.41713,-2.50005 -0.70402,-4.21765 l -2.26552,-1.83451 2.90197,-5.22522 c 2.8464,-5.12515 2.86456,-5.25302 0.94821,-6.67697 -4.04389,-3.00482 -0.69662,-13.44156 7.1948,-22.43327 9.56875,-10.90292 12.96961,-20.13095 10.67666,-28.97052 -0.71796,-2.76779 -1.55486,-7.3942 -1.85978,-10.28091 -1.2809,-12.127183 -2.1559,-16.385166 -3.85268,-18.748573 -7.7448,-10.787564 -8.20515,-11.99299 -8.20515,-21.48516 0,-8.505618 0.17909,-9.270572 3.17052,-13.5421 2.94777,-4.209192 3.09526,-4.809254 2.09919,-8.54103 -0.97303,-3.645455 -0.76843,-4.652344 2.22971,-10.97274 3.63353,-7.659884 11.98508,-18.456607 15.35141,-19.8460066 1.18204,-0.487871 4.13094,-1.760236 6.5531,-2.827479 2.42216,-1.067243 6.81618,-2.333045 9.76448,-2.812893 2.9483,-0.479848 5.76538,-1.1226519 6.26017,-1.4284526 3.36588,-2.08022921 26.14834,-2.41021821 33.29096,-0.4821978 2.35425,0.6354872 11.355332,1.3152814 20.002402,1.5106534 14.56694,0.329127 24.84657,1.923727 28.27806,4.386561 3.29729,2.366512 27.90902,9.6217956 35.65956,10.5120676 3.80249,0.436777 7.48493,1.749274 11.22255,3.99995 3.05965,1.842423 7.82535,4.101293 10.59044,5.01971 2.7651,0.918418 5.02745,2.066979 5.02745,2.552358 0,2.081006 8.73084,9.014246 13.8895,11.029782 3.08577,1.20564 6.5105,3.203712 7.6105,4.440159 2.21833,2.493502 6.5548,4.859609 10.75,5.86553 1.84529,0.442463 2.75,1.306966 2.75,2.627795 0,1.175044 1.51143,2.949824 3.75,4.403404 6.30904,4.096673 14.61264,13.391283 18.08831,20.247102 5.06548,9.991762 6.15239,16.304297 4.02811,23.39451 -0.96395,3.21738 -1.5138,3.74302 -3.67446,3.51266 -1.39749,-0.149 -3.92487,0.41425 -5.61642,1.25166 -5.81545,2.87896 -6.55178,3.18431 -7.81197,3.23949 -2.7383,0.1199 -9.72799,12.23059 -7.76064,13.44648 0.48544,0.30002 0.84188,2.67235 0.7921,5.27184 -0.17712,9.24717 1.06062,12.90723 6.30559,18.64607 6.09922,6.67351 7.88181,10.81775 7.69571,17.89126 l -0.14512,5.51537 -4.0756,0.48629 c -2.24159,0.26745 -6.30508,1.03758 -9.02998,1.71139 -3.76468,0.93093 -6.12427,0.95507 -9.82629,0.10054 -2.67956,-0.61851 -6.63759,-1.12457 -8.79563,-1.12457 -5.27678,0 -5.17729,1.88848 0.62565,11.87564 2.79437,4.80926 5.30398,10.87621 6.50554,15.72702 1.86208,7.51743 3.97093,23.04195 3.85749,28.39734 -0.0975,4.60381 -1.75267,-0.9367 -1.94178,-6.5 -0.0935,-2.75 -0.477,-6.10002 -0.85227,-7.44448 -0.57813,-2.07128 -0.94459,-1.50106 -2.40032,3.7349 -0.94491,3.39866 -1.71802,7.28462 -1.71802,8.63546 0,1.35085 -0.49918,2.76459 -1.10928,3.14166 -0.78625,0.48593 -0.90003,-0.55296 -0.39072,-3.56754 0.50931,-3.01458 0.39553,-4.05347 -0.39072,-3.56754 -0.75885,0.469 -1.11167,-0.99158 -1.11683,-4.62344 -0.011,-7.7002 -1.85105,-17.92126 -3.74623,-20.80902 l -1.64071,-2.5 -0.59059,2.46931 -0.5906,2.46931 -1.06484,-2.96931 c -0.58567,-1.63312 -1.81825,-6.10024 -2.73909,-9.92693 -0.92083,-3.8267 -2.03808,-7.2017 -2.48278,-7.5 -0.44469,-0.29831 -1.31889,-1.44238 -1.94266,-2.54238 -1.9118,-3.3714 -1.39819,0.4626 0.85674,6.39543 1.12787,2.96748 1.76712,6.11748 1.42055,7 -0.63374,1.61377 -0.8602,1.14321 -5.12332,-10.64543 -1.56921,-4.33928 -3.34892,-5.65994 -3.34892,-2.48511 0,0.97069 1.37284,4.57883 3.05075,8.0181 1.67791,3.43927 3.70893,8.11872 4.51338,10.39878 0.80445,2.28006 1.84457,4.63441 2.31137,5.2319 0.4668,0.59748 1.16893,2.42179 1.5603,4.05402 0.39137,1.63223 1.75265,5.23223 3.02508,8 1.27242,2.76777 2.60208,6.28675 2.9548,7.81995 0.35273,1.5332 4.23677,10.16712 8.6312,19.18649 10.37579,21.29579 12.39421,29.02339 11.43413,43.77587 -0.38478,5.9125 -1.05305,10.75 -1.48505,10.75 -0.43199,0 -0.84136,-4.15758 -0.9097,-9.23906 -0.0683,-5.08149 -0.57366,-12.16899 -1.12292,-15.75 -0.92498,-6.03055 -4.35355,-17.1873 -5.9959,-19.51094 -0.38873,-0.55 -1.26418,-2.72944 -1.94543,-4.84321 -0.68125,-2.11377 -2.96443,-7.51377 -5.07373,-12 -2.89448,-6.1562 -3.84898,-7.49678 -3.89169,-5.46581 -0.0311,1.48004 0.36037,2.94868 0.87,3.26365 0.50962,0.31496 2.25736,4.95402 3.88386,10.30901 6.39144,21.04274 7.6283,30.21259 5.61683,41.64197 -2.03393,11.55694 -1.83403,14.71841 1.98148,31.33793 3.4697,15.11322 8.01584,28.40022 11.52858,33.69454 4.80879,7.2477 16.27895,31.55588 15.65605,33.17914 -0.91952,2.39622 -1.89411,1.06665 -5.51579,-7.52485 -1.71745,-4.07419 -4.88261,-10.0432 -7.03368,-13.26446 -2.15107,-3.22126 -4.81648,-8.27682 -5.92312,-11.23458 -1.10664,-2.95776 -3.16118,-7.75973 -4.56564,-10.67104 -3.25015,-6.73724 -9.25678,-29.34515 -10.15356,-38.21623 -0.37773,-3.73667 -0.13368,-14.98667 0.54234,-25 l 1.22913,-18.20606 -4.01025,-11.5 c -3.78642,-10.85811 -4.01452,-11.24815 -4.08654,-6.98788 -0.0419,2.48167 1.04461,8.04379 2.41459,12.36027 1.36997,4.31648 2.24341,8.24853 1.94098,8.73788 -1.09733,1.77551 -2.28719,0.82033 -2.94018,-2.36027 -0.36698,-1.7875 -1.50925,-5.725 -2.53838,-8.75 -1.02913,-3.025 -2.57481,-12.63689 -3.43484,-21.35976 -1.21217,-12.29435 -2.10006,-17.01532 -3.94952,-21 -1.3122,-2.82713 -2.68481,-7.01266 -3.05023,-9.30118 -0.36542,-2.28852 -1.53162,-4.94576 -2.59155,-5.90499 -2.23512,-2.02275 -2.50612,-0.85742 -0.92903,3.99493 1.68739,5.1917 5.82884,25.3889 8.01154,39.071 1.14064,7.15 2.50955,14.37028 3.04203,16.04507 1.56654,4.92717 4.91368,39.05832 4.94796,50.45493 0.0185,6.1374 0.67613,12.99291 1.58288,16.5 1.4154,5.4744 4.44552,37.97777 6.33929,68 0.41632,6.6 1.25516,14.25 1.8641,17 2.15065,9.71252 3.50929,20.09322 3.66467,28 0.0865,4.4 0.75136,10.5565 1.47753,13.6811 1.56497,6.73382 0.75158,13.62789 -1.39743,11.84437 -1.49913,-1.24417 -2.05388,-5.51911 -3.57194,-27.52547 -0.72361,-10.48981 -1.75797,-17.40544 -3.44006,-23 -2.02024,-6.71928 -2.50754,-11.04172 -3.04388,-27 -0.35122,-10.45 -1.32689,-23.95 -2.16816,-30 -0.84127,-6.05 -1.87622,-15.275 -2.29988,-20.5 -0.42367,-5.225 -1.51368,-11.975 -2.42226,-15 -0.94763,-3.15498 -2.04339,-12.17886 -2.57002,-21.16461 -0.57257,-9.7696 -1.85428,-19.93041 -3.40585,-27 -1.36828,-6.23446 -2.44067,-13.36039 -2.38308,-15.83539 0.23872,-10.25961 -2.47116,-33.75337 -4.78681,-41.5 -1.31526,-4.4 -2.70319,-9.35 -3.08429,-11 -0.3811,-1.65 -1.51507,-4.35 -2.51994,-6 l -1.82704,-3 0.0157,4 c 0.009,2.2 0.66769,8.5 1.46455,14 1.66641,11.50159 1.89756,21.34234 0.55133,23.47104 -1.56365,2.47248 -2.02787,0.7264 -2.14052,-8.05107 -0.0594,-4.63099 -0.93174,-12.46997 -1.93847,-17.41997 -1.00673,-4.95 -2.1143,-11.27152 -2.46127,-14.04782 -0.34698,-2.77631 -1.08482,-5.70131 -1.63965,-6.5 -0.7306,-1.05172 -0.86595,-0.487 -0.49082,2.04782 0.28489,1.925 0.79025,7.55 1.12303,12.5 0.7857,11.68727 -1.13166,9.30849 -2.61021,-3.23836 -1.55474,-13.19331 -2.95153,-16.64238 -2.33333,-5.76164 0.53636,9.44035 1.28414,13.39846 6.2344,33 5.28205,20.9153 7.91325,37.9169 10.75594,69.5 0.81682,9.075 1.92988,18.38677 2.47348,20.69282 0.5436,2.30605 0.98873,6.35605 0.98918,9 4.5e-4,2.64395 0.72157,8.18218 1.6025,12.30718 0.88092,4.125 1.96525,9.975 2.40961,13 0.44437,3.025 1.55308,9.55 2.46381,14.5 3.86487,21.00634 5.08079,31.00382 7.54058,62 1.07885,13.59476 2.05142,22.19338 3.85894,34.1174 1.17604,7.7582 2.96552,29.35666 3.67453,44.35034 0.24623,5.20726 1.14236,15.33226 1.9914,22.5 0.84904,7.16774 1.78724,17.75726 2.0849,23.53226 0.3375,6.54818 1.47404,13.88728 3.01977,19.5 3.28796,11.93898 3.76457,14.12785 2.90232,13.32914 -0.39832,-0.36897 -2.0034,-4.36503 -3.56684,-8.88013 -1.56343,-4.5151 -3.23197,-8.59864 -3.70786,-9.07453 -0.487,-0.487 -2.0747,2.84856 -3.63189,7.63013 -1.52165,4.67247 -3.18873,8.49539 -3.70461,8.49539 -1.45595,0 -1.11937,-3.11715 1.05019,-9.72594 2.92864,-8.92109 4.20759,-19.43833 3.01237,-24.77166 -0.54908,-2.4501 -1.41388,-17.85295 -1.92178,-34.22856 -0.50791,-16.37561 -1.1615,-30.44884 -1.45243,-31.27384 -0.29092,-0.825 -1.01411,-8.03073 -1.60708,-16.01272 -0.59296,-7.982 -1.98807,-18.782 -3.10024,-24 -2.71534,-12.73963 -3.67861,-19.89599 -4.91127,-36.48728 -1.11274,-14.977 -1.38364,-16.85925 -6.62053,-46 -3.72566,-20.7315 -6.38446,-38.59789 -8.85453,-59.5 -1.48724,-12.58523 -3.56364,-26.68046 -5.67153,-38.5 -0.49043,-2.75 -1.0396,-9.5 -1.22037,-15 -0.18076,-5.5 -0.81985,-11.575 -1.4202,-13.5 -3.38105,-10.84132 -7.17728,-28.93648 -7.23785,-34.5 -0.0355,-3.2611 -0.23582,-3.66961 -1.0844,-2.21145 -0.72239,1.24131 -0.71395,4.45393 0.0276,10.5 1.43415,11.69316 1.42526,20.96263 -0.0187,19.51866 -0.61388,-0.61388 -1.71281,-10.01423 -2.50758,-21.45 -0.77814,-11.19647 -1.61999,-20.80721 -1.87077,-21.35721 -0.25079,-0.55 -0.35988,8.45 -0.24242,20 0.30339,29.8329 -0.33904,55.5 -1.38912,55.5 -0.90137,0 -1.09944,-7.86328 -0.9446,-37.5 0.048,-9.18364 -0.34364,-16.63903 -0.91925,-17.5 -0.70085,-1.04829 -1.00746,1.82758 -1.01816,9.55 -0.009,6.60992 -0.45258,11.48727 -1.10353,12.13822 -0.59853,0.59853 -1.33896,5.63853 -1.64542,11.2 -0.30647,5.56148 -0.94177,10.11178 -1.41179,10.11178 -1.40914,0 -0.96474,-12.31904 0.63459,-17.59107 0.81904,-2.69991 1.49404,-7.35744 1.5,-10.35006 0.01,-4.9979 -0.10878,-5.28301 -1.45738,-3.5 -1.39795,1.84827 -1.47198,1.79761 -1.54734,-1.05887 -0.14671,-5.56134 -0.94243,-12.7913 -1.46533,-13.3142 -0.28552,-0.28552 -0.51913,4.47931 -0.51913,10.58852 0,6.1092 -0.35691,11.32823 -0.79313,11.59783 -0.43623,0.2696 -0.63301,-4.99134 -0.4373,-11.69098 0.24841,-8.50375 -0.0654,-13.53969 -1.03948,-16.68117 -1.26975,-4.09509 -1.37194,-2.43048 -1.13572,18.5 0.27622,24.47461 1.32458,36.29561 3.84681,43.37573 0.85735,2.40665 1.55882,7.04873 1.55882,10.31574 0,8.49905 3.84287,14.80853 9.01933,14.80853 1.46888,0 3.37046,0.7875 4.22572,1.75 1.44762,1.62912 6.85982,16.47541 8.14791,22.35062 0.98955,4.51355 1.76106,19.83875 1.10309,21.91182 -1.29753,4.08816 -2.29655,1.75418 -2.25251,-5.26244 0.0514,-8.19361 -1.11387,-18.74913 -2.23555,-20.25 -0.41104,-0.55 -1.30508,-2.7305 -1.98675,-4.84555 -1.18915,-3.68959 -6.29359,-9.65445 -8.26182,-9.65445 -1.35512,0 -5.18459,-3.1634 -8.2738,-6.83472 -3.01272,-3.58041 -5.46508,-13.42668 -5.52051,-22.16491 -0.0192,-3.0252 -0.68533,-9.10037 -1.48032,-13.50037 -0.79499,-4.4 -1.45429,-9.48906 -1.46512,-11.30902 -0.0116,-1.9473 -0.43118,-3.05468 -1.01967,-2.69098 -0.55,0.33992 -1,1.70235 -1,3.02763 0,1.80704 -0.40376,2.25466 -1.6146,1.79002 -1.39807,-0.53649 -1.53218,0.0377 -1.00003,4.28138 0.33801,2.69554 0.85126,7.60097 1.14055,10.90097 0.2893,3.3 1.03692,8.25 1.66138,11 1.13317,4.9902 1.37149,12.33235 1.13605,35 -0.3506,33.75668 0.9432,38.587 16.10356,60.12161 4.4345,6.29901 5.51989,8.81085 10.10204,23.37839 2.89368,9.19957 3.28943,15.97221 1.50753,25.7988 -2.35302,12.97615 -2.75946,24.26542 -1.52525,42.36586 1.33123,19.52338 1.1242,21.48642 -3.2519,30.83534 -2.92324,6.24508 -4.36834,5.1593 -1.70948,-1.28442 1.43234,-3.47129 1.79436,-8.09982 2.05045,-26.21558 0.17105,-12.1 -0.0395,-25.6 -0.46797,-30 -0.55689,-5.71934 -0.3783,-9.85304 0.62646,-14.5 3.45095,-15.96042 -4.1712,-45.52952 -15.12996,-58.69466 -1.28436,-1.54294 -3.99905,-6.18034 -6.03266,-10.30534 l -3.69747,-7.5 -0.8609,-33.5 c -0.4798,-18.67026 -1.34274,-35.04645 -1.94935,-36.9934 -0.59865,-1.92137 -1.10249,-10.02137 -1.11964,-18 -0.0172,-7.97863 -0.68274,-19.9066 -1.47908,-26.5066 -0.79633,-6.6 -1.46419,-15.825 -1.48412,-20.5 -0.0347,-8.14199 -1.05584,-12.2831 -2.63855,-10.7004 -0.40792,0.40793 -0.20266,9.3949 0.45614,19.97104 1.45223,23.31356 1.51643,31.47285 0.23746,30.17936 -0.51663,-0.5225 -1.38897,-5.45 -1.93853,-10.95 l -0.9992,-10 0.38566,11 c 0.47452,13.53461 2.25692,34.47952 3.43909,40.41256 0.58579,2.93999 0.50352,5.27605 -0.24653,7 -1.11927,2.57255 -1.12772,2.5663 -1.46928,-1.08645 -0.35921,-3.84163 -2.40427,-6.45563 -4.18807,-5.35318 -1.30776,0.80824 -1.33567,3.9643 -0.0703,7.95607 5.6079,17.69151 7.05815,25.49653 8.00302,43.071 0.53226,9.9 1.23483,19.35 1.56125,21 0.57735,2.91838 0.54767,2.94559 -1.09094,1 -1.60761,-1.90878 -1.65723,-1.74914 -1.08806,3.5 0.83308,7.68298 6.2723,18.05868 14.11953,26.93403 7.53388,8.52093 8.72465,11.68717 10.57734,28.12474 2.36331,20.96807 -3.57458,54.97847 -11.77232,67.4282 -3.27304,4.9707 -4.01087,3.37625 -1.33085,-2.87597 2.89299,-6.74907 7.77625,-24.01348 8.94122,-31.611 0.54817,-3.575 1.27782,-13.925 1.62144,-23 0.57222,-15.11226 0.44876,-17.00463 -1.46791,-22.5 -2.62837,-7.5359 -6.40309,-12.99039 -15.57088,-22.5 -3.97674,-4.125 -7.76361,-8.4 -8.41529,-9.5 -0.95865,-1.61817 -1.0697,-0.68639 -0.58169,4.88065 0.33174,3.78435 1.21942,9.85935 1.97263,13.5 2.24252,10.83921 4.40291,40.36689 4.54495,62.11935 0.0521,7.975 0.15499,18.325 0.22868,23 0.0737,4.675 -0.16023,11.2 -0.51982,14.5 -0.35959,3.3 -1.11341,11.625 -1.67515,18.5 -0.56175,6.875 -1.67673,14.93462 -2.47774,17.91027 -0.89705,3.33241 -1.71133,13.1259 -2.12018,25.5 -0.69445,21.01791 0.69586,35.53102 4.04735,42.24925 1.39072,2.78777 3.20449,18.34048 2.13888,18.34048 -0.298,0 -1.01021,-1.9125 -1.58269,-4.25 z M 81.927578,419.5031 c -1.08961,-1.69929 -1.11783,-1.69711 -0.57078,0.0441 0.31653,1.00748 0.61104,2.35748 0.65446,3 0.057,0.84316 0.21579,0.83088 0.57077,-0.0441 0.27051,-0.66678 -0.024,-2.01678 -0.65445,-3 z M 132.62164,302.46542 c -0.25153,-0.9625 -0.45733,-0.175 -0.45733,1.75 0,1.925 0.2058,2.7125 0.45733,1.75 0.25152,-0.9625 0.25152,-2.5375 0,-3.5 z m -93.449312,-54.75 c 0.26228,-6.6 0.20308,-14.7 -0.13157,-18 -0.59547,-5.87205 -0.63411,-5.93602 -1.81167,-3 -2.69279,6.71392 -3.50372,12.16107 -2.86579,19.25 0.36761,4.08509 0.26175,7.25 -0.2425,7.25 -0.89661,0 -0.62832,7.4332 0.50532,14 l 0.60421,3.5 1.73256,-5.5 c 1.05704,-3.35556 1.9185,-10.17878 2.20944,-17.5 z m 104.759272,8.67857 c 3.9e-4,-0.17678 -0.68638,-1.00852 -1.52616,-1.8483 -1.0842,-1.0842 -1.33874,-2.52971 -0.87796,-4.9859 1.14126,-6.08344 -1.62784,-39.26604 -3.7245,-44.63139 -1.02887,-2.63286 -1.87067,-6.0402 -1.87067,-7.57186 0,-3.35073 -3.1824,-13.09391 -3.73519,-11.43556 -0.21421,0.64263 0.15615,3.78427 0.82302,6.98143 0.66687,3.19716 1.57719,12.33801 2.02292,20.31301 0.44574,7.975 1.28914,17.65 1.87423,21.5 0.58508,3.85 1.32318,10.43707 1.6402,14.63794 0.54978,7.28498 0.68725,7.63156 2.97491,7.5 1.31917,-0.0759 2.39882,-0.28258 2.3992,-0.45937 z M 47.239158,223.21542 c -0.10623,-6.325 -0.86769,-17.575 -1.69212,-25 l -1.49897,-13.5 0.48982,12.03563 c 0.2694,6.6196 0.17894,12.34652 -0.20104,12.72649 -0.68575,0.68576 -0.62767,15.50009 0.0756,19.27071 0.20178,1.08195 0.41499,3.76717 0.4738,5.96717 0.096,3.59132 0.23153,3.79566 1.32651,2 0.80658,-1.32271 1.15418,-5.89443 1.02644,-13.5 z m 104.410732,-0.73625 c -0.22985,-1.52006 -0.42406,-0.51375 -0.43157,2.23625 -0.007,2.75 0.18056,3.99369 0.41792,2.76375 0.23736,-1.22994 0.24351,-3.47994 0.0136,-5 z m -0.11341,-6.99292 c -0.3323,-0.33229 -0.56864,0.25834 -0.52522,1.3125 0.048,1.16495 0.28494,1.4019 0.60416,0.60417 0.28887,-0.72188 0.25335,-1.58438 -0.0789,-1.91667 z m -24.44355,-4.24026 c -0.59861,-6.0148 -4.1625,-13.39686 -8.48079,-17.56672 -2.29891,-2.21989 -5.19233,-5.58855 -6.42983,-7.48592 l -2.25,-3.44977 0,2.84158 c 0,8.214 5.11039,20.69882 10.69117,26.11881 4.59665,4.46421 6.9428,4.29812 6.46945,-0.45798 z m -31.622162,-4.56903 c -0.38688,-3.09646 -0.94572,-5.38761 -1.24187,-5.09146 -0.29616,0.29615 -0.22193,3.07192 0.16495,6.16838 0.38688,3.09646 0.94572,5.38761 1.24187,5.09146 0.29616,-0.29615 0.22193,-3.07192 -0.16495,-6.16838 z m 55.150872,1.78846 c -0.25153,-0.9625 -0.45733,-0.175 -0.45733,1.75 0,1.925 0.2058,2.7125 0.45733,1.75 0.25152,-0.9625 0.25152,-2.5375 0,-3.5 z m 11.85612,-22.79545 c -0.38251,-2.55082 -0.94094,-4.3924 -1.24094,-4.0924 -0.3,0.3 -0.23248,2.63249 0.15004,5.1833 0.38251,2.55082 0.94094,4.3924 1.24094,4.0924 0.3,-0.3 0.23248,-2.63249 -0.15004,-5.1833 z m 16.05872,-8.18372 c -0.3323,-0.33229 -0.56864,0.25834 -0.52522,1.3125 0.048,1.16495 0.28494,1.4019 0.60416,0.60417 0.28887,-0.72188 0.25335,-1.58438 -0.0789,-1.91667 z m -48.2841,107.72917 c 0,-3.575 0.1815,-5.0375 0.40333,-3.25 0.22182,1.7875 0.22182,4.7125 0,6.5 -0.22183,1.7875 -0.40333,0.325 -0.40333,-3.25 z"
     id="path2987"
     inkscape:connector-curvature="0" />
</svg>
