<?xml version="1.0" encoding="UTF-8" standalone="no"?>
<!-- Created with Inkscape (http://www.inkscape.org/) -->

<svg
   xmlns:dc="http://purl.org/dc/elements/1.1/"
   xmlns:cc="http://creativecommons.org/ns#"
   xmlns:rdf="http://www.w3.org/1999/02/22-rdf-syntax-ns#"
   xmlns:svg="http://www.w3.org/2000/svg"
   xmlns="http://www.w3.org/2000/svg"
   xmlns:sodipodi="http://sodipodi.sourceforge.net/DTD/sodipodi-0.dtd"
   xmlns:inkscape="http://www.inkscape.org/namespaces/inkscape"
   id="svg2"
   version="1.1"
   inkscape:version="0.48.2 r9819"
   width="1831.511"
   height="1601.2369"
   sodipodi:docname="french_rabbitb.png">
  <metadata
     id="metadata8">
    <rdf:RDF>
      <cc:Work
         rdf:about="">
        <dc:format>image/svg+xml</dc:format>
        <dc:type
           rdf:resource="http://purl.org/dc/dcmitype/StillImage" />
        <dc:title></dc:title>
      </cc:Work>
    </rdf:RDF>
  </metadata>
  <defs
     id="defs6" />
  <sodipodi:namedview
     pagecolor="#ffffff"
     bordercolor="#666666"
     borderopacity="1"
     objecttolerance="10"
     gridtolerance="10"
     guidetolerance="10"
     inkscape:pageopacity="0"
     inkscape:pageshadow="2"
     inkscape:window-width="1600"
     inkscape:window-height="876"
     id="namedview4"
     showgrid="false"
     fit-margin-top="0"
     fit-margin-left="0"
     fit-margin-right="0"
     fit-margin-bottom="0"
     inkscape:zoom="0.35355339"
     inkscape:cx="920.32643"
     inkscape:cy="775.82474"
     inkscape:window-x="0"
     inkscape:window-y="24"
     inkscape:window-maximized="1"
     inkscape:current-layer="svg2" />
  <path
     style="fill:#000000"
     d="m 1306.7137,1600.0878 c -33.5779,-3.3475 -91.6236,-10.4558 -93.4758,-11.4471 -1.1663,-0.6241 -2.0242,-2.0972 -2.0242,-3.4755 0,-3.1984 -4.0124,-6.2022 -10.9076,-8.1656 -3.0758,-0.8759 -8.045,-2.9774 -11.0425,-4.6701 -7.6378,-4.3128 -23.3465,-17.1528 -31.3005,-25.5844 -7.7796,-8.2468 -10.7877,-13.4662 -10.0338,-17.4097 0.6426,-3.3618 -2.0226,-7.6067 -12.7378,-20.2878 -22.1849,-26.2548 -38.7426,-60.1395 -44.4278,-90.9198 -3.3443,-18.1058 -7.0297,-27.5252 -16.6441,-42.539 -5.9238,-9.2505 -9.0625,-12.3635 -11.6409,-11.5451 -1.0478,0.3325 -5.9236,4.2569 -10.835,8.7208 -18.8519,17.134 -31.4561,24.927 -46.5281,28.7676 -4.1789,1.0649 -17.00387,2.8953 -28.49997,4.0676 -37.2529,3.7987 -43.3274,5.3578 -74.4916,19.1186 -21.7311,9.5956 -38.3548,15.2693 -49.4103,16.8638 -17.3904,2.5082 -19.7874,3.0307 -25.1339,5.4784 -3.0476,1.3952 -6.9114,3.6898 -8.5862,5.0991 -5.4275,4.5669 -22.8402,12.3101 -34.6006,15.3864 -6.2264,1.6288 -17.0264,3.7366 -24,4.6842 -6.9736,0.9476 -12.8559,1.8638 -13.0718,2.036 -1.2793,1.021 4.0015,4.3792 17.0471,10.8406 23.2456,11.5136 48.0465,29.7753 69.3203,51.043 13.8795,13.8755 20.814,23.7146 20.9372,29.707 0.081,3.9258 -0.1961,4.41 -3.4252,5.9902 -5.4787,2.6811 -19.0929,3.6713 -65.4869,4.7633 -56.1654,1.322 -84.7749,3.4243 -116,8.5243 -39.3521,6.4273 -151.0775,5.8921 -221,-1.0587 -39.7389,-3.9503 -109.8402,-19.1719 -136.3193,-29.6 -4.0256,-1.5853 -10.1806,-4.8417 -13.6778,-7.2363 -12.425,-8.5075 -29.2846,-11.0451 -90.5029,-13.6214 -15.053,-0.6335 -28.5726,-1.7163 -33,-2.643 -14.5891,-3.0535 -35.6185,-9.5765 -44.8123,-13.9002 -32.0011,-15.0494 -73.8612,-53.1662 -91.5697,-83.3812 -1.8452,-3.1483 -5.7023,-11.5386 -8.5714,-18.6451 -2.8691,-7.1065 -8.5371,-19.8091 -12.5954,-28.2281 -7.553,-15.6687 -10.1800005,-23.4133 -12.8873005,-37.9935 -6.5263,-35.1482 -6.3347,-97.3029 0.3805,-123.4523 2.1745,-8.4675 8.0107005,-21.6883 11.7223005,-26.5544 4.0536,-5.3146 7.6916,-6.3982 15.4243,-4.5943 7.7459,1.807 10.3063,1.2987 11.7638,-2.3356 0.6093,-1.5195 1.5357,-9.7377 2.0585,-18.2627 0.7035,-11.4705 1.9976,-20.4394 4.9778,-34.5 2.215,-10.45 6.098,-28.9 8.6289,-41 10.4675,-50.0444 16.6351,-69.7372 30.6458,-97.8502 12.2204,-24.52066 30.0444,-52.75164 47.4417,-75.14164 23.5588,-30.3196 56.7476,-65.54808 64.3925,-68.34984 7.0241,-2.57425 11.6551,-5.30629 19,-11.20882 12.7053,-10.2103 36.4783,-23.90911 82,-47.25123 71.0712,-36.44307 105.9559,-50.88038 167.5,-69.32112 61.4617,-18.41607 113.5178,-31.33399 128.5974,-31.91196 6.62,-0.25373 8.1638,-0.68876 12,-3.38152 17.5638,-12.32859 117.4126,-20.50842 250.4026,-20.51352 79.6462,-0.003 114.208,1.67617 155.13107,7.53721 11.9834,1.71628 17.3917,2.0064 27.8689,1.49504 34.0128,-1.66009 79.8347,-9.23843 101.4183,-16.77326 22.4809,-7.84805 52.386,-27.68013 70.1453,-46.51802 9.2039,-9.7628 12.3474,-15.02612 16.5169,-27.65487 9.5094,-28.80287 18.3862,-50.38689 24.1946,-58.82948 2.6225,-3.81191 3.0179,-5.33802 3.3231,-12.8267 0.1905,-4.675 -0.017,-10.83259 -0.4606,-13.68353 -1.0946,-7.03115 0.726,-15.52336 3.9705,-18.52058 4.2604,-3.93571 6.2998,-9.17392 7.4853,-19.22612 2.0988,-17.79606 -2.1585,-48.99598 -9.6373,-70.62813 -9.8817,-28.58221 -50.5347,-96.71183 -75.2866,-126.17159 -2.6479,-3.15147 -7.649,-10.80147 -11.1137,-17 -7.2284,-12.93203 -13.6275,-22.67572 -25.1313,-38.26631 -33.3887,-45.25041 -78.4503,-135.393192 -80.6013,-161.237968 -0.7251,-8.71174 1.0918,-20.28919 4.279,-27.26577 6.2323,-13.64234 25.484,-23.7841404 51.4758,-27.11746038 16.0256,-2.05520002 31.737,1.95181998 57.4456,14.65092038 28.3635,14.01046 53.4614,32.54704 70.8623,52.336776 5.2758,6.00006 12.1085,13.20883 15.1838,16.01948 7.3034,6.67488 9.9846,6.76783 19.7943,0.6862 12.6842,-7.86375 17.598,-9.07196 36.636,-9.008 14.8668,0.05 17.3414,0.31424 25,2.67001 11.8299,3.63883 21.0776,7.96392 30.6581,14.33857 14.5389,9.673812 31.4531,28.584502 34.6509,38.740872 3.643,11.57018 3.5104,8.74713 6.7,142.68263 1.4357,60.29141 3.2104,80.22152 8.2609,92.77426 2.9259,7.2722 5.9636,9.41926 14.6378,10.34609 7.8451,0.83825 11.9055,2.62623 16.5803,7.30099 3.2648,3.26477 7.8795,4.95648 16.5166,6.0548 7.2069,0.91644 14.3009,5.6109 19.0526,12.60807 l 4.134,6.08765 1.9415,-2.08387 c 1.8538,-1.98988 2.1089,-2.01208 5.6543,-0.49207 8.8189,3.78076 11.6536,4.50545 34.4978,8.81928 9.4148,1.77785 17.6765,5.41367 22.7814,10.02564 4.903,4.42954 9.1891,5.54324 21.4338,5.56925 12.0917,0.0257 24.5123,2.46836 41.0761,8.07812 16.359,5.54042 29.4158,12.44102 31.5416,16.66985 2.4858,4.94514 3.6544,5.97661 7.6127,6.71919 6.2035,1.16379 12.9063,5.22881 22.0245,13.35716 4.8098,4.28764 15.9451,13.81547 24.7451,21.17296 28.9455,24.20072 36.7621,31.22921 58.3623,52.47792 29.8113,29.32629 46.7858,48.92973 54.9059,63.40953 3.5084,6.25619 3.6913,7.0268 3.4622,14.58504 -0.2836,9.35554 -3.8366,24.95936 -8.1634,35.85148 -14.2716,35.92668 -42.2416,71.28317 -84.067,106.2678 -11.1007,9.28514 -15.8735,12.40086 -18.9963,12.40086 -4.6019,0 -13.8796,6.51386 -35.8748,25.18762 -10.6852,9.07175 -19.3888,15.13234 -24.8959,17.33583 -10.2292,4.0929 -18.7293,23.57735 -45.7963,104.97654 -17.1885,51.69148 -21.9848,64.89638 -35.8442,98.68464 -3.0873,7.5266 -6.3294,16.7516 -7.2046,20.5 -3.1114,13.3264 -8.0234,21.1387 -27.1382,43.1623 -14.3757,16.5633 -19.0542,22.898 -20.3264,27.5222 -1.6704,6.071 -13.1385,30.4135 -23.4848,49.8491 -6.9853,13.122 -9.4385,18.6848 -9.4385,21.4024 0,2.9725 -0.8571,4.5882 -4.5,8.4828 -2.475,2.6459 -4.5,5.4138 -4.5,6.1507 0,0.737 -1.7473,3.0461 -3.8829,5.1315 -2.1356,2.0854 -5.5988,7.1269 -7.6959,11.2035 -4.9883,9.6967 -7.9082,12.4309 -14.1591,13.2587 -4.81,0.637 -5.151,0.9186 -14.7154,12.1521 -5.3852,6.325 -19.5795,22.075 -31.543,35 -26.2038,28.3099 -42.1646,46.4205 -53.5643,60.7791 -12.1579,15.3135 -13.1961,19.8441 -9.4806,41.3715 2.2166,12.8426 6.7993,30.1066 14.0606,52.9687 4.3,13.5383 5.4761,16.1501 8.8271,19.6031 8.5728,8.8337 19.8352,14.5765 38.0598,19.4074 6.3765,1.6902 17.2187,5.3156 24.0937,8.0565 17.0838,6.8107 60.9395,28.5952 69.4455,34.4957 14.5502,10.0933 23.7515,31.4045 17.863,41.373 -3.3623,5.6918 -15.6796,9.0754 -51.0567,14.0253 -25.5577,3.576 -32.0864,4.7504 -55.7518,10.0289 -28.0839,6.2641 -37.1931,8.7284 -48.5,13.1211 l -10.5,4.0792 -16,0.2731 c -8.8,0.1502 -22.3,-0.355 -30,-1.1226 z"
     id="path2987"
     inkscape:connector-curvature="0" />
</svg>
