<?xml version="1.0" encoding="UTF-8" standalone="no"?>
<!-- Created with Inkscape (http://www.inkscape.org/) -->

<svg
   xmlns:dc="http://purl.org/dc/elements/1.1/"
   xmlns:cc="http://creativecommons.org/ns#"
   xmlns:rdf="http://www.w3.org/1999/02/22-rdf-syntax-ns#"
   xmlns:svg="http://www.w3.org/2000/svg"
   xmlns="http://www.w3.org/2000/svg"
   xmlns:sodipodi="http://sodipodi.sourceforge.net/DTD/sodipodi-0.dtd"
   xmlns:inkscape="http://www.inkscape.org/namespaces/inkscape"
   id="svg2"
   version="1.1"
   inkscape:version="0.48.2 r9819"
   width="634.12549"
   height="875.82489"
   sodipodi:docname="M - Treantb.png">
  <metadata
     id="metadata8">
    <rdf:RDF>
      <cc:Work
         rdf:about="">
        <dc:format>image/svg+xml</dc:format>
        <dc:type
           rdf:resource="http://purl.org/dc/dcmitype/StillImage" />
        <dc:title></dc:title>
      </cc:Work>
    </rdf:RDF>
  </metadata>
  <defs
     id="defs6" />
  <sodipodi:namedview
     pagecolor="#ffffff"
     bordercolor="#666666"
     borderopacity="1"
     objecttolerance="10"
     gridtolerance="10"
     guidetolerance="10"
     inkscape:pageopacity="0"
     inkscape:pageshadow="2"
     inkscape:window-width="1600"
     inkscape:window-height="876"
     id="namedview4"
     showgrid="false"
     fit-margin-top="0"
     fit-margin-left="0"
     fit-margin-right="0"
     fit-margin-bottom="0"
     inkscape:zoom="1"
     inkscape:cx="324.12549"
     inkscape:cy="439"
     inkscape:window-x="0"
     inkscape:window-y="24"
     inkscape:window-maximized="1"
     inkscape:current-layer="svg2" />
  <path
     style="fill:#000000"
     d="m 189.12549,872.1784 c 0,-4.20982 5.01212,-12.45719 10.99414,-18.09071 3.52473,-3.31939 9.57005,-6.2138 13.04914,-6.24774 0.84881,-0.008 4.10041,-2.1772 7.2258,-4.81981 3.79236,-3.20656 7.35276,-5.23281 10.70391,-6.09169 7.71538,-1.97739 9.86985,-6.0166 10.72306,-20.10356 0.24984,-4.125 0.87044,-7.9275 1.3791,-8.45 0.50867,-0.5225 0.92485,-4.27883 0.92485,-8.34739 l 0,-7.39739 5.89809,-5.65261 c 5.35216,-5.1294 5.94404,-6.11541 6.3945,-10.65261 0.27303,-2.75 1.20308,-7.925 2.06678,-11.5 0.8637,-3.575 1.58618,-10.8875 1.6055,-16.25 0.0288,-7.97993 -0.28258,-10.06963 -1.71487,-11.51059 -5.0973,-5.12815 -6.25,-7.51313 -6.25,-12.93145 0,-5.65917 -1.46575,-13.56763 -3.06633,-16.54439 -1.99323,-3.70701 -0.86514,-8.56789 5.22781,-22.52626 1.6444,-3.76717 1.82234,-6.47314 1.53077,-23.27791 -0.25748,-14.83974 -0.0403,-19.25556 0.98891,-20.10975 0.72536,-0.602 1.31884,-1.72294 1.31884,-2.49099 0,-0.76805 1.29263,-3.81879 2.87252,-6.77942 1.66073,-3.11215 3.16528,-7.85003 3.56651,-11.23111 0.71701,-6.04206 2.33707,-11.96484 3.83872,-14.03395 0.47333,-0.65219 0.58227,-6.95219 0.24209,-14 -0.34018,-7.0478 -0.78593,-18.88918 -0.99054,-26.31418 -0.79496,-28.84765 -1.64836,-37.04559 -4.52829,-43.5 -1.47245,-3.3 -2.97031,-8.83324 -3.32858,-12.2961 -0.35827,-3.46285 -1.18907,-7.28785 -1.84621,-8.5 -1.15116,-2.12337 -1.75874,-4.84253 -3.73245,-16.7039 -1.04945,-6.30686 -1.97314,-9 -3.08682,-9 -1.31347,0 -4.20496,7.04162 -3.57045,8.69512 0.68319,1.78036 -2.17434,13.05408 -3.8793,15.30488 -0.62493,0.825 -1.89867,3.1875 -2.83054,5.25 -0.93187,2.0625 -2.3362,3.75 -3.12074,3.75 -1.75926,0 -9.60592,5.04624 -9.60592,6.17763 0,0.4523 -0.85186,0.82237 -1.89301,0.82237 -1.04116,0 -2.15203,0.675 -2.46862,1.5 -0.31658,0.825 -1.45852,1.5 -2.53764,1.5 -1.07913,0 -3.45575,0.93583 -5.28139,2.07961 -8.16089,5.11292 -16.80431,9.92039 -17.83599,9.92039 -0.61942,0 -1.80121,0.675 -2.62621,1.5 -0.825,0.825 -2.39744,1.5 -3.49431,1.5 -1.09687,0 -2.97723,0.55242 -4.17857,1.2276 -1.20134,0.67518 -5.94966,2.81268 -10.55182,4.75 -7.37958,3.1065 -8.64885,4.02738 -10.75,7.79924 -1.31034,2.35226 -2.38244,4.7716 -2.38244,5.3763 0,0.6047 -1.35,3.75608 -3,7.00306 -1.76852,3.48023 -3,7.46072 -3,9.69688 0,3.35871 0.59123,4.27421 5.16082,7.99141 2.83845,2.30897 6.32595,4.47065 7.75,4.80372 1.42405,0.33307 3.93918,1.84704 5.58918,3.36439 3.11605,2.86553 6.19522,3.7899 15.5,4.65313 3.025,0.28063 5.9275,0.92065 6.45,1.42226 0.5225,0.5016 2.84247,0.91201 5.1555,0.91201 4.61906,0 12.3945,3.5667 12.3945,5.68552 0,1.75596 -1.46385,1.66543 -3,-0.18552 -0.68469,-0.825 -2.0959,-1.5 -3.13601,-1.5 -1.04012,0 -2.67252,-0.40908 -3.62756,-0.90908 -0.95504,-0.49999 -6.67305,-1.4548 -12.7067,-2.1218 -6.03364,-0.66699 -11.88364,-1.5713 -13,-2.00956 -1.11635,-0.43827 -2.70473,-1.06342 -3.52973,-1.38922 -0.825,-0.3258 -2.85,-1.48073 -4.5,-2.56651 -1.65,-1.08577 -3.99453,-2.41285 -5.21007,-2.94905 -1.21553,-0.5362 -3.12803,-1.89288 -4.25,-3.01485 -3.02984,-3.02984 -4.32069,-2.59469 -3.49223,1.17725 0.94895,4.32054 2.11397,6.16126 7.7023,12.16955 2.6125,2.80882 4.75,5.67087 4.75,6.36011 0,0.68924 0.81,1.25316 1.8,1.25316 0.99,0 2.2275,0.37175 2.75,0.82612 0.5225,0.45437 2.75,1.32166 4.95,1.92732 2.2,0.60565 6.925,1.97734 10.5,3.04819 7.1673,2.14687 20.43685,2.91858 21.46898,1.24856 0.82407,-1.33337 5.53102,-1.38329 5.53102,-0.0587 0,0.54534 -0.9,1.55358 -2,2.24054 -2.8015,1.74957 -2.49011,2.76793 0.84636,2.76793 1.5655,0 4.17061,0.66062 5.78914,1.46805 2.89438,1.44391 6.43179,1.85086 11.3645,1.30739 1.67797,-0.18487 2.5,0.21778 2.5,1.22456 0,2.23035 -10.61391,2.62669 -13.83432,0.5166 -1.32699,-0.86948 -4.80953,-1.86474 -7.73898,-2.21169 -2.92945,-0.34695 -6.47387,-1.22971 -7.87648,-1.9617 -1.40262,-0.73199 -4.95721,-1.33366 -7.89909,-1.33705 -2.94188,-0.003 -6.76688,-0.63561 -8.5,-1.40493 -1.73312,-0.76933 -4.95113,-1.87442 -7.15113,-2.45576 -2.2,-0.58134 -6.44225,-1.74714 -9.42722,-2.59067 -2.98498,-0.84353 -5.61935,-1.34156 -5.85417,-1.10674 -1.35123,1.35123 1.87633,6.20584 5.34993,8.0469 2.1623,1.14605 4.90207,2.91766 6.08837,3.93691 1.88154,1.6166 8.77342,4.40204 18.83649,7.61299 1.64637,0.52533 4.02768,0.95514 5.29181,0.95514 1.26413,0 3.26445,0.9 4.44516,2 1.25066,1.16517 3.529,2 5.45819,2 1.82129,0 3.31144,0.51296 3.31144,1.1399 0,1.62701 -10.52301,0.40266 -13.54227,-1.57564 -1.31305,-0.8603 -3.50164,-1.56422 -4.86353,-1.56422 -1.36189,0 -2.75428,-0.45 -3.0942,-1 -0.33992,-0.55 -1.91492,-1 -3.5,-1 -1.58508,0 -3.16008,-0.45 -3.5,-1 -0.63583,-1.02879 -5.5,-1.43079 -5.5,-0.45455 0,0.3 1.125,1.67046 2.5,3.04546 2.68222,2.68222 3.20901,4.40909 1.34501,4.40909 -0.65499,0 -0.37144,0.86581 0.65499,2 0.99549,1.1 2.87251,2 4.17117,2 1.71262,0 2.81831,0.95859 4.02539,3.48986 0.91531,1.91943 2.48303,3.74975 3.48382,4.06739 2.20998,0.70142 2.41587,2.44275 0.28882,2.44275 -0.84194,0 -3.71089,-2.25 -6.37544,-5 -2.66455,-2.75 -5.64571,-5 -6.62481,-5 -2.94941,0 -8.3568,-4.71287 -7.80935,-6.80632 0.26472,-1.01229 -0.49484,-3.49499 -1.68792,-5.51711 -1.19308,-2.02211 -1.78728,-3.67825 -1.32046,-3.68031 0.46683,-0.002 -0.67887,-0.93506 -2.54599,-2.07334 -1.86712,-1.13828 -4.03677,-2.7116 -4.82143,-3.49626 -2.06413,-2.06413 -3.82042,-1.77648 -8.07993,1.32334 -4.08285,2.97126 -4.67616,3.44328 -10.70387,8.51565 -2.2,1.85132 -5.49777,4.40466 -7.32838,5.6741 l -3.32838,2.30806 0.32838,-2.83436 c 0.22817,-1.96941 1.01751,-2.99901 2.58662,-3.3739 1.24204,-0.29675 3.94204,-2.15074 6,-4.11997 2.05797,-1.96922 4.52926,-3.8676 5.49176,-4.21861 0.9625,-0.35101 1.75,-1.06562 1.75,-1.58803 0,-0.5224 1.65781,-1.99902 3.68402,-3.28138 2.02621,-1.28236 4.12812,-2.63066 4.67093,-2.99622 0.61509,-0.41424 0.41698,-1.5445 -0.52583,-3 -0.83201,-1.28444 -1.81457,-3.56118 -2.18348,-5.05942 -0.3689,-1.49824 -1.79009,-4.37354 -3.15819,-6.38955 -1.3681,-2.016 -2.48745,-4.26183 -2.48745,-4.99073 0,-0.7289 -0.9,-1.80694 -2,-2.39564 -1.14983,-0.61537 -2,-2.09382 -2,-3.47802 0,-1.32421 -0.97544,-4.06091 -2.16765,-6.08155 -1.75673,-2.97744 -1.9463,-4.02833 -1,-5.54359 0.64221,-1.02834 1.16765,-2.3297 1.16765,-2.89193 0,-0.56222 1.11654,-2.27535 2.48119,-3.80694 2.55184,-2.86401 7.50718,-11.90656 7.51462,-13.71278 0.002,-0.55814 0.90419,-2.69401 2.00419,-4.74637 1.1,-2.05237 2,-4.1832 2,-4.7352 0,-1.30464 -4.69401,-1.30773 -5.5,-0.004 -0.33992,0.55 -1.46115,1 -2.49163,1 -1.03048,0 -2.12776,0.7875 -2.43841,1.75 -0.31065,0.9625 -1.91597,2.51657 -3.56739,3.45349 -1.80372,1.02333 -3.00257,2.52061 -3.00257,3.75 0,1.17981 -0.65495,2.04651 -1.54651,2.04651 -0.85058,0 -2.31308,1.35116 -3.25,3.00257 -0.93692,1.65142 -2.39815,3.22728 -3.24717,3.50191 -0.84903,0.27463 -3.1558,2.01993 -5.12617,3.87843 -1.97037,1.85851 -4.32744,3.79601 -5.23794,4.30555 -0.92638,0.51842 -1.87841,2.66278 -2.1617,4.86899 -0.84967,6.61711 -2.71706,14.87774 -3.6379,16.09267 -1.19865,1.58148 1.12352,10.34348 3.3845,12.77036 1.00259,1.07616 1.82289,2.54679 1.82289,3.26808 0,0.72129 0.45,1.31144 1,1.31144 0.55,0 1,0.49152 1,1.09227 0,0.60075 0.89387,2.22864 1.98637,3.61754 1.09251,1.38889 1.72877,2.94208 1.41392,3.45153 -0.31486,0.50945 -0.12363,1.46906 0.42496,2.13246 1.54401,1.86718 0.23556,6.86365 -1.70121,6.49627 -1.17616,-0.2231 -1.70885,-1.63393 -1.93156,-5.11576 -0.2359,-3.68819 -1.13994,-5.89824 -3.88236,-9.49101 -1.96616,-2.57581 -4.07778,-4.6833 -4.69248,-4.6833 -0.6147,0 -1.25865,-1.4625 -1.431,-3.25 -0.36628,-3.79851 -2.18664,-4.42288 -2.18664,-0.74962 0,1.375 -0.45,2.5 -1,2.5 -0.55,0 -1,0.44167 -1,0.9815 0,0.53982 -1.4625,2.97002 -3.25,5.40044 -3.15679,4.29222 -11.60248,9.61806 -15.252269,9.61806 -0.89549,0 -4.11066,2.4825 -7.14483,5.51666 -3.03416,3.03416 -6.82219,6.19178 -8.41785,7.01693 -1.59566,0.82514 -3.59537,2.84265 -4.4438,4.48334 -1.9756,3.82037 -3.49125,3.81302 -3.49125,-0.0169 0,-1.65 0.42923,-3 0.95385,-3 2.02907,0 12.18646,-10.75507 14.79852,-15.66929 1.5112,-2.84311 3.89794,-6.45386 5.30387,-8.02388 1.40593,-1.57003 2.81231,-3.5219 3.12529,-4.33751 0.31298,-0.8156 3.538409,-5.41991 7.167619,-10.2318 5.71436,-7.57652 6.51716,-9.15595 5.99102,-11.78666 -0.66258,-3.31291 -5.48074,-6.62748 -7.61954,-5.24173 -0.67135,0.43498 -7.290649,1.01587 -14.709569,1.29087 -12.50311,0.46346 -13.51457,0.64617 -13.83958,2.5 -0.43259,2.46755 -11.07728,13.5 -13.02551,13.5 -0.77914,0 -2.45924,1.125 -3.73355,2.5 -2.73732,2.95362 -4.41242,3.20961 -4.41242,0.67431 0,-2.13107 2.80398,-4.87523 8.75,-8.5633 5.24327,-3.25218 5.83056,-6.11707 1.0382,-5.06449 -1.76649,0.38799 -4.84995,1.78951 -6.85214,3.11449 -2.3258,1.53915 -5.04786,2.39656 -7.5382,2.37443 -2.14382,-0.019 -5.47286,0.0777 -7.39786,0.21497 -5.10059,0.36373 -5.10059,-1.20177 0,-4.99701 2.475,-1.84159 8.325,-6.9428 13,-11.33601 11.00311,-10.33991 11.7172,-10.91739 13.5,-10.91739 0.825,0 1.5,-0.60277 1.5,-1.33948 0,-2.95285 11.97563,-5.75556 14.75096,-3.45224 2.04139,1.6942 13.92247,0.23507 21.521869,-2.64313 3.72505,-1.41083 8.02255,-2.56515 9.55,-2.56515 1.52744,0 3.20467,-0.35814 3.72717,-0.79586 0.5225,-0.43772 2.75,-1.39881 4.95,-2.13575 2.2,-0.73694 5.22689,-2.20189 6.72643,-3.25545 2.35749,-1.65635 2.56175,-2.17926 1.50945,-3.86425 -0.66933,-1.07178 -1.71621,-1.94869 -2.32639,-1.94869 -0.61018,0 -3.02146,-1.38508 -5.3584,-3.07795 -10.19518,-7.38535 -18.78451,-8.81355 -24.90719,-4.14147 -2.004139,1.52932 -4.768899,3.27008 -6.143899,3.86836 -1.375,0.59828 -5.37571,2.49701 -8.89046,4.21942 -3.51476,1.7224 -6.93312,3.13164 -7.59637,3.13164 -4.46849,0 -10.51317,6.53499 -10.51317,11.36595 0,2.10546 -2.95367,3.55673 -6.03857,2.96701 -1.71578,-0.32799 -3.11495,0.17919 -4.39435,1.59291 -2.30983,2.55234 -4.56708,2.68782 -4.56708,0.27413 0,-2.96 2.12571,-4.2 7.2,-4.2 3.95556,0 4.8,-0.31667 4.8,-1.8 0,-0.99 0.50079,-2.30079 1.11287,-2.91287 2.39068,-2.39068 -0.19247,-3.29895 -3.92002,-1.37831 -3.72108,1.9173 -12.34815,4.26921 -13.0576,3.55976 -0.21028,-0.21028 -0.11586,-1.07673 0.20983,-1.92545 0.37099,-0.9668 1.84595,-1.54313 3.94922,-1.54313 2.21614,0 4.09603,-0.78659 5.53139,-2.31445 3.01926,-3.21386 2.76918,-3.68555 -1.95396,-3.68555 -6.31089,0 -17.9791,-7.22596 -15.56554,-9.63952 0.30429,-0.30429 2.57846,0.84011 5.05371,2.54313 2.47525,1.70301 4.94437,3.09639 5.48694,3.09639 0.54257,0 1.13649,0.42511 1.31983,0.9447 0.18333,0.51958 2.71965,1.05109 5.63625,1.18113 2.91661,0.13003 5.53067,0.60492 5.80902,1.0553 0.71994,1.16488 7.14739,1.01729 7.88806,-0.18113 0.33992,-0.55 1.60398,-1.01001 2.80902,-1.02224 1.20504,-0.0122 3.31598,-0.90222 4.69098,-1.97776 1.375,-1.07554 3.00033,-1.96553 3.61186,-1.97776 1.79827,-0.036 16.68732,-7.95467 18.945509,-10.07613 2.179,-2.04707 7.88885,-2.65116 8.94263,-0.94611 0.33992,0.55 2.19117,1 4.11389,1 2.46901,0 5.31556,1.24402 9.69098,4.23522 3.40732,2.32937 7.54513,4.93531 9.19513,5.79098 3.54183,1.83676 14.67764,1.94089 15.27698,0.14285 0.21433,-0.64298 1.13969,-1.17073 2.05635,-1.17279 0.91667,-0.002 3.14005,-0.90205 4.94084,-2 1.80079,-1.09794 3.88319,-1.99626 4.62755,-1.99626 0.74437,0 1.93059,-0.69548 2.63605,-1.54551 0.70546,-0.85003 1.85475,-1.32598 2.55396,-1.05766 0.69922,0.26831 3.08039,-0.38621 5.29148,-1.45449 2.2111,-1.06829 4.71692,-1.94234 5.56848,-1.94234 0.85157,0 1.54831,-0.45 1.54831,-1 0,-0.55 0.82955,-1 1.84345,-1 5.60908,0 22.65024,-8.71185 31.52254,-16.11508 1.72371,-1.43829 4.11891,-2.92236 5.32267,-3.29792 2.42936,-0.75794 13.31134,-11.06502 13.31134,-12.60811 0,-0.53839 0.43417,-0.97889 0.96482,-0.97889 1.77674,0 3.38352,-4.4457 3.79494,-10.5 0.69076,-10.16501 0.63862,-10.89103 -1.05102,-14.63618 l -1.64047,-3.63619 4.14589,-4.61381 c 2.28023,-2.5376 4.85237,-4.61679 5.71586,-4.62041 0.86349,-0.004 2.91998,-0.90066 4.56998,-1.99341 1.65,-1.09275 3.78146,-1.98979 4.73658,-1.99341 2.70172,-0.0103 4.79272,-6.44534 5.59091,-17.20613 0.53641,-7.2316 0.39545,-10.14267 -0.55401,-11.44113 -2.01732,-2.75886 -1.51458,-5.07517 1.97652,-9.10645 5.63763,-6.50995 7.48269,-9.70909 8.24519,-14.29629 0.40744,-2.45112 1.86233,-7.27353 3.23309,-10.71645 2.29239,-5.75777 2.44485,-7.12129 1.90085,-17 -0.74558,-13.53902 -1.97055,-22.94658 -3.45448,-26.52978 -1.77262,-4.28028 -6.16604,-7.54003 -11.17465,-8.29115 -5.53554,-0.83014 -8,-2.04206 -8,-3.93407 0,-1.94649 -7.15488,-5.48514 -11.09055,-5.48514 -3.58352,0 -16.53019,-6.45775 -19.04586,-9.5 -0.9096,-1.1 -2.63354,-3.11885 -3.83097,-4.48633 -1.19744,-1.36749 -2.41559,-3.67854 -2.70702,-5.13569 -0.31465,-1.57324 -1.60537,-3.14934 -3.17774,-3.88033 -1.45632,-0.67705 -3.42925,-1.62849 -4.38429,-2.11432 -0.95504,-0.48583 -2.60523,-0.88333 -3.6671,-0.88333 -1.06186,0 -4.10547,-0.93627 -6.76356,-2.0806 -4.55496,-1.96094 -5.4943,-2.0148 -16.33291,-0.93646 -6.325,0.62928 -12.85,1.54994 -14.5,2.04592 -1.65,0.49597 -4.29246,1.16475 -5.87214,1.48616 -1.87692,0.3819 -6.39358,4.1189 -13.03473,10.78469 -5.58942,5.61016 -12.62196,12.01718 -15.62786,14.23782 -5.21423,3.85207 -6.95847,4.7236 -14.96527,7.47759 -1.925,0.66211 -5.16415,2.05457 -7.19812,3.09436 -2.03396,1.03979 -5.53566,1.89052 -7.781539,1.89052 -2.24589,0 -6.65674,0.8528 -9.80189,1.8951 -3.14515,1.04231 -7.29345,2.22374 -9.21845,2.62541 -1.925,0.40166 -5.075,1.53873 -7,2.52681 -1.925,0.98808 -7.1,2.53772 -11.5,3.44364 -4.4,0.90592 -9.35,2.31998 -11,3.14237 -4.40734,2.19668 -18.81398,0.70822 -19.33301,-1.99744 -0.3301,-1.72081 0.24552,-1.82931 7.48771,-1.41133 7.04152,0.4064 8.17055,0.21386 11.01991,-1.87928 2.60791,-1.91576 11.77684,-4.17232 17.57539,-4.32547 0.4125,-0.0109 0.75,-0.42063 0.75,-0.91051 0,-1.70891 -22.909,-3.00295 -29.23228,-1.65122 -3.07808,0.658 -3.84857,0.49481 -4.39572,-0.93104 -0.38452,-1.00206 -0.1037,-2.07482 0.66798,-2.55175 1.0087,-0.62341 1.0553,-1.15556 0.19223,-2.19549 -1.92655,-2.32135 -0.0954,-9.77378 3.21496,-13.08411 1.27817,-1.27817 2.91071,-1.49852 7.83375,-1.05736 4.57219,0.40972 8.12887,0.0214 13.43095,-1.46624 6.93327,-1.94537 16.28813,-7.24082 16.28813,-9.22013 0,-1.35209 -4.36963,-1.18233 -5.77637,0.22441 -0.90183,0.90183 -1.63192,0.7641 -3.12834,-0.59013 -1.22093,-1.10493 -2.7044,-1.52769 -3.96108,-1.12884 -1.10501,0.35072 -2.93726,0.058 -4.07166,-0.65041 -1.69184,-1.05657 -2.45125,-1.04533 -4.22523,0.0625 -1.91889,1.19837 -2.34712,1.10609 -3.79897,-0.81868 -1.3902,-1.84303 -2.45617,-2.12279 -7.08733,-1.86007 -5.05446,0.28673 -5.52453,0.52748 -6.46149,3.30923 -2.38584,7.08335 -6.75805,10.71082 -11.48953,9.53245 -2.88261,-0.71791 -3.56695,-4.52444 -0.81712,-4.54508 2.66487,-0.02 6.81712,-4.54742 6.81712,-7.4331 0,-2.33397 -0.63329,-2.77303 -6.25,-4.33311 -3.4375,-0.95479 -7.375,-1.96679 -8.75,-2.24888 -2.33809,-0.47968 -4.04443,-1.14215 -9.8201699,-3.81258 -3.74084,-1.72959 -8.9902,-7.65967 -6.78041002,-7.65967 0.21968,0 4.15718002,2.01748 8.75000002,4.48329 7.1427399,3.83482 9.1965099,4.48571 14.1990699,4.5 l 5.84849,0.0167 -2.84849,-3.33349 c -2.82661,-3.30787 -7.60844,-6.6665 -9.49142,-6.6665 -0.53947,0 -1.98564,-0.75791 -3.2137,-1.68424 -2.0136,-1.51886 -2.16527,-2.23076 -1.54457,-7.25 0.87935,-7.1108 2.44352,-11.06576 4.37645,-11.06576 1.77701,0 1.97599,2.93982 0.53829,7.95279 -1.24771,4.35052 0.93376,8.33758 4.29966,7.85848 1.65484,-0.23555 2.263,-1.10154 2.50006,-3.55994 0.35724,-3.70474 2.88456,-5.53632 6.98619,-5.06298 3.29804,0.3806 3.85163,4.06591 0.70055,4.66364 -2.89149,0.54848 -3.38299,1.89007 -2.19936,6.00329 2.08315,7.23908 9.56862,12.98062 17.90794,13.73583 2.91028,0.26355 7.20005,0.73527 9.53281,1.04825 3.33378,0.44729 4.37379,0.22405 4.8601,-1.04325 0.70102,-1.82683 -1.7938,-7.68089 -4.08304,-9.58079 -0.83515,-0.69312 -1.51845,-1.88011 -1.51845,-2.63776 0,-0.75766 -0.57659,-1.37756 -1.2813,-1.37756 -0.70472,0 -3.85472,-2.60055 -7,-5.779 -4.40472,-4.45116 -5.7187,-6.46871 -5.7187,-8.78076 0,-2.4289 -0.58294,-3.2218 -3.05456,-4.15473 -2.93428,-1.10757 -3.04256,-1.3592 -2.75,-6.39064 0.33015,-5.67783 1.60518,-6.95139 4.28075,-4.27582 1.1641,1.1641 1.52762,2.61191 1.14107,4.54464 -0.50297,2.51488 -0.28164,2.83631 1.95305,2.83631 2.33385,0 2.47223,0.25633 1.87036,3.46454 -0.60133,3.20537 -0.212,3.93024 5.20469,9.69026 11.11915,11.82394 12.25689,12.43412 16.49386,8.84587 2.21652,-1.87716 2.25384,-2.0825 0.61078,-3.36025 -0.9625,-0.7485 -1.75,-2.35285 -1.75,-3.56522 0,-1.22161 -1.33743,-3.32969 -3,-4.72865 -3.23284,-2.72026 -3.83365,-4.34655 -1.60576,-4.34655 2.21875,0 7.60576,5.59627 7.60576,7.90121 0,1.15433 0.6382,2.09879 1.41821,2.09879 0.78002,0 2.04987,0.24239 2.82188,0.53864 0.8522,0.32702 1.8581,-0.45874 2.56035,-2 1.32283,-2.90329 4.66417,-3.59861 3.78978,-0.78864 -0.49989,1.60644 0.90613,5.30323 1.60541,4.22104 0.1674,-0.25907 0.78652,-1.34426 1.37581,-2.41152 1.61442,-2.92385 3.30584,-3.01249 4.36424,-0.2287 0.84583,2.2247 1.68159,2.5584 7.75615,3.09681 20.020759,1.77452 20.246539,1.77686 21.797939,0.22546 2.40411,-2.40411 1.79535,-3.21673 -2.5392,-3.38958 -4.53988,-0.18104 -10.95057,-3.64231 -10.95057,-5.91246 0,-1.62862 3.32271,-1.05357 5.90138,1.02134 0.93019,0.74848 7.81863,1.12761 20.48752,1.12761 l 19.08615,0 0.52018,-2.98779 c 0.28915,-1.66079 1.23652,-3.12574 2.13306,-3.2984 1.23696,-0.23822 1.49933,0.28333 1.12571,2.23779 -0.41605,2.17644 -0.12561,2.5484 1.98988,2.5484 1.36236,0 4.14576,1.13244 6.18533,2.51652 5.95801,4.04322 8.09112,0.1404 2.57079,-4.70361 -1.91955,-1.68437 -3,-3.589 -3,-5.28842 0,-1.46079 -0.49576,-3.58232 -1.1017,-4.71452 -0.60593,-1.1322 -1.25762,-3.01511 -1.4482,-4.18426 -0.76158,-4.67215 -2.99381,-9.53463 -4.5658,-9.94572 -1.19838,-0.31338 -1.96616,-2.35248 -2.7514,-7.30733 -0.59905,-3.77996 -1.08146,-7.99766 -1.07202,-9.37266 0.0353,-5.14233 -1.32937,-15 -2.07657,-15 -1.72705,0 -4.57635,-7.6939 -3.85213,-10.40184 0.87606,-3.27573 -0.59439,-4.13332 -4.52483,-2.63897 -3.48655,1.32558 -11.29705,1.35191 -12.10735,0.0408 -1.0297,-1.66609 -5.07228,-1.12429 -7.83685,1.05033 -2.04434,1.60807 -3.02994,1.82374 -4.56938,0.99985 -1.33145,-0.71257 -2.80899,-0.72875 -4.59339,-0.0503 -1.44682,0.55008 -5.41631,1.00014 -8.82108,1.00014 -5.892899,0 -6.334459,0.17373 -9.184899,3.61374 -1.64692,1.98756 -4.00635,4.80006 -5.24318,6.25 -1.23683,1.44994 -2.24933,3.19594 -2.25,3.87999 -6.7e-4,0.68405 -1.86874,2.59655 -4.15126,4.25 -3.99042,2.89064 -6.85011,3.8326 -6.84983,2.25627 3.8e-4,-2.06577 10.27639,-16.41887 12.47084,-17.41873 1.39097,-0.63378 2.52903,-1.72243 2.52903,-2.41922 0,-1.30978 -4.62794,-5.41207 -6.10555,-5.41207 -0.4597,0 -2.80036,-1.9125 -5.20146,-4.25 -4.77907,-4.65248 -7.282,-9.26794 -5.59227,-10.31225 1.56873,-0.96953 4.89928,2.57717 4.89928,5.21724 0,1.46516 0.5896,2.34501 1.57143,2.34501 0.86428,0 2.24643,0.675 3.07143,1.5 2.38569,2.38569 4.26261,1.7661 6.05853,-2 0.91797,-1.925 1.9832,-3.5 2.36719,-3.5 0.38399,0 0.93351,-0.9 1.22117,-2 0.28765,-1.1 1.24014,-2 2.11663,-2 2.27084,0 2.3858,-0.4266 -2.3702,8.79547 -2.78887,5.40772 -2.15035,7.43832 2.20694,7.0184 2.97496,-0.2867 3.28375,-0.63848 3.56725,-4.06387 0.1707,-2.0625 0.7332,-3.75 1.25,-3.75 0.51679,0 0.93963,-1.1625 0.93963,-2.58333 0,-1.62198 0.46517,-2.42845 1.25,-2.16714 1.926839,0.64156 2.057329,3.42806 0.3233,6.90399 -2.64957,5.3112 -2.23284,5.84648 4.551699,5.84648 l 6.125,0 -0.6,-3 c -0.67933,-3.39667 -0.0762,-3.62459 3.98569,-1.50616 5.68381,2.96431 9.36633,1.06792 4.56507,-2.35088 -1.55251,-1.10549 -4.0328,-2.31369 -5.51175,-2.68488 -1.47896,-0.37119 -2.68901,-1.31236 -2.68901,-2.09149 0,-0.77912 -1.35,-1.68659 -3,-2.01659 -1.65,-0.33 -3,-1.13047 -3,-1.77883 0,-2.23219 -6.514799,-7.57117 -9.238589,-7.57117 -1.45386,0 -2.91405,-0.43796 -3.24487,-0.97324 -0.33082,-0.53528 -2.15738,-1.71156 -4.05902,-2.61394 -1.90164,-0.90239 -3.45752,-2.03943 -3.45752,-2.52676 0,-0.48733 -2.16,-0.88606 -4.8,-0.88606 -4.51712,0 -7.2,-1.23468 -7.2,-3.3135 0,-0.50242 1.35,-0.63742 3,-0.3 1.65,0.33743 4.4625,0.89877 6.25,1.24742 1.7875,0.34866 4.44447,1.47366 5.90437,2.5 3.09318,2.17457 6.84563,2.4602 6.84563,0.52107 0,-2.12404 -3.4089,-4.65499 -6.26972,-4.65499 -1.43674,0 -2.85383,-0.39089 -3.1491,-0.86865 -0.29527,-0.47775 -2.34683,-1.15807 -4.55902,-1.51182 -4.90591,-0.78448 -5.70654,-3.61953 -1.02216,-3.61953 1.65,0 3,0.47466 3,1.05479 0,0.63356 1.88085,0.93307 4.70975,0.75 3.83415,-0.24813 4.8102,-0.70076 5.25,-2.43464 1.48724,-5.86325 7.2214,-10.0565 17.759749,-12.98726 8.21208,-2.28382 11.2805,-2.74526 11.2805,-1.69639 0,1.552 -2.30293,3.3135 -4.33197,3.3135 -2.56342,0 -8.66803,3.82646 -8.66803,5.43325 0,0.69856 -1.30846,2.6393 -2.9077,4.31275 -7.205339,7.5397 -7.803509,12.254 -1.55485,12.254 2.6212,0 3.91207,-0.689 5.62067,-3 1.2199,-1.65 2.80837,-3 3.52994,-3 0.72157,0 1.31194,-0.41968 1.31194,-0.93261 0,-0.51294 0.92957,-1.22765 2.06571,-1.58824 1.13613,-0.3606 3.49863,-1.89515 5.25,-3.41011 5.16988,-4.47206 12.04124,-8.0845 13.57487,-7.13666 1.54731,0.95628 0.65627,3.06762 -1.29461,3.06762 -0.7073,0 -2.10048,0.9 -3.09597,2 -0.99549,1.1 -2.41523,2 -3.15499,2 -0.73975,0 -1.34501,0.34471 -1.34501,0.76602 0,0.68364 -6.07425,5.11073 -12.66962,9.23398 -3.06531,1.91636 -5.33038,6.34176 -5.33038,10.41431 0,5.98149 5.3144,7.8623 7.3061,2.58569 0.62281,-1.65 1.48372,-3 1.91314,-3 0.42942,0 0.78076,-0.88963 0.78076,-1.97695 0,-1.08732 1.0125,-2.58861 2.25,-3.33619 1.2375,-0.74759 3.55536,-2.22046 5.15081,-3.27305 8.15071,-5.37743 15.8223,-9.51418 16.46457,-8.87818 0.62545,0.61932 -5.1834,5.41912 -9.04753,7.47589 -2.02518,1.07794 -3.96424,2.41633 -4.30902,2.97419 -0.34477,0.55786 -1.72531,1.01429 -3.06785,1.01429 -1.34254,0 -2.44098,0.44324 -2.44098,0.98498 0,0.54173 -1.35,3.179 -3,5.8606 -3.59747,5.84663 -3.75907,7.91532 -0.7089,9.075 1.2601,0.47909 2.8902,1.59295 3.62244,2.47524 1.80972,2.18058 3.08646,2.01684 3.08646,-0.39582 0,-1.1 0.48448,-2 1.07662,-2 0.63544,0 0.94289,1.53668 0.75028,3.75 l -0.32634,3.75 6.74972,0.29569 c 5.70827,0.25007 6.74972,0.0427 6.74972,-1.34362 0,-0.90162 -0.9,-1.87466 -2,-2.16232 -4.32216,-1.13027 -1.04032,-4.28975 4.45589,-4.28975 4.50133,0 4.79997,-0.39568 8.30238,-11 1.79417,-5.43223 8.18288,-15.74573 13.17311,-21.26579 1.41274,-1.56273 3.24721,-4.06963 4.0766,-5.57089 1.42556,-2.58039 2.65945,-4.2099 5.87773,-7.76231 0.92243,-1.01819 1.71955,-1.19575 2.38422,-0.53108 0.88205,0.88205 -3.2993,7.43196 -9.82566,15.3915 -0.79435,0.96879 -1.44427,2.49219 -1.44427,3.38533 0,0.89314 -1.15033,2.68999 -2.55629,3.99299 -1.40596,1.30299 -2.26068,2.84738 -1.89938,3.43197 0.36129,0.58459 -0.28838,1.31009 -1.44371,1.61222 -1.15534,0.30213 -2.10062,1.00309 -2.10062,1.55769 0,1.40105 5.97125,0.0944 8.01312,-1.75351 2.27486,-2.05872 3.23972,-1.86012 2.48688,0.51188 -0.51737,1.63008 -0.1797,2 1.82562,2 1.35322,0 2.71397,-0.66078 3.02388,-1.4684 0.74811,-1.94955 7.08609,-4.5316 11.1234,-4.5316 3.87275,0 9.5271,1.83856 9.5271,3.09783 0,0.49619 -3.59143,0.90217 -7.98095,0.90217 -7.67902,0 -8.00468,0.0946 -8.60841,2.5 -0.50921,2.02885 -1.24352,2.5 -3.89638,2.5 -1.79791,0 -6.36196,0.6985 -10.14234,1.55221 -5.67106,1.28069 -7.0901,2.01139 -8.11218,4.17715 -1.38182,2.92806 -0.85869,4.26959 0.95693,2.45397 0.65083,-0.65083 2.01126,-1.18333 3.02317,-1.18333 1.01191,0 3.60398,-0.9 5.76016,-2 4.22837,-2.15716 8.50652,-2.60749 9.5,-1 0.33992,0.55 1.82898,1.01431 3.30902,1.0318 2.57113,0.0304 6.19098,1.97652 6.19098,3.32844 0,1.21965 -7.11298,0.6327 -9.91932,-0.81852 -2.74779,-1.42093 -10.08068,-1.12206 -10.08068,0.41087 0,0.37999 -2.20135,1.68578 -4.89189,2.90176 -5.38062,2.43173 -7.14308,5.52138 -4.08365,7.15874 4.29308,2.29759 9.75689,0.18665 8.43476,-3.25876 -0.44404,-1.15714 0.008,-1.38761 1.98275,-1.01017 1.40692,0.26894 2.55803,1.06044 2.55803,1.75887 0,2.25017 7.98103,2.61291 15.97219,0.72594 l 7.47218,-1.76442 4.52782,-7.24282 c 2.49029,-3.98355 5.54349,-7.94081 6.78487,-8.79392 2.15685,-1.48224 2.47645,-1.34338 7.19862,3.12757 4.91236,4.65102 9.23744,7.46489 11.40863,7.42238 0.62463,-0.0122 2.26069,-0.90222 3.63569,-1.97776 1.375,-1.07554 3.42649,-1.96553 4.55887,-1.97776 1.13238,-0.0122 2.93238,-0.68293 4,-1.49044 1.06762,-0.8075 4.00889,-1.4825 6.53614,-1.5 6.28743,-0.0435 8.5742,-2.47404 6.95208,-7.38911 -0.63217,-1.91549 -1.74344,-3.97572 -2.46949,-4.57828 -1.75705,-1.45823 -15.92453,-4.92793 -21.56897,-5.28237 -3.45063,-0.21669 -4.57304,-0.71217 -4.84378,-2.13826 -0.4561,-2.40239 1.25937,-4.12662 2.99802,-3.01331 2.30929,1.4787 10.16333,3.27942 14.50405,3.3254 l 4.16692,0.0441 -1.82493,-3.75 c -2.40531,-4.94259 -4.33198,-11.26027 -3.64384,-11.94841 1.12034,-1.12033 3.63493,0.70363 3.63493,2.63661 0,1.82705 1.58945,5.20418 5.15596,10.95496 0.73922,1.19194 3.14404,2.68238 5.34404,3.31209 2.2,0.6297 4.49898,1.51851 5.10885,1.97513 0.60986,0.45662 3.7585,1.74183 6.99697,2.85603 3.23847,1.1142 7.46449,3.28858 9.39116,4.83196 1.92666,1.54337 5.52802,4.05866 8.00302,5.58951 2.475,1.53086 5.625,3.79613 7,5.03393 2.79404,2.51526 7.02748,3.81861 9.42054,2.90031 1.89707,-0.72798 2.1917,-8.33602 0.45339,-11.70786 -2.0981,-4.0697 -15.21094,-18.68423 -16.7644,-18.68423 -0.43975,0 -1.57742,-0.85953 -2.52814,-1.91006 -0.95072,-1.05054 -2.85898,-2.19378 -4.24059,-2.54054 -2.66257,-0.66826 -4.13789,-1.67065 -7.79966,-5.2994 -1.24877,-1.2375 -2.5364,-2.25 -2.8614,-2.25 -1.9593,0 -11.88911,-7.75658 -22.08306,-17.25 -3.98646,-3.7125 -7.60925,-6.75 -8.05066,-6.75 -0.44141,0 -3.5766,-2.8125 -6.96708,-6.25 -3.39048,-3.4375 -8.28276,-8.15135 -10.87173,-10.47523 -2.58896,-2.32387 -4.70721,-4.461369 -4.70721,-4.749999 0,-0.28862 1.8,-0.52477 4,-0.52477 2.2,0 4,0.45 4,1 0,0.55 0.5625,1.01001 1.25,1.02224 0.6875,0.0122 2.375,0.902219 3.75,1.977759 1.375,1.07554 3.33053,1.96553 4.34563,1.97776 1.57561,0.019 7.07602,3.19473 8.65437,4.99673 0.275,0.31397 4.775,4.11541 10,8.44766 5.225,4.33224 9.95,8.65385 10.5,9.60358 1.25446,2.16619 6.95715,6.97427 8.27191,6.97427 0.54076,0 1.5813,0.72066 2.3123,1.60147 1.80985,2.18073 9.95884,7.23825 18.41579,11.42941 6.34855,3.14627 7.86085,3.4828 16.25,3.61611 5.0875,0.0808 9.25,-0.17005 9.25,-0.55755 0,-0.3875 1.80015,-1.49877 4.00033,-2.46949 2.66886,-1.17749 4.81655,-3.1577 6.45261,-5.94943 2.26292,-3.86138 2.46623,-5.28682 2.63301,-18.46082 0.0994,-7.85199 0.008,-14.40582 -0.2026,-14.56408 -6.5319,-4.90291 -18.33379,-15.615999 -19.33411,-17.550409 -2.23064,-4.31357 -4.991,-6.10921 -10.85976,-7.06437 -3.07278,-0.50011 -7.62943,-2.04964 -10.12589,-3.44339 -2.49646,-1.39376 -5.198,-2.28124 -6.00342,-1.97217 -2.64197,1.01382 -3.84478,-0.64331 -1.97033,-2.71456 2.37669,-2.6262 4.5859,-2.38941 10.25574,1.09928 2.68159,1.65 5.86793,3 7.08076,3 1.21283,0 3.08224,0.46941 4.15424,1.04312 2.60398,1.39361 3.65288,-1.15787 1.65097,-4.01601 -1.6875,-2.40923 -1.11842,-7.02711 0.86598,-7.02711 0.7504,0 1.67271,1.2375 2.04957,2.75 1.55391,6.23645 3.77956,8.71538 8.43483,9.39473 2.42994,0.3546 5.31807,0.92296 6.41807,1.26301 1.1,0.34005 2.65985,0.18819 3.46633,-0.33746 1.25183,-0.81591 1.11843,-1.57474 -0.91194,-5.1873 -1.30806,-2.32737 -2.66136,-5.61565 -3.00733,-7.30728 -0.34598,-1.69164 -1.0606,-2.9872 -1.58806,-2.87904 -0.52745,0.10817 -1.53587,-0.90433 -2.24094,-2.25 -0.70506,-1.34566 -2.09782,-2.44666 -3.09501,-2.44666 -0.99719,0 -2.62756,-0.9 -3.62305,-2 -0.99549,-1.1 -2.23065,-2 -2.7448,-2 -1.13832,0 -6.7552,-5.194111 -6.7552,-6.246753 0,-2.492524 10.29464,0.486997 13.01722,3.767502 0.67522,0.813588 2.28174,1.479251 3.57004,1.479251 1.28831,0 2.80526,0.864911 3.37101,1.922023 0.56575,1.057113 1.59408,2.519613 2.28518,3.25 1.42967,1.510937 2.89247,4.505267 5.10051,10.440687 0.84149,2.262 2.68335,5.81229 4.09301,7.88955 1.40967,2.07726 2.56303,4.16062 2.56303,4.62968 0,0.46907 0.98115,1.98127 2.18034,3.36045 3.09895,3.56412 6.87295,3.26617 11.28035,-0.89055 l 3.60309,-3.39815 -0.65813,-8.35185 c -0.36197,-4.59351 -1.01209,-8.74011 -1.44471,-9.21466 -0.43262,-0.47455 -2.87939,-1.2538 -5.43727,-1.73166 -6.25567,-1.16869 -20.4432,-7.98195 -23.44798,-11.260405 -1.33338,-1.454813 -2.90838,-2.651392 -3.5,-2.659065 -2.36147,-0.03062 -24.08249,-12.193889 -28.32569,-15.861727 -4.37413,-3.78101 -1.85537,-5.726699 2.75,-2.124323 1.375,1.075541 3.0625,1.965534 3.75,1.977764 0.6875,0.01223 1.25,0.472236 1.25,1.022236 0,0.55 0.83086,1 1.84636,1 2.07215,0 7.82494,2.659128 8.65364,4 0.72904,1.179619 6.47814,4 8.15364,4 0.7405,0 1.34636,0.373959 1.34636,0.83102 0,0.457061 1.2375,1.469561 2.75,2.25 1.5125,0.780439 3.35145,1.988289 4.08656,2.684111 3.39252,3.211217 8.00342,6.234869 9.50783,6.234869 0.91059,0 1.65561,0.45 1.65561,1 0,0.55 1.09844,1 2.44098,1 1.34254,0 2.7191,0.45 3.05902,1 0.33992,0.55 3.06648,1 6.05902,1 5.29091,0 5.43848,-0.07585 5.3504,-2.75 -0.13378,-4.061717 -5.0856,-12.554143 -8.19279,-14.05071 -3.42379,-1.649062 -4.60963,-3.897638 -5.74971,-10.902518 -1.12598,-6.918327 -3.43507,-9.518094 -10.05496,-11.320745 -3.43004,-0.93403 -5.86491,-2.370213 -7.50904,-4.429128 -1.33819,-1.675795 -2.87629,-3.590406 -3.41799,-4.254693 -0.54171,-0.664286 -0.98493,-1.446642 -0.98493,-1.738569 0,-0.522871 -2.39262,-3.6054805 -4.65975,-6.0035525 -0.63787,-0.674702 -1.31287,-2.300893 -1.5,-3.613758 -0.4502,-3.15840497 2.47148,-3.763033 4.8365,-1.00089 0.97225,1.13551 2.14987,2.064563 2.61692,2.064563 1.04132,0 2.37704,1.389701 6.00722,6.2500005 1.54049,2.0625 3.20447,3.75 3.69774,3.75 0.49327,0 1.03287,-2.3625 1.19911,-5.2500005 0.22216,-3.858712 0.69865,-5.25 1.79805,-5.25 1.07118,0 1.69987,1.63382 2.21474,5.755617 0.51767,4.1442395 1.43822,6.5239525 3.28808,8.5000005 3.59714,3.842524 7.50139,10.705454 7.50139,13.186022 0,3.428396 2.98008,8.013409 11.24976,17.308361 2.81367,3.1625 5.93351,5.75 6.933,5.75 2.39385,0 2.33146,2.82315 -0.12013,5.435549 -1.68844,1.799186 -1.98809,3.927834 -2.33208,16.566421 -0.21709,7.97609 -0.89667,15.4399 -1.51017,16.58626 -0.61351,1.14635 -3.05158,3.72141 -5.41793,5.72235 -8.88645,7.514239 -8.16093,5.046559 -8.33015,28.333379 -0.14357,19.75826 -0.45209,22.49988 -3.4723,30.85604 -2.59094,7.16848 -3.09755,9.98176 -2.48394,13.79367 1.12237,6.97252 7.02763,16.58768 14.64972,23.8532 5.72957,5.46153 7.74441,6.76253 11.29835,7.29548 9.06401,1.35923 17.43126,-3.30726 17.50407,-9.76217 0.0258,-2.28649 -4.45511,-10.51843 -6.9022,-12.68018 -1.5113,-1.33507 -5.066,-9.47068 -5.066,-11.5945 0,-4.1926 2.74449,-2.69084 4.44636,2.43302 0.88391,2.66118 2.94507,6.12038 4.58037,7.68709 1.6353,1.56671 2.97327,3.38763 2.97327,4.04647 0,0.65885 1.14589,1.94871 2.54641,2.86637 2.4378,1.59731 2.6245,1.57205 4.37705,-0.59225 1.73599,-2.14386 1.90521,-5.62218 0.59195,-12.16742 -0.43237,-2.15489 5.59483,-14.10371 8.91749,-17.67878 1.27793,-1.375 3.7817,-5.2 5.56395,-8.5 1.78225,-3.3 5.36635,-8.95015 7.96467,-12.55589 6.15445,-8.54064 6.75466,-10.9552 3.52584,-14.18402 -2.6412,-2.6412 -5.01148,-12.82008 -2.6447,-11.35733 0.63654,0.3934 1.15734,1.81372 1.15734,3.15626 0,2.70889 1.16643,3.15029 2.8773,1.08883 1.58709,-1.91234 0.29997,-16.365849 -1.51961,-17.064089 -0.74673,-0.28654 -1.35769,-1.62331 -1.35769,-2.97059 0,-3.42576 -0.98325,-5.61317 -2.52314,-5.61317 -1.59085,0 -9.47686,-7.20057 -9.47686,-8.65314 0,-0.57029 -0.89598,-1.84774 -1.99107,-2.83878 -2.71884,-2.46052 -7.34197,-10.50878 -6.51202,-11.33659 0.37028,-0.369317 1.64745,0.50575 2.83816,1.94459 5.00367,6.04639 5.66493,6.94432 5.66493,7.6924 0,1.49809 7.59279,8.19152 9.29216,8.19152 2.38017,0 2.13206,-1.25284 -0.79216,-4 -1.375,-1.29175 -2.5,-2.72019 -2.5,-3.17431 0,-2.04281 3.46597,-0.46923 7.54239,3.42431 4.20149,4.01301 4.45096,4.5567 4.47372,9.75 0.0133,3.025 0.49182,8.425 1.06348,12 0.57165,3.574999 1.2068,8.227529 1.41145,10.338949 0.43121,4.44917 3.55945,13.66105 4.63912,13.66105 0.40428,0 1.02071,-0.9 1.36984,-2 0.34913,-1.1 1.31695,-2 2.15072,-2 0.83377,0 1.35151,0.3375 1.15053,0.75 -0.20099,0.4125 -0.96421,2.1 -1.69605,3.75 -0.73184,1.65 -1.9549,4.19443 -2.71791,5.65429 -1.7674,3.38156 -1.7425,3.84571 0.20633,3.84571 0.87649,0 1.82897,-0.9 2.11663,-2 0.36097,-1.38034 1.36402,-2 3.2374,-2 1.88106,0 3.13042,-0.77736 4.06951,-2.53207 0.74532,-1.39263 3.40886,-4.19743 5.91898,-6.23288 2.51012,-2.03545 4.71386,-4.04602 4.89719,-4.46793 0.18334,-0.42192 0.85834,-0.77756 1.5,-0.79032 2.14004,-0.0426 8.14817,-6.41835 10.57941,-11.2268 1.32093,-2.6125 2.75062,-4.749999 3.17709,-4.749999 1.61755,0 1.88959,3.811059 0.46768,6.551789 -1.99141,3.83845 -8.73743,10.69661 -12.22871,12.432 -1.55584,0.77335 -5.61873,4.24337 -9.02865,7.71115 -3.40992,3.46778 -6.66642,6.30506 -7.23666,6.30506 -1.88984,0 -8.89959,5.46818 -9.41753,7.34645 -1.41079,5.11612 2.42844,6.52592 9.55108,3.50725 6.08868,-2.58046 15.80296,-8.72469 15.80296,-9.99528 0,-0.47213 0.5625,-0.86424 1.25,-0.87135 0.6875,-0.007 5.43418,-4.04818 10.54817,-8.98015 5.11399,-4.93197 12.65149,-11.491 16.75,-14.57563 4.09851,-3.08462 7.45183,-6.24576 7.45183,-7.02475 0,-0.77899 -1.125,-3.748359 -2.5,-6.598599 -1.375,-2.85023 -2.5,-5.78428 -2.5,-6.52009 0,-0.73582 -1.4625,-1.62526 -3.25,-1.97654 -2.18628,-0.42965 -5.22033,-2.66075 -9.27,-6.81672 -7.30777,-7.49962 -9.05468,-8.49459 -14.91426,-8.49459 -2.51116,0 -4.56574,-0.45 -4.56574,-1 0,-0.55 1.32344,-1 2.94098,-1 3.49301,0 4.89614,-1.59953 2.16385,-2.46673 -2.69136,-0.8542 -4.13889,-2.86013 -3.18165,-4.408978 0.92063,-1.489609 3.36664,-0.38357 7.98926,3.612598 6.69321,5.78614 18.50424,15.26311 19.02223,15.26311 1.13486,0 3.06533,-8.05122 3.06533,-12.78425 0,-4.35121 1.22865,-7.21575 3.09496,-7.21575 0.38224,0 0.93873,1.6875 1.23666,3.75 0.29792,2.0625 1.0489,6.54648 1.66884,9.96441 0.95276,5.25287 0.87972,6.73584 -0.47206,9.58449 -1.49953,3.16002 -1.47398,3.66224 0.40976,8.05684 1.10494,2.57771 2.68439,4.94592 3.50989,5.2627 1.50729,0.5784 2.33275,0.0459 12.65318,-8.16315 5.66892,-4.50914 7.31696,-5.2057 8.35245,-3.53024 0.66251,1.07196 -6.11273,7.79816 -8.70368,8.64067 -0.9625,0.31298 -1.75,0.87917 -1.75,1.25819 0,0.94002 7.38126,3.17609 10.48425,3.17609 1.38366,0 3.30933,0.793579 4.27926,1.763509 4.72397,4.72397 8.03225,6.23649 13.64086,6.23649 3.0776,0 5.59563,0.45 5.59563,1 0,0.55 -1.35,1 -3,1 -3.80889,0 -3.80889,1.34208 0,4.15812 2.78706,2.06056 4.04752,4.84188 2.19428,4.84188 -0.44315,0 -2.35565,-1.17273 -4.25,-2.60607 -6.2975,-4.76493 -9.10524,-5.49041 -17.15738,-4.43319 -14.86532,1.95177 -15.47949,2.31855 -11.7869,7.03926 1.07554,1.375 1.96553,2.88053 1.97776,3.34563 0.0122,0.4651 0.83839,2.0401 1.8359,3.5 0.99752,1.4599 2.41954,4.56687 3.16006,6.90437 0.74052,2.3375 1.63437,4.25 1.98634,4.25 2.0184,0 3.03994,-3.09158 3.03994,-9.2 0,-3.74 0.39112,-6.8 0.86916,-6.8 1.85935,0 2.06995,7.84928 0.44709,16.66354 l -1.68717,9.16355 -10.81454,11.27549 c -5.948,6.20153 -10.81454,11.60363 -10.81454,12.00467 0,0.40105 -0.25256,1.38735 -0.56126,2.19178 -0.38069,0.99207 0.4716,1.82266 2.64923,2.58179 3.93953,1.37333 11.62396,1.47092 12.0787,0.1534 0.46662,-1.35196 7.03268,-1.76657 7.49484,-0.47325 0.60865,1.70325 -10.4835,4.6647 -17.32387,4.62523 -3.4545,-0.0199 -7.88678,-0.61692 -9.84949,-1.32665 -2.71573,-0.98202 -4.00753,-1.01629 -5.40526,-0.14339 -1.01017,0.63086 -3.57957,1.43761 -5.70978,1.79277 -2.13021,0.35516 -6.79811,1.2535 -10.37311,1.9963 -3.575,0.74281 -11.9,2.08269 -18.5,2.97751 -11.394,1.54479 -24.2362,4.63628 -27.5,6.62006 -0.825,0.50144 -2.625,1.41137 -4,2.02205 -11.8736,5.27348 -15.42784,7.50422 -19.53347,12.25975 -2.44508,2.83212 -6.1378,6.02759 -8.20606,7.10104 -4.57238,2.37311 -9.25291,6.07565 -11.22211,8.87727 -1.27387,1.81235 -3.19084,10.5573 -4.41424,20.13709 -0.21071,1.65 -1.17018,4.8 -2.13215,7 -1.75706,4.01836 -1.87683,6.1478 -2.5619,45.54702 -0.15811,9.09312 -0.50793,11.09193 -2.53773,14.5 -6.3171,10.6065 -7.46089,14.34612 -8.09082,26.45298 -0.24324,4.675 -0.86059,8.9275 -1.37189,9.45 -0.5113,0.5225 -0.92963,1.95844 -0.92963,3.19098 0,1.23254 -0.45,2.5191 -1,2.85902 -1.31016,0.80972 -1.31016,20.19028 0,21 0.55,0.33992 1.00001,1.60398 1.00003,2.80902 3e-5,2.06023 5.70441,7.69098 7.79155,7.69098 0.49415,0 1.71293,0.9 2.70842,2 0.99549,1.1 2.35792,2 3.02763,2 1.21082,0 5.05237,4.00664 13.27785,13.84847 2.36802,2.83334 4.87707,5.15153 5.57569,5.15153 0.69861,0 2.32708,-1.125 3.61883,-2.5 1.42504,-1.51689 3.45417,-2.5 5.15996,-2.5 1.54624,0 4.83455,-0.54113 7.30737,-1.2025 9.04539,-2.41928 46.03267,3.34332 46.03267,7.17186 0,0.65552 0.7875,1.7677 1.75,2.47149 0.9625,0.7038 1.75,1.79253 1.75,2.41939 0,0.68416 1.79881,1.13976 4.5,1.13976 3.18787,0 5.09153,0.59153 6.52867,2.02867 1.64024,1.64024 3.85059,2.14836 11.54373,2.6537 8.00082,0.52555 9.45886,0.87906 9.16193,2.22133 -0.19421,0.87796 -0.90141,1.47963 -1.57155,1.33702 -1.7584,-0.37417 -2.59391,2.53487 -1.20775,4.20509 0.92018,1.10876 0.80785,1.98644 -0.51205,4.00087 -1.66154,2.53583 -1.61072,2.69994 2.93309,9.47238 2.54316,3.79052 4.62393,7.3002 4.62393,7.7993 0,0.4991 1.35,2.20084 3,3.78164 1.65,1.5808 3,3.68162 3,4.66849 0,2.04657 7.75515,18.56215 9.10907,19.39892 0.49001,0.30284 0.89093,1.42407 0.89093,2.49161 0,1.06754 0.45,1.94098 1,1.94098 0.55,0 1.01412,0.5625 1.03138,1.25 0.0327,1.30442 3.96314,9.38287 7.90608,16.25 6.75048,11.75682 8.24618,12.5 25.15716,12.5 7.44618,0 13.04548,0.41769 13.40538,1 0.3399,0.55 2.3976,1 4.5726,1 2.175,0 4.7359,0.3975 5.691,0.88333 7.1177,3.62083 14.7433,5.11667 26.0841,5.11667 5.4004,0 10.1274,-0.3084 10.5043,-0.68534 1.5111,-1.51105 8.4152,-3.2854 12.839,-3.2996 2.58,-0.008 4.9691,-0.46506 5.309,-1.01506 0.3399,-0.55 1.4915,-1 2.559,-1 1.0676,0 1.941,-0.45 1.941,-1 0,-0.55 0.8275,-1 1.839,-1 2.1556,0 8.1282,-4.13761 12.6305,-8.75 3.0571,-3.13177 5.5305,-4.195 5.5305,-2.37736 0,0.47995 -1.9766,2.6946 -4.3924,4.92144 -2.4159,2.22684 -4.6673,4.49355 -5.0033,5.03712 -1.0104,1.63492 0.5167,4.2643 3.0321,5.22065 3.0161,1.14671 3.1108,3.17145 0.1136,2.42855 -7.0428,-1.74567 -25.5661,0.47697 -33.0536,3.96615 -1.758,0.81926 -6.1214,1.61643 -9.6964,1.7715 -6.904,0.29947 -8.4575,1.67268 -3.5,3.09372 1.65,0.47296 4.35,1.25325 6,1.73398 3.6444,1.06179 18.1096,-1.24051 17.7747,-2.82904 -0.2719,-1.28923 5.0127,-2.61148 9.4001,-2.35198 1.7461,0.10328 3.4601,-0.27403 3.809,-0.83847 0.9746,-1.57699 3.5162,-1.21667 3.5162,0.49849 0,0.83861 -1.2002,1.98107 -2.6671,2.53879 l -2.6672,1.01404 2.2574,1.5811 c 1.5687,1.09874 3.6026,1.42945 6.6671,1.08404 4.579,-0.51611 5.7189,0.57953 2.8135,2.70406 -1.6375,1.19736 -8.2555,0.50756 -15.1208,-1.57604 -2.2034,-0.66875 -3.8653,-0.62942 -5.2747,0.12485 -1.1527,0.61691 -7.3467,1.12373 -14.0839,1.15241 l -12.0263,0.0512 -6.1053,-4.09959 c -4.5116,-3.02951 -7.1086,-4.09961 -9.949,-4.09961 -2.114,0 -3.8437,-0.45 -3.8437,-1 0,-0.55 -1.3234,-1 -2.941,-1 -1.6175,0 -3.2191,-0.45 -3.559,-1 -0.3399,-0.55 -2.3649,-1 -4.5,-1 -2.1351,0 -4.1235,-0.39087 -4.4188,-0.8686 -0.2952,-0.47773 -3.8093,-1.24017 -7.809,-1.6943 -12.49594,-1.41882 -16.7722,-0.26733 -16.7722,4.5163 0,4.95967 0.89977,6.0466 5.00544,6.0466 3.93383,0 13.75016,4.5121 17.55906,8.071 1.1354,1.06095 2.7104,1.93068 3.5,1.93274 2.0513,0.005 7.9355,3.75978 7.9355,5.06326 0,0.60303 1.575,3.01849 3.5,5.3677 1.925,2.3492 3.5,4.78744 3.5,5.41829 0,1.28626 -1.9755,1.50171 -3.5,0.3817 -1.5761,-1.15794 -7.0662,-8.55102 -7.7859,-10.48469 -0.3582,-0.9625 -1.5716,-1.75 -2.6963,-1.75 -2.2558,0 -5.3557,-1.56738 -8.4054,-4.25 -1.0943,-0.9625 -2.77811,-1.75 -3.74194,-1.75 -0.96384,0 -2.03054,-0.45 -2.37046,-1 -0.813,-1.31546 -7.5,-1.29774 -7.5,0.0199 0,1.4437 4.39999,8.23727 6.42177,9.9152 3.34128,2.77299 6.16003,13.0649 3.57823,13.0649 -0.55,0 -1,-0.9 -1,-2 0,-1.1 -0.45,-2 -1,-2 -0.55,0 -1,-0.9 -1,-2 0,-1.1 -0.3375,-2.02108 -0.75,-2.04684 -0.4125,-0.0258 -2.325,-2.27442 -4.25,-4.99702 -3.90357,-5.52096 -5.91051,-6.60958 -9.06894,-4.91924 -2.14,1.14529 -2.13831,1.1543 0.80466,4.30539 1.62203,1.73674 3.52465,4.62021 4.22804,6.40771 0.70338,1.7875 1.67429,3.25 2.15756,3.25 0.48327,0 0.87868,0.9 0.87868,2 0,1.1 0.35298,2 0.78439,2 0.43142,0 1.58186,1.35 2.55654,3 0.97468,1.65 2.25959,3 2.85536,3 0.59578,0 1.62068,0.73501 2.27757,1.63336 1.3388,1.83092 9.19864,3.65761 14.52614,3.37602 12.5791,-0.66489 15.4679,-0.48324 15.7538,0.99062 0.244,1.258 -1.7549,1.54609 -12.3898,1.78566 -10.898,0.2455 -13.2675,0.01 -16.85368,-1.67581 -4.78938,-2.25127 -8.59182,-6.28891 -13.35284,-14.17878 -1.83839,-3.04653 -4.66431,-6.41484 -6.27983,-7.48511 -3.2546,-2.15617 -4.7431,-5.98051 -3.00443,-7.71918 1.69275,-1.69275 1.35695,-7.35279 -0.68375,-11.52509 -2.267,-4.63495 -4.51076,-8.54905 -5.27488,-9.20169 -0.32197,-0.275 -1.93925,-2.975 -3.59394,-6 -1.65469,-3.025 -4.87876,-8.38227 -7.16459,-11.90504 -2.28583,-3.52277 -4.15606,-7.01637 -4.15606,-7.76357 0,-0.74719 -0.40272,-2.13992 -0.89493,-3.09496 -0.49222,-0.95504 -2.39664,-4.88643 -4.23205,-8.73643 -5.74502,-12.05089 -15.10869,-25.5 -17.75384,-25.5 -0.53698,0 -1.70481,-0.72848 -2.59518,-1.61885 -1.4918,-1.49181 -1.49115,-1.75996 0.008,-3.41682 1.93345,-2.13644 1.14121,-4.03145 -3.46958,-8.2991 -1.68421,-1.55912 -3.06242,-3.24662 -3.06242,-3.75 0,-0.50337 -0.52707,-0.91523 -1.17126,-0.91523 -0.64419,0 -1.99171,-0.7425 -2.99449,-1.65 -1.00277,-0.9075 -3.28821,-1.695 -5.07874,-1.75 -2.36062,-0.0725 -3.52686,-0.71849 -4.24264,-2.35 -0.54292,-1.2375 -1.56954,-2.25 -2.28138,-2.25 -0.71184,0 -1.55328,-0.675 -1.86986,-1.5 -0.31659,-0.825 -1.1759,-1.5 -1.9096,-1.5 -2.18594,0 -2.88195,2.21247 -1.10481,3.51195 2.54776,1.86296 1.99699,2.48805 -2.19223,2.48805 -3.86779,0 -6.18791,1.63026 -7.47161,5.25 -0.34133,0.9625 -1.53473,1.75 -2.652,1.75 -2.36305,0 -2.7249,-1.79664 -0.53138,-2.63837 0.825,-0.31659 1.5,-1.62417 1.5,-2.90575 0,-2.08781 -0.35078,-2.27322 -3.37287,-1.7828 -1.97476,0.32046 -3.65729,0.0871 -4.05902,-0.56287 -0.37738,-0.61061 -2.89375,-1.11021 -5.59194,-1.11021 -3.88235,0 -5.1291,0.41724 -5.97617,2 -0.61081,1.14132 -2.09382,2 -3.45414,2 -3.9476,0 -8.40719,3.22313 -10.02106,7.24262 -0.82649,2.05844 -3.30767,5.3733 -5.51375,7.36636 -2.41801,2.18453 -4.01105,4.51688 -4.01105,5.87252 0,1.23683 -0.9,3.39295 -2,4.79137 -1.1,1.39842 -2,3.03411 -2,3.63486 0,0.60075 -0.41968,1.09227 -0.93261,1.09227 -0.51294,0 -1.21826,0.9 -1.56739,2 -0.34913,1.1 -1.18437,2 -1.8561,2 -0.67173,0 -2.6664,2.38437 -4.43261,5.2986 -2.393,3.94842 -3.21129,6.48156 -3.21129,9.94098 0,2.55331 0.39812,4.88844 0.8847,5.18916 0.9387,0.58015 1.68858,3.65105 3.06976,12.57126 0.46838,3.025 1.40082,7.3 2.07209,9.5 0.67127,2.2 1.4295,6.475 1.68496,9.5 0.25545,3.025 0.87487,5.9275 1.37648,6.45 0.5016,0.5225 0.91201,2.67412 0.91201,4.78138 0,2.52417 0.5244,4.03262 1.53699,4.42119 2.40915,0.92448 4.46301,5.82892 4.46301,10.65731 0,2.99694 1.04096,6.45603 3.25,10.79966 1.7875,3.51475 3.5875,6.54046 4,6.72379 0.4125,0.18334 0.75,1.39428 0.75,2.69099 0,1.2967 0.45,2.63576 1,2.97568 0.55,0.33992 1.00231,1.60398 1.00512,2.80902 0.003,1.20504 1.11378,3.99098 2.46879,6.19098 1.35502,2.2 2.47772,5.20686 2.49488,6.68191 0.0213,1.83446 1.00718,3.37686 3.11987,4.88122 1.97925,1.40935 4.35037,4.93591 6.60132,9.8181 1.93196,4.19032 4.10078,8.74377 4.81959,10.11877 0.71881,1.375 1.6319,4.3 2.02907,6.5 0.39718,2.2 1.14801,4.53773 1.66851,5.19496 1.189,1.50131 0.27065,13.1787 -1.69067,21.49801 -1.79625,7.61911 -1.98667,23.07887 -0.32177,26.12277 0.82507,1.50845 1.12842,7.71447 0.98047,20.05827 -0.13607,11.35313 0.16963,18.33654 0.83796,19.14183 0.60877,0.73351 1.05588,6.42708 1.06093,13.50997 0.007,10.09725 0.35188,12.95242 1.96733,16.296 1.07723,2.22962 1.9586,6.01606 1.9586,8.41433 0,2.39826 0.9,6.22326 2,8.5 2.15036,4.45074 2.61923,9.26312 1,10.26386 -0.55,0.33992 -1,3.50082 -1,7.02422 0,5.52559 0.37802,6.85772 2.75,9.69098 3.57682,4.27241 5.25,7.32277 5.25,9.57123 0,0.99746 0.53543,2.349 1.18985,3.00342 0.91979,0.91979 0.69283,2.07416 -1,5.08615 -1.77354,3.15559 -2.18985,5.50467 -2.18985,12.35652 0,8.85419 1.22987,12.85556 5,16.26748 3.11937,2.82299 5,7.38666 5,12.13335 0,3.46971 0.7603,5.3306 3.84077,9.40062 4.36476,5.76683 6.15923,12.04313 6.15923,21.54232 l 0,6.42371 -132.5,0 -132.5,0 0,-3.64649 z m -87,-255.35351 c 0,-0.55 0.56675,-1 1.25945,-1 0.6927,0 1.82152,-0.9 2.50848,-2 0.68696,-1.1 1.8077,-2.00557 2.49054,-2.01238 1.22829,-0.0122 5.74153,-6.15928 5.74153,-7.81996 0,-0.47321 0.7204,-2.30446 1.60089,-4.06945 1.55061,-3.10827 1.2749,-10.12285 -0.3962,-10.08024 -0.38758,0.01 -2.17065,2.25988 -3.96238,5 -1.79172,2.74012 -3.70422,4.98203 -4.25,4.98203 -0.54577,0 -0.99231,0.85186 -0.99231,1.89301 0,1.04116 -0.68175,2.15463 -1.51501,2.47438 -0.83325,0.31975 -1.95426,1.60539 -2.49113,2.85698 -0.53687,1.2516 -1.90061,3.4229 -3.030549,4.82513 -2.34499,2.91009 -1.76063,5.9505 1.143679,5.9505 1.04115,0 1.89301,-0.45 1.89301,-1 z m 66,-14 c 0,-2.33333 -0.44444,-3 -2,-3 -2.26009,0 -2.65063,2.34542 -0.75,4.50417 1.94112,2.20473 2.75,1.7623 2.75,-1.50417 z m -46.14078,-15.5 c -0.25825,-4.98888 -0.53416,-5.29642 -2.46717,-2.75 -2.39169,3.15065 -1.64493,7.25 1.32069,7.25 1.0027,0 1.3158,-1.22893 1.14648,-4.5 z m -71.859219,1.5 c 0,-0.55 -0.42344,-1 -0.94098,-1 -0.51754,0 -1.2191,0.45 -1.55902,1 -0.33992,0.55 0.0835,1 0.94098,1 0.85746,0 1.55902,-0.45 1.55902,-1 z m 9.20034,-3.64034 c 1.48519,-0.74781 3.73519,-1.36134 5,-1.3634 2.65666,-0.004 8.79966,-3.48192 8.79966,-4.98156 0,-0.55809 0.60526,-1.0147 1.34501,-1.0147 0.73976,0 2.1595,-0.9 3.15499,-2 0.99549,-1.1 2.40486,-2 3.13193,-2 0.72708,0 2.06255,-1.13029 2.96772,-2.51175 0.90517,-1.38145 2.71554,-2.78024 4.02306,-3.1084 1.30751,-0.32817 2.37729,-0.99788 2.37729,-1.48826 0,-1.67448 -5.07903,-0.89587 -7.23037,1.10841 -1.18072,1.1 -2.7369,2 -3.45819,2 -0.72129,0 -1.31144,0.71713 -1.31144,1.59362 0,0.87649 -0.8851,1.82508 -1.96688,2.10797 -1.08179,0.28289 -2.22291,1.32103 -2.53584,2.30697 -0.67435,2.12469 -4.50333,3.27901 -7.98129,2.4061 -3.51161,-0.88136 -14.51599,5.69567 -14.51599,8.67582 0,1.12013 4.37016,0.19773 8.20034,-1.73082 z m 62.799659,-7.47624 c 0,-2.82129 -3.66153,-2.43434 -4.21198,0.44513 -0.37953,1.98539 -0.10196,2.26296 1.88343,1.88343 1.45628,-0.27839 2.32855,-1.15066 2.32855,-2.32856 z m -23.499999,1.11658 c 0.33992,-0.55 3.516479,-1 7.059019,-1 3.62732,0 6.44098,0.43684 6.44098,1 0,0.55 0.49814,1 1.10699,1 0.60884,0 0.86635,-0.6271 0.57223,-1.39355 -0.80669,-2.10222 7.3444,-8.60645 10.7856,-8.60645 0.84435,0 1.55626,-0.3375 1.58202,-0.75 0.0258,-0.4125 2.27089,-2.325 4.98917,-4.25 2.71828,-1.925 4.9472,-4.01075 4.95316,-4.63499 0.006,-0.62424 1.02333,-1.8147 2.26083,-2.64545 3.4207,-2.29637 6.75,-5.67322 6.75,-6.84641 0,-1.75797 -7.72023,0.0865 -13.84308,3.30732 -5.10853,2.68724 -8.45509,3.73675 -17.6393,5.53183 -1.64032,0.3206 -4.4665,1.41649 -6.28042,2.43531 -1.81392,1.01881 -3.81141,1.85239 -4.43888,1.85239 -0.62746,0 -1.90214,0.68897 -2.83262,1.53104 -0.930479,0.84207 -2.721969,1.72944 -3.981079,1.97192 -1.25912,0.24249 -4.43899,2.25352 -7.06637,4.46896 -2.62738,2.21544 -5.29633,4.02808 -5.93099,4.02808 -0.63466,0 -0.96466,0.5625 -0.73334,1.25 0.23132,0.6875 1.52559,1.11751 2.87615,0.95558 1.35057,-0.16192 3.5613,0.14705 4.91275,0.68662 3.25437,1.2993 7.68588,1.35579 8.45718,0.1078 z m 55.499999,-3 c 0,-1.1 -0.45,-2 -1,-2 -0.55,0 -1,0.9 -1,2 0,1.1 0.45,2 1,2 0.55,0 1,-0.9 1,-2 z m -79.074559,-5.09716 c 9.69367,-5.60668 9.00257,-9.67923 -0.733,-4.31951 -2.58084,1.42083 -5.59244,3.46065 -6.69244,4.53292 -1.71776,1.67446 -1.78968,2.08008 -0.50968,2.87422 0.97331,0.60386 2.18751,0.472 3.5,-0.38008 1.10532,-0.71759 3.10113,-1.93598 4.43512,-2.70755 z M 468.95807,424.44398 c 0.56764,-2.92748 -1.79633,-4.61909 -6.45502,-4.61909 -5.02481,0 -5.5761,1.0436 -1.62756,3.08102 1.5125,0.78044 3.36473,2.00157 4.11607,2.71362 1.70684,1.61759 3.52966,1.07737 3.96651,-1.17555 z M 78.312441,339.32489 c 2.49953,-2.87471 3.81305,-3.18859 3.81305,-0.91118 0,1.32328 0.96099,1.50848 5.75,1.10813 8.53499,-0.71352 12.936599,-1.97298 21.249999,-6.08041 10.22951,-5.05413 10.7094,-5.37444 17.25,-11.51378 8.66155,-8.13017 8.25853,-8.56848 -7,-7.61304 -7.0125,0.4391 -16.9606,0.91665 -22.106889,1.06121 -5.14629,0.14457 -9.84879,0.75475 -10.45,1.35596 -0.60121,0.60121 -2.49001,1.09311 -4.19733,1.09311 -1.73124,0 -5.19649,1.32688 -7.83473,3 -2.60178,1.65 -5.45954,3 -6.35058,3 -2.62245,0 -11.22486,4.38919 -11.26948,5.75 -0.0533,1.6255 -1.18046,1.57784 -4.59639,-0.19436 -3.19223,-1.65615 -4.61596,-1.12396 -8.8245,3.29861 -1.64238,1.7259 -2.63697,3.6594 -2.31458,4.49954 0.70038,1.82516 11.30938,3.10634 20.05343,2.42173 3.70084,-0.28975 7.53181,0.0265 9.64105,0.79576 4.77963,1.74329 4.73377,1.75012 7.18695,-1.07128 z m 202.658519,-17.75 c 1.73105,-6.65555 1.75809,-8.25328 0.18928,-11.18486 l -1.46525,-2.73805 -12.53475,0.5505 c -6.89411,0.30278 -14.44725,0.83895 -16.78475,1.19149 -6.09721,0.91959 -5.5574,3.27096 1.53306,6.67784 3.14432,1.5108 7.74194,3.86063 10.21694,5.22183 2.475,1.3612 5.71094,2.48759 7.19098,2.50308 1.48004,0.0155 2.9691,0.47817 3.30902,1.02817 0.33992,0.55 2.10799,1 3.92906,1 3.05525,0 3.3964,-0.3283 4.41641,-4.25 z M 110.41414,305.75021 c 14.84786,-0.9271 17.8293,-1.39732 21.71135,-3.42428 2.475,-1.29228 6.3,-2.89056 8.5,-3.55175 2.2,-0.66118 4.675,-1.77332 5.5,-2.47143 2.14412,-1.81435 10.69393,-4.53254 12.3082,-3.91309 0.7492,0.2875 2.44885,-0.36779 3.77699,-1.45618 2.39445,-1.96223 2.39795,-1.99183 0.41481,-3.51195 -1.1,-0.84317 -2.72681,-1.54734 -3.61514,-1.56484 -0.88833,-0.0175 -2.73701,-0.91426 -4.10817,-1.99282 -2.0334,-1.59947 -4.22458,-1.98967 -11.88486,-2.11643 -5.38142,-0.089 -10.67286,0.35923 -12.39183,1.04982 -1.65,0.66287 -3.68706,1.34509 -4.5268,1.51603 -0.83974,0.17094 -4.32518,1.66635 -7.74541,3.32313 -3.78779,1.83483 -6.46207,2.61841 -6.84143,2.00459 -0.37169,-0.6014 -2.41657,-0.73876 -5.07133,-0.34065 -3.29303,0.49382 -5.08994,0.24681 -6.917979,-0.95097 -1.76575,-1.15696 -4.24019,-1.53348 -8.68326,-1.32128 l -6.21379,0.29678 -0.31861,4.47749 c -0.52407,7.36477 0.52416,10.6541 4.1001,12.86601 1.77018,1.09494 3.5734,2.02809 4.00716,2.07365 0.43376,0.0456 8.533759,-0.40075 17.999999,-0.99183 z M 80.270321,294.82489 c -0.19534,-5.225 -0.50284,-9.6575 -0.68333,-9.85 -0.18049,-0.1925 -1.94817,1.27 -3.92817,3.25 -1.98,1.98 -4.2049,3.6 -4.94422,3.6 -2.22742,0 -3.85816,2.79187 -3.18872,5.45916 0.79946,3.18527 7.31913,7.68821 10.59961,7.32082 2.49999,-0.27998 2.5,-0.28 2.14483,-9.77998 z m 166.855169,-0.54278 c 6.325,-0.31321 13.075,-1.20938 15,-1.99149 1.925,-0.78212 6.875,-1.62753 11,-1.87869 7.7058,-0.4692 16.04656,-2.43754 21.71743,-5.12513 3.67534,-1.74185 8.67707,-8.81791 13.28497,-18.79454 5.81657,-12.59352 6.75928,-39.27921 1.69299,-47.92418 -2.75407,-4.69945 -5.30352,-6.3819 -10.69539,-7.05813 -6.11088,-0.76641 -14.22837,-3.41248 -23.34957,-7.61129 -4.86726,-2.24057 -9.27375,-4.07377 -9.7922,-4.07377 -1.08962,0 -1.84813,-0.61916 -9.6135,-7.84727 -5.70351,-5.3089 -5.78219,-5.34352 -10.96561,-4.82526 -6.56224,0.65613 -11.90002,2.43822 -15.86185,5.29571 -4.69011,3.38277 -9.99643,4.05801 -13.25009,1.68612 -1.46695,-1.0694 -3.45468,-2.23735 -4.41718,-2.59545 -0.9625,-0.35809 -1.75,-1.1152 -1.75,-1.68247 0,-0.56726 -1.81125,-1.03138 -4.025,-1.03138 -3.67076,0 -4.07772,0.2636 -4.62402,2.99509 -0.67286,3.36431 -4.04821,5.83706 -11.85098,8.68193 -4.09552,1.49321 -7.44029,1.77292 -18.49001,1.54624 -16.73131,-0.34323 -19.00999,0.073 -19.00999,3.4725 l 0,2.53685 9.98473,-0.40104 c 12.002,-0.48206 12.06382,1.22661 0.0762,2.10745 -8.65562,0.63601 -11.24917,1.92438 -9.09615,4.5186 1.77972,2.14444 7.29175,1.92577 11.53517,-0.45762 4.20826,-2.36364 6.5,-2.55647 6.5,-0.54692 0,0.7992 -1.6875,2.18703 -3.75,3.08407 -2.0625,0.89704 -4.53139,2.04315 -5.48643,2.54692 -0.95504,0.50376 -3.14177,0.91593 -4.85941,0.91593 -3.05041,0 -3.10882,0.0871 -2.51373,3.75 0.33508,2.0625 1.00494,7.125 1.48856,11.25 1.0813,9.22272 1.70215,10.78798 4.45556,11.23323 2.56906,0.41543 7.66545,-2.76799 7.66545,-4.78817 0,-2.51869 8.41961,-15.57516 11.04571,-17.12882 1.40014,-0.82836 3.5606,-2.98723 4.80102,-4.7975 1.43189,-2.08971 4.51855,-4.33693 8.45428,-6.15507 5.74777,-2.65523 7.23623,-2.88724 20.44899,-3.18744 9.15374,-0.20799 14.25,0.0379 14.25,0.68761 0,0.59205 -4.45717,1.19247 -10.75,1.44812 -16.19292,0.65786 -18.70677,1.4234 -28.06362,8.54616 -4.50246,3.42747 -8.18633,6.88654 -8.18633,7.68682 0,0.80028 -0.45,1.45506 -1,1.45506 -0.55,0 -1,0.59015 -1,1.31144 0,0.72129 -0.9,2.27747 -2,3.45819 -2.35299,2.52564 -2.62112,5.23037 -0.5185,5.23037 2.7764,0 10.39121,-6.37282 10.4566,-8.75111 0.1247,-4.53507 12.93126,-13.88706 21.5619,-15.74557 7.1507,-1.53982 9.5,-1.69134 9.5,-0.61273 0,0.61018 -1.125,1.10941 -2.5,1.10941 -1.375,0 -2.5,0.45 -2.5,1 0,0.55 2.25,1 5,1 2.75,0 5,0.45 5,1 0,0.55 -0.9,1 -2,1 -1.1,0 -2,0.45 -2,1 0,0.55 0.45,1 1,1 0.55,0 1,0.45 1,1 0,0.55 -1.77344,1 -3.94098,1 -2.16754,0 -4.2191,0.45 -4.55902,1 -0.33992,0.55 -2.39758,1 -4.57259,1 -2.175,0 -4.82798,0.54547 -5.8955,1.21215 -1.06752,0.66667 -2.26607,0.88703 -2.66343,0.48966 -1.1149,-1.1149 2.82038,-3.6344 5.7323,-3.67001 3.39335,-0.0415 8.89922,-1.97777 8.89922,-3.12963 0,-2.10066 -10.34879,-1.45303 -13.87902,0.86855 -1.44626,0.9511 -3.50085,2.21143 -4.56575,2.80072 -3.20572,1.77397 -3.03129,3.42856 0.36144,3.42856 1.69583,0 3.08333,0.39591 3.08333,0.87981 0,0.48389 2.5875,1.1577 5.75,1.49734 3.1625,0.33964 7.64191,0.88903 9.95425,1.22086 3.3205,0.47651 4.82437,0.16177 7.15437,-1.49734 1.62257,-1.15537 4.13399,-2.10067 5.58093,-2.10067 2.32094,0 2.50474,0.23558 1.56045,2 -0.5887,1.1 -1.5449,2 -2.12489,2 -0.57999,0 -1.81715,0.9418 -2.74924,2.09288 -1.63393,2.01782 -2.04258,2.05135 -11.39437,0.93476 -5.33481,-0.63697 -11.16635,-1.57876 -12.95898,-2.09288 -5.6765,-1.628 -7.30027,-1.07246 -14.47622,4.95273 -3.85658,3.23812 -7.95359,6.18635 -9.10448,6.55163 -3.91575,1.24281 -6.52239,7.08597 -6.29496,14.11107 0.26904,8.31066 1.37241,11.85353 4.96639,15.94685 1.63355,1.8605 3.37044,4.09813 3.85976,4.9725 0.49806,0.88997 3.06578,1.95705 5.83333,2.42417 2.71901,0.45893 6.29366,1.56782 7.94366,2.46419 1.87257,1.01729 5.38493,1.63209 9.34609,1.63594 8.43002,0.008 16.25817,2.40327 21.42862,6.55627 3.72518,2.99212 4.75791,3.33953 8.72529,2.93519 2.475,-0.25224 9.675,-0.71488 16,-1.02808 z m -99.18358,-97.71577 c 0.17403,-1.5078 -0.0735,-2.74145 -0.55,-2.74145 -1.49327,0 -3.26642,2.31974 -3.26642,4.27332 0,3.04907 3.4474,1.66532 3.81642,-1.53187 z m 155.68358,1.75855 c 0,-0.55 -1.8,-1.39237 -4,-1.87193 -2.2,-0.47956 -8.05,-2.14605 -13,-3.7033 -9.48171,-2.98293 -21.35258,-5.40552 -22.22288,-4.53522 -0.7448,0.74479 2.34046,3.60849 3.90145,3.62127 0.72679,0.006 6.27143,1.76335 12.32143,3.90534 8.60158,3.04537 12.30823,3.86065 17,3.73918 3.3,-0.0854 6,-0.60534 6,-1.15534 z m 97.91731,-14.40862 c 0.95,-1.04975 3.15725,-2.44516 4.90498,-3.10093 5.4328,-2.03842 7.09518,-2.68792 9.67771,-3.78116 1.375,-0.58206 6.775,-1.2797 12,-1.5503 5.225,-0.2706 10.81521,-0.99798 12.42268,-1.6164 1.60748,-0.61842 8.79272,-1.40518 15.9672,-1.74835 l 13.04451,-0.62396 5.80445,-6.08514 c 3.19245,-3.34683 6.97984,-7.35495 8.41643,-8.90695 1.43658,-1.55199 4.35184,-3.92014 6.47835,-5.26254 2.12651,-1.34241 3.93388,-2.88509 4.01638,-3.42819 0.45068,-2.96686 0.0953,-3.51194 -2.5933,-3.97764 -4.05861,-0.70301 -3.78247,-2.33047 0.57826,-3.40808 3.56538,-0.88107 3.62519,-0.97678 3.12507,-5 -0.28044,-2.25596 -1.6358,-6.35174 -3.01192,-9.10174 -1.37611,-2.75 -3.39762,-6.8 -4.49224,-9 -2.38852,-4.80051 -5.26057,-7.5 -7.97941,-7.5 -2.83144,0 -7.04707,3.58366 -22.61546,19.22517 -10.41979,10.46874 -14.45249,13.88343 -16.99695,14.39219 -1.83477,0.36686 -3.57041,1.27803 -3.85699,2.02483 -0.28657,0.7468 -1.32122,1.35781 -2.29921,1.35781 -1.74908,0 -9.86342,2.25088 -15.25785,4.23246 -1.5125,0.5556 -2.75,1.59378 -2.75,2.30707 0,0.71329 -0.27314,2.0087 -0.60699,2.87868 -0.82989,2.16266 1.32135,2.02144 6.37085,-0.41821 4.40449,-2.12802 9.23614,-2.65382 9.23614,-1.00512 0,0.95357 -1.31471,1.63189 -14.24388,7.349 -6.19957,2.74137 -9.91741,6.13486 -12.77021,11.65612 -0.99463,1.925 -3.19836,5.04355 -4.89717,6.93011 -1.69881,1.88656 -3.08874,3.79906 -3.08874,4.25 0,1.55678 3.69523,0.81414 5.41731,-1.08873 z m -129.08179,-1.76023 c 0.85442,-0.85442 -2.25057,-4.33115 -3.86806,-4.33115 -0.67242,0 -1.77772,-0.66891 -2.45623,-1.48646 -1.45687,-1.75543 -14.67026,-8.51354 -16.64559,-8.51354 -2.3782,0 -1.48073,3.28604 1.83053,6.70239 1.75789,1.81369 4.14289,3.29761 5.3,3.29761 1.15711,0 2.58749,0.48366 3.17862,1.07479 1.25972,1.25972 8.11994,3.81787 10.40854,3.88132 0.87084,0.0241 1.88432,-0.25709 2.25219,-0.62496 z m -167.33552,-2.33115 c 0,-2.27384 -2.50788,-2.72483 -3.32411,-0.59777 -0.62758,1.63544 0.1099,2.59777 1.99078,2.59777 0.73333,0 1.33333,-0.9 1.33333,-2 z m 295.25,-10.96823 c 5.3847,-6.40027 7.22354,-11.00304 4.95574,-12.40461 -1.52691,-0.94369 -8.80626,3.11362 -10.73034,5.98078 -4.67656,6.9688 -5.48593,9.98153 -3.2754,12.19206 2.01002,2.01002 3.07943,1.3284 9.05,-5.76823 z m -298.40147,-7.28177 c 3.07261,-3.98551 3.14882,-4.2698 1.22465,-4.56815 -2.3403,-0.36288 -6.991699,4.30607 -7.041579,7.06815 -0.054,2.98903 2.39741,1.93548 5.816929,-2.5 z M 406.8367,151.02453 c 2.16467,-1.37566 6.20033,-13.19964 4.50519,-13.19964 -0.45194,0 -2.71051,1.87011 -5.01905,4.1558 -2.97186,2.94244 -4.19735,4.98622 -4.19735,7 0,2.89948 1.99972,3.76701 4.71121,2.04384 z m 100.01649,-42.86871 c 0.61902,-1.87963 -9.3562,-6.33093 -14.18742,-6.33093 -6.83263,0 -8.0596,3.07347 -2.99409,7.5 1.56894,1.37104 16.68368,0.34259 17.18151,-1.16907 z M 326.84557,96.824891 c 0.48115,-3.04294 -4.07213,-6.85728 -10.22008,-8.56149 -8.23777,-2.28352 -11.5,-2.81022 -11.5,-1.85673 0,1.21365 5.21575,6.41758 6.43709,6.4225 0.5846,0.002 3.08791,1.3616 5.56291,3.02055 4.72009,3.16379 9.30134,3.62341 9.72008,0.97517 z m 151.27992,-18.44098 c 0,-0.79254 -0.45,-1.7191 -1,-2.05902 -0.55,-0.33992 -1,0.30852 -1,1.44098 0,1.13246 0.45,2.05902 1,2.05902 0.55,0 1,-0.64844 1,-1.44098 z m -298,100.440979 c 0,-0.55 0.675,-1 1.5,-1 0.825,0 1.5,0.45 1.5,1 0,0.55 -0.675,1 -1.5,1 -0.825,0 -1.5,-0.45 -1.5,-1 z"
     id="path2987"
     inkscape:connector-curvature="0" />
</svg>
