<?xml version="1.0" encoding="UTF-8" standalone="no"?>
<!-- Created with Inkscape (http://www.inkscape.org/) -->

<svg
   xmlns:dc="http://purl.org/dc/elements/1.1/"
   xmlns:cc="http://creativecommons.org/ns#"
   xmlns:rdf="http://www.w3.org/1999/02/22-rdf-syntax-ns#"
   xmlns:svg="http://www.w3.org/2000/svg"
   xmlns="http://www.w3.org/2000/svg"
   xmlns:sodipodi="http://sodipodi.sourceforge.net/DTD/sodipodi-0.dtd"
   xmlns:inkscape="http://www.inkscape.org/namespaces/inkscape"
   id="svg2"
   version="1.1"
   inkscape:version="0.48.2 r9819"
   width="1448"
   height="1362"
   sodipodi:docname="BurroB.png">
  <metadata
     id="metadata8">
    <rdf:RDF>
      <cc:Work
         rdf:about="">
        <dc:format>image/svg+xml</dc:format>
        <dc:type
           rdf:resource="http://purl.org/dc/dcmitype/StillImage" />
        <dc:title></dc:title>
      </cc:Work>
    </rdf:RDF>
  </metadata>
  <defs
     id="defs6" />
  <sodipodi:namedview
     pagecolor="#ffffff"
     bordercolor="#666666"
     borderopacity="1"
     objecttolerance="10"
     gridtolerance="10"
     guidetolerance="10"
     inkscape:pageopacity="0"
     inkscape:pageshadow="2"
     inkscape:window-width="1920"
     inkscape:window-height="1176"
     id="namedview4"
     showgrid="false"
     inkscape:zoom="0.49009457"
     inkscape:cx="724"
     inkscape:cy="681"
     inkscape:window-x="0"
     inkscape:window-y="24"
     inkscape:window-maximized="1"
     inkscape:current-layer="svg2" />
  <path
     style="fill:#000000"
     d="m 935.04044,1363.5245 -22.5,0.4189 -4,-0.7563 c -2.2,-0.4159 -4.9596,-1.2816 -6.1324,-1.9237 -1.1728,-0.6421 -4.1544,-3.4164 -6.6257,-6.1652 l -4.4934,-4.9977 -2.2559,-4.7801 c -1.2407,-2.629 -3.0881,-7.188 -4.1052,-10.1311 -1.0171,-2.9431 -2.8558,-6.9797 -4.0861,-8.9703 -1.2302,-1.9906 -4.9082,-6.5576 -8.1733,-10.1489 l -5.9366,-6.5297 -1.9186,-4.309 -1.9186,-4.3091 -3.1771,-1.9549 c -1.7474,-1.0752 -6.12,-2.8395 -9.7168,-3.9207 l -6.5396,-1.9657 -2.167,-2.0188 -2.1669,-2.0188 -3.1441,-10.1885 -3.144,-10.1885 -4.5283,-4.401 -4.5282,-4.4009 0.5943,-5.0173 0.5942,-5.0174 3.5346,-7.1535 3.5347,-7.1536 0,-2.7733 0,-2.7732 -1.3885,-3.323 -1.3884,-3.323 -3.6116,-3.6116 -3.6115,-3.6115 0.022,-1.2834 c 0.012,-0.7058 0.9095,-3.2392 1.9942,-5.6297 1.0848,-2.3905 4.9267,-9.2497 8.5375,-15.2426 3.6108,-5.9929 7.9243,-13.8939 9.5855,-17.5577 1.6613,-3.6638 4.3408,-10.702 5.9546,-15.6404 1.6138,-4.9384 4.03,-13.7565 5.3692,-19.5959 1.3393,-5.8393 3.4203,-16.917 4.6245,-24.617 l 2.1895,-14 0.4598,-39.4535 0.4599,-39.4534 -1.1657,-16.5466 c -0.6411,-9.10057 -2.0411,-23.52147 -3.111,-32.04647 -1.07,-8.525 -3.3033,-23.825 -4.963,-34 -1.6597,-10.175 -4.1468,-24.125 -5.5269,-31 -1.3801,-6.875 -3.8663,-17.5797 -5.5249,-23.7882 -1.6585,-6.2084 -5.5117,-18.3584 -8.5624,-27 -3.0508,-8.6415 -6.4412,-17.18 -7.5343,-18.9745 l -1.9873,-3.2626 -2.1606,-1.2323 -2.1606,-1.2322 -20.5,-0.6659 c -11.275,-0.3663 -25,-0.9849 -30.5,-1.3748 l -10,-0.709 -5.8722,4.5789 -5.8721,4.5788 -6.6279,2.2498 -6.6278,2.2498 -8.5,0.039 -8.5,0.039 -5.173,-3.286 -5.173,-3.2861 -2.5425,0.6382 -2.5425,0.6381 -2.6694,-2.0997 -2.6693,-2.0998 -5.1788,0 c -2.8483,0 -10.3251,0.6822 -16.6151,1.5159 -6.29,0.8338 -20.2114,2.4121 -30.9364,3.5074 -10.725,1.0953 -23.1,2.4573 -27.5,3.0265 l -8,1.0351 -8.6882,2.4575 c -4.7785,1.3517 -9.1842,2.4576 -9.7905,2.4576 -0.6063,0 -2.3216,-0.9003 -3.8118,-2.0008 l -2.7095,-2.0008 -6.5096,-1.8598 c -3.5802,-1.0229 -10.5552,-2.4202 -15.5,-3.1051 -4.9447,-0.6849 -13.2601,-1.8907 -18.4786,-2.6794 l -9.4882,-1.4342 -5.227,-2.4728 -5.227,-2.4727 -5.3605,0.63 -5.3605,0.63 -4.8215,-2.5667 -4.8216,-2.5668 -2.6756,1.3836 c -1.4716,0.761 -3.285,2.118 -4.0299,3.0155 -0.7449,0.8975 -2.5905,2.2711 -4.1013,3.0524 l -2.747,1.4205 -1.6523,-4.9747 -1.6523,-4.9747 -1.0589,-0.6544 c -0.5824,-0.3599 -3.1751,-0.7215 -5.7617,-0.8036 l -4.7028,-0.1492 -4.9994,-3.2082 -4.9994,-3.2081 -2.1946,0 c -1.207,0 -3.8101,0.675 -5.7846,1.5 -1.9745,0.825 -4.4235,1.5 -5.4422,1.5 l -1.8522,0 -1.6426,-3.25 c -0.9035,-1.7875 -2.6025,-4.3052 -3.7757,-5.595 -1.1732,-1.2898 -3.3496,-2.978 -4.8364,-3.7516 -1.4869,-0.7736 -6.2646,-2.5315 -10.6171,-3.9065 l -7.9137,-2.4999 -2.6088,-2.0521 -2.6089,-2.0522 -1.1967,-3.9944 -1.1968,-3.9943 -3.3621,-2.952 -3.3621,-2.952 -3.4705,0 -3.4704,0 -4.2448,5.4856 c -2.3346,3.0171 -7.3133,10.5546 -11.0637,16.75 -3.7504,6.1954 -10.5577,18.7586 -15.1272,27.9183 l -8.3082,16.6538 -1.2398,5.3462 -1.2399,5.3461 -1.88,1.5021 -1.88,1.5021 -2.9948,13.2817 -2.9947,13.2817 -1.5082,2.9166 -1.5082,2.9165 0.012,17.2997 0.012,17.2996 1.5041,17 c 0.8272,9.35 2.1842,21.275 3.0155,26.5 0.8312,5.225 3.0466,15.35 4.9231,22.5 1.8764,7.14997 5.9574,20.42497 9.0689,29.49997 3.1114,9.075 8.1338,22.575 11.1609,30 3.027,7.425 8.6039,19.9706 12.393,27.8792 l 6.8893,14.3792 6.9654,11.6208 6.9653,11.6208 7.5063,9 7.5063,9 2.6761,5 c 1.4719,2.75 4.0768,6.5027 5.7887,8.3393 l 3.1125,3.3393 4.6282,2.3658 4.6282,2.3659 3.053,3.0529 3.053,3.053 2.1357,5.7419 2.1356,5.7419 4.4576,5.6967 4.4577,5.6967 2.8535,5.8033 c 1.5694,3.1918 4.5424,10.0783 6.6066,15.3033 l 3.7532,9.5 2.7418,3.5333 2.7418,3.5332 0.6559,2.9862 0.6559,2.9862 -1.3497,1.8459 -1.3498,1.8458 -7.9291,0.8308 -7.9291,0.8308 -25.1518,0.054 -25.1518,0.054 -10.0241,-9.5313 -10.0242,-9.5313 -2.069,-4.2741 -2.0691,-4.274 -0.6507,-6.4447 c -0.3579,-3.5445 -1.024,-7.4571 -1.4802,-8.6946 l -0.8296,-2.25 -1.3286,0 -1.3285,0 -3.3924,3.5 -3.3923,3.5 -1.667,0 -1.667,0 -4.7019,-5.0267 -4.7018,-5.0266 -2.9023,-6.2234 -2.9022,-6.2233 -3.9864,-16.6345 c -2.1925,-9.149 -5.8447,-23.324 -8.116,-31.5 -2.2714,-8.176 -6.7785,-23.4155 -10.0158,-33.8655 -3.2374,-10.45 -8.0927,-25.525 -10.7897,-33.5 -2.697,-7.975 -7.6613,-21.145 -11.0318,-29.2667 -3.3705,-8.1218 -9.1054,-20.7218 -12.7443,-28 -3.6388,-7.2783 -8.9814,-16.87417 -11.8725,-21.32407 l -5.2566,-8.0909 -6.2729,-6.9091 c -3.45,-3.8001 -7.7949,-9.1955 -9.6553,-11.9898 l -3.3824,-5.0806 -2.0954,-7.4194 c -1.1526,-4.0808 -3.9436,-12.3695 -6.2023,-18.4195 l -4.1069,-11 0.087,-10 0.087,-10 3.2085,-14.5 c 1.7647,-7.975 4.0424,-19 5.0617,-24.5 1.0193,-5.5 3.2292,-19.675 4.911,-31.5 1.6818,-11.825 3.7442,-28.1957 4.5831,-36.3793 l 1.5253,-14.8793 0,-9.3707 0,-9.3707 -0.85,0 c -0.4675,0 -2.83,1.4285 -5.25,3.1744 -2.42,1.7459 -7.1106,5.9084 -10.4236,9.25 -3.313,3.3416 -24.688,26.1013 -47.5,50.5771 -22.812,24.4759 -44.9824,48.3978 -49.2675,53.1599 l -7.791,8.6583 -0.879,5.8401 -0.879,5.8402 -0.6223,23 c -0.3422,12.65 -1.0854,28.625 -1.6516,35.5 l -1.0294,12.5 -1.9204,9.3715 -1.9205,9.3715 -2.2767,4.1285 -2.2768,4.1285 -5.4369,3.25 -5.4369,3.25 -3.2594,0 -3.2594,0 -3.5684,-3.1331 c -1.9626,-1.7232 -3.6838,-2.9607 -3.8249,-2.75 -0.1411,0.2107 -0.6979,1.7331 -1.2372,3.3831 l -0.9806,3 -6.9793,0.274 -6.979196,0.2741 -5.4842,-1.4383 -5.4842,-1.4383 -0.8951,0.5531 c -0.4922,0.3043 -2.4017,3.81417 -4.2432,7.79977 l -3.3481,7.2466 -4.0022,14.3645 c -2.2011,7.9005 -4.8752,18.6395 -5.9424,23.8645 -1.0672,5.225 -2.488,14.225 -3.1575,20 l -1.2171,10.5 0.6082,29.5 0.6082,29.5 1.4594,12.5 c 0.8027,6.875 1.9077,14.75 2.4557,17.5 0.5479,2.75 1.757,7.25 2.6869,10 0.93,2.75 2.8264,7.25 4.2143,10 1.3879,2.75 4.7451,8.2943 7.4605,12.3207 l 4.9372,7.3207 1.835,5.1793 c 1.0092,2.8486 3.0466,8.1043 4.5275,11.6793 1.4809,3.575 5.5699,12.5306 9.086796,19.9014 l 6.3943,13.4015 0,2.6951 0,2.6952 -3.46,3.5626 -3.46,3.5627 -3.789996,1.3407 -3.79,1.3408 -16.5,-0.082 -16.5,-0.082 -8,-1.2585 -8,-1.2585 -8,-3.4484 -8,-3.4485 -2.1598,-2.4122 -2.1598,-2.4123 -2.1773,-5.7992 c -1.1975,-3.1888 -3.0312,-9.1734 -4.0748,-13.2984 l -1.8976,-7.5 -0.015,-3.6151 -0.015,-3.6152 2.065,-2.6252 2.065,-2.6252 -0.6169,-0.9981 -0.6169,-0.9981 2.0519,-4.6387 c 1.1285,-2.5512 2.0519,-5.0314 2.0519,-5.5115 l 0,-0.8729 -7.477,0 -7.4769005,0 -1.4722,-2.25 c -0.8097,-1.2375 -2.1701,-4.932 -3.0231,-8.2101 l -1.5507999,-5.9601 0,-4.7952 0,-4.7953 2.9814999,-14.0657 c 1.6399,-7.7361 3.6672,-18.0169 4.5051,-22.8462 0.8379005,-4.8293 2.2026005,-13.9099 3.0328005,-20.179 0.8301,-6.2691 2.1871,-17.4734 3.0154,-24.8984 0.8283,-7.425 2.17,-20.7 2.9816,-29.5 l 1.4755,-16 -0.029,-11.5 -0.029,-11.5 -0.8734,-6.5 c -0.4804,-3.575 -2.2873,-14.6 -4.0152,-24.5 l -3.1417,-17.99997 0.036,-11.0294 0.036,-11.0294 1.992,-14.7102 c 1.0956,-8.0906 2.4532,-19.6014 3.017,-25.5797 l 1.025,-10.8695 1.8628,-5.3909 c 1.0244,-2.965 3.2071,-8.3474 4.8502,-11.9609 1.6432,-3.6135 6.2453,-12.0944 10.227,-18.8464 l 7.2394,-12.2764 6.3106,-8.2709 c 3.4708,-4.5489 7.0281,-9.6582 7.905,-11.3539 l 1.5943,-3.0831 0,-4.0391 0,-4.039 5.1191,-5.6527 5.119,-5.6527 1.9293,-4.3615 1.9293,-4.3615 1.0613,-12.2464 1.0613,-12.2464 -0.4821,-12 -0.4822,-12 -1.7844,-6.5541 -1.7845,-6.554 2.157,-7.1012 c 1.1863,-3.9057 2.1569,-7.837 2.1569,-8.7364 l 0,-1.6353 -1.9776,-2.7095 -1.9776,-2.7095 -1.0142,-9 -1.0142,-9 -0.01,-80 -0.01,-80 1.0401,-10.96794 1.04,-10.96794 5.3113,-24.03206 c 2.9213,-13.21763 6.3219,-28.75706 7.557,-34.53206 l 2.2456,-10.5 3.0471,-8 c 1.676,-4.4 9.0537,-20.32724 16.394896,-35.39387 l 13.3477,-27.39387 6.4077,-9.60613 6.4078,-9.60613 7.8496,-7.66977 c 4.3173,-4.21838 10.5496,-9.88277 13.8496,-12.58754 3.3,-2.70477 9.6531,-7.46174 14.1181,-10.57104 l 8.118,-5.65327 6.882,-3.16323 6.8819,-3.16323 2.6317,-2.77818 2.6317,-2.77819 13.0615,-4.11794 c 7.1838,-2.26486 17.0245,-5.82294 21.8683,-7.90684 l 8.8068,-3.7889 13,-2.80307 c 7.15,-1.54169 15.25,-3.68041 18,-4.75273 2.75,-1.07231 8.825,-2.78225 13.5,-3.79987 4.675,-1.01761 15.025,-2.75126 23,-3.85254 7.975,-1.10128 22.375,-2.75445 32,-3.67372 l 17.5,-1.67138 20,-0.13428 20,-0.13428 8.5,1.83177 c 4.675,1.00747 13,2.93879 18.5,4.29182 5.5,1.35303 13.503,3.60837 17.7845,5.01186 l 7.7846,2.5518 2.7154,2.26954 c 1.4935,1.24825 3.75,2.59344 5.0144,2.98931 l 2.299,0.71976 2.3753,-1.55635 2.3753,-1.55635 3.2577,-6.61735 3.2577,-6.61734 0.6805,-8.65923 0.6806,-8.65924 2.1881,-4.95108 c 1.2035,-2.72309 6.1935,-12.39809 11.0889,-21.5 l 8.9007,-16.54892 2.5596,-6.80202 2.5597,-6.80203 0.9692,-6.83384 0.9692,-6.83383 4.5581,-15.86414 c 2.5069,-8.72528 5.9498,-20.13914 7.6508,-25.36414 1.701,-5.225 6.0099,-16.925 9.5752,-26 3.5654,-9.075 8.3735,-20.55 10.6847,-25.5 l 4.2022,-9.000005 15.5591,-17.5 c 8.5574,-9.625 20.0031,-22.64648 25.4349,-28.93661 l 9.876,-11.43662 2.9993,-0.72664 c 1.6496,-0.39966 11.3243,-1.23373 21.4993,-1.85349 10.175,-0.61976 23.45,-1.76349 29.5,-2.54161 6.05,-0.77813 14.825,-1.70093 19.5,-2.05066 l 8.5,-0.63587 20,1.1248 c 11,0.61863 20.9,1.36563 22,1.65998 l 2,0.53519 5.8953,6.68076 c 3.2424,3.67442 12.1003,13.25142 19.6842,21.28222 l 13.789,14.60146 3.052,1.26418 3.052,1.26418 3.713,-3.25998 3.7129,-3.25998 4.0508,-1.78292 c 2.2279,-0.9806 18.2258,-7.0303 35.5508,-13.44378 17.325,-6.41348 38.925,-14.36857 48,-17.67798 9.075,-3.30941 23.025,-8.26352 31,-11.00913 l 14.5,-4.99202 9,-1.97578 9,-1.97577 17.6212,-0.55828 17.6212,-0.55828 5.8788,0.71975 5.8788,0.71976 5.2639,5.40466 5.2639,5.40467 6.0908,9.25689 c 3.3499,5.0913 8.0382,13.12486 10.4185,17.85238 l 4.3277,8.59548 5.24476,5.73859 5.2448,5.73859 8.0728,6.2762 c 4.44,3.45192 11.7741,8.58514 16.2979,11.40717 4.5238,2.82202 12.1738,7.115895 17,9.541935 4.8262,2.42603 11.4749,5.53266 14.7749,6.90362 3.3,1.37096 9.2048,3.44183 13.1217,4.60193 l 7.1217,2.10927 8.3783,1.06153 8.3783,1.06153 6.5,2.02765 6.5,2.02765 11,5.80509 11,5.80508 8,2.7052 8,2.70519 6.5673,4.35174 6.5673,4.35175 11.9327,10.70716 c 6.563,5.88894 12.6357,11.30234 13.495,12.02977 l 1.5623,1.32261 10.1754,-4.47819 10.1754,-4.47818 7.2623,-2.01565 7.2623,-2.01565 14.5,-2.04038 c 7.975,-1.12221 16.9615,-2.73462 19.9699,-3.58313 3.0085,-0.84852 7.2504,-2.45111 9.4266,-3.56132 l 3.9568,-2.01857 5.4735,-5.13957 c 3.0104,-2.82676 8.6899,-9.18957 12.6211,-14.13957 3.9313,-4.95 10.7016,-13.95 15.0453,-20 4.3437,-6.05 10.2898,-15.035495 13.2135,-19.967755 l 5.3159,-8.96776 2.8808,-7.53224 2.8809,-7.53225 2.0813,-9.5 c 1.1447,-5.225 3.2133,-15.88238 4.5969,-23.68306 l 2.5155,-14.18305 2.1718,-5.80466 2.1718,-5.8046597 2.8793,-2.87927 2.8792,-2.87928 3.2059,0.64118 3.2059,0.64118 3.504,2.82087 3.5041,2.82087 2.2585,3.9049397 c 1.2421,2.14772 3.1411,6.82994 4.22,10.40494 l 1.9615,6.5 1.6588,11 1.6588,11 0.6212,37 0.6212,37.000005 -0.713,17.5 c -0.3922,9.625 -1.1949,21.55 -1.7839,26.5 -0.5889,4.95 -1.7879,11.925 -2.6645,15.5 l -1.5937,6.5 -3.9638,6.71198 -3.9639,6.71199 -0.5313,5.8599 -0.5314,5.8599 1.6017,5.42812 1.6017,5.42811 5.4637,6.81115 5.4637,6.81114 1.0969,3.32389 1.097,3.32388 -2.0391,5.36497 c -1.1215,2.95073 -2.0393,6.32027 -2.0396,7.48785 -3e-4,1.16759 0.8832,4.12055 1.9632,6.56215 l 1.9637,4.43926 2.5952,12.29156 2.5952,12.29156 2.5678,7.14629 c 1.4122,3.93047 4.482,10.9713 6.8216,15.6463 l 4.2538,8.5 1.177,5.68526 1.1769,5.68526 -0.6648,3.81474 c -0.3656,2.09811 -1.7963,7.83105 -3.1793,12.73988 l -2.5145,8.92514 0.5531,5.07486 0.553,5.07486 3.5737,11.5 c 1.9656,6.325 4.6997,16.8094 6.0758,23.29867 1.376,6.48927 3.1221,13.28293 3.8801,15.09704 l 1.3781,3.29837 4.222,3.40296 c 2.322,1.87163 5.6362,4.60413 7.3649,6.07224 l 3.143,2.66927 -0.2842,10.56429 -0.2842,10.56428 1.5234,2.94592 c 0.8379,1.62026 3.8012,5.54889 6.5852,8.73029 l 5.0618,5.78435 2.8285,6.03616 2.8286,6.03616 0.5296,7.5 0.5296,7.5 2.2283,6.5 c 1.2256,3.575 3.179,8.3 4.3409,10.5 l 2.1125,4 -0.09,13.5 -0.09,13.5 -1.149,4.0644 -1.1489,4.0644 -7.9058,9.54583 -7.9057,9.54583 -5.8557,4.48981 c -3.2206,2.46943 -9.2929,6.37043 -13.494,8.66883 -4.2011,2.2985 -11.4011,5.5835 -16,7.3 l -8.3617,3.1209 -18.1508,0.4699 -18.1507,0.47 -6.8221,-1.1881 -6.8222,-1.188 -4.8206,-2.0737 -4.8206,-2.0738 -3.3358,-3.8972 -3.3358,-3.8971 -3.7492,-8.94062 -3.7492,-8.94059 -0.796,0.49199 c -0.4379,0.27059 -2.9136,3.29891 -5.5016,6.7296 -2.5881,3.43069 -5.4786,8.03762 -6.4234,10.23762 -0.9447,2.2 -2.2326,6.925 -2.8619,10.5 -0.6293,3.575 -1.8459,13.25 -2.7035,21.5 l -1.5593,15 -3.4414,17.5 c -1.8927,9.625 -5.0384,23.35 -6.9903,30.5 -1.952,7.15 -5.1163,17.2606 -7.0319,22.468 l -3.4829,9.4681 -4.1284,6.3365 -4.1284,6.3365 -6.035,5.4613 -6.0349,5.4613 -5.9718,2.9842 -5.9717,2.9841 -4.8374,0 -4.8374,0 -4.0107,-3.6234 -4.0108,-3.6235 -2.9955,-6.2765 -2.9955,-6.2765 -3.4134,-13.35 -3.4134,-13.3501 -1.127,-11.5202 -1.1269,-11.5201 1.021,-20.4799 c 0.5616,-11.2639 1.6952,-28.3548 2.5191,-37.9798 0.824,-9.625 2.2091,-28.075 3.0782,-41 0.869,-12.925 1.6675,-29.32678 1.7746,-36.4484 l 0.1945,-12.94839 -7.5635,-3.1822 -7.5635,-3.18219 -4.1885,-0.70765 -4.1885,-0.70764 -4.3078,2.08538 -4.3079,2.08539 -2.3835,3.22396 c -1.311,1.77318 -6.0798,10.0706 -10.5973,18.43871 l -8.2136,15.21474 -9.4147,14.34383 c -5.1781,7.88911 -13.3951,19.73046 -18.2601,26.31416 -4.865,6.5837 -12.2392,16.2453 -16.3872,21.4703 -4.1479,5.225 -11.6102,13.7208 -16.5828,18.8795 l -9.0411,9.3795 -4.5,1.9377 -4.5,1.9377 -8.7919,9.0647 -8.7919,9.0648 -9.1321,12.118 -9.1322,12.1181 -4.2407,9 -4.2406,9 -3.0881,10.7805 -3.0881,10.7805 -3.3942,6.7399 c -1.8668,3.707 -5.578,9.8998 -8.2472,13.7618 -2.6691,3.862 -9.6779,13.0778 -15.5751,20.4796 l -10.72116,13.4577 -7.0439,11.1666 -7.0438,11.1666 -8.5794,9.1707 -8.5794,9.1706 -2.4227,5.2919 -2.4226,5.2918 -1.9268,8.8709 c -1.0598,4.879 -3.5374,20.3459 -5.5059,34.3709 -1.9686,14.025 -4.7332,33.375 -6.1437,43 -1.4104,9.625 -3.6497,22.8494 -4.9761,29.3875 l -2.4116,11.8875 0.02,10.1125 0.02,10.1125 0.9263,6.5 c 0.5095,3.57497 1.4269,12.12497 2.0387,18.99997 l 1.1124,12.5 -1.5403,10.5 c -0.8472,5.775 -2.2081,17.475 -3.0242,26 -0.8161,8.525 -2.6481,24.95 -4.0712,36.5 l -2.5873,21 -0.5824,30 -0.5825,30 1.1664,25.5 c 0.6414,14.025 1.6392,30.45 2.2172,36.5 0.578,6.05 1.6866,14.055 2.4635,17.7889 0.7769,3.7339 2.086,8.0911 2.9091,9.6827 l 1.4964,2.8938 2.6547,0.3173 2.6547,0.3173 1.1863,4.6968 1.1864,4.6968 2.9181,4.1773 c 1.6049,2.2975 3.7585,5.4912 4.7857,7.0971 l 1.8677,2.9198 -1.2247,4.3741 -1.2247,4.3742 2.5382,4.8319 c 1.396,2.6576 2.8595,5.9548 3.2522,7.3271 0.3927,1.3723 3.3263,8.1223 6.519,15 3.1928,6.8777 6.3715,14.6448 7.0637,17.2603 l 1.2587,4.7555 -1.4589,1.4242 -1.4588,1.4242 -8,1.103 -8,1.103 -22.5,0.4188 z m -60.0331,-130.9637 c 0.5396,-0.3335 1.6801,-2.9495 2.5345,-5.8134 l 1.5533,-5.207 0.6327,-7.408 0.6328,-7.4079 -1.0837,0.6697 -1.0836,0.6697 -1.5283,4.7383 c -0.8406,2.606 -2.0754,7.4797 -2.744,10.8305 l -1.2156,6.0923 0.6604,1.7211 0.6604,1.7211 0.9811,-0.6064 z m 369.27336,-511.30487 2.9321,-1.7155 2.9771,-4 c 1.6373,-2.2 4.5068,-7.1624 6.3766,-11.0276 l 3.3995,-7.0277 1.5339,-6.6139 1.5339,-6.6139 -0.6186,-3.0931 -0.6186,-3.093 1.5442,-0.5926 1.5442,-0.5925 1.5846,-3.9603 1.5846,-3.9603 1.4068,-10.2125 c 0.7738,-5.617 1.9551,-16.8849 2.6252,-25.0399 l 1.2183,-14.8272 -0.5208,-12.1728 -0.5207,-12.1727 -3.5285,-10 c -1.9407,-5.5 -3.8413,-11.8 -4.2236,-14 -0.3822,-2.2 -1.3161,-4.99158 -2.0753,-6.2035 l -1.3804,-2.2035 -4.2574,-2.47662 c -2.3416,-1.36214 -7.2596,-3.59963 -10.929,-4.97219 l -6.6717,-2.49558 -0.5277,7.1757 c -0.2902,3.94663 -1.0139,15.50069 -1.6081,25.67569 l -1.0805,18.5 -1.9547,15.5 c -1.075,8.525 -2.4467,23.6 -3.0481,33.5 l -1.0934,18 0.6151,11 c 0.3383,6.05 1.0956,15.05 1.683,20 l 1.068,9 1.4479,3.5 1.4479,3.5 2.601,2.7155 2.601,2.7156 2.9322,-1.7156 z m 36.5745,-144.69791 c 0.754,-0.28937 2.5667,-0.81125 4.0281,-1.15974 1.4614,-0.34849 3.2196,-1.07668 3.9071,-1.61818 l 1.25,-0.98456 0,-3.87755 c 0,-2.13266 -0.1993,-3.87756 -0.4428,-3.87756 -0.2436,0 -2.053,0.95002 -4.021,2.11115 l -3.5781,2.11115 -1.9145,-0.50064 -1.9144,-0.50064 -0.5646,1.47128 c -0.3105,0.8092 -0.5646,2.24447 -0.5646,3.18949 l 0,1.71821 1.2219,1.22186 1.2218,1.22185 1.3711,-0.52612 z m 2.8837,-26.23212 1.3015,-0.49945 -0.025,-2.14301 -0.025,-2.14301 -3.4111,-4.64836 -3.4112,-4.64836 -4.8141,-1.57717 -4.814,-1.57716 -8,-0.58021 -8,-0.58021 -1.5,1.02727 -1.5,1.02727 1.0978,1.77846 1.0978,1.77847 8.9022,4.53186 c 4.8962,2.49253 11.804,5.48164 15.3507,6.64246 l 6.4484,2.11059 1.3016,-0.49944 z M 1086.8946,245.53865 c 1.2947,-0.32373 3.4375,-1.29849 4.7617,-2.16612 l 2.4076,-1.57751 0.6085,-2.42451 0.6085,-2.42451 -0.6224,-3.89243 -0.6224,-3.89243 0.9381,-0.57978 0.9381,-0.57979 3.9315,0.88335 3.9315,0.88336 1.5544,-0.86988 1.5544,-0.86988 0.6763,-3.24405 c 0.372,-1.78422 1.3175,-4.25654 2.1012,-5.49404 l 1.4249,-2.25 4.227,-0.0153 4.2269,-0.0153 1.3957,-0.88376 1.3957,-0.88376 -0.5919,-1.54256 -0.5919,-1.54257 -6.9501,-2.06981 -6.95,-2.06982 -12.8538,-6.35665 c -7.0695,-3.49615 -17.8037,-9.24994 -23.8537,-12.78619 -6.05,-3.53625 -14.7515,-9.22061 -19.3366,-12.6319 l -8.3366,-6.20238 -1.9381,0 -1.9382,0 -1.0742,2.75 -1.0741,2.75 0.5363,6.5 0.5362,6.5 2.0378,6.53956 2.0379,6.53956 10.2748,16.49409 c 5.6511,9.07176 11.7949,18.5904 13.6527,21.15255 l 3.378,4.65846 1.5275,0.58616 1.5275,0.58616 2.2404,-2.10474 2.2404,-2.10474 2.8542,0.32647 2.8541,0.32647 1,2.29341 1,2.29342 2.3542,-0.58861 z"
     id="path2987"
     inkscape:connector-curvature="0" />
</svg>
