<?xml version="1.0" encoding="UTF-8" standalone="no"?>
<!-- Created with Inkscape (http://www.inkscape.org/) -->

<svg
   xmlns:dc="http://purl.org/dc/elements/1.1/"
   xmlns:cc="http://creativecommons.org/ns#"
   xmlns:rdf="http://www.w3.org/1999/02/22-rdf-syntax-ns#"
   xmlns:svg="http://www.w3.org/2000/svg"
   xmlns="http://www.w3.org/2000/svg"
   xmlns:sodipodi="http://sodipodi.sourceforge.net/DTD/sodipodi-0.dtd"
   xmlns:inkscape="http://www.inkscape.org/namespaces/inkscape"
   id="svg2"
   version="1.1"
   inkscape:version="0.48.2 r9819"
   width="1442.1973"
   height="2707.7771"
   sodipodi:docname="M - Faunb.png">
  <metadata
     id="metadata8">
    <rdf:RDF>
      <cc:Work
         rdf:about="">
        <dc:format>image/svg+xml</dc:format>
        <dc:type
           rdf:resource="http://purl.org/dc/dcmitype/StillImage" />
        <dc:title></dc:title>
      </cc:Work>
    </rdf:RDF>
  </metadata>
  <defs
     id="defs6" />
  <sodipodi:namedview
     pagecolor="#ffffff"
     bordercolor="#666666"
     borderopacity="1"
     objecttolerance="10"
     gridtolerance="10"
     guidetolerance="10"
     inkscape:pageopacity="0"
     inkscape:pageshadow="2"
     inkscape:window-width="1920"
     inkscape:window-height="1176"
     id="namedview4"
     showgrid="false"
     fit-margin-top="0"
     fit-margin-left="0"
     fit-margin-right="0"
     fit-margin-bottom="0"
     inkscape:zoom="0.5"
     inkscape:cx="373.9997"
     inkscape:cy="1461.9206"
     inkscape:window-x="0"
     inkscape:window-y="24"
     inkscape:window-maximized="1"
     inkscape:current-layer="svg2" />
  <path
     style="fill:#000000"
     d="m 682.9997,2706.8361 c -1.375,-0.4443 -5.65,-1.8004 -9.5,-3.0134 -6.9516,-2.1904 -14.1664,-5.0982 -18,-7.2545 -1.1,-0.6187 -4.475,-2.4217 -7.5,-4.0065 -17.1425,-8.9813 -47.6746,-37.5227 -57.3966,-53.6544 -7.3762,-12.2394 -8.835,-17.3644 -8.9804,-31.5507 -0.1195,-11.6556 -0.03,-12.1861 3.127,-18.4851 3.4544,-6.893 3.8521,-9.0213 2.2465,-12.0215 -0.7952,-1.4857 -0.5413,-2.1988 1.2225,-3.4342 1.2243,-0.8576 2.7869,-1.5592 3.4723,-1.5592 2.1798,0 15.6468,-9.2182 20.0587,-13.7303 3.3593,-3.4356 4.25,-5.0785 4.25,-7.8395 0,-5.5183 -2.4953,-5.5459 -7.5111,-0.083 -2.3496,2.5591 -4.6583,4.6725 -5.1305,4.6965 -0.4721,0.024 -2.8834,0.5108 -5.3584,1.082 -6.4617,1.4912 -15.7963,2.7952 -29.2013,4.0793 -9.3287,0.8936 -12.013,0.8621 -13.2389,-0.1553 -2.2501,-1.8674 -0.7733,-3.3423 2.6592,-2.6558 3.7262,0.7452 7.781,-0.2162 7.781,-1.845 0,-0.6789 -2.1375,-2.315 -4.75,-3.6358 -5.5253,-2.7935 -7.7974,-4.7208 -6.7321,-5.7106 0.4157,-0.3863 0.9568,-0.1399 1.2023,0.5476 0.2456,0.6875 1.2715,1.25 2.2798,1.25 1.0083,0 1.9833,0.4466 2.1667,0.9924 0.1833,0.5458 3.7303,1.2792 7.8821,1.6297 8.6201,0.7278 12.3525,-0.5682 15.8724,-5.5114 2.8235,-3.9654 2.617,-5.1108 -0.9212,-5.1108 -1.65,0 -3,0.45 -3,1 0,0.5556 -2.6667,1 -6,1 -3.3333,0 -6,-0.4444 -6,-1 0,-0.55 1.295,-1 2.8779,-1 4.5106,0 10.085,-2.7723 11.1368,-5.5386 0.519,-1.3652 1.2372,-9.79 1.5959,-18.7218 0.6013,-14.972 0.4785,-16.825 -1.5725,-23.7396 -1.2235,-4.125 -2.6007,-7.8956 -3.0604,-8.379 -1.1588,-1.2188 -9.6057,5.6435 -14.8688,12.0793 -2.3933,2.9265 -5.8879,6.0501 -7.7659,6.9412 -3.5893,1.7032 -5.3264,1.2866 -3.6165,-0.8673 0.5564,-0.7008 1.5631,-3.6271 2.2372,-6.5029 1.5668,-6.6843 0.048,-16.7917 -4.057,-26.9985 -1.5987,-3.9749 -2.9067,-7.7356 -2.9067,-8.357 0,-1.9602 -6.0579,-13.9158 -7.0511,-13.9158 -1.2029,0 -1.2563,9.692 -0.058,10.4329 0.4903,0.303 0.8278,2.6864 0.75,5.2963 -0.109,3.6588 -0.5428,4.8225 -1.8944,5.082 -1.0224,0.1963 -1.9929,-0.4237 -2.3285,-1.4873 -0.3165,-1.0031 -1.2151,-3.0183 -1.997,-4.4782 -0.7818,-1.4599 -1.4283,-3.9349 -1.4366,-5.5 -0.028,-5.3642 -3.8972,-13.7667 -5.569,-12.095 -0.9921,0.9921 -1.1538,8.6888 -0.3414,16.2493 0.4137,3.85 0.5917,7.162 0.3956,7.3599 -0.9304,0.9391 -6.4701,-14.1786 -6.4701,-17.6567 0,-1.1852 -0.8983,-3.6282 -1.9963,-5.429 -1.0979,-1.8008 -1.9979,-4.7367 -2,-6.5242 0,-2.5821 -0.4147,-3.25 -2.0037,-3.25 -1.5702,0 -2.0204,0.6983 -2.095,3.25 -0.2493,8.5275 -1.6662,23.2072 -2.4721,25.6126 -0.6747,2.0138 -3.4329,-0.5283 -3.4329,-3.164 0,-2.1979 -1.679,-8.0772 -3.1228,-10.935 -0.4824,-0.9551 -0.8772,-2.4176 -0.8772,-3.25 0,-0.8325 -0.45,-1.5136 -1,-1.5136 -0.55,0 -1,0.8734 -1,1.941 0,1.0675 -0.45,2.2191 -1,2.559 -0.55,0.3399 -1,3.6864 -1,7.4366 0,4.5751 -0.4537,7.1951 -1.379,7.963 -1.1516,0.9557 -1.4902,-0.6327 -2.0528,-9.6275 -0.727,-11.6238 -1.3118,-13.9691 -6.3013,-25.2721 -1.0925,-2.475 -2.5632,-6.3 -3.2683,-8.5 -0.7421,-2.3159 -3.762,-6.6614 -7.1727,-10.3213 -3.2399,-3.4767 -6.983,-8.0513 -8.3178,-10.1659 -1.3349,-2.1146 -2.915,-4.1462 -3.5114,-4.5148 -2.2045,-1.3625 -3.9967,1.6883 -3.9967,6.8034 0,5.8741 1.2014,10.2922 4.6312,17.0302 2.7748,5.4513 4.3624,16.9363 2.5003,18.0871 -0.6223,0.3846 -1.1315,2.4462 -1.1315,4.5813 0,2.1351 -0.45,4.1601 -1,4.5 -0.6369,0.3936 -1,-2.4879 -1,-7.9359 l 0,-8.554 -4.9536,-6.1474 c -2.7245,-3.381 -5.6787,-7.5458 -6.5649,-9.255 -0.8863,-1.7092 -2.2139,-4.2327 -2.9502,-5.6077 -0.7363,-1.375 -1.9446,-3.85 -2.685,-5.5 -0.7405,-1.65 -3.3713,-5.1649 -5.8463,-7.8108 -10.6569,-11.3931 -40.8094,-41.1996 -44.174,-43.6672 -2.0207,-1.482 -5.9986,-5.238 -8.8397,-8.3466 l -5.1657,-5.6522 -12.6603,0.2288 -12.6603,0.2287 -7.0464,-3.6504 c -7.7871,-4.0341 -15.3505,-9.6025 -22.9536,-16.8992 -6.4829,-6.2216 -23.697,-19.9222 -25.0376,-19.9272 -0.5707,0 -3.2537,-2.2539 -5.9624,-5.0039 -3.8078,-3.866 -5.628,-5 -8.0253,-5 -2.1653,0 -3.9864,-0.9324 -6.0376,-3.0914 -4.9375,-5.1969 -8.5356,-7.3107 -12.0419,-7.0746 -2.5342,0.1707 -4.4122,-0.7279 -8.4802,-4.0574 -8.2041,-6.7146 -9.415,-8.8471 -9.415,-16.58 0,-6.3062 0.1328,-6.6856 2.5122,-7.1774 4.2652,-0.8815 6.723,-3.3516 10.5181,-10.5703 5.8594,-11.1451 14.3798,-18.6947 30.9697,-27.441 14.3776,-7.58 20.6741,-13.5484 23.1474,-21.9413 1.2551,-4.2592 2.8011,-6.5773 7.1536,-10.7261 5.4513,-5.1963 5.519,-5.3294 3.7207,-7.3165 -2.6174,-2.8923 -7.3304,-2.5414 -18.8332,1.402 -5.3963,1.85 -10.0838,3.636 -10.4166,3.9688 -0.3329,0.3329 -1.7744,0.6052 -3.2034,0.6052 -1.429,0 -4.2773,0.9 -6.3297,2 -2.9767,1.5954 -5.6421,2 -13.1762,2 -5.2177,0 -9.7212,0.4475 -10.0626,1 -0.8092,1.3094 -40.5,1.3624 -40.5,0.054 0,-0.5272 5.8647,-1.1192 13.25,-1.3374 11.3922,-0.3367 18.0265,-1.2737 30.75,-4.3432 1.375,-0.3318 4.3,-0.8226 6.5,-1.0908 2.2,-0.2681 4.4275,-0.8915 4.95,-1.3851 0.5225,-0.4937 1.7847,-0.8976 2.8049,-0.8976 1.0202,0 4.4283,-1.6875 7.5737,-3.75 7.6821,-5.0373 9.0863,-5.9034 13.1714,-8.1234 9.5718,-5.2017 15.6649,-8.0668 17.2152,-8.0952 0.9434,-0.017 3.2528,-1.3814 5.132,-3.0314 1.8793,-1.65 3.7263,-3 4.1046,-3 0.3783,0 2.5689,-1.2707 4.868,-2.8237 2.2991,-1.5531 6.8802,-3.8767 10.1802,-5.1635 6.5536,-2.5557 8.5,-3.7503 8.5,-5.2168 0,-1.2438 -22.6244,-0.3627 -30,1.1682 -3.025,0.6279 -8.3407,1.3323 -11.8126,1.5652 -3.9781,0.267 -7.3065,1.118 -9,2.3013 -1.4781,1.0327 -3.8934,2.1689 -5.3675,2.525 -1.474,0.356 -3.3775,1.3447 -4.2299,2.1971 -1.8043,1.8044 -11.7597,4.6265 -12.7906,3.626 -1.4026,-1.3613 17.5516,-14.9569 23.2006,-16.6415 1.375,-0.4101 3.4501,-1.3432 4.6112,-2.0736 1.1612,-0.7304 4.9862,-1.8596 8.5,-2.5093 3.5139,-0.6498 7.4225,-1.5803 8.6859,-2.0679 1.2633,-0.4876 5.8087,-0.8865 10.1007,-0.8865 8.8336,0 13.4752,-1.2388 17.1022,-4.5644 1.375,-1.2607 4.975,-3.4774 8,-4.9261 8.9916,-4.3059 17.3977,-8.6831 19,-9.8936 0.825,-0.6232 3.2387,-2.0152 5.3638,-3.0933 3.6877,-1.8708 12.6362,-10.997 12.6362,-12.8871 0,-1.099 -4.2689,-0.486 -24,3.4464 -2.475,0.4933 -6.975,1.169 -10,1.5015 -6.5441,0.7194 -12.5514,3.2407 -16.0449,6.7342 -1.397,1.3971 -3.871,2.8599 -5.4976,3.2507 -5.6039,1.3463 -15.2783,6.2284 -16.3647,8.2583 -1.8277,3.4151 -6.9356,6.5487 -8.5248,5.2298 -0.7488,-0.6215 -1.1191,-2.0571 -0.8228,-3.1902 0.8251,-3.1548 8.9656,-10.5398 16.7548,-15.1996 6.1135,-3.6573 7.0397,-4.598 7.3134,-7.4271 0.1723,-1.7817 -0.1052,-3.2395 -0.6167,-3.2395 -2.2575,0 -12.2076,4.7234 -17.6967,8.4009 -3.3,2.2108 -9.15,5.3919 -13,7.0691 -3.85,1.6772 -8.125,3.8495 -9.5,4.8273 -1.375,0.9778 -4.525,3.1352 -7,4.7941 -2.475,1.6589 -6.1763,4.1694 -8.2252,5.5789 -4.3647,3.0026 -7.528,2.6057 -5.7476,-0.7212 1.301,-2.4309 16.1826,-14.3598 22.2769,-17.8568 2.3077,-1.3243 5.0959,-2.9256 6.1959,-3.5584 1.1,-0.6328 4.1082,-3.2261 6.6848,-5.7629 3.1373,-3.0888 8.8368,-6.7031 17.2544,-10.9417 6.9133,-3.4811 15.069,-7.5958 18.1238,-9.1438 6.3871,-3.2366 13.6514,-5.0083 31.937,-7.7894 22.1566,-3.3698 28.2017,-4.9356 35,-9.066 1.65,-1.0024 4.125,-1.8312 5.5,-1.8417 3.0611,-0.023 4.3579,-0.8374 5.8503,-3.6727 1.1185,-2.1249 1.6481,-11.3157 0.652,-11.3157 -0.2737,0 -2.8188,1.6675 -5.6556,3.7056 -4.3363,3.1153 -5.9946,3.7144 -10.4091,3.7607 -3.4781,0.036 -5.8858,0.6294 -7.131,1.7562 -2.3345,2.1127 -8.5833,4.7775 -11.203,4.7775 -1.0784,0 -2.6357,-0.675 -3.4607,-1.5 -1.698,-1.6979 -3.8619,-1.9083 -6.4065,-0.6228 -3.2519,1.6429 -8.8712,3.1228 -11.8574,3.1228 -1.6384,0 -3.4065,0.3989 -3.929,0.8865 -0.5225,0.4875 -1.8027,0.5713 -2.8449,0.1861 -1.7177,-0.6349 -1.5775,-0.9978 1.5,-3.8819 1.8672,-1.7498 4.0399,-3.1835 4.8283,-3.1861 2.0347,-0.01 12.7962,-3.762 17.7422,-6.1915 3.9029,-1.917 6.1101,-3.9674 20.6246,-19.1587 7.2848,-7.6244 17.0893,-22.1971 16.3065,-24.2368 -0.6363,-1.6583 -3.7489,-1.186 -6.2933,0.9548 -3.0631,2.5772 -14.8517,14.8514 -15.3134,15.9442 -0.275,0.6509 -4.3526,4.8461 -9.0613,9.3228 -6.9917,6.6472 -9.5583,8.4316 -14,9.7332 -2.9913,0.8766 -9.2637,2.7088 -13.9387,4.0716 -9.2842,2.7064 -16.0774,6.5385 -17.5545,9.9025 -0.9423,2.1461 -5.4455,3.6593 -5.4455,1.8298 0,-0.5294 -0.7132,-1.2362 -1.5849,-1.5707 -1.6114,-0.6184 -6.8908,2.6335 -15.4151,9.4951 -2.475,1.9923 -5.85,4.3251 -7.5,5.184 -1.65,0.859 -5.25,3.6317 -8,6.1615 -7.2086,6.6316 -11.9102,7.4775 -9.9159,1.7841 0.6274,-1.791 5.4223,-6.106 13.9362,-12.541 7.1388,-5.3958 14.2172,-10.5553 15.7297,-11.4656 3.4183,-2.0573 3.4694,-3.0052 0.2065,-3.8242 -3.0993,-0.7779 -2.7071,-2.7905 0.6218,-3.1913 3.8381,-0.4622 7.1045,-2.3045 11.5976,-6.5415 4.1738,-3.9359 7.3241,-4.4513 7.3241,-1.1983 0,2.2957 2.3461,1.8651 8,-1.4686 2.7984,-1.65 5.5045,-3 6.0136,-3 0.8861,0 5.3097,-2.3114 9.8494,-5.1465 1.1754,-0.734 2.137,-1.9125 2.137,-2.6188 0,-0.7063 1.0636,-1.6886 2.3636,-2.1828 1.3,-0.4943 2.6359,-1.6082 2.9686,-2.4753 0.3328,-0.8671 1.2008,-1.5766 1.9289,-1.5766 1.4521,0 13.7389,-12.4779 13.7389,-13.9525 0,-0.5034 1.8786,-2.1825 4.1747,-3.7314 4.5526,-3.071 13.6762,-13.9093 13.7347,-16.3161 0.02,-0.825 -1.5874,-3.2475 -3.5721,-5.3833 -4.0294,-4.3362 -3.4857,-4.6046 -7.8647,3.8833 -1.5595,3.0229 -2.5991,3.9423 -4.2559,3.764 -1.604,-0.1728 -3.2721,1.1688 -6.2166,5 -2.2135,2.8798 -5.2565,6.7714 -6.7623,8.6481 -2.6311,3.2791 -3.3926,4.343 -7.6675,10.7126 -2.4284,3.6182 -5.1172,6.2602 -9.5568,9.3902 -1.9176,1.3519 -4.2801,3.2517 -5.25,4.2216 -2.0983,2.0983 -5.6139,2.3168 -6.3515,0.3947 -0.2889,-0.7528 0.3866,-2.9922 1.5011,-4.9765 1.1145,-1.9843 2.3325,-6.5953 2.7066,-10.2467 0.6774,-6.6116 0.6711,-6.634 -1.5176,-5.4626 -1.2088,0.6469 -2.581,2.1613 -3.0493,3.3654 -1.3068,3.3598 -6.611,7.9245 -8.7039,7.4906 -2.6379,-0.547 -1.9268,-4.5693 1.4644,-8.2842 1.5149,-1.6595 4.2016,-5.1158 5.9705,-7.6807 2.7409,-3.9742 3.2162,-5.545 3.2162,-10.6279 0,-3.2804 0.7114,-7.6671 1.581,-9.7481 0.9721,-2.3268 1.3469,-5.0311 0.9733,-7.023 -0.4832,-2.5754 0.115,-4.4723 2.919,-9.2566 5.2067,-8.8839 4.5678,-10.9138 -1.4733,-4.6809 -2.3848,2.4605 -4.2993,3.5113 -6.4462,3.538 -2.4059,0.03 -3.6311,0.8727 -5.7749,3.9728 -1.4967,2.1642 -4.5233,5.1846 -6.7259,6.712 -2.2026,1.5275 -5.8699,4.1272 -8.1495,5.7772 -2.2797,1.65 -5.4352,3.728 -7.0122,4.6177 -1.5771,0.8897 -3.5281,2.1659 -4.3356,2.8361 -1.5015,1.2461 -3.5557,0.6675 -3.5557,-1.0016 0,-0.5114 1.9517,-3.5224 4.3371,-6.691 2.3854,-3.1687 5.0026,-7.1112 5.816,-8.7612 0.8135,-1.65 2.0118,-4.0125 2.6629,-5.25 2.8247,-5.368 3.184,-6.3578 3.184,-8.7717 0,-1.4019 1.8,-5.9463 4,-10.0986 2.2,-4.1524 4,-8.1926 4,-8.9783 0,-0.7857 0.4372,-2.2099 0.9716,-3.165 1.9561,-3.496 5.0284,-16.0788 5.0284,-20.5942 0,-7.8879 -1.613,-6.0851 -7.4088,8.2802 -1.4252,3.5323 -2.5912,6.9356 -2.5912,7.5629 0,0.6273 -1.353,2.4367 -3.0066,4.021 -2.3003,2.2038 -3.2822,2.6049 -4.1798,1.7073 -0.8804,-0.8804 -0.8913,-1.7397 -0.044,-3.4434 0.6212,-1.2486 1.8562,-4.5092 2.7445,-7.2457 0.8883,-2.7365 2.1109,-5.5729 2.717,-6.3032 0.606,-0.7303 1.4165,-3.2163 1.801,-5.5245 0.3845,-2.3082 1.0327,-4.9843 1.4404,-5.9468 0.4486,-1.0592 0.3043,-1.75 -0.3657,-1.75 -0.6089,0 -1.107,0.675 -1.107,1.5 0,0.825 -0.4012,1.5 -0.8916,1.5 -0.4904,0 -1.1653,1.0903 -1.4997,2.4229 -0.3345,1.3326 -1.6717,3.6951 -2.9716,5.25 -1.2999,1.5549 -2.6653,3.7921 -3.0342,4.9715 -0.7467,2.3875 -30.0697,32.3556 -31.659,32.3556 -0.5537,0 -1.2657,-0.675 -1.5823,-1.5 -0.3166,-0.825 -1.3724,-1.5 -2.3462,-1.5 -0.9738,0 -2.3464,-0.6938 -3.0501,-1.5418 -1.0612,-1.2787 -0.9114,-2.0398 0.8775,-4.4595 1.1865,-1.6048 2.1572,-3.8509 2.1572,-4.9915 0,-1.1405 1.0682,-4.1962 2.3738,-6.7904 2.0882,-4.1491 4.4693,-11.2084 9.1805,-27.2168 2.0089,-6.8263 2.8115,-26.9638 1.3462,-33.7769 -1.8614,-8.6542 -4.0921,-10.7169 -5.3783,-4.9731 -0.4002,1.7875 -1.1644,5.05 -1.6982,7.25 -0.5338,2.2 -1.2751,5.989 -1.6473,8.42 -0.3722,2.4311 -1.284,4.621 -2.0262,4.8665 -1.1042,0.3654 -1.2037,-1.1647 -0.5472,-8.42 1.391,-15.3736 0.7661,-46.3086 -1.021,-50.5481 -1.7417,-4.1316 -3.3747,-5.5988 -4.042,-3.6318 -0.2451,0.7224 -0.5794,5.3573 -0.743,10.2998 -0.2522,7.6223 -0.563,9.0375 -2.0473,9.3233 -1.4283,0.275 -1.75,-0.3895 -1.75,-3.6139 0,-5.1646 -2.2915,-7.3001 -4.169,-3.8854 -5.2277,9.5079 -6.831,12.799 -6.831,14.0215 0,0.7691 -0.833,2.4716 -1.851,3.7832 -1.757,2.2637 -4.3119,6.7049 -10.7422,18.6734 -3.5503,6.608 -21.5343,25.2115 -24.372,25.2115 -1.1192,0 -2.0348,-0.45 -2.0348,-1 0,-0.55 0.45,-1 1,-1 0.55,0 1,-0.6592 1,-1.4648 0,-0.8057 0.7875,-1.8903 1.75,-2.4103 0.9625,-0.52 3.2955,-3.5734 5.1845,-6.7852 1.889,-3.2118 4.8968,-7.9369 6.684,-10.5001 7.782,-11.1612 11.1465,-22.8799 9.213,-32.0896 -0.684,-3.2581 -0.6571,-6.3359 0.086,-9.7992 0.5955,-2.7771 1.0828,-7.525 1.0828,-10.551 0,-5.0743 -0.2896,-5.7671 -3.7277,-8.9168 l -3.7277,-3.415 -0.05,-16.784 c -0.049,-16.2463 -0.5905,-20.284 -2.7215,-20.284 -0.5573,0 -3.9259,2.8125 -7.4857,6.25 -8.6928,8.3943 -10.1313,9.6809 -15.3262,13.7081 -2.4534,1.902 -5.0488,4.2645 -5.7675,5.25 -0.7187,0.9855 -1.8437,1.8102 -2.5,1.8325 -0.6563,0.022 -2.7513,1.3724 -4.6555,3 -1.9042,1.6277 -4.0042,2.9594 -4.6667,2.9594 -0.6624,0 -1.4326,0.5625 -1.7116,1.25 -0.3842,0.9469 -0.7543,0.8944 -1.5261,-0.2165 -0.7049,-1.0144 -0.6633,-1.8949 0.1348,-2.8566 0.6346,-0.7646 1.6213,-2.1639 2.1928,-3.1095 0.5715,-0.9456 2.9515,-4.5674 5.289,-8.0484 2.3375,-3.481 4.25,-7.3756 4.25,-8.6547 0,-1.2791 1.7626,-6.0468 3.9168,-10.5949 2.1543,-4.5482 4.91,-11.3586 6.1239,-15.1343 1.8665,-5.8056 2.0336,-7.4438 1.0832,-10.6161 -1.9325,-6.4501 -0.9005,-17.6808 2.1613,-23.519 0.5768,-1.1 2.7737,-6.2369 4.8818,-11.4154 6.3525,-15.6041 4.6552,-25.8232 -2.2562,-13.5846 -2.8806,5.101 -7.3517,14.0031 -9.2916,18.5 -0.5932,1.375 -2.1164,3.9138 -3.3849,5.6417 -1.2686,1.728 -2.2188,3.528 -2.1116,4 0.1072,0.4721 -0.05,1.5333 -0.3497,2.3583 -1.5544,4.2817 -2.773,10.1293 -2.773,13.307 0,3.8904 -1.664,5.7671 -3.1665,3.5711 -1.3463,-1.9678 0.264,-18.3232 2.1514,-21.8497 0.5583,-1.0433 1.0151,-2.7188 1.0151,-3.7232 0,-1.6234 7.5333,-18.4425 9.9905,-22.3052 7.2413,-11.3831 4.1498,-14.5644 -10.2767,-10.575 -7.443,2.0582 -10.4662,3.2269 -21.7138,8.394 -1.925,0.8843 -6.425,3.9791 -10,6.8773 -11.7716,9.5431 -12.7677,10.3037 -13.4933,10.3037 -1.4903,0 -8.5067,6.2263 -8.5067,7.5488 0,0.7595 -0.8685,1.8457 -1.9301,2.4138 -1.0616,0.5682 -2.0741,2.0465 -2.25,3.2852 -0.1759,1.2387 -0.7574,2.2522 -1.2922,2.2522 -1.0514,0 -2.7913,-8.2962 -2.1177,-10.0977 0.2257,-0.6038 3.2633,-3.2163 6.7502,-5.8057 8.8302,-6.5574 9.8398,-7.4385 9.8398,-8.5868 0,-1.2695 -11.097,-1.3356 -14.2029,-0.085 -1.2634,0.5089 -5.1096,1.5017 -8.5471,2.2063 -3.4375,0.7046 -6.25,1.6382 -6.25,2.0748 0,0.4365 -0.9,0.7937 -2,0.7937 -1.1,0 -2,0.374 -2,0.831 0,0.4571 -1.2375,1.4639 -2.75,2.2374 -3.2191,1.6463 -10.6004,7.0951 -11.0833,8.1816 -0.5526,1.2433 -2.1667,0.8428 -2.1667,-0.5376 0,-1.5864 7.6999,-9.019 14.7472,-14.2352 4.932,-3.6506 7.2053,-6.858 5.8332,-8.2302 -0.783,-0.7829 -15.5718,1.5136 -16.9922,2.6387 -0.5985,0.4741 -3.3382,1.1862 -6.0882,1.5824 -10.1187,1.4579 -18.6902,7.0971 -20.6304,13.5728 -1.3139,4.3855 -2.8696,4.3385 -2.8696,-0.087 0,-3.5595 7.7075,-11.7876 13.6368,-14.5579 2.1248,-0.9928 4.4513,-2.6131 5.1699,-3.6007 0.7187,-0.9876 2.1331,-1.7956 3.1431,-1.7956 2.1064,0 3.6499,-3.0113 2.0502,-4 -0.5872,-0.3629 -0.8018,-1.3529 -0.4767,-2.1999 0.508,-1.3241 -1.3457,-1.6245 -13.2162,-2.1422 -7.5939,-0.3312 -17.272,-0.8974 -21.507,-1.2583 -6.6672,-0.5682 -8.1596,-0.385 -11.1266,1.3655 -1.8846,1.112 -4.9446,2.3389 -6.8,2.7265 -1.8554,0.3876 -4.4224,1.3698 -5.7045,2.1827 -2.0568,1.3041 -2.7662,1.3039 -6.0292,0 -7.9445,-3.1788 -12.6393,1.3916 -11.9745,11.6572 0.2628,4.06 0.015,5.1702 -1.1529,5.1702 -2.6585,0 -3.5729,-12.2699 -1.3467,-18.071 0.3351,-0.8742 -0.077,-1.4299 -1.0586,-1.4299 -0.8839,0 -1.607,-0.1633 -1.607,-0.3629 0,-1.2651 18.8067,-18.6166 21.1034,-19.4704 1.3247,-0.4925 1.0898,-3.5657 -0.5079,-6.6452 -1.8172,-3.5026 -8.0859,-7.7451 -11.4585,-7.7546 -4.7622,-0.014 -7.137,-0.7812 -7.137,-2.3074 0,-0.8263 -1.2375,-2.0333 -2.75,-2.6822 -4.6925,-2.0132 -8.3151,-4.8846 -11.2177,-8.8914 -1.5344,-2.1183 -5.5916,-6.8922 -9.0159,-10.6088 -3.4244,-3.7165 -7.315,-8.9062 -8.6459,-11.5326 l -2.4198,-4.7752 2.0247,-2.1732 c 2.4238,-2.6017 2.4235,-2.5972 0.5112,-7.174 -1.8389,-4.4011 -0.3745,-4.7421 2.6715,-0.6221 3.4469,4.6621 6.4699,3.3291 3.9996,-1.7636 -9.0425,-18.6415 -11.1093,-28.2771 -11.138,-51.9274 -0.012,-9.6932 -0.421,-16.439 -1.0197,-16.809 -1.3229,-0.8176 -1.2897,-15.0901 0.041,-17.5763 0.8425,-1.5741 0.4136,-2.8186 -2.25,-6.53 -7.4633,-10.3991 -7.2777,-9.8035 -7.4471,-23.8937 -0.086,-7.15 -0.4716,-14.921 -0.8568,-17.2688 -0.8054,-4.9077 0.2044,-6.6576 4.9977,-8.6603 2.8511,-1.1913 3.1043,-1.6522 2.7194,-4.9495 -0.6673,-5.7158 1.7993,-8.6214 7.3191,-8.6214 3.8203,0 4.4769,-0.2953 4.4769,-2.0136 0,-1.1074 -0.5203,-3.0199 -1.1561,-4.25 C 22.535,1428.1267 22,1426.8655 22,1425.8887 c 0,-1.8487 -6.4597,-9.5063 -11.4153,-13.5321 -5.3854,-4.3751 -9.2694,-10.2153 -7.7824,-11.7023 0.5596,-0.5596 2.4426,-0.065 4.8087,1.2623 5.7804,3.2433 6.4332,3.7642 17.8748,14.2633 5.8,5.3222 10.9884,9.6767 11.5298,9.6767 6.2899,0 -14.7126,-26.5342 -24.5495,-31.0155 C 8.5206,1393.0438 0,1385.8499 0,1384.3162 c 0,-0.8161 8.5682,-0.4873 9.55,0.3665 0.5225,0.4544 2.75,1.334 4.95,1.9548 2.2,0.6208 7.0191,2.049 10.7091,3.1739 3.69,1.1249 7.2089,2.0452 7.8198,2.0452 1.2906,0 8.4635,4.8552 11.6793,7.9055 1.2145,1.152 2.6281,2.0945 3.1413,2.0945 1.3919,0 12.1059,10.9746 14.6581,15.0147 1.2212,1.9331 2.9566,4.1257 3.8564,4.8724 1.4505,1.2039 1.636,1.0299 1.636,-1.5345 0,-3.1097 -3.5202,-10.2632 -8.75,-17.781 -3.3874,-4.8694 -4.2102,-8.5716 -1.905,-8.5716 1.4808,0 4.6544,3.1209 4.656,4.5787 6e-4,0.5067 2.3631,3.3837 5.25,6.3932 5.1571,5.3761 10.695,12.7647 10.7308,14.3167 0.01,0.4338 1.8182,2.6619 4.0182,4.9515 2.2,2.2895 4,4.7532 4,5.4749 0,0.7217 0.413,2.0935 0.9178,3.0486 0.8152,1.5422 6.1123,14.4457 8.1021,19.7364 0.9443,2.5109 2.3232,7.8306 4.601,17.75 1.7047,7.424 2.5486,8.6077 4.9794,6.9847 2.5966,-1.7338 3.3679,-5.519 3.2827,-16.1086 -0.07,-8.6896 -0.4418,-11.4893 -1.7361,-13.0727 -4.6392,-5.6758 -11.7367,-18.3778 -11.3255,-20.2687 0.085,-0.3934 -0.2993,-1.9115 -0.8551,-3.3734 -1.025,-2.6959 -0.3352,-9.4113 0.9667,-9.4113 0.3908,0 1.72,2.3625 2.9537,5.25 1.2338,2.8875 2.664,6.0314 3.1783,6.9864 0.5143,0.9551 0.935,2.3478 0.935,3.095 0,0.7473 0.9,2.1731 2,3.1686 1.1,0.9955 2,2.4196 2,3.1648 0,0.7451 0.9365,2.1379 2.0812,3.095 1.1447,0.9571 2.9574,3.4347 4.0282,5.5057 2.194,4.2431 4.1309,19.5636 2.7043,21.3906 -0.886,1.1346 -2.2151,38.6952 -2.1708,61.3439 0.023,11.6628 1.0495,21 2.3089,21 1.3615,0 5.0482,-9.7098 5.0482,-13.2956 0,-2.0108 0.8983,-5.1294 1.9963,-6.9302 1.0979,-1.8008 1.9979,-4.2867 2,-5.5242 0,-1.2375 0.3894,-2.25 0.8608,-2.25 1.2398,0 2.0223,14.6231 1.0969,20.5 -0.433,2.75 -1.3051,6.8 -1.9381,9 -4.528,15.7376 -3.6452,30.6471 2.5206,42.5706 0.8049,1.5565 1.4635,3.7585 1.4635,4.8933 0,1.1348 0.4319,2.8446 0.9597,3.7997 1.0195,1.8448 5.9938,12.894 7.866,17.4726 3.0482,7.4545 13.2256,17.7705 21.1743,21.4626 19.9106,9.2482 21.0955,9.5149 40.5418,9.1229 13.2757,-0.2676 16.6306,-0.6463 19.9582,-2.2528 7.0095,-3.384 12.5525,-7.8738 14.2284,-11.5249 0.8947,-1.9492 2.3542,-4.669 3.2432,-6.044 0.8891,-1.375 2.181,-4.7258 2.8711,-7.4463 1.127,-4.4431 1.0655,-5.1997 -0.6049,-7.437 -2.7682,-3.7077 -3.8216,-3.5959 -5.5747,0.5917 -1.9641,4.6915 -5.2897,8.9983 -6.2256,8.0624 -0.3846,-0.3846 -1e-4,-2.1779 0.8545,-3.985 0.8546,-1.8072 1.8633,-4.5276 2.2417,-6.0452 0.3783,-1.5177 1.088,-3.0068 1.5771,-3.3091 1.2148,-0.7507 1.1224,-6.1273 -0.146,-8.4972 -1.1806,-2.206 -2.9648,-2.5804 -2.9648,-0.6221 0,1.227 -2.8647,8.0092 -5.0367,11.9242 -0.5298,0.9551 -0.9633,2.6567 -0.9633,3.7814 0,2.0695 -2.5247,3.7908 -3.7553,2.5603 -0.3679,-0.368 -0.1235,-1.5425 0.5432,-2.61 0.6666,-1.0675 1.2121,-2.8205 1.2121,-3.8955 0,-1.075 0.45,-2.2327 1,-2.5726 1.1239,-0.6946 1.3897,-6.5 0.2976,-6.5 -0.3863,0 -2.2539,1.4625 -4.1503,3.25 -2.5404,2.3946 -3.2447,2.7236 -2.6762,1.25 0.4245,-1.1 1.5993,-4.1949 2.6107,-6.8775 1.0114,-2.6826 2.5318,-5.643 3.3786,-6.5787 2.2284,-2.4624 1.9314,-3.5922 -1.6895,-6.426 l -3.2291,-2.5271 2.2521,-2.7954 c 1.2386,-1.5374 3.8915,-5.2703 5.8953,-8.2953 2.0038,-3.025 5.5935,-7.7985 7.977,-10.6078 2.3836,-2.8093 4.3338,-5.4331 4.3338,-5.8305 0,-1.0443 6.5192,-10.876 12.9256,-19.4932 6.9066,-9.2903 15.6526,-28.381 12.3244,-26.9018 -2.2857,1.0158 -9.1865,6.4823 -9.2574,7.3333 -0.046,0.55 -2.2743,3.4051 -4.9522,6.3446 -4.5083,4.949 -4.9468,5.1989 -5.9224,3.3759 -0.8245,-1.5406 -0.663,-2.3223 0.7429,-3.5946 0.9881,-0.8943 2.2112,-1.629 2.7178,-1.6327 0.5067,0 1.9772,-1.5574 3.2677,-3.4526 1.2905,-1.8951 3.653,-4.8129 5.25,-6.484 1.597,-1.6711 2.9036,-3.4076 2.9036,-3.8589 0,-0.4513 0.8042,-1.6929 1.787,-2.7591 0.9829,-1.0662 2.3998,-3.4307 3.1486,-5.2543 1.1994,-2.921 1.1633,-3.514 -0.3032,-4.9805 -1.3721,-1.372 -2.0111,-1.4484 -3.635,-0.4343 -1.0836,0.6768 -2.7979,1.2305 -3.8095,1.2305 -1.0116,0 -2.9225,1.1531 -4.2465,2.5624 -1.324,1.4093 -3.8542,3.4567 -5.6227,4.5497 -1.7685,1.0929 -3.4611,2.7611 -3.7613,3.707 -0.3002,0.9459 -2.1234,2.5695 -4.0516,3.6079 -1.9282,1.0383 -3.5058,2.4223 -3.5058,3.0755 0,1.5522 -2.9257,4.0861 -5.6891,4.9273 -1.6194,0.4929 -2.4791,0.1245 -3.3033,-1.4156 -0.9756,-1.8229 -0.4106,-2.8549 4.5434,-8.298 3.1116,-3.4189 7.18,-8.5787 9.0408,-11.4662 1.8609,-2.8875 3.7844,-5.25 4.2745,-5.25 0.4901,0 1.4411,-1.4625 2.1133,-3.25 2.3588,-6.2722 3.4231,-7.8357 6.7208,-9.8738 2.6906,-1.6629 4.7207,-4.9507 10.63,-17.2158 4.0173,-8.3382 7.9119,-16.7354 8.6545,-18.6604 0.7427,-1.925 1.8067,-4.0947 2.3645,-4.8215 0.5578,-0.7268 1.1019,-5.0018 1.2091,-9.5 0.3083,-12.9297 3.1525,-24.442 10.1735,-41.1785 1.6151,-3.85 3.2671,-8.35 3.6713,-10 0.7306,-2.9832 8.3794,-16.1808 11.5911,-20 0.9251,-1.1 2.1855,-3.35 2.801,-5 0.9092,-2.4376 2.2601,-25.9376 2.17,-37.75 -0.012,-1.5125 -0.04,-4.6625 -0.064,-7 -0.023,-2.3375 -0.027,-6.05 -0.01,-8.25 0.085,-10.0698 -0.9005,-30.7827 -1.8326,-38.4968 -2.1311,-17.6381 -3.0929,-46.5656 -2.2735,-68.3816 0.452,-12.0331 0.4927,-24.1831 0.091,-27 -1.1193,-7.8397 -1.006,-28.8253 0.1879,-34.7953 0.5859,-2.9295 1.4589,-7.5763 1.9401,-10.3263 1.9698,-11.2585 3.2229,-17.2507 4.5722,-21.8648 0.7824,-2.6757 1.4226,-6.1475 1.4226,-7.7151 0,-2.9387 2.3215,-11.0906 4.0315,-14.1565 0.5326,-0.9551 0.9685,-2.2698 0.9685,-2.9216 0,-0.6518 1.1964,-4.1454 2.6588,-7.7635 4.7297,-11.7021 5.8115,-30.5761 3.0423,-53.0785 -2.0732,-16.84654 -2.2218,-43.09524 -0.2944,-52.00044 1.5993,-7.3889 4.3402,-16.6625 5.6855,-19.236 0.4993,-0.9551 0.9078,-2.616 0.9078,-3.691 0,-1.075 0.45,-2.2327 1,-2.5726 0.55,-0.3399 1,-1.9149 1,-3.5 0,-1.5851 0.45,-3.1601 1,-3.5 0.55,-0.3399 1,-2.0993 1,-3.9098 0,-1.8105 0.4014,-4.5964 0.8921,-6.191 0.4906,-1.5945 1.4513,-5.5992 2.1347,-8.8992 3.9123,-18.8899 25.2013,-70.9672 34.9194,-85.42012 3.3296,-4.95174 6.0538,-9.23415 6.0538,-9.51648 0,-0.28232 1.4019,-3.56208 3.1154,-7.28836 1.7135,-3.72627 4.1983,-9.13001 5.5217,-12.0083 4.0758,-8.86467 4.0796,-10.55545 0.035,-15.49189 -1.9556,-2.38647 -4.0335,-5.44959 -4.6176,-6.80694 -0.584,-1.35735 -2.6262,-4.49291 -4.5382,-6.96791 -5.77,-7.4692 -9.5158,-12.81852 -9.5158,-13.58931 0,-0.40092 -1.8126,-3.12973 -4.028,-6.06401 -3.8731,-5.1299 -9.972,-15.90473 -9.972,-17.61741 0,-0.45424 -0.9,-2.68867 -2,-4.96541 -1.1,-2.27673 -2,-4.50379 -2,-4.94902 0,-0.44523 -1.35,-3.66678 -3,-7.15901 -1.65,-3.49224 -3,-6.87454 -3,-7.51624 0,-0.6417 -0.4404,-1.94812 -0.9787,-2.90316 -1.8084,-3.20833 -7.6996,-16.70021 -8.9394,-20.4725 -0.6753,-2.05484 -1.6155,-3.97566 -2.0893,-4.26848 -0.4738,-0.29283 -1.5862,-3.02546 -2.472,-6.0725 -0.8858,-3.04705 -2.8909,-8.10123 -4.4558,-11.23152 -2.6669,-5.33454 -9.0648,-23.78749 -9.0648,-26.14485 0,-1.02021 -3.1427,-8.61644 -5.0817,-12.28301 -0.5051,-0.95504 -0.9183,-2.42244 -0.9183,-3.2609 0,-0.83846 -0.8617,-3.43206 -1.9149,-5.76357 -5.4877,-12.14881 -10.9794,-30.45711 -13.5399,-45.14005 -1.5286,-8.76578 -3.058,-12.73705 -6.9701,-18.09905 -4.1002,-5.61974 -8.6178,-13.59549 -10.0835,-17.80231 -2.0476,-5.877 -1.974,-31.54459 0.121,-42.19769 0.8653,-4.4 1.9255,-11.375 2.356,-15.5 0.4306,-4.125 1.5138,-9.46908 2.4071,-11.87573 1.1899,-3.20547 1.629,-7.88571 1.6418,-17.5 0.018,-13.79942 1.506,-25.14167 4.9348,-37.62427 1.1331,-4.125 3.6482,-13.8 5.589,-21.5 5.4943,-21.79711 7.567,-29.55559 9.4842,-35.5 2.0102,-6.23306 5.7914,-19.0059 6.9567,-23.5 5.4093,-20.86134 9.0432,-31.74051 15.0312,-45 4.457,-9.86922 21.0362,-51.2917 22.2137,-55.5 0.5387,-1.925 1.7794,-5.3 2.7572,-7.5 6.3512,-14.28981 9.0157,-20.75959 9.0157,-21.89151 0,-0.71206 1.8,-6.83588 4,-13.60849 2.2,-6.77261 4,-13.33237 4,-14.57724 0,-6.16395 10.9569,-32.00832 18.0358,-42.54159 4.6835,-6.96894 28.1017,-30.881171 30.2431,-30.881171 1.4428,0 5.838,-4.44296 9.8925,-10 3.7099,-5.08477 7.7374,-9.12136 12.665,-12.69365 4.3266,-3.13654 10.4123,-10.78579 15.3602,-19.30635 3.094,-5.32826 6.2887,-8.48237 10.0252,-9.8979 3.5935,-1.36141 5.7782,-6.75814 5.7782,-14.27388 0,-11.63665 7.1211,-18.07108 14.5863,-13.17972 4.3105,2.82434 5.4137,6.34627 5.4137,17.28279 0,9.7449 0.068,10.04771 2.3923,10.63103 1.3345,0.33494 3.6559,-0.0577 5.25,-0.88797 3.9688,-2.06711 16.0453,-11.11569 20.8577,-15.62812 2.2,-2.06285 4.9472,-4.37964 6.105,-5.14843 1.1577,-0.76879 5.3069,-4.37853 9.2204,-8.02164 8.6601,-8.0618303 11.2979,-8.8761603 28.7514,-8.8761603 13.1001,0 17.9947,-0.8187 25.0045,-4.18242 2.5222,-1.21032004 5.5782,-1.83603004 8,-1.63801004 3.8582,0.31548 3.9236,0.38813 4.2329,4.70663004 0.273,3.81163 -0.113,4.82685 -2.9462,7.7500003 -1.7932,1.85009 -3.7543,3.3638 -4.3581,3.3638 -0.6038,0 -2.8035,1.8 -4.8882,4 -2.0847,2.2 -4.2073,4 -4.7169,4 -0.5096,0 -2.8342,0.87069 -5.1657,1.93487 -5.1765,2.36271 -11.3529,4.05208 -14.8421,4.05955 -1.8729,0.004 -5.0286,2.27494 -11.25,8.09577 -4.7558,4.44961 -8.647,8.45559 -8.647,8.90218 0,1.77158 7.1896,3.11783 21.8692,4.09494 16.3251,1.08665 14.9691,0.71316 32.9002,9.06228 4.5481,2.11773 8.4937,3.85041 8.768,3.85041 0.2743,0 3.3629,1.74003 6.8635,3.86673 3.5006,2.1267 7.88,4.16149 9.7319,4.52175 7.0804,1.37736 10.8536,7.36041 8.3687,13.27016 -1.981,4.7114 -6.3634,6.18507 -18.6115,6.25842 l -10.6099,0.0635 -6.3901,-4.2403 -6.39,-4.24026 -9.4239,0.12757 c -7.0673,0.0957 -9.6953,0.4988 -10.5094,1.61212 -0.7373,1.00827 -2.1708,1.32527 -4.4682,0.98808 -2.3647,-0.34706 -3.1716,-0.1551 -2.6815,0.63788 0.3855,0.62389 1.3495,1.13435 2.142,1.13435 0.7926,0 1.441,0.45 1.441,1 0,0.55 2.1104,1 4.6898,1 5.1023,0 14.7902,1.53617 20.2483,3.2107 4.5944,1.40955 13.4987,7.186191 19.0513,12.359561 2.4808,2.31135 7.6606,5.86661 11.5106,7.90056 8.1479,4.30453 9.1358,5.57991 7.4588,9.62868 -3.039,7.33666 -13.3362,9.19063 -23.8591,4.2957 -3.0798,-1.43264 -6.7247,-3.09892 -8.0997,-3.70284 -1.375,-0.60393 -2.8323,-1.25514 -3.2385,-1.44714 -0.4062,-0.192 -0.4876,0.30493 -0.1809,1.1043 0.3068,0.79937 1.4212,1.67919 2.4765,1.95517 4.0871,1.06879 5.1342,9.21352 1.7886,13.91196 -2.002,2.81157 -2.4851,2.98621 -6.8355,2.47097 -2.5746,-0.30493 -7.3427,-1.52059 -10.5957,-2.70146 -5.1967,-1.88649 -26.9934,-6.94728 -30.0439,-6.97566 -0.6212,-0.006 -2.8985,1.677 -5.0607,3.7395 -5.6225,5.36319 -13.0239,11.3488 -18.8099,15.21179 -2.75,1.83604 -5.9855,4.22379 -7.1899,5.30611 -1.2045,1.08233 -4.3087,2.36369 -6.8982,2.84746 -4.3544,0.8135 -10.233,3.19413 -19.699,7.97753 -8.8654,4.47988 -21.4483,5.95407 -29.7579,3.48639 -7.7399,-2.2985 -9.8073,-2.08019 -11.0871,1.17072 -3.9774,10.10371 -5.8689,16.13827 -5.8757,18.74567 0,1.65238 -1.3508,10.20433 -2.9922,19.00433 -1.6414,8.8 -2.9916,18.7 -3.0005,22 -0.01,3.3 -0.7694,10.95 -1.6901,17 -1.4322,9.41192 -1.6982,21.25672 -1.8425,82.04411 -0.1114,46.9155 -0.5385,72.72728 -1.2577,76 -1.1365,5.17204 -2.3941,12.77304 -4.2117,25.45589 -2.0178,14.07979 -3.1271,20.49862 -4.6662,27 -0.8463,3.575 -1.7704,8.075 -2.0535,10 -0.2832,1.925 -0.8563,3.95 -1.2737,4.5 -0.4175,0.55 -1.535,4.15 -2.4834,8 -0.9483,3.85 -2.8035,9.66508 -4.1225,12.92241 -3.0654,7.57009 -3.0184,9.17608 0.5553,18.97734 1.6244,4.45514 3.2112,9.7421 3.5263,11.7488 0.82,5.22319 3.5877,8.19271 10.9417,11.73947 3.5489,1.71159 6.7741,3.11198 7.1672,3.11198 0.3931,0 4.359,2.07256 8.813,4.60569 9.7051,5.5195 20.2142,15.97503 28.54,28.39431 3.1341,4.675 7.2435,10.75 9.1319,13.5 1.8885,2.75 6.3088,11.975 9.8229,20.5 3.5141,8.525 7.1124,16.34587 7.9964,17.37971 2.5186,2.94575 8.7628,6.5803 15.9574,9.28837 3.6284,1.36573 7.7339,3.11172 9.1234,3.87998 1.3895,0.76827 6.205,2.77891 10.7012,4.4681 4.4961,1.6892 9.6938,4.10204 11.5502,5.36189 1.8565,1.25984 6.2475,3.75009 9.7578,5.53388 3.5103,1.78379 8.2126,4.51211 10.4497,6.06292 4.4208,3.06465 14.7059,13.69796 17.3184,17.90469 0.8951,1.44125 3.0468,4.42046 4.7816,6.62046 2.8131,3.56754 6.517,10.65709 10.5793,20.25 l 1.3763,3.25 8.0059,0.006 c 10.9927,0.008 18.8768,1.45566 24.8031,4.55442 4.5896,2.39987 5.8213,2.58951 14.7992,2.27876 8.6253,-0.29855 10.0427,-0.60726 11.8872,-2.58897 1.1519,-1.2375 2.9682,-2.25 4.0363,-2.25 2.039,0 3.7255,-3.98491 2.5152,-5.94316 -0.3757,-0.60811 -4.2522,-1.05705 -9.1255,-1.05705 -6.5429,0 -8.6012,-0.33576 -9.0381,-1.4743 -0.5988,-1.56047 1.7407,-4.5257 3.5706,-4.5257 1.4583,0 5.186,-2.1409 7.0472,-4.04744 3.006,-3.07907 7.8674,-5.95256 10.0707,-5.95256 3.8209,0 8.94,-4.65093 8.94,-8.12232 0,-4.49055 -2.0136,-5.87768 -8.5321,-5.87768 -5.3455,0 -6.0225,0.29032 -11.6589,5 -3.2911,2.75 -6.5729,5 -7.2928,5 -0.72,0 -2.6919,1.575 -4.3821,3.5 -1.6901,1.925 -3.3117,3.5 -3.6035,3.5 -0.2918,0 -0.5306,-1.35611 -0.5306,-3.01357 0,-3.15134 1.3016,-6.02216 4.25,-9.37407 2.9585,-3.36338 1.9502,-15.61236 -1.2852,-15.61236 -0.5306,0 -0.9683,0.5625 -0.9726,1.25 -0.01,1.51874 -4.5509,3.75 -7.6326,3.75 -1.2328,0 -2.5197,0.45 -2.8596,1 -0.3399,0.55 -1.396,1 -2.3468,1 -0.9508,0 -3.2867,1.33171 -5.191,2.95936 -1.9042,1.62765 -4.0247,2.97765 -4.7122,3 -0.6875,0.0224 -1.25,0.53216 -1.25,1.13291 0,0.60075 -0.9,2.23644 -2,3.63486 -1.1,1.39842 -2,3.8319 -2,5.40773 0,3.53104 -1.7345,3.77108 -2.591,0.35857 -0.8543,-3.40361 0.284,-8.88332 2.7666,-13.3189 2.4306,-4.34264 10.2439,-12.05209 14.3655,-14.17453 4.7398,-2.4408 9.1246,-7.22202 10.5465,-11.5 0.7313,-2.2 1.6236,-4.45 1.9831,-5 0.3594,-0.55 0.9413,-2.20611 1.293,-3.68025 0.5355,-2.24466 0.2735,-2.74102 -1.6121,-3.0542 -3.6634,-0.60846 -7.6613,2.23632 -8.3574,5.94683 -0.7063,3.76496 -1.0423,3.91602 -3.5874,1.61275 -1.7459,-1.58004 -2.0335,-1.50926 -5.0788,1.25 -1.7754,1.60868 -4.1813,3.45424 -5.3465,4.10124 -2.0649,1.14657 -6.8774,1.16102 -8.0144,0.0241 -0.9623,-0.96233 0.6545,-2.70045 2.5119,-2.70045 2.5689,0 9.7605,-6.51237 12.516,-11.33396 4.4855,-7.84868 5.6193,-20.16128 1.9685,-21.37822 -1.2523,-0.41744 -9.3635,6.79771 -9.3635,8.32906 0,2.82699 -4.177,4.67934 -12.2315,5.42424 -7.6672,0.70908 -15.9457,3.63874 -17.9067,6.33698 -0.8086,1.11255 -2.8618,-0.10468 -2.8618,-1.69659 0,-0.66024 0.9617,-1.801 2.137,-2.53502 5.476,-3.41983 9.0723,-5.14651 10.7191,-5.14651 3.7282,0 6.2967,-4.51606 7.8257,-13.75927 0.2966,-1.7926 0.9395,-3.50665 1.4287,-3.80902 0.4892,-0.30236 0.8895,-1.69533 0.8895,-3.0955 0,-2.98952 3.884,-11.05396 8.0562,-16.72727 1.6191,-2.20162 2.9438,-4.29206 2.9438,-4.64543 0,-1.21511 -5.099,-2.96351 -8.6428,-2.96351 -4.1677,0 -8.056,2.07385 -13.593,7.25 -2.2062,2.0625 -4.6308,3.75 -5.3878,3.75 -2.6971,0 -1.3101,-3.68424 2.8736,-7.63289 2.3375,-2.20617 5.1958,-5.10379 6.3517,-6.43916 2.847,-3.28902 9.9248,-8.92923 13.7599,-10.9651 1.7261,-0.91634 4.1939,-3.19535 5.4839,-5.06446 1.9728,-2.8583 2.2614,-4.24219 1.8162,-8.7078 -0.6891,-6.91141 -5.7392,-15.19059 -9.2658,-15.19059 -1.7291,0 -2.3958,-0.55654 -2.3958,-2 0,-1.1 -0.45,-2 -1,-2 -0.55,0 -1,-0.79319 -1,-1.76265 0,-3.52305 -12.9479,-10.23735 -19.7418,-10.23735 -3.898,0 -12.2582,-4.49785 -12.2582,-6.59502 0,-0.97248 1.2314,-1.40498 4,-1.40498 5.3299,0 5.6158,-2.99273 0.4784,-5.00847 -5.2236,-2.04959 -6.7605,-4.11946 -5.5068,-7.41678 1.3155,-3.45996 1.3338,-11.26795 0.028,-12.07475 -1.7805,-1.1004 -1.0594,-4.34637 1.1191,-5.03782 1.1656,-0.36993 3.0781,-0.23226 4.25,0.30593 5.4325,2.4947 12.3158,5.5599 14.1309,6.29264 6.0754,2.45257 26.2759,4.21862 41.9124,3.66424 18.1216,-0.6425 21.5876,-1.56173 21.5876,-5.72545 0,-2.22342 -0.6382,-2.87675 -3.75,-3.83891 -2.0625,-0.63772 -7.7733,-1.30474 -12.6908,-1.48227 -5.2661,-0.19012 -9.0895,-0.76918 -9.3027,-1.40893 -0.6132,-1.83953 1.0423,-2.17347 11.8262,-2.38558 5.7295,-0.11269 11.2048,-0.59849 12.1673,-1.07956 3.6592,-1.82888 1.0745,-8.80429 -3.2624,-8.80429 -1.0283,0 -2.1477,-0.45 -2.4876,-1 -1.0528,-1.70338 -13.2534,-1.18522 -16.7997,0.71349 -5.5281,2.95977 -38.9407,2.23714 -58.9633,-1.27523 -4.0651,-0.71311 -9.737,-5.26469 -9.737,-7.81379 0,-3.25496 5.2984,-4.62447 17.8913,-4.62447 6.5949,0 12.2394,-0.40247 12.5434,-0.89437 0.304,-0.4919 2.2431,-1.14929 4.309,-1.46087 2.066,-0.31158 6.2316,-0.93298 9.257,-1.38089 3.0254,-0.4479 8.6504,-2.35475 12.5,-4.23743 3.8496,-1.88268 9.4743,-3.75417 12.4993,-4.15887 3.025,-0.40469 8.65,-1.42391 12.5,-2.26493 4.7741,-1.04288 12.6764,-1.54082 24.8508,-1.56588 16.9893,-0.035 18.3546,0.11002 28.2917,3.00475 l 10.4409,3.04151 2.8695,-2.29151 c 3.9984,-3.19306 5.7178,-6.50462 4.4341,-8.53978 -1.2563,-1.99157 -2.6406,-2.70621 -8.387,-4.32967 -2.475,-0.69923 -5.1951,-2.11675 -6.0445,-3.15005 -1.2288,-1.49456 -2.0557,-1.6844 -4.0442,-0.9284 -2.6342,1.00152 -9.3048,1.61113 -14.5108,1.32609 -1.7048,-0.0933 -5.0195,-1.45915 -7.3661,-3.03515 -4.0473,-2.71819 -4.4205,-2.78865 -7.2622,-1.37102 -2.3799,1.18724 -5.1068,1.35302 -13.2658,0.80649 -8.1943,-0.54891 -11.2769,-0.35862 -15.2517,0.94147 -4.5471,1.48726 -5.3096,1.49241 -8.7403,0.059 -4.8905,-2.04336 -6.3255,-1.98391 -11.9274,0.49407 -3.9218,1.7348 -6.3954,2.02755 -15.4882,1.83299 -9.7091,-0.20774 -11.1337,-0.009 -13.8643,1.93547 -2.4169,1.72103 -4.4683,2.16701 -9.9674,2.16701 -6.0409,0 -7.5098,0.38788 -11.5144,3.04043 -4.4974,2.97895 -4.8092,3.03455 -15.4215,2.75 -9.5252,-0.25541 -11.4026,-0.0191 -15.5703,1.95957 -4.2846,2.03421 -6.233,2.25 -20.3157,2.25 -15.2966,0 -18.0612,-0.47313 -21.2196,-3.63151 -0.7236,-0.7236 -3.1235,-1.80247 -5.3333,-2.39748 -2.9303,-0.78906 -3.932,-1.54044 -3.7014,-2.77642 0.6232,-3.33705 19.2407,-11.19462 26.5245,-11.19462 2.6227,0 6.1697,-1.09822 9.9221,-3.07214 3.2122,-1.68967 9.2204,-3.8819 13.3516,-4.8716 4.1312,-0.98971 9.7613,-3.12072 12.5113,-4.73557 2.75,-1.61485 6.999,-3.72861 9.4423,-4.69725 2.4433,-0.96864 5.6628,-2.63017 7.1544,-3.6923 1.4916,-1.06213 3.4035,-1.93114 4.2486,-1.93114 0.8452,0 1.8148,-0.45 2.1547,-1 0.3399,-0.55 1.7046,-1 3.0326,-1 2.8313,0 14.2449,-5.38375 20.5565,-9.69647 5.6635,-3.86987 13.5182,-5.73401 20.9068,-4.96174 5.2995,0.5539 6.1269,0.34944 10.6046,-2.62051 4.8019,-3.18494 5.0374,-3.22957 20.8781,-3.95584 8.8118,-0.40401 19.1208,-1.00765 22.909,-1.34142 6.5262,-0.57501 10.9424,0.0812 19.2939,2.867 2.3554,0.78568 4.6191,0.7164 8.7176,-0.2668 8.6513,-2.07543 20.038,0.1542 26.1009,5.11084 2.975,2.43219 6.1602,3.11715 8.5494,1.83849 3.9544,-2.11634 11.3554,-0.24961 16.3135,4.11472 3.8458,3.38517 5.0883,3.91173 9.2304,3.91173 3.8351,0 6.1378,0.81648 11.5852,4.10784 4.6164,2.78928 8.4751,4.31396 12.0213,4.75 4.556,0.56019 5.5121,1.08891 7.4903,4.14216 3.1142,4.8065 6.2329,8.18491 9.9643,10.79422 3.5286,2.46748 8.3456,2.95913 8.3456,0.8518 0,-0.74468 1.1035,-2.54468 2.4523,-4 1.8677,-2.01531 3.4098,-2.64602 6.4695,-2.64602 5.2083,0 10.5457,-2.94127 15.7609,-8.68539 5.1184,-5.63743 6.8477,-10.70824 8.292,-24.31461 1.5525,-14.62459 4.7481,-20.7058 8.7681,-16.68573 1.4504,1.45035 1.3469,1.95175 -1.1954,5.7935 -2.2295,3.369 -2.8095,5.4371 -2.9153,10.39505 -0.073,3.40412 0.3696,6.82109 0.9829,7.59325 2.009,2.52983 3.3629,14.03561 2.0038,17.03055 -0.5501,1.21236 -0.086,1.79024 1.8216,2.26905 2.6587,0.66731 3.5664,2.60433 1.2203,2.60433 -2.0455,0 -7.3547,6.33015 -8.0804,9.63428 l -0.6445,2.93473 7.2821,-0.38997 c 6.6402,-0.35559 7.7301,-0.73258 12.3642,-4.27661 9.8347,-7.52121 13.4179,-12.55148 13.4179,-18.83669 0,-2.23616 0.45,-4.06574 1,-4.06574 0.55,0 1,0.675 1,1.5 0,0.825 0.3938,1.5 0.875,1.5 1.2696,0 2.125,-5.25463 2.125,-13.05357 0,-4.85173 0.4508,-7.25439 1.5714,-8.375 2.4388,-2.43878 3.4286,-1.88201 3.4286,1.92857 0,1.925 0.45,3.5 1,3.5 0.55,0 1,-1.05 1,-2.33333 0,-3.00972 0.9708,-3.93579 2.658,-2.53555 0.9782,0.81182 1.342,4.18551 1.342,12.44427 0,11.16915 -0.2713,12.5103 -4.3343,21.42461 -1.128,2.475 -2.0939,4.725 -2.1463,5 -0.3676,1.9286 -4.3842,9.09849 -6.7101,11.97784 -2.863,3.54432 -3.6074,6.02216 -1.8093,6.02216 0.55,0 1,-0.45 1,-1 0,-0.55 0.6053,-1 1.345,-1 0.7398,0 2.1595,-0.9 3.155,-2 0.9955,-1.1 2.2337,-2 2.7515,-2 0.5179,0 2.9865,-1.8 5.4858,-4 2.4994,-2.2 5.1559,-4 5.9035,-4 0.7476,0 1.3592,-0.36651 1.3592,-0.81448 0,-0.44796 1.8425,-1.79796 4.0945,-3 4.2124,-2.24844 12.9055,-3.04701 12.9055,-1.18552 0,0.55 -1.5495,1 -3.4433,1 -3.264,0 -6.5567,2.69474 -6.5567,5.36599 0,0.54227 3.6405,0.64615 8.8534,0.25262 9.3508,-0.70589 12.1466,-0.25902 12.1466,1.94146 0,1.2094 3.4705,3.22923 8.25,4.80148 0.9625,0.31663 1.75,1.3548 1.75,2.30707 0,1.34663 -0.2667,1.46471 -1.2,0.53138 -0.66,-0.66 -2.2399,-1.2 -3.5109,-1.2 -1.271,0 -4.2955,-0.93285 -6.721,-2.073 -3.7212,-1.74917 -5.7893,-2.004 -13.2391,-1.63129 -10.8577,0.54322 -13.5227,1.22777 -18.8951,4.85357 -2.3232,1.56789 -4.6241,2.85072 -5.1131,2.85072 -1.5708,0 -11.5523,10.73888 -10.5546,11.35548 0.529,0.32694 2.8013,-0.29429 5.0495,-1.38052 2.2482,-1.08623 4.9829,-1.97496 6.077,-1.97496 1.0941,0 2.2674,-0.45 2.6073,-1 0.7718,-1.24879 16.1769,-1.33178 16.9436,-0.0913 0.3089,0.49979 -2.7021,1.46825 -6.691,2.15213 -3.9889,0.68388 -7.6801,1.62496 -8.2026,2.09128 -0.5225,0.46633 -1.5118,0.84787 -2.1985,0.84787 -0.6866,0 -2.4322,1.09705 -3.879,2.4379 -1.4468,1.34084 -3.945,2.7266 -5.5515,3.07945 -1.6066,0.35288 -2.921,1.05583 -2.921,1.56213 0,0.50629 -0.6592,0.92054 -1.4648,0.92054 -0.8057,0 -1.9212,0.85275 -2.479,1.89499 -2.1025,3.92858 0.7342,4.51894 25.1668,5.23762 l 22.9674,0.67558 2.9048,2.783 c 1.5976,1.53064 2.9048,3.3738 2.9048,4.0959 0,0.7221 1.0189,1.31291 2.2641,1.31291 1.2453,0 4.7264,0.9 7.7359,2 3.0095,1.1 6.5336,2 7.8315,2 2.883,0 8.1685,3.60292 8.1685,5.56809 0,1.80528 -0.7858,1.79205 -4.3627,-0.0734 -3.8696,-2.01818 -28.9273,-2.6035 -30.8118,-0.71973 -1.0128,1.01242 -1.0232,1.67887 -0.05,3.23643 0.6738,1.07881 1.225,3.21087 1.225,4.73791 0,1.91126 0.6956,3.08405 2.2322,3.76357 1.2278,0.54292 2.7302,1.99653 3.3388,3.23024 1.8642,3.779 4.2238,5.82647 9.1795,7.96539 5.2188,2.25246 13.0464,4.2915 16.4744,4.2915 1.2079,0 4.857,1.0125 8.1092,2.25 8.5433,3.25085 16.7536,11.59231 19.5445,19.85663 2.1564,6.38521 6.5907,11.45576 16.8046,19.21535 8.1271,6.1743 10.4471,15.26197 6.6212,25.93627 l -1.7054,4.75826 3.3558,6.54286 c 4.1723,8.1348 4.6126,14.14225 1.2952,17.67408 -2.9173,3.1059 -2.8386,4.22762 0.6053,8.62265 5.254,6.70508 6.5248,11.69666 4.1212,16.18781 -0.7912,1.47838 -0.5075,2.71078 1.25,5.42993 1.2504,1.93463 2.9525,3.74035 3.7824,4.01271 1.6985,0.55741 2.1432,1.27458 6.8472,11.04367 7.6339,15.85362 7.5547,15.59636 8.3038,26.96978 2.4059,36.53043 7.134,44.50263 36.1298,60.91909 11.6293,6.5841 15.4792,12.29204 20.3185,30.12454 3.4524,12.72196 4.1865,18.84719 2.3918,19.95637 -1.9862,1.22754 -1.119,8.03954 1.3145,10.32569 1.2729,1.19587 2.8423,2.17431 3.4874,2.17431 2.3281,0 6.0171,7.69927 7.2745,15.18214 1.0726,6.38368 1.0366,8.33255 -0.239,12.91787 -2.1563,7.75126 -4.201,7.21759 -4.8374,-1.2626 -0.4816,-6.41786 -0.6653,-6.80579 -5,-10.56084 -2.475,-2.14403 -5.9625,-4.48794 -7.7499,-5.20869 -1.7875,-0.72075 -4.6,-2.69131 -6.25,-4.37901 -2.6182,-2.67795 -3.0001,-3.78856 -3.0001,-8.72507 0,-7.71043 -2.0409,-11.2438 -9.3327,-16.15761 -3.392,-2.28585 -6.4845,-4.63349 -6.8721,-5.21699 -0.3876,-0.58351 -3.3144,-1.07279 -6.5039,-1.08731 -5.4653,-0.0249 -6.0542,-0.27403 -10.2332,-4.32957 -2.4388,-2.36676 -5.1926,-4.70911 -6.1196,-5.20524 -1.4951,-0.80017 -1.6347,-0.36927 -1.2354,3.81544 0.4206,4.40806 1.3382,7.91549 3.3271,12.71748 6.1189,14.77374 7.165,21.10762 5.9455,35.99956 -1.4052,17.15928 -3.4613,24.4148 -6.1555,21.72065 -0.8795,-0.87953 -0.8969,-1.75758 -0.068,-3.45 4.431,-9.04894 3.0539,-27.92397 -3.0474,-41.77021 -0.8483,-1.925 -2.5193,-5.75 -3.7133,-8.5 -2.9413,-6.77383 -9.5346,-13.5 -13.2333,-13.5 -2.1692,0 -3.3053,-0.81305 -4.8906,-3.5 -1.1358,-1.925 -2.4076,-3.5 -2.8264,-3.5 -1.6704,0 -1.9126,11.92709 -0.4446,21.90215 1.2706,8.634 1.3229,11.60863 0.3077,17.5 -1.2919,7.49794 -3.2954,12.59785 -4.9489,12.59785 -0.9993,0 -0.6081,-2.91416 1.1274,-8.39922 0.5045,-1.59458 0.9173,-7.34659 0.9173,-12.78226 0,-8.58353 -0.404,-10.96358 -3.0727,-18.10078 -5.777,-15.44996 -6.8535,-17.61922 -9.3877,-18.91736 -3.0602,-1.56753 -7.5396,-6.00006 -7.5396,-7.46063 0,-1.77557 -4.2767,-9.23621 -5.4851,-9.5687 -1.4943,-0.41114 -4.9493,7.70891 -7.3854,17.35759 -1.9747,7.82096 -2.0739,9.45904 -1.0598,17.5 0.6154,4.87925 1.3561,11.46605 1.6459,14.63734 0.2899,3.17129 0.9225,6.01035 1.4057,6.30902 0.4833,0.29867 0.8787,1.26122 0.8787,2.139 0,1.4145 -0.2174,1.39925 -1.9118,-0.13419 -1.2213,-1.10524 -2.1039,-3.59926 -2.4435,-6.90499 -1.1921,-11.60392 -1.7949,-13.858 -3.3026,-12.35027 -0.9874,0.98737 -0.3706,14.03128 0.7152,15.12545 0.5185,0.5225 0.9427,3.02 0.9427,5.55 0,2.53 0.54,5.14 1.2,5.8 0.6916,0.69164 0.7696,1.2 0.1841,1.2 -2.2563,0 -5.6458,-8.38772 -7.0719,-17.5 -0.8428,-5.38587 -0.1,-14.40471 1.6395,-19.89243 3.7143,-11.72068 4.0191,-30.305 0.5483,-33.42831 -0.55,-0.49494 -3.384,-1.73438 -6.2978,-2.75431 -6.5738,-2.30104 -8.387,-1.4099 -9.5207,4.6791 -0.4502,2.41777 -1.5001,7.09595 -2.3332,10.39595 -0.8331,3.3 -1.7533,7.2375 -2.045,8.75 -1.1919,6.18077 -2.131,1.97724 -2.4574,-11 -0.3425,-13.61285 -0.3844,-13.82952 -4.2086,-21.72218 -2.1245,-4.38469 -4.5375,-8.46557 -5.3622,-9.06861 -2.3025,-1.68359 -12.9048,-3.76897 -15.6539,-3.07898 -3.8552,0.96756 -22.6213,20.24278 -22.6213,23.23489 0,0.38285 -1.125,2.17105 -2.5,3.97377 -1.375,1.80272 -2.5,3.75769 -2.5,4.34439 0,0.5867 -0.3698,1.06672 -0.8217,1.06672 -0.452,0 -1.8507,2.3625 -3.1083,5.25 -1.2576,2.8875 -3.0972,6.96954 -4.088,9.07121 -1.3259,2.81233 -1.5754,4.6096 -0.9451,6.8073 0.471,1.64235 0.6148,3.61555 0.3196,4.38488 -0.2952,0.76934 0.1548,4.45605 1,8.1927 1.7711,7.83001 1.2245,14.55494 -1.4994,18.44828 -1.0214,1.4599 -1.8588,3.7099 -1.8608,5 0,2.7975 -3.4873,8.79745 -6.2183,10.71223 -1.0719,0.75164 -2.8217,3.40255 -3.8884,5.89093 -2.7013,6.30192 -8.9582,13.45324 -15.1522,17.31825 -4.8971,3.05572 -6.2393,4.24513 -12.47,11.05054 -2.2771,2.48708 -5.663,14.35498 -4.6001,16.12368 0.2479,0.4125 1.3331,0.75 2.4116,0.75 7.9329,0 36.3747,19.3151 50.4843,34.2845 4.7775,5.0685 9.994,11.5264 11.5923,14.3508 3.1456,5.5588 7.2534,8.8449 15.8445,12.6751 8.5625,3.8175 15.7501,10.6834 22.1262,21.136 5.9275,9.7171 9.3072,18.076 10.3318,25.5536 1.1101,8.1009 2.8302,13.4189 5.984,18.5 5.0288,8.1021 5.6539,10.2913 6.5535,22.94984 0.8529,12.0016 2.9052,24.8923 5.0231,31.5502 0.6123,1.925 1.302,4.625 1.5327,6 0.8372,4.9909 2.3466,30.8338 1.9353,33.1365 -1.8358,10.2786 -3.0807,22.1353 -2.7284,25.9858 0.2331,2.5485 -0.3293,7.4836 -1.2537,11 -0.9221,3.5077 -1.9268,10.0986 -2.2327,14.6463 -0.4916,7.311 -0.2619,8.9902 1.984,14.5 3.3662,8.2584 7.0588,22.2716 11.3186,42.9534 3.0882,14.9936 3.4409,18.2361 3.0577,28.1132 -0.2382,6.1406 -0.203,12.3707 0.078,13.8445 0.5038,2.6395 0.6108,2.6733 7.1183,2.2483 3.6338,-0.2373 7.5214,-0.7373 8.6391,-1.1111 1.1177,-0.3737 3.2338,-0.5678 4.7023,-0.4312 2.5914,0.241 8.301,-2.0549 8.9896,-3.6147 0.519,-1.1759 8.7999,-4.9584 13.7113,-6.2628 2.6295,-0.6984 5.6175,-2.4879 7.5,-4.4915 1.7209,-1.8319 7.854,-6.5922 13.629,-10.5785 9.4891,-6.5501 20,-16.0539 20,-18.0836 0,-0.7051 5.5883,-5.2303 14.2399,-11.5308 6.8529,-4.9906 19.2468,-17.1474 23.3635,-22.9165 5.3633,-7.516 15.951,-16.7487 23.0746,-20.1216 2.888,-1.3674 5.5117,-3.308 5.8305,-4.3126 0.3189,-1.0045 2.9224,-4.7571 5.7856,-8.3389 6.5812,-8.233 9.0311,-11.6372 9.8761,-13.723 0.3687,-0.9098 3.1546,-5.2405 6.1911,-9.6237 3.0364,-4.3832 5.8128,-9.1329 6.1697,-10.5549 0.3569,-1.422 1.5664,-3.406 2.6878,-4.409 1.1214,-1.003 4.4119,-5.0221 7.3121,-8.9315 2.9003,-3.9093 7.5673,-9.0423 10.3711,-11.4065 2.8216,-2.3792 5.098,-5.144 5.098,-6.1918 0,-3.0481 2.9178,-7.9299 7.9456,-13.2938 8.2189,-8.7684 8.4333,-9.3245 7.7283,-20.0564 -0.8081,-12.3031 -0.2611,-14.5742 4.8911,-20.30474 6.8348,-7.6019 15.8772,-9.2542 24.4064,-4.4597 l 4.7662,2.6792 5.8812,-2.8604 c 8.0626,-3.9213 18.3348,-4.6133 23.7052,-1.5969 4.7241,2.6534 5.8664,2.6302 9.3493,-0.19 4.4633,-3.6142 7.938,-4.7111 14.9234,-4.7111 6.8,0 10.5969,1.3465 13.8106,4.8976 2.1676,2.3951 7.1049,2.8159 7.9263,0.6755 0.6787,-1.7687 7.5313,-4.8614 14.4482,-6.5208 5.7443,-1.378 9.1165,-0.685 14.1668,2.9111 3.878,2.7614 4.6944,2.5911 6.5746,-1.3711 2.5738,-5.4238 9.6485,-7.5097 17.5312,-5.1688 2.9197,0.8671 6.5288,1.5765 8.0201,1.5765 1.4913,0 2.9705,0.675 3.2871,1.5 0.7746,2.0186 3.2651,1.8901 6.484,-0.3343 5.1069,-3.5292 11.3363,-5.3655 15.8865,-4.6832 3.328,0.4991 5.5794,1.8372 10.0411,5.968 5.4625,5.0573 5.8101,5.6691 6.9245,12.187 2.2927,13.40934 3.2506,23.12554 4.3241,43.86254 0.598,11.55 1.541,25.275 2.0955,30.5 0.5545,5.225 1.147,14.225 1.3166,20 0.3511,11.9553 0.3954,12.2243 1.5661,9.5 0.5656,-1.3162 0.8894,1.248 0.9472,7.5 0.048,5.225 0.7434,13.5009 1.5449,18.3909 0.8014,4.8899 1.5089,14.9792 1.5721,22.4205 0.063,7.4413 0.5682,14.6905 1.1221,16.1091 1.4499,3.7136 2.7304,11.9794 3.8079,24.5795 0.5174,6.05 1.1956,12.0392 1.5072,13.3093 0.3116,1.2702 1.0461,7.5702 1.6322,14 0.5862,6.4299 1.4606,15.5157 1.9432,20.1907 2.6331,25.5061 2.6296,25.4107 0.9999,27.3426 -0.8549,1.0135 -2.28,2.231 -3.167,2.7057 -2.3231,1.2433 -15.8253,3.9499 -19.7094,3.9509 -3.5938,9e-4 -9.0567,-2.4281 -10.794,-4.7993 -0.8009,-1.0932 -1.8716,-1.2797 -4,-0.6965 -1.5985,0.438 -8.576,0.978 -15.5057,1.2 l -12.5994,0.4037 -3.0981,-3.5286 c -2.4373,-2.7759 -3.2435,-4.8137 -3.7798,-9.5535 -0.6468,-5.717 -1.5432,-7.258 -2.9233,-5.025 -0.7814,1.2643 -16.6444,1.2642 -22.1195,-2e-4 -2.2657,-0.5232 -5.5282,-2.1874 -7.25,-3.6982 -2.6197,-2.2987 -3.1305,-3.4673 -3.1305,-7.1613 l 0,-4.4143 -9.5939,0.7042 c -8.8887,0.6525 -10.1565,0.5036 -17.25,-2.0263 -4.2108,-1.5018 -8.6494,-3.6174 -9.8634,-4.7014 -2.1329,-1.9044 -2.3313,-1.9121 -5.884,-0.2262 -5.1198,2.4295 -14.174,1.7584 -17.208,-1.2756 -1.2106,-1.2104 -2.6509,-2.2007 -3.2009,-2.2007 -0.55,0 -1,-0.449 -1,-0.9977 0,-1.1194 -6.9071,-11.0023 -7.6894,-11.0023 -0.276,0 -1.919,1.0125 -3.6511,2.25 -4.659,3.3287 -10.3703,4.5378 -15.5165,3.2848 -5.491,-1.3369 -10.143,-7.0912 -10.143,-12.5463 0,-2.0103 -0.3084,-3.9636 -0.6853,-4.3405 -0.9846,-0.9846 -3.2819,-7.8412 -3.2996,-9.8483 -0.01,-0.9352 -0.7271,-2.0988 -1.5973,-2.5857 -2.0348,-1.1388 -11.07,0.2357 -19.2783,2.9327 -5.0904,1.6726 -7.6887,1.9591 -13.0111,1.4346 l -6.6505,-0.6553 -6.9445,4.787 c -3.8195,2.6328 -8.8886,7.262 -11.2647,10.287 -5.9836,7.6176 -11.4338,14.6054 -15.9893,20.5 -5.127,6.6343 -26.0196,37.097 -27.788,40.5167 -0.7662,1.4816 -3.3277,5.5114 -5.6922,8.9551 -2.3646,3.4436 -5.4242,7.9625 -6.7992,10.042 -1.375,2.0794 -5.1981,7.0895 -8.4958,11.1335 -3.2977,4.044 -7.5394,9.6027 -9.4261,12.3527 -6.8414,9.9722 -15.7729,20.2437 -25.0781,28.8405 -5.225,4.8273 -14.3672,13.3629 -20.3161,18.9682 -5.9488,5.6052 -13.1169,11.6468 -15.9291,13.4258 -2.8122,1.779 -6.27,4.2888 -7.6839,5.5773 -2.2182,2.0212 -12.0336,8.9064 -15.437,10.8285 -0.6237,0.3522 -3.6089,2.1077 -6.6339,3.901 -9.2282,5.4709 -16.1252,8.9587 -17.7154,8.9587 -0.8318,0 -3.3736,0.9566 -5.6484,2.1257 -2.2749,1.1692 -4.8112,2.4489 -5.6362,2.8439 -0.825,0.395 -2.4,1.2035 -3.5,1.7966 -1.1,0.5932 -5.825,2.5448 -10.5,4.3369 -4.675,1.792 -9.4,3.812 -10.5,4.4887 -1.1,0.6767 -8.9118,4.0142 -17.3595,7.4167 -12.1303,4.8857 -16.0199,6.0488 -18.5,5.5323 -1.7273,-0.3597 -4.9349,-0.911 -7.128,-1.2251 -4.1684,-0.597 -10.397,-4.9714 -15.9743,-11.219 -3.0247,-3.3882 -9.5382,-12.5961 -9.5382,-13.4838 0,-0.2564 -2.2175,-4.0792 -4.9278,-8.4953 -4.5203,-7.3652 -6.7294,-11.7015 -13.0007,-25.5199 -4.2601,-9.3865 -5.3597,-20.0115 -4.15,-40.0977 0.5962,-9.9 1.0816,-21.825 1.0787,-26.5 0,-7.8482 -0.2597,-8.9218 -3.3226,-14.001 -1.8245,-3.0255 -5.2564,-9.2282 -7.6265,-13.7838 -2.3701,-4.5557 -5.1044,-8.7085 -6.0762,-9.2286 -2.9615,-1.585 -12.3328,-14.9863 -16.7733,-23.9866 -2.9558,-5.991 -4.5035,-10.7138 -5.2431,-16 -0.5772,-4.125 -1.3963,-9.8474 -1.8204,-12.7164 -0.424,-2.869 -0.6655,-12.919 -0.5368,-22.3334 0.2504,-18.3056 0.8711,-21.1501 7.1897,-32.9502 1.8389,-3.434 2.4951,-6.433 2.7703,-12.66 0.4385,-9.9243 -0.4984,-11.2914 -5.9552,-8.6892 -3.0509,1.4549 -3.6061,2.2208 -3.6061,4.9754 0,1.7907 -0.3919,3.498 -0.8708,3.794 -0.479,0.296 -1.1455,1.9111 -1.4811,3.5892 -0.3356,1.678 -1.6771,4.0499 -2.9812,5.2708 -1.3954,1.3063 -2.9007,4.4831 -3.6582,7.7198 -0.7079,3.025 -2.1069,6.6698 -3.1089,8.0996 -1.0019,1.4297 -2.96,6.1547 -4.3512,10.5 -3.2459,10.138 -11.5105,26.2262 -13.8643,26.9887 -0.9986,0.3235 -3.395,1.9748 -5.3252,3.6696 -1.9303,1.6948 -5.1476,3.3477 -7.1497,3.6731 -3.3508,0.5446 -3.9402,1.1868 -7.4158,8.0803 -2.0766,4.1188 -6.0255,10.1887 -8.7752,13.4887 -2.7496,3.3 -6.8418,8.6189 -9.0935,11.8198 -2.2518,3.2008 -5.839,7.0258 -7.9716,8.5 -2.5526,1.7645 -3.8904,3.4624 -3.9153,4.9697 -0.081,4.8526 -17.2311,26.9719 -26.9684,34.7814 -4.6847,3.7571 -8.4765,7.7589 -9.9491,10.5 -5.5725,10.3726 -7.2069,14.028 -8.0965,18.108 -1.834,8.4109 -6.1547,23.3604 -7.5796,26.2247 -0.7944,1.597 -1.4444,3.2988 -1.4444,3.7818 0,1.3046 -6.1995,13.7137 -9.1606,18.3363 -2.3927,3.7352 -5.1642,5.6517 -12.0894,8.36 -1.5125,0.5915 -2.75,1.7429 -2.75,2.5588 0,3.8361 5.1147,17.0697 7.5998,19.6637 2.9531,3.0823 5.5901,7.186 10.3285,16.073 1.6648,3.1224 3.487,5.9614 4.0493,6.309 0.5623,0.3475 1.0224,1.3632 1.0224,2.2571 0,0.8939 0.9047,3.4941 2.0105,5.7783 1.1057,2.2842 3.0778,7.8245 4.3824,12.3119 1.3046,4.4873 3.2124,9.3616 4.2396,10.8318 1.0271,1.4702 3.3641,5.342 5.1932,8.604 3.1111,5.5481 3.2592,6.2311 2.2955,10.5808 -2.1684,9.7869 -2.4047,16.7235 -0.6303,18.4979 0.9086,0.9086 2.2169,1.652 2.9073,1.652 0.6904,0 3.4708,2.0408 6.1786,4.535 5.929,5.4615 7.4673,5.9279 14.9744,4.5402 3.1989,-0.5914 7.3302,-1.0752 9.1808,-1.0752 1.8505,0 5.2274,-0.9 7.5041,-2 2.2768,-1.1 4.7731,-2 5.5474,-2 0.7742,0 2.6022,-0.8392 4.0621,-1.8649 3.8564,-2.7094 14.7126,-6.3191 17.8987,-5.9512 6.4706,0.7469 1.7317,6.0767 -6.5856,7.4067 -2.2873,0.3658 -4.1587,1.0443 -4.1587,1.5079 0,1.1515 -10.74,5.9823 -14.75,6.6346 -2.319,0.3772 -3.25,1.064 -3.25,2.3977 0,1.5042 0.7571,1.8692 3.8776,1.8692 3.9622,0 6.4171,1.7223 5.9075,4.1447 -0.211,1.0031 1.3464,1.4329 5.9925,1.6537 5.0434,0.2398 6.8432,-0.1043 9.1544,-1.75 1.5822,-1.1266 3.7073,-2.0683 4.7224,-2.0925 2.8959,-0.069 10.3708,-2.4023 15.8364,-4.9427 3.3819,-1.572 7.2504,-2.4111 12,-2.6029 6.2391,-0.252 8.2177,-0.8944 18.0092,-5.8471 11.3581,-5.7451 17.7898,-10.0532 29.306,-19.6297 8.9776,-7.4656 11.172,-8.8792 12.8088,-8.2511 3.3801,1.2971 0.489,5.9365 -7.9874,12.8176 -2.0326,1.65 -5.5927,4.5911 -7.9115,6.5357 -7.4049,6.2102 -11.001,8.5312 -20.7159,13.37 -5.225,2.6025 -10.429,5.6009 -11.5645,6.6631 -1.1354,1.0622 -2.5747,1.9312 -3.1984,1.9312 -1.3401,0 -6.7478,4.8226 -6.1161,5.4543 0.2389,0.239 2.5638,1.004 5.1663,1.7 4.2519,1.1373 5.0605,1.0695 7.9723,-0.6676 2.6463,-1.5787 5.0739,-1.9232 13.2404,-1.8789 5.5,0.03 11.4799,0.409 13.2886,0.8424 1.861,0.446 5.1167,0.3376 7.5,-0.2498 2.3163,-0.5709 6.9114,-1.5951 10.2114,-2.2762 4.29,-0.8853 6.9975,-2.1595 9.5,-4.471 5.4162,-5.0028 9.7565,-6.7873 17,-6.9895 8.0567,-0.225 16.6528,-2.8465 20.1485,-6.1446 2.6383,-2.4892 8.3036,-3.6768 16.7401,-3.5093 3.9426,0.078 6.963,2.1902 3.1324,2.1902 -2.9949,0 -9.021,2.1382 -9.021,3.2009 0,0.4395 2.2234,0.7991 4.941,0.7991 4.5819,0 7.1987,1.1776 5.2681,2.3707 -0.4529,0.28 -3.0391,0.7749 -5.7472,1.1 -2.708,0.3251 -5.3598,1.0272 -5.8928,1.5602 -0.533,0.533 -2.2226,0.9691 -3.7548,0.9691 -5.5903,0 -11.4106,2.2315 -12.9878,4.9795 -1.4688,2.5593 -9.2573,7.0205 -12.2566,7.0205 -0.7985,0 -1.73,0.45 -2.0699,1 -0.3399,0.55 -1.4217,1 -2.404,1 -0.9823,0 -2.6422,0.9461 -3.6887,2.1024 -1.0464,1.1563 -3.1921,2.7692 -4.7681,3.5842 -3.6102,1.8669 -12.8823,4.3086 -16.438,4.3287 -4.0803,0.023 -5.9485,1.529 -4.5982,3.7062 0.8215,1.3246 2.991,1.9512 8.5,2.4552 14.6121,1.3368 20.2273,2.601 30.397,6.8437 1.1,0.4589 4.925,1.0996 8.5,1.4238 8.927,0.8096 17.141,2.1018 19.3175,3.039 1.6567,0.7134 3.4112,0.2019 8.9189,-2.5999 0.9551,-0.4858 2.5734,-0.8833 3.5964,-0.8833 2.3208,0 7.6639,-2.5895 11.8622,-5.7491 4.3163,-3.2482 7.8752,-2.7554 7.6094,1.0538 -0.1466,2.1001 0.2294,2.7603 1.5,2.6338 5.6823,-0.5657 10.3589,0.2249 12.1956,2.0615 1.1,1.1 2.2408,2 2.5352,2 1.4201,0 5.3802,3.3279 4.8947,4.1134 -0.3041,0.492 -2.0413,-0.2407 -3.8605,-1.6283 -1.8192,-1.3875 -3.9834,-2.2635 -4.8095,-1.9465 -0.853,0.3274 -1.76,-0.097 -2.0995,-0.9811 -0.4536,-1.1822 -2.1175,-1.5575 -6.9045,-1.5575 -4.9844,0 -7.5596,0.6225 -12.2814,2.9686 -3.286,1.6328 -6.6856,2.9828 -7.5546,3 -3.3803,0.067 -12.8921,4.7263 -14.9249,7.3107 -1.1771,1.4964 -2.9809,2.7207 -4.0086,2.7207 -1.0276,0 -2.1465,0.45 -2.4864,1 -0.3399,0.55 -2.082,1 -3.8712,1 -4.0212,0 -14.6756,4.5759 -15.3006,6.5714 -0.16,0.5107 2.1179,1.9712 5.062,3.2455 4.8663,2.1062 6.3417,2.2651 16.2313,1.7473 11.5874,-0.6067 15.9462,-0.646 32.0829,-0.2896 9.793,0.2163 10.2282,0.3202 10.7944,2.5762 0.5369,2.1397 0.9677,2.2939 4.7955,1.7171 2.3132,-0.3485 8.0239,-0.8944 12.6907,-1.2131 6.1497,-0.4199 9.1455,-1.0989 10.8849,-2.4671 1.3199,-1.0382 3.409,-1.8877 4.6425,-1.8877 1.2335,0 2.8098,-0.6833 3.5029,-1.5185 2.7286,-3.2878 8.3335,-4.9815 16.4847,-4.9815 4.4,0 8.9,0.3826 10,0.8502 1.9077,0.8109 1.8846,0.8969 -0.5,1.8629 -1.375,0.557 -5.7147,1.1596 -9.6437,1.339 -6.0901,0.2782 -7.5215,0.704 -9.7046,2.8871 -1.4084,1.4084 -3.1437,2.5633 -3.8562,2.5664 -3.8374,0.016 -8.9902,2.3277 -9.9664,4.4702 -0.5901,1.2951 -2.0305,2.6441 -3.201,2.9977 -2.0924,0.6323 -2.0946,0.6567 -0.1281,1.4577 1.6795,0.6842 1.2837,1.011 -2.4704,2.0396 -4.3823,1.2008 -16.5951,5.8445 -22.5296,8.5663 -1.65,0.7568 -5.7,2.3651 -9,3.5739 -7.2793,2.6665 -10.5,4.6615 -10.5,6.504 0,2.6039 3.9809,1.4492 9.8778,-2.865 1.3155,-0.9625 3.0493,-1.75 3.8527,-1.75 0.8034,0 2.6552,-0.8297 4.1151,-1.8437 3.946,-2.7409 19.1544,-5.4275 19.1544,-3.3837 0,0.7164 -5.764,2.5447 -12.25,3.8858 -1.5125,0.3127 -2.75,0.9471 -2.75,1.4098 0,0.4626 -1.6456,1.1499 -3.657,1.5272 -4.2388,0.7952 -6.775,2.0122 -10.7868,5.1759 -2.7828,2.1946 -2.8155,2.3202 -0.9682,3.7185 4.2701,3.232 10.4244,2.8363 38.7997,-2.4946 5.1406,-0.9657 8.7952,0.034 8.3523,2.2847 -0.1586,0.8066 1.5392,1.3225 5.01,1.5224 2.8875,0.1662 5.25,0.6725 5.25,1.125 0,1.1935 -5.1603,2.0716 -16.25,2.7651 -5.3625,0.3353 -9.75,0.9372 -9.75,1.3373 0,0.4002 1.3746,1.2971 3.0547,1.993 2.2213,0.92 5.2909,1.0424 11.25,0.4483 12.0417,-1.2005 21.2912,-0.641 27.6264,1.6713 3.0629,1.1179 6.4689,2.2867 7.5689,2.5972 1.1,0.3106 3.1945,1.3963 4.6544,2.4126 1.4599,1.0163 3.2599,1.8579 4,1.8701 0.7401,0.012 2.4706,0.9023 3.8456,1.9778 2.9893,2.3383 7.2767,2.5765 9,0.5 1.323,-1.5942 5,-2.0758 5,-0.655 0,1.2011 -3.4329,4.155 -4.8287,4.155 -0.6442,0 -1.1713,0.45 -1.1713,1 0,0.55 0.4197,1 0.9326,1 1.2508,0 2.3673,3.7057 1.5265,5.0663 -0.441,0.7134 -1.4034,0.4194 -2.8146,-0.8599 -1.1795,-1.0691 -3.382,-2.2366 -4.8945,-2.5942 -2.3979,-0.567 -2.75,-0.3526 -2.75,1.6745 0,2.5451 3.6228,7.9608 7.632,11.4091 1.4041,1.2077 2.2598,2.6702 1.9015,3.25 -1.0791,1.746 -3.1203,1.1931 -4.4146,-1.1958 -0.6704,-1.2375 -3.4521,-3.3129 -6.1813,-4.6121 l -4.9624,-2.362 -5.2376,3.8642 c -2.8807,2.1253 -5.9791,4.3132 -6.8854,4.8621 -0.9062,0.5488 -3.6062,2.3478 -6,3.9978 -4.2499,2.9295 -6.4514,4.0848 -12.1493,6.3755 -1.728,0.6947 -10.0405,1.1245 -21.75,1.1245 -10.4857,0 -18.9529,0.3998 -18.9529,0.895 0,0.4922 1.6875,1.1108 3.75,1.3747 2.0625,0.2639 6.675,1.2324 10.25,2.1523 9.4342,2.4276 13.9565,3.4234 18.7472,4.1281 2.3359,0.3436 5.2463,1.4338 6.4675,2.4227 1.8728,1.5165 2.0163,2.0439 0.9168,3.3688 -2.6665,3.2129 0.031,3.3658 8.6065,0.4875 10.2893,-3.4535 13.0764,-4.7102 15.7006,-7.0791 1.0662,-0.9625 2.8237,-1.75 3.9056,-1.75 1.0818,0 3.3595,-1.0369 5.0614,-2.3042 1.7019,-1.2673 5.7944,-3.5824 9.0944,-5.1446 5.1749,-2.4498 12.5,-8.3808 12.5,-10.121 0,-0.3108 2.0276,-3.0542 4.5057,-6.0963 2.4782,-3.0422 4.7872,-6.7244 5.1313,-8.1826 1.0939,-4.6367 3.7642,-6.8948 14.363,-12.146 3.9957,-1.9797 17.5748,-3.5024 18.46,-2.07 0.7976,1.2905 6.4934,4.0567 8.4436,4.1007 2.151,0.048 7.7128,4.6809 6.7618,5.6319 -0.416,0.416 -1.6298,0.2109 -2.6973,-0.4558 -1.0675,-0.6666 -2.7571,-1.2121 -3.7545,-1.2121 -0.9975,0 -2.2919,-0.4783 -2.8766,-1.063 -1.5305,-1.5305 -6.9468,-1.4679 -10.1168,0.1168 -4.9968,2.4981 -6.2202,4.0864 -6.2202,8.0755 0,3.206 -0.4673,4.061 -2.91,5.3242 -3.1962,1.6528 -9.09,8.285 -9.09,10.2289 0,0.6747 -1.2236,2.4503 -2.7191,3.9458 -1.4956,1.4956 -3.568,4.3285 -4.6054,6.2955 -1.0374,1.967 -2.6598,4.4763 -3.6055,5.5763 -0.9456,1.1 -3.4086,4.6045 -5.4732,7.7878 -2.0646,3.1833 -5.5185,6.9556 -7.6753,8.3829 -2.1568,1.4273 -3.9215,2.9239 -3.9215,3.3258 0,0.4019 -1.2228,1.9536 -2.7173,3.4481 -2.3485,2.3484 -3.2648,2.6354 -6.75,2.114 -4.2321,-0.6332 -7.1614,1.0192 -18.98,10.7061 -8.3762,6.8653 -22.5744,14.3161 -29.1638,15.3042 -2.4274,0.364 -4.6595,1.06 -4.9602,1.5465 -0.3007,0.4865 -1.6755,0.8846 -3.0551,0.8846 -2.0533,0 -2.3932,-0.3628 -1.8736,-2 0.3491,-1.1 0.1848,-2 -0.3652,-2 -0.55,0 -1.2703,-0.8514 -1.6005,-1.892 -0.3303,-1.0406 -1.3731,-2.1645 -2.3174,-2.4974 -0.9443,-0.3329 -3.2459,-1.7315 -5.1148,-3.108 -3.5752,-2.6332 -9.0843,-3.3893 -9.1273,-1.2526 -0.014,0.6875 -3.3951,4.8465 -7.514,9.2422 -4.2279,4.512 -7.2651,8.5755 -6.9749,9.3318 0.2828,0.7368 0.5141,1.5278 0.5141,1.7578 0,0.23 0.9551,0.4182 2.1224,0.4182 1.5782,0 1.8595,0.3206 1.0971,1.25 -0.9615,1.1722 -1.5812,4.6658 -1.3302,7.5 0.07,0.7915 1.7064,1.25 4.4607,1.25 3.265,0 5.4032,-0.763 8.5732,-3.0593 2.3228,-1.6826 5.1823,-3.4141 6.3546,-3.8477 2.6217,-0.9699 8.759,0.3014 14.6598,3.0366 6.3068,2.9234 10.0833,3.3063 14.4821,1.4684 4.7033,-1.9652 7.5803,-2.046 7.5803,-0.213 0,0.7617 -1.1393,2.1315 -2.5319,3.0439 -1.3925,0.9124 -2.2659,2.0892 -1.9409,2.615 0.8628,1.3961 27.1179,1.2148 29.7885,-0.2057 1.2014,-0.639 4.5818,-2.929 7.512,-5.0889 2.9303,-2.16 5.5303,-3.7246 5.778,-3.4769 0.8911,0.8911 -1.5872,5.7276 -2.9349,5.7276 -0.7583,0 -2.5926,1.125 -4.0763,2.5 -1.4836,1.375 -3.2594,2.5 -3.946,2.5 -0.6867,0 -1.676,0.3959 -2.1985,0.8797 -0.5225,0.4839 -7.884,1.1404 -16.3589,1.459 -8.7956,0.3306 -15.8676,1.0378 -16.4776,1.6478 -1.6052,1.6052 0.4222,4.164 4.4534,5.6207 4.1897,1.514 24.5539,1.8154 25.4432,0.3765 0.6995,-1.1319 2.4899,-0.3772 2.4899,1.0496 0,2.1912 -6.1448,3.9667 -13.7278,3.9667 -4.9994,0 -8.5398,0.4948 -9.7997,1.3696 -1.0849,0.7532 -3.5475,1.6181 -5.4725,1.9218 -5.243,0.8272 -13.0898,3.244 -18.4271,5.6754 -4.521,2.0595 -5.3077,2.1098 -16.4108,1.0475 -6.4141,-0.6137 -13.3496,-1.3672 -15.4121,-1.6744 -4.6121,-0.6872 -4.8793,0.6861 -0.5,2.5698 8.4658,3.6416 11.5123,5.3117 14.75,8.0863 1.925,1.6496 3.8137,3.0004 4.197,3.0017 0.3834,0 3.6698,2.2523 7.303,5.0023 7.4208,5.6168 7.8674,5.6898 22,3.5966 10.0994,-1.4959 11.352,-1.901 17,-5.4979 9.4184,-5.9982 12.2602,-6.4611 6.0178,-0.9802 -4.4171,3.8783 -12.0295,7.8815 -14.9873,7.8815 -2.0617,0 -4.5305,1.6819 -4.5305,3.0865 0,2.3515 15.1816,0.9585 21.5,-1.9727 2.5756,-1.1948 10.395,-4.1138 11.0202,-4.1138 0.2639,0 0.4798,0.4368 0.4798,0.9707 0,1.0928 -10.2587,6.0293 -12.5296,6.0293 -0.8087,0 -1.4704,0.45 -1.4704,1 0,0.55 -0.9,1 -2,1 -1.1,0 -2,0.45 -2,1 0,0.55 -1.0125,1.01 -2.25,1.0222 -1.2375,0.012 -3.375,0.9023 -4.75,1.9778 -1.375,1.0755 -3.1975,1.9655 -4.05,1.9778 -0.8525,0.012 -2.0704,0.5426 -2.7065,1.1787 -0.8753,0.8753 -6.3337,0.851 -22.45,-0.1 l -21.2935,-1.2558 -14.5,-4.9743 c -7.975,-2.7358 -16.2237,-5.3372 -18.3304,-5.7808 -2.1068,-0.4435 -4.3343,-1.3103 -4.95,-1.926 -0.6158,-0.6158 -1.7404,-1.1196 -2.4991,-1.1196 -3.5052,0 3.917,14.9321 9.0665,18.24 1.4432,0.9271 7.628,1.7854 17.779,2.4674 18.1433,1.219 17.4621,0.9419 31.4482,12.7926 2.5964,2.2 5.1434,4.1585 5.6601,4.3523 0.5166,0.1937 2.0183,1.4312 3.3371,2.75 1.4598,1.4598 3.5659,2.3977 5.3841,2.3977 1.6426,0 3.2646,0.45 3.6045,1 0.3399,0.55 0.1415,1 -0.441,1 -1.6576,0 -1.2419,2.1458 0.6894,3.558 0.9617,0.7032 1.4268,1.6002 1.0336,1.9933 -0.3931,0.3932 -2.3439,-0.7155 -4.335,-2.4637 -3.0125,-2.645 -4.403,-3.1642 -8.2836,-3.093 -8.5892,0.1577 -20.5133,-1.9579 -30.293,-5.3747 -2.5462,-0.8896 -5.9212,-1.5606 -7.5,-1.4911 -3.8475,0.1692 -9.3704,1.8336 -9.3704,2.8238 0,0.4385 -0.267,2.1324 -0.5933,3.7642 -0.5299,2.6492 -0.2149,3.1463 2.9432,4.6449 2.4754,1.1747 5.7497,1.6211 10.913,1.4878 7.1444,-0.1845 9.7371,0.3736 9.7371,2.096 0,0.8805 -3.809,1.8442 -10.75,2.7198 -2.3375,0.2948 -4.25,0.6466 -4.25,0.7818 0,0.8644 3.2957,6.6176 4.0623,7.0914 0.5146,0.3181 5.2303,0.5871 10.4793,0.5979 8.7157,0.018 9.4943,0.175 8.9748,1.8121 -0.4472,1.4089 0.6248,2.3577 5.0092,4.4336 3.0679,1.4526 5.3293,3.0436 5.0252,3.5356 -0.5792,0.9373 -4.6888,0.2522 -5.5508,-0.9253 -0.8637,-1.18 -7.934,-1.9082 -8.5679,-0.8826 -0.3325,0.538 0.1453,2.1224 1.0616,3.5209 0.9164,1.3986 1.5177,2.6655 1.3362,2.8153 -0.1814,0.1499 -3.0299,-0.1331 -6.3299,-0.6289 -13.4366,-2.0187 -22.4876,-2.6182 -31.5863,-2.0921 -8.0789,0.467 -10.6278,0.2177 -16.2091,-1.5854 -3.6425,-1.1768 -7.435,-2.1396 -8.4278,-2.1396 -2.6674,0 -12.2702,-3.684 -14.233,-5.4604 -0.9357,-0.8468 -2.0033,-1.5396 -2.3725,-1.5396 -1.3197,0 -0.6385,6.6178 1.1984,11.6435 1.0284,2.8135 2.18,7.599 2.5593,10.6346 0.4614,3.6927 1.376,6.1319 2.7637,7.3706 1.1407,1.0182 3.8452,4.2368 6.01,7.1524 2.1647,2.9156 5.1422,5.7567 6.6166,6.3136 1.4744,0.5569 3.8289,2.264 5.2323,3.7935 2.8378,3.0927 9.3222,5.2916 20.9484,7.1034 8.4972,1.3243 12,2.4822 12,3.967 0,1.3202 -2.4054,1.2885 -10.7469,-0.1419 -5.6807,-0.9742 -8.1264,-0.8928 -15.0388,0.5 -4.5402,0.9148 -10.1583,1.6702 -12.4846,1.6786 -5.5011,0.02 -7.0086,1.0255 -6.2239,4.1517 0.4034,1.6072 1.7659,2.8911 3.879,3.6552 3.9821,1.4399 9.2776,1.533 10.1152,0.1778 0.3399,-0.55 1.4515,-1 2.4701,-1 1.0187,0 2.9881,-1.35 4.3765,-3 2.3507,-2.7937 4.6534,-3.928 4.6534,-2.2922 0,0.3893 -1.6353,2.3826 -3.6341,4.4295 -2.309,2.3646 -3.4143,4.2943 -3.0313,5.2922 0.9773,2.5468 4.0174,1.817 8.5332,-2.0484 5.1659,-4.4218 6.9415,-3.5662 2.0927,1.0084 -6.7232,6.3429 -12.7354,8.5751 -23.1515,8.5954 -4.23,0.01 -7.9375,-0.3839 -8.2389,-0.8715 -0.5923,-0.9583 -4.069,-1.7195 -12.3201,-2.6976 l -5.25,-0.6223 0,2.8627 c 0,2.6963 2.8432,5.7423 5.5,5.8926 0.55,0.031 2.4402,0.8203 4.2003,1.7538 1.7602,0.9336 4.3256,1.6974 5.7008,1.6974 4.0598,0 12.5989,2.0895 12.5989,3.0829 0,1.7319 -13.5381,0.2039 -23.75,-2.6806 -2.7875,-0.7874 -2.907,0.6932 -0.25,3.0977 1.1,0.9955 2,2.4196 2,3.1648 0,0.7451 0.877,2.1056 1.9488,3.0234 1.0718,0.9177 1.7208,2.0374 1.4422,2.4881 -0.4389,0.7102 2.1861,6.4008 3.609,7.8237 0.275,0.275 1.9625,3.2877 3.75,6.6948 3.2608,6.2155 4.0374,9.3052 2.3389,9.3052 -1.4054,0 -5.8543,-5.6754 -7.6806,-9.7981 -4.5379,-10.244 -5.8779,-12.2011 -8.4066,-12.278 -3.1839,-0.097 -7.3066,-1.7136 -13.0017,-5.0987 -2.475,-1.4711 -7.4069,-3.6452 -10.9598,-4.8313 -3.5529,-1.1861 -7.7786,-3.0956 -9.3905,-4.2433 -2.8423,-2.0239 -2.9717,-2.0308 -4.2902,-0.2276 -2.388,3.2658 -1.4124,4.8559 4.7527,7.7465 1.9868,0.9315 4.1794,2.3769 4.8725,3.212 0.6931,0.8352 2.1051,1.5185 3.1377,1.5185 1.0327,0 1.8776,0.675 1.8776,1.5 0,0.825 -0.2203,1.5 -0.4895,1.5 -1.6057,0 -14.6543,-5.8351 -18.0105,-8.0539 -6.8964,-4.5594 -15.414,-8.2095 -19.9492,-8.549 -5.2733,-0.3948 -5.7422,0.056 -11.4903,11.0407 -3.596,6.8724 -2.0242,21.694 3.1012,29.2424 1.561,2.2991 2.8383,4.6841 2.8383,5.3001 0,1.1851 12.3854,13.522 15.0913,15.0321 4.0732,2.2732 10.3252,3.7414 13.8939,3.2628 5.5219,-0.7407 8.7451,0.332 10.3815,3.4551 1.1896,2.2706 2.5182,2.9211 8.2752,4.0522 8.2498,1.6208 18.4086,2.7553 35.9995,4.0202 7.2278,0.5198 13.6606,1.2659 14.2952,1.6581 0.6345,0.3922 14.0709,0.9118 29.8586,1.1548 36.5038,0.5616 37.6127,0.5443 44.2048,-0.6926 3.025,-0.5676 13.825,-1.2294 24,-1.4707 10.175,-0.2413 21.0505,-0.9454 24.1678,-1.5647 5.4596,-1.0846 26.9994,-0.9619 66.8322,0.381 13.7527,0.4636 21.3805,0.06 35.538,-1.8824 2.2209,-0.3046 6.4959,-0.049 9.5,0.5682 3.0041,0.6172 6.362,1.2901 7.462,1.4955 1.1,0.2053 4.25,0.9081 7,1.5618 2.75,0.6536 7.475,1.5292 10.5,1.9457 7.8915,1.0865 26.8873,4.8645 31,6.1655 4.4124,1.3957 9.0825,5.7428 14.1989,13.217 l 3.9977,5.8399 4.6517,-0.5184 c 2.5584,-0.285 6.2267,-0.8367 8.1517,-1.2258 l 3.5,-0.7075 -1.905,2.1359 c -1.0477,1.1748 -2.4621,2.136 -3.143,2.136 -1.6813,0 -2.4448,2.3106 -1.7028,5.1535 0.8898,3.4093 2.7048,4.8465 6.1204,4.8465 1.6568,0 3.2905,0.45 3.6304,1 0.3399,0.55 1.4976,1 2.5726,1 1.075,0 2.7359,0.3908 3.691,0.8684 2.8644,1.4325 11.4255,4.307 16.4007,5.5068 2.5654,0.6186 4.5904,1.5748 4.5,2.1248 -0.2884,1.7554 -12.699,0.5301 -17.3468,-1.7126 -1.2004,-0.5792 -2.9153,-0.772 -3.8108,-0.4284 -1.4338,0.5503 -1.5478,2.0877 -0.9546,12.8829 1.0531,19.1673 0.7665,18.4729 9.4776,22.9672 4.1087,2.1198 7.6203,4.29 7.8036,4.8226 0.1834,0.5325 0.7749,0.9683 1.3144,0.9683 0.5396,0 3.1998,1.9111 5.9115,4.2469 4.1846,3.6045 5.3849,5.5032 7.9356,12.5523 4.6069,12.7319 3.7497,21.5087 -1.3168,13.4827 -1.3165,-2.0855 -3.5827,-4.4281 -5.0358,-5.2058 -1.4532,-0.7777 -2.6422,-1.812 -2.6422,-2.2984 0,-1.7224 -10.9832,-14.449 -13.4328,-15.5651 -1.3676,-0.6232 -4.7548,-1.4339 -7.5269,-1.8016 -6.0744,-0.8058 -6.6624,0.6608 -2.0403,5.089 1.65,1.5808 3.0028,3.3525 3.0063,3.9371 0,0.5846 1.2823,1.7886 2.8418,2.6756 2.1016,1.1953 3.4514,3.3575 5.2155,8.3546 1.9443,5.5074 3.1177,7.2498 6.4083,9.5155 4.9387,3.4006 12.5281,10.4663 12.5281,11.6637 0,0.4836 0.9751,1.3235 2.167,1.8664 2.6907,1.2257 9.2976,13.4225 7.983,14.7371 -0.5734,0.5734 -2.0781,-0.7343 -3.9236,-3.41 -4.4904,-6.5101 -6.5475,-8.0278 -10.3829,-7.6603 -3.1014,0.2971 -3.3667,0.6034 -3.6634,4.2301 -0.2258,2.76 0.2889,4.7332 1.75,6.7095 1.1384,1.5399 2.0699,3.1764 2.0699,3.6368 0,1.4191 3.1371,5.1219 12.5,14.7542 9.0607,9.3215 16.5,17.7652 16.5,18.7278 0,1.7827 7.6831,12.7592 11.4719,16.3895 2.4904,2.3863 4.5281,4.9506 4.5281,5.6984 0,0.7477 -2.1068,2.4428 -4.6818,3.7668 -4.3196,2.221 -5.6889,2.3912 -17.7,2.2007 -8.1473,-0.1292 -13.5045,0.1972 -14.3182,0.8725 -0.734,0.6091 -1.3,3.1543 -1.3,5.8457 0,3.2008 -0.627,5.5411 -1.9088,7.124 -1.7023,2.1022 -2.6491,2.3369 -8.75,2.1689 -3.7627,-0.1036 -8.6412,-0.6345 -10.8412,-1.1797 -2.2,-0.5452 -6.925,-1.5468 -10.5,-2.2257 -3.575,-0.679 -8.4498,-2.0591 -10.8329,-3.0669 -2.3831,-1.0077 -5.4797,-1.8323 -6.8813,-1.8323 -4.013,0 -19.8745,-5.6498 -30.2858,-10.7876 -7.2445,-3.575 -11.8742,-6.829 -19.5,-13.7057 -5.5,-4.9596 -11.641,-10.24 -13.6466,-11.7341 -3.8325,-2.8551 -8.8534,-11.5939 -8.8534,-15.4092 0,-1.2341 -1.35,-4.8458 -3,-8.026 -1.65,-3.1803 -2.9872,-6.4697 -2.9716,-7.3098 0.016,-0.8402 1.7527,-3.4648 3.8603,-5.8324 4.3013,-4.832 6.74,-8.8998 5.8621,-9.7778 -0.3221,-0.322 -2.3885,-0.8274 -4.5921,-1.1229 -3.6585,-0.4908 -4.2866,-0.2184 -7.231,3.1351 -3.7091,4.2244 -7.7478,6.5704 -11.3111,6.5704 -1.7491,0 -3.6106,1.3873 -6.2997,4.695 -2.0993,2.5822 -6.9679,7.8697 -10.8191,11.75 -3.8512,3.8802 -7.8309,8.63 -8.8437,10.555 -2.8273,5.3739 -6.3105,9.3304 -7.5433,8.5685 -0.6846,-0.4231 -1.1108,-4.2281 -1.1108,-9.9161 0,-7.2552 0.4278,-10.0687 2,-13.1524 1.1,-2.1576 2,-4.4541 2,-5.1033 0,-0.6492 2.1352,-3.5553 4.7449,-6.4579 4.1382,-4.6027 4.7669,-5.8836 4.9163,-10.0174 0.094,-2.607 0.659,-5.6512 1.255,-6.7649 1.5218,-2.8435 1.3487,-6.1565 -0.3217,-6.1565 -1.3591,0 -9.5789,3.9244 -10.5945,5.0582 -0.275,0.307 -3.65,3.1856 -7.5,6.3969 -8.7032,7.2595 -9.3109,7.8946 -13.4387,14.0449 -1.8456,2.75 -4.4712,6.2088 -5.8345,7.6862 -1.3633,1.4774 -3.0123,3.7274 -3.6644,5 -1.3987,2.7296 -5.0881,2.7245 -7.8282,-0.011 -1.6875,-1.6845 -1.5053,-2.271 4.1068,-13.2191 7.6096,-14.8449 8.1644,-15.8243 11.3108,-19.9659 2.9157,-3.8379 4.834,-9.693 4.8426,-14.781 0.01,-3.2819 -2.0855,-7.0276 -7.0954,-12.7095 -1.4549,-1.65 -2.9139,-4.1498 -3.2422,-5.555 -1.501,-6.4239 -12.597,-17.9141 -17.3199,-17.9353 -2.2796,-0.01 -2.2828,-0.063 0.4811,7.9903 0.2831,0.825 0.594,4.3356 0.6909,7.8013 0.1573,5.6234 -0.09,6.5109 -2.3012,8.25 -3.4605,2.722 -4.6046,2.482 -8.9206,-1.8707 -2.0829,-2.1007 -7.1621,-5.55 -11.2871,-7.6651 -4.125,-2.1152 -9.3463,-5.3464 -11.603,-7.1806 -5.0244,-4.0839 -7.1604,-4.2408 -7.9615,-0.5849 -1.0203,4.6564 -1.3273,5.25 -2.7156,5.25 -0.7385,0 -2.2435,-0.8391 -3.3443,-1.8647 -5.271,-4.9106 -9.3756,-5.4247 -9.3756,-1.1743 0,2.9391 3.2118,7.039 5.5142,7.039 1.2404,0 5.4858,4.1656 5.4858,5.3825 0,0.4145 -1.307,-0.177 -2.9044,-1.3144 -1.5974,-1.1375 -3.1724,-2.0681 -3.5,-2.0681 -1.1342,0 -0.5903,6.6058 0.6544,7.9472 1.0278,1.1077 0.8945,1.2124 -0.75,0.5889 -3.1472,-1.1932 -4.7494,-1.1362 -5.2162,0.1855 -0.4375,1.2385 2.0564,3.8843 7.6391,8.1045 2.9391,2.2217 3.9987,4.1739 2.2657,4.1739 -0.4463,0 -1.8485,-0.9661 -3.116,-2.147 -3.4191,-3.1854 -10.9803,-8.8512 -11.8313,-8.8655 -0.4077,-0.01 -2.5593,-1.6943 -4.7813,-3.75 -2.222,-2.0556 -6.722,-5.0642 -10,-6.6857 -3.278,-1.6215 -7.76,-4.0625 -9.96,-5.4243 -6.8032,-4.2115 -21.4772,-9.2983 -33.5,-11.613 -4.675,-0.9001 -10.975,-2.2625 -14,-3.0277 -11.6957,-2.9585 -28.993,-3.9688 -29.7451,-1.7373 -0.2317,0.6872 0.4037,1.5532 1.4119,1.9246 1.0083,0.3713 2.1851,1.2572 2.6151,1.9687 0.8607,1.424 6.1249,4.04 9.1345,4.5393 1.7955,0.2978 8.298,8.119 8.5783,10.3179 0.07,0.55 1.9715,2.35 4.2252,4 4.574,3.3487 6.5972,6.0163 5.4404,7.1731 -0.423,0.4229 -1.1782,0.107 -1.6782,-0.7021 -0.5,-0.809 -1.2631,-1.5087 -1.6956,-1.5548 -2.3962,-0.2553 -6.1971,-2.651 -9.2327,-5.8193 -1.8954,-1.9783 -3.8125,-3.5969 -4.2602,-3.5969 -0.4478,0 -3.0754,-1.5894 -5.8392,-3.5321 -6.4796,-4.5543 -10.3739,-5.4211 -11.8622,-2.6402 -1.71,3.1952 -1.2867,8.0904 0.9742,11.2656 3.0212,4.2428 10.2808,8.9067 13.8638,8.9067 1.6884,0 3.0698,0.45 3.0698,1 0,1.9811 -8.0361,1.0004 -12.9783,-1.5838 -2.7178,-1.4211 -5.4127,-2.2926 -5.9886,-1.9366 -0.576,0.3559 -1.3368,-0.1074 -1.6907,-1.0296 -0.8035,-2.0938 -10.4802,-12.45 -11.6332,-12.45 -0.4669,0 -2.7773,-1.3268 -5.1344,-2.9485 -2.8152,-1.9369 -6.6511,-3.3654 -11.1802,-4.1636 -3.792,-0.6682 -8.6946,-2.062 -10.8946,-3.0972 -2.2,-1.0353 -6.9733,-2.2615 -10.6073,-2.725 -3.634,-0.4634 -7.459,-1.2809 -8.5,-1.8167 -3.3101,-1.7036 -17.0962,-2.5397 -45.8298,-2.7794 -25.1243,-0.2097 -28.4878,-0.044 -33.4066,1.6486 -3.0082,1.035 -7.4081,1.8818 -9.7777,1.8818 -3.259,0 -4.5643,0.4785 -5.3597,1.9647 -0.5784,1.0807 -2.8141,2.4929 -4.9683,3.1383 -3.4636,1.0377 -4.3361,0.9261 -7.5409,-0.9648 -2.9369,-1.7328 -5.2372,-2.1382 -12.1326,-2.1382 -4.6797,0 -9.4215,-0.4886 -10.5372,-1.0857 -1.6388,-0.8771 -2.4616,-0.6789 -4.282,1.0313 -1.2394,1.1644 -2.8819,3.3404 -3.6499,4.8357 -2.5901,5.0425 -6.9111,10.5358 -9.1668,11.6538 -2.4169,1.1979 -10.324,15.9722 -12.6138,23.5685 -1.4255,4.7291 -1.6899,5.4835 -4.7303,13.4964 -1.5344,4.044 -1.8971,7.6767 -1.8971,19 0,7.7 0.5543,16.9171 1.2319,20.4824 0.9992,5.2582 0.9865,6.7277 -0.067,7.7813 -1.0652,1.0651 -1.8717,0.1883 -4.4819,-4.8729 -1.7507,-3.3944 -3.183,-6.7896 -3.183,-7.5448 0,-0.7552 -0.3975,-2.1545 -0.8834,-3.1096 -3.1374,-6.1675 -3.4558,-7.9384 -3.5039,-19.4848 -0.033,-7.9218 0.3836,-13.0305 1.1787,-14.4555 0.6763,-1.2122 1.5117,-5.0372 1.8564,-8.5 0.3447,-3.4629 1.0148,-6.792 1.4891,-7.3981 1.0045,-1.2837 -0.8684,-7.398 -2.2661,-7.398 -0.5135,0 -1.1926,0.7875 -1.5093,1.75 -0.3166,0.9625 -1.1566,3.1 -1.8665,4.75 -0.71,1.65 -2.12,5.475 -3.1334,8.5 -1.8586,5.5486 -7.8082,15.4659 -10.7357,17.8955 -0.8714,0.7232 -2.186,2.5051 -2.9212,3.9597 -0.7352,1.4547 -1.8405,3.5448 -2.4562,4.6448 -0.6157,1.1 -4.2551,8.6028 -8.0876,16.6728 -3.8325,8.0701 -8.0914,15.6495 -9.4643,16.8431 -3.0429,2.6459 -5.0681,8.0701 -6.7144,17.9841 -1.5804,9.517 -1.7691,9.9685 -4.6186,11.0519 -1.9775,0.7518 -2.3627,1.5969 -2.358,5.1733 0.01,5.8092 1.4303,10.4937 4.8014,15.8093 3.0035,4.736 8.0571,7.884 16.193,10.0869 2.475,0.6701 5.4,2.0035 6.5,2.9632 1.1,0.9596 4.1375,2.0593 6.75,2.4436 2.6125,0.3844 4.75,1.0749 4.75,1.5345 0,0.4595 -1.4625,1.9499 -3.25,3.3119 -3.1573,2.4057 -3.4843,2.4464 -11.4583,1.4269 -8.1583,-1.0432 -8.228,-1.0329 -11.4485,1.677 -2.9173,2.4547 -3.7432,2.6598 -8.2848,2.0573 -4.9882,-0.6617 -11.1252,-4.2431 -12.2374,-7.1416 -0.2942,-0.7668 -1.0705,-1.3942 -1.7251,-1.3942 -1.9269,0 -8.0475,-7.134 -10.2954,-12 -5.3776,-11.6409 -9.1506,-33.3265 -7.3793,-42.4135 0.5454,-2.7976 1.5275,-8.0115 2.1826,-11.5865 0.655,-3.575 2.0246,-8.272 3.0436,-10.4378 1.9945,-4.2396 2.474,-9.5622 0.8613,-9.5622 -1.3556,0 -7.0087,6.0181 -7.0087,7.4612 0,0.6405 -1.35,2.458 -3,4.0388 l -3,2.8742 0,-3.1759 c 0,-2.2146 1.3444,-4.9438 4.4414,-9.0161 2.4428,-3.2121 5.1203,-6.4035 5.95,-7.0921 0.8297,-0.6886 2.4706,-3.2393 3.6465,-5.6683 1.1758,-2.4291 3.8179,-5.8802 5.8712,-7.6691 2.0533,-1.789 5.4572,-5.8773 7.5641,-9.0853 2.107,-3.2079 4.8874,-6.2342 6.1788,-6.7252 1.2914,-0.491 2.348,-1.2845 2.348,-1.7633 0,-0.4789 2.5875,-3.9864 5.75,-7.7944 9.519,-11.4622 9.0259,-10.3845 4.7512,-10.3845 -3.3527,0 -4.5925,0.8502 -11.8724,8.1419 -4.4709,4.478 -9.7803,9.239 -11.7989,10.5799 -3.1506,2.0931 -8.8299,9.047 -8.8299,10.8116 0,0.317 -1.8,3.227 -4,6.4666 -2.2,3.2396 -4,6.1834 -4,6.5417 0,0.3583 -1.8,2.6963 -4,5.1956 -2.2,2.4994 -4,5.2033 -4,6.0089 0,0.8055 -2.2015,6.0296 -4.8922,11.6092 -2.6907,5.5795 -5.118,11.7196 -5.3939,13.6446 -0.2759,1.925 -1.2191,5.975 -2.0959,9 -0.8769,3.025 -1.5996,7.0485 -1.6062,8.9412 -0.012,3.5657 3.317,25.3411 5.0185,32.8232 1.2135,5.3364 1.2502,10.2356 0.077,10.2356 -1.1254,0 -2.2589,-2.6437 -2.7474,-6.4083 -0.2076,-1.5995 -0.7522,-3.3995 -1.2103,-4 -1.4747,-1.9332 -4.418,-9.9611 -5.3499,-14.5917 -2.4902,-12.3749 -2.9551,-16.8293 -3.4508,-33.0614 -0.6103,-19.9894 -1.4309,-16.7591 10.209,-40.1886 4.157,-8.3676 5.8639,-12.75 4.966,-12.75 -1.8276,0 -9.5527,5.9914 -10.929,8.4763 -0.6021,1.0869 -2.7821,4.5497 -4.8446,7.6951 -2.0625,3.1454 -3.75,6.2034 -3.75,6.7957 0,1.0385 -3.8218,9.253 -8.1487,17.5148 -1.7542,3.3494 -1.908,4.4724 -0.9684,7.071 1.6982,4.6961 1.3425,10.7553 -0.9445,16.0907 -1.7935,4.184 -1.9857,6.1128 -1.4785,14.8329 1.2503,21.4956 0.9482,26.5047 -2.5345,42.0235 -0.6171,2.75 -1.464,6.6691 -1.882,8.7092 -0.418,2.0401 -1.5413,4.9017 -2.4963,6.3592 -1.1842,1.8073 -1.5724,3.8079 -1.2207,6.2908 1.2396,8.7526 3.1137,14.8216 5.31,17.1955 1.3,1.4051 2.3636,3.2873 2.3636,4.1826 0,2.31 -3.7768,3.2644 -5.8217,1.4711 -0.9231,-0.8095 -2.6509,-1.7677 -3.8396,-2.1293 -3.0395,-0.9247 -7.4847,-7.1078 -8.6077,-11.9729 -0.5212,-2.2584 -1.3238,-8.1562 -1.7835,-13.1062 -0.4597,-4.95 -1.2852,-11.7 -1.8345,-15 -0.5493,-3.3 -1.3039,-8.3339 -1.677,-11.1865 -0.5553,-4.246 -1.5631,-6.233 -5.5572,-10.9568 -2.6833,-3.1736 -4.8788,-6.357 -4.8788,-7.0743 0,-2.3574 -4.2661,-10.6572 -9.1758,-17.8517 -2.6533,-3.8882 -4.8242,-8.0507 -4.8242,-9.25 0,-3.6599 -1.7346,-2.4413 -3.6574,2.5693 -1.1629,3.0306 -1.8066,7.2839 -1.7782,11.75 0.043,6.7528 2.9022,29.4274 4.0983,32.5 0.7828,2.0112 1.5528,9 0.9915,9 -0.2452,0 -1.8184,-2.1391 -3.4962,-4.7537 -1.6777,-2.6145 -4.0407,-5.8166 -5.2512,-7.1159 -4.6771,-5.0203 -8.9068,-11.2318 -8.9068,-13.08 0,-1.0628 -0.45,-2.2105 -1,-2.5504 -0.55,-0.3399 -1,-2.6226 -1,-5.0726 0,-2.45 -0.4229,-5.2359 -0.9396,-6.191 -0.5168,-0.955 -1.1953,-2.9537 -1.5078,-4.4414 -0.3125,-1.4878 -2.0504,-3.8356 -3.8619,-5.2173 -3.0139,-2.2988 -3.6294,-2.4145 -7.2423,-1.3612 -4.6145,1.3452 -12.5931,6.8067 -14.6599,10.0349 -2.4002,3.7491 -4.0712,11.4553 -3.5838,16.5278 0.3103,3.2289 1.6122,6.5773 3.9884,10.2573 3.7916,5.8722 4.8977,7.0968 15.186,16.8122 3.6977,3.4917 7.8199,8.006 9.1604,10.0317 1.3459,2.0338 5.0172,5.1905 8.1989,7.0497 13.5901,7.9411 23.0869,14.7804 27.7595,19.9914 8.2957,9.2517 13.4538,14.0785 15.0446,14.0785 1.9064,0 15.0923,6.6002 15.9463,7.9819 0.3506,0.5674 5.4947,3.443 11.4312,6.3904 14.2897,7.0944 21.922,12.3944 31.58,21.9296 5.3007,5.2334 9.8557,8.7302 13.5,10.3636 3.025,1.3559 7.3,3.2906 9.5,4.2992 5.6856,2.6067 14.0966,4.4516 20.5,4.4966 7.047,0.05 8.1262,1.8761 1.5,2.5387 -8.1583,0.8158 -7.4842,2.9569 4.7727,15.1587 5.7133,5.6877 11.6753,12.1413 13.2487,14.3413 1.5735,2.2 4.0693,5.35 5.5463,7 1.477,1.65 4.3707,5.475 6.4304,8.5 4.8425,7.112 9.5692,12.0785 16.9848,17.8464 6.5932,5.1283 10.0279,7.1536 12.1314,7.1536 0.7621,0 1.3857,0.378 1.3857,0.8399 0,0.462 1.9125,1.4644 4.25,2.2276 8.0906,2.6416 13.274,5.7839 18.7158,11.3459 3.956,4.0434 4.966,5.5866 3.6564,5.5866 -0.9952,0 -2.0448,-0.9 -2.3325,-2 -0.2876,-1.1 -0.8586,-2 -1.2689,-2 -0.4102,0 -2.4446,-1.35 -4.5208,-3 -3.7528,-2.9823 -9.3753,-4.0024 -12.1915,-2.2119 -1.6703,1.062 2.0374,9.2119 4.1909,9.2119 0.8784,0 3.46,0.9 5.7367,2 2.2767,1.1 4.7481,2 5.4919,2 0.7438,0 3.9218,2.7484 7.0622,6.1075 3.1404,3.3591 7.4139,7.2002 9.4966,8.5358 2.0828,1.3356 3.5531,2.8067 3.2673,3.2691 -1.2438,2.0125 2.7941,11.6107 6.5255,15.5117 2.1504,2.248 3.9036,5.0849 3.9096,6.3259 0.01,1.2375 0.5733,2.26 1.2608,2.2722 2.1266,0.038 6.0815,3.6324 5.3315,4.8458 -1.3752,2.2253 -9.4906,-4.8509 -16.8146,-14.6615 -3.9855,-5.3386 -7.1529,-10.0008 -7.0386,-10.3606 0.1142,-0.3597 -0.4529,-1.2023 -1.2603,-1.8724 -0.8074,-0.6701 -1.4756,-1.7258 -1.4849,-2.3459 -0.042,-2.8178 -11.1231,-11.6276 -14.6253,-11.6276 -2.9501,0 0.6755,25.3128 4.655,32.5 6.5723,11.87 9.7425,23.2971 6.9432,25.0272 -1.2228,0.7557 -5.8821,-2.0637 -7.7627,-4.6973 -1.9434,-2.7214 -4.5305,-2.2219 -6.5952,1.2733 -1.4979,2.5357 -1.7061,4.2254 -1.1388,9.2401 0.3819,3.3753 1.0467,6.5914 1.4774,7.1468 0.4308,0.5554 2.7218,4.6099 5.0912,9.0099 2.3694,4.4 5.2449,8.6624 6.39,9.472 1.1452,0.8096 3.9324,3.1721 6.1939,5.25 2.2615,2.0779 4.5543,3.778 5.095,3.778 0.5408,0 1.7977,0.9 2.7932,2 0.9955,1.1 2.4482,2 3.2283,2 0.8113,0 1.2754,0.7489 1.0844,1.75 -0.49,2.5675 -7.219,4.0588 -9.5441,2.1152 -2.6771,-2.2379 -7.0201,-3.8652 -10.3157,-3.8652 -1.6241,0 -2.9529,-0.3518 -2.9529,-0.7817 0,-0.4299 -2.0299,-1.381 -4.5108,-2.1135 -7.2518,-2.1412 -7.8876,-1.0472 -7.1956,12.3813 0.6448,12.51 1.7995,18.834 5.3723,29.4219 2.7052,8.0167 10.214,20.312 13.866,22.7049 1.429,0.9363 2.4684,2.854 2.8111,5.1864 0.299,2.0354 0.8459,5.1673 1.2152,6.9599 0.7959,3.8634 -0.7679,6.2408 -4.1051,6.2408 -1.2661,0 -5.6735,-1.35 -9.7942,-3 -8.1674,-3.2704 -11.8148,-3.722 -13.5151,-1.6734 -1.193,1.4376 -0.5902,4.0066 3.0912,13.1734 4.6685,11.6247 2.7853,15.394 -6.235,12.4795 z M 381.4293,2001.5555 c 1.4137,-2.0832 2.5704,-4.1804 2.5704,-4.6604 0,-0.48 0.9199,-3.0187 2.0442,-5.6417 1.7578,-4.1006 1.8708,-5.1984 0.8068,-7.8329 -0.6806,-1.6851 -1.713,-3.3945 -2.2942,-3.7986 -1.9546,-1.3589 -4.5564,-0.7989 -4.575,0.9847 -0.01,0.9625 -1.36,3.7302 -3,6.1505 -2.5569,3.7734 -2.984,5.3408 -2.9971,11 -0.01,3.6297 -0.4287,7.253 -0.934,8.0518 -0.5053,0.7987 -0.6847,1.8309 -0.3987,2.2937 0.8505,1.376 6.0149,-2.476 8.7776,-6.5471 z m 501.5704,-40.2978 c 0,-1.2514 -3.2595,-7.4011 -3.9228,-7.4011 -0.3822,0 -1.5684,0.6387 -2.6361,1.4194 -1.9016,1.3905 -1.8918,1.4719 0.4832,4 2.1527,2.2914 6.0757,3.571 6.0757,1.9817 z m 101,-119.9725 c 0,-1.5913 -8.1757,-7.4286 -10.4044,-7.4286 -0.8776,0 -1.5956,-0.45 -1.5956,-1 0,-0.55 -2.5131,-1 -5.5848,-1 l -5.5847,0 2.8315,3 c 1.5573,1.65 3.476,3 4.2637,3 1.6967,0 7.9428,1.8992 10.0743,3.0632 1.7369,0.9485 6,1.2081 6,0.3654 z m -64.5,-237.5156 c 2.2,-0.5715 6.025,-1.5205 8.5,-2.1087 2.5459,-0.6051 6.8884,-2.9227 10,-5.3369 3.025,-2.347 7.8965,-5.5022 10.8255,-7.0116 6.0555,-3.1206 5.523,-4.4384 -1.8255,-4.518 -2.475,-0.027 -5.85,-0.069 -7.5,-0.094 -1.65,-0.025 -5.925,0.4733 -9.5,1.1066 -3.575,0.6333 -9.9875,1.4011 -14.25,1.7062 -7.1564,0.5123 -7.75,0.7237 -7.75,2.7603 0,1.2131 -0.9,3.1716 -2,4.3523 -2.6242,2.8168 -2.5466,3.3618 1.0087,7.0821 3.2629,3.4143 5.722,3.8201 12.4913,2.0613 z m -430.1559,690.5792 c -0.6358,-1.3707 -0.9104,-2.4922 -0.6103,-2.4922 0.7041,0 3.1928,3.2702 3.2344,4.25 0.07,1.6605 -1.5385,0.5827 -2.6241,-1.7578 z m 498.0726,-704.4089 c -1.4736,-1.4736 0.4531,-2.0833 6.5833,-2.0833 4,0 7,0.4286 7,1 0,0.55 -0.675,1.0563 -1.5,1.125 -4.1997,0.35 -11.7176,0.3241 -12.0833,-0.042 z"
     id="path2991"
     inkscape:connector-curvature="0" />
</svg>
