<?xml version="1.0" encoding="UTF-8" standalone="no"?>
<!-- Created with Inkscape (http://www.inkscape.org/) -->

<svg
   xmlns:dc="http://purl.org/dc/elements/1.1/"
   xmlns:cc="http://creativecommons.org/ns#"
   xmlns:rdf="http://www.w3.org/1999/02/22-rdf-syntax-ns#"
   xmlns:svg="http://www.w3.org/2000/svg"
   xmlns="http://www.w3.org/2000/svg"
   xmlns:sodipodi="http://sodipodi.sourceforge.net/DTD/sodipodi-0.dtd"
   xmlns:inkscape="http://www.inkscape.org/namespaces/inkscape"
   id="svg2"
   version="1.1"
   inkscape:version="0.48.2 r9819"
   width="908.48108"
   height="939.88092"
   sodipodi:docname="Seal_PSF_S-820006c.png">
  <metadata
     id="metadata8">
    <rdf:RDF>
      <cc:Work
         rdf:about="">
        <dc:format>image/svg+xml</dc:format>
        <dc:type
           rdf:resource="http://purl.org/dc/dcmitype/StillImage" />
        <dc:title></dc:title>
      </cc:Work>
    </rdf:RDF>
  </metadata>
  <defs
     id="defs6" />
  <sodipodi:namedview
     pagecolor="#ffffff"
     bordercolor="#666666"
     borderopacity="1"
     objecttolerance="10"
     gridtolerance="10"
     guidetolerance="10"
     inkscape:pageopacity="0"
     inkscape:pageshadow="2"
     inkscape:window-width="1920"
     inkscape:window-height="1176"
     id="namedview4"
     showgrid="false"
     fit-margin-top="0"
     fit-margin-left="0"
     fit-margin-right="0"
     fit-margin-bottom="0"
     inkscape:zoom="1"
     inkscape:cx="484.19878"
     inkscape:cy="512.82708"
     inkscape:window-x="0"
     inkscape:window-y="24"
     inkscape:window-maximized="1"
     inkscape:current-layer="svg2" />
  <path
     style="fill:#000000"
     d="m 351.74975,939.11956 c -10.9768,-3.339 -15.2524,-9.4836 -16.3975,-23.5657 -0.5348,-6.5767 -0.3046,-8.9357 1.294,-13.2596 2.2233,-6.0135 15.8605,-25.9361 20.6049,-30.10175 1.7457,-1.53276 3.0633,-3.541 2.928,-4.46275 -0.1758,-1.19812 0.4891,-1.6759 2.3323,-1.6759 3.7616,0 2.2309,-0.93236 -4.3537,-2.65183 -3.1859,-0.83196 -7.8421,-2.53765 -10.347,-3.79042 -2.505,-1.25276 -5.1321,-2.07321 -5.8381,-1.82321 -0.706,0.25 -1.831,0.004 -2.5,-0.54641 -0.669,-0.55053 -3.4664,-1.32484 -6.2164,-1.72069 -2.75,-0.39585 -5.45,-1.05964 -6,-1.47508 -0.55,-0.41544 -2.575,-0.98996 -4.5,-1.27669 -4.4067,-0.6564 -21.5884,-4.87507 -38.5,-9.45301 -7.15,-1.93549 -14.8,-3.87069 -17,-4.30044 -2.2,-0.42976 -6.25,-1.51158 -9,-2.40407 -2.75,-0.89248 -12.425,-3.22154 -21.5,-5.17569 -9.075,-1.95415 -17.0864,-4.0396 -17.8032,-4.63434 -0.7168,-0.59474 -3.1918,-1.40515 -5.5,-1.80091 -2.3082,-0.39576 -7.7417,-1.49056 -12.0742,-2.43289 -4.3326,-0.94234 -9.22374,-1.44409 -10.86915,-1.11501 -1.64542,0.32908 -5.07556,-0.0619 -7.62256,-0.86892 -7.1788,-2.27454 -22.79382,-4.77215 -25.15336,-4.02326 -1.31191,0.41639 -2.76101,0.0998 -3.79919,-0.83004 -2.84451,-2.54765 -17.78155,-7.39848 -39.17834,-12.72326 -1.925,-0.47905 -6.84372,-1.766 -10.93048,-2.85989 -4.08677,-1.09389 -7.76898,-1.77968 -8.1827,-1.52399 -0.88255,0.54545 -18.83535,-5.28235 -20.48176,-6.64874 -0.61751,-0.51249 -3.59654,-1.78291 -6.62006,-2.82315 -9.40726,-3.23658 -20.70924,-11.53403 -28.08767,-20.62081 -5.82935,-7.17905 -8.89022,-12.81101 -8.09244,-14.89 0.32259,-0.84065 -0.35041,-2.71957 -1.49556,-4.17539 -1.14514,-1.45581 -1.84617,-3.02865 -1.55783,-3.49519 0.28834,-0.46655 -0.15246,-3.22615 -0.97955,-6.13247 -0.82709,-2.90631 -1.72275,-6.56811 -1.99036,-8.13733 -0.26956,-1.58072 -2.68834,-5.18121 -5.42364,-8.07338 -2.7154,-2.87113 -5.93756,-7.21222 -7.16037,-9.64686 -1.22281,-2.43465 -3.0251,-5.32663 -4.0051105,-6.42663 -0.98001,-1.1 -2.62781,-3.575 -3.66178,-5.5 -1.03398,-1.925 -2.63318,-4.625 -3.55379,-6 -0.92061,-1.375 -1.95413999,-5.425 -2.29672999,-9 -0.92001,-9.60065 0.97999999,-30.47296 3.36812999,-37 1.10679,-3.025 1.99239,-7.75 1.968,-10.5 -0.10664,-12.02423 19.2960105,-64.28584 26.1738405,-70.5 1.52184,-1.375 5.00092,-7.225 7.73128,-13 4.40922,-9.32597 19.28741,-33.42244 28.45688,-46.08829 1.82693,-2.52356 10.2967,-11.87898 18.8217,-20.78984 10.97148,-11.46807 18.42163,-18.27506 25.5,-23.29865 5.5,-3.9034 11.125,-8.0779 12.5,-9.27667 1.375,-1.19876 6.325,-3.4565 11,-5.01719 4.675,-1.56069 9.71515,-3.44326 11.20034,-4.18349 1.48519,-0.74023 4.41019,-1.35373 6.5,-1.36333 2.08981,-0.01 7.84966,-0.68289 12.79966,-1.49619 4.95,-0.81331 12.6,-1.47746 17,-1.47591 4.4,0.002 12.05,-0.73371 17,-1.63392 9.09,-1.65313 28.3108,-7.55872 32,-9.83203 1.1,-0.67782 5.825,-2.91397 10.5,-4.96923 4.675,-2.05526 12.4013,-5.72178 17.1696,-8.14782 4.8843,-2.48503 21.2407,-8.56612 37.4612,-13.92747 36.0382,-11.91172 60.6743,-18.15941 96.8692,-24.56589 9.35,-1.65494 18.35,-3.41394 20,-3.90889 1.65,-0.49494 6.825,-1.65199 11.5,-2.57123 4.675,-0.91923 9.2247,-2.05464 10.1104,-2.52313 0.8858,-0.4685 5.3296,-6.15709 9.8752,-12.64132 4.5457,-6.48423 9.5667,-13.58951 11.1579,-15.78951 1.5912,-2.2 4.8663,-7.825 7.278,-12.5 2.4117,-4.675 5.7033,-9.74976 7.3148,-11.27725 l 2.93,-2.77725 -1.8322,-8.22275 c -4.9759,-22.33097 2.7199,-61.73164 19.2557,-98.58422 5.9407,-13.23999 10.6322,-21.29511 13.309,-22.85145 0.7446,-0.43289 2.2745,-2.82323 3.3999,-5.31186 1.1253,-2.48863 2.981,-5.37087 4.1237,-6.40499 1.1427,-1.03411 2.0797,-2.37296 2.0822,-2.97522 0,-0.60225 2.9724,-6.27001 6.5997,-12.59501 3.6272,-6.325 7.8174,-13.65897 9.3115,-16.29771 2.3443,-4.14033 7.5413,-11.0072 18.1819,-24.02437 6.1369,-7.50745 10.2461,-14.43203 16.2516,-27.385737 3.5168,-7.5857 6.6586,-14.91718 6.9819,-16.29218 1.2639,-5.37624 13.9142,-22.24872 24.4811,-32.65186 11.8873,-11.703 21.4594,-18.32071 39.287,-27.16109 17.7596,-8.8066395 29.6007,-12.7558495 42.9007,-14.30805952 11.251,-1.31309 67.5471,-1.21307 73.5431,0.13066002 2.5636,0.57452 6.0196,1.74709 7.68,2.60571 2.3972,1.23964 3.8692,1.35203 7.1479,0.54578 2.271,-0.55844 9.304,-1.76672 15.629,-2.68505 10.093,-1.46542002 14.0081,-1.52784002 32,-0.51021 11.275,0.63772 21.175,1.41443 22,1.72603 0.825,0.31161 3.3,0.48835 5.5,0.39277 3.235,-0.14054 4.9577,0.55195 9.0074,3.62077 7.2565,5.4988395 9.7149,8.1635995 12.2335,13.2600195 2.8091,5.68457 2.7868,7.13538 -0.2224,14.4552 -2.2756,5.53533 -2.3228,6.00719 -0.7262,7.25019 4.6656,3.63234 9.1864,5.96883 14.1911,7.33442 4.8123,1.31311 5.5166,1.82376 5.5166,4 0,2.10524 -0.4684,2.49472 -3,2.49472 -3.8107,0 -5.4535,-0.7443 -13.8517,-6.27588 -5.432,-3.57783 -7.0293,-4.22575 -7.7084,-3.12685 -1.4073,2.27696 0.045,6.21904 3.4044,9.24365 9.8475,8.86518 20.2109,13.05558 26.6966,10.79466 2.4496,-0.85394 3.6022,-0.84678 4.6573,0.0289 2.6752,2.22018 -1.0498,4.23347 -8.6245,4.66149 -7.9521,0.44933 -13.9822,-1.7615 -22.3712,-8.20209 -5.2152,-4.00393 -6.7123,-3.96248 -6.6845,0.18511 0.04,5.94098 12.9367,13.22115 24.7794,13.98772 6.0418,0.39108 7.2406,0.75032 6.9673,2.08781 -0.2765,1.35297 -1.674,1.579 -8.6011,1.39108 -8.5583,-0.23215 -14.6521,-2.36836 -20.9998,-7.36143 -1.9416,-1.52728 -2.7054,-1.717 -2.963,-0.73596 -0.1909,0.72697 -0.8533,2.35877 -1.472,3.62622 -0.9831,2.01373 -0.7531,2.61616 1.8231,4.77527 5.707,4.78306 14.3568,10.42027 15.9889,10.42027 0.9077,0 2.9763,0.94406 4.5967,2.0979 2.0019,1.42547 3.7412,1.89839 5.4263,1.47544 1.7704,-0.44434 2.6586,-0.15732 3.1039,1.00302 0.9602,2.50241 -1.6627,3.56421 -7.1567,2.89712 -5.4491,-0.66164 -8.5141,-2.25545 -18.8518,-9.80302 -7.4433,-5.4343 -8.0152,-5.36284 -9.2705,1.15828 -0.5624,2.92123 -0.1663,3.8203 3.2352,7.34413 2.1319,2.20847 4.7761,4.394577 5.8761,4.858027 10.7246,4.51847 18.0393,8.08697 18.3233,8.93909 0.1893,0.56787 -0.706,1.45341 -1.9895,1.96787 -2.1044,0.84343 -1.9773,0.9416 1.2938,0.99875 3.8758,0.0677 6.892,2.31523 4.823,3.59392 -1.7946,1.10916 -15.0264,-0.51837 -18.4008,-2.26332 -1.6709,-0.8641 -6.3176,-3.82832 -10.326,-6.58715 -7.7172,-5.31164 -8.745,-5.32403 -9.7862,-0.11799 -0.564,2.82014 -0.1315,3.33487 7.2312,8.60457 10.3325,7.39524 17.7455,11.86844 22.1993,13.39552 1.9975,0.68491 3.7904,2.03108 3.9841,2.9915 0.3073,1.52373 -0.2198,1.66781 -4.137,1.13088 -4.7546,-0.65168 -13.4913,-5.58381 -24.5902,-13.8818 -3.5063,-2.62143 -6.7688,-4.52289 -7.25,-4.22547 -1.0668,0.65931 -1.1727,4.41723 -0.125,4.43658 0.4125,0.008 3.675,2.50181 7.25,5.54264 6.1733,5.25088 9.2417,6.66336 19.3164,8.89195 1.9643,0.4345 2.7124,1.14173 2.4726,2.33729 -1.0134,5.05165 -20.5998,-2.57767 -31.8767,-12.41668 -1.3662,-1.192 -1.8196,-1.129 -3.25,0.4516 -0.9143,1.01026 -1.6623,2.07252 -1.6623,2.36057 0,1.62942 12.0282,9.62198 15.4251,10.24973 5.9847,1.106 11.5749,3.62173 11.5749,5.20901 0,2.24149 -2.5454,2.64648 -5.8601,0.93239 -1.6723,-0.86476 -4.0223,-1.57232 -5.2222,-1.57232 -2.6422,0 -7.8088,-2.98771 -14.0864,-8.14581 l -4.6687,-3.83614 -2.5813,3.0677 c -2.8471,3.38361 -3.3481,5.91425 -1.1709,5.91425 0.7757,0 3.3238,3.0375 5.6624,6.75 2.3387,3.7125 6.3795,9.225 8.9796,12.25 11.3364,13.18905 26.9255,40.5476 28.8845,50.6918 4.5411,23.51535 5.4961,36.2464 5.6115,74.8082 0.089,29.62068 -1.201,49.26765 -4.0369,61.5 -0.8288,3.575 -1.9634,9.3644 -2.5215,12.86534 -0.558,3.50094 -1.2391,6.72863 -1.5135,7.17266 -0.2744,0.44402 -0.9385,3.12534 -1.4758,5.95849 -0.5373,2.83314 -1.6289,6.58044 -2.4257,8.32734 -0.7969,1.74689 -2.006,5.20117 -2.687,7.67617 -0.681,2.475 -1.5773,4.95745 -1.9918,5.51656 -0.4145,0.5591 -1.9481,4.6091 -3.4081,9 -1.46,4.39089 -3.4557,9.78344 -4.4349,11.98344 -0.9792,2.2 -3.9528,10.75 -6.608,19 -2.6552,8.25 -6.0912,17.7 -7.6356,21 -2.207,4.7157 -2.8082,7.44484 -2.8088,12.75 -4e-4,3.7125 -0.3881,6.75 -0.8615,6.75 -0.4734,0 -1.1237,2.22047 -1.4451,4.93438 -0.5422,4.57753 -1.8303,8.11716 -6.7801,18.63134 -1.0528,2.23615 -1.9141,4.41685 -1.9141,4.84601 0,0.71569 -2.3808,5.95268 -10.0417,22.08827 -2.3193,4.88484 -3.0448,8.2623 -3.9035,18.17209 -0.5801,6.69465 -1.0548,15.03102 -1.0548,18.52527 0,3.49424 -1.125,12.76674 -2.5,20.60555 -1.375,7.83881 -2.5268,17.72744 -2.5596,21.97474 -0.064,8.35737 -0.676,12.17743 -4.0372,25.22235 -1.9641,7.62251 -2.8921,20.3444 -1.5798,21.65673 0.2779,0.27792 1.407,0.0227 2.5091,-0.56711 5.434,-2.90817 12.7913,-3.89849 21.6946,-2.92016 4.8725,0.53541 10.5555,1.55792 12.6288,2.27222 3.2196,1.10924 4.0884,1.07552 5.9538,-0.23108 1.2545,-0.87866 5.2365,-1.72572 9.3552,-1.99004 8.0661,-0.51765 12.8436,1.16762 14.6693,5.17461 l 1.0475,2.29897 6.1591,-2.53805 c 7.7735,-3.20328 18.8438,-3.29148 28.7168,-0.2288 8.4901,2.63369 11.4385,5.61482 10.5001,10.61667 -0.559,2.97992 -1.0437,3.56221 -2.6217,3.14954 -1.0648,-0.27844 -1.9373,-0.21089 -1.9389,0.15012 0,0.36101 -1.3503,1.55638 -2.9971,2.65638 -1.6468,1.1 -2.9955,2.52009 -2.9971,3.15576 -0.012,4.77111 -55.995,30.33945 -71.5029,32.65647 -11.6292,1.73751 -43.3701,0.94033 -54.7762,-1.37571 -6.3028,-1.27979 -13.4087,-1.95237 -20,-1.89303 -5.6231,0.0506 -12.0238,-0.0145 -14.2238,-0.14475 -2.2,-0.13024 -6.7,-0.10809 -10,0.0492 -6.7704,0.32277 -21.4749,-0.49318 -24.2016,-1.34294 -0.9891,-0.30826 -5.078,-1.0213 -9.0865,-1.58454 -6.7473,-0.94808 -7.5012,-0.86648 -10.1607,1.09981 -2.6721,1.9755 -6.3499,9.20349 -6.6434,13.05595 -0.07,0.92194 -1.6125,4.74694 -3.4274,8.5 -1.8148,3.75306 -3.3028,7.37412 -3.3067,8.04681 0,0.67268 -2.3714,3.70351 -5.2613,6.73518 -7.4117,7.7755 -12.0526,13.66395 -12.8697,16.32927 -0.3857,1.25813 -2.5781,3.46388 -4.872,4.90167 -2.2939,1.43779 -6.6457,4.49543 -9.6707,6.79476 -3.025,2.29933 -9.1999,6.79436 -13.7221,9.98897 -4.5221,3.19461 -8.0012,6.16576 -7.7313,6.60255 0.6802,1.1005 -4.584,4.82063 -14.0466,9.9265 -8.9819,4.84655 -13.6171,7.89958 -14.7997,9.74804 -0.4398,0.6875 -1.3972,1.25 -2.1276,1.25 -0.7303,0 -1.8611,0.64258 -2.5129,1.42796 -0.6518,0.78537 -3.5194,2.63828 -6.3724,4.11758 -2.8531,1.47929 -9.6874,5.71777 -15.1874,9.41885 -5.5,3.70107 -13.375,8.50008 -17.5,10.66445 -4.125,2.16438 -12,6.86444 -17.5,10.44459 -5.5,3.58015 -14.95,9.36488 -21,12.85495 -6.05,3.49008 -11.9,7.11304 -13,8.05103 -1.9859,1.69339 -6.0226,4.047 -18.5,10.78638 -3.575,1.93095 -6.95,3.92216 -7.5,4.4249 -0.55,0.50273 -1,3.70304 -1,7.11174 l 0,6.1976 -8.3738,0.2924 -8.3739,0.2925 -6.6261,5.5694 c -3.6444,3.0632 -7.6715,6.8694 -8.9491,8.4582 -1.2777,1.5887 -4.2166,3.9984 -6.531,5.3547 -2.3144,1.3564 -5.5128,3.828 -7.1076,5.4925 -1.5947,1.6646 -4.7308,3.9766 -6.969,5.1379 -2.2382,1.1613 -4.7445,2.7524 -5.5695,3.5359 -2.4284,2.3061 -10.4006,7.3285 -11.6642,7.3483 -0.6403,0.01 -5.1686,2.0773 -10.0628,4.5941 -7.1443,3.6738 -10.7591,4.8553 -18.3358,5.9929 -10.436,1.567 -11.3281,1.5967 -14.9437,0.4968 z m 50.5082,-160.0711 c 0.3501,-1.10296 1.8429,-3.43912 3.3174,-5.19146 1.4745,-1.75234 2.4559,-3.43741 2.1809,-3.7446 -0.275,-0.3072 1.0759,-1.32979 3.002,-2.27242 1.9261,-0.94264 5.688,-3.93317 8.3596,-6.64563 3.8218,-3.88012 5.0488,-5.95484 5.754,-9.72967 0.493,-2.63886 0.6372,-5.61427 0.3205,-6.61201 -0.8211,-2.58712 4.3187,-12.53213 8.5147,-16.47512 l 3.5492,-3.3352 -4.5,0.57682 c -2.475,0.31725 -6.6354,1.2283 -9.2454,2.02456 -2.61,0.79626 -7.11,1.38768 -10,1.31427 -5.7677,-0.1465 -12.2996,0.47512 -21.9522,2.08913 -3.4663,0.5796 -20.2959,1.48089 -37.3992,2.00286 -17.1032,0.52197 -31.7282,1.18011 -32.5,1.46253 -0.7717,0.28243 -9.5032,0.7275 -19.4032,0.98906 -9.9,0.26155 -20.5995,0.86912 -23.7767,1.35016 -5.9507,0.90096 -39.8084,1.81703 -52.2233,1.41297 -3.85,-0.12531 -16.9,-0.28139 -29,-0.34686 -17.68918,-0.0957 -23.06428,0.19987 -27.4315,1.50849 -2.98733,0.89513 -7.48733,1.67242 -10,1.72731 l -4.5685,0.0998 7,2.34982 c 3.85,1.2924 8.04208,2.37249 9.31574,2.40021 1.27366,0.0277 3.10775,0.47427 4.07575,0.99233 0.96801,0.51806 6.90092,1.15829 13.18426,1.42275 6.28335,0.26445 17.04925,1.42477 23.92425,2.57849 21.6062,3.62582 24.2123,3.98888 36.3758,5.06778 6.5318,0.57936 12.6068,1.43733 13.5,1.90661 0.8933,0.46928 4.5492,1.18548 8.1242,1.59156 3.575,0.40608 7.625,1.20391 9,1.77294 2.7694,1.1461 20.7919,3.24713 40,4.6631 13.0268,0.96031 23.5986,2.58332 40.5,6.21764 5.5,1.18267 11.0125,2.12746 12.25,2.09954 1.2375,-0.0279 2.25,0.30055 2.25,0.72995 0,0.42939 1.2375,1.01623 2.75,1.30408 1.5125,0.28785 6.125,1.42797 10.25,2.5336 10.0561,2.69535 13.6854,2.73656 14.5017,0.16463 z"
     id="path2987"
     inkscape:connector-curvature="0" />
</svg>
