<?xml version="1.0" encoding="UTF-8" standalone="no"?>
<!-- Created with Inkscape (http://www.inkscape.org/) -->

<svg
   xmlns:dc="http://purl.org/dc/elements/1.1/"
   xmlns:cc="http://creativecommons.org/ns#"
   xmlns:rdf="http://www.w3.org/1999/02/22-rdf-syntax-ns#"
   xmlns:svg="http://www.w3.org/2000/svg"
   xmlns="http://www.w3.org/2000/svg"
   xmlns:sodipodi="http://sodipodi.sourceforge.net/DTD/sodipodi-0.dtd"
   xmlns:inkscape="http://www.inkscape.org/namespaces/inkscape"
   id="svg2"
   version="1.1"
   inkscape:version="0.48.2 r9819"
   width="968.80005"
   height="1998.3181"
   sodipodi:docname="tobytylerortenwe00otis_0077bb3b3.png">
  <metadata
     id="metadata8">
    <rdf:RDF>
      <cc:Work
         rdf:about="">
        <dc:format>image/svg+xml</dc:format>
        <dc:type
           rdf:resource="http://purl.org/dc/dcmitype/StillImage" />
        <dc:title></dc:title>
      </cc:Work>
    </rdf:RDF>
  </metadata>
  <defs
     id="defs6" />
  <sodipodi:namedview
     pagecolor="#ffffff"
     bordercolor="#666666"
     borderopacity="1"
     objecttolerance="10"
     gridtolerance="10"
     guidetolerance="10"
     inkscape:pageopacity="0"
     inkscape:pageshadow="2"
     inkscape:window-width="1600"
     inkscape:window-height="876"
     id="namedview4"
     showgrid="false"
     fit-margin-top="0"
     fit-margin-left="0"
     fit-margin-right="0"
     fit-margin-bottom="0"
     inkscape:zoom="0.35355339"
     inkscape:cx="83.346781"
     inkscape:cy="1016.9739"
     inkscape:window-x="0"
     inkscape:window-y="24"
     inkscape:window-maximized="1"
     inkscape:current-layer="svg2" />
  <path
     style="fill:#000000"
     d="m 355.06328,1997.2452 c -1.21908,-0.4631 -4.07204,-0.6416 -6.33993,-0.3968 -2.27419,0.2456 -5.5771,-0.166 -7.36481,-0.9177 -1.78276,-0.7496 -5.14558,-1.3629 -7.47293,-1.3629 -4.08145,0 -9.88152,-2.1274 -11.07797,-4.0633 -0.31839,-0.5152 -1.60759,-0.9367 -2.86489,-0.9367 -1.2573,0 -3.10048,-0.9 -4.09597,-2 -0.99549,-1.1 -2.97773,-2.01 -4.40499,-2.0222 -4.29911,-0.037 -7.24012,-3.0783 -7.79441,-8.0605 -0.41679,-3.7464 0.0641,-5.4046 3.16575,-10.9173 4.01957,-7.1441 10.74058,-14.0553 16.17737,-16.6352 1.92833,-0.9151 4.19911,-2.7215 5.04618,-4.0143 0.84707,-1.2928 2.33416,-2.3505 3.30465,-2.3505 1.50231,0 9.00545,-7.8042 9.00545,-9.3668 0,-0.2916 1.125,-1.7441 2.5,-3.2277 1.375,-1.4837 2.5,-3.7303 2.5,-4.9925 0,-1.2622 0.46823,-2.5844 1.04052,-2.938 0.92465,-0.5715 4.68462,-5.8221 7.45948,-10.4168 0.55,-0.9107 2.38774,-3.4339 4.08386,-5.607 3.92193,-5.025 4.66444,-7.1187 3.37737,-9.5236 -0.92993,-1.7376 -2.20409,-1.9276 -12.92832,-1.9276 l -11.89672,0 -2.18564,-3.0694 c -1.20209,-1.6882 -3.16032,-3.4401 -4.3516,-3.893 -1.51559,-0.5762 -2.54834,-2.3154 -3.43937,-5.792 -1.37355,-5.3593 -1.55919,-5.5075 -11.65958,-9.3086 -3.3,-1.2419 -6.71043,-2.8607 -7.57874,-3.5975 -0.86831,-0.7367 -2.33691,-1.3395 -3.26357,-1.3395 -0.92666,0 -2.46622,-0.3948 -3.42126,-0.8772 -0.95504,-0.4825 -3.53643,-1.4123 -5.73643,-2.0661 -4.1663,-1.2383 -5.67231,-1.8161 -11.5,-4.4116 -3.67327,-1.6361 -11.89886,-9.5614 -13.89184,-13.3847 -2.13164,-4.0894 -6.19691,-5.265 -19.84245,-5.7381 -7.02114,-0.2434 -17.26571,-0.9335 -22.76571,-1.5335 -5.5,-0.6001 -15.61162,-1.3202 -22.47027,-1.6003 -7.2666,-0.2967 -13.05584,-0.9952 -13.87355,-1.6738 -1.29332,-1.0734 -4.362,-1.6141 -18.9788,-3.3444 -3.63599,-0.4304 -5.69271,-1.2226 -6.49055,-2.5002 -0.87362,-1.3989 -2.36047,-1.8701 -5.90054,-1.8701 -5.7416,0 -13.12738,-3.7428 -13.60584,-6.8948 -0.27351,-1.8019 -1.00788,-2.1052 -5.09636,-2.1052 -5.72522,0 -10.58502,-2.2065 -11.60098,-5.2673 -2.0755,-6.2528 -4.12889,-36.4869 -2.58305,-38.0328 0.60497,-0.6049 1.09994,-2.7833 1.09994,-4.8409 0,-2.0575 0.45,-4.0191 1,-4.359 0.55,-0.3399 1,-2.1399 1,-4 0,-1.8601 0.45,-3.6601 1,-4 0.55,-0.3399 1,-2.5614 1,-4.9366 0,-2.6187 0.5904,-4.8085 1.5,-5.5634 0.825,-0.6847 1.5,-2.5132 1.5,-4.0634 0,-1.5502 0.45,-3.0967 1,-3.4366 0.55,-0.3399 1,-2.3223 1,-4.4054 0,-2.083 0.72077,-5.2321 1.60171,-6.998 0.88094,-1.7659 1.37739,-4.0685 1.10323,-5.1169 -0.27416,-1.0484 0.0849,-2.3903 0.79789,-2.982 0.83761,-0.6952 1.11452,-2.4317 0.78249,-4.9072 -0.30573,-2.2793 -0.0625,-4.1102 0.6004,-4.5199 0.61285,-0.3787 1.11428,-2.1889 1.11428,-4.0226 0,-2.0411 0.58171,-3.5572 1.5,-3.9096 0.93483,-0.3588 1.5,-1.8839 1.5,-4.048 0,-1.9098 0.45,-3.7505 1,-4.0904 0.55,-0.3399 1,-2.1399 1,-4 0,-1.8601 0.40247,-3.6307 0.89437,-3.9347 0.4919,-0.304 1.12089,-2.2431 1.39775,-4.309 0.27686,-2.066 1.0307,-5.5563 1.67521,-7.7563 0.6445,-2.2 1.41766,-5.125 1.71814,-6.5 0.30047,-1.375 1.08523,-2.95 1.7439,-3.5 0.65867,-0.55 1.77454,-3.25 2.47971,-6 0.70517,-2.75 1.69255,-6.125 2.19418,-7.5 0.50163,-1.375 1.12546,-5.2 1.3863,-8.5 0.84623,-10.7059 2.1113,-17.919 3.84158,-21.9035 0.93231,-2.147 1.46811,-4.1306 1.19066,-4.408 -0.27745,-0.2775 -0.0304,-1.0757 0.54904,-1.7739 0.57942,-0.6981 1.19021,-5.4645 1.35732,-10.592 0.2952,-9.0579 0.71393,-11.4421 2.64484,-15.059 0.50985,-0.9551 0.927,-2.5577 0.927,-3.5615 0,-1.0037 0.9,-2.791 2,-3.9717 1.1,-1.1807 2,-2.9655 2,-3.9661 0,-1.0006 0.61631,-2.7069 1.36958,-3.7918 0.75327,-1.0849 1.60863,-3.5475 1.90081,-5.4725 0.29217,-1.925 1.25086,-6.6498 2.13042,-10.4996 0.87955,-3.8498 1.59919,-8.1473 1.59919,-9.55 0,-1.4027 0.40637,-2.9779 0.90305,-3.5004 0.49667,-0.5225 1.14261,-2.975 1.43541,-5.45 0.88261,-7.4605 1.80625,-10.8752 3.27032,-12.0903 0.76517,-0.635 1.39122,-2.755 1.39122,-4.7111 0,-3.2426 0.9988,-7.3985 3.05186,-12.6986 0.42611,-1.1 1.32613,-5.6 2.00006,-10 0.67392,-4.4 1.61294,-8.4275 2.0867,-8.95 0.47376,-0.5225 0.86138,-1.9299 0.86138,-3.1276 0,-1.1976 0.6346,-2.7042 1.41023,-3.3479 0.77563,-0.6437 1.64328,-3.5113 1.92811,-6.3724 0.28483,-2.8612 1.00121,-7.6771 1.59195,-10.7021 0.59074,-3.025 1.31865,-7.525 1.61758,-10 0.6465,-5.3528 2.47154,-12.1224 3.62601,-13.45 0.45437,-0.5225 0.82889,-2.7725 0.83228,-5 0.003,-2.2275 0.6605,-5.3045 1.46026,-6.8377 1.06979,-2.0509 1.48896,-6.8834 1.58601,-18.2848 0.12965,-15.2309 0.0874,-15.5554 -2.46026,-18.8955 -1.42569,-1.8692 -2.59217,-3.6536 -2.59217,-3.9653 0,-0.3117 -0.7875,-1.3985 -1.75,-2.4151 -0.9625,-1.0166 -3.775,-4.2457 -6.25,-7.1758 -2.475,-2.9301 -5.47148,-6.3527 -6.65885,-7.6059 -1.92016,-2.0266 -2.10414,-3.0852 -1.66397,-9.5742 0.46311,-6.8273 0.52274,-10.7065 0.3345,-21.761 -0.0858,-5.0396 0.80262,-10.0147 2.07109,-11.5978 0.46851,-0.5846 1.05346,-2.6096 1.29989,-4.5 0.24644,-1.8903 0.87434,-4.5596 1.39534,-5.9317 1.11778,-2.9439 0.36432,-5.5924 -4.4602,-15.678 -2.94673,-6.1601 -3.25324,-7.4577 -2.17099,-9.1907 1.11477,-1.785 0.87261,-2.3562 -2.09889,-4.9506 -2.56567,-2.2401 -3.1715,-3.376 -2.56501,-4.8093 1.26577,-2.9915 0.51368,-8.3268 -1.72707,-12.2518 -4.23431,-7.4171 -4.74366,-8.7008 -4.74968,-11.9704 -0.003,-1.8401 -0.82759,-4.5401 -1.83156,-6 -2.09969,-3.0532 -3.78405,-7.3029 -4.65828,-11.753 -0.3348,-1.7043 -2.14849,-4.591 -4.03041,-6.4151 -3.25702,-3.1568 -3.39721,-3.5809 -2.91313,-8.8126 0.27971,-3.023 0.70954,-5.8215 0.95518,-6.2189 0.24564,-0.3975 -0.86532,-1.2661 -2.46881,-1.9303 -3.64758,-1.5109 -5.57215,-6.1898 -5.15162,-12.5245 0.41432,-6.2412 0.0375,-8.0795 -1.9281,-9.4065 -1.14584,-0.7735 -2.78666,-3.0235 -3.64627,-5 -1.78541,-4.1051 -1.80018,-13.1689 -0.0233,-14.3215 0.79408,-0.5151 0.84818,-1.0216 0.16256,-1.522 -0.56518,-0.4125 -1.81294,-2.55 -2.77281,-4.75 -1.58423,-3.631 -1.61235,-4.507 -0.30484,-9.4969 0.79219,-3.0233 1.06699,-5.9483 0.61066,-6.5 -1.38128,-1.67 -2.74218,-16.7285 -1.86475,-20.6336 0.4515,-2.0095 1.02847,-6.3917 1.28215,-9.7383 0.25369,-3.3465 1.20106,-7.6436 2.10527,-9.5491 0.9042,-1.9055 1.38241,-4.2888 1.06267,-5.2962 -0.31974,-1.0074 0.0621,-4.907 0.84854,-8.6657 1.58746,-7.5873 1.117,-9.8701 -2.78132,-13.4958 -1.40482,-1.3066 -2.83719,-3.6639 -3.18303,-5.2385 -0.34585,-1.5746 -1.04419,-3.1197 -1.55188,-3.4334 -0.50768,-0.3138 -0.92306,-1.4551 -0.92306,-2.5363 0,-1.1925 -1.01411,-2.3513 -2.57835,-2.946 -2.22489,-0.8459 -2.48838,-1.3899 -1.92204,-3.9684 0.48664,-2.2157 0.11913,-3.671 -1.42166,-5.6298 -2.41176,-3.0661 -2.65016,-6.1096 -0.69708,-8.8995 6.3097,-9.0131 8.78145,-19.2972 6.44509,-26.8158 -0.53952,-1.7362 -1.12906,-12.3817 -1.3101,-23.6567 -0.34648,-21.57879 -0.70133,-25.18259 -3.33681,-33.88769 -1.16556,-3.85 -2.60042,-6.1334 -5.02713,-8 -1.86781,-1.4368 -6.60359,-5.3646 -10.52397,-8.7284 -3.92037,-3.3639 -8.55497,-6.8446 -10.29911,-7.7349 -1.74414,-0.8904 -4.19746,-3.0881 -5.45182,-4.8839 -1.25436,-1.7958 -2.57176,-3.4901 -2.92756,-3.7651 -0.35579,-0.275 -0.93319,-3.6557 -1.2831,-7.5127 -0.53252,-5.8698 -0.0984,-9.8045 1.69967,-15.4045 0.0737,-0.2295 -2.07316,-0.6023 -4.77075,-0.8284 -4.944469,-0.4144 -9.998899,-2.7923 -9.083509,-4.2734 0.27203,-0.4402 -0.39844,-2.8837 -1.48994,-5.4301 -1.10987,-2.5892 -1.87179,-6.3136 -1.72871,-8.4503 0.29096,-4.3452 4.21602,-10.9152 9.61889,-16.1006 6.837779,-6.5626 8.084789,-9.1203 8.119789,-16.6544 0.0206,-4.4277 0.55038,-7.5312 1.5,-8.7867 1.58509,-2.0957 1.87348,-9.4323 0.63125,-16.0589 -0.41241,-2.2 -0.43563,-5.8 -0.0516,-8 0.74385,-4.26119 -0.1873,-11.07769 -2.18565,-16 -0.66986,-1.65 -1.3311,-4.62069 -1.46941,-6.60153 -0.13832,-1.98084 -0.92004,-4.90584 -1.73717,-6.5 -0.81713,-1.59416 -3.395919,-11.22347 -5.730639,-21.39847 -2.33473,-10.175 -4.63208,-18.98985 -5.10523,-19.58855 -1.17599,-1.48804 -7.77641,-29.11285 -8.38324,-35.08647 -0.72584,-7.14508 -4.22682,-23.28946 -5.3446,-24.64601 -1.70197,-2.06553 -3.83909,-12.0463 -3.3909,-15.83614 0.89285,-7.54977 -5.20943,-11.82568 -16.89331,-11.83725 -5.40032,-0.005 -5.68432,-0.13744 -7,-3.25558 -0.75423,-1.7875 -1.28084,-5.70542 -1.17025,-8.70649 0.24041,-6.52385 -0.79412,-8.04351 -5.47569,-8.04351 -2.93084,0 -4.41236,-0.89077 -8.73179,-5.25 -4.4486,-4.48961 -5.29943,-5.97418 -5.87436,-10.25 -0.61013,-4.5375 -0.4414,-5.18625 1.82412,-7.01356 1.37305,-1.10746 2.62249,-3.10209 2.77655,-4.43252 0.25315,-2.18623 -0.24906,-2.52852 -5.2199,-3.55778 -6.96642,-1.44245 -9.58932,-3.11092 -11.62095,-7.39227 -1.51621,-3.19518 -1.49954,-3.71003 0.25941,-8.00927 1.34512,-3.28776 2.8042,-5.02125 5.12984,-6.0946 4.6821,-2.16094 4.09627,-5.38737 -1.05541,-5.81258 -3.27952,-0.27068 -4.18925,-0.94084 -6.78741,-5 -2.38438,-3.72516 -2.90643,-5.48015 -2.54308,-8.549 0.49077,-4.14493 4.12989,-8.77854 8.81794,-11.2277 3.10056,-1.6198 13.04188,-1.88664 15.7759,-0.42343 1.01462,0.543 5.7636,1.28851 10.5533,1.65667 8.61506,0.66221 8.69652,0.64695 7.58949,-1.42154 -1.43058,-2.67307 -1.44608,-8.49537 -0.0264,-9.91506 0.78806,-0.78806 0.78945,-1.65917 0.005,-3.12494 -0.59821,-1.11776 -1.05784,-3.07857 -1.0214,-4.35736 0.0364,-1.27878 -0.16997,-4.35006 -0.45867,-6.82506 -1.64387,-14.09233 -1.89497,-16.72791 -1.81023,-19 0.0513,-1.375 -0.37636,-3.98396 -0.95033,-5.79769 -0.57397,-1.81373 -1.17114,-4.28873 -1.32704,-5.5 -0.62362,-4.84514 -3.64854,-16.14026 -4.64356,-17.33919 -0.58222,-0.70153 -0.76632,-1.7484 -0.40911,-2.32638 0.35721,-0.57798 0.0347,-1.28676 -0.71661,-1.57508 -0.76411,-0.29322 -1.40977,-2.06562 -1.46523,-4.02221 -0.0545,-1.9239 -0.54136,-4.04733 -1.08183,-4.71873 -0.54047,-0.67139 -1.3116,-2.79572 -1.71362,-4.72072 -0.40202,-1.925 -1.05916,-3.95 -1.4603,-4.5 -0.40115,-0.55 -1.31901,-3.25 -2.0397,-6 -0.72069,-2.75 -1.64959,-5.45 -2.06422,-6 -0.41464,-0.55 -1.73027,-3.925 -2.92364,-7.5 -1.19336,-3.575 -2.58429,-6.9275 -3.09095,-7.45 -0.50665,-0.5225 -0.92119,-1.55969 -0.92119,-2.30487 0,-0.74518 -1.8,-4.00549 -4,-7.24513 -2.2,-3.23964 -3.99475,-6.25245 -3.98833,-6.69513 0.009,-0.64216 -6.04876,-13.60278 -9.9639798,-21.31691 -0.73748,-1.45304 -4.19377,-12.4254 -4.5637,-14.48796 -0.0987,-0.55 -0.28999,-1.225 -0.42519,-1.5 -0.13521,-0.275 -0.45423,-3.64272 -0.70893,-7.48382 -0.29315,-4.42084 -1.04534,-7.62718 -2.04963,-8.73691 -1.21254,-1.33984 -1.56044,-3.79152 -1.47585,-10.40038 0.0609,-4.75601 0.30916,-8.84577 0.55175,-9.08836 0.24259,-0.24259 0.0703,-1.73375 -0.38278,-3.31369 -0.57471,-2.00388 -0.42708,-3.20192 0.48816,-3.9615 0.7216,-0.59888 1.08287,-1.96511 0.80281,-3.03606 -0.66488,-2.5425 0.46817,-6.97928 1.78234,-6.97928 0.56571,0 3.27857,-2.25 6.02857,-5 2.7499998,-2.75 5.6535698,-5 6.4523798,-5 0.79881,0 2.45782,-1.00544 3.68668,-2.2343 1.27163,-1.27163 3.67831,-2.32668 5.58573,-2.44871 1.84329,-0.11792 4.00587,-0.75754 4.80574,-1.42137 1.21823,-1.01104 9.3843,-2.96248 12.87423,-3.07654 2.8435,-0.0929 16.63852,1.1485 17.29913,1.55677 0.42154,0.26053 2.97086,0.73295 5.66515,1.04982 6.90387,0.81196 18.85169,4.71765 21.53572,7.03993 0.825,0.71381 2.625,1.6351 4,2.04732 1.375,0.41221 3.84066,1.70293 5.47926,2.86828 3.546389,2.52214 6.299079,4.19291 9.020739,5.47522 4.07525,1.92005 8.75171,8.46017 9.94978,13.91494 0.38725,1.76314 1.11947,3.46242 1.62716,3.77619 0.50768,0.31377 0.92583,1.55643 0.92922,2.76147 0.003,1.20504 0.68388,3.49049 1.51219,5.07879 0.82832,1.58829 1.42838,3.38829 1.33347,4 -0.0949,0.6117 0.32083,2.30329 0.92386,3.75908 0.60303,1.4558 1.05937,3.94988 1.01409,5.54242 -0.0453,1.59254 0.46996,3.92748 1.14497,5.18875 0.67502,1.26128 0.96426,2.55627 0.64277,2.87776 -0.32149,0.32149 0.19264,1.74545 1.14252,3.16435 1.35566,2.02506 1.77803,5.16031 1.96415,14.57983 0.13041,6.6 0.44622,17.24907 0.7018,23.6646 0.43995,11.04366 0.12076,14.82035 -2.35255,27.8354 -1.97976,10.41787 -4.15619,28.51898 -4.44943,37.0053 -0.16164,4.67791 -0.57549,9.40291 -0.91966,10.5 -0.63192,2.01429 -2.79316,23.02427 -3.03404,29.4947 -0.0717,1.925 0.40231,5.67859 1.05328,8.34131 0.65096,2.66272 0.91535,5.5403 0.58752,6.39461 -0.32784,0.85431 0.0796,2.05072 0.90529,2.65869 0.82575,0.60796 2.30105,2.79481 3.27845,4.85965 1.4109,2.98066 3.04108,4.34316 7.91112,6.61214 3.37372,1.57183 6.92154,3.13079 7.88404,3.46435 0.9625,0.33357 1.75,1.35356 1.75,2.26666 0,0.91311 1.60649,3.43838 3.56997,5.61172 1.96349,2.17334 4.47065,6.05288 5.57148,8.6212 1.10083,2.56832 2.73805,5.48364 3.63826,6.4785 0.90021,0.99485 1.53975,3.08165 1.42122,4.63734 -0.1888,2.4777 0.19963,2.90639 3.13184,3.45648 1.84105,0.34538 4.39778,1.74608 5.68161,3.11266 2.98633,3.1788 3.30248,3.13287 4.74524,-0.68943 1.13633,-3.01047 1.29347,-3.08781 3.04798,-1.5 1.01743,0.92077 3.44685,1.67412 5.3987,1.67412 1.95184,0 4.10901,0.675 4.7937,1.5 0.68469,0.825 1.88062,1.5 2.65763,1.5 0.777,0 2.47798,0.69798 3.77995,1.55106 1.30196,0.85308 5.44863,2.01795 9.21481,2.5886 7.31281,1.10804 11.34761,3.00966 11.34761,5.34821 0,1.61035 3.58335,3.88767 4.86797,3.09373 0.45465,-0.28099 2.18622,1.02479 3.84793,2.90172 1.66172,1.87694 4.31793,3.67953 5.9027,4.00576 1.58477,0.32623 4.6814,1.47589 6.8814,2.55481 2.2,1.07891 4.68304,1.96042 5.51787,1.95889 0.83482,-0.002 3.13946,1.09912 5.12141,2.4459 4.3196,2.93524 8.40003,4.10575 9.29043,2.66505 0.35634,-0.57657 -0.26957,-1.62128 -1.39091,-2.32157 -1.12134,-0.70029 -2.0388,-1.88664 -2.0388,-2.63632 0,-1.44119 -4.53434,-17.08646 -6.05896,-20.90584 -0.53532,-1.34103 -1.75261,-2.25 -3.01322,-2.25 -1.27406,0 -2.32302,-0.79525 -2.63807,-2 -0.28766,-1.1 -1.12049,-2 -1.85073,-2 -2.52289,0 -8.26554,-6.52285 -11.44508,-13 -1.75492,-3.575 -4.09991,-7.21724 -5.21109,-8.09387 -1.68685,-1.33077 -1.83066,-1.94828 -0.87124,-3.74097 0.90776,-1.69616 0.81493,-2.79329 -0.442,-5.22392 -0.87509,-1.69225 -1.40122,-3.60882 -1.16916,-4.25903 0.23206,-0.65022 -0.49009,-2.98221 -1.60478,-5.18221 -2.82768,-5.58086 -3.74001,-10.37844 -4.27871,-22.5 -0.87188,-19.61907 -1.81278,-25.83092 -4.04211,-26.6864 -0.75617,-0.29017 -1.37485,-1.32448 -1.37485,-2.29846 0,-0.97399 -0.66177,-3.35474 -1.47061,-5.29056 -1.34775,-3.22562 -1.3205,-3.63265 0.32622,-4.87212 0.98826,-0.74385 2.8666,-4.87933 4.17411,-9.18995 1.51393,-4.99118 3.21129,-8.49353 4.67378,-9.64392 1.26307,-0.99354 2.2965,-2.25168 2.2965,-2.79588 0,-0.5442 0.94256,-1.23593 2.09458,-1.53719 1.73458,-0.45361 1.98352,-1.05343 1.4484,-3.48984 -0.46054,-2.09683 -0.23031,-3.10169 0.80136,-3.49757 0.79615,-0.30552 2.22469,-2.95007 3.17453,-5.8768 0.94983,-2.92672 2.07506,-5.70221 2.50049,-6.16775 2.05328,-2.24684 22.84455,-4.09177 25.76578,-2.28635 0.5484,0.33893 2.59113,-1.14817 4.53939,-3.30467 4.45511,-4.93127 7.12732,-6.41483 9.42547,-5.23285 2.07417,1.06678 4.2431,0.47562 4.26707,-1.16302 0.009,-0.64167 2.44308,-2.21655 5.4082,-3.49973 5.10992,-2.21135 8.29923,-5.06671 22.82473,-20.43472 2.0625,-2.18213 3.75,-4.36076 3.75,-4.84139 0,-0.48064 0.9,-1.43594 2,-2.1229 1.1,-0.68696 2,-1.5749 2,-1.9732 0,-1.3942 18.88147,-20.79473 20.23836,-20.79473 0.4189,0 0.76164,-0.675 0.76164,-1.5 0,-0.825 0.49014,-1.5 1.0892,-1.5 0.59905,0 3.05574,-1.9125 5.45929,-4.25 2.40356,-2.3375 5.96342,-5.72523 7.91081,-7.52828 1.94738,-1.80306 3.5407,-3.45439 3.5407,-3.66964 0,-0.21524 -2.28209,-1.14934 -5.07131,-2.07577 -2.78923,-0.92643 -5.29656,-2.27139 -5.57186,-2.98881 -0.2753,-0.71741 -1.88462,-1.87769 -3.57627,-2.57839 -2.74008,-1.13498 -12.02807,-9.99899 -10.78445,-10.29216 0.27286,-0.0643 -0.45137,-1.46695 -1.60939,-3.11695 -4.00643,-5.70849 -5.95545,-11.00614 -6.31782,-17.17245 -0.0379,-0.64484 -1.7564,-1.71912 -3.8189,-2.38727 -6.53605,-2.11737 -11.11831,-8.67454 -11.83814,-16.94028 -0.21554,-2.475 -0.62151,-5.85447 -0.90215,-7.50992 -0.37304,-2.20048 0.0949,-3.69284 1.74002,-5.54934 4.47369,-5.04853 4.73975,-6.25165 2.06912,-9.35645 -1.34047,-1.55839 -2.19418,-3.46678 -1.89714,-4.24087 0.32905,-0.85748 -0.37222,-1.75431 -1.79464,-2.29511 -2.56088,-0.97364 -6.62707,-7.09925 -6.62707,-9.9835 0,-1.00148 1.0125,-2.50543 2.25,-3.34212 2.16922,-1.46663 2.19006,-1.62257 0.5803,-4.34349 -1.17997,-1.99445 -3.39181,-3.41722 -7.54094,-4.85072 -6.6318,-2.29125 -10.06788,-5.26944 -11.38724,-9.86975 -1.37475,-4.7935 -1.22975,-5.22308 3.59788,-10.65873 2.475,-2.78672 4.5,-5.61849 4.5,-6.29283 0,-0.67434 0.9,-1.78814 2,-2.4751 1.1,-0.68696 2,-1.88568 2,-2.66382 0,-0.77814 1.12132,-2.74741 2.49183,-4.37617 1.82249,-2.1659 6.28606,-13.06806 6.49527,-15.86453 0.007,-0.0948 -1.52231,-0.67911 -3.39867,-1.29837 -4.58181,-1.51213 -5.1909,-3.53699 -1.52118,-5.05704 2.81651,-1.16663 3.99894,-2.97214 1.94646,-2.97214 -0.54247,0 -2.49836,-3.05954 -4.34644,-6.79897 -2.66857,-5.39963 -3.17171,-7.30344 -2.4446,-9.25 0.50354,-1.34807 1.0752,-5.27832 1.27036,-8.7339 0.19515,-3.45557 0.66142,-9.14582 1.03615,-12.64498 0.66787,-6.23652 0.62677,-6.38888 -2.08169,-7.71714 -2.80906,-1.37759 -3.04265,-1.68825 -5.9064,-7.85501 -0.89394,-1.925 -2.54995,-5.05685 -3.68003,-6.95967 -2.06884,-3.48348 -2.08617,-9.63433 -0.0309,-10.95941 0.49556,-0.31951 2.07787,-3.0811 3.51625,-6.13687 1.47,-3.12297 4.36053,-7.02023 6.60083,-8.8998 2.19209,-1.83912 3.74974,-3.72552 3.46144,-4.192 -0.80175,-1.29726 2.82862,-6.85225 4.47818,-6.85225 0.80061,0 2.31548,0.77813 3.36638,1.72919 1.81676,1.64414 1.96771,1.63185 3.06934,-0.25 0.63723,-1.08856 1.20938,-2.67259 1.27144,-3.52007 0.48824,-6.66736 5.69183,-13.927143 11.81694,-16.486373 3.41068,-1.42507 7.15517,-4.2848 12.07612,-9.22275 1.23324,-1.2375 2.64065,-2.25819 3.12758,-2.2682 2.12513,-0.0437 14.79704,-9.33255 18.73297,-13.7318 1.10717,-1.2375 2.55178,-2.25 3.21025,-2.25 0.65847,0 1.73874,-0.65249 2.40059,-1.44997 1.31141,-1.58015 9.0081,-5.55003 10.76025,-5.55003 0.598,0 2.36843,-1.59135 3.93428,-3.53632 3.35906,-4.17239 10.3748,-7.05435 13.32684,-5.47446 3.19521,1.71002 4.01031,1.21156 3.35737,-2.05313 -0.4606,-2.30297 0.2286,-4.78141 2.775,-9.97931 1.86328,-3.80347 3.74822,-6.92471 4.18876,-6.93609 0.44054,-0.0114 2.24054,-1.57781 4,-3.48096 1.75946,-1.90314 5.83127,-4.85656 9.04847,-6.56315 4.67255,-2.47859 6.38275,-2.92579 8.5,-2.22266 1.4578,0.48413 6.02555,0.73572 10.15055,0.5591 9.19113,-0.39355 10.43757,-0.60135 12.15471,-2.02646 0.74606,-0.61917 2.54699,-1.42457 4.00206,-1.78977 1.45507,-0.3652 3.59006,-1.54391 4.74441,-2.61935 1.15436,-1.07544 2.09883,-1.65861 2.09883,-1.29593 0,0.36268 1.9125,-0.89983 4.25,-2.8055797 5.61388,-4.57696 8.01709,-5.77593 11.57727,-5.77593 1.62731,0 3.19848,-0.62473 3.49149,-1.38829 0.38885,-1.01332001 2.14441,-1.31723001 6.49987,-1.12522001 3.28192,0.14469 6.44734,0.55986 7.03427,0.92259 0.58692,0.36274001 3.60697,0.78373001 6.71121,0.93554001 3.95881,0.19359 5.91556,0.76111 6.55328,1.90067 0.67659,1.20899 1.79909,1.48024 4.38744,1.06021 1.91304,-0.31044 4.0593,-0.0822 4.76948,0.50719 0.71018,0.5894 2.52638,1.54123 4.036,2.11519 2.51559,0.95643 2.66049,0.88611 1.73559,-0.8422 -0.771,-1.44062 -0.6382,-2.02815 0.5627,-2.48896 2.1688,-0.83227 2.9751,-0.16314 5.9778,4.96059 1.5435,2.6336697 3.5799,4.6973197 4.9829,5.0494497 4.2898,1.07667 8.6034,10.47817 10.5038,22.89324 0.8551,5.5862 1.6692,8.12173 4.1385,12.88842 3.1117,6.00696 -1.1801,20.4301 -7.1145,23.90892 -2.9924,1.75424 -3.0546,1.9439 -2.5909,7.9073 0.2613,3.36048 0.5918,6.15167 0.7344,6.20266 2.4904,0.8901 4.3189,2.78335 4.5538,4.71525 0.1619,1.33146 1.5623,3.27297 3.1119,4.31447 1.7189,1.15525 3.5068,3.810473 4.5852,6.809433 0.9722,2.70368 2.3589,5.14264 3.0814,5.41991 0.9055,0.34747 1.14,1.64289 0.7547,4.16888 -1.2956,8.49339 -0.7005,12.56812 2.3682,16.21512 1.9411,2.30689 2.6321,4.14986 2.4683,6.58313 -0.2772,4.1162 1.3577,7.48725 3.2745,6.75171 1.6923,-0.64942 3.1297,1.79664 4.1024,6.98143 0.3996,2.13017 1.9923,5.1329 3.5887,6.76607 3.9137,4.00363 4.0242,10.0467 0.2528,13.81815 -3.9142,3.9142 -7.4981,14.15923 -6.3516,18.15685 1.0346,3.60763 -1.3749,9.08128 -3.6186,8.22028 -0.8471,-0.32508 -1.0962,0.16496 -0.7522,1.48017 0.2828,1.08137 0.025,2.26848 -0.573,2.63801 -0.5979,0.36953 -1.0871,0.16876 -1.0871,-0.44616 0,-0.61492 -0.4127,-0.86294 -0.9172,-0.55116 -0.553,0.34174 -0.5315,1.96401 0.054,4.0848 0.5342,1.93486 0.8345,6.09383 0.6672,9.24215 l -0.304,5.72421 2.8869,-0.3093 c 2.7577,-0.29548 2.8581,-0.1656 2.244,2.90469 -0.7805,3.90261 -2.511,6.1646 -4.2156,5.51046 -1.6689,-0.64038 -3.9426,2.97335 -4.8097,7.64415 -0.3829,2.0625 -1.1258,3.75 -1.6509,3.75 -0.5251,0 -0.9547,0.675 -0.9547,1.5 0,0.825 0.8842,1.5 1.9648,1.5 1.0807,0 2.4542,0.91433 3.0522,2.03184 0.5981,1.11752 1.8127,1.90502 2.699,1.75 2.3842,-0.41697 2.4359,6.77074 0.064,8.91714 -0.9791,0.88605 -1.7801,2.24925 -1.7801,3.02933 0,0.79676 -0.7452,1.27483 -1.7004,1.09087 -0.9352,-0.18011 -2.7148,0.6869 -3.9546,1.92668 -1.2398,1.23978 -3.3996,2.25414 -4.7996,2.25414 -1.4,0 -2.5454,0.49041 -2.5454,1.08981 0,1.06999 3.2107,4.96381 7.843,9.51162 1.2886,1.26515 3.6412,4.34739 5.2279,6.84942 2.4963,3.93617 4.4802,5.26099 6.4379,4.29915 0.2799,-0.1375 1.3686,1.16374 2.4194,2.89165 1.5014,2.46886 3.3734,3.62016 8.7412,5.37607 3.7568,1.22893 7.7643,3.08212 8.9055,4.1182 1.1412,1.03608 5.6265,3.07787 9.9672,4.53732 4.3407,1.45944 8.7679,3.46934 9.8382,4.46642 1.0702,0.99709 3.5475,2.34149 5.5051,2.98755 3.6507,1.20485 6.1146,3.05859 6.1146,4.60047 0,0.4788 1.5512,1.43146 3.4471,2.11702 1.8959,0.68557 3.7174,2.09817 4.0477,3.13911 0.3304,1.04094 2.1263,2.3961 3.9909,3.01147 2.2757,0.75106 3.4927,1.83663 3.7022,3.30242 0.1722,1.20468 1.5449,2.7726 3.0621,3.4975 1.5125,0.72266 2.75,1.73334 2.75,2.24595 0,0.5126 1.5162,1.56551 3.3693,2.3398 3.263,1.36339 6.9488,5.29537 6.16,6.57161 -0.213,0.34464 0.9218,1.50644 2.5218,2.58177 1.5999,1.07533 3.4226,3.19501 4.0502,4.71041 0.6277,1.51539 1.7883,2.75526 2.579,2.75526 0.7907,0 1.2,0.38459 0.9095,0.85464 -0.2905,0.47005 0.5829,1.89849 1.941,3.17431 1.358,1.27582 2.4692,2.91624 2.4692,3.64536 0,0.72913 0.5625,1.33613 1.25,1.34889 0.6875,0.0128 3.05,1.63605 5.25,3.60731 2.2,1.97126 7.0857,6.34832 10.8571,9.7268 3.7714,3.37848 7.4839,6.28819 8.25,6.46601 0.7661,0.17783 1.3929,0.85853 1.3929,1.51266 0,0.65413 1.1809,2.08363 2.6243,3.17667 1.4433,1.09304 2.9084,2.21235 3.2557,2.48735 0.3472,0.275 1.9712,2.3 3.6088,4.5 1.6377,2.2 4.1351,4.97884 5.5498,6.17521 2.4738,2.09187 9.9614,13.72358 9.9614,15.47456 0,0.46763 0.3672,0.85023 0.8161,0.85023 1.6225,0 8.1807,16.3283 8.9198,22.2084 0.3439,2.73517 1.3544,4.38582 3.8504,6.28966 3.1193,2.3792 3.5953,2.47067 6.0805,1.1685 2.3125,-1.21161 3.1721,-1.21399 6.0376,-0.0167 2.1993,0.91893 3.9315,1.08241 5.0684,0.47835 1.1423,-0.60694 2.9636,-0.42251 5.3786,0.54467 3.9928,1.59912 4.7631,3.60958 5.3807,14.04383 0.3577,6.04373 1.0906,7.64202 3.1433,6.85433 0.8103,-0.31092 2.1067,0.0682 2.881,0.84254 0.7743,0.77431 1.9784,1.61422 2.6757,1.86647 1.0175,0.36807 1.021,0.87668 0.018,2.57572 -1.6281,2.75744 -1.713,2.6275 1.8003,2.75313 3.7498,0.13409 8.7239,4.63542 9.1464,8.27712 0.4156,3.58189 -3.2659,10.33554 -6.4898,11.90541 -1.7688,0.8613 -2.9941,2.5615 -3.6789,5.10461 -0.7825,2.90613 -2.0938,4.48762 -5.5125,6.64859 -2.9974,1.8946 -4.8483,3.93372 -5.5782,6.1454 -0.6008,1.82049 -1.5075,3.30997 -2.0148,3.30997 -0.5074,0 -0.9225,0.52707 -0.9225,1.17126 0,0.64419 -0.7704,2.02259 -1.7121,3.06311 -1.2884,1.42367 -1.6366,3.29921 -1.4069,7.57874 0.1679,3.12779 0.4015,7.95182 0.5191,10.72007 0.1176,2.76824 0.5289,5.54298 0.914,6.16608 0.3851,0.6231 0.2415,2.33953 -0.3192,3.81428 -0.6452,1.69683 -0.6886,4.02251 -0.1182,6.33392 1.0395,4.21262 0.8389,20.87325 -0.318,26.4135 -0.5023,2.40542 -0.3873,4.2407 0.3193,5.09201 0.6075,0.73208 0.842,1.5937 0.521,1.91473 -0.5757,0.57566 -1.0442,4.4674 -1.9542,16.2323 -1.2255,15.84478 -2.2195,22.74274 -3.3808,23.46047 -2.2699,1.40282 -3.1619,6.37864 -1.9743,11.01237 0.9809,3.82735 0.9234,5.1046 -0.3405,7.56593 -1.0231,1.99234 -1.3598,4.60653 -1.029,7.98977 0.3264,3.33838 -0.046,6.3146 -1.107,8.85479 -0.8793,2.10443 -1.352,4.80915 -1.0505,6.01048 0.3015,1.20134 0.1051,3.3496 -0.4364,4.77391 -0.7366,1.93742 -0.61,3.12436 0.5025,4.71272 0.8179,1.16769 1.2184,2.55785 0.8899,3.08925 -0.3284,0.53139 2.1249,3.64626 5.4518,6.92192 3.8297,3.77066 6.2747,7.08441 6.6642,9.03207 0.4042,2.02081 1.2124,3.07632 2.3554,3.07632 0.9571,0 2.8844,0.9 4.2828,2 1.3984,1.1 3.5966,2.01431 4.8848,2.0318 1.2883,0.0175 3.2158,0.6925 4.2834,1.5 1.0677,0.80751 2.9015,1.4682 4.0752,1.4682 3.2839,0 12.776,7.77204 29.3787,24.05483 4.6576,4.56784 14.7786,17.35656 16.5761,20.94517 0.9642,1.925 3.4433,5.53536 5.5092,8.02302 2.0658,2.48767 4.9991,6.98767 6.5185,10 1.5194,3.01234 3.9962,7.05198 5.504,8.97698 1.5079,1.925 4.4363,6.875 6.5076,11 2.0713,4.125 5.2398,9.3 7.0411,11.5 1.8012,2.2 4.9431,7.15 6.9819,11 2.0388,3.85 4.986,8.61846 6.5493,10.59657 4.0073,5.07068 9.462,16.16973 11.9932,24.40343 1.1835,3.85 3.168,9.025 4.41,11.5 1.242,2.475 3.0305,7.2 3.9745,10.5 0.944,3.3 2.9907,9.15 4.5482,13 1.5575,3.85 3.5796,9.6712 4.4936,12.936 1.5798,5.6432 3.7181,10.4763 9.8634,22.2942 1.8508,3.5591 3.0228,7.8725 3.6681,13.5 0.5216,4.5484 1.6195,11.4198 2.4399,15.2698 0.8204,3.85 1.4995,8.8268 1.509,11.0596 0.01,2.2328 0.8648,7.6328 1.9006,12 1.0358,4.3672 2.404,11.9149 3.0406,16.7727 0.6365,4.8578 2.4242,12.3038 3.9727,16.54679 1.5485,4.2429 3.1226,9.7628 3.4981,12.2664 0.3754,2.5035 1.5596,6.86 2.6315,9.681 1.0719,2.821 2.4295,8.4016 3.0168,12.4013 0.5874,3.9997 1.5092,8.6222 2.0485,10.2722 2.479,7.5847 4.1014,25.2491 4.4087,48 0.1783,13.2 0.8137,26.4239 1.412,29.3865 0.5984,2.9626 1.0911,9.0376 1.0949,13.5 0,4.9464 0.8412,11.4315 2.1441,16.6135 1.6919,6.7294 2.1963,12.1454 2.4215,26 0.8334,51.2893 1.4808,63.2903 3.6625,67.8936 1.6895,3.5647 2.1448,6.7716 2.4136,17 0.1822,6.9335 0.6003,15.5314 0.9292,19.1064 0.3288,3.575 0.525,12.4298 0.4359,19.6773 -0.089,7.2474 0.2629,13.9974 0.7822,15 0.5193,1.0025 1.2216,12.3977 1.5607,25.3227 0.3391,12.925 0.8431,27.1 1.1201,31.5 0.5948,9.45 1.7468,49.1827 1.6962,58.5 -0.061,11.3131 -1.216,25.4017 -2.3101,28.1896 -0.5805,1.4793 -0.8307,3.0543 -0.5558,3.5 0.2748,0.4457 0.092,5.3104 -0.4056,10.8104 -0.4979,5.5 -1.2952,18.3052 -1.7717,28.4561 -0.57,12.1415 -1.2536,18.5852 -1.9981,18.8333 -0.8113,0.2705 -1.1317,9.5752 -1.1317,32.8654 0,27.5449 0.2282,32.7163 1.5,33.9881 0.825,0.825 1.5,2.9821 1.5,4.7937 0,1.8115 0.7875,4.3669 1.75,5.6785 0.9625,1.3117 2.8314,4.6349 4.153,7.3849 1.3217,2.75 3.0092,6.1944 3.75,7.6543 0.7409,1.4599 1.347,3.7324 1.347,5.05 0,1.3176 0.3972,2.8232 0.8827,3.3457 0.9661,1.0398 4.0566,12.0197 4.8438,17.2093 0.272,1.7926 0.8948,3.5066 1.384,3.809 0.4892,0.3023 0.8895,1.5582 0.8895,2.7907 0,1.2326 0.5138,2.7548 1.1417,3.3827 0.628,0.628 1.5405,4.4305 2.0279,8.45 1.1989,9.8875 2.6142,20.074 3.7943,27.3083 0.5383,3.3 1.7319,12.525 2.6525,20.5 0.9206,7.975 1.9934,14.725 2.3839,15 2.3579,1.6605 5.9708,42.4318 7.6649,86.5 0.1691,4.4 0.7469,12.7547 1.2839,18.5659 1.1377,12.3116 0.4732,15.9232 -3.2637,17.7387 -1.477,0.7175 -2.6854,2.0159 -2.6854,2.8853 0,0.8694 -1.0125,2.5456 -2.25,3.7248 -1.2375,1.1792 -3.8861,4.0433 -5.8858,6.3647 -1.9997,2.3213 -4.3683,4.2206 -5.2636,4.2206 -2.0672,0 -5.2141,1.758 -9.3641,5.2313 -5.2401,4.3855 -8.2455,5.5118 -16.7365,6.2719 -4.4,0.3939 -9.35,1.289 -11,1.9892 -6.9752,2.96 -9.2732,3.5038 -14.2762,3.3779 -3.6244,-0.091 -5.8406,0.3779 -7.0788,1.4985 -0.9914,0.8971 -3.1829,1.6312 -4.8701,1.6312 -3.2397,0 -8.4262,4.7506 -9.754,8.9343 -0.3606,1.1361 -1.1878,2.0678 -1.8383,2.0703 -0.6504,0 -2.6207,1.3526 -4.3784,3 -2.5146,2.357 -4.1024,2.9954 -7.45,2.9954 -3.0763,0 -3.9517,0.3025 -3.1617,1.0925 1.3491,1.3491 -2.4418,7.8006 -4.6215,7.8652 -1.722,0.051 -7.896,1.9468 -10.3074,3.1651 -0.9551,0.4824 -2.5566,0.8772 -3.5589,0.8772 -1.0023,0 -2.6959,0.6607 -3.7636,1.4682 -1.0676,0.8075 -2.8636,1.4825 -3.9911,1.5 -1.1275,0.018 -2.4804,0.4622 -3.0065,0.9883 -0.5261,0.5261 -4.4411,1.0373 -8.7,1.1361 -4.2589,0.099 -7.7435,0.5683 -7.7435,1.0435 0,0.4751 -0.675,0.8639 -1.5,0.8639 -0.825,0 -1.5,0.675 -1.5,1.5 0,0.825 -0.5313,1.5 -1.1807,1.5 -0.6493,0 -4.4354,2.25 -8.4134,5 -3.978,2.75 -7.7917,5 -8.4749,5 -0.6832,0 -2.6347,1.0603 -4.3366,2.3561 -1.7019,1.2959 -4.1327,2.6844 -5.4017,3.0856 -1.269,0.4012 -2.7203,1.8159 -3.2252,3.1439 -0.5141,1.352 -1.7323,2.4144 -2.7684,2.4144 -1.0178,0 -2.9073,1.125 -4.1991,2.5 -1.2917,1.375 -3.0802,2.5 -3.9743,2.5 -0.8941,0 -2.0532,0.3581 -2.5757,0.7959 -0.5225,0.4377 -2.75,1.3988 -4.95,2.1357 -2.2,0.7369 -5.1945,2.1788 -6.6544,3.2041 -1.4599,1.0254 -3.3173,1.8643 -4.1275,1.8643 -0.8103,0 -2.0334,0.675 -2.7181,1.5 -0.6847,0.825 -2.4498,1.5 -3.9224,1.5 -1.4727,0 -3.1051,0.4121 -3.6276,0.9157 -0.5225,0.5037 -3.7633,1.0662 -7.2018,1.25 -4.8418,0.2589 -6.2514,0.02 -6.25,-1.0607 0.001,-1.1175 -1.4011,-1.2775 -7.0485,-0.804 -6.6595,0.5583 -7.016,0.4832 -6.4326,-1.355 0.5839,-1.8395 0.07,-1.946 -9.3846,-1.946 -5.5013,0 -11.2691,-0.5174 -12.8174,-1.1498 -1.7971,-0.7341 -11.4941,-1.2236 -26.8151,-1.3537 -16.1107,-0.1369 -25.4792,-0.6302 -28.5,-1.5009 -6.2784,-1.8095 -29.7127,-2.4789 -31.6117,-0.9029 -1.1381,0.9445 -2.3317,0.9161 -5.505,-0.1312 -3.1615,-1.0434 -4.4699,-1.0762 -5.954,-0.1494 -2.4362,1.5214 -10.1757,1.5415 -11.6869,0.03 -0.8768,-0.8768 -1.5187,-0.858 -2.6463,0.078 -1.6149,1.3403 -11.0813,1.0181 -24.5961,-0.837 -4.125,-0.5663 -7.95,-1.0101 -8.5,-0.9863 -0.55,0.024 -8.6867,0.2734 -18.0815,0.5547 l -17.0816,0.5116 -1.6915,-2.5816 c -1.6133,-2.4622 -2.1119,-2.5815 -10.78841,-2.5815 l -9.0969,0 -4.13004,4.25 c -2.27153,2.3375 -5.42204,4.9177 -7.00115,5.7338 -1.5791,0.8161 -3.0972,2.073 -3.37355,2.7932 -0.40015,1.0427 -0.84181,1.0022 -2.16914,-0.199 -1.38313,-1.2517 -2.08514,-1.2949 -4.12644,-0.254 -1.35287,0.6898 -6.95977,2.3113 -12.45977,3.6032 -5.5,1.292 -10.90711,2.7565 -12.01581,3.2546 -1.1087,0.498 -3.96513,0.9832 -6.34763,1.0782 -3.1885,0.1272 -4.80592,0.7755 -6.12811,2.4564 -0.98796,1.256 -2.43484,2.2836 -3.21528,2.2836 -0.78044,0 -2.71237,1.35 -4.29317,3 -1.5808,1.65 -3.46499,3 -4.18709,3 -0.7221,0 -1.31291,0.8649 -1.31291,1.9221 0,2.372 -7.63499,9.0779 -10.33561,9.0779 -1.08658,0 -3.45056,1.125 -5.25328,2.5 -1.80272,1.375 -4.18113,2.5 -5.28537,2.5 -1.10424,0 -2.28582,0.45 -2.62574,1 -0.33992,0.55 -2.5953,1 -5.01196,1 -3.99709,0 -5.94403,0.5053 -11.98804,3.1114 -2.4451,1.0543 -18.71903,0.7301 -21.7835,-0.434 z m -141.7165,-620.3127 c 0,-0.8995 -1.10344,-2.658 -2.45208,-3.9079 -2.05467,-1.9042 -2.35771,-2.8952 -1.86977,-6.1146 0.32028,-2.1132 0.97372,-4.2697 1.45209,-4.7922 1.19529,-1.3056 1.09846,-7.2906 -0.13024,-8.05 -1.41778,-0.8762 -1.24195,-4.245 0.25,-4.7898 0.79193,-0.2893 0.0189,-1.5793 -2.1096,-3.5204 -2.61127,-2.3814 -3.63973,-2.8022 -4.61725,-1.8891 -1.00756,0.9412 -0.9639,1.6232 0.21955,3.4294 0.81246,1.2399 1.23789,2.8781 0.9454,3.6403 -0.2925,0.7623 -0.14294,1.7782 0.33234,2.2577 1.06667,1.0762 0.0469,9.3719 -1.15211,9.3719 -1.92739,0 -0.64392,3.6669 3.38167,9.6614 4.33468,6.4547 5.75,7.6124 5.75,4.7033 z m 5.9682,-43.286 c 0.0175,-1.3317 0.76619,-3.2327 1.66378,-4.2245 1.52642,-1.6867 1.4662,-1.8664 -0.93109,-2.7778 -2.05488,-0.7813 -2.69837,-1.8768 -3.24552,-5.5254 -0.37535,-2.5031 -0.99674,-4.551 -1.38086,-4.551 -0.38411,0 -1.68302,1.3318 -2.88645,2.9595 -2.2397,3.0294 -2.88741,6.0405 -1.29935,6.0405 0.48879,0 1.18224,1.6875 1.54099,3.75 0.35876,2.0625 1.39444,5.1814 2.30152,6.931 1.48708,2.8682 1.7749,3.0157 2.92721,1.5 0.70288,-0.9246 1.29227,-2.7706 1.30977,-4.1023 z m -14.49192,-36.8287 c 0.32936,-2.6125 1.04096,-6.4073 1.58134,-8.433 0.54038,-2.0256 1.25713,-6.5256 1.59277,-10 0.33564,-3.4743 0.68603,-6.992 0.77865,-7.817 0.0926,-0.825 0.85019,-2.8637 1.68349,-4.5304 0.97527,-1.9507 1.25621,-3.9984 0.7885,-5.7473 -0.63292,-2.3665 1.16398,-14.4004 2.46448,-16.5047 0.25466,-0.412 -0.16916,-3.1863 -0.94183,-6.165 -1.24787,-4.8107 -1.22889,-5.6104 0.16982,-7.1559 1.4349,-1.5856 1.42087,-2.0642 -0.15807,-5.3915 -0.99087,-2.0881 -1.81046,-6.4161 -1.91424,-10.1085 -0.0998,-3.5513 -0.65268,-6.9282 -1.2286,-7.5041 -0.65455,-0.6546 -0.74639,-2.3805 -0.24497,-4.6037 0.44117,-1.9561 0.41879,-4.2839 -0.0497,-5.1728 -1.36415,-2.588 -2.32537,-5.463 -2.54633,-7.6161 -0.98905,-9.6375 -2.01631,-14.3956 -3.59563,-16.6544 -2.09832,-3.001 -2.62167,-11.8456 -0.70093,-11.8456 0.69104,0 0.4902,-0.7346 -0.5,-1.8287 -0.91025,-1.0058 -1.65499,-2.1609 -1.65499,-2.5668 0,-0.4059 -1.0871,-2.1704 -2.41578,-3.9212 -1.32869,-1.7508 -2.7297,-4.8758 -3.11337,-6.9443 -0.38367,-2.0686 -1.09656,-4.0077 -1.58421,-4.3091 -0.48765,-0.3013 -0.88664,-1.3663 -0.88664,-2.3665 0,-1.0002 -0.675,-2.3787 -1.5,-3.0634 -0.825,-0.6847 -1.5,-2.0523 -1.5,-3.0391 0,-0.9868 -0.34478,-1.9442 -0.76618,-2.1276 -0.4214,-0.1833 -2.06289,-4.2708 -3.64775,-9.0833 -1.58486,-4.8125 -3.29278,-8.75 -3.79539,-8.75 -1.53629,0 -12.53839,-11.4522 -12.92658,-13.4554 -0.20026,-1.0334 -0.8919,-2.0546 -1.537,-2.2694 -1.57309,-0.5237 -2.10347,3.4308 -1.02333,7.6299 0.56333,2.19 0.48699,4.2587 -0.21393,5.7971 -0.59941,1.3155 -1.08984,3.8707 -1.08984,5.6782 0,1.8074 -0.32768,3.6139 -0.72818,4.0144 -0.79399,0.794 -0.48788,13.4466 0.35845,14.816 0.28689,0.4642 -0.44673,2.8443 -1.63027,5.2892 -1.18354,2.4449 -1.81067,4.9973 -1.39363,5.6721 1.13149,1.8308 1.21599,5.7374 0.24361,11.2632 -0.60693,3.4489 -0.52731,5.1461 0.26435,5.6354 1.60424,0.9914 2.39745,15.6077 0.94218,17.3612 -0.90053,1.0851 -0.57668,1.957 1.49704,4.0307 2.23852,2.2386 2.57415,3.2925 2.1788,6.8418 -0.36714,3.2961 0.23732,5.6972 2.8193,11.1994 1.80766,3.852 3.61008,8.352 4.00539,10 0.3953,1.6479 1.05472,3.4462 1.46537,3.9962 0.41066,0.55 1.07762,2.5456 1.48214,4.4347 0.40452,1.8891 2.7746,7.2891 5.26684,12 3.43432,6.4916 4.60641,9.8708 4.84137,13.9578 0.20739,3.6073 1.09902,6.5867 2.69335,9 1.31082,1.9841 2.7182,5.3995 3.12749,7.5898 0.4093,2.1902 1.60418,5.7623 2.65529,7.9378 1.05111,2.1756 1.92542,5.3335 1.94291,7.0177 0.0175,1.6842 0.66531,3.8985 1.4396,4.9207 0.77429,1.0222 2.17507,5.4097 3.11285,9.75 0.93778,4.3403 2.06239,7.8915 2.49913,7.8915 0.43674,0 1.06355,-2.1375 1.3929,-4.75 z m 23.90519,-81.25 c 1.1438,-14.8598 2.31967,-23.1011 3.45858,-24.2401 0.67643,-0.6764 1.15995,-4.3279 1.15995,-8.7599 0,-4.18 0.40852,-8.0275 0.90781,-8.55 1.80402,-1.8879 2.32528,-12.5802 2.33757,-47.95 0.007,-19.8 -0.0379,-38.025 -0.0995,-40.5 -0.0616,-2.475 0.0661,-13.95 0.28378,-25.5 0.36229,-19.2224 0.98009,-25.2661 3.64076,-35.616 1.30008,-5.0573 1.18497,-24.2286 -0.15351,-25.56709 -1.9857,-1.9857 0.3953,-23.492 2.95713,-26.7103 0.48447,-0.6086 1.65803,-4.2566 2.60791,-8.1066 0.94988,-3.85 2.11982,-7.7388 2.59986,-8.6418 0.7663,-1.4416 -0.056,-1.6888 -6.73948,-2.0263 -6.93647,-0.3503 -8.84755,0.028 -21.52662,4.2639 -19.15187,6.3979 -22.10416,9.4593 -22.04345,22.8578 0.0188,4.1505 0.34157,10.2464 0.71725,13.5464 0.37567,3.3 0.78611,6.89999 0.91209,7.99999 1.70561,14.8933 3.36219,23.5 4.52317,23.5 0.3989,0 0.74699,1.4625 0.77352,3.25 0.0869,5.856 1.08795,14.5951 1.80464,15.7547 0.38623,0.625 0.67244,3.6307 0.63602,6.6795 -0.0364,3.0488 0.75229,9.0584 1.75269,13.3547 1.02098,4.3847 1.46196,8.389 1.00524,9.128 -0.44752,0.724 -0.56839,2.2937 -0.26861,3.4881 0.35496,1.4143 -0.18268,2.8994 -1.54161,4.2583 -1.14766,1.1477 -1.86606,2.0867 -1.59645,2.0867 0.67678,0 -2.13467,3.4635 -7.59794,9.3601 -3.64265,3.9316 -5.26588,4.9732 -7.75,4.9732 -3.8085,0 -3.92319,0.9499 -0.59262,4.9081 1.89643,2.2537 2.39743,3.723 1.95554,5.735 -0.39624,1.804 -0.0797,3.1318 0.95035,3.9867 0.84945,0.705 1.54446,2.1408 1.54446,3.1907 0,1.0499 0.66276,2.1633 1.4728,2.4741 1.26274,0.4846 2.64061,4.5583 2.66262,7.8721 0.004,0.55 0.64968,1.3599 1.43561,1.7997 0.78593,0.4398 1.42897,1.4009 1.42897,2.1357 0,0.7348 0.67223,2.6249 1.49384,4.2003 0.82161,1.5754 1.49661,4.3568 1.5,6.181 0.004,1.9896 1.00652,4.6283 2.50616,6.5944 1.375,1.8027 2.5,3.8301 2.5,4.5052 0,0.6752 1.08964,3.1077 2.42143,5.4056 1.33179,2.298 2.96534,6.9906 3.63011,10.4281 0.66477,3.4375 1.48762,6.2502 1.82857,6.2504 0.34094,2e-4 0.75328,2.5877 0.91631,5.75 0.44848,8.6993 0.8498,11.4736 2.12242,14.672 0.63953,1.6074 0.961,3.4483 0.71437,4.0911 -0.24663,0.6427 0.64155,5.365 1.97372,10.494 1.33218,5.1291 2.1804,10.0872 1.88493,11.0181 -0.67223,2.1181 0.50552,5.3937 1.54301,4.2916 0.42312,-0.4495 1.02909,-4.1922 1.3466,-8.3172 z M 198.10511,858.81781 c 0.61886,-1.7839 0.59929,-3.541 -0.0557,-5.0016 -0.77533,-1.729 -0.62588,-2.6757 0.64384,-4.0787 0.90944,-1.005 1.65353,-2.3076 1.65353,-2.8948 0,-0.5873 1.54474,-2.3518 3.43276,-3.9213 1.88802,-1.5695 5.32459,-4.4286 7.63683,-6.3536 2.31224,-1.925 4.6728,-3.67677 5.24568,-3.89281 1.32778,-0.50074 8.74251,-6.15147 11.75737,-8.96024 1.26747,-1.18082 2.82489,-2.14695 3.46093,-2.14695 0.63605,0 1.97094,-0.9 2.96643,-2 0.99549,-1.1 2.25312,-2 2.79474,-2 1.20379,0 3.62979,-3.07092 3.67346,-4.65 0.0175,-0.6325 1.6068,-2.725 3.5318,-4.65 1.925,-1.925 3.5,-4.47156 3.5,-5.65902 0,-1.18746 0.4407,-1.88665 0.97933,-1.55375 1.34283,0.82991 4.64397,-1.06318 5.43117,-3.11458 0.58302,-1.51933 -2.35341,-10.81836 -6.0073,-19.02378 -0.77176,-1.73312 -1.4032,-5.68507 -1.4032,-8.78212 0,-3.09704 -0.675,-7.24649 -1.5,-9.22099 -0.825,-1.97451 -1.5,-4.43505 -1.5,-5.46788 0,-1.30301 -0.71747,-1.87788 -2.34371,-1.87788 -2.13455,0 -2.50289,-0.75855 -4.12748,-8.5 -1.75627,-8.36892 -1.82979,-8.5 -4.76751,-8.5 -2.00522,0 -4.51099,-1.27869 -7.64071,-3.89904 -2.56133,-2.14447 -6.67378,-4.43595 -9.13878,-5.09217 -2.465,-0.65623 -5.91429,-2.27667 -7.66509,-3.60097 -1.7508,-1.3243 -4.4508,-2.41597 -6,-2.42592 -1.5492,-0.01 -7.31672,-1.53726 -12.81672,-3.394 -6.54019,-2.20789 -10.55246,-3.08277 -11.5968,-2.5287 -0.91405,0.48495 -2.00279,0.44121 -2.5463,-0.1023 -0.91788,-0.91788 -6.7392,-2.12536 -16.60308,-3.44388 -3.85904,-0.51583 -4.85459,-1.06633 -5.32613,-2.94511 -0.31897,-1.27088 -2.34569,-4.03489 -4.50382,-6.14225 -2.69314,-2.62978 -3.92387,-4.69782 -3.92387,-6.59342 0,-1.75075 -0.74214,-3.15906 -2.02715,-3.84677 -1.93572,-1.03597 -2.00635,-0.85596 -1.56591,3.99078 0.62279,6.85333 2.7319,16.02375 3.68531,16.02375 0.42569,0 0.76491,1.2375 0.75383,2.75 -0.0111,1.5125 1.18816,7.925 2.665,14.25 1.47684,6.325 2.6852,12.625 2.68524,14 3e-5,1.375 0.62423,5.2 1.38709,8.5 0.76287,3.3 1.39368,7.53957 1.40181,9.42126 0.008,1.88169 0.6087,4.13169 1.33461,5 0.7259,0.86831 2.5678,7.20374 4.0931,14.07874 6.31051,28.44335 7.94413,34.58367 9.72793,36.56445 1.02253,1.13545 1.85914,2.74795 1.85914,3.58333 0,0.83539 0.32987,1.84875 0.73304,2.25192 1.68195,1.68196 3.14305,8.9633 2.16524,10.79037 -0.54492,1.0182 -0.75906,2.22618 -0.47586,2.68441 0.28321,0.45822 0.72285,3.39152 0.977,6.51842 0.71832,8.8378 2.80447,11.4631 12.12982,15.2644 4.38392,1.7871 8.48924,3.2702 9.12293,3.296 0.6337,0.026 1.58147,-1.1908 2.10616,-2.7033 z M 538.42778,208.7192 c -0.5945,-1.11095 -1.0947,-3.06199 -1.1114,-4.33565 -0.027,-2.03519 -0.1524,-2.10643 -1.0372,-0.58804 -0.7248,1.24375 -0.5556,2.60031 0.6041,4.84293 0.8861,1.71338 1.8393,2.88695 2.1183,2.60795 0.279,-0.27901 0.021,-1.41624 -0.5738,-2.52719 z m 8.3543,-33.04943 c -0.6277,-0.62769 -2.4127,1.9121 -2.3882,3.39804 0.01,0.55 0.6726,0.13285 1.4744,-0.927 0.8018,-1.05985 1.213,-2.17182 0.9138,-2.47104 z"
     id="path2987"
     inkscape:connector-curvature="0" />
</svg>
