<?xml version="1.0" encoding="UTF-8" standalone="no"?>
<!-- Created with Inkscape (http://www.inkscape.org/) -->

<svg
   xmlns:dc="http://purl.org/dc/elements/1.1/"
   xmlns:cc="http://creativecommons.org/ns#"
   xmlns:rdf="http://www.w3.org/1999/02/22-rdf-syntax-ns#"
   xmlns:svg="http://www.w3.org/2000/svg"
   xmlns="http://www.w3.org/2000/svg"
   xmlns:sodipodi="http://sodipodi.sourceforge.net/DTD/sodipodi-0.dtd"
   xmlns:inkscape="http://www.inkscape.org/namespaces/inkscape"
   id="svg2"
   version="1.1"
   inkscape:version="0.48.2 r9819"
   width="813.81036"
   height="1025.059"
   sodipodi:docname="trapezelonghorse00crom_0058b.png">
  <metadata
     id="metadata8">
    <rdf:RDF>
      <cc:Work
         rdf:about="">
        <dc:format>image/svg+xml</dc:format>
        <dc:type
           rdf:resource="http://purl.org/dc/dcmitype/StillImage" />
        <dc:title></dc:title>
      </cc:Work>
    </rdf:RDF>
  </metadata>
  <defs
     id="defs6" />
  <sodipodi:namedview
     pagecolor="#ffffff"
     bordercolor="#666666"
     borderopacity="1"
     objecttolerance="10"
     gridtolerance="10"
     guidetolerance="10"
     inkscape:pageopacity="0"
     inkscape:pageshadow="2"
     inkscape:window-width="1600"
     inkscape:window-height="876"
     id="namedview4"
     showgrid="false"
     fit-margin-top="0"
     fit-margin-left="0"
     fit-margin-right="0"
     fit-margin-bottom="0"
     inkscape:zoom="1"
     inkscape:cx="-199.68836"
     inkscape:cy="334.94532"
     inkscape:window-x="0"
     inkscape:window-y="24"
     inkscape:window-maximized="1"
     inkscape:current-layer="svg2" />
  <path
     style="fill:#000000"
     d="m 121.6113,1025.059 -1.79966,0 -3.33076,-2.0307 c -1.83191,-1.1168 -4.52731,-3.1401 -5.98978,-4.4962 -1.46246,-1.3561 -3.11362,-2.4839 -3.66924,-2.5062 -0.55562,-0.022 -2.56822,-1.3724 -4.47245,-3 l -3.46222,-2.9594 -1.53778,0 c -0.84577,0 -2.97889,-0.8825 -4.74027,-1.9565 -1.76137,-1.0739 -5.81137,-2.6695 -9,-3.5457 -3.18862,-0.8837 -6.4725,-1.7689 -7.2975,-1.9746 -0.825,-0.2057 -1.5,-0.4428 -1.5,-0.527 0,-0.084 -0.675,-0.2936 -1.5,-0.4654 -0.825,-0.1718 -4.2,-1.0742 -7.5,-2.00531 -3.3,-0.93115 -8.25,-2.15037 -11,-2.70937 -2.75,-0.55899 -5.7875,-1.06858 -6.75,-1.13242 l -1.75,-0.11606 0,-0.78572 0,-0.78571 -1.57193,0 c -0.86456,0 -3.67706,-1.20767 -6.25,-2.68372 l -4.67807,-2.68372 -3.5,-3.71669 c -1.925,-2.04419 -5.075,-5.58804 -7,-7.87523 -1.925,-2.28719 -4.22237,-4.96687 -5.10527,-5.95485 -0.88289,-0.98798 -1.96921,-3.09895 -2.41403,-4.69106 -0.44483,-1.5921 -0.71917,-3.2796 -0.60965,-3.74999 0.10952,-0.47039 -0.32177,-1.48289 -0.95841,-2.25 -0.63664,-0.76711 -0.86587,-1.39474 -0.50941,-1.39474 l 0.64813,0 -1.39116,-2.75 -1.39116,-2.75 0.18208,-5 c 0.10014,-2.75 0.5589,-6.35 1.01945,-8 0.46056,-1.65 1.11475,-3.225 1.45376,-3.5 0.33901,-0.275 1.16007,-1.7375 1.82459,-3.25 l 1.2082,-2.75 2.50682,0 2.50683,0 6.26461,3.13141 c 3.44554,1.72227 7.83962,3.85977 9.76462,4.75 1.925,0.89022 3.86279,2.18632 4.3062,2.88022 0.44341,0.6939 3.03091,2.38898 5.75,3.76685 2.71909,1.37787 4.9438,2.8754 4.9438,3.32785 0,0.45245 1.2375,1.38941 2.75,2.08212 l 2.75,1.25948 11,0.40451 c 6.05,0.22248 14.10977,0.38484 17.9106,0.36079 3.80082,-0.024 7.31805,-0.29553 7.81606,-0.60331 0.49801,-0.30779 4.32822,-0.72217 8.51158,-0.92085 l 7.60611,-0.36124 5.57782,-1.64249 c 3.06781,-0.90337 6.88248,-2.04588 8.47705,-2.53892 1.59458,-0.49303 3.70278,-0.89642 4.6849,-0.89642 0.98213,0 3.05248,-0.51883 4.60078,-1.15296 1.54831,-0.63412 3.75156,-1.23557 4.89611,-1.33654 1.14456,-0.10097 2.64161,-0.53005 3.32678,-0.95351 0.68517,-0.42346 4.23839,-1.14106 7.89606,-1.59467 l 6.65029,-0.82475 0.35834,-1.07502 0.35834,-1.07501 0.93888,0.58026 0.93889,0.58026 8.2257,-2.66414 c 4.52414,-1.46528 10.25071,-3.56949 12.72571,-4.67603 2.475,-1.10654 5.175,-2.55819 6,-3.22588 l 1.5,-1.21398 3.6137,-0.24889 3.61369,-0.24889 1.67159,1.67158 1.67158,1.67158 3.04989,-1.2633 c 1.67744,-0.69482 3.57406,-1.76375 4.21472,-2.37541 0.64066,-0.61165 4.53983,-2.63985 8.66483,-4.50712 4.125,-1.86726 10.43519,-5.23385 14.02265,-7.4813 3.58746,-2.24745 7.41246,-4.64985 8.5,-5.33867 1.08754,-0.68881 3.0206,-1.70186 4.29568,-2.25123 1.27509,-0.54936 3.97509,-2.23579 6,-3.74761 2.02492,-1.51182 3.83167,-3.08627 4.015,-3.49877 0.18334,-0.4125 0.97084,-0.75 1.75,-0.75 l 1.41667,0 0,-0.93261 0,-0.93261 2.25,-0.73441 c 1.2375,-0.40392 2.925,-0.80411 3.75,-0.88931 0.825,-0.0852 6,-2.28295 11.5,-4.88387 5.5,-2.60092 11.4625,-5.48338 13.25,-6.40547 1.7875,-0.92209 3.25,-1.9696 3.25,-2.3278 0,-0.35821 1.33504,-1.20427 2.96675,-1.88015 l 2.96674,-1.22886 0.57247,-1.80367 0.57246,-1.80367 3.71079,-2.78498 c 2.04093,-1.53173 5.39829,-4.4972 7.46079,-6.58992 2.0625,-2.09273 3.75,-4.06986 3.75,-4.39362 0,-0.32377 1.2375,-1.8998 2.75,-3.5023 1.5125,-1.6025 2.77045,-3.47458 2.79545,-4.16019 l 0.0455,-1.24656 1.20454,0.25 1.20451,0.25 0,-0.94098 c 0,-0.51754 -0.45,-1.2191 -1,-1.55902 l -1,-0.61803 0,0.84621 0,0.84621 -2.0799,0.15668 c -1.14395,0.0862 -2.61599,0.60158 -3.27119,1.14535 -0.65521,0.54377 -6.58175,3.6746 -13.1701,6.95739 l -11.97881,5.96872 -4.5,1.23337 -4.5,1.23337 -15,0.33825 c -8.25,0.18604 -17.40819,0.54044 -20.35153,0.78757 -2.94334,0.24713 -8.79334,1.16399 -13,2.03747 -4.20666,0.87348 -9.89847,2.03411 -12.64847,2.57917 -2.75,0.54506 -7.025,1.18554 -9.5,1.42328 -2.475,0.23774 -9.675,0.71889 -16,1.06923 l -11.5,0.63698 -4.45368,1.48668 -4.45368,1.48667 -2.29632,-0.57633 -2.29632,-0.57634 0,0.80476 0,0.80477 -1.75,0.0965 c -0.9625,0.0531 -3.325,0.6619 -5.25,1.35293 -1.925,0.69103 -4.7375,1.89446 -6.25,2.6743 -1.5125,0.77984 -2.75,1.19086 -2.75,0.91338 0,-0.27749 -1.35,-0.0339 -3,0.54128 l -3,1.04581 0,0.90218 c 0,0.49619 -0.0605,1.23967 -0.13442,1.65217 -0.0739,0.4125 -0.97393,1.33802 -2,2.0567 l -1.86558,1.30673 0,1.47468 0,1.47468 -1.5,0.5756 -1.5,0.57561 0,1.04862 c 0,0.57674 -1.0583,2.44109 -2.35179,4.14301 -1.29348,1.70191 -3.15183,4.64739 -4.12967,6.54549 -0.97784,1.89811 -2.38451,4.05773 -3.12594,4.79916 -0.74142,0.74142 -1.92816,2.17627 -2.63718,3.18854 -0.70902,1.01227 -3.30655,2.96681 -5.77228,4.34341 -2.46573,1.3766 -4.82064,2.55126 -5.23314,2.61035 -0.4125,0.0591 -1.5375,-0.5753 -2.5,-1.40975 -0.9625,-0.83446 -3.38441,-2.85946 -5.38202,-4.5 -1.9976,-1.64055 -4.125,-2.98281 -4.72754,-2.98281 l -1.09553,0 -7.27246,-7.60506 -7.27245,-7.60507 -3.75,-1.91526 -3.75,-1.91526 0,-0.96062 0,-0.96063 -2.75,-0.65336 c -1.5125,-0.35935 -3.43981,-1.24926 -4.28292,-1.97758 l -1.53291,-1.32422 -9.26173,-3.02659 c -5.09395,-1.66462 -9.57913,-2.95623 -9.96708,-2.87023 -0.38795,0.086 -2.95536,-0.17508 -5.70536,-0.58017 -2.75,-0.4051 -6.125,-0.88835 -7.5,-1.0739 -1.375,-0.18555 -3.4,-0.67248 -4.5,-1.08207 -1.1,-0.4096 -3.8,-1.54468 -6,-2.52241 l -4,-1.77769 -6,-5.93078 c -3.3,-3.26194 -7.15732,-7.23316 -8.57182,-8.82494 C 6.82531,860.86508 4.39269,856.93983 2.834,853.73408 L 0,847.90546 l 0.17353,-4.90286 0.17354,-4.90287 0.99542,-2.61816 0.99542,-2.61816 4.23687,0.4709 c 2.33027,0.259 5.36186,0.77691 6.73686,1.15091 1.375,0.37401 3.625,0.90799 5,1.18663 1.375,0.27864 3.86981,1.31071 5.54401,2.29348 l 3.04402,1.78686 3.20606,-0.0947 3.20606,-0.0947 -8e-5,0.61336 c -4e-5,0.33734 2.81243,1.22135 6.24993,1.96446 l 6.25,1.3511 7.24513,0.0355 7.24513,0.0355 0.005,0.61249 0.005,0.61248 2.75,-0.30216 c 1.5125,-0.16619 7.7,-0.37473 13.75,-0.46342 6.05,-0.0887 16.625,-0.5751 23.5,-1.08092 6.875,-0.50583 14.075,-1.12287 16,-1.37121 1.925,-0.24834 4.4,-0.67481 5.5,-0.9477 1.1,-0.2729 4.925,-1.18278 8.5,-2.02197 3.575,-0.83918 7.38853,-1.74706 8.47451,-2.01751 1.08597,-0.27044 5.25443,-1.46542 9.26324,-2.6555 l 7.28873,-2.16379 2.23676,-2.21541 c 1.23022,-1.21848 3.24926,-2.53148 4.48676,-2.91778 l 2.25,-0.70238 0,-0.93261 0,-0.93261 1.94098,0 1.94099,0 0.61803,-1 0.61803,-1 4.45077,0 4.45077,0 1.6943,1.9788 1.6943,1.9788 0.54592,-0.78458 c 0.30025,-0.43151 3.24591,-1.73581 6.54591,-2.89844 3.3,-1.16263 11.4,-3.97493 18,-6.24957 6.6,-2.27463 14.25,-4.96986 17,-5.98939 2.75,-1.01953 10.2875,-3.54772 16.75,-5.6182 l 11.75,-3.76452 0,-0.88547 0,-0.88546 0.93357,0.57698 0.93358,0.57698 4.31642,-1.57911 c 2.37404,-0.86851 5.89143,-2.04976 7.81643,-2.62501 1.925,-0.57524 3.95,-1.32833 4.5,-1.67354 0.55,-0.3452 1.225,-0.64948 1.5,-0.67616 0.275,-0.0267 2.33376,-1.22701 4.57502,-2.6674 2.24126,-1.44038 8.09126,-4.6436 13,-7.11827 4.90874,-2.47466 12.07498,-6.64417 15.92498,-9.26556 3.85,-2.62139 9.83823,-6.69302 13.30717,-9.04806 l 6.30717,-4.2819 5.48034,-2.05046 5.48035,-2.05046 16.21251,-0.0198 16.2125,-0.0198 6.9565,-1.00537 6.9566,-1.00538 0.7781,-1.22481 0.7781,-1.22482 0.015,1.44113 0.015,1.44113 1.3474,-1.84262 1.3473,-1.84262 0.6313,1.02144 0.6313,1.02144 4.2714,-1.24719 c 2.3492,-0.68596 10.1213,-2.93298 17.2713,-4.99337 l 13,-3.74618 9,-1.44586 c 4.95,-0.79522 12.6,-2.32721 17,-3.40442 4.4,-1.0772 8.8459,-2.15643 9.8798,-2.39828 1.0338,-0.24185 4.1838,-2.01212 7,-3.93394 l 5.1202,-3.49421 4.5,-0.9881 c 2.475,-0.54345 4.5,-0.97385 4.5,-0.95643 0,0.0174 1.2344,-0.27814 2.7431,-0.6568 l 2.7431,-0.68847 -0.5023,-0.8127 -0.5022,-0.81271 1.527,-1.52705 c 0.8399,-0.83988 1.4268,-1.88865 1.3042,-2.33062 -0.1226,-0.44196 0.3696,-2.60357 1.0936,-4.80357 0.724,-2.2 1.9579,-5.022 2.7419,-6.2711 l 1.4254,-2.27111 0.4294,-4.86828 c 0.2361,-2.67755 0.6925,-6.36216 1.0142,-8.18801 0.3217,-1.82585 1.0494,-3.87953 1.6173,-4.56375 l 1.0324,-1.24402 -0.293,-3.29687 c -0.1612,-1.81327 0.072,-6.56114 0.5183,-10.55081 l 0.8114,-7.25396 0.7333,-0.45319 0.7333,-0.4532 0.1334,-7.39517 0.1334,-7.39517 1.087,-2.85888 1.0869,-2.85887 0.3509,-8.0388 0.351,-8.03881 0.9618,-2.5 0.9618,-2.5 0.656,-13.5 0.656,-13.5 1.1524,-6.5 c 0.6339,-3.575 1.578,-7.0625 2.0982,-7.75 l 0.9457,-1.25 -1.1308,0 -1.1307,0 0.6002,-8.25 c 0.3301,-4.5375 0.5641,-8.925 0.52,-9.75 -0.044,-0.825 -0.1979,-5.43752 -0.3419,-10.25005 l -0.2617,-8.75006 0.75,6e-5 c 0.4125,3e-5 0.75,-0.39868 0.75,-0.88601 l 0,-0.88606 -3.6033,-1.70988 c -1.9818,-0.94044 -5.4316,-3.35422 -7.6662,-5.36395 l -4.0628,-3.65405 -2.9682,-6.5 -2.9682,-6.5 -0.3357,-3 c -0.1846,-1.65 -0.4244,-9.525 -0.533,-17.5 l -0.1973,-14.5 1.7882,-9.5 c 0.9836,-5.225 2.6199,-13.325 3.6362,-18 1.0164,-4.675 3.0273,-13.225 4.4687,-19 1.4413,-5.775 3.4615,-14.1 4.4893,-18.5 1.0278,-4.4 2.5974,-13.175 3.488,-19.5 0.8906,-6.325 1.8271,-12.625 2.0811,-14 0.254,-1.375 1.318,-7.225 2.3645,-13 1.0465,-5.775 2.3089,-12.57407 2.8053,-15.10903 l 0.9026,-4.60904 1.6554,-2.36347 c 0.9105,-1.29991 1.6582,-3.05084 1.6616,-3.89097 l 0.01,-1.52749 4.9938,-5.41961 c 2.7426,-2.98081 4.9898,-5.79331 4.9898,-6.25002 l 0,-0.83039 1.4252,0 1.4253,0 0.031,-6.25 c 0.017,-3.4375 0.2436,-7.825 0.5037,-9.75 0.2602,-1.925 0.4265,-8.9 0.3698,-15.5 -0.057,-6.6 -0.05,-14.7 0.014,-18 l 0.1175,-6 -2.1933,-4.20625 c -1.2064,-2.31344 -5.054,-8.37734 -8.5502,-13.47533 l -6.3569,-9.26907 -0.056,-5.89785 -0.056,-5.89784 2.2112,-1.66793 2.2112,-1.66792 -0.6263,-1.63221 -0.6264,-1.63222 2.1727,-1.16279 2.1727,-1.16279 -0.5989,-3.1639 c -0.3295,-1.74015 -0.8034,-4.21235 -1.0531,-5.49379 -0.2498,-1.28143 -0.7307,-3.201 -1.0686,-4.26569 l -0.6144,-1.93582 1.1525,-3.49198 1.1524,-3.49197 2.0798,-1.11309 2.0799,-1.11308 -1.6599,-0.92893 c -0.9129,-0.51091 -1.6599,-1.34032 -1.6599,-1.84312 0,-0.5028 1.875,-2.66317 4.1667,-4.80081 l 4.1666,-3.88663 0.2361,-5.89949 c 0.1298,-3.24473 0.6512,-10.3995 1.1586,-15.8995 l 0.9225,-10 -0.2546,-28.5 c -0.1401,-15.675 -0.4479,-31.47767 -0.6841,-35.11704 -0.2362,-3.63937 -0.6567,-7.01437 -0.9345,-7.5 -0.2777,-0.48563 -0.3316,-3.58296 -0.1198,-6.88296 0.2119,-3.3 0.3562,-6.45 0.3208,-7 -0.035,-0.55 -0.2968,-11.35 -0.5808,-24 -0.284,-12.65 -0.5506,-23.9 -0.5926,-25 -0.042,-1.1 0.5142,-4.67353 1.2359,-7.94118 l 1.3121,-5.94119 -1.1765,-0.39215 c -0.647,-0.21568 -1.1764,-0.74396 -1.1764,-1.17395 0,-0.43 0.9984,-2.05104 2.2186,-3.60232 1.2202,-1.55128 2.3054,-3.41196 2.4115,-4.13486 l 0.1929,-1.31435 -1.0339,0 -1.034,0 1.1138,-1.34201 1.1138,-1.34201 -0.6894,-0.68934 L 531.91404,0 l 12.8662,0.28135 12.8662,0.28136 0.4154,1.25068 0.4153,1.25068 -1.5835,-0.60767 -1.5836,-0.60767 0,1.60699 0,1.60699 -0.9426,0 -0.9426,0 0.3852,2 0.3852,2 -1.0651,0 -1.065,0 0.987,1.25 0.9869,1.25 0.5734,5.84826 0.5734,5.84827 -0.8392,2.20722 -0.8392,2.20722 0.7864,4.30064 0.7865,4.30063 -1.3094,5.63271 -1.3094,5.63271 0.8509,1.02524 0.8509,1.02524 0.8973,6.69765 0.8974,6.69764 -1.2582,1.28829 c -0.692,0.70855 -1.5616,2.52578 -1.9324,4.03828 l -0.6742,2.75 0.9479,0 0.9479,0 1.1605,2.54705 c 0.6383,1.40088 1.1605,3.33073 1.1605,4.28856 0,0.95783 -0.9,3.5068 -2,5.66439 l -2,3.92288 0,2.28856 0,2.28856 1.0755,0 1.0756,0 -0.2469,4.75 c -0.1358,2.6125 -0.6055,5.7543 -1.0439,6.98177 l -0.7969,2.23177 2.0885,1.11773 2.0885,1.11773 -0.7183,8.6505 c -0.395,4.75778 -0.5929,11.5755 -0.4398,15.1505 0.1532,3.575 0.2599,8.075 0.2373,10 -0.023,1.925 -0.5065,5.1875 -1.0751,7.25 l -1.0339,3.75 1.2669,0 1.2669,0 0.5687,3.75 0.5688,3.75 -1.3133,5 -1.3133,5 1.3724,0.32332 c 0.7548,0.17783 1.4057,0.62783 1.4466,1 0.041,0.37218 0.2607,1.67356 0.4884,2.89196 0.2278,1.21841 0.5012,2.56841 0.6077,3 0.1064,0.4316 -0.3296,2.57175 -0.9689,4.7559 l -1.1624,3.97118 1.4428,0.80744 1.4428,0.80743 -0.3218,5.22138 c -0.1769,2.87177 -0.6837,6.07543 -1.1261,7.11927 l -0.8043,1.89787 2.7404,-0.52384 2.7403,-0.52385 1.8291,1.96336 c 1.0061,1.07985 3.1704,4.73654 4.8097,8.12597 l 2.9805,6.16261 0.7821,4 c 0.4301,2.2 0.7063,4.3375 0.6137,4.75 l -0.1667,0.75 1.25,0.0153 1.25,0.0153 -1.2813,0.81303 -1.2812,0.81303 0.8242,2.22806 0.8242,2.22805 -0.8247,8.59196 -0.8248,8.59195 -2.3227,3.89505 -2.3227,3.89505 1.2429,7.7066 c 0.6835,4.23862 2.649,12.65659 4.3676,18.70659 1.7186,6.05 3.7606,12.35 4.5378,14 0.7772,1.65 2.0856,4.575 2.9074,6.5 0.8219,1.925 1.8454,4.625 2.2746,6 0.4292,1.375 0.8392,2.725 0.9111,3 0.072,0.275 0.5001,1.81666 0.9517,3.42592 0.4516,1.60926 2.0691,4.75926 3.5946,7 1.5254,2.24074 3.7068,4.64039 4.8474,5.33255 l 2.0739,1.25848 0,1.41326 0,1.41327 4.4333,6.61128 4.4334,6.61127 1.2716,3.71699 c 0.6994,2.04434 1.1794,4.05448 1.0667,4.46698 -0.1128,0.4125 0.2854,0.75 0.8847,0.75 0.5994,0 1.9344,-1.0125 2.9667,-2.25 1.0324,-1.2375 1.9008,-2.7 1.9299,-3.25 0.029,-0.55 2.2064,-3.2759 4.8385,-6.05756 l 4.7857,-5.05756 7.8086,-4.8669 7.8086,-4.86689 7.0517,0.18943 7.0518,0.18942 1.0844,0.85271 c 0.5964,0.46899 3.4108,1.61143 6.2542,2.53875 l 5.1698,1.68604 19.8302,0.23714 19.8302,0.23714 10.5,5.72954 10.5,5.72953 6.1298,6.22961 c 3.3714,3.42628 7.7589,7.51142 9.75,9.07809 l 3.6202,2.84849 0,1.07277 c 0,0.59002 0.5819,1.7832 1.2931,2.65151 0.7111,0.86831 1.8422,3.20242 2.5134,5.18691 l 1.2204,3.60818 0.095,8.39182 0.095,8.39183 -1.1797,6.5 c -0.6489,3.575 -2.0027,9.65 -3.0086,13.5 -1.0059,3.85 -2.8136,9.925 -4.0172,13.5 -1.2037,3.575 -2.7753,7.85 -3.4924,9.5 -0.7172,1.65 -2.471,5.58634 -3.8972,8.74743 l -2.5932,5.74743 -1.8887,9.08592 -1.8887,9.08592 3.374,13.03409 c 1.8557,7.16878 3.374,14.05749 3.374,15.30827 l 0,2.27415 2.331,0.58505 2.331,0.58505 4.919,5.37167 c 2.7055,2.95443 5.0483,6.00244 5.2063,6.77336 0.1581,0.77093 1.5081,2.38351 3,3.58352 1.492,1.20001 4.4234,3.67501 6.5143,5.5 l 3.8015,3.31817 2.9723,6.14737 c 1.6348,3.38105 3.5625,6.63711 4.2837,7.23568 l 1.3113,1.08832 1.269,4.26432 c 0.6979,2.34537 1.7136,5.38931 2.2572,6.76431 0.5436,1.375 0.9788,2.725 0.9671,3 -0.012,0.275 0.5916,1.17713 1.3406,2.00474 0.749,0.8276 2.5561,4.81579 4.0159,8.86264 l 2.6541,7.35792 -0.4736,1.8111 -0.4736,1.81111 1.4499,5.82624 c 0.7974,3.20444 1.8635,8.75125 2.369,12.32625 0.5055,3.575 1.1962,8.75 1.535,11.5 0.3387,2.75 1.0105,5.48287 1.493,6.07305 0.4824,0.59018 1.1402,3.26446 1.4618,5.94283 0.3215,2.67838 0.8815,5.34551 1.2444,5.92695 0.3629,0.58144 1.0352,3.53217 1.4939,6.55717 0.4587,3.025 1.0809,7.75 1.3827,10.5 l 0.5488,5 1.1114,1.36059 c 0.6113,0.74832 1.2677,2.54832 1.4587,4 0.1909,1.45167 0.7057,2.76814 1.1439,2.92547 l 0.7967,0.28605 -0.5957,3.71395 c -0.3277,2.04267 -0.5244,6.78427 -0.4372,10.5369 0.087,3.75263 0.472,7.57763 0.8551,8.5 0.383,0.92237 0.8617,3.70204 1.0637,6.17704 0.202,2.475 0.8666,6.99782 1.4769,10.05071 l 1.1096,5.55071 -0.4439,5.44929 c -0.2441,2.99711 -0.8109,6.30513 -1.2596,7.35115 l -0.8157,1.90187 0.9268,5.60391 0.9268,5.60392 -0.7742,4.99422 -0.7741,4.99422 1.0774,3.5 1.0775,3.5 -0.9145,5.75649 -0.9145,5.75648 0.9308,5.24352 c 0.5118,2.88393 0.8748,6.81851 0.8065,8.74351 -0.068,1.925 -0.2692,4.74878 -0.4463,6.27506 l -0.3222,2.77506 1.7728,6.72494 1.7727,6.72494 0.029,4.22629 c 0.016,2.32447 -0.3821,5.66132 -0.8851,7.41523 l -0.9145,3.18894 0.5842,2.32786 0.5843,2.32786 0.8933,-0.55211 0.8933,-0.5521 0,0.62475 c 0,0.34362 -0.4964,1.55241 -1.1032,2.6862 l -1.1033,2.06143 1.3533,0.85751 1.3532,0.85751 -1.0278,0.0153 -1.0277,0.0153 0.1599,5.75 0.1599,5.75 1.1699,4.30036 1.17,4.30037 -0.4555,2.88998 -0.4554,2.88999 1.5688,6.30965 1.5689,6.30965 1.0845,0.73469 1.0845,0.73468 -1.0426,0.0153 -1.0426,0.0153 -1.2289,4.59484 -1.2289,4.59485 -2.3722,2.11289 -2.3721,2.1129 -4.8559,-0.29862 -4.8559,-0.29861 -2.8103,-1.65912 -2.8103,-1.65913 -2.8919,-6 -2.8919,-6 -0.6969,-12 c -0.3833,-6.6 -0.8494,-16.275 -1.0358,-21.5 -0.1864,-5.225 -0.5572,-14.9 -0.824,-21.5 -0.2668,-6.6 -0.6869,-16.5 -0.9337,-22 -0.2467,-5.5 -0.7266,-17.15888 -1.0664,-25.90861 -0.3397,-8.74974 -0.866,-16.31032 -1.1694,-16.8013 -0.3035,-0.49098 -1.0143,-6.8321 -1.5796,-14.09139 -0.5654,-7.25928 -1.1427,-15.25266 -1.283,-17.76305 -0.1403,-2.51039 -0.5368,-5.45211 -0.8812,-6.53715 -0.3444,-1.08504 -0.6784,-4.65608 -0.7423,-7.93565 l -0.1162,-5.96285 -1.5138,-3.5 -1.5138,-3.5 -0.2749,-7.5 c -0.1512,-4.125 -0.7946,-12.675 -1.4298,-19 -0.6352,-6.325 -1.6027,-12.95012 -2.1501,-14.72249 l -0.9952,-3.22248 0.015,-9.108 0.014,-9.10799 -1.5682,-3.91952 -1.5683,-3.91952 -0.8324,0 c -0.4578,0 -1.0844,0.4077 -1.3923,0.90599 -0.308,0.4983 -1.4567,6.15145 -2.5528,12.56257 -1.096,6.41112 -2.1937,14.30783 -2.4394,17.54825 l -0.4466,5.89168 -1.0732,2.00524 c -0.5902,1.10289 -0.9715,2.36098 -0.8472,2.79576 0.1243,0.43478 -0.2814,1.70191 -0.9014,2.81584 -0.6201,1.11393 -2.2774,5.31685 -3.683,9.33982 l -2.5555,7.3145 -5.6367,10.50856 c -3.1002,5.7797 -7.4149,14.17678 -9.5881,18.66017 -2.1733,4.48339 -4.4543,9.05162 -5.069,10.15162 -0.6147,1.1 -3.6024,6.05 -6.6393,11 -3.0369,4.95 -6.9235,11.7 -8.6368,15 -1.7134,3.3 -5.495,9.81993 -8.4036,14.48874 -2.9087,4.66881 -6.1475,10.06881 -7.1975,12 -1.0499,1.93119 -2.4668,4.37604 -3.1485,5.433 -0.6818,1.05695 -2.0026,2.85695 -2.9351,4 -0.9326,1.14304 -2.8321,3.65326 -4.221,5.57826 -1.389,1.925 -3.7373,5.3 -5.2184,7.5 -1.4811,2.2 -3.2254,4.45 -3.8762,5 -0.6508,0.55 -2.602,3.16006 -4.3361,5.80013 -1.734,2.64007 -3.1527,5.22757 -3.1527,5.75 l 0,0.94987 -1.25,0.0667 -1.25,0.0667 -5.8316,12.18331 c -3.2073,6.70082 -7.6868,16.00831 -9.9545,20.68331 -2.2676,4.675 -6.1021,11.83083 -8.521,15.90184 -2.4189,4.07101 -5.2658,8.33335 -6.3265,9.47187 -1.0607,1.13851 -3.602,4.55768 -5.6475,7.59815 -2.0454,3.04048 -4.5813,6.20314 -5.6353,7.02814 -1.0539,0.825 -4.8789,3.63162 -8.5,6.23693 -3.621,2.60531 -8.9581,5.88647 -11.8602,7.29147 l -5.2766,2.55455 -8.2234,1.01995 c -4.5229,0.56097 -10.2989,1.46798 -12.8355,2.01558 -2.5366,0.5476 -7.8241,1.0663 -11.75,1.15267 l -7.138,0.15709 0,0.76115 0,0.76115 -2.6884,-1.02213 -2.6884,-1.02212 -2.1322,0.27941 -2.1323,0.27942 -2.5446,-1.6673 -2.5446,-1.66729 -0.8847,0.75505 c -0.4867,0.41528 -4.0348,2.07342 -7.8848,3.68476 l -7,2.9297 -7.5,-0.0819 -7.5,-0.0819 -6.7178,-3.27901 -6.7178,-3.27901 -0.5593,-1.76192 -0.5592,-1.76191 -3.2229,1.13096 c -1.7727,0.62203 -3.673,1.40548 -4.223,1.74099 -0.55,0.33552 -3.25,1.09225 -6,1.68164 -2.75,0.58938 -6.8,1.39599 -9,1.79246 -2.2,0.39647 -4.45,0.83178 -5,0.96736 -0.55,0.13558 -5.5,0.94712 -11,1.80344 -5.5,0.85631 -15.175,1.85298 -21.5,2.21481 -6.325,0.36184 -12.2875,0.63099 -13.25,0.59813 l -1.75,-0.0598 0,0.68785 0,0.68785 -4.0771,0.27994 c -2.2424,0.15397 -6.8543,0.9715 -10.2485,1.81674 -3.3943,0.84524 -7.9715,1.77144 -10.1715,2.05821 -2.2,0.28678 -7.825,1.83329 -12.5,3.43669 -4.675,1.60341 -9.1767,3.09157 -10.0039,3.30704 -0.8271,0.21546 -3.3021,0.91996 -5.5,1.56555 -2.1978,0.64559 -6.539,2.60526 -9.6471,4.35482 -3.108,1.74955 -8.73303,5.30584 -12.49998,7.90286 -3.76694,2.59702 -7.96836,5.52202 -9.33648,6.5 -1.36811,0.97798 -5.64311,4.84132 -9.5,8.58519 l -7.01251,6.80704 -4.78415,2.47711 c -2.63129,1.36241 -5.59165,3.24925 -6.5786,4.19296 -0.98695,0.94372 -2.99658,2.72537 -4.46585,3.95924 -1.46927,1.23386 -2.6714,2.03262 -2.6714,1.77502 0,-0.2576 -3.2625,1.24366 -7.25,3.33614 -3.9875,2.09247 -8.375,4.15246 -9.75,4.57775 -1.375,0.42529 -2.95,0.89698 -3.5,1.04819 -0.55,0.15122 -4.825,1.21793 -9.5,2.37047 -4.675,1.15254 -9.85,2.30983 -11.5,2.57174 -1.65,0.26192 -7.275,1.42207 -12.5,2.57811 -5.225,1.15604 -15.125,3.22352 -22,4.5944 -6.875,1.37087 -16.17392,3.36717 -20.66428,4.43622 l -8.16427,1.94372 -8.83573,0.55639 c -4.86127,0.30597 -11.53735,1.06243 -14.83735,1.68097 l -6,1.12462 -0.73469,1.08141 -0.73468,1.08142 -0.0153,-1.11133 -0.0153,-1.11133 -2.75,0.47907 -2.75,0.47906 -5.75,5.60096 c -3.1625,3.08053 -5.75,5.9894 -5.75,6.46416 0,0.4747 -3.6,4.4439 -8,8.8203 l -8,7.9571 0,1.1277 0,1.1276 -0.64848,-0.6484 -0.64848,-0.6485 -1.60152,1.8338 c -0.88084,1.0086 -3.04167,2.5754 -4.80186,3.4818 -1.76019,0.9064 -4.01019,1.6463 -5,1.6443 z m 401.03734,-300.22466 1.8371,-0.93515 9.1629,0.0634 9.163,0.0634 4.5444,-5.23163 c 2.4994,-2.8774 5.6123,-6.80663 6.9174,-8.73163 1.3052,-1.925 4.0935,-5.20015 6.1963,-7.27812 2.1027,-2.07797 3.7391,-4.10297 3.6364,-4.5 -0.1028,-0.39703 0.5973,-3.42188 1.5557,-6.72188 0.9584,-3.3 2.0181,-6.675 2.3549,-7.5 0.3368,-0.825 0.4871,-1.95 0.3339,-2.5 -0.1533,-0.55 -0.2219,-2.89058 -0.1526,-5.2013 0.069,-2.31071 0.5709,-5.37134 1.1146,-6.8014 0.5437,-1.43007 1.1864,-3.81448 1.4281,-5.29871 0.2417,-1.48422 0.7,-4.4386 1.0183,-6.56528 0.3183,-2.12668 0.7628,-4.16439 0.9877,-4.52824 0.2248,-0.36385 0.8911,-4.24884 1.4806,-8.63331 0.5895,-4.38447 1.2795,-9.66261 1.5333,-11.72919 0.2537,-2.06659 1.1113,-6.56659 1.9056,-10 0.7944,-3.43342 2.1663,-9.84257 3.0488,-14.24257 0.8824,-4.4 2.0527,-10.67015 2.6005,-13.93366 0.5479,-3.26353 0.9961,-7.67759 0.9961,-9.80904 l 0,-3.87535 -1,0.61803 -1,0.61803 0,-1.55901 0,-1.55902 -1.75,-0.0765 c -0.9625,-0.0421 -2.65,-0.24237 -3.75,-0.4451 -1.1,-0.20272 -4.475,-1.10266 -7.5,-1.99988 -3.025,-0.89721 -6.4,-2.01191 -7.5,-2.47711 -1.1,-0.46519 -3.125,-1.08775 -4.5,-1.38345 l -2.5,-0.53764 -7.4712,-4.92389 -7.4712,-4.92389 -1.0288,0.39457 -1.0288,0.39458 0.099,8.73916 0.099,8.73916 -1.2484,3.59175 c -0.6866,1.97546 -2.1934,8.22562 -3.3485,13.88924 l -2.1003,10.29748 0,4.61736 0,4.61736 -1.0889,3.4934 -1.089,3.4934 -0.3453,7.78589 -0.3454,7.78589 -1.0064,3.21411 c -0.5535,1.76776 -1.2991,6.81411 -1.6568,11.21411 l -0.6504,8 -1.7154,6 -1.7154,6 0.147,6.5 0.147,6.5 -1.2845,2 c -0.7065,1.1 -1.7125,3.91514 -2.2356,6.25586 l -0.9509,4.25587 0.895,0.55315 0.895,0.55315 0,2.39177 c 0,1.31546 -0.488,4.66701 -1.0843,7.44787 l -1.0844,5.05611 -0.7779,-0.48075 -0.7778,-0.48075 0.1414,2.22386 0.1414,2.22386 -1.0292,0.73469 -1.0292,0.73468 1.3724,0.0153 1.3725,0.0153 -1.2037,1.45036 -1.2037,1.45035 3.3313,0.90303 3.3312,0.90303 1.837,-0.93514 z m 92.663,-211.24339 2.5,-0.26996 8,-4.11083 c 4.4,-2.26095 9.0125,-4.9787 10.25,-6.03943 1.2375,-1.06073 2.25,-2.41897 2.25,-3.01831 l 0,-1.08971 1.0696,0 1.0695,0 -0.3195,-2.25 -0.3196,-2.25 -2,0.15138 c -1.1,0.0832 -5.6045,0.72164 -10.01,1.41863 l -8.0101,1.26726 -2.8261,-0.7093 -2.826,-0.7093 -2.2723,-2.27229 -2.2723,-2.27228 -0.7243,-4.93705 c -0.3983,-2.71538 -1.5018,-6.73705 -2.4522,-8.93705 l -1.728,-4 0.7174,-3.41135 0.7173,-3.41135 -0.5546,-1.58865 c -0.305,-0.87376 -1.5323,-2.93865 -2.7273,-4.58865 -1.195,-1.65 -3.1477,-5.025 -4.3392,-7.5 -1.1915,-2.475 -3.9722,-6.87163 -6.1793,-9.77029 -2.2072,-2.89865 -4.013,-5.64141 -4.013,-6.09501 0,-0.4536 -0.9,-1.63921 -2,-2.6347 -1.1,-0.99549 -2,-2.18634 -2,-2.64633 0,-0.46 -1.6295,-2.97776 -3.6211,-5.59502 -1.9917,-2.61726 -3.9737,-4.98365 -4.4045,-5.25865 -0.4309,-0.275 -0.8837,-0.95 -1.0062,-1.5 -0.1226,-0.55 -0.4576,-1.675 -0.7445,-2.5 -0.287,-0.825 -1.2801,-2.4 -2.2071,-3.5 -0.9269,-1.1 -3.6723,-6.60237 -6.1009,-12.2275 l -4.4157,-10.2275 -1.25,-0.0225 -1.25,-0.0225 0,2.42857 0,2.42857 -1.5714,1.57143 -1.5715,1.57143 1.1917,0 1.1918,0 -0.556,5.75 c -0.3059,3.1625 -0.7968,6.82842 -1.0911,8.14649 -0.2943,1.31807 -1.0143,3.84849 -1.6,5.62317 l -1.0649,3.22668 -0.5349,7.87683 c -0.2941,4.33226 -0.6693,11.92683 -0.8336,16.87683 l -0.2989,9 -1.1531,4.19042 -1.1531,4.19042 0.1445,7.46192 0.1444,7.46191 -1.4483,2.90324 -1.4483,2.90324 0.755,1.94443 c 0.4153,1.06943 1.0247,3.19784 1.3543,4.72979 l 0.5993,2.78537 2.722,1.05514 2.7221,1.05515 3,-1.00394 c 1.65,-0.55216 6.375,-1.29066 10.5,-1.6411 l 7.5,-0.63718 6.5,2.05366 c 3.575,1.12952 8.9366,3.26843 11.9147,4.75314 2.9781,1.48471 6.4873,3.62083 7.7983,4.74693 1.311,1.12611 4.0494,3.68956 6.0853,5.69657 l 3.7017,3.6491 2.5,-0.26997 z"
     id="path2989"
     inkscape:connector-curvature="0" />
</svg>
