<?xml version="1.0" encoding="UTF-8" standalone="no"?>
<!-- Created with Inkscape (http://www.inkscape.org/) -->

<svg
   xmlns:dc="http://purl.org/dc/elements/1.1/"
   xmlns:cc="http://creativecommons.org/ns#"
   xmlns:rdf="http://www.w3.org/1999/02/22-rdf-syntax-ns#"
   xmlns:svg="http://www.w3.org/2000/svg"
   xmlns="http://www.w3.org/2000/svg"
   xmlns:sodipodi="http://sodipodi.sourceforge.net/DTD/sodipodi-0.dtd"
   xmlns:inkscape="http://www.inkscape.org/namespaces/inkscape"
   id="svg2"
   version="1.1"
   inkscape:version="0.48.2 r9819"
   width="622.11426"
   height="1083.8008"
   sodipodi:docname="tumblr_n4iij1Eq7P1qac76ro1_1280f.png">
  <metadata
     id="metadata8">
    <rdf:RDF>
      <cc:Work
         rdf:about="">
        <dc:format>image/svg+xml</dc:format>
        <dc:type
           rdf:resource="http://purl.org/dc/dcmitype/StillImage" />
        <dc:title></dc:title>
      </cc:Work>
    </rdf:RDF>
  </metadata>
  <defs
     id="defs6" />
  <sodipodi:namedview
     pagecolor="#ffffff"
     bordercolor="#666666"
     borderopacity="1"
     objecttolerance="10"
     gridtolerance="10"
     guidetolerance="10"
     inkscape:pageopacity="0"
     inkscape:pageshadow="2"
     inkscape:window-width="1600"
     inkscape:window-height="876"
     id="namedview4"
     showgrid="false"
     fit-margin-top="0"
     fit-margin-left="0"
     fit-margin-right="0"
     fit-margin-bottom="0"
     inkscape:zoom="1"
     inkscape:cx="233.16839"
     inkscape:cy="495.43159"
     inkscape:window-x="0"
     inkscape:window-y="24"
     inkscape:window-maximized="1"
     inkscape:current-layer="svg2" />
  <path
     style="fill:#000000"
     d="m 475.66839,1083.2318 c -9.46833,-1.3824 -16.47943,-3.4768 -24,-7.1692 -1.88644,-0.9262 -17.28085,-0.7559 -18.84118,0.2084 -0.63735,0.3939 -1.15882,0.2397 -1.15882,-0.3428 0,-0.5824 -1.0125,-1.0432 -2.25,-1.024 -3.48594,0.054 -13.4504,-5.2679 -14.66336,-7.8321 -2.38426,-5.0401 -0.65444,-11.664 4.98115,-19.0741 3.32323,-4.3696 4.12231,-6.2668 4.2853,-10.1745 0.18857,-4.5208 2.89236,-9.5387 4.5783,-8.4967 1.34963,0.8341 2.63401,-1.0821 3.83519,-5.722 1.48828,-5.7487 1.56417,-11.0048 0.22835,-15.8135 -0.54666,-1.9679 -1.16287,-5.029 -1.36936,-6.8025 -0.20649,-1.77341 -1.33171,-4.24241 -2.5005,-5.48651 -1.16879,-1.2441 -2.12544,-3.358 -2.12588,-4.6976 -8.4e-4,-2.487 -2.99867,-11.2683 -4.28655,-12.5562 -0.39195,-0.3919 -0.71704,-1.6501 -0.72241,-2.796 -0.0129,-2.7556 -4.00674,-10.5932 -9.36026,-18.36882 -2.76902,-4.02181 -4.77653,-8.34357 -5.57414,-12 -0.6856,-3.14296 -1.59245,-6.61448 -2.01522,-7.71448 -0.95503,-2.48489 -0.1316,-8.67427 1.05633,-7.94009 0.48012,0.29673 0.60939,-0.77828 0.28726,-2.38892 -0.33635,-1.68175 -0.11709,-3.21804 0.51506,-3.60873 0.60541,-0.37416 1.10074,-2.43138 1.10074,-4.57159 0,-2.42895 0.5669,-4.20854 1.50853,-4.7355 1.31408,-0.7354 1.24061,-1.39872 -0.56996,-5.14619 -1.14317,-2.36608 -1.81917,-4.97775 -1.50222,-5.8037 0.31694,-0.82595 -0.15099,-3.59503 -1.03986,-6.1535 -1.47047,-4.23254 -1.87537,-15.47951 -1.0675,-29.65178 0.16867,-2.95888 0.0956,-3.00391 -5.32899,-3.28564 -3.025,-0.1571 -6.86151,-0.91779 -8.52557,-1.69042 -1.66406,-0.77263 -4.85877,-1.37948 -7.09936,-1.34855 -2.24058,0.0309 -4.93182,-0.40299 -5.98053,-0.96424 -1.04871,-0.56125 -3.9715,-0.78773 -6.49509,-0.50328 l -4.58836,0.51717 -1.73293,6.13748 c -0.95312,3.37561 -2.38619,7.71248 -3.18462,9.63748 -2.65676,6.40548 -1.76972,12.78959 2.93838,21.1476 2.27323,4.03554 2.63232,5.87924 2.72668,14 0.13913,11.97298 0.12858,12.08612 -1.0586,11.3524 -0.55,-0.33992 -1.03037,-0.25398 -1.06749,0.19098 -0.29959,3.59134 -1.04815,8.06743 -1.55679,9.30902 -1.04765,2.55732 -1.32903,44.0892 -0.29437,43.4497 0.51817,-0.3202 1.2181,0.7976 1.55539,2.484 0.3373,1.6865 1.00701,3.0663 1.48826,3.0663 0.48125,0 0.875,0.6093 0.875,1.354 0,0.7447 1.16912,2.6155 2.59805,4.1573 4.03674,4.3557 6.5615,9.9929 7.30686,16.31431 0.41623,3.5301 1.57238,7.036 2.96542,8.9923 1.80841,2.5397 2.12595,3.8798 1.52695,6.4443 -0.91068,3.8989 -0.57383,7.7859 0.82224,9.4878 0.71085,0.8666 0.68108,1.25 -0.0971,1.25 -1.97394,0 -1.20201,2.0325 1.12756,2.9688 1.2375,0.4975 1.88698,0.933 1.4433,0.9678 -0.44369,0.035 -0.10619,1.0635 0.75,2.2859 1.96166,2.8007 1.9902,4.1578 0.0719,3.4217 -0.86381,-0.3314 -1.90933,0.2236 -2.5,1.3273 -1.49785,2.7988 -1.17421,3.8227 0.50622,1.6015 0.80183,-1.0598 1.69474,-1.6901 1.98425,-1.4006 1.00131,1.0013 1.24683,10.8625 0.28525,11.4568 -0.53086,0.3281 -0.74313,1.4457 -0.47171,2.4837 0.33272,1.2723 -0.0461,1.9128 -1.16288,1.966 -1.04835,0.05 -1.19524,0.2649 -0.40015,0.5855 1.77106,0.714 0.51075,2.3356 -1.81525,2.3356 -1.06754,0 -1.82848,0.3375 -1.69098,0.75 0.1375,0.4125 -0.2,0.9429 -0.75,1.1786 -0.55,0.2357 -1.65974,1.0883 -2.4661,1.8946 -1.21961,1.2196 -3.74146,1.3429 -15,0.7332 -7.44364,-0.4031 -17.1339,-0.913 -21.5339,-1.1331 -12.20135,-0.6102 -16.47218,-1.3955 -18.47336,-3.3967 -1.00606,-1.006 -2.7994,-2.1371 -3.9852,-2.5134 -2.60511,-0.8269 -3.64705,-3.434 -3.92853,-9.83 -0.26535,-6.0296 3.14451,-11.8706 9.43318,-16.1586 3.31722,-2.2619 4.82925,-4.2307 6.39877,-8.3321 1.13032,-2.9538 2.05993,-5.8929 2.06579,-6.5315 0.006,-0.6385 1.53209,-2.639 3.39163,-4.4455 2.4424,-2.3727 3.53191,-4.4547 3.92467,-7.5 0.5761,-4.46671 0.20656,-14.14401 -0.73774,-19.31971 -0.61769,-3.3855 -5.46472,-14.5893 -6.66145,-15.3977 -1.62339,-1.0967 -9.0119,-15.98759 -11.18431,-22.541 -1.26843,-3.82641 -3.5296,-8.86066 -5.02484,-11.18723 -1.49517,-2.32657 -2.71854,-4.54114 -2.71854,-4.92126 0,-0.38012 -0.59438,-1.40156 -1.32084,-2.26987 -1.6158,-1.9313 -4.34969,-14.10635 -5.29456,-23.57874 l -0.69826,-7 -1.3501,5.8826 c -0.74256,3.23543 -1.55559,7.28543 -1.80673,9 -0.25115,1.71457 -1.14803,6.26723 -1.99307,10.11703 -1.71375,7.80739 -1.96685,18.93815 -0.56784,24.9723 1.01845,4.39275 0.49075,5.82384 -1.30036,3.5265 -0.64253,-0.82414 -2.86213,-2.7637 -4.93243,-4.31015 l -3.76419,-2.81171 0.53524,-7.18829 c 0.29439,-3.95355 0.74088,-7.86328 0.9922,-8.68828 0.25133,-0.825 1.12906,-6 1.95051,-11.5 0.82146,-5.5 2.1766,-12.44225 3.01143,-15.42722 0.83484,-2.98498 1.35342,-5.59169 1.15241,-5.7927 -1.96917,-1.96918 -9.61341,23.36394 -9.61341,31.85899 0,2.26814 -0.4099,3.72563 -0.95333,3.38977 -0.52433,-0.32405 -1.4226,1.15354 -1.99615,3.28353 -0.57355,2.13 -1.90407,4.86577 -2.95673,6.07948 l -1.91391,2.20677 -0.72177,-7.79931 c -0.39697,-4.28962 -1.33744,-8.68694 -2.08994,-9.77182 -2.28804,-3.29869 -1.5814,-6.76932 3.48495,-17.11614 5.54239,-11.31903 7.98698,-15.09262 13.84968,-21.37913 l 4.16658,-4.46778 -3.0495,-1.28222 c -1.67723,-0.70522 -3.61824,-1.28222 -4.31337,-1.28222 -0.69513,0 -1.7828,-1.2528 -2.41704,-2.784 -1.22114,-2.94809 -0.19003,-7.25328 3.3998,-14.19524 1.88965,-3.65419 1.61329,-4.22726 -2.23299,-4.63053 -8.43703,-0.88461 -15.71336,-2.42548 -20.90563,-4.42707 -1.18214,-0.45571 -3.10944,-0.57749 -4.28288,-0.27063 -1.20032,0.31389 -2.88461,-0.0938 -3.85065,-0.93201 -1.56618,-1.35897 -4.16777,-2.06042 -12.71712,-3.42883 -1.65,-0.26409 -3.675,-0.73093 -4.5,-1.03741 -0.825,-0.30649 -2.83431,-0.72989 -4.46513,-0.9409 -1.63083,-0.211 -3.40833,-0.82684 -3.95,-1.36851 -0.54168,-0.54168 -2.15487,-0.98487 -3.58487,-0.98487 -1.43,0 -3.06144,-0.46144 -3.62541,-1.02541 -1.01042,-1.01042 -4.99686,-1.9027 -10.87459,-2.43405 -1.65,-0.14917 -3.675,-0.52051 -4.5,-0.82522 -0.825,-0.30471 -3.91684,-0.83802 -6.87076,-1.18513 l -5.37076,-0.63111 0.68322,3.64184 c 0.37577,2.00301 0.86276,6.92669 1.08222,10.94152 0.21945,4.01483 1.07507,10.16121 1.90137,13.65862 1.81579,7.68558 6.23326,33.2295 7.06599,40.85894 0.73165,6.70344 2.353,14.7982 3.50518,17.5 0.46909,1.1 1.06459,3.125 1.32334,4.5 0.47857,2.54319 4.03126,19.02396 8.19149,38 1.26609,5.775 3.44522,15.9 4.8425,22.5 1.39728,6.6 3.17963,13.80001 3.96079,16.00001 0.78116,2.2 1.42138,4.225 1.42272,4.5 0.009,1.8652 1.84301,11.5369 4.45608,23.5 4.2633,19.5183 4.71364,21.7638 4.76307,23.75 0.0708,2.8455 -3.61743,5.75 -7.30146,5.75 -5.87857,0 -6.1004,-0.5783 -13.14617,-34.2716 -1.35389,-6.4745 -2.88671,-12.566 -3.40627,-13.5368 -1.03427,-1.9325 -4.59788,-16.32751 -5.61751,-22.69161 -0.35248,-2.2 -0.89031,-4.675 -1.19518,-5.5 -0.30488,-0.825 -0.67913,-2.4 -0.83169,-3.5 -0.51167,-3.6894 -6.353,-32.92336 -7.98157,-39.94512 -0.88593,-3.81982 -2.03624,-10.79482 -2.55623,-15.5 -0.51999,-4.70519 -1.62268,-11.93577 -2.45043,-16.06797 -0.82774,-4.1322 -1.7604,-9.0822 -2.07257,-11 -1.09881,-6.75049 -1.42845,-8.58114 -3.41886,-18.98691 -1.10465,-5.775 -2.1528,-12.075 -2.32924,-14 -0.69326,-7.56378 -5.89423,-32.67186 -7.37391,-35.59812 -0.93137,-1.84191 -1.33532,-4.27475 -0.99622,-6 0.3137,-1.59603 -0.3267,-8.07688 -1.4231,-14.40188 -1.09641,-6.325 -2.37636,-13.975 -2.84435,-17 -0.46799,-3.025 -2.0545,-12.25 -3.5256,-20.5 -2.36907,-13.28597 -4.20906,-25.03346 -4.62052,-29.5 -0.076,-0.825 -0.53108,-2.00121 -1.01128,-2.61379 -0.4802,-0.61259 -1.52401,-6.36093 -2.31957,-12.7741 -0.79556,-6.41317 -1.64032,-11.98696 -1.87726,-12.38621 -0.23693,-0.39924 -0.74588,-3.8759 -1.13099,-7.7259 -0.38512,-3.85 -1.10722,-7.4914 -1.60467,-8.09201 -0.49744,-0.6006 -0.63709,-1.35937 -0.31032,-1.68614 0.32677,-0.32677 -0.58243,-6.20684 -2.02045,-13.06683 -2.73382,-13.04149 -4.67187,-25.33451 -7.04006,-44.65502 -0.77529,-6.325 -1.66393,-12.175 -1.97476,-13 -0.72816,-1.93263 -2.44546,-12.93456 -3.12182,-20 -0.28958,-3.025 -1.16369,-8.65 -1.94247,-12.5 -0.77878,-3.85 -1.87794,-10.99231 -2.44258,-15.8718 -0.56465,-4.87949 -1.42546,-9.37949 -1.91293,-10 -0.48747,-0.62051 -1.18639,-3.1532 -1.55316,-5.6282 -1.32997,-8.97484 -2.64414,-18.60611 -3.20653,-23.5 -0.31602,-2.75 -1.1779,-8.15 -1.91528,-12 -0.73738,-3.85 -1.62991,-9.475 -1.9834,-12.5 -0.99693,-8.53126 -1.23724,-9.00037 -4.30394,-8.40173 -1.61422,0.31511 -3.49576,-0.0875 -4.6941,-1.00437 -1.96139,-1.50075 -1.96235,-1.53091 -0.05,-1.5621 1.51667,-0.0247 1.68333,-0.29847 0.75,-1.2318 -1.73367,-1.73367 -1.52014,-7.73992 0.3,-8.43837 2.46078,-0.94429 1.70257,-2.36163 -1.26335,-2.36163 -1.51984,0 -5.04732,-1.53812 -7.83884,-3.41803 -4.43206,-2.98473 -5.02273,-3.77744 -4.65938,-6.25311 0.30731,-2.09389 -0.25768,-3.46804 -2.16117,-5.25628 -1.86984,-1.75662 -2.57726,-3.43769 -2.57726,-6.12445 0,-2.07182 -0.66081,-4.25166 -1.5,-4.94813 -2.00713,-1.66577 -1.90133,-5.89905 0.20561,-8.2272 1.40205,-1.54924 1.48819,-2.23284 0.48398,-3.84082 -2.02552,-3.24338 1.19671,-10.93198 4.58151,-10.93198 0.47009,0 2.17641,-1.39676 3.79181,-3.1039 1.6154,-1.70715 3.66732,-3.39465 4.55983,-3.75 1.46816,-0.58456 1.48604,-1.16999 0.18769,-6.1461 -0.78928,-3.025 -1.27237,-6.9625 -1.07354,-8.75 0.19883,-1.7875 0.11437,-3.25089 -0.18769,-3.25199 -0.71677,-0.003 -1.33597,-5.11026 -1.45453,-11.99801 -0.0521,-3.025 -0.37971,-5.725 -0.72809,-6 -0.34837,-0.275 -1.65031,-6.575 -2.89319,-14 -1.24287,-7.425 -2.87033,-14.38763 -3.61658,-15.47251 -0.74625,-1.08487 -1.35681,-3.95799 -1.35681,-6.3847 0,-2.42671 -0.52778,-7.27658 -1.17285,-10.77749 -0.95178,-5.1655 -1.52965,-6.3653 -3.06574,-6.3653 -1.04109,0 -2.79663,-0.48367 -3.90121,-1.07482 -1.681848,-0.9001 -2.098208,-0.73104 -2.561338,1.03998 -0.53458,2.04425 -0.62116,2.05508 -2.59551,0.32482 -1.55879,-1.36609 -1.91413,-1.43476 -1.5005,-0.28998 0.43688,1.20911 -0.49986,1.51461 -4.83043,1.57531 -4.24876,0.0596 -5.37562,-0.25417 -5.38773,-1.5 -0.0118,-1.21353 -0.20486,-1.27649 -0.84064,-0.27414 -0.66867,1.05419 -1.34834,1.06287 -3.58064,0.0458 -2.32701,-1.06026 -2.88906,-1.01642 -3.61571,0.28204 -0.58142,1.03893 -1.8473,1.3926 -3.90405,1.09073 -1.67401,-0.24569 -3.04206,-0.73313 -3.04011,-1.08321 0.002,-0.35007 0.44393,-7.6115 0.98217,-16.1365 0.53824,-8.525 1.42865,-23.15 1.97868,-32.5 0.61771,-10.50044 1.76671,-20.05862 3.00527,-25 1.10287,-4.4 2.30249,-10.25 2.66584,-13 1.06338,-8.04816 5.06265,-15.4743 9.29056,-17.25139 3.16763,-1.33144 3.34657,-1.58865 1.57394,-2.26244 -2.92189,-1.11064 -6.5,-6.46913 -6.5,-9.73424 0,-1.55597 0.85282,-4.5018 1.89515,-6.54627 1.04233,-2.04448 1.55146,-3.92964 1.1314,-4.18925 -0.42007,-0.25962 -1.07097,-3.58978 -1.44646,-7.40036 -0.64356,-6.53113 -1.05828,-7.48673 -5.56899,-12.83181 -1.34485,-1.59361 -4.04372,-0.53282 -3.33608,1.31125 0.3018,0.78649 0.015,2.07304 -0.63725,2.859 -0.6523,0.78597 -1.26514,3.51392 -1.36188,6.06213 -0.15895,4.18679 -0.43861,4.68566 -2.90318,5.1787 -2.14626,0.42936 -2.86301,1.26912 -3.36441,3.9418 -0.36348,1.93749 -0.10621,4.67798 0.59898,6.38045 1.4338,3.4615 0.37954,5.41755 -3.43607,6.3752 -3.02385,0.75891 -5.57121,6.97137 -5.57121,13.58697 0,4.07041 -0.47076,5.3758 -2.67609,7.4207 -3.51494,3.25923 -5.43225,2.1825 -7.21799,-4.05349 -0.76338,-2.66584 -1.93998,-6.64698 -2.61465,-8.84698 -0.67468,-2.2 -2.21874,-7.375 -3.43126,-11.5 -1.21252,-4.125 -2.79288,-9.075 -3.51192,-11 -0.71904,-1.925 -2.2386,-7.1 -3.37679,-11.5 -1.13819,-4.4 -4.73083,-16.1 -7.98365,-26 -3.25282,-9.9 -7.60516,-23.4 -9.67186,-30 -2.06671,-6.6 -5.01856,-15.825 -6.55966,-20.5 -1.5411103,-4.675 -4.1775803,-13.45 -5.8588203,-19.5 -1.68125,-6.05 -3.5441,-12.459877 -4.13967999,-14.244167 -0.59558,-1.78429 -0.80313,-3.69679 -0.46123,-4.25 1.06207999,-1.71848 3.13453999,-1.10897 4.23041999,1.24417 1.13411,2.43523 9.3461603,13.886877 14.4139803,20.100187 4.45356,5.46022 8.61187,7.77986 12.6092,7.0338 2.34702,-0.43804 3.28205,-0.22835 3.36535,0.75472 0.0634,0.74871 0.2199,1.81129 0.34768,2.36129 0.12779,0.55 0.30088,2.27212 0.38466,3.82692 0.09,1.67087 1.39812,4.07273 3.1987,5.87332 2.55217,2.55216 3.59728,2.95699 6.44203,2.49535 3.21378,-0.52152 3.41214,-0.38251 3.70361,2.59549 0.32193,3.28912 2.64442,5.08028 8.0007,6.1703 2.34819,0.47786 2.73205,1.09118 3,4.7933 0.25277,3.49236 0.63503,4.18921 2.15523,3.92899 1.01638,-0.17399 2.71104,0.46474 3.76591,1.41938 1.82457,1.65121 1.98864,1.64227 3.37023,-0.18367 2.44722,-3.23429 2.46155,-28.86241 0.0263,-47.11298 -0.86639,-6.49352 -2.03604,-15.406397 -2.59918,-19.806397 -0.56315,-4.4 -2.10606,-13.625 -3.42871,-20.5 -1.32265,-6.875 -2.5998,-13.625 -2.83811,-15 -0.23832,-1.375 -0.91416,-5.2 -1.50187,-8.5 -3.32128,-18.649 -5.19225,-31.80618 -5.40363,-38.0000003 -0.22193,-6.50265995 -0.0851,-7.02189995 1.92521,-7.30829995 2.44956,-0.34896 2.85558,0.57592 3.86683,8.80829995 0.37159,3.0250003 2.00517,11.8000003 3.63017,19.5000003 3.12114,14.78932 4.62131,22.71937 7.37784,39 0.93123,5.5 2.06313,11.35 2.51535,13 0.45221,1.65 1.5523,7.5 2.44463,13 1.85748,11.448737 5.42577,29.569147 6.00846,30.511947 0.21605,0.34958 0.84707,3.9774 1.40226,8.06183 2.08882,15.36689 3.89928,20.59725 6.75084,19.50301 6.20586,-2.38142 9.0438,-0.84824 8.00881,4.3267 l -0.5797,2.89852 3.19272,-1.59274 c 1.800058,-0.89799 6.715318,-1.77762 11.268438,-2.0166 6.88606,-0.36143 8.72933,-0.096 12.51248,1.80175 2.44022,1.22409 5.71443,3.41361 7.27604,4.8656 2.65608,2.46964 6.20683,8.0205 5.48446,8.57381 -0.17806,0.13638 -2.46124,0.82804 -5.07374,1.53703 -2.6125,0.70898 -4.7664,1.79308 -4.78644,2.4091 -0.0635,1.95022 -7.17036,6.62004 -10.0749,6.62004 -1.60149,0 -3.22333,-0.74522 -3.80856,-1.75 -0.85015,-1.45961 -1.02433,-1.23103 -1.04969,1.37756 -0.0167,1.72015 0.66589,3.70543 1.51692,4.41172 0.85104,0.7063 1.17302,1.5489 0.71553,1.87245 -0.45749,0.32355 -1.86295,1.92988 -3.12324,3.56962 -1.84229,2.39699 -2.91291,2.91617 -5.46212,2.64877 -3.07443,-0.32249 -3.11767,-0.27399 -1.4241,1.59739 0.96063,1.06148 1.7466,2.39133 1.7466,2.95521 0,1.60626 -4.52075,6.07832 -6.537238,6.46683 -3.78193,0.72866 -3.8633,9.6137 -0.15017,16.39727 6.213548,11.3516 6.760498,13.87487 4.108318,18.95318 -1.81294,3.47137 -1.30429,7.4443 1.45112,11.33416 2.81348,3.97184 7.84029,20.68241 8.62315,28.66584 0.37753,3.85 1.32056,9.84042 2.09562,13.31205 1.96445,8.79914 1.87808,21.57621 -0.15963,23.61392 -1.35565,1.35565 -1.41837,2.6223 -0.46154,9.32143 0.60901,4.26393 2.41349,13.6026 4.00996,20.7526 3.51161,15.72718 7.19928,35.53626 7.6326,41 0.42044,5.30137 2.40062,17.16203 6.56768,39.33836 l 1.00311,5.33837 2.22296,-2.08837 c 1.4809,-1.39123 3.53672,-2.08608 6.15851,-2.08153 3.33207,0.006 4.28174,0.51535 6.19322,3.32307 2.03455,2.98852 2.15919,3.83549 1.26122,8.57051 -0.54805,2.88985 -1.25157,5.66705 -1.56337,6.17157 -0.31181,0.50451 0.80606,2.3822 2.48415,4.17265 1.67809,1.79046 3.05316,3.64292 3.0557,4.11659 0.003,0.47367 1.79541,3.00011 3.98413,5.6143 2.95542,3.52992 5.13543,5.07672 8.47132,6.01071 2.5883,0.72468 4.72399,1.98919 5.03971,2.98394 0.84036,2.64772 5.07033,4.26389 6.53638,2.4974 0.79594,-0.95905 2.75921,-1.32393 6.0449,-1.12348 3.76511,0.22971 5.42797,0.90314 7.3494,2.97639 2.51362,2.71225 5.57879,3.58673 5.57879,1.59162 0,-0.71518 1.37041,-0.85637 4,-0.4121 3.91106,0.66077 4,0.61058 4,-2.25711 0,-1.71623 -0.87583,-3.72318 -2.11125,-4.8379 -1.78496,-1.61057 -2.02792,-2.67775 -1.57206,-6.90499 0.75113,-6.96536 3.61285,-15.31895 6.75041,-19.70503 4.91459,-6.87024 14.40334,-13.83002 23.2409,-17.04668 4.5056,-1.63994 9.98474,-3.21148 12.17587,-3.49233 2.45046,-0.31409 6.6844,-2.30774 11,-5.17961 11.33213,-7.54111 36.51613,-17.36873 36.51613,-14.24979 0,0.57703 0.7875,1.06693 1.75,1.08868 3.11567,0.0704 6.19258,0.694 6.8963,1.39772 0.37787,0.37787 1.43599,0.68704 2.35139,0.68704 0.91539,0 2.26926,1.13029 3.0086,2.51176 1.51849,2.83731 2.58217,2.7142 9.8258,-1.13728 2.45618,-1.30596 5.20362,-2.37448 6.10541,-2.37448 0.90179,0 3.40491,-0.9 5.5625,-2 2.15759,-1.1 4.84023,-2.00168 5.96144,-2.00374 1.12121,-0.002 3.40398,-0.8364 5.07282,-1.8541 4.99047,-3.04331 16.58024,-4.30312 18.91574,-2.05615 1.55573,1.49676 2.72411,1.04013 2.1391,-0.83601 -1.16076,-3.7226 -1.42025,-15.06581 -0.49755,-21.75 0.99573,-7.21328 2.14646,-11.61246 4.51224,-17.25 l 1.36385,-3.25 -3.23382,-0.0153 c -5.3044,-0.0251 -7.75332,-2.61492 -5.42273,-5.73469 0.51359,-0.6875 0.6537,-1.25 0.31135,-1.25 -1.03684,0 2.68914,-3.32498 7.13867,-6.37038 2.3066,-1.57872 4.69114,-3.46962 5.29897,-4.20202 1.16795,-1.40729 0.32865,-5.78588 -0.95677,-4.99145 -0.41399,0.25586 -1.7056,-1.49614 -2.87025,-3.89333 -1.57549,-3.24284 -2.86358,-4.52239 -5.032,-4.99866 -1.75818,-0.38616 -3.4666,-1.71212 -4.30616,-3.34214 -0.76544,-1.48611 -1.68355,-2.92702 -2.04025,-3.20202 -1.46358,-1.12838 -1.32317,-7.40759 0.14535,-6.5 0.5694,0.35191 1,-0.50929 1,-2 0,-1.43992 0.40078,-2.37034 0.89062,-2.0676 0.48983,0.30273 1.60636,-0.54194 2.48116,-1.87705 1.6876,-2.57562 20.64767,-12.37745 25.12822,-12.99061 1.18003,-0.16148 7.98109,-2.15718 15,-4.40158 2.75,-0.87936 5.97751,-1.69615 7.17224,-1.8151 1.19474,-0.11896 3.51,-0.90806 5.14503,-1.75357 1.63503,-0.8455 4.93252,-1.83909 7.32776,-2.20797 2.39523,-0.36888 6.52635,-1.51354 9.18027,-2.54369 2.65391,-1.03015 6.9012,-1.97872 9.43842,-2.10792 4.41385,-0.22476 4.70978,-0.0649 6.85062,3.7009 1.91682,3.37174 2.17599,5.01988 1.80838,11.5 -0.23602,4.1603 -0.81595,9.9613 -1.28873,12.8911 -0.81461,5.04802 -0.73591,5.37394 1.5032,6.22525 2.83057,1.07618 3.1619,4.62076 0.61281,6.55579 -1.52953,1.16108 -1.0571,1.35571 3.75,1.54485 8.9945,0.35389 9.40593,0.42057 11.75,1.9042 2.91804,1.84692 2.90195,5.94224 -0.0314,7.99723 -1.22022,0.85483 -4.13108,2.11039 -6.46858,2.79014 -2.3375,0.67975 -4.25,1.69441 -4.25,2.25479 0,0.56038 -0.45,0.74076 -1,0.40084 -0.55,-0.33992 -1,-0.14148 -1,0.44098 0,0.58246 1.0125,1.11122 2.25,1.17502 1.51657,0.0782 1.71456,0.25833 0.60739,0.55264 -1.11374,0.29606 -1.46549,1.11399 -1.09248,2.54038 0.37499,1.43396 0.18162,1.87597 -0.60739,1.38833 -0.69979,-0.43249 -1.15754,-0.0566 -1.15754,0.95061 0,1.12122 0.52692,1.46381 1.61134,1.04768 1.12324,-0.43103 1.44528,-0.18559 1.06314,0.81025 -0.3043,0.79299 0.2023,1.73242 1.13866,2.1115 1.41983,0.57481 1.29112,0.83671 -0.81314,1.65445 -2.48743,0.96665 -2.48983,0.97998 -0.47715,2.64984 1.11256,0.92307 2.12002,2.91581 2.23879,4.42831 0.18228,2.32121 -0.1721,2.75 -2.27284,2.75 -3.22352,0 -3.21609,1.60065 0.0112,2.41064 1.375,0.34511 2.5,1.09922 2.5,1.6758 0,0.59169 -0.86728,0.77307 -1.99105,0.4164 -4.03046,-1.27922 -4.1135,0.77086 -0.10394,2.56599 3.42761,1.53459 4.09499,2.30502 4.09499,4.72729 0,1.62391 -0.8777,3.68821 -2,4.70388 -1.1,0.99549 -2,2.35243 -2,3.01544 0,0.66301 -1.14724,2.89602 -2.54943,4.96225 -1.40218,2.06624 -2.32013,3.98609 -2.03988,4.26634 0.28025,0.28024 -0.13383,1.7537 -0.92019,3.27434 -1.36159,2.63303 -6.66555,5.47325 -7.90549,4.23331 -0.32175,-0.32176 -0.58501,-0.0922 -0.58501,0.51022 0,0.60239 -0.5625,1.70729 -1.25,2.45534 -1.21716,1.32437 -3.75,5.43053 -3.75,6.0794 0,0.17807 2.3625,0.30857 5.25,0.29 5.67607,-0.0365 25.13881,4.55468 30.63227,7.22604 1.86025,0.9046 5.57273,3.78958 8.25003,6.41108 3.5173,3.44411 4.8765,4.28225 4.8995,3.0213 0.043,-2.36887 2.3496,-5.24506 4.206,-5.24506 0.8345,0 2.0775,-0.675 2.7622,-1.5 1.5601,-1.87979 4.6441,-1.94345 5.7003,-0.11766 0.4398,0.76029 2.5997,1.63177 4.7997,1.93662 6.3249,0.87644 15.641,2.7165 20,3.9503 2.2,0.6227 4.8175,1.20685 5.8166,1.29812 0.9991,0.0913 2.7991,0.61575 4,1.16553 1.2009,0.54977 4.8834,2.03727 8.1834,3.30556 10.2544,3.94105 16.7125,7.26562 24.7445,12.73827 8.6759,5.91138 9.94,7.46664 12.8777,15.8438 1.134,3.2337 2.4055,6.32946 2.8255,6.87946 1.2956,1.69653 3.1584,10.59023 2.592,12.37483 -0.3445,1.08544 0.7136,2.86725 2.9622,4.98815 3.2862,3.09968 3.4981,3.6854 3.4981,9.67121 0,3.50444 -0.5188,7.51041 -1.153,8.90217 -1.0115,2.22016 -0.8276,2.85578 1.5,5.18341 2.7703,2.77027 3.3498,4.83158 1.653,5.88023 -1.6485,1.01883 -1.1335,4.36652 1,6.5 1.1,1.1 2,2.45965 2,3.02144 0,0.56179 1.1424,1.54194 2.5386,2.17812 1.3963,0.63617 2.3247,1.71428 2.0632,2.3958 -0.2615,0.68152 0.1711,1.48724 0.9613,1.7905 0.7903,0.30325 1.4369,1.46549 1.4369,2.58276 0,1.11726 0.5625,2.03423 1.25,2.0377 0.6875,0.003 2.0166,1.35348 2.9535,3 0.9369,1.64653 1.3089,2.99368 0.8266,2.99368 -1.2054,0 1.3728,4.87952 4.4413,8.40554 1.3908,1.59805 2.5286,4.1151 2.5286,5.59345 0,1.47835 0.9431,5.34586 2.0957,8.59446 1.1527,3.2486 2.0509,7.77022 1.9961,10.04804 -0.067,2.78717 0.3798,4.32549 1.3666,4.70417 1.1503,0.44139 1.4818,2.78202 1.5382,10.85851 0.1193,17.09669 0.2578,18.7621 1.6573,19.92351 0.7403,0.61447 1.3461,2.39015 1.3461,3.94597 0,1.55583 0.6355,5.26868 1.4123,8.2508 1.4602,5.6061 1.4127,7.82226 -0.3952,18.44472 -0.7924,4.65611 -0.7663,6.83096 0.1016,8.45259 1.2082,2.25759 1.3175,13.26337 0.1505,15.1517 -0.3635,0.58822 -0.6971,2.99051 -0.7412,5.33843 -0.047,2.51107 -0.7481,4.9368 -1.7021,5.89081 -1.2572,1.25714 -1.4196,2.32712 -0.7224,4.75811 0.4947,1.72495 0.6306,5.16283 0.302,7.63975 -0.3832,2.88886 0.01,6.65395 1.0863,10.50147 2.728,9.71807 2.9057,16.76349 0.5346,21.18748 -1.1145,2.07948 -2.0407,4.68754 -2.0582,5.79568 -0.017,1.10815 -0.6412,2.81811 -1.3859,3.79992 -0.9599,1.26533 -1.2158,3.81314 -0.8791,8.75024 0.5437,7.97222 -1.3262,13.06992 -7.2208,19.68518 -1.8522,2.07871 -4.856,5.73845 -6.675,8.13275 -1.8191,2.3943 -4.5766,5.0943 -6.1279,6 -2.7157,1.58561 -2.8919,1.55921 -4.7476,-0.71117 -1.06,-1.29684 -2.5595,-2.11524 -3.3324,-1.81868 -2.484,0.95322 -4.9664,-1.72565 -4.2487,-4.58508 0.3978,-1.58481 0.2017,-2.72083 -0.5105,-2.95824 -0.7181,-0.23937 -0.9075,-1.37615 -0.4999,-3.00016 0.7928,-3.15892 6.7952,-7.11328 10.7973,-7.11328 2.9704,0 3.6942,-1.43473 1.72,-3.409 -0.8565,-0.85644 -1.9212,-0.54826 -4.2545,1.23139 -4.7289,3.60694 -8.2061,4.69433 -9.6084,3.00473 -0.638,-0.7688 -0.8578,-2.35006 -0.4884,-3.51391 0.7874,-2.48098 7.4289,-8.91354 9.2436,-8.95282 0.869,-0.0188 1.25,-2.00816 1.25,-6.52706 0,-5.13914 -0.3171,-6.5 -1.5147,-6.5 -0.8331,0 -2.375,-1.41468 -3.4265,-3.14374 l -1.9118,-3.14374 -1.4098,3.39374 c -0.7754,1.86656 -1.7268,4.66999 -2.1142,6.22986 -0.9687,3.90041 -4.7362,7.40688 -8.7717,8.16395 -4.4134,0.82797 -8.8513,-0.8727 -8.8513,-3.39199 0,-1.06778 -0.56,-2.12808 -1.2444,-2.35622 -1.4099,-0.46996 3.5663,-8.75186 5.2586,-8.75186 0.5422,0 0.9858,-1.125 0.9858,-2.5 0,-1.375 0.364,-2.5 0.8089,-2.5 3.745,0 6.9808,-8.19947 4.5485,-11.52588 -1.9373,-2.64939 -1.6978,-4.33901 1.1426,-8.06301 1.375,-1.80272 2.5,-3.77265 2.5,-4.37763 0,-1.59889 5.099,-11.47388 6.1275,-11.86681 1.706,-0.65179 0.8336,-1.95963 -1.7378,-2.60501 -6.6425,-1.66715 -11.2099,-4.75341 -14.2339,-9.61798 -1.6903,-2.71903 -3.5237,-4.94368 -4.0744,-4.94368 -1.1118,0 -9.1207,-8.30924 -12.749,-13.22714 -1.4403,-1.9523 -2.3324,-4.5582 -2.3324,-6.8135 0,-2.00865 -0.7674,-5.18372 -1.7053,-7.05572 -1.7765,-3.54552 -3.4186,-11.39328 -3.3876,-16.18952 0.011,-1.62303 -0.4032,-2.52553 -0.9912,-2.16217 -0.555,0.34304 -2.8264,-1.44082 -5.0475,-3.96412 -2.2211,-2.52331 -4.661,-4.58783 -5.422,-4.58783 -0.7832,0 -1.1476,-0.61507 -0.8398,-1.41732 0.2992,-0.77952 -0.1796,-2.69202 -1.064,-4.25 l -1.6079,-2.83268 0.5314,3.5 c 0.5231,3.4454 0.4991,3.4298 -1.5364,-1 -1.6863,-3.66995 -7.9297,-24.59406 -7.9297,-26.57569 0,-0.29829 0.45,-0.26423 1,0.0757 0.55,0.33992 1,0.14148 1,-0.44098 0,-0.58247 -0.406,-1.05903 -0.9022,-1.05903 -0.9896,0 -3.376,-6.05509 -2.6661,-6.76498 0.2423,-0.24237 0,-1.59456 -0.5343,-3.00487 -0.6882,-1.81025 -0.6318,-2.77626 0.192,-3.28538 1.5545,-0.96076 0.085,-3.22575 -1.6585,-2.55662 -2.0273,0.77796 -2.7864,-1.15778 -2.6746,-6.82075 0.093,-4.73974 -0.1262,-5.21289 -3.3975,-7.3174 -1.9236,-1.2375 -3.8038,-2.23625 -4.1781,-2.21944 -0.3744,0.0168 -3.1082,4.87345 -6.075,10.79254 -5.231,10.43605 -5.3761,10.94919 -4.7902,16.9434 0.4278,4.37642 0.1712,7.21771 -0.8786,9.7303 -1.0516,2.51689 -1.193,4.09049 -0.486,5.41145 0.5482,1.02441 0.96,3.37663 0.9149,5.22716 -0.045,1.85052 0.3646,5.25789 0.9103,7.57192 0.5457,2.31403 0.8808,6.71298 0.7447,9.77544 -0.1361,3.06246 0.1214,5.79607 0.5722,6.07469 0.4508,0.27863 0.5801,1.13082 0.2873,1.89378 -0.2927,0.76295 0.1231,2.43604 0.924,3.71797 1.3348,2.13625 2.9548,10.01824 2.8713,13.96989 -0.036,1.69124 3.5598,2.8609 8.7944,2.8609 3.2283,0 6.03,2.75732 6.03,5.93438 0,1.2523 1.125,3.61389 2.5,5.24799 1.375,1.63409 2.5,3.54404 2.5,4.24432 0,0.70028 1.2487,3.02825 2.775,5.17327 6.833,9.60322 7.5978,15.45627 2.1229,16.24586 -1.3189,0.1902 -2.8702,0.73296 -3.4475,1.20614 -0.5773,0.47317 -2.8778,1.15265 -5.1121,1.50994 -6.2657,1.00191 -6.4316,1.25232 -5.2913,7.98513 0.5545,3.27413 1.2445,9.55297 1.5333,13.95297 0.2888,4.4 0.7557,8.675 1.0375,9.5 1.1676,3.41783 1.4478,17.21601 0.3758,18.50768 -0.8003,0.96432 -0.8174,2.96218 -0.061,7.16475 1.6258,9.03654 4.7479,39.15897 5.5271,53.32757 0.2874,5.225 0.9644,11.525 1.5043,14 0.9378,4.2983 3.1288,16.20395 5.153,28 0.5191,3.025 1.4787,8.2 2.1325,11.5 0.6537,3.3 1.0686,6.40205 0.9219,6.89344 -0.1467,0.4914 -0.2202,5.2164 -0.1633,10.5 0.2568,23.85397 -0.069,28.9985 -2.0078,31.6861 -1.3785,1.91104 -2.0672,2.01529 -8.5,1.2867 -3.85,-0.43606 -12.2796,-1.28851 -18.7325,-1.89432 -6.4529,-0.60582 -13.0764,-1.48691 -14.7189,-1.95799 -1.6426,-0.47108 -4.913,-0.97403 -7.2676,-1.11766 -2.5282,-0.15423 -5.0135,-1.00532 -6.07,-2.07871 -3.29825,-3.35102 -4.43139,-2.27054 -5.17282,4.93244 -0.48642,4.72549 -1.44484,7.85007 -3.19553,10.41779 -1.3754,2.01729 -2.6299,4.84453 -2.78777,6.28275 -0.15788,1.43823 -0.5164,2.8443 -0.79672,3.12462 -0.28031,0.28031 0.13238,3.75308 0.91708,7.71725 0.78471,3.96417 1.60136,8.55759 1.81479,10.20759 0.6019,4.65333 2.69658,11.81137 4.03253,13.78014 0.81312,1.19828 0.95241,3.15946 0.42614,6 -0.42999,2.32092 -1.09327,10.96986 -1.47394,19.21986 -0.4645,10.0668 -1.19524,16.0859 -2.22191,18.3017 -2.03316,4.3881 -1.07586,25.2933 1.3261,28.95921 1.10265,1.6828 1.37813,3.5336 0.92509,6.2152 -0.39289,2.3254 -0.22655,4.0774 0.42539,4.4803 0.58881,0.3639 1.07056,1.521 1.07056,2.5712 0,1.2866 0.48939,1.7218 1.5,1.334 0.825,-0.3166 1.5,-0.077 1.5,0.5314 0,0.6089 0.69199,1.107 1.53771,1.107 1.2078,0 1.4343,0.8584 1.0557,4 -0.2652,2.2 -0.057,4 0.4622,4 0.5194,0 0.9444,0.4862 0.9444,1.0805 0,0.5943 1.5771,3.4565 3.5046,6.3605 2.9728,4.4787 3.8832,5.2075 6,4.8029 2.2777,-0.4354 2.7466,0.038 2.729,2.7561 0,0.275 -0.3104,1.5125 -0.6858,2.75 -1.1297,3.7238 1.1978,2.5507 2.4466,-1.2332 1.0818,-3.2779 4.404,-6.4015 9.8558,-9.2668 3.2691,-1.7181 5.4623,-1.5681 8.2649,0.5656 1.3117,0.9985 5.2353,2.3283 8.7192,2.955 5.6839,1.0224 6.762,1.6211 10.5,5.8307 5.8703,6.6111 6.1315,7.2265 4.0454,9.5316 -1.3694,1.5132 -1.5025,2.1732 -0.5562,2.758 1.7011,1.0514 -2.6216,5.336 -10.3235,10.2326 -3.3,2.098 -6.675,4.461 -7.5,5.2511 -0.825,0.79 -4.1204,2.5937 -7.3231,4.0082 -3.2027,1.4145 -5.569,2.9828 -5.2586,3.4851 0.3105,0.5023 -0.5408,1.6376 -1.8917,2.5227 -2.3387,1.5324 -13.1745,2.0455 -20.5266,0.972 z M 197.74296,770.36919 c 1.1416,-6.6 2.4969,-13.39593 3.01177,-15.10207 1.4043,-4.65346 4.39755,-18.35594 9.4801,-43.39793 2.51164,-12.375 5.46835,-26.07401 6.57046,-30.44225 1.10212,-4.36824 2.18611,-9.31824 2.40887,-11 0.22276,-1.68176 1.14287,-5.75775 2.0447,-9.05775 0.90182,-3.3 2.00698,-7.8 2.45589,-10 0.44892,-2.2 2.68477,-9.175 4.96856,-15.5 2.2838,-6.325 4.30365,-12.175 4.48856,-13 0.18491,-0.825 1.98745,-5.1 4.00565,-9.5 2.01819,-4.4 4.56194,-10.025 5.65277,-12.5 1.09083,-2.475 2.6502,-5.625 3.46526,-7 0.81507,-1.375 2.11563,-3.90792 2.89014,-5.62871 0.7745,-1.7208 2.09995,-3.39417 2.94544,-3.71862 0.84549,-0.32445 1.53726,-1.45588 1.53726,-2.5143 0,-1.05841 0.66741,-2.1805 1.48314,-2.49353 0.81573,-0.31302 1.22943,-1.23029 0.91934,-2.03838 -0.31009,-0.80808 0.44433,-2.83282 1.6765,-4.49942 1.23217,-1.66659 2.29373,-4.56869 2.35903,-6.44909 0.0653,-1.88041 0.64243,-4.04995 1.28252,-4.82121 1.33598,-1.60976 3.45693,-6.83674 2.77414,-6.83674 -0.25071,0 -3.02877,1.64588 -6.17346,3.65752 -6.04552,3.86727 -12.24406,6.19561 -18.78667,7.05677 -2.181,0.28708 -5.0069,1.20433 -6.27978,2.03835 -2.54977,1.67068 -14.20745,1.31679 -16.51449,-0.50132 -0.68215,-0.53759 -4.16527,-1.24466 -7.74027,-1.57127 -7.66966,-0.70071 -16.13914,-4.77992 -28.65564,-13.8016 -4.4856,-3.23315 -8.5356,-5.88708 -9,-5.89763 -1.76992,-0.0402 -8.11738,-6.70673 -11.40743,-11.98082 -2.8261,-4.53036 -10.93693,-13.66104 -10.93693,-12.31212 0,0.43163 6.4553,39.72797 8.01847,48.81212 0.56786,3.3 1.45069,9.375 1.96184,13.5 0.51116,4.125 2.05591,13.575 3.43279,21 2.23833,12.07049 5.89658,33.43192 7.10707,41.5 0.24756,1.65 1.37075,7.725 2.49599,13.5 1.86159,9.55417 2.62476,14.63203 5.91998,39.38923 0.57754,4.33908 1.42648,8.38908 1.88654,9 0.46005,0.61092 0.92821,2.91077 1.04034,5.11077 0.23559,4.62206 0.85341,8.57974 5.07349,32.5 1.69807,9.625 4.00658,22.9 5.13003,29.5 3.00798,17.67129 3.09038,17.91314 4.08844,12 0.46417,-2.75 1.77798,-10.4 2.91959,-17 z"
     id="path2987"
     inkscape:connector-curvature="0" />
</svg>
