<?xml version="1.0" encoding="UTF-8" standalone="no"?>
<!-- Created with Inkscape (http://www.inkscape.org/) -->

<svg
   xmlns:dc="http://purl.org/dc/elements/1.1/"
   xmlns:cc="http://creativecommons.org/ns#"
   xmlns:rdf="http://www.w3.org/1999/02/22-rdf-syntax-ns#"
   xmlns:svg="http://www.w3.org/2000/svg"
   xmlns="http://www.w3.org/2000/svg"
   xmlns:sodipodi="http://sodipodi.sourceforge.net/DTD/sodipodi-0.dtd"
   xmlns:inkscape="http://www.inkscape.org/namespaces/inkscape"
   id="svg2"
   version="1.1"
   inkscape:version="0.48.2 r9819"
   width="455.5"
   height="951.78339"
   sodipodi:docname="worldswondersas00bueliala_0480c.png">
  <metadata
     id="metadata8">
    <rdf:RDF>
      <cc:Work
         rdf:about="">
        <dc:format>image/svg+xml</dc:format>
        <dc:type
           rdf:resource="http://purl.org/dc/dcmitype/StillImage" />
        <dc:title></dc:title>
      </cc:Work>
    </rdf:RDF>
  </metadata>
  <defs
     id="defs6" />
  <sodipodi:namedview
     pagecolor="#ffffff"
     bordercolor="#666666"
     borderopacity="1"
     objecttolerance="10"
     gridtolerance="10"
     guidetolerance="10"
     inkscape:pageopacity="0"
     inkscape:pageshadow="2"
     inkscape:window-width="1600"
     inkscape:window-height="876"
     id="namedview4"
     showgrid="false"
     fit-margin-top="0"
     fit-margin-left="0"
     fit-margin-right="0"
     fit-margin-bottom="0"
     inkscape:zoom="1"
     inkscape:cx="-226"
     inkscape:cy="624.88101"
     inkscape:window-x="0"
     inkscape:window-y="24"
     inkscape:window-maximized="1"
     inkscape:current-layer="svg2" />
  <path
     style="fill:#000000"
     d="m 155.0826,949.58258 -1.62232,-1.6223 -2.16293,-0.1629 -2.16293,-0.163 -2.06721,-2.0672 -2.06721,-2.0672 0,-5.5497 0,-5.5496 1.52568,-2.9504 c 0.83912,-1.6227 1.90177,-2.9503 2.36144,-2.9503 0.45967,0 4.37885,-2.336 8.70929,-5.1912 l 7.87352,-5.1912 6.82706,-6.9915 c 3.75489,-3.84539 7.72951,-8.25894 8.83249,-9.80794 l 2.00543,-2.81637 -2.35951,-0.89708 -2.35952,-0.89709 -2.63835,-3.85381 -2.63834,-3.85381 -0.69281,-3.81356 -0.69281,-3.81355 1.80857,-4.01068 1.80856,-4.01068 3.77481,-1.92576 3.77481,-1.92577 2.1193,0 2.11929,0 -0.59632,-2.75 c -0.32798,-1.5125 -0.77615,-3.65 -0.99593,-4.75 -0.21978,-1.1 -0.85919,-4.00078 -1.42091,-6.44617 l -1.02131,-4.44617 0.4968,-0.80383 0.49679,-0.80383 -0.84621,0 -0.84621,0 -0.14776,-1.75 c -0.0813,-0.9625 -0.87015,-5.8 -1.75306,-10.75 -3.52985,-19.7899 -5.39152,-31.28475 -5.9924,-37 -0.34696,-3.3 -0.83022,-7.8 -1.07393,-10 -0.24371,-2.2 -0.68117,-6.39996 -0.97214,-9.33325 l -0.52905,-5.33324 -1.45768,-3.48873 -1.45768,-3.48872 -0.95186,0.58828 -0.95185,0.58828 -0.62812,-1.01631 -0.62811,-1.01631 -2.3913,0 -2.39129,0 -0.88437,1.58028 -0.88436,1.58027 -11.41533,-2.79248 -11.41532,-2.79249 -0.33333,-0.78779 c -0.18334,-0.43328 -1.14074,-0.78779 -2.12756,-0.78779 l -1.79422,0 -1.13406,-1.36646 -1.13407,-1.36647 -7.05998,-0.50514 -7.05999,-0.50514 -1.12839,-1.12839 -1.1284,-1.1284 -1.89362,0 -1.89362,0 -0.49113,-1.8781 -0.49114,-1.8781 -2.42621,-1.10546 -2.42621,-1.10545 0.0716,-6.76645 c 0.0394,-3.72154 -0.12132,-7.66644 -0.35714,-8.76644 l -0.42877,-2 1.48559,-2.92751 1.4856,-2.92752 -1.8086,-1.32248 c -0.99474,-0.72737 -2.18154,-1.32249 -2.63735,-1.32249 -0.45581,0 -2.66358,-1.15828 -4.90616,-2.57396 l -4.07742,-2.57396 0.63694,-2.17604 c 0.35032,-1.19682 0.83371,-3.07604 1.0742,-4.17604 0.75009,-3.43097 3.90463,-9.90445 5.71076,-11.71914 l 1.72732,-1.7355 -0.5892,-1.53541 -0.58919,-1.53542 1.23432,-1.48726 1.23432,-1.48727 -0.74489,0 -0.74489,0 1.00697,-1.25 c 0.55384,-0.6875 1.33196,-2.76835 1.72916,-4.62411 l 0.72219,-3.37411 4.08611,-5.95424 c 2.24735,-3.27484 4.80737,-6.48149 5.68891,-7.12589 0.88155,-0.64441 2.34436,-2.76108 3.25068,-4.70372 l 1.64787,-3.53207 -0.28687,-1.95458 -0.28687,-1.95459 -15.90663,-8.18951 C 83.95797,639.82405 67.15035,631.49998 66.38095,631.49998 c -0.31472,0 -1.76668,-0.83423 -3.22658,-1.85385 -1.4599,-1.01962 -6.63641,-3.97507 -11.50336,-6.56768 l -8.84898,-4.71383 -0.61316,0.61316 -0.61316,0.61316 1.05602,1.70452 c 0.58081,0.93749 1.66415,2.6844 2.40742,3.88203 l 1.3514,2.17751 -4.08851,3.96777 c -2.24868,2.18227 -6.04906,5.08983 -8.44528,6.46124 L 29.5,640.27748 18.79707,639.63873 8.09415,638.99998 4.04707,635.04703 0,631.09408 l 0,-6.13602 0,-6.13602 2.75,-3.62218 2.75,-3.62219 3.27299,-1.59667 3.27298,-1.59667 4.72702,0.68768 4.72701,0.68768 2.8262,1.43523 2.8262,1.43523 2.49072,-1.63199 2.49072,-1.63198 -1.1891,-1.43279 -1.1891,-1.43278 1.47268,-2.21798 1.47269,-2.21799 3.39949,-0.0634 3.3995,-0.0634 1.12996,-3.46895 1.12996,-3.46894 3.87004,-1.17315 c 2.12852,-0.64523 3.42464,-1.20773 2.88026,-1.25 l -0.98978,-0.0768 2.61134,-2.42138 2.61135,-2.42138 4.12844,-1.23691 L 61,585.1834 l 0,-1.27432 0,-1.27432 2.25,-0.68654 c 1.2375,-0.3776 4.275,-1.63831 6.75,-2.80158 l 4.5,-2.11503 6.76413,0.21911 6.76412,0.21912 1.5496,-3.87281 1.54958,-3.87281 4.4686,-1.25113 4.46859,-1.25112 4.38195,-4.87379 4.38196,-4.87379 0.6854,-4.05683 0.68539,-4.05684 1.40034,-0.53736 c 2.00705,-0.77017 1.72644,-2.08511 -0.60273,-2.82435 l -2.00306,-0.63575 1.50306,-1.50307 1.50307,-1.50307 -0.0768,-6.17857 -0.0769,-6.17857 -1.20519,4 -1.20519,4 -0.96796,-0.27567 c -0.53238,-0.15162 -2.45438,-0.81317 -4.27112,-1.47012 l -3.30317,-1.19444 0.54534,-2.17281 0.54535,-2.17281 -3.39062,0.76471 -3.39062,0.76471 -1.35156,-0.85647 -1.35156,-0.85647 -4.25,-0.0153 -4.25,-0.0153 0.002,-0.75 c 9.8e-4,-0.4125 2.23567,-3.225 4.966,-6.25 2.73032,-3.025 4.97952,-6.02984 4.99822,-6.67742 l 0.034,-1.17742 2.5,-1.9665 c 3.14003,-2.46995 3.1504,-3.02565 0.0454,-2.43208 l -2.45464,0.46923 0.62233,-3.83495 0.62233,-3.83496 1.87839,-3.18364 1.8784,-3.18365 1.49741,-0.57461 1.4974,-0.57461 -4.21123,-5.57773 -4.21122,-5.57773 2.91774,-2.8811 2.91773,-2.88109 3.90343,-0.30587 3.90342,-0.30587 1.2199,5.32332 c 0.67094,2.92783 1.65882,5.76225 2.1953,6.29873 l 0.9754,0.9754 0.63487,-8.29872 0.63487,-8.29873 -0.78372,-2.91841 -0.78372,-2.91841 0.73142,-6.08159 c 0.40203,-3.34488 1.21258,-11.25659 1.80097,-17.58159 l 1.0698,-11.5 2.06449,-8.5 c 1.13547,-4.675 2.28051,-10.3 2.54453,-12.5 0.26403,-2.2 0.87324,-5.4625 1.35381,-7.25 l 0.87376,-3.25 -0.71932,0 -0.71932,0 -1.27318,6.25 -1.27318,6.25 -1.47083,2.28187 -1.47082,2.28186 -0.84631,-0.52305 -0.84631,-0.52305 -1.60976,3.39232 C 110.72439,423.7757 110,426.0811 110,427.03303 l 0,1.7308 -3.72534,3.51344 -3.72534,3.51345 -1.7725,3.95901 -1.7725,3.95901 -2.50216,1.9682 -2.50216,1.9682 0,1.8686 0,1.86861 -4.5,4.56462 c -2.475,2.51054 -4.5,5.01201 -4.5,5.55882 l 0,0.99419 -1.94098,0 -1.94099,0 -0.77816,-1.25 -0.77816,-1.25 0.31622,-2.5 c 0.17392,-1.375 0.77506,-3.0594 1.33587,-3.74311 0.56081,-0.68371 2.26729,-3.83371 3.79218,-7 l 2.77252,-5.75689 6.57877,-7.12621 6.57877,-7.12621 1.10792,-4.87379 c 0.60935,-2.68058 1.28779,-7.12379 1.50764,-9.87379 1.28856,-16.11789 1.73996,-19.97819 2.93956,-25.13871 l 1.32712,-5.70906 -0.8453,-2.22329 -0.84529,-2.22329 0.60282,-0.60283 0.60282,-0.60282 -1.16666,0 -1.16667,0 0,2.30583 c 0,1.2682 -0.96937,5.2057 -2.15415,8.75 l -2.15415,6.44417 -1.56221,0.92077 c -0.85921,0.50642 -3.33683,2.62599 -5.50582,4.71015 l -3.94361,3.78938 -0.84191,-0.52033 -0.84189,-0.52032 -0.89203,2.31018 c -0.49062,1.27059 -2.02232,3.36123 -3.40378,4.64585 l -2.51175,2.33568 -2.10005,-1.12392 -2.10006,-1.12391 0.66248,-4.21177 0.66248,-4.21176 2.48113,-3.27519 c 2.56407,-3.38468 9.11947,-8.97169 12.58373,-10.72481 l 1.97606,-1 1.30982,-5.5 1.30982,-5.5 -0.49814,-13.5 -0.49814,-13.5 2.26109,-4.42067 2.26108,-4.42067 3.16481,-1.57933 3.16481,-1.57933 -0.4873,-2.5 -0.48731,-2.5 2.65799,-4.75 2.65799,-4.75 2.6645,-0.0675 c 1.46548,-0.0371 4.16162,-0.26212 5.99143,-0.5 l 3.32692,-0.43252 2.92308,2.92308 2.92308,2.92308 0,-1.9313 c 0,-1.06222 -1.18527,-6.7651 -2.63394,-12.67308 l -2.63393,-10.74176 -0.1095,-10 -0.10949,-10 1.75648,-6.5 1.75648,-6.5 3.13656,-6.25 c 1.72511,-3.4375 3.41986,-6.25 3.76611,-6.25 0.34625,0 2.19142,-1.4793 4.10039,-3.28733 l 3.47084,-3.28734 4.5,-1.86378 c 13.50576,-5.59373 31.60783,-14.52286 36.841,-18.17241 0.18755,-0.13079 0.52188,-5.67185 0.74295,-12.31347 l 0.40195,-12.07567 -0.91349,0 -0.9135,0 -0.65891,3 -0.65891,3 -1.2981,0 c -0.71396,0 -1.78463,-0.58623 -2.37927,-1.30273 l -1.08118,-1.30274 0.59138,-5.44726 c 0.60965,-5.61551 0.51858,-20.90809 -0.14558,-24.44727 -0.20642,-1.1 -0.40975,-3.33779 -0.45183,-4.97286 L 177,169.05426 l -2.94363,3.22286 c -3.16581,3.46612 -4.81507,4.01526 -5.63578,1.87653 l -0.51663,-1.34633 1.43105,-4.15367 1.43106,-4.15367 -0.90779,0 -0.90778,0 -1.10226,2.75 c -0.60624,1.5125 -1.9462,5.87376 -2.97769,9.69169 l -1.87544,6.94169 -2.24756,3.3646 -2.24755,3.3646 -4.42651,2.04911 -4.42651,2.04912 -3.68951,-1.10541 c -2.02923,-0.60797 -4.00136,-1.1054 -4.38251,-1.1054 l -0.69299,0 0.60766,0.98323 0.60767,0.98323 -4.08591,6.01677 -4.08591,6.01677 -2.96274,0 -2.96274,0 0,-1.32569 0,-1.32568 2.35139,-2.20902 2.3514,-2.20902 1.32248,-4.2153 c 0.72737,-2.31841 1.6881,-4.63665 2.13496,-5.15164 l 0.81246,-0.93634 -1.64133,-1.81366 -1.64134,-1.81365 -1.34501,0 c -0.73975,0 -2.20061,-0.8556 -3.24635,-1.90134 l -1.90133,-1.90133 -3.21312,4.47419 c -1.76721,2.4608 -5.07411,6.2928 -7.34866,8.51555 l -4.13555,4.04137 -3.21788,1.38578 c -1.76984,0.76218 -3.92146,1.38578 -4.78139,1.38578 l -1.5635,0 -0.60268,-1.57055 -0.60267,-1.57054 3.83701,-3.92946 3.83701,-3.92945 1.91949,0 1.9195,0 -1.18701,-1.43026 -1.18701,-1.43026 2.05461,-1.0996 2.05462,-1.09959 -0.24005,-1.15729 -0.24005,-1.15729 3.38766,-1.65304 3.38767,-1.65304 -1.45835,-0.55962 -1.45835,-0.55962 -0.15099,-5.73853 c -0.083,-3.15619 -0.31246,-5.90001 -0.50982,-6.09737 -0.46816,-0.46816 -4.57253,-0.50544 -7.52778,-0.0684 l -2.32995,0.34459 -0.67005,1.07615 -0.67004,1.07616 -4,1.03649 c -2.2,0.57007 -6.5331,1.3367 -9.62911,1.70361 l -5.6291,0.66712 -0.62414,-1.00988 -0.62414,-1.00988 0.60607,-1.57938 0.60606,-1.57939 3.85496,-1.03803 3.85496,-1.03803 0.64337,-1.041 0.64337,-1.041 1.32574,0.50874 1.32573,0.50873 1.13068,-1.36239 1.13069,-1.36239 3.94243,-0.66607 3.94243,-0.66607 0,-0.84067 c 0,-0.46237 0.58313,-1.43532 1.29584,-2.1621 l 1.29584,-1.32143 -1.06158,-3.73444 -1.06158,-3.73445 -5.84695,3.52216 c -3.21582,1.93719 -8.60874,4.64659 -11.98426,6.02089 L 85.5,160.57286 80,159.90249 c -3.025,-0.3687 -6.5125,-1.04896 -7.75,-1.51168 l -2.25,-0.84133 0,-1.52475 0,-1.52475 2.76412,0 2.76411,0 4.98589,-1.90712 C 90.18009,148.89559 92,148.0539 92,147.28074 c 0,-0.42942 0.39504,-0.78076 0.87788,-0.78076 0.97066,0 6.38236,-2.41262 9.85254,-4.39241 l 2.23042,-1.2725 -2.14767,-2.30526 -2.14768,-2.30526 1.08039,-2.86228 1.08039,-2.86229 -3.16313,-0.1069 c -1.73973,-0.0588 -4.96583,-0.21546 -7.16912,-0.34813 l -4.00598,-0.24123 -2.99402,-1.6315 C 81.45567,125.97165 78,122.92488 78,121.56494 l 0,-1.11446 2.5651,-0.97525 2.5651,-0.97525 5.10616,0 5.10616,0 1.64436,1.48812 1.64435,1.48813 3.18439,0.63687 3.18438,0.63688 0,-1.64975 0,-1.64975 -2.5,-0.9505 -2.5,-0.9505 0,-1.36646 0,-1.36646 3.90284,-1.16932 3.90284,-1.16932 2.34716,-1.9557 2.34716,-1.9557 -2.59636,-0.0333 -2.59636,-0.0332 -3.15364,-1.57324 L 99,105.3535 l 0,-1.24599 0,-1.24599 -5.06337,-1.3788 c -2.78485,-0.75834 -5.2986,-1.75939 -5.58609,-2.22457 l -0.52272,-0.84578 1.29676,-1.5625 1.29676,-1.5625 4.03933,0.45685 4.03933,0.45685 5.59649,2.64946 c 3.07807,1.4572 6.36292,2.64945 7.29966,2.64945 2.21763,0 7.60385,-2.79367 7.60385,-3.94389 0,-0.49089 0.23907,-1.51553 0.53126,-2.27697 l 0.53126,-1.38444 -4.2093,-0.24836 c -2.31511,-0.1366 -4.69166,-0.54649 -5.28122,-0.91086 -0.58957,-0.36437 -2.42195,-0.67891 -4.07197,-0.69899 L 103.5,91.99998 l 0,-1.95524 0,-1.95524 4,-0.86758 4,-0.86758 5.16492,0.57155 c 2.8407,0.31436 5.76663,0.80246 6.50205,1.08467 l 1.33714,0.51311 1.23459,-1.9769 1.2346,-1.97689 -4.19577,-1.1298 -4.19576,-1.12981 -1.13428,-1.55121 -1.13427,-1.55121 -0.16469,-4.35394 -0.16468,-4.35393 1.42474,0 1.42474,0 0.33334,0.96795 0.33333,0.96796 1.32389,-0.82264 1.32389,-0.82264 -1.69844,-1.69843 -1.69843,-1.69843 0.54067,-4.03102 0.54068,-4.03103 2.83387,-5.66586 2.83387,-5.66586 2.73049,-0.93618 2.73048,-0.93618 0.68664,0.68664 0.68664,0.68663 -1.21452,5.74955 c -1.35831,6.43026 -1.39052,6.83187 -1.08399,13.51676 l 0.2186,4.76721 1.12283,-1.39727 1.12283,-1.39728 2.73166,-0.63439 2.73166,-0.63439 3.43282,-3.01406 c 1.88805,-1.65773 3.80881,-2.94794 4.26834,-2.86713 0.45954,0.0808 1.51052,0.062 2.33552,-0.0418 l 1.5,-0.1887 -2,-0.85943 c -1.1,-0.47269 -3.4276,-0.89106 -5.17245,-0.92972 l -3.17245,-0.07026 -0.99334,-3.25 c -0.54634,-1.7875 -1.27663,-4.9375 -1.62287,-7 l -0.62952,-3.75 0.99826,0 c 0.54905,0 2.05038,0.47937 3.3363,1.06528 l 2.33803,1.06528 0.95902,2.17992 0.95902,2.17993 4.59704,0.65002 4.59704,0.65001 3.18657,1.64784 3.18657,1.64784 0.59555,2.97775 0.59555,2.97775 1.02066,0.6308 1.02066,0.6308 -0.66457,-8.40161 -0.66457,-8.40161 2.26475,-2.71955 2.26475,-2.71956 2.66229,-0.44832 c 1.46426,-0.24657 3.63692,-0.96993 4.82814,-1.60745 l 2.16585,-1.15913 1.42186,0.54562 1.42186,0.54562 0,-1.42161 0,-1.42161 3.75,-1.04143 c 2.0625,-0.57278 4.22831,-1.04394 4.81291,-1.047 0.5846,-0.003 2.35629,-1.35558 3.93709,-3.00558 l 2.87418,-3 1.25389,0 c 0.68964,0 1.5488,0.47716 1.90923,1.06036 l 0.65534,1.06035 -1.21985,2.94497 -1.21984,2.94497 -6.66756,4.43258 -6.66756,4.43259 -4.60191,0.55241 C 172.51309,46.56476 170,47.38681 170,48.48485 c 0,0.42398 0.675,2.38638 1.5,4.36089 l 1.5,3.59 0,2.5673 0,2.56731 2.25,-1.18489 c 1.2375,-0.65169 2.475,-1.5132 2.75,-1.91448 0.275,-0.40127 4.1,-2.88629 8.5,-5.52225 l 8,-4.79267 4.60327,-4.23087 4.60327,-4.23086 5.39673,1.34032 c 10.67885,2.65217 16.08436,4.34916 19.9573,6.26534 L 233,49.24906 l 0,-0.87454 c 0,-0.481 -0.40122,-0.87454 -0.89159,-0.87454 l -0.89159,0 -0.60807,-2.42274 -0.60807,-2.42273 -2.88417,-2.88417 -2.88417,-2.88417 -3.87322,-1.16045 -3.87322,-1.16044 -3.74295,-3.53046 L 209,27.50436 l 0,-1.50219 0,-1.50219 0.75,0.0309 c 0.4125,0.017 4.00919,0.45423 7.99265,0.97166 l 7.24265,0.94078 4.25735,1.9414 c 2.34154,1.06776 5.28543,2.83431 6.54198,3.92566 l 2.28462,1.98428 1.97631,-0.51682 1.97632,-0.51682 0.60475,-2.40952 0.60475,-2.40953 2.60699,-2.97098 2.607,-2.97099 2.2183,0 2.2183,0 0.66016,-1.06817 0.66017,-1.06817 1.31786,0.50571 1.31786,0.50571 1.9004,-1.68754 c 1.04522,-0.92814 2.18474,-2.45471 2.53227,-3.39236 l 0.63187,-1.70482 3.79872,-1.92314 C 267.79058,11.60949 271.075,10.40884 273,9.99911 L 276.5,9.25414 280.77128,4.627071 285.04256,0 l 4.96821,0.07282 4.9682,0.07282 0.70333,0.703331 0.70334,0.703332 -5.91152,5.973848 -5.91151,5.973849 -1.16468,0 -1.16467,0 -0.52301,2 -0.52301,2 -3.09362,0 -3.09362,0 0,0.98818 0,0.98819 -4.02216,0.64317 -4.02217,0.64316 -0.58528,0.94701 -0.58528,0.94701 2.85744,-0.29467 c 1.5716,-0.16206 5.19731,0.0668 8.05714,0.50856 l 5.19969,0.80323 1.17276,1.41308 1.17275,1.41308 1.43599,0 1.43599,0 4.09536,-4.5 c 4.5354,-4.98351 4.97743,-5.16748 7.16349,-2.98142 l 1.51858,1.51857 -3.07872,4.95263 -3.07872,4.95262 -2.39484,1.56916 -2.39484,1.56916 -3.47359,-0.65165 L 282,32.27742 l 0,2.45061 0,2.45061 -3.57456,3.25278 c -1.96601,1.78903 -3.3517,3.47565 -3.07931,3.74804 0.27239,0.2724 2.89345,0.01 5.82456,-0.58343 7.41279,-1.5004 14.61193,-1.58958 26.71616,-0.33095 l 10.38686,1.08005 1.48147,1.48148 1.48147,1.48147 -0.58905,0.9531 -0.58906,0.95311 -6.27927,1.23175 c -3.4536,0.67747 -7.24886,1.69483 -8.43392,2.26081 L 303.19071,53.7359 302.09535,53.05893 301,52.38197 l 0,1.16831 0,1.16832 -7.5,-0.37873 -7.5,-0.37874 0,0.76944 c 0,0.42319 0.3375,0.6909 0.75,0.59492 0.4125,-0.096 1.875,0.3115 3.25,0.90552 1.375,0.59402 5.875,2.16437 10,3.48968 l 7.5,2.40964 1.44081,2.93483 1.44082,2.93484 0.57439,-2.37345 0.5744,-2.37345 4.98479,-1.88278 c 2.74163,-1.03552 5.7927,-2.34653 6.78015,-2.91335 l 1.79536,-1.03058 3.53351,0.66289 3.5335,0.66289 0.80372,2.12392 c 1.13076,2.98815 0.72515,3.30541 -5.19823,4.06587 l -5.26322,0.6757 -2.45,2.01341 -2.45,2.01342 0.29275,3.67775 c 0.16101,2.02277 0.33021,5.96626 0.376,8.76331 l 0.0833,5.08555 2.86223,-1.42786 2.86223,-1.42787 1.71177,0.75107 c 0.94147,0.41309 2.13275,0.65181 2.64729,0.53048 0.51454,-0.12133 1.97704,0.0408 3.25,0.36029 L 334,86.53808 l -0.0153,2.23095 c -0.008,1.22702 -0.40224,2.8416 -0.87516,3.58796 l -0.85984,1.35701 -2.21178,-0.70199 -2.21179,-0.70199 -3.31651,0.62218 -3.31651,0.62218 -0.59155,1.54156 -0.59156,1.54157 3.02068,2.54173 c 1.66138,1.39796 3.97491,3.31443 5.14119,4.25882 l 2.12052,1.71709 0.77351,9.98594 c 0.42544,5.49226 1.08473,11.64485 1.4651,13.67241 l 0.69159,3.68648 -2.02349,0 -2.02348,0 -4.83781,-9.75 -4.8378,-9.75 -3.36686,-0.98968 -3.36686,-0.98967 -3.09505,-4.51033 c -1.70227,-2.48067 -4.01218,-5.26209 -5.13313,-6.18092 l -2.0381,-1.6706 -2.70087,0.0714 -2.70087,0.0714 -0.53292,1.38875 -0.53291,1.38875 1.20607,1.93121 1.20606,1.93122 2.52772,1.07471 c 4.96136,2.10941 7.92038,5.56986 12.74378,14.90327 l 2.28394,4.41948 0,2.14196 0,2.14196 1.95199,1.93856 c 3.19192,3.16995 4.26534,3.84755 10.54801,6.65844 l 6,2.68441 0.32332,1.54786 0.32333,1.54785 -2.32333,0.11515 c -1.27782,0.0633 -3.1559,0.0274 -4.17349,-0.0798 -1.01759,-0.10724 -3.11649,0.32954 -4.66421,0.97063 l -2.81405,1.16561 1.75197,1.66422 c 0.96357,0.91531 2.61247,2.17316 3.66421,2.79521 l 1.91225,1.131 -0.0741,2.06928 -0.0741,2.06928 0.90843,-0.56144 0.90843,-0.56144 2.92545,3.36116 c 1.60899,1.84864 4.10624,5.30345 5.54943,7.67735 l 2.624,4.31619 -1.05805,1.05805 -1.05804,1.05804 -3.03512,-1.05805 -3.03512,-1.05804 -6.15708,-4.81619 c -3.38639,-2.64891 -7.90468,-6.52264 -10.04065,-8.6083 L 313,153.41577 l -0.006,2.7921 -0.006,2.79211 -1.43454,2.75 -1.43453,2.75 0.99971,0 0.99971,0 -0.57058,0.92323 -0.57059,0.92323 2.18335,3.82677 c 1.20084,2.10472 2.70341,4.50177 3.33905,5.32677 1.47984,1.92071 3.50074,8.98866 3.50074,12.24357 l 0,2.51154 -1.54238,1.28006 -1.54238,1.28007 -0.83561,-0.90762 C 314.36192,190.04184 309,179.54954 309,178.05403 l 0,-1.55405 -1.5,0 -1.5,0 0,-3 0,-3 -0.94098,0 c -0.51754,0 -1.19323,0.40814 -1.50153,0.90698 l -0.56055,0.90698 2.8848,6.09991 c 1.58664,3.35495 3.42387,6.74944 4.08272,7.54331 0.65885,0.79387 1.29992,2.1384 1.42459,2.98784 0.12467,0.84945 1.42342,2.79358 2.8861,4.32029 l 2.65942,2.77583 1.4865,6.97943 1.48649,6.97943 -1.45378,1.11024 c -1.51244,1.15504 -2.01217,3.47793 -0.70378,3.27134 0.4125,-0.0651 1.06409,-0.0651 1.44798,0 l 0.69798,0.11842 -1.0458,3 -1.04581,3 -1.35512,0 c -0.74532,0 -2.44652,-0.49727 -3.78044,-1.10505 l -2.42532,-1.10505 -2.28424,-4.87695 -2.28424,-4.87694 -3.2985,-3.60113 -3.2985,-3.60112 -0.96863,0.59865 -0.96863,0.59865 0.42348,5.09632 0.42347,5.09632 -1.61544,3.40428 c -0.88849,1.87236 -1.97295,3.62525 -2.40992,3.89531 l -0.79449,0.49102 -2.50465,-0.95227 -2.50465,-0.95226 0.54009,-2.0653 0.54009,-2.0653 -3.0785,-1.07317 -3.07849,-1.07317 -0.64965,-2.04686 -0.64964,-2.04686 -1.50934,3.11645 -1.50935,3.11645 -0.77708,-0.48027 -0.77709,-0.48026 -0.79314,1.74425 c -0.43623,0.95934 -0.82088,2.64426 -0.85479,3.74426 l -0.0616,2 -1.25,-0.25 -1.25,-0.25 0,1 0,1 1.66211,0 c 0.91416,0 3.95166,0.65165 6.75,1.44811 4.24169,1.20727 17.51105,3.34727 31.08789,5.01366 1.65,0.20252 5.20726,0.64127 7.90501,0.975 l 4.90502,0.60678 4.09498,1.98602 c 12.64856,6.13439 20.35992,12.05078 28.09499,21.55537 4.32776,5.3178 14.24263,15.39422 19.1038,19.41506 1.66236,1.375 3.55656,3.4 4.20934,4.5 l 1.18686,2 1.213,-2 c 0.66715,-1.1 1.27361,-2.45 1.34769,-3 0.0741,-0.55 0.20322,-1.5625 0.287,-2.25 l 0.15227,-1.25 6.56574,0 6.56574,0 2.00234,1.07162 2.00234,1.07162 -1.56808,2.3932 C 399.70564,277.35268 399,278.89545 399,279.4648 l 0,1.03518 3.45031,0 3.45031,0 0.95053,1.69851 0.95053,1.6985 4.34916,-2.79069 4.34916,-2.79069 3.68892,-4.15782 3.68891,-4.15781 1.52928,2 1.52928,2 0.0165,2 c 0.0232,2.81539 -0.83822,3.82339 -5.95288,6.96569 -2.475,1.52057 -5.53071,3.83784 -6.79047,5.14949 l -2.29048,2.38482 -2.70953,-0.0106 -2.70953,-0.0106 -3.40341,-3.50261 c -1.87187,-1.92643 -3.56528,-3.34073 -3.76312,-3.14289 -0.19785,0.19785 0.28403,1.90045 1.07085,3.78356 l 1.43057,3.42384 2.11029,1.90979 c 1.16066,1.05038 3.62725,2.61625 5.48131,3.4797 4.386,2.04259 10.74288,7.33491 23.06855,19.20533 5.50273,5.29949 12.33328,11.87448 15.17901,14.61111 l 5.17406,4.97568 1.13718,4.22315 c 0.62544,2.32273 1.22212,6.54773 1.32594,9.38889 l 0.18877,5.16565 -2.34029,3.28117 -2.34029,3.28117 -7.65971,5.92539 c -13.83403,10.70173 -20.45835,15.05816 -36.4422,23.96592 l -15.78249,8.79555 4.28249,1.9816 c 2.35537,1.08987 5.51603,2.27888 7.02368,2.64224 l 2.7412,0.66064 -0.14964,-1.76684 c -0.0823,-0.97176 -0.0783,-3.01548 0.009,-4.54159 L 405,395.45048 l 2.52612,-0.96043 c 2.4903,-0.94681 5.48201,-1.70435 10.56701,-2.67568 l 2.59312,-0.49534 1.80336,3.8003 1.80337,3.80031 0.4533,4.04017 0.45329,4.04017 -3.94528,4.5 -3.94529,4.5 0.37881,1.09991 0.3788,1.09992 -1.28331,1.0573 -1.2833,1.05731 -3.5,0.34278 -3.5,0.34278 -1.5,-3.15367 -1.5,-3.15367 -3.97388,-0.64395 -3.97387,-0.64394 -1.76599,-1.59821 -1.766,-1.5982 -5.26013,-0.4262 -5.26013,-0.4262 1.4501,1.0047 1.45009,1.00471 -0.10112,3.56731 -0.10112,3.56732 1.24802,0 c 0.6864,0 2.16969,0.7875 3.29618,1.75 1.12649,0.9625 4.34535,3.70261 7.15301,6.08913 l 5.10484,4.33912 0,2.25724 0,2.25723 -1.57324,3.15364 -1.57324,3.15364 -2.75245,0 -2.75244,0 -2.42432,-2.59777 c -1.33337,-1.42877 -3.67532,-3.49403 -5.20434,-4.58947 l -2.78002,-1.99171 0.56587,3.21197 c 0.31122,1.76658 1.44974,5.04136 2.53002,7.2773 1.08029,2.23594 1.96329,4.76832 1.96223,5.62751 l -0.002,1.56217 -4.76871,3.25 -4.76872,3.25 -1.52935,0 c -0.84114,0 -2.06935,-0.54 -2.72935,-1.2 l -1.2,-1.2 0,-2.18519 c 0,-1.20185 -0.68095,-3.69935 -1.51323,-5.55 l -1.51324,-3.36481 0.50021,4.5 c 0.27511,2.475 0.72914,7.875 1.00894,12 l 0.50874,7.5 -0.80951,3 -0.80951,3 -4.73222,0.9262 -4.73223,0.9262 -1.98957,-1.98957 -1.98956,-1.98957 0.97575,-10.37014 0.97575,-10.37015 -1.69016,-1.24891 -1.69016,-1.24892 -2.58202,7.85158 c -1.42011,4.31838 -3.36216,9.04223 -4.31566,10.49747 l -1.73365,2.64588 -3.07774,-0.67599 -3.07774,-0.67598 -2.32499,-2.63905 -2.325,-2.63905 -0.0316,-2.14301 -0.0316,-2.14301 1.5,-0.57561 1.5,-0.5756 0,-2.29426 0,-2.29425 -2.25,-0.99494 -2.25,-0.99494 0.13938,-3.16804 0.13939,-3.16803 4.61061,-9.14204 c 2.5359,-5.02811 4.61068,-9.42476 4.61068,-9.77032 0,-0.34555 -1.575,0.89827 -3.5,2.76405 -1.925,1.86578 -3.5,3.76886 -3.5,4.22906 0,0.46021 -3.825,5.83498 -8.5,11.94394 -4.675,6.10897 -8.5,11.57766 -8.5,12.15266 0,0.57499 -0.97844,2.08694 -2.17431,3.35989 l -2.17432,2.31445 1.42432,0.0333 c 2.23088,0.0521 5.19839,3.01586 8.63021,8.61927 l 3.15568,5.15255 -0.50298,0.50297 -0.50297,0.50298 2.78767,4.34448 2.78767,4.34448 0.10041,7 0.10042,7 2.37129,5 c 1.30421,2.75 2.50836,5.45 2.67589,6 0.16753,0.55 1.23644,4.375 2.37536,8.5 l 2.07077,7.5 -0.33979,10.30331 -0.33979,10.3033 -0.97276,0.6967 -0.97277,0.69666 -0.0832,4.5 c -0.0457,2.475 -0.31109,9 -0.58964,14.5 l -0.50647,10 2.03394,4.5 c 2.88342,6.37943 4.77936,7.42441 5.04683,2.78165 l 0.13145,-2.28165 3.25633,0.14993 3.25634,0.14993 2.28884,1.4997 2.28885,1.49971 1.18943,3.96998 1.18943,3.96998 -0.62607,3.13038 -0.62606,3.13039 -1.625,-0.006 c -0.89375,-0.003 -2.91394,-0.67839 -4.48931,-1.5 -1.57537,-0.82177 -3.68435,-1.494 -4.68664,-1.494 l -1.82233,0 -0.31336,3.25 -0.31336,3.25 -3,-0.32223 -3,-0.32223 -1.13774,-1.46538 -1.13775,-1.46538 -3.00507,-0.86185 -3.00507,-0.86184 -0.38102,11.13164 -0.38101,11.13163 1.68936,3.31357 c 0.92914,1.82247 2.1087,3.85549 2.62123,4.51782 0.51254,0.66234 1.62778,3.45425 2.47832,6.20425 l 1.54643,5 -0.82084,5.5 c -0.45146,3.025 -0.85369,9.00195 -0.89384,13.28212 l -0.073,7.78212 1.36607,3.26946 1.36607,3.26947 4.38393,1.30983 c 2.41116,0.72041 6.12497,2.19615 8.25291,3.27944 l 3.86898,1.9696 -1.07271,1.07271 -1.07271,1.07271 -8.07376,0.0388 -8.07376,0.0388 -3.71291,-3.82263 -3.71291,-3.82263 -0.32832,-18.11991 -0.32831,-18.11991 -3.35383,-6.5 -3.35383,-6.5 -0.70662,-6.25 -0.70662,-6.25 -0.62084,0.0153 c -0.34145,0.008 -1.23137,0.40217 -1.97759,0.875 l -1.35677,0.85969 1.16582,0.72051 1.16581,0.72051 -0.24557,2.15449 c -0.13506,1.18497 0.11071,3.22061 0.54616,4.52365 l 0.79172,2.36916 -1.30721,2.44255 -1.30721,2.44255 1.202,1.92472 c 0.66111,1.0586 1.20201,2.80427 1.20201,3.87927 l 0,1.95456 -1.09417,0.67623 -1.09417,0.67623 0.49361,2.58217 0.49362,2.58217 -0.96201,2.53026 c -0.5291,1.39165 -1.31704,2.76442 -1.75098,3.05062 -1.2449,0.82104 -4.8964,12.85579 -6.14956,20.26792 l -1.1408,6.74758 2.2116,4.25242 c 1.21639,2.33884 2.52959,4.47743 2.91824,4.75243 0.38864,0.275 2.18279,2.66912 3.98701,5.32028 l 3.28039,4.82027 -0.5999,0.5999 -0.5999,0.5999 1.49379,2.2798 c 1.95531,2.98418 5.70038,14.6108 8.33621,25.87985 l 2.1051,9 0.20056,10.00819 0.20056,10.00818 -1.1646,2.17608 -1.1646,2.17607 -0.002,5.31574 -0.002,5.31574 -1.95687,3.5 c -1.07627,1.925 -2.23848,4.23174 -2.58267,5.1261 l -0.62581,1.6261 -2.16577,1.15993 -2.16577,1.15992 -2.27986,3.96398 -2.27986,3.96397 -2.50532,0 -2.50533,0 -2.40151,-1.57353 -2.40151,-1.57353 -0.61129,-2.78317 -0.61128,-2.78317 -2.45202,-1.31228 L 302,777.16202 301.9682,776.081 c -0.0175,-0.59456 -0.74281,-1.98102 -1.61181,-3.08102 l -1.58001,-2 0.59052,3.5 0.59052,3.5 -0.90763,12.5 c -0.49919,6.875 -1.15694,13.60685 -1.46167,14.95967 -0.54324,2.41173 -3.36501,18.11217 -4.14093,23.04033 -0.21649,1.375 -0.62159,4.82526 -0.90024,7.66723 -0.27864,2.84198 -0.962,9.14198 -1.51858,14 -0.55658,4.85803 -1.01565,10.75939 -1.02017,13.11415 l -0.008,4.28139 1.75,0.54245 c 0.9625,0.29835 4.38036,1.73746 7.59525,3.19801 l 5.84525,2.65556 1.90475,2.67497 1.90475,2.67498 0,2.64661 0,2.64662 -3.73423,3.421 -3.73424,3.42101 -2.77408,0.60929 -2.77408,0.60929 -1.02825,1.92129 -1.02824,1.92129 1.78808,1.91928 c 0.98344,1.0556 3.09869,4.54195 4.70054,7.74743 4.76601,9.53735 11.34566,17.25845 18.62031,21.85075 l 3.9136,2.4706 1.60809,2.4542 1.60809,2.4543 -0.34165,1.774 -0.34166,1.7741 -2.41027,1.2016 c -1.32566,0.6609 -2.80653,1.9097 -3.29084,2.7751 l -0.88075,1.5735 -1.82834,0 -1.82834,0 -1.37197,2.0613 -1.37197,2.0613 -3.5,0.067 -3.5,0.067 -1.73504,1.5134 -1.73504,1.5134 -5.26496,-0.5634 c -2.89573,-0.3099 -7.02814,-1.161 -9.18313,-1.8914 l -3.91818,-1.328 -1.08182,-3.1545 -1.08183,-3.1546 -5.73725,-5.4968 -5.73726,-5.4968 -0.99737,-2.6233 -0.99736,-2.6233 -3.36254,-1.984 -3.36254,-1.9839 -1.81613,-3.3724 -1.81613,-3.3723 1.28306,-4.5827 1.28306,-4.58261 -0.71732,-5.78639 -0.71733,-5.7864 -1.39807,-3 c -0.76894,-1.65 -2.97504,-4.94748 -4.90245,-7.32774 L 249,879.3445 l 0,-2.71931 0,-2.71931 3.79216,-3.70295 c 2.08569,-2.03662 4.31403,-3.70295 4.95186,-3.70295 l 1.15969,0 -0.42629,-12.75 c -0.23446,-7.0125 -0.61457,-13.65 -0.84468,-14.75 -0.23011,-1.1 -0.71034,-5.6 -1.06717,-10 -0.35683,-4.4 -1.34198,-12.5 -2.18921,-18 l -1.54042,-10 -4.0897,-15.13694 -4.0897,-15.13694 -6.57827,0.0951 c -3.61805,0.0523 -8.19474,-0.15368 -10.17042,-0.45781 l -3.59215,-0.55296 -0.15002,3.82873 c -0.19,4.84883 -1.78577,12.01577 -3.69034,16.57403 C 219.6639,792.15528 219,794.80081 219,796.0922 l 0,2.34796 3.04301,6.27991 c 1.67365,3.45395 4.39589,8.90753 6.04942,12.11907 l 3.00641,5.83916 -0.19047,8.64212 -0.19048,8.64212 -2.08014,2.81354 -2.08014,2.81353 -0.7479,-1.79481 -0.74791,-1.79482 0.2191,2.89511 0.2191,2.89511 -1.11307,0.39258 -1.11307,0.39258 -1.25081,-3.01973 -1.25081,-3.01973 0.62522,-1.6293 0.62522,-1.6293 -1.45021,0.5565 -1.45021,0.55649 -0.31113,-2.69515 -0.31113,-2.69516 -1.34835,0.28278 -1.34834,0.28278 0.68418,-4.97464 0.68419,-4.97464 -0.72736,-2.29171 -0.72736,-2.29172 -1.00439,2.48357 -1.00439,2.48358 -0.31821,21.03022 -0.3182,21.03022 5.87037,3.96978 c 6.09605,4.1224 7.92875,6.21061 8.62991,9.83309 l 0.41358,2.13669 -1.07037,3.25 -1.07036,3.25 -1.67245,0.036 -1.67245,0.036 -2.80134,2.29253 -2.80134,2.29254 -0.024,5.9215 -0.024,5.9215 1.0753,2.81513 c 0.59141,1.5483 1.07529,3.9808 1.07529,5.4056 l 0,2.5905 -2.49228,3.2675 -2.49228,3.2676 -5.30335,2.4279 -5.30335,2.428 -3.65001,3.2048 -3.65001,3.2047 -4.00972,6.3489 -4.00972,6.349 -4.79464,1.5861 -4.79464,1.5861 -10.89754,-0.1384 -10.89754,-0.1385 -1.62232,-1.6223 z M 122.807,652.42099 c -0.19781,-0.59345 -1.47281,-1.70327 -2.83333,-2.46628 -10.60969,-5.95012 -30.96119,-17.03629 -49.32919,-26.87132 l -21.85551,-11.7024 -1.94912,1.76393 -1.94913,1.76393 4.80464,2.39262 c 8.49407,4.22989 44.68678,23.39933 48.30464,25.58452 5.40074,3.26204 21.28118,10.42519 23.33333,10.52491 l 1.83334,0.0891 -0.35967,-1.07899 z m -2.55341,-8.17101 0.42025,-1.25 -4.9242,-3.25 c -2.70832,-1.7875 -5.11956,-3.25 -5.35832,-3.25 -0.23876,0 -5.84622,-3.15 -12.46102,-7 -6.61479,-3.85 -12.22142,-7 -12.45918,-7 -0.23776,0 -2.80352,-1.50224 -5.7017,-3.3383 C 76.87124,617.32561 71.35,614.10896 67.5,612.01356 c -3.85,-2.0954 -8.01475,-4.4714 -9.25501,-5.27999 l -2.255,-1.47017 -1.495,1.24073 c -2.76295,2.29306 -2.44693,2.56031 13.00501,10.99777 6.84948,3.74013 14.74344,8.09882 22,12.14742 2.75,1.53428 5.9,3.26041 7,3.83583 1.1,0.57542 6.5,3.45716 12,6.40386 11.41049,6.11333 11.19173,6.03216 11.75359,4.36097 z m 0.96172,-7.25 0.21532,-1 -13.96092,-9.25 c -7.67851,-5.0875 -14.28042,-9.25 -14.67091,-9.25 -0.39049,0 -2.35831,-1.11859 -4.37294,-2.48575 l -3.66296,-2.48575 -0.88145,0.54477 -0.88145,0.54476 0,-0.93294 0,-0.93294 -7.80796,-5.12607 -7.80797,-5.12608 -1.94203,0.0153 c -2.15377,0.017 -5.15001,1.61024 -4.41308,2.34666 0.92309,0.92245 36.60384,22.00819 43.94663,25.97051 4.11158,2.21869 9.02825,5.08763 10.92593,6.37544 3.50587,2.37914 4.92648,2.5909 5.31379,0.79208 z m 1.76544,-6.25 -0.0193,-1.75 -7.73074,-5.14746 c -4.25191,-2.8311 -9.30575,-5.9811 -11.23075,-7 -1.925,-1.0189 -3.72537,-2.14766 -4.00082,-2.50837 -0.52945,-0.69333 -21.16247,-13.79082 -24.74927,-15.71042 l -2.10503,-1.12658 -1.57244,0.6034 c -2.515,0.9651 -1.91903,1.71935 4.17756,5.28699 3.1625,1.85066 8,4.8351 10.75,6.63211 2.75,1.797 10.4,6.7998 17,11.11732 12.84879,8.4053 17.55492,11.2443 18.75,11.31109 l 0.75004,0.0419 -0.0192,-1.75 z m 0.51454,-9.12083 -0.48635,-3.87082 2.06811,-2.62918 c 1.13746,-1.44604 1.81409,-2.62917 1.50363,-2.62917 -0.31047,0 0.0685,-1.6875 0.84219,-3.75 1.59133,-4.24227 2.87462,-9.04409 2.9956,-11.209 l 0.0815,-1.45901 -3.47529,-0.71077 c -4.16104,-0.85103 -5.00149,-0.44912 -5.0978,2.4378 l -0.0731,2.19098 -1.7512,3 -1.75119,3 -3.91304,0.32451 -3.91303,0.32452 -1.2681,1.05243 -1.2681,1.05242 -3.91511,-0.62605 -3.91511,-0.62605 -1.60625,0.61638 -1.60625,0.61637 11.27678,6.98807 c 6.20223,3.84343 11.93571,7.61566 12.74107,8.38273 0.80535,0.76707 1.81372,1.39467 2.24081,1.39467 l 0.77654,0 -0.48635,-3.87083 z M 77.5,596.49998 c -0.33992,-0.55 -0.81648,-1 -1.05902,-1 -0.24254,0 -0.44098,0.45 -0.44098,1 l 0,1 1.05902,0 1.05901,0 -0.61803,-1 z m 79.60644,-128.04409 2.99785,-1.24175 -0.55214,-1.43887 C 159.24847,464.9839 159,461.35821 159,457.71819 l 0,-6.61821 -1.05553,1.05553 -1.05553,1.05553 -0.85389,6.04095 c -0.46963,3.32253 -1.34464,6.95795 -1.94447,8.07873 -0.59982,1.12078 -1.03838,2.85486 -0.97458,3.85352 l 0.116,1.81574 0.43829,-1.65117 0.43829,-1.65117 2.99786,-1.24175 z M 161,437.7743 c 0,-4.18421 -0.1622,-7.42015 -0.36044,-7.19099 -0.19825,0.22917 -0.64456,3.92845 -0.99181,8.22062 l -0.63136,7.80396 0.9918,-0.61297 0.99181,-0.61297 0,-7.60765 z m 0.5897,-22.62083 -0.46479,-14.34652 1.44472,-6.40348 c 1.59388,-7.0646 4.07801,-23.0244 5.06067,-32.51328 l 0.63272,-6.10979 -0.71952,-6.71886 c -0.39575,-3.69537 -0.90669,-6.53171 -1.13543,-6.30297 -0.5774,0.5774 -2.15863,13.53967 -2.89615,23.74141 -0.52642,7.28166 -2.19872,21.13267 -4.10497,34 l -0.51852,3.5 0.68412,12.75 0.68411,12.75 0.89892,0 0.89891,0 -0.46479,-14.34651 z M 114,405.99998 l 0,-3.5 -1,0 -1,0 0,3.5 0,3.5 1,0 1,0 0,-3.5 z m 195.5,1.05488 6,-1.41556 4.5,-2.47425 c 2.475,-1.36083 7.2,-3.249 10.5,-4.19593 3.3,-0.94692 7.2375,-2.16945 8.75,-2.71673 l 2.75,-0.99505 0,-0.8473 0,-0.84729 1.39885,0.53679 1.39885,0.53679 0.55642,-0.90032 0.55643,-0.90031 -4.95528,-2.1637 C 338.22987,389.48197 336,388.22834 336,387.88616 c 0,-1.04114 6.33811,-7.912 6.93895,-7.52221 0.30858,0.20019 2.2693,1.71694 4.35716,3.37056 l 3.79612,3.00657 0.67986,-0.67986 0.67986,-0.67986 -2.83099,-5.40711 -2.83098,-5.40711 1.35501,-1.28358 c 0.74526,-0.70597 2.82311,-1.8091 4.61745,-2.45141 l 3.26244,-1.16783 1.85816,4.16783 c 1.02199,2.29231 2.10587,4.84283 2.40861,5.66783 l 0.55046,1.5 0.0845,-4.5 c 0.10474,-5.5765 1.79433,-11.96195 3.74691,-14.16068 l 1.47476,-1.66067 5.17585,2.27815 5.17585,2.27816 0.5,3.71792 0.5,3.71791 5.21028,-5.33539 c 2.86565,-2.93447 6.62724,-6.9104 8.35909,-8.8354 1.73184,-1.925 6.11043,-6.52679 9.73019,-10.22619 3.61977,-3.69941 6.38318,-6.89044 6.14092,-7.09119 -0.24227,-0.20075 -4.04048,-2.30271 -8.44048,-4.67102 -4.4,-2.36832 -12.89,-7.20587 -18.86667,-10.75011 l -10.86667,-6.44409 -4.13333,1.61845 c -2.27333,0.89015 -5.00048,2.27658 -6.06033,3.08097 l -1.927,1.46252 0.54502,0.54502 0.54503,0.54502 3.92742,-0.88243 3.92742,-0.88243 2.03133,0.75143 c 1.11723,0.41329 3.45928,2.17939 5.20455,3.92467 l 3.17323,3.17323 0,5.05504 0,5.05504 -2.19884,3.61804 c -1.20935,1.98991 -3.34685,4.63043 -4.75,5.8678 l -2.55116,2.24978 -5.40389,1.5729 -5.40389,1.57289 -4.76876,-0.65587 -4.76877,-0.65587 -1.53644,-1.1668 -1.53644,-1.1668 -1.20679,-4.59475 -1.20679,-4.59476 1.6982,-5.19192 1.69819,-5.19193 -3.53231,-3.3314 -3.53231,-3.33139 0,-1.56683 c 0,-0.86175 0.43067,-2.69956 0.95704,-4.08402 l 0.95704,-2.51721 3.29296,-1.74333 c 1.81113,-0.95883 3.86635,-1.84216 4.56717,-1.96296 l 1.27421,-0.21964 2.95532,2.48674 2.95532,2.48674 1.02047,-0.63069 1.02047,-0.63068 0,-4.32159 0,-4.32158 -8.55222,-7.3694 c -4.70372,-4.05317 -9.83337,-7.99207 -11.39923,-8.7531 l -2.847,-1.3837 -2.37068,0.595 c -1.30387,0.32725 -3.28224,1.44426 -4.39638,2.48224 -1.11414,1.03798 -2.53315,2.06789 -3.15335,2.2887 -0.6202,0.2208 -3.24194,2.39006 -5.82608,4.82057 l -4.69843,4.41911 -1.50352,3.58089 c -1.91921,4.57095 -6.6539,23.47752 -8.15909,32.58089 -0.63658,3.85 -1.65517,9.32145 -2.26354,12.15877 l -1.10614,5.15878 0.62372,8.84122 c 0.34305,4.86268 1.0909,11.65991 1.66188,15.10496 l 1.03816,6.26373 -0.44604,8.48627 -0.44604,8.48627 0.67199,-0.0148 c 0.36959,-0.008 3.37199,-0.65178 6.67199,-1.43034 z m -196.57029,-8.30488 -0.0703,-2.75 -0.85943,2 c -1.17371,2.73138 -1.17371,3.5 0,3.5 l 1,0 -0.0703,-2.75 z m 9.07029,1.75 0,-1 -1.05902,0 -1.05901,0 0.61803,1 c 0.33992,0.55 0.81648,1 1.05902,1 0.24254,0 0.44098,-0.45 0.44098,-1 z m 0.17751,-17.22249 -0.97884,-0.97884 -0.68195,2.14865 -0.68196,2.14866 1.33262,1.61954 1.33262,1.61954 0.32818,-2.78935 0.32818,-2.78935 -0.97885,-0.97885 z m -5.73795,-8.4806 0.65353,-1.70309 -0.17868,-8.83143 -0.17869,-8.83144 -0.61653,0.61652 c -0.78897,0.78898 -2.93661,12.94109 -3.04019,17.20253 l -0.079,3.25 1.39301,0 1.39301,0 0.65354,-1.70309 z M 117,352.99998 l 0,-1.5 -0.96862,0 -0.96861,0 0.5756,1.5 c 0.31659,0.825 0.75246,1.5 0.96862,1.5 0.21615,0 0.39301,-0.675 0.39301,-1.5 z m 4.92738,-23.0875 -1.21414,-1.46296 -1.85662,1.68022 -1.85662,1.68022 0,1.37069 0,1.37069 3.07076,-1.58795 3.07077,-1.58796 -1.21415,-1.46295 z M 362.43524,315.3952 c -0.3043,-0.49237 -0.97672,-0.89522 -1.49426,-0.89522 l -0.94098,0 0,1.46862 0,1.46861 1.49426,-0.5734 1.49425,-0.5734 -0.55327,-0.89521 z M 396,278.44096 l 0,-1.05901 -1,0.61803 c -0.55,0.33992 -1,0.81648 -1,1.05902 0,0.24254 0.45,0.44098 1,0.44098 l 1,0 0,-1.05902 z m -5,-1.5 c 0,-0.24254 -0.45,-0.44098 -1,-0.44098 l -1,0 0,1.05902 0,1.05901 1,-0.61803 c 0.55,-0.33992 1,-0.81648 1,-1.05902 z m -201.27827,-62.71328 -0.40166,-3.2277 0.008,7 0.008,7 0.39359,-3.7723 c 0.21647,-2.07477 0.21284,-5.22477 -0.008,-7 z m 71.91502,-0.4777 c -0.2727,-2.6125 -0.52753,-6.6625 -0.56628,-9 l -0.0705,-4.25 -1.16667,0 -1.16666,0 0.63148,0.63148 0.63148,0.63149 -1,1.86851 -1,1.86852 1.10769,0 1.10768,0 -0.24618,5.31448 -0.24617,5.31447 0.73269,1.18553 c 0.40298,0.65203 0.96097,1.18552 1.23996,1.18552 l 0.50727,0 -0.49582,-4.75 z m 6.01919,0.48097 -0.49805,-1.23097 0.0371,3 0.0371,3 0.46099,-1.76903 c 0.25354,-0.97297 0.23687,-2.32297 -0.0371,-3 z m -67.67125,-3.03999 0.0153,-2.80901 -0.79088,0.48879 -0.79089,0.48879 -0.22165,3.82023 -0.22165,3.82022 0.99722,-1.5 0.99722,-1.5 0.0153,-2.80902 z M 274,210.48483 l 0,-2.01515 3,-5.31571 3,-5.3157 0,-2.61013 0,-2.61013 -0.928,-0.57353 -0.92801,-0.57354 -0.66234,2.08684 -0.66233,2.08684 -1.5419,-0.59168 -1.54189,-0.59168 0.50568,4.48636 0.50568,4.48635 -1.37345,2.64731 C 272.61805,207.5373 272,209.57716 272,210.61429 l 0,1.88569 1,0 1,0 0,-2.01515 z m -84.31067,-4.73485 -0.45733,-1.75 0,3.5 0,3.5 0.45733,-1.75 c 0.25152,-0.9625 0.25152,-2.5375 0,-3.5 z m 77.91484,1.02083 -0.60417,-0.60416 0.079,1.91666 0.0789,1.91667 0.52522,-1.3125 0.52522,-1.3125 -0.60416,-0.60417 z m 23.05075,0.2723 -0.59215,-1.54313 -1.28139,0.0789 -1.28138,0.0789 1.25,0.50439 1.25,0.50439 0,1.58333 0,1.58333 0.62354,-0.62354 0.62354,-0.62353 -0.59216,-1.54313 z M 314,207.49998 l 0,-1 -1.05902,0 -1.05901,0 0.61803,1 c 0.33992,0.55 0.81648,1 1.05902,1 0.24254,0 0.44098,-0.45 0.44098,-1 z m -118,-3 c 0,-0.55 -0.45,-1 -1,-1 -0.55,0 -1,0.45 -1,1 0,0.55 0.45,1 1,1 0.55,0 1,-0.45 1,-1 z m 71.66228,-2.25 -0.50439,-1.25 0,2.5 0,2.5 0.50439,-1.25 0.50439,-1.25 -0.50439,-1.25 z m 43.4059,0.15921 c -1.33749,-1.11333 -3.01068,-2.78586 -3.71819,-3.71673 l -1.28638,-1.69248 -0.0318,1.11514 c -0.0175,0.61333 0.90086,2.30083 2.04078,3.75 l 2.07258,2.63486 1.67742,-0.0333 1.67742,-0.0333 -2.43182,-2.02425 z m -121.4059,-2.15921 -0.50439,-1.25 0,2.5 0,2.5 0.50439,-1.25 0.50439,-1.25 -0.50439,-1.25 z m -5,-1 -0.50439,-1.25 0,2.5 0,2.5 0.50439,-1.25 0.50439,-1.25 -0.50439,-1.25 z m 10.83772,2.25 c -0.33992,-0.55 -0.81648,-1 -1.05902,-1 -0.24254,0 -0.44098,0.45 -0.44098,1 l 0,1 1.05902,0 1.05901,0 -0.61803,-1 z m 0.16228,-5.25 -0.50439,-1.25 0,2.5 0,2.5 0.50439,-1.25 0.50439,-1.25 -0.50439,-1.25 z m -10.95655,-5 -0.43337,-2.25 0,4.5 0,4.5 0.43337,-2.25 c 0.23836,-1.2375 0.23836,-3.2625 0,-4.5 z m 116.8657,2.25 0,-2 -0.78572,0 -0.78571,0 0,2 0,2 0.78571,0 0.78572,0 0,-2 z m -111.37455,-5.5607 0.41569,-3.56071 -0.80628,-0.49831 -0.80629,-0.49831 0,4.05901 c 0,5.01039 0.63906,5.27646 1.19688,0.49832 z m -39.31491,-2.63651 c 4.55535,-2.76645 5.08385,-3.54871 5.10272,-7.55279 l 0.0153,-3.25 -1.25,0.006 c -0.6875,0.003 -2.50142,0.65892 -4.03093,1.45675 l -2.78094,1.45058 -1.46906,-0.56373 -1.46907,-0.56374 0,4.0252 c 0,4.04288 0.76099,7.18878 1.73895,7.18878 0.28874,0 2.1531,-0.98875 4.14302,-2.19721 z m -9.67416,-7.77324 c 0.40499,-2.37232 0.59681,-5.22758 0.42627,-6.34503 l -0.31006,-2.03172 -2.20435,-0.1624 -2.20435,-0.1624 -0.67954,1.086 c -0.37375,0.5973 -0.77003,1.68364 -0.88064,2.41409 -0.1106,0.73045 -0.44372,1.96036 -0.74026,2.73314 l -0.53917,1.40505 -1.67431,-0.64249 -1.6743,-0.64249 0.46354,1.40935 c 0.25495,0.77514 1.97311,2.4321 3.81813,3.68212 l 3.35459,2.27278 1.05406,-0.35136 1.05406,-0.35135 0.73633,-4.31329 z M 279,172.94096 l 0,-1.44098 -1,0 -1,0 0,2.05902 0,2.05901 1,-0.61803 c 0.55,-0.33992 1,-1.26648 1,-2.05902 z m -150.57829,-2.19432 c 0.30607,-0.96433 0.46644,-3.82237 0.35638,-6.3512 l -0.20011,-4.59786 -1.72422,0.45089 c -0.94833,0.248 -2.43469,1.23595 -3.30304,2.19547 l -1.57881,1.74456 1.42586,3.40574 c 2.19995,5.2547 3.99851,6.38325 5.02394,3.1524 z m 23.17306,-7.3034 c -0.80473,-2.99379 -1.49276,-4.87111 -1.52896,-4.17182 l -0.0658,1.27144 -2.5,1.13907 -2.5,1.13908 0.0153,3.08949 c 0.0173,3.49959 0.81252,5.0508 2.98469,5.82247 l 1.5,0.53288 1.77896,-1.68967 1.77897,-1.68968 -1.46316,-5.44326 z M 142,156.77875 c 0,0.96582 5.55117,-4.74157 7.98716,-8.21194 l 2.40988,-3.43317 -1.94852,0.81652 c -1.07169,0.44908 -3.26051,0.74368 -4.86406,0.65467 l -2.91553,-0.16185 -2.83447,2.71559 -2.83446,2.71559 0,1.37865 c 0,0.75826 0.48138,2.27812 1.06974,3.37748 l 1.06974,1.99882 1.43026,-1.18701 C 141.35638,156.78925 142,156.49074 142,156.77875 z m 163.94239,-0.84819 -1.02587,-1.23609 1.22165,-0.40721 1.22165,-0.40722 -0.64853,-1.69003 c -0.35668,-0.92952 -1.00014,-1.68913 -1.42991,-1.68803 l -0.78138,0.002 -0.23629,3.33133 -0.2363,3.33133 1.47042,0 1.47042,0 -1.02586,-1.23609 z m -181.11493,-1.10499 -1.67253,-0.4424 -1.00484,-2.88247 -1.00483,-2.88247 1.17737,-0.48018 1.17737,-0.48018 -1.63337,-0.0789 -1.63337,-0.0789 -0.60297,-2.25 c -0.33164,-1.2375 -0.61576,-3.6 -0.63138,-5.25 l -0.0284,-3 -1.2952,2.5 -1.2952,2.5 1.78798,4 1.78798,4 0.022,2.75 0.022,2.75 3.25,-0.116 3.25,-0.116 -1.67254,-0.44241 z m 44.32372,-1.64343 -1.13383,-1.36618 0.65799,-0.65799 0.65799,-0.65799 -1.66666,0 -1.66667,0 0,1.5 0,1.5 1.5,0 1.5,0 0,1.16667 0,1.16666 0.6425,-0.6425 0.6425,-0.6425 -1.13382,-1.36617 z m -1.46502,-5.65639 c -0.16571,-1.08583 -0.61288,-2.28583 -0.99372,-2.66667 L 166,144.16665 l 0,1.08488 c 0,1.36594 1.08606,4.24845 1.60071,4.24845 0.21271,0 0.25116,-0.8884 0.0855,-1.97423 z m 140.05844,-0.75958 0.36961,-1.10882 -2.04586,0.53501 -2.04586,0.535 0.5804,0.9391 0.58039,0.93909 1.09586,-0.36528 c 0.60272,-0.20091 1.26218,-0.86426 1.46546,-1.4741 z m -2.05751,-5.07091 c -1.4779,-1.54259 -2.68709,-3.34259 -2.68709,-4 l 0,-1.19528 -0.97856,0 -0.97856,0 1.22149,2.75 c 1.6469,3.70771 2.95475,5.16649 4.67272,5.21196 l 1.43709,0.038 -2.68709,-2.80472 z M 131,134.99998 l 0,-1.5 1,0 1,0 0,-1.65499 0,-1.65499 -2,1.80998 -2,1.80998 0,1.34501 0,1.34501 1,0 1,0 0,-1.5 z m 177.98403,-4.75 c -0.009,-0.6875 -1.30967,-2.71722 -2.89086,-4.5105 l -2.87488,-3.2605 -1.51889,0.58286 -1.51889,0.58285 -2.84025,-1.44567 c -1.56214,-0.79512 -3.81547,-1.74617 -5.00738,-2.11344 l -2.16713,-0.66777 0.51566,1.97189 0.51566,1.97189 1.40147,-0.5378 L 294,122.286 l 0,1.46832 0,1.46832 2.5,-0.47791 2.5,-0.4779 0,1.08519 0,1.08519 1.46777,-0.56323 1.46776,-0.56324 2.78224,2.97595 c 1.53023,1.63677 3.11973,3.02935 3.53223,3.09462 l 0.75,0.11867 -0.016,-1.25 z m -183.01299,-22.71094 1.47104,-0.93031 -0.54404,-0.54404 -0.54404,-0.54405 -1.927,1.45787 -1.927,1.45786 1,0.0165 c 0.55,0.009 1.66197,-0.40215 2.47104,-0.91382 z M 290,106.57141 c 0,-0.51072 -0.76628,-1.69486 -1.70285,-2.63142 l -1.70285,-1.70286 0.29664,-4.10844 0.29664,-4.10844 -2.09379,1.89485 -2.09379,1.89486 0,1.76828 0,1.76829 2.58889,3.07672 c 2.56169,3.04439 4.41111,3.94504 4.41111,2.14816 z m -150.69951,-1.41211 0.51447,-1.34069 -0.79568,-1.28743 -0.79567,-1.28743 -1.01793,0.62911 -1.01792,0.62911 0.52275,1.99901 c 0.60097,2.29809 1.8399,2.613 2.58998,0.65832 z m -3.9035,-7.82599 -0.51502,-0.83333 0.99163,0 0.99162,0 0.63194,-1.99105 0.63194,-1.99105 -0.67492,-1.09204 -0.67491,-1.09203 -1.88964,3.10725 C 133.85034,95.15006 133,96.91244 133,97.35748 l 0,0.80917 1.45601,0 1.45601,0 -0.51503,-0.83334 z m 175.5039,-6.22783 2.24952,-2.39451 -0.99827,-0.61696 c -0.54905,-0.33933 -1.28339,-1.91514 -1.63188,-3.5018 l -0.63362,-2.88484 -2.05808,-1.8537 c -1.13195,-1.01953 -2.42408,-2.81037 -2.87141,-3.97964 l -0.81332,-2.12594 -3.09177,-0.45378 -3.09178,-0.45377 0.14999,3.07972 c 0.0825,1.69384 -0.18172,3.86722 -0.58713,4.82972 l -0.73712,1.75 1.86721,0 1.86721,0 2.69613,2.5 c 1.48288,1.375 3.16578,2.5 3.73979,2.5 l 1.04364,0 0,1.5 0,1.5 -1.62244,0 -1.62245,0 1.24489,1.5 c 1.67293,2.01575 2.26906,1.90695 4.90089,-0.8945 z m -155.20344,-15.61491 1.13592,-3.0094 -2.02198,-1.08213 -2.02198,-1.08213 -3.28452,0.61617 -3.28452,0.61618 -0.51656,1.97536 -0.51657,1.97536 1.29207,0 c 0.71064,0 2.58101,0.67223 4.15638,1.49384 3.77473,1.96866 3.7483,1.97651 5.06176,-1.50325 z m 121.45632,-9.20516 c 1.23706,-1.94967 1.087,-2.12875 -3.6606,-4.36846 l -4.41548,-2.08302 -1.28049,0.79138 -1.28048,0.79139 1.24164,1.24164 1.24164,1.24164 0,2.43084 0,2.43084 3.66908,-0.59541 3.66909,-0.59541 0.8156,-1.28543 z M 265,60.49998 c -1.93876,-1.25292 -3,-1.25292 -3,0 l 0,1 2.25,-0.0153 2.25,-0.0153 -1.5,-0.9694 z m -21,-11.66601 0,-3.45202 -1,0.61803 -1,0.61803 0,1.94099 0,1.94098 -0.96862,0 -0.96861,0 0.55137,1.43686 0.55138,1.43685 1.41724,-0.54384 L 244,52.286 l 0,-3.45203 z m 33.20372,-17.87674 c -0.93705,-0.64142 -2.94122,-1.3943 -4.45372,-1.67306 l -2.75,-0.50685 0,0.86133 0,0.86133 1.56286,0 1.56286,0 -0.17802,1.75 c -0.0979,0.9625 -0.12619,2.11294 -0.0629,2.55654 l 0.1152,0.80653 2.95372,-1.7448 2.95371,-1.7448 -1.70371,-1.16622 z"
     id="path2989"
     inkscape:connector-curvature="0" />
</svg>
