<?xml version="1.0" encoding="UTF-8" standalone="no"?>
<!-- Created with Inkscape (http://www.inkscape.org/) -->

<svg
   xmlns:dc="http://purl.org/dc/elements/1.1/"
   xmlns:cc="http://creativecommons.org/ns#"
   xmlns:rdf="http://www.w3.org/1999/02/22-rdf-syntax-ns#"
   xmlns:svg="http://www.w3.org/2000/svg"
   xmlns="http://www.w3.org/2000/svg"
   xmlns:sodipodi="http://sodipodi.sourceforge.net/DTD/sodipodi-0.dtd"
   xmlns:inkscape="http://www.inkscape.org/namespaces/inkscape"
   id="svg2"
   version="1.1"
   inkscape:version="0.48.2 r9819"
   width="922.38849"
   height="794.26648"
   sodipodi:docname="yellowfairybook00lang02_0159c.png">
  <metadata
     id="metadata8">
    <rdf:RDF>
      <cc:Work
         rdf:about="">
        <dc:format>image/svg+xml</dc:format>
        <dc:type
           rdf:resource="http://purl.org/dc/dcmitype/StillImage" />
        <dc:title></dc:title>
      </cc:Work>
    </rdf:RDF>
  </metadata>
  <defs
     id="defs6" />
  <sodipodi:namedview
     pagecolor="#ffffff"
     bordercolor="#666666"
     borderopacity="1"
     objecttolerance="10"
     gridtolerance="10"
     guidetolerance="10"
     inkscape:pageopacity="0"
     inkscape:pageshadow="2"
     inkscape:window-width="1600"
     inkscape:window-height="876"
     id="namedview4"
     showgrid="false"
     fit-margin-top="0"
     fit-margin-left="0"
     fit-margin-right="0"
     fit-margin-bottom="0"
     inkscape:zoom="1"
     inkscape:cx="-1.70103"
     inkscape:cy="345.26649"
     inkscape:window-x="0"
     inkscape:window-y="24"
     inkscape:window-maximized="1"
     inkscape:current-layer="svg2" />
  <path
     style="fill:#000000"
     d="m 99.89835,793.16081 -0.68334,-1.10568 -4.20802,-1.24579 -4.20802,-1.24578 -4.58363,-4.67763 c -2.521,-2.5727 -6.24148,-7.17528 -8.26772,-10.22795 l -3.68409,-5.55031 -0.99311,-7.80384 -0.99311,-7.80383 1.15266,-12.6582 1.15266,-12.65819 -1.10324,-4.38137 -1.10324,-4.38137 0.57804,-2.21044 0.57804,-2.21043 -1.11663,0 -1.11663,0 0,-2.96862 0,-2.96861 -1.5508,0.5951 -1.55079,0.59509 0.63168,-2.87648 0.63168,-2.87648 -1.02651,1.47104 C 67.14694,707.81578 67.02482,707.67945 63.98134,701 l -2.50606,-5.5 -1.27118,-6.16744 -1.27118,-6.16744 1.19001,-3.9719 1.19001,-3.9719 4.04767,-4.04767 c 2.22622,-2.22622 6.04832,-5.22013 8.49356,-6.65313 l 4.44589,-2.60546 11.55545,-1.00357 11.55546,-1.00358 2.5091,-0.95395 2.5091,-0.95396 4.74707,0 4.74707,0 4.13952,-2 4.13953,-2 5.7983,-0.0246 5.79831,-0.0246 5.90523,-1.97541 c 3.24787,-1.08647 7.07287,-1.98542 8.5,-1.99765 l 2.59477,-0.0222 2.5,-1.95553 2.5,-1.95553 2.87827,-0.0222 2.87828,-0.0222 5.12172,-2.93327 5.12173,-2.93328 1.758,-2.98457 c 0.96691,-1.64151 3.18314,-4.18373 4.92498,-5.64939 1.74183,-1.46566 4.4719,-4.30687 6.06681,-6.31381 l 2.89985,-3.64899 -0.24289,-4.51834 -0.24289,-4.51835 0.80402,-2 c 0.44221,-1.1 1.82108,-4.7 3.06416,-8 l 2.26013,-6 0.61726,-10.37699 0.61725,-10.37698 1.64995,-3.477 1.64994,-3.477 -1.16328,-3.21701 c -0.63981,-1.76943 -1.16329,-3.95873 -1.16329,-4.86519 0,-2.56173 4.76489,-16.53614 6.46693,-18.96615 l 1.52402,-2.17584 -2.68637,-2.14203 -2.68636,-2.14203 1.2323,-5.50652 1.23231,-5.50651 2.45858,-2.30973 2.45859,-2.30972 0,-1.82568 0,-1.82569 1,0 1,0 0,-1.39301 0,-1.39301 -1.62675,-0.62424 -1.62675,-0.62425 -1.62325,1.26726 c -0.89279,0.69699 -1.84825,1.49297 -2.12325,1.76884 -0.87064,0.87342 -5.36394,2.81741 -9.29249,4.02031 l -3.7925,1.16125 -3.97774,-1.59157 L 181.2585,517 l -3.30461,0 -3.30462,0 -7.25458,2.46744 -7.25458,2.46745 -12.88986,0.68048 -12.88987,0.68049 -1.38965,-1.15331 c -0.76431,-0.63432 -3.52068,-1.79466 -6.12527,-2.57852 l -4.73562,-1.42521 -1.73705,-1.57201 -1.73705,-1.57202 -5.41839,-0.41023 c -2.98011,-0.22563 -6.01308,-0.44946 -6.73995,-0.4974 L 105.15584,514 l 0.32156,-2.75 0.32157,-2.75 -7.5,-0.64317 c -4.125,-0.35374 -8.77425,-0.97573 -10.33167,-1.38219 l -2.83167,-0.73902 -1.07009,-2.34859 -1.07008,-2.34859 -2.09825,-0.62682 c -1.15403,-0.34475 -4.79824,-1.96064 -8.09824,-3.59086 l -6,-2.96404 -9.21301,-9.62172 -9.21302,-9.62172 -0.60195,-2.74067 -0.60195,-2.74067 -5.19003,-4.43397 -5.19002,-4.43398 -1.84866,-5.14095 -1.84866,-5.14094 -2.14635,-1.74105 -2.14635,-1.74105 -2.5,-5.43763 -2.5,-5.43763 -1.87165,-1.75003 -1.87166,-1.75004 -1.28822,-9.31234 C 17.2819,412.07372 16.0123,407.29515 12.97216,401 L 10.79897,396.5 10.1521,388 9.50522,379.5 6.78745,370 4.06967,360.5 4.06067,353 4.05167,345.5 2.62704,340 1.2024,334.5 0.6012,321.78265 0,309.06529 1.01254,307.78265 2.02508,306.5 2.23493,293.67037 2.44478,280.84073 3.28329,276.17037 c 2.40978,-13.42204 2.99437,-15.97212 4.44872,-19.40629 0.87018,-2.05475 2.0876,-6.10475 2.70538,-9 l 1.12325,-5.26408 2.28775,-2.72991 2.28776,-2.72991 2.58147,-7.9744 2.58146,-7.9744 0.0128,-2.79569 c 0.007,-1.53763 1.28825,-7.60717 2.8471,-13.48786 l 2.83426,-10.69217 1.87567,-2.80783 c 1.03162,-1.54431 2.90043,-4.99001 4.1529,-7.65713 l 2.27716,-4.84929 0,-2.39672 c 0,-2.36729 3.00972,-12.08111 5.54756,-17.90469 3.42124,-7.85069 6.83021,-27.3481 7.8679,-45 l 0.41151,-7 -0.95996,-12 -0.95995,-12 -2.20353,-9.903991 -2.20353,-9.903991 -2.81384,-2.081263 C 38.43752,59.46606 36.24556,57.031622 35.11411,55.200892 l -2.05719,-3.328601 -3.7539,-2.369732 -3.7539,-2.369733 -0.6857,-2.816413 L 24.17772,41.5 22.40973,40 c -0.9724,-0.825 -3.47557,-3.639012 -5.56259,-6.253361 L 13.05254,28.993278 12.5457,24.496639 12.03886,20 11.29804,20 10.55722,20 9.86407,12.053887 9.17092,4.107774 10.27013,2.053887 11.36934,0 l 2.36072,0 2.36072,0 3.35409,4.133022 c 1.84476,2.273163 6.12111,7.110663 9.503,10.75 L 35.09678,21.5 l 3.06939,5 c 1.68816,2.75 3.95076,6.605104 5.028,8.566898 1.07724,1.961793 2.66651,4.154393 3.53171,4.872444 0.8652,0.718051 1.57309,1.86357 1.57309,2.545598 0,0.682028 1.35,2.938805 3,5.01506 l 3,3.775009 0,2.227637 0,2.227637 2,2.542588 2,2.542588 0,1.598884 0,1.598884 2.5,2.173722 2.5,2.173722 0,1.760647 0,1.760648 1,0.618034 1,0.618034 0,2.381966 0,2.381966 1,0.618034 1,0.61803 0,3.38197 0,3.38197 1,0.61803 1,0.61803 0,4.24099 0,4.24098 1.07774,1.07774 c 0.59275,0.59275 1.44706,2.71528 1.89846,4.71673 l 0.82073,3.63899 -2.03342,7.23327 -2.03341,7.23327 0.13495,5.25 c 0.0742,2.8875 0.21151,7.6125 0.30507,10.5 l 0.17013,5.25 -1.7845,6 -1.78449,6 -0.33699,5.5 c -0.18535,3.025 -0.81668,9.0853 -1.40296,13.46733 l -1.06598,7.96734 -0.94173,0.94173 -0.94173,0.94173 0.56907,4.15186 0.56908,4.15185 -3.1637,9.43908 c -3.55363,10.60246 -3.90343,11.52457 -6.90999,18.21583 l -2.14633,4.77675 0,2.51309 0,2.51309 -2,3.92032 -2,3.92032 0,3.8245 0,3.8245 -1.90461,5.46534 C 43.34683,251.0406 41.51349,257.775 40.32027,263 c -1.19321,5.225 -2.62299,11.08091 -3.17727,13.01313 l -1.0078,3.51313 0.46658,13.48687 0.46658,13.48687 1.5627,7.5 1.5627,7.5 0.0526,6.30718 0.0526,6.30718 -1.12845,4.48146 -1.12844,4.48145 1.27169,6.21137 c 0.69943,3.41625 1.85927,7.67386 2.57742,9.46136 l 1.30573,3.25 1.4297,0 1.42971,0 0.98182,2.75 c 2.34469,6.56726 3.26083,10.0556 3.26083,12.41601 l 0,2.52401 2,1.80998 2,1.80998 0,2.21015 0,2.21015 1.86968,2.38486 1.86968,2.38486 0.70726,3.23853 c 0.38899,1.7812 1.12263,3.49525 1.63032,3.80902 l 0.92306,0.57048 0.004,2.19099 0.004,2.19098 2.13499,3.5 c 1.17425,1.925 2.94162,5.84301 3.9275,8.7067 l 1.79251,5.2067 4.70339,7.7933 4.70339,7.7933 4.47752,5 c 2.46263,2.75 6.26299,6.9125 8.44525,9.25 l 3.96774,4.25 1.31312,0 1.31313,0 0.52356,1.36436 0.52355,1.36436 6.65315,4.65088 c 7.4371,5.19891 13.72371,8.6204 15.83902,8.6204 0.77274,0 2.47817,0.83127 3.78984,1.84727 l 2.38486,1.84727 9.5,2.11363 c 18.94942,4.21601 19.13846,4.22299 31.2235,1.15352 C 172.7704,477.88276 177.5528,477 179.15003,477 l 2.90405,0 1.20966,-1.45756 1.20967,-1.45755 2.91278,0.58255 2.91278,0.58256 0,-1.125 0,-1.125 3,0 3,0 0,-1 0,-1 1.38569,0 c 2.18594,0 5.93263,-2.23748 9.20981,-5.5 l 3.01348,-3 4.93072,-2.5 4.93072,-2.5 4.94311,-4.37873 4.94311,-4.37873 3.57168,-1.62127 c 1.96442,-0.8917 7.07924,-4.22682 11.36626,-7.41139 l 7.79457,-5.79011 8.77779,-4.45989 C 265.9937,427.00695 270.40967,425 270.97918,425 c 0.56952,0 4.05715,-1.575 7.7503,-3.5 l 6.71482,-3.5 1.86832,0 1.86832,0 0.59309,-0.95964 c 0.3262,-0.5278 3.16525,-1.73821 6.30901,-2.68979 3.14376,-0.95158 6.39093,-2.28469 7.21593,-2.96245 0.825,-0.67776 2.85,-1.5528 4.5,-1.94452 1.65,-0.39172 3.675,-1.25848 4.5,-1.92613 0.825,-0.66765 3.525,-1.9043 6,-2.74811 2.475,-0.84381 8.1,-2.7865 12.5,-4.31708 l 8,-2.78288 4.5,-3.71624 4.5,-3.71625 4,-1.24182 4,-1.24183 8,-5.21306 c 12.06592,-7.86255 13.66247,-8.82381 18,-10.83751 2.2,-1.02135 6.25,-2.91391 9,-4.20569 2.75,-1.29179 7.025,-3.23893 9.5,-4.32698 2.475,-1.08806 6.57429,-2.92142 9.10953,-4.07415 C 411.94374,357.94314 414.70114,357 415.53606,357 l 1.51802,0 1.23068,-1.48288 1.23069,-1.48288 3.14176,-0.95598 c 6.11602,-1.86097 11.23003,-3.9607 18.64176,-7.65399 6.67219,-3.32478 11.12385,-5.12423 28,-11.31818 2.475,-0.90839 5.13389,-2.04955 5.90864,-2.53592 2.10465,-1.32123 12.96374,-3.77776 18.09136,-4.09261 l 4.5,-0.2763 9.417,-3.10063 9.417,-3.10063 2.7955,0 2.7955,0 5.2875,-1.9014 c 2.9081,-1.04578 7.2974,-2.19167 9.754,-2.54644 l 4.4665,-0.64503 3.2083,-2.44708 3.2083,-2.44708 2.8942,-4.28847 2.8943,-4.28848 2.8261,-7.74869 c 1.5543,-4.26178 3.2108,-7.98645 3.6809,-8.27703 l 0.8549,-0.52833 0.073,-2.19099 0.073,-2.19098 1.9002,-3 c 1.0452,-1.65 3.0136,-5.07574 4.3743,-7.61276 l 2.4739,-4.61276 4.8027,-3.97126 c 7.8409,-6.48347 15.8476,-10.17539 32.2211,-14.85728 l 9.4185,-2.69312 10.0815,0.52154 10.0816,0.52154 4,1.47981 c 2.2,0.8139 6.5875,2.28291 9.75,3.26447 l 5.75,1.78465 4.6408,4.57526 4.6408,4.57526 7.3261,0.36995 7.3261,0.36995 1.0959,1.32054 1.096,1.32054 -1.5732,3.04219 -1.5732,3.04219 -1.8525,0.99143 -1.8525,0.99143 -1.2209,2.94749 -1.2209,2.94748 1.206,2.34073 c 0.6632,1.2874 2.3252,3.54179 3.6932,5.00976 l 2.4874,2.66903 6.1404,2.20647 6.1405,2.20646 2.25,2.43027 2.25,2.43027 0,2.90905 0,2.90905 1.9897,1.06483 1.9896,1.06483 1.5104,2.92069 1.5103,2.9207 -0.011,2.79966 -0.011,2.79966 -4.0891,4.27599 c -2.249,2.3518 -5.3942,4.95085 -6.9892,5.77568 l -2.9001,1.49969 0,1.47432 0,1.47432 2.4442,0 2.4443,0 2.6235,2.25666 2.6235,2.25667 -1.1302,2.97262 -1.1302,2.97263 -3.1875,2.73007 c -1.7532,1.50154 -3.6813,2.74836 -4.2846,2.77071 -0.6033,0.0224 -2.1347,0.94064 -3.403,2.04064 -1.2683,1.1 -2.5747,2.0039 -2.903,2.00867 -0.3283,0.005 -2.2845,1.60811 -4.347,3.56298 l -3.75,3.55431 0,2.48668 0,2.48668 1.5724,3.04059 1.5723,3.04059 2.5107,-0.63016 c 1.3809,-0.34658 4.2734,-1.74284 6.4277,-3.10279 l 3.9169,-2.47264 0,-0.98745 0,-0.98746 1.5,0 1.5,0 2,-2 c 1.1,-1.1 2.4342,-2 2.9648,-2 0.5307,0 1.3903,-0.79501 1.9103,-1.76668 l 0.9455,-1.76668 3.8397,-1.37504 c 2.1118,-0.75627 5.0905,-2.41836 6.6191,-3.69353 l 2.7795,-2.31849 3.3352,-0.62568 3.3351,-0.62568 7.5579,-6.16411 c 4.1569,-3.39026 9.7258,-7.73911 12.3753,-9.66411 2.6496,-1.925 6.622,-5.10502 8.8275,-7.06672 2.2056,-1.96169 6.1301,-4.78292 8.7213,-6.26939 2.5911,-1.48647 5.0661,-3.27903 5.5,-3.98346 0.4338,-0.70443 2.3638,-2.36153 4.2888,-3.68243 1.925,-1.3209 3.725,-2.68245 4,-3.02567 0.275,-0.34322 2.1235,-1.7149 4.1077,-3.04818 1.9843,-1.33328 4.9035,-3.99915 6.4873,-5.92415 1.5837,-1.925 4.9102,-5.68385 7.3922,-8.353 l 4.5128,-4.853 5.1035,-3.397 c 2.8069,-1.86835 5.7319,-3.41131 6.5,-3.4288 0.7681,-0.0175 2.2826,-0.7017 3.3656,-1.52046 1.083,-0.81876 3.783,-1.95767 6,-2.53092 8.5868,-2.2203 28.0824,-10.55962 31.5309,-13.48748 0.825,-0.70043 2.85,-1.5992 4.5,-1.99726 1.65,-0.39805 4.125,-1.48383 5.5,-2.41284 1.375,-0.92901 4.6081,-2.6893 7.1847,-3.91175 l 4.6846,-2.22263 3.6482,0.6844 3.6481,0.6844 2.6672,-1.96599 c 1.467,-1.08129 4.2422,-2.68303 6.1672,-3.55942 l 3.5,-1.59343 15.1669,0.18259 15.1669,0.18259 0.6281,0.62836 0.6282,0.62836 -1.172,4.65441 -1.172,4.6544 -2.1231,1.15853 -2.123,1.15852 -3.5,0.12111 c -1.925,0.0666 -6.2,0.23599 -9.5,0.37639 l -6,0.25528 2,0.83959 c 1.1,0.46178 4.7,1.61821 8,2.56986 3.3,0.95165 6.5625,2.17348 7.25,2.71518 l 1.25,0.9849 0,2.75511 0,2.75511 -1.2745,1.05776 c -0.701,0.58176 -3.4329,1.79052 -6.0708,2.68613 l -4.7963,1.62838 -1.3976,-1.15995 -1.3977,-1.15995 -2.7815,2.97281 -2.7816,2.97282 -3.5583,1.13773 -3.5583,1.13773 -7.9417,0.25999 -7.9417,0.26 -7,2.9178 c -10.8643,4.52856 -10.5316,4.76945 4.234,3.06559 l 11.2339,-1.29633 4.5765,0.97606 4.5765,0.97607 0.995,2.61709 0.995,2.61709 -0.5578,2.22264 -0.5579,2.22264 -2.9254,2.08312 -2.9255,2.08312 -4.8222,1.00729 c -2.6521,0.55401 -6.6221,1.28225 -8.8221,1.61833 -2.2,0.33607 -4.5274,1.02623 -5.172,1.53369 -0.6446,0.50746 -3.5632,1.79669 -6.4859,2.86495 l -5.3139,1.94229 -3.6416,0 -3.6417,0 -1.1475,1.38266 -1.1475,1.38265 -6.9338,2.22952 -6.9338,2.22951 -3.2911,-1.18719 c -1.8102,-0.65295 -5.9733,-1.58262 -9.2515,-2.06594 l -5.9603,-0.87875 -4.2897,1.89754 -4.2897,1.89754 0,1.47128 c 0,0.8092 -0.8751,2.52201 -1.9446,3.80623 -8.6572,10.39514 -10.4216,13.04688 -11.4456,17.20181 l -0.7066,2.86686 -5.1019,7.63314 c -2.806,4.19823 -7.1718,9.99374 -9.7016,12.87892 -7.8808,8.98775 -19.0597,21.5979 -22.3878,25.25422 -1.7523,1.925 -5.8918,5.67537 -9.1989,8.33416 -3.3072,2.65879 -6.163,5.24629 -6.3463,5.75 -0.1834,0.50371 -0.985,0.91584 -1.7814,0.91584 l -1.4481,0 -0.6183,1.6112 -0.6182,1.6112 -2.7806,1.16914 -2.7805,1.16914 -7.3198,6.97007 -7.3198,6.97006 -4.5,2.19716 c -2.475,1.20844 -5.2943,2.43423 -6.265,2.72397 l -1.765,0.52681 -0.902,2.37227 -0.9019,2.37227 -3.583,1.70027 -3.5831,1.70027 0,0.85807 c 0,0.47193 -1.9926,2.02582 -4.4281,3.45308 l -4.428,2.59502 -2.6118,0 -2.6118,0 -3.9203,-2 c -2.1562,-1.1 -4.4573,-2 -5.1137,-2 -0.6563,0 -3.6773,-1.1751 -6.7132,-2.61133 l -5.5199,-2.61133 -8.0253,-1.40103 -8.0253,-1.40103 -2.0882,-1.96173 -2.0881,-1.96173 -5.4632,-0.11522 -5.4631,-0.11523 -4.7981,-1.50702 -4.7981,-1.50703 -2.4638,0.61837 -2.4637,0.61838 -2.9424,4.7273 -2.9424,4.72731 -0.6327,3.74542 c -0.3481,2.05998 -0.9949,3.96921 -1.4375,4.24272 -0.841,0.51976 -7.0213,12.89204 -7.0213,14.05581 0,0.62854 -3.3665,5.11369 -6.3481,8.45737 -0.7356,0.825 -2.0508,2.96661 -2.9226,4.75913 -0.8718,1.79252 -3.7551,5.91187 -6.4072,9.15411 l -4.8221,5.89498 -2.25,1.07445 -2.25,1.07445 -0.012,1.77144 c -0.01,0.97429 -1.5045,5.1893 -3.3285,9.36668 l -3.3163,7.59523 -3.0989,3.90477 c -1.7045,2.14762 -4.5447,6.60476 -6.3117,9.90476 -1.767,3.3 -3.9371,6.83614 -4.8225,7.85808 l -1.6099,1.85808 0.078,9.14192 0.078,9.14192 4.2761,10 c 2.3519,5.5 4.5061,11.24301 4.7872,12.76224 0.2812,1.51923 0.9093,3.00829 1.3959,3.30902 l 0.8847,0.54677 0,2.57295 0,2.57295 1.9245,3.11804 1.9246,3.11803 1.1644,5 c 0.6404,2.75 1.4205,5.675 1.7335,6.5 1.477,3.8926 4.4313,14.98314 5.1196,19.21872 l 0.7668,4.71873 1.549,1.78127 c 0.8519,0.97971 1.8599,3.13128 2.24,4.78128 0.3801,1.65 2.1866,6.15 4.0146,10 1.8279,3.85 3.6374,8.35 4.0211,10 0.3837,1.65 1.2726,3.675 1.9752,4.5 l 1.2775,1.5 1.6454,8.5 1.6453,8.5 -7e-4,5.20121 -8e-4,5.20121 -1.5761,5.79879 c -1.814,6.67416 -2.9333,13.68801 -4.4362,27.79879 l -1.065,10 -1.4289,4.82223 -1.4289,4.82224 1.1657,13.67776 c 0.6412,7.52278 1.1667,15.37902 1.1678,17.45833 l 0,3.78056 -3.0721,3.07207 -3.0721,3.07208 -10.8781,0.39466 c -5.983,0.21707 -11.9683,0.3945 -13.3008,0.39428 l -2.4226,-3.8e-4 -3.5774,-2.14687 -3.5773,-2.14686 -5.5,-0.18059 -5.5,-0.18059 -2.3044,-1.23374 -2.3044,-1.23373 0.3044,-4.04245 0.3044,-4.04246 4.5,-1.50062 c 2.475,-0.82535 5.0892,-1.97958 5.8093,-2.56497 l 1.3093,-1.06434 -5.7227,-1.77063 -5.7227,-1.77064 -2.8341,0.56684 -2.8342,0.56683 -1.5025,-1.24695 -1.5024,-1.24695 0,-3.28742 0,-3.28742 4.4101,-4.20311 c 2.4255,-2.31171 5.4384,-4.71578 6.6952,-5.34238 l 2.2852,-1.13926 1.7754,-3.04001 1.7755,-3.04001 0.9977,-7.95775 c 0.5487,-4.37676 1.6869,-10.41832 2.5293,-13.42568 0.8423,-3.00736 1.5315,-6.48357 1.5315,-7.72491 l 0,-2.25699 3.6773,-6.77509 3.6772,-6.77508 1.2141,-6.98873 1.214,-6.98874 -1.9628,-5.01126 c -1.0796,-2.7562 -2.3806,-5.43877 -2.8913,-5.96127 -0.5107,-0.5225 -0.9285,-1.80774 -0.9285,-2.8561 l 0,-1.90609 -2.8669,-3.64391 c -1.5768,-2.00414 -3.8901,-5.6689 -5.1407,-8.1439 -2.9455,-5.82969 -5.2303,-8.7546 -12.2424,-15.67229 l -5.75,-5.67262 0,-1.29275 c 0,-0.71101 -1.2554,-2.77091 -2.7898,-4.57754 -1.5345,-1.80664 -3.2849,-4.4098 -3.89,-5.7848 -0.605,-1.375 -3.6246,-5.27078 -6.7101,-8.65728 l -5.6075,-6.15729 0,-2.0337 0,-2.0337 -1,-0.61803 -1,-0.61803 -0.116,-3.19099 -0.116,-3.19098 -0.45744,1.75062 -0.45745,1.75062 -2.67655,-0.63851 c -3.45658,-0.82458 -4.93886,-2.03163 -5.77544,-4.70304 -0.65871,-2.10341 -5.0893,-8.3857 -10.65112,-15.1026 l -2.75,-3.32112 0,-3.01543 0,-3.01544 -3.25,0.14745 -3.25,0.14745 -0.30397,-4.72984 -0.30397,-4.72984 2.71314,-4.77016 c 1.49222,-2.62359 4.37196,-6.79516 6.39942,-9.27016 l 3.68629,-4.5 4.23105,-8 c 2.32709,-4.4 4.74321,-8.76592 5.36918,-9.70204 l 1.13812,-1.70203 -0.76011,-0.76011 -0.76011,-0.76011 -2.20452,1.36827 c -2.56822,1.59401 -3.7852,2.19546 -9.20452,4.549 l -4,1.73715 -6.71203,0.85275 -6.71203,0.85275 -1.98773,1.24135 -1.98773,1.24136 -3.58417,-1.70917 -3.58416,-1.70917 -4.40706,0 -4.40706,0 -0.5297,-0.85707 -0.52969,-0.85707 -5.46109,-0.56364 -5.46109,-0.56363 -3.31823,-1.51098 -3.31823,-1.51098 -4.5,-0.41166 -4.5,-0.41167 -6.99571,-2.65666 -6.99571,-2.65667 -1.66154,-2.20276 -1.66155,-2.20276 -2.6398,1.20278 C 391.39277,501.45875 389.16172,502 387.88678,502 l -2.31809,0 -2.50595,-1.97118 -2.50596,-1.97118 -1.8789,2.10077 -1.87891,2.10077 -4.17966,1.80472 -4.17966,1.80472 -1.07034,1.99995 -1.07034,1.99995 0,3.24479 0,3.2448 2.22883,7.07094 2.22883,7.07095 4.26033,6.5 c 4.51674,6.89121 10.62581,14.89487 14.46362,18.94919 1.27511,1.34706 3.21839,3.84644 4.31839,5.55418 1.92686,2.99144 3.23399,4.64786 6.54554,8.29464 0.85004,0.93609 2.09321,2.82699 2.7626,4.20199 0.66938,1.375 2.36436,4.525 3.76662,7 1.40226,2.475 3.42159,7.0733 4.4874,10.21845 l 1.93784,5.71846 0,7.83154 0,7.83155 -1.08434,1.08434 -1.08434,1.08434 -0.46956,6.36566 -0.46955,6.36566 -2.39152,8 c -3.11968,10.43585 -5.50658,21.25307 -5.5033,24.94045 l 0.003,2.94046 -2.60337,8.55954 c -1.43186,4.70775 -3.48751,10.80955 -4.56811,13.55955 -1.0806,2.75 -3.33128,9.5 -5.00152,15 l -3.03678,10 0.46758,8.5437 0.46758,8.5437 1.01522,1.9563 c 0.55838,1.07596 1.74002,3.64827 2.62587,5.71623 l 1.61064,3.75992 4.09683,4.44454 4.09682,4.44453 11.28197,6.45778 11.28197,6.45778 15.4876,-0.14406 15.4876,-0.14406 4.56231,2.34648 4.5623,2.34648 2.30525,-1.61466 c 3.27869,-2.29648 4.03144,-2.09634 9.18835,2.44296 l 4.6097,4.05761 0.98989,3.58511 0.9899,3.58511 -0.99398,1.85727 -0.99399,1.85728 -4.24921,0 -4.2492,0 -1.77215,3 -1.77214,3 -3.90828,0 -3.90828,0 -1.01895,1.90393 -1.01896,1.90393 -5.20951,0.71649 -5.20951,0.71649 -1.71889,-2.12274 -1.71889,-2.12274 -1.83783,0.67938 c -1.01081,0.37366 -2.11082,1.08437 -2.44447,1.57937 l -0.60663,0.89999 -8.0132,0.15343 -8.01319,0.15343 -1.6006,-1.32839 -1.6006,-1.32838 -5.02957,0.69174 -5.02957,0.69175 0,-1.09384 0,-1.09384 -2.89301,0 -2.89301,0 -0.57561,-1.5 -0.5756,-1.5 -2.00097,0 -2.00097,0 -3.56083,-2 -3.56083,-2 -1.91057,0 -1.91057,0 -0.60043,-0.97153 C 387.07401,778.82699 378.56185,775 376.63201,775 c -0.77699,0 -3.19479,-0.90915 -5.37288,-2.02032 l -3.96016,-2.02033 0,-0.91229 0,-0.91228 -2.15222,-0.68309 c -1.18373,-0.3757 -4.30907,-1.95481 -6.9452,-3.50913 -2.63613,-1.55432 -6.95513,-3.55983 -9.59777,-4.45669 -2.64265,-0.89686 -6.25926,-2.32054 -8.03692,-3.16372 l -3.23212,-1.53306 -0.98463,-3.56603 -0.98463,-3.56604 0.60057,-6.07851 0.60056,-6.07851 1.23689,-1.5 c 0.68029,-0.825 2.25707,-4.65 3.50396,-8.5 1.2469,-3.85 3.14478,-8.74739 4.21752,-10.8831 l 1.95044,-3.8831 0.4591,-20.36948 0.4591,-20.36949 -1.11546,-8.24741 -1.11545,-8.24742 -1.45492,-2.25 -1.45493,-2.25 -1.99051,0 c -2.08878,0 -4.83937,-1.32223 -8.84114,-4.25 l -2.39196,-1.75 -1.87871,0 c -1.03329,0 -2.6601,-0.39506 -3.61514,-0.87792 -0.95504,-0.48285 -3.31143,-1.61407 -5.23643,-2.51381 -1.925,-0.89974 -5.48328,-2.75468 -7.90728,-4.12208 L 306.9844,634 l -2.80753,0 -2.80753,0 -1.03519,-1.93426 -1.03518,-1.93426 0,-3.04669 0,-3.04669 -2.44689,-0.61413 -2.4469,-0.61413 -3.3031,1.16336 -3.30311,1.16337 -5.75815,7.43171 -5.75814,7.43172 -1.9448,0 c -1.06964,0 -3.11925,0.53511 -4.55469,1.18914 l -2.60988,1.18914 -0.55195,2.75975 -0.55194,2.75974 -1.63523,1.40351 c -0.89937,0.77194 -3.21022,2.25155 -5.13522,3.28803 -5.08812,2.73961 -7.95545,5.44441 -10.00302,9.43601 l -1.80838,3.52533 -5.5943,4.464 c -3.07687,2.45521 -5.5943,4.80631 -5.5943,5.22468 0,0.41837 -0.56916,0.76067 -1.26481,0.76067 -0.69564,0 -3.01295,0.93695 -5.14957,2.08211 l -3.88477,2.08211 -9.10043,-0.67846 -9.10042,-0.67846 -4.5,1.70028 c -2.475,0.93515 -7.425,3.07571 -11,4.7568 l -6.5,3.05653 -11.5,0.58954 -11.5,0.58955 -1.20002,0.77813 c -1.43023,0.9274 -14.75425,4.53267 -21.79998,5.89873 l -5,0.96942 -2.21482,1.42686 C 131.366,699.35791 129.87963,700 129.2811,700 c -0.59853,0 -2.62941,1.04725 -4.51307,2.32723 l -3.42482,2.32723 -3.36539,4.42277 -3.36538,4.42277 -0.60803,2.5 c -0.33442,1.375 -1.37197,5.62541 -2.30566,9.44535 l -1.69761,6.94536 1.15257,7.55464 1.15258,7.55465 2.10712,1.75 2.10713,1.75 1.92246,0 1.92246,0 4.71675,2.50892 c 2.59422,1.37991 5.39176,2.91476 6.21676,3.41078 2.31475,1.39171 12.11652,5.0803 13.5,5.0803 1.90368,0 11.67524,4.14023 14.75,6.24961 l 2.75,1.88658 0,4.9319 0,4.93191 2,0 2,0 0,1.3 c 0,0.715 -0.51064,1.81064 -1.13476,2.43476 l -1.13475,1.13475 -2.20128,-1.44233 -2.20128,-1.44233 -1.07313,2.35528 -1.07314,2.35527 -4.84083,2.51018 -4.84083,2.51019 -12.5,0.67226 c -6.875,0.36975 -17.49889,0.94366 -23.60863,1.27536 l -11.10864,0.6031 -0.68335,-1.10568 z m 314.65062,-5.82309 -1.25,-0.50439 -1.25,0.50439 -1.25,0.50439 2.5,0 2.5,0 -1.25,-0.50439 z M 497.66631,576.6634 497.02712,572 l -0.86407,0 c -1.16147,0 -1.08816,1.52006 0.29614,6.14043 1.50397,5.01979 2.01235,4.39774 1.20712,-1.47703 z"
     id="path2987"
     inkscape:connector-curvature="0" />
</svg>
