<?xml version="1.0" encoding="utf-8"?>
<!-- Generator: Adobe Illustrator 18.0.0, SVG Export Plug-In . SVG Version: 6.00 Build 0)  -->
<!DOCTYPE svg PUBLIC "-//W3C//DTD SVG 1.1//EN" "http://www.w3.org/Graphics/SVG/1.1/DTD/svg11.dtd">
<svg version="1.1" id="Layer_1" xmlns="http://www.w3.org/2000/svg" xmlns:xlink="http://www.w3.org/1999/xlink" x="0px" y="0px"
	 viewBox="0 0 612 792" enable-background="new 0 0 612 792" xml:space="preserve">
<path fill="#39B54A" d="M5.4,253.6c-1.5-0.1-2.9-0.1-3-2.2c-0.1-0.8-1.1-1.4-1.7-2.2c-0.3-0.4-0.8-1-0.7-1.3
	c0.2-0.6,0.8-1.2,1.2-1.7c0.2-0.2,0.5-0.5,0.8-0.5c1.9-0.2,2.3-2.3,3.9-3c0.6-0.3,1.1-1.5,1.5-1.4c1.5,0.1,2-1.7,3.7-1.5
	c0.5,0,1.1,0,1.6-0.1c0.5-0.2,0.9-0.5,1.4-0.6c1.5-0.3,3.2-0.4,4.7,0.3c0.4,0.2,0.9,0.5,1.3,0.4c2.8-0.7,5,0.6,7,2.3
	c0.3,0.3,0.8,0.5,1.2,0.5c1.6,0,2.6,0.8,3.4,2.1c1.1,1.9,3.4,2.1,4.9,0.5c0.6-0.7,2.7-2.1,3.3-2.1c0.3,0,1.4,1,1.5,1.4
	c0.1,0.3-2.1,1.9-2.4,2.2c-0.4,0.4-0.9,0.8-1.4,1c-2.4,0.6-3.5,2.4-4.8,4.3c-1.5,2.2-3.5,4.2-5.3,6.2c-0.3,0.3-1,0.2-1.6,0.3
	c-0.7,0.1-1.4,0-2,0.2c-0.9,0.3-1.6,0.9-2.4,1.4c-0.6,0.4-1.1,0.6-1.7-0.1c-0.2-0.2-0.9-0.2-1.4-0.1c-0.6,0.1-1.2,0.5-1.9,0.6
	c-1.2,0.3-2.4,0.7-2.7-1.2c0-0.2-0.7-0.5-1.1-0.5c-1.3-0.1-2.8,0.2-3.3-1.7c-0.1-0.2-0.7-0.4-1.1-0.5C7,256.1,5.5,255.6,5.4,253.6z"
	/>
<path fill="#39B54A" d="M92.3,13.4c2.1-1.5,4-2.8,6.3-0.2c0.9,0.9,3,0.7,4.5,1.1c0.8,0.2,2.1,0.5,2.3,1.1c0.4,1.1,0.2,2.4,0.2,3.6
	c0,0.5-0.2,1.1-0.5,1.5c-2.3,2.3-0.7,5.5-2.1,8.1c-0.5,1,0.1,3.1-0.6,3.5c-2.2,1.4-1,4.3-3.3,5.8c-0.7,0.6-1.5,1.1-2,1.9
	c-0.5,0.7-0.7,1.6-1.3,2.3c-1.8,2-3.9,3.9-6.7,4.5c-0.7,0.2-1.7,0.3-2.1,0.8c-3.1,3.8-7.3,4.3-11.8,4.1c-0.7,0-1.6,0.2-2.2,0.6
	c-2.1,1.6-4.3,1.6-6.6,0.7c-3.4-1.3-6.7,0.8-7,4.4c-0.1,1.5-1.4,5.5-2.2,6.2c-0.4,0.3-2.9,0-3.4-0.3c-0.4-0.3,0.8-4.8,0.9-5.4
	c0.1-0.9,0.3-2,0.8-2.7c2.6-3.3,2.2-6.9,1.9-10.8c-0.3-4.5,0.3-9.1,0.7-13.7c0.1-0.7,1.2-1.4,1.8-2c0.8-0.8,1.9-1.4,2.4-2.3
	c0.8-1.3,1.2-2.9,1.7-4.4c0.4-1.1,0.8-2,2.4-1.6c0.5,0.1,1.4-0.7,1.9-1.3c0.7-0.8,1.1-1.9,1.8-2.8c1.3-1.7,2.5-3.4,4.9-1.2
	c0.3,0.3,1.5-0.1,2-0.5c1.9-1.3,3.5-3.1,6.1-1.1c0.3,0.2,1.3-0.2,1.9-0.5C87.6,11.6,90.1,10.7,92.3,13.4z"/>
<path fill="#F39DC3" d="M102.8,44.7l3.9-3.7c0,0-10.5-9.5-25.5-6.2C75.4,36.1,62.9,50.2,58.4,55c3-5.6,12.4-21.8,11.9-27.7
	C68.8,12,56.5,5,56.5,5l-2.3,4.9L51.9,5c0,0-12.3,7-13.8,22.3c-0.6,6,8.9,22.7,12.1,28.4c-4.6-4.9-17.2-19.6-23.3-20.9
	C11.9,31.5,1.4,41,1.4,41l3.9,3.7L0,45.4c0,0,2.9,13.9,16.9,20c5.7,2.5,22.9-1.2,29.5-2.6C40.2,65.7,24,73,20.8,78.5
	c-7.8,13.2-1.9,26.1-1.9,26.1l4.7-2.6l-1,5.3c0,0,14.1,1.5,24.3-9.9c3.9-4.4,6.6-23.6,7.4-30c0.8,6.4,2,25.6,5.9,30
	c10.1,11.5,24.3,9.9,24.3,9.9l-1-5.3l4.7,2.6c0,0,5.8-12.9-1.9-26.1C82.8,72.7,66.5,66.8,59.9,64c7.2,1.7,24.9,4.2,31.3,1.4
	c14.1-6.1,16.9-20,16.9-20L102.8,44.7z"/>
<path fill="#F5B9D5" d="M88.3,49.7l2.8-2.7c0,0-7.5-6.8-18.2-4.5c-4.2,0.9-13.2,11-16.4,14.4c2.2-4,8.9-15.6,8.5-19.8
	c-1.1-10.9-9.9-16-9.9-16l-1.7,3.5l-1.7-3.5c0,0-8.8,5-9.9,16c-0.4,4.3,6.4,16.3,8.6,20.4c-3.3-3.5-12.3-14-16.7-15
	c-10.7-2.4-18.2,4.5-18.2,4.5l2.8,2.7l-3.8,0.5c0,0,2.1,10,12.1,14.3c4.1,1.8,16.4-0.9,21.1-1.8c-4.5,2-16,7.3-18.3,11.2
	c-5.6,9.5-1.4,18.7-1.4,18.7l3.4-1.9l-0.7,3.8c0,0,10.1,1.1,17.4-7.1c2.8-3.2,4.7-16.9,5.3-21.5c0.6,4.6,1.4,18.3,4.2,21.5
	c7.3,8.2,17.4,7.1,17.4,7.1l-0.7-3.8l3.4,1.9c0,0,4.2-9.3-1.4-18.7c-2.5-4.2-14.1-8.4-18.8-10.4c5.1,1.2,17.9,3,22.5,1
	C90,60.2,92.1,50.2,92.1,50.2L88.3,49.7z"/>
<path fill="#EC008C" d="M74.8,58.6c-1.1,0-2,0.6-2.5,1.5l-12.9,0.2c0,0,0-0.1,0-0.1c0-0.1,0-0.2,0-0.2l7-3c0.4,0.5,0.9,0.8,1.6,0.8
	c1.1,0,2-0.9,2-2s-0.9-2-2-2c-1.1,0-2,0.9-2,2c0,0.1,0,0.1,0,0.2l-6.8,2.9c-0.2-0.7-0.5-1.3-0.8-1.8l8.3-8.6
	c0.5,0.5,1.2,0.7,1.9,0.7c1.6,0,2.8-1.3,2.8-2.8c0-1.6-1.3-2.8-2.8-2.8c-1.6,0-2.8,1.3-2.8,2.8c0,0.3,0.1,0.6,0.2,0.9l-8.5,8.7
	c-0.1-0.1-0.3-0.2-0.4-0.3l2.6-6.6c0.2,0.1,0.4,0.1,0.6,0.1c1.2,0,2.1-0.9,2.1-2.1c0-1.2-0.9-2.1-2.1-2.1c-1.2,0-2.1,0.9-2.1,2.1
	c0,0.6,0.2,1,0.6,1.4l-2.6,6.6c-0.6-0.3-1.2-0.4-1.9-0.4L54,43.5c1.5-0.2,2.7-1.4,2.7-3c0-1.7-1.3-3-3-3c-1.7,0-3,1.3-3,3
	c0,1.3,0.8,2.4,1.9,2.8l0.2,11.5c-0.3,0.1-0.6,0.2-0.9,0.3l-2.6-6c0.8-0.3,1.4-1.1,1.4-2c0-1.2-1-2.2-2.2-2.2c-1.2,0-2.2,1-2.2,2.2
	c0,1.1,0.8,2,1.8,2.2l2.7,6.4c-0.4,0.3-0.8,0.6-1.1,0.9L41.2,48c0.6-0.5,0.9-1.2,0.9-2.1c0-1.6-1.3-2.8-2.8-2.8
	c-1.6,0-2.8,1.3-2.8,2.8c0,1.6,1.3,2.8,2.8,2.8c0.2,0,0.4,0,0.6-0.1l9.1,8.9c-0.2,0.4-0.4,0.8-0.5,1.2l-7-2.8
	c0.1-0.3,0.2-0.6,0.2-0.9c0-1.2-0.9-2.1-2.1-2.1c-1.2,0-2.1,0.9-2.1,2.1c0,1.2,0.9,2.1,2.1,2.1c0.4,0,0.8-0.1,1.1-0.3l7.6,3
	c0,0.1,0,0.2,0,0.3c0,0.1,0,0.2,0,0.2l-13.1,0.2c-0.4-1.1-1.5-2-2.7-2c-1.6,0-2.9,1.3-2.9,2.9c0,1.6,1.3,2.9,2.9,2.9
	c1.5,0,2.6-1.1,2.9-2.5l13.3-0.2c0.1,0.5,0.4,0.9,0.6,1.3l-7.5,3.2c-0.3-0.9-1.1-1.6-2.1-1.6c-1.2,0-2.2,1-2.2,2.2
	c0,1.2,1,2.2,2.2,2.2c1,0,1.9-0.7,2.1-1.6l7.6-3.3l-8.7,8.9c-0.4-0.2-0.8-0.3-1.3-0.3c-1.5,0-2.7,1.2-2.7,2.7c0,1.5,1.2,2.7,2.7,2.7
	c1.5,0,2.7-1.2,2.7-2.7c0-0.5-0.2-1-0.4-1.4l9.1-9.3c0.4,0.2,0.8,0.4,1.2,0.6l-3.2,8.1c-0.2-0.1-0.4-0.1-0.6-0.1c-1.1,0-2,0.9-2,2
	s0.9,2,2,2c1.1,0,2-0.9,2-2c0-0.5-0.2-0.9-0.5-1.3l3.2-8.1l0.2,13.3c-1,0.4-1.7,1.3-1.7,2.4c0,1.4,1.1,2.6,2.6,2.6s2.6-1.1,2.6-2.6
	c0-1.2-0.9-2.3-2-2.5l-0.2-13.6c0.3,0,0.6-0.1,0.9-0.1l3.4,8c-0.7,0.3-1.2,1-1.2,1.8c0,1.1,0.9,2,2,2s2-0.9,2-2c0-1-0.7-1.8-1.6-2
	l-3.5-8.2c0.1-0.1,0.2-0.1,0.3-0.2l9.7,9.4c-0.4,0.5-0.7,1-0.7,1.7c0,1.4,1.1,2.6,2.6,2.6s2.6-1.1,2.6-2.6c0-1.4-1.1-2.6-2.6-2.6
	c-0.2,0-0.4,0-0.7,0.1l-9.8-9.5c0.1-0.1,0.2-0.2,0.3-0.4l8.1,3.2c0,0.1-0.1,0.3-0.1,0.4c0,1.2,0.9,2.1,2.1,2.1
	c1.2,0,2.1-0.9,2.1-2.1s-0.9-2.1-2.1-2.1c-0.6,0-1.1,0.3-1.5,0.7l-8-3.2c0.2-0.4,0.4-0.7,0.5-1.1L72,61.5c0,1.5,1.3,2.8,2.8,2.8
	c1.6,0,2.8-1.3,2.8-2.8S76.4,58.6,74.8,58.6z"/>
<path fill="#F39DC3" d="M71.2,230.8l2.5-2.3c0,0-6.5-5.9-15.8-3.9c-3,0.7-8.7,6.6-12.2,10.3c-0.2-0.2-0.4-0.3-0.6-0.5
	c2.5-4.5,6.2-11.6,5.9-14.5c-0.9-9.5-8.6-13.9-8.6-13.9l-1.4,3l-1.4-3c0,0-7.7,4.4-8.6,13.9c-0.3,2.7,2.8,9,5.3,13.6
	c-0.3,0.2-0.7,0.3-1,0.6c-3.6-3.9-8.5-8.9-11.3-9.5c-9.3-2.1-15.8,3.9-15.8,3.9l2.5,2.3l-3.3,0.4c0,0,1.8,8.6,10.5,12.4
	c2.6,1.1,9.1,0.2,14-0.7c0.1,0.3,0.2,0.7,0.3,1c-4.5,2.2-10.4,5.3-11.9,7.8C15.3,259.9,19,268,19,268l2.9-1.6l-0.6,3.3
	c0,0,8.8,1,15.1-6.2c1.8-2,3.2-9,4-14.2c0.4,0,0.8-0.1,1.1-0.1c0.5,5.2,1.4,12.2,3.2,14.3c6.3,7.1,15.1,6.2,15.1,6.2l-0.6-3.3
	l2.9,1.6c0,0,3.6-8-1.2-16.3c-1.7-2.9-8.4-5.8-13.2-7.7c0.1-0.2,0.2-0.4,0.2-0.6c5.2,0.9,12.9,1.6,16.1,0.2
	c8.7-3.8,10.5-12.4,10.5-12.4L71.2,230.8z"/>
<path fill="#F5B9D5" d="M65.8,233.3l2-1.9c0,0-5.4-4.9-13-3.2c-2.4,0.5-7.1,5.4-10,8.5c-0.2-0.1-0.3-0.3-0.5-0.4
	c2-3.7,5.1-9.5,4.9-11.9c-0.7-7.8-7-11.4-7-11.4l-1.2,2.5l-1.2-2.5c0,0-6.3,3.6-7,11.4c-0.2,2.3,2.3,7.4,4.3,11.2
	c-0.3,0.1-0.6,0.3-0.8,0.5c-2.9-3.2-7-7.3-9.2-7.8c-7.6-1.7-13,3.2-13,3.2l2,1.9l-2.7,0.3c0,0,1.5,7.1,8.7,10.2
	c2.2,0.9,7.5,0.1,11.5-0.6c0.1,0.3,0.2,0.6,0.3,0.8c-3.7,1.8-8.5,4.4-9.7,6.4c-4,6.7-1,13.4-1,13.4l2.4-1.3l-0.5,2.7
	c0,0,7.2,0.8,12.4-5.1c1.5-1.7,2.6-7.4,3.3-11.6c0.3,0,0.6-0.1,0.9-0.1c0.4,4.2,1.1,10.1,2.6,11.7c5.2,5.9,12.4,5.1,12.4,5.1
	l-0.5-2.7l2.4,1.3c0,0,3-6.6-1-13.4c-1.4-2.4-6.9-4.7-10.8-6.3c0.1-0.2,0.1-0.3,0.2-0.5c4.3,0.7,10.6,1.3,13.2,0.2
	c7.2-3.1,8.7-10.2,8.7-10.2L65.8,233.3z"/>
<path fill="#EC008C" d="M59.9,238.7c0-0.8-9.1-1.3-14.8-1.6c2.7-3.4,6.2-8.1,5.8-8.5c-0.4-0.4-4.8,3.5-8.1,6.4
	c-0.7-5.7-1.9-14.6-2.6-14.6c-0.8,0-1.3,9.1-1.6,14.8c-3.4-2.7-8.1-6.2-8.5-5.8c-0.4,0.4,3.2,4.6,6.1,7.8
	c-5.7,0.3-14.3,0.9-14.3,1.6c0,0.8,8.9,1.9,14.6,2.6c-2.9,3.2-6.7,7.7-6.4,8.1c0.4,0.4,5-3.1,8.5-5.8c0.3,5.7,0.9,14.8,1.6,14.8
	c0.8,0,1.9-8.9,2.6-14.6c3.2,2.9,7.7,6.7,8.1,6.4c0.4-0.4-3.3-5.3-6-8.7C50.5,240.7,59.9,239.5,59.9,238.7z"/>
<path fill="#39B54A" d="M202.3,12.4c2.1-1.5,4-2.8,6.3-0.2c0.9,0.9,3,0.7,4.5,1.1c0.8,0.2,2.1,0.5,2.3,1.1c0.4,1.1,0.2,2.4,0.2,3.6
	c0,0.5-0.2,1.1-0.5,1.5c-2.3,2.3-0.7,5.5-2.1,8.1c-0.5,1,0.1,3.1-0.6,3.5c-2.2,1.4-1,4.3-3.3,5.8c-0.7,0.6-1.5,1.1-2,1.9
	c-0.5,0.7-0.7,1.6-1.3,2.3c-1.8,2-3.9,3.9-6.7,4.5c-0.7,0.2-1.7,0.3-2.1,0.8c-3.1,3.8-7.3,4.3-11.8,4.1c-0.7,0-1.6,0.2-2.2,0.6
	c-2.1,1.6-4.3,1.6-6.6,0.7c-3.4-1.3-6.7,0.8-7,4.4c-0.1,1.5-1.4,5.5-2.2,6.2c-0.4,0.3-2.9,0-3.4-0.3c-0.4-0.3,0.8-4.8,0.9-5.4
	c0.1-0.9,0.3-2,0.8-2.7c2.6-3.3,2.2-6.9,1.9-10.8c-0.3-4.5,0.3-9.1,0.7-13.7c0.1-0.7,1.2-1.4,1.8-2c0.8-0.8,1.9-1.4,2.4-2.3
	c0.8-1.3,1.2-2.9,1.7-4.4c0.4-1.1,0.8-2,2.4-1.6c0.5,0.1,1.4-0.7,1.9-1.3c0.7-0.8,1.1-1.9,1.8-2.8c1.3-1.7,2.5-3.4,4.9-1.2
	c0.3,0.3,1.5-0.1,2-0.5c1.9-1.3,3.5-3.1,6.1-1.1c0.3,0.2,1.3-0.2,1.9-0.5C197.6,10.6,200.1,9.7,202.3,12.4z"/>
<path fill="#F39DC3" d="M212.8,43.7l3.9-3.7c0,0-10.5-9.5-25.5-6.2c-5.9,1.3-18.4,15.4-22.9,20.2c3-5.6,12.4-21.8,11.9-27.7
	C178.8,11,166.5,4,166.5,4l-2.3,4.9L161.9,4c0,0-12.3,7-13.8,22.3c-0.6,6,8.9,22.7,12.1,28.4c-4.6-4.9-17.2-19.6-23.3-20.9
	c-15-3.3-25.5,6.2-25.5,6.2l3.9,3.7l-5.4,0.7c0,0,2.9,13.9,16.9,20c5.7,2.5,22.9-1.2,29.5-2.6c-6.2,2.8-22.4,10.2-25.6,15.6
	c-7.8,13.2-1.9,26.1-1.9,26.1l4.7-2.6l-1,5.3c0,0,14.1,1.5,24.3-9.9c3.9-4.4,6.6-23.6,7.4-30c0.8,6.4,2,25.6,5.9,30
	c10.1,11.5,24.3,9.9,24.3,9.9l-1-5.3l4.7,2.6c0,0,5.8-12.9-1.9-26.1c-3.4-5.8-19.7-11.7-26.3-14.5c7.2,1.7,24.9,4.2,31.3,1.4
	c14.1-6.1,16.9-20,16.9-20L212.8,43.7z"/>
<path fill="#F5B9D5" d="M198.3,48.7l2.8-2.7c0,0-7.5-6.8-18.2-4.5c-4.2,0.9-13.2,11-16.4,14.4c2.2-4,8.9-15.6,8.5-19.8
	c-1.1-10.9-9.9-16-9.9-16l-1.7,3.5l-1.7-3.5c0,0-8.8,5-9.9,16c-0.4,4.3,6.4,16.3,8.6,20.4c-3.3-3.5-12.3-14-16.7-15
	c-10.7-2.4-18.2,4.5-18.2,4.5l2.8,2.7l-3.8,0.5c0,0,2.1,10,12.1,14.3c4.1,1.8,16.4-0.9,21.1-1.8c-4.5,2-16,7.3-18.3,11.2
	c-5.6,9.5-1.4,18.7-1.4,18.7l3.4-1.9l-0.7,3.8c0,0,10.1,1.1,17.4-7.1c2.8-3.2,4.7-16.9,5.3-21.5c0.6,4.6,1.4,18.3,4.2,21.5
	c7.3,8.2,17.4,7.1,17.4,7.1l-0.7-3.8l3.4,1.9c0,0,4.2-9.3-1.4-18.7c-2.5-4.2-14.1-8.4-18.8-10.4c5.1,1.2,17.9,3,22.5,1
	c10.1-4.4,12.1-14.3,12.1-14.3L198.3,48.7z"/>
<path fill="#EC008C" d="M184.8,57.6c-1.1,0-2,0.6-2.5,1.5l-12.9,0.2c0,0,0-0.1,0-0.1c0-0.1,0-0.2,0-0.2l7-3c0.4,0.5,0.9,0.8,1.6,0.8
	c1.1,0,2-0.9,2-2s-0.9-2-2-2c-1.1,0-2,0.9-2,2c0,0.1,0,0.1,0,0.2l-6.8,2.9c-0.2-0.7-0.5-1.3-0.8-1.8l8.3-8.6
	c0.5,0.5,1.2,0.7,1.9,0.7c1.6,0,2.8-1.3,2.8-2.8c0-1.6-1.3-2.8-2.8-2.8c-1.6,0-2.8,1.3-2.8,2.8c0,0.3,0.1,0.6,0.2,0.9l-8.5,8.7
	c-0.1-0.1-0.3-0.2-0.4-0.3l2.6-6.6c0.2,0.1,0.4,0.1,0.6,0.1c1.2,0,2.1-0.9,2.1-2.1c0-1.2-0.9-2.1-2.1-2.1c-1.2,0-2.1,0.9-2.1,2.1
	c0,0.6,0.2,1,0.6,1.4l-2.6,6.6c-0.6-0.3-1.2-0.4-1.9-0.4L164,42.5c1.5-0.2,2.7-1.4,2.7-3c0-1.7-1.3-3-3-3c-1.7,0-3,1.3-3,3
	c0,1.3,0.8,2.4,1.9,2.8l0.2,11.5c-0.3,0.1-0.6,0.2-0.9,0.3l-2.6-6c0.8-0.3,1.4-1.1,1.4-2c0-1.2-1-2.2-2.2-2.2c-1.2,0-2.2,1-2.2,2.2
	c0,1.1,0.8,2,1.8,2.2l2.7,6.4c-0.4,0.3-0.8,0.6-1.1,0.9l-8.6-8.4c0.6-0.5,0.9-1.2,0.9-2.1c0-1.6-1.3-2.8-2.8-2.8
	c-1.6,0-2.8,1.3-2.8,2.8c0,1.6,1.3,2.8,2.8,2.8c0.2,0,0.4,0,0.6-0.1l9.1,8.9c-0.2,0.4-0.4,0.8-0.5,1.2l-7-2.8
	c0.1-0.3,0.2-0.6,0.2-0.9c0-1.2-0.9-2.1-2.1-2.1c-1.2,0-2.1,0.9-2.1,2.1c0,1.2,0.9,2.1,2.1,2.1c0.4,0,0.8-0.1,1.1-0.3l7.6,3
	c0,0.1,0,0.2,0,0.3c0,0.1,0,0.2,0,0.2l-13.1,0.2c-0.4-1.1-1.5-2-2.7-2c-1.6,0-2.9,1.3-2.9,2.9c0,1.6,1.3,2.9,2.9,2.9
	c1.5,0,2.6-1.1,2.9-2.5l13.3-0.2c0.1,0.5,0.4,0.9,0.6,1.3l-7.5,3.2c-0.3-0.9-1.1-1.6-2.1-1.6c-1.2,0-2.2,1-2.2,2.2
	c0,1.2,1,2.2,2.2,2.2c1,0,1.9-0.7,2.1-1.6l7.6-3.3l-8.7,8.9c-0.4-0.2-0.8-0.3-1.3-0.3c-1.5,0-2.7,1.2-2.7,2.7c0,1.5,1.2,2.7,2.7,2.7
	s2.7-1.2,2.7-2.7c0-0.5-0.2-1-0.4-1.4l9.1-9.3c0.4,0.2,0.8,0.4,1.2,0.6l-3.2,8.1c-0.2-0.1-0.4-0.1-0.6-0.1c-1.1,0-2,0.9-2,2
	s0.9,2,2,2c1.1,0,2-0.9,2-2c0-0.5-0.2-0.9-0.5-1.3l3.2-8.1l0.2,13.3c-1,0.4-1.7,1.3-1.7,2.4c0,1.4,1.1,2.6,2.6,2.6s2.6-1.1,2.6-2.6
	c0-1.2-0.9-2.3-2-2.5l-0.2-13.6c0.3,0,0.6-0.1,0.9-0.1l3.4,8c-0.7,0.3-1.2,1-1.2,1.8c0,1.1,0.9,2,2,2c1.1,0,2-0.9,2-2
	c0-1-0.7-1.8-1.6-2l-3.5-8.2c0.1-0.1,0.2-0.1,0.3-0.2l9.7,9.4c-0.4,0.5-0.7,1-0.7,1.7c0,1.4,1.1,2.6,2.6,2.6s2.6-1.1,2.6-2.6
	c0-1.4-1.1-2.6-2.6-2.6c-0.2,0-0.4,0-0.7,0.1l-9.8-9.5c0.1-0.1,0.2-0.2,0.3-0.4l8.1,3.2c0,0.1-0.1,0.3-0.1,0.4
	c0,1.2,0.9,2.1,2.1,2.1c1.2,0,2.1-0.9,2.1-2.1s-0.9-2.1-2.1-2.1c-0.6,0-1.1,0.3-1.5,0.7l-8-3.2c0.2-0.4,0.4-0.7,0.5-1.1l12.8-0.2
	c0,1.5,1.3,2.8,2.8,2.8c1.6,0,2.8-1.3,2.8-2.8S186.4,57.6,184.8,57.6z"/>
<path fill="#39B54A" d="M312.3,11.4c2.1-1.5,4-2.8,6.3-0.2c0.9,0.9,3,0.7,4.5,1.1c0.8,0.2,2.1,0.5,2.3,1.1c0.4,1.1,0.2,2.4,0.2,3.6
	c0,0.5-0.2,1.1-0.5,1.5c-2.3,2.3-0.7,5.5-2.1,8.1c-0.5,1,0.1,3.1-0.6,3.5c-2.2,1.4-1,4.3-3.3,5.8c-0.7,0.6-1.5,1.1-2,1.9
	c-0.5,0.7-0.7,1.6-1.3,2.3c-1.8,2-3.9,3.9-6.7,4.5c-0.7,0.2-1.7,0.3-2.1,0.8c-3.1,3.8-7.3,4.3-11.8,4.1c-0.7,0-1.6,0.2-2.2,0.6
	c-2.1,1.6-4.3,1.6-6.6,0.7c-3.4-1.3-6.7,0.8-7,4.4c-0.1,1.5-1.4,5.5-2.2,6.2c-0.4,0.3-2.9,0-3.4-0.3c-0.4-0.3,0.8-4.8,0.9-5.4
	c0.1-0.9,0.3-2,0.8-2.7c2.6-3.3,2.2-6.9,1.9-10.8c-0.3-4.5,0.3-9.1,0.7-13.7c0.1-0.7,1.2-1.4,1.8-2c0.8-0.8,1.9-1.4,2.4-2.3
	c0.8-1.3,1.2-2.9,1.7-4.4c0.4-1.1,0.8-2,2.4-1.6c0.5,0.1,1.4-0.7,1.9-1.3c0.7-0.8,1.1-1.9,1.8-2.8c1.3-1.7,2.5-3.4,4.9-1.2
	c0.3,0.3,1.5-0.1,2-0.5c1.9-1.3,3.5-3.1,6.1-1.1c0.3,0.2,1.3-0.2,1.9-0.5C307.6,9.6,310.1,8.7,312.3,11.4z"/>
<path fill="#F39DC3" d="M322.8,42.7l3.9-3.7c0,0-10.5-9.5-25.5-6.2c-5.9,1.3-18.4,15.4-22.9,20.2c3-5.6,12.4-21.8,11.9-27.7
	C288.8,10,276.5,3,276.5,3l-2.3,4.9L271.9,3c0,0-12.3,7-13.8,22.3c-0.6,6,8.9,22.7,12.1,28.4c-4.6-4.9-17.2-19.6-23.3-20.9
	c-15-3.3-25.5,6.2-25.5,6.2l3.9,3.7l-5.4,0.7c0,0,2.9,13.9,16.9,20c5.7,2.5,22.9-1.2,29.5-2.6c-6.2,2.8-22.4,10.2-25.6,15.6
	c-7.8,13.2-1.9,26.1-1.9,26.1l4.7-2.6l-1,5.3c0,0,14.1,1.5,24.3-9.9c3.9-4.4,6.6-23.6,7.4-30c0.8,6.4,2,25.6,5.9,30
	c10.1,11.5,24.3,9.9,24.3,9.9l-1-5.3l4.7,2.6c0,0,5.8-12.9-1.9-26.1c-3.4-5.8-19.7-11.7-26.3-14.5c7.2,1.7,24.9,4.2,31.3,1.4
	c14.1-6.1,16.9-20,16.9-20L322.8,42.7z"/>
<path fill="#F5B9D5" d="M308.3,47.7l2.8-2.7c0,0-7.5-6.8-18.2-4.5c-4.2,0.9-13.2,11-16.4,14.4c2.2-4,8.9-15.6,8.5-19.8
	c-1.1-10.9-9.9-16-9.9-16l-1.7,3.5l-1.7-3.5c0,0-8.8,5-9.9,16c-0.4,4.3,6.4,16.3,8.6,20.4c-3.3-3.5-12.3-14-16.7-15
	c-10.7-2.4-18.2,4.5-18.2,4.5l2.8,2.7l-3.8,0.5c0,0,2.1,10,12.1,14.3c4.1,1.8,16.4-0.9,21.1-1.8c-4.5,2-16,7.3-18.3,11.2
	c-5.6,9.5-1.4,18.7-1.4,18.7l3.4-1.9l-0.7,3.8c0,0,10.1,1.1,17.4-7.1c2.8-3.2,4.7-16.9,5.3-21.5c0.6,4.6,1.4,18.3,4.2,21.5
	c7.3,8.2,17.4,7.1,17.4,7.1l-0.7-3.8l3.4,1.9c0,0,4.2-9.3-1.4-18.7c-2.5-4.2-14.1-8.4-18.8-10.4c5.1,1.2,17.9,3,22.5,1
	c10.1-4.4,12.1-14.3,12.1-14.3L308.3,47.7z"/>
<path fill="#EC008C" d="M294.8,56.6c-1.1,0-2,0.6-2.5,1.5l-12.9,0.2c0,0,0-0.1,0-0.1c0-0.1,0-0.2,0-0.2l7-3c0.4,0.5,0.9,0.8,1.6,0.8
	c1.1,0,2-0.9,2-2s-0.9-2-2-2c-1.1,0-2,0.9-2,2c0,0.1,0,0.1,0,0.2l-6.8,2.9c-0.2-0.7-0.5-1.3-0.8-1.8l8.3-8.6
	c0.5,0.5,1.2,0.7,1.9,0.7c1.6,0,2.8-1.3,2.8-2.8c0-1.6-1.3-2.8-2.8-2.8c-1.6,0-2.8,1.3-2.8,2.8c0,0.3,0.1,0.6,0.2,0.9l-8.5,8.7
	c-0.1-0.1-0.3-0.2-0.4-0.3l2.6-6.6c0.2,0.1,0.4,0.1,0.6,0.1c1.2,0,2.1-0.9,2.1-2.1c0-1.2-0.9-2.1-2.1-2.1c-1.2,0-2.1,0.9-2.1,2.1
	c0,0.6,0.2,1,0.6,1.4l-2.6,6.6c-0.6-0.3-1.2-0.4-1.9-0.4L274,41.5c1.5-0.2,2.7-1.4,2.7-3c0-1.7-1.3-3-3-3c-1.7,0-3,1.3-3,3
	c0,1.3,0.8,2.4,1.9,2.8l0.2,11.5c-0.3,0.1-0.6,0.2-0.9,0.3l-2.6-6c0.8-0.3,1.4-1.1,1.4-2c0-1.2-1-2.2-2.2-2.2s-2.2,1-2.2,2.2
	c0,1.1,0.8,2,1.8,2.2l2.7,6.4c-0.4,0.3-0.8,0.6-1.1,0.9l-8.6-8.4c0.6-0.5,0.9-1.2,0.9-2.1c0-1.6-1.3-2.8-2.8-2.8s-2.8,1.3-2.8,2.8
	c0,1.6,1.3,2.8,2.8,2.8c0.2,0,0.4,0,0.6-0.1l9.1,8.9c-0.2,0.4-0.4,0.8-0.5,1.2l-7-2.8c0.1-0.3,0.2-0.6,0.2-0.9
	c0-1.2-0.9-2.1-2.1-2.1c-1.2,0-2.1,0.9-2.1,2.1c0,1.2,0.9,2.1,2.1,2.1c0.4,0,0.8-0.1,1.1-0.3l7.6,3c0,0.1,0,0.2,0,0.3
	c0,0.1,0,0.2,0,0.2l-13.1,0.2c-0.4-1.1-1.5-2-2.7-2c-1.6,0-2.9,1.3-2.9,2.9c0,1.6,1.3,2.9,2.9,2.9c1.5,0,2.6-1.1,2.9-2.5l13.3-0.2
	c0.1,0.5,0.4,0.9,0.6,1.3l-7.5,3.2c-0.3-0.9-1.1-1.6-2.1-1.6c-1.2,0-2.2,1-2.2,2.2c0,1.2,1,2.2,2.2,2.2c1,0,1.9-0.7,2.1-1.6l7.6-3.3
	l-8.7,8.9c-0.4-0.2-0.8-0.3-1.3-0.3c-1.5,0-2.7,1.2-2.7,2.7c0,1.5,1.2,2.7,2.7,2.7c1.5,0,2.7-1.2,2.7-2.7c0-0.5-0.2-1-0.4-1.4
	l9.1-9.3c0.4,0.2,0.8,0.4,1.2,0.6l-3.2,8.1c-0.2-0.1-0.4-0.1-0.6-0.1c-1.1,0-2,0.9-2,2s0.9,2,2,2c1.1,0,2-0.9,2-2
	c0-0.5-0.2-0.9-0.5-1.3l3.2-8.1l0.2,13.3c-1,0.4-1.7,1.3-1.7,2.4c0,1.4,1.1,2.6,2.6,2.6s2.6-1.1,2.6-2.6c0-1.2-0.9-2.3-2-2.5
	l-0.2-13.6c0.3,0,0.6-0.1,0.9-0.1l3.4,8c-0.7,0.3-1.2,1-1.2,1.8c0,1.1,0.9,2,2,2s2-0.9,2-2c0-1-0.7-1.8-1.6-2l-3.5-8.2
	c0.1-0.1,0.2-0.1,0.3-0.2l9.7,9.4c-0.4,0.5-0.7,1-0.7,1.7c0,1.4,1.1,2.6,2.6,2.6s2.6-1.1,2.6-2.6c0-1.4-1.1-2.6-2.6-2.6
	c-0.2,0-0.4,0-0.7,0.1l-9.8-9.5c0.1-0.1,0.2-0.2,0.3-0.4l8.1,3.2c0,0.1-0.1,0.3-0.1,0.4c0,1.2,0.9,2.1,2.1,2.1
	c1.2,0,2.1-0.9,2.1-2.1s-0.9-2.1-2.1-2.1c-0.6,0-1.1,0.3-1.5,0.7l-8-3.2c0.2-0.4,0.4-0.7,0.5-1.1l12.8-0.2c0,1.5,1.3,2.8,2.8,2.8
	c1.6,0,2.8-1.3,2.8-2.8S296.4,56.6,294.8,56.6z"/>
<path fill="#39B54A" d="M423.3,10.4c2.1-1.5,4-2.8,6.3-0.2c0.9,0.9,3,0.7,4.5,1.1c0.8,0.2,2.1,0.5,2.3,1.1c0.4,1.1,0.2,2.4,0.2,3.6
	c0,0.5-0.2,1.1-0.5,1.5c-2.3,2.3-0.7,5.5-2.1,8.1c-0.5,1,0.1,3.1-0.6,3.5c-2.2,1.4-1,4.3-3.3,5.8c-0.7,0.6-1.5,1.1-2,1.9
	c-0.5,0.7-0.7,1.6-1.3,2.3c-1.8,2-3.9,3.9-6.7,4.5c-0.7,0.2-1.7,0.3-2.1,0.8c-3.1,3.8-7.3,4.3-11.8,4.1c-0.7,0-1.6,0.2-2.2,0.6
	c-2.1,1.6-4.3,1.6-6.6,0.7c-3.4-1.3-6.7,0.8-7,4.4c-0.1,1.5-1.4,5.5-2.2,6.2c-0.4,0.3-2.9,0-3.4-0.3c-0.4-0.3,0.8-4.8,0.9-5.4
	c0.1-0.9,0.3-2,0.8-2.7c2.6-3.3,2.2-6.9,1.9-10.8c-0.3-4.5,0.3-9.1,0.7-13.7c0.1-0.7,1.2-1.4,1.8-2c0.8-0.8,1.9-1.4,2.4-2.3
	c0.8-1.3,1.2-2.9,1.7-4.4c0.4-1.1,0.8-2,2.4-1.6c0.5,0.1,1.4-0.7,1.9-1.3c0.7-0.8,1.1-1.9,1.8-2.8c1.3-1.7,2.5-3.4,4.9-1.2
	c0.3,0.3,1.5-0.1,2-0.5c1.9-1.3,3.5-3.1,6.1-1.1c0.3,0.2,1.3-0.2,1.9-0.5C418.6,8.6,421.1,7.7,423.3,10.4z"/>
<path fill="#F39DC3" d="M433.8,41.7l3.9-3.7c0,0-10.5-9.5-25.5-6.2c-5.9,1.3-18.4,15.4-22.9,20.2c3-5.6,12.4-21.8,11.9-27.7
	C399.8,9,387.5,2,387.5,2l-2.3,4.9L382.9,2c0,0-12.3,7-13.8,22.3c-0.6,6,8.9,22.7,12.1,28.4c-4.6-4.9-17.2-19.6-23.3-20.9
	c-15-3.3-25.5,6.2-25.5,6.2l3.9,3.7l-5.4,0.7c0,0,2.9,13.9,16.9,20c5.7,2.5,22.9-1.2,29.5-2.6c-6.2,2.8-22.4,10.2-25.6,15.6
	c-7.8,13.2-1.9,26.1-1.9,26.1l4.7-2.6l-1,5.3c0,0,14.1,1.5,24.3-9.9c3.9-4.4,6.6-23.6,7.4-30c0.8,6.4,2,25.6,5.9,30
	c10.1,11.5,24.3,9.9,24.3,9.9l-1-5.3l4.7,2.6c0,0,5.8-12.9-1.9-26.1c-3.4-5.8-19.7-11.7-26.3-14.5c7.2,1.7,24.9,4.2,31.3,1.4
	c14.1-6.1,16.9-20,16.9-20L433.8,41.7z"/>
<path fill="#F5B9D5" d="M419.3,46.7l2.8-2.7c0,0-7.5-6.8-18.2-4.5c-4.2,0.9-13.2,11-16.4,14.4c2.2-4,8.9-15.6,8.5-19.8
	c-1.1-10.9-9.9-16-9.9-16l-1.7,3.5l-1.7-3.5c0,0-8.8,5-9.9,16c-0.4,4.3,6.4,16.3,8.6,20.4c-3.3-3.5-12.3-14-16.7-15
	c-10.7-2.4-18.2,4.5-18.2,4.5l2.8,2.7l-3.8,0.5c0,0,2.1,10,12.1,14.3c4.1,1.8,16.4-0.9,21.1-1.8c-4.5,2-16,7.3-18.3,11.2
	c-5.6,9.5-1.4,18.7-1.4,18.7l3.4-1.9l-0.7,3.8c0,0,10.1,1.1,17.4-7.1c2.8-3.2,4.7-16.9,5.3-21.5c0.6,4.6,1.4,18.3,4.2,21.5
	c7.3,8.2,17.4,7.1,17.4,7.1l-0.7-3.8l3.4,1.9c0,0,4.2-9.3-1.4-18.7c-2.5-4.2-14.1-8.4-18.8-10.4c5.1,1.2,17.9,3,22.5,1
	c10.1-4.4,12.1-14.3,12.1-14.3L419.3,46.7z"/>
<path fill="#EC008C" d="M405.8,55.6c-1.1,0-2,0.6-2.5,1.5l-12.9,0.2c0,0,0-0.1,0-0.1c0-0.1,0-0.2,0-0.2l7-3c0.4,0.5,0.9,0.8,1.6,0.8
	c1.1,0,2-0.9,2-2s-0.9-2-2-2c-1.1,0-2,0.9-2,2c0,0.1,0,0.1,0,0.2l-6.8,2.9c-0.2-0.7-0.5-1.3-0.8-1.8l8.3-8.6
	c0.5,0.5,1.2,0.7,1.9,0.7c1.6,0,2.8-1.3,2.8-2.8c0-1.6-1.3-2.8-2.8-2.8c-1.6,0-2.8,1.3-2.8,2.8c0,0.3,0.1,0.6,0.2,0.9l-8.5,8.7
	c-0.1-0.1-0.3-0.2-0.4-0.3l2.6-6.6c0.2,0.1,0.4,0.1,0.6,0.1c1.2,0,2.1-0.9,2.1-2.1c0-1.2-0.9-2.1-2.1-2.1c-1.2,0-2.1,0.9-2.1,2.1
	c0,0.6,0.2,1,0.6,1.4l-2.6,6.6c-0.6-0.3-1.2-0.4-1.9-0.4L385,40.5c1.5-0.2,2.7-1.4,2.7-3c0-1.7-1.3-3-3-3c-1.7,0-3,1.3-3,3
	c0,1.3,0.8,2.4,1.9,2.8l0.2,11.5c-0.3,0.1-0.6,0.2-0.9,0.3l-2.6-6c0.8-0.3,1.4-1.1,1.4-2c0-1.2-1-2.2-2.2-2.2s-2.2,1-2.2,2.2
	c0,1.1,0.8,2,1.8,2.2l2.7,6.4c-0.4,0.3-0.8,0.6-1.1,0.9l-8.6-8.4c0.6-0.5,0.9-1.2,0.9-2.1c0-1.6-1.3-2.8-2.8-2.8s-2.8,1.3-2.8,2.8
	c0,1.6,1.3,2.8,2.8,2.8c0.2,0,0.4,0,0.6-0.1l9.1,8.9c-0.2,0.4-0.4,0.8-0.5,1.2l-7-2.8c0.1-0.3,0.2-0.6,0.2-0.9
	c0-1.2-0.9-2.1-2.1-2.1c-1.2,0-2.1,0.9-2.1,2.1c0,1.2,0.9,2.1,2.1,2.1c0.4,0,0.8-0.1,1.1-0.3l7.6,3c0,0.1,0,0.2,0,0.3
	c0,0.1,0,0.2,0,0.2l-13.1,0.2c-0.4-1.1-1.5-2-2.7-2c-1.6,0-2.9,1.3-2.9,2.9c0,1.6,1.3,2.9,2.9,2.9c1.5,0,2.6-1.1,2.9-2.5l13.3-0.2
	c0.1,0.5,0.4,0.9,0.6,1.3l-7.5,3.2c-0.3-0.9-1.1-1.6-2.1-1.6c-1.2,0-2.2,1-2.2,2.2c0,1.2,1,2.2,2.2,2.2c1,0,1.9-0.7,2.1-1.6l7.6-3.3
	l-8.7,8.9c-0.4-0.2-0.8-0.3-1.3-0.3c-1.5,0-2.7,1.2-2.7,2.7c0,1.5,1.2,2.7,2.7,2.7c1.5,0,2.7-1.2,2.7-2.7c0-0.5-0.2-1-0.4-1.4
	l9.1-9.3c0.4,0.2,0.8,0.4,1.2,0.6l-3.2,8.1c-0.2-0.1-0.4-0.1-0.6-0.1c-1.1,0-2,0.9-2,2s0.9,2,2,2c1.1,0,2-0.9,2-2
	c0-0.5-0.2-0.9-0.5-1.3l3.2-8.1l0.2,13.3c-1,0.4-1.7,1.3-1.7,2.4c0,1.4,1.1,2.6,2.6,2.6s2.6-1.1,2.6-2.6c0-1.2-0.9-2.3-2-2.5
	l-0.2-13.6c0.3,0,0.6-0.1,0.9-0.1l3.4,8c-0.7,0.3-1.2,1-1.2,1.8c0,1.1,0.9,2,2,2s2-0.9,2-2c0-1-0.7-1.8-1.6-2l-3.5-8.2
	c0.1-0.1,0.2-0.1,0.3-0.2l9.7,9.4c-0.4,0.5-0.7,1-0.7,1.7c0,1.4,1.1,2.6,2.6,2.6s2.6-1.1,2.6-2.6c0-1.4-1.1-2.6-2.6-2.6
	c-0.2,0-0.4,0-0.7,0.1l-9.8-9.5c0.1-0.1,0.2-0.2,0.3-0.4l8.1,3.2c0,0.1-0.1,0.3-0.1,0.4c0,1.2,0.9,2.1,2.1,2.1
	c1.2,0,2.1-0.9,2.1-2.1s-0.9-2.1-2.1-2.1c-0.6,0-1.1,0.3-1.5,0.7l-8-3.2c0.2-0.4,0.4-0.7,0.5-1.1l12.8-0.2c0,1.5,1.3,2.8,2.8,2.8
	c1.6,0,2.8-1.3,2.8-2.8S407.4,55.6,405.8,55.6z"/>
<path fill="#39B54A" d="M85.3,117.5c2-1.3,3.7-2.6,5.8-0.2c0.8,0.9,2.7,0.7,4.1,1.1c0.8,0.2,2,0.4,2.2,1c0.4,1,0.2,2.2,0.2,3.3
	c0,0.5-0.2,1.1-0.5,1.4c-2.2,2.1-0.6,5.1-1.9,7.5c-0.5,0.9,0.1,2.8-0.5,3.2c-2,1.3-0.9,4-3.1,5.4c-0.6,0.5-1.4,1-1.9,1.7
	c-0.5,0.7-0.6,1.5-1.2,2.1c-1.6,1.8-3.6,3.6-6.2,4.1c-0.7,0.1-1.5,0.3-1.9,0.8c-2.9,3.5-6.7,4-10.9,3.8c-0.7,0-1.5,0.2-2,0.6
	c-2,1.5-4,1.4-6.1,0.6c-3.2-1.2-6.2,0.7-6.5,4.1c-0.1,1.4-1.3,5.1-2,5.7c-0.4,0.3-2.7,0-3.1-0.3c-0.3-0.2,0.7-4.4,0.8-5
	c0.1-0.8,0.3-1.8,0.8-2.5c2.4-3,2.1-6.4,1.8-10c-0.3-4.2,0.3-8.4,0.6-12.6c0.1-0.7,1.1-1.3,1.7-1.9c0.7-0.7,1.7-1.3,2.2-2.1
	c0.7-1.2,1.1-2.7,1.6-4c0.4-1,0.7-1.8,2.2-1.5c0.5,0.1,1.3-0.6,1.8-1.2c0.7-0.8,1-1.8,1.7-2.6c1.2-1.5,2.4-3.2,4.5-1.1
	c0.3,0.3,1.4-0.1,1.9-0.4c1.7-1.2,3.3-2.8,5.6-1c0.3,0.2,1.2-0.2,1.7-0.4C80.9,115.9,83.2,115.1,85.3,117.5z"/>
<path fill="#F39DC3" d="M95,146.5l3.6-3.4c0,0-9.7-8.8-23.5-5.7c-5.4,1.2-17,14.2-21.2,18.6c2.8-5.2,11.5-20.2,11-25.6
	c-1.4-14.1-12.7-20.6-12.7-20.6l-2.1,4.5l-2.1-4.5c0,0-11.4,6.5-12.7,20.6c-0.5,5.6,8.2,21,11.1,26.3c-4.2-4.6-15.9-18.1-21.5-19.3
	c-13.8-3.1-23.5,5.7-23.5,5.7l3.6,3.4l-5,0.6c0,0,2.7,12.8,15.7,18.5c5.3,2.3,21.1-1.1,27.2-2.4c-5.8,2.6-20.7,9.4-23.6,14.4
	c-7.2,12.2-1.8,24.1-1.8,24.1l4.4-2.4l-0.9,4.9c0,0,13,1.4,22.4-9.2c3.6-4.1,6.1-21.9,6.9-27.7c0.8,5.9,1.8,23.6,5.4,27.7
	c9.4,10.6,22.4,9.2,22.4,9.2l-0.9-4.9l4.4,2.4c0,0,5.4-12-1.8-24.1c-3.2-5.4-18.2-10.8-24.3-13.4c6.6,1.6,23,3.9,29,1.3
	c13-5.6,15.7-18.5,15.7-18.5L95,146.5z"/>
<path fill="#F5B9D5" d="M81.6,151.1l2.6-2.5c0,0-7-6.3-16.9-4.1c-3.9,0.9-12.2,10.2-15.2,13.4c2-3.7,8.2-14.5,7.9-18.3
	c-1-10.1-9.1-14.8-9.1-14.8l-1.5,3.2l-1.5-3.2c0,0-8.2,4.7-9.1,14.8c-0.4,4,5.9,15,8,18.8c-3-3.3-11.4-13-15.4-13.8
	c-9.9-2.2-16.9,4.1-16.9,4.1l2.6,2.5l-3.6,0.4c0,0,1.9,9.2,11.2,13.2c3.8,1.6,15.1-0.8,19.5-1.7c-4.1,1.9-14.8,6.7-16.9,10.3
	c-5.2,8.7-1.3,17.3-1.3,17.3l3.1-1.7l-0.7,3.5c0,0,9.3,1,16.1-6.6c2.6-2.9,4.4-15.7,4.9-19.9c0.6,4.2,1.3,16.9,3.9,19.9
	c6.7,7.6,16.1,6.6,16.1,6.6l-0.7-3.5l3.1,1.7c0,0,3.9-8.6-1.3-17.3c-2.3-3.8-13-7.7-17.4-9.6c4.8,1.1,16.5,2.8,20.8,1
	c9.3-4,11.2-13.2,11.2-13.2L81.6,151.1z"/>
<path fill="#EC008C" d="M69.2,159.3c-1,0-1.8,0.6-2.3,1.4l-12,0.2c0,0,0-0.1,0-0.1c0-0.1,0-0.1,0-0.2l6.5-2.8
	c0.3,0.4,0.9,0.7,1.5,0.7c1,0,1.9-0.8,1.9-1.9s-0.8-1.9-1.9-1.9c-1,0-1.9,0.8-1.9,1.9c0,0.1,0,0.1,0,0.2l-6.3,2.7
	c-0.2-0.6-0.4-1.2-0.8-1.7l7.7-7.9c0.5,0.4,1.1,0.7,1.7,0.7c1.4,0,2.6-1.2,2.6-2.6c0-1.4-1.2-2.6-2.6-2.6c-1.4,0-2.6,1.2-2.6,2.6
	c0,0.3,0.1,0.6,0.1,0.8l-7.9,8.1c-0.1-0.1-0.2-0.2-0.4-0.3l2.4-6.1c0.2,0,0.3,0.1,0.5,0.1c1.1,0,1.9-0.9,1.9-1.9
	c0-1.1-0.9-1.9-1.9-1.9c-1.1,0-1.9,0.9-1.9,1.9c0,0.5,0.2,1,0.5,1.3l-2.4,6.1c-0.5-0.2-1.1-0.4-1.8-0.4l-0.1-10.3
	c1.4-0.1,2.5-1.3,2.5-2.8c0-1.5-1.2-2.8-2.8-2.8c-1.5,0-2.8,1.2-2.8,2.8c0,1.2,0.7,2.2,1.8,2.6l0.1,10.6c-0.3,0.1-0.5,0.1-0.8,0.2
	l-2.4-5.5c0.7-0.3,1.3-1,1.3-1.9c0-1.1-0.9-2-2-2c-1.1,0-2,0.9-2,2c0,1,0.7,1.8,1.7,2l2.5,5.9c-0.4,0.2-0.7,0.5-1,0.8l-8-7.7
	c0.5-0.5,0.8-1.2,0.8-1.9c0-1.4-1.2-2.6-2.6-2.6c-1.4,0-2.6,1.2-2.6,2.6c0,1.4,1.2,2.6,2.6,2.6c0.2,0,0.4,0,0.6-0.1l8.4,8.2
	c-0.2,0.3-0.3,0.7-0.4,1.1l-6.4-2.6c0.1-0.3,0.2-0.5,0.2-0.8c0-1.1-0.9-1.9-1.9-1.9c-1.1,0-1.9,0.9-1.9,1.9c0,1.1,0.9,1.9,1.9,1.9
	c0.4,0,0.7-0.1,1-0.3l7,2.8c0,0.1,0,0.2,0,0.3c0,0.1,0,0.2,0,0.2l-12.1,0.2c-0.4-1.1-1.4-1.8-2.5-1.8c-1.5,0-2.7,1.2-2.7,2.7
	c0,1.5,1.2,2.7,2.7,2.7c1.3,0,2.4-1,2.7-2.3l12.2-0.2c0.1,0.4,0.3,0.8,0.6,1.2l-7,3c-0.3-0.8-1-1.4-1.9-1.4c-1.1,0-2,0.9-2,2
	c0,1.1,0.9,2,2,2c0.9,0,1.7-0.6,1.9-1.5l7.1-3l-8,8.2c-0.4-0.2-0.8-0.3-1.2-0.3c-1.4,0-2.5,1.1-2.5,2.5c0,1.4,1.1,2.5,2.5,2.5
	s2.5-1.1,2.5-2.5c0-0.5-0.1-0.9-0.4-1.3l8.4-8.6c0.3,0.2,0.7,0.4,1.1,0.5l-3,7.5c-0.2-0.1-0.4-0.1-0.6-0.1c-1,0-1.9,0.8-1.9,1.9
	s0.8,1.9,1.9,1.9c1,0,1.9-0.8,1.9-1.9c0-0.4-0.2-0.8-0.4-1.2l3-7.5l0.2,12.3c-0.9,0.3-1.5,1.2-1.5,2.2c0,1.3,1.1,2.4,2.4,2.4
	c1.3,0,2.4-1.1,2.4-2.4c0-1.1-0.8-2.1-1.9-2.3l-0.2-12.5c0.3,0,0.6-0.1,0.8-0.1l3.2,7.4c-0.7,0.3-1.1,0.9-1.1,1.7
	c0,1,0.8,1.9,1.9,1.9s1.9-0.8,1.9-1.9c0-0.9-0.7-1.7-1.5-1.8l-3.3-7.6c0.1-0.1,0.2-0.1,0.3-0.2l8.9,8.7c-0.4,0.4-0.6,1-0.6,1.6
	c0,1.3,1.1,2.4,2.4,2.4c1.3,0,2.4-1.1,2.4-2.4s-1.1-2.4-2.4-2.4c-0.2,0-0.4,0-0.6,0.1l-9-8.8c0.1-0.1,0.2-0.2,0.3-0.3l7.5,3
	c0,0.1,0,0.3,0,0.4c0,1.1,0.9,1.9,1.9,1.9c1.1,0,1.9-0.9,1.9-1.9c0-1.1-0.9-1.9-1.9-1.9c-0.6,0-1.1,0.2-1.4,0.6l-7.4-3
	c0.2-0.3,0.3-0.7,0.4-1.1l11.8-0.2c0,1.4,1.2,2.5,2.6,2.5c1.4,0,2.6-1.2,2.6-2.6S70.6,159.3,69.2,159.3z"/>
<path fill="#39B54A" d="M186.9,116.6c2-1.3,3.7-2.6,5.8-0.2c0.8,0.9,2.7,0.7,4.1,1.1c0.8,0.2,2,0.4,2.2,1c0.4,1,0.2,2.2,0.2,3.3
	c0,0.5-0.2,1.1-0.5,1.4c-2.2,2.1-0.6,5.1-1.9,7.5c-0.5,0.9,0.1,2.8-0.5,3.2c-2,1.3-0.9,4-3.1,5.4c-0.6,0.5-1.4,1-1.9,1.7
	c-0.5,0.7-0.6,1.5-1.2,2.1c-1.6,1.8-3.6,3.6-6.2,4.1c-0.7,0.1-1.5,0.3-1.9,0.8c-2.9,3.5-6.7,4-10.9,3.8c-0.7,0-1.5,0.2-2,0.6
	c-2,1.5-4,1.4-6.1,0.6c-3.2-1.2-6.2,0.7-6.5,4.1c-0.1,1.4-1.3,5.1-2,5.7c-0.4,0.3-2.7,0-3.1-0.3c-0.3-0.2,0.7-4.4,0.8-5
	c0.1-0.8,0.3-1.8,0.8-2.5c2.4-3,2.1-6.4,1.8-10c-0.3-4.2,0.3-8.4,0.6-12.6c0.1-0.7,1.1-1.3,1.7-1.9c0.7-0.7,1.7-1.3,2.2-2.1
	c0.7-1.2,1.1-2.7,1.6-4c0.4-1,0.7-1.8,2.2-1.5c0.5,0.1,1.3-0.6,1.8-1.2c0.7-0.8,1-1.8,1.7-2.6c1.2-1.5,2.4-3.2,4.5-1.1
	c0.3,0.3,1.4-0.1,1.9-0.4c1.7-1.2,3.3-2.8,5.6-1c0.3,0.2,1.2-0.2,1.7-0.4C182.6,115,184.9,114.2,186.9,116.6z"/>
<path fill="#F39DC3" d="M196.6,145.6l3.6-3.4c0,0-9.7-8.8-23.5-5.7c-5.4,1.2-17,14.2-21.2,18.6c2.8-5.2,11.5-20.2,11-25.6
	c-1.4-14.1-12.7-20.6-12.7-20.6l-2.1,4.5l-2.1-4.5c0,0-11.4,6.5-12.7,20.6c-0.5,5.6,8.2,21,11.1,26.3c-4.2-4.6-15.9-18.1-21.5-19.3
	c-13.8-3.1-23.5,5.7-23.5,5.7l3.6,3.4l-5,0.6c0,0,2.7,12.8,15.7,18.5c5.3,2.3,21.1-1.1,27.2-2.4c-5.8,2.6-20.7,9.4-23.6,14.4
	c-7.2,12.2-1.8,24.1-1.8,24.1l4.4-2.4l-0.9,4.9c0,0,13,1.4,22.4-9.2c3.6-4.1,6.1-21.9,6.9-27.7c0.8,5.9,1.8,23.6,5.4,27.7
	c9.4,10.6,22.4,9.2,22.4,9.2l-0.9-4.9l4.4,2.4c0,0,5.4-12-1.8-24.1c-3.2-5.4-18.2-10.8-24.3-13.4c6.6,1.6,23,3.9,29,1.3
	c13-5.6,15.7-18.5,15.7-18.5L196.6,145.6z"/>
<path fill="#F5B9D5" d="M183.2,150.2l2.6-2.5c0,0-7-6.3-16.9-4.1c-3.9,0.9-12.2,10.2-15.2,13.4c2-3.7,8.2-14.5,7.9-18.3
	c-1-10.1-9.1-14.8-9.1-14.8l-1.5,3.2l-1.5-3.2c0,0-8.2,4.7-9.1,14.8c-0.4,4,5.9,15,8,18.8c-3-3.3-11.4-13-15.4-13.8
	c-9.9-2.2-16.9,4.1-16.9,4.1l2.6,2.5l-3.6,0.4c0,0,1.9,9.2,11.2,13.2c3.8,1.6,15.1-0.8,19.5-1.7c-4.1,1.9-14.8,6.7-16.9,10.3
	c-5.2,8.7-1.3,17.3-1.3,17.3l3.1-1.7l-0.7,3.5c0,0,9.3,1,16.1-6.6c2.6-2.9,4.4-15.7,4.9-19.9c0.6,4.2,1.3,16.9,3.9,19.9
	c6.7,7.6,16.1,6.6,16.1,6.6l-0.7-3.5l3.1,1.7c0,0,3.9-8.6-1.3-17.3c-2.3-3.8-13-7.7-17.4-9.6c4.8,1.1,16.5,2.8,20.8,1
	c9.3-4,11.2-13.2,11.2-13.2L183.2,150.2z"/>
<path fill="#EC008C" d="M170.8,158.4c-1,0-1.8,0.6-2.3,1.4l-12,0.2c0,0,0-0.1,0-0.1c0-0.1,0-0.1,0-0.2l6.5-2.8
	c0.3,0.4,0.9,0.7,1.5,0.7c1,0,1.9-0.8,1.9-1.9c0-1-0.8-1.9-1.9-1.9c-1,0-1.9,0.8-1.9,1.9c0,0.1,0,0.1,0,0.2l-6.3,2.7
	c-0.2-0.6-0.4-1.2-0.8-1.7l7.7-7.9c0.5,0.4,1.1,0.7,1.7,0.7c1.4,0,2.6-1.2,2.6-2.6c0-1.4-1.2-2.6-2.6-2.6c-1.4,0-2.6,1.2-2.6,2.6
	c0,0.3,0.1,0.6,0.1,0.8l-7.9,8.1c-0.1-0.1-0.2-0.2-0.4-0.3l2.4-6.1c0.2,0,0.3,0.1,0.5,0.1c1.1,0,1.9-0.9,1.9-1.9
	c0-1.1-0.9-1.9-1.9-1.9c-1.1,0-1.9,0.9-1.9,1.9c0,0.5,0.2,1,0.5,1.3l-2.4,6.1c-0.5-0.2-1.1-0.4-1.8-0.4l-0.1-10.3
	c1.4-0.1,2.5-1.3,2.5-2.8c0-1.5-1.2-2.8-2.8-2.8c-1.5,0-2.8,1.2-2.8,2.8c0,1.2,0.7,2.2,1.8,2.6l0.1,10.6c-0.3,0.1-0.5,0.1-0.8,0.2
	l-2.4-5.5c0.7-0.3,1.3-1,1.3-1.9c0-1.1-0.9-2-2-2c-1.1,0-2,0.9-2,2c0,1,0.7,1.8,1.7,2l2.5,5.9c-0.4,0.2-0.7,0.5-1,0.8l-8-7.7
	c0.5-0.5,0.8-1.2,0.8-1.9c0-1.4-1.2-2.6-2.6-2.6c-1.4,0-2.6,1.2-2.6,2.6c0,1.4,1.2,2.6,2.6,2.6c0.2,0,0.4,0,0.6-0.1l8.4,8.2
	c-0.2,0.3-0.3,0.7-0.4,1.1L140,156c0.1-0.3,0.2-0.5,0.2-0.8c0-1.1-0.9-1.9-1.9-1.9c-1.1,0-1.9,0.9-1.9,1.9c0,1.1,0.9,1.9,1.9,1.9
	c0.4,0,0.7-0.1,1-0.3l7,2.8c0,0.1,0,0.2,0,0.3c0,0.1,0,0.2,0,0.2l-12.1,0.2c-0.4-1.1-1.4-1.8-2.5-1.8c-1.5,0-2.7,1.2-2.7,2.7
	c0,1.5,1.2,2.7,2.7,2.7c1.3,0,2.4-1,2.7-2.3l12.2-0.2c0.1,0.4,0.3,0.8,0.6,1.2l-7,3c-0.3-0.8-1-1.4-1.9-1.4c-1.1,0-2,0.9-2,2
	c0,1.1,0.9,2,2,2c0.9,0,1.7-0.6,1.9-1.5l7.1-3l-8,8.2c-0.4-0.2-0.8-0.3-1.2-0.3c-1.4,0-2.5,1.1-2.5,2.5c0,1.4,1.1,2.5,2.5,2.5
	s2.5-1.1,2.5-2.5c0-0.5-0.1-0.9-0.4-1.3l8.4-8.6c0.3,0.2,0.7,0.4,1.1,0.5l-3,7.5c-0.2-0.1-0.4-0.1-0.6-0.1c-1,0-1.9,0.8-1.9,1.9
	c0,1,0.8,1.9,1.9,1.9c1,0,1.9-0.8,1.9-1.9c0-0.4-0.2-0.8-0.4-1.2l3-7.5l0.2,12.3c-0.9,0.3-1.5,1.2-1.5,2.2c0,1.3,1.1,2.4,2.4,2.4
	c1.3,0,2.4-1.1,2.4-2.4c0-1.1-0.8-2.1-1.9-2.3l-0.2-12.5c0.3,0,0.6-0.1,0.8-0.1l3.2,7.4c-0.7,0.3-1.1,0.9-1.1,1.7
	c0,1,0.8,1.9,1.9,1.9s1.9-0.8,1.9-1.9c0-0.9-0.7-1.7-1.5-1.8l-3.3-7.6c0.1-0.1,0.2-0.1,0.3-0.2l8.9,8.7c-0.4,0.4-0.6,1-0.6,1.6
	c0,1.3,1.1,2.4,2.4,2.4s2.4-1.1,2.4-2.4s-1.1-2.4-2.4-2.4c-0.2,0-0.4,0-0.6,0.1l-9-8.8c0.1-0.1,0.2-0.2,0.3-0.3l7.5,3
	c0,0.1,0,0.3,0,0.4c0,1.1,0.9,1.9,1.9,1.9c1.1,0,1.9-0.9,1.9-1.9s-0.9-1.9-1.9-1.9c-0.6,0-1.1,0.2-1.4,0.6l-7.4-3
	c0.2-0.3,0.3-0.7,0.4-1.1l11.8-0.2c0,1.4,1.2,2.5,2.6,2.5c1.4,0,2.6-1.2,2.6-2.6C173.4,159.6,172.2,158.4,170.8,158.4z"/>
<path fill="#39B54A" d="M290.4,115.7c2-1.3,3.7-2.6,5.8-0.2c0.8,0.9,2.7,0.7,4.1,1.1c0.8,0.2,2,0.4,2.2,1c0.4,1,0.2,2.2,0.2,3.3
	c0,0.5-0.2,1.1-0.5,1.4c-2.2,2.1-0.6,5.1-1.9,7.5c-0.5,0.9,0.1,2.8-0.5,3.2c-2,1.3-0.9,4-3.1,5.4c-0.6,0.5-1.4,1-1.9,1.7
	c-0.5,0.7-0.6,1.5-1.2,2.1c-1.6,1.8-3.6,3.6-6.2,4.1c-0.7,0.1-1.5,0.3-1.9,0.8c-2.9,3.5-6.7,4-10.9,3.8c-0.7,0-1.5,0.2-2,0.6
	c-2,1.5-4,1.4-6.1,0.6c-3.2-1.2-6.2,0.7-6.5,4.1c-0.1,1.4-1.3,5.1-2,5.7c-0.4,0.3-2.7,0-3.1-0.3c-0.3-0.2,0.7-4.4,0.8-5
	c0.1-0.8,0.3-1.8,0.8-2.5c2.4-3,2.1-6.4,1.8-10c-0.3-4.2,0.3-8.4,0.6-12.6c0.1-0.7,1.1-1.3,1.7-1.9c0.7-0.7,1.7-1.3,2.2-2.1
	c0.7-1.2,1.1-2.7,1.6-4c0.4-1,0.7-1.8,2.2-1.5c0.5,0.1,1.3-0.6,1.8-1.2c0.7-0.8,1-1.8,1.7-2.6c1.2-1.5,2.4-3.2,4.5-1.1
	c0.3,0.3,1.4-0.1,1.9-0.4c1.7-1.2,3.3-2.8,5.6-1c0.3,0.2,1.2-0.2,1.7-0.4C286.1,114.1,288.4,113.2,290.4,115.7z"/>
<path fill="#F39DC3" d="M300.1,144.7l3.6-3.4c0,0-9.7-8.8-23.5-5.7c-5.4,1.2-17,14.2-21.2,18.6c2.8-5.2,11.5-20.2,11-25.6
	c-1.4-14.1-12.7-20.6-12.7-20.6l-2.1,4.5l-2.1-4.5c0,0-11.4,6.5-12.7,20.6c-0.5,5.6,8.2,21,11.1,26.3c-4.2-4.6-15.9-18.1-21.5-19.3
	c-13.8-3.1-23.5,5.7-23.5,5.7l3.6,3.4l-5,0.6c0,0,2.7,12.8,15.7,18.5c5.3,2.3,21.1-1.1,27.2-2.4c-5.8,2.6-20.7,9.4-23.6,14.4
	c-7.2,12.2-1.8,24.1-1.8,24.1l4.4-2.4l-0.9,4.9c0,0,13,1.4,22.4-9.2c3.6-4.1,6.1-21.9,6.9-27.7c0.8,5.9,1.8,23.6,5.4,27.7
	c9.4,10.6,22.4,9.2,22.4,9.2l-0.9-4.9l4.4,2.4c0,0,5.4-12-1.8-24.1c-3.2-5.4-18.2-10.8-24.3-13.4c6.6,1.6,23,3.9,29,1.3
	c13-5.6,15.7-18.5,15.7-18.5L300.1,144.7z"/>
<path fill="#F5B9D5" d="M286.7,149.3l2.6-2.5c0,0-7-6.3-16.9-4.1c-3.9,0.9-12.2,10.2-15.2,13.4c2-3.7,8.2-14.5,7.9-18.3
	c-1-10.1-9.1-14.8-9.1-14.8l-1.5,3.2l-1.5-3.2c0,0-8.2,4.7-9.1,14.8c-0.4,4,5.9,15,8,18.8c-3-3.3-11.4-13-15.4-13.8
	c-9.9-2.2-16.9,4.1-16.9,4.1l2.6,2.5l-3.6,0.4c0,0,1.9,9.2,11.2,13.2c3.8,1.6,15.1-0.8,19.5-1.7c-4.1,1.9-14.8,6.7-16.9,10.3
	c-5.2,8.7-1.3,17.3-1.3,17.3l3.1-1.7l-0.7,3.5c0,0,9.3,1,16.1-6.6c2.6-2.9,4.4-15.7,4.9-19.9c0.6,4.2,1.3,16.9,3.9,19.9
	c6.7,7.6,16.1,6.6,16.1,6.6l-0.7-3.5l3.1,1.7c0,0,3.9-8.6-1.3-17.3c-2.3-3.8-13-7.7-17.4-9.6c4.8,1.1,16.5,2.8,20.8,1
	c9.3-4,11.2-13.2,11.2-13.2L286.7,149.3z"/>
<path fill="#EC008C" d="M274.3,157.5c-1,0-1.8,0.6-2.3,1.4l-12,0.2c0,0,0-0.1,0-0.1c0-0.1,0-0.1,0-0.2l6.5-2.8
	c0.3,0.4,0.9,0.7,1.5,0.7c1,0,1.9-0.8,1.9-1.9s-0.8-1.9-1.9-1.9c-1,0-1.9,0.8-1.9,1.9c0,0.1,0,0.1,0,0.2l-6.3,2.7
	c-0.2-0.6-0.4-1.2-0.8-1.7l7.7-7.9c0.5,0.4,1.1,0.7,1.7,0.7c1.4,0,2.6-1.2,2.6-2.6c0-1.4-1.2-2.6-2.6-2.6c-1.4,0-2.6,1.2-2.6,2.6
	c0,0.3,0.1,0.6,0.1,0.8l-7.9,8.1c-0.1-0.1-0.2-0.2-0.4-0.3l2.4-6.1c0.2,0,0.3,0.1,0.5,0.1c1.1,0,1.9-0.9,1.9-1.9
	c0-1.1-0.9-1.9-1.9-1.9s-1.9,0.9-1.9,1.9c0,0.5,0.2,1,0.5,1.3l-2.4,6.1c-0.5-0.2-1.1-0.4-1.8-0.4l-0.1-10.3c1.4-0.1,2.5-1.3,2.5-2.8
	c0-1.5-1.2-2.8-2.8-2.8s-2.8,1.2-2.8,2.8c0,1.2,0.7,2.2,1.8,2.6l0.1,10.6c-0.3,0.1-0.5,0.1-0.8,0.2l-2.4-5.5c0.7-0.3,1.3-1,1.3-1.9
	c0-1.1-0.9-2-2-2c-1.1,0-2,0.9-2,2c0,1,0.7,1.8,1.7,2l2.5,5.9c-0.4,0.2-0.7,0.5-1,0.8l-8-7.7c0.5-0.5,0.8-1.2,0.8-1.9
	c0-1.4-1.2-2.6-2.6-2.6c-1.4,0-2.6,1.2-2.6,2.6c0,1.4,1.2,2.6,2.6,2.6c0.2,0,0.4,0,0.6-0.1l8.4,8.2c-0.2,0.3-0.3,0.7-0.4,1.1
	l-6.4-2.6c0.1-0.3,0.2-0.5,0.2-0.8c0-1.1-0.9-1.9-1.9-1.9c-1.1,0-1.9,0.9-1.9,1.9c0,1.1,0.9,1.9,1.9,1.9c0.4,0,0.7-0.1,1-0.3l7,2.8
	c0,0.1,0,0.2,0,0.3c0,0.1,0,0.2,0,0.2l-12.1,0.2c-0.4-1.1-1.4-1.8-2.5-1.8c-1.5,0-2.7,1.2-2.7,2.7c0,1.5,1.2,2.7,2.7,2.7
	c1.3,0,2.4-1,2.7-2.3l12.2-0.2c0.1,0.4,0.3,0.8,0.6,1.2l-7,3c-0.3-0.8-1-1.4-1.9-1.4c-1.1,0-2,0.9-2,2c0,1.1,0.9,2,2,2
	c0.9,0,1.7-0.6,1.9-1.5l7.1-3l-8,8.2c-0.4-0.2-0.8-0.3-1.2-0.3c-1.4,0-2.5,1.1-2.5,2.5c0,1.4,1.1,2.5,2.5,2.5s2.5-1.1,2.5-2.5
	c0-0.5-0.1-0.9-0.4-1.3l8.4-8.6c0.3,0.2,0.7,0.4,1.1,0.5l-3,7.5c-0.2-0.1-0.4-0.1-0.6-0.1c-1,0-1.9,0.8-1.9,1.9s0.8,1.9,1.9,1.9
	c1,0,1.9-0.8,1.9-1.9c0-0.4-0.2-0.8-0.4-1.2l3-7.5l0.2,12.3c-0.9,0.3-1.5,1.2-1.5,2.2c0,1.3,1.1,2.4,2.4,2.4s2.4-1.1,2.4-2.4
	c0-1.1-0.8-2.1-1.9-2.3l-0.2-12.5c0.3,0,0.6-0.1,0.8-0.1l3.2,7.4c-0.7,0.3-1.1,0.9-1.1,1.7c0,1,0.8,1.9,1.9,1.9s1.9-0.8,1.9-1.9
	c0-0.9-0.7-1.7-1.5-1.8l-3.3-7.6c0.1-0.1,0.2-0.1,0.3-0.2l8.9,8.7c-0.4,0.4-0.6,1-0.6,1.6c0,1.3,1.1,2.4,2.4,2.4
	c1.3,0,2.4-1.1,2.4-2.4c0-1.3-1.1-2.4-2.4-2.4c-0.2,0-0.4,0-0.6,0.1l-9-8.8c0.1-0.1,0.2-0.2,0.3-0.3l7.5,3c0,0.1,0,0.3,0,0.4
	c0,1.1,0.9,1.9,1.9,1.9c1.1,0,1.9-0.9,1.9-1.9c0-1.1-0.9-1.9-1.9-1.9c-0.6,0-1.1,0.2-1.4,0.6l-7.4-3c0.2-0.3,0.3-0.7,0.4-1.1
	l11.8-0.2c0,1.4,1.2,2.5,2.6,2.5c1.4,0,2.6-1.2,2.6-2.6S275.7,157.5,274.3,157.5z"/>
<path fill="#39B54A" d="M394.8,114.8c2-1.3,3.7-2.6,5.8-0.2c0.8,0.9,2.7,0.7,4.1,1.1c0.8,0.2,2,0.4,2.2,1c0.4,1,0.2,2.2,0.2,3.3
	c0,0.5-0.2,1.1-0.5,1.4c-2.2,2.1-0.6,5.1-1.9,7.5c-0.5,0.9,0.1,2.8-0.5,3.2c-2,1.3-0.9,4-3.1,5.4c-0.6,0.5-1.4,1-1.9,1.7
	c-0.5,0.7-0.6,1.5-1.2,2.1c-1.6,1.8-3.6,3.6-6.2,4.1c-0.7,0.1-1.5,0.3-1.9,0.8c-2.9,3.5-6.7,4-10.9,3.8c-0.7,0-1.5,0.2-2,0.6
	c-2,1.5-4,1.4-6.1,0.6c-3.2-1.2-6.2,0.7-6.5,4.1c-0.1,1.4-1.3,5.1-2,5.7c-0.4,0.3-2.7,0-3.1-0.3c-0.3-0.2,0.7-4.4,0.8-5
	c0.1-0.8,0.3-1.8,0.8-2.5c2.4-3,2.1-6.4,1.8-10c-0.3-4.2,0.3-8.4,0.6-12.6c0.1-0.7,1.1-1.3,1.7-1.9c0.7-0.7,1.7-1.3,2.2-2.1
	c0.7-1.2,1.1-2.7,1.6-4c0.4-1,0.7-1.8,2.2-1.5c0.5,0.1,1.3-0.6,1.8-1.2c0.7-0.8,1-1.8,1.7-2.6c1.2-1.5,2.4-3.2,4.5-1.1
	c0.3,0.3,1.4-0.1,1.9-0.4c1.7-1.2,3.3-2.8,5.6-1c0.3,0.2,1.2-0.2,1.7-0.4C390.5,113.1,392.8,112.3,394.8,114.8z"/>
<path fill="#F39DC3" d="M404.6,143.7l3.6-3.4c0,0-9.7-8.8-23.5-5.7c-5.4,1.2-17,14.2-21.2,18.6c2.8-5.2,11.5-20.2,11-25.6
	c-1.4-14.1-12.7-20.6-12.7-20.6l-2.1,4.5l-2.1-4.5c0,0-11.4,6.5-12.7,20.6c-0.5,5.6,8.2,21,11.1,26.3c-4.2-4.6-15.9-18.1-21.5-19.3
	c-13.8-3.1-23.5,5.7-23.5,5.7l3.6,3.4l-5,0.6c0,0,2.7,12.8,15.7,18.5c5.3,2.3,21.1-1.1,27.2-2.4c-5.8,2.6-20.7,9.4-23.6,14.4
	c-7.2,12.2-1.8,24.1-1.8,24.1l4.4-2.4l-0.9,4.9c0,0,13,1.4,22.4-9.2c3.6-4.1,6.1-21.9,6.9-27.7c0.8,5.9,1.8,23.6,5.4,27.7
	c9.4,10.6,22.4,9.2,22.4,9.2l-0.9-4.9l4.4,2.4c0,0,5.4-12-1.8-24.1c-3.2-5.4-18.2-10.8-24.3-13.4c6.6,1.6,23,3.9,29,1.3
	c13-5.6,15.7-18.5,15.7-18.5L404.6,143.7z"/>
<path fill="#F5B9D5" d="M391.1,148.3l2.6-2.5c0,0-7-6.3-16.9-4.1c-3.9,0.9-12.2,10.2-15.2,13.4c2-3.7,8.2-14.5,7.9-18.3
	c-1-10.1-9.1-14.8-9.1-14.8l-1.5,3.2l-1.5-3.2c0,0-8.2,4.7-9.1,14.8c-0.4,4,5.9,15,8,18.8c-3-3.3-11.4-13-15.4-13.8
	c-9.9-2.2-16.9,4.1-16.9,4.1l2.6,2.5l-3.6,0.4c0,0,1.9,9.2,11.2,13.2c3.8,1.6,15.1-0.8,19.5-1.7c-4.1,1.9-14.8,6.7-16.9,10.3
	c-5.2,8.7-1.3,17.3-1.3,17.3l3.1-1.7l-0.7,3.5c0,0,9.3,1,16.1-6.6c2.6-2.9,4.4-15.7,4.9-19.9c0.6,4.2,1.3,16.9,3.9,19.9
	c6.7,7.6,16.1,6.6,16.1,6.6l-0.7-3.5l3.1,1.7c0,0,3.9-8.6-1.3-17.3c-2.3-3.8-13-7.7-17.4-9.6c4.8,1.1,16.5,2.8,20.8,1
	c9.3-4,11.2-13.2,11.2-13.2L391.1,148.3z"/>
<path fill="#EC008C" d="M378.7,156.6c-1,0-1.8,0.6-2.3,1.4l-12,0.2c0,0,0-0.1,0-0.1c0-0.1,0-0.1,0-0.2l6.5-2.8
	c0.3,0.4,0.9,0.7,1.5,0.7c1,0,1.9-0.8,1.9-1.9s-0.8-1.9-1.9-1.9c-1,0-1.9,0.8-1.9,1.9c0,0.1,0,0.1,0,0.2l-6.3,2.7
	c-0.2-0.6-0.4-1.2-0.8-1.7l7.7-7.9c0.5,0.4,1.1,0.7,1.7,0.7c1.4,0,2.6-1.2,2.6-2.6c0-1.4-1.2-2.6-2.6-2.6c-1.4,0-2.6,1.2-2.6,2.6
	c0,0.3,0.1,0.6,0.1,0.8l-7.9,8.1c-0.1-0.1-0.2-0.2-0.4-0.3l2.4-6.1c0.2,0,0.3,0.1,0.5,0.1c1.1,0,1.9-0.9,1.9-1.9
	c0-1.1-0.9-1.9-1.9-1.9s-1.9,0.9-1.9,1.9c0,0.5,0.2,1,0.5,1.3l-2.4,6.1c-0.5-0.2-1.1-0.4-1.8-0.4l-0.1-10.3c1.4-0.1,2.5-1.3,2.5-2.8
	c0-1.5-1.2-2.8-2.8-2.8c-1.5,0-2.8,1.2-2.8,2.8c0,1.2,0.7,2.2,1.8,2.6l0.1,10.6c-0.3,0.1-0.5,0.1-0.8,0.2l-2.4-5.5
	c0.7-0.3,1.3-1,1.3-1.9c0-1.1-0.9-2-2-2c-1.1,0-2,0.9-2,2c0,1,0.7,1.8,1.7,2l2.5,5.9c-0.4,0.2-0.7,0.5-1,0.8l-8-7.7
	c0.5-0.5,0.8-1.2,0.8-1.9c0-1.4-1.2-2.6-2.6-2.6c-1.4,0-2.6,1.2-2.6,2.6c0,1.4,1.2,2.6,2.6,2.6c0.2,0,0.4,0,0.6-0.1l8.4,8.2
	c-0.2,0.3-0.3,0.7-0.4,1.1l-6.4-2.6c0.1-0.3,0.2-0.5,0.2-0.8c0-1.1-0.9-1.9-1.9-1.9c-1.1,0-1.9,0.9-1.9,1.9c0,1.1,0.9,1.9,1.9,1.9
	c0.4,0,0.7-0.1,1-0.3l7,2.8c0,0.1,0,0.2,0,0.3c0,0.1,0,0.2,0,0.2l-12.1,0.2c-0.4-1.1-1.4-1.8-2.5-1.8c-1.5,0-2.7,1.2-2.7,2.7
	c0,1.5,1.2,2.7,2.7,2.7c1.3,0,2.4-1,2.7-2.3l12.2-0.2c0.1,0.4,0.3,0.8,0.6,1.2l-7,3c-0.3-0.8-1-1.4-1.9-1.4c-1.1,0-2,0.9-2,2
	c0,1.1,0.9,2,2,2c0.9,0,1.7-0.6,1.9-1.5l7.1-3l-8,8.2c-0.4-0.2-0.8-0.3-1.2-0.3c-1.4,0-2.5,1.1-2.5,2.5c0,1.4,1.1,2.5,2.5,2.5
	c1.4,0,2.5-1.1,2.5-2.5c0-0.5-0.1-0.9-0.4-1.3l8.4-8.6c0.3,0.2,0.7,0.4,1.1,0.5l-3,7.5c-0.2-0.1-0.4-0.1-0.6-0.1
	c-1,0-1.9,0.8-1.9,1.9c0,1,0.8,1.9,1.9,1.9c1,0,1.9-0.8,1.9-1.9c0-0.4-0.2-0.8-0.4-1.2l3-7.5l0.2,12.3c-0.9,0.3-1.5,1.2-1.5,2.2
	c0,1.3,1.1,2.4,2.4,2.4c1.3,0,2.4-1.1,2.4-2.4c0-1.1-0.8-2.1-1.9-2.3l-0.2-12.5c0.3,0,0.6-0.1,0.8-0.1l3.2,7.4
	c-0.7,0.3-1.1,0.9-1.1,1.7c0,1,0.8,1.9,1.9,1.9s1.9-0.8,1.9-1.9c0-0.9-0.7-1.7-1.5-1.8l-3.3-7.6c0.1-0.1,0.2-0.1,0.3-0.2l8.9,8.7
	c-0.4,0.4-0.6,1-0.6,1.6c0,1.3,1.1,2.4,2.4,2.4c1.3,0,2.4-1.1,2.4-2.4s-1.1-2.4-2.4-2.4c-0.2,0-0.4,0-0.6,0.1l-9-8.8
	c0.1-0.1,0.2-0.2,0.3-0.3l7.5,3c0,0.1,0,0.3,0,0.4c0,1.1,0.9,1.9,1.9,1.9c1.1,0,1.9-0.9,1.9-1.9s-0.9-1.9-1.9-1.9
	c-0.6,0-1.1,0.2-1.4,0.6l-7.4-3c0.2-0.3,0.3-0.7,0.4-1.1l11.8-0.2c0,1.4,1.2,2.5,2.6,2.5c1.4,0,2.6-1.2,2.6-2.6
	C381.3,157.7,380.2,156.6,378.7,156.6z"/>
<path fill="#39B54A" d="M498,117.4c2-1.3,3.7-2.6,5.8-0.2c0.8,0.9,2.7,0.7,4.1,1.1c0.8,0.2,2,0.4,2.2,1c0.4,1,0.2,2.2,0.2,3.3
	c0,0.5-0.2,1.1-0.5,1.4c-2.2,2.1-0.6,5.1-1.9,7.5c-0.5,0.9,0.1,2.8-0.5,3.2c-2,1.3-0.9,4-3.1,5.4c-0.6,0.5-1.4,1-1.9,1.7
	c-0.5,0.7-0.6,1.5-1.2,2.1c-1.6,1.8-3.6,3.6-6.2,4.1c-0.7,0.1-1.5,0.3-1.9,0.8c-2.9,3.5-6.7,4-10.9,3.8c-0.7,0-1.5,0.2-2,0.6
	c-2,1.5-4,1.4-6.1,0.6c-3.2-1.2-6.2,0.7-6.5,4.1c-0.1,1.4-1.3,5.1-2,5.7c-0.4,0.3-2.7,0-3.1-0.3c-0.3-0.2,0.7-4.4,0.8-5
	c0.1-0.8,0.3-1.8,0.8-2.5c2.4-3,2.1-6.4,1.8-10c-0.3-4.2,0.3-8.4,0.6-12.6c0.1-0.7,1.1-1.3,1.7-1.9c0.7-0.7,1.7-1.3,2.2-2.1
	c0.7-1.2,1.1-2.7,1.6-4c0.4-1,0.7-1.8,2.2-1.5c0.5,0.1,1.3-0.6,1.8-1.2c0.7-0.8,1-1.8,1.7-2.6c1.2-1.5,2.4-3.2,4.5-1.1
	c0.3,0.3,1.4-0.1,1.9-0.4c1.7-1.2,3.3-2.8,5.6-1c0.3,0.2,1.2-0.2,1.7-0.4C493.6,115.8,495.9,115,498,117.4z"/>
<path fill="#F39DC3" d="M507.7,146.4l3.6-3.4c0,0-9.7-8.8-23.5-5.7c-5.4,1.2-17,14.2-21.2,18.6c2.8-5.2,11.5-20.2,11-25.6
	c-1.4-14.1-12.7-20.6-12.7-20.6l-2.1,4.5l-2.1-4.5c0,0-11.4,6.5-12.7,20.6c-0.5,5.6,8.2,21,11.1,26.3c-4.2-4.6-15.9-18.1-21.5-19.3
	c-13.8-3.1-23.5,5.7-23.5,5.7l3.6,3.4l-5,0.6c0,0,2.7,12.8,15.7,18.5c5.3,2.3,21.1-1.1,27.2-2.4c-5.8,2.6-20.7,9.4-23.6,14.4
	c-7.2,12.2-1.8,24.1-1.8,24.1l4.4-2.4l-0.9,4.9c0,0,13,1.4,22.4-9.2c3.6-4.1,6.1-21.9,6.9-27.7c0.8,5.9,1.8,23.6,5.4,27.7
	c9.4,10.6,22.4,9.2,22.4,9.2l-0.9-4.9l4.4,2.4c0,0,5.4-12-1.8-24.1c-3.2-5.4-18.2-10.8-24.3-13.4c6.6,1.6,23,3.9,29,1.3
	c13-5.6,15.7-18.5,15.7-18.5L507.7,146.4z"/>
<path fill="#F5B9D5" d="M494.3,151l2.6-2.5c0,0-7-6.3-16.9-4.1c-3.9,0.9-12.2,10.2-15.2,13.4c2-3.7,8.2-14.5,7.9-18.3
	c-1-10.1-9.1-14.8-9.1-14.8l-1.5,3.2l-1.5-3.2c0,0-8.2,4.7-9.1,14.8c-0.4,4,5.9,15,8,18.8c-3-3.3-11.4-13-15.4-13.8
	c-9.9-2.2-16.9,4.1-16.9,4.1l2.6,2.5l-3.6,0.4c0,0,1.9,9.2,11.2,13.2c3.8,1.6,15.1-0.8,19.5-1.7c-4.1,1.9-14.8,6.7-16.9,10.3
	c-5.2,8.7-1.3,17.3-1.3,17.3l3.1-1.7l-0.7,3.5c0,0,9.3,1,16.1-6.6c2.6-2.9,4.4-15.7,4.9-19.9c0.6,4.2,1.3,16.9,3.9,19.9
	c6.7,7.6,16.1,6.6,16.1,6.6l-0.7-3.5l3.1,1.7c0,0,3.9-8.6-1.3-17.3c-2.3-3.8-13-7.7-17.4-9.6c4.8,1.1,16.5,2.8,20.8,1
	c9.3-4,11.2-13.2,11.2-13.2L494.3,151z"/>
<path fill="#EC008C" d="M481.9,159.2c-1,0-1.8,0.6-2.3,1.4l-12,0.2c0,0,0-0.1,0-0.1c0-0.1,0-0.1,0-0.2l6.5-2.8
	c0.3,0.4,0.9,0.7,1.5,0.7c1,0,1.9-0.8,1.9-1.9s-0.8-1.9-1.9-1.9c-1,0-1.9,0.8-1.9,1.9c0,0.1,0,0.1,0,0.2l-6.3,2.7
	c-0.2-0.6-0.4-1.2-0.8-1.7l7.7-7.9c0.5,0.4,1.1,0.7,1.7,0.7c1.4,0,2.6-1.2,2.6-2.6c0-1.4-1.2-2.6-2.6-2.6c-1.4,0-2.6,1.2-2.6,2.6
	c0,0.3,0.1,0.6,0.1,0.8l-7.9,8.1c-0.1-0.1-0.2-0.2-0.4-0.3l2.4-6.1c0.2,0,0.3,0.1,0.5,0.1c1.1,0,1.9-0.9,1.9-1.9
	c0-1.1-0.9-1.9-1.9-1.9s-1.9,0.9-1.9,1.9c0,0.5,0.2,1,0.5,1.3l-2.4,6.1c-0.5-0.2-1.1-0.4-1.8-0.4l-0.1-10.3c1.4-0.1,2.5-1.3,2.5-2.8
	c0-1.5-1.2-2.8-2.8-2.8c-1.5,0-2.8,1.2-2.8,2.8c0,1.2,0.7,2.2,1.8,2.6l0.1,10.6c-0.3,0.1-0.5,0.1-0.8,0.2l-2.4-5.5
	c0.7-0.3,1.3-1,1.3-1.9c0-1.1-0.9-2-2-2c-1.1,0-2,0.9-2,2c0,1,0.7,1.8,1.7,2l2.5,5.9c-0.4,0.2-0.7,0.5-1,0.8l-8-7.7
	c0.5-0.5,0.8-1.2,0.8-1.9c0-1.4-1.2-2.6-2.6-2.6c-1.4,0-2.6,1.2-2.6,2.6c0,1.4,1.2,2.6,2.6,2.6c0.2,0,0.4,0,0.6-0.1l8.4,8.2
	c-0.2,0.3-0.3,0.7-0.4,1.1l-6.4-2.6c0.1-0.3,0.2-0.5,0.2-0.8c0-1.1-0.9-1.9-1.9-1.9c-1.1,0-1.9,0.9-1.9,1.9c0,1.1,0.9,1.9,1.9,1.9
	c0.4,0,0.7-0.1,1-0.3l7,2.8c0,0.1,0,0.2,0,0.3c0,0.1,0,0.2,0,0.2l-12.1,0.2c-0.4-1.1-1.4-1.8-2.5-1.8c-1.5,0-2.7,1.2-2.7,2.7
	c0,1.5,1.2,2.7,2.7,2.7c1.3,0,2.4-1,2.7-2.3l12.2-0.2c0.1,0.4,0.3,0.8,0.6,1.2l-7,3c-0.3-0.8-1-1.4-1.9-1.4c-1.1,0-2,0.9-2,2
	c0,1.1,0.9,2,2,2c0.9,0,1.7-0.6,1.9-1.5l7.1-3l-8,8.2c-0.4-0.2-0.8-0.3-1.2-0.3c-1.4,0-2.5,1.1-2.5,2.5c0,1.4,1.1,2.5,2.5,2.5
	c1.4,0,2.5-1.1,2.5-2.5c0-0.5-0.1-0.9-0.4-1.3l8.4-8.6c0.3,0.2,0.7,0.4,1.1,0.5l-3,7.5c-0.2-0.1-0.4-0.1-0.6-0.1
	c-1,0-1.9,0.8-1.9,1.9c0,1,0.8,1.9,1.9,1.9c1,0,1.9-0.8,1.9-1.9c0-0.4-0.2-0.8-0.4-1.2l3-7.5l0.2,12.3c-0.9,0.3-1.5,1.2-1.5,2.2
	c0,1.3,1.1,2.4,2.4,2.4c1.3,0,2.4-1.1,2.4-2.4c0-1.1-0.8-2.1-1.9-2.3l-0.2-12.5c0.3,0,0.6-0.1,0.8-0.1l3.2,7.4
	c-0.7,0.3-1.1,0.9-1.1,1.7c0,1,0.8,1.9,1.9,1.9s1.9-0.8,1.9-1.9c0-0.9-0.7-1.7-1.5-1.8l-3.3-7.6c0.1-0.1,0.2-0.1,0.3-0.2l8.9,8.7
	c-0.4,0.4-0.6,1-0.6,1.6c0,1.3,1.1,2.4,2.4,2.4c1.3,0,2.4-1.1,2.4-2.4s-1.1-2.4-2.4-2.4c-0.2,0-0.4,0-0.6,0.1l-9-8.8
	c0.1-0.1,0.2-0.2,0.3-0.3l7.5,3c0,0.1,0,0.3,0,0.4c0,1.1,0.9,1.9,1.9,1.9c1.1,0,1.9-0.9,1.9-1.9s-0.9-1.9-1.9-1.9
	c-0.6,0-1.1,0.2-1.4,0.6l-7.4-3c0.2-0.3,0.3-0.7,0.4-1.1l11.8-0.2c0,1.4,1.2,2.5,2.6,2.5c1.4,0,2.6-1.2,2.6-2.6
	C484.5,160.4,483.3,159.2,481.9,159.2z"/>
<path fill="#39B54A" d="M9.3,308.9c-1.2-0.1-2.3-0.1-2.4-1.7c0-0.6-0.9-1.1-1.3-1.7c-0.2-0.3-0.6-0.8-0.6-1.1c0.2-0.5,0.6-1,1-1.4
	c0.2-0.2,0.4-0.4,0.6-0.4c1.5-0.2,1.8-1.9,3.1-2.4c0.5-0.2,0.8-1.2,1.2-1.1c1.2,0.1,1.6-1.3,2.9-1.2c0.4,0,0.9,0,1.3-0.1
	c0.4-0.1,0.7-0.4,1.1-0.5c1.2-0.2,2.5-0.3,3.8,0.3c0.3,0.2,0.7,0.4,1,0.3c2.2-0.5,3.9,0.5,5.6,1.9c0.3,0.2,0.7,0.4,1,0.4
	c1.3,0,2,0.7,2.7,1.7c0.9,1.5,2.7,1.6,3.9,0.4c0.5-0.5,2.1-1.7,2.6-1.7c0.3,0,1.1,0.8,1.2,1.1c0.1,0.2-1.7,1.5-1.9,1.7
	c-0.3,0.3-0.7,0.7-1.1,0.8c-1.9,0.5-2.8,1.9-3.8,3.4c-1.2,1.8-2.7,3.3-4.2,4.9c-0.2,0.2-0.8,0.2-1.2,0.2c-0.5,0.1-1.1,0-1.6,0.2
	c-0.7,0.3-1.3,0.7-1.9,1.1c-0.5,0.3-0.9,0.5-1.3-0.1c-0.2-0.2-0.7-0.2-1.1-0.1c-0.5,0.1-1,0.4-1.5,0.5c-0.9,0.2-1.9,0.5-2.2-1
	c0-0.2-0.6-0.4-0.9-0.4c-1.1-0.1-2.2,0.1-2.6-1.3c0-0.2-0.5-0.3-0.8-0.4C10.5,310.9,9.4,310.6,9.3,308.9z"/>
<path fill="#F39DC3" d="M61.4,290.8l1.9-1.8c0,0-5.2-4.7-12.6-3.1c-2.3,0.5-6.9,5.2-9.7,8.2c-0.1-0.1-0.3-0.3-0.5-0.4
	c1.9-3.6,4.9-9.2,4.7-11.5c-0.7-7.5-6.8-11-6.8-11l-1.1,2.4l-1.1-2.4c0,0-6.1,3.5-6.8,11c-0.2,2.2,2.2,7.2,4.2,10.8
	c-0.3,0.1-0.5,0.3-0.8,0.4c-2.8-3.1-6.7-7-8.9-7.5c-7.4-1.6-12.6,3.1-12.6,3.1l1.9,1.8l-2.6,0.3c0,0,1.4,6.9,8.4,9.9
	c2.1,0.9,7.2,0.1,11.1-0.6c0.1,0.3,0.1,0.5,0.2,0.8c-3.6,1.7-8.2,4.2-9.4,6.2c-3.8,6.5-1,12.9-1,12.9l2.3-1.3l-0.5,2.6
	c0,0,7,0.8,12-4.9c1.4-1.6,2.5-7.2,3.2-11.2c0.3,0,0.6,0,0.9-0.1c0.4,4.1,1.1,9.7,2.5,11.3c5,5.7,12,4.9,12,4.9l-0.5-2.6l2.3,1.3
	c0,0,2.9-6.4-1-12.9c-1.3-2.3-6.7-4.6-10.5-6.1c0.1-0.2,0.1-0.3,0.2-0.5c4.2,0.7,10.2,1.3,12.8,0.2c6.9-3,8.4-9.9,8.4-9.9
	L61.4,290.8z"/>
<path fill="#39B54A" d="M533.3,10.4c2.1-1.5,4-2.8,6.3-0.2c0.9,0.9,3,0.7,4.5,1.1c0.8,0.2,2.1,0.5,2.3,1.1c0.4,1.1,0.2,2.4,0.2,3.6
	c0,0.5-0.2,1.1-0.5,1.5c-2.3,2.3-0.7,5.5-2.1,8.1c-0.5,1,0.1,3.1-0.6,3.5c-2.2,1.4-1,4.3-3.3,5.8c-0.7,0.6-1.5,1.1-2,1.9
	c-0.5,0.7-0.7,1.6-1.3,2.3c-1.8,2-3.9,3.9-6.7,4.5c-0.7,0.2-1.7,0.3-2.1,0.8c-3.1,3.8-7.3,4.3-11.8,4.1c-0.7,0-1.6,0.2-2.2,0.6
	c-2.1,1.6-4.3,1.6-6.6,0.7c-3.4-1.3-6.7,0.8-7,4.4c-0.1,1.5-1.4,5.5-2.2,6.2c-0.4,0.3-2.9,0-3.4-0.3c-0.4-0.3,0.8-4.8,0.9-5.4
	c0.1-0.9,0.3-2,0.8-2.7c2.6-3.3,2.2-6.9,1.9-10.8c-0.3-4.5,0.3-9.1,0.7-13.7c0.1-0.7,1.2-1.4,1.8-2c0.8-0.8,1.9-1.4,2.4-2.3
	c0.8-1.3,1.2-2.9,1.7-4.4c0.4-1.1,0.8-2,2.4-1.6c0.5,0.1,1.4-0.7,1.9-1.3c0.7-0.8,1.1-1.9,1.8-2.8c1.3-1.7,2.5-3.4,4.9-1.2
	c0.3,0.3,1.5-0.1,2-0.5c1.9-1.3,3.5-3.1,6.1-1.1c0.3,0.2,1.3-0.2,1.9-0.5C528.6,8.6,531.1,7.7,533.3,10.4z"/>
<path fill="#F39DC3" d="M543.8,41.7l3.9-3.7c0,0-10.5-9.5-25.5-6.2c-5.9,1.3-18.4,15.4-22.9,20.2c3-5.6,12.4-21.8,11.9-27.7
	C509.8,9,497.5,2,497.5,2l-2.3,4.9L492.9,2c0,0-12.3,7-13.8,22.3c-0.6,6,8.9,22.7,12.1,28.4c-4.6-4.9-17.2-19.6-23.3-20.9
	c-15-3.3-25.5,6.2-25.5,6.2l3.9,3.7l-5.4,0.7c0,0,2.9,13.9,16.9,20c5.7,2.5,22.9-1.2,29.5-2.6c-6.2,2.8-22.4,10.2-25.6,15.6
	c-7.8,13.2-1.9,26.1-1.9,26.1l4.7-2.6l-1,5.3c0,0,14.1,1.5,24.3-9.9c3.9-4.4,6.6-23.6,7.4-30c0.8,6.4,2,25.6,5.9,30
	c10.1,11.5,24.3,9.9,24.3,9.9l-1-5.3l4.7,2.6c0,0,5.8-12.9-1.9-26.1c-3.4-5.8-19.7-11.7-26.3-14.5c7.2,1.7,24.9,4.2,31.3,1.4
	c14.1-6.1,16.9-20,16.9-20L543.8,41.7z"/>
<path fill="#F5B9D5" d="M529.3,46.7l2.8-2.7c0,0-7.5-6.8-18.2-4.5c-4.2,0.9-13.2,11-16.4,14.4c2.2-4,8.9-15.6,8.5-19.8
	c-1.1-10.9-9.9-16-9.9-16l-1.7,3.5l-1.7-3.5c0,0-8.8,5-9.9,16c-0.4,4.3,6.4,16.3,8.6,20.4c-3.3-3.5-12.3-14-16.7-15
	c-10.7-2.4-18.2,4.5-18.2,4.5l2.8,2.7l-3.8,0.5c0,0,2.1,10,12.1,14.3c4.1,1.8,16.4-0.9,21.1-1.8c-4.5,2-16,7.3-18.3,11.2
	c-5.6,9.5-1.4,18.7-1.4,18.7l3.4-1.9l-0.7,3.8c0,0,10.1,1.1,17.4-7.1c2.8-3.2,4.7-16.9,5.3-21.5c0.6,4.6,1.4,18.3,4.2,21.5
	c7.3,8.2,17.4,7.1,17.4,7.1l-0.7-3.8l3.4,1.9c0,0,4.2-9.3-1.4-18.7c-2.5-4.2-14.1-8.4-18.8-10.4c5.1,1.2,17.9,3,22.5,1
	c10.1-4.4,12.1-14.3,12.1-14.3L529.3,46.7z"/>
<path fill="#EC008C" d="M515.8,55.6c-1.1,0-2,0.6-2.5,1.5l-12.9,0.2c0,0,0-0.1,0-0.1c0-0.1,0-0.2,0-0.2l7-3c0.4,0.5,0.9,0.8,1.6,0.8
	c1.1,0,2-0.9,2-2s-0.9-2-2-2c-1.1,0-2,0.9-2,2c0,0.1,0,0.1,0,0.2l-6.8,2.9c-0.2-0.7-0.5-1.3-0.8-1.8l8.3-8.6
	c0.5,0.5,1.2,0.7,1.9,0.7c1.6,0,2.8-1.3,2.8-2.8c0-1.6-1.3-2.8-2.8-2.8c-1.6,0-2.8,1.3-2.8,2.8c0,0.3,0.1,0.6,0.2,0.9l-8.5,8.7
	c-0.1-0.1-0.3-0.2-0.4-0.3l2.6-6.6c0.2,0.1,0.4,0.1,0.6,0.1c1.2,0,2.1-0.9,2.1-2.1c0-1.2-0.9-2.1-2.1-2.1c-1.2,0-2.1,0.9-2.1,2.1
	c0,0.6,0.2,1,0.6,1.4l-2.6,6.6c-0.6-0.3-1.2-0.4-1.9-0.4L495,40.5c1.5-0.2,2.7-1.4,2.7-3c0-1.7-1.3-3-3-3c-1.7,0-3,1.3-3,3
	c0,1.3,0.8,2.4,1.9,2.8l0.2,11.5c-0.3,0.1-0.6,0.2-0.9,0.3l-2.6-6c0.8-0.3,1.4-1.1,1.4-2c0-1.2-1-2.2-2.2-2.2s-2.2,1-2.2,2.2
	c0,1.1,0.8,2,1.8,2.2l2.7,6.4c-0.4,0.3-0.8,0.6-1.1,0.9l-8.6-8.4c0.6-0.5,0.9-1.2,0.9-2.1c0-1.6-1.3-2.8-2.8-2.8s-2.8,1.3-2.8,2.8
	c0,1.6,1.3,2.8,2.8,2.8c0.2,0,0.4,0,0.6-0.1l9.1,8.9c-0.2,0.4-0.4,0.8-0.5,1.2l-7-2.8c0.1-0.3,0.2-0.6,0.2-0.9
	c0-1.2-0.9-2.1-2.1-2.1c-1.2,0-2.1,0.9-2.1,2.1c0,1.2,0.9,2.1,2.1,2.1c0.4,0,0.8-0.1,1.1-0.3l7.6,3c0,0.1,0,0.2,0,0.3
	c0,0.1,0,0.2,0,0.2l-13.1,0.2c-0.4-1.1-1.5-2-2.7-2c-1.6,0-2.9,1.3-2.9,2.9c0,1.6,1.3,2.9,2.9,2.9c1.5,0,2.6-1.1,2.9-2.5l13.3-0.2
	c0.1,0.5,0.4,0.9,0.6,1.3l-7.5,3.2c-0.3-0.9-1.1-1.6-2.1-1.6c-1.2,0-2.2,1-2.2,2.2c0,1.2,1,2.2,2.2,2.2c1,0,1.9-0.7,2.1-1.6l7.6-3.3
	l-8.7,8.9c-0.4-0.2-0.8-0.3-1.3-0.3c-1.5,0-2.7,1.2-2.7,2.7c0,1.5,1.2,2.7,2.7,2.7c1.5,0,2.7-1.2,2.7-2.7c0-0.5-0.2-1-0.4-1.4
	l9.1-9.3c0.4,0.2,0.8,0.4,1.2,0.6l-3.2,8.1c-0.2-0.1-0.4-0.1-0.6-0.1c-1.1,0-2,0.9-2,2s0.9,2,2,2c1.1,0,2-0.9,2-2
	c0-0.5-0.2-0.9-0.5-1.3l3.2-8.1l0.2,13.3c-1,0.4-1.7,1.3-1.7,2.4c0,1.4,1.1,2.6,2.6,2.6s2.6-1.1,2.6-2.6c0-1.2-0.9-2.3-2-2.5
	l-0.2-13.6c0.3,0,0.6-0.1,0.9-0.1l3.4,8c-0.7,0.3-1.2,1-1.2,1.8c0,1.1,0.9,2,2,2s2-0.9,2-2c0-1-0.7-1.8-1.6-2l-3.5-8.2
	c0.1-0.1,0.2-0.1,0.3-0.2l9.7,9.4c-0.4,0.5-0.7,1-0.7,1.7c0,1.4,1.1,2.6,2.6,2.6s2.6-1.1,2.6-2.6c0-1.4-1.1-2.6-2.6-2.6
	c-0.2,0-0.4,0-0.7,0.1l-9.8-9.5c0.1-0.1,0.2-0.2,0.3-0.4l8.1,3.2c0,0.1-0.1,0.3-0.1,0.4c0,1.2,0.9,2.1,2.1,2.1
	c1.2,0,2.1-0.9,2.1-2.1s-0.9-2.1-2.1-2.1c-0.6,0-1.1,0.3-1.5,0.7l-8-3.2c0.2-0.4,0.4-0.7,0.5-1.1l12.8-0.2c0,1.5,1.3,2.8,2.8,2.8
	c1.6,0,2.8-1.3,2.8-2.8S517.4,55.6,515.8,55.6z"/>
<path fill="#F5B9D5" d="M55.7,292.2l1.5-1.4c0,0-3.9-3.6-9.6-2.3c-1.8,0.4-5.2,4-7.4,6.3c-0.1-0.1-0.2-0.2-0.3-0.3
	c1.5-2.7,3.7-7,3.6-8.8c-0.6-5.7-5.2-8.4-5.2-8.4l-0.9,1.8l-0.9-1.8c0,0-4.6,2.6-5.2,8.4c-0.2,1.7,1.7,5.5,3.2,8.2
	c-0.2,0.1-0.4,0.2-0.6,0.3c-2.2-2.3-5.1-5.4-6.8-5.7c-5.6-1.2-9.6,2.3-9.6,2.3l1.5,1.4l-2,0.3c0,0,1.1,5.2,6.4,7.5
	c1.6,0.7,5.5,0.1,8.4-0.4c0,0.2,0.1,0.4,0.2,0.6c-2.7,1.3-6.3,3.2-7.2,4.7c-2.9,5-0.7,9.8-0.7,9.8l1.8-1l-0.4,2c0,0,5.3,0.6,9.1-3.7
	c1.1-1.2,1.9-5.5,2.4-8.6c0.2,0,0.5,0,0.7-0.1c0.3,3.1,0.8,7.4,1.9,8.6c3.8,4.3,9.1,3.7,9.1,3.7l-0.4-2l1.8,1c0,0,2.2-4.9-0.7-9.8
	c-1-1.7-5.1-3.5-8-4.7c0-0.1,0.1-0.3,0.1-0.4c3.2,0.5,7.8,1,9.7,0.1c5.3-2.3,6.4-7.5,6.4-7.5L55.7,292.2z"/>
<path fill="#EC008C" d="M52.5,297.1c0-0.6-7.2-1.1-11.7-1.3c2.1-2.7,4.9-6.4,4.6-6.7c-0.3-0.3-3.8,2.7-6.4,5
	c-0.5-4.5-1.5-11.6-2.1-11.6c-0.6,0-1.1,7.2-1.3,11.7c-2.7-2.1-6.4-4.9-6.7-4.6c-0.3,0.3,2.6,3.6,4.8,6.2
	c-4.5,0.2-11.4,0.7-11.4,1.3c0,0.6,7.1,1.5,11.6,2.1c-2.3,2.6-5.3,6.1-5,6.4c0.3,0.3,4-2.5,6.7-4.6c0.2,4.5,0.7,11.7,1.3,11.7
	c0.6,0,1.5-7.1,2.1-11.6c2.6,2.3,6.1,5.3,6.4,5c0.3-0.3-2.6-4.2-4.8-6.9C45.1,298.7,52.5,297.7,52.5,297.1z"/>
<path fill="#39B54A" d="M74.4,253.6c-1.5-0.1-2.9-0.1-3-2.2c-0.1-0.8-1.1-1.4-1.7-2.2c-0.3-0.4-0.8-1-0.7-1.3
	c0.2-0.6,0.8-1.2,1.2-1.7c0.2-0.2,0.5-0.5,0.8-0.5c1.9-0.2,2.3-2.3,3.9-3c0.6-0.3,1.1-1.5,1.5-1.4c1.5,0.1,2-1.7,3.7-1.5
	c0.5,0,1.1,0,1.6-0.1c0.5-0.2,0.9-0.5,1.4-0.6c1.5-0.3,3.2-0.4,4.7,0.3c0.4,0.2,0.9,0.5,1.3,0.4c2.8-0.7,5,0.6,7,2.3
	c0.3,0.3,0.8,0.5,1.2,0.5c1.6,0,2.6,0.8,3.4,2.1c1.1,1.9,3.4,2.1,4.9,0.5c0.6-0.7,2.7-2.1,3.3-2.1c0.3,0,1.4,1,1.5,1.4
	c0.1,0.3-2.1,1.9-2.4,2.2c-0.4,0.4-0.9,0.8-1.4,1c-2.4,0.6-3.5,2.4-4.8,4.3c-1.5,2.2-3.5,4.2-5.3,6.2c-0.3,0.3-1,0.2-1.6,0.3
	c-0.7,0.1-1.4,0-2,0.2c-0.9,0.3-1.6,0.9-2.4,1.4c-0.6,0.4-1.1,0.6-1.7-0.1c-0.2-0.2-0.9-0.2-1.4-0.1c-0.6,0.1-1.2,0.5-1.9,0.6
	c-1.2,0.3-2.4,0.7-2.7-1.2c0-0.2-0.7-0.5-1.1-0.5c-1.3-0.1-2.8,0.2-3.3-1.7c-0.1-0.2-0.7-0.4-1.1-0.5
	C76,256.1,74.5,255.6,74.4,253.6z"/>
<path fill="#F39DC3" d="M140.2,230.8l2.5-2.3c0,0-6.5-5.9-15.8-3.9c-3,0.7-8.7,6.6-12.2,10.3c-0.2-0.2-0.4-0.3-0.6-0.5
	c2.5-4.5,6.2-11.6,5.9-14.5c-0.9-9.5-8.6-13.9-8.6-13.9l-1.4,3l-1.4-3c0,0-7.7,4.4-8.6,13.9c-0.3,2.7,2.8,9,5.3,13.6
	c-0.3,0.2-0.7,0.3-1,0.6c-3.6-3.9-8.5-8.9-11.3-9.5c-9.3-2.1-15.8,3.9-15.8,3.9l2.5,2.3l-3.3,0.4c0,0,1.8,8.6,10.5,12.4
	c2.6,1.1,9.1,0.2,14-0.7c0.1,0.3,0.2,0.7,0.3,1c-4.5,2.2-10.4,5.3-11.9,7.8C84.3,259.9,88,268,88,268l2.9-1.6l-0.6,3.3
	c0,0,8.8,1,15.1-6.2c1.8-2,3.2-9,4-14.2c0.4,0,0.8-0.1,1.1-0.1c0.5,5.2,1.4,12.2,3.2,14.3c6.3,7.1,15.1,6.2,15.1,6.2l-0.6-3.3
	l2.9,1.6c0,0,3.6-8-1.2-16.3c-1.7-2.9-8.4-5.8-13.2-7.7c0.1-0.2,0.2-0.4,0.2-0.6c5.2,0.9,12.9,1.6,16.1,0.2
	c8.7-3.8,10.5-12.4,10.5-12.4L140.2,230.8z"/>
<path fill="#F5B9D5" d="M134.8,233.3l2-1.9c0,0-5.4-4.9-13-3.2c-2.4,0.5-7.1,5.4-10,8.5c-0.2-0.1-0.3-0.3-0.5-0.4
	c2-3.7,5.1-9.5,4.9-11.9c-0.7-7.8-7-11.4-7-11.4l-1.2,2.5l-1.2-2.5c0,0-6.3,3.6-7,11.4c-0.2,2.3,2.3,7.4,4.3,11.2
	c-0.3,0.1-0.6,0.3-0.8,0.5c-2.9-3.2-7-7.3-9.2-7.8c-7.6-1.7-13,3.2-13,3.2l2,1.9l-2.7,0.3c0,0,1.5,7.1,8.7,10.2
	c2.2,0.9,7.5,0.1,11.5-0.6c0.1,0.3,0.2,0.6,0.3,0.8c-3.7,1.8-8.5,4.4-9.7,6.4c-4,6.7-1,13.4-1,13.4l2.4-1.3l-0.5,2.7
	c0,0,7.2,0.8,12.4-5.1c1.5-1.7,2.6-7.4,3.3-11.6c0.3,0,0.6-0.1,0.9-0.1c0.4,4.2,1.1,10.1,2.6,11.7c5.2,5.9,12.4,5.1,12.4,5.1
	l-0.5-2.7l2.4,1.3c0,0,3-6.6-1-13.4c-1.4-2.4-6.9-4.7-10.8-6.3c0.1-0.2,0.1-0.3,0.2-0.5c4.3,0.7,10.6,1.3,13.2,0.2
	c7.2-3.1,8.7-10.2,8.7-10.2L134.8,233.3z"/>
<path fill="#EC008C" d="M128.9,238.7c0-0.8-9.1-1.3-14.8-1.6c2.7-3.4,6.2-8.1,5.8-8.5c-0.4-0.4-4.8,3.5-8.1,6.4
	c-0.7-5.7-1.9-14.6-2.6-14.6c-0.8,0-1.3,9.1-1.6,14.8c-3.4-2.7-8.1-6.2-8.5-5.8c-0.4,0.4,3.2,4.6,6.1,7.8
	c-5.7,0.3-14.3,0.9-14.3,1.6c0,0.8,8.9,1.9,14.6,2.6c-2.9,3.2-6.7,7.7-6.4,8.1c0.4,0.4,5-3.1,8.5-5.8c0.3,5.7,0.9,14.8,1.6,14.8
	c0.8,0,1.9-8.9,2.6-14.6c3.2,2.9,7.7,6.7,8.1,6.4c0.4-0.4-3.3-5.3-6-8.7C119.5,240.7,128.9,239.5,128.9,238.7z"/>
<path fill="#39B54A" d="M143.5,253.6c-1.5-0.1-2.9-0.1-3-2.2c-0.1-0.8-1.1-1.4-1.7-2.2c-0.3-0.4-0.8-1-0.7-1.3
	c0.2-0.6,0.8-1.2,1.2-1.7c0.2-0.2,0.5-0.5,0.8-0.5c1.9-0.2,2.3-2.3,3.9-3c0.6-0.3,1.1-1.5,1.5-1.4c1.5,0.1,2-1.7,3.7-1.5
	c0.5,0,1.1,0,1.6-0.1c0.5-0.2,0.9-0.5,1.4-0.6c1.5-0.3,3.2-0.4,4.7,0.3c0.4,0.2,0.9,0.5,1.3,0.4c2.8-0.7,5,0.6,7,2.3
	c0.3,0.3,0.8,0.5,1.2,0.5c1.6,0,2.6,0.8,3.4,2.1c1.1,1.9,3.4,2.1,4.9,0.5c0.6-0.7,2.7-2.1,3.3-2.1c0.3,0,1.4,1,1.5,1.4
	c0.1,0.3-2.1,1.9-2.4,2.2c-0.4,0.4-0.9,0.8-1.4,1c-2.4,0.6-3.5,2.4-4.8,4.3c-1.5,2.2-3.5,4.2-5.3,6.2c-0.3,0.3-1,0.2-1.6,0.3
	c-0.7,0.1-1.4,0-2,0.2c-0.9,0.3-1.6,0.9-2.4,1.4c-0.6,0.4-1.1,0.6-1.7-0.1c-0.2-0.2-0.9-0.2-1.4-0.1c-0.6,0.1-1.2,0.5-1.9,0.6
	c-1.2,0.3-2.4,0.7-2.7-1.2c0-0.2-0.7-0.5-1.1-0.5c-1.3-0.1-2.8,0.2-3.3-1.7c-0.1-0.2-0.7-0.4-1.1-0.5
	C145.1,256.1,143.6,255.6,143.5,253.6z"/>
<path fill="#F39DC3" d="M209.3,230.8l2.5-2.3c0,0-6.5-5.9-15.8-3.9c-3,0.7-8.7,6.6-12.2,10.3c-0.2-0.2-0.4-0.3-0.6-0.5
	c2.5-4.5,6.2-11.6,5.9-14.5c-0.9-9.5-8.6-13.9-8.6-13.9l-1.4,3l-1.4-3c0,0-7.7,4.4-8.6,13.9c-0.3,2.7,2.8,9,5.3,13.6
	c-0.3,0.2-0.7,0.3-1,0.6c-3.6-3.9-8.5-8.9-11.3-9.5c-9.3-2.1-15.8,3.9-15.8,3.9l2.5,2.3l-3.3,0.4c0,0,1.8,8.6,10.5,12.4
	c2.6,1.1,9.1,0.2,14-0.7c0.1,0.3,0.2,0.7,0.3,1c-4.5,2.2-10.4,5.3-11.9,7.8c-4.8,8.2-1.2,16.3-1.2,16.3l2.9-1.6l-0.6,3.3
	c0,0,8.8,1,15.1-6.2c1.8-2,3.2-9,4-14.2c0.4,0,0.8-0.1,1.1-0.1c0.5,5.2,1.4,12.2,3.2,14.3c6.3,7.1,15.1,6.2,15.1,6.2l-0.6-3.3
	l2.9,1.6c0,0,3.6-8-1.2-16.3c-1.7-2.9-8.4-5.8-13.2-7.7c0.1-0.2,0.2-0.4,0.2-0.6c5.2,0.9,12.9,1.6,16.1,0.2
	c8.7-3.8,10.5-12.4,10.5-12.4L209.3,230.8z"/>
<path fill="#F5B9D5" d="M203.9,233.3l2-1.9c0,0-5.4-4.9-13-3.2c-2.4,0.5-7.1,5.4-10,8.5c-0.2-0.1-0.3-0.3-0.5-0.4
	c2-3.7,5.1-9.5,4.9-11.9c-0.7-7.8-7-11.4-7-11.4l-1.2,2.5l-1.2-2.5c0,0-6.3,3.6-7,11.4c-0.2,2.3,2.3,7.4,4.3,11.2
	c-0.3,0.1-0.6,0.3-0.8,0.5c-2.9-3.2-7-7.3-9.2-7.8c-7.6-1.7-13,3.2-13,3.2l2,1.9l-2.7,0.3c0,0,1.5,7.1,8.7,10.2
	c2.2,0.9,7.5,0.1,11.5-0.6c0.1,0.3,0.2,0.6,0.3,0.8c-3.7,1.8-8.5,4.4-9.7,6.4c-4,6.7-1,13.4-1,13.4l2.4-1.3l-0.5,2.7
	c0,0,7.2,0.8,12.4-5.1c1.5-1.7,2.6-7.4,3.3-11.6c0.3,0,0.6-0.1,0.9-0.1c0.4,4.2,1.1,10.1,2.6,11.7c5.2,5.9,12.4,5.1,12.4,5.1
	l-0.5-2.7l2.4,1.3c0,0,3-6.6-1-13.4c-1.4-2.4-6.9-4.7-10.8-6.3c0.1-0.2,0.1-0.3,0.2-0.5c4.3,0.7,10.6,1.3,13.2,0.2
	c7.2-3.1,8.7-10.2,8.7-10.2L203.9,233.3z"/>
<path fill="#EC008C" d="M198,238.7c0-0.8-9.1-1.3-14.8-1.6c2.7-3.4,6.2-8.1,5.8-8.5c-0.4-0.4-4.8,3.5-8.1,6.4
	c-0.7-5.7-1.9-14.6-2.6-14.6c-0.8,0-1.3,9.1-1.6,14.8c-3.4-2.7-8.1-6.2-8.5-5.8c-0.4,0.4,3.2,4.6,6.1,7.8
	c-5.7,0.3-14.3,0.9-14.3,1.6c0,0.8,8.9,1.9,14.6,2.6c-2.9,3.2-6.7,7.7-6.4,8.1c0.4,0.4,5-3.1,8.5-5.8c0.3,5.7,0.9,14.8,1.6,14.8
	c0.8,0,1.9-8.9,2.6-14.6c3.2,2.9,7.7,6.7,8.1,6.4c0.4-0.4-3.3-5.3-6-8.7C188.6,240.7,198,239.5,198,238.7z"/>
<path fill="#39B54A" d="M212.5,253.6c-1.5-0.1-2.9-0.1-3-2.2c-0.1-0.8-1.1-1.4-1.7-2.2c-0.3-0.4-0.8-1-0.7-1.3
	c0.2-0.6,0.8-1.2,1.2-1.7c0.2-0.2,0.5-0.5,0.8-0.5c1.9-0.2,2.3-2.3,3.9-3c0.6-0.3,1.1-1.5,1.5-1.4c1.5,0.1,2-1.7,3.7-1.5
	c0.5,0,1.1,0,1.6-0.1c0.5-0.2,0.9-0.5,1.4-0.6c1.5-0.3,3.2-0.4,4.7,0.3c0.4,0.2,0.9,0.5,1.3,0.4c2.8-0.7,5,0.6,7,2.3
	c0.3,0.3,0.8,0.5,1.2,0.5c1.6,0,2.6,0.8,3.4,2.1c1.1,1.9,3.4,2.1,4.9,0.5c0.6-0.7,2.7-2.1,3.3-2.1c0.3,0,1.4,1,1.5,1.4
	c0.1,0.3-2.1,1.9-2.4,2.2c-0.4,0.4-0.9,0.8-1.4,1c-2.4,0.6-3.5,2.4-4.8,4.3c-1.5,2.2-3.5,4.2-5.3,6.2c-0.3,0.3-1,0.2-1.6,0.3
	c-0.7,0.1-1.4,0-2,0.2c-0.9,0.3-1.6,0.9-2.4,1.4c-0.6,0.4-1.1,0.6-1.7-0.1c-0.2-0.2-0.9-0.2-1.4-0.1c-0.6,0.1-1.2,0.5-1.9,0.6
	c-1.2,0.3-2.4,0.7-2.7-1.2c0-0.2-0.7-0.5-1.1-0.5c-1.3-0.1-2.8,0.2-3.3-1.7c-0.1-0.2-0.7-0.4-1.1-0.5
	C214.1,256.1,212.6,255.6,212.5,253.6z"/>
<path fill="#F39DC3" d="M278.3,230.8l2.5-2.3c0,0-6.5-5.9-15.8-3.9c-3,0.7-8.7,6.6-12.2,10.3c-0.2-0.2-0.4-0.3-0.6-0.5
	c2.5-4.5,6.2-11.6,5.9-14.5c-0.9-9.5-8.6-13.9-8.6-13.9l-1.4,3l-1.4-3c0,0-7.7,4.4-8.6,13.9c-0.3,2.7,2.8,9,5.3,13.6
	c-0.3,0.2-0.7,0.3-1,0.6c-3.6-3.9-8.5-8.9-11.3-9.5c-9.3-2.1-15.8,3.9-15.8,3.9l2.5,2.3l-3.3,0.4c0,0,1.8,8.6,10.5,12.4
	c2.6,1.1,9.1,0.2,14-0.7c0.1,0.3,0.2,0.7,0.3,1c-4.5,2.2-10.4,5.3-11.9,7.8c-4.8,8.2-1.2,16.3-1.2,16.3l2.9-1.6l-0.6,3.3
	c0,0,8.8,1,15.1-6.2c1.8-2,3.2-9,4-14.2c0.4,0,0.8-0.1,1.1-0.1c0.5,5.2,1.4,12.2,3.2,14.3c6.3,7.1,15.1,6.2,15.1,6.2l-0.6-3.3
	l2.9,1.6c0,0,3.6-8-1.2-16.3c-1.7-2.9-8.4-5.8-13.2-7.7c0.1-0.2,0.2-0.4,0.2-0.6c5.2,0.9,12.9,1.6,16.1,0.2
	c8.7-3.8,10.5-12.4,10.5-12.4L278.3,230.8z"/>
<path fill="#F5B9D5" d="M272.9,233.3l2-1.9c0,0-5.4-4.9-13-3.2c-2.4,0.5-7.1,5.4-10,8.5c-0.2-0.1-0.3-0.3-0.5-0.4
	c2-3.7,5.1-9.5,4.9-11.9c-0.7-7.8-7-11.4-7-11.4l-1.2,2.5l-1.2-2.5c0,0-6.3,3.6-7,11.4c-0.2,2.3,2.3,7.4,4.3,11.2
	c-0.3,0.1-0.6,0.3-0.8,0.5c-2.9-3.2-7-7.3-9.2-7.8c-7.6-1.7-13,3.2-13,3.2l2,1.9l-2.7,0.3c0,0,1.5,7.1,8.7,10.2
	c2.2,0.9,7.5,0.1,11.5-0.6c0.1,0.3,0.2,0.6,0.3,0.8c-3.7,1.8-8.5,4.4-9.7,6.4c-4,6.7-1,13.4-1,13.4l2.4-1.3l-0.5,2.7
	c0,0,7.2,0.8,12.4-5.1c1.5-1.7,2.6-7.4,3.3-11.6c0.3,0,0.6-0.1,0.9-0.1c0.4,4.2,1.1,10.1,2.6,11.7c5.2,5.9,12.4,5.1,12.4,5.1
	l-0.5-2.7l2.4,1.3c0,0,3-6.6-1-13.4c-1.4-2.4-6.9-4.7-10.8-6.3c0.1-0.2,0.1-0.3,0.2-0.5c4.3,0.7,10.6,1.3,13.2,0.2
	c7.2-3.1,8.7-10.2,8.7-10.2L272.9,233.3z"/>
<path fill="#EC008C" d="M267,238.7c0-0.8-9.1-1.3-14.8-1.6c2.7-3.4,6.2-8.1,5.8-8.5c-0.4-0.4-4.8,3.5-8.1,6.4
	c-0.7-5.7-1.9-14.6-2.6-14.6c-0.8,0-1.3,9.1-1.6,14.8c-3.4-2.7-8.1-6.2-8.5-5.8c-0.4,0.4,3.2,4.6,6.1,7.8
	c-5.7,0.3-14.3,0.9-14.3,1.6c0,0.8,8.9,1.9,14.6,2.6c-2.9,3.2-6.7,7.7-6.4,8.1c0.4,0.4,5-3.1,8.5-5.8c0.3,5.7,0.9,14.8,1.6,14.8
	c0.8,0,1.9-8.9,2.6-14.6c3.2,2.9,7.7,6.7,8.1,6.4c0.4-0.4-3.3-5.3-6-8.7C257.6,240.7,267,239.5,267,238.7z"/>
<path fill="#39B54A" d="M282.4,253.6c-1.5-0.1-2.9-0.1-3-2.2c-0.1-0.8-1.1-1.4-1.7-2.2c-0.3-0.4-0.8-1-0.7-1.3
	c0.2-0.6,0.8-1.2,1.2-1.7c0.2-0.2,0.5-0.5,0.8-0.5c1.9-0.2,2.3-2.3,3.9-3c0.6-0.3,1.1-1.5,1.5-1.4c1.5,0.1,2-1.7,3.7-1.5
	c0.5,0,1.1,0,1.6-0.1c0.5-0.2,0.9-0.5,1.4-0.6c1.5-0.3,3.2-0.4,4.7,0.3c0.4,0.2,0.9,0.5,1.3,0.4c2.8-0.7,5,0.6,7,2.3
	c0.3,0.3,0.8,0.5,1.2,0.5c1.6,0,2.6,0.8,3.4,2.1c1.1,1.9,3.4,2.1,4.9,0.5c0.6-0.7,2.7-2.1,3.3-2.1c0.3,0,1.4,1,1.5,1.4
	c0.1,0.3-2.1,1.9-2.4,2.2c-0.4,0.4-0.9,0.8-1.4,1c-2.4,0.6-3.5,2.4-4.8,4.3c-1.5,2.2-3.5,4.2-5.3,6.2c-0.3,0.3-1,0.2-1.6,0.3
	c-0.7,0.1-1.4,0-2,0.2c-0.9,0.3-1.6,0.9-2.4,1.4c-0.6,0.4-1.1,0.6-1.7-0.1c-0.2-0.2-0.9-0.2-1.4-0.1c-0.6,0.1-1.2,0.5-1.9,0.6
	c-1.2,0.3-2.4,0.7-2.7-1.2c0-0.2-0.7-0.5-1.1-0.5c-1.3-0.1-2.8,0.2-3.3-1.7c-0.1-0.2-0.7-0.4-1.1-0.5
	C284,256.1,282.5,255.6,282.4,253.6z"/>
<path fill="#F39DC3" d="M348.2,230.8l2.5-2.3c0,0-6.5-5.9-15.8-3.9c-3,0.7-8.7,6.6-12.2,10.3c-0.2-0.2-0.4-0.3-0.6-0.5
	c2.5-4.5,6.2-11.6,5.9-14.5c-0.9-9.5-8.6-13.9-8.6-13.9l-1.4,3l-1.4-3c0,0-7.7,4.4-8.6,13.9c-0.3,2.7,2.8,9,5.3,13.6
	c-0.3,0.2-0.7,0.3-1,0.6c-3.6-3.9-8.5-8.9-11.3-9.5c-9.3-2.1-15.8,3.9-15.8,3.9l2.5,2.3l-3.3,0.4c0,0,1.8,8.6,10.5,12.4
	c2.6,1.1,9.1,0.2,14-0.7c0.1,0.3,0.2,0.7,0.3,1c-4.5,2.2-10.4,5.3-11.9,7.8c-4.8,8.2-1.2,16.3-1.2,16.3l2.9-1.6l-0.6,3.3
	c0,0,8.8,1,15.1-6.2c1.8-2,3.2-9,4-14.2c0.4,0,0.8-0.1,1.1-0.1c0.5,5.2,1.4,12.2,3.2,14.3c6.3,7.1,15.1,6.2,15.1,6.2l-0.6-3.3
	l2.9,1.6c0,0,3.6-8-1.2-16.3c-1.7-2.9-8.4-5.8-13.2-7.7c0.1-0.2,0.2-0.4,0.2-0.6c5.2,0.9,12.9,1.6,16.1,0.2
	c8.7-3.8,10.5-12.4,10.5-12.4L348.2,230.8z"/>
<path fill="#F5B9D5" d="M342.8,233.3l2-1.9c0,0-5.4-4.9-13-3.2c-2.4,0.5-7.1,5.4-10,8.5c-0.2-0.1-0.3-0.3-0.5-0.4
	c2-3.7,5.1-9.5,4.9-11.9c-0.7-7.8-7-11.4-7-11.4l-1.2,2.5l-1.2-2.5c0,0-6.3,3.6-7,11.4c-0.2,2.3,2.3,7.4,4.3,11.2
	c-0.3,0.1-0.6,0.3-0.8,0.5c-2.9-3.2-7-7.3-9.2-7.8c-7.6-1.7-13,3.2-13,3.2l2,1.9l-2.7,0.3c0,0,1.5,7.1,8.7,10.2
	c2.2,0.9,7.5,0.1,11.5-0.6c0.1,0.3,0.2,0.6,0.3,0.8c-3.7,1.8-8.5,4.4-9.7,6.4c-4,6.7-1,13.4-1,13.4l2.4-1.3l-0.5,2.7
	c0,0,7.2,0.8,12.4-5.1c1.5-1.7,2.6-7.4,3.3-11.6c0.3,0,0.6-0.1,0.9-0.1c0.4,4.2,1.1,10.1,2.6,11.7c5.2,5.9,12.4,5.1,12.4,5.1
	l-0.5-2.7l2.4,1.3c0,0,3-6.6-1-13.4c-1.4-2.4-6.9-4.7-10.8-6.3c0.1-0.2,0.1-0.3,0.2-0.5c4.3,0.7,10.6,1.3,13.2,0.2
	c7.2-3.1,8.7-10.2,8.7-10.2L342.8,233.3z"/>
<path fill="#EC008C" d="M336.9,238.7c0-0.8-9.1-1.3-14.8-1.6c2.7-3.4,6.2-8.1,5.8-8.5c-0.4-0.4-4.8,3.5-8.1,6.4
	c-0.7-5.7-1.9-14.6-2.6-14.6c-0.8,0-1.3,9.1-1.6,14.8c-3.4-2.7-8.1-6.2-8.5-5.8c-0.4,0.4,3.2,4.6,6.1,7.8
	c-5.7,0.3-14.3,0.9-14.3,1.6c0,0.8,8.9,1.9,14.6,2.6c-2.9,3.2-6.7,7.7-6.4,8.1c0.4,0.4,5-3.1,8.5-5.8c0.3,5.7,0.9,14.8,1.6,14.8
	c0.8,0,1.9-8.9,2.6-14.6c3.2,2.9,7.7,6.7,8.1,6.4c0.4-0.4-3.3-5.3-6-8.7C327.5,240.7,336.9,239.5,336.9,238.7z"/>
<path fill="#39B54A" d="M351.4,253.6c-1.5-0.1-2.9-0.1-3-2.2c-0.1-0.8-1.1-1.4-1.7-2.2c-0.3-0.4-0.8-1-0.7-1.3
	c0.2-0.6,0.8-1.2,1.2-1.7c0.2-0.2,0.5-0.5,0.8-0.5c1.9-0.2,2.3-2.3,3.9-3c0.6-0.3,1.1-1.5,1.5-1.4c1.5,0.1,2-1.7,3.7-1.5
	c0.5,0,1.1,0,1.6-0.1c0.5-0.2,0.9-0.5,1.4-0.6c1.5-0.3,3.2-0.4,4.7,0.3c0.4,0.2,0.9,0.5,1.3,0.4c2.8-0.7,5,0.6,7,2.3
	c0.3,0.3,0.8,0.5,1.2,0.5c1.6,0,2.6,0.8,3.4,2.1c1.1,1.9,3.4,2.1,4.9,0.5c0.6-0.7,2.7-2.1,3.3-2.1c0.3,0,1.4,1,1.5,1.4
	c0.1,0.3-2.1,1.9-2.4,2.2c-0.4,0.4-0.9,0.8-1.4,1c-2.4,0.6-3.5,2.4-4.8,4.3c-1.5,2.2-3.5,4.2-5.3,6.2c-0.3,0.3-1,0.2-1.6,0.3
	c-0.7,0.1-1.4,0-2,0.2c-0.9,0.3-1.6,0.9-2.4,1.4c-0.6,0.4-1.1,0.6-1.7-0.1c-0.2-0.2-0.9-0.2-1.4-0.1c-0.6,0.1-1.2,0.5-1.9,0.6
	c-1.2,0.3-2.4,0.7-2.7-1.2c0-0.2-0.7-0.5-1.1-0.5c-1.3-0.1-2.8,0.2-3.3-1.7c-0.1-0.2-0.7-0.4-1.1-0.5
	C353,256.1,351.5,255.6,351.4,253.6z"/>
<path fill="#F39DC3" d="M417.2,230.8l2.5-2.3c0,0-6.5-5.9-15.8-3.9c-3,0.7-8.7,6.6-12.2,10.3c-0.2-0.2-0.4-0.3-0.6-0.5
	c2.5-4.5,6.2-11.6,5.9-14.5c-0.9-9.5-8.6-13.9-8.6-13.9l-1.4,3l-1.4-3c0,0-7.7,4.4-8.6,13.9c-0.3,2.7,2.8,9,5.3,13.6
	c-0.3,0.2-0.7,0.3-1,0.6c-3.6-3.9-8.5-8.9-11.3-9.5c-9.3-2.1-15.8,3.9-15.8,3.9l2.5,2.3l-3.3,0.4c0,0,1.8,8.6,10.5,12.4
	c2.6,1.1,9.1,0.2,14-0.7c0.1,0.3,0.2,0.7,0.3,1c-4.5,2.2-10.4,5.3-11.9,7.8c-4.8,8.2-1.2,16.3-1.2,16.3l2.9-1.6l-0.6,3.3
	c0,0,8.8,1,15.1-6.2c1.8-2,3.2-9,4-14.2c0.4,0,0.8-0.1,1.1-0.1c0.5,5.2,1.4,12.2,3.2,14.3c6.3,7.1,15.1,6.2,15.1,6.2l-0.6-3.3
	l2.9,1.6c0,0,3.6-8-1.2-16.3c-1.7-2.9-8.4-5.8-13.2-7.7c0.1-0.2,0.2-0.4,0.2-0.6c5.2,0.9,12.9,1.6,16.1,0.2
	c8.7-3.8,10.5-12.4,10.5-12.4L417.2,230.8z"/>
<path fill="#F5B9D5" d="M411.8,233.3l2-1.9c0,0-5.4-4.9-13-3.2c-2.4,0.5-7.1,5.4-10,8.5c-0.2-0.1-0.3-0.3-0.5-0.4
	c2-3.7,5.1-9.5,4.9-11.9c-0.7-7.8-7-11.4-7-11.4l-1.2,2.5l-1.2-2.5c0,0-6.3,3.6-7,11.4c-0.2,2.3,2.3,7.4,4.3,11.2
	c-0.3,0.1-0.6,0.3-0.8,0.5c-2.9-3.2-7-7.3-9.2-7.8c-7.6-1.7-13,3.2-13,3.2l2,1.9l-2.7,0.3c0,0,1.5,7.1,8.7,10.2
	c2.2,0.9,7.5,0.1,11.5-0.6c0.1,0.3,0.2,0.6,0.3,0.8c-3.7,1.8-8.5,4.4-9.7,6.4c-4,6.7-1,13.4-1,13.4l2.4-1.3l-0.5,2.7
	c0,0,7.2,0.8,12.4-5.1c1.5-1.7,2.6-7.4,3.3-11.6c0.3,0,0.6-0.1,0.9-0.1c0.4,4.2,1.1,10.1,2.6,11.7c5.2,5.9,12.4,5.1,12.4,5.1
	l-0.5-2.7l2.4,1.3c0,0,3-6.6-1-13.4c-1.4-2.4-6.9-4.7-10.8-6.3c0.1-0.2,0.1-0.3,0.2-0.5c4.3,0.7,10.6,1.3,13.2,0.2
	c7.2-3.1,8.7-10.2,8.7-10.2L411.8,233.3z"/>
<path fill="#EC008C" d="M405.9,238.7c0-0.8-9.1-1.3-14.8-1.6c2.7-3.4,6.2-8.1,5.8-8.5c-0.4-0.4-4.8,3.5-8.1,6.4
	c-0.7-5.7-1.9-14.6-2.6-14.6c-0.8,0-1.3,9.1-1.6,14.8c-3.4-2.7-8.1-6.2-8.5-5.8c-0.4,0.4,3.2,4.6,6.1,7.8
	c-5.7,0.3-14.3,0.9-14.3,1.6c0,0.8,8.9,1.9,14.6,2.6c-2.9,3.2-6.7,7.7-6.4,8.1c0.4,0.4,5-3.1,8.5-5.8c0.3,5.7,0.9,14.8,1.6,14.8
	c0.8,0,1.9-8.9,2.6-14.6c3.2,2.9,7.7,6.7,8.1,6.4c0.4-0.4-3.3-5.3-6-8.7C396.5,240.7,405.9,239.5,405.9,238.7z"/>
<path fill="#39B54A" d="M420.5,253.6c-1.5-0.1-2.9-0.1-3-2.2c-0.1-0.8-1.1-1.4-1.7-2.2c-0.3-0.4-0.8-1-0.7-1.3
	c0.2-0.6,0.8-1.2,1.2-1.7c0.2-0.2,0.5-0.5,0.8-0.5c1.9-0.2,2.3-2.3,3.9-3c0.6-0.3,1.1-1.5,1.5-1.4c1.5,0.1,2-1.7,3.7-1.5
	c0.5,0,1.1,0,1.6-0.1c0.5-0.2,0.9-0.5,1.4-0.6c1.5-0.3,3.2-0.4,4.7,0.3c0.4,0.2,0.9,0.5,1.3,0.4c2.8-0.7,5,0.6,7,2.3
	c0.3,0.3,0.8,0.5,1.2,0.5c1.6,0,2.6,0.8,3.4,2.1c1.1,1.9,3.4,2.1,4.9,0.5c0.6-0.7,2.7-2.1,3.3-2.1c0.3,0,1.4,1,1.5,1.4
	c0.1,0.3-2.1,1.9-2.4,2.2c-0.4,0.4-0.9,0.8-1.4,1c-2.4,0.6-3.5,2.4-4.8,4.3c-1.5,2.2-3.5,4.2-5.3,6.2c-0.3,0.3-1,0.2-1.6,0.3
	c-0.7,0.1-1.4,0-2,0.2c-0.9,0.3-1.6,0.9-2.4,1.4c-0.6,0.4-1.1,0.6-1.7-0.1c-0.2-0.2-0.9-0.2-1.4-0.1c-0.6,0.1-1.2,0.5-1.9,0.6
	c-1.2,0.3-2.4,0.7-2.7-1.2c0-0.2-0.7-0.5-1.1-0.5c-1.3-0.1-2.8,0.2-3.3-1.7c-0.1-0.2-0.7-0.4-1.1-0.5
	C422.1,256.1,420.6,255.6,420.5,253.6z"/>
<path fill="#F39DC3" d="M486.3,230.8l2.5-2.3c0,0-6.5-5.9-15.8-3.9c-3,0.7-8.7,6.6-12.2,10.3c-0.2-0.2-0.4-0.3-0.6-0.5
	c2.5-4.5,6.2-11.6,5.9-14.5c-0.9-9.5-8.6-13.9-8.6-13.9l-1.4,3l-1.4-3c0,0-7.7,4.4-8.6,13.9c-0.3,2.7,2.8,9,5.3,13.6
	c-0.3,0.2-0.7,0.3-1,0.6c-3.6-3.9-8.5-8.9-11.3-9.5c-9.3-2.1-15.8,3.9-15.8,3.9l2.5,2.3l-3.3,0.4c0,0,1.8,8.6,10.5,12.4
	c2.6,1.1,9.1,0.2,14-0.7c0.1,0.3,0.2,0.7,0.3,1c-4.5,2.2-10.4,5.3-11.9,7.8c-4.8,8.2-1.2,16.3-1.2,16.3l2.9-1.6l-0.6,3.3
	c0,0,8.8,1,15.1-6.2c1.8-2,3.2-9,4-14.2c0.4,0,0.8-0.1,1.1-0.1c0.5,5.2,1.4,12.2,3.2,14.3c6.3,7.1,15.1,6.2,15.1,6.2l-0.6-3.3
	l2.9,1.6c0,0,3.6-8-1.2-16.3c-1.7-2.9-8.4-5.8-13.2-7.7c0.1-0.2,0.2-0.4,0.2-0.6c5.2,0.9,12.9,1.6,16.1,0.2
	c8.7-3.8,10.5-12.4,10.5-12.4L486.3,230.8z"/>
<path fill="#F5B9D5" d="M480.9,233.3l2-1.9c0,0-5.4-4.9-13-3.2c-2.4,0.5-7.1,5.4-10,8.5c-0.2-0.1-0.3-0.3-0.5-0.4
	c2-3.7,5.1-9.5,4.9-11.9c-0.7-7.8-7-11.4-7-11.4l-1.2,2.5l-1.2-2.5c0,0-6.3,3.6-7,11.4c-0.2,2.3,2.3,7.4,4.3,11.2
	c-0.3,0.1-0.6,0.3-0.8,0.5c-2.9-3.2-7-7.3-9.2-7.8c-7.6-1.7-13,3.2-13,3.2l2,1.9l-2.7,0.3c0,0,1.5,7.1,8.7,10.2
	c2.2,0.9,7.5,0.1,11.5-0.6c0.1,0.3,0.2,0.6,0.3,0.8c-3.7,1.8-8.5,4.4-9.7,6.4c-4,6.7-1,13.4-1,13.4l2.4-1.3l-0.5,2.7
	c0,0,7.2,0.8,12.4-5.1c1.5-1.7,2.6-7.4,3.3-11.6c0.3,0,0.6-0.1,0.9-0.1c0.4,4.2,1.1,10.1,2.6,11.7c5.2,5.9,12.4,5.1,12.4,5.1
	l-0.5-2.7l2.4,1.3c0,0,3-6.6-1-13.4c-1.4-2.4-6.9-4.7-10.8-6.3c0.1-0.2,0.1-0.3,0.2-0.5c4.3,0.7,10.6,1.3,13.2,0.2
	c7.2-3.1,8.7-10.2,8.7-10.2L480.9,233.3z"/>
<path fill="#EC008C" d="M475,238.7c0-0.8-9.1-1.3-14.8-1.6c2.7-3.4,6.2-8.1,5.8-8.5c-0.4-0.4-4.8,3.5-8.1,6.4
	c-0.7-5.7-1.9-14.6-2.6-14.6c-0.8,0-1.3,9.1-1.6,14.8c-3.4-2.7-8.1-6.2-8.5-5.8c-0.4,0.4,3.2,4.6,6.1,7.8
	c-5.7,0.3-14.3,0.9-14.3,1.6c0,0.8,8.9,1.9,14.6,2.6c-2.9,3.2-6.7,7.7-6.4,8.1c0.4,0.4,5-3.1,8.5-5.8c0.3,5.7,0.9,14.8,1.6,14.8
	c0.8,0,1.9-8.9,2.6-14.6c3.2,2.9,7.7,6.7,8.1,6.4c0.4-0.4-3.3-5.3-6-8.7C465.6,240.7,475,239.5,475,238.7z"/>
<path fill="#39B54A" d="M489.5,253.6c-1.5-0.1-2.9-0.1-3-2.2c-0.1-0.8-1.1-1.4-1.7-2.2c-0.3-0.4-0.8-1-0.7-1.3
	c0.2-0.6,0.8-1.2,1.2-1.7c0.2-0.2,0.5-0.5,0.8-0.5c1.9-0.2,2.3-2.3,3.9-3c0.6-0.3,1.1-1.5,1.5-1.4c1.5,0.1,2-1.7,3.7-1.5
	c0.5,0,1.1,0,1.6-0.1c0.5-0.2,0.9-0.5,1.4-0.6c1.5-0.3,3.2-0.4,4.7,0.3c0.4,0.2,0.9,0.5,1.3,0.4c2.8-0.7,5,0.6,7,2.3
	c0.3,0.3,0.8,0.5,1.2,0.5c1.6,0,2.6,0.8,3.4,2.1c1.1,1.9,3.4,2.1,4.9,0.5c0.6-0.7,2.7-2.1,3.3-2.1c0.3,0,1.4,1,1.5,1.4
	c0.1,0.3-2.1,1.9-2.4,2.2c-0.4,0.4-0.9,0.8-1.4,1c-2.4,0.6-3.5,2.4-4.8,4.3c-1.5,2.2-3.5,4.2-5.3,6.2c-0.3,0.3-1,0.2-1.6,0.3
	c-0.7,0.1-1.4,0-2,0.2c-0.9,0.3-1.6,0.9-2.4,1.4c-0.6,0.4-1.1,0.6-1.7-0.1c-0.2-0.2-0.9-0.2-1.4-0.1c-0.6,0.1-1.2,0.5-1.9,0.6
	c-1.2,0.3-2.4,0.7-2.7-1.2c0-0.2-0.7-0.5-1.1-0.5c-1.3-0.1-2.8,0.2-3.3-1.7c-0.1-0.2-0.7-0.4-1.1-0.5
	C491.1,256.1,489.6,255.6,489.5,253.6z"/>
<path fill="#F39DC3" d="M555.3,230.8l2.5-2.3c0,0-6.5-5.9-15.8-3.9c-3,0.7-8.7,6.6-12.2,10.3c-0.2-0.2-0.4-0.3-0.6-0.5
	c2.5-4.5,6.2-11.6,5.9-14.5c-0.9-9.5-8.6-13.9-8.6-13.9l-1.4,3l-1.4-3c0,0-7.7,4.4-8.6,13.9c-0.3,2.7,2.8,9,5.3,13.6
	c-0.3,0.2-0.7,0.3-1,0.6c-3.6-3.9-8.5-8.9-11.3-9.5c-9.3-2.1-15.8,3.9-15.8,3.9l2.5,2.3l-3.3,0.4c0,0,1.8,8.6,10.5,12.4
	c2.6,1.1,9.1,0.2,14-0.7c0.1,0.3,0.2,0.7,0.3,1c-4.5,2.2-10.4,5.3-11.9,7.8c-4.8,8.2-1.2,16.3-1.2,16.3l2.9-1.6l-0.6,3.3
	c0,0,8.8,1,15.1-6.2c1.8-2,3.2-9,4-14.2c0.4,0,0.8-0.1,1.1-0.1c0.5,5.2,1.4,12.2,3.2,14.3c6.3,7.1,15.1,6.2,15.1,6.2l-0.6-3.3
	l2.9,1.6c0,0,3.6-8-1.2-16.3c-1.7-2.9-8.4-5.8-13.2-7.7c0.1-0.2,0.2-0.4,0.2-0.6c5.2,0.9,12.9,1.6,16.1,0.2
	c8.7-3.8,10.5-12.4,10.5-12.4L555.3,230.8z"/>
<path fill="#F5B9D5" d="M549.9,233.3l2-1.9c0,0-5.4-4.9-13-3.2c-2.4,0.5-7.1,5.4-10,8.5c-0.2-0.1-0.3-0.3-0.5-0.4
	c2-3.7,5.1-9.5,4.9-11.9c-0.7-7.8-7-11.4-7-11.4l-1.2,2.5l-1.2-2.5c0,0-6.3,3.6-7,11.4c-0.2,2.3,2.3,7.4,4.3,11.2
	c-0.3,0.1-0.6,0.3-0.8,0.5c-2.9-3.2-7-7.3-9.2-7.8c-7.6-1.7-13,3.2-13,3.2l2,1.9l-2.7,0.3c0,0,1.5,7.1,8.7,10.2
	c2.2,0.9,7.5,0.1,11.5-0.6c0.1,0.3,0.2,0.6,0.3,0.8c-3.7,1.8-8.5,4.4-9.7,6.4c-4,6.7-1,13.4-1,13.4l2.4-1.3l-0.5,2.7
	c0,0,7.2,0.8,12.4-5.1c1.5-1.7,2.6-7.4,3.3-11.6c0.3,0,0.6-0.1,0.9-0.1c0.4,4.2,1.1,10.1,2.6,11.7c5.2,5.9,12.4,5.1,12.4,5.1
	l-0.5-2.7l2.4,1.3c0,0,3-6.6-1-13.4c-1.4-2.4-6.9-4.7-10.8-6.3c0.1-0.2,0.1-0.3,0.2-0.5c4.3,0.7,10.6,1.3,13.2,0.2
	c7.2-3.1,8.7-10.2,8.7-10.2L549.9,233.3z"/>
<path fill="#EC008C" d="M544,238.7c0-0.8-9.1-1.3-14.8-1.6c2.7-3.4,6.2-8.1,5.8-8.5c-0.4-0.4-4.8,3.5-8.1,6.4
	c-0.7-5.7-1.9-14.6-2.6-14.6c-0.8,0-1.3,9.1-1.6,14.8c-3.4-2.7-8.1-6.2-8.5-5.8c-0.4,0.4,3.2,4.6,6.1,7.8
	c-5.7,0.3-14.3,0.9-14.3,1.6c0,0.8,8.9,1.9,14.6,2.6c-2.9,3.2-6.7,7.7-6.4,8.1c0.4,0.4,5-3.1,8.5-5.8c0.3,5.7,0.9,14.8,1.6,14.8
	c0.8,0,1.9-8.9,2.6-14.6c3.2,2.9,7.7,6.7,8.1,6.4c0.4-0.4-3.3-5.3-6-8.7C534.6,240.7,544,239.5,544,238.7z"/>
<path fill="#39B54A" d="M65.3,308.9c-1.2-0.1-2.3-0.1-2.4-1.7c0-0.6-0.9-1.1-1.3-1.7c-0.2-0.3-0.6-0.8-0.6-1.1c0.2-0.5,0.6-1,1-1.4
	c0.2-0.2,0.4-0.4,0.6-0.4c1.5-0.2,1.8-1.9,3.1-2.4c0.5-0.2,0.8-1.2,1.2-1.1c1.2,0.1,1.6-1.3,2.9-1.2c0.4,0,0.9,0,1.3-0.1
	c0.4-0.1,0.7-0.4,1.1-0.5c1.2-0.2,2.5-0.3,3.8,0.3c0.3,0.2,0.7,0.4,1,0.3c2.2-0.5,3.9,0.5,5.6,1.9c0.3,0.2,0.7,0.4,1,0.4
	c1.3,0,2,0.7,2.7,1.7c0.9,1.5,2.7,1.6,3.9,0.4c0.5-0.5,2.1-1.7,2.6-1.7c0.3,0,1.1,0.8,1.2,1.1c0.1,0.2-1.7,1.5-1.9,1.7
	c-0.3,0.3-0.7,0.7-1.1,0.8c-1.9,0.5-2.8,1.9-3.8,3.4c-1.2,1.8-2.7,3.3-4.2,4.9c-0.2,0.2-0.8,0.2-1.2,0.2c-0.5,0.1-1.1,0-1.6,0.2
	c-0.7,0.3-1.3,0.7-1.9,1.1c-0.5,0.3-0.9,0.5-1.3-0.1c-0.2-0.2-0.7-0.2-1.1-0.1c-0.5,0.1-1,0.4-1.5,0.5c-0.9,0.2-1.9,0.5-2.2-1
	c0-0.2-0.6-0.4-0.9-0.4c-1.1-0.1-2.2,0.1-2.6-1.3c0-0.2-0.5-0.3-0.8-0.4C66.5,310.9,65.4,310.6,65.3,308.9z"/>
<path fill="#F39DC3" d="M117.4,290.8l1.9-1.8c0,0-5.2-4.7-12.6-3.1c-2.3,0.5-6.9,5.2-9.7,8.2c-0.1-0.1-0.3-0.3-0.5-0.4
	c1.9-3.6,4.9-9.2,4.7-11.5c-0.7-7.5-6.8-11-6.8-11l-1.1,2.4l-1.1-2.4c0,0-6.1,3.5-6.8,11c-0.2,2.2,2.2,7.2,4.2,10.8
	c-0.3,0.1-0.5,0.3-0.8,0.4c-2.8-3.1-6.7-7-8.9-7.5c-7.4-1.6-12.6,3.1-12.6,3.1l1.9,1.8l-2.6,0.3c0,0,1.4,6.9,8.4,9.9
	c2.1,0.9,7.2,0.1,11.1-0.6c0.1,0.3,0.1,0.5,0.2,0.8c-3.6,1.7-8.2,4.2-9.4,6.2c-3.8,6.5-1,12.9-1,12.9l2.3-1.3l-0.5,2.6
	c0,0,7,0.8,12-4.9c1.4-1.6,2.5-7.2,3.2-11.2c0.3,0,0.6,0,0.9-0.1c0.4,4.1,1.1,9.7,2.5,11.3c5,5.7,12,4.9,12,4.9l-0.5-2.6l2.3,1.3
	c0,0,2.9-6.4-1-12.9c-1.3-2.3-6.7-4.6-10.5-6.1c0.1-0.2,0.1-0.3,0.2-0.5c4.2,0.7,10.2,1.3,12.8,0.2c6.9-3,8.4-9.9,8.4-9.9
	L117.4,290.8z"/>
<path fill="#F5B9D5" d="M111.7,292.2l1.5-1.4c0,0-3.9-3.6-9.6-2.3c-1.8,0.4-5.2,4-7.4,6.3c-0.1-0.1-0.2-0.2-0.3-0.3
	c1.5-2.7,3.7-7,3.6-8.8c-0.6-5.7-5.2-8.4-5.2-8.4l-0.9,1.8l-0.9-1.8c0,0-4.6,2.6-5.2,8.4c-0.2,1.7,1.7,5.5,3.2,8.2
	c-0.2,0.1-0.4,0.2-0.6,0.3c-2.2-2.3-5.1-5.4-6.8-5.7c-5.6-1.2-9.6,2.3-9.6,2.3l1.5,1.4l-2,0.3c0,0,1.1,5.2,6.4,7.5
	c1.6,0.7,5.5,0.1,8.4-0.4c0,0.2,0.1,0.4,0.2,0.6c-2.7,1.3-6.3,3.2-7.2,4.7c-2.9,5-0.7,9.8-0.7,9.8l1.8-1l-0.4,2c0,0,5.3,0.6,9.1-3.7
	c1.1-1.2,1.9-5.5,2.4-8.6c0.2,0,0.5,0,0.7-0.1c0.3,3.1,0.8,7.4,1.9,8.6c3.8,4.3,9.1,3.7,9.1,3.7l-0.4-2l1.8,1c0,0,2.2-4.9-0.7-9.8
	c-1-1.7-5.1-3.5-8-4.7c0-0.1,0.1-0.3,0.1-0.4c3.2,0.5,7.8,1,9.7,0.1c5.3-2.3,6.4-7.5,6.4-7.5L111.7,292.2z"/>
<path fill="#EC008C" d="M108.5,297.1c0-0.6-7.2-1.1-11.7-1.3c2.1-2.7,4.9-6.4,4.6-6.7c-0.3-0.3-3.8,2.7-6.4,5
	c-0.5-4.5-1.5-11.6-2.1-11.6c-0.6,0-1.1,7.2-1.3,11.7c-2.7-2.1-6.4-4.9-6.7-4.6c-0.3,0.3,2.6,3.6,4.8,6.2
	c-4.5,0.2-11.4,0.7-11.4,1.3c0,0.6,7.1,1.5,11.6,2.1c-2.3,2.6-5.3,6.1-5,6.4c0.3,0.3,4-2.5,6.7-4.6c0.2,4.5,0.7,11.7,1.3,11.7
	c0.6,0,1.5-7.1,2.1-11.6c2.6,2.3,6.1,5.3,6.4,5c0.3-0.3-2.6-4.2-4.8-6.9C101.1,298.7,108.5,297.7,108.5,297.1z"/>
<path fill="#39B54A" d="M121.2,308.9c-1.2-0.1-2.3-0.1-2.4-1.7c0-0.6-0.9-1.1-1.3-1.7c-0.2-0.3-0.6-0.8-0.6-1.1c0.2-0.5,0.6-1,1-1.4
	c0.2-0.2,0.4-0.4,0.6-0.4c1.5-0.2,1.8-1.9,3.1-2.4c0.5-0.2,0.8-1.2,1.2-1.1c1.2,0.1,1.6-1.3,2.9-1.2c0.4,0,0.9,0,1.3-0.1
	c0.4-0.1,0.7-0.4,1.1-0.5c1.2-0.2,2.5-0.3,3.8,0.3c0.3,0.2,0.7,0.4,1,0.3c2.2-0.5,3.9,0.5,5.6,1.9c0.3,0.2,0.7,0.4,1,0.4
	c1.3,0,2,0.7,2.7,1.7c0.9,1.5,2.7,1.6,3.9,0.4c0.5-0.5,2.1-1.7,2.6-1.7c0.3,0,1.1,0.8,1.2,1.1c0.1,0.2-1.7,1.5-1.9,1.7
	c-0.3,0.3-0.7,0.7-1.1,0.8c-1.9,0.5-2.8,1.9-3.8,3.4c-1.2,1.8-2.7,3.3-4.2,4.9c-0.2,0.2-0.8,0.2-1.2,0.2c-0.5,0.1-1.1,0-1.6,0.2
	c-0.7,0.3-1.3,0.7-1.9,1.1c-0.5,0.3-0.9,0.5-1.3-0.1c-0.2-0.2-0.7-0.2-1.1-0.1c-0.5,0.1-1,0.4-1.5,0.5c-0.9,0.2-1.9,0.5-2.2-1
	c0-0.2-0.6-0.4-0.9-0.4c-1.1-0.1-2.2,0.1-2.6-1.3c0-0.2-0.5-0.3-0.8-0.4C122.4,310.9,121.3,310.6,121.2,308.9z"/>
<path fill="#F39DC3" d="M173.4,290.8l1.9-1.8c0,0-5.2-4.7-12.6-3.1c-2.3,0.5-6.9,5.2-9.7,8.2c-0.1-0.1-0.3-0.3-0.5-0.4
	c1.9-3.6,4.9-9.2,4.7-11.5c-0.7-7.5-6.8-11-6.8-11l-1.1,2.4l-1.1-2.4c0,0-6.1,3.5-6.8,11c-0.2,2.2,2.2,7.2,4.2,10.8
	c-0.3,0.1-0.5,0.3-0.8,0.4c-2.8-3.1-6.7-7-8.9-7.5c-7.4-1.6-12.6,3.1-12.6,3.1l1.9,1.8l-2.6,0.3c0,0,1.4,6.9,8.4,9.9
	c2.1,0.9,7.2,0.1,11.1-0.6c0.1,0.3,0.1,0.5,0.2,0.8c-3.6,1.7-8.2,4.2-9.4,6.2c-3.8,6.5-1,12.9-1,12.9l2.3-1.3l-0.5,2.6
	c0,0,7,0.8,12-4.9c1.4-1.6,2.5-7.2,3.2-11.2c0.3,0,0.6,0,0.9-0.1c0.4,4.1,1.1,9.7,2.5,11.3c5,5.7,12,4.9,12,4.9l-0.5-2.6l2.3,1.3
	c0,0,2.9-6.4-1-12.9c-1.3-2.3-6.7-4.6-10.5-6.1c0.1-0.2,0.1-0.3,0.2-0.5c4.2,0.7,10.2,1.3,12.8,0.2c6.9-3,8.4-9.9,8.4-9.9
	L173.4,290.8z"/>
<path fill="#F5B9D5" d="M167.6,292.2l1.5-1.4c0,0-3.9-3.6-9.6-2.3c-1.8,0.4-5.2,4-7.4,6.3c-0.1-0.1-0.2-0.2-0.3-0.3
	c1.5-2.7,3.7-7,3.6-8.8c-0.6-5.7-5.2-8.4-5.2-8.4l-0.9,1.8l-0.9-1.8c0,0-4.6,2.6-5.2,8.4c-0.2,1.7,1.7,5.5,3.2,8.2
	c-0.2,0.1-0.4,0.2-0.6,0.3c-2.2-2.3-5.1-5.4-6.8-5.7c-5.6-1.2-9.6,2.3-9.6,2.3l1.5,1.4l-2,0.3c0,0,1.1,5.2,6.4,7.5
	c1.6,0.7,5.5,0.1,8.4-0.4c0,0.2,0.1,0.4,0.2,0.6c-2.7,1.3-6.3,3.2-7.2,4.7c-2.9,5-0.7,9.8-0.7,9.8l1.8-1l-0.4,2c0,0,5.3,0.6,9.1-3.7
	c1.1-1.2,1.9-5.5,2.4-8.6c0.2,0,0.5,0,0.7-0.1c0.3,3.1,0.8,7.4,1.9,8.6c3.8,4.3,9.1,3.7,9.1,3.7l-0.4-2l1.8,1c0,0,2.2-4.9-0.7-9.8
	c-1-1.7-5.1-3.5-8-4.7c0-0.1,0.1-0.3,0.1-0.4c3.2,0.5,7.8,1,9.7,0.1c5.3-2.3,6.4-7.5,6.4-7.5L167.6,292.2z"/>
<path fill="#EC008C" d="M164.4,297.1c0-0.6-7.2-1.1-11.7-1.3c2.1-2.7,4.9-6.4,4.6-6.7c-0.3-0.3-3.8,2.7-6.4,5
	c-0.5-4.5-1.5-11.6-2.1-11.6c-0.6,0-1.1,7.2-1.3,11.7c-2.7-2.1-6.4-4.9-6.7-4.6c-0.3,0.3,2.6,3.6,4.8,6.2
	c-4.5,0.2-11.4,0.7-11.4,1.3c0,0.6,7.1,1.5,11.6,2.1c-2.3,2.6-5.3,6.1-5,6.4c0.3,0.3,4-2.5,6.7-4.6c0.2,4.5,0.7,11.7,1.3,11.7
	c0.6,0,1.5-7.1,2.1-11.6c2.6,2.3,6.1,5.3,6.4,5c0.3-0.3-2.6-4.2-4.8-6.9C157,298.7,164.4,297.7,164.4,297.1z"/>
<path fill="#39B54A" d="M177.2,308.9c-1.2-0.1-2.3-0.1-2.4-1.7c0-0.6-0.9-1.1-1.3-1.7c-0.2-0.3-0.6-0.8-0.6-1.1c0.2-0.5,0.6-1,1-1.4
	c0.2-0.2,0.4-0.4,0.6-0.4c1.5-0.2,1.8-1.9,3.1-2.4c0.5-0.2,0.8-1.2,1.2-1.1c1.2,0.1,1.6-1.3,2.9-1.2c0.4,0,0.9,0,1.3-0.1
	c0.4-0.1,0.7-0.4,1.1-0.5c1.2-0.2,2.5-0.3,3.8,0.3c0.3,0.2,0.7,0.4,1,0.3c2.2-0.5,3.9,0.5,5.6,1.9c0.3,0.2,0.7,0.4,1,0.4
	c1.3,0,2,0.7,2.7,1.7c0.9,1.5,2.7,1.6,3.9,0.4c0.5-0.5,2.1-1.7,2.6-1.7c0.3,0,1.1,0.8,1.2,1.1c0.1,0.2-1.7,1.5-1.9,1.7
	c-0.3,0.3-0.7,0.7-1.1,0.8c-1.9,0.5-2.8,1.9-3.8,3.4c-1.2,1.8-2.7,3.3-4.2,4.9c-0.2,0.2-0.8,0.2-1.2,0.2c-0.5,0.1-1.1,0-1.6,0.2
	c-0.7,0.3-1.3,0.7-1.9,1.1c-0.5,0.3-0.9,0.5-1.3-0.1c-0.2-0.2-0.7-0.2-1.1-0.1c-0.5,0.1-1,0.4-1.5,0.5c-0.9,0.2-1.9,0.5-2.2-1
	c0-0.2-0.6-0.4-0.9-0.4c-1.1-0.1-2.2,0.1-2.6-1.3c0-0.2-0.5-0.3-0.8-0.4C178.4,310.9,177.3,310.6,177.2,308.9z"/>
<path fill="#F39DC3" d="M229.4,290.8l1.9-1.8c0,0-5.2-4.7-12.6-3.1c-2.3,0.5-6.9,5.2-9.7,8.2c-0.1-0.1-0.3-0.3-0.5-0.4
	c1.9-3.6,4.9-9.2,4.7-11.5c-0.7-7.5-6.8-11-6.8-11l-1.1,2.4l-1.1-2.4c0,0-6.1,3.5-6.8,11c-0.2,2.2,2.2,7.2,4.2,10.8
	c-0.3,0.1-0.5,0.3-0.8,0.4c-2.8-3.1-6.7-7-8.9-7.5c-7.4-1.6-12.6,3.1-12.6,3.1l1.9,1.8l-2.6,0.3c0,0,1.4,6.9,8.4,9.9
	c2.1,0.9,7.2,0.1,11.1-0.6c0.1,0.3,0.1,0.5,0.2,0.8c-3.6,1.7-8.2,4.2-9.4,6.2c-3.8,6.5-1,12.9-1,12.9l2.3-1.3l-0.5,2.6
	c0,0,7,0.8,12-4.9c1.4-1.6,2.5-7.2,3.2-11.2c0.3,0,0.6,0,0.9-0.1c0.4,4.1,1.1,9.7,2.5,11.3c5,5.7,12,4.9,12,4.9l-0.5-2.6l2.3,1.3
	c0,0,2.9-6.4-1-12.9c-1.3-2.3-6.7-4.6-10.5-6.1c0.1-0.2,0.1-0.3,0.2-0.5c4.2,0.7,10.2,1.3,12.8,0.2c6.9-3,8.4-9.9,8.4-9.9
	L229.4,290.8z"/>
<path fill="#F5B9D5" d="M223.6,292.2l1.5-1.4c0,0-3.9-3.6-9.6-2.3c-1.8,0.4-5.2,4-7.4,6.3c-0.1-0.1-0.2-0.2-0.3-0.3
	c1.5-2.7,3.7-7,3.6-8.8c-0.6-5.7-5.2-8.4-5.2-8.4l-0.9,1.8l-0.9-1.8c0,0-4.6,2.6-5.2,8.4c-0.2,1.7,1.7,5.5,3.2,8.2
	c-0.2,0.1-0.4,0.2-0.6,0.3c-2.2-2.3-5.1-5.4-6.8-5.7c-5.6-1.2-9.6,2.3-9.6,2.3l1.5,1.4l-2,0.3c0,0,1.1,5.2,6.4,7.5
	c1.6,0.7,5.5,0.1,8.4-0.4c0,0.2,0.1,0.4,0.2,0.6c-2.7,1.3-6.3,3.2-7.2,4.7c-2.9,5-0.7,9.8-0.7,9.8l1.8-1l-0.4,2c0,0,5.3,0.6,9.1-3.7
	c1.1-1.2,1.9-5.5,2.4-8.6c0.2,0,0.5,0,0.7-0.1c0.3,3.1,0.8,7.4,1.9,8.6c3.8,4.3,9.1,3.7,9.1,3.7l-0.4-2l1.8,1c0,0,2.2-4.9-0.7-9.8
	c-1-1.7-5.1-3.5-8-4.7c0-0.1,0.1-0.3,0.1-0.4c3.2,0.5,7.8,1,9.7,0.1c5.3-2.3,6.4-7.5,6.4-7.5L223.6,292.2z"/>
<path fill="#EC008C" d="M220.4,297.1c0-0.6-7.2-1.1-11.7-1.3c2.1-2.7,4.9-6.4,4.6-6.7c-0.3-0.3-3.8,2.7-6.4,5
	c-0.5-4.5-1.5-11.6-2.1-11.6c-0.6,0-1.1,7.2-1.3,11.7c-2.7-2.1-6.4-4.9-6.7-4.6c-0.3,0.3,2.6,3.6,4.8,6.2
	c-4.5,0.2-11.4,0.7-11.4,1.3c0,0.6,7.1,1.5,11.6,2.1c-2.3,2.6-5.3,6.1-5,6.4c0.3,0.3,4-2.5,6.7-4.6c0.2,4.5,0.7,11.7,1.3,11.7
	c0.6,0,1.5-7.1,2.1-11.6c2.6,2.3,6.1,5.3,6.4,5c0.3-0.3-2.6-4.2-4.8-6.9C213,298.7,220.4,297.7,220.4,297.1z"/>
<path fill="#39B54A" d="M233.6,308.9c-1.2-0.1-2.3-0.1-2.4-1.7c0-0.6-0.9-1.1-1.3-1.7c-0.2-0.3-0.6-0.8-0.6-1.1c0.2-0.5,0.6-1,1-1.4
	c0.2-0.2,0.4-0.4,0.6-0.4c1.5-0.2,1.8-1.9,3.1-2.4c0.5-0.2,0.8-1.2,1.2-1.1c1.2,0.1,1.6-1.3,2.9-1.2c0.4,0,0.9,0,1.3-0.1
	c0.4-0.1,0.7-0.4,1.1-0.5c1.2-0.2,2.5-0.3,3.8,0.3c0.3,0.2,0.7,0.4,1,0.3c2.2-0.5,3.9,0.5,5.6,1.9c0.3,0.2,0.7,0.4,1,0.4
	c1.3,0,2,0.7,2.7,1.7c0.9,1.5,2.7,1.6,3.9,0.4c0.5-0.5,2.1-1.7,2.6-1.7c0.3,0,1.1,0.8,1.2,1.1c0.1,0.2-1.7,1.5-1.9,1.7
	c-0.3,0.3-0.7,0.7-1.1,0.8c-1.9,0.5-2.8,1.9-3.8,3.4c-1.2,1.8-2.7,3.3-4.2,4.9c-0.2,0.2-0.8,0.2-1.2,0.2c-0.5,0.1-1.1,0-1.6,0.2
	c-0.7,0.3-1.3,0.7-1.9,1.1c-0.5,0.3-0.9,0.5-1.3-0.1c-0.2-0.2-0.7-0.2-1.1-0.1c-0.5,0.1-1,0.4-1.5,0.5c-0.9,0.2-1.9,0.5-2.2-1
	c0-0.2-0.6-0.4-0.9-0.4c-1.1-0.1-2.2,0.1-2.6-1.3c0-0.2-0.5-0.3-0.8-0.4C234.8,310.9,233.6,310.6,233.6,308.9z"/>
<path fill="#F39DC3" d="M285.7,290.8l1.9-1.8c0,0-5.2-4.7-12.6-3.1c-2.3,0.5-6.9,5.2-9.7,8.2c-0.1-0.1-0.3-0.3-0.5-0.4
	c1.9-3.6,4.9-9.2,4.7-11.5c-0.7-7.5-6.8-11-6.8-11l-1.1,2.4l-1.1-2.4c0,0-6.1,3.5-6.8,11c-0.2,2.2,2.2,7.2,4.2,10.8
	c-0.3,0.1-0.5,0.3-0.8,0.4c-2.8-3.1-6.7-7-8.9-7.5c-7.4-1.6-12.6,3.1-12.6,3.1l1.9,1.8l-2.6,0.3c0,0,1.4,6.9,8.4,9.9
	c2.1,0.9,7.2,0.1,11.1-0.6c0.1,0.3,0.1,0.5,0.2,0.8c-3.6,1.7-8.2,4.2-9.4,6.2c-3.8,6.5-1,12.9-1,12.9l2.3-1.3l-0.5,2.6
	c0,0,7,0.8,12-4.9c1.4-1.6,2.5-7.2,3.2-11.2c0.3,0,0.6,0,0.9-0.1c0.4,4.1,1.1,9.7,2.5,11.3c5,5.7,12,4.9,12,4.9l-0.5-2.6l2.3,1.3
	c0,0,2.9-6.4-1-12.9c-1.3-2.3-6.7-4.6-10.5-6.1c0.1-0.2,0.1-0.3,0.2-0.5c4.2,0.7,10.2,1.3,12.8,0.2c6.9-3,8.4-9.9,8.4-9.9
	L285.7,290.8z"/>
<path fill="#F5B9D5" d="M280,292.2l1.5-1.4c0,0-3.9-3.6-9.6-2.3c-1.8,0.4-5.2,4-7.4,6.3c-0.1-0.1-0.2-0.2-0.3-0.3
	c1.5-2.7,3.7-7,3.6-8.8c-0.6-5.7-5.2-8.4-5.2-8.4l-0.9,1.8l-0.9-1.8c0,0-4.6,2.6-5.2,8.4c-0.2,1.7,1.7,5.5,3.2,8.2
	c-0.2,0.1-0.4,0.2-0.6,0.3c-2.2-2.3-5.1-5.4-6.8-5.7c-5.6-1.2-9.6,2.3-9.6,2.3l1.5,1.4l-2,0.3c0,0,1.1,5.2,6.4,7.5
	c1.6,0.7,5.5,0.1,8.4-0.4c0,0.2,0.1,0.4,0.2,0.6c-2.7,1.3-6.3,3.2-7.2,4.7c-2.9,5-0.7,9.8-0.7,9.8l1.8-1l-0.4,2c0,0,5.3,0.6,9.1-3.7
	c1.1-1.2,1.9-5.5,2.4-8.6c0.2,0,0.5,0,0.7-0.1c0.3,3.1,0.8,7.4,1.9,8.6c3.8,4.3,9.1,3.7,9.1,3.7l-0.4-2l1.8,1c0,0,2.2-4.9-0.7-9.8
	c-1-1.7-5.1-3.5-8-4.7c0-0.1,0.1-0.3,0.1-0.4c3.2,0.5,7.8,1,9.7,0.1c5.3-2.3,6.4-7.5,6.4-7.5L280,292.2z"/>
<path fill="#EC008C" d="M276.7,297.1c0-0.6-7.2-1.1-11.7-1.3c2.1-2.7,4.9-6.4,4.6-6.7c-0.3-0.3-3.8,2.7-6.4,5
	c-0.5-4.5-1.5-11.6-2.1-11.6c-0.6,0-1.1,7.2-1.3,11.7c-2.7-2.1-6.4-4.9-6.7-4.6c-0.3,0.3,2.6,3.6,4.8,6.2
	c-4.5,0.2-11.4,0.7-11.4,1.3c0,0.6,7.1,1.5,11.6,2.1c-2.3,2.6-5.3,6.1-5,6.4c0.3,0.3,4-2.5,6.7-4.6c0.2,4.5,0.7,11.7,1.3,11.7
	c0.6,0,1.5-7.1,2.1-11.6c2.6,2.3,6.1,5.3,6.4,5c0.3-0.3-2.6-4.2-4.8-6.9C269.3,298.7,276.7,297.7,276.7,297.1z"/>
<path fill="#39B54A" d="M289.6,308.9c-1.2-0.1-2.3-0.1-2.4-1.7c0-0.6-0.9-1.1-1.3-1.7c-0.2-0.3-0.6-0.8-0.6-1.1c0.2-0.5,0.6-1,1-1.4
	c0.2-0.2,0.4-0.4,0.6-0.4c1.5-0.2,1.8-1.9,3.1-2.4c0.5-0.2,0.8-1.2,1.2-1.1c1.2,0.1,1.6-1.3,2.9-1.2c0.4,0,0.9,0,1.3-0.1
	c0.4-0.1,0.7-0.4,1.1-0.5c1.2-0.2,2.5-0.3,3.8,0.3c0.3,0.2,0.7,0.4,1,0.3c2.2-0.5,3.9,0.5,5.6,1.9c0.3,0.2,0.7,0.4,1,0.4
	c1.3,0,2,0.7,2.7,1.7c0.9,1.5,2.7,1.6,3.9,0.4c0.5-0.5,2.1-1.7,2.6-1.7c0.3,0,1.1,0.8,1.2,1.1c0.1,0.2-1.7,1.5-1.9,1.7
	c-0.3,0.3-0.7,0.7-1.1,0.8c-1.9,0.5-2.8,1.9-3.8,3.4c-1.2,1.8-2.7,3.3-4.2,4.9c-0.2,0.2-0.8,0.2-1.2,0.2c-0.5,0.1-1.1,0-1.6,0.2
	c-0.7,0.3-1.3,0.7-1.9,1.1c-0.5,0.3-0.9,0.5-1.3-0.1c-0.2-0.2-0.7-0.2-1.1-0.1c-0.5,0.1-1,0.4-1.5,0.5c-0.9,0.2-1.9,0.5-2.2-1
	c0-0.2-0.6-0.4-0.9-0.4c-1.1-0.1-2.2,0.1-2.6-1.3c0-0.2-0.5-0.3-0.8-0.4C290.8,310.9,289.6,310.6,289.6,308.9z"/>
<path fill="#F39DC3" d="M341.7,290.8l1.9-1.8c0,0-5.2-4.7-12.6-3.1c-2.3,0.5-6.9,5.2-9.7,8.2c-0.1-0.1-0.3-0.3-0.5-0.4
	c1.9-3.6,4.9-9.2,4.7-11.5c-0.7-7.5-6.8-11-6.8-11l-1.1,2.4l-1.1-2.4c0,0-6.1,3.5-6.8,11c-0.2,2.2,2.2,7.2,4.2,10.8
	c-0.3,0.1-0.5,0.3-0.8,0.4c-2.8-3.1-6.7-7-8.9-7.5c-7.4-1.6-12.6,3.1-12.6,3.1l1.9,1.8l-2.6,0.3c0,0,1.4,6.9,8.4,9.9
	c2.1,0.9,7.2,0.1,11.1-0.6c0.1,0.3,0.1,0.5,0.2,0.8c-3.6,1.7-8.2,4.2-9.4,6.2c-3.8,6.5-1,12.9-1,12.9l2.3-1.3l-0.5,2.6
	c0,0,7,0.8,12-4.9c1.4-1.6,2.5-7.2,3.2-11.2c0.3,0,0.6,0,0.9-0.1c0.4,4.1,1.1,9.7,2.5,11.3c5,5.7,12,4.9,12,4.9l-0.5-2.6l2.3,1.3
	c0,0,2.9-6.4-1-12.9c-1.3-2.3-6.7-4.6-10.5-6.1c0.1-0.2,0.1-0.3,0.2-0.5c4.2,0.7,10.2,1.3,12.8,0.2c6.9-3,8.4-9.9,8.4-9.9
	L341.7,290.8z"/>
<path fill="#F5B9D5" d="M336,292.2l1.5-1.4c0,0-3.9-3.6-9.6-2.3c-1.8,0.4-5.2,4-7.4,6.3c-0.1-0.1-0.2-0.2-0.3-0.3
	c1.5-2.7,3.7-7,3.6-8.8c-0.6-5.7-5.2-8.4-5.2-8.4l-0.9,1.8l-0.9-1.8c0,0-4.6,2.6-5.2,8.4c-0.2,1.7,1.7,5.5,3.2,8.2
	c-0.2,0.1-0.4,0.2-0.6,0.3c-2.2-2.3-5.1-5.4-6.8-5.7c-5.6-1.2-9.6,2.3-9.6,2.3l1.5,1.4l-2,0.3c0,0,1.1,5.2,6.4,7.5
	c1.6,0.7,5.5,0.1,8.4-0.4c0,0.2,0.1,0.4,0.2,0.6c-2.7,1.3-6.3,3.2-7.2,4.7c-2.9,5-0.7,9.8-0.7,9.8l1.8-1l-0.4,2c0,0,5.3,0.6,9.1-3.7
	c1.1-1.2,1.9-5.5,2.4-8.6c0.2,0,0.5,0,0.7-0.1c0.3,3.1,0.8,7.4,1.9,8.6c3.8,4.3,9.1,3.7,9.1,3.7l-0.4-2l1.8,1c0,0,2.2-4.9-0.7-9.8
	c-1-1.7-5.1-3.5-8-4.7c0-0.1,0.1-0.3,0.1-0.4c3.2,0.5,7.8,1,9.7,0.1c5.3-2.3,6.4-7.5,6.4-7.5L336,292.2z"/>
<path fill="#EC008C" d="M332.7,297.1c0-0.6-7.2-1.1-11.7-1.3c2.1-2.7,4.9-6.4,4.6-6.7c-0.3-0.3-3.8,2.7-6.4,5
	c-0.5-4.5-1.5-11.6-2.1-11.6c-0.6,0-1.1,7.2-1.3,11.7c-2.7-2.1-6.4-4.9-6.7-4.6c-0.3,0.3,2.6,3.6,4.8,6.2
	c-4.5,0.2-11.4,0.7-11.4,1.3c0,0.6,7.1,1.5,11.6,2.1c-2.3,2.6-5.3,6.1-5,6.4c0.3,0.3,4-2.5,6.7-4.6c0.2,4.5,0.7,11.7,1.3,11.7
	c0.6,0,1.5-7.1,2.1-11.6c2.6,2.3,6.1,5.3,6.4,5c0.3-0.3-2.6-4.2-4.8-6.9C325.3,298.7,332.7,297.7,332.7,297.1z"/>
<path fill="#39B54A" d="M345.5,308.9c-1.2-0.1-2.3-0.1-2.4-1.7c0-0.6-0.9-1.1-1.3-1.7c-0.2-0.3-0.6-0.8-0.6-1.1c0.2-0.5,0.6-1,1-1.4
	c0.2-0.2,0.4-0.4,0.6-0.4c1.5-0.2,1.8-1.9,3.1-2.4c0.5-0.2,0.8-1.2,1.2-1.1c1.2,0.1,1.6-1.3,2.9-1.2c0.4,0,0.9,0,1.3-0.1
	c0.4-0.1,0.7-0.4,1.1-0.5c1.2-0.2,2.5-0.3,3.8,0.3c0.3,0.2,0.7,0.4,1,0.3c2.2-0.5,3.9,0.5,5.6,1.9c0.3,0.2,0.7,0.4,1,0.4
	c1.3,0,2,0.7,2.7,1.7c0.9,1.5,2.7,1.6,3.9,0.4c0.5-0.5,2.1-1.7,2.6-1.7c0.3,0,1.1,0.8,1.2,1.1c0.1,0.2-1.7,1.5-1.9,1.7
	c-0.3,0.3-0.7,0.7-1.1,0.8c-1.9,0.5-2.8,1.9-3.8,3.4c-1.2,1.8-2.7,3.3-4.2,4.9c-0.2,0.2-0.8,0.2-1.2,0.2c-0.5,0.1-1.1,0-1.6,0.2
	c-0.7,0.3-1.3,0.7-1.9,1.1c-0.5,0.3-0.9,0.5-1.3-0.1c-0.2-0.2-0.7-0.2-1.1-0.1c-0.5,0.1-1,0.4-1.5,0.5c-0.9,0.2-1.9,0.5-2.2-1
	c0-0.2-0.6-0.4-0.9-0.4c-1.1-0.1-2.2,0.1-2.6-1.3c0-0.2-0.5-0.3-0.8-0.4C346.7,310.9,345.5,310.6,345.5,308.9z"/>
<path fill="#F39DC3" d="M397.6,290.8l1.9-1.8c0,0-5.2-4.7-12.6-3.1c-2.3,0.5-6.9,5.2-9.7,8.2c-0.1-0.1-0.3-0.3-0.5-0.4
	c1.9-3.6,4.9-9.2,4.7-11.5c-0.7-7.5-6.8-11-6.8-11l-1.1,2.4l-1.1-2.4c0,0-6.1,3.5-6.8,11c-0.2,2.2,2.2,7.2,4.2,10.8
	c-0.3,0.1-0.5,0.3-0.8,0.4c-2.8-3.1-6.7-7-8.9-7.5c-7.4-1.6-12.6,3.1-12.6,3.1l1.9,1.8l-2.6,0.3c0,0,1.4,6.9,8.4,9.9
	c2.1,0.9,7.2,0.1,11.1-0.6c0.1,0.3,0.1,0.5,0.2,0.8c-3.6,1.7-8.2,4.2-9.4,6.2c-3.8,6.5-1,12.9-1,12.9l2.3-1.3l-0.5,2.6
	c0,0,7,0.8,12-4.9c1.4-1.6,2.5-7.2,3.2-11.2c0.3,0,0.6,0,0.9-0.1c0.4,4.1,1.1,9.7,2.5,11.3c5,5.7,12,4.9,12,4.9l-0.5-2.6l2.3,1.3
	c0,0,2.9-6.4-1-12.9c-1.3-2.3-6.7-4.6-10.5-6.1c0.1-0.2,0.1-0.3,0.2-0.5c4.2,0.7,10.2,1.3,12.8,0.2c6.9-3,8.4-9.9,8.4-9.9
	L397.6,290.8z"/>
<path fill="#F5B9D5" d="M391.9,292.2l1.5-1.4c0,0-3.9-3.6-9.6-2.3c-1.8,0.4-5.2,4-7.4,6.3c-0.1-0.1-0.2-0.2-0.3-0.3
	c1.5-2.7,3.7-7,3.6-8.8c-0.6-5.7-5.2-8.4-5.2-8.4l-0.9,1.8l-0.9-1.8c0,0-4.6,2.6-5.2,8.4c-0.2,1.7,1.7,5.5,3.2,8.2
	c-0.2,0.1-0.4,0.2-0.6,0.3c-2.2-2.3-5.1-5.4-6.8-5.7c-5.6-1.2-9.6,2.3-9.6,2.3l1.5,1.4l-2,0.3c0,0,1.1,5.2,6.4,7.5
	c1.6,0.7,5.5,0.1,8.4-0.4c0,0.2,0.1,0.4,0.2,0.6c-2.7,1.3-6.3,3.2-7.2,4.7c-2.9,5-0.7,9.8-0.7,9.8l1.8-1l-0.4,2c0,0,5.3,0.6,9.1-3.7
	c1.1-1.2,1.9-5.5,2.4-8.6c0.2,0,0.5,0,0.7-0.1c0.3,3.1,0.8,7.4,1.9,8.6c3.8,4.3,9.1,3.7,9.1,3.7l-0.4-2l1.8,1c0,0,2.2-4.9-0.7-9.8
	c-1-1.7-5.1-3.5-8-4.7c0-0.1,0.1-0.3,0.1-0.4c3.2,0.5,7.8,1,9.7,0.1c5.3-2.3,6.4-7.5,6.4-7.5L391.9,292.2z"/>
<path fill="#EC008C" d="M388.7,297.1c0-0.6-7.2-1.1-11.7-1.3c2.1-2.7,4.9-6.4,4.6-6.7c-0.3-0.3-3.8,2.7-6.4,5
	c-0.5-4.5-1.5-11.6-2.1-11.6c-0.6,0-1.1,7.2-1.3,11.7c-2.7-2.1-6.4-4.9-6.7-4.6c-0.3,0.3,2.6,3.6,4.8,6.2
	c-4.5,0.2-11.4,0.7-11.4,1.3c0,0.6,7.1,1.5,11.6,2.1c-2.3,2.6-5.3,6.1-5,6.4c0.3,0.3,4-2.5,6.7-4.6c0.2,4.5,0.7,11.7,1.3,11.7
	c0.6,0,1.5-7.1,2.1-11.6c2.6,2.3,6.1,5.3,6.4,5c0.3-0.3-2.6-4.2-4.8-6.9C381.3,298.7,388.7,297.7,388.7,297.1z"/>
<path fill="#39B54A" d="M401.5,308.9c-1.2-0.1-2.3-0.1-2.4-1.7c0-0.6-0.9-1.1-1.3-1.7c-0.2-0.3-0.6-0.8-0.6-1.1c0.2-0.5,0.6-1,1-1.4
	c0.2-0.2,0.4-0.4,0.6-0.4c1.5-0.2,1.8-1.9,3.1-2.4c0.5-0.2,0.8-1.2,1.2-1.1c1.2,0.1,1.6-1.3,2.9-1.2c0.4,0,0.9,0,1.3-0.1
	c0.4-0.1,0.7-0.4,1.1-0.5c1.2-0.2,2.5-0.3,3.8,0.3c0.3,0.2,0.7,0.4,1,0.3c2.2-0.5,3.9,0.5,5.6,1.9c0.3,0.2,0.7,0.4,1,0.4
	c1.3,0,2,0.7,2.7,1.7c0.9,1.5,2.7,1.6,3.9,0.4c0.5-0.5,2.1-1.7,2.6-1.7c0.3,0,1.1,0.8,1.2,1.1c0.1,0.2-1.7,1.5-1.9,1.7
	c-0.3,0.3-0.7,0.7-1.1,0.8c-1.9,0.5-2.8,1.9-3.8,3.4c-1.2,1.8-2.7,3.3-4.2,4.9c-0.2,0.2-0.8,0.2-1.2,0.2c-0.5,0.1-1.1,0-1.6,0.2
	c-0.7,0.3-1.3,0.7-1.9,1.1c-0.5,0.3-0.9,0.5-1.3-0.1c-0.2-0.2-0.7-0.2-1.1-0.1c-0.5,0.1-1,0.4-1.5,0.5c-0.9,0.2-1.9,0.5-2.2-1
	c0-0.2-0.6-0.4-0.9-0.4c-1.1-0.1-2.2,0.1-2.6-1.3c0-0.2-0.5-0.3-0.8-0.4C402.7,310.9,401.5,310.6,401.5,308.9z"/>
<path fill="#F39DC3" d="M453.6,290.8l1.9-1.8c0,0-5.2-4.7-12.6-3.1c-2.3,0.5-6.9,5.2-9.7,8.2c-0.1-0.1-0.3-0.3-0.5-0.4
	c1.9-3.6,4.9-9.2,4.7-11.5c-0.7-7.5-6.8-11-6.8-11l-1.1,2.4l-1.1-2.4c0,0-6.1,3.5-6.8,11c-0.2,2.2,2.2,7.2,4.2,10.8
	c-0.3,0.1-0.5,0.3-0.8,0.4c-2.8-3.1-6.7-7-8.9-7.5c-7.4-1.6-12.6,3.1-12.6,3.1l1.9,1.8l-2.6,0.3c0,0,1.4,6.9,8.4,9.9
	c2.1,0.9,7.2,0.1,11.1-0.6c0.1,0.3,0.1,0.5,0.2,0.8c-3.6,1.7-8.2,4.2-9.4,6.2c-3.8,6.5-1,12.9-1,12.9l2.3-1.3l-0.5,2.6
	c0,0,7,0.8,12-4.9c1.4-1.6,2.5-7.2,3.2-11.2c0.3,0,0.6,0,0.9-0.1c0.4,4.1,1.1,9.7,2.5,11.3c5,5.7,12,4.9,12,4.9l-0.5-2.6l2.3,1.3
	c0,0,2.9-6.4-1-12.9c-1.3-2.3-6.7-4.6-10.5-6.1c0.1-0.2,0.1-0.3,0.2-0.5c4.2,0.7,10.2,1.3,12.8,0.2c6.9-3,8.4-9.9,8.4-9.9
	L453.6,290.8z"/>
<path fill="#F5B9D5" d="M447.9,292.2l1.5-1.4c0,0-3.9-3.6-9.6-2.3c-1.8,0.4-5.2,4-7.4,6.3c-0.1-0.1-0.2-0.2-0.3-0.3
	c1.5-2.7,3.7-7,3.6-8.8c-0.6-5.7-5.2-8.4-5.2-8.4l-0.9,1.8l-0.9-1.8c0,0-4.6,2.6-5.2,8.4c-0.2,1.7,1.7,5.5,3.2,8.2
	c-0.2,0.1-0.4,0.2-0.6,0.3c-2.2-2.3-5.1-5.4-6.8-5.7c-5.6-1.2-9.6,2.3-9.6,2.3l1.5,1.4l-2,0.3c0,0,1.1,5.2,6.4,7.5
	c1.6,0.7,5.5,0.1,8.4-0.4c0,0.2,0.1,0.4,0.2,0.6c-2.7,1.3-6.3,3.2-7.2,4.7c-2.9,5-0.7,9.8-0.7,9.8l1.8-1l-0.4,2c0,0,5.3,0.6,9.1-3.7
	c1.1-1.2,1.9-5.5,2.4-8.6c0.2,0,0.5,0,0.7-0.1c0.3,3.1,0.8,7.4,1.9,8.6c3.8,4.3,9.1,3.7,9.1,3.7l-0.4-2l1.8,1c0,0,2.2-4.9-0.7-9.8
	c-1-1.7-5.1-3.5-8-4.7c0-0.1,0.1-0.3,0.1-0.4c3.2,0.5,7.8,1,9.7,0.1c5.3-2.3,6.4-7.5,6.4-7.5L447.9,292.2z"/>
<path fill="#EC008C" d="M444.7,297.1c0-0.6-7.2-1.1-11.7-1.3c2.1-2.7,4.9-6.4,4.6-6.7c-0.3-0.3-3.8,2.7-6.4,5
	c-0.5-4.5-1.5-11.6-2.1-11.6c-0.6,0-1.1,7.2-1.3,11.7c-2.7-2.1-6.4-4.9-6.7-4.6c-0.3,0.3,2.6,3.6,4.8,6.2
	c-4.5,0.2-11.4,0.7-11.4,1.3c0,0.6,7.1,1.5,11.6,2.1c-2.3,2.6-5.3,6.1-5,6.4c0.3,0.3,4-2.5,6.7-4.6c0.2,4.5,0.7,11.7,1.3,11.7
	c0.6,0,1.5-7.1,2.1-11.6c2.6,2.3,6.1,5.3,6.4,5c0.3-0.3-2.6-4.2-4.8-6.9C437.3,298.7,444.7,297.7,444.7,297.1z"/>
<path fill="#39B54A" d="M458.2,308.9c-1.2-0.1-2.3-0.1-2.4-1.7c0-0.6-0.9-1.1-1.3-1.7c-0.2-0.3-0.6-0.8-0.6-1.1c0.2-0.5,0.6-1,1-1.4
	c0.2-0.2,0.4-0.4,0.6-0.4c1.5-0.2,1.8-1.9,3.1-2.4c0.5-0.2,0.8-1.2,1.2-1.1c1.2,0.1,1.6-1.3,2.9-1.2c0.4,0,0.9,0,1.3-0.1
	c0.4-0.1,0.7-0.4,1.1-0.5c1.2-0.2,2.5-0.3,3.8,0.3c0.3,0.2,0.7,0.4,1,0.3c2.2-0.5,3.9,0.5,5.6,1.9c0.3,0.2,0.7,0.4,1,0.4
	c1.3,0,2,0.7,2.7,1.7c0.9,1.5,2.7,1.6,3.9,0.4c0.5-0.5,2.1-1.7,2.6-1.7c0.3,0,1.1,0.8,1.2,1.1c0.1,0.2-1.7,1.5-1.9,1.7
	c-0.3,0.3-0.7,0.7-1.1,0.8c-1.9,0.5-2.8,1.9-3.8,3.4c-1.2,1.8-2.7,3.3-4.2,4.9c-0.2,0.2-0.8,0.2-1.2,0.2c-0.5,0.1-1.1,0-1.6,0.2
	c-0.7,0.3-1.3,0.7-1.9,1.1c-0.5,0.3-0.9,0.5-1.3-0.1c-0.2-0.2-0.7-0.2-1.1-0.1c-0.5,0.1-1,0.4-1.5,0.5c-0.9,0.2-1.9,0.5-2.2-1
	c0-0.2-0.6-0.4-0.9-0.4c-1.1-0.1-2.2,0.1-2.6-1.3c0-0.2-0.5-0.3-0.8-0.4C459.5,310.9,458.3,310.6,458.2,308.9z"/>
<path fill="#F39DC3" d="M510.4,290.8l1.9-1.8c0,0-5.2-4.7-12.6-3.1c-2.3,0.5-6.9,5.2-9.7,8.2c-0.1-0.1-0.3-0.3-0.5-0.4
	c1.9-3.6,4.9-9.2,4.7-11.5c-0.7-7.5-6.8-11-6.8-11l-1.1,2.4l-1.1-2.4c0,0-6.1,3.5-6.8,11c-0.2,2.2,2.2,7.2,4.2,10.8
	c-0.3,0.1-0.5,0.3-0.8,0.4c-2.8-3.1-6.7-7-8.9-7.5c-7.4-1.6-12.6,3.1-12.6,3.1l1.9,1.8l-2.6,0.3c0,0,1.4,6.9,8.4,9.9
	c2.1,0.9,7.2,0.1,11.1-0.6c0.1,0.3,0.1,0.5,0.2,0.8c-3.6,1.7-8.2,4.2-9.4,6.2c-3.8,6.5-1,12.9-1,12.9l2.3-1.3l-0.5,2.6
	c0,0,7,0.8,12-4.9c1.4-1.6,2.5-7.2,3.2-11.2c0.3,0,0.6,0,0.9-0.1c0.4,4.1,1.1,9.7,2.5,11.3c5,5.7,12,4.9,12,4.9l-0.5-2.6l2.3,1.3
	c0,0,2.9-6.4-1-12.9c-1.3-2.3-6.7-4.6-10.5-6.1c0.1-0.2,0.1-0.3,0.2-0.5c4.2,0.7,10.2,1.3,12.8,0.2c6.9-3,8.4-9.9,8.4-9.9
	L510.4,290.8z"/>
<path fill="#F5B9D5" d="M504.7,292.2l1.5-1.4c0,0-3.9-3.6-9.6-2.3c-1.8,0.4-5.2,4-7.4,6.3c-0.1-0.1-0.2-0.2-0.3-0.3
	c1.5-2.7,3.7-7,3.6-8.8c-0.6-5.7-5.2-8.4-5.2-8.4l-0.9,1.8l-0.9-1.8c0,0-4.6,2.6-5.2,8.4c-0.2,1.7,1.7,5.5,3.2,8.2
	c-0.2,0.1-0.4,0.2-0.6,0.3c-2.2-2.3-5.1-5.4-6.8-5.7c-5.6-1.2-9.6,2.3-9.6,2.3l1.5,1.4l-2,0.3c0,0,1.1,5.2,6.4,7.5
	c1.6,0.7,5.5,0.1,8.4-0.4c0,0.2,0.1,0.4,0.2,0.6c-2.7,1.3-6.3,3.2-7.2,4.7c-2.9,5-0.7,9.8-0.7,9.8l1.8-1l-0.4,2c0,0,5.3,0.6,9.1-3.7
	c1.1-1.2,1.9-5.5,2.4-8.6c0.2,0,0.5,0,0.7-0.1c0.3,3.1,0.8,7.4,1.9,8.6c3.8,4.3,9.1,3.7,9.1,3.7l-0.4-2l1.8,1c0,0,2.2-4.9-0.7-9.8
	c-1-1.7-5.1-3.5-8-4.7c0-0.1,0.1-0.3,0.1-0.4c3.2,0.5,7.8,1,9.7,0.1c5.3-2.3,6.4-7.5,6.4-7.5L504.7,292.2z"/>
<path fill="#EC008C" d="M501.4,297.1c0-0.6-7.2-1.1-11.7-1.3c2.1-2.7,4.9-6.4,4.6-6.7c-0.3-0.3-3.8,2.7-6.4,5
	c-0.5-4.5-1.5-11.6-2.1-11.6c-0.6,0-1.1,7.2-1.3,11.7c-2.7-2.1-6.4-4.9-6.7-4.6c-0.3,0.3,2.6,3.6,4.8,6.2
	c-4.5,0.2-11.4,0.7-11.4,1.3c0,0.6,7.1,1.5,11.6,2.1c-2.3,2.6-5.3,6.1-5,6.4c0.3,0.3,4-2.5,6.7-4.6c0.2,4.5,0.7,11.7,1.3,11.7
	c0.6,0,1.5-7.1,2.1-11.6c2.6,2.3,6.1,5.3,6.4,5c0.3-0.3-2.6-4.2-4.8-6.9C494,298.7,501.4,297.7,501.4,297.1z"/>
</svg>
