  0
SECTION
  2
HEADER
  9
$ACADVER
  1
AC1009
  9
$FILLMODE
 70
 0
  9
$SPLFRAME
 70
 1
  9
$EXTMIN
 10
0
 20
0
 30
0.0
  9
$EXTMAX
 10
41.6667
 20
41.6667
 30
0.0
  0
ENDSEC
  0
SECTION
  2
TABLES
  0
TABLE
  2
LAYER
 70
1
  0
LAYER
  2
0
 70
     0
 62
     7
  6
CONTINUOUS
  0
ENDTAB
  0
ENDSEC
  0
SECTION
  2
ENTITIES
  0
POLYLINE
  8
0
 62
     201
 66
     1
 10
0
 20
0
 30
0.0
 70
     1
 40
0
 41
0
  0
VERTEX
  8
0
 10
8.62831
 20
13.748
 30
0.0
 40
0
 41
0
  0
VERTEX
  8
0
 10
8.68479
 20
13.7197
 30
0.0
 40
0
 41
0
  0
VERTEX
  8
0
 10
8.85042
 20
13.6269
 30
0.0
 40
0
 41
0
  0
VERTEX
  8
0
 10
9.06299
 20
13.4913
 30
0.0
 40
0
 41
0
  0
VERTEX
  8
0
 10
9.26535
 20
13.342
 30
0.0
 40
0
 41
0
  0
VERTEX
  8
0
 10
9.45688
 20
13.1795
 30
0.0
 40
0
 41
0
  0
VERTEX
  8
0
 10
9.63683
 20
13.0047
 30
0.0
 40
0
 41
0
  0
VERTEX
  8
0
 10
9.80464
 20
12.8179
 30
0.0
 40
0
 41
0
  0
VERTEX
  8
0
 10
9.95958
 20
12.6201
 30
0.0
 40
0
 41
0
  0
VERTEX
  8
0
 10
10.101
 20
12.4118
 30
0.0
 40
0
 41
0
  0
VERTEX
  8
0
 10
10.2283
 20
12.1937
 30
0.0
 40
0
 41
0
  0
VERTEX
  8
0
 10
10.3408
 20
11.9664
 30
0.0
 40
0
 41
0
  0
VERTEX
  8
0
 10
10.4377
 20
11.7306
 30
0.0
 40
0
 41
0
  0
VERTEX
  8
0
 10
10.5186
 20
11.487
 30
0.0
 40
0
 41
0
  0
VERTEX
  8
0
 10
10.5826
 20
11.2361
 30
0.0
 40
0
 41
0
  0
VERTEX
  8
0
 10
10.6291
 20
10.9787
 30
0.0
 40
0
 41
0
  0
VERTEX
  8
0
 10
10.6575
 20
10.7155
 30
0.0
 40
0
 41
0
  0
VERTEX
  8
0
 10
10.6672
 20
10.5142
 30
0.0
 40
0
 41
0
  0
VERTEX
  8
0
 10
10.6672
 20
10.447
 30
0.0
 40
0
 41
0
  0
VERTEX
  8
0
 10
10.6672
 20
10.3527
 30
0.0
 40
0
 41
0
  0
VERTEX
  8
0
 10
10.6481
 20
10.0694
 30
0.0
 40
0
 41
0
  0
VERTEX
  8
0
 10
10.5921
 20
9.70281
 30
0.0
 40
0
 41
0
  0
VERTEX
  8
0
 10
10.5011
 20
9.34896
 30
0.0
 40
0
 41
0
  0
VERTEX
  8
0
 10
10.377
 20
9.00965
 30
0.0
 40
0
 41
0
  0
VERTEX
  8
0
 10
10.2215
 20
8.6869
 30
0.0
 40
0
 41
0
  0
VERTEX
  8
0
 10
10.0365
 20
8.38243
 30
0.0
 40
0
 41
0
  0
VERTEX
  8
0
 10
9.82394
 20
8.09814
 30
0.0
 40
0
 41
0
  0
VERTEX
  8
0
 10
9.58561
 20
7.83594
 30
0.0
 40
0
 41
0
  0
VERTEX
  8
0
 10
9.32335
 20
7.5976
 30
0.0
 40
0
 41
0
  0
VERTEX
  8
0
 10
9.03911
 20
7.38504
 30
0.0
 40
0
 41
0
  0
VERTEX
  8
0
 10
8.73465
 20
7.20003
 30
0.0
 40
0
 41
0
  0
VERTEX
  8
0
 10
8.41183
 20
7.04454
 30
0.0
 40
0
 41
0
  0
VERTEX
  8
0
 10
8.0726
 20
6.92036
 30
0.0
 40
0
 41
0
  0
VERTEX
  8
0
 10
7.71869
 20
6.82938
 30
0.0
 40
0
 41
0
  0
VERTEX
  8
0
 10
7.35211
 20
6.77344
 30
0.0
 40
0
 41
0
  0
VERTEX
  8
0
 10
7.0689
 20
6.75435
 30
0.0
 40
0
 41
0
  0
VERTEX
  8
0
 10
6.97456
 20
6.75435
 30
0.0
 40
0
 41
0
  0
VERTEX
  8
0
 10
6.88015
 20
6.75435
 30
0.0
 40
0
 41
0
  0
VERTEX
  8
0
 10
6.597
 20
6.77344
 30
0.0
 40
0
 41
0
  0
VERTEX
  8
0
 10
6.23036
 20
6.82938
 30
0.0
 40
0
 41
0
  0
VERTEX
  8
0
 10
5.87646
 20
6.92036
 30
0.0
 40
0
 41
0
  0
VERTEX
  8
0
 10
5.53722
 20
7.04454
 30
0.0
 40
0
 41
0
  0
VERTEX
  8
0
 10
5.21442
 20
7.20003
 30
0.0
 40
0
 41
0
  0
VERTEX
  8
0
 10
4.91
 20
7.38504
 30
0.0
 40
0
 41
0
  0
VERTEX
  8
0
 10
4.62571
 20
7.5976
 30
0.0
 40
0
 41
0
  0
VERTEX
  8
0
 10
4.3635
 20
7.83594
 30
0.0
 40
0
 41
0
  0
VERTEX
  8
0
 10
4.12517
 20
8.09814
 30
0.0
 40
0
 41
0
  0
VERTEX
  8
0
 10
3.9126
 20
8.38243
 30
0.0
 40
0
 41
0
  0
VERTEX
  8
0
 10
3.7276
 20
8.6869
 30
0.0
 40
0
 41
0
  0
VERTEX
  8
0
 10
3.5721
 20
9.00965
 30
0.0
 40
0
 41
0
  0
VERTEX
  8
0
 10
3.44792
 20
9.34896
 30
0.0
 40
0
 41
0
  0
VERTEX
  8
0
 10
3.35693
 20
9.70281
 30
0.0
 40
0
 41
0
  0
VERTEX
  8
0
 10
3.301
 20
10.0694
 30
0.0
 40
0
 41
0
  0
VERTEX
  8
0
 10
3.28196
 20
10.3527
 30
0.0
 40
0
 41
0
  0
VERTEX
  8
0
 10
3.28196
 20
10.447
 30
0.0
 40
0
 41
0
  0
VERTEX
  8
0
 10
3.28196
 20
10.5142
 30
0.0
 40
0
 41
0
  0
VERTEX
  8
0
 10
3.29156
 20
10.7155
 30
0.0
 40
0
 41
0
  0
VERTEX
  8
0
 10
3.31993
 20
10.9787
 30
0.0
 40
0
 41
0
  0
VERTEX
  8
0
 10
3.36649
 20
11.2361
 30
0.0
 40
0
 41
0
  0
VERTEX
  8
0
 10
3.4305
 20
11.487
 30
0.0
 40
0
 41
0
  0
VERTEX
  8
0
 10
3.51133
 20
11.7306
 30
0.0
 40
0
 41
0
  0
VERTEX
  8
0
 10
3.60829
 20
11.9664
 30
0.0
 40
0
 41
0
  0
VERTEX
  8
0
 10
3.72076
 20
12.1937
 30
0.0
 40
0
 41
0
  0
VERTEX
  8
0
 10
3.84804
 20
12.4118
 30
0.0
 40
0
 41
0
  0
VERTEX
  8
0
 10
3.98947
 20
12.6201
 30
0.0
 40
0
 41
0
  0
VERTEX
  8
0
 10
4.14442
 20
12.8179
 30
0.0
 40
0
 41
0
  0
VERTEX
  8
0
 10
4.31222
 20
13.0047
 30
0.0
 40
0
 41
0
  0
VERTEX
  8
0
 10
4.49224
 20
13.1795
 30
0.0
 40
0
 41
0
  0
VERTEX
  8
0
 10
4.68375
 20
13.342
 30
0.0
 40
0
 41
0
  0
VERTEX
  8
0
 10
4.88612
 20
13.4913
 30
0.0
 40
0
 41
0
  0
VERTEX
  8
0
 10
5.09868
 20
13.6269
 30
0.0
 40
0
 41
0
  0
VERTEX
  8
0
 10
5.26426
 20
13.7197
 30
0.0
 40
0
 41
0
  0
VERTEX
  8
0
 10
5.32081
 20
13.748
 30
0.0
 40
0
 41
0
  0
VERTEX
  8
0
 10
5.1786
 20
13.7135
 30
0.0
 40
0
 41
0
  0
VERTEX
  8
0
 10
4.75786
 20
13.5857
 30
0.0
 40
0
 41
0
  0
VERTEX
  8
0
 10
4.21556
 20
13.3784
 30
0.0
 40
0
 41
0
  0
VERTEX
  8
0
 10
3.69596
 20
13.1284
 30
0.0
 40
0
 41
0
  0
VERTEX
  8
0
 10
3.20133
 20
12.8379
 30
0.0
 40
0
 41
0
  0
VERTEX
  8
0
 10
2.73378
 20
12.509
 30
0.0
 40
0
 41
0
  0
VERTEX
  8
0
 10
2.29551
 20
12.1439
 30
0.0
 40
0
 41
0
  0
VERTEX
  8
0
 10
1.88867
 20
11.7446
 30
0.0
 40
0
 41
0
  0
VERTEX
  8
0
 10
1.51546
 20
11.3135
 30
0.0
 40
0
 41
0
  0
VERTEX
  8
0
 10
1.17801
 20
10.8526
 30
0.0
 40
0
 41
0
  0
VERTEX
  8
0
 10
0.878472
 20
10.3641
 30
0.0
 40
0
 41
0
  0
VERTEX
  8
0
 10
0.619086
 20
9.85021
 30
0.0
 40
0
 41
0
  0
VERTEX
  8
0
 10
0.402018
 20
9.31299
 30
0.0
 40
0
 41
0
  0
VERTEX
  8
0
 10
0.229383
 20
8.75467
 30
0.0
 40
0
 41
0
  0
VERTEX
  8
0
 10
0.103353
 20
8.1774
 30
0.0
 40
0
 41
0
  0
VERTEX
  8
0
 10
0.0262044
 20
7.58333
 30
0.0
 40
0
 41
0
  0
VERTEX
  8
0
 10
0
 20
7.12679
 30
0.0
 40
0
 41
0
  0
VERTEX
  8
0
 10
0
 20
6.97456
 30
0.0
 40
0
 41
0
  0
VERTEX
  8
0
 10
0
 20
6.88488
 30
0.0
 40
0
 41
0
  0
VERTEX
  8
0
 10
0.00906033
 20
6.61567
 30
0.0
 40
0
 41
0
  0
VERTEX
  8
0
 10
0.03597
 20
6.26144
 30
0.0
 40
0
 41
0
  0
VERTEX
  8
0
 10
0.0803494
 20
5.91243
 30
0.0
 40
0
 41
0
  0
VERTEX
  8
0
 10
0.141656
 20
5.56896
 30
0.0
 40
0
 41
0
  0
VERTEX
  8
0
 10
0.219564
 20
5.23156
 30
0.0
 40
0
 41
0
  0
VERTEX
  8
0
 10
0.313531
 20
4.90056
 30
0.0
 40
0
 41
0
  0
VERTEX
  8
0
 10
0.423178
 20
4.5765
 30
0.0
 40
0
 41
0
  0
VERTEX
  8
0
 10
0.548068
 20
4.25976
 30
0.0
 40
0
 41
0
  0
VERTEX
  8
0
 10
0.687717
 20
3.95085
 30
0.0
 40
0
 41
0
  0
VERTEX
  8
0
 10
0.841743
 20
3.65012
 30
0.0
 40
0
 41
0
  0
VERTEX
  8
0
 10
1.00971
 20
3.35801
 30
0.0
 40
0
 41
0
  0
VERTEX
  8
0
 10
1.19113
 20
3.07503
 30
0.0
 40
0
 41
0
  0
VERTEX
  8
0
 10
1.38558
 20
2.8016
 30
0.0
 40
0
 41
0
  0
VERTEX
  8
0
 10
1.59261
 20
2.53814
 30
0.0
 40
0
 41
0
  0
VERTEX
  8
0
 10
1.81185
 20
2.28504
 30
0.0
 40
0
 41
0
  0
VERTEX
  8
0
 10
2.04275
 20
2.04281
 30
0.0
 40
0
 41
0
  0
VERTEX
  8
0
 10
2.285
 20
1.8119
 30
0.0
 40
0
 41
0
  0
VERTEX
  8
0
 10
2.53808
 20
1.59267
 30
0.0
 40
0
 41
0
  0
VERTEX
  8
0
 10
2.80154
 20
1.38563
 30
0.0
 40
0
 41
0
  0
VERTEX
  8
0
 10
3.07497
 20
1.19119
 30
0.0
 40
0
 41
0
  0
VERTEX
  8
0
 10
3.35796
 20
1.00977
 30
0.0
 40
0
 41
0
  0
VERTEX
  8
0
 10
3.65007
 20
0.841797
 30
0.0
 40
0
 41
0
  0
VERTEX
  8
0
 10
3.95079
 20
0.687771
 30
0.0
 40
0
 41
0
  0
VERTEX
  8
0
 10
4.25971
 20
0.548122
 30
0.0
 40
0
 41
0
  0
VERTEX
  8
0
 10
4.57644
 20
0.423232
 30
0.0
 40
0
 41
0
  0
VERTEX
  8
0
 10
4.9005
 20
0.313585
 30
0.0
 40
0
 41
0
  0
VERTEX
  8
0
 10
5.2315
 20
0.219618
 30
0.0
 40
0
 41
0
  0
VERTEX
  8
0
 10
5.5689
 20
0.14171
 30
0.0
 40
0
 41
0
  0
VERTEX
  8
0
 10
5.91238
 20
0.0804036
 30
0.0
 40
0
 41
0
  0
VERTEX
  8
0
 10
6.26139
 20
0.0360243
 30
0.0
 40
0
 41
0
  0
VERTEX
  8
0
 10
6.61561
 20
0.00911458
 30
0.0
 40
0
 41
0
  0
VERTEX
  8
0
 10
6.88482
 20
0
 30
0.0
 40
0
 41
0
  0
VERTEX
  8
0
 10
6.97456
 20
0
 30
0.0
 40
0
 41
0
  0
VERTEX
  8
0
 10
7.06424
 20
0
 30
0.0
 40
0
 41
0
  0
VERTEX
  8
0
 10
7.33344
 20
0.00911458
 30
0.0
 40
0
 41
0
  0
VERTEX
  8
0
 10
7.68767
 20
0.0360243
 30
0.0
 40
0
 41
0
  0
VERTEX
  8
0
 10
8.03668
 20
0.0804036
 30
0.0
 40
0
 41
0
  0
VERTEX
  8
0
 10
8.38015
 20
0.14171
 30
0.0
 40
0
 41
0
  0
VERTEX
  8
0
 10
8.71756
 20
0.219618
 30
0.0
 40
0
 41
0
  0
VERTEX
  8
0
 10
9.04856
 20
0.313585
 30
0.0
 40
0
 41
0
  0
VERTEX
  8
0
 10
9.37261
 20
0.423232
 30
0.0
 40
0
 41
0
  0
VERTEX
  8
0
 10
9.68935
 20
0.548122
 30
0.0
 40
0
 41
0
  0
VERTEX
  8
0
 10
9.99832
 20
0.687771
 30
0.0
 40
0
 41
0
  0
VERTEX
  8
0
 10
10.299
 20
0.841797
 30
0.0
 40
0
 41
0
  0
VERTEX
  8
0
 10
10.5911
 20
1.00977
 30
0.0
 40
0
 41
0
  0
VERTEX
  8
0
 10
10.8741
 20
1.19119
 30
0.0
 40
0
 41
0
  0
VERTEX
  8
0
 10
11.1475
 20
1.38563
 30
0.0
 40
0
 41
0
  0
VERTEX
  8
0
 10
11.411
 20
1.59267
 30
0.0
 40
0
 41
0
  0
VERTEX
  8
0
 10
11.6641
 20
1.8119
 30
0.0
 40
0
 41
0
  0
VERTEX
  8
0
 10
11.9063
 20
2.04281
 30
0.0
 40
0
 41
0
  0
VERTEX
  8
0
 10
12.1373
 20
2.28504
 30
0.0
 40
0
 41
0
  0
VERTEX
  8
0
 10
12.3564
 20
2.53814
 30
0.0
 40
0
 41
0
  0
VERTEX
  8
0
 10
12.5635
 20
2.8016
 30
0.0
 40
0
 41
0
  0
VERTEX
  8
0
 10
12.758
 20
3.07503
 30
0.0
 40
0
 41
0
  0
VERTEX
  8
0
 10
12.9394
 20
3.35801
 30
0.0
 40
0
 41
0
  0
VERTEX
  8
0
 10
13.1073
 20
3.65012
 30
0.0
 40
0
 41
0
  0
VERTEX
  8
0
 10
13.2613
 20
3.95085
 30
0.0
 40
0
 41
0
  0
VERTEX
  8
0
 10
13.401
 20
4.25976
 30
0.0
 40
0
 41
0
  0
VERTEX
  8
0
 10
13.5259
 20
4.5765
 30
0.0
 40
0
 41
0
  0
VERTEX
  8
0
 10
13.6356
 20
4.90056
 30
0.0
 40
0
 41
0
  0
VERTEX
  8
0
 10
13.7295
 20
5.23156
 30
0.0
 40
0
 41
0
  0
VERTEX
  8
0
 10
13.8075
 20
5.56896
 30
0.0
 40
0
 41
0
  0
VERTEX
  8
0
 10
13.8688
 20
5.91243
 30
0.0
 40
0
 41
0
  0
VERTEX
  8
0
 10
13.9132
 20
6.26144
 30
0.0
 40
0
 41
0
  0
VERTEX
  8
0
 10
13.94
 20
6.61567
 30
0.0
 40
0
 41
0
  0
VERTEX
  8
0
 10
13.9492
 20
6.88488
 30
0.0
 40
0
 41
0
  0
VERTEX
  8
0
 10
13.9492
 20
6.97456
 30
0.0
 40
0
 41
0
  0
VERTEX
  8
0
 10
13.9492
 20
7.12679
 30
0.0
 40
0
 41
0
  0
VERTEX
  8
0
 10
13.9229
 20
7.58333
 30
0.0
 40
0
 41
0
  0
VERTEX
  8
0
 10
13.8458
 20
8.1774
 30
0.0
 40
0
 41
0
  0
VERTEX
  8
0
 10
13.7197
 20
8.75467
 30
0.0
 40
0
 41
0
  0
VERTEX
  8
0
 10
13.5471
 20
9.31299
 30
0.0
 40
0
 41
0
  0
VERTEX
  8
0
 10
13.33
 20
9.85021
 30
0.0
 40
0
 41
0
  0
VERTEX
  8
0
 10
13.0706
 20
10.3641
 30
0.0
 40
0
 41
0
  0
VERTEX
  8
0
 10
12.7711
 20
10.8526
 30
0.0
 40
0
 41
0
  0
VERTEX
  8
0
 10
12.4337
 20
11.3135
 30
0.0
 40
0
 41
0
  0
VERTEX
  8
0
 10
12.0604
 20
11.7446
 30
0.0
 40
0
 41
0
  0
VERTEX
  8
0
 10
11.6536
 20
12.1439
 30
0.0
 40
0
 41
0
  0
VERTEX
  8
0
 10
11.2153
 20
12.509
 30
0.0
 40
0
 41
0
  0
VERTEX
  8
0
 10
10.7477
 20
12.8379
 30
0.0
 40
0
 41
0
  0
VERTEX
  8
0
 10
10.2531
 20
13.1284
 30
0.0
 40
0
 41
0
  0
VERTEX
  8
0
 10
9.73351
 20
13.3784
 30
0.0
 40
0
 41
0
  0
VERTEX
  8
0
 10
9.19119
 20
13.5857
 30
0.0
 40
0
 41
0
  0
VERTEX
  8
0
 10
8.77046
 20
13.7135
 30
0.0
 40
0
 41
0
  0
VERTEX
  8
0
 10
8.62831
 20
13.748
 30
0.0
 40
0
 41
0
  0
SEQEND
 8
0
  0
ENDSEC
  0
EOF
