<?xml version="1.0" encoding="utf-8"?>
<!-- Generator: Adobe Illustrator 21.0.0, SVG Export Plug-In . SVG Version: 6.00 Build 0)  -->
<svg version="1.1" id="Layer_1" xmlns="http://www.w3.org/2000/svg" xmlns:xlink="http://www.w3.org/1999/xlink" x="0px" y="0px"
	 viewBox="0 0 500 500" style="enable-background:new 0 0 500 500;" xml:space="preserve">
<g>
	<path d="M171.8,200.1c-2.1,1-4,1.2-5.9,1.4c-2.6,0.3-5.2,0.5-7.8,0.6c-1.5,0.1-1.4,0.6-1,1.7c2.3,6.1,5.2,11.9,8.2,17.6
		c0.7,1.4,1.4,2.8,2.1,4.2c0.7,1.7,0.5,3.2-0.7,4.7c-2.7,3.4-6.2,5.6-10.4,6.6c-1,0.2-1.3,0.6-1.1,1.6c0.2,1.8,1,3.3,1.9,4.8
		c1.1,1.9,1.1,3-0.4,4.7c-0.9,1-1.8,1.9-2.9,2.7c-0.7,0.6-1,1.1-0.5,1.9c1.7,2.6,0.7,4.7-1.5,6.4c-2.8,2.2-2.7,4.8-1.9,7.8
		c0.3,1.1,0.7,2.2,1.2,3.2c10.6,22.9,26.6,41,48.2,54.2c1,0.6,1.6,0.5,2.3-0.3c2.1-2.3,4.4-4.3,7.1-5.9c0.8-0.5,1-1.1,1.3-1.9
		c2.1-6.8,4.6-13.4,7.6-19.9c0.5-1.1,1.1-2.1,1.6-3.2c1.5-3.1,6.8-4.7,9.8-3c2.5,1.4,4.9,3,7.2,4.7c7.3,5.4,14.6,10.7,21.8,16.1
		c0.4,0.3,0.9,0.6,1.5,0.1c-3.5-3.6-7.9-6.9-5.5-13.2c-3.6,1.8-7,3-10.2,0.1c-2.1-1.9-3.3-6-2.5-8.3c0.5,0.1,0.5,0.6,0.7,0.9
		c1,2.2,4,4,6.4,3.9c1.1,0,1.4-0.5,0.9-1.5c-0.6-1.2-1.5-2.1-2.5-3c-2-1.7-4.2-2.9-6.5-4c-2.1-1.1-4.2-2.2-6-3.7
		c-2.2-1.9-3.5-4.2-3.9-7.1c-1.2-8.3-2.2-16.6-3.7-24.8c-0.4-1.8,0.1-3.4,1.4-4.7c6.6-6.5,13.6-12.4,22-16.5
		c1.7-0.8,3.4-0.9,5.2-0.4c2.4,0.7,4.5,2,6.1,3.9c2.1,2.4,4.2,4.8,6.3,7.2c0.6,0.7,1.3,1.3,2.1,2.2c0.4-6.3,1.7-12.1,3.7-17.7
		c6-16.9,15.9-31.2,29-43.4c5.8-5.4,12-10.4,18-15.6c8.8-7.7,15.5-16.9,19.9-27.8c1.7-4.2,2.9-8.4,3.2-12.8c0-0.3,0.1-0.6,0.1-0.9
		c0-0.2,0.1-0.4,0.3-0.8c0.6,1.2,0.6,2.4,0.8,3.6c0.9,3.9,1.9,7.7,3.8,11.3c1.8,3.4,2.2,6.9,1.3,10.6c-0.8,3.4-0.7,6.7,0.3,10.1
		c1.4,5,0.6,9.9-1.7,14.4c-1,2-2.2,3.8-3.3,5.7c-0.3,0.5-0.7,0.9-0.7,1.8c0.6-0.4,1-0.6,1.5-0.9c9.8-6.5,18-14.6,25.9-23.2
		c2.8-3,5.6-5.9,8.5-8.8c0.8-0.8,1.4-1.7,2-2.6c2-3.1,4.3-5.8,7-8.2c0.6-0.5,1.2-1.2,2.1-1.1c0.2,0.5-0.1,0.9-0.3,1.2
		c-3.9,5.9-5.3,12.6-5.8,19.5c-0.1,0.7-0.2,1.5-0.1,2.2c0.1,3-0.9,5.3-3.4,7.1c-1.8,1.3-2.3,3.5-2.6,5.5c-1.4,8.6-4.5,16.4-9.4,23.5
		c-0.5,0.8-0.8,1.7-1.1,2.6c-4.9,14.4-10.8,28.3-19.4,41c-1,1.4-2,2.8-2.9,4.2c14.5-5.1,28.3-11.5,41.7-18.9
		c0.3,0.6-0.1,0.8-0.3,1.1c-10.5,13.3-23.2,23.8-38.7,30.9c-0.6,0.3-1.2,0.6-1.8,1c-1.7,1.1-3.5,2.3-5.6,3.6
		c10,0.6,19.6,0.2,29.2-1.5c9.5-1.7,18.5-5.2,27.1-9.6c-0.6,0.7-1.3,1.4-2,2c-0.7,0.6-1.4,1.2-2.2,1.7c-14.8,9.4-29.8,18.3-46.6,24
		c-4.7,1.6-9.3,3-14.2,4c-2,0.4-3.7,1.4-5.4,2.3c-1.6,0.8-3.2,1.5-4.8-0.1c-0.3-0.3-0.7-0.2-1,0.1c-0.3,0.3-0.6,0.6-0.9,0.9
		c-2.5,2.3-3.8,3.4-7.3,0.7c-0.5-0.4-0.9-0.4-1.3,0.1c-1,1-2.1,1.9-3.3,2.6c-1.7,1-3.5,1.4-5.4,0.4c-0.7-0.3-0.9-0.1-1.1,0.5
		c-0.9,2.1-2.5,3.6-4.6,4.5c-0.8,0.3-1,0.8-0.9,1.6c0.1,0.8,0.2,1.6,0.4,2.3c0.9,3.9,3.9,5,7.2,2.7c0.3-0.2,0.5-0.4,0.9-0.5
		c-0.8,2.6-1.4,5.2-3.9,6.7c3.3,2.2,6.5,1.7,11.2-5c-0.1,5.9-0.8,11.2-4.8,15.5c-2.6,2.8-6.7,3.3-10.3,1.5c-0.4-0.2-0.9-0.5-1.6-0.9
		c0.9,2.9,1.5,5.6,1.8,8.3c0.2,2.1,0.5,4.1,0.8,6.2c0.3,2.5,1.6,4.4,3.7,5.7c1.8,1.2,3.7,2.3,5.1,3.9c0.6,0.7,1.2,0.3,1.9,0.2
		c11.6-3.1,22.6-7.4,33.1-13.2c8.4-4.6,16-10.3,23.4-16.2c12.2-9.7,24-19.9,36.7-28.9c0.3-0.2,0.7-0.4,1.1-0.7
		c0.1,0.7-0.2,1.2-0.5,1.7c-1.3,3-2.7,6-3.9,9.1c-3.9,9.9-10.5,17.9-17.6,25.6c-16,17.4-35,30.5-56.8,39.7c-1.1,0.5-1.7,0.9-1.5,2.2
		c0.2,1.8-0.8,3.4-1.5,5.1c-0.6,1.5-0.8,2.7,0.7,3.9c1.1,0.9,1.3,2.2,0.5,3.4c-0.4,0.7-0.3,1.3,0,1.9c0.7,1.6,1.9,2.7,3.3,3.7
		c1.3,0.9,2.7,1.8,4,2.8c2.4,1.7,3.6,4.1,3.8,7c0.1,1.7,0.2,3.4,0.5,5.1c0.4,2.2,1.1,2.8,3.4,3c3.7,0.2,7.3-0.4,10.8-1.4
		c1.6-0.4,3.1-1,4.7-1.2c2.9-0.4,4.7,0.7,5.9,3.3c0.8,1.8,1.1,3.8,1.3,5.8c0.3,2.8,1.7,4.7,4.2,6.1c4.3,2.5,8.7,2.9,13.5,2.3
		c2-0.3,4.1-0.4,6.1,0c3,0.7,4.6,2.4,4.8,5.6c0,0.6,0.1,1.2,0,1.7c-0.1,1.6,0.6,2.7,1.9,3.5c2.5,1.4,5,2.7,7.4,4.1
		c1.1,0.6,2.2,1.3,3.3,2.4c-1,0.3-1.7,0.1-2.4-0.1c-4.4-1.2-8.8-2-13.3-1.4c-2.7,0.3-5.2,1.2-7.6,2.3c-0.9,0.4-1.8,0.9-2.7,1.3
		c-2.5,1.1-4.3,0.7-6.3-1.2c-1.3-1.3-2.2-2.8-3.2-4.3c-1.1-1.6-2.1-3.2-3.5-4.6c-3.9-3.8-8.9-3.9-12.9-0.2c-1.2,1.1-2.2,2.2-3.3,3.4
		c-2.2,2.2-4.7,2.7-7.6,1.8c-6.8-2.2-11.7-9-11.6-16.1c0-1.4,0.2-2.7,0.2-4.1c0.1-2.6-0.9-4.1-3.4-4.9c-2.6-0.8-5.3-0.5-7.9-0.3
		c-1.1,0.1-2.3,0.3-3.4,0.4c-3.7,0.4-6.6-0.9-8.6-3.9c-2.2-3.2-3.6-6.9-4.3-10.7c-0.5-2.9-2.6-4.1-4.7-5.2c-2.3-1.2-4.7-1.9-6-4.4
		c-0.4-0.8-1.3-1.1-2.1-1.1c-2-0.2-4.1-0.4-6.1-0.6c-3-0.2-5.8-1.1-8.3-3c-0.6-0.4-1.1-0.7-1.9-0.6c-8,0.6-16,0.6-24,0.1
		c-0.2,0-0.3,0-0.8,0.1c2.3,2.7,3.6,6.2,7.8,6.5c1,0.1,1.9,0.4,2.9,0.8c4,1.4,6.2,4.3,6.3,8.5c0.1,3.8,1.3,7,3.5,10
		c2.4,3.1,4.4,6.5,6.4,9.9c0.3,0.6,0.7,1.2,1,1.8c0.3,0.7,0.6,1.4,0,2.1c-0.6,0.7-1.4,0.7-2.2,0.5c-1.2-0.3-2.4-0.7-3.5-1.3
		c-5.4-2.9-10.5-6.3-15.1-10.3c-1.9-1.6-3.3-3.6-4.5-5.8c-2.3-4.3-5.2-8.1-8.5-11.6c-3.7-4-7.4-8.2-11-12.3
		c-0.7-0.8-1.5-1.2-2.5-1.4c-4.1-0.7-8.1-1.6-12.1-2.7c-1-0.3-1.6,0-2.4,0.6c-3.1,2.2-4.8,5.2-4.8,9c0,0.7-0.3,1.3-0.7,1.9
		c-3,4.4-5.2,9.2-7.2,14.1c-0.4,1-0.9,2-1.5,2.9c-0.4,0.7-1,1.3-1.9,1.1c-0.9-0.1-1.3-0.8-1.6-1.6c-1-3.2-1.2-6.5-1-9.8
		c0.4-6.8,2.5-13.2,4.1-19.8c0.8-3.4,0.8-3.4-2.5-4.7c-33-13.1-59.5-34.2-78.2-64.6c-11.6-18.8-18.6-39.3-20.5-61.3
		c-3.5-40.4,8.4-76.1,34.6-106.8c25.1-29.5,57.4-47,95.2-54.1c35-6.6,68.9-2.6,101.4,11.7c10.3,4.6,20.4,9.7,28.7,17.6
		c6.2,5.8,11.7,12.3,16,19.6c3.4,5.9,5.3,12.4,5.7,19.2c0,0.7,0.1,1.3-0.2,2.1c-0.7-0.1-1-0.7-1.5-1.1c-7.4-6.6-14.6-13.4-22.9-19
		c-19.3-13.1-40.5-20.9-63.5-24c-38.5-5.2-83.7,8.7-114,38.2c-4.6,4.5-8.6,9.4-12.4,14.5c-1.5,2-2,4.4-2.9,6.7
		c-2.9,7.5-4.1,15.3-4.7,23.3c-0.2,2.7-1,5.2-2,7.7c-1.1,2.9-0.9,3.9,1.5,5.9c1.4,1.3,3.1,2.1,4.9,2.7c3.1,1,6.2,2,9.4,2.3
		C170.6,199.8,171,199.9,171.8,200.1z M247.6,342.8c-1.1-3-2.2-5.6-3.2-8.3c-0.2-0.6-0.5-0.8-1.2-0.7c-3.2,0.4-6.3,0.7-9.5,1
		c-1.4,0.2-2.8,0-4.5,0.5c1.9,1.1,3.4,2.1,4.4,3.8c0.1,0.2,0.4,0.4,0.6,0.4C238.6,340.8,242.9,341.9,247.6,342.8z M250.7,285.7
		c-2.1-6.1-7.6-8.6-11.8-12.7c0.2,3.3,1.5,5.7,3.9,7.4C245.3,282.2,247.9,283.8,250.7,285.7z M233.4,313c-1.7-1.8-2.7-3.7-4.3-5.1
		c-0.3-0.3-1-1.1-1.1,0.2c-0.2,1.6-0.3,3.1-0.4,4.7c-0.1,0.5,0,0.8,0.6,0.8C229.8,313.3,231.5,313.2,233.4,313z"/>
</g>
</svg>
