<?xml version="1.0" encoding="utf-8"?>
<!-- Generator: Adobe Illustrator 21.0.0, SVG Export Plug-In . SVG Version: 6.00 Build 0)  -->
<svg version="1.1" id="Layer_1" xmlns="http://www.w3.org/2000/svg" xmlns:xlink="http://www.w3.org/1999/xlink" x="0px" y="0px"
	 viewBox="0 0 500 500" style="enable-background:new 0 0 500 500;" xml:space="preserve">
<g>
	<path d="M217.5,486.6c-0.8-0.2-1.7-0.3-2.5-0.5c-5.1-1.4-7.8-5-9-10c-0.2-1-0.4-2-0.4-3.1c0-0.7,0.2-0.8,0.8-0.5
		c1.3,0.6,2.5,1.5,3.7,2.3c1.6,1.1,3.2,2.1,5.1,2.6c1.6,0.5,3.3,0.7,5,0.3c0.4-0.1,0.7-0.2,0.9-0.5c1.4-1.5,2.2-3.3,2.4-5.3
		c0.3-4.9,0.8-9.8,0-14.7c-0.4-2.6-0.9-5.3-1.1-7.9c-0.2-3.6,0.2-7.2,0.6-10.8c0.9-7.3,0.9-14.5,0-21.8c-1.4-11.4-4.4-22.5-7.8-33.5
		c-0.3-1-0.7-1.9-0.8-3c-0.1-0.6,0.2-0.8,0.8-0.7c0.9,0.1,1.8,0.2,2.8,0.4c-0.3-1.6-1-3-1.6-4.3c-2-4-3.9-8.1-4.9-12.5
		c-1.1-4.8-2.1-9.6-3.2-14.3c-1.7-7.2-4.1-14.3-6.3-21.4c-0.8-2.5-1.4-4.9-1.8-7.5c-0.1-0.7-0.4-1-1.1-1.2c-3.1-0.8-6-2.2-8.5-4.1
		c-1.3-1-2.4-2.5-3.4-3.9c-0.5-0.7-0.3-1.3,0.2-1.9c2.5-3.3,4.5-6.9,5.4-11c1.2-5.2,0.1-10.1-1.9-14.8c-1.6-3.9-3.6-7.5-5.4-11.3
		c-1.2-2.4-2.3-4.8-3.2-7.2c-0.4-1-0.5-1-1.3-0.3c-1.1,1-1.3,2.4-1.5,3.7c-0.1,0.6-0.1,1.2-0.8,1.5c-1.8,0.7-2.1,0.6-3.2-1
		c-0.7-1.2-1.2-2.5-1.6-3.8c-0.5-1.6-1.5-2.8-2.8-3.9c-1.8-1.5-3.6-3-5.2-4.6c-1.4-1.5-3.2-2.2-5.2-2.5c-0.5-0.1-1-0.1-1.3,0.4
		c-0.8,1-1.9,1.5-3,2.1c-1.3,0.6-2.3,1.6-2.7,3c-0.5,2-1.6,2.5-3.7,2.5c-0.8,0-1.5,0.1-2.2,0.4c-3.6,1.3-7.2,2.6-10.3,5.1
		c-1.4,1.1-2.2,0.8-2.9-0.9c-0.3-0.8-0.6-1.5-0.8-2.3c-0.5-1.4-1.6-1.8-2.9-0.9c-0.5,0.3-1,0.8-1.4,1.2c-1.1,1.1-2.3,1.7-3.8,1.9
		c-1.9,0.2-3.4,1-4.5,2.5c-0.7,1-1.7,1.4-2.9,1.2c-0.8-0.1-1.6-0.1-2.3-0.3c-2.1-0.5-3.7,0.4-5.1,1.8c-0.4,0.4-0.8,0.9-1,1.4
		c-0.3,0.8-1.2,0.8-1.6,1.3c-0.1,0.1-0.3,0-0.4-0.2c-0.2-0.5-0.5-1.1-0.2-1.6c0.4-0.6,0.4-1.3,0.2-1.9c-0.8-2.1-0.3-4.2,0-6.3
		c0.4-2.5,1.1-4.8,2.2-7.1c0.7-1.5,1.8-2.4,3-3.3c3.7-2.8,7.7-4.9,12.1-6.6c1.3-0.5,2.5-1.3,3.3-2.5c0.1-0.1,0.2-0.2,0.3-0.3
		c6.8-5.3,12.7-11.5,18.6-17.7c0.6-0.6,1.1-1.2,1.6-2c-1,0.1-1.8,0.1-2.7,0.2c-1.7,0-3.2-0.4-4.4-1.7c-0.8-0.8-1.7-0.9-2.6-0.4
		c-0.8,0.4-1.5,0.9-2.2,1.3c-2.6,1.7-5.2,1.7-7.8,0.1c-1.1-0.7-2.3-1.3-3.6-1.4c-1.7-0.2-3.2,0.5-4.6,1.5c-1.7,1.2-3.7,1.7-5.7,2.5
		c-0.4,0.2-0.8,0.2-1.2,0.2c-1.3-0.1-2-0.9-1.7-2.1c0.8-3.6,2.4-6.8,3.9-10.2c1.3-3,3.1-5.7,5.5-7.9c1.4-1.2,2.8-2.3,4.2-3.4
		c0.3-0.2,0.5-0.4,0.9-0.7c-0.5-0.2-1-0.4-1.4-0.6c-3.7-1.8-4.9-5.4-2.8-9c1-1.7,2.4-3,3.9-4.2c0.9-0.7,1.7-1.5,2.3-2.5
		c-0.5-0.1-0.9-0.2-1.3-0.2c-0.8,0-1.5-0.4-2.1-1c-0.5-0.6-1.1-1.2-1.6-1.8c-1.1-1.4-2.3-2.4-4-3c-1-0.4-1.9-0.9-2.8-1.5
		c-1.1-0.7-1.8-1.8-1.8-3.2c0-1.9-0.5-3.6-1.7-5.2c-0.6-0.8-0.7-1.8-0.2-2.6c0.7-1.4,0.4-2.7-0.1-4c-0.5-1.4-0.9-2.8-0.5-4.3
		c0.1-0.5,0.4-0.9,0.7-1.3c2.2-2.1,1.6-4.4-1.3-5.3c-0.6-0.2-1.1-0.3-1.7-0.5c-1.8-0.5-3.2-1.6-4.1-3.2c-0.7-1.1-1.3-2.3-2.2-3.4
		c-0.6-0.8-0.8-1.8-1.1-2.8c-0.5-2.2-1.5-4.1-3.1-5.7c-0.3-0.3-0.6-0.7-0.9-1.1c-1-1.6-0.3-2.5,1.3-3.2c0.9-0.4,1.9-0.5,2.8-0.9
		c1.8-0.9,1.9-2.2,0.3-3.5c-0.8-0.6-1.8-1-2.8-1.4c-1.9-0.9-3.8-1.8-5.3-3.3c-1.1-1.1-1.9-2.3-1.5-3.9c0-0.1,0.1-0.3,0-0.3
		c-1.4-1.2-0.7-2.7-0.5-4c0.6-3.6-0.8-6.5-3-9.1c-1.8-2.1-3.3-4.4-4.9-6.7c-1-1.4-1.8-3-3.2-4.1c-0.2-0.2-0.7-0.4-0.4-0.8
		c0.2-0.4,0.5-0.7,1-0.7c2.1,0,4.2,0.3,6.2,0.9c4.4,1.4,8.1,4,11.5,7c0.8,0.7,1.7,1.4,2.4,2.2c6,6.2,13.2,10.6,20.1,15.7
		c3.6,2.7,7.1,5.5,10.7,8.2c6.9,5.2,13.5,10.6,20.1,16.1c0.4,0.3,0.6,0.4,1,0c1.7-2.1,3.8-4,5.8-5.8c0.3-0.3,0.6-0.5,0.4-1
		c-2-5.7-3.2-11.6-5.3-17.3c-3.5-9.4-8.2-18.2-14.8-25.8c-2.1-2.4-4.3-4.6-7.2-6c-0.4-0.2-0.8-0.4-1.2-0.5c-2.3-0.7-4.1,0.1-4.9,2.4
		c-0.5,1.5-0.7,3.1-0.7,4.7c0,0.5,0,1.1,0,1.7c-1-0.3-1.5-0.9-1.9-1.6c-2.1-3.3-1-7.9,2.6-9.5c1.8-0.8,3.9-1.1,5.9,0
		c2.4,1.4,5,2.7,7,4.6c0.1,0.1,0.3,0.2,0.8,0.4c-0.5-1.1-1.1-1.7-1.6-2.4c-2.3-2.7-4.8-5.2-7.4-7.6c-2.1-1.9-4.6-2.7-7.5-2.4
		c-1.7,0.2-2.7,1-3.2,2.6c-0.3,1-0.7,2.1-1,3.1c-0.2,0.5-0.4,0.8-1,0.8c-0.6-0.1-0.6-0.5-0.7-0.9c-0.7-3.5,0.8-8.2,4.7-9.1
		c2.1-0.5,4.1,0,6,0.9c3.2,1.4,5.7,3.7,8,6.2c3.4,3.7,6.3,7.8,8.8,12.2c0.6,1,1.2,1.9,1.9,2.8c2.8,3.5,4.6,7.5,6.3,11.6
		c3.3,8,5.6,16.2,8,24.5c0.3,1,0.3,2.3,1,2.7c0.6,0.4,1.7-0.6,2.6-0.9c3.2-1.1,6.3-2.2,9.5-3.3c0.4-0.1,0.8-0.5,1.1-0.2
		c0.4,0.4,0.4,1,0.2,1.6c-0.2,0.5-0.2,0.9-0.1,1.3c0.3,0.9-0.3,1.3-1,1.7c-1.1,0.5-2.3,0.5-3.4,0.8c0.4,0.4,0.5,0.8,0.4,1.3
		c-0.1,0.6-0.6,0.8-1.1,1c-1.1,0.4-2.3,0.5-3.5,0.5c-1,0-1.8,0.2-2.4,1.1c0.1,0.3,0.2,0.2,0.4,0.2c0.4,0,0.8,0.1,1,0.6
		c0.2,0.5,0,1-0.4,1.2c-0.9,0.4-0.7,1.1-0.4,1.8c0,0,0,0.1,0,0.1c0.5,1.6,0.5,1.6,1.8,0.7c0.7-0.5,1.5-0.9,2.4-1
		c1.1-0.1,1.7,0.6,1.4,1.7c-0.3,0.8-0.8,1.4-1.5,1.9c-0.7,0.5-1.2,1.2-1.8,1.8c-0.6,0.6-0.5,1.1-0.2,1.8c1.8,3.7,4.2,7.1,6.6,10.4
		c2.3,3.2,4.7,6.4,7.1,9.6c1,1.3,2.2,2.6,3.2,3.9c0.3,0.4,0.5,0.3,0.9,0.1c1.2-0.8,2.1-1.7,2.5-3.1c0.7-2.9,1.5-5.8,3-8.5
		c0.3-0.5,0-0.8-0.3-1.2c-2-2.6-3.9-5.3-5.2-8.4c-2-4.6-2.2-9.4-2-14.2c0-0.7-0.2-1.2-0.8-1.6c-1.7-1.1-2.9-2.7-3.3-4.7
		c-1.3-6.7-2-13.5-1.2-20.4c0.2-1.3,0.4-2.7,1.6-3.5c0.3-0.2,0.2-0.6,0.2-0.9c-0.1-17.2,7.9-29.4,23.1-37c1.3-0.6,2.1-1.3,2.5-2.7
		c0.4-1.4,1.5-2.4,2.5-3.3c0.9-0.8,1.5-1.7,1.4-3c-0.1-1,0.3-2.1,0.4-3.1c0.3-1.9,0.1-3.7-1.2-5.2c-1.3-1.4-1.8-3.2-2.3-5
		c-0.3-1-0.8-1.7-1.9-1.8c-1.3-0.2-2.4-0.7-3.2-1.9c-0.4-0.5-1-0.7-1.6-0.7c-0.9,0-1.9,0-2.8,0c-0.9,0-1.9-0.1-2.7-0.6
		c-1.3-0.7-2.7-0.9-4.1-0.9c-2.1,0.1-3.9-0.4-5.6-1.7c-1.6-1.3-3.7-1.5-5.5-2.2c-0.6-0.3-1.4,0.2-1.5,0.8c-0.1,0.9-0.4,0.9-1,0.4
		c-0.1,1.3-1,1.7-2,2c-0.4,0.1-0.6,0.4-0.7,0.8c-0.2,0.5-0.6,0.8-1.1,0.3c-0.4-0.4-0.6,0.2-1,0.1c-0.3-0.1-0.7,0.4-1-0.2
		c-0.1-0.2-0.4-0.1-0.4,0.1c-0.1,0.5-0.5,0.6-0.8,0.9c-0.9,0.8-0.9,0.8-1.3-0.4c0.1,1.6-1.2,0.6-1.7,1.2c-0.3-0.2-0.1-0.6-0.3-0.8
		c0,0-0.1,0-0.1,0.1c-0.1,0.5-0.6,0.4-0.8,0.5c-0.7,0.6-1-0.8-1.6-0.2c-0.7,0.8-1.1-0.2-1.6-0.4c-0.3-0.1-0.7-0.3-1.1-0.2
		c-0.7,0.1-1.3-0.2-1.7-0.7c-0.3-0.3-0.4-0.6-1-0.6c-0.6,0-0.3-0.6-0.5-0.9c-0.2-0.3-0.7,1.1-0.8-0.2c-0.1-0.6-0.4,0.2-0.7,0.1
		c0.1-1.3,0-1.4-1.2-1c0.1-0.7,0-1.3-0.9-0.8c-0.2,0.1-0.5,0.1-0.5-0.3c-0.1-0.7-0.6-1.8-1.1-2c-1-0.5-0.9-1.3-0.4-2.1
		c-1.3-0.4-1.6-1-0.8-2.1c-1.1,0.1-0.8-0.9-1.1-1.4c-0.2-0.3-0.1-0.8-0.2-1.2c-0.1-0.4,0.3-1-0.5-1.1c-0.1,0-0.3-0.4-0.2-0.6
		c0.5-0.6,0.2-1.2,0.3-1.8c0.1-0.8,0.6-1.4,1.6-1.4c-1.5-0.6-0.3-1.7-0.5-2.6c-0.1-0.5,0-1.3,0.8-1.4c0.1,0,0.2-0.1,0.2-0.2
		c0.1-1.3,0.8-0.8,1.4-0.4c0.1-0.6,0.5-1.1-0.1-1.6c-0.1-0.1,0.3-0.9,0.3-0.9c0.5,0.1,0.8-0.4,1.2-0.4c0.7,0,0.8-0.1,0.5-0.7
		c-0.1-0.2,0.5-0.3,0.3-0.7c0.2-0.1,0.4,0.1,0.5,0.2c0.3,0.1,0.5,0.3,0.9,0.4c-0.3-0.4-0.2-0.8-0.1-1.3c0.2-0.5,0.5,0.6,0.8,0
		c0.2-0.4,0.5,0.5,0.9,0.3c0-0.4-0.1-0.8-0.1-1.2c0.8-0.1,1.8,0.4,2-0.9c0.1-0.4,0.7,0.2,1-0.2c0.6,0.5,1,0,1.1-0.4
		c0.3-0.8,0.7-0.5,0.9-0.1c0.7,1.2,1.4,0.4,2,0c0.9-0.6,0.9-0.7,1.1,0.4c0.4-0.1,0.2-0.8,0.8-0.7c0.8,0.1,0.7,0.7,0.9,1.5
		c0.2-0.5,0.4-0.8,0.6-1.3c0.7,0.8,2,0.4,2.7,1.5c0.2,0.3,0.4-0.5,0.9-0.5c0,0.8,1.1,0.8,1.1,1.6c0.6-0.5,0.9,0.4,1.2,0.4
		c0.9-0.3,0.9,0.8,1.5,0.9c-0.5,1,0.7,0.7,1,1.2c0.7,0.9,0.9,0.8,1.1,2.2c0,0.2,0.1,0.2,0.3,0.3c0.6,0.1,1.1,0.2,0.8,1
		c-0.1,0.2,0.1,0.2,0.3,0.1c0.4-0.1,0.7,0,0.4,0.5c-0.3,0.5,0.9,0.5,0.2,1.2c1.4-0.9,2.8-0.9,4.3-1c1.2,0,2.4-0.5,3.6-0.9
		c1.7-0.6,3.3-0.8,5-0.3c1.5,0.4,2.8,0.1,4.2-0.5c1-0.5,2-1,3.1-1.4c1.1-0.5,2.3-0.7,3.4-0.3c1.9,0.6,3.8,0.4,5.7-0.1
		c1.5-0.4,2.9-0.8,4.4-1c1.1-0.2,2.2-0.2,3.3,0.2c4.1,1.3,8.3,2.1,12.3,3.6c2.8,1,5.3,2.6,7.1,5.1c2.5,3.7,5.6,6.7,9.2,9.3
		c3,2.1,4.9,5.1,6.1,8.5c1.5,4.2,3.5,8.1,6.2,11.7c4.4,5.6,6.3,12.2,7,19.1c0.3,2.8,0.5,5.5,0.6,8.3c0,0.4,0.2,0.6,0.5,0.9
		c2.9,2.2,4,5.4,4.3,8.9c0,0.3,0,0.6-0.3,0.7c-0.4,0.1-0.6-0.1-0.8-0.4c-1.5-1.8-2.3-3.9-3.4-6.2c0.4,0.2,0.6,0.3,0.9,0.4
		c-0.2-0.5-0.5-0.6-1-0.8c-0.2,1.7,0.3,3.3,0.5,4.8c0.3,2.2,0.8,4.4,0.8,6.6c0,3.5-0.6,6.9-2,10c-1.4,3.2-2.5,6.4-3,9.9
		c0,0.1,0,0.3-0.1,0.4c-2.5,5.9-4.6,12.1-9.6,16.7c-1.1,1-2,2.1-2.6,3.5c-1.2,2.5-3.1,4.4-5,6.4c-3.2,3.3-6.5,6.5-9.8,9.7
		c-0.4,0.4-0.8,0.9-1.3,1.3c-0.4,0.4-0.6,0.8-0.5,1.4c0.2,0.9-0.6,1.7-0.4,2.6c0.7-0.1,1.3-0.6,1.8-1c2.7-1.9,5.2-4,7.7-6
		c8.1-6.4,15.8-13.1,24.4-18.9c1-0.7,2.1-1.4,3.2-2c5.4-3,10.1-6.9,15-10.6c2.5-1.9,4.6-4.3,7.1-6.3c2.3-1.7,4.6-3.3,7.3-4.4
		c3.2-1.3,6.5-1.3,9.9-1.1c1.5,0.1,1.9,1,0.9,2c-1.7,1.8-3.2,3.9-4.1,6.2c-0.9,2.3-2.4,3.9-3.8,5.8c-1.7,2.3-1.6,4.7-1.1,7.3
		c0.3,1.5,0.6,3,0.8,4.6c0.5,3.4-0.7,5.6-3.9,6.6c-1.9,0.6-2.9,1.7-3.6,3.4c-0.1,0.4-0.3,0.7-0.4,1c-0.3,0.8-0.2,1.4,0.8,1.4
		c0.1,0,0.3,0,0.4,0.1c1.3,1.1,2.4,0.3,3.5-0.4c2-1.2,3.2-3.1,4.7-4.7c0.4-0.4,0.3-1,0.4-1.6c0.2-1.1,0.3-2.1,0.8-3.1
		c0.3-0.5,0.6-0.8,1.2-0.8c0.7,0,0.7,0.6,0.9,1c0.4,1.2,0.7,2.5,0.5,3.8c-0.2,0.8,0,1.5,0.7,2.2c1.3,1.2,1.5,3.1,0.5,4.8
		c-0.4,0.7-0.4,1.1,0,1.8c1.1,2.2,1.1,2.5-0.7,4.1c-0.6,0.6-0.7,1-0.3,1.7c1,2,0.9,2.3-1,3.4c-3.7,2.2-7.5,4.1-11.8,4.4
		c-0.4,0-0.9,0.1-1.1,0.7c-0.8,2.4-2.7,3.2-5,3.4c-1.4,0.1-2.2,1.4-3.3,2.1c-0.3,0.2,0,0.5,0.2,0.7c0.6,0.8,1.2,1.7,1.8,2.5
		c1.1,1.6,1.4,3.3,0.8,5.1c-0.6,1.7-0.6,3.3,0.2,5c0.6,1.3,0.6,2.6-0.5,3.7c-0.6,0.7-0.7,1.6-0.6,2.4c0,1,0.1,2,0,3
		c-0.2,1.2-0.8,1.9-1.9,2.1c-1.1,0.2-2.1,0.5-3.2,0.7c-1.2,0.3-2.1,0.9-2.7,2.1c-1.1,2-1.9,2.3-4.2,1.9c-3.3-0.6-6.5-1.6-9.5-3.2
		c-0.6-0.3-1.1-0.3-1.5,0.1c-0.5,0.4-0.5,0.9-0.3,1.5c0.5,1.3,1.2,2.4,2,3.6c0.8,1.1,1.6,2.1,2.3,3.1c0.8,1.1,1.5,2.4,1.7,3.8
		c0.2,1.4,0.9,2.4,2,3.4c2.9,2.7,6.2,4.8,9.1,7.5c7,6.6,12.5,14.3,15.8,23.4c0.4,1.2,0.7,2.4,1.1,3.7c0.2,0.7-0.1,1-0.8,1.1
		c-0.8,0-1.6-0.1-2.4-0.5c-1.2-0.6-2.4-1.3-3.3-2.3c-1.7-1.8-3.9-2.9-6-4c-1.5-0.8-3.1-1-4.6-0.2c-2.2,1.2-4.2,0.9-6.3-0.3
		c-1-0.6-1.9-1.3-2.8-2.1c-0.6-0.6-1.2-1.1-1.9-1.6c-1.2-0.9-1.6-0.9-2.9-0.1c-1.7,1.2-3.4,0.9-5.1,0.1c-0.7-0.3-1.3-0.7-2-1.1
		c-0.1,0.4,0.1,0.5,0.2,0.6c5.3,7.4,11.4,14,17.8,20.5c1.7,1.7,3.5,3.4,5.1,5.2c0.8,0.9,1.3,2.1,2.2,2.9c0.6,0.6,1.2,1.2,1.9,1.7
		c1.8,1.2,3.6,2.3,5.4,3.6c6.4,4.5,12,9.7,15,17.1c0.9,2.2,1.5,4.6,1.6,7.1c1.9-1,3.6-2,5.4-3c0.3-0.2,0.3-0.5,0.4-0.8
		c0.4-0.9,1-1.7,2-1.9c7.3-1.2,14.6-2.7,22-2.4c6.3,0.3,12.7,0.7,19,0.5c1.4,0,2.9-0.1,4.3-0.2c1.2,0,1.8-0.6,2.3-1.6
		c0.9-1.9,1.1-3.6,0.2-5.5c-0.3-0.7-0.5-1.5-0.6-2.3c-0.2-2,0.5-3,2.5-3.4c2.1-0.4,4.1-0.2,6.1,0.1c8.8,1.2,17.7,2.5,26.6,2.3
		c3-0.1,6,0.1,8.9,1.1c5,1.7,7.6,5.2,8.2,10.3c0,0.3,0.1,0.6,0.2,0.9c0,0.9,0,1.8,0,2.7c-0.2,1.1-0.4,2.2-0.6,3.3
		c-0.3,1.3-0.7,1.4-1.6,0.5c-0.9-0.9-1.8-1.8-2.6-2.7c-5.5-5.6-12-7.3-19.5-4.9c-4.2,1.3-8,3.6-11.6,6.2c-1.9,1.4-4.1,2.2-6.3,3
		c-3.7,1.3-7.6,1.6-11.6,1.6c-3.2,0-6.3,0.2-9.4,1c-12.6,3.4-24.3,8.5-34.5,16.7c-0.9,0.8-1.9,1.5-2.9,2.1c-1.2,0.6-1.8,0.4-2.1-0.9
		c-0.2-0.8-0.3-1.7-0.5-2.7c-1.8,1.2-3.2,2.6-4.8,3.9c-6.1,5.2-13.2,7-21,5.2c-5.8-1.4-11.5-3.2-17.2-4.7
		c-12.5-3.2-24.6-7.3-35.3-14.9c-0.9-0.6-2-1.1-3-1.6c-0.3,0.4-0.3,0.8-0.3,1.2c-1.2,7.9-2.3,15.7-3.2,23.6
		c-0.8,7.3-1.4,14.6-1.1,21.9c0.2,5.8,1.3,11.4,3.9,16.7c3.1,6.2,5.5,12.7,6.6,19.6c0.1,0.4,0.2,0.6,0.6,0.7
		c1.6,0.5,1.6,0.6,1.5,2.2c0,0.2,0,0.5,0,0.7c-0.3,3.1,0.1,6.2-0.3,9.4c-0.7,5.8-1.9,11.5-3.1,17.2c-1.4,6.5-2.4,13-2.8,19.6
		c-0.2,2.4,0.2,4.4,2.3,5.7c0.1,0.1,0.2,0.1,0.2,0.2c1.1,1.9,3,2.6,4.9,3.3c4,1.3,4.6,2.9,3,6.8c-1.1,2.5-2.6,4.7-4.2,7
		c-2,2.8-4,5.7-5.5,8.8c-1.7,3.3-2.9,6.7-4.2,10.1c-1.5,4-4.2,6.7-8.6,7.4c-1,0.2-2,0.3-2.9,0.5
		C219.3,486.6,218.4,486.6,217.5,486.6z M266.8,277.5c-0.4,1.1-0.5,2.3-0.6,3.4c0,0.6-0.2,0.9-0.9,0.7c-0.7-0.2-1,0.1-1.3,0.7
		c-0.5,0.8-0.6,1.8-0.9,2.6c-0.2,0.6,0,0.8,0.4,1c1.8,1.1,3.5,2.1,5.2,3.3c5.9,4,11.3,8.6,16.9,12.9c2.1,1.6,4.3,3.2,6.7,4.3
		c1.4,0.7,2.8,1,4.4,0.5c1.5-0.5,2.5-1.6,3.4-2.7c1.7-1.9,3.4-3.8,5.6-5.1c0.6-0.4,0.3-0.6,0-0.9c-1.3-1.4-3.1-2.1-5-2.2
		c-2.3-0.2-4.1-1.1-5.4-3.1c-1-1.6-2.4-2.6-4.2-3.1c-1.2-0.4-2.2-1-3.1-1.9c-1-1.1-2-2.2-3.1-3.2c-0.5-0.5-1.1-1.2-1.7-0.9
		c-0.7,0.4-0.9,1.3-1,2.1c0,0.3,0,0.7,0,1c0,0.4,0,0.8-0.1,1.1c-0.1,0.7-0.5,0.9-1.2,0.6c-0.8-0.4-1.4-0.9-2-1.4c-2-1.7-4-3.5-6-5.2
		C271.3,280.3,269.2,278.8,266.8,277.5z M264.6,169.1c-0.7-0.9-1.4-1.3-2.2-1.6c-0.7-0.3-1.5-0.6-2.3-1c-1.6-0.7-2-1.3-1.5-3
		c0.2-0.5,0-0.7-0.4-0.9c-3.3-1-6.7-1.9-10.1-2.2c-0.4,0-0.9-0.1-1,0.3c-0.5,1.3-1.8,1.5-2.7,2.1c-4.6,3-8.2,7.1-11.5,11.5
		c-0.3,0.5-0.3,0.7,0.3,0.9c1,0.4,1.9,0.7,2.6,1.5c0.2,0.3,0.4,0.1,0.6,0c1.7-0.9,3.6-1.2,5.6-1.3c3.4-0.2,6.8,0,10.2-0.1
		c0.3,0,0.7,0.2,0.9-0.2c-0.1-0.2-0.3-0.4-0.4-0.6c-0.8-1.3-0.6-2,0.9-2.4c0.5-0.2,1.1-0.2,1.6-0.3c0.5-0.1,1,0,1.6-0.3
		c-0.9-0.7-1.8-1.1-2.7-1.5c-0.7-0.4-1.5-0.8-2-1.4c-0.2-0.3-0.5-0.5-0.4-0.9c0.2-0.3,0.6-0.2,0.9-0.2c1.6,0.1,3.3,0.4,4.9,0.7
		C259.8,168.5,262.1,169.2,264.6,169.1z M170.1,172.2c-0.4-0.3-0.5-0.5-0.7-0.6c-0.6-0.4-1.3-1-1.1-1.7c0.2-0.7,1.1-0.6,1.8-0.8
		c1.1-0.2,1.4-0.9,0.6-1.7c-3.3-3.5-6.6-7-9.9-10.4c-0.2-0.2-0.4-0.5-0.7-0.4c-1,0.7-2.3,0.8-2.9,2c-1.8,3.6-3.7,7.1-5.6,10.6
		c-0.6,1.2-0.6,1.3,0.7,1.8c1.8,0.7,3.7,0.9,5.6,1.1C161.9,172.4,165.9,172.5,170.1,172.2z M145.6,248.2c0.1-0.4,0.2-0.7,0.2-1.1
		c0.4-5.6,2.1-10.7,4.8-15.6c0.6-1.1,1.2-2.3,1.5-3.6c0.1-0.4,0.4-0.8,0-1.1c-0.4-0.3-0.8,0.1-1.1,0.3c-1.4,0.9-2.6,1.9-3.7,3.1
		c-2.8,2.9-6.1,5.1-9.2,7.5c-2,1.6-3.7,3.4-5.6,5.2c0.6,0.2,1.2-0.5,1.5,0c0.4,0.6,0,1.2-0.2,1.8c-0.1,0.3-0.2,0.5-0.3,0.8
		c-0.4,1-0.7,2-0.8,3.1c1.1-1.6,1.9-3.3,3.1-4.8c1.2-1.5,2.5-2.8,4.5-3.6c-0.3,1.3-0.9,2.4-1.4,3.4c-0.6,1.3-1,2.5-1.1,3.9
		c0,1,0.6,1.3,1.4,0.8c0.5-0.3,0.8-0.7,1-1.2c0.4-1,0.9-2.1,1.2-3.2c0.6-2.3,2.1-4.1,4-5.7C145.1,241.7,144.5,245,145.6,248.2z
		 M271.2,255.1c2.3,2.1,4.4,4.4,6.3,6.9c1.9,2.5,2.9,5.6,4.8,8.2c0.1-0.6-0.2-1.1-0.4-1.5c-1.3-2.7-2.8-5.3-4-8.1
		c-1.1-2.6-2.7-4.8-4.6-6.7c-1.3-1.3-2.6-2.5-3.8-3.7c-0.7-0.7-1.3-1.3-1.8-2.1c-1.8-2.8-4.7-4.6-6.8-7.1c-0.3-0.3-0.8-0.7-1.2-0.4
		c-0.4,0.3-0.1,0.9,0.1,1.3c0.6,1.8,1.6,3.4,2.5,5.1c2.6,5,4.2,10.4,5.6,15.9c0.1,0.4,0.1,0.9,0.5,1.2c0-4.7-1.3-9.2-2.4-13.7
		c0.6,0.4,0.9,1,1.1,1.6c0.5,1.3,1.1,2.6,2,3.7c1.1,1.2,1.9,2.7,2.5,4.2c0.6,1.4,1.2,2.9,1.9,4.3c0.6,1.2,1.3,1.8,2.5,1.9
		C275,262,272.4,258.8,271.2,255.1z M206.2,171.4c0.4,1.1,1.1,1.5,2.2,1.3c0.8-0.2,1.6-0.2,2.5,0c0.5,0.1,1.1,0,1.3,0.4
		c0.5,0.8,1.2,0.9,1.9,1.2c0.6,0.3,1.6-0.1,1.7,1c0,0.1,0.3,0.1,0.5,0.1c1.7,0.2,3.3,0.3,5,0.4c0.6,0.1,0.9-0.2,1.2-0.6
		c2.3-3.5,4.6-7.1,6.9-10.6c0.2-0.2,0.4-0.5,0.2-0.9C222.6,168.9,214.7,170.9,206.2,171.4z M213.7,237.8c-0.4,2.2-0.7,4.3-0.6,6.5
		c0.1,2.2,1.2,3.9,3.1,5.1c1.5,1,3.1,1.7,4.7,2.5c0.8,0.4,0.8,0,0.8-0.6c-0.2-1.9-0.9-3.6-2-5.2
		C217.9,243.2,215.5,240.7,213.7,237.8z M142.3,141.5c-0.1-0.5-0.5-0.7-0.8-0.8c-2.4-1-4.1-2.8-5.7-4.8c-0.9-1-1.9-1.9-3.1-2.5
		c-0.5-0.2-0.8-0.2-1.1,0.3c-0.3,0.6-0.9,1-1.5,1.2c-0.3,0.1-0.8,0.3-0.7,0.8c0,0.4,0.4,0.6,0.8,0.7c0.3,0.1,0.6,0.1,0.9,0.2
		c1.8,0.1,1.8,0.1,2.3,1.8c0,0.1,0,0.2,0.1,0.3c0.4,0.6,0.1,1-0.3,1.3c-0.6,0.5-1.3,1.1-1.7,1.7c-0.3,0.4-0.2,0.6,0.3,0.6
		C135.3,142.3,138.8,141.9,142.3,141.5z M266.8,160.7c-0.3-1-0.9-1.5-1.5-2c-0.9-0.6-1.8-1-2.8-1.4c-2.4-0.8-4.7-1.6-7-2.7
		c-0.8-0.4-1.5-0.3-2.1,0.4c-0.5,0.5-1.1,0.9-1.7,1.3c-0.4,0.3-1.3,0.6-1.1,1c0.2,0.6,1,0.7,1.6,0.8c0.2,0,0.3,0.1,0.5,0.1
		c2.5,0,4.8,0.7,7.1,1.3C262,160.1,264.3,160.7,266.8,160.7z M225.7,218.4c-0.4,0.2-0.3,0.7-0.7,0.8c-1.2-0.9-1.6-2.5-2.8-3.7
		c-0.1,1.1-0.5,1.8-1.6,1.3c-0.3-0.1-1-0.5-1.1,0.1c-0.2,0.8-1.1,1.6-0.3,2.5c1,1.1,2.4,1.9,3.4,2.9c0.4,0.4,0.9,0.4,1.3,0.1
		c0.7-0.5,1.5-0.3,2.2,0c0.4,0.2,0.7,0.6,1.2,0.6C227.4,221.1,226.9,219.6,225.7,218.4z M232.1,256.4c-0.8-2.5-1.4-4.8-2.1-7.1
		c-0.2-0.5-0.5-0.5-0.9-0.3c-1.7,0.9-2.9,2.3-3.8,4c-0.2,0.4-0.1,0.5,0.3,0.7C227.6,254.6,229.7,255.4,232.1,256.4z M230.1,211.3
		c0.4,0.1,0.5-0.2,0.3-0.7c-1.2-2.5-3-4.6-4.7-6.7c-0.3-0.4-0.5-0.2-0.7,0.1c-0.5,0.9-1,1.9-1.6,2.8c-0.3,0.5-0.3,0.8,0.3,1.1
		c1.8,0.8,3.4,1.9,5,3C229.1,211,229.5,211.2,230.1,211.3z M166.8,176c-1.6-0.5-3.3-0.6-4.9-0.7c-1.6-0.1-3.3-0.1-4.9,0.1
		c-1.3,0.1-2.7,0.3-3.9,0.7c-0.7,0.3-1.4,0.6-1.8,1.5C156.6,177.4,161.7,176.8,166.8,176z M258.8,269.5c-1.2-1.1-2.3-1.9-3.1-3
		c-0.1-0.2-0.4-0.3-0.6-0.3c-1.1-0.1-2.1-0.2-3.2-0.3c-0.7-0.1-1.3,0.2-1.9,0.7c-0.8,0.7-0.8,0.8,0.2,1.2c1.1,0.4,2.1,0.8,3.2,1.1
		C255.1,269.3,256.8,269.7,258.8,269.5z M164.6,239.2c0-0.2,0.1-0.4,0.1-0.6c-0.1-2.8,0-5.7,0.9-8.4c0.2-0.6,0.1-1.2-0.4-1.7
		c-0.7-0.7-1-0.7-1.3,0.3c-0.2,0.5-0.3,1-0.3,1.5C163.3,233.3,163.8,236.3,164.6,239.2z M163.7,143.4c-0.8,1.3-1.4,2.4-1.6,3.6
		c-0.1,0.7-0.3,1.6,0.3,1.9c0.5,0.4,1.2-0.3,1.7-0.6c0.7-0.3,0.9-0.7,0.5-1.5C164.2,145.8,163.9,144.8,163.7,143.4z M167.5,155
		c0-0.8-0.3-1.5-0.6-2.1c-0.7-1.5-0.8-1.5-1.9-0.3c-0.2,0.3-0.3,0.4,0,0.7C165.7,154,166.5,154.6,167.5,155z"/>
</g>
</svg>
