<?xml version="1.0" encoding="utf-8"?>
<!-- Generator: Adobe Illustrator 21.0.0, SVG Export Plug-In . SVG Version: 6.00 Build 0)  -->
<svg version="1.1" id="Layer_1" xmlns="http://www.w3.org/2000/svg" xmlns:xlink="http://www.w3.org/1999/xlink" x="0px" y="0px"
	 viewBox="0 0 500 500" style="enable-background:new 0 0 500 500;" xml:space="preserve">
<g>
	<path d="M281.2,216.8c-0.6-0.9-1.3-1-1.9-1.3c-2-0.9-3.9-2-5.5-3.5c-1.8-1.7-3-3.7-2.6-6.2c0.2-1.1-0.5-1.3-1.2-1.8
		c-0.8-0.6-1.1,0.1-1.6,0.4c-5.1,3.7-10.1,7.6-15.8,10.4c-3.7,1.8-7.4,3.7-11.2,5.1c-2.9,1-5.3,2.7-7.2,5c-0.3,0.4-0.7,1-1.1,1.1
		c-2.9,0.7-4.6,3.1-7.1,4.4c-1.5,0.8-3.1,1.3-4.8,1.3c-0.8,0-1.2,0.2-1.6,1.1c-0.5,1.2-1.6,1.8-2.9,1.7c-1.3-0.1-2.3-0.8-2.4-2.2
		c0-0.7-0.4-1-1-1.2c-2.2-0.9-3.6-2.4-3.5-5c0-1-0.3-2-0.4-2.9c-0.2-1.9-0.8-3.5-2.9-4.2c-0.8-0.3-1.2-1.2-1.1-2.1
		c0.1-0.9,0.7-1.5,1.6-1.7c1.8-0.6,3.7-0.6,5.6-0.7c1.5-0.1,3-0.2,4.4-0.9c0.7-0.4,1.5-0.5,2.3-0.2c3.6,1.3,7.6,1.5,11.1,3.4
		c2.2,1.1,4,0.9,6.2,0.1c3.6-1.3,6.6-3.5,9.5-6c4.2-3.6,7.8-7.9,12.2-11.5c0.4-0.3,0.7-0.8,1.1-1.2c1.8-2,1.8-2-0.9-3
		c-6.6-2.5-13.2-5-19.8-7.5c-1.5-0.6-3-1.3-4.3-2.2c-0.6-0.4-1.6-0.9-1.8-1.5c-0.7-2.3-2.5-1.8-4.1-1.8c-7.7,0.2-15.2-1.2-22.7-2.9
		c-6.2-1.4-10.3-5.5-12.2-11.5c-1.1-3.4-0.5-7-0.3-10.4c0.2-3.4,0.9-6.7,2.9-9.5c-0.2-0.4-0.5-0.3-0.8-0.3
		c-7.2,0.3-14.2-1.3-21.3-2.7c-5.3-1.1-10.2-3.3-14.6-6.5c-8.7-6.4-12.2-15.1-11.2-25.7c0.3-3.1,1.5-6,3.2-8.6
		c-0.4-0.5-1-0.3-1.4-0.3c-5.3,0.3-9.2-2.5-12.9-5.7c-1.8-1.5-3.1-3.4-4.2-5.5c-0.5-0.9-0.9-1.9-0.9-3c0-3.1-0.5-6.3-0.1-9.4
		c0.1-0.8-0.2-1.3-0.9-1.7c-5.6-2.8-11-5.7-16.5-8.7C103.3,63.6,93,56.2,85,45.9c-4.5-5.8-6.1-12.2-4.7-19.4
		c0.6-3.2,2.8-4.9,5.9-4.9c4.3-0.1,8.5,0.7,12.7,1.5c4.3,0.8,8.5,1.6,12.8,2.2c9.3,1.5,18.3,3.8,27.3,6.5
		c15.3,4.5,30,10.7,44.8,16.6c9.4,3.7,18,9.1,26.6,14.3c2.2,1.4,4.5,2.6,7,3.6c2.4,1,4.6,2.3,6.6,3.8c4.3,3.1,8.8,6,13.3,8.8
		c7.6,4.7,14.3,10.6,21.8,15.3c9.3,5.8,18.2,12,26.9,18.8c0.8,0.6,1.1,0.5,1.7-0.2c1-1.2,2.2-2.2,3.3-3.4c3.1-3.5,2.4-6.6-1.9-8.3
		c-0.5-0.2-1.1-0.4-1.6-0.6c-4.7-1.4-6.9-5-6.2-9.8c0.3-1.7,0.8-3.3,1.7-5c-1.5,0-3.1,0.2-4.2-1c-0.5-0.5-0.6-1.1-0.5-1.7
		c0.1-2,2-4,3.9-4c-1.7,0.7-2.4,2.1-2.7,3.6c-0.3,1.2,0.4,2.1,1.6,2.2c3.1,0.1,6.4-2.5,6.1-6.2c0-0.4-0.3-0.7-0.5-0.9
		c-0.5-0.6-0.9-1.2-1-1.9c-0.6-4.1-2.3-8.1-1.8-12.4c0.3-2.1,1.8-4.3,3.8-5c0.2-0.1,0.5-0.2,0.7-0.3c1.6-2.4,4-2.1,6.4-1.8
		c0.8,0.1,1,0,1.1-0.7c0.7-2.9,2.4-4.7,5.5-4.9c1.1-0.1,2.2-0.7,3.4-0.8c1.7-0.1,3,0.5,3.8,1.9c0.4,0.7,0.9,1.1,1.8,1.2
		c2.7,0.4,4.3,2.4,5.9,4.3c0.5,0.6,1.1,1.2,1.5,1.8c1.1,1.8,2.8,2.2,4.8,1.9c1-0.2,2.1-0.8,3-0.7c4.8,0.5,9.7-0.7,14.4,0.8
		c4.8,1.5,9,4,12.5,7.5c0.3,0.3,0.4,0.7,1,0.5c3-1.1,5.1,0.6,6.9,2.4c2.1,2.1,3.3,4.8,3.3,7.9c0,0.8,0.3,1.2,0.9,1.6
		c3.5,2.1,5.2,6.6,4.2,10.5c-0.4,1.7-1.6,2.7-3.2,3.2c-1,0.3-2.1,0.6-3.2,0.8c-2.1,0.6-3.4,3-2.6,5.1c0.2,0.6,0.6,0.7,1.2,0.9
		c2.5,0.7,3,2.4,1.3,4.7c0.3-1.4-0.2-1.9-1.4-2.1c-1.2-0.2-1.6-1.2-2-2.2c-0.9-2.7,0.4-5.8,2.9-7c1.3-0.6,2.7-1.2,3.9-2.1
		c3.6-2.7,3.3-7.1-0.8-9.2c-0.3-0.2-0.8-0.7-1.2,0c-0.3,0.5-0.1,0.8,0.4,1.2c2,1.8,2.2,2.4,1.1,4.8c-0.5,1.1-1.3,1.8-2.6,1.7
		c-2.8-0.2-4.4,1.9-4.9,4.3c-0.6,2.8-0.9,5.7-2.2,8.3c-1.4,2.9-0.8,5.4,1.5,7.7c2.1,2.1,2,2.8-0.1,5c-0.2,0.2-0.4,0.5-0.7,0.7
		c-2.2,1.2-2.4,3.1-1.9,5.3c0.3,1.6-0.4,2.7-1.9,3.1c-0.7,0.2-1.1,0.5-1.2,1.2c-0.2,0.6-0.7,1.1-1.3,1.2c-1.5,0.1-2.3,0.9-2.6,2.4
		c-0.1,0.6-0.5,1.1-0.8,1.7c-1.1,1.8-2,2.2-4.1,1.5c-2.4-0.7-4.8-1.5-7-2.7c-0.9-0.5-1.2-0.2-1.1,0.8c0.4,3.8,2,6.9,4.7,9.5
		c0.8,0.8,1.8,1.4,2.9,1.3c3-0.4,6.1,0.3,9.2-0.5c3.9-1.1,7.1,0.6,9.4,3.6c3.7,4.7,7.2,9.7,9.9,15c0.3,0.7,0.8,1.2,1.4,1.7
		c1.9,1.8,3.9,3.7,5.8,5.5c6.2,5.9,12.7,11.4,19.8,16c0.6,0.4,1.2,0.7,1.7,1.1c0.1,0.1,0.3,0.1,0.6,0.2c-1.8-3.6-3.4-7.1-5.4-10.5
		c-2.7-4.5-4.8-9.4-6.9-14.2c-2.2-4.9-4.3-9.9-6.5-14.8c-1.6-3.6-1.2-7,0.9-10.3c0.4-0.6,0.6-1.2,1-1.8c1.6-3.1-0.1-5.9-0.7-8.8
		c-0.1-0.3-0.2-0.6-0.4-0.9c-0.4-0.8-0.9-2-0.2-2.5c0.6-0.4,1.8-0.2,2.7,0.3c1.2,0.7,2.1,1.6,2.4,3.1c0.6,3.3,1.3,6.6,1.4,9.9
		c0,1.5,0.8,1.9,1.9,1.8c3.2-0.2,6.2-0.8,8.6-3.1c4.2-4.1,9-7.3,14.5-9.5c1.3-0.5,2.6-0.9,3.8,0.3c0.7,0.6,0.9,1.2-0.2,1.6
		c-4.4,1.5-8.1,4.1-11.8,6.7c-1,0.7-1.5,1.6-1.7,2.7c-0.2,0.9,0,1.5,1.2,1.3c3.9-0.6,7.9-0.6,11.9-0.7c1.1,0,2.2-0.2,3.2,0.3
		c0.5,0.3,1.1,0.6,1,1.3c-0.1,0.7-0.7,0.9-1.3,0.9c-6.6,0.3-12.8,2.4-19.3,3.5c-2.3,0.4-4.3,1.4-6.3,2.7c-1.5,1-1.4,2.5-1.1,3.9
		c0.3,1.3,0.4,2.6,0.2,4c-0.3,1.9,0.8,3.5,1.5,5c1.9,4.3,4.6,8.1,7.6,11.8c3.5,4.4,7.1,8.7,9.5,13.9c1.6,3.4,2.2,6.9,2.4,10.6
		c0.1,1.3,0.1,2.6,0.4,3.9c0.5,2.3-1.1,3.6-2.4,4.9c-0.6,0.6-1.5,0.3-2.2-0.1c-10.5-5.6-21.4-10.4-31-17.7c-2.5-1.9-5.5-3.2-8.3-4.6
		c0.1,7,1.2,13.7,2.3,20.5c1.3,8.1,2.8,16.3,2.6,24.6c-0.1,4.3-0.6,8.6-0.3,12.9c0.2,2.3,0.3,4.7,0.7,7c0.7,4.8,2.5,9,5.9,12.7
		c6,6.4,12,12.7,17.6,19.4c2.7,3.2,3.9,6.7,3.4,10.9c-0.1,1-0.4,1.1-1.2,0.7c-3.2-1.6-6.2-1-8.9,1c-2.7,2-5.6,3.4-8.9,4.1
		c-2.4,0.5-4.7,0.3-6.8-0.9c-2.1-1.1-4-2.4-5.9-3.9c-0.5-0.4-1.1-0.8-1.7-0.5c-0.7,0.4-0.1,1,0,1.5c1.6,8.2,2.5,16.5,3.5,24.8
		c0.4,3.4,0.9,6.7,1.4,10.1c0.3,1.9,1.1,3.7,2.1,5.4c1.9,3.2,2.9,6.7,2.7,10.5c-0.4,7.6,1.7,14.9,3.2,22.3c1.9,9.4,3.1,19,5.1,28.4
		c2.4,11.7,5.9,22.9,10.6,33.9c3.5,8.1,5,16.9,7.5,25.4c0.3,1.1-0.1,2.2-0.1,3.3c-0.2,3.3-0.4,6.7,0.4,10c0.8,3.1,2.6,5.1,5.8,5.8
		c1.4,0.3,2.8,1.1,4,2.2c1,0.9,1.2,3.1,0.5,4.2c-0.3,0.4-0.6,0.3-1,0.3c-5.8-0.2-11.6-0.4-17.4-0.6c-0.3,0-0.8,0.1-0.9-0.4
		c-0.3-2.2-1.5-4.1-1.7-6.4c-0.4-5.6-1.7-10.9-5.8-15.2c-0.7-0.7-1.5-1.3-2.4-1.8c-1.6-0.8-2.9-2-4.2-3.2c-2.1-1.9-3-4.3-2.7-7
		c0.1-1.8,1.4-3,2.3-4.4c2.3-3.3,3.3-6.8,2.7-10.8c-0.7-5.3-3.1-10.2-5.1-15.1c-3.7-8.9-8.2-17.4-12.7-25.9
		c-4.5-8.5-7.3-17.7-9.6-27c-0.9-3.6-0.5-7.4-0.3-11.1c0.2-3.1,0-6.3-0.1-9.4c0-0.5-0.2-1.2-0.7-1.3c-0.6-0.2-0.7,0.5-0.9,0.9
		c-2,3.6-3.9,7.3-7.4,9.7c-0.6,0.4-0.9,1.3-1.3,2c-3,5.8-5,12.1-6.7,18.4c-3.7,13.3-8.2,26.4-11.6,39.9c-1.9,7.8-4,15.5-4.7,23.5
		c-0.5,5.3,0,10.7,0.3,16c0.2,4.1,0,8.1-0.2,12.2c-0.2,3.5,0.2,7.1,0.4,10.6c0,0.6,0.5,0.7,0.9,0.9c1.6,0.7,3.3,1.3,4.9,2
		c2.5,1.1,3,2.3,2.1,4.8c-0.2,0.6-0.6,0.5-1,0.5c-5.3,0-10.6,0-15.8,0c-0.7,0-1-0.1-1.1-0.9c-0.1-0.8-0.7-1.6-1-2.4
		c-1-2.6-1-5.3-0.9-8c0.2-4.1-1-7.4-3.9-10.5c-2.6-2.7-4.5-6-6.3-9.3c-1.7-3-0.3-5.2,1.4-7.4c0.8-1.1,1.8-2.1,2.7-3
		c5.1-5,7-11.3,7.4-18.2c0.3-6-0.4-12-0.5-18c-0.3-8.4-0.4-16.9,1.3-25.2c2.2-11,6.9-21.1,14.3-29.6c6.2-7,7.3-14.8,5.2-23.4
		c-1.6-6.4-2.5-12.8-3.4-19.3c-0.4-2.9-1-5.8-1.4-8.7c-0.2-1-0.5-1-1.3-0.6c-1.4,0.6-2.4,1.7-3.6,2.5c-7.4,4.5-15.4,5.7-23.8,4.1
		c-2.5-0.5-4.8-1.4-6.9-2.9c-0.6-0.5-1.3-0.8-2.1-1.1c-2.9-1.1-4.8-3.1-5.5-6.1c-0.2-0.8-0.5-1.1-1.3-1c-9.5,1-18.9,0.6-28.3-0.3
		c-1.4-0.1-2.9-0.2-3.6-1.7c-0.2-0.5-0.8-0.4-1.3-0.5c-8.7-2.9-17.2-6.1-25.1-10.9c-1.9-1.1-2.6-2.9-2.8-5
		c-0.6-5.4,1.7-9.9,4.7-14.1c6.8-9.8,14.5-18.8,24.1-26c1-0.8,2-1.5,3.1-2.1C262.8,223.9,271.4,219.2,281.2,216.8z M233.7,114.2
		c-0.1-0.1-0.2-0.1-0.2-0.2c-6.9-1-13.8-1.9-20.6-2.9c-0.7-0.1-1.2,0.1-1.7,0.5c-2.6,1.9-3.5,4.8-2.3,8.4c1.5,4.8,4.6,8.4,9.1,10.6
		c0.9,0.5,1.9,0.8,3,1c7.2,1.1,14.5,1.2,21.7,1.5c0.3,0,0.6,0.2,0.9-0.3c-2.4-2.1-4.7-4.4-7.2-6.5
		C232.3,123.1,231.8,119.1,233.7,114.2z M209.3,133.7c-0.4-0.3-0.6-0.5-0.8-0.6c-4.6-2.4-6.5-6.8-7.8-11.5
		c-0.9-3.5-0.4-6.9,1.4-10.1c0.6-1.1,0.5-1.6-0.9-1.6c-1.8,0-3.5-0.2-5.3-0.4c-5.2-0.6-10.3-0.3-15.5-0.3c-0.8,0-1.9,0.1-1.9,1.2
		c-0.2,3.7-0.2,7.4,2,10.7c1.5,2.2,3.4,3.9,5.5,5.5c3.5,2.6,7,5.4,11.4,6.4C201.1,133.8,205,134,209.3,133.7z M274.8,136.9
		c-1.7-1.5-3.1-2.7-4.4-3.9c-2.4-2.3-2.8-4.8-1.1-7.8c0.3-0.6,0.5-1-0.3-1.3c-2.2-0.9-4.3-2.1-6.5-2.7c-5.9-1.6-11.9-2.9-17.7-4.6
		c-1.9-0.5-3.8-1-5.8-1.4c-1.1-0.2-2.5-0.5-2.8,0.9c-0.5,2.1-0.8,4.5,1,6.2c4,3.7,7.8,7.8,13,10c4.9,2.1,10,3.4,15.2,4.1
		C268.3,136.9,271.4,137.1,274.8,136.9z M282,151.1c-5.4-2-10.7-3.4-16-4.8c-2.1-0.6-4.2-0.9-6.3-0.9c-0.6,0-1.3,0-1.8,0.4
		c-3.4,2.1-6.3,4.7-8,8.4c-1.2,2.6-1.6,5.4-0.7,8.3c0.6,2,1.2,2.2,3.2,1.8c0.7-0.2,1.4-0.3,2.2-0.4c5.2-0.5,10.4-0.9,15.6-1
		c1,0,1.6-0.3,2-1.3c1.2-2.8,3-5.2,5.4-7.2C278.9,153.4,280.4,152.3,282,151.1z M252.9,144.8c-0.2-0.3-0.6-0.2-1-0.2
		c-5.8-0.8-11.6-0.4-17.4-0.5c-0.7,0-1.3,0.2-1.9,0.6c-1.5,0.9-3,1.7-4.4,2.7c-3.3,2.2-5.5,4.9-5.1,9.2c0.1,1.1,0.4,1.8,1.4,2.4
		c1.8,1,3.6,2,5.5,2.7c4.9,1.9,9.9,3,15.1,3.3c0.5,0,1.4,0.5,1-0.8c-1.7-6.2-0.1-11.7,4.2-16.4C251.1,146.7,252,145.8,252.9,144.8z
		 M243,89.3c0-0.1,0.1-0.2,0.1-0.4c-2.7-1.7-5.4-3.4-8.1-5c-3.4-2-6.6-4.3-10.3-5.7c-8.7-3.3-17.8-3.6-26.8-4
		c-0.8,0-1.2,0.3-1.4,1.1c-0.6,1.9-0.2,3.4,1.5,4.6c5.4,3.8,11.4,6.1,17.9,7.5c6.1,1.3,12.3,1.1,18.4,1.8
		C237.1,89.5,240.1,89.3,243,89.3z M160.7,47.8c-1.4-0.5-2.7-1-4-1.6c-8.3-3.8-17-6.2-25.7-8.4c-2.7-0.7-5.7-1.7-8.5,0.5
		c-1,0.8-1.5,1.6-0.7,2.6c0.9,1.2,1.9,2.4,2.9,3.5c4.7,4.9,10.4,8.2,17,9.8c0.9,0.2,1.7,0.3,2.6,0.1c3.4-0.9,6.8-1.9,10.3-2.7
		C157.1,51,159.1,49.9,160.7,47.8z M309.3,199.3c-8.4-0.3-16.3-1.8-24.2,0.8c-2.4,0.8-4.2,2-5.6,3.9c-1,1.3-0.8,4.9,0.3,5.9
		c2.3,2,4.7,3.7,7.9,4.3c3.6,0.7,7.1,0.8,10.7,1.1c0.7,0.1,1-0.2,1-1c0-5.1,2.5-8.9,6.2-12.2C306.6,201.2,307.8,200.4,309.3,199.3z
		 M202,65.9c0-0.1,0-0.1,0-0.2c-0.3-0.1-0.6-0.3-0.8-0.4c-6.1-2.2-12-4.8-17.8-7.7c-0.8-0.4-1.6-1-2.6-1.1
		c-7.1-0.6-14.3-0.7-21.4,0.2c-1.5,0.2-1.5,1.1-1.1,2.1c0.2,0.5,0.5,0.9,0.9,1.3c1.7,1.8,3.6,3.4,5.7,4.6c1.7,0.9,3.3,2,5.3,2.2
		c3.6,0.2,7.1,0.6,10.7-0.5c1.3-0.4,2.8-0.4,4.2-0.4C190.8,65.9,196.4,65.9,202,65.9z M329.9,202.5c-3.2-1-6.2-1.5-9.2-2
		c-6.3-1.1-11.3,1.2-15.3,5.9c-1.9,2.2-3.1,4.7-3.2,7.7c0,0.9,0.2,1.3,1.2,1.3c5.2-0.1,10.3-0.2,15.5-0.4c0.7,0,1.3,0,1.3-1.1
		c0-2.7,1.4-4.8,3.1-6.6C325.2,205.4,327.4,204,329.9,202.5z M265.2,115.5c0.7,0,1.3,0,1.8,0c0.3,0,0.6,0,0.6-0.3
		c-0.1-0.9,0-2.1-0.5-2.7c-1.1-1.3-2.1-2.7-4-3.3c-2.2-0.6-4.3-1.6-6.4-2.6c-4.3-2.1-8.9-3.3-13.5-4.4c-2.7-0.6-5.5-0.5-8.3-0.3
		c-0.8,0.1-1.9,0.1-2.2,1.2c-0.2,1,0.7,1.5,1.3,2c2.6,2,5.4,3.8,8.4,5.1C249.7,113.4,257.5,114.5,265.2,115.5z M303.8,160.5
		c-5.9-2.6-11.5-5-17.1-7.4c-0.4-0.2-0.7-0.1-1.1,0c-4,2.1-7.6,4.7-9.9,8.8c-0.4,0.7-0.4,1,0.6,1.2c6.6,1,12.9,2.9,19.4,4.5
		c0.9,0.2,1.5,0,2.2-0.6C300.1,165.2,301.2,162.3,303.8,160.5z M270.1,246.8c2.1-1.8,4-3.4,5.9-5c5.2-4.5,10.7-8.5,17.4-10.5
		c1.7-0.5,3.3-0.9,5-1.4c0.4-0.1,0.9-0.3,1.1-0.5c0.8-1.8,2.2-3.3,3.5-5c-6.6,1.3-13,2.5-19.4,3.8c-1,0.2-2.1,0.1-3,0.9
		c-1.5,1.3-3.1,2.5-4.8,3.6C270.5,235.8,270,240.9,270.1,246.8z M231,98.8c-1.1-0.3-1.9-0.5-2.7-0.6c-8.8-1.7-17.3-4.4-26.1-5.9
		c-2.1-0.3-3.3,0.6-3.3,2.7c-0.1,2.2,2.2,4.7,4.6,5.2c4.3,1,8.8,1.3,13.1,2.6c3.7,1.1,7.6,1.5,11.4,1.7c0.5,0,0.7,0,0.7-0.5
		C228.4,101.9,229,100.1,231,98.8z M257,263.8c2.4,3.7,9.3,8.6,13.4,9.2c6.2,0.9,11.7-0.8,16.5-4.9c0.6-0.5,0.5-0.8-0.1-1.1
		c-2.8-1.3-5.6-3-8.8-3.1C271,263.7,264,263.8,257,263.8z M195.5,82.8c-2.7-2.1-3.7-4.6-2.7-7.8c0.4-1.2-0.6-1.1-1.3-1.1
		c-8.1,0.1-16.2-0.2-24.2,1.1c-1.9,0.3-2.3,0.9-1.1,2.5c1.5,2.1,3.4,3.7,6.2,3.6c1.8,0,3.5,0.1,5.3,0.3
		C183.5,82.3,189.5,82.2,195.5,82.8z M302.2,138.9c-0.2-0.8-0.7-1.2-1.3-1.7c-4-3.4-8.8-5.5-13.3-7.9c-3.9-2-8-2.9-12.4-2.9
		c-1.2,0-2.2,0-2.7,1.3c-0.5,1.2,0.2,2,1,2.9c4.5,4.4,10.3,6.3,16,8.2c0.3,0.1,0.7,0.2,1.1,0.2C294.4,138.9,298.2,138.9,302.2,138.9
		z M294.2,117.4c-1.8,1.4-0.4,1.9,0.3,2.6c1.1,1.1,2.3,2.1,3.4,3.2c3,2.8,6,5.6,9.3,7.9c0.4,0.3,0.7,1,1.3,0.3
		c0.5-0.6,0.3-1.2-0.1-1.7c-0.4-0.6-1.1-0.8-1.7-1c-0.6-0.2-1.2-0.3-1.8-0.4c-1.6-0.5-2.4-1.5-2.3-2.9c0.1-1.6,1.1-2.3,2.5-2.6
		c1.1-0.2,2.1-0.3,3.5-0.5c-1.2-0.2-2-0.4-2.9-0.6c-3-0.7-5.5-2.4-7.6-4.7c-1.5-1.6-1.5-3.8-2.3-5.7c-1.3-3.5-1.6-7-1.4-10.6
		c0.1-1.1-0.3-1.4-1.3-1.3c-2.1,0.1-4-0.8-5.7-1.9c-1.1-0.6-1.9-1.7-2.1-3c-0.2-2.6,0-5.2,1.4-7.6c0.6-0.9,0.7-1.7-0.1-2.6
		c-1.8,1.7-3,3.7-3.4,6.2c-0.4,3,0.3,5.6,3.2,7.2c1.2,0.7,2.4,1.5,3.6,2.2c3.9,2.1,4.7,5.2,2.5,9.1c-1,1.7-2.2,3.3-3.6,4.7
		c-0.6,0.7-0.7,1.1,0.1,1.7c0.9,0.6,1.7,1.3,2.5,2.1C292.5,118.4,293.2,118.5,294.2,117.4z M279.1,194.1c0.2,0.1,0.3,0.2,0.4,0.2
		c6.4,0.3,12.8-0.4,19.2-0.5c0.9,0,0.7-0.4,0.5-1c-0.6-3.3,0.1-6.1,2.7-8.4c1.9-1.7,4-3,6.4-3.8c1-0.3,1.8-1.2,3.1-1.3
		c-1.2-0.9-2.2-0.8-3.4-0.3c-8.5,3.6-16.6,8.2-25.1,11.7C281.2,191.4,279.9,192.4,279.1,194.1z M265.9,235.2c-1.5,0.5-2.3,1-3.1,1.7
		c-1.9,1.6-3.6,3.3-5.3,5.2c-1,1.1-1.6,2.4-2,3.9c-0.5,2.1-0.6,4.3-1,6.3c-0.5,2.1-0.4,4.1-0.5,6.2c0,0.8,0.2,1,1,0.7
		c2.7-1,5.1-2.2,7-4.5c0.8-1,1.3-1.7,0.7-3c-0.5-1.1-0.5-2.3-0.5-3.5C262,243.6,262.7,239.3,265.9,235.2z M290.9,173.9
		c-3.9-0.2-7.6-0.8-11,0.7c-5.4,2.4-9.3,6.2-8.9,12.8c0,0.5-0.4,1.2,0.1,1.4c0.5,0.2,0.9-0.3,1.4-0.5c4.8-2.5,8.8-6.2,13.2-9.3
		C287.6,177.7,289.1,175.9,290.9,173.9z M161.3,67.6c-0.9-0.6-1.5-1.1-2.1-1.6c-1.8-1.6-3.8-3-4.8-5.3c-0.4-0.8-0.3-2.1-0.9-2.4
		c-0.7-0.3-1.8,0.2-2.7,0.3c-2.7,0.3-5.5,0.1-8.3,0.8c-0.4,0.1-0.9,0-1.1,0.4c-0.8,1.4-0.6,2.5,0.6,3.7c1,1,2.2,1.8,3.7,2
		c0.7,0.1,1.4,0.4,2,0.9c2,1.8,4.3,2.5,7,2c1.1-0.2,2.2-0.8,3.2-0.3C159.2,68.5,160,68,161.3,67.6z M327.3,214.4
		c1.7,0.1,3.5-0.1,5.2-0.3c4.9-0.5,5.3-0.8,7-5.4c0.3-0.8,1-1.9-0.7-2c-0.3,0-0.4-0.3-0.4-0.6c0.2-0.7-0.4-0.7-0.8-0.9
		c-4.6-1.4-12.7,3-14,7.6c-0.3,1.1-0.3,1.9,1.2,1.6C325.5,214.4,326.4,214.4,327.3,214.4z M274.4,173.8c-0.6-0.7-1.3-0.8-2.1-0.8
		c-5,0.3-9.9,0.2-14.9,0.6c-1.2,0.1-1.2,0.6-0.8,1.4c0.6,1,1.4,1.9,2,3c1.9,3.4,5,4.3,8.6,4.2c0.4,0,0.7-0.1,0.9-0.5
		C269.4,178.4,271.6,175.9,274.4,173.8z M307.5,193.8c2.5,0.6,4.1-1,5.5-2.9c1.5-2,1.8-4.3,1.8-6.7c0-0.6-0.2-0.8-0.8-0.8
		c-4-0.3-7.3,1.2-10.1,4c-1.3,1.3-1.8,2.9-1.1,4.6c0.7,1.6,2.2,2,3.8,1.8C306.9,193.8,307.1,193.8,307.5,193.8z M196.2,91.6
		c-0.3-0.1-0.5-0.2-0.6-0.2c-3.5-0.3-7.1-0.5-10.6-0.8c-2.6-0.2-3.3,0.3-3.8,2.9c-0.2,0.9-0.1,1.8-0.2,2.6c0,0.6,0.2,0.9,0.8,0.9
		c4.4-0.1,8.6,0.6,12.9,1.4c0.7,0.1,0.8,0,0.7-0.7C195,95.7,195.1,93.6,196.2,91.6z M302.6,276.3c-3.3-1.4-5.8-3.7-8.7-5.5
		c-0.9-0.6-1.5-0.5-2.2,0.3c-2.9,3.4-6.3,6.1-10.5,7.8c-0.2,0.1-0.5,0.1-0.4,0.6C288.2,279.6,295.3,277.7,302.6,276.3z M319.3,182.9
		c0.4,1.7-0.9,2.6-1.1,3.8c-0.5,2.6-1.4,4.9-3,6.9c-0.4,0.5-0.5,0.8,0.3,0.9c1.4,0.3,2.9,0.6,4.3,0.9c0.4,0.1,0.7,0,0.8-0.5
		c0.3-3.4,2.7-5.2,5.2-6.9c0.8-0.5,0.8-0.8,0.2-1.5C324.2,184.7,321.8,184.2,319.3,182.9z M238.9,269.4c0.7,0,1.5,0,2.2,0
		c1.1,0,1.9-0.5,2.1-1.6c0.2-1.1-0.1-2-1.2-2.4c-0.3-0.1-0.5-0.2-0.6-0.6c-0.4-1.8-1.6-2.2-3.2-2c-0.7,0.1-1.6,0.3-2.1-0.3
		c-1.2-1.3-1.6-0.1-2.1,0.7c-0.8,1.2-0.5,2.8-1,4.1c-0.4,0.9,0,1.2,0.7,1.5C235.4,269.2,237.1,269.4,238.9,269.4z M163.3,93.5
		c1.5,0.5,3.2,0.8,4.6,1.5c2.6,1.3,5.4,1.3,8.2,1.3c0.5,0,1.2,0.2,1.2-0.6c0-1.9,0.6-3.7,1.3-5.5C173.2,90.3,168.4,92.6,163.3,93.5z
		 M122.3,49.6c-1.5-2.9-3.4-5.5-6.3-6.9c-2.9-1.4-6.1-2-9.3-2.8c-0.3-0.1-0.6-0.3-0.9,0c-0.2,0.3-0.1,0.7,0.2,1
		c0.8,0.7,1.6,1.3,2.4,2c2.1,1.6,4.6,2.4,6.8,3.9C117.4,48.2,119.9,48.6,122.3,49.6z M109.8,55.3c0.4,0,1.2,0.2,2-0.4
		c2.1-1.6,1.9-4-0.3-5.3c-2.8-1.6-5.3-1-6.6,1.6c-0.7,1.4-0.4,2.3,0.8,3.1C106.8,55.1,108,55.4,109.8,55.3z M167,113.6
		c0.7,0,1.5,0,2.2,0c1.9-0.1,3.4-2,3.1-3.9c-0.2-1.4-1.3-1.8-3.5-1.4c-0.9,0.2-1.8,0.2-2.6,0.3c-1.6,0.1-3.7,2.2-3.8,3.8
		c0,0.6,0.4,0.6,0.8,0.8C164.3,113.8,165.6,113.5,167,113.6z M299.1,286.3c-0.7,0-1.5-0.1-2.2,0c-1.1,0.2-2.4,0.4-3,1.4
		c-0.7,1.3,1.7,4.6,3.2,4.7c2.1,0.1,5.9-2.6,6.4-4.6c0.2-0.7,0-1.1-0.7-1.3C301.6,286.2,300.3,286.3,299.1,286.3z M251.1,276.2
		c-0.1-0.4,0-0.9-0.2-1.2c-1-1.2-1.8-2.5-2.5-3.9c-0.2-0.4-0.5-0.4-0.8-0.2c-2,1.4-4.2,2.5-6,4.2c-0.6,0.6-0.6,1.1,0.3,1.3
		c2.3,0.7,4.7,1.1,7.1,1.3C250,277.9,251.2,277.7,251.1,276.2z M305.5,228.1c4.8-1.3,9.9-1.6,14.2-4.7c-2-1.3-4-2-6-1.3
		C310.4,223.2,307.8,225.4,305.5,228.1z M309.5,286.5c-1.5,2.1-2.3,4-2.5,6.2c-0.1,1,0.4,1.4,1.4,1.4c1.7-0.1,3.3-0.2,5-0.4
		c1.3-0.1,2.4-0.7,2.5-1.9c0.1-1.2-1.2-1.5-2.3-1.7c-0.6-0.1-1.1-0.4-1.6-0.5C310.5,289.3,309.5,288.5,309.5,286.5z M169.7,128.4
		c-0.2,1.2,0.2,2.2,1.4,2.5c2.1,0.6,5.5-2.1,5.4-4.4c0-0.5-0.2-0.9-0.6-1.2c-1.7-1.6-2-1.6-3.9-0.2c-0.4,0.3-0.7,0.6-1.1,0.8
		C169.9,126.5,169.5,127.3,169.7,128.4z M166.3,118.1c-0.4,0-0.8,0-1.2,0c-2.3,0-2.8,0.6-2,2.7c0.3,0.7,0.6,1.4,0.8,2.2
		c0.4,1.2,1.1,1.3,2.2,0.8c1.5-0.7,2.6-2.1,4-3c1.2-0.7,0.8-1.4-0.1-2C168.9,118.1,167.6,118.2,166.3,118.1z M312,124.3
		c-1.9,0.3-3.6,0.6-5.2,1.5c-1.2,0.6-1.3,1.4-0.2,2.3c0.8,0.6,1.7,1.1,2.5,1.6c1,0.6,1.2,1.3,0.3,2.1c-0.2,0.2-0.9,0.4-0.3,0.9
		c1.4,1,2.8,2,4.3,3.1c0.1-0.4,0.1-0.5,0.1-0.6c-0.2-1.6-0.5-3.3-0.7-4.9c-0.1-0.9-0.3-1.6-1.5-1.3c-0.8,0.2-1.6-0.2-1.9-1
		c-0.4-1,0.1-1.7,0.8-2.3C310.7,125,311.5,125.1,312,124.3z M318.1,286.2c-0.1,0.6,0.2,0.9,0.6,1.2c0.6,0.4,1,1,1.2,1.6
		c0.4,0.9,0.9,1.4,1.9,1.1c1.1-0.3,3.2-2.6,3.1-3.1c-0.1-0.3-0.3-0.5-0.5-0.8c-0.8-0.9-1.7-1.7-2.5-2.6c-1.4-1.5-2.4-1.3-3.2,0.6
		C318.4,284.9,318.3,285.6,318.1,286.2z M98.7,47.5c0.8,0.1,1.5-0.3,2.2-0.8c1.6-1,1.5-2.9,0-3.9c-1.2-0.8-2.5-0.7-3.8-0.8
		c-1.5-0.1-2.4,0.7-2.3,2.1C95,45.2,97.5,47.5,98.7,47.5z M121.5,54.7c-2.8,0.1-4.1,1.4-4.1,4.1c0,0.8,0.3,1.4,1.1,1.5
		c3.7,0.4,4.6,0.5,5.1-3.2C124,54.7,123.9,54.6,121.5,54.7z M207.6,154.6c0,2.7,0.4,3,2.8,1.7c1.3-0.7,2.6-1,4.1-0.9
		c0.6,0,1.2,0.1,1.2-0.8c0-0.7-0.1-1.2-1-1.3c-1.4-0.2-2.7-0.9-3.8-1.7c-1.7-1.3-2.4-1.1-3,1C207.7,153.3,207.7,154,207.6,154.6z
		 M327.9,195.8c1.4-0.1,2.8,0,4.1-0.6c0.6-0.3,0.9-0.6,0.3-1.2c-1-1-1.9-2-2.9-3c-0.3-0.3-0.5-0.7-1-0.4c-1.5,0.9-3,1.9-4,3.4
		c-0.5,0.8-0.4,1.5,0.7,1.7C326,195.7,327,195.8,327.9,195.8z M211.9,162.2c-0.9-0.1-1.4-0.1-1.9-0.2c-0.3,0-0.8-0.2-1,0.2
		c-0.2,0.4,0.2,0.7,0.4,0.9c0.6,0.7,1.2,1.4,1.9,2.1c2.3,2.4,2.5,2.4,4.9,0c0.6-0.6,1.4-1.1,0.6-2.2c-0.6-0.9-1-1.7-2.4-1.1
		C213.6,162.3,212.5,162.1,211.9,162.2z M132.3,62.4c0-1.5-1.2-3-2.6-3.3c-0.6-0.1-1,0.1-1.3,0.6c-1.1,1.5-0.9,3.2-0.8,4.8
		c0,0.3,0.2,0.4,0.5,0.6c1,0.5,2.1,0.9,3.2,0.5c1-0.4,1-1.5,1.1-2.4C132.3,62.9,132.3,62.6,132.3,62.4z M147.1,85.6
		c3.3,0.6,4.6-3.2,4.4-5.5c-0.1-0.9-0.6-0.5-1-0.3c-1.4,0.9-2.8,1.9-4.2,2.8c-0.8,0.6-1.4,1.2-1,2.3
		C145.7,86.1,146.6,85.4,147.1,85.6z M180.7,135.2c1.8,0,2.5-0.4,2.5-1.8c0-1.4-1.5-3.1-2.7-3.2c-0.8,0-2.7,2.2-2.7,3.2
		C177.8,134.6,178.7,135.2,180.7,135.2z M88.3,35.1c0.3,1.6,1.1,2.9,2.1,4.2c0.3,0.4,0.8,0.4,1.2,0.2c1.1-0.3,1.8-1.1,2-2.2
		c0.2-1-0.7-1.4-1.4-1.8c-0.6-0.4-1.4-0.5-1.7-1.2c-0.3-0.6-0.7-1.3-1.3-1.1C88.4,33.4,88.4,34.3,88.3,35.1z M164.7,81.1
		c-1.1-1.6-2.3-2.9-2.1-4.8c0-0.5-0.3-0.4-0.7-0.4c-3.4,0.1-3.4,0.1-2.1,3.2c0.3,0.6,0.5,1.2,0.8,1.9c0.2,0.5,0.6,0.7,1.1,0.6
		C162.7,81.4,163.6,81.3,164.7,81.1z M142.7,68.9c-1.6-1.7-3.4-3.2-4.9-5.1C136.5,68.1,137.3,69.5,142.7,68.9z M256.3,186.5
		C256.3,186.5,256.3,186.5,256.3,186.5c0.6,0,1.2,0,1.9-0.1c0.5,0,0.8-0.3,0.8-0.8c0-0.5-0.2-0.7-0.7-0.8c-0.8-0.1-1.4-0.4-2-0.9
		c-0.7-0.7-1.6-0.4-2.4,0c-0.6,0.3-0.8,1-0.6,1.6c0.3,0.8,1.1,0.9,1.8,1C255.3,186.5,255.8,186.5,256.3,186.5z M242.9,180.5
		c1.3,0,2.6,0.1,3.8,0c0.9-0.1,1.8-0.5,2.4-1.4c0.2-0.3,0.4-0.8,0.2-1.2c-0.2-0.5-0.7-0.3-1.1-0.2C246.2,178,244.5,179,242.9,180.5z
		 M192,138.5C192,138.5,192,138.5,192,138.5c0.4,0,0.7,0,1.1,0c0.4,0,0.9,0.1,1-0.5c0.1-0.5,0.1-1-0.3-1.3c-1-0.7-2.4-0.7-3.3-1.7
		c0,0-0.3,0-0.4,0.1c-0.6,0.8-0.7,1.8-0.6,2.7c0.1,0.9,0.9,0.6,1.5,0.7C191.3,138.6,191.6,138.5,192,138.5z M244.1,251.9
		c-1.5,1.4-2.2,2.7-2.1,4.5c0.1,1,0.9,1.1,1.5,1.2c0.9,0.1,0.5-0.7,0.5-1.1C244.1,255,244.1,253.6,244.1,251.9z M214.7,146.2
		c1.3,0.6,2.2,1,3.1,1.4c0.9,0.4,1-0.5,1.3-0.9c0.3-0.4,0.9-0.7,0.4-1.3c-0.4-0.5-0.9-0.4-1.4-0.3
		C217.1,145.4,216.1,145.7,214.7,146.2z M265.7,188.1c0.8,0,1.5,0.1,1.6-0.9c0-1-0.5-1.1-1.3-1c-0.7,0-1.5-0.1-1.5,1
		C264.4,188.2,265.2,188.1,265.7,188.1z M333.7,198.7c1.4,0.5,2.5,1,3.9,1.5C335.6,197.3,335.6,197.3,333.7,198.7z M99.7,33.5
		c1.9,0.9,3.9,1.6,6,1.8C103.9,34.1,101.8,33.7,99.7,33.5z M219.7,169.1c1-0.1,1.7-0.1,2.6-0.1C220.7,167.3,220.6,167.3,219.7,169.1
		z"/>
</g>
</svg>
