<?xml version="1.0" encoding="utf-8"?>
<!-- Generator: Adobe Illustrator 21.0.0, SVG Export Plug-In . SVG Version: 6.00 Build 0)  -->
<svg version="1.1" id="Layer_1" xmlns="http://www.w3.org/2000/svg" xmlns:xlink="http://www.w3.org/1999/xlink" x="0px" y="0px"
	 viewBox="0 0 500 500" style="enable-background:new 0 0 500 500;" xml:space="preserve">
<g>
	<path d="M37.4,112.3c1.1-3.3,2-6.6,4.7-9.3c4.4-4.3,9.8-6.2,15.6-7.2c10.7-1.8,21,0.3,31.2,3.4c13.6,4,26.7,9.1,39.3,15.7
		c10.9,5.8,21.2,12.6,31,20c9.2,7,17.5,15,25.4,23.4c6.1,6.5,11.4,13.8,16.6,21.2c7.5,10.6,14.1,21.6,19.9,33.3
		c4.3,8.7,8,17.8,10.7,27.4c1-5.9,0.8-11.5,1.7-17.2c1.2-7.1,4.4-13.1,8.1-19c1.9-3.1,3.6-6.4,4.2-10c0.7-4.4-1.2-8.1-3.9-11.5
		c-2.3-3-5.3-5.5-7.7-8.3c-5.8-6.6-9.1-14.2-9.6-23.1c-0.4-8.5,1.9-16.4,4-24.4c1.7-6.3,1.9-12.5-0.8-18.6
		c-4.2-9.5-14.1-10.5-19.5-4.5c-4.7,5.2-4.1,13.7,0.5,18.5c2.6,2.7,5.4,3.6,9,1.4c0.4-0.2,0.8-0.5,1-0.8c0.7-1.1,1.8-2.3,0.6-3.5
		c-1.3-1.3-2,0.4-2.8,1.4c-0.8-3.2-0.6-3.6,1.3-4c2-0.4,3.8,0.9,4,3.2c0.6,4.6-2.5,8.9-7.2,10.1c-2.8,0.7-5.6,0.9-8.5-0.6
		c0.1,1.5,1,2.1,1.7,2.9c3.5,3.8,7.6,6.9,10.6,11.1c2.6,3.7,3.9,7.8,4,12.4c0.2,6.5-1.2,12.6-3.6,18.6c-2.1,5.3-3.4,10.9-1.7,16.6
		c0.5,1.7,1.4,3.1,3.4,4c2,0.9,2.9-0.1,3.8-1.3c0.6-0.8,0.6-2-0.6-2.5c-1.2-0.5-1.3,0.4-1.3,1.3c0,0.4-0.2,0.8-0.6,0.6
		c-0.4-0.1-0.8-0.5-0.9-0.9c-0.3-1.4,0-2.8,1.5-3.2c1.7-0.4,3.2,0.2,3.7,2.1c0.8,3.2-2.4,6.7-5.7,6.1c-4.8-0.8-7.8-4.5-8.1-9.4
		c-0.3-6.3,1.5-12.2,3.1-18.2c0.1-0.3,0.1-0.7,0.1-1.5c-2.3,2-4.3,3.9-7,4.7c-3.2,0.9-6.2-0.4-7.1-3.1c-0.6-1.8,0.5-4.2,2.3-4.6
		c1.2-0.3,2.1,0.2,2.7,1.2c0.4,0.6,0,1.1-0.3,1.7c-0.6,1.1-0.6-0.3-1-0.3c-0.8,0-1.8-0.2-2.1,0.7c-0.3,0.9,0.3,1.5,1.2,2
		c2.3,1.2,6-0.3,7.5-3.5c1.3-3,1.9-6.1,0.8-9.4c-0.6-1.9-1-2.6-2.7-0.8c-2.8,2.8-6.5,3.2-9.9,1.5c-1.8-0.9-2.9-2.2-2.9-4.3
		c0-1.7,0.7-2.9,2.3-3.8c2.1-1.1,3-0.1,3.9,2.3c-1.4-0.7-2.4-1.9-3.3-0.6c-0.4,0.6-1.1,1.3-0.4,2.3c0.8,1.2,1.9,1.5,3.1,1.3
		c1.8-0.4,3.1-1.6,3.7-3.3c0.6-1.7-0.1-3.3-1.2-4.6c-1.7-2.1-3.9-3.4-6.2-4.7c-1.7-0.9-3.1-2.2-3.8-4.4c-1.1,1.9-2.5,3.3-4.5,4.1
		c-1.7,0.7-3.2,0.3-4.5-0.4c-1-0.6-1-2-0.9-3.1c0.1-1.1,0.6-1.6,1.9-1.3c0,0.8-1.6,1.7-0.1,2.3c1.2,0.6,2.3,0.1,3.1-1
		c1.4-2.1,1-4.1,0-6.1c-1.2-2.5-2.7-4.9-3.9-7.4c-4.2-8.9-3.1-17.1,2.8-24.9c7.5-9.9,23.2-11.2,32.5-5c0.7,0.5,1.1,1.4,2.3,1.5
		c0.5-2.7,1.6-5.1,4.5-6c1.8-0.6,3.5-0.4,4.8,1.1c1.3,1.4,1.6,3.2,0.4,4.8c-1.2,1.5-2.8,1.2-4.8,0c2-0.3,3-1.3,2.1-2.8
		c-1-1.6-2.6-1.6-4.1-0.4c-1.7,1.4-1.9,3.4-1.4,5.3c0.8,2.9,2.3,5.4,5,7.6c0.2-3,0.8-5.6,3.1-7.5c1.5-1.2,4.2-1.5,5.5-0.2
		c1.8,1.6,1.3,3.3,0,5.5c-0.7-2.3-1.8-3.9-3.9-3.5c-1.6,0.3-3.3,1.3-3.5,3.4c-0.1,2.2,0.6,4,2.7,4.9c4.1,2,8.5,2.7,13,1.9
		c9.8-1.7,19.6-1.8,29,1.9c3.7,1.4,6.6,4,8.4,7.5c0.5,0.9,1,1.7,2,1.9c6.5,1.6,9.5,6.6,11.2,12.3c1.3,4.5,1.5,9.3-0.9,13.8
		c-1.3,2.4-3.1,4.2-5.6,5.1c-0.8-1,0.8-1.8,0-2.8c-1.2,1.1-1.9,2.6-2.6,4c-0.5,1-0.7,2.2,0,3c0.6,0.7,1.9,0.5,2.7,0.1
		c1.7-0.7,3.7-0.9,5.2-2.3c0.3-0.3,0.9-0.9,1.7-0.5c-0.7,1.7-2.7,2-3.8,3.6c3.8-0.6,6.4-3.1,9.6-4.6c-3.7,4.4-8.7,6.2-14.5,6.8
		c0.3,2.5,2.2,3.6,4.2,4.4c2.2,0.9,2.1,2,0.7,3.5c-0.7,0.8-1.2,1.7-2,2.4c-1.1,1.1-1.3,2.2-0.4,3.5c0.3,0.4,0.9,1,0.5,1.4
		c-1.6,1.8-1.7,4.4-3.5,6c-1.6,1.4-2.6,2.6-1.9,5c1.1,3.8,0,4.8-3.9,5c-6.3,0.4-12.1-2-18.1-3.3c-1.1-0.2-1.7-0.2-2.5,0.6
		c-3.3,3-4.2,7-5.1,11.2c-2.1,10.5,2.5,18.3,9.3,25.6c8.7,9.3,17.8,18.2,26.8,27.2c3.9,3.9,8.4,7.1,12.9,10.2c1.1,0.7,1.6,0.3,2-0.6
		c3.8-8.2,9-15.4,15.2-22.1c6.5-7,13.7-13.1,20.6-19.5c4.8-4.4,9.1-9.3,13.2-14.4c3.4-4.3,6.5-8.8,10.6-12.5c2.8-2.6,6.3-3.5,10-4
		c6.3-0.8,12.7-0.5,19-0.5c1.6,0,3.3-0.1,5.2-0.6c-1.1,2.7-3,3.2-5.3,3.2c-3.8,0-7.6,0.2-11.2,1.6c4.3,1.6,8.6,1.5,12.9,0.1
		c5.3-1.7,10.5-3.5,15.8-5.1c2.1-0.6,4.4-1.1,6.9-0.7c-0.9,1.3-2.3,1.4-3.4,1.8c-6,2.4-11.8,5-16.8,9.2c-4.1,3.4-9,3.9-13.9,4.2
		c-3.9,0.3-7.8-0.1-11.6-0.6c-4.1-0.6-6.5,1.6-8.7,4.3c-10.2,12.2-18.1,26.1-26.5,39.5c-3.8,6.1-8.1,11.9-12.8,17.4
		c-5.4,6.3-11.5,11.6-18.6,15.9c-1.4,0.8-2.3,0.9-3.7,0.1c-9.7-5.2-18.6-11.5-27.6-17.6c-1.9-1.3-3.7-2.5-5.6-3.8
		c-0.2,0.1-0.5,0.2-0.5,0.3c0.8,5.5-2.4,9.5-5.2,13.5c-7,10-14.3,19.9-20.3,30.5c-3.9,6.8-7.8,13.7-11.8,20.7c1.1,0.1,1.7-0.4,2.2-1
		c4.6-4.9,9.8-9.1,14.7-13.6c8.3-7.4,16.9-14.5,26-21.1c4.7-3.4,9.6-6.5,14.4-9.9c1.3-0.9,1.9-0.7,3.1,0.1
		c7.8,5.1,13.6,12.1,18.7,19.6c8.3,12.1,16.5,24.2,25.5,35.8c6.1,7.9,12.5,15.5,19.1,23c8.4,9.7,18.2,17.9,28.5,25.5
		c4.4,3.2,8.5,7,12.6,10.7c4.2,3.8,8.4,7.6,13.8,9.7c4.1,1.6,8.2,0,12.2,0.2c0.6,0,1-1,1.7,0.1c0.7,1,0.2,1.8-0.3,2.4
		c-2.2,2.9-5.4,3.1-8.5,2.7c-1.2-0.1-2.3-0.1-3.2,0.2c-7.6,2.3-14.5,0.4-21.5-2.4c-3.4-1.3-6.2-3.7-10-4.3c-3-0.5-6-0.1-9-0.3
		c-3.6-0.2-6.7-2.7-6.5-6.1c0.4-7.9-3.1-14.3-7.4-20.5c-6.5-9.5-15.4-16.5-25.1-22.5c-9.3-5.8-19.5-10.3-28.5-16.7
		c-4-2.8-7.1-6.3-9.4-10.6c-3-5.7-5.4-11.6-8-17.8c-4.5,3.8-8.4,7.9-12.3,12.2c-4.6,5.1-8.7,10.4-13,15.8
		c-4.1,5.2-8.2,10.4-12.4,15.5c-2.3,2.8-4.8,5.4-7.3,8c-1.8,1.9-3.8,3.7-5.9,5.8c5.1,0.7,9.8,1.3,14.5,1.9
		c6.9,0.9,13.8,1.6,20.7,2.7c9.3,1.6,18.6,3.1,27.7,5.8c6.6,1.9,13.3,3.7,18.2,9c4.2,4.6,4.4,9.1-1.9,12.1
		c-4.7,2.2-9.8,3.2-14.8,3.8c-11,1.4-22.1,2.1-33.2,1.6c-10.1-0.5-20.2-0.9-30.3-2.4c-6.4-1-12.5-2.9-18.8-4.1
		c-3.7-0.7-7-0.7-9.8,2.6c-2.6,3.1-5.1,3.4-8.6,1.4c-3.7-2.1-7.3-2.1-11.1-0.6c-3.2,1.3-5.8,0.1-8-2.1c-2.6-2.7-5.7-3.9-9.4-3.7
		c-4,0.2-7.1-1.2-8.7-5.2c-0.9-2.3-2.9-3.5-5.1-4.2c-4-1.2-6.5-3.5-7.2-7.9c-0.3-1.8,0.3-2,1.5-1.6c5.6,1.6,9.8-1.3,13.6-4.6
		c5-4.4,8.9-9.9,13.1-15.1c4.8-6,10.4-11.3,16.5-15.8c8.7-6.5,15.6-14.6,21.1-23.9c4.2-7,7.8-14.3,10.3-22.1
		c0.1-0.4,0.1-0.8,0.2-1.9c-1.8,2.5-2.9,4.6-4.2,6.6c-4,6.5-8.7,12.3-13.6,18.2c-4.6,5.6-9.5,10.9-14.8,15.8
		c-10.4,9.8-21.5,18.6-33.8,25.7c-12.6,7.3-26,12.6-40.3,15.8c-5.5,1.2-11.1,2.2-16.8,2.4c-3.1,0.1-6.1,0.5-9.2,0.4
		c-13.5-0.4-25.9-4-36.5-12.6c-1.2-1-3.1-2.3-2.3-4c0.5-1,2.7-0.5,4.1-0.1c2.6,0.7,5-0.5,7.4-1c2.5-0.5,4.6-0.4,6.8,0.6
		c2.8,1.3,5.8,1.1,8.8,1c2-0.1,3.7,0.5,5,1.9c4.6,5.3,10.8,6,17,5.4c7.1-0.7,14.1-1.8,21-3.6c1.9-0.5,3.9-1,5.7-1.6
		c3-1,5-2.6,6.2-5.9c1.5-4.1,3-8.5,6.8-11.3c1.1-0.8,1.7-2,1.7-3.4c0-1,0.1-2.2,0.6-3c1.8-3.1,0.1-4.3-2.4-5.5
		c-1.9-0.9-2.6-2.6-2-4.7c0.4-1.3,0.3-1.9-1.3-2.6c-1.6-0.8-2.2-2.6-2.9-4.7c-1-3.3,0.9-6.5-0.9-9.6c-0.8-1.4-0.1-2.9,1.1-4
		c1.2-1.1,2-2.4,1.9-4.1c-0.1-1.8,1.4-2.5,2.6-3.3c1.3-0.8,2-1.9,2.1-3.4c0.1-3,1.8-4.9,4.2-6.5c2.2-1.4,4.7-2.4,6.5-5
		c-1.1,0-1.8-0.1-2.5,0c-3.6,0.4-6.4-0.8-8.1-4c-1.9-3.4-5.2-4.5-8.7-5c-1.8-0.3-3.3-1.1-4-2.6c-1.6-3.3-4.5-4-7.7-4.4
		c-1.1-0.1-2.2-0.3-3.3-0.5c-1.9-0.5-4-1-4.4-3.1c-0.4-2.2,1-4,2.8-5.3c1.9-1.4,4-2.7,6.2-4.2c-1.8-0.3-3,0.5-4.2,1.1
		c-2.8,1.3-5.7,2.7-8.4,4.2c-4.4,2.5-8.5,2-12.3-1.3c-1.7-1.5-3.5-2.1-5.7-2.1c-2.7,0-5.4,0.2-8.1-0.4c-3-0.6-6.5,0-8.7,1.7
		c-2.9,2.2-4.6,5.7-4.8,9.8c-0.2,3.4,1.1,5.9,3.9,7.3c2.9,1.4,6.1,1.3,8.9-0.8c2.3-1.7,3.3-5.3,2.2-7.7c-0.7-1.4-1.5-2.7-3.3-2.4
		c-1.6,0.2-2.5,1.5-3.1,2.9c-0.1,0.3,0,0.8-0.1,1c-0.4,0.4-0.3,1.4-1.1,1.3c-0.8-0.1-1-0.9-0.9-1.6c0.1-2.4,2.7-5,5.1-5.1
		c2.9-0.2,5,1.5,5.5,4.4c0.5,3.1-1,7.2-3.9,8.8c-3.7,2.1-8.2,2.2-11.5-0.3c-2.3-1.7-3.6-6.2-2.9-9.3c1.9-8.3,7.9-13.4,14.4-17.9
		c11.3-7.8,24.1-12.1,37.5-14.5c3.9-0.7,7.7-1.3,11.6-1.6c0.5,0,1.2,0.3,1.4-0.3c0.3-0.8-0.5-0.9-0.9-1.3
		c-4.4-4.2-9.6-7.9-11.3-14.2c-0.8-3.1-2.3-6-2-9.4c0.1-1.5,0.6-2.7,1.6-3.7c1.3-1.3,2.6-2.6,3.7-4.1c1.2-1.7,3.2-1.6,5.2-1.6
		c1.9,0,3.8,0.2,6.2,0.9c-3.1-3.6-6.3-5.9-10.6-6c-5.3-0.2-8.8-5.2-9.7-9.7c-0.6-3.1-0.4-6.3-0.5-9.5c-0.1-2,1.2-3.5,2.4-4.7
		c1.4-1.5,2-3,1.9-5c-0.1-0.7-0.3-1.6,0.5-2.2c1.7-1.5,1.3-2.4-0.7-3c-3.8-1.1-5.9-4.6-8.9-6.9c-2.6-2-5.9-2.9-8.6-4.7
		c-2-1.3-3.6-3-4.6-5.2c-1.9-4.4-4.9-7.7-8.6-10.7c-3.2-2.6-4.5-6.5-4.7-10.4c-0.4-9-5.2-14.8-12.8-18.9c-2.1-1.1-4.3-2-5.8-3.9
		c-0.5-0.6-1-0.9-1.8-0.9c-7.5-0.2-14.8,0.3-21.6,4c-7.3,3.9-10.7,13.7-7,19.7c2.2,3.6,5.4,5.8,9.7,5.5c3.8-0.2,7.1-1.7,8.6-5.7
		c1.6-4-1-7.8-5.2-7.6c-2.1,0.1-2.7,1.7-3.5,3.1c-0.4,0.7-0.7,1.6-1.6,1.3c-0.9-0.4-0.3-1.2-0.2-2c0.3-3,3.4-4.3,6.9-4
		c2.6,0.2,5.1,2.6,5.5,5.2c1,8.1-5.5,11.7-12.3,11c-6.7-0.7-9.6-5-11-10.9C37.4,115.2,37.4,113.8,37.4,112.3z M462.6,174.5
		c-4.7-3.7-10.2-4.8-15.9-4.7c-3.8,0.1-7.7,2.1-11-1.3c-0.6-0.7-1.5-0.4-2.3-0.4c-1.2,0-2.3,0.1-3.4-0.1c-1.8-0.3-3.6-1.4-3.9-2.9
		c-0.2-1.2,1.9-1.7,3.1-2.1c0.9-0.4,1.9-0.8,2.8,0.2c0.3,0.3,1.1,0.4,1.3-0.3c0.2-0.8-0.2-1.1-1-1.1c-1.3,0-2.6,0.1-3.9,0.5
		c-2,0.6-3.5,2.2-5.5,2.6c2.9-4.3,5.7-8.4,8.5-12.6c2.1-3.2,4.4-6.3,5.5-10c0.2-0.6,0.3-1.3-0.2-1.7c-0.2-0.2-0.7-0.1-1,0
		c-0.8,0.3-0.3,0.9-0.3,1.5c-0.2,2.3-1.2,4.1-3.2,5.3c-2.4,1.4-4.9,1.7-7.6,1.6c-3-0.2-5.1,1.1-6.8,3.4c-1.1,1.5-2.2,3.4-4.6,2.9
		c-3-0.6-4.9,0.6-5.8,3.5c-0.1,0.4-0.4,0.8-0.7,1.1c-0.3,0.3-0.6,0.8-1.1,0.6c-0.6-0.2-0.4-0.7-0.4-1.1c0-1.6,0-3.2,0-4.8
		c0.1-2,0.3-3.8,2.8-4.2c0.4-0.1,0.9-0.4,0.6-0.9c-0.2-0.4-0.7-0.5-1.1-0.6c-0.6-0.3-1.4,1-2-0.3c-0.7-1.7-3-3-1.1-5.3
		c0.3-0.4,0.2-0.9-0.3-1.3c-1.5-1.2-2.8-2.7-4.5-3.8c-1.5-1-2.7-2.4-2-4.5c0.3-0.8-0.2-1.9-1.1-1.6c-1,0.3-1-0.3-1.2-0.7
		c-0.9-2.1-2.5-2.7-4.7-2.6c-0.6,0-1.8,0.4-1.8-0.5c-0.3-2.9-1-3.2-2.6-0.7c0,0.1-0.6-0.1-0.9-0.3c-1.4-1.2-2.2-2.5-0.7-4.3
		c0.4-0.5,0.7-1.2-0.1-1.5c-0.5-0.2-0.9,0.4-1.1,0.9c-0.2,0.5-0.4,1-0.6,1.4c-0.3,0.8,0.7,2.3-0.9,2.2c-1.2-0.1-1.3-1.4-1.2-2.5
		c0.1-0.9-0.2-1.9,0.3-2.8c0.4-0.6,1-1.3,0.5-2.2c-0.1-0.2-0.7-0.4-0.9-0.2c-0.8,0.5-0.7,1.5-1,2.3c-0.2,0.5-0.1,1.1,0,1.6
		c0.7,5.1,1.2,10.2,2.4,15.2c1.2,5.1,2.5,10.2,3.7,15.5c-1.2-0.5-2.2-1.3-3.4-0.4c-0.9,0.7-1.3-0.1-1.7-0.6
		c-0.9-1.1-1.7-2.4-2.6-3.5c-1.6-2-3.5-3.6-6.4-3.5c-5.5,0-8.9-3.8-8.5-9.2c0-0.5,0.2-1.2-0.5-1.3c-0.6-0.1-1,0.5-1,1
		c-0.1,1.4-0.2,2.9,0,4.2c2.8,13.7,11.1,23.8,21.4,32.5c2.6,2.2,5.4,3.9,8,6.1c-1.1-0.3-1.8,0.9-3,0.3c-4-2-6.9-5.4-10.4-8.1
		c-3.8-3-7.7-5.9-12.5-7.2c-2.1-0.5-4.4-0.8-6.2,0.9c-1.4,1.3-0.9,2.9,0.2,4c1,1.1,2.4,0.8,3.4-0.4c1-1.3,0.2-1.9-1-2.4
		c0.4,0.9,0.8,1.7-0.3,2.2c-0.9,0.4-1.5-0.2-2-0.8c-0.9-1,0.1-1.9,0.6-2.2c1.1-0.7,2.3-1.2,3.9-0.9c4.2,0.9,7.7,3.1,11.1,5.4
		c1.4,0.9,2.5,2.2,3.8,3.2c1.2,1,2.7,1.7,3.7,3.8c-4.6-3.1-9.1-4.6-13.9-5.6c-3.5-0.7-7.1,0.9-7.7,3.6c-0.2,1.2,0.2,2.2,1.2,2.5
		c1.1,0.3,2.5,0.7,3.2-0.8c0.5-1,0.6-2-1.8-2.4c1.5,1,1.6,1.8,0.8,2.5c-0.7,0.5-1.3,0.3-1.9-0.2c-0.7-0.7-0.9-1.3-0.4-2.3
		c0.8-1.8,2.4-1.8,3.9-1.9c6.7-0.3,12.2,3,17.6,6.3c0.6,0.4,1,1,0.9,1.8c-0.1,2.3,1.3,2.4,3.1,2c0.4-0.1,0.6-0.5,1.2-0.2
		c4.5,2.1,9.2,3.4,14.1,3.8c3.2,0.3,6.5,0.6,9.8-1c-1.2-0.7-2-1.2-3.2-1.8c4.8-1.1,9.4-1.9,13.8-3.6c5.2-2,9.9-5,15.3-6.4
		c5.5-1.4,11-2.2,16.4-0.2c2.1,0.8,4.9,1.2,5.1,4.5c0.1,0.9,1.2,1.7,2.4,0.8C462.6,176.3,462.6,175.4,462.6,174.5z"/>
</g>
</svg>
