<?xml version="1.0" encoding="utf-8"?>
<!-- Generator: Adobe Illustrator 21.0.0, SVG Export Plug-In . SVG Version: 6.00 Build 0)  -->
<svg version="1.1" id="Layer_1" xmlns="http://www.w3.org/2000/svg" xmlns:xlink="http://www.w3.org/1999/xlink" x="0px" y="0px"
	 viewBox="0 0 500 500" style="enable-background:new 0 0 500 500;" xml:space="preserve">
<g>
	<path d="M425.5,461.6c-2.4-3.3-3.9-7-5.5-10.7c-1.9-4.2-3.8-8.5-5.5-12.7c-0.8-2-2.1-3.4-4.1-4.3c-1.6-0.8-3.2-1.7-4.8-2.4
		c-1.6-0.7-3.2-1.3-5-0.8c-0.8,0.2-1.5,0-2.1-0.8c-1.2-1.5-2.9-2.1-4.7-2.2c-2.4-0.2-4.3-1-5.9-2.7c-1.7-2-3.9-2.6-6.4-2.8
		c-1.3-0.1-2.5-0.4-3.5-1.4c-0.6-0.6-1.3-0.9-2.1-1.2c-10.7-3.9-21.4-7.6-32.2-11.2c-1.1-0.4-1.8-0.2-2.6,0.7
		c-1.7,1.8-3.6,3.4-5.7,4.7c-5.7,3.6-11.2,3.2-16.4-1c-2.5-2-4.4-4.5-6.1-7.1c-0.5-0.7-1-1.4-1.4-2.2c-1.7-3.9-4.7-6.5-8-9
		c-6-4.5-12.3-8.5-18.7-12.3c-5.4-3.2-10.8-6.5-15.8-10.3c-7.9-6-14.5-13.2-20.5-21c-2.9-3.8-5.7-7.6-8.2-11.6
		c-1.6-2.5-3.6-4.7-5.4-7c-1.9-2.4-3.8-4.9-5.4-7.5c-1-1.6-1-1.6-2.6-0.8c-0.1-0.1-0.2-0.2-0.2-0.2c0.9-1.6,0.4-2.9-0.7-4.4
		c-3.2-4.2-6.6-8.1-10.7-11.5c-0.6-0.5-1.1-1-2-1.3c0.2,1.3,0.3,2.4,0.5,3.6c1.2,7.8,1.9,15.7,1.6,23.6c-0.1,3.8-0.5,7.5-1.4,11.2
		c-0.8,3.1-2,6-3.8,8.6c-2.3,3.4-5.4,5.5-9.6,6.1c-1.9,0.3-3.8,0.1-5.5-0.7c0.1-0.6,0.5-0.6,0.8-0.6c1.2-0.1,2.3-0.3,3.5-0.3
		c2.6-0.2,4.6-1.5,5.7-3.9c2.3-5,2.2-9.8-1.2-14.3c-0.2-0.3-0.6-0.5-0.6-1c0.5-0.6,1.2-0.4,1.8-0.5c4.1-0.3,6-1.9,7-5.9
		c0.6-2.5,0.9-5,0.7-7.5c-0.4-6.4-0.9-12.8-2.2-19.1c-0.2-0.9-0.4-1.6-1.3-2.1c-5.9-3.8-11-8.6-15.9-13.6c-0.4-0.4-0.7-1-1.4-1.2
		c-0.5,1-0.5,2.2-0.7,3.2c-0.8,3.3-1.8,6.4-3.7,9.2c-1.7,2.5-3.8,4.4-6.7,5.3c-1.8,0.6-2.7,0.6-4.1,0.1c0.1-0.5,0.6-0.5,1-0.6
		c5.6-1.4,7.4-6.4,7.2-10.5c-0.1-2.1-0.6-4.2-1.9-5.9c-0.8-1-0.9-1-1.9-0.1c-3.3,3.1-6.6,6.2-9.9,9.3c-2,1.9-3.8,4-5.5,6.3
		c-4,5.3-8.4,10.2-13.4,14.5c-0.7,0.7-1.2,1.3-1.3,2.3c-0.1,0.9-0.4,1.7-1.1,2.3c-0.5,0.4-0.6,1.1-0.8,1.6c-0.8,1.8-1.9,3.3-3.6,4.4
		c-0.4,0.2-0.8,0.4-1.2,0.6c-1.5,0.5-2.3-0.2-2.1-1.7c0.2-1.3,0.8-2.5,1.5-3.6c1.6-2.7,2.2-5.7,2.8-8.8c0-0.2,0-0.5-0.3-0.7
		c-1.2,0.4-1.9,1.3-2.3,2.5c-0.7,2.4-1.5,4.8-2.3,7.2c-0.3,0.8-0.6,1.5-1.5,1.7c-0.8,0.2-1.3-0.1-1.3-1c0-0.4,0.1-0.7,0.1-1.1
		c0-0.3,0.1-0.6-0.1-1c-0.7,0.2-0.8,0.8-1,1.4c-0.3,0.7-0.5,1.4-0.8,2.1c-0.2,0.4-0.5,0.9-0.8,1.2c-0.6,0.6-1.3,0.5-1.9,0.2
		c-0.6-0.3-0.4-0.9-0.3-1.3c0.5-2.2,1.1-4.3,1.6-6.5c0.2-0.9,0.7-1.9,0.5-3c-1.1,0-1.8,0.5-2.5,1.1c-1.1,0.7-2.1,1.6-3.2,2.1
		c-0.8,0.4-1.6,0.6-2.5,0.7c-0.6,0.1-0.9-0.3-1.2-0.8c-0.2-0.4,0.1-0.8,0.3-1c2.3-1.7,4-4,6.3-5.6c1.8-1.3,3.7-2.4,5.6-3.6
		c1.2-0.8,2.5-1.5,3.3-2.9c0.4-0.7,1.1-0.9,1.8-1.1c1.6-0.6,3.3-1.1,4.9-1.8c4.7-1.9,8.5-4.9,11.2-9.3c2.9-4.7,5.6-9.5,8.2-14.3
		c2.5-4.7,4.9-9.5,7.8-14.1c0.4-0.6,0.7-1.3,0.4-2.1c-1.2-3.3-0.8-6.7-0.2-10.1c0.2-1.3,0.4-2.6,0.5-3.8c0.1-0.9,0.2-1.9-1.2-2.2
		c-0.3-0.1-0.4-0.4-0.5-0.7c-0.4-2.1-1.7-3.9-2-6.1c-0.2-1.6-1.5-2.6-2.4-3.8c0.3-0.6,0.9,0.1,1.2-0.6c-1.2-0.7-2-2.1-3.4-2.5
		c-0.5-0.1-1-0.2-0.9-0.9c0-0.2-0.1-0.4-0.3-0.4c-1-0.1-2-0.3-2.8-1.1c-0.2-0.2-0.9,0.1-1.3,0c-0.6-0.2-1.6,0.1-1.4-1.2
		c0-0.2-0.2-0.3-0.4-0.3c-0.1,0-0.2,0-0.4,0c-4-0.1-4.6,0.5-5,4.4c-0.1,0.5,0.1,1.3-0.6,1.4c-0.7,0-0.6-0.8-0.7-1.3
		c-0.3-1.2-0.2-2.3-0.1-3.5c0.1-2.4,0.8-4.7,0.3-7.2c-0.1-0.6,0.6-1.2,0-2c-0.4-0.5-0.4-1.1-1.2-1.1c-0.3,0-0.6-0.3-0.5-0.6
		c0.4-1.8-0.5-3.3-1.1-4.8c-1-2.4-1.5-4.9-2.8-7.1c0-0.1-0.1-0.1-0.1-0.2c0.4-1.9-1.3-1.7-2.2-2c-0.8-0.3-1.4-0.6-1.7-1.5
		c-0.3-1-1.2-1.8-0.6-3.1c0.1-0.2-0.2-0.4-0.5-0.5c-0.5-0.1-1.1,0-1.7-0.5c0.7-0.6,0.8-1.2,0.4-2c-0.6-1.2-0.8-1.5-2-1.2
		c-0.6,0.2-1.2,0.4-1.4-0.5c-0.1-0.6-0.7-0.7-1.3-0.9c-0.9-0.3-1.6-0.8-1.7-1.8c-0.1-1.3-1.1-2-1.6-3.1c-0.3-0.7-1-0.6-1.1,0.1
		c-0.2,1.1-0.6,0.8-1.3,0.5c-0.9-0.5-1.3-1.3-1.7-2.1c-0.3-0.7-0.4-0.7-1-0.1c-0.1,0.2-0.3,0.3-0.4,0.1c-0.6-0.6-1.3,0-1.7-0.2
		c-1.4-0.5-2.8-0.3-4.2,0c-0.6,0.2-1.2-0.2-1.8-0.4c-1-0.3-1.6,0-2.2,0.8c-1,1.4-1.7,3-2.2,4.7c-0.2,0.5-0.3,1.1-0.5,1.6
		c-0.1,0.3-0.3,0.5-0.7,0.5c-0.3-0.1-0.3-0.4-0.3-0.6c-0.3-1.7-0.1-3.4,0.5-5.1c0.8-2,1.9-3.7,3.3-5.3c0.7-0.7,1.3-1.4,2.1-2.2
		c-0.4-0.7-1.4-1.3-0.5-2.3c0.4-0.4-0.1-1.2-0.4-1.7c-0.7-1.3-0.6-1.9,0.3-3c0.5-0.6,0.7-1-0.1-1.6c-1.2-0.8-2.3-1.9-2.2-3.6
		c0-0.2,0-0.5-0.1-0.5c-1.9-0.7-1-2.7-1.8-3.9c-0.5-0.7-0.8-1.6-1.4-2.3c-1.9-2.2-3.9-4.4-6.5-5.9c-0.4-0.2-0.8-0.6-1.3-0.7
		c-1.3-0.1-2.3-0.7-3-1.8c-0.2-0.3-0.5-0.3-0.8-0.3c-1.5,0-3-0.3-4.5-0.7c-0.7-0.2-1.2,0.2-1.6,0.7c-1.3,1.2-2.1,2.7-2.9,4.3
		c-0.4,0.8-0.6,1.6-1.4,2c-0.5-0.3-0.4-0.7-0.3-1c0.3-3,1.4-5.8,3.6-7.9c1.5-1.4,2-3.2,2.7-4.9c0.1-0.2,0.2-0.6,0.1-0.7
		c-1.1-0.8-0.5-2-0.6-2.9c-0.1-1.2-0.6-2.2-0.7-3.4c0-0.3-0.2-0.5-0.5-0.6c-1-0.5-1.6-1.3-1.7-2.4c-0.1-1.2-1.1-2.1-0.8-3.4
		c-1.7-1.1-0.9-3.6-2.6-4.7c-0.3-0.2-0.2-0.8-0.4-1.2c-0.1-0.4-0.2-0.7-0.6-0.9c-2.4-1.1-4-3.1-5.3-5.2c-0.9-1.4-2.2-2.8-2.3-4.8
		c-1,0.6-1.8,1-2.5-0.1c-0.3-0.5-0.9-0.4-1.4-0.3c-0.6,0.1-1.3,0.1-1.7,0c-0.5-0.2-1-0.4-1.5-0.7c-2.3-1.1-4.5-0.5-5.9,1.7
		c-0.4,0.7-0.7,1.6-1.1,2.3c-0.3,0.7-0.6,1.5-1.1,2.1c-0.7,0-0.6-0.8-1-1c0-0.5,0-1,0-1.5c0.2-0.4,0.5-0.7,0.6-1.1
		c1-3.7,3.7-5.9,7-7.4c3.2-1.4,6.5-1.9,10-1.7c5.8,0.2,11.6,1.1,17,3.4c13.6,5.8,26.1,13.4,37.5,22.8c13.5,11,25.9,23.1,37.9,35.7
		c0.5,0.5,0.9,1.2,1.5,1.4c0.4-0.2,0.4-0.4,0.4-0.7c0.3-1.6,0.4-3.3,0.2-5c-0.3-2.3,0.1-4.7,0-7c0-1,0-2.1-0.5-3.1
		c-0.5-1-0.8-2.1-1.1-3.1c-0.6-1.9-1.1-3.9-2-5.8c-1-2.2-1.9-4.4-2.7-6.7c-0.9-2.3-2.2-4.3-3.1-6.6c-1.3-3.2-2.9-6.3-4.5-9.3
		c-3.8-7.4-7.6-14.9-12.2-21.8c-2.6-3.8-5.3-7.4-8.7-10.5c-2.8-2.6-5.9-4.5-9.7-5c-0.3,0-0.6-0.2-0.9-0.2c-0.4-0.1-0.6-0.3-0.6-0.8
		c0.4-2.7-0.6-5-1.9-7.2c-4.5-8.1-11.3-13.2-20.1-15.8c-0.7-0.2-1.4-0.2-2.1-0.7c0.7-0.6,1.3-0.7,2-0.8c1.9-0.3,3.8,0,5.6,0.7
		c3.3,1.1,6.3,2.9,9.1,5c7.8,5.7,14.5,12.6,20.2,20.5c7.1,9.8,13.2,20.3,18.8,31c1.8,3.4,3.4,6.8,5.2,10.2c0.8,1.5,0.8,1.5,2.4,1.4
		c1.2-0.1,2.4,0.2,3.4,0.5c1.1,0.4,2.1,0.4,3.2,0.3c3.1-0.1,6.2-1.3,9.3-1.1c0.5,0,1-0.1,1.4-0.4c1-0.8,2.3-1.2,3.3-1.9
		c5-3.4,10.4-4.9,16.5-3.9c2.4,0.4,4.8,1.1,7.2,1.7c1,0.3,1.9,0.7,3,0.6c0.3-0.5,0.1-0.9,0.1-1.4c-0.5-3.4-0.9-6.7-1.1-10.1
		c-1.1-12.9-0.8-25.7,1.6-38.4c1.4-7.3,3.7-14.3,7.4-20.9c5.5-9.7,13.3-16.6,24.1-19.9c0.5-0.2,1.1-0.2,1.5-0.6c0.6,0,1.2,0,1.9,0
		c-0.1,0.9-0.9,0.9-1.5,1.2c-3.1,1.5-6.1,3-8.8,5c-6.5,4.7-9.9,11.1-10.5,18.9c-0.3,3.2,0.6,5.9,3.9,7.3c0.1,0,0.1,0.2,0.2,0.3
		c-0.2,0.4-0.7,0.5-1.1,0.6c-8,3.3-13.1,9.3-15.3,17.6c-1.1,4.1-1.5,8.4-1.6,12.6c-0.2,7.9,0.6,15.7,1.2,23.5
		c0.1,1.6,0.4,3.2,0.5,4.8c0.1,0.8,0.5,1.4,1.2,1.7c1.6,0.6,2.8,1.8,4.1,2.8c2.5,2,5.5,2.9,8.5,4c0.5,0.2,1.2-0.1,1.6,0.3
		c1.4,1.2,3.1,1.6,4.7,2.2c2.8,1.1,5.5,2.3,8.3,3.4c1.5,0.6,1.6,0.6,2.5-0.9c1.1-1.9,2.2-3.9,3.2-5.8c13.2-25.2,31.8-45.4,56.1-60.2
		c9.7-5.9,20-10.5,31.2-12.8c6-1.3,12.1-1.8,18.2-0.6c3.6,0.7,6.9,1.9,9.6,4.4c0.6,0.5,1.2,1,1.5,1.9c-0.8-0.1-1.3-0.4-1.9-0.7
		c-1.2-0.6-2.4-1.3-3.7-1.6c-4-1.2-8-2-12,0.2c-1.2,0.6-2.2,1.5-3.3,2.3c-0.6,0.4-0.8,0.9-1.7,0.7c-1.1-0.3-2.4-0.3-2.8,1.3
		c-0.1,0.3-0.3,0.3-0.5,0.4c-0.9,0.5-1.8,0.7-2.8,0.2c-0.2,0.9,0.8,1.6,0.5,2c-0.8,1.2-0.5,2.2-0.1,3.2c0,0.1-0.3,0.3-0.3,0.4
		c-0.1,2-1.7,3.4-2.3,5.2c-0.3,0.7-0.6,1.4-1.4,1.5c-0.5,0.1-0.5,0.4-0.5,0.8c0.1,0.6,0.4,1,0.6,1.5c0.3,0.7-1,0.8-0.6,1.5
		c0.1,0.2,0.1,0.5,0.1,0.7c0.1,0.9,0.6,1.6,1.1,2.3c0.1,0.1,0,0.2,0,0.3c-0.2,0.3-0.8-0.1-1,0.6c1,0.3,1.3,1.2,1.4,2.2
		c0,0.5,0.1,0.9,0.5,1.2c1,0.9,0.1,1.8,0,2.7c-0.1,1.1-1.1-0.1-1.4,0.6c0.9,0.7,0.8,2.1,1.5,2.7c1,0.9,1.2,2.5,2.6,2.9
		c0.1,0,0.3,0.3,0.1,0.4c-0.7,0.5-0.3,0.8,0.2,1c2,1,4.1,1.9,6.3,2.5c3.2,0.8,6.5,1.6,9.6,2.8c1.6,0.6,3.2,1.3,4.6,2.3
		c0.7,0.5,1.3,1,1.6,2.2c-2.6-1.1-5-2.2-7.5-2.8c-3.2-0.8-6.3-1.8-9.6-0.1c-1.6,0.9-3.5,1.6-5.5,1.8c-0.5,0.1-0.7,0.3-0.8,0.9
		c-0.1,1.1-0.8,1.8-2,2.1c-0.9,0.3-2,0.6-2.5,1.5c-0.5,0.8-1.3,1.2-1.7,1.8c-0.7,1-2.4,1.5-1.9,3.3c0,0.1-0.1,0.4-0.2,0.5
		c-1.3,0.5-1,2-1.7,2.9c-0.9,1.1,0.2,2.4-0.1,3.6c-0.1,0.3,0.7,0.9,1.1,1.3c0.2,0.2,0.4,0.2,0.4,0.5c-0.1,0.7-0.9,0.8-1.1,1.4
		c1.8,1.8,1.7,1.7,0.8,4c-0.3,0.6-1.1,0.6-1.2,1.4c0.4,0.2,1,0.8,1.4,0.7c1.3-0.4,2,0.7,3,1c0.7,0.2,0.9,0.7,0.7,1.4
		c-0.2,1.2,0.3,2,1.4,2.3c0.4,0.1,0.7,0.1,1,0.2c0.2,0.3,0,0.5-0.1,0.7c-0.4,0.7-0.2,1,0.5,1.1c0.3,0.1,0.6,0.1,0.9,0.2
		c3.4,0.5,6.6,1.4,9.8,2.6c2.3,0.9,4.5,2,6.4,3.6c0.9,0.7,1.7,1.5,2.3,2.6c-0.9,0.1-1.4-0.4-1.9-0.6c-2.7-1.2-5.3-2.6-8.1-3.6
		c-1.9-0.7-3.7-0.8-5.5,0.4c-0.7,0.5-1.4,0.9-2.4,1c-2.3,0.1-4.6,0.3-6.5,1.9c-0.3,0.2-0.6,0.2-0.9,0c-0.7-0.6-1.1-0.2-1.4,0.4
		c-0.2,0.4-0.4,0.9-1,1.1c-0.1-0.2-0.2-0.4-0.3-0.6c-0.2-0.3-0.1-0.8-0.6-0.7c-0.5,0.1-0.7,0.5-0.6,1c0.1,0.4,0.1,0.7,0.1,1.1
		c0.2,1.3-0.9,1.7-1.6,2.2c-0.6,0.5-1.3,0.2-1.8-0.4c-0.7-0.7-1.7-0.5-2.5-0.4c-0.3,0.9,1,1.3,0.6,1.6c-0.9,0.9-0.2,1.5,0.1,2.2
		c0.5,1.3,0.3,1.9-0.8,2.6c-0.5,0.3-1.1,0.2-1.4,0.8c-0.2,0.5,0.1,1.1-0.1,1.7c-0.8,0-1.4,0-2.1,0c-0.7,0-1.3,0.3-1.9,0.7
		c-0.1,0.1-0.3,0.3-0.3,0.4c0.4,0.6,0.5,1.2,0.7,1.8c0.1,0.4,0.7,0.4,1.1,0.4c0.3,0,0.7-0.2,0.9,0.2c-0.7,1-2,0.9-3,1.5
		c0.9,0.9,2.6,1.2,1.9,2.9c-0.2,0.4,0.7,1,0.2,1.5c-0.4,0.5-1,0.6-1.6,0.8c-1,0.3-1.5,1.5-2.8,1.3c0.8,0.7,0.9,1.6,1.1,2.4
		c0.4,1.3-0.1,2.8,1.1,3.9c0.1,0.1,0.2,0.3,0.1,0.5c-0.1,2,1,3.6,1.6,5.4c0.2,0.6,0.3,1,0.9,1.2c0.3,0.1,0.7,0.3,0.6,1
		c-0.7,0.3-2.1,0.3-1.3,1.7c-0.6,1.1,0,1.5,1,1.4c0.6,0,0.8,0.3,0.9,0.7c0.2,1.4,1.3,2,2.3,2.7c1.5,1.2,3,2.4,4.4,3.7
		c0.8,0.8,1.6,1.7,2.2,2.7c0.2,0.3,0.5,0.7,0.1,1.2c-1-0.8-1.9-1.5-2.8-2.2c-1.2-1-2.5-1.4-4.1-1.4c-2.6,0-5.1,0.7-7.5,1.2
		c0,0.6,0.7,0.5,0.8,1c-0.5,0.3-0.9,0.6-1.4,0.8c-0.7,0.2-1.4,0.3-2.1,0.6c-0.3,0.1-1,0-0.9,0.4c0.3,1.3-0.9,1-1.4,1.4
		c-0.5,0.3-1.2,0.1-1.7,0.6c-0.1,0.5,0.7,0.5,0.5,1.1c-1.9,1-3.5,2.9-4,4.5c0.8,0.2,1.4-0.8,2.3-0.6c0.1,0.5,0,1-0.2,1.4
		c-0.9,1.8-0.4,3.3,0.6,4.8c0.3,0.4,0.6,0.8,0.5,1.3c-0.3,1.5,0.4,2.7,1.2,4c-1.4,0-2.2,1.2-3.5,1.4c-1.7,0.2-3.2,0.3-4.8-0.6
		c-0.8-0.4-1.7-1-2.5-1c-2.1,0-3.1-1.9-4.8-2.4c-0.1-1-1.4-0.7-1.6-1.6c-0.2-0.7-0.6-1.1-1.4-1c-0.4,0.1-0.8-0.2-1-0.5
		c-0.7-1.2-2.1-1.9-2.8-2.9c0.2-0.7,1-0.7,1.1-1.4c-1.5-0.3-3-0.6-4.5-0.9c-0.6-0.1-1.4,0.2-1.5-0.9c0-0.3-0.3-0.3-0.6-0.2
		c-0.8,0.5-1.4-0.1-2.1-0.3c-0.9-0.4-1.8-0.6-2.8-0.7c-1.4,0-2.8-0.4-4-1.4c-0.7-0.6-1.3-0.7-2.2-0.7c-1.3,0.1-2.6,0.1-3.9-0.3
		c-0.5-0.2-1.1-0.2-1.2-0.8c-0.2-1.3-1.1-1.3-2.1-1.1c-0.4,0-0.7,0.1-1.1,0c-1.4-0.3-2.7-0.2-3.9,1c3.1,3.2,5.6,6.8,8.4,10.2
		c0.6,0.7,1.3,1.1,2.1,1.5c6.1,3.1,11.8,7,17.1,11.4c7.2,5.9,13.7,12.5,19.7,19.5c2.5,2.9,5.1,5.6,8.2,7.7c4.8,3.4,10,4.7,15.8,3.3
		c0.7-0.2,1.4-0.4,2.2-0.1c-1.4,3.8,0.3,6.5,3,8.9c1,0.8,2.1,1.6,3.2,2.2c5.3,2.9,10.9,3.7,16.8,3.2c0.5,0,1-0.3,1.7,0.1
		c-0.5,0.8-1.3,0.9-2.1,1.1c-2.4,0.7-4.9,0.8-7.3,0.6c-8.5-0.6-16.5-3-23.7-7.6c-0.3-0.2-0.5-0.5-1-0.4c-0.1,0.3,0.1,0.5,0.2,0.6
		c6.7,8.3,13.3,16.5,20,24.8c0.6,0.7,1.3,1.1,2.2,1.1c0.7,0,1.4,0.1,2,0c3.4-0.4,6.5,0.5,9.6,1.6c4.2,1.4,7.5,4,9.6,7.9
		c1.3,2.3,2.4,4.6,3.6,6.9c0.3,0.6,0.1,0.9-0.3,1.2c-0.9,0.6-1.8,0.4-2.6,0c-1.2-0.7-2.2-1.6-3.2-2.6c-2.4-2.4-4.9-4.5-7.7-6.3
		c-0.6-0.4-1.2-0.6-1.9-0.5c-1.3,0.2-2.6,0.3-3.8,0.8c-1,0.5-2.1,0.7-3.2,0.4c-0.6-0.1-1.2-0.1-1.8,0.3c-2,1.4-2.5,4.5-0.9,6.3
		c0.8,0.9,1.7,1.8,2.6,2.7c0.8,0.9,1.4,1.9,1.4,3.1c0,0.8-0.1,1.8-1,2.2c-0.9,0.5-1.6,0-2.3-0.6c-1.1-1-2.3-2-3.6-3.1
		c-0.3,2,0.3,3.6,1.3,5.1c1.4,2.3,3.5,4,5.8,5.3c5.8,3.4,12,4.8,18.7,3.6c2-0.4,3.9-0.8,6.1-0.8c-0.3,0.8-1,1-1.5,1.2
		c-4,1.5-8,2.6-12.3,2.3c-3.1-0.2-6.1-0.6-9.2-1.3c-9.3-2.1-17.4-6.4-24.9-12.2c-5.5-4.3-10.3-9.4-14.8-14.7
		c-0.5-0.6-1.1-1.3-1.9-2.2c0.1,2,0.9,3.4,1.4,4.9c3.4,10,7.1,19.8,9,30.3c1.7,9.4,4.7,18.5,7.2,27.8c0.1,0.4,0.1,0.9,0.6,1
		c0.1,0,0.3-0.1,0.4-0.1c0.3-0.2,0.6-0.5,0.8-0.7c3.8-3.7,8.2-6.3,13.4-7.6c3.8-1,7.5-2.4,11-4.4c1.5-0.8,3-1.5,3.9-3
		c0.3-0.4,0.7-0.7,1.2-0.9c1.3-0.5,1.5-1.5,1.5-2.7c0-2.5,0.2-5.1,1-7.5c1.2-3.8,2-5.3,7.5-5.1c0.4,0,0.9,0.1,1.3,0.2
		c3.5,0.6,6.8,1.9,9.9,3.6c3.4,1.8,6.7,3.7,10.5,4.5c0.7,0.1,1.3,0.5,1.9,0.7c3,1.4,5.2,3.5,6.8,6.3c0.9,1.6,1.5,3.4,1.1,5.3
		c-0.8,3.9-2,7.6-3.7,11.2c-0.5,0.9-1,1.9-1.7,2.6c-1.1,1.1-2.2,1.1-3.2-0.1c-0.7-0.9-1.3-1.8-1.9-2.8c-1.7-2.7-3.7-5.3-5.8-7.6
		c-0.4-0.4-0.7-0.9-1.4-0.3c-1.6,1.2-3.3,2.4-4,4.5c-0.4,1.1-1.2,2-2.1,2.7c-1.1,0.8-2.2,1.6-2.8,2.9c-0.3,0.5-0.8,1-1.4,1.2
		c-1.9,0.4-3.2,1.8-4.4,3.2c-0.3,0.3-0.6,0.6-1,0.8c-2.6,1.3-4.4,3.6-6.6,5.3c-0.9,0.7-0.8,0.9,0,1.6c2.6,2.2,5.3,4.4,8.4,6.1
		c3,1.6,6,3.3,8.9,4.9c2.1,1.1,4.1,2.2,6.5,2.6c0.6,0.1,1.3,0.3,1.6,0.8c0.8,1.1,1.8,1.6,3.2,1.6c0.4,0,0.7,0.1,1,0.3
		c0.8,0.5,1.2,0.2,1.7-0.5c0.8-1.2,1.7-2.4,2.7-3.5c1-1.1,2.1-1.7,3.6-1.7c1.2,0,2.3,0.4,3.4,0.9c2.3,1.1,4.1,2.8,5.7,4.7
		c2.5,3,4.4,6.4,5.9,10c1.9,4.4,4.5,8.5,7.6,12.2c1.5,1.7,3,3.5,4.3,5.3c2.5,3.3,3.8,7.1,4,11.3c0,1,0,2,0.4,2.9c0,1.4,0,2.7,0,4.1
		c-0.3,0.8-0.3,1.5-0.3,2.3c0,2.1-0.1,4.2-0.4,6.2c-0.4,2.2-0.7,4.4-2.6,5.9C427.5,461.6,426.5,461.6,425.5,461.6z M343.6,319.2
		c-0.1-0.7-0.4-0.9-0.7-1.1c-2.3-1.3-3.3-3.4-4.1-5.7c-0.4-1-0.8-1.9-1.2-2.9c-0.9-2.5-2.4-4.7-4.1-6.8c-3.5-4.3-7.7-8-12.1-11.5
		c-7.6-5.9-15.4-11.5-22.6-17.9c-1-0.9-1.1-0.9-2.7,0.2c0.3,0.7,0.5,1.4,0.8,2c3.1,7.2,6.7,14.2,11,20.8c3.6,5.6,7.6,10.8,12.5,15.3
		c3.6,3.3,7.5,6,12.2,7.5C336.3,320.2,339.9,320.4,343.6,319.2z M249.9,238c-0.4,0.4-0.4,0.9-0.4,1.3c-0.3,4.6-0.5,9.2-0.8,13.9
		c0,0.5,0,1,0.4,1.3c0.1,0.1,0.4,0.5-0.1,0.5c-0.6,0.1-0.5,0.5-0.2,0.7c0.7,0.3,0.6,0.9,0.6,1.4c0,1.7,0,3.5-0.1,5.2
		c-0.1,1.1,0.1,2.2,0.6,3.2c0.6,1.1,0.9,2.3,0.9,3.5c0,1.1,0.4,2,1.2,2.8c0.6,0.6,1.2,1.3,1.7,1.9c1.3,1.5,3,2.4,4.9,2.8
		c1.9,0.4,3.9,0.6,5.9,0.6c2.7,0,2.4,0.1,1.7-2.3c-2.7-9.3-5.9-18.4-10-27.2c-1.2-2.6-2.5-5.1-4.1-7.4
		C251.6,239.3,251,238.4,249.9,238z M236.2,169.6c-0.1,0.4-0.2,0.7-0.3,0.9c-0.5,1.2-0.5,1.3-1.7,0.9c-0.9-0.3-1.8-0.1-2.7-0.3
		c-0.3-0.1-0.7,0-0.7,0.4c0,1.4-1.2,2.3-1.5,3.5c-0.7,3-2,5.7-3.4,8.4c-1.5,2.9-2.5,6-3.3,9.2c-0.3,1.2-0.3,1.3,1,1.6
		c2.1,0.4,4.1,0.7,6.2,0.9c1.7,0.2,1.8,0.2,2.5-1.4c3.3-7.6,6.1-15.5,9.1-23.2c0.2-0.5,0.3-0.9,0.3-1.4c0.1-0.3,0-0.7-0.4-0.7
		c-0.3,0-0.4,0.2-0.4,0.5c0,0.9-0.5,1-1.2,0.9c-0.8-0.1-1.6-0.1-2.3,0.5C236.8,170.7,236.7,169.9,236.2,169.6z M220.8,193.3
		c1.4-5.2,3.6-9.9,5.7-14.7c0.2-0.6,0.4-1.2,0.7-1.7c0.6-1.1-0.3-1.7-0.7-2.4c-0.4-0.5-1.1,0-1.6,0.4c-0.1,0.1-0.4,0.2-0.5,0.2
		c-0.7-0.7-1-0.1-1.4,0.3c-0.2,0.3-0.6,0.6-1,0.5c-0.9-0.2-1.2,0.4-1.6,1c-2.7,3.6-3.9,7.8-4.1,12.3c0,0.3,0,0.6,0.2,0.9
		C217.6,191.4,218.7,192.8,220.8,193.3z M297.8,283.4c-1.2-2.8-2.5-5.5-3.7-8.3c-0.1-0.3-0.4-0.3-0.8-0.3c-1.4-0.1-1.3,2.1-2.8,1.8
		c-0.6,1,0,2.9,1.1,3.4c1.9,0.9,3.8,2,5.5,3.4C297.2,283.6,297.4,283.6,297.8,283.4z M184.6,175.5c-0.5,0.1-0.6,0.7-0.8,1.1
		c-0.8,1.3-0.7,2.8,0.3,4c1.3,1.5,2.5,3,3.8,4.5c0.3,0.3,0.4,0.8,1.1,0.6c-0.2-1.4-0.3-2.9-0.5-4.4c0-0.4-0.3-0.7-0.6-0.9
		c-1.3-1-2.1-2.4-2.6-3.9C185.2,176.2,185.1,175.7,184.6,175.5z M277.6,276.8c-2.1-2.1-4.7-2.1-7.2-2.4c-0.2,0-0.4,0-0.5,0
		c-0.4,0-0.5,0.2-0.5,0.6c0,1,0.8,1.8,1.8,1.8C273.3,276.8,275.5,276.8,277.6,276.8z M183.1,287.5c2.9,0.4,4.8-0.7,5.6-2.9
		c0.2-0.6,0.1-1.1-0.4-1.5c-0.5-0.4-0.8,0.1-1.1,0.4C185.9,284.8,184.6,286,183.1,287.5z M179.7,153.8c0.2-1.4,1.4-2.8-0.6-3.9
		c-0.2-0.1-0.2-0.4-0.2-0.7c-0.3-0.8-0.9-1.5-1.6-2.1C177.8,149.4,178.7,151.6,179.7,153.8z M180.8,156.9c0.2-0.7,0.3-1.3,0-2
		C180.2,155.6,180.1,156.1,180.8,156.9z M329.1,158.4c0.2,0,0.3-0.1,0.3-0.3c0-0.2-0.2-0.2-0.4-0.2c-0.2,0-0.3,0.2-0.3,0.3
		C328.7,158.3,328.9,158.4,329.1,158.4z"/>
	<path d="M233.8,174c0.1,0.9,0.3,1.4-0.4,1.8C233.1,175.2,233.5,174.8,233.8,174z"/>
</g>
</svg>
