<?xml version="1.0" encoding="utf-8"?>
<!-- Generator: Adobe Illustrator 21.0.0, SVG Export Plug-In . SVG Version: 6.00 Build 0)  -->
<svg version="1.1" id="Layer_1" xmlns="http://www.w3.org/2000/svg" xmlns:xlink="http://www.w3.org/1999/xlink" x="0px" y="0px"
	 viewBox="0 0 500 500" style="enable-background:new 0 0 500 500;" xml:space="preserve">
<g>
	<path d="M160.9,438.7c3.2-1.8,3.6-3.1,2.1-6.2c-0.3-0.6-0.6-1.2-1-1.7c-5.4-6.9-3.2-14.3,2.7-19.7c2.4-2.2,2.9-4.6,2.6-7.5
		c-0.9-8-4.1-15.3-7.2-22.6c-1.1-2.6-2.4-5.2-3.7-8c-3.1,5.9-3.4,8.8-1.8,14.8c0.6,2.2,1.2,4.3,1.6,6.5c0.5,2.7,0,5.2-1.6,7.5
		c-2.9,4.2-2.9,4.2,0,8.4c-2,0.2-3.8-0.1-4.9-1.8c-1.1-1.7-0.8-3.6,0.4-5c3.6-4.3,3-8.8,1.3-13.7c-2.7-7.3-1.1-14.4,2.2-21.1
		c0.7-1.4,0.8-2.5,0.3-4c-3.9-12.6-6.6-25.4-6.9-38.7c0-0.7-0.2-1.5-0.4-2.2c-8.2-22.1-6.1-43.9,3-65.2c9.5-22.3,24.2-40.8,42-57.1
		c1.7-1.6,1.9-2.6,0.3-4.2c-2.8-2.8-5.5-5.6-9-7.5c-2.3-1.3-4.8-2-7.5-2c-5.2,0.1-6-1.4-6-6.6c0-3.3,1.5-6.4,0.6-9.7
		c-0.3-1.1,0.4-1.8,1.4-2.1c3.1-0.9,4.7-3,6.1-5.7c1.3-2.4,3.2-4.4,4.9-6.5c0.9-1.1,1.2-1.8-0.4-2.3c-0.7-0.2-1.5-0.6-1.5-1.5
		c0-0.9,1-1.2,1.6-1.2c4-0.5,7.7-2.3,11.6-3c8.2-1.6,15.1,1,20.9,7c0.6-1.3,0-2.2-0.4-3c-1.3-2.3-2.6-4.8-4.2-6.9
		c-11-14.2-19.3-29.9-27.3-45.9c-10.4-20.9-20.3-42-28-64c-1.5-4.2-2.9-8.5-3.3-13c-0.1-0.8-0.5-1.6,0.4-2.6
		c2.6,10.8,7.4,20.4,13.8,29.1c13.9,19,31.9,33.4,52,45.3c0.1,0.1,0.4,0.1,0.8,0.1c-0.8-4.5-2.4-8.7-4.4-12.6
		c-7.8-15.2-11-31.6-12.6-48.5c-0.6-6.4-0.8-12.8-0.8-19.3c0.6,3.1,1.1,6.2,1.8,9.2c1.9,8,5,15.5,10.1,21.9
		C223,59.3,230.8,74,237.6,89.3c0.7,1.6,1.3,2.7,3.5,2.9c2.9,0.2,4.4,2.4,4.9,5.1c0.3,1.5,0.7,2.2,2.5,2c3.2-0.3,4,0.8,3.4,4
		c-0.2,1.1,0.1,1.3,1,2c2.5,2.1,5,2.7,8.2,2c1.8-0.4,3.2,1.1,4.3,2.7c1.1,1.7,1.7,3.5,2,5.5c0.2,1.4,0.2,2.6,1.9,3.3
		c0.9,0.4,1,1.7,1,2.8c0,1.9,0,3.7,0,5.6c0,1.2-0.7,2.3,1.6,2.5c2,0.2,1.1,2.3,1.1,3.7c3.4-0.3,4.7,0.3,4.6,3.3
		c-0.3,8-0.1,15.9-0.3,23.8c-0.2,6.4-3.5,12.1-6.8,17.6c-0.6,0.9-1.1,1.9-2,3.3c3.3-1,6.2-1.8,9-2.7c4.7-1.3,9.4-1.4,14.1-0.5
		c2.5,0.5,4.7,1.3,6,3.6c0.5,0.8,1.1,1.2,2,0.6c0.2-0.2,0.6-0.3,0.8-0.2c3.5,1.5,5.2-1.4,7.5-2.9c3.2-2,6.5-2.6,10-0.6
		c1.6,0.9,1.7,2,1,3.5c-1,2.1-2.9,3.3-5,5.2c1.8,0,3.1,0,4.5,0c1,0,2.3,0.1,2.6,1.2c0.4,1.2-0.8,1.7-1.6,2.3
		c-0.5,0.4-1.1,0.7-1.8,1.2c2.7,2.2,5.4,4.4,8,6.6c10.4,8.8,20.5,17.9,30.6,27.1c0.3,0.3,0.8,0.6,1,1c0.9,1.3,2.2,2.9,1.2,4.3
		c-1.1,1.5-2.8,0.2-4-0.5c-6.9-4.2-13.6-8.5-20.5-12.7c-4.7-2.8-9.5-5.5-15.1-7.9c0.7,1.8,1.9,3.1,0.9,4.7c-0.5,0.7,0.5,1.4,1,1.8
		c6.5,5.3,9.8,12.6,12.9,20c1.3,3.2,3.3,5,6.4,6c1.4,0.4,2.9,0.9,4.3,1.3c1,0.3,2.2,0.5,2,1.9c-0.2,1.1-1.2,1.7-2.3,1.7
		c-1.8,0.1-3.5,0-5.3,0.1c-0.6,0-1.3-0.2-2.1,0.5c2.7,3,5.4,6.1,8.1,9.1c1.5,1.7,0.4,4.5-1.9,4.9c-1.4,0.2-0.6,1.1-0.4,1.6
		c1.1,3.2,2.1,6.4,3.4,9.5c3.5,8.7,7.2,17.4,10.8,26.1c0.7,1.7,0.9,3.4,0.6,5.2c-0.1,0.6-0.1,1.4-0.9,1.5c-0.8,0.1-1.1-0.6-1.4-1.2
		c-1.1-2.4-2.3-4.7-3.3-7.1c-4-9.4-7.8-19-12.4-28.2c-1-2-2.1-3.9-3.3-5.9c-0.9-1.5-2-2.6-3.8-3c-2.1-0.5-3.7-2.1-5.1-3.8
		c-1.1-1.3-2.1-2.6-3.1-3.9c-0.2,0.2-0.4,0.2-0.5,0.4c-0.5,1.2-0.3,3.3-2,3.3c-1.8,0-2.6-2.1-2.6-3.5c0-3.2-0.8-5.8-3.2-8.1
		c-0.5-0.5-0.7-1.5-0.9-2.3c-1.5-5-2.1-5.5-7.9-6.1c5.8,4.9,7.6,11.4,9.2,18.3c2.3,10,7.8,18.1,16.7,23.5c1.3,0.8,2.2,1.7,2.7,3
		c0.9,2.1,0.3,3.7-1.8,4.2c-1.7,0.4-2,1.1-1.8,2.7c0.2,2.1,0,4-2.9,3.9c-0.6,0-1.2,0.8-1.8,1.2c-1.4,0.9-2.7,1.2-4.1-0.1
		c-0.4-0.4-0.9-0.7-1.4-0.9c-0.9-0.4-2.2-1.1-2.9-0.2c-0.7,0.9,0.5,1.6,1.1,2.3c2.6,3.4,2.6,3.6-1.1,5.6c-0.2,0.1-0.5,0.3-0.6,0.5
		c-1.9,2.1-3.3,1.9-4.1-1.2c-1.8,1.6-2.5,4-5.1,4.1c-0.6,0-0.4,1.1-0.6,1.8c-1.5,5.7-4.7,7.2-9.7,3.8c-2.2-1.5-2.9-1.1-3.7,1.2
		c-1.5,4.4-2.9,8.7-1.3,13.3c0.7,1.8,1.4,3.3,3.7,1.6c0.9-0.7,2.3-0.8,3.4-1.2c6.4-2.2,11,0.2,12.3,6.9c1.5,8.1,5.6,14.6,11.6,20
		c3.9,3.5,5.1,7.6,4.5,12.6c-0.1,1.2-0.5,2.4-1.4,3.3c-1.1,1.1-2.2,2.2-3.9,1.9c-1.7-0.3-1.9-1.9-2.2-3.2c-1.1-4.6-3.5-7.7-8.3-9.3
		c-5.7-1.9-10.5-5.6-15.5-8.9c-1-0.7-2-1.3-3.4-2.3c0.6,4.5,1.2,8.6,1.7,12.6c0.6,5.2,0.2,10.2-1.5,15.2c-2.4,7.3-1.9,14.7-0.8,22.2
		c0.3,1.9,1.4,3.4,2.6,4.9c3.8,4.8,3.8,7.6-0.1,12.1c-3.1,3.5-4.5,7.3-3.5,12.1c1.2,6.4-5.6,14.9-12.2,15.7
		c-1.7,0.2-3.2-0.1-4.3-1.5c-1.1-1.4-0.6-2.8,0-4.2c1.2-2.6,3.1-4.7,4.7-7c1-1.5,2-3.1,1.3-5c-2.6-6.6-2-13.6-2.5-20.5
		c-0.7-8.7-0.8-17.5-1.5-26.3c-0.7-9.4-3.8-18.4-5.6-27.7c-0.8-4.1-1.9-8.2-2.7-12.3c-0.4-1.9-1.3-2.7-3.2-3.2
		c-12.7-3.5-25.1-8-36.4-14.8c-4.1-2.4-8-5.2-11.3-8.6c-2.1-2.2-3.8-4.5-4.1-7.6c-0.3,0-0.5-0.1-0.6,0c-8.3,7.9-16.4,16-24.1,24.6
		c-1.9,2.1-2,3.7-0.4,6.2c10.3,15.7,18.2,32.6,21.2,51.3c3.3,20.5,0.7,40.2-8.5,58.9c-1.8,3.7-4.5,6.9-6.9,10.2
		c-2.5,3.5-5.1,6.9-6.8,10.9c-1.7,3.9-2.1,7.9-0.2,11.9c0.9,2,1.7,4.2,1.8,6.4c0.1,1.9-0.5,3.2-3,3.1c1-1.8,0.6-3.3-0.1-4.9
		c-0.4-0.8-0.7-1.8-1.2-2.5c-6.9-8.9-3.8-17.8-0.1-26.6c1.3-3.1,3.3-5.9,5.4-8.5c10.5-12.6,12.6-27.3,11.1-43
		c-1.7-18.4-8.3-35.3-16-51.9c-1.5-3.3-3.7-6.2-5.8-9.7c-3.6,4.8-6.9,9.4-10.4,14c-0.8,1.1,0,1.7,0.5,2.4c2.2,3.2,3.9,6.6,4.4,10.5
		c0.4,3.3-0.2,6.2-2.5,8.9c-2.9,3.3-2.9,4.8-0.5,8.7c0.5,0.9,1.1,1.8,1.4,2.7c0.8,2.3,0.1,3-2.9,3.2c2.8-1.9,1.6-3.6,0.1-5
		c-6.6-5.9-4.6-6.3-1.4-11.9c2.9-5.2,2-9.8-2.9-14.2c-2,3.9-4,7.8-6,11.7c-0.6,1.1,0.3,2,0.7,2.9c4,8.6,7.4,17.3,8.5,26.8
		c0.3,3.1,0.3,6.2-0.4,9.2c-0.4,2-1,3.9-2.9,5.2c-5,3.7-6.1,8.9-3.3,14.6c1.3,2.7,2.4,5.5,2.4,8.5
		C165.5,439.3,164.1,440.1,160.9,438.7z M213.5,236.5c-10,14-18.6,28.4-24.1,44.5c-4.3,12.5-5.9,25.2-3.7,38.3c0.2,1,0,2.6,1.1,3
		c0.9,0.3,1.7-1,2.4-1.6c8.6-7.3,16.1-15.6,23.4-24c3.3-3.8,3.3-3.8,0.9-8.1c-0.2-0.3-0.4-0.7-0.5-1c-1.6-3.6-1-5.1,2.8-6.5
		c8.9-3.3,8.8-3.3,11.3-12c1.8-6.4,2.8-12.9,3.2-19.6c0.1-1.4,0.5-3.2-2.2-2.2c-1.3,0.5-2.8,0.5-4.1-0.2c-1.2-0.7-1.8-0.3-2.4,0.7
		c-6.2,9.8-13.7,18.7-19.6,28.6c-2.9,4.9-5.6,9.9-6.7,15.6c-0.4,2-0.7,4,0.3,6c0.9,1.8,2.7,2.2,4.6,2.6c-2.5,3.3-4.6,3.4-6.9,0.5
		c-1.8-2.2-2.9-4.4-2.2-7.4c0.6-2.9,1.2-5.8,2.2-8.7c3.6-10,9.9-18.4,16.4-26.5c3.3-4.1,6.3-8.3,9-12.8c0.6-1,1.3-2.2-0.3-3.1
		C216.1,241.2,214.4,239.2,213.5,236.5z M166.8,346.3c3.6-4.5,7-8.7,10.4-12.9c0.8-1,0.2-1.7-0.2-2.5c-4-9.1-6.6-18.6-8.4-28.3
		c-1.1-6-1.5-12-2.4-18.1c-0.9,2.5-1.6,5-2.2,7.5c-2.9,12-6,23.9-7.1,36.2c-0.1,1.4-0.4,2.9,0.4,4.1
		C160.3,336.8,163.5,341.4,166.8,346.3z M150.1,306.6c4.4-36.2,21.7-66.6,43.2-95c-0.4,0-0.6,0.1-0.8,0.3
		c-15.3,14.7-27.9,31.3-35.9,51.2C151.1,277,148.3,291.5,150.1,306.6z M232.7,272.9c0.6,0.2,0.9-0.2,1.2-0.5
		c5.3-4.1,11.1-7.3,16.7-10.7c2-1.2,5.7-2,5.6-3.8c-0.2-2.2-3.4-3.6-5.6-5c-3.2-2-7-2.7-9.9-5.2c-1.7-1.4-2.5-1.3-2.7,1.3
		c-0.5,7.6-2,15-4.9,22C232.9,271.7,232.4,272.2,232.7,272.9z M155.3,340.1c0.2,7.6,0.4,15.1,2.5,23c1.9-3.4,3.5-6.3,5.1-9
		c0.5-0.9,0.3-1.5-0.2-2.3C160,348.1,157.5,344.2,155.3,340.1z M265.7,308.4c-0.2-1.7,0.7-3-0.7-3.7c-1.9-0.8-3.7-1.7-5-3.4
		c-0.6-0.7-1.2-0.3-1.7,0.1c-0.7,0.6,0,1,0.4,1.3C260.8,304.6,263,306.3,265.7,308.4z"/>
</g>
</svg>
