<?xml version="1.0" encoding="utf-8"?>
<!-- Generator: Adobe Illustrator 21.0.0, SVG Export Plug-In . SVG Version: 6.00 Build 0)  -->
<svg version="1.1" id="Layer_1" xmlns="http://www.w3.org/2000/svg" xmlns:xlink="http://www.w3.org/1999/xlink" x="0px" y="0px"
	 viewBox="0 0 500 500" style="enable-background:new 0 0 500 500;" xml:space="preserve">
<g>
	<path d="M345.9,326.7c1.4,1.9,2.5,3.4,3.5,4.8c7.1,10,3.7,21.4-7.7,25.8c-4.3,1.7-7.3,5-9.7,8.7c-4,6.1-7.2,12.6-10.4,19.2
		c-6.2,12.5-13.5,24.5-17.8,38c-1.6,5.1-2.7,10.2-2.7,15.7c-0.1,6.5-1,12.9-3.2,19.1c-2,5.8-4.1,11.6-5.6,17.6
		c-1.1,4.5-4.9,7.7-5.5,12.4c-0.1,0.4-0.2,0.9-0.5,1.3c-0.6,1,0.7,3.3-1.7,3c-2-0.3-1.9-2.2-2.1-3.8c-0.5-5.1,0-10.2,0-15.2
		c0.1-6.2-1.9-12.1-4.7-17.6c-1.7-3.4-3.6-6.6-4.7-10.2c-1.4-4.5,0.3-7.4,4.9-7.7c3.8-0.2,5.4-2.2,6.6-5.3
		c4.9-13.7,9-27.7,12.3-41.9c1.2-5.2,2.6-10.3,5.1-16c-13.3,7.1-26.4,12.8-37.3,22.3c-3.2,2.8-5.3,6.5-8.1,9.7
		c-8.3,9.6-18.8,16.8-27.8,25.6c-1.6,1.6-3,3.4-5.1,4.5c-1.1,0.5-2.2,1-3.2,0.1c-1.2-1,0.1-1.8,0.5-2.7c5.3-12.5,10.6-24.8,11-38.7
		c0.1-5.3,2.9-7.2,8-5.6c4.2,1.3,7.4,0.2,10.7-2.2c12.2-9,24.1-18.3,35.2-28.6c9.1-8.5,19.8-14.5,31.9-17.7c2.3-0.6,2.6-1.3,1.3-3.4
		c-1.7-2.8-4.2-4.7-6.4-6.9c-0.4-0.4-1-0.8-1.5-0.5c-4.2,2.8-8.1,0.4-12.1-0.2c0.2-1.4,1.2-1.4,1.7-1.9c0.7-0.7,1.3-1.5,0.4-2.3
		c-0.8-0.6-1.4-0.1-1.7,0.8c-0.3,0.8-0.9,1.5-1.7,0.2c-0.7-1.1-1.6-0.3-2,0.1c-1.4,1.5-3.1,1.1-4.2,0.2c-1.4-1.2,0.3-2.4,0.8-3.5
		c0.1-0.2,0.1-0.4,0.1-0.8c-1.7-0.4-2.1,2-3.6,1.7c-1.6-0.3-2.3-1.8-3.4-2.8c-0.3-0.3-0.8-0.9-0.7-1c2.2-3.5,1.7-4-2-2.1
		c-1.1,0.6-2.5-0.9-3.3-2c-0.8-1,0.5-1.2,1-1.7c0.5-0.3,1-0.7,0.5-1.3c-0.6-0.7-1.4-0.5-2.1,0c-1.2,0.9-2.3,2.1-4.2,0.7
		c-1.4-1.1-2.1-2.1-0.1-2.7c1.5-0.5,1.4-1.4,1.7-2.5c-2.9-0.3-5.6,2.5-8.5-0.4c-1.7-1.6-0.9-2.2,0.4-2.7c1.1-0.4,2.1-1,1.5-2
		c-0.6-0.9-2-0.6-3,0.1c-5,3.1-8.8,1.3-9.6-4.6c-1.7-0.9-0.6,3.7-3.1,1.5c-1.2-1.1-1.4-2-1.5-3.5c-0.1-1.1-1.3-3.4-3.1-2.9
		c-1.2,0.3-4.1-0.7-3.3,2.6c0.2,0.7-0.8,0.7-1.3,0.4c-1.2-0.6-2.7-0.8-2.9-2.5c0-0.4,0.4-1,0.2-1.3c-0.6-0.9,0.1-2.7-1.3-2.7
		c-1.7-0.1-0.6,1.8-1.3,2.8c-1.2-1-3.1-0.9-2.3-3.4c0.3-1-0.5-3.1-2.1-2.8c-1.2,0.2-3.5-0.4-3.6,2.2c0,1-1.4,1.3-1.7,0.4
		c-0.8-2.1-3.8-3.1-2.9-6c0.2-0.6,0-1.6-0.7-2.1c-1.4,0.1-0.5,1.8-1.5,2.3c-1.6-1.2,0.4-3.3-1.4-4.3c-0.8,0.5,0.3,2.1-1.5,2.2
		c-0.4-1.4-0.4-2.7,0.3-4.1c7.2-14.3,16.6-26.9,29.8-36.3c3.4-2.4,6.9-4.5,10.9-5.6c6.9-1.9,12.7-13.3,11.3-20.2
		c-2.8-13-7.2-25.5-10.6-38.7c-0.6,0.5-1.1,0.7-1.3,1c-4.5,9.2-9.3,18.3-8.6,29c0.3,4.4-0.8,8.5-3,12.4c-1.8,3.1-2.9,6.4-4,9.8
		c-0.7,2.2-2.5,3.8-3.7,5.7c-0.5,0.7-0.9,1.6-1.8,1.1c-0.8-0.4-0.6-1.5-0.2-2.2c1.2-2,2-4.1,2.1-6.4c0.1-1.2,0.5-2.9-0.8-3.4
		c-1.6-0.6-1.8,1.3-2.5,2.2c-2,2.6-1.8,6.1-3.2,9c-1,2.1-1.8,4.7-4.7,1.3c-1.3-1.6-2.6,0.4-3.3,1.2c-2.3,2.6-4.1,5.5-5.6,8.5
		c-0.6,1.2-0.9,2.8-2.8,3c-1.3,0.1-1.1,1.6-1.3,2.5c-1.4,8.1-2.6,16.2-2.5,24.4c0,3.1-0.5,5.8-2.3,8.3c-0.9,1.3-1.4,2.8-1.9,4.3
		c-0.5,1.3,0.2,3.6-2.8,2.7c-0.3-0.1-1.4,1.6-2,2.5c-2,3.2-4.6,5.6-8.5,6.3c-0.8,0.1-1.7,1.3-2.3,0c-0.5-1.1,0.4-2,1.3-2.5
		c2.6-1.5,4.7-3.4,6-6.7c-2.1,1.1-3.1,3-5,3.8c-2.9,1.1-5.7,1.6-8.5,0.1c-0.7-0.4-2.1,0-1.8-1.3c0.2-1,1.2-1.5,2.4-1.6
		c1.1,0,2.2,1.1,3.6-0.4c-3.5,0.2-5.6-1.5-7.4-3.9c-1.2-1.6-0.7-3.5-1.6-5.2c-0.5-0.9,1.2-1,1.9-0.4c2.9,2.4,5.2,0.9,6.4-1.6
		c3.3-6.5,6.7-12.9,11.7-18.3c1.7-1.8,1.3-4.8,1.7-7.2c0.4-2.1,0.7-4.3,0.9-6.4c0.2-2,1.6-4.2-1.3-5.6c-2.7-1.3-5.3-1.5-7.6,0.5
		c-4.5,4-9.2,7.8-12.9,12.7c-0.7,0.9-1.4,1.8-2.2,2.6c-2.3,2.1-5.5,1.3-5.5-1.7c0.1-4.6-3.3-7-5.5-10.1c-0.9-1.2-2.4-1.4-4.1-1
		c-2.5,0.7-5,0.6-7.2-0.9c-1.8-1.2-3.6-0.9-5.5,0.1c-1.5,0.8-3,1.5-4.6,2.1c-1.8,0.6-3.5,0.3-4.5-1.4c-1-1.8-0.1-3.4,1.2-4.6
		c1.3-1.2,2.9-2.2,4.4-3.3c3.1-2.2,4.4-5.1,3.4-8.9c-0.4-1.5-0.3-3,0.4-4.3c2-3.6,0.2-6.3-2.1-8.8c-1.3-1.4-2.2-2.8-2.3-4.8
		c-0.1-3.1-1.9-3.9-4.6-3.2c-1.5,0.4-2.7,0.7-3.5-0.9c-0.8-1.6-0.1-2.8,1.1-3.9c1.4-1.3,3.2-1.7,5-2.1c3.2-0.7,5.9-2.3,7.1-5.3
		c6.1-14.5,18.8-21,32.4-26.3c5-2,10.4-2.3,15.7-3c0.7-0.1,1.3-0.3,2-0.5c-0.7-1.2-1.9-1.4-2.9-1.8c-2.8-1.3-5.6-2.4-7.8-5
		c-2.7-3.1-7-3.6-11-3.9c-1.4-0.1-2.7,0-4.1,0c-4.5,0.1-4.7-0.1-4.3-4.5c0.8-9.2-7.2-16-15.5-13.1c-2.7,0.9-5.6,1.1-8.4,1.6
		c-2.1,0.4-4.1-0.1-6.1-0.6c-2.2-0.6-3.1-2.1-2.3-4.1c2.8-6.9,0.3-12.4-4.6-17.2c-1.8-1.8-2.8-3.7-2.1-6.4c0.6-2.2-0.8-3.8-2.5-5.2
		c-2.7-2.3-2.3-4.2,1.1-5.3c5.4-1.8,7.6-5.9,8.2-11.1c0.7-5.5-0.4-10.5-5.2-14c-1.7-1.2-2.7-2.3-3.1-4.5c-0.6-3.1-3.1-4.6-6.2-5.1
		c-1.2-0.2-2.5-0.1-3.7-0.6c-1.5-0.6-3.3-1-3.1-3.1c0.1-1.8,1.7-2.6,3.2-3.2c5.5-2.1,5.6-2.4,3.9-7.9c-0.4-1.4-0.2-2.6,0.4-3.9
		c2.1-3.9,1.5-7.5-1.4-10.7c-1.7-1.9-2.2-3.7-1.6-6.2c1.1-5.1,0.2-9.7-4.2-13.1c-1.8-1.4-3.2-3.3-4.2-5.3c-0.7-1.5-0.9-3.2,0.8-4.2
		c1.8-1.1,3.3-0.1,4,1.3c1.6,3.1,4.1,4.4,7.4,4.7c2.4,0.2,4.3,1.7,5.7,3.4c6.5,8,14.7,12.3,24.9,14.5c13.4,3,24.5,10.6,33.6,21.1
		c4.4,5.2,10,9.3,14.6,14.6c-1.9-4.5,0-8.9-0.4-13.3c-0.1-1.7-1-3-1.7-4.4c-0.7-1.6-1.4-3.2-0.6-4.9c0.4-0.9,1.1-1.7,2-0.6
		c2.5,3.1,6.3,5.1,7.5,9.3c0.4,1.5,1.9,1.7,3.3,1.8c6.5,0.4,11,3.7,14.3,9.1c8.4,13.6,15.2,28.1,20.7,43c4.4,12,8,24.4,9.3,37.3
		c0.1,1.4,0.1,2.9,0.9,4.5c2.5-3.3,5.7-5.7,8.6-8.2c6.6-5.7,9.7-13.4,9.4-22.1c0-1.8-0.5-3.4-2.5-4.8c-1.8-1.1-2.6-3.8-4.1-5.8
		c0.8,2.4,0.1,4.4-1.3,6.4c1.2-6.8-5.3-11.7-4.2-18.6c-2.3,1.7-1,3.7-0.6,5.2c1.1,3.7,1.3,6.9-2.3,9.4c-0.8,0.6-0.8,1.7-1.2,3
		c-1.5-3.7,3.9-6.2,0.5-9.8c-2.1,3-3,6.5-4.8,9.9c-1.8-2.4-2.4-4.7-0.6-7c1.1-1.5,1-2.4-0.3-3.8c-2.2-2.3-2.9-5.1-1.7-8.2
		c1-2.5,0.4-4.6-0.9-7.2c-1.9,1.6-3.8,2.9-3.7,5.9c-1.3-1.6-1-3.1-0.2-4.4c1.4-2.2,1.3-4.3,0.1-6.4c-1.3-2.5-1.1-4.7,0.9-6.9
		c1.6-1.8,1.9-4,1-6.4c-1.3-3.7,1.8-9.4,5.7-10.4c1.7-0.4,3-1.1,3.7-2.6c1.6-2.9,4.4-4.7,6.7-7c2.2-2.3,5.5-1.1,7.9,0.3
		c2,1.2,3.8,1.4,6.1,1c4.4-0.7,8.9-0.7,12.8,2.1c0.6,0.5,1.4,0.7,2.2,0.8c1.7,0.3,2.9,0.4,4,2.8c1.1,2.3,4.7,4.6,7.9,5.2
		c3.4,0.7,5,1.8,5.6,5.7c0.6,3.5,3.5,6.6,5,10.1c2.9,7.2,4.2,14.6,0.9,22.1c-1.6,3.7-1.1,7.1,1.5,10.1c1.4,1.6,1.7,3-0.3,4.2
		c-1.1,0.7-1.8,1.4-1.1,2.7c0.4,0.9-0.1,1.5-0.4,2.2c-1.2,2.5-2.9,4.7-3.5,7.6c-0.5,2.2-2.2,3.2-4.6,3.3c-2.9,0.1-5.6-0.7-8.3-1.6
		c-2.3-0.7-4-0.2-5.4,1.7c-2.4,3.2-4.1,6.9-5.1,10.7c-0.7,2.7-0.3,5.2,1.8,7.6c3.3,3.7,4.5,8.6,7.5,12.5c1.7,2.2,3,4.6,4.6,6.8
		c1.4,2.1,2.5,4.8,6,3.7c0.6-0.2,1,0.3,1.5,0.7c6.3,6,7.1,14.1,1.3,20.8c-4.7,5.4-7.5,11.5-9.3,18.4c-0.4,1.5-0.4,2.3,1.6,2.1
		c11.6-1.2,23.2-0.5,34.8-1.8c6-0.7,6.5-1.3,7.4-7.2c0.7-4.4,1.3-8.8,3.8-12.9c3.2-5.4,7.8-8.6,13.4-10.7c0.9-0.3,1.7-1.6,2.7-0.8
		c1,0.9-0.5,1.8-0.3,2.8c0.2,0.1,0.4,0.2,0.6,0.3c1,0.2,2.5-1.2,2.9,0.3c0.5,1.7-1.3,2.3-2.6,2.5c-1.9,0.3-3.8,0.8-5.5,1.7
		c-4.3,2.3-5.8,5.9-4.4,11.4c2-2.8,3.9-5.4,5.9-8c0.6-0.8,1.1-1.9,2.4-1.2c1.1,0.6,1,1.7,0.7,2.7c-0.2,0.9-0.5,1.9-1,2.5
		c-3.3,3.9-4.5,8.8-6.5,13.4c-2.9,6.7-8,11-15.5,11.8c-13.8,1.6-27.3,4.6-40.9,7.8c-2.2,0.5-2.9,1.5-2.9,3.7
		c0,9.1,0.2,18.3-3.9,26.8c-0.4,0.8-0.3,1.5,0,2.3c2.2,6,5.4,11.3,11.1,14.6c16.7,9.7,29.4,23.5,39.6,39.7c0.5,0.9,1.6,2,0.5,2.7
		c-1.8,1.2-2.7,3.2-4.1,4.7c-0.5,0.5-1,0.5-1.4,0c-1.1-1.4-1.6-0.4-1.6,0.6C350.4,325.6,348.4,326.1,345.9,326.7z M259.5,77.9
		c6.4-3.4,4.1-10,6.3-15.7C258.4,65.9,263.1,73.4,259.5,77.9z"/>
</g>
</svg>
