<?xml version="1.0" encoding="UTF-8" standalone="no"?>
<svg
   xmlns:dc="http://purl.org/dc/elements/1.1/"
   xmlns:cc="http://creativecommons.org/ns#"
   xmlns:rdf="http://www.w3.org/1999/02/22-rdf-syntax-ns#"
   xmlns:svg="http://www.w3.org/2000/svg"
   xmlns="http://www.w3.org/2000/svg"
   xmlns:sodipodi="http://sodipodi.sourceforge.net/DTD/sodipodi-0.dtd"
   xmlns:inkscape="http://www.inkscape.org/namespaces/inkscape"
   version="1.1"
   id="Layer_1"
   x="0px"
   y="0px"
   viewBox="0 0 500 500"
   style="enable-background:new 0 0 500 500;"
   xml:space="preserve"
   sodipodi:docname="Fairy-15-stencil mod.svg"
   inkscape:version="1.0 (4035a4fb49, 2020-05-01)"><metadata
   id="metadata11"><rdf:RDF><cc:Work
       rdf:about=""><dc:format>image/svg+xml</dc:format><dc:type
         rdf:resource="http://purl.org/dc/dcmitype/StillImage" /><dc:title /></cc:Work></rdf:RDF></metadata><defs
   id="defs9">
	
</defs><sodipodi:namedview
   inkscape:document-rotation="0"
   pagecolor="#ffffff"
   bordercolor="#666666"
   borderopacity="1"
   objecttolerance="10"
   gridtolerance="10"
   guidetolerance="10"
   inkscape:pageopacity="0"
   inkscape:pageshadow="2"
   inkscape:window-width="2160"
   inkscape:window-height="1346"
   id="namedview7"
   showgrid="false"
   inkscape:zoom="19.812781"
   inkscape:cx="113.07758"
   inkscape:cy="129.07765"
   inkscape:window-x="-11"
   inkscape:window-y="-11"
   inkscape:window-maximized="1"
   inkscape:current-layer="Layer_1" />

<path
   id="path843"
   d="m 288.35938,16.845703 c -1.24728,-0.0065 -2.73633,0.380859 -4.54883,1.099609 -6.4,2.600001 -13.30157,4.1 -19.60157,7 -39.10011,17.856741 -67.93715,44.078987 -84.5332,80.648438 -0.69196,6.30209 1.04231,13.95092 3.15234,19.29492 1.02111,2.5814 2.99785,4.74177 5.41797,6.26758 4.03354,2.54301 9.29449,3.32573 13.38868,1.35937 4.28827,-2.0275 6.43771,-5.7514 6.22265,-10.3789 -0.24186,-4.18108 -3.49691,-5.94473 -7.1914,-6.3457 -3.07487,-0.27416 -6.69888,0.40333 -3.46875,4.80859 1.52846,2.15262 2.10368,3.75525 -0.18555,5.32031 -2.18923,1.39186 -4.1299,0.15411 -5.78516,-1.3789 -2.03827,-1.86962 -3.2434,-4.18084 -2.34961,-7.12891 1.20718,-3.6909 3.57185,-5.78806 7.41993,-6.45313 10.22819,-1.71577 20.44979,8.50318 16.14843,19.83008 -1.325,3.48916 -4.73472,6.2467 -8.20703,7.61524 -3.61834,1.4261 -8.07811,1.34232 -11.66797,0.0351 -3.58987,-1.30717 -7.9837,-3.03361 -10.86914,-6 -2.92704,-3.00914 -4.6368,-7.15 -5.77929,-11.18945 -0.33986,-1.20162 -0.71169,-2.50654 -1.05665,-3.83398 -2.72551,7.54113 -4.9888,15.47402 -6.75585,23.83007 -4.40002,-1.3 -9.19961,-5.80039 -15.59961,-2.90039 -1.5,0.6 -1.90079,-1.29961 -2.30079,-2.59961 -2.3,-7.4 1.5,-16.59961 8.5,-20.59961 18.7,-10.7 18.66732,-32.817742 15.68555,-50.042964 -2.60675,-15.058829 -12.81701,-32.798663 -27.62109,-36.59375 -20.59001,-5.278334 -63.238364,-5.318297 -58.164065,26.136718 -3.5,6.3 -2.398828,11.39961 -0.798828,16.59961 1.1,3.5 4.8,8.700801 1,10.800781 -4.1,2.20001 -8.401563,-1.601162 -11.101563,-5.701172 -0.4,-0.5 -1.098828,-0.7 -2.298828,-1.5 1.3,5.40001 4.2,8.899611 8.5,10.599609 4.5,1.8 3.899219,3.7 1.699219,7 -3.1,4.6 -6.100391,9.100778 -5.900391,15.300778 2.222256,16.86879 17.977948,32.82279 29.800786,32.5 6.5,-0.2 12.70039,-1.60039 18.90039,-3.40039 1.125,-0.3375 2.43939,-1.21194 3.57031,-1.18359 0.87962,0.0221 1.64766,0.59104 2.12891,2.38477 0.69999,2.59998 1.50118,4.89882 -2.79883,5.79882 -5.3,1.1 -7.20118,6.00039 -9.20117,10.40039 -6.90001,15.4 -13.1,31 -18.5,47 -1.1,3.2 -2.30001,6.39961 -3.5,9.59961 -2.200006,-12.6 -3.699224,-25.1 -5.699224,-37.5 -1,-6 -0.701172,-12.30039 -0.201172,-18.40039 -0.929856,-17.03815 -1.606464,-20.95333 -15.599609,-24.89843 -2,-0.1 -4.499609,0.29843 -5.099609,-2.60157 -0.2,-0.7 -0.0992,-1.79883 0.300781,-2.29883 2,-2.2 2.999219,0.9 4.699219,1 1.4,0.1 2.600781,0.39922 3.800781,-0.80078 -0.1,-3.6 -3.001563,-5.49882 -5.101563,-7.79882 -5.4,-5.99999 -7.099609,-5.70157 -10.099609,1.89843 -6.7,16.8 -6.7,16.80156 10.5,24.60157 4.2,1.9 6.700781,4.19921 4.800781,9.19921 -3.6,9.3 -4.899609,19.20039 -6.599609,28.90039 -3.8,21.8 -8.701172,43.79883 2.298828,64.79883 0,0 7.743163,5.41177 11.938562,4.94817 5.994358,-1.46919 11.876223,-5.84789 14.561443,-10.44817 6.09999,-10.3 9.50039,-21.99922 17.90039,-32.69922 -0.1,17.9 1.30078,20.60039 16.30078,26.40039 7.7,3 4.09843,9.99922 7.89843,16.19922 -14.10002,-3.8 -25.90652,-4.44141 -38.80652,-4.94141 -1.23188,-0.0425 -2.70177,0.26773 -3.82072,-0.15019 0,0 -7.944631,8.12807 -13.394757,8.57196 -4.414567,0.35955 -14.491751,-5.12549 -14.491751,-5.12549 -15.8,5.5 -28.985857,1.44591 -44.085857,-3.55409 -13.7,-4.6 -25.0992187,-1.8 -32.69921875,11.5 v 3.19922 c 3.30000005,0.1 5.89882815,1.60039 6.79882815,4.90039 0.6,2.1 -1.2984375,5.50039 2.1015625,5.90039 2.5999991,0.3 3.8988281,-2.70078 4.7988281,-4.80078 2.3,-5.3 4.3,-7.2 10.5,-3.5 7.39999,4.4 16.2,4.30039 23.5,-1.09961 3.9,-2.9 7.500391,-3.10039 11.900391,-2.40039 28,4.6 55.899984,9 84.500004,7 15.8,-1.1 22.30078,-6.69961 22.80078,-22.59961 0,-1.9 0.19843,-3.70078 0.39843,-5.80078 5.4,0.6 10.00118,2.8 14.70118,4.5 10.2,3.8 19.29882,10.5 30.29882,12.5 21.6,4 43.6004,6.00078 65.4004,6.80078 45.89999,1.6 91.40039,-3.49961 136.90039,-9.09961 11.5,-1.5 23.99921,-20.10078 19.69921,-30.80078 -3.6,-8.7 -2.79961,-17.09882 -1.5996,-25.79882 0.69999,-5.09998 0.90078,-10.10118 0.80078,-15.20118 -0.2,-20.6 -0.29961,-41.19882 -0.59961,-61.79882 -0.4,-23.300001 7.59843,-42.301567 27.39843,-55.601568 8.3,-5.6 14.00079,-13.899609 21.80079,-20.099609 0,-1.1 -7.9e-4,-2.2 0.19921,-3 -2,-0.5 -4.7,-2.098828 -6,-1.298828 -9,5.40001 -21.19843,1.298438 -28.39843,6.898437 -12,9.300002 -25.50157,11.601172 -39.10157,15.201172 -7.5,2 -9.2,8.300401 -5.5,15.400391 2.8,5.20001 5.80118,10.299609 9.20118,15.099609 5.3,7.6 6.9992,15.900416 3.69922,24.400396 -7.10001,18.3 -16.5004,35.5996 -22.4004,54.5996 -13.6,-20.6 -26.5,-40.60117 -40,-60.20117 -6.7,-9.7 -8.99882,-19.298435 -5.29882,-30.898435 4.5,-14 11.59882,-27.09999 14.79882,-41.5 0.4,-1.79999 1.60157,-3.801563 -0.39843,-5.101563 -1.9,-1.2 -4.80039,-1.298437 -5.90039,0.601563 -5.2,8.7 -17.60079,10.699219 -21.30078,18.699219 -6.5,13.9 -17.59961,22.299599 -28.09961,32.099609 -5.3,4.9 -3.90039,11.400784 2.09961,15.800777 3.69999,2.6 7.4996,5.39961 11.5996,7.09961 10.3,4.3 15.7,12.20039 19,22.40039 10,30.8 18.7,62.19922 39.5,89.69922 -14,-5.5 -26.09843,-11.5 -36.89843,-20 -18.59999,-14.6 -38.80078,-17.09922 -60.30078,-7.19922 -13.7,6.3 -28.30079,9.69883 -42.80079,13.29883 -7.9,2 -13.59843,0.90078 -18.39843,-2.69922 1.2,-0.1 2.29882,-0.30039 3.29883,-0.40039 6.75872,-0.78547 13.28498,-1.98263 19.58203,-3.58593 -4.67721,0.009 -9.72006,-3.07078 -13.44336,-6.33594 -3.15619,-2.76784 -5.65831,-6.56015 -6.80078,-10.59961 -1.12624,-3.98206 -0.42461,-8.65156 0.23828,-12.41406 0.66289,-3.7625 2.81907,-7.66541 5.86328,-10.08594 2.92134,-2.32284 7.01502,-3.89788 10.69922,-3.30078 11.96006,1.93836 15.69961,15.90039 9.09961,23.90039 -2.5,3 -5.49883,3.99922 -9.29883,3.19922 -3,-0.7 -4.4,-2.89961 -5,-5.59961 -0.5,-2.2 -0.60078,-4.49922 1.69922,-5.69922 2.5,-1.2 3.59922,0.1 4.69922,2.5 2.2,5 4.60039,2.20039 5.90039,-0.59961 1.5,-3.4 1.59961,-7.10039 -1.90039,-9.40039 -3.9,-2.5 -8.19961,-2.50078 -12.09961,0.19922 -3.75,2.5625 -5.70312,7.50882 -5.51758,12.27344 0.11133,2.85877 0.99375,5.65116 2.71875,7.82617 5.37849,6.77291 19.04692,11.61813 27.06055,9.77929 14.08136,-5.27699 26.85535,-12.88108 38.31445,-22.84375 -2.0231,1.40671 -4.30219,2.48087 -6.6211,3.13672 -3.98206,1.12624 -8.64961,0.42461 -12.41211,-0.23828 -3.76249,-0.66289 -7.66736,-2.81907 -10.08789,-5.86328 -2.32284,-2.92134 -3.89788,-7.01502 -3.30078,-10.69922 1.93836,-11.96006 15.90039,-15.69961 23.90039,-9.09961 3,2.5 3.99922,5.49883 3.19922,9.29883 -0.7,3 -2.89961,4.4 -5.59961,5 -2.2,0.5 -4.49922,0.60078 -5.69922,-1.69922 -1.2,-2.5 0.1,-3.59922 2.5,-4.69922 5,-2.2 2.20039,-4.60039 -0.59961,-5.90039 -3.39999,-1.5 -7.10039,-1.59961 -9.40039,1.90039 -2.5,3.9 -2.50078,8.19961 0.19922,12.09961 2.5625,3.75 7.50879,5.70312 12.27344,5.51758 2.85879,-0.11133 5.65116,-0.99375 7.82617,-2.71875 6.45339,-5.12475 9.74899,-14.72817 6.63282,-26.27734 -3.81219,-0.24163 -7.65681,-0.26545 -11.5254,-0.16993 -13.1,0.3 -25.99962,3.09922 -39.0996,4.69922 1.09998,-1.5 2.2996,-2.39883 3.5996,-3.29882 2.49745,-1.79923 4.89515,-3.70466 7.20704,-5.69336 -4.44969,-6.91677 -13.95388,-15.27479 -22.39063,-14.30664 -2.75773,0.3182 -5.35488,1.66857 -7.45508,3.61132 -3.50031,3.23792 -5.61703,8.11647 -4.77734,12.58008 0.84852,4.66691 3.88853,7.70732 8.41406,8.69727 4.10122,0.84853 6.64869,-1.83792 7.99219,-5.30274 1.06066,-2.89914 1.34312,-6.57755 -3.74805,-4.59765 -2.47487,0.91924 -4.17257,1.06161 -5.09179,-1.55469 -0.77782,-2.47487 0.91894,-4.02839 2.82812,-5.23047 2.33346,-1.48492 4.87979,-2.05017 7.49609,-0.42383 3.25269,2.12133 4.66605,4.94685 4.3125,8.83594 -0.98995,10.32376 -13.50631,17.55321 -23.33398,10.4668 -3.02733,-2.18291 -4.80921,-6.1922 -5.23242,-9.90039 -0.441,-3.86416 0.79652,-8.14812 2.98828,-11.27735 2.19175,-3.12922 4.99531,-6.92789 8.60742,-8.94726 3.66418,-2.04848 8.13375,-3.16062 12.30469,-2.68555 4.84111,0.55141 9.91607,2.91755 13.21289,6.25 2.97404,3.00618 5.39783,6.63405 8.20508,9.83398 6.00707,-5.76596 11.28221,-12.18284 15.79687,-19.07226 1.80311,-9.85174 -1.11602,-18.938336 -8.47851,-25.615236 -2.41802,-2.19004 -5.52102,-3.309832 -8.69922,-3.451172 -5.29698,-0.23556 -10.79573,2.244899 -13.64453,7.005859 -3.00166,4.9514 -3.00198,10.409939 -0.22266,15.361329 2.55697,4.44357 6.6713,4.31649 10.45117,2.41211 3.11284,-1.65047 6.22466,-4.69715 0.66602,-7.49024 -2.66814,-1.39655 -4.11338,-2.792823 -2.7793,-5.966792 1.33407,-2.920062 3.89014,-2.793004 6.33594,-2.158204 3.00166,0.76175 5.44835,2.540853 6.22656,6.349606 0.88938,4.82444 -0.22146,8.63071 -3.55664,11.80469 -8.89381,8.37929 -24.41735,3.63163 -26.57227,-11.55273 -0.33631,-2.369707 -0.049,-4.870667 0.64844,-7.246097 -1.99374,-7.98424 -2.65633,-8.298447 -5.08984,-12.960937 -1.40497,-2.69185 -2.77271,-5.478193 -5.29492,-7.414063 -4.2037,-3.22643 -9.99886,-4.695547 -14.82813,-3.060547 -5.05424,1.67793 -7.92254,5.441001 -8.25391,10.462891 -0.24612,4.54309 3.18268,6.835694 7.27149,7.708984 3.41041,0.66252 7.55393,0.362013 4.48047,-4.779297 -1.44589,-2.50634 -1.89259,-4.305746 0.86523,-5.722656 2.62439,-1.24181 4.64405,0.325226 6.3086,2.177734 2.05195,2.261572 3.11574,4.902056 1.75,7.978516 -1.80867,3.84111 -4.71672,5.824615 -9.10938,6.083984 -11.66934,0.63331 -21.85564,-11.619167 -15.63672,-23.335937 1.91569,-3.60925 6.07796,-6.180431 10.13672,-7.244141 1.58604,-0.41566 3.27921,-0.587148 4.97852,-0.542968 2.83218,0.0736 5.68349,0.746974 8.0957,1.896484 3.85954,1.83925 8.58896,4.146308 11.43164,7.773438 3.26075,4.16056 5.38465,10.398895 5.73633,14.921874 0.0614,-0.0913 0.11728,-0.191609 0.17969,-0.28125 2.69097,-3.8649 7.03196,-6.601759 11.21484,-7.443359 4.18287,-0.8416 9.37187,-1.732594 13.79883,-0.302734 4.49078,1.45047 8.8798,4.463875 11.78515,8.634765 3.17306,4.55521 5.22111,10.731777 5.43165,16.404296 9.83028,-18.819059 14.34787,-40.339099 12.63671,-61.744139 -15.18575,-12.66561 -23.94244,-13.478344 -33.1914,-9.402344 -3.21075,1.41756 -5.89905,4.163697 -7.79688,7.523437 -3.16299,5.59955 -4.1352,12.900225 -1.68945,18.583985 2.5218,5.95317 7.15449,8.937222 12.91016,8.638672 5.20046,-0.33578 7.39384,-4.853552 7.89257,-9.982422 0.34098,-4.26869 -0.50314,-9.300626 -5.98242,-4.816407 -2.67743,2.1219 -4.67057,2.922161 -6.61719,-0.255859 -1.73122,-3.0392 -0.19191,-5.73333 1.71485,-8.03125 2.32545,-2.82962 5.20037,-4.502499 8.86719,-3.261719 4.59073,1.67587 7.20011,4.958672 8.02734,10.300782 2.13406,14.19931 -10.5776,28.389338 -24.66602,22.417968 -4.33982,-1.83943 -7.7685,-6.574111 -9.4707,-11.394531 -1.77377,-5.02318 -1.66875,-11.213616 -0.043,-16.197265 1.62586,-4.98361 3.7733,-11.084114 7.46289,-15.089844 3.74278,-4.06346 8.75201,-7.159915 13.91602,-8.021485 5.99371,-1.00004 12.85504,0.3468 17.88867,3.63086 3.4542,2.25361 6.64324,5.09939 9.9082,7.78125 -0.61139,-4.08011 -1.44737,-8.144205 -2.52929,-12.171875 -1.2375,-4.46875 -2.80681,-6.386196 -5.55078,-6.400391 z m 15.33789,125.431637 c 0.30296,4.1155 1.10688,8.25836 1.1289,12.35352 0.0252,4.6876 -1.89055,9.95058 -4.92383,13.76367 -0.0827,0.10401 -0.1783,0.19861 -0.26367,0.30078 5.13384,-4.81789 9.99677,-10.12293 14.57031,-15.94922 4.9,-6.3 4.60039,-7.39919 -3.0996,-9.19921 -2.45131,-0.56568 -4.92436,-0.96906 -7.41211,-1.26954 z"
   sodipodi:nodetypes="cccccsccccccccssssscccccssccccccccccccccccccccccccccccccccccccscccccccccccccccccccccccccccccccccsccccccccccccccsssssccccccccscccssssccccccccscccccccsccccccccsssssscccsccccccccscssccccccccsssssccssscccsccccccccsscsssccscssccccs" /></svg>
