<?xml version="1.0" encoding="utf-8"?>
<!-- Generator: Adobe Illustrator 21.0.0, SVG Export Plug-In . SVG Version: 6.00 Build 0)  -->
<svg version="1.1" id="Layer_1" xmlns="http://www.w3.org/2000/svg" xmlns:xlink="http://www.w3.org/1999/xlink" x="0px" y="0px"
	 viewBox="0 0 500 500" style="enable-background:new 0 0 500 500;" xml:space="preserve">
<g>
	<path d="M290.8,393.2c2.3,1.1,4.5,0,6.7-0.2c8.6-0.8,14.8,6.2,10.9,13.9c-5.1,10.2-5.6,21-6.4,31.9c-0.4,6.1-4.4,10.2-10.7,10.9
		c-5.8,0.7-11.5,1.6-17.3,2.2c-1.9,0.2-4.5,0.7-5.2-1.7c-0.6-2.2,1.2-4.4,3.2-5.2c9.5-3.5,10.1-11.7,11-19.9
		c0.3-2.7-0.8-3.6-3.5-3.3c-21.2,2.8-42.4,5.3-63.7,7.3c-8.4,0.8-16.7,3-25,4.6c-2.2,0.4-3.2,2.1-4,4c-1.1,2.8-2.1,5.6-3.5,8.2
		c-6,11.3-16.2,14.6-28,14.1c-5.6-0.2-11.2-0.9-16.9,0.1c-0.9,0.2-2.1,0.5-2.7-0.5c-0.5-1,0.4-1.8,1-2.6c2.2-2.9,5.2-4.4,8.5-5.7
		c-15.1-1.4-29.1,6-44.1,6c9.4-4.5,17.6-10.6,27.5-13.8c9-2.9,17.9-2.5,27-2.1c3.5,0.1,6.6-0.4,8.9-3.4c1.5-2,1.3-3.5-1.4-4.2
		c-5.1-1.3-10.2-3.1-15.4-4c-7.2-1.3-10.7-6.4-12.2-12.4c-1.6-6.5-0.5-12.9,2.9-19.2c6.6-12.4,16.8-20.8,28.6-27.6
		c7.6-4.4,15.4-8.4,23.3-12.5c2.3-1.2,4.1-2.1,1.4-4.5c-4.7-4.3-8-9.7-11.8-14.8c-2.2-2.9-4.1-3.6-6.7-0.6c-1,1.1-2.3,1.9-3.5,2.8
		c-3.4,2.6-6.7,2.7-9.6-0.9c-1-1.3-1.9-2.8-3.6-3.3c-6.5,19.9-24.1,29.6-38.6,42.2c-6.3,5.4-12.8,10.6-18.8,16.4
		c-5.9,5.8-8.8,12.7-6,21.3c2.1,6.4,2.3,12.7-3.9,17.6c-2.5,2-5.2,3.1-8.3,2.8c-6.9-0.5-12.7,2.2-18,6c-9,6.4-18.4,10.2-29.8,7.6
		c-3.6-0.8-5.7-3.2-7.9-5.5c-2.1-2.2,0-3,1.9-3.6c5.6-1.9,11.4-3.6,16.3-7.2c7.9-5.8,12-14.5,17.5-22.2
		c16.5-23.1,32.3-46.8,49.2-69.6c7.5-10.1,13.3-21,19.3-31.9c1.2-2.1,1.4-3.8,0-5.9c-7.7-11.2-14.7-22.9-24.2-32.9
		c-5.9-6.2-14-8.1-20.9-12.4c-5-3.2-10.9-5.2-14.8-10c-2.2-2.7-2.7,0.1-3.3,1.2c-3.9,6.6-5.7,13.8-5.7,21.4c0,1.1-0.1,2.3-0.6,3.4
		c-1.5-5.6-3.6-11-0.5-16.9c2.5-4.8,4.4-10,6.7-15c1.9-4,0.8-7.9,0.2-11.8c-0.9-5.7,0.2-10.5,4.1-14.8c2-2.2,3.9-4.5,5-7.4
		c0.5-1.4,1.1-3.2,2.9-3c1.8,0.2,1.7,2.1,2,3.5c0.2,0.8,0.3,1.6,0.5,2.5c3.9-3.4,4.1-11.6,0.5-14.5c-1-0.8-1.8-0.6-2.6,0.2
		c-2.9,2.5-6,2.6-9.2,0.5c-1.8-1.2-3.8-0.5-6.1-0.5c2.5-5.8,7-8.6,12.7-9.3c2.3-0.3,4.7,0.5,5.1,3c0.4,2.7,2.1,4.5,3.4,6.5
		c0.8,1.3,1,4.2,3.6,3c2.1-1,3.4-3.4,3.5-5.8c0.1-2.6-2.6-2-4.2-2.5c-0.9-0.3-1.9-0.2-3-0.2c0.2-2.7,2.1-4.3,3.6-6
		c3.5-4.2,3.1-5.5-2.3-6.8c-0.6-0.2-1.2-0.2-2.3-0.5c5.6-4.3,10.8-5,16.1-1c1.5-0.7,1.1-1.8,1.1-2.7c-0.1-3.1,1.7-3.8,3.6-2.1
		c2.3,2.1,8.7,1.6,5.7,7.7c-0.1,0.1,0.3,0.5,0.5,0.7c4.5,4.8,5.3,8.3,3.1,13.8c-1.3,0.3-1.1-0.8-1.4-1.4c-1-1.7-1.9-3.9-4.3-3.6
		c-2.6,0.3-0.9,2.7-1.4,4.1c-0.7,2-1.8,3.8-4.5,6.3c-5.8-6.7-5.8-6.7-11.2,1c-1.2,1.6-2.4,3.2-3,6.2c7.3-3.7,14.8-2.8,22.1-3.6
		c6.1-0.6,9.3,0.6,11,6.3c1,3.1,1.8,6.4,0.1,10.7c-2.8-4.9-7-6.8-11.7-8c-1.6-0.4-3.6-1.4-3.5-3.2c0.3-5.1-3.4-4.2-5.9-3.7
		c-5.6,1.2-11.6,1.5-15.9,6.3c-1.7,1.9-2,3.3-0.4,5.6c2.8,3.9,5.2,8.1,9,11.2c1.8,1.4,2.7,3.4,3.1,5.6c2,10.2,7.3,18.4,15.5,24.8
		c9.8,7.7,17.9,17.4,28.8,23.7c6.6,3.8,6.4,3.9,11.2-1.9c4.2-5.2,10.4-4.6,16.1-4.8c2.1-0.1,4.4,0.4,6.3,1.2
		c3.8,1.8,5.8,0.5,7.1-3.2c4.2-11.6,8.6-23,12.7-34.6c1.5-4.1,3.3-8,6.6-11c1.1-1,2.5-1.8,1.6-3.7c-1-2-2.7-1.7-4.3-1.4
		c-9.2,1.5-17.9-0.1-26.2-3.8c-0.8-0.3-1.4-0.8-2.1-1.3c-0.2-0.2-0.3-0.6-0.6-1.2c7.3,1.2,14.2,0.3,20.7-2.9c2-1,4.6-1.9,3.2-5.1
		c-1.2-2.8-3.4-3.4-6.2-2.8c-2.2,0.5-3.9,1.8-5.7,2.9c-4.4,2.5-6.8,1.8-9-2.9c-0.6-1.3-1.5-3-2.5-2.8c-5.4,1-6.2-4-8.9-6.3
		c-0.8-0.7-1.6-1.5-1.3-2.5c0.6-2.7-0.6-3.4-3.1-3.7c-3.9-0.5-4-2.1-2.3-5.7c1.8-3.8,2-8-0.7-12.8c-3.1-5.3-7.9-8.5-11.4-13.2
		C131.4,148.3,140,134,152,130c2.9-1,4.8-2.4,6.6-4.8c6.4-8.6,15.6-11.9,25.7-13.6c4.7-0.8,9.7-0.2,14-2.8c4.1-2.5,7.8-5.8,13.2-4.8
		c0.4,0.1,1.2-1.1,1.6-1.8c6.4-10.9,27-13,38.2-7.7c3.7,1.7,4.6,5,4.8,9.7c-3-5.9-7.2-7.2-12.5-6.1c-2.6,0.5-2.6,1.6-0.8,3.2
		c11.9,10.1,11.7,26.1,6.9,38.4c-3.2,8-5.4,16.4-8,24.6c-0.2,0.6-0.3,1.3-0.3,2c0.2,3.7,0.3,7.6,3.9,9.7c3.4,2,5.7-1,9.3-3.4
		c-3.9,6.4-8.6,9.7-15,9.7c-2.8,0-4.3,1-5.1,3.6c-1,3.5-2.9,6.7-4.9,9.8c-2.6,4.1-1.5,6.3,4.1,9.7c3.6,2.2,5.6,1.2,7.5-2.3
		c6.3-12,15-22.3,23.7-32.6c10.4-12.3,19.5-25.7,30.4-37.6c8.9-9.7,18.2-18.8,28.2-27.5c13.1-11.3,26.7-22,40.6-32.2
		c17.3-12.7,35.2-24.4,55.3-32.5c5.3-2.1,6.4-1.7,7.8,3.7c1.5,6.1,1.6,12.3-1.7,17.9c-2.1,3.5-3.2,7.2-4.1,11.1
		c-0.9,3.7-2.2,7.2-3.7,12c6.5-2.5,12.1-4.5,17.6-6.9c11-4.8,22.4-8.5,33.9-11.6c6.2-1.7,6.3-1.4,6.4,5c0.2,9.2-2.5,17.4-8.1,24.7
		c-4.5,5.8-8.4,11.9-11.8,18.4c-3.7,7.2-8.7,13.2-15.8,17.5c-3.4,2.1-6.2,5.1-9.6,7.1c-4.6,2.7-6.9,6.5-8.1,11.4
		c-2.3,10-8.1,18.1-14.4,25.9c-2.8,3.4-5,7-7.4,10.6c-6.5,10-14.6,18.5-24.2,25.5c-1.8,1.3-4.3,2.5-3.9,5.4c0.5,3.1,3.2,4.2,5.7,5
		c4,1.3,8.1,1.6,12.3,1.5c2.1,0,4.2-0.6,7.3,0.9c-4.3,1.1-7.6,1.8-10.8,2.7c-2.8,0.7-5.2,2.1-7.6,3.8c-7,5-7.7,12.9-1.2,18.6
		c3.4,3,7.4,5.5,11,8.4c-4.7-2.1-9.5-2.5-14.5-1.3c-4.2,1-6.2,3.5-6.5,7.7c-0.5,5.8,0.6,9.8,4.9,18.3c-3.1,0-5.6-1.8-8.5-2
		c-8.1-0.5-12.3,3.8-11,11.8c0.7,4.4,3.2,8,5.9,11.4c1.1,1.4,2.4,2.7,3.2,4.7c-1.6-0.9-3.2-1.8-4.8-2.6c-5.6-2.9-8.6-2-11.9,3.6
		c-4.8,8-2.1,16.2-0.2,24.2c1.3,5.4,3.6,10.6,5,16c-4.9-7.3-9-15-13.9-22.2c-4.2-6.2-7.9-12.7-11.9-19c-0.9-1.4-2.1-2.6-3.2-3.8
		c-1.4-1.4-3.3-2-5-1.2c-1.7,0.8-0.9,2.8-0.8,4.1c0.2,6,2.4,11.7,3.6,17.5c2.3,11.1,1.9,22-1.1,33c-3.9,14.2-14.5,22.6-25.2,31.1
		C292.2,391.4,290.9,391.6,290.8,393.2z M354.3,138.9c0-11.1-0.1-11.2-7.8-7.5c-1.8,0.9-3.6,1.8-5.2,2.9
		c-25.8,16.1-48.4,36.1-69.6,57.7c-6.2,6.3-11.1,13.6-15,21.7c-0.5,1-1.2,2.3-0.3,3.3c1,1,1.7-0.1,2.5-0.6
		c18.1-12.2,37.4-22.1,57.3-31c9.9-4.4,19.9-8.4,24.5-19.6c0.8-1.9,2.6-3.4,4-5C351,153.8,353.7,145.4,354.3,138.9z M448,109.3
		c0.3-3.7-0.4-4.5-3.5-3.9c-4.1,0.8-8.3,1.3-12.1,2.8c-19.3,7.7-38.8,14.8-56.6,25.5c-6.8,4.1-14.2,7.6-17,16c-0.4,1.1-1,2.2,0,3.2
		c0.9,0.9,1.8,0.1,2.7-0.3c11.5-5,23.8-7,36-9.4c12.8-2.5,25.8-5.1,35.9-14.5C439.6,123.1,445.8,117.3,448,109.3z M368.4,122
		c0.1,2.3-1,4.4,0.6,5.4c1.8,1.1,3.3-0.9,4.9-1.7c11.2-5.5,22.1-11.5,34-15.4c14.5-4.8,29.1-9.1,43.7-13.6
		c9.3-2.8,15.1-11.9,12.8-20.1c-1.1-4-3-4.8-6.9-3.4c-8.4,3-15.9,7.5-23.9,11.2c-20.6,9.5-41.7,18.2-60.9,30.6
		C369.6,117,367.7,119,368.4,122z M301.3,197.1c2.4,1.6,4.6,1.4,6.7,1.6c6.1,0.5,12.2,1.2,18.4,1.5c13.6,0.8,27.1,3,40.7,2.5
		c11.1-0.5,20.3-6.5,23.7-15.9c1.3-3.5,0.2-5-3.5-4.9c-3.7,0.1-7.3,0-11-0.1c-19.7-0.4-39.6-2.6-58.1,7
		C312.7,191.5,306.6,193.2,301.3,197.1z M360.9,174.7c10.6-0.3,20.5,1,30.5,0.2c12.9-1,22-10.2,22-23.3c0-4.1-1.4-5.4-5.3-4.8
		c-17.9,2.9-35.4,7.4-52.4,13.9c-5.5,2.1-8.4,6.2-10.7,11.1c-1,2.1-0.9,3.4,1.7,2.9C351.6,173.5,356.5,175.2,360.9,174.7z
		 M335.9,110c6.5-4.3,12.5-8.7,19-12.5c19.5-11.4,38.3-23.9,58-34.8c5.7-3.2,7.4-6.9,6.2-12.7c-0.9-4.8-2.8-5.8-7.2-3.6
		c-13.8,7-26.8,15.3-39.1,24.7c-11.7,9-22.9,18.7-33.4,29.1C337.1,102.5,333.9,105,335.9,110z M267.8,217.3c0.1,0.5,0.3,0.9,0.4,1.4
		c2.8,0,5.6,0,8.4,0c16.7,0.2,33.5,2,50.2,0c7.9-0.9,15.9-1.6,23.3-4.6c1.3-0.5,3.2-0.8,3.1-2.7c0-1.9-1.7-2-3.2-2.4
		c-15.8-4.1-32-5-48.2-6.3C287.5,201.5,278.1,209.9,267.8,217.3z M337.6,125c19.9-11,39.6-22.2,60.5-30.6c9-3.6,12.2-10.5,13.7-19.1
		c0.2-1.4,0.4-2.7-0.6-3.8c-1.1-1.1-2.2,0.1-3.2,0.5c-1.1,0.4-2.1,0.9-3.2,1.5c-16,8.5-31.4,18-46.3,28.2c-6.6,4.5-13.2,9-18.9,14.7
		C337.2,118.8,336.3,121.4,337.6,125z M266.3,225.6c2.2,2.4,4.3,2.6,6.4,3c13.4,2.5,26.9,4.1,40.1,7.3c13.6,3.2,27.3,5.6,41.4,4.9
		c6.9-0.4,9.5-3.1,9.1-9.1c-0.5-6.8-1.9-7.7-9.9-6.8c-8.1,0.9-16.1,2.8-24.3,2.5c-16.6-0.5-33.2-1.4-49.7-1.9
		C275.3,225.4,271,224.6,266.3,225.6z M257.6,194.8c1.8,0.6,2.1-0.6,2.7-1.2c18.1-19.9,36.9-39.2,59.1-54.6c6.8-4.7,9-10.6,7.6-18.4
		c-0.3-1.8,0.1-4-2-4.7c-1.9-0.7-3,1.2-4.2,2.2c-9.3,7.8-17.5,16.7-25.4,25.9c-9.3,10.8-17.8,22.3-26.5,33.6
		C264.8,183,260.6,188.4,257.6,194.8z M275.7,235.2c1.4,2.7,3.7,4.5,6.5,5.6c11,4.6,22,9.3,33.1,13.8c10,4,19.7,8.9,30.6,10.2
		c2.8,0.3,5.5,0.4,6.8-2.7c1.3-3-0.4-5.2-2.7-6.8c-3.4-2.4-7.2-4-11.2-5.5c-19.5-7.3-40.1-10.4-60.3-15.2
		C277.7,234.5,276.7,234.2,275.7,235.2z M288.5,250.3c2.4,5.3,4.9,9.8,8.4,12.1c12.4,8.3,24.5,17.1,38.7,22.4
		c3.1,1.2,5.8,1.1,7.3-1.8c1.5-2.9-0.6-4.7-2.9-6.5c-6.8-5.5-14.9-8.6-22.5-12.7C308.5,259,299.5,253.9,288.5,250.3z M248.6,299.4
		c-1.5,0.6-1.4,2.1-1.6,3.3c-1.2,5.7-2.3,11.3-3.4,17c-0.4,2-2.1,4.2-0.5,6.1c3.1,3.6,6.1,7.5,10,10.3c0.3,0.2,1.2-0.1,1.7-0.4
		c3.5-2.1,7.1-4.3,10.5-6.6c1.5-1,2.2-2.2,0.8-4.1c-5.6-7.8-11.1-15.7-15.6-24.2C250.1,300.1,249.6,299.4,248.6,299.4z M208.2,278.5
		c-1.1,1.6-2.2,3.2-3.2,4.9c-6.3,11.2-6.3,11.3,4.5,17.9c3.2,1.9,6,7.4,9,5.8c2.8-1.5,1.2-7.4,2.3-11.2c0.7-2.3-0.2-3.7-2.2-4.9
		C213.9,288.1,209.3,285,208.2,278.5z M302.1,272.4c0,3.4,0.9,5.5,2.2,7c4.7,5.6,9.5,11.1,14.6,16.3c1.7,1.7,3.6,3.5,6.1,4.1
		c1.1,0.3,2.2,0.9,3.3-0.2c1.1-1.1,0.4-2.2,0-3.2c-0.4-1.1-0.9-2.2-1.6-3.1C319.8,285.2,311.7,278.5,302.1,272.4z M79.6,223.3
		c-6.1,9.2-4.7,15.8,2.7,18.9c3.6,1.5,4.3,0.5,4.1-3C86.3,233.1,81.3,229.3,79.6,223.3z M223.3,154.9c2.8-7.3,3.3-14.7,1.2-22.2
		c-0.4-1.3-1.3-2.6-3-1.7c-1.2,0.6-3.3,1.1-2.9,2.9C220.1,140.9,221.8,147.9,223.3,154.9z M240,133.7c3.8-9.8-0.8-20.3-10-22.6
		C236,117.8,236.8,125.6,240,133.7z M340.7,293c-2.8,0.5-3.7,2.6-3.7,5c0,2.8,1.3,4.8,4.4,4.8c2.7-0.1,4.3-1.8,4.3-4.4
		C345.6,295.3,343.5,293.7,340.7,293z M368.8,250.5c-0.8-2.5-2-4.6-5-4.6c-2.6,0-3.5,1.5-3.4,3.8c0.1,2.8,1.6,5.1,4.3,5.2
		C367,255,368.1,252.7,368.8,250.5z M360.3,272.3c-0.3-2.5-2.2-3.6-4.5-3.6c-2,0-3.3,1.7-3.2,3.7c0.1,2.4,1.4,4.2,4.1,4.1
		C359,276.3,360.2,274.8,360.3,272.3z M370.5,233.1c1.5-0.2,2.5-1,2.5-2.5c-0.1-1.8-1-3.3-2.9-3.3c-1.7-0.1-2.1,1.3-2.1,2.7
		C368,231.6,368.7,232.8,370.5,233.1z M225.2,182.2c-1.5-0.3-2,0.4-2.6,0.9c-1.3,1.2-1.9,2.6-1.1,4.3c0.2,0.4,0.8,0.9,1.1,0.8
		c1.6-0.6,1.6-2.2,2.2-3.5C225,184,225,183.2,225.2,182.2z"/>
</g>
</svg>
