<?xml version="1.0" encoding="utf-8"?>
<!-- Generator: Adobe Illustrator 21.0.0, SVG Export Plug-In . SVG Version: 6.00 Build 0)  -->
<svg version="1.1" id="Layer_1" xmlns="http://www.w3.org/2000/svg" xmlns:xlink="http://www.w3.org/1999/xlink" x="0px" y="0px"
	 viewBox="0 0 500 500" style="enable-background:new 0 0 500 500;" xml:space="preserve">
<g>
	<path d="M30.7,360.9c2.3-2.9,4-2.6,6.1,0.5c15.1,21.8,43.6,32.2,69,25.7c2.9-0.8,4.5-2.6,6.2-4.7c21.1-26.2,44.8-49.9,69-73.3
		c2.1-2,3.7-4.6,6-6.4c3-2.4,2.8-4.9,1.2-7.6c-7.9-13.7-12.8-28.9-20.7-42.6c-5.9-10.1-8.2-21.8-12-32.8c-1.6-4.8,0.3-9.2,2.8-13.2
		c6.7-11,14.4-21.3,24.3-29.7c1.9-1.6,3.1-2.3,1.5-5c-2.1-3.5-3.8-7.4,2.9-8.3c1.9-0.2,1.1-2.4,1.7-3.6c1.5-2.7,3.7-2.9,6.2-1.4
		c3.6,2.1,9.4,17.5,8.2,21.4c-0.1,0.2-0.1,0.5-0.2,0.7c-1.7,3.4-14.3,5.2-16.8,2.2c-0.8-0.9-1-2.2-2.6-1.3c-4,2.2-5.1,6.4-6.4,10.3
		c-1.3,3.8,2.2,3.9,4.3,4.3c4.3,1,0.2,4.6,2.4,6.9c1.6,1.6-2.3,0.6-3.4,1.3c-2.9,1.9,1.1,4.6-0.5,6.9c-0.4,0-0.9,0.2-1.2,0.1
		c-2.1-1.4-3.5-5.4-6.4-3.4c-2.5,1.7-0.4,5,0.3,7.4c2,6.7,6.5,12.2,10.5,19.2c-6.9-2.1-7.8-8.2-11.3-11.8c-6.6,7.8-6.7,8.4-0.3,16
		c10.3,12.1,19.8,24.6,23.4,41.2c15.6-9.4,28.7-21,41.2-33.2c7.7-7.5,15.3-15,21.3-24c2.7-4,7-5.1,11.2-6c4-0.9,8.2-1.2,12.3-1.9
		c5.6-1,8.2-7.8,4.9-12.5c-1.6-2.3-3-0.6-4.3,0.1c-16.3,8.1-14.9,6.6-23.3-7.3c-3.5-5.8-7.6-11.6-5-19c0.7-2.1-1.1-2.3-2.2-3.1
		c-2.1-1.4-3.8-2.9-3.9-6.1c2.5,1.1,5,3.4,7.3,1.1c2.1-2,1.7-5.2,0.9-7.6c-1.1-3.3-0.9-6.7-1.4-10.6c-6.1,1.2-12.4,2.1-15.7-4.7
		c-2.7-5.6-1.9-10.8,3.5-16c-0.5,4.5-3.3,8-1,12c2.2,3.9,5.5,5.1,9.5,5.1c1.6-1.3,0.4-2.3,0-3.3c-2.7-7.8-1.4-11.1,5.9-14.6
		c2.9-1.3,5.9-2.3,8.8-3.5c3.1-1.2,5.3-3.1,5.5-7.5c1.7,8.3,7.2,6.1,12.3,5.7c7.5-0.7,15.1-0.4,22.3,2.7
		c1.1-19.6,2.8-22.1,14.1-18.4c-4.7,1.2-8,2.7-9.5,6.4c-1.6,3.9-1.7,7.5,0.8,11.1c1.5-0.1,1.8-1.3,2.1-2.4c1.2-4.5,3.4-8.4,8.4-9
		c5.3-0.7,9.3,2.2,12.4,6.3c6.8,9.1,4.6,19.3-5.7,26.8c7.1,2.7,10.1,0.2,12.1-10.3c1.9,8.9-0.3,12.6-8.6,15.3
		c-1.8,0.6-4.6-0.3-4.3,3.4c1,12.8-6.7,21.3-14.8,29.6c-1,1-2,2.1-3.5,3.8c8.2-0.3,11.3-5.5,14.2-11.2c0.3,6.6-4.1,12.6-12.5,14.3
		c-5.5,1.1-5.9,4.4-5.7,8.3c0.3,5.2,1.4,10.3,6.5,13.1c2.2,1.2,2.8-0.8,3.6-2.3c15.8-30.4,41-52.2,66.8-73.5
		c11-9.1,24.1-14.5,36.6-21.1c4.7-2.5,8.5-5.9,10.8-10.4c2.3-4.4,0.8-8.7-2.8-11.8c-2.8-2.4-6-1.6-8.7,0.6c-1.6,1.3-2.5,3.2-1.7,5.2
		c1.1,2.8,2.7,0.6,4.1,0.2c1.7-0.5,3.5-0.7,4.2,1.4c0.6,1.8,0,3.4-1.4,4.6c-2.5,2.2-5.5,2.2-8.2,0.7c-3.1-1.8-4.1-4.9-3-8.2
		c1.6-5,4.8-8.5,10.3-9c6.8-0.7,10.9,3,13.5,9.6c2.5-5.8,4.2-11.5,9-15.3c9.1-7.3,21.7-4.6,24.5,5.5c1.2,4.2,0.8,8.3-2.7,11.5
		c-3.2,3-7,4.2-11.4,2.7c-3.7-1.3-6.8-3-6.1-7.7c0.5-3.3,2.4-5.7,5.7-5.5c4.3,0.3,5.2,3.8,4.9,8.1c4.4-2.9,5.5-6.3,3-10
		c-2.7-4-6.9-5.5-11.5-3.5c-5.9,2.6-8.2,7.9-7.4,13.8c5.5,40.5-3.6,78.3-21.5,114.3c-0.3,0.6-0.4,1.3-0.7,2.6
		c4.6-0.8,8.8-2.3,13-0.1c4.3,2.3,8,5.1,7.5,10.6c-0.5,5.6-4.1,9.3-9.1,11.3c-3,1.2-5.8,0.1-7.7-2.6c-1.8-2.6-2.3-5.4-0.6-8.2
		c1.2-1.9,2.9-3.6,5.4-2.5c2.3,1.1,2.2,2.9,0.8,4.8c-0.5,0.7-1.6,1.7-0.3,2.3c1,0.4,2.5,0.4,3.4-0.1c2.3-1.2,3.8-3.2,3.5-5.9
		c-0.3-3.2-2.4-5.4-5.3-6.3c-3.4-1.1-6.9-0.9-9.2,2.4c-3,4.1-3.5,9-4.4,13.8c-1.3,7.1-1.8,14.6-7.7,20c-3.3,3.1,1,4,2.1,5.5
		c3.9,5.8,4.4,11.9,1.1,17.9c-2.6,4.7-7,6.5-12.4,6c-5.2-0.5-7-3.9-7.1-8.5c-0.1-3.9,0.1-8.1,5.1-9.2c2.2-0.5,5.2-1.2,6.1,2.1
		c0.7,2.6-0.3,4.9-3.2,5.6c-2.6,0.6-5.2,1.2-3.2,4.6c1.6,2.8,4.2,2.1,6.4,0.9c4-2.2,5.8-5.9,5.5-10.4c-0.3-4.4-3-7.3-7-8.4
		c-8.9-2.4-16.8-0.3-23.5,6.2c-5.2,5-7.8,11.7-12,17.4c-0.8,1-1.2,2-0.2,3.2c6.5,8.1,6.1,18.2,8,27.7c1.9,9.5,7.5,13.1,14.7,9.8
		c2.6-1.2,4.5-2.8,4.2-6.1c-0.4-3.1-1.7-4.3-6.3-5.2c-1,2.1,1.2,2.2,2,3.1c1.5,1.9,1.2,3.6-0.5,5.1c-1.8,1.6-3.7,1.2-5.3-0.2
		c-3.3-2.9-4.1-6.5-2.1-10.5c2-4.1,5.5-4.4,9.3-3.4c5.5,1.5,9.5,8,8.6,13.7c-0.9,6-8,11.2-14.7,10.5c-2.6-0.3-5.1-1.1-8.7-1.9
		c5.1,9.5,9.5,18.1,14.4,26.5c2.8,4.8,10,6.7,13.9,4.3c1.2-0.8,2.5-1.7,2.4-3.4c-0.2-2.7-2-1.1-3.1-1.1c-2.7,0.1-4.8-1-5.6-3.6
		c-0.5-1.7-0.5-3.4,1.1-4.6c2.3-1.7,4.6-1.1,6.9,0c6,2.7,7.4,10.3,3,15.2c-2.8,3-6.6,3.8-10.5,5.3c0.8,2.5,2.8,3.2,4.6,4.2
		c5.8,3.2,7.2,8.7,6.3,14.3c-0.9,5.6-4.9,9.5-10.6,10.9c-5,1.2-8.8-0.7-10.6-5.5c-1.5-4.1-1.4-8.2,3-10.9c2-1.2,4.1-1.7,6.2-0.2
		c1.3,0.9,2.2,2.1,1.9,3.7c-0.5,2.4-1.9,3.9-4.6,3.7c-1.2-0.1-2.6-0.6-2.5,1.3c0,1.7,1,2.6,2.5,3.2c4.2,1.8,9-2.1,9.3-7.4
		c0.3-5.8-5.4-13.1-11.6-12.9c-15.8,0.5-30-5.2-44.4-10.4c-4.7-1.7-6-1-5.7,4c0.3,6.6,0.2,13.1-0.9,19.7c-1.1,5.9,1.1,9.7,7.1,11.7
		c7.4,2.5,14.5,5.6,20.7,10.5c1.7,1.4,5.2,1.7,3.7,5.2c-1.6,3.5-4.1,1.1-6.2,0.6c-0.7-0.1-1.4-0.2-2.4-0.3c0.4,3.1,4.6,3.4,4.5,7.6
		c-8.3-4.1-17.1-6.3-24.9-10.1c-10.5-5.2-16.1,6.5-25.2,5.3c1.1-3.9,4.4-5,6.8-6.8c5.5-4.3,7.9-10,7.5-16.6
		c-0.5-9.5-1.3-19-2.5-28.4c-1.5-11.5-1.7-11.5-16.9-21.5c0.2,7,3.9,12.6,5.1,18.8c1.4,6.6,4.2,12.9,2.3,20
		c-5.6,21.5-21.4,31.6-43,25.9c-16-4.2-32.1-4.8-48.5-4.2c-18.8,0.6-37-6-55.9-5.2c-6.3,0.2-12,0.7-17.3,4.3c-6.6,4.5-14,6.8-22,6.8
		c-18,0.1-36.1,0.6-53.9-2.4c-5.8-1-11.3-0.8-16.9,2c-8.2,4.1-13.5,1.1-15.2-7.9c-0.9-4.5-2.5-8.1-6.6-10.7
		c-7-4.5-9.5-11.9-11.9-19.4C30.7,367.7,30.7,364.3,30.7,360.9z M196.7,297.7c8.3,2.3,16,5.3,22.7,10c13.8,9.6,29.2,16.5,42.6,26.8
		c2.9,2.2,3.7,1.8,5.7-1.4c6.8-10.3,8.2-20,0.2-30.4c-2.1-2.7-2.5-6.8-3.3-10.3c-0.8-3.7-1.8-6.2-5.9-8.1
		c-9.8-4.4-11.6-14.9-5.1-23.6c2.3-3,4.5-6.2,5.3-10.8C237.9,266.1,217.5,281.8,196.7,297.7z M388.5,180.5c0.7,2.6,2.9,3,4.2,4.2
		c9.3,8.4,10.5,24.1,2.3,32.9c-4.1,4.4-8.9,5.9-14.4,2.5c-5.1-3.2-7.9-10.2-5.7-14.4c1.7-3.3,4.5-5.6,8.3-4.2
		c4.3,1.5,2.8,4.4,0.7,6.9c-1.7,2-0.3,3,1.1,4c2.1,1.5,3.8,0.5,5-1.2c3.1-4.5,5.8-9.1,3.4-14.9c-2.1-5.2-6-8.6-11.5-8.8
		c-5.6-0.3-10.3,2-13.3,7.4c-5.2,9.5-4.4,19.4,4.4,28.7c6.4,6.7,9.4,13.7,6.5,24.4c16.5-16.4,28.8-33.4,36.5-53.4
		c0.5-1.3,2.2-3.3-0.5-4.2c-8.1-2.7-11.6-9.6-15.2-17C396.9,177.2,392.8,179.1,388.5,180.5z M232.1,363.6
		c-14.1-11.9-25.7-24.2-38.2-36.1c-3.7,18.4-13.2,31.3-29.9,38.6c-6.8,3-13.3,6.7-18.8,12.1c6.7-0.4,14,0.7,19.4-3.2
		c6-4.3,12.2-5.8,19.1-5.3C199.7,370.9,215,367.2,232.1,363.6z M375.2,181.1c-6.9-2.1-10.8-5.4-12.8-10.2c-1.6-3.8-3.2-3.5-5.7-1.2
		c-12.4,11.3-24.2,23.2-34,36.8c-3.2,4.4-5,8.4,2.2,10.9c2,0.7,3.8,2.3,5.1,3.9c5.1,6.5,10.5,3.3,15.5,0.5c5.8-3.3,7.8-9.7,5.6-15
		c-1.5-3.6-4.2-5.4-7.9-5.2c-3.6,0.3-6.5,2.2-7.4,6c-0.5,1.8-1,4.2,2.4,3.6c2.1-0.4,3.3,0.6,3.5,2.6c0.1,1.9-1,3.2-2.6,4.1
		c-2.3,1.3-4.6,1.5-6.9,0.1c-2.5-1.6-3.3-4.1-3.3-6.9c0-6.8,5-12.9,11.7-14.8c6.8-1.9,11.5,1.1,15.8,6.8
		C360.1,193.5,364.8,186,375.2,181.1z M361.7,262.2c-3.9-1.7-7.8-2-10.8-4.5c-4.4-3.6-5.7-8.3-4.7-13.7c0.7-3.9,3-6.6,7-7.6
		c3.6-0.9,7-0.2,8.3,3.8c1.2,3.9-1,6.2-4.6,6.7c-5,0.6-3.2,3.2-1.8,5.5c2.3,3.9,5.8,3.8,9.6,2.2c7.2-3,11-14.5,7.3-22
		c-3.3-6.5-12.1-8-19.7-3.2c-9,5.6-18,28-15.5,38.3c0.6,2.4,1.1,4.6,4.8,3.3C348.2,268.5,355.2,266.5,361.7,262.2z M427.5,153
		c-0.6-8.1-2.5-15.3-10.2-16.9c-9.8-1.9-19.2,1.5-27.7,6.8c-2.8,1.8-3,4.2,1,4.5c7,0.6,10.6,5.1,13.1,11
		C413.3,148.5,416.6,147.7,427.5,153z M345.5,325.7c7.3-4.3,12.9-3.2,17.1,3.4c1.8,2.9,2.1,6,1.3,9.1c-1.6,6.2-6.8,9.5-12.6,12.7
		c5.5,2.9,10.1,4.2,14.5-0.4c4-4.2,5.9-9.1,3.3-14.6c-4.7-9.9-10.8-19-18.4-27c-1.6-1.6-3.2-3.2-5.6-1.3c-1.8,1.4-3.1,2.6-2.2,5.4
		C344.2,317.1,344.7,321.4,345.5,325.7z M407.2,128.6c13-1.3,21,3.4,27.1,13.1c2.3-9.7,2.8-18.4,3.6-27c0.4-3.7-1.4-4.4-4.3-2.9
		C425.1,116.3,416.9,121.4,407.2,128.6z M380.8,149.5c-6.8,1.9-11.3,7.5-10.8,13.4c0.5,5.3,6.5,11.6,12.1,12.1
		c6.3,0.6,11.4-1.6,14.4-7.7c1.8-3.8,0.7-7.1-1.7-10.2c-1.8-2.4-4.2-3.2-7.1-2.4c-1.7,0.5-3.3,1.3-3.3,3.4c0,2.3,1.9,1.5,3.2,1.7
		c2.4,0.3,4.3,1.2,4.2,4c-0.1,3-2.2,4.2-4.8,4.7c-5.7,1.2-9.8-3.9-8.5-10.2C379.3,155.4,382.1,152.9,380.8,149.5z M321.6,318.3
		c0.5-8.4-3.7-15-9.1-17c-2-0.7-3.1-0.3-3.9,1.8c-3.1,8.4,1,22.3,7.9,27.8c2.6,2.1,3.4,1.1,4.7-1.2
		C324,325.2,321.7,320.7,321.6,318.3z M345.4,290.8c7.8,7.6,15.3,14.9,22.7,22c-0.1-5.8,0.3-12.5-1.8-18.9c-0.9-2.7-1.8-5.4-6-4.7
		C355.6,290.1,350.8,290.3,345.4,290.8z M365.8,360.2c5.5,3.9,11.3,6.3,17.5,7.4c3.1,0.6,6.8,0.5,4-4.8c-3.6-6.8-7-13.7-10.9-21.5
		C373.9,349,372.2,355.9,365.8,360.2z M423.9,173c-2.6,1.1-3.9,1.9-5.3,2.2c-3.9,0.9-6.8-0.7-7.9-4.5c-1-3.4-1.4-7.1,2.3-9.1
		c4-2.2,4.6,1.4,5.9,4.1c1.1,2.3,3,0.9,4.2-0.2c1.6-1.6,2.7-3.5,1.3-5.8c-1.9-3.3-5-4.7-8.6-4.3c-3.8,0.4-6.9,2.4-8.3,6.2
		c-2,5.3-2.1,10.6,1.6,15.1c2.7,3.4,6.2,7.6,10.4,6.8C422.5,182.8,422.3,177.4,423.9,173z M371.4,265.2c-11.3,6.8-22,12-33.2,16.9
		C352.6,291,364.2,285.2,371.4,265.2z M413.3,227.2c-7.1,9.5-13.6,17.6-22,24.9C406.9,254.3,411.3,249.3,413.3,227.2z M325.7,305.3
		c-0.8-5.3-1.3-9-2-12.8c-0.7-3.9-4.3-3.4-6.8-4.3c-2.3-0.8-2.8,1.3-3.5,2.7c-1.7,3.1,0.8,4.3,2.6,5.8
		C318.8,299.2,321.6,301.7,325.7,305.3z M355.6,329.5c-1.3,3.5-2.4,7-6.7,6c-1.8-0.4-4.2-3.2-4.1,1.4c0.1,2.7-1.2,6.2,3.4,6.5
		c3.2,0.2,6.5,0.3,8.3-3C358.4,337,359.7,333.5,355.6,329.5z M353.2,223.2c3.7-1.1,6.9-2,10.8-3.1c-2.8-2.8-3.5-6.1-6.7-7.8
		C356,215.7,354.7,219,353.2,223.2z"/>
</g>
</svg>
