<?xml version="1.0" encoding="utf-8"?>
<!-- Generator: Adobe Illustrator 21.0.0, SVG Export Plug-In . SVG Version: 6.00 Build 0)  -->
<svg version="1.1" id="Layer_1" xmlns="http://www.w3.org/2000/svg" xmlns:xlink="http://www.w3.org/1999/xlink" x="0px" y="0px"
	 viewBox="0 0 500 500" style="enable-background:new 0 0 500 500;" xml:space="preserve">
<g>
	<path d="M277.4,336.6c-2.7,1.1-5.3,1.5-7.9,0.3c-0.8-0.4-1,0.2-1.3,0.6c-3.5,4.2-6.5,5-11.7,3c-0.8-0.3-1.1-0.1-1.7,0.4
		c-2.9,2.4-6.1,3.1-9.8,2.3c-2.9-0.6-5.8,0.4-8.7,0.6c-2.2,0.1-4.4,0.3-6.6,0.2c0.1-0.3,0-0.5,0.1-0.6c8.7-4.8,15.2-11.8,21.3-19.4
		c4.2-5.2,8.4-10.3,13.3-15c4.2-4,7.4-8.9,10.6-13.8c1.1-1.7,1.1-3.4-0.4-4.7c-2.4-2-3.5-4.5-4-7.4c-0.2-1.3-0.9-1.7-2.2-1.8
		c-7.2-1-11.9-5.7-12.9-12.9c-0.2-1.2-0.6-1.4-1.7-1.5c-12-1.3-19.4-11-17.5-23c0.2-1.5-0.5-2.5-1.2-3.5c-1.8-2.6-4.4-4.6-7.1-6.2
		c-9.7-5.6-11.6-14.1-9.4-24.2c0.3-1.2,0.4-2.4,0.7-3.6c0.6-2.1,0-4-1.4-5.6c-7-8.2-7.6-17.6-5.3-27.6c0.5-1.9,1.2-3.8,1.8-5.7
		c0.9-2.6,1.6-5.3,1.3-8c-0.9-9.1,0.7-17.9,2.3-26.7c0.5-2.5,0.8-5.1,1.3-7.9c0.7,1.4,0.7,2.6,0.9,3.8c2.4,13.6,8.1,25.9,14.9,37.8
		c3.1,5.4,6,10.9,9,16.4c0.3,0.5,0.6,1.1,1.2,2.1c0.4-4.7,0-8.8-0.9-12.9c-0.9-4.2-1.9-8.4-2.8-12.6c-1.3-6.6-0.3-13,1.3-19.4
		c1.1-4.2,1.9-8.4,1.8-12.7c0-0.5-0.2-1,0.6-1.5c1.5,4.3,3.2,8.5,4.6,12.7c7.5,22.2,17,43.7,26.6,65c5.9,13,11.1,26.4,16.6,39.6
		c0.2,0.5,0.4,0.9,0.7,1.6c2.2-3.2,4-6.2,4-10c0.1-9.3,4.6-15.8,12.7-20.1c0.4-0.2,0.8-0.4,1.1-0.7c3.1-3.4,7.1-3.6,11.3-3.1
		c0.6,0.1,1.3,0.4,1.9,0.1c5-2.4,9.2-0.5,13.1,2.5c1.9,1.5,3.7,3.1,5.7,4.6c2.6,1.9,3.3,4.6,1.7,7.4c-1,1.8-1.1,3.5-1,5.4
		c0.1,3.7,0.9,7.5-0.8,11c-0.5,1.2,0.5,1.1,1.5,1.4c-1.8,0.8-1.6,1.8-0.8,3c0.4,0.6,0.6,1.3,0.9,1.9c1.1,2.3,0.9,2.7-1.6,3.1
		c-0.8,0.1-1.4,0.3-1.3,1.3c0.3,1.7-0.2,3-1.7,4c-0.5,0.3-0.4,1-0.4,1.6c-0.1,2.9-0.5,3.3-3.4,3.4c-1.9,0.1-3.7-0.1-5.5-0.7
		c-2.5-0.8-4.2-0.2-5,1.5c-0.9,1.9,0.1,5.7,1.8,6.5c2.6,1.2,4.5,3.1,5.8,5.5c2.2,4.2,5.5,7.5,9,10.6c1.4,1.3,2.8,2.5,4,3.9
		c3.5,4,3.5,9.7-0.2,13.4c-0.6,0.6-0.3,0.8,0,1.1c1.7,1.5,2.9,3.4,4.3,5.1c0.4,0.5,0.9,1.2,1.8,0.6c6-4.6,13.4-6.4,20.1-9.7
		c4.8-2.4,9.7-4.6,14.3-7.4c3.4-2.1,7.1-3,11.1-2.2c2.1,0.4,4.1,0.1,6.2,0.1c0.6,0,1.3,0,1.9,0.1c1.1,0.2,2.2,0.7,2.2,2
		c0,1.3-1.2,1.6-2.3,1.8c-1.9,0.3-3.8-0.3-6-0.3c1.4,1.5,3,1.8,4.7,2c2.3,0.2,4.6-0.2,6.7-1.1c2.2-0.9,4.6-1,7-1.1
		c0.7,0,1.6,0,1.8,0.9c0.2,1-0.8,1.2-1.4,1.3c-3.2,0.6-6.1,2.1-9,3.6c-4.4,2.1-8.9,1.6-13.3,0.4c-7.4-2-13.7-0.2-19.7,4.5
		c-6.2,4.9-12.1,10.1-18.7,14.5c-2.4,1.6-4.9,3.2-7.7,4.2c-2,0.7-3.8,0.6-5.3-1.2c-1-1.2-1.4-0.7-2.1,0.4c-2.6,4.3-3.1,9-2.5,13.9
		c0.4,3.3,1.1,6.5,0.7,10c3.3-0.7,6.1-1.8,8.7-3.4c9-5.5,18.9-8.5,29-11c10-2.5,15.5,5.3,15.1,12.7c-0.5,9-0.4,18.1-0.7,27.1
		c-0.1,2,0.4,3.7,1.5,5.4c8,12.4,15.1,25.4,22.6,38.1c2.3,3.8,4.1,7.9,5.9,12c2,4.7,4.1,9.3,6.9,13.6c2.5,3.8,3.3,8.2,4.3,12.5
		c1.1,4.4,3.4,8,6.6,11.1c0.4,0.4,0.8,0.9,1.4,0.9c0.8,0,1.9-0.3,2,1c0.1,1.2-0.4,2.3-1.5,2.9c-1.6,0.9-3.3,0.8-5,0.3
		c-3.9-1.2-7.2-3.4-8.9-7c-3.7-7.6-9.8-12.4-17-16.2c-4-2.1-4.7-5.9-2-9.6c0.6-0.8,1.3-1.6,1.9-2.3c2.1-2.5,2.2-4,0.3-6.7
		c-2.8-4-6.1-7.5-9.9-10.4c-2.5-1.9-5-3.7-7.8-5.7c-0.7,3.8-0.9,7.4-0.9,10.9c0.1,4.6,0.1,9.2-0.4,13.8c-0.3,3,0,5.9,0.7,8.7
		c0.2,0.8,0.5,1.8-0.4,2.4c-0.9,0.5-1.7,0-2.4-0.5c-5.1-3.9-8.5-8.7-8.1-15.4c0.3-4.8-0.6-9-3.4-13c-2.8-4-2.1-7.4,2.1-10
		c2.2-1.3,2.8-3,2.8-5.3c0-6.3-2.8-11.6-5.1-17.2c-0.3-0.7-0.8-0.9-1.5-0.7c-2.4,0.6-4.9,0.8-7.5,0.9c-0.8,0-1.5,0.3-2.2,0.7
		c-4.1,2.1-8.2,4.2-12.2,6.3c-0.6,0.3-1.3,0.4-1.4,1.2c-0.4,2.8-2.1,5.1-3.3,7.6c-0.4,0.8-0.8,1.7-1.1,2.6c-0.8,2.4-0.1,3.7,2.1,4.6
		c0.6,0.2,1.3,0.2,1.8,0.9c-0.7,0.1-1.3,0.1-1.9,0.1c-4.5,0.1-5.9-1.3-5.8-5.9c0.1-2.5,0.9-4.9,1.6-7.8c-4.4,3.4-5.1,7.9-5.6,12.6
		c-2-2.1-2.2-4.4-2.3-6.9c-1.8,6.8-7.5,9.8-12.8,13.2c-2.4,1.6-4.9,3-7.1,4.8c-2.7,2.2-3.8,5.1-3.9,8.5c0,1.8,0.8,3.4,2.2,4.9
		c-2.7-0.4-3.8-1.6-4-4.4c-0.5-4.7,0.6-9,3.5-12.8c2.1-2.8,4.7-5.2,7.1-7.8c1.2-1.3,2.4-2.7,3.2-4.3c-6.6,0.4-11.6,4.3-10,8
		c-2.2,0-2.6-1.5-2.3-3c0.4-1.9-0.3-1.9-1.8-1.5c-19.6,4.7-39.4,6.8-59.5,6.1c-42.1-1.5-81.1-13.3-115.9-37.2
		c-40.9-28.1-68.7-65.7-79.7-114.4c-11-48.6-2.6-94.4,24.4-136.1c30.5-47.1,74.4-75.6,128.6-88.2c42.6-9.9,84.7-7,126,7.8
		c0.5,0.2,1.1,0.4,1.9,0.7c-0.9,0.5-1.7,0.3-2.4,0.3c-33.6-1.1-66.2,3.9-97.6,16c-34.5,13.3-64.1,33.4-87.1,62.6
		c-16.5,20.9-27.3,44.4-31.2,70.8c-4.1,27.7-0.2,54.5,11.4,80c12.5,27.6,31.8,49.5,56,67.4c19.5,14.5,41.1,25,64.2,32.4
		c1.2,0.4,2.3,0.5,3.5,0c3.1-1.1,6.5-0.8,9.8-1.5c1.6-0.4,2.5-1.1,3.1-2.5c2.1-4.7,3-9.7,3.8-14.7c0.8-5.6,1.8-11.2,2.9-16.7
		C277.1,338.6,277.2,337.7,277.4,336.6z M312.4,322.8c-2.3,2.1-4.7,2.9-7.4,2.2c-1.5-0.4-1.8,0.1-2.2,1.3c-0.4,1.4-1.5,2.4-2.5,3.4
		c-1.3,1.2-3.7,0.8-4.4,2.2c-0.8,1.4-0.3,3.5-0.9,5.2c-2,5.2-5,9.8-8.1,14.4c-5.3,7.9-8.6,16.6-9.2,26.2c0,0.7-0.2,1.5-0.6,2
		c-0.7,1.1-0.2,1.2,0.8,1.4c7.3,1.5,14.6,2.7,22,3.5c1.5,0.2,1.8-0.2,1.8-1.6c0-5.2-0.4-10.3-1.1-15.4c-1.1-8.1,0.4-15.5,4.9-22.4
		c1.9-2.9,3.8-5.8,5.6-8.7C313.7,332.3,313.2,327.7,312.4,322.8z M376.3,356.1c-2.6,2.1-5,3-7.8,3.9c2.5,1.1,4.6,2,6.9,3
		C375.2,360.7,375.5,358.7,376.3,356.1z"/>
	<path d="M393.8,278.4c2.3-3.7,4.2-6.9,6.2-10c0.7-1.1,0.8-2,0.2-3.2c-1.6-3.4-3.1-6.9-4.8-10.8c3.9,0.9,7.5,1.7,11,2.7
		c1.6,0.4,2.6,0.2,3.8-0.9c2.6-2.5,5.4-4.8,8.5-7.6c0.3,4.1,0.7,7.8,0.8,11.4c0.1,1.6,0.6,2.4,2,3.2c3.2,1.8,6.4,3.7,9.9,5.8
		c-3.8,1.6-7.3,3-10.8,4.4c-1.3,0.5-1.9,1.2-2.2,2.6c-0.7,3.7-1.6,7.4-2.5,11.5c-2.7-3.2-5.2-6.1-7.5-9c-0.8-1-1.6-1.4-2.9-1.2
		C401.8,277.7,398,278,393.8,278.4z"/>
</g>
</svg>
