<?xml version="1.0" encoding="utf-8"?>
<!-- Generator: Adobe Illustrator 24.3.0, SVG Export Plug-In . SVG Version: 6.00 Build 0)  -->
<svg version="1.1" id="Mandala_Letter" xmlns="http://www.w3.org/2000/svg" xmlns:xlink="http://www.w3.org/1999/xlink" x="0px"
	 y="0px" width="828px" height="828px" viewBox="0 0 828 828" style="enable-background:new 0 0 828 828;" xml:space="preserve">
<style type="text/css">
	.st0{fill:none;stroke:#000000;stroke-miterlimit:10;}
</style>
<path class="st0" d="M0.1,827V0h827.3v827.3H0.1v-0.2 M284.7,440.1c17.6-0.6,33,6.7,42.3,17.8c6.5,7.8,10.3,18.5,10.1,28.9
	c-0.2,10.4-4.3,20.5-13.8,26.9c-7.6,5-16.4,7.2-24.2,6.3c-7.8-1-14.6-5.1-17.9-12.7c-2.4-5.4-2.2-11.3,0.4-16.1
	c2.5-4.5,7.1-8,13.7-8.8c-1.9-1.8-5.3-2.3-9.1-1c-4,1.4-8.1,4.7-10.6,10.2v19.6c1.9,4.1,4.9,7.7,8.8,10.5c9.5,6.8,24.3,8.6,40.7-0.9
	c25.9-14.9,25.7-64.8-14.4-80.4c-7.8-3-17.2-4.8-28.1-4.7c-2.3,0-4.6,0.2-6.9,0.4v5C278.7,440.5,281.7,440.2,284.7,440.1z
	 M546.1,475c6.5,0.1,12.2-2.8,16.1-7.1c3.4-3.7,5.5-8.6,5.6-13.6c-3-1.4-6.1-2.6-9.4-3.6c-0.6-0.2-1.3-0.4-1.9-0.5
	c0.4,1.5,0.3,3.2-0.3,4.8c-1.1,2.9-4.4,5.4-8.4,6.4c-4,1-8.7,0.4-12.5-2.9c-3-2.6-4.4-6.3-4.4-10.2c-2.7,0.3-5.4,0.8-8.1,1.4
	C531.3,456.9,540.6,463.6,546.1,475z M291.9,429.7c6.3,0.2,12.4,1.2,18.2,3c22.7,7.1,40.2,26,43.4,47.9c2.2-3.1,4.7-6.1,7.4-9.1
	c-7.9-27.6-30.8-44.6-56.5-47.4c-2.4-0.3-4.9-0.4-7.3-0.4c-7.1,0-14.3,1-21.4,3.1v4.6C281.1,430.1,286.6,429.5,291.9,429.7z
	 M282.6,434.2c11.1-0.1,20.6,1.7,28.6,4.8c27.8,10.8,37,37.9,31.7,59l0.7,0.3c2.4-5.9,5.6-11.7,9.6-17.4
	c-3-21.8-20.4-40.8-43.2-47.9c-6.1-1.9-12.6-3-19.2-3c-5,0-10,0.5-15.1,1.7v3C277.9,434.4,280.3,434.2,282.6,434.2z M278.2,443.5
	c0.6,0,1.2,0.2,1.6,0.6c0.4,0.4,0.7,0.9,0.8,1.6c0.1,0.7-0.2,1.5-0.7,2c-0.5,0.5-1.4,0.8-2.2,0.5c-0.2-0.1-0.1-0.4,0.1-0.3
	c0.8,0.3,1.4,0,1.9-0.4c0.5-0.5,0.7-1.1,0.6-1.7c-0.1-0.6-0.4-1.1-0.7-1.4c-0.4-0.3-0.8-0.5-1.4-0.5c-0.8,0-1.8,0.3-2.6,1v5.6
	c0.4,0.4,0.9,0.7,1.4,0.9c1.8,0.7,4.1,0.6,5.9-0.6c3.6-2.3,3.8-8.1,0.3-10.1c-2.5,0.1-5,0.5-7.6,0.9v2.8
	C276.4,443.8,277.4,443.5,278.2,443.5z M276.8,515.9c-0.4-0.6-0.8-1.2-1.2-1.9v2.6L276.8,515.9z M277,410.2c1.4,0.1,3,1,4.4,2.6
	c1.8,2.2,3.6,5.6,4.8,10.5c1.5-0.2,3.1-0.4,4.6-0.5c-1.1-7.5-3.8-12.7-6.9-15.8c-2.6-2.6-5.5-3.7-8.3-3.7v7
	C276.1,410.2,276.5,410.1,277,410.2z M284.1,405.7l-1.3-6.4c-2.4,0.7-4.8,1.4-7.2,2.3v0.7C278.5,402.2,281.5,403.3,284.1,405.7z
	 M303.1,395.9c27.9,0,52.7,13.3,68.8,33.9v-13c-17.1-17.9-41.2-29.2-68-28.9c-9.3,0.1-18.9,1.8-28.3,4.9v8
	C284.6,397.6,293.8,395.9,303.1,395.9z M285.8,563.2c0.5,2.9,0.1,5.4-0.9,7.4c3.8-4.2,8.2-7.9,13.4-10.9c-8-0.9-16.2-3.5-23.9-7.8
	c-0.1,0.3-0.1,0.7-0.2,1C279.7,553.7,284.7,557.3,285.8,563.2z M262.1,580.7c-1.1-1-2-2.1-2.7-3.2c-0.5,0.3-0.9,0.5-1.4,0.8
	C259.3,579.1,260.7,580,262.1,580.7z M279.4,519.1c-0.8-0.9-1.6-1.8-2.4-2.9l-1.4,0.8v5.5L279.4,519.1z M283.1,522.3
	c-1.2-0.9-2.4-1.9-3.4-3l-4,3.7v8.6L283.1,522.3z M299.8,558.8c1.9-1,3.8-1.9,5.9-2.7c-0.8-0.5-1.3-1.4-1.3-2.4
	c0-1.6,1.3-2.8,2.9-2.8c1.6,0,2.9,1.3,2.9,2.8c0,0.3,0,0.6-0.1,0.9c1.5-0.5,2.9-0.9,4.4-1.2c-0.2-0.4-0.2-0.7-0.2-1.1
	c0-1.6,1.3-2.8,2.9-2.8c1.6,0,2.8,1.3,2.8,2.8c0,0,0,0,0,0c1.7-0.3,3.4-0.5,5.1-0.6c-0.8-0.5-1.4-1.4-1.4-2.5c0-1.6,1.3-2.8,2.8-2.8
	c1.6,0,2.9,1.3,2.9,2.8c0,0.9-0.5,1.8-1.2,2.3c1.1,0,2.2,0,3.2,0c0.7,0,1.4,0,2.1,0.1c2.6-1.5,5.3-3.2,7.7-5.1
	c-0.6-1.8-1.2-3.7-1.6-5.6c-0.5-2.1-0.9-4.3-1.1-6.5c-4.4,4.4-9.5,7.6-14.8,9.8c0,0,0,0-0.1,0c-9.9,4-21,4.4-31.3,1.7
	c-0.1,0-0.1,0-0.2-0.1c-2.4-0.6-4.7-1.4-6.9-2.4c0,0-0.1,0-0.1,0c-2.2-0.9-4.4-2-6.4-3.3c0,0-0.1,0-0.1-0.1c-0.7-0.4-1.3-0.8-2-1.2
	c-0.3-0.2-0.6-0.4-0.9-0.6c-0.1,4.7-0.5,8.9-1.1,12.6C282.6,555.5,291.4,558.1,299.8,558.8z M334.6,542c1.6,0,2.9,1.3,2.9,2.9
	c0,1.6-1.3,2.8-2.9,2.8c-1.6,0-2.9-1.3-2.9-2.8C331.8,543.3,333,542,334.6,542z M297.6,550.3c1.6,0,2.9,1.3,2.9,2.9
	c0,1.6-1.3,2.8-2.9,2.8c-1.6,0-2.9-1.3-2.9-2.8C294.7,551.6,296,550.3,297.6,550.3z M288.3,548.1c1.6,0,2.9,1.3,2.9,2.8
	c0,1.6-1.3,2.9-2.9,2.9c-1.6,0-2.8-1.3-2.8-2.9C285.5,549.3,286.8,548.1,288.3,548.1z M279.6,544.6c1.6,0,2.9,1.3,2.9,2.8
	c0,1.6-1.3,2.9-2.9,2.9c-1.6,0-2.8-1.3-2.8-2.9C276.7,545.8,278,544.6,279.6,544.6z M285.7,423.4c-1.2-4.8-2.9-8.1-4.7-10.2
	c-1.5-1.7-3-2.5-4.4-2.5c-0.3,0-0.6,0.1-0.9,0.1c0,0-0.1,0-0.1,0.1v14.8C279,424.6,282.3,423.9,285.7,423.4z M324.4,379.2
	c10.1,2,19.7,5.5,28.5,10.2l5.1-8.6c-9.9-5.4-20.9-9.4-32.4-11.6L324.4,379.2z M362.5,373.5c-10.9-6-23-10.3-35.8-12.5l-1,7.9
	c11.6,2.2,22.6,6.1,32.5,11.6L362.5,373.5z M355.6,401.6l21.5-28.7c-3.1-2.1-6.4-4.1-9.7-5.9L349,397.7
	C351.3,398.9,353.5,400.2,355.6,401.6z M369.9,371.7c0.2-0.1,0.4-0.1,0.6-0.1c0.6,0,1.2,0.3,1.4,0.9c0.4,0.8,0,1.7-0.8,2
	c-0.8,0.4-1.7,0-2-0.8C368.7,372.9,369.1,372,369.9,371.7z M366.9,376.1c0.2-0.1,0.4-0.1,0.6-0.1c0.6,0,1.2,0.4,1.4,0.9
	c0.3,0.8,0,1.7-0.8,2c-0.8,0.3-1.7,0-2-0.8C365.8,377.3,366.1,376.4,366.9,376.1z M363.7,380.7c0.2-0.1,0.4-0.1,0.6-0.1
	c0.6,0,1.2,0.4,1.4,0.9c0.4,0.8,0,1.7-0.8,2c-0.8,0.3-1.7,0-2-0.8C362.5,382,362.9,381.1,363.7,380.7z M360.5,385.5
	c0.2-0.1,0.4-0.1,0.6-0.1c0.6,0,1.2,0.3,1.4,0.9c0.3,0.8,0,1.7-0.8,2c-0.8,0.4-1.7,0-2-0.8C359.3,386.8,359.7,385.9,360.5,385.5z
	 M357.1,390.5c0.2-0.1,0.4-0.1,0.6-0.1c0.6,0,1.2,0.3,1.4,0.9c0.3,0.8,0,1.7-0.8,2c-0.8,0.4-1.7,0-2-0.8
	C356,391.7,356.3,390.8,357.1,390.5z M353.9,395.3c0.2-0.1,0.4-0.1,0.6-0.1c0.6,0,1.2,0.4,1.4,0.9c0.3,0.8,0,1.7-0.8,2
	c-0.8,0.3-1.7,0-2-0.8C352.8,396.5,353.1,395.6,353.9,395.3z M324.4,379.5l-1.1,8.9c8.8,1.8,17.2,4.8,24.9,8.9l4.5-7.6
	C344,385,334.5,381.5,324.4,379.5z M284.9,388.9l-7-33.7c-0.8,0.2-1.5,0.3-2.3,0.5v7.7c0.6,0.3,1,1.1,0.7,1.8
	c-0.1,0.4-0.4,0.7-0.7,0.9v2.8c0.2-0.1,0.4-0.1,0.6-0.1c0.2,0,0.3,0,0.4,0.1c0.8,0.3,1.3,1.1,1,1.9c-0.3,0.8-1.1,1.3-1.9,1
	c0,0-0.1,0-0.1,0v12.6l2,6.6C280.1,390,282.5,389.4,284.9,388.9z M281.1,385.7c0.8,0.3,1.2,1.1,1,1.9c-0.3,0.8-1.1,1.2-1.9,1
	c-0.8-0.3-1.2-1.1-1-1.9c0.2-0.6,0.8-1.1,1.5-1.1C280.8,385.6,280.9,385.6,281.1,385.7z M276.2,375.3c0.2-0.6,0.8-1.1,1.5-1.1
	c0.1,0,0.3,0,0.4,0.1c0.8,0.3,1.2,1.1,1,1.9c-0.3,0.8-1.1,1.3-1.9,1C276.4,377,276,376.1,276.2,375.3z M277.7,381.1
	c0.2-0.6,0.8-1.1,1.5-1.1c0.2,0,0.3,0,0.4,0.1c0.8,0.3,1.3,1.1,1,1.9c-0.3,0.8-1.1,1.2-1.9,1C277.9,382.8,277.4,381.9,277.7,381.1z
	 M275.6,387.1v4.3c0.4-0.1,0.8-0.3,1.2-0.4L275.6,387.1z M362.7,373.2l3.9-6.6c-11.9-6.4-25-10.9-38.9-13.1l-0.9,7.1
	C339.6,362.9,351.7,367.2,362.7,373.2z M315.5,367.5l0.8-7.8c-3.2-0.3-6.6-0.4-9.9-0.4c-9,0-17.8,1-26.2,2.8l1.6,7.5
	c7.6-1.6,15.5-2.5,23.5-2.5C308.7,367,312.2,367.2,315.5,367.5z M314.5,377.7l1-9.9c-3.3-0.3-6.7-0.5-10.2-0.5
	c-8,0-15.9,0.8-23.5,2.5l2,9.5c6.7-1.4,13.6-2.1,20.5-2.1C307.8,377.2,311.1,377.4,314.5,377.7z M313.5,387l0.9-8.9
	c-3.3-0.3-6.7-0.5-10.1-0.5c-6.9,0-13.8,0.7-20.4,2.1l1.9,9c6-1.3,12.1-2,18.1-2C307.1,386.6,310.3,386.7,313.5,387z M316.3,359.3
	l0.7-7c-3.1-0.2-6.2-0.3-9.3-0.3c-10.1,0-19.8,1-29,3l1.4,6.7c8.5-1.8,17.3-2.8,26.3-2.8C309.8,358.9,313.1,359,316.3,359.3z
	 M275.6,537.9c0.4,0.2,0.7,0.5,1.1,0.7c0.6,0.4,1.2,0.8,1.8,1.2l8.6-14.9c-1.2-0.6-2.4-1.3-3.5-2.1c-0.1-0.1-0.2-0.1-0.2-0.2
	l-7.7,9.7v2.1C275.6,535.6,275.6,536.7,275.6,537.9z M322.4,388.2l4.4-34.9c-3-0.4-5.9-0.8-8.9-1l-3.5,34.7
	C317.1,387.4,319.8,387.7,322.4,388.2z M320.7,355c0.3-0.4,0.7-0.6,1.2-0.6c0.4,0,0.7,0.1,1,0.3c0.7,0.5,0.8,1.5,0.2,2.2
	c-0.5,0.6-1.5,0.7-2.1,0.2C320.3,356.7,320.2,355.7,320.7,355z M320.2,360.3c0.3-0.4,0.7-0.6,1.2-0.6c0.3,0,0.7,0.1,1,0.3
	c0.6,0.5,0.7,1.5,0.2,2.2c-0.5,0.6-1.5,0.8-2.2,0.2C319.7,362,319.6,361,320.2,360.3z M319.4,365.9c0.3-0.4,0.7-0.6,1.2-0.6
	c0.3,0,0.7,0.1,1,0.3c0.6,0.5,0.8,1.5,0.2,2.1c-0.5,0.7-1.5,0.8-2.2,0.3C319,367.6,318.9,366.6,319.4,365.9z M318.8,371.7
	c0.3-0.4,0.7-0.6,1.2-0.6c0.3,0,0.7,0.1,1,0.3c0.6,0.5,0.7,1.5,0.2,2.2c-0.5,0.6-1.5,0.7-2.2,0.2
	C318.4,373.3,318.3,372.3,318.8,371.7z M318.1,377.6c0.3-0.4,0.7-0.6,1.2-0.6c0.4,0,0.7,0.1,1,0.3c0.7,0.5,0.8,1.5,0.2,2.2
	c-0.5,0.6-1.5,0.7-2.1,0.2C317.7,379.2,317.6,378.3,318.1,377.6z M318.7,382.8c0.4,0,0.7,0.1,1,0.3c0.7,0.5,0.8,1.5,0.2,2.2
	c-0.5,0.6-1.5,0.7-2.1,0.2c-0.7-0.5-0.8-1.5-0.2-2.2C317.8,383,318.2,382.8,318.7,382.8z M310,448.9c-0.3,2-1.7,3.9-3.8,4.8
	c-1.3,0.6-2.7,0.6-4,0.4c1.6,0.7,3.2,1.5,4.6,2.4c1,0.5,2,1.1,3,1.6c-0.1-0.1-0.2-0.2-0.3-0.3c-1.4-1.4-2-3.6-0.8-5.7
	c0.8-1.6,2.3-2.1,3.6-2.1c0.4,0,0.8,0.1,1.2,0.2c0.6,0.2,1.1,0.6,1.4,1.1c0.3,0.5,0.4,1.1,0.3,1.7c-0.1,0.7-0.6,1.4-1.3,1.7
	c-0.7,0.4-1.5,0.4-2.3-0.2c-0.2-0.1,0-0.4,0.2-0.3c0.6,0.5,1.4,0.4,1.9,0.1c0.6-0.3,1-0.9,1.1-1.5c0.1-0.6,0-1.2-0.3-1.5
	c-0.3-0.4-0.7-0.7-1.2-0.9c-1.3-0.5-3.4-0.2-4.4,1.7c-1.1,2-0.6,4,0.7,5.3c1.4,1.3,3.6,2.1,6.1,1.6c4.5-0.9,5.7-5.3,4-7.6
	c-3.2-2.5-6.8-4.7-10.8-6.4C309.9,446.2,310.2,447.6,310,448.9z M288.4,494.5c0.1,0.1,0.1,0.2,0.2,0.3c-1.1-2.2-1.2-4.6-0.3-6.7
	c0.8-1.9,2.5-3.6,5.2-4.9c-5.4,1.2-9.2,4.3-11.4,8.2c-0.1,0.1-0.1,0.1-0.1,0.2C284.4,491.4,287.1,492.5,288.4,494.5z M315.8,459.5
	c-1.6,0.3-3.2,0.1-4.5-0.5c9.6,6.4,13.2,15.2,12.8,23.3c-0.5,9.6-6.6,18.1-15,20.2c-9.1,2.2-16.6-1.5-19.8-6.5
	c-0.1-0.2-0.2-0.4-0.3-0.6c0.6,1.5,0.6,2.9,0,4.1c-0.7,1.4-2.1,2.3-3.8,2.4c-1.2,0-2.2-0.4-2.9-1.1c-0.7-0.7-1-1.6-0.7-2.5
	c0.3-0.8,0.8-1.3,1.5-1.5c0.7-0.2,1.5-0.1,2.3,0.5c0.2,0.1,0,0.4-0.2,0.3c-0.7-0.5-1.4-0.6-2-0.4c-0.6,0.2-1,0.6-1.2,1.3
	c-0.3,0.8,0,1.6,0.6,2.2c0.6,0.6,1.5,1,2.7,1c1.6,0,2.9-0.9,3.5-2.1c0.6-1.3,0.6-3-0.5-4.6c-1.2-1.9-4-2.9-6.4-2.7
	c-2.2,4.5-2.3,10-0.1,15.1c0.5,1.2,1.2,2.3,1.8,3.3c-0.1-0.4-0.1-0.7-0.2-1.2c-0.3-5.1,3.3-8.4,7.1-8.8c2.6-0.3,5.2,0.8,6.6,2.9
	c1.2,1.8,1.2,3.6,0.5,5s-2.1,2.3-3.8,2.3c-1.2,0-2.3-0.4-2.9-1.1c-0.7-0.7-1-1.6-0.7-2.5c0.3-0.7,0.8-1.3,1.5-1.5
	c0.7-0.2,1.5-0.1,2.3,0.5c0.2,0.1,0,0.4-0.2,0.3c-0.7-0.5-1.4-0.6-2-0.4c-0.6,0.2-1,0.7-1.3,1.3c-0.3,0.8,0,1.5,0.6,2.2
	c0.6,0.6,1.5,1,2.6,1c1.6,0,2.9-0.9,3.5-2.2c0.6-1.3,0.6-3-0.5-4.7c-1.3-1.9-3.8-3-6.2-2.7c-3.6,0.4-7.1,3.5-6.8,8.5
	c0.1,0.8,0.1,1.4,0.4,2c3.6,4.8,9,7.5,15.1,8.2c1.7,0.2,3.5,0.3,5.3,0.2c-4.1-0.7-7.1-3.8-7.3-7.5c-0.3-5.1,3.3-8.4,7.1-8.8
	c2.6-0.3,5.3,0.8,6.6,2.9c1.2,1.8,1.2,3.6,0.5,5c-0.7,1.4-2.1,2.3-3.8,2.3c-1.2,0-2.2-0.4-2.9-1.1c-0.7-0.7-1-1.6-0.7-2.5
	c0.3-0.7,0.8-1.3,1.5-1.5c0.7-0.2,1.5-0.1,2.3,0.5c0.2,0.1,0,0.4-0.2,0.3c-0.7-0.5-1.4-0.6-2-0.4c-0.6,0.2-1,0.7-1.2,1.3
	c-0.3,0.8,0,1.5,0.6,2.2c0.6,0.6,1.5,1,2.7,1c1.6,0,2.9-0.9,3.5-2.2c0.6-1.3,0.6-3-0.5-4.6c-1.3-1.9-3.8-3-6.3-2.7
	c-3.6,0.4-7.1,3.5-6.8,8.5c0.3,4.1,4,7.3,8.9,7.4c4.7-0.5,9.6-2.1,14.1-4.6c-2.3,0-4.6-0.9-6.6-3c-1.5-1.6-2.4-4.2-2.1-6.7
	c0.2-2.5,1.7-4.8,4.7-5.8c0.5-0.2,1-0.3,1.5-0.3c1.5-0.1,2.7,0.3,3.7,1c1.3,1,1.9,2.6,1.7,4.3c-0.3,2.4-2.9,3.6-4.6,2.6
	c-0.7-0.4-1.2-1.1-1.3-1.8c-0.1-0.7,0.3-1.5,1-2.1c0.2-0.1,0.4,0.1,0.2,0.3c-0.7,0.6-1,1.2-0.9,1.8c0.1,0.6,0.5,1.2,1.1,1.6
	c1.5,0.9,3.9-0.1,4.2-2.3c0.2-1.6-0.4-3.1-1.6-4c-1.2-0.9-2.9-1.3-4.9-0.7c-3,0.9-4.3,3.1-4.5,5.4c-0.3,2.4,0.6,4.9,2.1,6.4
	c2.1,2.2,4.6,3,7,2.9c0.7-0.4,1.3-0.8,2-1.2c5.1-3.4,8.7-8,10.9-13.1c-3.1,3.1-8.7,3.3-11.7,0c-1.6-1.8-2-4.4-1.3-6.5
	c0.6-1.8,2.1-3.3,4.2-3.5c0.3,0,0.6,0,1,0c2.1,0.2,3.3,1.6,3.5,3.1c0.2,1.5-0.5,3-2.2,3.5c-0.7,0.2-1.5,0.1-2.1-0.4
	c-0.6-0.5-0.8-1.3-0.6-2.2c0.1-0.2,0.4-0.2,0.3,0.1c-0.2,0.8,0.1,1.5,0.5,1.9c0.4,0.4,1.1,0.6,1.7,0.4c1.5-0.5,2.1-1.8,1.9-3.2
	c-0.2-1.3-1.2-2.6-3.2-2.8c-2.5-0.3-4.1,1.2-4.8,3.2c-0.7,2-0.4,4.5,1.2,6.2c3.1,3.3,9,2.9,11.8-0.7c1.4-3.6,2.1-7.5,2.3-11.4
	c-0.8,1.6-2.5,2.6-4.4,3c-2.4,0.4-5.1-0.3-6.9-2.3c-1.5-1.7-1.8-4.1-1.1-6.1c0.7-2,2.5-3.5,4.9-3.3c2,0.2,3.1,1.5,3.3,2.9
	c0.2,1.4-0.5,2.9-2,3.3c-0.7,0.2-1.5,0-2.1-0.4c-0.5-0.4-0.8-1.2-0.4-2.1c0.1-0.2,0.4-0.1,0.3,0.1c-0.3,0.8-0.1,1.4,0.3,1.7
	c0.5,0.4,1.2,0.5,1.8,0.3c1.3-0.3,2-1.6,1.8-2.9c-0.2-1.3-1.1-2.5-3-2.6c-2.3-0.2-3.9,1.2-4.6,3.1c-0.7,1.8-0.5,4.2,1,5.7
	c1.7,1.9,4.3,2.6,6.6,2.2c2.1-0.4,3.9-1.6,4.4-3.6c0.1-3.6-0.4-7.2-1.2-10.8c-1.1,2-4,3.4-7.3,2.6c-2.6-0.6-4.3-2.4-4.9-4.4
	c-0.5-2,0.1-4.2,2.1-5.6c1-0.7,2-0.8,2.9-0.7c0.9,0.2,1.7,0.6,2.3,1.2c0.4,0.5,0.7,1,0.8,1.6c0.1,0.6-0.1,1.2-0.5,1.7
	c-0.4,0.6-1.2,1-1.9,1c-0.7,0-1.5-0.4-2-1.2c-0.1-0.2,0.2-0.4,0.3-0.2c0.4,0.7,1,1,1.6,1c0.6,0,1.3-0.3,1.7-0.8
	c0.4-0.5,0.5-1,0.4-1.5c0-0.5-0.3-0.9-0.7-1.4c-1-1.1-2.9-1.7-4.7-0.5c-1.9,1.3-2.5,3.4-2,5.2c0.5,1.9,2.1,3.6,4.6,4.2
	c3.4,0.8,6.3-0.8,7.1-2.8c-1.1-4.4-2.9-8.7-5.2-12.5c0.1,2.9-3.2,5.8-7.6,4.8c-2.6-0.6-4.4-2.4-5-4.3c-0.6-2,0-4.2,2-5.6
	c1-0.7,2-0.8,2.9-0.7c0.9,0.2,1.7,0.6,2.3,1.2c0.4,0.5,0.7,1,0.7,1.6c0.1,0.6-0.1,1.2-0.5,1.7c-0.4,0.6-1.2,1-1.9,1
	c-0.8,0-1.5-0.4-2-1.2c-0.1-0.2,0.2-0.4,0.3-0.2c0.4,0.7,1,1,1.7,1c0.6,0,1.3-0.3,1.6-0.8c0.4-0.5,0.5-1,0.5-1.5
	c-0.1-0.5-0.3-1-0.7-1.4c-1-1.1-2.9-1.7-4.7-0.5c-1.9,1.3-2.4,3.3-1.8,5.2c0.6,1.8,2.2,3.5,4.7,4.1c4.6,1.1,7.7-2.3,7.1-5.1
	c-0.9-1.4-2-2.8-3-4.1c-1.8-2.2-3.9-4.2-6.1-6C321.6,454.8,320.1,458.7,315.8,459.5z M288.9,488.3c-1,2.3-0.6,4.9,0.9,7.2
	c3,4.7,10.2,8.4,19,6.2c8-2,14-10.2,14.5-19.6c0.4-7.8-3.1-16.4-12.5-22.7c3,2.8,5.3,6.2,6.7,10.3c2.9,8.3,1.5,15.2-2.8,19.7
	c-0.7,0.7-3,2.7-6.2,4.1c-3.3,1.4-7.5,2.1-11.8,0.2c-1.5-0.7-2.7-1.8-3.4-3c-0.8-1.2-1.2-2.6-1-3.9c0.1-1.2,0.6-2.3,1.6-3.2
	C291.3,484.9,289.7,486.5,288.9,488.3z M295.4,483.7c-0.8,0.6-1.3,1.5-1.6,2.4L295.4,483.7z M296.7,481.8l10.1-15.1
	c-1.8-1.4-3.9-2.6-6.2-3.5l-6.9,16.5C294.9,480.2,295.9,480.9,296.7,481.8z M293.1,461.7l-3.5,17.5c1.3-0.1,2.6,0.1,3.7,0.4
	l6.9-16.5C298.1,462.4,295.7,461.9,293.1,461.7z M260,577.2c-0.1,0.1-0.2,0.1-0.3,0.2c1,1.7,2.4,3.1,4.1,4.3
	c3.5,1.8,7.2,3.4,11.2,4.6c1.8-4.2,4.1-8.2,6.9-11.9c-0.5,0.4-1.1,0.8-1.7,1.1c-4.5,2.3-11.1,1.4-14-3.8
	C264.2,574,262.2,575.9,260,577.2z M277.7,563.2c0.9,1.9,0.7,4.3-1.4,5.9c-1.5,1.2-3.4,0.8-4.4-0.1c-0.6-0.6-0.9-1.4-0.8-2.2
	c0.1-0.8,0.6-1.6,1.5-2.2c0.2-0.1,0.4,0.2,0.2,0.3c-0.8,0.5-1.3,1.2-1.4,1.9c-0.1,0.7,0.1,1.4,0.7,1.9c0.8,0.8,2.6,1.1,4,0.1
	c2-1.6,2.2-3.8,1.3-5.5c-0.9-1.8-2.8-3.1-5.1-3.1c-0.4,1.2-0.8,2.3-1.3,3.3c-1.4,3-3,5.6-4.6,7.8c0,0,0,0.1,0.1,0.1
	c2.8,5,9.2,5.9,13.6,3.6c3.8-2,6.5-6.2,5.4-11.8c-1.1-5.7-5.9-9.3-11.3-10c-0.5,2.4-1,4.6-1.7,6.6
	C274.8,560,276.8,561.4,277.7,563.2z M298.4,445.2c0,2-1,4-3,5.3c-0.9,0.6-2,1-3.1,1c2.7,0.3,5.4,0.9,7.9,1.8
	c-0.1-0.1-0.2-0.1-0.3-0.2c-1.7-1.1-2.7-3-1.8-5.3c0.9-2.2,3-2.8,4.6-2.5c0.6,0.2,1.2,0.4,1.5,0.9c0.4,0.4,0.5,1,0.5,1.7
	c0,0.7-0.4,1.5-1.1,1.9c-0.6,0.4-1.5,0.6-2.3,0.1c-0.2-0.1-0.1-0.4,0.2-0.3c0.7,0.4,1.4,0.3,1.9-0.1c0.5-0.4,0.9-1,0.9-1.6
	c0-0.6-0.2-1.1-0.5-1.5c-0.3-0.4-0.8-0.6-1.3-0.8c-1.4-0.3-3.4,0.2-4.2,2.3c-0.8,2.1,0.1,3.9,1.7,4.9c1.6,1.1,4,1.3,5.9,0.5
	c2-0.8,3.3-2.7,3.6-4.5c0.3-1.6-0.3-3.2-1.8-4.2c-3.6-1.5-7.4-2.6-11.4-3.3C297.7,442.3,298.4,443.8,298.4,445.2z M594.9,536.5
	c0.6-1.3,1.1-2.7,1.6-4c1.3-4.9,2.4-9.8,3.4-14.8c0.4-4.6,0.7-9.1,0.7-13.6c-0.7-11.8-3.8-21.7-9.4-29.8
	C596.4,490,599.1,510.8,594.9,536.5z M283.1,451.1c-0.5,0.3-1,0.6-1.5,0.7c1.8-0.3,3.5-0.4,5.2-0.5c1.1,0,2.1,0,3.1,0.1
	c-0.3-0.1-0.5-0.2-0.8-0.3c-1.9-0.8-3.2-2.5-2.7-4.9c0.5-2.3,2.5-3.3,4.1-3.2c0.6,0,1.2,0.2,1.6,0.6c0.4,0.4,0.7,0.9,0.8,1.6
	c0.1,0.7-0.2,1.5-0.7,2.1c-0.5,0.5-1.3,0.8-2.2,0.5c-0.2-0.1-0.1-0.4,0.1-0.3c0.8,0.3,1.4,0,1.9-0.4c0.5-0.5,0.7-1.1,0.6-1.7
	c-0.1-0.6-0.4-1.1-0.7-1.4c-0.4-0.3-0.8-0.5-1.4-0.5c-1.4-0.1-3.3,0.8-3.7,3c-0.4,2.3,0.8,3.8,2.5,4.5c1.8,0.7,4.1,0.6,5.9-0.6
	c1.8-1.2,2.8-3.2,2.8-5c0-1.7-0.8-3.3-2.5-4c-2.7-0.4-5.5-0.6-8.4-0.7c-1.1,0-2.2,0-3.3,0.1C287.1,443,286.8,448.7,283.1,451.1z
	 M282.1,481.8l-3.5-17.4c-0.5,0.2-0.9,0.4-1.4,0.6c-0.6,0.2-1.1,0.5-1.7,0.8v8.1l4.1,9.8C280.5,483,281.3,482.4,282.1,481.8z
	 M276.9,451.7c-0.5-0.2-0.9-0.4-1.3-0.7v2.2c1.3-0.4,2.7-0.8,4-1C278.7,452.2,277.7,452,276.9,451.7z M279.4,483.9l-3.8-9.1v8.5
	l1.8,2.7C278.1,485.3,278.7,484.6,279.4,483.9z M536,457.7c3.6,3.1,7.9,3.6,11.6,2.7c3.7-0.9,6.7-3.3,7.7-5.8
	c0.6-1.6,0.6-3.3,0.1-4.7c-2.7-0.7-5.4-1.2-8-1.5c0,0,0,0.1,0,0.1c-0.2,1.1,0.6,2.6,3.2,3.2c0.7,0.2,0.4,1.2-0.3,1c0,0-0.1,0-0.1,0
	c-4.2,0.9-7.5-0.6-9.2-3.1c-0.4-0.5-0.7-1.1-0.9-1.7c-2.7-0.1-5.4,0-8.1,0.3C531.9,451.8,533.2,455.2,536,457.7z M290.9,461.4
	c7-0.2,12.7,2.1,16.8,5.6c6.5,5.6,8.8,14.3,5.2,21c-0.9,1.6-2,3-3.3,4c2.3-1.2,4-2.7,4.4-3.1c4-4.2,5.3-10.7,2.5-18.7
	c-3.6-10.6-13.7-16.7-25.3-17.7c-1.1-0.1-2.2-0.2-3.3-0.2c-4.1,0-8.3,0.6-12.4,1.9v2.3c0.2,0,0.3,0,0.5,0c1.6,0,2.8,1.3,2.8,2.8
	c0,1.6-1.3,2.9-2.8,2.9c-0.2,0-0.3,0-0.5-0.1v3.3c0.5-0.3,1-0.5,1.5-0.7C282.1,462.5,286.8,461.5,290.9,461.4z M309.8,463.2
	c0.6,0,1.1,0.5,1.1,1.1c0,0.6-0.5,1.1-1.1,1.1c-0.6,0-1.1-0.5-1.1-1.1C308.8,463.6,309.3,463.2,309.8,463.2z M305.7,459.6
	c0.8,0,1.5,0.6,1.5,1.4c0,0.8-0.7,1.4-1.5,1.4s-1.4-0.6-1.4-1.4C304.3,460.2,304.9,459.6,305.7,459.6z M299.9,456.4
	c1,0,1.8,0.8,1.8,1.8c0,1-0.8,1.8-1.8,1.8c-1,0-1.8-0.8-1.8-1.8C298,457.3,298.9,456.4,299.9,456.4z M292.7,454.7
	c1.2,0,2.2,1,2.2,2.2c0,1.2-1,2.2-2.2,2.2c-1.2,0-2.2-1-2.2-2.2C290.5,455.7,291.5,454.7,292.7,454.7z M284.6,454.6
	c1.4,0,2.6,1.2,2.6,2.6c0,1.4-1.2,2.6-2.6,2.6c-1.4,0-2.6-1.2-2.6-2.6C282.1,455.7,283.2,454.6,284.6,454.6z M277.2,486.3l-1.6-2.4
	v4.4l0.1,0.1C276.2,487.7,276.7,487,277.2,486.3z M307.8,492.8c1.9-1.1,3.6-2.7,4.9-5c0-0.1,0.1-0.1,0.1-0.2l-14.1,5.8
	C301.9,494.4,305.1,493.9,307.8,492.8z M282.4,481.6c1-0.6,2-1.1,3-1.5v-17.8c-2.1,0.4-4.2,1.1-6.5,1.9L282.4,481.6z M292,461.7
	c-2,0-4,0.2-6.1,0.6V480c1.2-0.4,2.3-0.6,3.5-0.7l3.5-17.5C292.5,461.7,292.2,461.7,292,461.7z M296.2,483.1c0,0-0.1,0.1-0.1,0.1
	l-2.5,3.8c-0.1,0.3-0.1,0.5-0.1,0.8c0,0.7,0.2,1.5,0.5,2.2l17.7-17.6c-1.1-1.9-2.5-3.6-4.3-5.1c-0.1-0.1-0.3-0.2-0.4-0.3l-10.1,15.2
	C297.3,482.6,296.9,483.3,296.2,483.1z M295.5,491.8l18.7-12.4c-0.3-2.3-1-4.6-2.2-6.7l-17.7,17.6
	C294.6,490.8,295,491.3,295.5,491.8z M578.8,536.4c1.4,2.2,2.5,4.7,3.4,7.3l3.6-0.3c0.1-2.6,0-5.2-0.1-7.7L578.8,536.4z M359,417.3
	c-1.8-1.5-3.6-3-5.5-4.4c1.7,1.7,3,4,3.6,6.7L359,417.3z M564.1,546.7c-0.6-0.7-1.2-1.3-1.9-2c1.1,10.3,1,20.3-0.1,29.8
	c1.4-0.9,2.7-1.8,4-2.7C566.3,562,565.6,554.1,564.1,546.7z M569.1,535.9c-5.9-6-13-8-19.5-7.2c-6.5,0.8-12.5,4.3-16.3,9.4
	c-4.8,6.3-6.3,16.4-1.4,22.8c2.6,3.4,7,5.1,11.2,5c4.2-0.2,8.1-2.1,9.7-6c1.3-3.1,0.9-6.2-0.6-8.4c-0.8-1.2-2-2.1-3.4-2.4
	c0.6,0.4,1.1,0.8,1.5,1.4c1,1.5,1.2,3.5,0.5,5.3c-0.7,1.9-2.5,3.4-4.6,4.2c-2.1,0.7-4.7,0.5-7-1.1c-3.2-2.3-4.1-5.9-3.3-9.4
	c0.8-3.4,3.2-6.7,6.9-8.4c2.5-1.2,5-1.7,7.5-1.7c5.8-0.1,11.1,2.7,14.6,6.9c0,0,0.1,0.1,0.1,0.1c0.9,1.2,1.7,2.4,2.3,3.7
	c2.6,5.5,3.6,11.8,3.3,18.5c2.9-2.3,5.5-4.7,8-7.2C578.6,551.7,575.9,542.9,569.1,535.9z M566.4,550.4c-0.3-0.6-0.6-1.1-0.9-1.6
	c1.2,6.6,1.8,13.8,1.6,22.4c0.8-0.6,1.6-1.2,2.4-1.8C569.9,562.4,569,556,566.4,550.4z M542.9,577c-0.4,2.7-0.8,5.4-1.4,8.1
	c2.2-0.9,4.4-1.8,6.5-2.8c0.4-2.2,0.8-4.3,1.1-6.5C547.4,576.5,545.2,576.9,542.9,577z M561.2,544c-2.8-2.2-6.2-3.6-9.9-3.8
	c0.2,2.5,0.3,5,0.4,7.5c3.9,0.8,6.9,3.8,8.1,7.6c1.5,4.7,0.6,10.6-2.9,15.1c-1.6,2.1-3.8,3.8-6.6,5c-0.3,2.1-0.7,4.3-1.1,6.4
	c4.2-2.1,8.2-4.3,11.9-6.6C562.4,565.2,562.5,554.8,561.2,544z M561.9,500.6c-0.8,6.6,0.1,15.1,2,23.1c1.2,0.5,2.4,1.1,3.5,1.7l0,0
	c-1.2-6.2-1.7-12.2-1.2-17c0.4-3.8,1.2-6.6,2.4-8.6c1.2-2,2.7-3.1,4.4-3.2c-1.2-1.4-2.5-2.7-3.9-4c-0.9-0.8-1.9-1.6-2.9-2.3
	c-0.5,0.5-1.1,1.1-1.5,1.8C563.3,494.3,562.4,497.2,561.9,500.6z M538.1,576.9c-2.4-0.3-4.5-0.8-6.6-1.6c-1.3,4.9-2.9,9.7-4.9,14.5
	c1.5-0.4,3-0.8,4.4-1.2c0.2-1.3,1.3-2.3,2.6-2.3c0.8,0,1.5,0.4,2,0.9c1.7-0.6,3.3-1.1,4.9-1.7c0.6-2.8,1.1-5.6,1.5-8.4
	C540.8,577.1,539.5,577,538.1,576.9z M535.6,583.6c-1.3,0-2.4-1.1-2.4-2.4c0-1.4,1.1-2.4,2.4-2.4c1.4,0,2.4,1.1,2.4,2.4
	C538,582.5,537,583.6,535.6,583.6z M576.4,497.6c0.6,0.4,1.3,1,1.8,1.6c1.6,1.8,3.1,4.5,4.3,8.2c0.3,0.8,0.5,1.8,0.8,2.8
	c2.2,5.6,3.7,11.8,4.5,18.4c0.6,5.5,0.9,10.8,0.7,16.1c0.4-4.1,0.7-8.2,0.7-12.3c0-12-1.8-23.5-5-31.7c-1.6-4.1-3.6-7.4-5.9-9.5
	c-2-1.9-4.2-2.9-6.7-2.9c-0.3,0-0.7,0-1.1,0.1c-1,0.1-1.8,0.4-2.6,0.8c0.8,0.6,1.7,1.3,2.5,2C572.6,493,574.6,495.2,576.4,497.6z
	 M469.8,575.1c-2.2-1.4-4.5-2.9-6.8-5.3c-0.5,7.7,1.1,13.2,4.1,17.1c2.9,3.8,7.2,6.1,12.5,7.6c0.1-0.2,0.3-0.3,0.5-0.4
	c-1.2-7.6-2-11-4.4-14.3C474.2,577.9,472.1,576.6,469.8,575.1z M566.8,526.5c-14-8.1-33.4-5.2-43.5,9.8c-5.2,7.8-6.3,17.1-3.7,24.8
	c2.6,7.6,8.9,13.6,18.5,14.6c8.8,1,14.5-1.9,17.8-6.1c3.3-4.2,4.1-9.7,2.7-14c-1.3-4.1-5-7.2-9.6-7c1.4,0.4,2.5,1.3,3.4,2.5
	c1.6,2.2,2,5.5,0.6,8.7c-1.7,4-5.8,6.1-10,6.2c-4.3,0.2-8.8-1.6-11.5-5.1c-5-6.5-3.4-16.8,1.4-23.2c3.9-5.1,9.9-8.7,16.5-9.5
	c0.8-0.1,1.7-0.2,2.5-0.2c5.9-0.1,12,2.1,17.2,7.5c6.9,7,9.6,15.8,9.6,25.1c1.5-1.6,2.9-3.2,4.3-4.8
	C582.7,541.6,575.9,531.8,566.8,526.5z M520.2,588.9c0.4,0.7,0.7,1.4,1,2.1c1.5-0.3,2.9-0.6,4.4-1c0.3-0.7,0.6-1.3,0.8-2
	L520.2,588.9z M543.4,541.7c0.5,5.8,0.8,11.6,0.8,17.4c0.6,0,1.2-0.2,1.8-0.3c1.8-0.6,3.3-2,4-3.6c0.6-1.5,0.4-3.2-0.4-4.3
	c-0.7-1.1-2-1.8-3.8-1.5c-0.1,0.1-0.2,0.1-0.4,0.2c-0.7,0.3-1.2-0.8-0.4-1.1c2-0.8,4-1.1,5.8-0.8c-0.1-2.5-0.2-4.9-0.4-7.3
	C548,540.2,545.7,540.7,543.4,541.7z M537,549.5c-0.7,3.1,0.1,6.3,2.9,8.3c1.2,0.8,2.3,1.2,3.4,1.3c0.1-5.7-0.2-11.3-0.7-17
	C539.6,543.8,537.6,546.6,537,549.5z M492.6,581c3-3.6,5.2-7.6,5.1-12.6c-5.5,2.1-9.1,5-11.8,8.2c0,0.7-0.1,1.5-0.1,2.2
	c-0.3,4.1-1.3,8-2.5,11.3C486.4,587.1,489.8,584.2,492.6,581z M584,552c0.1,0.9,0.2,1.8,0.2,2.7c0.3-0.4,0.6-0.8,0.9-1.2
	c0.1-0.5,0.1-1.1,0.2-1.6L584,552z M583.8,481.1c-4.1-6-9.8-8.9-15.1-8.9c-1.5,0-2.9,0.2-4.3,0.7c-4,1.3-6.7,3.4-8.5,6.3
	c-0.8,1.3-1.4,2.6-1.8,4.2c5,0.8,9.5,2.7,13.6,5.6c0.8-0.5,1.8-0.8,2.9-0.9c0.7-0.1,1.5-0.1,2.2,0c2.1,0.3,4.1,1.3,5.8,2.9
	c2.3,2.2,4.3,5.5,6,9.7c3.2,8.2,5,19.7,5.1,31.8c0,5.4-0.4,11-1.2,16.4c0.7-1,1.3-2.1,1.9-3.1C596,516.2,591.9,493.1,583.8,481.1z
	 M510.4,589c-1.9-1.1-4.3-1.8-7.6-1.8c-0.3,0-0.5,0-0.8,0c-4.4,3.1-10.2,5.6-17.8,7.5c6.9-0.1,13.5-0.5,19.8-1.1
	c2.3-0.5,4.6-0.9,7-0.8c1.1-0.2,2.2-0.3,3.3-0.5C513.1,591,511.9,589.9,510.4,589z M366.3,567l-0.6,0.8c1.3,1,2.5,2.1,3.6,3.2
	l0.4-0.4C368.7,569.3,367.5,568.1,366.3,567z M373,574.8l-0.3,0.2c0.9,1.3,1.7,2.6,2.4,4l0.3-0.2C374.7,577.4,373.8,576.1,373,574.8
	z M369.9,570.8l-0.4,0.4c1.1,1.1,2.1,2.3,2.9,3.5l0.3-0.2C371.9,573.2,370.9,572,369.9,570.8z M363.2,564.2
	c-0.2-0.2-0.5-0.4-0.7-0.5l-0.9,1.3c1.3,0.8,2.6,1.6,3.8,2.5l0.7-0.8C365.1,565.9,364.2,565,363.2,564.2z M348.7,556.1l-1.2,4
	c1.6,0.2,3.1,0.5,4.6,1l1.3-3C351.9,557.4,350.3,556.7,348.7,556.1z M353.7,558.3l-1.2,3c1.5,0.4,2.9,0.9,4.3,1.5l1.1-2.1
	C356.6,559.7,355.2,559,353.7,558.3z M358.2,560.7l-1.1,2.1c1.4,0.6,2.8,1.3,4.2,2.1l0.9-1.4C360.9,562.5,359.6,561.6,358.2,560.7z
	 M517.5,547.6c-0.5,0.1-1,0.1-1.6,0.2c0.1,3.8-0.1,7.6-0.6,11.4l2.2-2.1C516.9,554.1,516.9,550.9,517.5,547.6z M553.1,489.9
	c-0.3,8.5,2.2,19.4,5.3,32c1.7,0.4,3.4,1,5.1,1.7c-1.9-8-2.8-16.3-1.9-22.9c0.4-3.4,1.3-6.4,2.8-8.6c0.5-0.7,0.9-1.3,1.5-1.8
	c-3.7-2.5-7.8-4.2-12.3-4.9C553.3,486.7,553.2,488.2,553.1,489.9z M456.8,584.5c-2-4.4-1.8-9.1-1.4-14c0.1-1.6,0.3-3.3,0.4-4.9h-8.3
	c-0.3,6.2-0.2,11.9,1.8,16.4c2,4.4,5.2,7.9,10.2,10.1c3.7,1.7,8.5,2.6,14.5,2.7h0.4c-3.7-0.4-6.8-1.2-9.3-2.3
	C461.1,590.7,458.5,588.1,456.8,584.5z M507.2,582.7c-1.3,1.4-2.9,2.8-4.7,4.1c0.6,0,1.1,0,1.6,0c2.6,0.2,4.7,0.8,6.4,1.8
	c1.7,1,3,2.2,4.2,3.5c1.9-0.3,3.7-0.6,5.5-1c-0.3-0.8-0.7-1.5-1.2-2.2C517,585.8,513.7,583.4,507.2,582.7z M343.8,554.6l-1,5.1
	c1.5,0.1,2.9,0.2,4.4,0.4l1.2-4.1C346.9,555.5,345.4,555,343.8,554.6z M377.8,583.9l-0.7,0.3c0.3,1.1,0.6,2.2,0.8,3.2l0.4-2.4
	C378.1,584.6,378,584.3,377.8,583.9z M379.9,585.6c0.7-0.7,1.4-1.3,2.2-1.8c-1.1-0.3-2.2-0.6-3.2-1
	C379.2,583.8,379.6,584.7,379.9,585.6z M375.6,579.1l-0.4,0.2c0.7,1.5,1.3,3,1.8,4.5l0.7-0.3C377.1,582,376.4,580.6,375.6,579.1z
	 M378.1,588.5c0.1,0.6,0.2,1.2,0.2,1.8l2.3,3.8c-0.4-2.9-1.1-5.7-2.1-8.4L378.1,588.5z M543.3,513.8c-1.3,1.4-2.7,2.6-4.2,3.6
	c0.4,1.6,0.8,3.2,1.2,4.9c2.3-0.7,4.8-1.1,7.2-1.3c-0.7-3.2-1.5-6.3-2.4-9.4C544.6,512.4,544,513.1,543.3,513.8z M537.8,515.8
	c-2.4-8.5-5.6-16.5-9.4-24c-0.6,0.5-1.2,1-1.7,1.6c3.3,7.7,5.7,15.9,7.2,24.3C535.2,517.3,536.5,516.7,537.8,515.8z M534.3,519.9
	c0.3,1.5,0.5,3.1,0.7,4.6c1.5-0.7,3-1.4,4.6-1.9c-0.4-1.6-0.7-3.1-1.2-4.7C537.1,518.7,535.7,519.4,534.3,519.9z M525.7,528.3
	l2.6,0.6c1.8-1.6,3.8-2.9,5.8-4c-0.2-1.4-0.4-2.8-0.6-4.2L525.7,528.3z M530.4,506.5c0,0-0.1,0-0.1,0l-10.3-1.5
	c-0.5,2-0.5,3.9-0.2,5.7l12.2,2C531.5,510.6,531,508.5,530.4,506.5z M520,511.3c0.7,2.6,2.5,4.8,5.7,6.4c0.3,0.2,0.6,0.3,1,0.4
	l5.1-4.9L520,511.3z M527.1,518.2c1.8,0.5,3.9,0.4,6-0.2c-0.3-1.5-0.6-3.1-0.9-4.6L527.1,518.2z M585.3,528l-12.8,1
	c2.3,2,4.4,4.4,6.1,7.1l7.1-0.7C585.6,532.9,585.5,530.4,585.3,528z M584.6,521.4c-0.1-0.5-0.2-1-0.3-1.4l-16.6,1.4
	c0.2,1.5,0.5,3,0.8,4.6c1.3,0.8,2.5,1.7,3.6,2.6l13.2-1C585.1,525.5,584.8,523.4,584.6,521.4z M522.5,486.5l-7.1,16.6l2.7,0.4
	c0.2-0.7,0.4-1.3,0.6-1.9c1.3-3.5,3.6-6.8,6.4-9.6C524.3,490.2,523.5,488.3,522.5,486.5z M545.9,510.6c1,3.4,1.9,6.9,2.7,10.4
	c0.3,0,0.6,0,1-0.1c2.4,0,4.8,0.2,7.1,0.6c-1.8-6.9-4.1-13.5-6.9-19.8C548.9,505.1,547.6,508,545.9,510.6z M584,551.6l1.4-0.1
	c0.2-2.5,0.3-5.1,0.4-7.7l-3.4,0.3C583.1,546.5,583.7,549,584,551.6z M567.1,508.5c-0.2,1.5-0.2,3-0.2,4.7l14.9-1.3
	c-1-2.6-2.1-5.1-3.4-7.3l-10.9,1C567.3,506.4,567.2,507.5,567.1,508.5z M573.5,497.4c-0.1,0-0.2,0-0.3,0c-1.4,0.1-2.7,1-3.8,2.8
	c-0.7,1.2-1.4,2.9-1.8,4.9l10.7-0.9c-1.4-2.4-2.9-4.7-4.5-6.8C573.6,497.5,573.5,497.4,573.5,497.4z M567.6,521.1l16.6-1.4
	c-0.6-2.6-1.4-5.1-2.2-7.5l-15,1.3C567,515.9,567.2,518.5,567.6,521.1z M550.1,500.3c2.3,5,4.2,10.3,5.9,15.8
	c-2.4-10-4.2-19-3.9-26.3c0.1-1.6,0.2-3.2,0.5-4.7c-1-0.1-2-0.2-3-0.2c0.1,0.2,0.1,0.5,0.2,0.7C551,491.1,551,496,550.1,500.3z
	 M519.2,575.9c0.3-0.1,0.5-0.3,0.5-0.4c0-0.2-0.1-0.4-0.3-0.8c-0.3-0.3-0.7-0.7-1.2-1.2c-1.1-0.8-2.7-1.8-4.9-2.8
	c-0.4,1.5-0.8,3-1.2,4.5c2.5,0.6,4.4,0.9,5.7,0.9C518.4,576.1,518.9,576,519.2,575.9z M514.3,503.4l7.6-17.8c0-0.1,0.1-0.2,0.2-0.2
	c-1.2-2.3-2.4-4.5-3.8-6.6l-12.4,29.5l11.9,2c-0.3-1.8-0.2-3.8,0.3-5.7l-3.2-0.5C514.3,504.1,514.1,503.7,514.3,503.4z M515.3,559.8
	C515.2,559.9,515.2,559.9,515.3,559.8l14.1,19.9c0.5-1.6,0.9-3.2,1.4-4.8c-6-2.7-10.2-7.6-12.2-13.5c-0.4-1.2-0.7-2.5-1-3.8
	L515.3,559.8z M509.7,579.6c-0.5,0.8-1.1,1.5-1.7,2.2c0.4,0.1,0.7,0.1,1.1,0.2c0.4-1.2,0.9-2.4,1.3-3.6
	C510.2,578.8,510,579.2,509.7,579.6z M513.3,570.4c2.2,1.1,3.9,2.1,5.1,2.9c0.6,0.4,1,0.8,1.3,1.2c0.3,0.4,0.4,0.7,0.4,1
	c-0.1,0.3-0.3,0.6-0.7,0.7c-0.4,0.1-0.9,0.2-1.6,0.2c-1.3,0-3.2-0.3-5.8-0.9c-0.7,2.2-1.4,4.4-2.2,6.6c1,0.2,2,0.4,2.8,0.7l16.6-2.6
	c0,0,0-0.1,0.1-0.1l-14-19.7C514.8,563.7,514.1,567,513.3,570.4z M543.8,474.9c-5.2-10-13.4-16.1-21.5-23
	c0.9,8.8,5.6,16.8,13.2,20.5C538.4,473.8,541.1,474.6,543.8,474.9z M519.9,588.4c0.1,0.1,0.1,0.1,0.1,0.2l6.6-1
	c0.9-2.3,1.7-4.7,2.5-7l-15.9,2.4C516.3,584.3,518.4,586.2,519.9,588.4z M548.5,496.9c0.3-3.3,0.1-6.9-0.7-10.9
	c-0.1-0.4-0.2-0.7-0.3-1.1c-1.7,0.1-3.5,0.3-5.3,0.6C544.5,489.3,546.6,493,548.5,496.9z M547,482.9c-0.7-2.6-1.7-5-2.7-7.2
	c-2.9-0.3-6-1.1-9.1-2.6c-1.7-0.8-3.3-1.9-4.7-3.1c3.9,4.3,7.4,8.9,10.6,13.7C543.1,483.3,545,483,547,482.9z M506,488.3
	c0.1-0.3,0.1-0.5,0.1-0.7c0-0.2-0.1-0.3-0.1-0.4c-0.1-0.1-0.3-0.2-0.7-0.2c-0.1,0-0.3,0-0.4,0.1c-0.6,0.1-1.4,0.4-2.4,1
	c-2,1-4.7,2.7-8.2,5.1c1.5,1.6,2.9,3.2,4.3,4.9c0,0,0,0,0,0c3-3.2,5-5.8,6.2-7.6C505.4,489.6,505.8,488.8,506,488.3z M485,485
	c3.2,2.4,6.2,5,9,8c3.5-2.5,6.3-4.2,8.3-5.2c1-0.5,1.9-0.8,2.5-1c0.3-0.1,0.6-0.1,0.8-0.1c0.2,0,0.4,0.1,0.6,0.3
	c0.2,0.1,0.2,0.4,0.2,0.6c0,0.2-0.1,0.5-0.2,0.8c-0.2,0.6-0.6,1.4-1.2,2.3c-1.2,1.9-3.3,4.4-6.3,7.7c0,0,0,0-0.1,0
	c0.1,0.1,0.1,0.1,0.1,0.2c2.3,2.9,4.4,6.1,6.3,9.4l12.4-29.5L485,485z M520.2,503.9l9.9,1.5c-1.2-3.9-2.5-7.6-4-11.3
	c-2.3,2.5-4.2,5.4-5.3,8.3C520.5,502.9,520.4,503.4,520.2,503.9z M548.3,498.5c-2.1-4.4-4.4-8.7-7-12.7c-1.6,0.4-3.3,0.8-5.1,1.5
	c3.5,6.5,6.4,13.5,8.8,20.7C546.6,505.3,547.8,502.1,548.3,498.5z M541.8,512.4c0.9-1,1.8-2.1,2.5-3.3c-2.4-7.6-5.4-14.7-9.1-21.5
	c-0.1,0-0.1,0.1-0.2,0.1c-2.1,0.8-4.2,2.1-6.1,3.6c3.9,7.4,7,15.5,9.5,24C539.7,514.5,540.8,513.5,541.8,512.4z M527.4,490
	c-5.2-9.6-11.5-18.2-18.9-25.4c7.1,7.9,12.9,17,17.3,26.8C526.3,490.9,526.9,490.4,527.4,490z M322.6,553.3l1.8,9.2
	c1.3-0.4,2.6-0.8,3.9-1.2l-0.8-8.5C326,552.9,324.3,553.1,322.6,553.3z M349.7,410.4c-1.7-1.1-3.4-2.1-5.2-3.1l-1.1,2
	C345.7,409.1,347.8,409.5,349.7,410.4z M321.3,424.7c3.5-4.9,7.1-8.5,10.5-11l4.4-10.6c-2.8-1.2-5.7-2.2-8.6-3.1l-5.3,17.8
	C322.1,420.1,321.8,422.3,321.3,424.7z M318.1,400.5l0.5-2.5c-1.7-0.3-3.4-0.6-5.2-0.8C315.1,397.8,316.7,398.9,318.1,400.5z
	 M321,405.9c1,2.9,1.5,6.4,1.3,10.6l4.9-16.4c-2.7-0.8-5.5-1.5-8.3-2l-0.5,2.8C319.5,402.2,320.4,403.9,321,405.9z M338.2,410.3
	c1.7-0.6,3.3-0.9,4.9-1.1l1.2-2.2c-2.5-1.4-5.1-2.6-7.7-3.7l-4.2,10C334.3,412,336.3,411,338.2,410.3z M357.5,426.2
	c-0.3,2.7-1.2,5.5-2.7,8.4l10.9-10.9c-2.1-2.2-4.2-4.2-6.5-6.2l-2.1,2.5C357.6,421.9,357.7,424,357.5,426.2z M463.4,594.8h0.9
	c-0.2,0-0.4-0.1-0.5-0.1C463.6,594.7,463.5,594.7,463.4,594.8z M368.4,458c1.5-2.3,1.6-4.4,0.7-5.9c-0.9-1.5-3-2.6-5.9-2.7
	c-0.2,0-0.4,0-0.6,0c-2.7,0-6.1,0.6-9.9,2.3c2.8,4.1,5.1,8.6,7,13.4C364.1,462.7,366.9,460.2,368.4,458z M303.1,396.6
	c-0.7,0-1.4,0-2.1,0v4.4c2.5-2.4,5.2-3.8,7.8-4.2C306.9,396.6,305,396.6,303.1,396.6z M343.4,423.1c-0.7-0.6-1.7-0.9-2.9-0.9
	c-0.9,0-2,0.3-3.1,0.8c-2.5,1.1-5.6,3.4-8.9,7.2c4.4,2.3,8.6,5,12.4,8.3c2.4-3.6,3.7-6.9,4-9.5C345.4,426.3,344.7,424.2,343.4,423.1
	z M356.4,426.1c0.7-5.5-1.1-10.2-4.4-13c-2.1-1.7-4.7-2.8-7.7-2.9c-1.8,0-3.8,0.3-5.9,1.1c-5.4,2-11.6,6.8-17.5,15.6
	c2.4,0.9,4.8,2,7.1,3.1c3.4-3.9,6.5-6.3,9.2-7.5c1.4-0.6,2.6-0.8,3.7-0.8c1.1,0,2.1,0.4,2.8,1c1.5,1.2,2.1,3.5,1.7,6.3
	c-0.4,2.7-1.7,6.1-4.1,9.8c1.8,1.5,3.5,3.2,5.2,5C352.8,437.8,355.8,431.5,356.4,426.1z M320,406.2c-1.7-4.9-4.8-7.8-8.2-8.4
	c-0.5-0.1-0.9-0.1-1.4-0.1c-3.2-0.1-6.7,1.5-9.9,5.2c-3.6,4.1-6.7,10.6-8.5,19.9c0.8-0.1,1.6-0.1,2.4-0.1c1.7-0.1,3.5,0,5.2,0.1
	c1.2-4.5,2.6-7.9,4.2-10c1.6-2.3,3.4-3.3,5-3.1c1.6,0.2,2.9,1.7,3.6,4.3c0.7,2.5,0.9,6.1,0.3,10.6c2.3,0.6,4.7,1.2,6.9,2
	C321.9,417.9,321.7,411,320,406.2z M291.5,397.5c-2.8,0.4-5.5,1-8.3,1.7l1.4,6.9c0.1,0.1,0.1,0.1,0.2,0.1c3,3,5.5,7.7,6.8,14.2
	c0.5-2.2,1.1-4.2,1.7-6L291.5,397.5z M308.8,410c-0.1,0-0.2,0-0.3,0c-1.3-0.1-2.8,0.8-4.3,2.9c-1.5,2.1-3,5.3-4.1,9.8
	c1.4,0.1,2.8,0.2,4.2,0.3c2.7,0.3,5.3,0.7,7.9,1.4c0.6-4.5,0.4-8-0.3-10.4C311.4,411.5,310.2,410.2,308.8,410z M299.8,402.2
	c0.3-0.3,0.5-0.6,0.8-0.9v-4.7c-2.9,0.1-5.9,0.4-8.8,0.8l1.6,16.3C295.2,408.8,297.4,404.9,299.8,402.2z M462.9,594.4
	c-1.4-0.4-2.7-0.8-3.9-1.4c-3.4-1.5-6-3.6-7.9-6.1c-1.7-0.6-3.3-0.4-5-0.3c-1.8,0.2-3.7,0.3-5.9-0.4c1.5,4,4.5,7,8.6,8.5
	c0,0,0,0,0,0h12.9C462.1,594.6,462.5,594.5,462.9,594.4z M349.3,442.5c4.8-2.5,9.2-4,13.2-4.6l9-7.4c-1.7-2.3-3.6-4.4-5.5-6.5
	l-11.7,11.7C353,437.9,351.4,440.2,349.3,442.5z M468.3,332c1.7,1,3.4,2,5.1,2.9c1,0.5,2,1.1,2.9,1.7c-1.5-12.8,2.7-19.2,6-26.6
	c-4.6-0.3-7.8,1.2-9.5,4.7c-0.8,1.2-1.6,2.5-2.4,3.8C468.9,322.5,468,326.9,468.3,332z M332.6,569c-1.4,0-2.7,0.1-4.2,0.2
	c-18.5,1.4-30.2,12.6-35.5,25.6h6.3c4.7-6.9,12.1-12.4,22.7-14.8c3-0.7,5.7-1,8.4-1c11.4,0,19.7,5.8,23.2,13.2
	c0.4,0.9,0.7,1.8,1,2.7h9.1c-0.2-4.9-1.7-9.8-4.6-13.9C354.2,573.9,345.7,569,332.6,569z M590.7,473.4c-0.7-0.9-1.4-1.9-2.1-2.7
	c-2.3-2.7-4.7-5.2-7.3-7.4c0,2.9-2.4,5.2-5.3,5.2c-2.9,0-5.3-2.3-5.3-5.2c0-2.4,1.6-4.4,3.8-5c-2-1.3-4-2.4-6.1-3.5
	c-0.2,5.1-2.3,10-5.8,13.8c-4,4.4-9.8,7.3-16.3,7.4c1,2.2,1.9,4.5,2.6,7c1.3,0,2.6,0.1,3.9,0.3c0.5-1.7,1.1-3.2,2-4.6
	c1.9-3.1,4.8-5.3,9-6.7c1.7-0.6,3.5-0.8,5.3-0.7c5.5,0.2,11.2,3.3,15.3,9.3c8.1,11.9,12.2,34.1,7.2,62.4c0.9-1.7,1.8-3.5,2.6-5.2
	C599,510.9,596,489.4,590.7,473.4z M330.3,579.8c-2.6,0-5.3,0.3-8.2,1c-10.2,2.3-17.3,7.5-21.9,14h11.9c0.2-0.2,0.4-0.3,0.6-0.5
	c4.8-3.6,10.2-4.7,14.8-4.5c1.5,0.1,3,0.3,4.3,0.6c3.1,0.8,5.7,2.3,7.5,4.3h14.1c-0.2-0.8-0.5-1.6-0.9-2.3
	C349.4,585.4,341.4,579.7,330.3,579.8z M257.5,578.6c-3.2,1.8-6.1,3.2-8.8,4.2c-0.4,0.2-0.9,0.4-1.2,0.6c5.3,4.5,11.2,8.3,17.6,11.4
	h6.9c0.7-2.7,1.7-5.4,2.8-8.1C268.5,584.8,262.8,582,257.5,578.6z M338.6,553.5l-0.6,6.3c1-0.1,2-0.1,3-0.1c0.5,0,1,0,1.5,0l1-5.2
	C341.9,554.1,340.2,553.8,338.6,553.5z M273.4,594.8H291L275,590C274.4,591.5,273.9,593.1,273.4,594.8z M382.5,584
	c-0.9,0.6-1.6,1.3-2.4,2.1c0.7,2.1,1.2,4.2,1.6,6.3c3.6-3.3,7.6-4.7,11.5-4.8c5.4-0.1,10.3,2.4,13,6c0.3,0.4,0.5,0.8,0.8,1.2h9.7
	c-0.8-3.5-2.4-6.8-5-9.3C401.3,587.1,391.4,586.4,382.5,584z M364.9,568.5c-7-5.3-15.4-7.8-24-7.7c-17.8,0.1-36.3,10.6-45.3,27.2
	c6.3-10.3,17.2-18.3,32.7-19.4c2-0.1,3.8-0.2,5.6-0.1c12.5,0.4,20.9,5.3,25.6,12.1c3,4.3,4.5,9.3,4.7,14.3h13.2
	C377.7,585.5,374.3,575.6,364.9,568.5z M427.3,593.2c0.1,0.5,0.1,1.1,0.2,1.6h0.7c0,0,0,0,0,0C427.9,594.2,427.6,593.7,427.3,593.2z
	 M427.8,582.1c-0.1-0.1-0.1-0.2,0-0.3c3.4-1.5,7-2.3,10.5-2.5c3.2-0.1,6.4,0.3,9.3,1.2c-0.6-1.7-0.9-3.6-1.1-5.6
	c-2.9-0.5-5.8-0.7-8.7-0.7c-6.6,0-13.2,1.7-19.8,6.8c0.9,0.5,1.7,1.1,2.5,1.6c0.1,0,0.3,0.1,0.3,0.3c3.7,3.1,5.9,7.2,8.2,11.3
	c0.1,0.2,0.2,0.4,0.3,0.6h7.2c-0.3-0.5-0.7-1-1-1.5C433.1,589.1,431.2,584.6,427.8,582.1z M420.2,583.7c-2.8,0.7-5.5,1.3-8.2,1.7
	c2.5,2.5,4.1,5.9,4.9,9.3h10.2c-0.1-0.8-0.2-1.7-0.4-2.5C424.9,589.1,423,586,420.2,583.7z M378.4,594.8h2.1l-2.2-3.6
	C378.4,592.4,378.4,593.6,378.4,594.8z M393.2,588.4c-3.8,0.1-7.9,1.5-11.4,5c0.1,0.5,0.1,1,0.2,1.4h23.9c-0.1-0.2-0.3-0.5-0.5-0.7
	C403,590.6,398.3,588.3,393.2,588.4z M439.5,586c-0.1-0.2,0.1-0.3,0.3-0.3h0.1c2.4,0.8,4.3,0.6,6.2,0.5c1.5-0.2,3-0.3,4.5,0.1
	c-0.9-1.2-1.6-2.5-2.2-3.8c-0.2-0.5-0.4-0.9-0.6-1.4c-2.5-0.8-5.2-1.3-8-1.3c-3.8-0.1-7.8,0.7-11.5,2.3c3.3,2.6,5.2,7,7.6,11
	c0.4,0.6,0.7,1.2,1.1,1.7h10.5C443.7,593,440.8,590,439.5,586z M326.5,590.4c-4.2,0-8.9,1.2-13.1,4.3h11.8c3-0.8,5.9-0.8,8.3,0h5.2
	c-1.7-1.7-4-3-6.8-3.7C330.2,590.7,328.4,590.4,326.5,590.4z M292,565.7l10.8,10.7c0.9-0.9,1.8-1.8,2.7-2.7l-9.3-11.2
	C294.7,563.6,293.3,564.6,292,565.7z M287.5,569.8l12.3,10c0.8-1.1,1.7-2.1,2.7-3l-10.8-10.8C290.2,567.1,288.9,568.4,287.5,569.8z
	 M296.5,562.4l9.2,11.2c1-0.9,2-1.7,3-2.5l-7.6-11.4C299.5,560.5,298,561.4,296.5,562.4z M301.4,559.5l7.6,11.3
	c1-0.8,2.1-1.5,3.2-2.2l-6-11.2C304.6,558,303,558.7,301.4,559.5z M277.5,584l15.7,6.5c0.5-1.2,1.1-2.3,1.7-3.4l-14.7-7.8
	C279.3,580.7,278.4,582.3,277.5,584z M280.4,578.9l14.7,7.8c0.6-1.2,1.3-2.3,2.1-3.3l-13.6-9C282.4,575.8,281.4,577.3,280.4,578.9z
	 M283.8,574.1l13.6,9c0.7-1.1,1.5-2.1,2.3-3.1l-12.3-10C286.1,571.3,284.9,572.7,283.8,574.1z M327.9,552.9l0.8,8.4
	c1.4-0.4,2.9-0.6,4.3-0.9v-7.4c-1.2-0.1-2.5-0.1-3.7-0.1C328.9,552.8,328.4,552.9,327.9,552.9z M343.5,498.7l-0.6-0.3
	c-0.3,1.2-0.7,2.4-1.1,3.6l0.4,0.2C342.6,501,343,499.8,343.5,498.7z M307.7,556.8c-0.4,0.2-0.8,0.3-1.2,0.5l6,11.1
	c1.2-0.8,2.4-1.5,3.6-2.2l-4.4-10.7C310.4,555.9,309,556.4,307.7,556.8z M275.1,589.6l16.5,4.9c0.5-1.3,1-2.6,1.5-3.8l-15.7-6.5
	C276.5,586,275.8,587.8,275.1,589.6z M333.4,552.9v7.3c1.4-0.2,2.8-0.4,4.2-0.5l0.6-6.3C336.6,553.2,335,553,333.4,552.9z
	 M312,555.4l4.4,10.7c1.2-0.6,2.4-1.2,3.6-1.8l-3.1-10.1C315.3,554.6,313.6,555,312,555.4z M317.2,554.1l3.1,10
	c1.3-0.6,2.5-1.1,3.9-1.5l-1.9-9.4C320.6,553.5,318.9,553.8,317.2,554.1z M243.1,588.1c0,0.1,0,0.2,0,0.3c2.5,2.2,5.1,4.4,7.9,6.3
	h11c-5.7-3-11-6.6-15.8-10.7C244.4,585.2,243.4,586.6,243.1,588.1z M341.4,547.5c-2,1.5-4.1,3-6.2,4.2c3,0.3,5.9,0.8,8.8,1.5
	C343,551.3,342.1,549.4,341.4,547.5z M300.3,528.5l-1.8,18.2c2,0.3,3.9,0.4,5.9,0.4v-18.6C303,528.6,301.6,528.6,300.3,528.5z
	 M291.4,526.7l-6.2,16.5c2.2,0.9,4.4,1.6,6.7,2.3l3.5-17.6C294,527.6,292.7,527.2,291.4,526.7z M295.7,527.9l-3.5,17.6
	c2,0.5,3.9,0.9,5.9,1.2l1.7-18.2C298.5,528.4,297.1,528.2,295.7,527.9z M287.4,525l-8.6,14.9c2,1.2,4,2.2,6.2,3.1l6.2-16.4
	C289.8,526.2,288.6,525.6,287.4,525z M342,502.5l-0.4-0.2c-0.4,1.2-0.9,2.4-1.5,3.6l0.7,0.4C341.2,505.1,341.6,503.8,342,502.5z
	 M337.9,523.1l-5.3-6.4c-1,1-2,1.8-3.1,2.7L338,532C337.8,529.1,337.7,526.1,337.9,523.1z M340.7,506.7l-0.7-0.5
	c-0.5,1.2-1.2,2.3-1.8,3.4l1.4,1.2C340,509.4,340.3,508,340.7,506.7z M309.3,528.1l1.9,18.8c2-0.2,3.9-0.6,5.8-1.1l-3.7-18.6
	C312,527.6,310.6,527.8,309.3,528.1z M329.3,519.6c-1,0.8-2.1,1.5-3.3,2.2l8.4,15.5c1.3-1.1,2.6-2.2,3.8-3.4
	c-0.1-0.4-0.1-0.8-0.1-1.3L329.3,519.6z M332.9,516.5l5.1,6.1c0.1-2,0.3-4,0.6-6l-3.1-3.1C334.7,514.6,333.8,515.5,332.9,516.5z
	 M321.9,524L329,541c1.7-1,3.5-2.2,5.1-3.5l-8.4-15.6C324.4,522.7,323.2,523.4,321.9,524z M317.9,525.7l5.5,18.1
	c1.8-0.7,3.5-1.6,5.3-2.6l-7.1-17.1C320.4,524.7,319.1,525.2,317.9,525.7z M304.7,528.6v18.6c2.1,0,4.1-0.1,6.1-0.3l-1.9-18.8
	C307.5,528.4,306.1,528.5,304.7,528.6z M338,509.9c-0.7,1.2-1.5,2.3-2.3,3.4l2.9,2.9c0.3-1.7,0.6-3.3,1-5L338,509.9z M313.6,527.1
	l3.7,18.7c2-0.5,3.9-1.1,5.8-1.8l-5.5-18.1C316.3,526.3,314.9,526.7,313.6,527.1z M297.2,492.9c0.3,0.2,0.6,0.3,1,0.4l14.7-6.1
	c0,0,0,0,0.1,0h0c1.1-2.3,1.5-4.9,1.3-7.5L295.8,492C296.2,492.4,296.6,492.6,297.2,492.9z M425.2,575.6c2.2-0.9,4.4-1.5,6.6-1.9
	c-2.9-2.8-4.9-5.5-6.2-8.1h-8.4C418.7,568.9,421.2,572.3,425.2,575.6z M523.2,238.2l7.1-13.2h-8.8l-4.3,10.2
	C519.2,236.1,521.3,237.1,523.2,238.2z M440.1,573.2c2.1,0.1,4.2,0.3,6.3,0.7c-0.2-2.7-0.1-5.5,0-8.3h-12.2
	C435.5,568.3,437.4,570.8,440.1,573.2z M432.2,573.6c2.4-0.4,4.8-0.5,7.1-0.5c-2.6-2.4-4.4-4.9-5.7-7.6H426
	C427.3,568.1,429.2,570.8,432.2,573.6z M398.4,569.1c0,1.8,1.5,3.3,3.3,3.3c1.8,0,3.3-1.5,3.3-3.3c0-1.8-1.5-3.3-3.3-3.3
	C399.8,565.8,398.4,567.3,398.4,569.1z M371.9,533.3v-8.3l-3.8-1.6C369,526.9,370.2,530.2,371.9,533.3z M545.4,225H543
	c0.5,0.3,1.1,0.5,1.6,0.8C544.9,225.5,545.2,225.3,545.4,225z M529.4,241.9l11.2-16.8c-0.1-0.1-0.3-0.1-0.4-0.2h-9.5l-7.2,13.4
	C525.5,239.5,527.5,240.7,529.4,241.9z M512.4,516.1c2.6-0.7,4.6-1,5.9-1c0.5,0,0.9,0.1,1.3,0.1c-0.8-1.1-1.4-2.3-1.7-3.6
	c-0.1-0.3-0.1-0.5-0.2-0.7l-12-2c0.3,0.6,0.6,1.1,0.9,1.7c1,0.7,2,1.5,2.9,2.4C510.6,514.1,511.6,515.1,512.4,516.1z M367.7,522.3
	L367.7,522.3c0.1,0,0.2,0,0.2,0.1l3.9,1.7v-5.2l-5.1-2.2C367,518.5,367.3,520.4,367.7,522.3z M455.7,570.5
	c-0.4,4.9-0.6,9.5,1.4,13.9c1.6,3.5,4.2,6,8,7.7c3.2,1.4,7.2,2.2,12.3,2.6c0.3,0,0.5,0,0.8,0c-4.8-1.5-8.7-3.8-11.5-7.4
	c-3.2-4.1-4.8-10-4.2-18c0-0.1,0.1-0.2,0.2-0.2c0.1,0,0.2,0,0.2,0.1c2.3,2.6,4.8,4.2,7.1,5.6c2.3,1.4,4.4,2.7,6,4.8
	c2.5,3.2,3.3,6.6,4.4,13.6c0.7-11.7,0.1-20-4.3-25.6c-0.5-0.7-1.1-1.3-1.6-1.9h-18.5C456,567.2,455.9,568.9,455.7,570.5z
	 M320.5,242.8c-3.7,4.4-9.3,5.8-14.1,4.5c-0.1,0.3-0.1,0.6-0.1,1c6.8,5.3,13.5,11.4,19.2,17.6c0.8,0.1,1.6,0.2,2.4,0.3
	c1.7,0.2,3.4,0.5,5.2,0.7c1.8-3.6,5.5-5.8,9.2-6c3.9-0.2,7.8,1.7,10,6c1.9,3.7,0.2,9.1-4.1,10.7c-1,2.4-1.9,4.7-2.7,7
	c2.9-0.1,5.8-1.1,8.3-3.2c5.5-4.6,6.1-11.5,4.1-18.6c-1.3-4.7-3.8-9.6-6.8-13.9c-5.7-7.1-11.8-13.6-18.2-19.2
	c3,3.1,5.7,6.5,7.6,10.1c1.8,3.3,2.9,6.6,3.1,9.9c0.2,3.3-0.7,6.4-3,9.3c-6.8,8.4-20.5,6.2-23.4-3.9c-1.7-6,1.1-11,5.3-13.2
	c4.2-2.2,9.8-1.7,13.5,2.9c1.6,2,2,4.9,1.2,7.3c-0.8,2.5-2.8,4.5-6.1,4.9c-2.5,0.3-4.8-1-5.9-2.8c-1.1-1.8-1.1-4.2,0.9-6
	c1.3-1.3,3.3-1.2,4.4-0.4c0.7,0.5,1,1.3,1,2.1c-0.1,0.8-0.5,1.6-1.3,2.3c-0.2,0.1-0.4-0.1-0.2-0.3c0.8-0.6,1.1-1.3,1.2-2
	c0-0.7-0.3-1.4-0.9-1.8c-0.9-0.7-2.7-0.8-4,0.3c-1.8,1.8-1.8,3.9-0.8,5.7c1,1.7,3.1,2.9,5.5,2.6c3.1-0.4,5-2.3,5.8-4.7
	c0.8-2.4,0.4-5.1-1.1-7c-3.6-4.5-9-5-13.1-2.8c-4.1,2.2-6.8,6.9-5.1,12.8c2.8,9.8,16.2,12,22.8,3.7c2.2-2.8,3.1-5.8,3-9
	c-0.1-3.2-1.3-6.5-3-9.8c-2.6-4.9-6.7-9.5-11-13.3c-0.7-0.5-1.3-1-2-1.6h-4.9c0.8,1.4,1.3,2.9,1.7,4.4
	C325.1,233.8,324.2,238.5,320.5,242.8z M510,232.3l2.2-7.3h-7.6l-1,5.2C505.7,230.8,507.8,231.5,510,232.3z M513.3,562.9
	c0.1,1.8,0.1,3.6,0,5.3c1.5-6.9,2.2-13.8,2.1-20.4c-0.8,1.5-1.8,2.9-2.9,4.3C512.7,555.5,513.2,559.2,513.3,562.9z M484.3,566.2
	c0.3-0.3,0.5-0.5,0.8-0.8c-0.4,0-0.7,0-1.1,0.1C484.1,565.7,484.2,566,484.3,566.2z M484.4,566.6c1,2.9,1.4,6.1,1.4,9.2
	c2.7-3.2,6.5-6,12-8.1c0,0,0.1,0,0.1,0c0.1,0,0.2,0.1,0.2,0.3c0.2,5.4-2.1,9.7-5.2,13.4c-3,3.5-6.8,6.7-10.1,10
	c-0.4,1.1-0.8,2.1-1.3,3c0.2,0,0.3-0.1,0.4-0.1c9.4-4.3,15.9-9.6,19.9-15.7c3.9-6,5.4-12.9,4.7-20.4c-5.4,4.2-12.4,6.7-20.9,7.3
	C485.2,565.8,484.8,566.2,484.4,566.6z M567.8,242.2c1.5,1.4,2.9,2.9,4.2,4.4c0.4-0.4,0.9-0.8,1.3-1.2c-0.4-2.5-0.7-5-1.1-7.6
	C571,239.1,569.5,240.6,567.8,242.2z M573.8,248.7c-0.1-1-0.3-1.9-0.4-2.9c-0.4,0.4-0.7,0.7-1.1,1.1
	C572.8,247.5,573.3,248.1,573.8,248.7z M371.9,518v-4.3l-4.8,2.3L371.9,518z M503.2,230.1l1-5.1h-7.5l-0.4,3.6
	C498.6,229,500.9,229.5,503.2,230.1z M475.1,565.6c0.5,0.5,1,1.1,1.5,1.7c4.5,5.8,5.1,14.2,4.3,26c1.7-3.7,3.4-9,3.9-14.6
	c0.4-4.5,0-9.1-1.8-13.2c-0.7,0-1.5,0-2.2,0H475.1z M562,280.4l15.9-4.8c-0.2-1.3-0.4-2.6-0.6-3.8c-0.3-1.6-0.5-3.2-0.8-4.9
	l-17.6,7.2C560,276.2,561.1,278.3,562,280.4z M508.6,556.3c-0.6,0.5-1.2,1-1.8,1.5c0.7,7.7-0.7,14.7-4.7,20.9
	c-3.8,5.9-9.9,10.9-18.6,15.2c11.2-2.7,18.5-6.9,23.1-11.9c0-0.1,0.1-0.1,0.1-0.1c0.8-0.9,1.5-1.8,2.2-2.8
	c3.2-4.8,3.7-10.4,3.4-16.1c-0.1-3.3-0.5-6.6-0.7-9.7C510.7,554.2,509.7,555.3,508.6,556.3z M558.8,273.8l17.7-7.3
	c-0.5-3.1-1-6.4-1.5-9.8l-20,10.8C556.3,269.5,557.6,271.6,558.8,273.8z M564,238.7c1.2,1,2.4,2.1,3.5,3.2c1.9-1.8,3.4-3.4,4.7-4.8
	c-0.3-1.8-0.5-3.7-0.8-5.6C569.2,233.1,566.6,235.5,564,238.7z M550.8,261.7c1.4,1.8,2.7,3.6,4,5.6l20.2-10.8
	c-0.3-1.8-0.5-3.6-0.8-5.4c-0.8-1.1-1.7-2.1-2.6-3.1L550.8,261.7z M551.4,229.6c1.4-1.6,2.8-3.1,4-4.6h-9.6
	c-0.3,0.3-0.6,0.6-0.9,0.9C547.2,227.1,549.3,228.3,551.4,229.6z M370.4,487.8c-0.6,1.5-1.1,3.1-1.6,4.6c-1.5,5.1-2.4,10.3-2.5,15.4
	l5.5-2.5v-15.8L370.4,487.8z M366.4,509c0,0-0.1,0.1-0.1,0.1c0,2.1,0.1,4.3,0.3,6.4l5.3-2.5v-6.4L366.4,509z M557.6,233.7
	c2.1,1.5,4,3,5.9,4.7c2.8-3.4,5.4-5.9,7.6-7.5c-0.3-1.9-0.6-3.9-0.8-5.9h-2.9C564.4,227.2,561.2,230.1,557.6,233.7z M557.3,233.5
	c3.4-3.5,6.6-6.3,9.5-8.5h-9.4c-1.6,1.6-3.3,3.4-5,5.2C554.1,231.3,555.8,232.4,557.3,233.5z M389.2,570.5c2.1,0,3.7-1.6,3.7-3.7
	c0-0.4-0.1-0.9-0.2-1.3h-7c-0.1,0.4-0.2,0.8-0.2,1.3C385.5,568.9,387.2,570.5,389.2,570.5z M370.9,486.8l1,1.3v-3.9
	C371.5,485,371.2,485.9,370.9,486.8C370.9,486.7,370.9,486.8,370.9,486.8z M447.1,225.8c-0.2-0.3-0.4-0.6-0.6-0.8h-7.7
	c1.1,1.2,2.2,2.5,3.3,3.9C443.8,227.8,445.5,226.8,447.1,225.8z M413.1,240.7c-5.6-5-9.9-10.4-12.9-15.7h-5.5
	c1.7,3.5,3.3,6.6,4.7,9.6C403.7,236,408.3,238,413.1,240.7z M563.7,284.4c5.1-0.9,10.2-1.6,15.3-2.1c-0.3-2.1-0.7-4.2-1-6.4
	l-15.8,4.8C562.7,281.9,563.2,283.2,563.7,284.4z M428.4,240.6c0.6-0.7,1.3-1.4,2-2c1.5-1.4,3-2.8,4.5-4.1c-3.5-3-6.1-5.9-7.9-8.5
	c-0.2-0.3-0.4-0.7-0.6-1h-12.8C416.7,230.2,421.5,235.7,428.4,240.6z M423,246.8c1.6-2.1,3.4-4,5.2-6c-7-5-11.9-10.5-14.9-15.8
	h-11.7C406,232.5,413,240.1,423,246.8z M435.3,234.1c2.1-1.7,4.2-3.4,6.4-4.9c-1.2-1.5-2.4-2.9-3.6-4.2h-11.1
	c0.1,0.2,0.3,0.5,0.4,0.7C429.3,228.3,431.9,231.2,435.3,234.1z M448.6,225H447c0.1,0.2,0.3,0.4,0.4,0.7
	C447.8,225.4,448.2,225.2,448.6,225z M548.5,452.1c-1.7-0.9-2.5-2.4-2.3-3.7c0,0,0-0.1,0-0.1c-1.8-0.2-3.5-0.3-5.3-0.4
	c0.2,0.4,0.4,0.8,0.6,1.2C543,451,545.3,452.3,548.5,452.1z M451.5,232.8c2.4-1,4.9-1.8,7.3-2.5l-2.2-5.2h-5.5c-1,0.5-2,1.1-3,1.6
	L451.5,232.8z M380,232.1c-0.1,0.1-0.1,0.1-0.2,0.2c0.5-0.1,1-0.1,1.6-0.2c1.5-0.1,3.2-0.1,4.8-0.1c-1.2-2.4-2.4-4.8-3.6-7h-0.7
	C382.4,227.5,381.8,230.2,380,232.1z M363.3,225h-3.8c1.4,1.7,2.7,3.4,4.1,5.2C363.1,228.5,363,226.7,363.3,225z M367.9,236.5
	c-1.2-1.7-2.5-3.4-3.8-5c-0.1,0-0.1-0.1-0.1-0.1c0,0,0-0.1,0-0.1c-1.6-2.1-3.3-4.2-5-6.3H350c4.9,5.2,9.7,11.2,13.2,15.9
	C364.5,239.3,366.1,237.8,367.9,236.5z M359.3,258.8c-0.6-2.7-0.7-5.3-0.4-7.9c-1-0.4-1.7-1.4-1.7-2.6c0-1.6,1.3-2.8,2.8-2.8
	c0.1,0,0.3,0,0.4,0c0.6-1.3,1.3-2.6,2.1-3.8c-3.7-4.9-8.8-11.3-14-16.7h-4.8c0.2,0.4,0.2,0.8,0.2,1.2c0,1.8-1.4,3.2-3.2,3.2
	c-1.8,0-3.2-1.4-3.2-3.2c0-0.4,0.1-0.9,0.3-1.2h-9.3C339.8,233.9,350.3,245.6,359.3,258.8z M354,237.9c1.6,0,2.8,1.3,2.8,2.9
	c0,1.6-1.3,2.8-2.8,2.8c-1.6,0-2.9-1.3-2.9-2.8C351.2,239.2,352.4,237.9,354,237.9z M347.7,230.8c1.6,0,2.9,1.3,2.9,2.9
	c0,1.6-1.3,2.8-2.9,2.8c-1.6,0-2.8-1.3-2.8-2.8C344.9,232.1,346.2,230.8,347.7,230.8z M398.9,234.5c-1.4-2.9-2.9-6.1-4.6-9.5H383
	c1.2,2.3,2.4,4.6,3.6,7.1C390.4,232.3,394.5,233.1,398.9,234.5z M364.3,231.1c1.3,1.7,2.6,3.5,3.9,5.2c1.3-0.9,2.8-1.6,4.4-2.3
	c-2-0.5-3.8-1.9-4.5-4.1c-0.5-1.6-0.2-3.1,0.5-4.1c0.3-0.4,0.6-0.7,0.9-0.9h-6C363.2,227.1,363.5,229.3,364.3,231.1z M466.2,228.5
	l-1.1-3.5H457l2.1,5.1C461.5,229.5,463.8,228.9,466.2,228.5z M374,227.8c-0.5,1.1-1.5,1.4-2.3,1.2c-0.4-0.1-0.7-0.3-0.9-0.6
	c-0.2-0.3-0.2-0.7-0.1-1.2c0.1-0.2,0.4-0.1,0.3,0.1c-0.1,0.3-0.1,0.6,0.1,0.8c0.2,0.2,0.4,0.4,0.7,0.4c0.6,0.1,1.4-0.1,1.9-1.1
	c0.4-0.9,0.1-2.1-0.9-2.7h-2.4c-0.5,0.2-1,0.6-1.4,1.1c-0.7,0.9-1,2.2-0.5,3.8c0.7,2.3,2.7,3.6,4.8,4c1.8-0.7,3.8-1.2,6-1.5
	c0.2-0.2,0.5-0.4,0.6-0.5c1.7-1.8,2.3-4.4,1.8-6.8h-8.2C374.2,225.7,374.5,226.9,374,227.8z M525,519.7c-0.1,0-0.2-0.1-0.3-0.1
	c-1.6-0.8-2.9-1.7-4-2.9c-0.1,0.4-0.4,0.9-0.9,1.4c-0.5,0.5-1.2,1-2,1.5c-0.7,0.4-1.4,0.8-2.3,1.2c1,1.8,1.7,3.6,2.3,5.6L525,519.7z
	 M515.9,547.5c0.6-0.1,1.2-0.2,1.6-0.2c0.4-2,0.9-3.9,1.7-5.8c-0.4-0.1-0.8-0.1-1.3-0.2c-0.5,1.9-1.2,3.7-2.1,5.5
	C515.9,547,515.9,547.3,515.9,547.5z M524.1,533.3c1.2-1.5,2.5-2.9,3.9-4.1l-2.7-0.6c-0.1,0-0.2-0.2-0.1-0.3l8.1-8
	c0,0,0.1,0,0.1-0.1c0-0.1,0-0.1,0-0.2c-2.9,0.8-5.7,0.7-8.1-0.3l-7.4,7c0.4,1.6,0.7,3.3,0.8,5.1L524.1,533.3z M496,228.5l0.3-3.5
	h-7.2v2.6C491.5,227.8,493.7,228.1,496,228.5z M517.7,519.3c0.8-0.5,1.5-1,1.9-1.5c0.5-0.5,0.7-0.9,0.8-1.2c0-0.1,0-0.2,0-0.2
	c-0.2-0.2-0.4-0.4-0.5-0.6c-0.3-0.2-0.9-0.3-1.6-0.3c-1.3,0-3.1,0.3-5.7,0.9c1.1,1.3,2,2.7,2.8,4.1
	C516.3,520.1,517.1,519.7,517.7,519.3z M488.8,227.5V225h-7.5l0.2,2.2C484,227.2,486.4,227.3,488.8,227.5z M518.9,534.7
	c-0.1,2.2-0.4,4.3-0.9,6.3c0.4,0.1,0.9,0.1,1.3,0.2c0.8-1.9,1.8-3.8,3-5.5c0.5-0.7,1-1.4,1.5-2.1l-5-1.3
	C518.9,533,518.9,533.8,518.9,534.7z M480.9,227.1h0.3L481,225h-7.3l0.5,2.4C476.4,227.3,478.7,227.1,480.9,227.1z M484,484.2
	l0.3-5.3c-0.6,1.4-1.2,2.8-1.7,4.3C483,483.6,483.5,483.9,484,484.2z M513.5,452.4c-0.3,0.1-0.7,0.3-1,0.4l1.1,0.4
	C513.5,453,513.5,452.7,513.5,452.4z M527.1,466.6c-3.3-4.3-5.3-9.7-5.8-15.5c-0.1-0.1-0.3-0.2-0.4-0.4c-0.2-0.2-0.4-0.4-0.6-0.5
	c-2.2,0.6-4.3,1.3-6.3,2.1c0.1,1.1,0.2,2.2,0.4,3.3C518.9,458.9,523.2,462.6,527.1,466.6z M473.8,227.5l-0.5-2.5h-7.8l1,3.4
	C468.9,228,471.4,227.7,473.8,227.5z M513.6,453.7L512,453c-0.2,0.1-0.5,0.2-0.7,0.3c0.8,0.6,1.6,1.1,2.4,1.7
	C513.7,454.6,513.6,454.2,513.6,453.7z M535.3,485.5c1.6-0.6,3.3-1.1,4.9-1.5c-7.8-11.8-17.7-22-29.7-30.2c-0.3,0.1-0.6,0.3-0.9,0.4
	C519.9,462.7,528.5,473.4,535.3,485.5z M493.4,473.6l19.1-3c-3.3-4.2-6.9-8.2-10.9-11.8c-2.8,2-5.4,4.2-7.9,6.7L493.4,473.6z
	 M528.1,489.4c1.9-1.5,4-2.7,6.2-3.6c-6.8-12.1-15.5-22.6-25.8-31.1c-2,1-4,2.2-5.9,3.4C512.8,466.5,521.4,477.1,528.1,489.4z
	 M516.9,235l4.2-10h-8.6l-2.2,7.4C512.5,233.2,514.7,234.1,516.9,235z M460.4,416.4c0.3,0.3,0.5,0.7,0.8,1c0.1-0.2,0.2-0.3,0.2-0.5
	L460.4,416.4z M425.6,382.2c-1.7,0.8-3.5,1.4-5.3,1.8c-0.1,2.3-0.2,4.4-0.3,6.6c1.9,0.4,3.6,0.8,5.4,1.2
	C425.6,388.8,425.6,385.7,425.6,382.2z M359.5,545.3c2.1,0,3.7-1.7,3.7-3.7c0-2.1-1.7-3.7-3.7-3.7c-2.1,0-3.7,1.7-3.7,3.7
	C355.8,543.7,357.5,545.3,359.5,545.3z M377.8,373.4l-4.7,6.2c4.1,2.9,8.1,6,11.8,9.3h11.5C390.8,383.2,384.6,378,377.8,373.4z
	 M442.9,381c-1.6-3-3.7-5.4-6.6-6.7c-3.5,5.8-6.6,11.8-9.4,18c3.4,1,6.5,2.3,9.4,3.8c2.2-4.9,4.6-9.6,7.1-14.1
	C443.3,381.6,443.1,381.3,442.9,381z M459.2,414.9c0.2,0.3,0.5,0.6,0.7,0.9l1.6,0.8c0.8-1.6,1.6-3.3,2.5-4.9c0-0.4,0.1-0.8,0.1-1.2
	c-6.1-3.2-11.6-5.5-16.2-6.8C452.2,407.1,456,410.8,459.2,414.9z M446.4,398.7c-1.7-1.7-2.7-3.3-3.2-4.8c-0.5-1.4-0.5-2.7-0.1-3.7
	c0.5-1.1,1.5-2,2.9-2.4c-0.6-1.7-1.3-3.4-2.1-5c-2.5,4.4-4.8,8.9-6.9,13.6c0.1,0,0.1,0.1,0.2,0.1c3.6,2,6.9,4.2,10,6.6
	c3,0.8,6.5,2.1,10.3,3.8C452.5,404,448.8,401.2,446.4,398.7z M368,386.5c1.3,0.9,2.6,1.9,3.9,2.8V389h12.5
	c-3.6-3.2-7.5-6.3-11.5-9.1L368,386.5z M401.5,380.9c2.7,2.6,5.2,5.4,7.7,8.3c0.1,0,0.2,0,0.3,0c0.1-1.5,0.2-3.4,0.2-5
	C406.7,383.6,403.9,382.5,401.5,380.9z M361.9,471.8c-0.1,0.1-0.1,0.1-0.2,0.2c-20.3,22.2-26.1,48.4-21.3,68.7
	c0.5,2,1.1,3.9,1.7,5.8c0.9,2.4,1.9,4.8,3.1,7.1c7,2,13.4,5.3,18.8,9.6c6.2,5,11.1,11.3,14.3,18.4c12.1,4.3,26.1,5.1,40.9,1.3
	c-0.7-0.5-1.5-1-2.4-1.4c-0.3-0.2-0.4-0.6-0.1-0.9c2.5-2,4.9-3.4,7.4-4.6c-0.6-0.5-1.2-1.1-1.8-1.6c-40,10.6-69.7-12.2-75.8-43.2
	c-4.3-21.5,2.8-47,25.4-67.9v-1C368.2,465.4,364.9,468.6,361.9,471.8z M347,531.1c6.1,30.7,35.3,53.3,74.9,42.9
	c-2.8-2.8-4.6-5.6-5.8-8.5h-13.7c1.6,0.4,2.8,1.8,2.8,3.5c0,2-1.6,3.6-3.6,3.6c-2,0-3.6-1.6-3.6-3.6c0-1.7,1.2-3.2,2.8-3.5h-7.8
	c0.1,0.4,0.2,0.8,0.2,1.3c0,2.2-1.8,4.1-4.1,4.1c-2.3,0-4.1-1.8-4.1-4.1c0-0.4,0.1-0.9,0.2-1.3h-13.5v-18.9
	c-1.3-1.4-2.4-2.9-3.5-4.4c-9.4-13.4-12.2-31.5-7.4-48.2c2.2-7.9,5.9-15.7,11-23.1V464C349.7,484.7,342.8,509.9,347,531.1z
	 M413.2,565.6c1.9,0,3.5,1.6,3.5,3.5c0,1.9-1.6,3.5-3.5,3.5c-1.9,0-3.5-1.6-3.5-3.5C409.7,567.2,411.3,565.6,413.2,565.6z
	 M354.5,496.9c1.4,0,2.5,1.1,2.5,2.5s-1.1,2.5-2.5,2.5c-1.4,0-2.5-1.1-2.5-2.5S353.1,496.9,354.5,496.9z M352.7,505.7
	c1.6,0,2.9,1.3,2.9,2.9c0,1.6-1.3,2.9-2.9,2.9c-1.6,0-2.9-1.3-2.9-2.9C349.8,507,351.1,505.7,352.7,505.7z M349.3,518.8
	c0-2,1.6-3.5,3.6-3.5c2,0,3.5,1.6,3.5,3.5c0,2-1.6,3.6-3.5,3.6C350.9,522.4,349.3,520.8,349.3,518.8z M350.7,530.4
	c0-2.1,1.7-3.8,3.8-3.8c2.1,0,3.8,1.7,3.8,3.8c0,2.1-1.7,3.8-3.8,3.8C352.4,534.1,350.7,532.5,350.7,530.4z M366.7,548.6
	c2.2,0,4.1,1.8,4.1,4.1c0,2.3-1.8,4.1-4.1,4.1s-4.1-1.8-4.1-4.1C362.7,550.4,364.5,548.6,366.7,548.6z M359.5,537.6
	c2.2,0,4.1,1.8,4.1,4.1c0,2.2-1.8,4.1-4.1,4.1c-2.2,0-4.1-1.8-4.1-4.1C355.4,539.4,357.3,537.6,359.5,537.6z M357.2,493.5
	c-1.2,0-2.2-1-2.2-2.2c0-1.2,1-2.2,2.2-2.2c1.2,0,2.2,1,2.2,2.2C359.4,492.6,358.4,493.5,357.2,493.5z M357.2,489.5
	c-1,0-1.8,0.8-1.8,1.8c0,1,0.8,1.8,1.8,1.8c1,0,1.8-0.8,1.8-1.8C359,490.3,358.2,489.5,357.2,489.5z M361.8,394.7
	c3.5,2.4,6.9,4.9,10,7.7v-12.6c-1.3-1-2.7-2-4.1-3L361.8,394.7z M356.3,402.1c5.6,3.7,10.8,8,15.5,12.8v-12
	c-3.2-2.8-6.6-5.5-10.2-7.9L356.3,402.1z M363.1,437.8c3.3-0.4,6.2-0.2,8.7,0.5V431c-0.1-0.1-0.1-0.2-0.2-0.2L363.1,437.8z
	 M347.3,444.7c1.8,2,3.5,4.2,5.1,6.5c4.2-1.8,7.9-2.5,10.8-2.4c3,0.2,5.2,1.3,6.3,3c1.1,1.7,0.9,4-0.7,6.5c-1.5,2.4-4.4,4.9-8.8,7.3
	c0.6,1.6,1.2,3.3,1.7,5c3.1-3.3,6.5-6.5,10.2-9.6v-21.7c-1.5-0.5-3.3-0.7-5.1-0.7C361.5,438.5,354.9,440.3,347.3,444.7z
	 M410.7,384.4c0,1.7-0.1,3.4-0.2,4.9c3.2,0.3,6.3,0.6,9.2,1.2c0.1-2.1,0.3-4.2,0.3-6.4C416.8,384.7,413.6,384.8,410.7,384.4z
	 M473.1,345.3c-3.6-2.1-7.6-3.6-9.8-6.5c-1.3,4.2-3.8,7.9-5.3,11.9c-1.5,4.1-2.2,8.6,0.2,14.7c0.7-0.1,1.3-0.2,2-0.2
	c0.8,0,1.6-0.1,2.5,0c1.3,0.1,2.5,0.2,3.6,0.4c-1.2-3.6-1.2-6.2-0.7-8.3c0.5-2.3,1.4-4.1,1.8-6.2c0-0.1,0.1-0.2,0.3-0.2
	c0.1,0,0.2,0,0.2,0.1c1.7,2.6,4.2,4,6.2,5.9c1.6,1.5,2.9,3.5,3.2,6.7c0.6-2,1.3-4,2.1-6c0.1-2.1,0.3-4.1,0.4-6
	C478.3,348.7,475.8,346.8,473.1,345.3z M467.2,330.9l-1.7-5.7c-0.7,1-1.4,1.9-2.2,2.9c1.2,1.2,2.5,2.2,3.9,3.2
	C467.2,331.2,467.2,331,467.2,330.9z M464.6,419.1c-0.2-1.8-0.5-3.5-0.6-5.3c-0.8,1.5-1.5,3-2.2,4.5c1,1.3,2,2.6,2.9,3.8
	C464.8,421.1,464.7,420.1,464.6,419.1z M477,385.5c-1.5-1.1-3.3-1.6-5.4-1.9c-2.1-0.3-4.3-0.5-6.5-1c3.9,8.2,7.7,11.7,12.4,13.9
	c0.7,0.3,1.4,0.6,2.1,0.9c-0.2-2.5-0.4-5.1-0.5-7.9c-0.1-0.1-0.2-0.2-0.2-0.3C478.1,388,477.5,386.7,477,385.5z M464.4,382.4
	c-0.1-0.2,0.1-0.4,0.3-0.4c0,0,0,0,0.1,0c2.3,0.5,4.8,0.7,7,1c1.8,0.3,3.5,0.7,5,1.6c-0.8-2.3-1.3-4.6-1.5-6.9
	c-2.8-2.9-5.9-3.8-9.2-3.9c-0.5,0-1,0-1.5,0.1c-4,0.3-8.2,1.6-12.3,2.4c3.9,13.8,9.2,20.9,15.3,24.4c4,2.3,8.2,2,12.6,1.5
	c-0.2-1.4-0.3-2.8-0.4-4.2c-0.8-0.3-1.6-0.6-2.4-1C472.4,394.7,468.4,391,464.4,382.4z M468.2,321.9c-0.1,0-0.2-0.1-0.2-0.1
	c-0.7,1-1.4,2-2.2,3l1.4,4.8C467.3,326.9,467.6,324.4,468.2,321.9z M485.1,310.5c0.8,1,1.7,1.9,2.5,2.8
	C487.4,312,486.5,311,485.1,310.5z M484.5,310.3c-0.5-0.1-1.1-0.3-1.8-0.3c0,0-0.1,0-0.1,0c-3.3,7.5-7.6,13.9-6,26.8
	c1.5,1,3,2.1,4.2,3.3c0-0.3,0.1-0.6,0.1-0.9c1.5-9.7,3.4-16.6,5.6-20.6c0.8-1.9,1.1-3.4,1-4.7C486.6,312.7,485.5,311.5,484.5,310.3z
	 M476.4,371.6c0,0.1,0,0.1,0,0.2c-0.6,5.4,0,10.7,2.6,15.7c-0.2-4.1-0.3-8.5-0.3-13c0-4.7,0.1-9.1,0.3-13.3c-1.1,3.2-2,6.3-2.5,9.4
	C476.5,370.8,476.4,371.2,476.4,371.6z M448.7,354.4c0.1,0.2,0.1,0.5-0.1,0.7c0,0.4-0.1,0.8-0.1,1.2c0,0,0,0,0,0.1
	c-0.1,3.3,0.5,6.8,2.2,10.6c2.5-0.7,4.8-1.2,7-1.5c-2.3-6.1-1.7-10.7-0.1-14.8c1.6-4.2,4.1-7.9,5.4-12.2c0-0.1,0.1-0.1,0.2-0.1
	c0.1,0,0.1,0,0.2,0.1c2,2.9,6.1,4.5,9.8,6.7c2.6,1.5,5,3.2,6.4,5.9c0.3-3.3,0.7-6.5,1.1-9.4c-2.1-2.4-4.9-4-7.8-5.7
	c-1.7-1-3.5-1.9-5.3-3c-0.1,0-0.2-0.1-0.2-0.2c-1.6-1-3.2-2.2-4.7-3.7c-1.2,1.5-2.4,3-3.6,4.6c-1.4,1.8-3,3.5-4.6,5.1
	c-1.1,2.3-2.3,4.5-3.2,6.8C450.1,348.4,449.1,351.3,448.7,354.4z M480.7,430.3c-1,2-2,4.1-2.9,6.2c1.2,0.4,2.4,0.8,3.6,1.3
	c0.3,0,0.7,0,1-0.1c1.9-0.3,3.3-0.9,4.1-1.8c0.3-0.7,0.6-1.3,0.9-1.9c0.2-1.1-0.1-2.4-0.7-4c-0.2-0.4-0.4-0.9-0.6-1.3
	c-0.7,0.3-1.5,0.5-2.2,0.7C482.9,429.9,481.8,430.1,480.7,430.3z M479.2,430.7c-2.6,0.4-5.1,0.8-7.6,1.1c0.4,0.6,0.8,1.2,1.2,1.7
	c0.4,0.8,0.9,1.5,1.4,2.1c0.8,0.2,1.6,0.5,2.4,0.7C477.5,434.3,478.3,432.4,479.2,430.7z M467.3,401c-6.2-3.6-11.6-10.8-15.5-24.8
	c0-0.1,0.1-0.2,0.2-0.2c4.1-0.7,8.4-2.1,12.5-2.4c3.8-0.3,7.5,0.5,10.7,3.6c-0.1-1.8,0-3.6,0.2-5.5c-3.5-3.7-8.1-5.6-14-5.6
	c-0.4,0-0.8,0-1.2,0c-6.3,0.3-14,2.8-23,7.4c2.9,1.5,5,3.9,6.7,6.9c1.8,3.3,3.1,7.1,4.4,10.7c3.1,8.1,6.4,12.2,10.8,13.9
	c4.4,1.7,10.1,1,17.8-0.8c1.1-0.3,2.2-0.5,3.4-0.8c0-0.3-0.1-0.6-0.1-0.9C475.7,403.1,471.4,403.4,467.3,401z M476.1,405.5
	c-1.3,0.9-2.1,1.9-2.5,3.1c-0.6,1.5-0.6,3.3-0.5,5.1c0.2,3.6,1,7.7-0.3,11.1c3.8-0.8,7.6-1.6,11.1-2.8c-0.4-1.3-0.7-2.8-1.1-4.3
	c-0.5,0-1.1,0-1.6-0.1c-0.2,0-0.3-0.2-0.2-0.4c0.7-1.2,0.8-2.6,0.8-4.2c0-0.1,0-0.3,0-0.4c-0.2-1.1-0.4-2.2-0.6-3.4
	c-0.2-1.5-0.5-3.1-0.7-4.7c-1.1,0.2-2.2,0.5-3.3,0.7C476.8,405.3,476.4,405.4,476.1,405.5z M472.2,425c1.4-3.3,0.6-7.5,0.4-11.2
	c-0.1-1.9-0.1-3.7,0.5-5.3c0.4-1.1,1.1-2,2-2.8c-3.2,0.7-6.2,1.2-8.8,1.3c-1,1.5-1.4,3.1-1.5,4.7v0.8c0,2,0.4,4.2,0.7,6.4
	c0.1,1.4,0.2,2.9,0,4.4c1.9,2.6,3.7,5.1,5.3,7.4c3-0.4,6-0.7,8.9-1.3c0.1-0.1,0.3-0.2,0.4-0.2c0.1,0,0.2,0,0.2,0.1
	c1.1-0.2,2.1-0.5,3.1-0.8c0.7-0.2,1.4-0.4,2.1-0.7c-0.6-1.6-1.3-3.4-1.8-5.5c-3.7,1.3-7.6,2-11.5,2.8
	C472.3,425.3,472.2,425.1,472.2,425z M501.7,265.2c6.2,3.6,12.2,7.6,18,12.1c5,2.6,9.7,6.4,13.4,11.5c1,0.9,2,1.9,3,2.8
	c1.2-0.4,2.4-0.8,3.5-1.2C530.8,275.5,516.2,267.3,501.7,265.2z M482.6,417.2c-0.2-0.7-0.3-1.4-0.5-2.2c-0.1,0.8-0.3,1.5-0.6,2.1
	C481.9,417.2,482.2,417.2,482.6,417.2z M422.8,249c-1.3,1.7-2.5,3.4-3.7,5.2h2.6c1-1.2,2-2.4,3-3.6L422.8,249z M554.6,286.2
	c2.7-0.6,5.4-1.2,8.2-1.7c-13.7-35.2-47.7-56.5-81.9-56.5c-18,0-36.1,6-51.1,18.9c-2.6,2.2-4.9,4.6-7,7.3h19.3
	c12.4-8.4,26.5-12.6,40.7-12.7C511.2,241.2,539.7,257,554.6,286.2z M449.2,250.5l0.6,3.7h4.8l-0.9-5.9
	C452.1,249,450.7,249.7,449.2,250.5z M443,254.2h6.4l-0.5-3.5C446.9,251.7,445,252.9,443,254.2z M390.2,244.3h-0.7
	c-7.3,0.3-12.2,3.4-13.9,7.8c-0.3,0.7-0.4,1.3-0.6,2.1h42.6c0-0.1,0.1-0.1,0.1-0.2C406.7,247,397.3,244.3,390.2,244.3z M389.5,244
	c7.3-0.2,17,2.4,28.4,9.7c1.3-2.1,2.7-4,4.3-6c-14.8-10.4-27.6-14.5-37.7-14.5c-1.1,0-2.1,0-3.1,0.1c-10.6,0.8-17.6,6.3-20.3,13.5
	c-2.7,7.2-1.1,16.1,6,24c1.4,1.5,3,3,4.8,4.4v-20.9h2.8c0.1-0.8,0.3-1.5,0.6-2.2C377.1,247.5,382.1,244.3,389.5,244z M367.1,272.4
	c-0.3-0.3-0.6-0.6-0.9-0.9c-3.1-3.4-5.1-7-6.3-10.7c-2-3.1-4.2-6-6.3-8.9c2.1,3.4,3.7,7.1,4.7,10.7c2,7.2,1.4,14.3-4.2,19
	c-2.6,2.2-5.7,3.2-8.7,3.2c-0.7,1.8-1.4,3.6-2.1,5.4c1.4,2.5,2.8,5,4.1,7.6c-0.5-1.2-0.8-2.6-0.8-4c-0.2-6.3,3.7-10.4,8.3-11.5
	c1.2-0.3,2.3-0.4,3.5-0.3c3.5,0.3,7,2.3,8.9,6.4c0.4,0.9,0.6,1.9,0.6,2.9c1.3-0.6,2.6-1.2,4.1-1.7v-7c-0.5-1.6-1.1-3.2-1.8-4.8
	C369.1,276,368.1,274.2,367.1,272.4z M371.9,281.6v-0.1c0-0.1-0.1-0.2-0.1-0.3C371.8,281.3,371.8,281.4,371.9,281.6z M354,319.3
	L354,319.3c1.4,0.3,3,0.5,4.7,0.6c0.4,0.1,0.5,0.5,0.2,0.8c-1.3,1-2.4,2-3.4,3.2c2.8,6.3,8.4,11.5,16.3,14v-14.3
	c-1.4-1.8-2.3-3.9-2.6-6c-0.6-3.5,0.3-7.3,2.6-10.7v-16c-3.4,1.3-6.3,2.9-8.7,4.7C355,301.9,352.2,311,354,319.3z M489.4,504.5
	c6.6,0.9,12,2.8,16.3,5.6c-0.2-0.4-0.4-0.8-0.6-1.2c-0.2-0.1-0.3-0.2-0.2-0.4c-1.9-3.4-4.1-6.6-6.5-9.7c-4.1-5.2-8.8-9.8-14.1-13.7
	c-0.2,0-0.3-0.1-0.4-0.3c-0.5-0.4-1.1-0.7-1.6-1.1c-1.2,3.5-2,7.2-2.4,11.2C483.4,497.8,486.5,500.9,489.4,504.5z M540,290.2
	c1.8-0.6,3.6-1.1,5.4-1.6c-8.1-14.8-22.1-24.1-36.8-28c-5.6-1.5-11.3-2.2-16.8-2.2c-1.2,0-2.4,0.1-3.6,0.1c3.6,1.4,7.3,3.1,11.1,5.2
	c0.4,0.2,0.7,0.4,1.1,0.6C515.6,266.3,531,274.6,540,290.2z M479.9,495.4c-0.3,2.7-0.5,5.5-0.5,8.5c3.4,0,6.6,0.2,9.5,0.6
	C486.2,501.1,483.1,498,479.9,495.4z M476.9,243.4l-3.1,11.4c4.1,0.6,8.3,1.6,12.6,3.1c0.1,0,0.3,0,0.4,0L476.9,243.4z M485,477.4
	l-0.4,6.9l32.8-6.6c-1.4-2.1-2.8-4.2-4.3-6.2c0,0-0.1,0-0.1,0l-20.1,3.1c-0.3,0.1-0.6-0.2-0.6-0.5l0.3-7.5c-0.3,0.3-0.6,0.7-0.9,1
	C489,470.6,486.8,473.8,485,477.4z M476.5,242.4c-1.6,0.1-3.2,0.4-4.8,0.6l-2.8,10.6c0,0.1-0.1,0.1-0.2,0.1l-9.4-7.6
	c-1.7,0.6-3.4,1.3-5.1,2l7.8,6.1h4.1c2.3,0,4.6,0.2,7,0.5l3.3-12.2C476.4,242.4,476.4,242.4,476.5,242.4z M455.2,254.2h5.7l-6.5-5.1
	L455.2,254.2z M366.7,556.4c2.1,0,3.7-1.7,3.7-3.7c0-2.1-1.7-3.7-3.7-3.7c-2.1,0-3.7,1.6-3.7,3.7C363,554.7,364.7,556.4,366.7,556.4
	z M354.5,501.6c1.2,0,2.1-1,2.1-2.1c0-1.2-1-2.1-2.1-2.1c-1.2,0-2.2,1-2.2,2.1C352.3,500.6,353.3,501.6,354.5,501.6z M413.2,572.2
	c1.7,0,3.2-1.4,3.2-3.1c0-1.7-1.4-3.2-3.2-3.2c-1.7,0-3.1,1.4-3.1,3.2C410.1,570.8,411.5,572.2,413.2,572.2z M450.4,345
	c0.6-1.5,1.3-2.9,2-4.3c-1.5,1.4-3.1,2.7-4.8,4c0.1,0.3,0.1,0.6,0.1,0.9c0,2.1-1.7,3.8-3.8,3.8c-0.8,0-1.5-0.3-2.1-0.7
	c-1.1,0.7-2.3,1.4-3.5,2.1c2.9,1.3,6.1,2.3,9.4,3.1C448.2,350.8,449.2,347.9,450.4,345z M369.2,541.6c0.8,1.2,1.7,2.4,2.7,3.5v-9.9
	c-7-12.2-8.3-28-3.8-42.9c1-3.5,2.3-6.9,3.8-10.2v-9.4c-4.5,6.9-7.9,14.3-10,21.6C357.2,510.7,360,528.5,369.2,541.6z M354.5,526.9
	c-1.9,0-3.4,1.5-3.4,3.4c0,1.9,1.5,3.4,3.4,3.4s3.4-1.5,3.4-3.4C357.9,528.5,356.4,526.9,354.5,526.9z M356.1,518.8
	c0-1.8-1.4-3.2-3.2-3.2c-1.8,0-3.2,1.4-3.2,3.2c0,1.8,1.4,3.2,3.2,3.2C354.7,522.1,356.1,520.6,356.1,518.8z M352.7,511.2
	c1.4,0,2.6-1.1,2.6-2.6c0-1.4-1.1-2.5-2.6-2.5c-1.4,0-2.6,1.1-2.6,2.5C350.2,510.1,351.3,511.2,352.7,511.2z M369.9,348.4
	c0.2,1.3,0.9,2.5,2,3.4v-7.9C370.2,345,369.6,346.7,369.9,348.4z M369.6,317.5c0.3,2,1.1,3.9,2.3,5.6v-15.6
	C369.8,310.7,369.1,314.2,369.6,317.5z M373.7,359.9c2,0.2,4.2-0.1,6.3-0.9h-7.9C372.7,359.4,373.2,359.7,373.7,359.9z M420,360.1
	c0.5,0.4,1.1,0.6,2,0.5c0.8-0.2,1.8-0.6,3-1.5c1.1-0.8,2.2-2,3.4-3.7c-2.8,0.9-5.9,1.7-9.1,2.3c0,0.1,0,0.3,0,0.4
	C419.2,359,419.5,359.6,420,360.1z M362.2,346.1c-0.4,3.6,1,7,3.2,9.5c2.2,1.1,4.4,2.2,6.5,3.4v-6.7c-1.3-1-2.1-2.4-2.3-3.8
	c-0.3-1.9,0.4-3.8,2.3-4.9v-4.4c-1.5-0.4-2.9-1-4.2-1.6C364.9,339.1,362.7,341.9,362.2,346.1z M410.9,370.8
	c3.6,2.3,8.9,2.5,14.3-0.3c5.3-2.7,10.8-8.3,15.1-17.6c-1.1-0.4-2.2-0.9-3.3-1.4c-2.4,1.4-5.1,2.5-7.9,3.5c-1.3,1.9-2.7,3.4-3.9,4.4
	c-1.2,0.9-2.2,1.4-3.2,1.6c-1,0.2-1.8,0-2.4-0.6c-0.6-0.5-1-1.3-1-2.3c0-0.1,0-0.2,0-0.4c-3.9,0.7-8,1.1-12.5,1.3
	C405.4,364.4,407.4,368.6,410.9,370.8z M389.8,370.6c0.8-1.9,1.5-4.2,2-6.4c-0.1-1.6,0-3.4,0.3-5.1h-11.1c-2.1,0.9-4.4,1.3-6.5,1.2
	C379.8,363.4,384.9,366.9,389.8,370.6z M397.1,375.3c7.6,9.7,24,12.2,37.4-0.6c4-6.8,8.3-13.2,13-19.3l0.1,0.1c0-0.1,0-0.2,0-0.3
	c-2.4-0.6-4.8-1.3-7-2.1c-4.3,9.4-9.9,15-15.3,17.8c-5.5,2.8-10.9,2.6-14.6,0.3c-3.6-2.3-5.7-6.6-4.9-12.1c-1.4,0-2.7,0.1-4.1,0.1
	h-8.5C392.2,365.5,393.8,371.1,397.1,375.3z M371.9,279.9v-3.3c-1.1-0.8-2.1-1.7-3.1-2.5C369.9,276,370.9,278,371.9,279.9z
	 M566.9,298.2c1.5,1,2.9,2.6,4.3,5.1c2.3,4.2,4.2,10.8,5.8,19.9c-0.9-10.1-0.6-17.1,0.5-21.6c0.6-2.6,1.5-4.4,2.5-5.6
	c0.3-0.4,0.7-0.7,1-1c0-0.2-0.1-0.4-0.1-0.6c-5.6,0.7-11.2,1.6-16.7,2.7C565.2,297.3,566.1,297.6,566.9,298.2z M580.3,296.3
	c-1,1.2-1.8,2.9-2.4,5.4c-1.2,5-1.6,13.2-0.1,25.7c2.7-0.6,5.4-1.1,8.1-1.5c-0.4-3.2-1.1-7.4-1.9-12.7c-0.8-0.5-1.3-1.3-1.3-2.3
	c0-0.7,0.3-1.3,0.7-1.8c-0.1-0.6-0.2-1.2-0.3-1.8c-0.6-3.9-1.2-7.8-1.9-11.9C580.8,295.7,580.5,295.9,580.3,296.3z M354.4,304.6
	c0.9-2,2.1-4,3.7-5.8c-2-0.7-3.3-2.4-3.7-4.2c-0.5-1.9,0.2-4,2.4-5.3c0.4-0.2,0.8-0.4,1.3-0.4c1.3-0.2,2.5,0.4,3.1,1.2
	c0.5,0.7,0.7,1.5,0.4,2.3c-0.2,0.8-0.8,1.5-1.8,1.9c-0.2,0.1-0.3-0.2-0.1-0.3c0.9-0.4,1.4-1,1.6-1.7c0.2-0.7,0.1-1.4-0.4-2
	c-0.7-0.9-2.4-1.5-3.9-0.6c-2.1,1.2-2.7,3.1-2.2,4.9c0.4,1.7,1.7,3.3,3.6,4c1.2-1.4,2.6-2.7,4.1-3.9c1.5-1.2,3.2-2.2,5-3.1
	c0-1-0.2-2-0.6-3c-2-4.3-5.7-6.2-9.5-6.2c-0.8,0-1.7,0.1-2.5,0.3c-4.5,1.1-8.3,5-8,11.2C347,298.9,350.2,302.8,354.4,304.6z
	 M275.6,307.3v1.9c0.2-0.7,0.4-1.4,0.6-2.2C276,307.2,275.8,307.3,275.6,307.3z M296.1,312.5c0.8,0.1,1.5,0.5,1.8,1.1
	c0.3,0.6,0.3,1.3,0,2.1c-0.3,0.8-1,1.6-2,2.3c-3.4,2.6-9.1,5.3-14.6,7.9c2.5-0.5,4.9-0.7,7.1-0.8c2.4-0.1,4.7,0.1,7,0.3
	c4.9-2.5,7.5-5.7,9.4-9c2-3.4,3.3-7,5.7-10.4c-5.4-1-10.1-2.2-14.6-2.6c-0.8-0.1-1.7-0.1-2.5-0.1c-3.5,0-6.9,0.6-10.5,2.5
	c-1.2,4.7-3.5,9.2-7.3,13.4v1.9c5.8-3.2,11.5-5.8,17.4-8.1C294.2,312.5,295.2,312.3,296.1,312.5z M348.2,299.7
	c1.6,3.4,3.2,6.9,4.5,10.3c0.3-1.7,0.8-3.4,1.5-5.1C351.8,303.8,349.6,302,348.2,299.7z M557,307.6c0.2-2.9,0.7-5.2,1.6-6.9
	c0.6-1.2,1.4-2.1,2.4-2.6c-5,1.2-9.9,2.5-14.7,4c3.9,4.2,7.5,8.2,10.8,12.3c0,0,0,0,0,0C556.9,311.8,556.9,309.5,557,307.6z
	 M283.2,296.6c0-0.3,0-0.5,0-0.8c0.1-8.5-2-17.3-3-26c-1.7,0.7-3.5,1.3-5.3,1.9c0.4,3.9,0.6,8.2,0.6,13v21.7
	c0.4-0.2,0.7-0.3,1.1-0.5c0.1,0,0.1,0,0.2,0c0.3,0,0.5,0.3,0.4,0.6c-0.7,2-1.2,4.1-1.7,6.2v5.2c5.6-6.6,7.4-13.7,7.6-21.1V296.6z
	 M347.1,317.6c-2.2-6.5-4.9-12.9-8.1-19.1c-3.3,5.2-7.8,9.6-15.2,13c6.4,0.4,10.9,1.7,15.2,3.2C341.6,315.7,344.2,316.7,347.1,317.6
	z M566.9,316.4c-0.2,0.1-0.5,0.1-0.7,0.1c-1.5,0-2.7-1.2-2.7-2.7c0-1.5,1.2-2.7,2.7-2.7c1.5,0,2.7,1.2,2.7,2.7
	c0,1.1-0.6,2.1-1.7,2.5l2.7,12.9c2.4-0.6,4.9-1.2,7.3-1.7c-1.6-11.4-3.9-19.3-6.5-24c-1.3-2.4-2.7-4-4.1-5c-0.9-0.6-1.8-0.9-2.7-0.9
	c-0.5,0-1.1,0.1-1.6,0.2c-1.5,0.4-2.6,1.4-3.5,3c-0.8,1.6-1.4,3.9-1.5,6.8c-0.1,2.1-0.1,4.5,0.1,7.2c5,6.1,8.9,11,11.6,14.7
	c0.2-0.1,0.4-0.1,0.6-0.2L566.9,316.4z M545.6,301.3c11.4-3.7,23.2-6.2,35.2-7.7c-0.5-3.3-1-6.6-1.6-10c-14.5,1.4-28.6,4.4-42.2,9
	C540,295.6,542.9,298.5,545.6,301.3z M325.9,274.9c4.9,0.1,9.7,0.6,14.6,0.6c0.1,0,0.2,0.2,0.2,0.3c-2.7,4.7-4.4,10.7-7.1,16.2
	c-2.7,5.4-6.4,10.5-13.1,13.4c-1.1,1.9-1.9,4-2.7,6c1-0.1,2-0.1,3-0.1c0.4,0,0.7,0,1,0c10.1-4.1,15-9.9,18.6-17
	c0.6-1.3,1.3-2.6,1.8-4c-0.1-0.2,0-0.4,0.2-0.5c2.5-5.9,4.7-12.6,8.3-19.7c-7.5-0.4-15.2-2.4-22.9-3.3c-0.8-0.1-1.6-0.2-2.4-0.2
	c-0.2,0.1-0.4,0.1-0.6-0.1c-1.5-0.1-3-0.2-4.4-0.2c-5.3,0-10.7,1-15.9,3.7c0,0.3-0.1,0.5-0.1,0.8c-0.5,3-1.3,5.9-2.6,8.8
	C310,275.3,318,274.7,325.9,274.9z M299.5,294c7-3.6,13-6.5,18.5-8.1c0.7-0.2,1.3-0.3,1.8-0.3c0.5,0,1,0,1.4,0.1
	c0.8,0.2,1.4,0.6,1.7,1.2c0.3,0.6,0.2,1.3-0.1,2c-0.3,0.7-0.9,1.3-1.8,1.8c-3.2,2-7.5,3.5-12.7,5.1c5.2,1.4,10.3,3,16.2,2.9
	c0.4,0,0.6,0.5,0.3,0.7c-1.7,1.6-3,3.5-4.1,5.4c6.3-2.9,9.9-7.8,12.5-13.1c2.7-5.4,4.3-11.3,7-16c-5.7-0.1-11.3-0.7-16.9-0.7
	c-7.1,0-14.4,1-21.9,5.1c-2.4,5-6.3,9.8-12.7,14.4c2.3-0.6,4.5-0.8,6.6-0.8C296.7,293.8,298.1,293.9,299.5,294z M426,382
	c0,3.4,0,6.5-0.3,9.5c2.1-4.7,4.5-9.2,7-13.7C430.5,379.6,428.2,381,426,382z M322.3,288.7c0.3-0.6,0.3-1.1,0.1-1.5
	c-0.2-0.4-0.6-0.8-1.3-1c-0.3-0.1-0.6-0.1-0.9-0.1c-0.6,0-1.3,0.1-2.1,0.3c-5.3,1.5-11,4.2-17.8,7.7c1.7,0.2,3.3,0.6,5,1
	c0.7,0.2,1.4,0.3,2.1,0.5c5.6-1.8,10-3.3,13.3-5.3C321.5,289.8,322.1,289.2,322.3,288.7z M305.4,257.6c-0.2,3.9-0.3,7.7-0.8,11.5
	c3.4-1.7,6.9-2.6,10.4-3.1C312,263.2,308.7,260.3,305.4,257.6z M342.3,268.5c1.3,0.2,2.5,0.4,3.8,0.5c-0.5-0.6-1.3-1-2.2-1
	C343.3,268,342.8,268.2,342.3,268.5z M341.1,294.8c-0.5,1-1.1,2-1.7,3c3.4,6.4,6.2,13.2,8.5,20c1.5,0.5,3.1,0.9,4.9,1.2
	c-0.5-2.3-0.6-4.7-0.4-7c-2.7-7-5.9-14-9.7-20.7C342.2,292.6,341.7,293.7,341.1,294.8z M343.8,267.7c1.2,0,2.2,0.5,2.7,1.4
	c1.6,0.2,3.2,0.3,4.8,0.4c0.3,0,0.5,0.3,0.4,0.6c-1.2,2.4-2.3,4.7-3.2,7c3.9-1.6,5.3-6.7,3.6-10.1c-2-3.9-5.5-5.7-9-5.8
	c-0.2,0-0.5,0-0.7,0c-3.6,0.2-7.2,2.2-8.9,5.7c2.8,0.5,5.6,1,8.4,1.4C342.4,267.9,343.1,267.7,343.8,267.7z M321.8,265.7
	c0.7,0,1.4,0.1,2.1,0.1c-5.3-5.8-11.5-11.4-17.8-16.3c-0.3,2.4-0.5,4.9-0.6,7.3c3.6,2.9,7.2,6,10.4,9.2
	C317.8,265.7,319.8,265.7,321.8,265.7z M364.6,355.2c-1.9-2.5-3.2-5.8-2.7-9.2c0.5-4.2,2.6-7.1,5.4-8.7c-3.2-1.5-5.9-3.6-8.1-5.9
	c1.6,7.5,2.5,15,2.8,22.6C362.8,354.5,363.7,354.8,364.6,355.2z M444.1,236.1l-3.2-4.8c-2.2,1.6-4.3,3.3-6.4,5.1l3,3.6
	C439.7,238.6,441.9,237.3,444.1,236.1z M451.1,232.9l-3.3-6.1c-2.3,1.3-4.5,2.8-6.7,4.3l3.3,4.8
	C446.6,234.8,448.9,233.8,451.1,232.9z M437.2,240.2l-3-3.6c-1,0.9-2,1.8-3,2.8c-0.9,0.9-1.8,1.8-2.7,2.7l2.6,2.6
	C433.1,243.1,435.2,241.6,437.2,240.2z M429.2,246.3c0.6-0.5,1.1-0.9,1.7-1.4l-2.5-2.5c-1.9,2.1-3.7,4.2-5.4,6.3l2,1.6
	C426.3,248.9,427.7,247.6,429.2,246.3z M447.6,357.6c-3.5,4.7-6.9,9.6-10,14.6c4.4-2.2,8.4-3.9,12.2-5.1
	C448.3,363.8,447.6,360.6,447.6,357.6z M550.6,261.4l20.7-13.8c-2.1-2.4-4.3-4.6-6.7-6.7l-18.5,15.2
	C547.6,257.8,549.2,259.6,550.6,261.4z M548.8,229.4c-2.5-1.5-5.1-2.9-7.8-4.1l-11.3,16.8c1.8,1.2,3.7,2.5,5.4,3.9L548.8,229.4z
	 M545.8,255.8l18.5-15.2c-2.2-2-4.6-3.9-7.1-5.7l-16.2,16.1C542.7,252.6,544.3,254.2,545.8,255.8z M244.7,593.1
	c1.5,1.1,3.2,1.7,5,1.7h0.1c-2.4-1.7-4.7-3.6-6.9-5.5C242.9,590.9,243.5,592.2,244.7,593.1z M540.8,250.8l16.2-16.1
	c-2.5-1.8-5.2-3.5-7.9-5.1l-13.7,16.7C537.3,247.7,539.1,249.2,540.8,250.8z M581,337.5c0.3,0,0.5-0.1,0.8-0.2
	c-0.3,0.1-0.7,0.1-1,0.2C580.8,337.5,580.9,337.5,581,337.5z M571.7,333.2c1.6,2.5,3.6,3.9,6,4.3c2.2-0.5,4.4-1,6.6-1.4
	c1.6-1.3,2.3-3.4,2-6.2c-0.1-0.8-0.2-1.8-0.4-2.9c-5.5,0.9-10.9,2-16.2,3.4C570.5,331.4,571.1,332.4,571.7,333.2z M277.3,343.4
	c0.3,0,0.5,0.1,0.7,0.1c0.4,0.1,0.8,0.4,1,0.8c0.3,0.6,0.2,1.4-0.3,2.2c2.7-0.6,5.5-1.2,8.4-1.7c2.1-1.6,3.4-3,4.5-4.5
	c1.2-1.5,2.3-3.1,4.1-4.8c-3.2,0.2-6.2,0-9.2,0c-3.5,0-7,0.2-11,1.1v7c0.3-0.1,0.6-0.2,0.8-0.2C276.8,343.5,277,343.4,277.3,343.4z
	 M296.2,335.2c0.2,0,0.2,0.2,0.1,0.3c-2,1.7-3.1,3.4-4.4,5c-1.1,1.4-2.2,2.7-4.1,4.2c4.1-0.7,8.2-1.1,12.3-1.4
	c4.8-5.1,6.9-9.7,10.5-15.3c-1.1-0.1-2.1-0.2-3.2-0.3c-0.1,0-0.3,0-0.4-0.1c-6-0.6-11.6-1.9-17.9-1.8c-4.2,0-8.7,0.6-13.7,2.4v8
	C283.3,334.5,289.4,335.5,296.2,335.2z M295.6,317.5c1-0.7,1.5-1.5,1.8-2.1c0.3-0.6,0.3-1.2,0.1-1.6c-0.2-0.4-0.7-0.7-1.4-0.8
	c-0.2,0-0.4-0.1-0.6-0.1c-0.6,0-1.4,0.2-2.3,0.5c-6,2.3-11.7,5-17.5,8.2v5.8c1.1-0.4,2.2-0.7,3.3-1
	C285,323.5,291.8,320.5,295.6,317.5z M475.5,370.5c0-0.1,0-0.1,0-0.2c0.3-1.7,0.6-3.4,1.1-5.2c0.1-4.1-1.3-6.2-3.1-7.9
	c-1.8-1.7-4.2-3.1-5.9-5.5c-0.5,2-1.3,3.7-1.7,5.7c-0.4,2.1-0.4,4.6,0.8,8.3C470.2,366.5,473.1,368.1,475.5,370.5z M278.6,344.5
	c-0.1-0.2-0.3-0.4-0.7-0.5c-0.2-0.1-0.4-0.1-0.6-0.1c-0.2,0-0.5,0-0.8,0.1c-0.3,0-0.6,0.1-0.9,0.2v3.1c0.8-0.2,1.6-0.4,2.5-0.6
	C278.7,345.7,278.8,345,278.6,344.5z M443.4,390.4c-0.4,0.9-0.4,2.1,0.1,3.4c0.5,1.4,1.5,2.9,3.2,4.7c3.2,3.4,8.8,7.3,17.4,11.6
	c0.2-1,0.5-2,1.1-3c-2.4,0-4.5-0.3-6.5-1c-4.8-1.8-8.3-6.2-11.4-14.5c-0.4-1.1-0.8-2.2-1.3-3.3C444.8,388.6,443.9,389.3,443.4,390.4
	z M320.7,312.2c-1.1,0-2.2,0-3.3,0.1c-0.2,0.4-0.3,0.8-0.5,1.3c-1.5,3.8-3.1,7.6-5.9,11c1.2-0.2,2.4-0.2,3.5-0.3
	c4.1-0.1,7.6,0.4,10.9,1c4.4,0.8,8.7,1.9,13.9,2c0.2,0,0.2,0.2,0.1,0.3c-2.9,3.5-5.6,7.5-9.1,10.6c-2.8,2.5-6.1,4.5-10.5,5.3
	c5.5,0.4,11,1.2,16.3,2.3c6-3.3,9.2-7.9,12.1-12.6c2.8-4.5,5.2-9.1,9.4-12.5c-8.4-1-13.6-3.2-19-5.1
	C333.8,313.8,328.7,312.3,320.7,312.2z M351.3,329.8c1.6,7,2.7,14.1,3.2,21.3c2.1,0.8,4.3,1.6,6.4,2.5c-0.3-8-1.3-15.9-3.2-23.8
	c-1.2-1.5-2.2-3.2-3.1-4.9C353.5,326.4,352.4,328.1,351.3,329.8z M349,333.6c-2.8,4.5-6,9.1-11.6,12.5c5.6,1.2,11.1,2.8,16.4,4.7
	c-0.5-6.8-1.5-13.5-3-20.2C350.2,331.6,349.6,332.6,349,333.6z M397.9,389h3.8c2.1,0,4.2,0.1,6.2,0.2
	c-12.6-14.6-28.5-26.4-46.4-34.3c-0.2,0.1-0.4-0.1-0.5-0.2c-7.9-3.4-16.2-6.1-24.8-7.9c-0.1,0-0.2,0-0.3-0.1
	c-8.7-1.8-17.6-2.7-26.8-2.7c-2.9,0-5.8,0.1-8.6,0.3c-0.1,0-0.1,0-0.2,0c-8.5,0.6-16.8,1.9-24.8,4.1v6.4c10.1-2.5,20.9-3.7,32.1-3.7
	C343.2,350.9,375.2,365.5,397.9,389z M541.4,280.8c1.8,2.3,3.4,4.9,4.9,7.5c0.4-0.1,0.7-0.2,1.1-0.3l2.6-7.6L541.4,280.8z
	 M548.2,287.8c2-0.5,3.9-1,5.9-1.5c-1.1-2.1-2.2-4-3.3-5.9L548.2,287.8z M526,254.8c-1.9-1.3-3.9-2.4-5.9-3.5l1,6L526,254.8z
	 M548.2,276.5c-0.9-1.3-1.8-2.5-2.7-3.7l-0.5,3.9L548.2,276.5z M468.7,253.3l2.7-10.3c-4,0.7-7.9,1.6-11.7,3L468.7,253.3z
	 M510.5,246.9c-2.5-0.9-5-1.7-7.6-2.4l2.3,6.9L510.5,246.9z M318.9,333.6c0.4,0.1,0.8,0.2,1.1,0.3c0.6,0.3,1.1,0.8,1.2,1.4
	c0.3,1.2-0.4,2.7-2.2,3.8c-3.2,1.9-7.1,2.7-11.6,3.9c0.5,0,1.1,0,1.6,0c3.1,0,6.1,0.1,9.1,0.3c5.1-0.6,8.7-2.7,11.8-5.4
	c3.3-3,6-6.8,8.8-10.3c-5.1-0.1-9.3-1.2-13.6-2c-3.1-0.6-6.2-1.1-9.8-1c-1.5,0-3.2,0.1-4.9,0.3c-0.6,0.7-1.3,1.4-2.1,2.1
	c1,0.1,2,0.2,3,0.2c0.3,0,0.5,0.4,0.4,0.7c-2,3-3.5,5.7-5.1,8.3c4.1-1.3,7.4-2.1,10.8-2.6C318.1,333.6,318.5,333.6,318.9,333.6z
	 M538.6,265.1c-1.4-1.4-2.8-2.7-4.3-4l0.2,4.9L538.6,265.1z M318.8,338.7c1.7-1,2.2-2.3,2-3.2c-0.1-0.5-0.4-0.8-1-1.1
	c-0.4-0.2-0.9-0.3-1.5-0.3c-0.2,0-0.4,0-0.7,0.1c-3.6,0.6-6.9,1.4-11.3,2.7c-1.4,2.1-2.9,4.2-4.8,6.3c1.3-0.1,2.7-0.2,4-0.2
	C310.9,341.5,315.3,340.8,318.8,338.7z M488.2,257.7c1.2-0.1,2.4-0.1,3.6-0.1c3.6,0,7.2,0.3,10.8,0.8l-4.9-14.1L488.2,257.7z
	 M526.3,255l-5.2,2.6c-0.1,0-0.2,0-0.2-0.1l-1.1-6.4c-2.9-1.6-6-2.9-9-4.1l-5.6,4.7c-0.1,0.1-0.2,0-0.2-0.1l-2.4-7.2
	c-1.5-0.4-2.9-0.7-4.4-1c0,0,0,0,0,0.1l5.1,14.9l11.8-9.4c0.2-0.2,0.5-0.1,0.5,0.2l2.5,13.6l11.4-5.6
	C528.5,256.5,527.4,255.7,526.3,255z M492.9,242.6c-3.3-0.4-6.7-0.6-10.1-0.6h-0.3l5.3,7.9L492.9,242.6z M316.2,228.6
	c1.5,2,1.9,4.9,1,7.4c-0.8,2.5-2.9,4.5-6.2,4.8c-2.5,0.2-4.7-1.1-5.8-2.9c-1.1-1.8-1-4.2,1-6c1.4-1.3,3.4-1.1,4.4-0.3
	c0.7,0.5,1,1.3,1,2.1c-0.1,0.8-0.5,1.6-1.4,2.3c-0.2,0.1-0.4-0.2-0.2-0.3c0.8-0.6,1.2-1.3,1.2-2c0.1-0.7-0.2-1.4-0.8-1.8
	c-0.9-0.7-2.7-0.9-4,0.2c-1.9,1.7-1.9,3.9-1,5.6c1,1.7,3.1,3,5.4,2.8c3.1-0.3,5.1-2.2,5.9-4.6c0.8-2.3,0.5-5.1-1-7
	c-1.6-2-3.5-3.3-5.5-3.9h-5.6c-0.7,0.2-1.3,0.4-1.9,0.7c-4.1,2.1-7,6.7-5.4,12.6c0.7,2.6,2.3,4.9,4.2,6.4c1.6-0.2,3.2-0.4,4.8-0.7
	h0.1c0.3,0,0.5,0.3,0.4,0.5c-0.2,0.8-0.4,1.6-0.5,2.5c4.7,1.2,10.1-0.1,13.8-4.4c3.6-4.3,4.5-8.8,3.4-13.2c-0.4-1.5-1-3-1.8-4.5
	h-10.4C313.2,225.7,314.8,226.9,316.2,228.6z M504.1,258.7c1.6,0.3,3.2,0.7,4.8,1.1c2.9,0.8,5.8,1.8,8.6,3l-2.4-12.8L504.1,258.7z
	 M497.7,243.4c-1.5-0.3-3-0.5-4.5-0.7l-5.3,7.6c-0.1,0.1-0.2,0.1-0.2,0l-5.5-8.2c-1.7,0-3.5,0.1-5.2,0.3c0,0,0.1,0,0.1,0.1
	l10.5,15.3L497.7,243.4C497.7,243.4,497.7,243.4,497.7,243.4z M518.9,263.3c4,1.8,7.9,4.1,11.5,6.7l-0.7-12L518.9,263.3z
	 M548.4,276.7l-3.6,0.2c-0.1,0-0.2-0.1-0.1-0.2l0.6-4.3c-1-1.2-1.9-2.4-2.9-3.5l-1.3,11.2l9.4-0.4
	C549.7,278.8,549.1,277.7,548.4,276.7z M531.7,271.1c3.1,2.5,6.1,5.3,8.7,8.5l1.2-10.5L531.7,271.1z M538.9,265.3l-4.3,1
	c-0.1,0-0.2-0.1-0.2-0.1l-0.3-5.3c-1.2-1-2.5-2-3.8-3l0.7,12.6l10.7-2.1C540.8,267.3,539.9,266.3,538.9,265.3z M295.9,258
	c0.1,0,0.2,0.1,0.2,0.2c-1.5,5.1-1.7,10.3-2.9,15.4c-1.2,5.1-3.6,10.1-9.4,15.1c0.2,2.4,0.4,4.8,0.4,7.1v0.2
	c0.6-0.2,1.3-0.5,1.9-0.6c12-7.5,15.9-15.9,17.4-24.5c0.1-0.3,0.1-0.7,0.2-1v-0.1c1.1-6.9,0.7-14,1.7-21c-0.1-0.2-0.1-0.5,0.1-0.6
	c0.2-1.1,0.4-2.2,0.6-3.2c-1.5,0.3-2.9,0.5-4.4,0.6c-0.2,0.2-0.4,0.2-0.6,0.1c-10.3,1.3-20.3,1.8-31.3,7.7c0.4,0.8,0.9,1.6,1.3,2.5
	c1,2.1,1.8,4.4,2.5,7.2C281.9,259.4,288.5,259.6,295.9,258C295.9,258,295.9,258,295.9,258z M297.2,238.5c-1.6-6.1,1.3-10.9,5.6-13.1
	c0.3-0.2,0.6-0.3,1-0.4h-3.3c-0.4,0.9-0.9,1.9-1.6,2.9c-6,9-19.8,8.1-23.7-1.7c-0.2-0.4-0.3-0.8-0.4-1.2h-13.2
	c14.2,4.6,27.2,11,38.7,18.9C298.9,242.5,297.7,240.6,297.2,238.5z M392.6,369.1c-0.3-1.2-0.6-2.5-0.7-3.8c-0.5,1.9-1.1,3.9-1.8,5.5
	c0.7,0.6,1.5,1.2,2.2,1.8C392.4,371.4,392.5,370.3,392.6,369.1z M280.6,268.8c0.2,0,0.4,0.2,0.4,0.4c0.7,6.3,2,12.7,2.7,19.1
	c5.6-4.8,7.9-9.7,9.1-14.7c1.2-5,1.4-10.1,2.9-15.2c-7.3,1.5-13.8,1.4-22.1,5c0.6,2.3,1,4.8,1.3,7.5c1.9-0.6,3.7-1.2,5.6-2
	C280.5,268.8,280.5,268.8,280.6,268.8z M393.2,370.7c-0.1,0.8-0.2,1.6-0.2,2.5c1,0.8,2,1.7,3,2.6
	C394.8,374.2,393.9,372.5,393.2,370.7z M243,230.1c0,0.3,0.1,0.6,0.1,0.9c0.4,2.7,2.3,4.5,5.6,5.6c1.7,0.6,3.6,1.4,5.6,2.4
	c1.2-0.9,2.4-1.8,3.6-2.8c0.1-0.1,0.2-0.1,0.3-0.1c0.3,0,0.4,0.2,0.5,0.4c0,1.7,0.2,3.4,0.3,5.1c0.3,0.2,0.7,0.4,1.1,0.6
	c3.5,2.2,6.5,5.7,9.3,10.4c6.8-3.6,13.3-5.3,19.6-6.3C275.5,238.7,260.1,233.1,243,230.1z M300,245c-12.3-8.5-26.4-15.4-41.9-20
	h-8.4c-1.8,0-3.4,0.5-5,1.3c-1.2,0.7-1.8,1.7-1.8,3.1c17.6,3,33.3,8.9,47,16.8C293.3,245.8,296.6,245.4,300,245z M255.2,239.4
	c0.9,0.5,1.9,1,2.9,1.6c-0.1-1.2-0.2-2.4-0.3-3.7C256.9,238.1,256.1,238.8,255.2,239.4z M289.1,226.6c1.4-0.3,2.5-0.8,3.3-1.6h-8.6
	C285.1,226.3,287,227,289.1,226.6z M298.6,227.7c0.6-0.9,1.1-1.8,1.5-2.7h-7.1c-0.9,0.9-2.1,1.6-3.7,1.9c-2.3,0.5-4.5-0.4-5.8-1.9
	h-8.2c0.1,0.4,0.2,0.7,0.4,1.1C279.3,235.6,292.8,236.5,298.6,227.7z M316.1,313.2c0.2-0.5,0.4-1,0.6-1.4c0-0.1,0-0.2,0.1-0.2
	c1.7-4.2,3.5-8.4,6.9-12c-6.8,0-12.5-2.2-18.4-3.7c-3.1-0.7-6.3-1.3-9.8-1.3c-2.8,0.1-5.8,0.5-9,1.5c0,0-0.1,0-0.1,0
	c-0.7,0.2-1.4,0.5-2.2,0.8c-0.1,2.8-0.4,5.5-1.1,8.3c3.2-1.6,6.3-2.3,9.5-2.4c1.1,0,2.3,0,3.4,0.1c4.6,0.4,9.4,1.6,14.8,2.7
	c0.1,0,0.2,0.2,0.1,0.3c-2.4,3.3-3.7,7-5.8,10.5c-1.9,3.3-4.5,6.5-9.1,9c3.8,0.4,7.5,1.1,11.3,1.5
	C312,323.1,314.1,318.2,316.1,313.2z M371.9,359.1h0.3c-0.1-0.1-0.2-0.1-0.3-0.2V359.1z M310.5,225h1c-1.2-0.5-2.3-0.7-3.5-0.7
	c-1.4,0-2.8,0.2-4.2,0.7h1.1C306.6,224.5,308.6,224.5,310.5,225z M372.8,225h0.6c-0.4-0.4-1-0.6-1.6-0.6c-0.8,0-1.5,0.2-2.1,0.6h0.8
	c0.4-0.2,0.9-0.3,1.4-0.3C372.1,224.7,372.5,224.8,372.8,225z M400.9,565.6h1.6c-0.3-0.1-0.5-0.1-0.8-0.1
	C401.4,565.5,401.1,565.5,400.9,565.6z M480.7,596.1c28,0,51.2-4.4,69-13.1c17.8-8.7,31.2-19.9,39.7-33.4
	c8.5-13.4,12.8-27.1,12.8-40.6c0-16.2-4.2-29.4-12.6-39.4c-8.3-9.9-18.7-16.7-30.9-20.3c-6.7-2-13.5-3-20.3-3
	c-5.5,0-11.1,0.7-16.6,2c-12.4,2.9-22.9,9.1-31.2,18.3c-8.4,9.3-12.6,21.8-12.6,37.1v1.4h1.4c13.3,0,23.1,3,29.3,8.9
	c6.2,6,9.1,12.7,8.9,20.6c-0.2,7.9-3.4,14.6-9.9,20.6c-6.3,5.9-15.4,8.9-27,8.9H373.2V390.3h28.5c14.3,0,26,2.5,34.8,7.5
	c8.9,5,16.1,11,21.5,17.9c5.5,7,10,13.2,13.5,18.4c1.7,3.4,4.7,5.1,8.7,5.1c0.7,0,1.5-0.1,2.3-0.2c2.7-0.4,4.6-1.4,5.5-3
	c1-1.6,0.9-3.8-0.1-6.4l0-0.1c-2.1-4.3-4-11.2-5.5-20.5c-1.5-9.4-2.3-21-2.3-34.6c0-13.6,0.8-25.4,2.3-35c1.5-9.5,3.4-16.3,5.5-20.1
	l0-0.1l0-0.1c1.4-3.3,1.5-5.8,0.4-7.7c-1-1.6-2.8-2.6-5.5-2.8c-0.6-0.1-1.1-0.1-1.7-0.1c-4.6,0-7.8,1.8-9.6,5.4
	c-3.5,5.7-8,12-13.5,18.7c-5.4,6.7-12.6,12.6-21.5,17.6c-8.8,5-20.5,7.5-34.8,7.5h-28.5V255.6h92.9c10.3,0,21.3,3.2,32.5,9.5
	c11.4,6.4,22.1,14.2,31.9,23.4c9.8,9.2,18.4,18.2,25.4,26.8c7,8.6,11.9,14.9,14.5,18.8c2.1,3.4,5,5.1,8.6,5.1c0.7,0,1.3-0.1,2.1-0.2
	c3.3-0.5,7.1-2.6,6.4-9.1c-0.4-4-1.5-11.4-3.3-22.6c-1.8-11.1-3.6-22.9-5.6-35.5c-2-12.5-4.3-28.2-7-46.8l-0.2-1.2H249.7
	c-2,0-3.9,0.5-5.7,1.5c-1.5,0.8-3,2.6-2.3,6c0.5,3.2,2.7,5.4,6.6,6.7c3.2,1.1,6.9,2.9,11,5.5c4,2.5,7.5,6.9,10.5,13
	c3,6.2,4.5,15.7,4.5,28.3v249.6c0,12.6-1.5,22.2-4.5,28.6c-3,6.4-6.5,10.7-10.4,13c-4.2,2.4-7.9,4.3-11.1,5.6
	c-3.8,1.5-5.9,3.6-6.5,6.3c-0.7,3.5,0.8,5.4,2.2,6.4c1.8,1.3,3.7,1.9,5.8,1.9H480.7z M479.4,503.8c0-15,4.1-27.1,12.3-36.2
	c8.2-9.1,18.4-15,30.5-17.9c12.2-2.9,24.2-2.5,36.2,1c12,3.5,22,10.2,30.2,19.9c8.2,9.7,12.3,22.6,12.3,38.5
	c0,13.3-4.2,26.6-12.6,39.8c-8.4,13.3-21.5,24.2-39.2,32.9c-17.7,8.6-40.5,12.9-68.4,12.9h-231c-1.8,0-3.4-0.5-5-1.7
	c-1.6-1.1-2.1-2.8-1.7-5c0.4-2.2,2.3-4,5.6-5.3c3.3-1.3,7.1-3.2,11.3-5.6c4.2-2.4,7.9-7,11-13.6c3.1-6.6,4.6-16.4,4.6-29.2V284.7
	c0-12.8-1.6-22.5-4.6-28.9c-3.1-6.4-6.7-11-11-13.6c-4.2-2.7-8-4.5-11.3-5.6c-3.3-1.1-5.2-3-5.6-5.6c-0.4-2.2,0.1-3.8,1.7-4.6
	c1.5-0.9,3.2-1.3,5-1.3h320.6c2.7,18.6,5,34.2,7,46.8c2,12.6,3.9,24.5,5.6,35.5c1.8,11.1,2.9,18.6,3.3,22.6c0.4,4.4-1.3,7-5.3,7.6
	c-4,0.7-7.1-0.8-9.3-4.3c-2.7-4-7.5-10.3-14.6-18.9c-7.1-8.6-15.6-17.6-25.6-26.9c-10-9.3-20.7-17.1-32.2-23.6
	c-11.5-6.4-22.6-9.6-33.2-9.6h-94.3v104.9h29.9c14.6,0,26.4-2.5,35.5-7.6c9.1-5.1,16.4-11.1,21.9-17.9c5.5-6.9,10.1-13.2,13.6-18.9
	c1.8-3.5,5.1-5.1,10-4.6c4.9,0.4,6.2,3.3,4,8.6c-2.2,4-4.1,10.8-5.6,20.6c-1.6,9.7-2.3,21.5-2.3,35.2c0,13.7,0.8,25.3,2.3,34.9
	c1.5,9.5,3.4,16.5,5.6,20.9c1.8,4.4,0.3,7-4.3,7.6c-4.6,0.7-7.9-0.8-9.6-4.3c-3.5-5.3-8.1-11.5-13.6-18.6
	c-5.5-7.1-12.8-13.2-21.9-18.3c-9.1-5.1-20.9-7.6-35.5-7.6h-29.9v176.6h108.9c11.9,0,21.2-3.1,27.9-9.3c6.6-6.2,10.1-13.4,10.3-21.6
	c0.2-8.2-2.9-15.4-9.3-21.6C503.2,506.9,493.1,503.8,479.4,503.8z"/>
</svg>
