<?xml version="1.0" encoding="utf-8"?>
<!-- Generator: Adobe Illustrator 24.3.0, SVG Export Plug-In . SVG Version: 6.00 Build 0)  -->
<svg version="1.1" id="Mandala_Letter" xmlns="http://www.w3.org/2000/svg" xmlns:xlink="http://www.w3.org/1999/xlink" x="0px"
	 y="0px" width="828px" height="828px" viewBox="0 0 828 828" style="enable-background:new 0 0 828 828;" xml:space="preserve">
<style type="text/css">
	.st0{fill:none;stroke:#000000;stroke-miterlimit:10;}
</style>
<path class="st0" d="M0.1,827V0h827.3v827.3H0.1v-0.2 M504,588.1V588l0-0.1c-0.5-2.7-2.7-4.8-6.5-6.3c-3.2-1.3-7-3.2-11.1-5.6
	c-3.9-2.3-7.4-6.6-10.4-13c-3-6.4-4.5-16-4.5-28.6V284.7c0-12.6,1.5-22.1,4.5-28.3c3-6.2,6.5-10.5,10.5-13c4.1-2.6,7.8-4.4,11-5.5
	c3.8-1.3,6-3.5,6.6-6.7l0-0.1V231c0-2.7-1.1-7.3-8.7-7.3c-1.4,0-5.9,0.7-13.8,2c-7.8,1.3-17.2,2.8-27.8,4.3
	c-10.7,1.5-21.5,2.3-32,2.3c-10.1,0-20.8-0.8-31.7-2.3c-11-1.5-20.4-3-28.2-4.3c-10.5-1.8-12.9-2-13.8-2c-2,0-3.9,0.5-5.6,1.5
	c-1.4,0.8-3,2.6-2.3,6c0.5,3.2,2.7,5.4,6.6,6.7c3.2,1.1,6.9,2.9,11,5.5c4,2.5,7.5,6.9,10.5,13c3,6.2,4.5,15.7,4.5,28.3v249.6
	c0,12.6-1.5,22.2-4.5,28.6c-3,6.4-6.5,10.7-10.4,13c-4.2,2.4-7.9,4.3-11.1,5.6c-3.8,1.5-5.9,3.6-6.5,6.3c-0.7,3.5,0.8,5.4,2.2,6.4
	c1.8,1.3,3.7,1.9,5.8,1.9c0.5,0,2.2,0,13.9-2.3c7.6-1.5,17-3.1,27.8-4.6c10.8-1.5,21.5-2.3,32-2.3c10.5,0,21.2,0.8,32,2.3
	c10.8,1.5,20.1,3.1,27.8,4.6c11.7,2.3,13.3,2.3,13.9,2.3C500.9,596.1,504,593.3,504,588.1z M502.7,231c-0.4,2.7-2.3,4.5-5.6,5.6
	c-3.3,1.1-7.1,3-11.3,5.6c-4.2,2.7-7.9,7.2-11,13.6c-3.1,6.4-4.6,16-4.6,28.9v249.6c0,12.8,1.5,22.6,4.6,29.2
	c3.1,6.6,6.7,11.2,11,13.6c4.2,2.4,8,4.3,11.3,5.6s5.2,3.1,5.6,5.3c0,4.4-2.4,6.6-7.3,6.6c-1.3,0-5.9-0.8-13.6-2.3
	c-7.7-1.5-17-3.1-27.9-4.7c-10.8-1.5-21.6-2.3-32.2-2.3s-21.4,0.8-32.2,2.3c-10.8,1.6-20.1,3.1-27.9,4.7c-7.7,1.6-12.3,2.3-13.6,2.3
	c-1.8,0-3.4-0.5-5-1.7c-1.6-1.1-2.1-2.8-1.7-5c0.4-2.2,2.3-4,5.6-5.3s7.1-3.2,11.3-5.6c4.2-2.4,7.8-7,11-13.6
	c3.1-6.6,4.6-16.4,4.6-29.2V284.7c0-12.8-1.6-22.5-4.6-28.9c-3.1-6.4-6.8-11-11-13.6c-4.2-2.7-8-4.5-11.3-5.6
	c-3.3-1.1-5.2-3-5.6-5.6c-0.4-2.2,0.1-3.8,1.7-4.6c1.5-0.9,3.2-1.3,5-1.3c1.3,0,5.9,0.7,13.6,2c7.7,1.3,17.1,2.8,28.2,4.3
	c11.1,1.6,21.7,2.3,31.9,2.3c10.6,0,21.3-0.8,32.2-2.3c10.8-1.5,20.1-3,27.9-4.3c7.7-1.3,12.3-2,13.6-2
	C500.2,225,502.7,227,502.7,231z M502.1,228.8c-0.8-2.6-3.1-3.9-7-3.9c-0.3,0-0.8,0-1.5,0.1l-1.8,6.7
	C495,230.4,498.5,229.4,502.1,228.8z M486.6,234.4c1.3-0.7,2.6-1.5,4-2.1l-7.2-5.7c-0.6,0.1-1.2,0.2-1.9,0.3c-1.9,0.3-3.9,0.7-6,1
	l2,13.7C480.1,239,483.1,236.5,486.6,234.4z M492.9,225.1c-1.9,0.2-4.7,0.7-8.6,1.3l6.8,5.4L492.9,225.1z M378.8,387.6
	c-1.7-1.4-3.4-2.8-5.2-4.1v0.1c1.6,1.7,2.7,3.8,3.3,6.3L378.8,387.6z M373.6,385.2v19.4c1.5-2.9,2.3-5.6,2.6-8.2
	C376.8,392,375.7,388.1,373.6,385.2z M391.3,400.8c-1.7-2.3-3.6-4.4-5.5-6.5L374.1,406c-0.1,0.2-0.3,0.5-0.5,0.7v3.9
	c3.1-1.3,6-2.1,8.7-2.5L391.3,400.8z M468.4,266.7c0.2,3,0.8,5.8,1.8,8.5c0.6-8.2,2-14.7,4.3-19.4c3.1-6.4,6.7-11,11-13.6
	c4.2-2.7,8-4.5,11.3-5.6c3.3-1.1,5.2-3,5.6-5.6c0-0.4,0-0.9-0.1-1.3c-5.6,1-10.9,2.8-15.3,5.5C473.8,243.2,467.8,255.5,468.4,266.7z
	 M383,419.1c3,0.2,5.2,1.3,6.3,3c1.1,1.7,0.9,4-0.7,6.5c-1.5,2.4-4.4,4.9-8.8,7.3c0.6,1.6,1.2,3.3,1.7,5c5.6-6,12.3-11.7,20-16.9
	c0.5-6.1-2.5-11.5-8.5-13.9c-1.9-0.7-4.1-1.2-6.5-1.2c-3.7-0.1-8,0.8-12.9,2.9v9.2C377.2,419.5,380.4,419,383,419.1z M443.4,281.8
	l12.8-11.9l-16.8-6c-0.1,2.4,0.1,4.8,0.5,7.1C440.5,274.7,441.7,278.4,443.4,281.8z M456.6,269.9l-13,12.1c0.9,1.8,2,3.5,3.2,5.1
	c0,0,0-0.1,0.1-0.1l20.6-19.2l-27.2-9.9c0,0,0,0-0.1,0c-0.3,1.9-0.5,3.8-0.6,5.7l17,6.1C456.6,269.7,456.7,269.9,456.6,269.9z
	 M452.5,233.3c0,0-0.1-0.1-0.1-0.1c-1.1,1.2-2.1,2.3-3,3.6l11.4,12.4c0.1,0.1,0,0.2-0.1,0.2l-19.4,3c-0.5,1.6-0.9,3.2-1.2,4.8
	l29.7-4.7L452.5,233.3z M426.7,249.2c0.6-2.5,1.4-5.1,2.3-7.6c-8.1-1.5-13.5-3.7-16.7-5.9c-1.2-0.8-2.1-1.6-2.7-2.4
	c-4.4-0.2-9-0.6-13.5-1.2c0.9,1.8,2.2,3.6,4,5.4C405,242.5,413.7,246.9,426.7,249.2z M410.3,233.3c0.5,0.6,1.3,1.3,2.2,2
	c3.1,2.2,8.5,4.3,16.6,5.8c0.8-2.1,1.7-4.3,2.7-6.4c-0.7-0.5-1.3-0.9-2-1.3c-2.8,0.1-5.6,0.2-8.4,0.2
	C417.8,233.6,414.1,233.5,410.3,233.3z M425.9,276.9c1.1,8.4,3.7,16.3,7.9,23.3c0.1,0.1,0.1,0.1,0.1,0.2c7,11.4,18.2,20.1,33.7,23.9
	c0.4-2.8,1.2-5.5,2.3-8.1v-6c-24.9-3.9-37.7-20.2-40.7-38.9c-2-12.7,0.5-26.5,6.8-38.3c-0.7,0-1.4,0.1-2,0.1
	C426.8,247.4,424.1,262.8,425.9,276.9z M463.8,312.2c2.1,0,3.8,1.7,3.8,3.7c0,2.1-1.7,3.8-3.8,3.8c-2.1,0-3.7-1.7-3.7-3.8
	C460.1,313.8,461.8,312.2,463.8,312.2z M454.5,309.4c1.5,0,2.8,1.3,2.8,2.8c0,1.5-1.2,2.8-2.8,2.8c-1.5,0-2.8-1.2-2.8-2.8
	C451.7,310.7,453,309.4,454.5,309.4z M447.6,306.2c1.1,0,2,0.9,2,2c0,1.1-0.9,2-2,2c-1.1,0-2-0.9-2-2
	C445.7,307.1,446.5,306.2,447.6,306.2z M442.5,302.5c0.8,0,1.5,0.7,1.5,1.5c0,0.8-0.7,1.5-1.5,1.5c-0.8,0-1.5-0.7-1.5-1.5
	C441,303.2,441.7,302.5,442.5,302.5z M430,271.2c2.9,18.3,15.4,34.2,39.9,38.1v-7.5c-18.3-4.4-28.2-16.7-30.4-30.8
	c-2.1-13.5,2.9-28.6,14.3-39.8c0,0-0.1,0-0.1,0c-5.6,0.8-11.1,1.4-16.7,1.8C430.6,244.7,428,258.5,430,271.2z M432,234.2
	c0.1-0.3,0.3-0.6,0.5-0.9c-0.6,0-1.2,0.1-1.8,0.1C431.2,233.6,431.6,233.9,432,234.2z M467.9,288.3l-16.9,3.3
	c3.8,3.5,8.6,6.4,14.5,8.3L467.9,288.3z M452.9,232.8l24,9.1l-2.1-13.9c-1.5,0.2-3.1,0.5-4.7,0.7l0.8,5.3c0,0.1-0.1,0.2-0.2,0.2
	l-10.4-3.9c-1.9,0.3-3.8,0.6-5.8,0.8C454,231.6,453.4,232.2,452.9,232.8L452.9,232.8z M449.3,237c-3.6,4.7-6.2,9.9-7.8,15.1l19.1-3
	L449.3,237z M424.9,258c0.4-2.8,1-5.7,1.6-8.5c-13-2.3-21.7-6.8-26.8-11.8c-1.9-1.9-3.2-3.8-4.1-5.7c-2-0.2-4-0.5-6.1-0.8
	c-3.1-0.4-6.1-0.9-9-1.3c1.1,3.7,3.1,7.5,6.3,11.1C393.9,248.8,406.2,255.4,424.9,258z M469.9,228.8c-2.8,0.4-5.8,0.9-8.9,1.4
	l9.7,3.7L469.9,228.8z M476.6,242.6l-22.7-8.7l16.4,18.2C471.9,248.8,474,245.6,476.6,242.6z M467.5,267.1c0-0.1,0-0.3,0-0.4
	c-0.2-4.4,0.6-9,2.4-13.5l-28.3,4.5L467.5,267.1z M388.2,428.3c1.5-2.3,1.6-4.4,0.7-5.9c-0.9-1.5-3-2.6-5.9-2.7c-0.2,0-0.4,0-0.6,0
	c-2.4,0-5.4,0.5-8.8,1.9v2.1c2.3,3.6,4.3,7.5,6,11.8C383.9,433,386.7,430.5,388.2,428.3z M448.2,444.2c3.8-0.9,7.6-1.5,11.3-1.8
	c0.1-6.5,0.5-11.4,1.2-14.8c0.3-1.6,0.7-2.9,1.1-3.8c0.2-0.4,0.4-0.7,0.6-1c0.2-0.2,0.5-0.4,0.7-0.4c0.3,0,0.5,0.1,0.7,0.3
	c0.2,0.2,0.4,0.5,0.6,1c0.4,0.8,0.7,2.1,1,3.7c0.5,3.3,0.8,8.2,0.7,14.8c1.2,0,2.5,0.1,3.7,0.2v-16.9l-6.3-16.3L448.2,444.2z
	 M347.5,589.4c3.1,2.5,7.2,3.5,11.6,3.3c0.4,0,0.9-0.1,1.3-0.1c0.3-0.1,0.6-0.1,0.8-0.2c1.1-0.2,2.2-0.4,3.3-0.6
	c7.1-2,13.8-7,16.7-14.5c3.3-8.5,2.7-18.5-2.6-26.1c-1.5-2.2-3.3-4.1-5.6-5.8c-0.4,5-1.2,9.4-2.3,13.1c1,1.3,1.8,2.6,2.4,4
	c3.6,7.7,2,17.8-6.3,22.3c-3.9,2.1-8.3,2.3-11.6,0.7c-2-1-3.5-2.6-4.1-4.8c-1.6,0.8-3.2,1.5-4.6,2.1c-1.2,0.5-2.2,1-3,1.6
	C344.6,586.4,345.9,588.1,347.5,589.4z M472.7,579.2c-1.5,3.9-1.3,8,0.5,11.6c0.1,0,0.3,0,0.4,0.1c1.3-2.9,3.3-4.6,5.5-5.9
	c2.4-1.3,5.1-2.1,7.6-3c1.5-0.6,2.8-1.2,4-2c-1.7-0.9-3.5-1.8-5.3-2.9c-0.6-0.3-1.1-0.7-1.6-1.1c-1.4,0.6-2.7,1.1-4.1,1.6
	C477.3,578.4,474.9,578.9,472.7,579.2z M355.8,584.7c3,1.4,7.1,1.3,10.7-0.7c7.8-4.3,9.4-13.9,6-21.2c-0.5-1.2-1.2-2.3-2-3.3
	c-0.5,1.5-1,2.8-1.6,4c-1.9,4-3.9,7.2-6.2,9.7c0,0.4,0,0.7,0,1.1c0,3.8-2.4,6.5-5.1,7.2c-1.3,0.3-2.7,0.2-3.9-0.7
	c-0.3-0.2-0.6-0.5-0.9-0.9c-0.3,0.1-0.6,0.3-0.9,0.4C352.6,582.3,354,583.8,355.8,584.7z M467.3,572.3c-6.1-0.9-9.4-4.7-11.9-8.8
	c-2.5-4.1-4.4-8.7-7.8-11.1c-0.1-0.1-0.1-0.2,0-0.3c3.4-1.5,7-2.3,10.5-2.5c3.2-0.1,6.4,0.3,9.3,1.2c-0.6-1.7-0.9-3.6-1.1-5.6
	c-2.9-0.5-5.8-0.7-8.7-0.7c-6.6,0-13.2,1.7-19.8,6.8c0.9,0.5,1.7,1.1,2.5,1.6c0.1,0,0.3,0.1,0.3,0.3c3.7,3.1,5.9,7.2,8.2,11.3
	c2.2,3.8,4.7,7.6,9,10.4c0.1,0,0.2,0.1,0.3,0.2c1.5,1,3.1,1.8,5.1,2.4c4,1.4,10,1.2,16.2-0.9c1.2-0.4,2.3-0.8,3.5-1.3
	c-1.4-1.1-2.7-2.5-3.9-4.2C474.6,572.4,470.4,572.8,467.3,572.3z M342.8,585.1c-0.9,0.9-1.5,1.9-1.7,3c0,0.2-0.1,0.4-0.1,0.6
	l4.6,0.7C344.4,588.1,343.5,586.6,342.8,585.1z M377.7,530.9c-1.3-0.8-2.7-1.6-4.1-2.2v3.3c1,0.3,2,0.6,3,1.1L377.7,530.9z
	 M354.2,580.2c1,0.7,2.2,0.9,3.3,0.6c2.3-0.6,4.6-3,4.6-6.5c0-0.1,0-0.3,0-0.4c-0.8,0.8-1.6,1.5-2.4,2.1c-0.5,1.8-1.9,3.2-3.7,3.6
	c-0.7,0.2-1.5,0.1-2.2-0.2c-0.1,0.1-0.2,0.1-0.3,0.2C353.8,579.8,354,580,354.2,580.2z M463.5,499.5c-1.7,3.6-2.9,7.6-1,12.6
	c1.3,0.8,2.5,1.7,3.8,2.9c0-0.1-0.1-0.3-0.1-0.4c-0.1-0.3,0.2-0.6,0.5-0.6c0.1,0,0.2,0,0.2,0c1,0.4,2.1,0.7,3,1.1v-20.7
	c-0.8-1.4-1.5-3-2.1-4.9C467.2,493,465.1,496.1,463.5,499.5z M456.5,489.2c-2.8,5.5-4.3,11.5-1.1,19.6c2.1,0.7,4.3,1.6,6.4,2.8
	c-1.6-5-0.4-8.9,1.2-12.4c1.8-3.8,4.1-7.1,4.4-10.9c0-0.1,0.1-0.3,0.3-0.2c0.1,0,0.2,0.1,0.3,0.2c0.5,1.9,1.2,3.6,1.9,5.1v-15
	c-1.7-1.7-3.2-3.5-4.5-5.5C463.4,478.8,459.3,483.8,456.5,489.2z M468.4,565.5c-4.4-1.6-7.7-4.9-9.1-9.2c-0.1-0.2,0.1-0.3,0.3-0.3
	h0.1c2.4,0.8,4.3,0.6,6.2,0.5c1.5-0.2,3-0.3,4.5,0.1c-0.9-1.2-1.6-2.5-2.2-3.8c-0.2-0.5-0.4-0.9-0.6-1.4c-2.5-0.8-5.2-1.3-8-1.3
	c-3.8-0.1-7.8,0.7-11.5,2.3c3.3,2.6,5.2,7,7.6,11c2.5,4.1,5.7,7.8,11.7,8.6c3,0.4,7,0.1,11.4-1.2c-0.9-1.3-1.8-2.7-2.7-4.2
	C473.3,566.7,470.7,566.4,468.4,565.5z M467.4,516.1c0.1,0.1,0.1,0.3,0.1,0.4c0.7,6,0.2,12.2-0.1,18.2c-0.4,6.6-0.4,12.8,1.7,17.6
	c0.8,1.9,1.9,3.6,3.2,5.1c-1.6-6-2.4-13.7-2.4-23v-18.1c-0.8-0.3-1.7-0.6-2.6-0.9C467.3,515.5,467.3,515.8,467.4,516.1z
	 M479.3,585.3c-2.2,1.2-4.1,2.9-5.4,5.6c2.2,0.4,4.3,0.8,6.3,1.2c1.9-1.2,4.2-2.2,6.5-3.4c3.1-1.5,6.4-3.4,8.8-6.5
	c-1.4-0.6-2.9-1.3-4.5-2.1c-1.3,0.9-2.7,1.6-4.2,2.2C484.4,583.3,481.7,584,479.3,585.3z M470.9,557.2c-1.7-0.6-3.3-0.4-5-0.3
	c-1.8,0.2-3.7,0.3-5.9-0.4c1.5,4,4.5,7,8.6,8.5c2.2,0.8,4.6,1.1,7.2,1c-0.4-0.8-0.9-1.7-1.3-2.6c-0.6-1.2-1.1-2.6-1.6-4.1
	C472.2,558.7,471.5,558,470.9,557.2z M458.8,576.7c-0.5-0.3-0.9-0.5-1.4-0.8c-1.1-0.1-2.2-0.2-3.2-0.3c-1.2-0.1-2.4-0.1-3.5-0.1
	c-0.2,0-0.4,0-0.6,0v11.7c0.3,0,0.6,0.1,0.9,0.1c1.9,0.1,3.8,0.3,5.6,0.6L458.8,576.7z M432,579l2.8,6.8c2.6,0.2,5.1,0.4,7.7,0.6
	l-2-9.8C437.5,577.2,434.7,578,432,579z M440.9,576.5l2,9.9c2.3,0.2,4.6,0.5,6.9,0.8v-11.6C446.6,575.6,443.7,576,440.9,576.5z
	 M489.8,592.2c0.6,0.7,1.1,1.3,1.6,2c1.8,0.3,3.1,0.5,3.7,0.5c4.9,0,7.3-2.2,7.3-6.6c-0.3-1.7-1.5-3.1-3.5-4.2
	C496.1,586.6,493.1,589.4,489.8,592.2z M464,589.3c0.3,0.1,0.7,0.1,1,0.2c-0.1-0.6-0.2-1.3-0.3-1.9L464,589.3z M464.9,579
	c-0.7-0.1-1.4-0.3-2.1-0.5c-1.4-0.5-2.6-1-3.7-1.6l-2.2,11.2c0.4,0.1,0.8,0.2,1.3,0.3c1.9,0.3,3.7,0.6,5.4,0.8l1-2.4
	C464.4,584.2,464.5,581.6,464.9,579z M425.1,582.1l1.7,3.4c2.5,0.1,5.1,0.2,7.6,0.3l-2.8-6.7C429.4,580,427.2,581,425.1,582.1z
	 M388,587.9c0.4-0.1,0.8-0.1,1.2-0.2c0,0,0,0,0,0l0-1C388.8,587.1,388.4,587.5,388,587.9z M487.4,589.6c0.7,0.7,1.5,1.5,2.2,2.3
	c3.3-2.7,6.3-5.5,9-8.3c-0.6-0.3-1.2-0.6-1.9-0.9c-0.1,0-0.1,0-0.2-0.1C494,586.1,490.6,588.1,487.4,589.6z M396.5,570.8
	c2.2-10.8-0.4-23.5-11.8-32.1c-3.4-2.6-7.2-4.5-11.1-5.8v1.3c0,3.7-0.1,7.1-0.4,10.3c2.5,1.8,4.5,3.9,6.1,6.2c5.4,7.8,6,18,2.7,26.7
	c-2.4,6.3-7.5,10.9-13.3,13.5c5.2-0.9,11-1.9,17.4-2.8C391.1,583.9,395,578.1,396.5,570.8z M405,579.8c-1.2-2.3-1.2-5.2-0.1-7.6
	c1.1-2.4,3.3-4.4,6.6-4.7c3.1-0.3,5.6,1.2,6.7,3.3c1.1,2.1,0.8,4.8-1.3,6.7c-0.8,0.7-1.9,1-3,0.9c-1.1-0.1-2.2-0.5-2.8-1.3
	c-0.5-0.7-0.8-1.6-0.7-2.4c0.1-0.9,0.6-1.7,1.6-2.3c0.5-0.3,0.9,0.4,0.4,0.7c-0.8,0.5-1.1,1-1.2,1.6c-0.1,0.6,0.1,1.3,0.6,1.8
	c0.5,0.6,1.3,0.9,2.2,1c0.9,0.1,1.8-0.2,2.4-0.7c1.9-1.6,2.1-3.8,1.1-5.6c-1-1.8-3.1-3.2-5.9-2.9c-3,0.3-4.9,2-5.9,4.2
	c-1,2.2-0.9,4.8,0.1,6.9c1.6,3.2,4.4,4.8,7.3,5.3c2.5,0.4,5.1,0,7.1-0.9c0.7-0.5,1.5-0.9,2.3-1.4c6.5-4.7,6.7-12.7,2.8-18
	c-2.5-3.4-7.2-5.8-12.3-5.7c-3.8,0.1-7.9,1.5-11.4,5c1,5.9,0.8,12.2-0.5,18.5c-0.3,1.5-0.7,2.9-1.2,4.3c4.4-0.4,8.8-0.7,13.2-0.9
	c-0.1,0-0.1,0-0.2,0C409.8,585,406.7,583.3,405,579.8z M399.5,582.6l-9.5,3.2c-0.1,0.1-0.2,0.3-0.4,0.4l0,1.5c2.7-0.4,5.4-0.7,8.1-1
	l0.6-0.2C398.9,585.2,399.2,583.9,399.5,582.6z M419.5,585.4c0.6,0,1.3,0,1.9,0c1.7,0,3.3,0,5,0.1l-1.6-3.2
	C423,583.2,421.2,584.3,419.5,585.4z M463,364.3c-0.5-1.4-0.5-2.7-0.1-3.7c0.5-1.1,1.5-2,2.9-2.4c-0.6-1.7-1.3-3.4-2.1-5
	c-6.4,11.3-11.6,24-15.2,37c1.9,4.2,3.6,8.4,5.1,12.8c2-0.3,4-0.5,6-0.6c-3.1-1.2-5.3-2.5-6.8-3.9c-1.7-1.7-2.3-3.4-2-5
	c0.3-1.2,1.1-2.2,2.5-3c1.4-0.7,3.2-1.2,5.6-1.3c2.9-0.1,6.6,0.3,10.9,1.5v-0.3c-4.5-2.1-7.9-4.1-10.3-6c-1.8-1.5-3-3-3.5-4.5
	c-0.6-1.5-0.5-2.9,0.1-4.3c0.6-1.4,1.8-2.3,3.5-2.6c1.7-0.4,3.8-0.2,6.3,0.3c1.2,0.3,2.6,0.6,4,1.1v-2c-1.4-1.1-2.7-2.2-3.7-3.3
	C464.5,367.3,463.5,365.7,463,364.3z M465.9,358.5c-1.3,0.4-2.2,1.1-2.6,2.2c-0.4,0.9-0.4,2.1,0.1,3.4c0.5,1.4,1.5,2.9,3.2,4.7
	c0.9,1,2.1,2,3.4,3.1V368c-1-1.8-1.9-3.8-2.8-6.1C466.7,360.7,466.3,359.6,465.9,358.5z M468.4,325.4c0,0.4-0.1,0.8-0.1,1.2
	c0,0,0,0,0,0.1c-0.1,2.8,0.3,5.7,1.5,8.9v-16.3c-0.6,1.8-1.1,3.7-1.3,5.6C468.7,324.9,468.6,325.2,468.4,325.4z M374.3,504.1
	c1.9,0,3.4-1.5,3.4-3.4c0-1.9-1.5-3.4-3.4-3.4c-0.2,0-0.4,0-0.7,0.1v6.7C373.8,504.1,374,504.1,374.3,504.1z M463.6,350.8
	c1.8,3.3,3.1,7.1,4.4,10.7c0.6,1.6,1.2,3,1.8,4.3v-27.3c-3.9,1.2-8.2,3-12.9,5.5C459.9,345.4,462,347.9,463.6,350.8z M433,542.6
	c1.7,0,3.2-1.4,3.2-3.1c0-1.7-1.4-3.2-3.2-3.2c-1.7,0-3.1,1.4-3.1,3.2C429.9,541.1,431.3,542.6,433,542.6z M421.5,542.7
	c1.8,0,3.3-1.5,3.3-3.3c0-1.8-1.5-3.3-3.3-3.3s-3.3,1.5-3.3,3.3C418.2,541.2,419.6,542.7,421.5,542.7z M461.7,373.1
	c-0.7,0-1.4,0.1-2,0.2c-1.6,0.3-2.7,1.1-3.3,2.4c-0.6,1.3-0.6,2.6-0.1,4c0.5,1.4,1.7,2.9,3.5,4.4c2.3,1.9,5.6,3.9,10,5.9v-6.2
	c-0.1,0-0.2,0-0.4,0c-1.4,0-2.5-1.1-2.5-2.4c0-1.4,1.1-2.4,2.5-2.4c0.1,0,0.2,0,0.4,0v-4.3c-1.4-0.5-2.8-0.8-4-1.1
	C464.3,373.2,462.9,373.1,461.7,373.1z M373.6,425.5v24.9c2.1-2.9,4.5-5.8,7-8.6C378.9,435.8,376.6,430.4,373.6,425.5z M374.3,471.9
	c1.2,0,2.1-1,2.1-2.1c0-1.2-1-2.1-2.1-2.1c-0.2,0-0.4,0-0.7,0.1v4C373.8,471.8,374,471.9,374.3,471.9z M408.5,420.7
	c-10.8,6.4-19.7,13.6-26.8,21.4c-0.1,0.1-0.1,0.1-0.2,0.2c-2.9,3.2-5.6,6.5-7.9,9.9v4.5C380.5,443.7,391.9,431.2,408.5,420.7z
	 M448.2,286.7l21.7-4.2c0-1.9,0.1-3.7,0.2-5.4c-1.3-2.7-2.1-5.6-2.4-8.7L448.2,286.7z M375.1,478.9c0-1-0.6-1.9-1.5-2.3v4.6
	C374.5,480.9,375.1,480,375.1,478.9z M375.9,489.2c0-1.4-1-2.7-2.3-3.1v6.1C374.9,491.8,375.9,490.6,375.9,489.2z M450.7,291.4
	L468,288h0c0.1,0,0.2,0.1,0.1,0.2l-2.5,11.9c1.3,0.4,2.6,0.8,3.9,1.1l0.1,0c-0.2-0.1-0.3-0.2-0.2-0.4l0.5-2.3v-13.8c0-0.5,0-1,0-1.5
	l-22.7,4.4C448.2,289,449.4,290.2,450.7,291.4z M386.5,526.7c2.1,0,3.7-1.7,3.7-3.7c0-2.1-1.7-3.7-3.7-3.7c-2.1,0-3.7,1.6-3.7,3.7
	C382.8,525.1,384.5,526.7,386.5,526.7z M374.3,467.2c1.4,0,2.5,1.1,2.5,2.5c0,1.4-1.1,2.5-2.5,2.5c-0.2,0-0.4,0-0.7-0.1v4.1
	c1.1,0.4,1.8,1.5,1.8,2.7c0,1.2-0.8,2.3-1.8,2.7v4.1c1.5,0.4,2.6,1.8,2.6,3.4c0,1.6-1.1,3-2.6,3.4v4.4c0.2,0,0.4-0.1,0.7-0.1
	c2.1,0,3.8,1.7,3.8,3.8c0,2.1-1.7,3.8-3.8,3.8c-0.2,0-0.4,0-0.7-0.1v15.1c12,20.7,36.8,33.1,68.1,24.9c-3.9-3.9-5.9-7.9-7-11.9
	c-21.3,2-37.3-6.7-46.6-20c-9.4-13.4-12.2-31.5-7.4-48.2c5.1-17.7,17.4-35.5,35.7-47.5c-21.1,11.5-35,25.9-42.8,41v9.6
	C373.8,467.3,374,467.2,374.3,467.2z M433,535.9c1.9,0,3.5,1.6,3.5,3.5c0,1.9-1.6,3.5-3.5,3.5c-1.9,0-3.5-1.6-3.5-3.5
	C429.5,537.5,431.1,535.9,433,535.9z M421.5,535.8c2,0,3.6,1.6,3.6,3.6c0,2-1.6,3.6-3.6,3.6c-2,0-3.6-1.6-3.6-3.6
	C417.8,537.4,419.5,535.8,421.5,535.8z M409,533.1c2.2,0,4.1,1.8,4.1,4.1c0,2.2-1.8,4.1-4.1,4.1c-2.3,0-4.1-1.8-4.1-4.1
	C404.9,534.9,406.8,533.1,409,533.1z M397.2,527.4c2.3,0,4.1,1.8,4.1,4.1c0,2.2-1.8,4.1-4.1,4.1c-2.2,0-4.1-1.8-4.1-4.1
	C393.1,529.3,394.9,527.4,397.2,527.4z M386.5,518.9c2.2,0,4.1,1.8,4.1,4.1c0,2.3-1.8,4.1-4.1,4.1s-4.1-1.8-4.1-4.1
	C382.5,520.8,384.3,518.9,386.5,518.9z M379.3,507.9c2.2,0,4.1,1.8,4.1,4.1c0,2.2-1.8,4.1-4.1,4.1c-2.2,0-4.1-1.8-4.1-4.1
	C375.2,509.7,377.1,507.9,379.3,507.9z M377,459.5c1.2,0,2.2,1,2.2,2.2c0,1.2-1,2.2-2.2,2.2c-1.2,0-2.2-1-2.2-2.2
	C374.8,460.5,375.8,459.5,377,459.5z M447.9,444.7c-0.1,0.2-0.3,0.2-0.4,0.1c-1.1,0.3-2.2,0.6-3.4,0.9c-7.3,2.2-14.3,6-19.9,11.1
	c0,0.2-0.2,0.3-0.3,0.3c-2.8,2.5-5.3,5.3-7.4,8.4c-1.9,2.7-3.5,5.7-4.7,8.7c0.1,0.2,0,0.3-0.2,0.4c-2.5,6.5-3.2,13.7-1.6,21
	c-1.4-21,19.3-44.3,51.9-43.9c2.6,0,5.2,0.2,7.9,0.5v-9.5c-1.7-0.1-3.3-0.2-5-0.2C459.4,442.7,453.7,443.4,447.9,444.7z
	 M410.6,498.1C410.6,498.1,410.6,498.1,410.6,498.1c0,0.1,0.1,0.2,0.1,0.2c1.5,5.1,3.9,9.4,6.9,12.4c0.1,0,0.3,0.1,0.3,0.2l0,0.1
	c0.4,0.4,0.9,0.8,1.4,1.2c2.9,2.3,6.2,3.6,9.9,4c0.1-0.1,0.3-0.1,0.4,0.1c1.2,0.1,2.4,0.1,3.6,0c-0.1-1-0.1-1.9-0.2-2.8
	c-6.9,0.5-11.7-2.7-14.4-7.1c-2.8-4.5-3.6-10.1-2.9-14.4c1.7-10.1,8.1-17.7,16.7-22.4c6.5-3.5,14.2-5.4,22.2-5.4
	c2.6,0,5.3,0.2,7.9,0.5c0.6-1,1.3-2,1.8-3.1c0.1-0.2,0.3-0.3,0.5-0.3c0.2,0,0.3,0.1,0.4,0.3c0.9,1.5,1.8,2.9,2.7,4.2
	c0.6,0.2,1.2,0.3,1.9,0.5v-13.6c-2.7-0.3-5.4-0.5-7.9-0.6C428.2,451.7,407.4,476.7,410.6,498.1z M469.9,468v-0.7
	c-0.3-0.1-0.6-0.2-0.8-0.2C469.3,467.4,469.6,467.7,469.9,468z M377,463.5c1,0,1.8-0.8,1.8-1.8c0-1-0.8-1.8-1.8-1.8
	c-1,0-1.8,0.8-1.8,1.8C375.1,462.7,376,463.5,377,463.5z M451,483.6c-4.1,7.2-6.3,14.7-3.2,23.6c0.3,0,0.5,0.1,0.8,0.1
	c2.1,0.3,4.2,0.8,6.3,1.4c-3.1-8.1-1.5-14.2,1.2-19.6c2.9-5.6,7-10.6,8.9-16.6c0-0.1,0.1-0.1,0.2-0.1c0.1,0,0.1,0,0.1,0.1
	c1.3,2.1,2.8,3.9,4.4,5.5v-8.4c-1.8-2-3.5-4.2-5-6.8C460.7,469.9,455,476.6,451,483.6z M461.3,403.3c-42.7,2.3-71.3,32.1-79.6,61.2
	c-4.7,16.4-1.9,34.2,7.3,47.4c9.1,13,24.6,21.5,45.5,19.5c-0.4-1.5-0.6-3-0.7-4.4c-1,0-1.9,0.1-2.9,0c-18.7-0.2-31.8-8.8-39-21.1
	c-7.2-12.3-8.6-28.3-4.1-43.4c7-23.3,24.5-43.3,47.9-50.3c9.5-2.8,18.8-4.3,27.6-4.4c2.2,0,4.4,0,6.5,0.1v-4.7c-1.3,0-2.5,0-3.8,0
	C464.5,403.1,462.9,403.2,461.3,403.3z M397.2,535.2c2.1,0,3.7-1.7,3.7-3.7c0-2.1-1.7-3.7-3.7-3.7c-2.1,0-3.7,1.7-3.7,3.7
	C393.5,533.6,395.1,535.2,397.2,535.2z M379.3,515.7c2.1,0,3.7-1.7,3.7-3.7c0-2.1-1.7-3.7-3.7-3.7c-2.1,0-3.7,1.7-3.7,3.7
	C375.6,514,377.2,515.7,379.3,515.7z M409,540.8c2.1,0,3.7-1.6,3.7-3.7c0-2.1-1.7-3.7-3.7-3.7c-2.1,0-3.7,1.7-3.7,3.7
	C405.3,539.2,407,540.8,409,540.8z M458.9,389.6c-2.3,0.1-4.1,0.5-5.4,1.2c-1.3,0.7-2.1,1.6-2.3,2.7c-0.3,1.4,0.2,3.1,1.9,4.7
	c1.5,1.5,4,2.9,7.4,4.1c0.3,0,0.5-0.1,0.8-0.1c1.6-0.1,3.2-0.2,4.8-0.2c1.3,0,2.5,0,3.8,0v-3.8l-2.8-0.7c-0.4,0.9-1.3,1.5-2.3,1.5
	c-1.4,0-2.4-1.1-2.4-2.4c0-1.3,1.1-2.4,2.4-2.4c1.4,0,2.4,1.1,2.4,2.4c0,0.2,0,0.4-0.1,0.6l2.7,0.7v-7c-3.9-1-7.3-1.5-10-1.5
	C459.5,389.5,459.3,389.5,458.9,389.6z M398.1,551.9c12.1,4.3,26.1,5.1,40.9,1.3c-0.7-0.5-1.5-1-2.4-1.4c-0.3-0.2-0.4-0.6-0.1-0.9
	c2.5-2,4.9-3.4,7.4-4.6c-0.6-0.5-1.2-1.1-1.8-1.6c-31.2,8.3-56.2-3.8-68.5-24.3v6.6c3.7,1.7,7.1,3.9,10.2,6.4
	C390,538.4,394.9,544.7,398.1,551.9z M464.1,408.6l5.7,14.9v-14.8c-1.3-0.1-2.6-0.1-3.9-0.1H464.1z M472.3,579.2
	c-2.3,0.3-4.4,0.3-6.4,0c-0.6,3.5-0.6,7.1,0.1,10.4c2.3,0.4,4.6,0.8,6.8,1.1C471.1,587.1,470.9,583.1,472.3,579.2z M401.7,516.2
	c1.1,0.9,2.3,1.8,3.5,2.6c0.1-0.1,0.2-0.2,0.3-0.3l9.4-2.5c0.1,0,0.1,0,0.1,0c0.2,0,0.4,0.2,0.5,0.4l2.2,7.7c0,0.1,0,0.2,0,0.3
	c1.3,0.4,2.7,0.7,4.2,0.9l-4.5-13.9L401.7,516.2z M406.1,519.5c3.1,2,6.6,3.5,10.5,4.7l-2-6.9L406.1,519.5z M433.6,524.8l-4.3-7.7
	l-6.3,8.4c2.5,0.4,5.1,0.6,7.9,0.6c0.9,0,1.8,0,2.8,0c0-0.1,0-0.1,0-0.1C433.7,525.6,433.7,525.2,433.6,524.8z M457.4,342.5
	c4.4-2.2,8.4-3.9,12.2-5.1c-1.5-3.4-2.2-6.6-2.2-9.6C463.9,332.6,460.5,337.5,457.4,342.5z M413.8,506.8
	C413.8,506.8,413.8,506.8,413.8,506.8c-1.9,1.2-3.2,1.8-4.1,2.2c-0.5,0.2-0.8,0.2-1.1,0.2c-0.1,0-0.3-0.1-0.4-0.1
	c-0.1-0.1-0.2-0.2-0.2-0.3c-0.1-0.2,0.1-0.5,0.2-0.8c0.2-0.3,0.4-0.7,0.7-1.1c0.7-0.8,1.7-1.8,3-2.9c0,0,0.1-0.1,0.1-0.1
	c0.2,0,0.2,0.2,0.1,0.3c-1.3,1.1-2.3,2.1-2.9,2.9c-0.3,0.4-0.6,0.7-0.7,1c-0.2,0.3-0.2,0.5-0.2,0.6c0,0.1,0,0.1,0.1,0.1
	c0.1,0,0.1,0.1,0.2,0.1c0.2,0,0.5-0.1,1-0.2c0.9-0.3,2.2-1,4-2.1c0,0,0,0,0.1,0c-1.4-2.4-2.6-5.1-3.5-8.1c-0.1-0.3-0.2-0.7-0.3-1
	l-8.3,18.1l15.5-4.7C415.8,509.6,414.8,508.3,413.8,506.8z M386.5,486.9c0.2,2,0.6,3.9,1,5.7h0c0.1,0,0.1,0,0.2,0.1l14.5,6.1
	c0.3,0.1,0.4,0.4,0.3,0.7l-6,11.5v0c1.3,1.6,2.7,3.1,4.3,4.5l8.7-18.8L386.5,486.9z M433.3,516.8c-1.2,0.1-2.3,0.1-3.3,0l3.6,6.5
	C433.5,521.1,433.4,519,433.3,516.8z M407.7,257c1.9-0.1,3.9-0.1,5.9,0c-2.4-0.6-4.6-1.3-6.8-2.1C407.2,255.7,407.5,256.3,407.7,257
	z M445,545.9c2.2-0.9,4.4-1.5,6.6-1.9c-6.3-6-8-11.5-8.5-16.6c-0.5-5.3,0.1-10.1-1.6-14.7c-0.1-0.1,0-0.2,0.2-0.2c0,0,0,0,0.1,0
	c4,1.1,9.2,1.7,14,3.1c4.4,1.3,8.6,3.2,11.2,6.7c0-1.9-0.2-3.8-0.4-5.6c-5.8-5.6-11.9-7.3-18-8.2c-5.7-0.9-11.2-1.1-16.1-3.3
	c2.5,7.3,1.9,14.3,2.4,20.9C435.3,532.8,437.1,539.3,445,545.9z M412.1,290.5c-1.8-0.2-3.2-0.7-4.2-1.4c-1-0.7-1.6-1.6-1.7-2.6
	c-0.3-2,1.3-4.1,4.6-5.5c2.4-1,5.9-1.6,10.3-1.4c1.3,0.1,2.6,0.2,4,0.4c-0.2-1-0.3-1.9-0.4-2.9c-0.4-3.1-0.5-6.3-0.5-9.5
	c-2.2-0.2-4.4-0.4-6.4-0.4c-9.5-0.1-16.5,2.2-21.2,5.5c-5.8,4.1-8.1,9.9-7.2,15.1c0.8,5.2,4.8,9.9,11.7,11.7
	c6.8,1.9,16.4,1,28.6-4.8c-1.1-2.3-2-4.8-2.7-7.3C420.5,290.2,415.6,290.9,412.1,290.5z M387.8,493.8c1.1,4.2,2.7,8.1,4.9,11.7
	c0.9,1.6,2,3.1,3.1,4.6l5.5-10.7L387.8,493.8z M393.4,259.4c0.6-0.2,1.1-0.4,1.7-0.5c-1.1-2.5-2.3-5-3.6-7.4
	C392.5,254.1,393.1,256.8,393.4,259.4z M388.6,244.4c2.6,4.6,5,9.5,7.2,14.3c3.3-0.8,6.9-1.4,10.9-1.6c-0.4-0.9-0.7-1.8-1.1-2.6
	C398.5,251.8,392.8,248.3,388.6,244.4z M419,512.6c-0.3-0.2-0.5-0.4-0.7-0.6l4.3,13.2l6.3-8.5C425.1,516.3,421.8,514.9,419,512.6z
	 M411.4,473.7c0.8-2,1.7-3.9,2.9-5.8c0,0-0.1,0-0.1,0c-3.3-2.5-5.6-4.7-7-6.3c-0.7-0.8-1.2-1.5-1.4-2.1c-0.3-0.6-0.3-1.1-0.1-1.4
	c0.3-0.4,0.7-0.5,1.4-0.4c0.6,0,1.4,0.2,2.5,0.6c2,0.7,4.8,2.2,8.3,4.4c0,0,0,0,0.1,0c1.6-2,3.4-3.9,5.3-5.7l-29.5-5.7L411.4,473.7z
	 M409.4,458.6c-1-0.4-1.8-0.6-2.4-0.6c-0.6,0-0.9,0.1-1.1,0.3c-0.1,0.2-0.1,0.6,0.1,1.1c0.2,0.5,0.7,1.2,1.4,2
	c1.4,1.6,3.7,3.7,7,6.2c0,0,0,0,0,0.1c0.5-0.8,1-1.7,1.6-2.5c0.5-0.7,1.1-1.5,1.6-2.2c0,0,0,0,0,0
	C414.2,460.8,411.4,459.3,409.4,458.6z M453.1,409.4c-5.6,0.7-11.3,1.9-17.1,3.6c-1.5,0.5-3,1-4.5,1.5l12.7,13.4L453.1,409.4z
	 M428.1,432.5c-0.3-0.3-0.6-0.5-0.8-0.6c-0.2-0.1-0.3-0.1-0.4-0.1c-0.1,0-0.1,0-0.1,0c-0.1,0-0.2,0.1-0.3,0.3
	c-0.1,0.2-0.1,0.5-0.1,1c0,0.8,0.2,2.1,0.6,3.6c0.8,3.1,2.5,7.7,5.1,13.6c1.5-0.9,3.1-1.7,4.7-2.5c-2.5-5.6-4.8-9.8-6.5-12.5
	C429.5,434.1,428.8,433.1,428.1,432.5z M393,451.5c-0.8,1.8-1.6,3.6-2.4,5.5c0,0,0,0,0,0l11.4,14.4c0.2,0.3,0.1,0.7-0.2,0.8l-15.7,7
	c0,0-0.1,0.1-0.1,0.1c0,2.1,0.1,4.3,0.3,6.4l24.5-11.5L393,451.5z M403.9,484.2c-1.4,0-2.6,0.1-3.5,0.3c-1,0.2-1.7,0.4-2.2,0.7
	c-0.5,0.3-0.7,0.6-0.8,0.8c0,0.3,0.1,0.5,0.5,0.8c0.4,0.3,1.1,0.6,2,0.8c1.8,0.5,4.7,0.7,8.7,0.4c0.1,0,0.1,0,0.2,0.1
	c0-1.2,0.1-2.4,0.2-3.6c0,0-0.1,0-0.1,0C406.9,484.3,405.3,484.2,403.9,484.2z M409.5,496c-0.6-2.6-0.8-5.1-0.9-7.6
	c0,0.1-0.1,0.1-0.1,0.1c-4,0.3-6.9,0.1-8.8-0.4c-1-0.2-1.6-0.5-2.1-0.9c-0.5-0.3-0.7-0.7-0.6-1.2c0.1-0.4,0.4-0.8,1-1.1
	c0.5-0.3,1.3-0.5,2.3-0.7c1-0.2,2.2-0.3,3.6-0.3c1.4,0,3,0.1,4.9,0.4c0,0,0.1,0,0.1,0c0.3-3.2,1.1-6.3,2.2-9.3l-24.1,11.3L409.5,496
	z M463.1,408.7c-2.9,0.1-5.8,0.3-8.8,0.6c0,0.1,0,0.1-0.1,0.2l-9.4,19.6c-0.2,0.3-0.6,0.4-0.8,0.1L430.4,415
	c-3.1,1.2-6.1,2.7-8.9,4.4l26.1,24.5L463.1,408.7z M420.6,420c-2.1,1.3-4.1,2.7-6.1,4.2c0,0.1,0,0.1,0,0.2l1.4,22.9
	c0,0.3-0.3,0.6-0.6,0.5l-18.6-3.3c-1.2,2-2.3,4-3.3,6.1l30,5.8L420.6,420z M390.2,458.2c-0.6,1.5-1.1,3.1-1.6,4.6
	c-1.5,5.1-2.4,10.3-2.5,15.4l14.7-6.6L390.2,458.2z M413.5,425c-6.4,5.2-11.8,11.5-16.2,18.5l17.6,3.2L413.5,425z M431.9,450.6
	c-2.7-6-4.3-10.6-5.2-13.7c-0.4-1.6-0.6-2.8-0.6-3.7c0-0.4,0.1-0.8,0.1-1.1c0.1-0.3,0.3-0.5,0.5-0.6c0.2-0.1,0.5,0,0.7,0.1
	c0.3,0.1,0.6,0.4,0.9,0.7c0.6,0.6,1.4,1.6,2.3,3c1.8,2.7,4,6.9,6.6,12.5c2.2-1,4.4-1.8,6.7-2.5c1-0.3,2.1-0.6,3.1-0.8l-25.8-24.2
	l2.9,36C426.5,454.1,429.2,452.2,431.9,450.6z M411,281.4c-3.1,1.3-4.5,3.3-4.3,5c0.1,0.8,0.6,1.6,1.5,2.3c0.9,0.7,2.2,1.2,3.9,1.4
	c3.3,0.4,8.2-0.3,14.6-3c-0.6-2.2-1.2-4.4-1.5-6.6c-2.3-0.3-4.4-0.5-6.3-0.4C415.6,280,413,280.6,411,281.4z M411.3,395.9
	c3.5,5.6,6.4,11.5,8.7,17.8c2.6-1.2,5.2-2.4,8-3.5c-2.3-6.6-5.2-12.9-8.7-18.9L411.3,395.9z M419.5,391c3.5,6,6.4,12.3,8.7,19
	c1.1-0.4,2.2-0.9,3.3-1.3c0.1,0,0.1,0,0.2,0c0,0,0,0,0,0c1.4-0.6,2.9-1.1,4.3-1.6c-2.5-7.1-5.6-13.9-9.4-20.3L419.5,391z
	 M404.3,422.1c2.2-1.4,4.6-2.8,7-4.1c-7.3-18.9-20.7-34.9-37.7-45.6v10.3C387.2,392.5,397.9,406.2,404.3,422.1z M436.5,407
	c2.6-0.9,5.4-1.7,8.2-2.3c-2.7-7.8-6.2-15.2-10.4-22.2l-7.2,4.2C430.8,393.1,434,399.9,436.5,407z M403.7,400.2
	c3.5,5.4,6.4,11.1,8.8,17.1c2.3-1.2,4.7-2.4,7.1-3.6c-2.3-6.2-5.2-12.2-8.6-17.8L403.7,400.2z M462.7,351.3c-1.6-3-3.7-5.4-6.6-6.7
	c-6,10-11,20.6-15,31.6c2.5,4.1,4.8,8.4,6.9,12.7c3.6-12.9,8.8-25.5,15.3-36.7C463.1,351.9,462.9,351.6,462.7,351.3z M445.4,352.5
	c-1.7,0.8-3.5,1.4-5.3,1.8c-0.2,6.5-0.8,12.4-1.4,18.2c0.5,0.7,1,1.5,1.5,2.3c1.5-4,3.1-8,4.9-12
	C445.4,359.5,445.4,356.2,445.4,352.5z M421.3,377.8l6.8-4.6c-8.3-11.5-18.7-21.5-30.5-29.5l-4.7,6.2
	C403.9,357.5,413.5,367,421.3,377.8z M403.3,399.5l30.5-17.8c-1.6-2.7-3.3-5.3-5.2-7.8l-29.5,19.9
	C400.6,395.6,402,397.5,403.3,399.5z M428.5,378c0.8,0,1.5,0.7,1.5,1.5c0,0.8-0.7,1.5-1.5,1.5c-0.8,0-1.5-0.7-1.5-1.5
	C426.9,378.7,427.6,378,428.5,378z M424,380.9c0.8,0,1.5,0.7,1.5,1.5c0,0.8-0.7,1.5-1.5,1.5c-0.8,0-1.5-0.7-1.5-1.5
	C422.5,381.6,423.1,380.9,424,380.9z M419.1,383.8c0.8,0,1.5,0.7,1.5,1.5c0,0.8-0.7,1.5-1.5,1.5c-0.8,0-1.5-0.7-1.5-1.5
	C417.6,384.5,418.3,383.8,419.1,383.8z M414.3,386.9c0.8,0,1.5,0.7,1.5,1.5c0,0.8-0.7,1.5-1.5,1.5c-0.8,0-1.5-0.7-1.5-1.5
	C412.8,387.6,413.4,386.9,414.3,386.9z M409.2,390.1c0.8,0,1.5,0.7,1.5,1.5c0,0.8-0.7,1.5-1.5,1.5c-0.8,0-1.5-0.7-1.5-1.5
	C407.7,390.8,408.4,390.1,409.2,390.1z M404.3,393.2c0.8,0,1.5,0.7,1.5,1.5c0,0.8-0.7,1.5-1.5,1.5c-0.8,0-1.5-0.7-1.5-1.5
	C402.8,393.9,403.5,393.2,404.3,393.2z M414.1,382.7l7-4.7c-7.8-10.8-17.3-20.2-28.3-27.8l-5,6.6C398,363.9,406.9,372.7,414.1,382.7
	z M406,388.1l7.8-5.2c-7.2-10-16.1-18.7-26.2-25.8l-5.9,7.9C391,371.3,399.3,379.2,406,388.1z M398.6,393.1l7.1-4.8
	c-6.8-8.9-15-16.7-24.3-23l-5.3,7.1C384.7,378,392.3,385.1,398.6,393.1z M381.6,316.3c0.5-4.2,2.6-7.1,5.4-8.7
	c-3.2-1.5-5.9-3.6-8.1-5.9c1.6,7.5,2.5,15,2.8,22.6c0.9,0.4,1.7,0.8,2.6,1.2C382.5,323.1,381.2,319.8,381.6,316.3z M422.8,309.1
	c-0.2-0.8-0.4-1.6-0.7-2.4c-3.7,1.5-7.3,2.5-10.7,3.2c0.8,5,1.3,9.7,1.6,14.5C414.8,319.5,417.9,314.4,422.8,309.1z M439.7,325
	c-0.5,1.3-0.8,2.4-0.7,3.3c0.1,0.9,0.4,1.6,0.8,2c0.5,0.4,1.1,0.6,2,0.5c0.8-0.2,1.8-0.6,3-1.5c2.2-1.7,4.7-4.9,7.1-10
	c-1.7-1-3.3-2-4.8-3.1C443,319.4,440.7,322.6,439.7,325z M409.8,341.2c0.7,0.6,1.5,1.2,2.2,1.8c0.1-1.2,0.3-2.3,0.3-3.6
	c-0.3-1.2-0.6-2.5-0.7-3.8C411.2,337.6,410.6,339.5,409.8,341.2z M401.6,328.6c6.5-3.5,8.8-10.6,8.6-18.4c-3.1,0.5-6,0.8-8.7,0.7
	c0.6,0.9,1.1,2,1.5,3.2c0.7,2.4-0.1,5.2-1.7,7.2c-1.7,2-4.4,3.1-7.5,2.2c-2.4-0.7-4-2.7-4.3-4.8c-0.3-2.1,0.6-4.3,3.1-5.3
	c1.8-0.7,3.5,0.2,4.2,1.4c0.4,0.7,0.5,1.6,0.1,2.3c-0.4,0.7-1.1,1.3-2.1,1.6c-0.2,0.1-0.3-0.3-0.1-0.3c1-0.3,1.6-0.8,1.9-1.4
	c0.3-0.6,0.3-1.4-0.1-2c-0.6-1-2.2-1.8-3.8-1.2c-2.4,0.9-3.2,2.9-2.9,4.9c0.3,2,1.7,3.9,4.1,4.5c3,0.9,5.5-0.2,7.2-2.1
	c1.6-1.9,2.3-4.6,1.7-6.9c-0.4-1.3-0.9-2.4-1.5-3.3c-2.2-0.1-4.4-0.3-6.4-0.7c-2.6-0.5-5-1.3-7.2-2.4c-2.8,1.5-5,4.4-5.5,8.6
	c-0.4,3.6,1,7,3.2,9.5c2.9,1.4,5.7,2.8,8.4,4.4C396.1,330.5,399.1,330,401.6,328.6z M428.1,304c-1.7,0.8-3.4,1.6-5,2.3
	c0.2,0.7,0.4,1.3,0.5,2C425,306.9,426.5,305.4,428.1,304z M426.1,328.9c-1,5.6,1,9.9,4.6,12.2c3.6,2.3,8.9,2.5,14.3-0.3
	c5.3-2.7,10.8-8.3,15.1-17.6c-2.8-1.1-5.4-2.3-7.9-3.7c-2.4,5.2-4.9,8.4-7.2,10.2c-1.2,0.9-2.2,1.4-3.2,1.6c-1,0.2-1.8,0-2.4-0.6
	c-0.6-0.5-1-1.3-1-2.3c-0.1-1,0.2-2.2,0.7-3.6c1.1-2.6,3.4-5.7,7.3-8.9c-2.6-1.9-5-4.1-7.1-6.4C431.1,316.6,427.1,323.4,426.1,328.9
	z M452.5,348.2c-2.2,1.7-4.4,3.1-6.7,4.2c0,3.4,0,6.5-0.3,9.5C447.6,357.2,450,352.6,452.5,348.2z M410.5,310.1
	c0.3,7.9-2.1,15.2-8.7,18.8c-2.3,1.3-5.1,1.8-7.5,1.7c5.4,3.1,10.5,6.5,15.4,10.3c0.8-1.9,1.5-4.2,2-6.4c-0.2-2.6,0.1-5.3,0.9-8.2
	c-0.2-5.4-0.8-10.7-1.7-16.3C410.7,310.1,410.6,310.1,410.5,310.1z M454.3,345c4-6.8,8.3-13.2,13-19.3l0.1,0.1c0-0.1,0-0.2,0-0.3
	c-2.4-0.6-4.8-1.3-7-2.1c-4.3,9.4-9.9,15-15.3,17.8c-5.5,2.8-10.9,2.6-14.6,0.3c-3.8-2.3-5.8-6.9-4.8-12.6c1-5.6,5.1-12.4,13.4-19.6
	c-2.2-2.4-4.2-5.1-6-7.9c-11.3,8.6-17.2,17.2-19.4,24.8c-2.2,7.7-0.7,14.5,3.1,19.4C424.5,355.4,440.9,357.8,454.3,345z
	 M430.5,354.7c0,2.2-0.1,4.6-0.3,6.3c3,3.5,5.7,7.2,8.2,11.1c0.6-5.6,1.2-11.4,1.3-17.7C436.6,355.1,433.4,355.1,430.5,354.7z
	 M412.7,343.5c1,0.8,2,1.7,3,2.6c-1.1-1.5-2.1-3.2-2.7-5C412.9,341.8,412.8,342.6,412.7,343.5z M429.2,359.8
	c0.1-1.6,0.2-3.5,0.2-5.3c-3-0.6-5.7-1.7-8.1-3.2C424.1,354,426.7,356.9,429.2,359.8z M460,528.8c-2.4-1.1-5.2-2.2-8.6-5.4
	c0.3,7.4,1.7,14.4,8.5,20.2c2.1,0.1,4.2,0.3,6.3,0.7c-0.2-3.1-0.1-6.3,0.1-9.6c0-0.3,0-0.6,0.1-1C464.4,530.8,462.4,529.8,460,528.8
	z M396.9,343.2c-3.1-2.1-6.4-4.1-9.7-5.9l-13.6,22.6v5.7c0,0,0,0,0.1,0c0.2-0.1,0.4-0.1,0.6-0.1c0.6,0,1.2,0.4,1.4,0.9
	c0.3,0.8,0,1.7-0.8,2c-0.4,0.2-0.9,0.2-1.3,0v2.4c0.6,0.4,1.2,0.7,1.8,1.1L396.9,343.2z M389.7,342c0.2-0.1,0.4-0.1,0.6-0.1
	c0.6,0,1.2,0.3,1.4,0.9c0.4,0.8,0,1.7-0.8,2c-0.8,0.4-1.7,0-2-0.8C388.5,343.2,388.9,342.3,389.7,342z M386.7,346.4
	c0.2-0.1,0.4-0.1,0.6-0.1c0.6,0,1.2,0.4,1.4,0.9c0.3,0.8,0,1.7-0.8,2c-0.8,0.3-1.7,0-2-0.8C385.6,347.7,385.9,346.8,386.7,346.4z
	 M383.5,351c0.2-0.1,0.4-0.1,0.6-0.1c0.6,0,1.2,0.4,1.4,0.9c0.4,0.8,0,1.7-0.8,2c-0.8,0.3-1.7,0-2-0.8
	C382.3,352.3,382.7,351.4,383.5,351z M380.3,355.9c0.2-0.1,0.4-0.1,0.6-0.1c0.6,0,1.2,0.3,1.4,0.9c0.3,0.8,0,1.7-0.8,2
	c-0.8,0.4-1.7,0-2-0.8C379.1,357.1,379.5,356.2,380.3,355.9z M376.9,360.8c0.2-0.1,0.4-0.1,0.6-0.1c0.6,0,1.2,0.3,1.4,0.9
	c0.3,0.8,0,1.7-0.8,2c-0.8,0.4-1.7,0-2-0.8C375.8,362,376.1,361.1,376.9,360.8z M398.1,560.7l2.3,3.8c-0.4-2.9-1.1-5.7-2.1-8.4
	l-0.4,2.8C398,559.5,398,560.1,398.1,560.7z M373.6,321v0.1c0,0,0,0,0,0C373.6,321.1,373.6,321,373.6,321z M386.4,336.9
	c-4.1-2.2-8.4-4.2-12.8-5.9v8.1c3,1.3,6,2.8,8.9,4.4L386.4,336.9z M431.7,506.6v-0.1c-0.2-0.7-0.5-1.5-0.7-2.3
	c-0.1-0.3,0.1-0.7,0.5-0.7c0.1,0,0.2,0,0.3,0.1c0.6,0.3,1.3,0.6,2,0.9h0.1c0.5,0,1,0.2,1.4,0.5c2,0.6,4.1,1,6.4,1.3
	c0.7-2.3,0.6-4.8-0.5-6.6c-0.9-1.4-2.5-2.3-4.3-2.2c-1.8,0.1-3.8,1.1-5.4,3.8l-0.2-0.1c-0.1,0.2-0.4,0.2-0.5,0l-0.2,0.1
	c-2.9-6.4-0.8-12.3,3.4-15.9c2.6-2.3,6.2-3.6,9.9-3.6c2.1,0,4.2,0.4,6.3,1.3c3.4-6,8-11.7,11.8-17.5c-2.4-0.3-4.9-0.5-7.3-0.5
	c-7.9,0.1-15.4,1.9-21.7,5.3c-8.4,4.6-14.5,11.9-16.1,21.7c-0.7,4,0.1,9.4,2.7,13.7c2.6,4.2,6.8,7.2,13.4,6.7
	c-0.2-1.5-0.5-3.1-0.8-4.6C431.8,507.5,431.7,507,431.7,506.6z M436.8,500.5c1,0,1.7,0.8,1.7,1.7s-0.8,1.7-1.7,1.7
	c-1,0-1.7-0.8-1.7-1.7S435.8,500.5,436.8,500.5z M447,470.4c2.4,0,4.3,1.9,4.3,4.2c0,2.3-1.9,4.2-4.3,4.2c-2.3,0-4.2-1.9-4.2-4.2
	C442.7,472.3,444.6,470.4,447,470.4z M434.1,473.8c2.2,0,3.9,1.7,3.9,3.9c0,2.2-1.7,3.9-3.9,3.9c-2.2,0-3.9-1.7-3.9-3.9
	C430.2,475.5,431.9,473.8,434.1,473.8z M420.1,497c0-1.6,1.4-3,3-3c1.6,0,3,1.4,3,3c0,1.7-1.4,3-3,3
	C421.5,500,420.1,498.6,420.1,497z M426.2,507.5c-1.3,0-2.4-1.1-2.4-2.4c0-1.3,1.1-2.4,2.4-2.4c1.3,0,2.4,1.1,2.4,2.4
	C428.6,506.4,427.5,507.5,426.2,507.5z M425.3,490c-1.9,0-3.5-1.6-3.5-3.5c0-1.9,1.6-3.5,3.5-3.5c1.9,0,3.5,1.6,3.5,3.5
	C428.8,488.4,427.2,490,425.3,490z M382.3,343.8c-2.8-1.5-5.7-3-8.7-4.3v9c1.5,0.7,3,1.5,4.5,2.3L382.3,343.8z M401.9,554.2
	c-1.1-0.3-2.2-0.6-3.2-1c0.4,0.9,0.7,1.9,1.1,2.8C400.4,555.3,401.1,554.7,401.9,554.2z M379.1,387.9l-2.1,2.5
	c0.4,1.9,0.5,4,0.3,6.2c-0.3,2.7-1.2,5.5-2.7,8.4l10.9-10.9C383.5,391.9,381.3,389.8,379.1,387.9z M402.6,423.2
	c0.4-0.3,0.8-0.5,1.2-0.7c-0.5-1.3-1.1-2.6-1.6-3.9C402.4,420.1,402.6,421.6,402.6,423.2z M391.5,401l-8.6,7c4.1-0.5,7.6-0.1,10.5,1
	c0.4,0.1,0.7,0.3,1,0.4l2.1-1.4C394.9,405.7,393.3,403.4,391.5,401z M394.8,409.7c2,1,3.6,2.4,4.9,4c-1-1.8-2-3.6-3-5.3L394.8,409.7
	z M373.6,348.9v9.3l4.3-7.1C376.5,350.4,375.1,349.6,373.6,348.9z M371.8,237.3c-2-3.9-5.5-5.7-9-5.8c-0.2,0-0.5,0-0.7,0
	c-3.6,0.2-7.2,2.2-8.9,5.7c2.8,0.5,5.6,1,8.4,1.4c0.7-0.5,1.4-0.7,2.1-0.7c1.2,0,2.2,0.5,2.7,1.4c1.6,0.2,3.2,0.3,4.8,0.4
	c0.3,0,0.5,0.3,0.4,0.6c-1.2,2.4-2.3,4.7-3.2,7C372.1,245.8,373.5,240.8,371.8,237.3z M349.5,237.6c2.6,1.1,5.4,2.6,8.5,4.6
	c2.9,1.9,5.6,4.7,8,8.4c1.3-3.2,2.7-6.5,4.4-10C363.6,240.2,356.5,238.6,349.5,237.6z M377.7,233c-0.3-1.2-0.8-2.5-1.3-3.7
	c-5.4-0.8-10.3-1.6-14.6-2.3c-0.4,0.8-0.9,1.5-1.5,2.2c-5,6.2-13.6,6.6-19.1,2.5c0.1,0.2,0.1,0.4,0.2,0.6c1.1,1.1,2.1,2.2,3.1,3.3
	c0.5,0.3,1,0.5,1.5,0.7c0.5,0,1,0.1,1.4,0.2c1.7,0.2,3.4,0.5,5.2,0.7c1.8-3.6,5.5-5.8,9.2-6c3.9-0.2,7.8,1.7,10,6
	c1.9,3.7,0.2,9.1-4.1,10.7c-0.5,1.2-1,2.4-1.4,3.6c0.6,0.9,1.1,1.9,1.7,3c1.9-0.5,3.7-1.4,5.4-2.7
	C379.1,247.1,379.7,240.2,377.7,233z M380.7,323.9c-0.3-8-1.3-15.9-3.2-23.8c-1.2-1.5-2.2-3.2-3.1-4.9c-0.3,0.4-0.6,0.8-0.9,1.1
	v17.8c0.3,2.4,0.6,4.8,0.7,7.2C376.5,322.2,378.6,323,380.7,323.9z M362.1,238.8c1.3,0.2,2.5,0.4,3.8,0.5c-0.5-0.6-1.3-1-2.2-1
	C363.1,238.3,362.6,238.5,362.1,238.8z M373.8,289.6c1.5,0.3,3,0.5,4.7,0.6c0.4,0.1,0.5,0.5,0.2,0.8c-1.3,1-2.4,2-3.4,3.2
	c3.2,7.1,9.8,12.9,19.6,14.8c9.7,2,22.5,0,37.6-8.7c-1-1.7-1.9-3.4-2.7-5.2c-12.2,5.8-21.9,6.7-28.8,4.8c-7-1.9-11.1-6.7-12-12
	c-0.8-5.3,1.5-11.3,7.4-15.4c4.4-3.1,10.8-5.3,19.2-5.6c2.6-0.1,5.5,0,8.5,0.4c0.1-2.6,0.2-5.3,0.6-8c-4.9-0.7-9.4-1.1-13.5-1.1
	c-12.8-0.1-22.1,3.1-28.3,7.8c-5.5,4.2-8.5,9.7-9.4,15.4c0,1.1,0,2.2,0,3.4v3.7C373.7,288.8,373.7,289.2,373.8,289.6L373.8,289.6z
	 M374.6,252.7c1.2-0.3,2.3-0.4,3.5-0.3c3.5,0.3,7,2.3,8.9,6.4c0.4,0.9,0.6,1.9,0.6,2.9c1.7-0.8,3.5-1.6,5.4-2.2
	c-0.3-3.6-1.5-7.5-3.2-11.3c-1-1.8-2-3.6-3-5.4c-0.3-0.3-0.6-0.6-0.9-0.9c-3.1-3.4-5.1-7-6.3-10.7c-0.3-0.5-0.7-1-1-1.5
	c-0.6-0.1-1.2-0.2-1.8-0.3c0.5,1.2,0.9,2.4,1.2,3.6c2,7.2,1.4,14.3-4.2,19c-1.7,1.4-3.5,2.3-5.4,2.8c0.2,0.4,0.4,0.7,0.5,1.1
	c0,0.1,0.1,0.1,0.1,0.2C370.5,254.3,372.5,253.2,374.6,252.7z M377.5,291c-1.4-0.2-2.6-0.4-3.8-0.6v4.6
	C374.7,293.5,376,292.2,377.5,291z M377.9,269.1c-2-0.7-3.3-2.4-3.7-4.2c-0.5-1.9,0.2-4,2.4-5.3c0.4-0.2,0.8-0.4,1.3-0.4
	c1.3-0.2,2.5,0.4,3.1,1.2c0.5,0.7,0.7,1.5,0.4,2.3c-0.2,0.8-0.8,1.5-1.8,1.9c-0.2,0.1-0.3-0.2-0.1-0.3c0.9-0.4,1.4-1,1.6-1.7
	c0.2-0.7,0.1-1.4-0.4-2c-0.7-0.9-2.4-1.5-3.9-0.6c-2.1,1.2-2.7,3.1-2.2,4.9c0.4,1.7,1.7,3.3,3.6,4c1.2-1.4,2.6-2.7,4.1-3.9
	c1.5-1.2,3.2-2.2,5-3.1c0-1-0.2-2-0.6-3c-2-4.3-5.7-6.2-9.5-6.2c-0.8,0-1.7,0.1-2.5,0.3c-2.1,0.5-4,1.7-5.5,3.3
	c2.1,4.5,3.4,10.6,4,18.1c0.3,0.2,0.7,0.3,1,0.5C375.1,272.9,376.3,270.9,377.9,269.1z M373.3,274.8c0.1,0.7,0.1,1.4,0.1,2.1
	c0.2-0.6,0.4-1.2,0.7-1.8C373.8,275.1,373.5,275,373.3,274.8z M445.6,404.4c2.3-0.5,4.6-1,7.1-1.3c-1.4-4.3-3.1-8.5-4.9-12.5
	c-0.1-0.1-0.1-0.2-0.1-0.3c-2.3-5-4.9-9.9-7.8-14.5c-3.1-5-6.6-9.8-10.3-14.3c-0.2-0.1-0.3-0.2-0.4-0.4
	c-12.8-15.4-29.2-27.8-47.8-35.9c-0.2,0.1-0.4-0.1-0.5-0.2c-2.4-1-4.8-2-7.2-2.9v7.9C407.3,343.1,433.8,370.4,445.6,404.4z
	 M390.7,585l9-3c0-0.1,0-0.1,0-0.1c0-0.2,0.1-0.4,0.1-0.6l-3-7.5C395.5,578.1,393.4,581.8,390.7,585z M397.2,572.2
	c-0.1,0.3-0.1,0.5-0.2,0.8l3,7.4c0.8-4.4,1-8.7,0.7-12.8L397.2,572.2z M398,555.3c-0.1-0.4-0.3-0.7-0.4-1.1l-0.7,0.3
	c0.3,1.1,0.6,2.2,0.8,3.2L398,555.3z M455.6,515.8c-4.7-1.3-9.7-1.9-13.7-3c1.6,4.7,1,9.4,1.5,14.5c0.5,5.1,2.3,10.6,8.6,16.6
	c2.4-0.4,4.8-0.5,7.1-0.5c-6.7-6-8-13.3-8.2-20.8c0-0.1,0.1-0.3,0.3-0.3c0.1,0,0.1,0,0.2,0.1c3.5,3.5,6.4,4.7,8.9,5.8
	c2.2,1,4.3,1.9,6.2,4.5c0.2-3.3,0.4-6.7,0.4-10C464.3,519.1,460.1,517.1,455.6,515.8z M400.6,566.8c-0.1-0.5-0.1-1-0.2-1.5l-2.3-3.9
	c0.2,3.2,0,6.4-0.6,9.5L400.6,566.8z M446,493c-1.6-0.8-3.4-1.3-5.1-1.3c-1.5,0-2.9,0.3-4.2,0.9c-2.6,1.2-4.6,3.5-5.4,6.8
	c1.6-2,3.5-2.9,5.3-3c2.2-0.1,4.1,1,5.2,2.7c1.3,2.1,1.4,4.8,0.6,7.3c1.3,0.2,2.7,0.3,4.1,0.5C445,502,445,497.4,446,493z
	 M354.7,225.8c-1,0.8-2.3,1.4-3.9,1.6c-2.2,0.2-4.2-0.7-5.4-2.2c-0.9,0.2-1.8,0.6-2.7,1c-1.6,0.9-2.1,2.4-1.7,4.6
	c0,0.1,0.1,0.2,0.1,0.3c5.3,4.3,14,4,19-2.2c0.5-0.7,1-1.4,1.4-2.1c-0.1,0-0.1,0-0.2,0C358.8,226.5,356.6,226.1,354.7,225.8z
	 M437,566.1c0.7,3.8,0.4,7.6-0.7,10.5c2.7-0.8,5.6-1.3,8.7-1.7c2.1-3.9,2.6-8.2,1.7-12.3c-1.9-3.2-3.7-6.2-6.5-8.6
	c-2.8,0.7-5.5,1.3-8.2,1.7C434.6,558.5,436.3,562.3,437,566.1z M436.6,566.1c-0.7-3.9-2.4-7.6-5.2-10.3c-10.3,1.6-20.2,0.9-29.1-1.5
	c-0.9,0.6-1.6,1.3-2.4,2.1c0.7,2.1,1.2,4.2,1.6,6.3c3.6-3.3,7.6-4.7,11.5-4.8c5.4-0.1,10.3,2.4,13,6c3.5,4.9,3.8,11.8-0.5,16.9
	c3.3-1.6,6.7-3,10.4-4.1C437,573.8,437.3,570,436.6,566.1z M445.3,574.8c1.7-0.2,3.5-0.3,5.4-0.3c1.2,0,2.3,0,3.5,0.1
	c0.5,0,1,0.1,1.5,0.1c-3.6-2.8-5.8-6.2-7.8-9.6c-0.3-0.5-0.6-1-0.9-1.5C447.7,567.3,447.2,571.2,445.3,574.8z M383,534.5
	c-0.2-0.2-0.5-0.4-0.7-0.5l-0.9,1.3c1.3,0.8,2.6,1.6,3.8,2.5l0.7-0.8C384.9,536.2,384,535.3,383,534.5z M465.1,427.4
	c-0.3-1.6-0.6-2.8-1-3.6c-0.2-0.4-0.4-0.7-0.5-0.8c-0.2-0.2-0.3-0.2-0.4-0.2c-0.2,0-0.3,0.1-0.5,0.3c-0.2,0.2-0.4,0.5-0.6,0.9
	c-0.4,0.8-0.7,2.1-1.1,3.7c-0.6,3.3-1.1,8.2-1.2,14.7c2-0.1,4-0.2,5.9-0.2C466,435.6,465.6,430.7,465.1,427.4z M389.7,541.1
	l-0.4,0.4c1.1,1.1,2.1,2.3,2.9,3.5l0.3-0.2C391.7,543.5,390.7,542.3,389.7,541.1z M386.1,537.3l-0.6,0.8c1.3,1,2.5,2.1,3.6,3.2
	l0.4-0.4C388.4,539.6,387.3,538.4,386.1,537.3z M378,531l-1.1,2.1c1.4,0.6,2.8,1.3,4.2,2.1l0.9-1.4C380.7,532.8,379.4,531.9,378,531
	z M434.5,486c-3.8,3.2-5.7,8.1-3.7,13.7c0.7-3.7,2.9-6.3,5.8-7.6c1.6-0.7,3.3-1.1,5-1c1.6,0.1,3.1,0.5,4.6,1.2c0.7-3,2-5.9,3.5-8.7
	c-2-0.8-4-1.2-5.9-1.2C440.3,482.7,437,483.9,434.5,486z M392.8,545.1l-0.3,0.2c0.9,1.3,1.7,2.6,2.4,4l0.3-0.2
	C394.5,547.7,393.6,546.4,392.8,545.1z M395.4,549.4l-0.4,0.2c0.7,1.5,1.3,3,1.8,4.5l0.7-0.3C396.8,552.4,396.2,550.9,395.4,549.4z
	 M372.9,367.6c0.1,0.3,0.4,0.6,0.7,0.7v-2.7C372.9,366,372.6,366.9,372.9,367.6z"/>
</svg>
