<?xml version="1.0" encoding="utf-8"?>
<!-- Generator: Adobe Illustrator 24.3.0, SVG Export Plug-In . SVG Version: 6.00 Build 0)  -->
<svg version="1.1" id="Mandala_Letter" xmlns="http://www.w3.org/2000/svg" xmlns:xlink="http://www.w3.org/1999/xlink" x="0px"
	 y="0px" width="828px" height="828px" viewBox="0 0 828 828" style="enable-background:new 0 0 828 828;" xml:space="preserve">
<style type="text/css">
	.st0{fill:none;stroke:#000000;stroke-miterlimit:10;}
</style>
<path class="st0" d="M0.1,827V0h827.3v827.3H0.1v-0.2 M608.6,596.1c2,0,4-0.6,5.8-1.9c1.4-1,2.9-2.9,2.2-6.4
	c-0.5-2.7-2.7-4.8-6.5-6.3c-3.2-1.3-7-3.2-11.1-5.6c-3.9-2.3-7.4-6.6-10.4-13c-3-6.4-4.5-16.1-4.5-28.6v-235
	c0-12.6,2.1-22.8,6.2-30.6c4.1-7.8,9-13.9,14.6-18.1c5.7-4.4,10.9-7.9,15.4-10.5c5.1-2.9,7.8-5.8,8.3-8.9c0.7-3.5-0.9-5.3-2.3-6.1
	c-1.8-1-3.9-1.5-6.3-1.5c-1.2,0-4.4,0.4-17.9,4c-9.8,2.6-21.2,3.9-33.8,3.9c-11.8,0-22.8-1.3-32.8-3.9c-10.4-2.7-16.6-4-18.9-4
	c-2,0-3.9,0.5-5.7,1.5c-1.5,0.8-3,2.6-2.3,6c0.5,3.1,3.1,6,7.9,8.9c4.3,2.6,9.4,6.2,15.1,10.5c5.6,4.3,10.5,10.4,14.6,18.1
	c4.1,7.7,6.2,18,6.2,30.6v217.3L355,223.6H234.1c-3.5,0-5.8,0.8-7.1,2.4c-1.1,1.3-1.3,3.1-0.9,5.1c0.5,3.2,3.1,5.5,7.6,6.7
	c8.4,2.3,15.4,10.2,19.5,17.7c1.3,2.5,2.1,5.4,2.7,8.1c1.6,6.9,2.1,14,2.1,21c0,0,0,235,0,235c0,12.5-2.1,22.8-6.1,30.6
	c-4.1,7.8-9,14-14.6,18.5c-5.6,4.6-10.7,8.2-15.1,10.9c-4.8,2.9-7.4,5.6-7.9,8.2c-0.7,3.5,0.8,5.4,2.2,6.4c1.8,1.3,3.7,1.9,5.8,1.9
	c0.7,0,2.9,0,18-4.4c9.8-2.8,21.2-4.3,33.8-4.3c12.2,0,23.5,1.4,33.5,4.3c15.4,4.4,17.6,4.4,18.3,4.4c2,0,4.1-0.6,6-1.9
	c2.2-1.4,3.2-3.6,2.6-6.4c-0.5-2.6-3.2-5.3-8.3-8.2c-4.6-2.6-9.8-6.3-15.4-10.8c-5.6-4.5-10.5-10.7-14.6-18.5
	c-4.1-7.7-6.1-18-6.1-30.6V304.5l196.4,291.6H608.6z M582.7,534.4c0,12.8,1.5,22.6,4.6,29.2c3.1,6.6,6.7,11.2,11,13.6
	c4.2,2.4,8,4.3,11.3,5.6c3.3,1.3,5.2,3.1,5.6,5.3c0.4,2.2-0.1,3.9-1.7,5c-1.6,1.1-3.2,1.7-5,1.7H487.1L288.6,300v219.7
	c0,12.8,2.1,23.2,6.3,31.2c4.2,8,9.2,14.3,14.9,18.9c5.7,4.7,11,8.3,15.6,11c4.6,2.7,7.2,5.1,7.6,7.3c0.4,2.2-0.2,3.9-2,5
	c-1.8,1.1-3.5,1.7-5.3,1.7c-1.8,0-7.7-1.4-17.9-4.3c-10.2-2.9-21.5-4.3-33.9-4.3c-12.8,0-24.2,1.4-34.2,4.3
	c-10,2.9-15.8,4.3-17.6,4.3c-1.8,0-3.4-0.5-5-1.7c-1.6-1.1-2.1-2.8-1.7-5c0.4-2.2,2.9-4.6,7.3-7.3c4.4-2.7,9.5-6.3,15.3-11
	c5.7-4.6,10.7-11,14.9-18.9c4.2-8,6.3-18.4,6.3-31.2v-235c0-13.3-1.8-23.5-5.3-30.5c-3.7-7.4-11.8-15.4-19.9-17.6
	c-4-1.1-6.2-3-6.6-5.6c-0.9-4,1.3-6,6.6-6h120.2l199.2,296.1V299.3c0-12.8-2.1-23.2-6.3-31.2c-4.2-8-9.2-14.2-14.9-18.6
	c-5.8-4.4-10.8-8-15.3-10.6c-4.4-2.7-6.9-5.3-7.3-8c-0.4-2.2,0.1-3.8,1.7-4.6c1.5-0.9,3.2-1.3,5-1.3c2.2,0,8.4,1.3,18.6,4
	c10.2,2.7,21.2,4,33.2,4c12.8,0,24.2-1.3,34.2-4c10-2.7,15.8-4,17.6-4c2.2,0,4.1,0.4,5.6,1.3c1.5,0.9,2.1,2.4,1.7,4.6
	c-0.4,2.7-3,5.3-7.6,8c-4.6,2.7-9.9,6.2-15.6,10.6c-5.8,4.4-10.7,10.6-14.9,18.6c-4.2,8-6.3,18.4-6.3,31.2V534.4z M370.5,284.6
	c-1,0-1.9,0.1-2.9,0.3c-5.1,1.2-9.5,5.6-9.2,12.3c0.2,5.6,3.9,9.9,8.7,11.9c1-2.2,2.4-4.4,4.2-6.4c-2.2-0.8-3.8-2.6-4.3-4.6
	c-0.5-2.1,0.2-4.5,2.7-5.8c0.5-0.3,0.9-0.4,1.4-0.5c1.4-0.2,2.8,0.4,3.6,1.3c0.6,0.7,0.8,1.7,0.5,2.5c-0.3,0.9-1,1.6-2.1,2.1
	c-0.2,0.1-0.4-0.3-0.1-0.3c1-0.4,1.6-1.1,1.9-1.9c0.2-0.7,0.1-1.5-0.5-2.2c-0.8-1-2.8-1.6-4.5-0.7c-2.4,1.3-3.1,3.4-2.6,5.4
	c0.4,1.9,2,3.6,4.2,4.4c1.4-1.5,2.9-2.9,4.7-4.3c1.7-1.3,3.6-2.4,5.7-3.5c0-1.1-0.2-2.2-0.7-3.3
	C379.1,286.8,374.8,284.6,370.5,284.6z M287.7,572.4c2.5,1,5,1.8,7.7,2.5l3.6-17.5c-0.5-0.8-1-1.6-1.5-2.4c-0.9-0.2-1.8-0.5-2.7-0.8
	L287.7,572.4z M302.5,576.3l1.2-12.5c-1.6-1.8-3.1-3.8-4.5-5.9l-3.5,17.1C298,575.5,300.3,576,302.5,576.3z M274.4,467.2
	c0.4,2.6-0.5,5.4-2.7,7.3c-0.4,0.3-0.7,0.6-1.1,0.8c3.4-1.5,7-2.6,10.6-3.3c-1.1,0-2.2-0.1-3.2-0.5c-2.2-0.9-3.7-2.7-3.1-5.4
	c0.5-2.6,2.8-3.6,4.6-3.6c0.7,0,1.4,0.2,1.9,0.7c0.5,0.4,0.9,1,1,1.8c0.1,0.8-0.2,1.7-0.8,2.2c-0.6,0.6-1.6,0.9-2.6,0.6
	c-0.3-0.1-0.1-0.5,0.1-0.4c0.9,0.3,1.6,0,2.2-0.5c0.5-0.5,0.8-1.2,0.7-1.9c-0.1-0.7-0.4-1.2-0.8-1.5c-0.4-0.3-1-0.5-1.6-0.6
	c-1.6-0.1-3.8,0.9-4.2,3.3c-0.5,2.5,0.9,4.2,2.9,5c2,0.8,4.7,0.7,6.7-0.6c4.1-2.6,4.3-8.9,0.3-11.2c-5,0.3-10.2,1.1-15.4,2.6
	C272.5,462.8,274,464.8,274.4,467.2z M318.5,576.3c-0.4-0.3-0.8-0.5-1.1-0.8l0.1,1C317.9,576.4,318.2,576.3,318.5,576.3z
	 M309.7,576.8v-7.3c-1.9-1.6-3.8-3.4-5.5-5.4l-1.2,12.1C305.2,576.6,307.4,576.8,309.7,576.8z M281.3,546.1l-13.9,12.4
	c1.7,1.9,3.6,3.7,5.7,5.4l12.1-14.6C283.8,548.4,282.5,547.3,281.3,546.1z M275.8,538.7l-16.8,6.7c0.9,2,1.9,4.1,3.1,6l16-9.1
	C277.2,541.2,276.5,540,275.8,538.7z M278.3,542.6l-16,9.1c1.4,2.2,3,4.4,4.9,6.5l13.8-12.4C280,544.8,279.1,543.7,278.3,542.6z
	 M278.5,509.6l-11.2-16c-1.6,1.6-3,3.3-4.3,5.1l13.8,13.2C277.4,511.2,277.9,510.4,278.5,509.6z M284.2,504.7l-4-19.2
	c-0.5,0.2-1.1,0.4-1.6,0.6c-1.8,0.7-3.4,1.6-5,2.6l7.8,18.1C282.3,506,283.2,505.3,284.2,504.7z M259.7,329.6v14.8
	c1.2-5,1.4-10.3,2.7-15.8C261.5,329,260.6,329.3,259.7,329.6z M288,502.8v-19.6c-2.4,0.5-4.9,1.2-7.4,2.1l3.9,19.2
	C285.7,503.8,286.9,503.3,288,502.8z M262.7,586.6c3.7-0.3,7.6-0.4,11.6-0.4c2.9,0,5.7,0.1,8.4,0.2c-2.7-1.9-6.1-3-9.5-3.1
	C269.5,583.3,265.8,584.3,262.7,586.6z M243.4,589.7c-0.8-0.6-1.5-1.3-2.1-2.1c-1.7-2.3-2.2-5.4-1.4-8.2c0.9-2.7,3.1-5,6.8-5.4
	c2.9-0.4,5.5,1,6.8,3c1.3,2,1.3,4.6-0.9,6.7c-1.5,1.5-3.8,1.3-5,0.5c-0.8-0.6-1.2-1.4-1.2-2.3c0-0.9,0.5-1.8,1.4-2.6
	c0.2-0.1,0.5,0.2,0.3,0.3c-0.9,0.7-1.3,1.5-1.3,2.3c0,0.8,0.3,1.5,1,2c1.1,0.7,3.2,0.9,4.5-0.4c2.1-2,2.1-4.4,0.8-6.2
	c-1.2-1.8-3.6-3.1-6.4-2.8c-3.6,0.4-5.7,2.6-6.5,5.2c-0.8,2.6-0.3,5.6,1.3,7.8c0.7,0.9,1.4,1.6,2.3,2.2c5.2-1.3,10.8-2.2,16.7-2.7
	c2.1-2.8,3-6.5,1.6-10.8c-2.7-8.5-13.2-11.7-21.3-8.2c-0.8,0.7-1.6,1.5-2.5,2.1c-1.6,1.3-3.1,2.4-4.5,3.6c-2.7,3.8-3.7,8.4-3,12.7
	c1.3,2,2.7,3.9,4.2,5.7c1.5-0.4,3.2-0.9,5-1.4C241.2,590.2,242.3,589.9,243.4,589.7z M223.2,580.9c-2.1,1.2-3.7,2.4-4.9,3.6
	c1.8,3.5,3.8,6.9,6,10.1c2.1-0.4,5.5-1.2,10.2-2.5c-3.2-4.1-6.1-8.4-8.6-13C225,579.8,224.1,580.4,223.2,580.9z M295.6,575.3
	c-0.1,0-0.1,0-0.2-0.1c-2.7-0.7-5.4-1.6-8-2.6c0,0-0.1,0-0.1,0c-2.6-1-5-2.2-7.4-3.6c0,0-0.1,0-0.1-0.1c-0.8-0.4-1.5-0.9-2.2-1.4
	c-1.6-1-3.1-2.1-4.5-3.2c0,0-0.1,0-0.1-0.1c-2.2-1.8-4.2-3.7-6-5.6c0,0-0.1-0.1-0.1-0.1c-3.6-4-6.4-8.5-8.4-13.2c0,0,0-0.1,0-0.1
	c-0.5-1.3-1-2.5-1.5-3.8c-0.5,1.8-1.1,3.5-1.7,5.1c0.4,0.5,0.6,1.1,0.6,1.8c0,1.6-1.2,2.9-2.9,3.1c-1,1.8-2,3.6-3.1,5.2
	c5.3,9.2,13.4,17.5,24.6,23.7c5.3,2.9,10.8,5.1,16.4,6.7c4.7,0.6,9.2,1.4,13.5,2.4c2.1-1.1,4.3-2.1,6.6-2.9
	c-0.9-0.6-1.5-1.5-1.5-2.6c0-1.7,1.5-3.1,3.3-3.1s3.3,1.4,3.3,3.1c0,0.3-0.1,0.6-0.2,0.9c1.7-0.5,3.4-1,5.1-1.4
	c-0.2-0.4-0.3-0.8-0.3-1.3c0-1.4,1-2.6,2.4-3c-1.4-0.8-2.8-1.8-4.2-2.8C311.2,577.7,303.2,577.2,295.6,575.3z M257.5,560.5
	c-1.8,0-3.2-1.4-3.2-3.1c0-1.7,1.4-3.1,3.2-3.1c1.8,0,3.3,1.4,3.3,3.1C260.8,559.1,259.3,560.5,257.5,560.5z M264.1,568.2
	c-1.8,0-3.2-1.4-3.2-3.1c0-1.7,1.4-3.1,3.2-3.1c1.8,0,3.3,1.4,3.3,3.1C267.4,566.8,265.9,568.2,264.1,568.2z M272,574.9
	c-1.8,0-3.3-1.4-3.3-3.1c0-1.7,1.4-3.1,3.3-3.1c1.8,0,3.2,1.4,3.2,3.1C275.2,573.5,273.8,574.9,272,574.9z M281.2,580.2
	c-1.8,0-3.2-1.4-3.2-3.1c0-1.7,1.4-3.1,3.2-3.1s3.3,1.4,3.3,3.1C284.5,578.7,283,580.2,281.2,580.2z M291.3,584
	c-1.8,0-3.2-1.4-3.2-3.1c0-1.7,1.4-3.1,3.2-3.1c1.8,0,3.3,1.4,3.3,3.1C294.5,582.6,293.1,584,291.3,584z M301.9,586.5
	c-1.8,0-3.3-1.4-3.3-3.1c0-1.7,1.5-3.1,3.3-3.1c1.8,0,3.3,1.4,3.3,3.1C305.2,585.1,303.7,586.5,301.9,586.5z M215.9,588.2
	c0,0.2-0.1,0.4-0.1,0.7c0.6,1.4,1.1,2.9,1.7,4.3c0,0,0,0,0.1,0.1c1.5,1.1,3.2,1.7,5,1.7c0,0,0,0,0,0c-2-3-3.8-6-5.4-9.1
	C216.5,586.6,216,587.4,215.9,588.2z M249.3,557.8c-2.4,3.5-5,6.7-7.8,9.3c2.2-0.8,4.4-1.2,6.7-1.1c6.3,0.2,12.3,3.6,14.3,9.9
	c1.4,4.3,0.5,8-1.5,10.9c0.3,0,0.6,0,0.9-0.1c3.2-2.6,7.2-3.8,11.1-3.7c3.7,0.1,7.4,1.3,10.2,3.5c0.8,0,1.5,0.1,2.3,0.2
	c-3.9-1.4-7.8-3.1-11.5-5.2C262.9,575.3,254.8,567,249.3,557.8z M327.4,582.4C327.4,582.4,327.4,582.4,327.4,582.4
	c0.2,0,0.4,0,0.7-0.1c-0.2-0.2-0.5-0.3-0.7-0.5C327.4,582,327.4,582.2,327.4,582.4z M327.7,594.7c1.2-0.2,2.5-0.7,3.7-1.5
	c0.3-0.2,0.5-0.4,0.7-0.5l-1.8-8.6c-0.2-0.1-0.3-0.3-0.5-0.4c-1.8,0.2-3.6,0.5-5.4,0.9L327.7,594.7z M318.4,585.9l3.5,8.3
	c2,0.5,3.4,0.7,4.1,0.7c0.4,0,0.8,0,1.2-0.1l-3.2-10.2C322.2,584.9,320.3,585.4,318.4,585.9z M313.5,587.4c-0.4,0.2-0.9,0.3-1.4,0.5
	l2.5,4.4c2.8,0.8,5.1,1.3,6.9,1.8L318,586C316.5,586.4,315,586.9,313.5,587.4z M306.8,590.2c0.4,0.1,0.9,0.2,1.3,0.4
	c2.2,0.6,4.1,1.2,5.9,1.6l-2.3-4.1C310.1,588.7,308.4,589.4,306.8,590.2z M317.1,576.5l-0.1-1.3c-2.2-1.6-4.5-3.3-6.9-5.3
	c0,0,0,0,0,0v6.9C312.4,576.8,314.8,576.7,317.1,576.5z M494,450.4c-0.7,0.1-1.5,0.3-2.2,0.5c0.6,0.1,1.3,0.2,1.9,0.3
	C493.8,451,493.9,450.7,494,450.4z M428.9,341.3c-2,0.9-3.9,1.8-5.8,2.5c0.2,0.8,0.4,1.4,0.6,2.2C425.3,344.4,427,342.9,428.9,341.3
	z M422.8,346.9c-0.2-0.9-0.5-1.8-0.8-2.7c-4.3,1.6-8.4,2.8-12.2,3.5c0.9,5.5,1.5,10.7,1.9,16C413.6,358.4,417.2,352.7,422.8,346.9z
	 M404.2,471.3L404.2,471.3c0.7-0.4,1.4-0.8,2.2-1.3C405.6,470.5,404.9,470.9,404.2,471.3z M404.6,471.9l0.7,1.1
	c3.2-2.6,6.6-5.1,10.1-7.3C411.6,467.6,408,469.7,404.6,471.9z M287.4,572.3l7.1-18.1c-1.5-0.5-2.9-1.1-4.2-1.8l-9.9,16.5
	C282.5,570.1,284.9,571.3,287.4,572.3z M368.2,417.8l35.4,52.5c1.9-1.1,3.9-2.3,6-3.4C401.4,446.9,386.8,429.6,368.2,417.8z
	 M391,291.5c-1.3-2.7-2.7-5.5-4.1-8.2c1.1,2.9,1.8,5.9,2.1,8.8C389.7,291.8,390.3,291.6,391,291.5z M354.2,293.3
	c1.6,2.7,3.2,5.6,4.7,8.4c-0.5-1.4-0.9-2.8-0.9-4.4c-0.2-6.9,4.3-11.4,9.5-12.7c1.3-0.3,2.7-0.4,4-0.3c4.1,0.3,8,2.6,10.2,7
	c0.5,1,0.7,2.1,0.7,3.2c1.9-0.9,4-1.7,6.2-2.4c-0.4-4-1.7-8.3-3.7-12.5c-1.1-2-2.3-4-3.4-6c-0.4-0.3-0.7-0.7-1-1
	c-3.5-3.8-5.9-7.8-7.2-11.8c-2.3-3.4-4.8-6.6-7.3-9.8c2.4,3.8,4.3,7.8,5.4,11.8c2.3,8,1.6,15.8-4.9,20.9c-3,2.4-6.5,3.5-10,3.6
	C355.8,289.4,355,291.4,354.2,293.3z M365.2,325.1c-0.5-2.6-0.7-5.1-0.4-7.7c-3.1-7.7-6.8-15.4-11.2-22.8c-0.6,1.3-1.2,2.5-1.8,3.7
	c-0.6,1.1-1.2,2.2-1.9,3.3c3.9,7.1,7.1,14.6,9.7,22.1C361.3,324.3,363.1,324.7,365.2,325.1z M331.9,316.8c7.4,0.4,12.5,1.9,17.4,3.6
	c3,1,6,2.2,9.3,3.1c-2.5-7.2-5.6-14.3-9.3-21C345.6,308.2,340.4,313.1,331.9,316.8z M359.9,303.7c1.9,3.7,3.6,7.6,5.2,11.4
	c0.4-1.9,1-3.8,1.8-5.6C364,308.3,361.5,306.4,359.9,303.7z M259.7,456.8c8.3-3.1,16.8-4.6,25-4.6c1.4,0,2.8,0,4.2,0.1v-4.6
	c-9.6,0.6-19.4,2.9-29.2,7.5V456.8z M259.7,458.4v6.4c9.4-3.9,18.7-5.9,27.4-6.2c0.6,0,1.2,0,1.8,0v-4.9c-1.4,0-2.8-0.1-4.2-0.1
	C276.5,453.7,268,455.2,259.7,458.4z M285.6,549.6l-12.1,14.6c1.4,1.1,2.8,2.1,4.4,3.1c0.7,0.5,1.4,0.9,2.1,1.3l9.9-16.4
	c-1.4-0.7-2.7-1.5-4-2.3C285.8,549.8,285.7,549.7,285.6,549.6z M291.8,542.7c-3.7-2.3-6.8-5.7-8.8-10c-2.7-5.9-2.5-12.5,0.5-17.7
	c1.3-2.2,3.1-4.2,5.3-5.9v-4.9c0,0,0,0,0,0c-4.7,1.6-9.6,5.4-12.5,11.9c-5.4,12.1-0.5,25.1,10.4,32.6c2.8,1.9,6.1,3.5,9.6,4.6
	c-0.4-0.7-0.8-1.4-1.2-2.1C293.9,548.5,292.7,545.7,291.8,542.7z M266,447.8c-2.1,0.9-4.2,2-6.3,3.1v3.9c9.8-4.5,19.6-6.9,29.2-7.4
	v-6C281.2,442.3,273.5,444.5,266,447.8C266,447.8,266,447.8,266,447.8z M286.3,422.1c-3-2.9-6.4-4.1-9.6-4.1c-0.7,0-1.4,0.1-2.2,0.3
	c-3.8,0.9-7.1,3.8-8.9,8.6c-1.7,4.7-1.9,11.3,0.6,19.4c1.9-0.8,3.8-1.6,5.7-2.2c-0.9-5.3-0.8-9.6,0.1-12.7c0.9-3.2,2.6-5.2,4.7-5.7
	c0.5-0.1,1.1-0.2,1.6-0.1c1.6,0.1,3.4,1.1,5,2.9c2.1,2.4,4.1,6.2,5.5,11.5c0,0,0,0,0,0v-14.9C288.1,424,287.2,423,286.3,422.1z
	 M286.4,420.7l-1.4-7.1c-3.2,0.8-6.3,1.8-9.5,2.9l0.1,0.5C279.3,416.6,283.1,417.8,286.4,420.7z M274.2,417.3c0.4-0.1,0.7-0.1,1-0.2
	l-0.1-0.4c-3,1.1-5.9,2.4-8.8,3.7l0.7,1.5C268.9,419.5,271.4,417.9,274.2,417.3z M286.9,421.2c0.1,0.1,0.1,0.1,0.2,0.1
	c0.6,0.6,1.2,1.3,1.8,2v-10.6c-1.2,0.3-2.4,0.5-3.6,0.8L286.9,421.2z M288.3,440.2c-1.4-5.3-3.3-9-5.4-11.2c-1.7-1.9-3.4-2.8-5-2.8
	c-0.4,0-0.7,0.1-1,0.1c-1.8,0.5-3.4,2.3-4.3,5.4c-0.9,3-1,7.1-0.1,12.3C277.7,442.3,283,441,288.3,440.2z M259.7,413.5v9.5
	c9.3-5.2,19.1-9,29.2-11.1v-8.6C279,405.4,269.1,408.8,259.7,413.5z M287.1,480.3c-1.6,0-2.9-1.3-2.9-2.8c0-1.6,1.3-2.8,2.9-2.8
	c0.7,0,1.3,0.2,1.8,0.6v-3c-10.2,0.4-20.7,4-29.2,11.2v4.9c0.1,0,0.3,0,0.4,0c1.8,0,3.3,1.4,3.3,3.1c0,1.7-1.5,3.1-3.3,3.1
	c-0.2,0-0.3,0-0.4,0v9c2-3.8,4.5-7.3,7.5-10.2c0-0.1,0.1-0.2,0.2-0.2h0c3.2-3.1,6.9-5.6,11.1-7.3c3.7-1.5,7.1-2.5,10.4-3.1v-3
	C288.4,480,287.8,480.3,287.1,480.3z M268,487.7c-1.8,0-3.3-1.4-3.3-3.1c0-1.7,1.5-3.1,3.3-3.1s3.3,1.4,3.3,3.1
	C271.3,486.4,269.8,487.7,268,487.7z M277.3,483c-1.8,0-3.3-1.4-3.3-3.1c0-1.7,1.5-3.1,3.3-3.1c1.8,0,3.2,1.4,3.2,3.1
	C280.5,481.6,279.1,483,277.3,483z M283.8,381.2l2.3,10.4c0.9-0.2,1.9-0.4,2.8-0.5v-10.9C287.2,380.5,285.5,380.8,283.8,381.2z
	 M282,372.5l1.8,8.3c1.7-0.4,3.4-0.7,5.1-1v-8.6C286.6,371.6,284.3,372.1,282,372.5z M286.2,392l2.2,9.9c0.2,0,0.4-0.1,0.5-0.1
	v-10.3C288,391.6,287.1,391.8,286.2,392z M368.4,416.2l24.6-31.7c-3.6-2.3-7.3-4.5-11.2-6.5l-19.5,31.2l3.7,5.6
	C366.9,415.3,367.7,415.7,368.4,416.2z M384.8,383.2c0.2-0.1,0.4-0.1,0.7-0.1c0.7,0,1.4,0.4,1.6,1c0.4,0.9,0,1.8-0.9,2.2
	c-0.9,0.4-1.9,0-2.3-0.9C383.5,384.5,383.9,383.6,384.8,383.2z M381.4,388.1c0.2-0.1,0.4-0.1,0.7-0.1c0.7,0,1.4,0.4,1.6,1
	c0.4,0.9,0,1.8-0.9,2.2c-0.9,0.4-1.9,0-2.3-0.9C380.1,389.4,380.5,388.4,381.4,388.1z M377.7,393.2c0.2-0.1,0.4-0.1,0.7-0.1
	c0.7,0,1.4,0.4,1.6,1c0.4,0.9,0,1.8-0.9,2.2c-0.9,0.4-1.9,0-2.3-0.9C376.4,394.5,376.8,393.5,377.7,393.2z M374,398.5
	c0.2-0.1,0.4-0.1,0.7-0.1c0.7,0,1.4,0.4,1.6,1c0.4,0.9,0,1.8-0.9,2.2c-0.9,0.4-1.9,0-2.3-0.9C372.7,399.8,373.1,398.8,374,398.5z
	 M370.1,403.9c0.2-0.1,0.4-0.1,0.7-0.1c0.7,0,1.3,0.4,1.6,1c0.4,0.9,0,1.8-0.9,2.2c-0.9,0.4-1.9,0-2.3-0.9
	C368.8,405.3,369.2,404.3,370.1,403.9z M366.4,409.2c0.2-0.1,0.4-0.1,0.7-0.1c0.7,0,1.4,0.4,1.6,1c0.4,0.9,0,1.8-0.9,2.2
	c-0.9,0.4-1.9,0-2.3-0.9C365.1,410.6,365.6,409.6,366.4,409.2z M280.3,364.7l1.6,7.4c2.3-0.5,4.7-0.9,7-1.3v-7.7
	C286,363.6,283.1,364.1,280.3,364.7z M324.8,341.3c0.6-0.1,1.1-0.1,1.6-0.1c0.5,0.1,0.9,0.2,1.3,0.3c0.7,0.3,1.2,0.9,1.4,1.5
	c0.4,1.3-0.4,3-2.5,4.2c-1.4,0.8-2.9,1.4-4.6,2l1.7,2.6c0.6,0,1.3,0.1,1.9,0.1c5.8-0.7,10-2.9,13.5-6c3.8-3.3,6.8-7.5,10.1-11.3
	c-5.9-0.1-10.7-1.3-15.6-2.2c-3.5-0.6-7.1-1.2-11.3-1.1c-1.7,0-3.6,0.1-5.6,0.4c-0.7,0.8-1.5,1.6-2.4,2.4c1.1,0.1,2.3,0.2,3.5,0.2
	c0.4,0,0.6,0.4,0.4,0.7c-1.1,1.6-2,3-2.9,4.5l2.2,3.3C320.1,342.1,322.4,341.6,324.8,341.3z M293.8,307.4c0.8-0.1,1.5-0.1,2.3-0.1
	c1.3,0,2.6,0,3.9,0.1c5.2,0.4,10.8,1.8,17,2.9c0.1,0,0.2,0.2,0.1,0.3c-2.7,3.6-4.3,7.7-6.6,11.6c-1,1.6-2.1,3.2-3.5,4.7l4.5,6.6
	c0.5,0.1,1.1,0.1,1.6,0.2c5.4-4.3,7.8-9.6,10-15.1c0.2-0.5,0.4-1,0.6-1.6c0-0.1,0-0.2,0.1-0.2c1.9-4.6,4-9.3,7.9-13.3
	c-7.8,0-14.3-2.5-21.1-4.1c-3.6-0.8-7.3-1.4-11.3-1.4c-3.2,0.1-6.6,0.5-10.3,1.7c0,0-0.1,0-0.1,0c-0.8,0.3-1.6,0.5-2.5,0.9
	c-0.1,3.1-0.4,6.1-1.2,9.1c1.2-0.6,2.5-1.1,3.7-1.5v-8.4L293.8,307.4z M328.5,343.3c-0.1-0.5-0.5-0.9-1.1-1.2
	c-0.4-0.2-1-0.3-1.7-0.3c-0.2,0-0.5,0-0.8,0.1c-2.3,0.4-4.5,0.8-7,1.4l3.7,5.5c1.6-0.5,3.2-1.2,4.6-2
	C328.2,345.7,328.8,344.2,328.5,343.3z M277.7,352.1c0.4-0.1,0.7-0.1,1-0.1c0.3,0,0.6,0.1,0.9,0.1c0.5,0.1,0.9,0.5,1.1,0.9
	c0.3,0.7,0.2,1.5-0.3,2.5c2.8-0.6,5.7-1.2,8.6-1.7v-10.4c-5.6,0-11.5,0.5-18.6,3.1c-0.5,1.4-1.1,2.8-1.9,4.1
	c-2,3.8-4.9,7.5-8.7,10.8v0.3c1.7-0.7,3.4-1.3,5.2-1.9C270.3,354.8,274.8,352.5,277.7,352.1z M365.2,403c-3.3-1.7-6.6-3.2-10-4.6
	l6.7,10L365.2,403z M316.7,310.7c-6.2-1.1-11.6-2.5-16.7-2.9c-1-0.1-1.9-0.1-2.9-0.1c-1,0-2,0-3,0.1l6.9,10.3
	c0.5,0.2,0.9,0.5,1.2,0.9c0.2,0.4,0.3,0.8,0.3,1.2l4.3,6.5c1.4-1.5,2.4-3,3.4-4.6C312.4,318.3,314,314.3,316.7,310.7z M274.6,329.1
	c-0.4,2.2-0.8,4.3-1.2,6.4c2.5-1,4.8-1.7,7.1-2.3c2.8-1.3,5.7-2.5,8.4-3.8v-7.3C284.1,324.2,279.4,326.5,274.6,329.1z M283.2,332.7
	c2-0.4,3.9-0.6,5.7-0.8V330C287,330.9,285.1,331.8,283.2,332.7z M279.3,352.7c-0.2-0.1-0.4-0.1-0.7-0.1c-0.3,0-0.6,0-0.9,0.1
	c-2.4,0.4-6.5,2.4-11.5,6.7c4.4-1.4,8.8-2.7,13.3-3.7c0.7-1.1,0.8-1.9,0.6-2.4C280,353,279.7,352.8,279.3,352.7z M285.1,310.4
	c-1.6,5.8-4.7,11.3-10.1,16.6c-0.1,0.5-0.2,1-0.3,1.4c4.7-2.6,9.4-4.8,14.2-6.9v-12.7C287.6,309.2,286.4,309.7,285.1,310.4z
	 M365.4,402.7l5.9-9.4c-8.3-4.4-17.3-7.9-26.6-10.4l10.1,15C358.4,399.3,361.9,400.9,365.4,402.7z M273.2,336.6
	c-0.7,3.2-1.5,6.3-2.7,9.4c7-2.6,12.9-3,18.4-3v-10.1C284.1,333.2,279,334.3,273.2,336.6z M267.5,350.2c2.3-4.4,3.6-9.1,4.7-13.9
	c0-0.1,0-0.1,0-0.1c0.7-3.1,1.2-6.2,1.8-9.4c0-0.1,0-0.1,0-0.2c0.9-4.9,1.8-9.9,3.4-14.6c-5.6,2.5-11.7,4.2-17.7,6v11.3
	c1-0.3,1.9-0.7,2.9-1c0,0,0,0,0.1,0c0.1,0,0.2,0.1,0.2,0.2c-1.5,6.2-1.7,12-3.2,17.7v14C263.1,357.1,265.7,353.7,267.5,350.2z
	 M371.5,392.9l4.8-7.8c-12-6.3-25.2-10.9-39.2-13.4l7.2,10.7C353.9,384.9,363,388.5,371.5,392.9z M376.5,384.8l4.5-7.3
	c-13.7-7-28.7-12-44.6-14.5l-0.8,6.3l1.3,1.9C351,373.8,364.3,378.4,376.5,384.8z M448.9,452c2.7-0.6,5.3-1,8.1-1.4
	c-1.6-4.7-3.5-9.3-5.7-13.8c-0.1-0.1-0.1-0.2-0.1-0.3c-2.7-5.5-5.6-10.9-9-16c-3.6-5.5-7.5-10.8-11.8-15.8c-0.2-0.1-0.4-0.2-0.4-0.5
	c-14.7-17-33.5-30.6-54.8-39.7c-0.2,0.1-0.5-0.1-0.6-0.3c-9-3.8-18.5-6.7-28.4-8.7c-0.1,0-0.3,0-0.4-0.1c-7-1.4-14.2-2.3-21.5-2.8
	l5.7,8.4C385.5,367.2,431.3,403.4,448.9,452z M317,335.1c-1.2-0.1-2.4-0.2-3.7-0.3c-0.1,0-0.3,0-0.4-0.1c-0.3,0-0.5-0.1-0.8-0.1
	l2.6,3.9C315.5,337.4,316.2,336.3,317,335.1z M335.4,363c-1.5-0.2-3-0.4-4.6-0.6l3.9,5.8L335.4,363z M269,375.9
	c-3.2,1-6.3,2.1-9.3,3.2v9.1c3.9-1.6,7.8-3.1,11.9-4.3L269,375.9z M230.4,585.5c-0.4-3.8,0.5-7.8,2.6-11.3c-2.3,1.7-4.5,3.3-6.6,4.7
	C227.7,581.1,229,583.3,230.4,585.5z M260.4,481.4c2.9-2.3,6-4.1,9.3-5.6c-1.6,0.6-3.4,0.6-4.9,0.1c-2.2-0.7-4-2.6-3.7-5.3
	c0.3-2.4,1.9-3.6,3.4-3.7c1.6-0.2,3.2,0.7,3.7,2.3c0.2,0.8,0,1.6-0.5,2.2c-0.5,0.6-1.4,0.9-2.4,0.6c-0.3-0.1-0.1-0.4,0.1-0.4
	c0.9,0.2,1.6,0,2-0.5c0.4-0.5,0.6-1.2,0.4-1.8c-0.4-1.5-1.8-2.2-3.2-2.1c-1.4,0.2-2.8,1.2-3.1,3.4c-0.3,2.5,1.3,4.2,3.4,4.9
	c2.2,0.7,4.8,0.3,6.6-1.2c2.1-1.8,2.9-4.6,2.5-7c-0.4-2.4-2-4.4-4.8-5.2c-3.2,0.9-6.4,2-9.6,3.4v5.7c0.6,0.7,1.2,1.5,1.5,2.3
	C262.3,476,262.1,479,260.4,481.4z M272.8,529.5c-0.2-1.4-0.2-2.8-0.2-4.3l-13.1-0.1c-0.1,2.1-0.3,4.1-0.5,6.1L272.8,529.5z
	 M260.9,473.6c-0.3-0.7-0.7-1.3-1.2-1.9v10C261.7,479.3,262,476.2,260.9,473.6z M258.8,545l16.8-6.7c-0.7-1.3-1.2-2.7-1.7-4.1
	l-16.1,4.2c-0.2,0.8-0.4,1.6-0.6,2.4C257.7,542.2,258.2,543.6,258.8,545z M288.9,354.7c-10.1,1.7-19.9,4.4-29.2,8v6.8
	c9.3-3.5,19-6,29.2-7.5V354.7z M286.1,459.3c3.8,2.6,3.4,8.9-0.8,11.5c-0.5,0.3-1.1,0.6-1.7,0.8c1.8-0.3,3.6-0.4,5.3-0.5v-11.9
	C288,459.2,287,459.2,286.1,459.3z M283.8,515.9c-2.5,5-2.7,11.1-0.1,16.6c0.6,1.3,1.3,2.6,2.1,3.7c-0.1-0.4-0.1-0.8-0.2-1.3
	c-0.2-3.6,1.3-6.3,3.6-7.9c0-0.1,0-0.3,0-0.4c-0.5,0.1-1,0.2-1.5,0.2c-1.4,0-2.6-0.5-3.3-1.2c-0.8-0.8-1.1-1.8-0.8-2.8
	c0.3-0.9,0.9-1.4,1.7-1.7c0.8-0.3,1.7-0.1,2.7,0.5c0.2,0.1,0,0.5-0.2,0.3c-0.8-0.6-1.6-0.7-2.3-0.5c-0.6,0.2-1.2,0.7-1.4,1.4
	c-0.3,0.9,0,1.7,0.6,2.4c0.7,0.7,1.8,1.1,3.1,1.1c0.5,0,1-0.1,1.5-0.2c-0.1-2-0.2-4.1-0.2-6.3v-2.9
	C287.4,516.1,285.5,515.7,283.8,515.9z M286,534.8c0.1,0.9,0.1,1.5,0.4,2.2c1.5,1.9,3.2,3.5,5.2,4.8c-1.2-4.3-2-9.1-2.4-14.5
	C287.1,529,285.7,531.5,286,534.8z M259.6,524.8l13.1,0.1c0.1-1.4,0.3-2.7,0.6-4.1l-13.5-1.7v0.8
	C259.7,521.5,259.6,523.2,259.6,524.8z M354.9,268.4c1.3,0,2.5,0.6,3.1,1.6c1.8,0.2,3.7,0.4,5.5,0.5c0.4,0,0.6,0.4,0.4,0.7
	c-1.4,2.6-2.6,5.2-3.7,7.7c4.4-1.8,6.1-7.3,4.1-11.1c-2.3-4.3-6.3-6.3-10.3-6.4c-0.3,0-0.5,0-0.8,0c-4.2,0.2-8.2,2.4-10.2,6.3
	c3.2,0.5,6.5,1,9.6,1.6C353.3,268.7,354.1,268.5,354.9,268.4z M273.8,533.9c-0.4-1.4-0.7-2.7-0.9-4.1l-13.9,1.7
	c-0.3,2.2-0.6,4.4-1.1,6.4L273.8,533.9z M275,394.7c-5.3,1.6-10.4,3.5-15.3,5.7v11.5c6-3,12.1-5.4,18.4-7.3L275,394.7z M271.7,384.3
	c-4.1,1.3-8.1,2.7-12,4.4V400c4.9-2.2,10-4,15.2-5.6L271.7,384.3z M266.6,368.3c-2.3,0.7-4.6,1.6-6.9,2.4v8c3-1.2,6.1-2.2,9.2-3.2
	L266.6,368.3z M284.1,515.2c-0.1,0.1-0.1,0.1-0.1,0.2c1.7-0.1,3.5,0.3,4.9,1v-6.7C286.9,511.3,285.3,513.2,284.1,515.2z M267.5,368
	l11.5,36.2c2.8-0.8,5.6-1.5,8.4-2.1l-8.1-37.2C275.3,365.8,271.4,366.8,267.5,368z M272.6,369.3c0.2-0.7,0.9-1.2,1.7-1.2
	c0.1,0,0.3,0,0.5,0.1c0.9,0.3,1.4,1.2,1.1,2.1c-0.3,0.9-1.3,1.4-2.2,1.1C272.8,371.1,272.3,370.2,272.6,369.3z M274.2,375
	c0.2-0.7,1-1.2,1.7-1.2c0.2,0,0.3,0.1,0.5,0.1c0.9,0.3,1.4,1.2,1.1,2.1c-0.3,0.9-1.3,1.4-2.2,1.1C274.4,376.8,273.9,375.8,274.2,375
	z M275.7,381c0.3-0.7,1-1.2,1.7-1.2c0.2,0,0.3,0,0.5,0.1c0.9,0.3,1.4,1.2,1.1,2.1c-0.3,0.9-1.3,1.4-2.2,1.1
	C275.9,382.8,275.4,381.9,275.7,381z M283,398.6c0.9,0.3,1.4,1.2,1.1,2.1c-0.3,0.9-1.3,1.4-2.2,1.1c-0.9-0.3-1.4-1.2-1.1-2.1
	c0.2-0.7,0.9-1.2,1.7-1.2C282.7,398.5,282.8,398.6,283,398.6z M281.3,392.5c0.9,0.3,1.4,1.2,1.1,2.1c-0.3,0.9-1.3,1.4-2.2,1.1
	c-0.9-0.3-1.4-1.2-1.1-2.1c0.2-0.7,1-1.2,1.7-1.2C281,392.4,281.1,392.4,281.3,392.5z M280.7,388.2c-0.3,0.9-1.3,1.4-2.2,1.1
	c-0.9-0.3-1.4-1.2-1.1-2.1c0.2-0.7,0.9-1.2,1.7-1.2c0.1,0,0.3,0,0.5,0.1C280.5,386.4,281,387.3,280.7,388.2z M264.4,444.6
	c-0.7-2.7-1.1-5.3-1.3-7.7l-3.5-6.2v9.3C261.3,441.3,262.9,442.8,264.4,444.6z M275.3,514.7c0.4-0.9,0.9-1.6,1.3-2.4l-13.8-13.2
	c-1.2,1.7-2.2,3.5-3.1,5.3v0.3L275.3,514.7z M274.1,517.6c0.2-0.7,0.5-1.4,0.8-2.1c0.1-0.1,0.1-0.3,0.2-0.4l-15.5-9.9v7.3
	L274.1,517.6z M273.3,520.4c0.2-0.8,0.4-1.6,0.7-2.5l-14.3-5v5.8L273.3,520.4z M259.8,449.5c1.7-0.9,3.4-1.7,5.1-2.5
	c-1.7-2.3-3.4-4.2-5.2-5.7v8C259.7,449.4,259.8,449.4,259.8,449.5z M288.4,483.1v19.6c0.2-0.1,0.3-0.1,0.5-0.1v-19.5
	C288.7,483.1,288.6,483.1,288.4,483.1z M281,507l-7.8-18.1c-2,1.3-3.9,2.8-5.6,4.4l11.1,16C279.5,508.5,280.3,507.7,281,507z
	 M559.5,471.7c1.1,9.7,6.5,18.5,15.2,22.6c2.8,1.3,5.6,2.1,8.3,2.6v-1.9C577,485.1,568.2,478.7,559.5,471.7z M583,509.8v-1
	c-0.2,0-0.4,0-0.6,0.1C582.6,509.2,582.8,509.5,583,509.8z M568.9,491.7c4.4,4.7,8.5,9.8,12.2,15.1c0.7-0.1,1.3-0.3,2-0.4v-8.6
	c-2.8-0.4-5.7-1.3-8.7-2.7C572.3,494.2,570.5,493,568.9,491.7z M574.2,511.2c-2.4,0.9-4.8,2.3-7,4c4.4,8.2,8.1,17.1,10.9,26.5
	c1.3-0.9,2.6-2,3.8-3.2c0.4-0.4,0.7-0.8,1.1-1.2c0-0.9,0-1.8,0-2.8v-4.9c-2.4-6.4-5.2-12.6-8.5-18.4
	C574.4,511.1,574.3,511.2,574.2,511.2z M575.6,510.7c2.8,5,5.2,10.2,7.4,15.6v-14.7c-0.5-0.8-1.1-1.7-1.6-2.5
	C579.5,509.5,577.5,510,575.6,510.7z M576.9,452.5c-3.5,3.8-5.8,8.7-6.2,13.4c-0.4,4.7,0.9,9.1,4.6,12.2c2.4,2,5.1,3,7.8,3.3v-10.3
	c-0.8-0.6-1.5-1.3-2.1-2.1c-2-2.9-2.3-6.8-0.2-9.9c0.7-1,1.4-1.9,2.3-2.7v-8.7C580.8,449,578.8,450.5,576.9,452.5z M508.2,463.2
	c-8.5-3.2-17.6-5.3-27.2-6.1l8.1,20.7L508.2,463.2z M581.7,468.5c0.4,0.5,0.8,1,1.3,1.4v-12.1c-0.5,0.6-1,1.2-1.4,1.8
	C579.7,462.5,579.9,466,581.7,468.5z M428.9,483.1c-0.4-0.3-0.6-0.6-0.9-0.7c-0.2-0.1-0.3-0.1-0.4-0.1c-0.1,0-0.1,0-0.1,0
	c-0.1,0-0.2,0.1-0.3,0.4c-0.1,0.3-0.1,0.6-0.1,1c0,0.9,0.2,2.3,0.7,4c0.9,3.5,2.8,8.5,5.9,15c1.7-1,3.6-1.9,5.4-2.7
	c-2.9-6.2-5.4-10.8-7.5-13.7C430.5,484.8,429.6,483.7,428.9,483.1z M580.3,549.4c1.2-0.3,2.3-0.6,3.5-0.8c-0.3-2.5-0.5-5.2-0.6-8
	c-1.3,1.3-2.8,2.5-4.3,3.4C579.3,545.7,579.8,547.5,580.3,549.4z M559.3,468.6c0.1,0,0.1,0.1,0.1,0.1c8.2,6.7,17,13,23.5,22.1v-8.3
	c-2.9-0.3-5.9-1.4-8.5-3.6c-4-3.3-5.4-8.1-5-13.1c0.5-5,2.8-10.1,6.6-14.1c2.1-2.3,4.5-4,6.9-5.3v-9.4c-1.8,0.6-3.5,1.3-5.2,2.1
	C564.8,445.7,559.2,457.4,559.3,468.6z M615.5,588.2c-0.3-1.4-1.1-2.6-2.5-3.6c0.8,2.5,1.3,5.2,1.7,7.9
	C615.6,591.4,615.9,590,615.5,588.2z M576.3,579.3c-0.8,3.4,0.1,6.9,3.4,9.2c1.3,0.9,2.7,1.4,3.9,1.5c0.1-6.3-0.3-12.5-0.9-18.7
	C579.4,573,577.1,576.1,576.3,579.3z M583.7,570.8c0.6,6.3,0.9,12.8,0.9,19.2c0.7,0,1.4-0.2,2-0.4c2.1-0.7,3.8-2.2,4.5-3.9
	c0.7-1.6,0.5-3.5-0.4-4.8c-0.9-1.2-2.2-2-4.3-1.7c-0.1,0.1-0.3,0.1-0.4,0.2c-0.9,0.3-1.4-0.9-0.5-1.2c2.3-0.9,4.6-1.2,6.6-0.9
	c-0.1-2.1-0.2-4.3-0.4-6.4c-0.4-0.5-0.8-1.1-1.1-1.7C588.4,569.3,586,569.8,583.7,570.8z M601.3,586.1c-1.5-4.5-5.7-7.9-11-7.7
	c1.6,0.5,2.9,1.4,3.9,2.7c1.8,2.5,2.3,6.1,0.7,9.6c-0.7,1.6-1.8,3-3.2,4h9.8C602.3,591.8,602.2,588.8,601.3,586.1z M554.1,588.3
	l-2.6,2.4c0,0,0,0.1,0,0.1l3,4h1.7c-0.3-0.7-0.7-1.5-0.9-2.3C554.7,591.2,554.4,589.8,554.1,588.3z M539.9,534.5
	c-0.2-0.1-0.3-0.3-0.2-0.4c-2.2-3.7-4.7-7.3-7.4-10.7c-4.7-5.8-10.1-10.9-16.2-15.1c-0.2,0-0.4-0.1-0.4-0.3
	c-8.9-6.2-19.1-10.5-30.3-12.6c-0.2,0.1-0.4,0.1-0.5-0.1c-4.5-0.8-9.1-1.2-13.9-1.2c-6.3,0-12.7,0.8-19.4,2.3
	c-0.1,0.2-0.3,0.2-0.5,0.1c-1.3,0.3-2.6,0.7-3.9,1c-6.8,2-13.3,5.1-19,9.3l4.1,6.1c9.5-5.5,21.5-9,35.3-8.8c4,0,8.2,0.4,12.5,1.1
	c32,5,59.3,36.1,61.1,73.2c2.2-0.8,4.2-1.8,6.2-3.1c0.1-0.1,0.2-0.1,0.3-0.1c0.4,0,0.6,0.3,0.6,0.6c-0.5,5.4,0.6,11.8,0.9,18.2
	c0,0.3,0,0.5,0,0.8h0.9C554,572.8,549.8,551.7,539.9,534.5z M560.7,564.8c-6,8.6-7.2,18.9-4.2,27.3c0.3,0.9,0.7,1.8,1.2,2.7h15.7
	c-1.1-0.8-2.2-1.7-3.1-2.8c-5.8-7.2-3.9-18.5,1.6-25.6c3.3-4.2,8.1-7.5,13.5-9.3c-0.6-2.2-1.1-4.7-1.4-7.4
	C574.9,551.6,566.5,556.5,560.7,564.8z M572.2,566.7c-5.4,6.9-7.2,18.1-1.6,25.1c1,1.2,2.2,2.2,3.5,3h17c1.5-1.1,2.7-2.5,3.5-4.2
	c1.5-3.4,1-6.9-0.7-9.2c-0.9-1.3-2.3-2.3-3.9-2.7c0.7,0.4,1.3,0.9,1.7,1.5c1.2,1.6,1.4,3.9,0.6,5.8c-0.9,2.1-2.8,3.8-5.2,4.6
	c-2.4,0.8-5.4,0.6-8-1.2c-3.6-2.5-4.7-6.5-3.8-10.3c0.9-3.8,3.7-7.4,7.9-9.2c2.3-1,4.6-1.6,6.9-1.8c-0.8-1.4-1.6-2.8-2.3-4.4
	c-0.8-1.8-1.6-3.8-2.2-6.1C580.1,559.3,575.4,562.5,572.2,566.7z M457.5,457.6c-6.4,0.8-13,2.1-19.6,4c-1.7,0.5-3.5,1.1-5.2,1.7
	l14.6,14.7L457.5,457.6z M609.9,582.9c0,0-0.1,0-0.1,0c0.5,3.7,0.9,7.6,1.1,11.7c0.9-0.2,1.8-0.6,2.7-1.2c-0.3-3.4-1-6.7-2.1-9.8
	C610.9,583.4,610.4,583.1,609.9,582.9z M604.9,580.6c-2-1-4.1-2.1-6.3-3.4c-2-1.1-3.8-2.7-5.5-4.8c0.1,1.6,0.2,3.3,0.2,4.9
	c4.4,0.9,7.9,4.2,9.3,8.4c0.9,2.8,1.1,6,0.4,9.1h2.2C605.3,590.2,605.2,585.4,604.9,580.6z M605.9,581.1c0.3,4.7,0.4,9.2,0.2,13.7
	h2.8c0.3,0,0.5,0,0.8-0.1c-0.2-4.5-0.6-8.6-1.2-12.5C607.7,581.9,606.8,581.5,605.9,581.1z M550.8,594.8h3.1l-2.6-3.5
	C551.2,592.5,551,593.7,550.8,594.8z M552.2,577.5c0.1,4.1-0.1,8.4-0.7,12.6l2.5-2.3c-0.6-3.4-0.6-7,0-10.6
	C553.4,577.4,552.9,577.4,552.2,577.5z M552.2,577.2c0.7-0.1,1.3-0.2,1.9-0.3c0.4-2.2,1.1-4.3,1.9-6.4c-1.3-0.2-2.6-0.3-4.2-0.4
	C552,572.5,552.2,574.8,552.2,577.2z M551.8,569.8c1.7,0,3.1,0.2,4.4,0.4c0.9-2.1,2-4.1,3.4-6.1c0.6-0.8,1.1-1.6,1.8-2.3l-11.3-2.9
	C550.8,562.4,551.4,566,551.8,569.8z M556.5,544.4c0.5-0.5,0.9-1,0.9-1.4c0-0.1,0-0.2,0-0.3c-0.2-0.2-0.4-0.4-0.6-0.7
	c-0.4-0.2-1-0.3-1.9-0.3c-2,0-5.2,0.6-9.9,2c0.7,1.7,1.4,3.5,2.1,5.3c2.9-0.8,5.3-1.9,7.1-3C555.2,545.5,556,544.9,556.5,544.4z
	 M562.4,546.3c-1.8-0.9-3.3-1.9-4.6-3.1c-0.1,0.5-0.5,1-1,1.5c-0.6,0.5-1.3,1.1-2.3,1.7c-1.8,1.1-4.3,2.2-7.2,3.1
	c1,2.8,1.8,5.7,2.5,8.7l12.8-11.7C562.6,546.4,562.5,546.4,562.4,546.3z M564.6,517.5c3.7,8.5,6.5,17.5,8.3,26.8
	c1.5-0.5,3-1.2,4.4-2.1c-2.8-9.4-6.4-18.3-10.8-26.4C565.8,516.3,565.2,516.9,564.6,517.5z M556.5,541.6c-0.9-1.2-1.6-2.6-1.9-3.9
	c-0.1-0.3-0.1-0.6-0.2-0.8l-13.7-2.2c1.6,2.8,3.1,5.8,4.4,8.8c4.7-1.4,8-2,10-2C555.6,541.4,556.1,541.5,556.5,541.6z M581.2,427.3
	c0.2,2,0.2,4.1,0,6.4c-0.1,0.3-0.4,0.6-0.8,0.5c-3.6-1-7.4-1.2-11.1-1c-6.9,4.5-12.2,10.8-15.6,18v12.5c1.5,1.4,3,2.7,4.6,4
	c0.1-11.3,6-22.9,18.9-29.3c1.8-0.9,3.8-1.7,5.7-2.3v-9.2C582.4,427.1,581.8,427.2,581.2,427.3z M563.5,556l3,0.6
	c2.1-1.7,4.3-3.2,6.7-4.4c-0.2-1.6-0.4-3.1-0.7-4.7L563.5,556z M574.1,551.7c1.7-0.8,3.4-1.5,5.2-2.1c-0.4-1.7-0.9-3.4-1.3-5.1
	c-1.5,0.9-3.1,1.6-4.7,2.1C573.6,548.3,573.9,550,574.1,551.7z M562.9,556l9.3-8.8c0,0,0.1,0,0.1-0.1c0-0.1,0-0.1,0-0.2
	c-3.3,0.9-6.5,0.8-9.3-0.3l-13,11.8l11.6,3c1.4-1.7,2.9-3.2,4.5-4.5l-3.1-0.6C562.9,556.2,562.8,556,562.9,556z M458.8,457.4
	c0,0.1,0,0.1-0.1,0.2l-10.8,21.7c-0.2,0.4-0.7,0.4-1,0.1l-15.5-15.6c-3.5,1.4-7,3-10.2,4.9l29.9,27l17.8-38.9
	C465.6,456.8,462.2,457,458.8,457.4z M509.5,463.7C509.4,463.7,509.4,463.8,509.5,463.7l-20.1,15.5c-0.3,0.2-0.8,0.1-0.9-0.3
	l-8.6-21.9V457c-2.5-0.2-5-0.3-7.5-0.3h-2.1l15.1,37.8l32.1-27.3C514.8,465.9,512.2,464.7,509.5,463.7z M510.1,485.5
	c0-0.4-0.1-0.7-0.2-0.9c-0.1-0.2-0.2-0.3-0.4-0.4c-0.1,0-0.1-0.1-0.3-0.1c-0.3,0-0.7,0.2-1.2,0.6c-0.7,0.5-1.6,1.3-2.6,2.5
	c-2,2.3-4.6,6-7.7,10.9c2.8,1,5.5,2.1,8.2,3.4c0,0,0-0.1,0-0.1c2.1-5.6,3.4-9.8,3.9-12.7C510.1,487.4,510.2,486.3,510.1,485.5z
	 M485.9,495c3.9,0.7,7.7,1.8,11.4,3.1c0,0,0,0,0,0c3.1-5,5.7-8.6,7.8-11c1-1.2,1.9-2,2.7-2.6c0.7-0.5,1.4-0.8,1.9-0.6
	c0.3,0.1,0.4,0.3,0.6,0.6c0.1,0.3,0.2,0.6,0.3,1c0.1,0.8,0,2-0.3,3.4c-0.6,2.9-1.9,7.2-4,12.7c0,0.1-0.1,0.1-0.1,0.1
	c3.3,1.6,6.5,3.5,9.5,5.6l2.1-39.5L485.9,495z M451.9,495.9c4.4-1,8.7-1.6,13-2c0.1-7.2,0.6-12.6,1.4-16.3c0.4-1.8,0.8-3.2,1.3-4.2
	c0.2-0.5,0.4-0.8,0.7-1.1c0.2-0.3,0.5-0.4,0.8-0.4c0.3,0,0.6,0.1,0.8,0.3c0.2,0.3,0.5,0.6,0.7,1c0.4,0.9,0.8,2.3,1.1,4.1
	c0.6,3.6,0.9,9,0.8,16.3c4.1,0.1,8.2,0.5,12.1,1.1l-15-37.6L451.9,495.9z M470.2,473.5c-0.2-0.5-0.4-0.7-0.6-0.9
	c-0.2-0.2-0.4-0.3-0.5-0.3c-0.2,0-0.4,0.1-0.6,0.3c-0.2,0.2-0.4,0.6-0.6,1c-0.4,0.9-0.9,2.3-1.2,4.1c-0.7,3.6-1.3,9-1.3,16.2
	c2.3-0.1,4.5-0.2,6.8-0.2c0.1-7.3-0.2-12.7-0.8-16.2C471,475.6,470.6,474.3,470.2,473.5z M568.6,531.8l-11.8-1.7
	c-0.6,2.2-0.6,4.3-0.2,6.3l14,2.2c-0.6-2.3-1.2-4.5-1.9-6.8C568.8,531.9,568.7,531.9,568.6,531.8z M563.4,544.3
	c0.4,0.2,0.7,0.3,1.1,0.5l5.9-5.4l-13.6-2.2C557.7,540.1,559.7,542.5,563.4,544.3z M540.8,511.8c0.1-0.3,0.1-0.6,0.1-0.8
	c0-0.2-0.1-0.3-0.1-0.4c-0.1-0.1-0.4-0.2-0.8-0.2c-0.1,0-0.3,0-0.4,0.1c-0.7,0.1-1.6,0.5-2.8,1c-2.3,1.1-5.4,3-9.4,5.7
	c1.7,1.7,3.4,3.5,4.9,5.4c0,0,0,0,0,0c3.4-3.5,5.7-6.3,7.2-8.4C540.2,513.2,540.6,512.4,540.8,511.8z M555.5,526.6
	c1.5-3.8,4.1-7.5,7.3-10.6c-0.9-2.1-1.9-4.1-3-6.1l-8.1,18.4l3.1,0.5C555,528,555.2,527.2,555.5,526.6z M557.1,529l11.3,1.6
	c-1.3-4.3-2.9-8.4-4.6-12.4c-2.7,2.7-4.9,5.9-6.1,9.1C557.5,527.9,557.3,528.5,557.1,529z M571.9,544.6c-0.3-1.7-0.7-3.4-1.1-5.1
	l-5.9,5.3C567.1,545.4,569.4,545.3,571.9,544.6z M473.2,572.9c4.7,1.7,8.9,2.9,12.5,4.1c1.7-4,2.1-7,1.8-9.5
	c-0.4-2.6-1.7-4.6-3.3-6.7c-3.1-3.9-7.6-7.7-9.9-14.9c-0.7,3.8-3.1,7.2-4.9,10.9c-1.2,2.4-2.1,5-2.2,7.9l5.5,8.2
	c0.1-0.1,0.2-0.1,0.3-0.1C473.1,572.9,473.2,572.9,473.2,572.9z M430.1,402.8c0.1-1.8,0.2-3.9,0.2-5.9c-3.4-0.6-6.5-1.9-9.3-3.6
	C424.2,396.4,427.3,399.6,430.1,402.8z M407.9,382.3c0.9,0.7,1.7,1.3,2.6,2c0.1-1.4,0.3-2.6,0.4-3.9c-0.4-1.3-0.7-2.7-0.8-4.1
	C409.5,378.3,408.8,380.4,407.9,382.3z M431.5,397.2c0,2.4-0.1,5-0.3,6.9c3.4,3.9,6.5,8,9.5,12.2c0.6-6.2,1.3-12.6,1.5-19.5
	C438.5,397.6,434.9,397.7,431.5,397.2z M411.2,384.8c1.1,0.9,2.3,1.9,3.4,2.8c-1.3-1.7-2.4-3.5-3.2-5.6
	C411.4,383,411.3,383.9,411.2,384.8z M408.6,348c0.4,8.8-2.4,16.8-10,20.8c-2.7,1.4-5.8,2-8.6,1.9c6.2,3.4,12,7.2,17.6,11.4
	c1-2.1,1.8-4.6,2.3-7.1c-0.2-2.9,0.1-5.9,1.1-9.1c-0.2-6-1-11.8-2-17.9C408.9,348,408.8,348,408.6,348z M449.1,394.6
	c0,3.8,0,7.2-0.3,10.5c2.4-5.1,5.1-10.2,8-15.1C454.3,391.9,451.7,393.4,449.1,394.6z M448.7,394.8c-2,0.9-4,1.5-6.1,2
	c-0.2,7.2-0.9,13.7-1.6,20.1c0.6,0.8,1.1,1.7,1.7,2.5c1.7-4.4,3.6-8.9,5.6-13.2C448.6,402.5,448.7,398.9,448.7,394.8z M375.3,408.9
	l-6.1,7.8c9.8,6.3,18.6,14,25.8,22.9l8.1-5.3C395.5,424.5,386.1,415.8,375.3,408.9z M403.5,434.1l8.9-5.8
	c-8.2-11-18.4-20.7-30.1-28.5l-6.8,8.7C386.3,415.6,395.8,424.2,403.5,434.1z M421.1,422.7l7.8-5.1c-9.6-12.7-21.4-23.7-35-32.6
	l-5.4,6.9C401.1,400.3,412.2,410.8,421.1,422.7z M517.1,543c-4.9,5.6-10.9,10.6-15.7,16.1c-4.9,5.6-8.6,11.8-8.8,20.1
	c1.4,0.4,2.7,0.9,3.9,1.4c1.5,0.5,2.9,1.1,4.2,1.8c0.1-6.4,2.3-11.1,5.1-15.1c3-4.1,6.8-7.5,9.9-11.4c0-0.1,0.1-0.1,0.2-0.1
	c0.1,0,0.1,0.1,0.1,0.1c2.1,4.1,5.4,7.2,7.7,11.2c2.3,3.8,3.6,8.4,2,15.2c1-0.3,2-0.5,3-0.7c2.1-0.4,4.2-0.8,6.2-1.2
	c1.2-8.1-1.7-14.3-5.7-20.2C525.2,554.4,520.3,549.1,517.1,543z M375.6,354.9c0.6-4.6,3-7.8,6.2-9.6c-3.7-1.7-6.8-3.9-9.3-6.5
	c1.9,8.3,2.9,16.6,3.2,25c1,0.4,2,0.9,3,1.3C376.5,362.3,375.1,358.7,375.6,354.9z M330.3,291.6c0.3-0.6,0.4-1.2,0.1-1.7
	c-0.2-0.5-0.7-0.9-1.5-1c-0.3-0.1-0.7-0.1-1.1-0.1c-0.7,0-1.5,0.1-2.4,0.4c-6.1,1.6-12.7,4.6-20.4,8.4c1.9,0.3,3.8,0.6,5.7,1.1
	c0.8,0.2,1.6,0.4,2.4,0.6c6.4-2,11.5-3.6,15.3-5.9C329.3,292.9,329.9,292.2,330.3,291.6z M342.8,295.1c3.1-6,5-12.5,8-17.6
	c-6.5-0.1-12.9-0.7-19.4-0.7c-8.2,0-16.5,1.1-25.1,5.7c-2.7,5.5-7.2,10.9-14.6,15.8c2.7-0.6,5.2-0.9,7.6-0.9c1.6,0,3.2,0.1,4.8,0.2
	c8-4,14.9-7.2,21.3-8.9c0.8-0.2,1.4-0.3,2.1-0.4c0.6,0,1.1,0,1.6,0.1c0.9,0.2,1.6,0.7,1.9,1.4c0.3,0.6,0.2,1.4-0.1,2.2
	c-0.4,0.7-1.1,1.4-2,2c-3.7,2.2-8.5,3.8-14.5,5.7c6,1.6,11.8,3.3,18.6,3.2c0.4,0,0.7,0.5,0.4,0.8c-1.9,1.8-3.4,3.8-4.7,6
	C335.7,306.3,339.8,300.9,342.8,295.1z M308.6,272c0.1-0.4,0.1-0.7,0.2-1.1v-0.1c1.2-7.6,0.8-15.4,1.9-23.1
	c-0.1-0.2-0.1-0.5,0.1-0.7c0.2-1.2,0.4-2.4,0.7-3.6c-1.7,0.3-3.3,0.5-5,0.7c-0.2,0.2-0.5,0.2-0.7,0.1c-14.7,1.8-28.9,2.2-45.5,14.5
	c0.4,4.3,0.5,8.6-0.4,12.9c17.4-12.8,27.7-11.3,39.9-13.8c0,0,0,0,0,0c0.1,0,0.2,0.1,0.2,0.3c-1.8,5.6-1.9,11.3-3.4,17
	c-1.4,5.6-4.1,11.2-10.8,16.6c0.3,2.6,0.4,5.3,0.4,7.9v0.3c0.7-0.3,1.5-0.5,2.2-0.7C302.3,290.7,306.9,281.6,308.6,272z
	 M309.9,270.1c3.9-1.9,7.9-2.9,11.9-3.4c-3.4-3.2-7.2-6.4-11-9.3C310.7,261.6,310.5,265.9,309.9,270.1z M322.8,266.6
	c2.3-0.3,4.6-0.3,6.8-0.3c0.8,0,1.6,0.1,2.4,0.1c-6.1-6.4-13.2-12.6-20.4-18c-0.4,2.7-0.5,5.4-0.7,8.1
	C315,259.6,319.2,263.1,322.8,266.6z M360.8,341.2c-3.2,5-6.8,10-13.3,13.8c6.4,1.4,12.7,3.1,18.8,5.2c-0.6-7.5-1.7-14.9-3.5-22.3
	C362.2,338.9,361.5,340.1,360.8,341.2z M429.5,418.4l-33.8,21.9c1.6,2,3.2,4.1,4.7,6.3l35-19.6C433.5,424.1,431.6,421.2,429.5,418.4
	z M401.6,443c-0.9,0-1.7-0.7-1.7-1.7c0-0.9,0.8-1.7,1.7-1.7c1,0,1.8,0.8,1.8,1.7C403.3,442.3,402.5,443,401.6,443z M407.2,439.6
	c-1,0-1.8-0.7-1.8-1.7c0-0.9,0.8-1.7,1.8-1.7s1.7,0.8,1.7,1.7C408.9,438.9,408.1,439.6,407.2,439.6z M413,436.1
	c-1,0-1.8-0.8-1.8-1.7c0-0.9,0.8-1.7,1.8-1.7c1,0,1.7,0.8,1.7,1.7C414.7,435.3,414,436.1,413,436.1z M418.6,432.7
	c-1,0-1.7-0.8-1.7-1.7c0-0.9,0.8-1.7,1.7-1.7c1,0,1.8,0.8,1.8,1.7C420.3,431.9,419.5,432.7,418.6,432.7z M424.1,429.4
	c-1,0-1.7-0.8-1.7-1.7c0-0.9,0.8-1.7,1.7-1.7c1,0,1.8,0.8,1.8,1.7C425.9,428.7,425.1,429.4,424.1,429.4z M429.3,426.3
	c-1,0-1.8-0.8-1.8-1.7c0-0.9,0.8-1.7,1.8-1.7c0.9,0,1.7,0.8,1.7,1.7C431,425.5,430.2,426.3,429.3,426.3z M367.4,331.6
	c-1.4,1.7-2.7,3.5-3.9,5.4c1.9,7.7,3.1,15.6,3.7,23.5c2.4,0.9,4.9,1.8,7.3,2.8c-0.3-8.8-1.5-17.5-3.6-26.3
	C369.5,335.3,368.3,333.4,367.4,331.6z M329.6,316.7c11.5-4.5,17.2-10.9,21.3-18.7c0.7-1.4,1.4-2.9,2.1-4.4c-0.1-0.2,0-0.5,0.2-0.6
	c2.9-6.5,5.4-13.9,9.5-21.7c-8.6-0.5-17.4-2.6-26.3-3.6c-0.9-0.1-1.8-0.2-2.8-0.3c-0.2,0.1-0.4,0.1-0.6-0.1
	c-1.7-0.1-3.4-0.2-5.1-0.2c-6.1,0-12.3,1.1-18.3,4.1c0,0.3-0.1,0.6-0.1,0.9c-0.6,3.3-1.5,6.5-3,9.7c9.6-5,18.8-5.7,27.8-5.4
	c5.6,0.1,11.2,0.7,16.8,0.7c0.1,0,0.2,0.2,0.2,0.3c-3.1,5.2-5.1,11.8-8.2,17.9c-3.1,6-7.3,11.6-15,14.8c-1.2,2.1-2.2,4.4-3.1,6.7
	c1.2-0.1,2.3-0.1,3.4-0.1C328.8,316.7,329.2,316.7,329.6,316.7z M360,340.7c3.2-5,6-10,10.8-13.8c-9.6-1.1-15.6-3.5-21.8-5.7
	c-5.6-1.9-11.4-3.6-20.6-3.6c-1.2,0-2.5,0-3.8,0.1c-0.2,0.5-0.4,0.9-0.6,1.4c-1.7,4.2-3.6,8.4-6.8,12.1c1.4-0.2,2.8-0.3,4.1-0.3
	c4.7-0.1,8.7,0.4,12.5,1.1c5.1,0.9,9.9,2.1,15.9,2.2c0.2,0,0.3,0.2,0.1,0.3c-3.4,3.9-6.4,8.2-10.4,11.6c-3.2,2.8-7,5-12,5.9
	c6.3,0.5,12.6,1.4,18.7,2.6C352.9,351,356.7,345.9,360,340.7z M398.4,368.4c7.4-3.9,10.1-11.7,9.8-20.3c-3.5,0.6-6.8,0.8-10,0.8
	c0.7,1,1.3,2.2,1.7,3.6c0.8,2.7-0.1,5.8-2,8c-1.9,2.2-5,3.5-8.6,2.4c-2.8-0.8-4.6-3-4.9-5.3c-0.4-2.3,0.7-4.7,3.6-5.8
	c2-0.7,4.1,0.3,4.8,1.5c0.5,0.8,0.5,1.8,0.1,2.6c-0.4,0.8-1.2,1.5-2.4,1.8c-0.2,0.1-0.3-0.3-0.1-0.3c1.1-0.3,1.8-0.9,2.2-1.6
	c0.4-0.7,0.3-1.5-0.1-2.2c-0.6-1.1-2.5-2-4.3-1.3c-2.7,1-3.7,3.2-3.3,5.4c0.3,2.2,2,4.3,4.7,5c3.5,1,6.4-0.2,8.2-2.3
	c1.9-2.1,2.7-5.1,1.9-7.6c-0.4-1.4-1-2.6-1.8-3.7c-2.6-0.1-5-0.3-7.3-0.8c-3-0.6-5.7-1.5-8.2-2.6c-3.2,1.7-5.7,4.8-6.3,9.4
	c-0.5,4,1.1,7.8,3.6,10.5c3.3,1.5,6.5,3.1,9.6,4.8C392.2,370.5,395.5,369.9,398.4,368.4z M412.8,428.1l8-5.2
	c-8.9-11.9-19.9-22.3-32.5-30.7l-5.7,7.3C394.3,407.4,404.5,417,412.8,428.1z M510.9,591.4c-4.5-5.1-9-7.7-14.8-9.9
	c-5.7-2.1-12.8-3.9-22.3-7.2c0,0.1,0,0.2,0,0.3l9.2,13.7c-0.1-1-0.3-2.1-0.6-3.1c0-0.1,0.1-0.2,0.2-0.2c0,0,0.1,0,0.1,0
	c5.7,2.5,10.2,3.9,14,5.8c2.3,1.1,4.3,2.4,6.3,4h10.3c-0.6-1.1-1.4-2.2-2.3-3.2C511,591.5,510.9,591.5,510.9,591.4z M482.9,585.5
	c0.3,1.2,0.4,2.3,0.6,3.5l3.9,5.8h15.1c-1.8-1.5-3.8-2.6-5.9-3.7C492.9,589.4,488.5,587.9,482.9,585.5z M353.1,269.3
	c1.4,0.2,2.9,0.4,4.3,0.6c-0.5-0.7-1.5-1.1-2.5-1.1C354.3,268.8,353.7,269,353.1,269.3z M449.5,538.6l2.6,3.9
	c0.5-0.9,0.9-1.9,1.5-2.8C452.2,539.1,450.9,538.8,449.5,538.6z M471.3,527.1c0-0.1,0.1-0.1,0.2-0.1c0.1,0,0.1,0,0.1,0.1
	c4,6.4,10.4,10.3,15.6,15.6c4.9,5,8.7,11.4,8.2,22.4c1.4-2.4,3.1-4.6,5-6.7c0.1-0.1,0.2-0.2,0.3-0.3c0.7-10.9-3.7-16.4-9.9-21.7
	c-6.1-5.3-13.9-10.3-19.8-19.8c-4.8,7.9-11.3,15.2-15.9,23c-0.8,1.4-1.5,2.8-2.2,4.1l5.6,8.3c0.6-2.3,1.5-4.4,2.6-6.4
	C464.3,539.2,469.1,533.7,471.3,527.1z M473.9,544.7c0-0.1,0.1-0.3,0.3-0.3c0.1,0,0.3,0.1,0.3,0.2c2.1,7.9,6.8,11.8,10.2,15.9
	c1.7,2.1,3,4.2,3.4,6.9c0.4,2.6,0,5.7-1.8,9.7c1.8,0.5,3.4,1,5,1.5c0.2-4.9,1.6-9.1,3.7-12.9c0.7-11.4-3.1-17.8-8.1-22.9
	c-5-5.2-11.3-9-15.4-15.3c-2.3,6.5-7,12-10.1,18c-1.1,2.1-2.1,4.3-2.7,6.7l7.9,11.7c0.2-2.7,1.1-5.1,2.2-7.4
	C470.9,552.4,473.6,548.8,473.9,544.7z M523.5,567.1c-2.3-3.8-5.5-6.9-7.6-11c-3.2,3.9-6.8,7.2-9.7,11.2c-2.9,4-5,8.6-5.1,15
	c1.8,0.9,3.4,1.8,5.1,3c0.3-7.7,4.2-11.1,7-15.6c0.1-0.1,0.1-0.1,0.2-0.1c0.1,0,0.2,0.1,0.3,0.2c1.9,4.9,4.6,9.8,3.8,15.3
	c2.4-1.4,5.1-2.3,7.8-3C527,575.4,525.7,570.9,523.5,567.1z M506.7,585.9c1.6,1.2,3.2,2.7,4.7,4.4c1.6-2,3.5-3.5,5.5-4.7
	c0.9-5.2-1.6-10-3.5-14.9C510.5,575.1,506.9,578.4,506.7,585.9z M511.1,547.6c-8.4-14.2-21.5-22.8-35.3-26.4
	c5.1,6.1,10.9,10.1,15.8,14.3c6,5.2,10.7,10.9,10.4,21.2C504.9,553.5,508.1,550.6,511.1,547.6z M541.3,587.3c-5,1.9-9.6,2.7-13.8,4
	c-2.7,0.8-5.2,1.8-7.5,3.5h21.6C541.7,592.4,541.6,589.9,541.3,587.3z M547.1,576.9c-3.5,2.3-7.5,3.4-11.5,4.3c-0.1,0-0.1,0-0.2,0
	c-2.2,0.5-4.4,0.9-6.5,1.3c-6.4,1.3-12.4,3.1-16.8,8.6c1,1.2,1.8,2.4,2.5,3.7h4.6c2.5-1.8,5.2-3,8-3.8c4.3-1.3,9-2.1,14.1-4.1h0.1
	c0.1,0,0.2,0.1,0.2,0.2c0.3,2.7,0.4,5.3,0.3,7.8h6.2c0-0.2,0-0.5,0-0.7C547.8,588.2,546.9,582.3,547.1,576.9z M427.6,432.4
	c4.3,7.1,8,14.6,10.8,22.4c3-1,6.2-1.8,9.4-2.6c-3.1-8.6-7.1-16.8-11.9-24.5L427.6,432.4z M482.8,449.8c0.3-0.9,0.6-1.8,0.9-2.8
	l-10.2-2.4c-0.4,1-1.5,1.6-2.6,1.6c-1.6,0-2.8-1.2-2.8-2.7c0-1.5,1.2-2.7,2.8-2.7c1.6,0,2.8,1.2,2.8,2.7c0,0.3,0,0.5-0.1,0.7
	l10.2,2.5c0.8-2.2,1.6-4.3,2.5-6.4c-8.9-3.3-16-4.7-21.1-4.7c-0.4,0-0.7,0-1,0c-2.7,0.1-4.7,0.6-6.2,1.4c-1.5,0.8-2.4,1.8-2.7,3
	c-0.4,1.6,0.3,3.4,2.2,5.2c1.7,1.6,4.5,3.2,8.5,4.5c0.3,0,0.6-0.1,0.9-0.1c1.9-0.1,3.7-0.2,5.5-0.2
	C475.9,449.5,479.4,449.6,482.8,449.8z M400.9,447.4c4,5.9,7.4,12.2,10,18.9c2.6-1.4,5.4-2.7,8.2-3.9c-2.6-6.9-5.9-13.4-9.9-19.6
	L400.9,447.4z M409.5,442.6c4,6.2,7.3,12.7,9.9,19.6c2.9-1.3,6-2.6,9.2-3.8c-2.6-7.3-6-14.3-10-20.9L409.5,442.6z M467.6,519.5
	c-2.8-0.3-5.6-0.5-8.4-0.5c-7.2,0-14.2,1.4-20.4,3.8l9.9,14.7c1.8,0.2,3.5,0.6,5.3,1.3C458,532.2,463.2,525.9,467.6,519.5z
	 M450.5,534.2c-2.7,0-4.9-2.1-4.9-4.7c0-2.6,2.2-4.7,4.9-4.7c2.7,0,4.9,2.1,4.9,4.7C455.4,532.1,453.2,534.2,450.5,534.2z
	 M469.2,455.8c17.1-0.4,33,3.2,47.2,9.9l-6.1-9.1c-0.8-0.3-1.7-0.6-2.5-0.8c-0.2,0.1-0.5,0-0.6-0.2c-5.7-1.7-11.7-3-17.9-3.9v0
	c-0.6,0.2-1.2,0.5-1.8,0.7c-0.6,0.3-1.1-0.5-0.6-0.9c0,0,0.1-0.1,0.1-0.1c-1.2-0.1-2.4-0.3-3.7-0.4c-0.1,0-0.1,0-0.2,0
	c-3.5-0.3-7.1-0.4-10.7-0.4c-1.8,0-3.6,0.1-5.5,0.2c-24.8,1.3-45.4,10.3-61,23.1l2.1,3.1c8.4-7.4,18.4-13.1,29.6-16.3
	C448.5,457.6,459.1,456,469.2,455.8z M419,437.3c4,6.6,7.4,13.6,10,20.9c1.3-0.5,2.5-1,3.8-1.4c0.1,0,0.1,0,0.2,0c0,0,0,0,0,0
	c1.6-0.7,3.3-1.2,5-1.8c-2.8-7.8-6.4-15.3-10.7-22.4L419,437.3z M427.3,487.8c-0.5-1.8-0.7-3.1-0.7-4.1c0-0.5,0.1-0.9,0.1-1.2
	c0.1-0.3,0.3-0.5,0.6-0.6c0.2-0.1,0.6,0,0.9,0.1c0.3,0.1,0.6,0.4,1,0.7c0.7,0.7,1.6,1.8,2.7,3.3c2,3,4.6,7.6,7.5,13.8
	c2.5-1.1,5.1-2,7.7-2.8c1.2-0.3,2.4-0.7,3.5-0.9L421,469.5l2.5,30.6l4.3,6.4c1.7-1.2,3.5-2.4,5.4-3.5
	C430.1,496.4,428.3,491.3,427.3,487.8z M408.6,477.8l4.2,6.2l-0.6-9.2C410.9,475.8,409.7,476.8,408.6,477.8z M468.3,518.5
	c0.7-1.1,1.5-2.2,2.1-3.4c0.1-0.2,0.3-0.3,0.6-0.3c0.2,0,0.4,0.1,0.5,0.3c1,1.7,2,3.2,3.1,4.6c14.6,3.5,28.5,12.3,37.4,27.1
	c1.6-1.6,3.3-3.3,4.8-5.1c0.1-0.1,0.3-0.2,0.5-0.2c0.2,0,0.4,0.1,0.5,0.3c3.1,6.2,8.3,11.6,12.4,17.7c4,5.8,7,12.3,6,20.5
	c1.6-0.4,3.2-0.8,4.7-1.3c-1.7-37-28.9-67.9-60.7-73c-4.3-0.7-8.5-1-12.5-1.1c-13.8-0.1-25.7,3.3-35.1,8.8l5.7,8.4
	c6.4-2.5,13.6-3.9,21-4C462.3,517.9,465.3,518.1,468.3,518.5z M413.2,473.9c0,0.1,0,0.1,0,0.2l0.8,11.8l8.6,12.8l-2.4-29.5
	C417.8,470.7,415.5,472.3,413.2,473.9z M263.1,436c-0.1-3.6,0.4-6.8,1.4-9.4c0.6-1.6,1.4-3.1,2.3-4.3l-0.8-1.7
	c-2.1,1-4.2,2.1-6.3,3.3v6L263.1,436z M581.9,269.2c-1.1-1.2-2.2-2.3-3.3-3.4l-5,1.1c-0.1,0-0.2-0.1-0.2-0.1l-0.3-5.8
	c-1.4-1.1-2.8-2.2-4.3-3.3l0.9,13.9L581.9,269.2z M568,257.9l-12.4,5.8c4.6,2,9,4.5,13.2,7.4L568,257.9z M579.8,293.3
	c1.1-0.3,2.3-0.7,3.4-1c0.1-1.6,0.3-3.2,0.4-4.7c-9.5-14.1-24.3-23.1-39.7-27c-0.4-0.1-0.8-0.2-1.3-0.3c1.6,2.2,3.1,4.7,4.5,7.3
	C560.1,271.9,572,280.3,579.8,293.3z M462.7,385.7l-0.4-0.6c-0.1,0.1-0.2,0.1-0.4,0.2C462.2,385.4,462.4,385.6,462.7,385.7z
	 M558.2,257l5.6-2.7c-2.2-1.4-4.5-2.7-6.8-3.9L558.2,257z M580.3,281.6l1.4-11.6l-11.4,2.2C573.9,275,577.2,278.1,580.3,281.6z
	 M554,263l-2.7-14.1l-11,8.4c0.5,0.6,1,1.3,1.5,1.9c0.8,0.2,1.6,0.4,2.4,0.6C547.5,260.6,550.8,261.7,554,263z M539.9,250.5l6.1-4.9
	c-2.9-1-5.7-1.9-8.7-2.7L539.9,250.5z M574.2,295.2c1.7-0.6,3.4-1.1,5.1-1.6c-7.6-12.6-19.2-20.9-31.7-25.1c1.3,2.5,2.4,5.3,3.3,8.3
	C560,279.8,568.4,285.7,574.2,295.2z M578.3,265.6c-1.6-1.5-3.2-3-4.9-4.4l0.3,5.4L578.3,265.6z M565.6,316.5
	c-0.9-0.5-1.8-0.7-2.7-0.7c-0.9,0-1.7,0.2-2.6,0.6c-0.8,0.4-1.4,0.9-1.9,1.4c2,3.7,3.3,7.9,2.9,12.9c2.6-2,5.2-4.2,7.7-6.9
	c0.1-0.1,0.3-0.2,0.4-0.2c0.3,0,0.5,0.2,0.6,0.5c1.5,8.6,6.6,16.1,10.1,24.2c1-0.4,1.9-0.9,2.9-1.3v-1.4c-4-10.8-7.9-18.9-11.6-23.9
	C569.4,319.2,567.4,317.4,565.6,316.5z M583,374.1v-7.3c-0.3,2.1-0.9,4.3-1.8,6.6L583,374.1z M583,306.6v-7.2c0-1.9,0.1-3.7,0.1-5.5
	c-10.1,2.9-19.9,6.6-29.3,11v6.1c1.4,1.8,2.7,3.6,3.9,5.5C565.9,312.7,574.3,309.4,583,306.6z M579.2,311c-0.9,1.6-1.4,3.8-1.4,6.9
	c-0.1,5.7,1.4,14.1,5.3,26.4v-36.4c-0.1,0-0.3,0.1-0.4,0.1C581.2,308.5,580,309.4,579.2,311z M576,407.9l2.1,10.8
	c0.4,0.6,0.8,1.2,1.1,1.9c0.9,1.8,1.6,3.9,1.9,6.2c0.6-0.2,1.2-0.3,1.8-0.4v-20.5c-1.9,0.1-3.9,0.2-5.8,0.5
	C576.8,406.9,576.4,407.4,576,407.9z M551.3,278.1c0.9,3.2,1.5,6.7,1.9,10.5c0.3-0.1,0.7-0.1,1-0.1c3.2,0,5.8,2.5,5.8,5.6
	c0,3.1-2.6,5.6-5.8,5.6c-0.1,0-0.3,0-0.4,0v3.6c6.3-2.9,12.7-5.4,19.3-7.7C567.6,286.7,559.7,281.1,551.3,278.1z M577.9,380.2
	c1.7,0.5,3.4,1.2,5.1,2v-7.4l-2-0.8C580.2,375.9,579.2,378,577.9,380.2z M577.8,405.5c1.7-0.2,3.5-0.3,5.2-0.4v-6.5
	c-0.1,0.2-0.3,0.3-0.4,0.5C580.9,401,579.4,403.2,577.8,405.5z M580.7,349.8c1.1,2.7,1.9,5.5,2.3,8.4v-9.9c-0.8,0.4-1.6,0.7-2.5,1.1
	C580.6,349.6,580.6,349.7,580.7,349.8z M384.4,323.4c1,5.8,5.5,10.9,13.4,13c7.1,1.9,16.9,1.2,29.1-3.7l-5.1-7.6
	c-4.7,1.4-8.5,1.7-11.4,1.4c-2-0.2-3.6-0.8-4.8-1.6c-1.1-0.8-1.8-1.8-1.9-2.9c-0.3-2.2,1.5-4.6,5.2-6.1c1.6-0.6,3.5-1.1,5.7-1.4
	l-8.7-12.9c-5.5,1-9.9,2.9-13.3,5.2C386.1,311.3,383.5,317.7,384.4,323.4z M551.9,248.1l2.9,15L568,257c-1.3-0.9-2.6-1.8-3.9-2.6
	l-6,2.9c-0.1,0-0.2,0-0.2-0.1l-1.2-7c-3.4-1.7-6.8-3.2-10.3-4.5l-6.4,5.2c-0.1,0.1-0.2,0-0.3-0.1l-2.7-8c-1.7-0.4-3.3-0.8-5-1.1
	c0,0,0,0,0,0.1l3.8,10.6c1.4,1.3,2.8,2.8,4.1,4.3l11.5-8.8C551.6,247.7,551.9,247.9,551.9,248.1z M553.4,232.3c-0.2,0-0.4,0-0.6-0.1
	c0.2,0.1,0.4,0.1,0.5,0.2L553.4,232.3z M620.6,229.8c0.8-1.2,1.2-2.2,1.3-2.8c0.1-0.3,0-0.6-0.1-0.7c-0.1-0.1-0.2-0.2-0.4-0.3
	c-0.1,0-0.2-0.1-0.3-0.1c-0.4,0-1,0.1-1.6,0.4c-0.9,0.4-2.1,1-3.4,1.9c-2.5,1.8-5.6,4.5-8.8,8.3c1.4,1.1,2.7,2.3,4,3.5
	C616.1,235.6,619.1,232.2,620.6,229.8z M391.8,291.3c2.1-0.5,4.3-0.9,6.6-1.2l-5.4-8c-3.6-2-6.7-4.2-9.4-6.5
	C386.5,280.7,389.3,286,391.8,291.3z M574.2,244.6l10.5-12.4c-3.8,0.4-7.6,0.7-11.7,0.8l-5.1,7.3
	C570.1,241.6,572.2,243.1,574.2,244.6z M404.4,321.8c0.1,0.9,0.6,1.8,1.7,2.5c1,0.7,2.5,1.3,4.5,1.5c2.7,0.3,6.4,0,11-1.3l-6.4-9.6
	c-2.3,0.3-4.3,0.7-5.8,1.4C405.7,317.8,404.1,320,404.4,321.8z M567.7,240.1l4.9-7.1c-1.4,0-2.8,0.1-4.2,0.1c-1.9,0-3.8,0-5.6-0.1
	l-1.8,3.2C563.3,237.4,565.5,238.7,567.7,240.1z M366.6,325.4L366.6,325.4c1.6,0.3,3.4,0.5,5.4,0.7c0.4,0.1,0.6,0.6,0.3,0.9
	c-1.5,1-2.7,2.2-3.9,3.5c3.6,7.8,11.3,14.2,22.4,16.4c10.5,2,24.2,0.2,40.3-8.1l-3.8-5.7c-12.3,5-22.2,5.6-29.4,3.7
	c-8-2.1-12.7-7.4-13.7-13.3c-1-5.9,1.7-12.4,8.5-17c3.4-2.3,7.8-4.2,13.3-5.2l-6.7-10c-9.5,1.2-16.7,4.1-22,8
	C367.7,306.2,364.6,316.2,366.6,325.4z M519.2,240.2c1.5,0.9,3.1,2,4.7,3.1l1.9-2.6C523.6,240.5,521.4,240.3,519.2,240.2z
	 M528.5,246.6c1.3,1,2.6,1.9,4,3c0.7,0.5,1.3,1.1,2,1.6l-3.1-8.5L528.5,246.6z M531.3,241.6c-1.7-0.3-3.4-0.6-5.2-0.8l-1.9,2.7
	c1.2,0.8,2.5,1.7,3.7,2.7L531.3,241.6C531.3,241.7,531.3,241.7,531.3,241.6z M441.3,368.2c0.1,1,0.4,1.7,0.9,2.2
	c0.5,0.5,1.3,0.7,2.2,0.5c1-0.2,2.1-0.7,3.4-1.6c0.7-0.6,1.5-1.3,2.3-2.1l-5-7.4c-1.5,1.7-2.5,3.3-3.1,4.7
	C441.5,365.9,441.3,367.2,441.3,368.2z M607.7,238.6c-2.6-2.2-5.3-4.3-8.1-6.3L581,250.1c1.9,1.7,3.7,3.4,5.5,5.3L607.7,238.6z
	 M580.8,249.9l18.6-17.8c-0.8-0.6-1.7-1.1-2.6-1.7c-3.6,0.7-7.4,1.3-11.4,1.8l-10.8,12.7C576.7,246.4,578.8,248.1,580.8,249.9z
	 M412.4,365.8c-2.6,8.5-0.8,16,3.6,21.4c8.7,10.7,27.5,13.4,42.9-0.7c0.7-1.1,1.4-2.2,2.1-3.3l-4.6-6.8c-2.6,2.6-5.3,4.5-8,5.8
	c-6.3,3.1-12.5,2.9-16.8,0.3c-4.3-2.6-6.7-7.6-5.5-13.9c1-5.5,4.8-12,12.3-18.9l-6.3-9.4C420.9,349.2,414.8,358,412.4,365.8z
	 M426.5,368.7c-1.2,6.2,1.1,11,5.3,13.5c4.2,2.5,10.2,2.7,16.4-0.3c2.7-1.3,5.4-3.2,8-5.8l-5.7-8.5c-0.8,0.8-1.5,1.5-2.2,2.1
	c-1.3,1-2.6,1.6-3.7,1.7c-1.1,0.2-2.1,0-2.7-0.6c-0.7-0.6-1.1-1.5-1.1-2.6c-0.1-1.1,0.2-2.4,0.9-3.9c0.7-1.5,1.7-3.2,3.3-5l-6.2-9.2
	C431.2,356.9,427.5,363.4,426.5,368.7z M586.8,274c0.7-2,1.6-4,2.5-5.8c0.9-1.7,1.9-3.4,2.9-4.9c-11.3-14.3-26.3-25-42.9-31.5
	c-4.9-0.7-9.6-1.6-14.1-2.7c-10.2-2.7-16.4-4-18.6-4c-1.8,0-3.4,0.4-5,1.3c-1.6,0.9-2.1,2.4-1.7,4.6c0.4,2.7,2.9,5.3,7.3,8
	c0.3,0.2,0.7,0.4,1,0.6C544,240.6,569.5,252.5,586.8,274z M554,500.2c-0.1-0.1-0.2-0.3-0.3-0.4v0.4L554,500.2z M559,508.9
	c0-0.1,0.1-0.2,0.2-0.2c-1.4-2.5-2.8-4.9-4.4-7.3l-1,2.3v17L559,508.9z M467.4,417.5c-0.9,0-1.6,0.1-2.3,0.2
	c-1.8,0.4-3.1,1.2-3.7,2.7c-0.6,1.4-0.7,2.9-0.1,4.4c0.6,1.6,1.9,3.1,4,4.8c4,3.3,11,6.7,21.2,10.3c1-2.3,2.1-4.6,3.2-6.9l-11-5
	c-0.5,0.8-1.4,1.3-2.4,1.3c-1.6,0-2.8-1.2-2.8-2.7c0-1.5,1.3-2.7,2.8-2.7c1.5,0,2.8,1.2,2.8,2.7c0,0.4-0.1,0.7-0.2,1.1l11,5
	c0.6-1.2,1.3-2.5,1.9-3.7l-3.5-5.1c-6.2-2.9-11.7-4.9-16.2-5.8C470.4,417.7,468.8,417.5,467.4,417.5z M554.2,500.9l-0.4,0.1v0.8
	L554.2,500.9z M559.7,434.4l2.9,3.5c1.7-1.7,3.6-3.2,5.6-4.6C565.3,433.6,562.5,434,559.7,434.4z M574.4,508.7
	c1.9-0.7,3.7-1.2,5.6-1.6c-7.2-10.5-15.9-19.7-26.2-27.7v2.7C561.8,489.8,568.7,498.8,574.4,508.7z M558.5,470.8
	c-0.1-0.1-0.3-0.3-0.5-0.4c-1.4-1.2-2.8-2.4-4.2-3.6v11.3c4,3,7.8,6.3,11.3,9.7C561.3,483.1,559,477.1,558.5,470.8z M566.2,513.1
	c2.2-1.6,4.6-3,7.2-4c-5.5-9.4-12-17.9-19.6-25.5V495C558.4,500.6,562.5,506.6,566.2,513.1z M563.6,515.2c0.6-0.5,1.2-1,1.8-1.6
	c-3.4-6.1-7.3-11.9-11.6-17.1v1.6C557.5,503.5,560.8,509.2,563.6,515.2z M473.6,405.1c-0.5-1.2-0.9-2.5-1.4-3.7
	c-1.4,0.4-2.5,1.2-3,2.4c-0.5,1-0.5,2.3,0.1,3.8c0.6,1.5,1.8,3.2,3.7,5.1c3,3,7.9,6.5,14.9,10.3l-1.4-2
	C481,418.9,477,414.1,473.6,405.1z M494.5,451.4c4.3,0.8,8.6,1.8,12.7,3c0.2-0.5,0.5-1,0.7-1.5l-2.7-4c-3.6,0.4-7.1,0.8-10.3,1.4
	C494.8,450.6,494.6,451,494.5,451.4z M489.5,450.4c4.4-1.5,9.7-1.9,14.9-2.6l-10.3-15.2c0.1,0.9,0.2,1.8,0.3,2.7
	C495,439.9,494.6,444.9,489.5,450.4z M509.3,455l-0.5-0.8c-0.1,0.2-0.2,0.4-0.2,0.5C508.8,454.9,509,455,509.3,455z M488,450.4
	c5.6-5.5,5.9-10.3,5.4-14.9c-0.2-1.7-0.5-3.4-0.6-5l-0.3-0.4c-3.4,6.6-6.4,13.3-8.5,19.9C485.3,450.1,486.7,450.2,488,450.4z
	 M525.9,496.8c-0.4,0.1-0.7-0.2-0.7-0.6l0.7-16.6l-7.4-11l-2,38.9l24.9-4.8l-5-7.4L525.9,496.8z M516.8,508.2
	c3.7,2.6,7.2,5.6,10.4,8.8c4-2.7,7.2-4.6,9.5-5.8c1.2-0.6,2.1-0.9,2.9-1.1c0.4-0.1,0.7-0.1,1-0.1c0.3,0,0.5,0.1,0.6,0.3
	c0.2,0.1,0.2,0.4,0.3,0.7c0,0.3-0.1,0.5-0.2,0.9c-0.2,0.7-0.7,1.5-1.4,2.6c-1.4,2.1-3.8,4.9-7.2,8.4c0,0,0,0-0.1,0
	c0.1,0.1,0.1,0.1,0.1,0.2c2.6,3.2,5.1,6.7,7.2,10.3l8.7-19.9l-6.9-10.2L516.8,508.2z M535.6,494.2l-8.7-12.9l-0.6,14.2L535.6,494.2z
	 M540.5,533.9l13.6,2.2c-0.3-2-0.2-4.1,0.3-6.2l-3.7-0.6c-0.4,0-0.6-0.4-0.4-0.8l3.3-7.5l-4.5-6.7L540.5,533.9z M556.9,398.7
	c0.9-1.2,2-2.2,3.5-3.1c-1.2-0.2-2.4-0.3-3.6-0.3c-1.1,0-2.1,0.2-3.1,0.4v7.7c0,0,0.1-0.1,0.1-0.1C555,401.6,555.8,400,556.9,398.7z
	 M553.8,313v23.2c2-1.5,4.1-2.9,6.2-4.5C561.1,323.9,557.7,318.2,553.8,313z M565.8,316.2c1.9,0.9,3.9,2.7,5.9,5.4
	c3.3,4.4,6.7,11.2,10.1,20.1c-3.2-10.8-4.6-18.5-4.5-23.8c0.1-3.1,0.6-5.4,1.5-7c0.7-1.3,1.6-2.2,2.7-2.7
	c-6.5,2.2-12.9,4.6-19.1,7.4C563.4,315.4,564.6,315.6,565.8,316.2z M558.1,317.4c0,0.1,0.1,0.1,0.1,0.1c0.1-0.1,0.2-0.2,0.3-0.3
	C558.3,317.3,558.2,317.3,558.1,317.4z M562,405.8c5.3-6.1,9.5-12.7,18.1-14.3c-3.7-3.2-8.5-4.4-13.2-4.5c-0.7,0-1.3,0-2,0.1
	c-4.2,0.2-8.2,1.3-11.1,2.5v5.5c1.4-0.3,2.9-0.4,4.4-0.4c1.1,0.1,2.1,0.2,3.2,0.5c0.3,0.1,0.3,0.4,0.1,0.5c-1.9,0.9-3,2-4.1,3.3
	c-1,1.3-1.8,2.9-3,4.6c-0.2,0.3-0.4,0.6-0.6,0.8v8.8C557,411.1,559.6,408.5,562,405.8z M569.8,413.4c0-0.1,0.1-0.1,0.1-0.1
	c0.9-0.9,1.8-1.9,2.7-2.9c3.4-4,6-8.4,9.1-12.1c0.4-0.5,0.8-1,1.3-1.5c0,0,0-0.1,0.1-0.1v-13.3c-4.2-2.2-8.8-3.3-13.5-3.4
	c-5.3-0.1-10.8,1.3-15.7,3.9v5.2c2.9-1.2,6.9-2.2,11.1-2.5c5.5-0.3,11.3,0.8,15.7,4.8c0.1,0.1,0.1,0.3-0.1,0.3
	c-8.6,1.5-12.8,8.1-18.2,14.3c-2.4,2.8-5.1,5.5-8.5,7.5v7.6c1.9-0.3,3.7-0.7,5.3-1.2C563.5,418.4,566.9,416.1,569.8,413.4z
	 M559.4,358c-2,2.2-4,4.2-5.6,6.1v18.6c2.9-1.4,5.8-2.5,8.9-3.1C564.9,372.5,560.7,364.5,559.4,358z M563.8,342.9
	c0.1,0,0.2,0.1,0.2,0.2c0.3,5.4,3.3,9.8,5.4,15.3c2.1,5.3,3.3,11.6,0.3,20.6c2.4,0,4.8,0.3,7.1,0.9c7.3-12.1,6.2-21.1,2.8-29.6
	c-0.1-0.3-0.2-0.5-0.3-0.8c0-0.1,0-0.1-0.1-0.1c-3.3-7.9-8.3-15.3-10.1-23.9c-2.7,2.7-5.4,4.9-8,6.9c-0.1,0.1-0.2,0.2-0.3,0.3
	c-2.4,1.8-4.8,3.4-6.9,5.1v10.8C556.7,346.1,560,344.2,563.8,342.9L563.8,342.9z M559.5,357.1c0.1,0,0.3,0.1,0.3,0.2
	c1.2,6.3,5.7,14.6,3.5,22.1c1.7-0.3,3.4-0.5,5.2-0.5h0.8c3-8.9,1.8-15.2-0.3-20.5c-2.1-5.3-5-9.8-5.4-15.1c-3.6,1.4-7,3.3-9.8,5.6
	v14.3c1.7-1.9,3.6-3.8,5.5-6C559.3,357.2,559.4,357.1,559.5,357.1z M461,386.1c-6.8,11-12.7,22.7-17.2,34.9
	c2.9,4.5,5.5,9.2,7.9,14.1c4.1-14.1,10-27.8,17.2-40.1l-4.6-6.8C463.3,387.3,462.2,386.6,461,386.1z M553.8,448.7v1.2
	c0.1-0.3,0.2-0.5,0.4-0.8L553.8,448.7z M474.7,404.7c3.1,7.8,6.4,12.3,10.5,14.5L473.6,402C474,402.9,474.3,403.8,474.7,404.7z
	 M573.5,411.1c-0.7,0.8-1.4,1.6-2.2,2.4c2.6,1,4.7,2.6,6.3,4.5l-1.9-9.7C575,409.3,574.2,410.2,573.5,411.1z M452.2,436.3
	c2.2,4.6,4.1,9.3,5.8,14.1c2.3-0.3,4.6-0.5,6.9-0.7c-3.5-1.3-6.1-2.8-7.7-4.3c-1.9-1.8-2.7-3.8-2.3-5.5c0.3-1.3,1.3-2.5,2.9-3.3
	c1.6-0.8,3.7-1.3,6.4-1.4c3.8-0.1,8.7,0.5,14.7,2.2c-6.3-2.6-10.9-5.1-13.9-7.6c-2.1-1.7-3.4-3.3-4.1-5c-0.6-1.6-0.6-3.2,0.1-4.8
	c0.7-1.5,2.1-2.5,4-2.9c1.9-0.4,4.4-0.3,7.2,0.3c3.7,0.8,8.2,2.4,13.1,4.4c-5.8-3.3-10-6.3-12.8-9.1c-1.9-1.9-3.1-3.7-3.7-5.2
	c-0.6-1.6-0.6-2.9-0.1-4.1c0.6-1.2,1.7-2.2,3.3-2.6c-0.5-1.3-1-2.6-1.6-3.8l-0.9-1.4C462.2,408.3,456.3,422.1,452.2,436.3z
	 M558,443.1l-4.2-4.5v9.6l0.6,0.6C555.4,446.8,556.6,444.9,558,443.1z M580.1,433c0.4-4.8-0.3-8.8-1.9-11.9
	c-1.6-3.1-4.2-5.3-7.8-6.7c-1,0.9-2.1,1.8-3.2,2.7c2.8,2.8,3.7,6,4.4,9.2c0,0.1-0.1,0.2-0.2,0.2c-5.4-0.1-11.5,1.8-17.6,2.4v5.4
	C561.7,433.2,571.2,430.7,580.1,433z M562.3,438.2l-3-3.7c-1.9,0.3-3.7,0.6-5.5,0.8v2.7l4.4,4.7
	C559.5,441.1,560.8,439.6,562.3,438.2z M566.8,417.3c-2.2,1.5-4.6,2.8-7.4,3.7c-1.7,0.6-3.6,1-5.7,1.3v6.1
	c5.9-0.5,11.8-2.4,17.3-2.4C570.5,423,569.5,419.9,566.8,417.3z M560.6,236l1.7-3c-2.9-0.1-5.7-0.3-8.5-0.6l-0.1,0.3
	C556,233.6,558.3,234.7,560.6,236z M372.7,258.6c-0.6-2.6-0.8-5.1-0.6-7.5l-6.2-9.2c-1.5-0.3-2.6-1.5-2.6-3c0-0.2,0-0.5,0.1-0.7
	l-2.9-4.3c-0.4,0.1-0.7,0.2-1.1,0.2c-1.8,0-3.2-1.4-3.2-3.1c0-0.9,0.4-1.6,0.9-2.2l-2.5-3.7h-0.5c-0.7,0.7-1.7,1.2-2.8,1.2
	c-1.1,0-2.1-0.5-2.8-1.2h-6.6C353.2,234.4,363.6,245.8,372.7,258.6z M323.2,225.4c1.8,2.2,2.1,5.4,1.1,8.1c-1,2.7-3.4,5-7.1,5.3
	c-2.9,0.3-5.4-1.2-6.6-3.2c-1.2-2-1.1-4.6,1.1-6.7c1.6-1.4,3.9-1.2,5-0.3c0.8,0.6,1.1,1.5,1.1,2.4c-0.1,0.9-0.6,1.8-1.6,2.5
	c-0.2,0.1-0.4-0.2-0.2-0.3c0.9-0.6,1.4-1.4,1.4-2.2c0.1-0.8-0.3-1.5-0.9-2c-1-0.8-3.1-1-4.5,0.3c-2.2,1.9-2.2,4.3-1.1,6.2
	c1.1,1.9,3.5,3.3,6.2,3.1c3.6-0.3,5.8-2.4,6.8-5c0.9-2.6,0.6-5.6-1.1-7.8c-0.2-0.2-0.3-0.4-0.5-0.5h-18.3c-2.4,2.7-3.5,6.5-2.3,11
	c0.8,2.9,2.6,5.4,4.8,7.1c1.8-0.2,3.7-0.5,5.5-0.8h0.1c0.3,0,0.6,0.3,0.5,0.6c-0.2,0.9-0.4,1.8-0.6,2.7c5.4,1.3,11.6-0.1,15.8-4.8
	c4.2-4.8,5.2-9.7,3.9-14.5c-0.1-0.4-0.2-0.8-0.4-1.2H323C323,225.2,323.1,225.3,323.2,225.4z M273.7,284.7c0.1,0,0.2,0.1,0.2,0.2
	c-0.5,4.9,0.5,9.2,0.6,13.9c0.2,4.4-0.4,9.1-3.4,14.6c2.3-0.8,4.6-1.7,6.8-2.7c0.1,0,0.1,0,0.2,0c0.4,0,0.6,0.3,0.5,0.6
	c-1.6,4.5-2.5,9.3-3.3,14.1c7.5-7.7,10-16,10.2-24.8v-0.1c0-0.3,0-0.6,0-0.9c0.1-9.3-2.3-19.1-3.4-28.7c-7.3,2.9-15,4.3-22.2,6.9
	c-0.1,0-0.2,0.1-0.3,0.1c0.1,2.2,0.2,4.6,0.2,7v5.2C264.3,288,269.1,286.6,273.7,284.7C273.7,284.7,273.7,284.7,273.7,284.7z
	 M256.7,233.6c0.3,0,0.5,0.2,0.5,0.5c0.1,7.7,2.2,15.6,3,23.5c11.3-8.2,21.6-11.1,31.7-12.6c-17.7-9.7-38.4-16.5-61.7-19.3
	c-2.2,0.9-3,2.6-2.4,5.3c0.4,2.7,2.7,4.5,6.6,5.6c3.1,0.9,6.4,2.7,9.9,5.3c4.1-2.5,8.2-5.1,12.1-8.3
	C256.5,233.7,256.6,233.7,256.7,233.6z M302.5,225.1H278C283.4,232.9,296.2,233.2,302.5,225.1z M282.2,269.7c0.1,0,0.1-0.1,0.2-0.1
	c0.3,0,0.5,0.2,0.5,0.4c0.8,6.9,2.3,14,3.1,21c6.5-5.3,9-10.7,10.4-16.2c1.4-5.6,1.6-11.2,3.3-16.8c-12.2,2.5-22.4,1-39.8,13.9
	c-0.2,0.8-0.4,1.6-0.6,2.4c0.1,0.8,0.1,1.5,0.2,2.3c0,0,0,0,0,0C267,274.1,274.9,272.7,282.2,269.7z M301.4,236.2
	c-1.2-4.5-0.1-8.4,2.2-11.1H303c-6.5,8.6-20,8.3-25.5,0h-6.1c12.1,4.6,23.4,10.4,33.6,17.2C303.4,240.6,302.1,238.5,301.4,236.2z
	 M274.2,298.8c-0.2-4.5-1.1-8.8-0.7-13.6c-4.6,1.9-9.3,3.3-13.8,5.2v13c0.9-0.8,1.7-1.3,2.5-1.5c0.4-0.2,0.8-0.2,1.2-0.2
	c0.4,0,0.7,0.1,0.9,0.3c0.6,0.4,0.8,1,0.8,1.9c0,0.8-0.3,1.8-0.9,3c-1,1.9-2.4,3.8-4.4,6.7v3.4c3.7-1.1,7.3-2.2,10.9-3.4
	C273.8,307.9,274.4,303.2,274.2,298.8z M601.1,229.4c-0.8,0.2-1.7,0.4-2.5,0.6c0.4,0.3,0.7,0.5,1.1,0.7
	C600.2,230.3,600.7,229.9,601.1,229.4z M259.3,258.6v-0.1c-0.8-7.7-2.8-15.6-3.1-23.4c-3.7,2.9-7.4,5.3-11.2,7.6
	c2.6-1.6,9.9,12.9,10.8,15.1c0.8,2.1,1.4,4.3,1.9,6.5c0.4,2,1.6,5.3,1.2,7.3C259.8,267.3,259.8,263,259.3,258.6z M328.1,241.1
	c-4.2,4.8-10.6,6.3-16.2,5c-0.1,0.4-0.1,0.7-0.1,1c7.8,5.8,15.5,12.5,22,19.4c0.9,0.1,1.9,0.2,2.8,0.3c2,0.2,3.9,0.5,5.9,0.8
	c2.1-4,6.3-6.4,10.6-6.6c4.4-0.2,9,1.8,11.5,6.6c2.2,4.1,0.3,10.1-4.7,11.8c-1.1,2.6-2.2,5.2-3.2,7.7c3.3-0.1,6.7-1.2,9.6-3.5
	c6.3-5,7-12.6,4.7-20.5c-1.5-5.2-4.4-10.6-7.8-15.3c-6.5-7.8-13.5-15-20.9-21.2c3.4,3.4,6.5,7.2,8.7,11.1c2,3.6,3.4,7.3,3.5,10.9
	c0.2,3.6-0.9,7.1-3.5,10.2c-7.8,9.3-23.5,6.9-26.8-4.3c-2-6.7,1.3-12.1,6.1-14.5c4.8-2.4,11.2-1.9,15.5,3.2c1.8,2.2,2.3,5.4,1.4,8.1
	c-0.9,2.7-3.2,5-7,5.4c-2.9,0.3-5.4-1.1-6.7-3.1c-1.3-2-1.2-4.6,1-6.7c1.5-1.4,3.8-1.3,5-0.4c0.8,0.6,1.2,1.4,1.1,2.3
	c-0.1,0.9-0.5,1.8-1.5,2.5c-0.2,0.1-0.4-0.1-0.2-0.3c0.9-0.6,1.3-1.4,1.4-2.2c0-0.8-0.3-1.5-1-2c-1-0.8-3.1-0.9-4.5,0.3
	c-2.1,2-2.1,4.3-0.9,6.2c1.2,1.9,3.6,3.2,6.3,2.9c3.6-0.4,5.8-2.6,6.7-5.2c0.9-2.6,0.4-5.7-1.3-7.7c-4.2-5-10.3-5.5-15-3.1
	c-4.7,2.4-7.8,7.6-5.9,14.1c3.2,10.9,18.6,13.2,26.2,4.1c2.6-3.1,3.5-6.4,3.4-10c-0.1-3.5-1.4-7.2-3.5-10.8
	c-2.6-4.5-6.3-8.9-10.4-12.7h-8.6c0.1,0.4,0.2,0.8,0.3,1.1C333.4,231.1,332.4,236.2,328.1,241.1z M585.6,277.5c0.3-1,0.6-2,0.9-2.9
	c-0.1-0.2-0.3-0.4-0.4-0.5L585.6,277.5z M592.7,262.4c0.4-0.6,0.7-1.1,1.1-1.6l-1.6,1C592.4,262,592.5,262.2,592.7,262.4z
	 M264.5,303.8c0-0.7-0.2-1.2-0.5-1.4c-0.2-0.1-0.4-0.2-0.6-0.2c-0.3,0-0.6,0.1-0.9,0.2c-0.7,0.3-1.6,0.8-2.7,1.8c0,0,0,0,0,0v8.4
	c1.8-2.5,3-4.3,3.9-5.9C264.2,305.5,264.5,304.5,264.5,303.8z M606.9,236.1c3.2-3.8,6.4-6.6,8.9-8.4c1.3-0.9,2.5-1.6,3.5-2
	c0.5-0.2,0.9-0.3,1.4-0.4c0.4-0.1,0.7-0.1,1.1,0.1c0.3,0.1,0.6,0.3,0.7,0.6c0.1,0.3,0.2,0.6,0.1,1c-0.1,0.8-0.6,1.8-1.4,3
	c-1.6,2.4-4.6,5.9-9.4,10.3c0.8,0.7,1.5,1.5,2.3,2.2c2-1.3,4-2.5,5.8-3.6c3.8-2.2,6.2-4.3,7.2-6.5c-0.3-2-0.7-4-1-6
	c-0.1,0-0.1-0.1-0.2-0.1c-1.6-0.9-3.4-1.3-5.6-1.3c-1.8,0-7.6,1.3-17.6,4c-0.2,0.1-0.5,0.1-0.7,0.2c-0.6,0.6-1.2,1.2-1.8,1.8
	C602.4,232.6,604.7,234.3,606.9,236.1z M586.8,255.7c1.8,1.9,3.5,3.8,5.2,5.8l2.4-1.5c3-4.1,6.3-7.6,9.9-10.4c3-2.3,5.9-4.4,8.7-6.3
	c-1.6-1.5-3.2-3-4.9-4.5L586.8,255.7z M585.2,278.5l0.6-4.7c-1.1-1.3-2.2-2.6-3.4-3.9l-1.5,12.4l3.6-0.1c0.2-1.2,0.5-2.3,0.8-3.4
	C585.2,278.6,585.2,278.6,585.2,278.5z M583.8,286.2c0.2-1.1,0.3-2.3,0.6-3.4l-3,0.1C582.3,284,583.1,285.1,583.8,286.2z
	 M381.6,271.8c2.6,2.7,5.8,5.4,9.7,7.7l-17.9-26.6C373.4,259.1,375.9,265.7,381.6,271.8z M304.6,243.4c-11-7.3-23.2-13.5-36.5-18.3
	h-33.7c-0.8,0-1.6,0.1-2.3,0.2c23,2.9,43.5,9.8,60.9,19.6C297,244.3,300.8,243.9,304.6,243.4z M333.4,588.2
	c-0.2-1.2-1.1-2.4-2.6-3.8l1.6,7.9C333.4,591.3,333.7,589.9,333.4,588.2z M553.8,521.1v-0.5l-0.1,0.3L553.8,521.1z M327.3,581.8
	c-0.3-1.5-1.6-2.6-3.2-2.6c-0.3,0-0.6,0.1-0.9,0.1c0.9,0.5,1.7,1,2.5,1.5C326.3,581.2,326.8,581.5,327.3,581.8z"/>
</svg>
