<?xml version="1.0" encoding="utf-8"?>
<!-- Generator: Adobe Illustrator 24.3.0, SVG Export Plug-In . SVG Version: 6.00 Build 0)  -->
<svg version="1.1" id="Mandala_Letter" xmlns="http://www.w3.org/2000/svg" xmlns:xlink="http://www.w3.org/1999/xlink" x="0px"
	 y="0px" width="828px" height="828px" viewBox="0 0 828 828" style="enable-background:new 0 0 828 828;" xml:space="preserve">
<style type="text/css">
	.st0{fill:none;stroke:#000000;stroke-miterlimit:10;}
</style>
<path class="st0" d="M0.1,827V0h827.3v827.3H0.1v-0.2 M412.8,596.1c-0.5,0-2.2,0-13.9-2.3c-7.7-1.5-17-3.1-27.8-4.6
	c-10.8-1.5-21.5-2.3-32-2.3c-10.5,0-21.2,0.8-32,2.3c-10.8,1.6-20.2,3.1-27.8,4.6c-11.7,2.3-13.3,2.3-13.9,2.3c-2.1,0-4-0.6-5.8-1.9
	c-1.4-1-2.9-2.9-2.2-6.4c0.5-2.7,2.7-4.8,6.5-6.3c3.2-1.3,6.9-3.1,11.1-5.6c3.9-2.3,7.4-6.6,10.4-13c3-6.4,4.5-16.1,4.5-28.6V284.7
	c0-12.6-1.5-22.1-4.5-28.3c-3-6.2-6.5-10.5-10.5-13c-4.1-2.6-7.8-4.4-11-5.5c-3.8-1.3-6-3.5-6.6-6.7c-0.7-3.5,0.9-5.2,2.3-6
	c1.8-1,3.7-1.5,5.6-1.5h185.2c21.8,0,43.3,5,64,14.7c20.7,9.8,37.9,23.6,51.3,40.9c13.4,17.4,20.2,37.6,20.2,59.9
	c0,23.7-6.5,44.4-19.2,61.6c-12.7,17.1-29.5,30.6-50,39.9c-20.4,9.3-43,14.1-67,14.1h-61v79.6c0,12.6,1.5,22.2,4.5,28.6
	c3,6.4,6.5,10.7,10.4,13c4.1,2.4,7.9,4.3,11.1,5.6c3.7,1.5,5.9,3.6,6.5,6.3c0.5,2.8-0.4,5-2.6,6.4
	C416.8,595.5,414.8,596.1,412.8,596.1z M412.8,422.8c13,0,25.9-3.6,38.5-10.8c12.6-7.2,23.2-17.1,31.4-29.4
	c8.2-12.3,12.4-26.9,12.4-43.4c0-15.6-4.2-29.8-12.4-42.4c-8.3-12.6-18.8-22.7-31.4-30.1c-12.6-7.4-25.5-11.1-38.5-11.1h-23.9v167.2
	H412.8z M450.6,225c21.7,0,42.8,4.9,63.4,14.6c20.6,9.7,37.5,23.2,50.8,40.5c13.3,17.3,19.9,37,19.9,59.1c0,23.5-6.3,43.7-18.9,60.7
	c-12.6,17-29.1,30.2-49.5,39.5c-20.4,9.3-42.5,13.9-66.4,13.9h-62.4v81c0,12.8,1.5,22.6,4.6,29.2c3.1,6.6,6.7,11.2,11,13.6
	c4.2,2.4,8,4.3,11.3,5.6s5.2,3.1,5.6,5.3c0.4,2.2-0.2,3.9-2,5c-1.8,1.1-3.5,1.7-5.3,1.7c-1.3,0-5.9-0.8-13.6-2.3
	c-7.7-1.5-17-3.1-27.9-4.7c-10.8-1.5-21.6-2.3-32.2-2.3s-21.4,0.8-32.2,2.3c-10.8,1.6-20.1,3.1-27.9,4.7c-7.7,1.6-12.3,2.3-13.6,2.3
	c-1.8,0-3.4-0.5-5-1.7c-1.6-1.1-2.1-2.8-1.7-5c0.4-2.2,2.3-4,5.6-5.3s7.1-3.2,11.3-5.6c4.2-2.4,7.8-7,11-13.6
	c3.1-6.6,4.6-16.4,4.6-29.2V284.7c0-12.8-1.6-22.5-4.6-28.9c-3.1-6.4-6.8-11-11-13.6c-4.2-2.7-8-4.5-11.3-5.6
	c-3.3-1.1-5.2-3-5.6-5.6c-0.4-2.2,0.1-3.8,1.7-4.6c1.5-0.9,3.2-1.3,5-1.3H450.6z M412.8,424.1c13.3,0,26.3-3.7,39.2-11
	c12.8-7.3,23.5-17.3,31.9-29.9c8.4-12.6,12.6-27.3,12.6-44.1c0-15.9-4.2-30.3-12.6-43.2c-8.4-12.8-19-23-31.9-30.5
	c-12.8-7.5-25.9-11.3-39.2-11.3h-25.2v169.9H412.8z M337.6,302.2c1.6,3.4,3.2,6.9,4.5,10.3c0.3-1.7,0.8-3.4,1.5-5.1
	C341.2,306.3,339,304.5,337.6,302.2z M379.5,373.3c0.7,0.6,1.5,1.2,2.2,1.8c0.1-1.2,0.3-2.3,0.3-3.6c-0.3-1.2-0.6-2.5-0.7-3.8
	C380.8,369.7,380.2,371.6,379.5,373.3z M351.6,348.6c-0.4,3.6,1,7,3.2,9.5c2.9,1.4,5.7,2.8,8.4,4.4c2.6,0.2,5.5-0.3,8-1.6
	c6.5-3.5,8.8-10.6,8.6-18.4c-3.1,0.5-6,0.8-8.7,0.7c0.6,0.9,1.1,2,1.5,3.2c0.7,2.4-0.1,5.2-1.7,7.2c-1.7,2-4.4,3.1-7.5,2.2
	c-2.4-0.7-4-2.7-4.3-4.8c-0.3-2.1,0.6-4.3,3.1-5.3c1.8-0.7,3.5,0.2,4.2,1.4c0.4,0.7,0.5,1.6,0.1,2.3c-0.4,0.7-1.1,1.3-2.1,1.6
	c-0.2,0.1-0.3-0.3-0.1-0.3c1-0.3,1.6-0.8,1.9-1.4c0.3-0.6,0.3-1.4-0.1-2c-0.6-1-2.2-1.8-3.8-1.2c-2.4,0.9-3.2,2.9-2.9,4.9
	c0.3,2,1.7,3.9,4.1,4.5c3,0.9,5.5-0.2,7.2-2.1c1.6-1.9,2.3-4.6,1.7-6.9c-0.4-1.3-0.9-2.4-1.5-3.3c-2.2-0.1-4.4-0.3-6.4-0.7
	c-2.6-0.5-5-1.3-7.2-2.4C354.3,341.5,352.1,344.4,351.6,348.6z M382.6,373.2c-0.1,0.8-0.2,1.6-0.2,2.5c1,0.8,2,1.7,3,2.6
	C384.2,376.7,383.3,375,382.6,373.2z M371.4,361.1c-2.3,1.3-5.1,1.8-7.5,1.7c5.4,3.1,10.5,6.5,15.4,10.3c0.8-1.9,1.5-4.2,2-6.4
	c-0.2-2.6,0.1-5.3,0.9-8.2c-0.2-5.4-0.8-10.7-1.7-16.3c-0.1,0-0.2,0.1-0.3,0.1C380.4,350.2,378,357.5,371.4,361.1z M310.1,314.7
	c-1.1,0-2.2,0-3.3,0.1c-0.2,0.4-0.3,0.8-0.5,1.3c-1.5,3.8-3.1,7.6-5.9,11c1.2-0.2,2.4-0.2,3.5-0.3c4.1-0.1,7.6,0.4,10.9,1
	c4.4,0.8,8.7,1.9,13.9,2c0.2,0,0.2,0.2,0.1,0.3c-2.9,3.5-5.6,7.5-9.1,10.6c-2.8,2.5-6.1,4.5-10.5,5.3c5.5,0.4,11,1.2,16.3,2.3
	c6-3.3,9.2-7.9,12.1-12.6c2.8-4.5,5.2-9.1,9.4-12.5c-8.4-1-13.6-3.2-19-5.1C323.2,316.2,318.1,314.7,310.1,314.7z M340.7,332.3
	c1.6,7,2.7,14.1,3.2,21.3c2.1,0.8,4.3,1.6,6.4,2.5c-0.3-8-1.3-15.9-3.2-23.8c-1.2-1.5-2.2-3.2-3.1-4.9
	C342.9,328.9,341.8,330.5,340.7,332.3z M354,357.7c-1.9-2.5-3.2-5.8-2.7-9.2c0.5-4.2,2.6-7.1,5.4-8.7c-3.2-1.5-5.9-3.6-8.1-5.9
	c1.6,7.5,2.5,15,2.8,22.6C352.3,356.9,353.2,357.3,354,357.7z M338.4,336.1c-2.8,4.5-6,9.1-11.6,12.5c5.6,1.2,11.1,2.8,16.4,4.7
	c-0.5-6.8-1.5-13.5-3-20.2C339.6,334.1,339,335.1,338.4,336.1z M342.2,321.5c-0.5-2.3-0.6-4.7-0.4-7c-2.7-7-5.9-14-9.7-20.7
	c-0.5,1.2-1,2.3-1.6,3.4c-0.5,1-1.1,2-1.7,3c3.4,6.4,6.2,13.2,8.5,20C338.8,320.8,340.4,321.2,342.2,321.5z M341.4,269.5
	c-2-3.9-5.5-5.7-9-5.8c-0.2,0-0.5,0-0.7,0c-3.6,0.2-7.2,2.2-8.9,5.7c2.8,0.5,5.6,1,8.4,1.4c0.7-0.5,1.4-0.7,2.1-0.7
	c1.2,0,2.2,0.5,2.7,1.4c1.6,0.2,3.2,0.3,4.8,0.4c0.3,0,0.5,0.3,0.4,0.6c-1.2,2.4-2.3,4.7-3.2,7C341.7,278,343.2,272.9,341.4,269.5z
	 M331.7,270.9c1.3,0.2,2.5,0.4,3.8,0.5c-0.5-0.6-1.3-1-2.2-1C332.8,270.5,332.2,270.7,331.7,270.9z M328.4,330.1
	c-5.1-0.1-9.3-1.2-13.6-2c-3.1-0.6-6.2-1.1-9.8-1c-1.5,0-3.2,0.1-4.9,0.3c-0.6,0.7-1.3,1.4-2.1,2.1c1,0.1,2,0.2,3,0.2
	c0.3,0,0.5,0.4,0.4,0.7c-2,3-3.5,5.7-5.1,8.3c4.1-1.3,7.4-2.1,10.8-2.6c0.5-0.1,1-0.1,1.4-0.1c0.4,0.1,0.8,0.2,1.1,0.3
	c0.6,0.3,1.1,0.8,1.2,1.4c0.3,1.2-0.4,2.7-2.2,3.8c-3.2,1.9-7.1,2.7-11.6,3.9c0.5,0,1.1,0,1.6,0c3.1,0,6.1,0.1,9.1,0.3
	c5.1-0.6,8.7-2.7,11.8-5.4C322.9,337.3,325.5,333.6,328.4,330.1z M295.5,252c-0.3,2.4-0.5,4.9-0.6,7.3c3.6,2.9,7.2,6,10.4,9.2
	c2-0.2,4-0.3,6-0.2c0.7,0,1.4,0.1,2.1,0.1C308,262.5,301.8,256.9,295.5,252z M336.5,320c-2.2-6.5-4.9-12.9-8.1-19.1
	c-3.3,5.2-7.8,9.6-15.2,13c6.4,0.4,10.9,1.7,15.2,3.2C331,318.1,333.6,319.1,336.5,320z M359.9,490.3c-0.6,1.5-1.1,3.1-1.6,4.6
	c-1.5,5.1-2.4,10.3-2.5,15.4l14.7-6.6L359.9,490.3z M468.1,447.2C468,447.2,468,447.2,468.1,447.2l-7.2,5.8
	c4.2-0.3,8.4-0.7,12.5-1.2l1.5-1.4C472.7,449.1,470.4,448.1,468.1,447.2z M474.6,451.5c0.2,0,0.4-0.1,0.6-0.1l0-0.5L474.6,451.5z
	 M348.9,540.4c-2.1,0-3.7,1.7-3.7,3.7c0,2.1,1.7,3.7,3.7,3.7c2.1,0,3.7-1.7,3.7-3.7C352.7,542,351,540.4,348.9,540.4z M475.9,451.3
	c0.3,0,0.5-0.1,0.8-0.1c-0.2-0.1-0.5-0.3-0.7-0.4L475.9,451.3z M442.2,441.2L442.2,441.2c-2.2-0.3-4.3-0.3-6.6-0.4h-1.9l4.8,12.4
	h8.2L442.2,441.2z M366.8,567.4c2.1,0,3.7-1.7,3.7-3.7c0-2.1-1.7-3.7-3.7-3.7c-2.1,0-3.7,1.7-3.7,3.7
	C363.1,565.7,364.8,567.4,366.8,567.4z M371.9,586.4c-0.5,0.4-1,0.8-1.5,1.2c0.2,0,0.5,0.1,0.7,0.1c10.8,1.6,20.1,3.1,27.9,4.7
	c2.2,0.4,4.1,0.8,5.8,1.1c-0.9-2.1-2.1-4-3.8-5.5C390.7,589.5,380.9,588.9,371.9,586.4z M391.1,574.8c1.8,0,3.3-1.5,3.3-3.3
	c0-1.8-1.5-3.3-3.3-3.3c-1.8,0-3.3,1.5-3.3,3.3C387.8,573.4,389.3,574.8,391.1,574.8z M378.7,573c2.1,0,3.7-1.6,3.7-3.7
	c0-2.1-1.7-3.7-3.7-3.7c-2.1,0-3.7,1.7-3.7,3.7C374.9,571.3,376.6,573,378.7,573z M357.8,544.7c-9.4-13.4-12.2-31.5-7.4-48.2
	c5.1-17.7,17.4-35.5,35.7-47.5c-41.8,22.6-55.1,57-49.6,84.7c5.7,28.9,32,50.7,68.1,44.4c-0.5-0.3-1-0.6-1.6-0.9
	c-4-2.3-7.4-6.4-10.4-12.4C377.2,563.1,365.3,555.4,357.8,544.7z M346.6,491.7c1.2,0,2.2,1,2.2,2.2c0,1.2-1,2.2-2.2,2.2
	c-1.2,0-2.2-1-2.2-2.2C344.4,492.6,345.4,491.7,346.6,491.7z M343.9,499.4c1.4,0,2.5,1.1,2.5,2.5s-1.1,2.5-2.5,2.5
	c-1.4,0-2.5-1.1-2.5-2.5S342.5,499.4,343.9,499.4z M342.2,508.2c1.6,0,2.9,1.3,2.9,2.9c0,1.6-1.3,2.9-2.9,2.9
	c-1.6,0-2.9-1.3-2.9-2.9C339.3,509.5,340.6,508.2,342.2,508.2z M338.7,521.3c0-2,1.6-3.5,3.6-3.5c2,0,3.5,1.6,3.5,3.5
	c0,2-1.6,3.6-3.5,3.6C340.3,524.9,338.7,523.3,338.7,521.3z M340.1,532.9c0-2.1,1.7-3.8,3.8-3.8c2.1,0,3.8,1.7,3.8,3.8
	c0,2.1-1.7,3.8-3.8,3.8C341.8,536.6,340.1,534.9,340.1,532.9z M348.9,548.1c-2.2,0-4.1-1.8-4.1-4.1c0-2.2,1.8-4.1,4.1-4.1
	c2.2,0,4.1,1.8,4.1,4.1C353,546.3,351.2,548.1,348.9,548.1z M356.2,559.2c-2.2,0-4.1-1.8-4.1-4.1c0-2.2,1.8-4.1,4.1-4.1
	c2.2,0,4.1,1.8,4.1,4.1C360.2,557.4,358.4,559.2,356.2,559.2z M391.1,567.9c2,0,3.6,1.6,3.6,3.6c0,2-1.6,3.6-3.6,3.6
	c-2,0-3.6-1.6-3.6-3.6C387.5,569.6,389.1,567.9,391.1,567.9z M378.7,565.2c2.2,0,4.1,1.8,4.1,4.1c0,2.2-1.8,4.1-4.1,4.1
	c-2.3,0-4.1-1.8-4.1-4.1C374.6,567,376.4,565.2,378.7,565.2z M366.8,559.6c2.3,0,4.1,1.8,4.1,4.1c0,2.2-1.8,4.1-4.1,4.1
	c-2.2,0-4.1-1.8-4.1-4.1C362.8,561.4,364.6,559.6,366.8,559.6z M428,453.3h9.9l-4.6-12L428,453.3z M459.1,453l7.9-6.3
	c-7.5-2.9-15.4-4.8-23.7-5.5l4.6,12.1h2C452.9,453.3,456,453.2,459.1,453z M384.1,456.4c0,0.1,0,0.1,0,0.2l1.4,22.9
	c0,0.3-0.3,0.6-0.6,0.5l-18.6-3.3c-1.2,2-2.3,4-3.3,6.1l24.3,4.7V454C386.3,454.8,385.2,455.6,384.1,456.4z M381.4,506.4
	c0.1,0.2,0,0.3-0.2,0.4c-2.5,6.5-3.2,13.7-1.6,21c-0.6-8.2,2.2-16.7,7.8-24v-7.9c-0.4,0.6-0.9,1.2-1.3,1.8
	C384.2,500.4,382.6,503.3,381.4,506.4z M423.9,441.5c0,0.1,0,0.1-0.1,0.2l-5.6,11.6h9l5.5-12.4C429.8,440.9,426.9,441.1,423.9,441.5
	z M380.2,530.2C380.3,530.2,380.3,530.2,380.2,530.2c0,0.1,0.1,0.2,0.1,0.2c1.5,5.1,3.9,9.4,6.9,12.4c0.1,0,0.3,0.1,0.3,0.2l0,0.1
	c0.1,0,0.1,0.1,0.2,0.1c-0.1-2-0.2-4.1-0.3-6.4c-2.1-4.2-2.7-9.1-2.1-12.9c0.4-2.5,1.1-4.8,2-6.9v-12.7
	C381.6,512.3,378.9,521.6,380.2,530.2z M387.4,534.3C387.4,534.3,387.4,534.3,387.4,534.3l0-14.2c-0.4,1.3-0.8,2.7-1,4.1
	C385.9,527.1,386.2,530.8,387.4,534.3z M381.1,505.9c0.8-2,1.7-3.9,2.9-5.8c0,0-0.1,0-0.1,0c-3.3-2.5-5.6-4.7-7-6.3
	c-0.7-0.8-1.2-1.5-1.4-2.1c-0.3-0.6-0.3-1.1-0.1-1.4c0.3-0.4,0.7-0.5,1.4-0.4c0.6,0,1.4,0.2,2.5,0.6c2,0.7,4.8,2.2,8.2,4.4v-6.7
	l-24.1-4.7L381.1,505.9z M422.7,441.6c-5.6,0.7-11.3,1.9-17.1,3.6c-1.5,0.5-3,1-4.5,1.5l6.2,6.5h9.9L422.7,441.6z M388.6,453.3h1.7
	l-0.1-1.1C389.7,452.5,389.1,452.9,388.6,453.3z M400,447.2c-3.1,1.2-6.1,2.7-8.9,4.4l1.7,1.6h12.9L400,447.2z M391,453.3h0.9
	l-0.9-0.9L391,453.3z M356.2,551.5c-2.1,0-3.7,1.6-3.7,3.7c0,2.1,1.7,3.7,3.7,3.7c2.1,0,3.7-1.7,3.7-3.7
	C359.9,553.1,358.2,551.5,356.2,551.5z M367,475.7l17.6,3.2l-1.4-21.7C376.8,462.4,371.4,468.7,367,475.7z M335.9,533.7
	c-5.2-26.2,6.3-58.1,42.2-80.8c-10.8,6.4-19.7,13.6-26.8,21.4c-0.1,0.1-0.1,0.1-0.2,0.2c-20.3,22.2-26.1,48.4-21.3,68.7
	c0.5,2,1.1,3.9,1.7,5.8c0.9,2.4,1.9,4.8,3.1,7.1c7,2,13.4,5.3,18.8,9.6c6.2,5,11.1,11.3,14.3,18.4c12.1,4.3,26.1,5.1,40.9,1.3
	c-0.7-0.5-1.5-1-2.4-1.4c-0.3-0.2-0.4-0.6-0.1-0.9c1.2-0.9,2.3-1.7,3.5-2.5c-1.4-0.7-2.9-1.4-4.4-2.3
	C368.6,585,341.8,563,335.9,533.7z M373.5,516.4c-1.4,0-2.6,0.1-3.5,0.3c-1,0.2-1.7,0.4-2.2,0.7c-0.5,0.3-0.7,0.6-0.8,0.8
	c0,0.3,0.1,0.5,0.5,0.8c0.4,0.3,1.1,0.6,2,0.8c1.8,0.5,4.7,0.7,8.7,0.4c0.1,0,0.1,0,0.2,0.1c0-1.2,0.1-2.4,0.2-3.6c0,0-0.1,0-0.1,0
	C376.5,516.5,374.9,516.4,373.5,516.4z M360.3,489.2C360.3,489.2,360.3,489.2,360.3,489.2l11.5,14.4c0.2,0.3,0.1,0.7-0.2,0.8
	l-15.7,7c0,0-0.1,0.1-0.1,0.1c0,2.1,0.1,4.3,0.3,6.4l24.5-11.5l-17.9-22.7C361.8,485.5,361,487.3,360.3,489.2z M409.9,585.1
	c0.1,0,0.3,0.1,0.3,0.3c2.8,2.3,4.7,5.2,6.5,8.3c0.4-0.2,0.8-0.4,1.2-0.7c1.8-1.1,2.4-2.8,2-5c-0.1-0.5-0.3-0.9-0.5-1.4
	c-0.7-0.8-1.4-1.5-2.2-2.1c-0.1-0.1-0.1-0.2,0-0.3c-0.8-0.6-1.8-1.1-3-1.6c-1.1-0.4-2.3-1-3.5-1.5c-1.1,0.7-2.2,1.4-3.4,2.3
	C408.4,584,409.2,584.5,409.9,585.1z M480.9,430.1c-1.2,2-2.3,4.2-3.3,6.3l19,10.2c1.7-0.5,3.5-1.1,5.2-1.7
	c-0.4-0.5-0.8-0.9-1.2-1.4L480.9,430.1z M294,271.7c3.4-1.7,6.9-2.6,10.4-3.1c-3-2.9-6.3-5.8-9.6-8.4
	C294.7,264,294.5,267.8,294,271.7z M409.7,586.2c-2.8,0.7-5.5,1.3-8.2,1.7c1.6,1.6,2.8,3.5,3.7,5.6c4,0.7,6.5,1.1,7.4,1.1
	c1,0,2.1-0.2,3.1-0.6C414,591.1,412.3,588.3,409.7,586.2z M466,439.8c-5-1.6-10.2-2.7-15.6-3.5v0c-0.5,0.2-1.1,0.4-1.6,0.6
	c-0.5,0.3-1-0.4-0.6-0.8c0,0,0.1-0.1,0.1-0.1c-1.1-0.1-2.1-0.3-3.2-0.3c-0.1,0-0.1,0-0.2,0c-3.1-0.3-6.2-0.4-9.3-0.3
	c-1.6,0-3.2,0.1-4.8,0.2c-42.7,2.3-71.3,32.1-79.6,61.2c-4.7,16.4-1.9,34.2,7.3,47.4c7.3,10.4,18.6,17.8,33.5,19.5c0,0,0,0,0-0.1
	c-0.7-1.6-1.4-3.4-2-5.4c-13.2-2.7-22.7-10.1-28.5-20c-7.2-12.3-8.6-28.3-4.1-43.4c7-23.3,24.5-43.3,47.9-50.3
	c9.5-2.8,18.8-4.3,27.6-4.4c16.5-0.4,31.7,3.6,45,11c3-0.5,5.9-1.1,8.8-1.7c-6.3-3.8-13-7-20.2-9.3C466.4,440,466.2,439.9,466,439.8
	z M379.2,528.1c-0.6-2.6-0.8-5.1-0.9-7.6c0,0.1-0.1,0.1-0.1,0.1c-4,0.3-6.9,0.1-8.8-0.4c-1-0.2-1.6-0.5-2.1-0.9
	c-0.5-0.3-0.7-0.7-0.6-1.2c0.1-0.4,0.4-0.8,1-1.1c0.5-0.3,1.3-0.5,2.3-0.7c1-0.2,2.2-0.3,3.6-0.3c1.4,0,3,0.1,4.9,0.4
	c0,0,0.1,0,0.1,0c0.3-3.2,1.1-6.3,2.2-9.3l-24.1,11.3L379.2,528.1z M475.1,442c1.8,0.8,3.6,1.6,5.3,2.5c3,1.3,5.8,2.7,8.6,4.2
	c2.4-0.6,4.7-1.2,7.1-1.9l-18.7-10.1C476.6,438.4,475.9,440.2,475.1,442z M346.6,495.7c1,0,1.8-0.8,1.8-1.8c0-1-0.8-1.8-1.8-1.8
	c-1,0-1.8,0.8-1.8,1.8C344.8,494.9,345.6,495.7,346.6,495.7z M371.3,548.4c1.1,0.9,2.3,1.8,3.5,2.6c0.1-0.1,0.2-0.2,0.3-0.3l9.4-2.5
	c0.1,0,0.1,0,0.1,0c0.2,0,0.4,0.2,0.5,0.4l2.2,7.7c0,0.1,0,0.2,0,0.3c0.8,0.2,1.6,0.4,2.5,0.6c-0.8-3-1.4-6.5-1.8-10.4l-1.1-3.2
	L371.3,548.4z M384.1,499.8c0.5-0.8,1-1.7,1.6-2.5c0.5-0.7,1.1-1.5,1.6-2.2c0,0,0,0,0,0c-3.5-2.2-6.3-3.7-8.2-4.4
	c-1-0.4-1.8-0.6-2.4-0.6c-0.6,0-0.9,0.1-1.1,0.3c-0.1,0.2-0.1,0.6,0.1,1.1c0.2,0.5,0.7,1.2,1.4,2
	C378.5,495.2,380.8,497.3,384.1,499.8C384.1,499.8,384.1,499.8,384.1,499.8z M386.6,543c-1.2-1.2-2.2-2.6-3.2-4.1c0,0,0,0-0.1,0
	c-1.8,1.1-3.2,1.8-4.1,2.2c-0.5,0.2-0.8,0.2-1.1,0.2c-0.1,0-0.3-0.1-0.4-0.1c-0.1-0.1-0.2-0.2-0.2-0.3c-0.1-0.2,0.1-0.5,0.2-0.8
	c0.2-0.3,0.4-0.7,0.7-1.1c0.7-0.8,1.7-1.8,3-2.9c0,0,0.1-0.1,0.1-0.1c0.2,0,0.2,0.2,0.1,0.3c-1.3,1.1-2.3,2.1-2.9,2.9
	c-0.3,0.4-0.6,0.7-0.7,1c-0.2,0.3-0.2,0.5-0.2,0.6c0,0.1,0,0.1,0.1,0.1c0.1,0,0.1,0.1,0.2,0.1c0.2,0,0.5-0.1,1-0.2
	c0.9-0.3,2.2-1,4-2.1c0,0,0,0,0.1,0c-1.4-2.4-2.6-5.1-3.5-8.1c-0.1-0.3-0.2-0.7-0.3-1l-8.3,18.1L386.6,543z M342.2,513.7
	c1.4,0,2.6-1.1,2.6-2.6c0-1.4-1.1-2.5-2.6-2.5c-1.4,0-2.6,1.1-2.6,2.5C339.6,512.5,340.7,513.7,342.2,513.7z M345.5,521.3
	c0-1.8-1.4-3.2-3.2-3.2c-1.8,0-3.2,1.4-3.2,3.2c0,1.8,1.4,3.2,3.2,3.2C344.1,524.5,345.5,523.1,345.5,521.3z M384.3,549.4l-8.5,2.3
	c3.1,2,6.6,3.5,10.5,4.7L384.3,549.4z M343.9,504c1.2,0,2.1-1,2.1-2.1c0-1.2-1-2.1-2.1-2.1s-2.2,1-2.2,2.1
	C341.7,503.1,342.7,504,343.9,504z M357.5,525.9c1.1,4.2,2.7,8.1,4.9,11.7c0.9,1.6,2,3.1,3.1,4.6l5.5-10.7L357.5,525.9z
	 M343.9,529.4c-1.9,0-3.4,1.5-3.4,3.4c0,1.9,1.5,3.4,3.4,3.4c1.9,0,3.4-1.5,3.4-3.4C347.3,531,345.8,529.4,343.9,529.4z M356.2,519
	c0.2,2,0.6,3.9,1,5.7h0c0.1,0,0.1,0,0.2,0.1l14.5,6.1c0.3,0.1,0.4,0.4,0.3,0.7l-6,11.5v0c1.3,1.6,2.7,3.1,4.3,4.5l8.7-18.8
	L356.2,519z M461.5,263.9c4.5-1.9,9.5-3.1,14.8-3.6l-9.9-14.5L461.5,263.9z M567.6,340.6c-4.5,1.1-8.8,2.3-13.1,3.7l9,7.6
	L567.6,340.6z M372.2,455.4c0.4-0.3,0.8-0.5,1.2-0.7c-0.5-1.3-1.1-2.6-1.6-3.9C372.1,452.2,372.3,453.8,372.2,455.4z M373.4,432.4
	c3.5,5.4,6.4,11.1,8.8,17.1c2.3-1.2,4.7-2.4,7.1-3.6c-2.3-6.2-5.2-12.2-8.6-17.8L373.4,432.4z M321.2,416.2l4.4-10.6
	c-2.8-1.2-5.7-2.2-8.6-3.1l-5.3,17.8c-0.2,2.1-0.5,4.4-1,6.8C314.2,422.3,317.8,418.7,321.2,416.2z M332.9,425.6
	c-0.7-0.6-1.7-0.9-2.9-0.9c-0.9,0-2,0.3-3.1,0.8c-2.5,1.1-5.6,3.4-8.9,7.2c4.4,2.3,8.6,5,12.4,8.3c2.4-3.6,3.7-6.9,4-9.5
	C334.8,428.7,334.2,426.7,332.9,425.6z M454,421.5c-0.2-1.8-0.5-3.5-0.6-5.3c-3.1,6.1-5.7,12.3-7.6,18.4c1.2,0.1,2.3,0.2,3.5,0.4
	C454.2,430.1,454.5,425.7,454,421.5z M345.9,428.6c0.7-5.5-1.1-10.2-4.4-13c-2.1-1.7-4.7-2.8-7.7-2.9c-1.8,0-3.8,0.3-5.9,1.1
	c-5.4,2-11.6,6.8-17.5,15.6c2.4,0.9,4.8,2,7.1,3.1c3.4-3.9,6.5-6.3,9.2-7.5c1.4-0.6,2.6-0.8,3.7-0.8c1.1,0,2.1,0.4,2.8,1
	c1.5,1.2,2.1,3.5,1.7,6.3c-0.4,2.7-1.7,6.1-4.1,9.8c1.8,1.5,3.5,3.2,5.2,5C342.2,440.3,345.2,434,345.9,428.6z M357.8,460.4
	c1.5-2.3,1.6-4.4,0.7-5.9c-0.9-1.5-3-2.6-5.9-2.7c-0.2,0-0.4,0-0.6,0c-2.7,0-6.1,0.6-9.9,2.3c2.8,4.1,5.1,8.6,7,13.4
	C353.6,465.2,356.4,462.7,357.8,460.4z M526.1,396.6l1.9,9.8c0.4,0.5,0.7,1.1,1,1.7c0.8,1.6,1.4,3.5,1.6,5.6c1.4-0.4,2.8-0.7,4.2-1
	l-0.6-18.1H534c-2.3,0-4.6,0.2-6.9,0.5C526.8,395.6,526.4,396.1,526.1,396.6z M346.9,284.8c-0.8,0-1.7,0.1-2.5,0.3
	c-4.5,1.1-8.3,5-8,11.2c0.2,5.1,3.4,8.9,7.6,10.8c0.9-2,2.1-4,3.7-5.8c-2-0.7-3.3-2.4-3.7-4.2c-0.5-1.9,0.2-4,2.4-5.3
	c0.4-0.2,0.8-0.4,1.3-0.4c1.3-0.2,2.5,0.4,3.1,1.2c0.5,0.7,0.7,1.5,0.4,2.3c-0.2,0.8-0.8,1.5-1.8,1.9c-0.2,0.1-0.3-0.2-0.1-0.3
	c0.9-0.4,1.4-1,1.6-1.7c0.2-0.7,0.1-1.4-0.4-2c-0.7-0.9-2.4-1.5-3.9-0.6c-2.1,1.2-2.7,3.1-2.2,4.9c0.4,1.7,1.7,3.3,3.6,4
	c1.2-1.4,2.6-2.7,4.1-3.9c1.5-1.2,3.2-2.2,5-3.1c0-1-0.2-2-0.6-3C354.3,286.8,350.6,284.8,346.9,284.8z M527.8,371.4
	c2.3,0.7,4.4,1.7,6.5,3c2.5-1.4,5-2.7,7.5-4l-11.3-4.6C529.8,367.6,528.9,369.5,527.8,371.4z M505.9,415.2
	c5.4-0.4,10.9-2.3,15.9-2.2c-0.5-2.8-1.4-5.5-3.7-8c-1.9,1.4-4,2.5-6.4,3.4c-5.2,1.8-11.9,2.2-21,0.3v0.2
	C495.5,414.5,500.7,415.6,505.9,415.2z M548.6,412.6l3-15.3c-2.7-0.9-5.4-1.5-8.2-2l-1.6,16.8C544,412.1,546.3,412.3,548.6,412.6z
	 M521.2,402.4c-0.9,0.8-1.8,1.7-2.8,2.4c2.4,2.5,3.3,5.4,3.8,8.3c0,0.1-0.1,0.2-0.2,0.2c-5-0.1-10.5,1.8-16.1,2.2
	c-5.2,0.3-10.4-0.7-15.3-6.1c0,0.5,0.1,1.1,0.1,1.6c1,4,2.6,6.4,4.5,7.8c2.5,1.7,5.7,2,9.5,1.7c7.3-0.6,16.4-3.5,24.9-1.3
	c0.3-4.4-0.2-8-1.6-10.8C526.6,405.7,524.4,403.7,521.2,402.4z M527.5,405.7l-1.6-8.8c-0.6,0.8-1.3,1.7-1.9,2.5
	c-0.6,0.7-1.3,1.5-1.9,2.2C524.2,402.6,526.1,404,527.5,405.7z M362.7,442.2c-1.9-0.7-4.1-1.2-6.5-1.2c-5.3-0.1-11.8,1.7-19.4,6.1
	c1.8,2,3.5,4.2,5.1,6.5c4.2-1.8,7.9-2.5,10.8-2.4c3,0.2,5.2,1.3,6.3,3c1.1,1.7,0.9,4-0.7,6.5c-1.5,2.4-4.4,4.9-8.8,7.3
	c0.6,1.6,1.2,3.3,1.7,5c5.6-6,12.3-11.7,20-16.9C371.7,450,368.6,444.6,362.7,442.2z M311.8,418.9l4.9-16.4c-2.7-0.8-5.5-1.5-8.3-2
	l-0.5,2.8c1.1,1.4,2,3.1,2.6,5C311.5,411.3,311.9,414.8,311.8,418.9z M369.3,445.9c-1-1.8-2-3.6-3-5.3l-1.9,1.3
	C366.4,442.9,368.1,444.3,369.3,445.9z M331.2,504.4l0.4,0.2c0.4-1.2,0.8-2.3,1.3-3.5l-0.6-0.3C332,502.1,331.6,503.3,331.2,504.4z
	 M329.6,508.3l0.7,0.4c0.4-1.3,0.8-2.5,1.2-3.8l-0.4-0.2C330.6,506,330.1,507.2,329.6,508.3z M318.7,522.1c-1,0.8-2.1,1.5-3.3,2.2
	l8.4,15.5c1.3-1.1,2.6-2.2,3.8-3.4c-0.1-0.4-0.1-0.8-0.1-1.3L318.7,522.1z M325.1,515.7l2.9,2.9c0.3-1.7,0.6-3.3,1-5l-1.5-1.3
	C326.7,513.5,326,514.6,325.1,515.7z M322.3,518.9l5.1,6.1c0.1-2,0.3-4,0.6-6l-3.1-3.1C324.1,517,323.2,518,322.3,518.9z M327.6,512
	l1.4,1.2c0.3-1.4,0.7-2.7,1.1-4.1l-0.7-0.5C328.9,509.8,328.3,511,327.6,512z M327.6,412.8c1.7-0.6,3.3-0.9,4.9-1.1l1.2-2.2
	c-2.5-1.4-5.1-2.6-7.7-3.7l-4.2,10C323.7,414.5,325.7,413.5,327.6,412.8z M302.8,399.7c1.7,0.6,3.3,1.7,4.7,3.3l0.5-2.5
	C306.3,400.1,304.6,399.9,302.8,399.7z M363,441.3c0.4,0.1,0.7,0.3,1,0.4l2.1-1.4c-1.5-2.5-3.2-4.8-5-7.1l-8.6,7
	C356.6,439.7,360.1,440.1,363,441.3z M339.1,412.8c-1.7-1.1-3.4-2.1-5.2-3.1l-1.1,2C335.1,411.6,337.3,412,339.1,412.8z
	 M346.9,428.7c-0.3,2.7-1.2,5.5-2.7,8.4l10.9-10.9c-2.1-2.2-4.2-4.2-6.5-6.2l-2.1,2.5C347.1,424.4,347.2,426.5,346.9,428.7z
	 M348.4,419.8c-1.8-1.5-3.6-3-5.5-4.4c1.7,1.7,3,4,3.6,6.7L348.4,419.8z M515.3,337.6L515.3,337.6c0.2,0,0.2,0.1,0.2,0.2
	c0.3,4.9,2.9,8.9,4.7,13.9c1.8,4.8,2.9,10.6,0.3,18.7c2.1,0,4.2,0.3,6.2,0.8c6.3-10.9,5.4-19.2,2.5-26.8c-0.1-0.2-0.2-0.5-0.3-0.7
	c0-0.1,0-0.1-0.1-0.1c-2.9-7.1-7.3-13.8-8.8-21.7c-2.3,2.5-4.7,4.5-7,6.3c-0.1,0.1-0.2,0.2-0.3,0.2c-2.5,2-5,3.7-7.2,5.5
	c-4.5,3.7-8.2,8-9.8,15.7c1.2,1.6,2.4,3.2,3.4,4.8C500.8,346.8,507.4,340.7,515.3,337.6z M454.3,435.8c0.1-0.2,0.2-0.5,0.3-0.7
	c-0.6,0.1-1.3,0.3-1.9,0.4C453.2,435.6,453.8,435.7,454.3,435.8z M455.4,435c-0.1,0.3-0.3,0.6-0.4,1c3.8,0.7,7.5,1.6,11.1,2.7
	c0.8-1.9,1.7-3.8,2.6-5.6C464.1,433.9,459.5,434.3,455.4,435z M473.3,432c-1,0.3-2.1,0.6-3.2,0.8c-1,2-2,4.1-2.9,6.2
	c2.5,0.8,4.9,1.7,7.2,2.7c2-4.9,4.3-9.5,6.8-13.6C478.9,430,476.2,431.2,473.3,432z M489,415.4c-0.2,0.8-0.4,1.5-0.6,2.2
	c0.3-0.3,0.5-0.7,0.8-1C489.1,416.2,489.1,415.8,489,415.4z M489.3,417.6c-0.6,0.7-1.2,1.5-1.7,2.3c-0.5,1.2-1.1,2.2-1.7,3.2l5.9,5
	C490.6,425,489.8,421.5,489.3,417.6z M511.3,407.4c3.9-1.3,6.8-3.4,9.3-5.9c0-0.1,0.1-0.1,0.1-0.1c0.8-0.8,1.6-1.7,2.3-2.6
	c3-3.6,5.3-7.6,7.9-10.9c0.4-0.5,0.7-0.9,1.1-1.3c0.1-0.1,0.2-0.2,0.3-0.3c2.1-2.3,4.6-4.2,7.8-4.9c-5.1-6.8-12.3-10-19.7-10
	c-5-0.1-10,1.3-14.6,4c-0.1,1.6-0.2,3.2-0.5,4.9c2.6-1.4,6.7-2.6,11-2.9c4.8-0.3,9.9,0.7,13.7,4.3c0.1,0.1,0.1,0.3-0.1,0.3
	c-7.5,1.4-11.2,7.3-15.9,12.9c-4.6,5.5-10.2,10.6-21.3,10.3c-0.7,0.8-1.4,1.6-2.2,2.5C499.7,409.6,506.3,409.2,511.3,407.4z
	 M485.7,423.4c-0.4,0.5-0.7,1.1-1.2,1.6c-0.5,0.6-1,1.2-1.6,1.7c-0.6,1-1.2,2-1.8,3.1l18.7,12.8c-3.1-3.9-5.9-8.4-7.8-13.9
	L485.7,423.4z M511.9,420.6l2.5,3.2c1.5-1.5,3.1-2.9,4.9-4.2C516.8,419.8,514.3,420.2,511.9,420.6z M527.6,425
	c-7.1,3.7-11.7,9.3-14.1,15.5c0.9-0.4,1.8-0.8,2.7-1.2c10.8-4.9,20.4-10.9,29.1-18C539.1,421,533.1,422.1,527.6,425z M513.9,394.7
	c4.6-5.5,8.3-11.5,15.7-13c-3.2-2.9-7.4-4-11.5-4.1c-0.6,0-1.2,0-1.7,0.1c-4.4,0.2-8.6,1.6-11.1,2.9c-0.3,1.7-0.7,3.5-1.3,5.2
	c1.8-0.9,4.2-1.4,6.5-1.2c0.9,0.1,1.8,0.2,2.8,0.4c0.2,0.1,0.3,0.4,0.1,0.5c-1.6,0.8-2.6,1.8-3.5,3c-0.9,1.2-1.6,2.6-2.6,4.1
	c-1.9,3-4.9,6.3-12,9.5c-0.7,0.9-1.4,1.8-2.2,2.7C503.9,405,509.3,400.1,513.9,394.7z M503.6,443.9c0.3-1.5,0.7-3,1.2-4.4l-9.5-8
	C497.5,436.4,500.3,440.4,503.6,443.9z M553.2,414.1c-7.6-2-15.3-1.9-22.6,0.1c0.2,1.8,0.2,3.7,0,5.8c-0.1,0.3-0.4,0.5-0.7,0.4
	c-3.1-0.9-6.4-1.1-9.7-0.9c-8.4,5.7-14.3,14.7-16.3,24.7c2.8-1,5.6-2.1,8.4-3.3c2.4-6.7,7.1-12.8,14.8-16.8c5.4-2.8,11.4-4,17.4-3.8
	c0.5,0,1.1,0.1,1.6,0.1C548.6,418.5,551,416.3,553.2,414.1z M504.8,421.6c-0.1,0-0.1,0-0.1,0l5.9,6.6c1.1-1.5,2.3-2.9,3.5-4.2
	l-2.6-3.3C509.2,421.1,506.9,421.4,504.8,421.6z M494.9,430.8l9.9,8.4c0.6-1.8,1.4-3.6,2.2-5.3l-15.7-16.4
	C492,422.6,493.3,427,494.9,430.8z M494.7,419.7c-1.4-1-2.6-2.4-3.5-4.4c0,0-0.1,0.1-0.1,0.1c0.1,0.5,0.1,1.1,0.2,1.6l16,16.6
	c0.9-1.8,2-3.5,3.2-5.1l-6.1-6.8C500.6,421.9,497.3,421.6,494.7,419.7z M311.4,526.4l7.1,17.1c1.7-1,3.5-2.2,5.1-3.5l-8.4-15.6
	C313.9,525.2,312.6,525.8,311.4,526.4z M560.6,305.8c2.3,4.2,4.2,10.8,5.8,19.9c-0.9-10.1-0.6-17.1,0.5-21.6
	c0.6-2.6,1.5-4.4,2.5-5.6c0.7-0.9,1.5-1.4,2.4-1.7c-6.1,0.7-12.2,1.7-18.1,2.9c0.9,0.1,1.8,0.4,2.7,1
	C557.9,301.6,559.3,303.3,560.6,305.8z M548.3,303.3c-0.8,1.6-1.4,3.9-1.5,6.8c-0.4,5.7,0.6,13.9,2.9,24.5c3.1-1,6.2-2,9.4-2.8
	l-2.7-12.9c-0.2,0.1-0.5,0.1-0.7,0.1c-1.5,0-2.7-1.2-2.7-2.7c0-1.5,1.2-2.7,2.7-2.7c1.5,0,2.7,1.2,2.7,2.7c0,1.1-0.6,2.1-1.7,2.5
	l2.7,12.9c2.4-0.6,4.9-1.2,7.3-1.7c-1.6-11.4-3.9-19.3-6.5-24c-1.3-2.4-2.7-4-4.1-5c-0.9-0.6-1.8-0.9-2.7-0.9
	c-0.5,0-1.1,0.1-1.6,0.2C550.3,300.6,549.2,301.6,548.3,303.3z M506.8,392.3c1-1.5,1.7-2.9,2.6-4.1c0.8-1.1,1.7-2,3.1-2.8
	c-1.1-0.2-2.1-0.3-3.1-0.3c-2.1,0.1-4,0.6-5.6,1.4c-1.6,4.9-4.3,9.8-7.9,14.8C502.3,398.3,505,395.1,506.8,392.3z M542.4,370.1
	c0.1-0.1,0.3-0.1,0.4-0.2L547,347c-2,0.8-4,1.6-6,2.4l-2.6,12.2c0,0.1-0.1,0.2-0.2,0.1l-6-2.4c-0.3,1.9-0.8,3.9-1.5,6L542.4,370.1z
	 M565.3,361l-17.7-14.1l-4.2,22.7C550.4,366.2,557.7,363.3,565.3,361z M552,356.5c1.5,0,2.7,1.2,2.7,2.7c0,1.5-1.2,2.7-2.7,2.7
	c-1.5,0-2.7-1.2-2.7-2.7C549.2,357.8,550.5,356.5,552,356.5z M540.7,349.6c-2.8,1.2-5.6,2.5-8.3,3.9c0.1,1.8,0.1,3.6-0.2,5.5
	l5.9,2.4L540.7,349.6z M528.8,308.8c-0.7,1.4-1.2,3.5-1.3,6.2c-0.1,5.5,1.4,13.8,5.3,26.2c3-1.4,6.1-2.6,9.2-3.8l-4.4-12.6
	c-0.3,0.1-0.5,0.1-0.8,0.1c-1.5,0-2.7-1.2-2.7-2.7c0-1.5,1.2-2.7,2.7-2.7c1.5,0,2.7,1.2,2.7,2.7c0,1.1-0.6,2-1.6,2.5l4.4,12.6
	c2.3-0.9,4.6-1.7,6.9-2.5c-3.1-11.5-6.2-19.1-9.2-23.7c-1.5-2.3-3-3.8-4.4-4.6c-0.9-0.5-1.7-0.7-2.5-0.7c-0.5,0-1,0.1-1.4,0.3
	C530.6,306.5,529.6,307.3,528.8,308.8z M535.9,306.2c1.5,0.8,3,2.4,4.5,4.7c2.7,4.1,5.5,10.8,8.3,20.4c-1.8-8.9-2.6-16.1-2.3-21.2
	c0.2-2.9,0.7-5.2,1.6-6.9c0.6-1.2,1.4-2.1,2.4-2.6c-5.9,1.4-11.8,3-17.6,5C533.8,305.3,534.9,305.5,535.9,306.2z M511.7,350.6
	c0.1,0,0.2,0.1,0.3,0.2c1,5.8,5,13.2,3.1,20c1.5-0.3,3-0.4,4.5-0.5h0.7c2.6-8.1,1.5-13.7-0.3-18.6c-1.8-4.8-4.3-8.9-4.7-13.7
	c-7.8,3.1-14.4,9.2-15.8,16.7c1.5,2.3,2.7,4.5,3.8,6.9c1.3-3.7,4.8-6.9,8.3-10.9C511.6,350.6,511.6,350.6,511.7,350.6z M505.8,374.1
	c2.7-1.5,5.7-2.6,8.6-3.2c2-6.4-1.7-13.7-2.9-19.6c-3.6,4.1-7,7.3-8.1,10.9c1.1,2.5,1.8,5.1,2.1,7.7
	C505.8,371.4,505.8,372.8,505.8,374.1z M566.2,360.7l7.3-21.3c-1.9,0.4-3.7,0.7-5.6,1.2l-4.3,11.8c0,0.1-0.2,0.2-0.3,0.1l-9.3-7.9
	c-2.1,0.7-4.1,1.4-6.1,2.2l17.9,14.2C566,360.8,566.1,360.7,566.2,360.7z M513.3,326.6c2.3-1.8,4.5-3.8,6.7-6.2
	c0.1-0.1,0.2-0.2,0.4-0.2c0.3,0,0.5,0.2,0.5,0.4c1.3,7.8,5.8,14.6,8.8,22c1-0.5,1.9-0.9,2.9-1.3c-3.6-10.4-7.1-18-10.5-22.7
	c-1.7-2.4-3.4-4-5-4.8c-0.8-0.4-1.6-0.6-2.4-0.6c-0.8,0-1.5,0.2-2.3,0.5c-0.7,0.4-1.2,0.8-1.6,1.3
	C512.5,318.3,513.6,322.1,513.3,326.6z M517.2,313.5c1.7,0.8,3.4,2.5,5.2,4.9c2.9,4,5.9,10.2,8.8,18.2c-2.8-9.8-4-16.8-3.9-21.6
	c0.1-2.8,0.5-4.9,1.3-6.4c0.6-1.2,1.4-2,2.3-2.5c-5.7,2-11.3,4.2-16.7,6.7C515.1,312.7,516.2,312.9,517.2,313.5z M510.5,314.5
	c0,0.1,0.1,0.1,0.1,0.1c0.1-0.1,0.2-0.2,0.2-0.2C510.7,314.4,510.6,314.5,510.5,314.5z M539.7,412.2c0.6,0,1.2-0.1,1.7-0.1l1.6-16.9
	c-2.8-0.4-5.7-0.6-8.5-0.6l0.6,18.1C536.7,412.4,538.2,412.3,539.7,412.2z M352.1,375.7l3.9-6.6c-11.9-6.4-25-10.9-38.9-13.1
	l-0.9,7.1C329,365.4,341.1,369.6,352.1,375.7z M493.5,261.2c1.6,0.3,3.2,0.7,4.8,1.1c2.9,0.8,5.8,1.8,8.6,3l-2.4-12.8L493.5,261.2z
	 M482.3,245.1c-3.3-0.4-6.7-0.6-10.1-0.6h-0.3l5.3,7.9L482.3,245.1z M487.1,245.8c-1.5-0.3-3-0.5-4.5-0.7l-5.3,7.6
	c-0.1,0.1-0.2,0.1-0.2,0l-5.5-8.2c-1.7,0-3.5,0.1-5.2,0.3c0,0,0.1,0,0.1,0.1l10.5,15.3L487.1,245.8
	C487.1,245.9,487.1,245.9,487.1,245.8z M460.8,245.5c-4,0.7-7.9,1.6-11.7,3l9,7.3L460.8,245.5z M465.9,244.8
	c-1.6,0.1-3.2,0.4-4.8,0.6l-2.8,10.6c0,0.1-0.1,0.1-0.2,0.1l-9.4-7.6c-1.7,0.6-3.4,1.3-5.1,2l17,13.5l5.1-19.1
	C465.9,244.9,465.9,244.9,465.9,244.8z M307.3,528.2l5.5,18.1c1.8-0.7,3.5-1.6,5.3-2.6l-7.1-17.1
	C309.8,527.2,308.6,527.7,307.3,528.2z M515.7,257.5l-5.2,2.6c-0.1,0-0.2,0-0.2-0.1l-1.1-6.4c-2.9-1.6-6-2.9-9-4.1l-5.6,4.7
	c-0.1,0.1-0.2,0-0.2-0.1l-2.4-7.2c-1.5-0.4-2.9-0.7-4.4-1c0,0,0,0,0,0.1l5.1,14.9l11.8-9.4c0.2-0.2,0.5-0.1,0.5,0.2l2.5,13.6
	l11.4-5.6C518,259,516.9,258.2,515.7,257.5z M528.3,267.8l-4.3,1c-0.1,0-0.2-0.1-0.2-0.1l-0.3-5.3c-1.2-1-2.5-2-3.8-3l0.7,12.6
	l10.7-2.1C530.3,269.8,529.3,268.8,528.3,267.8z M486.3,406.8c-0.2-0.1-0.3-0.1-0.5-0.1c-1.4,0.3-2.4,1.2-3.3,2.4
	c-1,1.4-1.9,3.2-2.8,4.9c-0.9,1.7-2,3.5-3.4,4.7c-1.4,1.2-3.3,1.8-5.8,1.5c-0.2,0-0.3-0.2-0.2-0.4c0.7-1.2,0.8-2.6,0.8-4.2
	c-0.1-1.6-0.3-3.3-0.2-4.8c0.1-1.6,0.6-3,1.9-4.1c0.2-0.1,0.3-0.3,0.5-0.4c-2.3,0.4-4.6,0.9-6.8,1.4c-0.4,0.1-0.7,0.2-1.1,0.2
	c-1.3,0.9-2.1,1.9-2.5,3.1c-0.6,1.5-0.6,3.3-0.5,5.1c0.2,3.6,1,7.7-0.3,11.1c5.7-1.2,11.3-2.3,16.1-5c4.4-2.4,8-6.1,10.4-12.1
	c0-0.7,0-1.4-0.1-2.2C487.8,407.6,487,407.2,486.3,406.8z M351.3,397.2c9.4,6.3,17.6,14.2,24.4,23.1l7.8-5.2
	c-7.2-10-16.1-18.7-26.2-25.8L351.3,397.2z M471.5,410.7c-0.1,1.5,0.1,3.2,0.2,4.8c0.1,1.5-0.1,2.9-0.7,4.1c2.2,0.3,3.7-0.3,5-1.4
	c1.3-1.1,2.3-2.8,3.2-4.5c0.9-1.7,1.8-3.6,2.9-5c0.7-1,1.6-1.8,2.7-2.3c-2.2-0.5-4.3-0.7-6.3-0.6c-1,0-2,0.1-3,0.2
	c-1,0.3-1.7,0.6-2.3,1.1C472,408,471.6,409.3,471.5,410.7z M521.1,273.6c3.1,2.5,6.1,5.3,8.7,8.5l1.2-10.5L521.1,273.6z
	 M537.8,279.2l-3.6,0.2c-0.1,0-0.2-0.1-0.1-0.2l0.6-4.3c-1-1.2-1.9-2.4-2.9-3.5l-1.3,11.2l9.4-0.4
	C539.2,281.2,538.5,280.2,537.8,279.2z M536.8,290.5l2.6-7.6l-8.7,0.3c1.8,2.3,3.4,4.9,4.9,7.5C536.1,290.7,536.5,290.6,536.8,290.5
	z M477.7,260.2c1.2-0.1,2.4-0.1,3.6-0.1c3.6,0,7.2,0.3,10.8,0.8l-4.9-14.1L477.7,260.2z M412.4,251.2l2,1.6c1.4-1.4,2.7-2.8,4.2-4.1
	c0.6-0.5,1.1-0.9,1.7-1.4l-2.5-2.5C415.9,246.9,414.1,249,412.4,251.2z M499.9,249.4c-2.5-0.9-5-1.7-7.6-2.4l2.3,6.9L499.9,249.4z
	 M343,254.4c2.1,3.4,3.7,7.1,4.7,10.7c2,7.2,1.4,14.3-4.2,19c-2.6,2.2-5.7,3.2-8.7,3.2c-0.7,1.8-1.4,3.6-2.1,5.4
	c1.4,2.5,2.8,5,4.1,7.6c-0.5-1.2-0.8-2.6-0.8-4c-0.2-6.3,3.7-10.4,8.3-11.5c1.2-0.3,2.3-0.4,3.5-0.3c3.5,0.3,7,2.3,8.9,6.4
	c0.4,0.9,0.6,1.9,0.6,2.9c1.7-0.8,3.5-1.6,5.4-2.2c-0.3-3.6-1.5-7.5-3.2-11.3c-1-1.8-2-3.6-3-5.4c-0.3-0.3-0.6-0.6-0.9-0.9
	c-3.1-3.4-5.1-7-6.3-10.7C347.3,260.2,345.2,257.3,343,254.4z M420.7,241.9c-0.9,0.9-1.8,1.8-2.7,2.7l2.6,2.6c2-1.6,4-3.1,6.1-4.5
	l-3-3.6C422.7,240,421.7,240.9,420.7,241.9z M363,291.5c0.6-0.2,1.1-0.4,1.7-0.5c-1.1-2.5-2.3-5-3.6-7.4
	C362.1,286.3,362.8,288.9,363,291.5z M376.3,289.3c-0.4-0.9-0.7-1.8-1.1-2.6c-7.1-2.7-12.8-6.1-17-10c2.6,4.6,5,9.5,7.2,14.3
	C368.7,290,372.3,289.5,376.3,289.3z M383.3,289.2c-2.4-0.6-4.6-1.3-6.8-2.1c0.3,0.7,0.5,1.4,0.8,2.1
	C379.3,289.1,381.3,289.1,383.3,289.2z M424,238.9l3,3.6c2.2-1.4,4.4-2.7,6.6-3.9l-3.2-4.8C428.1,235.4,426,237,424,238.9z
	 M537.6,279c-0.9-1.3-1.8-2.5-2.7-3.7l-0.5,3.9L537.6,279z M528.1,267.5c-1.4-1.4-2.8-2.7-4.3-4l0.2,4.9L528.1,267.5z M430.6,233.6
	l3.3,4.8c2.2-1.1,4.4-2.2,6.7-3.1l-3.3-6.1C435,230.6,432.8,232,430.6,233.6z M515.4,257.3c-1.9-1.3-3.9-2.4-5.9-3.5l1,6
	L515.4,257.3z M437.6,229.1l3.3,6.1c2.4-1,4.9-1.8,7.3-2.5l-3.1-7.5C442.6,226.4,440.1,227.7,437.6,229.1z M543.5,288.8
	c-1.1-2.1-2.2-4-3.3-5.9l-2.6,7.4C539.6,289.8,541.6,289.3,543.5,288.8z M508.3,265.8c4,1.8,7.9,4.1,11.5,6.7l-0.7-12L508.3,265.8z
	 M354.8,570l0.7-0.8c-1-0.9-1.9-1.7-2.9-2.5c-0.2-0.2-0.5-0.4-0.7-0.5l-0.9,1.3C352.3,568.3,353.6,569.1,354.8,570z M350.7,567.3
	l0.9-1.4c-1.3-1-2.6-1.9-4-2.7l-1.1,2.1C348,565.9,349.4,566.6,350.7,567.3z M341.6,563.6l1.3-3c-1.5-0.7-3.1-1.4-4.7-2l-1.2,4
	C338.5,562.9,340.1,563.2,341.6,563.6z M346.2,565.2l1.1-2.1c-1.3-0.8-2.7-1.6-4.2-2.3l-1.2,3C343.4,564.1,344.8,564.6,346.2,565.2z
	 M364.5,581.5l0.3-0.2c-0.7-1.4-1.6-2.7-2.4-4l-0.3,0.2C363,578.8,363.8,580.1,364.5,581.5z M358.7,573.4l0.4-0.4
	c-1.1-1.2-2.2-2.4-3.4-3.6l-0.6,0.8C356.4,571.2,357.6,572.3,358.7,573.4z M361.9,577.2l0.3-0.2c-0.9-1.3-1.8-2.5-2.8-3.7l-0.4,0.4
	C360.1,574.8,361,576,361.9,577.2z M366.4,586.3l0.7-0.3c-0.6-1.5-1.3-3-2.1-4.5l-0.4,0.2C365.4,583.3,366,584.8,366.4,586.3z
	 M294.2,531.1v18.6c2.1,0,4.1-0.1,6.1-0.3l-1.9-18.8C297,530.8,295.6,531,294.2,531.1z M298.7,530.5l1.9,18.8c2-0.2,3.9-0.6,5.8-1.1
	l-3.7-18.6C301.4,530,300.1,530.3,298.7,530.5z M351.9,375.9c-10.9-6-23-10.3-35.8-12.5l-1,7.9c11.6,2.2,22.6,6.1,32.5,11.6
	L351.9,375.9z M303.1,529.6l3.7,18.7c2-0.5,3.9-1.1,5.8-1.8l-5.5-18.1C305.7,528.8,304.4,529.2,303.1,529.6z M333.3,555.7
	c-1-1.9-1.8-3.8-2.5-5.7c-2,1.5-4.1,3-6.2,4.2C327.6,554.5,330.5,555,333.3,555.7z M327.3,525.6l-5.3-6.4c-1,1-2,1.8-3.1,2.7
	l8.5,12.6C327.2,531.5,327.2,528.6,327.3,525.6z M332.2,562.2c1.5,0.1,2.9,0.2,4.4,0.4l1.2-4.1c-1.5-0.5-3.1-1-4.6-1.4L332.2,562.2z
	 M356.8,369.5l-18.4,30.6c2.3,1.2,4.5,2.5,6.7,3.9l21.5-28.7C363.4,373.3,360.1,371.3,356.8,369.5z M344.5,400.5
	c-0.8,0.3-1.7,0-2-0.8c-0.3-0.8,0-1.7,0.8-2c0.2-0.1,0.4-0.1,0.6-0.1c0.6,0,1.2,0.4,1.4,0.9C345.7,399.3,345.3,400.2,344.5,400.5z
	 M347.7,395.7c-0.8,0.4-1.7,0-2-0.8c-0.3-0.8,0-1.7,0.8-2c0.2-0.1,0.4-0.1,0.6-0.1c0.6,0,1.2,0.3,1.4,0.9
	C348.9,394.5,348.5,395.4,347.7,395.7z M351.1,390.8c-0.8,0.4-1.7,0-2-0.8c-0.4-0.8,0-1.7,0.8-2c0.2-0.1,0.4-0.1,0.6-0.1
	c0.6,0,1.2,0.3,1.4,0.9C352.3,389.6,351.9,390.5,351.1,390.8z M354.3,386c-0.8,0.3-1.7,0-2-0.8c-0.3-0.8,0-1.7,0.8-2
	c0.2-0.1,0.4-0.1,0.6-0.1c0.6,0,1.2,0.4,1.4,0.9C355.5,384.8,355.1,385.7,354.3,386z M357.6,381.4c-0.8,0.3-1.7,0-2-0.8
	c-0.4-0.8,0-1.7,0.8-2c0.2-0.1,0.4-0.1,0.6-0.1c0.6,0,1.2,0.4,1.4,0.9C358.7,380.2,358.3,381,357.6,381.4z M360.5,376.9
	c-0.8,0.4-1.7,0-2-0.8c-0.3-0.8,0-1.7,0.8-2c0.2-0.1,0.4-0.1,0.6-0.1c0.6,0,1.2,0.3,1.4,0.9C361.7,375.7,361.3,376.6,360.5,376.9z
	 M351.1,397.5l-5.3,7.1c8.6,5.7,16.2,12.7,22.5,20.7l7.1-4.8C368.6,411.6,360.4,403.8,351.1,397.5z M290.9,562l7.6,11.3
	c1-0.8,2.1-1.5,3.2-2.2l-6-11.2C294,560.5,292.4,561.2,290.9,562z M285.9,564.9l9.2,11.2c1-0.9,2-1.7,3-2.5l-7.6-11.4
	C289,563,287.4,563.9,285.9,564.9z M313.9,381.7c10.1,2,19.7,5.5,28.5,10.2l5.1-8.6c-9.9-5.4-20.9-9.4-32.4-11.6L313.9,381.7z
	 M307.3,354.8l-3.5,34.7c2.7,0.3,5.4,0.7,8.1,1.2l4.4-34.9C313.3,355.4,310.4,355,307.3,354.8z M309.3,387.8
	c-0.5,0.6-1.5,0.7-2.1,0.2c-0.7-0.5-0.8-1.5-0.2-2.2c0.3-0.4,0.7-0.6,1.2-0.6c0.4,0,0.7,0.1,1,0.3
	C309.7,386.1,309.8,387.1,309.3,387.8z M309.9,382c-0.5,0.6-1.5,0.7-2.1,0.2c-0.7-0.5-0.8-1.5-0.2-2.2c0.3-0.4,0.7-0.6,1.2-0.6
	c0.4,0,0.7,0.1,1,0.3C310.4,380.4,310.5,381.4,309.9,382z M310.6,376.1c-0.5,0.6-1.5,0.7-2.2,0.2c-0.6-0.5-0.8-1.5-0.2-2.2
	c0.3-0.4,0.7-0.6,1.2-0.6c0.3,0,0.7,0.1,1,0.3C311,374.4,311.1,375.4,310.6,376.1z M311.3,370.3c-0.5,0.7-1.5,0.8-2.2,0.3
	c-0.6-0.5-0.7-1.5-0.2-2.2c0.3-0.4,0.7-0.6,1.2-0.6c0.3,0,0.7,0.1,1,0.3C311.7,368.7,311.8,369.7,311.3,370.3z M312,364.7
	c-0.5,0.6-1.5,0.8-2.2,0.2s-0.8-1.5-0.2-2.2c0.3-0.4,0.7-0.6,1.2-0.6c0.3,0,0.7,0.1,1,0.3C312.4,363.1,312.5,364.1,312,364.7z
	 M310.4,359.7c-0.7-0.5-0.8-1.5-0.2-2.2c0.3-0.4,0.7-0.6,1.2-0.6c0.4,0,0.7,0.1,1,0.3c0.7,0.5,0.8,1.5,0.2,2.2
	C312,360.1,311,360.2,310.4,359.7z M313.8,382l-1.1,8.9c8.8,1.8,17.2,4.8,24.9,8.9l4.5-7.6C333.4,387.4,323.9,384,313.8,382z
	 M328,556l-0.6,6.3c1-0.1,2-0.1,3-0.1c0.5,0,1,0,1.5,0l1-5.2C331.3,556.6,329.7,556.2,328,556z M312.1,555.8l1.8,9.2
	c1.3-0.4,2.6-0.8,3.9-1.2l-0.8-8.5C315.4,555.4,313.7,555.5,312.1,555.8z M317.4,555.3l0.8,8.4c1.4-0.4,2.9-0.6,4.3-0.9v-7.4
	c-1.2-0.1-2.5-0.1-3.7-0.1C318.3,555.3,317.8,555.3,317.4,555.3z M322.8,555.4v7.3c1.4-0.2,2.8-0.4,4.2-0.5l0.6-6.3
	C326.1,555.7,324.5,555.5,322.8,555.4z M297.1,559.3c-0.4,0.2-0.8,0.3-1.2,0.5l6,11.1c1.2-0.8,2.4-1.5,3.6-2.2l-4.4-10.7
	C299.8,558.4,298.5,558.8,297.1,559.3z M301.4,557.9l4.4,10.7c1.2-0.6,2.4-1.2,3.6-1.8l-3.1-10.1C304.7,557,303.1,557.4,301.4,557.9
	z M306.7,556.6l3.1,10c1.3-0.6,2.5-1.1,3.9-1.5l-1.9-9.4C310.1,556,308.4,556.3,306.7,556.6z M338.7,444.9c4.8-2.5,9.2-4,13.2-4.6
	l9-7.4c-1.7-2.3-3.6-4.4-5.5-6.5l-11.7,11.7C342.4,440.4,340.8,442.7,338.7,444.9z M574.5,339.1l9.5,11.3c0.2-2.6,0.4-5.2,0.5-7.9
	l-3.7-4.5C578.7,338.4,576.6,338.7,574.5,339.1z M572.8,297c-1.1,0.1-2.1,0.6-3.1,1.8c-1,1.2-1.8,2.9-2.4,5.4
	c-1.2,5-1.6,13.2-0.1,25.7c3-0.6,6-1.2,9-1.6l-1.1-12.2c-0.1,0-0.2,0-0.3,0c-1.5,0-2.7-1.2-2.7-2.7c0-1.5,1.2-2.7,2.7-2.7
	c1.5,0,2.7,1.2,2.7,2.7c0,1.3-0.8,2.4-2.1,2.6l1.1,12.2c2.4-0.4,4.9-0.7,7.4-0.9c-1.2-10.6-4.1-20.6-8.6-30
	c-0.6-0.3-1.2-0.4-1.8-0.4C573.3,296.9,573,296.9,572.8,297z M584.5,342c0-1,0-1.9,0-2.9c0-0.5,0-1,0-1.5c-1.1,0.1-2.2,0.3-3.3,0.4
	L584.5,342z M530.2,343.9c1.1,2.8,1.8,5.7,2.2,8.8c15.9-8,33.5-13.5,52.2-15.8c-0.1-2.9-0.2-5.8-0.5-8.6c-19.2,1.9-37.5,7.4-54,15.2
	C530.1,343.7,530.1,343.8,530.2,343.9z M445.4,416.4l5.5,2.6c0.8-1.6,1.6-3.3,2.5-4.9c0-0.4,0.1-0.8,0.1-1.2
	c-0.3-0.1-0.5-0.3-0.8-0.4c-0.3,0.2-0.6,0.4-0.9,0.5C449.7,414.3,447.5,415.4,445.4,416.4z M506.4,308.4c1.3,1.7,2.5,3.4,3.6,5.3
	c20.2-9.7,42.1-15.9,64.4-18.1c-1.6-3.3-3.5-6.5-5.5-9.6c-23,2.1-45.1,8.4-65.4,18.6C504.5,305.9,505.5,307.2,506.4,308.4z
	 M575.1,296.8c-0.1-0.1-0.1-0.2-0.2-0.3c-0.3,0-0.7,0.1-1,0.1C574.3,296.6,574.7,296.7,575.1,296.8z M563.6,391.4
	c3.2-1.6,6.6-3,9.9-4.2c1.9-3.7,3.6-7.5,5-11.5c-10.5,2.6-20.4,6.4-29.8,11.2C553.8,387.8,558.8,389.3,563.6,391.4z M553.1,286.9
	c5-0.9,10-1.5,15-2c-1.1-1.6-2.3-3.3-3.5-4.8c-0.1-0.2-0.3-0.4-0.4-0.6l-12.6,3.8C552.1,284.4,552.6,285.6,553.1,286.9z
	 M569.4,394.3c1.4-2.2,2.7-4.4,3.9-6.6c-3.2,1.1-6.3,2.4-9.3,3.9C565.8,392.4,567.6,393.3,569.4,394.3z M532.8,387.4
	c-0.3,0.4-0.6,0.7-1,1.1c-1.4,1.8-2.7,3.8-4.2,5.8c2.9-0.4,5.9-0.5,8.8-0.4c9.3,0.3,18.7,3,27.5,8.1c0.6-0.8,1.2-1.5,1.7-2.3
	c1.1-1.5,2.1-3,3.1-4.5C557.6,389,545.1,386.4,532.8,387.4z M537.1,386c3.5-0.1,7.1,0.2,10.6,0.7c9.8-5.1,20.2-9.1,31.2-11.8
	c0.8-2.2,1.5-4.4,2.1-6.7c-15.8,3.5-30.7,9.8-44,17.8H537.1z M566.8,360.5c5.4-1.6,10.9-2.8,16.5-3.7c0.3-1.8,0.5-3.7,0.7-5.6
	l-9.9-11.8L566.8,360.5z M576.3,349.3c1.5,0,2.7,1.2,2.7,2.7c0,1.5-1.2,2.7-2.7,2.7c-1.5,0-2.7-1.2-2.7-2.7
	C573.6,350.5,574.8,349.3,576.3,349.3z M541.4,381.4c0.2,0.3,0.1,0.7-0.3,0.8c-2.9,0.5-5.1,2-7.2,4c0.3,0,0.6-0.1,0.9-0.1
	c13.9-8.5,29.7-15.3,46.4-18.9c0.8-2.9,1.4-5.9,1.9-9c-17.1,2.9-33,9-47.5,17.1C537.7,376.9,539.7,378.9,541.4,381.4z M478.2,230
	v-2.4c-2.5-0.5-5-0.9-7.6-1.3l0.3,3.3C473.4,229.7,475.8,229.8,478.2,230z M551.5,282.9l12.5-3.8c-1.8-2.3-3.6-4.5-5.6-6.7l-10,4.1
	C549.5,278.6,550.5,280.8,551.5,282.9z M499.4,234.7l0.3-1.1c-2.2-0.8-4.4-1.5-6.6-2.2l-0.2,1.3C495.1,233.3,497.3,234,499.4,234.7z
	 M518.9,244.4l1.2-1.8c-2-1.1-4.1-2.1-6.2-3.1c0,0-0.1,0-0.1-0.1l-0.8,1.4C515,242,516.9,243.2,518.9,244.4z M512.7,240.7l0.8-1.4
	c-2.1-1-4.2-1.9-6.3-2.8l-0.5,1.2C508.7,238.6,510.7,239.6,512.7,240.7z M556.9,410.3c2.3-2.5,4.5-5,6.6-7.7c-1.2-0.7-2.4-1.4-3.7-2
	L556.9,410.3z M492.6,232.6l0.3-1.3c-2.3-0.7-4.6-1.4-6.9-2l-0.2,1.7C488.1,231.5,490.3,232,492.6,232.6z M485.4,231l0.2-1.7
	c-2.3-0.6-4.7-1.1-7-1.6v2.4C480.9,230.3,483.2,230.6,485.4,231z M506.3,237.5l0.5-1.2c-2.2-0.9-4.5-1.8-6.7-2.6l-0.3,1.1
	C502,235.6,504.2,236.5,506.3,237.5z M524.6,248.5l1.9-2.3c-2-1.2-4-2.3-6.1-3.4l-1.2,1.8C521,245.8,522.8,247.1,524.6,248.5z
	 M548.2,276.3l10-4.1c-2-2.2-4-4.3-6.1-6.4l-7.7,4.1C545.8,272,547,274.1,548.2,276.3z M540,263.9l5.7-3.8c-2-1.7-4-3.3-6.1-4.9
	l-4.2,3.4C537.1,260.3,538.6,262,540,263.9z M544.2,269.7l7.6-4.1c-1.9-1.8-3.8-3.6-5.8-5.3l-5.8,3.9
	C541.6,265.9,543,267.8,544.2,269.7z M530.2,253.3l2.9-2.9c-2.1-1.4-4.2-2.7-6.4-4l-1.9,2.3C526.7,250.2,528.5,251.7,530.2,253.3z
	 M535.3,258.3l4.1-3.4c-1.9-1.5-3.9-2.9-6-4.3l-2.9,2.9C532.1,255.1,533.7,256.7,535.3,258.3z M471.8,281.1
	c3.8-2.6,8.3-4.3,13.2-5.1c1.7-0.3,3.5-0.4,5.4-0.5c12.5-0.3,26.2,5.4,34.1,18.9c1.5-0.5,3-1,4.4-1.5
	c-10.2-17.5-28.5-25.8-45.3-25.8c-7.8,0-15.4,1.8-21.6,5.2C465.4,275,468.7,277.9,471.8,281.1z M497.1,271.7c0.4,0,0.6,0.3,0.6,0.6
	c0,0.4-0.3,0.6-0.6,0.6c-0.4,0-0.6-0.3-0.6-0.6C496.5,271.9,496.8,271.7,497.1,271.7z M492.5,270.7c0.5,0,1,0.4,1,1c0,0.5-0.4,1-1,1
	c-0.5,0-1-0.4-1-1C491.5,271.1,491.9,270.7,492.5,270.7z M487.4,270.4c0.6,0,1.2,0.5,1.2,1.1c0,0.6-0.5,1.2-1.2,1.2
	c-0.6,0-1.2-0.5-1.2-1.2C486.2,270.9,486.7,270.4,487.4,270.4z M481.8,270.5c0.7,0,1.4,0.6,1.4,1.4c0,0.7-0.6,1.4-1.4,1.4
	c-0.8,0-1.4-0.6-1.4-1.4C480.4,271.1,481.1,270.5,481.8,270.5z M475.8,271.4c0.8,0,1.5,0.7,1.5,1.6c0,0.8-0.7,1.5-1.5,1.5
	c-0.8,0-1.6-0.7-1.6-1.5C474.2,272.1,474.9,271.4,475.8,271.4z M469.6,277c-1,0-1.8-0.8-1.8-1.8c0-1,0.8-1.8,1.8-1.8
	c1,0,1.8,0.8,1.8,1.8C471.4,276.2,470.6,277,469.6,277z M373.9,454.3c2.2-1.4,4.6-2.8,7-4.1c-13.5-34.9-47.7-60.2-87.6-59.7
	c-0.7,0-1.4,0-2.2,0.1v7.9c0.4,0,0.9,0,1.3,0C329.3,398.4,360.8,421.5,373.9,454.3z M292.5,399c-0.4,0-0.9,0-1.3,0v3.7
	c2.3-2,4.7-3.2,7.1-3.5C296.4,399.1,294.4,399,292.5,399z M298.4,412c1.6,0.2,2.9,1.7,3.6,4.3c0.7,2.5,0.9,6.1,0.3,10.6
	c2.3,0.6,4.7,1.2,6.9,2c2.1-8.6,1.9-15.4,0.2-20.3c-1.7-4.9-4.8-7.8-8.2-8.4c-0.5-0.1-0.9-0.1-1.4-0.1c-2.8-0.1-5.8,1.2-8.7,4v14.8
	c0.7-1.5,1.4-2.8,2.2-3.9C295,412.8,296.7,411.8,298.4,412z M305.8,361.8l0.7-7c-3.1-0.2-6.2-0.3-9.3-0.3c-2,0-4,0.1-6,0.1v6.9
	c1.6-0.1,3.1-0.1,4.7-0.1C299.2,361.4,302.5,361.5,305.8,361.8z M303,389.5l0.9-8.9c-3.3-0.3-6.7-0.5-10.1-0.5c-0.9,0-1.8,0-2.6,0
	v9.1c0.7,0,1.4,0,2.1,0C296.6,389,299.8,389.2,303,389.5z M301.8,426.8c0.6-4.5,0.4-8-0.3-10.4c-0.7-2.5-1.9-3.8-3.2-4
	c-0.1,0-0.2,0-0.3,0c-1.3-0.1-2.8,0.8-4.3,2.9c-0.9,1.2-1.8,2.9-2.6,4.9v5c0.9,0.1,1.8,0.1,2.7,0.2
	C296.5,425.8,299.2,426.2,301.8,426.8z M303.9,380.2l1-9.9c-3.3-0.3-6.7-0.5-10.2-0.5c-1.2,0-2.4,0-3.6,0.1v9.8c0.9,0,1.7,0,2.6,0
	C297.2,379.7,300.6,379.9,303.9,380.2z M304.9,370l0.8-7.8c-3.2-0.3-6.6-0.4-9.9-0.4c-1.6,0-3.1,0-4.7,0.1v7.7
	c1.2,0,2.4-0.1,3.6-0.1C298.2,369.5,301.6,369.7,304.9,370z M551.9,397.4l-3,15.3c1.6,0.3,3.2,0.6,4.8,1c0.9-0.9,1.8-1.9,2.7-2.8
	l3.1-10.4C557,399.3,554.5,398.2,551.9,397.4z M342.9,483c2.2-3.1,4.7-6.1,7.4-9.1c-7.9-27.6-30.8-44.6-56.5-47.4
	c-0.9-0.1-1.7-0.2-2.6-0.2v6.9c2.9,0.5,5.7,1.2,8.4,2C322.2,442.3,339.8,461.2,342.9,483z M292.2,578.9c0.9-0.9,1.8-1.8,2.7-2.7
	l-9.2-11.2c-0.9,1.7-1.8,3.3-2.7,4.7L292.2,578.9z M292.9,452.1c0.5-0.4,0.9-1,0.9-1.6c0-0.6-0.2-1.1-0.5-1.5
	c-0.3-0.4-0.8-0.6-1.3-0.8c-0.3-0.1-0.6-0.1-0.9-0.1v4.1C291.8,452.5,292.4,452.4,292.9,452.1z M332.3,500.5l0.7,0.3
	c2.4-5.9,5.6-11.7,9.6-17.4c-3-21.8-20.4-40.8-43.2-47.9c-2.7-0.8-5.5-1.5-8.3-2v5.2c3.4,0.8,6.5,1.7,9.5,2.9
	C328.4,452.3,337.7,479.4,332.3,500.5z M287.7,562.2c-0.2,0-0.4-0.1-0.6-0.1c-0.1,0.2-0.2,0.4-0.3,0.6
	C287.1,562.5,287.4,562.4,287.7,562.2z M269.8,581.4l14.7,7.8c0.6-1.2,1.3-2.3,2.1-3.3l-12.2-8.1c-1.1,0.6-2.3,1.3-3.3,1.8
	C270.6,580.2,270.2,580.8,269.8,581.4z M470.3,229.6h0.3l-0.3-3.3c-2.5-0.4-5.1-0.6-7.6-0.9l0.9,4.5
	C465.8,229.7,468.1,229.6,470.3,229.6z M295.5,455.9c2-0.8,3.3-2.7,3.6-4.5c0.3-1.6-0.3-3.2-1.8-4.2c-2-0.8-4-1.5-6.1-2.1v2.7
	c0.3,0,0.7,0,1,0.1c0.6,0.2,1.2,0.4,1.5,0.9c0.4,0.4,0.5,1,0.5,1.7c0,0.7-0.4,1.5-1.1,1.9c-0.6,0.4-1.3,0.5-2,0.3v3.5
	C292.5,456.5,294.1,456.4,295.5,455.9z M487,301.4c0.5-0.6,0.9-1.3,1.4-1.9c1.4-1.6,3-3.1,4.6-4.3c-2.4-4.5-8.5-7.7-14.6-7.8
	c-0.3,0-0.6,0-0.8,0c2.2,2.7,4.2,5.5,6.2,8.4C484.9,297.7,485.9,299.6,487,301.4z M469.5,400.1c3.2,1.2,6.9,2.1,11.1,3.5
	c-3.2-2.1-5.9-4.3-8.1-6.5C471.5,398.1,470.5,399.1,469.5,400.1z M413.3,254.1c0.3-0.3,0.6-0.7,0.9-1l-2-1.6
	c-0.7,0.9-1.3,1.8-1.9,2.6h2.4C412.8,254.1,413.1,254.1,413.3,254.1z M480.7,387.5c1.3,6.7,4.2,13.8,8.6,19.5
	c0.1-0.1,0.2-0.1,0.4-0.1h0.1c4.3-12.5,4.1-18.9,2.1-23.7c-1-2.4-2.5-4.5-4.1-6.8c-1.2,2.3-2.5,4.6-4,6.8
	C482.7,384.7,481.7,386.1,480.7,387.5z M383.7,259.9c-0.8,0-1.6,0.1-2.2,0.3c-1.3,0.3-2.1,0.8-2.5,1.5c-0.4,0.7-0.4,1.5,0.1,2.5
	c0.5,1,1.5,2.1,3.1,3.2c1.3,0.9,3.1,1.8,5.2,2.7v-9.8c-0.3-0.1-0.6-0.1-0.9-0.2C385.5,260,384.5,259.9,383.7,259.9z M376.4,318.5
	c0.1,0.8,0.6,1.6,1.5,2.3c0.9,0.7,2.2,1.2,3.9,1.4c1.5,0.2,3.4,0.1,5.6-0.2v-9.7c-2.8,0.1-5,0.7-6.7,1.4
	C377.5,314.9,376.2,316.9,376.4,318.5z M359,320c0.8,5.2,4.8,9.9,11.7,11.7c4.4,1.2,10,1.3,16.7-0.4v-8.9c-2.2,0.4-4.1,0.4-5.7,0.2
	c-1.8-0.2-3.2-0.7-4.2-1.4c-1-0.7-1.6-1.6-1.7-2.6c-0.3-2,1.3-4.1,4.6-5.5c1.8-0.8,4.1-1.3,7-1.4v-12.3c-9.5-0.1-16.5,2.2-21.2,5.5
	C360.5,309,358.2,314.8,359,320z M370.6,332.1c-7-1.9-11.1-6.7-12-12c-0.8-5.3,1.5-11.3,7.4-15.4c4.4-3.1,10.8-5.3,19.2-5.6
	c0.7,0,1.4,0,2.1,0v-8.4c-2.3-0.2-4.4-0.3-6.5-0.3c-12.8-0.1-22.1,3.1-28.3,7.8c-8.2,6.3-10.9,15.4-9.1,23.7h0
	c1.5,0.3,3,0.5,4.7,0.6c0.4,0.1,0.5,0.5,0.2,0.8c-1.3,1-2.4,2-3.4,3.2c3.2,7.1,9.8,12.9,19.6,14.8c6.4,1.3,14.1,0.9,22.9-2v-7.5
	C380.7,333.3,375.1,333.3,370.6,332.1z M369.4,269.9c-5.1-5.1-6.5-10.9-4.7-15.4c1.8-4.5,6.8-7.8,14.2-8c6.5-0.2,15,1.9,25,7.6h4.9
	c0.9-1.3,1.9-2.6,2.8-3.9c-14.8-10.4-27.6-14.5-37.7-14.5c-1.1,0-2.1,0-3.1,0.1c-10.6,0.8-17.6,6.3-20.3,13.5
	c-2.7,7.2-1.1,16.1,6,24c6,6.7,16.1,12.6,30.9,15.7v-9.3C379.1,277.2,373.2,273.7,369.4,269.9z M387.4,391.5v-10.3
	c-10.6-9.9-22.9-18-36.4-23.9c-0.2,0.1-0.4-0.1-0.5-0.2c-7.9-3.4-16.2-6.1-24.8-7.9c-0.1,0-0.2,0-0.3-0.1
	c-8.7-1.8-17.6-2.7-26.8-2.7c-2.5,0-5,0.1-7.4,0.2v6.9c2-0.1,4-0.1,6-0.1C332.6,353.4,364.7,368,387.4,391.5z M378.9,246.8
	c-7.3,0.3-12.2,3.4-13.9,7.8c-1.7,4.4-0.5,9.9,4.6,15c3.7,3.7,9.6,7.2,17.8,9.7v-8.6c-2.3-0.9-4.1-1.9-5.5-2.8
	c-1.6-1.2-2.7-2.3-3.3-3.4c-0.6-1.1-0.6-2.2-0.1-3c0.5-0.8,1.5-1.5,2.8-1.8c0.7-0.2,1.4-0.2,2.3-0.3c0.8,0,1.8,0.1,2.8,0.2
	c0.3,0,0.6,0.1,0.9,0.2v-5.7h15.8c-9.3-5.3-17.3-7.3-23.6-7.3H378.9z M455,267.4c0.4-0.3,0.8-0.5,1.2-0.8c1.3-0.7,2.6-1.5,4-2.1
	l-16.3-12.9l1.5,10.4c2.1,1,4.3,2.2,6.4,3.4C452.9,266,453.9,266.7,455,267.4z M496.2,334.6c0.1,1.4,0.1,2.8,0.1,4.2
	C496.3,337.3,496.3,335.9,496.2,334.6z M463.2,229.9l-0.9-4.5c-2.7-0.2-5.4-0.4-8.2-0.4l1.8,6C458.4,230.5,460.8,230.2,463.2,229.9z
	 M497.1,342.4c1.2-2.5,2.8-4.6,4.5-6.4c2-3.8,2.7-6.8,2.6-9.3c-0.2-2.8-1.3-5.1-2.7-7.1c-1.5-2.1-3.3-4-4.6-6
	c-1.3-2-2.2-4.1-2.2-6.8c-1.5,1.1-2.6,2.5-3.5,3.9c1.9,5,3.2,10.1,4.1,15.4C496.9,330.5,497.7,335.8,497.1,342.4z M498.2,374.4
	c2.1,8.3,0.8,18.1-6.3,30.2c8.5-10,12.7-19.9,12.9-29.5v-0.1c0-1.6-0.1-3.2-0.2-4.8c-0.8-6.6-4.3-12.8-9-19.1
	c-0.5,4.2-1.4,8.2-2.5,12.1C495.4,366.6,497.2,370.3,498.2,374.4z M486.3,405.7c-4.8-3.8-8.2-7.8-10.4-12.2c-0.8,1-1.7,1.9-2.6,2.8
	C476.4,399.6,480.6,402.7,486.3,405.7z M488,406.6c0.1,0.1,0.3,0.1,0.4,0.2c-4.1-5.5-6.8-12.3-8.1-18.7c-1.3,1.8-2.7,3.5-4.2,5.2
	C478.5,398,482.4,402.5,488,406.6z M492.3,383c2,4.9,2.2,11.2-1.8,23.2c0,0,0.1-0.1,0.1-0.1c8-12.9,9.5-23,7.3-31.7
	c-1-3.9-2.7-7.5-5-11c-1.3,4.3-2.9,8.5-4.9,12.4C489.6,378.3,491.2,380.4,492.3,383z M479,286.6c6.1,0.3,12.2,3.5,14.6,8.1
	c1.4-1,2.9-1.7,4.3-2.1c0.1,0,0.1,0,0.2,0c0.3,0,0.5,0.2,0.5,0.5c-0.2,4,1.9,7.5,4.5,11l-0.3-0.5c6.7-3.4,13.6-6.3,20.7-8.8
	c-7.4-12.5-20-18-31.8-18.2c-2.2,0-4.4,0.1-6.5,0.5c-4.7,0.8-9.1,2.4-12.7,4.8c1.5,1.6,2.9,3.2,4.3,4.9
	C477.6,286.6,478.3,286.6,479,286.6z M507.1,288.3c2.8,0,5.1,2.3,5.1,5.1c0,2.8-2.3,5.1-5.1,5.1c-2.8,0-5.1-2.3-5.1-5.1
	C502,290.6,504.3,288.3,507.1,288.3z M498.5,281.9c2.1,0,3.8,1.7,3.8,3.8c0,2.1-1.7,3.8-3.8,3.8c-2.1,0-3.8-1.7-3.8-3.8
	C494.7,283.6,496.4,281.9,498.5,281.9z M489.6,279.8c1.3,0,2.4,1.1,2.4,2.4c0,1.3-1.1,2.4-2.4,2.4c-1.3,0-2.4-1.1-2.4-2.4
	C487.2,280.9,488.3,279.8,489.6,279.8z M482.9,280.4c0.8,0,1.5,0.7,1.5,1.5c0,0.8-0.7,1.5-1.5,1.5c-0.8,0-1.5-0.7-1.5-1.5
	C481.4,281.1,482.1,280.4,482.9,280.4z M472.2,244c28.4-0.3,57,15.5,71.9,44.7c2.7-0.6,5.4-1.2,8.2-1.7
	c-13.7-35.2-47.7-56.5-81.9-56.5c-18,0-36.1,6-51.1,18.9c-1.7,1.5-3.3,3.1-4.8,4.7c5.8,0.1,11.5,1,17.1,2.6
	C443.9,248.3,458,244.1,472.2,244z M438.3,253.1c-2.1,1.1-4.1,2.4-6.2,3.7c2.4,0.7,4.7,1.5,7.1,2.4L438.3,253.1z M381.1,342.1
	c0.8,5,1.3,9.7,1.6,14.5c1-2.9,2.6-5.9,4.7-9v-7.2C385.3,341.1,383.2,341.7,381.1,342.1z M469.9,404.7c3.6-0.4,7.3-1,11.2-0.4
	c-4.6-1.6-8.5-2.5-12.1-3.8c-1.7,1.6-3.5,3.1-5.3,4.6C465.7,405.1,467.8,404.9,469.9,404.7z M482.4,266.6c17.4-0.4,36.6,8,47,26.2
	c1.8-0.6,3.6-1.1,5.4-1.6c-8.1-14.8-22.1-24.1-36.8-28c-5.6-1.5-11.3-2.2-16.8-2.2c-9.2,0.1-17.8,2.2-24.6,6.3
	c-0.3,0.2-0.6,0.4-0.9,0.6c2,1.3,3.9,2.6,5.7,4C467.6,268.6,474.8,266.7,482.4,266.6z M443.1,250.8c-1.5,0.7-3,1.4-4.5,2.2l1,6.4
	c1.7,0.7,3.4,1.4,5.1,2.2L443.1,250.8z M453.6,412.6c0-0.2,0.1-0.4,0.1-0.6c-0.2,0.1-0.4,0.2-0.6,0.3
	C453.2,412.4,453.4,412.5,453.6,412.6z M380.9,428c3.5,5.6,6.4,11.5,8.7,17.8c2.6-1.2,5.2-2.4,8-3.5c-2.2-6.4-5-12.5-8.3-18.3h-1.5
	L380.9,428z M397.9,442.2c1.1-0.4,2.2-0.9,3.3-1.3c0.1,0,0.1,0,0.2,0c0,0,0,0,0,0c1.4-0.6,2.9-1.1,4.3-1.6c-1.8-5.2-4-10.3-6.6-15.2
	h-9.6C392.9,429.8,395.7,435.8,397.9,442.2z M362.4,382.4l-5,6.6c10.2,7.1,19.1,15.8,26.3,25.8l3.7-2.5v-6.5
	C380.3,396.8,371.9,388.9,362.4,382.4z M387.3,417.5c0-0.2,0.1-0.5,0.1-0.7v-3.4L368.8,426c1.4,1.8,2.8,3.8,4.1,5.7l14.5-8.5v-5.1
	C387.3,417.9,387.3,417.7,387.3,417.5z M374,428.4c-0.8,0-1.5-0.7-1.5-1.5c0-0.8,0.7-1.5,1.5-1.5c0.8,0,1.5,0.7,1.5,1.5
	C375.5,427.8,374.8,428.4,374,428.4z M378.8,425.3c-0.8,0-1.5-0.7-1.5-1.5c0-0.8,0.7-1.5,1.5-1.5c0.8,0,1.5,0.7,1.5,1.5
	C380.4,424.6,379.7,425.3,378.8,425.3z M383.9,422.1c-0.8,0-1.5-0.7-1.5-1.5c0-0.8,0.7-1.5,1.5-1.5c0.8,0,1.5,0.7,1.5,1.5
	C385.4,421.4,384.8,422.1,383.9,422.1z M466.3,406.7c5.2-1.2,10.6-2.5,16.8-1.6c-0.1,0-0.1-0.1-0.2-0.1c-4.5-1.1-8.8-0.5-13,0
	c-2.3,0.3-4.5,0.5-6.6,0.4c-1.2,0.9-2.4,1.8-3.6,2.7C461.8,407.7,464,407.3,466.3,406.7z M406.1,439.1c2.6-0.9,5.4-1.7,8.2-2.3
	c-1.5-4.4-3.3-8.6-5.3-12.8h-9.4C402.1,428.9,404.3,433.9,406.1,439.1z M367.3,375.9l-4.7,6.2c9.4,6.5,17.7,14.3,24.8,23.2V393
	C381.3,386.6,374.6,380.8,367.3,375.9z M383.4,358.4c-2.2,7.7-0.7,14.5,3.1,19.4c0.3,0.4,0.6,0.7,0.9,1v-29.1
	C385.5,352.7,384.2,355.6,383.4,358.4z M448,425.6c0.9-2.1,1.8-4.2,2.8-6.3l-5.8-2.7c-3.1,1.4-6.2,2.7-9.3,3.7
	C438.9,422,443,423.8,448,425.6z M454.4,414.2v0.8c0,2,0.4,4.2,0.7,6.4c0.4,4.1,0.1,8.7-4.4,13.7c5.4-1.8,12.3-1.9,18.6-3.2
	c0.1-0.1,0.3-0.2,0.4-0.2c0.1,0,0.2,0,0.2,0.1c1.1-0.2,2.1-0.5,3.1-0.8c4.1-1.2,7.8-3.2,10.7-6.7c2.4-3,4.1-7,5-12.7
	c0-0.2,0-0.4,0-0.6c-2.4,5.7-6,9.3-10.3,11.6c-5,2.7-10.8,3.9-16.5,5.1c-0.1,0.1-0.2-0.1-0.2-0.2c1.4-3.3,0.6-7.5,0.4-11.2
	c-0.1-1.9-0.1-3.7,0.5-5.3c0.4-1.1,1.1-2,2-2.8c-2.4,0.5-4.7,0.9-6.8,1.2c-0.9,0.6-1.9,1.3-2.9,1.9
	C454.6,412.2,454.4,413.2,454.4,414.2z M420.8,425.7c-0.3,1.4,0.2,3.1,1.9,4.7c1.5,1.5,4,2.9,7.4,4.1c0.3,0,0.5-0.1,0.8-0.1
	c1.6-0.1,3.2-0.2,4.8-0.2c3.1,0,6.1,0.1,9.1,0.3c0.3-0.8,0.5-1.7,0.8-2.5l-8.9-2.2c-0.4,0.9-1.3,1.5-2.3,1.5c-1.4,0-2.4-1.1-2.4-2.4
	c0-1.3,1.1-2.4,2.4-2.4c1.4,0,2.4,1.1,2.4,2.4c0,0.2,0,0.4-0.1,0.6l8.9,2.2c0.7-2,1.4-3.9,2.2-5.8c-7-2.8-12.8-4-17.1-4.2
	c-2.7,0.7-5.5,1.3-8.2,1.6C421.6,424,421,424.8,420.8,425.7z M423.2,435.1c2-0.3,4-0.5,6-0.6c-3.1-1.2-5.3-2.5-6.8-3.9
	c-1.7-1.7-2.3-3.4-2-5c0.2-0.8,0.7-1.6,1.4-2.2c-1,0.1-2.1,0.2-3.1,0.3C420.4,427.5,421.9,431.3,423.2,435.1z M441.4,423.4
	c-2.3-1-4.3-2-6.1-2.9c-1.2,0.4-2.3,0.7-3.5,1C434.6,421.7,437.8,422.3,441.4,423.4z M494.7,306.3c0.1,0,0.1-0.1,0.1-0.1
	c0.1,0,0.2,0.1,0.2,0.2c-0.2,2.7,0.8,4.9,2.1,6.9c1.4,2,3.1,3.9,4.6,6c1.5,2.1,2.7,4.4,2.8,7.3c0.1,2.4-0.5,5.1-2.1,8.5
	c0.8-0.8,1.6-1.5,2.4-2.2c2.3-1.9,4.8-3.6,7.2-5.5c1-7.8-2.6-13.3-6.5-18.4c-3.8-4.9-7.8-9.5-8-15.2c-2.9,1.1-6,3.4-8.5,6.4
	c-0.6,0.7-1.2,1.5-1.7,2.2c1.3,2.6,2.5,5.2,3.6,7.8C492,308.8,493.2,307.5,494.7,306.3z M369.4,234.5c-0.1,0.1-0.1,0.1-0.2,0.2
	c0.5-0.1,1-0.1,1.6-0.2c1.5-0.1,3.2-0.1,4.8-0.1c-1.7-3.4-3.3-6.6-5-9.6h-0.1C372.1,228,371.9,232,369.4,234.5z M388.4,236.9
	c-1.7-3.7-3.6-7.6-5.9-12.1H371c1.7,3,3.3,6.3,5,9.6C379.8,234.8,384,235.6,388.4,236.9z M348.8,261.2c-0.6-2.7-0.7-5.3-0.4-7.9
	c-1-0.4-1.7-1.4-1.7-2.6c0-1.6,1.3-2.8,2.8-2.8c0.1,0,0.3,0,0.4,0c0.6-1.3,1.3-2.6,2.1-3.8c-4.3-5.7-10.5-13.5-16.5-19.3h-12.2
	c-0.3,0.1-0.7,0.2-1.1,0.2c-0.4,0-0.7-0.1-1.1-0.2h-6.6C327.2,234.1,338.8,246.7,348.8,261.2z M343.4,240.4c1.6,0,2.8,1.3,2.8,2.9
	c0,1.6-1.3,2.8-2.8,2.8c-1.6,0-2.9-1.3-2.9-2.8C340.6,241.7,341.9,240.4,343.4,240.4z M337.2,233.3c1.6,0,2.9,1.3,2.9,2.9
	c0,1.6-1.3,2.8-2.9,2.8c-1.6,0-2.8-1.3-2.8-2.8C334.3,234.6,335.6,233.3,337.2,233.3z M326.9,228.7c0-1.8,1.5-3.2,3.2-3.2
	c1.8,0,3.2,1.4,3.2,3.2c0,1.8-1.4,3.2-3.2,3.2C328.4,231.9,326.9,230.5,326.9,228.7z M402.6,243.2c-6.6-5.9-11.2-12.1-14.3-18.3
	h-5.4c2.3,4.5,4.2,8.5,6,12.2C393.2,238.5,397.7,240.5,402.6,243.2z M357.4,239c-1.2-1.7-2.5-3.4-3.8-5c-0.1,0-0.1-0.1-0.1-0.1
	c0,0,0-0.1,0-0.1c-2.3-3-4.6-5.9-7.1-8.9h-9.5c5.7,5.7,11.6,13,15.7,18.5C353.9,241.7,355.5,240.2,357.4,239z M352.8,226.8
	c0.2-0.7,0.4-1.3,0.7-1.9h-6.8c2.1,2.6,4.2,5.1,6.2,7.7C352.4,230.8,352.4,228.8,352.8,226.8z M353.7,233.6c1.3,1.7,2.6,3.5,3.9,5.2
	c1.3-0.9,2.8-1.6,4.4-2.3c-2-0.5-3.8-1.9-4.5-4.1c-0.5-1.6-0.2-3.1,0.5-4.1c0.7-1,1.9-1.6,3.1-1.5c2.1,0.1,3,2.1,2.3,3.4
	c-0.5,1.1-1.5,1.4-2.3,1.2c-0.4-0.1-0.7-0.3-0.9-0.6c-0.2-0.3-0.2-0.7-0.1-1.2c0.1-0.2,0.4-0.1,0.3,0.1c-0.1,0.3-0.1,0.6,0.1,0.8
	c0.2,0.2,0.4,0.4,0.7,0.4c0.6,0.1,1.4-0.1,1.9-1.1c0.6-1.1-0.2-2.9-2-3c-1.1,0-2.1,0.5-2.8,1.4c-0.7,0.9-1,2.2-0.5,3.8
	c0.7,2.3,2.7,3.6,4.8,4c1.8-0.7,3.8-1.2,6-1.5c0.2-0.2,0.5-0.4,0.6-0.5c2.4-2.5,2.5-6.4,0.9-9.4H354c-0.3,0.6-0.6,1.3-0.8,2
	C352.6,229.2,352.8,231.6,353.7,233.6z M412.4,249.3c1.6-2.1,3.4-4,5.2-6c-8.2-5.8-13.4-12.3-16.2-18.4h-11.7
	C393.9,233.2,401.2,241.8,412.4,249.3z M442.5,225.2c-0.1-0.1-0.1-0.2-0.2-0.3h-7.7c0.7,1.1,1.5,2.1,2.2,3.2
	C438.7,227.1,440.6,226.1,442.5,225.2z M443.1,224.9h-0.3c0,0,0,0.1,0.1,0.1C442.9,225,443,224.9,443.1,224.9z M368.3,585.3
	c0.3,0.7,0.5,1.4,0.8,2.1c0.3,0,0.6,0.1,0.9,0.1c0.5-0.4,1-0.8,1.5-1.2C370.4,586,369.3,585.7,368.3,585.3z M448.6,232.6
	c2.3-0.6,4.7-1.2,7-1.6l-1.8-6c-1.1,0-2.2,0-3.3,0H446c-0.2,0.1-0.3,0.1-0.5,0.2L448.6,232.6z M436.6,228.3
	c-0.8-1.2-1.5-2.3-2.3-3.4h-8.4c1.8,1.8,3.8,4,5.8,6.5C433.3,230.3,434.9,229.3,436.6,228.3z M424.8,236.6c2.1-1.7,4.2-3.4,6.4-4.9
	c-2.1-2.6-4.2-4.9-6.1-6.8h-10c0.4,1,1,2.1,1.8,3.3C418.7,230.7,421.3,233.6,424.8,236.6z M305.5,315.7c0.2-0.5,0.4-1,0.6-1.4
	c0-0.1,0-0.2,0.1-0.2c1.7-4.2,3.5-8.4,6.9-12c-6.8,0-12.5-2.2-18.4-3.7c-1.1-0.3-2.3-0.5-3.4-0.7v8.6c2.9,0.5,5.8,1.2,9,1.8
	c0.1,0,0.2,0.2,0.1,0.3c-2.4,3.3-3.7,7-5.8,10.5c-0.9,1.6-2,3.2-3.4,4.6v5.1c1.9,0.3,3.7,0.5,5.6,0.7
	C301.4,325.6,303.5,320.7,305.5,315.7z M299.9,308.4c-3.1-0.6-6-1.2-8.7-1.8v16.4c1.2-1.4,2.2-2.8,3.1-4.3
	C296.2,315.4,297.6,311.8,299.9,308.4z M296.9,298.1c5.6-1.8,10-3.3,13.3-5.3c0.8-0.5,1.3-1.1,1.6-1.6c0.3-0.6,0.3-1.1,0.1-1.5
	c-0.2-0.4-0.6-0.8-1.3-1c-0.3-0.1-0.6-0.1-0.9-0.1c-0.6,0-1.3,0.1-2.1,0.3c-4.9,1.4-10.3,3.8-16.4,7v0.9c1.2,0.2,2.4,0.4,3.6,0.7
	C295.5,297.7,296.2,297.9,296.9,298.1z M315.3,277.3c4.9,0.1,9.7,0.6,14.6,0.6c0.1,0,0.2,0.2,0.2,0.3c-2.7,4.7-4.4,10.7-7.1,16.2
	c-2.7,5.4-6.4,10.5-13.1,13.4c-1.1,1.9-1.9,4-2.7,6c1-0.1,2-0.1,3-0.1c0.4,0,0.7,0,1,0c10.1-4.1,15-9.9,18.6-17
	c0.6-1.3,1.3-2.6,1.8-4c-0.1-0.2,0-0.4,0.2-0.5c2.5-5.9,4.7-12.6,8.3-19.7c-7.5-0.4-15.2-2.4-22.9-3.3c-0.8-0.1-1.6-0.2-2.4-0.2
	c-0.2,0.1-0.4,0.1-0.6-0.1c-1.5-0.1-3-0.2-4.4-0.2c-5.3,0-10.7,1-15.9,3.7c0,0.3-0.1,0.5-0.1,0.8c-0.5,2.9-1.3,5.8-2.6,8.6
	c0,0,0,0.1,0,0.1C299.5,277.8,307.5,277.1,315.3,277.3z M309.9,245.3c-3.7,4.4-9.3,5.8-14.1,4.5c-0.1,0.3-0.1,0.6-0.1,1
	c6.8,5.3,13.5,11.4,19.2,17.6c0.8,0.1,1.6,0.2,2.4,0.3c1.7,0.2,3.4,0.5,5.2,0.7c1.8-3.6,5.5-5.8,9.2-6c3.9-0.2,7.8,1.7,10,6
	c1.9,3.7,0.2,9.1-4.1,10.7c-1,2.4-1.9,4.7-2.7,7c2.9-0.1,5.8-1.1,8.3-3.2c5.5-4.6,6.1-11.5,4.1-18.6c-1.3-4.7-3.8-9.6-6.8-13.9
	c-5.7-7.1-11.8-13.6-18.2-19.2c3,3.1,5.7,6.5,7.6,10.1c1.8,3.3,2.9,6.6,3.1,9.9c0.2,3.3-0.7,6.4-3,9.3c-6.8,8.4-20.5,6.2-23.4-3.9
	c-1.7-6,1.1-11,5.3-13.2c4.2-2.2,9.8-1.7,13.5,2.9c1.6,2,2,4.9,1.2,7.3c-0.8,2.5-2.8,4.5-6.1,4.9c-2.5,0.3-4.8-1-5.9-2.8
	c-1.1-1.8-1.1-4.2,0.9-6c1.3-1.3,3.3-1.2,4.4-0.4c0.7,0.5,1,1.3,1,2.1c-0.1,0.8-0.5,1.6-1.3,2.3c-0.2,0.1-0.4-0.1-0.2-0.3
	c0.8-0.6,1.1-1.3,1.2-2c0-0.7-0.3-1.4-0.9-1.8c-0.9-0.7-2.7-0.8-4,0.3c-1.8,1.8-1.8,3.9-0.8,5.7c1,1.7,3.1,2.9,5.5,2.6
	c3.1-0.4,5-2.3,5.8-4.7c0.8-2.4,0.4-5.1-1.1-7c-3.6-4.5-9-5-13.1-2.8c-4.1,2.2-6.8,6.9-5.1,12.8c2.8,9.8,16.2,12,22.8,3.7
	c2.2-2.8,3.1-5.8,3-9c-0.1-3.2-1.3-6.5-3-9.8c-2.6-4.9-6.7-9.5-11-13.3c-1.8-1.5-3.6-2.8-5.5-4.1h-3c1.6,2.2,2.7,4.6,3.3,7
	C314.5,236.3,313.6,240.9,309.9,245.3z M308.2,341.2c1.7-1,2.2-2.3,2-3.2c-0.1-0.5-0.4-0.8-1-1.1c-0.4-0.2-0.9-0.3-1.5-0.3
	c-0.2,0-0.4,0-0.7,0.1c-3.6,0.6-6.9,1.4-11.3,2.7c-1.3,2-2.7,4-4.6,6.1v0.2c1.3-0.1,2.5-0.1,3.8-0.2
	C300.3,344,304.7,343.3,308.2,341.2z M297,330.3c-0.1,0-0.3,0-0.4-0.1c-1.9-0.2-3.7-0.5-5.5-0.7v14.6c3.8-4.4,5.8-8.6,9-13.6
	C299.1,330.5,298.1,330.4,297,330.3z M309.3,288.1c0.5,0,1,0,1.4,0.1c0.8,0.2,1.4,0.6,1.7,1.2c0.3,0.6,0.2,1.3-0.1,2
	c-0.3,0.7-0.9,1.3-1.8,1.8c-3.2,2-7.5,3.5-12.7,5.1c5.2,1.4,10.3,3,16.2,2.9c0.4,0,0.6,0.5,0.3,0.7c-1.7,1.6-3,3.5-4.1,5.4
	c6.3-2.9,9.9-7.8,12.5-13.1c2.7-5.4,4.3-11.3,7-16c-5.7-0.1-11.3-0.7-16.9-0.7c-7,0-14.2,1-21.6,5c0,0.7,0,1.3,0,2v10.7
	c6.1-3.1,11.4-5.5,16.3-6.9C308.1,288.3,308.7,288.1,309.3,288.1z M410.1,424c1.9,4.1,3.7,8.2,5.2,12.5c2.3-0.5,4.6-1,7.1-1.3
	c-1.3-3.9-2.8-7.7-4.4-11.4c-1.8,0.1-3.5,0.2-5.3,0.2H410.1z M288,230.2c1.2-1.8,1.9-3.6,2.3-5.3H284c-0.7,2.1-2.5,3.9-5.3,4.5
	c-2.5,0.5-4.8-0.5-6.1-2.2c-0.5-0.7-0.8-1.4-0.9-2.3h-6.4c-0.4,0-0.7,0-1.1,0.1c0.1,1.1,0.3,2.3,0.8,3.6
	C268.7,238.1,282.2,239,288,230.2z M272.8,227c1.2,1.6,3.4,2.6,5.7,2.1c2.7-0.5,4.3-2.2,5-4.2H272
	C272.1,225.6,272.4,226.3,272.8,227z M286.6,240.9c-1.6-6.1,1.3-10.9,5.6-13.1c1.6-0.8,3.4-1.2,5.1-1.2c3,0.1,6,1.4,8.3,4.4
	c1.5,2,1.9,4.9,1,7.4c-0.8,2.5-2.9,4.5-6.2,4.8c-2.5,0.2-4.7-1.1-5.8-2.9c-1.1-1.8-1-4.2,1-6c1.4-1.3,3.4-1.1,4.4-0.3
	c0.7,0.5,1,1.3,1,2.1c-0.1,0.8-0.5,1.6-1.4,2.3c-0.2,0.1-0.4-0.2-0.2-0.3c0.8-0.6,1.2-1.3,1.2-2c0.1-0.7-0.2-1.4-0.8-1.8
	c-0.9-0.7-2.7-0.9-4,0.2c-1.9,1.7-1.9,3.9-1,5.6c1,1.7,3.1,3,5.4,2.8c3.1-0.3,5.1-2.2,5.9-4.6c0.8-2.3,0.5-5.1-1-7
	c-3.5-4.6-8.9-5.2-13-3.1c-4.1,2.1-7,6.7-5.4,12.6c0.7,2.6,2.3,4.9,4.2,6.4c1.6-0.2,3.2-0.4,4.8-0.7h0.1c0.3,0,0.5,0.3,0.4,0.5
	c-0.2,0.8-0.4,1.6-0.5,2.5c4.7,1.2,10.1-0.1,13.8-4.4c3.6-4.3,4.5-8.8,3.4-13.2c-0.6-2.4-1.8-4.8-3.4-7h-19
	c-0.4,1.8-1.2,3.6-2.4,5.5c-6,9-19.8,8.1-23.7-1.7c-0.5-1.3-0.8-2.5-0.8-3.7c-1.2,0.2-2.4,0.6-3.5,1.2c-1.4,0.8-2,2.1-1.8,3.9
	c11.3,4.3,21.8,9.8,31.2,16.3C288.3,244.9,287.2,243,286.6,240.9z M293,272.4v-0.1c1.1-6.9,0.7-14,1.7-21c-0.1-0.2-0.1-0.5,0.1-0.6
	c0.2-1.1,0.4-2.2,0.6-3.2c-1.5,0.3-2.9,0.5-4.4,0.6c-0.2,0.2-0.4,0.2-0.6,0.1c-2.6,0.3-5.2,0.6-7.8,1c1.4,1.9,2.7,4.1,3.9,6.6
	c2.7,5.6,4.2,13.7,4.6,24.3c0.8-2.2,1.4-4.4,1.8-6.7C292.9,273,293,272.7,293,272.4z M258.7,231.3c0.6,2.4,2.4,4.2,5.5,5.2
	c3.3,1.1,7.1,3,11.3,5.6c2.3,1.5,4.5,3.6,6.5,6.2c2.5-0.3,4.9-0.6,7.4-0.9C280.1,241,269.9,235.6,258.7,231.3z M417.9,243
	c0.6-0.7,1.3-1.4,2-2c1.5-1.4,3-2.8,4.5-4.1c-3.5-3-6.1-5.9-7.9-8.5c-0.9-1.3-1.5-2.5-2-3.6h-12.8
	C404.6,230.9,409.8,237.3,417.9,243z M316.4,460.3c6.5,7.8,10.3,18.5,10.1,28.9c-0.2,10.4-4.3,20.5-13.8,26.9
	c-6.7,4.5-14.4,6.7-21.6,6.5v7.1c7.1,0.2,15-1.7,23.4-6.5c25.9-14.9,25.7-64.8-14.4-80.4c-2.8-1.1-5.8-2-8.9-2.7v4.5
	C301.5,447.4,310.3,453,316.4,460.3z M354.3,570.9c-7-5.3-15.4-7.8-24-7.7c-17.8,0.1-36.3,10.6-45.3,27.2
	c6.3-10.3,17.2-18.3,32.7-19.4c2-0.1,3.8-0.2,5.6-0.1c12.5,0.4,20.9,5.3,25.6,12.1c0.6,0.9,1.2,1.8,1.7,2.8c5,0.3,9.9,0.7,14.9,1.3
	C363.8,581.1,360.3,575.4,354.3,570.9z M258.8,587.3c-0.1,0.2-0.2,0.5-0.2,0.8c-0.4,2.2,0.1,3.9,1.7,5c0.7,0.5,1.4,0.8,2.1,1.1
	c0.5-1.7,1.2-3.3,1.9-4.9C262.4,588.6,260.6,588,258.8,587.3z M322.1,571.5c-1.4,0-2.7,0.1-4.2,0.2c-15.5,1.1-26.2,9.2-32.4,19.5
	c3.4-0.6,7-1.2,10.8-1.8c4.1-3.1,9-5.5,15.1-6.9c3-0.7,5.7-1,8.4-1c5.9,0,10.9,1.5,14.9,4c1.4,0,2.9,0,4.3,0c3.6,0,7.2,0.1,10.9,0.3
	c-0.4-0.8-0.9-1.6-1.4-2.3C343.6,576.4,335.1,571.5,322.1,571.5z M311.6,583.2c-5.3,1.2-9.8,3.2-13.5,5.8c2.8-0.4,5.6-0.9,8.6-1.3
	c8.8-1.3,17.6-2,26.3-2.2c-3.7-2-8.1-3.2-13.3-3.2C317.2,582.2,314.5,582.5,311.6,583.2z M289.9,555.6c0,1-0.6,1.9-1.4,2.4
	c-0.3,1.1-0.6,2.1-1,3.1c0.6,0.1,1.2,0.2,1.7,0.2c1.9-1,3.8-1.9,5.9-2.7c-0.8-0.5-1.3-1.4-1.3-2.4c0-1.6,1.3-2.8,2.9-2.8
	c1.6,0,2.9,1.3,2.9,2.8c0,0.3,0,0.6-0.1,0.9c1.5-0.5,2.9-0.9,4.4-1.2c-0.2-0.4-0.2-0.7-0.2-1.1c0-1.6,1.3-2.8,2.9-2.8
	c1.6,0,2.8,1.3,2.8,2.8c0,0,0,0,0,0c1.7-0.3,3.4-0.5,5.1-0.6c-0.8-0.5-1.4-1.4-1.4-2.5c0-1.6,1.3-2.8,2.8-2.8c1.6,0,2.9,1.3,2.9,2.8
	c0,0.9-0.5,1.8-1.2,2.3c1.1,0,2.2,0,3.2,0c0.7,0,1.4,0,2.1,0.1c2.6-1.5,5.3-3.2,7.7-5.1c-0.6-1.8-1.2-3.7-1.6-5.6
	c-0.5-2.1-0.9-4.3-1.1-6.5c-4.4,4.4-9.5,7.6-14.8,9.8c0,0,0,0-0.1,0c-7.2,2.9-15,3.9-22.6,3.2c-0.2,1.5-0.5,3-0.7,4.3
	C289.7,554.6,289.9,555.1,289.9,555.6z M324,544.4c1.6,0,2.9,1.3,2.9,2.9c0,1.6-1.3,2.8-2.9,2.8c-1.6,0-2.9-1.3-2.9-2.8
	C321.2,545.7,322.5,544.4,324,544.4z M293.9,522c-1-0.2-1.9-0.5-2.8-0.9v1C292.1,522.1,293,522.1,293.9,522z M259.1,586.8
	c1.7,0.7,3.5,1.3,5.4,1.9c1.2-2.7,2.6-5.4,4.2-7.9c-1.5,0.7-3,1.4-4.3,1.9C261.6,583.8,259.9,585.1,259.1,586.8z M279.3,574.1
	l9.9,8.1c0.8-1.1,1.7-2.1,2.7-3l-9.2-9.1C281.7,571.6,280.5,573,279.3,574.1z M274.7,577.5l12.1,8c0.7-1.1,1.5-2.1,2.3-3.1l-10-8.1
	c-1.1,1.1-2.3,2-3.5,2.7C275.3,577.2,275,577.4,274.7,577.5z M299.4,451.4c-0.3,2-1.7,3.9-3.8,4.8c-1.3,0.6-2.7,0.6-4,0.4
	c1.6,0.7,3.2,1.5,4.6,2.4c1,0.5,2,1.1,3,1.6c-0.1-0.1-0.2-0.2-0.3-0.3c-1.4-1.4-2-3.6-0.8-5.7c0.8-1.6,2.3-2.1,3.6-2.1
	c0.4,0,0.8,0.1,1.2,0.2c0.6,0.2,1.1,0.6,1.4,1.1c0.3,0.5,0.4,1.1,0.3,1.7c-0.1,0.7-0.6,1.4-1.3,1.7c-0.7,0.4-1.5,0.4-2.3-0.2
	c-0.2-0.1,0-0.4,0.2-0.3c0.6,0.5,1.4,0.4,1.9,0.1c0.6-0.3,1-0.9,1.1-1.5c0.1-0.6,0-1.2-0.3-1.5c-0.3-0.4-0.7-0.7-1.2-0.9
	c-1.3-0.5-3.4-0.2-4.4,1.7c-1.1,2-0.6,4,0.7,5.3c1.4,1.3,3.6,2.1,6.1,1.6c4.5-0.9,5.7-5.3,4-7.6c-3.2-2.5-6.8-4.7-10.8-6.4
	C299.3,448.7,299.6,450.1,299.4,451.4z M293.7,505.7c2.6-0.3,5.3,0.8,6.6,2.9c1.2,1.8,1.2,3.6,0.5,5c-0.7,1.4-2.1,2.3-3.8,2.3
	c-1.2,0-2.2-0.4-2.9-1.1c-0.7-0.7-1-1.6-0.7-2.5c0.3-0.7,0.8-1.3,1.5-1.5c0.7-0.2,1.5-0.1,2.3,0.5c0.2,0.1,0,0.4-0.2,0.3
	c-0.7-0.5-1.4-0.6-2-0.4c-0.6,0.2-1,0.7-1.2,1.3c-0.3,0.8,0,1.5,0.6,2.2c0.6,0.6,1.5,1,2.7,1c1.6,0,2.9-0.9,3.5-2.2
	c0.6-1.3,0.6-3-0.5-4.6c-1.3-1.9-3.8-3-6.3-2.7c-0.9,0.1-1.7,0.4-2.5,0.8v13.9c1.3,0.7,2.9,1.1,4.6,1.2c4.7-0.5,9.6-2.1,14.1-4.6
	c-2.3,0-4.6-0.9-6.6-3c-1.5-1.6-2.4-4.2-2.1-6.7c0.2-2.5,1.7-4.8,4.7-5.8c0.5-0.2,1-0.3,1.5-0.3c1.5-0.1,2.7,0.3,3.7,1
	c1.3,1,1.9,2.6,1.7,4.3c-0.3,2.4-2.9,3.6-4.6,2.6c-0.7-0.4-1.2-1.1-1.3-1.8c-0.1-0.7,0.3-1.5,1-2.1c0.2-0.1,0.4,0.1,0.2,0.3
	c-0.7,0.6-1,1.2-0.9,1.8c0.1,0.6,0.5,1.2,1.1,1.6c1.5,0.9,3.9-0.1,4.2-2.3c0.2-1.6-0.4-3.1-1.6-4c-1.2-0.9-2.9-1.3-4.9-0.7
	c-3,0.9-4.3,3.1-4.5,5.4c-0.3,2.4,0.6,4.9,2.1,6.4c2.1,2.2,4.6,3,7,2.9c0.7-0.4,1.3-0.8,2-1.2c5.1-3.4,8.7-8,10.9-13.1
	c-3.1,3.1-8.7,3.3-11.7,0c-1.6-1.8-2-4.4-1.3-6.5c0.6-1.8,2.1-3.3,4.2-3.5c0.3,0,0.6,0,1,0c2.1,0.2,3.3,1.6,3.5,3.1
	c0.2,1.5-0.5,3-2.2,3.5c-0.7,0.2-1.5,0.1-2.1-0.4c-0.6-0.5-0.8-1.3-0.6-2.2c0.1-0.2,0.4-0.2,0.3,0.1c-0.2,0.8,0.1,1.5,0.5,1.9
	c0.4,0.4,1.1,0.6,1.7,0.4c1.5-0.5,2.1-1.8,1.9-3.2c-0.2-1.3-1.2-2.6-3.2-2.8c-2.5-0.3-4.1,1.2-4.8,3.2c-0.7,2-0.4,4.5,1.2,6.2
	c3.1,3.3,9,2.9,11.8-0.7c1.4-3.6,2.1-7.5,2.3-11.4c-0.8,1.6-2.5,2.6-4.4,3c-2.4,0.4-5.1-0.3-6.9-2.3c-1.5-1.7-1.8-4.1-1.1-6.1
	c0.7-2,2.5-3.5,4.9-3.3c2,0.2,3.1,1.5,3.3,2.9c0.2,1.4-0.5,2.9-2,3.3c-0.7,0.2-1.5,0-2.1-0.4c-0.5-0.4-0.8-1.2-0.4-2.1
	c0.1-0.2,0.4-0.1,0.3,0.1c-0.3,0.8-0.1,1.4,0.3,1.7c0.5,0.4,1.2,0.5,1.8,0.3c1.3-0.3,2-1.6,1.8-2.9c-0.2-1.3-1.1-2.5-3-2.6
	c-2.3-0.2-3.9,1.2-4.6,3.1c-0.7,1.8-0.5,4.2,1,5.7c1.7,1.9,4.3,2.6,6.6,2.2c2.1-0.4,3.9-1.6,4.4-3.6c0.1-3.6-0.4-7.2-1.2-10.8
	c-1.1,2-4,3.4-7.3,2.6c-2.6-0.6-4.3-2.4-4.9-4.4c-0.5-2,0.1-4.2,2.1-5.6c1-0.7,2-0.8,2.9-0.7c0.9,0.2,1.7,0.6,2.3,1.2
	c0.4,0.5,0.7,1,0.8,1.6c0.1,0.6-0.1,1.2-0.5,1.7c-0.4,0.6-1.2,1-1.9,1c-0.7,0-1.5-0.4-2-1.2c-0.1-0.2,0.2-0.4,0.3-0.2
	c0.4,0.7,1,1,1.6,1c0.6,0,1.3-0.3,1.7-0.8c0.4-0.5,0.5-1,0.4-1.5c0-0.5-0.3-0.9-0.7-1.4c-1-1.1-2.9-1.7-4.7-0.5
	c-1.9,1.3-2.5,3.4-2,5.2c0.5,1.9,2.1,3.6,4.6,4.2c3.4,0.8,6.3-0.8,7.1-2.8c-1.1-4.4-2.9-8.7-5.2-12.5c0.1,2.9-3.2,5.8-7.6,4.8
	c-2.6-0.6-4.4-2.4-5-4.3c-0.6-2,0-4.2,2-5.6c1-0.7,2-0.8,2.9-0.7c0.9,0.2,1.7,0.6,2.3,1.2c0.4,0.5,0.7,1,0.7,1.6
	c0.1,0.6-0.1,1.2-0.5,1.7c-0.4,0.6-1.2,1-1.9,1c-0.8,0-1.5-0.4-2-1.2c-0.1-0.2,0.2-0.4,0.3-0.2c0.4,0.7,1,1,1.7,1
	c0.6,0,1.3-0.3,1.6-0.8c0.4-0.5,0.5-1,0.5-1.5c-0.1-0.5-0.3-1-0.7-1.4c-1-1.1-2.9-1.7-4.7-0.5c-1.9,1.3-2.4,3.3-1.8,5.2
	c0.6,1.8,2.2,3.5,4.7,4.1c4.6,1.1,7.7-2.3,7.1-5.1c-0.9-1.4-2-2.8-3-4.1c-1.8-2.2-3.9-4.2-6.1-6c1.1,2.6-0.4,6.5-4.7,7.3
	c-1.6,0.3-3.2,0.1-4.5-0.5c9.6,6.4,13.2,15.2,12.8,23.3c-0.5,9.6-6.6,18.1-15,20.2c-2.6,0.6-5,0.8-7.3,0.6v1
	C292,506.1,292.8,505.8,293.7,505.7z M366.5,586.7c0,0.1,0.1,0.3,0.1,0.4c0.3,0,0.6,0.1,0.9,0.1c-0.1-0.3-0.2-0.5-0.3-0.8
	L366.5,586.7z M290.2,549.5c1.2,0.1,2.4,0.2,3.6,0.2v-18.6c-0.9,0-1.8,0-2.7,0v3.2C291.2,539.9,290.8,545,290.2,549.5z M296.9,469.7
	c-0.1-0.1-0.3-0.2-0.4-0.3l-5.3,8v7.4l10.1-10C300.1,472.9,298.7,471.2,296.9,469.7z M302.3,489.7L302.3,489.7
	c1.1-2.3,1.5-4.9,1.3-7.5l-12.5,8.3v3.7L302.3,489.7C302.3,489.7,302.3,489.7,302.3,489.7z M263.7,594.5c0.5,0.1,1,0.2,1.6,0.2
	c0.7,0,2.2-0.2,4.5-0.6l-5.4-1.6C264.1,593.1,263.9,593.8,263.7,594.5z M301.4,475.1l-10.2,10.2v4.8l12.4-8.3
	C303.3,479.5,302.6,477.3,301.4,475.1z M302.4,490.4c-0.9,1.6-2,3-3.3,4c2.3-1.2,4-2.7,4.4-3.1c4-4.2,5.3-10.7,2.5-18.7
	c-2.5-7.2-8-12.3-14.9-15.2v8.3c2.3,0.9,4.3,2.2,6,3.7C303.6,475,305.9,483.8,302.4,490.4z M299.3,465.6c0.6,0,1.1,0.5,1.1,1.1
	c0,0.6-0.5,1.1-1.1,1.1c-0.6,0-1.1-0.5-1.1-1.1C298.2,466.1,298.7,465.6,299.3,465.6z M295.1,464.9c-0.8,0-1.4-0.6-1.4-1.4
	c0-0.8,0.6-1.4,1.4-1.4c0.8,0,1.5,0.6,1.5,1.4C296.6,464.3,295.9,464.9,295.1,464.9z M291.2,466.2v10.6l5.1-7.6
	C294.7,468,293,467,291.2,466.2z M297.2,495.3c1.9-1.1,3.6-2.7,4.9-5c0-0.1,0.1-0.1,0.1-0.2l-11,4.5v1.8
	C293.3,496.5,295.4,496,297.2,495.3z M269.6,581.7c-1,1.5-1.8,3.1-2.7,4.8l13.5,5.6c0.9-0.2,1.9-0.4,2.9-0.5c0.3-0.7,0.7-1.3,1-2
	L269.6,581.7z M264.5,592.1l6.1,1.8c2.2-0.4,4.9-0.9,8.3-1.6c0.3-0.1,0.7-0.1,1-0.2l-13-5.4C266,588.5,265.2,590.3,264.5,592.1z
	 M298.3,504.3c8-2,14-10.2,14.5-19.6c0.4-7.8-3.1-16.4-12.5-22.7c3,2.8,5.3,6.2,6.7,10.3c2.9,8.3,1.5,15.2-2.8,19.7
	c-0.7,0.7-3,2.7-6.2,4.1c-2,0.8-4.3,1.4-6.8,1.4v7.3C293.4,505,295.8,504.9,298.3,504.3z M387.4,453.3v0.8c0.4-0.3,0.8-0.5,1.2-0.8
	H387.4z M291,452.2c-0.2-0.1-0.4,0.2-0.2,0.3c0.1,0.1,0.2,0.1,0.3,0.1v-0.4C291.1,452.2,291,452.2,291,452.2z"/>
</svg>
