<?xml version="1.0" encoding="utf-8"?>
<!-- Generator: Adobe Illustrator 24.3.0, SVG Export Plug-In . SVG Version: 6.00 Build 0)  -->
<svg version="1.1" id="Mandala_Letter" xmlns="http://www.w3.org/2000/svg" xmlns:xlink="http://www.w3.org/1999/xlink" x="0px"
	 y="0px" width="828px" height="828px" viewBox="0 0 828 828" style="enable-background:new 0 0 828 828;" xml:space="preserve">
<style type="text/css">
	.st0{fill:none;stroke:#000000;stroke-miterlimit:10;}
</style>
<path class="st0" d="M0.1,827V0h827.3v827.3H0.1v-0.2 M538.8,650.7c-2,0-4-0.1-6-0.2c-16.9-1.3-34.3-6.1-51.6-14.1
	c-17.2-8-35.3-17.7-53.6-29c-18.2-11.2-37.2-21.9-56.3-31.8c-19-9.9-39-17.3-59.4-22.1c-10.1-2.4-20.6-3.6-31.1-3.6
	c-10.5,0-21.3,1.2-32.2,3.6c-0.6,0.3-1.1,0.4-1.6,0.4c-0.7,0-1.3-0.3-1.8-0.8c-0.4-0.4-0.6-0.9-0.5-1.5c0.1-0.9,0.7-1.6,2.1-2.6
	l0.1,0l0.1,0c15-8,29.8-13.8,43.8-17.4c11.9-3,23.7-5.1,35.1-6.2c-21.7-8.8-41.2-21.2-58-37c-18.2-17.1-32.6-37.3-42.8-60.2
	c-10.2-22.8-15.4-47.5-15.4-73.2c0-25.7,5.1-50.2,15.1-72.6c10-22.4,24.2-42.3,42.1-59.2c18-16.8,39-30.2,62.5-39.8
	c23.5-9.5,48.9-14.4,75.5-14.4c26.6,0,52,4.8,75.5,14.4c23.5,9.5,44.4,22.9,62.2,39.8c17.7,16.9,31.8,36.8,41.8,59.2
	c10,22.4,15.1,46.8,15.1,72.6c0,33.3-8.3,64.1-24.8,91.6c-16.4,27.5-39,50-67.2,66.9c-26.2,15.7-55.4,24.8-86.9,27
	c16.2,5.6,32.2,11.9,47.6,18.7c17.4,7.7,35,14.5,52.3,20.2c17.3,5.7,35,9,52.7,9.9c1.9,0.1,3.8,0.1,5.6,0.1c15.9,0,32.4-3.4,49.2-10
	c0.5-0.3,1.1-0.4,1.6-0.4c0.8,0,1.6,0.3,2.3,1c0.9,0.9,1.3,2.5-0.2,4.1c-15.9,25.2-32.3,43.1-48.5,53.1
	C568.6,646.2,553.7,650.7,538.8,650.7z M404.8,201c-14.1,0-27.3,6.9-39.1,20.4c-12,13.7-21.6,32.5-28.6,55.9
	c-7,23.4-10.6,49.5-10.6,77.6c0,28.1,3.6,54.2,10.6,77.6c7,23.4,16.6,42.2,28.6,55.9c11.8,13.6,25,20.4,39.1,20.4
	c14.1,0,27.2-6.9,38.8-20.4c11.8-13.7,21.3-32.5,28.3-55.9c7-23.5,10.6-49.6,10.6-77.6c0-28-3.6-54.1-10.6-77.6
	c-7-23.4-16.5-42.2-28.3-55.9C431.9,207.9,418.9,201,404.8,201z M628.5,580.7c0.9-0.4,1.7-0.3,2.3,0.3c0.7,0.7,0.5,1.4-0.3,2.3
	c-15.9,25.2-32,42.8-48.1,52.8c-16.2,10-32.6,14.3-49.5,12.9c-16.8-1.3-33.9-6-51.1-13.9c-17.3-8-35.1-17.6-53.4-28.9
	c-18.4-11.3-37.2-21.9-56.4-31.9s-39.2-17.4-59.7-22.2c-20.6-4.9-41.9-4.9-64.1,0c-0.9,0.5-1.6,0.5-2,0c-0.4-0.4,0-1.1,1.3-2
	c15-8,29.5-13.7,43.5-17.3c13.9-3.5,27.5-5.8,40.8-6.6c-23.9-8.9-44.9-21.8-63.1-38.8c-18.2-17-32.3-37-42.5-59.7
	c-10.2-22.8-15.3-47-15.3-72.7c0-25.7,5-49.7,14.9-72c10-22.3,23.9-41.9,41.8-58.8c17.9-16.8,38.6-30,62.1-39.5
	c23.5-9.5,48.5-14.3,75-14.3c26.5,0,51.6,4.8,75,14.3c23.5,9.5,44,22.7,61.7,39.5C559.2,241,573,260.6,583,283
	c10,22.4,14.9,46.4,14.9,72c0,33.2-8.2,63.5-24.6,91c-16.4,27.4-38.6,49.6-66.7,66.4c-28.1,16.8-59.2,25.9-93.3,27.2
	c18.6,6.2,36.6,13.2,54.1,20.9c17.5,7.7,35,14.5,52.4,20.2c17.5,5.8,35.2,9.1,53.1,10C591,591.5,609.4,588.2,628.5,580.7z
	 M325.1,355c0,28.3,3.5,54.3,10.6,78c7.1,23.7,16.7,42.5,28.9,56.4c12.2,13.9,25.6,20.9,40.2,20.9s27.9-7,39.8-20.9
	c12-13.9,21.5-32.8,28.5-56.4c7.1-23.7,10.6-49.7,10.6-78c0-28.3-3.5-54.3-10.6-78c-7.1-23.7-16.6-42.5-28.5-56.4
	c-12-13.9-25.2-20.9-39.8-20.9s-28,7-40.2,20.9c-12.2,13.9-21.8,32.8-28.9,56.4C328.6,300.7,325.1,326.7,325.1,355z M266.7,541.3
	c0.3,0.7,0.6,1.4,0.9,2.1c0.7,2.1,0.8,4.1,0.6,5.9c3.6-0.3,7.1-0.5,10.7-0.5c-4.2-2.4-7.9-5-11.3-7.9
	C267.3,541,267,541.2,266.7,541.3z M501.2,389.4c0.2-1.2,0.6-2.3,1.3-3.4c-2.7,0-5.3-0.3-7.5-1.2c-4.8-1.8-8.6-5.8-11.8-12.9
	c-0.1,2-0.2,4.1-0.4,6.1C486.6,381.4,492.6,385.3,501.2,389.4z M488.3,309.5c1.3-2.5,2.6-5.1,3.8-7.6c-5.1-0.6-9.7-1.8-13.9-3.2
	c0.6,3.1,1.2,6.3,1.7,9.5C482.6,308.7,485.4,309.2,488.3,309.5z M506.8,212.5c0,0.1-0.1,0.1-0.2,0.1l-10.9-8.5
	c-2,0.7-3.9,1.4-5.9,2.2l19.8,15.2l5-18.2c-1.4-0.9-2.9-1.9-4.4-2.8c-0.1,0-0.1,0-0.2,0L506.8,212.5z M533,217.1
	c-0.8-0.6-1.5-1.3-2.3-1.9l-1.5,2C530.5,217.2,531.8,217.1,533,217.1z M504.8,225.2c-15.5,9.2-22.4,23-21.7,35.6
	c0.7,12.4,8.6,23.6,23.1,28c0.7-2.5,1.6-4.8,2.6-7.1c-10.8-3.2-16.7-12.3-16.9-22.3c-0.2-10.2,5.3-21.4,17.3-28.3
	c7.3-4.2,16.2-6.5,25.6-6.7c2.2,0,4.5,0,6.7,0.2c-0.1-0.1-0.1-0.1-0.2-0.2c-2.3-2.2-4.7-4.3-7.1-6.4c-0.2,0-0.5,0-0.7,0
	C522.8,218.2,512.7,220.6,504.8,225.2z M527.6,217.4l-7-9.9c-1.7-1.2-3.5-2.5-5.3-3.6l-4.9,17.6
	C515.6,219.3,521.5,217.9,527.6,217.4z M494.7,404.2c1-2.4,2.1-4.7,3.2-7.1l-11.1-5.1c-0.5,0.8-1.4,1.3-2.4,1.3
	c-1.6,0-2.8-1.2-2.9-2.7c-0.3,2.6-0.6,5.1-1,7.6C484.3,400.2,489,402.1,494.7,404.2z M530.1,214.7c-2.5-2-5-4-7.6-5.9l5.8,8.3
	L530.1,214.7z M484.9,244.9l-20.2-21.7c0,0-0.1-0.1-0.1-0.1c-1.3,1.3-2.4,2.6-3.5,4l13.3,14c0.1,0.1,0,0.3-0.1,0.3l-14.8,2.2
	c0.8,1.6,1.6,3.2,2.4,4.8L484.9,244.9z M482.7,285L482.7,285c0.1,0,0.2,0.1,0.2,0.2l-2.9,13.4c1.5,0.5,3,0.9,4.5,1.3l0.1,0
	c-0.2-0.1-0.3-0.3-0.3-0.5l4.4-20.6l-14.5,2.7c0.4,1.6,0.9,3.2,1.3,4.8L482.7,285z M479.7,298.6l2.8-13.2l-7,1.3
	c0.9,3.7,1.8,7.5,2.6,11.3C478.6,298.2,479.1,298.4,479.7,298.6z M482.2,261.4c0-0.1,0-0.3,0-0.5c-0.2-5,0.7-10.2,2.8-15.2
	l-22.6,3.5c1,2,1.9,4.1,2.8,6.2L482.2,261.4z M481.9,407.9c0,0.3,0,0.5-0.1,0.7l10.3,2.5c0.8-2.2,1.6-4.4,2.5-6.6
	c-5.5-2.1-10.3-3.4-14.4-4.1c-0.2,1.6-0.5,3.2-0.8,4.8C480.8,405.4,481.9,406.5,481.9,407.9z M474,241.1l-13.1-13.8
	c-2.2,2.8-4,5.7-5.6,8.7c1.4,2.3,2.8,4.7,4.1,7.2L474,241.1z M493.5,385.8c-4.6-2.6-8.2-5.1-10.8-7.3c-0.1,1.1-0.2,2.2-0.3,3.3
	C485.7,382.7,489.5,384.1,493.5,385.8z M484.5,340.9c-0.6-1.4-1.1-2.7-1.5-4.1c0.1,1.5,0.2,3,0.2,4.5
	C483.7,341.2,484.1,341,484.5,340.9z M487.1,401.6c-2.4-1-4.6-2-6.5-3c-0.1,0.5-0.1,1-0.2,1.4C482.4,400.4,484.6,400.9,487.1,401.6z
	 M484.4,387.8c1.6,0,2.8,1.2,2.8,2.8c0,0.4-0.1,0.8-0.2,1.1l11.1,5.1c0.9-1.9,1.9-3.7,2.9-5.5c0-0.5,0.1-0.9,0.1-1.3
	c-7-3.6-13.5-6.2-18.7-7.6c-0.2,2.6-0.5,5.1-0.8,7.7C481.9,388.7,483.1,387.8,484.4,387.8z M575,277.7c-0.9-0.5-1.9-0.7-2.7-0.7
	c-0.9,0-1.8,0.2-2.6,0.6c-0.8,0.4-1.4,0.9-1.9,1.5c2.1,3.8,3.4,8.1,2.9,13.2c2.6-2,5.3-4.3,7.8-7c0.1-0.1,0.3-0.2,0.4-0.2
	c0.3,0,0.5,0.2,0.6,0.5c1.5,8.8,6.7,16.5,10.2,24.8c0.8-0.3,1.5-0.7,2.2-1c-1.3-5-2.9-10-4.6-14.9c-2.2-4.7-4.3-8.5-6.4-11.3
	C578.9,280.5,576.9,278.7,575,277.7z M618.6,597.3c-0.6,1.6-1.3,3.2-1.9,4.7c-0.4,0.9-0.8,1.8-1.2,2.8c4.8-6.2,9.6-13,14.4-20.5
	c0.3-0.9,0.6-1.8,0.9-2.7c-0.1-0.1-0.1-0.1-0.2-0.2c-0.7-0.7-1.4-0.8-2.3-0.3c-1.7,0.7-3.5,1.3-5.2,2c-1.1,4.7-2.6,9.5-4.4,14.2
	C618.7,597.2,618.7,597.2,618.6,597.3z M631,582.1c-0.1,0.4-0.2,0.8-0.4,1.2C630.9,582.8,631.1,582.4,631,582.1z M592.7,328.8
	l3.3,1.3c-0.4-2.8-0.8-5.6-1.3-8.4c-0.6,0.3-1.2,0.6-1.8,0.8C593.1,324.6,593,326.7,592.7,328.8z M590.4,311.8
	c1.2,3.1,2.2,6.4,2.5,9.9c0.6-0.3,1.1-0.5,1.7-0.8c-0.7-3.5-1.4-7-2.3-10.4c-0.7,0.3-1.4,0.6-2.1,0.9
	C590.2,311.6,590.3,311.7,590.4,311.8z M480.4,414c3.6,0,7.1,0.1,10.6,0.3c0.3-0.9,0.6-1.9,0.9-2.8l-10.3-2.5
	c-0.4,1-1.5,1.7-2.6,1.7c-0.2,0-0.4,0-0.5,0c-0.2,1.1-0.5,2.3-0.7,3.4C478.7,414,479.5,414,480.4,414z M575.2,277.4c2,1,4,2.8,6,5.5
	c1.6,2.1,3.1,4.7,4.7,7.9c-1-2.5-2-5.1-3.1-7.6c-1.4-3.2-2.9-6.3-4.5-9.4c-2.2,0.9-4.4,1.8-6.6,2.8
	C572.8,276.6,574,276.8,575.2,277.4z M562.7,271.7c1.5,1.9,3,3.9,4.2,6c3.6-1.7,7.2-3.2,10.9-4.7c-1.9-3.7-4-7.4-6.2-10.9
	c-4.1,1.7-8.2,3.5-12.3,5.5C560.5,268.9,561.6,270.3,562.7,271.7z M621.7,583.4c-0.5,0.2-1,0.3-1.5,0.5c-0.2,2.4-0.5,4.9-0.8,7.5
	C620.3,588.7,621.1,586.1,621.7,583.4z M538,236.2c-7.9,1.2-15,4.5-19.7,9.5c-3.4,3.6-5.6,8-6,13.2c0.8-2.4,2.2-4.4,3.9-6.2
	c3.1-3.1,7.3-5.1,11.4-5.6c1.1-0.1,2.1-0.1,3.2-0.1c7.1,0.3,14.2,3.9,17,9.1c1.6-1.1,3.3-1.9,5-2.4c0.1,0,0.1,0,0.2,0
	c0.3,0,0.6,0.3,0.6,0.6c-0.2,4.6,2.2,8.4,5.2,12.5l-0.3-0.6c4-2,8.1-3.8,12.3-5.5c-0.7-1.1-1.4-2.2-2.1-3.3c-1,1.8-3,3.1-5.2,3.1
	c-3.3,0-5.9-2.6-5.9-5.7c0-3,2.4-5.4,5.4-5.7c-3.2-4.4-6.6-8.6-10.2-12.7c-2.3-0.4-4.7-0.6-7-0.6C543.1,235.6,540.5,235.8,538,236.2
	z M535.4,243.4c-1,0-1.7-0.8-1.7-1.7c0-0.9,0.8-1.7,1.7-1.7c0.9,0,1.7,0.8,1.7,1.7C537.1,242.7,536.3,243.4,535.4,243.4z
	 M553.5,241.8c2.4,0,4.4,1.9,4.4,4.3c0,2.4-2,4.3-4.4,4.3c-2.5,0-4.4-1.9-4.4-4.3C549,243.7,551,241.8,553.5,241.8z M543.2,244.8
	c-1.6,0-2.8-1.2-2.8-2.7c0-1.5,1.3-2.8,2.8-2.8c1.6,0,2.8,1.2,2.8,2.8C546,243.6,544.7,244.8,543.2,244.8z M612.3,608.8
	c1.2-2.4,2.3-4.8,3.3-7.2c0.7-1.6,1.3-3.1,1.9-4.7c0.6-4.5,1.1-8.6,1.5-12.5c-1.8,0.6-3.7,1.2-5.5,1.7c-2.3,11.9-6.1,23.1-10.8,33.6
	C605.9,616.3,609.1,612.7,612.3,608.8z M597.6,348.1c0-0.4,0-0.9,0-1.3c-0.3,0.2-0.7,0.3-1,0.5C596.9,347.6,597.2,347.8,597.6,348.1
	z M592.2,362.2c-1.6,2-3.2,4.3-4.8,6.6c3.3-0.4,6.6-0.6,9.9-0.5c0.2-2.5,0.3-5.1,0.4-7.6c-1.4,0-2.9,0.1-4.3,0.2
	C593,361.4,592.6,361.8,592.2,362.2z M258,550.6c3.2-0.5,6.5-0.9,9.7-1.2c0.3-1.8,0.1-3.7-0.5-5.8c-0.2-0.7-0.5-1.4-0.9-2.1
	c-2.6,1.1-5.2,2.2-7.8,3.4C259.4,546.6,259.4,548.7,258,550.6z M594.8,369.1c-2.7,0-5.3,0.2-8,0.6c-0.4,0.6-0.8,1.1-1.2,1.7l2.2,11
	c0.4,0.6,0.8,1.2,1.2,1.9c1,1.9,1.6,4,1.9,6.4c1.2-0.3,2.5-0.6,3.8-0.8c0.4-1.9,0.7-3.8,1-5.7l-0.5-15H594.8z M251.1,549.4
	c0-0.4,0.1-0.7,0.3-1.1c-1.4,0.7-2.7,1.4-4.1,2.1c-1.3,0.9-1.8,1.6-1.3,2c0.4,0.5,1.1,0.5,2,0c1.4-0.3,2.8-0.6,4.2-0.9
	C251.4,551,251,550.2,251.1,549.4z M594.7,359.5c0.3,0,0.7-0.1,1-0.1c0.6-0.4,1.3-0.8,1.9-1.1c0-0.4,0-0.8,0-1.2
	C596.6,357.8,595.7,358.6,594.7,359.5z M595.8,382c0.6-4.2,1.1-8.5,1.4-12.9c-0.6,0-1.2,0-1.8,0L595.8,382z M587.5,342.9
	c2.6,0.8,5.2,1.9,7.5,3.4c0.8-0.4,1.6-0.8,2.4-1.3c-0.1-2-0.3-4-0.4-6l-6.4-2.5C589.9,338.6,588.8,340.7,587.5,342.9z M597.6,349.7
	c-5.4-4.6-11.9-6.8-18.6-6.9c-5.8-0.1-11.7,1.5-17,4.5c-0.1,1.8-0.2,3.7-0.6,5.5c3-1.5,7.8-3,12.9-3.3c5.6-0.3,11.5,0.8,15.9,4.9
	c0.1,0.1,0.1,0.3-0.1,0.3c-8.7,1.5-13,8.3-18.5,14.6c-5.4,6.2-11.9,12-24.8,11.6c-0.8,0.9-1.6,1.9-2.5,2.8
	c10.5,2.2,18.2,1.8,24.1-0.2c4.5-1.5,7.9-3.9,10.8-6.7c0-0.1,0.1-0.1,0.1-0.1c1-1,1.9-1.9,2.7-2.9c3.4-4.1,6.1-8.6,9.2-12.4
	c0.4-0.5,0.8-1,1.3-1.5c0.1-0.1,0.2-0.2,0.3-0.3c1.4-1.5,3-2.9,4.8-3.9c0-0.2,0-0.3,0-0.5C597.7,353.4,597.7,351.5,597.6,349.7z
	 M590.9,336l6.1,2.4c-0.2-2.6-0.5-5.3-0.9-7.9l-3.4-1.4C592.4,331.4,591.8,333.6,590.9,336z M251.5,549.4c0,0.8,0.3,1.5,1,2
	c0,0,0,0,0.1,0c1.6-0.3,3.3-0.6,4.9-0.8c1.6-1.8,1.7-3.9,0.7-5.6c-2,1-4.1,2-6.2,3C251.6,548.5,251.5,549,251.5,549.4z M509.5,231.6
	c-11.8,6.8-17.2,17.8-17,27.8c0.2,9.8,5.9,18.7,16.6,21.8c0.4-0.9,0.8-1.8,1.3-2.7c3.4-6.9,7.4-13.3,9.7-20.6
	c0.1-0.3,0.3-0.4,0.6-0.4c0.2,0,0.4,0.1,0.5,0.3c2.1,3.3,4.5,6.1,7.1,8.8c0.6-1.5,0.5-2.9,0-4.3c-0.6-1.6-1.9-3-3.4-3.9
	c-1.6-0.9-3.4-1.3-5.3-0.9c-0.4,0.1-0.8,0.2-1.2,0.3c-0.2,0.1-0.5,0.2-0.7,0.3c-2.2,1.2-4.1,3.3-5,6.4c0,0.2,0.1,0.3,0.1,0.6
	c0.1,0.8-1,1-1.2,0.2c-1.6-8.2,1-15.2,5.9-20.3c4.9-5.2,12.2-8.6,20.4-9.8c2-0.3,4.1-0.5,6.2-0.5c2.4,0,4.9,0.1,7.4,0.4
	c-1.3-1.5-2.6-2.9-4-4.3c-0.2,0.4-0.6,0.6-1,0.6c-0.6,0-1.1-0.5-1.1-1.1c0-0.5,0.3-0.9,0.7-1c-1.3-1.3-2.6-2.6-3.9-3.9
	c-2-0.2-4-0.3-6-0.3C526.4,225,517.1,227.2,509.5,231.6z M506.7,242.2c1.4,0,2.6,1.1,2.6,2.5c0,1.4-1.2,2.5-2.6,2.5
	c-1.4,0-2.6-1.1-2.6-2.5C504.1,243.3,505.3,242.2,506.7,242.2z M503,250.5c1.6,0,2.9,1.3,2.9,2.8c0,1.6-1.3,2.8-2.9,2.8
	c-1.6,0-2.9-1.3-2.9-2.8C500,251.8,501.3,250.5,503,250.5z M500.2,262.9c0-1.6,1.3-2.8,2.9-2.8c1.6,0,2.9,1.3,2.9,2.8
	c0,1.6-1.3,2.8-2.9,2.8C501.4,265.7,500.2,264.4,500.2,262.9z M507.3,273.9c-1.6,0-2.9-1.3-2.9-2.8c0-1.6,1.3-2.8,2.9-2.8
	c1.6,0,2.9,1.3,2.9,2.8C510.2,272.7,508.9,273.9,507.3,273.9z M512.9,240.8c-1.3,0-2.3-1-2.3-2.3c0-1.2,1-2.3,2.3-2.3
	c1.3,0,2.3,1,2.3,2.3C515.3,239.8,514.2,240.8,512.9,240.8z M519.9,236.2c-1.2,0-2.1-0.9-2.1-2c0-1.1,0.9-2,2.1-2
	c1.1,0,2.1,0.9,2.1,2C521.9,235.3,521,236.2,519.9,236.2z M527.1,233.4c-1,0-1.8-0.8-1.8-1.7c0-1,0.8-1.8,1.8-1.8
	c1,0,1.8,0.8,1.8,1.8C528.8,232.6,528,233.4,527.1,233.4z M534.1,232c-0.9,0-1.6-0.7-1.6-1.5c0-0.9,0.7-1.6,1.6-1.6
	c0.9,0,1.6,0.7,1.6,1.6C535.7,231.3,535,232,534.1,232z M540.6,228.7c0.7,0,1.3,0.6,1.3,1.3c0,0.7-0.6,1.3-1.3,1.3
	c-0.7,0-1.3-0.6-1.3-1.3C539.2,229.3,539.8,228.7,540.6,228.7z M343.7,461c-0.9,0-1.8-0.4-2.3-1.4c-0.1-0.2,0.2-0.4,0.4-0.2
	c0.4,0.8,1.2,1.1,1.9,1.1c0.7,0,1.3-0.3,1.8-0.7c-0.7-1.5-1.4-3-2-4.5c-1.1-0.3-2.3-0.2-3.5,0.6c-2.2,1.5-2.9,3.8-2.3,5.9
	c0.6,2.1,2.5,4.1,5.3,4.7c2.1,0.5,4,0.2,5.5-0.5c-1-1.9-1.9-3.8-2.9-5.8C345.1,460.7,344.4,461,343.7,461z M387.9,509.7
	c0.3,2.2,0.7,4.4,1.2,6.5h0c0.1,0,0.1,0,0.2,0.1l16.9,6.9c0.3,0.1,0.4,0.5,0.3,0.8l-7,13v0c1.5,1.8,3.2,3.5,5,5.1l10.1-21.3
	L387.9,509.7z M410.7,546.5c3.6,2.2,7.7,4,12.2,5.3l-2.3-7.8L410.7,546.5z M419.7,532.2C419.6,532.2,419.6,532.3,419.7,532.2
	c-2.2,1.3-3.7,2.1-4.8,2.5c-0.5,0.2-1,0.3-1.3,0.3c-0.1,0-0.3-0.1-0.4-0.1c-0.1-0.1-0.2-0.2-0.2-0.3c-0.1-0.3,0.1-0.6,0.2-0.9
	c0.2-0.3,0.5-0.8,0.9-1.2c0.8-0.9,1.9-2,3.5-3.3c0,0,0.1-0.1,0.1-0.1c0.2,0,0.3,0.2,0.1,0.3c-1.5,1.2-2.7,2.3-3.4,3.2
	c-0.4,0.4-0.7,0.8-0.8,1.1c-0.2,0.3-0.2,0.6-0.2,0.6c0,0.1,0,0.1,0.1,0.1c0.1,0,0.1,0.1,0.2,0.1c0.2,0,0.6-0.1,1.1-0.2
	c1-0.3,2.6-1.1,4.7-2.4c0,0,0,0,0.1,0c-1.7-2.7-3-5.7-4.1-9.2c-0.1-0.4-0.2-0.8-0.3-1.1l-9.7,20.5l18-5.3
	C422,535.4,420.8,533.9,419.7,532.2z M464.1,574.2c2.8-0.4,5.5-0.6,8.3-0.5c-5-4.3-7.4-9.3-8.5-14.5c-3.3-1.4-6.5-2.8-9.8-4.2
	c0,0.1,0,0.3,0,0.4C454.7,561.2,456.7,567.4,464.1,574.2z M389.4,517.5c1.3,4.7,3.2,9.2,5.6,13.3c1.1,1.8,2.3,3.5,3.6,5.2l6.5-12
	L389.4,517.5z M354.4,517.1l-6.1-7.2c-1.1,1.1-2.3,2.1-3.6,3l9.8,14.2C354.2,523.9,354.2,520.5,354.4,517.1z M473.3,573.7
	c2.5,0.1,4.9,0.4,7.3,0.8c-0.2-2.6-0.2-5.3,0-8c-4.4-1.8-8.9-3.7-13.3-5.7c-0.9-0.4-1.9-0.8-2.8-1.2
	C465.7,564.7,468.2,569.5,473.3,573.7z M335.8,518.1l8.2,19.3c2-1.2,4-2.5,5.9-3.9l-9.8-17.6C338.7,516.7,337.2,517.4,335.8,518.1z
	 M360.8,489.5l-0.7-0.3c-0.4,1.4-0.8,2.7-1.3,4l0.5,0.2C359.8,492.2,360.3,490.8,360.8,489.5z M357.6,498.5l-0.8-0.6
	c-0.6,1.3-1.3,2.6-2.1,3.8l1.7,1.3C356.8,501.6,357.2,500.1,357.6,498.5z M359.2,493.8l-0.5-0.2c-0.5,1.4-1.1,2.7-1.7,4l0.8,0.5
	C358.2,496.7,358.7,495.3,359.2,493.8z M331.1,520l6.4,20.4c2.1-0.8,4.1-1.8,6.1-2.9l-8.2-19.3C334,518.9,332.5,519.5,331.1,520z
	 M523,594.2c-0.5,1.2-1,2.4-1.5,3.4c0.2,0,0.4-0.1,0.5-0.1c7.2-3.2,12.9-6.9,17.3-11.1c-2.1-0.5-4.2-1-6.4-1.5
	C529.8,588.1,526.2,591.1,523,594.2z M547.8,589.2c3.1,0.2,5.4,1,7.4,2.1c2.6,1.5,4.5,3.5,6.3,5.6c0.1,0.1,0,0.4-0.2,0.3
	c-6.8-2.2-13-0.1-19.2,1.5c-6,1.6-12.1,2.9-18.4-0.4c-0.6,0.1-1.2,0.3-1.8,0.4c0.4,0.8,0.7,1.5,1.1,2.2c3,3.6,6.2,5.4,9.4,6.2
	c4,1,8.3,0.3,12.6-0.8c4.3-1.1,8.8-2.7,13.1-3.6c3.9-0.8,7.7-0.8,11.4,0.6c-1.3-4.1-2.2-8.3-4.4-11.7c-0.3-0.4-0.6-0.8-0.9-1.2
	c-5.6-0.5-11.2-1.3-16.7-2.3c-0.5,0.4-1,0.8-1.5,1.1C546.6,589.1,547.2,589.2,547.8,589.2z M545.8,587.8c-2-0.4-4.1-0.8-6.1-1.3
	c-4.1,3.9-9.4,7.4-16,10.6C533.5,594.8,540.6,591.6,545.8,587.8z M566.2,591.2l3-0.4c-1.1-0.1-2.3-0.2-3.4-0.3
	c0.1,0.2,0.2,0.3,0.3,0.5C566.1,591,566.1,591.1,566.2,591.2z M569.6,599.6c1.4-2.9,2.7-5.7,3.8-8.6c-0.2,0-0.4,0-0.6,0
	c-0.6,0-1.2-0.1-1.7-0.1l-4.7,0.7C567.9,594,568.8,596.8,569.6,599.6z M513.1,578.8c0.7,0.6,1.4,1.3,2,2.1c2.9,3.6,3.9,7.4,5.1,15.4
	c0.4-5.7,0.4-10.7,0-15c-0.2-0.1-0.4-0.1-0.5-0.2C517.5,580.3,515.3,579.5,513.1,578.8z M493.1,586.4c1.9,4,4.8,6.8,9.3,8.7
	c3.7,1.6,8.4,2.5,14.3,2.9c0.3,0,0.6,0,0.9,0c-5.6-1.7-10.2-4.3-13.4-8.4c-3.1-3.9-4.8-9-5-15.8c-2.6-1-5.2-2-7.8-3
	C491,576.3,490.8,581.5,493.1,586.4z M484,583.6c2.3,5,6,8.9,11.8,11.5c4.4,1.9,10.1,3,17.4,3c-4.3-0.5-7.9-1.4-10.9-2.6
	c-4.5-1.9-7.6-4.8-9.5-8.9c-2.4-5-2.1-10.3-1.7-15.9c-3.1-1.2-6.2-2.5-9.3-3.7C481.5,573.2,481.8,579,484,583.6z M532.2,584.7
	c-2.1-0.5-4.2-1.1-6.2-1.7c-0.5,3.6-1.4,7-2.5,9.9C526.4,590.1,529.5,587.5,532.2,584.7z M520.7,596.4c1.7-3.6,3.4-8.5,4.2-13.8
	c-1.4-0.4-2.8-0.8-4.1-1.3C521.1,585.7,521,590.7,520.7,596.4z M570.9,604c0.1,0.5-0.4,0.9-0.8,0.7c-0.5-0.3-1-0.5-1.6-0.7
	c-0.1,0.3-0.3,0.6-0.4,0.9c5.5,0.7,10.6,2.7,14.7,5.5c2.9-6.4,5.1-13.1,6.7-19.9c-1.5,0.1-2.9,0.2-4.4,0.3c0,0.2,0.1,0.4,0.1,0.6
	c0,1.7-1.4,3-3.1,3c-1.7,0-3.1-1.3-3.1-3c0-0.2,0-0.3,0-0.5c-1.5,0-3,0-4.5-0.1c-1.4,3.3-2.9,6.7-4.5,10
	C570.3,602,570.6,603,570.9,604z M578.8,597.9c1.9,0,3.4,1.5,3.4,3.3s-1.5,3.3-3.4,3.3c-1.9,0-3.4-1.5-3.4-3.3
	S576.9,597.9,578.8,597.9z M504.7,589.3c3.4,4.3,8.4,6.9,14.6,8.5c0.1-0.2,0.3-0.4,0.6-0.5c-1.3-8.6-2.3-12.5-5.2-16.1
	c-1-1.2-2.1-2.2-3.4-3.1c-3.8-1.3-7.6-2.7-11.4-4.1C500.1,580.6,501.8,585.6,504.7,589.3z M398.2,580.4l-0.4,0.3
	c0.8,1.7,1.5,3.4,2.1,5.1l0.8-0.3C399.9,583.7,399.1,582,398.2,580.4z M344.3,513.2c-1.2,0.9-2.5,1.7-3.8,2.5l9.7,17.6
	c1.6-1.2,3-2.5,4.5-3.9c-0.1-0.5-0.1-0.9-0.1-1.4L344.3,513.2z M391.6,571l-0.4,0.5c1.3,1.3,2.4,2.6,3.4,4l0.3-0.3
	C393.9,573.7,392.8,572.3,391.6,571z M400,586.1c0.4,1.2,0.7,2.4,0.9,3.7l0.4-2.7c-0.1-0.4-0.3-0.8-0.5-1.3L400,586.1z M387.4,566.7
	l-0.7,0.9c1.6,1.1,3,2.4,4.2,3.6l0.5-0.5C390.1,569.3,388.8,568,387.4,566.7z M557.2,625.5c1.3-0.4,2.6-0.6,3.9-0.6
	c3.7,0.2,7.1,2.6,7.4,6.9c0.2,3.7-2.4,6.2-5.1,6.7c-1.4,0.2-2.8-0.1-3.9-1c-1.1-0.9-1.8-2.4-1.8-4.4c0-0.9,1.4-0.9,1.4,0
	c0,1.7,0.5,2.8,1.3,3.4c0.7,0.6,1.8,0.8,2.8,0.7c2.1-0.3,4.2-2.1,3.9-5.3c-0.2-3.6-3-5.5-6.1-5.6c-3.1-0.2-6.6,1.4-8,5
	c-1.9,4.6,0.5,8.8,4.7,10.8c4.2,2,10.1,1.7,15.2-3.3c5.4-5.3,5.8-11.8,3.1-16.9c-2.4-4.5-7.1-8-12.8-8.5c-2.8,4.5-6.1,9-9.5,13.3
	C554.7,626.2,555.9,625.8,557.2,625.5z M568.7,618.2c2.2,0,3.9,1.7,3.9,3.8c0,2.1-1.8,3.8-3.9,3.8c-2.2,0-3.9-1.7-3.9-3.8
	C564.8,619.9,566.5,618.2,568.7,618.2z M504.2,626.4c-3.6,1.6-6.8,3-8.9,5.1c-1.4,1.5-2.3,3.2-2.3,5.7c0.1,0.1,0.2,0.1,0.3,0.2
	c1,1,1.9,2.1,2.8,3.3l13.2-8.6C507.7,630.1,506,628.1,504.2,626.4z M403.2,587.8c0.8-0.8,1.6-1.4,2.5-2c-1.3-0.3-2.5-0.7-3.7-1.1
	C402.4,585.7,402.8,586.7,403.2,587.8z M541.9,598.3c6-1.6,12.2-3.6,18.8-1.7c-1.7-1.9-3.4-3.7-5.7-5.1c-2.2-1.2-5-2-8.8-2
	c-0.3,0-0.6,0-0.9,0c-5.2,3.5-12.1,6.4-21.1,8.6C530.2,601.1,536,599.9,541.9,598.3z M383.8,563.6c-0.3-0.2-0.5-0.4-0.8-0.6l-1,1.5
	c1.5,0.9,3,1.8,4.5,2.9l0.8-0.9C386,565.4,384.9,564.5,383.8,563.6z M547.5,632.5c0,0,0.1-0.1,0.1-0.1c0.5-0.9,1.1-1.8,1.8-2.6
	c0.5-0.6,1.1-1.1,1.7-1.6c0-0.1,0.1-0.1,0.1-0.2c3.9-4.7,7.6-9.7,10.7-14.7h-0.5c-0.2,0-0.4,0-0.6,0c-6.3,0.3-10.9,2.8-14.6,6.7
	c-3.7,3.9-6.5,9.3-9,15.2c-1.6,3.7-3,7.7-4.5,11.7C538.1,642.3,543.1,637.5,547.5,632.5z M395.2,575.5l-0.3,0.3c1.1,1.5,2,3,2.8,4.6
	l0.4-0.3C397.1,578.5,396.2,577,395.2,575.5z M508.1,628.7c2.2,2.5,4.1,5.2,5.6,8c5.3-4.5,10.1-9.2,14.5-13.9
	c-0.7-3.4-1.7-6.9-3-10.5C520.3,618,514.6,623.4,508.1,628.7z M358.4,544.7c-2.3,1.7-4.8,3.3-7.3,4.8c3.5,0.3,6.9,0.9,10.2,1.7
	C360.2,549,359.3,546.9,358.4,544.7z M354.5,502.2c-0.8,1.3-1.7,2.6-2.7,3.8l3.4,3.3c0.3-1.9,0.7-3.8,1.1-5.7L354.5,502.2z
	 M348.5,509.6l5.9,6.9c0.1-2.2,0.4-4.5,0.7-6.8l-3.6-3.5C350.6,507.5,349.6,508.6,348.5,509.6z M349.1,550.8v8.3
	c1.6-0.3,3.3-0.4,4.9-0.6l0.7-7.2C352.9,551.2,351,551,349.1,550.8z M372.8,556.8l-1.4,3.3c1.7,0.5,3.3,1,5,1.7l1.3-2.4
	C376.1,558.5,374.4,557.6,372.8,556.8z M378,559.6l-1.3,2.4c1.7,0.7,3.3,1.5,4.9,2.3l1.1-1.6C381.2,561.6,379.6,560.6,378,559.6z
	 M366.9,554.4l-1.4,4.6c1.8,0.3,3.6,0.6,5.4,1.1l1.5-3.4C370.6,555.8,368.8,555.1,366.9,554.4z M355.1,551.5l-0.7,7.1
	c1.1-0.1,2.3-0.1,3.5-0.1c0.6,0,1.1,0,1.7,0l1.2-5.9C359,552.1,357.1,551.8,355.1,551.5z M361.2,552.7l-1.2,5.8
	c1.7,0.1,3.4,0.2,5.1,0.4l1.4-4.6C364.8,553.7,363,553.2,361.2,552.7z M342.8,550.7l1,9.5c1.6-0.4,3.3-0.7,5-1v-8.4
	c-1.4-0.1-2.9-0.1-4.3-0.1C343.9,550.7,343.3,550.7,342.8,550.7z M318.2,453.3c-2.1-1.6-4.5-2.9-7.3-3.9l-8,18.7
	c1.4,0.5,2.6,1.2,3.5,2.3L318.2,453.3z M266.2,438.5c1.1,2.6,0.9,5.7-0.8,8.1c3-2.3,6.1-4.2,9.4-5.8c-1.6,0.6-3.4,0.6-5,0.1
	c-2.3-0.8-4-2.7-3.7-5.4c0.3-2.4,1.9-3.7,3.5-3.8c1.6-0.2,3.3,0.7,3.7,2.4c0.2,0.8,0,1.7-0.5,2.2c-0.5,0.6-1.4,0.9-2.4,0.6
	c-0.3-0.1-0.1-0.4,0.1-0.4c0.9,0.2,1.6,0,2-0.5c0.4-0.5,0.6-1.2,0.4-1.9c-0.4-1.5-1.8-2.3-3.3-2.1c-1.4,0.2-2.9,1.2-3.1,3.5
	c-0.3,2.6,1.3,4.3,3.4,5c2.2,0.7,4.9,0.3,6.7-1.2c2.1-1.9,3-4.7,2.6-7.2c-0.4-2.4-2-4.5-4.9-5.3c-3.6,1-7.2,2.3-10.8,3.9
	c-1.9,0.8-3.6,1.7-5.3,2.6c0.2,0,0.4,0,0.7,0C262.5,433.6,265.1,435.8,266.2,438.5z M296.6,477.5c1-2.2,2.9-4.1,6-5.5
	c-6.3,1.3-10.8,4.8-13.3,9.3c-0.1,0.1-0.1,0.1-0.1,0.2c2.9-0.2,6,1,7.5,3.3c0.1,0.1,0.1,0.2,0.2,0.3
	C295.8,482.6,295.6,479.9,296.6,477.5z M300.9,447.7c-2.3,0-4.7,0.2-7.1,0.7v20c1.3-0.5,2.7-0.7,4-0.8l4-19.8
	C301.5,447.8,301.3,447.7,300.9,447.7z M302.3,447.8l-4,19.8c1.5-0.1,3,0.1,4.3,0.4l8-18.7C308,448.5,305.3,447.9,302.3,447.8z
	 M304.9,472.6c-0.9,0.7-1.5,1.7-1.9,2.7L304.9,472.6z M290.6,435.7c-0.5,0.3-1.1,0.6-1.7,0.8c2.1-0.3,4.1-0.5,6.1-0.6
	c1.2,0,2.4,0,3.6,0.1c-0.3-0.1-0.6-0.2-0.9-0.3c-2.2-0.9-3.7-2.8-3.2-5.5c0.5-2.6,2.9-3.7,4.7-3.7c0.7,0,1.4,0.3,1.9,0.7
	c0.5,0.4,0.8,1,1,1.8c0.1,0.8-0.2,1.7-0.8,2.3c-0.6,0.6-1.6,0.9-2.6,0.6c-0.3-0.1-0.1-0.5,0.1-0.4c0.9,0.3,1.7,0,2.2-0.5
	c0.5-0.5,0.8-1.3,0.7-2c-0.1-0.7-0.4-1.2-0.8-1.6c-0.4-0.3-1-0.6-1.7-0.6c-1.7-0.1-3.8,0.9-4.3,3.4c-0.5,2.6,0.9,4.3,3,5.1
	c2.1,0.8,4.8,0.7,6.9-0.6c2.1-1.4,3.2-3.6,3.3-5.7c0-1.9-0.9-3.7-3-4.5c-3.2-0.5-6.4-0.7-9.8-0.8c-1.3,0-2.5,0-3.8,0.1
	C295.2,426.6,294.9,433,290.6,435.7z M279.6,432c0.4,2.6-0.5,5.5-2.7,7.5c-0.4,0.3-0.7,0.6-1.1,0.8c3.5-1.5,7.1-2.7,10.8-3.4
	c-1.1,0-2.2-0.1-3.2-0.5c-2.2-0.9-3.7-2.8-3.2-5.5c0.5-2.6,2.9-3.7,4.7-3.7c0.7,0,1.4,0.2,1.9,0.7c0.5,0.4,0.9,1,1,1.8
	c0.1,0.8-0.2,1.7-0.8,2.3c-0.6,0.6-1.6,0.9-2.6,0.6c-0.3-0.1-0.1-0.5,0.1-0.4c0.9,0.3,1.6,0,2.2-0.5c0.5-0.5,0.8-1.3,0.7-2
	c-0.1-0.7-0.4-1.2-0.8-1.6c-0.4-0.3-1-0.6-1.7-0.6c-1.7-0.1-3.8,0.9-4.3,3.4c-0.5,2.5,0.9,4.3,3,5.1c2.1,0.8,4.8,0.7,6.8-0.6
	c4.2-2.6,4.4-9.1,0.3-11.4c-5.1,0.3-10.3,1.1-15.7,2.6C277.7,427.5,279.2,429.7,279.6,432z M321.9,433.3c-0.4,2.2-2,4.4-4.5,5.4
	c-1.5,0.6-3.2,0.7-4.7,0.4c1.9,0.8,3.7,1.7,5.4,2.7c1.2,0.6,2.4,1.2,3.4,1.8c-0.1-0.1-0.2-0.2-0.4-0.3c-1.7-1.6-2.3-4-0.9-6.5
	c1-1.8,2.7-2.4,4.2-2.4c0.5,0,1,0.1,1.4,0.3c0.7,0.2,1.3,0.6,1.6,1.2c0.4,0.5,0.5,1.2,0.4,2c-0.1,0.8-0.7,1.6-1.5,2
	c-0.8,0.4-1.8,0.4-2.7-0.2c-0.2-0.1,0-0.5,0.2-0.3c0.7,0.5,1.6,0.5,2.2,0.1c0.7-0.3,1.2-1,1.3-1.7c0.1-0.7,0-1.3-0.3-1.7
	c-0.3-0.5-0.8-0.8-1.4-1c-1.6-0.5-3.9-0.2-5.1,1.9c-1.3,2.3-0.7,4.5,0.8,6c1.6,1.5,4.2,2.4,7.1,1.8c5.3-1,6.7-6,4.6-8.6
	c-3.8-2.8-7.9-5.3-12.6-7.3C321.8,430.2,322.1,431.8,321.9,433.3z M308.4,429.1c0,2.2-1.2,4.6-3.4,6c-1.1,0.7-2.3,1.1-3.6,1.2
	c3.2,0.3,6.2,1,9.1,2c-0.1-0.1-0.2-0.1-0.3-0.2c-2-1.2-3.1-3.4-2.1-6c1-2.5,3.5-3.2,5.3-2.8c0.7,0.2,1.3,0.5,1.8,1
	c0.4,0.5,0.6,1.2,0.6,1.9c0,0.8-0.5,1.7-1.2,2.1c-0.7,0.5-1.7,0.6-2.7,0.1c-0.2-0.1-0.1-0.5,0.2-0.3c0.8,0.4,1.6,0.3,2.2-0.1
	c0.6-0.4,1-1.1,1.1-1.8c0-0.7-0.2-1.3-0.5-1.7c-0.4-0.4-0.9-0.7-1.6-0.9c-1.6-0.3-3.9,0.2-4.8,2.6c-1,2.4,0.1,4.4,1.9,5.5
	c1.9,1.2,4.6,1.5,6.9,0.6c2.3-1,3.9-3,4.2-5.1c0.3-1.8-0.3-3.6-2.1-4.8c-4.2-1.7-8.6-2.9-13.2-3.7
	C307.6,425.8,308.4,427.5,308.4,429.1z M330.7,456.9c3.3,9.3,1.7,17.2-3.2,22.3c-0.8,0.8-3.4,3-7.2,4.6c-3.8,1.6-8.8,2.4-13.7,0.2
	c-1.8-0.8-3.1-2-3.9-3.4c-0.9-1.4-1.3-2.9-1.2-4.4c0.1-1.3,0.7-2.6,1.8-3.6c-3.1,1.3-4.9,3.2-5.8,5.2c-1.1,2.6-0.7,5.5,1,8.2
	c3.4,5.3,11.9,9.5,22.1,7.1c9.3-2.2,16.3-11.6,16.9-22.1c0.4-8.9-3.6-18.6-14.6-25.6C326.3,448.4,329,452.3,330.7,456.9z
	 M289.8,470.3c1.2-0.7,2.4-1.2,3.5-1.7v-20.1c-2.4,0.5-4.9,1.2-7.5,2.2L289.8,470.3z M283.8,451.4c-1.8,0.8-3.5,1.7-5.1,2.7
	l7.9,18.5c0.9-0.8,1.9-1.5,2.8-2.1l-4-19.7C284.9,451,284.4,451.2,283.8,451.4z M307,483c0.4,0.2,0.7,0.3,1.1,0.4l17.1-6.9
	c0,0,0,0,0.1,0h0c1.3-2.6,1.7-5.5,1.5-8.4L305.3,482C305.8,482.4,306.4,482.7,307,483z M319.3,482.9c2.2-1.2,4.2-3,5.6-5.7
	c0-0.1,0.1-0.1,0.1-0.2l-16.4,6.6C312.5,484.7,316.2,484.1,319.3,482.9z M240,453.8c1.6-1.5,4.1-1.9,6.3-0.4c1.8,1.2,2,3.2,1.2,4.5
	c-0.5,0.8-1.3,1.4-2.1,1.5c-0.8,0.1-1.7-0.3-2.4-1.1c1.4,2.1,2.9,4.1,4.4,6.1c1.7-0.4,3.4-1.2,4.6-2.3c0.7-0.6,1.2-1.3,1.7-1.9
	c0.3-0.6,0.7-1.1,1-1.6c2-3.9,0.9-7.9-1.7-10.4c-1.6-1.5-3.8-2.5-6.3-2.6c-2.6-0.1-5.5,0.9-8.3,3.3c-0.3,0.3-0.6,0.6-0.8,1
	C238.3,451.1,239.1,452.4,240,453.8C240,453.8,240,453.8,240,453.8z M252.2,462.3c-1.2,1.1-2.8,1.9-4.6,2.3c0.8,1,1.5,2,2.3,3
	c0.8-2,1.7-3.9,2.7-5.7C252.5,462,252.3,462.1,252.2,462.3z M305,481.7l21.7-14.1c-0.3-2.6-1.2-5.2-2.6-7.6L303.6,480
	C303.9,480.6,304.4,481.2,305,481.7z M272.7,458.9l11.3,16.4c0.7-0.9,1.5-1.7,2.3-2.4l-7.9-18.6
	C276.4,455.6,274.4,457.2,272.7,458.9z M268,464.4l14,13.6c0.5-0.8,1.1-1.7,1.7-2.4l-11.3-16.4C270.8,460.8,269.4,462.5,268,464.4z
	 M264.5,470.4l16,10.3c0.4-0.9,0.9-1.7,1.3-2.4l-14-13.6C266.6,466.5,265.5,468.4,264.5,470.4z M261.8,477.4l17.5,6.2
	c0.2-0.7,0.5-1.5,0.8-2.2c0.1-0.1,0.1-0.3,0.2-0.4l-16-10.3C263.4,472.9,262.5,475.1,261.8,477.4z M305.9,472c0,0-0.1,0.1-0.1,0.1
	l-2.9,4.3c-0.1,0.3-0.1,0.6-0.1,0.9c0,0.8,0.2,1.7,0.6,2.5l20.6-19.9c-1.3-2.1-3-4.1-5-5.8c-0.1-0.1-0.3-0.3-0.4-0.4l-11.8,17.1
	C307.1,471.3,306.6,472.1,305.9,472z M320.8,554.7c1.3,0.4,2.6,0.7,4,1.1l-0.9-2.1C322.8,554.1,321.8,554.4,320.8,554.7z
	 M494.4,630.6c2.5-2.5,6.3-3.9,10.2-5.8c3.9-1.8,7.8-4,10.7-8c2.7-3.7,4.6-9,4.5-17c-0.1-0.3-0.3-0.6-0.4-0.8
	c-0.8,0.1-1.6,0.1-2.4,0.1c-0.7,0.8-1.5,1.6-2.3,2.4c0.3,5.3-0.7,8.8-2.5,11.1c-1.9,2.5-4.6,3.8-7.5,4.9c-2.9,1.1-6,1.9-8.8,3.4
	c-2.8,1.5-5.2,3.6-6.7,7.2c-0.1,0.1-0.3,0.1-0.4,0c-2.5-4.3-3-9.3-1.1-14.1c-2.7,0.3-5.2,0.3-7.4,0c-0.8,4.8-0.6,9.6,0.7,13.9
	c0.2,0.2,0.3,0.4,0.2,0.7c1.2,3.6,3.2,6.8,6,9.3c1.6,0.7,3.3,1.3,4.9,2C491.3,635.6,492.3,632.7,494.4,630.6z M493.3,640.4
	c0.3,0.1,0.6,0.2,1,0.4c-0.4-0.5-0.8-1-1.2-1.4C493.2,639.6,493.3,640,493.3,640.4z M509.5,632.4l-13.2,8.6c0.1,0.2,0.3,0.4,0.4,0.6
	c3.5,1.2,6.9,2.3,10.3,3.2l7.7-3.1C513.4,638.5,511.7,635.3,509.5,632.4z M461.4,623.2v-13.3c-3.6,0.1-7,0.5-10.3,1.1l2.1,10.1
	c1.4,0.8,2.9,1.5,4.3,2.3c1.2-0.1,2.4-0.2,3.6-0.2C461.2,623.2,461.3,623.2,461.4,623.2z M481.2,635.2c1,0,1.8,0.3,2.5,0.8
	c-1.6-2.1-2.8-4.5-3.7-7c-5.4-2.5-11.9-4.5-19-4.4c-0.5,0-0.9,0-1.3,0.1c7.2,3.8,14.3,7.3,21.3,10.6
	C481.1,635.2,481.1,635.2,481.2,635.2z M528.4,623.5c-4.4,4.7-9.1,9.3-14.4,13.7c1.7,3.2,3,6.6,3.8,10.1c3.5,0.7,7,1.2,10.5,1.6
	C530,641.3,530.2,632.8,528.4,623.5z M582.8,611.4c-4.1-3-9.4-5.1-15.2-5.7c-0.2,0.1-0.4,0.1-0.6-0.1c-1-0.1-1.9-0.1-2.9-0.1
	c-6.2,0-12.6,1.9-18.2,6.6c-5.8,4.8-8.6,9.9-10.4,15.3c-1.5,4.2-2.3,8.5-3.6,13.1c-0.1,2.4-0.4,4.8-0.9,7.1
	c1.6-4.3,3.2-8.7,4.9-12.8c2.5-6,5.3-11.5,9.2-15.6c3.9-4.2,8.9-6.9,15.6-7.2c7.3-0.3,13.4,3.7,16.3,9.3c2.9,5.6,2.5,12.8-3.4,18.5
	c-5.4,5.3-12,5.8-16.7,3.6c-4.7-2.2-7.6-7.3-5.4-12.5c0.6-1.5,1.5-2.6,2.5-3.5c-0.7,0.3-1.3,0.7-1.9,1.1c-0.1,0.1-0.1,0.2-0.2,0.2
	c-0.1,0.1-0.2,0.2-0.4,0.2c-0.6,0.5-1.1,1-1.6,1.5c-0.7,0.8-1.2,1.6-1.7,2.5c0,0.1,0,0.3-0.1,0.4c-0.1,0.1-0.1,0.1-0.2,0.2
	c-0.9,2-1.3,4.2-1.1,6.5c0.3,3.4,1.7,6.3,3.8,8.7c10.6-1.8,21-5.8,31.3-12.1c3.4-2.1,6.8-4.6,10.2-7.4
	C591.9,622.2,588.6,615.6,582.8,611.4z M593.1,628.4c2.5-2.1,5-4.4,7.5-6.8c5.2-10.9,9.3-22.7,11.8-35.3c-4.5,1.3-9,2.3-13.5,3
	c-2.2,9.6-5.4,19-9.5,28.1C591.5,620.8,592.7,624.6,593.1,628.4z M440.8,613.8l0.2,0.4c3.9,2.3,7.9,4.5,11.8,6.6l-2-9.8
	C447.2,611.7,443.9,612.7,440.8,613.8z M507.6,645c3,0.8,5.9,1.5,8.9,2.1c-0.4-1.7-1-3.3-1.6-5L507.6,645z M546.7,634.9
	c-4.5,4.8-9.4,9.5-14.7,14c-0.1,0.1-0.1,0.3-0.2,0.4c0.3,0,0.5,0.1,0.8,0.1c1.9,0.2,3.9,0.2,5.8,0.2c1-1.5,2.8-2.5,4.8-2.5
	c1.7,0,3.3,0.7,4.3,1.9c0.8-0.1,1.5-0.2,2.3-0.3c-2.1-2.4-3.4-5.4-3.7-8.8C546.1,638.2,546.3,636.5,546.7,634.9z M385.8,568.4
	c-8.2-6-17.9-8.8-27.9-8.7c-5.1,0-10.3,0.8-15.3,2.1c6.7,2.5,13.4,5.3,20,8.4c4.2,1.3,7.8,3.1,10.8,5.4c8.9,4.6,17.6,9.4,26.3,14.2
	C398.1,582,393.8,574.3,385.8,568.4z M588.7,616.3c3.9-8.7,6.8-17.6,9-26.7c-2.4,0.4-4.7,0.7-7.1,0.9c-1.7,7-4,13.9-7,20.5
	C585.6,612.5,587.3,614.3,588.7,616.3z M324.2,553.7l1,2.3c2.2,0.6,4.4,1.3,6.5,2l-1.8-5.7C328,552.7,326.1,553.1,324.2,553.7z
	 M243.2,457.8c0.7,0.8,1.4,1.1,2.1,1c0.7-0.1,1.4-0.5,1.8-1.3c0.7-1.1,0.6-2.8-1-3.9c-2.1-1.4-4.3-1-5.8,0.4c0,0,0,0,0,0
	c0.9,1.3,1.7,2.6,2.6,3.9C242.8,457.8,243,457.7,243.2,457.8z M255.5,471.8c1.8,0,3.3,1.5,3.3,3.2c0,0.8-0.3,1.5-0.8,2.1
	c0.9,1,1.8,2,2.8,3c0.2-0.8,0.4-1.7,0.7-2.5c0,0,0,0,0-0.1c2.1-7.1,5.8-13.6,10.8-18.6c0-0.1,0.1-0.2,0.2-0.2h0
	c3.2-3.1,7-5.7,11.2-7.5c5.8-2.4,11.2-3.6,16-3.7c8.1-0.2,14.8,2.4,19.5,6.3c7.6,6.3,10.3,16.2,6.1,23.7c-1,1.9-2.4,3.3-3.8,4.5
	c2.7-1.4,4.6-3,5.1-3.5c4.6-4.7,6.2-12,3-21.1c-4.2-11.9-16-18.9-29.4-20c-1.3-0.1-2.5-0.2-3.8-0.2c-12.4,0-25.6,4.8-35.3,15
	c-4.3,4.6-7.8,10.2-10.2,16.5c1,1.2,2,2.4,3,3.6C254.2,471.9,254.8,471.8,255.5,471.8z M321.7,449.4c0.7,0,1.3,0.5,1.3,1.2
	c0,0.7-0.6,1.2-1.3,1.2c-0.7,0-1.2-0.6-1.2-1.2C320.5,449.9,321,449.4,321.7,449.4z M316.9,445.3c0.9,0,1.7,0.7,1.7,1.6
	c0,0.9-0.8,1.6-1.7,1.6c-0.9,0-1.7-0.7-1.7-1.6C315.2,446,316,445.3,316.9,445.3z M310.1,441.8c1.2,0,2.1,0.9,2.1,2.1
	c0,1.1-1,2-2.1,2c-1.2,0-2.1-0.9-2.1-2C308,442.7,308.9,441.8,310.1,441.8z M301.8,439.8c1.4,0,2.6,1.1,2.6,2.5
	c0,1.4-1.2,2.5-2.6,2.5c-1.4,0-2.6-1.1-2.6-2.5C299.2,441,300.4,439.8,301.8,439.8z M292.4,439.7c1.7,0,3,1.3,3,2.9
	c0,1.6-1.3,2.9-3,2.9c-1.6,0-3-1.3-3-2.9C289.4,441,290.8,439.7,292.4,439.7z M282.5,441.9c1.8,0,3.3,1.4,3.3,3.2
	c0,1.8-1.5,3.2-3.3,3.2c-1.8,0-3.3-1.5-3.3-3.2C279.2,443.3,280.7,441.9,282.5,441.9z M273.1,446.7c1.8,0,3.3,1.4,3.3,3.2
	c0,1.8-1.5,3.2-3.3,3.2c-1.8,0-3.3-1.4-3.3-3.2C269.8,448.1,271.3,446.7,273.1,446.7z M265.1,453.7c1.8,0,3.3,1.5,3.3,3.2
	c0,1.8-1.5,3.2-3.3,3.2c-1.8,0-3.3-1.4-3.3-3.2C261.8,455.1,263.3,453.7,265.1,453.7z M259.3,462.1c1.8,0,3.3,1.5,3.3,3.2
	c0,1.8-1.5,3.2-3.3,3.2c-1.8,0-3.3-1.4-3.3-3.2C256,463.6,257.5,462.1,259.3,462.1z M330.3,552.2l1.9,5.9c2,0.6,3.9,1.3,5.8,2
	l-1.8-8.9C334.3,551.5,332.3,551.8,330.3,552.2z M256.6,449.4c-2.5-0.8-4.3-2.9-4-5.8c0.3-2.4,1.9-3.7,3.6-4
	c1.7-0.3,3.5,0.6,4.1,2.4c0.3,0.8,0.1,1.7-0.5,2.4c-0.6,0.6-1.5,1-2.6,0.7c-0.2-0.1-0.1-0.4,0.1-0.4c1,0.3,1.7,0,2.2-0.6
	c0.5-0.5,0.7-1.2,0.4-2c-0.5-1.7-2.2-2.4-3.7-2.2c-1.6,0.2-3,1.4-3.3,3.7c-0.3,2.8,1.4,4.6,3.7,5.4c2.3,0.8,5.2,0.4,7.2-1.4
	c2.7-2.4,3.2-6,1.9-9c-1.2-2.8-3.9-5-7.8-4.9c-0.2,0-0.4,0-0.6,0c-6.8,3.7-12.7,8.3-17.7,13.4c2.2-1.4,4.3-2,6.3-2.1
	c2.8-0.1,5.3,1,7.1,2.7c2.4,2.3,3.5,5.7,2.5,9.2c1.4-2,2.9-3.8,4.5-5.5c0.8-0.8,1.6-1.6,2.4-2.4C260.7,449.9,258.5,450,256.6,449.4z
	 M342.3,550.7c-1.9,0.1-3.8,0.2-5.7,0.5l1.9,9.1c0.7,0.3,1.5,0.5,2.2,0.8c0.9-0.3,1.8-0.5,2.7-0.7L342.3,550.7z M433,597.3
	c-2.9-3.9-8.4-6.6-14.3-6.4c-3.6,0-7.3,1.2-10.8,3.6c3.6,2.1,7.2,4.2,10.8,6.3c2.6,0.3,4.7,1.7,5.8,3.5c1.2,0.7,2.4,1.5,3.6,2.2
	c2.3,1.4,4.7,2.8,7,4.2C436.8,606.2,435.9,601.2,433,597.3z M401.1,590.6c0.5,0.3,1.1,0.6,1.6,0.9c-0.3-1.2-0.7-2.5-1.1-3.7
	L401.1,590.6z M446.2,599.3c-0.8-4.4-2.8-8.6-6.1-11.7c-12,1.8-23.5,1-33.9-1.7c-1,0.7-1.9,1.5-2.8,2.3c0.5,1.5,0.9,2.9,1.3,4.4
	c0.8,0.4,1.5,0.9,2.3,1.3c3.7-2.7,7.8-4,11.7-4c6.2-0.1,12,2.7,15.2,6.8c3.1,4.1,4.1,9.7,2.2,14.6c1.1,0.6,2.2,1.3,3.2,1.9
	c2-0.7,4-1.4,6-2C446.7,608,447,603.6,446.2,599.3z M318.7,548.6c1.8,0,3.3,1.4,3.3,3.2c0,0.3-0.1,0.7-0.2,1c1.7-0.5,3.4-1,5.1-1.4
	c-0.2-0.4-0.3-0.8-0.3-1.3c0-1.8,1.5-3.2,3.3-3.2c1.8,0,3.3,1.4,3.3,3.2c0,0,0,0,0,0c2-0.3,4-0.5,5.9-0.7c-1-0.6-1.6-1.6-1.6-2.8
	c0-1.8,1.5-3.2,3.3-3.2c1.9,0,3.3,1.4,3.3,3.2c0,1.1-0.5,2-1.4,2.6c1.3,0,2.5,0,3.8,0c0.8,0,1.6,0,2.5,0.1c3-1.7,6.2-3.6,8.9-5.8
	c-0.7-2.1-1.4-4.2-1.9-6.3c-0.6-2.4-1-4.8-1.3-7.4c-5.1,4.9-11,8.6-17.3,11.1c0,0,0,0-0.1,0c-11.6,4.5-24.5,4.9-36.4,1.9
	c-0.1,0-0.1,0-0.2-0.1c-2.7-0.7-5.4-1.6-8.1-2.7c0,0-0.1,0-0.1,0c-2.6-1-5.1-2.3-7.5-3.7c0,0-0.1,0-0.1-0.1
	c-0.6-0.3-1.2-0.7-1.7-1.1c-1.4,0.4-2.8,0.9-4.3,1.3c0.8,0.6,1.3,1.5,1.3,2.5c0,1.8-1.5,3.2-3.3,3.2c-1.9,0-3.3-1.5-3.3-3.2
	c0-0.2,0-0.5,0.1-0.7c-1.7,0.6-3.4,1.3-5.1,2c3.3,2.8,7,5.4,11.1,7.7c0.4,0.2,0.9,0.5,1.3,0.7c4.1,0,8.3,0.2,12.3,0.6
	c-0.1-0.3-0.2-0.6-0.2-0.9c0-1.8,1.5-3.2,3.3-3.2c1.8,0,3.3,1.4,3.3,3.2c0,0.6-0.2,1.1-0.5,1.6c1.6,0.2,3.1,0.5,4.6,0.7
	c0.1-1.7,1.6-3,3.3-3c1.8,0,3.3,1.5,3.3,3.2c0,0.4-0.1,0.7-0.2,1.1c0.5,0.1,0.9,0.2,1.4,0.3c1.3,0.3,2.6,0.6,3.9,1
	c-0.3-0.5-0.5-1.1-0.5-1.7C315.4,550,316.9,548.6,318.7,548.6z M350.5,538.4c1.8,0,3.3,1.5,3.3,3.2c0,1.8-1.5,3.2-3.3,3.2
	c-1.8,0-3.3-1.4-3.3-3.2C347.2,539.9,348.7,538.4,350.5,538.4z M286.5,547.8c-1.8,0-3.3-1.5-3.3-3.2c0-1.8,1.5-3.2,3.3-3.2
	s3.3,1.4,3.3,3.2C289.8,546.3,288.3,547.8,286.5,547.8z M567.8,278.4c-0.1,0.1-0.2,0.1-0.3,0.1c0,0.1,0.1,0.1,0.1,0.1
	C567.6,278.6,567.7,278.5,567.8,278.4z M557.1,302.8c2.4-4.2,3.2-7.6,3-10.5c-0.2-3.2-1.5-5.7-3.2-8.1c-1.7-2.4-3.8-4.5-5.4-6.8
	c-1.6-2.2-2.6-4.7-2.5-7.6c-3.8,2.9-5.6,6.7-6.4,10.5c0,0,0.1,0.1,0.1,0.1c6.2,7,10.5,15.6,9.1,29.6
	C553.3,307.2,555.1,304.9,557.1,302.8z M578.4,320.7c-2.1-5.5-5.1-10-5.4-15.5c-9.1,3.5-16.7,10.4-18.4,18.8
	c1.7,2.6,3.2,5.1,4.4,7.8c1.5-4.2,5.6-7.8,9.7-12.3c0.1-0.1,0.2-0.1,0.2-0.1c0.1,0,0.3,0.1,0.3,0.2c1.2,6.5,5.8,14.9,3.6,22.6
	c1.7-0.3,3.5-0.5,5.2-0.6h0.8C581.7,332.5,580.5,326.1,578.4,320.7z M550.3,318.1c1.4,1.8,2.7,3.6,4,5.4c1.9-8.5,9.6-15.4,18.8-18.8
	h0.1c0.1,0,0.2,0.1,0.2,0.2c0.3,5.5,3.3,10.1,5.5,15.7c2.1,5.5,3.3,11.9,0.3,21.1c2.5,0,4.9,0.3,7.2,0.9c7.4-12.4,6.2-21.7,2.9-30.3
	c-0.1-0.3-0.2-0.6-0.3-0.8c0-0.1,0-0.1-0.1-0.1c-3.3-8.1-8.5-15.6-10.3-24.5c-2.7,2.8-5.4,5.1-8.2,7.1c-0.1,0.1-0.2,0.2-0.3,0.3
	c-3,2.2-5.8,4.2-8.4,6.3C556.4,304.6,552.2,309.4,550.3,318.1z M542.7,262.5c-3,3.5-5.3,7.8-5.9,11.9c1.9,1.8,3.8,3.7,5.6,5.6
	c0.8-3.8,2.8-7.8,6.8-10.7c0.1,0,0.1-0.1,0.1-0.1c0.1,0,0.2,0.1,0.2,0.2c-0.2,3.1,0.9,5.5,2.5,7.8c1.6,2.3,3.6,4.4,5.4,6.8
	c1.7,2.4,3.1,5,3.3,8.3c0.1,2.7-0.5,5.8-2.5,9.6c0.9-0.9,1.9-1.7,2.8-2.4c2.6-2.1,5.5-4.1,8.4-6.2c1.2-8.8-3-15-7.6-20.8
	c-4.4-5.6-9.1-10.7-9.3-17.2C549.1,256.5,545.5,259.1,542.7,262.5z M527.4,289.5c0.1,4.1-1.2,7.1-2.5,10.3c-1.3,3.3-2.7,7-2.3,12.7
	c0.9,1.2,1.6,2.6,2.2,4.2c2.8-5.9,5.8-11.7,8.1-17.5c0.1-0.2,0.3-0.3,0.5-0.3c0.2,0,0.4,0.1,0.5,0.2c0.4,0.5,0.9,1,1.3,1.5
	c-0.6-2.3-1.8-4.1-3.3-5.8C530.5,292.9,528.7,291.2,527.4,289.5z M559.3,332.6c1.2,2.8,2.1,5.7,2.4,8.7c0.2,1.6,0.3,3.1,0.3,4.7
	c3.2-1.7,6.6-3,10-3.7c2.3-7.3-1.9-15.4-3.3-22.1C564.6,324.9,560.6,328.5,559.3,332.6z M543.8,310.3c1.9-9.2-1.1-15.2-5.6-20.3
	c-4.6-5.2-10.7-9.5-14.6-15.2c-3.9,9.2-9.7,16.3-7.6,31.9c2.3,1.4,4.4,3,6.2,5.1c-0.1-5.3,1.1-8.9,2.4-12.1
	c1.4-3.5,2.8-6.5,2.4-10.9c0-0.2,0.1-0.3,0.3-0.3c0.1,0,0.2,0.1,0.2,0.1c1.3,1.9,3.3,3.7,5.1,5.8c1.7,2,3.2,4.2,3.6,7.1
	C538.7,304.5,541.3,307.4,543.8,310.3z M523.7,256.2c0.7,0,1.5,0.1,2.2,0.3c5.4,1.2,10.5,5.4,11.6,11.6c1.1-2.3,2.6-4.4,4.3-6.4
	c1.6-1.9,3.4-3.5,5.3-4.9c-2.8-5.1-9.9-8.7-17-8.8c-0.8,0-1.5,0-2.3,0.1c-3.9,0.4-7.9,2.3-10.8,5.3c-2.5,2.5-4.1,5.7-4.3,9.4
	c1.1-2.5,2.8-4.3,4.8-5.3C519.3,256.5,521.5,256.1,523.7,256.2z M537,269.1c-0.7-6.4-5.8-10.8-11.2-12c-1.1-0.2-2.1-0.3-3.2-0.3
	c-0.3,0-0.6,0-1,0.1c1.2,0.1,2.4,0.5,3.4,1.1c1.6,0.9,2.9,2.4,3.6,4.1c0.6,1.5,0.6,3.2-0.1,4.7c2.3,2.3,4.7,4.5,7.1,6.6
	C535.9,272,536.4,270.5,537,269.1z M512,304.4c1.2,0.6,2.3,1.2,3.4,1.9c-1.9-15.6,4-22.8,7.8-32.1c0-0.1,0.1-0.1,0.2-0.1
	c0.1,0,0.1,0.1,0.2,0.1c3.9,5.8,10.1,10.1,14.8,15.5c4.6,5.3,7.8,11.5,5.7,21c1.8,2.1,3.6,4.2,5.3,6.3c0.2-0.8,0.4-1.7,0.7-2.5v0
	c2.9-16.5-1.6-25.7-8.2-33.2c-1.9-2.1-3.9-4.2-6.1-6.2c-0.1,0-0.1-0.1-0.1-0.1c-5.1-4.7-10.6-9.4-14.8-15.7
	c-2.4,7-6.2,13.3-9.4,19.7c-3.3,6.7-5.9,13.7-5.4,22.2C508,302.3,510,303.3,512,304.4z M476.9,421.4c-0.3,0-0.5,0-0.8,0
	c-0.3,1.3-0.6,2.6-1,3.9L476.9,421.4z M562.1,392.4c6.3-0.4,12.6-2.6,18.5-2.5c-0.6-3.2-1.6-6.3-4.3-9c-2.2,1.5-4.6,2.8-7.5,3.8
	c-6.1,2-13.9,2.5-24.4,0.3v0.3C550,391.6,556.1,392.8,562.1,392.4z M587.2,381.7l-1.9-9.9c-0.7,1-1.5,1.9-2.2,2.8
	c-0.7,0.8-1.5,1.7-2.2,2.5C583.4,378.2,585.6,379.7,587.2,381.7z M560.8,399.6c-0.1,0-0.1,0-0.1,0l6.9,7.4c1.3-1.7,2.7-3.2,4.1-4.7
	l-3-3.7C565.9,399,563.3,399.4,560.8,399.6z M549.7,396.5c2.9,2,6.6,2.3,11,1.9c8.5-0.7,19.1-4,29-1.5c0.4-5-0.3-9-1.9-12.2
	c-1.6-3.2-4.3-5.5-8-6.9c-1,1-2.1,1.9-3.3,2.7c2.8,2.9,3.8,6.1,4.5,9.4c0,0.1-0.1,0.2-0.2,0.2c-5.8-0.1-12.2,2.1-18.7,2.5
	c-6,0.4-12.1-0.8-17.8-6.9c0,0.6,0.1,1.2,0.1,1.8C545.6,392.2,547.4,394.9,549.7,396.5z M572,402.1c1.8-1.7,3.6-3.3,5.7-4.7
	c-2.9,0.3-5.8,0.7-8.6,1.1L572,402.1z M566.2,361.9c0.9-1.2,2-2.3,3.6-3.2c-1.2-0.2-2.5-0.3-3.6-0.3c-2.4,0.1-4.7,0.6-6.5,1.6
	c-1.9,5.5-5,11.1-9.2,16.7c7.5-3.4,10.6-6.9,12.7-10.1C564.3,364.9,565.1,363.3,566.2,361.9z M552.8,346.3
	c-2.6-10.1-9.8-18.3-17.8-26.2c-7.9,12.6-12,24.4-11.1,35.1c0.9,10.2,6.3,19.4,17.5,27.4c0.1,0.1,0.3,0.1,0.4,0.2
	c-5.2-6.9-8.6-15.4-9.9-23.3c-1.4-8.5-0.5-16.4,3.2-20.8c0.1-0.1,0.2-0.1,0.2-0.1c0.1,0,0.2,0.1,0.3,0.1c3.6,7.6,8.2,11.4,10.7,17.2
	c2.4,5.5,2.6,12.7-2.1,26.2c0,0,0.1-0.1,0.1-0.1C553.5,367.5,555.3,356.1,552.8,346.3z M559.9,359.2c2.2-1,4.8-1.5,7.6-1.4
	c1.1,0.1,2.2,0.2,3.2,0.5c0.3,0.1,0.3,0.4,0.1,0.6c-1.9,0.9-3.1,2-4.1,3.4c-1,1.4-1.9,3-3,4.7c-2.2,3.4-5.7,7.2-14,10.7
	c-0.8,1-1.6,2-2.5,3c12.6,0.3,18.9-5.3,24.2-11.5c5.4-6.2,9.7-13,18.3-14.7c-3.8-3.3-8.6-4.5-13.4-4.6c-0.7,0-1.3,0-2,0.1
	c-5.2,0.3-10,1.8-12.9,3.3C561,355.2,560.5,357.2,559.9,359.2z M542.6,394c-0.1-0.5-0.1-0.9-0.2-1.4c-0.2,0.9-0.5,1.7-0.7,2.5
	C542,394.8,542.3,394.4,542.6,394z M543.2,383L543.2,383c5.1-14.1,4.9-21.3,2.5-26.8c-2.4-5.5-6.9-9.3-10.5-16.7
	c-3.2,4.2-4.1,11.7-2.7,19.9c1.3,8.1,4.9,16.8,10.3,23.6C542.8,383,543,383,543.2,383z M506,289.8c-1.5-0.4-2.9-1-4.3-1.5l3.1,10.3
	C504.8,295.4,505.3,292.5,506,289.8z M520,411.1c0.1,0,0.2,0,0.3,0.1c1.3-0.3,2.5-0.5,3.6-0.9c4.8-1.4,9.1-3.6,12.4-7.6
	c2.7-3.3,4.8-7.9,5.8-14.4c0-0.2,0-0.4,0-0.7c-2.8,6.5-7,10.5-12,13.1c-5.8,3.1-12.5,4.4-19.2,5.7c-0.2,0.1-0.3-0.1-0.2-0.3
	c1.7-3.8,0.7-8.4,0.5-12.7c-0.1-2.1-0.1-4.2,0.6-6c0.5-1.2,1.2-2.3,2.4-3.2c-3.8,0.8-7.2,1.4-10.2,1.5c-1.2,1.7-1.6,3.5-1.7,5.3v0.9
	c0,2.3,0.5,4.7,0.8,7.3c0.4,4.6,0.1,9.8-5.1,15.4c6.3-2.1,14.3-2.2,21.6-3.6C519.6,411.2,519.8,411.1,520,411.1z M549,397.5
	c-1.6-1.1-3-2.8-4.1-5c0,0-0.1,0.1-0.1,0.1c0.1,0.6,0.1,1.2,0.2,1.8l18.6,18.8c1.1-2,2.3-4,3.7-5.8l-7.1-7.7
	C556,400,552.1,399.6,549,397.5z M503.3,414.8c-0.2,0.3-0.3,0.7-0.4,1.1c4.4,0.8,8.7,1.8,12.9,3.1c1-2.1,1.9-4.3,3-6.3
	C513.5,413.5,508.1,413.9,503.3,414.8z M502.1,415.7c0.1-0.3,0.2-0.6,0.3-0.8c-0.7,0.1-1.5,0.3-2.2,0.5
	C500.8,415.5,501.5,415.6,502.1,415.7z M496.6,292c0.6,1,1.2,1.9,1.9,2.8l0.7-0.5c0,0,0.1-0.1,0.1-0.1c0.1,0,0.1,0.1,0.2,0.1
	l0.7,2.4c1.4,1.4,3,2.6,4.6,3.7c0-0.1,0-0.3,0-0.4l-3.6-11.9c-0.1,0-0.1-0.1-0.2-0.1l-4.9,3.7C496.3,291.7,496.5,291.8,496.6,292z
	 M512.1,387.7c-0.7,1.7-0.7,3.7-0.6,5.8c0.2,4.1,1.2,8.7-0.4,12.5c6.6-1.3,13.2-2.6,18.8-5.6c5.1-2.7,9.4-6.9,12.1-13.7
	c0-0.8,0-1.6-0.1-2.5c-0.9-0.4-1.8-0.9-2.7-1.3c-0.2-0.1-0.4-0.1-0.6-0.1c-1.6,0.3-2.8,1.3-3.9,2.7c-1.2,1.6-2.2,3.6-3.3,5.6
	c-1.1,2-2.3,3.9-3.9,5.3c-1.7,1.3-3.8,2.1-6.7,1.7c-0.2,0-0.3-0.3-0.2-0.4c0.9-1.3,1-3,0.9-4.7c-0.1-1.8-0.3-3.7-0.2-5.5
	c0.1-1.8,0.7-3.4,2.2-4.6c0.2-0.1,0.4-0.3,0.6-0.4c-2.7,0.4-5.3,1-8,1.6c-0.4,0.1-0.8,0.2-1.3,0.3
	C513.6,385.2,512.7,386.4,512.1,387.7z M558.5,432.2L529,416.7c-1,1.9-1.9,3.9-2.7,6c2.1,0.9,4.2,1.8,6.2,2.8
	c6.7,2.9,13,6.2,18.9,9.8l7.3,3C558.5,436.2,558.4,434.2,558.5,432.2z M590.9,391.2c0.2,2,0.2,4.2,0,6.5c-0.1,0.3-0.4,0.6-0.8,0.5
	c-3.6-1-7.5-1.2-11.3-1c-9.9,6.5-16.7,16.7-18.9,28.1c2.5,2.6,5.1,4.9,7.8,7.2c0.1-11.5,6.1-23.4,19.2-30c1.7-0.9,3.5-1.6,5.3-2.2
	c0.8-3.3,1.6-6.6,2.2-9.9C593.2,390.7,592,390.9,590.9,391.2z M549.7,410.8c2.6,5.5,5.9,10,9.7,14c0.4-1.7,0.8-3.3,1.3-4.9
	L549.7,410.8z M553.3,436.5c1.9,1.2,3.8,2.5,5.6,3.8c-0.1-0.5-0.1-1-0.2-1.6L553.3,436.5z M522.1,387.4c-0.2,1.7,0.1,3.6,0.2,5.4
	c0.1,1.7-0.1,3.3-0.8,4.6c2.5,0.3,4.3-0.3,5.8-1.5c1.5-1.3,2.7-3.1,3.8-5.1c1.1-2,2.1-4,3.4-5.7c0.9-1.1,1.9-2.1,3.2-2.6
	c-2.6-0.6-5-0.8-7.4-0.7c-1.2,0-2.4,0.1-3.5,0.2c-1.1,0.3-2,0.7-2.6,1.2C522.7,384.3,522.2,385.7,522.1,387.4z M524.2,411.4
	c-1.2,0.3-2.5,0.7-3.7,0.9c-1.2,2.3-2.3,4.6-3.4,7.1c2.9,0.9,5.7,1.9,8.4,3c2.3-5.5,5-10.7,7.9-15.4
	C530.7,409.1,527.5,410.5,524.2,411.4z M501.8,399.6c-0.2-2-0.6-4-0.7-6c-3.6,6.9-6.6,13.9-8.8,20.8c1.3,0.1,2.7,0.3,4,0.4
	C501.9,409.2,502.2,404.3,501.8,399.6z M495.5,292.1L485,300c1.6,0.4,3.3,0.7,5.1,1l3.4-2.6C494.4,296.4,495,294.3,495.5,292.1z
	 M493.3,299.2l-2.6,1.9c0.6,0.1,1.1,0.1,1.7,0.2C492.7,300.6,493,299.9,493.3,299.2z M489.4,279.3l-4.3,20.1l15.5-11.7
	C496.1,285.6,492.3,282.8,489.4,279.3z M498.7,295c0.3,0.3,0.6,0.7,0.9,1l-0.4-1.4L498.7,295z M493.7,322.2
	c1.9-4.8,4.8-8.9,6.3-13.8c0-0.1,0.1-0.1,0.2-0.1c0.1,0,0.2,0,0.2,0.1c2.3,3.3,7.1,5.1,11.4,7.5c4,2.2,7.7,5,8.7,10
	c1.1-2.6,2.3-5.1,3.6-7.7c-2.1-6.8-7.1-9.8-12.7-12.8c-2-1.1-4.1-2.1-6.1-3.4c-0.1,0-0.2-0.1-0.2-0.2c-3.3-2-6.4-4.5-8.7-8.2
	c-2.2,8.3-6.8,15.4-10,22.6c-1.5,3.3-2.6,6.6-3,10.1c0.1,0.2,0.1,0.6-0.1,0.8c0,0.4-0.1,0.9-0.1,1.3c0,0,0,0,0,0.1
	c-0.2,3.7,0.6,7.7,2.6,12c2.9-0.8,5.6-1.4,8.2-1.7C491.2,332,491.9,326.8,493.7,322.2z M523.4,355.2c-0.9-10.9,3.3-22.8,11.3-35.6
	c0-0.1,0.1-0.1,0.1-0.1c0.1,0,0.1,0,0.2,0.1c8.2,8,15.5,16.3,18.1,26.6c2.4,9.4,0.9,20.4-7.3,34.1c9.9-11.4,14.7-22.4,15-33.3v-0.1
	c0-1.8-0.1-3.7-0.3-5.5c-1.6-13.8-14.3-26.2-26.8-40.9c-2.5,6-5.5,12-8.4,18c-4.3,8.9-8.3,17.7-9.6,26.1c-0.1,0.4-0.1,0.8-0.2,1.2
	c0,0.1,0,0.1,0,0.2c-0.8,6.7,0.1,13.1,3.9,19.2c3.6,5.7,9.9,11.3,19.8,16.3C529.2,373.9,524.2,365,523.4,355.2z M502.8,329.8
	c0.5-2.6,1.6-4.6,2.1-7c0-0.1,0.1-0.2,0.3-0.2c0.1,0,0.2,0,0.2,0.1c2,3,4.8,4.5,7.2,6.6c1.9,1.7,3.3,3.9,3.7,7.5
	c1-3.4,2.4-6.9,3.9-10.3c-0.8-5.2-4.5-8-8.6-10.3c-4.2-2.3-8.9-4.1-11.4-7.4c-1.6,4.8-4.4,8.9-6.2,13.5c-1.8,4.6-2.5,9.7,0.2,16.6
	c0.8-0.1,1.5-0.2,2.3-0.2c1,0,1.9-0.1,2.9,0c1.5,0.1,2.9,0.2,4.2,0.5C502.3,335,502.3,332.2,502.8,329.8z M501.5,358.1
	c-0.1-0.2,0.1-0.4,0.3-0.4c0,0,0,0,0.1,0c2.7,0.6,5.5,0.8,8.1,1.2c2.1,0.3,4.1,0.8,5.8,1.8c-1-2.6-1.5-5.2-1.7-7.8
	c-3.2-3.3-6.8-4.3-10.7-4.4c-0.6,0-1.2,0-1.8,0.1c-4.7,0.3-9.6,1.8-14.3,2.7c4.6,15.6,10.8,23.6,17.8,27.6c4.8,2.7,9.8,2.3,15.1,1.7
	c4.2-0.5,8.5-1.1,13-0.4c-6.6-2.2-12-3.3-16.8-5.4C510.9,372.1,506.2,367.8,501.5,358.1z M502.3,358.4c4.5,9.2,9,13.2,14.4,15.7
	c4.5,2.1,9.7,3.1,15.9,5.1c-6.7-4.2-11.3-8.7-14.3-13.4c-0.9-1.4-1.6-2.8-2.2-4.3c-1.8-1.2-3.9-1.8-6.2-2.1
	C507.5,359.1,504.9,358.9,502.3,358.4z M514.5,344.4c0.3-1.9,0.7-3.9,1.3-5.8c0.1-4.6-1.5-7-3.6-8.9c-2.1-2-4.8-3.5-6.9-6.3
	c-0.6,2.3-1.5,4.2-1.9,6.5c-0.5,2.4-0.5,5.2,1,9.4c3.9,0.9,7.3,2.7,10.1,5.3C514.5,344.6,514.5,344.5,514.5,344.4z M479.6,494
	c-2.3,6.7-7.1,12.3-10.3,18.4c-2.8,5.3-4.4,11-2.6,18.2c2.9-0.9,5.7-1.9,8.6-3c0.4-1.4,1-2.7,1.6-3.9c2.1-4.3,4.8-8.1,5.1-12.3
	c0-0.1,0.2-0.3,0.3-0.3c0.1,0,0.3,0.1,0.3,0.2c1.2,4.7,3.4,8,5.7,10.8c4-1.9,8-3.8,11.9-6c-1.4-2.5-3.1-4.6-4.9-6.5
	C490.1,504.4,483.7,500.4,479.6,494z M477.4,524c-0.5,1.1-1,2.2-1.4,3.4c4-1.5,7.9-3.1,11.7-4.9c-2.1-2.6-4-5.6-5.3-9.7
	C481.7,516.6,479.3,520.1,477.4,524z M532.1,636.8c0.8-3.3,1.6-6.5,2.7-9.7c1.9-5.5,4.8-10.7,10.7-15.7c6.1-5.1,13.2-7,19.9-6.7
	c0.6,0,1.1,0.1,1.7,0.1c0.2-0.4,0.3-0.7,0.5-1.1c-1.3-0.3-2.6-0.5-3.9-0.5c-1.7,0-3.5,0.2-5.4,0.6c-4.2,0.8-8.6,2.4-13,3.6
	c-1.6,0.4-3.1,0.8-4.7,1c-3,4.4-6.5,8.7-10.3,13C531.5,626.8,532.1,631.9,532.1,636.8z M499.1,502.8c-6.2-5.4-14.1-10.6-20.1-20.3
	c-4.9,8-11.5,15.6-16.1,23.6c-4.7,8.1-7.3,16.6-3.7,26.6c0.1,0,0.2,0,0.4,0c2.3-0.6,4.6-1.3,6.8-2c-1.9-7.4-0.2-13.2,2.6-18.5
	c3.3-6.4,8.2-12,10.4-18.8c0-0.1,0.1-0.1,0.2-0.1c0.1,0,0.1,0,0.1,0.1c4.1,6.6,10.6,10.5,15.8,16c1.9,2,3.6,4.1,5,6.6
	c2-1.1,4-2.2,5.9-3.4c0.2-0.1,0.4-0.2,0.6-0.4C505.2,508.6,502.4,505.7,499.1,502.8z M442.8,536.6c4.7-0.9,9.3-1.9,13.9-3.1
	c-5.5-0.7-10.7-1.2-15.5-3.3C441.9,532.4,442.4,534.5,442.8,536.6z M444,553.9c0.7,7.8,2.7,15.2,11.9,22.6c2.6-1,5.1-1.7,7.7-2.1
	c-7.3-6.8-9.3-13-9.9-18.8c0-0.2,0-0.4-0.1-0.6c-3.2-1.3-6.5-2.6-9.8-3.9C443.9,551.9,443.9,552.9,444,553.9z M450.4,584.4
	c0.1,0,0.3,0.1,0.4,0.3c4.3,3.5,6.8,8.2,9.6,12.8c2.6,4.3,5.5,8.5,10.4,11.7c0.1,0,0.2,0.1,0.3,0.2c1.7,1.1,3.6,2,5.9,2.8
	c4.6,1.6,11.6,1.3,18.9-1c6.8-2.1,13.9-6.1,19.4-11.9c-2.6,0.1-5.1,0-7.3-0.2c-9.1,6.1-19.6,8.1-26.1,7.2c-7.1-1-10.9-5.3-13.9-9.9
	c-3-4.7-5.1-9.8-9-12.6c-0.1-0.1-0.1-0.3,0-0.3c3.9-1.7,8.1-2.6,12.2-2.8c3.8-0.1,7.4,0.4,10.8,1.4c-0.7-2-1.1-4.1-1.3-6.3
	c-3.4-0.5-6.7-0.8-10.1-0.8c-7.7,0-15.4,1.9-23.1,7.7C448.6,583.1,449.6,583.7,450.4,584.4z M524.7,474.2c-0.2,0-0.4-0.1-0.4-0.3
	c-9.1-6.3-19.4-10.8-30.7-12.9c-0.2,0.1-0.4,0.1-0.5-0.1c-4.5-0.8-9.2-1.2-14.1-1.2c-5.4,0-11,0.6-16.7,1.7
	c-1.8,3.8-3.7,7.3-5.6,10.7c5.8-1.5,12.2-2.3,19-2.2c4.1,0,8.3,0.4,12.7,1.1c16,2.5,30.9,11.6,42.1,24.7c3.2-2.6,6.2-5.2,9.2-8
	C535.2,482.7,530.2,478.1,524.7,474.2z M488.3,471.5c-4.4-0.7-8.6-1-12.7-1.1c-6.9-0.1-13.4,0.8-19.3,2.3
	c-3.3,5.6-6.8,10.7-10.6,15.4c6.5-2.6,13.8-4,21.4-4.1c3,0,6.1,0.2,9.2,0.6c0.7-1.1,1.5-2.3,2.2-3.5c0.1-0.2,0.3-0.3,0.6-0.3
	c0.2,0,0.4,0.1,0.5,0.3c1,1.7,2.1,3.3,3.2,4.7c12.4,3,24.3,9.8,33.1,20.8c5-3.3,9.7-6.9,14.3-10.6
	C519,483.1,504.2,474.1,488.3,471.5z M457.1,516.7c-1.9-1-3.9-1.4-5.9-1.4c-1.7,0-3.3,0.4-4.9,1c-3,1.3-5.4,3.9-6.2,7.7
	c1.9-2.2,4.1-3.3,6.2-3.4c2.5-0.1,4.8,1.1,6.1,3.1c1.5,2.3,1.6,5.4,0.7,8.2c1.6,0.2,3.1,0.4,4.8,0.6
	C455.9,526.9,455.9,521.6,457.1,516.7z M483.9,487.3c5.2,6.2,11.1,10.3,16,14.6c3.3,2.9,6.2,5.9,8.1,9.7c2.3-1.4,4.6-2.9,6.9-4.4
	C506.6,496.9,495.5,490.4,483.9,487.3z M443.7,508.8c-4.4,3.6-6.6,9.2-4.3,15.5c0.8-4.2,3.4-7.1,6.7-8.5c1.8-0.8,3.8-1.2,5.9-1.1
	c1.8,0.1,3.6,0.6,5.3,1.4c0.9-3.4,2.3-6.6,4.1-9.8c-2.3-0.9-4.6-1.4-6.9-1.4C450.4,505,446.6,506.4,443.7,508.8z M505.3,625.8
	c0.9,0.8,1.7,1.7,2.5,2.6c6.6-5.3,12.3-10.9,17.2-16.5c-1.1-3.1-2.5-6.4-4.1-9.7c-0.2,6.9-2,11.8-4.7,15.3
	C513.2,621.7,509.1,624,505.3,625.8z M457.7,595.3c-2.2-3.6-4.3-7.1-7.6-9.7c-3.2,0.8-6.4,1.5-9.5,1.9c3.2,3.1,5.2,7.4,6,11.7
	c0.8,4.2,0.5,8.5-0.9,11.8c3.2-0.9,6.5-1.5,10.1-1.9C458.2,604.7,458.8,599.9,457.7,595.3z M549.9,476.5c-0.1-0.1-0.4-0.2-0.8-0.2
	c-0.1,0-0.3,0-0.4,0.1c-0.7,0.1-1.6,0.5-2.8,1.1c-2.3,1.1-5.5,3-9.5,5.8c1.3,1.3,2.5,2.7,3.8,4.1c3.5-3.2,6.8-6.6,10-10.1
	c0-0.1,0-0.3,0-0.4C550.1,476.7,550,476.6,549.9,476.5z M466.7,608.8c0.6,0,1.2,0.1,1.8,0.1c-4.2-3.1-6.8-7-9.1-10.9
	c-0.3-0.6-0.7-1.2-1-1.7c0.7,4.3,0.1,8.7-2.1,12.8c2-0.2,4.1-0.3,6.3-0.3C463.9,608.8,465.3,608.8,466.7,608.8z M529.2,416.4
	l29.3,15.4c0.1-1.4,0.2-2.7,0.4-4c-1-1-2-2.1-3-3.3l-22.8-15.3C531.7,411.5,530.4,413.9,529.2,416.4z M529,607.2
	c-1.6-0.7-3.1-1.7-4.6-3c0.9,1.9,1.7,3.8,2.4,5.7C527.6,609,528.3,608.1,529,607.2z M496.3,612.2c-2.8,0.9-5.5,1.5-8.1,1.8
	c-1.9,4.6-1.5,9.4,0.9,13.6c1.5-3.5,3.9-5.6,6.6-7.1c2.8-1.5,6-2.3,8.8-3.4c2.9-1.1,5.5-2.4,7.3-4.8c1.7-2.3,2.7-5.5,2.5-10.5
	C509,606.9,502.6,610.3,496.3,612.2z M480.2,588.9c-2.1,0.2-4.3,0.3-6.9-0.4c1.7,4.5,5.3,7.9,10,9.6c4.6,1.6,10.3,1.7,16.4-0.4
	c-1.6-0.4-3.1-1-4.5-1.6c-3.9-1.7-6.9-4.1-9.2-6.9C484.1,588.5,482.2,588.7,480.2,588.9z M459.5,583.7c3.9,2.9,6,8,8.9,12.5
	c2.9,4.6,6.6,8.8,13.6,9.8c6.2,0.9,16.5-1.1,25.4-6.9c-2.4-0.2-4.5-0.6-6.6-1c-6.5,2.4-12.7,2.4-17.6,0.6
	c-5.1-1.8-8.9-5.5-10.6-10.4c-0.1-0.2,0.1-0.4,0.3-0.4h0.1c2.8,0.9,5,0.7,7.2,0.5c1.8-0.2,3.5-0.3,5.3,0.1c-1-1.3-1.9-2.8-2.6-4.3
	c-0.3-0.5-0.5-1-0.7-1.6c-2.9-0.9-6.1-1.4-9.3-1.5C468.4,581,463.8,581.8,459.5,583.7z M479.1,613.8c-0.8-0.1-1.7-0.3-2.4-0.6
	c-1.6-0.6-3-1.2-4.3-1.8l-2.6,12.7c2.6,0.6,5.1,1.3,7.4,2.2l1.6-3.6C478.5,619.8,478.6,616.8,479.1,613.8z M477.6,626.4
	c0.7,0.3,1.3,0.6,2,0.8c-0.3-1.2-0.6-2.5-0.7-3.8L477.6,626.4z M470.4,610.3c-1.3-0.1-2.5-0.3-3.8-0.3c-1.4-0.1-2.7-0.1-4.1-0.1
	c-0.3,0-0.5,0-0.7,0v13.3c2.6,0,5.1,0.3,7.6,0.8l2.6-12.8C471.4,610.9,470.9,610.6,470.4,610.3z M530.2,620.7
	c3.6-4,6.8-8.1,9.7-12.2c-2.6,0.3-5.2,0.3-7.7-0.3c-0.9-0.2-1.8-0.5-2.7-0.9c-0.8,1-1.6,2-2.4,3
	C528.3,613.8,529.4,617.3,530.2,620.7z M509.7,200.6c-4.6,0.8-9.2,1.9-13.7,3.4l10.5,8.2L509.7,200.6z M568.7,433.5
	c0.1,0,0.1,0.1,0.1,0.1c2.6,2.2,5.2,4.3,7.9,6.4c0.8-1.5,1.6-3.1,2.4-4.6c-0.3-1.5-0.3-3.1-0.2-4.7c0.5-5.1,2.9-10.3,6.7-14.4
	c0.8-0.9,1.7-1.7,2.6-2.5c1.4-4.1,2.6-8.2,3.7-12.3c-1.6,0.5-3.1,1.2-4.6,2C574.3,410.1,568.6,422,568.7,433.5z M580.2,430.7
	c-0.1,0.9-0.1,1.8,0,2.6c2.8-5.6,5.2-11.4,7.3-17.3c-0.3,0.3-0.6,0.6-0.9,0.9C582.9,420.9,580.6,425.9,580.2,430.7z M536,483
	c4.1-2.8,7.3-4.8,9.6-5.9c1.2-0.6,2.2-1,2.9-1.1c0.4-0.1,0.7-0.1,1-0.1c0.3,0,0.5,0.1,0.7,0.3c0.2,0.1,0.2,0.3,0.2,0.6
	c2.7-3,5.4-6.1,7.9-9.2l-32.9,6.4C529.3,476.7,532.8,479.7,536,483z M572.2,447.8c0.3-0.5,0.7-1,1-1.6c0.8-1.4,1.6-2.8,2.4-4.2
	c-2.2-1.8-4.4-3.6-6.7-5.4C569.3,440.6,570.5,444.4,572.2,447.8z M483.5,209.2c-3.4,1.8-6.8,3.8-10,6.1c-1.2,0.9-2.3,1.7-3.4,2.6
	l15.7,5.8L483.5,209.2z M549.3,410l11.5,9.5c0.7-2.1,1.6-4.1,2.6-6L545.1,395C545.9,400.8,547.4,405.7,549.3,410z M538.6,401.7
	c-0.4,0.6-0.9,1.2-1.3,1.8c-0.6,0.7-1.2,1.3-1.8,1.9c-0.7,1.1-1.4,2.3-2.2,3.5l21.8,14.5c-3.6-4.4-6.8-9.5-9.1-15.7L538.6,401.7z
	 M567.3,435.3c-2.7-2.2-5.4-4.6-7.9-7.1c-0.5,4.1-0.5,8.3,0.2,12.5c4,2.9,7.7,5.9,11.3,9.1c0.2-0.4,0.4-0.7,0.7-1.1
	c-2.1-3.9-3.4-8.4-3.8-13C567.6,435.6,567.5,435.5,567.3,435.3z M492.7,233.7l-26.4-9.8l19.1,20.5
	C487.2,240.7,489.6,237,492.7,233.7z M489,206.6c-1.8,0.8-3.5,1.6-5.2,2.5l2.3,14.9c0,0.1-0.1,0.2-0.2,0.2l-16-5.9
	c-1.7,1.4-3.3,2.8-4.7,4.3v0l27.9,10.3L489,206.6z M504.3,224.4c1.5-0.8,3-1.7,4.6-2.4l-19-14.6l3.8,25.1
	C496.7,229.6,500.2,226.8,504.3,224.4z M478.2,438.5c-0.2-0.5-0.4-0.8-0.6-1c-0.2-0.2-0.4-0.3-0.5-0.3c-0.2,0-0.4,0.1-0.6,0.3
	c-0.2,0.2-0.4,0.6-0.7,1c-0.4,0.9-0.9,2.3-1.3,4.2c-0.7,3.7-1.3,9.3-1.3,16.6c2.3-0.1,4.6-0.2,6.9-0.2c0.2-7.4-0.2-13-0.8-16.6
	C479,440.7,478.7,439.4,478.2,438.5z M518.1,428.5C518.1,428.5,518,428.6,518.1,428.5l-20.4,15.9c-0.3,0.2-0.8,0.1-0.9-0.3
	l-8.7-22.4v-0.1c-2.5-0.2-5.1-0.3-7.6-0.3h-2.2l15.4,38.7l32.5-28C523.5,430.7,520.8,429.5,518.1,428.5z M516.8,428
	c-8.7-3.3-17.9-5.4-27.6-6.2l8.2,21.2L516.8,428z M552.9,451c3.4,3.6,6.5,7.5,9.4,11.6c0.2-0.2,0.4-0.5,0.6-0.7
	C559.7,458,556.4,454.3,552.9,451z M558.2,458.9l-23.4,3.5c-0.4,0.1-0.7-0.2-0.7-0.6l1-24.8c0,0,0,0,0,0c-2.5-1.6-5.1-3-7.8-4.4
	l-2.1,40.8l34-6.7c0.9-1.1,1.7-2.2,2.5-3.3c-1.1-1.5-2.2-3.1-3.3-4.6C558.3,458.8,558.2,458.9,558.2,458.9z M538.5,439.3
	c-0.3-0.2-0.6-0.4-0.9-0.6c-0.4-0.3-1-0.6-1.4-0.9l-0.9,23.4l22.2-3.3C552,450.9,545.7,444.7,538.5,439.3z M516.4,420.3
	c-0.2,0.1-0.5,0-0.7-0.2c-5.8-1.8-11.9-3.1-18.1-3.9v0c-0.6,0.2-1.2,0.5-1.8,0.7c-0.6,0.3-1.2-0.5-0.7-0.9c0,0,0.1-0.1,0.1-0.1
	c-1.2-0.1-2.5-0.3-3.7-0.4c-0.1,0-0.1,0-0.2,0c-3.6-0.3-7.2-0.4-10.8-0.4c-1,0-1.9,0-2.9,0c-0.4,1.8-0.8,3.5-1.2,5.3
	c0.3,0,0.6,0,0.9,0c22.8-0.5,43.5,5.9,60.9,17.5c0.2,0.1,0.5,0.3,0.7,0.5c0,0,0.1,0,0.1,0.1c0.1,0,0.1,0.1,0.2,0.1
	c9,6.1,17.2,13.7,24.3,22.5c1.6-2.2,3.1-4.4,4.7-6.7C554.3,438.6,536.8,426.7,516.4,420.3z M518.7,450.9c0-0.4-0.1-0.7-0.2-0.9
	c-0.1-0.2-0.2-0.3-0.4-0.4c-0.1,0-0.1-0.1-0.3-0.1c-0.3,0-0.7,0.2-1.3,0.6c-0.7,0.5-1.6,1.4-2.6,2.6c-2.1,2.4-4.7,6.1-7.9,11.2
	c2.8,1,5.6,2.2,8.3,3.5c0,0,0-0.1,0-0.1c2.1-5.7,3.4-10,4-13C518.7,452.8,518.8,451.6,518.7,450.9z M568.7,453.3
	c0.6-0.9,1.1-1.7,1.7-2.6c-7.4-6.7-15.7-12.6-24.9-17.8C554.1,438.7,561.9,445.5,568.7,453.3z M505.7,463.7
	C505.7,463.7,505.7,463.7,505.7,463.7c3.2-5.1,5.9-8.9,7.9-11.3c1-1.2,1.9-2.1,2.7-2.6c0.7-0.6,1.4-0.8,1.9-0.6
	c0.3,0.1,0.4,0.3,0.6,0.6c0.1,0.3,0.2,0.6,0.3,1c0.1,0.8,0,2-0.3,3.5c-0.6,3-1.9,7.3-4,13c0,0.1-0.1,0.1-0.1,0.1
	c3.3,1.7,6.6,3.6,9.7,5.7l2.1-40.4l-32.2,27.8C498.1,461.3,502,462.4,505.7,463.7z M540.7,397.7c-0.6,1.3-1.2,2.5-1.9,3.6l6.8,5.7
	c-1.3-3.6-2.2-7.5-2.9-11.9C542.1,395.9,541.4,396.8,540.7,397.7z M371.8,508.7c-2.1,0-3.7,1.6-3.7,3.6c0,2,1.7,3.6,3.7,3.6
	c2.1,0,3.7-1.6,3.7-3.6C375.5,510.3,373.8,508.7,371.8,508.7z M387.9,554.8c2.4,0,4.3-1.9,4.3-4.2c0-2.3-1.9-4.2-4.3-4.2
	c-2.4,0-4.3,1.9-4.3,4.2C383.6,552.9,385.5,554.8,387.9,554.8z M369.6,525.3c0,2.1,1.8,3.9,4,3.9c2.2,0,4-1.7,4-3.9
	c0-2.1-1.8-3.9-4-3.9C371.4,521.5,369.6,523.2,369.6,525.3z M469.9,197.5l-3.4-4.1c-1.2,1-2.4,2.1-3.5,3.1c-1.1,1-2.1,2-3.1,3.1
	l3,2.9C465.2,200.7,467.5,199,469.9,197.5z M379.5,542.2c2.4,0,4.3-1.9,4.3-4.2c0-2.3-1.9-4.2-4.3-4.2c-2.4,0-4.3,1.9-4.3,4.2
	C375.2,540.4,377.1,542.2,379.5,542.2z M375,500.8c0,1.8-1.5,3.3-3.4,3.3c-1.9,0-3.4-1.5-3.4-3.3c0-1.8,1.5-3.3,3.4-3.3
	c0.2,0,0.4,0,0.6,0.1c-1.9-1.7-3.8-3.4-5.6-5.4c-3.4,11.7-3.8,23.3-1.6,34c7.1,34.7,41.1,60.2,87.2,48.5c-4.5-4.4-6.8-8.9-8.1-13.4
	c-24.8,2.3-43.3-7.5-54.2-22.6c-7.5-10.3-11.4-23.2-11.3-36.3c-1.2-0.8-2.5-1.7-3.7-2.7C374.9,500,375,500.4,375,500.8z M442,565.1
	c2.2,0,4.1,1.8,4.1,3.9c0,2.1-1.8,3.9-4.1,3.9c-2.2,0-4-1.8-4-3.9C437.9,566.9,439.7,565.1,442,565.1z M428.5,565
	c2.3,0,4.2,1.9,4.2,4.1c0,2.3-1.9,4.1-4.2,4.1c-2.3,0-4.2-1.8-4.2-4.1C424.3,566.8,426.2,565,428.5,565z M414.1,561.9
	c2.6,0,4.7,2,4.7,4.6c0,2.5-2.1,4.6-4.7,4.6c-2.6,0-4.8-2.1-4.8-4.6C409.3,564,411.4,561.9,414.1,561.9z M400.3,555.6
	c2.6,0,4.8,2.1,4.8,4.6c0,2.5-2.1,4.6-4.8,4.6c-2.6,0-4.7-2.1-4.7-4.6C395.6,557.6,397.7,555.6,400.3,555.6z M387.9,546
	c2.6,0,4.7,2.1,4.7,4.6c0,2.6-2.1,4.6-4.7,4.6s-4.7-2-4.7-4.6C383.2,548,385.3,546,387.9,546z M384.2,538c0,2.5-2.1,4.6-4.7,4.6
	c-2.6,0-4.7-2.1-4.7-4.6c0-2.5,2.1-4.6,4.7-4.6C382.1,533.4,384.2,535.5,384.2,538z M378,525.3c0,2.4-2,4.2-4.4,4.2
	c-2.4,0-4.4-1.9-4.4-4.2c0-2.4,2-4.3,4.4-4.3C376.1,521.1,378,523,378,525.3z M371.8,516.3c-2.3,0-4.2-1.8-4.2-4c0-2.2,1.9-4,4.2-4
	c2.3,0,4.1,1.8,4.1,4C375.9,514.5,374.1,516.3,371.8,516.3z M425.3,531.7c-3.3-5.1-4.2-11.5-3.4-16.3c0.6-3.6,1.8-6.9,3.4-9.9
	c-2.8,1.5-5.8,2.6-8.7,3.5c-1.1,4.5-1.4,9-0.7,13.4c0,0,0,0,0,0.1c0,0.1,0.1,0.1,0.1,0.2c1.7,5.8,4.5,10.6,8.1,14.1
	c0.1,0,0.3,0.1,0.4,0.3l0,0.1c0.5,0.5,1,0.9,1.6,1.3c0.2,0.2,0.5,0.3,0.7,0.5c2-0.2,3.9-0.4,5.9-0.7
	C429.4,536.7,427,534.4,425.3,531.7z M483.2,369.2c3.4,8.4,7.2,12.7,12.1,14.5c5.1,1.9,11.7,1.1,20.7-1c6.1-1.4,12.4-2.8,19.5-1.8
	c-0.1,0-0.1-0.1-0.2-0.1c-5.3-1.3-10.3-0.6-15.1,0c-5.3,0.6-10.5,1-15.4-1.7c-7.2-4-13.5-12.2-18.1-28c0-0.1,0.1-0.2,0.2-0.3
	c4.8-0.8,9.8-2.4,14.6-2.7c4.5-0.3,8.8,0.5,12.4,4.1c-0.1-2.1,0-4.1,0.2-6.2c-4.1-4.2-9.4-6.3-16.3-6.3c-0.4,0-0.9,0-1.4,0
	c-4,0.2-8.4,1.1-13.3,2.7c0.2,4.2,0.3,8.5,0.3,12.8C483.5,360,483.4,364.6,483.2,369.2z M462.6,460.8c3.5-0.7,6.9-1.2,10.3-1.4
	c0.1-7.4,0.6-12.9,1.4-16.7c0.4-1.9,0.8-3.3,1.3-4.3c0.2-0.5,0.4-0.8,0.7-1.1c0.2-0.3,0.5-0.4,0.8-0.4c0.3,0,0.6,0.1,0.8,0.3
	c0.2,0.3,0.5,0.6,0.7,1.1c0.4,0.9,0.8,2.3,1.1,4.2c0.6,3.7,1,9.3,0.8,16.7c4.2,0.1,8.3,0.5,12.3,1.2l-15.2-38.5l-3.7,8.2
	c-0.3,1.1-0.6,2.1-0.9,3.2C469.9,443.4,466.5,452.5,462.6,460.8z M427.3,504.4c-2,3.3-3.5,7.1-4.2,11.2c-0.8,4.5,0.1,10.7,3.2,15.4
	c2,3.1,4.8,5.6,8.6,6.8c2.3-0.3,4.5-0.7,6.7-1.1c-0.2-1.1-0.4-2.3-0.7-3.4c-0.3-0.4-0.4-0.8-0.4-1.3v-0.1c-0.2-0.8-0.5-1.7-0.9-2.6
	c-0.1-0.3,0.1-0.8,0.5-0.8c0.1,0,0.2,0,0.3,0.1c0.7,0.4,1.6,0.7,2.4,1h0.1c0.6,0,1.1,0.2,1.6,0.6c2.3,0.7,4.8,1.1,7.4,1.5
	c0.8-2.6,0.7-5.4-0.6-7.4c-1-1.6-2.9-2.6-5-2.5c-2.1,0.1-4.4,1.3-6.3,4.3l-0.2-0.1c-0.1,0.2-0.4,0.2-0.5,0l-0.2,0.1
	c-3.3-7.2-1-13.9,4-17.9c3.1-2.6,7.2-4.1,11.5-4.1c2.4,0,4.9,0.5,7.3,1.5c3.9-6.8,9.3-13.2,13.7-19.8c-2.8-0.3-5.7-0.5-8.5-0.5
	c-8.2,0.1-16.2,1.7-23,4.9C438.8,496.2,433.2,501,427.3,504.4z M446.4,525.1c1.1,0,2,0.9,2,1.9c0,1.1-0.9,1.9-2,1.9s-2-0.9-2-1.9
	C444.4,526,445.2,525.1,446.4,525.1z M427,521.1c0-1.9,1.6-3.4,3.5-3.4c1.9,0,3.5,1.5,3.5,3.4c0,1.9-1.6,3.4-3.5,3.4
	C428.5,524.5,427,523,427,521.1z M434.1,533c-1.5,0-2.7-1.2-2.7-2.7c0-1.5,1.2-2.7,2.7-2.7c1.5,0,2.7,1.2,2.7,2.7
	C436.8,531.8,435.6,533,434.1,533z M433,513.2c-2.2,0-4.1-1.8-4.1-3.9c0-2.2,1.8-3.9,4.1-3.9c2.2,0,4.1,1.8,4.1,3.9
	C437.1,511.4,435.3,513.2,433,513.2z M458.2,491.1c2.7,0,5,2.1,5,4.8c0,2.6-2.2,4.8-5,4.8c-2.7,0-4.9-2.1-4.9-4.8
	C453.3,493.3,455.5,491.1,458.2,491.1z M443.2,494.9c2.5,0,4.6,2,4.6,4.4c0,2.4-2,4.4-4.6,4.4c-2.5,0-4.5-2-4.5-4.4
	C438.7,496.9,440.7,494.9,443.2,494.9z M342.9,466.9c-3-0.7-5-2.7-5.6-5c-0.6-2.3,0.1-4.8,2.4-6.3c1.1-0.8,2.3-1,3.4-0.8
	c0.1,0,0.1,0,0.2,0.1c-0.2-0.4-0.4-0.8-0.5-1.2c-1.6,1.1-3.8,1.6-6.4,1c-3-0.7-5.1-2.7-5.8-4.9c-0.7-2.2,0-4.7,2.3-6.3
	c1.1-0.8,2.3-0.9,3.4-0.8c1,0.2,2,0.7,2.6,1.4c0.1,0.1,0.2,0.2,0.3,0.3c-0.5-1.4-1-2.8-1.5-4.3c-1.2-1.1-2.4-2.2-3.6-3.2
	c1.3,3-0.4,7.3-5.4,8.3c-1.9,0.3-3.8,0.1-5.3-0.6c11.2,7.2,15.4,17.2,14.9,26.3c-0.6,10.9-7.7,20.5-17.5,22.8
	c-10.6,2.5-19.4-1.7-23-7.4c-0.1-0.2-0.3-0.4-0.4-0.6c0.7,1.7,0.7,3.3,0,4.6c-0.8,1.6-2.4,2.6-4.4,2.7c-1.4,0-2.6-0.5-3.4-1.3
	c-0.8-0.8-1.1-1.8-0.8-2.8c0.3-0.9,0.9-1.5,1.7-1.7c0.8-0.3,1.8-0.1,2.7,0.5c0.2,0.1,0,0.5-0.2,0.3c-0.8-0.6-1.6-0.7-2.3-0.5
	c-0.7,0.2-1.2,0.7-1.4,1.5c-0.3,0.9,0,1.8,0.7,2.5c0.7,0.7,1.8,1.2,3.1,1.1c1.9,0,3.3-1,4.1-2.4c0.7-1.5,0.7-3.3-0.6-5.3
	c-1.4-2.1-4.6-3.3-7.4-3c-2.6,5.1-2.7,11.4-0.1,17c0.6,1.4,1.3,2.6,2.2,3.8c-0.1-0.4-0.1-0.8-0.2-1.3c-0.4-5.8,3.9-9.5,8.2-10
	c3-0.4,6.1,0.9,7.7,3.2c1.3,2,1.4,4.1,0.6,5.6c-0.8,1.6-2.4,2.6-4.4,2.6c-1.4,0-2.6-0.5-3.4-1.3c-0.8-0.8-1.1-1.8-0.8-2.8
	c0.3-0.8,0.9-1.5,1.7-1.7c0.8-0.2,1.7-0.1,2.7,0.6c0.2,0.1,0,0.5-0.2,0.3c-0.8-0.6-1.6-0.7-2.3-0.5c-0.7,0.2-1.2,0.8-1.5,1.5
	c-0.3,0.9,0,1.7,0.7,2.4c0.7,0.7,1.8,1.2,3.1,1.2c1.9,0,3.4-1,4.1-2.4c0.7-1.4,0.7-3.3-0.6-5.3c-1.5-2.2-4.4-3.4-7.3-3
	c-4.2,0.5-8.3,4-7.9,9.6c0.1,0.9,0.1,1.5,0.4,2.3c4.2,5.4,10.5,8.5,17.5,9.3c2,0.2,4.1,0.3,6.2,0.2c-4.8-0.8-8.3-4.3-8.5-8.5
	c-0.4-5.8,3.9-9.5,8.2-10c3-0.4,6.1,0.9,7.7,3.2c1.3,2,1.4,4.1,0.6,5.6c-0.8,1.6-2.4,2.6-4.4,2.6c-1.4,0-2.6-0.5-3.4-1.2
	c-0.8-0.8-1.1-1.8-0.8-2.9c0.3-0.8,0.9-1.5,1.7-1.7c0.8-0.2,1.8-0.1,2.7,0.6c0.2,0.1,0,0.5-0.2,0.3c-0.8-0.6-1.6-0.7-2.3-0.5
	c-0.7,0.2-1.2,0.8-1.4,1.5c-0.3,0.9,0,1.7,0.7,2.4c0.7,0.7,1.8,1.2,3.1,1.2c1.9,0,3.3-1,4.1-2.4c0.7-1.4,0.7-3.3-0.6-5.3
	c-1.5-2.2-4.4-3.4-7.3-3c-4.2,0.5-8.2,4-7.9,9.6c0.3,4.6,4.6,8.2,10.3,8.3c5.5-0.6,11.1-2.4,16.4-5.2c-2.7,0-5.3-1-7.7-3.4
	c-1.8-1.8-2.8-4.7-2.5-7.5c0.3-2.8,1.9-5.5,5.5-6.5c0.6-0.2,1.2-0.3,1.8-0.3c1.7-0.1,3.2,0.3,4.3,1.2c1.5,1.1,2.2,2.9,2,4.8
	c-0.3,2.8-3.4,4.1-5.4,2.9c-0.9-0.5-1.4-1.2-1.5-2c-0.1-0.8,0.3-1.7,1.2-2.4c0.2-0.1,0.5,0.1,0.2,0.3c-0.8,0.6-1.1,1.4-1,2
	c0.1,0.7,0.5,1.3,1.3,1.8c1.8,1,4.5-0.1,4.8-2.6c0.2-1.8-0.5-3.5-1.9-4.5c-1.3-1-3.3-1.5-5.7-0.8c-3.4,1-5,3.5-5.2,6.2
	c-0.3,2.7,0.7,5.5,2.4,7.2c2.5,2.5,5.3,3.4,8.1,3.3c0.8-0.4,1.5-0.9,2.3-1.4c6-3.9,10.1-9.1,12.6-14.8c-3.6,3.5-10.1,3.7-13.6,0
	c-1.9-2-2.3-5-1.5-7.3c0.7-2.1,2.5-3.7,4.9-3.9c0.4,0,0.7,0,1.1,0c2.5,0.3,3.9,1.9,4.1,3.5c0.2,1.7-0.6,3.4-2.5,4
	c-0.9,0.3-1.8,0.1-2.4-0.5c-0.7-0.6-1-1.5-0.7-2.5c0.1-0.3,0.5-0.2,0.4,0.1c-0.2,1,0.1,1.7,0.6,2.1c0.5,0.5,1.3,0.6,2,0.4
	c1.7-0.5,2.5-2.1,2.2-3.6c-0.2-1.5-1.4-2.9-3.8-3.2c-2.9-0.3-4.8,1.4-5.6,3.6c-0.8,2.3-0.4,5.1,1.4,7c3.6,3.8,10.5,3.3,13.8-0.8
	c1.6-4.1,2.5-8.4,2.7-12.9c-1,1.8-2.9,3-5.1,3.3c-2.7,0.5-5.9-0.3-8-2.6c-1.8-1.9-2.1-4.6-1.2-6.9c0.9-2.2,2.9-3.9,5.7-3.7
	c2.4,0.2,3.6,1.7,3.9,3.3c0.2,1.6-0.6,3.3-2.4,3.7c-0.8,0.2-1.8,0-2.4-0.5c-0.6-0.5-1-1.4-0.5-2.4c0.1-0.3,0.5-0.1,0.4,0.1
	c-0.4,0.9-0.1,1.5,0.4,1.9c0.5,0.4,1.3,0.6,2.1,0.4c1.6-0.4,2.3-1.8,2.1-3.3c-0.2-1.5-1.3-2.8-3.5-3c-2.7-0.2-4.5,1.4-5.3,3.5
	c-0.8,2.1-0.5,4.7,1.1,6.5c2,2.2,5.1,2.9,7.7,2.5c2.5-0.4,4.5-1.8,5.2-4.1c0-0.8,0-1.6,0-2.4c-1.4-2.4-2.8-4.8-4.1-7.4
	C347.1,467.1,345,467.4,342.9,466.9z M482.2,316.5c0,0.9-0.3,1.7-0.8,2.4c0.3,2.3,0.5,4.7,0.8,7.1c0.5-3.5,1.6-6.8,3-10.1
	c0.8-1.8,1.7-3.6,2.6-5.4c-2.7-0.3-5.3-0.7-7.7-1.3c0.2,1.4,0.4,2.8,0.6,4.2C481.6,314.2,482.2,315.3,482.2,316.5z M362.8,487.9
	c-7.6,17.2-9.1,34.5-5.6,49.1c0.5,2.2,1.2,4.4,2,6.6c1,2.8,2.2,5.5,3.6,8c8.2,2.2,15.6,6,21.8,10.8c7.2,5.6,12.9,12.7,16.6,20.8
	c14,4.8,30.3,5.7,47.6,1.5c-0.8-0.6-1.8-1.1-2.8-1.6c-0.4-0.2-0.4-0.7-0.1-1c2.9-2.2,5.7-3.9,8.6-5.2c-0.7-0.6-1.4-1.2-2.1-1.8
	c-46.5,12-81.1-13.8-88.2-48.9c-2.2-10.9-1.8-22.8,1.7-34.7c-0.6-0.6-1.2-1.2-1.7-1.9C363.9,489.1,363.4,488.5,362.8,487.9z
	 M339.1,447.8c-0.5,0.7-1.4,1.1-2.2,1.1c-0.9,0-1.8-0.4-2.3-1.4c-0.1-0.2,0.2-0.4,0.3-0.2c0.4,0.8,1.2,1.1,1.9,1.1
	c0.7,0,1.5-0.3,1.9-0.9c0.4-0.6,0.6-1.1,0.5-1.7c-0.1-0.6-0.3-1.1-0.8-1.5c-1.1-1.2-3.4-1.9-5.5-0.6c-2.2,1.5-2.8,3.8-2.2,5.9
	c0.7,2.1,2.6,4,5.5,4.6c2.5,0.6,4.7,0,6.1-1c-1-2.3-1.9-4.7-2.8-7.2C339.7,446.6,339.6,447.2,339.1,447.8z M324.9,353
	c-3.2-0.2-6.4-0.4-9.6-0.4c-8.1,0-16,0.8-23.8,2.4l2.2,10.2c7-1.5,14.1-2.2,21-2.3c3.5-0.1,6.9,0.1,10.2,0.4c-0.1-2.6-0.1-5.3-0.1-8
	C324.9,354.5,324.9,353.8,324.9,353z M371.6,497.9c-1.6,0-3,1.3-3,2.9c0,1.6,1.3,2.9,3,2.9c1.7,0,3-1.3,3-2.9c0-0.6-0.2-1.2-0.5-1.6
	c-0.4-0.3-0.7-0.6-1.1-0.9C372.6,498,372.1,497.9,371.6,497.9z M400.3,564.4c2.4,0,4.3-1.9,4.3-4.2c0-2.3-1.9-4.2-4.3-4.2
	c-2.4,0-4.3,1.9-4.3,4.2C396,562.5,397.9,564.4,400.3,564.4z M414.1,570.7c2.4,0,4.3-1.9,4.3-4.2c0-2.3-1.9-4.2-4.3-4.2
	c-2.4,0-4.3,1.9-4.3,4.2C409.7,568.8,411.7,570.7,414.1,570.7z M428.5,572.8c2.1,0,3.8-1.7,3.8-3.7c0-2.1-1.7-3.7-3.8-3.7
	c-2.1,0-3.8,1.7-3.8,3.7C424.7,571.1,426.4,572.8,428.5,572.8z M442,572.6c2,0,3.7-1.6,3.7-3.5c0-2-1.6-3.6-3.7-3.6
	c-2,0-3.6,1.6-3.6,3.6C438.3,571,440,572.6,442,572.6z M487.8,188.5c-0.7-0.3-1.3-0.6-2-0.9l0.8,1.4
	C486.9,188.9,487.3,188.7,487.8,188.5z M405.1,172.8l0-2.1c-0.2,0-0.4,0-0.6,0c-2.8,0-5.5,0.1-8.3,0.2l0,1.8
	C399.2,172.7,402.1,172.8,405.1,172.8z M414.3,172.9l0-1.9c-2.9-0.1-5.9-0.2-8.8-0.2l0,2.1C408.4,172.8,411.3,172.9,414.3,172.9z
	 M423.7,172.9v-1.3c-3-0.3-5.9-0.5-9-0.6l0,1.9C417.7,172.9,420.7,172.9,423.7,172.9z M395.8,172.7l0-1.7c-3,0.1-5.9,0.3-8.9,0.5
	l0,1.1C389.9,172.6,392.9,172.6,395.8,172.7z M383.7,198.2c1.6-1.9,3.4-3.5,5.6-5c-1.4-1.9-2.9-3.8-4.4-5.7c-0.1,0-0.1-0.1-0.1-0.1
	c0,0,0-0.1,0-0.1c-3.7-4.7-7.6-9.4-11.7-14c-0.6,0-1.1,0-1.7,0c-2.9,0.5-5.7,1-8.5,1.6C370.4,181.6,378.3,191.2,383.7,198.2z
	 M447.8,214.7l2,1.2c1.7-2.4,3.6-4.6,5.6-6.7l-2.3-1.8C451.2,209.7,449.5,212.2,447.8,214.7z M477.9,192.8l-3.8-5.4
	c-2.5,1.8-5,3.7-7.4,5.7l3.5,4.1C472.8,195.6,475.3,194.2,477.9,192.8z M432.8,173v-0.3c-2.9-0.4-5.8-0.7-8.8-1v1.3
	C426.9,172.9,429.9,173,432.8,173z M386.6,171.5c-2.8,0.2-5.5,0.5-8.3,0.9c2.7,0.1,5.5,0.1,8.3,0.2L386.6,171.5z M473.9,280.8
	l14.5-2.7c-3.4-4.5-5.5-9.7-6.1-15.2l-10.8,9.8c0.5,1.5,1,3,1.4,4.6C473.3,278.5,473.6,279.6,473.9,280.8z M446.3,223.2
	c3,3.8,5.9,7.8,8.6,12.2c4.1-7.7,10.2-14.8,18.2-20.6c11.1-7.9,23.5-12.8,36.3-14.9c-6.5-4-13.3-7.6-20.4-10.9
	c-9.8,3.5-19.2,8.8-27.8,15.9C455.2,210.1,450.2,216.4,446.3,223.2z M338.2,268.9c-1.3,0.8-2.6,1.5-4.1,2.2
	c-1.2,2.2-2.2,4.5-3.2,6.8c1.2-0.1,2.4-0.1,3.5-0.1c0.4,0,0.7,0,1,0c0.1-0.2,0.1-0.4,0.2-0.6C336.4,274.4,337.3,271.7,338.2,268.9z
	 M469.4,264.3c0.1,0,0.1,0.2,0,0.3l-0.5,0.5c0.8,2.2,1.6,4.5,2.3,6.8l10.7-9.7l-16.4-5.8c1,2.5,2,5,3,7.7L469.4,264.3z M468.7,264.4
	c0,0.1,0.1,0.2,0.1,0.3l0.2-0.2L468.7,264.4z M459.7,197.8c0.7-0.8,1.5-1.5,2.3-2.3c1.7-1.6,3.5-3.1,5.3-4.6
	c-4.1-3.4-7.1-6.6-9.1-9.6c-1.1-1.5-1.9-2.9-2.4-4.2c-4.5-1.2-9.1-2.2-13.8-3.1c-0.8,0-1.6,0-2.4,0
	C442.4,181.7,448.7,190.3,459.7,197.8z M478.3,192.6c2.6-1.3,5.2-2.4,7.8-3.5l-1-1.8c-1.8-0.8-3.7-1.6-5.6-2.4
	c-0.4-0.1-0.7-0.3-1.1-0.4c-1.3,0.8-2.7,1.7-4,2.6L478.3,192.6z M467.7,190.6c2.5-2,4.9-3.8,7.5-5.5c-0.7-0.9-1.4-1.7-2.1-2.5
	c-5.5-2-11-3.7-16.7-5.2c0.5,1.1,1.2,2.4,2.1,3.7C460.6,183.9,463.7,187.2,467.7,190.6z M435.1,173c-0.6-0.1-1.3-0.2-1.9-0.3v0.3
	C433.8,173,434.5,173,435.1,173z M476.9,184c-0.9-0.3-1.7-0.7-2.6-1c0.5,0.6,1,1.1,1.4,1.7C476.1,184.4,476.5,184.2,476.9,184z
	 M403.3,510.6C403.3,510.6,403.3,510.6,403.3,510.6c2.1,0.5,5.5,0.8,10.1,0.5c0.1,0,0.1,0,0.2,0.1c0-0.5,0-1,0-1.5c-3,0.6-6,1-9.1,1
	C404.1,510.6,403.7,510.6,403.3,510.6z M323.3,544c2.3-0.3,4.5-0.7,6.8-1.2l-3.2-15.9c-1.7,0.2-3.5,0.3-5.2,0.5L323.3,544z
	 M327.2,526.9l3.2,15.8c2.3-0.6,4.5-1.2,6.7-2.1l-6.4-20.4c-1.6,0.6-3.1,1-4.6,1.5l0.6,3.1c1.6,0.6,3.1,1.2,4.7,1.8
	C330.1,526.7,328.7,526.8,327.2,526.9z M360.2,488.8l0.8,0.3c0.3-0.8,0.7-1.5,1-2.3c-0.4-0.4-0.7-0.9-1.1-1.4
	C360.7,486.6,360.5,487.7,360.2,488.8z M417,201.8c8.1,0.4,18.5,3.5,30.4,10.9c1.5-2.3,3.2-4.6,5-6.8
	c-17.3-11.7-32.2-16.3-43.8-16.4c-1.2,0-2.4,0-3.6,0.1c-12.3,0.9-20.5,7.1-23.6,15.2c-0.2,0.6-0.4,1.3-0.6,1.9
	c7.5-4.5,15.4-6.8,23.8-6.8C408.8,199.9,413,200.6,417,201.8z M315.8,544.4c2.4,0,4.8-0.1,7.1-0.3l-1.7-16.5
	c-1.8,0.2-3.6,0.4-5.4,0.7V544.4z M325.8,521.7c-1.4,0.4-2.7,0.6-4.1,0.9c1.5,0.7,3.1,1.3,4.6,1.9L325.8,521.7z M285.2,535.9
	l0.9-1.5c-0.7,0.2-1.5,0.4-2.2,0.7C284.3,535.4,284.7,535.7,285.2,535.9z M308.5,543.9c2.3,0.3,4.6,0.5,6.8,0.5v-16.1
	c-1.8,0.3-3.6,0.5-5.4,0.8L308.5,543.9z M293.1,539.8c2.5,1,5.1,1.9,7.8,2.6l2.5-12c-2.4,0.5-4.8,1-7.2,1.5L293.1,539.8z
	 M301.2,542.5c2.3,0.6,4.6,1,6.9,1.3l1.4-14.6c-1.9,0.3-3.9,0.7-5.9,1.1L301.2,542.5z M425.6,538.8c-0.3-0.2-0.6-0.5-0.9-0.7
	l0.3,0.9c0.3,0,0.5,0,0.8-0.1C425.8,538.9,425.7,538.9,425.6,538.8z M430.4,553.4c2.9,0.4,5.9,0.7,9.1,0.7c1.1,0,2.2,0,3.3,0
	c0-0.1,0-0.1,0-0.1c0-0.4-0.1-0.9-0.1-1.3l-1.5-2.7c-2.1-0.8-4.1-1.6-6.2-2.4L430.4,553.4z M429.8,553l4.4-5.7
	c-2.4-0.9-4.8-1.8-7.2-2.6L429.8,553z M442.6,550.9c0-0.1,0-0.2,0-0.4c-0.1,0-0.2-0.1-0.3-0.1L442.6,550.9z M405.5,542.9
	c1.3,1,2.7,2,4.1,3c0.1-0.1,0.2-0.3,0.4-0.3l10.9-2.8c0.1,0,0.1,0,0.1,0c0.3,0,0.5,0.2,0.6,0.4l2.5,8.7c0,0.1,0,0.2,0,0.3
	c1.6,0.4,3.2,0.8,4.8,1l-3-8.9c-3.8-1.4-7.7-2.7-11.6-4L405.5,542.9z M415.2,519.7c-0.2-3.5,0.1-7.1,0.9-10.6
	c-0.6,0.2-1.2,0.3-1.9,0.5C414.2,512.9,414.4,516.3,415.2,519.7z M388.3,509l26.4,11c-0.7-2.9-1-5.8-1-8.6c0,0.1-0.1,0.1-0.1,0.1
	c-4.6,0.3-8,0.1-10.3-0.5c-0.5-0.1-1-0.3-1.4-0.4c-4-0.2-7.9-1-11.8-2.3L388.3,509z M423.7,537.5l-7.3,2.2c2.6-0.1,5.2-0.3,7.8-0.6
	L423.7,537.5z M387.7,508.4l1.3-0.6c-0.5-0.2-0.9-0.4-1.4-0.6C387.7,507.7,387.7,508,387.7,508.4z M272.1,491.1l5.7,0
	c0.1-1.4,0.3-2.8,0.6-4.2l-12.4-1.5c0.8,0.8,1.6,1.6,2.5,2.4C269.7,488.9,270.9,490,272.1,491.1z M390.8,538
	c10.6,14.7,28.6,24.2,53,22.1c-0.4-1.7-0.7-3.3-0.8-5c-1.1,0-2.2,0.1-3.3,0c-21.7-0.2-36.9-9.9-45.4-23.8
	c-4.4-7.2-6.9-15.6-7.6-24.5c-2.3-1-4.6-2.3-6.9-3.7C379.8,515.8,383.6,528.1,390.8,538z M337.4,236.9c-8.3,0-16.7,1.1-25.5,5.8
	c-2.7,5.7-7.3,11.1-14.8,16.2c2.7-0.6,5.3-0.9,7.7-1c1.7,0,3.3,0.1,4.8,0.2c8.2-4.1,15.1-7.3,21.6-9.1c0.8-0.2,1.5-0.3,2.1-0.4
	c0.6,0,1.2,0,1.6,0.1c1,0.2,1.6,0.7,1.9,1.4c0.3,0.6,0.2,1.5-0.1,2.2c-0.4,0.8-1.1,1.5-2.1,2.1c-3.7,2.3-8.7,3.9-14.7,5.8
	c6.1,1.6,12,3.4,18.8,3.3c0.4,0,0.7,0.5,0.4,0.8c-2,1.9-3.5,3.9-4.8,6.1c1.5-0.7,2.8-1.4,4-2.2c4-11.6,8.7-21.8,14-30.8
	C347.4,237.3,342.4,236.9,337.4,236.9z M334.4,278.8c-1.2,0-2.5,0-3.9,0.1c-0.2,0.5-0.4,1-0.6,1.4c-1.8,4.3-3.6,8.6-6.9,12.4
	c1.4-0.2,2.8-0.3,4.1-0.3c1.5,0,3,0,4.4,0.1c1.1-4.6,2.2-9.2,3.5-13.6C334.8,278.8,334.6,278.8,334.4,278.8z M328.3,292.8
	c-1.8,0-3.7,0.1-5.7,0.4c-0.7,0.8-1.6,1.6-2.5,2.4c1.2,0.1,2.4,0.2,3.5,0.2c0.4,0,0.6,0.4,0.4,0.8c-2.3,3.4-4,6.4-6,9.4
	c4.2-1.3,7.7-2.1,11.2-2.7c0.6-3.5,1.3-7,2.1-10.4C330.4,292.8,329.4,292.8,328.3,292.8z M342.5,227.7c-0.9-0.1-1.9-0.2-2.8-0.3
	c-0.2,0.1-0.4,0.1-0.7-0.1c-1.7-0.1-3.4-0.2-5.1-0.2c-6.2,0-12.4,1.1-18.5,4.2c0,0.3-0.1,0.6-0.1,0.9c-0.6,3.3-1.5,6.6-3,9.9
	c9.7-5.1,19-5.8,28.2-5.6c4.1,0.1,8.1,0.4,12.2,0.6c1.5-2.5,3-4.9,4.7-7.2C352.4,229.2,347.5,228.3,342.5,227.7z M445.7,222.4
	c1.2-2.1,2.5-4.2,3.9-6.2l-1.9-1.2c-1.2,1.9-2.3,3.8-3.4,5.7c0,0,0.1,0.1,0.1,0.1C444.8,221.4,445.2,221.9,445.7,222.4z
	 M265.5,484.9l12.9,1.6c0.2-0.8,0.4-1.7,0.7-2.5l-17.4-6.2c-0.2,0.8-0.5,1.7-0.7,2.6C262.5,481.9,264,483.4,265.5,484.9z
	 M443.3,219.6c1.2-2.2,2.6-4.4,4-6.6c-11.2-6.9-20.9-10.1-28.7-10.8C427.4,205.2,435.6,211,443.3,219.6z M360.2,221.2
	c-0.3,0-0.5,0-0.8,0c-4.2,0.2-8.3,2.5-10.4,6.4c3,0.5,5.9,1,8.8,1.4c1.8-2.6,3.8-5,5.7-7.4C362.5,221.4,361.4,221.2,360.2,221.2z
	 M372.6,210.7c0.3,0.4,0.5,0.9,0.8,1.3c0,0,0.1-0.1,0.1-0.1C373.2,211.5,372.9,211.1,372.6,210.7z M317.6,306.7
	c-1.6,2.4-3.3,4.7-5.6,7.1c1.6-0.1,3.1-0.2,4.7-0.2c4.3-1.3,8.1-2,11.4-3.2c0.3-2.2,0.7-4.4,1.1-6.6
	C325.6,304.5,322.1,305.4,317.6,306.7z M319,313.6c0.6,0,1.3,0,1.9,0c2.3,0,4.5,0.1,6.7,0.2c0.1-0.9,0.3-1.7,0.4-2.6
	C325.3,312.1,322.3,312.7,319,313.6z M321.9,415.3c-7.1-2.1-14.6-3.4-22.4-3.4c-16.9-0.1-35,5.3-52,18.2c4.4-2.8,9.1-5.3,14.3-7.5
	c9.4-4,18.9-5.8,28.2-5.8c12.9-0.1,24,1.9,33.3,5.4c3.8,1.4,7.3,3.1,10.5,5c-0.7-2.7-1.4-5.4-2-8.1
	C328.6,417.6,325.3,416.4,321.9,415.3z M353.4,476.1c-0.2,11.8-5.1,23.2-16.1,30.4c-8.8,5.7-19,8.2-28.1,7.1
	c-9.1-1.1-17-5.7-20.9-14.4c-2.7-6.1-2.5-12.8,0.5-18.2c2.9-5.1,8.3-9,15.9-10c-2.2-2.1-6.2-2.6-10.6-1.1
	c-4.8,1.6-9.7,5.6-12.7,12.2c-2.3,5.2-2.8,10.5-1.7,15.5c12,9.5,25.1,17.5,39.2,23.9c6.4-0.8,13.3-3,20.4-7
	c11.1-6.2,18-17.7,20.1-30.7c-2.1-2.9-4.2-5.9-6.2-9.1C353.4,475.2,353.4,475.6,353.4,476.1z M286.6,534.3l-1.1,1.8
	c2.3,1.3,4.7,2.5,7.2,3.5l3-7.7c-1.7,0.4-3.3,0.8-5,1.2C289.3,533.5,288,533.9,286.6,534.3z M315.3,405.2c-2.8-0.3-5.7-0.5-8.5-0.5
	c-11.9-0.1-24,2.3-35.7,7.5c0,0,0,0-0.1,0c-8.9,3.9-17.5,9.5-25.3,16.7c0,0,0,0,0,0c-3.2,3-6.3,6.2-9.3,9.7c2.1-1.9,4.3-3.7,6.7-5.4
	c18.7-15.8,39-22.1,57.8-21.6c7.3,0.2,14.4,1.4,21.1,3.4c3.3,1,6.5,2.2,9.6,3.6c-0.8-3.5-1.5-7-2.2-10.6
	C324.9,406.6,320.1,405.7,315.3,405.2z M319.2,323.7c-11.8,0-23,1.1-33.7,3.4l1.6,7.6c9.9-2.1,20.1-3.2,30.6-3.2
	c2.7,0,5.4,0.1,8,0.2c0.2-2.7,0.4-5.3,0.7-7.9C324.1,323.8,321.7,323.7,319.2,323.7z M317.7,331.9c-10.4,0-20.7,1.1-30.5,3.2
	l1.8,8.5c8.9-1.9,18.1-2.8,27.4-2.8c2.9,0,5.9,0.1,8.8,0.3c0.1-3,0.3-5.9,0.5-8.9C323.1,332,320.4,331.9,317.7,331.9z M324,375.5
	c-0.5-0.1-1-0.1-1.6-0.1c-3.7-0.1-7.8,1.7-11.5,5.8c-4.2,4.6-7.8,12-9.9,22.4c0.9-0.1,1.9-0.1,2.8-0.1c2-0.1,4,0,6,0.1
	c1.3-5.1,3.1-8.9,4.9-11.4c1.9-2.6,4-3.7,5.9-3.5c1.9,0.3,3.4,2,4.2,4.9c0.8,2.8,1,6.9,0.4,12c1.3,0.3,2.7,0.7,4,1
	c-1.8-9.9-3-20.1-3.7-30.7C325,375.8,324.5,375.6,324,375.5z M316.4,341.1c-9.3,0-18.4,1-27.3,2.8l2.3,10.7
	c7.8-1.5,15.8-2.4,23.9-2.4c3.2,0,6.4,0.1,9.6,0.4c0-3.8,0.1-7.5,0.3-11.2C322.3,341.2,319.4,341.1,316.4,341.1z M278,495.8
	c-0.2-1.4-0.2-2.9-0.2-4.4l-5.2,0c1.7,1.5,3.4,3,5.2,4.4L278,495.8z M300.6,310.6c1.4-1.7,2.7-3.5,4.8-5.4c-3.7,0.2-7.2,0-10.7,0
	c-5.8,0-11.9,0.4-19.3,3.2c-0.5,1.5-1.2,2.9-1.9,4.2c-2.1,4.2-5.4,8.2-9.6,11.7c2-0.8,4-1.5,6-2.2c5.5-5.1,10.1-7.5,13-7.9
	c0.4-0.1,0.7-0.1,1-0.1c0.3,0,0.6,0.1,0.9,0.1c0.5,0.1,0.9,0.5,1.1,0.9c0.3,0.7,0.2,1.5-0.3,2.5c3.2-0.7,6.5-1.4,9.7-1.9
	C297.8,313.9,299.2,312.3,300.6,310.6z M250.1,384L230,352.8c-2.9,2.3-5.7,4.7-8.5,7.2l22,28.9C245.7,387.2,247.9,385.5,250.1,384z
	 M228.8,362.4c-1,0-1.8-0.7-1.9-1.7c0-1,0.7-1.8,1.7-1.8c1,0,1.8,0.7,1.9,1.7C230.5,361.6,229.8,362.4,228.8,362.4z M232.5,367.7
	c-1,0-1.8-0.7-1.9-1.7c0-1,0.7-1.7,1.7-1.8c1,0,1.8,0.7,1.9,1.7C234.3,366.8,233.5,367.6,232.5,367.7z M236.2,373.1
	c-1,0-1.8-0.7-1.8-1.7c-0.1-1,0.7-1.7,1.7-1.8c1,0,1.8,0.7,1.8,1.7C238,372.2,237.2,373,236.2,373.1z M240.2,378.4
	c-1,0.1-1.8-0.7-1.9-1.7c0-1,0.7-1.7,1.7-1.8c1-0.1,1.8,0.7,1.9,1.7C241.9,377.6,241.2,378.4,240.2,378.4z M242.5,382.6
	c-0.1-1,0.7-1.7,1.7-1.8c1,0,1.8,0.7,1.9,1.7c0,1-0.7,1.8-1.7,1.8C243.3,384.3,242.5,383.6,242.5,382.6z M284.6,314.8
	c-0.2-0.1-0.4-0.1-0.7-0.1c-0.3,0-0.6,0-0.9,0.1c-2.5,0.4-6.6,2.4-11.7,6.9c4.4-1.5,8.9-2.7,13.5-3.8c0.7-1.1,0.8-2,0.6-2.5
	C285.2,315.1,285,314.9,284.6,314.8z M313.8,373.4c3.9,0,7.8,0.2,11.6,0.7c-0.2-3-0.3-6.1-0.4-9.2c-3.4-0.3-6.8-0.4-10.2-0.4
	c-34.5,0.4-72,18.3-93.7,51.4c1.2,3.2,2.4,6.5,3.8,9.6C244.9,392.8,279.8,373.4,313.8,373.4z M305.5,285.3c-4,3-10.6,6-17,9
	c2.9-0.6,5.6-0.8,8.3-0.9c2.8-0.1,5.5,0.1,8.1,0.3c5.7-2.8,8.7-6.4,11-10.2c2.3-3.9,3.9-8,6.6-11.7c-6.2-1.1-11.7-2.5-16.9-3
	c-1-0.1-2-0.1-2.9-0.1c-4.1,0-8,0.7-12.2,2.8c-1.6,5.9-4.7,11.6-10.3,17c-0.1,0.5-0.2,1-0.3,1.5c7.4-4.1,14.7-7.4,22.2-10.2
	c1.4-0.5,2.6-0.7,3.6-0.6c1,0.1,1.7,0.6,2.1,1.2c0.4,0.7,0.4,1.5,0,2.4C307.4,283.5,306.6,284.4,305.5,285.3z M292.7,365.4
	l-8.2-38.1c-4.1,0.9-8,1.9-12,3.2l11.7,37.1C287.1,366.7,289.9,366,292.7,365.4z M288.3,361.8c0.9,0.3,1.4,1.3,1.1,2.2
	c-0.3,0.9-1.3,1.4-2.2,1.1c-0.9-0.3-1.4-1.2-1.1-2.2c0.2-0.7,1-1.2,1.8-1.2C288,361.8,288.1,361.8,288.3,361.8z M277.8,331.8
	c0.2-0.7,1-1.2,1.8-1.2c0.1,0,0.3,0,0.5,0.1c0.9,0.3,1.4,1.3,1.1,2.2c-0.3,0.9-1.3,1.4-2.2,1.1C278,333.6,277.5,332.7,277.8,331.8z
	 M279.3,337.6c0.2-0.8,1-1.2,1.8-1.2c0.2,0,0.3,0.1,0.5,0.1c0.9,0.3,1.5,1.3,1.1,2.2c-0.3,0.9-1.3,1.4-2.2,1.1
	C279.6,339.5,279,338.5,279.3,337.6z M280.9,343.8c0.3-0.7,1-1.2,1.8-1.2c0.2,0,0.3,0,0.5,0.1c0.9,0.3,1.5,1.2,1.2,2.1
	c-0.3,0.9-1.3,1.4-2.2,1.1C281.1,345.7,280.6,344.7,280.9,343.8z M282.6,350.1c0.2-0.7,1-1.2,1.8-1.2c0.1,0,0.3,0,0.5,0.1
	c0.9,0.3,1.4,1.2,1.1,2.1c-0.3,0.9-1.3,1.4-2.2,1.1C282.8,352,282.3,351,282.6,350.1z M284.3,356.6c0.2-0.7,1-1.2,1.8-1.2
	c0.2,0,0.3,0,0.5,0.1c0.9,0.3,1.5,1.3,1.2,2.2c-0.3,0.9-1.3,1.4-2.2,1.1C284.5,358.5,284,357.6,284.3,356.6z M316.6,217.1
	c-0.2,4.4-0.4,8.7-1,13c4-1.9,8-3,12.1-3.5C324.2,223.4,320.4,220.1,316.6,217.1z M274,338.2l-2.3-7.4
	c-14.8,4.8-28.4,11.9-40.8,21.4l3.6,5.7C246.2,349.3,259.6,342.7,274,338.2z M318.7,296.4c-7-0.7-13.5-2.1-20.8-2.1
	c-5.9,0-12.2,1-19.6,4c-0.7,3.3-1.6,6.5-2.7,9.6c12-4.5,20.6-2.6,30.3-3.1c0.2,0,0.3,0.2,0.1,0.3c-2.3,2-3.6,3.8-5.1,5.7
	c-1.3,1.6-2.6,3.1-4.7,4.8c4.7-0.8,9.5-1.3,14.3-1.6c5.6-5.7,8.1-10.9,12.3-17.2c-1.3-0.1-2.5-0.2-3.7-0.3
	C318.9,296.5,318.8,296.5,318.7,296.4z M248.3,331.4c-4.6-6-12.1-10.9-21.1-13.4c-0.1,0-0.3,0-0.4-0.1c-3.7-1-7.7-1.5-11.9-1.6
	c-0.6,2.9-1.2,5.9-1.7,8.8c10.8,0.7,20.2,4.6,27.2,10.7C242.9,334.3,245.6,332.8,248.3,331.4z M233.5,431c-2-0.1-3.5,0.5-4.4,1.5
	c-0.2,0.3-0.4,0.5-0.6,0.9c1.3,2.7,2.7,5.4,4.1,8.1c2.4-3.1,4.9-6,7.4-8.7C237.6,431.6,235.4,431,233.5,431z M324.7,405.5
	c0.7-5.1,0.4-9-0.3-11.7c-0.8-2.8-2.2-4.3-3.8-4.5c-0.1,0-0.2,0-0.3,0c-1.5-0.1-3.3,1-5,3.3c-1.8,2.4-3.5,6-4.8,11.1
	c1.6,0.1,3.3,0.2,4.9,0.4C318.5,404.3,321.6,404.8,324.7,405.5z M239.4,336.4c-6.8-5.9-15.9-9.6-26.5-10.3c-0.5,3.1-0.9,6.2-1.2,9.3
	c7.2,0.8,13.2,3.1,18.9,6.7C233.5,340.2,236.5,338.3,239.4,336.4z M234.7,358.2l4.6,7.2c11.1-8,23.8-14.3,37.4-18.5l-2.6-8.2
	C259.7,343,246.3,349.7,234.7,358.2z M226.8,423.9c-0.5,0.8-1,1.6-1.5,2.5c0.1,0.2,0.2,0.4,0.3,0.6c0.9-0.8,2-1.4,3.1-1.9
	L226.8,423.9z M335.7,226.3c0.8,0,1.6,0.1,2.4,0.1c-6.2-6.5-13.4-12.9-20.7-18.5c-0.4,2.7-0.5,5.5-0.7,8.3
	c4.2,3.2,8.3,6.8,12.1,10.4C331,226.3,333.3,226.2,335.7,226.3z M233.6,430.4c2,0,4.3,0.6,6.9,1.9c1.3-1.3,2.5-2.6,3.8-3.8
	c-3.9-2.2-7.5-3.2-10.5-3.2c-0.4,0-0.9,0-1.3,0.1c-2.6,0.2-4.8,1.2-6.5,2.7c0.7,1.6,1.4,3.1,2.2,4.6c0.1-0.2,0.3-0.4,0.5-0.6
	C229.7,431,231.4,430.4,233.6,430.4z M211.7,335.9c-0.7,6.4-1,12.8-1,19.4c0,1.3,0,2.6,0,3.9c6-6.1,12.6-11.7,19.6-16.7
	C224.7,338.9,218.7,336.7,211.7,335.9z M245.2,374.5l5.8,8.9c10.1-6.9,21.1-12.1,32.3-15.6l-3.1-10
	C267.5,361.6,255.7,367.3,245.2,374.5z M278.8,245.1C278.8,245.1,278.8,245.1,278.8,245.1c0.2,0,0.3,0.1,0.3,0.2
	c-0.5,5,0.5,9.5,0.7,14.2c0.2,4.5-0.4,9.3-3.5,15c2.4-0.8,4.7-1.7,6.9-2.8c0.1,0,0.1,0,0.2,0c0.4,0,0.6,0.3,0.5,0.6
	c-1.6,4.6-2.5,9.5-3.4,14.4c7.7-7.9,10.1-16.4,10.3-25.4v-0.1c0-0.3,0-0.6,0-0.9c0.1-9.6-2.3-19.5-3.5-29.4c-7.4,3-15.2,4.4-22.5,7
	c-0.7,0.3-1.5,0.6-2.2,0.8c0,0-0.1,0-0.1,0.1c-6.6,2.6-12.9,6.6-18.1,13.8c1,3.9,2.5,7.5,4,10.9C257,251.1,268.3,249.6,278.8,245.1z
	 M260.2,325.8c5.6-3.8,9.8-8.6,12.3-13.5c2.3-4.5,3.7-9.3,4.8-14.3c0-0.1,0-0.1,0-0.1c0.7-3.2,1.2-6.4,1.8-9.6c0-0.1,0-0.1,0-0.2
	c0.9-5.1,1.9-10.1,3.4-15c-10.6,4.8-22.8,6.7-33.1,11.8c-10.4,5.1-18.8,13.5-21.8,31.8c1.8,0.5,3.5,1.1,5.1,1.7
	c6.9-17.8,20.6-23.7,34.8-28.6c0,0,0,0,0.1,0c0.1,0,0.2,0.1,0.2,0.2c-1.7,7.1-1.7,13.7-3.8,20.1c-2.1,6.3-6.4,12.3-16.3,18.3
	c0.7,0.8,1.3,1.5,1.9,2.4C253.1,328.9,256.7,327.3,260.2,325.8z M264.2,264.6c1.1-1,2-1.6,2.9-1.9c0.4-0.2,0.8-0.2,1.2-0.2
	c0.4,0,0.7,0.1,1,0.3c0.6,0.4,0.8,1,0.8,1.9c0,0.8-0.3,1.9-1,3.1c-1.4,2.8-3.8,5.7-7.5,11.2c4.7-1.5,9.4-2.8,14-4.4
	c3.3-5.8,3.8-10.6,3.6-15.2c-0.2-4.6-1.1-9-0.7-13.9c-10.5,4.4-21.6,6-30.2,18.3c0.2,0.5,0.4,1,0.7,1.5c1.8,4.3,3.3,8.4,3.5,12.8
	C257.1,272.3,261.5,267.1,264.2,264.6z M319.2,322.5c2.5,0,4.9,0.1,7.3,0.2c0.3-2.7,0.6-5.4,1-8c-2.2-0.1-4.4-0.1-6.6-0.1
	c-3.3,0-6.7,0.1-10,0.3c-0.1,0-0.1,0-0.2,0c-17.6,1.1-34.5,5.2-50,11.7c0,0-0.1,0-0.1,0.1c-0.1,0.1-0.2,0.1-0.3,0.1
	c-6.8,2.9-13.4,6.3-19.7,10.1c-0.1,0.1-0.1,0.1-0.2,0.1c-10.9,6.6-20.9,14.6-29.6,23.6c0.1,2.7,0.2,5.4,0.4,8.1
	C239.4,337.9,275.9,322.5,319.2,322.5z M263.7,309.9c2.1-6.2,2.1-12.7,3.7-19.7c-14,4.8-27.5,10.7-34.2,28.2c2,0.8,3.8,1.7,5.6,2.8
	c3.8-5.1,7.6-10.1,12.3-13.2c0.8-0.5,1.6-0.8,2.3-0.9c0.7-0.1,1.4,0,1.9,0.4c0.5,0.3,0.7,1,0.7,1.7c0,0.7-0.3,1.6-0.9,2.6
	c-2.9,4.8-7,9-10.6,13.4c1.1,0.9,2.1,1.9,3,2.9C257.4,322.1,261.6,316.1,263.7,309.9z M255.3,309.1c0-0.6-0.2-1-0.5-1.2
	c-0.2-0.2-0.6-0.3-1-0.3c-0.1,0-0.3,0-0.4,0c-0.6,0.1-1.3,0.4-2.1,0.9c-4.5,3-8.3,7.9-12.1,13c1.7,1,3.2,2.1,4.7,3.3
	c3.6-4.5,7.7-8.6,10.5-13.4C255,310.5,255.3,309.7,255.3,309.1z M224.6,365.7l-3.9-5.1c-3.3,3-6.4,6.2-9.5,9.6
	c0.2,2.8,0.5,5.5,0.8,8.3C216,374,220.1,369.7,224.6,365.7z M230.1,291.9c0.1-1.5-0.6-2.7-1.3-3c-0.1-0.1-0.3-0.1-0.4-0.1
	c-0.2,0-0.5,0.1-0.8,0.3c-0.5,0.4-1,1.1-1.5,2.3c-3,7.5-4.2,15.7-5,23.8c1.9,0.3,3.8,0.6,5.7,1.1c0.3-1.7,0.6-3.3,1-4.8
	C228.4,305,229.9,298.3,230.1,291.9z M269,263.3c-0.2-0.1-0.4-0.2-0.7-0.2c-0.3,0-0.6,0.1-1,0.2c-0.7,0.3-1.7,0.8-2.7,1.8
	c-2.7,2.5-7.4,8-12,14.1c0,1.1-0.1,2.2-0.3,3.3c2.7-1.2,5.6-2.1,8.5-3c3.9-6,6.4-9,7.8-11.8c0.6-1.2,0.9-2.1,0.9-2.9
	C269.5,264,269.3,263.5,269,263.3z M242.8,389.5l-6.4-8.4c-7.5,6.2-14.1,13.2-19.7,20.8c1.1,4.1,2.3,8.2,3.7,12.2
	C226.8,404.6,234.3,396.4,242.8,389.5z M256.8,408.7c-1.2-0.5-2.4-0.7-3.4-0.7c-1,0-1.9,0.3-2.7,0.7c-1.5,0.9-2.5,2.5-2.5,4.8
	c0,2.4,0.9,5.4,3.2,9c4.2-3.2,8.4-6,12.9-8.3C261.7,411.4,259.1,409.6,256.8,408.7z M280,357.5l-3.2-10.3
	c-13.6,4.2-26.2,10.5-37.3,18.5l5.5,8.5C255.5,366.9,267.4,361.2,280,357.5z M318.9,260.1c6.5-2,11.7-3.7,15.5-6
	c0.9-0.5,1.5-1.2,1.9-1.8c0.3-0.6,0.4-1.2,0.1-1.7c-0.2-0.5-0.7-0.9-1.5-1.1c-0.3-0.1-0.7-0.1-1.1-0.1c-0.7,0-1.5,0.1-2.4,0.4
	c-6.2,1.7-12.9,4.7-20.7,8.7c2,0.3,3.9,0.6,5.8,1.1C317.3,259.6,318.1,259.9,318.9,260.1z M278.5,297.2c2.5-1,4.9-1.8,7.2-2.4
	c7.1-3.3,15-6.7,19.4-10c1.1-0.8,1.8-1.7,2.1-2.4c0.3-0.7,0.3-1.4,0.1-1.8c-0.3-0.5-0.8-0.8-1.6-0.9c-0.2,0-0.4-0.1-0.7-0.1
	c-0.7,0-1.6,0.2-2.6,0.6c-7.7,2.9-15,6.2-22.5,10.4C279.4,292.8,279,295,278.5,297.2z M236.1,380.7l-5.9-7.8
	c-6,5.2-11.5,11-16.2,17.2c0.7,3.8,1.6,7.5,2.6,11.2C222.1,393.8,228.7,386.9,236.1,380.7z M301.6,268.3c1.3,0,2.6,0,4,0.1
	c5.3,0.4,10.9,1.9,17.2,3c0.1,0,0.2,0.2,0.1,0.3c-2.8,3.7-4.3,7.9-6.7,11.9c-2.2,3.7-5.2,7.3-10.6,10.1c4.5,0.5,8.8,1.2,13.2,1.7
	c5.4-4.4,7.9-9.8,10.2-15.5c0.2-0.5,0.4-1.1,0.7-1.6c0-0.1,0-0.2,0.1-0.2c1.9-4.8,4-9.5,8-13.6c-7.9,0-14.5-2.5-21.5-4.2
	c-3.6-0.8-7.4-1.5-11.4-1.4c-3.2,0.1-6.7,0.6-10.5,1.7c0,0-0.1,0-0.1,0c-0.8,0.3-1.7,0.6-2.5,0.9c-0.1,3.2-0.4,6.3-1.2,9.3
	C294.3,269.1,297.9,268.4,301.6,268.3z M230,372.6l-5.1-6.6c-4.6,4.1-8.8,8.4-12.7,13.1c0.5,3.5,1,7,1.7,10.5
	C218.6,383.5,224,377.8,230,372.6z M287.5,229.8c0.1,0,0.1-0.1,0.2-0.1c0.3,0,0.5,0.2,0.5,0.4c0.8,7.1,2.3,14.4,3.1,21.5
	c6.5-5.5,9.2-11,10.6-16.6c1.4-5.7,1.6-11.4,3.3-17.2c-12.4,2.5-22.7,1-40.4,14.3c-0.4,1.8-0.9,3.5-1.6,5.3c0.4-0.1,0.8-0.3,1.2-0.4
	C272.1,234.3,280.1,232.9,287.5,229.8z M269.5,390.5c0.6-1.7,1.4-3.1,2.3-4.4l-0.8-1.8c-3,1.5-6,3.1-8.9,4.9l6,10.9
	C268,396.4,268.5,393.2,269.5,390.5z M374.1,211.4c1.2-0.9,2.4-1.8,3.5-2.6c-0.6-0.6-0.9-1.3-0.9-2.2c0-1.8,1.5-3.2,3.3-3.2
	c0.2,0,0.3,0,0.5,0c0.7-1.5,1.5-2.9,2.4-4.2c-5.5-7.2-13.9-17.2-21.5-24c-6.2,1.3-12.3,3-18.3,4.9
	C354.3,188.6,364.8,199.3,374.1,211.4z M373.1,194.9c1.8,0,3.3,1.5,3.3,3.2c0,1.8-1.5,3.2-3.3,3.2c-1.8,0-3.3-1.4-3.3-3.2
	C369.8,196.3,371.3,194.9,373.1,194.9z M365.8,186.8c1.8,0,3.3,1.5,3.3,3.2c0,1.8-1.5,3.2-3.3,3.2c-1.8,0-3.3-1.4-3.3-3.2
	C362.5,188.3,364,186.8,365.8,186.8z M353.9,181.6c0-2,1.7-3.6,3.8-3.6c2.1,0,3.8,1.6,3.8,3.6c0,2-1.7,3.7-3.8,3.7
	C355.6,185.3,353.9,183.7,353.9,181.6z M323.7,190.1c-0.1,0.9-0.6,1.9-1.6,2.6c-0.2,0.1-0.4-0.2-0.2-0.3c0.9-0.6,1.4-1.5,1.4-2.3
	c0.1-0.8-0.3-1.5-0.9-2c-2.1,1-4.3,2-6.4,3c-0.3,1.2,0,2.5,0.6,3.6c1.2,1.9,3.6,3.4,6.3,3.1c3.6-0.3,5.9-2.5,6.9-5.2
	c0.9-2.4,0.6-5.3-0.8-7.4c-2.1,0.9-4.2,1.8-6.3,2.7C323.5,188.5,323.8,189.3,323.7,190.1z M232.3,416c-1.9,2.4-3.6,4.9-5.3,7.5
	l2.1,1.4c1-0.3,2.1-0.6,3.3-0.7c3.3-0.3,7.1,0.6,11.4,2.8c-0.7-1.1-1.2-2.2-1.7-3.2L232.3,416z M250.9,422.9
	c-2.3-3.7-3.3-6.9-3.3-9.3c0-2.5,1.1-4.4,2.8-5.3c0.9-0.5,1.9-0.7,3-0.8c1.1,0,2.4,0.2,3.6,0.7c2.5,0.9,5.1,2.8,7.7,5.7
	c1.7-0.9,3.4-1.7,5.2-2.5c-5.2-7.3-11.5-10.4-16.9-10.5c-2.5,0-4.8,0.6-6.8,1.8c-3.1,1.9-5.2,5.2-5.6,9.5c-0.4,4.2,1,9.4,4.8,15.2
	C247.2,425.9,249,424.4,250.9,422.9z M334.1,200.4c-4.3,5-10.8,6.5-16.4,5.1c-0.1,0.4-0.1,0.7-0.1,1.1c7.9,6,15.7,12.8,22.3,19.9
	c0.9,0.1,1.9,0.2,2.8,0.3c2,0.2,4,0.5,6,0.8c2.1-4.1,6.4-6.5,10.8-6.8c1.5-0.1,3,0.1,4.5,0.6c0.2-0.2,0.3-0.4,0.5-0.6
	c2.8-3.2,5.7-6.1,8.7-8.6c-1-1.8-2.1-3.5-3.3-5.1c-6.6-8-13.7-15.3-21.2-21.7c3.4,3.5,6.6,7.4,8.8,11.4c2.1,3.7,3.4,7.5,3.6,11.2
	c0.2,3.7-0.9,7.3-3.5,10.5c-7.9,9.5-23.9,7.1-27.2-4.4c-2-6.8,1.3-12.4,6.2-14.9c4.9-2.5,11.4-1.9,15.7,3.3c1.8,2.2,2.3,5.5,1.4,8.3
	c-0.9,2.8-3.3,5.1-7.1,5.5c-3,0.3-5.5-1.1-6.8-3.2c-1.3-2-1.2-4.7,1-6.8c1.6-1.5,3.9-1.3,5.1-0.4c0.8,0.6,1.2,1.5,1.2,2.4
	c-0.1,0.9-0.5,1.9-1.5,2.6c-0.2,0.1-0.4-0.1-0.2-0.3c0.9-0.6,1.3-1.5,1.4-2.3c0-0.8-0.3-1.5-1-2c-1-0.8-3.2-1-4.6,0.3
	c-2.1,2-2.2,4.4-0.9,6.4c1.2,1.9,3.6,3.3,6.4,3c3.6-0.4,5.9-2.6,6.8-5.3c0.9-2.7,0.4-5.8-1.3-7.9c-4.2-5.1-10.5-5.6-15.2-3.2
	c-4.7,2.4-7.9,7.8-5.9,14.4c3.3,11.1,18.8,13.5,26.5,4.2c2.6-3.1,3.6-6.6,3.4-10.2c-0.1-3.6-1.5-7.4-3.5-11
	c-3.1-5.5-7.8-10.8-12.8-15.1c-0.7-0.6-1.4-1.1-2.1-1.6c-1.7,0.6-3.4,1.1-5.1,1.7c0.4,1,0.8,2,1.1,3.1
	C339.4,190.2,338.4,195.5,334.1,200.4z M239.5,412.2c0.1-1,0.3-1.9,0.5-2.8l-1.1-1.1c-2.2,2.4-4.3,4.9-6.3,7.5l9.1,7.2
	C239.9,419,239.2,415.4,239.5,412.2z M307.1,195.7c-1,0.6-2.1,1.1-3.1,1.7c2.2,1.4,4.4,2.7,6.6,4.2C309,200,307.8,198,307.1,195.7z
	 M310.2,202.8c-2.4-1.6-4.9-3.2-7.4-4.7c-2.5,1.4-4.9,2.9-7.3,4.5c1,0.5,2,1.1,3,1.7C302.5,203.7,306.4,203.3,310.2,202.8z
	 M330.3,192.7c-1,2.8-3.4,5.1-7.2,5.4c-3,0.3-5.5-1.2-6.7-3.3c-0.6-1.1-0.9-2.3-0.7-3.5c-2.8,1.4-5.5,2.8-8.2,4.3
	c0.8,2.9,2.6,5.4,4.8,7.1c1.9-0.2,3.7-0.5,5.6-0.8h0.1c0.3,0,0.6,0.3,0.5,0.6c-0.2,0.9-0.4,1.9-0.6,2.8c5.5,1.4,11.8-0.1,16-5
	c4.2-4.9,5.2-10,4-14.9c-0.3-1-0.6-2-1.1-3c-2.4,0.9-4.8,1.8-7.2,2.7C330.9,187.2,331.2,190.2,330.3,192.7z M455.6,208.9
	c1.6-1.6,3.2-3.1,4.9-4.6c0.7-0.5,1.3-1,1.9-1.6l-3-2.8c-2.2,2.3-4.3,4.7-6.2,7.1L455.6,208.9z M441.9,198
	c-8.8-7.7-14.7-15.9-18.1-23.9c-2.2,0-4.4,0-6.5,0c3.5,6.5,6.2,12,8.7,17.1C430.9,192.7,436.3,195,441.9,198z M294.8,203.1
	c-1.3,0.8-2.6,1.7-3.8,2.5c2.1-0.5,4.2-0.9,6.4-1.2C296.5,204,295.6,203.5,294.8,203.1z M425.4,191c-2.4-5-5.1-10.5-8.6-16.9
	c-4.7,0-9.2-0.1-13.7-0.1c2.8,4.3,5.3,9.2,8,14.3C415.5,188.5,420.2,189.4,425.4,191z M453.3,204.9c1.9-2.3,3.9-4.6,6.1-6.8
	c-11-7.6-17.4-16.3-20.2-24c-2,0-4.1,0-6.2,0c-2.6,0-5.2,0-7.7,0C429.9,184.5,438.9,195.5,453.3,204.9z M403.3,188.2
	c-0.1,0.1-0.1,0.1-0.2,0.2c0.6-0.1,1.2-0.1,1.8-0.2c1.8-0.1,3.7-0.1,5.6-0.1c-2.6-5.1-5.1-10-7.9-14.3h-0.8
	C406.3,177.4,407.2,184.3,403.3,188.2z M263.3,430.2c10-4.4,19.8-6.6,29.1-6.9c18-0.6,33.9,5.7,44.9,15.6c-0.6-1.9-1.2-3.7-1.8-5.6
	c-0.4-1.3-0.8-2.6-1.1-3.9c-3.5-2.2-7.4-4.2-11.7-5.8c-9.1-3.4-20-5.4-32.7-5.3c-9,0-18.4,1.8-27.5,5.7c-11.6,5-21.2,11.6-28.7,19.5
	c1.1,2,2.2,3.9,3.4,5.8C243.9,441.5,252.5,435,263.3,430.2z M384,179.5c0.6-2.2,1.9-4.4,4-5.8c-4.9-0.1-9.7-0.2-14.4-0.3
	c3.7,4.2,7.3,8.4,10.6,12.7C383.6,184,383.5,181.7,384,179.5z M394.7,190.5c-2.3-0.6-4.5-2.1-5.2-4.6c-0.5-1.9-0.2-3.5,0.6-4.6
	c0.8-1.1,2.2-1.8,3.6-1.7c2.4,0.1,3.4,2.4,2.7,3.9c-0.6,1.2-1.7,1.6-2.6,1.4c-0.4-0.1-0.8-0.3-1.1-0.7c-0.2-0.3-0.3-0.8-0.1-1.3
	c0.1-0.2,0.5-0.1,0.4,0.1c-0.1,0.4-0.1,0.7,0.1,1c0.2,0.2,0.5,0.4,0.8,0.5c0.7,0.1,1.6-0.1,2.2-1.2c0.7-1.2-0.2-3.3-2.3-3.3
	c-1.3,0-2.5,0.6-3.3,1.6c-0.8,1-1.1,2.5-0.6,4.2c0.8,2.6,3.1,4,5.5,4.5c2.1-0.8,4.5-1.3,6.9-1.7c0.3-0.2,0.5-0.4,0.7-0.6
	c3.8-3.9,2.7-10.8-2-14.1c-4.2-0.1-8.3-0.1-12.4-0.2c-2.3,1.4-3.6,3.5-4.3,5.9c-0.7,2.5-0.4,5.3,0.6,7.5c1.6,2,3.1,3.9,4.6,5.9
	C391.2,192.1,392.9,191.2,394.7,190.5z M283.1,390.1c-0.4,0-0.7,0.1-1,0.1c-1.9,0.5-3.5,2.3-4.4,5.5c-0.9,3-1,7.3-0.1,12.6
	c5.3-1.8,10.7-3.1,16-3.9c-1.4-5.4-3.4-9.2-5.4-11.5C286.5,391,284.7,390.1,283.1,390.1z M310,380.5c0.3-0.3,0.6-0.7,1-1v-5.3
	c-3.4,0.1-6.8,0.4-10.3,0.9l1.9,18.4C304.7,387.9,307.2,383.6,310,380.5z M305.5,217.5C305.5,217.5,305.5,217.5,305.5,217.5
	c0.1,0,0.3,0.1,0.2,0.3c-1.8,5.7-1.9,11.6-3.4,17.4c-1.4,5.7-4.2,11.4-10.9,17c0.3,2.7,0.4,5.4,0.4,8.1v0.3c0.7-0.3,1.5-0.5,2.2-0.7
	c13.9-8.5,18.5-17.9,20.3-27.7c0.1-0.4,0.1-0.8,0.2-1.1v-0.1c1.2-7.8,0.8-15.8,2-23.7c-0.1-0.2-0.1-0.6,0.1-0.7
	c0.2-1.2,0.4-2.4,0.7-3.7c-1.7,0.3-3.4,0.5-5.1,0.7c-0.2,0.2-0.5,0.2-0.7,0.1c-7.6,0.9-15,1.5-22.7,3.5
	c-7.5,5.3-14.6,11.1-21.3,17.4c-0.6,0.6-1.3,1.2-1.9,1.8c-0.1,1.8-0.3,3.6-0.6,5.3C282.7,218.5,293.1,220.1,305.5,217.5z
	 M292.4,385.1c3.5,3.4,6.5,8.7,7.9,16.1c0.6-2.4,1.2-4.7,1.9-6.8l-2-19.2c-3.2,0.5-6.5,1.2-9.7,2l1.6,7.8
	C292.3,385,292.4,385,292.4,385.1z M291.7,384.5l-1.5-7.3c-3.2,0.8-6.4,1.9-9.6,3l0.1,0.5C284.5,380.3,288.4,381.5,291.7,384.5z
	 M216.8,308.3c-0.6,2.2-1.1,4.3-1.6,6.5c0.9,0,1.8,0.1,2.7,0.1C217.4,312.6,217,310.4,216.8,308.3z M313.8,374.1c-0.8,0-1.6,0-2.4,0
	v4.9c2.9-2.8,6.1-4.3,9.1-4.7C318.3,374.2,316.1,374.1,313.8,374.1z M279.4,380.9c0.4-0.1,0.7-0.1,1-0.2l-0.1-0.4
	c-3,1.1-6,2.4-8.9,3.8l0.7,1.6C274,383.2,276.6,381.6,279.4,380.9z M281.9,381.8c-0.7,0-1.5,0.1-2.2,0.3c-3.8,0.9-7.2,3.9-9.1,8.9
	c-1.7,4.8-1.9,11.6,0.6,19.9c1.9-0.8,3.9-1.6,5.8-2.3c-1-5.4-0.8-9.8,0.1-13c0.9-3.3,2.7-5.3,4.8-5.9c0.5-0.1,1.1-0.2,1.6-0.1
	c1.7,0.1,3.5,1.1,5.1,3c2.2,2.4,4.2,6.3,5.6,11.8c1.8-0.2,3.6-0.4,5.4-0.6c-1.3-8.5-4.4-14.3-8-17.9
	C288.5,383,285.1,381.7,281.9,381.8z M217.1,307.3c0.3,2.4,0.7,5,1.2,7.7c0.7,0.1,1.5,0.1,2.2,0.2c0.7-8.1,2-16.4,5-23.9
	c0.5-1.2,1.1-2.1,1.7-2.6c0.3-0.2,0.6-0.4,0.9-0.4c0.3-0.1,0.6,0,0.9,0.1c1.1,0.4,1.8,1.9,1.7,3.6c-0.1,5.1-1.1,10.4-1.9,15.6
	c3.3-10.2,8.7-16.5,15.3-20.8c-0.7-7.5-4.6-13.2-6.9-19.8c-1.7,0.9-3.3,1.9-4.9,2.9c-2.4,4.4-4.6,8.9-6.7,13.5
	C222.2,291.1,219.3,299.1,217.1,307.3z M242.5,404.6c-1.1,1.1-2.3,2.2-3.3,3.4l1,1C240.6,407.3,241.4,405.9,242.5,404.6z M261.9,238
	c1.6-3.5,2.3-7,2.6-10.6c-3,2.9-5.8,5.9-8.6,9c-0.2,1.7-0.5,3.4-1.1,5.1C257.1,240.1,259.5,239,261.9,238z M245.9,401.6l-0.1-0.2
	c-0.3,0.3-0.7,0.6-1,0.9c0.3-0.2,0.6-0.4,0.9-0.6C245.7,401.7,245.8,401.7,245.9,401.6z M257.3,400.5l-3.7-5.4
	c-2.5,1.9-5.1,4-7.4,6.2l0.2,0.2C249.4,399.8,253.3,399.3,257.3,400.5z M254.3,241.9c0.6-1.7,0.9-3.3,1.2-5
	c-4.1,4.6-7.9,9.4-11.4,14.3c0,0.1,0,0.1,0,0.2C247.2,247.3,250.6,244.2,254.3,241.9z M269.5,408.9c-0.7-2.8-1.1-5.5-1.3-7.9
	l-6.4-11.6c-2.7,1.7-5.3,3.5-7.9,5.3l4,5.8C261.8,401.8,265.8,404.5,269.5,408.9z M237.2,266.4C237.2,266.4,237.3,266.4,237.2,266.4
	c0.2,0,0.2,0,0.3,0.1c2.3,6.6,6.3,12.3,7,19.9c1.5-0.9,3-1.8,4.6-2.6c0.7-0.3,1.4-0.7,2.1-1c1.4-6.1-0.5-11.4-2.9-17.1
	c-1.7-3.9-3.6-8.1-4.8-12.9c-0.1-0.1-0.1-0.2-0.1-0.3c0-0.1,0-0.2-0.1-0.2c-3.8,5.4-7.3,11-10.5,16.8
	C234.2,268.1,235.6,267.2,237.2,266.4z M339.7,445.8c0-0.5-0.3-1-0.6-1.4c0.2,0.6,0.4,1.1,0.6,1.7
	C339.7,446,339.8,445.9,339.7,445.8z M374.1,499.1c0.2,0.2,0.5,0.4,0.7,0.6c-0.4-1.1-1.4-2-2.6-2.2c0.3,0.2,0.5,0.5,0.8,0.7
	C373.4,498.4,373.8,498.7,374.1,499.1z M481.6,390.6c0-0.2,0.1-0.5,0.1-0.7C481.6,390.1,481.6,390.3,481.6,390.6
	C481.6,390.5,481.6,390.6,481.6,390.6z M242.9,458.1C242.9,458.1,242.9,458.1,242.9,458.1C242.9,458.1,242.9,458.1,242.9,458.1
	C242.8,458,242.8,458.1,242.9,458.1z M413.2,539.8c0.4,0.1,0.8,0.3,1.2,0.4l2-0.6C415.3,539.7,414.3,539.8,413.2,539.8z
	 M327.2,526.9l-0.4-2.2c-0.2-0.1-0.3-0.1-0.4-0.2l0.5,2.4C327,526.9,327.1,526.9,327.2,526.9z"/>
</svg>
