<?xml version="1.0" encoding="utf-8"?>
<!-- Generator: Adobe Illustrator 24.3.0, SVG Export Plug-In . SVG Version: 6.00 Build 0)  -->
<svg version="1.1" id="Mandala_Letter" xmlns="http://www.w3.org/2000/svg" xmlns:xlink="http://www.w3.org/1999/xlink" x="0px"
	 y="0px" width="828px" height="828px" viewBox="0 0 828 828" style="enable-background:new 0 0 828 828;" xml:space="preserve">
<style type="text/css">
	.st0{fill:none;stroke:#000000;stroke-miterlimit:10;}
</style>
<path class="st0" d="M0.1,827V0h827.3v827.3H0.1v-0.2 M444.9,381c-0.4,0.9-0.4,2.1,0.1,3.4c0.5,1.4,1.5,2.9,3.2,4.7
	c3.2,3.4,8.8,7.3,17.4,11.6c0.2-1,0.5-2,1.1-3c-2.4,0-4.5-0.3-6.5-1c-4.8-1.8-8.3-6.2-11.4-14.5c-0.4-1.1-0.8-2.2-1.3-3.3
	C446.2,379.2,445.3,379.9,444.9,381z M519.2,421.7c0.9-1.8,2-3.5,3.2-5.1l-6.1-6.8c-3.6,0.3-6.9-0.1-9.6-1.9c-1.4-1-2.6-2.4-3.5-4.4
	c0,0-0.1,0.1-0.1,0.1c0.1,0.5,0.1,1.1,0.2,1.6L519.2,421.7z M506.9,418.9l9.9,8.4c0.6-1.8,1.4-3.6,2.2-5.3l-15.7-16.4
	C504,410.7,505.3,415.1,506.9,418.9z M466.1,409.7c-0.2-1.8-0.5-3.5-0.6-5.3c-3.1,6.1-5.7,12.3-7.6,18.4c1.2,0.1,2.3,0.2,3.5,0.4
	C466.2,418.2,466.5,413.8,466.1,409.7z M497.9,411.2l5.9,5c-1.1-3.2-1.9-6.7-2.5-10.5c-0.6,0.7-1.2,1.5-1.7,2.3
	C499,409.2,498.5,410.3,497.9,411.2z M457.7,419.9c0.7-2,1.4-3.9,2.2-5.8c-7.7-3-13.9-4.3-18.4-4.2c-0.3,0-0.6,0-0.9,0
	c-2.3,0.1-4.1,0.5-5.4,1.2c-1.3,0.7-2.1,1.6-2.3,2.7c-0.3,1.4,0.2,3.1,1.9,4.7c1.5,1.5,4,2.9,7.4,4.1c0.3,0,0.5-0.1,0.8-0.1
	c1.6-0.1,3.2-0.2,4.8-0.2c3.1,0,6.1,0.1,9.1,0.3c0.3-0.8,0.5-1.7,0.8-2.5l-8.9-2.2c-0.4,0.9-1.3,1.5-2.3,1.5c-1.4,0-2.4-1.1-2.4-2.4
	c0-1.3,1.1-2.4,2.4-2.4c1.4,0,2.4,1.1,2.4,2.4c0,0.2,0,0.4-0.1,0.6L457.7,419.9z M321.5,396.8c-1.7-4.9-4.8-7.8-8.2-8.4
	c-0.5-0.1-0.9-0.1-1.4-0.1c-2.2-0.1-4.5,0.7-6.8,2.4c5.3,5.8,11.2,11.3,17.7,16.3C322.9,403,322.4,399.6,321.5,396.8z M481.7,419.9
	c0.1,0,0.2,0,0.2,0.1c1.1-0.2,2.1-0.5,3.1-0.8c4.1-1.2,7.8-3.2,10.7-6.7c2.4-3,4.1-7,5-12.7c0-0.2,0-0.4,0-0.6
	c-2.4,5.7-6,9.3-10.3,11.6c-5,2.7-10.8,3.9-16.5,5.1c-0.1,0.1-0.2-0.1-0.2-0.2c1.4-3.3,0.6-7.5,0.4-11.2c-0.1-1.9-0.1-3.7,0.5-5.3
	c0.4-1.1,1.1-2,2-2.8c-3.2,0.7-6.2,1.2-8.8,1.3c-1,1.5-1.4,3.1-1.5,4.7v0.8c0,2,0.4,4.2,0.7,6.4c0.4,4.1,0.1,8.7-4.4,13.7
	c5.4-1.8,12.3-1.9,18.6-3.2C481.4,420,481.5,419.9,481.7,419.9z M432.5,413.7c0.3-1.2,1.1-2.2,2.5-3c1.4-0.7,3.2-1.2,5.6-1.3
	c3.3-0.1,7.6,0.5,12.8,2c-5.5-2.4-9.5-4.6-12.2-6.9c-1.8-1.5-3-3-3.5-4.5c-0.6-1.5-0.5-2.9,0.1-4.3c0.6-1.4,1.8-2.3,3.5-2.6
	c1.7-0.4,3.8-0.2,6.3,0.3c3.2,0.7,7.1,2.1,11.4,4c-5.1-3-8.8-5.7-11.1-8.2c-1.7-1.7-2.7-3.3-3.2-4.8c-0.5-1.4-0.5-2.7-0.1-3.7
	c0.5-1.1,1.5-2,2.9-2.4c-0.6-1.7-1.3-3.4-2.1-5c-6.4,11.3-11.6,24-15.2,37c1.9,4.2,3.6,8.4,5.1,12.8c2-0.3,4-0.5,6-0.6
	c-3.1-1.2-5.3-2.5-6.8-3.9C432.8,417.1,432.1,415.3,432.5,413.7z M462.9,407.1c0.8-1.6,1.6-3.3,2.5-4.9c0-0.4,0.1-0.8,0.1-1.2
	c-6.9-3.6-13.2-6.2-18-7.2c-1.5-0.3-2.9-0.5-4.1-0.5c-0.7,0-1.4,0.1-2,0.2c-1.6,0.3-2.7,1.1-3.3,2.4c-0.6,1.3-0.6,2.6-0.1,4
	c0.5,1.4,1.7,2.9,3.5,4.4c3.5,3,9.6,6.1,18.5,9.4c0.9-2.1,1.8-4.2,2.8-6.3l-9.6-4.5c-0.4,0.7-1.2,1.2-2.1,1.2
	c-1.4,0-2.5-1.1-2.5-2.4c0-1.4,1.1-2.4,2.5-2.4c1.3,0,2.4,1.1,2.4,2.4c0,0.3-0.1,0.7-0.2,1L462.9,407.1z M466.3,424
	c0.1-0.2,0.2-0.5,0.3-0.7c-0.6,0.1-1.3,0.3-1.9,0.4C465.3,423.8,465.8,423.9,466.3,424z M501.1,404.8c-0.1-0.4-0.1-0.8-0.1-1.2
	c-0.2,0.8-0.4,1.5-0.6,2.2C500.6,405.4,500.9,405.1,501.1,404.8z M324.7,504.3c-7.6,5-16.4,7.2-24.2,6.3c-7.8-1-14.6-5.1-17.9-12.7
	c-1.5-3.5-2-7.3-1.4-10.8c-1.8,1.9-3.5,3.9-5,6.1c-0.4,0.6-0.8,1.2-1.2,1.8c0.9,6.8,4.8,13.1,10.8,17.3c9.5,6.8,24.3,8.6,40.7-0.9
	c13.6-7.8,20-25.3,17.2-42.4c-1.5-0.2-2.9-0.3-4.5-0.4c-0.5,0-1.1-0.1-1.6-0.1c0.6,3,0.9,6,0.8,9
	C338.4,487.8,334.2,497.9,324.7,504.3z M528.8,480.6c-5.2-9.6-11.5-18.2-18.9-25.4c7.1,7.9,12.9,17,17.3,26.8
	C527.8,481.5,528.3,481,528.8,480.6z M497.7,444.8c-0.3-0.2-0.5-0.4-0.8-0.5c-0.4-0.3-0.8-0.5-1.2-0.8l-0.8,20.7l19.1-3
	C509.2,455.1,503.8,449.6,497.7,444.8z M534.5,508.6c-0.3-1.5-0.6-3.1-0.9-4.6l-5.1,4.8C530.3,509.3,532.4,509.2,534.5,508.6z
	 M533.4,503.2c-0.5-2.1-1-4.1-1.6-6.1c0,0-0.1,0-0.1,0l-10.3-1.5c-0.5,2-0.5,3.9-0.2,5.7L533.4,503.2z M479,434.8
	c-7.5-2.9-15.4-4.8-23.7-5.5l7.1,18.8L479,434.8z M531.5,496c-1.2-3.9-2.5-7.6-4-11.3c-2.3,2.5-4.2,5.4-5.3,8.3
	c-0.2,0.5-0.4,1-0.5,1.5L531.5,496z M527.1,508.3c0.3,0.2,0.6,0.3,1,0.4l5.1-4.9l-11.8-2C522.2,504.5,523.9,506.7,527.1,508.3z
	 M434.7,429.7c-5.6,0.7-11.3,1.9-17.1,3.6c-1.5,0.5-3,1-4.5,1.5l12.7,13.4L434.7,429.7z M429.9,464.4c3.8-0.9,7.6-1.5,11.3-1.8
	c0.1-6.5,0.5-11.4,1.2-14.8c0.3-1.6,0.7-2.9,1.1-3.8c0.2-0.4,0.4-0.7,0.6-1c0.2-0.2,0.5-0.4,0.7-0.4c0.3,0,0.5,0.1,0.7,0.3
	c0.2,0.2,0.4,0.5,0.6,1c0.4,0.8,0.7,2.1,1,3.7c0.5,3.3,0.8,8.2,0.7,14.8c3.6,0.1,7.1,0.4,10.5,1l-13.1-34L429.9,464.4z M480.1,435.3
	C480.1,435.3,480,435.3,480.1,435.3l-17.6,14.1c-0.3,0.2-0.7,0.1-0.8-0.2l-7.5-19.8v-0.1c-2.2-0.2-4.3-0.3-6.6-0.3h-1.9l13.2,34.3
	l28-24.8C484.7,437.3,482.4,436.2,480.1,435.3z M445.8,444.1c-0.2-0.4-0.4-0.7-0.5-0.8c-0.2-0.2-0.3-0.2-0.4-0.2
	c-0.2,0-0.3,0.1-0.5,0.3c-0.2,0.2-0.4,0.5-0.6,0.9c-0.4,0.8-0.7,2.1-1.1,3.7c-0.6,3.3-1.1,8.2-1.2,14.7c2-0.1,4-0.2,5.9-0.2
	c0.1-6.6-0.2-11.5-0.7-14.7C446.5,446.1,446.2,444.9,445.8,444.1z M435.9,429.6c0,0.1,0,0.1-0.1,0.2l-9.4,19.6
	c-0.2,0.3-0.6,0.4-0.8,0.1l-13.5-14.2c-3.1,1.2-6.1,2.7-8.9,4.4l26.1,24.5l15.5-35.3C441.8,429,438.9,429.2,435.9,429.6z
	 M270.8,519.1l10-9.4c-0.8-0.9-1.6-1.8-2.4-2.9l-8.1,4.8C270.3,514,270.4,516.5,270.8,519.1z M467.4,423.1c-0.1,0.3-0.3,0.6-0.4,1
	c3.8,0.7,7.5,1.6,11.1,2.7c0.8-1.9,1.7-3.8,2.6-5.6C476.1,422,471.5,422.4,467.4,423.1z M316.2,480.2c-0.7,0.7-3,2.7-6.2,4.1
	c-3.3,1.4-7.5,2.1-11.8,0.2c-1.5-0.7-2.7-1.8-3.4-3c-0.8-1.2-1.2-2.6-1-3.9c0,0,0,0,0,0c-1.3,0.7-2.5,1.4-3.7,2.2
	c-0.6,2.1-0.1,4.3,1.2,6.4c3,4.7,10.2,8.4,19,6.2c8-2,14-10.2,14.5-19.6c0.1-1.4,0-2.8-0.2-4.2c-1.4,0.1-2.7,0.3-4.1,0.5
	C320.4,473.6,318.9,477.3,316.2,480.2z M314.4,477.8L314.4,477.8c1.1-2.3,1.5-4.9,1.3-7.5l-18.4,12.3c0.4,0.3,0.9,0.6,1.4,0.8
	c0.3,0.2,0.6,0.3,1,0.4L314.4,477.8C314.3,477.8,314.3,477.8,314.4,477.8z M515,443.9c-0.2-1.8-0.2-3.6-0.2-5.4l-25.3-13.7
	c-0.8,1.7-1.6,3.5-2.3,5.3c1.8,0.8,3.6,1.6,5.3,2.5c5.8,2.6,11.2,5.4,16.3,8.7L515,443.9z M314.1,478.4c0-0.1,0.1-0.1,0.1-0.2
	l-14.1,5.8c3.3,1,6.5,0.4,9.1-0.6C311.1,482.4,312.8,480.7,314.1,478.4z M485.3,420.1c-1,0.3-2.1,0.6-3.2,0.8c-1,2-2,4.1-2.9,6.2
	c2.5,0.8,4.9,1.7,7.2,2.7c2-4.9,4.3-9.5,6.8-13.6C490.9,418.1,488.2,419.3,485.3,420.1z M314.4,478.6c-0.9,1.6-2,3-3.3,4
	c2.3-1.2,4-2.7,4.4-3.1c2.4-2.6,3.9-6.1,4-10.2c-1.2,0.2-2.4,0.4-3.5,0.6C316.3,472.8,315.8,475.9,314.4,478.6z M325.5,472.9
	c-0.5,9.6-6.6,18.1-15,20.2c-9.1,2.2-16.6-1.5-19.8-6.5c-0.1-0.2-0.2-0.4-0.3-0.6c0.6,1.5,0.6,2.9,0,4.1c-0.7,1.4-2.1,2.3-3.8,2.4
	c-1.2,0-2.2-0.4-2.9-1.1c-0.7-0.7-1-1.6-0.7-2.5c0.3-0.8,0.8-1.3,1.5-1.5c0.7-0.2,1.5-0.1,2.3,0.5c0.2,0.1,0,0.4-0.2,0.3
	c-0.7-0.5-1.4-0.6-2-0.4c-0.6,0.2-1,0.6-1.2,1.3c-0.3,0.8,0,1.6,0.6,2.2c0.6,0.6,1.5,1,2.7,1c1.6,0,2.9-0.9,3.5-2.1
	c0.6-1.3,0.6-3-0.5-4.6c-0.8-1.2-2.2-2-3.7-2.5c-1.4,1.1-2.7,2.3-4,3.5c-0.8,3.6-0.4,7.6,1.2,11.3c0.5,1.2,1.2,2.3,1.8,3.3
	c-0.1-0.4-0.1-0.7-0.2-1.2c-0.3-5.1,3.3-8.4,7.1-8.8c2.6-0.3,5.2,0.8,6.6,2.9c1.2,1.8,1.2,3.6,0.5,5s-2.1,2.3-3.8,2.3
	c-1.2,0-2.3-0.4-2.9-1.1c-0.7-0.7-1-1.6-0.7-2.5c0.3-0.7,0.8-1.3,1.5-1.5c0.7-0.2,1.5-0.1,2.3,0.5c0.2,0.1,0,0.4-0.2,0.3
	c-0.7-0.5-1.4-0.6-2-0.4c-0.6,0.2-1,0.7-1.3,1.3c-0.3,0.8,0,1.5,0.6,2.2c0.6,0.6,1.5,1,2.6,1c1.6,0,2.9-0.9,3.5-2.2
	c0.6-1.3,0.6-3-0.5-4.7c-1.3-1.9-3.8-3-6.2-2.7c-3.6,0.4-7.1,3.5-6.8,8.5c0.1,0.8,0.1,1.4,0.4,2c3.6,4.8,9,7.5,15.1,8.2
	c1.7,0.2,3.5,0.3,5.3,0.2c-4.1-0.7-7.1-3.8-7.3-7.5c-0.3-5.1,3.3-8.4,7.1-8.8c2.6-0.3,5.3,0.8,6.6,2.9c1.2,1.8,1.2,3.6,0.5,5
	c-0.7,1.4-2.1,2.3-3.8,2.3c-1.2,0-2.2-0.4-2.9-1.1c-0.7-0.7-1-1.6-0.7-2.5c0.3-0.7,0.8-1.3,1.5-1.5c0.7-0.2,1.5-0.1,2.3,0.5
	c0.2,0.1,0,0.4-0.2,0.3c-0.7-0.5-1.4-0.6-2-0.4c-0.6,0.2-1,0.7-1.2,1.3c-0.3,0.8,0,1.5,0.6,2.2c0.6,0.6,1.5,1,2.7,1
	c1.6,0,2.9-0.9,3.5-2.2c0.6-1.3,0.6-3-0.5-4.6c-1.3-1.9-3.8-3-6.3-2.7c-3.6,0.4-7.1,3.5-6.8,8.5c0.3,4.1,4,7.3,8.9,7.4
	c4.7-0.5,9.6-2.1,14.1-4.6c-2.3,0-4.6-0.9-6.6-3c-1.5-1.6-2.4-4.2-2.1-6.7c0.2-2.5,1.7-4.8,4.7-5.8c0.5-0.2,1-0.3,1.5-0.3
	c1.5-0.1,2.7,0.3,3.7,1c1.3,1,1.9,2.6,1.7,4.3c-0.3,2.4-2.9,3.6-4.6,2.6c-0.7-0.4-1.2-1.1-1.3-1.8c-0.1-0.7,0.3-1.5,1-2.1
	c0.2-0.1,0.4,0.1,0.2,0.3c-0.7,0.6-1,1.2-0.9,1.8c0.1,0.6,0.5,1.2,1.1,1.6c1.5,0.9,3.9-0.1,4.2-2.3c0.2-1.6-0.4-3.1-1.6-4
	c-1.2-0.9-2.9-1.3-4.9-0.7c-3,0.9-4.3,3.1-4.5,5.4c-0.3,2.4,0.6,4.9,2.1,6.4c2.1,2.2,4.6,3,7,2.9c0.7-0.4,1.3-0.8,2-1.2
	c5.1-3.4,8.7-8,10.9-13.1c-3.1,3.1-8.7,3.3-11.7,0c-1.6-1.8-2-4.4-1.3-6.5c0.6-1.8,2.1-3.3,4.2-3.5c0.3,0,0.6,0,1,0
	c2.1,0.2,3.3,1.6,3.5,3.1c0.2,1.5-0.5,3-2.2,3.5c-0.7,0.2-1.5,0.1-2.1-0.4c-0.6-0.5-0.8-1.3-0.6-2.2c0.1-0.2,0.4-0.2,0.3,0.1
	c-0.2,0.8,0.1,1.5,0.5,1.9c0.4,0.4,1.1,0.6,1.7,0.4c1.5-0.5,2.1-1.8,1.9-3.2c-0.2-1.3-1.2-2.6-3.2-2.8c-2.5-0.3-4.1,1.2-4.8,3.2
	c-0.7,2-0.4,4.5,1.2,6.2c3.1,3.3,9,2.9,11.8-0.7c1.4-3.6,2.1-7.5,2.3-11.4c-0.8,1.6-2.5,2.6-4.4,3c-2.4,0.4-5.1-0.3-6.9-2.3
	c-1.5-1.7-1.8-4.1-1.1-6.1c0.7-2,2.5-3.5,4.9-3.3c2,0.2,3.1,1.5,3.3,2.9c0.2,1.4-0.5,2.9-2,3.3c-0.7,0.2-1.5,0-2.1-0.4
	c-0.5-0.4-0.8-1.2-0.4-2.1c0.1-0.2,0.4-0.1,0.3,0.1c-0.3,0.8-0.1,1.4,0.3,1.7c0.5,0.4,1.2,0.5,1.8,0.3c1.3-0.3,2-1.6,1.8-2.9
	c-0.2-1.3-1.1-2.5-3-2.6c-2.3-0.2-3.9,1.2-4.6,3.1c-0.7,1.8-0.5,4.2,1,5.7c1.7,1.9,4.3,2.6,6.6,2.2c2.1-0.4,3.9-1.6,4.4-3.6
	c0-3-0.3-6-0.9-9c-0.7,0-1.3-0.1-2-0.1c-1.4,1-3.5,1.5-5.7,0.9c-0.8-0.2-1.5-0.5-2.1-0.8c-0.7,0-1.4,0.1-2.1,0.1
	C325.5,470,325.5,471.4,325.5,472.9z M549.8,489.1c-2.1-4.4-4.4-8.7-7-12.7c-1.6,0.4-3.3,0.8-5.1,1.5c3.5,6.5,6.4,13.5,8.8,20.7
	C548.1,495.9,549.2,492.7,549.8,489.1z M541.6,474.6c-9.5-14.4-22.2-26.3-38-35.4c13.6,9.3,24.8,22,33.1,36.8
	C538.4,475.4,540,474.9,541.6,474.6z M535.4,508.3c1.3-0.4,2.6-1.1,3.9-1.9c-2.4-8.5-5.6-16.5-9.4-24c-0.6,0.5-1.2,1-1.7,1.6
	C531.4,491.8,533.8,499.9,535.4,508.3z M543.3,503c0.9-1,1.8-2.1,2.5-3.3c-2.4-7.6-5.4-14.7-9.1-21.5c-0.1,0-0.1,0.1-0.2,0.1
	c-2.1,0.8-4.2,2.1-6.1,3.6c3.9,7.4,7,15.5,9.5,24C541.1,505.1,542.3,504.1,543.3,503z M516.9,493.8l2.7,0.4c0.2-0.7,0.4-1.3,0.6-1.9
	c1.3-3.5,3.6-6.8,6.4-9.6c-0.8-1.9-1.7-3.7-2.6-5.5L516.9,493.8z M328.1,468.4c0.5,0.2,0.9,0.4,1.5,0.5c1.9,0.4,3.7,0.1,5-0.6
	C332.4,468.2,330.2,468.3,328.1,468.4z M340,544.1l-0.6,6.3c1-0.1,2-0.1,3-0.1c0.5,0,1,0,1.5,0l1-5.2
	C343.3,544.7,341.7,544.4,340,544.1z M377,569.7l-0.4,0.2c0.7,1.5,1.3,3,1.8,4.5l0.7-0.3C378.5,572.6,377.8,571.2,377,569.7z
	 M374.4,565.3l-0.3,0.2c0.9,1.3,1.7,2.6,2.4,4l0.3-0.2C376.1,568,375.3,566.7,374.4,565.3z M371.4,561.4l-0.4,0.4
	c1.1,1.1,2.1,2.3,2.9,3.5l0.3-0.2C373.3,563.8,372.4,562.6,371.4,561.4z M394.4,363.7c1,0.8,2,1.7,3,2.6c-1.1-1.5-2.1-3.2-2.7-5
	C394.5,362.1,394.5,362.9,394.4,363.7z M367.8,557.6l-0.6,0.8c1.3,1,2.5,2.1,3.6,3.2l0.4-0.4C370.1,559.9,369,558.7,367.8,557.6z
	 M379.7,575.6c-0.1-0.4-0.3-0.7-0.4-1.1l-0.7,0.3c0.3,1.1,0.6,2.2,0.8,3.2L379.7,575.6z M379.2,591.2l3.1-4.2
	c-0.1-0.5-0.1-1-0.2-1.5l-2.3-3.9C380,585,379.8,588.2,379.2,591.2z M345.2,545.2l-1,5.1c1.5,0.1,2.9,0.2,4.4,0.4l1.2-4.1
	C348.3,546.1,346.8,545.6,345.2,545.2z M325.8,370.1l-1.1,8.9c8.8,1.8,17.2,4.8,24.9,8.9l4.5-7.6
	C345.5,375.6,335.9,372.1,325.8,370.1z M364.6,554.8c-0.2-0.2-0.5-0.4-0.7-0.5l-0.9,1.3c1.3,0.8,2.6,1.6,3.8,2.5l0.7-0.8
	C366.6,556.5,365.6,555.6,364.6,554.8z M381.4,576.2c0.7-0.7,1.4-1.3,2.2-1.8c-1.1-0.3-2.2-0.6-3.2-1
	C380.7,574.4,381,575.3,381.4,576.2z M350.2,546.7l-1.2,4c1.6,0.2,3.1,0.5,4.6,1l1.3-3C353.4,548,351.8,547.3,350.2,546.7z
	 M359.7,551.3l-1.1,2.1c1.4,0.6,2.8,1.3,4.2,2.1l0.9-1.4C362.4,553.1,361.1,552.2,359.7,551.3z M319.4,342.9l-3.5,34.7
	c2.7,0.3,5.4,0.7,8.1,1.2l4.4-34.9C325.3,343.5,322.4,343.2,319.4,342.9z M321.3,375.9c-0.5,0.6-1.5,0.7-2.1,0.2
	c-0.7-0.5-0.8-1.5-0.2-2.2c0.3-0.4,0.7-0.6,1.2-0.6c0.4,0,0.7,0.1,1,0.3C321.8,374.3,321.9,375.2,321.3,375.9z M321.9,370.1
	c-0.5,0.6-1.5,0.7-2.1,0.2c-0.7-0.5-0.8-1.5-0.2-2.2c0.3-0.4,0.7-0.6,1.2-0.6c0.4,0,0.7,0.1,1,0.3
	C322.4,368.5,322.5,369.5,321.9,370.1z M322.7,364.2c-0.5,0.6-1.5,0.7-2.2,0.2c-0.6-0.5-0.8-1.5-0.2-2.2c0.3-0.4,0.7-0.6,1.2-0.6
	c0.3,0,0.7,0.1,1,0.3C323.1,362.6,323.2,363.5,322.7,364.2z M323.3,358.4c-0.5,0.7-1.5,0.8-2.2,0.3c-0.6-0.5-0.7-1.5-0.2-2.2
	c0.3-0.4,0.7-0.6,1.2-0.6c0.3,0,0.7,0.1,1,0.3C323.7,356.8,323.8,357.8,323.3,358.4z M324,352.9c-0.5,0.6-1.5,0.8-2.2,0.2
	c-0.7-0.5-0.8-1.5-0.2-2.2c0.3-0.4,0.7-0.6,1.2-0.6c0.3,0,0.7,0.1,1,0.3C324.4,351.2,324.5,352.2,324,352.9z M322.4,347.8
	c-0.7-0.5-0.8-1.5-0.2-2.2c0.3-0.4,0.7-0.6,1.2-0.6c0.4,0,0.7,0.1,1,0.3c0.7,0.5,0.8,1.5,0.2,2.2C324,348.2,323.1,348.3,322.4,347.8
	z M355.2,548.9l-1.2,3c1.5,0.4,2.9,0.9,4.3,1.5l1.1-2.1C358,550.3,356.6,549.5,355.2,548.9z M410.9,380.1c0.1-1.6,0.2-3.5,0.2-5.3
	c-3-0.6-5.7-1.7-8.1-3.2C405.7,374.3,408.4,377.1,410.9,380.1z M403,398.1l6.8-4.6c-8.3-11.5-18.7-21.5-30.5-29.5l-4.7,6.2
	C385.6,377.8,395.2,387.3,403,398.1z M515.2,445.7c-0.1-0.5-0.1-0.9-0.2-1.4l-4.7-2C512,443.4,513.7,444.5,515.2,445.7z
	 M369.2,377.4l-5.9,7.9c9.4,6.3,17.6,14.2,24.4,23.1l7.8-5.2C388.3,393.2,379.4,384.5,369.2,377.4z M427.1,372.8
	c-1.7,0.8-3.5,1.4-5.3,1.8c-0.2,6.5-0.8,12.4-1.4,18.2c0.5,0.7,1,1.5,1.5,2.3c1.5-4,3.1-8,4.9-12C427,379.8,427.1,376.5,427.1,372.8
	z M412.1,375c0,2.2-0.1,4.6-0.3,6.3c3,3.5,5.7,7.2,8.2,11.1c0.6-5.6,1.2-11.4,1.3-17.7C418.2,375.3,415.1,375.4,412.1,375z
	 M334.8,543.5v7.3c1.4-0.2,2.8-0.4,4.2-0.5l0.6-6.3C338.1,543.8,336.5,543.6,334.8,543.5z M427.4,372.6c0,3.4,0,6.5-0.3,9.5
	c2.1-4.7,4.5-9.2,7-13.7C431.9,370.2,429.7,371.6,427.4,372.6z M471.3,565.7c-2.2-1.4-4.5-2.9-6.8-5.3c-0.5,7.7,1.1,13.2,4.1,17.1
	c2.9,3.8,7.2,6.1,12.5,7.6c0.1-0.2,0.3-0.3,0.5-0.4c-1.2-7.6-2-11-4.4-14.3C475.6,568.5,473.6,567.2,471.3,565.7z M364.1,363.8
	l3.9-6.6c-11.9-6.4-25-10.9-38.9-13.1l-0.9,7.1C341,353.5,353.1,357.8,364.1,363.8z M318.5,342.9c-3.1-0.2-6.2-0.3-9.3-0.3
	c-10.1,0-19.8,1-29,3l1.4,6.7c8.5-1.8,17.3-2.8,26.3-2.8c3.3,0,6.7,0.1,9.9,0.4L318.5,342.9z M450,585.8c-4.4-1.6-7.7-4.9-9.1-9.2
	c-0.1-0.2,0.1-0.3,0.3-0.3h0.1c2.4,0.8,4.3,0.6,6.2,0.5c1.5-0.2,3-0.3,4.5,0.1c-0.9-1.2-1.6-2.5-2.2-3.8c-0.2-0.5-0.4-0.9-0.6-1.4
	c-2.5-0.8-5.2-1.3-8-1.3c-3.8-0.1-7.8,0.7-11.5,2.3c3.3,2.6,5.2,7,7.6,11c2.5,4.1,5.7,7.8,11.7,8.6c5.4,0.8,14.2-1,21.8-6.1
	c-2-0.2-3.9-0.5-5.7-0.9C459.6,587.3,454.3,587.4,450,585.8z M447.5,577.2c-1.8,0.2-3.7,0.3-5.9-0.4c1.5,4,4.5,7,8.6,8.5
	c4,1.4,8.9,1.5,14.1-0.3c-1.4-0.4-2.7-0.8-3.9-1.4c-3.4-1.5-6-3.6-7.9-6.1C450.8,576.9,449.3,577,447.5,577.2z M363.9,364.1
	c-10.9-6-23-10.3-35.8-12.5l-1,7.9c11.6,2.2,22.6,6.1,32.5,11.6L363.9,364.1z M483.5,531.4c0.1,0,0.2,0.1,0.3,0.2
	c1.6,4.5,4,8.9,3.3,13.8c2.1-1.3,4.4-2.1,6.8-2.7c1.5-6.2,0.3-10.3-1.6-13.7c-2-3.4-4.8-6.3-6.6-9.9c-2.7,3.5-5.9,6.5-8.5,10.2
	c-2.5,3.6-4.3,7.8-4.4,13.6c1.5,0.8,3,1.7,4.4,2.7c0.3-6.9,3.7-10,6.1-14.1C483.4,531.5,483.4,531.4,483.5,531.4z M325.9,369.8
	c10.1,2,19.7,5.5,28.5,10.2l5.1-8.6c-9.9-5.4-20.9-9.4-32.4-11.6L325.9,369.8z M379.5,579.1c0.1,0.6,0.2,1.2,0.2,1.8l2.3,3.8
	c-0.4-2.9-1.1-5.7-2.1-8.4L379.5,579.1z M301.7,519.1l-1.8,18.2c2,0.3,3.9,0.4,5.9,0.4v-18.6C304.4,519.2,303,519.2,301.7,519.1z
	 M297.2,518.5l-3.5,17.6c2,0.5,3.9,0.9,5.9,1.2l1.7-18.2C299.9,519,298.5,518.8,297.2,518.5z M288.8,515.6l-8.6,14.9
	c2,1.2,4,2.2,6.2,3.1l6.2-16.4C291.2,516.8,290,516.2,288.8,515.6z M292.8,517.3l-6.2,16.5c2.2,0.9,4.4,1.6,6.7,2.3l3.5-17.6
	C295.4,518.2,294.1,517.8,292.8,517.3z M342.2,497.3l-0.7-0.5c-0.5,1.2-1.2,2.3-1.8,3.4l1.4,1.2C341.4,500,341.8,498.6,342.2,497.3z
	 M339.3,513.7l-5.3-6.4c-1,1-2,1.8-3.1,2.7l8.5,12.6C339.2,519.7,339.2,516.7,339.3,513.7z M285,513.3c-0.1-0.1-0.2-0.1-0.2-0.2
	l-10.6,13.2c1.2,1,2.5,1.9,3.8,2.8c0.6,0.4,1.2,0.8,1.8,1.2l8.6-14.9C287.3,514.8,286.1,514.1,285,513.3z M334.3,507.1l5.1,6.1
	c0.1-2,0.3-4,0.6-6l-3.1-3.1C336.1,505.2,335.2,506.1,334.3,507.1z M342.8,538.1c-2,1.5-4.1,3-6.2,4.2c3,0.3,5.9,0.8,8.8,1.5
	C344.4,541.9,343.6,540,342.8,538.1z M323.4,514.6l7.1,17.1c1.7-1,3.5-2.2,5.1-3.5l-8.4-15.6C325.9,513.3,324.6,514,323.4,514.6z
	 M343.5,493.1l-0.4-0.2c-0.4,1.2-0.9,2.4-1.5,3.6l0.7,0.4C342.6,495.6,343,494.4,343.5,493.1z M315.1,517.7l3.7,18.7
	c2-0.5,3.9-1.1,5.8-1.8l-5.5-18.1C317.7,516.9,316.4,517.3,315.1,517.7z M319.4,516.3l5.5,18.1c1.8-0.7,3.5-1.6,5.3-2.6l-7.1-17.1
	C321.8,515.3,320.6,515.8,319.4,516.3z M310.8,518.7l1.9,18.8c2-0.2,3.9-0.6,5.8-1.1l-3.7-18.6C313.4,518.2,312.1,518.4,310.8,518.7
	z M306.2,519.2v18.6c2.1,0,4.1-0.1,6.1-0.3l-1.9-18.8C309,519,307.6,519.1,306.2,519.2z M330.7,510.2c-1,0.8-2.1,1.5-3.3,2.2
	l8.4,15.5c1.3-1.1,2.6-2.2,3.8-3.4c-0.1-0.4-0.1-0.8-0.1-1.3L330.7,510.2z M318.7,544.7l3.1,10c1.3-0.6,2.5-1.1,3.9-1.5l-1.9-9.4
	C322.1,544.1,320.4,544.4,318.7,544.7z M324.1,543.9l1.8,9.2c1.3-0.4,2.6-0.8,3.9-1.2l-0.8-8.5C327.4,543.5,325.8,543.7,324.1,543.9
	z M309.1,547.4c-0.4,0.2-0.8,0.3-1.2,0.5l6,11.1c1.2-0.8,2.4-1.5,3.6-2.2l-4.4-10.7C311.8,546.5,310.5,547,309.1,547.4z M313.5,546
	l4.4,10.7c1.2-0.6,2.4-1.2,3.6-1.8l-3.1-10.1C316.7,545.2,315.1,545.6,313.5,546z M329.4,543.5l0.8,8.4c1.4-0.4,2.9-0.6,4.3-0.9
	v-7.4c-1.2-0.1-2.5-0.1-3.7-0.1C330.3,543.4,329.8,543.5,329.4,543.5z M368.8,357.6l-18.4,30.6c2.3,1.2,4.5,2.5,6.7,3.9l21.5-28.7
	C375.4,361.4,372.2,359.4,368.8,357.6z M356.5,388.7c-0.8,0.3-1.7,0-2-0.8c-0.3-0.8,0-1.7,0.8-2c0.2-0.1,0.4-0.1,0.6-0.1
	c0.6,0,1.2,0.4,1.4,0.9C357.7,387.4,357.3,388.3,356.5,388.7z M359.7,383.9c-0.8,0.4-1.7,0-2-0.8c-0.3-0.8,0-1.7,0.8-2
	c0.2-0.1,0.4-0.1,0.6-0.1c0.6,0,1.2,0.3,1.4,0.9C360.9,382.6,360.5,383.5,359.7,383.9z M363.1,378.9c-0.8,0.4-1.7,0-2-0.8
	c-0.4-0.8,0-1.7,0.8-2c0.2-0.1,0.4-0.1,0.6-0.1c0.6,0,1.2,0.3,1.4,0.9C364.3,377.7,363.9,378.6,363.1,378.9z M366.3,374.1
	c-0.8,0.3-1.7,0-2-0.8c-0.3-0.8,0-1.7,0.8-2c0.2-0.1,0.4-0.1,0.6-0.1c0.6,0,1.2,0.4,1.4,0.9C367.5,372.9,367.1,373.8,366.3,374.1z
	 M369.6,369.5c-0.8,0.3-1.7,0-2-0.8c-0.4-0.8,0-1.7,0.8-2c0.2-0.1,0.4-0.1,0.6-0.1c0.6,0,1.2,0.4,1.4,0.9
	C370.7,368.3,370.4,369.2,369.6,369.5z M372.5,365.1c-0.8,0.4-1.7,0-2-0.8c-0.3-0.8,0-1.7,0.8-2c0.2-0.1,0.4-0.1,0.6-0.1
	c0.6,0,1.2,0.3,1.4,0.9C373.7,363.8,373.3,364.7,372.5,365.1z M363.1,385.6l-5.3,7.1c8.6,5.7,16.2,12.7,22.5,20.7l7.1-4.8
	C380.6,399.7,372.4,391.9,363.1,385.6z M401.2,411.3c3.5,6,6.4,12.3,8.7,19c1.1-0.4,2.2-0.9,3.3-1.3c0.1,0,0.1,0,0.2,0c0,0,0,0,0,0
	c1.4-0.6,2.9-1.1,4.3-1.6c-2.5-7.1-5.6-13.9-9.4-20.3L401.2,411.3z M392.9,416.1c3.5,5.6,6.4,11.5,8.7,17.8c2.6-1.2,5.2-2.4,8-3.5
	c-2.3-6.6-5.2-12.9-8.7-18.9L392.9,416.1z M344.9,489.3l-0.6-0.3c-0.3,1.2-0.7,2.4-1.1,3.6l0.4,0.2
	C344,491.6,344.5,490.4,344.9,489.3z M302.9,550.1l7.6,11.3c1-0.8,2.1-1.5,3.2-2.2l-6-11.2C306,548.6,304.4,549.3,302.9,550.1z
	 M408.7,406.9c3.8,6.4,6.9,13.2,9.4,20.3c2.6-0.9,5.4-1.7,8.2-2.3c-2.7-7.8-6.2-15.2-10.4-22.2L408.7,406.9z M298,553l9.2,11.2
	c1-0.9,2-1.7,3-2.5l-7.6-11.4C301,551.1,299.4,552,298,553z M410.3,394.2l-29.5,19.9c1.4,1.8,2.8,3.8,4.1,5.7l30.5-17.8
	C413.9,399.3,412.1,396.7,410.3,394.2z M386,416.5c-0.8,0-1.5-0.7-1.5-1.5c0-0.8,0.7-1.5,1.5-1.5c0.8,0,1.5,0.7,1.5,1.5
	C387.5,415.9,386.8,416.5,386,416.5z M390.9,413.4c-0.8,0-1.5-0.7-1.5-1.5c0-0.8,0.7-1.5,1.5-1.5c0.8,0,1.5,0.7,1.5,1.5
	C392.4,412.8,391.7,413.4,390.9,413.4z M395.9,410.3c-0.8,0-1.5-0.7-1.5-1.5c0-0.8,0.7-1.5,1.5-1.5c0.8,0,1.5,0.7,1.5,1.5
	C397.5,409.6,396.8,410.3,395.9,410.3z M400.8,407.1c-0.8,0-1.5-0.7-1.5-1.5c0-0.8,0.7-1.5,1.5-1.5c0.8,0,1.5,0.7,1.5,1.5
	C402.3,406.4,401.6,407.1,400.8,407.1z M405.6,404.2c-0.8,0-1.5-0.7-1.5-1.5c0-0.8,0.7-1.5,1.5-1.5c0.8,0,1.5,0.7,1.5,1.5
	C407.2,403.5,406.5,404.2,405.6,404.2z M410.1,401.3c-0.8,0-1.5-0.7-1.5-1.5c0-0.8,0.7-1.5,1.5-1.5c0.8,0,1.5,0.7,1.5,1.5
	C411.6,400.6,410.9,401.3,410.1,401.3z M385.4,420.5c3.5,5.4,6.4,11.1,8.8,17.1c2.3-1.2,4.7-2.4,7.1-3.6c-2.3-6.2-5.2-12.2-8.6-17.8
	L385.4,420.5z M402.7,398.3c-7.8-10.8-17.3-20.2-28.3-27.8l-5,6.6c10.2,7.1,19.1,15.8,26.3,25.8L402.7,398.3z M429.6,585.3
	c-0.3-0.5-0.6-1-0.9-1.5c0.6,3.8,0.1,7.6-1.7,11.2c0.5,0,1,0,1.5,0c1.3-0.1,2.6-0.2,3.9-0.2c0.6,0,1.3,0,2,0c0.9,0,1.9-0.1,2.8-0.1
	C433.7,592,431.5,588.6,429.6,585.3z M486.5,545.7c0.8-4.7-1.4-9.1-3.1-13.5c-2.5,4-5.7,7-5.8,13.8c1.4,1.1,2.7,2.4,4.1,4
	C483.2,548.2,484.8,546.8,486.5,545.7z M418.3,586.4c-0.7-3.9-2.4-7.6-5.2-10.3c-10.3,1.6-20.2,0.9-29.1-1.5
	c-0.9,0.6-1.6,1.3-2.4,2.1c0.7,2.1,1.2,4.2,1.6,6.3c3.6-3.3,7.6-4.7,11.5-4.8c5.4-0.1,10.3,2.4,13,6c2.3,3.1,3.2,7,2.5,10.8
	c2.6,0.1,5.3,0.1,8,0.1C418.8,592.5,418.8,589.5,418.3,586.4z M428.2,582.9c-1.9-3.2-3.7-6.2-6.5-8.6c-2.8,0.7-5.5,1.3-8.2,1.7
	c2.8,2.7,4.4,6.5,5.1,10.4c0.6,3,0.5,6.1-0.2,8.7c2.7,0,5.4,0,8.2-0.1C428.6,591.1,429.1,586.9,428.2,582.9z M494,571.6
	c3-3.6,5.2-7.6,5.1-12.6c-5.5,2.1-9.1,5-11.8,8.2c0,0.7-0.1,1.5-0.1,2.2c-0.3,4.1-1.3,8-2.5,11.3C487.8,577.7,491.3,574.8,494,571.6
	z M393.5,592.7c0.5-0.3,0.9,0.4,0.4,0.7c-0.3,0.2-0.6,0.4-0.7,0.6c2.1,0.2,4.2,0.3,6.4,0.4c0.2-1,0-2.1-0.5-3
	c-1-1.8-3.1-3.2-5.9-2.9c-3,0.3-4.9,2-5.9,4.2c-0.1,0.2-0.2,0.5-0.3,0.7c1.7,0.2,3.4,0.3,5.2,0.5C392.4,593.5,392.9,593,393.5,592.7
	z M503.3,569.1c4.1-6.4,5.5-13.6,4.5-21.7c-4.3,1.7-8.4,2.5-12.1,3.6c-3.6,1.2-6.9,2.7-9.8,6.2c1,2.9,1.4,6.1,1.4,9.2
	c2.7-3.2,6.5-6,12-8.1c0,0,0.1,0,0.1,0c0.1,0,0.2,0.1,0.2,0.3c0.2,5.4-2.1,9.7-5.2,13.4c-3,3.5-6.8,6.7-10.1,10
	c-0.4,1.1-0.8,2.1-1.3,3c0.2,0,0.3-0.1,0.4-0.1C492.7,580.5,499.3,575.2,503.3,569.1z M406.9,584.7c-2.5-3.4-7.2-5.8-12.3-5.7
	c-3.8,0.1-7.9,1.5-11.4,5c0.5,3,0.7,6.1,0.6,9.3c0.8,0.1,1.5,0.2,2.3,0.2c0.1-0.3,0.2-0.7,0.4-1c1.1-2.4,3.3-4.4,6.6-4.7
	c3.1-0.3,5.6,1.2,6.7,3.3c0.6,1.1,0.8,2.3,0.6,3.4c2.9,0.2,5.9,0.3,8.9,0.4C410,591.4,409.1,587.6,406.9,584.7z M504,577.4
	c0.6,0,1.1,0,1.6,0c2,0.1,3.6,0.5,5,1.1c2-1,3.9-2,5.7-3c-1.9-1.1-4.4-1.9-7.7-2.3C507.3,574.8,505.8,576.2,504,577.4z M504.3,577.8
	c-0.3,0-0.5,0-0.8,0c-4.5,3.1-10.4,5.7-18.2,7.6c1.3,0.7,2.6,1.1,3.9,1.3c7.6-2.2,14.6-4.9,21-7.9
	C508.6,578.2,506.7,577.8,504.3,577.8z M517.3,575c0.4-0.2,0.8-0.4,1.2-0.7c1-0.6,2-1.2,2.9-1.8l-6.9,1.1
	C515.6,574,516.5,574.5,517.3,575z M475.2,590.2c0.5-0.1,1.1-0.2,1.6-0.3c0-0.4,0-0.7,0-1.1C476.3,589.3,475.7,589.7,475.2,590.2z
	 M477.7,586.4c-2.3,0.1-4.3,0-6.3-0.2c-7.8,5.4-16.8,7.2-22.4,6.4c-6.1-0.9-9.4-4.7-11.9-8.8c-2.5-4.1-4.4-8.7-7.8-11.1
	c-0.1-0.1-0.1-0.2,0-0.3c3.4-1.5,7-2.3,10.5-2.5c3.2-0.1,6.4,0.3,9.3,1.2c-0.6-1.7-0.9-3.6-1.1-5.6c-2.9-0.5-5.8-0.7-8.7-0.7
	c-6.6,0-13.2,1.7-19.8,6.8c0.9,0.5,1.7,1.1,2.5,1.6c0.1,0,0.3,0.1,0.3,0.3c3.7,3.1,5.9,7.2,8.2,11.3c2.1,3.6,4.4,7.1,8.3,9.8
	c0.3,0,0.5,0,0.8,0c12-0.6,23.1-2,33.4-4C474.6,589.4,476.2,588,477.7,586.4z M484.8,585.5c-0.5,0.1-1,0.2-1.5,0.3
	c0.3,0.7,0.6,1.3,1,2c0.1,0.1,0.1,0.1,0.2,0.2c1.4-0.4,2.8-0.7,4.1-1.1C487.3,586.7,486.1,586.2,484.8,585.5z M481.2,586.2
	c-0.7,0.1-1.4,0.1-2.1,0.1c-0.6,0.7-1.3,1.4-2,2.1c0,0.5,0,0.9,0,1.4c1.5-0.3,2.9-0.6,4.3-1c0-0.6,0-1.2,0-1.8
	C481.4,586.7,481.3,586.5,481.2,586.2z M513.8,553.5c-0.2-5.3-1.1-10.8-0.8-15.6c-3.1,2.1-6.5,3.1-10,3.9c-0.1,0-0.1,0-0.2,0
	c-1.9,0.4-3.8,0.8-5.7,1.2c-5.6,1.2-10.8,2.8-14.7,7.8c1.5,1.8,2.6,3.9,3.3,6c3-3.4,6.3-5,9.9-6.2c3.8-1.2,7.9-1.9,12.3-3.7h0.1
	c0.1,0,0.2,0.1,0.2,0.2c1,8.2-0.4,15.7-4.6,22.2c-3.8,5.9-9.9,10.9-18.6,15.2c11.2-2.7,18.5-6.9,23.1-11.9c0-0.1,0.1-0.1,0.1-0.1
	c0.8-0.9,1.5-1.8,2.2-2.8C513.6,564.9,514,559.2,513.8,553.5z M280.8,545.1c0,0.1,0.1,0.1,0.1,0.2c2.8,1.6,5.1,4.1,6,7.4
	c1.2,1.3,2.5,2.7,3.9,3.9c2.7-2.4,5.6-4.5,8.8-6.4C293.4,549.6,287,547.9,280.8,545.1z M291.9,557.6c3.2,2.9,6.8,5.8,10.8,8.4
	l-9.5-9.5C292.7,556.9,292.3,557.3,291.9,557.6z M489.6,424.5l25.2,13.6c0.1-1.2,0.2-2.4,0.3-3.5c-0.9-0.9-1.7-1.9-2.6-2.9
	L493,418.2C491.8,420.2,490.7,422.4,489.6,424.5z M307.1,546.7c-0.8-0.5-1.3-1.4-1.3-2.4c0-1.6,1.3-2.8,2.9-2.8
	c1.6,0,2.9,1.3,2.9,2.8c0,0.3,0,0.6-0.1,0.9c1.5-0.5,2.9-0.9,4.4-1.2c-0.2-0.4-0.2-0.7-0.2-1.1c0-1.6,1.3-2.8,2.9-2.8
	c1.6,0,2.8,1.3,2.8,2.8c0,0,0,0,0,0c1.7-0.3,3.4-0.5,5.1-0.6c-0.8-0.5-1.4-1.4-1.4-2.5c0-1.6,1.3-2.8,2.8-2.8c1.6,0,2.9,1.3,2.9,2.8
	c0,0.9-0.5,1.8-1.2,2.3c1.1,0,2.2,0,3.2,0c0.7,0,1.4,0,2.1,0.1c2.6-1.5,5.3-3.2,7.7-5.1c-0.6-1.8-1.2-3.7-1.6-5.6
	c-0.5-2.1-0.9-4.3-1.1-6.5c-4.4,4.4-9.5,7.6-14.8,9.8c0,0,0,0-0.1,0c-9.9,4-21,4.4-31.3,1.7c-0.1,0-0.1,0-0.2-0.1
	c-2.4-0.6-4.7-1.4-6.9-2.4c0,0-0.1,0-0.1,0c-2.2-0.9-4.4-2-6.4-3.3c0,0-0.1,0-0.1-0.1c-0.7-0.4-1.3-0.8-2-1.2
	c-1.4-0.9-2.7-1.9-3.9-2.9c0,0-0.1,0-0.1-0.1c-0.7-0.6-1.3-1.2-2-1.8c0.1,0.5,0.2,1,0.4,1.5c0.4,1.4,0.8,2.8,1.2,4.2
	c1.3,0.2,2.3,1.4,2.3,2.8c0,0.6-0.2,1.2-0.6,1.7c1.3,2.9,2.8,5.8,4.5,8.5c7,3.4,14.4,5.4,21.5,6
	C303.1,548.4,305.1,547.5,307.1,546.7z M336.1,532.6c1.6,0,2.9,1.3,2.9,2.9c0,1.6-1.3,2.8-2.9,2.8c-1.6,0-2.9-1.3-2.9-2.8
	C333.2,533.9,334.5,532.6,336.1,532.6z M281,540.8c-1.6,0-2.8-1.3-2.8-2.9c0-1.6,1.3-2.8,2.8-2.8c1.6,0,2.9,1.3,2.9,2.8
	C283.9,539.6,282.6,540.8,281,540.8z M289.8,544.3c-1.6,0-2.8-1.3-2.8-2.9c0-1.6,1.3-2.8,2.8-2.8c1.6,0,2.9,1.3,2.9,2.8
	C292.6,543,291.3,544.3,289.8,544.3z M299,546.6c-1.6,0-2.9-1.3-2.9-2.8c0-1.6,1.3-2.9,2.9-2.9c1.6,0,2.9,1.3,2.9,2.9
	C301.9,545.3,300.6,546.6,299,546.6z M497.7,411.5c-0.4,0.5-0.7,1.1-1.2,1.6c-0.5,0.6-1,1.2-1.6,1.7c-0.6,1-1.2,2-1.8,3.1l18.7,12.8
	c-3.1-3.9-5.9-8.4-7.8-13.9L497.7,411.5z M306.9,564.4l-9.3-11.2c-1.5,1-2.9,2-4.2,3.2l10.7,10.7c0,0,0,0,0,0
	C305.1,566.1,306,565.2,306.9,564.4z M281.5,546c1.5,2.1,3.1,4.2,4.9,6.1C285.5,549.5,283.7,547.4,281.5,546z M515.6,432.1
	c0.3-1.5,0.7-3,1.2-4.4l-9.5-8C509.5,424.5,512.3,428.5,515.6,432.1z M391.5,361.4c0.7,0.6,1.5,1.2,2.2,1.8c0.1-1.2,0.3-2.3,0.3-3.6
	c-0.3-1.2-0.6-2.5-0.7-3.8C392.9,357.8,392.2,359.8,391.5,361.4z M509.5,572.4c0.4,0.1,0.7,0.1,1.1,0.2c0.4-1.2,0.9-2.4,1.3-3.6
	c-0.2,0.4-0.5,0.8-0.7,1.2C510.7,570.9,510.1,571.7,509.5,572.4z M382.4,587.9l-3.5,4.6c0,0,0,0.1,0,0.1c1.2,0.2,2.4,0.3,3.6,0.5
	C382.5,591.3,382.5,589.6,382.4,587.9z M366.3,559.1c-7-5.3-15.4-7.8-24-7.7c-13.5,0-27.5,6.1-37.3,16.3c0.3,0.2,0.6,0.4,0.9,0.6
	c6.1-5,14-8.5,23.8-9.2c2-0.1,3.8-0.2,5.6-0.1c12.5,0.4,20.9,5.3,25.6,12.1c3.9,5.7,5.3,12.7,4.5,19.5c4,0.7,8.1,1.4,12.3,2
	c0.1-0.4,0.2-0.9,0.3-1.3C380.4,580.4,377.7,567.7,366.3,559.1z M331.8,570.4c-2.6,0-5.3,0.3-8.2,1c-2.8,0.6-5.4,1.5-7.7,2.6
	c2.7,1.4,5.5,2.8,8.5,4.1c1.9,0.8,3.8,1.7,5.7,2.4c1.2,0.1,2.3,0.3,3.3,0.6c2.3,0.6,4.2,1.5,5.8,2.8c5.3,1.8,10.8,3.3,16.5,4.7
	c-0.2-1.9-0.8-3.7-1.5-5.4C350.9,576,342.9,570.3,331.8,570.4z M513.5,565.8c2.5,0.6,4.4,0.9,5.7,0.9c0.7,0,1.2-0.1,1.5-0.2
	c0.3-0.1,0.5-0.3,0.5-0.4c0-0.2-0.1-0.4-0.3-0.8c-0.3-0.3-0.7-0.7-1.2-1.2c-1.1-0.8-2.7-1.8-4.9-2.8
	C514.3,562.8,513.9,564.3,513.5,565.8z M360.4,571.4c-4.8-6.9-13.3-11.8-26.3-11.8c-1.4,0-2.7,0.1-4.2,0.2c-9.5,0.7-17.3,4-23.2,8.9
	c2.6,1.6,5.4,3.2,8.3,4.8c2.6-1.2,5.4-2.2,8.5-2.9c3-0.7,5.7-1,8.4-1c11.4,0,19.7,5.8,23.2,13.2c0.9,1.9,1.4,3.9,1.7,6
	c2.7,0.6,5.4,1.2,8.2,1.7C365.6,583.8,364.3,576.9,360.4,571.4z M514.8,561c2.2,1.1,3.9,2.1,5.1,2.9c0.6,0.4,1,0.8,1.3,1.2
	c0.3,0.4,0.4,0.7,0.4,1c-0.1,0.3-0.3,0.6-0.7,0.7c-0.4,0.1-0.9,0.2-1.6,0.2c-1.3,0-3.2-0.3-5.8-0.9c-0.7,2.2-1.4,4.4-2.2,6.6
	c1,0.2,2,0.4,2.8,0.7l8.2-1.3c2.2-1.4,4.3-2.8,6.4-4.3l-12-16.8C516.2,554.3,515.6,557.6,514.8,561z M327.4,265.5
	c4.9,0.1,9.7,0.6,14.6,0.6c0.1,0,0.2,0.2,0.2,0.3c-2.7,4.7-4.4,10.7-7.1,16.2c-2.7,5.4-6.4,10.5-13.1,13.4c-1.1,1.9-1.9,4-2.7,6
	c1-0.1,2-0.1,3-0.1c0.4,0,0.7,0,1,0c10.1-4.1,15-9.9,18.6-17c0.6-1.3,1.3-2.6,1.8-4c-0.1-0.2,0-0.4,0.2-0.5
	c2.5-5.9,4.7-12.6,8.3-19.7c-7.5-0.4-15.2-2.4-22.9-3.3c-0.8-0.1-1.6-0.2-2.4-0.2c-0.2,0.1-0.4,0.1-0.6-0.1c-1.5-0.1-3-0.2-4.4-0.2
	c-5.3,0-10.7,1-15.9,3.7c0,0.3-0.1,0.5-0.1,0.8c-0.5,3-1.3,5.9-2.6,8.8C311.5,265.9,319.5,265.2,327.4,265.5z M343.7,259.1
	c1.3,0.2,2.5,0.4,3.8,0.5c-0.5-0.6-1.3-1-2.2-1C344.8,258.6,344.2,258.8,343.7,259.1z M300.9,284.6c7-3.6,13-6.5,18.5-8.1
	c0.7-0.2,1.3-0.3,1.8-0.3c0.5,0,1,0,1.4,0.1c0.8,0.2,1.4,0.6,1.7,1.2c0.3,0.6,0.2,1.3-0.1,2c-0.3,0.7-0.9,1.3-1.8,1.8
	c-3.2,2-7.5,3.5-12.7,5.1c5.2,1.4,10.3,3,16.2,2.9c0.4,0,0.6,0.5,0.3,0.7c-1.7,1.6-3,3.5-4.1,5.4c6.3-2.9,9.9-7.8,12.5-13.1
	c2.7-5.4,4.3-11.3,7-16c-5.7-0.1-11.3-0.7-16.9-0.7c-7.1,0-14.4,1-21.9,5.1c-2.4,5-6.3,9.8-12.7,14.4c2.3-0.6,4.5-0.8,6.6-0.8
	C298.2,284.4,299.6,284.5,300.9,284.6z M323.8,279.3c0.3-0.6,0.3-1.1,0.1-1.5c-0.2-0.4-0.6-0.8-1.3-1c-0.3-0.1-0.6-0.1-0.9-0.1
	c-0.6,0-1.3,0.1-2.1,0.3c-5.3,1.5-11,4.2-17.8,7.7c1.7,0.2,3.3,0.6,5,1c0.7,0.2,1.4,0.3,2.1,0.5c5.6-1.8,10-3.3,13.3-5.3
	C323,280.4,323.5,279.8,323.8,279.3z M355.9,295.2c0.9-2,2.1-4,3.7-5.8c-2-0.7-3.3-2.4-3.7-4.2c-0.5-1.9,0.2-4,2.4-5.3
	c0.4-0.2,0.8-0.4,1.3-0.4c1.3-0.2,2.5,0.4,3.1,1.2c0.5,0.7,0.7,1.5,0.4,2.3c-0.2,0.8-0.8,1.5-1.8,1.9c-0.2,0.1-0.3-0.2-0.1-0.3
	c0.9-0.4,1.4-1,1.6-1.7c0.2-0.7,0.1-1.4-0.4-2c-0.7-0.9-2.4-1.5-3.9-0.6c-2.1,1.2-2.7,3.1-2.2,4.9c0.4,1.7,1.7,3.3,3.6,4
	c1.2-1.4,2.6-2.7,4.1-3.9c1.5-1.2,3.2-2.2,5-3.1c0-1-0.2-2-0.6-3c-2-4.3-5.7-6.2-9.5-6.2c-0.8,0-1.7,0.1-2.5,0.3
	c-4.5,1.1-8.3,5-8,11.2C348.5,289.5,351.7,293.4,355.9,295.2z M520,552.1c-0.4-1.2-0.7-2.5-1-3.8l-2.3,2.2c0,0,0,0.1,0,0.1
	l12.2,17.1c1-0.7,2-1.5,3-2.2C526,562.7,522,557.8,520,552.1z M325.2,302.1c6.4,0.4,10.9,1.7,15.2,3.2c2.6,1,5.2,2,8.1,2.9
	c-2.2-6.5-4.9-12.9-8.1-19.1C337.1,294.3,332.6,298.7,325.2,302.1z M342.5,285.4c-0.5,1-1.1,2-1.7,3c3.4,6.4,6.2,13.2,8.5,20
	c1.5,0.5,3.1,0.9,4.9,1.2c-0.5-2.3-0.6-4.7-0.4-7c-2.7-7-5.9-14-9.7-20.7C343.6,283.2,343.1,284.3,342.5,285.4z M356.2,315.5
	c-1.2,1.5-2.3,3.2-3.4,4.9c1.6,7,2.7,14.1,3.2,21.3c2.1,0.8,4.3,1.6,6.4,2.5c-0.3-8-1.3-15.9-3.2-23.8
	C358,318.8,357,317.2,356.2,315.5z M363.3,336.6c0.5-4.2,2.6-7.1,5.4-8.7c-3.2-1.5-5.9-3.6-8.1-5.9c1.6,7.5,2.5,15,2.8,22.6
	c0.9,0.4,1.7,0.8,2.6,1.2C364.1,343.4,362.9,340.1,363.3,336.6z M350.4,324.2c-2.8,4.5-6,9.1-11.6,12.5c5.6,1.2,11.1,2.8,16.4,4.7
	c-0.5-6.8-1.5-13.5-3-20.2C351.7,322.2,351.1,323.2,350.4,324.2z M340.4,318.2c-5.1-0.1-9.3-1.2-13.6-2c-3.1-0.6-6.2-1.1-9.8-1
	c-1.5,0-3.2,0.1-4.9,0.3c-0.6,0.7-1.3,1.4-2.1,2.1c1,0.1,2,0.2,3,0.2c0.3,0,0.5,0.4,0.4,0.7c-2,3-3.5,5.7-5.1,8.3
	c4.1-1.3,7.4-2.1,10.8-2.6c0.5-0.1,1-0.1,1.4-0.1c0.4,0.1,0.8,0.2,1.1,0.3c0.6,0.3,1.1,0.8,1.2,1.4c0.3,1.2-0.4,2.7-2.2,3.8
	c-3.2,1.9-7.1,2.7-11.6,3.9c0.5,0,1.1,0,1.6,0c3.1,0,6.1,0.1,9.1,0.3c5.1-0.6,8.7-2.7,11.8-5.4C334.9,325.5,337.5,321.7,340.4,318.2
	z M322.2,326.1c-0.1-0.5-0.4-0.8-1-1.1c-0.4-0.2-0.9-0.3-1.5-0.3c-0.2,0-0.4,0-0.7,0.1c-3.6,0.6-6.9,1.4-11.3,2.7
	c-1.4,2.1-2.9,4.2-4.8,6.3c1.3-0.1,2.7-0.2,4-0.2c5.3-1.6,9.8-2.3,13.3-4.4C322,328.3,322.5,327,322.2,326.1z M317.5,303.8
	c0.2-0.5,0.4-1,0.6-1.4c0-0.1,0-0.2,0.1-0.2c1.7-4.2,3.5-8.4,6.9-12c-6.8,0-12.5-2.2-18.4-3.7c-3.1-0.7-6.3-1.3-9.8-1.3
	c-2.8,0.1-5.8,0.5-9,1.5c0,0-0.1,0-0.1,0c-0.7,0.2-1.4,0.5-2.2,0.8c-0.1,2.8-0.4,5.5-1.1,8.3c3.2-1.6,6.3-2.3,9.5-2.4
	c1.1,0,2.3,0,3.4,0.1c4.6,0.4,9.4,1.6,14.8,2.7c0.1,0,0.2,0.2,0.1,0.3c-2.4,3.3-3.7,7-5.8,10.5c-1.9,3.3-4.5,6.5-9.1,9
	c3.8,0.4,7.5,1.1,11.3,1.5C313.5,313.7,315.6,308.8,317.5,303.8z M349.7,323.7c2.8-4.5,5.2-9.1,9.4-12.5c-8.4-1-13.6-3.2-19-5.1
	c-4.9-1.7-10-3.2-18-3.3c-1.1,0-2.2,0-3.3,0.1c-0.2,0.4-0.3,0.8-0.5,1.3c-1.5,3.8-3.1,7.6-5.9,11c1.2-0.2,2.4-0.2,3.5-0.3
	c4.1-0.1,7.6,0.4,10.9,1c4.4,0.8,8.7,1.9,13.9,2c0.2,0,0.2,0.2,0.1,0.3c-2.9,3.5-5.6,7.5-9.1,10.6c-2.8,2.5-6.1,4.5-10.5,5.3
	c5.5,0.4,11,1.2,16.3,2.3C343.6,333.1,346.8,328.4,349.7,323.7z M345.3,258.3c1.2,0,2.2,0.5,2.7,1.4c1.6,0.2,3.2,0.3,4.8,0.4
	c0.3,0,0.5,0.3,0.4,0.6c-1.2,2.4-2.3,4.7-3.2,7c3.9-1.6,5.3-6.7,3.6-10.1c-2-3.9-5.5-5.7-9-5.8c-0.2,0-0.5,0-0.7,0
	c-3.6,0.2-7.2,2.2-8.9,5.7c2.8,0.5,5.6,1,8.4,1.4C343.9,258.5,344.6,258.3,345.3,258.3z M538.4,540.1c-0.7,3.1,0.1,6.3,2.9,8.3
	c1.2,0.8,2.3,1.2,3.4,1.3c0.1-5.7-0.2-11.3-0.7-17C541.1,534.4,539.1,537.2,538.4,540.1z M551,519.3c-6.5,0.8-12.5,4.3-16.3,9.4
	c-4.8,6.3-6.3,16.4-1.4,22.8c2.1,2.8,5.4,4.4,8.8,4.8c1.9-1.9,3.6-3.8,5.2-5.8c-2.1,0.6-4.5,0.4-6.7-1.2c-3.2-2.3-4.1-5.9-3.3-9.4
	c0.8-3.4,3.2-6.7,6.9-8.4c2.5-1.2,5-1.7,7.5-1.7c2.7,0,5.2,0.6,7.6,1.6c0.1-0.3,0.3-0.5,0.4-0.8c1.3-3.1,2.5-6.2,3.4-9.3
	C559.1,519.4,555,518.8,551,519.3z M553.2,538.3c0.8,0.2,1.5,0.4,2.2,0.8c1.3-2.2,2.5-4.5,3.5-6.8c-1.9-0.9-4-1.4-6.1-1.5
	C553,533.3,553.1,535.8,553.2,538.3z M550.3,539.5c0.6,0.4,1.1,0.8,1.5,1.4c0.5,0.7,0.8,1.6,0.9,2.5c0.3-0.5,0.6-1,1-1.5
	C552.9,540.7,551.7,539.9,550.3,539.5z M553.9,541.6c0.3-0.5,0.6-1,1-1.5c-1.3-0.6-2.7-0.9-4.2-0.8
	C551.9,539.6,553,540.5,553.9,541.6z M551,541.5c-0.7-1.1-2-1.8-3.8-1.5c-0.1,0.1-0.2,0.1-0.4,0.2c-0.7,0.3-1.2-0.8-0.4-1.1
	c2-0.8,4-1.1,5.8-0.8c-0.1-2.5-0.2-4.9-0.4-7.3c-2.3,0-4.6,0.5-6.9,1.5c0.5,5.8,0.8,11.6,0.8,17.4c0.6,0,1.2-0.2,1.8-0.3
	c0.5-0.2,1.1-0.4,1.5-0.7c0.9-1.2,1.8-2.4,2.7-3.6C551.9,543.8,551.6,542.4,551,541.5z M349.7,290.3c1.6,3.4,3.2,6.9,4.5,10.3
	c0.3-1.7,0.8-3.4,1.5-5.1C353.2,294.4,351.1,292.6,349.7,290.3z M524.8,526.9c-5.2,7.8-6.3,17.1-3.7,24.8c2,5.7,5.9,10.4,11.8,12.9
	c3.2-2.6,6.2-5.3,9-8c-3.4-0.5-6.7-2.1-8.8-4.9c-5-6.5-3.4-16.8,1.4-23.2c3.9-5.1,9.9-8.7,16.5-9.5c0.8-0.1,1.7-0.2,2.5-0.2
	c3.2,0,6.5,0.6,9.7,2.1c0.6-1.9,1-3.7,1.5-5.6C551.2,509.6,534.1,513.1,524.8,526.9z M537.4,448.3c3.6,3.1,7.9,3.6,11.6,2.7
	c1.4-0.3,2.7-0.9,3.8-1.6c-1.1-1.9-2.2-3.9-3.5-5.9c-3.2,0.1-5.6-1.3-7-3.4c-1.5-2.3-1.9-5.2-0.8-7.9c-1.4-1.8-2.8-3.5-4.3-5.2
	c-2.2,3.1-3.6,6.7-3.9,10.2C533.1,441.5,534.2,445.5,537.4,448.3z M543.1,439.6c1.2,1.7,3.1,3,5.8,3c-0.6-0.9-1.2-1.8-1.8-2.7
	c-1.5-2.3-3.2-4.6-4.9-6.9C541.5,435.3,541.8,437.8,543.1,439.6z M523.7,439.8c8.7,7.5,18.2,14.2,23.9,25.8c4.3,0,8.3-1.2,11.6-3.4
	c-1.7-3.9-3.6-7.9-5.9-11.9c-1.2,0.7-2.6,1.3-4.1,1.7c-4,1-8.7,0.4-12.5-2.9c-3.5-3-4.7-7.4-4.3-11.9c0.3-3.8,1.8-7.6,4.2-10.9
	c-1.9-2.1-3.9-4.2-6-6.2c-4.9,5.7-7.2,12.7-7.1,19.6C523.6,439.7,523.7,439.7,523.7,439.8z M557.3,469.7c-0.8,1.3-1.4,2.6-1.8,4.2
	c3.1,0.5,6,1.4,8.7,2.7c-0.9-3.5-2.1-7.1-3.5-10.6C559.3,467.1,558.2,468.3,557.3,469.7z M554.6,480.5c-0.3,8.5,2.2,19.4,5.3,32
	c1.7,0.4,3.4,1,5.1,1.7c0,0,0,0,0,0c-1.9-8-2.8-16.3-1.9-22.9c0.4-3.2,1.2-6,2.5-8.2c-0.2-1.3-0.5-2.5-0.7-3.8
	c-3-1.7-6.3-2.8-9.8-3.4C554.8,477.3,554.6,478.8,554.6,480.5z M550.5,473.5c1.3,0,2.6,0.1,3.9,0.3c0.5-1.7,1.1-3.2,2-4.6
	c1-1.6,2.3-3,3.9-4.2c-0.3-0.7-0.5-1.3-0.8-2c-3.3,2.1-7.3,3.4-11.6,3.4C549,468.6,549.9,471,550.5,473.5z M565.2,513.3
	c2-9.8,2.2-19.7,0.5-29.8c-1.1,2-1.9,4.7-2.3,7.7C562.6,497.6,563.4,505.6,565.2,513.3z M525.3,314.7c2.3-1.8,4.5-3.8,6.7-6.2
	c0.1-0.1,0.2-0.2,0.4-0.2c0.3,0,0.5,0.2,0.5,0.4c1.3,7.8,5.8,14.6,8.8,22c1-0.5,1.9-0.9,2.9-1.3c-3.6-10.4-7.1-18-10.5-22.7
	c-1.7-2.4-3.4-4-5-4.8c-0.8-0.4-1.6-0.6-2.4-0.6c-0.8,0-1.5,0.2-2.3,0.5c-0.7,0.4-1.2,0.8-1.6,1.3
	C524.5,306.4,525.7,310.2,525.3,314.7z M518.5,296.5c1.3,1.7,2.5,3.4,3.6,5.3c14.5-7,30-12.2,45.8-15.3c-1.3-3.4-3-6.6-5-9.7
	c-16.5,3.2-32.3,8.6-47.3,16C516.5,294,517.5,295.3,518.5,296.5z M565.5,288.2c-0.5,0-1.1,0.1-1.6,0.2c-1.5,0.4-2.6,1.4-3.5,3
	c-0.8,1.6-1.4,3.9-1.5,6.8c-0.4,5.7,0.6,13.9,2.9,24.5c2.6-0.9,5.2-1.6,7.8-2.3c0.4-1,0.7-2.1,1-3.2l-2.2-10.2
	c-0.2,0.1-0.5,0.1-0.7,0.1c-1.5,0-2.7-1.2-2.7-2.7c0-1.5,1.2-2.7,2.7-2.7c1.5,0,2.7,1.2,2.7,2.7c0,1.1-0.6,2.1-1.7,2.5l2,9.6
	c1.7-6.6,1.5-14.2-0.4-22.6c-0.3-1.4-0.7-2.7-1.2-4.1c-0.3-0.3-0.6-0.5-0.9-0.7C567.3,288.5,566.4,288.2,565.5,288.2z M459.2,261.9
	c2.5-2.6,5.5-5.1,9-7.2c1.3-0.7,2.6-1.5,4-2.1l-16.3-12.9L459.2,261.9z M568.4,288.8c0.2,0.1,0.4,0.2,0.5,0.4
	c-0.2-0.6-0.4-1.2-0.7-1.8c-0.8,0.2-1.7,0.3-2.5,0.5C566.6,287.9,567.5,288.2,568.4,288.8z M472.8,233.6c-4,0.7-7.9,1.6-11.7,3
	l9,7.3L472.8,233.6z M441.8,246.7c-1,0.8-2,1.5-2.9,2.3l13.5,5.1l-1.9-12.9C447.4,242.8,444.6,244.6,441.8,246.7z M536.1,256.6
	l4-0.9c-1.4-1.4-2.8-2.7-4.3-4L536.1,256.6z M544.4,341.5c0.1,1.1,0.1,2.2,0,3.4c2.7-1.2,5.2-2.6,7.6-4.1l0.7-3.1
	C549.9,338.9,547.1,340.2,544.4,341.5z M541.2,332.4c-0.1-0.2-0.2-0.5-0.3-0.7c0-0.1,0-0.1-0.1-0.1c-2.9-7.1-7.3-13.8-8.8-21.7
	c-2.3,2.5-4.7,4.5-7,6.3c-0.1,0.1-0.2,0.2-0.3,0.2c-2.5,2-5,3.7-7.2,5.5c-4.5,3.7-8.2,8-9.8,15.7c1.2,1.6,2.4,3.2,3.4,4.8
	c1.6-7.5,8.2-13.6,16.2-16.7h0.1c0.1,0,0.2,0.1,0.2,0.2c0.3,4.9,2.9,8.9,4.7,13.9c1,2.6,1.7,5.5,1.8,8.9c2-0.6,4.1-1.2,6-2
	c1.1-0.4,2.2-0.9,3.3-1.3C543.7,340.7,542.8,336.5,541.2,332.4z M553.1,337.5l-0.6,3c2.4-1.6,4.6-3.3,6.6-5.2l0-0.2
	C557,335.8,555,336.7,553.1,337.5z M542.2,332c1.1,2.8,1.8,5.7,2.2,8.8c5.2-2.6,10.6-5,16.2-7c2-2.1,3.8-4.3,5.5-6.7
	c1.2-1.8,2.2-3.6,3-5.5c-9.4,2.6-18.4,6.1-27,10.1C542.1,331.8,542.1,331.9,542.2,332z M344.9,399.8c2.3-0.1,4.4,0.3,6.2,1.1
	c-1.7-1.1-3.4-2.1-5.2-3.1L344.9,399.8z M337.9,394l-4.2,10c2-1.4,4-2.4,5.9-3.1c1.7-0.6,3.3-0.9,4.9-1.1l1.2-2.2
	C343.2,396.3,340.6,395.1,337.9,394z M456.1,322.5l2.9-2.3c0.7-1.8,1.3-3.7,1.7-5.6l-9,7C453.1,322,454.5,322.2,456.1,322.5z
	 M465.6,311c-0.1,0-0.1-0.1-0.2-0.1l-4.2,3.3c0.2,0,0.4,0.1,0.4,0.3c0.5,0.9,1,1.7,1.6,2.5l0.6-0.5c0,0,0.1-0.1,0.1-0.1
	c0.1,0,0.1,0.1,0.2,0.1l0.6,2.1c1.2,1.3,2.6,2.3,4,3.3c0-0.1,0-0.3,0-0.4L465.6,311z M468.7,320.3c0-2.7,0.4-5.3,1-7.8
	c-1.3-0.4-2.5-0.8-3.7-1.4L468.7,320.3z M477.9,233c-1.6,0.1-3.2,0.4-4.8,0.6l-2.8,10.6c0,0.1-0.1,0.1-0.2,0.1l-9.4-7.6
	c-1.7,0.6-3.4,1.3-5.1,2l17,13.5l5.1-19.1C477.9,233,477.9,233,477.9,233z M463.4,317.2c0.3,0.3,0.5,0.6,0.8,0.9l-0.4-1.2
	L463.4,317.2z M488.1,312.3c0.1,3.6-1,6.3-2.1,9.1c-1.2,3-2.3,6.2-2,11.3c0.8,1.1,1.4,2.3,1.9,3.7c2.4-5.2,5-10.4,7-15.5
	c0.1-0.2,0.3-0.3,0.5-0.3c0.2,0,0.3,0.1,0.4,0.2c0.4,0.5,0.7,0.9,1.1,1.3c-0.5-2-1.6-3.6-2.8-5.2
	C490.7,315.2,489.2,313.8,488.1,312.3z M495.2,299.5c-0.1,0-0.1-0.1-0.1-0.1c-4.4-4.2-9.1-8.3-12.7-13.9c-2.1,6.2-5.3,11.7-8.1,17.4
	c-2.8,6-5,12.1-4.6,19.7c1.7,1,3.4,2,5.1,2.9c1,0.5,2,1.1,2.9,1.7c-1.7-13.8,3.4-20.2,6.7-28.4c0-0.1,0.1-0.1,0.2-0.1
	c0.1,0,0.1,0.1,0.2,0.1c3.3,5.1,8.7,9,12.7,13.7c4,4.6,6.7,10.2,4.9,18.5c1.6,1.9,3.1,3.8,4.5,5.6c0.2-0.7,0.4-1.5,0.6-2.2v0
	c2.5-14.6-1.3-22.7-7.1-29.4C498.9,303,497.1,301.3,495.2,299.5z M381.3,434c-1-1.8-2-3.6-3-5.3l-1.9,1.3
	C378.4,431,380.1,432.4,381.3,434z M473.5,252c4.5-1.9,9.5-3.1,14.8-3.6l-9.9-14.5L473.5,252z M458,322.7c0.3-0.6,0.5-1.3,0.8-1.9
	l-2.2,1.7C457,322.6,457.5,322.7,458,322.7z M520.3,253.9c4,1.8,7.9,4.1,11.5,6.7l-0.7-12L520.3,253.9z M484.9,282.8
	c0.6,0,1.3,0.1,1.9,0.3c4.6,1.1,9,4.8,9.9,10.3c0.9-2,2.2-3.9,3.7-5.7c1.4-1.6,3-3.1,4.6-4.3c-2.4-4.5-8.5-7.7-14.6-7.8
	c-0.7,0-1.3,0-2,0.1c-3.3,0.3-6.8,2-9.3,4.7c-2.1,2.2-3.5,5.1-3.7,8.3c0.9-2.2,2.4-3.8,4.1-4.7C481.2,283.1,483,282.7,484.9,282.8z
	 M495.2,298c0.2-1.3,0.6-2.5,1.2-3.8c-0.6-5.7-5-9.6-9.7-10.6c-0.9-0.2-1.8-0.3-2.7-0.3c-0.3,0-0.5,0-0.8,0.1c1.1,0.1,2.1,0.4,3,1
	c1.4,0.8,2.5,2.1,3.1,3.6c0.5,1.3,0.5,2.8-0.1,4.2C491.1,294.2,493.2,296.1,495.2,298z M497.3,312.6c-4-4.6-9.2-8.4-12.6-13.5
	c-3.4,8.2-8.3,14.5-6.6,28.2c2,1.3,3.8,2.7,5.3,4.5c-0.1-4.7,1-7.9,2.1-10.7c1.2-3.1,2.4-5.7,2.1-9.7c0-0.2,0.1-0.3,0.3-0.3
	c0.1,0,0.2,0.1,0.2,0.1c1.1,1.7,2.9,3.3,4.4,5.2c1.5,1.7,2.7,3.8,3.1,6.3c2.2,2.7,4.4,5.2,6.6,7.8
	C503.8,322.5,501.2,317.2,497.3,312.6z M473.6,519.5c2.5-2.8,5.3-5.5,8-8.2c-5.2-9.1-12.4-15.6-20.4-19.8c3.6,4.5,6.4,9.3,8.4,14.3
	C472.1,509.3,473.7,513.5,473.6,519.5z M457.7,263.6c0.2-0.2,0.4-0.5,0.6-0.7l-3.3-1.3c0,0,0.1,0.1,0.1,0.1
	C456,262.3,456.9,262.9,457.7,263.6z M443.6,472c3.5,0,7.2,0.4,10.9,1c27.9,4.5,51.7,32.7,53.3,66.3c1.9-0.7,3.7-1.6,5.4-2.8
	c0.1-0.1,0.2-0.1,0.3-0.1c0.3,0,0.6,0.3,0.5,0.6c-0.4,4.9,0.5,10.7,0.8,16.5c0.1,1.8,0.1,3.6,0,5.3c4.7-21.7,1.2-42.6-8.2-59.3
	c-0.2-0.1-0.3-0.2-0.2-0.4c-1.9-3.4-4.1-6.6-6.5-9.7c-4.1-5.2-8.8-9.8-14.1-13.7c-0.2,0-0.3-0.1-0.4-0.3
	c-7.8-5.6-16.7-9.5-26.4-11.4c-0.2,0.1-0.4,0.1-0.5-0.1c-3.9-0.7-7.9-1.1-12.1-1.1c-5.5,0-11.1,0.7-16.9,2.1
	c-0.1,0.1-0.3,0.2-0.4,0.1c3.6,2.3,7.1,4.6,10.4,7C440.9,472.1,442.2,472,443.6,472z M457.2,561.1c-0.4,4.9-0.6,9.5,1.4,13.9
	c1.6,3.5,4.2,6,8,7.7c3.2,1.4,7.2,2.2,12.3,2.6c0.3,0,0.5,0,0.8,0c-4.8-1.5-8.7-3.8-11.5-7.4c-3.2-4.1-4.8-10-4.2-18
	c0-0.1,0.1-0.2,0.2-0.2c0.1,0,0.2,0,0.2,0.1c2.3,2.6,4.8,4.2,7.1,5.6c2.3,1.4,4.4,2.7,6,4.8c2.5,3.2,3.3,6.6,4.4,13.6
	c0.7-11.7,0.1-20-4.3-25.6c-2.8-3.6-5.5-5.6-8.9-7.3c-1.8-0.9-3.9-1.7-6.2-2.7c-1.6,1.5-3.3,2.9-5,4.1
	C457.7,555.3,457.4,558.3,457.2,561.1z M402.2,440.3c-2.1,1.3-4.1,2.7-6.1,4.2c0,0.1,0,0.1,0,0.2l0.2,2.6c2.2,1.1,4.5,2.3,6.7,3.4
	L402.2,440.3z M395.2,445.3c-0.3,0.3-0.7,0.6-1,0.9c0.4,0.2,0.7,0.4,1.1,0.6L395.2,445.3z M426.6,566.2c2.2-0.9,4.4-1.5,6.6-1.9
	c-0.4-0.4-0.8-0.7-1.1-1.1c-2.4,0.6-4.8,1.1-7.1,1.5C425.5,565.2,426,565.7,426.6,566.2z M463.6,309c1.9,1.1,4,2,6.3,2.7
	c0.6-2.2,1.4-4.3,2.2-6.3c-1.2-0.4-2.4-0.8-3.5-1.4C467.3,305.8,465.6,307.5,463.6,309z M472.7,294.4c0.3,0.4,0.6,1,0.6,1.6
	c0,1.1-0.7,2-1.6,2.4c-0.3,0.7-0.6,1.5-0.9,2.2c-0.5,1.1-1.1,2.1-1.8,3c1,0.5,2.2,1,3.4,1.3c0.4-0.8,0.7-1.6,1.1-2.4
	c2.9-6.1,6.4-11.8,8.4-18.3c0.1-0.2,0.3-0.4,0.5-0.4c0.2,0,0.3,0.1,0.4,0.2c1.8,2.9,3.9,5.4,6.1,7.8c0.5-1.3,0.5-2.6,0-3.8
	c-0.5-1.4-1.6-2.6-2.9-3.4c-1.3-0.8-3-1.2-4.6-0.8c-0.3,0.1-0.7,0.2-1,0.3c-0.2,0.1-0.4,0.2-0.6,0.3c-1.9,1.1-3.5,2.9-4.3,5.7
	c0,0.2,0.1,0.3,0.1,0.5c0.1,0.7-0.9,0.8-1,0.2c-1.3-7.2,0.8-13.4,5-18c4.2-4.6,10.5-7.6,17.5-8.7c1.7-0.3,3.5-0.4,5.4-0.5
	c12.5-0.3,26.2,5.4,34.1,18.9c1.5-0.5,3-1,4.4-1.5c-10.2-17.5-28.5-25.8-45.3-25.8c-8.4,0-16.4,2-22.9,5.9c-3.8,2.2-6.8,5-9.1,8
	c3,3.3,5.4,6.9,7.1,10.9C472.9,284.9,473.5,289.7,472.7,294.4z M509.1,259.8c0.4,0,0.6,0.3,0.6,0.6s-0.3,0.6-0.6,0.6
	c-0.4,0-0.6-0.3-0.6-0.6S508.8,259.8,509.1,259.8z M504.5,258.8c0.5,0,1,0.4,1,1c0,0.5-0.4,1-1,1c-0.5,0-1-0.4-1-1
	C503.5,259.3,503.9,258.8,504.5,258.8z M499.4,258.5c0.6,0,1.2,0.5,1.2,1.1c0,0.6-0.5,1.2-1.2,1.2c-0.6,0-1.2-0.5-1.2-1.2
	C498.2,259,498.8,258.5,499.4,258.5z M493.9,258.6c0.7,0,1.4,0.6,1.4,1.4c0,0.7-0.6,1.4-1.4,1.4c-0.8,0-1.4-0.6-1.4-1.4
	C492.5,259.2,493.1,258.6,493.9,258.6z M487.8,259.5c0.8,0,1.5,0.7,1.5,1.6c0,0.8-0.7,1.5-1.5,1.5c-0.8,0-1.6-0.7-1.6-1.5
	C486.2,260.2,486.9,259.5,487.8,259.5z M481.6,261.6c1,0,1.8,0.8,1.8,1.8c0,1-0.8,1.8-1.8,1.8c-1,0-1.8-0.8-1.8-1.8
	C479.8,262.4,480.6,261.6,481.6,261.6z M475.7,265.1c1.1,0,2,0.9,2,2c0,1.1-0.9,2-2,2c-1.1,0-2-0.9-2-2
	C473.7,266,474.6,265.1,475.7,265.1z M468.1,272.6c0-1.2,1-2.2,2.2-2.2c1.2,0,2.2,1,2.2,2.2c0,1.2-1,2.2-2.2,2.2
	C469.1,274.9,468.1,273.9,468.1,272.6z M450.7,572.5c2,4.4,5.2,7.9,10.2,10.1c3.8,1.7,8.7,2.7,14.9,2.7c-3.7-0.4-6.8-1.2-9.4-2.3
	c-3.9-1.7-6.5-4.3-8.1-7.9c-2-4.4-1.8-9.1-1.4-14c0.2-2.8,0.5-5.6,0.4-8.6c-2.6,1.8-5.4,3.4-8.4,4.9
	C448.7,563.1,448.8,568.3,450.7,572.5z M417.4,432.6c9.5-2.8,18.8-4.3,27.6-4.4c19.6-0.4,37.4,5.2,52.4,15.5
	c0.2,0.1,0.4,0.3,0.6,0.4c0,0,0.1,0,0.1,0.1c0.1,0,0.1,0.1,0.1,0.1c12.7,8.9,23.4,21.1,31.3,35.9c1.9-1.5,4-2.7,6.2-3.6
	c-12.8-22.9-32.5-40.4-57.2-48.4c-0.2,0.1-0.4,0-0.6-0.2c-5-1.6-10.2-2.7-15.6-3.5v0c-0.5,0.2-1.1,0.4-1.6,0.6
	c-0.5,0.3-1-0.4-0.6-0.8c0,0,0.1-0.1,0.1-0.1c-1.1-0.1-2.1-0.3-3.2-0.3c-0.1,0-0.1,0-0.2,0c-3.1-0.3-6.2-0.4-9.3-0.3
	c-1.6,0-3.2,0.1-4.8,0.2c-21.4,1.1-39.3,9.2-52.8,20.6c1.1,0.5,2.1,1,3.2,1.6C400.3,439.8,408.4,435.2,417.4,432.6z M527.3,326.1
	c-7.8,3.1-14.4,9.2-15.8,16.7c1.5,2.3,2.7,4.5,3.8,6.9c1.3-3.7,4.8-6.9,8.3-10.9c0.1-0.1,0.1-0.1,0.2-0.1c0.1,0,0.2,0.1,0.3,0.2
	c0.6,3.4,2.2,7.4,3.1,11.5c2.3-0.4,4.5-1,6.7-1.6c-0.1-3.4-0.8-6.3-1.8-8.9C530.2,335,527.6,331,527.3,326.1z M433.7,564.2
	c2.4-0.4,4.8-0.5,7.1-0.5c-0.9-0.8-1.7-1.6-2.4-2.4c-2,0.6-4,1.2-5.9,1.7C432.9,563.5,433.2,563.9,433.7,564.2z M463.2,268.7
	c2.3-3.1,5.4-5.8,9.2-8.1c6.3-3.8,13.9-5.8,22-5.9c17.4-0.4,36.6,8,47,26.2c1.8-0.6,3.6-1.1,5.4-1.6c-8.1-14.8-22.1-24.1-36.8-28
	c-5.6-1.5-11.3-2.2-16.8-2.2c-9.2,0.1-17.8,2.2-24.6,6.3c-4.2,2.5-7.6,5.5-10.4,8.7C460.1,265.6,461.8,267.1,463.2,268.7z
	 M489.3,349.4c4.7,1.1,9.6,1.9,14.7,2.2c0.3,0,0.7,0,1,0.1c-2.9-4.4-6.5-8.4-10.4-12.3C492.5,342.8,490.7,346.1,489.3,349.4z
	 M375,429.4c0.4,0.1,0.7,0.3,1,0.4l2.1-1.4c-1.5-2.5-3.2-4.8-5-7.1l-8.6,7C368.6,427.8,372.2,428.3,375,429.4z M360.4,407.9
	c-1.8-1.5-3.6-3-5.5-4.4c1.7,1.7,3,4,3.6,6.7L360.4,407.9z M486.3,337.9c-1.5,3.2-2.9,6.3-4.2,9.4c2.2,0.8,4.5,1.4,6.8,2
	c1.5-3.4,3.3-6.8,5.5-10.4c0-0.1,0.1-0.1,0.1-0.1c0.1,0,0.1,0,0.1,0.1c4.1,4.1,7.8,8.2,10.8,12.8c3.2,0.2,6.4,0.2,9.6,0
	c-3.7-9.7-12.6-19.1-21.4-29.8C491.4,327.3,488.8,332.6,486.3,337.9z M398.1,437c-3.6,1.9-7,4-10.1,6.1c0.4,0.2,0.8,0.4,1.2,0.6
	C392,441.3,394.9,439.1,398.1,437z M515.5,350.4c0.2,0.4,0.3,0.9,0.5,1.3c3.6-0.2,7.1-0.6,10.5-1.3c-0.8-3.8-2.2-7.6-2.9-11
	C520,343.6,516.6,346.8,515.5,350.4z M474.5,335.9c-3.6-2.1-7.6-3.6-9.8-6.5c-0.8,2.4-1.9,4.7-3,6.9c2.2,2,4.6,3.7,7.3,5.3
	c0.1,0,0.1,0,0.2,0.1c0,0,0,0,0,0c0.1,0,0.1,0.1,0.2,0.1c3.7,2.1,7.6,3.9,11.7,5.3c0.3-0.7,0.5-1.3,0.8-2
	C481.2,340.4,478.1,337.9,474.5,335.9z M305.3,378.6c-3.2,0-6.4,0.3-9.5,0.6c0.2,0.3,0.5,0.7,0.7,1c1.6,2.2,3.3,4.3,5,6.4
	c1,0,2-0.1,3-0.1c36.7,0,68.1,22.9,81.3,55.6c0.1,0.1,0.2,0.1,0.4,0.2c2.2-1.4,4.4-2.7,6.8-4C379.4,403.4,345.3,378.1,305.3,378.6z
	 M360.7,408.1l-2.1,2.5c0.4,1.9,0.5,4,0.3,6.2c-0.3,2.7-1.2,5.5-2.7,8.4l10.9-10.9C365.1,412.2,363,410.1,360.7,408.1z M390.2,441
	c-1,0.6-1.9,1.2-2.9,1.8c0,0,0.1,0,0.1,0.1C388.3,442.2,389.2,441.6,390.2,441z M464.7,328.8c0.1,0,0.1,0,0.2,0.1
	c2,2.9,6.1,4.5,9.8,6.7c3.4,2,6.6,4.4,7.5,8.8c1-2.3,2-4.5,3.1-6.8c-1.8-6-6.1-8.7-10.9-11.3c-1.7-1-3.5-1.9-5.3-3
	c-0.1,0-0.2-0.1-0.2-0.2c-2.8-1.8-5.5-4-7.5-7.2c-1.2,4.9-3.4,9.3-5.5,13.6c1.6,2.3,3.5,4.5,5.7,6.4c1.2-2.3,2.3-4.6,3-7
	C464.6,328.9,464.6,328.8,464.7,328.8z M451.7,322.1c1,2.3,2.2,4.5,3.5,6.5c0.9-1.8,1.8-3.6,2.6-5.4
	C455.6,323,453.6,322.6,451.7,322.1z M278.8,334c0.3,0,0.5,0.1,0.7,0.1c0.4,0.1,0.8,0.4,1,0.8c0.3,0.6,0.2,1.4-0.3,2.2
	c2.7-0.6,5.5-1.2,8.4-1.7c2.1-1.6,3.4-3,4.5-4.5c1.2-1.5,2.3-3.1,4.1-4.8c-3.2,0.2-6.2,0-9.2,0c-3.8,0-7.7,0.2-12.1,1.4
	c0.1,2.3,0.3,4.6,0.6,6.9c0.5-0.2,0.9-0.3,1.4-0.4C278.2,334.1,278.5,334,278.8,334z M285.6,286.7c0.6-0.2,1.3-0.5,1.9-0.6
	c12-7.5,15.9-15.9,17.4-24.5c0.1-0.3,0.1-0.7,0.2-1v0c-8.3,7.5-14.8,15.7-19.5,24.7c0,0.4,0,0.8,0,1.2V286.7z M297.5,303.1
	c0.8,0.1,1.5,0.5,1.8,1.1c0.3,0.6,0.3,1.3,0,2.1c-0.3,0.8-1,1.6-2,2.3c-3.4,2.6-9.1,5.3-14.6,7.9c2.5-0.5,4.9-0.7,7.1-0.8
	c2.4-0.1,4.7,0.1,7,0.3c4.9-2.5,7.5-5.7,9.4-9c2-3.4,3.3-7,5.7-10.4c-5.4-1-10.1-2.2-14.6-2.6c-0.8-0.1-1.7-0.1-2.5-0.1
	c-3.5,0-6.9,0.6-10.5,2.5c-1.2,4.7-3.5,9.2-7.3,13.4c-0.1,0.7-0.2,1.4-0.3,2.1c5.9-3.2,11.7-5.9,17.7-8.3
	C295.6,303.1,296.7,302.9,297.5,303.1z M323.3,256.3c0.7,0,1.4,0.1,2.1,0.1c-2.1-2.2-4.2-4.4-6.5-6.6c-1.7,1.1-3.4,2.3-5,3.5
	c1.2,1.1,2.3,2.2,3.5,3.3C319.3,256.3,321.3,256.3,323.3,256.3z M284.7,287.2c0-0.1,0-0.3,0-0.4c-0.5,1-1,2.1-1.5,3.1
	c-2.7,6-4.6,12-5.8,18.1c5.3-6.5,7.1-13.4,7.3-20.7V287.2z M326.9,256.5c0.8,0.1,1.6,0.2,2.4,0.3c1.7,0.2,3.4,0.5,5.2,0.7
	c1.8-3.6,5.5-5.8,9.2-6c3.9-0.2,7.8,1.7,10,6c1.9,3.7,0.2,9.1-4.1,10.7c-1,2.4-1.9,4.7-2.7,7c2.9-0.1,5.8-1.1,8.3-3.2
	c5.5-4.6,6.1-11.5,4.1-18.6c-1.3-4.7-3.8-9.6-6.8-13.9c-1.2-1.5-2.4-2.9-3.6-4.3c-1.5,0.5-3,1-4.5,1.6c0.3,1.2,0.5,2.4,0.5,3.6
	c0.2,3.3-0.7,6.4-3,9.3c-6,7.4-17.3,6.6-21.9-0.5c-0.1,0.1-0.3,0.2-0.4,0.3C322.2,251.6,324.6,254.1,326.9,256.5z M344.9,413.7
	c-0.7-0.6-1.7-0.9-2.9-0.9c-0.9,0-2,0.3-3.1,0.8c-1.1,0.5-2.3,1.2-3.5,2.1l4.6,3c1.9,1.1,3.9,2.2,5.9,3.4c0.3-0.9,0.5-1.7,0.5-2.5
	C346.8,416.9,346.2,414.8,344.9,413.7z M316.4,256.7c-1-1-2.1-2-3.1-2.9c-2.5,1.9-5,3.9-7.3,5.9c0,0.1,0,0.1,0,0.2
	C309.5,258.1,312.9,257.1,316.4,256.7z M360.4,241.5c-1-0.4-1.7-1.4-1.7-2.6c0-1.6,1.3-2.8,2.8-2.8c0.1,0,0.3,0,0.4,0
	c0.6-1.3,1.3-2.6,2.1-3.8c-0.3-0.4-0.6-0.8-0.9-1.2c-1.7,0.4-3.3,0.8-4.9,1.2c-0.4,1.1-1.4,1.9-2.6,1.9c-0.7,0-1.3-0.2-1.8-0.6
	c-1.3,0.4-2.7,0.8-4,1.2c3.9,4.6,7.6,9.4,11.1,14.5C360.2,246.7,360,244,360.4,241.5z M331.6,242.9c-0.2,0.1-0.4-0.1-0.2-0.3
	c0.2-0.1,0.3-0.3,0.4-0.4c-1.7,0.8-3.3,1.7-4.8,2.6c1,1.7,3.1,2.8,5.5,2.6c3.1-0.4,5-2.3,5.8-4.7c0.4-1.1,0.5-2.4,0.3-3.6
	c-2.1,0.9-4.1,1.8-6,2.8C332.3,242.2,332,242.6,331.6,242.9z M374.7,430.3c-1.9-0.7-4.1-1.2-6.5-1.2c-2.2,0-4.6,0.3-7.2,0.9
	c4.9,2.5,10.1,5,15.5,7.5c2.2,1,4.4,2.1,6.6,3.1C382.4,436.1,379.5,432.2,374.7,430.3z M338.6,242.8c-0.8,2.5-2.8,4.5-6.1,4.9
	c-2.5,0.3-4.7-0.9-5.8-2.7c-0.7,0.4-1.3,0.7-2,1.1c-1.5,0.9-2.9,1.8-4.3,2.7c4.5,7,15.5,7.8,21.4,0.5c2.2-2.8,3.1-5.8,3-9
	c0-1.1-0.2-2.3-0.5-3.5c-1.8,0.7-3.6,1.4-5.3,2.1C339.1,240.2,339,241.5,338.6,242.8z M373,421.1c-1.7-2.3-3.6-4.4-5.5-6.5
	l-11.7,11.7c-0.2,0.3-0.3,0.5-0.5,0.8c1.5,0.8,2.9,1.5,4.5,2.3c1.5-0.4,2.9-0.7,4.3-0.9L373,421.1z M353.5,403.7
	c-2.1-1.7-4.7-2.8-7.7-2.9c-1.8,0-3.8,0.3-5.9,1.1c-3.8,1.4-8,4.2-12.2,8.8c1,0.7,1.9,1.4,2.9,2.1l4.2,2.7c1.3-1,2.6-1.8,3.8-2.3
	c1.4-0.6,2.6-0.8,3.7-0.8c1.1,0,2.1,0.4,2.8,1c1.5,1.2,2.1,3.5,1.7,6.3c-0.1,0.8-0.3,1.7-0.6,2.6c2.6,1.4,5.2,2.9,8,4.3
	c2.1-3.5,3.2-6.8,3.6-9.9C358.6,411.1,356.8,406.5,353.5,403.7z M297,308.1c1-0.7,1.5-1.5,1.8-2.1c0.3-0.6,0.3-1.2,0.1-1.6
	c-0.2-0.4-0.7-0.7-1.4-0.8c-0.2,0-0.4-0.1-0.6-0.1c-0.6,0-1.4,0.2-2.3,0.5c-6.1,2.4-12,5.1-18,8.4c-0.3,2-0.5,3.9-0.6,5.9
	c1.5-0.6,2.9-1,4.4-1.4C286.5,314.1,293.2,311.1,297,308.1z M333.2,404.4l4.4-10.6c-2.8-1.2-5.7-2.2-8.6-3.1l-5.1,17.1
	c1,0.8,2,1.5,3,2.2C329,407.8,331.2,405.9,333.2,404.4z M315,377.6l0.9-8.9c-3.3-0.3-6.7-0.5-10.1-0.5c-5.5,0-11,0.5-16.4,1.3
	c1.7,2.8,3.5,5.6,5.5,8.4c3.5-0.4,7-0.7,10.4-0.7C308.6,377.2,311.8,377.3,315,377.6z M315.9,368.3l1-9.9c-3.3-0.3-6.7-0.5-10.2-0.5
	c-7.6,0-15.1,0.8-22.4,2.3c1.4,3,3,6,4.8,9c5.4-0.9,11-1.4,16.6-1.4C309.2,367.8,312.6,368,315.9,368.3z M316.9,358.1l0.8-7.8
	c-3.2-0.3-6.6-0.4-9.9-0.4c-9,0-17.8,1-26.2,2.8l0.6,2.9c0.6,1.5,1.3,2.9,2,4.4c7.3-1.5,14.9-2.3,22.5-2.3
	C310.2,357.6,313.6,357.8,316.9,358.1z M302,387.2C302.1,387.2,302.1,387.2,302,387.2L302,387.2C302.1,387.2,302.1,387.2,302,387.2z
	 M304.5,387.2c-0.7,0-1.4,0-2.1,0v0.5c0.6,0.7,1.3,1.5,1.9,2.2c1.9-1.4,3.9-2.3,5.9-2.5C308.4,387.2,306.4,387.2,304.5,387.2z
	 M278.8,345.9c0.5,1.6,1,3.2,1.5,4.7l-1-4.9C279.2,345.8,279,345.8,278.8,345.9z M451.1,320.7l1.2-5.9c-0.9,0.3-1.9,0.7-2.8,1
	C450,317.5,450.5,319.1,451.1,320.7z M297.7,325.8c0.2,0,0.2,0.2,0.1,0.3c-2,1.7-3.1,3.4-4.4,5c-1.1,1.4-2.2,2.7-4.1,4.2
	c4.1-0.7,8.2-1.1,12.3-1.4c4.8-5.1,6.9-9.7,10.5-15.3c-1.1-0.1-2.1-0.2-3.2-0.3c-0.1,0-0.3,0-0.4-0.1c-6-0.6-11.6-1.9-17.9-1.8
	c-4.5,0-9.3,0.7-14.9,2.8c-0.1,2.6-0.2,5.2,0,7.9C284.1,325,290.5,326.2,297.7,325.8z M365.4,230.6c-0.4,0.1-0.9,0.2-1.3,0.3
	c0.2,0.2,0.3,0.4,0.5,0.6C364.8,231.2,365.1,230.9,365.4,230.6z M427.3,424.7c2.3-0.5,4.6-1,7.1-1.3c-1.4-4.3-3.1-8.5-4.9-12.5
	c-0.1-0.1-0.1-0.2-0.1-0.3c-2.3-5-4.9-9.9-7.8-14.5c-3.1-5-6.6-9.8-10.3-14.3c-0.2-0.1-0.3-0.2-0.4-0.4
	C398,366,381.6,353.6,363,345.4c-0.2,0.1-0.4-0.1-0.5-0.2c-7.9-3.4-16.2-6.1-24.8-7.9c-0.1,0-0.2,0-0.3-0.1
	c-8.7-1.8-17.6-2.7-26.8-2.7c-2.9,0-5.8,0.1-8.6,0.3c-0.1,0-0.1,0-0.2,0c-8.4,0.6-16.7,1.9-24.6,4c0.3,1.6,0.6,3.3,1,4.9
	c0.1,0.4,0.2,0.8,0.3,1.2c9.7-2.2,19.9-3.4,30.6-3.4C363.9,341.5,410.4,376.3,427.3,424.7z M280,335.1c-0.1-0.2-0.3-0.4-0.7-0.5
	c-0.2-0.1-0.4-0.1-0.6-0.1c-0.2,0-0.5,0-0.8,0.1c-0.4,0.1-0.9,0.2-1.4,0.4c0.1,1,0.3,2,0.5,3c0.8-0.2,1.6-0.4,2.5-0.6
	C280.1,336.3,280.2,335.6,280,335.1z M439,230.6c2.2-1.4,4.4-2.7,6.6-3.9l-0.7-1c-2.3-0.1-4.6-0.3-7-0.4c-0.7,0.5-1.3,1.1-2,1.7
	L439,230.6z M549.8,267.3l-3.6,0.2c-0.1,0-0.2-0.1-0.1-0.2l0.6-4.3c-1-1.2-1.9-2.4-2.9-3.5l-1.3,11.2l9.4-0.4
	C551.2,269.4,550.5,268.3,549.8,267.3z M503.8,264.6c-2.2,0-4.4,0.1-6.5,0.5c-6.8,1.1-12.9,4-16.9,8.4c-3,3.2-4.8,7.1-5.1,11.7
	c0.7-2.1,1.8-3.9,3.3-5.4c2.6-2.8,6.3-4.5,9.8-4.9c0.9-0.1,1.8-0.1,2.7-0.1c6.1,0.3,12.2,3.5,14.6,8.1c1.4-1,2.9-1.7,4.3-2.1
	c0.1,0,0.1,0,0.2,0c0.3,0,0.5,0.2,0.5,0.5c-0.2,4,1.9,7.5,4.5,11l-0.3-0.5c6.7-3.4,13.6-6.3,20.7-8.8
	C528.1,270.3,515.5,264.8,503.8,264.6z M494.9,271.5c-0.8,0-1.5-0.7-1.5-1.5c0-0.8,0.7-1.5,1.5-1.5c0.8,0,1.5,0.7,1.5,1.5
	C496.4,270.8,495.7,271.5,494.9,271.5z M501.7,272.8c-1.3,0-2.4-1.1-2.4-2.4c0-1.4,1.1-2.4,2.4-2.4c1.3,0,2.4,1.1,2.4,2.4
	C504.1,271.7,503,272.8,501.7,272.8z M510.5,277.6c-2.1,0-3.8-1.7-3.8-3.8c0-2.1,1.7-3.8,3.8-3.8c2.1,0,3.8,1.7,3.8,3.8
	C514.3,275.9,512.6,277.6,510.5,277.6z M519.1,286.6c-2.8,0-5.1-2.3-5.1-5.1c0-2.8,2.3-5.1,5.1-5.1c2.8,0,5.1,2.3,5.1,5.1
	C524.2,284.3,521.9,286.6,519.1,286.6z M549.7,267.1c-0.9-1.3-1.8-2.5-2.7-3.7l-0.5,3.9L549.7,267.1z M533.1,261.7
	c3.1,2.5,6.1,5.3,8.7,8.5l1.2-10.5L533.1,261.7z M549.7,278.4c2-0.5,3.9-1,5.9-1.5c-1.1-2.1-2.2-4-3.3-5.9L549.7,278.4z
	 M542.8,271.4c1.8,2.3,3.4,4.9,4.9,7.5c0.4-0.1,0.7-0.2,1.1-0.3l2.6-7.6L542.8,271.4z M522.8,302.5c-0.1,0.1-0.2,0.1-0.3,0.1
	c0,0.1,0.1,0.1,0.1,0.1C522.6,302.6,522.7,302.6,522.8,302.5z M501.2,288.3c-2.6,3.1-4.6,6.9-5.1,10.5c1.7,1.6,3.3,3.2,4.8,5
	c0.7-3.4,2.4-6.9,5.8-9.5c0.1,0,0.1-0.1,0.1-0.1c0.1,0,0.2,0.1,0.2,0.2c-0.2,2.7,0.8,4.9,2.1,6.9c1.4,2,3.1,3.9,4.6,6
	c1.5,2.1,2.7,4.4,2.8,7.3c0.1,2.4-0.5,5.1-2.1,8.5c0.8-0.8,1.6-1.5,2.4-2.2c2.3-1.9,4.8-3.6,7.2-5.5c1-7.8-2.6-13.3-6.5-18.4
	c-3.8-4.9-7.8-9.5-8-15.2C506.8,283.1,503.7,285.4,501.2,288.3z M529.2,301.6c1.7,0.8,3.4,2.5,5.2,4.9c2.9,4,5.9,10.2,8.8,18.2
	c-2.8-9.8-4-16.8-3.9-21.6c0.1-2.8,0.5-4.9,1.3-6.4c0.6-1.2,1.4-2,2.3-2.5c-5.7,2-11.3,4.2-16.7,6.7
	C527.1,300.8,528.2,301,529.2,301.6z M547.9,294.3c1.5,0.8,3,2.4,4.5,4.7c2.7,4.1,5.5,10.8,8.3,20.4c-1.8-8.9-2.6-16.1-2.3-21.2
	c0.2-2.9,0.7-5.2,1.6-6.9c0.6-1.2,1.4-2.1,2.4-2.6c-5.9,1.4-11.8,3-17.6,5C545.8,293.4,546.9,293.7,547.9,294.3z M540.9,296.9
	c-0.7,1.4-1.2,3.5-1.3,6.2c-0.1,5.5,1.4,13.8,5.3,26.2c3-1.4,6.1-2.6,9.2-3.8l-4.4-12.6c-0.3,0.1-0.5,0.1-0.8,0.1
	c-1.5,0-2.7-1.2-2.7-2.7c0-1.5,1.2-2.7,2.7-2.7c1.5,0,2.7,1.2,2.7,2.7c0,1.1-0.6,2-1.6,2.5l4.4,12.6c2.3-0.9,4.6-1.7,6.9-2.5
	c-3.1-11.5-6.2-19.1-9.2-23.7c-1.5-2.3-3-3.8-4.4-4.6c-0.9-0.5-1.7-0.7-2.5-0.7c-0.5,0-1,0.1-1.4,0.3
	C542.6,294.6,541.6,295.4,540.9,296.9z M339.5,500.5c-0.7,1.2-1.5,2.3-2.3,3.4l2.9,2.9c0.3-1.7,0.6-3.3,1-5L339.5,500.5z
	 M362.6,237.3c-2.7,7.2-1.1,16.1,6,24c3.3,3.7,7.9,7.1,13.7,10c2.8-2.5,5.8-4.6,9.2-6.5c-4.3-2-7.6-4.3-10-6.8
	c-5.1-5.1-6.5-10.9-4.7-15.4c1.8-4.5,6.8-7.8,14.2-8c7.3-0.2,17,2.4,28.4,9.7c1.3-2.1,2.7-4,4.3-6c-9.1-6.3-17.4-10.3-24.8-12.5
	c-11.2,0.8-21.7,2.2-31.4,4.3C365.3,232.2,363.6,234.6,362.6,237.3z M537.4,252.4c7.4,6.6,13.8,14.8,18.7,24.4c2-0.5,4-0.9,6-1.3
	C556.3,267,548.1,259.3,537.4,252.4z M438.7,230.8l-3-3.6c-1,0.9-2,1.8-3,2.8c-0.9,0.9-1.8,1.8-2.7,2.7l2.6,2.6
	C434.6,233.7,436.6,232.2,438.7,230.8z M424.4,237.4c1.6-2.1,3.4-4,5.2-6c-2.9-2-5.4-4.2-7.5-6.3c-3.9,0-7.8,0.1-11.9,0.2
	C414,229.5,418.7,233.6,424.4,237.4z M319.8,391.4c1.1,1.4,2,3.1,2.6,5c1,2.9,1.5,6.4,1.3,10.6l4.9-16.4c-2.7-0.8-5.5-1.5-8.3-2
	L319.8,391.4z M408.7,225.3c-1.7,0.1-3.3,0.1-5,0.2c-0.6,0-1.1,0.1-1.7,0.1c4,1.4,8.1,3.2,12.6,5.7
	C412.4,229.3,410.5,227.3,408.7,225.3z M421.4,247.2c1.5-2.1,3.1-4.1,4.8-6l-2-1.6c-1.6,2.1-3.1,4.3-4.5,6.5L421.4,247.2z
	 M430.7,236.9c0.6-0.5,1.1-0.9,1.7-1.4l-2.5-2.5c-1.9,2.1-3.7,4.2-5.4,6.3l2,1.6C427.8,239.5,429.2,238.2,430.7,236.9z M384.1,441.3
	c0.2,0.1,0.5,0.2,0.7,0.4c-0.4-0.9-0.8-1.8-1.2-2.7C383.9,439.7,384.1,440.5,384.1,441.3z M314.8,387.8c1.7,0.6,3.3,1.7,4.7,3.3
	l0.5-2.5C318.3,388.3,316.6,388,314.8,387.8z M417.3,255.9c4.2-0.7,8.3-1.1,12.3-1.1c1,0,1.9-0.1,2.8,0c2.6-3.1,5.6-5.9,9.1-8.4
	c12.8-9.4,27.8-14,42.7-14.2c1.7,0,3.3,0,5,0.1c-12.3-3.1-25.7-5.1-40.2-6.2c-6.2,2.9-12.2,6.7-17.7,11.5
	C425.4,242.6,420.7,248.9,417.3,255.9z M447.3,225.9c-0.7,0-1.3-0.1-2-0.1l0.6,0.8C446.4,226.3,446.8,226.1,447.3,225.9z
	 M431.9,229.1c1.4-1.3,2.8-2.6,4.3-3.8c-4.4-0.2-9-0.2-13.6-0.2c2.1,2.1,4.5,4.1,7.3,6.1C430.5,230.5,431.2,229.8,431.9,229.1z
	 M516.3,314.8c-0.2-2.8-1.3-5.1-2.7-7.1c-1.5-2.1-3.3-4-4.6-6c-1.3-2-2.2-4.1-2.2-6.8c-3.3,2.5-4.9,6-5.5,9.3c0,0,0.1,0.1,0.1,0.1
	c5.3,6.2,9,13.8,7.9,26.2c1.2-2.5,2.8-4.6,4.5-6.4C515.7,320.3,516.4,317.3,516.3,314.8z M526.2,510.1c-1.6-0.8-2.9-1.7-4-2.9
	c-0.1,0.4-0.4,0.9-0.9,1.4c-0.5,0.5-1.2,1-2,1.5c-1.6,1-3.8,2-6.3,2.8c0.8,2.6,1.6,5.2,2.2,7.9l11.2-10.6
	C526.4,510.2,526.3,510.2,526.2,510.1z M462.9,547.9c2.2,0.9,4.2,1.7,6,2.6c3.3,1.7,6.2,3.7,9,7.4c4.5,5.8,5.1,14.2,4.3,26
	c1.7-3.7,3.4-9,3.9-14.6c0.5-6.4-0.5-13.1-4.7-18.1c-0.1-0.1-0.1-0.1-0.1-0.2c-3.9-4.7-7.8-7-12.9-9c-0.1,0-0.2-0.1-0.2-0.1
	c-0.1,0.2-0.2,0.4-0.4,0.5C466.3,544.4,464.7,546.2,462.9,547.9z M468.8,541.1c1.3,0.5,2.5,1,3.7,1.6c0.1-5.8,2-10.1,4.5-13.7
	c2.6-3.8,5.9-6.8,8.7-10.4c0-0.1,0.1-0.1,0.2-0.1c0.1,0,0.1,0.1,0.1,0.1c1.8,3.7,4.7,6.6,6.7,10.1c2,3.5,3.1,7.6,1.7,13.8
	c0.9-0.2,1.7-0.4,2.6-0.6c1.8-0.4,3.6-0.7,5.4-1.1c1-7.4-1.5-13-5-18.3c-3.4-5.1-7.8-9.9-10.6-15.5c-4.2,5-9.3,9.4-13.5,14.3
	C473.9,529.2,472.4,535.7,468.8,541.1z M368.2,539.6c-2.1,0-3.7,1.6-3.7,3.7c0,2.1,1.7,3.7,3.7,3.7c2.1,0,3.7-1.7,3.7-3.7
	C371.9,541.2,370.2,539.6,368.2,539.6z M459.5,489.5c9,4.2,17.1,11.1,22.8,21c1.4-1.5,2.9-3,4.2-4.6c0.1-0.1,0.2-0.2,0.4-0.2
	c0.2,0,0.4,0.1,0.4,0.3c2.7,5.7,7.2,10.6,10.8,16c3.5,5.3,6.1,11.1,5.2,18.6c1.4-0.3,2.8-0.7,4.1-1.2c-1.5-33.6-25.2-61.6-53-66.1
	c-3.8-0.6-7.4-0.9-10.9-1c-1.2,0-2.4,0-3.6,0.1c4.4,3.2,8.6,6.5,12.5,10C455.1,484.7,457.4,487.1,459.5,489.5z M391.8,561.3
	c-0.3,0.1-0.7,0.2-1.1,0.2c-2,0-3.6-1.4-4-3.2c-1.7-1.2-3.3-2.5-4.8-3.8c-0.7,0.9-1.8,1.4-3.1,1.4c-2.2,0-4.1-1.8-4.1-4.1
	c0-1.4,0.7-2.6,1.7-3.3c-1.8-2.5-3.2-5.1-4.4-7.9c-0.9-2.4-1.6-4.7-1.9-7c-0.2-0.2-0.3-0.5-0.5-0.7c-9.4-13.4-12.2-31.5-7.4-48.2
	c0.9-3.3,2.2-6.6,3.6-9.9c-2.4-1-4.8-1.9-7.3-2.6c-10.5,16.5-13.3,34.1-10.2,49.7c5.9,29.7,33.4,51.8,71,43.8
	c-2.2,0.3-4.3,0.4-6.5,0.5C405.1,566.1,398,564.5,391.8,561.3z M358.6,479.8c1.2,0,2.2,1,2.2,2.2c0,1.2-1,2.2-2.2,2.2
	c-1.2,0-2.2-1-2.2-2.2C356.5,480.7,357.4,479.8,358.6,479.8z M355.9,487.5c1.4,0,2.5,1.1,2.5,2.5s-1.1,2.5-2.5,2.5
	c-1.4,0-2.5-1.1-2.5-2.5S354.5,487.5,355.9,487.5z M354.2,496.3c1.6,0,2.9,1.3,2.9,2.9c0,1.6-1.3,2.9-2.9,2.9
	c-1.6,0-2.9-1.3-2.9-2.9C351.3,497.6,352.6,496.3,354.2,496.3z M350.8,509.4c0-2,1.6-3.5,3.6-3.5c2,0,3.5,1.6,3.5,3.5
	c0,2-1.6,3.6-3.5,3.6C352.3,513,350.8,511.4,350.8,509.4z M352.1,521c0-2.1,1.7-3.8,3.8-3.8c2.1,0,3.8,1.7,3.8,3.8
	c0,2.1-1.7,3.8-3.8,3.8C353.8,524.7,352.1,523.1,352.1,521z M361,536.3c-2.2,0-4.1-1.8-4.1-4.1c0-2.2,1.8-4.1,4.1-4.1
	s4.1,1.8,4.1,4.1C365,534.4,363.2,536.3,361,536.3z M368.2,547.3c-2.2,0-4.1-1.8-4.1-4.1c0-2.2,1.8-4.1,4.1-4.1
	c2.2,0,4.1,1.8,4.1,4.1C372.2,545.5,370.4,547.3,368.2,547.3z M439,561.2c0.8,0.9,1.6,1.8,2.6,2.6c2.1,0.1,4.2,0.3,6.3,0.7
	c-0.1-2.1-0.1-4.3,0-6.6c-1.5,0.7-3,1.3-4.6,1.9C441.8,560.3,440.4,560.8,439,561.2z M537,463c2.8,1.4,5.6,2.2,8.2,2.5
	c-5.2-10-13.4-16.1-21.5-23C524.7,451.3,529.4,459.3,537,463z M550,511.5c0.3,0,0.6,0,1-0.1c2.4,0,4.8,0.2,7.1,0.6
	c-1.8-6.9-4.1-13.5-6.9-19.8c-0.8,3.4-2.2,6.3-3.9,8.9C548.4,504.5,549.3,508,550,511.5z M515.6,435c-0.4,3.6-0.4,7.3,0.2,11.1
	c4.6,3.4,8.8,7.1,12.8,11c-3.3-4.3-5.3-9.7-5.8-15.5c-0.1-0.1-0.3-0.2-0.4-0.4C520.1,439.4,517.8,437.3,515.6,435z M550,487.5
	c0.3-3.3,0.1-6.9-0.7-10.9c-0.1-0.4-0.2-0.7-0.3-1.1c-1.7,0.1-3.5,0.3-5.3,0.6C546,479.8,548.1,483.6,550,487.5z M336.4,582.8
	c-0.9-0.4-1.9-0.8-3-1.1C334.4,582.1,335.4,582.5,336.4,582.8z M361,528.5c-2.1,0-3.7,1.7-3.7,3.7c0,2.1,1.7,3.7,3.7,3.7
	c2.1,0,3.7-1.7,3.7-3.7C364.7,530.2,363,528.5,361,528.5z M531.9,460.6c3.9,4.3,7.4,8.9,10.6,13.7c2-0.5,4-0.7,6-0.8
	c-0.7-2.6-1.7-5-2.7-7.2c-2.9-0.3-6-1.1-9.1-2.6C534.9,462.9,533.3,461.9,531.9,460.6z M516,432.5c2.1,2.3,4.4,4.4,6.7,6.4
	c0.1-6.8,2.4-13.8,7.3-19.5c-1.7-1.7-3.6-3.3-5.4-4.9C520.3,419.7,517.3,425.9,516,432.5z M516.7,409.7l5.9,6.6
	c0.5-0.7,1.1-1.4,1.7-2.1c-1.9-1.6-3.8-3.2-5.8-4.7c-0.5,0.1-1.1,0.1-1.6,0.2C516.8,409.7,516.7,409.7,516.7,409.7z M390.4,504.9
	c-1.8-0.3-3.4-0.4-4.9-0.4c-1.4,0-2.6,0.1-3.5,0.3c-1,0.2-1.7,0.4-2.2,0.7c-0.5,0.3-0.7,0.6-0.8,0.8c0,0.3,0.1,0.5,0.5,0.8
	c0.4,0.3,1.1,0.6,2,0.8c0.7,0.2,1.6,0.3,2.6,0.4c1.9-1,4-2,6.3-2.9C390.4,505.3,390.4,505.1,390.4,504.9
	C390.4,504.9,390.4,504.9,390.4,504.9z M355.9,517.5c-1.9,0-3.4,1.5-3.4,3.4c0,1.9,1.5,3.4,3.4,3.4s3.4-1.5,3.4-3.4
	C359.3,519.1,357.8,517.5,355.9,517.5z M379.5,511.3c1.2-0.9,2.6-1.8,4-2.6c-0.8-0.1-1.6-0.2-2.2-0.4c-1-0.2-1.6-0.5-2.1-0.9
	c-0.5-0.3-0.7-0.7-0.6-1.2c0.1-0.4,0.4-0.8,1-1.1c0.5-0.3,1.3-0.5,2.3-0.7c1-0.2,2.2-0.3,3.6-0.3c1.4,0,3,0.1,4.9,0.4
	c0,0,0.1,0,0.1,0c0.2-2.1,0.6-4.2,1.2-6.3c-0.3-0.7-0.6-1.4-1-2.1l-22.2,10.4L379.5,511.3z M369.2,512.9L369.2,512.9
	c0.1,0,0.2,0,0.2,0.1l5.8,2.4c1.1-1.3,2.3-2.5,3.7-3.6l-10.7-4.6C368.4,509.1,368.7,511,369.2,512.9z M507.3,407
	c2.5,1.7,5.7,2,9.5,1.7c0.2,0,0.3,0,0.5-0.1c-0.9-0.6-1.8-1.3-2.7-1.9l-9.3-6c-0.8-0.5-1.7-0.9-2.5-1.4
	C503.8,403.2,505.3,405.6,507.3,407z M383.6,492.6l-15.7,7c0,0-0.1,0.1-0.1,0.1c0,2.1,0.1,4.3,0.3,6.4l22.3-10.5
	c-3.7-7.2-9.2-12.9-16.6-17.1c-0.4-0.2-0.8-0.4-1.2-0.6l11.1,14C384,492.1,383.9,492.4,383.6,492.6z M355.9,492.2
	c1.2,0,2.1-1,2.1-2.1c0-1.2-1-2.1-2.1-2.1c-1.2,0-2.2,1-2.2,2.1C353.8,491.2,354.7,492.2,355.9,492.2z M354.2,501.8
	c1.4,0,2.6-1.1,2.6-2.6c0-1.4-1.1-2.5-2.6-2.5c-1.4,0-2.6,1.1-2.6,2.5C351.6,500.7,352.8,501.8,354.2,501.8z M357.5,509.4
	c0-1.8-1.4-3.2-3.2-3.2c-1.8,0-3.2,1.4-3.2,3.2c0,1.8,1.4,3.2,3.2,3.2C356.1,512.7,357.5,511.2,357.5,509.4z M358.6,483.8
	c1,0,1.8-0.8,1.8-1.8c0-1-0.8-1.8-1.8-1.8c-1,0-1.8,0.8-1.8,1.8C356.8,483,357.6,483.8,358.6,483.8z M370.1,531.4
	c-0.2-3.2,0.3-6.2,1.3-9.3c-5.3-11.6-6-25.8-2-39.3c0.6-1.9,1.2-3.8,1.9-5.7c-1.5-0.8-3-1.5-4.5-2.1c-1.4,3.2-2.6,6.5-3.6,9.8
	C358.8,500.9,361.3,518.3,370.1,531.4z M382.5,491.9l-10.7-13.5c-0.6,1.5-1.1,3.1-1.6,4.6c-1.5,5.1-2.4,10.3-2.5,15.4L382.5,491.9z
	 M341.8,531.3c0.5,2,1.1,3.9,1.7,5.8c0.9,2.4,1.9,4.8,3.1,7.1c7,2,13.4,5.3,18.8,9.6c6.2,5,11.1,11.3,14.3,18.4
	c12.1,4.3,26.1,5.1,40.9,1.3c-0.7-0.5-1.5-1-2.4-1.4c-0.3-0.2-0.4-0.6-0.1-0.9c2.5-2,4.9-3.4,7.4-4.6c-0.6-0.5-1.2-1.1-1.8-1.6
	c-40,10.6-69.7-12.2-75.8-43.2c-3.1-15.7-0.2-33.4,10.3-50c-0.7-0.2-1.4-0.4-2.1-0.6C341.6,491.4,337.7,513.6,341.8,531.3z
	 M344.4,488.7l0.7,0.3c2.4-5.9,5.6-11.7,9.6-17.4c0-0.2-0.1-0.5-0.1-0.7c-3-0.7-6.2-1.3-9.4-1.8
	C346.2,475.7,345.9,482.5,344.4,488.7z M486.5,475.6c3.2,2.4,6.2,5,9,8c3.5-2.5,6.3-4.2,8.3-5.2c1-0.5,1.9-0.8,2.5-1
	c0.3-0.1,0.6-0.1,0.8-0.1c0.2,0,0.4,0.1,0.6,0.3c0.2,0.1,0.2,0.4,0.2,0.6c0,0.2-0.1,0.5-0.2,0.8c-0.2,0.6-0.6,1.4-1.2,2.3
	c-1.2,1.9-3.3,4.4-6.3,7.7c0,0,0,0-0.1,0c0.1,0.1,0.1,0.1,0.1,0.2c2.3,2.9,4.4,6.1,6.3,9.4l12.4-29.5L486.5,475.6z M355,471
	c-0.1,0-0.1,0-0.2,0c0,0.1,0,0.1,0,0.2C355,471.1,355,471,355,471z M276.1,503c-0.6-1.2-1.1-2.4-1.5-3.7l-2,0.5
	c-0.7,1.7-1.2,3.4-1.5,5.3L276.1,503z M507.4,478.8c0.1-0.3,0.1-0.5,0.1-0.7c0-0.2-0.1-0.3-0.1-0.4c-0.1-0.1-0.3-0.2-0.7-0.2
	c-0.1,0-0.3,0-0.4,0.1c-0.6,0.1-1.4,0.4-2.4,1c-2,1-4.7,2.7-8.2,5.1c1.5,1.6,2.9,3.2,4.3,4.9c0,0,0,0,0,0c3-3.2,5-5.8,6.2-7.6
	C506.9,480.2,507.3,479.4,507.4,478.8z M494.5,397.2c-1,1.4-1.9,3.2-2.8,4.9c-0.9,1.7-2,3.5-3.4,4.7c-1.4,1.2-3.3,1.8-5.8,1.5
	c-0.2,0-0.3-0.2-0.2-0.4c0.7-1.2,0.8-2.6,0.8-4.2c-0.1-1.6-0.3-3.3-0.2-4.8c0.1-1.6,0.6-3,1.9-4.1c0.2-0.1,0.3-0.3,0.5-0.4
	c-2.3,0.4-4.6,0.9-6.8,1.4c-0.4,0.1-0.7,0.2-1.1,0.2c-1.3,0.9-2.1,1.9-2.5,3.1c-0.6,1.5-0.6,3.3-0.5,5.1c0.2,3.6,1,7.7-0.3,11.1
	c5.7-1.2,11.3-2.3,16.1-5c4.4-2.4,8-6.1,10.4-12.1c0-0.1,0-0.1,0-0.2c-1.5-0.8-3-1.7-4.6-2.5C495.5,396,495,396.6,494.5,397.2z
	 M514.6,462.1c0,0-0.1,0-0.1,0l-20.1,3.1c-0.3,0.1-0.6-0.2-0.6-0.5l0.8-21.9c0,0,0,0,0,0c-2.2-1.4-4.4-2.7-6.7-3.9l-1.8,36.1
	l32.8-6.6C517.6,466.2,516.2,464.1,514.6,462.1z M274.5,498.9c-0.2-0.7-0.4-1.4-0.5-2.2c-0.4,0.9-0.8,1.7-1.2,2.6L274.5,498.9z
	 M295.7,480.9c0.3,0.6,0.7,1.1,1.2,1.5l18.7-12.4c0,0,0,0,0-0.1c-4.2,0.8-8.3,2-12.3,3.4L295.7,480.9z M480.6,455.1
	c0-0.4-0.1-0.6-0.2-0.8c-0.1-0.2-0.2-0.3-0.3-0.3c-0.1,0-0.1-0.1-0.2-0.1c-0.3,0-0.6,0.2-1.1,0.5c-0.6,0.5-1.4,1.2-2.3,2.3
	c-1.8,2.1-4,5.4-6.8,9.9c2.4,0.9,4.8,1.9,7.1,3.1c0,0,0-0.1,0-0.1c1.8-5,3-8.9,3.4-11.5C480.6,456.8,480.7,455.8,480.6,455.1z
	 M295.1,477.6c-0.1,0.3-0.1,0.5-0.1,0.8c0,0.7,0.2,1.5,0.5,2.2l7-7c-2.4,0.9-4.6,1.9-6.7,2.9L295.1,477.6z M278.3,506.5
	c-0.7-1.1-1.4-2.1-2-3.3l-5.3,2.2c-0.4,1.8-0.6,3.8-0.6,5.7L278.3,506.5z M459.5,463.7c3.4,0.7,6.7,1.6,9.9,2.8c0,0,0,0,0,0
	c2.7-4.5,5-7.8,6.8-10c0.9-1.1,1.7-1.8,2.3-2.3c0.6-0.5,1.2-0.7,1.6-0.5c0.2,0.1,0.4,0.3,0.5,0.5c0.1,0.2,0.2,0.5,0.2,0.9
	c0.1,0.7,0,1.8-0.3,3.1c-0.5,2.7-1.6,6.5-3.5,11.5c0,0.1-0.1,0.1-0.1,0.1c2.9,1.5,5.7,3.2,8.3,5l1.8-35.8L459.5,463.7z M274,526.1
	l10.5-13.2c-1.2-0.9-2.4-1.9-3.4-3l-10.2,9.5c0.2,1.5,0.5,3.1,0.9,4.6C272.5,524.8,273.2,525.5,274,526.1z M527.2,518.9l2.6,0.6
	c1.8-1.6,3.8-2.9,5.8-4c-0.2-1.4-0.4-2.8-0.6-4.2L527.2,518.9z M526.7,518.9l8.1-8c0,0,0.1,0,0.1-0.1c0-0.1,0-0.1,0-0.2
	c-2.9,0.8-5.7,0.7-8.1-0.3l-11.4,10.7l10.1,2.7c1.2-1.5,2.5-2.9,3.9-4.1l-2.7-0.6C526.7,519.2,526.6,519,526.7,518.9z M551.5,490.9
	c2.3,5,4.2,10.3,5.9,15.8c-2.4-10-4.2-19-3.9-26.3c0.1-1.6,0.2-3.2,0.5-4.7c-1-0.1-2-0.2-3-0.2c0.1,0.2,0.1,0.5,0.2,0.7
	C552.4,481.6,552.4,486.6,551.5,490.9z M517.4,538.1c0.6-0.1,1.2-0.2,1.6-0.2c0.4-2,0.9-3.9,1.7-5.8c-1.1-0.2-2.3-0.3-3.7-0.3
	C517.2,533.9,517.3,536,517.4,538.1z M517,531.4c1.5,0,2.7,0.2,3.8,0.4c0.8-1.9,1.8-3.8,3-5.5c0.5-0.7,1-1.4,1.5-2.1l-9.9-2.6
	C516.1,524.7,516.6,528,517,531.4z M535.8,510.4c0.3,1.5,0.5,3.1,0.7,4.6c1.5-0.7,3-1.4,4.6-1.9c-0.4-1.6-0.7-3.1-1.2-4.7
	C538.5,509.3,537.1,510,535.8,510.4z M544.8,504.4c-1.3,1.4-2.7,2.6-4.2,3.6c0.4,1.6,0.8,3.2,1.2,4.9c2.3-0.7,4.8-1.1,7.2-1.3
	c-0.7-3.2-1.5-6.3-2.4-9.4C546,503,545.4,503.7,544.8,504.4z M521.1,505.9c-0.8-1.1-1.4-2.3-1.7-3.6c-0.1-0.3-0.1-0.5-0.2-0.7l-12-2
	c1.4,2.6,2.7,5.2,3.8,8c4.1-1.3,6.9-1.8,8.7-1.8C520.3,505.7,520.7,505.8,521.1,505.9z M409,452.2c-0.2-0.1-0.3-0.1-0.4-0.1
	c-0.1,0-0.1,0-0.1,0c-0.1,0-0.2,0.1-0.3,0.3c-0.1,0.2-0.1,0.5-0.1,0.9c1.2,0.6,2.4,1.3,3.6,1.9c-0.7-1.1-1.4-1.9-2-2.4
	C409.5,452.5,409.2,452.3,409,452.2z M519.3,495.2l-3.2-0.5c-0.3,0-0.5-0.4-0.4-0.7l7.6-17.8c0-0.1,0.1-0.2,0.2-0.2
	c-1.2-2.3-2.4-4.5-3.8-6.6l-12.4,29.5l11.9,2C518.8,499,518.9,497.1,519.3,495.2z M407.9,452.4c0.1-0.3,0.3-0.5,0.5-0.6
	c0.2-0.1,0.5,0,0.7,0.1c0.3,0.1,0.6,0.4,0.9,0.7c0.6,0.6,1.4,1.6,2.3,3c1.7,0.9,3.3,1.7,5,2.6c3.9,2.1,7.7,4.3,11.3,6.5
	c0,0,0.1,0,0.1,0l-25.8-24.2l0.8,10.6c1.3,0.7,2.7,1.4,4,2.1C407.8,452.8,407.8,452.6,407.9,452.4z M289.9,485.1
	c0.1,0.1,0.1,0.2,0.2,0.3c-0.8-1.7-1.1-3.4-0.8-5.1c-1,0.7-2.1,1.5-3,2.2C287.7,483,289.1,483.8,289.9,485.1z M517.4,538.5
	c0.1,3.8-0.1,7.6-0.6,11.4l2.2-2.1c-0.5-3.1-0.5-6.3,0-9.6C518.4,538.3,517.9,538.3,517.4,538.5z M521.1,508.4
	c0.5-0.5,0.7-0.9,0.8-1.2c0-0.1,0-0.2,0-0.2c-0.2-0.2-0.4-0.4-0.5-0.6c-0.3-0.2-0.9-0.3-1.6-0.3c-1.7,0-4.5,0.5-8.6,1.8
	c0.6,1.6,1.3,3.2,1.8,4.8c2.5-0.7,4.6-1.7,6.2-2.7C520,509.4,520.6,508.9,521.1,508.4z M435.6,254.2l0.6,0.7
	c0.6,0.1,1.1,0.1,1.7,0.2L435.6,254.2z M368.5,263c-0.3-0.3-0.6-0.6-0.9-0.9c-3.1-3.4-5.1-7-6.3-10.7c-2-3.1-4.2-6-6.3-8.9
	c2.1,3.4,3.7,7.1,4.7,10.7c2,7.2,1.4,14.3-4.2,19c-2.6,2.2-5.7,3.2-8.7,3.2c-0.7,1.8-1.4,3.6-2.1,5.4c1.4,2.5,2.8,5,4.1,7.6
	c-0.5-1.2-0.8-2.6-0.8-4c-0.2-6.3,3.7-10.4,8.3-11.5c1.2-0.3,2.3-0.4,3.5-0.3c3.5,0.3,7,2.3,8.9,6.4c0.4,0.9,0.6,1.9,0.6,2.9
	c1.7-0.8,3.5-1.6,5.4-2.2c0,0,0,0,0,0c-0.3-3.6-1.5-7.5-3.2-11.3C370.5,266.6,369.5,264.8,368.5,263z M375,279.3
	c0.2-0.2,0.3-0.5,0.5-0.7c0.2-0.3,0.4-0.5,0.6-0.8c-1-2-1.9-4.1-2.9-6.1C374.1,274.3,374.7,276.8,375,279.3z M376.6,277.2
	c1.5-1.8,3-3.5,4.7-5.1c-4.4-2.2-8.1-4.7-11.1-7.4C372.5,268.8,374.6,273,376.6,277.2z M398.5,248.3c-1-0.2-1.9-0.2-2.7-0.2
	c-0.8,0-1.6,0.1-2.2,0.3c-1.3,0.3-2.1,0.8-2.5,1.5c-0.4,0.7-0.4,1.5,0.1,2.5c0.5,1,1.5,2.1,3.1,3.2c2,1.4,5,2.8,9.1,4
	c3.2-1.1,6.3-2,9.4-2.7c0.3-0.6,0.5-1.2,0.8-1.8C407.5,250.9,402.4,248.9,398.5,248.3z M390.7,252.6c-0.6-1.1-0.6-2.2-0.1-3
	c0.5-0.8,1.5-1.5,2.8-1.8c0.7-0.2,1.4-0.2,2.3-0.3c0.8,0,1.8,0.1,2.8,0.2c4,0.6,9.2,2.7,15.1,6.7c1.6-3.4,3.4-6.7,5.5-9.9
	c-11-7-20.4-9.7-27.5-9.7H391c-7.3,0.3-12.2,3.4-13.9,7.8c-1.7,4.4-0.5,9.9,4.6,15c2.5,2.5,5.8,4.8,10.2,6.8
	c2.6-1.4,5.3-2.7,8.2-3.9c0.8-0.3,1.6-0.6,2.4-0.9c-3.7-1.2-6.6-2.5-8.5-3.9C392.3,254.8,391.2,253.7,390.7,252.6z M526.3,246
	c-1.4-0.7-2.9-1.5-4.4-2.2l0.7,4.1L526.3,246z M355.5,309.9L355.5,309.9c1.4,0.3,3,0.5,4.7,0.6c0.4,0.1,0.5,0.5,0.2,0.8
	c-1.3,1-2.4,2-3.4,3.2c3.2,7.1,9.8,12.9,19.6,14.8c2,0.4,4.2,0.6,6.5,0.7c-4.7-5.3-8.2-10.8-10.4-16.7c-1-1.6-1.7-3.3-2-5.1
	c-0.1-0.8-0.2-1.6-0.2-2.4c-1.9-9.4-0.9-17.6,3.1-24.4c-3.5,1.3-6.5,2.9-9,4.8C356.4,292.5,353.7,301.6,355.5,309.9z M393,504.6
	c0.1-0.5,0.3-0.9,0.4-1.4c-0.4-1.4-0.9-2.8-1.4-4.1c-0.5,2-0.9,4.1-1.1,6.2C391.6,505.1,392.3,504.8,393,504.6z M372,311.3
	c-0.3-0.9-0.6-1.8-0.8-2.8c-0.1-0.3-0.1-0.6-0.2-0.8c0,0.1,0,0.3,0.1,0.4C371.2,309.2,371.5,310.2,372,311.3z M522.5,248.2
	c-0.1,0-0.2,0-0.2-0.1l-0.8-4.4c-1.1-0.5-2.2-1-3.3-1.6c-0.2-0.1-0.5-0.2-0.7-0.3l2.2,11.7l10.8-5.3c-1.3-0.7-2.5-1.4-3.9-2.1
	L522.5,248.2z M489.7,248.3c1.2-0.1,2.4-0.1,3.6-0.1c3.6,0,7.2,0.3,10.8,0.8l-4.9-14c0,0,0,0-0.1,0L489.7,248.3z M484.2,232.6H484
	l5.3,7.9l4.9-7c-0.7-0.2-1.5-0.4-2.2-0.6C489.3,232.7,486.8,232.6,484.2,232.6z M387.2,558.6c0.5,1.5,1.9,2.5,3.5,2.5
	c0.2,0,0.4,0,0.6-0.1c-1.3-0.7-2.6-1.4-3.9-2.3C387.3,558.7,387.3,558.6,387.2,558.6z M510.3,238.9c-1.8-0.7-3.6-1.3-5.4-2l1.7,5.1
	L510.3,238.9z M489.3,240.9c-0.1,0.1-0.2,0.1-0.2,0l-5.5-8.2c-1.7,0-3.5,0.1-5.2,0.3c0,0,0.1,0,0.1,0.1l10.5,15.3l9.6-13.4
	c-1.4-0.4-2.7-0.8-4.2-1.2L489.3,240.9z M376.7,548.7c-1,0.7-1.6,1.8-1.6,3.1c0,2.1,1.7,3.7,3.7,3.7c1.1,0,2.1-0.5,2.8-1.3
	C379.8,552.5,378.2,550.7,376.7,548.7z M434.2,253.6c0,0-0.1-0.1-0.1-0.1c-0.4,0.4-0.7,0.8-1.1,1.2c0.7,0,1.5,0.1,2.2,0.1
	L434.2,253.6z M532.5,261.1l10.7-2.1c-1-1.1-1.9-2.1-2.9-3.1l-4.3,1c-0.1,0-0.2-0.1-0.2-0.1l-0.3-5.3c-0.3-0.3-0.6-0.5-1-0.8
	c-0.9-0.5-1.8-1.1-2.7-1.6L532.5,261.1z M506.6,242.3c-0.1,0.1-0.2,0-0.2-0.1l-1.8-5.5c-1.5-0.5-3-1-4.5-1.5l4.7,13.8l10.3-8.2
	c-1.5-0.6-3-1.2-4.5-1.8L506.6,242.3z M505.5,249.3c1.6,0.3,3.2,0.7,4.8,1.1c2.9,0.8,5.8,1.8,8.6,3l-2.2-11.9
	c-0.3-0.1-0.6-0.2-0.9-0.4L505.5,249.3z M419.5,246.3c-2.1,3.3-3.8,6.7-5.4,10.1c0.7-0.2,1.4-0.3,2.1-0.4c1.4-3,3.1-5.9,5-8.6
	L419.5,246.3z M469,391.3c4.1,2.4,8.4,2,13,1.5c2.5-0.3,5-0.6,7.6-0.6c-1.4-0.7-2.8-1.5-4.3-2.2c-2.4-0.7-4.5-1.4-6.6-2.4
	c-1.8-0.9-3.5-1.9-5.1-3.4c-1.7-0.8-3.4-1.6-5.2-2.4c-3.8-1.8-7.6-3.5-11.4-5.4C460.4,384.2,464.5,388.7,469,391.3z M449.7,381.8
	c3.1,8.1,6.4,12.2,10.8,13.9c4.4,1.7,10.1,1,17.8-0.8c4-0.9,8.2-1.9,12.7-1.9c-0.3-0.1-0.5-0.3-0.8-0.4c-2.8-0.1-5.6,0.3-8.3,0.6
	c-4.6,0.5-9,0.9-13.2-1.5c-4.6-2.7-8.8-7.4-12.2-15.3c-3.9-1.9-7.7-3.8-11.6-5.7c0.1,0.2,0.2,0.3,0.3,0.5
	C447.1,374.4,448.4,378.2,449.7,381.8z M451.7,321.1l13.3-10.4c-0.8-0.4-1.5-0.8-2.2-1.2c-2.7,1.9-5.9,3.6-9.7,5L451.7,321.1z
	 M487.5,394.1c-1,0.3-1.7,0.6-2.3,1.1c-1.2,0.9-1.6,2.2-1.7,3.7c-0.1,1.5,0.1,3.2,0.2,4.8c0.1,1.5-0.1,2.9-0.7,4.1
	c2.2,0.3,3.7-0.3,5-1.4c1.3-1.1,2.3-2.8,3.2-4.5c0.9-1.7,1.8-3.6,2.9-5c0.4-0.6,0.9-1.1,1.5-1.5c-0.8-0.4-1.6-0.9-2.4-1.3
	c-0.9-0.1-1.8-0.1-2.7-0.1C489.5,394,488.5,394,487.5,394.1z M398.6,365.9c7.5,9.6,23.6,12.1,36.9-0.2c-2.8-1.5-5.7-2.9-8.5-4.4
	c-0.1,0-0.1,0.1-0.2,0.1c-5.5,2.8-10.9,2.6-14.6,0.3c-3.6-2.3-5.7-6.6-4.9-12.1c-3.6-2.4-7-4.8-10.3-7.3c-0.7,1.4-1.2,2.8-1.6,4.2
	C393.2,354.3,394.8,361,398.6,365.9z M458.6,262.2l-3.4-23.3c-1.5,0.7-3,1.4-4.5,2.2l2,13.2c0,0.1-0.1,0.2-0.2,0.2l-13.8-5.2
	c-1.4,1.2-2.8,2.5-4.1,3.8v0l6.9,2.6c3.8,0.8,7.3,2.2,10.6,4L458.6,262.2z M429.6,409.2c3.6-12.9,8.8-25.5,15.3-36.7
	c-0.2-0.3-0.3-0.6-0.5-1c-0.4-0.7-0.8-1.3-1.2-1.9c-2.1-1.1-4.2-2.1-6.3-3.2c-5.6,9.5-10.3,19.6-14.1,30
	C425.3,400.6,427.6,404.9,429.6,409.2z M412.4,361.4c3.6,2.3,8.8,2.5,14.3-0.3c-6.7-3.6-13.1-7.4-19-11.3
	C406.9,355.1,408.9,359.2,412.4,361.4z M393.7,504.3c-0.1-0.2-0.1-0.4-0.2-0.6c-0.1,0.2-0.1,0.5-0.2,0.7
	C393.5,504.4,393.6,504.4,393.7,504.3z M383.4,349.2c-2.3,1.3-5.1,1.8-7.5,1.7c5.4,3.1,10.5,6.5,15.4,10.3c0.8-1.9,1.5-4.2,2-6.4
	c-0.2-2.6,0.1-5.3,0.9-8.2c-0.1-2.3-0.3-4.6-0.5-6.9c-0.7-0.6-1.5-1.2-2.2-1.8C390.4,342.7,387.8,346.8,383.4,349.2z M371.9,521
	c0.2-0.5,0.4-0.9,0.6-1.4c0.6-1.2,1.2-2.3,2-3.4l-5.1-2.1C370.1,516.5,370.9,518.8,371.9,521z M482.4,388.5
	c-2.2-1.1-4.4-2.2-6.7-3.2c1,0.7,2.1,1.3,3.2,1.9C480,387.7,481.2,388.1,482.4,388.5z M384.6,334.4c0.7,2.4-0.1,5.2-1.7,7.2
	c-1.7,2-4.4,3.1-7.5,2.2c-2.4-0.7-4-2.7-4.3-4.8c-0.3-2.1,0.6-4.3,3.1-5.3c1.8-0.7,3.5,0.2,4.2,1.4c0.4,0.7,0.5,1.6,0.1,2.3
	c-0.4,0.7-1.1,1.3-2.1,1.6c-0.2,0.1-0.3-0.3-0.1-0.3c1-0.3,1.6-0.8,1.9-1.4c0.3-0.6,0.3-1.4-0.1-2c-0.6-1-2.2-1.8-3.8-1.2
	c-2.4,0.9-3.2,2.9-2.9,4.9c0.3,2,1.7,3.9,4.1,4.5c3,0.9,5.5-0.2,7.2-2.1c1.6-1.9,2.3-4.6,1.7-6.9c-0.4-1.3-0.9-2.4-1.5-3.3
	c-2.2-0.1-4.4-0.3-6.4-0.7c-2.6-0.5-5-1.3-7.2-2.4c-2.8,1.5-5,4.4-5.5,8.6c-0.4,3.6,1,7,3.2,9.5c2.9,1.4,5.7,2.8,8.4,4.4
	c2.6,0.2,5.5-0.3,8-1.6c4.4-2.4,6.9-6.4,7.9-11.2c-0.1-0.1-0.3-0.2-0.4-0.3c-2.4-2-4.6-4.1-6.6-6.2c-0.3,0-0.7,0-1,0
	C383.7,332.1,384.2,333.2,384.6,334.4z M396,341.6c-0.5-0.4-1.1-0.8-1.6-1.2c0.1,1.5,0.3,2.9,0.3,4.4
	C395.1,343.7,395.6,342.6,396,341.6z M439.6,595.8c32.8-1.8,59.6-8.6,79.6-20.4c20.1-11.8,34.1-26.8,41.7-44.5
	c7.6-17.7,9.2-35.9,4.7-54.3c-3.1-12-9-24.7-17.4-37.6c-8.5-12.9-19.5-24.2-32.9-33.6l-9.3-6c-10.6-6.2-23.1-12.6-37-19
	c-13.7-6.3-27.7-13.2-41.4-20.5c-13.6-7.2-25.7-15.2-35.9-23.7c-10.1-8.4-16.6-17.9-19.1-28.2c-3-11.5-1.6-21.1,4.1-28.7
	c5.8-7.7,13.9-13.6,24-17.5c10.2-3.9,20-5.9,29.1-5.9c0.7,0,1.5,0,2.2,0c8.5,0,16,2.3,22.5,6.8c7.1,4.9,12.1,10.9,15.1,17.7
	c3,6.8,3,13.1,0,19.5c-2.9,6.3-9.8,11.1-20.4,14.5l-1.2,0.4l0.3,1.3c3.2,11.8,10.1,20.8,20.6,26.7c10.3,5.8,22.1,9.2,35.1,10.1
	c2.3,0.2,4.5,0.2,6.7,0.2c10.5,0,20.6-1.8,30-5.3c11.5-4.3,20.4-11,26.5-20.1c6.2-9.1,7.7-20.7,4.5-34.3
	c-5.4-21.6-23.2-39.3-52.9-52.7c-25.3-11.4-57.4-17.2-95.5-17.2c-6.3,0-12.9,0.2-19.6,0.5c-32.8,1.8-59.6,8.8-79.6,20.8
	c-20.1,12-34.2,27-42,44.4c-7.8,17.5-9.5,35.8-5.1,54.7c3.1,12.1,9.3,24.5,18.5,37c9.1,12.5,20.7,23.5,34.6,32.9l9.3,6
	c10.6,6.2,23,12.6,36.6,19c13.7,6.4,27.4,13.3,40.8,20.5c13.3,7.2,25.1,15.3,34.9,24.1c9.7,8.6,15.9,18.2,18.5,28.5
	c3.4,12.4,2.2,22.3-3.4,29.7c-5.8,7.5-13.8,13.2-23.9,16.8c-10.2,3.7-20.3,5.8-29.7,6.2c-9.4,0-17.8-2.4-24.8-7.1
	c-7-4.7-12-10.6-14.8-17.6c-2.7-6.9-2.6-13.6,0.3-19.8c2.9-6.2,9.8-11.1,20.4-14.5l1.2-0.4l-0.3-1.3c-3.2-11.8-10.1-20.8-20.6-26.7
	c-10.3-5.8-22.1-9.2-35.1-10.1c-2.3-0.2-4.5-0.2-6.7-0.2c-10.5,0-20.7,1.8-30.4,5.3c-11.7,4.3-20.9,11-27.2,20.1
	c-6.4,9.2-7.8,20.7-4.2,34.3c5.4,21.6,23.2,39.3,52.9,52.7c25.3,11.4,57.6,17.2,96,17.2C426.2,596.3,432.9,596.1,439.6,595.8z
	 M449.5,315.6c11.1-3.5,18.1-8.6,21.2-15.3c3.1-6.6,3.1-13.5,0-20.6c-3.1-7.1-8.3-13.2-15.6-18.3c-7.3-5.1-15.8-7.4-25.6-7
	c-9.3,0-19.2,2-29.5,6c-10.4,4-18.6,10-24.6,17.9c-6,8-7.4,17.9-4.3,29.9c2.7,10.6,9.2,20.2,19.6,28.9c10.4,8.6,22.5,16.6,36.2,23.9
	c13.7,7.3,27.6,14.2,41.5,20.6c13.9,6.4,26.2,12.7,36.8,18.9l9.3,6c13.3,9.3,24.1,20.4,32.5,33.2c8.4,12.8,14.2,25.2,17.3,37.2
	c4.4,18.2,2.9,36-4.6,53.4c-7.5,17.5-21.2,32.1-41.2,43.8c-19.9,11.7-46.2,18.5-79,20.2c-47.4,2.2-85.8-3.3-115.2-16.6
	c-29.4-13.3-46.8-30.5-52.1-51.8c-3.6-13.3-2.2-24.3,4-33.2c6.2-8.8,15-15.4,26.6-19.6c11.5-4.2,23.7-5.9,36.5-5
	c12.8,0.9,24.3,4.2,34.5,10c10.2,5.8,16.8,14.4,19.9,25.9c-11.1,3.5-18.2,8.6-21.2,15.3c-3.1,6.6-3.2,13.6-0.3,20.9
	c2.9,7.3,8,13.4,15.3,18.3c7.3,4.9,15.8,7.3,25.6,7.3c9.7-0.4,19.8-2.5,30.2-6.3c10.4-3.8,18.6-9.5,24.6-17.3c6-7.7,7.2-18,3.7-30.9
	c-2.7-10.6-9-20.3-18.9-29.2c-10-8.9-21.7-16.9-35.2-24.2c-13.5-7.3-27.1-14.2-40.8-20.6c-13.7-6.4-25.9-12.7-36.5-18.9l-9.3-6
	c-13.7-9.3-25.1-20.1-34.2-32.5c-9.1-12.4-15.2-24.6-18.3-36.5c-4.4-18.6-2.8-36.5,5-53.8c7.7-17.3,21.6-31.9,41.5-43.8
	c19.9-11.9,46.2-18.8,79-20.6c46.9-2.2,85.1,3.3,114.5,16.6c29.4,13.3,46.8,30.5,52.1,51.8c3.1,13.3,1.7,24.3-4.3,33.2
	c-6,8.9-14.6,15.4-25.9,19.6c-11.3,4.2-23.3,5.9-36.2,5c-12.8-0.9-24.3-4.2-34.5-10C459.2,335.8,452.6,327.1,449.5,315.6z"/>
</svg>
