<?xml version="1.0" encoding="utf-8"?>
<!-- Generator: Adobe Illustrator 24.3.0, SVG Export Plug-In . SVG Version: 6.00 Build 0)  -->
<svg version="1.1" id="Mandala_Letter" xmlns="http://www.w3.org/2000/svg" xmlns:xlink="http://www.w3.org/1999/xlink" x="0px"
	 y="0px" width="828px" height="828px" viewBox="0 0 828 828" style="enable-background:new 0 0 828 828;" xml:space="preserve">
<style type="text/css">
	.st0{fill:none;stroke:#000000;stroke-miterlimit:10;}
</style>
<path class="st0" d="M0.1,827V0h827.3v827.3H0.1v-0.2 M500.7,594.2c1.4-1,2.9-2.9,2.2-6.4c-0.5-2.7-2.7-4.8-6.5-6.3
	c-3.2-1.3-7-3.2-11.1-5.6c-3.9-2.3-7.4-6.6-10.4-13c-3-6.4-4.5-16-4.5-28.6V255.6h21.2c10.4,0,21.4,2.7,32.9,8.2
	c11.6,5.5,22.7,12.1,33,19.8c10.3,7.7,19.3,15.3,26.7,22.8c7.4,7.4,12.5,13.4,15.1,17.7c2,3.2,4.7,4.9,7.9,4.9
	c0.8,0,1.6-0.1,2.5-0.3c2.6-0.6,6.7-2.6,5.4-9.5c-0.5-4-1.3-11.1-2.7-20.9c-1.3-9.7-2.8-20.1-4.6-31.9c-1.8-11.4-3.8-25.4-6-41.5
	l-0.2-1.2H240.8l-0.2,1.2c-2.2,16.3-4.2,30.2-6,41.5c-1.7,11.1-3.3,21.8-4.6,31.9c-1.3,9.8-2.4,16.8-3.3,20.8c-1,5.1,1,8.5,5.7,9.6
	c0.9,0.2,1.8,0.3,2.6,0.3c3.4,0,6.1-1.6,8.2-4.9c2.6-4.3,7.6-10.3,14.7-17.7c7.2-7.4,16.1-15.1,26.4-22.8
	c10.2-7.6,21.3-14.3,33-19.8c11.5-5.4,22.6-8.2,32.9-8.2h21.2v278.8c0,12.6-1.5,22.2-4.5,28.6c-3,6.4-6.5,10.7-10.4,13
	c-4.2,2.4-7.8,4.3-10.8,5.6c-3.5,1.5-5.6,3.6-6.1,6.3c-0.5,2.4-0.1,4.4,1,5.8c1.3,1.6,3.6,2.4,7,2.4c0.5,0,2.2,0,13.9-2.3
	c7.6-1.5,17-3.1,27.8-4.6c10.8-1.5,21.5-2.3,32-2.3c10,0,20.7,0.8,31.7,2.3c11,1.6,20.5,3.1,28.1,4.6c7.7,1.6,12.4,2.3,13.9,2.3
	C497,596.1,498.9,595.5,500.7,594.2z M600.5,225c2.2,16.4,4.2,30.2,6,41.5c1.8,11.3,3.3,21.9,4.6,31.9s2.2,16.9,2.7,20.9
	c0.9,4.4-0.6,7.1-4.3,8c-3.8,0.9-6.8-0.4-9-4c-2.7-4.4-7.7-10.4-15.3-17.9c-7.5-7.5-16.5-15.2-26.9-22.9
	c-10.4-7.7-21.5-14.4-33.2-19.9c-11.7-5.5-22.9-8.3-33.5-8.3H469v280.1c0,12.8,1.5,22.6,4.6,29.2c3.1,6.6,6.7,11.2,11,13.6
	c4.2,2.4,8,4.3,11.3,5.6c3.3,1.3,5.2,3.1,5.6,5.3c0.4,2.2-0.1,3.9-1.7,5c-1.6,1.1-3.2,1.7-5,1.7c-1.3,0-5.9-0.8-13.6-2.3
	c-7.7-1.5-17.2-3.1-28.2-4.7c-11.1-1.5-21.7-2.3-31.9-2.3c-10.6,0-21.4,0.8-32.2,2.3c-10.9,1.6-20.1,3.1-27.9,4.7
	c-7.7,1.6-12.3,2.3-13.6,2.3c-5.3,0-7.5-2.2-6.6-6.6c0.4-2.2,2.2-4,5.3-5.3c3.1-1.3,6.7-3.2,11-5.6c4.2-2.4,7.9-7,11-13.6
	c3.1-6.6,4.6-16.4,4.6-29.2V254.2h-22.6c-10.6,0-21.8,2.8-33.5,8.3c-11.7,5.5-22.8,12.2-33.2,19.9c-10.4,7.7-19.3,15.4-26.6,22.9
	c-7.3,7.5-12.3,13.5-14.9,17.9c-2.2,3.5-5.3,4.9-9.3,4c-4-0.9-5.5-3.5-4.6-8c0.9-4,2-11,3.3-20.9c1.3-10,2.9-20.6,4.6-31.9
	c1.8-11.3,3.8-25.1,6-41.5H600.5z M562.3,269.8l-4.5,1c-0.1,0-0.2-0.1-0.2-0.1l-0.3-5.5c-1.3-1.1-2.6-2.1-3.9-3.1l0.8,13.1l11.1-2.2
	C564.3,271.9,563.3,270.9,562.3,269.8z M282.4,224.8h-15.5C271.4,228,277.7,227.9,282.4,224.8z M312,230.7c1.3-2,2.1-4,2.5-5.9h-6.6
	c-0.7,2.4-2.5,4.4-5.7,5.1c-2.6,0.5-5-0.6-6.3-2.3c-0.6-0.8-0.9-1.7-1-2.7h-7.8c0,1.3,0.3,2.7,0.9,4.2
	C291.8,238.9,305.9,239.8,312,230.7z M270.7,227c15.9,4.8,30.4,11.9,43,20.6c-1.4-1.5-2.6-3.5-3.2-5.7c-1.7-6.3,1.4-11.4,5.8-13.6
	c1.7-0.8,3.5-1.2,5.4-1.2c3.1,0.1,6.3,1.5,8.6,4.6c1.6,2.1,2,5.1,1,7.7c-0.9,2.6-3.1,4.7-6.5,5c-2.6,0.2-4.9-1.2-6-3.1
	c-1.1-1.9-1-4.4,1-6.3c1.4-1.3,3.5-1.1,4.6-0.3c0.7,0.6,1,1.4,1,2.2c-0.1,0.9-0.5,1.7-1.4,2.4c-0.2,0.1-0.4-0.2-0.2-0.3
	c0.8-0.6,1.2-1.3,1.3-2.1c0.1-0.7-0.2-1.4-0.9-1.9c-0.9-0.7-2.8-1-4.1,0.2c-2,1.8-2,4-1,5.8c1,1.8,3.2,3.1,5.7,2.9
	c3.3-0.3,5.3-2.3,6.2-4.8c0.9-2.4,0.5-5.3-1-7.3c-3.7-4.8-9.2-5.4-13.5-3.3c-4.3,2.1-7.3,7-5.6,13.2c0.7,2.7,2.4,5.1,4.3,6.7
	c1.7-0.2,3.3-0.5,5-0.7h0.1c0.3,0,0.5,0.3,0.5,0.5c-0.2,0.9-0.4,1.7-0.5,2.6c4.9,1.3,10.6-0.1,14.3-4.6c3.8-4.5,4.7-9.2,3.6-13.7
	c-0.6-2.6-2-5.2-3.8-7.7h-19.4c-0.4,2-1.2,4-2.6,6c-6.2,9.4-20.7,8.5-24.7-1.7c-0.6-1.5-0.9-2.9-0.9-4.3H283
	C279.4,227.4,274.7,228.1,270.7,227z M347.7,232.7c3.1,3.2,5.9,6.8,7.9,10.5c1.8,3.4,3.1,6.9,3.2,10.3c0,0.2,0,0.3,0,0.5h8.7
	c-0.3-0.4-0.6-0.9-0.9-1.3C360.8,245.3,354.5,238.5,347.7,232.7z M300.8,225c-0.1,0.1-0.3,0-0.3-0.2h-5.3c0.1,0.9,0.4,1.8,0.9,2.5
	c1.2,1.7,3.5,2.7,6,2.2c3-0.6,4.7-2.5,5.4-4.7h-6.5C300.9,224.8,300.8,224.9,300.8,225z M232.1,323.6c-0.4,0.9-0.8,1.9-1.1,3
	c0.4,0.2,0.9,0.3,1.5,0.4c4,0.9,7.1-0.4,9.3-4c1.7-2.9,4.4-6.4,8.1-10.6c-0.7-1.6-1.3-3.1-1.9-4.8
	C240.5,311.9,235.1,316.7,232.1,323.6z M266.3,224.8h-3.7c2.5,0.6,5.1,1.3,7.5,2C268.8,226.4,267.5,225.7,266.3,224.8z M262.7,259.2
	c0,0,0.1,0,0.1,0c0.1,0,0.2,0.1,0.2,0.2c0.3,8.3,3.6,16.2,0.8,25c2.1-1.3,4.2-2.4,6.4-3.3c2.5-5.8,2.7-11.9,2.1-18.1v-0.1
	c-0.7-7.3-2.5-14.7-2.8-22.1c-11.5,9.5-24.1,13.1-34,28.8c-1,5.9-1.9,11.8-2.8,17.8c-0.2,1.6-0.4,3.2-0.7,4.7
	C240.6,272.1,252.1,268,262.7,259.2z M240.4,299c3.4-7.4,6.9-15.5,9.8-20c0.9-1.4,2.1-2.2,3.2-2c0.5,0.1,0.9,0.5,1.1,1
	c0.2,0.6,0.2,1.4,0,2.4c-0.7,3.1-2.6,6.4-5.1,10.5c1.1-1,2.2-2.1,3.3-3.3c0.1-0.1,0.2-0.1,0.3-0.1c0.2,0,0.4,0.2,0.5,0.4
	c0.1,2,0.4,3.8,0.8,5.5c2.8-3.8,5.9-6.6,9.2-8.8c3-8.8-0.2-16.6-0.6-25c-10.8,8.9-22.2,13-30.9,33.9c-0.2,1.5-0.4,3.1-0.6,4.6
	c-0.6,4.8-1.2,9-1.8,12.4C232.3,306.3,236,302.9,240.4,299z M303,250c3.5-0.5,7-0.9,10.4-1.3c-15.9-11-34.6-19.4-55.5-23.9h-15.1
	c-0.3,2-0.7,4-1,6C265.1,233.1,285.6,239.9,303,250z M368.7,254h3.9v5.2c0.9,1.3,1.8,2.5,2.7,3.8c-0.6-2.8-0.8-5.5-0.4-8.2
	c-1.1-0.4-1.8-1.5-1.8-2.7c0-1.6,1.3-2.9,2.9-2.9c0.1,0,0.3,0,0.4,0c0.6-1.4,1.3-2.7,2.2-3.9c-4.5-6.1-11.2-14.4-17.6-20.5h-11.6
	c-0.6,0.3-1.2,0.6-2,0.6c-0.7,0-1.4-0.2-2-0.6h-6.6C349.7,232.5,359.7,242.5,368.7,254z M369.7,241.3c1.6,0,2.9,1.3,2.9,3
	c0,1.6-1.3,2.9-2.9,2.9c-1.6,0-3-1.3-3-2.9C366.7,242.7,368.1,241.3,369.7,241.3z M363.2,233.9c1.6,0,3,1.3,3,3c0,1.6-1.3,2.9-3,2.9
	c-1.6,0-2.9-1.3-2.9-2.9C360.2,235.3,361.5,233.9,363.2,233.9z M352.5,229.1c0-1.8,1.5-3.3,3.4-3.3c1.9,0,3.4,1.5,3.4,3.3
	c0,1.9-1.5,3.4-3.4,3.4C354,232.5,352.5,231,352.5,229.1z M416.5,237.7c-1.8-3.9-3.9-8.1-6.3-12.9h-12c1.9,3.2,3.6,6.8,5.5,10.4
	C407.6,235.4,411.9,236.3,416.5,237.7z M431.3,244.2c-7-6.2-11.9-12.9-15.1-19.4h-5.7c2.5,4.8,4.6,9.1,6.4,13.1
	C421.5,239.4,426.2,241.4,431.3,244.2z M441.5,250.5c1.7-2.1,3.5-4.2,5.4-6.2c-8.7-6.1-14.1-13.1-17.1-19.5h-12.2
	C422.1,233.6,429.8,242.7,441.5,250.5z M396.8,235.2c-0.1,0.1-0.1,0.1-0.2,0.2c0.5-0.1,1.1-0.1,1.6-0.2c1.6-0.1,3.3-0.1,5-0.1
	c-1.8-3.6-3.6-7.2-5.4-10.4h-0.1C399.6,228.1,399.4,232.5,396.8,235.2z M379.2,244.4c1.4-1.7,3.1-3.3,5-4.6c-1.3-1.7-2.6-3.5-4-5.2
	c-0.1,0-0.1-0.1-0.1-0.1c0,0,0-0.1,0-0.1c-2.5-3.2-5-6.4-7.7-9.6h-9.9C368.6,230.8,374.9,238.6,379.2,244.4z M340.6,252.1
	c1.4-1.4,3.5-1.2,4.6-0.4c0.7,0.5,1.1,1.3,1,2.2c0,0.1,0,0.2,0,0.2c1.3-0.1,2.6-0.1,3.8-0.1h2.2c0.1-1.9-0.4-3.8-1.6-5.3
	c-3.8-4.7-9.4-5.2-13.6-2.9c-3.7,2-6.3,5.9-5.8,11c2.6-0.7,5.2-1.3,7.8-1.8C339.2,254,339.6,253,340.6,252.1z M345.8,253.9
	c0-0.7-0.3-1.4-0.9-1.9c-0.9-0.7-2.8-0.9-4.1,0.3c-0.8,0.8-1.3,1.7-1.5,2.6c2.2-0.4,4.3-0.6,6.4-0.8
	C345.8,254.1,345.8,254,345.8,253.9z M379.5,227.2c0.2-0.8,0.5-1.6,0.9-2.4h-7.5c2.3,2.8,4.6,5.6,6.8,8.4
	C379.1,231.3,379,229.2,379.5,227.2z M447.2,244.1c0.7-0.7,1.4-1.4,2.1-2.1c1.6-1.5,3.1-2.9,4.7-4.3c-3.7-3.1-6.4-6.1-8.2-8.8
	c-1-1.5-1.7-2.8-2.2-4.1h-13.3C433.2,231.1,438.6,238,447.2,244.1z M380.4,234.2c1.4,1.8,2.8,3.6,4.1,5.4c1.4-0.9,2.9-1.7,4.6-2.4
	c-2.1-0.5-4-1.9-4.7-4.3c-0.5-1.7-0.2-3.2,0.6-4.2c0.7-1,2-1.6,3.2-1.6c2.1,0.1,3.1,2.2,2.4,3.6c-0.6,1.1-1.6,1.5-2.4,1.3
	c-0.4-0.1-0.7-0.3-1-0.6c-0.2-0.3-0.2-0.7-0.1-1.2c0.1-0.2,0.4-0.1,0.3,0.1c-0.1,0.3-0.1,0.6,0.1,0.9c0.2,0.2,0.4,0.4,0.7,0.5
	c0.6,0.1,1.5-0.1,2-1.1c0.6-1.2-0.2-3-2.1-3.1c-1.2,0-2.2,0.5-2.9,1.4c-0.7,0.9-1,2.3-0.5,3.9c0.7,2.4,2.8,3.7,5,4.1
	c1.9-0.7,4-1.2,6.2-1.6c0.2-0.2,0.5-0.4,0.6-0.5c2.5-2.7,2.7-6.9,0.8-10.2h-16.4c-0.5,0.8-0.8,1.6-1,2.5
	C379.2,229.6,379.5,232.2,380.4,234.2z M391.7,346.3c10.1,2,23.4,0,39.2-9c-1-1.7-2-3.6-2.8-5.4c-12.7,6-22.8,6.9-30,5
	c-7.3-2-11.6-7-12.5-12.5c-0.9-5.6,1.6-11.7,7.7-16.1c4.6-3.3,11.2-5.5,20-5.8c2.8-0.1,5.7,0,8.9,0.4c0.1-2.8,0.2-5.5,0.6-8.3
	c-5.1-0.8-9.7-1.1-14-1.2c-13.4-0.1-23,3.2-29.5,8.1c-2.9,2.2-5.1,4.7-6.7,7.4v17.7c0.7,0.1,1.3,0.2,2,0.2c0.4,0.1,0.6,0.6,0.2,0.8
	c-0.8,0.6-1.6,1.3-2.3,2v3.7C376.2,339.5,382.7,344.5,391.7,346.3z M373.6,337c-0.4-0.5-0.7-0.9-1-1.4v24.5c1.5,0.6,2.9,1.1,4.3,1.8
	C376.6,353.5,375.5,345.3,373.6,337z M372.6,327.4v1c0.3-0.3,0.6-0.6,0.9-0.8C373.2,327.5,372.9,327.4,372.6,327.4z M372.6,304v2.6
	c0.4-0.6,0.9-1.2,1.4-1.8C373.4,304.6,373,304.3,372.6,304z M444.5,445.7c2.4-0.6,4.8-1,7.4-1.4c-1.5-4.5-3.2-8.8-5.1-13.1
	c-0.1-0.1-0.1-0.2-0.1-0.3c-2.4-5.2-5.1-10.3-8.1-15.1c-3.2-5.2-6.8-10.2-10.7-14.9c-0.2-0.1-0.3-0.2-0.4-0.4
	c-13.4-16-30.4-28.9-49.8-37.4c-0.2,0.1-0.5-0.1-0.6-0.2c-1.5-0.6-3-1.2-4.4-1.8v8.3C406.2,383.5,432.6,411.3,444.5,445.7z
	 M372.6,294.9c0.4-0.2,0.9-0.4,1.3-0.5c1.3-0.2,2.6,0.4,3.2,1.2c0.6,0.7,0.7,1.6,0.5,2.4c-0.2,0.8-0.9,1.6-1.9,2
	c-0.2,0.1-0.3-0.2-0.1-0.3c0.9-0.4,1.5-1.1,1.7-1.8c0.2-0.7,0.1-1.4-0.4-2.1c-0.7-0.9-2.5-1.5-4.1-0.6c-0.1,0-0.1,0.1-0.2,0.1v8.2
	c0.5,0.4,1,0.7,1.6,0.9c1.2-1.4,2.7-2.8,4.3-4c1.6-1.2,3.3-2.3,5.2-3.3c0-1.1-0.2-2.1-0.6-3.1c-2.1-4.4-5.9-6.5-9.9-6.5
	c-0.2,0-0.5,0-0.7,0L372.6,294.9C372.6,294.9,372.6,294.9,372.6,294.9z M382.8,375.4c-3.3-1.8-6.8-3.4-10.3-4.9v8.6
	c2.1,1,4.1,2,6.2,3.1L382.8,375.4z M383.6,375.8l-11.1,18.4v6.2c0.1-0.1,0.2-0.2,0.4-0.2c0.2-0.1,0.4-0.1,0.6-0.1
	c0.6,0,1.2,0.3,1.5,0.9c0.3,0.8,0,1.7-0.8,2.1c-0.6,0.3-1.2,0.2-1.6-0.2v7.3l21.2-28.3C390.5,379.7,387.1,377.7,383.6,375.8z
	 M377.7,398c-0.8,0.4-1.7,0-2.1-0.8c-0.4-0.8,0-1.7,0.8-2.1c0.2-0.1,0.4-0.1,0.6-0.1c0.6,0,1.2,0.3,1.5,0.9
	C378.9,396.7,378.5,397.7,377.7,398z M381,393c-0.8,0.3-1.7,0-2.1-0.8c-0.3-0.8,0-1.7,0.8-2.1c0.2-0.1,0.4-0.1,0.6-0.1
	c0.6,0,1.2,0.4,1.5,1C382.2,391.7,381.8,392.7,381,393z M384.4,388.2c-0.8,0.3-1.7,0-2.1-0.8c-0.4-0.8,0-1.8,0.8-2.1
	c0.2-0.1,0.4-0.1,0.6-0.1c0.6,0,1.2,0.4,1.5,1C385.6,386.9,385.2,387.9,384.4,388.2z M387.5,383.6c-0.8,0.4-1.7,0-2.1-0.8
	c-0.3-0.8,0-1.7,0.8-2.1c0.2-0.1,0.4-0.1,0.6-0.1c0.6,0,1.2,0.3,1.5,0.9C388.7,382.3,388.3,383.2,387.5,383.6z M372.6,389.5v3.1
	l1.4-2.3C373.5,389.9,373,389.7,372.6,389.5z M378.5,382.5c-2-1.1-4-2.1-6-3v9.6c0.5,0.3,1.1,0.5,1.6,0.8L378.5,382.5z M319,252
	c0.2-1.1,0.4-2.2,0.6-3.4c-1.5,0.3-3,0.5-4.6,0.7c-0.2,0.2-0.4,0.2-0.6,0.1c-13.3,1.7-26.2,2.1-41.3,13.7c0.4,4.1,0.4,8.2-0.3,12.2
	c15.8-12.1,25.2-10.6,36.3-13c0,0,0,0,0,0c0.1,0,0.2,0.1,0.2,0.2c-0.4,1.3-0.7,2.6-1,3.9c2.7-1.4,5.4-2.8,8.1-4.1
	c0.6-0.3,1.2-0.5,1.7-0.8c0.2-2.9,0.3-5.9,0.7-8.8C318.8,252.5,318.9,252.2,319,252z M253.5,294.4c-0.4-1.7-0.8-3.6-1-5.5
	c-9.9,10.2-18.4,15.5-23.5,23.8c-0.4,2.6-0.8,4.6-1.2,6.3c-0.1,0.6-0.2,1.1-0.2,1.7c-0.2,2.8,0.8,4.7,3.1,5.8c0.3-1,0.7-2,1.1-3
	c3-7.1,8.6-12,16.2-16.2c0,0,0.1,0,0.1,0c0.1,0,0.1,0.1,0.2,0.1c0.6,1.6,1.2,3.2,1.9,4.8c1.9-2.2,4.1-4.5,6.6-7.1
	c0.1-0.1,0.2-0.2,0.4-0.4c-1.3-3.1-2.6-6.3-3.5-10C253.5,294.7,253.4,294.5,253.5,294.4z M272.7,275.8c-0.3,1.6-0.8,3.2-1.4,4.8
	c0.3-0.1,0.7-0.3,1-0.4c6.9-2.5,14.1-3.9,20.7-6.7c0.1,0,0.1-0.1,0.2-0.1c0.2,0,0.4,0.2,0.5,0.4c0,0.3,0.1,0.7,0.1,1
	c4.6-3,9.3-5.8,14.2-8.4c0.3-1.3,0.6-2.6,0.9-4C297.8,264.9,288.6,263.6,272.7,275.8z M272.7,281c-0.7,0.3-1.3,0.5-2,0.8
	c0,0-0.1,0-0.1,0.1c-5.9,2.4-11.5,6-16.2,12.7c0.9,3.4,2.1,6.6,3.4,9.5c0.8-0.8,1.6-1.6,2.4-2.4c1.7-2,3.5-3.6,5.3-5
	c5.3-4.8,11.3-9.6,17.8-14.5c3.2-2.4,6.4-4.6,9.7-6.8c0-0.3-0.1-0.6-0.1-0.9C286.2,277.3,279.2,278.6,272.7,281z M319.1,261
	C319.2,261,319.2,261,319.1,261c2.3-0.9,4.6-1.8,6.8-2.6c-2-1.7-4.1-3.4-6.2-5.1C319.4,255.9,319.3,258.4,319.1,261z M254,278.2
	c-0.2-0.4-0.4-0.6-0.7-0.7h-0.3c-0.6,0.1-1.6,0.6-2.3,1.8c-2.6,4.2-6,11.8-9.2,18.9c2-1.8,4.2-3.7,6.4-5.8c3.1-5,5.3-8.7,6.1-12.1
	C254.1,279.3,254.1,278.6,254,278.2z M336.8,245.5c4.4-2.3,10.2-1.8,14.1,3.1c1.2,1.5,1.7,3.5,1.6,5.5h6c0-0.2,0-0.3,0-0.5
	c-0.1-3.3-1.3-6.8-3.2-10.2c-2.8-5.1-7-9.9-11.5-13.9c-2-1.6-4.1-3.2-6.2-4.7h-2.9c1.8,2.5,3,5,3.7,7.6c1.1,4.6,0.2,9.4-3.6,14
	c-3.9,4.6-9.7,6-14.7,4.7c-0.1,0.3-0.1,0.7-0.1,1c2.4,1.9,4.8,3.8,7.1,5.9c1.3-0.4,2.5-0.8,3.8-1.2
	C330.3,251.6,333,247.5,336.8,245.5z M373.8,267.2c-0.3-1.2-0.8-2.5-1.2-3.7v19.6C375.4,278.6,375.4,273,373.8,267.2z M235.8,267.5
	c10-14.8,22.6-18.5,33.8-27.9c0.1-0.1,0.2-0.1,0.3-0.1c0.3,0,0.5,0.2,0.5,0.5c0.1,7.3,2,14.7,2.8,22.2c10.3-7.8,19.7-10.5,28.8-11.9
	c-17.1-9.8-37.3-16.4-60.1-18.6C239.8,243.4,237.8,255.4,235.8,267.5z M374.2,287.3c3.7,0.3,7.3,2.4,9.2,6.6c0.4,0.9,0.6,2,0.6,3.1
	c1.7-0.9,3.6-1.6,5.7-2.3c-0.3-3.8-1.6-7.8-3.3-11.8c-1-1.9-2.1-3.8-3.1-5.6c-0.3-0.3-0.6-0.6-0.9-1c-3.2-3.6-5.4-7.3-6.6-11.1
	c-1.1-1.6-2.2-3.2-3.3-4.7v2.1c0.6,1.5,1.2,3,1.6,4.5c1.7,6.1,1.6,12-1.6,16.7v3.6C373.1,287.2,373.6,287.2,374.2,287.3z
	 M576.5,233.3c1.7,1.1,3.4,2.2,5.1,3.4c5.4-5.5,10.2-9.4,14.3-11.9h-11.1C582.2,227.3,579.4,230.1,576.5,233.3z M601,236.1
	c-1.4,2.3-4.2,5.5-8.5,9.7c1.5,1.5,3,3,4.4,4.6c2.3-2.2,4.3-4.3,6.1-6.3c-0.4-2.9-0.8-6-1.3-9.1C601.5,235.3,601.3,235.7,601,236.1z
	 M588.1,289.7c7-1.2,14.1-2.1,21.2-2.6c-0.4-2.5-0.7-5.1-1.1-7.7l-21.6,6.5C587.1,287.2,587.6,288.4,588.1,289.7z M564.9,286
	c0.8,1.1,1.6,2.2,2.3,3.3c1.4,1.2,2.8,2.3,4.2,3.4l2.5-7.1L564.9,286z M495,254.1l2.2-8.1c0,0,0.1-0.1,0.1-0.1
	c-1.7,0.1-3.3,0.4-5,0.6l-1.9,7.4h1C492.6,254,493.8,254,495,254.1z M531.1,264.1c3,0.8,6,1.8,9,3.1l-2.5-13.3l-11.4,9.1
	c0.1,0.1,0.2,0.1,0.3,0.2C528,263.4,529.5,263.7,531.1,264.1z M454.4,237.3c2.2-1.8,4.4-3.5,6.7-5.1c-2.3-2.9-4.6-5.5-6.7-7.4h-10.2
	c0.5,1.1,1.1,2.4,2,3.8C448.1,231.2,450.8,234.3,454.4,237.3z M597.1,250.6c1.7,1.9,3.3,3.8,4.8,5.8c0.9-0.8,1.7-1.6,2.5-2.4
	c-0.4-3-0.9-6.2-1.4-9.5C601.3,246.5,599.3,248.5,597.1,250.6z M605.6,262c-0.3-2.1-0.6-4.2-1-6.4c-0.7,0.6-1.3,1.2-2,1.9
	C603.6,258.9,604.6,260.4,605.6,262z M586.4,285.6l21.7-6.6c-0.5-3.2-1-6.4-1.5-9.6l-23.5,9.6C584.4,281.2,585.5,283.4,586.4,285.6z
	 M579.1,272.1c1.4,2.1,2.7,4.3,3.9,6.6l23.6-9.7c-0.1-0.9-0.3-1.8-0.4-2.8c-0.1-0.3-0.1-0.7-0.2-1c-1.1-2-2.3-3.9-3.6-5.7
	L579.1,272.1z M574.7,285.6l-2.7,7.7c0,0,0,0,0,0c2-0.5,4-1,6.1-1.5C577.1,289.6,575.9,287.6,574.7,285.6z M474.3,252.9l0.2,1.1h1.2
	L474.3,252.9z M473.5,252.2c-1.3,0.6-2.6,1.2-3.8,1.8h4.1L473.5,252.2z M537.6,252.9c0.2-0.2,0.5-0.1,0.6,0.2l2.6,14.2l11.9-5.8
	c-1.2-0.8-2.3-1.7-3.5-2.4l-5.4,2.7c-0.1,0-0.2,0-0.2-0.1l-1.1-6.6c-3.1-1.6-6.2-3.1-9.4-4.3l-5.8,4.9c-0.1,0.1-0.2,0-0.2-0.1
	l-2.5-7.5c-1.5-0.4-3-0.7-4.5-1c0,0,0,0,0,0.1l5.3,15.3c0.1,0,0.2,0.1,0.2,0.1L537.6,252.9z M479.4,249.8c-1.8,0.6-3.5,1.3-5.3,2.1
	l2.7,2.1h7.8L479.4,249.8z M468.6,254.6c-3.1,1.7-6,3.5-9,5.6c-1,0.8-2.1,1.6-3.1,2.4l12.3,4.7v-11.1L468.6,254.6z M492,246.6
	c-4.1,0.7-8.2,1.7-12.2,3.1l5.3,4.3h5L492,246.6z M519.5,248l-6.8,9.5c3.8,1.2,7.7,2.7,11.6,4.6L519.5,248z M519.3,247.1
	C519.4,247,519.4,247,519.3,247.1c-1.5-0.4-3.1-0.6-4.7-0.8l-5.5,7.9c-0.1,0.1-0.2,0.1-0.2,0l-5.7-8.6c-1.8,0-3.6,0.1-5.5,0.3
	c0,0,0.1,0,0.1,0.1l6.4,9.4c2.6,0.5,5.1,1.2,7.7,2L519.3,247.1z M497.7,247l-1.9,7.2c2.5,0.2,5,0.5,7.5,1L497.7,247z M530.8,265
	c-0.3-0.1-0.7-0.2-1-0.2c9.9,5,19.3,10.8,28.3,17.5c2.3,1.7,4.5,3.4,6.6,5.1C556.1,275.8,543.7,268.4,530.8,265z M510.1,230.5v-5.7
	h-8.1l0.5,5.3C505.1,230.1,507.6,230.3,510.1,230.5z M601,232.2c-0.3,0-0.9,0.1-1.5,0.3c-0.9,0.3-1.9,0.9-3.1,1.8
	c-2.3,1.7-5.1,4.3-8,7.8c1.3,1.1,2.5,2.2,3.6,3.3c4.4-4.1,7.1-7.4,8.5-9.6c0.5-0.8,0.8-1.4,0.9-1.9c-0.1-0.6-0.2-1.1-0.2-1.7
	C601.2,232.2,601.1,232.2,601,232.2z M494.5,230.4l-1.1-5.6h-8.5l2,6.6C489.4,231,492,230.7,494.5,230.4z M517.6,231.5l0.6-6.7h-7.8
	v5.7C512.9,230.8,515.3,231.1,517.6,231.5z M479.2,233.2c2.4-0.7,4.9-1.2,7.3-1.7l-2-6.7h-7.1c-0.5,0.2-0.9,0.4-1.4,0.6L479.2,233.2
	z M472.9,225.4c-0.1-0.2-0.3-0.4-0.4-0.6h-8.1c0.8,1.2,1.7,2.5,2.5,3.7C469,227.4,470.9,226.4,472.9,225.4z M525.1,233.2l1.6-8.4
	h-8.1l-0.7,6.8C520.4,232,522.7,232.6,525.1,233.2z M461.6,231.9c1.7-1.1,3.4-2.2,5.1-3.2c-0.9-1.3-1.8-2.7-2.7-3.9h-8.8
	C457.2,226.7,459.4,229.2,461.6,231.9z M474.3,224.8H473c0.1,0.2,0.2,0.3,0.3,0.5C473.6,225.1,473.9,225,474.3,224.8z M501.9,230.1
	h0.3l-0.5-5.3h-7.9l1.1,5.6C497.2,230.2,499.6,230.1,501.9,230.1z M575.4,232.6c2.5-2.7,4.7-5.3,6.7-7.8h-9.6
	c-1.2,1.3-2.4,2.7-3.8,4C570.9,230,573.2,231.3,575.4,232.6z M532.2,235.4l3.2-10.6h-8.3l-1.7,8.5
	C527.7,233.9,530,234.6,532.2,235.4z M568.3,228.7c1.3-1.3,2.5-2.6,3.6-3.9h-9.5c-0.2,0.3-0.4,0.5-0.6,0.8
	C564,226.6,566.2,227.6,568.3,228.7z M581.8,236.9c2.1,1.5,4.2,3.1,6.2,4.8c2.9-3.6,5.8-6.2,8.1-7.9c1.2-0.9,2.3-1.5,3.2-1.9
	c0.5-0.2,0.9-0.3,1.2-0.3c0.2-0.1,0.4,0,0.6,0c-0.3-2.2-0.6-4.5-0.9-6.9h-3.7C592.4,227.3,587.4,231.3,581.8,236.9z M395.6,433.9
	l7.4-5c-7-9.3-15.6-17.4-25.3-24l-5.1,6.8v0.9C381.3,418.5,389.1,425.7,395.6,433.9z M546,241.6l9-16.8h-9.5l-5.7,13.7
	C541.9,239.4,543.9,240.5,546,241.6z M561.8,224.8h-1.9c0.5,0.2,1,0.4,1.4,0.6C561.5,225.2,561.6,225,561.8,224.8z M539.4,238.3
	l5.7-13.5h-9.3l-3.2,10.7C534.9,236.4,537.1,237.3,539.4,238.3z M552.5,245.5l11.7-17.5c-2.5-1.2-5-2.3-7.6-3.2h-1.1l-9.1,17
	C548.4,243,550.4,244.2,552.5,245.5z M411.4,423.3c-7.5-10.4-16.7-19.5-27.3-26.9l-6.2,8.2c9.8,6.6,18.4,14.7,25.4,24.1L411.4,423.3
	z M388.1,442.2l-8.9,7.3c4.2-0.5,7.9-0.1,10.9,1.1c0.4,0.1,0.7,0.3,1.1,0.5l2.1-1.4C391.7,447.1,390,444.6,388.1,442.2z M405,292.1
	c2-0.1,4-0.1,6.2,0c-2.5-0.7-4.8-1.4-7-2.2C404.5,290.7,404.8,291.4,405,292.1z M438.4,260.7c1.5-2.2,3.2-4.3,5-6.2l-2.1-1.7
	c-1.7,2.2-3.2,4.4-4.7,6.7L438.4,260.7z M390.1,294.6c0.6-0.2,1.2-0.4,1.8-0.5c-1.2-2.6-2.4-5.2-3.7-7.7
	C389.2,289.1,389.8,291.9,390.1,294.6z M448,250c0.6-0.5,1.2-1,1.7-1.4l-2.6-2.6c-2,2.1-3.9,4.3-5.6,6.6l2.1,1.7
	C445,252.8,446.5,251.4,448,250z M424.6,284.3c-13.5-2.4-22.6-7-27.9-12.3c-5.4-5.4-6.8-11.3-4.9-16c1.9-4.7,7.1-8.1,14.8-8.4
	c7.6-0.2,17.7,2.5,29.6,10.1c1.4-2.1,2.9-4.2,4.4-6.2c-15.5-10.8-28.8-15.1-39.3-15.2c-1.1,0-2.2,0-3.2,0.1
	c-11,0.8-18.3,6.6-21.2,14c-2.8,7.5-1.2,16.8,6.2,25c7.3,8.1,20.1,15,39.6,17.7C423.3,290.2,423.9,287.3,424.6,284.3z M426.3,341.1
	c-1.8,0.9-3.5,1.7-5.2,2.4c0.2,0.7,0.4,1.4,0.6,2.1C423,344.1,424.6,342.6,426.3,341.1z M424.2,367c-1.1,5.8,1,10.4,4.8,12.7
	c3.8,2.4,9.2,2.6,14.9-0.3c5.5-2.8,11.3-8.7,15.8-18.3c-2.9-1.1-5.7-2.4-8.3-3.8c-2.5,5.4-5.1,8.8-7.5,10.6
	c-1.2,0.9-2.3,1.5-3.3,1.6c-1,0.2-1.9,0-2.5-0.6c-0.6-0.5-1-1.4-1-2.4c-0.1-1,0.2-2.3,0.8-3.7c1.1-2.7,3.5-5.9,7.7-9.3
	c-2.7-2-5.2-4.2-7.4-6.6C429.4,354.3,425.2,361.3,424.2,367z M409.6,327c-1.8-0.2-3.3-0.8-4.3-1.5c-1-0.7-1.6-1.7-1.7-2.8
	c-0.3-2.1,1.4-4.3,4.8-5.7c2.5-1.1,6.1-1.7,10.7-1.5c1.3,0.1,2.7,0.2,4.2,0.4c-0.2-1-0.3-2-0.5-3c-0.4-3.3-0.6-6.6-0.5-9.9
	c-2.3-0.2-4.6-0.4-6.6-0.4c-9.9-0.1-17.2,2.3-22.1,5.8c-6,4.3-8.4,10.3-7.5,15.7c0.9,5.4,5,10.3,12.2,12.2c7.1,2,17.1,1,29.8-5
	c-1.1-2.4-2.1-5-2.9-7.6C418.4,326.7,413.2,327.5,409.6,327z M438.3,363c-0.6,1.4-0.8,2.5-0.7,3.5c0.1,0.9,0.4,1.6,0.9,2.1
	c0.5,0.4,1.2,0.6,2,0.5c0.9-0.2,1.9-0.6,3.1-1.6c2.2-1.8,4.8-5.1,7.4-10.5c-1.7-1-3.4-2.1-5-3.2C441.8,357.2,439.4,360.4,438.3,363z
	 M406.7,248c-7.6,0.3-12.7,3.6-14.5,8.1c-1.8,4.6-0.5,10.4,4.8,15.6c5.2,5.2,14.2,9.9,27.8,12.2c0.7-2.6,1.5-5.3,2.4-8
	c-8.4-1.6-14.1-3.8-17.4-6.1c-1.7-1.2-2.8-2.4-3.4-3.5c-0.6-1.1-0.6-2.2-0.1-3.1c0.5-0.9,1.6-1.5,2.9-1.9c0.7-0.2,1.5-0.2,2.4-0.3
	c0.9,0,1.9,0.1,2.9,0.2c4.1,0.7,9.6,2.8,15.8,7c1.7-3.5,3.6-7,5.7-10.3c-11.5-7.3-21.3-10.1-28.7-10.1H406.7z M456.4,243.7l-3.1-3.7
	c-1.1,0.9-2.1,1.9-3.1,2.9c-1,0.9-1.9,1.9-2.8,2.8l2.7,2.7C452.1,246.7,454.2,245.1,456.4,243.7z M572.6,232.4
	c-2.6-1.5-5.4-3-8.1-4.3l-11.7,17.5c1.9,1.3,3.8,2.7,5.6,4.1L572.6,232.4z M411.7,261.6c-0.9,0-1.6,0.1-2.3,0.3
	c-1.3,0.3-2.2,0.9-2.6,1.6c-0.4,0.7-0.5,1.6,0.1,2.6c0.5,1,1.6,2.2,3.2,3.3c3.3,2.2,8.9,4.5,17.3,6.1c0.8-2.2,1.7-4.4,2.8-6.6
	c-6.2-4.3-11.6-6.3-15.6-7C413.5,261.7,412.5,261.6,411.7,261.6z M564.3,254.8l16.9-16.8c-2.6-1.9-5.4-3.7-8.2-5.4L558.7,250
	C560.6,251.5,562.5,253.1,564.3,254.8z M416.7,316.1c-3.5,0.1-6.2,0.6-8.3,1.5c-3.3,1.4-4.7,3.4-4.4,5.2c0.1,0.9,0.6,1.7,1.5,2.4
	c0.9,0.7,2.3,1.2,4.1,1.4c3.5,0.4,8.6-0.3,15.2-3.1c-0.7-2.2-1.2-4.6-1.6-6.9C420.9,316.2,418.7,316,416.7,316.1z M463.6,239.4
	l-3.4-5c-2.3,1.6-4.5,3.4-6.6,5.3l3.1,3.8C459,242,461.3,240.7,463.6,239.4z M569.6,260l19.3-15.8c-2.3-2.1-4.8-4.1-7.4-5.9
	L564.6,255C566.3,256.6,567.9,258.2,569.6,260z M478.9,233.3l-3.2-7.8c-2.7,1.2-5.3,2.5-7.9,4l3.5,6.4
	C473.8,234.9,476.3,234.1,478.9,233.3z M420.8,346.4c-0.2-0.9-0.5-1.7-0.7-2.5c-3.9,1.5-7.6,2.6-11.1,3.3c0.8,5.2,1.4,10.1,1.7,15.1
	C412.4,357.3,415.7,351.9,420.8,346.4z M470.9,236.1l-3.4-6.3c-2.4,1.4-4.7,2.9-7,4.5l3.4,5C466.2,238.1,468.5,237,470.9,236.1z
	 M417.3,431.8c3.6,6.2,6.7,12.8,9.1,19.8c1.2-0.5,2.3-0.9,3.5-1.3c0.1,0,0.1,0,0.2,0c0,0,0,0,0,0c1.5-0.6,3-1.2,4.5-1.7
	c-2.6-7.4-5.8-14.5-9.7-21.1L417.3,431.8z M435,448.3c2.8-0.9,5.6-1.7,8.5-2.4c-2.8-8.1-6.5-15.8-10.8-23.1l-7.5,4.3
	C429.1,433.9,432.4,441,435,448.3z M462.3,390.4c-1.7-3.1-3.8-5.6-6.9-7c-6.2,10.4-11.5,21.5-15.7,32.9c2.6,4.3,5,8.7,7.1,13.3
	c3.7-13.5,9.2-26.5,15.9-38.3C462.7,391,462.5,390.7,462.3,390.4z M400.9,441.3c3.6,5.6,6.7,11.6,9.1,17.8c2.4-1.3,4.9-2.5,7.4-3.7
	c-2.4-6.5-5.4-12.7-9-18.5L400.9,441.3z M377.9,353.9c0.5-4.3,2.8-7.4,5.7-9c-3.3-1.6-6.2-3.7-8.5-6.2c1.7,7.8,2.6,15.6,2.9,23.6
	c0.9,0.4,1.8,0.8,2.7,1.2C378.7,361,377.4,357.6,377.9,353.9z M408.7,436.8c3.6,5.8,6.6,12,9,18.5c2.7-1.3,5.5-2.5,8.3-3.6
	c-2.4-6.9-5.4-13.5-9.1-19.7L408.7,436.8z M432.2,422.1c-1.7-2.8-3.5-5.5-5.4-8.1l-30.7,20.7c1.5,1.9,2.9,3.9,4.3,6L432.2,422.1z
	 M426.6,418.2c0.9,0,1.6,0.7,1.6,1.6c0,0.9-0.7,1.6-1.6,1.6c-0.9,0-1.6-0.7-1.6-1.6C425,418.9,425.8,418.2,426.6,418.2z M422,421.2
	c0.9,0,1.6,0.7,1.6,1.6c0,0.9-0.7,1.6-1.6,1.6s-1.6-0.7-1.6-1.6C420.4,421.9,421.1,421.2,422,421.2z M416.9,424.2
	c0.9,0,1.6,0.7,1.6,1.6c0,0.9-0.7,1.6-1.6,1.6c-0.9,0-1.6-0.7-1.6-1.6C415.4,425,416.1,424.2,416.9,424.2z M411.9,427.5
	c0.9,0,1.6,0.7,1.6,1.6c0,0.9-0.7,1.6-1.6,1.6c-0.9,0-1.6-0.7-1.6-1.6C410.3,428.2,411,427.5,411.9,427.5z M406.6,430.8
	c0.9,0,1.6,0.7,1.6,1.6c0,0.9-0.7,1.6-1.6,1.6s-1.6-0.7-1.6-1.6C405,431.5,405.7,430.8,406.6,430.8z M399.9,435.6
	c0-0.9,0.7-1.6,1.6-1.6c0.9,0,1.6,0.7,1.6,1.6c0,0.9-0.7,1.6-1.6,1.6C400.6,437.2,399.9,436.5,399.9,435.6z M401.5,464.1
	c2.3-1.5,4.8-2.9,7.3-4.3c-7.2-18.5-19.9-34.4-36.2-45.5v11.1C385.2,435.4,395.3,448.7,401.5,464.1z M456.3,262.9
	c-1.5,1.3-2.9,2.6-4.2,4v0l16.7,6.4v-5.6L456.3,262.9z M411.7,423.1l7.3-4.9c-8.1-11.3-18.1-21.1-29.5-29l-5.2,6.9
	C394.9,403.5,404.2,412.6,411.7,423.1z M419.2,418l7.1-4.8c-8.7-12-19.5-22.4-31.8-30.8l-4.9,6.5C401.1,396.9,411.1,406.7,419.2,418
	z M407.9,347.4c0.3,8.3-2.2,15.9-9.1,19.6c-2.4,1.3-5.3,1.9-7.8,1.8c5.6,3.2,10.9,6.8,16,10.7c0.9-2,1.6-4.4,2.1-6.7
	c-0.2-2.7,0.1-5.6,1-8.6c-0.2-5.6-0.9-11.1-1.8-16.9C408.1,347.4,408,347.4,407.9,347.4z M410.2,382.2c1,0.9,2.1,1.8,3.1,2.7
	c-1.2-1.6-2.1-3.3-2.9-5.2C410.4,380.5,410.3,381.3,410.2,382.2z M407.2,379.8c0.8,0.6,1.6,1.2,2.3,1.9c0.1-1.3,0.3-2.4,0.3-3.7
	c-0.3-1.3-0.6-2.6-0.7-3.9C408.7,376.1,408,378.1,407.2,379.8z M398.6,366.7c6.7-3.7,9.2-11.1,8.9-19.2c-3.2,0.6-6.2,0.8-9,0.7
	c0.6,1,1.2,2.1,1.5,3.4c0.7,2.5-0.1,5.5-1.8,7.5c-1.8,2.1-4.6,3.3-7.8,2.3c-2.5-0.7-4.1-2.9-4.5-5c-0.3-2.2,0.7-4.5,3.3-5.5
	c1.8-0.7,3.7,0.2,4.4,1.4c0.5,0.7,0.5,1.7,0.1,2.4c-0.4,0.8-1.1,1.4-2.2,1.7c-0.2,0.1-0.3-0.3-0.1-0.3c1-0.3,1.6-0.8,2-1.5
	c0.3-0.6,0.3-1.4-0.1-2.1c-0.6-1-2.3-1.9-3.9-1.3c-2.5,1-3.3,3-3,5.1c0.3,2,1.8,4,4.2,4.7c3.2,0.9,5.8-0.2,7.5-2.2
	c1.7-2,2.4-4.8,1.7-7.2c-0.4-1.3-0.9-2.5-1.6-3.5c-2.3-0.1-4.6-0.3-6.6-0.7c-2.7-0.6-5.2-1.4-7.5-2.5c-2.9,1.6-5.2,4.6-5.7,8.9
	c-0.4,3.8,1,7.3,3.3,9.9c3,1.4,5.9,2.9,8.8,4.6C392.9,368.7,396,368.2,398.6,366.7z M451.6,387.1c-2.3,1.8-4.6,3.2-7,4.3
	c0,3.6,0,6.8-0.3,9.9C446.6,396.5,449.1,391.8,451.6,387.1z M428.7,393.9c0,2.3-0.1,4.8-0.3,6.6c3.1,3.7,5.9,7.5,8.6,11.5
	c0.6-5.9,1.2-11.9,1.4-18.4C435.1,394.3,431.8,394.4,428.7,393.9z M444.3,391.6c-1.8,0.8-3.7,1.4-5.5,1.8c-0.2,6.8-0.8,12.9-1.4,19
	c0.5,0.8,1,1.6,1.5,2.4c1.6-4.2,3.3-8.4,5.1-12.5C444.3,398.9,444.3,395.5,444.3,391.6z M453.6,383.8c4.1-7,8.7-13.8,13.5-20.1
	l0.1,0.1c0-0.1,0-0.2,0-0.3c-2.5-0.6-5-1.4-7.3-2.2c-4.5,9.7-10.3,15.7-15.9,18.6c-5.8,2.9-11.3,2.7-15.3,0.3
	c-3.9-2.4-6.1-7.1-5-13.1c1.1-5.9,5.3-12.9,14-20.4c-2.3-2.5-4.4-5.3-6.2-8.2c-11.7,8.9-17.9,17.9-20.2,25.9
	c-2.3,8.1-0.7,15.1,3.3,20.2C422.5,394.6,439.6,397.2,453.6,383.8z M427.5,399.2c0.1-1.7,0.2-3.7,0.2-5.5c-3.1-0.6-5.9-1.8-8.5-3.4
	C422.1,393.2,424.8,396.2,427.5,399.2z M385.1,279c2.7,4.8,5.2,9.9,7.5,14.9c3.4-0.9,7.2-1.4,11.3-1.7c-0.4-0.9-0.7-1.9-1.1-2.8
	C395.4,286.6,389.5,283.1,385.1,279z M452.3,450.9c-5.8,0.7-11.8,2-17.8,3.8c-1.6,0.5-3.2,1-4.7,1.6l13.2,13.9L452.3,450.9z
	 M462.7,450.1c-3,0.1-6.1,0.3-9.2,0.7c0,0.1,0,0.1-0.1,0.2l-9.8,20.4c-0.2,0.3-0.6,0.4-0.9,0.1l-14.1-14.8c-3.2,1.3-6.3,2.8-9.3,4.6
	l27.1,25.5L462.7,450.1z M408.9,517.9c0.8-2.1,1.8-4.1,3-6c0,0-0.1,0-0.1,0c-3.4-2.6-5.8-4.8-7.3-6.6c-0.7-0.9-1.2-1.6-1.5-2.2
	c-0.3-0.6-0.3-1.1-0.1-1.5c0.3-0.4,0.7-0.5,1.4-0.5c0.6,0,1.5,0.2,2.6,0.6c2.1,0.8,5,2.3,8.6,4.6c0,0,0,0,0.1,0
	c1.7-2.1,3.5-4.1,5.6-5.9l-30.8-6L408.9,517.9z M426.3,475c-0.3-0.3-0.6-0.5-0.8-0.6c-0.2-0.1-0.3-0.1-0.4-0.1c-0.1,0-0.1,0-0.1,0
	c-0.1,0-0.2,0.1-0.3,0.3c-0.1,0.2-0.1,0.6-0.1,1c0,0.9,0.2,2.1,0.6,3.8c0.9,3.3,2.6,8,5.4,14.2c1.6-0.9,3.2-1.8,4.9-2.6
	c-2.6-5.9-5-10.2-6.8-13C427.7,476.6,426.9,475.6,426.3,475z M430.2,493.8c-2.8-6.2-4.5-11-5.4-14.3c-0.4-1.7-0.6-2.9-0.7-3.8
	c0-0.5,0.1-0.8,0.1-1.1c0.1-0.3,0.3-0.5,0.5-0.6c0.2-0.1,0.5,0,0.8,0.1c0.3,0.1,0.6,0.4,0.9,0.7c0.7,0.7,1.5,1.7,2.4,3.1
	c1.8,2.8,4.2,7.1,6.8,13c2.3-1,4.6-1.9,7-2.6c1.1-0.3,2.1-0.6,3.2-0.9l-26.8-25.2l3,37.5C424.6,497.5,427.4,495.5,430.2,493.8z
	 M418.4,462c-2.2,1.4-4.3,2.8-6.3,4.4c0,0.1,0,0.1,0,0.2l1.5,23.9c0,0.3-0.3,0.6-0.6,0.5l-19.4-3.5c-1.3,2.1-2.4,4.1-3.5,6.3l31.3,6
	L418.4,462z M389.7,494.8c-0.9,1.9-1.7,3.8-2.5,5.8c0,0,0,0,0,0l11.9,15c0.2,0.3,0.1,0.7-0.2,0.8l-16.4,7.3c0,0-0.1,0.1-0.1,0.1
	c0,2.2,0.1,4.4,0.3,6.6l25.6-12L389.7,494.8z M386.8,501.7c-0.6,1.6-1.1,3.2-1.6,4.8c-1.6,5.3-2.5,10.8-2.6,16.1l15.4-6.9
	L386.8,501.7z M411.1,467.2c-6.6,5.4-12.3,12-16.9,19.3l18.3,3.3L411.1,467.2z M406.8,502.2c-1-0.4-1.9-0.6-2.5-0.6
	c-0.6,0-0.9,0.1-1.1,0.3c-0.1,0.2-0.1,0.6,0.1,1.2c0.2,0.5,0.7,1.3,1.4,2.1c1.4,1.7,3.8,3.9,7.3,6.5c0,0,0,0,0,0.1
	c0.5-0.9,1.1-1.7,1.6-2.6c0.5-0.8,1.1-1.5,1.7-2.3c0,0,0,0,0,0C411.7,504.4,408.9,502.9,406.8,502.2z M399.6,465.3
	c0.4-0.3,0.8-0.5,1.2-0.8c-0.5-1.4-1.1-2.7-1.7-4C399.5,462,399.7,463.7,399.6,465.3z M384.3,538.8c1.2,4.3,2.8,8.5,5.1,12.2
	c1,1.7,2,3.2,3.2,4.8l5.8-11.1L384.3,538.8z M445,538c-1.7-0.9-3.5-1.3-5.3-1.3c-1.5,0-3,0.3-4.4,1c-2.7,1.2-4.8,3.6-5.6,7.1
	c1.7-2.1,3.6-3,5.5-3.1c2.2-0.1,4.3,1,5.5,2.8c1.3,2.1,1.4,5,0.7,7.6c1.4,0.2,2.8,0.3,4.3,0.6C443.9,547.4,443.9,542.6,445,538z
	 M401,528.8c-1.4,0-2.7,0.1-3.7,0.3c-1,0.2-1.8,0.4-2.3,0.7c-0.5,0.3-0.8,0.6-0.8,0.9c0,0.3,0.1,0.6,0.5,0.9
	c0.4,0.3,1.1,0.6,2.1,0.9c1.9,0.5,4.9,0.7,9,0.5c0.1,0,0.1,0,0.2,0.1c0-1.3,0.1-2.5,0.2-3.7c0,0-0.1,0-0.1,0
	C404.2,529,402.5,528.9,401,528.8z M432.9,530.7c-3.9,3.3-5.9,8.5-3.8,14.3c0.7-3.9,3.1-6.5,6-7.9c1.6-0.7,3.4-1.1,5.2-1
	c1.6,0.1,3.2,0.5,4.8,1.3c0.8-3.1,2.1-6.1,3.7-9c-2-0.9-4.1-1.3-6.2-1.3C439,527.2,435.5,528.5,432.9,530.7z M391.5,451.2
	c2.1,1,3.8,2.5,5.1,4.2c-1-1.9-2.1-3.7-3.2-5.5L391.5,451.2z M431.7,562.8c-1.2,0.1-2.4,0.1-3.5,0l3.7,6.7
	C431.8,567.3,431.8,565.1,431.7,562.8z M406.9,541.1c-0.6-2.7-0.9-5.3-0.9-8c0,0.1-0.1,0.1-0.1,0.1c-4.1,0.3-7.2,0.1-9.2-0.5
	c-1-0.2-1.7-0.6-2.2-0.9c-0.5-0.3-0.7-0.8-0.6-1.2c0.1-0.4,0.4-0.8,1-1.1c0.6-0.3,1.4-0.6,2.4-0.7c1-0.2,2.3-0.3,3.8-0.3
	c1.5,0,3.2,0.1,5.1,0.4c0,0,0.1,0,0.1,0c0.3-3.3,1.1-6.6,2.2-9.7L383.3,531L406.9,541.1z M430,552.2v-0.1c-0.2-0.8-0.5-1.6-0.8-2.4
	c-0.1-0.3,0.1-0.7,0.5-0.7c0.1,0,0.2,0,0.3,0.1c0.7,0.3,1.4,0.7,2.1,0.9h0.1c0.5,0,1,0.2,1.4,0.5c2.1,0.6,4.3,1,6.6,1.4
	c0.7-2.4,0.6-5-0.5-6.9c-0.9-1.5-2.6-2.4-4.5-2.3c-1.9,0.1-3.9,1.2-5.6,4l-0.2-0.1c-0.1,0.2-0.4,0.2-0.5,0l-0.2,0.1
	c-3-6.6-0.9-12.8,3.6-16.5c2.8-2.4,6.4-3.7,10.3-3.7c2.1,0,4.4,0.4,6.6,1.4c3.5-6.3,8.3-12.2,12.3-18.3c-2.5-0.3-5.1-0.5-7.6-0.5
	c-8.2,0.1-16.1,2-22.6,5.5c-8.7,4.8-15.1,12.4-16.8,22.6c-0.7,4.1,0.1,9.8,2.9,14.2c2.7,4.3,7.1,7.5,14,6.9
	c-0.2-1.6-0.5-3.2-0.9-4.8C430.2,553.1,430,552.6,430,552.2z M435.3,545.8c1,0,1.8,0.8,1.8,1.8s-0.8,1.8-1.8,1.8s-1.8-0.8-1.8-1.8
	S434.3,545.8,435.3,545.8z M445.9,514.5c2.5,0,4.4,2,4.4,4.4c0,2.4-2,4.4-4.4,4.4c-2.4,0-4.4-2-4.4-4.4
	C441.5,516.5,443.5,514.5,445.9,514.5z M432.5,518c2.3,0,4.1,1.8,4.1,4.1c0,2.2-1.8,4.1-4.1,4.1c-2.2,0-4.1-1.8-4.1-4.1
	C428.4,519.8,430.2,518,432.5,518z M417.9,542.1c0-1.7,1.4-3.1,3.2-3.1c1.7,0,3.1,1.4,3.1,3.1c0,1.7-1.4,3.1-3.1,3.1
	C419.3,545.3,417.9,543.9,417.9,542.1z M424.3,553.1c-1.4,0-2.5-1.1-2.5-2.5c0-1.4,1.1-2.5,2.5-2.5c1.4,0,2.5,1.1,2.5,2.5
	C426.8,551.9,425.7,553.1,424.3,553.1z M423.4,534.8c-2,0-3.6-1.6-3.6-3.6c0-2,1.6-3.6,3.6-3.6c2,0,3.6,1.6,3.6,3.6
	C427,533.2,425.4,534.8,423.4,534.8z M464.8,469.7c-0.3-1.7-0.6-2.9-1-3.7c-0.2-0.4-0.4-0.7-0.6-0.9c-0.2-0.2-0.3-0.2-0.5-0.2
	c-0.2,0-0.3,0.1-0.5,0.3c-0.2,0.2-0.4,0.5-0.6,1c-0.4,0.9-0.8,2.1-1.1,3.9c-0.7,3.4-1.2,8.5-1.2,15.3c2.1-0.1,4.1-0.2,6.2-0.2
	C465.7,478.2,465.4,473.1,464.8,469.7z M562.1,269.6c-1.4-1.4-2.9-2.8-4.4-4.1l0.2,5.1L562.1,269.6z M543.8,261.5l5.1-2.6
	c-2-1.3-4.1-2.5-6.2-3.7L543.8,261.5z M574.5,265.8l21.6-14.4c-2.2-2.5-4.5-4.8-7-7l-19.3,15.9C571.4,262,573,263.9,574.5,265.8z
	 M572,281.5c-0.9-1.3-1.8-2.6-2.8-3.8l-0.5,4L572,281.5z M503.6,245.6l5.5,8.2l5.3-7.7c-3.5-0.4-7-0.6-10.5-0.6H503.6z M527.2,255.3
	l5.5-4.6c-2.6-1-5.2-1.8-7.9-2.5L527.2,255.3z M568.5,282c-0.1,0-0.2-0.1-0.1-0.2l0.6-4.5c-1-1.3-2-2.5-3.1-3.7l-1.4,11.7l9.8-0.4
	c-0.7-1.1-1.4-2.1-2.1-3.2L568.5,282z M578.9,271.8l23.4-12.6c-1.8-2.6-3.8-5.2-6-7.6L574.7,266
	C576.2,267.9,577.6,269.8,578.9,271.8z M554.8,275.9c3.3,2.6,6.3,5.5,9,8.9l1.3-10.9L554.8,275.9z M541.5,267.8
	c4.2,1.9,8.2,4.2,12,7l-0.7-12.5L541.5,267.8z M398.7,562.2c1.2,1,2.4,1.9,3.7,2.7c0.1-0.1,0.2-0.2,0.3-0.3l9.8-2.6
	c0.1,0,0.1,0,0.1,0c0.2,0,0.5,0.2,0.5,0.4l2.3,8.1c0,0.1,0,0.2,0,0.3c1.4,0.4,2.8,0.7,4.3,1l-4.7-14.5L398.7,562.2z M403.4,565.6
	c3.3,2,6.9,3.7,10.9,4.9l-2-7.2L403.4,565.6z M416.7,558.4c-0.3-0.2-0.5-0.4-0.8-0.6l4.5,13.7l6.6-8.8
	C423.1,562.2,419.7,560.8,416.7,558.4z M382.9,531.6c0.2,2,0.6,4,1,6h0c0.1,0,0.1,0,0.2,0.1l15.1,6.3c0.3,0.1,0.4,0.5,0.3,0.7
	l-6.3,12v0c1.4,1.7,2.9,3.2,4.5,4.7l9-19.6L382.9,531.6z M411.4,552.4C411.4,552.4,411.4,552.4,411.4,552.4c-2,1.2-3.3,1.9-4.3,2.3
	c-0.5,0.2-0.9,0.2-1.2,0.2c-0.1,0-0.3-0.1-0.4-0.1c-0.1-0.1-0.2-0.2-0.2-0.3c-0.1-0.2,0.1-0.5,0.2-0.8c0.2-0.3,0.4-0.7,0.8-1.1
	c0.7-0.8,1.7-1.9,3.1-3c0,0,0.1-0.1,0.1-0.1c0.2,0,0.2,0.2,0.1,0.3c-1.3,1.1-2.4,2.1-3.1,3c-0.3,0.4-0.6,0.7-0.7,1
	c-0.2,0.3-0.2,0.5-0.2,0.6c0,0.1,0,0.1,0.1,0.1c0.1,0,0.1,0.1,0.2,0.1c0.2,0,0.5-0.1,1-0.2c0.9-0.3,2.3-1,4.2-2.2c0,0,0,0,0.1,0
	c-1.5-2.5-2.7-5.3-3.6-8.5c-0.1-0.3-0.2-0.7-0.3-1l-8.7,18.9l16.1-4.9C413.5,555.3,412.4,553.9,411.4,552.4z M438.1,299.3
	c-0.1,2.5,0.1,5,0.5,7.4c0.6,3.9,1.8,7.7,3.6,11.2l13.4-12.4L438.1,299.3z M438.7,293c-0.3,2-0.5,4-0.6,5.9l17.7,6.4
	c0.1,0,0.1,0.2,0,0.2l-13.6,12.6c0.9,1.8,2.1,3.6,3.3,5.3c0,0,0-0.1,0.1-0.1l21.4-20L438.7,293C438.8,293.1,438.8,293,438.7,293z
	 M432,571.2l-4.4-8l-6.6,8.8c2.6,0.4,5.3,0.6,8.2,0.7c1,0,1.9,0,2.9,0c0-0.1,0-0.1,0-0.1C432.1,572,432.1,571.6,432,571.2z
	 M440.2,287.1L460,284l-11.7-12.7C444.6,276.2,441.9,281.6,440.2,287.1z M467.7,324.8l-17.6,3.5c4,3.6,9,6.6,15.1,8.7L467.7,324.8z
	 M451.7,267.5c0,0-0.1-0.1-0.1-0.1c-1.1,1.2-2.2,2.4-3.1,3.7l11.9,12.9c0.1,0.1,0,0.2-0.1,0.2l-20.2,3.2c-0.5,1.7-0.9,3.3-1.2,5
	l29.9-4.8v-1.3L451.7,267.5z M455.9,534.1c-2.9,5.7-4.5,11.9-1.2,20.4c2.2,0.7,4.4,1.6,6.6,2.9c-1.7-5.2-0.5-9.3,1.3-13
	c1.9-4,4.3-7.4,4.6-11.3c0-0.1,0.1-0.3,0.3-0.2c0.1,0,0.2,0.1,0.3,0.2c0.3,1.2,0.7,2.2,1.1,3.2c0-0.7,0-1.5,0-2.2v-12.3
	c-1.4-1.4-2.6-3-3.7-4.8C463,523.2,458.7,528.4,455.9,534.1z M463.1,544.7c-1.8,3.8-3,7.9-1,13.2c1.3,0.8,2.6,1.8,3.9,3
	c0-0.1-0.1-0.3-0.1-0.4c-0.1-0.3,0.2-0.6,0.5-0.6c0.1,0,0.2,0,0.2,0c2.2,0.8,4.3,1.5,6.3,2.2c-2.5-5.9-3.8-14.1-4-24.4
	c-0.5-1-0.9-2.1-1.3-3.3C467,538,464.8,541.2,463.1,544.7z M450.1,528.2c-4.2,7.5-6.5,15.3-3.3,24.5c0.3,0,0.6,0.1,0.9,0.1
	c2.2,0.3,4.4,0.8,6.6,1.5c-3.2-8.4-1.6-14.8,1.3-20.5c3-5.9,7.3-11.1,9.3-17.3c0-0.1,0.1-0.1,0.2-0.1c0.1,0,0.1,0,0.1,0.1
	c1.1,1.8,2.3,3.3,3.6,4.7v-8.9c-1.5-1.8-2.9-3.7-4.3-5.9C460.2,513.9,454.2,520.9,450.1,528.2z M467.2,562c0.1,0.1,0.1,0.3,0.1,0.5
	c0.8,6.2,0.2,12.7-0.1,18.9c-0.2,2.9-0.2,5.7-0.2,8.3c2.9,0.5,5.6,0.9,8.1,1.4c0-1.1,0.1-2.2,0.2-3.3c0.4-5.1,1-10.5-0.3-16.3
	c0-0.1,0.1-0.2,0.2-0.2c0,0,0.1,0,0.1,0c1.7,0.7,3.2,1.4,4.6,2c-2.3-2.5-4.5-5.8-6.4-9.9c-2-0.7-4.1-1.4-6.4-2.2
	C467.1,561.5,467.1,561.7,467.2,562z M408,543.3C408,543.3,408,543.3,408,543.3c0,0.1,0.1,0.2,0.1,0.2c1.6,5.4,4,9.8,7.2,13
	c0.1,0,0.3,0.1,0.3,0.2l0,0.1c0.5,0.4,0.9,0.9,1.4,1.2c3,2.4,6.4,3.8,10.4,4.2c0.1-0.1,0.3-0.1,0.5,0.1c1.2,0.1,2.5,0.1,3.7,0
	c-0.1-1-0.1-2-0.2-2.9c-7.2,0.6-12.2-2.8-15-7.4c-2.9-4.7-3.8-10.6-3-15c1.8-10.5,8.4-18.5,17.4-23.3c6.7-3.6,14.8-5.6,23.2-5.6
	c2.7,0,5.5,0.2,8.2,0.6c0.7-1,1.3-2.1,1.9-3.2c0.1-0.2,0.3-0.3,0.5-0.3c0.2,0,0.3,0.1,0.4,0.3c0.9,1.6,1.8,3,2.8,4.3
	c0.3,0.1,0.6,0.2,1,0.3v-14c-2.5-0.3-4.9-0.4-7.3-0.5C426.4,495,404.6,521,408,543.3z M453.2,268.1l15.6,17.2V274L453.2,268.1z
	 M501.3,587.9c-0.4-2.2-2.3-3.9-5.5-5.2c0.5,0.6,1,1.1,1.5,1.8c1.6,2.1,2.7,4.5,3.5,7.2C501.5,590.7,501.6,589.4,501.3,587.9z
	 M447.2,487.1c4-0.9,7.9-1.6,11.8-1.9c0.1-6.8,0.6-11.9,1.2-15.4c0.3-1.7,0.7-3,1.2-3.9c0.2-0.5,0.4-0.8,0.6-1
	c0.2-0.2,0.5-0.4,0.7-0.4c0.3,0,0.5,0.1,0.7,0.3c0.2,0.2,0.4,0.6,0.6,1c0.4,0.9,0.7,2.1,1,3.9c0.6,3.4,0.9,8.5,0.7,15.4
	c1,0,1.9,0.1,2.9,0.1v-20l-5.6-14.5L447.2,487.1z M382.9,565.4c-2.1,0-3.9,1.7-3.9,3.9c0,2.1,1.7,3.9,3.9,3.9c2.1,0,3.9-1.7,3.9-3.9
	C386.8,567.1,385.1,565.4,382.9,565.4z M463.8,450.1l5,13v-12.9c-1,0-2-0.1-3.1-0.1H463.8z M460.9,444.5
	c-44.5,2.4-74.2,33.4-82.9,63.8c-4.9,17.1-2,35.7,7.6,49.4C395,571.2,411.1,580,433,578c-0.4-1.5-0.6-3.1-0.7-4.6c-1,0-2,0.1-3,0
	c-19.5-0.2-33.1-9.1-40.6-21.9c-7.5-12.8-9-29.5-4.3-45.2c7.3-24.2,25.5-45.1,49.9-52.4c9.9-2.9,19.5-4.4,28.8-4.6
	c2,0,3.9,0,5.8,0.1v-4.9c-1,0-2,0-3,0C464.2,444.4,462.5,444.4,460.9,444.5z M373.7,546c0-1.2-0.6-2.2-1.5-2.9
	c-0.1,2.2-0.4,4.2-0.6,6.1C372.9,548.7,373.7,547.5,373.7,546z M419.3,582.9c-1.5,0-2.8,1-3.3,2.4c1.6,0,3.3-0.1,4.9-0.1
	c0.5,0,1,0,1.6,0C422.1,583.9,420.9,582.9,419.3,582.9z M495,582.3c-3.2-1.3-6.7-3.1-10.6-5.4c-1.4-0.8-2.6-1.8-3.9-3
	c-1.6-0.6-3.3-1.4-5.1-2.2c1.2,5.7,0.7,11,0.3,16.1c-0.1,1.1-0.2,2.2-0.2,3.3c2,0.4,3.8,0.7,5.6,1.1c0.6,0.1,1.1,0.2,1.7,0.3
	c-0.1-1.9-0.1-3.9,0-6.1c0-0.1,0.1-0.2,0.2-0.2c0.1,0,0.2,0,0.2,0.1c2.4,2.7,5,4.3,7.4,5.8c1.2,0.8,2.4,1.5,3.5,2.3
	c0.2,0,0.4,0,0.6,0c1.8,0,3.4-0.5,5-1.7c0.3-0.2,0.6-0.5,0.9-0.8c-0.7-2.9-1.9-5.3-3.5-7.4C496.4,583.8,495.7,583,495,582.3z
	 M446.9,487.7c-0.1,0.2-0.3,0.2-0.5,0.1c-1.2,0.3-2.3,0.6-3.5,1c-7.7,2.3-14.9,6.3-20.8,11.6c0,0.2-0.2,0.3-0.3,0.3
	c-2.9,2.6-5.5,5.5-7.7,8.7c-2,2.8-3.6,5.9-4.9,9.1c0.1,0.2,0,0.3-0.2,0.4c-2.6,6.8-3.4,14.2-1.7,21.9c-1.5-21.9,20.1-46.1,54.1-45.8
	c2.4,0,4.8,0.2,7.3,0.5v-9.8c-1.4-0.1-2.8-0.1-4.3-0.1C458.8,485.6,453,486.3,446.9,487.7z M483.3,587.2c-0.1,2-0.1,3.8,0,5.5
	c4.6,0.9,7.8,1.5,9.7,1.7c-0.9-0.6-1.8-1.2-2.7-1.8C488.1,591.2,485.6,589.6,483.3,587.2z M372.6,473.4v16.2c1.4-1.7,2.8-3.3,4.3-5
	C375.7,480.7,374.2,476.9,372.6,473.4z M384.6,558.3c-9.8-14-12.7-32.8-7.7-50.3c5.3-18.4,18.1-37,37.2-49.5
	c-19.5,10.6-33,23.6-41.5,37.3v7.3c0.1,0,0.3,0,0.5,0c1.3,0,2.3,1,2.3,2.3c0,1.3-1,2.3-2.3,2.3c-0.2,0-0.3,0-0.5,0v5.2
	c0.1,0.3,0.2,0.6,0.2,1s-0.1,0.7-0.2,1v19.4c0,3-0.1,5.9-0.3,8.6c1.1,0.7,1.8,1.9,1.8,3.3c0,1.7-1,3.1-2.5,3.6
	c-0.7,5.3-1.9,9.7-3.5,13.3c5.3,10.2,13.4,18.7,23.8,24.2c3.6-0.5,7.3-0.9,10.9-1.1c-0.3-0.6-0.6-1.3-0.6-2.1c0-2.4,1.9-4.2,4.3-4.2
	c2.3,0,4.2,1.9,4.2,4.2c0,0.6-0.1,1.1-0.3,1.6c1.8-0.1,3.6-0.2,5.4-0.2c0.4-1.6,1.9-2.8,3.6-2.8c1.7,0,3.2,1.2,3.6,2.7
	c1.6,0,3.3,0,4.9,0.1c0.4-1.5,1.8-2.7,3.5-2.7c1.8,0,3.3,1.3,3.6,3c0.4,0,0.7,0,1.1,0.1c-1.3-2.2-2.2-4.5-2.8-6.7
	C411,581.2,394.4,572.2,384.6,558.3z M375.4,561.9c-2.3,0-4.2-1.9-4.2-4.2c0-2.3,1.9-4.2,4.2-4.2c2.3,0,4.2,1.9,4.2,4.2
	C379.6,560,377.7,561.9,375.4,561.9z M382.9,573.5c-2.3,0-4.2-1.9-4.2-4.2c0-2.3,1.9-4.2,4.2-4.2c2.3,0,4.2,1.9,4.2,4.2
	C387.2,571.6,385.3,573.5,382.9,573.5z M394,582.3c-2.3,0-4.2-1.9-4.2-4.2c0-2.3,1.9-4.2,4.2-4.2c2.4,0,4.3,1.9,4.3,4.2
	C398.3,580.4,396.4,582.3,394,582.3z M602.5,307.7c0.6-2.7,1.6-4.6,2.6-5.8c0.7-0.9,1.6-1.5,2.5-1.8c-6.3,0.7-12.7,1.7-18.9,3.1
	c0.9,0.1,1.9,0.4,2.8,1c1.6,1,3.1,2.8,4.4,5.3c1.8,3.3,3.4,8.1,4.8,14.3c0.3,0.4,0.6,0.7,0.9,1C601.2,317.1,601.6,311.5,602.5,307.7
	z M384.7,470.6c1.6-2.4,1.7-4.6,0.7-6.2c-1-1.6-3.1-2.7-6.1-2.9c-0.2,0-0.4,0-0.6,0c-1.8,0-3.8,0.3-6.1,0.9v8.5
	c1.2,2.2,2.2,4.6,3.2,7C380.2,475.5,383.2,472.9,384.7,470.6z M379.3,461c3.1,0.2,5.4,1.3,6.5,3.1c1.1,1.8,0.9,4.2-0.7,6.7
	c-1.6,2.5-4.6,5.1-9.2,7.6c0.6,1.7,1.2,3.5,1.8,5.2c5.8-6.3,12.8-12.2,20.9-17.6c0.5-6.4-2.6-12-8.8-14.5c-2-0.8-4.2-1.2-6.8-1.2
	c-3.1,0-6.5,0.5-10.4,1.8v9.7C375.1,461.2,377.3,460.9,379.3,461z M440.1,558.5c-0.1-0.1,0-0.2,0.2-0.2c0,0,0,0,0.1,0
	c4.1,1.2,9.6,1.8,14.6,3.2c4.6,1.3,8.9,3.3,11.7,7c0-2-0.2-3.9-0.4-5.9c-6-5.9-12.4-7.6-18.8-8.6c-5.9-0.9-11.7-1.2-16.8-3.4
	c2.6,7.7,2,14.9,2.5,21.8c0.4,4.7,1.3,9.1,4.2,13.6c3.1,0.2,6.3,0.5,9.5,0.9c-3.4-4.6-4.6-8.9-5-13
	C441.3,568.3,442,563.3,440.1,558.5z M394,574.2c-2.1,0-3.9,1.7-3.9,3.9c0,2.1,1.7,3.9,3.9,3.9c2.1,0,3.9-1.7,3.9-3.9
	C397.9,576,396.2,574.2,394,574.2z M406.4,580.1c-2.1,0-3.9,1.7-3.9,3.9c0,0.7,0.2,1.4,0.6,2c2.3-0.2,4.6-0.3,6.8-0.4
	c0.2-0.5,0.3-1,0.3-1.6C410.3,581.8,408.5,580.1,406.4,580.1z M387.9,441.9c-1.8-2.4-3.7-4.6-5.8-6.7l-9.6,9.6v6.3
	c2.1-0.7,4.1-1.2,6-1.5L387.9,441.9z M584,304.2c0.1,0.1,0.3,0.2,0.4,0.4c0.3-0.3,0.6-0.5,0.9-0.7C584.9,304,584.5,304.1,584,304.2z
	 M375.2,428.5l-2.1,2.6c0.4,2,0.5,4.1,0.3,6.5c-0.1,1.2-0.4,2.4-0.8,3.7v3.1l9.4-9.3C379.8,432.7,377.5,430.5,375.2,428.5z
	 M591.3,304.4c-0.9-0.6-1.9-0.9-2.8-1c-0.6,0-1.2,0.1-1.7,0.2c-0.8,0.2-1.5,0.6-2.1,1.1c0.1,0.1,0.2,0.2,0.3,0.3
	c7.5,7.5,12.6,13.5,15.3,17.9c0,0,0,0.1,0.1,0.1c-1.4-5.9-2.9-10.4-4.7-13.5C594.3,307.1,592.8,305.4,591.3,304.4z M405.9,462.7
	c-11.3,6.6-20.6,14.2-28,22.3c-0.1,0.1-0.1,0.1-0.2,0.2c-1.8,2-3.6,4.1-5.2,6.1v3.6C379.9,483.3,390.8,472.2,405.9,462.7z
	 M450.3,568.7c0.1,0,0.1,0,0.2,0.1c3.7,3.7,6.6,4.8,9.3,6c2.3,1,4.4,2,6.4,4.7c0.2-3.5,0.4-7,0.4-10.4c-2.6-3.9-7-6-11.7-7.3
	c-4.9-1.4-10.1-2-14.3-3.1c1.7,4.8,1.1,9.8,1.6,15.1c0.4,4.1,1.6,8.4,5.2,13.1c1.8,0.2,3.7,0.4,5.5,0.7c1.1,0.2,2.1,0.3,3.2,0.5
	c-4.8-5.7-5.8-12.3-6-19.1C450,568.9,450.2,568.7,450.3,568.7z M466.1,581.4c0-0.3,0-0.7,0.1-1c-2.1-3-4.1-4-6.6-5.1
	c-2.5-1.1-5.4-2.3-8.9-5.7c0.3,6.7,1.4,13.1,6.3,18.6c3.2,0.5,6.2,0.9,9,1.4C465.8,586.9,465.9,584.2,466.1,581.4z M374.9,428.2
	c-0.8-0.7-1.5-1.3-2.3-1.9v3c0.1,0.4,0.3,0.9,0.4,1.3L374.9,428.2z M382.5,584.1l-0.7,0.8c1.3,1,2.5,2,3.6,3.1c0.2,0,0.3,0,0.5-0.1
	l0.2-0.1C384.9,586.6,383.8,585.3,382.5,584.1z M356.1,577.6c-0.1,0-0.2,0-0.3,0c-3.7,2.1-7,3.8-9.8,5c-2.1,0.9-3.5,2-4.4,3.2
	c0.5,0,0.9-0.1,1.4-0.1c2-0.1,4-0.2,5.8-0.1c7.9,0.2,14.3,2.2,19.1,5.4c4.9-0.9,10.3-1.8,16.1-2.6c-0.9-0.9-1.9-1.8-3-2.6
	C373.7,580.1,365,577.6,356.1,577.6z M364.2,572.8l-1.3,4.2c1.6,0.2,3.3,0.6,4.8,1l1.3-3.1C367.5,574.1,365.9,573.5,364.2,572.8z
	 M613.5,319.1c0-0.3-0.1-0.6-0.1-0.9c-0.3,1-1,1.8-2,2l0.5,5.6C613.6,324.4,614.2,322.2,613.5,319.1z M427.4,307
	c-2.5-15.5,1.5-32.6,10.8-46l-1.7-1.2c-10.4,16.8-14.6,35.8-12.5,52.9c1.1,8.8,3.8,17,8.2,24.3c0.1,0.1,0.1,0.1,0.1,0.2
	c7.3,11.9,18.9,20.9,35.1,24.9c0.3-2,0.8-3.9,1.4-5.8v-9C443.6,343,430.4,326.2,427.4,307z M463.5,349.6c2.1,0,3.9,1.7,3.9,3.9
	c0,2.2-1.8,3.9-3.9,3.9c-2.1,0-3.9-1.7-3.9-3.9C459.6,351.3,461.3,349.6,463.5,349.6z M453.7,346.7c1.6,0,2.9,1.3,2.9,2.9
	c0,1.6-1.3,2.9-2.9,2.9c-1.6,0-2.9-1.3-2.9-2.9C450.8,348,452.2,346.7,453.7,346.7z M446.6,343.4c1.1,0,2.1,0.9,2.1,2.1
	c0,1.2-0.9,2.1-2.1,2.1c-1.2,0-2.1-0.9-2.1-2.1C444.6,344.4,445.5,343.4,446.6,343.4z M442.9,341.1c0,0.9-0.7,1.6-1.6,1.6
	c-0.9,0-1.6-0.7-1.6-1.6c0-0.9,0.7-1.6,1.6-1.6C442.2,339.5,442.9,340.3,442.9,341.1z M369.4,575.1l-1.3,3.1c1.5,0.4,3,0.9,4.5,1.5
	l1.2-2.2C372.4,576.6,370.9,575.8,369.4,575.1z M378.5,580.7l-0.9,1.4c1.4,0.8,2.7,1.7,4,2.6l0.7-0.9c-1-0.9-2-1.8-3-2.6
	C379,581.1,378.8,580.9,378.5,580.7z M374.1,577.6l-1.2,2.2c1.5,0.6,2.9,1.3,4.4,2.1l1-1.4C376.9,579.5,375.5,578.5,374.1,577.6z
	 M357.6,576.5C357.6,576.5,357.6,576.6,357.6,576.5C357.6,576.6,357.6,576.6,357.6,576.5L357.6,576.5z M468.2,302.2
	c0.1,1.5,0.3,3,0.6,4.5v-12C468.3,297.2,468.1,299.7,468.2,302.2z M458.4,430.2c-2.4,0.1-4.3,0.6-5.6,1.3c-1.4,0.7-2.2,1.7-2.4,2.9
	c-0.3,1.5,0.2,3.2,2,4.9c1.6,1.5,4.1,3,7.7,4.3c0.3,0,0.6-0.1,0.8-0.1c1.7-0.1,3.3-0.2,5-0.2c1,0,2,0,3,0v-4.2l-1.9-0.5
	c-0.4,0.9-1.3,1.6-2.4,1.6c-1.4,0-2.5-1.1-2.5-2.5c0-1.4,1.1-2.5,2.5-2.5c1.4,0,2.5,1.2,2.5,2.5c0,0.2,0,0.5-0.1,0.6l1.8,0.5v-7.3
	c-3.7-0.9-6.9-1.3-9.5-1.3C459,430.2,458.7,430.2,458.4,430.2z M362.6,577l1.3-4.3c-0.5-0.2-1-0.3-1.4-0.5c-1.4,1.6-2.8,3-4.3,4
	l-0.1,0.3C359.5,576.6,361,576.8,362.6,577z M440.4,292.9l27,9.8c0-0.1,0-0.3,0-0.4c-0.2-3.7,0.3-7.5,1.5-11.2v-2.7L440.4,292.9z
	 M449.8,328l18-3.5h0c0.1,0,0.2,0.1,0.1,0.2l-2.6,12.4c1.1,0.4,2.2,0.7,3.4,1v-18.4l-22.7,4.4C447.2,325.4,448.5,326.7,449.8,328z
	 M447.2,323.1l21.7-4.2V310c-0.6-1.9-1.1-3.9-1.3-6L447.2,323.1z M343,586.4c-0.6,0-1.3,0.1-1.9,0.2c-0.2,0.4-0.4,0.9-0.5,1.3
	c-0.9,4.4,1.3,6.6,6.6,6.6c1.3,0,5.9-0.8,13.6-2.3c1.9-0.4,3.9-0.8,5.9-1.1c-4.9-3-11.4-4.8-19.5-4.9
	C346,586.3,344.6,586.3,343,586.4z M438.1,306.8c-2.5-16.4,4.9-35,21.2-46.9c13.4-9.8,28.9-14.6,44.5-14.7
	c29.6-0.3,59.3,16.1,74.9,46.6c2.8-0.7,5.7-1.3,8.5-1.8C573,253.2,537.5,231,501.9,231c-18.8,0-37.6,6.2-53.3,19.7
	c-15.8,13.7-23.6,36.3-20.4,56.2c3,18.8,15.7,35.2,40.6,39.5v-7.9C450.4,333.8,440.3,321.1,438.1,306.8z M374.9,505.4
	c0-1.1-0.9-1.9-1.9-1.9c-0.2,0-0.3,0-0.5,0.1v3.7c0.1,0,0.3,0.1,0.5,0.1C374.1,507.3,374.9,506.4,374.9,505.4z M465.6,397.9
	c-1.3,0.4-2.3,1.2-2.8,2.3c-0.4,1-0.4,2.2,0.1,3.6c0.5,1.4,1.6,3.1,3.3,4.8c0.7,0.8,1.6,1.6,2.6,2.4v-5.1c-0.7-1.4-1.3-2.9-1.9-4.5
	C466.5,400.2,466,399,465.6,397.9z M462.6,403.9c-0.6-1.5-0.6-2.8-0.1-3.9c0.5-1.2,1.6-2,3-2.5c-0.7-1.8-1.4-3.5-2.1-5.2
	c-6.7,11.8-12.1,25-15.8,38.5c2,4.3,3.7,8.8,5.3,13.3c2.1-0.3,4.1-0.5,6.3-0.6c-3.2-1.2-5.5-2.6-7-4.1c-1.8-1.7-2.4-3.6-2.1-5.2
	c0.3-1.3,1.2-2.3,2.6-3.1c1.4-0.8,3.4-1.3,5.8-1.4c2.8-0.1,6.3,0.3,10.4,1.3v-0.5c-4.2-2-7.5-3.9-9.7-5.8c-1.9-1.6-3.1-3.2-3.7-4.7
	c-0.6-1.5-0.5-3.1,0.1-4.5c0.6-1.4,1.9-2.4,3.6-2.7c1.7-0.4,4-0.2,6.5,0.3c1,0.2,2.1,0.5,3.2,0.8v-2.6c-1.1-0.9-2-1.8-2.8-2.6
	C464.2,407,463.2,405.4,462.6,403.9z M611.1,300.1c0-0.1,0-0.3-0.1-0.4c-0.4,0-0.8,0.1-1.2,0.1C610.3,299.9,610.7,300,611.1,300.1z
	 M583.3,303.5c9.1-2.2,18.4-3.7,27.7-4.6c0-0.2-0.1-0.5-0.1-0.7c-0.4-3.1-0.9-6.3-1.3-9.6c-12.3,0.8-24.4,2.8-36.2,5.9
	C576.9,297.5,580.2,300.5,583.3,303.5z M461.3,413c-0.8,0-1.5,0.1-2.1,0.2c-1.7,0.3-2.8,1.2-3.4,2.5c-0.6,1.4-0.6,2.8-0.1,4.2
	c0.6,1.5,1.7,3,3.6,4.6c2.2,1.8,5.3,3.8,9.5,5.7v-6.1c-1.1-0.3-2-1.3-2-2.5c0-1.2,0.8-2.2,2-2.5v-4.8c-1.1-0.3-2.2-0.6-3.2-0.9
	C464,413.2,462.5,413,461.3,413z M375.4,553.8c-2.1,0-3.9,1.7-3.9,3.9c0,2.1,1.7,3.9,3.9,3.9c2.1,0,3.9-1.7,3.9-3.9
	C379.3,555.6,377.6,553.8,375.4,553.8z M463.3,389.8c1.9,3.4,3.2,7.4,4.6,11.1c0.3,0.8,0.6,1.6,0.9,2.3v-25.9
	c-3.8,1.3-8,3.1-12.5,5.4C459.4,384.2,461.6,386.8,463.3,389.8z M608.6,300.2c-1.1,0.1-2.2,0.7-3.2,1.8c-1,1.2-1.9,3-2.5,5.7
	c-0.9,3.9-1.4,9.5-1,17.4c2,1.9,4.4,2.6,7.3,1.9c0.9-0.2,1.7-0.5,2.3-1l-0.5-5.8c-0.1,0-0.2,0-0.3,0c-1.6,0-2.9-1.3-2.9-2.9
	c0-1.6,1.3-2.8,2.9-2.8c1.1,0,2,0.6,2.5,1.5c-0.4-3.7-1.1-8.9-2-15.5c-0.6-0.2-1.2-0.3-1.8-0.3C609.2,300.2,608.9,300.2,608.6,300.2
	z M367.8,563.6c-1.4,2.9-2.8,5.4-4.4,7.5c6.2,2.1,11.9,5.2,16.8,9.1c2.8,2.3,5.4,4.8,7.7,7.6c0.3,0,0.7-0.1,1-0.1
	c0.7-0.1,1.4-0.2,2.1-0.3C380.9,581.8,373,573.5,367.8,563.6z M431.4,583.1c-1.5,0-2.7,1-3.1,2.3c2.1,0.1,4.2,0.2,6.3,0.3
	C434.3,584.2,433,583.1,431.4,583.1z M456.8,381.2c4.3-2.2,8.3-3.8,12-5v-1.9c-1.1-2.9-1.6-5.6-1.6-8.2
	C463.5,370.9,460,375.9,456.8,381.2z M468.3,363.3c0,0.4-0.1,0.8-0.1,1.2c0,0,0,0,0,0.1c-0.1,1.9,0.1,3.9,0.6,6v-10.4
	c-0.2,0.8-0.3,1.6-0.4,2.5C468.5,362.9,468.5,363.1,468.3,363.3z M613.5,317.4c0-0.5-0.1-1-0.4-1.4c0.1,0.8,0.2,1.5,0.3,2.1
	C613.5,317.9,613.5,317.6,613.5,317.4z M372.1,402.4c0.1,0.2,0.3,0.5,0.5,0.6v-2.5C372,400.9,371.8,401.7,372.1,402.4z"/>
</svg>
