<?xml version="1.0" encoding="utf-8"?>
<!-- Generator: Adobe Illustrator 24.3.0, SVG Export Plug-In . SVG Version: 6.00 Build 0)  -->
<svg version="1.1" id="Mandala_Letter" xmlns="http://www.w3.org/2000/svg" xmlns:xlink="http://www.w3.org/1999/xlink" x="0px"
	 y="0px" width="828px" height="828px" viewBox="0 0 828 828" style="enable-background:new 0 0 828 828;" xml:space="preserve">
<style type="text/css">
	.st0{fill:none;stroke:#000000;stroke-miterlimit:10;}
</style>
<path class="st0" d="M0.1,827V0h827.3v827.3H0.1v-0.2 M477.3,586.4c18.7-6.4,35.9-16.5,51.2-29.8c15.3-13.3,27.7-30.5,36.9-50.9
	c9.1-20.4,13.7-45.2,13.7-73.6V284.7c0-12.6,1.5-22.1,4.5-28.3c3-6.2,6.5-10.6,10.5-13c4.1-2.6,7.8-4.4,11-5.5
	c3.8-1.3,6-3.5,6.6-6.7c0.7-3.5-0.9-5.3-2.3-6.1c-1.8-1-3.7-1.5-5.6-1.5c-1.2,0-4.1,0.3-15.6,3.4c-8.2,2.2-16.6,3.3-24.9,3.3
	c-8.3,0-16.4-1.1-24.2-3.3c-8.2-2.3-13.3-3.4-15.6-3.4c-3.1,0-5.3,0.8-6.6,2.3c-1.1,1.3-1.6,3-1.3,5.3c0.5,3.2,2.6,5.4,6.2,6.7
	c3,1.1,6.6,2.9,10.7,5.5c4,2.5,7.5,6.9,10.5,13c3,6.2,4.5,15.7,4.5,28.3v147.4c0,36.2-8.8,65.8-26.3,87.8c-17.4,21.9-39.6,33-66,33
	c-29.1,0-52.1-10.1-68.3-30c-16.3-20-24.6-50.5-24.6-90.7V284.7c0-12.6,1.5-22.1,4.5-28.3c3-6.2,6.5-10.5,10.5-13
	c4.1-2.6,7.8-4.4,11-5.5c3.8-1.3,6-3.5,6.6-6.7l0-0.1V231c0-2.7-1.1-7.3-8.7-7.3c-1.4,0-6,0.7-13.8,2c-7.8,1.3-17.2,2.8-27.8,4.3
	c-10.7,1.5-21.5,2.3-32,2.3c-10.5,0-21.3-0.8-32-2.3c-10.7-1.5-20.1-3-27.8-4.3c-10.5-1.8-12.9-2-13.8-2c-2,0-3.9,0.5-5.7,1.5
	c-1.5,0.8-3,2.6-2.3,6c0.5,3.2,2.7,5.5,6.6,6.7c3.2,1.1,6.9,2.9,11,5.5c4,2.5,7.5,6.9,10.5,13c3,6.2,4.5,15.7,4.5,28.3v147.4
	c0,31,4.4,57.4,13,78.5c8.7,21.1,20.8,38.2,35.9,50.7c15.1,12.5,32.3,21.5,50.9,26.8c18.6,5.3,38.2,8,58.1,8
	C439.7,596.1,458.7,592.9,477.3,586.4z M603.6,225c1.8,0,3.4,0.4,5,1.3c1.5,0.9,2.1,2.4,1.7,4.6c-0.4,2.7-2.3,4.5-5.6,5.6
	c-3.3,1.1-7.1,3-11.3,5.6c-4.2,2.7-7.9,7.2-11,13.6c-3.1,6.4-4.6,16-4.6,28.9v147.4c0,28.3-4.5,52.7-13.6,73
	c-9.1,20.4-21.2,37.2-36.5,50.5c-15.3,13.3-32.2,23.1-50.8,29.5c-18.6,6.4-37.2,9.6-55.8,9.6c-19.9,0-39.2-2.7-57.8-8
	s-35.4-14.2-50.5-26.6c-15.1-12.4-26.9-29.1-35.5-50.1c-8.6-21-12.9-47-12.9-78V284.7c0-12.8-1.6-22.5-4.6-28.9
	c-3.1-6.4-6.7-11-11-13.6c-4.2-2.7-8-4.5-11.3-5.6c-3.3-1.1-5.2-3-5.6-5.6c-0.4-2.2,0.1-3.8,1.7-4.6c1.5-0.9,3.2-1.3,5-1.3
	c1.3,0,5.9,0.7,13.6,2c7.7,1.3,17,2.8,27.9,4.3c10.8,1.6,21.6,2.3,32.2,2.3c10.6,0,21.3-0.8,32.2-2.3c10.8-1.5,20.1-3,27.9-4.3
	c7.7-1.3,12.3-2,13.6-2c4.9,0,7.3,2,7.3,6c-0.4,2.7-2.3,4.5-5.6,5.6c-3.3,1.1-7.1,3-11.3,5.6c-4.2,2.7-7.9,7.2-11,13.6
	c-3.1,6.4-4.6,16-4.6,28.9v147.4c0,40.7,8.3,71.3,24.9,91.6c16.6,20.4,39.7,30.5,69.4,30.5c27,0,49.3-11.2,67-33.5
	c17.7-22.3,26.6-51.9,26.6-88.6V284.7c0-12.8-1.6-22.5-4.6-28.9c-3.1-6.4-6.8-11-11-13.6c-4.2-2.7-7.9-4.5-11-5.6
	c-3.1-1.1-4.9-3-5.3-5.6c-0.4-4,1.8-6,6.6-6c2.2,0,7.3,1.1,15.3,3.3c8,2.2,16.2,3.3,24.6,3.3c8.4,0,16.8-1.1,25.2-3.3
	C596.8,226.1,601.9,225,603.6,225z M265.6,342.8c9.1-4.2,18.1-6.2,26.6-6.5c18.7-0.6,35.1,7.1,45,18.9c6.9,8.2,11,19.7,10.8,30.8
	c-0.2,11.1-4.6,21.8-14.7,28.6c-8,5.3-17.4,7.7-25.7,6.7c-8.3-1-15.5-5.4-19.1-13.5c-2.5-5.7-2.3-12,0.5-17.1
	c2.6-4.8,7.6-8.5,14.6-9.4c-2-1.9-5.7-2.4-9.6-1c-4.3,1.5-8.9,5.2-11.6,11.4c-5,11.7-0.5,24.2,9.6,31.4c10.1,7.2,25.9,9.1,43.3-0.9
	c27.6-15.8,27.3-68.9-15.3-85.5c-8.3-3.2-18.2-5.1-29.9-5c-8.2,0-16.8,1.7-25.2,5.4c-0.1,0-0.1,0.1-0.2,0.1v6.2
	C264.9,343.1,265.2,343,265.6,342.8z M544.8,238.5c0.1,0,0.2,0.1,0.3,0.2c1.1,6.1,5.3,14,3.3,21.3c1.6-0.3,3.2-0.5,4.8-0.5h0.7
	c2.8-8.6,1.6-14.6-0.3-19.7c-1.2-3.3-2.8-6.2-3.8-9.2c-2.7-0.4-5.4-0.9-8.1-1.6c-4.6,3.2-8.1,7.6-9.5,12.6c0.3,0.2,0.7,0.4,1,0.6
	c1.7,1.1,3.3,2.5,4.8,4.1c1.8-2.4,4.2-4.9,6.6-7.7C544.6,238.6,544.7,238.5,544.8,238.5z M268.2,350.6c1,2.5,0.8,5.4-0.7,7.6
	c2.7-2.2,5.6-4,8.6-5.4c-1.5,0.5-3.1,0.5-4.5,0.1c-2.1-0.7-3.7-2.5-3.4-5.1c0.3-2.3,1.7-3.4,3.2-3.6c1.5-0.2,3,0.7,3.4,2.2
	c0.2,0.8,0,1.6-0.4,2.1c-0.5,0.5-1.3,0.8-2.2,0.6c-0.2-0.1-0.1-0.4,0.1-0.4c0.8,0.2,1.4,0,1.9-0.5c0.4-0.4,0.5-1.1,0.4-1.7
	c-0.3-1.4-1.7-2.1-3-2c-1.3,0.2-2.6,1.2-2.9,3.3c-0.3,2.4,1.2,4,3.1,4.7c2,0.7,4.5,0.3,6.1-1.2c1.9-1.8,2.7-4.4,2.3-6.7
	c-0.4-2.3-1.9-4.3-4.5-5c-3.3,1-6.6,2.2-9.9,3.7c-0.4,0.2-0.8,0.4-1.2,0.6v2.7C266.3,347.5,267.5,348.9,268.2,350.6z M388.1,582.7
	c-1.6-0.5-3.1-1.1-4.5-1.8l-4.4,9.6c2.2,0.5,4.5,0.9,6.8,1.2L388.1,582.7z M351.4,443.3c0.5,2.1,1.1,4.2,1.8,6.2
	c0.9,2.6,2,5.1,3.3,7.6c1.9,0.5,3.8,1.2,5.6,1.9c-0.5-4.8-0.9-9.7-1.1-14.9c-1.4-3.5-2.4-7.1-3.2-10.8c-2.3-11.6-1.5-24.2,2.9-36.7
	v-8.1C350.2,407.3,347.6,427.1,351.4,443.3z M383.3,580.7c-1.4-0.7-2.8-1.5-4-2.4l-7.6,10.6c2.4,0.6,4.8,1.1,7.2,1.6L383.3,580.7z
	 M266.1,359.2c2.5-2.2,2.9-5.7,1.8-8.5c-0.6-1.5-1.8-2.9-3.3-3.7v13.2C265.1,360,265.6,359.7,266.1,359.2z M358.5,433.1
	c0.6,3.2,1.5,6.2,2.6,9.2c-0.1-3.3-0.2-6.8-0.2-10.3v-34C356.9,410.1,356.3,422.1,358.5,433.1z M264.8,428.5c1.7,0,3,1.3,3,3
	c0,1.7-1.3,3-3,3c-0.1,0-0.1,0-0.2,0c0,2.1,0.1,4.1,0.1,6.2c4.3,5,9.6,9.4,16,13.1c8.8,5.1,18.4,8,27.6,8.8c2-1.1,4.1-2,6.3-2.9
	c-0.8-0.6-1.3-1.5-1.3-2.5c0-1.7,1.4-3,3-3c1.7,0,3,1.3,3,3c0,0.3-0.1,0.6-0.1,0.9c1.6-0.5,3.1-0.9,4.7-1.3
	c-0.2-0.4-0.3-0.8-0.3-1.2c0-1.7,1.3-3,3-3c1.7,0,3,1.3,3,3c0,0,0,0,0,0c1.8-0.3,3.6-0.5,5.4-0.6c-0.9-0.5-1.5-1.5-1.5-2.6
	c0-1.7,1.3-3,3-3c1.7,0,3,1.3,3,3c0,1-0.5,1.9-1.2,2.4c1.2,0,2.3,0,3.4,0c0.8,0,1.5,0,2.2,0.1c2.8-1.6,5.7-3.4,8.2-5.4
	c-0.7-1.9-1.3-3.9-1.7-5.9c-0.5-2.2-0.9-4.6-1.2-6.9c-4.7,4.6-10.1,8.1-15.8,10.4c0,0,0,0-0.1,0c-10.6,4.2-22.4,4.6-33.3,1.8
	c-0.1,0-0.1,0-0.2-0.1c-2.5-0.7-5-1.5-7.4-2.5c0,0-0.1,0-0.1,0c-2.4-1-4.7-2.2-6.9-3.5c0,0-0.1,0-0.1-0.1c-0.7-0.4-1.4-0.8-2.1-1.3
	c-1.5-1-2.9-2-4.2-3.1c0,0-0.1,0-0.1-0.1c-2-1.7-3.9-3.5-5.5-5.4c0,0-0.1-0.1-0.1-0.1c-3.3-3.9-5.9-8.2-7.8-12.7c0,0,0-0.1,0-0.1
	c-0.4-1-0.8-2-1.1-3v11.6C264.6,428.5,264.7,428.5,264.8,428.5z M345.3,444.7c1.7,0,3,1.4,3,3c0,1.7-1.4,3-3,3c-1.7,0-3-1.3-3-3
	C342.2,446,343.6,444.7,345.3,444.7z M305.9,453.5c1.7,0,3,1.4,3,3c0,1.7-1.4,3-3,3c-1.7,0-3-1.3-3-3
	C302.9,454.9,304.3,453.5,305.9,453.5z M296.1,451.1c1.7,0,3,1.3,3,3c0,1.7-1.4,3-3,3c-1.7,0-3-1.4-3-3
	C293.1,452.5,294.4,451.1,296.1,451.1z M286.7,447.4c1.7,0,3,1.3,3,3c0,1.7-1.4,3-3,3s-3-1.4-3-3
	C283.7,448.8,285.1,447.4,286.7,447.4z M278.2,442.3c1.7,0,3,1.3,3,3c0,1.7-1.3,3-3,3c-1.7,0-3-1.4-3-3
	C275.2,443.7,276.5,442.3,278.2,442.3z M270.9,435.9c1.7,0,3,1.3,3,3c0,1.7-1.4,3-3,3c-1.7,0-3-1.4-3-3
	C267.9,437.2,269.2,435.9,270.9,435.9z M279,404.6c-0.2-1.3-0.2-2.7-0.2-4.1l-14.2-0.1v6.1L279,404.6z M279.9,408.9
	c-0.4-1.3-0.7-2.6-0.8-3.9l-14.4,1.9v6.1L279.9,408.9z M278.8,400.1c0.1-1.3,0.2-2.6,0.5-4l-14.7-1.9v5.8L278.8,400.1z M264.8,360.5
	c-0.1,0-0.2,0.1-0.3,0.1v0.2C264.7,360.7,264.8,360.6,264.8,360.5z M279.4,395.8c0.2-0.8,0.4-1.6,0.6-2.4l-15.4-5.7v6.1L279.4,395.8
	z M269.5,449.4c1.6,5.3-0.2,9.9-3.4,12.7c0,0.2,0.1,0.5,0.1,0.7c0.6-0.8,1.3-1.6,2-2.3c3.1-3,7.2-4.3,11.1-4.2
	c6.6,0.2,12.8,4.2,14.1,11.1c0.6,3,0.1,5.7-1,7.9c4-4.5,8.7-8.4,14.2-11.6c-8.9-1-18-3.9-26.5-8.8c-6.1-3.5-11.2-7.7-15.4-12.3
	c0,0.1,0,0.2,0,0.3C266.9,444.3,268.6,446.5,269.5,449.4z M280.2,393.1c0.2-0.7,0.5-1.4,0.8-2c0.1-0.1,0.1-0.2,0.2-0.4l-14.6-9.7
	c-0.8,1.6-1.4,3.3-2,5.1v1.3L280.2,393.1z M266,419.6l15.6-6.4c-0.6-1.3-1.1-2.6-1.6-4l-15.4,4.2v2.3C265,417,265.5,418.3,266,419.6
	z M359,464c1.3,0.2,2.6,0.5,3.9,0.8c-0.2-1.4-0.4-2.8-0.5-4.2c-0.7-0.3-1.4-0.6-2.1-0.8L359,464z M303.9,493.5
	c6.7-10.9,18.3-19.4,34.8-20.7c2.1-0.1,4.1-0.2,6-0.1c8.9,0.3,15.8,2.7,20.9,6.4c-0.9-4.2-1.7-8.6-2.4-13.2
	c-3.6-0.9-7.3-1.4-11.1-1.3C333.1,464.6,313.4,475.8,303.9,493.5z M375.3,243c-0.9-2-1.3-4.3-1-6.6c0.5-4.4,2.8-7.5,5.8-9.2
	c-0.7-0.3-1.4-0.7-2.1-1.1c-1.6,0.3-3.4,0.6-5.4,0.9c0.9,5.6,1.5,11.2,1.8,16.9C374.6,243.5,374.9,243.2,375.3,243z M604.2,228
	c-4.8,1.1-9.4,2.4-14,3.9l8.5,7.3c0.5-0.3,1.1-0.6,1.6-0.8L604.2,228z M343.2,473.4c-1.4,0-2.9,0.1-4.5,0.2
	c-22.3,1.6-35.4,16.8-39.7,33c-3.6,17.3-0.5,32,7,42.6c-4.6-8.6-6.7-20.1-5-31.1c2.2-14.8,11.4-28.7,30.8-33.2
	c3.1-0.7,6.1-1.1,8.9-1.1c12.1,0,21,6.1,24.6,14c3.8,8.2,2.1,18.9-6.7,23.7c-4.1,2.3-8.8,2.4-12.3,0.7c-3.3-1.6-5.4-4.9-4.4-9.3
	c0-0.1-0.1-0.2-0.1-0.2c-0.4-0.9,1-1.4,1.4-0.5c0.8,2.2,2.2,2.6,3.6,2.3c1.3-0.3,2.6-1.5,2.8-3c0.2-1.4,0.1-2.8-0.2-4
	c-3.2-4.3-11.2-4.5-15.2,2.2c-1,1.6-1.5,3.8-1.4,6.2c0.4,4.7,2.4,8.2,5.2,10.4c3.2,2.6,7.7,3.7,12.4,3.5c9.4-0.5,19.8-6.4,23.6-16.4
	c0.7-1.9,1.3-3.8,1.6-5.8c-4.1-8.1-7.4-17.4-9.8-27.6C360.4,476.1,353,473.4,343.2,473.4z M576.4,271.3c0.2,0.3,0.1,0.8-0.4,0.8
	c-3.1,0.5-5.5,2.1-7.6,4.2c0.3,0,0.6-0.1,0.9-0.1c3-1.9,6.1-3.6,9.3-5.3c0.5-4.6,1.4-8.5,2.6-11.9c-3.8,1.8-7.5,3.7-11.1,5.7
	C572.4,266.6,574.5,268.7,576.4,271.3z M578.4,258.8c1.2-0.6,2.3-1.1,3.5-1.7c0.2-0.5,0.4-0.9,0.6-1.4c1-2.1,2.1-4,3.2-5.7
	c-0.7-0.5-1.1-1.4-1.1-2.3c0-1.6,1.3-2.9,2.9-2.9c0.7,0,1.3,0.3,1.8,0.7c1.1-1.2,2.3-2.1,3.5-3l-10-7.9L578.4,258.8z M560.9,330.4
	c-3.3,3.7-5.4,8.4-5.8,12.9c-0.4,4.5,0.8,8.8,4.2,11.7c3.9,3.3,8.4,3.9,12.3,2.9c2.5-0.6,4.7-1.9,6.2-3.4v-10.4
	c-0.8-0.6-1.8-1-3.1-1.1c-2.2-0.2-3.4,1-3.5,2.2c-0.2,1.2,0.7,2.7,3.4,3.4c0.7,0.2,0.5,1.3-0.3,1.1c0,0-0.1,0-0.1,0
	c-4.5,1-8-0.7-9.8-3.3c-1.9-2.8-2.1-6.6-0.2-9.6c2-3.1,4.8-5.1,8-5.8c1.8-0.7,3.6-1.1,5.5-1.2v-7.3c-0.1,0-0.2,0-0.2,0
	C571.7,323,565.7,325.2,560.9,330.4z M571.7,276.2c2.1,0,4.3,0.1,6.4,0.2c0.1-1.4,0.2-2.8,0.3-4.2c-2.4,1.3-4.7,2.6-7,3.9H571.7z
	 M577.9,304v-12.4l-1.2,12.4C577.1,304,577.5,304,577.9,304z M577.1,330.7c0.3,0,0.5,0.1,0.8,0.1v-0.6c-1.1,0.1-2.1,0.2-3.1,0.4
	C575.6,330.6,576.3,330.6,577.1,330.7z M569.7,304.6c1.6-0.2,3.2-0.4,4.8-0.5c0.6,0,1.2-0.1,1.8-0.1l1.6-16.3V286
	c-3-0.4-5.9-0.7-8.9-0.7L569.7,304.6z M467.2,575.2c1.7-7,0.5-14-3.1-19.4c-0.4-0.7-0.9-1.3-1.4-1.9c-2.5,0.2-5,0.3-7.5,0.3
	c-0.7,0-1.4,0-2,0c1.2,0.7,2.2,1.6,3.1,2.5c0.3,0.3,0.6,0.7,0.9,1c0.1,0.2,0.3,0.4,0.4,0.5c0,0,0,0,0,0c0.2,0.2,0.4,0.5,0.5,0.8
	c0,0.1,0.1,0.1,0.1,0.1c0.1,0.1,0.2,0.3,0.3,0.4c2.2,3.5,3.2,7.4,3.1,10.2c-0.4,11.5-6.6,17.3-12.8,20.2c-6.2,2.9-12.5,2.8-13.1,2.8
	c-0.7,0-1.4-0.1-2.1-0.1c-0.7,0.6-1.4,1.1-2.1,1.7c8.7-0.5,17.4-1.8,26-3.7C462.7,586.1,465.8,580.6,467.2,575.2z M567.1,277.7
	c-0.4,0.4-0.7,0.8-1,1.2c-1.5,1.9-2.9,4-4.4,6.2c3.1-0.4,6.2-0.5,9.3-0.4c2.3,0.1,4.6,0.3,6.9,0.6v-0.6c0-2.4,0.1-4.8,0.2-7
	C574.5,277.4,570.8,277.4,567.1,277.7z M393.2,229.2c-0.6-2.8-3-4.3-7.1-4.3c-0.8,0-2.9,0.3-6.1,0.8c2.5,1.3,5.3,2.3,8.4,2.9
	C389.9,228.9,391.5,229.1,393.2,229.2z M551.2,523.1c-2.2-4.3-6.4-7.5-11.7-8c-2.6,4.2-5.5,8.5-8.7,12.5c1-0.5,2.1-0.9,3.3-1.1
	c1.1-0.4,2.3-0.6,3.5-0.5c3.4,0.2,6.5,2.5,6.8,6.5c0.2,3.5-2.2,5.9-4.7,6.3c-1.3,0.2-2.6-0.1-3.6-1c-1-0.9-1.6-2.3-1.6-4.2
	c0-0.8,1.3-0.8,1.3,0c0,1.6,0.5,2.6,1.2,3.2c0.7,0.6,1.6,0.8,2.5,0.7c1.9-0.3,3.8-2,3.6-4.9c-0.2-3.4-2.7-5.1-5.6-5.3
	c-2.9-0.2-6,1.3-7.3,4.7c-1.7,4.3,0.5,8.3,4.3,10.1c1.7,0.8,3.6,1.2,5.7,1c4.4-5,8.5-10.4,12.2-16.2
	C552.2,525.6,551.8,524.3,551.2,523.1z M544.6,526.9c-2,0-3.6-1.6-3.6-3.6c0-2,1.6-3.6,3.6-3.6c2,0,3.6,1.6,3.6,3.6
	C548.2,525.3,546.6,526.9,544.6,526.9z M429.9,572.1c2.8,3.2,7.7,4.3,11.9,3.2c4.2-1.1,7.9-4.2,8.3-9.2c0.4-3.8-1.9-6.6-4.8-7.8
	c-2.9-1.2-6.3-0.8-8.4,2c-1.5,1.9-1.4,4.1-0.4,5.7c0.5,0.9,1.4,1.6,2.4,2c0.1,0,0.3,0,0.4,0c1.7,0,3.4-0.6,4.3-1.3
	c0.7-0.5,1.1-1.6,1-2.4c-0.1-0.4-0.3-0.8-0.7-1.1c-0.4-0.3-1.1-0.5-2.1-0.5c-0.8,0-0.8-1.3,0-1.3c1.2,0,2.2,0.3,2.8,0.8
	c0.1,0.1,0.2,0.2,0.3,0.2c0.7,0.6,1.1,1.4,1.1,2.2c0,1.6-1,3.2-3.2,3.9c-1,0.4-2.3,0.7-3.6,0.7c-2,0-4-0.6-5.5-2.2
	c-2.3-2.5-2.3-5.7-1.1-8.2c1.1-2.6,3.3-4.7,5.6-5.5c0.2-0.1,0.4-0.1,0.5-0.2c-2.6-0.4-5.2-0.9-7.7-1.4c-1.1,1.1-2,2.3-2.7,3.5
	C425.5,560.5,425.6,567.1,429.9,572.1z M543.6,507.9c-0.2,0.1-0.4,0.1-0.5-0.1c-0.9-0.1-1.8-0.1-2.7-0.1c-3.7,0-7.5,0.8-11,2.5
	c-2.2,3.6-4.6,7.1-7.2,10.4c-2.7,3.4-5.5,6.5-8.4,9.4c-1,3.4-1.8,6.9-2.8,10.6c-0.1,2.3-0.4,4.5-0.8,6.7c1.5-4,2.9-8.2,4.5-12
	c2.3-5.6,4.9-10.8,8.4-14.7c3.6-3.9,8.1-6.4,14.3-6.8c6.6-0.3,12.3,3.5,14.9,8.7c0.5,0.9,0.8,1.9,1.1,2.9c2.1-3.4,4.2-6.9,6.1-10.5
	c-0.6-0.6-1.3-1.2-2-1.7C553.8,510.5,548.9,508.5,543.6,507.9z M380.4,227.3c-3,1.6-5.3,4.7-5.8,9.1c-0.3,2.3,0.2,4.4,1,6.4
	c0.3-0.2,0.6-0.4,0.9-0.6c2.1-1.3,4.1-2.4,5.9-3.4c-0.3-2.2,0.7-4.5,3.3-5.5c1.9-0.7,3.8,0.2,4.5,1.5c0.1,0.2,0.2,0.3,0.2,0.5
	c1.7-1.1,2.6-2.5,3-4.4c0-0.1,0-0.3,0-0.4c-1.8-0.1-3.6-0.3-5.3-0.7C385.3,229.2,382.7,228.4,380.4,227.3z M423.1,590.1
	c-2.3,1.8-4.7,3.3-7.4,4.5c1.8,0,3.7,0.1,5.5,0.1c3.1,0,6.1-0.1,9.2-0.3c0.8-0.6,1.6-1.2,2.3-1.8
	C429.5,592.3,426.2,591.5,423.1,590.1z M404.1,583.9c-1.7,0.2-3.5,0.4-5.2,0.4l1.6,9.4c2.5,0.2,5,0.4,7.5,0.6L404.1,583.9z
	 M398.5,584.3c-1.7,0-3.4-0.1-5-0.4l-0.3,8.9c2.3,0.3,4.6,0.6,6.8,0.8L398.5,584.3z M416.3,592.8l-6.4-10.2c-1.8,0.5-3.7,1-5.5,1.3
	l4,10.5c1.2,0.1,2.5,0.1,3.7,0.2C413.5,594,414.9,593.4,416.3,592.8z M539.1,544.5c-1.8,0-3.6-0.4-5.1-1.2
	c-4.3-2.1-6.9-6.8-4.9-11.7c0.5-1.4,1.4-2.5,2.3-3.3c-0.6,0.3-1.2,0.6-1.7,1c-0.1,0.1-0.1,0.2-0.2,0.2c-0.1,0.1-0.2,0.2-0.4,0.2
	c-0.5,0.4-1,0.9-1.5,1.4c-0.6,0.7-1.1,1.5-1.5,2.3c0,0.1,0,0.3-0.1,0.4c-0.1,0.1-0.1,0.1-0.2,0.2c-0.8,1.9-1.1,4-1,6.1
	c0.4,4.9,3.3,8.9,7.3,11.4C534.5,549.3,536.8,546.9,539.1,544.5z M576.9,454.3c0.1-0.7,0.1-1.3,0.2-2c-1.2-0.4-2.4-0.6-3.7-0.6
	C574.8,452.2,576,453.1,576.9,454.3z M478.5,584.5c0.4-0.1,0.8-0.3,1.2-0.4l-0.6-0.4C478.9,584,478.7,584.2,478.5,584.5z
	 M488.8,579.5l-6.2-2.5c-0.9,2.2-2,4.3-3.3,6.4l0.8,0.6c2.3-0.8,4.5-1.7,6.8-2.7c0.5-0.4,0.9-0.8,1.4-1.2
	C488.5,579.9,488.6,579.7,488.8,579.5z M233.7,226.3c-1.5,0.9-2,2.4-1.6,4.6c0.1,0.7,0.3,1.3,0.6,1.9c0.1-0.5,0.2-1.1,0.3-1.6
	C233.2,229.6,233.4,227.9,233.7,226.3z M474.6,561.8c-1.4-3.2-3.4-6.1-5.9-8.6c-1.8,0.3-3.6,0.5-5.5,0.7c0.4,0.5,0.8,1.1,1.2,1.6
	c3.8,5.5,5,12.7,3.2,19.8c-1.3,5.3-4.3,10.6-9.2,15.1c4.9-1.1,9.7-2.5,14.6-4C477.9,578.8,478.1,569.6,474.6,561.8z M445.1,581.7
	c-11,3.9-20.1-1.1-24-8.8c-3.1-6.1-2.9-14,2.2-20.3c-2.5,2.6-4.4,5.6-5.5,8.8c-3,8.5-1.2,18.3,5.3,24.6c3.2,3.1,7.2,4.8,11.3,5.4
	c0.4,0,0.8,0,1.2,0c0.6,0,6.6,0,12.6-2.7c5.9-2.7,11.7-8.1,12.1-19.1c0.1-3.2-1.5-8.5-5.1-12.2c-1.4-1.5-3.2-2.7-5.2-3.5
	c-0.7,0-1.5-0.1-2.2-0.1C458.8,558.1,458.4,577.1,445.1,581.7z M269.1,449.5c-0.8-2.6-2.4-4.7-4.3-6.3c0.2,6.4,0.7,12.5,1.3,18.4
	C269,458.9,270.7,454.6,269.1,449.5z M524.1,540.2c-0.1-1.6,0-3.2,0.4-4.8c-4.1,4.5-8.6,9-13.4,13.2c-1.8,4.9-3.8,9.8-6.2,14.1
	c-3,5.9-7.1,11.1-11.7,15.7c3.4-1.6,6.8-3.4,10.1-5.3c-0.7-0.4-1.2-1.2-1.2-2.1c0-1.4,1.1-2.5,2.5-2.5c1.3,0,2.4,1.1,2.5,2.4
	c2.1-1.3,4.1-2.6,6.1-4c-0.4,0.1-0.8,0.2-1.2,0.2c-2.5,0-4.5-2-4.5-4.5c0-2.5,2-4.5,4.5-4.5c2.5,0,4.6,2,4.6,4.5
	c0,0.9-0.3,1.8-0.8,2.6c4.1-3,8.2-6.1,12.1-9.5c1.3-1.1,2.6-2.3,3.8-3.5C527.4,549.4,524.5,545.3,524.1,540.2z M521.4,557.5
	c-3,0-5.3-2.3-5.3-5.3c0-2.9,2.4-5.3,5.3-5.3c2.9,0,5.3,2.4,5.3,5.3C526.7,555.1,524.3,557.5,521.4,557.5z M393.1,583.9
	c-1.6-0.3-3.2-0.6-4.7-1.1l-2.1,9c2.2,0.4,4.3,0.7,6.5,1L393.1,583.9z M266.9,327.5c1.6-0.8,3.1-1.6,4.7-2.4c-2.2-3.2-4.6-5.5-7-7.1
	v7.1C265.3,325.9,266.1,326.6,266.9,327.5z M577.9,396.9v-11.4c-0.2,1.2-0.3,2.4-0.3,3.8C577.5,391.6,577.6,394.2,577.9,396.9z
	 M576.1,450.8c0.4,0.1,0.7,0.2,1.1,0.3c0.2-2.6,0.4-5.3,0.5-8.1c-0.7-0.1-1.3-0.2-2-0.2C575.9,445.5,576,448.1,576.1,450.8z
	 M570.6,374.4c1.1,2.3,2,4.8,2.7,7.5c1.4,0,2.8,0.1,4.2,0.3c0.1-0.5,0.3-0.9,0.4-1.4v-7.6C575.6,373.9,573.1,374.4,570.6,374.4z
	 M577,331.6c-4.6-0.5-9.1,1.3-11.8,5.7c-1.7,2.7-1.5,6.1,0.1,8.6c1.4,2.1,3.9,3.5,7.3,3.2c-1.8-1-2.6-2.5-2.5-3.9
	c0.2-1.9,2.1-3.3,4.7-3.1c1.1,0.1,2.1,0.4,3,0.9v-11.2C577.6,331.7,577.3,331.6,577,331.6z M271.2,322.8c-0.7-2.6-1-5.1-1.2-7.4
	l-5.4-10v11.5C266.9,318.2,269.1,320.2,271.2,322.8z M278,503.6c0.8-3.9,2.1-7.7,3.7-11.4c-3.9-1.2-7.7-2.8-11.3-4.6
	c1.2,5.1,2.6,9.9,4.2,14.6C275.7,502.7,276.9,503.2,278,503.6z M269.9,314.6c-0.1-3.5,0.4-6.5,1.3-9.1c0.5-1.6,1.3-2.9,2.1-4.1
	l-0.7-1.7c-2.7,1.4-5.4,2.9-8,4.5v0.4L269.9,314.6z M266.4,327.8c-0.6-0.7-1.2-1.3-1.8-1.9v2.9C265.2,328.5,265.8,328.1,266.4,327.8
	z M567.2,444.4c0.6,6.1,0.9,12.3,0.8,18.5c0.7,0,1.3-0.2,1.9-0.4c2-0.7,3.6-2.1,4.2-3.8c0.6-1.6,0.4-3.4-0.4-4.6
	c-0.8-1.1-2.1-1.9-4-1.6c-0.1,0.1-0.2,0.1-0.4,0.2c-0.8,0.3-1.3-0.9-0.5-1.2c2.2-0.8,4.2-1.1,6.1-0.9c-0.1-2.6-0.2-5.2-0.4-7.8
	C572.2,442.8,569.7,443.3,567.2,444.4z M390.1,235.5c-0.1-0.2-0.1-0.4-0.2-0.5c-0.6-1-2.3-1.9-4-1.3c-2.4,0.9-3.3,2.9-3.1,5
	c1.8-0.9,3.4-1.6,5-2.1C388.6,236.2,389.4,235.9,390.1,235.5z M560.4,452.6c-0.7,3.3,0.1,6.7,3.1,8.8c1.2,0.9,2.5,1.3,3.7,1.4
	c0.1-6-0.2-12-0.8-18C563.2,446.6,561.1,449.5,560.4,452.6z M573.8,430.5c-6.9,0.8-13.3,4.6-17.3,9.9c-5.1,6.7-6.7,17.4-1.5,24.2
	c2.8,3.6,7.5,5.4,11.9,5.3c3.2-0.1,6.3-1.3,8.5-3.5c0.6-3.7,1.1-7.6,1.4-11.5c-0.1-0.1-0.1-0.2-0.2-0.3c-0.9-1.3-2.1-2.2-3.6-2.6
	c0.7,0.4,1.2,0.9,1.6,1.5c1.1,1.6,1.3,3.7,0.5,5.6c-0.8,2-2.6,3.7-4.9,4.4c-2.3,0.8-5,0.5-7.4-1.2c-3.4-2.4-4.4-6.3-3.6-10
	c0.8-3.7,3.4-7.1,7.3-8.9c2.6-1.2,5.4-1.8,7.9-1.8c1.1,0,2.1,0.1,3.1,0.2c0.1-3.2,0.2-6.5,0.2-9.9v-1.6
	C576.5,430.3,575.2,430.4,573.8,430.5z M569.9,411.3c1.1,3.6,2,7.3,2.9,11c0.3,0,0.7,0,1-0.1c1.4,0,2.8,0,4.2,0.2v-10.6
	c-1.2-3.4-2.5-6.7-3.9-10C573.1,405.4,571.7,408.6,569.9,411.3z M576.5,389.2c0.1-1.7,0.2-3.4,0.5-5c-1-0.1-2.1-0.2-3.2-0.2
	c0.1,0.2,0.1,0.5,0.2,0.8c1.3,5.8,1.2,11,0.3,15.6c1.3,2.8,2.5,5.8,3.6,8.8v-4.7C576.9,398.8,576.3,393.7,576.5,389.2z M281.9,491.7
	c1.9-4.5,4.4-8.7,7.3-12.7c-0.6,0.5-1.2,0.9-1.9,1.2c-4.8,2.5-11.8,1.5-14.9-4c-1.3-2.3-1.4-5.4-0.4-7.9c1-2.5,3.3-4.5,6.8-4.5
	c2.7,0,4.9,1.5,5.9,3.6c1,2,0.7,4.5-1.5,6.3c-1.6,1.3-3.7,0.9-4.7-0.1c-0.7-0.6-1-1.5-0.8-2.3c0.1-0.9,0.7-1.7,1.6-2.3
	c0.2-0.1,0.4,0.2,0.2,0.3c-0.9,0.5-1.4,1.3-1.4,2c-0.1,0.7,0.1,1.5,0.7,2c0.9,0.8,2.8,1.2,4.2,0.1c2.1-1.7,2.3-4,1.4-5.9
	c-0.9-1.9-3-3.4-5.6-3.3c-3.4,0-5.5,1.9-6.5,4.3c-1,2.4-0.9,5.4,0.4,7.6c2.9,5.3,9.8,6.3,14.4,3.9c4-2.1,6.9-6.6,5.8-12.6
	c-1.3-6.7-7.3-10.6-13.7-10.8c-3.8-0.1-7.8,1.2-10.8,4.1c-0.8,0.8-1.6,1.7-2.2,2.6c0.9,8.4,2.3,16.2,4,23.7
	C273.9,488.8,277.8,490.4,281.9,491.7z M438.8,554.4c-1.8,0.7-3.9,2.6-4.9,4.8c-1,2.3-1,4.8,0.9,6.9c0.7,0.8,1.7,1.3,2.7,1.6
	c-0.6-0.4-1-1-1.4-1.5c-1.1-1.8-1.2-4.3,0.4-6.3c2.3-2.9,6-3.4,9.1-2.1c3,1.3,5.4,4.3,5.1,8.4c-0.5,5.3-4.3,8.6-8.7,9.7
	c-4.4,1.1-9.4,0-12.5-3.4c-4.4-5.1-4.6-12-1.5-17.5c0.7-1.2,1.5-2.4,2.5-3.4c-1.5-0.4-3-0.7-4.5-1.2c-7.4,6.6-8.1,15.6-4.6,22.5
	c3.9,7.5,12.7,12.4,23.6,8.6c13.2-4.6,13.3-23.7,2.2-27.3c-0.3-0.1-0.6-0.2-0.9-0.3c-1.4-0.1-2.7-0.2-4.1-0.4
	C441.1,553.7,440,554,438.8,554.4z M554.9,414.1l-6.2-1v5.9c0.2,0.1,0.5,0.2,0.8,0.3L554.9,414.1z M553.4,406.9c0,0-0.1,0-0.1,0
	l-4.5-0.7v6.2l6.4,1C554.6,411.3,554,409.1,553.4,406.9z M556.6,421.6c0,0,0.1,0,0.1-0.1c0-0.1,0-0.1,0-0.2c-2.8,0.8-5.6,0.8-8-0.1
	v8L556.6,421.6z M522.1,230.3c1.7,2,3.3,4,4.8,5.9c0.2-0.8,0.4-1.6,0.6-2.3v0c0.5-3,0.8-5.8,0.8-8.3c-2.2-0.5-3.9-0.7-4.9-0.7
	c-0.3,0-0.5,0-0.7,0C522.7,226.6,522.6,228.4,522.1,230.3z M548.8,393.8C548.8,393.8,548.7,393.8,548.8,393.8l-0.1,11.3l4.3,0.7
	C551.8,401.7,550.4,397.7,548.8,393.8z M548.7,386.7v4c0.5-0.5,1-0.9,1.5-1.3C549.7,388.5,549.2,387.6,548.7,386.7z M548.7,362.8
	v0.5c0.4,0.4,0.8,0.8,1.2,1.2C549.5,363.9,549.1,363.4,548.7,362.8z M557.6,385c-2.7-4.8-5.7-9.3-8.9-13.7v13.6
	c0.8,1.3,1.5,2.6,2.2,3.9C553,387.2,555.2,385.9,557.6,385z M563.8,383c-4.4-6.7-9.4-12.8-15.1-18.4v5c3.6,4.7,6.9,9.8,9.9,15.1
	C560.3,383.9,562.1,383.4,563.8,383z M572.7,396.8c0.4-3.5,0.1-7.3-0.8-11.6c-0.1-0.4-0.2-0.7-0.3-1.1c-1.8,0.1-3.7,0.3-5.6,0.7
	C568.4,388.6,570.6,392.6,572.7,396.8z M571.1,381.9c-0.8-2.8-1.8-5.3-2.9-7.6c-3.1-0.3-6.4-1.1-9.7-2.8c-1.8-0.9-3.5-2-5-3.3
	c4.1,4.6,7.9,9.4,11.3,14.6C566.9,382.3,569,382,571.1,381.9z M565.6,413.2c1-1,1.9-2.2,2.7-3.5c-2.5-8-5.8-15.7-9.6-22.9
	c-0.1,0-0.1,0.1-0.2,0.1c-2.3,0.9-4.4,2.2-6.4,3.8c4.1,7.9,7.5,16.4,10.1,25.5C563.3,415.5,564.5,414.4,565.6,413.2z M572.5,398.4
	c-2.2-4.7-4.7-9.2-7.4-13.5c-1.7,0.4-3.6,0.9-5.4,1.6c3.7,6.9,6.9,14.3,9.4,22C570.7,405.7,571.9,402.3,572.5,398.4z M550.9,431
	l-2.2-0.5v1.5c0,0.4,0,0.7,0,1.1C549.4,432.4,550.1,431.7,550.9,431z M557.6,421.1c0.3,1.6,0.5,3.2,0.7,4.9c1.6-0.8,3.2-1.4,4.9-2
	c-0.4-1.7-0.8-3.3-1.2-4.9C560.5,420,559,420.6,557.6,421.1z M531.3,226.3c-0.7-0.2-1.3-0.3-1.9-0.4c0,1.3-0.1,2.6-0.2,4
	C529.9,228.5,530.6,227.4,531.3,226.3z M551.2,430.7c1.9-1.7,4-3.1,6.2-4.2c-0.2-1.5-0.4-3-0.7-4.5l-8.1,7.9v0.3L551.2,430.7z
	 M567.2,414.7c-1.4,1.5-2.9,2.8-4.5,3.9c0.5,1.7,0.9,3.4,1.3,5.2c2.5-0.7,5.1-1.2,7.6-1.4c-0.7-3.4-1.6-6.7-2.5-9.9
	C568.5,413.2,567.8,414,567.2,414.7z M551.6,296.5c-0.9,0.7-1.9,1.3-2.9,1.8v7.4c2.3-0.4,4.6-0.8,6.8-0.7
	C554.9,302,554,299.1,551.6,296.5z M554.4,292.6c0.9-0.9,1.7-1.8,2.5-2.8c3.1-3.9,5.6-8.1,8.4-11.6c0.4-0.5,0.8-1,1.2-1.4
	c0.1-0.1,0.2-0.2,0.3-0.3c2.3-2.5,4.9-4.4,8.2-5.2c-5.5-7.2-13.1-10.6-20.9-10.7c-2.6,0-5.2,0.3-7.8,1c0.5,1.7,0.9,3.6,1.2,5.6
	c0.8-0.1,1.5-0.2,2.3-0.2c5.1-0.3,10.5,0.8,14.6,4.6c0.1,0.1,0.1,0.3-0.1,0.3c-7.2,1.3-11.1,6.7-15.5,12.1c0,0.2,0,0.4,0,0.7V297
	c2.1-1.2,3.9-2.7,5.6-4.3C554.3,292.7,554.3,292.6,554.4,292.6z M563.8,311.6c0.3-4.7-0.2-8.5-1.7-11.4c-1.5-3-3.9-5.1-7.3-6.5
	c-0.9,0.9-1.9,1.8-3,2.6c2.6,2.7,3.5,5.8,4.1,8.8c0,0.1-0.1,0.2-0.2,0.2c-2.3,0-4.6,0.3-7,0.8v5.3
	C553.7,310.6,558.8,310.3,563.8,311.6z M558.9,370.7c3,1.5,6,2.3,8.8,2.6c-4.7-9-11.7-15.1-18.9-21.2v8.8
	C551.1,365.2,554.5,368.6,558.9,370.7z M544.6,239.4c-2.4,2.7-4.7,5.1-6.4,7.4c2.1,2.4,4,5.4,5.8,9c0.7,1.4,1.3,3.1,1.8,4.8
	c0.6-0.2,1.2-0.3,1.8-0.4C549.8,253.3,545.9,245.6,544.6,239.4z M575.6,237.5c-3,1.3-5.9,2.6-8.8,4.1c0.1,1.9,0.1,3.9-0.2,5.9
	l6.3,2.6L575.6,237.5z M563.8,271.6c-3.4-3.1-7.9-4.2-12.2-4.3c-0.6,0-1.2,0-1.9,0.1c-0.8,0-1.5,0.1-2.3,0.2
	c0.8,4.6,1.2,9.9,1.2,15.9C552.9,278.2,556.8,273,563.8,271.6z M541.1,228.8c-0.8-0.2-1.6-0.4-2.3-0.6c-2.3-0.6-4.4-1.2-6.3-1.7
	c-2.1,2.8-3.7,6.2-4.6,10.8c0.7,1,1.4,1.9,2.1,2.9c0.6,0.3,1.2,0.7,1.9,1.1C533.2,236.4,536.6,232.1,541.1,228.8z M548.7,312.4v2.9
	c1.3-1.2,2.6-2.4,4.1-3.4C551.4,312.1,550.1,312.2,548.7,312.4z M561.2,316.8c5.2-2.7,10.9-4,16.7-4.1v-8.2c-4.4-0.1-8.8,0.5-13,1.6
	c0.2,1.9,0.2,3.9,0,6.1c-0.1,0.3-0.4,0.6-0.7,0.5c-3.3-1-6.8-1.1-10.3-0.9c-1.9,1.3-3.6,2.7-5.2,4.2v12.1
	C551.6,323.7,555.7,319.7,561.2,316.8z M570.1,373.5c2.8,0,5.4-0.5,7.8-1.3V356c-1.6,1.3-3.7,2.4-6,3c-4.2,1.1-9.2,0.5-13.3-3.1
	c-3.7-3.2-5-7.8-4.6-12.6c0.4-4.8,2.6-9.7,6.1-13.5c5-5.5,11.3-7.8,17.5-8.3c0.1,0,0.2,0,0.3,0v-7.7c-5.6,0.1-11.2,1.3-16.2,4
	c-5.9,3.1-10.2,7.4-13,12.3v19.4C556.8,356.1,565,362.9,570.1,373.5z M577.8,259.1l4.5-24.4c-2.2,0.8-4.3,1.7-6.4,2.6l-2.8,13
	c0,0.1-0.1,0.2-0.2,0.1l-6.4-2.6c-0.3,2-0.8,4.2-1.6,6.4l12.5,5.1C577.5,259.2,577.7,259.2,577.8,259.1z M569.3,304.6l-0.7-19.3
	h-0.2c-2.4,0-4.9,0.2-7.3,0.5c-0.4,0.5-0.7,1-1.1,1.6l2,10.4c0.4,0.6,0.7,1.2,1.1,1.8c0.9,1.7,1.4,3.7,1.7,6
	C566.3,305.2,567.8,304.9,569.3,304.6z M522.4,225c-1.6,0.1-2.9,0.5-3.8,1.1c1.1,1.3,2.2,2.6,3.3,3.9
	C522.2,228.2,522.4,226.5,522.4,225z M564.7,254.7c-0.7,1.9-1.7,3.9-2.9,6c2.4,0.7,4.7,1.8,6.9,3.2c2.6-1.5,5.3-2.9,8-4.3
	L564.7,254.7z M557.7,290.5c-0.7,0.8-1.3,1.6-2,2.3c2.4,1,4.4,2.5,5.8,4.3l-1.7-9.3C559.1,288.8,558.4,289.7,557.7,290.5z
	 M382.8,523.2l0.4,14.6c1.2-1.2,2.4-2.5,3.4-4l-0.2-8.2c0-0.1,0-0.2,0.1-0.2l0.5-0.2c-0.4-0.5-0.9-1-1.3-1.5
	c-0.4-0.5-0.7-0.9-1.1-1.4l-1.5,0.5C383,522.9,382.9,523,382.8,523.2z M416.1,583.9c2,1.9,4.3,3.5,6.7,4.7c0.2,0,0.5,0.1,0.6,0.3
	c1.6,0.7,3.3,1.3,5,1.7c-2.2-0.9-4.2-2.2-5.9-4c-6.7-6.6-8.6-16.7-5.5-25.4c1.5-4.2,4.2-8.1,8.1-11.2c-4.5-1.3-8.8-3-12.8-5
	c-2.5,4.5-4,9.4-4.3,14.5C407.4,570.9,410.8,578.8,416.1,583.9z M415.4,549c1.4,0,2.5,1.1,2.5,2.6c0,1.4-1.1,2.5-2.5,2.5
	c-1.4,0-2.6-1.1-2.6-2.5C412.8,550.1,414,549,415.4,549z M412.5,556.9c1,0,1.8,0.8,1.8,1.8c0,1-0.8,1.8-1.8,1.8
	c-1,0-1.8-0.8-1.8-1.8C410.7,557.7,411.5,556.9,412.5,556.9z M411.8,563.4c0.8,0,1.4,0.6,1.4,1.4c0,0.8-0.6,1.4-1.4,1.4
	c-0.8,0-1.4-0.6-1.4-1.4C410.4,564.1,411,563.4,411.8,563.4z M497.5,561.7c0.2-0.9,0.3-1.9,0.4-2.8c0.2-2.3,0.2-4.5-0.1-6.8
	l-13.4,2.6c0.5,2.3,0.8,4.6,0.8,7L497.5,561.7z M549.9,419.4c1.9,0.5,4.1,0.4,6.4-0.2c-0.3-1.6-0.6-3.3-1-4.9L549.9,419.4z
	 M395.5,553.4c2.3-0.2,4.6,0.5,6.2,2.4c1.4,1.6,1.6,3.5,1.1,5.2c-0.5,1.7-1.6,3.1-3.1,3.8c-1.5,0.7-3.3,0.6-4.6-0.1
	c-1.3-0.7-2.1-2.2-1.6-4c0.4-1.5,1.8-2.1,2.9-1.8c0.5,0.1,1,0.4,1.3,1c0.3,0.5,0.3,1.2-0.1,1.9c-0.2,0.6-1.1,0.2-0.8-0.4
	c0.3-0.5,0.2-0.9,0.1-1.1c-0.1-0.2-0.4-0.4-0.7-0.5c-0.7-0.2-1.5,0.1-1.9,1.2c-0.4,1.4,0.2,2.3,1.2,2.9c1,0.5,2.5,0.6,3.8,0
	c1.2-0.5,2.2-1.7,2.6-3.2c0.4-1.4,0.2-3-1-4.3c-1.9-2.2-4.8-2.6-7.4-1.5c-2.5,1.1-4.6,3.6-4.7,7.4c-0.1,2.8,1,4.9,2.6,6.3
	c1.6,1.4,3.9,2.1,6.1,2.1c2.3,0,4.5-0.7,6.3-2.2c1.4-1.1,2.4-2.8,2.8-4.9c0-1.3,0-2.6,0.1-4c0.3-5.3,1.9-10.4,4.4-15
	c-0.8-0.4-1.6-0.8-2.4-1.3c-4.6,2.7-9.3,6.5-14.7,10.5C394.6,553.5,395,553.4,395.5,553.4z M608.7,226.2c-1.5-0.9-3.2-1.3-4.9-1.3
	c-1.8,0-6.9,1.1-15.3,3.3c-8,2.1-16.1,3.2-24.1,3.3c1.1,2.9,2,6,2.3,9.3C579.7,234.3,593.9,229.3,608.7,226.2z M553.9,239.7
	c1.9,5.1,3,11.2,0.3,19.9c2.2,0,4.5,0.3,6.6,0.9c6.7-11.6,5.7-20.4,2.6-28.5c0-0.1-0.1-0.2-0.1-0.3c-4.4,0-8.8-0.3-13.1-0.9
	C551.2,233.6,552.7,236.4,553.9,239.7z M480,553.6c0,1.4-1.1,2.5-2.5,2.5c-1.4,0-2.5-1.1-2.5-2.5c0-0.7,0.4-1.4,0.9-1.9
	c-2.1,0.5-4.2,0.9-6.3,1.3c2.4,2.5,4.3,5.4,5.7,8.5c3.4,7.8,3.3,16.9-1.1,24.5c0.7-0.2,1.5-0.5,2.2-0.7c8.1-10.7,9.5-23.9,5.3-35.2
	c-1.2,0.4-2.5,0.8-3.7,1.1C479.1,551.4,480,552.4,480,553.6z M481.6,560.6c0,1-0.8,1.8-1.8,1.8c-1,0-1.8-0.8-1.8-1.8
	c0-1,0.8-1.8,1.8-1.8C480.8,558.8,481.6,559.6,481.6,560.6z M489,579.2c2.1-2.5,3.9-5.1,5.2-7.8l-9.6-1.9c-0.4,2.3-1.1,4.7-2,7
	L489,579.2z M400.7,545.4c2.1-1.1,4.2-2.1,6.2-3.1l-0.2-0.3c-3.2-1.9-6.2-4-9.1-6.4c-0.9,0.8-1.8,1.5-2.7,2.3L400.7,545.4z
	 M374.6,513.9c-4,10.3-14.6,16.4-24.3,16.9c-3.6,0.2-7.1-0.4-10.1-1.9c1.2,0.8,2.6,1.6,4,2.2c5.9,2.6,13.3,3.3,20.2,1.6
	c7.1-1.7,14-5.9,19-12c-2.7-3.6-5.2-7.6-7.4-11.8C375.7,510.6,375.2,512.3,374.6,513.9z M598.4,239.3l-8.6-7.3
	c-2.2,0.7-4.3,1.5-6.5,2.3l10,7.9c0,0,0.1-0.1,0.1-0.1C595.2,241.1,596.9,240.2,598.4,239.3z M384.3,521.8c0-0.1-0.1-0.1-0.1-0.2
	c-0.1,0.1-0.2,0.2-0.3,0.3L384.3,521.8z M234.6,225.8c-0.1,0-0.2,0.1-0.3,0.2c-0.1,0.5-0.1,1-0.2,1.5
	C234.2,226.9,234.4,226.3,234.6,225.8z M600.8,238.1c1.4-0.6,2.7-1.2,4-1.6c1.1-0.4,2-0.8,2.8-1.3l2.6-7.6c-0.2-0.3-0.4-0.6-0.6-0.8
	c-1.7,0.3-3.3,0.7-4.9,1.1L600.8,238.1z M387,533.3c1.1-1.5,2.1-3.2,3-4.9c-0.9-1-1.8-1.9-2.7-2.9l-0.5,0.2L387,533.3z M389.6,536.9
	c0.8,0.8,1.6,1.5,2.4,1.9c1.5-1.3,3.1-2.6,4.6-4c-2-1.7-3.9-3.4-5.7-5.3c-0.9,1.7-1.9,3.4-3,4.9
	C388.3,535.3,388.9,536.2,389.6,536.9z M516.8,230.9c0.4,2.7,2.2,4.5,5.3,5.6c1.7,0.6,3.5,1.4,5.4,2.5c-2.9-3.9-6.3-8-9.9-12.1
	C516.9,227.8,516.6,229.2,516.8,230.9z M542.2,494.1c0.1,0.1,0.1,0.1,0.1,0.2l7-1c1-2.5,1.8-5,2.6-7.5l-11.8,1.8c-0.4,1-0.7,2-1.1,3
	C540.3,491.6,541.4,492.8,542.2,494.1z M536,497.9c-0.2,0.4-0.3,0.7-0.5,1.1c0.6,0.1,1.2,0.2,1.9,0.4
	C536.9,498.9,536.5,498.4,536,497.9z M549.2,493.6l-6.6,1c1.4,2.3,2.2,5,3,7.6C546.8,499.3,548.1,496.5,549.2,493.6z M545.3,505.6
	c-1.1-3.9-2-7.8-4-11c-0.7-1.1-1.6-2.1-2.6-3c-0.8,2-1.6,4-2.5,5.9c0.6,0.7,1.2,1.4,1.8,2.1c0.1,0.1,0,0.4-0.2,0.3
	c-0.8-0.3-1.7-0.5-2.5-0.6c-1,2.2-2.2,4.4-3.3,6.5c1-0.3,1.9-0.5,2.9-0.7C538.5,504.3,542,504.3,545.3,505.6z M552.2,485.2l-8-11.3
	c-1.1,4.6-2.3,9-3.8,13.2l11.8-1.8C552.1,485.3,552.1,485.3,552.2,485.2z M551.3,391.4c-0.6,0.5-1.2,1.1-1.8,1.7
	c3.5,8.2,6,16.9,7.7,25.8c1.4-0.5,2.8-1.1,4.1-2C558.7,407.8,555.3,399.3,551.3,391.4z M553.8,479.7c-3.8-1.7-6.9-4.3-9.3-7.4
	c-0.1,0.4-0.2,0.7-0.3,1.1l8,11.3C552.8,483.1,553.3,481.4,553.8,479.7z M561.7,480.5c4.4,0.5,8.1,0,11.1-1c1-4,1.8-8.2,2.5-12.5
	c-2.2,2.1-5.2,3.1-8.3,3.3c-4.5,0.2-9.3-1.7-12.2-5.4c-5.4-6.9-3.7-17.9,1.4-24.6c4.1-5.4,10.5-9.2,17.5-10.1
	c0.9-0.1,1.8-0.2,2.7-0.2c0.5,0,1,0,1.5,0v-6.4c-10.6-1-21.6,2.7-29.3,11.4c-0.2,12.8-1.4,24.7-3.8,35.7
	C548.4,475.9,554.1,479.7,561.7,480.5z M497.8,551.7c-0.3-2.7-0.9-5.4-1.8-8c-4.2,2.4-8.5,4.4-13.1,6c0.6,1.5,1.1,3.1,1.4,4.7
	L497.8,551.7z M484.7,569.2l9.7,1.9c1.4-2.9,2.4-6,3-9.1l-12.2,0C485.3,564.4,485.2,566.8,484.7,569.2z M525.3,533.2
	c0,0,0.1-0.1,0.1-0.1c0.4-0.9,1-1.7,1.6-2.5c0.5-0.5,1-1,1.6-1.5c0-0.1,0.1-0.1,0.1-0.2c3.5-4.4,6.9-9.1,9.8-13.8H538
	c-0.2,0-0.4,0-0.6,0c-5.8,0.3-10,2.6-13.4,6.3c-3.4,3.7-5.9,8.8-8.2,14.3c-1.4,3.5-2.8,7.3-4.1,11
	C516.7,542.4,521.2,537.8,525.3,533.2z M498.9,559c-0.5,5.5-2.3,11-5.4,16c6.5-7,11.5-15.3,13.9-25.1c1.2-4.8,1.7-9.9,1.5-15.4
	c-3.8,3.3-7.8,6.2-12,8.6C498.7,548.3,499.4,553.6,498.9,559z M610.4,230.9c0.2-0.9,0.2-1.7,0-2.4l-2.1,6.2
	C609.5,233.6,610.2,232.4,610.4,230.9z M512.7,531.1c-0.6,0.5-1.1,1.1-1.7,1.6c0.1,1.5,0.2,3,0.2,4.5
	C511.6,535.2,512.1,533.1,512.7,531.1z M541.6,507c0.5,0,1,0.1,1.6,0.1c0.2-0.4,0.3-0.7,0.5-1c-1.1-0.3-2.3-0.5-3.5-0.5
	c-1.6,0-3.2,0.2-4.9,0.5c-1.3,0.3-2.5,0.6-3.8,1c-0.4,0.7-0.8,1.3-1.2,2C533.8,507.5,537.8,506.9,541.6,507z M565.8,482
	c-1.3,0-2.8,0-4.2-0.2c-2.5-0.3-4.8-0.8-7-1.7c-2.1,7.9-5,15.7-8.8,23.4c0.3,1,0.5,1.9,0.8,2.8c0.1,0.4-0.3,0.8-0.8,0.6
	c-0.5-0.2-1-0.4-1.4-0.6c-0.1,0.3-0.2,0.6-0.4,0.8c5,0.6,9.7,2.5,13.4,5.2C561.7,502.6,564.4,492.4,565.8,482z M558.9,483.7
	c1.4,0,2.6,1.1,2.6,2.6c0,1.4-1.1,2.6-2.6,2.6c-1.4,0-2.6-1.2-2.6-2.6C556.3,484.8,557.5,483.7,558.9,483.7z M556.9,491.8
	c1.6,0,2.8,1.3,2.8,2.8c0,1.6-1.3,2.8-2.8,2.8c-1.6,0-2.8-1.3-2.8-2.8C554.1,493.1,555.3,491.8,556.9,491.8z M553.8,506.8
	c-1.7,0-3.1-1.4-3.1-3.1c0-1.7,1.4-3.1,3.1-3.1c1.7,0,3.1,1.4,3.1,3.1C557,505.4,555.6,506.8,553.8,506.8z M558.2,512.9
	c0.6,0.4,1.1,0.9,1.6,1.4c1.6-3,3.1-6.1,4.5-9.2c3.3-7.5,6.1-15.6,8.2-24.1c-1.7,0.5-3.7,0.9-5.7,1
	C565.3,492.6,562.6,503,558.2,512.9z M289.5,380.7l-3.7-18.5c-0.5,0.2-1,0.4-1.5,0.6c-1.6,0.7-3.2,1.6-4.6,2.5l7.2,17.4
	C287.7,381.9,288.6,381.3,289.5,380.7z M293,378.9V360c-2.2,0.5-4.5,1.1-6.9,2l3.7,18.5C290.9,379.9,292,379.4,293,378.9z
	 M300.8,359.4c-0.3,0-0.5,0-0.8,0c-2.1,0-4.3,0.2-6.5,0.6v18.8c1.2-0.4,2.5-0.7,3.7-0.8L300.8,359.4z M286.6,383l-7.2-17.5
	c-1.9,1.3-3.6,2.7-5.2,4.3l10.3,15.4C285.2,384.4,285.8,383.6,286.6,383z M284.3,385.5l-10.4-15.4c-1.5,1.5-2.8,3.2-4,4.9l12.8,12.8
	C283.2,386.9,283.7,386.2,284.3,385.5z M354.7,398.6l-0.7-0.3c-0.3,1.3-0.7,2.6-1.1,3.8l0.4,0.2
	C353.7,401.1,354.2,399.9,354.7,398.6z M282.5,388.1l-12.8-12.8c-1.1,1.7-2.1,3.5-3,5.3l14.6,9.7C281.6,389.5,282,388.8,282.5,388.1
	z M303.7,391.3l19.9-13.2c-0.3-2.4-1.1-4.9-2.4-7.1l-18.8,18.7C302.7,390.3,303.1,390.8,303.7,391.3z M305.5,392.5
	c0.4,0.2,0.7,0.3,1,0.4l15.6-6.4c0,0,0,0,0.1,0h0c1.2-2.5,1.6-5.2,1.3-7.9L304,391.6C304.4,391.9,304.9,392.2,305.5,392.5z
	 M316.7,392.4c2-1.1,3.8-2.8,5.2-5.4c0-0.1,0.1-0.1,0.1-0.2l-15,6.2C310.5,394.1,313.9,393.5,316.7,392.4z M305,393.5
	c-1.6-0.8-2.8-1.9-3.6-3.2c-0.8-1.3-1.2-2.7-1.1-4.1c0.1-1.2,0.6-2.4,1.7-3.4c-2.8,1.3-4.5,3-5.3,4.9c-1,2.4-0.6,5.2,0.9,7.7
	c3.1,5,10.8,9,20.2,6.6c8.5-2.1,14.9-10.9,15.4-20.8c0.4-8.3-3.3-17.5-13.3-24.1c3.2,2.9,5.7,6.6,7.2,11c3.1,8.8,1.6,16.2-2.9,20.9
	c-0.7,0.8-3.1,2.8-6.6,4.3C314.1,394.7,309.6,395.5,305,393.5z M353.2,402.7l-0.4-0.2c-0.5,1.3-1,2.6-1.6,3.8l0.7,0.5
	C352.3,405.4,352.7,404,353.2,402.7z M305,380.7l10.7-16.1c-1.9-1.5-4.1-2.8-6.6-3.7l-7.3,17.6C303,379,304.1,379.7,305,380.7z
	 M304.5,382.1c0,0-0.1,0.1-0.1,0.1l-2.7,4c-0.1,0.3-0.1,0.5-0.1,0.8c0,0.8,0.2,1.6,0.5,2.3l18.8-18.7c-1.2-2-2.7-3.8-4.6-5.4
	c-0.1-0.1-0.3-0.2-0.4-0.4L305.2,381C305.6,381.5,305.2,382.2,304.5,382.1z M301.4,378.4l7.3-17.6c-2.3-0.8-4.8-1.3-7.6-1.4
	l-3.7,18.6C298.9,377.9,300.2,378,301.4,378.4z M313.5,430.4v19.8c2.2,0,4.3-0.1,6.5-0.3l-2-20C316.5,430.2,315,430.3,313.5,430.4z
	 M299.3,428.5l-6.6,17.5c2.3,1,4.7,1.7,7.1,2.4l3.7-18.7C302.1,429.3,300.7,429,299.3,428.5z M351.8,407.1l-0.8-0.5
	c-0.6,1.3-1.2,2.5-1.9,3.6l1.5,1.3C351,410,351.3,408.6,351.8,407.1z M331.8,425.5l7.5,18.2c1.9-1.1,3.7-2.3,5.4-3.7l-8.9-16.6
	C334.5,424.2,333.1,424.9,331.8,425.5z M317.6,349.1c0.9-1.7,2.4-2.3,3.8-2.2c0.5,0,0.9,0.1,1.3,0.2c0.7,0.2,1.2,0.6,1.5,1.1
	c0.3,0.5,0.5,1.1,0.4,1.9c-0.1,0.8-0.7,1.5-1.4,1.9c-0.7,0.4-1.6,0.4-2.4-0.2c-0.2-0.1,0-0.5,0.2-0.3c0.7,0.5,1.4,0.5,2,0.1
	c0.6-0.3,1.1-0.9,1.2-1.6c0.1-0.7,0-1.2-0.3-1.6c-0.3-0.4-0.7-0.8-1.3-1c-1.4-0.5-3.6-0.2-4.7,1.8c-1.2,2.2-0.7,4.2,0.8,5.7
	c1.4,1.4,3.8,2.2,6.4,1.7c4.8-0.9,6.1-5.6,4.2-8.1c-3.4-2.7-7.3-5-11.5-6.8c1,1.1,1.4,2.6,1.1,4c-0.3,2.1-1.8,4.1-4.1,5.1
	c-1.4,0.6-2.9,0.7-4.3,0.4c1.7,0.7,3.4,1.6,4.9,2.6c1.1,0.5,2.2,1.1,3.1,1.7c-0.1-0.1-0.2-0.2-0.3-0.3
	C317,353.6,316.4,351.4,317.6,349.1z M327.5,427.3l5.9,19.2c1.9-0.8,3.8-1.7,5.6-2.7l-7.5-18.2C330.1,426.3,328.8,426.8,327.5,427.3
	z M318.4,429.9l2,20c2.1-0.2,4.2-0.6,6.2-1.1l-3.9-19.8C321.2,429.3,319.8,429.6,318.4,429.9z M323,428.8l3.9,19.8
	c2.1-0.5,4.1-1.2,6.1-2l-5.8-19.2C325.8,428,324.4,428.5,323,428.8z M308.8,430.4l-1.9,19.4c2.1,0.3,4.2,0.4,6.3,0.5v-19.8
	C311.7,430.5,310.2,430.5,308.8,430.4z M281.7,413.5l-15.6,6.4c0.8,2,1.8,3.9,2.9,5.8l14.8-8.7C283,415.9,282.3,414.7,281.7,413.5z
	 M348.8,424.6l-5.6-6.8c-1,1-2.1,2-3.2,2.8l9,13.4C348.7,430.9,348.6,427.8,348.8,424.6z M295,426.6l-9.2,15.9
	c2.1,1.3,4.3,2.4,6.6,3.3l6.6-17.5C297.6,427.9,296.3,427.3,295,426.6z M284,417.3l-14.8,8.8c1.3,2.2,2.8,4.3,4.5,6.3l12.8-12
	C285.7,419.4,284.8,418.4,284,417.3z M291,424.2c-0.1-0.1-0.2-0.1-0.2-0.2l-11.2,14.1c1.3,1,2.6,2,4.1,3c0.6,0.4,1.3,0.8,1.9,1.2
	l9.1-15.8C293.4,425.8,292.2,425,291,424.2z M286.8,420.6l-12.9,12c1.6,1.8,3.4,3.6,5.3,5.2l11.2-14
	C289.2,422.8,287.9,421.7,286.8,420.6z M303.9,429.7l-3.7,18.7c2.1,0.5,4.2,1,6.3,1.3l1.9-19.4C306.8,430.2,305.4,430,303.9,429.7z
	 M296.5,518.8l-14.4,1.4c0.9,1.8,1.8,3.5,2.7,5.2l11.7-2.3C296.4,521.6,296.4,520.2,296.5,518.8z M296.5,523.4l-11.6,2.3
	c0.9,1.7,1.9,3.3,2.9,4.9l9.1-2.7C296.7,526.4,296.6,524.9,296.5,523.4z M296.8,514.2l-17.5,0c0.8,1.9,1.7,3.8,2.6,5.6l14.6-1.4
	C296.5,517,296.6,515.6,296.8,514.2z M297.8,533l-6.7,2.7c1,1.5,2,2.9,3,4.3l4.9-2.6C298.5,536,298.1,534.5,297.8,533z M299.1,537.7
	l-4.8,2.6c1.1,1.4,2.1,2.8,3.2,4.2l3.3-2.2C300.2,540.8,299.6,539.3,299.1,537.7z M297.4,509.7l-18.7-1.8c-0.2,1.2-0.3,2.4-0.5,3.6
	c0.3,0.8,0.6,1.5,1,2.3l17.6-0.1C297,512.5,297.1,511.1,297.4,509.7z M296.9,528.2l-8.9,2.7c0.9,1.5,1.9,3,2.9,4.5l6.8-2.8
	C297.4,531.2,297.1,529.7,296.9,528.2z M274,249l10.7,34.9c2.6-0.8,5.2-1.5,7.8-2L285,246C281.3,246.9,277.6,247.9,274,249z
	 M278.8,250.2c0.2-0.7,0.9-1.1,1.6-1.1c0.1,0,0.3,0,0.4,0.1c0.8,0.3,1.3,1.2,1,2c-0.3,0.8-1.2,1.3-2,1
	C279,252,278.5,251.1,278.8,250.2z M280.2,255.7c0.2-0.7,0.9-1.2,1.6-1.1c0.2,0,0.3,0.1,0.4,0.1c0.8,0.3,1.3,1.2,1,2
	c-0.3,0.8-1.2,1.3-2,1C280.4,257.5,279.9,256.6,280.2,255.7z M281.6,261.5c0.2-0.7,0.9-1.1,1.6-1.1c0.2,0,0.3,0,0.4,0.1
	c0.8,0.3,1.3,1.2,1.1,2c-0.3,0.9-1.2,1.3-2,1.1C281.8,263.3,281.3,262.4,281.6,261.5z M288.4,278.5c0.8,0.3,1.3,1.2,1,2
	c-0.3,0.8-1.2,1.3-2,1c-0.8-0.3-1.3-1.2-1-2c0.2-0.7,0.9-1.1,1.6-1.1C288.1,278.4,288.2,278.5,288.4,278.5z M286.8,272.6
	c0.8,0.3,1.3,1.2,1.1,2c-0.3,0.8-1.2,1.3-2,1c-0.9-0.3-1.3-1.2-1.1-2c0.2-0.7,0.9-1.1,1.6-1.1C286.5,272.5,286.7,272.5,286.8,272.6z
	 M286.3,268.4c-0.3,0.9-1.2,1.3-2,1.1c-0.8-0.3-1.3-1.2-1-2c0.2-0.7,0.9-1.1,1.6-1.1c0.1,0,0.3,0,0.4,0.1
	C286.1,266.7,286.6,267.6,286.3,268.4z M325,259.2l0.8-8.3c-3.4-0.3-7-0.4-10.5-0.4c-9.5,0-18.9,1-27.9,3l1.7,8
	c8.1-1.7,16.5-2.7,25-2.7C317.8,258.7,321.4,258.9,325,259.2z M275.3,504.1c0.6,1.6,1.2,3.2,1.8,4.7c0.2-1.3,0.4-2.5,0.6-3.7
	C276.9,504.8,276.1,504.4,275.3,504.1z M315.3,250c3.6,0,7.1,0.1,10.5,0.4l0.7-7.5c-3.3-0.2-6.6-0.4-9.9-0.4
	c-10.8,0-21,1.1-30.8,3.2l1.5,7.2C296.4,251.1,305.8,250,315.3,250z M313.1,269.5c3.6,0,7.2,0.2,10.8,0.5l1.1-10.5
	c-3.6-0.3-7.2-0.5-10.8-0.5c-8.5,0-16.9,0.9-24.9,2.6l2.1,10.1C298.4,270.3,305.7,269.5,313.1,269.5z M301,542.6l-3.2,2.2
	c1.1,1.3,2.2,2.6,3.3,3.9l2.2-1.8C302.4,545.5,301.7,544.1,301,542.6z M311.7,289.4c18,0,34.8,5.2,49.1,14.2v-10.5
	c-14.3-7.9-30.7-12.3-48.2-12.1c-16.1,0.2-32.8,4.7-48,13.1v9.3C279.2,294.3,295.5,289.4,311.7,289.4z M322.8,279.9l1-9.5
	c-3.5-0.3-7.1-0.5-10.7-0.5c-7.4,0-14.7,0.8-21.7,2.2l2,9.6c6.4-1.4,12.9-2.1,19.2-2.2C316,279.4,319.5,279.6,322.8,279.9z
	 M296.2,394.2c0.1,0.1,0.1,0.2,0.2,0.3c-1.1-2.3-1.3-4.9-0.4-7.2c0.9-2,2.7-3.9,5.5-5.2c-5.8,1.2-9.8,4.5-12.1,8.7
	c-0.1,0.1-0.1,0.1-0.1,0.2C291.9,390.9,294.8,392.1,296.2,394.2z M303.5,547.2l-2.1,1.7c1.1,1.2,2.2,2.4,3.4,3.6l1.4-1.4
	C305.2,549.9,304.3,548.6,303.5,547.2z M303.6,382.7c-0.8,0.7-1.4,1.6-1.7,2.5L303.6,382.7z M338.3,568.1c-1.7-0.1-3.4-0.4-5-0.7
	l-1.2,6c0.7,0.4,1.4,0.8,2,1.2c1.2,0,2.3,0.1,3.5,0.1L338.3,568.1z M336.9,576.1c3.3,1.7,6.7,3.3,10.1,4.8c-1.1-1.7-2.1-3.4-2.9-5.2
	C341.7,576,339.4,576.1,336.9,576.1z M306.4,341.8c0-1.8-0.8-3.5-2.7-4.3c-2.9-0.4-5.9-0.7-9-0.7c-1.1,0-2.3,0-3.5,0.1
	c3.5,2.5,3.2,8.5-0.7,11.1c-0.5,0.3-1,0.6-1.6,0.8c1.9-0.3,3.7-0.5,5.6-0.5c1.1,0,2.2,0,3.3,0.1c-0.3-0.1-0.5-0.2-0.8-0.3
	c-2-0.8-3.4-2.6-2.9-5.2c0.5-2.5,2.6-3.5,4.3-3.4c0.7,0,1.3,0.2,1.7,0.6c0.5,0.4,0.8,1,0.9,1.7c0.1,0.8-0.2,1.6-0.8,2.2
	c-0.6,0.5-1.4,0.8-2.4,0.5c-0.2-0.1-0.1-0.4,0.1-0.4c0.8,0.3,1.5,0,2-0.5c0.5-0.5,0.7-1.2,0.6-1.9c-0.1-0.7-0.4-1.1-0.8-1.5
	c-0.4-0.3-0.9-0.5-1.5-0.5c-1.5-0.1-3.5,0.9-3.9,3.2c-0.5,2.4,0.8,4,2.7,4.8c1.9,0.8,4.4,0.6,6.3-0.6
	C305.3,345.9,306.4,343.8,306.4,341.8z M325.2,357c-1.7,0.3-3.4,0.1-4.8-0.5c10.2,6.8,14.1,16.1,13.6,24.7
	c-0.5,10.2-7,19.3-15.9,21.5c-9.7,2.4-17.7-1.6-21-6.9c-0.1-0.2-0.2-0.4-0.4-0.6c0.7,1.6,0.6,3.1,0,4.3c-0.7,1.5-2.2,2.5-4,2.5
	c-1.3,0-2.4-0.5-3.1-1.2c-0.7-0.7-1-1.7-0.7-2.7c0.3-0.8,0.8-1.4,1.6-1.6c0.7-0.2,1.6-0.1,2.5,0.5c0.2,0.1,0,0.5-0.2,0.3
	c-0.8-0.5-1.5-0.7-2.1-0.4c-0.6,0.2-1.1,0.7-1.3,1.4c-0.3,0.8,0,1.7,0.6,2.3c0.6,0.6,1.6,1.1,2.8,1.1c1.7,0,3.1-0.9,3.7-2.3
	c0.7-1.4,0.6-3.1-0.5-4.9c-1.3-2-4.2-3.1-6.8-2.9c-2.3,4.8-2.5,10.7-0.1,16c0.6,1.3,1.2,2.5,2,3.6c-0.1-0.4-0.1-0.8-0.2-1.2
	c-0.4-5.5,3.5-8.9,7.5-9.4c2.7-0.4,5.6,0.8,7,3c1.2,1.9,1.3,3.8,0.6,5.3s-2.2,2.5-4,2.5c-1.3,0-2.4-0.5-3.1-1.2
	c-0.7-0.7-1-1.7-0.7-2.7c0.3-0.8,0.8-1.4,1.6-1.6c0.7-0.2,1.6-0.1,2.4,0.5c0.2,0.1,0,0.4-0.2,0.3c-0.8-0.6-1.5-0.7-2.1-0.5
	c-0.6,0.2-1.1,0.7-1.3,1.4c-0.3,0.8,0,1.6,0.6,2.3c0.6,0.7,1.6,1.1,2.8,1.1c1.7,0,3.1-1,3.7-2.3c0.7-1.3,0.6-3.1-0.5-4.9
	c-1.3-2-4-3.2-6.6-2.9c-3.9,0.5-7.6,3.7-7.2,9c0.1,0.8,0.1,1.4,0.4,2.1c3.9,5.1,9.6,8,16,8.8c1.9,0.2,3.7,0.3,5.7,0.2
	c-4.4-0.8-7.6-4-7.8-8c-0.4-5.5,3.5-8.9,7.5-9.4c2.8-0.4,5.6,0.8,7,3c1.2,1.9,1.3,3.8,0.5,5.3c-0.7,1.5-2.2,2.5-4,2.5
	c-1.3,0-2.4-0.5-3.1-1.2c-0.7-0.7-1-1.7-0.7-2.7c0.3-0.8,0.8-1.4,1.6-1.6c0.7-0.2,1.6-0.1,2.5,0.5c0.2,0.1,0,0.4-0.2,0.3
	c-0.8-0.5-1.5-0.7-2.1-0.5c-0.6,0.2-1.1,0.7-1.3,1.4c-0.3,0.8,0,1.6,0.6,2.3c0.6,0.7,1.6,1.1,2.8,1.1c1.7,0,3.1-0.9,3.7-2.3
	c0.7-1.3,0.6-3.1-0.5-4.9c-1.3-2-4-3.2-6.7-2.9c-3.8,0.5-7.5,3.7-7.2,9c0.3,4.3,4.2,7.8,9.4,7.8c5-0.6,10.2-2.2,15-4.9
	c-2.4,0-4.9-1-7-3.2c-1.6-1.7-2.5-4.5-2.3-7.1c0.2-2.6,1.8-5.1,5-6.1c0.5-0.2,1.1-0.3,1.6-0.3c1.6-0.1,2.9,0.3,3.9,1.1
	c1.3,1.1,2,2.8,1.8,4.6c-0.3,2.6-3.1,3.9-4.9,2.7c-0.8-0.5-1.3-1.1-1.4-1.9c-0.1-0.8,0.3-1.6,1.1-2.3c0.2-0.1,0.4,0.1,0.2,0.3
	c-0.7,0.6-1,1.3-1,1.9c0.1,0.7,0.5,1.3,1.2,1.7c1.6,1,4.2-0.1,4.4-2.5c0.2-1.7-0.5-3.3-1.7-4.2c-1.2-1-3.1-1.4-5.2-0.7
	c-3.1,1-4.5,3.3-4.8,5.8c-0.3,2.5,0.7,5.2,2.2,6.8c2.3,2.3,4.9,3.2,7.4,3.1c0.7-0.4,1.4-0.8,2.1-1.3c5.5-3.7,9.3-8.5,11.6-14
	c-3.3,3.2-9.2,3.5-12.5,0c-1.7-1.9-2.1-4.7-1.3-6.9c0.7-2,2.2-3.5,4.5-3.7c0.3,0,0.7,0,1,0c2.2,0.2,3.5,1.7,3.8,3.3
	c0.2,1.6-0.6,3.2-2.3,3.8c-0.8,0.2-1.6,0.1-2.2-0.5c-0.6-0.5-0.9-1.4-0.7-2.4c0.1-0.2,0.4-0.2,0.4,0.1c-0.2,0.9,0.1,1.6,0.5,2
	c0.5,0.4,1.2,0.6,1.9,0.4c1.6-0.5,2.3-1.9,2-3.4c-0.2-1.4-1.3-2.8-3.4-3c-2.6-0.3-4.4,1.3-5.1,3.4c-0.7,2.1-0.4,4.8,1.3,6.6
	c3.3,3.6,9.6,3.1,12.6-0.7c1.5-3.8,2.3-7.9,2.5-12.1c-0.9,1.7-2.6,2.8-4.6,3.1c-2.5,0.4-5.4-0.3-7.3-2.5c-1.6-1.8-1.9-4.4-1.1-6.5
	c0.8-2.1,2.6-3.7,5.2-3.5c2.2,0.2,3.3,1.6,3.5,3.1c0.2,1.5-0.5,3.1-2.2,3.5c-0.8,0.2-1.6,0-2.2-0.4c-0.6-0.5-0.9-1.3-0.5-2.2
	c0.1-0.2,0.4-0.1,0.3,0.1c-0.4,0.8-0.1,1.4,0.4,1.8c0.5,0.4,1.2,0.5,1.9,0.4c1.4-0.4,2.1-1.7,1.9-3.1c-0.2-1.4-1.2-2.6-3.2-2.8
	c-2.4-0.2-4.1,1.3-4.9,3.3c-0.7,2-0.5,4.4,1,6.1c1.8,2,4.6,2.8,7,2.3c2.2-0.4,4.2-1.7,4.7-3.9c0.1-3.8-0.4-7.7-1.3-11.4
	c-1.2,2.2-4.3,3.6-7.8,2.8c-2.8-0.6-4.6-2.5-5.2-4.7c-0.6-2.1,0.1-4.5,2.2-6c1-0.7,2.1-0.9,3.1-0.7c1,0.2,1.8,0.7,2.4,1.3
	c0.5,0.5,0.8,1.1,0.8,1.7c0.1,0.6-0.1,1.2-0.6,1.8c-0.4,0.7-1.2,1-2,1c-0.8,0-1.6-0.4-2.1-1.3c-0.1-0.2,0.2-0.4,0.3-0.2
	c0.4,0.8,1.1,1.1,1.7,1.1c0.7,0,1.4-0.3,1.8-0.8c0.4-0.6,0.5-1.1,0.5-1.6c0-0.5-0.3-1-0.7-1.4c-1-1.1-3.1-1.8-5-0.5
	c-2,1.4-2.6,3.6-2.1,5.6c0.5,2,2.2,3.8,4.9,4.4c3.6,0.8,6.7-0.8,7.6-3c-1.2-4.7-3.1-9.2-5.5-13.3c0.1,3.1-3.4,6.2-8.1,5.1
	c-2.8-0.6-4.6-2.5-5.3-4.6c-0.6-2.1,0-4.5,2.1-5.9c1-0.7,2.1-0.9,3.1-0.7c1,0.2,1.8,0.7,2.4,1.3c0.5,0.5,0.7,1.1,0.8,1.7
	c0.1,0.6-0.1,1.2-0.5,1.8c-0.4,0.7-1.3,1-2,1c-0.8,0-1.6-0.4-2.1-1.3c-0.1-0.2,0.2-0.4,0.3-0.2c0.4,0.8,1.1,1.1,1.8,1.1
	c0.7,0,1.4-0.3,1.7-0.9c0.4-0.5,0.5-1.1,0.5-1.6c-0.1-0.5-0.3-1-0.7-1.4c-1-1.1-3.1-1.8-5-0.5c-2,1.4-2.6,3.6-2,5.5
	c0.6,2,2.3,3.7,5,4.3c4.9,1.1,8.2-2.4,7.6-5.5c-1-1.5-2.1-3-3.2-4.4c-1.9-2.3-4.1-4.5-6.5-6.4C331.4,352,329.8,356.1,325.2,357z
	 M281,343.5c0.5-2.5,2.6-3.5,4.3-3.4c0.7,0,1.3,0.2,1.7,0.6c0.5,0.4,0.8,1,0.9,1.7c0.1,0.8-0.2,1.6-0.7,2.2
	c-0.6,0.6-1.4,0.9-2.4,0.6c-0.2-0.1-0.1-0.4,0.1-0.4c0.8,0.3,1.5,0,2-0.5c0.5-0.5,0.8-1.2,0.7-1.9c-0.1-0.7-0.4-1.1-0.8-1.5
	c-0.4-0.3-0.9-0.5-1.5-0.5c-1.5-0.1-3.5,0.9-3.9,3.2c-0.5,2.4,0.8,4,2.7,4.8c1.9,0.8,4.4,0.7,6.3-0.6c3.8-2.5,4-8.6,0.3-10.8
	c-4.6,0.3-9.4,1.1-14.3,2.5c2.4,0.9,3.8,2.9,4.2,5.1c0.4,2.5-0.4,5.2-2.5,7c-0.3,0.3-0.7,0.5-1,0.8c3.2-1.4,6.5-2.5,9.9-3.2
	c-1,0-2-0.1-2.9-0.5C281.9,347.9,280.5,346,281,343.5z M306.5,344.6c0.9-2.3,3.2-3,4.9-2.6c0.7,0.2,1.2,0.5,1.6,0.9
	c0.4,0.5,0.6,1.1,0.6,1.8c0,0.8-0.5,1.6-1.1,2c-0.7,0.5-1.6,0.6-2.4,0.1c-0.2-0.1-0.1-0.4,0.2-0.3c0.7,0.4,1.5,0.3,2-0.1
	c0.6-0.4,1-1,1-1.7c0-0.7-0.2-1.2-0.5-1.6c-0.3-0.4-0.8-0.7-1.4-0.8c-1.5-0.3-3.6,0.2-4.4,2.4c-0.9,2.3,0.1,4.1,1.8,5.2
	c1.7,1.1,4.2,1.4,6.3,0.5c2.1-0.9,3.5-2.8,3.9-4.8c0.3-1.7-0.3-3.4-1.9-4.5c-3.8-1.6-7.8-2.7-12.1-3.5c1.3,1,2,2.5,2,4.1
	c0,2.1-1.1,4.3-3.1,5.6c-1,0.6-2.1,1-3.3,1.1c2.9,0.3,5.7,1,8.4,1.9c-0.1-0.1-0.2-0.1-0.3-0.2C306.6,349.1,305.5,347,306.5,344.6z
	 M313.9,558.9l-0.9,1.3c0,0,0,0,0,0c1.3,1.1,2.7,2.2,4.1,3.2l0.9-1.7C316.6,560.8,315.2,559.9,313.9,558.9z M328.2,566.2l-1.2,4.1
	c1.6,1,3.2,2,4.8,2.9l1.2-5.9C331.4,567,329.8,566.7,328.2,566.2z M306.4,551.4l-1.4,1.4c1.2,1.2,2.5,2.4,3.8,3.6l1-1.2
	C308.5,554,307.4,552.7,306.4,551.4z M312.6,557.8c-0.9-0.7-1.7-1.5-2.6-2.3l-1,1.2c1.2,1.1,2.5,2.2,3.8,3.3l0.9-1.3
	C313.3,558.4,312.9,558.1,312.6,557.8z M318.3,561.9l-0.9,1.7c1.4,1.1,2.8,2.1,4.2,3.1l1.1-2.6C321.2,563.4,319.7,562.7,318.3,561.9
	z M323,564.3l-1.1,2.7c1.6,1.1,3.2,2.2,4.8,3.2l1.2-4C326.2,565.6,324.6,565,323,564.3z M322.7,522.1c0.1,0.6,0.1,1.2,0.2,1.7
	l8.7-7.6c0-0.1,0-0.3,0-0.4l-5.1-7.4c-0.7,0.9-1.3,1.9-1.9,3l2.6,4.2c0.1,0.1,0,0.2,0,0.2l-4.6,4
	C322.6,520.4,322.6,521.3,322.7,522.1z M394.7,548.3c1.9-0.9,3.8-1.9,5.6-2.8l-5.7-7.5c-1.6,1.4-3.1,2.7-4.7,4.1L394.7,548.3z
	 M382.7,538.3l-0.4-14.5c-3.7,3.9-8.2,6.8-13,8.6l13.2,6.1C382.5,538.4,382.6,538.4,382.7,538.3z M366.1,557.6
	c-4,1.6-8.6,2.7-13.4,3.2c12.3-0.3,24.3-4.4,35.4-9.4l-4-4.6C378.5,551.3,372.6,555,366.1,557.6z M339.6,420.9
	c-1.1,0.9-2.3,1.6-3.5,2.4l8.9,16.5c1.4-1.1,2.8-2.3,4.1-3.7c-0.1-0.4-0.1-0.9-0.1-1.3L339.6,420.9z M358.7,548.4l8.7-15.3
	c-0.9,0.3-1.8,0.5-2.6,0.8c-4.8,1.2-9.8,1.2-14.4,0.3l8.2,14.3C358.6,548.4,358.7,548.4,358.7,548.4z M365.3,547.5l5.1-8.9
	c0.1-0.1,0.1-0.1,0.2-0.1c0,0,0.1,0,0.1,0l7.7,3.3c1.3-0.9,2.5-1.9,3.7-2.9l-13.5-6.2c-0.1,0.1-0.2,0.1-0.4,0.1l-8.8,15.6
	C361.4,548.2,363.4,547.9,365.3,547.5z M365.8,547.3c1.5-0.4,3-0.8,4.5-1.3c2.8-1,5.3-2.3,7.7-3.9l-7.4-3.1L365.8,547.3z
	 M397.5,549.4c1-0.8,2-1.5,3-2.2c-1.1,0.6-2.3,1.3-3.5,1.9L397.5,549.4z M394.4,548.5l-4.8-6.1c-1.7,1.4-3.5,2.9-5.2,4.3l4.1,4.6
	C390.4,550.4,392.4,549.5,394.4,548.5z M416.6,592.6c1.8-0.9,3.5-2,5.1-3.2c-2.3-1.2-4.5-2.7-6.4-4.5c-1-1-1.9-2-2.8-3.2
	c-0.7,0.3-1.5,0.5-2.2,0.8L416.6,592.6z M365.7,584c1.7,1.7,3.6,3.3,5.6,4.8l7.6-10.7c-1.3-1-2.5-2-3.6-3.1L365.7,584z M375.5,565.6
	c-1.4,0.7-2.8,1.4-4.2,2.1c7.1,13,23.3,19.4,40.5,13.1c-1-1.4-1.9-3.1-2.6-4.8C395.9,580.9,381.4,575.6,375.5,565.6z M391.2,552.3
	l1.1,0.9c1.7-1.2,3.2-2.4,4.8-3.6l-0.5-0.4C394.8,550.3,393,551.3,391.2,552.3z M385.6,555.4l1.5,1.5c1.4-1,2.9-2,4.3-3
	c0.2-0.2,0.4-0.3,0.6-0.4l-1.1-1C389,553.5,387.2,554.5,385.6,555.4z M409.1,575.6c-1.1-2.8-1.9-6-2.2-9.5c-0.6,1.2-1.4,2.3-2.4,3.1
	c-1.9,1.6-4.4,2.4-6.8,2.4c-2.5,0-4.9-0.8-6.7-2.3c-1.8-1.6-3-3.9-2.9-7c0-2.1,0.7-3.9,1.7-5.4c-4.5,3.1-9.1,6-13.8,8.5
	C381.7,575.2,395.9,580.5,409.1,575.6z M335.8,543.4l12.8-9.6c-1.7-0.4-3.4-1-4.9-1.7c-2.5-1.1-4.7-2.5-6.5-4.2L335.8,543.4
	C335.8,543.4,335.8,543.4,335.8,543.4z M326.9,507.8l4.8,7c0.1-2,0.7-3.9,1.6-5.4c0.6-1,1.3-1.9,2-2.6l-8.2,0.8
	C327,507.7,326.9,507.8,326.9,507.8z M345.3,502.9c-1.6-0.8-3.4-1.3-5.5-1.4c-2.1,0-4.4,0.5-6.7,1.5c-2.1,1-4,2.3-5.5,4l8.4-0.8
	c3.7-3.1,8.5-3.2,11.9-1.2C347.2,504.2,346.3,503.5,345.3,502.9z M365.2,563.1c5.4-2,10.7-4.2,15.6-6.6c3-1.4,7.6-4,12.4-6.7
	c-15.8,7.6-33.8,14.2-52,10.8c-3-0.4-6-1.2-8.9-2.4c-0.2-0.1-0.3-0.2-0.3-0.3c-25.4-10.1-30-42.7-9.8-57.7c5.1-3.8,10.8-5,15.7-4.8
	c1.6,0.1,3.2,0.3,4.6,0.7c7.4,1.9,11.7,7.6,11.7,14.4c0,4-2.6,6.9-5.4,7.6c-1.4,0.4-2.9,0.2-4.2-0.7c-0.8-0.6-1.5-1.6-2-2.9
	c-0.3,3.4,1.4,5.8,4.1,7c3.1,1.5,7.6,1.4,11.4-0.7c8.3-4.6,9.9-14.7,6.3-22.6c-3.5-7.5-12-13.5-23.8-13.5c-2.7,0-5.6,0.3-8.7,1
	c-19,4.4-27.9,17.9-30.1,32.4c-2.1,14,2,28.8,9.4,37c0.6,0.6,1.2,1.1,1.9,1.6C325.8,567.4,344.6,570.6,365.2,563.1z M345.1,516.8
	c1,0.8,2.3,0.9,3.5,0.6c2.5-0.6,4.9-3.2,4.9-6.9c0-6.4-4-11.8-11.2-13.7c-1.7-0.4-3.6-0.7-5.7-0.7c-4.5,0-9.5,1.3-14.1,4.7
	c-19.7,14.7-15.2,46.5,9.7,56.4c0.1-0.1,0.3-0.1,0.5,0c11,4.4,23.8,2.9,33-0.7c9.6-3.7,17.8-10.4,26-17.5c-0.8-0.4-1.6-1.1-2.4-1.9
	c-0.7-0.7-1.3-1.6-1.7-2.4c-4.3,5.8-10.2,10.1-17,12.6c-10.1,3.6-21.8,3.6-31.4-0.5c-9.6-4.1-17-12.3-18.1-24.6
	c-0.7-8.5,3.4-16.9,11.2-20.5c5-2.3,10-2.1,13.6-0.1c3.6,2,5.7,5.8,5,10.3c-0.4,2.1-2,3.8-4,4.2c-1,0.2-2.1,0.1-3.1-0.5
	C344.3,516.1,344.7,516.5,345.1,516.8z M366.3,551c0.8,0,1.4,0.6,1.4,1.4c0,0.7-0.6,1.4-1.4,1.4c-0.7,0-1.3-0.6-1.3-1.4
	C365,551.6,365.6,551,366.3,551z M359.8,551.9c1.2,0,2.2,1,2.2,2.2c0,1.2-1,2.2-2.2,2.2c-1.2,0-2.2-1-2.2-2.2
	C357.6,552.9,358.6,551.9,359.8,551.9z M351.3,551.7c1.7,0,3.1,1.4,3.1,3.1c0,1.7-1.4,3.1-3.1,3.1c-1.7,0-3.1-1.4-3.1-3.1
	C348.2,553.1,349.6,551.7,351.3,551.7z M318.3,509.5c1,0,1.8,0.8,1.8,1.8c0,1-0.8,1.8-1.8,1.8c-1,0-1.8-0.8-1.8-1.8
	C316.5,510.4,317.3,509.5,318.3,509.5z M316.4,515.9c1.4,0,2.6,1.2,2.6,2.6c0,1.5-1.2,2.6-2.6,2.6c-1.5,0-2.6-1.2-2.6-2.6
	C313.7,517,314.9,515.9,316.4,515.9z M313.3,527.2c0-1.7,1.4-3.2,3.2-3.2c1.7,0,3.1,1.4,3.1,3.2c0,1.7-1.4,3.1-3.1,3.1
	C314.7,530.3,313.3,528.9,313.3,527.2z M341.7,550.3c1.9,0,3.5,1.6,3.5,3.5c0,1.9-1.6,3.5-3.5,3.5c-1.9,0-3.5-1.6-3.5-3.5
	C338.3,551.8,339.8,550.3,341.7,550.3z M332.1,546.6c2,0,3.6,1.6,3.6,3.6c0,2-1.6,3.6-3.6,3.6c-2,0-3.6-1.6-3.6-3.6
	C328.5,548.2,330.1,546.6,332.1,546.6z M328,544.2c0,2-1.6,3.6-3.6,3.6c-2,0-3.6-1.6-3.6-3.6s1.6-3.6,3.6-3.6
	C326.3,540.7,328,542.3,328,544.2z M322.4,536.2c0,1.9-1.6,3.5-3.5,3.5c-1.9,0-3.5-1.6-3.5-3.5c0-1.9,1.6-3.5,3.5-3.5
	C320.9,532.7,322.4,534.2,322.4,536.2z M367.9,587.9c-4.8-3.9-8.5-8.9-10.7-14.8c-4.1,1.2-8.3,2-12.5,2.5c0.9,2,2,3.9,3.3,5.7
	c5,2.1,10.2,3.9,15.5,5.4C365,587.1,366.4,587.5,367.9,587.9z M341,545.9c3.7,1.4,7.8,2.3,12,2.5l-4.8-8L341,545.9z M349,568
	c-1.7,0.2-3.4,0.3-5.1,0.3v6c1.9-0.2,3.7-0.5,5.6-0.8L349,568z M338.1,574.6c1.9,0,3.7-0.1,5.5-0.3v-6c-1.7,0-3.3-0.1-4.9-0.2
	L338.1,574.6z M330.8,539.6l1-7.8l-7.2-1.2C326.1,534.1,328.2,537.1,330.8,539.6z M322.7,519.2l4.2-3.7l-2.4-3.8
	C323.4,514,322.8,516.5,322.7,519.2z M372.1,571.1l-11,6.8c1.2,2.1,2.7,4,4.4,5.8l9.6-9C374,573.6,373,572.4,372.1,571.1z
	 M324.5,530.2l7.5,1.2c0.1,0,0.2,0.1,0.2,0.2l-1.1,8.3c1.3,1.2,2.7,2.2,4.2,3.2l1.4-15.6c-0.1-0.1-0.2-0.2-0.3-0.3l-13.4-2.1
	C323.4,526.9,323.9,528.6,324.5,530.2z M332.3,281.2l4.7-37.1c-3.1-0.5-6.3-0.8-9.5-1.1l-3.8,36.9
	C326.6,280.3,329.5,280.7,332.3,281.2z M330.5,245.9c0.3-0.4,0.8-0.6,1.3-0.6c0.4,0,0.7,0.1,1,0.4c0.7,0.6,0.8,1.6,0.2,2.3
	c-0.5,0.7-1.6,0.8-2.3,0.2C330.1,247.7,330,246.6,330.5,245.9z M329.9,251.6c0.3-0.4,0.8-0.6,1.3-0.6c0.4,0,0.7,0.1,1,0.4
	c0.7,0.6,0.8,1.6,0.2,2.3c-0.6,0.7-1.6,0.8-2.3,0.2C329.5,253.3,329.3,252.3,329.9,251.6z M329.1,257.5c0.3-0.4,0.8-0.6,1.3-0.6
	c0.4,0,0.7,0.1,1,0.4c0.7,0.6,0.8,1.6,0.2,2.3c-0.6,0.7-1.6,0.8-2.3,0.3C328.7,259.2,328.6,258.2,329.1,257.5z M328.5,263.6
	c0.3-0.4,0.8-0.6,1.3-0.6c0.4,0,0.7,0.1,1,0.4c0.7,0.6,0.8,1.6,0.2,2.3c-0.6,0.7-1.6,0.8-2.3,0.2C328,265.3,327.9,264.3,328.5,263.6
	z M327.7,269.9c0.3-0.4,0.8-0.6,1.3-0.6c0.4,0,0.7,0.1,1,0.4c0.7,0.6,0.8,1.6,0.2,2.3c-0.5,0.7-1.6,0.8-2.3,0.2
	C327.3,271.7,327.2,270.7,327.7,269.9z M328.3,275.4c0.4,0,0.7,0.1,1,0.4c0.7,0.6,0.8,1.6,0.2,2.3c-0.5,0.7-1.6,0.8-2.3,0.2
	c-0.7-0.6-0.8-1.6-0.2-2.3C327.4,275.7,327.8,275.4,328.3,275.4z M331.6,516.8l-8.7,7.6c0,0,0,0.1,0,0.1l12.9,2c-2-2.3-3.5-4.9-4-8
	C331.8,518,331.7,517.4,331.6,516.8z M339.9,545.5c0.2,0.1,0.5,0.2,0.7,0.3l7.6-5.7c0,0,0.1,0,0.1,0c0.1,0,0.1,0,0.2,0.1l5,8.4
	c1.5,0.1,3,0.1,4.5,0l-8.3-14.5c-0.1,0-0.1,0-0.2,0l-13,9.8C337.5,544.4,338.7,545,339.9,545.5z M334.2,466.6l-2-9.9
	c-1.8,0.2-3.6,0.5-5.4,0.9l3.2,10.7C331.4,467.7,332.8,467.1,334.2,466.6z M338.7,465.2l-0.9-9c-1.7,0.1-3.5,0.2-5.2,0.4l2,9.8
	C335.9,466,337.3,465.6,338.7,465.2z M329.7,468.4l-3.3-10.8c-1.7,0.4-3.5,0.8-5.2,1.3l4.7,11.3C327.2,469.6,328.4,469,329.7,468.4z
	 M325.6,470.5l-4.7-11.4c-1.4,0.4-2.8,0.9-4.2,1.4c-0.4,0.2-0.8,0.3-1.3,0.5l6.4,11.8C323,471.9,324.3,471.2,325.6,470.5z
	 M317.8,475.6l-8.1-12.1c-1.7,0.9-3.4,1.9-4.9,2.9l9.8,11.9C315.6,477.3,316.7,476.4,317.8,475.6z M321.5,473l-6.4-11.9
	c-1.7,0.7-3.4,1.4-5.1,2.3l8.1,12C319.2,474.5,320.3,473.7,321.5,473z M343.6,464.2v-7.9c-1.3-0.1-2.6-0.1-3.9-0.1c-0.5,0-1,0-1.5,0
	l0.9,8.9C340.5,464.8,342.1,464.5,343.6,464.2z M354,463.5c1.6,0.1,3.1,0.2,4.7,0.4l1.3-4.4c-1.6-0.6-3.2-1.1-4.9-1.5L354,463.5z
	 M348.9,410.5c-0.8,1.2-1.6,2.4-2.5,3.6l3.1,3.1c0.3-1.8,0.6-3.6,1-5.4L348.9,410.5z M343.4,417.5l5.4,6.5c0.1-2.1,0.3-4.2,0.7-6.4
	l-3.3-3.3C345.3,415.5,344.4,416.6,343.4,417.5z M349.5,456.9l-0.6,6.7c1-0.1,2.1-0.1,3.2-0.1c0.5,0,1,0,1.6,0l1.1-5.5
	C353,457.5,351.3,457.2,349.5,456.9z M352.5,450.5c-2.1,1.6-4.4,3.1-6.6,4.5c3.2,0.3,6.3,0.8,9.3,1.6
	C354.1,454.6,353.2,452.6,352.5,450.5z M349.1,456.9c-1.7-0.2-3.4-0.4-5.2-0.5v7.8c1.5-0.2,3-0.4,4.5-0.5L349.1,456.9z M314.3,478.5
	l-9.9-11.9c-1.6,1-3.1,2.2-4.5,3.4l11.4,11.4C312.3,480.4,313.3,479.4,314.3,478.5z M303.1,492.6l-15.7-8.3c-1,1.6-2,3.3-2.8,5.1
	l16.7,6.9C301.8,494.9,302.4,493.7,303.1,492.6z M386.8,557.1l-1.6-1.6c-1.4,0.8-2.8,1.5-3.9,2c-0.3,0.1-0.6,0.3-1,0.4l1.7,2.1
	C383.7,559.1,385.3,558.1,386.8,557.1z M375.2,560.3l1.9,2.8c1.6-0.9,3.2-1.8,4.8-2.8l-1.7-2.1C378.5,558.9,376.8,559.6,375.2,560.3
	z M359.5,566.1c-1.6,0.5-3.3,0.8-4.9,1.1l1,4.8c0.6-0.2,1.2-0.3,1.7-0.5c0.1-0.1,0.2-0.1,0.3-0.1c1.1-0.3,2.1-0.7,3.2-1L359.5,566.1
	z M359.8,566l1.3,4.3c1.7-0.6,3.3-1.2,5-1.9l-1.6-3.9C362.9,565,361.4,565.5,359.8,566z M311.1,481.6l-11.5-11.5
	c-1.5,1.3-3,2.6-4.4,4.1l13.1,10.6C309.2,483.7,310.2,482.6,311.1,481.6z M349.4,568l0.5,5.4c1.7-0.3,3.5-0.7,5.3-1.2l-1-4.9
	C352.6,567.6,351,567.8,349.4,568z M365.6,564.1c-0.2,0.1-0.5,0.2-0.7,0.2l1.6,3.9c1.7-0.7,3.4-1.5,5.2-2.3l-1.8-3.4
	C368.4,563.1,367,563.6,365.6,564.1z M370.1,562.4l1.8,3.4c1.6-0.8,3.2-1.6,4.8-2.5l-1.9-2.8C373.3,561.1,371.7,561.8,370.1,562.4z
	 M305.5,488.7l-14.5-9.6c-1.2,1.6-2.3,3.2-3.4,4.9l15.7,8.3C304,491,304.7,489.8,305.5,488.7z M370.3,568.1
	c-3.9,1.8-7.7,3.3-11.7,4.5c0.6,1.7,1.4,3.4,2.3,5l11-6.8C371.4,569.9,370.8,569.1,370.3,568.1z M308.1,485.1L295,474.5
	c-1.3,1.4-2.6,2.8-3.8,4.3l14.4,9.6C306.4,487.3,307.2,486.2,308.1,485.1z M301.1,496.5l-16.7-6.9c-0.9,1.9-1.7,3.7-2.5,5.7
	l17.6,5.2C300,499.2,300.6,497.8,301.1,496.5z M299.4,500.9l-17.6-5.2c-0.7,1.8-1.3,3.7-1.8,5.6l18.2,3.6
	C298.7,503.5,299,502.2,299.4,500.9z M298.2,505.2l-18.3-3.6c-0.5,2-0.9,4-1.3,6l18.7,1.7c0.2-1,0.4-2,0.5-3
	C298.1,506,298.1,505.6,298.2,505.2z M265.9,229.7c0.1-0.2,0.1-0.4,0.2-0.5c-2.6-0.4-5.1-0.8-7.4-1.2c0.1,0.3,0.2,0.6,0.2,1
	c0,0.7-0.3,1.5-0.8,2.5c-2.3,4-5.5,7.5-8.5,11.2c1.2,0.8,2.4,1.8,3.5,3C260.7,240.3,264.1,235,265.9,229.7z M254.3,227.9
	c0.3-0.2,0.6-0.3,0.8-0.5c-1-0.2-1.9-0.3-2.9-0.5c-2.9-0.5-5.4-0.9-7.4-1.2c-2.6,3-4.8,6.6-6.6,11.1c1.7,0.6,3.6,1.4,5.5,2.5
	C247.1,234.8,250.4,230.6,254.3,227.9z M330.8,300c1.1,3.1,1.6,6.9,1.4,11.3l5.2-17.5c-2.9-0.8-5.8-1.6-8.9-2.1l-0.6,3
	C329.2,296.1,330.1,297.9,330.8,300z M327.7,294.3l0.5-2.7c-1.8-0.3-3.7-0.6-5.5-0.8C324.6,291.4,326.3,292.6,327.7,294.3z
	 M258.2,228.9c0-0.5-0.1-0.8-0.4-1.1c-0.6-0.1-1.1-0.2-1.6-0.3c-0.5,0.1-1,0.4-1.6,0.8c-3.8,2.6-7.1,6.7-10.3,11.2
	c1.5,0.8,3,1.7,4.6,2.7c0,0,0,0,0.1,0c3-3.7,6.2-7.2,8.4-11.1C258,230.2,258.2,229.5,258.2,228.9z M267.2,364.9c1.7,0,3,1.4,3,3
	c0,1.7-1.4,3-3,3c-1.1,0-2.1-0.6-2.6-1.5v5c0.2,0.4,0.4,0.9,0.4,1.5c0,0.5-0.2,1-0.4,1.5v7.4c2-5.7,5.1-10.9,9.1-15.1
	c0-0.1,0.1-0.2,0.2-0.2h0c2.9-2.9,6.4-5.4,10.3-7c5.3-2.3,10.2-3.4,14.7-3.5c7.4-0.2,13.5,2.2,17.8,6c6.9,5.9,9.4,15.2,5.6,22.3
	c-1,1.7-2.2,3.1-3.5,4.2c2.5-1.3,4.2-2.8,4.6-3.3c4.2-4.5,5.7-11.3,2.7-19.9c-3.9-11.2-14.6-17.8-26.9-18.8
	c-1.1-0.1-2.3-0.2-3.5-0.2c-10.9,0-22.4,4.1-31.1,12.9v4.1C265.1,365.5,266.1,364.9,267.2,364.9z M318.9,360.9
	c0.6,0,1.1,0.5,1.1,1.1c0,0.6-0.5,1.1-1.1,1.1c-0.6,0-1.1-0.5-1.1-1.1C317.8,361.4,318.3,360.9,318.9,360.9z M314.5,357
	c0.8,0,1.6,0.7,1.6,1.5c0,0.8-0.7,1.5-1.6,1.5s-1.5-0.7-1.5-1.5C313,357.7,313.7,357,314.5,357z M308.3,353.7c1.1,0,1.9,0.9,1.9,1.9
	c0,1.1-0.9,1.9-1.9,1.9c-1.1,0-1.9-0.8-1.9-1.9C306.4,354.6,307.3,353.7,308.3,353.7z M300.7,351.9c1.3,0,2.3,1,2.3,2.3
	c0,1.3-1.1,2.3-2.3,2.3c-1.3,0-2.3-1-2.3-2.3C298.4,352.9,299.4,351.9,300.7,351.9z M292.2,351.7c1.5,0,2.8,1.2,2.8,2.7
	c0,1.5-1.2,2.7-2.8,2.7c-1.5,0-2.7-1.2-2.7-2.7C289.4,353,290.7,351.7,292.2,351.7z M283.1,353.8c1.7,0,3,1.3,3,3c0,1.7-1.3,3-3,3
	c-1.7,0-3-1.4-3-3C280.1,355.1,281.4,353.8,283.1,353.8z M274.5,358.4c1.7,0,3,1.3,3,3c0,1.7-1.4,3-3,3c-1.7,0-3-1.3-3-3
	C271.5,359.7,272.8,358.4,274.5,358.4z M309.5,290.1v4.6c2.6-2.6,5.5-4.1,8.3-4.5c-2-0.1-4.1-0.2-6.1-0.2
	C311,290.1,310.3,290.1,309.5,290.1z M309.1,296.8c-3.8,4.3-7.2,11.3-9,21.1c0.8-0.1,1.7-0.1,2.5-0.1c1.9-0.1,3.7,0,5.5,0.1
	c1.2-4.8,2.8-8.4,4.5-10.7c1.7-2.4,3.6-3.5,5.4-3.3c1.7,0.2,3.1,1.9,3.9,4.6c0.7,2.7,1,6.4,0.3,11.3c2.5,0.6,5,1.3,7.4,2.2
	c2.3-9.1,2-16.4,0.2-21.5c-1.8-5.2-5.1-8.2-8.8-8.9c-0.5-0.1-1-0.1-1.4-0.1C316.2,291.2,312.5,292.9,309.1,296.8z M285.7,234.8
	c-0.1-0.2-0.4-0.4-0.7-0.5c-0.2-0.1-0.4-0.1-0.7-0.1c-0.2,0-0.5,0-0.8,0.1c-2.3,0.4-6.1,2.3-10.7,6.5c4-1.4,8.1-2.6,12.3-3.6
	C285.8,236,285.9,235.2,285.7,234.8z M317.9,304.4c-0.1,0-0.2,0-0.3,0c-1.4-0.1-3,0.9-4.6,3.1c-1.6,2.2-3.2,5.7-4.4,10.4
	c1.5,0.1,3,0.2,4.5,0.4c2.8,0.3,5.7,0.8,8.4,1.4c0.6-4.8,0.4-8.5-0.3-11C320.6,306,319.3,304.6,317.9,304.4z M349,304.7
	c1.8-0.6,3.6-1,5.2-1.1l1.2-2.3c-2.6-1.4-5.4-2.8-8.2-4l-4.5,10.7C344.9,306.5,347,305.4,349,304.7z M331.1,320
	c3.7-5.2,7.5-9,11.2-11.7l4.7-11.2c-3-1.2-6-2.3-9.1-3.2l-5.7,18.9C332,315.1,331.6,317.5,331.1,320z M274,231.8
	c0.2-0.5,0.5-0.9,0.7-1.4c-2.9-0.4-5.7-0.8-8.3-1.2c-0.1,0.2-0.1,0.4-0.2,0.6c-1.8,5.5-5.3,10.7-13,16c0.7,0.7,1.4,1.5,2,2.4
	c2.5-1.2,5-2.4,7.5-3.5C267.9,241,271.7,236.5,274,231.8z M335.8,260.7c9.1,1.7,17.8,4.4,26,8.1c0.5-3.2,1.1-6.1,1.9-8.6
	c-8.5-3.6-17.5-6.3-26.9-7.9L335.8,260.7z M333.2,281.4c9.4,1.9,18.3,5.1,26.5,9.4l1.1-1.8v-4.3c0-1.3,0-2.6,0.1-3.8
	c-8.3-4-17.2-7.1-26.5-8.9L333.2,281.4z M348.2,236.4c6,1.3,11.8,3,17.5,5c-0.3-4.4-0.9-8.8-1.6-13.1c-2.5,0.4-5.2,0.8-8,1.2
	C354,232.1,351.5,234.4,348.2,236.4z M373.2,244.4c-0.2-5.8-0.8-11.6-1.8-17.3c-2.1,0.4-4.3,0.7-6.6,1.1c0.8,4.5,1.3,9,1.6,13.5
	C368.7,242.5,371,243.4,373.2,244.4z M367.7,251.6c1.5-2.5,3.2-4.7,5-6.4c-8.2-3.5-16.8-6.2-25.7-8.1c-0.1,0-0.2,0-0.3-0.1
	c-9.2-1.9-18.7-2.9-28.5-2.9c-3.1,0-6.1,0.1-9.1,0.3c-0.1,0-0.1,0-0.2,0c-16.1,1.1-31.5,4.9-45.7,11c0,0-0.1,0-0.1,0.1
	c-0.1,0.1-0.2,0.1-0.3,0.1c-2.4,1-4.7,2.2-7,3.3c1.1,1.5,2.1,3.2,3.1,5c17.3-8.2,36.7-12.3,57.7-12.3
	C334.8,241.5,352,245.1,367.7,251.6z M360.8,291.4v-0.7l-0.3,0.5C360.6,291.3,360.7,291.4,360.8,291.4z M266.1,243.2
	c1.8-0.7,3.6-1.4,5.5-2.1c5.1-4.8,9.2-7,11.9-7.4c0.3-0.1,0.6-0.1,0.9-0.1c0.3,0,0.5,0.1,0.8,0.1c0.5,0.1,0.8,0.4,1,0.8
	c0.3,0.6,0.2,1.4-0.3,2.4c2.9-0.7,5.9-1.3,8.9-1.8c0.9-0.7,1.7-1.4,2.4-2.1c-5.7-0.4-11.3-1-17.1-1.8c-1.5-0.2-3.1-0.4-4.5-0.7
	c-0.2,0.6-0.5,1.1-0.8,1.7C272.9,236.2,269.9,240,266.1,243.2z M238.7,224.9c-1,0-2,0.2-3,0.5c-0.9,2.5-1.7,5.3-2.3,8.5
	c1,1.1,2.4,2,4.3,2.7c0.1,0,0.2,0.1,0.4,0.1c1.8-4.4,3.9-8,6.5-11C241.4,225.2,239.5,224.9,238.7,224.9z M331.8,232.7
	c-2.8,0.2-5.5,0.4-8.3,0.6c1.5,0.1,2.9,0.1,4.4,0.2C329.3,233.3,330.6,233,331.8,232.7z M346.9,236.1c3.3-1.8,5.8-4,7.8-6.4
	c-3.2,0.5-6.6,1-10.2,1.5c-3.7,0.5-7.5,1-11.2,1.3c-1.2,0.4-2.4,0.8-3.8,1.1C335.5,234.1,341.3,234.9,346.9,236.1z M295.6,235
	c4.2-0.7,8.4-1.2,12.7-1.5c-3.5-0.1-7.1-0.2-10.6-0.5C297.1,233.7,296.4,234.3,295.6,235z M354.7,303.5c2.2-0.1,4.3,0.3,6.2,1v-0.1
	c-1.7-1.1-3.3-2.1-5.1-3L354.7,303.5z M280.2,296.5c0.3-0.1,0.6-0.1,1-0.2l-0.1-0.4c-2.8,1.1-5.5,2.3-8.2,3.6l0.6,1.5
	C275.4,298.6,277.7,297.1,280.2,296.5z M356.3,324.6c0.4-2.9-0.3-5.1-1.7-6.2c-0.8-0.6-1.8-1-3.1-0.9c-1,0-2.1,0.3-3.3,0.8
	c-2.7,1.1-5.9,3.6-9.4,7.7c4.7,2.4,9.1,5.4,13.2,8.8C354.6,330.8,356,327.4,356.3,324.6z M291.6,299.8l-1.3-6.8
	c-2.9,0.8-5.9,1.7-8.8,2.8l0.1,0.4C284.9,295.9,288.5,297,291.6,299.8z M319.1,328.8c-6.5-2-13.4-3.2-20.5-3.2
	c-11.1-0.1-22.7,2.5-34.1,8.5v1.4c8.4-3.7,17.1-5.3,25.4-5.3c11.8-0.1,21.9,1.8,30.4,5.1c29.5,11.5,39.4,40.3,33.7,62.7l0.7,0.3
	c1.7-4,3.7-8,6-12v-21.2C353.5,348.4,338,334.8,319.1,328.8z M308.3,296.1c0.3-0.3,0.6-0.7,0.9-1v-5c-3.1,0.1-6.3,0.4-9.4,0.8
	l1.7,17.3C303.3,303,305.7,299,308.3,296.1z M360.8,343.7v-3.6c-0.7,0.4-1.4,0.7-2,1.1C359.5,342,360.2,342.9,360.8,343.7z
	 M334.5,271.6c9.3,1.8,18.2,4.8,26.4,8.8c0.1-4.1,0.4-7.9,0.9-11.3c-8.2-3.7-16.9-6.4-26-8.1L334.5,271.6z M273.2,249.3
	c-4.7,1.6-9.3,3.4-13.7,5.5c0.2,0.3,0.3,0.6,0.5,1c0.8,1.7,1.5,3.5,2.1,5.6c4.3-1.9,8.7-3.7,13.3-5.1L273.2,249.3z M313.1,319.3
	c-2.6-0.3-5.2-0.4-7.8-0.5c-10.8-0.1-22,2.2-32.6,7c0,0,0,0-0.1,0c-2.7,1.2-5.4,2.7-8,4.3v3.6c11.8-6.1,23.9-8.7,35.3-8.4
	c6.7,0.2,13.2,1.3,19.3,3.2c18.7,5.9,34.1,19.3,41.6,35.8v-18.9C349.1,330.4,331.8,321.3,313.1,319.3z M349.4,305.7
	c-5.8,2.1-12.3,7.2-18.6,16.6c2.6,1,5.1,2.1,7.6,3.3c3.6-4.2,6.9-6.7,9.8-7.9c1.4-0.6,2.8-0.9,3.9-0.8c1.2,0,2.2,0.4,3,1.1
	c1.6,1.3,2.3,3.7,1.9,6.7c-0.4,2.9-1.8,6.5-4.4,10.4c1.9,1.6,3.7,3.4,5.5,5.3c1.1-1,2-2,2.9-3.1v-31.5c-1.6-0.7-3.3-1.1-5.2-1.1
	C353.7,304.6,351.6,304.9,349.4,305.7z M283.7,305.1c-0.3,0-0.7,0.1-1,0.1c-1.7,0.5-3.2,2.2-4,5.2c-0.8,2.9-1,6.9-0.1,11.9
	c4.8-1.7,9.7-2.9,14.7-3.7c-1.3-5.1-3.1-8.7-5-10.8C286.7,305.9,285.1,305.1,283.7,305.1z M277.9,264.7c-4.9,1.6-9.6,3.4-14.1,5.6
	c0.4,3.2,0.7,6.7,0.8,10.5c5.2-2.5,10.7-4.7,16.3-6.4L277.9,264.7z M281,274.7c-5.7,1.7-11.2,3.9-16.4,6.5c0,1.1,0,2.3,0,3.4v7.7
	c6.2-3.4,12.7-6.2,19.2-8.2L281,274.7z M275.4,256.6c-4.6,1.5-9,3.2-13.3,5.1c0.7,2.4,1.2,5.2,1.6,8.2c4.5-2.1,9.2-4,14.1-5.5
	L275.4,256.6z M299.4,291c-2.9,0.5-5.9,1.1-8.8,1.9l1.5,7.3c0.1,0.1,0.1,0.1,0.2,0.1c3.2,3.2,5.9,8.2,7.3,15.1
	c0.5-2.3,1.1-4.4,1.8-6.4L299.4,291z M282.5,297.3c-0.7,0-1.3,0.1-2,0.3c-3.5,0.8-6.6,3.7-8.3,8.3c-1.6,4.6-1.7,10.9,0.6,18.7
	c1.7-0.8,3.5-1.5,5.3-2.1c-0.9-5.1-0.7-9.2,0.1-12.2c0.8-3.1,2.4-5,4.4-5.5c0.5-0.1,1-0.2,1.5-0.1c1.5,0.1,3.2,1.1,4.7,2.8
	c2,2.3,3.8,6,5.1,11.1c1.6-0.2,3.3-0.4,4.9-0.5c-1.2-8-4-13.5-7.3-16.8C288.6,298.4,285.5,297.2,282.5,297.3z M515.7,565
	c-0.9,0.6-1.7,1.2-2.6,1.8C514.2,566.5,515.1,565.9,515.7,565z M477.5,551.1c-0.6,0-1.2,0.2-1.6,0.6c0.7-0.2,1.4-0.4,2.1-0.5
	C477.8,551.2,477.7,551.1,477.5,551.1z M507.1,570.9c0,0,0-0.1,0-0.1c-1.2,0.8-2.5,1.5-3.7,2.2c0.4,0.2,0.8,0.4,1.3,0.4
	C506,573.4,507.1,572.3,507.1,570.9z M264.2,367.9c0,0.5,0.2,1.1,0.4,1.5v-3C264.3,366.9,264.2,367.4,264.2,367.9z M548,430.4
	l0.7,0.1v-0.4l-0.3-0.1l0.3-0.3v-0.5l-0.8,0.7C547.8,430.2,547.9,430.4,548,430.4z M256.4,227c-0.4,0.1-0.8,0.2-1.3,0.4
	c0.3,0.1,0.7,0.1,1.1,0.2c0.1,0,0.2-0.1,0.3-0.1c0.1,0,0.3,0,0.4,0c0.4,0,0.7,0.1,0.9,0.3c0,0,0,0,0.1,0.1c0.2,0,0.5,0.1,0.7,0.1
	c-0.1-0.2-0.3-0.5-0.5-0.6C257.7,227,257.1,226.9,256.4,227z"/>
</svg>
