<?xml version="1.0" encoding="utf-8"?>
<!-- Generator: Adobe Illustrator 24.3.0, SVG Export Plug-In . SVG Version: 6.00 Build 0)  -->
<svg version="1.1" id="Mandala_Letter" xmlns="http://www.w3.org/2000/svg" xmlns:xlink="http://www.w3.org/1999/xlink" x="0px"
	 y="0px" width="828px" height="828px" viewBox="0 0 828 828" style="enable-background:new 0 0 828 828;" xml:space="preserve">
<style type="text/css">
	.st0{fill:none;stroke:#000000;stroke-miterlimit:10;}
</style>
<path class="st0" d="M0.1,827V0h827.3v827.3H0.1v-0.2 M604.9,589.2c1.1-3.7-0.3-6.6-3.7-8.2c-2.8-1.3-5.7-3.1-8.7-5.5
	c-2.8-2.2-4.5-6.2-5.1-12c-0.6-5.9,1.7-15.5,6.9-28.6l80.3-202.5c9.2-23.2,19.1-41.5,29.3-54.4c10.3-12.9,19.5-22.7,27.3-29
	c8.2-6.6,13.1-11.6,15-15.4c1.1-2.1,1.2-4.3,0.4-6.4c-0.6-1.6-2.1-3.5-5.6-3.5c-0.3,0-0.8,0-11.2,2c-7,1.4-15,2.8-23.5,4.3
	c-8.7,1.5-16.7,2.3-23.7,2.3c-8.3,0-17.2-0.8-26.3-2.3c-9.1-1.5-17.2-3-23.9-4.3c-9-1.8-10.9-2-11.5-2c-4.1,0-7,1.6-8.5,4.7
	c-1,1.9-1.8,5.6,3.2,8.5c8.1,4.3,15.1,11.5,20.7,21.4c5.6,10,9.1,21.4,10.4,34c1.3,12.6-0.5,25.3-5.2,37.9l-75.7,190l-93-235.1
	c-5.2-13-7.8-22.9-7.5-29.3c0.2-6.2,1.5-10.6,3.9-13c2.5-2.5,5.2-4.4,7.9-5.7c3.3-1.5,5.2-3.6,5.7-6.2c0.4-1.7,0.2-3.2-0.7-4.4
	c-1.4-1.8-4.2-2.6-8.6-2.6c-0.9,0-3.3,0.2-13.2,2c-7.3,1.3-16.1,2.8-26.2,4.3c-10,1.5-20.5,2.3-31,2.3c-10.6,0-22.2-0.8-34.7-2.3
	c-12.4-1.5-23.6-3-33.2-4.3c-12.9-1.8-15.6-2-16.5-2c-2.7,0-4.8,1.1-6.1,3.3c-1.3,2.2-1.5,4.6-0.4,7.2l0,0.1l0.1,0.1
	c1.5,2.5,4.4,4.3,8.5,5.3c3.7,0.9,8.2,2.5,13.4,4.9c5.1,2.3,10.6,6.6,16.2,12.6c5.6,6.1,11.1,15.7,16.3,28.8l37.6,95.1l-55,139
	l-93-235.1c-5.2-13.1-7.8-22.9-7.5-29.3c0.2-6.3,1.5-10.6,3.9-13c2.5-2.5,5.2-4.4,7.9-5.7c3.3-1.5,5.2-3.6,5.7-6.2
	c0.5-2.1-0.1-3.5-0.7-4.3c-1.4-1.8-4.5-2.7-9.2-2.7c-1.4,0-5.6,0.7-12.9,2c-7.1,1.3-15.8,2.8-25.8,4.3c-10,1.5-20.5,2.3-31,2.3
	c-10.6,0-22.3-0.8-35-2.3c-12.6-1.5-23.9-3-33.5-4.3c-12.9-1.8-15.6-2-16.5-2c-1.6,0-3.8,0.6-5.5,3.3c-1.3,2.2-1.5,4.6-0.4,7.2
	l0,0.1l0.1,0.1c1.5,2.5,4.4,4.3,8.5,5.3c3.7,0.9,8.2,2.5,13.4,4.9c5.1,2.3,10.6,6.6,16.2,12.6c5.6,6.1,11.1,15.7,16.3,28.8
	l98.9,248.9c4.8,12.6,6.9,22.1,6.2,28.3c-0.6,6-2.4,10.3-5.2,12.7c-3.1,2.7-5.9,4.7-8.4,6.2c-3.2,1.9-4.4,4.8-3.3,8.5l0,0.2l0.1,0.1
	c2,3.5,5.3,5.3,9.8,5.3c0.6,0,2.6-0.2,12.5-2c7.3-1.3,15.9-2.7,25.5-4c9.6-1.3,19.2-2,28.4-2c9.2,0,18.5,0.7,27.7,2
	c9.2,1.3,17.3,2.7,23.8,4c8.9,1.8,10.9,2,11.6,2c5,0,8.5-2.3,10.5-6.8l0-0.1l0-0.1c1.1-3.7-0.3-6.6-3.7-8.2
	c-2.8-1.3-5.7-3.1-8.7-5.5c-2.8-2.2-4.5-6.2-5.1-12c-0.6-5.9,1.7-15.6,6.9-28.6l43.9-111l43.9,111c5.2,12.6,7.5,22.1,6.9,28.2
	c-0.6,6-2.4,10.3-5.2,12.7c-3.1,2.6-5.9,4.7-8.4,6.2c-3.2,1.9-4.3,4.8-3.3,8.5c0.7,2.6,2.9,5.6,9.3,5.6c0.9,0,3.2-0.2,12.9-2
	c7-1.3,15.5-2.7,25.2-4c9.6-1.3,19.2-2,28.4-2c9.2,0,18.6,0.7,28,2c9.4,1.3,17.4,2.6,23.8,4c8.7,1.8,10.6,2,11.2,2
	C601.7,596.1,604.2,592.3,604.9,589.2z M741,225c2.2,0,3.7,0.9,4.3,2.7c0.7,1.8,0.5,3.5-0.3,5.3c-1.8,3.5-6.6,8.5-14.6,14.9
	c-8,6.4-17.2,16.2-27.5,29.2c-10.4,13.1-20.2,31.3-29.5,54.8l-80.3,202.5c-5.3,13.3-7.6,23-7,29.2c0.7,6.2,2.5,10.5,5.6,13
	c3.1,2.4,6.1,4.3,9,5.6c2.9,1.3,3.9,3.5,3,6.6c-0.9,4-4,6-9.3,6c-0.9,0-4.5-0.7-11-2c-6.4-1.3-14.4-2.7-23.9-4
	c-9.5-1.3-18.9-2-28.2-2c-9.3,0-18.8,0.7-28.5,2c-9.7,1.3-18.2,2.7-25.2,4c-7.1,1.3-11.3,2-12.6,2c-4.4,0-7.1-1.5-8-4.6
	c-0.9-3.1,0-5.4,2.7-7c2.7-1.5,5.5-3.7,8.6-6.3c3.1-2.7,5-7.2,5.6-13.6c0.7-6.4-1.7-16-7-28.9l-45.1-114.2l-45.1,114.2
	c-5.3,13.3-7.6,23-7,29.2c0.7,6.2,2.5,10.5,5.6,13c3.1,2.4,6.1,4.3,9,5.6c2.9,1.3,3.9,3.5,3,6.6c-1.8,4-4.9,6-9.3,6
	c-0.9,0-4.7-0.7-11.3-2s-14.6-2.7-23.9-4c-9.3-1.3-18.6-2-27.9-2s-18.8,0.7-28.5,2c-9.7,1.3-18.3,2.7-25.6,4c-7.3,1.3-11.4,2-12.3,2
	c-4,0-6.9-1.5-8.6-4.6c-0.9-3.1,0-5.4,2.7-7c2.7-1.5,5.5-3.7,8.6-6.3c3.1-2.7,5-7.2,5.6-13.6c0.7-6.4-1.4-16-6.3-28.9l-98.9-248.9
	c-5.3-13.3-10.8-23-16.6-29.2c-5.8-6.2-11.3-10.5-16.6-12.9c-5.3-2.4-9.9-4.1-13.6-5c-3.8-0.9-6.3-2.4-7.6-4.6
	c-0.9-2.2-0.8-4.2,0.3-6c1.1-1.8,2.5-2.7,4.3-2.7c1.3,0,6.7,0.7,16.3,2c9.5,1.3,20.7,2.8,33.5,4.3c12.8,1.6,24.6,2.3,35.2,2.3
	s21-0.8,31.2-2.3c10.2-1.5,18.8-3,25.9-4.3c7.1-1.3,11.3-2,12.6-2c6.6,0,9.5,1.8,8.6,5.3c-0.4,2.2-2.1,4-5,5.3
	c-2.9,1.3-5.6,3.3-8.3,6s-4.1,7.3-4.3,13.9c-0.2,6.6,2.3,16.6,7.6,29.9l94.3,238.3L405.7,381l-37.8-95.6
	c-5.3-13.3-10.8-23-16.6-29.2c-5.8-6.2-11.3-10.5-16.6-12.9c-5.3-2.4-9.9-4.1-13.6-5c-3.8-0.9-6.3-2.4-7.6-4.6
	c-0.9-2.2-0.8-4.2,0.3-6c1.1-1.8,2.8-2.7,5-2.7c1.3,0,6.7,0.7,16.3,2c9.5,1.3,20.6,2.8,33.2,4.3c12.6,1.6,24.2,2.3,34.8,2.3
	c10.6,0,21-0.8,31.2-2.3c10.2-1.5,18.9-3,26.2-4.3c7.3-1.3,11.6-2,13-2c6.2,0,8.8,1.8,8,5.3c-0.4,2.2-2.1,4-5,5.3
	c-2.9,1.3-5.6,3.3-8.3,6s-4.1,7.3-4.3,13.9s2.3,16.6,7.6,29.9l94.3,238.3l77-193.2c4.9-12.8,6.6-25.7,5.3-38.5
	c-1.3-12.8-4.9-24.3-10.6-34.5c-5.8-10.2-12.8-17.5-21.2-21.9c-3.1-1.8-4-4-2.7-6.6s3.8-4,7.3-4c0.9,0,4.6,0.7,11.3,2
	c6.6,1.3,14.6,2.8,23.9,4.3c9.3,1.6,18.1,2.3,26.5,2.3c7.1,0,15-0.8,23.9-2.3c8.8-1.5,16.7-3,23.6-4.3
	C736.9,225.7,740.5,225,741,225z M286.1,363.9l0.4,1c0.1-0.2,0.1-0.4,0.1-0.6c0.3-2.6-0.8-5-2.8-6.5c0,0-0.1-0.1-0.2-0.1l0.4,1
	C285.5,360,286.2,361.9,286.1,363.9z M665.5,232.7c4.7,0.5,9.3,0.9,13.7,1c-3.1-0.5-6.3-0.8-9.4-0.9
	C668.4,232.7,666.9,232.7,665.5,232.7z M683.7,308.3c3.6-4,6.1-8.8,7.4-13.8C688.6,298.8,686.2,303.4,683.7,308.3z M330.8,587.5
	c-1.8-0.1-3.6-0.3-5.4-0.4c-2.9,0.3-5.7,0.5-8.6,0.6c1.9-0.2,3.7-0.4,5.5-0.7c-2.5-0.1-5-0.1-7.5-0.1c-5.2,0-10.4,0.2-15.7,0.6
	C309.8,589.3,320.4,589.1,330.8,587.5z M421.7,420.2l-0.3,0.7c0.2,0.1,0.4,0.2,0.7,0.3L421.7,420.2z M542.5,465
	c1,1.8,1.7,3.8,2.3,5.9l1.5,3.7c-0.9-4.9-2.5-9.2-5.1-12.8L542.5,465z M236,299.4c-0.4,0-0.8,0-1.3,0c-3.2,0-6.6,0.3-10.1,0.9v27
	c1.9-0.6,3.9-1,5.7-1.1L236,299.4z M213.9,386.6c-1.4-1.4-2.7-2.8-3.9-4.3l-16.5,9l3.8,9.6L213.9,386.6z M237,326.6l11.4-25.2
	c-3.6-1.1-7.5-1.9-11.8-2.1l-5.7,26.7C233.1,325.9,235.1,326.1,237,326.6z M242.5,329.9l16.7-23c-3-2.1-6.4-3.9-10.3-5.3l-11.4,25.2
	C239.5,327.4,241.2,328.5,242.5,329.9z M237.7,336.4l2.6-3.6C239,333.8,238.2,335.1,237.7,336.4z M202.6,411.7l17.4-20.1
	c-2-1.4-3.9-2.9-5.7-4.6l-16.8,14.4l3.6,9.1C201.7,410.9,202.1,411.3,202.6,411.7z M203.5,370.3c-0.6-1.9-1.1-3.8-1.3-5.6l-18.4,2.2
	l3,7.5L203.5,370.3z M206.1,376.4c-1-1.8-1.8-3.7-2.5-5.7l-16.7,4.1l3,7.6L206.1,376.4z M260.8,346.7c3.1-1.6,5.9-4.1,8-7.7
	c0-0.1,0.1-0.2,0.1-0.2l-23.3,8.8C251.2,349.1,256.5,348.3,260.8,346.7z M218.4,344.5c-0.1,0.1-0.1,0.2-0.2,0.3
	c4.1-0.2,8.6,1.4,10.7,4.4c0.1,0.2,0.2,0.3,0.3,0.5c-1.7-3.4-2-7-0.6-10.2c1.4-2.9,4.2-5.6,8.6-7.4
	C228.3,333.7,221.9,338.5,218.4,344.5z M209.7,381.8c-1.2-1.6-2.3-3.2-3.3-5l-16.1,6.1l3.1,7.7L209.7,381.8z M238.2,228.1
	c-1.3,3.6-2.4,7.5-3.3,11.9c1.3-0.1,2.6-0.2,3.9-0.2c2.9-0.1,5.7,0,8.5,0.1c1.8-6.4,4-11.2,6.5-14.5c-2.2,0.3-5.5,0.9-10.1,1.7
	C242,227.4,240.2,227.7,238.2,228.1z M251.5,287.7c1.8,0.7,3.7,1.5,5.4,2.4l-0.9-2.4C254.5,288,252.9,288,251.5,287.7z M306.1,436.3
	c3.1,0.3,6.1,0.7,9.1,1.2l-2.1-5.3C310.8,433.6,308.4,435,306.1,436.3z M311.7,439l-1,9.5c1.6-0.1,3.3-0.2,4.9-0.2
	c0.8,0,1.6,0,2.4,0l0.5-2.3l-2.5-6.4C314.6,439.4,313.2,439.2,311.7,439z M173.5,235.9c5.6,1.6,11.3,5.3,16.5,11.2
	c-1.1-3.8-1.6-7.3-1.8-10.6l-1.6-2.7c-4.8,0-9.8-0.2-15-0.5L173.5,235.9z M234,236.6c0.7-2.9,1.5-5.6,2.4-8.2
	c-1.5,0.3-3,0.5-4.6,0.8C232.7,231.4,233.4,233.9,234,236.6z M318.7,448.5c0.3,0,0.6,0,0.8,0l-0.5-1.4L318.7,448.5z M192.5,249.6
	c2.7-1.1,5.5-2.1,8.2-3c-1-5.2-1.1-9.6-0.7-13.3c-3.4,0.2-6.8,0.3-10.3,0.4C189.8,238.3,190.6,243.7,192.5,249.6z M188.1,235.3
	c0-0.5,0-1,0-1.6c-0.3,0-0.6,0-0.9,0L188.1,235.3z M225.2,240.9c2.5-0.3,5.1-0.6,7.7-0.8c-0.6-4-1.6-7.5-2.8-10.7
	c-2.8,0.5-5.7,0.9-8.8,1.4C222.8,233.6,224.1,236.9,225.2,240.9z M242.2,268.4c2.1,1.4,3.1,3.6,3.1,5.8c0,3-1.7,6.1-4.9,8.1
	c-1.5,0.9-3.3,1.4-5.1,1.6c4.5,0.5,8.9,1.4,13,2.7c-0.2-0.1-0.3-0.2-0.4-0.2c-2.8-1.7-4.5-4.6-3-8.1c1.2-2.8,3.8-3.9,6.1-3.9
	c-0.5-1.5-0.9-3-1.3-4.4C247.2,269.4,244.7,268.9,242.2,268.4z M371.5,294.7c3.7-2.6,7.5-5.2,11.5-7.6c0.8-9.3-4.2-17.6-14-21.1
	c-3.1-1.1-6.7-1.8-10.7-1.8c-0.3,0-0.7,0-1,0c3.6,5.6,7.2,12.8,10.6,21.4L371.5,294.7z M428.2,428.2c-1.2-0.1-2.5-0.3-3.6-0.6
	l1.4,3.4L428.2,428.2z M428.9,427.4c0.2-0.1,0.5-0.1,0.7,0.1c1.9,0.2,3.9,0.2,5.9,0c-0.1-1.4-0.2-2.9-0.3-4.3
	c-5.1,0.4-9.4-0.4-13.1-2l2.2,5.5C425.7,427,427.3,427.3,428.9,427.4z M431.7,442.6c1.5,0,3.1,0,4.6,0c0-0.1,0-0.2,0-0.2
	c0-0.6-0.1-1.2-0.1-1.8l-7-11.7l-2.7,3.3l4.1,10.4C430.9,442.6,431.3,442.6,431.7,442.6z M318.8,225.1c-2.2,0-3.9,0.9-5,2.7
	c-1.1,1.8-1.2,3.8-0.3,6c1.3,2.2,3.9,3.8,7.6,4.6c3.8,0.9,8.3,2.5,13.6,5c2.1,0.9,4.1,2.2,6.3,3.7c0.1-0.6,0.2-1.3,0.3-1.9
	c1-7.3-1.1-13.6-5.2-17.9c-0.4,0-0.7-0.1-1.1-0.1C325.5,225.7,320.1,225.1,318.8,225.1z M315.7,450c-29.4,0.1-60,16.1-74.8,41.4
	c10.4-15.6,28.4-27.8,54.1-29.6c3.2-0.2,6.3-0.3,9.3-0.2c8.5,0.2,15.9,1.6,22.1,4l-6.1-15.4C318.7,450,317.2,450,315.7,450z
	 M437.7,450.6c-0.6-2.2-0.9-4.5-1.2-6.7c-1.6,0-3.2,0.1-4.8,0c-0.2,0-0.5,0-0.7,0l2.8,7C435.1,450.8,436.3,450.7,437.7,450.6z
	 M372.1,477.8l0.6-0.4c-1-1.6-2-3.2-3.1-4.8l-0.2,0.6C370.3,474.8,371.3,476.3,372.1,477.8z M351.3,256.3c1.2,1.2,2.3,2.6,3.4,4.2
	l11.4-8.6c-2.9-3.4-5.9-6.7-9.1-9.9l-10.5,9.6C348.1,253,349.7,254.6,351.3,256.3z M387.9,426.1l-1.4,3.6c0.9,0.6,1.7,1.2,2.6,1.7
	c0.1-0.2,0.3-0.4,0.6-0.4l15.5-3.8c0.1,0,0.1,0,0.2,0c0.4,0,0.7,0.2,0.8,0.6l3.6,11.8c0,0.1,0,0.2,0,0.4c1.2,0.3,2.5,0.6,3.7,0.8
	l1.5-3.9l-5.9-16.7L387.9,426.1z M156.8,236.7l0.3,0.3c4.4-2.3,9.9-2.8,15.6-1.3l-1.8-2.5c-2.9-0.2-5.9-0.4-9-0.7
	C160.2,233.8,158.5,235.2,156.8,236.7z M380.1,445.9c1.5,1.1,2.5,2.9,2.5,4.8c0,3.4-3,6.2-6.8,6.2c0,0-0.1,0-0.1,0l-2.9,7.3
	c8.5,4.1,17.8,7,28,8.6l8.7-21.9c-10.3-1.9-19.4-5.5-27.4-10.2L380.1,445.9z M395.5,453.1c3.7,0,6.7,2.7,6.7,6.2
	c0,3.4-3,6.2-6.7,6.2c-3.7,0-6.8-2.8-6.8-6.2C388.7,455.8,391.8,453.1,395.5,453.1z M382.8,439.2c7.9,4.8,17.1,8.3,27.4,10.2
	l2.9-7.4c-10.4-2.1-19.5-5.9-27.1-11L382.8,439.2z M382.1,450.7c0-1.7-0.8-3.2-2.1-4.3l-3.9,10C379.4,456.3,382.1,453.8,382.1,450.7
	z M395.5,464.9c3.4,0,6.2-2.5,6.2-5.6c0-3.1-2.8-5.7-6.2-5.7c-3.4,0-6.2,2.5-6.2,5.7C389.3,462.4,392.1,464.9,395.5,464.9z
	 M410.7,421l5.1,14.3l3.7-9.2c-2.7-1-5.2-2.4-7.5-4.1C411.5,421.6,411.1,421.3,410.7,421z M403.4,413.1
	C403.4,413.1,403.4,413.1,403.4,413.1c-3.1,1.8-5.3,2.8-6.8,3.3c-0.8,0.2-1.4,0.4-1.8,0.4c-0.2,0-0.4-0.1-0.6-0.2
	c-0.2-0.1-0.3-0.3-0.3-0.5c-0.1-0.4,0.1-0.7,0.3-1.2c0.3-0.5,0.7-1,1.2-1.6c1.1-1.2,2.8-2.7,4.9-4.4c0,0,0.1-0.1,0.2-0.1
	c0.3,0,0.4,0.3,0.2,0.5c-2.1,1.6-3.8,3.1-4.8,4.3c-0.5,0.6-0.9,1.1-1.1,1.5c-0.3,0.4-0.3,0.7-0.3,0.9c0,0.1,0,0.1,0.1,0.1
	c0.1,0,0.2,0.1,0.3,0.1c0.3,0,0.8-0.1,1.6-0.3c1.4-0.5,3.7-1.5,6.7-3.2c0,0,0,0,0.1,0c-2.2-3.3-4-7.1-5.4-11.3l-9.3,23.5l20.2-5.7
	C406.7,417.4,405,415.3,403.4,413.1z M494.7,352.6c1.8,2.1,3.7,4,5.6,5.7l-1.9-4.7C497.2,353.3,495.9,352.9,494.7,352.6z
	 M390.7,432.4c5.2,3,11,5.4,17.3,7.1l-3.2-10.6L390.7,432.4z M589.5,482.2c0-0.1,0.1-0.1,0.2-0.2c1.3-1.4,2.5-2.8,3.6-4.2
	c5.4-7.2,6.1-15.8,5.7-24.5c-0.2-3.6-0.5-7.1-0.8-10.6l-18.9,47.4C583.3,487.7,586.7,485,589.5,482.2z M394.6,282.2
	c-8.2,4.4-15.6,9.1-22.5,14l0.3,0.9C379.1,291.9,386.5,286.9,394.6,282.2z M356.7,241.6c-3.4-3.3-7-6.5-10.7-9.4l-3.4,3.8
	c0.7,2.9,0.8,6.1,0.4,9.4c-0.1,0.9-0.3,1.9-0.5,2.8c1.2,0.9,2.4,1.9,3.7,3.1L356.7,241.6z M369.6,264.5c0.6,0.2,1.1,0.4,1.7,0.7
	l3.4-2.1c-2.5-3.8-5.3-7.3-8.2-10.9l-11.5,8.7c0.4,0.6,0.8,1.2,1.2,1.8C361.4,262.4,365.8,263.1,369.6,264.5z M342.4,235.3l3.1-3.5
	c-1.7-1.4-3.5-2.7-5.4-4c-0.5-0.1-1-0.1-1.5-0.2C340.3,229.8,341.6,232.4,342.4,235.3z M407.7,276c-13.4,6.7-25,14-34.9,21.8
	l2.1,5.3C384,293,395,283.7,407.7,276z M399.5,362.8c1.3-3,2.9-6,4.7-8.8c0,0-0.1,0-0.1,0c-5.4-3.8-9.3-7.1-11.6-9.6
	c-1.1-1.3-1.9-2.3-2.3-3.2c-0.4-0.9-0.5-1.6-0.1-2.1c0.4-0.5,1.2-0.7,2.3-0.7c1,0,2.4,0.4,4.1,0.9c3.3,1.1,7.9,3.3,13.7,6.8
	c0,0,0,0,0.1,0c2.7-3.1,5.6-6,8.8-8.7l-32.8-5.9l11.6,29.2L399.5,362.8z M419.4,336.4l-4.8-55.3c-3.5,2-6.8,4.1-10.1,6.5
	c0,0.1,0,0.2,0,0.2l2.4,34.9c0,0.5-0.5,0.9-1,0.8l-24.7-4.1l4.4,11.1L419.4,336.4z M405.2,321.7l-2.3-33c-9.3,7-17.4,15.2-24.1,24.4
	l1.8,4.5L405.2,321.7z M594.3,594.8c5.3,0,8.4-2,9.3-6c0.3-1,0.3-1.8,0.3-2.6C600.8,589.2,597.6,592,594.3,594.8
	C594.3,594.8,594.3,594.8,594.3,594.8z M542.4,575.2l-20.8,3.8c0.6,2.6,1,5.3,1.2,8c2.8-0.1,5.7-0.2,8.4-0.2c3.6,0,7.3,0.1,10.9,0.3
	c0.1-0.7,0.2-1.5,0.3-2.2C542.8,581.7,542.8,578.5,542.4,575.2z M557.9,536c-6.2,6.3-13,12.5-20.5,18.5c5.4,9.5,7.8,20.1,6.7,30.6
	c-0.1,0.7-0.2,1.5-0.3,2.2c2.4,0.2,4.8,0.3,7.2,0.6c2.7-4.9,4.8-10.2,6.3-15.7C560.2,561.3,560.7,549.3,557.9,536z M278.9,368.2
	c-1.2-0.7-2-1.6-2.1-2.7c-0.1-1.1,0.4-2.3,1.7-3.2c0.3-0.2,0.7,0.2,0.3,0.4c-1.1,0.9-1.6,1.8-1.5,2.7c0.1,0.9,0.8,1.8,1.8,2.4
	c2.5,1.4,6.5-0.2,6.9-3.5c0-0.1,0-0.2,0-0.4l-2.1-5.2c-0.2-0.2-0.4-0.3-0.6-0.5c-1.9-1.4-4.8-2-8.1-1c-4.9,1.4-7,4.7-7.4,8.3
	c-0.4,3.6,1,7.5,3.4,9.7c3.5,3.4,7.6,4.6,11.5,4.4c1.1-0.6,2.2-1.2,3.2-1.8c1.5-0.9,3-1.9,4.3-3l-3.9-9.8
	C285.6,368.2,281.6,369.7,278.9,368.2z M583.9,551.3c-6.3,6.5-13.3,12.8-20.8,18.9c-2.5,6.3-5.2,12.5-8.4,18.1
	c1,0.1,1.9,0.2,2.9,0.4c0.7-2.9,3.5-5,6.9-5c3.9,0,7.1,2.9,7.1,6.5c0,0.2,0,0.4,0,0.6c3.5,0.6,6.8,1.2,9.7,1.7
	c5.9-4.5,10.9-8.8,15-12.6c-1.5-0.9-3.1-2-4.6-3.3c-2.4-1.9-4.1-4.9-5-9c-1.9-2.8-3.1-5.9-3.4-9.4
	C583.1,555.8,583.3,553.5,583.9,551.3z M587.3,575.4c0,4.2-3.7,7.5-8.2,7.5c-4.6,0-8.3-3.4-8.3-7.5c0-4.2,3.7-7.6,8.3-7.6
	C583.6,567.8,587.3,571.2,587.3,575.4z M202.1,364.1c-0.3-1.9-0.3-3.9-0.3-5.9l-21.4-0.1l3.3,8.2L202.1,364.1z M589.3,544.6
	c-0.2,0.2-0.4,0.4-0.6,0.6c-0.9,1-1.7,2.1-2.4,3.3c0,0.2,0,0.4-0.2,0.5c-0.1,0.1-0.2,0.2-0.3,0.3c-1.2,2.7-1.8,5.7-1.5,8.8
	c0.2,2.2,0.8,4.3,1.7,6.3c0-0.2-0.1-0.5-0.1-0.7C585.5,559.1,586.6,552.8,589.3,544.6z M487.8,346.1c-6.9,10.8-16.3,21-22.9,31.7
	c-6.7,10.9-10.4,22.4-5.3,35.8c0.5,0,0.9,0.1,1.4,0.2c3.4,0.5,7,1.2,10.5,2.2c-5.1-12.3-2.5-21.6,2-29.9
	c4.7-8.6,11.6-16.1,14.8-25.3c0-0.1,0.2-0.2,0.3-0.2c0.1,0,0.2,0,0.2,0.1c5.2,8,13.2,13.1,20.2,19.4l-7.4-18.6
	C496.8,357.4,491.9,352.5,487.8,346.1z M269.4,339.3c-1.5,2.5-3.4,4.5-5.4,6.1c3.8-1.9,6.5-4.1,7.2-4.7c1.5-1.4,2.7-3.1,3.8-4.9
	l-2.8-7.1C272.2,332.3,271.3,336,269.4,339.3z M597.4,523.2c-5.7,1.4-10.3,4.2-14.2,8.1c-5.3,5.3-9.2,12.5-12.7,20.5
	c-2.2,5-4.3,10.4-6.4,15.8c7.6-6.3,14.7-12.8,21-19.5c0,0,0.1-0.1,0.2-0.2c0.7-1.3,1.5-2.5,2.5-3.6c0.6-0.7,1.3-1.3,2.1-1.9
	c0.9-2.5,1.9-5.2,3-8.1L597.4,523.2z M253.5,281.6c-1,0.4-2.1,0.5-3.2-0.1c-0.3-0.2-0.1-0.6,0.3-0.5c1,0.5,2,0.5,2.8,0.1
	c-0.8-2.2-1.5-4.2-2.2-6.2c-2.1-0.1-4.7,0.9-5.8,3.6c-1.4,3.2,0.1,5.9,2.8,7.4c2.1,1.3,4.9,1.8,7.6,1.4l-0.7-1.7
	C254.5,284.1,254,282.9,253.5,281.6z M460.8,584c-0.6-0.2-1.1-0.4-1.7-0.5c-1.9,1.3-2.7,3-2.5,5.1c1.3,0.2,2.4,0.5,3.2,1
	c0.2,0.1,0.3,0.2,0.5,0.4c1.1,0.8,1.7,2,1.7,3.2c0,0.4-0.1,0.9-0.2,1.3c0.9,0.2,1.9,0.3,3,0.3c0.6,0,1.7-0.1,3.4-0.4
	C468.4,589.4,465.1,585.7,460.8,584z M238.5,342.8c0.5,0.9,1.2,1.6,2,2.3l30.7-18.8l-3.9-9.9L238.5,342.8z M260.3,307.7
	c-0.2-0.2-0.4-0.4-0.6-0.5l-16.8,23.1c0.6,0.8-0.1,1.8-1.1,1.6c0,0-0.1,0.1-0.2,0.1l-4.2,5.7c-0.1,0.4-0.1,0.8-0.1,1.2
	c0,1.1,0.3,2.3,0.8,3.3l28.9-26.4l-0.8-2C264.6,311.6,262.7,309.6,260.3,307.7z M201.9,357.7c0.1-1.9,0.4-3.8,0.8-5.7l-25.7-3
	c0,0.1,0,0.2,0,0.3l3.3,8.2L201.9,357.7z M224,327.4v-27.1c-3.4,0.7-7,1.6-10.7,2.9l5.7,26.4C220.6,328.7,222.3,328,224,327.4z
	 M241,345.5c0.7,0.5,1.4,0.9,2.3,1.3c0.6,0.2,1.1,0.4,1.6,0.6l24.3-9.2c0,0,0,0,0.1,0h0c1.8-3.5,2.4-7.3,2.1-11.2l-0.1-0.2
	L241,345.5z M459.8,592.7c-0.1-0.6-0.4-1.1-1.1-1.6c-0.4-0.3-1-0.5-1.7-0.6c0.5,1.5,1.4,2.5,2.8,3.3
	C459.8,593.4,459.9,593,459.8,592.7z M262.9,361.3c-15,3.4-27.5-2.3-32.7-9.9c-0.2-0.3-0.4-0.6-0.6-0.9c1.1,2.2,1,4.5,0,6.2
	c-1.1,2.1-3.4,3.6-6.3,3.6c-2,0-3.7-0.7-4.8-1.7c-1.1-1.1-1.6-2.5-1.1-3.8c0.4-1.2,1.3-2,2.4-2.3c1.1-0.4,2.5-0.2,3.8,0.7
	c0.3,0.2,0,0.7-0.3,0.4c-1.2-0.8-2.3-0.9-3.3-0.6c-0.9,0.3-1.7,1-2,2c-0.5,1.2,0,2.4,0.9,3.3c1,0.9,2.5,1.6,4.4,1.5
	c2.6,0,4.8-1.3,5.8-3.2c1.1-2,1-4.5-0.8-7.1c-2-2.9-6.5-4.4-10.5-4.1c-3.7,6.9-3.8,15.3-0.2,22.9c0.9,1.8,1.9,3.5,3.1,5.1
	c-0.1-0.5-0.2-1.1-0.3-1.8c-0.6-7.8,5.5-12.7,11.7-13.4c4.2-0.5,8.7,1.2,10.9,4.3c1.9,2.7,2,5.5,0.9,7.6c-1.1,2.1-3.4,3.5-6.3,3.6
	c-2,0-3.7-0.7-4.8-1.7c-1.1-1-1.6-2.5-1.1-3.8c0.4-1.1,1.3-2,2.5-2.3c1.1-0.3,2.5-0.1,3.8,0.7c0.3,0.2,0,0.6-0.3,0.4
	c-1.2-0.8-2.3-0.9-3.3-0.7c-0.9,0.3-1.7,1-2.1,2c-0.4,1.2,0,2.3,1,3.3c1,0.9,2.5,1.6,4.4,1.6c2.7,0,4.8-1.4,5.8-3.3
	c1-1.9,1-4.5-0.8-7.1c-2.1-2.9-6.3-4.6-10.3-4.1c-6,0.7-11.8,5.4-11.2,12.9c0.1,1.2,0.2,2.1,0.6,3c6,7.3,14.9,11.4,24.9,12.5
	c2.9,0.3,5.8,0.4,8.8,0.2c-6.8-1.1-11.8-5.7-12.1-11.4c-0.6-7.8,5.5-12.7,11.7-13.4c4.3-0.5,8.7,1.2,10.9,4.3c1.9,2.7,2,5.5,0.8,7.6
	c-1.1,2.1-3.4,3.5-6.3,3.6c-2,0-3.7-0.7-4.8-1.7c-1.1-1.1-1.6-2.5-1.1-3.9c0.4-1.1,1.3-2,2.4-2.3c1.1-0.3,2.5-0.1,3.8,0.7
	c0.3,0.2,0,0.6-0.3,0.4c-1.2-0.8-2.3-0.9-3.3-0.7c-0.9,0.3-1.7,1-2,2c-0.5,1.2,0,2.3,0.9,3.3c1,0.9,2.5,1.6,4.4,1.6
	c2.6,0,4.8-1.3,5.8-3.3c1.1-1.9,1-4.5-0.8-7.1c-2.1-2.9-6.3-4.6-10.4-4.1c-5.9,0.7-11.7,5.4-11.2,12.9c0.5,6.2,6.6,11.1,14.7,11.2
	c7.8-0.8,15.8-3.2,23.3-7c-3.8,0-7.6-1.4-10.9-4.5c-2.5-2.4-3.9-6.4-3.5-10.1c0.4-3.8,2.8-7.3,7.8-8.8c0.8-0.3,1.7-0.4,2.5-0.5
	c2.3-0.2,4.4,0.4,5.9,1.5l-3.1-7.8C276.1,355.5,270,359.7,262.9,361.3z M272.4,341.7c-1.1,1.1-4.9,4.1-10.3,6.2
	c-5.4,2.1-12.4,3.2-19.5,0.3c-2.5-1.1-4.4-2.7-5.6-4.6c-1.3-1.8-1.9-3.9-1.7-5.9c0.2-1.8,1-3.5,2.6-4.9c-4.4,1.8-7,4.2-8.2,7
	c-1.6,3.5-1,7.4,1.4,11c4.9,7.2,16.9,12.8,31.5,9.5c7-1.6,13.1-5.9,17.4-11.7l-4.3-10.9C274.8,339.1,273.7,340.5,272.4,341.7z
	 M539.3,460.3c-4.6-5.5-9.2-8.5-14.6-11.1c-5.4-2.5-11.7-4.5-19.7-7.8c2,8.3,1.1,16.1,0.5,23.5c-0.6,7.5-0.9,14.5,2.4,21.1
	c2.6,5.4,6.9,9.2,13.2,11.8c5.2,2.1,11.9,3.4,20.3,3.9c0.4,0,0.8,0,1.3,0c-7.9-2.2-14.4-5.8-19-11.3c-5.3-6.3-7.9-15.2-6.9-27.4
	c0-0.2,0.2-0.4,0.4-0.4c0.1,0,0.3,0,0.3,0.1c3.8,3.9,7.9,6.3,11.7,8.5c3.8,2.2,7.3,4.2,9.9,7.3c4.1,4.9,5.5,10,7.3,20.7
	c0.8-11.5,0.6-20.8-1.5-28.3l-2.3-5.9C541.6,463.3,540.6,461.7,539.3,460.3z M265,230.4c0.9-3.5-2-5.3-8.6-5.3c-0.3,0-0.8,0-1.4,0.1
	c-2.5,3.2-4.9,8.1-6.7,14.7c1.7,0.1,3.3,0.2,5,0.3c2.2-1.9,4.4-3.5,6.8-4.5C262.9,234.4,264.6,232.6,265,230.4z M550.9,494.7
	c0.8-0.7,1.6-1.5,2.5-2.2l-0.9-2.3C552,491.8,551.5,493.3,550.9,494.7z M523.9,435.9c-8.2-2.9-18.5-5.4-32.1-9.9
	c0,0.4,0.1,0.8,0.2,1.2c0.2,0.2,0.2,0.4,0.1,0.7c1.2,9.1,0.4,18.6-0.2,27.6c-0.6,10.1-0.7,19.5,2.9,26.7c3.3,6.7,8.5,12,16.8,15.4
	c6.3,2.6,14.4,4.1,24.7,4.1c-6.2-0.7-11.3-1.8-15.5-3.6c-6.4-2.6-10.7-6.5-13.5-12c-3.4-6.8-3-13.9-2.4-21.3
	c0.6-7.5,1.6-15.4-0.6-23.8c0-0.2,0.1-0.3,0.3-0.3c0,0,0.1,0,0.1,0c8.3,3.4,14.7,5.4,20.2,8c5.5,2.6,10.2,5.7,14.9,11.2
	c0.5,0.6,1,1.3,1.5,1.9l-8.8-22.3C529.8,438.2,527,437,523.9,435.9z M546.9,499.5c1.7-3.3,3.3-7.4,4.5-11.9l-5.1-13
	C547.6,481.6,547.6,489.8,546.9,499.5z M488.6,361.6c-3.3,9-10,16.5-14.6,24.8c-4.6,8.3-7.1,17.4-1.8,29.8c3.5,1,7,2.4,10.5,4.3
	c-2.6-7.5-0.7-13.5,2-18.9c3-5.8,6.8-10.9,7.3-16.5c0-0.2,0.2-0.4,0.4-0.4c0.2,0,0.4,0.1,0.4,0.3c3,10.8,9.9,16.2,14.7,22
	c2.4,2.9,4.3,5.8,4.9,9.6c0.6,3.6,0,7.9-2.5,13.4c2.5,0.7,4.9,1.4,7.2,2.1c0.3-6.7,2.3-12.5,5.3-17.7l-13-32.9
	C502.4,374.9,494.1,369.7,488.6,361.6z M518.8,432.6c2,0.6,3.9,1.2,5.7,1.9c2.2,0.7,4.2,1.6,6.1,2.4c0-0.6,0-1.1,0.1-1.7l-7.5-18.9
	C520.7,421.1,519,426.4,518.8,432.6z M568,541.2c-2.1,5.6-3.3,11.5-5.1,17.6c-0.2,3.3-0.6,6.5-1.3,9.6c2.3-5.8,4.5-11.7,7-17.2
	c3.5-8.1,7.6-15.5,13.1-21c4.4-4.4,9.7-7.6,16.4-9l3.5-8.9c-6.6,1.1-13.1,3.7-18.9,8.3C574.6,527.1,570.7,533.9,568,541.2z
	 M200.9,233.2c-0.4,3.6-0.3,7.9,0.6,13.1c7.5-2.5,15.2-4.2,22.8-5.3c-1.1-4-2.5-7.3-3.9-10c-0.8,0.1-1.7,0.3-2.5,0.4
	C212.3,232.2,206.6,232.8,200.9,233.2z M531.2,437.2c0.1,0.1,0.3,0.1,0.4,0.2l-0.4-0.9C531.2,436.7,531.2,436.9,531.2,437.2z
	 M551.1,502c-0.8,0.2-1.7,0.4-2.5,0.5c0.6,1,1.1,2,1.6,3c3.7,4.1,7.5,6.5,11.5,7.8l-3.6-9C555.8,503.9,553.5,503.2,551.1,502z
	 M581.9,514.3c-2.2,0.5-4.5,1-6.7,1.3c-4.3,5.9-9.2,11.7-14.6,17.5c1.7,7.3,2.5,14.2,2.5,20.8c1.1-4.4,2.3-8.8,3.8-13.1
	c2.7-7.3,6.8-14.4,15.2-21.1c6.2-4.9,13.1-7.6,20.1-8.6l0.8-2.1c-0.9,0.1-1.7,0.2-2.6,0.4C594.5,510.6,588.2,512.7,581.9,514.3z
	 M304.8,414.4c0.3-0.2,0.6-0.5,1-0.7L295.6,388c-1.5,1-3,1.9-4.6,2.8L304.8,414.4z M286.5,378.4c-12.5,7.6-27.1,11-40,9.5
	c-12.9-1.4-24.1-7.7-29.6-19.3c-3.9-8.2-3.6-17.2,0.7-24.5c4.1-6.9,11.8-12.1,22.6-13.4c-3.1-2.8-8.8-3.5-15-1.5
	c-6.8,2.1-13.8,7.5-18,16.4c-7.8,16.7-0.8,34.6,14.9,44.9c15.8,10.3,40.2,13,67.3-1.3c1.8-1,3.6-2.1,5.3-3.2l-4.1-10.5
	C289.3,376.5,288,377.5,286.5,378.4z M551.3,500.4c1.6-0.4,3.2-0.7,4.7-1.1l-0.4-0.9C554.3,499,552.8,499.7,551.3,500.4z
	 M550.2,496.5c-0.7,1.6-1.4,3.2-2.2,4.5c0.3,0,0.5-0.1,0.7-0.2c2.3-1,4.6-2,6.7-3.1l-1.7-4.4C552.5,494.4,551.3,495.5,550.2,496.5z
	 M247.4,255.6c0-1.2,0.1-2.4,0.3-3.5c-4.9-0.7-9.9-1-15-1.1c-24-0.2-49.7,7.1-73.8,24.5c6.2-3.8,13-7.2,20.3-10.1
	c13.3-5.4,26.9-7.9,40-7.9c10.3-0.1,19.8,0.8,28.4,2.3C247.4,258.3,247.4,256.9,247.4,255.6z M551.9,501.9c2,0.9,3.9,1.5,5.9,1.9
	l-1.2-3.1C555.1,501.1,553.5,501.5,551.9,501.9z M489.5,489.4c-2.9,0.2-6.1,0.5-9.8-0.5c2.4,6.1,7.5,10.6,14.3,12.9
	c6.5,2.2,14.6,2.2,23.3-0.5c-2.3-0.6-4.4-1.3-6.4-2.1c-5.6-2.3-9.9-5.5-13.1-9.3C494.9,488.9,492.3,489.1,489.5,489.4z M299.1,587.5
	c-0.1,0-0.2,0-0.2,0c-4.7-0.6-9.4-1.7-13.9-3.4c-0.3-0.1-0.4-0.2-0.5-0.5c-12.6-4.6-21.9-12.5-27.7-21.8c0,0.5,0,1-0.1,1.5
	c-0.7,6.4-2.6,11-5.6,13.6c-0.2,0.2-0.4,0.4-0.7,0.6c0.7,0.8,1.4,1.6,2.1,2.4c0.9,0.8,1.9,1.6,2.9,2.3c4.7,3.6,9.9,6.6,15.6,8.9
	c4.7-0.7,9.8-1.5,15.2-2.2C290.6,588.3,294.9,587.8,299.1,587.5z M261.3,592.7c2.2-0.4,4.5-0.8,6.9-1.2c-1.6-0.7-3.3-1.5-4.8-2.3
	L261.3,592.7z M373,589.7c0,1.7,0.2,3.2,0.8,4.5c2.2,0.4,3.6,0.6,4.1,0.6c2.1,0,3.9-0.5,5.4-1.4c-0.2-0.1-0.5-0.2-0.7-0.3
	c-2-1-3.3-3.1-2.5-5.7c0.7-2.1,2.8-3,4.5-2.6c0.8,0.2,1.6,0.6,2,1.4c0.4,0.7,0.4,1.7-0.1,2.8c-0.4,0.8-1.7,0.3-1.3-0.5
	c0.4-0.8,0.3-1.3,0.2-1.6c-0.2-0.4-0.6-0.6-1.1-0.7c-1-0.2-2.4,0.2-2.9,1.7c-0.6,2.1,0.3,3.4,1.8,4.1c0.4,0.2,0.9,0.4,1.4,0.5
	c1-0.9,1.9-2.1,2.5-3.6c0.9-3.1-0.1-5.3-3-6.6c-1.6-0.7-3.2-1.6-4.8-2.7C375.9,581.3,373.1,584.8,373,589.7z M345.7,589.3
	c2.8,0.4,5.4,0.8,7.9,1.2l-2.4-3.3C349.4,587.9,347.5,588.6,345.7,589.3z M374.3,582.1c-5.2,3.3-10.4,6.4-15.8,9.3
	c2.9,0.5,5.6,1,8.1,1.5c2.2,0.4,4,0.8,5.6,1.1c-0.4-1.3-0.6-2.7-0.6-4.2C371.7,586.7,372.7,584.1,374.3,582.1z M359.3,583.9
	c-2.5,1.1-5.1,2.1-7.6,3.1l2.6,3.6c0.2,0,0.5,0.1,0.7,0.1c2.4-1.2,4.7-2.5,7-3.8L359.3,583.9z M256.4,584.9l-7.2,9.8
	c1.7-0.2,5.4-0.8,11.3-1.9l2.3-3.9C260.6,587.7,258.5,586.4,256.4,584.9z M284.3,479.2c4.9-1.1,9.5-1.5,13.8-1.5
	c18.8,0,32.6,8.8,38.3,20.1c5.9,11.7,3.2,27-10.4,34c-6.4,3.2-13.7,3.4-19.1,1.1c-5.1-2.3-8.4-7-6.9-13.3c0-0.1-0.1-0.2-0.2-0.4
	c-0.6-1.3,1.6-2,2.1-0.7c1.3,3.2,3.4,3.8,5.5,3.4c2.1-0.4,4-2.1,4.4-4.3c0.3-2.1,0.2-4-0.3-5.7c-5.1-6.2-17.5-6.4-23.7,3.1
	c-1.5,2.3-2.3,5.5-2.2,8.9c0.7,6.8,3.7,11.7,8.1,14.9c5.1,3.8,11.9,5.4,19.2,5c13.8-0.6,29.1-8.3,35.7-21.4l-22-55.5
	c-6.8-2.7-15.1-4.2-24.8-4.2c-2.3,0-4.5,0.1-7,0.2c-29.9,2-49,18.4-58,37.7l4.2,10.7C248.1,496.3,261.8,484,284.3,479.2z M269.2,501
	c7.9-5.4,16.8-7.2,24.5-6.8c2.5,0.1,5,0.4,7.2,1c11.6,2.7,18.2,10.9,18.3,20.6c0,5.7-4,9.9-8.4,10.9c-2.2,0.5-4.5,0.2-6.5-1.1
	c-1.3-0.9-2.4-2.3-3.1-4.1c-0.5,4.9,2.3,8.2,6.4,10.1c4.9,2.2,11.8,2,17.7-1c13-6.6,15.5-21.1,9.9-32.3c-5.4-10.8-18.7-19.4-37-19.3
	c-4.2,0-8.7,0.5-13.5,1.5c-22.8,4.8-36.2,17.5-42.7,32.6l8,20C251,520.8,257.4,509.1,269.2,501z M371.8,574.3l-6.3-6.5
	c-8.7,6.3-17.8,11.7-27.9,15.4c-4.6,1.7-9.8,3-15.3,3.9c1,0,2.1,0.1,3.1,0.1C341.4,585.5,357.1,580.3,371.8,574.3z M254.3,583.4
	c-1.4-1.1-2.7-2.2-4-3.4l-9.9,11.1c1.8,2.5,4.5,3.7,8,3.7c0,0,0.1,0,0.1,0l7.5-10.2C255.4,584.2,254.9,583.8,254.3,583.4z
	 M248.9,578.7c-2.3,1.8-4.5,3.4-6.5,4.5c-2.7,1.6-3.6,3.9-2.7,7c0.1,0.2,0.2,0.3,0.3,0.5l9.8-11C249.6,579.3,249.3,579,248.9,578.7z
	 M344.8,568.5c-15.6,5.2-33.9,5.1-48.9-0.8c-14.9-5.9-26.5-17.6-28.1-35.3c-1.1-12.2,5.3-24.2,17.5-29.3c7.8-3.2,15.5-3,21.1-0.2
	c5.6,2.8,8.9,8.3,7.8,14.8c-0.6,3-3.1,5.4-6.2,6c-1.6,0.3-3.3,0.1-4.8-0.8c0.5,0.7,1.1,1.3,1.8,1.8c1.6,1.1,3.6,1.3,5.5,0.9
	c3.9-0.9,7.6-4.6,7.6-9.9c0-9.2-6.2-16.9-17.4-19.6c-2.6-0.6-5.6-1-8.8-1c-7,0-14.8,1.9-21.9,6.7c-12.3,8.4-18.5,20.8-19.1,33.6
	c3.8,10.1,5.8,18.2,6,24.2c5.6,9.8,15,18.1,28.1,22.9c0.2-0.1,0.5-0.1,0.7,0c17.1,6.3,37,4.2,51.4-1c11.8-4.2,22.3-11.1,32.5-18.9
	c-0.2-3.2,0.3-7.3,1.6-12.2C364.4,558.7,355.3,565,344.8,568.5z M263.3,514.3c1.6,0,2.8,1.2,2.8,2.6s-1.2,2.5-2.8,2.5
	c-1.5,0-2.8-1.1-2.8-2.5S261.8,514.3,263.3,514.3z M260.3,523.4c2.3,0,4.1,1.7,4.1,3.8c0,2.1-1.8,3.8-4.1,3.8
	c-2.3,0-4.1-1.7-4.1-3.8C256.2,525,258,523.4,260.3,523.4z M255.5,539.5c0-2.5,2.2-4.5,4.9-4.5c2.7,0,4.9,2,4.9,4.5
	c0,2.5-2.2,4.5-4.9,4.5C257.7,544,255.5,542,255.5,539.5z M258.8,552.4c0-2.7,2.5-5,5.4-5c3,0,5.4,2.2,5.4,5c0,2.8-2.4,5-5.4,5
	C261.3,557.4,258.8,555.2,258.8,552.4z M272.7,569.1c-3.1,0-5.6-2.3-5.6-5.1c0-2.8,2.5-5.1,5.6-5.1c3.1,0,5.6,2.3,5.6,5.1
	C278.3,566.8,275.8,569.1,272.7,569.1z M284.7,577.6c-3.1,0-5.6-2.3-5.6-5.1c0-2.8,2.5-5.1,5.6-5.1c3.1,0,5.6,2.3,5.6,5.1
	C290.3,575.3,287.8,577.6,284.7,577.6z M299.7,582.6c-3,0-5.4-2.2-5.4-5c0-2.8,2.4-5,5.4-5c3,0,5.4,2.2,5.4,5
	C305.1,580.3,302.7,582.6,299.7,582.6z M314.6,583.4c-2.6,0-4.8-2-4.8-4.4c0-2.4,2.2-4.4,4.8-4.4c2.6,0,4.8,2,4.8,4.4
	C319.3,581.5,317.2,583.4,314.6,583.4z M327.8,581.2c-1.9,0-3.4-1.4-3.4-3.2c0-1.8,1.6-3.2,3.4-3.2c1.9,0,3.4,1.4,3.4,3.2
	C331.2,579.8,329.7,581.2,327.8,581.2z M337.9,577.6c-1.1,0-2.1-0.9-2.1-2c0-1.1,0.9-2,2.1-2c1.2,0,2.1,0.9,2.1,2
	C340.1,576.7,339.1,577.6,337.9,577.6z M381.7,505.6l-5.7,7c-0.1,0.4-0.2,0.8-0.3,1.2l4.8,10.9l0.5-1.2
	C382,517.4,382.2,511.4,381.7,505.6z M365.3,532.1l13.9-4.3l0.8-2l-4.7-10.7C373.2,521.5,369.6,527.2,365.3,532.1z M370.1,548.3
	c1-1.3,2-2.7,2.9-4.1c0.9-2.7,2-5.7,3.2-8.8l-6.5,2L370.1,548.3z M363.6,533.8l0.6,20.9c1.9-1.8,3.7-3.6,5.4-5.7l-0.3-11.8
	c0-0.1,0-0.2,0.2-0.3l7.1-2.2c0-0.1,0.1-0.2,0.1-0.3l2.3-5.7l-14.7,4.5C363.9,533.4,363.8,533.6,363.6,533.8z M380.3,488.4
	c1.1,3.1,2,6.3,2.6,9.6c3.3-2.8,6.8-4.6,10.3-5.8l1.9-4.7c-3.7-0.6-7.3-1.3-10.8-2.2C382.9,486.3,381.6,487.3,380.3,488.4z
	 M384.1,515.3l8.5-21.5c-3.2,1.2-6.4,3.1-9.4,5.8C384.1,504.7,384.4,510,384.1,515.3z M362.5,586.7c2.4-1.4,4.8-2.8,7.3-4.3
	l-2.4-2.2c-2.3,1.1-4.3,2.1-6.1,2.9c-0.5,0.2-1,0.4-1.5,0.6L362.5,586.7z M342.4,588.8c6.3-2.3,12.4-4.7,18.1-7.2
	c3.4-1.5,8.1-3.8,13.2-6.5c-0.1-0.1-0.2-0.3-0.3-0.4c-13.5,5.6-27.8,10.6-42.6,12.8C334.7,587.9,338.5,588.3,342.4,588.8z
	 M370.3,582.1c2.2-1.4,4.4-2.8,6.6-4.3c-0.5-0.4-1.1-0.8-1.6-1.2c-0.1-0.1-0.2-0.2-0.3-0.3c-2.5,1.3-4.9,2.5-7.1,3.6L370.3,582.1z
	 M252.1,474.3l-17.9-16.4c-2.4,1.8-4.7,3.8-6.8,5.8l20.3,15.2C249.1,477.3,250.6,475.8,252.1,474.3z M583.3,592.8
	c3.9,0.8,6.8,1.4,8.7,1.7c3.9-3.3,7.7-6.6,11.2-10.1c-0.5-0.9-1.4-1.7-2.7-2.3c-1-0.5-2.1-1-3.1-1.7c-4,3.6-8.8,7.8-14.5,12.2
	C583.1,592.8,583.2,592.8,583.3,592.8z M372.3,574.1c0.1-0.1,0.3-0.1,0.4-0.2c-1.5-2.3-2.5-5.4-3.1-9.2c-1.2,0.9-2.5,1.9-3.7,2.8
	L372.3,574.1z M247.4,479.3L227,464.1c-1.1,1.1-2.2,2.2-3.2,3.3l2.4,5.9l17.5,10.7C244.8,482.4,246.1,480.9,247.4,479.3z M257.4,443
	c-1.3-0.8-2.1-2.1-2.1-3.6c0-2.4,2.1-4.3,4.7-4.3c2.6,0,4.7,1.9,4.7,4.3c0,0.4-0.1,0.9-0.2,1.3c2.4-0.7,4.9-1.3,7.3-1.9
	c-0.3-0.5-0.4-1.1-0.4-1.7c0-2.4,2.1-4.3,4.7-4.3c2.6,0,4.7,1.9,4.7,4.3c0,0,0,0,0,0c2.8-0.4,5.6-0.7,8.4-0.9
	c-1.4-0.8-2.3-2.1-2.3-3.7c0-2.4,2.1-4.3,4.7-4.3c2.6,0,4.7,1.9,4.7,4.3c0,1.4-0.8,2.7-1.9,3.5c1.8,0,3.6-0.1,5.4,0
	c1.2,0,2.3,0,3.5,0.1c3.1-1.7,6.3-3.5,9.3-5.4l-6.5-16.4c-5.9,4.5-12.5,8-19.3,10.5c0,0,0,0-0.1,0c-16.4,6.1-34.8,6.6-51.7,2.6
	c-0.1,0-0.2,0-0.3-0.1c-3.9-1-7.7-2.1-11.5-3.6c0,0-0.1,0-0.1,0c-3.7-1.4-7.3-3.1-10.7-5c0,0-0.1,0-0.1-0.1
	c-1.1-0.6-2.2-1.2-3.2-1.9c-2.3-1.4-4.5-2.9-6.5-4.5c0,0-0.1,0-0.1-0.1c-0.3-0.2-0.5-0.4-0.8-0.7l10.5,26.5
	c11.6,5.1,23.8,8.1,35.5,9.1C250.7,445.6,254,444.2,257.4,443z M305.2,421.4c2.6,0,4.7,2,4.7,4.3c0,2.4-2.1,4.3-4.7,4.3
	c-2.6,0-4.7-1.9-4.7-4.3C300.5,423.4,302.6,421.4,305.2,421.4z M214.2,434c-2.6,0-4.7-2-4.7-4.3c0-2.4,2.1-4.3,4.7-4.3
	c2.6,0,4.7,1.9,4.7,4.3C218.9,432.1,216.8,434,214.2,434z M228.7,439.3c-2.6,0-4.7-2-4.7-4.3c0-2.4,2.1-4.3,4.7-4.3
	c2.6,0,4.7,1.9,4.7,4.3C233.4,437.4,231.3,439.3,228.7,439.3z M244,442.8c-2.6,0-4.7-1.9-4.7-4.3c0-2.4,2.1-4.3,4.7-4.3
	c2.6,0,4.7,2,4.7,4.3C248.7,440.9,246.6,442.8,244,442.8z M101.7,225.1c-1.8,0-3.2,0.9-4.3,2.7c-1.1,1.8-1.2,3.8-0.3,6
	c0.7,1.1,1.7,2.1,3,2.9c2.3-3.7,4.8-7.4,7.4-10.9C104.4,225.3,102.4,225.1,101.7,225.1z M170.1,331.7c2.6,0,4.7,2,4.7,4.3
	c0,1.4-0.7,2.6-1.9,3.4l3.5,8.9c0.5-3,1.2-6,2.1-8.9c0,0,0,0,0-0.1c3-9.6,8.2-18.3,15.4-25.1c0-0.2,0.1-0.3,0.3-0.3h0
	c4.5-4.2,9.9-7.7,16-10.1c8.2-3.3,15.9-4.8,22.8-5c11.5-0.3,21,3.2,27.7,8.5c1.8,1.4,3.4,3,4.9,4.7l-7.8-19.7c-7-4-15.3-6.3-24.2-7
	c-1.8-0.2-3.6-0.2-5.4-0.2c-17.6,0-36.4,6.5-50.2,20.2c-4.8,4.8-8.8,10.4-12,16.7l3.9,9.7C170,331.7,170,331.7,170.1,331.7z
	 M257.4,296c1.3,0,2.4,1,2.4,2.2c0,1.2-1.1,2.2-2.4,2.2c-1.3,0-2.4-1-2.4-2.2C255.1,297,256.1,296,257.4,296z M247.8,291.3
	c1.7,0,3,1.3,3,2.8c0,1.5-1.4,2.7-3,2.7c-1.7,0-3-1.2-3-2.7C244.7,292.6,246.1,291.3,247.8,291.3z M235.9,288.7c2,0,3.7,1.5,3.7,3.3
	c0,1.9-1.7,3.4-3.7,3.4c-2,0-3.7-1.5-3.7-3.4C232.3,290.2,234,288.7,235.9,288.7z M222.6,288.5c2.4,0,4.3,1.8,4.3,3.9
	c0,2.2-1.9,3.9-4.3,3.9c-2.3,0-4.2-1.8-4.2-3.9C218.4,290.2,220.3,288.5,222.6,288.5z M208.5,291.4c2.6,0,4.7,1.9,4.7,4.3
	c0,2.4-2.1,4.3-4.7,4.3c-2.6,0-4.7-2-4.7-4.3C203.8,293.3,205.9,291.4,208.5,291.4z M195.2,297.9c2.6,0,4.7,1.9,4.7,4.3
	c0,2.4-2.1,4.3-4.7,4.3c-2.6,0-4.7-1.9-4.7-4.3C190.5,299.8,192.6,297.9,195.2,297.9z M183.8,307.3c2.6,0,4.7,2,4.7,4.3
	c0,2.4-2.1,4.3-4.7,4.3c-2.6,0-4.7-1.9-4.7-4.3C179.1,309.3,181.2,307.3,183.8,307.3z M175.7,318.7c2.6,0,4.7,2,4.7,4.3
	c0,2.4-2.1,4.3-4.7,4.3c-2.6,0-4.7-1.9-4.7-4.3C170.9,320.7,173.1,318.7,175.7,318.7z M223.9,453.9c-1.2-6-5.3-10.4-10.7-12.9
	l9.4,23.6C224.2,461.6,224.8,457.9,223.9,453.9z M224.5,453.7c0.9,4.3,0.2,8.2-1.5,11.3c6.2-6.4,13.5-12,22.1-16.6
	c-10.7-1.2-21.6-3.9-32.2-8.4l0.1,0.1C218.7,442.8,223.2,447.4,224.5,453.7z M309.3,507.8c-1.1-1.2-2.4-2.2-4-3
	c-2.4-1.2-5.3-1.9-8.6-2c-3.2,0-6.8,0.7-10.4,2.2c-3.3,1.4-6.2,3.3-8.5,5.7l13-1.2C296.5,505.1,304,504.9,309.3,507.8z M257.1,469.9
	l-15.3-17.1c-2.4,1.5-4.8,3.1-7,4.8l17.8,16.3C254,472.5,255.5,471.2,257.1,469.9z M165.5,318.9c-0.2,0.1-0.3,0.3-0.5,0.4l0.3,0.6
	c0.3-0.5,0.6-1.1,0.9-1.6C165.9,318.5,165.7,318.7,165.5,318.9z M165.1,318.5c0.9-0.9,1.7-1.7,2.4-2.6c0.5-0.7,0.9-1.4,1.4-2.2
	c2.8-5.3,1.3-10.7-2.4-14c-2.3-2.1-5.4-3.4-9-3.5c-0.6,0-1.1,0-1.7,0.1l8.9,22.5C164.8,318.7,165,318.6,165.1,318.5z M220.1,283.1
	c-0.8,0.5-1.6,0.9-2.5,1.1c2.9-0.4,5.8-0.7,8.7-0.7c1.7,0,3.4,0,5.1,0.1c-0.4-0.1-0.8-0.2-1.3-0.4c-3.1-1.2-5.3-3.8-4.5-7.5
	c0.8-3.5,4.1-5,6.7-4.9c1.1,0,2,0.4,2.7,0.9c0.7,0.5,1.2,1.4,1.4,2.4c0.2,1.1-0.3,2.3-1.2,3.1c-0.9,0.8-2.2,1.2-3.7,0.8
	c-0.4-0.1-0.2-0.6,0.2-0.5c1.3,0.4,2.4,0,3.1-0.7c0.8-0.7,1.1-1.7,1-2.7c-0.2-0.9-0.6-1.6-1.2-2.1c-0.6-0.5-1.4-0.7-2.4-0.8
	c-2.4-0.1-5.4,1.3-6.1,4.5c-0.7,3.4,1.3,5.7,4.2,6.9c2.9,1.1,6.8,0.9,9.8-0.9c3-1.8,4.6-4.8,4.6-7.6c0-2.6-1.3-5-4.2-6.1
	c-4.5-0.6-9.1-1-13.9-1c-1.8,0-3.6,0-5.4,0.1C226.6,270.8,226.1,279.5,220.1,283.1z M190.6,290.1c-3.2-1-5.7-3.6-5.3-7.3
	c0.4-3.2,2.7-4.9,5-5.2c2.3-0.2,4.7,0.9,5.3,3.2c0.3,1.1,0,2.2-0.7,3c-0.8,0.8-2,1.2-3.4,0.9c-0.4-0.1-0.2-0.6,0.1-0.5
	c1.3,0.3,2.3,0,2.9-0.7c0.6-0.6,0.8-1.6,0.6-2.5c-0.5-2-2.6-3-4.7-2.9c-2,0.2-4.1,1.7-4.5,4.7c-0.4,3.5,1.8,5.8,4.9,6.8
	c3.1,0.9,6.9,0.5,9.5-1.7c3-2.5,4.2-6.3,3.7-9.7c-0.6-3.2-2.9-6.1-6.9-7.2c-5.1,1.4-10.2,3.1-15.3,5.3c-2.6,1.1-5.1,2.3-7.6,3.5
	c0.3,0,0.6,0,0.9,0c5.1,0.3,8.8,3.2,10.4,6.9c1.6,3.5,1.3,7.7-1.1,10.9c4.2-3.1,8.7-5.7,13.4-7.8
	C195.3,290.8,192.8,290.8,190.6,290.1z M204.4,278.2c0.6,3.5-0.7,7.4-3.8,10.1c-0.5,0.4-1.1,0.8-1.6,1.1c5-2.1,10.1-3.6,15.3-4.6
	c-1.6,0-3.1-0.2-4.5-0.7c-3.1-1.2-5.3-3.8-4.5-7.5c0.7-3.5,4.1-5,6.7-4.9c1.1,0,2,0.3,2.7,0.9c0.7,0.5,1.2,1.4,1.4,2.4
	c0.2,1.1-0.3,2.3-1.1,3.1c-0.9,0.8-2.3,1.3-3.7,0.8c-0.4-0.1-0.2-0.6,0.2-0.5c1.3,0.4,2.3,0,3.1-0.7c0.8-0.7,1.2-1.7,1-2.7
	c-0.2-0.9-0.6-1.6-1.2-2.1c-0.6-0.5-1.4-0.7-2.4-0.8c-2.4-0.1-5.4,1.3-6.1,4.5c-0.7,3.4,1.3,5.7,4.2,6.8c2.9,1.1,6.8,0.9,9.7-0.9
	c5.9-3.6,6.2-12.3,0.4-15.4c-7.2,0.4-14.7,1.5-22.3,3.5C201.7,272.1,203.8,275,204.4,278.2z M118,227.1c-4-0.6-7.3-1-9.9-1.3
	c-2.7,3.6-5.2,7.3-7.6,11.1c1.2,0.6,2.6,1.1,4.2,1.5c2.2,0.5,4.6,1.3,7.3,2.3c3.2-4.5,6.8-8.8,10.5-13
	C121,227.5,119.5,227.3,118,227.1z M287.9,452.9l-3.1-14.2c-2.8,0.3-5.6,0.7-8.4,1.3l5.1,15.3C283.6,454.4,285.8,453.6,287.9,452.9z
	 M274.6,458.4l-7.3-16.3c-2.2,0.6-4.4,1.3-6.6,2c-0.6,0.2-1.3,0.5-2,0.7l9.9,16.9C270.6,460.5,272.6,459.4,274.6,458.4z M281,455.5
	l-5.1-15.4c-2.7,0.5-5.4,1.2-8.1,1.9l7.3,16.2C277.1,457.2,279,456.3,281,455.5z M268.2,461.9l-10-17c-2.7,1-5.3,2.1-7.9,3.2
	l12.6,17.2C264.7,464.2,266.4,463,268.2,461.9z M243.3,484.5l-16.9-10.3l4.3,10.9l9.1,4.5C241,487.8,242.1,486.1,243.3,484.5z
	 M262.5,465.7l-12.6-17.3c-2.7,1.3-5.3,2.7-7.7,4.1l15.2,17C259.1,468.2,260.8,466.9,262.5,465.7z M295,450.9l-1.4-12.9
	c-2.7,0.1-5.4,0.3-8.2,0.6l3.1,14.1C290.6,452.1,292.8,451.4,295,450.9z M234.7,495l1,2.6c0.3-0.6,0.5-1.2,0.8-1.9L234.7,495z
	 M239.6,490l-8.5-4.2l3.4,8.5l2.4,0.9C237.7,493.4,238.6,491.7,239.6,490z M302.6,449.4v-11.3c-2-0.1-4.1-0.1-6.1-0.1
	c-0.8,0-1.6,0-2.3,0l1.4,12.7C297.9,450.2,300.2,449.8,302.6,449.4z M311.2,438.9c-2.6-0.4-5.3-0.6-8-0.8v11.2
	c2.3-0.4,4.7-0.6,7-0.7L311.2,438.9z M485.7,539.9c0.9,0.4,1.9,0.7,2.8,1.1c-0.4-1.7-0.8-3.4-1-5.1L485.7,539.9z M286.4,514.1
	c0.9-1.4,2-2.7,3.2-3.8l-12.8,1.2c-0.1,0.1-0.2,0.2-0.3,0.3l7.4,10C284.2,518.9,285,516.2,286.4,514.1z M523.5,539.8
	c-5.1,2.2-9.7,4.1-12.6,6.8c-2,2-3.3,4.3-3.3,7.7c0.1,0.1,0.3,0.2,0.4,0.3c1.4,1.4,2.7,2.9,3.9,4.4l18.8-11.5
	C528.6,544.8,526.2,542.2,523.5,539.8z M511.7,416.6c-0.6-3.6-2.4-6.4-4.8-9.2c-4.5-5.3-11-10.7-14.3-20.6c-1,5.2-4.5,9.9-7.1,15.1
	c-2.8,5.5-4.7,11.5-1.7,19.2c2.1,1.2,4.2,2.7,6.2,4.3c0-0.2-0.1-0.4-0.1-0.5c-0.1-0.5,0.3-0.9,0.8-0.9c0.1,0,0.3,0,0.3,0
	c6.8,2.3,12.8,4.1,18.1,5.6C511.6,424.2,512.2,420,511.7,416.6z M460.6,415.4c-9.4-1.3-18.6-1.7-26.7-5c4.1,11.2,3.1,21.7,4,31.8
	c0.9,10.5,3.9,20.4,16.9,30.4c3.7-1.4,7.3-2.3,10.9-2.9c-10.4-9.1-13.2-17.5-14.1-25.3c-0.9-8,0.2-15.4-2.7-22.4
	c-0.1-0.2,0-0.4,0.3-0.4c0,0,0,0,0.1,0c6.6,1.7,15.2,2.6,23.1,4.7c7.3,1.9,14.2,4.8,18.5,10.2c0-2.9-0.3-5.7-0.6-8.6
	C480.8,419.4,470.6,416.8,460.6,415.4z M512.2,559.5c2.2,2.8,4,5.8,5.5,8.9l20.8-7.9c-1.9-4.4-4.4-8.6-7.5-12.6L512.2,559.5z
	 M521.4,578.5l20.9-3.8c-0.6-4.7-1.7-9.3-3.6-13.7l-20.8,7.8C519.4,572,520.6,575.2,521.4,578.5z M456.7,392.1
	c-2.7-1.3-5.6-1.9-8.4-1.9c-2.4,0-4.8,0.5-6.9,1.4c-4.2,1.8-7.7,5.3-8.9,10.4c2.6-3,5.8-4.4,8.7-4.5c3.6-0.2,6.8,1.5,8.7,4.1
	c2.1,3.1,2.3,7.3,1.1,11.1c2.2,0.3,4.5,0.5,6.8,0.8C455,405.8,455,398.8,456.7,392.1z M433,412.8v-0.2c-0.3-1.1-0.8-2.3-1.2-3.4
	c-0.2-0.5,0.2-1,0.8-1.1c0.1,0,0.3,0,0.4,0.1c1.1,0.5,2.2,1,3.4,1.4h0.2c0.8,0,1.6,0.3,2.3,0.7c3.3,0.9,6.8,1.5,10.5,2
	c1.1-3.5,1-7.3-0.8-10c-1.5-2.2-4.2-3.6-7.1-3.4c-3,0.1-6.2,1.7-9,5.8l-0.3-0.2c-0.2,0.3-0.6,0.2-0.8,0l-0.3,0.1
	c-4.8-9.7-1.4-18.7,5.6-24.2c4.4-3.4,10.2-5.5,16.3-5.5c3.4,0,7,0.6,10.4,2c5.6-9.1,13.2-17.8,19.5-26.7c-4-0.5-8.1-0.7-12.1-0.7
	c-13,0.1-25.5,2.9-35.9,8.1c-13.8,7-23.9,18.1-26.7,33c-1.1,6,0.2,14.3,4.5,20.8c4.2,6.3,11.3,10.9,22.2,10.1
	c-0.3-2.3-0.8-4.7-1.4-7C433.2,414.1,433,413.5,433,412.8z M441.3,403.5c1.6,0,2.8,1.2,2.8,2.6s-1.3,2.6-2.8,2.6
	c-1.6,0-2.8-1.2-2.8-2.6S439.8,403.5,441.3,403.5z M458.2,357.8c3.9,0,7,2.9,7,6.4c0,3.6-3.1,6.5-7,6.5c-3.9,0-7-2.9-7-6.5
	C451.2,360.7,454.3,357.8,458.2,357.8z M436.9,362.9c3.6,0,6.5,2.7,6.5,6c0,3.3-2.9,5.9-6.5,5.9c-3.6,0-6.5-2.7-6.5-5.9
	C430.4,365.5,433.3,362.9,436.9,362.9z M413.8,398.1c0-2.5,2.3-4.6,5-4.6c2.7,0,5,2.1,5,4.6c0,2.5-2.2,4.6-5,4.6
	C416,402.7,413.8,400.7,413.8,398.1z M423.9,414.1c-2.2,0-3.9-1.6-3.9-3.6c0-2,1.7-3.6,3.9-3.6c2.2,0,3.9,1.6,3.9,3.6
	C427.8,412.5,426.1,414.1,423.9,414.1z M422.4,387.5c-3.2,0-5.8-2.4-5.8-5.3c0-2.9,2.6-5.3,5.8-5.3c3.2,0,5.8,2.4,5.8,5.3
	C428.2,385.1,425.6,387.5,422.4,387.5z M472.4,426.8c-7.8-2-16.1-2.9-22.7-4.5c2.7,7.1,1.7,14.3,2.5,22.1
	c0.9,7.8,3.7,16.1,14.3,25.3c3.9-0.6,7.9-0.8,11.8-0.7c-11.1-9.1-13.2-20.2-13.5-31.6c0-0.2,0.2-0.4,0.4-0.4c0.1,0,0.2,0,0.3,0.1
	c5.9,5.4,10.5,7.1,14.7,8.8c3.7,1.5,7.1,2.9,10.2,6.9c0.3-5,0.7-10.2,0.7-15.2C486.9,431.8,479.9,428.8,472.4,426.8z M437.6,381.5
	c-6.2,4.8-9.4,12.4-6.1,20.9c1.1-5.6,4.8-9.5,9.5-11.5c2.6-1.1,5.4-1.6,8.3-1.4c2.6,0.1,5.1,0.7,7.6,1.9c1.2-4.6,3.3-8.9,5.8-13.2
	c-3.2-1.3-6.5-1.8-9.8-1.8C447.2,376.4,441.7,378.3,437.6,381.5z M529,543c3.1,3.4,5.8,7,8,10.8c7.5-6.1,14.4-12.4,20.6-18.7
	c-1-4.6-2.5-9.3-4.3-14.1C546.4,528.5,538.3,535.9,529,543z M430.1,428.3l5.9,9.9c-0.2-3.3-0.3-6.6-0.4-9.9
	C433.7,428.4,431.9,428.4,430.1,428.3z M479.8,446.5c-3.9-1.6-8.6-3.4-14.2-8.3c0.5,11.2,2.8,21.9,14,30.7c3.5,0.2,6.9,0.5,10.4,1
	c-0.3-4.7-0.2-9.5,0.2-14.6c0-0.5,0-1,0.1-1.4C487,449.6,483.8,448.1,479.8,446.5z M490.9,542.9c2.6,7.5,7.9,13.7,15.8,17
	c-1.7-6.8-0.3-11.2,2.9-14.3c3.5-3.4,8.9-5.3,14.4-7.8c5.5-2.5,11.1-5.4,15.2-10.7c3.9-5,6.5-12.1,6.3-22.9
	c-0.2-0.4-0.4-0.7-0.6-1.1c-1.1,0.1-2.3,0.1-3.4,0.2c-1.1,1.1-2.1,2.2-3.3,3.2c0.4,7.1-1,11.8-3.6,15c-2.6,3.4-6.5,5.1-10.6,6.6
	c-4.1,1.5-8.6,2.6-12.5,4.6c-3.9,2-7.3,4.8-9.5,9.7c-0.1,0.2-0.4,0.2-0.5,0c-3.6-5.8-4.2-12.6-1.6-19c-3.8,0.4-7.3,0.4-10.6,0
	c-1.2,6.4-0.9,12.9,1,18.7C490.8,542.2,490.9,542.5,490.9,542.9z M507.2,588.3c1.5-0.2,2.9-0.3,4.4-0.5c0-0.1,0-0.3,0-0.5
	c0-1.4,1.2-2.5,2.8-2.5c1.5,0,2.8,1.1,2.8,2.5c1.2-0.1,2.5-0.2,3.7-0.2c-0.8-10.9-5.2-21.4-13-29.9c0.2,1.2,0.5,2.4,0.9,3.8
	c0.2,0.6-0.5,1.2-1.1,0.9c-4.5-1.6-8.3-4.1-11.3-7.1c0.4,0.7,0.6,1.5,0.6,2.4c0,3.1-2.7,5.6-6.1,5.6c-3.4,0-6.1-2.5-6.1-5.6
	c0-3.1,2.8-5.6,6.1-5.6c1.4,0,2.6,0.4,3.6,1.1c-2.3-2.8-4-6-5.2-9.4c-6.2-2.7-13.3-5-21.1-5.7c1.1,2.9,2.1,5.7,2.9,8.2
	c0.7-0.3,1.5-0.4,2.3-0.4c3.4,0,6.2,2.6,6.2,5.7c0,3.1-2.7,5.6-6,5.7c0.3,2.4,0.4,4.5,0.2,6.4c0,0.3-0.1,0.6-0.1,0.9
	C490,567.4,501.6,576.7,507.2,588.3z M510.8,573.9c2.1,0,3.8,1.6,3.8,3.5c0,2-1.7,3.6-3.8,3.6c-2.1,0-3.9-1.6-3.9-3.6
	C507,575.5,508.7,573.9,510.8,573.9z M503.1,562.2c2.8,0,5,2.1,5,4.6c0,2.6-2.3,4.6-5,4.6c-2.8,0-5.1-2-5.1-4.6
	C498,564.3,500.2,562.2,503.1,562.2z M558.8,514c-2.2-0.9-4.4-2.3-6.5-4c1.2,2.6,2.4,5.2,3.4,7.7C556.8,516.4,557.8,515.2,558.8,514
	z M490.6,580c2.2,3,3.9,6.3,4.9,9.9c2.3-0.3,4.7-0.7,7.2-1c1.1-0.2,2.2-0.3,3.3-0.4c-5.6-11.2-16.7-20.2-32.5-23.2
	c-0.1,0.9-0.3,1.8-0.5,2.7C480.6,570.2,486.5,574.5,490.6,580z M467.2,577.7c-0.3,0.3-0.6,0.5-0.9,0.8c6,2.7,9.5,8.3,10.3,14.5
	c0.3-0.1,0.6-0.1,0.9-0.2c1.5-0.3,3.2-0.6,4.8-0.9c-1.3-3.1-3.3-6.3-6.1-8.9C473.8,580.7,470.8,578.8,467.2,577.7z M489.9,580.5
	c-3.9-5.3-9.7-9.5-17.1-11.8c-0.9,3.3-2.3,5.9-4.1,7.7c3.5,1.2,6.5,3.1,8.9,5.4c0.5,0.5,0.9,0.9,1.4,1.4c0.2,0.3,0.5,0.5,0.7,0.8
	c0,0,0,0,0,0c0.3,0.4,0.6,0.7,0.9,1.1c0,0.1,0.1,0.1,0.1,0.2c0.2,0.2,0.3,0.4,0.5,0.6c1.3,1.9,2.3,3.8,3.1,5.7
	c3.2-0.5,6.7-1.1,10.4-1.6C493.6,586.6,492,583.4,489.9,580.5z M465.8,578.9c-2,1.6-3.9,2.9-5.8,4c0.4,0.1,0.8,0.2,1.2,0.4
	c4.4,1.7,8,5.7,7.9,11c1.8-0.3,4.1-0.7,6.9-1.2C475.2,587,471.7,581.5,465.8,578.9z M545.8,500.7c-1.9-11.6-3.2-16.8-7.3-21.7
	c-2.5-3-5.9-4.9-9.7-7.1c-3.6-2.1-7.5-4.4-11.2-8c-0.8,11.6,1.8,20,6.8,26c4.8,5.8,12,9.3,20.7,11.5
	C545.1,501.1,545.4,500.9,545.8,500.7z M166.9,299.3c3.4,3,5,7.7,3.5,12.4c2-2.7,4.1-5.2,6.4-7.5c1.1-1.1,2.3-2.1,3.4-3.2
	c-2.6,1.2-5.8,1.3-8.5,0.5c-3.5-1.1-6.2-3.9-5.7-7.9c0.4-3.2,2.7-5,5.2-5.4c2.4-0.4,5,0.8,5.9,3.3c0.4,1.1,0.1,2.3-0.7,3.2
	c-0.8,0.8-2.1,1.3-3.7,0.9c-0.3-0.1-0.2-0.6,0.2-0.5c1.4,0.4,2.5,0,3.1-0.7c0.7-0.7,0.9-1.7,0.6-2.7c-0.8-2.3-3.1-3.2-5.2-2.9
	c-2.2,0.3-4.3,1.9-4.7,4.9c-0.5,3.8,2,6.3,5.3,7.3c3.3,1,7.4,0.5,10.2-1.8c3.8-3.2,4.5-8.1,2.8-12.2c-1.7-3.8-5.5-6.7-11-6.6
	c-0.3,0-0.6,0-0.9,0c-6.9,3.6-13,7.7-18.6,12.2l1.2,3.1c0.4,0,0.8-0.1,1.2-0.1C160.7,295.7,164.3,297,166.9,299.3z M525.1,539.1
	c1.2,1.1,2.5,2.3,3.6,3.5c9.4-7.2,17.5-14.7,24.5-22.2c-1.6-4.2-3.6-8.6-5.9-13c-0.3,9.3-2.9,15.9-6.6,20.6
	C536.4,533.5,530.6,536.6,525.1,539.1z M502,541.6c2.2-4.7,5.6-7.5,9.4-9.5c4-2,8.5-3.1,12.6-4.6c4.1-1.4,7.8-3.2,10.4-6.4
	c2.4-3,3.8-7.4,3.5-14.2c-7.6,6.6-16.6,11.2-25.6,13.9c-3.9,1.2-7.9,2-11.6,2.4C498.1,529.4,498.7,535.9,502,541.6z M487.9,523
	c-1.2-0.2-2.4-0.5-3.4-0.8c-2.3-0.7-4.3-1.6-6.2-2.5l-3.7,17.1c3.7,0.7,7.3,1.8,10.5,3l2.2-4.9C487,530.9,487.1,526.9,487.9,523z
	 M493.6,502.4c-7.2-2.4-12.7-7.4-15.1-14c-0.1-0.3,0.1-0.5,0.4-0.5h0.1c3.9,1.3,7.1,1,10.3,0.7c2.5-0.2,5-0.5,7.5,0.1
	c-1.4-1.8-2.6-3.8-3.7-5.8c-0.4-0.7-0.7-1.4-0.9-2.1c-4.2-1.2-8.7-1.9-13.2-2c-6.3-0.1-12.9,1.1-19,3.6c5.5,3.9,8.5,10.7,12.6,16.8
	c4.2,6.3,9.3,11.8,19.3,13.1c8.9,1.2,23.4-1.4,36.1-9.3c-3.4-0.3-6.5-0.8-9.3-1.4C509.4,504.7,500.7,504.8,493.6,502.4z
	 M335.5,549.1c-7.5,1.7-15.2,1.8-22.4,0.5l12.7,20.4c0.1,0,0.2,0,0.3,0l13.5-22C338.2,548.4,336.8,548.8,335.5,549.1z M477.8,519.4
	c-0.8-0.4-1.5-0.8-2.3-1.2c-1.8-0.2-3.6-0.4-5.4-0.4c-2-0.1-3.9-0.1-5.8-0.1c-0.4,0-0.7,0-1.1,0v7.8l3.5,8.9
	c0.2,0.5,0.4,0.9,0.6,1.4c2.3,0.2,4.5,0.5,6.7,0.8L477.8,519.4z M298.5,566.4c5.8,2.1,12.2,3.3,18.6,3.6l-7.4-11.4L298.5,566.4z
	 M340.8,547.6l-13.7,22.3c3.1-0.2,6.2-0.7,9.2-1.3l7.9-12.7c0.1-0.1,0.2-0.1,0.3-0.1c0,0,0.1,0,0.1,0l12,4.7c2-1.3,3.9-2.7,5.7-4.2
	l-21-8.9C341.2,547.5,341,547.5,340.8,547.6z M337.1,568.4c2.4-0.5,4.7-1.1,7-1.9c4.3-1.4,8.3-3.3,12-5.6l-11.5-4.5L337.1,568.4z
	 M302.9,546.6c-3.8-1.6-7.3-3.6-10.1-6l-2.2,22.1c0,0,0,0,0,0l20-13.8C307.8,548.4,305.3,547.6,302.9,546.6z M272.9,517.4
	c-1.7,3.3-2.6,6.9-2.8,10.7l6.5-5.3L272.9,517.4z M342.5,547l20.5,8.7c0.1-0.1,0.2-0.2,0.3-0.3l-0.6-20.8
	C356.9,540.2,349.9,544.3,342.5,547z M291.5,539.6l-20.8-3c0.5,2.6,1.3,5,2.2,7.3l11.7,1.8c0.2,0,0.3,0.2,0.3,0.3l-1.7,11.8
	c2,1.7,4.2,3.2,6.5,4.6L292,540C291.8,539.8,291.7,539.7,291.5,539.6z M283.9,523.2l-7.9-10.6c-1.1,1.3-2.1,2.8-2.9,4.3l4,5.9
	c0.1,0.1,0,0.2,0,0.3l-7.1,5.7c0,1.1,0,2.3,0.1,3.4c0.1,0.9,0.2,1.7,0.3,2.5l13.5-10.9C283.9,523.6,283.9,523.4,283.9,523.2z
	 M284.4,527.3c-0.2-0.8-0.3-1.7-0.3-2.5l-13.5,10.9c0,0,0,0.1,0,0.1l20,2.9C287.4,535.4,285.2,531.6,284.4,527.3z M273.2,544.4
	c2.2,5.1,5.5,9.4,9.5,12.9l1.6-11.2L273.2,544.4z M311.6,549.3l-20.2,14c1.7,0.9,3.6,1.8,5.5,2.5c0.4,0.1,0.7,0.3,1.1,0.4l11.8-8.1
	c0,0,0.1,0,0.1,0c0.1,0,0.2,0,0.3,0.1l7.7,12c2.3,0.1,4.7,0.1,7,0l-12.9-20.7C311.8,549.3,311.7,549.3,311.6,549.3z M372.9,477.9
	l-0.6,0.4c1.2,2.3,2.2,4.6,2.9,6.9l1.1-0.4C375.4,482.4,374.2,480.2,372.9,477.9z M457.5,498c-2.9-4.6-5.8-9-10-12.4l9.8,24.9
	C458.5,506.3,458.5,502.1,457.5,498z M470.2,516.2c0.8,0,1.7,0.1,2.5,0.1c-5.9-4.2-9.6-9.5-13-14.7c-0.5-0.8-1-1.6-1.4-2.3
	c0.7,4,0.5,8-0.7,11.9l2,5c1.5-0.1,3.1-0.1,4.7-0.2C466.3,516.1,468.2,516.1,470.2,516.2z M460.3,517.8l2.4,6.2v-6.3
	C461.9,517.7,461.1,517.8,460.3,517.8z M450.2,470.9c-2.6,0.6-5.3,1.2-7.9,1.7l2.1,5.3c2.9-1.8,5.8-3.4,8.7-4.6
	C452.1,472.5,451.2,471.7,450.2,470.9z M447.7,483.7c6.2,4.7,9.7,11,13.6,17.2c3.7,5.8,7.8,11.5,14.8,15.8c0.2,0,0.3,0.2,0.5,0.3
	c2.4,1.4,5.2,2.7,8.4,3.7c6.5,2.1,16.5,1.8,26.8-1.3c9.7-2.9,19.7-8.2,27.5-16c-3.7,0.1-7.2,0-10.4-0.3c-12.9,8.2-27.8,10.9-37,9.7
	c-10.1-1.3-15.5-7.1-19.7-13.4c-4.2-6.3-7.3-13.2-12.8-17c-0.2-0.1-0.1-0.4,0-0.4c5.6-2.3,11.6-3.6,17.3-3.8
	c5.4-0.2,10.6,0.5,15.4,1.8c-1-2.7-1.5-5.6-1.9-8.5c-4.8-0.7-9.6-1.1-14.3-1.1c-10.3,0-20.5,2.3-30.8,9l1.3,3.3
	c0.3,0.2,0.5,0.3,0.7,0.5C447.4,483.4,447.6,483.5,447.7,483.7z M376.5,510.7l5.1-6.3c-0.1-0.7-0.2-1.5-0.3-2.2l-3.8-5.9
	C377.9,501.2,377.5,506.1,376.5,510.7z M377.3,487c-0.2-0.6-0.5-1.1-0.7-1.7l-1.1,0.4c0.6,1.6,0.9,3.3,1.3,4.9L377.3,487z
	 M383.6,485.2c-1.8-0.5-3.6-1-5.3-1.5c0.6,1.4,1.2,2.9,1.7,4.3C381.3,486.9,382.4,486,383.6,485.2z M372.6,464.9l-2.1,5.3
	c2.7,3.6,5,7.5,6.9,11.5c5.8,1.9,11.9,3.3,18.3,4.3l4.9-12.5C390.5,472,381.1,469,372.6,464.9z M377.4,495.1l3.7,5.8
	c-0.7-4.4-1.9-8.7-3.4-12.8l-0.7,4.3C377.2,493.2,377.3,494.2,377.4,495.1z M656.3,331.6c-1.2-3.9-2.8-7.5-4.5-10.9
	c-1.8-0.1-3.7-0.4-5.6-0.8c-0.7,3-1.6,6-2.7,9c1,1.3,2,2.7,3,4C649.8,332.2,653,331.8,656.3,331.6z M687.6,262.4
	c-8.6-4.4-17.4-5.9-25.5-4.2c1.2,0,2.4,0,3.6,0.1c7.6,0.7,15.3,4.8,20.5,12c5.7,7.7,6.9,16.3,4.9,24.2c3.8-6.5,7.7-12.3,11.7-17.3
	c0.5-0.7,1.1-1.4,1.6-2C699.1,269.7,693.4,265.4,687.6,262.4z M682.5,309.6c-6.6,6.7-16.1,11.1-27,11.2c1.7,3.3,3.1,6.8,4.2,10.7
	c2.2,0,4.4,0.2,6.5,0.4c0.8-2.5,1.9-4.8,3.3-7c2.4-3.5,5.8-6.4,10.3-8.5c1.3-2.8,2.6-5.6,3.9-8.2
	C683.3,308.8,682.9,309.2,682.5,309.6z M671,325.8c-1.3,1.9-2.3,4-3,6.4c1.7,0.2,3.3,0.6,4.9,1l0.5-1.2c1.8-4.6,3.6-8.9,5.5-13.1
	C675.4,320.7,672.9,323,671,325.8z M666.6,246.6c-9.3,0.7-18.7,3.9-26.1,11.4c-0.6,0.6-1.2,1.3-1.8,2c2.1,4,3.8,8.2,5.3,12.5
	c0.2-1.9,0.8-3.7,2-5.4c3.1-4.5,7.5-7.2,12.4-8.3c3.8-1.4,7.9-1.9,12-1.7c5.7,0.2,11.7,2,17.5,4.9c5.9,3,11.7,7.3,17,12.8
	c3-3.7,6-7.2,8.8-10.3c-6.5-6.2-14-11.1-22.5-14.3C684.8,247.7,675.8,245.9,666.6,246.6z M648.4,297.7c3,0.4,6,0.3,8.8-0.4
	c6.1-1.4,11.1-5,12.7-8.8c1.2-2.9,1-5.9-0.3-8.2c-1.4-2.3-3.9-4-7.4-4.3c-3.4-0.2-5.2,1.4-5.5,3.1c-0.3,1.7,1.1,3.9,5.3,4.9
	c1.1,0.2,0.7,1.8-0.4,1.5c0,0-0.1,0-0.1,0c-7,1.4-12.4-0.9-15.2-4.8c0,0,0,0,0-0.1c0.8,3.7,1.5,7.5,1.9,11.4
	C648.3,294,648.4,295.8,648.4,297.7z M666.4,342.2c-0.1,2.1,0,4.4,0.1,6.8l5.1-12.9c-1.5-0.3-3-0.6-4.5-0.9
	C666.8,337.4,666.5,339.7,666.4,342.2z M617.2,412.8c-8.7,11.8-10.4,26.1-6.1,37.7c2,5.3,5.3,10,9.7,13.8l7.3-18.4
	c-4.6-9.7-1.7-22.4,5.1-30.8c2.9-3.5,6.5-6.5,10.6-8.9l5.5-13.8C636.8,395.1,625.2,401.8,617.2,412.8z M664.7,342.1
	c0.1-2.5,0.3-4.9,0.8-7.2c-1.6-0.2-3.3-0.3-4.9-0.3c0.1,0.4,0.2,0.7,0.3,1.1c2,8.2,1.9,15.8,0.5,22.3c0.3,0.6,0.6,1.2,0.9,1.8
	l2.9-7.4C664.8,348.8,664.6,345.3,664.7,342.1z M726.5,247.4C726.4,247.4,726.4,247.4,726.5,247.4c0.6,0.8,1.3,1.5,2,2.2
	c0.7-0.6,1.3-1.1,2-1.6c4.1-3.3,7.4-6.2,9.8-8.7c-1-1.3-2-2.6-3.1-3.8L726.5,247.4z M650.2,378.6c-2.2,2.2-4.5,4-7,5.5
	c0.7,2.4,1.4,4.9,2,7.4c1.6-0.4,3.2-0.8,4.8-1.1l4.4-11.1c-0.4-1.4-0.8-2.8-1.3-4.1C652.3,376.5,651.3,377.5,650.2,378.6z
	 M633.7,415.5c-6.6,8.1-9.5,20.3-5.3,29.8l15.2-38.2C639.7,409.3,636.4,412.2,633.7,415.5z M654.4,373.6c0.4,1.1,0.7,2.2,1,3.2
	l6.1-15.3c-0.2-0.5-0.4-1-0.7-1.5C659.5,365.3,657.2,369.8,654.4,373.6z M681.4,308.7c9.9-10,13-25.1,3.7-37.8
	c-5-6.8-12.4-10.7-19.5-11.4c-7.2-0.7-14.1,1.9-18.4,8.2c-2.7,3.9-2.4,8.8,0.2,12.3c2.3,3,6.1,5,11.4,4.6c-2.8-1.4-4.1-3.6-3.8-5.6
	c0.4-2.7,3.3-4.8,7.3-4.5c4.1,0.3,7.1,2.3,8.7,5.1c1.6,2.8,1.8,6.3,0.5,9.5c-1.9,4.5-7.3,8.2-13.8,9.7c-2.9,0.7-6,0.9-9.2,0.5
	c0,3.3-0.1,6.6-0.5,9.9c2.5,3.2,4.8,6.6,6.8,10.4C665.6,319.7,674.9,315.3,681.4,308.7z M619.8,237.8c2.5-2.3,5.2-4.4,8.1-6.3
	c-4.1,0.4-8.2,0.9-12.2,1.5L619.8,237.8z M665.5,232.7c-3.1-0.4-6.3-0.8-9.5-1.3c-3.2-0.5-6.3-1.1-9.2-1.6c0,0.7-0.1,1.5-0.2,2.2
	c-0.1,0.5-0.6,0.8-1.1,0.7c-5.2-1.4-10.6-1.6-16-1.3c-3.3,2-6.3,4.4-9.1,6.9c3.1,2.1,6.1,4.7,8.8,7.8c3.3-2.9,7.2-5.4,11.7-7.6
	C648.7,234.8,657,233,665.5,232.7z M637.9,258.4c0.4-0.5,0.9-1,1.4-1.5c7.7-7.9,17.6-11.2,27.2-11.9c2.4-0.2,4.8-0.2,7.1-0.1
	c6.9,0.4,13.3,1.9,18.2,3.7c8.7,3.3,16.4,8.3,22.9,14.6c2-2.2,4-4.3,5.9-6.3c-1.7-1.8-3.5-3.5-5.4-5.1
	c-20.3-17.4-50.3-23.3-73.5-12.2c-4.4,2.1-8.2,4.7-11.5,7.5c2.6,3.1,5,6.6,7.2,10.5C637.6,257.9,637.7,258.1,637.9,258.4z
	 M647.4,313.7c-0.3,1.6-0.6,3.3-1,4.9c1.5,0.3,3.1,0.6,4.5,0.7C649.8,317.4,648.6,315.5,647.4,313.7z M218.5,329.9l-5.7-26.5
	c-0.8,0.3-1.5,0.5-2.3,0.9c-2.5,1-4.9,2.2-7.2,3.6l11.2,24.9C215.7,331.7,217.1,330.8,218.5,329.9z M718.5,240
	c2.6,2.2,5.1,4.5,7.6,7.1l10.7-12c-2.3-2.7-4.7-5.3-7.1-7.8c-0.7,0.1-1.4,0.3-2.1,0.4L718.5,240C718.6,239.9,718.5,240,718.5,240z
	 M613.6,233.4c0.5,0.8,1.4,1.6,2.6,2.3c0.7,0.4,1.4,0.8,2.1,1.2l-3.2-3.7C614.6,233.2,614.1,233.3,613.6,233.4z M710.1,230.7
	c-1.2,0.2-2.4,0.4-3.7,0.6c0,0-0.1,0-0.1,0c0.8,0.5,1.7,1,2.5,1.5L710.1,230.7z M718.1,239.6l8.6-11.9c-4.8,0.9-10.1,1.9-15.9,2.9
	l-1.5,2.6C712.3,235.1,715.2,237.3,718.1,239.6z M679.2,233.7c13.4,2.2,26.4,8.2,36.9,17.2c1.9,1.6,3.7,3.3,5.4,5.1
	c2.2-2.1,4.2-4.1,6.3-5.8c-6.9-7.8-14.5-13.9-22.6-18.5c-8.3,1.4-15.9,2.1-22.6,2.1C681.5,233.7,680.4,233.7,679.2,233.7z
	 M645.1,231c0-0.5,0.1-1,0.1-1.5c-4.8-0.9-9.1-1.7-13-2.4c-6.6-1.3-10.4-2-11.3-2c-3.5,0-6,1.3-7.3,4c-0.5,1-0.7,1.9-0.6,2.8
	C623.1,230.3,634.3,228.4,645.1,231z M214,333.1l-11.3-25c-2.9,1.8-5.6,3.9-8.1,6.1l16.1,22C211.7,335.2,212.8,334.1,214,333.1z
	 M240.9,400.1l-5.8,26.8c3.2,0.8,6.5,1.4,9.8,1.8l2.9-27.7C245.5,400.8,243.2,400.5,240.9,400.1z M233.7,398.3l-10.2,25.1
	c3.6,1.4,7.3,2.5,11,3.4l5.8-26.8C238.1,399.5,235.9,399,233.7,398.3z M263.4,400.3l3.1,28.6c3.2-0.4,6.5-0.9,9.6-1.6L270,399
	C267.8,399.5,265.5,399.9,263.4,400.3z M255.8,401.1v28.3c3.4,0,6.8-0.1,10.1-0.5l-3.1-28.6C260.5,400.7,258.1,401,255.8,401.1z
	 M248.4,401l-2.9,27.8c3.2,0.4,6.5,0.6,9.7,0.7v-28.3C252.9,401.2,250.6,401.2,248.4,401z M609.2,451.1c-0.7-1.9-1.2-3.8-1.7-5.8
	l-3.7,3.3c0,0,0,0.1,0,0.1l15.3,19.8l0.9-2.4C615,462.1,611.4,456.9,609.2,451.1z M227.1,395.6l-14.3,22.7c3.3,1.8,6.7,3.4,10.2,4.8
	l10.2-25C231.1,397.4,229.1,396.6,227.1,395.6z M642.9,330.3c0,0.1-0.1,0.2-0.1,0.3l-1.4,3.4c1.2-0.3,2.4-0.6,3.6-0.9
	C644.3,332.2,643.6,331.3,642.9,330.3z M210.3,336.8l-16.1-22.1c-2.3,2.1-4.4,4.5-6.2,7l19.9,18.3
	C208.6,338.8,209.5,337.8,210.3,336.8z M205.5,344.2l-22.7-13.9c-1.4,2.9-2.6,5.9-3.6,9l24.8,8.4c0.3-1,0.7-2,1.2-2.9
	C205.2,344.6,205.3,344.4,205.5,344.2z M177,348.5l25.8,3c0.3-1.1,0.6-2.3,1-3.4l-24.8-8.4C178.2,342.6,177.5,345.5,177,348.5z
	 M207.6,340.5l-19.9-18.3c-1.7,2.4-3.3,5-4.7,7.6l22.7,13.9C206.3,342.6,206.9,341.5,207.6,340.5z M220.9,392.2
	c-0.1-0.1-0.3-0.2-0.4-0.3L203,412c2,1.5,4.1,2.9,6.3,4.3c1,0.6,2,1.2,3,1.8l14.2-22.7C224.6,394.4,222.7,393.4,220.9,392.2z
	 M590.5,483.5c-2.2,2.2-4.8,4.3-7.7,6.3c0.9,0,1.8,0,2.7,0c4.4,0.3,7.7,1.3,10.5,2.8c3.7,2,6.3,4.7,8.9,7.5c0.2,0.2,0,0.5-0.3,0.4
	c-9.6-2.9-18.5-0.2-27.3,2.1c-1.1,0.3-2.2,0.6-3.3,0.8l-4.4,11.1c3.9,0,8-0.7,12.1-1.7c6.2-1.5,12.4-3.7,18.6-4.8
	c1.2-0.2,2.4-0.4,3.6-0.5l5.9-14.9C606.2,487.9,600.8,484.5,590.5,483.5z M562.3,515.2c-1-0.3-2-0.6-3-1c-1.1,1.3-2.3,2.7-3.4,4
	c1.9,4.8,3.4,9.4,4.5,14c5.1-5.4,9.6-10.9,13.7-16.4c-1.8,0.2-3.5,0.3-5.3,0.3l-3.1,7.7L562.3,515.2z M483,329.9
	c-40.4-0.4-69.6,19.4-80.6,42.7l3.4,8.5l-7.6,19.1c2.5,7.8,6.4,14.2,11.4,18.8c0.2,0,0.4,0.2,0.5,0.4l0,0.2c0.7,0.6,1.5,1.3,2.3,1.8
	c2.2,1.6,4.7,3,7.3,4l1.7-4.4c-4.3-2-7.7-5-10-8.6c-4.6-6.8-6-15.4-4.8-21.9c2.8-15.4,13.3-27,27.6-34.1c10.7-5.3,23.4-8.2,36.7-8.2
	c4.3,0,8.7,0.3,13.1,0.8c1.1-1.5,2.1-3.1,3.1-4.7c0.2-0.3,0.5-0.4,0.8-0.4c0.3,0,0.6,0.2,0.7,0.4c1.4,2.3,2.9,4.4,4.5,6.3
	c1.6,0.4,3.2,0.8,4.7,1.2l-8.6-21.7C487,330,485,329.9,483,329.9z M577.1,502c8.5-2.2,17.3-4.8,26.8-2.3c-2.4-2.6-4.8-5-8.2-6.8
	c-3.1-1.7-7.1-2.7-12.5-2.7c-0.4,0-0.9,0-1.3,0c-1.2,0.8-2.4,1.5-3.7,2.2l-4.1,10.3C575.1,502.6,576.1,502.3,577.1,502z
	 M610.3,490.7l3.4-8.7l-13.4,1.9C604.8,485.6,608,487.9,610.3,490.7z M270.6,398.8l6.1,28.4c3.2-0.7,6.4-1.7,9.5-2.8l-9.1-27.5
	C274.9,397.6,272.7,398.3,270.6,398.8z M600.6,464.6c3.7,1.6,6.5,3.1,8.4,4.5c0.9,0.7,1.7,1.3,2.1,1.8c0.5,0.5,0.7,1.1,0.6,1.6
	c-0.1,0.5-0.6,0.9-1.2,1.1c-0.6,0.2-1.5,0.3-2.7,0.3c-2.2,0-5.3-0.5-9.5-1.4c-1.1,3.3-2.3,6.6-3.7,10c1.7,0.3,3.2,0.7,4.7,1.1
	l14.7-2.1l4.9-12.4l-15.2-19.7C603,454.5,602,459.6,600.6,464.6z M277.6,396.7l9.1,27.5c3-1.1,5.9-2.4,8.7-3.9l-11.7-26
	C281.7,395.2,279.6,396,277.6,396.7z M440.9,462.7c0,1.2-0.4,2.3-1.2,3.1l2.3,5.9c2.5-0.5,5-1,7.5-1.6c-6.4-5.9-9.7-12-11.5-18.1
	c-1.2,0.1-2.4,0.2-3.6,0.3l2,5.2C439,458.1,440.9,460.2,440.9,462.7z M284.2,394l11.7,26c2.9-1.6,5.7-3.3,8.4-5.3L290.5,391
	C288.4,392.2,286.3,393.1,284.2,394z M440.3,462.7c0-2.2-1.5-3.9-3.7-4.6l2.8,7.1C440,464.5,440.3,463.7,440.3,462.7z M350.8,520.6
	c-0.4,0.9-0.8,1.9-1.3,2.8l-0.2,0.4l0-0.1c-7.1,12.9-22.3,20.4-36.2,21c-5.6,0.2-11.1-0.6-15.7-2.7c1.9,1.2,4,2.3,6.2,3.2
	c9.1,3.7,20.6,4.8,31.5,2.3c17.9-4,35.2-17.1,39.7-37c2.6-11.4,1.2-24.2-6.2-35.4l-16,40.6C352.1,517.4,351.5,519,350.8,520.6z
	 M409.8,346.5c-5.8-3.4-10.4-5.6-13.6-6.7c-1.7-0.5-3-0.9-3.9-0.9c-1,0-1.5,0.2-1.7,0.4c-0.2,0.3-0.2,0.9,0.2,1.7
	c0.4,0.8,1.1,1.8,2.3,3.1c2.3,2.5,6.1,5.7,11.5,9.5c0,0,0,0,0,0.1c0.8-1.3,1.7-2.5,2.6-3.8C407.9,348.7,408.9,347.6,409.8,346.5
	C409.8,346.5,409.8,346.5,409.8,346.5z M389.3,233.3c-6-0.3-12.3-0.9-18.8-1.7c2.7,2.7,5.3,5.5,7.8,8.5L389.3,233.3z M427.3,265.8
	c1.8-0.7,3.7-1.3,5.5-2c0.1,0,0.2,0,0.3,0c0,0,0,0,0,0c2.4-0.9,4.8-1.7,7.2-2.5c-3.8-10.1-8.6-19.7-14.3-28.9
	c-1.9,0.2-3.9,0.4-5.8,0.6l-7.4,4C418.6,246.1,423.5,255.7,427.3,265.8z M386,249.9l31-16.6c-3.4,0.2-6.9,0.4-10.4,0.4
	c-0.3,0.9-1.2,1.7-2.4,1.7c-1.1,0-2.1-0.7-2.4-1.6c-3.3,0-6.6-0.1-10.1-0.3l-12.5,7.7C381.6,244,383.9,246.9,386,249.9z
	 M395.8,235.5c1.4,0,2.5,1.1,2.5,2.3c0,1.3-1.1,2.3-2.5,2.3c-1.4,0-2.5-1-2.5-2.3C393.2,236.6,394.4,235.5,395.8,235.5z
	 M387.7,240.3c1.4,0,2.5,1.1,2.5,2.3c0,1.3-1.1,2.3-2.5,2.3c-1.4,0-2.5-1-2.5-2.3C385.2,241.3,386.4,240.3,387.7,240.3z
	 M371.9,265.4c3.3,1.5,6,3.6,8.1,6.1c-1.6-2.7-3.3-5.4-5-8.1L371.9,265.4z M384.8,286c0.6-0.4,1.3-0.8,1.9-1.1
	c-0.8-2-1.8-3.9-2.7-5.9C384.6,281.2,384.9,283.5,384.8,286z M426.7,266c-3.7-10-8.6-19.7-14.4-28.8l-13.1,7
	c5.7,8.5,10.5,17.6,14.3,27C417.7,269.5,422.2,267.7,426.7,266z M462.1,226.8c-0.5,0.1-1,0.2-1.6,0.3c-1.2,0.2-2.6,0.5-3.9,0.7
	c1.1,2,2.2,4,3.2,6.1C460.6,231.5,461.3,229.1,462.1,226.8z M454.3,257.7c-3.6-9.5-8-18.6-13.2-27.3c-2.2,0.3-4.5,0.7-6.8,1.1
	c-2.5,0.4-5.1,0.7-7.7,1c5.7,9.1,10.4,18.8,14.2,28.8C445.2,259.8,449.7,258.6,454.3,257.7z M481.3,227.7c-0.4-0.9-1.3-1.5-2.6-1.9
	c0.3,0.2,0.5,0.4,0.8,0.7C480,226.8,480.6,227.2,481.3,227.7z M465.5,246c0-0.1,0.1-0.3,0.1-0.4c-1.1-1.7-1.4-3.4-1-5
	c0.5-1.8,1.9-3.4,4.1-4.5c2.3-1.1,5.3-1.8,9.3-2c0.3,0,0.7,0,1,0c1.3-1.1,2.2-2.3,2.4-3.8c0.2-0.7,0.2-1.3,0.1-1.9
	c-0.9-0.6-1.7-1.2-2.4-1.7c-0.6-0.5-1.1-0.9-1.6-1.4c-1.1-0.2-2.4-0.3-4-0.3c-1.1,0-4.4,0.5-9.8,1.4c-1,3-2,6.1-2.9,9.2
	C462.4,239.1,464,242.5,465.5,246z M413,271.5c-3.8-9.5-8.6-18.5-14.3-27l-12,6.4c5.7,8.2,10.6,16.9,14.5,26
	C405,275.1,408.9,273.3,413,271.5z M463.8,255.9c0-0.1,0-0.2,0-0.3c0.1-2.9,0.4-5.4,1-7.6c-1.6-4-3.4-7.9-5.3-11.8
	c-0.1-0.1-0.2-0.3-0.2-0.4c-1.3-2.6-2.7-5.2-4.1-7.8c-3.8,0.7-7.8,1.3-12.2,2c5.1,8.7,9.5,17.8,13.1,27.3
	C458.6,256.8,461.2,256.3,463.8,255.9z M154.3,273.5c-3.6-2-7-3.2-10.1-3.8c1.5,2.7,2.9,5.6,4.3,8.7c0.1,0.1,0.2,0.1,0.4,0.2
	C150.6,276.8,152.5,275.1,154.3,273.5z M151.7,241.2c-1.6,1.5-3.2,3-4.8,4.6l1.4,1.3C149.1,244.9,150.2,242.9,151.7,241.2z
	 M147.4,251.5c0.1-1.3,0.4-2.6,0.7-3.8l-1.6-1.5c-3.1,3.2-6.1,6.6-9,10l12.9,9.7C148,260.6,147,255.7,147.4,251.5z M156.6,237.3
	l-0.2-0.2c-0.5,0.4-1,0.8-1.4,1.3c0.4-0.3,0.8-0.6,1.3-0.8C156.3,237.4,156.5,237.3,156.6,237.3z M163.7,265.9
	c-3.3-5-4.7-9.2-4.7-12.6c0-3.4,1.5-5.9,3.9-7.2c1.2-0.7,2.7-1,4.2-1c1.6,0,3.4,0.3,5.2,1c3.5,1.3,7.3,3.8,11,7.7
	c2.4-1.2,4.9-2.3,7.3-3.4c-7.4-9.9-16.3-14-24-14.1c-3.6,0-6.8,0.9-9.6,2.5c-4.4,2.5-7.4,7-8,12.8c-0.5,5.7,1.4,12.7,6.8,20.5
	C158.4,269.9,161,267.9,163.7,265.9z M234.7,250.6c4.4,0.1,8.8,0.5,13.1,1c0.6-4.5,1.9-7.9,4-9.9c-2.9-0.2-5.8-0.3-8.7-0.4
	c-16.9-0.1-34.1,3.1-50.7,10c0,0,0,0-0.1,0c-12.6,5.3-24.8,12.7-36,22.5c0,0,0,0,0,0c-2.3,2-4.6,4.2-6.9,6.5
	c0.2,0.4,0.4,0.8,0.5,1.2c0.9-0.6,1.8-1.3,2.7-1.9C179.2,258.4,208,250,234.7,250.6z M387.7,284.2c3.7-2.1,7.6-4.2,11.6-6.3
	c-7.3-17.5-18.4-33.3-32.2-46.8c-9-1.1-17.2-2.2-24.7-3.2C362.2,242.6,378,262,387.7,284.2z M160.4,232.3c-2.9-0.3-5.8-0.6-8.9-1
	c-2.6-0.3-5.1-0.6-7.5-0.9c-6.2,5.6-11.9,11.7-17.1,18.3c2.6,2.1,5.3,4.6,8,7.5c0.2,0.2,0.4,0.5,0.6,0.7
	C142.9,247.8,151.3,239.5,160.4,232.3z M658.5,355.3c-3.5-6.7-7.3-13.2-11.5-19.3c-2.3,0.5-4.6,1.1-7,1.8l-0.7,1.6
	c5.5,9.6,10.1,19.7,13.9,30.3C655.7,365.6,657.6,360.8,658.5,355.3z M151,267l-13.8-10.4c-0.3,0.4-0.6,0.8-0.9,1.2
	c2.3,2.8,4.6,6.1,6.9,10.1c3.2,0.5,6.7,1.6,10.3,3.4C152.5,269.9,151.7,268.4,151,267z M172,246.8c-1.7-0.6-3.4-0.9-4.8-0.9
	c-1.4,0-2.8,0.4-3.8,0.9c-2.2,1.2-3.5,3.4-3.5,6.5c0,3.2,1.3,7.3,4.5,12.1c5.9-4.3,12-8,18.3-11.2C179,250.4,175.3,248,172,246.8z
	 M469,236.6c-2.2,1.1-3.4,2.5-3.9,4.2c-0.3,1.3-0.1,2.8,0.7,4.3c0.6-1.3,1.4-2.5,2.2-3.4c2.7-2.7,5.4-4.6,8.3-6
	c0.7-0.3,1.3-0.6,1.8-1c-0.1,0-0.2,0-0.3,0C474.2,234.8,471.2,235.5,469,236.6z M141.2,230.1c-6.5-0.8-12.5-1.6-18-2.3
	c-3.8,4.2-7.4,8.6-10.7,13.1c1.8,0.7,3.7,1.5,5.8,2.5c2.2,1,4.5,2.4,6.8,4.1C130.1,241.2,135.5,235.4,141.2,230.1z M591.9,482
	c0.6,0.1,1.2,0.2,1.9,0.3c0.7-1.8,1.4-3.6,2.1-5.4c-0.4,0.6-0.8,1.2-1.2,1.8C593.8,479.8,592.9,480.9,591.9,482z M643.9,391.9
	c-0.6-2.4-1.2-4.7-1.9-7.1c-2.2,1.3-4.5,2.2-6.8,2.9c0.4,2.3,0.8,4.7,1.1,7C638.9,393.7,641.4,392.7,643.9,391.9z M607.6,429.5
	c0.6-3,1.5-5.9,2.8-8.8c-1.1-0.2-2.2-0.3-3.4-0.4l-2.3,5.7c0.1,1.3,0.1,2.6,0.2,3.9C605.9,429.7,606.8,429.7,607.6,429.5z
	 M598.5,472c4.1,0.9,7.2,1.4,9.3,1.4c1.1,0,2-0.1,2.5-0.3c0.6-0.2,0.8-0.4,0.8-0.7c0-0.3-0.1-0.7-0.5-1.2c-0.4-0.5-1.1-1.1-2-1.8
	c-1.8-1.3-4.5-2.7-8.2-4.3C599.9,467.5,599.2,469.7,598.5,472z M657.6,336.4c-0.1-0.5-0.3-1.1-0.5-1.6c-2.8,0.1-5.7,0.4-8.7,0.9
	c3.8,5.5,7.2,11.3,10.4,17.2C659.3,347.9,659,342.4,657.6,336.4z M623.3,385.3c3,0.7,6.4,0.6,10-0.3c-0.5-2.3-1-4.7-1.5-7
	L623.3,385.3z M615.5,411.8c0.8-1.1,1.7-2.1,2.5-3.2l-5.8-1.4l-5,12.6c1.2,0.1,2.3,0.2,3.4,0.4C611.9,417.3,613.5,414.5,615.5,411.8
	z M641.1,381.7c-2.5-8.3-5.6-16.3-9.1-23.9l-2.6,6.6c2.2,6.6,4,13.4,5.4,20.2C636.8,383.9,639,382.9,641.1,381.7z M647.7,376.5
	c1.5-1.5,2.9-3.2,4.2-5c-3.6-10.5-8.1-20.6-13.5-30.1l-5.8,14.6c3.7,7.9,7,16.2,9.7,24.9C644.2,379.7,646,378.2,647.7,376.5z
	 M624.9,401.9l-4.5-0.9c-0.2,0-0.3-0.3-0.1-0.4l13.5-12.2c0,0,0.1,0,0.2-0.1c0-0.1,0-0.2,0-0.3c-4.7,1.2-9.4,1.1-13.4-0.4l-0.9,0.8
	l-7.3,18.2l6,1.5C620.4,405.9,622.6,403.8,624.9,401.9z M628.8,367.4c0,0-0.1,0-0.2,0l-0.5-0.1l-3.4,8.4l6.7,1
	C630.7,373.6,629.8,370.5,628.8,367.4z M631.2,377.8l-6.8-1l-3.1,7.9c0.5,0.2,1,0.4,1.5,0.6L631.2,377.8z M459.1,318.8
	c-1.8,0.4-3.7,0.9-5.6,1.4c-12.1,3.3-23.6,9.2-33,16.9c0,0.2-0.3,0.4-0.6,0.4c-4.6,3.8-8.7,8.1-12.2,12.7c-3.1,4.1-5.7,8.6-7.7,13.3
	c0.1,0.2,0,0.5-0.3,0.6c-0.1,0.3-0.3,0.6-0.4,1l2.7,6.7c11.3-23.3,40.6-42.9,80.9-42.5c2,0,3.9,0.1,5.9,0.2l-5.5-14
	c-7.7,0.3-15.5,1.3-23.6,3.1C459.7,318.9,459.4,319,459.1,318.8z M222.7,266.4c9.4-0.3,18.4,0.7,26.8,2.7c-0.7-2.6-1.2-4.9-1.5-7
	c-8.7-1.6-18.3-2.5-28.7-2.4c-12.8,0-26.1,2.4-39.1,7.7c-11.1,4.5-20.8,10-29.3,16.3c0.3,0.6,0.5,1.2,0.8,1.9l2.6,6.4
	c7.7-6.3,16.8-11.8,27.2-16.2C195.4,269.7,209.5,266.8,222.7,266.4z M432.5,272.9l21,20.3l12.4-23.8c-0.4-1.4-0.7-2.7-1-4
	c-8.2,1.1-16.5,2.8-25,5.1C437.5,271.2,435,272,432.5,272.9z M635.1,395.4c-0.3-2.1-0.6-4.3-1-6.4l-13,11.6l4.3,0.9
	C628.4,399.1,631.7,397.1,635.1,395.4z M420.5,336.1c3.9-3.2,8.3-6.1,12.8-8.6c-4.4-9.1-7.1-16.1-8.5-20.9c-0.7-2.4-1-4.3-1.1-5.6
	c0-0.7,0.1-1.2,0.2-1.6c0.2-0.4,0.4-0.7,0.8-0.9c0.3-0.1,0.8,0,1.2,0.2c0.5,0.2,0.9,0.5,1.5,1c1.1,1,2.4,2.5,3.9,4.6
	c2.9,4.1,6.6,10.4,10.8,19c3.6-1.5,7.3-2.8,11.1-3.8c1.7-0.5,3.4-0.9,5.1-1.3l-42.6-36.9L420.5,336.1z M479,315
	c0-3.5,0.2-6.7,0.4-9.6l-6-15.1l-13.1,27.5C466.6,316.4,472.9,315.5,479,315z M427,300.1c-0.5-0.5-0.9-0.8-1.3-0.9
	c-0.3-0.1-0.5-0.2-0.6-0.2c-0.1,0-0.1,0-0.2,0c-0.2,0-0.3,0.2-0.4,0.5c-0.1,0.4-0.2,0.8-0.2,1.4c0,1.3,0.3,3.1,1,5.5
	c1.4,4.8,4.1,11.7,8.5,20.8c2.5-1.4,5.1-2.6,7.8-3.8c-4.2-8.6-7.9-14.9-10.7-19C429.4,302.5,428.1,301,427,300.1z M453.2,295.1
	l-22.3-21.6c-5.1,1.9-10,4.1-14.7,6.7l43.1,37.3l13.6-28.6l-1.3-3.4c-2-5.1-3.6-9.6-4.9-13.7l-12.1,23.1
	C454.3,295.4,453.6,295.5,453.2,295.1z M483.1,314.8l-3.2-8.1c-0.1,2.5-0.2,5.3-0.3,8.3C480.8,314.9,481.9,314.9,483.1,314.8z
	 M375.6,304.9l2.7,6.7c14.8-19.8,36-35.4,61.4-42.3c8.5-2.3,16.9-4,25.1-5.1c-0.5-2.5-0.8-4.7-0.8-6.7
	C425.8,263.5,395.8,281.9,375.6,304.9z M600.6,453.2c0.1,2.7,0.2,5.4,0,8.1c2.7-11.3,3.8-22.5,3.4-33.4l-4.5,11.3
	C599.8,443.7,600.4,448.5,600.6,453.2z M607.5,444.7c-0.9-4.7-0.9-9.7,0-14.6c-0.8,0.1-1.7,0.2-2.6,0.4c0.1,5.7-0.2,11.5-1,17.4
	L607.5,444.7z"/>
</svg>
