<?xml version="1.0" encoding="utf-8"?>
<!-- Generator: Adobe Illustrator 24.3.0, SVG Export Plug-In . SVG Version: 6.00 Build 0)  -->
<svg version="1.1" id="Mandala_Letter" xmlns="http://www.w3.org/2000/svg" xmlns:xlink="http://www.w3.org/1999/xlink" x="0px"
	 y="0px" width="828px" height="828px" viewBox="0 0 828 828" style="enable-background:new 0 0 828 828;" xml:space="preserve">
<style type="text/css">
	.st0{fill:none;stroke:#000000;stroke-miterlimit:10;}
</style>
<path class="st0" d="M0.1,827V0h827.3v827.3H0.1v-0.2 M348,592.5c2.6-4.2,1.7-7.9-2.5-10.5c-2.8-1.6-5.8-6.1-8.7-13.3
	c-3-7.2-3-17.3,0.1-30c3-12.8,11.9-28.8,26.3-47.6l32.7-39.1l60.1,87.5c7,10.5,12.9,19.7,17.6,27.2c2.1,3.5,3.1,6.5,2.9,8.9
	c-0.2,2.3-1.6,4.2-4.2,5.8c-2.9,2-4.4,4.1-4.7,6.2c-0.2,1.7,0.4,3.4,1.8,5.1c2.3,2.7,5,4.1,8,4.1c0.9,0,1.7-0.1,2.6-0.3
	c1.2-0.3,4.8-1,14.5-2.6c7.8-1.3,17.1-2.5,27.5-3.6c10.3-1.1,20.2-1.6,29.4-1.6c14,0,26.8,1.2,38.2,3.6c11.6,2.5,19,3.9,22.6,4.3
	c0.7,0.2,1.4,0.3,2,0.3c2.2,0,5.1-1.1,6.2-6.3c0.7-3.4,0-8-7.6-10.5c-6.9-2.1-13.7-6.3-20.4-12.3c-6.8-6.1-14.4-14.3-22.7-24.4
	L456.7,380.1l35.2-41.7c11.3-14,23.7-28.2,36.8-42.4c12.9-14,25.3-26.3,36.7-36.4c11.3-10,20.3-15.9,26.7-17.6
	c4-1.1,6.5-2.8,7.7-5.1c0.9-1.7,1-3.7,0.2-6c-1.5-4.3-3.8-6.4-6.8-6.4c-0.6,0-1.2,0.1-1.8,0.3c-3.5,0.9-10.9,2.4-21.8,4.6
	c-10.9,2.2-22,3.3-32.9,3.3c-11.4,0-21.7-1.1-30.9-3.3c-9.2-2.2-14.9-3.7-17.1-4.6l-0.1,0c-1.3-0.4-2.5-0.6-3.6-0.6
	c-3.3,0-6,1.6-7.9,4.8c-1.4,2.3-1.8,4.4-1.2,6.2c0.5,1.7,1.8,3,3.7,4c2.8,1.6,5.7,6.1,8.7,13.3c3,7.2,2.9,17.4-0.1,30.4
	c-3.1,13-11.9,29.2-26.3,47.9l-21.4,25.8l-51.4-74.9c-7-10.1-13-19.1-17.9-26.8c-2.5-4-3.5-7.4-2.8-10c0.5-2,1.9-3.6,4.3-5
	c2.7-1.6,4.2-3.5,4.5-5.5c0.3-1.8-0.5-3.7-2.2-5.6c-2.7-2.9-5.5-4.4-8.3-4.4c-0.8,0-1.6,0.1-2.3,0.3c-1.7,0.4-6.2,1.3-14.2,2.6
	c-7.8,1.3-17.1,2.6-27.5,3.6c-10.6,1.1-20.6,1.7-29.7,1.7c-13.6,0-26.2-1.1-37.6-3.3c-11.4-2.2-19-3.7-22.5-4.6
	c-0.7-0.2-1.4-0.3-2.1-0.3c-2.2,0-5.1,1.1-6.2,6.3c-0.7,3.4-0.1,8,6.9,10.5c7.3,2.2,14.4,6.3,21,12.3c6.8,6.1,14.4,14.3,22.7,24.4
	L379,428.4l-45.8,54.3c-11.9,14.1-24.4,28.4-37.1,42.4c-12.7,14-25,26.3-36.4,36.4c-11.3,10-20.3,16.2-26.8,18.3
	c-4.2,1.5-6.7,3.4-7.8,5.7c-0.7,1.6-0.7,3.4,0,5.3c1.5,3.8,3.7,5.8,6.6,5.8c0.6,0,1.3-0.1,1.9-0.3c3.5-0.9,10.7-2.4,21.5-4.6
	c10.7-2.2,21.9-3.3,33.3-3.3c11.3,0,21.7,1.1,30.9,3.3c9.2,2.2,14.9,3.7,17.1,4.6l0.1,0c1.3,0.4,2.6,0.6,3.8,0.6
	C343.5,597,346.1,595.5,348,592.5z M612.4,581.1c5.3,1.8,7.5,4.8,6.6,9c-0.9,4.2-3.1,5.9-6.6,5c-3.5-0.4-11.1-1.9-22.6-4.3
	c-11.5-2.4-24.3-3.7-38.5-3.7c-9.3,0-19.2,0.6-29.5,1.7c-10.4,1.1-19.6,2.3-27.5,3.7c-8,1.3-12.8,2.2-14.6,2.7
	c-3.5,0.9-6.6-0.2-9.3-3.3c-2.7-3.1-1.8-6.2,2.7-9.3c5.7-3.5,6.3-9.1,1.7-16.6c-4.7-7.5-10.5-16.6-17.6-27.2l-61.1-89l-33.9,40.5
	c-14.6,19-23.5,35.1-26.5,48.1c-3.1,13.1-3.1,23.4,0,30.9c3.1,7.5,6.2,12.2,9.3,13.9c3.5,2.2,4.2,5.1,2,8.6c-2.2,3.5-5.5,4.6-10,3.3
	c-2.2-0.9-8-2.4-17.3-4.6c-9.3-2.2-19.7-3.3-31.2-3.3c-11.5,0-22.7,1.1-33.5,3.3c-10.8,2.2-18,3.8-21.6,4.6c-3.1,0.9-5.4-0.7-7-4.6
	c-1.6-4,0.8-7.1,7-9.3c6.6-2.2,15.7-8.4,27.2-18.6c11.5-10.2,23.7-22.3,36.5-36.5c12.8-14.2,25.2-28.3,37.2-42.5l46.5-55.1
	L276.4,277.1c-8.4-10.2-16-18.4-22.9-24.6c-6.9-6.2-14.1-10.4-21.6-12.6c-4.9-1.8-6.9-4.8-6-9c0.9-4.2,3.1-5.9,6.6-5
	c3.5,0.9,11.1,2.4,22.6,4.6c11.5,2.2,24.1,3.3,37.8,3.3c9.3,0,19.3-0.6,29.9-1.7c10.6-1.1,19.8-2.3,27.5-3.7
	c7.7-1.3,12.5-2.2,14.3-2.7c3.1-0.9,6.2,0.3,9.3,3.7c3.1,3.3,2.4,6.3-2,9c-6.2,3.5-6.9,9.2-2,16.9c4.9,7.7,10.8,16.7,17.9,26.9
	l52.4,76.3l22.6-27.2c14.6-19,23.5-35.2,26.6-48.5c3.1-13.3,3.1-23.7,0-31.2c-3.1-7.5-6.2-12.2-9.3-13.9c-3.5-1.8-4.2-4.5-2-8.3
	c2.2-3.8,5.5-5,10-3.7c2.2,0.9,8,2.4,17.3,4.6c9.3,2.2,19.7,3.3,31.2,3.3c11.1,0,22.1-1.1,33.2-3.3c11.1-2.2,18.4-3.8,21.9-4.6
	c3.1-0.9,5.4,0.9,7,5.3c1.5,4.4-0.8,7.5-7,9.3c-6.6,1.8-15.7,7.7-27.2,17.9c-11.5,10.2-23.8,22.4-36.8,36.5
	c-13.1,14.2-25.3,28.3-36.8,42.5L455,380l113.5,164c8.4,10.2,16,18.4,22.9,24.6C598.3,574.7,605.3,578.9,612.4,581.1z M389.7,391.6
	l-5.2,7c12.3,8.5,23,19,31.7,31.1l7.6-5.1C414.5,411.7,402.9,400.6,389.7,391.6z M480.2,238c2.3,1.3,4.7,4.3,7,8.9
	c6.5-1.7,13.1-2.5,19.7-2.6c18.9-0.2,37.8,6,53.6,17.9c1.4-1.2,2.7-2.5,4.1-3.6c1.8-1.6,3.5-3,5.1-4.4c-10.4-9.2-22.5-16-35.4-20.2
	c-10.6-0.1-20.2-1.2-28.8-3.3c-1.9-0.5-3.7-0.9-5.3-1.3c-7.8,0.4-15.6,1.9-23.1,4.4C477,235.5,478.1,237,480.2,238z M394.1,374.7
	c7.2-3.9,9.9-11.9,9.6-20.6c-3.4,0.6-6.7,0.9-9.7,0.8c0.7,1,1.2,2.2,1.6,3.6c0.8,2.7-0.1,5.9-2,8.1c-1.9,2.2-4.9,3.5-8.4,2.5
	c-2.7-0.8-4.4-3.1-4.8-5.4c-0.3-2.4,0.7-4.8,3.5-5.9c2-0.7,4,0.3,4.7,1.5c0.5,0.8,0.5,1.8,0.1,2.6c-0.4,0.8-1.2,1.5-2.4,1.8
	c-0.2,0.1-0.3-0.3-0.1-0.3c1.1-0.3,1.7-0.9,2.1-1.6c0.3-0.7,0.3-1.5-0.1-2.2c-0.6-1.1-2.4-2-4.2-1.3c-2.6,1-3.6,3.2-3.2,5.4
	c0.3,2.2,2,4.3,4.5,5.1c3.4,1,6.2-0.2,8-2.3c1.8-2.1,2.6-5.1,1.9-7.7c-0.4-1.4-1-2.7-1.7-3.7c-2.5-0.1-4.9-0.3-7.1-0.8
	c-2.9-0.6-5.6-1.5-8-2.6c-3.1,1.7-5.6,4.9-6.1,9.6c-0.5,4,1.1,7.9,3.5,10.6c3.2,1.5,6.3,3.2,9.4,4.9
	C388,376.8,391.3,376.3,394.1,374.7z M404.9,449.8c3.9,6.2,7.1,12.9,9.7,19.8c2.9-1.3,5.9-2.6,8.9-3.9c-2.5-7.4-5.8-14.5-9.7-21.1
	L404.9,449.8z M512.4,254.1l-6.1-9.2c-2,0-3.9,0.1-5.9,0.3c0,0,0.1,0,0.1,0.1l11.7,17l11.4-15.8c0,0,0-0.1,0.1-0.1
	c-1.7-0.3-3.4-0.6-5-0.8l-5.9,8.5C512.5,254.2,512.4,254.2,512.4,254.1z M517,262.3c4,0,8,0.3,12.1,0.9l-5.4-15.7L513,262.5
	C514.3,262.4,515.7,262.3,517,262.3z M474.8,323.8l-4.1,19.9l14.9-11.6C481.2,330,477.5,327.2,474.8,323.8z M357.5,347.1
	c-3.1,5-6.7,10.2-12.9,13.9c6.3,1.4,12.4,3.1,18.3,5.3c-0.5-7.6-1.7-15.1-3.4-22.5C358.9,344.9,358.2,346,357.5,347.1z M506.6,244.9
	l5.9,8.8l5.7-8.2c-3.7-0.5-7.5-0.7-11.3-0.6H506.6z M414.2,444.4c3.9,6.7,7.2,13.8,9.8,21.2c1.2-0.5,2.5-1,3.7-1.4
	c0.1,0,0.1,0,0.2,0c0,0,0,0,0,0c1.6-0.7,3.2-1.3,4.8-1.8c-2.8-7.9-6.3-15.5-10.4-22.6L414.2,444.4z M417.9,353
	c-0.2-0.9-0.5-1.8-0.7-2.7c-4.2,1.6-8.1,2.8-11.9,3.6c0.9,5.5,1.5,10.8,1.8,16.2C408.9,364.6,412.4,358.8,417.9,353z M403.4,388.7
	c0.8,0.7,1.7,1.3,2.5,2c0.1-1.4,0.3-2.6,0.4-4c-0.4-1.3-0.7-2.8-0.8-4.2C404.9,384.7,404.2,386.9,403.4,388.7z M404.1,354.1
	c0.3,8.9-2.4,17-9.8,21c-2.6,1.4-5.7,2-8.4,1.9c6,3.4,11.7,7.3,17.2,11.5c0.9-2.2,1.7-4.7,2.3-7.2c-0.2-2.9,0.1-6,1-9.2
	c-0.2-6-0.9-11.9-1.9-18.2C404.3,354,404.2,354.1,404.1,354.1z M422.6,439.5c4.2,7.2,7.7,14.8,10.5,22.7c3-1,6-1.9,9.1-2.6
	c-3-8.7-6.9-17-11.6-24.8L422.6,439.5z M577.2,588c-0.1,0.1-0.3,0.1-0.4,0.2c-0.8,0.3-1.3-0.9-0.5-1.3c2.3-0.9,4.4-1.2,6.5-0.9
	c-0.1-2.8-0.3-5.4-0.5-8.2c-2.5,0-5.1,0.6-7.7,1.7c0.3,3,0.5,6,0.6,9c2,0.2,3.9,0.5,5.8,0.8C580.2,588.4,578.9,587.8,577.2,588z
	 M406.6,391.3c1.1,0.9,2.2,1.9,3.3,2.9c-1.3-1.7-2.3-3.6-3.1-5.6C406.7,389.5,406.7,390.4,406.6,391.3z M469.7,362.6
	c0.3-0.9,0.7-1.8,1.1-2.7c0.8-1.8,1.6-3.6,2.5-5.4c-9.1-1.1-16.9-3.6-23.4-7.2l-2.7,3.2c0.3,0.4,0.6,0.9,0.6,1.4
	c0,1.2-1,2.2-2.2,2.2c-0.4,0-0.8-0.1-1.1-0.3l-2.5,3c6.1,5.2,13.6,9.4,22.4,12L469.7,362.6z M453.2,359.5c-1.7,0-3.1-1.4-3.1-3.1
	c0-1.7,1.4-3.1,3.1-3.1c1.7,0,3.1,1.4,3.1,3.1C456.3,358.1,454.9,359.5,453.2,359.5z M459.5,360.5c0-2.3,1.9-4.2,4.2-4.2
	c2.3,0,4.2,1.9,4.2,4.2c0,2.3-1.9,4.2-4.2,4.2C461.3,364.7,459.5,362.9,459.5,360.5z M480.6,336.4l-10.1,7.8c1.6,0.4,3.2,0.7,4.9,1
	l3.3-2.5C479.5,340.7,480.1,338.6,480.6,336.4z M378.5,406.6l-6.6,8.8c10.5,7.1,19.7,15.8,27.2,25.8l8.7-5.9
	C399.8,424.2,389.9,414.4,378.5,406.6z M363.9,337.4c-1.4,1.7-2.6,3.6-3.8,5.5c1.8,7.8,3,15.8,3.6,23.8c2.4,0.9,4.8,1.8,7.1,2.8
	c-0.3-8.9-1.5-17.7-3.5-26.6C366,341.2,364.8,339.3,363.9,337.4z M477.3,346.1c-8.2-1.1-15.1-3.4-20.8-6.7l-6,7.2
	c6.4,3.5,14.1,6,23.2,7C474.9,351.2,476.2,348.6,477.3,346.1z M425,409.6c0.1-1.8,0.2-4,0.2-5.9c-3.3-0.6-6.4-1.9-9.1-3.6
	C419.3,403.1,422.2,406.3,425,409.6z M371.9,361c0.5-4.6,3-7.9,6.1-9.7c-3.6-1.7-6.6-4-9.1-6.6c1.8,8.4,2.8,16.8,3.1,25.3
	c1,0.4,2,0.9,2.9,1.3C372.8,368.6,371.4,364.9,371.9,361z M384.3,398.9l-5.5,7.4c11.4,7.9,21.3,17.7,29.4,28.9l7.8-5.2
	C407.2,417.8,396.5,407.3,384.3,398.9z M580.7,587.5c0.7,0.4,1.2,0.9,1.7,1.5c0.1,0.1,0.2,0.3,0.3,0.4c0.5,0.1,1,0.2,1.5,0.2
	C583.2,588.7,582,587.9,580.7,587.5z M484.1,339l-0.5,0.3c0.3,0.3,0.6,0.7,0.9,1L484.1,339z M478.5,343.4l-2.5,1.9
	c0.5,0.1,1.1,0.1,1.6,0.2C477.9,344.8,478.2,344.1,478.5,343.4z M573.7,580c-3.2,1.7-5.3,4.7-6.2,7.8c2.3,0.2,4.5,0.4,6.8,0.6
	C574.1,585.6,573.9,582.8,573.7,580z M404.7,322c-3.5,1.5-5,3.7-4.8,5.5c0.1,0.9,0.6,1.8,1.6,2.5c1,0.7,2.5,1.3,4.4,1.5
	c3.3,0.4,8-0.2,14-2.4l-6-8.7c-0.1,0-0.3,0-0.4,0C409.8,320.5,406.9,321.1,404.7,322z M226.2,229.9c-0.1,0.4-0.2,0.7-0.3,1.2
	c-0.9,4.2,1.1,7.2,6,9c4.5,1.3,8.9,3.4,13.2,6.2c3.6-2.3,7.3-4.8,10.7-7.7c0.1-0.1,0.2-0.1,0.3-0.1c0.3,0,0.5,0.2,0.5,0.5
	c0.1,6.2,1.4,12.6,2.3,19c1,1,2,2,3,3c10.1-7,19.4-9.6,28.5-11C272.2,239.4,250.6,232.3,226.2,229.9z M301.6,313.8l8,11.5
	c1.6-3,2.9-6.1,5-9C309.8,315.4,305.6,314.4,301.6,313.8z M245.9,246.7c2.6,1.7,5.1,3.7,7.5,5.9c1.4,1.3,2.9,2.7,4.3,4.1
	c-0.9-5.6-1.9-11.3-2.1-17C252.5,242.4,249.2,244.6,245.9,246.7z M423.8,347.3c-1.9,0.9-3.8,1.8-5.6,2.5c0.2,0.8,0.4,1.5,0.6,2.2
	C420.3,350.4,422,348.9,423.8,347.3z M357.9,468.7c5.4-2.8,10.3-4.5,14.7-5.1l10.1-8.3c-2-2.5-4-4.9-6.2-7.2l-13.1,13.1
	C362,463.6,360.2,466.2,357.9,468.7z M306.7,277.2c0.1-0.4,0.1-0.7,0.2-1.1V276c1.2-7.7,0.8-15.6,1.9-23.4c-0.1-0.2-0.1-0.5,0.1-0.7
	c0.2-1.2,0.4-2.4,0.7-3.6c-1.6,0.3-3.2,0.5-4.9,0.7c-0.2,0.2-0.5,0.2-0.7,0.1c-13.4,1.7-26.4,2.2-41.4,12.5c2.4,2.5,4.9,5.3,7.5,8.3
	c10.9-5.6,19-5.1,28.1-7.1c0,0,0,0,0,0c0.1,0,0.2,0.1,0.2,0.3c-1.7,5.7-1.9,11.4-3.3,17.2c-1.1,4.6-3.1,9.2-7.2,13.7l4.7,6.8
	C301.8,293.3,305.2,285.4,306.7,277.2z M302.2,303c7.8-4.1,14.5-7.3,20.7-9c0.7-0.2,1.4-0.3,2-0.4c0.6,0,1.1,0,1.6,0.1
	c0.9,0.2,1.6,0.7,1.9,1.4c0.3,0.6,0.2,1.4-0.1,2.2c-0.4,0.7-1,1.5-2,2c-3.6,2.2-8.3,3.9-14.1,5.7c5.8,1.6,11.5,3.4,18.1,3.2
	c0.4,0,0.7,0.5,0.3,0.8c-1.9,1.8-3.4,3.9-4.6,6c7.1-3.3,11-8.7,13.9-14.6c3-6.1,4.8-12.6,7.8-17.8c-6.3-0.1-12.6-0.7-18.9-0.7
	c-7.9,0-16,1.1-24.4,5.7c-2.3,4.8-5.8,9.4-11.3,13.8l1,1.5c1.2-0.1,2.3-0.2,3.4-0.2C299.2,302.7,300.7,302.8,302.2,303z M327.8,297
	c0.3-0.6,0.3-1.2,0.1-1.7c-0.2-0.5-0.7-0.9-1.4-1.1c-0.3-0.1-0.7-0.1-1-0.1c-0.7,0-1.4,0.1-2.3,0.4c-5.9,1.7-12.3,4.7-19.8,8.5
	c1.9,0.3,3.7,0.6,5.5,1.1c0.8,0.2,1.6,0.4,2.4,0.6c6.2-2,11.2-3.7,14.9-6C326.8,298.3,327.4,297.6,327.8,297z M276.6,277.5l5.5,8
	c-0.5-3.2-1-6.4-1.4-9.6C279.4,276.5,278,277,276.6,277.5z M302.8,248.2c-8.1-5.6-16.9-10.6-26.4-14.8c-7.5-0.5-14.6-1.4-21.3-2.7
	c-11.5-2.2-19-3.8-22.6-4.6c-3-0.7-5,0.3-6.1,3.1c24.8,2.5,46.6,9.8,65.1,20.5C295.4,249.1,299.1,248.7,302.8,248.2z M322.1,232.4
	c0.6,1.8,0.5,3.9-0.1,5.8c-0.9,2.8-3.3,5-6.9,5.3c-2.8,0.3-5.3-1.2-6.5-3.3c-1.2-2.1-1.1-4.7,1.1-6.7c0,0,0.1-0.1,0.1-0.1
	c-3.4,0.2-6.7,0.4-9.9,0.5c-0.6,2-0.6,4.4,0,6.9c0.8,2.9,2.5,5.4,4.6,7.2c1.8-0.2,3.6-0.5,5.3-0.8h0.1c0.3,0,0.5,0.3,0.5,0.6
	c-0.2,0.9-0.4,1.8-0.6,2.8c5.2,1.3,11.3-0.1,15.4-4.9c3.9-4.6,4.9-9.3,4-14c-2.1,0.2-4.3,0.5-6.5,0.7
	C322.6,232.4,322.4,232.4,322.1,232.4z M487.2,457.8c-0.7,0.1-1.4,0.3-2.1,0.5c0.6,0.1,1.2,0.2,1.8,0.3
	C487,458.3,487.1,458,487.2,457.8z M502.9,455.5c-5.1,0.9-10.2,1.3-14.8,2.1c-0.1,0.3-0.3,0.7-0.4,1.1c4.2,0.8,8.3,1.8,12.4,3
	C501,459.6,501.9,457.5,502.9,455.5z M436.7,370.8c-0.6,1.5-0.9,2.7-0.8,3.7c0.1,1,0.4,1.7,0.9,2.2c0.5,0.5,1.3,0.7,2.2,0.5
	c0.9-0.2,2.1-0.7,3.3-1.7c2.4-1.9,5.2-5.4,7.9-11.2c-1.9-1.1-3.6-2.2-5.3-3.4C440.4,364.5,437.8,368,436.7,370.8z M376.3,433.6
	l-6.2,7.3c6.4,5.7,12.1,12.1,17,19.3l6.2-7.5C388.5,445.7,382.8,439.2,376.3,433.6z M424.4,425.3l-32.9,22.2c1,1.3,2,2.7,2.9,4
	l1.5-1.8l2.1,3l32.2-18.8C428.3,431,426.4,428.1,424.4,425.3z M397.2,450.3c-0.9,0-1.7-0.7-1.7-1.7c0-0.9,0.8-1.7,1.7-1.7
	c0.9,0,1.7,0.8,1.7,1.7C398.9,449.5,398.1,450.3,397.2,450.3z M402.6,446.8c-0.9,0-1.7-0.7-1.7-1.7c0-0.9,0.8-1.7,1.7-1.7
	c0.9,0,1.7,0.8,1.7,1.7C404.3,446,403.6,446.8,402.6,446.8z M408.3,443.2c-0.9,0-1.7-0.8-1.7-1.7c0-0.9,0.8-1.7,1.7-1.7
	c0.9,0,1.7,0.8,1.7,1.7C410,442.5,409.3,443.2,408.3,443.2z M413.7,439.8c-0.9,0-1.7-0.8-1.7-1.7c0-0.9,0.7-1.7,1.7-1.7
	c0.9,0,1.7,0.8,1.7,1.7C415.5,439,414.7,439.8,413.7,439.8z M419.1,436.5c-0.9,0-1.7-0.8-1.7-1.7c0-0.9,0.7-1.7,1.7-1.7
	c0.9,0,1.7,0.8,1.7,1.7C420.9,435.7,420.1,436.5,419.1,436.5z M424.2,433.3c-0.9,0-1.7-0.8-1.7-1.7c0-0.9,0.8-1.7,1.7-1.7
	c0.9,0,1.7,0.8,1.7,1.7C425.9,432.5,425.1,433.3,424.2,433.3z M404.6,450l-6.2,3.6l12.3,17.9c1.2-0.6,2.3-1.1,3.5-1.7
	C411.7,462.9,408.5,456.2,404.6,450z M295.6,234c-0.9,0-1.8,0-2.6,0c-4.1,0-8-0.1-11.9-0.3C285.4,236.3,291,236.4,295.6,234z
	 M298,263.2c-9,1.9-16.9,1.5-27.6,6.9c1.8,2.1,3.7,4.3,5.6,6.6c1.7-0.6,3.3-1.2,5-1.9c0.1,0,0.1-0.1,0.2-0.1c0.3,0,0.5,0.2,0.5,0.4
	c0.5,4,1.1,8,1.7,12.1l4.3,6.2c4.1-4.4,6-8.9,7.1-13.5C296.1,274.5,296.3,268.8,298,263.2z M348.9,466.1l-6.7,7.9
	c6.7,6.2,12.1,13.6,15.8,21.6c1.3-1.8,2.6-3.6,4-5.4l3-3.6C360.8,478.7,355.3,471.8,348.9,466.1z M390.9,446.7l7.9-5.3
	c-7.5-9.9-16.6-18.5-26.9-25.5l8.7,12.6l-3.3,3.9C382.2,436.8,386.8,441.6,390.9,446.7z M354.8,470.2c7-6.7,10.4-13.7,11.1-19.8
	c0.2-1.6,0.2-3.1,0.1-4.5l-16.3,19.3C351.4,466.8,353.1,468.5,354.8,470.2z M367,450.6c-0.3,3-1.3,6.1-3,9.4l12.2-12.2
	c-2.1-2.2-4.3-4.3-6.6-6.3l-2.8,3.3C367.2,446.6,367.2,448.5,367,450.6z M342,474.3l-4.5,5.4c7.1,7.6,11.5,16.7,13.6,26
	c2-3.1,4.3-6.3,6.7-9.7C354.1,487.9,348.7,480.5,342,474.3z M373.3,463.5c4-0.5,7.5-0.2,10.5,0.7l2.8-3.4c-1.2-1.8-2.4-3.5-3.7-5.2
	L373.3,463.5z M321.4,322.9c0-0.1,0-0.2,0.1-0.2c1.9-4.7,3.9-9.4,7.7-13.4c-7.6,0-13.9-2.5-20.6-4.1c-3.5-0.8-7.1-1.5-11-1.4
	c-0.9,0-1.9,0.1-2.8,0.2l6.5,9.5c4.2,0.6,8.6,1.7,13.5,2.6c0.1,0,0.2,0.2,0.1,0.3c-2.1,2.9-3.5,6.2-5.2,9.4l6,8.7
	c2.2-3.1,3.6-6.5,5-10C321,323.9,321.2,323.4,321.4,322.9z M372.8,476.3c-3,0-6.8,0.7-11,2.6c1.5,2.2,2.8,4.4,4.1,6.8l7.8-9.4
	c-0.1,0-0.2,0-0.2,0C373.2,476.3,373,476.3,372.8,476.3z M355.7,471.2c2,2.3,3.9,4.7,5.7,7.2c4.7-2.1,8.8-2.8,12-2.7
	c0.2,0,0.4,0,0.7,0.1l8.9-10.7c-1.7-0.5-3.6-0.8-5.7-0.8C371.4,464.3,364.2,466.2,355.7,471.2z M356.7,346.7c3.1-5,5.9-10.1,10.5-14
	c-9.4-1.1-15.2-3.6-21.2-5.7c-5.4-2-11.1-3.6-20-3.6c-1.2,0-2.4,0-3.7,0.1c-0.2,0.5-0.4,0.9-0.5,1.4c-1.4,3.6-3,7.2-5.3,10.5
	l1.1,1.5c0.5,0,1-0.1,1.6-0.1c4.6-0.1,8.5,0.4,12.2,1.1c5,0.9,9.7,2.2,15.5,2.3c0.2,0,0.3,0.2,0.1,0.3c-3.3,3.9-6.3,8.3-10.1,11.8
	c-1.7,1.6-3.7,2.9-5.9,4l1.9,2.8c3.5,0.5,7,1.1,10.5,1.8C349.8,357.1,353.5,351.9,356.7,346.7z M346.3,340.5
	c-5.7-0.1-10.4-1.3-15.2-2.2c-3.4-0.6-6.9-1.2-11-1.1c-0.8,0-1.6,0-2.4,0.1l7,10.2c0.2,0.1,0.3,0.1,0.5,0.2c0.7,0.3,1.2,0.9,1.4,1.5
	c0.1,0.3,0.1,0.7,0.1,1.1l4,5.8c2.2-1.1,4.1-2.4,5.8-4C340.2,348.6,343.1,344.4,346.3,340.5z M325.3,348.3l0.7,1c0,0,0,0,0,0
	C325.9,348.9,325.7,348.5,325.3,348.3z M443.3,459.4c2.6-0.6,5.2-1.1,7.9-1.5c-1.6-4.8-3.4-9.4-5.5-14c-0.1-0.1-0.1-0.2-0.1-0.3
	c-2.6-5.6-5.5-11-8.7-16.2c-3.5-5.6-7.3-10.9-11.5-15.9c-0.2-0.1-0.4-0.2-0.4-0.5c-14.3-17.2-32.6-31-53.4-40.1
	c-0.2,0.1-0.5-0.1-0.6-0.3c-8.8-3.8-18-6.8-27.7-8.8c-0.1,0-0.3,0-0.3-0.1c-3.1-0.7-6.3-1.2-9.5-1.6l6.4,9.3
	C388.3,379.2,427.5,413.9,443.3,459.4z M357.4,394.9l7.1,10.3l3.2-5.3C364.4,398,360.9,396.4,357.4,394.9z M378,384.5L365.1,406
	l6,8.8l17.8-23.7C385.4,388.7,381.8,386.5,378,384.5z M371.7,408.2c-0.9,0.4-1.9,0-2.2-0.9c-0.4-0.9,0-1.9,0.9-2.2
	c0.2-0.1,0.4-0.1,0.7-0.1c0.7,0,1.3,0.4,1.6,1C373,406.9,372.6,407.9,371.7,408.2z M375.3,402.9c-0.9,0.4-1.9,0-2.3-0.9
	c-0.4-0.9,0-1.9,0.9-2.2c0.2-0.1,0.4-0.1,0.7-0.1c0.7,0,1.3,0.4,1.6,1C376.5,401.5,376.1,402.5,375.3,402.9z M378.9,397.7
	c-0.9,0.4-1.9,0-2.2-0.9c-0.4-0.9,0-1.9,0.9-2.3c0.2-0.1,0.4-0.1,0.7-0.1c0.7,0,1.3,0.4,1.6,1C380.2,396.4,379.8,397.4,378.9,397.7z
	 M382.2,392.8c-0.9,0.4-1.9,0-2.3-0.9c-0.4-0.9,0-1.9,0.9-2.2c0.2-0.1,0.4-0.1,0.7-0.1c0.7,0,1.3,0.4,1.6,1
	C383.5,391.4,383.1,392.4,382.2,392.8z M377.2,384c-11.3-6-23.5-10.5-36.4-13.3l7,10.2c8.7,2.6,17.1,6.1,25,10.4L377.2,384z
	 M372.6,391.7c-7.7-4.2-15.9-7.6-24.4-10.2l8.9,12.9c3.7,1.6,7.3,3.3,10.8,5.2L372.6,391.7z M299.7,240.9c-0.7-2.6-0.6-4.9,0-7
	c-1.1,0-2.2,0.1-3.2,0.1c-5.1,2.9-11.4,2.8-16.1-0.3c-0.2,0-0.5,0-0.7,0c8.3,3.9,16.2,8.4,23.5,13.4
	C301.6,245.4,300.3,243.3,299.7,240.9z M495.6,449c2.1-0.4,4.2-0.9,6.2-1.3l-5.6-8.1C496.5,442.8,496.7,446.1,495.6,449z
	 M361.3,323.1c-3-7.8-6.6-15.6-10.9-23.1c-0.6,1.3-1.1,2.6-1.8,3.8c-0.6,1.1-1.2,2.3-1.9,3.4c3.8,7.2,6.9,14.7,9.5,22.3
	c1.7,0.5,3.5,1,5.4,1.4C361.2,328.3,361.1,325.7,361.3,323.1z M515.9,468.1l-4.3-6.2c-0.5,1.1-1,2.3-1.5,3.5
	C512.1,466.3,514,467.2,515.9,468.1z M487,434.4v0.9c0,2.2,0.5,4.6,0.7,7.2c0.4,4.6,0.1,9.7-4.9,15.3c6.1-2.1,13.7-2.2,20.8-3.5
	c0.1-0.1,0.3-0.2,0.5-0.2c0.1,0,0.2,0,0.3,0.1c0.5-0.1,1.1-0.2,1.6-0.4L502,448c-2.2,0.5-4.4,1-6.7,1.4c-0.1,0.1-0.3-0.1-0.2-0.3
	c1.3-3.1,0.9-6.7,0.6-10.2l-6.8-9.9c-0.1,0-0.2,0-0.3,0C487.5,430.8,487.1,432.6,487,434.4z M421.5,375.1
	c-1.1,6.3,1.1,11.1,5.2,13.7c4,2.5,9.9,2.8,16-0.3c5.9-3,12.1-9.3,16.9-19.6c-3.2-1.2-6.1-2.6-8.9-4.1c-2.7,5.8-5.5,9.4-8,11.4
	c-1.3,1-2.5,1.6-3.6,1.7c-1.1,0.2-2,0-2.7-0.6c-0.7-0.6-1.1-1.5-1.1-2.6c-0.1-1.1,0.2-2.5,0.8-4c1.2-2.9,3.8-6.4,8.2-10
	c-1.1-0.8-2.2-1.7-3.3-2.6l-0.7,0.9l-3.1-4.5c-0.3-0.3-0.6-0.6-0.9-0.9C427.1,361.4,422.6,368.9,421.5,375.1z M463.4,399.5
	c2,3.7,3.4,7.9,5,11.9c3.4,9.1,7.1,13.7,12.1,15.5c2.2,0.8,4.8,1.1,7.7,1l-26.8-38.7c-1.7,0.8-3.5,1.6-5.3,2.6
	C459.2,393.5,461.6,396.2,463.4,399.5z M442.8,388.7c-6.2,3.1-12.2,2.9-16.3,0.3c-4.2-2.6-6.5-7.7-5.3-14c1.1-6.3,5.7-13.9,15-21.8
	c-2.5-2.7-4.7-5.7-6.7-8.8c-12.6,9.6-19.2,19.2-21.7,27.7c-2.5,8.6-0.7,16.2,3.5,21.7c8.5,10.8,26.8,13.6,41.8-0.7
	c1.7-2.8,3.4-5.6,5.2-8.3l-3.2-4.7l8.5-10c-1.2-0.4-2.4-0.8-3.5-1.2C455.1,379.3,448.8,385.6,442.8,388.7z M460.6,388.3l-1.5-2.2
	c-0.9,1.4-1.8,2.8-2.6,4.2C457.9,389.5,459.3,388.9,460.6,388.3z M501.3,462.1c2.8,0.9,5.5,1.9,8.1,3c0.5-1.3,1.1-2.6,1.7-3.9
	l-4.5-6.5c-0.7,0.2-1.4,0.3-2,0.5C503.4,457.4,502.3,459.8,501.3,462.1z M568.3,550.6c-1.3-4.5-2.7-8.9-4.4-13.1l-7.7-11.1
	c3.5,8.4,6.1,17.3,7.8,26.4C565.5,552.3,566.9,551.5,568.3,550.6z M521,481.2c-0.4-0.3-0.9-0.6-1.4-0.9l-0.9,23.1l19.5-3l-7.3-10.6
	c-2.8-2.8-5.9-5.5-9.1-8C521.6,481.6,521.3,481.4,521,481.2z M571.2,557.9c2.6-0.8,5.3-1.3,8-1.5c-1.9-2.1-3.9-4.3-5.9-6.7
	c-1.1,1-2.2,1.9-3.4,2.7C570.3,554.2,570.8,556,571.2,557.9z M546.4,536.9c0.2-0.7,0.4-1.5,0.7-2.2c1.5-3.9,4-7.6,7.1-10.8
	c-0.3-0.6-0.5-1.2-0.8-1.8l-2.4-3.5l-7.5,17.8L546.4,536.9z M571.7,547.9c-1.1-1.3-2.2-2.6-3.2-3.9l-2.3-3.4c1.1,3.1,2.1,6.2,3,9.4
	C570,549.4,570.9,548.7,571.7,547.9z M517.6,504.1l0.9-24.5c0,0,0,0,0,0c-2.4-1.5-4.9-3-7.5-4.4l-2,40.3l34.8-7l-4.9-7l-20.7,3.2
	C517.9,504.7,517.6,504.4,517.6,504.1z M545.8,544.4c-0.3-2.1-0.2-4.2,0.3-6.3l-3.6-0.6c-0.4,0-0.6-0.4-0.4-0.8l8.1-19.1l-4.5-6.5
	l-13.1,31.1L545.8,544.4z M519.5,525.1c3.9-2.8,7-4.7,9.2-5.8c1.1-0.6,2.1-0.9,2.8-1.1c0.3-0.1,0.7-0.1,0.9-0.1
	c0.3,0,0.5,0.1,0.6,0.3c0.2,0.1,0.2,0.4,0.3,0.7c0,0.3-0.1,0.5-0.2,0.9c-0.2,0.7-0.7,1.5-1.4,2.6c-1.4,2.1-3.7,5-7,8.5
	c0,0,0,0-0.1,0c0.1,0.1,0.1,0.1,0.1,0.2c2.6,3.3,4.9,6.8,7,10.5l13.2-31.4l-0.8-1.2l-34.9,7C513,518.8,516.3,521.8,519.5,525.1z
	 M350,274.4c1.4,0.2,2.8,0.4,4.2,0.6c-0.5-0.7-1.4-1.1-2.5-1.1C351.2,273.9,350.6,274.1,350,274.4z M356.6,309.3
	c1.8,3.8,3.5,7.7,5,11.5c0.3-1.9,0.9-3.8,1.7-5.7C360.6,313.9,358.2,311.9,356.6,309.3z M351.8,273.5c1.3,0,2.4,0.6,3,1.6
	c1.8,0.2,3.6,0.4,5.3,0.5c0.4,0,0.6,0.4,0.4,0.7c-1.3,2.7-2.5,5.3-3.6,7.8c4.3-1.8,6-7.4,4-11.3c-2.3-4.4-6.2-6.4-10.1-6.5
	c-0.3,0-0.5,0-0.8,0c-4,0.2-8,2.5-10,6.4c3.2,0.5,6.3,1.1,9.4,1.6C350.2,273.8,351,273.6,351.8,273.5z M325.7,245.8
	c-4.1,4.9-10.4,6.4-15.7,5c-0.1,0.4-0.1,0.7-0.1,1.1c7.6,5.9,15.1,12.7,21.4,19.6c0.9,0.1,1.8,0.2,2.7,0.3c1.9,0.2,3.8,0.5,5.8,0.8
	c2-4.1,6.1-6.5,10.3-6.7c4.3-0.2,8.7,1.9,11.2,6.7c2.1,4.1,0.3,10.2-4.5,11.9c-1.1,2.7-2.1,5.2-3.1,7.8c3.2-0.1,6.5-1.2,9.3-3.5
	c6.1-5.1,6.8-12.8,4.6-20.8c-1.5-5.3-4.2-10.7-7.6-15.5c-6.3-7.9-13.1-15.1-20.3-21.4c3.3,3.4,6.3,7.3,8.5,11.3
	c2,3.6,3.3,7.4,3.4,11.1c0.2,3.6-0.8,7.2-3.4,10.4c-7.6,9.4-22.9,7-26.1-4.3c-1.9-6.7,1.2-12.2,5.9-14.7c4.7-2.5,10.9-1.9,15.1,3.3
	c1.7,2.2,2.2,5.4,1.3,8.2c-0.9,2.8-3.2,5.1-6.8,5.5c-2.8,0.3-5.3-1.1-6.5-3.1c-1.2-2-1.2-4.7,1-6.7c1.5-1.5,3.7-1.3,4.9-0.4
	c0.8,0.6,1.1,1.4,1.1,2.4c-0.1,0.9-0.5,1.8-1.5,2.6c-0.2,0.1-0.4-0.1-0.2-0.3c0.9-0.6,1.3-1.5,1.3-2.3c0-0.8-0.3-1.5-1-2
	c-1-0.8-3-0.9-4.4,0.3c-2,2-2.1,4.4-0.9,6.3c1.1,1.9,3.5,3.2,6.1,2.9c3.5-0.4,5.6-2.6,6.5-5.2c0.9-2.6,0.4-5.7-1.3-7.8
	c-4-5-10-5.5-14.6-3.2c-4.5,2.4-7.6,7.7-5.7,14.3c3.2,11,18.1,13.4,25.5,4.2c2.5-3.1,3.4-6.5,3.3-10.1c-0.1-3.6-1.4-7.3-3.4-10.9
	c-2.3-4.3-5.6-8.4-9.3-12c-2.8,0.4-5.7,0.7-8.7,1.1C330.7,236.3,329.6,241.2,325.7,245.8z M369.1,263.6c-0.7-3-0.8-5.9-0.5-8.8
	c-1.2-0.5-1.9-1.6-1.9-2.9c0-0.7,0.3-1.4,0.7-1.9c-1.2-3.9-0.4-7,2.2-9.5c-3.3-4.2-7.2-8.9-11.1-13.2c-1.9,0.3-4.1,0.7-6.7,1.2
	c-0.5,1.4-1.8,2.4-3.4,2.4c-1.1,0-2.2-0.5-2.8-1.4c-1.8,0.3-3.7,0.5-5.6,0.8C350.6,239.6,360.4,251,369.1,263.6z M363.1,240.4
	c1.7,0,3.2,1.4,3.2,3.2c0,1.7-1.4,3.2-3.2,3.2c-1.7,0-3.2-1.4-3.2-3.2C359.9,241.8,361.4,240.4,363.1,240.4z M356.1,232.4
	c1.7,0,3.2,1.4,3.2,3.2c0,1.7-1.4,3.2-3.2,3.2c-1.7,0-3.2-1.4-3.2-3.2C353,233.8,354.4,232.4,356.1,232.4z M351,298.8
	c1.6,2.8,3.2,5.6,4.6,8.5c-0.5-1.4-0.9-2.9-0.9-4.5c-0.2-7,4.2-11.6,9.3-12.9c1.3-0.3,2.6-0.4,3.9-0.3c4,0.3,7.8,2.6,9.9,7.1
	c0.5,1,0.7,2.1,0.7,3.3c1.9-0.9,3.9-1.7,6.1-2.4c-0.4-4.1-1.7-8.4-3.6-12.6c-1.1-2-2.2-4.1-3.3-6.1c-0.3-0.3-0.7-0.7-1-1
	c-3.4-3.8-5.7-7.9-7.1-11.9c-2.3-3.4-4.6-6.7-7.1-9.9c2.3,3.8,4.2,7.9,5.3,11.9c2.2,8.1,1.5,16-4.7,21.2c-2.9,2.4-6.3,3.6-9.7,3.6
	C352.7,294.8,351.9,296.8,351,298.8z M366.9,290c-0.9,0-1.9,0.1-2.8,0.3c-5,1.2-9.2,5.6-9,12.5c0.2,5.7,3.8,10,8.5,12
	c1-2.3,2.4-4.4,4.1-6.5c-2.2-0.8-3.7-2.6-4.2-4.6c-0.5-2.2,0.2-4.5,2.7-5.9c0.5-0.3,0.9-0.4,1.4-0.5c1.4-0.2,2.8,0.4,3.5,1.3
	c0.6,0.7,0.7,1.7,0.5,2.6c-0.3,0.9-0.9,1.7-2,2.1c-0.2,0.1-0.4-0.3-0.1-0.3c1-0.4,1.6-1.1,1.8-1.9c0.2-0.7,0.1-1.5-0.5-2.2
	c-0.8-1-2.7-1.6-4.4-0.7c-2.3,1.3-3,3.5-2.5,5.5c0.4,1.9,1.9,3.7,4,4.4c1.3-1.5,2.9-3,4.6-4.3c1.7-1.3,3.5-2.4,5.6-3.5
	c0-1.1-0.2-2.3-0.7-3.3C375.3,292.1,371.1,289.9,366.9,290z M386.9,296.9c-1.3-2.8-2.6-5.5-4-8.3c1.1,3,1.8,6,2.1,8.9
	C385.6,297.2,386.2,297,386.9,296.9z M315.7,235.6c-0.1,0.9-0.5,1.8-1.5,2.5c-0.2,0.1-0.4-0.2-0.2-0.3c0.9-0.6,1.3-1.4,1.4-2.2
	c0.1-0.8-0.3-1.5-0.9-2c-0.2-0.2-0.4-0.3-0.7-0.4c-1.1,0.1-2.1,0.2-3.2,0.2c-0.2,0.1-0.4,0.3-0.5,0.4c-2.1,1.9-2.2,4.3-1.1,6.3
	c1.1,1.9,3.4,3.3,6.1,3.1c3.5-0.3,5.7-2.5,6.6-5.1c0.6-1.8,0.6-3.8,0.1-5.6c-2.5,0.2-4.9,0.5-7.2,0.7c0.1,0,0.1,0.1,0.2,0.1
	C315.4,233.8,315.8,234.7,315.7,235.6z M363.2,331.2L363.2,331.2c1.6,0.3,3.4,0.5,5.2,0.7c0.4,0.1,0.6,0.6,0.3,0.9
	c-1.4,1.1-2.7,2.3-3.8,3.5c3.5,7.9,11,14.4,21.8,16.6c10.8,2.2,25.1,0,42-9.7c-1.1-1.8-2.1-3.8-3-5.7l0-0.1
	c-13.6,6.4-24.4,7.4-32.1,5.3c-7.8-2.1-12.4-7.5-13.4-13.4c-0.9-6,1.7-12.6,8.3-17.2c3.9-2.8,9.2-4.8,15.8-5.8l-6.8-9.9
	c-10.5,1-18.4,4.1-24.1,8.4C364.2,311.8,361.1,321.9,363.2,331.2z M347.8,303.4c0.7-1.4,1.4-2.9,2.1-4.4c-0.1-0.2,0-0.5,0.2-0.6
	c2.8-6.6,5.2-14.1,9.2-21.9c-8.4-0.5-17-2.6-25.6-3.6c-0.9-0.1-1.8-0.2-2.7-0.3c-0.2,0.1-0.4,0.1-0.6-0.1c-1.6-0.1-3.3-0.2-4.9-0.2
	c-6,0-11.9,1.1-17.8,4.1c0,0.3-0.1,0.6-0.1,0.9c-0.6,3.3-1.5,6.6-2.9,9.8c9.4-5,18.3-5.7,27.1-5.5c5.4,0.1,10.9,0.7,16.3,0.7
	c0.1,0,0.2,0.2,0.2,0.3c-3,5.2-4.9,11.9-8,18.1c-3,6.1-7.1,11.7-14.6,15c-1.2,2.2-2.1,4.4-3,6.7c1.1-0.1,2.3-0.1,3.3-0.1
	c0.4,0,0.8,0,1.1,0C338.3,317.8,343.8,311.3,347.8,303.4z M485.9,436.7c-3.4,6.8-6.3,13.7-8.4,20.6c1.3,0.1,2.6,0.3,3.9,0.4
	c5.4-5.6,5.7-10.5,5.2-15.1C486.4,440.6,486.1,438.6,485.9,436.7z M380.5,329.2c0.9,5.8,5.4,11,13.1,13.1c7.6,2.1,18.3,1.1,31.8-5.3
	l-5.1-7.4c-6.1,2.3-11,2.9-14.5,2.5c-2-0.2-3.5-0.8-4.6-1.6c-1.1-0.8-1.7-1.8-1.9-3c-0.3-2.2,1.5-4.6,5.1-6.1c2.3-1,5.3-1.6,9.1-1.6
	l-9.1-13.3c-6.7,0.9-12,3-15.9,5.7C382.1,316.9,379.6,323.4,380.5,329.2z M329.3,322.4c7.2,0.4,12.2,1.9,17,3.6
	c3,1.1,5.8,2.2,9.1,3.2c-2.5-7.3-5.4-14.5-9-21.3C342.7,313.8,337.6,318.7,329.3,322.4z M387.6,296.7c2.8-0.7,5.7-1.2,9-1.6l-4-5.8
	c-5.2-2.5-9.5-5.4-13-8.6C382.5,285.9,385.2,291.3,387.6,296.7z M308.9,262.4c-0.2,4.3-0.4,8.6-0.9,12.9c3.8-1.9,7.7-3,11.6-3.5
	C316.2,268.5,312.6,265.3,308.9,262.4z M327.2,271.4c0.8,0,1.5,0.1,2.3,0.1c-5.9-6.5-12.9-12.7-19.9-18.2c-0.3,2.7-0.5,5.5-0.7,8.2
	c4,3.2,8,6.7,11.6,10.2C322.7,271.4,325,271.3,327.2,271.4z M377.8,277c3.3,3.7,7.7,7.1,13.3,10.1l-3.2-4.6
	c-7.1-10.2-13.1-19.1-17.9-26.9c0-0.1-0.1-0.1-0.1-0.2C369.1,262.3,371.5,270,377.8,277z M456.8,338.9c2.6,1.5,5.5,2.8,8.6,3.8
	l2.7-13l-4.5,0.9c-0.2,0.3-0.5,0.6-0.7,1L456.8,338.9z M553.8,554.8c-1.8-0.9-3.2-2-4.4-3.2c-0.1,0.5-0.5,1-1,1.5
	c-0.5,0.5-1.3,1.1-2.2,1.7c-1.8,1.1-4.2,2.2-7,3.1c0.9,2.9,1.8,5.8,2.4,8.8l12.5-11.8C554,554.9,553.9,554.8,553.8,554.8z
	 M334.1,483.6c-0.5,0.6-1.1,1.2-1.6,1.9c0.1,0.1,0.2,0.3,0.4,0.4c7,8.3,11.2,19.8,11.3,31c1.7-3,3.5-6.2,5.6-9.4
	c-1.8-9.5-6.2-18.9-13.4-26.6L334.1,483.6z M555.2,526.4c-2.6,2.8-4.7,6-6,9.2c-0.2,0.6-0.4,1.1-0.6,1.7l11,1.7
	C558.4,534.7,556.9,530.5,555.2,526.4z M322.8,561.6l6.2,20.2c2-0.8,4-1.8,5.9-2.9l-7.9-19.1C325.6,560.5,324.2,561.1,322.8,561.6z
	 M318.1,563.2l4.1,20.8c2.2-0.5,4.3-1.2,6.4-2.1l-6.1-20.2C321,562.3,319.5,562.8,318.1,563.2z M548.1,552.8c0.5-0.5,0.8-1,0.9-1.4
	c0-0.1,0-0.2,0-0.3c-0.2-0.2-0.4-0.4-0.6-0.7c-0.4-0.2-1-0.3-1.8-0.3c-1.9,0-5,0.6-9.6,2c0.7,1.7,1.4,3.5,2,5.3
	c2.8-0.8,5.2-2,6.9-3.1C546.8,554,547.6,553.4,548.1,552.8z M561.8,547c-0.5-2.3-1.1-4.6-1.8-6.9c0,0-0.1,0-0.1,0l-11.5-1.7
	c-0.5,2.2-0.6,4.4-0.2,6.4L561.8,547z M548,550c-0.9-1.2-1.5-2.6-1.9-4c-0.1-0.3-0.1-0.6-0.2-0.8l-13.4-2.2c1.6,2.9,3,5.8,4.3,8.9
	c4.6-1.4,7.7-2,9.8-2C547.2,549.9,547.6,549.9,548,550z M328.8,548.2c-8.4,5.6-18.3,8.1-27,7c-8.4-1-15.8-5.4-19.6-13.4
	c-1.9,1.9-3.7,3.8-5.6,5.6c2.1,3.7,5.1,7,8.8,9.7c10.6,7.6,27.2,9.6,45.5-1c0.8-0.5,1.6-0.9,2.3-1.5c0.1-3.4,0.5-7.1,1.2-11.1
	C332.7,545.2,330.9,546.8,328.8,548.2z M293.2,562.8l-6.9,18.4c2.4,1,4.9,1.8,7.5,2.5l3.9-19.6C296.1,563.7,294.6,563.3,293.2,562.8
	z M284.5,558.3c-0.1-0.1-0.2-0.1-0.3-0.2l-11.8,14.8c1.3,1.1,2.8,2.2,4.3,3.2c0.7,0.5,1.3,0.9,2,1.3l9.6-16.6
	C287,560,285.7,559.2,284.5,558.3z M288.7,560.9l-9.6,16.7c2.2,1.3,4.5,2.5,6.9,3.5l6.9-18.4C291.4,562.2,290,561.6,288.7,560.9z
	 M543.9,586c0.7-0.1,1.3-0.2,1.8-0.3c0.4-2.2,1-4.3,1.9-6.5c-1.2-0.2-2.5-0.3-4.1-0.4C543.7,581.2,543.8,583.6,543.9,586z
	 M298,564.1l-3.9,19.6c2.2,0.6,4.4,1,6.6,1.3l2-20.3C301.1,564.7,299.6,564.4,298,564.1z M308.1,564.9v20.8c2.3,0,4.6-0.1,6.9-0.3
	l-2.1-21C311.2,564.6,309.7,564.8,308.1,564.9z M464,481c-0.2-0.5-0.4-0.7-0.6-0.9c-0.2-0.2-0.3-0.3-0.5-0.3c-0.2,0-0.3,0.1-0.5,0.3
	c-0.2,0.2-0.4,0.6-0.6,1c-0.4,0.9-0.8,2.3-1.2,4.1c-0.7,3.7-1.2,9.2-1.3,16.4c2.2-0.1,4.4-0.2,6.6-0.2c0.1-7.3-0.2-12.8-0.8-16.4
	C464.8,483.3,464.4,481.9,464,481z M303.1,564.8l-2,20.4c2.2,0.3,4.4,0.5,6.6,0.5v-20.8C306.2,564.9,304.6,564.9,303.1,564.8z
	 M502.3,471.2C502.2,471.2,502.2,471.2,502.3,471.2l-19.6,15.7c-0.3,0.2-0.7,0.1-0.9-0.3l-8.4-22.1v-0.1c-2.4-0.2-4.8-0.3-7.3-0.3
	H464l14.7,38.3l31.2-27.7C507.5,473.4,504.9,472.2,502.3,471.2z M373.3,229.1c-1.2-1.2-2.4-2-3.6-2.6c1.4,1.7,2.7,3.4,4.1,5.2
	C373.5,230.8,373.4,230,373.3,229.1z M563.1,553.1c-0.3-1.7-0.7-3.4-1-5.1l-5.7,5.4C558.3,553.8,560.7,553.8,563.1,553.1z
	 M446.2,503.7c4.3-1,8.5-1.7,12.6-2c0.1-7.3,0.6-12.8,1.3-16.5c0.4-1.8,0.8-3.2,1.2-4.2c0.2-0.5,0.4-0.8,0.7-1.1
	c0.2-0.3,0.5-0.4,0.8-0.4c0.3,0,0.6,0.1,0.8,0.3c0.2,0.3,0.5,0.6,0.7,1.1c0.4,0.9,0.8,2.3,1.1,4.1c0.6,3.6,0.9,9.2,0.8,16.5
	c4,0.1,7.9,0.5,11.8,1.1l-14.6-38L446.2,503.7z M375.8,234.3c0.3-1.5-0.3-3-1.8-4.6c-0.1-0.1-0.1-0.1-0.2-0.2
	c0.1,1.1,0.4,2.2,0.9,3.2C375,233.3,375.4,233.8,375.8,234.3z M488.4,229.8l-1.2-4c-3.4-0.7-6,0.1-8,2.5l1.4,3.3
	C483.1,230.9,485.7,230.3,488.4,229.8z M478.9,228.7c-0.2,0.3-0.5,0.7-0.7,1c-0.6,1.1-1,2.1-1.2,3c1.1-0.3,2.1-0.7,3.2-1
	L478.9,228.7z M280.1,554.5l-13.5,12.6c1.7,1.9,3.5,3.8,5.6,5.5l11.8-14.7C282.6,556.9,281.3,555.7,280.1,554.5z M496.9,228.7
	L496.9,228.7c-4.4-1.2-7.3-2-8.7-2.6c-0.2-0.1-0.4-0.1-0.5-0.1l1.2,3.8C491.5,229.3,494.2,228.9,496.9,228.7z M372,238.7
	c2-1.2,3.3-2.5,3.7-3.9c-0.4-0.5-0.8-1.1-1.3-1.6c-0.1,0-0.1-0.1-0.1-0.1c0,0,0-0.1,0-0.1c-1.7-2.2-3.5-4.5-5.3-6.7
	c-1.4-0.5-2.9-0.6-4.3-0.2c-0.9,0.2-2.6,0.6-5,1c3.8,4.1,7.5,8.6,10.7,12.7C370.8,239.4,371.4,239,372,238.7z M554.5,555.1l-12.7,12
	l11.3,3c1.3-1.7,2.8-3.2,4.4-4.6l-3-0.6c-0.1,0-0.2-0.2-0.1-0.3l9.1-8.9c0,0,0.1,0,0.1-0.1c0-0.1,0-0.1,0-0.2
	C560.3,556.3,557.2,556.2,554.5,555.1z M561.6,547.8l-13.2-2.2c0.8,2.9,2.8,5.3,6.4,7.1c0.3,0.2,0.7,0.3,1.1,0.5L561.6,547.8z
	 M557.8,565.2c2-1.7,4.2-3.2,6.5-4.4c-0.2-1.6-0.4-3.2-0.7-4.7l-8.7,8.5L557.8,565.2z M532.8,519.8c0.1-0.3,0.1-0.6,0.1-0.8
	c0-0.2-0.1-0.3-0.1-0.4c-0.1-0.1-0.4-0.2-0.8-0.2c-0.1,0-0.3,0-0.4,0.1c-0.7,0.1-1.6,0.5-2.7,1.1c-2.2,1.1-5.3,3-9.1,5.7
	c1.7,1.7,3.3,3.6,4.8,5.5c0,0,0,0,0,0c3.3-3.6,5.6-6.4,7-8.5C532.2,521.3,532.6,520.5,532.8,519.8z M570.3,558.1
	c-0.4-1.7-0.8-3.5-1.3-5.2c-1.5,0.9-3,1.6-4.6,2.2c0.3,1.7,0.5,3.4,0.7,5.1C566.8,559.4,568.5,558.7,570.3,558.1z M479.3,502.9
	c3.8,0.7,7.5,1.8,11.1,3.1c0,0,0,0,0,0c3-5,5.6-8.7,7.6-11.1c1-1.2,1.9-2.1,2.6-2.6c0.7-0.5,1.3-0.8,1.8-0.6
	c0.3,0.1,0.4,0.3,0.6,0.6c0.1,0.3,0.2,0.6,0.3,1c0.1,0.8,0,2-0.3,3.5c-0.6,3-1.8,7.3-3.9,12.9c0,0.1-0.1,0.1-0.1,0.1
	c3.2,1.6,6.3,3.5,9.3,5.6l2-40L479.3,502.9z M502.9,493.3c0-0.4-0.1-0.7-0.2-0.9c-0.1-0.2-0.2-0.3-0.4-0.4c-0.1,0-0.1-0.1-0.3-0.1
	c-0.3,0-0.7,0.2-1.2,0.6c-0.7,0.5-1.5,1.3-2.5,2.6c-2,2.4-4.5,6-7.5,11c2.7,1,5.4,2.2,7.9,3.5c0,0,0-0.1,0-0.1
	c2-5.6,3.3-9.9,3.8-12.8C502.9,495.2,503,494,502.9,493.3z M313.2,564.3l2.1,21c2.2-0.3,4.4-0.7,6.5-1.2l-4.1-20.8
	C316.2,563.7,314.7,564,313.2,564.3z M266.3,566.8l13.5-12.6c-0.9-1-1.8-2.1-2.6-3.2l-11.4,6.7c-1.2,1.1-2.4,2.2-3.7,3.3
	C263.4,563.1,264.8,565,266.3,566.8z M226.1,586.6c1.4,2.7,2.8,5.3,4.4,7.8c-0.5-4.8,0.9-9.7,4.1-13.7c-0.5,0.2-1,0.4-1.4,0.5
	C229.2,582.6,226.9,584.4,226.1,586.6z M246,590.6c0-0.9,0.5-1.8,1.4-2.6c0.2-0.1,0.5,0.2,0.3,0.3c-0.9,0.7-1.3,1.5-1.3,2.3
	c0,0.5,0.1,1,0.5,1.5c1.8-0.4,3.8-0.8,5.9-1.2c0.9-1.7,0.7-3.5-0.2-5c-1.2-1.9-3.5-3.2-6.2-2.8c-3.5,0.4-5.5,2.6-6.3,5.2
	c-0.5,1.7-0.5,3.5,0,5.2c1.8-0.4,4-0.9,6.3-1.4C246.2,591.8,246,591.2,246,590.6z M317.3,519.5c-1,1.8-2.3,3.3-3.6,4.4
	c2.6-1.4,4.4-3,4.9-3.4c4.4-4.7,5.9-11.9,2.8-20.9c-0.1-0.3-0.2-0.5-0.3-0.7c-1.3,1.5-2.6,3-3.9,4.5
	C319.7,508.7,319.9,514.6,317.3,519.5z M226.3,590.5c1,2.6,2.4,4.2,4.1,4.7c-1.6-2.5-3.1-5.1-4.5-7.8
	C225.7,588.4,225.8,589.4,226.3,590.5z M276.9,550.7c-0.5-0.7-1-1.5-1.4-2.2c-2.8,2.8-5.6,5.5-8.4,8L276.9,550.7z M233.2,595.1
	c1.5-0.4,3.7-0.9,6.5-1.5c-0.5-1.8-0.5-3.7,0-5.4c0.8-2.8,3-5,6.6-5.5c2.8-0.4,5.3,1,6.6,3c0.9,1.5,1.2,3.3,0.4,5.1
	c0.5-0.1,1-0.2,1.5-0.3c2.4-0.5,4.9-0.9,7.3-1.3c0-1.4-0.2-2.8-0.6-4.3c-2.3-7.4-10.1-10.8-17.3-9.4c-3.2,2.2-6.2,3.8-8.8,4.9
	c-0.1,0.1-0.2,0.3-0.4,0.4c-3.5,4.2-4.8,9.4-4.1,14.4c0,0.1,0.1,0.1,0.1,0.2C231.8,595.4,232.5,595.4,233.2,595.1z M330.2,490
	c0.4-0.6,0.6-1.1,0.5-1.7c0-0.2-0.1-0.4-0.1-0.6c-0.9,1-1.8,2.1-2.6,3.1c0.1,0,0.3,0,0.4,0C329.1,490.9,329.9,490.6,330.2,490z
	 M329.6,513.1c-0.5,10.7-7.4,20.3-16.8,22.5c-8.7,2.1-16-0.6-20.2-4.9c-1,1.1-2,2.2-3,3.3c0.8-0.3,1.6-0.6,2.5-0.7
	c2.9-0.4,5.9,0.9,7.3,3.2c1.3,2,1.3,4,0.6,5.6c-0.7,1.5-2.3,2.6-4.2,2.6c-1.3,0-2.5-0.5-3.3-1.3c-0.7-0.7-1.1-1.8-0.7-2.8
	c0.3-0.8,0.9-1.5,1.7-1.7c0.7-0.2,1.7-0.1,2.6,0.5c0.2,0.1,0,0.5-0.2,0.3c-0.8-0.6-1.6-0.7-2.2-0.5c-0.6,0.2-1.1,0.7-1.4,1.5
	c-0.3,0.9,0,1.7,0.7,2.4c0.7,0.7,1.7,1.1,3,1.1c1.8,0,3.2-1,3.9-2.4c0.7-1.4,0.7-3.3-0.6-5.2c-1.4-2.2-4.2-3.4-7-3
	c-1.1,0.1-2.3,0.5-3.3,1.1c-1.1,1.2-2.2,2.4-3.4,3.5c-0.7,1.4-1,3-0.9,4.8c0.1,0.9,0.1,1.5,0.4,2.2c4,5.4,10.1,8.4,16.8,9.2
	c2,0.2,3.9,0.3,6,0.2c-4.6-0.8-7.9-4.2-8.2-8.4c-0.4-5.7,3.7-9.4,7.9-9.9c2.9-0.4,5.9,0.9,7.4,3.2c1.3,2,1.3,4,0.6,5.6
	c-0.7,1.5-2.3,2.6-4.2,2.6c-1.3,0-2.5-0.5-3.2-1.2c-0.7-0.8-1.1-1.8-0.7-2.8c0.3-0.8,0.9-1.5,1.6-1.7c0.8-0.2,1.7-0.1,2.6,0.5
	c0.2,0.1,0,0.5-0.2,0.3c-0.8-0.6-1.6-0.7-2.2-0.5c-0.6,0.2-1.1,0.7-1.4,1.5c-0.3,0.9,0,1.7,0.6,2.4c0.7,0.7,1.7,1.1,3,1.1
	c1.8,0,3.2-1,3.9-2.4c0.7-1.4,0.7-3.3-0.5-5.2c-1.4-2.2-4.2-3.4-7-3c-4,0.5-7.9,3.9-7.6,9.5c0.3,4.6,4.4,8.1,9.9,8.2
	c5.3-0.6,10.7-2.4,15.7-5.2c-2.6,0-5.1-1-7.4-3.3c-1.7-1.7-2.7-4.7-2.4-7.4c0.3-2.8,1.9-5.4,5.3-6.4c0.6-0.2,1.1-0.3,1.7-0.3
	c1.6-0.1,3.1,0.3,4.1,1.1c1.4,1.1,2.2,2.9,1.9,4.8c-0.3,2.7-3.2,4-5.2,2.9c-0.8-0.5-1.3-1.2-1.4-2c-0.1-0.8,0.3-1.7,1.1-2.4
	c0.2-0.1,0.5,0.1,0.2,0.3c-0.8,0.6-1.1,1.3-1,2c0.1,0.7,0.5,1.3,1.2,1.7c1.7,1,4.4-0.1,4.6-2.6c0.2-1.8-0.5-3.4-1.8-4.4
	c-1.3-1-3.2-1.5-5.5-0.7c-3.3,1-4.8,3.4-5,6.1c-0.3,2.6,0.7,5.5,2.3,7.1c2.4,2.5,5.1,3.4,7.8,3.2c0.7-0.4,1.5-0.9,2.2-1.3
	c2.3-1.5,4.3-3.3,6.1-5.2c0.3-1.3,0.6-2.7,0.9-4.1c0.2-1,0.5-2,0.8-3c-3.1,0.7-6.5,0-8.7-2.4c-1.8-2-2.2-4.9-1.4-7.3
	c0.7-2.1,2.4-3.7,4.7-3.9c0.3,0,0.7,0,1.1,0c2.4,0.3,3.7,1.8,4,3.5c0.2,1.6-0.6,3.4-2.4,4c-0.8,0.3-1.7,0.1-2.3-0.5
	c-0.6-0.5-0.9-1.4-0.7-2.5c0.1-0.3,0.5-0.2,0.4,0.1c-0.2,0.9,0.1,1.7,0.6,2.1c0.5,0.5,1.2,0.6,2,0.4c1.7-0.5,2.4-2,2.2-3.5
	c-0.2-1.5-1.4-2.9-3.6-3.2c-2.8-0.3-4.6,1.3-5.3,3.6c-0.8,2.2-0.4,5,1.3,6.9c2.2,2.3,5.5,3,8.5,2.2c1.3-4.3,3.1-8.8,5.6-13.7
	c-0.9,0.7-2,1.1-3.2,1.3c-2.6,0.5-5.7-0.3-7.7-2.6c-1.7-1.9-2-4.6-1.2-6.8c0.8-2.2,2.8-3.9,5.5-3.7c2.3,0.2,3.5,1.7,3.7,3.3
	c0.2,1.6-0.6,3.2-2.3,3.6c-0.8,0.2-1.7,0-2.3-0.5c-0.6-0.5-0.9-1.3-0.5-2.4c0.1-0.3,0.5-0.1,0.3,0.1c-0.4,0.9-0.1,1.5,0.4,1.9
	c0.5,0.4,1.3,0.5,2,0.4c1.5-0.4,2.2-1.8,2-3.2c-0.2-1.4-1.3-2.8-3.4-3c-2.6-0.2-4.3,1.4-5.1,3.5c-0.8,2.1-0.5,4.6,1.1,6.4
	c1.9,2.2,4.8,2.9,7.4,2.5c1.4-0.2,2.7-0.9,3.7-1.8c0.4-0.8,0.8-1.6,1.3-2.4c0-4-0.4-8-1.4-11.8c-1.3,2.3-4.5,3.8-8.2,3
	c-2.9-0.7-4.8-2.7-5.4-4.9c-0.6-2.2,0.1-4.7,2.3-6.3c1.1-0.7,2.2-0.9,3.2-0.8c1,0.2,1.9,0.7,2.5,1.3c0.5,0.5,0.8,1.1,0.9,1.7
	c0.1,0.6-0.1,1.3-0.6,1.9c-0.5,0.7-1.3,1.1-2.2,1.1c-0.8,0-1.7-0.4-2.2-1.3c-0.1-0.2,0.2-0.4,0.3-0.2c0.4,0.8,1.1,1.1,1.8,1.1
	c0.7,0,1.5-0.3,1.9-0.9c0.4-0.6,0.5-1.1,0.5-1.7c0-0.5-0.3-1-0.7-1.5c-1.1-1.2-3.2-1.9-5.2-0.5c-2.1,1.4-2.8,3.8-2.2,5.9
	c0.6,2.1,2.4,4,5.1,4.6c3.8,0.9,7-0.9,8-3.2c-1.2-5-3.2-9.7-5.8-13.9c0.1,3.3-3.6,6.5-8.5,5.4c-1.4-0.3-2.6-1-3.6-1.8
	c-0.1,0.1-0.1,0.1-0.2,0.2C328.3,501,329.9,507.2,329.6,513.1z M284.4,544.5c-0.1-0.4-0.1-0.8-0.2-1.3c-0.1-1.5,0.1-2.9,0.6-4.1
	c-0.7,0.7-1.4,1.5-2.1,2.2C283.2,542.5,283.7,543.5,284.4,544.5z M316.8,503.8c-5.2,6-10.5,12-15.9,17.9l17.7-11.8
	C318.4,507.8,317.8,505.8,316.8,503.8z M300.7,525.4l16.4-6.8c0,0,0,0,0.1,0h0c1.2-2.6,1.7-5.4,1.4-8.3l-18.8,12.5
	c-0.4,0.5-0.9,1-1.3,1.5c0.3,0.2,0.7,0.5,1.1,0.6C300,525.2,300.4,525.3,300.7,525.4z M316.9,519.3c0-0.1,0.1-0.1,0.1-0.2l-15.7,6.5
	c3.7,1.1,7.3,0.5,10.2-0.7C313.6,523.8,315.5,521.9,316.9,519.3z M251.3,570.2c-2.2,1.8-4.4,3.3-6.4,4.7c1-0.1,2-0.2,2.9-0.2
	c6.2,0.2,12,3.7,13.9,10c0.5,1.5,0.7,3,0.6,4.4c2.4-0.4,4.7-0.7,7.1-0.9C261.9,583.2,255.9,577,251.3,570.2z M331.1,488.3
	c0.1,0.6-0.1,1.3-0.6,1.9c-0.5,0.7-1.3,1.1-2.2,1.1c-0.2,0-0.5,0-0.7-0.1c-1.1,1.2-2.1,2.5-3.2,3.7c0.9,0.8,2,1.4,3.4,1.7
	c5.2,1.2,8.6-2.5,8-5.7c-1-1.6-2.2-3.2-3.4-4.6c-0.1-0.1-0.2-0.2-0.3-0.3c-0.4,0.5-0.9,1-1.3,1.5C331,487.7,331.1,488,331.1,488.3z
	 M319.3,521.3c-0.7,0.8-3.3,3-6.9,4.5c-3.7,1.5-8.4,2.4-13.2,0.2c-0.5-0.2-1-0.5-1.4-0.8c-0.3,0.3-0.5,0.6-0.8,0.9
	c-1.3,1.4-2.5,2.7-3.7,4.1c4,4.1,11.1,6.8,19.5,4.7c8.9-2.2,15.6-11.4,16.2-21.8c0.3-5.7-1.3-11.7-5.3-17.2c-0.6,0.7-1.1,1.3-1.7,2
	c0.2,0.4,0.4,0.9,0.5,1.4C325.6,508.5,324.1,516.3,319.3,521.3z M581,587.3c1.5,0.4,2.7,1.4,3.6,2.6c1.5,0.3,3,0.6,4.5,0.9
	C587.2,588.5,584.3,587.1,581,587.3z M328.9,582.2c-11.1,4.4-23.5,4.9-34.9,1.9c-0.1,0-0.1,0-0.2-0.1c-2.6-0.7-5.2-1.6-7.7-2.6
	c0,0-0.1,0-0.1,0c-2.5-1-4.9-2.3-7.2-3.6c0,0-0.1,0-0.1-0.1c-0.7-0.4-1.5-0.9-2.2-1.4c-1.5-1-3-2.1-4.4-3.3c0,0-0.1,0-0.1-0.1
	c-2.2-1.8-4.1-3.7-5.8-5.7c0,0-0.1-0.1-0.1-0.1c-1.6-1.9-3-3.8-4.3-5.8c-0.5,0.4-0.9,0.8-1.4,1.3c-0.4,0.4-0.8,0.7-1.3,1.1
	c0.6,0.6,0.9,1.4,0.9,2.2c0,1.8-1.4,3.2-3.2,3.2c-1.1,0-2-0.5-2.6-1.3c-0.7,0.6-1.4,1.2-2.1,1.7c4.7,7,11,13.3,19.2,18.5
	c2-0.2,3.9-0.3,5.9-0.5c-0.3-0.5-0.5-1.1-0.5-1.7c0-1.7,1.4-3.2,3.2-3.2c1.7,0,3.2,1.4,3.2,3.2c0,0.5-0.1,1-0.4,1.4
	c1.7-0.1,3.4-0.1,5.1-0.1c0.5-0.4,1.1-0.6,1.8-0.6c0.7,0,1.4,0.2,1.9,0.6c9.9,0.2,18.9,1.2,27.1,3.1c0.4-1.3,1.6-2.2,3-2.2
	c1.7,0,3.2,1.4,3.2,3.2c0,0,0,0,0,0c1.9-0.3,3.8-0.5,5.7-0.7c-0.9-0.6-1.6-1.6-1.6-2.7c0-1.7,1.4-3.2,3.2-3.2c1.8,0,3.2,1.4,3.2,3.2
	c0,1-0.5,2-1.3,2.6c1.2,0,2.4,0,3.6,0c0.8,0,1.6,0,2.4,0.1c2.5-1.4,5-3,7.3-4.8c-0.5-0.9-1.4-1.8-2.6-2.6c0,0-0.1,0-0.1-0.1
	c-0.1,1.7-1.5,3-3.2,3c-1.7,0-3.2-1.4-3.2-3.2c0-1.6,1.3-3,2.9-3.2c-0.7-0.9-1.4-1.9-2.1-3.1C335.9,579,332.5,580.8,328.9,582.2
	C328.9,582.2,328.9,582.2,328.9,582.2z M263.4,576.9c-1.7,0-3.2-1.4-3.2-3.2c0-1.7,1.4-3.2,3.2-3.2c1.7,0,3.2,1.4,3.2,3.2
	C266.5,575.5,265.1,576.9,263.4,576.9z M271,583.7c-1.8,0-3.2-1.4-3.2-3.2c0-1.8,1.4-3.2,3.2-3.2c1.7,0,3.2,1.4,3.2,3.2
	C274.2,582.3,272.8,583.7,271,583.7z M583.4,577.8c0.2,2.8,0.4,5.6,0.5,8.4c3,0.7,5.5,2.5,7.3,4.9c1.4,0.3,2.8,0.6,4.1,0.9
	c-0.2-3.3-0.4-6.6-0.8-10C591.4,579.6,587.5,578.1,583.4,577.8z M541.7,567.5c0.8,3.6,1.3,7.3,1.7,11c1.6,0,3,0.2,4.3,0.4
	c0.9-2.1,2-4.2,3.3-6.2c0.5-0.8,1.1-1.6,1.7-2.3L541.7,567.5z M599.2,587.3c0.3,1.8,0.6,3.7,0.9,5.6c0.6,0.1,1.2,0.2,1.7,0.3
	c-0.5-1.4-1-2.8-1.6-4.1C599.9,588.5,599.6,587.9,599.2,587.3z M595.5,582.9c0.3,3.1,0.6,6.2,0.7,9.3c0.9,0.2,1.8,0.4,2.7,0.5
	c-0.3-2.6-0.8-5.2-1.3-7.6C597,584.3,596.3,583.6,595.5,582.9z M333.3,560c-0.1-1.1-0.2-2.3-0.2-3.5c-0.4,0.3-0.8,0.5-1.3,0.8
	L333.3,560z M558.2,587.3c0.5-4.4,2.2-8.8,4.8-12.1c4.3-5.7,11-9.7,18.4-10.6c0.9-0.1,1.9-0.2,2.8-0.2c0.9,0,1.9,0,2.8,0.1
	c-2.2-2.1-4.4-4.4-6.8-6.9c-10.8,0.5-21.4,5.7-28.2,15.8c-2.9,4.3-4.7,9.1-5.3,13.8c1.5,0,2.9-0.1,4.4-0.1
	C553.6,587.2,555.9,587.2,558.2,587.3z M327.3,559.7l7.9,19.1c1.2-0.7,2.5-1.5,3.7-2.4c-1.1-2-2.3-4.4-3.4-7.1c-1-2.5-1.7-5.2-2-8.2
	l-1.9-3.5C330.1,558.3,328.7,559,327.3,559.7z M345.8,593.1c0.1-0.1,0.2-0.2,0.3-0.3c-0.1,0-0.1,0-0.2,0L345.8,593.1z M591.4,568.6
	c-1.3-1.1-2.5-2.3-3.8-3.6c-2-0.3-4.1-0.3-6.1,0c-7.3,0.9-13.9,4.8-18.2,10.4c-2.5,3.3-4.2,7.6-4.7,11.9c2.6,0.1,5.2,0.2,7.7,0.4
	c0.9-3.8,3.6-7.3,7.6-9.1c2.8-1.3,5.6-1.9,8.3-1.9c6.4-0.1,12.4,3,16.3,7.7c0,0,0.1,0.1,0.1,0.1c1,1.3,1.9,2.7,2.6,4.2
	c0.7,1.6,1.3,3.2,1.8,4.9c4.2,0.8,7.3,1.3,9.2,1.6c0.4,0.1,0.9,0.2,1.3,0.2c-0.6-5.5-2.3-10.8-5.1-15.6
	C602.7,577.4,597,573.7,591.4,568.6z M335.6,591.9c-0.5,0-1.1,0-1.6,0l0.2,2.3c1.1,0.3,2,0.6,2.5,0.8c1,0.3,2,0.5,2.9,0.5V592
	C338.3,592,337,591.9,335.6,591.9z M328.1,592.4l0,0.2c2.3,0.6,4.2,1.1,5.7,1.5l-0.2-2.2C331.8,592,330,592.2,328.1,592.4z
	 M340.1,592v3.6c2.1,0,3.9-0.7,5.3-2.2l0.1-0.9C343.7,592.4,341.9,592.2,340.1,592z M612.3,581.2c-1.1-0.3-2.2-0.7-3.3-1.2
	c2.7,4.7,4.3,9.9,4.9,15.4c2.3,0,3.9-1.4,4.8-4.2c-0.3-2.5-0.8-4.9-1.4-7.1C616.1,582.9,614.5,581.9,612.3,581.2z M327.6,592.5
	c0.1,0,0.1,0,0.2,0l0-0.1C327.7,592.5,327.6,592.5,327.6,592.5z M347,591.3c0.9-1.6,1.2-3.1,0.8-4.5c-1.9,1.4-3.8,2.7-5.8,3.8
	C343.7,590.8,345.4,591.1,347,591.3z M462.9,410.6c-0.5,1-0.5,2.3,0.1,3.8c0.6,1.5,1.7,3.3,3.6,5.2c3.6,3.8,9.8,8.2,19.5,13
	c0.2-1.1,0.6-2.3,1.2-3.4c-2.6,0-5-0.3-7.2-1.1c-5.3-2-9.3-7-12.7-16.2c-0.5-1.3-0.9-2.5-1.4-3.7
	C464.5,408.6,463.5,409.4,462.9,410.6z M555.2,259.2c-2.2-1.4-4.4-2.7-6.6-3.9l1.1,6.7L555.2,259.2z M467.9,552.8
	c0.1,0,0.3,0.1,0.3,0.2c2,7.9,6.7,11.9,9.9,16.1c1.6,2.1,2.9,4.3,3.3,7c0.4,2.6,0,5.8-1.7,9.8c1.7,0.5,3.3,1.1,4.8,1.5
	c0.2-5,1.6-9.2,3.6-13.1c0.7-11.5-3-18-7.9-23.1c-4.9-5.2-11-9.1-15-15.5c-1.1,3.2-2.7,6.1-4.4,8.9c2.3,3.5,4.5,6.8,6.5,9.9
	c0.1-0.5,0.2-1.1,0.2-1.6C467.6,553,467.8,552.8,467.9,552.8z M468,554.4c-0.1,0.3-0.1,0.6-0.2,0.9c0.4,0.7,0.9,1.4,1.3,2
	C468.7,556.4,468.4,555.5,468,554.4z M476.6,595.4c0.6,0,1.2,0,1.9-0.1c-0.7-0.3-1.3-0.6-2-0.9C476.5,594.8,476.5,595.1,476.6,595.4
	z M465.3,535.3c0.1,0,0.1,0,0.1,0.1c3.9,6.5,10.2,10.4,15.2,15.8c4.8,5.1,8.5,11.5,8,22.6c1.4-2.4,3-4.7,4.8-6.8
	c0.1-0.1,0.2-0.2,0.3-0.3c0.7-11-3.6-16.6-9.7-22c-5.9-5.3-13.5-10.5-19.3-20.1c-2.6,4.4-5.7,8.7-8.7,12.9l0.9,1.3
	c1.3,2,2.6,3.8,3.8,5.7c1.7-2.9,3.4-5.8,4.4-9.1C465.1,535.3,465.2,535.3,465.3,535.3z M537.8,250.4c-2.8-1-5.6-2-8.5-2.7l2.6,7.7
	L537.8,250.4z M530.7,263.6c1.8,0.3,3.6,0.7,5.4,1.2c3.2,0.9,6.5,2,9.6,3.3l-2.7-14.3L530.7,263.6z M483.1,439.8
	c0.9-1.8,1.8-3.7,2.8-5.5c0-0.5,0.1-0.9,0.1-1.3c-7.7-4-14.7-6.9-20.1-8.1c-1.7-0.3-3.3-0.5-4.6-0.5c-0.8,0-1.6,0.1-2.2,0.2
	c-1.8,0.4-3,1.2-3.6,2.7c-0.6,1.5-0.7,3-0.1,4.5c0.6,1.6,1.9,3.2,3.9,4.9c3.9,3.3,10.7,6.8,20.7,10.5c1-2.4,2-4.7,3.1-7l-10.7-5
	c-0.5,0.8-1.4,1.3-2.3,1.3c-1.5,0-2.8-1.2-2.8-2.7c0-1.5,1.2-2.7,2.8-2.7c1.5,0,2.7,1.2,2.7,2.7c0,0.4-0.1,0.7-0.2,1.1L483.1,439.8z
	 M470.8,584.3c-2.5,2.5-2.7,5-0.5,7.5c1.8,2.1,3.8,3.3,6,3.5c-0.1-0.4-0.1-0.8-0.2-1.2c0-0.1,0.1-0.2,0.2-0.2c0,0,0.1,0,0.1,0
	c1,0.4,2,0.9,2.9,1.2c0.1,0,0.3,0,0.4-0.1c1.8-0.4,6.6-1.3,14.4-2.6c-1.5-0.8-3-1.5-4.7-2.1C484.3,588.5,478.4,586.9,470.8,584.3z
	 M490.9,333.2c0.7-2.4,1.5-4.8,2.5-7.1c-8.3-2.5-13.6-8.8-15.5-16.3c-1.7,2.8-3.5,5.8-5.5,8.8C475.9,325.2,482.2,330.5,490.9,333.2z
	 M473.8,322.6c-0.8-1-1.4-2.1-2-3.2c-0.9,1.4-1.9,2.7-2.9,4.1L473.8,322.6z M521.4,281.2c-7.6,1.2-14.4,4.5-18.9,9.4
	c-3.3,3.6-5.4,7.9-5.7,13.1c0.8-2.3,2.1-4.4,3.7-6.1c3-3.1,7-5.1,10.9-5.5c1-0.1,2-0.1,3.1-0.1c4.4,0.2,8.8,1.8,12.1,4.2
	c0.3-0.4,0.7-0.7,1-1.1c1.5-1.6,2.9-3.2,4.4-4.7c0.2-1.8,1.6-3.2,3.4-3.6c1.5-1.5,2.9-3,4.3-4.5c-3.7-1-7.4-1.6-11.1-1.6
	C526.2,280.6,523.8,280.8,521.4,281.2z M518.8,288.3c-0.9,0-1.7-0.7-1.7-1.6c0-0.9,0.7-1.7,1.7-1.7c0.9,0,1.6,0.7,1.6,1.7
	C520.5,287.6,519.7,288.3,518.8,288.3z M526.4,289.7c-1.5,0-2.7-1.2-2.7-2.7c0-1.5,1.2-2.7,2.7-2.7c1.5,0,2.7,1.2,2.7,2.7
	C529.1,288.5,527.8,289.7,526.4,289.7z M468.3,329.4L468.3,329.4c0.1,0,0.2,0.1,0.2,0.2l-2.8,13.3c1.4,0.5,2.9,0.9,4.4,1.3l0.1,0
	c-0.2-0.1-0.3-0.3-0.3-0.5l4.2-20.3l-5.8,1.1c-1.4,1.9-2.8,3.9-4.3,5.8L468.3,329.4z M491.1,257.4L491.1,257.4l3.1-11.4
	c-2.3,0.4-4.5,0.9-6.7,1.4c0.7,1.4,1.4,2.9,2,4.5C490.2,253.6,490.7,255.4,491.1,257.4z M493.5,267.2l-1.7-1.4c0,0.7,0,1.5-0.1,2.2
	C492.3,267.8,492.9,267.5,493.5,267.2z M494.1,266.7l5.7-21.3c0,0,0.1-0.1,0.1-0.1c-1.8,0.1-3.6,0.4-5.4,0.7l-3.1,11.8
	c0,0.1-0.1,0.1-0.2,0.1l0,0c0.4,2.2,0.6,4.5,0.6,7L494.1,266.7z M494.9,266.6c5-2.1,10.6-3.4,16.5-4l-11.1-16.2L494.9,266.6z
	 M449.1,447.1c0.3-1.3,1.3-2.5,2.8-3.3c1.5-0.8,3.6-1.3,6.3-1.5c3.7-0.1,8.5,0.5,14.3,2.2c-6.1-2.6-10.6-5.2-13.6-7.7
	c-2-1.7-3.3-3.4-4-5c-0.6-1.6-0.6-3.3,0.1-4.8c0.7-1.5,2.1-2.5,3.9-2.9c1.9-0.4,4.2-0.3,7,0.3c3.6,0.8,8,2.4,12.8,4.5
	c-5.7-3.3-9.8-6.4-12.4-9.2c-1.9-1.9-3-3.7-3.6-5.3c-0.6-1.6-0.6-3-0.1-4.2c0.6-1.3,1.7-2.2,3.2-2.6c-0.7-1.9-1.5-3.8-2.3-5.6
	c-7.2,12.6-13,26.8-17,41.3c2.1,4.6,4,9.4,5.6,14.3c2.2-0.3,4.4-0.5,6.7-0.7c-3.4-1.3-5.9-2.8-7.5-4.4
	C449.5,450.8,448.7,448.9,449.1,447.1z M462.4,400.1c-1.8-3.3-4.1-6-7.3-7.5c-6.7,11.1-12.3,23-16.8,35.3c2.8,4.6,5.4,9.3,7.7,14.2
	c4-14.4,9.8-28.4,17-41C462.8,400.8,462.6,400.4,462.4,400.1z M580.9,231l-15.3,18.6c1.6,1.2,3.2,2.6,4.7,3.9
	c3.5-2.9,6.8-5.3,9.8-7.3l9.6-9.5C586.9,234.7,584,232.8,580.9,231z M476.3,457.1c0.3-0.9,0.6-1.9,0.9-2.8l-9.9-2.5
	c-0.4,1-1.4,1.7-2.5,1.7c-1.5,0-2.7-1.2-2.7-2.7c0-1.5,1.2-2.7,2.7-2.7c1.5,0,2.7,1.2,2.7,2.7c0,0.3,0,0.5-0.1,0.7l9.9,2.5
	c0.7-2.2,1.5-4.3,2.4-6.5c-8.6-3.4-15.5-4.8-20.6-4.7c-0.3,0-0.7,0-1,0c-2.6,0.1-4.6,0.6-6.1,1.4c-1.5,0.8-2.3,1.8-2.6,3.1
	c-0.4,1.6,0.3,3.4,2.1,5.2c1.7,1.6,4.4,3.2,8.2,4.6c0.3,0,0.6-0.1,0.9-0.1c1.8-0.1,3.6-0.2,5.4-0.2
	C469.6,456.8,473,456.9,476.3,457.1z M517,263.3c-9.3,0.1-18.1,2.1-25.4,5.9c-0.2,2.9-0.6,5.9-1.2,9.2c1-0.8,2.1-1.5,3.2-2.2
	c7-4.2,15.6-6.4,24.5-6.6c9.3-0.2,19.1,1.8,28,6.2c1.5-1.5,3-2.9,4.4-4.3c-4.8-2.5-9.8-4.4-14.8-5.8
	C529.5,264,523.2,263.2,517,263.3z M547.2,268.7c1.4,0.6,2.8,1.3,4.1,2c2.7-2.6,5.3-5.1,8-7.5l0-0.4L547.2,268.7z M443.1,401.4
	c-2,0.9-3.9,1.5-5.9,2c-0.2,7.3-0.9,13.9-1.5,20.3c0.6,0.8,1.1,1.7,1.6,2.5c1.7-4.5,3.5-9,5.5-13.4
	C443,409.2,443.1,405.5,443.1,401.4z M414.7,477.2l0.8,1.1l-0.1-1.5C415.1,476.9,414.9,477.1,414.7,477.2z M444.9,504l-28.8-27
	l0.2,2.6l7.2,10.4c0.2,0.1,0.3,0.3,0.5,0.5c0.7,0.7,1.6,1.8,2.6,3.4c0.9,1.4,1.9,3.1,3,5.2l5.6,8.2c2-0.9,4.1-1.6,6.2-2.2
	C442.6,504.6,443.8,504.3,444.9,504z M424.8,491.9l2.4,3.5c-0.3-0.5-0.6-0.9-0.9-1.4C425.8,493.2,425.3,492.5,424.8,491.9z
	 M443.5,401.2c0,3.8,0,7.3-0.3,10.6c2.4-5.2,5-10.3,7.8-15.3C448.5,398.5,446,400.1,443.5,401.2z M494,276.7
	c-1.3,0.8-2.5,1.6-3.7,2.5c-0.3,1.3-0.5,2.6-0.8,4c-1.8,7.7-5.5,16.3-11.2,25.9c1.7,7.6,6.9,14,15.3,16.5c0.4-0.9,0.8-1.8,1.2-2.7
	c3.2-6.8,7.1-13.2,9.4-20.4c0.1-0.3,0.3-0.4,0.5-0.4c0.2,0,0.4,0.1,0.5,0.3c2,3.2,4.4,6.1,6.9,8.7c0.6-1.4,0.5-2.9,0-4.2
	c-0.6-1.5-1.8-3-3.3-3.8c-1.5-0.9-3.3-1.3-5.1-0.9c-0.4,0.1-0.7,0.2-1.1,0.3c-0.2,0.1-0.5,0.2-0.7,0.3c-2.2,1.2-3.9,3.2-4.8,6.4
	c0,0.2,0.1,0.3,0.1,0.5c0.1,0.7-1,0.9-1.1,0.2c-1.5-8.1,0.9-15,5.6-20.1c4.7-5.1,11.7-8.5,19.5-9.7c2-0.3,4-0.5,6-0.5
	c4.4-0.1,9,0.5,13.5,1.8c1.7-1.7,3.4-3.5,5.1-5.1c-8.4-4.1-17.4-6.1-26.2-6.1C510.2,270.1,501.3,272.3,494,276.7z M491.3,287.1
	c1.4,0,2.5,1.1,2.5,2.5c0,1.3-1.1,2.5-2.5,2.5c-1.4,0-2.5-1.1-2.5-2.5C488.8,288.2,490,287.1,491.3,287.1z M487.8,295.3
	c1.5,0,2.8,1.3,2.8,2.8c0,1.5-1.3,2.8-2.8,2.8c-1.5,0-2.8-1.3-2.8-2.8C484.9,296.6,486.2,295.3,487.8,295.3z M485.1,307.5
	c0-1.5,1.2-2.8,2.8-2.8c1.5,0,2.8,1.3,2.8,2.8c0,1.5-1.3,2.8-2.8,2.8C486.3,310.3,485.1,309.1,485.1,307.5z M491.9,318.5
	c-1.5,0-2.8-1.3-2.8-2.8s1.3-2.8,2.8-2.8c1.5,0,2.8,1.3,2.8,2.8S493.4,318.5,491.9,318.5z M497.3,285.7c-1.2,0-2.2-1-2.2-2.2
	c0-1.2,1-2.2,2.2-2.2c1.2,0,2.2,1,2.2,2.2C499.6,284.7,498.6,285.7,497.3,285.7z M504,281.2c-1.1,0-2-0.9-2-2c0-1.1,0.9-2,2-2
	c1.1,0,2,0.9,2,2C506,280.3,505.1,281.2,504,281.2z M510.9,278.4c-0.9,0-1.8-0.8-1.8-1.7c0-1,0.8-1.7,1.8-1.7c0.9,0,1.7,0.8,1.7,1.7
	C512.6,277.7,511.8,278.4,510.9,278.4z M517.6,277c-0.9,0-1.5-0.7-1.5-1.5c0-0.9,0.7-1.5,1.5-1.5c0.8,0,1.5,0.7,1.5,1.5
	C519.2,276.3,518.5,277,517.6,277z M534.7,275.2c0.4,0,0.7,0.3,0.7,0.7c0,0.4-0.3,0.7-0.7,0.7c-0.4,0-0.7-0.3-0.7-0.7
	C534,275.6,534.3,275.2,534.7,275.2z M529.5,274.2c0.6,0,1.1,0.5,1.1,1.1c0,0.6-0.5,1.1-1.1,1.1c-0.6,0-1.1-0.5-1.1-1.1
	C528.4,274.7,528.9,274.2,529.5,274.2z M523.8,273.8c0.7,0,1.3,0.6,1.3,1.3c0,0.7-0.6,1.3-1.3,1.3c-0.7,0-1.3-0.6-1.3-1.3
	C522.5,274.4,523.1,273.8,523.8,273.8z M463.1,463.2c21.9-0.5,41.7,5.8,58.5,17.3c0.2,0.1,0.5,0.3,0.7,0.5c0,0,0.1,0,0.1,0.1
	c0.1,0,0.1,0.1,0.1,0.1c1.7,1.2,3.4,2.4,5,3.7l-10.2-14.7c-5.3-2.8-10.9-5.1-16.7-7c-0.2,0.1-0.5,0-0.6-0.2
	c-5.6-1.7-11.4-3.1-17.4-3.9v0c-0.6,0.2-1.2,0.5-1.7,0.7c-0.6,0.3-1.1-0.5-0.6-0.9c0,0,0.1-0.1,0.1-0.1c-1.2-0.1-2.4-0.3-3.6-0.4
	c-0.1,0-0.1,0-0.2,0c-3.4-0.3-6.9-0.4-10.4-0.4c-1.8,0-3.5,0.1-5.3,0.2c-18.8,1-35.2,6.8-48.6,15.4l2,2.9c5.6-3.5,11.6-6.4,18.1-8.3
	C442.9,465,453.2,463.4,463.1,463.2z M453.4,527.1c-1.4,0-2.8,0.1-4.2,0.2l6.3,9.1c2.1-2.9,4.2-5.8,6.1-8.8
	C458.8,527.3,456.1,527.1,453.4,527.1z M426.4,403.8c0,2.4-0.1,5.1-0.3,7c3.3,3.9,6.3,8.1,9.2,12.4c0.6-6.3,1.3-12.7,1.5-19.7
	C433.2,404.3,429.7,404.3,426.4,403.8z M480.9,576.3c-0.4-2.6-1.6-4.7-3.2-6.8c-1.1-1.4-2.4-2.9-3.7-4.4c0.2,0.3,0.4,0.6,0.6,0.9
	c4.6,7.5,4.1,13.1-1.7,16.6c-0.4,0.3-0.8,0.6-1.1,0.9c2.7,0.9,5.2,1.7,7.5,2.5C480.9,581.8,481.3,578.8,480.9,576.3z M481.4,338
	c-2,8-6.3,14.9-9.3,21.8l13.9-16.5C484.3,341.8,482.7,340.1,481.4,338z M452.9,464.8c0,0.1,0,0.1-0.1,0.2l-10.5,21.9
	c-0.2,0.4-0.7,0.4-0.9,0.1l-15.1-15.8c-3.4,1.4-6.8,3-9.9,4.9l29.1,27.4l17.3-39.4C459.5,464.2,456.3,464.4,452.9,464.8z M537.3,234
	C537.3,234,537.2,234,537.3,234C537.2,234,537.2,234,537.3,234L537.3,234z M545,237.1l1.4-3.4c-2.9,0.2-5.8,0.3-8.7,0.3l0,0.1
	C540.1,235,542.6,236,545,237.1z M486.5,332.6l2.2,7.4l1.1-1.3c0.2-1.6,0.5-3.1,0.8-4.6C489.2,333.7,487.8,333.2,486.5,332.6z
	 M485.9,332.3l-4.7,3.7c0.2,0,0.4,0.1,0.5,0.3c0.5,1,1.1,1.9,1.8,2.8l0.7-0.5c0,0,0.1-0.1,0.1-0.1c0.1,0,0.1,0.1,0.2,0.1l0.7,2.4
	c0.5,0.5,1,1,1.6,1.5l1.7-2l-2.3-8C486,332.4,486,332.3,485.9,332.3z M501.1,470.7c-8.3-3.2-17.2-5.3-26.4-6.2l7.9,20.9L501.1,470.7
	z M543.9,586.4c0,0.3,0,0.6,0,0.9c0.5,0,1.1,0,1.6,0c0.1-0.4,0.1-0.8,0.2-1.2C545.1,586.2,544.5,586.3,543.9,586.4z M451.6,465
	c-6.2,0.8-12.6,2.2-19.1,4.1c-1.7,0.5-3.4,1.1-5,1.7l14.2,14.9L451.6,465z M590.1,235.4c2.5-2.6,5-4.9,7.3-6.8
	c-1.5-2.4-3.4-3.2-5.7-2.6c-0.6,0.1-1.3,0.3-2.1,0.5c-1.6,1.6-3.3,3.4-5,5.2C586.6,232.9,588.4,234.1,590.1,235.4z M590.5,235.7
	c1.6,1.2,3.2,2.4,4.7,3.6c3.5-1.8,4.7-4.5,3.5-7.9c-0.3-0.9-0.7-1.7-1.1-2.4C595.3,230.9,593,233.1,590.5,235.7z M581.7,245.3
	c3.8-2.4,7.1-3.9,10-4.7c0.8-0.2,1.5-0.5,2.2-0.7c-1.2-1-2.5-2-3.8-2.9L581.7,245.3z M552.1,240.7l4.2-7.8c-3.1,0.4-6.3,0.7-9.4,0.8
	l-1.5,3.6C547.6,238.3,549.8,239.4,552.1,240.7z M499.9,591.6c3.1-0.5,6.3-0.9,9.6-1.3c-0.5-3.7-2.1-7.2-3.5-10.9
	C503.7,583.2,500.8,586.2,499.9,591.6z M559,244.8l9.3-13.8c-3.8,0.7-7.7,1.3-11.5,1.8l-4.3,8.1C554.6,242.1,556.8,243.4,559,244.8z
	 M565.3,249.4l15.2-18.6c-1-0.6-2-1.1-3.1-1.7c-2.3,0.5-4.9,1-7.7,1.6c-0.4,0.1-0.7,0.1-1.1,0.2l-9.5,14.1
	C561.4,246.4,563.4,247.9,565.3,249.4z M587,227.1c-2,0.5-4.5,1-7.5,1.6c1.3,0.8,2.7,1.5,4,2.3C584.8,229.7,585.9,228.4,587,227.1z
	 M515.9,575.8c-2.2-3.8-5.4-7-7.4-11.1c-3.1,3.9-6.6,7.3-9.5,11.4c-2.8,4-4.8,8.7-4.9,15.2c0.6,0.3,1.1,0.6,1.6,0.9
	c1.2-0.2,2.3-0.4,3.6-0.6c1-5.9,4.2-9.1,6.6-13c0.1-0.1,0.1-0.1,0.2-0.1c0.1,0,0.2,0.1,0.3,0.2c1.4,3.8,3.2,7.5,3.7,11.5
	c2.6-0.3,5.2-0.6,8-1C519.1,583.4,517.9,579.3,515.9,575.8z M469.5,529.3c5,6.1,10.6,10.2,15.4,14.5c5.9,5.3,10.4,11,10.2,21.5
	c2.8-3.2,5.9-6.1,8.9-9.2C495.7,541.7,483,533,469.5,529.3z M521.5,568.7c-3.8-5.7-8.7-11.1-11.8-17.3c-4.8,5.7-10.6,10.7-15.3,16.3
	c-4.8,5.7-8.3,11.9-8.6,20.3c1.3,0.4,2.6,0.9,3.8,1.4c1.5,0.5,2.8,1.1,4.1,1.8c0.1-6.5,2.2-11.2,5-15.3c2.9-4.2,6.6-7.6,9.7-11.6
	c0-0.1,0.1-0.1,0.2-0.1c0.1,0,0.1,0.1,0.1,0.1c2,4.1,5.2,7.3,7.5,11.3c2,3.5,3.2,7.6,2.3,13.5c1-0.1,2.1-0.2,3.2-0.3
	c1.8-0.2,3.7-0.4,5.5-0.5C528,580.5,525.2,574.4,521.5,568.7z M473.7,513.7c-4.2-0.7-8.3-1-12.2-1.1c-7.5-0.1-14.3,1-20.6,2.9
	l7.4,10.8c1.6-0.2,3.3-0.3,5-0.3c2.9,0,5.9,0.2,8.8,0.6c0.7-1.1,1.4-2.3,2.1-3.4c0.1-0.2,0.3-0.3,0.5-0.3c0.2,0,0.4,0.1,0.5,0.3
	c1,1.7,2,3.2,3,4.6c14.2,3.5,27.8,12.4,36.4,27.4c1.6-1.7,3.2-3.4,4.6-5.1c0.1-0.1,0.3-0.2,0.5-0.2c0.2,0,0.4,0.1,0.5,0.3
	c3,6.3,8.1,11.8,12.1,17.9c3.8,5.8,6.7,12.1,5.9,20.2c1-0.1,2-0.2,3.1-0.2c0.5-0.1,1-0.3,1.5-0.5
	C531.2,550.1,504.7,518.8,473.7,513.7z M535.4,587.7c1.2-0.1,2.3-0.1,3.5-0.2c0-0.6,0-1.2,0-1.7
	C537.8,586.5,536.6,587.2,535.4,587.7z M529.9,263.2l13.1-10.5c0.2-0.2,0.5-0.1,0.6,0.2l2.8,15.2l12.8-6.2c-1.2-0.9-2.5-1.8-3.8-2.6
	l-5.8,2.9c-0.1,0-0.2,0-0.2-0.1l-1.2-7.1c-3.3-1.7-6.7-3.3-10.1-4.6l-6.2,5.2c-0.1,0.1-0.2,0-0.3-0.1l-2.7-8.1
	c-1.6-0.4-3.2-0.8-4.9-1.1c0,0,0,0,0,0.1L529.9,263.2z M509.7,301.8c-1-0.2-2-0.3-3-0.3c-0.3,0-0.6,0-0.9,0.1
	c1.2,0.1,2.3,0.5,3.3,1.1c1.6,0.9,2.8,2.4,3.4,4c0.5,1.5,0.6,3.1-0.1,4.7c0.1,0.1,0.2,0.2,0.3,0.3c1.5-1.7,3.1-3.5,4.6-5.2
	C515.3,304.1,512.5,302.5,509.7,301.8z M495.9,323.4c-2.1,4.3-3.8,8.8-4.7,13.7c6.7-8.2,13.6-16.4,20.7-24.5c-2.5-2.6-5-5.4-7.1-8.6
	C502.6,310.9,498.9,317,495.9,323.4z M531.9,542.8c-0.2-0.1-0.3-0.3-0.2-0.4c-2.2-3.8-4.6-7.4-7.2-10.8c-4.6-5.8-9.9-11-15.8-15.3
	c-0.2,0-0.4-0.1-0.4-0.3c-8.7-6.3-18.6-10.6-29.5-12.7c-0.2,0.1-0.4,0.1-0.5-0.1c-4.4-0.8-8.9-1.2-13.5-1.2
	c-6.1,0-12.4,0.8-18.8,2.3c-0.1,0.2-0.3,0.2-0.5,0.1c-1.2,0.3-2.5,0.7-3.8,1c-2,0.6-4.1,1.3-6,2.2l5.1,7.4c6.3-1.9,13.3-3,20.8-2.9
	c3.9,0,8,0.4,12.2,1.1c31.2,5.1,57.7,36.5,59.5,74.1c2.1-0.8,4.1-1.8,6-3.2c0.1-0.1,0.2-0.1,0.3-0.1c0.3,0,0.6,0.3,0.6,0.6
	c-0.1,0.9-0.1,1.8-0.1,2.7c1.1,0,2.2-0.1,3.3-0.1C543.2,571.1,539.1,555.8,531.9,542.8z M511.6,293c-3.7,0.4-7.6,2.3-10.4,5.2
	c-2.4,2.5-4,5.7-4.1,9.3c1-2.5,2.6-4.2,4.6-5.3c1.8-1,3.9-1.4,6-1.3c0.7,0,1.4,0.1,2.1,0.3c3,0.7,5.8,2.3,7.9,4.8
	c2.7-3,5.5-6.1,8.2-9.1c-3.3-2.5-7.8-4-12.2-4C513,292.9,512.3,292.9,511.6,293z M469.1,557.4c1.4,3.1,3.1,5.5,4.8,7.7
	C472.5,562.7,470.9,560.1,469.1,557.4z M288.9,534.8c0.2-0.3,0.5-0.5,0.7-0.8c-2.1,0.9-4,2.7-4.9,5.1c0.3-0.3,0.5-0.5,0.8-0.8
	C286.3,536.8,287.5,535.6,288.9,534.8z M341.5,579.8c-0.1,0-0.2,0-0.3,0c1.2,1.5,2.3,2.6,3.5,3.3c0,0,0-0.1,0-0.1
	C344.7,581.2,343.2,579.8,341.5,579.8z M234.8,580.5c0,0.1-0.1,0.1-0.1,0.2c0.3-0.1,0.5-0.2,0.8-0.3c2.4-2.7,5.5-4.3,8.8-4.9
	c0.2-0.2,0.5-0.3,0.7-0.5C241.2,575.5,237.5,577.3,234.8,580.5z M313.8,233.2c0.2,0,0.5,0,0.7-0.1c-1.2-0.8-3.1-0.9-4.6,0.3
	c0.2,0,0.5,0,0.7,0C311.6,232.8,312.8,232.8,313.8,233.2z"/>
</svg>
