<?xml version="1.0" encoding="utf-8"?>
<!-- Generator: Adobe Illustrator 24.3.0, SVG Export Plug-In . SVG Version: 6.00 Build 0)  -->
<svg version="1.1" id="Mandala_Letter" xmlns="http://www.w3.org/2000/svg" xmlns:xlink="http://www.w3.org/1999/xlink" x="0px"
	 y="0px" width="828px" height="828px" viewBox="0 0 828 828" style="enable-background:new 0 0 828 828;" xml:space="preserve">
<style type="text/css">
	.st0{fill:none;stroke:#000000;stroke-miterlimit:10;}
</style>
<path class="st0" d="M0.1,827V0h827.3v827.3H0.1v-0.2 M486,593.8c2.8-2.1,2.9-4.4,2.5-6c-0.5-2.7-2.7-4.8-6.5-6.3
	c-3.2-1.3-7-3.2-11.1-5.6c-3.9-2.3-7.4-6.6-10.4-13c-3-6.4-4.5-16.1-4.5-28.6V422.6l71.4-84.6c11.4-14,23.8-28.3,36.8-42.4
	c12.9-14,25.3-26.3,36.7-36.4c11.3-10,20.5-15.9,27.4-17.6c3.6-1.1,6-2.8,7.1-4.9c0.9-1.8,0.9-3.8,0.1-6.1c-1.5-4.3-3.8-6.4-6.8-6.4
	c-0.6,0-1.2,0.1-1.8,0.3c-3.5,0.9-10.9,2.4-21.8,4.6c-10.9,2.2-22,3.3-32.9,3.3c-11.4,0-21.6-1.1-30.5-3.3c-9-2.2-14.9-3.7-17.5-4.6
	c-1.3-0.4-2.5-0.6-3.6-0.6c-3.3,0-6,1.6-7.9,4.8c-1.4,2.3-1.8,4.4-1.2,6.2c0.5,1.7,1.8,3,3.8,4c3.2,1.6,6.2,6,9,13.2
	c2.8,7.2,2.7,17.5-0.1,30.4c-2.8,13-11.6,29.2-25.9,47.9l-52,61l-75.3-110.1c-7-10.1-13-19.1-17.9-26.8c-2.5-4-3.5-7.4-2.8-10
	c0.5-2,1.9-3.6,4.3-5c2.7-1.6,4.2-3.5,4.5-5.5c0.3-1.8-0.5-3.7-2.2-5.6c-2.7-2.9-5.5-4.4-8.3-4.4c-0.8,0-1.6,0.1-2.3,0.3
	c-1.7,0.4-6.2,1.3-14.2,2.6c-7.8,1.3-17.1,2.6-27.5,3.6c-10.6,1.1-20.6,1.7-29.7,1.7c-13.6,0-26.2-1.1-37.6-3.3
	c-11.4-2.2-19-3.7-22.5-4.6c-0.7-0.2-1.4-0.3-2.1-0.3c-2.2,0-5.1,1.1-6.2,6.3c-0.7,3.4-0.1,8,6.9,10.5c7.3,2.2,14.4,6.3,21,12.3
	c6.8,6.1,14.4,14.3,22.7,24.4l100,145v111.8c0,12.6-1.5,22.2-4.5,28.6c-3,6.4-6.5,10.7-10.4,13c-4.2,2.4-7.9,4.3-11.1,5.6
	c-3.8,1.5-5.9,3.6-6.5,6.2c-0.6,2.3,0.2,4.4,2.1,6c1.8,1.5,3.8,2.3,5.9,2.3c0.5,0,2.2,0,13.9-2.3c7.6-1.5,17-3.1,27.8-4.6
	c10.8-1.5,21.5-2.3,32-2.3c10.5,0,21.2,0.8,32,2.3c10.8,1.5,20.2,3.1,27.8,4.6c11.7,2.3,13.3,2.3,13.9,2.3
	C481.9,596,484,595.3,486,593.8z M627.2,225.6c3.1-0.9,5.4,0.9,7,5.3c1.5,4.4-0.6,7.5-6.3,9.3c-7.1,1.8-16.4,7.7-27.9,17.9
	c-11.5,10.2-23.8,22.4-36.8,36.5c-13.1,14.2-25.3,28.3-36.8,42.5l-71.7,85v112.2c0,12.8,1.5,22.6,4.6,29.2c3.1,6.6,6.7,11.2,11,13.6
	c4.2,2.4,8,4.3,11.3,5.6s5.2,3.1,5.6,5.3c0.4,1.8-0.2,3.3-2,4.6c-1.8,1.3-3.5,2-5.3,2c-1.3,0-5.9-0.8-13.6-2.3
	c-7.7-1.5-17-3.1-27.9-4.7c-10.8-1.5-21.6-2.3-32.2-2.3s-21.4,0.8-32.2,2.3c-10.9,1.6-20.2,3.1-27.9,4.7c-7.7,1.6-12.3,2.3-13.6,2.3
	c-1.8,0-3.4-0.7-5-2c-1.6-1.3-2.1-2.9-1.7-4.6c0.4-2.2,2.3-4,5.6-5.3s7.1-3.2,11.3-5.6c4.2-2.4,7.8-7,11-13.6
	c3.1-6.6,4.6-16.4,4.6-29.2V422.1L258.1,276.7c-8.4-10.2-16-18.4-22.9-24.6c-6.9-6.2-14.1-10.4-21.6-12.6c-4.9-1.8-6.9-4.8-6-9
	c0.9-4.2,3.1-5.9,6.6-5c3.5,0.9,11.1,2.4,22.6,4.6c11.5,2.2,24.1,3.3,37.8,3.3c9.3,0,19.3-0.6,29.9-1.7c10.6-1.1,19.8-2.3,27.5-3.7
	c7.7-1.3,12.5-2.2,14.3-2.7c3.1-0.9,6.2,0.3,9.3,3.7c3.1,3.3,2.4,6.3-2,9c-6.2,3.5-6.9,9.2-2,16.9c4.9,7.7,10.8,16.7,17.9,26.9
	L446,393.5l53.1-62.4c14.6-19,23.3-35.2,26.2-48.5c2.9-13.3,2.9-23.7,0-31.2c-2.9-7.5-6.1-12.2-9.6-13.9c-3.5-1.8-4.2-4.5-2-8.3
	c2.2-3.8,5.5-5,10-3.7c2.7,0.9,8.5,2.4,17.6,4.6c9.1,2.2,19.3,3.3,30.9,3.3c11.1,0,22.1-1.1,33.2-3.3
	C616.4,228,623.7,226.5,627.2,225.6z M371.8,554.7l-0.7,0.9c1.6,1.2,3,2.4,4.2,3.7l0.5-0.5C374.6,557.4,373.2,556,371.8,554.7z
	 M385.5,579.8c0.1,0.7,0.2,1.4,0.3,2.1l2.6,4.4c-0.5-3.4-1.3-6.6-2.4-9.8L385.5,579.8z M368.2,551.5c-0.3-0.2-0.5-0.4-0.8-0.6
	l-1,1.6c1.5,0.9,3,1.9,4.5,3l0.8-1C370.5,553.4,369.4,552.4,368.2,551.5z M387.7,576.5c0.8-0.8,1.6-1.5,2.5-2.1
	c-1.3-0.4-2.5-0.7-3.7-1.2C386.9,574.3,387.3,575.4,387.7,576.5z M379.6,563.8l-0.3,0.3c1.1,1.5,2,3.1,2.8,4.7l0.4-0.3
	C381.6,566.9,380.6,565.3,379.6,563.8z M382.6,568.8l-0.4,0.3c0.8,1.7,1.5,3.5,2.1,5.3l0.8-0.3C384.3,572.3,383.5,570.5,382.6,568.8
	z M385.2,574.4l-0.8,0.3c0.4,1.3,0.7,2.5,0.9,3.8l0.4-2.8C385.6,575.3,385.4,574.9,385.2,574.4z M376.1,559.2l-0.4,0.5
	c1.3,1.3,2.4,2.7,3.4,4.1l0.3-0.3C378.3,562,377.2,560.5,376.1,559.2z M345.2,371c2.6-0.1,5.1,0.4,7.2,1.3c-2-1.3-4-2.5-6-3.6
	L345.2,371z M363.3,380.4c-2.1-1.8-4.2-3.5-6.4-5.1c2,2,3.5,4.7,4.2,7.8L363.3,380.4z M430.6,502.2c1.8-0.8,3.8-1.2,5.9-1.1
	c1.8,0.1,3.6,0.6,5.3,1.4c0.9-3.5,2.3-6.8,4.1-10.1c-2.3-1-4.6-1.4-6.9-1.4c-4.1,0-7.9,1.5-10.8,4c-4.4,3.7-6.6,9.5-4.3,16
	C424.7,506.7,427.3,503.7,430.6,502.2z M373.5,344.8l-6.9,9.2c10.9,7.4,20.5,16.5,28.4,26.9l9.1-6.1
	C395.7,363.2,385.4,353.1,373.5,344.8z M337.1,364.1l-4.9,11.7c2.3-1.6,4.6-2.8,6.8-3.6c2-0.7,3.9-1.1,5.7-1.2l1.3-2.5
	C343.2,366.9,340.2,365.4,337.1,364.1z M486.3,382.4c-0.2-2.1-0.6-4.1-0.7-6.1c-3.4,6.7-6.2,13.4-8.4,20.1l9.2-10.9
	C486.5,384.4,486.4,383.4,486.3,382.4z M498.7,366.8c-3.8,0.8-7.2,1.4-10.2,1.6c-1.2,1.8-1.6,3.6-1.7,5.5v0.9c0,2.3,0.5,4.8,0.8,7.5
	c0.1,0.6,0.1,1.2,0.1,1.8l8-9.5c0-1.6,0.2-3.1,0.7-4.5C496.8,368.9,497.6,367.7,498.7,366.8z M499.7,366.6c-1.5,1-2.4,2.2-3,3.7
	c-0.4,1.2-0.6,2.5-0.6,3.9l7-8.2c-0.7,0.2-1.4,0.3-2.1,0.5C500.5,366.4,500.1,366.5,499.7,366.6z M381.9,406.1
	c2.3,1.2,4.2,2.8,5.7,4.7c-1.1-2.1-2.3-4.2-3.5-6.2L381.9,406.1z M391,421.9c0.4-0.3,0.9-0.6,1.3-0.9c-0.6-1.5-1.3-3-1.9-4.5
	C390.9,418.2,391.1,420,391,421.9z M378.1,396l-10,8.2c4.7-0.6,8.8-0.1,12.2,1.2c0.4,0.1,0.8,0.3,1.2,0.5l2.4-1.6
	C382.1,401.4,380.2,398.7,378.1,396z M371.5,388.2l-13.6,13.6c-1.5,2.6-3.4,5.3-5.8,7.9c5.6-3,10.8-4.7,15.4-5.4l10.5-8.6
	C375.8,393.1,373.7,390.6,371.5,388.2z M363.6,380.6l-2.4,2.9c0.5,2.2,0.6,4.6,0.3,7.2c-0.4,3.1-1.4,6.4-3.1,9.8l12.7-12.7
	C368.8,385.3,366.3,382.9,363.6,380.6z M401.3,480.7c0.9-2.3,2-4.6,3.3-6.8c0,0-0.1,0-0.1,0c-3.8-2.9-6.5-5.4-8.2-7.3
	c-0.8-1-1.3-1.8-1.6-2.5c-0.3-0.7-0.4-1.3-0.1-1.6c0.3-0.4,0.8-0.6,1.6-0.5c0.7,0,1.7,0.3,2.9,0.7c2.3,0.9,5.6,2.5,9.7,5.2
	c0,0,0,0,0.1,0c1.9-2.4,3.9-4.6,6.2-6.6l-34.4-6.7L401.3,480.7z M404.1,519.2C404.1,519.2,404.1,519.2,404.1,519.2
	c-2.2,1.3-3.7,2.2-4.8,2.5c-0.5,0.2-1,0.3-1.3,0.3c-0.1,0-0.3-0.1-0.4-0.1c-0.1-0.1-0.2-0.2-0.2-0.4c-0.1-0.3,0.1-0.6,0.2-0.9
	c0.2-0.4,0.5-0.8,0.9-1.3c0.8-0.9,1.9-2.1,3.5-3.4c0,0,0.1-0.1,0.1-0.1c0.2,0,0.3,0.2,0.1,0.4c-1.5,1.3-2.7,2.4-3.4,3.3
	c-0.4,0.4-0.7,0.8-0.8,1.2c-0.2,0.3-0.2,0.6-0.2,0.7c0,0.1,0,0.1,0.1,0.1c0.1,0,0.1,0.1,0.2,0.1c0.2,0,0.6-0.1,1.1-0.2
	c1-0.4,2.6-1.1,4.7-2.5c0,0,0,0,0.1,0c-1.7-2.8-3.1-5.9-4.1-9.5c-0.1-0.4-0.2-0.8-0.3-1.1l-9.7,21.1l18-5.5
	C406.5,522.5,405.2,520.9,404.1,519.2z M395.2,533.9c3.7,2.3,7.7,4.1,12.2,5.4l-2.3-8.1L395.2,533.9z M376.6,462.5
	c-0.7,1.8-1.3,3.6-1.8,5.4c-1.8,6-2.8,12-2.9,18l17.2-7.7L376.6,462.5z M373.8,504c1.3,4.8,3.2,9.5,5.7,13.7
	c1.1,1.9,2.3,3.6,3.6,5.3l6.5-12.4L373.8,504z M379.9,454.8c-1,2.1-1.9,4.2-2.8,6.4c0,0,0,0,0,0l13.3,16.8c0.3,0.3,0.1,0.8-0.2,0.9
	l-18.3,8.2c0,0-0.1,0.1-0.1,0.1c0,2.5,0.1,5,0.3,7.4l28.6-13.4L379.9,454.8z M372.3,496c0.3,2.3,0.7,4.5,1.2,6.7h0
	c0.1,0,0.1,0,0.2,0.1l16.9,7.1c0.3,0.1,0.4,0.5,0.3,0.8l-7,13.4v0c1.5,1.9,3.2,3.6,5,5.2l10.1-21.9L372.3,496z M412.5,369.2
	c-9-12.6-20.2-23.6-33-32.4l-5.8,7.7c11.9,8.2,22.3,18.4,30.6,30.1L412.5,369.2z M412.9,368.9l7.9-5.4c-9.7-13.4-21.8-25-35.6-34.4
	l-5.4,7.3C392.6,345.3,403.8,356.3,412.9,368.9z M427.2,540.2l-5-9l-7.3,9.8c2.9,0.4,6,0.7,9.2,0.7c1.1,0,2.2,0,3.3,0
	c0-0.1,0-0.1,0-0.1C427.3,541.1,427.2,540.7,427.2,540.2z M410.1,526c-0.3-0.2-0.6-0.5-0.9-0.7l5,15.3l7.4-9.8
	C417.3,530.2,413.4,528.6,410.1,526z M390,530.2c1.3,1.1,2.7,2.1,4.1,3.1c0.1-0.1,0.2-0.3,0.4-0.3l10.9-2.9c0.1,0,0.1,0,0.1,0
	c0.3,0,0.5,0.2,0.6,0.4l2.5,9c0,0.1,0,0.2,0,0.3c1.6,0.4,3.2,0.8,4.8,1.1l-5.3-16.2L390,530.2z M437.6,518.8
	c1.6,0.2,3.1,0.4,4.8,0.6c-1.9-5.8-1.9-11.3-0.7-16.3c-1.9-1-3.9-1.5-5.9-1.5c-1.7,0-3.4,0.4-4.9,1.1c-3,1.4-5.4,4-6.3,7.9
	c1.9-2.3,4.1-3.4,6.2-3.5c2.5-0.1,4.8,1.1,6.1,3.2C438.4,512.8,438.5,515.9,437.6,518.8z M399,463c-1.2-0.4-2.1-0.7-2.8-0.7
	c-0.7,0-1,0.1-1.2,0.3c-0.1,0.2-0.1,0.7,0.1,1.3c0.3,0.6,0.8,1.4,1.6,2.4c1.6,1.9,4.3,4.3,8.1,7.2c0,0,0,0,0,0.1
	c0.6-1,1.2-1.9,1.8-2.9c0.6-0.9,1.3-1.7,1.9-2.5c0,0,0,0,0,0C404.5,465.6,401.3,463.9,399,463z M392.5,492.9c-1.6,0-3,0.1-4.1,0.3
	c-1.1,0.2-2,0.5-2.6,0.8c-0.6,0.3-0.9,0.7-0.9,1c0,0.3,0.1,0.6,0.6,1c0.5,0.4,1.3,0.7,2.3,1c2.1,0.5,5.5,0.8,10.1,0.5
	c0.1,0,0.1,0,0.2,0.1c0-1.4,0.1-2.8,0.2-4.2c0,0-0.1,0-0.1,0C396,493,394.2,492.9,392.5,492.9z M412,418.1c-2.5,1.5-4.8,3.2-7.1,4.9
	c0,0.1,0,0.1,0,0.2l1.7,26.7c0,0.4-0.3,0.7-0.7,0.6l-21.7-3.9c-1.4,2.3-2.7,4.6-3.9,7.1l35,6.8L412,418.1z M459.4,398.6
	c-49.8,2.6-83,37.3-92.7,71.3c-5.4,19.2-2.2,39.9,8.5,55.2c10.7,15.1,28.6,25,53.1,22.7c-0.4-1.7-0.7-3.4-0.8-5.1
	c-1.1,0-2.2,0.1-3.4,0c-21.8-0.2-37-10.2-45.4-24.5c-8.4-14.3-10.1-32.9-4.8-50.6c8.1-27.1,28.5-50.5,55.8-58.6
	c11.1-3.3,21.8-5,32.2-5.2c3-0.1,6,0,9,0.2l4.5-5.3c-3.4-0.3-6.8-0.4-10.2-0.3C463.1,398.5,461.3,398.5,459.4,398.6z M426.8,530.8
	c-1.3,0.1-2.6,0.1-3.9,0l4.2,7.5C427,535.9,426.9,533.4,426.8,530.8z M399.1,506.6c-0.7-3-1-6-1-8.9c0,0.1-0.1,0.1-0.1,0.1
	c-4.6,0.3-8.1,0.1-10.3-0.5c-1.1-0.3-1.9-0.6-2.5-1c-0.5-0.4-0.8-0.9-0.7-1.4c0.1-0.5,0.5-0.9,1.1-1.3c0.6-0.3,1.5-0.6,2.7-0.8
	c1.1-0.2,2.5-0.3,4.2-0.3c1.6,0,3.5,0.1,5.7,0.5c0,0,0.1,0,0.1,0c0.4-3.7,1.2-7.4,2.5-10.9l-28.1,13.2L399.1,506.6z M420.8,432.7
	c-0.4-0.4-0.7-0.6-0.9-0.7c-0.2-0.1-0.3-0.1-0.4-0.1c-0.1,0-0.1,0-0.1,0c-0.1,0-0.2,0.1-0.3,0.4c-0.1,0.3-0.1,0.6-0.1,1.1
	c0,1,0.2,2.4,0.7,4.2c1,3.7,2.9,8.9,6,15.9c1.8-1,3.6-2,5.5-2.9c-2.9-6.6-5.5-11.4-7.6-14.5C422.4,434.5,421.5,433.4,420.8,432.7z
	 M425.2,453.7c-3.1-7-5-12.3-6-16c-0.5-1.9-0.7-3.3-0.7-4.3c0-0.5,0.1-0.9,0.1-1.3c0.1-0.3,0.3-0.6,0.6-0.7c0.2-0.1,0.6,0,0.9,0.1
	c0.3,0.1,0.7,0.4,1,0.8c0.7,0.7,1.7,1.9,2.7,3.5c2.1,3.1,4.7,8,7.6,14.6c2.5-1.2,5.2-2.2,7.8-2.9c1.2-0.4,2.4-0.7,3.6-1l-30-28.2
	l3.4,41.9C418.9,457.8,422,455.6,425.2,453.7z M403.8,424c-7.4,6-13.8,13.4-18.9,21.6l20.5,3.7L403.8,424z M449.8,405.8
	c-6.5,0.8-13.2,2.2-19.9,4.2c-1.8,0.5-3.5,1.1-5.3,1.8l14.8,15.6L449.8,405.8z M461.5,404.9c-3.4,0.1-6.8,0.3-10.3,0.7
	c0,0.1,0,0.1-0.1,0.2l-11,22.9c-0.2,0.4-0.7,0.4-1,0.2l-15.7-16.5c-3.6,1.4-7.1,3.2-10.4,5.1l30.3,28.5L461.5,404.9z M362.4,547.4
	l-1.3,2.4c1.7,0.7,3.3,1.5,4.9,2.4l1.1-1.6C365.6,549.5,364,548.4,362.4,547.4z M442.9,585.2c0.2,1.1,0.3,2.2,0.3,3.3
	c0.6,0.1,1.2,0.2,1.8,0.3c-0.4-0.6-0.7-1.2-1.1-1.8C443.5,586.4,443.2,585.8,442.9,585.2z M487,368.4c-2.8,0-5.3-0.3-7.5-1.2
	c-2.4-0.9-4.5-2.4-6.4-4.5l-1,1.2c3.5,2.5,8.1,5.2,13.7,8C486,370.8,486.4,369.6,487,368.4z M384.7,552.3c2.4,0,4.3-1.9,4.3-4.3
	c0-2.4-1.9-4.3-4.3-4.3c-2.4,0-4.3,1.9-4.3,4.3C380.4,550.4,382.3,552.3,384.7,552.3z M434.7,574.2c-3.2,0.9-6.4,1.5-9.5,2
	c2.9,2.9,4.8,6.7,5.7,10.7c2.8,0.3,5.5,0.6,8.3,1c1.2,0.2,2.4,0.4,3.6,0.5c0-1.4-0.2-2.9-0.5-4.3
	C440.1,580.4,437.9,576.9,434.7,574.2z M390.7,574.5c-1,0.7-1.9,1.5-2.8,2.4c0.8,2.4,1.4,4.8,1.9,7.3c4.2-3.8,8.9-5.5,13.4-5.6
	c6.3-0.1,12,2.8,15.2,7c0.1,0.1,0.1,0.2,0.2,0.3c4,0.2,8,0.5,12,0.9c-0.9-4-2.9-7.8-5.8-10.6C412.6,578.1,401.1,577.4,390.7,574.5z
	 M357.5,266.2c0.7,0.1,1.4,0.2,2.2,0.3c-0.9-1.4-1.8-2.7-2.7-4.1C357.1,263.7,357.3,264.9,357.5,266.2L357.5,266.2z M401.7,328
	l-1.9-2.7c-0.1,0.3-0.2,0.6-0.4,0.9C400.2,326.8,401,327.4,401.7,328z M403.1,579.6c-4.5,0.1-9.2,1.8-13.3,5.8
	c0,0.3,0.1,0.6,0.1,0.9c5.7-0.4,11.3-0.7,16.9-0.7c3.4,0,6.8,0.1,10.2,0.2C414.2,582.1,408.9,579.5,403.1,579.6z M342.5,237.7
	c-0.6,1.2-1.3,2.4-1.9,3.5c4,7.5,7.2,15.4,9.9,23.3c1.8,0.5,3.6,1,5.7,1.4c-0.4-1.9-0.6-3.8-0.5-5.7c-1.1-1.6-2.1-3.3-3.1-4.8
	c-2.9-4.6-3.8-8.4-2.8-11.5c-1.7-3.4-3.4-6.8-5.3-10.1C343.7,235.1,343.1,236.4,342.5,237.7z M462.7,404.9l2.3,6l4.9-5.8
	c-1.7-0.1-3.4-0.2-5.1-0.2H462.7z M479.3,387.2c1-2.5,2.1-4.9,3.2-7.3l-11.1-5.3c-0.5,0.9-1.4,1.4-2.4,1.4c-1.6,0-2.9-1.3-2.9-2.8
	c0-1.6,1.3-2.8,2.9-2.8c1.6,0,2.8,1.3,2.8,2.8c0,0.4-0.1,0.8-0.2,1.1l11.1,5.2c0.9-1.9,1.9-3.8,2.9-5.7c0-0.5,0.1-0.9,0.1-1.4
	c-5.5-2.9-10.6-5.1-15.1-6.7l-10.5,12.4C464.4,381,470.7,384,479.3,387.2z M480.6,594.9c1.8,0,3.5-0.7,5.3-2
	c0.8-0.6,1.3-1.2,1.7-1.9c-3.2,1.7-6.5,2.8-9.6,3.6C479.2,594.8,480.1,594.9,480.6,594.9z M449.9,392.7c1.8,1.7,4.6,3.4,8.6,4.8
	c0.3,0,0.6-0.1,0.9-0.1c1.9-0.1,3.7-0.2,5.6-0.2c3.6,0,7.2,0.1,10.6,0.4c0.3-1,0.6-1.9,0.9-2.9l-10.3-2.6c-0.4,1-1.5,1.7-2.6,1.7
	c-1.6,0-2.8-1.3-2.8-2.8c0-1.6,1.3-2.8,2.8-2.8c1.6,0,2.8,1.3,2.8,2.8c0,0.3,0,0.5-0.1,0.7l10.3,2.6c0.8-2.3,1.6-4.5,2.5-6.8
	c-9-3.5-16.2-5-21.5-4.9c-0.4,0-0.7,0-1,0c-0.2,0-0.3,0-0.5,0l-7.5,8.8C449,391.9,449.4,392.3,449.9,392.7z M333.2,594.9
	c0.8,0,2.7-0.3,5.7-0.8c-2.6-2.8-7.2-3.6-11.2-1.7c0.2,0.2,0.3,0.3,0.5,0.5C329.8,594.3,331.4,594.9,333.2,594.9z M337.8,591.7
	c-0.7-0.9-1.7-1.7-2.8-2.3c-1.7-0.9-3.8-1.5-6.1-1.5c-0.7,0-1.5,0.1-2.3,0.2c0,0.1,0,0.1-0.1,0.2c-0.3,1.2-0.1,2.2,0.4,3.2
	C330.6,589.7,334.7,589.9,337.8,591.7z M363.9,529.5c2.4,0,4.3-1.9,4.3-4.3c0-2.4-1.9-4.3-4.3-4.3c-2.4,0-4.3,1.9-4.3,4.3
	C359.6,527.6,361.5,529.5,363.9,529.5z M478.1,368.3c-2.4-1.4-4.4-2.7-6.3-4l-0.9,1.1C473.2,366.2,475.6,367.2,478.1,368.3z
	 M354.9,562.8c-0.1,0.3-0.3,0.6-0.4,0.9c-2,4.2-4.1,7.5-6.5,10c4,2.7,7.1,6.3,8.9,10.2c0.9,2,1.6,4.2,1.9,6.5c3.1-0.5,6.4-1,9.9-1.6
	c0-6.4-1.7-12.7-5.4-18C361.1,567.7,358.4,565,354.9,562.8z M372.3,542.4c2.4,0,4.3-1.9,4.3-4.3c0-2.4-1.9-4.3-4.3-4.3
	c-2.4,0-4.3,1.9-4.3,4.3C368,540.5,369.9,542.4,372.3,542.4z M370.2,556.4c-3.7-2.8-7.8-5-12-6.4c-0.7,4.7-1.6,8.7-3,12
	c3.6,2.3,6.6,5.1,8.8,8.3c3.8,5.4,5.5,11.9,5.5,18.4c1.7-0.3,3.5-0.5,5.3-0.8c3.4-0.5,6.7-0.9,10-1.2
	C385.1,576,381,564.6,370.2,556.4z M385.9,586.6c0.7-0.1,1.4-0.1,2.1-0.2l-2.1-3.6C386,584.1,386,585.4,385.9,586.6z M348,225.7
	c0.3,0,0.7,0,1-0.1C348.7,225.6,348.3,225.6,348,225.7z M480.3,583.9c1.9,0.9,4,1.5,6.4,2.1c-1-1.2-2.5-2.2-4.5-3
	c-2.9-1.2-6.3-2.8-9.9-4.9C474.4,580.5,477,582.5,480.3,583.9z M349.2,236.6c0.1,2,0.6,3.8,1.3,5.5c0.9-1.4,2.2-2.6,4-3.6
	c1.7-1,2.8-2,3.4-3.1c0.1-0.5,0.2-1,0.5-1.5c0.1-1.4-0.5-2.8-1.9-4.3c-1.2-1.3-2.4-2.2-3.5-2.9C350.5,228.9,349,232.3,349.2,236.6z
	 M362,512.1c0-1.8-1.2-3.4-2.9-3.9v7.7C360.8,515.4,362,513.9,362,512.1z M361.2,464.1c1.4,0,2.6,1.1,2.6,2.5c0,1.4-1.2,2.5-2.6,2.5
	c-0.9,0-1.7-0.4-2.1-1.1v5.3c1.1,0.4,1.8,1.5,1.8,2.7s-0.8,2.2-1.8,2.7v6.6c0.2,0.4,0.3,0.9,0.3,1.4c0,0.5-0.1,1-0.3,1.4v7.6
	c0.8,0.7,1.2,1.8,1.2,2.9c0,1.2-0.5,2.2-1.2,2.9v6.2c1.9,0.5,3.3,2.2,3.3,4.3c0,2.1-1.4,3.8-3.3,4.2v18.2c0,0.8,0,1.6,0,2.3
	c14.6,22.3,42.6,35.2,77.5,26c-4.5-4.5-6.9-9.2-8.1-13.8c-24.9,2.3-43.4-7.8-54.3-23.3c-11-15.6-14.2-36.7-8.6-56.2
	c5.9-20.6,20.3-41.4,41.6-55.4c-23.1,12.5-38.7,28.1-48,44.4v6.6C359.6,464.5,360.3,464.1,361.2,464.1z M426.5,553.1
	c2.2,0,4.1,1.8,4.1,4.1c0,2.2-1.8,4-4.1,4c-2.2,0-4-1.8-4-4C422.4,554.9,424.2,553.1,426.5,553.1z M413,552.9c2.3,0,4.2,1.9,4.2,4.2
	c0,2.3-1.9,4.2-4.2,4.2c-2.3,0-4.2-1.9-4.2-4.2C408.8,554.9,410.7,552.9,413,552.9z M398.5,549.8c2.6,0,4.7,2.1,4.7,4.7
	c0,2.6-2.1,4.7-4.7,4.7c-2.6,0-4.8-2.1-4.8-4.7C393.8,551.9,395.9,549.8,398.5,549.8z M384.7,543.2c2.6,0,4.8,2.1,4.8,4.7
	c0,2.6-2.1,4.7-4.8,4.7c-2.6,0-4.7-2.1-4.7-4.7C380,545.4,382.1,543.2,384.7,543.2z M372.3,533.3c2.6,0,4.7,2.1,4.7,4.7
	c0,2.6-2.1,4.7-4.7,4.7c-2.6,0-4.7-2.1-4.7-4.7C367.6,535.5,369.7,533.3,372.3,533.3z M363.9,520.4c2.6,0,4.7,2.1,4.7,4.7
	c0,2.6-2.1,4.7-4.7,4.7s-4.7-2.1-4.7-4.7C359.2,522.6,361.3,520.4,363.9,520.4z M321.4,230.2c-0.1,0.2-0.1,0.4-0.2,0.6
	c-0.4,0.8-1.1,1.5-2.1,2.1c-3.7,2.3-8.7,4-14.8,6c6.1,1.7,12,3.5,18.9,3.4c0.4,0,0.7,0.5,0.4,0.9c-2,1.9-3.5,4-4.8,6.3
	c7.4-3.4,11.5-9.1,14.5-15.2c1-2,1.9-4.2,2.7-6.2c-1,0.2-2,0.4-3.1,0.5C329.3,229.1,325.5,229.7,321.4,230.2z M359.9,498.6
	c0-0.9-0.3-1.7-0.8-2.3v4.6C359.6,500.3,359.9,499.5,359.9,498.6z M426.3,476.8c-9.8,5.3-16.9,13.9-18.8,25.3
	c-0.8,4.6,0.1,11,3.2,15.9c3,4.8,8,8.3,15.6,7.8c-0.2-1.8-0.5-3.6-1-5.4c-0.3-0.4-0.4-0.9-0.4-1.3v-0.1c-0.2-0.9-0.5-1.7-0.9-2.6
	c-0.1-0.4,0.1-0.8,0.5-0.8c0.1,0,0.2,0,0.3,0.1c0.7,0.4,1.6,0.7,2.4,1h0.1c0.6,0,1.1,0.2,1.6,0.6c2.3,0.7,4.8,1.2,7.4,1.5
	c0.8-2.7,0.7-5.6-0.6-7.7c-1-1.7-2.9-2.7-5-2.6c-2.1,0.1-4.4,1.3-6.3,4.5l-0.2-0.1c-0.1,0.2-0.4,0.2-0.5,0l-0.2,0.1
	c-3.4-7.4-1-14.3,4-18.5c3.1-2.6,7.2-4.2,11.5-4.2c2.4,0,4.9,0.5,7.3,1.5c2.6-4.6,5.8-9.1,9-13.5v-7.3c-1.2-0.1-2.5-0.1-3.7-0.1
	C442.5,470.7,433.7,472.8,426.3,476.8z M430.9,511.8c1.1,0,2,0.9,2,2s-0.9,2-2,2s-2-0.9-2-2S429.7,511.8,430.9,511.8z M411.4,507.7
	c0-1.9,1.6-3.5,3.5-3.5c1.9,0,3.5,1.6,3.5,3.5c0,1.9-1.6,3.5-3.5,3.5C413,511.2,411.4,509.7,411.4,507.7z M418.6,520
	c-1.5,0-2.8-1.3-2.8-2.8c0-1.5,1.2-2.8,2.8-2.8c1.5,0,2.8,1.2,2.8,2.8C421.3,518.7,420.1,520,418.6,520z M417.5,499.6
	c-2.2,0-4.1-1.8-4.1-4.1c0-2.2,1.8-4.1,4.1-4.1c2.2,0,4.1,1.8,4.1,4.1C421.6,497.8,419.7,499.6,417.5,499.6z M427.7,489.9
	c-2.5,0-4.5-2-4.5-4.5c0-2.5,2-4.6,4.5-4.6c2.5,0,4.6,2,4.6,4.6C432.3,487.8,430.3,489.9,427.7,489.9z M442.7,486.7
	c-2.7,0-4.9-2.2-4.9-4.9c0-2.7,2.2-4.9,4.9-4.9c2.8,0,5,2.2,5,4.9C447.7,484.5,445.5,486.7,442.7,486.7z M289.1,236.5
	c1.7,0,3.3,0.1,4.8,0.2c3.1-1.6,6-3.1,8.7-4.4c-5.6,0.5-11,0.9-16.3,1.2c-1.5,1.3-3.2,2.7-5,4C284.1,236.9,286.7,236.6,289.1,236.5z
	 M444.2,446.2c3.8-0.9,7.5-1.5,11.2-1.9v-22l9.1-10.8l-2.4-6.1L444.2,446.2z M464.8,577.6c-2.1,0.2-4.3,0.4-6.9-0.4
	c1.7,4.7,5.3,8.1,10.1,9.9c4.6,1.6,10.3,1.7,16.4-0.4c-1.6-0.4-3.1-1-4.5-1.6c-3.9-1.8-6.9-4.2-9.2-7.2
	C468.6,577.2,466.8,577.4,464.8,577.6z M443.7,519.7c0.3,0,0.6,0.1,1,0.1c2.4,0.4,4.9,0.9,7.4,1.6c-3.6-9.4-1.8-16.5,1.4-22.9
	c0.6-1.2,1.2-2.3,1.9-3.4v-15c-2.8,4-5.6,8-8,12.1C442.7,500.6,440.1,509.4,443.7,519.7z M443.4,447c-1.3,0.3-2.6,0.7-3.9,1.1
	c-8.6,2.5-16.6,7-23.2,12.9c0,0.2-0.2,0.3-0.4,0.3c-3.3,2.9-6.2,6.2-8.6,9.8c-2.2,3.2-4,6.6-5.4,10.1c0.1,0.2,0,0.4-0.2,0.5
	c-2.9,7.6-3.8,15.9-1.9,24.5c-1.6-23.4,20.4-49.2,55.7-51.1v-10.3c-3.8,0.4-7.6,1-11.5,2C443.7,447.1,443.5,447.1,443.4,447z
	 M400.4,509C400.4,509,400.4,509,400.4,509c0,0.1,0.1,0.2,0.1,0.2c1.7,6,4.5,10.9,8.1,14.5c0.1,0,0.3,0.1,0.4,0.3l0,0.1
	c0.5,0.5,1,1,1.6,1.4c3.3,2.6,7.2,4.2,11.6,4.7c0.1-0.1,0.4-0.1,0.5,0.1c1.3,0.1,2.8,0.1,4.2,0c-0.1-1.1-0.1-2.2-0.2-3.3
	c-8.1,0.6-13.6-3.2-16.8-8.3c-3.3-5.2-4.2-11.8-3.4-16.8c2-11.8,9.4-20.6,19.4-26.1c7.5-4.1,16.5-6.3,25.9-6.3c1.2,0,2.5,0,3.7,0.1
	v-14C418.9,457.5,396.7,485.2,400.4,509z M432.1,571c1,0.6,2,1.2,2.9,1.9c0.1,0,0.3,0.1,0.4,0.3c4.3,3.6,6.8,8.4,9.6,13.2
	c0.5,0.9,1.1,1.8,1.6,2.6c3.6,0.6,7,1.1,10.2,1.7c-1.6-1.6-3-3.5-4.2-5.4c-3-4.8-5.1-10.1-9-13c-0.1-0.1-0.1-0.3,0-0.3
	c4-1.8,8.1-2.7,12.2-2.9c2.6-0.1,5.1,0.1,7.6,0.6c-1.2-1.8-2.3-3.7-3.3-6c-0.1-0.1-0.1-0.3-0.2-0.4c-1.6-0.1-3.1-0.2-4.6-0.2
	C447.5,563.2,439.8,565.1,432.1,571z M444,572.2c3.9,3,6,8.2,8.9,12.9c1.3,2.1,2.7,4.1,4.5,5.8c3.4,0.6,6.6,1.2,9.6,1.8
	c4.3,0.9,7.6,1.5,9.9,1.9c3.5-0.8,7.3-2.1,10.9-4c0.2-0.7,0.2-1.4,0.1-2.2c-0.1-0.3-0.2-0.6-0.3-0.9c-0.8-0.1-1.5-0.3-2.3-0.5
	c-6.5,2.4-12.7,2.5-17.7,0.7c-5.1-1.9-8.9-5.7-10.6-10.7c-0.1-0.2,0.1-0.4,0.3-0.4h0.1c2.8,1,5,0.7,7.2,0.5c1.8-0.2,3.5-0.4,5.3,0.1
	c-0.2-0.2-0.3-0.4-0.5-0.7c-2.1-1.5-4.1-3.6-5.9-6.2c-2-0.4-4.1-0.7-6.2-0.7C453,569.4,448.4,570.3,444,572.2z M426.5,560.8
	c2,0,3.7-1.6,3.7-3.7c0-2-1.6-3.7-3.7-3.7c-2,0-3.6,1.6-3.6,3.7C422.8,559.2,424.4,560.8,426.5,560.8z M413,561
	c2.1,0,3.8-1.7,3.8-3.8c0-2.1-1.7-3.8-3.8-3.8s-3.8,1.7-3.8,3.8C409.2,559.3,410.9,561,413,561z M335.7,588c2.3,1.3,4.1,3.3,5,5.8
	c0.8-0.1,1.6-0.3,2.5-0.5c-1.4-4.8-5.2-8.7-11-10.4c0,0,0,0,0,0c-2.3,0.9-3.9,2.1-4.8,3.4C330.5,586.1,333.4,586.7,335.7,588z
	 M436.7,526.2c1.9,5.4,1.2,11,1.8,16.9c0.6,6,2.6,12.3,10.1,19.4c2.8-0.4,5.5-0.6,8.3-0.5c-7.8-7-9.3-15.5-9.5-24.2
	c0-0.2,0.1-0.3,0.3-0.3c0.1,0,0.2,0,0.2,0.1c3,2.9,5.5,4.4,7.8,5.5c-0.2-2.7-0.3-5.5-0.3-8.6v-4c-0.9-0.3-1.7-0.6-2.6-0.8
	C447.3,528.2,441.4,527.4,436.7,526.2z M457.8,562c0.5,0,1,0.1,1.5,0.1c-1.9-4.7-3.1-10.8-3.6-18.3c-2.2-1.1-4.8-2.5-7.7-5.3
	C448.3,547,449.9,555.2,457.8,562z M425.6,517.1c2.9,8.6,2.2,16.6,2.8,24.3c0.7,8,2.8,15.6,11.9,23.3c2.6-1,5.1-1.8,7.7-2.2
	c-7.3-7-9.3-13.4-9.9-19.4c-0.6-6.1,0.1-11.8-1.9-17.2c-0.1-0.1,0-0.3,0.2-0.3c0,0,0,0,0.1,0c4.6,1.3,10.7,2,16.3,3.6
	c0.9,0.2,1.7,0.5,2.5,0.8v-6.2c-3.6-1.5-7.3-2.3-10.9-2.9C437.8,520,431.4,519.7,425.6,517.1z M452.5,521.6c0.9,0.3,1.9,0.6,2.8,1
	v-26.7c-0.5,0.9-1,1.9-1.5,2.8C450.6,505.1,448.8,512.1,452.5,521.6z M361.5,269.3c-0.8,0.7-1.5,1.5-2.2,2.2c2.5,5.7,7,10.7,13.3,14
	l-2.2-3.2C367.2,277.7,364.2,273.4,361.5,269.3z M398.5,558.8c2.4,0,4.3-1.9,4.3-4.3c0-2.4-1.9-4.3-4.3-4.3c-2.4,0-4.3,1.9-4.3,4.3
	C394.2,556.9,396.1,558.8,398.5,558.8z M248.5,243.3c1.1-1,2-1.6,2.9-1.9c0.4-0.2,0.8-0.2,1.2-0.2c0.4,0,0.7,0.1,1,0.3
	c0.6,0.4,0.8,1.1,0.8,2c0,0.9-0.3,1.9-1,3.2c-1.4,2.8-3.8,5.9-7.5,11.6c4.7-1.5,9.5-2.9,14.1-4.5c3.3-6,3.8-10.9,3.7-15.7
	c-0.1-1.5-0.2-3.1-0.4-4.6c-6.6-0.3-12.9-1-18.9-1.9c-4.1,2.4-8.1,5.8-11.6,11c0.2,0.5,0.4,1,0.7,1.6c1.2,2.9,2.2,5.7,2.9,8.6
	c0.8,0.7,1.6,1.5,2.4,2.2C242.5,249.9,246.2,245.6,248.5,243.3z M227.6,231.2c-0.1-0.1-0.1-0.2-0.1-0.4c-0.2-0.8-0.4-1.6-0.5-2.4
	c-1.3-0.3-2.5-0.5-3.6-0.7c-4.3,4.1-8.3,7.5-11.8,10.8c0.8,0.5,1.7,0.9,2.8,1.3c7.2,2.1,14,6,20.6,11.8c-0.6-2.3-1.5-4.6-2.5-7
	C230.8,240.4,228.9,236.1,227.6,231.2z M381.8,300.1c-0.2,0.1-0.3-0.3-0.1-0.4c0.2-0.1,0.4-0.1,0.5-0.2l-3.4-5
	c-2.3,1.2-3.2,3.3-2.9,5.4c0.3,2.3,2,4.5,4.7,5.3c2,0.6,3.8,0.4,5.3-0.2l-3.6-5.2C382.3,300,382,300.1,381.8,300.1z M313.3,259.1
	c0.2-0.5,0.4-1.1,0.7-1.6c0-0.1,0-0.2,0.1-0.2c1.9-4.9,4-9.8,8-14c-7.9,0-14.5-2.6-21.5-4.3c-3.7-0.9-7.4-1.5-11.4-1.5
	c-3.2,0.1-6.7,0.6-10.5,1.8c0,0-0.1,0-0.1,0c-0.8,0.3-1.7,0.6-2.5,0.9c-0.1,3.3-0.4,6.5-1.2,9.6c3.7-1.9,7.4-2.7,11.1-2.8
	c1.3,0,2.6,0,4,0.1c5.3,0.4,10.9,1.9,17.3,3.1c0.1,0,0.2,0.2,0.1,0.3c-2.8,3.8-4.3,8.1-6.7,12.2c-2.2,3.9-5.2,7.5-10.6,10.4
	c4.5,0.5,8.8,1.3,13.2,1.7C308.6,270.6,311,265,313.3,259.1z M570,233.8c-0.6,0-1.3,0-1.9,0c0.1,0.2,0.3,0.4,0.4,0.6
	C568.9,234.1,569.4,233.9,570,233.8z M498.6,333.7c0-0.3,0-0.6,0-0.9l-0.4,0.5C498.4,333.4,498.5,333.6,498.6,333.7z M232.6,242.1
	c3.4-5,7.2-8.2,11.2-10.6c-2.1-0.3-4.1-0.7-6.1-1c-2.8-0.5-5.3-1-7.6-1.5c-0.5,0.6-1,1.3-1.5,1.9C229.6,235,231.1,238.7,232.6,242.1
	z M547.4,250.6c1.5,2,3,4,4.2,6.2c25.3-12.2,53-19.7,81.2-21.5c-0.5-3.1-0.9-6.1-1.4-9.2c-1-0.5-2.2-0.6-3.4-0.3
	c-3.5,0.9-10.8,2.4-21.9,4.6c-10.4,2.1-20.7,3.2-31.1,3.3c-10.6,3.4-20.9,7.6-30.9,12.6C545.1,247.7,546.2,249.2,547.4,250.6z
	 M634.9,231.1c-0.5-1.4-1-2.5-1.7-3.3c0.5,2.9,0.9,5.9,1.3,8.8C635.6,235.1,635.7,233.3,634.9,231.1z M532.5,234.7
	c1.6-1.1,3.4-2,5-2.5c0.1,0,0.1,0,0.2,0c0.3,0,0.6,0.3,0.6,0.6c-0.2,4.7,2.2,8.7,5.2,12.8l-0.3-0.6c7.8-3.9,15.9-7.4,24.1-10.3
	c-0.2-0.4-0.4-0.7-0.7-1c-4.4-0.2-8.6-0.5-12.6-1c0,0.2,0,0.3,0,0.5c0,3.3-2.7,5.9-5.9,5.9c-3.3,0-6-2.6-6-5.9
	c0-0.9,0.2-1.7,0.6-2.5c-0.2-0.1-0.5-0.1-0.7-0.2c-9.1-2.2-14.9-3.8-17.6-4.6c-2.1-0.6-4-0.7-5.6-0.2
	C524.7,226.8,530.1,230.2,532.5,234.7z M228.3,229.7c0.2-0.3,0.4-0.6,0.7-0.9c-0.3-0.1-0.6-0.1-0.9-0.2
	C228.1,229,228.2,229.3,228.3,229.7z M290.2,284.7c0.2,0,0.3,0.2,0.1,0.4c-2.3,2-3.6,4-5.1,5.8c-1.3,1.6-2.6,3.2-4.7,4.9
	c4.7-0.8,9.5-1.3,14.4-1.6c5.6-5.9,8.1-11.3,12.3-17.8c-1.3-0.1-2.5-0.2-3.7-0.3c-0.1,0-0.3,0-0.4-0.1c-7-0.7-13.5-2.2-20.8-2.2
	c-5.9,0-12.2,1-19.6,4.2c-0.2,1.1-0.5,2.1-0.7,3.2l3.4,5C274.6,283.9,282,285.1,290.2,284.7z M353.8,279.4c-0.7,1.1-1.4,2.3-2.1,3.5
	c-3.3,5.3-6.9,10.6-13.5,14.5c6.5,1.4,12.9,3.3,19.1,5.5C356.7,295,355.5,287.1,353.8,279.4z M349.4,264.2
	c-2.6-7.6-5.7-15.1-9.4-22.2c-3.8,6.1-9.1,11.2-17.7,15.1c7.5,0.4,12.7,2,17.7,3.8C343.1,262,346,263.1,349.4,264.2z M291.5,261.7
	c0.3-0.7,0.3-1.4,0.1-1.9c-0.3-0.5-0.8-0.8-1.6-0.9c-0.2,0-0.4-0.1-0.7-0.1c-0.7,0-1.6,0.2-2.6,0.6c-7.7,3-15.1,6.4-22.6,10.7
	c-0.4,2.3-0.8,4.5-1.2,6.8c2.5-1,4.9-1.8,7.2-2.4c7.1-3.4,15-6.9,19.4-10.3C290.5,263.3,291.2,262.4,291.5,261.7z M300.2,262.7
	c2.3-4,3.9-8.2,6.6-12.1c-6.3-1.2-11.8-2.6-17-3.1c-1-0.1-2-0.1-2.9-0.1c-4.1,0-8.1,0.7-12.2,2.9c-1.6,6.1-4.7,12-10.3,17.5
	c-0.1,0.5-0.2,1-0.3,1.5c7.4-4.2,14.7-7.6,22.2-10.5c1.4-0.5,2.6-0.7,3.6-0.6c1,0.1,1.7,0.6,2.1,1.2c0.4,0.7,0.4,1.6,0,2.4
	c-0.4,0.9-1.1,1.8-2.3,2.7c-4,3.1-10.6,6.2-17,9.2c2.9-0.6,5.7-0.9,8.3-0.9c2.8-0.1,5.5,0.1,8.1,0.3
	C294.9,270.4,297.9,266.7,300.2,262.7z M365.6,306.2c-0.3-9.3-1.6-18.5-3.7-27.7c-1.4-1.8-2.6-3.7-3.6-5.7c-1.4,1.8-2.7,3.7-4,5.7
	c1.9,8.1,3.2,16.5,3.8,24.8C360.6,304.1,363.1,305.1,365.6,306.2z M284.9,290.7c1.4-1.8,2.7-3.6,4.8-5.6c-3.7,0.2-7.2,0-10.7,0
	c-4.2,0-8.6,0.2-13.5,1.5l7.4,10.7c2.2-0.5,4.5-0.9,6.8-1.3C282.1,294.1,283.6,292.4,284.9,290.7z M367,297.4
	c-0.5,4.2,1.2,8.2,3.7,11.1c3.3,1.6,6.6,3.3,9.8,5.1c3,0.3,6.4-0.3,9.4-1.9c0.2-0.1,0.3-0.2,0.5-0.3l-4-5.9
	c-1.6,0.7-3.6,0.9-5.7,0.3c-2.8-0.8-4.6-3.2-5-5.6c-0.3-2.3,0.6-4.6,3-5.8l-4.5-6.5c-0.2-0.1-0.5-0.2-0.7-0.3
	C370.2,289.2,367.6,292.5,367,297.4z M261.7,277.6c0.7-3.3,1.2-6.6,1.8-9.9c0-0.1,0-0.1,0-0.2c0.9-5.2,1.9-10.4,3.4-15.4
	c-7.3,3.4-15.4,5.4-23.1,8c4.7,4.9,9.7,10.5,15.1,17l2.2,3.2c0.2-0.8,0.4-1.6,0.5-2.5C261.6,277.6,261.7,277.6,261.7,277.6z
	 M531.7,235.3c-2.4-4.6-8.3-8-14.5-8.9c-1.1,0.7-2,1.7-2.8,3c-1.8,3-1.7,5.4,0.2,7.1c0.7,0.4,1.3,0.8,1.9,1.3
	c2.3,1.2,4.5,3.6,6.5,7.3c1-1.7,2.1-3.3,3.3-4.8C528,238.4,529.8,236.7,531.7,235.3z M369.8,308.1c-2.2-2.9-3.7-6.7-3.2-10.7
	c0.6-4.8,3.1-8.2,6.3-10.1c-3.7-1.8-6.9-4.2-9.5-6.9c1.9,8.8,3,17.5,3.3,26.4C367.8,307.1,368.8,307.6,369.8,308.1z M494.6,340.5
	c2.1,0.3,4.1,0.8,5.8,1.9c-1-2.6-1.5-5.3-1.7-8.1c-0.2-0.3-0.5-0.5-0.7-0.7l-5.6,6.6C493.1,340.3,493.9,340.4,494.6,340.5z
	 M252.9,246.4c0.6-1.2,0.9-2.2,0.9-3c0-0.7-0.2-1.2-0.5-1.5c-0.2-0.1-0.4-0.2-0.7-0.2c-0.3,0-0.6,0.1-1,0.2
	c-0.7,0.3-1.7,0.9-2.7,1.9c-2.3,2.2-5.9,6.5-9.8,11.5c1.3,1.2,2.6,2.5,3.9,3.9c0.7-0.2,1.3-0.4,2-0.7
	C248.9,252.4,251.4,249.2,252.9,246.4z M593.9,252.5c0.2-3.4,0.8-6.1,1.9-8.1c0.7-1.4,1.6-2.4,2.8-3.1c-6.9,1.6-13.7,3.5-20.5,5.8
	c1.2-0.1,2.4,0.1,3.6,0.9c1.7,1,3.5,2.8,5.2,5.4c1.9,2.9,3.9,7,5.9,12.2c0.6-0.5,1.1-1,1.7-1.6C593.9,259.6,593.8,255.7,593.9,252.5
	z M605.3,242c-1-0.7-2.1-1-3.2-1.1c-0.6,0-1.3,0.1-1.9,0.2c-1.7,0.4-3.1,1.6-4.1,3.5c-1,1.9-1.6,4.5-1.8,7.9
	c-0.2,3.1-0.1,6.8,0.4,11.2c2-1.9,4-3.7,6-5.4c3.7-3.3,7.2-6.1,10.4-8.5c-0.3-0.7-0.7-1.4-1-2.1C608.6,244.9,607,243,605.3,242z
	 M381.3,314c6.3,3.6,12.2,7.6,17.9,12c0.2-0.3,0.3-0.7,0.4-1.1l-9.1-13.2c-0.2,0.1-0.3,0.2-0.5,0.3
	C387.3,313.5,384.1,314.1,381.3,314z M581.5,248.3c-1-0.6-2-0.8-2.9-0.8c-0.6,0-1.1,0.1-1.6,0.3c-1.4,0.5-2.6,1.5-3.5,3.2
	c-0.9,1.7-1.4,4-1.5,7.2c-0.1,5.3,1.1,13,4.1,23.7c3-3.1,6-6,8.9-8.9l-1.2-3.5c-0.3,0.1-0.6,0.1-0.9,0.1c-1.8,0-3.2-1.4-3.2-3.2
	c0-1.8,1.4-3.2,3.2-3.2c1.8,0,3.2,1.4,3.2,3.2c0,1.2-0.7,2.4-1.9,2.9l1.2,3.3c2.4-2.4,4.8-4.7,7.2-6.9c-2-5.3-4-9.3-5.9-12.2
	C584.8,251,583.1,249.3,581.5,248.3z M217.3,226.4c-0.9-0.2-1.6-0.4-2.3-0.5c-3.5-0.9-5.8,0.8-6.6,5c-0.6,2.9,0.2,5.3,2.4,7
	c0.7-0.6,1.4-1.3,2.2-2C214.4,232.8,215.9,229.5,217.3,226.4z M552.2,257.8c0.1-0.1,0.2-0.2,0.3-0.3c-0.1,0.1-0.2,0.1-0.3,0.1
	C552.1,257.8,552.2,257.8,552.2,257.8z M623.5,237.1c-7.1,0.8-14.2,1.9-21.1,3.4c1,0.1,2.1,0.4,3.1,1.1c1.7,1.1,3.4,3.1,5,5.9
	c0.3,0.6,0.7,1.3,1,2c2.2-1.7,4.4-3.1,6.4-4.3c0.7-2.8,1.7-4.8,2.8-6.1C621.6,238.1,622.6,237.4,623.5,237.1z M344,593.2
	c0.9-0.2,1.8-0.4,2.8-0.6c3.4-0.7,7-1.3,11-2c-0.3-2.1-0.9-4.2-1.8-6.2c-1.8-3.9-4.8-7.3-8.8-9.9c-1.2,1.2-2.4,2.1-3.7,2.9
	c-3.7,2.2-7.1,3.9-10.1,5.1C338.9,584.4,342.6,588.3,344,593.2z M626,236.9c0.9,0.1,1.7,0.3,2.6,0.9c0.7,0.4,1.4,1.1,2.1,1.9
	c1-0.4,1.8-0.9,2.5-1.5c-0.1-0.6-0.2-1.3-0.3-1.9C630.6,236.4,628.3,236.6,626,236.9z M628.4,238c-1-0.6-1.9-0.8-2.8-0.8
	c-0.3,0-0.6,0-0.9,0.1c-1.2,0.1-2.5,0.7-3.6,2.1c-1,1.2-1.9,3-2.6,5.6c3.8-2.3,7.2-3.8,10.2-4.5c0.6-0.2,1.2-0.4,1.7-0.6
	C629.7,239,629.1,238.4,628.4,238z M457.4,397.6c-3.6-1.3-6.2-2.9-7.9-4.6c-0.4-0.4-0.8-0.8-1.1-1.2l-0.3,0.3c0.8,2,1.5,4.1,2.2,6.2
	C452.7,397.9,455.1,397.7,457.4,397.6z M344.9,232.4c1.7,2.9,3.3,5.9,4.8,8.9c-0.5-1.4-0.9-3-1-4.7c-0.1-4.3,1.4-7.8,3.8-10.1
	c-0.7-0.3-1.3-0.6-2-0.7c-1,0.2-2.1,0.4-3.2,0.4C346.6,228.2,345.7,230.3,344.9,232.4z M573.1,250.9c0.7-1.3,1.6-2.3,2.7-2.9
	c-6.6,2.3-13.1,4.9-19.5,7.8c1.1-0.1,2.3,0.1,3.5,0.8c2,1,4,2.9,6,5.7c3.2,4.5,6.6,11.3,9.9,20.1c0,0,0.1-0.1,0.1-0.1
	c-3-10.8-4.3-18.6-4.3-24C571.7,255,572.2,252.6,573.1,250.9z M528.7,290.7c1.8,2.2,3.6,4.4,5.3,6.5c0.2-0.9,0.4-1.7,0.7-2.5v0
	c2.6-15.5-0.8-24.7-6.5-32.1c0.2,3.9-0.1,8.3-0.8,13.2C529.3,279.8,530,284.6,528.7,290.7z M456.7,382.2c3.9-0.1,8.9,0.6,14.9,2.3
	c-4.9-2.1-8.8-4.2-11.7-6.2l-3.3,3.9C456.6,382.2,456.6,382.2,456.7,382.2z M536.5,290.2c1.4-2.9,3.3-5.3,5.3-7.5
	c2.4-4.4,3.2-7.9,3-10.8c-0.2-3.3-1.5-5.9-3.2-8.3c-1.7-2.4-3.8-4.6-5.4-7c-1.6-2.3-2.6-4.8-2.5-7.9c-3.3,2.5-5.1,5.8-6,9.2
	c0.1,0.8,0.2,1.7,0.3,2.6C533.8,267.5,537.8,276.3,536.5,290.2z M533.7,248.2c0.1,0,0.1-0.1,0.1-0.1c0.1,0,0.2,0.1,0.2,0.2
	c-0.2,3.2,0.9,5.7,2.5,8.1c1.6,2.4,3.7,4.6,5.4,7c1.7,2.5,3.1,5.1,3.3,8.5c0.1,2.8-0.5,6-2.5,9.9c0.9-0.9,1.9-1.7,2.8-2.5
	c2.6-2.2,5.5-4.2,8.4-6.4c1.2-9.1-3-15.5-7.6-21.5c-4.4-5.7-9.1-11-9.3-17.7c-3.4,1.3-7,4-9.9,7.5c-1.4,1.6-2.6,3.4-3.6,5.3
	c0.8,1.6,1.6,3.4,2.3,5.3c0.6,1.6,1.1,3.4,1.5,5.3C528.5,253.8,530.4,250.6,533.7,248.2z M527.3,276.4c-0.3,2.1-0.7,4.2-1.2,6.5
	c-0.3,1.2-0.6,2.4-0.9,3.6c1.1,1.3,2.2,2.6,3.2,3.8C529.5,284.7,528.9,280.2,527.3,276.4z M555.1,273.5c-0.1,0.1-0.2,0.2-0.3,0.3
	c-3,2.3-5.8,4.3-8.4,6.5c-5.3,4.3-9.5,9.3-11.4,18.3c1.4,1.9,2.8,3.7,4,5.6c1.9-8.8,9.6-15.9,18.8-19.4h0.1c0.1,0,0.2,0.1,0.2,0.2
	c0.2,4.3,2.1,8.1,3.9,12.3c0.7-0.7,1.3-1.5,2-2.2c2.6-2.8,5.1-5.5,7.6-8.1c-3.1-6.7-6.8-13.2-8.2-20.6
	C560.5,269.1,557.8,271.4,555.1,273.5z M559.7,256.8c-0.9-0.5-1.9-0.7-2.8-0.7c-0.9,0-1.8,0.2-2.6,0.6c-0.8,0.4-1.4,0.9-1.9,1.5
	c2.1,3.9,3.4,8.3,2.9,13.6c2.6-2.1,5.3-4.4,7.8-7.2c0.1-0.1,0.3-0.2,0.4-0.2c0.3,0,0.5,0.2,0.6,0.5c1.2,7.4,5,14.1,8.2,21
	c1.1-1.1,2.1-2.2,3.1-3.2c-3.4-8.9-6.7-15.7-10-20.1C563.5,259.7,561.6,257.8,559.7,256.8z M539.2,304.5c1.7,2.6,3.2,5.3,4.4,8
	c1.5-4.3,5.6-8,9.7-12.7c0.1-0.1,0.2-0.1,0.2-0.1c0.1,0,0.3,0.1,0.3,0.2c0.3,1.5,0.7,3.1,1.2,4.7c2.2-2.4,4.4-4.8,6.6-7.3
	c-1.8-4.1-3.6-7.9-3.9-12.3C548.5,288.7,540.9,295.8,539.2,304.5z M544,313.4c0.4,0.9,0.7,1.8,1,2.7c3.1-3.6,6.3-7.2,9.6-10.9
	c-0.5-1.6-0.9-3.1-1.2-4.6C549.2,305.4,545.2,309.2,544,313.4z M393,420.5c2.6-1.6,5.3-3.2,8.1-4.8c-14.9-38.4-51.2-66.8-94.4-69.4
	l7.1,10.2C349.8,362.3,379.6,387.1,393,420.5z M374.3,427.7c1.8-2.7,1.9-5.1,0.8-6.9c-1.1-1.8-3.4-3-6.8-3.2c-0.2,0-0.4,0-0.7,0
	c-2.8,0-6.3,0.6-10.2,2.2l1.8,2.5v3c1.9,3.4,3.7,6.9,5.1,10.7C369.3,433.2,372.6,430.3,374.3,427.7z M373.1,321.8l-21.4,35.7
	c2.7,1.4,5.2,2.9,7.8,4.6l25-33.4C380.8,326.2,377,323.9,373.1,321.8z M358.8,358c-0.9,0.4-1.9,0-2.3-0.9c-0.4-0.9,0-2,0.9-2.4
	c0.2-0.1,0.4-0.1,0.7-0.1c0.7,0,1.4,0.4,1.6,1.1C360.1,356.5,359.7,357.6,358.8,358z M362.5,352.4c-0.9,0.4-1.9,0-2.3-0.9
	c-0.4-0.9,0-1.9,0.9-2.3c0.2-0.1,0.4-0.1,0.7-0.1c0.7,0,1.3,0.4,1.6,1C363.8,350.9,363.4,352,362.5,352.4z M366.5,346.6
	c-0.9,0.4-1.9,0-2.3-0.9c-0.4-0.9,0-1.9,0.9-2.3c0.2-0.1,0.4-0.1,0.7-0.1c0.7,0,1.4,0.4,1.7,1C367.8,345.2,367.4,346.2,366.5,346.6z
	 M370.2,341c-0.9,0.4-1.9,0-2.4-0.9c-0.4-0.9,0-1.9,0.9-2.3c0.2-0.1,0.4-0.1,0.7-0.1c0.7,0,1.4,0.4,1.6,1.1
	C371.5,339.6,371.1,340.6,370.2,341z M374,335.6c-0.9,0.4-1.9,0-2.3-0.9c-0.4-0.9,0-2,0.9-2.4c0.2-0.1,0.4-0.1,0.7-0.1
	c0.7,0,1.4,0.4,1.7,1.1C375.3,334.2,374.9,335.2,374,335.6z M377.4,330.5c-0.9,0.4-1.9,0-2.4-0.9c-0.4-0.9,0-1.9,0.9-2.3
	c0.2-0.1,0.4-0.2,0.7-0.2c0.7,0,1.4,0.4,1.6,1C378.7,329,378.3,330.1,377.4,330.5z M366.4,354.4l-6.2,8.2
	c10,6.6,18.9,14.8,26.2,24.2l8.3-5.6C386.8,370.8,377.3,361.7,366.4,354.4z M397.9,419c-12.6,7.4-23,15.9-31.3,24.9
	c-0.1,0.1-0.1,0.1-0.2,0.2c-2.7,2.9-5.1,5.9-7.4,9v4.5C367.3,443.6,380,430.3,397.9,419z M359.1,427.7V451c2-2.6,4.1-5.1,6.4-7.6
	C363.9,437.8,361.7,432.6,359.1,427.7z M336.7,363.9c-3.3-1.3-6.6-2.5-10-3.6l-3.1,10.5l5.2,7.6c0.9-0.8,1.9-1.5,2.8-2.2
	L336.7,363.9z M316.6,357.9l-0.4,2.2l7.1,10.3l3-10.1C323.2,359.3,319.9,358.5,316.6,357.9z M368.2,417c3.5,0.2,6.1,1.5,7.3,3.5
	c1.2,2,1,4.7-0.8,7.5c-1.8,2.8-5.1,5.7-10.3,8.5c0.7,1.9,1.4,3.9,2,5.9c6.5-7,14.3-13.6,23.3-19.7c0.6-7.1-2.9-13.4-9.9-16.2
	c-2.2-0.9-4.7-1.3-7.6-1.4c-5.7-0.1-12.7,1.7-20.8,6.2l5.5,8C361.3,417.5,365.1,416.9,368.2,417z M264,238.1
	c0.2,4.6-0.4,9.6-3.5,15.4c2.4-0.8,4.7-1.8,6.9-2.9c0.1,0,0.1,0,0.2,0c0.4,0,0.6,0.3,0.5,0.7c-1.6,4.8-2.5,9.8-3.4,14.8
	c7.7-8.1,10.1-16.9,10.3-26.2v-0.1c0-0.3,0-0.6,0-0.9c0-1.7-0.1-3.4-0.2-5.1c-3.8,0-7.6-0.1-11.2-0.3C263.8,235,264,236.5,264,238.1
	z M355.3,375.4c-2.4-2-5.4-3.3-9-3.3c-2.1,0-4.4,0.4-6.9,1.2c-3.1,1.1-6.5,3.1-9.9,6.1l5.9,8.5c0.9-0.6,1.8-1.1,2.6-1.4
	c1.6-0.7,3.1-1,4.3-0.9c1.3,0,2.4,0.4,3.3,1.2c1.7,1.4,2.5,4,2,7.4c-0.3,2.3-1.2,4.9-2.6,7.7l5.4,7.9c6.2-6.5,9.3-13.2,10-19.1
	C361.1,384.1,359.1,378.7,355.3,375.4z M345.2,387.2c-0.8-0.7-2-1.1-3.4-1c-1,0-2.3,0.3-3.6,0.9c-0.8,0.3-1.6,0.8-2.5,1.3l8.9,12.9
	c1.4-2.7,2.2-5.1,2.4-7.3C347.4,390.8,346.7,388.4,345.2,387.2z M385.8,571.7c14.1,5,30.4,5.9,47.6,1.5c-0.8-0.6-1.8-1.1-2.8-1.6
	c-0.4-0.2-0.4-0.7-0.1-1c2.9-2.3,5.7-4,8.6-5.3c-0.7-0.6-1.4-1.3-2.1-1.9c-34.9,9.3-63.1-3.3-78-25.5c0,2-0.1,3.9-0.2,5.7
	c3.7,1.9,7.2,4.1,10.4,6.7C376.4,556,382.1,563.4,385.8,571.7z M314.4,357.5l1.5,2.1l0.3-1.8C315.6,357.7,315,357.6,314.4,357.5z
	 M304.6,232.2c-3,1.4-6.2,2.9-9.5,4.7c2,0.3,3.9,0.7,5.8,1.1c0.8,0.2,1.6,0.4,2.5,0.6c6.5-2.1,11.7-3.8,15.5-6.2
	c0.9-0.5,1.5-1.2,1.9-1.9c0-0.1,0-0.1,0.1-0.2c-4.7,0.6-9.8,1.2-15.4,1.8C305.1,232.2,304.8,232.2,304.6,232.2z M367.4,329.3
	c-12.7-6.9-26.8-11.9-41.7-14.5l-1.2,9.2c13.5,2.5,26.3,7.2,37.9,13.5L367.4,329.3z M323.1,336c11.8,2.3,23,6.4,33.2,11.9l6-10
	c-11.6-6.3-24.3-11-37.7-13.5L323.1,336z M360.5,476c0-1-0.6-1.8-1.4-2.2v4.5C359.9,477.9,360.5,477,360.5,476z M318.4,250
	c-1.2,2.2-2.2,4.6-3.2,7c1.2-0.1,2.4-0.1,3.5-0.1c0.4,0,0.8,0,1.2,0c11.7-4.7,17.5-11.5,21.7-19.8c0.7-1.5,1.5-3,2.2-4.6
	c-0.1-0.2,0-0.5,0.2-0.6c0.8-1.9,1.6-3.9,2.4-6c-1.8,0.4-5.1,1-9.9,1.8c-0.9,2.2-1.8,4.4-2.8,6.5C330.5,240.7,326.2,246.6,318.4,250
	z M276.1,239.1c0.7-0.3,1.5-0.5,2.2-0.7c2.5-1.6,4.7-3.1,6.6-4.8c-3,0.1-6,0.2-8.9,0.2c0.1,1.7,0.2,3.4,0.2,5.1V239.1z M315.5,304.7
	l-4.1,40.5c3.2,0.3,6.3,0.8,9.4,1.3l5.1-40.6C322.4,305.4,319,305,315.5,304.7z M317.7,343.1c-0.6,0.7-1.7,0.9-2.5,0.3
	c-0.8-0.6-0.9-1.7-0.3-2.5c0.3-0.4,0.8-0.7,1.4-0.7c0.4,0,0.8,0.1,1.1,0.4C318.2,341.2,318.4,342.3,317.7,343.1z M318.5,336.4
	c-0.6,0.7-1.7,0.9-2.5,0.3c-0.8-0.6-0.9-1.7-0.3-2.5c0.3-0.4,0.8-0.7,1.4-0.7c0.4,0,0.8,0.1,1.1,0.4
	C319,334.5,319.1,335.6,318.5,336.4z M319.3,329.4c-0.6,0.7-1.7,0.9-2.5,0.3c-0.7-0.6-0.9-1.7-0.3-2.5c0.3-0.4,0.9-0.7,1.4-0.7
	c0.4,0,0.8,0.1,1.1,0.4C319.8,327.6,319.9,328.7,319.3,329.4z M320,322.7c-0.6,0.8-1.7,0.9-2.5,0.3c-0.7-0.6-0.9-1.7-0.3-2.5
	c0.4-0.4,0.9-0.7,1.4-0.7c0.4,0,0.8,0.1,1.1,0.4C320.5,320.9,320.6,322,320,322.7z M320.9,316.2c-0.6,0.7-1.7,0.9-2.5,0.3
	c-0.8-0.6-0.9-1.7-0.3-2.5c0.3-0.4,0.8-0.7,1.4-0.7c0.4,0,0.8,0.1,1.1,0.4C321.4,314.4,321.5,315.5,320.9,316.2z M319,310.4
	c-0.8-0.6-0.9-1.7-0.3-2.5c0.3-0.4,0.8-0.7,1.4-0.7c0.4,0,0.8,0.1,1.1,0.4c0.8,0.6,0.9,1.7,0.3,2.5
	C320.9,310.8,319.8,310.9,319,310.4z M323,336.4l-1.3,10.4c10.3,2.1,20,5.6,29.1,10.3l5.3-8.9C345.9,342.7,334.8,338.7,323,336.4z
	 M361.2,468.8c1.2,0,2.2-1,2.2-2.2c0-1.2-1-2.2-2.2-2.2c-1.1,0-1.9,0.7-2.1,1.7v0.8C359.3,468,360.2,468.8,361.2,468.8z
	 M362.1,547.2c-1.1-0.7-2.2-1.3-3.4-1.9c-0.1,1.2-0.2,2.3-0.4,3.5c0.8,0.3,1.6,0.6,2.4,0.9L362.1,547.2z M517,341.1
	c0.3,2.1,0.8,4.3,1.4,6.4l8.6-10.2c0.6-0.8,1.3-1.6,1.9-2.3c-2.5-4.3-6.2-8.2-9.2-14.5C516.6,324.9,515.7,332.6,517,341.1z
	 M313.6,312.8l0.8-8.2c-3.6-0.2-7.2-0.4-10.9-0.4c-8.5,0-16.7,0.6-24.6,1.8l5.1,7.4c5.9-0.7,11.9-1.1,18-1.1
	C306,312.3,309.8,312.5,313.6,312.8z M214,234.9c2.3-2,4.7-4.1,7.2-6.5c0.2-0.4,0.4-0.7,0.7-1.1c-1.5-0.3-2.8-0.6-4-0.9
	C216.6,229.3,215.3,232.1,214,234.9z M316.7,282.9c0.5,0.1,0.9,0.2,1.3,0.4c0.7,0.3,1.3,0.9,1.4,1.6c0.4,1.4-0.4,3.1-2.5,4.4
	c-3.8,2.2-8.2,3.1-13.5,4.6c0.6,0,1.3,0,1.9,0c3.6,0,7.1,0.1,10.7,0.4c5.9-0.7,10.2-3.1,13.8-6.3c3.9-3.5,6.9-7.9,10.3-12
	c-6-0.1-10.8-1.4-15.9-2.3c-3.6-0.7-7.2-1.2-11.5-1.2c-1.8,0-3.7,0.1-5.7,0.4c-0.7,0.9-1.6,1.7-2.5,2.5c1.2,0.1,2.4,0.2,3.5,0.2
	c0.4,0,0.6,0.4,0.4,0.8c-2.3,3.5-4,6.6-6,9.7c4.8-1.5,8.6-2.4,12.6-3C315.6,282.9,316.2,282.8,316.7,282.9z M312.6,322.3l0.9-9.1
	c-3.8-0.3-7.6-0.5-11.5-0.5c-6,0-11.9,0.4-17.8,1.1l5.8,8.4c3.5-0.3,7.1-0.4,10.7-0.4C304.8,321.8,308.8,322,312.6,322.3z
	 M512.4,313.4c-3.6,5.7-7.7,11.7-12.6,18l-0.1,0.1c0,5.4,1.2,10.6,4.2,15.6c1.8,3,4.3,5.9,7.6,8.7l2.2-2.6
	c-3.4-5.1-5.3-10.6-5.8-16.4C507.4,329.4,509,321.6,512.4,313.4z M421.4,364.4l-34.3,23.2c1.7,2.2,3.3,4.4,4.8,6.7l35.6-20.7
	C425.5,370.4,423.5,367.4,421.4,364.4z M393.1,390.4c-1,0-1.8-0.8-1.8-1.8c0-1,0.8-1.8,1.8-1.8c1,0,1.8,0.8,1.8,1.8
	C394.9,389.7,394,390.4,393.1,390.4z M398.7,386.8c-1,0-1.8-0.8-1.8-1.8c0-1,0.8-1.8,1.8-1.8s1.8,0.8,1.8,1.8
	C400.5,386,399.7,386.8,398.7,386.8z M404.7,383.1c-1,0-1.8-0.8-1.8-1.8c0-1,0.8-1.8,1.8-1.8c1,0,1.8,0.8,1.8,1.8
	C406.4,382.3,405.7,383.1,404.7,383.1z M410.3,379.5c-1,0-1.8-0.8-1.8-1.8c0-1,0.8-1.8,1.8-1.8c1,0,1.8,0.8,1.8,1.8
	C412.1,378.7,411.3,379.5,410.3,379.5z M415.9,376.1c-1,0-1.8-0.8-1.8-1.8c0-1,0.8-1.8,1.8-1.8s1.8,0.8,1.8,1.8
	C417.7,375.3,416.9,376.1,415.9,376.1z M421.2,372.7c-1,0-1.8-0.8-1.8-1.8c0-1,0.8-1.8,1.8-1.8c1,0,1.8,0.8,1.8,1.8
	C423,371.9,422.1,372.7,421.2,372.7z M519.8,300.2c7.5,7.6,14.3,15.5,17.3,25c2.3-2.7,4.6-5.4,6.9-8.1c-3-9.7-10.7-19-19.3-29.2
	C523.5,291.8,521.9,295.9,519.8,300.2z M339.6,261.8c-5.7-2-11.6-3.8-20.9-3.8c-1.2,0-2.5,0-3.9,0.1c-0.2,0.5-0.4,1-0.6,1.5
	c-1.8,4.4-3.7,8.9-6.9,12.8c1.4-0.2,2.8-0.3,4.1-0.3c4.8-0.1,8.8,0.4,12.7,1.2c5.2,1,10.1,2.2,16.2,2.4c0.2,0,0.3,0.2,0.1,0.3
	c-3.4,4.1-6.5,8.7-10.6,12.3c-3.3,2.9-7.1,5.2-12.2,6.2c6.4,0.5,12.8,1.4,19,2.7c6.9-3.9,10.7-9.2,14.1-14.7c3-4.9,5.8-10,10.2-13.9
	c-0.2-0.3-0.4-0.6-0.6-0.9C351.4,266.4,345.6,263.9,339.6,261.8z M441.2,399.9c2.7-0.6,5.4-1.1,8.2-1.5c-0.6-1.8-1.3-3.7-2-5.5
	l-0.7,0.8l-42.9-62.7c-11.2-9.5-23.8-17.5-37.5-23.5c-0.2,0.1-0.5-0.1-0.6-0.3c-9.2-4-18.8-7.1-28.8-9.2c-0.1,0-0.3,0-0.4-0.1
	c-10.1-2.1-20.5-3.2-31.2-3.2c-3.4,0-6.7,0.1-10,0.3c-0.1,0-0.1,0-0.2,0c-7.3,0.5-14.5,1.5-21.5,3l4.7,6.8
	c8.2-1.3,16.7-1.9,25.4-1.9C367.4,303,421.5,343.5,441.2,399.9z M316.5,288.8c2-1.2,2.6-2.7,2.3-3.7c-0.1-0.5-0.5-1-1.1-1.3
	c-0.4-0.2-1-0.4-1.8-0.3c-0.2,0-0.5,0-0.8,0.1c-4.2,0.7-8.1,1.6-13.2,3.2c-1.6,2.4-3.3,4.8-5.6,7.4c1.6-0.1,3.1-0.2,4.7-0.2
	C307.3,292,312.4,291.2,316.5,288.8z M503,347.7c-0.9-1.4-1.6-2.9-2.2-4.4c-1.8-1.3-3.9-1.8-6.3-2.2c-0.8-0.1-1.7-0.2-2.6-0.4
	l-2.8,3.3c3.8,6.7,7.7,10,12.3,12.1c2.3,1.1,4.8,1.9,7.5,2.7l1.9-2.3C507.4,353.8,504.9,350.8,503,347.7z M514,310.8
	c-4.2,9.1-6.3,17.8-5.6,25.9c0.5,5.7,2.3,11.1,5.6,16.1l4-4.8c-0.7-2.3-1.2-4.6-1.6-6.9c-1.4-8.8-0.5-16.9,3.2-21.4
	c0.1-0.1,0.2-0.1,0.2-0.1c0.1,0,0.2,0.1,0.3,0.1c3,6.5,6.7,10.3,9.3,14.7c2.5-3,4.9-6,7.5-9c-3-9.5-9.7-17.4-17.2-25
	C518,303.9,516.1,307.3,514,310.8z M311.4,334.3l1.2-11.5c-3.9-0.4-7.8-0.5-11.9-0.5c-3.5,0-7,0.1-10.4,0.4l7.7,11.1
	c0.6,0,1.1,0,1.7,0C303.6,333.7,307.6,333.9,311.4,334.3z M410.7,384.4c4.1,7,7.5,14.4,10.2,22.1c1.3-0.5,2.6-1,3.9-1.5
	c0.1,0,0.1,0,0.2,0c0,0,0,0,0,0c1.7-0.7,3.4-1.3,5.1-1.9c-2.9-8.3-6.5-16.2-10.9-23.6L410.7,384.4z M367.6,329l4.6-7.7
	c-13.9-7.4-29.2-12.7-45.3-15.3l-1,8.3C340.7,317,354.8,322,367.6,329z M401.1,390c4,6.5,7.4,13.4,10.1,20.7c3-1.4,6.1-2.8,9.3-4
	c-2.6-7.7-6-15.1-10.1-22L401.1,390z M392.4,395c4,6.3,7.5,12.9,10.2,19.9c2.7-1.4,5.4-2.8,8.3-4.2c-2.7-7.2-6-14.2-10.1-20.7
	L392.4,395z M419.5,379.2c4.4,7.5,8.1,15.4,11,23.7c3.1-1,6.3-1.9,9.5-2.7c-3.2-9.1-7.2-17.7-12.1-25.8L419.5,379.2z M311.4,334.7
	c-3.9-0.4-7.8-0.6-11.7-0.6c-0.5,0-0.9,0-1.4,0l7.3,10.6c1.6,0.1,3.2,0.2,4.7,0.3L311.4,334.7z M488.6,344.6l-7.4,8.7
	c2.6,3.5,5.5,6,8.5,7.8c4.8,2.8,9.8,2.4,15.1,1.7c0.3,0,0.6-0.1,0.9-0.1l2.7-3.2c-2.6-0.8-5.1-1.6-7.4-2.7
	C496.5,354.6,492.5,351.2,488.6,344.6z M489.5,361.4c-3-1.8-5.9-4.3-8.6-7.8l-7.1,8.3c1.8,2,3.8,3.4,6,4.3c5.1,1.9,11.8,1.1,20.8-1
	c1.2-0.3,2.4-0.6,3.6-0.8l1-1.2c-0.2,0-0.3,0-0.5,0.1C499.5,363.8,494.4,364.2,489.5,361.4z M359.1,466.6c0-0.1,0-0.3,0-0.4v-1
	c-0.3,0.4-0.4,0.9-0.4,1.4c0,0.5,0.2,1,0.4,1.4v-1C359.1,466.9,359.1,466.8,359.1,466.6z M519.5,300c-0.1,0-0.1,0-0.1,0.1
	c-2.8,4.5-5.1,9-6.9,13.3c0.5-0.8,1.1-1.7,1.6-2.5c1.6-3.4,3.4-6.8,5.5-10.3c0,0,0.1,0.1,0.1,0.1c0.1-0.1,0.1-0.3,0.2-0.4
	c-0.1-0.1-0.1-0.1-0.2-0.2C519.6,300,519.5,300,519.5,300z"/>
</svg>
