<?xml version="1.0" encoding="utf-8"?>
<!-- Generator: Adobe Illustrator 22.1.0, SVG Export Plug-In . SVG Version: 6.00 Build 0)  -->
<svg version="1.1" id="Layer_1" xmlns="http://www.w3.org/2000/svg" xmlns:xlink="http://www.w3.org/1999/xlink" x="0px" y="0px"
	 viewBox="0 0 612 792" style="enable-background:new 0 0 612 792;" xml:space="preserve">
<style type="text/css">
	.st0{fill:#E6E7E8;stroke:#000000;stroke-miterlimit:10;}
	.st1{fill:#E6E7E8;stroke:#ED1C24;stroke-miterlimit:10;}
	.st2{fill:#FFFFFF;}
	.st3{fill:#FFFFFF;stroke:#000000;stroke-miterlimit:10;}
	.st4{fill:none;stroke:#ED1C24;stroke-miterlimit:10;}
	.st5{fill:#009444;}
</style>
<g id="Layer_1_1_">
	<path class="st0" d="M616.8,1.5v753.6H501.4V1.5H616.8z"/>
</g>
<g id="Score_Lines">
	<path class="st0" d="M430.7,434.5v-110c38-0.6,68.7-48.8,68.7-108.2c0-58.2-29.5-105.7-66.4-108.1V2H1v106.3H0.5V757h430.2V650.9
		c38-0.6,68.7-48.8,68.7-108.2S468.7,435.1,430.7,434.5z"/>
	<path class="st1" d="M433,107.1H1 M433,322.1H1 M433,432.1H1 M433,650.1H1"/>
</g>
<g id="Arbor">
	<path class="st2" d="M474.6,455.1c-7.2-9.2-16.6-17.1-27.8-20.7c-4.3-1.4-8.7-2-13.1-2.2c-3-0.2-6-0.2-8.9-0.2h6.6v-18.7h-90.7
		c-3.1-3.5-17.3-20.1-17.3-39.7c0-20.1,14.7-30.9,17.2-32.7h90.7V326c0.4,0,0.9,0,1.3,0c37.9,0,67.8-47.8,67.8-107.9
		c0-16.6-2.1-33.2-6.9-49.1c-4.1-13.6-10.1-26.8-18.9-38c-7.2-9.2-16.6-17.1-27.8-20.7c-4.3-1.4-8.7-2-13.1-2.2
		c-3-0.2-6-0.2-8.9-0.2h6.6V89.3h-90.7c-3.1-3.5-17.3-20.1-17.3-39.7c0-20.1,14.7-30.9,17.2-32.7h90.7V-1.7H1.3V17h35v72.3h-35V108
		H1.2v22.3c1.2,0,2.3,0,3.5,0c3.3,0,6.7,0,10,0c5.2,0,10.4,0,15.6,0c6.8,0,13.6,0,20.5,0c8.2,0,16.3,0,24.5,0c9.2,0,18.5,0,27.7,0
		c10,0,20.1,0,30.1,0c10.6,0,21.1,0,31.7,0c10.8,0,21.7,0,32.5,0s21.6,0,32.4,0c10.5,0,21.1,0,31.6,0c10,0,20,0,29.9,0
		c9.2,0,18.3,0,27.5,0c8.1,0,16.1,0,24.2,0c6.7,0,13.4,0,20.1,0c5.1,0,10.1,0,15.2,0c7.5,0,15,0,22.5-0.1c7.3,0,14.7,0.5,22,1.3
		c6.6,0.7,14.2,1.6,19.5,5c11.5,7.3,18.9,20.1,24.4,32.9c6,14.1,10.3,29.5,10.7,44.8c0,1.1,0,2.1,0,3.2c0,55.1-20.8,86.6-64.7,86.6
		c-8.8,0-17.5,0-26.3,0c-3.1,0-6.2,0-9.3,0c-4.9,0-9.9,0-14.8,0c-6.5,0-13,0-19.5,0c-7.8,0-15.7,0-23.5,0c-8.9,0-17.8,0-26.7,0
		c-9.7,0-19.4,0-29.1,0c-10.3,0-20.5,0-30.8,0c-10.6,0-21.1,0-31.7,0c-10.6,0-21.2,0-31.8,0c-10.4,0-20.8,0-31.2,0
		c-9.9,0-19.8,0-29.8,0c-9.2,0-18.4,0-27.6,0c-8.2,0-16.5,0-24.7,0c-7,0-14,0-21,0c-5.5,0-11.1,0-16.6,0c-3.8,0-7.6,0-11.4,0
		c-1.8,0-3.6,0-5.4,0c-0.1,0-0.2,0-0.3,0v22.3h0.1V341h35v72.3h-35V432H1.1v22.3c1.2,0,2.3,0,3.5,0c3.3,0,6.7,0,10,0
		c5.2,0,10.4,0,15.6,0c6.8,0,13.6,0,20.5,0c8.2,0,16.3,0,24.5,0c9.2,0,18.5,0,27.7,0c10,0,20.1,0,30.1,0c10.6,0,21.1,0,31.7,0
		c10.8,0,21.7,0,32.5,0s21.6,0,32.4,0c10.5,0,21.1,0,31.6,0c10,0,20,0,29.9,0c9.2,0,18.3,0,27.5,0c8.1,0,16.1,0,24.2,0
		c6.7,0,13.4,0,20.1,0c5.1,0,10.1,0,15.2,0c7.5,0,15,0,22.5-0.1c7.3,0,14.7,0.5,22,1.3c6.6,0.7,14.2,1.6,19.5,5
		c11.5,7.3,18.9,20.1,24.4,32.9c6,14.1,10.3,29.5,10.7,44.8c0,1.1,0,2.1,0,3.2c0,55.1-20.8,86.6-64.7,86.6c-8.8,0-17.5,0-26.3,0
		c-3.1,0-6.2,0-9.3,0c-4.9,0-9.9,0-14.8,0c-6.5,0-13,0-19.5,0c-7.8,0-15.7,0-23.5,0c-8.9,0-17.8,0-26.7,0c-9.7,0-19.4,0-29.1,0
		c-10.3,0-20.5,0-30.8,0c-10.6,0-21.1,0-31.7,0c-10.6,0-21.2,0-31.8,0c-10.4,0-20.8,0-31.2,0c-9.9,0-19.8,0-29.8,0
		c-9.2,0-18.4,0-27.6,0c-8.2,0-16.5,0-24.7,0c-7,0-14,0-21,0c-5.5,0-11.1,0-16.6,0c-3.8,0-7.6,0-11.4,0c-1.8,0-3.6,0-5.4,0
		c-0.1,0-0.2,0-0.3,0v21.7l0,0v18.1h430v-17.6c0.6,0,1.1,0,1.6,0c37.9,0,67.8-47.8,67.8-107.9c0-16.6-2.1-33.2-6.9-49.1
		C489.4,479.5,483.4,466.3,474.6,455.1z M92.1,89.3H51.7V74.5h40.4C92.1,74.5,92.1,89.3,92.1,89.3z M92.1,61.1H51.7V46.5h40.4
		C92.1,46.5,92.1,61.1,92.1,61.1z M92.1,33.1H51.7V17h40.4C92.1,17,92.1,33.1,92.1,33.1z M147.8,89.3h-40.4V74.5h40.4V89.3z
		 M147.8,61.1h-40.4V46.5h40.4V61.1z M147.8,33.1h-40.4V17h40.4V33.1z M203.6,89.3h-40.4V74.5h40.4V89.3z M203.6,61.1h-40.4V46.5
		h40.4V61.1z M203.6,33.1h-40.4V17h40.4V33.1z M259.3,89.3h-40.4V74.5h40.4V89.3z M259.3,61.1h-40.4V46.5h40.4V61.1z M259.3,33.1
		h-40.4V17h40.4V33.1z M274.7,17h47.8c-1.9,2.1-6.3,7.5-9.3,16.1h-38.5V17z M274.7,46.5h35.8c-0.1,1.5-0.2,3.1-0.2,4.8
		c0,3.4,0.3,6.7,0.8,9.8h-36.4L274.7,46.5L274.7,46.5z M274.7,89.3V74.5H315c3.1,7.6,7,12.8,8.5,14.8H274.7z M92.1,413.3H51.7v-14.8
		h40.4C92.1,398.5,92.1,413.3,92.1,413.3z M92.1,385.1H51.7v-14.6h40.4C92.1,370.5,92.1,385.1,92.1,385.1z M92.1,357.1H51.7V341
		h40.4C92.1,341,92.1,357.1,92.1,357.1z M147.8,413.3h-40.4v-14.8h40.4V413.3z M147.8,385.1h-40.4v-14.6h40.4V385.1z M147.8,357.1
		h-40.4V341h40.4V357.1z M203.6,413.3h-40.4v-14.8h40.4V413.3z M203.6,385.1h-40.4v-14.6h40.4V385.1z M203.6,357.1h-40.4V341h40.4
		V357.1z M259.3,413.3h-40.4v-14.8h40.4V413.3z M259.3,385.1h-40.4v-14.6h40.4V385.1z M259.3,357.1h-40.4V341h40.4V357.1z
		 M274.7,341h47.8c-1.9,2.1-6.3,7.5-9.3,16.1h-38.5V341z M274.7,370.5h35.8c-0.1,1.5-0.2,3.1-0.2,4.8c0,3.4,0.3,6.7,0.8,9.8h-36.4
		L274.7,370.5L274.7,370.5z M274.7,413.3v-14.8H315c3.1,7.6,7,12.8,8.5,14.8H274.7z"/>
	<path class="st3" d="M339.6,486.2v-5.1c0,0-2.8,1-4.5-0.7s-1.5-2.8-2.8-4.2c-1.3-1.3-5.3-1.7-5.3-1.7v-17.9h-20.7v29.9h-0.7V476
		h-11.2h-96H45.3v10.6h-1.6v-29.9H23.1v17.9c0,0-4,0.3-5.3,1.7c-1.3,1.3-1.2,2.5-2.8,4.2c-1.7,1.7-4.5,0.7-4.5,0.7v5.1H6.1v0.4v18.8
		v0.1l4.4,0.1v5.1c0,0,2.8-1,4.5,0.7s1.5,2.8,2.8,4.2c1.3,1.3,5.3,1.7,5.3,1.7v16.4h20.7v-28.1h0.6v74.2h-0.6V550H23.1v17.9
		c0,0-4,0.3-5.3,1.7c-1.3,1.3-1.2,2.5-2.8,4.2c-1.7,1.7-4.5,0.7-4.5,0.7v5.1H6.1v0.4v18.8v0.1l4.4,0.1v5.1c0,0,2.8-1,4.5,0.7
		s1.5,2.8,2.8,4.2c1.3,1.3,5.3,1.7,5.3,1.7v16.4h20.7V599h1.6v10.4h153.2h96h11.2V599h0.7v28.1H327v-16.4c0,0,4-0.3,5.3-1.7
		c1.3-1.3,1.2-2.5,2.8-4.2c1.7-1.7,4.5-0.7,4.5-0.7V599l4.4-0.1v-0.1V580v-0.4h-4.4v-5.1c0,0-2.8,1-4.5-0.7s-1.5-2.8-2.8-4.2
		c-1.3-1.3-5.3-1.7-5.3-1.7V550h-20.7v29.9h-1v-74.2h1v28.1H327v-16.4c0,0,4-0.3,5.3-1.7c1.3-1.3,1.2-2.5,2.8-4.2
		c1.7-1.7,4.5-0.7,4.5-0.7v-5.1l4.4-0.1v-0.1v-18.8v-0.4L339.6,486.2L339.6,486.2z M103.5,579.6H64.3v-74.2h39.2V579.6z
		 M164.2,579.6H125v-74.2h39.2V579.6z M224.8,579.6h-39.2v-74.2h39.2V579.6z M285.5,579.6h-39.2v-74.2h39.2V579.6z"/>
</g>
<g id="Arbor_Score_Lines">
	<path class="st4" d="M306.3,486.8h33.3v18.6h-33.3 M306.2,467.7h20.3 M306.2,524.7h20.7 M306.3,579.8h33.3v18.6h-33.3 M306.2,560.7
		h20.3 M306.2,617.7h20.7 M44.5,505.4H11.2v-18.6h33.3 M44.6,467.7H24.3 M24,524.7h20.7 M44.5,598.4H11.2v-18.6h33.3 M24.3,560.7
		h20.3 M24,617.7h20.7"/>
	<path class="st1" d="M433,107.1H1 M433,322.1H1 M433,432.1H1 M433,650.1H1"/>
</g>
<g id="Vines">
	<path class="st5" d="M734.4,465.9c-3.2-2.1-8.6-3.8-8.6-3.8s1.5,0.1,4-1.5c2.5-1.7,5.1-8.1,5.1-8.1s-3.9,0.7-7.1,1.5
		c-3.2,0.8-5.7,2.6-5.7,2.6s1.8-1.4,1.8-4.4c0.1-3-1.4-8.1-1.4-8.1s-4.7,4.7-4.6,6.2c0,0.6,0.1,1.4,0.3,2.1
		c-2.5-3.8-8-12.1-8.8-13.1c-0.2-0.3-0.9-1.5-1.9-3.3c1.2-1.6,3-4.3,3-6.3c0-2.9-1.3-6-1.3-6s4.5,5.8,7.6,6.9s10.9,0,10.9,0
		s-3.7-6.2-7.4-7.4c-3.6-1.2-9.3-1.5-9.3-1.5s1.5-0.3,3.4-2.5s2.8-9.2,2.8-9.2s-3.6,1.7-6.5,3.3c-2.9,1.6-4.8,4-4.8,4
		s1.4-1.8,0.6-4.7c-0.7-2.9-3.5-7.5-3.5-7.5s-3.3,5.7-2.9,7.2s1.7,3.7,1.7,3.7l-6.5-3.1c-1.5-2.8-2.9-5.4-4-7.5
		c-3.4-6.3-7.6-9.3-12.7-12l7.4-6.8c0,0-0.3,1.5-0.3,5s5.7,7.2,5.7,7.2s0.3-5.7-0.6-8.1c-1-2.4-2.1-5.2-2.1-5.2s1.1,1.1,4.3,2.6
		s10.7-0.4,10.7-0.4s-3.4-5.2-6.2-5.9c-2.8-0.7-6.2-0.4-6.2-0.4s6.8-2.7,8.7-5.4s2.9-10.4,2.9-10.4s-7,1.9-9.1,5
		c-2.1,3.2-3.9,8.5-3.9,8.5s0.1-1.5-1.5-4s-8.1-5.2-8.1-5.2s0.7,3.9,1.4,7.1s2.5,5.7,2.5,5.7s-1.3-1.8-4.4-1.9
		c-3-0.1-8.1,1.3-8.1,1.3s4.6,4.8,6.1,4.7s4.1-0.6,4.1-0.6l-5.4,6.2c-2.8-1.4-5.8-2.9-9-4.8c-4.2-2.4-8-3.6-11.8-3.9l-0.2-9.8
		c0,0,0.9,1.2,3.6,3.5c2.6,2.3,9.2,0.5,9.2,0.5s-4-4-6.5-4.9s-5.2-1.9-5.2-1.9s1.5-0.1,4.8-1.5c3.2-1.4,6.8-8.3,6.8-8.3
		s-6.1-0.9-8.5,0.7s-4.4,4.4-4.4,4.4s2.4-6.9,1.7-10.1s-5.9-9.1-5.9-9.1s-3.3,6.5-2.3,10.2s3.8,8.6,3.8,8.6s-1-1.1-4-1.5
		c-2.9-0.4-9.3,2.6-9.3,2.6s3.4,2.1,6.3,3.7c2.9,1.6,6,1.9,6,1.9s-2.2-0.2-4.3,2s-4.4,6.9-4.4,6.9s6.6-0.3,7.6-1.4
		c1-1.2,2.2-3.5,2.2-3.5l0.9,6.9c-4.9,0-10.1,1.3-16.5,2.9c-7.2,1.8-11,4.1-15.8,6.9c-0.6-1.2-1-2-1-2s-0.9,1.7-1.9,3.7
		c-1.9,1.1-4.1,2.4-6.7,3.7c-2.5-1.5-5.7-2.8-5.7-2.8s0.4,3,1,5.2c-0.3,0.2-0.7,0.3-1,0.5c-2,0.9-3.9,1.8-5.7,2.6
		c0.8-0.8,1.4-1.4,1.4-1.4s-4.7-0.9-6.8-0.4s-4.6,1.1-4.6,1.1s1-0.8,2.6-3.3s0.9-9,0.9-9s-4.7,2.2-5.7,4.5c-0.9,2.2-1,5.1-1,5.1
		s-1.5-6-3.5-7.9c-0.4-0.4-1-0.8-1.7-1.1c3.3-2.4,6.3-4.5,9.3-8.3c4-5.1,9.7-10.8,15.4-16.3l6.8,4.2c0,0-1.5,0.1-4.9,1.1
		s-5.4,7.5-5.4,7.5s5.5-1.2,7.6-2.8c2.1-1.6,4.4-3.4,4.4-3.4s-0.8,1.3-1.3,4.8s3.3,10.2,3.3,10.2s4-4.7,4-7.6s-1.3-6-1.3-6
		s4.5,5.8,7.6,6.9s10.9,0,10.9,0s-3.7-6.2-7.4-7.4c-3.6-1.2-9.3-1.5-9.3-1.5s1.5-0.3,3.4-2.5s2.8-9.2,2.8-9.2s-3.6,1.7-6.5,3.3
		c-2.9,1.6-4.8,4-4.8,4s1.4-1.8,0.6-4.7c-0.4-1.5-1.3-3.6-2.1-5.1c3.4-3.4,7.4-7.5,10.9-11.2c-0.1,0.7-0.2,2.1-0.2,4.4
		c0,3.5,5.7,7.2,5.7,7.2s0.3-5.7-0.6-8.1c-1-2.4-2.1-5.2-2.1-5.2s1.1,1.1,4.3,2.6s10.7-0.4,10.7-0.4s-3.4-5.2-6.2-5.9
		c-2.8-0.7-6.2-0.4-6.2-0.4s6.8-2.7,8.7-5.4s2.9-10.4,2.9-10.4s-7,1.9-9.1,5c-2.1,3.2-3.9,8.5-3.9,8.5s0.1-1.5-1.5-4
		s-8.1-5.2-8.1-5.2s0.7,3.9,1.4,7.1s2.5,5.7,2.5,5.7s-1.3-1.8-4.4-1.9c-3-0.1-8.1,1.3-8.1,1.3s4.6,4.8,6.1,4.7c0,0,0,0,0.1,0
		c-0.1,0-0.1,0.1-0.2,0.1c-2,1.2-6.1,5.3-10.7,10.3v-0.1l-5.8-8.3c0,0,1.4,0.5,4.9,1s7.9-4.7,7.9-4.7s-5.6-1.1-8.1-0.5
		s-5.4,1.3-5.4,1.3s1.2-0.9,3.1-3.9s1.1-10.7,1.1-10.7s-5.6,2.7-6.7,5.3c-1.1,2.6-1.2,6-1.2,6s-1.8-7.1-4.2-9.3
		c-2.4-2.3-9.9-4.3-9.9-4.3s0.9,7.2,3.7,9.8c2.8,2.5,7.9,5.1,7.9,5.1s-1.5-0.3-4.1,0.9c-2.7,1.3-6.3,7.3-6.3,7.3s4-0.1,7.3-0.4
		s6-1.7,6-1.7s-2,1.1-2.5,4c-0.5,3,0.2,8.2,0.2,8.2s5.3-3.9,5.5-5.4s-0.1-4.1-0.1-4.1l5.2,6.1c-5.3,5.7-10.9,12.1-14.8,16.3
		c-0.9,1-1.9,2-2.9,2.9c-0.9-0.7-1.9-1.3-2.7-1.6c-2.5-0.9-5.2-1.9-5.2-1.9s1.5-0.1,4.8-1.5c3.2-1.4,6.8-8.3,6.8-8.3
		s-6.1-0.9-8.5,0.7s-4.4,4.4-4.4,4.4s2.4-6.9,1.7-10.1s-5.9-9.1-5.9-9.1s-3.3,6.5-2.3,10.2s3.8,8.6,3.8,8.6s-1-1.1-4-1.5
		c-2.9-0.4-9.3,2.6-9.3,2.6s3.4,2.1,6.3,3.7c2.9,1.6,6,1.9,6,1.9s-2.2-0.2-4.3,2s-4.4,6.9-4.4,6.9s6.6-0.3,7.6-1.4
		c1-1.2,2.2-3.5,2.2-3.5l0.9,7.5c-0.5,0.4-1.1,0.9-1.6,1.3c-0.3-0.1-0.4-0.1-0.4-0.1s0,0.2,0.1,0.4c-4.5,3.6-9,7.2-13.2,11
		c-2.5,2.2-5.1,4.3-7.6,6.2c-1.3-1.1-2.8-2.2-4-2.6c-2.5-0.9-5.2-1.9-5.2-1.9s1.5-0.1,4.8-1.5c3.2-1.4,6.8-8.3,6.8-8.3
		s-6.1-0.9-8.5,0.7s-4.4,4.4-4.4,4.4s2.4-6.9,1.7-10.1s-5.9-9.1-5.9-9.1s-3.3,6.5-2.3,10.2s3.8,8.6,3.8,8.6s-1-1.1-4-1.5
		c-2.9-0.4-9.3,2.6-9.3,2.6s3.4,2.1,6.3,3.7c2.9,1.6,6,1.9,6,1.9s-2.2-0.2-4.3,2s-4.4,6.9-4.4,6.9s6.6-0.3,7.6-1.4
		c1-1.2,2.2-3.5,2.2-3.5l0.9,7.5c-0.2,0.1-0.3,0.2-0.5,0.3c-6.2,0.1-12.5-0.1-18.4-0.7c-0.9-0.1-1.8-0.2-2.7-0.3
		c-0.9-0.4-1.7-0.7-2.5-0.7c-1-0.1-2.1,0-3.3,0c-1.8-0.2-3.2-0.5-4.5-0.7c0.4-0.5,0.7-1,1.1-1.8c1.3-2.6,0.5-9.6,0.5-9.6
		s-3.1,2.5-5.5,4.8c-2.4,2.2-3.7,5-3.7,5l0,0c0,0,0.9-2.1-0.5-4.7c-1.4-2.7-5.2-6.4-5.2-6.4s-1.8,6.4-1.1,7.6
		c0.5,0.8,1.2,1.7,1.8,2.4c-0.4-0.1-0.8-0.2-1.2-0.3c-8.7-1.9-20.8-3.6-31.2-2.6c-0.3-0.6-0.6-1.1-0.8-1.5
		c4.4-4.6,11.5-12.7,17.7-19.6l7.3,0.9c0,0-2.3,1.3-3.5,2.2s-1.4,7.6-1.4,7.6s4.8-2.4,6.9-4.5c2.2-2.1,2-4.3,2-4.3s0.3,3.1,2,6
		c1.6,2.9,3.7,6.3,3.7,6.3s3-6.3,2.5-9.3s-1.5-4-1.5-4s4.9,2.8,8.6,3.7c3.7,0.9,10.2-2.3,10.2-2.3s-5.9-5.1-9.1-5.9
		c-3.2-0.7-10.1,1.7-10.1,1.7s2.8-2,4.3-4.4s0.7-8.5,0.7-8.5s-6.8,3.6-8.3,6.9c-1.4,3.2-1.5,4.8-1.5,4.8s-1-2.8-1.9-5.2
		c-0.2-0.7-0.7-1.4-1.3-2.2c0.2-0.2,0.4-0.4,0.6-0.6c6.3-6.3,16.7-10.5,23.6-14.3l8.4-0.8c0,0-1.1,1-3.2,3.8
		c-2.1,2.8,0.2,9.2,0.2,9.2s3.7-4.3,4.4-6.8s1.5-5.4,1.5-5.4s0.2,1.5,1.9,4.6s8.8,6.2,8.8,6.2s0.4-6.2-1.4-8.4s-4.7-4-4.7-4
		s7.1,1.9,10.2,0.9c3.1-1,8.6-6.6,8.6-6.6s-6.7-2.7-10.3-1.5s-8.3,4.4-8.3,4.4s1-1.1,1.2-4.1c0.1-1.4-0.6-3.5-1.4-5.3
		c2.3-2.1,4.6-4,6.9-5.2c2.4-1.2,5.7-3.7,8.9-6.5h0.2l7.5-6.9c0,0-0.3,1.5-0.3,5s5.7,7.2,5.7,7.2s0.3-5.7-0.6-8.1
		c-1-2.4-2.1-5.2-2.1-5.2s1.1,1.1,4.3,2.6s10.7-0.4,10.7-0.4s-3.4-5.2-6.2-5.9c-2.8-0.7-6.2-0.4-6.2-0.4s6.8-2.7,8.7-5.4
		s2.9-10.4,2.9-10.4s-7,1.9-9.1,5c-2.1,3.2-3.9,8.5-3.9,8.5s0.1-1.5-1.5-4s-8.1-5.2-8.1-5.2s0.7,3.9,1.4,7.1s2.5,5.7,2.5,5.7
		s-1.3-1.8-4.4-1.9c-3-0.1-8.1,1.3-8.1,1.3s4.6,4.8,6.1,4.7s4.1-0.6,4.1-0.6l-1.6,1.8c-4.1,2.3-8.8,4.9-12.5,6.7
		c-7.8,3.7-11.6,11.7-15.3,14.4c-2.5-1.6-6.2-3.1-6.2-3.1s0.4,3.6,1.2,5.8c-4.6,2.4-10.9,6-16.5,9.1c-0.5,0.3-1,0.6-1.5,0.9
		c-1.2-0.9-2.5-1.9-3.5-2.2c-2.5-0.9-5.2-1.9-5.2-1.9s1.5-0.1,4.8-1.5c3.2-1.4,6.8-8.3,6.8-8.3s-6.1-0.9-8.5,0.7s-4.4,4.4-4.4,4.4
		s2.4-6.9,1.7-10.1c-0.7-3.2-5.9-9.1-5.9-9.1s-3.3,6.5-2.3,10.2s3.8,8.6,3.8,8.6s-1-1.1-4-1.5c-2.9-0.4-9.3,2.6-9.3,2.6
		s3.4,2.1,6.3,3.7s6,1.9,6,1.9s-2.2-0.2-4.3,2c-2.1,2.2-4.4,6.9-4.4,6.9s6.6-0.3,7.6-1.4c1-1.2,2.2-3.5,2.2-3.5l1,8.1
		c-3.4,3.4-6.7,7-9.2,10.3c-0.5,0.6-1,1.3-1.7,2.1l-4.2-6c0,0,1.2,0.4,4.2,0.8s6.7-4,6.7-4s-4.7-0.9-6.8-0.4
		c-2.1,0.5-4.6,1.1-4.6,1.1s1-0.8,2.6-3.3s0.9-9,0.9-9s-4.7,2.2-5.7,4.5c-0.9,2.2-1,5.1-1,5.1s-1.5-6-3.5-7.9s-8.4-3.7-8.4-3.7
		s0.8,6.1,3.2,8.2c2.4,2.1,6.7,4.3,6.7,4.3s-1.2-0.3-3.5,0.8c-2.3,1.1-5.3,6.2-5.3,6.2s3.3-0.1,6.1-0.3c2.8-0.2,5.1-1.4,5.1-1.4
		s-1.7,0.9-2.1,3.4s0.1,7,0.1,7s4.5-3.3,4.7-4.6c0.1-1.3-0.1-3.5-0.1-3.5l3.7,4.2c-7.5,8.7-21.7,23.1-21.7,23.1l-2.7,0.3l2.3-0.2
		c-1.8,0.8-3.6,1.5-5.5,2.1c2-2.3,3.6-4.7,3.6-4.7s-7.1-1.5-10.4,0.4s-7.3,5.9-7.3,5.9s0.8-1.3,0.5-4.2c-0.3-2.9-4.9-8.3-4.9-8.3
		s-1.2,3.8-2,7s-0.3,6.3-0.3,6.3s-0.4-2.2-3-3.6s-7.9-2.5-7.9-2.5s2,6.3,3.3,7c1.4,0.6,3.9,1.2,3.9,1.2l-1.9,0.8
		c-2.9,0.4-6,0.8-9.1,1.2c-4.1,0.6-7.3,1.1-10,1.5c0-1.5-0.1-3-0.4-4c-0.5-1.4-1-2.9-1.3-3.9c0.2-0.1,0.4-0.3,0.7-0.4
		c0.7,0.5,1.6,1.1,3,1.8c3.1,1.6,10.7,0.1,10.7,0.1s-3.1-5.3-5.9-6.2c-0.4-0.1-0.8-0.2-1.2-0.3c2.6-1.8,5.1-3.6,7.4-5.2
		c7.2-5.1,14.5-14.7,19.7-22.3l5.1-4.7c0,0-0.3,1.5-0.3,5s5.7,7.2,5.7,7.2s0.3-5.7-0.6-8.1c-1-2.4-2.1-5.2-2.1-5.2s1.1,1.1,4.3,2.6
		c3.2,1.5,10.7-0.4,10.7-0.4s-3.4-5.2-6.2-5.9c-2.8-0.7-6.2-0.4-6.2-0.4s6.8-2.7,8.7-5.4s2.9-10.4,2.9-10.4s-7,1.9-9.1,5
		c-2.1,3.2-3.9,8.5-3.9,8.5s0.1-1.5-1.5-4s-8.1-5.2-8.1-5.2s0.7,3.9,1.4,7.1c0.7,3.2,2.5,5.7,2.5,5.7s-1.3-1.8-4.4-1.9
		c-3-0.1-8.1,1.3-8.1,1.3s4.6,4.8,6.1,4.7s4.1-0.6,4.1-0.6l-5.5,6.3c-2.2,2.4-4.5,4.8-6.5,6.9c-2.5,2.6-4.6,4.7-5.8,5.8
		c-1.2,1.1-2.6,2.3-4.3,3.5c0.9-2.8,1.4-5.6,1.4-5.6s-7.1,1.5-9.4,4.6c-2.3,3-4.4,8.3-4.4,8.3s0.2-1.5-1.3-4s-7.8-5.6-7.8-5.6
		s0.5,3.9,1,7.2s2.2,5.9,2.2,5.9s-1.3-1.9-4.3-2.1s-8.2,0.9-8.2,0.9s4.4,5,5.9,5s4.1-0.4,4.1-0.4L391,414c-0.3,0.2-0.7,0.5-1,0.7
		c-8.4,6-15.7,9.1-20.8,10.7c-0.3,0-0.6,0-0.9,0c0.3-1.5,0.4-2.6,0.4-2.6s-2.6,1.3-5.2,2.6c-2.1-0.1-3.9-0.3-5.6-0.6
		c-0.9-2.9-3.3-6.9-3.3-6.9s-1.9,3.2-2.6,5.4c-3.2-1-6.5-2.3-10.6-3.6c-4.2-1.3-8.3-3.1-12.5-5.1c3.2-1.3,8.1-3.4,13.7-6.5
		c5.5-3.1,9.3-5.9,12.9-9c0,0.4,0,0.8,0,1.2c0.1,1.5,5.3,5.6,5.3,5.6s0.9-5.3,0.5-8.2c-0.2-1.2-0.6-2.1-1-2.8
		c0.2-0.2,0.4-0.3,0.6-0.5c1.1,0.4,2.5,0.9,4.1,1.1c3.3,0.4,7.2,0.7,7.2,0.7s-2.8-5.1-5.2-7c5.3-5.1,10.9-12.3,15.9-18.7l5.2,0.6
		c0,0-2.3,1.3-3.5,2.2s-1.4,7.6-1.4,7.6s4.8-2.4,6.9-4.5c2.2-2.1,2-4.3,2-4.3s0.3,3.1,2,6c1.6,2.9,3.7,6.3,3.7,6.3s3-6.3,2.5-9.3
		s-1.5-4-1.5-4s4.9,2.8,8.6,3.7c3.7,0.9,10.2-2.3,10.2-2.3s-5.9-5.1-9.1-5.9c-3.2-0.7-10.1,1.7-10.1,1.7s2.8-2,4.3-4.4
		s0.7-8.5,0.7-8.5s-6.8,3.6-8.3,6.9c-1.4,3.2-1.5,4.8-1.5,4.8s-1-2.8-1.9-5.2c-0.2-0.4-0.4-0.9-0.7-1.4c5.6-6.4,13.5-14.4,18.6-19.9
		l9.1-0.9c0,0-1.1,1-3.2,3.8s0.2,9.2,0.2,9.2s3.7-4.3,4.4-6.8c0.7-2.5,1.5-5.4,1.5-5.4s0.2,1.5,1.9,4.6c1.7,3.1,8.8,6.2,8.8,6.2
		s0.4-6.2-1.4-8.4s-4.7-4-4.7-4s7.1,1.9,10.2,0.9s8.6-6.6,8.6-6.6s-6.7-2.7-10.3-1.5c-3.6,1.2-8.3,4.4-8.3,4.4s1-1.1,1.2-4.1
		s-3.3-9-3.3-9s-1.8,3.5-3.2,6.5c-1.4,3-1.5,6.1-1.5,6.1s0-2.2-2.3-4.1c3-3.8,5.3-7,5.3-7l-8.1,5.2c-2.2-1.2-4.5-2.1-4.5-2.1
		s0.4,3.3,1.1,5.5c-3.6,3.7-9.1,9.3-10.5,10.4c-0.5,0.4-1.1,1-1.9,1.9l-4.2-8.4c0,0,1.3,0.7,4.7,1.6c3.4,0.9,8.5-3.5,8.5-3.5
		s-5.3-1.9-7.9-1.6s-5.6,0.5-5.6,0.5s1.4-0.7,3.6-3.4s2.6-10.4,2.6-10.4s-5.9,1.8-7.4,4.3s-2.1,5.8-2.1,5.8s-0.8-7.3-2.8-9.8
		c-2-2.6-9.2-5.7-9.2-5.7s-0.1,7.3,2.3,10.2s7.1,6.1,7.1,6.1s-1.4-0.5-4.2,0.3c-2.8,0.9-7.3,6.3-7.3,6.3s3.9,0.4,7.3,0.6
		s6.2-0.8,6.2-0.8s-2.1,0.8-3,3.7s-1,8.2-1,8.2s5.8-3.1,6.2-4.6s0.5-4.1,0.5-4.1l4.1,6.4c-2.3,2.5-5.4,5.9-9.1,9.7
		c-0.7-0.8-1.3-1.4-1.3-1.4s-0.4,1.5-0.6,3.3c-0.3,0.3-0.5,0.5-0.8,0.8c-6.1,6.1-7.8,9.1-11.8,13.9c-2,0.5-7.3,2-9.3,3.7
		c-2.5,2.2-4.6,9.2-4.6,9.2s0-3.4-1-6.1s-6.5-5.6-6.5-5.6s-1.1,7.7,0.6,10.7s3,4,3,4s-2.9-0.8-5.4-1.5s-8.1,0.2-8.1,0.2
		s0.1,0.2,0.4,0.5c-2.4-0.2-7.1-0.3-9.4,0.6c-3,1.2-7.3,7.2-7.3,7.2s1.1-3.2,1.1-6.1c-0.1-2.9-4.3-7.4-4.3-7.4s-3.5,6.9-2.9,10.4
		s1.5,4.8,1.5,4.8s-2.4-1.7-4.6-3.2s-7.7-2.5-7.7-2.5s2.3,6.4,5.7,7.2c3.4,0.8,4.9,0.9,4.9,0.9l-8.3,5.6c-1.9-0.9-3.8-1.9-5.8-2.7
		c-2.8-1.2-5.4-2-8-2.5c-1.5-0.7-3-1.4-4.1-1.5c-1.4-0.2-3.5,0.4-5.3,1c-1,0.1-1.9,0.1-2.9,0.2c0.8-0.9,1.6-2,2.2-3.2
		c1.3-2.6-0.3-8.5-0.3-8.5s-6.4,4.4-7.4,7.8c-0.9,2.9-1,4.4-0.9,4.8c0,0,0,0-0.1,0c-0.3-0.5-1.4-2.8-2.5-4.9
		c-1.2-2.3-5.6-5.8-5.6-5.8s-1,6.7,1.6,9.1c1.1,1,2,1.7,2.6,2.2c-3.1,0.5-6.5,0.9-10.2,1.3c-14.5,1.6-23.4,2.3-37.8,0.9
		c6.5-4.1,18.5-11.7,28.5-18.3c0.6,2.1,3.1,6,3.1,6s2.5-4.7,3.1-7.6c0.2-1,0.2-1.8,0-2.5c0.3-0.2,0.6-0.4,0.8-0.6
		c0.9,0.7,2,1.5,3.3,2.1c3,1.4,6.6,3,6.6,3s-1.2-6.9-3.2-9.1c-0.1-0.2-0.3-0.3-0.4-0.4c1.7-1.2,3.2-2.3,4.7-3.4
		c0.5-0.1,1-0.3,1.4-0.5c1.8-0.7,3.6-2.6,4.9-4.4c1-0.8,2-1.7,3-2.5l4.3,6.6c0,0-2.4-1-3.9-1.2c-1.5-0.3-6.7,3.8-6.7,3.8
		s4.9,2.1,7.9,2.5c3,0.3,4.6-1.2,4.6-1.2s-2.1,2.2-3.3,5.3s-2.4,6.9-2.4,6.9s6.8-1.8,8.7-4c2-2.2,2-3.7,2-3.7s1,5.6,2.7,9
		c1.6,3.4,8.3,6.3,8.3,6.3s0.1-7.8-1.4-10.8c-1.5-2.9-7.8-6.6-7.8-6.6s3.3,0.9,6.1,0.5c2.9-0.3,7-4.9,7-4.9s-7.2-2.9-10.6-1.9
		s-4.6,1.9-4.6,1.9s1.5-2.6,2.8-4.9s1.8-7.9,1.8-7.9s-6.2,2.8-6.7,6.3s-0.4,5-0.4,5l-6.4-7.9H284c2.8-2.6,5.7-5.3,9.2-8.9
		c3-3,5.9-5.3,8.8-7.2c-0.4,0.8-0.8,1.9-1.1,2.8c-0.4,1.5,3.2,7,3.2,7s2.5-4.7,3.1-7.6c0.5-2.6-0.5-4.3-0.8-4.6l0,0
		c0.3,0.3,2.2,2.4,4.9,3.7c3,1.4,6.6,3,6.6,3s-1.2-6.9-3.2-9.1c-0.2-0.2-0.4-0.4-0.6-0.6c2.9-0.9,6.1-1.7,9.6-2.5
		c3.2-0.8,6.4-0.9,9.3-0.7l3.5,6.4c0,0-1.1-0.8-3.7-2.2c-2.7-1.4-6.7-0.1-6.7-0.1s4.2,2.5,6.3,3c2,0.5,4.4,1.1,4.4,1.1
		s-1.1,0.1-2.9,1.1s-2,5.5-2,5.5s4.6,0.4,5.8-0.7s1.6-2.9,1.6-2.9s0.6,4.5,2.2,6.5s7.3,5.7,7.3,5.7s0.1-4.3-1.8-6.6
		s-5.6-5.4-5.6-5.4s1.1,0.7,3.3,0.9s5.7-1.9,5.7-1.9s-3.1-1.3-5.7-2.2s-4.9-1.1-4.9-1.1s1.6,0.1,2.4-1.4c0.5-1,0.7-2.8,0.8-3.8
		c4.6,1.3,8.6,2.9,11.8,3.3c7,1,15.2,1.7,10.8-0.7c-3.3-1.8-12.4-5.1-23.5-7.2l1.3-5.7c0,0,1,2.4,1.9,3.7c0.9,1.2,7.4,2.2,7.4,2.2
		s-1.9-5-3.7-7.3c-1.8-2.4-4.1-2.4-4.1-2.4s3.1,0,6.1-1.3s6.6-3.1,6.6-3.1s-6-3.6-9-3.5s-4.1,1.1-4.1,1.1s3.3-4.6,4.6-8.2
		s-1.3-10.4-1.3-10.4s-5.7,5.4-6.7,8.5s0.7,10.2,0.7,10.2s-1.7-3-3.9-4.8c-2.2-1.8-8.4-1.5-8.4-1.5s2.9,7.2,6,8.9
		c3.1,1.7,4.6,2,4.6,2s-2.9,0.7-5.4,1.4c-2.5,0.7-6.9,4.2-6.9,4.2s6.3,2.4,9.2,0.4c2.9-2,3.9-3.2,3.9-3.2l-1,8.3
		c-2.8-0.5-5.6-0.8-8.5-1.1c-2.4-0.2-4.5-0.3-6.4-0.3c1.5-1.9,2.5-3.8,2.5-3.8s-7.8-0.8-10.8,0.4c-2.6,1.1-6.1,5.6-7,6.9
		c-0.1,0-0.1,0-0.2,0.1c0.3-0.8,1-3.4,1-5.8c-0.1-2.9-4.3-7.4-4.3-7.4s-3.5,6.9-2.9,10.4s1.5,4.8,1.5,4.8s-2.4-1.7-4.6-3.2
		c-2.1-1.5-7.7-2.5-7.7-2.5s2.3,6.4,5.7,7.2c1.1,0.3,2,0.5,2.7,0.6c-8.2,4.1-14.2,10.8-19.2,13.6c-0.4,0.2-0.7,0.4-1.1,0.7
		c-0.1-0.1-0.2-0.3-0.3-0.4c-1.7-2.5-3.9-2.6-3.9-2.6s3.1,0.2,6.2-1c3.1-1.1,6.8-2.7,6.8-2.7s-5.8-3.9-8.8-4c-3,0-4.2,0.9-4.2,0.9
		s3.5-4.4,5-7.9s-0.7-10.4-0.7-10.4s-6,5.1-7.2,8.1c-1.2,3.1,0.1,10.2,0.1,10.2s-1.5-3-3.6-5c-2.1-1.9-8.3-2-8.3-2s2.5,7.3,5.5,9.3
		s4.5,2.2,4.5,2.2s-2.9,0.6-5.5,1.1s-7.1,3.8-7.1,3.8s6.2,2.8,9.1,0.9c3-1.9,4.1-2.9,4.1-2.9l-1.8,10l0.1,0.2
		c-1.9,1.6-4,3.2-6.2,4.9c0.2-1.1,0.4-2.4,0.4-3.7c-0.1-2.9-4.3-7.4-4.3-7.4s-3.5,6.9-2.9,10.4c0.5,2.7,1.2,4.1,1.4,4.6
		c0,0-0.1,0-0.1,0.1c-0.6-0.4-2.6-1.8-4.4-3.1c-2.1-1.5-7.7-2.5-7.7-2.5s2.3,6.4,5.7,7.2c1.4,0.3,2.4,0.5,3.2,0.7
		c-5.3,3.9-10.3,7.8-18.2,13.6c-0.6,0.5-5.2,4.4-5.8,4.8c-1.9,1.2-3.8,2.3-5.6,3.3c-0.7-1.5-1.7-3.4-2.6-4.6
		c-1.8-2.4-4.1-2.4-4.1-2.4s3.1,0,6.1-1.3s6.6-3.1,6.6-3.1s-6-3.6-9-3.5s-4.1,1.1-4.1,1.1s3.3-4.6,4.6-8.2s-1.3-10.4-1.3-10.4
		s-5.7,5.4-6.7,8.5s0.7,10.2,0.7,10.2s-1.7-3-3.9-4.8s-8.4-1.5-8.4-1.5s2.9,7.2,6,8.9c3.1,1.7,4.6,2,4.6,2s-2.9,0.7-5.4,1.4
		c-2.5,0.7-6.9,4.2-6.9,4.2s6.3,2.4,9.2,0.4s3.9-3.2,3.9-3.2l-1.2,10.1l0,0c-0.1,0-0.1,0-0.2,0c-23-3.3-10.7-5.7-29-13.3
		c-0.7-0.3-1.4-0.6-2-0.8c-0.8-1-1.7-2-2.5-2.5c-1-0.6-2.5-1-4.1-1.3c5.5-1.3,12.6-3.4,16.6-6.4c1-0.7,2-1.6,3-2.6
		c0.8,1.7,5.5,5,5.5,5s0.6-5.3,0-8.2c-0.2-0.8-0.4-1.5-0.7-2c0.3-0.3,0.5-0.7,0.8-1c1,0.3,2.2,0.5,3.4,0.6c3.3,0.2,7.3,0.3,7.3,0.3
		s-3.4-5.5-6.1-7c3.5-4.9,6.7-9.6,8.8-12.6c2.5-3.5,6.4-9.7,9.5-14.7l4.9-5c0,0-0.4,2.6-0.3,4.1c0.1,1.5,5.2,5.7,5.2,5.7
		s1-5.2,0.7-8.2s-2.2-4.2-2.2-4.2s2.6,1.6,5.9,2.1c3.3,0.5,7.2,0.8,7.2,0.8s-3.2-6.2-5.8-7.7c-2.6-1.4-4.1-1.2-4.1-1.2
		s5.2-2.2,8.2-4.6s4.4-9.5,4.4-9.5s-7.7,1.6-10.2,3.7s-4.8,9.1-4.8,9.1s0.1-3.4-0.8-6.1s-6.3-5.7-6.3-5.7s-1.3,7.6,0.4,10.7
		s2.9,4.1,2.9,4.1s-2.8-0.9-5.3-1.7c-2.5-0.8-8.1,0-8.1,0s4.1,5.4,7.6,5.2c3.5-0.2,5-0.6,5-0.6l-6.3,8l0.1,0.5
		c-3.2,3.5-7.2,8-11,12.4c-0.9,0.3-1.9,0.7-3.1,1.1c1-0.8,1.8-1.6,1.8-1.6s-4.3-1.5-6.9-1.5c-2.6-0.1-3.8,1.4-3.8,1.4s1.7-2,2.5-4.8
		s1.6-6.1,1.6-6.1s-5.7,2-7.2,4.1c-1.5,2-1.5,3.3-1.5,3.3s-1.3-4.7-2.9-7.5c-1.6-2.8-7.6-4.8-7.6-4.8s0.5,6.7,2,9.1s7.1,5.1,7.1,5.1
		s-2.9-0.5-5.3,0s-5.6,4.7-5.6,4.7s5.5,1.7,8.5,1.1c-0.1,2.4-0.1,7,1.3,9.1c1.9,3,3.2,3.9,3.2,3.9s-2.9-0.7-5.5-1.2
		c-2.5-0.6-8.1,0.6-8.1,0.6s4.5,5.1,8,4.6c1.9-0.3,3.2-0.6,4-0.8c-2.5,2.2-4.9,4-8.4,7c-2.1,1.8-4.9,3.2-7.8,4.3
		c1.1-2.3,1.7-5.2,1.7-5.2s-7.7,1.1-10.1,3.6s-3,4-3,4s0-3,0-5.6s-2.4-7.7-2.4-7.7s-3.9,5.5-2.7,8.8c0.7,1.7,1.2,2.8,1.6,3.6
		c-6.7-2.5-13.2-4.7-21.5-7c-0.9-0.3-1.8-0.5-2.6-0.7c-0.4-0.4-0.7-0.5-0.7-0.5s5.5,1.3,9.3,1.3c3.8-0.1,9.2-5,9.2-5
		s-7.1-3.3-10.4-3.1c-0.5,0-1.2,0.2-1.8,0.4c2.9-2.9,7.7-7.5,11.7-12.2l8.1,1.7c0,0-1.2,0.5-3.6,2.3c-2.4,1.8-2.1,7.5-2.1,7.5
		s4-2.6,5.2-4.4c1.2-1.9,2.6-4,2.6-4s-0.2,1.3,0.4,4.2c0.6,2.9,5.6,7.2,5.6,7.2s1.9-4.9,1-7.1c-0.9-2.3-2.8-4.4-2.8-4.4
		s5.2,3.3,8,3.3s8.6-3.1,8.6-3.1s-4.8-3.9-8-3.8s-7.8,1.5-7.8,1.5s1.1-0.6,2-3c0.9-2.3-0.4-8.1-0.4-8.1s-2.4,2.4-4.2,4.5
		c-1.9,2.1-2.7,4.6-2.7,4.6s0.6-1.8-0.8-3.9c-0.6-0.8-1.4-1.8-2.3-2.6c4.7-5,9.9-9.5,16.5-17.1c4.7-5.4,9.2-10.6,12.4-14.3
		c0.1,0.7,0.2,1.7,0.4,3c0.5,2.9,5.8,5.2,5.8,5.2s-0.5-4.8-1.7-6.6c-1.1-1.8-2.3-3.8-2.4-4l0,0c0.2,0.1,1.3,0.8,3.9,1.5
		c2.9,0.7,8.9-1.9,8.9-1.9s-3.6-3.8-6-4s-5.2,0.6-5.2,0.6s5.2-3.3,6.4-5.8s0.9-9.1,0.9-9.1s-5.6,2.6-6.9,5.5c-1.3,2.9-2,7.7-2,7.7
		s-0.1-1.3-1.8-3.1c-1.7-1.8-7.5-3.2-7.5-3.2s1.1,3.2,2.2,5.8c1.1,2.6,2.9,4.4,2.9,4.4s-1.4-1.3-3.9-0.9s-6.6,2.2-6.6,2.2
		s4.5,3.3,5.8,3.1s3.3-1.1,3.3-1.1l-2.1,3.5c-3.1,2.5-5.9,4.6-6.5,5c-1,0.8-5.5,4.8-10.3,9.3c-1.3-1.3-3.3-3.1-4.9-4
		c-2.6-1.5-4.7-0.7-4.7-0.7s2.8-1.2,5.2-3.6c2.3-2.4,4.9-5.4,4.9-5.4s-6.9-1.1-9.6,0.2c-2.7,1.3-3.4,2.6-3.4,2.6s1.3-5.5,1.1-9.3
		s-5.1-9.1-5.1-9.1s-3.2,7.1-3,10.4s4.5,9.2,4.5,9.2s-2.7-2.1-5.4-2.9c-2.8-0.8-8.4,1.8-8.4,1.8s5.4,5.5,8.9,6s5,0.1,5,0.1
		s-2.4,1.8-4.5,3.3c-2.1,1.6-4.8,6.5-4.8,6.5s6.8-0.1,8.7-3.1s2.4-4.4,2.4-4.4l2.7,9.8l1.8,0.9c-3.2,3.7-5.5,7.2-10.6,13.1
		c-2.5,2.9-6.4,6.4-10.3,9.7c-0.3-2.8-1.8-6.2-1.8-6.2s-5.6,5.4-6.1,8.9c-0.3,1.9-0.3,3.2-0.3,4c-0.1,0.1-0.3,0.2-0.4,0.3
		c-0.6-0.9-1.8-2.4-2.8-3.8c-1.5-2.1-6.5-4.9-6.5-4.9s0,6.8,3,8.7c1.5,1,2.6,1.6,3.3,1.9c-4.5-0.1-8.4,0.9-15.6,2.3
		c-0.2-2.1-0.7-4.1-0.7-4.1s-2.5,2.3-3.8,4.9c-1.7,0.3-3.5,0.6-5.4,0.9c-3.5,0.5-7,1.2-10.5,1.9c2-3.8,4.8-8.8,6.8-12.3
		s7.2-14.1,11.5-23.1l5.8,3.9c0,0-1.2,0-4,0.4s-5,4.7-5,4.7s4.5-0.4,6.3-1.3s3.9-2,3.9-2s-0.7,0.9-1.5,3.2c-0.8,2.3,1.5,7.2,1.5,7.2
		s3.7-2.9,4-4.8c0.3-2-0.4-4.2-0.4-4.2s2.9,4.3,5.3,5.3c2.3,1,8.6,0.8,8.6,0.8s-2.3-4.6-5-5.6s-7.2-1.7-7.2-1.7s1.2-0.1,3-1.5
		s3.2-6.1,3.2-6.1s-3,0.9-5.5,1.7c-2.5,0.8-4.3,2.3-4.3,2.3s1.3-1.1,1-3.2c-0.2-1.5-1.2-3.7-1.7-4.8c1.6,2.2,5.1,3.7,5.1,3.7
		s-0.5-4.8-1.7-6.6c-1.1-1.9-2.5-4-2.5-4s1.1,0.8,3.9,1.5c2.9,0.7,8.9-1.9,8.9-1.9s-3.6-3.8-6-4c-2.4-0.2-5.2,0.6-5.2,0.6
		s5.2-3.3,6.4-5.8s0.9-9.1,0.9-9.1s-5.6,2.6-6.9,5.5s-2,7.7-2,7.7s-0.1-1.3-1.8-3.1c-1.7-1.8-7.5-3.2-7.5-3.2s1.1,3.2,2.2,5.8
		c1.1,2.6,2.9,4.4,2.9,4.4s-1.4-1.3-3.9-0.9s-6.6,2.2-6.6,2.2s4.5,3.3,5.8,3.1s3.3-1.1,3.3-1.1l-1.3,2.1c-1.5,1.9-3.2,4.2-4.6,6.9
		c-0.3,0.6-0.7,1.4-1.2,2.1c-1.7-0.5-4.2-1.2-6-1.3c-3-0.1-4.5,1.5-4.5,1.5s2-2.3,3-5.5s2-7,2-7s-6.7,2.2-8.5,4.5s-1.8,3.8-1.8,3.8
		s-1.4-5.5-3.2-8.8c-1.9-3.3-8.7-5.8-8.7-5.8s0.4,7.8,2.1,10.7c1.7,2.8,8.2,6.1,8.2,6.1s-3.3-0.6-6.2-0.1c-2.8,0.5-6.6,5.4-6.6,5.4
		s7.3,2.5,10.7,1.3c3.3-1.2,4.5-2.2,4.5-2.2s-1.3,2.7-2.5,5s-1.3,8-1.3,8s6-3.2,6.3-6.7s0.1-5,0.1-5l6.5,7
		c-2.1,5.1-3.1,9.9-7.8,15.3c-3.6,4.2-6.2,8-7.7,10.5c-1.7,0.4-3.4,0.9-5.1,1.3c-0.7-1.6-1.8-3.7-2.8-5c-1.8-2.4-4.1-2.4-4.1-2.4
		s3.1,0,6.1-1.3s6.6-3.1,6.6-3.1s-6-3.6-9-3.5s-4.1,1.1-4.1,1.1s3.3-4.6,4.6-8.2s-1.3-10.4-1.3-10.4s-5.7,5.4-6.7,8.5
		s0.7,10.2,0.7,10.2s-1.7-3-3.9-4.8c-2.2-1.8-8.4-1.5-8.4-1.5s2.9,7.2,6,8.9c3.1,1.7,4.6,2,4.6,2s-2.9,0.7-5.4,1.4
		c-2.5,0.7-6.9,4.2-6.9,4.2s6.3,2.4,9.2,0.4c2.9-2,3.9-3.2,3.9-3.2l-1.1,9.7c-4.1,1.1-8.2,2.2-12.3,3.2c-0.7-1.2-2.8-4.5-4.5-6.2
		c-2.2-2.1-4.4-1.7-4.4-1.7s3-0.5,5.8-2.3s6-4.1,6-4.1s-6.5-2.6-9.4-2s-3.9,1.8-3.9,1.8s2.5-5.1,3.3-8.8c0.7-3.7-2.9-10-2.9-10
		s-4.8,6.2-5.3,9.5c-0.5,3.2,2.3,10,2.3,10s-2.1-2.7-4.6-4.1s-8.5-0.2-8.5-0.2s4,6.6,7.3,7.9s4.8,1.2,4.8,1.2s-2.7,1.2-5.1,2.2
		c-1.1,0.5-2.5,1.6-3.7,2.8c-0.2-1-0.3-1.7-0.3-1.7s-6.5,4.2-7.7,7.5c-0.6,1.9-0.9,3.1-1,3.9c-0.2,0-0.3,0.1-0.5,0.1
		c-0.5-1-1.2-2.7-2-4.2c-1.1-2.4-5.4-6-5.4-6s-1.3,6.7,1.3,9.1c0.8,0.8,1.5,1.4,2,1.9c-9.7,1.8-16.4,3.3-16.4,3.3l-1,6.3l10.7-4
		c0,0,2-0.5,5.1-1.2h0.8c0,0-2.2,1.4-3.3,2.5s-0.8,7.7-0.8,7.7s4.5-2.8,6.5-5s1.6-4.5,1.6-4.5s0.6,3,2.4,5.8s4.2,5.9,4.2,5.9
		s2.5-6.6,1.8-9.5s-1.9-3.8-1.9-3.8s5.1,2.4,8.9,3s10-3.2,10-3.2s-2.7-2-5.5-3.5c2.9-0.4,5.7-0.6,8.3-0.7c2.8-0.1,5.9-0.4,9.1-0.9
		c3,2.4,7.1,5.7,11.1,8.7c-1.4,1-3.8,6.5-3.8,6.5s5.3-0.6,8.1-1.8c0.5-0.2,0.8-0.4,1.2-0.7c0.6,0.4,1.2,0.9,1.8,1.2
		c0,0.7,0.1,1.5,0.2,2.3c0.5,3.3,1.3,7.2,1.3,7.2s3.7-3.6,5.1-6.5c2.4,0.7,5.3,1.2,8.5,1.5c3.5,1.3,9.1,0.7,9.1,0.7s0,0-0.1-0.1
		c1.9,0,3.9,0,5.8,0l3.1,5.6c0,0-1.1-0.8-3.7-2.2c-2.7-1.4-6.7-0.1-6.7-0.1s4.2,2.5,6.3,3c2,0.5,4.4,1.1,4.4,1.1s-1.1,0.1-2.9,1.1
		s-2,5.5-2,5.5s4.6,0.4,5.8-0.7s1.6-2.9,1.6-2.9s0.6,4.5,2.2,6.5s7.3,5.7,7.3,5.7s0.1-4.3-1.8-6.6s-5.6-5.4-5.6-5.4s1.1,0.7,3.3,0.9
		s5.7-1.9,5.7-1.9s-3.1-1.3-5.7-2.2s-4.9-1.1-4.9-1.1s1.6,0.1,2.4-1.4c0.7-1.5,0.8-4.6,0.8-4.6s-4.6,0.4-4.9,1.1
		c-0.3,0.8-0.4,2.3-0.4,2.3l-2.6-3.8c3.3-0.2,6.6-0.5,9.4-1c5.7-1,11.2-2,16.3-2.7c-0.6,0.5-1.2,1-1.6,1.5c-1,1.1-0.3,7.7-0.3,7.7
		s4.3-3.1,6.2-5.4c1.8-2.3,1.4-4.4,1.3-4.5l0,0c0.1,0.3,0.9,3.1,2.8,5.6c2,2.6,4.6,5.6,4.6,5.6s2-6.7,1.1-9.6c-0.3-1-0.7-1.8-1-2.3
		c0.9-0.1,1.8-0.1,2.6-0.1c1.7,0.5,3.7,1,5.4,1.2c3.8,0.4,9.7-3.8,9.7-3.8s-0.2-0.2-0.7-0.4c0.8-0.5,1.3-0.8,1.3-0.8s-1.1,0-2.8,0
		c-2.2-1.2-5.7-3-7.8-3.1c-2.9-0.2-8.4,2.5-9.5,3.1h-0.1c0.5-0.5,2.5-2.6,3.5-4.9c1.2-2.6-0.6-8.5-0.6-8.5s-6.2,4.6-7.2,8
		s-0.8,4.9-0.8,4.9s-1.4-2.6-2.7-4.9s-5.8-5.6-5.8-5.6s-0.8,6.7,1.9,9c1.6,1.3,2.6,2.1,3.3,2.5c-5,0.4-11.7,1.1-19.4,2.4
		c-8.3,1.4-14.5,1.3-20.8,0.4c-0.9-1.1-1.7-2-2.5-2.5c-1.9-2.9-9.2-3-9.2-3s3.3-0.9,5.6-2.6c2.3-1.7,3.6-7.7,3.6-7.7
		s-7.7,1-10.1,3.6c-2.5,2.5-3.1,3.9-3.1,3.9s0-3,0-5.6c0-1.2-0.5-3-1.1-4.5c6.6-1.7,12.1-3.4,15.1-4.6c1.4-0.6,3.3-1.2,5.5-1.8
		l3.2,2.6c0,0-2.6-0.2-4.1,0s-5.3,5.7-5.3,5.7s5.3,0.5,8.2-0.1s4-2.6,4-2.6s-1.4,2.8-1.5,6.1c-0.2,3.3-0.2,7.3-0.2,7.3
		s5.9-3.8,7.1-6.5s0.8-4.2,0.8-4.2s2.7,5,5.3,7.8c2.6,2.8,9.9,3.5,9.9,3.5s-2.3-7.5-4.6-9.8c-2.3-2.3-9.4-3.9-9.4-3.9s3.4-0.2,6-1.4
		c1.4-0.6,2.7-2.5,3.7-4.2c0.2,2.2,0.9,4.9,0.9,4.9s3.9-3.6,5.5-6.2c0.5-0.8,0.7-1.5,0.8-2.1c0.5,0,0.9,0.1,1.4,0.1
		c0.5,0.8,1.2,1.7,2,2.5c2.4,2.3,5.3,5,5.3,5s0.5-3.1,0.5-6c4.6,1.2,9.3,3.1,14.2,5.3c-1.4,1.3-3.5,6.4-3.5,6.4s5.3-0.6,8-1.8
		c1-0.4,1.7-1,2.2-1.5c0.3,0.1,0.6,0.3,0.8,0.4c-0.1,1.1-0.1,2.5,0.1,4c0.5,3.3,1.4,7.2,1.4,7.2s5-4.9,5.6-7.8v-0.1
		c4.2,1.9,8.4,3.7,12.7,5.3c3,1.1,5.1,2,6.8,2.8l-2,6.4c0,0-0.4-1.2-1.9-3.8c-1.5-2.6-7.3-2.8-7.3-2.8s2.2,4.3,3.9,5.6
		c1.7,1.4,3.7,2.9,3.7,2.9s-1.3-0.3-4.2,0s-7.7,4.9-7.7,4.9s4.7,2.3,7,1.7c2.3-0.6,4.7-2.4,4.7-2.4s-3.8,4.9-4,7.7
		c-0.2,2.8,2.3,8.9,2.3,8.9s4.3-4.4,4.5-7.6s-0.8-7.9-0.8-7.9s0.5,1.1,2.8,2.3c2.2,1.1,8.1,0.4,8.1,0.4s-2.2-2.6-4.1-4.6
		c-1.9-2.1-4.3-3.1-4.3-3.1s1.7,0.7,4-0.5c1.1-0.6,2.5-1.8,3.6-2.7c1.9,1,4.7,2.1,9.9,3.5c1.6,2.1,3.6,4.8,5.5,7.4s4.5,4.9,7.6,7.1
		c-1.6,1-4.6,5.7-4.6,5.7s5.3,0.3,8.2-0.4c1.2-0.3,2.1-0.8,2.7-1.3c0.2,0.1,0.4,0.2,0.6,0.3c-0.3,1.1-0.6,2.7-0.7,4.4
		c0,3.3,0.1,7.3,0.1,7.3s5.7-4,6.8-6.8c0.2-0.6,0.4-1.1,0.5-1.6c0.8,0.3,1.5,0.5,2.4,0.8c1,1.4,2.2,3,3.4,4.1c2.7,2.7,10,3.1,10,3.1
		s-0.9-2.6-2.1-5.1c6.4,0.8,13.9,1.4,22,2.5c5.2,0.7,10.1,1.3,14.6,1.9c-0.1,0.2-0.2,0.3-0.3,0.5c-1.5,2.6,1,7.7,1,7.7
		s2.7-4,3.1-6.1c0.1-0.5,0.2-1,0.3-1.5c0.8,0.1,1.6,0.2,2.3,0.3c0.1,0.1,0.1,0.2,0.2,0.3c1.7,2.5,8,4.4,8,4.4s-0.1-1.8-0.5-3.7
		c3.9,0.6,7.5,1.2,10.7,2c3.5,0.8,6.7,1.4,9.4,1.8l4.1,3.2c0,0-1.3,0-4.2,0.5c-2.9,0.5-5.2,5.8-5.2,5.8s4.8-0.5,6.7-1.6
		c1.9-1.1,4.1-2.4,4.1-2.4s-0.8,1-1.5,3.9s1.8,8.9,1.8,8.9s3.8-3.5,4.1-6c0.2-2.4-0.5-5.2-0.5-5.2s3.2,5.3,5.7,6.5s9.1,1,9.1,1
		s-2.6-5.6-5.5-6.9s-7.7-2.1-7.7-2.1s1.3-0.1,3.1-1.8c1.8-1.7,3.2-7.5,3.2-7.5s-3.2,1.1-5.8,2.1c-1.6,0.6-2.9,1.6-3.7,2.2l-0.2-0.2
		c0.3-0.7,0.6-1.7,0.4-3.1c-0.3-2.5-2.2-6.6-2.2-6.6s-3.3,4.5-3.1,5.8c0.1,0.3,0.1,0.6,0.2,0.9l-2.4-1.6c0,0-12.1-1.7-22.1-2.9
		c-1.7-1.7-4.3-2.9-4.3-2.9s6.1,1,8.6-0.2s6.7-6.3,6.7-6.3s-5.9-1.7-8.8-0.3c-2.9,1.4-6.6,4.5-6.6,4.5s0.7-1,0.7-3.5
		c-0.1-2.5-3.6-7.3-3.6-7.3s-1.2,3.1-2.1,5.8c-0.9,2.7-0.7,5.3-0.7,5.3s-0.2-1.9-2.3-3.3s-6.5-2.6-6.5-2.6s1.3,5.4,2.4,6.1
		c1.1,0.6,3.2,1.3,3.2,1.3l-4.9,1.6c-6.1-0.8-12.8-1.8-21.4-2.4c-5.6-0.4-9.1-1.3-12.2-2.7c-0.1-0.1-0.2-0.3-0.3-0.4
		c-1.2-1.1-3.6-2-5.6-2.6c-0.7-0.4-1.5-0.8-2.3-1.2c1.2-0.2,2.9-0.7,4.3-1.4c2.6-1.3,4.8-7,4.8-7s-7.7-0.3-10.6,1.8
		c-2.8,2.1-3.7,3.4-3.7,3.4s0.5-2.9,0.9-5.5c0.2-1.4-0.1-3.6-0.4-5.4c5.9-0.2,12.5-0.6,20.8-0.5l2.9,5.4c0,0-1-0.7-3.4-2
		s-6.1,0-6.1,0s3.8,2.3,5.7,2.7c1.9,0.5,4,1,4,1s-1,0.1-2.6,1c-1.7,0.9-1.9,5.1-1.9,5.1s4.2,0.4,5.3-0.6s1.5-2.7,1.5-2.7
		s0.5,4.1,2,6s6.6,5.2,6.6,5.2s0.1-3.9-1.7-6.1s-5.1-5-5.1-5s1,0.6,3,0.8c2,0.2,5.2-1.8,5.2-1.8s-2.8-1.1-5.2-2s-4.5-1-4.5-1
		s1.5,0,2.2-1.3s0.7-4.2,0.7-4.2s-4.2,0.3-4.5,1.1c-0.3,0.7-0.4,2.1-0.4,2.1l-2.5-3.7c1,0,2.1,0,3.2,0.1c4.7,0.1,8.6,0,11.8-0.2
		c-0.4,2.2-0.1,6.6-0.1,6.6s4.5-2.9,6.4-5.2c0.7-0.9,1.1-1.7,1.3-2.4c0.3-0.1,0.5-0.1,0.8-0.2c0.4,1.1,1.1,2.4,2,3.7
		c1.9,2.7,4.4,5.8,4.4,5.8s2.2-6.6,1.5-9.5c-0.2-0.8-0.4-1.4-0.7-1.9c0.7-0.2,1.4-0.4,2.2-0.6c1.7,0.6,3.8,1.2,5.5,1.4
		c1.8,0.3,4.2-0.6,6.2-1.5c9.5,3,20.8,13.3,37.1,19.2c4.3,1.6,7.6,2.6,10.5,3.4l7,4.3c0,0-1.5,0.1-4.9,1.1s-5.4,7.5-5.4,7.5
		s5.5-1.2,7.6-2.8s4.4-3.4,4.4-3.4s-0.8,1.3-1.3,4.8s3.3,10.2,3.3,10.2s4-4.7,4-7.6s-1.3-6-1.3-6s4.5,5.8,7.6,6.9s10.9,0,10.9,0
		s-3.7-6.2-7.4-7.4c-3.6-1.2-9.3-1.5-9.3-1.5s1.5-0.3,3.4-2.5c0.5-0.6,0.9-1.4,1.3-2.4c3.2-0.2,7-0.4,11.8-0.6
		c17.2-0.5,29.7-2.6,44.8-5.4c-0.1,0.2-0.2,0.3-0.3,0.5c-1.6,3.2,1.9,9,1.9,9s2.8-4.9,3.1-7.5c0.1-1,0.2-2,0.3-2.9
		c0.5-0.1,1-0.2,1.6-0.3c0.4,0.5,0.8,1.1,1.4,1.8c2.2,2.7,9.8,4.5,9.8,4.5s-0.7-5.7-2.7-7.8c8.8-1.6,13.8-2.9,17.5-4l6.2,3.8
		c-0.7,0.1-2.1,0.4-4.3,1c-1.3,0.4-2.5,1.7-3.3,3c-1.4,2.2-2.2,4.7-2.2,4.7s5.5-1.2,7.6-2.8c2.1-1.6,4.4-3.4,4.4-3.4
		s-0.8,1.3-1.3,4.8s3.3,10.2,3.3,10.2s1.1-1.3,2.2-3c1-1.5,2-3.4,2-4.9c0-1.9-0.6-3.9-1-5c1.3,1.5,4.6,5.3,7,6.2
		c3.1,1.1,10.9,0,10.9,0s-0.1-0.1-0.2-0.3c0.2,0,0.4,0,0.4,0s-3.7-6.2-7.4-7.4c-3-1-7.3-1.3-8.8-1.4c0.6-0.3,1.6-0.9,2.7-2.2
		c0.2-0.2,0.3-0.4,0.5-0.7c1.1-1.6,1.8-4.8,2.2-6.8c6.5-0.2,13.7,0.9,21.2,2.3l1,0.3c0,0-1.4,0.5-4.5,2.2s-3.4,8.5-3.4,8.5
		s5.1-2.5,6.7-4.6c1.6-2,3.5-4.4,3.5-4.4s-0.4,1.5-0.1,5s5.7,9.1,5.7,9.1s2.8-5.5,2-8.3c-0.7-2.8-2.7-5.5-2.7-5.5s5.8,4.5,9,4.8
		c2.8,0.3,8.6-1.9,10.1-2.5c0.3,0,0.6,0.1,1,0.1c0.9,0.1,1.8,0.2,2.7,0.2l4,8.7c0,0-1.3-0.7-4.7-1.8s-8.6,3.2-8.6,3.2
		s5.3,2.1,7.9,1.9c2.6-0.2,5.6-0.3,5.6-0.3s-1.4,0.7-3.8,3.3c-2.4,2.6-3,10.3-3,10.3s6-1.6,7.5-4c1.6-2.4,2.3-5.7,2.3-5.7
		s0.5,7.3,2.4,9.9s9,6,9,6s0.4-7.3-1.9-10.3c-2.3-3-6.9-6.4-6.9-6.4s1.4,0.6,4.2-0.2c2.9-0.8,7.5-6,7.5-6s-3.9-0.6-7.2-0.9
		s-6.2,0.6-6.2,0.6s2.1-0.7,3.2-3.5c0.4-1.2,0.8-2.9,1-4.4c9.5-0.2,17.9-1.3,26.3-1.9v0.2l8.7,5.3c0,0-1.5,0.1-4.9,1.1
		s-5.4,7.5-5.4,7.5s5.5-1.2,7.6-2.8s4.4-3.4,4.4-3.4s-0.8,1.3-1.3,4.8s3.3,10.2,3.3,10.2s4-4.7,4-7.6s-1.3-6-1.3-6s4.5,5.8,7.6,6.9
		s10.9,0,10.9,0s-3.7-6.2-7.4-7.4c-3.6-1.2-9.3-1.5-9.3-1.5s1.5-0.3,3.4-2.5c1-1.2,1.8-3.8,2.2-5.9c4.7,2.2,10.7,5.2,13.7,7.1
		c5.3,3.3,16.3,6.7,27,10c2.7,0.8,5.4,1.2,8,1.3l4,2.5c0,0-1.5,0.1-4.9,1.1s-5.4,7.5-5.4,7.5s5.5-1.2,7.6-2.8s4.4-3.4,4.4-3.4
		s-0.8,1.3-1.3,4.8s3.3,10.2,3.3,10.2s4-4.7,4-7.6s-1.3-6-1.3-6s4.5,5.8,7.6,6.9s10.9,0,10.9,0s-3.7-6.2-7.4-7.4
		c-3.6-1.2-9.3-1.5-9.3-1.5s1.5-0.3,3.4-2.5s2.8-9.2,2.8-9.2s-3.6,1.7-6.5,3.3c-0.9,0.5-1.6,1-2.3,1.5c-0.5-0.1-1.1-0.2-1.7-0.3
		c0-0.6,0-1.2-0.2-1.9c-0.7-2.9-3.5-7.5-3.5-7.5s-3.3,5.7-2.9,7.2c0.1,0.3,0.2,0.6,0.4,1c-5.8-1.2-12.5-2.7-16.7-4.2
		c-8.7-3-10.2-3.6-20.2-7.9c-4.8-2.1-4.8-5.1-6.3-6.6c2.8-1.2,5.4-2.5,7.7-3.8l7.8-0.8c0,0-1.1,1-3.2,3.8c-2.1,2.8,0.2,9.2,0.2,9.2
		s3.7-4.3,4.4-6.8s1.5-5.4,1.5-5.4s0.2,1.5,1.9,4.6s8.8,6.2,8.8,6.2s0.4-6.2-1.4-8.4s-4.7-4-4.7-4s7.1,1.9,10.2,0.9
		c3.1-1,8.6-6.6,8.6-6.6s-6.7-2.7-10.3-1.5s-8.3,4.4-8.3,4.4s1-1.1,1.2-4.1c0-0.5,0-1-0.2-1.6c7.2-4.3,15.7-8.6,23.9-9.8
		c2.8-0.4,5.4-0.5,7.9-0.4l3,10.7c0,0-1.1-1-4.1-2.9s-9.1,0.9-9.1,0.9s4.6,3.3,7.1,3.8c2.6,0.5,5.5,1.1,5.5,1.1s-1.5,0.3-4.5,2.2
		c-3,1.9-5.5,9.3-5.5,9.3s6.2-0.1,8.3-2s3.6-5,3.6-5s-1.3,7.2-0.1,10.2s7.2,8.1,7.2,8.1s2.2-6.9,0.7-10.4s-5.1-7.9-5.1-7.9
		s1.2,0.9,4.2,0.9s8.8-4,8.8-4s-3.6-1.5-6.8-2.7c-3.1-1.1-6.2-1-6.2-1s2.2-0.2,3.9-2.6c0.9-1.4,1.8-3.5,2.5-5.2
		c3.6,1.7,7,3.8,10.6,6.2c6.8,4.5,12,14.5,16.3,24c-2.1,2.2-3.3,6.1-3.3,6.1s2.9-0.7,5.3-1.6c1.3,2.9,2.5,5.7,3.7,8.2
		c5.3,11.3,14,21.3,14,21.3l0.6-0.3l2.2,2.4c0,0-1.5-0.3-5-0.2s-7.1,5.8-7.1,5.8s5.7,0.3,8.1-0.7c2.4-1,5.2-2.1,5.2-2.1
		s-1.1,1.1-2.5,4.3c-1.4,3.2,0.5,10.7,0.5,10.7s5.1-3.5,5.8-6.2c0.7-2.8,0.3-6.2,0.3-6.2s2.8,6.7,5.5,8.6s10.5,2.8,10.5,2.8
		S737.6,468,734.4,465.9z M608.5,365.2c0.8-0.8,1.7-1.6,2.5-2.4c0,0.3,0,0.5,0,0.7c0.4,1.4,1.7,3.7,1.7,3.7L608.5,365.2z
		 M579.2,377.7c0,0,0.9,1.2,3.6,3.5c0.4,0.4,0.9,0.6,1.5,0.8c-1.6,1.4-3.2,2.8-4.9,4.1L579.2,377.7z M521.4,357.6l0.1-0.1
		c0.1,0,0.1,0.1,0.1,0.1H521.4z M525.1,354.2c0.3-0.3,0.6-0.6,0.9-0.9c-0.4,1.6-0.4,2.8-0.4,2.8S525.6,355.3,525.1,354.2z
		 M493,366.2c0.5,0.4,1.1,0.7,1.8,0.9c-1.8,1.4-3.5,2.9-5.2,4.5l-0.2-8.9C489.5,362.7,490.4,363.9,493,366.2z M488.4,379.9
		c0.2,0.3,0.3,0.7,0.6,0.9c2.3,2.6,3.5,3.5,3.5,3.5l-8.1-0.1C485.8,382.7,487.2,381.3,488.4,379.9z M416.5,336.3l-3.6,0.7
		c0.2-0.2,0.4-0.4,0.5-0.6c0.3-0.4,0.7-0.8,1-1.2C415.5,335.9,416.5,336.3,416.5,336.3z M338.9,341.8c-0.3,0.8-0.4,2.3-0.4,2.3
		l-2.9-4.4c2.2,0.3,4.3,0.7,6.3,1.2C340.6,341.1,339.1,341.4,338.9,341.8z M275.4,357.9c0,0,0.5,1.5,1.1,2.7c-0.8,0.6-1.6,1.3-2.5,2
		L275.4,357.9z M205,350.2c-0.4,0.2-0.7,0.5-0.9,0.7s-0.3,0.3-0.5,0.5l-1.5-2C202.1,349.5,203.7,350,205,350.2z M198.7,349.5
		l3.7,3.9c-1.4,3-2.4,6.8-2.4,6.8s-0.1-3.4-1.3-6c0-0.1-0.1-0.2-0.1-0.2c0-0.1,0-0.1,0-0.2C198.8,350.8,198.7,349.5,198.7,349.5z
		 M196.3,348.5c0,0-0.5,1.1-1.1,2.4c-0.5-0.3-1.1-0.7-1.5-0.9C195.6,349.1,196.3,348.5,196.3,348.5z M160.7,329.5
		c0,0,1.9,1.9,3.1,2.7c0.6,0.4,2.4,0.2,4.1,0c-0.7,0.7-1.4,1.3-2.1,2c-1.4,1.4-2.6,2.6-3.7,3.8L160.7,329.5z M160.5,348
		c0,0.3,0.1,0.6,0.2,0.8c0.8,1,2.5,2.5,2.5,2.5l-4.9-0.5c0.2-0.2,0.4-0.4,0.5-0.7C159.3,349.4,159.9,348.7,160.5,348z M118.9,333.7
		c0.1,0.3,0.2,0.6,0.3,0.9c-0.4,0.4-3.2,3.7-3,4.6c0.2,1,1,2.7,1,2.7l-4.9-2.6c0.8-1.8,1.6-3.4,2.4-4.9l3.7-4.8
		C118.4,329.5,118.3,330.8,118.9,333.7z M99.4,344.8c0,0,2.5,0.8,4,1c0.5,0,1.2-0.3,2.1-0.9c0,0.1-0.1,0.1-0.1,0.2
		c-1,1.5-1.8,3-2.5,4.4L99.4,344.8z M33.7,388.1c0.5-1,0.6-2.5,0.6-4c2.1,0.1,4.9,0,6.4-1.4c2.5-2.5,3.3-3.7,3.3-3.7l0.4,9
		c-1.1,0.2-2.2,0.4-3.3,0.5c-2.9,0.4-5.7,0.8-8.4,1.2C33.1,389.2,33.4,388.6,33.7,388.1z M46.7,387.6l0.4-6c0,0,1.4,2.2,2.4,3.3
		c0.6,0.7,3.4,0.9,5.4,1C52.2,386.5,49.4,387.1,46.7,387.6z M72.9,375.5c0,0,1,2.4,1.9,3.7c0.3,0.4,1,0.7,2,1
		c-1.7,0.5-3.5,0.9-5.2,1.4L72.9,375.5z M77.9,391.6c1.3,3.3,2.1,4.5,2.1,4.5l-0.6-0.2c-3.8-2.5-7.3-5.2-9.7-7.1
		c2.9-0.6,5.8-1.2,8.6-1.9C77.8,388.5,77.4,390.2,77.9,391.6z M105.9,378.8c0.9-0.2,1.9-0.4,2.9-0.6c0.4,2.1,0.8,3,0.8,3
		L105.9,378.8z M116.3,378.7c-2.9,2-3.8,3.2-3.8,3.2s0.5-2.2,0.9-4.4c4.1-0.6,8.6-1,12.9-1.1c-0.2,0.3-0.5,0.6-0.6,0.8l0,0
		C123.5,377.1,118.5,377.2,116.3,378.7z M194,401c-1.1,0.7-2.7,2.2-2.7,2.2l0.8-4c1,0.6,1.8,1.1,2.5,1.6
		C194.3,400.9,194.1,400.9,194,401z M327.4,442.8c-0.3,0.3-0.5,0.5-0.5,0.5s0.1-0.2,0.3-0.5C327.3,442.7,327.4,442.7,327.4,442.8z
		 M290.4,434h-0.1c0-0.1,0-0.2,0-0.2S290.3,433.8,290.4,434z M287.8,433.3c0,0-0.1,0.1-0.3,0.4c-0.4,0-0.7-0.1-1.1-0.1L287.8,433.3z
		 M217,402.1l1.7-7.4c0,0,1,2.4,1.9,3.7c0.3,0.5,1.5,0.9,2.8,1.2c-2,1-3.9,1.9-5.6,2.6C217.5,402.2,217.3,402.1,217,402.1z
		 M228.8,415.1c0.6,3,1.1,4.4,1.3,4.7c-0.4-0.2-0.7-0.4-1.1-0.6l-1.7-1c-5-3.2-7.7-6.8-9-9.2c4.2,0.5,8.2,0.6,12.4,0.6
		C229.5,411.3,228.5,413.4,228.8,415.1z M388.1,364c2.2,2.5,3.4,3.4,3.4,3.4l-6.1-0.1C386.3,366.2,387.2,365,388.1,364z
		 M337.9,395.6c2.7-1,5.4-5,6.5-6.8c1.5,1.5,4.1,3.7,6.4,3.5c1.8-0.2,3-0.3,3.8-0.5c-2.5,2.1-5.2,4.4-8.2,7
		c-3.4,2.9-7.5,5.3-11.6,7.2c-0.5-2.2-1.4-5-2.6-6.2c-2-2.2-3.5-2.4-3.5-2.4S334.3,396.9,337.9,395.6z M323.8,402.1c0,0,2,2.3,5,3.8
		c1,0.5,2.1,1,3.1,1.4c-3.2,1.3-6.1,2.3-8.5,3.1c0.5-1.2,1-2.5,1.2-3.6C325.2,403.8,323.8,402.1,323.8,402.1z M319.9,403.6
		c0,0-1.2,2.4-1.6,3.8c-0.1,0.2,0,0.6,0.1,1c-1.3-0.7-2.5-1.3-3.8-2L319.9,403.6z M358.2,429.4C358.3,429.4,358.3,429.4,358.2,429.4
		c0,0.1-0.1,0.1-0.1,0.1L358.2,429.4z M397,415.1c-0.1,0.6-0.1,1.3-0.1,2.1c-0.1,1.4,0.7,2.8,1.7,4c-4.4,0.7-8.1,1.3-14.5,2
		C387.5,421.2,392.1,418.3,397,415.1z M462.1,414.9c0.2,0.4,0.4,0.8,0.6,1.1l-1.6-0.8C461.4,415.1,461.8,415,462.1,414.9z
		 M472,413.5c-2.9,1.6-4.8,4-4.8,4s1.1-1.5,0.7-4c1.6-0.3,3.5-0.6,5.9-0.9C473.2,412.9,472.6,413.2,472,413.5z M647.8,434.9
		C647.9,434.9,647.9,434.9,647.8,434.9c-0.1,0.2-0.2,0.3-0.2,0.3S647.7,435.1,647.8,434.9z M594.7,406.6c-0.9,0.4-1.7,0.8-2.6,1.1
		l-1.3-1.9C590.9,405.8,592,406.2,594.7,406.6z M544.2,404.9c0,0,0.9,1.2,3.6,3.5c0.7,0.6,1.7,1,2.8,1.1c-2.4,1.7-4.5,3.2-6.2,4.3
		L544.2,404.9z M536.7,420.7c-0.4,1.4-0.7,4.1-0.7,4.1l-2.9-4.9c1.3,0.1,2.7,0.1,4,0.2C536.9,420.3,536.7,420.5,536.7,420.7z
		 M573.7,398.5c1.1-1.1,2.2-2.1,3.3-3c0.4,0.8,0.8,1.4,1.4,1.9c2.4,2.1,6.7,4.3,6.7,4.3s-1.2-0.3-3.5,0.8c-2.3,1.1-5.3,6.2-5.3,6.2
		s3.3-0.1,6.1-0.3c2.8-0.2,5.1-1.4,5.1-1.4s-1.7,0.9-2.1,3.4c0,0.1,0,0.1,0,0.2c-1.9,0.7-3.7,1.3-5.5,1.8c-0.9-1.9-1.8-3.4-1.8-3.4
		s-1.3,2.3-2.2,4.4c-2.3,0.5-4.7,0.8-7.1,0.9c-4.5,0.3-10,0.7-15.9,1C557.6,411.7,568.4,403.8,573.7,398.5z M573.1,417.9
		c0.9,0,1.9-0.1,2.8-0.1c0.5,1,1,1.9,1,1.9L573.1,417.9z M580.9,421c0,0,1-1.3,0.8-3.6c1.3-0.2,2.5-0.4,3.8-0.6c0,0.2,0,0.3,0,0.3
		C582.7,418.7,580.9,421,580.9,421z M585.9,416.9c0.1-0.1,0.2-0.2,0.4-0.3c0.1,0,0.2,0,0.3-0.1C586.3,416.7,586.1,416.8,585.9,416.9
		z M615.7,403.8c0,0,0-0.1,0-0.4c0,0,0,0,0.1,0C615.7,403.7,615.7,403.8,615.7,403.8z M662.4,392.2c-0.8,1.3-1.7,3.8-1.7,3.8
		l-2.1-7.2c2.4,0.4,4.7,1,7,1.9C664.1,391.1,662.7,391.6,662.4,392.2z M704.5,422c0,0-0.8,1.3-1.3,4.8c0,0.2,0,0.4,0,0.6
		c-0.5-1-1.1-2.1-1.6-3.1C703.1,423.1,704.5,422,704.5,422z M702.7,419.7c0,0-1,0.1-3.2,0.7c-0.7-1.3-1.3-2.6-2-3.9L702.7,419.7z"/>
	<path class="st5" d="M692.9,200l5.2-6.8c0,0,0,1.3,0.5,4.2s5.8,5.2,5.8,5.2s-0.5-4.8-1.7-6.6s-2.5-4-2.5-4s1.1,0.8,3.9,1.5
		c2.9,0.7,8.9-1.9,8.9-1.9s-3.6-3.8-6-4s-5.2,0.6-5.2,0.6s5.2-3.3,6.4-5.8s0.9-9.1,0.9-9.1s-5.6,2.6-6.9,5.5c-1.3,2.9-2,7.7-2,7.7
		s-0.1-1.3-1.8-3.1S691,180,691,180s1.1,3.2,2.2,5.8c1.1,2.6,2.9,4.4,2.9,4.4s-1.4-1.3-3.9-0.9s-6.6,2.2-6.6,2.2s4.5,3.3,5.8,3.1
		s3.3-1.1,3.3-1.1l-4.1,6.7L692.9,200z"/>
	<path class="st5" d="M667.1,197.6l-6.6-8.6c0,0,0,1.6-0.6,5.3s-7.4,6.6-7.4,6.6s0.7-6.1,2.1-8.4c1.5-2.4,3.1-5.1,3.1-5.1
		s-1.3,1-5,1.9c-3.7,1-11.3-2.4-11.3-2.4s4.5-4.8,7.6-5.1s6.6,0.7,6.6,0.7s-6.7-4.2-8.2-7.3s-1.2-11.6-1.2-11.6s7.1,3.3,8.8,7
		s2.6,9.7,2.6,9.7s0.1-1.6,2.3-3.9s9.5-4.1,9.5-4.1s-1.4,4-2.8,7.3s-3.7,5.6-3.7,5.6s1.8-1.7,5-1.2c3.2,0.4,8.4,2.9,8.4,2.9
		s-5.7,4.2-7.3,3.9s-4.2-1.4-4.2-1.4l5.2,8.5L667.1,197.6z"/>
	<path class="st5" d="M730.6,133.7c-3.2-2.1-8.6-3.8-8.6-3.8s1.5,0.1,4-1.5c2.5-1.7,5.1-8.1,5.1-8.1s-3.9,0.7-7.1,1.5
		c-3.2,0.8-5.7,2.6-5.7,2.6s1.8-1.4,1.8-4.4c0.1-3-1.4-8.1-1.4-8.1s-4.7,4.7-4.6,6.2c0,0.6,0.1,1.4,0.3,2.1
		c-2.5-3.8-8-12.1-8.8-13.1c-0.2-0.3-0.9-1.5-1.9-3.3c1.2-1.6,3-4.3,3-6.3c0-2.9-1.3-6-1.3-6s4.5,5.8,7.6,6.9s10.9,0,10.9,0
		s-3.7-6.2-7.4-7.4c-3.6-1.2-9.3-1.5-9.3-1.5s1.5-0.3,3.4-2.5s2.8-9.2,2.8-9.2s-3.6,1.7-6.5,3.3c-2.9,1.6-4.8,4-4.8,4
		s1.4-1.8,0.6-4.7c-0.7-2.9-3.5-7.5-3.5-7.5s-3.3,5.7-2.9,7.2s1.7,3.7,1.7,3.7l-6.5-3.1c-1.5-2.8-2.9-5.4-4-7.5
		c-3.4-6.3-7.6-9.3-12.7-12l7.4-6.8c0,0-0.3,1.5-0.3,5s5.7,7.2,5.7,7.2s0.3-5.7-0.6-8.1c-1-2.4-2.1-5.2-2.1-5.2s1.1,1.1,4.3,2.6
		s10.7-0.4,10.7-0.4s-3.4-5.2-6.2-5.9s-6.2-0.4-6.2-0.4s6.8-2.7,8.7-5.4s2.9-10.4,2.9-10.4s-7,1.9-9.1,5c-2.1,3.2-3.9,8.5-3.9,8.5
		s0.1-1.5-1.5-4s-8.1-5.2-8.1-5.2s0.7,3.9,1.4,7.1c0.7,3.2,2.5,5.7,2.5,5.7s-1.3-1.8-4.4-1.9c-3-0.1-8.1,1.3-8.1,1.3
		s4.6,4.8,6.1,4.7s4.1-0.6,4.1-0.6l-5.4,6.2c-2.8-1.4-5.8-2.9-9-4.8c-4.2-2.4-8-3.6-11.8-3.9l-0.2-9.8c0,0,0.9,1.2,3.6,3.5
		c2.6,2.3,9.2,0.5,9.2,0.5s-4-4-6.5-4.9s-5.2-1.9-5.2-1.9s1.5-0.1,4.8-1.5c3.2-1.4,6.8-8.3,6.8-8.3s-6.1-0.9-8.5,0.7
		s-4.4,4.4-4.4,4.4s2.4-6.9,1.7-10.1s-5.9-9.1-5.9-9.1s-3.3,6.5-2.3,10.2s3.8,8.6,3.8,8.6s-1-1.1-4-1.5c-2.9-0.4-9.3,2.6-9.3,2.6
		s3.4,2.1,6.3,3.7c2.9,1.6,6,1.9,6,1.9s-2.2-0.2-4.3,2s-4.4,6.9-4.4,6.9s6.6-0.3,7.6-1.4c1-1.2,2.2-3.5,2.2-3.5l0.9,6.9
		c-4.9,0-10.1,1.3-16.5,2.9c-7.2,1.8-11,4.1-15.8,6.9c-0.6-1.2-1-2-1-2s-0.9,1.7-1.9,3.7c-1.9,1.1-4.1,2.4-6.7,3.7
		c-2.5-1.5-5.7-2.8-5.7-2.8s0.4,3,1,5.2c-0.3,0.2-0.7,0.3-1,0.5c-2,0.9-3.9,1.8-5.7,2.6c0.8-0.8,1.4-1.4,1.4-1.4s-4.7-0.9-6.8-0.4
		s-4.6,1.1-4.6,1.1s1-0.8,2.6-3.3s0.9-9,0.9-9s-4.7,2.2-5.7,4.5c-0.9,2.2-1,5.1-1,5.1s-1.5-6-3.5-7.9c-0.4-0.4-1-0.8-1.7-1.1
		c3.3-2.4,6.3-4.5,9.3-8.3c4-5.1,9.7-10.8,15.4-16.3l6.8,4.2c0,0-1.5,0.1-4.9,1.1s-5.4,7.5-5.4,7.5s5.5-1.2,7.6-2.8s4.4-3.4,4.4-3.4
		s-0.8,1.3-1.3,4.8s3.3,10.2,3.3,10.2s4-4.7,4-7.6c0-2.9-1.3-6-1.3-6s4.5,5.8,7.6,6.9c3.1,1.1,10.9,0,10.9,0s-3.7-6.2-7.4-7.4
		c-3.6-1.2-9.3-1.5-9.3-1.5s1.5-0.3,3.4-2.5s2.8-9.2,2.8-9.2s-3.6,1.7-6.5,3.3s-4.8,4-4.8,4s1.4-1.8,0.6-4.7
		c-0.4-1.5-1.3-3.6-2.1-5.1c3.4-3.4,7.4-7.5,10.9-11.2c-0.1,0.7-0.2,2.1-0.2,4.4c0,3.5,5.7,7.2,5.7,7.2s0.3-5.7-0.6-8.1
		c-1-2.4-2.1-5.2-2.1-5.2s1.1,1.1,4.3,2.6s10.7-0.4,10.7-0.4s-3.4-5.2-6.2-5.9s-6.2-0.4-6.2-0.4s6.8-2.7,8.7-5.4s2.9-10.4,2.9-10.4
		s-7,1.9-9.1,5c-2.1,3.2-3.9,8.5-3.9,8.5s0.1-1.5-1.5-4s-8.1-5.2-8.1-5.2s0.7,3.9,1.4,7.1s2.5,5.7,2.5,5.7s-1.3-1.8-4.4-1.9
		c-3-0.1-8.1,1.3-8.1,1.3s4.6,4.8,6.1,4.7c0,0,0,0,0.1,0c-0.1,0-0.1,0.1-0.2,0.1c-2,1.2-6.1,5.3-10.7,10.3v-0.1l-5.8-8.3
		c0,0,1.4,0.5,4.9,1s7.9-4.7,7.9-4.7s-5.6-1.1-8.1-0.5s-5.4,1.3-5.4,1.3s1.2-0.9,3.1-3.9s1.1-10.7,1.1-10.7s-5.6,2.7-6.7,5.3
		c-1.1,2.6-1.2,6-1.2,6s-1.8-7.1-4.2-9.3c-2.4-2.3-9.9-4.3-9.9-4.3s0.9,7.2,3.7,9.8c2.8,2.5,7.9,5.1,7.9,5.1s-1.5-0.3-4.1,0.9
		c-2.7,1.3-6.3,7.3-6.3,7.3s4-0.1,7.3-0.4s6-1.7,6-1.7s-2,1.1-2.5,4c-0.5,3,0.2,8.2,0.2,8.2s5.3-3.9,5.5-5.4s-0.1-4.1-0.1-4.1
		L602,27c-5.3,5.7-10.9,12.1-14.8,16.3c-0.9,1-1.9,2-2.9,2.9c-0.9-0.7-1.9-1.3-2.7-1.6c-2.5-0.9-5.2-1.9-5.2-1.9s1.5-0.1,4.8-1.5
		c3.2-1.4,6.8-8.3,6.8-8.3s-6.1-0.9-8.5,0.7c-2.4,1.6-4.4,4.4-4.4,4.4s2.4-6.9,1.7-10.1s-5.9-9.1-5.9-9.1s-3.3,6.5-2.3,10.2
		s3.8,8.6,3.8,8.6s-1-1.1-4-1.5c-2.9-0.4-9.3,2.6-9.3,2.6s3.4,2.1,6.3,3.7c2.9,1.6,6,1.9,6,1.9s-2.2-0.2-4.3,2s-4.4,6.9-4.4,6.9
		s6.6-0.3,7.6-1.4c1-1.2,2.2-3.5,2.2-3.5l0.9,7.5c-0.5,0.4-1.1,0.9-1.6,1.3c-0.3-0.1-0.4-0.1-0.4-0.1s0,0.2,0.1,0.4
		c-4.5,3.6-9,7.2-13.2,11c-2.5,2.2-5.1,4.3-7.6,6.2c-1.3-1.1-2.8-2.2-4-2.6c-2.5-0.9-5.2-1.9-5.2-1.9s1.5-0.1,4.8-1.5
		c3.2-1.4,6.8-8.3,6.8-8.3s-6.1-0.9-8.5,0.7c-2.4,1.6-4.4,4.4-4.4,4.4s2.4-6.9,1.7-10.1c-0.7-3.2-5.9-9.1-5.9-9.1s-3.3,6.5-2.3,10.2
		s3.8,8.6,3.8,8.6s-1-1.1-4-1.5c-2.9-0.4-9.3,2.6-9.3,2.6s3.4,2.1,6.3,3.7c2.9,1.6,6,1.9,6,1.9s-2.2-0.2-4.3,2s-4.4,6.9-4.4,6.9
		s6.6-0.3,7.6-1.4c1-1.2,2.2-3.5,2.2-3.5l0.9,7.5c-0.2,0.1-0.3,0.2-0.5,0.3c-6.2,0.1-12.5-0.1-18.4-0.7c-0.9-0.1-1.8-0.2-2.7-0.3
		c-0.9-0.4-1.7-0.7-2.5-0.7c-1-0.1-2.1,0-3.3,0c-1.8-0.2-3.2-0.5-4.5-0.7c0.4-0.5,0.7-1,1.1-1.8c1.3-2.6,0.5-9.6,0.5-9.6
		s-3.1,2.5-5.5,4.8c-2.4,2.2-3.7,5-3.7,5l0,0c0,0,0.9-2.1-0.5-4.7c-1.4-2.7-5.2-6.4-5.2-6.4s-1.8,6.4-1.1,7.6
		c0.5,0.8,1.2,1.7,1.8,2.4c-0.4-0.1-0.8-0.2-1.2-0.3c-8.7-1.9-20.8-3.6-31.2-2.6c-0.3-0.6-0.6-1.1-0.8-1.5
		c4.4-4.6,11.5-12.7,17.7-19.6l7.3,0.9c0,0-2.3,1.3-3.5,2.2S481,65,481,65s4.8-2.4,6.9-4.5c2.2-2.1,2-4.3,2-4.3s0.3,3.1,2,6
		c1.6,2.9,3.7,6.3,3.7,6.3s3-6.3,2.5-9.3s-1.5-4-1.5-4s4.9,2.8,8.6,3.7s10.2-2.3,10.2-2.3s-5.9-5.1-9.1-5.9
		c-3.2-0.7-10.1,1.7-10.1,1.7s2.8-2,4.3-4.4s0.7-8.5,0.7-8.5s-6.8,3.6-8.3,6.9c-1.4,3.2-1.5,4.8-1.5,4.8s-1-2.8-1.9-5.2
		c-0.2-0.7-0.7-1.4-1.3-2.2c0.2-0.2,0.4-0.4,0.6-0.6c6.3-6.3,16.7-10.5,23.6-14.3l8.4-0.8c0,0-1.1,1-3.2,3.8
		c-2.1,2.8,0.2,9.2,0.2,9.2s3.7-4.3,4.4-6.8s1.5-5.4,1.5-5.4s0.2,1.5,1.9,4.6s8.8,6.2,8.8,6.2s0.4-6.2-1.4-8.4s-4.7-4-4.7-4
		s7.1,1.9,10.2,0.9c3.1-1,8.6-6.6,8.6-6.6s-6.7-2.7-10.3-1.5s-8.3,4.4-8.3,4.4s1-1.1,1.2-4.1c0.1-1.4-0.6-3.5-1.4-5.3
		c2.3-2.1,4.6-4,6.9-5.2c2.4-1.2,5.7-3.7,8.9-6.5h0.2l7.5-6.9c0,0-0.3,1.5-0.3,5s5.7,7.2,5.7,7.2s0.3-5.7-0.6-8.1
		c-1-2.4-2.1-5.2-2.1-5.2s1.1,1.1,4.3,2.6s10.7-0.4,10.7-0.4s-3.4-5.2-6.2-5.9s-6.2-0.4-6.2-0.4s6.8-2.7,8.7-5.4s2.9-10.4,2.9-10.4
		s-7,1.9-9.1,5c-2.1,3.2-3.9,8.5-3.9,8.5s0.1-1.5-1.5-4s-8.1-5.2-8.1-5.2s0.7,3.9,1.4,7.1s2.5,5.7,2.5,5.7s-1.3-1.8-4.4-1.9
		c-3-0.1-8.1,1.3-8.1,1.3s4.6,4.8,6.1,4.7s4.1-0.6,4.1-0.6l-1.6,1.8c-4.1,2.3-8.8,4.9-12.5,6.7C525.8,8.3,522,16.3,518.3,19
		c-2.5-1.6-6.2-3.1-6.2-3.1s0.4,3.6,1.2,5.8c-4.6,2.4-10.9,6-16.5,9.1c-0.5,0.3-1,0.6-1.5,0.9c-1.2-0.9-2.5-1.9-3.5-2.2
		c-2.5-0.9-5.2-1.9-5.2-1.9s1.5-0.1,4.8-1.5c3.2-1.4,6.8-8.3,6.8-8.3s-6.1-0.9-8.5,0.7s-4.4,4.4-4.4,4.4s2.4-6.9,1.7-10.1
		c-0.7-3.2-5.9-9.1-5.9-9.1s-3.3,6.5-2.3,10.2s3.8,8.6,3.8,8.6s-1-1.1-4-1.5c-2.9-0.4-9.3,2.6-9.3,2.6s3.4,2.1,6.3,3.7s6,1.9,6,1.9
		s-2.2-0.2-4.3,2c-2.1,2.2-4.4,6.9-4.4,6.9s6.6-0.3,7.6-1.4c1-1.2,2.2-3.5,2.2-3.5l1,8.1c-3.4,3.4-6.7,7-9.2,10.3
		c-0.5,0.6-1,1.3-1.7,2.1l-4.2-6c0,0,1.2,0.4,4.2,0.8s6.7-4,6.7-4s-4.7-0.9-6.8-0.4c-2.1,0.5-4.6,1.1-4.6,1.1s1-0.8,2.6-3.3
		s0.9-9,0.9-9s-4.7,2.2-5.7,4.5c-0.9,2.2-1,5.1-1,5.1s-1.5-6-3.5-7.9s-8.4-3.7-8.4-3.7s0.8,6.1,3.2,8.2c2.4,2.1,6.7,4.3,6.7,4.3
		s-1.2-0.3-3.5,0.8s-5.3,6.2-5.3,6.2s3.3-0.1,6.1-0.3c2.8-0.2,5.1-1.4,5.1-1.4s-1.7,0.9-2.1,3.4s0.1,7,0.1,7s4.5-3.3,4.7-4.6
		c0.1-1.3-0.1-3.5-0.1-3.5l3.7,4.2c-7.5,8.7-21.7,23.1-21.7,23.1l-2.7,0.3l2.3-0.2c-1.8,0.8-3.6,1.5-5.5,2.1c2-2.3,3.6-4.7,3.6-4.7
		s-7.1-1.5-10.4,0.4s-7.3,5.9-7.3,5.9s0.8-1.3,0.5-4.2c-0.3-2.9-4.9-8.3-4.9-8.3s-1.2,3.8-2,7s-0.3,6.3-0.3,6.3s-0.4-2.2-3-3.6
		s-7.9-2.5-7.9-2.5s2,6.3,3.3,7c1.4,0.6,3.9,1.2,3.9,1.2l-1.9,0.8c-2.9,0.4-6,0.8-9.1,1.2c-4.1,0.6-7.3,1.1-10,1.5
		c0-1.5-0.1-3-0.4-4c-0.5-1.4-1-2.9-1.3-3.9c0.2-0.1,0.4-0.3,0.7-0.4c0.7,0.5,1.6,1.1,3,1.8c3.1,1.6,10.7,0.1,10.7,0.1
		s-3.1-5.3-5.9-6.2c-0.4-0.1-0.8-0.2-1.2-0.3c2.6-1.8,5.1-3.6,7.4-5.2c7.2-5.1,14.5-14.7,19.7-22.3l5.1-4.7c0,0-0.3,1.5-0.3,5
		s5.7,7.2,5.7,7.2s0.3-5.7-0.6-8.1c-1-2.4-2.1-5.2-2.1-5.2s1.1,1.1,4.3,2.6c3.2,1.5,10.7-0.4,10.7-0.4s-3.4-5.2-6.2-5.9
		c-2.8-0.7-6.2-0.4-6.2-0.4s6.8-2.7,8.7-5.4s2.9-10.4,2.9-10.4s-7,1.9-9.1,5c-2.1,3.2-3.9,8.5-3.9,8.5s0.1-1.5-1.5-4
		s-8.1-5.2-8.1-5.2s0.7,3.9,1.4,7.1c0.7,3.2,2.5,5.7,2.5,5.7s-1.3-1.8-4.4-1.9c-3-0.1-8.1,1.3-8.1,1.3s4.6,4.8,6.1,4.7
		s4.1-0.6,4.1-0.6l-5.5,6.3c-2.2,2.4-4.5,4.8-6.5,6.9c-2.5,2.6-4.6,4.7-5.8,5.8c-1.2,1.1-2.6,2.3-4.3,3.5c0.9-2.8,1.4-5.6,1.4-5.6
		s-7.1,1.5-9.4,4.6c-2.3,3-4.4,8.3-4.4,8.3s0.2-1.5-1.3-4s-7.8-5.6-7.8-5.6s0.5,3.9,1,7.2s2.2,5.9,2.2,5.9s-1.3-1.9-4.3-2.1
		s-8.2,0.9-8.2,0.9s4.4,5,5.9,5s4.1-0.4,4.1-0.4l-1.7,1.7c-0.3,0.2-0.7,0.5-1,0.7c-8.4,6-15.7,9.1-20.8,10.7c-0.3,0-0.6,0-0.9,0
		c0.3-1.5,0.4-2.6,0.4-2.6s-2.6,1.3-5.2,2.6c-2.1-0.1-3.9-0.3-5.6-0.6c-0.9-2.9-3.3-6.9-3.3-6.9s-1.9,3.2-2.6,5.4
		c-3.2-1-6.5-2.3-10.6-3.6c-4.2-1.3-8.3-3.1-12.5-5.1c3.2-1.3,8.1-3.4,13.7-6.5c5.5-3.1,9.3-5.9,12.9-9c0,0.4,0,0.8,0,1.2
		c0.1,1.5,5.3,5.6,5.3,5.6s0.9-5.3,0.5-8.2c-0.2-1.2-0.6-2.1-1-2.8c0.2-0.2,0.4-0.3,0.6-0.5c1.1,0.4,2.5,0.9,4.1,1.1
		c3.3,0.4,7.2,0.7,7.2,0.7s-2.8-5.1-5.2-7c5.3-5.1,10.9-12.3,15.9-18.7l5.2,0.6c0,0-2.3,1.3-3.5,2.2S380,48,380,48s4.8-2.4,6.9-4.5
		c2.2-2.1,2-4.3,2-4.3s0.3,3.1,2,6c1.6,2.9,3.7,6.3,3.7,6.3s3-6.3,2.5-9.3s-1.5-4-1.5-4s4.9,2.8,8.6,3.7s10.2-2.3,10.2-2.3
		s-5.9-5.1-9.1-5.9c-3.2-0.7-10.1,1.7-10.1,1.7s2.8-2,4.3-4.4s0.7-8.5,0.7-8.5s-6.8,3.6-8.3,6.9c-1.4,3.2-1.5,4.8-1.5,4.8
		s-1-2.8-1.9-5.2c-0.2-0.4-0.4-0.9-0.7-1.4c5.6-6.4,13.5-14.4,18.6-19.9l9.1-0.9c0,0-1.1,1-3.2,3.8s0.2,9.2,0.2,9.2s3.7-4.3,4.4-6.8
		c0.7-2.5,1.5-5.4,1.5-5.4s0.2,1.5,1.9,4.6c1.7,3.1,8.8,6.2,8.8,6.2s0.4-6.2-1.4-8.4S423,6,423,6s7.1,1.9,10.2,0.9s8.6-6.6,8.6-6.6
		s-6.7-2.7-10.3-1.5c-3.6,1.2-8.3,4.4-8.3,4.4s1-1.1,1.2-4.1s-3.3-9-3.3-9s-1.8,3.5-3.2,6.5c-1.4,3-1.5,6.1-1.5,6.1s0-2.2-2.3-4.1
		c3-3.8,5.3-7,5.3-7l-8.1,5.2c-2.2-1.2-4.5-2.1-4.5-2.1s0.4,3.3,1.1,5.5c-3.6,3.7-9.1,9.3-10.5,10.4c-0.5,0.4-1.1,1-1.9,1.9
		l-4.2-8.4c0,0,1.3,0.7,4.7,1.6c3.4,0.9,8.5-3.5,8.5-3.5s-5.3-1.9-7.9-1.6S391,1.1,391,1.1s1.4-0.7,3.6-3.4s2.6-10.4,2.6-10.4
		s-5.9,1.8-7.4,4.3s-2.1,5.8-2.1,5.8s-0.8-7.3-2.8-9.8c-2-2.6-9.2-5.7-9.2-5.7s-0.1,7.3,2.3,10.2s7.1,6.1,7.1,6.1s-1.4-0.5-4.2,0.3
		c-2.8,0.9-7.3,6.3-7.3,6.3s3.9,0.4,7.3,0.6s6.2-0.8,6.2-0.8s-2.1,0.8-3,3.7s-1,8.2-1,8.2s5.8-3.1,6.2-4.6s0.5-4.1,0.5-4.1l4.1,6.4
		c-2.3,2.5-5.4,5.9-9.1,9.7c-0.7-0.8-1.3-1.4-1.3-1.4s-0.4,1.5-0.6,3.3c-0.3,0.3-0.5,0.5-0.8,0.8c-6.1,6.1-7.8,9.1-11.8,13.9
		c-2,0.5-7.3,2-9.3,3.7c-2.5,2.2-4.6,9.2-4.6,9.2s0-3.4-1-6.1c-1-2.7-6.5-5.6-6.5-5.6s-1.1,7.7,0.6,10.7s3,4,3,4s-2.9-0.8-5.4-1.5
		s-8.1,0.2-8.1,0.2s0.1,0.2,0.4,0.5c-2.4-0.2-7.1-0.3-9.4,0.6c-3,1.2-7.3,7.2-7.3,7.2s1.1-3.2,1.1-6.1c-0.1-2.9-4.3-7.4-4.3-7.4
		s-3.5,6.9-2.9,10.4s1.5,4.8,1.5,4.8s-2.4-1.7-4.6-3.2s-7.7-2.5-7.7-2.5s2.3,6.4,5.7,7.2c3.4,0.8,4.9,0.9,4.9,0.9l-8.3,5.6
		c-1.9-0.9-3.8-1.9-5.8-2.7c-2.8-1.2-5.4-2-8-2.5c-1.5-0.7-3-1.4-4.1-1.5c-1.4-0.2-3.5,0.4-5.3,1c-1,0.1-1.9,0.1-2.9,0.2
		c0.8-0.9,1.6-2,2.2-3.2c1.3-2.6-0.3-8.5-0.3-8.5s-6.4,4.4-7.4,7.8c-0.9,2.9-1,4.4-0.9,4.8c0,0,0,0-0.1,0c-0.3-0.5-1.4-2.8-2.5-4.9
		c-1.2-2.3-5.6-5.8-5.6-5.8s-1,6.7,1.6,9.1c1.1,1,2,1.7,2.6,2.2c-3.1,0.5-6.5,0.9-10.2,1.3c-14.5,1.6-23.4,2.3-37.8,0.9
		c6.5-4.1,18.5-11.7,28.5-18.3c0.6,2.1,3.1,6,3.1,6s2.5-4.7,3.1-7.6c0.2-1,0.2-1.8,0-2.5c0.3-0.2,0.6-0.4,0.8-0.6
		c0.9,0.7,2,1.5,3.3,2.1c3,1.4,6.6,3,6.6,3s-1.2-6.9-3.2-9.1c-0.1-0.2-0.3-0.3-0.4-0.4c1.7-1.2,3.2-2.3,4.7-3.4
		c0.5-0.1,1-0.3,1.4-0.5c1.8-0.7,3.6-2.6,4.9-4.4c1-0.8,2-1.7,3-2.5l4.3,6.6c0,0-2.4-1-3.9-1.2c-1.5-0.3-6.7,3.8-6.7,3.8
		s4.9,2.1,7.9,2.5c3,0.3,4.6-1.2,4.6-1.2s-2.1,2.2-3.3,5.3s-2.4,6.9-2.4,6.9s6.8-1.8,8.7-4c2-2.2,2-3.7,2-3.7s1,5.6,2.7,9
		c1.6,3.4,8.3,6.3,8.3,6.3s0.1-7.8-1.4-10.8c-1.5-2.9-7.8-6.6-7.8-6.6s3.3,0.9,6.1,0.5c2.9-0.3,7-4.9,7-4.9s-7.2-2.9-10.6-1.9
		s-4.6,1.9-4.6,1.9s1.5-2.6,2.8-4.9c1.3-2.3,1.8-7.9,1.8-7.9s-6.2,2.8-6.7,6.3s-0.4,5-0.4,5l-6.4-7.9h-0.6c2.8-2.6,5.7-5.3,9.2-8.9
		c3-3,5.9-5.3,8.8-7.2c-0.4,0.8-0.8,1.9-1.1,2.8c-0.4,1.5,3.2,7,3.2,7s2.5-4.7,3.1-7.6c0.5-2.6-0.5-4.3-0.8-4.6l0,0
		c0.3,0.3,2.2,2.4,4.9,3.7c3,1.4,6.6,3,6.6,3s-1.2-6.9-3.2-9.1c-0.2-0.2-0.4-0.4-0.6-0.6c2.9-0.9,6.1-1.7,9.6-2.5
		c3.2-0.8,6.4-0.9,9.3-0.7l3.5,6.4c0,0-1.1-0.8-3.7-2.2c-2.7-1.4-6.7-0.1-6.7-0.1s4.2,2.5,6.3,3c2,0.5,4.4,1.1,4.4,1.1
		s-1.1,0.1-2.9,1.1s-2,5.5-2,5.5s4.6,0.4,5.8-0.7s1.6-2.9,1.6-2.9s0.6,4.5,2.2,6.5s7.3,5.7,7.3,5.7s0.1-4.3-1.8-6.6
		s-5.6-5.4-5.6-5.4s1.1,0.7,3.3,0.9s5.7-1.9,5.7-1.9s-3.1-1.3-5.7-2.2s-4.9-1.1-4.9-1.1s1.6,0.1,2.4-1.4c0.5-1,0.7-2.8,0.8-3.8
		c4.6,1.3,8.6,2.9,11.8,3.3c7,1,15.2,1.7,10.8-0.7c-3.3-1.8-12.4-5.1-23.5-7.2l1.3-5.7c0,0,1,2.4,1.9,3.7C343,4,349.5,5,349.5,5
		s-1.9-5-3.7-7.3c-1.8-2.4-4.1-2.4-4.1-2.4s3.1,0,6.1-1.3s6.6-3.1,6.6-3.1s-6-3.6-9-3.5s-4.1,1.1-4.1,1.1s3.3-4.6,4.6-8.2
		s-1.3-10.4-1.3-10.4s-5.7,5.4-6.7,8.5s0.7,10.2,0.7,10.2s-1.7-3-3.9-4.8c-2.2-1.8-8.4-1.5-8.4-1.5s2.9,7.2,6,8.9s4.6,2,4.6,2
		s-2.9,0.7-5.4,1.4s-6.9,4.2-6.9,4.2s6.3,2.4,9.2,0.4c2.9-2,3.9-3.2,3.9-3.2l-1,8.3c-2.8-0.5-5.6-0.8-8.5-1.1
		c-2.4-0.2-4.5-0.3-6.4-0.3c1.5-1.9,2.5-3.8,2.5-3.8s-7.8-0.8-10.8,0.4c-2.6,1.1-6.1,5.6-7,6.9c-0.1,0-0.1,0-0.2,0.1
		c0.3-0.8,1-3.4,1-5.8c-0.1-2.9-4.3-7.4-4.3-7.4s-3.5,6.9-2.9,10.4s1.5,4.8,1.5,4.8s-2.4-1.7-4.6-3.2c-2.1-1.5-7.7-2.5-7.7-2.5
		s2.3,6.4,5.7,7.2c1.1,0.3,2,0.5,2.7,0.6c-8.2,4.1-14.2,10.8-19.2,13.6c-0.4,0.2-0.7,0.4-1.1,0.7c-0.1-0.1-0.2-0.3-0.3-0.4
		c-1.7-2.5-3.9-2.6-3.9-2.6s3.1,0.2,6.2-1c3.1-1.1,6.8-2.7,6.8-2.7s-5.8-3.9-8.8-4c-3,0-4.2,0.9-4.2,0.9s3.5-4.4,5-7.9
		s-0.7-10.4-0.7-10.4s-6,5.1-7.2,8.1c-1.2,3.1,0.1,10.2,0.1,10.2s-1.5-3-3.6-5c-2.1-1.9-8.3-2-8.3-2s2.5,7.3,5.5,9.3
		s4.5,2.2,4.5,2.2s-2.9,0.6-5.5,1.1s-7.1,3.8-7.1,3.8s6.2,2.8,9.1,0.9c3-1.9,4.1-2.9,4.1-2.9l-1.8,10l0.1,0.2
		c-1.9,1.6-4,3.2-6.2,4.9c0.2-1.1,0.4-2.4,0.4-3.7c-0.1-2.9-4.3-7.4-4.3-7.4s-3.5,6.9-2.9,10.4c0.5,2.7,1.2,4.1,1.4,4.6
		c0,0-0.1,0-0.1,0.1c-0.6-0.4-2.6-1.8-4.4-3.1c-2.1-1.5-7.7-2.5-7.7-2.5s2.3,6.4,5.7,7.2c1.4,0.3,2.4,0.5,3.2,0.7
		c-5.3,3.9-10.3,7.8-18.2,13.6c-0.6,0.5-5.2,4.4-5.8,4.8c-1.9,1.2-3.8,2.3-5.6,3.3c-0.7-1.5-1.7-3.4-2.6-4.6
		c-1.8-2.4-4.1-2.4-4.1-2.4s3.1,0,6.1-1.3s6.6-3.1,6.6-3.1s-6-3.6-9-3.5s-4.1,1.1-4.1,1.1s3.3-4.6,4.6-8.2s-1.3-10.4-1.3-10.4
		s-5.7,5.4-6.7,8.5s0.7,10.2,0.7,10.2s-1.7-3-3.9-4.8s-8.4-1.5-8.4-1.5s2.9,7.2,6,8.9s4.6,2,4.6,2s-2.9,0.7-5.4,1.4
		s-6.9,4.2-6.9,4.2s6.3,2.4,9.2,0.4c2.9-2,3.9-3.2,3.9-3.2L211,69.6l0,0c-0.1,0-0.1,0-0.2,0c-23-3.3-10.7-5.7-29-13.3
		c-0.7-0.3-1.4-0.6-2-0.8c-0.8-1-1.7-2-2.5-2.5c-1-0.6-2.5-1-4.1-1.3c5.5-1.3,12.6-3.4,16.6-6.4c1-0.7,2-1.6,3-2.6
		c0.8,1.7,5.5,5,5.5,5s0.6-5.3,0-8.2c-0.2-0.8-0.4-1.5-0.7-2c0.3-0.3,0.5-0.7,0.8-1c1,0.3,2.2,0.5,3.4,0.6c3.3,0.2,7.3,0.3,7.3,0.3
		s-3.4-5.5-6.1-7c3.5-4.9,6.7-9.6,8.8-12.6c2.5-3.5,6.4-9.7,9.5-14.7l4.9-5c0,0-0.4,2.6-0.3,4.1c0.1,1.5,5.2,5.7,5.2,5.7
		s1-5.2,0.7-8.2s-2.2-4.2-2.2-4.2s2.6,1.6,5.9,2.1c3.3,0.5,7.2,0.8,7.2,0.8s-3.2-6.2-5.8-7.7c-2.6-1.4-4.1-1.2-4.1-1.2
		s5.2-2.2,8.2-4.6s4.4-9.5,4.4-9.5s-7.7,1.6-10.2,3.7s-4.8,9.1-4.8,9.1s0.1-3.4-0.8-6.1s-6.3-5.7-6.3-5.7s-1.3,7.6,0.4,10.7
		s2.9,4.1,2.9,4.1s-2.8-0.9-5.3-1.7s-8.1,0-8.1,0s4.1,5.4,7.6,5.2c3.5-0.2,5-0.6,5-0.6l-6.3,8l0.1,0.5c-3.2,3.5-7.2,8-11,12.4
		c-0.9,0.3-1.9,0.7-3.1,1.1c1-0.8,1.8-1.6,1.8-1.6S203,13,200.4,13c-2.6-0.1-3.8,1.4-3.8,1.4s1.7-2,2.5-4.8s1.6-6.1,1.6-6.1
		s-5.7,2-7.2,4.1c-1.5,2-1.5,3.3-1.5,3.3s-1.3-4.7-2.9-7.5c-1.6-2.8-7.6-4.8-7.6-4.8s0.5,6.7,2,9.1s7.1,5.1,7.1,5.1s-2.9-0.5-5.3,0
		s-5.6,4.7-5.6,4.7s5.5,1.7,8.5,1.1c-0.1,2.4-0.1,7,1.3,9.1c1.9,3,3.2,3.9,3.2,3.9s-2.9-0.7-5.5-1.2c-2.5-0.6-8.1,0.6-8.1,0.6
		s4.5,5.1,8,4.6c1.9-0.3,3.2-0.6,4-0.8c-2.5,2.2-4.9,4-8.4,7c-2.1,1.8-4.9,3.2-7.8,4.3c1.1-2.3,1.7-5.2,1.7-5.2s-7.7,1.1-10.1,3.6
		s-3,4-3,4s0-3,0-5.6s-2.4-7.7-2.4-7.7s-3.9,5.5-2.7,8.8c0.7,1.7,1.2,2.8,1.6,3.6c-6.7-2.5-13.2-4.7-21.5-7
		c-0.9-0.3-1.8-0.5-2.6-0.7c-0.4-0.4-0.7-0.5-0.7-0.5s5.5,1.3,9.3,1.3c3.8-0.1,9.2-5,9.2-5s-7.1-3.3-10.4-3.1
		c-0.5,0-1.2,0.2-1.8,0.4c2.9-2.9,7.7-7.5,11.7-12.2L161,22c0,0-1.2,0.5-3.6,2.3c-2.4,1.8-2.1,7.5-2.1,7.5s4-2.6,5.2-4.4
		c1.2-1.9,2.6-4,2.6-4s-0.2,1.3,0.4,4.2c0.6,2.9,5.6,7.2,5.6,7.2s1.9-4.9,1-7.1c-0.9-2.3-2.8-4.4-2.8-4.4s5.2,3.3,8,3.3
		s8.6-3.1,8.6-3.1s-4.8-3.9-8-3.8s-7.8,1.5-7.8,1.5s1.1-0.6,2-3c0.9-2.3-0.4-8.1-0.4-8.1s-2.4,2.4-4.2,4.5c-1.9,2.1-2.7,4.6-2.7,4.6
		s0.6-1.8-0.8-3.9c-0.6-0.8-1.4-1.8-2.3-2.6c4.7-5,9.9-9.5,16.5-17.1c4.7-5.4,9.2-10.6,12.4-14.3c0.1,0.7,0.2,1.7,0.4,3
		c0.5,2.9,5.8,5.2,5.8,5.2s-0.5-4.8-1.7-6.6c-1.1-1.8-2.3-3.8-2.4-4l0,0c0.2,0.1,1.3,0.8,3.9,1.5c2.9,0.7,8.9-1.9,8.9-1.9
		s-3.6-3.8-6-4s-5.2,0.6-5.2,0.6s5.2-3.3,6.4-5.8s0.9-9.1,0.9-9.1s-5.6,2.6-6.9,5.5c-1.3,2.9-2,7.7-2,7.7s-0.1-1.3-1.8-3.1
		c-1.7-1.8-7.5-3.2-7.5-3.2s1.1,3.2,2.2,5.8c1.1,2.6,2.9,4.4,2.9,4.4s-1.4-1.3-3.9-0.9s-6.6,2.2-6.6,2.2s4.5,3.3,5.8,3.1
		s3.3-1.1,3.3-1.1l-2.1,3.5c-3.1,2.5-5.9,4.6-6.5,5c-1,0.8-5.5,4.8-10.3,9.3c-1.3-1.3-3.3-3.1-4.9-4c-2.6-1.5-4.7-0.7-4.7-0.7
		s2.8-1.2,5.2-3.6c2.3-2.4,4.9-5.4,4.9-5.4s-6.9-1.1-9.6,0.2c-2.7,1.3-3.4,2.6-3.4,2.6s1.3-5.5,1.1-9.3s-5.1-9.1-5.1-9.1
		s-3.2,7.1-3,10.4s4.5,9.2,4.5,9.2s-2.7-2.1-5.4-2.9c-2.8-0.8-8.4,1.8-8.4,1.8s5.4,5.5,8.9,6s5,0.1,5,0.1s-2.4,1.8-4.5,3.3
		c-1.9,1-4.6,6-4.6,6s6.8-0.1,8.7-3.1s2.4-4.4,2.4-4.4l2.7,9.8l1.8,0.9c-3.2,3.7-5.5,7.2-10.6,13.1c-2.5,2.9-6.4,6.4-10.3,9.7
		c-0.3-2.8-1.8-6.2-1.8-6.2s-5.6,5.4-6.1,8.9c-0.3,1.9-0.3,3.2-0.3,4c-0.1,0.1-0.3,0.2-0.4,0.3c-0.6-0.9-1.8-2.4-2.8-3.8
		c-1.5-2.1-6.5-4.9-6.5-4.9s0,6.8,3,8.7c1.5,1,2.6,1.6,3.3,1.9c-4.5-0.1-8.4,0.9-15.6,2.3c-0.2-2.1-0.7-4.1-0.7-4.1
		s-2.5,2.3-3.8,4.9c-1.7,0.3-3.5,0.6-5.4,0.9c-3.5,0.5-7,1.2-10.5,1.9c2-3.8,4.8-8.8,6.8-12.3s7.2-14.1,11.5-23.1l5.8,3.9
		c0,0-1.2,0-4,0.4s-5,4.7-5,4.7s4.5-0.4,6.3-1.3s3.9-2,3.9-2s-0.7,0.9-1.5,3.2s1.5,7.2,1.5,7.2s3.7-2.9,4-4.8c0.3-2-0.4-4.2-0.4-4.2
		s2.9,4.3,5.3,5.3c2.3,1,8.6,0.8,8.6,0.8s-2.3-4.6-5-5.6c-2.7-1.1-7.2-1.7-7.2-1.7s1.2-0.1,3-1.5s3.2-6.1,3.2-6.1s-3,0.9-5.5,1.7
		s-4.3,2.3-4.3,2.3s1.3-1.1,1-3.2c-0.2-1.5-1.2-3.7-1.7-4.8c1.6,2.2,5.1,3.7,5.1,3.7s-0.5-4.8-1.7-6.6c-1.1-1.9-2.5-4-2.5-4
		s1.1,0.8,3.9,1.5c2.9,0.7,8.9-1.9,8.9-1.9s-3.6-3.8-6-4S118.1-8,118.1-8s5.2-3.3,6.4-5.8c1.2-2.5,0.9-9.1,0.9-9.1s-5.6,2.6-6.9,5.5
		s-2,7.7-2,7.7s-0.1-1.3-1.8-3.1c-1.7-1.8-7.5-3.2-7.5-3.2s1.1,3.2,2.2,5.8s2.9,4.4,2.9,4.4s-1.4-1.3-3.9-0.9
		c-2.5,0.4-6.6,2.2-6.6,2.2s4.5,3.3,5.8,3.1s3.3-1.1,3.3-1.1l-1.3,2.1c-1.5,1.9-3.2,4.2-4.6,6.9c-0.3,0.6-0.7,1.4-1.2,2.1
		c-1.7-0.5-4.2-1.2-6-1.3c-3-0.1-4.5,1.5-4.5,1.5s2-2.3,3-5.5s2-7,2-7S91.8-1.3,90,1s-1.8,3.8-1.8,3.8S86.9-0.7,85-4
		s-8.7-5.8-8.7-5.8S76.7-2,78.4,0.9C80,3.7,86.6,7,86.6,7s-3.3-0.6-6.2-0.1c-2.8,0.5-6.6,5.4-6.6,5.4s7.3,2.5,10.7,1.3
		c3.3-1.2,4.5-2.2,4.5-2.2s-1.3,2.7-2.5,5s-1.3,8-1.3,8s6-3.2,6.3-6.7s0.1-5,0.1-5l6.5,7C96,24.8,95,29.6,90.3,35
		c-3.6,4.2-6.2,8-7.7,10.5c-1.7,0.4-3.4,0.9-5.1,1.3c-0.7-1.6-1.8-3.7-2.8-5c-1.8-2.4-4.1-2.4-4.1-2.4s3.1,0,6.1-1.3
		s6.6-3.1,6.6-3.1s-6-3.6-9-3.5s-4.1,1.1-4.1,1.1s3.3-4.6,4.6-8.2S73.5,14,73.5,14s-5.7,5.4-6.7,8.5s0.7,10.2,0.7,10.2
		s-1.7-3-3.9-4.8c-2.2-1.8-8.4-1.5-8.4-1.5s2.9,7.2,6,8.9s4.6,2,4.6,2s-2.9,0.7-5.4,1.4s-6.9,4.2-6.9,4.2s6.3,2.4,9.2,0.4
		c2.9-2,3.9-3.2,3.9-3.2L65.3,50c-4.1,1.1-8.2,2.2-12.3,3.2c-0.7-1.2-2.8-4.5-4.5-6.2c-2.2-2.1-4.4-1.7-4.4-1.7s3-0.5,5.8-2.3
		s6-4.1,6-4.1s-6.5-2.6-9.4-2s-3.9,1.8-3.9,1.8s2.5-5.1,3.3-8.8c0.7-3.7-2.9-10-2.9-10s-4.8,6.2-5.3,9.5c-0.5,3.2,2.3,10,2.3,10
		s-2.1-2.7-4.6-4.1c-2.5-1.4-8.5-0.2-8.5-0.2s4,6.6,7.3,7.9s4.8,1.2,4.8,1.2s-2.7,1.2-5.1,2.2c-1.1,0.5-2.5,1.6-3.7,2.8
		c-0.2-1-0.3-1.7-0.3-1.7s-6.5,4.2-7.7,7.5c-0.6,1.9-0.9,3.1-1,3.9c-0.2,0-0.3,0.1-0.5,0.1c-0.5-1-1.2-2.7-2-4.2
		c-1.1-2.4-5.4-6-5.4-6s-1.3,6.7,1.3,9.1c0.8,0.8,1.5,1.4,2,1.9C6.9,61.4,0.2,63,0.2,63l-1,6.3l10.7-4c0,0,2-0.5,5.1-1.2h0.8
		c0,0-2.2,1.4-3.3,2.5s-0.8,7.7-0.8,7.7s4.5-2.8,6.5-5s1.6-4.5,1.6-4.5s0.6,3,2.4,5.8s4.2,5.9,4.2,5.9s2.5-6.6,1.8-9.5
		s-1.9-3.8-1.9-3.8s5.1,2.4,8.9,3c3.8,0.6,10-3.2,10-3.2s-2.7-2-5.5-3.5c2.9-0.4,5.7-0.6,8.3-0.7c2.8-0.1,5.9-0.4,9.1-0.9
		c3,2.4,7.1,5.7,11.1,8.7c-1.4,1-3.8,6.5-3.8,6.5s5.3-0.6,8.1-1.8c0.5-0.2,0.8-0.4,1.2-0.7c0.6,0.4,1.2,0.9,1.8,1.2
		c0,0.7,0.1,1.5,0.2,2.3c0.5,3.3,1.3,7.2,1.3,7.2s3.7-3.6,5.1-6.5c2.4,0.7,5.3,1.2,8.5,1.5c3.5,1.3,9.1,0.7,9.1,0.7s0,0-0.1-0.1
		c1.9,0,3.9,0,5.8,0l3.1,5.6c0,0-1.1-0.8-3.7-2.2c-2.7-1.4-6.7-0.1-6.7-0.1s4.2,2.5,6.3,3c2,0.5,4.4,1.1,4.4,1.1s-1.1,0.1-2.9,1.1
		s-2,5.5-2,5.5s4.6,0.4,5.8-0.7s1.6-2.9,1.6-2.9s0.6,4.5,2.2,6.5s7.3,5.7,7.3,5.7s0.1-4.3-1.8-6.6s-5.6-5.4-5.6-5.4s1.1,0.7,3.3,0.9
		s5.7-1.9,5.7-1.9s-3.1-1.3-5.7-2.2s-4.9-1.1-4.9-1.1s1.6,0.1,2.4-1.4c0.7-1.5,0.8-4.6,0.8-4.6s-4.6,0.4-4.9,1.1
		c-0.3,0.8-0.4,2.3-0.4,2.3l-2.6-3.8c3.3-0.2,6.6-0.5,9.4-1c5.7-1,11.2-2,16.3-2.7c-0.6,0.5-1.2,1-1.6,1.5c-1,1.1-0.3,7.7-0.3,7.7
		s4.3-3.1,6.2-5.4c1.8-2.3,1.4-4.4,1.3-4.5l0,0c0.1,0.3,0.9,3.1,2.8,5.6c2,2.6,4.6,5.6,4.6,5.6s2-6.7,1.1-9.6c-0.3-1-0.7-1.8-1-2.3
		c0.9-0.1,1.8-0.1,2.6-0.1c1.7,0.5,3.7,1,5.4,1.2c3.8,0.4,9.7-3.8,9.7-3.8s-0.2-0.2-0.7-0.4c0.8-0.5,1.3-0.8,1.3-0.8s-1.1,0-2.8,0
		c-2.2-1.2-5.7-3-7.8-3.1c-2.9-0.2-8.4,2.5-9.5,3.1H144c0.5-0.5,2.5-2.6,3.5-4.9c1.2-2.6-0.6-8.5-0.6-8.5s-6.2,4.6-7.2,8
		s-0.8,4.9-0.8,4.9s-1.4-2.6-2.7-4.9c-1.3-2.3-5.8-5.6-5.8-5.6s-0.8,6.7,1.9,9c1.6,1.3,2.6,2.1,3.3,2.5c-5,0.4-11.7,1.1-19.4,2.4
		c-8.3,1.4-14.5,1.3-20.8,0.4c-0.9-1.1-1.7-2-2.5-2.5c-2.8-1.8-10.1-1.9-10.1-1.9s3.3-0.9,5.6-2.6c2.3-1.7,3.6-7.7,3.6-7.7
		s-7.7,1-10.1,3.6c-2.5,2.5-3.1,3.9-3.1,3.9s0-3,0-5.6c0-1.2-0.5-3-1.1-4.5c6.6-1.7,12.1-3.4,15.1-4.6c1.4-0.6,3.3-1.2,5.5-1.8
		l3.2,2.6c0,0-2.6-0.2-4.1,0s-5.3,5.7-5.3,5.7s5.3,0.5,8.2-0.1s4-2.6,4-2.6s-1.4,2.8-1.5,6.1c-0.2,3.3-0.2,7.3-0.2,7.3
		s5.9-3.8,7.1-6.5s0.8-4.2,0.8-4.2s2.7,5,5.3,7.8c2.6,2.8,9.9,3.5,9.9,3.5s-2.3-7.5-4.6-9.8c-2.3-2.3-9.4-3.9-9.4-3.9s3.4-0.2,6-1.4
		c1.4-0.6,2.7-2.5,3.7-4.2c0.2,2.2,0.9,4.9,0.9,4.9s3.9-3.6,5.5-6.2c0.5-0.8,0.7-1.5,0.8-2.1c0.5,0,0.9,0.1,1.4,0.1
		c0.5,0.8,1.2,1.7,2,2.5c2.4,2.3,5.3,5,5.3,5s0.5-3.1,0.5-6c4.6,1.2,9.3,3.1,14.2,5.3c-1.4,1.3-3.5,6.4-3.5,6.4s5.3-0.6,8-1.8
		c1-0.4,1.7-1,2.2-1.5c0.3,0.1,0.6,0.3,0.8,0.4c-0.1,1.1-0.1,2.5,0.1,4c0.5,3.3,1.4,7.2,1.4,7.2s5-4.9,5.6-7.8V58
		c4.2,1.9,8.4,3.7,12.7,5.3c3,1.1,5.1,2,6.8,2.8l-2,6.4c0,0-0.4-1.2-1.9-3.8c-1.5-2.6-7.3-2.8-7.3-2.8s2.2,4.3,3.9,5.6
		c1.7,1.4,3.7,2.9,3.7,2.9s-1.3-0.3-4.2,0s-7.7,4.9-7.7,4.9s4.7,2.3,7,1.7c2.3-0.6,4.7-2.4,4.7-2.4s-3.8,4.9-4,7.7
		c-0.2,2.8,2.3,8.9,2.3,8.9s4.3-4.4,4.5-7.6s-0.8-7.9-0.8-7.9s0.5,1.1,2.8,2.3c2.2,1.1,8.1,0.4,8.1,0.4s-2.2-2.6-4.1-4.6
		c-1.9-2.1-4.3-3.1-4.3-3.1s1.7,0.7,4-0.5c1.1-0.6,2.5-1.8,3.6-2.7c1.9,1,4.7,2.1,9.9,3.5c1.6,2.1,3.6,4.8,5.5,7.4s4.5,4.9,7.6,7.1
		c-1.6,1-4.6,5.7-4.6,5.7s5.3,0.3,8.2-0.4c1.2-0.3,2.1-0.8,2.7-1.3c0.2,0.1,0.4,0.2,0.6,0.3c-0.3,1.1-0.6,2.7-0.7,4.4
		c0,3.3,0.1,7.3,0.1,7.3s5.7-4,6.8-6.8c0.2-0.6,0.4-1.1,0.5-1.6c0.8,0.3,1.5,0.5,2.4,0.8c1,1.4,2.2,3,3.4,4.1c2.7,2.7,10,3.1,10,3.1
		s-0.9-2.6-2.1-5.1c6.4,0.8,13.9,1.4,22,2.5c5.2,0.7,10.1,1.3,14.6,1.9c-0.1,0.2-0.2,0.3-0.3,0.5c-1.5,2.6,1,7.7,1,7.7
		s2.7-4,3.1-6.1c0.1-0.5,0.2-1,0.3-1.5c0.8,0.1,1.6,0.2,2.3,0.3c0.1,0.1,0.1,0.2,0.2,0.3c1.7,2.5,8,4.4,8,4.4s-0.1-1.8-0.5-3.7
		c3.9,0.6,7.5,1.2,10.7,2c3.5,0.8,6.7,1.4,9.4,1.8l4.1,3.2c0,0-1.3,0-4.2,0.5c-2.9,0.5-5.2,5.8-5.2,5.8s4.8-0.5,6.7-1.6
		c1.9-1.1,4.1-2.4,4.1-2.4s-0.8,1-1.5,3.9s1.8,8.9,1.8,8.9s3.8-3.5,4.1-6c0.2-2.4-0.5-5.2-0.5-5.2s3.2,5.3,5.7,6.5s9.1,1,9.1,1
		s-2.6-5.6-5.5-6.9s-7.7-2.1-7.7-2.1s1.3-0.1,3.1-1.8c1.8-1.7,3.2-7.5,3.2-7.5s-3.2,1.1-5.8,2.1c-1.6,0.6-2.9,1.6-3.7,2.2l-0.2-0.2
		c0.3-0.7,0.6-1.7,0.4-3.1c-0.3-2.5-2.2-6.6-2.2-6.6s-3.3,4.5-3.1,5.8c0.1,0.3,0.1,0.6,0.2,0.9l-2.4-1.6c0,0-12.1-1.7-22.1-2.9
		c-1.7-1.7-4.3-2.9-4.3-2.9s6.1,1,8.6-0.2s6.7-6.3,6.7-6.3s-5.9-1.7-8.8-0.3c-2.9,1.4-6.6,4.5-6.6,4.5s0.7-1,0.7-3.5
		c-0.1-2.5-3.6-7.3-3.6-7.3s-1.2,3.1-2.1,5.8c-0.9,2.7-0.7,5.3-0.7,5.3s-0.2-1.9-2.3-3.3s-6.5-2.6-6.5-2.6s1.3,5.4,2.4,6.1
		c1.1,0.6,3.2,1.3,3.2,1.3l-4.9,1.6c-6.1-0.8-12.8-1.8-21.4-2.4c-5.6-0.4-9.1-1.3-12.2-2.7c-0.1-0.1-0.2-0.3-0.3-0.4
		c-1.2-1.1-3.6-2-5.6-2.6c-0.7-0.4-1.5-0.8-2.3-1.2c1.2-0.2,2.9-0.7,4.3-1.4c2.6-1.3,4.8-7,4.8-7s-7.7-0.3-10.6,1.8
		c-2.8,2.1-3.7,3.4-3.7,3.4s0.5-2.9,0.9-5.5c0.2-1.4-0.1-3.6-0.4-5.4c5.9-0.2,12.5-0.6,20.8-0.5l2.9,5.4c0,0-1-0.7-3.4-2
		s-6.1,0-6.1,0s3.8,2.3,5.7,2.7c1.9,0.5,4,1,4,1s-1,0.1-2.6,1s-1.9,5.1-1.9,5.1s4.2,0.4,5.3-0.6s1.5-2.7,1.5-2.7s0.5,4.1,2,6
		c1.5,1.9,6.6,5.2,6.6,5.2s0.1-3.9-1.7-6.1s-5.1-5-5.1-5s1,0.6,3,0.8c2,0.2,5.2-1.8,5.2-1.8s-2.8-1.1-5.2-2s-4.5-1-4.5-1
		s1.5,0,2.2-1.3s0.7-4.2,0.7-4.2s-4.2,0.3-4.5,1.1c-0.3,0.7-0.4,2.1-0.4,2.1l-2.5-3.7c1,0,2.1,0,3.2,0.1c4.7,0.1,8.6,0,11.8-0.2
		c-0.4,2.2-0.1,6.6-0.1,6.6s4.5-2.9,6.4-5.2c0.7-0.9,1.1-1.7,1.3-2.4c0.3-0.1,0.5-0.1,0.8-0.2c0.4,1.1,1.1,2.4,2,3.7
		c1.9,2.7,4.4,5.8,4.4,5.8s2.2-6.6,1.5-9.5c-0.2-0.8-0.4-1.4-0.7-1.9c0.7-0.2,1.4-0.4,2.2-0.6c1.7,0.6,3.8,1.2,5.5,1.4
		c1.8,0.3,4.2-0.6,6.2-1.5c9.5,3,20.8,13.3,37.1,19.2c4.3,1.6,7.6,2.6,10.5,3.4l7,4.3c0,0-1.5,0.1-4.9,1.1s-5.4,7.5-5.4,7.5
		s5.5-1.2,7.6-2.8s4.4-3.4,4.4-3.4s-0.8,1.3-1.3,4.8s3.3,10.2,3.3,10.2s4-4.7,4-7.6s-1.3-6-1.3-6s4.5,5.8,7.6,6.9s10.9,0,10.9,0
		s-3.7-6.2-7.4-7.4c-3.6-1.2-9.3-1.5-9.3-1.5s1.5-0.3,3.4-2.5c0.5-0.6,0.9-1.4,1.3-2.4c3.2-0.2,7-0.4,11.8-0.6
		c17.2-0.5,29.7-2.6,44.8-5.4c-0.1,0.2-0.2,0.3-0.3,0.5c-1.6,3.2,1.9,9,1.9,9s2.8-4.9,3.1-7.5c0.1-1,0.2-2,0.3-2.9
		c0.5-0.1,1-0.2,1.6-0.3c0.4,0.5,0.8,1.1,1.4,1.8c2.2,2.7,9.8,4.5,9.8,4.5s-0.7-5.7-2.7-7.8c8.8-1.6,13.8-2.9,17.5-4l6.2,3.8
		c-0.7,0.1-2.1,0.4-4.3,1c-1.3,0.4-2.5,1.7-3.3,3c-1.4,2.2-2.2,4.7-2.2,4.7s5.5-1.2,7.6-2.8c2.1-1.6,4.4-3.4,4.4-3.4
		s-0.8,1.3-1.3,4.8s3.3,10.2,3.3,10.2s1.1-1.3,2.2-3c1-1.5,2-3.4,2-4.9c0-1.9-0.6-3.9-1-5c1.3,1.5,4.6,5.3,7,6.2
		c3.1,1.1,10.9,0,10.9,0s-0.1-0.1-0.2-0.3c0.2,0,0.4,0,0.4,0s-3.7-6.2-7.4-7.4c-3-1-7.3-1.3-8.8-1.4c0.6-0.3,1.6-0.9,2.7-2.2
		c0.2-0.2,0.3-0.4,0.5-0.7c1.1-1.6,1.8-4.8,2.2-6.8c6.5-0.2,13.7,0.9,21.2,2.3l1,0.3c0,0-1.4,0.5-4.5,2.2s-3.4,8.5-3.4,8.5
		s5.1-2.5,6.7-4.6c1.6-2,3.5-4.4,3.5-4.4s-0.4,1.5-0.1,5s5.7,9.1,5.7,9.1s2.8-5.5,2-8.3c-0.7-2.8-2.7-5.5-2.7-5.5s5.8,4.5,9,4.8
		c2.8,0.3,8.6-1.9,10.1-2.5c0.3,0,0.6,0.1,1,0.1c0.9,0.1,1.8,0.2,2.7,0.2l4,8.7c0,0-1.3-0.7-4.7-1.8s-8.6,3.2-8.6,3.2
		s5.3,2.1,7.9,1.9c2.6-0.2,5.6-0.3,5.6-0.3s-1.4,0.7-3.8,3.3c-2.4,2.6-3,10.3-3,10.3s6-1.6,7.5-4c1.6-2.4,2.3-5.7,2.3-5.7
		s0.5,7.3,2.4,9.9s9,6,9,6s0.4-7.3-1.9-10.3c-2.3-3-6.9-6.4-6.9-6.4s1.4,0.6,4.2-0.2c2.9-0.8,7.5-6,7.5-6s-3.9-0.6-7.2-0.9
		s-6.2,0.6-6.2,0.6s2.1-0.7,3.2-3.5c0.4-1.2,0.8-2.9,1-4.4c9.5-0.2,17.9-1.3,26.3-1.9v0.2l8.7,5.3c0,0-1.5,0.1-4.9,1.1
		s-5.4,7.5-5.4,7.5s5.5-1.2,7.6-2.8s4.4-3.4,4.4-3.4s-0.8,1.3-1.3,4.8s3.3,10.2,3.3,10.2s4-4.7,4-7.6s-1.3-6-1.3-6s4.5,5.8,7.6,6.9
		s10.9,0,10.9,0s-3.7-6.2-7.4-7.4c-3.6-1.2-9.3-1.5-9.3-1.5s1.5-0.3,3.4-2.5c1-1.2,1.8-3.8,2.2-5.9c4.7,2.2,10.7,5.2,13.7,7.1
		c5.3,3.3,16.3,6.7,27,10c2.7,0.8,5.4,1.2,8,1.3l4,2.5c0,0-1.5,0.1-4.9,1.1s-5.4,7.5-5.4,7.5s5.5-1.2,7.6-2.8s4.4-3.4,4.4-3.4
		s-0.8,1.3-1.3,4.8s3.3,10.2,3.3,10.2s4-4.7,4-7.6s-1.3-6-1.3-6s4.5,5.8,7.6,6.9s10.9,0,10.9,0s-3.7-6.2-7.4-7.4
		c-3.6-1.2-9.3-1.5-9.3-1.5s1.5-0.3,3.4-2.5s2.8-9.2,2.8-9.2s-3.6,1.7-6.5,3.3c-0.9,0.5-1.6,1-2.3,1.5c-0.5-0.1-1.1-0.2-1.7-0.3
		c0-0.6,0-1.2-0.2-1.9c-0.7-2.9-3.5-7.5-3.5-7.5s-3.3,5.7-2.9,7.2c0.1,0.3,0.2,0.6,0.4,1c-5.8-1.2-12.5-2.7-16.7-4.2
		c-8.7-3-10.2-3.6-20.2-7.9c-4.8-2.1-4.8-5.1-6.3-6.6c2.8-1.2,5.4-2.5,7.7-3.8l7.8-0.8c0,0-1.1,1-3.2,3.8c-2.1,2.8,0.2,9.2,0.2,9.2
		s3.7-4.3,4.4-6.8s1.5-5.4,1.5-5.4s0.2,1.5,1.9,4.6s8.8,6.2,8.8,6.2s0.4-6.2-1.4-8.4s-4.7-4-4.7-4S623.9,77,627,76s8.6-6.6,8.6-6.6
		s-6.7-2.7-10.3-1.5s-8.3,4.4-8.3,4.4s1-1.1,1.2-4.1c0-0.5,0-1-0.2-1.6c7.2-4.3,15.7-8.6,23.9-9.8c2.8-0.4,5.4-0.5,7.9-0.4l3,10.7
		c0,0-1.1-1-4.1-2.9s-9.1,0.9-9.1,0.9s4.6,3.3,7.1,3.8c2.6,0.5,5.5,1.1,5.5,1.1s-1.5,0.3-4.5,2.2c-3,1.9-5.5,9.3-5.5,9.3
		s6.2-0.1,8.3-2s3.6-5,3.6-5s-1.3,7.2-0.1,10.2s7.2,8.1,7.2,8.1s2.2-6.9,0.7-10.4s-5.1-7.9-5.1-7.9s1.2,0.9,4.2,0.9s8.8-4,8.8-4
		s-3.6-1.5-6.8-2.7c-3.1-1.1-6.2-1-6.2-1s2.2-0.2,3.9-2.6c0.9-1.4,1.8-3.5,2.5-5.2c3.6,1.7,7,3.8,10.6,6.2c6.8,4.5,12,14.5,16.3,24
		c-2.1,2.2-3.3,6.1-3.3,6.1s2.9-0.7,5.3-1.6c1.3,2.9,2.5,5.7,3.7,8.2c5.3,11.3,14,21.3,14,21.3l0.6-0.3l2.2,2.4c0,0-1.5-0.3-5-0.2
		s-7.1,5.8-7.1,5.8s5.7,0.3,8.1-0.7c2.4-1,5.2-2.1,5.2-2.1s-1.1,1.1-2.5,4.3s0.5,10.7,0.5,10.7s5.1-3.5,5.8-6.2
		c0.7-2.8,0.3-6.2,0.3-6.2s2.8,6.7,5.5,8.6s10.5,2.8,10.5,2.8S733.8,135.8,730.6,133.7z M604.6,33.1c0.8-0.8,1.7-1.6,2.5-2.4
		c0,0.3,0,0.5,0,0.7c0.4,1.4,1.7,3.7,1.7,3.7L604.6,33.1z M575.4,45.5c0,0,0.9,1.2,3.6,3.5c0.4,0.4,0.9,0.6,1.5,0.8
		c-1.6,1.4-3.2,2.8-4.9,4.1L575.4,45.5z M517.6,25.4l0.1-0.1c0.1,0,0.1,0.1,0.1,0.1H517.6z M521.3,22.1c0.3-0.3,0.6-0.6,0.9-0.9
		c-0.4,1.6-0.4,2.8-0.4,2.8S521.8,23.2,521.3,22.1z M489.2,34c0.5,0.4,1.1,0.7,1.8,0.9c-1.8,1.4-3.5,2.9-5.2,4.5l-0.2-8.9
		C485.6,30.5,486.6,31.7,489.2,34z M484.5,47.8c0.2,0.3,0.3,0.7,0.6,0.9c2.3,2.6,3.5,3.5,3.5,3.5l-8.1-0.1
		C482,50.6,483.3,49.1,484.5,47.8z M412.6,4.1L409,4.9c0.2-0.2,0.4-0.4,0.5-0.6c0.3-0.4,0.7-0.8,1-1.2
		C411.6,3.7,412.6,4.1,412.6,4.1z M335.1,9.7c-0.3,0.8-0.4,2.3-0.4,2.3l-2.9-4.4c2.2,0.3,4.3,0.7,6.3,1.2
		C336.7,9,335.3,9.3,335.1,9.7z M271.6,25.7c0,0,0.5,1.5,1.1,2.7c-0.8,0.6-1.6,1.3-2.5,2L271.6,25.7z M201.2,18
		c-0.4,0.2-0.7,0.5-0.9,0.7s-0.3,0.3-0.5,0.5l-1.5-2C198.2,17.3,199.9,17.8,201.2,18z M194.8,17.4l3.7,3.9c-1.4,3-2.4,6.8-2.4,6.8
		s-0.1-3.4-1.3-6c0-0.1-0.1-0.2-0.1-0.2c0-0.1,0-0.1,0-0.2C195,18.7,194.8,17.4,194.8,17.4z M192.5,16.3c0,0-0.5,1.1-1.1,2.4
		c-0.5-0.3-1.1-0.7-1.5-0.9C191.8,16.9,192.5,16.3,192.5,16.3z M156.8-2.7c0,0,1.9,1.9,3.1,2.7c0.6,0.4,2.4,0.2,4.1,0
		c-0.7,0.7-1.4,1.3-2.1,2c-1.4,1.4-2.6,2.6-3.7,3.8L156.8-2.7z M156.6,15.9c0,0.3,0.1,0.6,0.2,0.8c0.8,1,2.5,2.5,2.5,2.5l-4.9-0.5
		c0.2-0.2,0.4-0.4,0.5-0.7C155.5,17.2,156,16.5,156.6,15.9z M115,1.5c0.1,0.3,0.2,0.6,0.3,0.9c-0.4,0.4-3.2,3.7-3,4.6
		c0.2,1,1,2.7,1,2.7l-4.9-2.6c0.8-1.8,1.6-3.4,2.4-4.9l3.7-4.8C114.5-2.7,114.5-1.4,115,1.5z M95.6,12.6c0,0,2.5,0.8,4,1
		c0.5,0,1.2-0.3,2.1-0.9c0,0.1-0.1,0.1-0.1,0.2c-1,1.5-1.8,3-2.5,4.4L95.6,12.6z M29.9,55.9c0.5-1,0.6-2.5,0.6-4
		c2.1,0.1,4.9,0,6.4-1.4c2.5-2.5,3.3-3.7,3.3-3.7l0.4,9c-1.1,0.2-2.2,0.4-3.3,0.5c-2.9,0.4-5.7,0.8-8.4,1.2
		C29.2,57,29.6,56.5,29.9,55.9z M42.9,55.4l0.4-6c0,0,1.4,2.2,2.4,3.3c0.6,0.7,3.4,0.9,5.4,1C48.3,54.3,45.6,54.9,42.9,55.4z
		 M69.1,43.3c0,0,1,2.4,1.9,3.7c0.3,0.4,1,0.7,2,1c-1.7,0.5-3.5,0.9-5.2,1.4L69.1,43.3z M74.1,59.4c1.3,3.3,2.1,4.5,2.1,4.5
		l-0.6-0.2c-3.8-2.5-7.3-5.2-9.7-7.1c2.9-0.6,5.8-1.2,8.6-1.9C73.9,56.3,73.6,58.1,74.1,59.4z M102.1,46.7c0.9-0.2,1.9-0.4,2.9-0.6
		c0.4,2.1,0.8,3,0.8,3L102.1,46.7z M112.5,46.5c-2.9,2-3.8,3.2-3.8,3.2s0.5-2.2,0.9-4.4c4.1-0.6,8.6-1,12.9-1.1
		c-0.2,0.3-0.5,0.6-0.6,0.8l0,0C119.6,45,114.7,45,112.5,46.5z M190.1,68.9c-1.1,0.7-2.7,2.2-2.7,2.2l0.8-4c1,0.6,1.8,1.1,2.5,1.6
		C190.5,68.7,190.3,68.8,190.1,68.9z M323.6,110.6c-0.3,0.3-0.5,0.5-0.5,0.5s0.1-0.2,0.3-0.5C323.5,110.6,323.5,110.6,323.6,110.6z
		 M286.5,101.8h-0.1c0-0.1,0-0.2,0-0.2S286.5,101.6,286.5,101.8z M284,101.1c0,0-0.1,0.1-0.3,0.4c-0.4,0-0.7-0.1-1.1-0.1L284,101.1z
		 M213.2,69.9l1.7-7.4c0,0,1,2.4,1.9,3.7c0.3,0.5,1.5,0.9,2.8,1.2c-2,1-3.9,1.9-5.6,2.6C213.7,70,213.4,70,213.2,69.9z M225,82.9
		c0.6,3,1.1,4.4,1.3,4.7c-0.4-0.2-0.7-0.4-1.1-0.6l-1.7-1c-5-3.2-7.7-6.8-9-9.2c4.2,0.5,8.2,0.6,12.4,0.6
		C225.7,79.1,224.6,81.2,225,82.9z M384.2,31.8c2.2,2.5,3.4,3.4,3.4,3.4l-6.1-0.1C382.5,34,383.4,32.9,384.2,31.8z M334.1,63.4
		c2.7-1,5.4-5,6.5-6.8c1.5,1.5,4.1,3.7,6.4,3.5c1.8-0.2,3-0.3,3.8-0.5c-2.5,2.1-5.2,4.4-8.2,7c-3.4,2.9-7.5,5.3-11.6,7.2
		c-0.5-2.2-1.4-5-2.6-6.2c-2-2.2-3.5-2.4-3.5-2.4S330.5,64.8,334.1,63.4z M320,70c0,0,2,2.3,5,3.8c1,0.5,2.1,1,3.1,1.4
		c-3.2,1.3-6.1,2.3-8.5,3.1c0.5-1.2,1-2.5,1.2-3.6C321.4,71.7,320,70,320,70z M316.1,71.4c0,0-1.2,2.4-1.6,3.8c-0.1,0.2,0,0.6,0.1,1
		c-1.3-0.7-2.5-1.3-3.8-2L316.1,71.4z M354.4,97.2L354.4,97.2c0,0.1-0.1,0.1-0.1,0.1S354.3,97.3,354.4,97.2z M393.2,82.9
		c-0.1,0.6-0.1,1.3-0.1,2.1c-0.1,1.4,0.7,2.8,1.7,4c-4.4,0.7-8.1,1.3-14.5,2C383.7,89.1,388.3,86.2,393.2,82.9z M458.3,82.7
		c0.2,0.4,0.4,0.8,0.6,1.1l-1.6-0.8C457.6,82.9,457.9,82.8,458.3,82.7z M468.2,81.3c-2.9,1.6-4.8,4-4.8,4s1.1-1.5,0.7-4
		c1.6-0.3,3.5-0.6,5.9-0.9C469.3,80.7,468.7,81,468.2,81.3z M644,102.8L644,102.8c-0.1,0.2-0.2,0.3-0.2,0.3S643.9,103,644,102.8z
		 M590.9,74.4c-0.9,0.4-1.7,0.8-2.6,1.1l-1.3-1.9C587,73.7,588.2,74.1,590.9,74.4z M540.4,72.8c0,0,0.9,1.2,3.6,3.5
		c0.7,0.6,1.7,1,2.8,1.1c-2.4,1.7-4.5,3.2-6.2,4.3L540.4,72.8z M532.8,88.5c-0.4,1.4-0.7,4.1-0.7,4.1l-2.9-4.9
		c1.3,0.1,2.7,0.1,4,0.2C533,88.1,532.9,88.3,532.8,88.5z M569.9,66.3c1.1-1.1,2.2-2.1,3.3-3c0.4,0.8,0.8,1.4,1.4,1.9
		c2.4,2.1,6.7,4.3,6.7,4.3s-1.2-0.3-3.5,0.8c-2.3,1.1-5.3,6.2-5.3,6.2s3.3-0.1,6.1-0.3c2.8-0.2,5.1-1.4,5.1-1.4s-1.7,0.9-2.1,3.4
		c0,0.1,0,0.1,0,0.2c-1.9,0.7-3.7,1.3-5.5,1.8c-0.9-1.9-1.8-3.4-1.8-3.4S572.9,79,572,81c-2.3,0.5-4.7,0.8-7.1,0.9
		c-4.5,0.3-10,0.7-15.9,1C553.8,79.5,564.6,71.6,569.9,66.3z M569.3,85.7c0.9,0,1.9-0.1,2.8-0.1c0.5,1,1,1.9,1,1.9L569.3,85.7z
		 M577.1,88.8c0,0,1-1.3,0.8-3.6c1.3-0.2,2.5-0.4,3.8-0.6c0,0.2,0,0.3,0,0.3C578.9,86.5,577.1,88.8,577.1,88.8z M582,84.8
		c0.1-0.1,0.2-0.2,0.4-0.3c0.1,0,0.2,0,0.3-0.1C582.5,84.5,582.2,84.7,582,84.8z M611.9,71.7c0,0,0-0.1,0-0.4c0,0,0,0,0.1,0
		C611.9,71.5,611.9,71.7,611.9,71.7z M658.5,60c-0.8,1.3-1.7,3.8-1.7,3.8l-2.1-7.2c2.4,0.4,4.7,1,7,1.9
		C660.3,58.9,658.9,59.5,658.5,60z M700.6,89.9c0,0-0.8,1.3-1.3,4.8c0,0.2,0,0.4,0,0.6c-0.5-1-1.1-2.1-1.6-3.1
		C699.3,90.9,700.6,89.9,700.6,89.9z M698.8,87.5c0,0-1,0.1-3.2,0.7c-0.7-1.3-1.3-2.6-2-3.9L698.8,87.5z"/>
	<path class="st5" d="M667.1,245.8l-5.2-6.8c0,0,0,1.3-0.5,4.2s-5.8,5.2-5.8,5.2s0.5-4.8,1.7-6.6s2.5-4,2.5-4s-1.1,0.8-3.9,1.5
		c-2.9,0.7-8.9-1.9-8.9-1.9s3.6-3.8,6-4s5.2,0.6,5.2,0.6s-5.2-3.3-6.4-5.8s-0.9-9.1-0.9-9.1s5.6,2.6,6.9,5.5c1.3,2.9,2,7.7,2,7.7
		s0.1-1.3,1.8-3.1s7.5-3.2,7.5-3.2s-1.1,3.2-2.2,5.8c-1.1,2.6-2.9,4.4-2.9,4.4s1.4-1.3,3.9-0.9s6.6,2.2,6.6,2.2s-4.5,3.3-5.8,3.1
		s-3.3-1.1-3.3-1.1l4.1,6.7L667.1,245.8z"/>
	<path class="st5" d="M692.8,243.4l6.6-8.6c0,0,0,1.6,0.6,5.3c0.7,3.7,7.4,6.6,7.4,6.6s-0.7-6.1-2.1-8.4c-1.5-2.4-3.1-5.1-3.1-5.1
		s1.3,1,5,1.9c3.7,1,11.3-2.4,11.3-2.4s-4.5-4.8-7.6-5.1s-6.6,0.7-6.6,0.7s6.7-4.2,8.2-7.3c1.5-3.2,1.2-11.6,1.2-11.6
		s-7.1,3.3-8.8,7s-2.6,9.7-2.6,9.7s-0.1-1.6-2.3-3.9c-2.2-2.3-9.5-4.1-9.5-4.1s1.4,4,2.8,7.3s3.7,5.6,3.7,5.6s-1.8-1.7-5-1.2
		c-3.2,0.4-8.4,2.9-8.4,2.9s5.7,4.2,7.3,3.9s4.2-1.4,4.2-1.4l-5.2,8.5L692.8,243.4z"/>
</g>
</svg>
