  0
SECTION
  2
HEADER
  9
$ACADVER
  1
AC1024
  9
$ACADMAINTVER
 70
     6
  9
$DWGCODEPAGE
  3
UNDEFINED
  9
$INSBASE
 10
0.0
 20
0.0
 30
0.0
  9
$EXTMIN
 10
1.000000000000000E+20
 20
1.000000000000000E+20
 30
1.000000000000000E+20
  9
$EXTMAX
 10
-1.000000000000000E+20
 20
-1.000000000000000E+20
 30
-1.000000000000000E+20
  9
$LIMMIN
 10
0.0
 20
0.0
  9
$LIMMAX
 10
12.0
 20
9.0
  9
$ORTHOMODE
 70
     0
  9
$REGENMODE
 70
     1
  9
$FILLMODE
 70
     1
  9
$QTEXTMODE
 70
     0
  9
$MIRRTEXT
 70
     1
  9
$LTSCALE
 40
1.0
  9
$ATTMODE
 70
     1
  9
$TEXTSIZE
 40
0.2
  9
$TRACEWID
 40
0.05
  9
$TEXTSTYLE
  7
Standard
  9
$CLAYER
  8
0
  9
$CELTYPE
  6
ByLayer
  9
$CECOLOR
 62
   256
  9
$CELTSCALE
 40
1.0
  9
$DISPSILH
 70
     0
  9
$DIMSCALE
 40
1.0
  9
$DIMASZ
 40
0.18
  9
$DIMEXO
 40
0.0625
  9
$DIMDLI
 40
0.38
  9
$DIMRND
 40
0.0
  9
$DIMDLE
 40
0.0
  9
$DIMEXE
 40
0.18
  9
$DIMTP
 40
0.0
  9
$DIMTM
 40
0.0
  9
$DIMTXT
 40
0.18
  9
$DIMCEN
 40
0.09
  9
$DIMTSZ
 40
0.0
  9
$DIMTOL
 70
     0
  9
$DIMLIM
 70
     0
  9
$DIMTIH
 70
     1
  9
$DIMTOH
 70
     1
  9
$DIMSE1
 70
     0
  9
$DIMSE2
 70
     0
  9
$DIMTAD
 70
     0
  9
$DIMZIN
 70
     0
  9
$DIMBLK
  1

  9
$DIMASO
 70
     1
  9
$DIMSHO
 70
     1
  9
$DIMPOST
  1

  9
$DIMAPOST
  1

  9
$DIMALT
 70
     0
  9
$DIMALTD
 70
     2
  9
$DIMALTF
 40
25.4
  9
$DIMLFAC
 40
1.0
  9
$DIMTOFL
 70
     0
  9
$DIMTVP
 40
0.0
  9
$DIMTIX
 70
     0
  9
$DIMSOXD
 70
     0
  9
$DIMSAH
 70
     0
  9
$DIMBLK1
  1

  9
$DIMBLK2
  1

  9
$DIMSTYLE
  2
Standard
  9
$DIMCLRD
 70
     0
  9
$DIMCLRE
 70
     0
  9
$DIMCLRT
 70
     0
  9
$DIMTFAC
 40
1.0
  9
$DIMGAP
 40
0.09
  9
$DIMJUST
 70
     0
  9
$DIMSD1
 70
     0
  9
$DIMSD2
 70
     0
  9
$DIMTOLJ
 70
     1
  9
$DIMTZIN
 70
     0
  9
$DIMALTZ
 70
     0
  9
$DIMALTTZ
 70
     0
  9
$DIMUPT
 70
     0
  9
$DIMDEC
 70
     4
  9
$DIMTDEC
 70
     4
  9
$DIMALTU
 70
     2
  9
$DIMALTTD
 70
     2
  9
$DIMTXSTY
  7
Standard
  9
$DIMAUNIT
 70
     0
  9
$DIMADEC
 70
     0
  9
$DIMALTRND
 40
0.0
  9
$DIMAZIN
 70
     0
  9
$DIMDSEP
 70
    46
  9
$DIMATFIT
 70
     3
  9
$DIMFRAC
 70
     0
  9
$DIMLDRBLK
  1

  9
$DIMLUNIT
 70
     2
  9
$DIMLWD
 70
    -2
  9
$DIMLWE
 70
    -2
  9
$DIMTMOVE
 70
     0
  9
$DIMFXL
 40
1.0
  9
$DIMFXLON
 70
     0
  9
$DIMJOGANG
 40
0.7853981633974483
  9
$DIMTFILL
 70
     0
  9
$DIMTFILLCLR
 70
     0
  9
$DIMARCSYM
 70
     0
  9
$DIMLTYPE
  6

  9
$DIMLTEX1
  6

  9
$DIMLTEX2
  6

  9
$DIMTXTDIRECTION
 70
     0
  9
$LUNITS
 70
     2
  9
$LUPREC
 70
     4
  9
$SKETCHINC
 40
0.1
  9
$FILLETRAD
 40
0.5
  9
$AUNITS
 70
     0
  9
$AUPREC
 70
     0
  9
$MENU
  1
.
  9
$ELEVATION
 40
0.0
  9
$PELEVATION
 40
0.0
  9
$THICKNESS
 40
0.0
  9
$LIMCHECK
 70
     0
  9
$CHAMFERA
 40
0.5
  9
$CHAMFERB
 40
0.5
  9
$CHAMFERC
 40
1.0
  9
$CHAMFERD
 40
0.0
  9
$SKPOLY
 70
     0
  9
$TDCREATE
 40
2458307.555902766
  9
$TDUCREATE
 40
2458307.764236111
  9
$TDUPDATE
 40
2458307.555902766
  9
$TDUUPDATE
 40
2458307.764236111
  9
$TDINDWG
 40
0.0000000116
  9
$TDUSRTIMER
 40
0.0000000116
  9
$USRTIMER
 70
     1
  9
$ANGBASE
 50
0.0
  9
$ANGDIR
 70
     0
  9
$PDMODE
 70
     0
  9
$PDSIZE
 40
0.0
  9
$PLINEWID
 40
0.0
  9
$SPLFRAME
 70
     0
  9
$SPLINETYPE
 70
     6
  9
$SPLINESEGS
 70
     8
  9
$HANDSEED
  5
6C
  9
$SURFTAB1
 70
     6
  9
$SURFTAB2
 70
     6
  9
$SURFTYPE
 70
     6
  9
$SURFU
 70
     6
  9
$SURFV
 70
     6
  9
$UCSBASE
  2

  9
$UCSNAME
  2

  9
$UCSORG
 10
0.0
 20
0.0
 30
0.0
  9
$UCSXDIR
 10
1.0
 20
0.0
 30
0.0
  9
$UCSYDIR
 10
0.0
 20
1.0
 30
0.0
  9
$UCSORTHOREF
  2

  9
$UCSORTHOVIEW
 70
     0
  9
$UCSORGTOP
 10
0.0
 20
0.0
 30
0.0
  9
$UCSORGBOTTOM
 10
0.0
 20
0.0
 30
0.0
  9
$UCSORGLEFT
 10
0.0
 20
0.0
 30
0.0
  9
$UCSORGRIGHT
 10
0.0
 20
0.0
 30
0.0
  9
$UCSORGFRONT
 10
0.0
 20
0.0
 30
0.0
  9
$UCSORGBACK
 10
0.0
 20
0.0
 30
0.0
  9
$PUCSBASE
  2

  9
$PUCSNAME
  2

  9
$PUCSORG
 10
0.0
 20
0.0
 30
0.0
  9
$PUCSXDIR
 10
1.0
 20
0.0
 30
0.0
  9
$PUCSYDIR
 10
0.0
 20
1.0
 30
0.0
  9
$PUCSORTHOREF
  2

  9
$PUCSORTHOVIEW
 70
     0
  9
$PUCSORGTOP
 10
0.0
 20
0.0
 30
0.0
  9
$PUCSORGBOTTOM
 10
0.0
 20
0.0
 30
0.0
  9
$PUCSORGLEFT
 10
0.0
 20
0.0
 30
0.0
  9
$PUCSORGRIGHT
 10
0.0
 20
0.0
 30
0.0
  9
$PUCSORGFRONT
 10
0.0
 20
0.0
 30
0.0
  9
$PUCSORGBACK
 10
0.0
 20
0.0
 30
0.0
  9
$USERI1
 70
     0
  9
$USERI2
 70
     0
  9
$USERI3
 70
     0
  9
$USERI4
 70
     0
  9
$USERI5
 70
     0
  9
$USERR1
 40
0.0
  9
$USERR2
 40
0.0
  9
$USERR3
 40
0.0
  9
$USERR4
 40
0.0
  9
$USERR5
 40
0.0
  9
$WORLDVIEW
 70
     1
  9
$SHADEDGE
 70
     3
  9
$SHADEDIF
 70
    70
  9
$TILEMODE
 70
     1
  9
$MAXACTVP
 70
    64
  9
$PINSBASE
 10
0.0
 20
0.0
 30
0.0
  9
$PLIMCHECK
 70
     0
  9
$PEXTMIN
 10
1.000000000000000E+20
 20
1.000000000000000E+20
 30
1.000000000000000E+20
  9
$PEXTMAX
 10
-1.000000000000000E+20
 20
-1.000000000000000E+20
 30
-1.000000000000000E+20
  9
$PLIMMIN
 10
0.0
 20
0.0
  9
$PLIMMAX
 10
12.0
 20
9.0
  9
$UNITMODE
 70
     0
  9
$VISRETAIN
 70
     1
  9
$PLINEGEN
 70
     0
  9
$PSLTSCALE
 70
     1
  9
$TREEDEPTH
 70
  3020
  9
$CMLSTYLE
  2
Standard
  9
$CMLJUST
 70
     0
  9
$CMLSCALE
 40
1.0
  9
$PROXYGRAPHICS
 70
     1
  9
$MEASUREMENT
 70
     0
  9
$CELWEIGHT
370
    -1
  9
$ENDCAPS
280
     0
  9
$JOINSTYLE
280
     0
  9
$LWDISPLAY
290
     1
  9
$INSUNITS
 70
     1
  9
$HYPERLINKBASE
  1

  9
$STYLESHEET
  1

  9
$XEDIT
290
     1
  9
$CEPSNTYPE
380
     0
  9
$PSTYLEMODE
290
     1
  9
$FINGERPRINTGUID
  2
{C6B47973-831A-0902-4DE8-58B2947FB895}
  9
$VERSIONGUID
  2
{FAEB1C32-E019-11D5-929B-00C0DF256EC4}
  9
$EXTNAMES
290
     1
  9
$PSVPSCALE
 40
0.0
  9
$OLESTARTUP
290
     0
  9
$SORTENTS
280
   127
  9
$INDEXCTL
280
     0
  9
$HIDETEXT
280
     1
  9
$XCLIPFRAME
280
     2
  9
$HALOGAP
280
     0
  9
$OBSCOLOR
 70
   257
  9
$OBSLTYPE
280
     0
  9
$INTERSECTIONDISPLAY
280
     0
  9
$INTERSECTIONCOLOR
 70
   257
  9
$DIMASSOC
280
     2
  9
$PROJECTNAME
  1

  9
$CAMERADISPLAY
290
     0
  9
$LENSLENGTH
 40
50.0
  9
$CAMERAHEIGHT
 40
0.0
  9
$STEPSPERSEC
 40
2.0
  9
$STEPSIZE
 40
6.0
  9
$3DDWFPREC
 40
2.0
  9
$PSOLWIDTH
 40
0.25
  9
$PSOLHEIGHT
 40
4.0
  9
$LOFTANG1
 40
1.570796326794897
  9
$LOFTANG2
 40
1.570796326794897
  9
$LOFTMAG1
 40
0.0
  9
$LOFTMAG2
 40
0.0
  9
$LOFTPARAM
 70
     7
  9
$LOFTNORMALS
280
     1
  9
$LATITUDE
 40
37.795
  9
$LONGITUDE
 40
-122.394
  9
$NORTHDIRECTION
 40
0.0
  9
$TIMEZONE
 70
 -8000
  9
$LIGHTGLYPHDISPLAY
280
     1
  9
$TILEMODELIGHTSYNCH
280
     1
  9
$CMATERIAL
347
3C
  9
$SOLIDHIST
280
     1
  9
$SHOWHIST
280
     1
  9
$DWFFRAME
280
     2
  9
$DGNFRAME
280
     2
  9
$REALWORLDSCALE
290
     1
  9
$INTERFERECOLOR
 62
   256
  9
$CSHADOW
280
     0
  9
$SHADOWPLANELOCATION
 40
0.0
  0
ENDSEC
  0
SECTION
  2
CLASSES
  0
CLASS
  1
ACDBDICTIONARYWDFLT
  2
AcDbDictionaryWithDefault
  3
ObjectDBX Classes
 90
        0
 91
        4
280
     0
281
     0
  0
CLASS
  1
VISUALSTYLE
  2
AcDbVisualStyle
  3
ObjectDBX Classes
 90
     4095
 91
        4
280
     0
281
     0
  0
CLASS
  1
MATERIAL
  2
AcDbMaterial
  3
ObjectDBX Classes
 90
     1153
 91
        4
280
     0
281
     0
  0
CLASS
  1
SUN
  2
AcDbSun
  3
SCENEOE
 90
     1024
 91
        4
280
     0
281
     0
  0
ENDSEC
  0
SECTION
  2
TABLES
  0
TABLE
  2
VPORT
  5
8
330
0
100
AcDbSymbolTable
 70
     1
  0
VPORT
  5
29
330
8
100
AcDbSymbolTableRecord
100
AcDbViewportTableRecord
  2
*Active
 70
     0
 10
0.0
 20
0.0
 11
1.0
 21
1.0
 12
0.0
 22
0.0
 13
0.0
 23
0.0
 14
0.5
 24
0.5
 15
0.5
 25
0.5
 16
0.0
 26
0.0
 36
1.0
 17
4.25
 27
-5.5
 37
0.0
 40
11.0
 41
0.7727272727272727
 42
50.0
 43
0.0
 44
0.0
 50
0.0
 51
0.0
 71
     0
 72
   100
 73
     1
 74
     3
 75
     0
 76
     0
 77
     0
 78
     0
281
     0
 65
     1
110
0.0
120
0.0
130
0.0
111
1.0
121
0.0
131
0.0
112
0.0
122
1.0
132
0.0
 79
     0
146
0.0
 60
     3
 61
     5
292
     1
282
     1
141
0.0
142
0.0
 63
   250
361
3F
  0
ENDTAB
  0
TABLE
  2
LTYPE
  5
5
330
0
100
AcDbSymbolTable
 70
     1
  0
LTYPE
  5
14
330
5
100
AcDbSymbolTableRecord
100
AcDbLinetypeTableRecord
  2
ByBlock
 70
     0
  3

 72
    65
 73
     0
 40
0.0
  0
LTYPE
  5
15
330
5
100
AcDbSymbolTableRecord
100
AcDbLinetypeTableRecord
  2
ByLayer
 70
     0
  3

 72
    65
 73
     0
 40
0.0
  0
LTYPE
  5
16
330
5
100
AcDbSymbolTableRecord
100
AcDbLinetypeTableRecord
  2
Continuous
 70
     0
  3
Solid line
 72
    65
 73
     0
 40
0.0
  0
ENDTAB
  0
TABLE
  2
LAYER
  5
2
330
0
100
AcDbSymbolTable
 70
     2
  0
LAYER
  5
10
330
2
100
AcDbSymbolTableRecord
100
AcDbLayerTableRecord
  2
0
 70
     0
 62
     7
  6
Continuous
370
    -3
390
F
347
3E
  0
LAYER
  5
40
330
2
100
AcDbSymbolTableRecord
100
AcDbLayerTableRecord
  2
Layer 1
 70
     0
 62
     7
  6
Continuous
370
    -3
390
F
347
3E
  0
ENDTAB
  0
TABLE
  2
STYLE
  5
3
330
0
100
AcDbSymbolTable
 70
     1
  0
STYLE
  5
11
330
3
100
AcDbSymbolTableRecord
100
AcDbTextStyleTableRecord
  2
Standard
 70
     0
 40
0.0
 41
1.0
 50
0.0
 71
     0
 42
0.2
  3
txt
  4

  0
ENDTAB
  0
TABLE
  2
VIEW
  5
6
330
0
100
AcDbSymbolTable
 70
     0
  0
ENDTAB
  0
TABLE
  2
UCS
  5
7
330
0
100
AcDbSymbolTable
 70
     0
  0
ENDTAB
  0
TABLE
  2
APPID
  5
9
330
0
100
AcDbSymbolTable
 70
     1
  0
APPID
  5
12
330
9
100
AcDbSymbolTableRecord
100
AcDbRegAppTableRecord
  2
ACAD
 70
     0
  0
ENDTAB
  0
TABLE
  2
DIMSTYLE
  5
A
330
0
100
AcDbSymbolTable
 70
     1
100
AcDbDimStyleTable
  0
DIMSTYLE
105
27
330
A
100
AcDbSymbolTableRecord
100
AcDbDimStyleTableRecord
  2
Standard
 70
     0
178
     0
340
11
  0
ENDTAB
  0
TABLE
  2
BLOCK_RECORD
  5
1
330
0
100
AcDbSymbolTable
 70
     1
  0
BLOCK_RECORD
  5
1F
330
1
100
AcDbSymbolTableRecord
100
AcDbBlockTableRecord
  2
*Model_Space
340
22
 70
     0
280
     1
281
     0
  0
BLOCK_RECORD
  5
1B
330
1
100
AcDbSymbolTableRecord
100
AcDbBlockTableRecord
  2
*Paper_Space
340
1E
 70
     0
280
     1
281
     0
  0
BLOCK_RECORD
  5
23
330
1
100
AcDbSymbolTableRecord
100
AcDbBlockTableRecord
  2
*Paper_Space0
340
26
 70
     0
280
     1
281
     0
  0
ENDTAB
  0
ENDSEC
  0
SECTION
  2
BLOCKS
  0
BLOCK
  5
20
330
1F
100
AcDbEntity
  8
0
100
AcDbBlockBegin
  2
*Model_Space
 70
     0
 10
0.0
 20
0.0
 30
0.0
  3
*Model_Space
  1

  0
ENDBLK
  5
21
330
1F
100
AcDbEntity
  8
0
100
AcDbBlockEnd
  0
BLOCK
  5
1C
330
1B
100
AcDbEntity
 67
     1
  8
0
100
AcDbBlockBegin
  2
*Paper_Space
 70
     0
 10
0.0
 20
0.0
 30
0.0
  3
*Paper_Space
  1

  0
ENDBLK
  5
1D
330
1B
100
AcDbEntity
 67
     1
  8
0
100
AcDbBlockEnd
  0
BLOCK
  5
24
330
23
100
AcDbEntity
  8
0
100
AcDbBlockBegin
  2
*Paper_Space0
 70
     0
 10
0.0
 20
0.0
 30
0.0
  3
*Paper_Space0
  1

  0
ENDBLK
  5
25
330
23
100
AcDbEntity
  8
0
100
AcDbBlockEnd
  0
ENDSEC
  0
SECTION
  2
ENTITIES
  0
SPLINE
  5
41
330
1F
100
AcDbEntity
  8
Layer 1
370
     0
100
AcDbSpline
210
0.0
220
0.0
230
1.0
 70
    11
 71
     3
 72
   185
 73
   181
 74
     0
 42
0.0000000001
 43
0.0000000001
 12
1.0
 22
0.0
 32
0.0
 13
1.0
 23
0.0
 33
0.0
 40
0.0
 40
0.0
 40
0.0
 40
0.0
 40
1.0
 40
1.0
 40
1.0
 40
2.0
 40
2.0
 40
2.0
 40
3.0
 40
3.0
 40
3.0
 40
4.0
 40
4.0
 40
4.0
 40
5.0
 40
5.0
 40
5.0
 40
6.0
 40
6.0
 40
6.0
 40
7.0
 40
7.0
 40
7.0
 40
8.0
 40
8.0
 40
8.0
 40
9.0
 40
9.0
 40
9.0
 40
10.0
 40
10.0
 40
10.0
 40
11.0
 40
11.0
 40
11.0
 40
12.0
 40
12.0
 40
12.0
 40
13.0
 40
13.0
 40
13.0
 40
14.0
 40
14.0
 40
14.0
 40
15.0
 40
15.0
 40
15.0
 40
16.0
 40
16.0
 40
16.0
 40
17.0
 40
17.0
 40
17.0
 40
18.0
 40
18.0
 40
18.0
 40
19.0
 40
19.0
 40
19.0
 40
20.0
 40
20.0
 40
20.0
 40
21.0
 40
21.0
 40
21.0
 40
22.0
 40
22.0
 40
22.0
 40
23.0
 40
23.0
 40
23.0
 40
24.0
 40
24.0
 40
24.0
 40
25.0
 40
25.0
 40
25.0
 40
26.0
 40
26.0
 40
26.0
 40
27.0
 40
27.0
 40
27.0
 40
28.0
 40
28.0
 40
28.0
 40
29.0
 40
29.0
 40
29.0
 40
30.0
 40
30.0
 40
30.0
 40
31.0
 40
31.0
 40
31.0
 40
32.0
 40
32.0
 40
32.0
 40
33.0
 40
33.0
 40
33.0
 40
34.0
 40
34.0
 40
34.0
 40
35.0
 40
35.0
 40
35.0
 40
36.0
 40
36.0
 40
36.0
 40
37.0
 40
37.0
 40
37.0
 40
38.0
 40
38.0
 40
38.0
 40
39.0
 40
39.0
 40
39.0
 40
40.0
 40
40.0
 40
40.0
 40
41.0
 40
41.0
 40
41.0
 40
42.0
 40
42.0
 40
42.0
 40
43.0
 40
43.0
 40
43.0
 40
44.0
 40
44.0
 40
44.0
 40
45.0
 40
45.0
 40
45.0
 40
46.0
 40
46.0
 40
46.0
 40
47.0
 40
47.0
 40
47.0
 40
48.0
 40
48.0
 40
48.0
 40
49.0
 40
49.0
 40
49.0
 40
50.0
 40
50.0
 40
50.0
 40
51.0
 40
51.0
 40
51.0
 40
52.0
 40
52.0
 40
52.0
 40
53.0
 40
53.0
 40
53.0
 40
54.0
 40
54.0
 40
54.0
 40
55.0
 40
55.0
 40
55.0
 40
56.0
 40
56.0
 40
56.0
 40
57.0
 40
57.0
 40
57.0
 40
58.0
 40
58.0
 40
58.0
 40
59.0
 40
59.0
 40
59.0
 40
60.0
 40
60.0
 40
60.0
 40
60.0
 10
7.488440960174178
 20
-2.738604392908074
 30
0.0
 10
7.488440960174178
 20
-2.738604392908074
 30
0.0
 10
7.110663224782506
 20
-2.726104477662173
 30
0.0
 10
7.110663224782506
 20
-2.726104477662173
 30
0.0
 10
7.055107669227431
 20
-2.714993536090661
 30
0.0
 10
7.024552156057325
 20
-2.716382085893984
 30
0.0
 10
7.017607711612325
 20
-2.728882424977857
 30
0.0
 10
7.010663267167375
 20
-2.739993366546564
 30
0.0
 10
7.02594102375143
 20
-2.762215673540519
 30
0.0
 10
7.060663245972263
 20
-2.792771398639742
 30
0.0
 10
7.060663245972263
 20
-2.792771398639742
 30
0.0
 10
7.055107669217578
 20
-2.934438234848256
 30
0.0
 10
7.055107669217578
 20
-2.934438234848256
 30
0.0
 10
7.055107669217578
 20
-2.934438234848256
 30
0.0
 10
7.048163224763912
 20
-3.139993620861408
 30
0.0
 10
7.048163224763912
 20
-3.139993620861408
 30
0.0
 10
7.048163224763912
 20
-3.139993620861408
 30
0.0
 10
7.02732989143063
 20
-3.138604647200534
 30
0.0
 10
7.02732989143063
 20
-3.138604647200534
 30
0.0
 10
6.896774314682816
 20
-3.127493705625663
 30
0.0
 10
6.823163267148679
 20
-3.156660033204818
 30
0.0
 10
6.807885404596668
 20
-3.22749345130852
 30
0.0
 10
6.807885404596668
 20
-3.22749345130852
 30
0.0
 10
6.764829870230086
 20
-3.312215758299847
 30
0.0
 10
6.764829870230086
 20
-3.312215758299847
 30
0.0
 10
6.764829870230086
 20
-3.312215758299847
 30
0.0
 10
6.668996515700756
 20
-3.384438150059875
 30
0.0
 10
6.668996515700756
 20
-3.384438150059875
 30
0.0
 10
6.613440960150809
 20
-3.259438150057374
 30
0.0
 10
6.531496494516381
 20
-3.196938150053711
 30
0.0
 10
6.423163171779328
 20
-3.199716097368714
 30
0.0
 10
6.337052050071533
 20
-3.206660541809292
 30
0.0
 10
6.270385393999933
 20
-3.235827293244029
 30
0.0
 10
6.224552071260657
 20
-3.287215927817694
 30
0.0
 10
6.185663192966659
 20
-3.320549176378234
 30
0.0
 10
6.164829859631709
 20
-3.356660372259461
 30
0.0
 10
6.16066320355968
 20
-3.395549091606072
 30
0.0
 10
6.130107637406127
 20
-3.431660287486844
 30
0.0
 10
6.120385404585704
 20
-3.471937980493142
 30
0.0
 10
6.130107637402388
 20
-3.514993620820178
 30
0.0
 10
6.130107637401427
 20
-3.535826954153511
 30
0.0
 10
6.137052081845064
 20
-3.553882340167295
 30
0.0
 10
6.152329838429346
 20
-3.570549176376744
 30
0.0
 10
6.146774261680093
 20
-3.591382509709824
 30
0.0
 10
6.149552050053444
 20
-3.609437895723406
 30
0.0
 10
6.15927428287134
 20
-3.624715758272663
 30
0.0
 10
6.178718748507081
 20
-3.658049006835831
 30
0.0
 10
6.199552081839581
 20
-3.676104816705472
 30
0.0
 10
6.224552071242972
 20
-3.681660287491089
 30
0.0
 10
6.274552050047279
 20
-3.746938234813216
 30
0.0
 10
6.331496526279907
 20
-3.767771568149101
 30
0.0
 10
6.396774314655254
 20
-3.741382340178941
 30
0.0
 10
6.357885436362923
 20
-3.737215843052632
 30
0.0
 10
6.342607626796507
 20
-3.726104477627687
 30
0.0
 10
6.350940991919742
 20
-3.709438065274551
 30
0.0
 10
6.374552113626628
 20
-3.723326954164501
 30
0.0
 10
6.398163235333716
 20
-3.731660372269946
 30
0.0
 10
6.421774304059201
 20
-3.734437895735633
 30
0.0
 10
6.418996515684537
 20
-3.745548837304518
 30
0.0
 10
6.418996515683981
 20
-3.758049176388719
 30
0.0
 10
6.423163171753635
 20
-3.771938065277785
 30
0.0
 10
6.441218716712556
 20
-3.777493536063098
 30
0.0
 10
6.459274261671604
 20
-3.780271483383785
 30
0.0
 10
6.478718727308937
 20
-3.777493536064791
 30
0.0
 10
6.505107637389149
 20
-3.809437810968322
 30
0.0
 10
6.524552050044273
 20
-3.813604731948999
 30
0.0
 10
6.534274335845843
 20
-3.789993451296216
 30
0.0
 10
6.538441044898668
 20
-3.77610456240753
 30
0.0
 10
6.549552092431743
 20
-3.77054909162353
 30
0.0
 10
6.567607690372622
 20
-3.774715588748904
 30
0.0
 10
6.575941002512991
 20
-3.778882085873849
 30
0.0
 10
6.584274314653562
 20
-3.778882085874203
 30
0.0
 10
6.592607732758197
 20
-3.773326615090077
 30
0.0
 10
6.599552177202288
 20
-3.781660033194763
 30
0.0
 10
6.605107753950405
 20
-3.785826530319582
 30
0.0
 10
6.612052198394899
 20
-3.784437556659971
 30
0.0
 10
6.625941087283991
 20
-3.780271059536012
 30
0.0
 10
6.639829976172829
 20
-3.781659609341331
 30
0.0
 10
6.650941129669213
 20
-3.787215503981593
 30
0.0
 10
6.678718907446434
 20
-3.79971541921178
 30
0.0
 10
6.695385531728056
 20
-3.788604477643528
 30
0.0
 10
6.703718949834006
 20
-3.753882255421685
 30
0.0
 10
6.703718949834006
 20
-3.753882255421685
 30
0.0
 10
6.728718992220971
 20
-3.721937980520452
 30
0.0
 10
6.728718992220971
 20
-3.721937980520452
 30
0.0
 10
6.732885701266847
 20
-3.862215843069457
 30
0.0
 10
6.809274590152376
 20
-3.937215758301843
 30
0.0
 10
6.955107923485279
 20
-3.946938150072709
 30
0.0
 10
6.955107923485279
 20
-3.946938150072709
 30
0.0
 10
6.867607881086163
 20
-4.24971575830447
 30
0.0
 10
6.867607881086163
 20
-4.24971575830447
 30
0.0
 10
6.864830145692975
 20
-4.270549091637678
 30
0.0
 10
6.856496727587657
 20
-4.291382424970632
 30
0.0
 10
6.839830103305555
 20
-4.312215758303233
 30
0.0
 10
6.757885637665417
 20
-4.377493705619423
 30
0.0
 10
6.705107923462896
 20
-4.445549176401553
 30
0.0
 10
6.680107881074137
 20
-4.517771144309513
 30
0.0
 10
6.663441256793602
 20
-4.503882255419866
 30
0.0
 10
6.649552367905724
 20
-4.481659948425986
 30
0.0
 10
6.638441214410502
 20
-4.449715673523138
 30
0.0
 10
6.630107902271497
 20
-4.414993451300536
 30
0.0
 10
6.610663436634745
 20
-4.405271059535329
 30
0.0
 10
6.580107923464007
 20
-4.420548922082793
 30
0.0
 10
6.566219034574866
 20
-4.426104392866667
 30
0.0
 10
6.550941277989927
 20
-4.424715419206046
 30
0.0
 10
6.535663521405215
 20
-4.417770974760919
 30
0.0
 10
6.525941341568695
 20
-4.413604477635923
 30
0.0
 10
6.518996897124199
 20
-4.414993027440308
 30
0.0
 10
6.514830188071705
 20
-4.42193747188455
 30
0.0
 10
6.50927461132369
 20
-4.414993027439853
 30
0.0
 10
6.500941299183245
 20
-4.412215080119596
 30
0.0
 10
6.488441277990356
 20
-4.414993027438919
 30
0.0
 10
6.471774600727056
 20
-4.420548498222691
 30
0.0
 10
6.460663500212704
 20
-4.412215080117802
 30
0.0
 10
6.457885711839531
 20
-4.38999319697963
 30
0.0
 10
6.457885711839531
 20
-4.38999319697963
 30
0.0
 10
6.455107923465877
 20
-4.378882255410518
 30
0.0
 10
6.455107923465877
 20
-4.378882255410518
 30
0.0
 10
6.442607902273746
 20
-4.364993366521073
 30
0.0
 10
6.427330145688806
 20
-4.363604392860426
 30
0.0
 10
6.409274600729177
 20
-4.373326784623941
 30
0.0
 10
6.409274600729177
 20
-4.373326784623941
 30
0.0
 10
6.364830145686735
 20
-4.409437980504132
 30
0.0
 10
6.364830145686735
 20
-4.409437980504132
 30
0.0
 10
6.364830145686987
 20
-4.403882509719627
 30
0.0
 10
6.363441277991164
 20
-4.396938065275107
 30
0.0
 10
6.359274568939352
 20
-4.388604647170546
 30
0.0
 10
6.359274568939352
 20
-4.388604647170546
 30
0.0
 10
6.330107923465321
 20
-4.391382594489111
 30
0.0
 10
6.330107923465321
 20
-4.391382594489111
 30
0.0
 10
6.325941267394657
 20
-4.399716012593292
 30
0.0
 10
6.325941267394177
 20
-4.410826954162303
 30
0.0
 10
6.332885711837914
 20
-4.426104816711434
 30
0.0
 10
6.321774611322931
 20
-4.431660287495459
 30
0.0
 10
6.309274590130068
 20
-4.434438234814757
 30
0.0
 10
6.293996833544977
 20
-4.43582720847404
 30
0.0
 10
6.180107934057711
 20
-4.480271822455456
 30
0.0
 10
6.125941299177257
 20
-4.545549345917657
 30
0.0
 10
6.130107955243804
 20
-4.628882679251167
 30
0.0
 10
6.087052420882628
 20
-4.592771483367086
 30
0.0
 10
6.080107976436617
 20
-4.627493705589004
 30
0.0
 10
6.110663489601999
 20
-4.731660372257036
 30
0.0
 10
6.191219034551422
 20
-4.948327123698365
 30
0.0
 10
6.343996812327582
 20
-4.984438319587373
 30
0.0
 10
6.56899676994855
 20
-4.839993536068833
 30
0.0
 10
6.56899676994855
 20
-4.839993536068833
 30
0.0
 10
6.567607902252298
 20
-4.842771483388661
 30
0.0
 10
6.567607902252298
 20
-4.842771483388661
 30
0.0
 10
6.567607902252298
 20
-4.842771483388661
 30
0.0
 10
6.612052304310585
 20
-4.856660372279521
 30
0.0
 10
6.612052304310585
 20
-4.856660372279521
 30
0.0
 10
6.660663415412424
 20
-5.063604731955112
 30
0.0
 10
6.807885616435946
 20
-5.195549176406151
 30
0.0
 10
7.050941171989002
 20
-5.25110473197262
 30
0.0
 10
7.050941171989002
 20
-5.25110473197262
 30
0.0
 10
7.034274547695203
 20
-5.533049006874231
 30
0.0
 10
7.034274547695203
 20
-5.533049006874231
 30
0.0
 10
7.034274547695203
 20
-5.533049006874231
 30
0.0
 10
7.028718970946253
 20
-5.546937895762867
 30
0.0
 10
7.028718970946253
 20
-5.546937895762867
 30
0.0
 10
6.941218928558302
 20
-5.601104477654568
 30
0.0
 10
6.953718949750004
 20
-5.624715758308335
 30
0.0
 10
7.067607902217382
 20
-5.620548837333621
 30
0.0
 10
7.067607902217382
 20
-5.620548837333621
 30
0.0
 10
7.487052410240544
 20
-5.610826445588145
 30
0.0
 10
7.487052410240544
 20
-5.610826445588145
 30
0.0
 10
7.487052410240544
 20
-5.610826445588145
 30
0.0
 10
7.487052410108415
 20
-8.553882340227903
 30
0.0
 10
7.487052410108415
 20
-8.553882340227903
 30
0.0
 10
7.487052410108415
 20
-8.553882340227903
 30
0.0
 10
9.427330357428293
 20
-8.553882340315011
 30
0.0
 10
9.427330357428293
 20
-8.553882340315011
 30
0.0
 10
9.427330357428293
 20
-8.553882340315011
 30
0.0
 10
9.427330357810861
 20
-0.0330490069816784
 30
0.0
 10
9.427330357810861
 20
-0.0330490069816784
 30
0.0
 10
9.427330357810861
 20
-0.0330490069816784
 30
0.0
 10
7.488440960295671
 20
-0.0330490068946195
 30
0.0
 10
7.488440960295671
 20
-0.0330490068946195
 30
0.0
 10
7.488440960295671
 20
-0.0330490068946195
 30
0.0
 10
7.488440960174178
 20
-2.738604392908074
 30
0.0
 10
7.488440960174178
 20
-2.738604392908074
 30
0.0
  0
SPLINE
  5
42
330
1F
100
AcDbEntity
  8
Layer 1
370
     0
100
AcDbSpline
210
0.0
220
0.0
230
1.0
 70
    11
 71
     3
 72
    29
 73
    25
 74
     0
 42
0.0000000001
 43
0.0000000001
 12
1.0
 22
0.0
 32
0.0
 13
1.0
 23
0.0
 33
0.0
 40
0.0
 40
0.0
 40
0.0
 40
0.0
 40
1.0
 40
1.0
 40
1.0
 40
2.0
 40
2.0
 40
2.0
 40
3.0
 40
3.0
 40
3.0
 40
4.0
 40
4.0
 40
4.0
 40
5.0
 40
5.0
 40
5.0
 40
6.0
 40
6.0
 40
6.0
 40
7.0
 40
7.0
 40
7.0
 40
8.0
 40
8.0
 40
8.0
 40
8.0
 10
7.396774314681074
 20
-3.166382001139633
 30
0.0
 10
7.396774314681074
 20
-3.166382001139633
 30
0.0
 10
7.396774314691406
 20
-2.935826360813028
 30
0.0
 10
7.396774314691406
 20
-2.935826360813028
 30
0.0
 10
7.396774314691406
 20
-2.935826360813028
 30
0.0
 10
7.393996579299154
 20
-2.935826360812901
 30
0.0
 10
7.393996579299154
 20
-2.935826360812901
 30
0.0
 10
7.393996579299154
 20
-2.935826360812901
 30
0.0
 10
7.39399657930547
 20
-2.795548498264073
 30
0.0
 10
7.39399657930547
 20
-2.795548498264073
 30
0.0
 10
7.39399657930547
 20
-2.795548498264073
 30
0.0
 10
7.489829933831364
 20
-2.799714995392959
 30
0.0
 10
7.489829933831364
 20
-2.799714995392959
 30
0.0
 10
7.489829933831364
 20
-2.799714995392959
 30
0.0
 10
7.489829933830075
 20
-2.828881746830676
 30
0.0
 10
7.489829933830075
 20
-2.828881746830676
 30
0.0
 10
7.425940960167837
 20
-2.880270805258786
 30
0.0
 10
7.425940960166271
 20
-2.914993027481008
 30
0.0
 10
7.489829933825326
 20
-2.934437387157282
 30
0.0
 10
7.489829933825326
 20
-2.934437387157282
 30
0.0
 10
7.489829933814841
 20
-3.167770550948514
 30
0.0
 10
7.489829933814841
 20
-3.167770550948514
 30
0.0
 10
7.457885446984871
 20
-3.167770974802326
 30
0.0
 10
7.427329933814841
 20
-3.167770974800962
 30
0.0
 10
7.396774314681074
 20
-3.166382001139633
 30
0.0
  0
POLYLINE
  5
43
330
1F
100
AcDbEntity
  8
Layer 1
370
     0
100
AcDb2dPolyline
 66
     1
 10
0.0
 20
0.0
 30
0.0
  0
VERTEX
  5
44
330
43
100
AcDbEntity
  8
Layer 1
370
     0
100
AcDbVertex
100
AcDb2dVertex
 10
7.389829870193302
 20
-4.131659778917108
 30
0.0
  0
VERTEX
  5
45
330
43
100
AcDbEntity
  8
Layer 1
370
     0
100
AcDbVertex
100
AcDb2dVertex
 10
7.488440960109629
 20
-4.176104392908075
 30
0.0
  0
VERTEX
  5
46
330
43
100
AcDbEntity
  8
Layer 1
370
     0
100
AcDbVertex
100
AcDb2dVertex
 10
7.48844096010253
 20
-4.334437641470357
 30
0.0
  0
VERTEX
  5
47
330
43
100
AcDbEntity
  8
Layer 1
370
     0
100
AcDbVertex
100
AcDb2dVertex
 10
7.388441002488484
 20
-4.324715249701537
 30
0.0
  0
VERTEX
  5
48
330
43
100
AcDbEntity
  8
Layer 1
370
     0
100
AcDbVertex
100
AcDb2dVertex
 10
7.389829870193302
 20
-4.131659778917108
 30
0.0
  0
SEQEND
  5
49
330
43
100
AcDbEntity
  8
Layer 1
370
     0
  0
SPLINE
  5
4A
330
1F
100
AcDbEntity
  8
Layer 1
370
     0
100
AcDbSpline
210
0.0
220
0.0
230
1.0
 70
    11
 71
     3
 72
    20
 73
    16
 74
     0
 42
0.0000000001
 43
0.0000000001
 12
1.0
 22
0.0
 32
0.0
 13
1.0
 23
0.0
 33
0.0
 40
0.0
 40
0.0
 40
0.0
 40
0.0
 40
1.0
 40
1.0
 40
1.0
 40
2.0
 40
2.0
 40
2.0
 40
3.0
 40
3.0
 40
3.0
 40
4.0
 40
4.0
 40
4.0
 40
5.0
 40
5.0
 40
5.0
 40
5.0
 10
7.44955202877438
 20
-5.531659609377685
 30
0.0
 10
7.416218780211087
 20
-5.553881916369467
 30
0.0
 10
7.400940917663193
 20
-5.533048583035426
 30
0.0
 10
7.402329891325937
 20
-5.470548583035503
 30
0.0
 10
7.402329891325937
 20
-5.470548583035503
 30
0.0
 10
7.38982987014098
 20
-5.296937471923835
 30
0.0
 10
7.38982987014098
 20
-5.296937471923835
 30
0.0
 10
7.431496430843405
 20
-5.306659863690028
 30
0.0
 10
7.464829891333491
 20
-5.302492942711701
 30
0.0
 10
7.4898299337199
 20
-5.283048583039418
 30
0.0
 10
7.4898299337199
 20
-5.283048583039418
 30
0.0
 10
7.489829933711917
 20
-5.460826191275095
 30
0.0
 10
7.489829933711917
 20
-5.460826191275095
 30
0.0
 10
7.457885446881189
 20
-5.477493027482447
 30
0.0
 10
7.443996557991239
 20
-5.501104308135027
 30
0.0
 10
7.44955202877438
 20
-5.531659609377685
 30
0.0
  0
HATCH
  5
4B
330
1F
100
AcDbEntity
  8
Layer 1
 62
   254
420
 15066855
100
AcDbHatch
 10
0.0
 20
0.0
 30
0.0
210
0.0
220
0.0
230
1.0
  2
SOLID
 70
     1
 71
     0
 91
        4
 92
        1
 93
        1
 72
     4
 94
        3
 73
     0
 74
     1
 95
      185
 96
      181
 40
0.0
 40
0.0
 40
0.0
 40
0.0
 40
1.0
 40
1.0
 40
1.0
 40
2.0
 40
2.0
 40
2.0
 40
3.0
 40
3.0
 40
3.0
 40
4.0
 40
4.0
 40
4.0
 40
5.0
 40
5.0
 40
5.0
 40
6.0
 40
6.0
 40
6.0
 40
7.0
 40
7.0
 40
7.0
 40
8.0
 40
8.0
 40
8.0
 40
9.0
 40
9.0
 40
9.0
 40
10.0
 40
10.0
 40
10.0
 40
11.0
 40
11.0
 40
11.0
 40
12.0
 40
12.0
 40
12.0
 40
13.0
 40
13.0
 40
13.0
 40
14.0
 40
14.0
 40
14.0
 40
15.0
 40
15.0
 40
15.0
 40
16.0
 40
16.0
 40
16.0
 40
17.0
 40
17.0
 40
17.0
 40
18.0
 40
18.0
 40
18.0
 40
19.0
 40
19.0
 40
19.0
 40
20.0
 40
20.0
 40
20.0
 40
21.0
 40
21.0
 40
21.0
 40
22.0
 40
22.0
 40
22.0
 40
23.0
 40
23.0
 40
23.0
 40
24.0
 40
24.0
 40
24.0
 40
25.0
 40
25.0
 40
25.0
 40
26.0
 40
26.0
 40
26.0
 40
27.0
 40
27.0
 40
27.0
 40
28.0
 40
28.0
 40
28.0
 40
29.0
 40
29.0
 40
29.0
 40
30.0
 40
30.0
 40
30.0
 40
31.0
 40
31.0
 40
31.0
 40
32.0
 40
32.0
 40
32.0
 40
33.0
 40
33.0
 40
33.0
 40
34.0
 40
34.0
 40
34.0
 40
35.0
 40
35.0
 40
35.0
 40
36.0
 40
36.0
 40
36.0
 40
37.0
 40
37.0
 40
37.0
 40
38.0
 40
38.0
 40
38.0
 40
39.0
 40
39.0
 40
39.0
 40
40.0
 40
40.0
 40
40.0
 40
41.0
 40
41.0
 40
41.0
 40
42.0
 40
42.0
 40
42.0
 40
43.0
 40
43.0
 40
43.0
 40
44.0
 40
44.0
 40
44.0
 40
45.0
 40
45.0
 40
45.0
 40
46.0
 40
46.0
 40
46.0
 40
47.0
 40
47.0
 40
47.0
 40
48.0
 40
48.0
 40
48.0
 40
49.0
 40
49.0
 40
49.0
 40
50.0
 40
50.0
 40
50.0
 40
51.0
 40
51.0
 40
51.0
 40
52.0
 40
52.0
 40
52.0
 40
53.0
 40
53.0
 40
53.0
 40
54.0
 40
54.0
 40
54.0
 40
55.0
 40
55.0
 40
55.0
 40
56.0
 40
56.0
 40
56.0
 40
57.0
 40
57.0
 40
57.0
 40
58.0
 40
58.0
 40
58.0
 40
59.0
 40
59.0
 40
59.0
 40
60.0
 40
60.0
 40
60.0
 40
60.0
 10
7.488440960174178
 20
-2.738604392908074
 10
7.488440960174178
 20
-2.738604392908074
 10
7.110663224782506
 20
-2.726104477662173
 10
7.110663224782506
 20
-2.726104477662173
 10
7.055107669227431
 20
-2.714993536090661
 10
7.024552156057325
 20
-2.716382085893984
 10
7.017607711612325
 20
-2.728882424977857
 10
7.010663267167375
 20
-2.739993366546564
 10
7.02594102375143
 20
-2.762215673540519
 10
7.060663245972263
 20
-2.792771398639742
 10
7.060663245972263
 20
-2.792771398639742
 10
7.055107669217578
 20
-2.934438234848256
 10
7.055107669217578
 20
-2.934438234848256
 10
7.055107669217578
 20
-2.934438234848256
 10
7.048163224763912
 20
-3.139993620861408
 10
7.048163224763912
 20
-3.139993620861408
 10
7.048163224763912
 20
-3.139993620861408
 10
7.02732989143063
 20
-3.138604647200534
 10
7.02732989143063
 20
-3.138604647200534
 10
6.896774314682816
 20
-3.127493705625663
 10
6.823163267148679
 20
-3.156660033204818
 10
6.807885404596668
 20
-3.22749345130852
 10
6.807885404596668
 20
-3.22749345130852
 10
6.764829870230086
 20
-3.312215758299847
 10
6.764829870230086
 20
-3.312215758299847
 10
6.764829870230086
 20
-3.312215758299847
 10
6.668996515700756
 20
-3.384438150059875
 10
6.668996515700756
 20
-3.384438150059875
 10
6.613440960150809
 20
-3.259438150057374
 10
6.531496494516381
 20
-3.196938150053711
 10
6.423163171779328
 20
-3.199716097368714
 10
6.337052050071533
 20
-3.206660541809292
 10
6.270385393999933
 20
-3.235827293244029
 10
6.224552071260657
 20
-3.287215927817694
 10
6.185663192966659
 20
-3.320549176378234
 10
6.164829859631709
 20
-3.356660372259461
 10
6.16066320355968
 20
-3.395549091606072
 10
6.130107637406127
 20
-3.431660287486844
 10
6.120385404585704
 20
-3.471937980493142
 10
6.130107637402388
 20
-3.514993620820178
 10
6.130107637401427
 20
-3.535826954153511
 10
6.137052081845064
 20
-3.553882340167295
 10
6.152329838429346
 20
-3.570549176376744
 10
6.146774261680093
 20
-3.591382509709824
 10
6.149552050053444
 20
-3.609437895723406
 10
6.15927428287134
 20
-3.624715758272663
 10
6.178718748507081
 20
-3.658049006835831
 10
6.199552081839581
 20
-3.676104816705472
 10
6.224552071242972
 20
-3.681660287491089
 10
6.274552050047279
 20
-3.746938234813216
 10
6.331496526279907
 20
-3.767771568149101
 10
6.396774314655254
 20
-3.741382340178941
 10
6.357885436362923
 20
-3.737215843052632
 10
6.342607626796507
 20
-3.726104477627687
 10
6.350940991919742
 20
-3.709438065274551
 10
6.374552113626628
 20
-3.723326954164501
 10
6.398163235333716
 20
-3.731660372269946
 10
6.421774304059201
 20
-3.734437895735633
 10
6.418996515684537
 20
-3.745548837304518
 10
6.418996515683981
 20
-3.758049176388719
 10
6.423163171753635
 20
-3.771938065277785
 10
6.441218716712556
 20
-3.777493536063098
 10
6.459274261671604
 20
-3.780271483383785
 10
6.478718727308937
 20
-3.777493536064791
 10
6.505107637389149
 20
-3.809437810968322
 10
6.524552050044273
 20
-3.813604731948999
 10
6.534274335845843
 20
-3.789993451296216
 10
6.538441044898668
 20
-3.77610456240753
 10
6.549552092431743
 20
-3.77054909162353
 10
6.567607690372622
 20
-3.774715588748904
 10
6.575941002512991
 20
-3.778882085873849
 10
6.584274314653562
 20
-3.778882085874203
 10
6.592607732758197
 20
-3.773326615090077
 10
6.599552177202288
 20
-3.781660033194763
 10
6.605107753950405
 20
-3.785826530319582
 10
6.612052198394899
 20
-3.784437556659971
 10
6.625941087283991
 20
-3.780271059536012
 10
6.639829976172829
 20
-3.781659609341331
 10
6.650941129669213
 20
-3.787215503981593
 10
6.678718907446434
 20
-3.79971541921178
 10
6.695385531728056
 20
-3.788604477643528
 10
6.703718949834006
 20
-3.753882255421685
 10
6.703718949834006
 20
-3.753882255421685
 10
6.728718992220971
 20
-3.721937980520452
 10
6.728718992220971
 20
-3.721937980520452
 10
6.732885701266847
 20
-3.862215843069457
 10
6.809274590152376
 20
-3.937215758301843
 10
6.955107923485279
 20
-3.946938150072709
 10
6.955107923485279
 20
-3.946938150072709
 10
6.867607881086163
 20
-4.24971575830447
 10
6.867607881086163
 20
-4.24971575830447
 10
6.864830145692975
 20
-4.270549091637678
 10
6.856496727587657
 20
-4.291382424970632
 10
6.839830103305555
 20
-4.312215758303233
 10
6.757885637665417
 20
-4.377493705619423
 10
6.705107923462896
 20
-4.445549176401553
 10
6.680107881074137
 20
-4.517771144309513
 10
6.663441256793602
 20
-4.503882255419866
 10
6.649552367905724
 20
-4.481659948425986
 10
6.638441214410502
 20
-4.449715673523138
 10
6.630107902271497
 20
-4.414993451300536
 10
6.610663436634745
 20
-4.405271059535329
 10
6.580107923464007
 20
-4.420548922082793
 10
6.566219034574866
 20
-4.426104392866667
 10
6.550941277989927
 20
-4.424715419206046
 10
6.535663521405215
 20
-4.417770974760919
 10
6.525941341568695
 20
-4.413604477635923
 10
6.518996897124199
 20
-4.414993027440308
 10
6.514830188071705
 20
-4.42193747188455
 10
6.50927461132369
 20
-4.414993027439853
 10
6.500941299183245
 20
-4.412215080119596
 10
6.488441277990356
 20
-4.414993027438919
 10
6.471774600727056
 20
-4.420548498222691
 10
6.460663500212704
 20
-4.412215080117802
 10
6.457885711839531
 20
-4.38999319697963
 10
6.457885711839531
 20
-4.38999319697963
 10
6.455107923465877
 20
-4.378882255410518
 10
6.455107923465877
 20
-4.378882255410518
 10
6.442607902273746
 20
-4.364993366521073
 10
6.427330145688806
 20
-4.363604392860426
 10
6.409274600729177
 20
-4.373326784623941
 10
6.409274600729177
 20
-4.373326784623941
 10
6.364830145686735
 20
-4.409437980504132
 10
6.364830145686735
 20
-4.409437980504132
 10
6.364830145686987
 20
-4.403882509719627
 10
6.363441277991164
 20
-4.396938065275107
 10
6.359274568939352
 20
-4.388604647170546
 10
6.359274568939352
 20
-4.388604647170546
 10
6.330107923465321
 20
-4.391382594489111
 10
6.330107923465321
 20
-4.391382594489111
 10
6.325941267394657
 20
-4.399716012593292
 10
6.325941267394177
 20
-4.410826954162303
 10
6.332885711837914
 20
-4.426104816711434
 10
6.321774611322931
 20
-4.431660287495459
 10
6.309274590130068
 20
-4.434438234814757
 10
6.293996833544977
 20
-4.43582720847404
 10
6.180107934057711
 20
-4.480271822455456
 10
6.125941299177257
 20
-4.545549345917657
 10
6.130107955243804
 20
-4.628882679251167
 10
6.087052420882628
 20
-4.592771483367086
 10
6.080107976436617
 20
-4.627493705589004
 10
6.110663489601999
 20
-4.731660372257036
 10
6.191219034551422
 20
-4.948327123698365
 10
6.343996812327582
 20
-4.984438319587373
 10
6.56899676994855
 20
-4.839993536068833
 10
6.56899676994855
 20
-4.839993536068833
 10
6.567607902252298
 20
-4.842771483388661
 10
6.567607902252298
 20
-4.842771483388661
 10
6.567607902252298
 20
-4.842771483388661
 10
6.612052304310585
 20
-4.856660372279521
 10
6.612052304310585
 20
-4.856660372279521
 10
6.660663415412424
 20
-5.063604731955112
 10
6.807885616435946
 20
-5.195549176406151
 10
7.050941171989002
 20
-5.25110473197262
 10
7.050941171989002
 20
-5.25110473197262
 10
7.034274547695203
 20
-5.533049006874231
 10
7.034274547695203
 20
-5.533049006874231
 10
7.034274547695203
 20
-5.533049006874231
 10
7.028718970946253
 20
-5.546937895762867
 10
7.028718970946253
 20
-5.546937895762867
 10
6.941218928558302
 20
-5.601104477654568
 10
6.953718949750004
 20
-5.624715758308335
 10
7.067607902217382
 20
-5.620548837333621
 10
7.067607902217382
 20
-5.620548837333621
 10
7.487052410240544
 20
-5.610826445588145
 10
7.487052410240544
 20
-5.610826445588145
 10
7.487052410240544
 20
-5.610826445588145
 10
7.487052410108415
 20
-8.553882340227903
 10
7.487052410108415
 20
-8.553882340227903
 10
7.487052410108415
 20
-8.553882340227903
 10
9.427330357428293
 20
-8.553882340315011
 10
9.427330357428293
 20
-8.553882340315011
 10
9.427330357428293
 20
-8.553882340315011
 10
9.427330357810861
 20
-0.0330490069816784
 10
9.427330357810861
 20
-0.0330490069816784
 10
9.427330357810861
 20
-0.0330490069816784
 10
7.488440960295671
 20
-0.0330490068946195
 10
7.488440960295671
 20
-0.0330490068946195
 10
7.488440960295671
 20
-0.0330490068946195
 10
7.488440960174178
 20
-2.738604392908074
 10
7.488440960174178
 20
-2.738604392908074
 97
        0
 97
        0
 92
        1
 93
        1
 72
     4
 94
        3
 73
     0
 74
     1
 95
       29
 96
       25
 40
0.0
 40
0.0
 40
0.0
 40
0.0
 40
1.0
 40
1.0
 40
1.0
 40
2.0
 40
2.0
 40
2.0
 40
3.0
 40
3.0
 40
3.0
 40
4.0
 40
4.0
 40
4.0
 40
5.0
 40
5.0
 40
5.0
 40
6.0
 40
6.0
 40
6.0
 40
7.0
 40
7.0
 40
7.0
 40
8.0
 40
8.0
 40
8.0
 40
8.0
 10
7.396774314681074
 20
-3.166382001139633
 10
7.396774314681074
 20
-3.166382001139633
 10
7.396774314691406
 20
-2.935826360813028
 10
7.396774314691406
 20
-2.935826360813028
 10
7.396774314691406
 20
-2.935826360813028
 10
7.393996579299154
 20
-2.935826360812901
 10
7.393996579299154
 20
-2.935826360812901
 10
7.393996579299154
 20
-2.935826360812901
 10
7.39399657930547
 20
-2.795548498264073
 10
7.39399657930547
 20
-2.795548498264073
 10
7.39399657930547
 20
-2.795548498264073
 10
7.489829933831364
 20
-2.799714995392959
 10
7.489829933831364
 20
-2.799714995392959
 10
7.489829933831364
 20
-2.799714995392959
 10
7.489829933830075
 20
-2.828881746830676
 10
7.489829933830075
 20
-2.828881746830676
 10
7.425940960167837
 20
-2.880270805258786
 10
7.425940960166271
 20
-2.914993027481008
 10
7.489829933825326
 20
-2.934437387157282
 10
7.489829933825326
 20
-2.934437387157282
 10
7.489829933814841
 20
-3.167770550948514
 10
7.489829933814841
 20
-3.167770550948514
 10
7.457885446984871
 20
-3.167770974802326
 10
7.427329933814841
 20
-3.167770974800962
 10
7.396774314681074
 20
-3.166382001139633
 97
        0
 97
        0
 92
        1
 93
        4
 72
     1
 10
7.389829870193302
 20
-4.131659778917108
 11
7.488440960109629
 21
-4.176104392908075
 72
     1
 10
7.488440960109629
 20
-4.176104392908075
 11
7.48844096010253
 21
-4.334437641470357
 72
     1
 10
7.48844096010253
 20
-4.334437641470357
 11
7.388441002488484
 21
-4.324715249701537
 72
     1
 10
7.388441002488484
 20
-4.324715249701537
 11
7.389829870193302
 21
-4.131659778917108
 97
        0
 92
        1
 93
        1
 72
     4
 94
        3
 73
     0
 74
     1
 95
       20
 96
       16
 40
0.0
 40
0.0
 40
0.0
 40
0.0
 40
1.0
 40
1.0
 40
1.0
 40
2.0
 40
2.0
 40
2.0
 40
3.0
 40
3.0
 40
3.0
 40
4.0
 40
4.0
 40
4.0
 40
5.0
 40
5.0
 40
5.0
 40
5.0
 10
7.44955202877438
 20
-5.531659609377685
 10
7.416218780211087
 20
-5.553881916369467
 10
7.400940917663193
 20
-5.533048583035426
 10
7.402329891325937
 20
-5.470548583035503
 10
7.402329891325937
 20
-5.470548583035503
 10
7.38982987014098
 20
-5.296937471923835
 10
7.38982987014098
 20
-5.296937471923835
 10
7.431496430843405
 20
-5.306659863690028
 10
7.464829891333491
 20
-5.302492942711701
 10
7.4898299337199
 20
-5.283048583039418
 10
7.4898299337199
 20
-5.283048583039418
 10
7.489829933711917
 20
-5.460826191275095
 10
7.489829933711917
 20
-5.460826191275095
 10
7.457885446881189
 20
-5.477493027482447
 10
7.443996557991239
 20
-5.501104308135027
 10
7.44955202877438
 20
-5.531659609377685
 97
        0
 97
        0
 75
     2
 76
     1
 98
        0
  0
SPLINE
  5
4C
330
1F
100
AcDbEntity
  8
Layer 1
370
     0
100
AcDbSpline
210
0.0
220
0.0
230
1.0
 70
    11
 71
     3
 72
   155
 73
   151
 74
     0
 42
0.0000000001
 43
0.0000000001
 12
1.0
 22
0.0
 32
0.0
 13
1.0
 23
0.0
 33
0.0
 40
0.0
 40
0.0
 40
0.0
 40
0.0
 40
1.0
 40
1.0
 40
1.0
 40
2.0
 40
2.0
 40
2.0
 40
3.0
 40
3.0
 40
3.0
 40
4.0
 40
4.0
 40
4.0
 40
5.0
 40
5.0
 40
5.0
 40
6.0
 40
6.0
 40
6.0
 40
7.0
 40
7.0
 40
7.0
 40
8.0
 40
8.0
 40
8.0
 40
9.0
 40
9.0
 40
9.0
 40
10.0
 40
10.0
 40
10.0
 40
11.0
 40
11.0
 40
11.0
 40
12.0
 40
12.0
 40
12.0
 40
13.0
 40
13.0
 40
13.0
 40
14.0
 40
14.0
 40
14.0
 40
15.0
 40
15.0
 40
15.0
 40
16.0
 40
16.0
 40
16.0
 40
17.0
 40
17.0
 40
17.0
 40
18.0
 40
18.0
 40
18.0
 40
19.0
 40
19.0
 40
19.0
 40
20.0
 40
20.0
 40
20.0
 40
21.0
 40
21.0
 40
21.0
 40
22.0
 40
22.0
 40
22.0
 40
23.0
 40
23.0
 40
23.0
 40
24.0
 40
24.0
 40
24.0
 40
25.0
 40
25.0
 40
25.0
 40
26.0
 40
26.0
 40
26.0
 40
27.0
 40
27.0
 40
27.0
 40
28.0
 40
28.0
 40
28.0
 40
29.0
 40
29.0
 40
29.0
 40
30.0
 40
30.0
 40
30.0
 40
31.0
 40
31.0
 40
31.0
 40
32.0
 40
32.0
 40
32.0
 40
33.0
 40
33.0
 40
33.0
 40
34.0
 40
34.0
 40
34.0
 40
35.0
 40
35.0
 40
35.0
 40
36.0
 40
36.0
 40
36.0
 40
37.0
 40
37.0
 40
37.0
 40
38.0
 40
38.0
 40
38.0
 40
39.0
 40
39.0
 40
39.0
 40
40.0
 40
40.0
 40
40.0
 40
41.0
 40
41.0
 40
41.0
 40
42.0
 40
42.0
 40
42.0
 40
43.0
 40
43.0
 40
43.0
 40
44.0
 40
44.0
 40
44.0
 40
45.0
 40
45.0
 40
45.0
 40
46.0
 40
46.0
 40
46.0
 40
47.0
 40
47.0
 40
47.0
 40
48.0
 40
48.0
 40
48.0
 40
49.0
 40
49.0
 40
49.0
 40
50.0
 40
50.0
 40
50.0
 40
50.0
 10
11.27895854061141
 20
-3.305558161999594
 30
0.0
 10
11.27895854061141
 20
-3.305558161999594
 30
0.0
 10
10.8581253768178
 20
-3.358335770216374
 30
0.0
 10
10.8581253768178
 20
-3.358335770216374
 30
0.0
 10
10.85118093237492
 20
-3.323613547993848
 30
0.0
 10
10.84145854061222
 20
-3.287502352111257
 30
0.0
 10
10.82895904924003
 20
-3.254169103548394
 30
0.0
 10
10.77340349369125
 20
-3.102780299428079
 30
0.0
 10
10.69840315461352
 20
-2.959724489555987
 30
0.0
 10
10.60951477435684
 20
-2.827780045107551
 30
0.0
 10
10.56368161056854
 20
-2.762502097785626
 30
0.0
 10
10.51507049946031
 20
-2.698613547978741
 30
0.0
 10
10.46229289122731
 20
-2.638891071441018
 30
0.0
 10
10.43590366325558
 20
-2.608335346342174
 30
0.0
 10
10.41090383279925
 20
-2.573613124118815
 30
0.0
 10
10.38034810770291
 20
-2.544446796534986
 30
0.0
 10
10.35395887973128
 20
-2.511113547971516
 30
0.0
 10
10.30257066901236
 20
-2.476391325746994
 30
0.0
 10
10.25534810770543
 20
-2.487502267313883
 30
0.0
 10
10.24284776862113
 20
-2.490280214633205
 30
0.0
 10
10.19701460482863
 20
-2.518057992408911
 30
0.0
 10
10.18590366326008
 20
-2.508335600644108
 30
0.0
 10
10.22201443528562
 20
-2.538891325743382
 30
0.0
 10
10.2345147743672
 20
-2.59722440476412
 30
0.0
 10
10.23868127148969
 20
-2.643057992410781
 30
0.0
 10
10.24840366325073
 20
-2.716668933980246
 30
0.0
 10
10.26784759906518
 20
-2.798613717509751
 30
0.0
 10
10.27062554638168
 20
-2.873613632738827
 30
0.0
 10
10.27340349369756
 20
-2.962502436856792
 30
0.0
 10
10.24701426572068
 20
-3.047224743848877
 30
0.0
 10
10.19145871016195
 20
-3.118058161950759
 30
0.0
 10
10.14006965172808
 20
-3.1819471356084
 30
0.0
 10
10.08590349368508
 20
-3.240280214626157
 30
0.0
 10
10.0247920434875
 20
-3.291669273054392
 30
0.0
 10
9.969236487929669
 20
-3.341669357822941
 30
0.0
 10
9.903958540608123
 20
-3.37916910350686
 30
0.0
 10
9.834514096162618
 20
-3.402780384156964
 30
0.0
 10
9.759513757077356
 20
-3.426391664806816
 30
0.0
 10
9.68729221302202
 20
-3.45972491336584
 30
0.0
 10
9.627569312629221
 20
-3.508336024474273
 30
0.0
 10
9.565069312627
 20
-3.558336109242519
 30
0.0
 10
9.494236318374481
 20
-3.633336024468286
 30
0.0
 10
9.487291873926349
 20
-3.715280384141376
 30
0.0
 10
9.480347429477812
 20
-3.80694713557879
 30
0.0
 10
9.547013926599043
 20
-3.880558077150782
 30
0.0
 10
9.595625037707123
 20
-3.948613547937485
 30
0.0
 10
9.634513757051485
 20
-4.002780129834845
 30
0.0
 10
9.655347090379513
 20
-4.120835685391335
 30
0.0
 10
9.655347090379513
 20
-4.120835685391335
 30
0.0
 10
9.655347090379513
 20
-4.120835685391335
 30
0.0
 10
9.734513926591767
 20
-4.043057822846044
 30
0.0
 10
9.788680084632132
 20
-4.043057822848494
 30
0.0
 10
9.82756880397892
 20
-4.043057822850238
 30
0.0
 10
9.866457523325101
 20
-4.05694671174087
 30
0.0
 10
9.902569143061958
 20
-4.069446626971436
 30
0.0
 10
10.08312469861504
 20
-4.123613208875162
 30
0.0
 10
10.26229170436469
 20
-4.151390986660974
 30
0.0
 10
10.44284725992343
 20
-4.0805575685647
 30
0.0
 10
10.57618025417484
 20
-4.029168510139698
 30
0.0
 10
10.70812469862272
 20
-3.952779621256746
 30
0.0
 10
10.78868093235203
 20
-3.833335515900115
 30
0.0
 10
10.80812571588194
 20
-3.805557738123197
 30
0.0
 10
10.82201460477214
 20
-3.776390986686111
 30
0.0
 10
10.83451409614721
 20
-3.745835685444263
 30
0.0
 10
10.83451409614721
 20
-3.745835685444263
 30
0.0
 10
11.2817364879083
 20
-3.81805807722867
 30
0.0
 10
11.2817364879083
 20
-3.81805807722867
 30
0.0
 10
11.2817364879083
 20
-3.81805807722867
 30
0.0
 10
11.28173648787975
 20
-4.45416901879768
 30
0.0
 10
11.28173648787975
 20
-4.45416901879768
 30
0.0
 10
11.28173648787975
 20
-4.45416901879768
 30
0.0
 10
10.83451409611219
 20
-4.526391410541919
 30
0.0
 10
10.83451409611219
 20
-4.526391410541919
 30
0.0
 10
10.82201375702935
 20
-4.495835685443707
 30
0.0
 10
10.80812486814168
 20
-4.468057907665298
 30
0.0
 10
10.78868093232485
 20
-4.438891580081973
 30
0.0
 10
10.70951409612144
 20
-4.319447050862916
 30
0.0
 10
10.57618110187574
 20
-4.243058161968039
 30
0.0
 10
10.44284725991843
 20
-4.191669527386314
 30
0.0
 10
10.26229170436606
 20
-4.120836109273821
 30
0.0
 10
10.08312469861393
 20
-4.148613887043565
 30
0.0
 10
9.902569143055945
 20
-4.202780468931071
 30
0.0
 10
9.86645837102853
 20
-4.213891410498465
 30
0.0
 10
9.827568803970582
 20
-4.22916927304555
 30
0.0
 10
9.788680084623794
 20
-4.229169273043807
 30
0.0
 10
9.735902476388118
 20
-4.229169273041432
 30
0.0
 10
9.655347090378148
 20
-4.151391410488992
 30
0.0
 10
9.655347090378148
 20
-4.151391410488992
 30
0.0
 10
9.655347090378148
 20
-4.151391410488992
 30
0.0
 10
9.633125207234823
 20
-4.269446966043536
 30
0.0
 10
9.595625037690297
 20
-4.323613547937486
 30
0.0
 10
9.547013926576103
 20
-4.391669018719792
 30
0.0
 10
9.480347429448253
 20
-4.465280384141048
 30
0.0
 10
9.487291873888553
 20
-4.556946711723842
 30
0.0
 10
9.49423631832936
 20
-4.638891071397564
 30
0.0
 10
9.565069312575057
 20
-4.715279960289611
 30
0.0
 10
9.627569312572884
 20
-4.763891071403527
 30
0.0
 10
9.687291365250731
 20
-4.813891156177255
 30
0.0
 10
9.760902306818327
 20
-4.845835431082908
 30
0.0
 10
9.83451409609678
 20
-4.869446711739429
 30
0.0
 10
9.903958540540163
 20
-4.893057992395774
 30
0.0
 10
9.969236487858325
 20
-4.930557738085554
 30
0.0
 10
10.02479204341166
 20
-4.98055782285908
 30
0.0
 10
10.08451409608945
 20
-5.031946881292748
 30
0.0
 10
10.14006965164233
 20
-5.09166893397537
 30
0.0
 10
10.19145871007054
 20
-5.154168933977669
 30
0.0
 10
10.24701426562291
 20
-5.225002352084553
 30
0.0
 10
10.27340349359216
 20
-5.309724659079014
 30
0.0
 10
10.27062554626835
 20
-5.398613463196726
 30
0.0
 10
10.26784759894508
 20
-5.473613378425549
 30
0.0
 10
10.2484036631232
 20
-5.556946711758024
 30
0.0
 10
10.23868127135564
 20
-5.629169103521892
 30
0.0
 10
10.23451477422906
 20
-5.67361371750826
 30
0.0
 10
10.22201443514218
 20
-5.733335770187801
 30
0.0
 10
10.1859036631139
 20
-5.76389149528384
 30
0.0
 10
10.19840400219856
 20
-5.754169103520073
 30
0.0
 10
10.24423716598848
 20
-5.783335854959861
 30
0.0
 10
10.25534810755739
 20
-5.784724828620306
 30
0.0
 10
10.30395921866804
 20
-5.795836194046741
 30
0.0
 10
10.35395887958536
 20
-5.761113547971515
 30
0.0
 10
10.38034810755996
 20
-5.72778029941042
 30
0.0
 10
10.41229238246357
 20
-5.700002521634082
 30
0.0
 10
10.4359036631184
 20
-5.663891325752981
 30
0.0
 10
10.46229289109285
 20
-5.633336024511764
 30
0.0
 10
10.51507049933116
 20
-5.575002521638705
 30
0.0
 10
10.56368161044515
 20
-5.51111397183619
 30
0.0
 10
10.60951477423936
 20
-5.444447050858444
 30
0.0
 10
10.69840400221837
 20
-5.312502606417992
 30
0.0
 10
10.77340349359848
 20
-5.169447220407871
 30
0.0
 10
10.82895904916086
 20
-5.018057992437307
 30
0.0
 10
10.84145938824652
 20
-4.984724743875581
 30
0.0
 10
10.85118093230191
 20
-4.950002521653787
 30
0.0
 10
10.85812537674797
 20
-4.913891325771929
 30
0.0
 10
10.85812537674797
 20
-4.913891325771929
 30
0.0
 10
11.27895854053683
 20
-4.966668934026504
 30
0.0
 10
11.27895854053683
 20
-4.966668934026504
 30
0.0
 10
11.27895854053683
 20
-4.966668934026504
 30
0.0
 10
11.27895854037635
 20
-8.541668849255453
 30
0.0
 10
11.27895854037635
 20
-8.541668849255453
 30
0.0
 10
11.27895854037635
 20
-8.541668849255453
 30
0.0
 10
13.21923648769623
 20
-8.541668849342562
 30
0.0
 10
13.21923648769623
 20
-8.541668849342562
 30
0.0
 10
13.21923648769623
 20
-8.541668849342562
 30
0.0
 10
13.21923648807842
 20
-0.0291693579688652
 30
0.0
 10
13.21923648807842
 20
-0.0291693579688652
 30
0.0
 10
13.21923648807842
 20
-0.0291693579688652
 30
0.0
 10
11.27895854075854
 20
-0.0291693578817558
 30
0.0
 10
11.27895854075854
 20
-0.0291693578817558
 30
0.0
 10
11.27895854075854
 20
-0.0291693578817558
 30
0.0
 10
11.27895854061141
 20
-3.305558161999594
 30
0.0
 10
11.27895854061141
 20
-3.305558161999594
 30
0.0
  0
SPLINE
  5
4D
330
1F
100
AcDbEntity
  8
Layer 1
370
     0
100
AcDbSpline
210
0.0
220
0.0
230
1.0
 70
    11
 71
     3
 72
    17
 73
    13
 74
     0
 42
0.0000000001
 43
0.0000000001
 12
1.0
 22
0.0
 32
0.0
 13
1.0
 23
0.0
 33
0.0
 40
0.0
 40
0.0
 40
0.0
 40
0.0
 40
1.0
 40
1.0
 40
1.0
 40
2.0
 40
2.0
 40
2.0
 40
3.0
 40
3.0
 40
3.0
 40
4.0
 40
4.0
 40
4.0
 40
4.0
 10
9.733124529086883
 20
-3.813891580034579
 30
0.0
 10
9.699790856670056
 20
-3.79722474382432
 30
0.0
 10
9.687291365298178
 20
-3.756947050817012
 30
0.0
 10
9.70395820150841
 20
-3.725002775915426
 30
0.0
 10
9.720625037718643
 20
-3.691669527353901
 30
0.0
 10
9.762291704385815
 20
-3.680558161931508
 30
0.0
 10
9.795624529092088
 20
-3.697224998141766
 30
0.0
 10
9.828958201508865
 20
-3.713891834352024
 30
0.0
 10
9.841457692880795
 20
-3.754169527359307
 30
0.0
 10
9.824790856670562
 20
-3.786113802260918
 30
0.0
 10
9.808124868170882
 20
-3.818058077162505
 30
0.0
 10
9.76645820150366
 20
-3.830558416244836
 30
0.0
 10
9.733124529086883
 20
-3.813891580034579
 30
0.0
  0
SPLINE
  5
4E
330
1F
100
AcDbEntity
  8
Layer 1
370
     0
100
AcDbSpline
210
0.0
220
0.0
230
1.0
 70
    11
 71
     3
 72
    44
 73
    40
 74
     0
 42
0.0000000001
 43
0.0000000001
 12
1.0
 22
0.0
 32
0.0
 13
1.0
 23
0.0
 33
0.0
 40
0.0
 40
0.0
 40
0.0
 40
0.0
 40
1.0
 40
1.0
 40
1.0
 40
2.0
 40
2.0
 40
2.0
 40
3.0
 40
3.0
 40
3.0
 40
4.0
 40
4.0
 40
4.0
 40
5.0
 40
5.0
 40
5.0
 40
6.0
 40
6.0
 40
6.0
 40
7.0
 40
7.0
 40
7.0
 40
8.0
 40
8.0
 40
8.0
 40
9.0
 40
9.0
 40
9.0
 40
10.0
 40
10.0
 40
10.0
 40
11.0
 40
11.0
 40
11.0
 40
12.0
 40
12.0
 40
12.0
 40
13.0
 40
13.0
 40
13.0
 40
13.0
 10
10.49145837104708
 20
-3.801391664839684
 30
0.0
 10
10.48868042372654
 20
-3.815280553728447
 30
0.0
 10
10.48729187392145
 20
-3.825002945492694
 30
0.0
 10
10.48729187392099
 20
-3.834724913401765
 30
0.0
 10
10.48312537679526
 20
-3.861113717519427
 30
0.0
 10
10.46784709039043
 20
-3.877780553727512
 30
0.0
 10
10.44840315457158
 20
-3.893058416275456
 30
0.0
 10
10.3803472599297
 20
-3.940280553723571
 30
0.0
 10
10.28451443522322
 20
-3.927780638490326
 30
0.0
 10
10.23173682699048
 20
-3.862502691168073
 30
0.0
 10
10.1886816105216
 20
-3.808336109270511
 30
0.0
 10
10.18590366320506
 20
-3.733336194041461
 30
0.0
 10
10.22479238255427
 20
-3.679169188292336
 30
0.0
 10
10.16229238255321
 20
-3.702780468942743
 30
0.0
 10
10.08729204346992
 20
-3.683335685410712
 30
0.0
 10
10.04423682700099
 20
-3.629169103513176
 30
0.0
 10
9.99145921876824
 20
-3.563891156190923
 30
0.0
 10
10.00118161053671
 20
-3.470835854948948
 30
0.0
 10
10.06368161053923
 20
-3.415280299396196
 30
0.0
 10
10.07757049942863
 20
-3.404169357827818
 30
0.0
 10
10.09701528295768
 20
-3.394446966064379
 30
0.0
 10
10.11645921877597
 20
-3.391669018745359
 30
0.0
 10
10.12618161054039
 20
-3.38889107142591
 30
0.0
 10
10.13590400230462
 20
-3.391669018746243
 30
0.0
 10
10.14562554635843
 20
-3.391669018746673
 30
0.0
 10
10.149792043483
 20
-3.39166901874685
 30
0.0
 10
10.15951443524732
 20
-3.391669018747304
 30
0.0
 10
10.16507032988693
 20
-3.39444696606741
 30
0.0
 10
10.16507032988693
 20
-3.39444696606741
 30
0.0
 10
10.47618178008153
 20
-3.411113802290149
 30
0.0
 10
10.47618178008153
 20
-3.411113802290149
 30
0.0
 10
10.47618178008153
 20
-3.411113802290149
 30
0.0
 10
10.56368161053923
 20
-3.415280299418656
 30
0.0
 10
10.56368161053923
 20
-3.415280299418656
 30
0.0
 10
10.56368161053923
 20
-3.415280299418656
 30
0.0
 10
10.54701477432652
 20
-3.502780129875797
 30
0.0
 10
10.54701477432652
 20
-3.502780129875797
 30
0.0
 10
10.54701477432652
 20
-3.502780129875797
 30
0.0
 10
10.49145837104708
 20
-3.801391664839684
 30
0.0
 10
10.49145837104708
 20
-3.801391664839684
 30
0.0
  0
SPLINE
  5
4F
330
1F
100
AcDbEntity
  8
Layer 1
370
     0
100
AcDbSpline
210
0.0
220
0.0
230
1.0
 70
    11
 71
     3
 72
    17
 73
    13
 74
     0
 42
0.0000000001
 43
0.0000000001
 12
1.0
 22
0.0
 32
0.0
 13
1.0
 23
0.0
 33
0.0
 40
0.0
 40
0.0
 40
0.0
 40
0.0
 40
1.0
 40
1.0
 40
1.0
 40
2.0
 40
2.0
 40
2.0
 40
3.0
 40
3.0
 40
3.0
 40
4.0
 40
4.0
 40
4.0
 40
4.0
 10
10.86368042373452
 20
-3.637502521654344
 30
0.0
 10
10.87340281550117
 20
-3.586113463223783
 30
0.0
 10
10.87618076282347
 20
-3.531946881328293
 30
0.0
 10
10.87340281550602
 20
-3.477780299432551
 30
0.0
 10
10.87340281550602
 20
-3.477780299432551
 30
0.0
 10
11.278958540606
 20
-3.426391241019776
 30
0.0
 10
11.278958540606
 20
-3.426391241019776
 30
0.0
 10
11.278958540606
 20
-3.426391241019776
 30
0.0
 10
11.27895854059352
 20
-3.704169018797554
 30
0.0
 10
11.27895854059352
 20
-3.704169018797554
 30
0.0
 10
11.27895854059352
 20
-3.704169018797554
 30
0.0
 10
10.86368042373452
 20
-3.637502521654344
 30
0.0
 10
10.86368042373452
 20
-3.637502521654344
 30
0.0
  0
SPLINE
  5
50
330
1F
100
AcDbEntity
  8
Layer 1
370
     0
100
AcDbSpline
210
0.0
220
0.0
230
1.0
 70
    11
 71
     3
 72
    17
 73
    13
 74
     0
 42
0.0000000001
 43
0.0000000001
 12
1.0
 22
0.0
 32
0.0
 13
1.0
 23
0.0
 33
0.0
 40
0.0
 40
0.0
 40
0.0
 40
0.0
 40
1.0
 40
1.0
 40
1.0
 40
2.0
 40
2.0
 40
2.0
 40
3.0
 40
3.0
 40
3.0
 40
4.0
 40
4.0
 40
4.0
 40
4.0
 10
9.70395820147102
 20
-4.55694713558882
 30
0.0
 10
9.687291365263768
 20
-4.523613887025779
 30
0.0
 10
9.699791704349789
 20
-4.483336194019608
 30
0.0
 10
9.733124529057477
 20
-4.468058331472295
 30
0.0
 10
9.76645820147577
 20
-4.451391495265018
 30
0.0
 10
9.80812486814188
 20
-4.463891834351089
 30
0.0
 10
9.82479085663873
 20
-4.495836109254191
 30
0.0
 10
9.84145769284598
 20
-4.529169357817207
 30
0.0
 10
9.82895735375996
 20
-4.569447050823379
 30
0.0
 10
9.795624529052272
 20
-4.584724913370716
 30
0.0
 10
9.762291704344483
 20
-4.601391749577993
 30
0.0
 10
9.720625037678372
 20
-4.588891410491922
 30
0.0
 10
9.70395820147102
 20
-4.55694713558882
 30
0.0
  0
SPLINE
  5
51
330
1F
100
AcDbEntity
  8
Layer 1
370
     0
100
AcDbSpline
210
0.0
220
0.0
230
1.0
 70
    11
 71
     3
 72
    44
 73
    40
 74
     0
 42
0.0000000001
 43
0.0000000001
 12
1.0
 22
0.0
 32
0.0
 13
1.0
 23
0.0
 33
0.0
 40
0.0
 40
0.0
 40
0.0
 40
0.0
 40
1.0
 40
1.0
 40
1.0
 40
2.0
 40
2.0
 40
2.0
 40
3.0
 40
3.0
 40
3.0
 40
4.0
 40
4.0
 40
4.0
 40
5.0
 40
5.0
 40
5.0
 40
6.0
 40
6.0
 40
6.0
 40
7.0
 40
7.0
 40
7.0
 40
8.0
 40
8.0
 40
8.0
 40
9.0
 40
9.0
 40
9.0
 40
10.0
 40
10.0
 40
10.0
 40
11.0
 40
11.0
 40
11.0
 40
12.0
 40
12.0
 40
12.0
 40
13.0
 40
13.0
 40
13.0
 40
13.0
 10
10.11506897348302
 20
-4.888891495280657
 30
0.0
 10
10.09562418995453
 20
-4.886113547959919
 30
0.0
 10
10.07618025413674
 20
-4.877780553709928
 30
0.0
 10
10.06229136524841
 20
-4.865280214625096
 30
0.0
 10
9.999791365250985
 20
-4.808335685406797
 30
0.0
 10
9.990068973490754
 20
-4.716668933968625
 30
0.0
 10
10.04284658172936
 20
-4.651391410506372
 30
0.0
 10
10.08590179820319
 20
-4.597224828612702
 30
0.0
 10
10.16090213728825
 20
-4.577780468942668
 30
0.0
 10
10.22340213728719
 20
-4.601391325743432
 30
0.0
 10
10.18451341794283
 20
-4.547224743846073
 30
0.0
 10
10.18729136526609
 20
-4.472224828617249
 30
0.0
 10
10.23034658173987
 20
-4.418057822868326
 30
0.0
 10
10.28312418997848
 20
-4.352779875550823
 30
0.0
 10
10.38034641220126
 20
-4.340279960326218
 30
0.0
 10
10.4470129093237
 20
-4.387502097780372
 30
0.0
 10
10.46645769285159
 20
-4.404168933990023
 30
0.0
 10
10.48034658173972
 20
-4.420835346344171
 30
0.0
 10
10.48590162866786
 20
-4.445835600657574
 30
0.0
 10
10.48590162866741
 20
-4.455557992421896
 30
0.0
 10
10.48867957598688
 20
-4.465279960331069
 30
0.0
 10
10.49006812579091
 20
-4.479168849220033
 30
0.0
 10
10.49006812579091
 20
-4.479168849220033
 30
0.0
 10
10.5428457340132
 20
-4.777779960333519
 30
0.0
 10
10.5428457340132
 20
-4.777779960333519
 30
0.0
 10
10.5428457340132
 20
-4.777779960333519
 30
0.0
 10
10.55951257021803
 20
-4.865279790792152
 30
0.0
 10
10.55951257021803
 20
-4.865279790792152
 30
0.0
 10
10.55951257021803
 20
-4.865279790792152
 30
0.0
 10
10.47201273975998
 20
-4.869446287912802
 30
0.0
 10
10.47201273975998
 20
-4.869446287912802
 30
0.0
 10
10.47201273975998
 20
-4.869446287912802
 30
0.0
 10
10.1609012895639
 20
-4.886113124107598
 30
0.0
 10
10.1609012895639
 20
-4.886113124107598
 30
0.0
 10
10.15673479243919
 20
-4.888891071427275
 30
0.0
 10
10.14701240067486
 20
-4.88889107142687
 30
0.0
 10
10.14145650603511
 20
-4.888891071426618
 30
0.0
 10
10.13451375701167
 20
-4.888891495281541
 30
0.0
 10
10.12479136524725
 20
-4.89166944260099
 30
0.0
 10
10.11506897348302
 20
-4.888891495280657
 30
0.0
  0
SPLINE
  5
52
330
1F
100
AcDbEntity
  8
Layer 1
370
     0
100
AcDbSpline
210
0.0
220
0.0
230
1.0
 70
    11
 71
     3
 72
    17
 73
    13
 74
     0
 42
0.0000000001
 43
0.0000000001
 12
1.0
 22
0.0
 32
0.0
 13
1.0
 23
0.0
 33
0.0
 40
0.0
 40
0.0
 40
0.0
 40
0.0
 40
1.0
 40
1.0
 40
1.0
 40
2.0
 40
2.0
 40
2.0
 40
3.0
 40
3.0
 40
3.0
 40
4.0
 40
4.0
 40
4.0
 40
4.0
 10
10.87201341793131
 20
-4.80416918832139
 30
0.0
 10
10.87479136525361
 20
-4.750002606425899
 30
0.0
 10
10.87201341793616
 20
-4.695836024530156
 30
0.0
 10
10.86229102617416
 20
-4.644446966098712
 30
0.0
 10
10.86229102617416
 20
-4.644446966098712
 30
0.0
 10
11.27756914303912
 20
-4.577780468992791
 30
0.0
 10
11.27756914303912
 20
-4.577780468992791
 30
0.0
 10
11.27756914303912
 20
-4.577780468992791
 30
0.0
 10
11.27756914302664
 20
-4.855558246770569
 30
0.0
 10
11.27756914302664
 20
-4.855558246770569
 30
0.0
 10
11.27756914302664
 20
-4.855558246770569
 30
0.0
 10
10.87201341793131
 20
-4.80416918832139
 30
0.0
 10
10.87201341793131
 20
-4.80416918832139
 30
0.0
  0
HATCH
  5
53
330
1F
100
AcDbEntity
  8
Layer 1
 62
   254
420
 15066855
100
AcDbHatch
 10
0.0
 20
0.0
 30
0.0
210
0.0
220
0.0
230
1.0
  2
SOLID
 70
     1
 71
     0
 91
        7
 92
        1
 93
        1
 72
     4
 94
        3
 73
     0
 74
     1
 95
      155
 96
      151
 40
0.0
 40
0.0
 40
0.0
 40
0.0
 40
1.0
 40
1.0
 40
1.0
 40
2.0
 40
2.0
 40
2.0
 40
3.0
 40
3.0
 40
3.0
 40
4.0
 40
4.0
 40
4.0
 40
5.0
 40
5.0
 40
5.0
 40
6.0
 40
6.0
 40
6.0
 40
7.0
 40
7.0
 40
7.0
 40
8.0
 40
8.0
 40
8.0
 40
9.0
 40
9.0
 40
9.0
 40
10.0
 40
10.0
 40
10.0
 40
11.0
 40
11.0
 40
11.0
 40
12.0
 40
12.0
 40
12.0
 40
13.0
 40
13.0
 40
13.0
 40
14.0
 40
14.0
 40
14.0
 40
15.0
 40
15.0
 40
15.0
 40
16.0
 40
16.0
 40
16.0
 40
17.0
 40
17.0
 40
17.0
 40
18.0
 40
18.0
 40
18.0
 40
19.0
 40
19.0
 40
19.0
 40
20.0
 40
20.0
 40
20.0
 40
21.0
 40
21.0
 40
21.0
 40
22.0
 40
22.0
 40
22.0
 40
23.0
 40
23.0
 40
23.0
 40
24.0
 40
24.0
 40
24.0
 40
25.0
 40
25.0
 40
25.0
 40
26.0
 40
26.0
 40
26.0
 40
27.0
 40
27.0
 40
27.0
 40
28.0
 40
28.0
 40
28.0
 40
29.0
 40
29.0
 40
29.0
 40
30.0
 40
30.0
 40
30.0
 40
31.0
 40
31.0
 40
31.0
 40
32.0
 40
32.0
 40
32.0
 40
33.0
 40
33.0
 40
33.0
 40
34.0
 40
34.0
 40
34.0
 40
35.0
 40
35.0
 40
35.0
 40
36.0
 40
36.0
 40
36.0
 40
37.0
 40
37.0
 40
37.0
 40
38.0
 40
38.0
 40
38.0
 40
39.0
 40
39.0
 40
39.0
 40
40.0
 40
40.0
 40
40.0
 40
41.0
 40
41.0
 40
41.0
 40
42.0
 40
42.0
 40
42.0
 40
43.0
 40
43.0
 40
43.0
 40
44.0
 40
44.0
 40
44.0
 40
45.0
 40
45.0
 40
45.0
 40
46.0
 40
46.0
 40
46.0
 40
47.0
 40
47.0
 40
47.0
 40
48.0
 40
48.0
 40
48.0
 40
49.0
 40
49.0
 40
49.0
 40
50.0
 40
50.0
 40
50.0
 40
50.0
 10
11.27895854061141
 20
-3.305558161999594
 10
11.27895854061141
 20
-3.305558161999594
 10
10.8581253768178
 20
-3.358335770216374
 10
10.8581253768178
 20
-3.358335770216374
 10
10.85118093237492
 20
-3.323613547993848
 10
10.84145854061222
 20
-3.287502352111257
 10
10.82895904924003
 20
-3.254169103548394
 10
10.77340349369125
 20
-3.102780299428079
 10
10.69840315461352
 20
-2.959724489555987
 10
10.60951477435684
 20
-2.827780045107551
 10
10.56368161056854
 20
-2.762502097785626
 10
10.51507049946031
 20
-2.698613547978741
 10
10.46229289122731
 20
-2.638891071441018
 10
10.43590366325558
 20
-2.608335346342174
 10
10.41090383279925
 20
-2.573613124118815
 10
10.38034810770291
 20
-2.544446796534986
 10
10.35395887973128
 20
-2.511113547971516
 10
10.30257066901236
 20
-2.476391325746994
 10
10.25534810770543
 20
-2.487502267313883
 10
10.24284776862113
 20
-2.490280214633205
 10
10.19701460482863
 20
-2.518057992408911
 10
10.18590366326008
 20
-2.508335600644108
 10
10.22201443528562
 20
-2.538891325743382
 10
10.2345147743672
 20
-2.59722440476412
 10
10.23868127148969
 20
-2.643057992410781
 10
10.24840366325073
 20
-2.716668933980246
 10
10.26784759906518
 20
-2.798613717509751
 10
10.27062554638168
 20
-2.873613632738827
 10
10.27340349369756
 20
-2.962502436856792
 10
10.24701426572068
 20
-3.047224743848877
 10
10.19145871016195
 20
-3.118058161950759
 10
10.14006965172808
 20
-3.1819471356084
 10
10.08590349368508
 20
-3.240280214626157
 10
10.0247920434875
 20
-3.291669273054392
 10
9.969236487929669
 20
-3.341669357822941
 10
9.903958540608123
 20
-3.37916910350686
 10
9.834514096162618
 20
-3.402780384156964
 10
9.759513757077356
 20
-3.426391664806816
 10
9.68729221302202
 20
-3.45972491336584
 10
9.627569312629221
 20
-3.508336024474273
 10
9.565069312627
 20
-3.558336109242519
 10
9.494236318374481
 20
-3.633336024468286
 10
9.487291873926349
 20
-3.715280384141376
 10
9.480347429477812
 20
-3.80694713557879
 10
9.547013926599043
 20
-3.880558077150782
 10
9.595625037707123
 20
-3.948613547937485
 10
9.634513757051485
 20
-4.002780129834845
 10
9.655347090379513
 20
-4.120835685391335
 10
9.655347090379513
 20
-4.120835685391335
 10
9.655347090379513
 20
-4.120835685391335
 10
9.734513926591767
 20
-4.043057822846044
 10
9.788680084632132
 20
-4.043057822848494
 10
9.82756880397892
 20
-4.043057822850238
 10
9.866457523325101
 20
-4.05694671174087
 10
9.902569143061958
 20
-4.069446626971436
 10
10.08312469861504
 20
-4.123613208875162
 10
10.26229170436469
 20
-4.151390986660974
 10
10.44284725992343
 20
-4.0805575685647
 10
10.57618025417484
 20
-4.029168510139698
 10
10.70812469862272
 20
-3.952779621256746
 10
10.78868093235203
 20
-3.833335515900115
 10
10.80812571588194
 20
-3.805557738123197
 10
10.82201460477214
 20
-3.776390986686111
 10
10.83451409614721
 20
-3.745835685444263
 10
10.83451409614721
 20
-3.745835685444263
 10
11.2817364879083
 20
-3.81805807722867
 10
11.2817364879083
 20
-3.81805807722867
 10
11.2817364879083
 20
-3.81805807722867
 10
11.28173648787975
 20
-4.45416901879768
 10
11.28173648787975
 20
-4.45416901879768
 10
11.28173648787975
 20
-4.45416901879768
 10
10.83451409611219
 20
-4.526391410541919
 10
10.83451409611219
 20
-4.526391410541919
 10
10.82201375702935
 20
-4.495835685443707
 10
10.80812486814168
 20
-4.468057907665298
 10
10.78868093232485
 20
-4.438891580081973
 10
10.70951409612144
 20
-4.319447050862916
 10
10.57618110187574
 20
-4.243058161968039
 10
10.44284725991843
 20
-4.191669527386314
 10
10.26229170436606
 20
-4.120836109273821
 10
10.08312469861393
 20
-4.148613887043565
 10
9.902569143055945
 20
-4.202780468931071
 10
9.86645837102853
 20
-4.213891410498465
 10
9.827568803970582
 20
-4.22916927304555
 10
9.788680084623794
 20
-4.229169273043807
 10
9.735902476388118
 20
-4.229169273041432
 10
9.655347090378148
 20
-4.151391410488992
 10
9.655347090378148
 20
-4.151391410488992
 10
9.655347090378148
 20
-4.151391410488992
 10
9.633125207234823
 20
-4.269446966043536
 10
9.595625037690297
 20
-4.323613547937486
 10
9.547013926576103
 20
-4.391669018719792
 10
9.480347429448253
 20
-4.465280384141048
 10
9.487291873888553
 20
-4.556946711723842
 10
9.49423631832936
 20
-4.638891071397564
 10
9.565069312575057
 20
-4.715279960289611
 10
9.627569312572884
 20
-4.763891071403527
 10
9.687291365250731
 20
-4.813891156177255
 10
9.760902306818327
 20
-4.845835431082908
 10
9.83451409609678
 20
-4.869446711739429
 10
9.903958540540163
 20
-4.893057992395774
 10
9.969236487858325
 20
-4.930557738085554
 10
10.02479204341166
 20
-4.98055782285908
 10
10.08451409608945
 20
-5.031946881292748
 10
10.14006965164233
 20
-5.09166893397537
 10
10.19145871007054
 20
-5.154168933977669
 10
10.24701426562291
 20
-5.225002352084553
 10
10.27340349359216
 20
-5.309724659079014
 10
10.27062554626835
 20
-5.398613463196726
 10
10.26784759894508
 20
-5.473613378425549
 10
10.2484036631232
 20
-5.556946711758024
 10
10.23868127135564
 20
-5.629169103521892
 10
10.23451477422906
 20
-5.67361371750826
 10
10.22201443514218
 20
-5.733335770187801
 10
10.1859036631139
 20
-5.76389149528384
 10
10.19840400219856
 20
-5.754169103520073
 10
10.24423716598848
 20
-5.783335854959861
 10
10.25534810755739
 20
-5.784724828620306
 10
10.30395921866804
 20
-5.795836194046741
 10
10.35395887958536
 20
-5.761113547971515
 10
10.38034810755996
 20
-5.72778029941042
 10
10.41229238246357
 20
-5.700002521634082
 10
10.4359036631184
 20
-5.663891325752981
 10
10.46229289109285
 20
-5.633336024511764
 10
10.51507049933116
 20
-5.575002521638705
 10
10.56368161044515
 20
-5.51111397183619
 10
10.60951477423936
 20
-5.444447050858444
 10
10.69840400221837
 20
-5.312502606417992
 10
10.77340349359848
 20
-5.169447220407871
 10
10.82895904916086
 20
-5.018057992437307
 10
10.84145938824652
 20
-4.984724743875581
 10
10.85118093230191
 20
-4.950002521653787
 10
10.85812537674797
 20
-4.913891325771929
 10
10.85812537674797
 20
-4.913891325771929
 10
11.27895854053683
 20
-4.966668934026504
 10
11.27895854053683
 20
-4.966668934026504
 10
11.27895854053683
 20
-4.966668934026504
 10
11.27895854037635
 20
-8.541668849255453
 10
11.27895854037635
 20
-8.541668849255453
 10
11.27895854037635
 20
-8.541668849255453
 10
13.21923648769623
 20
-8.541668849342562
 10
13.21923648769623
 20
-8.541668849342562
 10
13.21923648769623
 20
-8.541668849342562
 10
13.21923648807842
 20
-0.0291693579688652
 10
13.21923648807842
 20
-0.0291693579688652
 10
13.21923648807842
 20
-0.0291693579688652
 10
11.27895854075854
 20
-0.0291693578817558
 10
11.27895854075854
 20
-0.0291693578817558
 10
11.27895854075854
 20
-0.0291693578817558
 10
11.27895854061141
 20
-3.305558161999594
 10
11.27895854061141
 20
-3.305558161999594
 97
        0
 97
        0
 92
        1
 93
        1
 72
     4
 94
        3
 73
     0
 74
     1
 95
       17
 96
       13
 40
0.0
 40
0.0
 40
0.0
 40
0.0
 40
1.0
 40
1.0
 40
1.0
 40
2.0
 40
2.0
 40
2.0
 40
3.0
 40
3.0
 40
3.0
 40
4.0
 40
4.0
 40
4.0
 40
4.0
 10
9.733124529086883
 20
-3.813891580034579
 10
9.699790856670056
 20
-3.79722474382432
 10
9.687291365298178
 20
-3.756947050817012
 10
9.70395820150841
 20
-3.725002775915426
 10
9.720625037718643
 20
-3.691669527353901
 10
9.762291704385815
 20
-3.680558161931508
 10
9.795624529092088
 20
-3.697224998141766
 10
9.828958201508865
 20
-3.713891834352024
 10
9.841457692880795
 20
-3.754169527359307
 10
9.824790856670562
 20
-3.786113802260918
 10
9.808124868170882
 20
-3.818058077162505
 10
9.76645820150366
 20
-3.830558416244836
 10
9.733124529086883
 20
-3.813891580034579
 97
        0
 97
        0
 92
        1
 93
        1
 72
     4
 94
        3
 73
     0
 74
     1
 95
       44
 96
       40
 40
0.0
 40
0.0
 40
0.0
 40
0.0
 40
1.0
 40
1.0
 40
1.0
 40
2.0
 40
2.0
 40
2.0
 40
3.0
 40
3.0
 40
3.0
 40
4.0
 40
4.0
 40
4.0
 40
5.0
 40
5.0
 40
5.0
 40
6.0
 40
6.0
 40
6.0
 40
7.0
 40
7.0
 40
7.0
 40
8.0
 40
8.0
 40
8.0
 40
9.0
 40
9.0
 40
9.0
 40
10.0
 40
10.0
 40
10.0
 40
11.0
 40
11.0
 40
11.0
 40
12.0
 40
12.0
 40
12.0
 40
13.0
 40
13.0
 40
13.0
 40
13.0
 10
10.49145837104708
 20
-3.801391664839684
 10
10.48868042372654
 20
-3.815280553728447
 10
10.48729187392145
 20
-3.825002945492694
 10
10.48729187392099
 20
-3.834724913401765
 10
10.48312537679526
 20
-3.861113717519427
 10
10.46784709039043
 20
-3.877780553727512
 10
10.44840315457158
 20
-3.893058416275456
 10
10.3803472599297
 20
-3.940280553723571
 10
10.28451443522322
 20
-3.927780638490326
 10
10.23173682699048
 20
-3.862502691168073
 10
10.1886816105216
 20
-3.808336109270511
 10
10.18590366320506
 20
-3.733336194041461
 10
10.22479238255427
 20
-3.679169188292336
 10
10.16229238255321
 20
-3.702780468942743
 10
10.08729204346992
 20
-3.683335685410712
 10
10.04423682700099
 20
-3.629169103513176
 10
9.99145921876824
 20
-3.563891156190923
 10
10.00118161053671
 20
-3.470835854948948
 10
10.06368161053923
 20
-3.415280299396196
 10
10.07757049942863
 20
-3.404169357827818
 10
10.09701528295768
 20
-3.394446966064379
 10
10.11645921877597
 20
-3.391669018745359
 10
10.12618161054039
 20
-3.38889107142591
 10
10.13590400230462
 20
-3.391669018746243
 10
10.14562554635843
 20
-3.391669018746673
 10
10.149792043483
 20
-3.39166901874685
 10
10.15951443524732
 20
-3.391669018747304
 10
10.16507032988693
 20
-3.39444696606741
 10
10.16507032988693
 20
-3.39444696606741
 10
10.47618178008153
 20
-3.411113802290149
 10
10.47618178008153
 20
-3.411113802290149
 10
10.47618178008153
 20
-3.411113802290149
 10
10.56368161053923
 20
-3.415280299418656
 10
10.56368161053923
 20
-3.415280299418656
 10
10.56368161053923
 20
-3.415280299418656
 10
10.54701477432652
 20
-3.502780129875797
 10
10.54701477432652
 20
-3.502780129875797
 10
10.54701477432652
 20
-3.502780129875797
 10
10.49145837104708
 20
-3.801391664839684
 10
10.49145837104708
 20
-3.801391664839684
 97
        0
 97
        0
 92
        1
 93
        1
 72
     4
 94
        3
 73
     0
 74
     1
 95
       17
 96
       13
 40
0.0
 40
0.0
 40
0.0
 40
0.0
 40
1.0
 40
1.0
 40
1.0
 40
2.0
 40
2.0
 40
2.0
 40
3.0
 40
3.0
 40
3.0
 40
4.0
 40
4.0
 40
4.0
 40
4.0
 10
10.86368042373452
 20
-3.637502521654344
 10
10.87340281550117
 20
-3.586113463223783
 10
10.87618076282347
 20
-3.531946881328293
 10
10.87340281550602
 20
-3.477780299432551
 10
10.87340281550602
 20
-3.477780299432551
 10
11.278958540606
 20
-3.426391241019776
 10
11.278958540606
 20
-3.426391241019776
 10
11.278958540606
 20
-3.426391241019776
 10
11.27895854059352
 20
-3.704169018797554
 10
11.27895854059352
 20
-3.704169018797554
 10
11.27895854059352
 20
-3.704169018797554
 10
10.86368042373452
 20
-3.637502521654344
 10
10.86368042373452
 20
-3.637502521654344
 97
        0
 97
        0
 92
        1
 93
        1
 72
     4
 94
        3
 73
     0
 74
     1
 95
       17
 96
       13
 40
0.0
 40
0.0
 40
0.0
 40
0.0
 40
1.0
 40
1.0
 40
1.0
 40
2.0
 40
2.0
 40
2.0
 40
3.0
 40
3.0
 40
3.0
 40
4.0
 40
4.0
 40
4.0
 40
4.0
 10
9.70395820147102
 20
-4.55694713558882
 10
9.687291365263768
 20
-4.523613887025779
 10
9.699791704349789
 20
-4.483336194019608
 10
9.733124529057477
 20
-4.468058331472295
 10
9.76645820147577
 20
-4.451391495265018
 10
9.80812486814188
 20
-4.463891834351089
 10
9.82479085663873
 20
-4.495836109254191
 10
9.84145769284598
 20
-4.529169357817207
 10
9.82895735375996
 20
-4.569447050823379
 10
9.795624529052272
 20
-4.584724913370716
 10
9.762291704344483
 20
-4.601391749577993
 10
9.720625037678372
 20
-4.588891410491922
 10
9.70395820147102
 20
-4.55694713558882
 97
        0
 97
        0
 92
        1
 93
        1
 72
     4
 94
        3
 73
     0
 74
     1
 95
       44
 96
       40
 40
0.0
 40
0.0
 40
0.0
 40
0.0
 40
1.0
 40
1.0
 40
1.0
 40
2.0
 40
2.0
 40
2.0
 40
3.0
 40
3.0
 40
3.0
 40
4.0
 40
4.0
 40
4.0
 40
5.0
 40
5.0
 40
5.0
 40
6.0
 40
6.0
 40
6.0
 40
7.0
 40
7.0
 40
7.0
 40
8.0
 40
8.0
 40
8.0
 40
9.0
 40
9.0
 40
9.0
 40
10.0
 40
10.0
 40
10.0
 40
11.0
 40
11.0
 40
11.0
 40
12.0
 40
12.0
 40
12.0
 40
13.0
 40
13.0
 40
13.0
 40
13.0
 10
10.11506897348302
 20
-4.888891495280657
 10
10.09562418995453
 20
-4.886113547959919
 10
10.07618025413674
 20
-4.877780553709928
 10
10.06229136524841
 20
-4.865280214625096
 10
9.999791365250985
 20
-4.808335685406797
 10
9.990068973490754
 20
-4.716668933968625
 10
10.04284658172936
 20
-4.651391410506372
 10
10.08590179820319
 20
-4.597224828612702
 10
10.16090213728825
 20
-4.577780468942668
 10
10.22340213728719
 20
-4.601391325743432
 10
10.18451341794283
 20
-4.547224743846073
 10
10.18729136526609
 20
-4.472224828617249
 10
10.23034658173987
 20
-4.418057822868326
 10
10.28312418997848
 20
-4.352779875550823
 10
10.38034641220126
 20
-4.340279960326218
 10
10.4470129093237
 20
-4.387502097780372
 10
10.46645769285159
 20
-4.404168933990023
 10
10.48034658173972
 20
-4.420835346344171
 10
10.48590162866786
 20
-4.445835600657574
 10
10.48590162866741
 20
-4.455557992421896
 10
10.48867957598688
 20
-4.465279960331069
 10
10.49006812579091
 20
-4.479168849220033
 10
10.49006812579091
 20
-4.479168849220033
 10
10.5428457340132
 20
-4.777779960333519
 10
10.5428457340132
 20
-4.777779960333519
 10
10.5428457340132
 20
-4.777779960333519
 10
10.55951257021803
 20
-4.865279790792152
 10
10.55951257021803
 20
-4.865279790792152
 10
10.55951257021803
 20
-4.865279790792152
 10
10.47201273975998
 20
-4.869446287912802
 10
10.47201273975998
 20
-4.869446287912802
 10
10.47201273975998
 20
-4.869446287912802
 10
10.1609012895639
 20
-4.886113124107598
 10
10.1609012895639
 20
-4.886113124107598
 10
10.15673479243919
 20
-4.888891071427275
 10
10.14701240067486
 20
-4.88889107142687
 10
10.14145650603511
 20
-4.888891071426618
 10
10.13451375701167
 20
-4.888891495281541
 10
10.12479136524725
 20
-4.89166944260099
 10
10.11506897348302
 20
-4.888891495280657
 97
        0
 97
        0
 92
        1
 93
        1
 72
     4
 94
        3
 73
     0
 74
     1
 95
       17
 96
       13
 40
0.0
 40
0.0
 40
0.0
 40
0.0
 40
1.0
 40
1.0
 40
1.0
 40
2.0
 40
2.0
 40
2.0
 40
3.0
 40
3.0
 40
3.0
 40
4.0
 40
4.0
 40
4.0
 40
4.0
 10
10.87201341793131
 20
-4.80416918832139
 10
10.87479136525361
 20
-4.750002606425899
 10
10.87201341793616
 20
-4.695836024530156
 10
10.86229102617416
 20
-4.644446966098712
 10
10.86229102617416
 20
-4.644446966098712
 10
11.27756914303912
 20
-4.577780468992791
 10
11.27756914303912
 20
-4.577780468992791
 10
11.27756914303912
 20
-4.577780468992791
 10
11.27756914302664
 20
-4.855558246770569
 10
11.27756914302664
 20
-4.855558246770569
 10
11.27756914302664
 20
-4.855558246770569
 10
10.87201341793131
 20
-4.80416918832139
 10
10.87201341793131
 20
-4.80416918832139
 97
        0
 97
        0
 75
     2
 76
     1
 98
        0
  0
SPLINE
  5
54
330
1F
100
AcDbEntity
  8
Layer 1
370
     0
100
AcDbSpline
210
0.0
220
0.0
230
1.0
 70
    11
 71
     3
 72
   179
 73
   175
 74
     0
 42
0.0000000001
 43
0.0000000001
 12
1.0
 22
0.0
 32
0.0
 13
1.0
 23
0.0
 33
0.0
 40
0.0
 40
0.0
 40
0.0
 40
0.0
 40
1.0
 40
1.0
 40
1.0
 40
2.0
 40
2.0
 40
2.0
 40
3.0
 40
3.0
 40
3.0
 40
4.0
 40
4.0
 40
4.0
 40
5.0
 40
5.0
 40
5.0
 40
6.0
 40
6.0
 40
6.0
 40
7.0
 40
7.0
 40
7.0
 40
8.0
 40
8.0
 40
8.0
 40
9.0
 40
9.0
 40
9.0
 40
10.0
 40
10.0
 40
10.0
 40
11.0
 40
11.0
 40
11.0
 40
12.0
 40
12.0
 40
12.0
 40
13.0
 40
13.0
 40
13.0
 40
14.0
 40
14.0
 40
14.0
 40
15.0
 40
15.0
 40
15.0
 40
16.0
 40
16.0
 40
16.0
 40
17.0
 40
17.0
 40
17.0
 40
18.0
 40
18.0
 40
18.0
 40
19.0
 40
19.0
 40
19.0
 40
20.0
 40
20.0
 40
20.0
 40
21.0
 40
21.0
 40
21.0
 40
22.0
 40
22.0
 40
22.0
 40
23.0
 40
23.0
 40
23.0
 40
24.0
 40
24.0
 40
24.0
 40
25.0
 40
25.0
 40
25.0
 40
26.0
 40
26.0
 40
26.0
 40
27.0
 40
27.0
 40
27.0
 40
28.0
 40
28.0
 40
28.0
 40
29.0
 40
29.0
 40
29.0
 40
30.0
 40
30.0
 40
30.0
 40
31.0
 40
31.0
 40
31.0
 40
32.0
 40
32.0
 40
32.0
 40
33.0
 40
33.0
 40
33.0
 40
34.0
 40
34.0
 40
34.0
 40
35.0
 40
35.0
 40
35.0
 40
36.0
 40
36.0
 40
36.0
 40
37.0
 40
37.0
 40
37.0
 40
38.0
 40
38.0
 40
38.0
 40
39.0
 40
39.0
 40
39.0
 40
40.0
 40
40.0
 40
40.0
 40
41.0
 40
41.0
 40
41.0
 40
42.0
 40
42.0
 40
42.0
 40
43.0
 40
43.0
 40
43.0
 40
44.0
 40
44.0
 40
44.0
 40
45.0
 40
45.0
 40
45.0
 40
46.0
 40
46.0
 40
46.0
 40
47.0
 40
47.0
 40
47.0
 40
48.0
 40
48.0
 40
48.0
 40
49.0
 40
49.0
 40
49.0
 40
50.0
 40
50.0
 40
50.0
 40
51.0
 40
51.0
 40
51.0
 40
52.0
 40
52.0
 40
52.0
 40
53.0
 40
53.0
 40
53.0
 40
54.0
 40
54.0
 40
54.0
 40
55.0
 40
55.0
 40
55.0
 40
56.0
 40
56.0
 40
56.0
 40
57.0
 40
57.0
 40
57.0
 40
58.0
 40
58.0
 40
58.0
 40
58.0
 10
4.102472941080729
 20
-0.0194040934244792
 30
0.0
 10
4.102472941080729
 20
-0.0194040934244792
 30
0.0
 10
4.102472941080729
 20
-3.811455620659722
 30
0.0
 10
4.102472941080729
 20
-3.811455620659722
 30
0.0
 10
4.011520385742188
 20
-3.811937967936198
 30
0.0
 10
4.045032077365451
 20
-3.842874315049913
 30
0.0
 10
4.004230075412326
 20
-3.898426479763454
 30
0.0
 10
3.981233384874132
 20
-3.929739210340712
 30
0.0
 10
3.999354044596354
 20
-3.918057759602864
 30
0.0
 10
3.941584269205729
 20
-3.940932379828559
 30
0.0
 10
3.905736287434896
 20
-3.955126444498698
 30
0.0
 10
3.864327324761284
 20
-3.94279056125217
 30
0.0
 10
3.853447808159722
 20
-3.965996636284722
 30
0.0
 10
3.84322272406684
 20
-3.8778322007921
 30
0.0
 10
3.777203030056423
 20
-3.610908508300781
 30
0.0
 10
3.764829847547743
 20
-3.560312906901042
 30
0.0
 10
3.737930297851562
 20
-3.450315687391493
 30
0.0
 10
3.703518337673611
 20
-3.398732503255208
 30
0.0
 10
3.673233032226562
 20
-3.285570780436198
 30
0.0
 10
3.656550089518229
 20
-3.223235236273871
 30
0.0
 10
3.647425333658854
 20
-3.092478434244792
 30
0.0
 10
3.605033026801215
 20
-3.04533216688368
 30
0.0
 10
3.563257853190104
 20
-2.998876783582899
 30
0.0
 10
3.443250868055555
 20
-2.977221171061198
 30
0.0
 10
3.385225084092882
 20
-2.95900387234158
 30
0.0
 10
3.322530110677083
 20
-2.939320034450955
 30
0.0
 10
3.240032619900173
 20
-2.894940694173177
 30
0.0
 10
3.189407348632812
 20
-2.942645602756076
 30
0.0
 10
3.176569620768229
 20
-2.954744127061632
 30
0.0
 10
3.164940728081597
 20
-2.972307840983073
 30
0.0
 10
3.154242621527778
 20
-2.992848714192708
 30
0.0
 10
3.067452324761284
 20
-3.002246432834201
 30
0.0
 10
2.700776841905382
 20
-3.043877495659722
 30
0.0
 10
2.580941942003038
 20
-3.088815477159288
 30
0.0
 10
2.444658915201823
 20
-3.139921400282118
 30
0.0
 10
2.419106377495659
 20
-3.131403605143229
 30
0.0
 10
2.359482659233941
 20
-3.182510375976562
 30
0.0
 10
2.343686421712239
 20
-3.196050008138021
 30
0.0
 10
2.33030531141493
 20
-3.223397148980034
 30
0.0
 10
2.31913333468967
 20
-3.256201002332899
 30
0.0
 10
2.306622823079427
 20
-3.274753994411892
 30
0.0
 10
2.295255025227864
 20
-3.294464959038628
 30
0.0
 10
2.284985860188802
 20
-3.315182156032986
 30
0.0
 10
2.177520751953125
 20
-3.32721201578776
 30
0.0
 10
1.882975260416667
 20
-3.362700568305121
 30
0.0
 10
1.781464470757378
 20
-3.400767008463542
 30
0.0
 10
1.65636952718099
 20
-3.447678460015191
 30
0.0
 10
1.632914225260417
 20
-3.439860026041667
 30
0.0
 10
1.578184339735243
 20
-3.486770629882812
 30
0.0
 10
1.549285888671875
 20
-3.511540730794271
 30
0.0
 10
1.52911376953125
 20
-3.586438496907552
 30
0.0
 10
1.516504075792101
 20
-3.651629130045573
 30
0.0
 10
1.514635721842448
 20
-3.657633463541667
 30
0.0
 10
1.5126953125
 20
-3.663702223036024
 30
0.0
 10
1.510987175835503
 20
-3.669598897298177
 30
0.0
 10
1.423454284667969
 20
-3.679274664984809
 30
0.0
 10
1.148487514919705
 20
-3.711678398980034
 30
0.0
 10
1.055555555555556
 20
-3.746527777777778
 30
0.0
 10
0.9444444444444444
 20
-3.788194444444444
 30
0.0
 10
0.923611111111111
 20
-3.78125
 30
0.0
 10
0.875
 20
-3.822916666666667
 30
0.0
 10
0.8537996080186632
 20
-3.841088189019097
 30
0.0
 10
0.8378863864474826
 20
-3.889639960394965
 30
0.0
 10
0.826676262749566
 20
-3.938616434733073
 30
0.0
 10
0.8221121893988714
 20
-3.943221198187934
 30
0.0
 10
0.8171403672960069
 20
-3.949095831976996
 30
0.0
 10
0.8115649753146701
 20
-3.956617567274305
 30
0.0
 10
0.7705162896050347
 20
-4.011998494466146
 30
0.0
 10
0.7623502943250867
 20
-4.109640333387587
 30
0.0
 10
0.7464608086480035
 20
-4.174835205078125
 30
0.0
 10
0.6970104641384548
 20
-4.158901638454861
 30
0.0
 10
0.6674686008029513
 20
-4.168546888563368
 30
0.0
 10
0.6842990451388888
 20
-4.113431294759114
 30
0.0
 10
0.683548821343316
 20
-4.112885369194879
 30
0.0
 10
0.6842091878255208
 20
-4.101525200737847
 30
0.0
 10
0.7007564968532985
 20
-4.093634711371528
 30
0.0
 10
0.6536653306749132
 20
-4.084229363335504
 30
0.0
 10
0.6348605685763888
 20
-4.140456305609809
 30
0.0
 10
0.5940526326497395
 20
-4.151607089572482
 30
0.0
 10
0.5470030042860243
 20
-4.164462619357638
 30
0.0
 10
0.5017437405056423
 20
-4.145971510145399
 30
0.0
 10
0.4531622992621527
 20
-4.166302151150173
 30
0.0
 10
0.4047927856445312
 20
-4.186544630262587
 30
0.0
 10
0.2469134860568576
 20
-4.27750990125868
 30
0.0
 10
0.2469134860568576
 20
-4.333058675130208
 30
0.0
 10
0.2469134860568576
 20
-4.392430623372396
 30
0.0
 10
0.3982789781358507
 20
-4.481520758734809
 30
0.0
 10
0.4557749430338541
 20
-4.503848605685763
 30
0.0
 10
0.5091739230685763
 20
-4.524585300021701
 30
0.0
 10
0.5569076538085938
 20
-4.506392584906684
 30
0.0
 10
0.6081899007161458
 20
-4.518620808919271
 30
0.0
 10
0.649900648328993
 20
-4.528566148546006
 30
0.0
 10
0.6568662855360242
 20
-4.577407836914062
 30
0.0
 10
0.7125489976671007
 20
-4.561414930555555
 30
0.0
 10
0.687299092610677
 20
-4.506322224934896
 30
0.0
 10
0.7107730441623263
 20
-4.497205946180555
 30
0.0
 10
0.7604624430338541
 20
-4.445852491590712
 30
0.0
 10
0.762847900390625
 20
-4.506835089789496
 30
0.0
 10
0.775360107421875
 20
-4.641949123806423
 30
0.0
 10
0.827789306640625
 20
-4.701526217990451
 30
0.0
 10
0.8389324612087673
 20
-4.748867458767361
 30
0.0
 10
0.8544828626844617
 20
-4.794913397894965
 30
0.0
 10
0.875
 20
-4.8125
 30
0.0
 10
0.923611111111111
 20
-4.854166666666666
 30
0.0
 10
0.9444444444444444
 20
-4.847222222222222
 30
0.0
 10
1.055555555555556
 20
-4.888888888888888
 30
0.0
 10
1.149475945366753
 20
-4.924108717176649
 30
0.0
 10
1.429427252875434
 20
-4.956843905978732
 30
0.0
 10
1.513816833496094
 20
-4.966131422254774
 30
0.0
 10
1.516050550672743
 20
-4.970028347439236
 30
0.0
 10
1.518390231662326
 20
-4.973688761393229
 30
0.0
 10
1.520844353569878
 20
-4.977094014485677
 30
0.0
 10
1.533457438151042
 20
-5.035776774088541
 30
0.0
 10
1.552091810438368
 20
-5.096822950575087
 30
0.0
 10
1.577548556857639
 20
-5.118643018934462
 30
0.0
 10
1.63183339436849
 20
-5.165173000759548
 30
0.0
 10
1.655097961425781
 20
-5.157418145073785
 30
0.0
 10
1.779176500108507
 20
-5.203947279188368
 30
0.0
 10
1.879759894476996
 20
-5.241666158040364
 30
0.0
 10
2.171403672960069
 20
-5.276830885145399
 30
0.0
 10
2.278260972764757
 20
-5.288798014322916
 30
0.0
 10
2.292542351616753
 20
-5.318990919325087
 30
0.0
 10
2.309330410427517
 20
-5.345026652018229
 30
0.0
 10
2.3292236328125
 20
-5.36454603407118
 30
0.0
 10
2.3294677734375
 20
-5.364223056369357
 30
0.0
 10
2.329691569010417
 20
-5.363905164930555
 30
0.0
 10
2.329934861924913
 20
-5.363582187228732
 30
0.0
 10
2.343788994683159
 20
-5.430832756890191
 30
0.0
 10
2.364863077799479
 20
-5.503414577907986
 30
0.0
 10
2.394204881456163
 20
-5.528564453125
 30
0.0
 10
2.453828599717882
 20
-5.579670376247829
 30
0.0
 10
2.479381137424045
 20
-5.571152581108941
 30
0.0
 10
2.61566416422526
 20
-5.622258504231771
 30
0.0
 10
2.746358235677083
 20
-5.671268886990017
 30
0.0
 10
3.170543246799045
 20
-5.716334025065104
 30
0.0
 10
3.205132378472222
 20
-5.719950358072916
 30
0.0
 10
3.214373270670573
 20
-5.735994127061631
 30
0.0
 10
3.224086337619358
 20
-5.748464796278212
 30
0.0
 10
3.233927408854167
 20
-5.753040737575954
 30
0.0
 10
3.303660074869792
 20
-5.785469055175781
 30
0.0
 10
3.523469712999132
 20
-5.640403747558594
 30
0.0
 10
3.583501180013021
 20
-5.603423224555121
 30
0.0
 10
3.685489230685764
 20
-5.540594312879774
 30
0.0
 10
3.676674736870659
 20
-5.434063381618923
 30
0.0
 10
3.701400756835938
 20
-5.322236802842881
 30
0.0
 10
3.716764662000868
 20
-5.252755906846788
 30
0.0
 10
3.736251831054688
 20
-5.251929389105903
 30
0.0
 10
3.764728122287326
 20
-5.198328653971354
 30
0.0
 10
3.791183471679688
 20
-5.148528205023871
 30
0.0
 10
3.795506795247396
 20
-5.089736090766059
 30
0.0
 10
3.804387410481771
 20
-5.034712897406684
 30
0.0
 10
3.823532104492188
 20
-4.916117350260416
 30
0.0
 10
3.842481825086805
 20
-4.798261006673177
 30
0.0
 10
3.865954928927951
 20
-4.680434332953559
 30
0.0
 10
3.904719034830729
 20
-4.689100477430555
 30
0.0
 10
3.963356865776909
 20
-4.691134134928385
 30
0.0
 10
3.993426852756076
 20
-4.720670912000868
 30
0.0
 10
4.014287312825521
 20
-4.741161770290798
 30
0.0
 10
4.013031005859375
 20
-4.771411471896701
 30
0.0
 10
4.03328111436632
 20
-4.793302747938368
 30
0.0
 10
4.061284383138021
 20
-4.823572794596354
 30
0.0
 10
4.08158196343316
 20
-4.82547844780816
 30
0.0
 10
4.102472941080729
 20
-4.819272359212239
 30
0.0
 10
4.102472941080729
 20
-4.819272359212239
 30
0.0
 10
4.102472941080729
 20
-8.531903584798176
 30
0.0
 10
4.102472941080729
 20
-8.531903584798176
 30
0.0
 10
4.102472941080729
 20
-8.531903584798176
 30
0.0
 10
6.033296373155381
 20
-8.531903584798176
 30
0.0
 10
6.033296373155381
 20
-8.531903584798176
 30
0.0
 10
6.033296373155381
 20
-8.531903584798176
 30
0.0
 10
6.033296373155381
 20
-0.0194040934244792
 30
0.0
 10
6.033296373155381
 20
-0.0194040934244792
 30
0.0
 10
6.033296373155381
 20
-0.0194040934244792
 30
0.0
 10
4.102472941080729
 20
-0.0194040934244792
 30
0.0
 10
4.102472941080729
 20
-0.0194040934244792
 30
0.0
  0
SPLINE
  5
55
330
1F
100
AcDbEntity
  8
Layer 1
370
     0
100
AcDbSpline
210
0.0
220
0.0
230
1.0
 70
    11
 71
     3
 72
    29
 73
    25
 74
     0
 42
0.0000000001
 43
0.0000000001
 12
1.0
 22
0.0
 32
0.0
 13
1.0
 23
0.0
 33
0.0
 40
0.0
 40
0.0
 40
0.0
 40
0.0
 40
1.0
 40
1.0
 40
1.0
 40
2.0
 40
2.0
 40
2.0
 40
3.0
 40
3.0
 40
3.0
 40
4.0
 40
4.0
 40
4.0
 40
5.0
 40
5.0
 40
5.0
 40
6.0
 40
6.0
 40
6.0
 40
7.0
 40
7.0
 40
7.0
 40
8.0
 40
8.0
 40
8.0
 40
8.0
 10
2.927895439995659
 20
-5.119510226779513
 30
0.0
 10
2.943821377224392
 20
-5.181613498263888
 30
0.0
 10
2.972226460774739
 20
-5.23883310953776
 30
0.0
 10
3.002709282769097
 20
-5.295421176486545
 30
0.0
 10
2.91168212890625
 20
-5.28863525390625
 30
0.0
 10
2.792100694444444
 20
-5.264199998643663
 30
0.0
 10
2.775806850857205
 20
-5.260921054416232
 30
0.0
 10
2.668050977918837
 20
-5.23923831515842
 30
0.0
 10
2.561313205295139
 20
-5.21287367078993
 30
0.0
 10
2.456722683376736
 20
-5.171131557888454
 30
0.0
 10
2.461363898383246
 20
-5.163390265570746
 30
0.0
 10
2.466011047363281
 20
-5.155624389648438
 30
0.0
 10
2.470713297526042
 20
-5.147733052571614
 30
0.0
 10
2.529852125379774
 20
-5.048496670193142
 30
0.0
 10
2.604629516601562
 20
-4.940540737575954
 30
0.0
 10
2.647601657443576
 20
-4.82861328125
 30
0.0
 10
2.658342149522569
 20
-4.834445529513888
 30
0.0
 10
2.669191148546007
 20
-4.83990732828776
 30
0.0
 10
2.680250379774305
 20
-4.844634162055121
 30
0.0
 10
2.695601569281684
 20
-4.851195441351996
 30
0.0
 10
2.792650010850694
 20
-4.875039842393663
 30
0.0
 10
2.899785359700521
 20
-4.897365993923611
 30
0.0
 10
2.904251946343316
 20
-4.972627427842881
 30
0.0
 10
2.909619649251302
 20
-5.048249138726129
 30
0.0
 10
2.927895439995659
 20
-5.119510226779513
 30
0.0
  0
SPLINE
  5
56
330
1F
100
AcDbEntity
  8
Layer 1
370
     0
100
AcDbSpline
210
0.0
220
0.0
230
1.0
 70
    11
 71
     3
 72
    29
 73
    25
 74
     0
 42
0.0000000001
 43
0.0000000001
 12
1.0
 22
0.0
 32
0.0
 13
1.0
 23
0.0
 33
0.0
 40
0.0
 40
0.0
 40
0.0
 40
0.0
 40
1.0
 40
1.0
 40
1.0
 40
2.0
 40
2.0
 40
2.0
 40
3.0
 40
3.0
 40
3.0
 40
4.0
 40
4.0
 40
4.0
 40
5.0
 40
5.0
 40
5.0
 40
6.0
 40
6.0
 40
6.0
 40
7.0
 40
7.0
 40
7.0
 40
8.0
 40
8.0
 40
8.0
 40
8.0
 10
1.476945665147569
 20
-3.941107008192274
 30
0.0
 10
1.480260213216146
 20
-4.001590304904513
 30
0.0
 10
1.490035163031684
 20
-4.103786892361111
 30
0.0
 10
1.466882493760851
 20
-4.133336385091146
 30
0.0
 10
1.444918314615885
 20
-4.161368476019965
 30
0.0
 10
1.422678629557292
 20
-4.138642205132379
 30
0.0
 10
1.399871826171875
 20
-4.148555331759982
 30
0.0
 10
1.386021084255642
 20
-4.154575771755642
 30
0.0
 10
1.367835998535156
 20
-4.174549526638454
 30
0.0
 10
1.351827833387587
 20
-4.181208292643229
 30
0.0
 10
1.290111117892795
 20
-4.206881205240885
 30
0.0
 10
1.227884928385417
 20
-4.201360066731771
 30
0.0
 10
1.16483645968967
 20
-4.195123460557726
 30
0.0
 10
1.093335469563802
 20
-4.188050164116754
 30
0.0
 10
1.050223456488715
 20
-4.193072848849826
 30
0.0
 10
1.010690477159288
 20
-4.13039313422309
 30
0.0
 10
0.9824252658420138
 20
-4.085577223036024
 30
0.0
 10
0.9598134358723958
 20
-4.049009535047743
 30
0.0
 10
0.9277657402886285
 20
-4.01017083062066
 30
0.0
 10
1.015183342827691
 20
-3.987969292534722
 30
0.0
 10
1.104136149088542
 20
-3.973116556803385
 30
0.0
 10
1.193906995985243
 20
-3.960873074001736
 30
0.0
 10
1.214407179090712
 20
-3.958077324761284
 30
0.0
 10
1.415289137098524
 20
-3.930218166775173
 30
0.0
 10
1.476945665147569
 20
-3.941107008192274
 30
0.0
  0
SPLINE
  5
57
330
1F
100
AcDbEntity
  8
Layer 1
370
     0
100
AcDbSpline
210
0.0
220
0.0
230
1.0
 70
    11
 71
     3
 72
    35
 73
    31
 74
     0
 42
0.0000000001
 43
0.0000000001
 12
1.0
 22
0.0
 32
0.0
 13
1.0
 23
0.0
 33
0.0
 40
0.0
 40
0.0
 40
0.0
 40
0.0
 40
1.0
 40
1.0
 40
1.0
 40
2.0
 40
2.0
 40
2.0
 40
3.0
 40
3.0
 40
3.0
 40
4.0
 40
4.0
 40
4.0
 40
5.0
 40
5.0
 40
5.0
 40
6.0
 40
6.0
 40
6.0
 40
7.0
 40
7.0
 40
7.0
 40
8.0
 40
8.0
 40
8.0
 40
9.0
 40
9.0
 40
9.0
 40
10.0
 40
10.0
 40
10.0
 40
10.0
 10
2.17854987250434
 20
-3.983214484320746
 30
0.0
 10
2.17531500922309
 20
-4.000209384494357
 30
0.0
 10
2.14274427625868
 20
-4.094580756293403
 30
0.0
 10
2.143359714084201
 20
-4.020104302300347
 30
0.0
 10
2.100532531738281
 20
-4.028768751356337
 30
0.0
 10
2.120251973470052
 20
-4.062345716688368
 30
0.0
 10
2.095867580837674
 20
-4.077649434407552
 30
0.0
 10
2.071376376681858
 20
-4.093020968967013
 30
0.0
 10
2.031255933973524
 20
-4.098221672905816
 30
0.0
 10
2.002454969618055
 20
-4.101143731011285
 30
0.0
 10
1.951908535427517
 20
-4.106272379557291
 30
0.0
 10
1.845420837402344
 20
-4.054850260416666
 30
0.0
 10
1.809128655327691
 20
-4.088477240668403
 30
0.0
 10
1.768747117784288
 20
-3.976686265733507
 30
0.0
 10
1.737500508626302
 20
-3.879823472764757
 30
0.0
 10
1.651385837131076
 20
-3.795934889051649
 30
0.0
 10
1.648585001627604
 20
-3.793206108940972
 30
0.0
 10
1.645183987087673
 20
-3.790198432074653
 30
0.0
 10
1.641522725423177
 20
-3.787063598632812
 30
0.0
 10
1.73117913140191
 20
-3.755165947808159
 30
0.0
 10
1.82226816813151
 20
-3.733251783582899
 30
0.0
 10
1.914102342393663
 20
-3.714773390028212
 30
0.0
 10
1.933725145128038
 20
-3.710824754503038
 30
0.0
 10
2.10312991672092
 20
-3.676189846462673
 30
0.0
 10
2.192042032877604
 20
-3.678672790527344
 30
0.0
 10
2.189469231499566
 20
-3.700510660807292
 30
0.0
 10
2.187232971191406
 20
-3.721914503309462
 30
0.0
 10
2.185243394639757
 20
-3.742627461751302
 30
0.0
 10
2.177827623155382
 20
-3.819843716091579
 30
0.0
 10
2.192979600694444
 20
-3.907413058810764
 30
0.0
 10
2.17854987250434
 20
-3.983214484320746
 30
0.0
  0
SPLINE
  5
58
330
1F
100
AcDbEntity
  8
Layer 1
370
     0
100
AcDbSpline
210
0.0
220
0.0
230
1.0
 70
    11
 71
     3
 72
    26
 73
    22
 74
     0
 42
0.0000000001
 43
0.0000000001
 12
1.0
 22
0.0
 32
0.0
 13
1.0
 23
0.0
 33
0.0
 40
0.0
 40
0.0
 40
0.0
 40
0.0
 40
1.0
 40
1.0
 40
1.0
 40
2.0
 40
2.0
 40
2.0
 40
3.0
 40
3.0
 40
3.0
 40
4.0
 40
4.0
 40
4.0
 40
5.0
 40
5.0
 40
5.0
 40
6.0
 40
6.0
 40
6.0
 40
7.0
 40
7.0
 40
7.0
 40
7.0
 10
1.013678656684028
 20
-4.561404758029513
 30
0.0
 10
1.042989942762587
 20
-4.493045383029513
 30
0.0
 10
1.028460184733073
 20
-4.502172682020399
 30
0.0
 10
1.106005350748698
 20
-4.484467400444879
 30
0.0
 10
1.168746100531684
 20
-4.470141940646701
 30
0.0
 10
1.21832529703776
 20
-4.467575073242188
 30
0.0
 10
1.281283060709635
 20
-4.476550632052951
 30
0.0
 10
1.345859103732639
 20
-4.485757615831163
 30
0.0
 10
1.405451456705729
 20
-4.539641486273871
 30
0.0
 10
1.469595167371962
 20
-4.505057440863715
 30
0.0
 10
1.470889621310764
 20
-4.537715488009982
 30
0.0
 10
1.467374165852865
 20
-4.61611090766059
 30
0.0
 10
1.469262017144097
 20
-4.701452467176649
 30
0.0
 10
1.399753146701389
 20
-4.708975897894965
 30
0.0
 10
1.214110480414496
 20
-4.683237711588541
 30
0.0
 10
1.194444444444444
 20
-4.680555555555555
 30
0.0
 10
1.116522894965278
 20
-4.669927808973524
 30
0.0
 10
1.039212544759115
 20
-4.657356262207031
 30
0.0
 10
0.9629830254448785
 20
-4.639734903971354
 30
0.0
 10
0.9836866590711805
 20
-4.616619533962673
 30
0.0
 10
0.9980239868164062
 20
-4.597914801703559
 30
0.0
 10
1.013678656684028
 20
-4.561404758029513
 30
0.0
  0
SPLINE
  5
59
330
1F
100
AcDbEntity
  8
Layer 1
370
     0
100
AcDbSpline
210
0.0
220
0.0
230
1.0
 70
    11
 71
     3
 72
    23
 73
    19
 74
     0
 42
0.0000000001
 43
0.0000000001
 12
1.0
 22
0.0
 32
0.0
 13
1.0
 23
0.0
 33
0.0
 40
0.0
 40
0.0
 40
0.0
 40
0.0
 40
1.0
 40
1.0
 40
1.0
 40
2.0
 40
2.0
 40
2.0
 40
3.0
 40
3.0
 40
3.0
 40
4.0
 40
4.0
 40
4.0
 40
5.0
 40
5.0
 40
5.0
 40
6.0
 40
6.0
 40
6.0
 40
6.0
 10
1.785254584418403
 20
-4.62768809000651
 30
0.0
 10
1.841891818576389
 20
-4.494967142740885
 30
0.0
 10
2.054598490397135
 20
-4.505956861707899
 30
0.0
 10
2.129180060492621
 20
-4.614583333333333
 30
0.0
 10
2.202384101019965
 20
-4.498780992296006
 30
0.0
 10
2.190282185872396
 20
-4.817018296983506
 30
0.0
 10
2.193781534830729
 20
-4.856572469075521
 30
0.0
 10
2.195488823784722
 20
-4.875865512424045
 30
0.0
 10
2.197391086154514
 20
-4.897937350802951
 30
0.0
 10
2.19966549343533
 20
-4.921784294976129
 30
0.0
 10
2.112964206271701
 20
-4.926419576009114
 30
0.0
 10
1.934842427571615
 20
-4.889974806043837
 30
0.0
 10
1.914695739746094
 20
-4.885921054416232
 30
0.0
 10
1.837547302246094
 20
-4.870396931966146
 30
0.0
 10
1.760928683810764
 20
-4.8524169921875
 30
0.0
 10
1.685237460666233
 20
-4.828171624077691
 30
0.0
 10
1.738801744249132
 20
-4.764010959201388
 30
0.0
 10
1.751327514648438
 20
-4.707190619574653
 30
0.0
 10
1.785254584418403
 20
-4.62768809000651
 30
0.0
  0
SPLINE
  5
5A
330
1F
100
AcDbEntity
  8
Layer 1
370
     0
100
AcDbSpline
210
0.0
220
0.0
230
1.0
 70
    11
 71
     3
 72
    29
 73
    25
 74
     0
 42
0.0000000001
 43
0.0000000001
 12
1.0
 22
0.0
 32
0.0
 13
1.0
 23
0.0
 33
0.0
 40
0.0
 40
0.0
 40
0.0
 40
0.0
 40
1.0
 40
1.0
 40
1.0
 40
2.0
 40
2.0
 40
2.0
 40
3.0
 40
3.0
 40
3.0
 40
4.0
 40
4.0
 40
4.0
 40
5.0
 40
5.0
 40
5.0
 40
6.0
 40
6.0
 40
6.0
 40
7.0
 40
7.0
 40
7.0
 40
8.0
 40
8.0
 40
8.0
 40
8.0
 10
2.628751118977864
 20
-3.774898952907986
 30
0.0
 10
2.713560316297743
 20
-3.745815700954861
 30
0.0
 10
2.799608866373698
 20
-3.725278218587239
 30
0.0
 10
2.886324564615885
 20
-3.707828945583767
 30
0.0
 10
2.88897705078125
 20
-3.707294887966579
 30
0.0
 10
2.894454108344184
 20
-3.706185234917534
 30
0.0
 10
2.902015686035156
 20
-3.704695807562934
 30
0.0
 10
2.901341756184896
 20
-3.710906982421875
 30
0.0
 10
2.900558471679688
 20
-3.717033386230469
 30
0.0
 10
2.900002373589409
 20
-3.723336113823784
 30
0.0
 10
2.892400105794271
 20
-3.809497409396701
 30
0.0
 10
2.895146687825521
 20
-3.906001620822483
 30
0.0
 10
2.875676472981771
 20
-3.990247938368055
 30
0.0
 10
2.857659233940972
 20
-4.068195766872829
 30
0.0
 10
2.879250420464409
 20
-4.037084791395399
 30
0.0
 10
2.818940904405382
 20
-4.039950052897135
 30
0.0
 10
2.806018405490451
 20
-4.040564643012153
 30
0.0
 10
2.706412421332465
 20
-4.012733459472656
 30
0.0
 10
2.697691175672743
 20
-4.003306070963541
 30
0.0
 10
2.667648315429688
 20
-3.970826043023003
 30
0.0
 10
2.664381239149305
 20
-3.860521952311198
 30
0.0
 10
2.646777682834201
 20
-3.815705193413628
 30
0.0
 10
2.641433715820312
 20
-3.802101135253906
 30
0.0
 10
2.635245429144965
 20
-3.788480970594618
 30
0.0
 10
2.628751118977864
 20
-3.774898952907986
 30
0.0
  0
SPLINE
  5
5B
330
1F
100
AcDbEntity
  8
Layer 1
370
     0
100
AcDbSpline
210
0.0
220
0.0
230
1.0
 70
    11
 71
     3
 72
    35
 73
    31
 74
     0
 42
0.0000000001
 43
0.0000000001
 12
1.0
 22
0.0
 32
0.0
 13
1.0
 23
0.0
 33
0.0
 40
0.0
 40
0.0
 40
0.0
 40
0.0
 40
1.0
 40
1.0
 40
1.0
 40
2.0
 40
2.0
 40
2.0
 40
3.0
 40
3.0
 40
3.0
 40
4.0
 40
4.0
 40
4.0
 40
5.0
 40
5.0
 40
5.0
 40
6.0
 40
6.0
 40
6.0
 40
7.0
 40
7.0
 40
7.0
 40
8.0
 40
8.0
 40
8.0
 40
9.0
 40
9.0
 40
9.0
 40
10.0
 40
10.0
 40
10.0
 40
10.0
 10
2.670915391710069
 20
-4.754100375705295
 30
0.0
 10
2.677668253580729
 20
-4.725316365559896
 30
0.0
 10
2.674189249674479
 20
-4.666112263997396
 30
0.0
 10
2.695451524522569
 20
-4.645039876302083
 30
0.0
 10
2.700515747070312
 20
-4.640027364095052
 30
0.0
 10
2.70711432562934
 20
-4.63696543375651
 30
0.0
 10
2.713567097981771
 20
-4.634000990125868
 30
0.0
 10
2.719801161024305
 20
-4.631136576334635
 30
0.0
 10
2.727628919813368
 20
-4.627026028103298
 30
0.0
 10
2.736482408311632
 20
-4.622444152832031
 30
0.0
 10
2.781302558051215
 20
-4.599250793457031
 30
0.0
 10
2.852388170030382
 20
-4.564001295301649
 30
0.0
 10
2.87591552734375
 20
-4.617429945203993
 30
0.0
 10
2.878543429904514
 20
-4.623396979437934
 30
0.0
 10
2.878918117947049
 20
-4.630015903049045
 30
0.0
 10
2.879257202148438
 20
-4.636466979980469
 30
0.0
 10
2.88204108344184
 20
-4.689779493543837
 30
0.0
 10
2.888697306315104
 20
-4.741978963216146
 30
0.0
 10
2.893061319986979
 20
-4.79466078016493
 30
0.0
 10
2.894436306423611
 20
-4.811249627007379
 30
0.0
 10
2.895556131998698
 20
-4.827989366319444
 30
0.0
 10
2.896607293023003
 20
-4.844780815972222
 30
0.0
 10
2.886739095052083
 20
-4.842853969997829
 30
0.0
 10
2.879640367296007
 20
-4.84141370985243
 30
0.0
 10
2.876501295301649
 20
-4.840782165527344
 30
0.0
 10
2.804322136773003
 20
-4.82625749376085
 30
0.0
 10
2.732599046495225
 20
-4.809638129340278
 30
0.0
 10
2.661671956380208
 20
-4.787701924641927
 30
0.0
 10
2.665092468261719
 20
-4.776529100206163
 30
0.0
 10
2.668279012044271
 20
-4.765335083007812
 30
0.0
 10
2.670915391710069
 20
-4.754100375705295
 30
0.0
  0
SPLINE
  5
5C
330
1F
100
AcDbEntity
  8
Layer 1
370
     0
100
AcDbSpline
210
0.0
220
0.0
230
1.0
 70
    11
 71
     3
 72
    26
 73
    22
 74
     0
 42
0.0000000001
 43
0.0000000001
 12
1.0
 22
0.0
 32
0.0
 13
1.0
 23
0.0
 33
0.0
 40
0.0
 40
0.0
 40
0.0
 40
0.0
 40
1.0
 40
1.0
 40
1.0
 40
2.0
 40
2.0
 40
2.0
 40
3.0
 40
3.0
 40
3.0
 40
4.0
 40
4.0
 40
4.0
 40
5.0
 40
5.0
 40
5.0
 40
6.0
 40
6.0
 40
6.0
 40
7.0
 40
7.0
 40
7.0
 40
7.0
 10
2.909177144368489
 20
-3.651334974500868
 30
0.0
 10
2.802213033040364
 20
-3.673634847005208
 30
0.0
 10
2.705404493543837
 20
-3.697423299153646
 30
0.0
 10
2.690073649088542
 20
-3.703976949055989
 30
0.0
 10
2.663989596896701
 20
-3.715126037597656
 30
0.0
 10
2.638962639702691
 20
-3.729947408040364
 30
0.0
 10
2.614312913682725
 20
-3.746047125922309
 30
0.0
 10
2.58819580078125
 20
-3.696167839898003
 30
0.0
 10
2.557959662543403
 20
-3.647967020670573
 30
0.0
 10
2.534669664171007
 20
-3.606322394476996
 30
0.0
 10
2.507093641493055
 20
-3.557013617621528
 30
0.0
 10
2.479243808322483
 20
-3.511383056640625
 30
0.0
 10
2.451775444878472
 20
-3.466054280598958
 30
0.0
 10
2.557757907443576
 20
-3.423294915093316
 30
0.0
 10
2.665960523817274
 20
-3.396479288736979
 30
0.0
 10
2.775213453504774
 20
-3.374495612250434
 30
0.0
 10
2.791964213053385
 20
-3.371125115288628
 30
0.0
 10
2.917916191948784
 20
-3.345369127061632
 30
0.0
 10
3.009739345974392
 20
-3.339442782931858
 30
0.0
 10
2.965228610568576
 20
-3.440642462836371
 30
0.0
 10
2.927870856391059
 20
-3.539380391438802
 30
0.0
 10
2.909177144368489
 20
-3.651334974500868
 30
0.0
  0
SPLINE
  5
5D
330
1F
100
AcDbEntity
  8
Layer 1
370
     0
100
AcDbSpline
210
0.0
220
0.0
230
1.0
 70
    11
 71
     3
 72
    20
 73
    16
 74
     0
 42
0.0000000001
 43
0.0000000001
 12
1.0
 22
0.0
 32
0.0
 13
1.0
 23
0.0
 33
0.0
 40
0.0
 40
0.0
 40
0.0
 40
0.0
 40
1.0
 40
1.0
 40
1.0
 40
2.0
 40
2.0
 40
2.0
 40
3.0
 40
3.0
 40
3.0
 40
4.0
 40
4.0
 40
4.0
 40
5.0
 40
5.0
 40
5.0
 40
5.0
 10
2.623619927300347
 20
-3.114756266276042
 30
0.0
 10
2.656739976671007
 20
-3.105160183376736
 30
0.0
 10
3.109101189507378
 20
-3.035401238335503
 30
0.0
 10
3.106764899359809
 20
-3.061273362901475
 30
0.0
 10
3.106764899359809
 20
-3.061273362901475
 30
0.0
 10
3.1025390625
 20
-3.107754177517361
 30
0.0
 10
3.102506001790364
 20
-3.108119540744358
 30
0.0
 10
3.105462816026475
 20
-3.075010511610243
 30
0.0
 10
2.825924343532986
 20
-3.113798353407118
 30
0.0
 10
2.801545884874132
 20
-3.117123074001736
 30
0.0
 10
2.670781453450521
 20
-3.134958055284288
 30
0.0
 10
2.54166751437717
 20
-3.157931009928385
 30
0.0
 10
2.416669209798177
 20
-3.201848347981771
 30
0.0
 10
2.487257215711805
 20
-3.177047729492188
 30
0.0
 10
2.551134745279948
 20
-3.135756598578559
 30
0.0
 10
2.623619927300347
 20
-3.114756266276042
 30
0.0
  0
SPLINE
  5
5E
330
1F
100
AcDbEntity
  8
Layer 1
370
     0
100
AcDbSpline
210
0.0
220
0.0
230
1.0
 70
    11
 71
     3
 72
    29
 73
    25
 74
     0
 42
0.0000000001
 43
0.0000000001
 12
1.0
 22
0.0
 32
0.0
 13
1.0
 23
0.0
 33
0.0
 40
0.0
 40
0.0
 40
0.0
 40
0.0
 40
1.0
 40
1.0
 40
1.0
 40
2.0
 40
2.0
 40
2.0
 40
3.0
 40
3.0
 40
3.0
 40
4.0
 40
4.0
 40
4.0
 40
5.0
 40
5.0
 40
5.0
 40
6.0
 40
6.0
 40
6.0
 40
7.0
 40
7.0
 40
7.0
 40
8.0
 40
8.0
 40
8.0
 40
8.0
 10
2.429752773708767
 20
-3.246392144097222
 30
0.0
 10
2.540482415093316
 20
-3.21232181125217
 30
0.0
 10
2.61501227484809
 20
-3.182510375976562
 30
0.0
 10
2.759813096788194
 20
-3.148439195421007
 30
0.0
 10
2.878552754720052
 20
-3.120500352647569
 30
0.0
 10
3.005784776475694
 20
-3.165534125434028
 30
0.0
 10
3.08064948187934
 20
-3.182668050130208
 30
0.0
 10
3.07884046766493
 20
-3.187073601616753
 30
0.0
 10
3.077041625976562
 20
-3.19128672281901
 30
0.0
 10
3.075252956814236
 20
-3.195209079318576
 30
0.0
 10
3.062556796603733
 20
-3.223050435384114
 30
0.0
 10
3.050030178493924
 20
-3.250181410047743
 30
0.0
 10
3.037794325086805
 20
-3.276972452799479
 30
0.0
 10
2.897994995117188
 20
-3.291205512152778
 30
0.0
 10
2.606562296549479
 20
-3.358846028645833
 30
0.0
 10
2.57896253797743
 20
-3.370643615722656
 30
0.0
 10
2.531840006510417
 20
-3.390785217285156
 30
0.0
 10
2.488013373480903
 20
-3.422386169433594
 30
0.0
 10
2.444027370876736
 20
-3.453214857313368
 30
0.0
 10
2.414067586263021
 20
-3.403658548990885
 30
0.0
 10
2.384672376844618
 20
-3.353935241699219
 30
0.0
 10
2.356705559624566
 20
-3.299919976128472
 30
0.0
 10
2.376890394422743
 20
-3.275197347005208
 30
0.0
 10
2.401092529296875
 20
-3.255210876464844
 30
0.0
 10
2.429752773708767
 20
-3.246392144097222
 30
0.0
  0
SPLINE
  5
5F
330
1F
100
AcDbEntity
  8
Layer 1
370
     0
100
AcDbSpline
210
0.0
220
0.0
230
1.0
 70
    11
 71
     3
 72
    20
 73
    16
 74
     0
 42
0.0000000001
 43
0.0000000001
 12
1.0
 22
0.0
 32
0.0
 13
1.0
 23
0.0
 33
0.0
 40
0.0
 40
0.0
 40
0.0
 40
0.0
 40
1.0
 40
1.0
 40
1.0
 40
2.0
 40
2.0
 40
2.0
 40
3.0
 40
3.0
 40
3.0
 40
4.0
 40
4.0
 40
4.0
 40
5.0
 40
5.0
 40
5.0
 40
5.0
 10
1.790286593967014
 20
-3.434200710720486
 30
0.0
 10
1.819792005750868
 20
-3.425651550292969
 30
0.0
 10
2.181757609049479
 20
-3.369412740071614
 30
0.0
 10
2.258821275499132
 20
-3.375518798828125
 30
0.0
 10
2.253817240397135
 20
-3.388760036892361
 30
0.0
 10
2.249029371473524
 20
-3.402156405978733
 30
0.0
 10
2.244662814670139
 20
-3.415826585557725
 30
0.0
 10
2.176419576009114
 20
-3.407733493381076
 30
0.0
 10
1.988027784559462
 20
-3.433865017361111
 30
0.0
 10
1.968212551540798
 20
-3.43656751844618
 30
0.0
 10
1.837448120117188
 20
-3.454402499728733
 30
0.0
 10
1.708334181043837
 20
-3.477375454372829
 30
0.0
 10
1.583335876464844
 20
-3.521292792426215
 30
0.0
 10
1.653923882378472
 20
-3.496492173936632
 30
0.0
 10
1.717801411946615
 20
-3.455201043023003
 30
0.0
 10
1.790286593967014
 20
-3.434200710720486
 30
0.0
  0
SPLINE
  5
60
330
1F
100
AcDbEntity
  8
Layer 1
370
     0
100
AcDbSpline
210
0.0
220
0.0
230
1.0
 70
    11
 71
     3
 72
    29
 73
    25
 74
     0
 42
0.0000000001
 43
0.0000000001
 12
1.0
 22
0.0
 32
0.0
 13
1.0
 23
0.0
 33
0.0
 40
0.0
 40
0.0
 40
0.0
 40
0.0
 40
1.0
 40
1.0
 40
1.0
 40
2.0
 40
2.0
 40
2.0
 40
3.0
 40
3.0
 40
3.0
 40
4.0
 40
4.0
 40
4.0
 40
5.0
 40
5.0
 40
5.0
 40
6.0
 40
6.0
 40
6.0
 40
7.0
 40
7.0
 40
7.0
 40
8.0
 40
8.0
 40
8.0
 40
8.0
 10
1.642686631944444
 20
-3.545408460828993
 30
0.0
 10
1.744327121310764
 20
-3.514134724934896
 30
0.0
 10
1.812738206651476
 20
-3.486770629882812
 30
0.0
 10
1.945652431911892
 20
-3.455496893988715
 30
0.0
 10
2.0473878648546
 20
-3.431558397081163
 30
0.0
 10
2.155848185221354
 20
-3.465957641601562
 30
0.0
 10
2.225746154785156
 20
-3.483444213867188
 30
0.0
 10
2.215080261230469
 20
-3.527096218532986
 30
0.0
 10
2.20689222547743
 20
-3.571611192491319
 30
0.0
 10
2.20041995578342
 20
-3.615293714735243
 30
0.0
 10
2.073398166232639
 20
-3.623035007052951
 30
0.0
 10
1.747137281629774
 20
-3.698403252495659
 30
0.0
 10
1.717851426866319
 20
-3.710921393500434
 30
0.0
 10
1.683551364474826
 20
-3.725582546657986
 30
0.0
 10
1.651024712456597
 20
-3.746400621202257
 30
0.0
 10
1.618885464138455
 20
-3.768490261501736
 30
0.0
 10
1.600526597764757
 20
-3.753711276584201
 30
0.0
 10
1.581158955891927
 20
-3.73797607421875
 30
0.0
 10
1.572189331054688
 20
-3.725761413574219
 30
0.0
 10
1.561247931586371
 20
-3.710862901475694
 30
0.0
 10
1.552274068196615
 20
-3.672288682725694
 30
0.0
 10
1.540787590874566
 20
-3.649119906955295
 30
0.0
 10
1.563758850097656
 20
-3.604102240668403
 30
0.0
 10
1.597115410698785
 20
-3.559430440266927
 30
0.0
 10
1.642686631944444
 20
-3.545408460828993
 30
0.0
  0
SPLINE
  5
61
330
1F
100
AcDbEntity
  8
Layer 1
370
     0
100
AcDbSpline
210
0.0
220
0.0
230
1.0
 70
    11
 71
     3
 72
    20
 73
    16
 74
     0
 42
0.0000000001
 43
0.0000000001
 12
1.0
 22
0.0
 32
0.0
 13
1.0
 23
0.0
 33
0.0
 40
0.0
 40
0.0
 40
0.0
 40
0.0
 40
1.0
 40
1.0
 40
1.0
 40
2.0
 40
2.0
 40
2.0
 40
3.0
 40
3.0
 40
3.0
 40
4.0
 40
4.0
 40
4.0
 40
5.0
 40
5.0
 40
5.0
 40
5.0
 10
1.071465386284722
 20
-3.776232401529948
 30
0.0
 10
1.098462422688802
 20
-3.768410576714409
 30
0.0
 10
1.46718258327908
 20
-3.71155039469401
 30
0.0
 10
1.465277777777778
 20
-3.732638888888889
 30
0.0
 10
1.465277777777778
 20
-3.732638888888889
 30
0.0
 10
1.46183353000217
 20
-3.770524766710069
 30
0.0
 10
1.461806403266059
 20
-3.770822313096788
 30
0.0
 10
1.464216444227431
 20
-3.74383544921875
 30
0.0
 10
1.236364576551649
 20
-3.77545166015625
 30
0.0
 10
1.216493394639757
 20
-3.77816179063585
 30
0.0
 10
1.109907362196181
 20
-3.792699178059896
 30
0.0
 10
1.004666646321615
 20
-3.811424255371094
 30
0.0
 10
0.9027803209092882
 20
-3.847221374511719
 30
0.0
 10
0.9603161282009548
 20
-3.827006022135417
 30
0.0
 10
1.012383355034722
 20
-3.793350219726562
 30
0.0
 10
1.071465386284722
 20
-3.776232401529948
 30
0.0
  0
SPLINE
  5
62
330
1F
100
AcDbEntity
  8
Layer 1
370
     0
100
AcDbSpline
210
0.0
220
0.0
230
1.0
 70
    11
 71
     3
 72
    29
 73
    25
 74
     0
 42
0.0000000001
 43
0.0000000001
 12
1.0
 22
0.0
 32
0.0
 13
1.0
 23
0.0
 33
0.0
 40
0.0
 40
0.0
 40
0.0
 40
0.0
 40
1.0
 40
1.0
 40
1.0
 40
2.0
 40
2.0
 40
2.0
 40
3.0
 40
3.0
 40
3.0
 40
4.0
 40
4.0
 40
4.0
 40
5.0
 40
5.0
 40
5.0
 40
6.0
 40
6.0
 40
6.0
 40
7.0
 40
7.0
 40
7.0
 40
8.0
 40
8.0
 40
8.0
 40
8.0
 10
0.9322916666666666
 20
-3.875
 30
0.0
 10
1.022569444444444
 20
-3.847222222222222
 30
0.0
 10
1.083333333333333
 20
-3.822916666666667
 30
0.0
 10
1.201388888888889
 20
-3.795138888888889
 30
0.0
 10
1.30879635281033
 20
-3.769866095648871
 30
0.0
 10
1.424619886610243
 20
-3.8177490234375
 30
0.0
 10
1.481285095214844
 20
-3.826616075303819
 30
0.0
 10
1.479043748643663
 20
-3.849900987413194
 30
0.0
 10
1.47750006781684
 20
-3.874013264973958
 30
0.0
 10
1.476507398817274
 20
-3.899425082736545
 30
0.0
 10
1.38517083062066
 20
-3.897184583875868
 30
0.0
 10
1.044564141167535
 20
-3.950224982367621
 30
0.0
 10
1.015981038411458
 20
-3.958506266276042
 30
0.0
 10
0.9817428588867188
 20
-3.96842532687717
 30
0.0
 10
0.9494391547309027
 20
-3.982903374565972
 30
0.0
 10
0.9174287584092882
 20
-3.998000250922309
 30
0.0
 10
0.9145838419596354
 20
-3.994718763563368
 30
0.0
 10
0.9118440416124132
 20
-3.991470336914062
 30
0.0
 10
0.9088355170355902
 20
-3.988136291503906
 30
0.0
 10
0.8877249823676214
 20
-3.964737786187066
 30
0.0
 10
0.8752500745985242
 20
-3.942093743218316
 30
0.0
 10
0.8627861870659722
 20
-3.931760999891493
 30
0.0
 10
0.8810340033637152
 20
-3.905676099989149
 30
0.0
 10
0.9040230645073785
 20
-3.883698357476128
 30
0.0
 10
0.9322916666666666
 20
-3.875
 30
0.0
  0
SPLINE
  5
63
330
1F
100
AcDbEntity
  8
Layer 1
370
     0
100
AcDbSpline
210
0.0
220
0.0
230
1.0
 70
    11
 71
     3
 72
    20
 73
    16
 74
     0
 42
0.0000000001
 43
0.0000000001
 12
1.0
 22
0.0
 32
0.0
 13
1.0
 23
0.0
 33
0.0
 40
0.0
 40
0.0
 40
0.0
 40
0.0
 40
1.0
 40
1.0
 40
1.0
 40
2.0
 40
2.0
 40
2.0
 40
3.0
 40
3.0
 40
3.0
 40
4.0
 40
4.0
 40
4.0
 40
5.0
 40
5.0
 40
5.0
 40
5.0
 10
1.071465386284722
 20
-4.868411593967013
 30
0.0
 10
1.012383355034722
 20
-4.851293775770399
 30
0.0
 10
0.9603161282009548
 20
-4.817637125651041
 30
0.0
 10
0.9027803209092882
 20
-4.797422620985243
 30
0.0
 10
1.004666646321615
 20
-4.833219740125868
 30
0.0
 10
1.109907362196181
 20
-4.851944817437066
 30
0.0
 10
1.216493394639757
 20
-4.866481357150607
 30
0.0
 10
1.236364576551649
 20
-4.869192335340712
 30
0.0
 10
1.464216444227431
 20
-4.900807698567708
 30
0.0
 10
1.461806403266059
 20
-4.87382083468967
 30
0.0
 10
1.46183353000217
 20
-4.874118381076388
 30
0.0
 10
1.465277777777778
 20
-4.912005106608072
 30
0.0
 10
1.465277777777778
 20
-4.912005106608072
 30
0.0
 10
1.46718258327908
 20
-4.933093600802951
 30
0.0
 10
1.098462422688802
 20
-4.876232571072048
 30
0.0
 10
1.071465386284722
 20
-4.868411593967013
 30
0.0
  0
SPLINE
  5
64
330
1F
100
AcDbEntity
  8
Layer 1
370
     0
100
AcDbSpline
210
0.0
220
0.0
230
1.0
 70
    11
 71
     3
 72
    29
 73
    25
 74
     0
 42
0.0000000001
 43
0.0000000001
 12
1.0
 22
0.0
 32
0.0
 13
1.0
 23
0.0
 33
0.0
 40
0.0
 40
0.0
 40
0.0
 40
0.0
 40
1.0
 40
1.0
 40
1.0
 40
2.0
 40
2.0
 40
2.0
 40
3.0
 40
3.0
 40
3.0
 40
4.0
 40
4.0
 40
4.0
 40
5.0
 40
5.0
 40
5.0
 40
6.0
 40
6.0
 40
6.0
 40
7.0
 40
7.0
 40
7.0
 40
8.0
 40
8.0
 40
8.0
 40
8.0
 10
1.201388888888889
 20
-4.840277777777778
 30
0.0
 10
1.083333333333333
 20
-4.8125
 30
0.0
 10
1.022569444444444
 20
-4.788194444444444
 30
0.0
 10
0.9322916666666666
 20
-4.760416666666666
 30
0.0
 10
0.9147271050347222
 20
-4.755012512207031
 30
0.0
 10
0.8992258707682291
 20
-4.744443257649739
 30
0.0
 10
0.8856082492404513
 20
-4.730985853407118
 30
0.0
 10
0.9015511406792535
 20
-4.725783454047309
 30
0.0
 10
0.908521016438802
 20
-4.700023227267795
 30
0.0
 10
0.9362852308485242
 20
-4.669129265679254
 30
0.0
 10
0.9401957194010416
 20
-4.66477796766493
 30
0.0
 10
0.9438680013020833
 20
-4.660748799641927
 30
0.0
 10
0.9474012586805555
 20
-4.656880696614583
 30
0.0
 10
0.9698876274956597
 20
-4.666848924424913
 30
0.0
 10
0.9927181667751735
 20
-4.676027086046006
 30
0.0
 10
1.01651848687066
 20
-4.68292236328125
 30
0.0
 10
1.044448004828559
 20
-4.691014607747396
 30
0.0
 10
1.370489332411024
 20
-4.741886562771267
 30
0.0
 10
1.470606486002604
 20
-4.742119683159722
 30
0.0
 10
1.471617804633246
 20
-4.764849344889322
 30
0.0
 10
1.473108927408854
 20
-4.787611219618055
 30
0.0
 10
1.475277370876736
 20
-4.809761047363281
 30
0.0
 10
1.416663275824653
 20
-4.820832994249131
 30
0.0
 10
1.305029975043403
 20
-4.864663865831163
 30
0.0
 10
1.201388888888889
 20
-4.840277777777778
 30
0.0
  0
SPLINE
  5
65
330
1F
100
AcDbEntity
  8
Layer 1
370
     0
100
AcDbSpline
210
0.0
220
0.0
230
1.0
 70
    11
 71
     3
 72
    26
 73
    22
 74
     0
 42
0.0000000001
 43
0.0000000001
 12
1.0
 22
0.0
 32
0.0
 13
1.0
 23
0.0
 33
0.0
 40
0.0
 40
0.0
 40
0.0
 40
0.0
 40
1.0
 40
1.0
 40
1.0
 40
2.0
 40
2.0
 40
2.0
 40
3.0
 40
3.0
 40
3.0
 40
4.0
 40
4.0
 40
4.0
 40
5.0
 40
5.0
 40
5.0
 40
6.0
 40
6.0
 40
6.0
 40
7.0
 40
7.0
 40
7.0
 40
7.0
 10
1.55891842312283
 20
-4.989676581488715
 30
0.0
 10
1.575414021809896
 20
-4.929556952582465
 30
0.0
 10
1.615834554036458
 20
-4.900327894422743
 30
0.0
 10
1.658211602105035
 20
-4.857732137044271
 30
0.0
 10
1.677854749891493
 20
-4.869909498426649
 30
0.0
 10
1.697827657063802
 20
-4.880960252549913
 30
0.0
 10
1.71844482421875
 20
-4.88977305094401
 30
0.0
 10
1.748138427734375
 20
-4.902464972601996
 30
0.0
 10
2.083344353569879
 20
-4.979840596516927
 30
0.0
 10
2.20640140109592
 20
-4.985750834147135
 30
0.0
 10
2.211437649197049
 20
-5.02889421251085
 30
0.0
 10
2.21797858344184
 20
-5.074959648980035
 30
0.0
 10
2.226921081542969
 20
-5.120210435655381
 30
0.0
 10
2.158001369900174
 20
-5.136850992838541
 30
0.0
 10
2.046452840169271
 20
-5.17423333062066
 30
0.0
 10
1.942029317220052
 20
-5.149663289388021
 30
0.0
 10
1.810195922851562
 20
-5.118643018934462
 30
0.0
 10
1.742340087890625
 20
-5.091501024034288
 30
0.0
 10
1.641526963975694
 20
-5.060481601291232
 30
0.0
 10
1.607315911187066
 20
-5.049955579969618
 30
0.0
 10
1.580045064290365
 20
-5.022000630696614
 30
0.0
 10
1.55891842312283
 20
-4.989676581488715
 30
0.0
  0
SPLINE
  5
66
330
1F
100
AcDbEntity
  8
Layer 1
370
     0
100
AcDbSpline
210
0.0
220
0.0
230
1.0
 70
    11
 71
     3
 72
    20
 73
    16
 74
     0
 42
0.0000000001
 43
0.0000000001
 12
1.0
 22
0.0
 32
0.0
 13
1.0
 23
0.0
 33
0.0
 40
0.0
 40
0.0
 40
0.0
 40
0.0
 40
1.0
 40
1.0
 40
1.0
 40
2.0
 40
2.0
 40
2.0
 40
3.0
 40
3.0
 40
3.0
 40
4.0
 40
4.0
 40
4.0
 40
5.0
 40
5.0
 40
5.0
 40
5.0
 10
1.790286593967014
 20
-5.176909552680121
 30
0.0
 10
1.717801411946615
 20
-5.155909220377604
 30
0.0
 10
1.653923882378472
 20
-5.114618089463975
 30
0.0
 10
1.583335876464844
 20
-5.089817470974392
 30
0.0
 10
1.708334181043837
 20
-5.133734809027778
 30
0.0
 10
1.837448120117188
 20
-5.156707763671875
 30
0.0
 10
1.968212551540798
 20
-5.174542744954427
 30
0.0
 10
1.988011678059896
 20
-5.177242702907986
 30
0.0
 10
2.176116095648871
 20
-5.203333536783854
 30
0.0
 10
2.244497511121962
 20
-5.195303175184462
 30
0.0
 10
2.248337639702691
 20
-5.209151373969184
 30
0.0
 10
2.252518547905816
 20
-5.22263675265842
 30
0.0
 10
2.256991068522135
 20
-5.235734727647569
 30
0.0
 10
2.176099989149305
 20
-5.240820142957899
 30
0.0
 10
1.819558885362413
 20
-5.185390048556857
 30
0.0
 10
1.790286593967014
 20
-5.176909552680121
 30
0.0
  0
SPLINE
  5
67
330
1F
100
AcDbEntity
  8
Layer 1
370
     0
100
AcDbSpline
210
0.0
220
0.0
230
1.0
 70
    11
 71
     3
 72
    29
 73
    25
 74
     0
 42
0.0000000001
 43
0.0000000001
 12
1.0
 22
0.0
 32
0.0
 13
1.0
 23
0.0
 33
0.0
 40
0.0
 40
0.0
 40
0.0
 40
0.0
 40
1.0
 40
1.0
 40
1.0
 40
2.0
 40
2.0
 40
2.0
 40
3.0
 40
3.0
 40
3.0
 40
4.0
 40
4.0
 40
4.0
 40
5.0
 40
5.0
 40
5.0
 40
6.0
 40
6.0
 40
6.0
 40
7.0
 40
7.0
 40
7.0
 40
8.0
 40
8.0
 40
8.0
 40
8.0
 10
2.347559611002604
 20
-5.339697096082899
 30
0.0
 10
2.38484870062934
 20
-5.28818596733941
 30
0.0
 10
2.416427612304688
 20
-5.23795657687717
 30
0.0
 10
2.448441399468316
 20
-5.18487803141276
 30
0.0
 10
2.491148206922743
 20
-5.214847988552517
 30
0.0
 10
2.533797370062934
 20
-5.245213826497396
 30
0.0
 10
2.579555935329861
 20
-5.26477305094401
 30
0.0
 10
2.607056511773003
 20
-5.276527404785156
 30
0.0
 10
2.896542867024739
 20
-5.343741522894965
 30
0.0
 10
3.036922878689236
 20
-5.358306037055121
 30
0.0
 10
3.046686808268229
 20
-5.376391092936197
 30
0.0
 10
3.0562744140625
 20
-5.394571092393663
 30
0.0
 10
3.065346611870659
 20
-5.412984212239583
 30
0.0
 10
3.084017435709635
 20
-5.450881958007812
 30
0.0
 10
3.101758321126302
 20
-5.489208645290798
 30
0.0
 10
3.119565327962239
 20
-5.527506510416666
 30
0.0
 10
3.045350816514757
 20
-5.543824937608506
 30
0.0
 10
2.91558837890625
 20
-5.591118706597222
 30
0.0
 10
2.794535319010417
 20
-5.562634785970052
 30
0.0
 10
2.649734497070312
 20
-5.528564453125
 30
0.0
 10
2.575204637315538
 20
-5.498752170138888
 30
0.0
 10
2.464474995930989
 20
-5.464681837293837
 30
0.0
 10
2.410772535536024
 20
-5.448157416449653
 30
0.0
 10
2.372637430826823
 20
-5.392574734157986
 30
0.0
 10
2.347559611002604
 20
-5.339697096082899
 30
0.0
  0
SPLINE
  5
68
330
1F
100
AcDbEntity
  8
Layer 1
370
     0
100
AcDbSpline
210
0.0
220
0.0
230
1.0
 70
    11
 71
     3
 72
    20
 73
    16
 74
     0
 42
0.0000000001
 43
0.0000000001
 12
1.0
 22
0.0
 32
0.0
 13
1.0
 23
0.0
 33
0.0
 40
0.0
 40
0.0
 40
0.0
 40
0.0
 40
1.0
 40
1.0
 40
1.0
 40
2.0
 40
2.0
 40
2.0
 40
3.0
 40
3.0
 40
3.0
 40
4.0
 40
4.0
 40
4.0
 40
5.0
 40
5.0
 40
5.0
 40
5.0
 10
2.623619927300347
 20
-5.579687330457899
 30
0.0
 10
2.551134745279948
 20
-5.558686998155381
 30
0.0
 10
2.487257215711805
 20
-5.517395867241754
 30
0.0
 10
2.416669209798177
 20
-5.49259524875217
 30
0.0
 10
2.54166751437717
 20
-5.536512586805555
 30
0.0
 10
2.670781453450521
 20
-5.559485541449653
 30
0.0
 10
2.801545884874132
 20
-5.577320522732204
 30
0.0
 10
2.825924343532986
 20
-5.580645243326822
 30
0.0
 10
3.105462816026475
 20
-5.619433085123697
 30
0.0
 10
3.102506001790364
 20
-5.586324055989583
 30
0.0
 10
3.1025390625
 20
-5.586689419216579
 30
0.0
 10
3.106764899359809
 20
-5.633169386121962
 30
0.0
 10
3.106764899359809
 20
-5.633169386121962
 30
0.0
 10
3.109101189507378
 20
-5.659042358398438
 30
0.0
 10
2.656739976671007
 20
-5.589282565646701
 30
0.0
 10
2.623619927300347
 20
-5.579687330457899
 30
0.0
  0
HATCH
  5
69
330
1F
100
AcDbEntity
  8
Layer 1
 62
   254
420
 15066855
100
AcDbHatch
 10
0.0
 20
0.0
 30
0.0
210
0.0
220
0.0
230
1.0
  2
SOLID
 70
     1
 71
     0
 91
       21
 92
        1
 93
        1
 72
     4
 94
        3
 73
     0
 74
     1
 95
      179
 96
      175
 40
0.0
 40
0.0
 40
0.0
 40
0.0
 40
1.0
 40
1.0
 40
1.0
 40
2.0
 40
2.0
 40
2.0
 40
3.0
 40
3.0
 40
3.0
 40
4.0
 40
4.0
 40
4.0
 40
5.0
 40
5.0
 40
5.0
 40
6.0
 40
6.0
 40
6.0
 40
7.0
 40
7.0
 40
7.0
 40
8.0
 40
8.0
 40
8.0
 40
9.0
 40
9.0
 40
9.0
 40
10.0
 40
10.0
 40
10.0
 40
11.0
 40
11.0
 40
11.0
 40
12.0
 40
12.0
 40
12.0
 40
13.0
 40
13.0
 40
13.0
 40
14.0
 40
14.0
 40
14.0
 40
15.0
 40
15.0
 40
15.0
 40
16.0
 40
16.0
 40
16.0
 40
17.0
 40
17.0
 40
17.0
 40
18.0
 40
18.0
 40
18.0
 40
19.0
 40
19.0
 40
19.0
 40
20.0
 40
20.0
 40
20.0
 40
21.0
 40
21.0
 40
21.0
 40
22.0
 40
22.0
 40
22.0
 40
23.0
 40
23.0
 40
23.0
 40
24.0
 40
24.0
 40
24.0
 40
25.0
 40
25.0
 40
25.0
 40
26.0
 40
26.0
 40
26.0
 40
27.0
 40
27.0
 40
27.0
 40
28.0
 40
28.0
 40
28.0
 40
29.0
 40
29.0
 40
29.0
 40
30.0
 40
30.0
 40
30.0
 40
31.0
 40
31.0
 40
31.0
 40
32.0
 40
32.0
 40
32.0
 40
33.0
 40
33.0
 40
33.0
 40
34.0
 40
34.0
 40
34.0
 40
35.0
 40
35.0
 40
35.0
 40
36.0
 40
36.0
 40
36.0
 40
37.0
 40
37.0
 40
37.0
 40
38.0
 40
38.0
 40
38.0
 40
39.0
 40
39.0
 40
39.0
 40
40.0
 40
40.0
 40
40.0
 40
41.0
 40
41.0
 40
41.0
 40
42.0
 40
42.0
 40
42.0
 40
43.0
 40
43.0
 40
43.0
 40
44.0
 40
44.0
 40
44.0
 40
45.0
 40
45.0
 40
45.0
 40
46.0
 40
46.0
 40
46.0
 40
47.0
 40
47.0
 40
47.0
 40
48.0
 40
48.0
 40
48.0
 40
49.0
 40
49.0
 40
49.0
 40
50.0
 40
50.0
 40
50.0
 40
51.0
 40
51.0
 40
51.0
 40
52.0
 40
52.0
 40
52.0
 40
53.0
 40
53.0
 40
53.0
 40
54.0
 40
54.0
 40
54.0
 40
55.0
 40
55.0
 40
55.0
 40
56.0
 40
56.0
 40
56.0
 40
57.0
 40
57.0
 40
57.0
 40
58.0
 40
58.0
 40
58.0
 40
58.0
 10
4.102472941080729
 20
-0.0194040934244792
 10
4.102472941080729
 20
-0.0194040934244792
 10
4.102472941080729
 20
-3.811455620659722
 10
4.102472941080729
 20
-3.811455620659722
 10
4.011520385742188
 20
-3.811937967936198
 10
4.045032077365451
 20
-3.842874315049913
 10
4.004230075412326
 20
-3.898426479763454
 10
3.981233384874132
 20
-3.929739210340712
 10
3.999354044596354
 20
-3.918057759602864
 10
3.941584269205729
 20
-3.940932379828559
 10
3.905736287434896
 20
-3.955126444498698
 10
3.864327324761284
 20
-3.94279056125217
 10
3.853447808159722
 20
-3.965996636284722
 10
3.84322272406684
 20
-3.8778322007921
 10
3.777203030056423
 20
-3.610908508300781
 10
3.764829847547743
 20
-3.560312906901042
 10
3.737930297851562
 20
-3.450315687391493
 10
3.703518337673611
 20
-3.398732503255208
 10
3.673233032226562
 20
-3.285570780436198
 10
3.656550089518229
 20
-3.223235236273871
 10
3.647425333658854
 20
-3.092478434244792
 10
3.605033026801215
 20
-3.04533216688368
 10
3.563257853190104
 20
-2.998876783582899
 10
3.443250868055555
 20
-2.977221171061198
 10
3.385225084092882
 20
-2.95900387234158
 10
3.322530110677083
 20
-2.939320034450955
 10
3.240032619900173
 20
-2.894940694173177
 10
3.189407348632812
 20
-2.942645602756076
 10
3.176569620768229
 20
-2.954744127061632
 10
3.164940728081597
 20
-2.972307840983073
 10
3.154242621527778
 20
-2.992848714192708
 10
3.067452324761284
 20
-3.002246432834201
 10
2.700776841905382
 20
-3.043877495659722
 10
2.580941942003038
 20
-3.088815477159288
 10
2.444658915201823
 20
-3.139921400282118
 10
2.419106377495659
 20
-3.131403605143229
 10
2.359482659233941
 20
-3.182510375976562
 10
2.343686421712239
 20
-3.196050008138021
 10
2.33030531141493
 20
-3.223397148980034
 10
2.31913333468967
 20
-3.256201002332899
 10
2.306622823079427
 20
-3.274753994411892
 10
2.295255025227864
 20
-3.294464959038628
 10
2.284985860188802
 20
-3.315182156032986
 10
2.177520751953125
 20
-3.32721201578776
 10
1.882975260416667
 20
-3.362700568305121
 10
1.781464470757378
 20
-3.400767008463542
 10
1.65636952718099
 20
-3.447678460015191
 10
1.632914225260417
 20
-3.439860026041667
 10
1.578184339735243
 20
-3.486770629882812
 10
1.549285888671875
 20
-3.511540730794271
 10
1.52911376953125
 20
-3.586438496907552
 10
1.516504075792101
 20
-3.651629130045573
 10
1.514635721842448
 20
-3.657633463541667
 10
1.5126953125
 20
-3.663702223036024
 10
1.510987175835503
 20
-3.669598897298177
 10
1.423454284667969
 20
-3.679274664984809
 10
1.148487514919705
 20
-3.711678398980034
 10
1.055555555555556
 20
-3.746527777777778
 10
0.9444444444444444
 20
-3.788194444444444
 10
0.923611111111111
 20
-3.78125
 10
0.875
 20
-3.822916666666667
 10
0.8537996080186632
 20
-3.841088189019097
 10
0.8378863864474826
 20
-3.889639960394965
 10
0.826676262749566
 20
-3.938616434733073
 10
0.8221121893988714
 20
-3.943221198187934
 10
0.8171403672960069
 20
-3.949095831976996
 10
0.8115649753146701
 20
-3.956617567274305
 10
0.7705162896050347
 20
-4.011998494466146
 10
0.7623502943250867
 20
-4.109640333387587
 10
0.7464608086480035
 20
-4.174835205078125
 10
0.6970104641384548
 20
-4.158901638454861
 10
0.6674686008029513
 20
-4.168546888563368
 10
0.6842990451388888
 20
-4.113431294759114
 10
0.683548821343316
 20
-4.112885369194879
 10
0.6842091878255208
 20
-4.101525200737847
 10
0.7007564968532985
 20
-4.093634711371528
 10
0.6536653306749132
 20
-4.084229363335504
 10
0.6348605685763888
 20
-4.140456305609809
 10
0.5940526326497395
 20
-4.151607089572482
 10
0.5470030042860243
 20
-4.164462619357638
 10
0.5017437405056423
 20
-4.145971510145399
 10
0.4531622992621527
 20
-4.166302151150173
 10
0.4047927856445312
 20
-4.186544630262587
 10
0.2469134860568576
 20
-4.27750990125868
 10
0.2469134860568576
 20
-4.333058675130208
 10
0.2469134860568576
 20
-4.392430623372396
 10
0.3982789781358507
 20
-4.481520758734809
 10
0.4557749430338541
 20
-4.503848605685763
 10
0.5091739230685763
 20
-4.524585300021701
 10
0.5569076538085938
 20
-4.506392584906684
 10
0.6081899007161458
 20
-4.518620808919271
 10
0.649900648328993
 20
-4.528566148546006
 10
0.6568662855360242
 20
-4.577407836914062
 10
0.7125489976671007
 20
-4.561414930555555
 10
0.687299092610677
 20
-4.506322224934896
 10
0.7107730441623263
 20
-4.497205946180555
 10
0.7604624430338541
 20
-4.445852491590712
 10
0.762847900390625
 20
-4.506835089789496
 10
0.775360107421875
 20
-4.641949123806423
 10
0.827789306640625
 20
-4.701526217990451
 10
0.8389324612087673
 20
-4.748867458767361
 10
0.8544828626844617
 20
-4.794913397894965
 10
0.875
 20
-4.8125
 10
0.923611111111111
 20
-4.854166666666666
 10
0.9444444444444444
 20
-4.847222222222222
 10
1.055555555555556
 20
-4.888888888888888
 10
1.149475945366753
 20
-4.924108717176649
 10
1.429427252875434
 20
-4.956843905978732
 10
1.513816833496094
 20
-4.966131422254774
 10
1.516050550672743
 20
-4.970028347439236
 10
1.518390231662326
 20
-4.973688761393229
 10
1.520844353569878
 20
-4.977094014485677
 10
1.533457438151042
 20
-5.035776774088541
 10
1.552091810438368
 20
-5.096822950575087
 10
1.577548556857639
 20
-5.118643018934462
 10
1.63183339436849
 20
-5.165173000759548
 10
1.655097961425781
 20
-5.157418145073785
 10
1.779176500108507
 20
-5.203947279188368
 10
1.879759894476996
 20
-5.241666158040364
 10
2.171403672960069
 20
-5.276830885145399
 10
2.278260972764757
 20
-5.288798014322916
 10
2.292542351616753
 20
-5.318990919325087
 10
2.309330410427517
 20
-5.345026652018229
 10
2.3292236328125
 20
-5.36454603407118
 10
2.3294677734375
 20
-5.364223056369357
 10
2.329691569010417
 20
-5.363905164930555
 10
2.329934861924913
 20
-5.363582187228732
 10
2.343788994683159
 20
-5.430832756890191
 10
2.364863077799479
 20
-5.503414577907986
 10
2.394204881456163
 20
-5.528564453125
 10
2.453828599717882
 20
-5.579670376247829
 10
2.479381137424045
 20
-5.571152581108941
 10
2.61566416422526
 20
-5.622258504231771
 10
2.746358235677083
 20
-5.671268886990017
 10
3.170543246799045
 20
-5.716334025065104
 10
3.205132378472222
 20
-5.719950358072916
 10
3.214373270670573
 20
-5.735994127061631
 10
3.224086337619358
 20
-5.748464796278212
 10
3.233927408854167
 20
-5.753040737575954
 10
3.303660074869792
 20
-5.785469055175781
 10
3.523469712999132
 20
-5.640403747558594
 10
3.583501180013021
 20
-5.603423224555121
 10
3.685489230685764
 20
-5.540594312879774
 10
3.676674736870659
 20
-5.434063381618923
 10
3.701400756835938
 20
-5.322236802842881
 10
3.716764662000868
 20
-5.252755906846788
 10
3.736251831054688
 20
-5.251929389105903
 10
3.764728122287326
 20
-5.198328653971354
 10
3.791183471679688
 20
-5.148528205023871
 10
3.795506795247396
 20
-5.089736090766059
 10
3.804387410481771
 20
-5.034712897406684
 10
3.823532104492188
 20
-4.916117350260416
 10
3.842481825086805
 20
-4.798261006673177
 10
3.865954928927951
 20
-4.680434332953559
 10
3.904719034830729
 20
-4.689100477430555
 10
3.963356865776909
 20
-4.691134134928385
 10
3.993426852756076
 20
-4.720670912000868
 10
4.014287312825521
 20
-4.741161770290798
 10
4.013031005859375
 20
-4.771411471896701
 10
4.03328111436632
 20
-4.793302747938368
 10
4.061284383138021
 20
-4.823572794596354
 10
4.08158196343316
 20
-4.82547844780816
 10
4.102472941080729
 20
-4.819272359212239
 10
4.102472941080729
 20
-4.819272359212239
 10
4.102472941080729
 20
-8.531903584798176
 10
4.102472941080729
 20
-8.531903584798176
 10
4.102472941080729
 20
-8.531903584798176
 10
6.033296373155381
 20
-8.531903584798176
 10
6.033296373155381
 20
-8.531903584798176
 10
6.033296373155381
 20
-8.531903584798176
 10
6.033296373155381
 20
-0.0194040934244792
 10
6.033296373155381
 20
-0.0194040934244792
 10
6.033296373155381
 20
-0.0194040934244792
 10
4.102472941080729
 20
-0.0194040934244792
 10
4.102472941080729
 20
-0.0194040934244792
 97
        0
 97
        0
 92
        1
 93
        1
 72
     4
 94
        3
 73
     0
 74
     1
 95
       29
 96
       25
 40
0.0
 40
0.0
 40
0.0
 40
0.0
 40
1.0
 40
1.0
 40
1.0
 40
2.0
 40
2.0
 40
2.0
 40
3.0
 40
3.0
 40
3.0
 40
4.0
 40
4.0
 40
4.0
 40
5.0
 40
5.0
 40
5.0
 40
6.0
 40
6.0
 40
6.0
 40
7.0
 40
7.0
 40
7.0
 40
8.0
 40
8.0
 40
8.0
 40
8.0
 10
2.927895439995659
 20
-5.119510226779513
 10
2.943821377224392
 20
-5.181613498263888
 10
2.972226460774739
 20
-5.23883310953776
 10
3.002709282769097
 20
-5.295421176486545
 10
2.91168212890625
 20
-5.28863525390625
 10
2.792100694444444
 20
-5.264199998643663
 10
2.775806850857205
 20
-5.260921054416232
 10
2.668050977918837
 20
-5.23923831515842
 10
2.561313205295139
 20
-5.21287367078993
 10
2.456722683376736
 20
-5.171131557888454
 10
2.461363898383246
 20
-5.163390265570746
 10
2.466011047363281
 20
-5.155624389648438
 10
2.470713297526042
 20
-5.147733052571614
 10
2.529852125379774
 20
-5.048496670193142
 10
2.604629516601562
 20
-4.940540737575954
 10
2.647601657443576
 20
-4.82861328125
 10
2.658342149522569
 20
-4.834445529513888
 10
2.669191148546007
 20
-4.83990732828776
 10
2.680250379774305
 20
-4.844634162055121
 10
2.695601569281684
 20
-4.851195441351996
 10
2.792650010850694
 20
-4.875039842393663
 10
2.899785359700521
 20
-4.897365993923611
 10
2.904251946343316
 20
-4.972627427842881
 10
2.909619649251302
 20
-5.048249138726129
 10
2.927895439995659
 20
-5.119510226779513
 97
        0
 97
        0
 92
        1
 93
        1
 72
     4
 94
        3
 73
     0
 74
     1
 95
       29
 96
       25
 40
0.0
 40
0.0
 40
0.0
 40
0.0
 40
1.0
 40
1.0
 40
1.0
 40
2.0
 40
2.0
 40
2.0
 40
3.0
 40
3.0
 40
3.0
 40
4.0
 40
4.0
 40
4.0
 40
5.0
 40
5.0
 40
5.0
 40
6.0
 40
6.0
 40
6.0
 40
7.0
 40
7.0
 40
7.0
 40
8.0
 40
8.0
 40
8.0
 40
8.0
 10
1.476945665147569
 20
-3.941107008192274
 10
1.480260213216146
 20
-4.001590304904513
 10
1.490035163031684
 20
-4.103786892361111
 10
1.466882493760851
 20
-4.133336385091146
 10
1.444918314615885
 20
-4.161368476019965
 10
1.422678629557292
 20
-4.138642205132379
 10
1.399871826171875
 20
-4.148555331759982
 10
1.386021084255642
 20
-4.154575771755642
 10
1.367835998535156
 20
-4.174549526638454
 10
1.351827833387587
 20
-4.181208292643229
 10
1.290111117892795
 20
-4.206881205240885
 10
1.227884928385417
 20
-4.201360066731771
 10
1.16483645968967
 20
-4.195123460557726
 10
1.093335469563802
 20
-4.188050164116754
 10
1.050223456488715
 20
-4.193072848849826
 10
1.010690477159288
 20
-4.13039313422309
 10
0.9824252658420138
 20
-4.085577223036024
 10
0.9598134358723958
 20
-4.049009535047743
 10
0.9277657402886285
 20
-4.01017083062066
 10
1.015183342827691
 20
-3.987969292534722
 10
1.104136149088542
 20
-3.973116556803385
 10
1.193906995985243
 20
-3.960873074001736
 10
1.214407179090712
 20
-3.958077324761284
 10
1.415289137098524
 20
-3.930218166775173
 10
1.476945665147569
 20
-3.941107008192274
 97
        0
 97
        0
 92
        1
 93
        1
 72
     4
 94
        3
 73
     0
 74
     1
 95
       35
 96
       31
 40
0.0
 40
0.0
 40
0.0
 40
0.0
 40
1.0
 40
1.0
 40
1.0
 40
2.0
 40
2.0
 40
2.0
 40
3.0
 40
3.0
 40
3.0
 40
4.0
 40
4.0
 40
4.0
 40
5.0
 40
5.0
 40
5.0
 40
6.0
 40
6.0
 40
6.0
 40
7.0
 40
7.0
 40
7.0
 40
8.0
 40
8.0
 40
8.0
 40
9.0
 40
9.0
 40
9.0
 40
10.0
 40
10.0
 40
10.0
 40
10.0
 10
2.17854987250434
 20
-3.983214484320746
 10
2.17531500922309
 20
-4.000209384494357
 10
2.14274427625868
 20
-4.094580756293403
 10
2.143359714084201
 20
-4.020104302300347
 10
2.100532531738281
 20
-4.028768751356337
 10
2.120251973470052
 20
-4.062345716688368
 10
2.095867580837674
 20
-4.077649434407552
 10
2.071376376681858
 20
-4.093020968967013
 10
2.031255933973524
 20
-4.098221672905816
 10
2.002454969618055
 20
-4.101143731011285
 10
1.951908535427517
 20
-4.106272379557291
 10
1.845420837402344
 20
-4.054850260416666
 10
1.809128655327691
 20
-4.088477240668403
 10
1.768747117784288
 20
-3.976686265733507
 10
1.737500508626302
 20
-3.879823472764757
 10
1.651385837131076
 20
-3.795934889051649
 10
1.648585001627604
 20
-3.793206108940972
 10
1.645183987087673
 20
-3.790198432074653
 10
1.641522725423177
 20
-3.787063598632812
 10
1.73117913140191
 20
-3.755165947808159
 10
1.82226816813151
 20
-3.733251783582899
 10
1.914102342393663
 20
-3.714773390028212
 10
1.933725145128038
 20
-3.710824754503038
 10
2.10312991672092
 20
-3.676189846462673
 10
2.192042032877604
 20
-3.678672790527344
 10
2.189469231499566
 20
-3.700510660807292
 10
2.187232971191406
 20
-3.721914503309462
 10
2.185243394639757
 20
-3.742627461751302
 10
2.177827623155382
 20
-3.819843716091579
 10
2.192979600694444
 20
-3.907413058810764
 10
2.17854987250434
 20
-3.983214484320746
 97
        0
 97
        0
 92
        1
 93
        1
 72
     4
 94
        3
 73
     0
 74
     1
 95
       26
 96
       22
 40
0.0
 40
0.0
 40
0.0
 40
0.0
 40
1.0
 40
1.0
 40
1.0
 40
2.0
 40
2.0
 40
2.0
 40
3.0
 40
3.0
 40
3.0
 40
4.0
 40
4.0
 40
4.0
 40
5.0
 40
5.0
 40
5.0
 40
6.0
 40
6.0
 40
6.0
 40
7.0
 40
7.0
 40
7.0
 40
7.0
 10
1.013678656684028
 20
-4.561404758029513
 10
1.042989942762587
 20
-4.493045383029513
 10
1.028460184733073
 20
-4.502172682020399
 10
1.106005350748698
 20
-4.484467400444879
 10
1.168746100531684
 20
-4.470141940646701
 10
1.21832529703776
 20
-4.467575073242188
 10
1.281283060709635
 20
-4.476550632052951
 10
1.345859103732639
 20
-4.485757615831163
 10
1.405451456705729
 20
-4.539641486273871
 10
1.469595167371962
 20
-4.505057440863715
 10
1.470889621310764
 20
-4.537715488009982
 10
1.467374165852865
 20
-4.61611090766059
 10
1.469262017144097
 20
-4.701452467176649
 10
1.399753146701389
 20
-4.708975897894965
 10
1.214110480414496
 20
-4.683237711588541
 10
1.194444444444444
 20
-4.680555555555555
 10
1.116522894965278
 20
-4.669927808973524
 10
1.039212544759115
 20
-4.657356262207031
 10
0.9629830254448785
 20
-4.639734903971354
 10
0.9836866590711805
 20
-4.616619533962673
 10
0.9980239868164062
 20
-4.597914801703559
 10
1.013678656684028
 20
-4.561404758029513
 97
        0
 97
        0
 92
        1
 93
        1
 72
     4
 94
        3
 73
     0
 74
     1
 95
       23
 96
       19
 40
0.0
 40
0.0
 40
0.0
 40
0.0
 40
1.0
 40
1.0
 40
1.0
 40
2.0
 40
2.0
 40
2.0
 40
3.0
 40
3.0
 40
3.0
 40
4.0
 40
4.0
 40
4.0
 40
5.0
 40
5.0
 40
5.0
 40
6.0
 40
6.0
 40
6.0
 40
6.0
 10
1.785254584418403
 20
-4.62768809000651
 10
1.841891818576389
 20
-4.494967142740885
 10
2.054598490397135
 20
-4.505956861707899
 10
2.129180060492621
 20
-4.614583333333333
 10
2.202384101019965
 20
-4.498780992296006
 10
2.190282185872396
 20
-4.817018296983506
 10
2.193781534830729
 20
-4.856572469075521
 10
2.195488823784722
 20
-4.875865512424045
 10
2.197391086154514
 20
-4.897937350802951
 10
2.19966549343533
 20
-4.921784294976129
 10
2.112964206271701
 20
-4.926419576009114
 10
1.934842427571615
 20
-4.889974806043837
 10
1.914695739746094
 20
-4.885921054416232
 10
1.837547302246094
 20
-4.870396931966146
 10
1.760928683810764
 20
-4.8524169921875
 10
1.685237460666233
 20
-4.828171624077691
 10
1.738801744249132
 20
-4.764010959201388
 10
1.751327514648438
 20
-4.707190619574653
 10
1.785254584418403
 20
-4.62768809000651
 97
        0
 97
        0
 92
        1
 93
        1
 72
     4
 94
        3
 73
     0
 74
     1
 95
       29
 96
       25
 40
0.0
 40
0.0
 40
0.0
 40
0.0
 40
1.0
 40
1.0
 40
1.0
 40
2.0
 40
2.0
 40
2.0
 40
3.0
 40
3.0
 40
3.0
 40
4.0
 40
4.0
 40
4.0
 40
5.0
 40
5.0
 40
5.0
 40
6.0
 40
6.0
 40
6.0
 40
7.0
 40
7.0
 40
7.0
 40
8.0
 40
8.0
 40
8.0
 40
8.0
 10
2.628751118977864
 20
-3.774898952907986
 10
2.713560316297743
 20
-3.745815700954861
 10
2.799608866373698
 20
-3.725278218587239
 10
2.886324564615885
 20
-3.707828945583767
 10
2.88897705078125
 20
-3.707294887966579
 10
2.894454108344184
 20
-3.706185234917534
 10
2.902015686035156
 20
-3.704695807562934
 10
2.901341756184896
 20
-3.710906982421875
 10
2.900558471679688
 20
-3.717033386230469
 10
2.900002373589409
 20
-3.723336113823784
 10
2.892400105794271
 20
-3.809497409396701
 10
2.895146687825521
 20
-3.906001620822483
 10
2.875676472981771
 20
-3.990247938368055
 10
2.857659233940972
 20
-4.068195766872829
 10
2.879250420464409
 20
-4.037084791395399
 10
2.818940904405382
 20
-4.039950052897135
 10
2.806018405490451
 20
-4.040564643012153
 10
2.706412421332465
 20
-4.012733459472656
 10
2.697691175672743
 20
-4.003306070963541
 10
2.667648315429688
 20
-3.970826043023003
 10
2.664381239149305
 20
-3.860521952311198
 10
2.646777682834201
 20
-3.815705193413628
 10
2.641433715820312
 20
-3.802101135253906
 10
2.635245429144965
 20
-3.788480970594618
 10
2.628751118977864
 20
-3.774898952907986
 97
        0
 97
        0
 92
        1
 93
        1
 72
     4
 94
        3
 73
     0
 74
     1
 95
       35
 96
       31
 40
0.0
 40
0.0
 40
0.0
 40
0.0
 40
1.0
 40
1.0
 40
1.0
 40
2.0
 40
2.0
 40
2.0
 40
3.0
 40
3.0
 40
3.0
 40
4.0
 40
4.0
 40
4.0
 40
5.0
 40
5.0
 40
5.0
 40
6.0
 40
6.0
 40
6.0
 40
7.0
 40
7.0
 40
7.0
 40
8.0
 40
8.0
 40
8.0
 40
9.0
 40
9.0
 40
9.0
 40
10.0
 40
10.0
 40
10.0
 40
10.0
 10
2.670915391710069
 20
-4.754100375705295
 10
2.677668253580729
 20
-4.725316365559896
 10
2.674189249674479
 20
-4.666112263997396
 10
2.695451524522569
 20
-4.645039876302083
 10
2.700515747070312
 20
-4.640027364095052
 10
2.70711432562934
 20
-4.63696543375651
 10
2.713567097981771
 20
-4.634000990125868
 10
2.719801161024305
 20
-4.631136576334635
 10
2.727628919813368
 20
-4.627026028103298
 10
2.736482408311632
 20
-4.622444152832031
 10
2.781302558051215
 20
-4.599250793457031
 10
2.852388170030382
 20
-4.564001295301649
 10
2.87591552734375
 20
-4.617429945203993
 10
2.878543429904514
 20
-4.623396979437934
 10
2.878918117947049
 20
-4.630015903049045
 10
2.879257202148438
 20
-4.636466979980469
 10
2.88204108344184
 20
-4.689779493543837
 10
2.888697306315104
 20
-4.741978963216146
 10
2.893061319986979
 20
-4.79466078016493
 10
2.894436306423611
 20
-4.811249627007379
 10
2.895556131998698
 20
-4.827989366319444
 10
2.896607293023003
 20
-4.844780815972222
 10
2.886739095052083
 20
-4.842853969997829
 10
2.879640367296007
 20
-4.84141370985243
 10
2.876501295301649
 20
-4.840782165527344
 10
2.804322136773003
 20
-4.82625749376085
 10
2.732599046495225
 20
-4.809638129340278
 10
2.661671956380208
 20
-4.787701924641927
 10
2.665092468261719
 20
-4.776529100206163
 10
2.668279012044271
 20
-4.765335083007812
 10
2.670915391710069
 20
-4.754100375705295
 97
        0
 97
        0
 92
        1
 93
        1
 72
     4
 94
        3
 73
     0
 74
     1
 95
       26
 96
       22
 40
0.0
 40
0.0
 40
0.0
 40
0.0
 40
1.0
 40
1.0
 40
1.0
 40
2.0
 40
2.0
 40
2.0
 40
3.0
 40
3.0
 40
3.0
 40
4.0
 40
4.0
 40
4.0
 40
5.0
 40
5.0
 40
5.0
 40
6.0
 40
6.0
 40
6.0
 40
7.0
 40
7.0
 40
7.0
 40
7.0
 10
2.909177144368489
 20
-3.651334974500868
 10
2.802213033040364
 20
-3.673634847005208
 10
2.705404493543837
 20
-3.697423299153646
 10
2.690073649088542
 20
-3.703976949055989
 10
2.663989596896701
 20
-3.715126037597656
 10
2.638962639702691
 20
-3.729947408040364
 10
2.614312913682725
 20
-3.746047125922309
 10
2.58819580078125
 20
-3.696167839898003
 10
2.557959662543403
 20
-3.647967020670573
 10
2.534669664171007
 20
-3.606322394476996
 10
2.507093641493055
 20
-3.557013617621528
 10
2.479243808322483
 20
-3.511383056640625
 10
2.451775444878472
 20
-3.466054280598958
 10
2.557757907443576
 20
-3.423294915093316
 10
2.665960523817274
 20
-3.396479288736979
 10
2.775213453504774
 20
-3.374495612250434
 10
2.791964213053385
 20
-3.371125115288628
 10
2.917916191948784
 20
-3.345369127061632
 10
3.009739345974392
 20
-3.339442782931858
 10
2.965228610568576
 20
-3.440642462836371
 10
2.927870856391059
 20
-3.539380391438802
 10
2.909177144368489
 20
-3.651334974500868
 97
        0
 97
        0
 92
        1
 93
        1
 72
     4
 94
        3
 73
     0
 74
     1
 95
       20
 96
       16
 40
0.0
 40
0.0
 40
0.0
 40
0.0
 40
1.0
 40
1.0
 40
1.0
 40
2.0
 40
2.0
 40
2.0
 40
3.0
 40
3.0
 40
3.0
 40
4.0
 40
4.0
 40
4.0
 40
5.0
 40
5.0
 40
5.0
 40
5.0
 10
2.623619927300347
 20
-3.114756266276042
 10
2.656739976671007
 20
-3.105160183376736
 10
3.109101189507378
 20
-3.035401238335503
 10
3.106764899359809
 20
-3.061273362901475
 10
3.106764899359809
 20
-3.061273362901475
 10
3.1025390625
 20
-3.107754177517361
 10
3.102506001790364
 20
-3.108119540744358
 10
3.105462816026475
 20
-3.075010511610243
 10
2.825924343532986
 20
-3.113798353407118
 10
2.801545884874132
 20
-3.117123074001736
 10
2.670781453450521
 20
-3.134958055284288
 10
2.54166751437717
 20
-3.157931009928385
 10
2.416669209798177
 20
-3.201848347981771
 10
2.487257215711805
 20
-3.177047729492188
 10
2.551134745279948
 20
-3.135756598578559
 10
2.623619927300347
 20
-3.114756266276042
 97
        0
 97
        0
 92
        1
 93
        1
 72
     4
 94
        3
 73
     0
 74
     1
 95
       29
 96
       25
 40
0.0
 40
0.0
 40
0.0
 40
0.0
 40
1.0
 40
1.0
 40
1.0
 40
2.0
 40
2.0
 40
2.0
 40
3.0
 40
3.0
 40
3.0
 40
4.0
 40
4.0
 40
4.0
 40
5.0
 40
5.0
 40
5.0
 40
6.0
 40
6.0
 40
6.0
 40
7.0
 40
7.0
 40
7.0
 40
8.0
 40
8.0
 40
8.0
 40
8.0
 10
2.429752773708767
 20
-3.246392144097222
 10
2.540482415093316
 20
-3.21232181125217
 10
2.61501227484809
 20
-3.182510375976562
 10
2.759813096788194
 20
-3.148439195421007
 10
2.878552754720052
 20
-3.120500352647569
 10
3.005784776475694
 20
-3.165534125434028
 10
3.08064948187934
 20
-3.182668050130208
 10
3.07884046766493
 20
-3.187073601616753
 10
3.077041625976562
 20
-3.19128672281901
 10
3.075252956814236
 20
-3.195209079318576
 10
3.062556796603733
 20
-3.223050435384114
 10
3.050030178493924
 20
-3.250181410047743
 10
3.037794325086805
 20
-3.276972452799479
 10
2.897994995117188
 20
-3.291205512152778
 10
2.606562296549479
 20
-3.358846028645833
 10
2.57896253797743
 20
-3.370643615722656
 10
2.531840006510417
 20
-3.390785217285156
 10
2.488013373480903
 20
-3.422386169433594
 10
2.444027370876736
 20
-3.453214857313368
 10
2.414067586263021
 20
-3.403658548990885
 10
2.384672376844618
 20
-3.353935241699219
 10
2.356705559624566
 20
-3.299919976128472
 10
2.376890394422743
 20
-3.275197347005208
 10
2.401092529296875
 20
-3.255210876464844
 10
2.429752773708767
 20
-3.246392144097222
 97
        0
 97
        0
 92
        1
 93
        1
 72
     4
 94
        3
 73
     0
 74
     1
 95
       20
 96
       16
 40
0.0
 40
0.0
 40
0.0
 40
0.0
 40
1.0
 40
1.0
 40
1.0
 40
2.0
 40
2.0
 40
2.0
 40
3.0
 40
3.0
 40
3.0
 40
4.0
 40
4.0
 40
4.0
 40
5.0
 40
5.0
 40
5.0
 40
5.0
 10
1.790286593967014
 20
-3.434200710720486
 10
1.819792005750868
 20
-3.425651550292969
 10
2.181757609049479
 20
-3.369412740071614
 10
2.258821275499132
 20
-3.375518798828125
 10
2.253817240397135
 20
-3.388760036892361
 10
2.249029371473524
 20
-3.402156405978733
 10
2.244662814670139
 20
-3.415826585557725
 10
2.176419576009114
 20
-3.407733493381076
 10
1.988027784559462
 20
-3.433865017361111
 10
1.968212551540798
 20
-3.43656751844618
 10
1.837448120117188
 20
-3.454402499728733
 10
1.708334181043837
 20
-3.477375454372829
 10
1.583335876464844
 20
-3.521292792426215
 10
1.653923882378472
 20
-3.496492173936632
 10
1.717801411946615
 20
-3.455201043023003
 10
1.790286593967014
 20
-3.434200710720486
 97
        0
 97
        0
 92
        1
 93
        1
 72
     4
 94
        3
 73
     0
 74
     1
 95
       29
 96
       25
 40
0.0
 40
0.0
 40
0.0
 40
0.0
 40
1.0
 40
1.0
 40
1.0
 40
2.0
 40
2.0
 40
2.0
 40
3.0
 40
3.0
 40
3.0
 40
4.0
 40
4.0
 40
4.0
 40
5.0
 40
5.0
 40
5.0
 40
6.0
 40
6.0
 40
6.0
 40
7.0
 40
7.0
 40
7.0
 40
8.0
 40
8.0
 40
8.0
 40
8.0
 10
1.642686631944444
 20
-3.545408460828993
 10
1.744327121310764
 20
-3.514134724934896
 10
1.812738206651476
 20
-3.486770629882812
 10
1.945652431911892
 20
-3.455496893988715
 10
2.0473878648546
 20
-3.431558397081163
 10
2.155848185221354
 20
-3.465957641601562
 10
2.225746154785156
 20
-3.483444213867188
 10
2.215080261230469
 20
-3.527096218532986
 10
2.20689222547743
 20
-3.571611192491319
 10
2.20041995578342
 20
-3.615293714735243
 10
2.073398166232639
 20
-3.623035007052951
 10
1.747137281629774
 20
-3.698403252495659
 10
1.717851426866319
 20
-3.710921393500434
 10
1.683551364474826
 20
-3.725582546657986
 10
1.651024712456597
 20
-3.746400621202257
 10
1.618885464138455
 20
-3.768490261501736
 10
1.600526597764757
 20
-3.753711276584201
 10
1.581158955891927
 20
-3.73797607421875
 10
1.572189331054688
 20
-3.725761413574219
 10
1.561247931586371
 20
-3.710862901475694
 10
1.552274068196615
 20
-3.672288682725694
 10
1.540787590874566
 20
-3.649119906955295
 10
1.563758850097656
 20
-3.604102240668403
 10
1.597115410698785
 20
-3.559430440266927
 10
1.642686631944444
 20
-3.545408460828993
 97
        0
 97
        0
 92
        1
 93
        1
 72
     4
 94
        3
 73
     0
 74
     1
 95
       20
 96
       16
 40
0.0
 40
0.0
 40
0.0
 40
0.0
 40
1.0
 40
1.0
 40
1.0
 40
2.0
 40
2.0
 40
2.0
 40
3.0
 40
3.0
 40
3.0
 40
4.0
 40
4.0
 40
4.0
 40
5.0
 40
5.0
 40
5.0
 40
5.0
 10
1.071465386284722
 20
-3.776232401529948
 10
1.098462422688802
 20
-3.768410576714409
 10
1.46718258327908
 20
-3.71155039469401
 10
1.465277777777778
 20
-3.732638888888889
 10
1.465277777777778
 20
-3.732638888888889
 10
1.46183353000217
 20
-3.770524766710069
 10
1.461806403266059
 20
-3.770822313096788
 10
1.464216444227431
 20
-3.74383544921875
 10
1.236364576551649
 20
-3.77545166015625
 10
1.216493394639757
 20
-3.77816179063585
 10
1.109907362196181
 20
-3.792699178059896
 10
1.004666646321615
 20
-3.811424255371094
 10
0.9027803209092882
 20
-3.847221374511719
 10
0.9603161282009548
 20
-3.827006022135417
 10
1.012383355034722
 20
-3.793350219726562
 10
1.071465386284722
 20
-3.776232401529948
 97
        0
 97
        0
 92
        1
 93
        1
 72
     4
 94
        3
 73
     0
 74
     1
 95
       29
 96
       25
 40
0.0
 40
0.0
 40
0.0
 40
0.0
 40
1.0
 40
1.0
 40
1.0
 40
2.0
 40
2.0
 40
2.0
 40
3.0
 40
3.0
 40
3.0
 40
4.0
 40
4.0
 40
4.0
 40
5.0
 40
5.0
 40
5.0
 40
6.0
 40
6.0
 40
6.0
 40
7.0
 40
7.0
 40
7.0
 40
8.0
 40
8.0
 40
8.0
 40
8.0
 10
0.9322916666666666
 20
-3.875
 10
1.022569444444444
 20
-3.847222222222222
 10
1.083333333333333
 20
-3.822916666666667
 10
1.201388888888889
 20
-3.795138888888889
 10
1.30879635281033
 20
-3.769866095648871
 10
1.424619886610243
 20
-3.8177490234375
 10
1.481285095214844
 20
-3.826616075303819
 10
1.479043748643663
 20
-3.849900987413194
 10
1.47750006781684
 20
-3.874013264973958
 10
1.476507398817274
 20
-3.899425082736545
 10
1.38517083062066
 20
-3.897184583875868
 10
1.044564141167535
 20
-3.950224982367621
 10
1.015981038411458
 20
-3.958506266276042
 10
0.9817428588867188
 20
-3.96842532687717
 10
0.9494391547309027
 20
-3.982903374565972
 10
0.9174287584092882
 20
-3.998000250922309
 10
0.9145838419596354
 20
-3.994718763563368
 10
0.9118440416124132
 20
-3.991470336914062
 10
0.9088355170355902
 20
-3.988136291503906
 10
0.8877249823676214
 20
-3.964737786187066
 10
0.8752500745985242
 20
-3.942093743218316
 10
0.8627861870659722
 20
-3.931760999891493
 10
0.8810340033637152
 20
-3.905676099989149
 10
0.9040230645073785
 20
-3.883698357476128
 10
0.9322916666666666
 20
-3.875
 97
        0
 97
        0
 92
        1
 93
        1
 72
     4
 94
        3
 73
     0
 74
     1
 95
       20
 96
       16
 40
0.0
 40
0.0
 40
0.0
 40
0.0
 40
1.0
 40
1.0
 40
1.0
 40
2.0
 40
2.0
 40
2.0
 40
3.0
 40
3.0
 40
3.0
 40
4.0
 40
4.0
 40
4.0
 40
5.0
 40
5.0
 40
5.0
 40
5.0
 10
1.071465386284722
 20
-4.868411593967013
 10
1.012383355034722
 20
-4.851293775770399
 10
0.9603161282009548
 20
-4.817637125651041
 10
0.9027803209092882
 20
-4.797422620985243
 10
1.004666646321615
 20
-4.833219740125868
 10
1.109907362196181
 20
-4.851944817437066
 10
1.216493394639757
 20
-4.866481357150607
 10
1.236364576551649
 20
-4.869192335340712
 10
1.464216444227431
 20
-4.900807698567708
 10
1.461806403266059
 20
-4.87382083468967
 10
1.46183353000217
 20
-4.874118381076388
 10
1.465277777777778
 20
-4.912005106608072
 10
1.465277777777778
 20
-4.912005106608072
 10
1.46718258327908
 20
-4.933093600802951
 10
1.098462422688802
 20
-4.876232571072048
 10
1.071465386284722
 20
-4.868411593967013
 97
        0
 97
        0
 92
        1
 93
        1
 72
     4
 94
        3
 73
     0
 74
     1
 95
       29
 96
       25
 40
0.0
 40
0.0
 40
0.0
 40
0.0
 40
1.0
 40
1.0
 40
1.0
 40
2.0
 40
2.0
 40
2.0
 40
3.0
 40
3.0
 40
3.0
 40
4.0
 40
4.0
 40
4.0
 40
5.0
 40
5.0
 40
5.0
 40
6.0
 40
6.0
 40
6.0
 40
7.0
 40
7.0
 40
7.0
 40
8.0
 40
8.0
 40
8.0
 40
8.0
 10
1.201388888888889
 20
-4.840277777777778
 10
1.083333333333333
 20
-4.8125
 10
1.022569444444444
 20
-4.788194444444444
 10
0.9322916666666666
 20
-4.760416666666666
 10
0.9147271050347222
 20
-4.755012512207031
 10
0.8992258707682291
 20
-4.744443257649739
 10
0.8856082492404513
 20
-4.730985853407118
 10
0.9015511406792535
 20
-4.725783454047309
 10
0.908521016438802
 20
-4.700023227267795
 10
0.9362852308485242
 20
-4.669129265679254
 10
0.9401957194010416
 20
-4.66477796766493
 10
0.9438680013020833
 20
-4.660748799641927
 10
0.9474012586805555
 20
-4.656880696614583
 10
0.9698876274956597
 20
-4.666848924424913
 10
0.9927181667751735
 20
-4.676027086046006
 10
1.01651848687066
 20
-4.68292236328125
 10
1.044448004828559
 20
-4.691014607747396
 10
1.370489332411024
 20
-4.741886562771267
 10
1.470606486002604
 20
-4.742119683159722
 10
1.471617804633246
 20
-4.764849344889322
 10
1.473108927408854
 20
-4.787611219618055
 10
1.475277370876736
 20
-4.809761047363281
 10
1.416663275824653
 20
-4.820832994249131
 10
1.305029975043403
 20
-4.864663865831163
 10
1.201388888888889
 20
-4.840277777777778
 97
        0
 97
        0
 92
        1
 93
        1
 72
     4
 94
        3
 73
     0
 74
     1
 95
       26
 96
       22
 40
0.0
 40
0.0
 40
0.0
 40
0.0
 40
1.0
 40
1.0
 40
1.0
 40
2.0
 40
2.0
 40
2.0
 40
3.0
 40
3.0
 40
3.0
 40
4.0
 40
4.0
 40
4.0
 40
5.0
 40
5.0
 40
5.0
 40
6.0
 40
6.0
 40
6.0
 40
7.0
 40
7.0
 40
7.0
 40
7.0
 10
1.55891842312283
 20
-4.989676581488715
 10
1.575414021809896
 20
-4.929556952582465
 10
1.615834554036458
 20
-4.900327894422743
 10
1.658211602105035
 20
-4.857732137044271
 10
1.677854749891493
 20
-4.869909498426649
 10
1.697827657063802
 20
-4.880960252549913
 10
1.71844482421875
 20
-4.88977305094401
 10
1.748138427734375
 20
-4.902464972601996
 10
2.083344353569879
 20
-4.979840596516927
 10
2.20640140109592
 20
-4.985750834147135
 10
2.211437649197049
 20
-5.02889421251085
 10
2.21797858344184
 20
-5.074959648980035
 10
2.226921081542969
 20
-5.120210435655381
 10
2.158001369900174
 20
-5.136850992838541
 10
2.046452840169271
 20
-5.17423333062066
 10
1.942029317220052
 20
-5.149663289388021
 10
1.810195922851562
 20
-5.118643018934462
 10
1.742340087890625
 20
-5.091501024034288
 10
1.641526963975694
 20
-5.060481601291232
 10
1.607315911187066
 20
-5.049955579969618
 10
1.580045064290365
 20
-5.022000630696614
 10
1.55891842312283
 20
-4.989676581488715
 97
        0
 97
        0
 92
        1
 93
        1
 72
     4
 94
        3
 73
     0
 74
     1
 95
       20
 96
       16
 40
0.0
 40
0.0
 40
0.0
 40
0.0
 40
1.0
 40
1.0
 40
1.0
 40
2.0
 40
2.0
 40
2.0
 40
3.0
 40
3.0
 40
3.0
 40
4.0
 40
4.0
 40
4.0
 40
5.0
 40
5.0
 40
5.0
 40
5.0
 10
1.790286593967014
 20
-5.176909552680121
 10
1.717801411946615
 20
-5.155909220377604
 10
1.653923882378472
 20
-5.114618089463975
 10
1.583335876464844
 20
-5.089817470974392
 10
1.708334181043837
 20
-5.133734809027778
 10
1.837448120117188
 20
-5.156707763671875
 10
1.968212551540798
 20
-5.174542744954427
 10
1.988011678059896
 20
-5.177242702907986
 10
2.176116095648871
 20
-5.203333536783854
 10
2.244497511121962
 20
-5.195303175184462
 10
2.248337639702691
 20
-5.209151373969184
 10
2.252518547905816
 20
-5.22263675265842
 10
2.256991068522135
 20
-5.235734727647569
 10
2.176099989149305
 20
-5.240820142957899
 10
1.819558885362413
 20
-5.185390048556857
 10
1.790286593967014
 20
-5.176909552680121
 97
        0
 97
        0
 92
        1
 93
        1
 72
     4
 94
        3
 73
     0
 74
     1
 95
       29
 96
       25
 40
0.0
 40
0.0
 40
0.0
 40
0.0
 40
1.0
 40
1.0
 40
1.0
 40
2.0
 40
2.0
 40
2.0
 40
3.0
 40
3.0
 40
3.0
 40
4.0
 40
4.0
 40
4.0
 40
5.0
 40
5.0
 40
5.0
 40
6.0
 40
6.0
 40
6.0
 40
7.0
 40
7.0
 40
7.0
 40
8.0
 40
8.0
 40
8.0
 40
8.0
 10
2.347559611002604
 20
-5.339697096082899
 10
2.38484870062934
 20
-5.28818596733941
 10
2.416427612304688
 20
-5.23795657687717
 10
2.448441399468316
 20
-5.18487803141276
 10
2.491148206922743
 20
-5.214847988552517
 10
2.533797370062934
 20
-5.245213826497396
 10
2.579555935329861
 20
-5.26477305094401
 10
2.607056511773003
 20
-5.276527404785156
 10
2.896542867024739
 20
-5.343741522894965
 10
3.036922878689236
 20
-5.358306037055121
 10
3.046686808268229
 20
-5.376391092936197
 10
3.0562744140625
 20
-5.394571092393663
 10
3.065346611870659
 20
-5.412984212239583
 10
3.084017435709635
 20
-5.450881958007812
 10
3.101758321126302
 20
-5.489208645290798
 10
3.119565327962239
 20
-5.527506510416666
 10
3.045350816514757
 20
-5.543824937608506
 10
2.91558837890625
 20
-5.591118706597222
 10
2.794535319010417
 20
-5.562634785970052
 10
2.649734497070312
 20
-5.528564453125
 10
2.575204637315538
 20
-5.498752170138888
 10
2.464474995930989
 20
-5.464681837293837
 10
2.410772535536024
 20
-5.448157416449653
 10
2.372637430826823
 20
-5.392574734157986
 10
2.347559611002604
 20
-5.339697096082899
 97
        0
 97
        0
 92
        1
 93
        1
 72
     4
 94
        3
 73
     0
 74
     1
 95
       20
 96
       16
 40
0.0
 40
0.0
 40
0.0
 40
0.0
 40
1.0
 40
1.0
 40
1.0
 40
2.0
 40
2.0
 40
2.0
 40
3.0
 40
3.0
 40
3.0
 40
4.0
 40
4.0
 40
4.0
 40
5.0
 40
5.0
 40
5.0
 40
5.0
 10
2.623619927300347
 20
-5.579687330457899
 10
2.551134745279948
 20
-5.558686998155381
 10
2.487257215711805
 20
-5.517395867241754
 10
2.416669209798177
 20
-5.49259524875217
 10
2.54166751437717
 20
-5.536512586805555
 10
2.670781453450521
 20
-5.559485541449653
 10
2.801545884874132
 20
-5.577320522732204
 10
2.825924343532986
 20
-5.580645243326822
 10
3.105462816026475
 20
-5.619433085123697
 10
3.102506001790364
 20
-5.586324055989583
 10
3.1025390625
 20
-5.586689419216579
 10
3.106764899359809
 20
-5.633169386121962
 10
3.106764899359809
 20
-5.633169386121962
 10
3.109101189507378
 20
-5.659042358398438
 10
2.656739976671007
 20
-5.589282565646701
 10
2.623619927300347
 20
-5.579687330457899
 97
        0
 97
        0
 75
     2
 76
     1
 98
        0
  0
ENDSEC
  0
SECTION
  2
OBJECTS
  0
DICTIONARY
  5
C
330
0
100
AcDbDictionary
281
     1
  3
ACAD_GROUP
350
D
  3
ACAD_LAYOUT
350
1A
  3
ACAD_MATERIAL
350
3B
  3
ACAD_MLEADERSTYLE
350
6B
  3
ACAD_MLINESTYLE
350
17
  3
ACAD_PLOTSETTINGS
350
19
  3
ACAD_PLOTSTYLENAME
350
E
  3
ACAD_TABLESTYLE
350
6A
  3
ACAD_VISUALSTYLE
350
2A
  0
SUN
  5
3F
330
29
100
AcDbSun
 90
        1
290
     0
 63
     7
421
 16777215
 40
1.0
291
     1
 91
  2455826
 92
 54000000
292
     0
 70
     2
 71
   256
280
     1
  0
DICTIONARY
  5
D
102
{ACAD_REACTORS
330
C
102
}
330
C
100
AcDbDictionary
281
     1
  0
DICTIONARY
  5
1A
102
{ACAD_REACTORS
330
C
102
}
330
C
100
AcDbDictionary
281
     1
  3
Layout1
350
1E
  3
Layout2
350
26
  3
Model
350
22
  0
DICTIONARY
  5
3B
102
{ACAD_REACTORS
330
C
102
}
330
C
100
AcDbDictionary
281
     1
  3
ByBlock
350
3D
  3
ByLayer
350
3C
  3
Global
350
3E
  0
DICTIONARY
  5
6B
102
{ACAD_REACTORS
330
C
102
}
330
C
100
AcDbDictionary
281
     1
  0
DICTIONARY
  5
17
102
{ACAD_REACTORS
330
C
102
}
330
C
100
AcDbDictionary
281
     1
  3
Standard
350
18
  0
DICTIONARY
  5
19
102
{ACAD_REACTORS
330
C
102
}
330
C
100
AcDbDictionary
281
     1
  0
ACDBDICTIONARYWDFLT
  5
E
102
{ACAD_REACTORS
330
C
102
}
330
C
100
AcDbDictionary
281
     1
  3
Normal
350
F
100
AcDbDictionaryWithDefault
340
F
  0
DICTIONARY
  5
6A
102
{ACAD_REACTORS
330
C
102
}
330
C
100
AcDbDictionary
281
     1
  0
DICTIONARY
  5
2A
102
{ACAD_REACTORS
330
C
102
}
330
C
100
AcDbDictionary
281
     1
  3
2dWireframe
350
2F
  3
3D Hidden
350
31
  3
3dWireframe
350
30
  3
Basic
350
32
  3
Brighten
350
36
  3
ColorChange
350
3A
  3
Conceptual
350
34
  3
Dim
350
35
  3
Facepattern
350
39
  3
Flat
350
2B
  3
FlatWithEdges
350
2C
  3
Gouraud
350
2D
  3
GouraudWithEdges
350
2E
  3
Linepattern
350
38
  3
Realistic
350
33
  3
Thicken
350
37
  0
LAYOUT
  5
1E
102
{ACAD_REACTORS
330
1A
102
}
330
1A
100
AcDbPlotSettings
  1

  2
none_device
  4

  6

 40
0.0
 41
0.0
 42
0.0
 43
0.0
 44
0.0
 45
0.0
 46
0.0
 47
0.0
 48
0.0
 49
0.0
140
0.0
141
0.0
142
1.0
143
1.0
 70
   688
 72
     0
 73
     0
 74
     5
  7

 75
    16
 76
     0
 77
     2
 78
   300
147
1.0
148
0.0
149
0.0
100
AcDbLayout
  1
Layout1
 70
     1
 71
     1
 10
0.0
 20
0.0
 11
12.0
 21
9.0
 12
0.0
 22
0.0
 32
0.0
 14
1.000000000000000E+20
 24
1.000000000000000E+20
 34
1.000000000000000E+20
 15
-1.000000000000000E+20
 25
-1.000000000000000E+20
 35
-1.000000000000000E+20
146
0.0
 13
0.0
 23
0.0
 33
0.0
 16
1.0
 26
0.0
 36
0.0
 17
0.0
 27
1.0
 37
0.0
 76
     0
330
1B
  0
LAYOUT
  5
26
102
{ACAD_REACTORS
330
1A
102
}
330
1A
100
AcDbPlotSettings
  1

  2
none_device
  4

  6

 40
0.0
 41
0.0
 42
0.0
 43
0.0
 44
0.0
 45
0.0
 46
0.0
 47
0.0
 48
0.0
 49
0.0
140
0.0
141
0.0
142
1.0
143
1.0
 70
   688
 72
     0
 73
     0
 74
     5
  7

 75
    16
 76
     0
 77
     2
 78
   300
147
1.0
148
0.0
149
0.0
100
AcDbLayout
  1
Layout2
 70
     1
 71
     2
 10
0.0
 20
0.0
 11
0.0
 21
0.0
 12
0.0
 22
0.0
 32
0.0
 14
0.0
 24
0.0
 34
0.0
 15
0.0
 25
0.0
 35
0.0
146
0.0
 13
0.0
 23
0.0
 33
0.0
 16
1.0
 26
0.0
 36
0.0
 17
0.0
 27
1.0
 37
0.0
 76
     0
330
23
  0
LAYOUT
  5
22
102
{ACAD_REACTORS
330
1A
102
}
330
1A
100
AcDbPlotSettings
  1

  2
none_device
  4

  6

 40
0.0
 41
0.0
 42
0.0
 43
0.0
 44
0.0
 45
0.0
 46
0.0
 47
0.0
 48
0.0
 49
0.0
140
0.0
141
0.0
142
1.0
143
1.0
 70
  1712
 72
     0
 73
     0
 74
     0
  7

 75
     0
 76
     0
 77
     2
 78
   300
147
1.0
148
0.0
149
0.0
100
AcDbLayout
  1
Model
 70
     1
 71
     0
 10
0.0
 20
0.0
 11
12.0
 21
9.0
 12
0.0
 22
0.0
 32
0.0
 14
1.000000000000000E+20
 24
1.000000000000000E+20
 34
1.000000000000000E+20
 15
-1.000000000000000E+20
 25
-1.000000000000000E+20
 35
-1.000000000000000E+20
146
0.0
 13
0.0
 23
0.0
 33
0.0
 16
1.0
 26
0.0
 36
0.0
 17
0.0
 27
1.0
 37
0.0
 76
     0
330
1F
331
29
  0
MATERIAL
  5
3D
102
{ACAD_REACTORS
330
3B
102
}
330
3B
100
AcDbMaterial
  1
ByBlock
 72
     1
 94
      127
  0
MATERIAL
  5
3C
102
{ACAD_REACTORS
330
3B
102
}
330
3B
100
AcDbMaterial
  1
ByLayer
 72
     1
 94
      127
  0
MATERIAL
  5
3E
102
{ACAD_REACTORS
330
3B
102
}
330
3B
100
AcDbMaterial
  1
Global
 72
     1
 94
      127
  0
MLINESTYLE
  5
18
102
{ACAD_REACTORS
330
17
102
}
330
17
100
AcDbMlineStyle
  2
Standard
 70
     0
  3

 62
   256
 51
90.0
 52
90.0
 71
     2
 49
0.5
 62
   256
  6
BYLAYER
 49
-0.5
 62
   256
  6
BYLAYER
  0
ACDBPLACEHOLDER
  5
F
102
{ACAD_REACTORS
330
E
102
}
330
E
  0
VISUALSTYLE
  5
2F
102
{ACAD_REACTORS
330
2A
102
}
330
2A
100
AcDbVisualStyle
  2
2dWireframe
 70
     4
177
     2
291
     0
 71
     0
176
     1
 72
     2
176
     1
 73
     0
176
     1
 90
        0
176
     1
 40
-0.6
176
     1
 41
-30.0
176
     1
 62
     5
 63
     7
421
 16777215
176
     1
 74
     1
176
     1
 91
        4
176
     1
 64
     7
176
     1
 65
   257
176
     1
 75
     1
176
     1
175
     1
176
     1
 42
1.0
176
     1
 92
        0
176
     1
 66
   257
176
     1
 43
1.0
176
     1
 76
     1
176
     1
 77
     6
176
     1
 78
     2
176
     1
 67
     7
176
     1
 79
     5
176
     1
170
     0
176
     1
171
     0
176
     1
290
     0
176
     1
 93
        1
176
     1
 44
0.0
176
     1
173
     0
176
     1
  0
VISUALSTYLE
  5
31
102
{ACAD_REACTORS
330
2A
102
}
330
2A
100
AcDbVisualStyle
  2
3D Hidden
 70
     6
177
     2
291
     0
 71
     1
176
     1
 72
     2
176
     1
 73
     2
176
     1
 90
        0
176
     1
 40
-0.6
176
     1
 41
-30.0
176
     1
 62
     5
 63
     7
421
 16777215
176
     1
 74
     2
176
     1
 91
        2
176
     1
 64
     7
176
     1
 65
   257
176
     1
 75
     2
176
     1
175
     1
176
     1
 42
40.0
176
     1
 92
        0
176
     1
 66
   257
176
     1
 43
1.0
176
     1
 76
     1
176
     1
 77
     6
176
     1
 78
     2
176
     1
 67
     7
176
     1
 79
     3
176
     1
170
     0
176
     1
171
     0
176
     1
290
     0
176
     1
 93
        1
176
     1
 44
0.0
176
     1
173
     0
176
     1
  0
VISUALSTYLE
  5
30
102
{ACAD_REACTORS
330
2A
102
}
330
2A
100
AcDbVisualStyle
  2
3dWireframe
 70
     5
177
     2
291
     0
 71
     0
176
     1
 72
     2
176
     1
 73
     0
176
     1
 90
        0
176
     1
 40
-0.6
176
     1
 41
-30.0
176
     1
 62
     5
 63
     7
421
 16777215
176
     1
 74
     1
176
     1
 91
        4
176
     1
 64
     7
176
     1
 65
   257
176
     1
 75
     1
176
     1
175
     1
176
     1
 42
1.0
176
     1
 92
        0
176
     1
 66
   257
176
     1
 43
1.0
176
     1
 76
     1
176
     1
 77
     6
176
     1
 78
     2
176
     1
 67
     7
176
     1
 79
     5
176
     1
170
     0
176
     1
171
     0
176
     1
290
     0
176
     1
 93
        1
176
     1
 44
0.0
176
     1
173
     0
176
     1
  0
VISUALSTYLE
  5
32
102
{ACAD_REACTORS
330
2A
102
}
330
2A
100
AcDbVisualStyle
  2
Basic
 70
     7
177
     2
291
     1
 71
     1
176
     1
 72
     0
176
     1
 73
     1
176
     1
 90
        0
176
     1
 40
-0.6
176
     1
 41
-30.0
176
     1
 62
     5
 63
     7
421
 16777215
176
     1
 74
     0
176
     1
 91
        4
176
     1
 64
     7
176
     1
 65
   257
176
     1
 75
     1
176
     1
175
     1
176
     1
 42
1.0
176
     1
 92
        8
176
     1
 66
     7
176
     1
 43
1.0
176
     1
 76
     1
176
     1
 77
     6
176
     1
 78
     2
176
     1
 67
     7
176
     1
 79
     5
176
     1
170
     0
176
     1
171
     0
176
     1
290
     0
176
     1
 93
        1
176
     1
 44
0.0
176
     1
173
     0
176
     1
  0
VISUALSTYLE
  5
36
102
{ACAD_REACTORS
330
2A
102
}
330
2A
100
AcDbVisualStyle
  2
Brighten
 70
    12
177
     2
291
     1
 71
     2
176
     1
 72
     2
176
     1
 73
     0
176
     1
 90
        0
176
     1
 40
-0.6
176
     1
 41
-30.0
176
     1
 62
     5
 63
     7
421
 16777215
176
     1
 74
     1
176
     1
 91
        4
176
     1
 64
     7
176
     1
 65
   257
176
     1
 75
     1
176
     1
175
     1
176
     1
 42
1.0
176
     1
 92
        8
176
     1
 66
     7
176
     1
 43
1.0
176
     1
 76
     1
176
     1
 77
     6
176
     1
 78
     2
176
     1
 67
     7
176
     1
 79
     5
176
     1
170
     0
176
     1
171
     0
176
     1
290
     0
176
     1
 93
        1
176
     1
 44
50.0
176
     1
173
     0
176
     1
  0
VISUALSTYLE
  5
3A
102
{ACAD_REACTORS
330
2A
102
}
330
2A
100
AcDbVisualStyle
  2
ColorChange
 70
    16
177
     2
291
     1
 71
     2
176
     1
 72
     2
176
     1
 73
     3
176
     1
 90
        0
176
     1
 40
-0.6
176
     1
 41
-30.0
176
     1
 62
     5
 63
     8
421
  8421504
176
     1
 74
     1
176
     1
 91
        4
176
     1
 64
     7
176
     1
 65
   257
176
     1
 75
     1
176
     1
175
     1
176
     1
 42
1.0
176
     1
 92
        8
176
     1
 66
     8
424
  8421504
176
     1
 43
1.0
176
     1
 76
     1
176
     1
 77
     6
176
     1
 78
     2
176
     1
 67
     7
176
     1
 79
     5
176
     1
170
     0
176
     1
171
     0
176
     1
290
     0
176
     1
 93
        1
176
     1
 44
0.0
176
     1
173
     0
176
     1
  0
VISUALSTYLE
  5
34
102
{ACAD_REACTORS
330
2A
102
}
330
2A
100
AcDbVisualStyle
  2
Conceptual
 70
     9
177
     2
291
     0
 71
     3
176
     1
 72
     2
176
     1
 73
     0
176
     1
 90
        0
176
     1
 40
-0.6
176
     1
 41
-30.0
176
     1
 62
     5
 63
     7
421
 16777215
176
     1
 74
     2
176
     1
 91
        2
176
     1
 64
     7
176
     1
 65
   257
176
     1
 75
     1
176
     1
175
     1
176
     1
 42
40.0
176
     1
 92
        8
176
     1
 66
     7
176
     1
 43
1.0
176
     1
 76
     1
176
     1
 77
     6
176
     1
 78
     2
176
     1
 67
     7
176
     1
 79
     3
176
     1
170
     0
176
     1
171
     0
176
     1
290
     0
176
     1
 93
        1
176
     1
 44
0.0
176
     1
173
     0
176
     1
  0
VISUALSTYLE
  5
35
102
{ACAD_REACTORS
330
2A
102
}
330
2A
100
AcDbVisualStyle
  2
Dim
 70
    11
177
     2
291
     1
 71
     2
176
     1
 72
     2
176
     1
 73
     0
176
     1
 90
        0
176
     1
 40
-0.6
176
     1
 41
-30.0
176
     1
 62
     5
 63
     7
421
 16777215
176
     1
 74
     1
176
     1
 91
        4
176
     1
 64
     7
176
     1
 65
   257
176
     1
 75
     1
176
     1
175
     1
176
     1
 42
1.0
176
     1
 92
        8
176
     1
 66
     7
176
     1
 43
1.0
176
     1
 76
     1
176
     1
 77
     6
176
     1
 78
     2
176
     1
 67
     7
176
     1
 79
     5
176
     1
170
     0
176
     1
171
     0
176
     1
290
     0
176
     1
 93
        1
176
     1
 44
-50.0
176
     1
173
     0
176
     1
  0
VISUALSTYLE
  5
39
102
{ACAD_REACTORS
330
2A
102
}
330
2A
100
AcDbVisualStyle
  2
Facepattern
 70
    15
177
     2
291
     1
 71
     2
176
     1
 72
     2
176
     1
 73
     0
176
     1
 90
        0
176
     1
 40
-0.6
176
     1
 41
-30.0
176
     1
 62
     5
 63
     7
421
 16777215
176
     1
 74
     1
176
     1
 91
        4
176
     1
 64
     7
176
     1
 65
   257
176
     1
 75
     1
176
     1
175
     1
176
     1
 42
1.0
176
     1
 92
        8
176
     1
 66
     7
176
     1
 43
1.0
176
     1
 76
     1
176
     1
 77
     6
176
     1
 78
     2
176
     1
 67
     7
176
     1
 79
     5
176
     1
170
     0
176
     1
171
     0
176
     1
290
     0
176
     1
 93
        1
176
     1
 44
0.0
176
     1
173
     0
176
     1
  0
VISUALSTYLE
  5
2B
102
{ACAD_REACTORS
330
2A
102
}
330
2A
100
AcDbVisualStyle
  2
Flat
 70
     0
177
     2
291
     1
 71
     2
176
     1
 72
     1
176
     1
 73
     1
176
     1
 90
        2
176
     1
 40
-0.6
176
     1
 41
30.0
176
     1
 62
     5
 63
     7
421
 16777215
176
     1
 74
     0
176
     1
 91
        4
176
     1
 64
     7
176
     1
 65
   257
176
     1
 75
     1
176
     1
175
     1
176
     1
 42
1.0
176
     1
 92
        8
176
     1
 66
     7
176
     1
 43
1.0
176
     1
 76
     1
176
     1
 77
     6
176
     1
 78
     2
176
     1
 67
     7
176
     1
 79
     5
176
     1
170
     0
176
     1
171
     0
176
     1
290
     0
176
     1
 93
       13
176
     1
 44
0.0
176
     1
173
     0
176
     1
  0
VISUALSTYLE
  5
2C
102
{ACAD_REACTORS
330
2A
102
}
330
2A
100
AcDbVisualStyle
  2
FlatWithEdges
 70
     1
177
     2
291
     1
 71
     2
176
     1
 72
     1
176
     1
 73
     1
176
     1
 90
        2
176
     1
 40
-0.6
176
     1
 41
30.0
176
     1
 62
     5
 63
     7
421
 16777215
176
     1
 74
     1
176
     1
 91
        4
176
     1
 64
     7
176
     1
 65
   257
176
     1
 75
     1
176
     1
175
     1
176
     1
 42
1.0
176
     1
 92
        0
176
     1
 66
   257
176
     1
 43
1.0
176
     1
 76
     1
176
     1
 77
     6
176
     1
 78
     2
176
     1
 67
     7
176
     1
 79
     5
176
     1
170
     0
176
     1
171
     0
176
     1
290
     0
176
     1
 93
       13
176
     1
 44
0.0
176
     1
173
     0
176
     1
  0
VISUALSTYLE
  5
2D
102
{ACAD_REACTORS
330
2A
102
}
330
2A
100
AcDbVisualStyle
  2
Gouraud
 70
     2
177
     2
291
     1
 71
     2
176
     1
 72
     2
176
     1
 73
     1
176
     1
 90
        2
176
     1
 40
-0.6
176
     1
 41
30.0
176
     1
 62
     5
 63
     7
421
 16777215
176
     1
 74
     0
176
     1
 91
        4
176
     1
 64
     7
176
     1
 65
   257
176
     1
 75
     1
176
     1
175
     1
176
     1
 42
1.0
176
     1
 92
        0
176
     1
 66
     7
176
     1
 43
1.0
176
     1
 76
     1
176
     1
 77
     6
176
     1
 78
     2
176
     1
 67
     7
176
     1
 79
     5
176
     1
170
     0
176
     1
171
     0
176
     1
290
     0
176
     1
 93
       13
176
     1
 44
0.0
176
     1
173
     0
176
     1
  0
VISUALSTYLE
  5
2E
102
{ACAD_REACTORS
330
2A
102
}
330
2A
100
AcDbVisualStyle
  2
GouraudWithEdges
 70
     3
177
     2
291
     1
 71
     2
176
     1
 72
     2
176
     1
 73
     1
176
     1
 90
        2
176
     1
 40
-0.6
176
     1
 41
30.0
176
     1
 62
     5
 63
     7
421
 16777215
176
     1
 74
     1
176
     1
 91
        4
176
     1
 64
     7
176
     1
 65
   257
176
     1
 75
     1
176
     1
175
     1
176
     1
 42
1.0
176
     1
 92
        0
176
     1
 66
   257
176
     1
 43
1.0
176
     1
 76
     1
176
     1
 77
     6
176
     1
 78
     2
176
     1
 67
     7
176
     1
 79
     5
176
     1
170
     0
176
     1
171
     0
176
     1
290
     0
176
     1
 93
       13
176
     1
 44
0.0
176
     1
173
     0
176
     1
  0
VISUALSTYLE
  5
38
102
{ACAD_REACTORS
330
2A
102
}
330
2A
100
AcDbVisualStyle
  2
Linepattern
 70
    14
177
     2
291
     1
 71
     2
176
     1
 72
     2
176
     1
 73
     0
176
     1
 90
        0
176
     1
 40
-0.6
176
     1
 41
-30.0
176
     1
 62
     5
 63
     7
421
 16777215
176
     1
 74
     1
176
     1
 91
        4
176
     1
 64
     7
176
     1
 65
   257
176
     1
 75
     7
176
     1
175
     7
176
     1
 42
1.0
176
     1
 92
        8
176
     1
 66
     7
176
     1
 43
1.0
176
     1
 76
     1
176
     1
 77
     6
176
     1
 78
     2
176
     1
 67
     7
176
     1
 79
     5
176
     1
170
     0
176
     1
171
     0
176
     1
290
     0
176
     1
 93
        1
176
     1
 44
0.0
176
     1
173
     0
176
     1
  0
VISUALSTYLE
  5
33
102
{ACAD_REACTORS
330
2A
102
}
330
2A
100
AcDbVisualStyle
  2
Realistic
 70
     8
177
     2
291
     0
 71
     2
176
     1
 72
     2
176
     1
 73
     0
176
     1
 90
        0
176
     1
 40
-0.6
176
     1
 41
-30.0
176
     1
 62
     5
 63
     7
421
 16777215
176
     1
 74
     1
176
     1
 91
        0
176
     1
 64
     7
176
     1
 65
   257
176
     1
 75
     1
176
     1
175
     1
176
     1
 42
1.0
176
     1
 92
        8
176
     1
 66
     8
424
  7895160
176
     1
 43
1.0
176
     1
 76
     1
176
     1
 77
     6
176
     1
 78
     2
176
     1
 67
     7
176
     1
 79
     5
176
     1
170
     0
176
     1
171
     0
176
     1
290
     0
176
     1
 93
       13
176
     1
 44
0.0
176
     1
173
     0
176
     1
  0
VISUALSTYLE
  5
37
102
{ACAD_REACTORS
330
2A
102
}
330
2A
100
AcDbVisualStyle
  2
Thicken
 70
    13
177
     2
291
     1
 71
     2
176
     1
 72
     2
176
     1
 73
     0
176
     1
 90
        0
176
     1
 40
-0.6
176
     1
 41
-30.0
176
     1
 62
     5
 63
     7
421
 16777215
176
     1
 74
     1
176
     1
 91
        4
176
     1
 64
     7
176
     1
 65
   257
176
     1
 75
     1
176
     1
175
     1
176
     1
 42
1.0
176
     1
 92
       12
176
     1
 66
     7
176
     1
 43
1.0
176
     1
 76
     1
176
     1
 77
     6
176
     1
 78
     2
176
     1
 67
     7
176
     1
 79
     5
176
     1
170
     0
176
     1
171
     0
176
     1
290
     0
176
     1
 93
        1
176
     1
 44
0.0
176
     1
173
     0
176
     1
  0
ENDSEC
  0
EOF
