<?xml version="1.0" encoding="utf-8"?>
<!-- Generator: Adobe Illustrator 22.1.0, SVG Export Plug-In . SVG Version: 6.00 Build 0)  -->
<svg version="1.1" id="Layer_1" xmlns="http://www.w3.org/2000/svg" xmlns:xlink="http://www.w3.org/1999/xlink" x="0px" y="0px"
	 viewBox="0 0 612 792" style="enable-background:new 0 0 612 792;" xml:space="preserve">
<style type="text/css">
	.st0{fill:#E6E7E7;}
</style>
<path class="st0" d="M539.2,197.2l-27.2-0.9c-4-0.8-6.2-0.7-6.7,0.2c-0.5,0.8,0.6,2.4,3.1,4.6l-0.4,10.2l-0.5,14.8L506,226
	c-9.4-0.8-14.7,1.3-15.8,6.4l-3.1,6.1l-6.9,5.2c-4-9-9.9-13.5-17.7-13.3c-6.2,0.5-11,2.6-14.3,6.3c-2.8,2.4-4.3,5-4.6,7.8
	c-2.2,2.6-2.9,5.5-2.2,8.6c0,1.5,0.5,2.8,1.6,4c-0.4,1.5-0.2,2.8,0.5,3.9c1.4,2.4,2.9,3.7,4.7,4.1c3.6,4.7,7.7,6.2,12.4,4.3
	c-2.8-0.3-3.9-1.1-3.3-2.3c1.7,1,3.4,1.6,5.1,1.8c-0.2,0.8-0.2,1.7,0.1,2.7c1.3,0.4,2.6,0.6,4,0.4c1.9,2.3,3.3,2.6,4,0.9
	c0.3-1,1.1-1.4,2.4-1.1c0.6,0.3,1.2,0.3,1.8-0.1c0.5,0.6,0.9,0.9,1.4,0.8c1-0.3,2-0.2,2.8,0.2c2,0.9,3.2,0.1,3.8-2.4l1.8-2.3
	c0.3,10.1,5.8,15.5,16.3,16.2l-6.3,21.8c-0.2,1.5-0.8,3-2,4.5c-5.9,4.7-9.7,9.6-11.5,14.8c-1.2-1-2.2-2.6-3-4.9
	c-0.6-2.5-2-3.2-4.2-2.1c-1,0.4-2.1,0.3-3.2-0.2c-0.7-0.3-1.2-0.2-1.5,0.3c-0.4-0.5-1-0.7-1.9-0.5c-1.2,0.4-2-0.2-2.2-1.8l-0.2-0.8
	c-0.9-1-2-1.1-3.3-0.4l-3.2,2.6c0-0.4-0.1-0.9-0.4-1.5l-2.1,0.2c-0.3,0.6-0.3,1.4,0.2,2.5c-0.8,0.4-1.7,0.6-2.8,0.7
	c-8.2,3.2-12.1,7.9-11.8,13.9c-3.1-2.6-3.6-0.1-1.4,7.4c5.8,15.6,16.8,18.2,33,7.8l-0.1,0.2l3.2,1c3.5,14.9,14.1,24.4,31.6,28.4
	l-1.2,20.3l-0.4,1c-6.3,3.9-5.4,5.6,2.8,5.3l30.2-0.7v211.9h139.7V2.4H539.2V197.2z M532.6,228v-16.6h-0.2v-10.1l6.9,0.3v2.1
	c-4.6,3.7-4.6,6.2,0,7.6v16.8C537,228.1,534.8,228.1,532.6,228z M532.1,297.5l7.1,3.2v11.4l-7.2-0.7L532.1,297.5z M536.4,398.3
	c-2.4,1.6-3.5,0.1-3.4-4.4l-0.9-12.5c3,0.7,5.4,0.4,7.2-1v12.8C537,394.4,536,396.1,536.4,398.3z"/>
<path class="st0" d="M812.1,238l-30.3,3.8c-0.5-2.5-1.2-5.1-2.1-7.5c-4-10.9-9.4-21.2-15.8-30.7c-3.3-4.7-6.8-9.3-10.6-13.6
	c-1.9-2.2-3.7-4.7-5.9-6.8c-1.9-2.4-5.6-4.9-9-4.1c-0.9,0.2-4.2,2.2-5,1.5c2.6,2.2,3.5,6.4,3.8,9.7c0.7,5.3,2.1,11.2,2.3,16.6
	c0.2,6.4-1.7,12.5-5.7,17.6c-3.7,4.6-7.6,8.8-12,12.5c-4,3.6-8.7,6.3-13.7,8c-5.4,1.7-10.6,4.1-14.9,7.6c-4.5,3.6-9.6,9-10.1,14.9
	c-0.5,6.6,4.3,11.9,7.8,16.8c2.8,3.9,4.3,12.4,4.3,12.4s5.7-5.6,9.6-5.6c2.8,0,5.6,1,8.2,1.9c13,3.9,25.9,5.9,38.9,0.8
	c9.6-3.7,19.1-9.2,24.9-17.8c1.4-2,2.4-4.1,3.3-6.3l32.2,5.2v45.8l-32.2,5.2c-0.9-2.2-1.9-4.2-3.3-6.3c-5.7-8.6-15.3-14.1-24.9-17.8
	c-13-5.1-25.9-3.1-38.9,0.8c-2.6,0.8-5.4,1.9-8.2,1.9c-3.8,0-9.6-5.6-9.6-5.6s-1.6,8.5-4.3,12.4c-3.5,4.9-8.3,10.2-7.8,16.8
	c0.5,5.9,5.6,11.4,10.1,14.9c4.3,3.6,9.6,5.9,14.9,7.6c5,1.7,9.7,4.4,13.7,8c4.3,3.7,8.3,8,12,12.5c4,5.1,5.9,11.2,5.7,17.6
	c-0.2,5.4-1.6,11.4-2.3,16.6c-0.3,3.2-1.2,7.5-3.8,9.7c0.9-0.7,4.2,1.4,5,1.5c3.5,0.8,7.1-1.7,9-4.1c2.3-2,4-4.6,5.9-6.8
	c3.8-4.2,7.3-8.8,10.6-13.6c6.4-9.5,11.8-19.8,15.8-30.7c0.9-2.4,1.6-4.9,2.1-7.5l30.3,3.8V615h139.7V2.1H812.1V238z M700.8,274.6
	c-2.4-1.2-3.3-4.1-2.1-6.4c1.2-2.4,4.2-3.2,6.6-2c2.4,1.2,3.3,4.1,2.1,6.4C706.2,274.9,703.2,275.8,700.8,274.6z M755.4,273.7
	c-0.2,1-0.3,1.7-0.3,2.4c-0.3,1.9-1.4,3.1-2.8,4.2c-4.9,3.4-11.8,2.5-15.6-2.2c-3.1-3.9-3.3-9.3-0.5-13.2c-4.5,1.7-9.9,0.3-13-3.6
	c-3.8-4.7-3.1-11.4,1.4-15.4c1-0.8,2.4-1.5,3.8-1.7c0.7-0.2,1.4,0,2.1,0c0.3,0,1,0,1.4,0.2l22.4,1.2l6.3,0.3l-1.2,6.3L755.4,273.7z
	 M782.2,261.9c0.7-3.7,0.9-7.6,0.7-11.5l29.2-3.7v20L782.2,261.9z M698.7,328.1c-1.2-2.4-0.3-5.3,2.1-6.4c2.4-1.2,5.4-0.3,6.6,2
	c1.2,2.4,0.3,5.3-2.1,6.4C702.9,331.3,699.9,330.4,698.7,328.1z M728.3,352c-1.4-0.2-2.8-0.8-3.8-1.7c-4.5-4.1-5.2-10.7-1.4-15.4
	c3.1-3.9,8.5-5.3,13-3.6c-2.8-3.9-2.6-9.3,0.5-13.2c3.8-4.7,10.8-5.6,15.6-2.2c1.4,1.2,2.4,2.4,2.8,4.2c0,0.7,0.2,1.4,0.3,2.4
	l3.8,21.5l1.2,6.3l-6.3,0.3l-22.4,1.2c-0.3,0.2-1,0.2-1.4,0.2C729.7,352,729,352.2,728.3,352z M782.8,345.9c0.2-3.9,0-7.8-0.7-11.5
	l29.9-4.8v20L782.8,345.9z"/>
<path class="st0" d="M295.4,1.4v273c-6.5,0-4.1,2.3-7.1,6.3c-1.7,2.3-0.4,1.4-4.5,3.1c-2.6,1-5.6,0.1-6.3,1.8
	c-0.7-6.3-5.5-25.6-6.4-29.2c-1.9-7.9-4.4-11.6-6.6-19.8c-1.2-4.5-1.9-13.9-4.9-17.3c-3-3.3-11.6-4.9-15.8-6.2
	c-4.5-1.4-10.5-4.6-14.1-1.2c-0.9,0.9-1.8,2.1-2.5,3.6c-6.2,0.7-32.6,3.7-41.3,6.9c-9.8,3.7-11.7,3.1-15.9,6.7
	c-1.1,1-2.1,2.9-2.9,5.3c-0.9,1.3-1.7,2.8-2.5,4.2c-7.7,0.9-28.9,3.4-36.3,6.2c-9,3.4-10.7,2.8-14.6,6.2c-2.1,1.8-3.5,7.2-4.4,11.9
	c-0.1,0.4-0.3,0.9-0.4,1.3c-6.3,0.7-26.1,3-32.8,5.5c-8,3-9.5,2.5-13,5.5c-1.5,1.3-2.7,4.8-3.5,8.3c-0.3,0.3-0.7,0.8-1.1,1.3
	c-3,4-3.5,11-4.7,15.7c-3.6-1.1-5.7-0.5-4.5-4.4c-0.1,0,0-0.9,1.2-1.4c-3.4-0.7-4.7,3.4-7.7,4.2c-3.4,0.9-6.6-0.4-10.1,1.1
	c-3.5,1.5-14.8,8-14.8,12c0,4.3,10.9,10.7,15,12.3c3.8,1.5,7.3,0.2,11,1.1c3,0.7,3.5,4.2,7.5,3.1c-1.8-4-0.1-4.6,3.4-8.3
	c0.2,4.4,1.1,14.1,4.8,18.4c0.8,3.4,1.9,6.7,3.4,8c3.5,3,5,2.5,13,5.5c6.8,2.5,26.9,4.9,33,5.6c0.2,0.3,0.3,0.5,0.5,0.8
	c0.9,4.2,2.2,8.6,4.1,10.2c3.9,3.4,5.6,2.8,14.5,6.1c7.2,2.7,28.2,5.2,35.9,6.1c1,2.2,2.2,4,3.7,5.5c0,0,0,0,0.1-0.1
	c1,4.8,2.5,10.1,4.6,11.9c4.3,3.7,6.1,3.1,15.9,6.7c9.4,3.5,40,6.8,42.4,7c0.7,1.2,1.4,2.1,2.1,2.4c5,2.3,20.8-8.1,25.2-10.8
	c7.3-4.5,6.7-12.2,8.5-20.2c1.1-5,2.5-5.1,4.6-8.9c1.9-3.6,2.2-7.8,2.9-11.8c1.4-8.5,2.7-17,4.4-25.5c2.8,0.6,7,0.8,9.2,2.9
	c1.5,1.5,1.4,3.7,2.9,5.2c2,2.2,3.5,2.3,5,1.9v267.3h139V1.4H295.4z M210.8,368.6c1.1,4.5,3.2,8.6,5.4,12.7
	c-6.6-0.5-15.2-2.2-16.3-2.5c-7.8-1.6-15.4-3.5-23-6.5c0.3-0.6,0.7-1.1,1-1.7c4.3-7.1,9.6-14.9,12.7-23c0.8,0.4,1.6,0.8,2.4,1.2
	c1.1,0.5,8.1,2.2,15.8,3.8C209.1,358,209.5,363.5,210.8,368.6z M106.3,283.8c0.2,4.4,0.9,11.7-0.7,13.8c-1.6,2-3.2,0.4-4.8,1.1
	c-1,0.4-2.3,1.9-3.5,2.4c-4.4,1.8-8.9,1.5-13.5,1c-5.1-0.5-8.3-0.1-11.1-4.7c-2-3.2-3.7-5.9-6-8.7c6.3-1.6,12.7-2.7,19.2-3.5
	C87.4,285,101.9,283,106.3,283.8z M156.9,286.8c-0.2,1.2-2.6,8-2.5,2.7c-3.1,0.6-1.7,3-3.4,4.1c-1.8,1.1-4.7,1.5-6.7,1.7
	c-3.6,0.4-11.3-3.3-13.9-0.9c-2.9-8-5.2-15-11.4-21.1c-0.2-0.2-0.4-0.4-0.7-0.6c6.5-2.3,13-3.9,19.6-5.2c1.4-0.3,13.6-2.8,20-2.6
	c-0.2,1.6-0.3,3.1-0.5,4.6C156.8,275,157.9,281.3,156.9,286.8z M73,328.4c2.1-4.9,1.1-4.3,6.6-5.5c4.5-1,8.1-1.2,12.6-0.6
	c4.6,0.7,8.9,4.5,13.6,2.1c0.1,2.4-0.2,8,0,14.1c-5,0.5-18.4-1.3-19.8-1.5c-5.6-0.8-11.2-1.7-16.7-2.9C70.8,332.4,71.9,331,73,328.4
	z M128.5,333.2c4.1-9.6,19.4-8.8,24.8-0.9c5.3-8.3,4.4,14.6,4.7,17.4c0.1,1.4,0.3,3,0.4,4.7c-6.2,0.3-19.1-2.3-20.5-2.6
	c-5.6-1.1-11.1-2.4-16.5-4.2C125.2,343,126.1,338.9,128.5,333.2z M189.3,271.8c6.1-2.1,12.3-3.6,18.5-4.8c0.2,0,0.6-0.1,1.1-0.2
	c0,0.4-0.1,0.9-0.1,1.3c-0.5,6.2-0.3,13.2-1.8,19.2c-1.3,5.6,0.3,3.4-4.1,3.6c-0.9,0-8.1-2-8.7-2.6c-2.2-2.3-2.4-10.3-3.7-13.5
	C190.2,273.8,189.7,272.8,189.3,271.8z M192.3,342.3c0.5-2.1,0.2-6.3,1.8-7.9c0.4-0.4,0.8-0.6,1.3-0.8c0.4-0.2,1-0.5,1.6-0.8
	c3.2-1.7,8.3-4.2,10-0.4c0.2,0.4,0.2,0.9,0.2,1.4c0.2,3.8,0.7,7.6,1,11.4c0.1,1.2,0.2,2.4,0.3,3.6c-0.7-0.1-1.2-0.2-1.4-0.3
	c-5.2-1-10.4-2.2-15.5-3.8C191.9,343.9,192.1,343.1,192.3,342.3z M209.5,262.9c-7.7,1.6-14.7,3.3-15.8,3.8c-1.9,0.8-3.7,1.9-5.5,3
	c-1.9-3.6-4.1-7.1-5.7-10.1c-2-3.6-4-6.8-6-10.1c7.6-3.1,15.4-5,23.3-6.6c1.2-0.2,10.3-2.1,16.9-2.5
	C213.5,247.7,210.8,254.8,209.5,262.9z M188.9,224.3c2.4-0.7,35-5.7,34.8-3.9c0,0-0.3,3.3-0.3,3.4c0.2-2.4-19.9,0.4-21.7,0.6
	c-9.4,1.3-18.7,2.9-27.7,6.1C179.1,228.7,183.7,225.8,188.9,224.3z M174.9,233.7c8-2.5,13.3-4.6,23.8-7.1c8.5-2,17.7,1.2,23.1,2.5
	c-0.1,0.3-0.3,0.6-0.4,0.9c-0.9,2-1.8,4-2.7,5.9c-10.1,1-31,5.9-33,6.7c-3.4,1.5-6.5,3.7-9.7,5.9c-2.2-3.6-4.3-7.1-6.3-11
	C171.1,235.8,172.9,234.4,174.9,233.7z M128.9,247.3c2.1-0.6,28.2-4.7,33.7-4.2c-0.4,1-0.7,1.9-1,2.9c-4.9-0.6-18.5,1.3-19.9,1.5
	c-9.4,1.3-18.7,2.9-27.7,6.1C119.1,251.7,123.7,248.8,128.9,247.3z M118.3,255.3c7.3-2.3,12.2-4.2,21.8-6.5c7.3-1.7,15.1,0.8,20.2,2
	c-0.8,3.1-1.4,6.3-1.8,9.5c-9.1,0.6-32.6,6-34.7,6.9c-2.5,1.1-4.8,2.6-7.1,4.1c-1.3-1.1-2.7-2.2-3.4-3.1c-0.8-1.1-1.4-3.9-2.3-5.5
	C112.6,259.5,115,256.3,118.3,255.3z M77.1,271.9c1.9-0.6,28.5-4.7,28.4-3.1c0,0-0.2,2.7-0.2,2.7c0.2-1.9-16.2,0.3-17.7,0.5
	c-7.7,1-15.3,2.4-22.6,5C69.1,275.5,72.9,273.1,77.1,271.9z M67.1,279c6.5-2,10.9-3.8,19.4-5.8c7.7-1.8,16.1,1.6,20.2,2.3
	c-0.2,1.7-0.3,3.4-0.3,5.2c-6.6-0.2-31.1,3.7-33.2,4.3c-2.5,0.7-4.8,1.8-7.1,2.8c-0.2-0.2-0.4-0.5-0.6-0.7c-1.5-1.7-2.4-3.3-3.3-4.1
	C63.4,281.2,65.1,279.6,67.1,279z M77.1,350.5c-4.3-1.2-8-3.7-12.1-5.1c7.3,2.6,14.9,3.9,22.6,5c1.4,0.2,17.8,2.5,17.7,0.5
	c0,0,0.2,2.7,0.2,2.7C105.6,355.2,79.1,351.1,77.1,350.5z M86.5,348.5c-8.5-2-12.9-3.8-19.4-5.8c-1.3-0.4-2.4-1.2-3.4-2.1
	c1.1-0.4,1.6-2.2,3.6-4.5c0.3-0.3,0.5-0.6,0.8-0.9c1.6,0.7,3.3,1.4,5,1.9c2,0.6,25.5,4.2,32.7,4.3c0.1,1.6,0.2,3.3,0.3,4.9
	C102,347.1,94,350.3,86.5,348.5z M112.2,359.3c1.2-4.3,4.1-6.4,7.1-9.5c1.4,0.9,2.9,1.7,4.3,2.3c2.1,0.9,26.3,6.5,35.1,6.9
	c0.4,3.1,0.8,6.4,1.5,9.7c-5,1.2-13,3.9-20.5,2.1c-9.5-2.2-14.4-4.2-21.6-6.4C115.7,363.6,113.8,361.6,112.2,359.3z M128.9,372.7
	c-5.2-1.5-9.8-4.5-14.9-6.3c9,3.2,18.3,4.8,27.7,6.1c1.4,0.2,15,2.1,19.9,1.5c0.3,1,0.6,2,0.9,2.9
	C156.7,377.3,131,373.3,128.9,372.7z M169,384.5c2.7-3.7,5-7.3,7.3-11.1c3.1,2.2,6.1,4.3,9.4,5.8c2,0.8,22.8,5.7,32.9,6.7
	c0.7,1.3,1.4,2.6,2,3.9c1.3,2.7,2.6,5.5,3.9,8.2c-5.3,1.2-14.7,4.6-23.4,2.5c-10.4-2.5-15.8-4.6-23.8-7.1
	C173.6,392.3,170.8,388.3,169,384.5z M188.9,401.7c-5.2-1.5-9.8-4.5-14.9-6.3c9,3.2,18.3,4.8,27.7,6.1c1.8,0.2,21.9,3,21.7,0.6
	c0,0,0.3,3.4,0.3,3.4C223.9,407.5,191.3,402.4,188.9,401.7z"/>
</svg>
