  0
SECTION
  2
HEADER
  9
$ACADVER
  1
AC1009
  9
$FILLMODE
 70
 0
  9
$SPLFRAME
 70
 1
  9
$EXTMIN
 10
0
 20
0
 30
0.0
  9
$EXTMAX
 10
41.6667
 20
41.6667
 30
0.0
  0
ENDSEC
  0
SECTION
  2
TABLES
  0
TABLE
  2
LAYER
 70
1
  0
LAYER
  2
0
 70
     0
 62
     7
  6
CONTINUOUS
  0
ENDTAB
  0
ENDSEC
  0
SECTION
  2
ENTITIES
  0
POLYLINE
  8
0
 62
     40
 66
     1
 10
0
 20
0
 30
0.0
 70
     1
 40
0
 41
0
  0
VERTEX
  8
0
 10
5.01129
 20
6.39258
 30
0.0
 40
0
 41
0
  0
VERTEX
  8
0
 10
4.97342
 20
6.39854
 30
0.0
 40
0
 41
0
  0
VERTEX
  8
0
 10
4.86083
 20
6.4221
 30
0.0
 40
0
 41
0
  0
VERTEX
  8
0
 10
4.70594
 20
6.46371
 30
0.0
 40
0
 41
0
  0
VERTEX
  8
0
 10
4.54731
 20
6.51699
 30
0.0
 40
0
 41
0
  0
VERTEX
  8
0
 10
4.38564
 20
6.58143
 30
0.0
 40
0
 41
0
  0
VERTEX
  8
0
 10
4.22174
 20
6.65663
 30
0.0
 40
0
 41
0
  0
VERTEX
  8
0
 10
4.05632
 20
6.74203
 30
0.0
 40
0
 41
0
  0
VERTEX
  8
0
 10
3.89008
 20
6.83724
 30
0.0
 40
0
 41
0
  0
VERTEX
  8
0
 10
3.72379
 20
6.94174
 30
0.0
 40
0
 41
0
  0
VERTEX
  8
0
 10
3.55821
 20
7.05512
 30
0.0
 40
0
 41
0
  0
VERTEX
  8
0
 10
3.39404
 20
7.17681
 30
0.0
 40
0
 41
0
  0
VERTEX
  8
0
 10
3.23199
 20
7.30647
 30
0.0
 40
0
 41
0
  0
VERTEX
  8
0
 10
3.07281
 20
7.44358
 30
0.0
 40
0
 41
0
  0
VERTEX
  8
0
 10
2.91732
 20
7.58763
 30
0.0
 40
0
 41
0
  0
VERTEX
  8
0
 10
2.76611
 20
7.73817
 30
0.0
 40
0
 41
0
  0
VERTEX
  8
0
 10
2.62001
 20
7.89481
 30
0.0
 40
0
 41
0
  0
VERTEX
  8
0
 10
2.47976
 20
8.05697
 30
0.0
 40
0
 41
0
  0
VERTEX
  8
0
 10
2.34603
 20
8.22428
 30
0.0
 40
0
 41
0
  0
VERTEX
  8
0
 10
2.21963
 20
8.39615
 30
0.0
 40
0
 41
0
  0
VERTEX
  8
0
 10
2.10124
 20
8.57226
 30
0.0
 40
0
 41
0
  0
VERTEX
  8
0
 10
1.9916
 20
8.75206
 30
0.0
 40
0
 41
0
  0
VERTEX
  8
0
 10
1.8915
 20
8.93506
 30
0.0
 40
0
 41
0
  0
VERTEX
  8
0
 10
1.8016
 20
9.12082
 30
0.0
 40
0
 41
0
  0
VERTEX
  8
0
 10
1.72265
 20
9.30892
 30
0.0
 40
0
 41
0
  0
VERTEX
  8
0
 10
1.65543
 20
9.49881
 30
0.0
 40
0
 41
0
  0
VERTEX
  8
0
 10
1.60069
 20
9.69011
 30
0.0
 40
0
 41
0
  0
VERTEX
  8
0
 10
1.55908
 20
9.88226
 30
0.0
 40
0
 41
0
  0
VERTEX
  8
0
 10
1.53142
 20
10.0748
 30
0.0
 40
0
 41
0
  0
VERTEX
  8
0
 10
1.51839
 20
10.2674
 30
0.0
 40
0
 41
0
  0
VERTEX
  8
0
 10
1.52072
 20
10.4594
 30
0.0
 40
0
 41
0
  0
VERTEX
  8
0
 10
1.53917
 20
10.6504
 30
0.0
 40
0
 41
0
  0
VERTEX
  8
0
 10
1.57449
 20
10.8401
 30
0.0
 40
0
 41
0
  0
VERTEX
  8
0
 10
1.61208
 20
10.9816
 30
0.0
 40
0
 41
0
  0
VERTEX
  8
0
 10
1.62744
 20
11.0277
 30
0.0
 40
0
 41
0
  0
VERTEX
  8
0
 10
1.64507
 20
11.0809
 30
0.0
 40
0
 41
0
  0
VERTEX
  8
0
 10
1.71044
 20
11.2362
 30
0.0
 40
0
 41
0
  0
VERTEX
  8
0
 10
1.81782
 20
11.4361
 30
0.0
 40
0
 41
0
  0
VERTEX
  8
0
 10
1.94754
 20
11.6247
 30
0.0
 40
0
 41
0
  0
VERTEX
  8
0
 10
2.09765
 20
11.7989
 30
0.0
 40
0
 41
0
  0
VERTEX
  8
0
 10
2.26628
 20
11.9556
 30
0.0
 40
0
 41
0
  0
VERTEX
  8
0
 10
2.45139
 20
12.0918
 30
0.0
 40
0
 41
0
  0
VERTEX
  8
0
 10
2.6511
 20
12.2045
 30
0.0
 40
0
 41
0
  0
VERTEX
  8
0
 10
2.86339
 20
12.2908
 30
0.0
 40
0
 41
0
  0
VERTEX
  8
0
 10
3.08637
 20
12.3475
 30
0.0
 40
0
 41
0
  0
VERTEX
  8
0
 10
3.31803
 20
12.3716
 30
0.0
 40
0
 41
0
  0
VERTEX
  8
0
 10
3.55647
 20
12.3602
 30
0.0
 40
0
 41
0
  0
VERTEX
  8
0
 10
3.79969
 20
12.3102
 30
0.0
 40
0
 41
0
  0
VERTEX
  8
0
 10
4.04579
 20
12.2186
 30
0.0
 40
0
 41
0
  0
VERTEX
  8
0
 10
4.29281
 20
12.0824
 30
0.0
 40
0
 41
0
  0
VERTEX
  8
0
 10
4.53874
 20
11.8985
 30
0.0
 40
0
 41
0
  0
VERTEX
  8
0
 10
4.72456
 20
11.7259
 30
0.0
 40
0
 41
0
  0
VERTEX
  8
0
 10
4.78174
 20
11.664
 30
0.0
 40
0
 41
0
  0
VERTEX
  8
0
 10
4.79736
 20
11.647
 30
0.0
 40
0
 41
0
  0
VERTEX
  8
0
 10
4.84879
 20
11.6002
 30
0.0
 40
0
 41
0
  0
VERTEX
  8
0
 10
4.90836
 20
11.5597
 30
0.0
 40
0
 41
0
  0
VERTEX
  8
0
 10
4.96089
 20
11.5384
 30
0.0
 40
0
 41
0
  0
VERTEX
  8
0
 10
4.99511
 20
11.5323
 30
0.0
 40
0
 41
0
  0
VERTEX
  8
0
 10
5.00657
 20
11.5323
 30
0.0
 40
0
 41
0
  0
VERTEX
  8
0
 10
5.02447
 20
11.5323
 30
0.0
 40
0
 41
0
  0
VERTEX
  8
0
 10
5.03228
 20
11.5323
 30
0.0
 40
0
 41
0
  0
VERTEX
  8
0
 10
5.05013
 20
11.5323
 30
0.0
 40
0
 41
0
  0
VERTEX
  8
0
 10
5.06153
 20
11.5323
 30
0.0
 40
0
 41
0
  0
VERTEX
  8
0
 10
5.09581
 20
11.5384
 30
0.0
 40
0
 41
0
  0
VERTEX
  8
0
 10
5.14828
 20
11.5597
 30
0.0
 40
0
 41
0
  0
VERTEX
  8
0
 10
5.2079
 20
11.6002
 30
0.0
 40
0
 41
0
  0
VERTEX
  8
0
 10
5.25933
 20
11.647
 30
0.0
 40
0
 41
0
  0
VERTEX
  8
0
 10
5.27501
 20
11.664
 30
0.0
 40
0
 41
0
  0
VERTEX
  8
0
 10
5.33214
 20
11.7259
 30
0.0
 40
0
 41
0
  0
VERTEX
  8
0
 10
5.51796
 20
11.8985
 30
0.0
 40
0
 41
0
  0
VERTEX
  8
0
 10
5.76389
 20
12.0824
 30
0.0
 40
0
 41
0
  0
VERTEX
  8
0
 10
6.0109
 20
12.2186
 30
0.0
 40
0
 41
0
  0
VERTEX
  8
0
 10
6.25694
 20
12.3102
 30
0.0
 40
0
 41
0
  0
VERTEX
  8
0
 10
6.50022
 20
12.3602
 30
0.0
 40
0
 41
0
  0
VERTEX
  8
0
 10
6.73861
 20
12.3716
 30
0.0
 40
0
 41
0
  0
VERTEX
  8
0
 10
6.97032
 20
12.3475
 30
0.0
 40
0
 41
0
  0
VERTEX
  8
0
 10
7.19325
 20
12.2908
 30
0.0
 40
0
 41
0
  0
VERTEX
  8
0
 10
7.40554
 20
12.2045
 30
0.0
 40
0
 41
0
  0
VERTEX
  8
0
 10
7.60525
 20
12.0918
 30
0.0
 40
0
 41
0
  0
VERTEX
  8
0
 10
7.79036
 20
11.9556
 30
0.0
 40
0
 41
0
  0
VERTEX
  8
0
 10
7.95899
 20
11.7989
 30
0.0
 40
0
 41
0
  0
VERTEX
  8
0
 10
8.1091
 20
11.6247
 30
0.0
 40
0
 41
0
  0
VERTEX
  8
0
 10
8.23887
 20
11.4361
 30
0.0
 40
0
 41
0
  0
VERTEX
  8
0
 10
8.34625
 20
11.2362
 30
0.0
 40
0
 41
0
  0
VERTEX
  8
0
 10
8.41168
 20
11.0809
 30
0.0
 40
0
 41
0
  0
VERTEX
  8
0
 10
8.42931
 20
11.0277
 30
0.0
 40
0
 41
0
  0
VERTEX
  8
0
 10
8.44461
 20
10.9816
 30
0.0
 40
0
 41
0
  0
VERTEX
  8
0
 10
8.48221
 20
10.8401
 30
0.0
 40
0
 41
0
  0
VERTEX
  8
0
 10
8.51747
 20
10.6504
 30
0.0
 40
0
 41
0
  0
VERTEX
  8
0
 10
8.53597
 20
10.4594
 30
0.0
 40
0
 41
0
  0
VERTEX
  8
0
 10
8.53831
 20
10.2674
 30
0.0
 40
0
 41
0
  0
VERTEX
  8
0
 10
8.52528
 20
10.0748
 30
0.0
 40
0
 41
0
  0
VERTEX
  8
0
 10
8.49756
 20
9.88226
 30
0.0
 40
0
 41
0
  0
VERTEX
  8
0
 10
8.456
 20
9.69011
 30
0.0
 40
0
 41
0
  0
VERTEX
  8
0
 10
8.40121
 20
9.49881
 30
0.0
 40
0
 41
0
  0
VERTEX
  8
0
 10
8.33399
 20
9.30892
 30
0.0
 40
0
 41
0
  0
VERTEX
  8
0
 10
8.2551
 20
9.12082
 30
0.0
 40
0
 41
0
  0
VERTEX
  8
0
 10
8.16521
 20
8.93506
 30
0.0
 40
0
 41
0
  0
VERTEX
  8
0
 10
8.06511
 20
8.75206
 30
0.0
 40
0
 41
0
  0
VERTEX
  8
0
 10
7.95546
 20
8.57226
 30
0.0
 40
0
 41
0
  0
VERTEX
  8
0
 10
7.83708
 20
8.39615
 30
0.0
 40
0
 41
0
  0
VERTEX
  8
0
 10
7.71067
 20
8.22428
 30
0.0
 40
0
 41
0
  0
VERTEX
  8
0
 10
7.57693
 20
8.05697
 30
0.0
 40
0
 41
0
  0
VERTEX
  8
0
 10
7.43668
 20
7.89481
 30
0.0
 40
0
 41
0
  0
VERTEX
  8
0
 10
7.29058
 20
7.73817
 30
0.0
 40
0
 41
0
  0
VERTEX
  8
0
 10
7.13937
 20
7.58763
 30
0.0
 40
0
 41
0
  0
VERTEX
  8
0
 10
6.98383
 20
7.44358
 30
0.0
 40
0
 41
0
  0
VERTEX
  8
0
 10
6.82471
 20
7.30647
 30
0.0
 40
0
 41
0
  0
VERTEX
  8
0
 10
6.66265
 20
7.17681
 30
0.0
 40
0
 41
0
  0
VERTEX
  8
0
 10
6.49849
 20
7.05512
 30
0.0
 40
0
 41
0
  0
VERTEX
  8
0
 10
6.33285
 20
6.94174
 30
0.0
 40
0
 41
0
  0
VERTEX
  8
0
 10
6.16661
 20
6.83724
 30
0.0
 40
0
 41
0
  0
VERTEX
  8
0
 10
6.00038
 20
6.74203
 30
0.0
 40
0
 41
0
  0
VERTEX
  8
0
 10
5.83496
 20
6.65663
 30
0.0
 40
0
 41
0
  0
VERTEX
  8
0
 10
5.67106
 20
6.58143
 30
0.0
 40
0
 41
0
  0
VERTEX
  8
0
 10
5.50939
 20
6.51699
 30
0.0
 40
0
 41
0
  0
VERTEX
  8
0
 10
5.35075
 20
6.46371
 30
0.0
 40
0
 41
0
  0
VERTEX
  8
0
 10
5.19586
 20
6.4221
 30
0.0
 40
0
 41
0
  0
VERTEX
  8
0
 10
5.08328
 20
6.39854
 30
0.0
 40
0
 41
0
  0
VERTEX
  8
0
 10
5.04546
 20
6.39258
 30
0.0
 40
0
 41
0
  0
VERTEX
  8
0
 10
5.03
 20
6.39133
 30
0.0
 40
0
 41
0
  0
VERTEX
  8
0
 10
5.01129
 20
6.39258
 30
0.0
 40
0
 41
0
  0
SEQEND
 8
0
  0
POLYLINE
  8
0
 62
     40
 66
     1
 10
0
 20
0
 30
0.0
 70
     1
 40
0
 41
0
  0
VERTEX
  8
0
 10
5.05214
 20
13.1064
 30
0.0
 40
0
 41
0
  0
VERTEX
  8
0
 10
5.05214
 20
13.1064
 30
0.0
 40
0
 41
0
  0
VERTEX
  8
0
 10
5.04482
 20
13.1064
 30
0.0
 40
0
 41
0
  0
VERTEX
  8
0
 10
5.02294
 20
13.1143
 30
0.0
 40
0
 41
0
  0
VERTEX
  8
0
 10
5.00396
 20
13.1311
 30
0.0
 40
0
 41
0
  0
VERTEX
  8
0
 10
5.00119
 20
13.1355
 30
0.0
 40
0
 41
0
  0
VERTEX
  8
0
 10
4.97874
 20
13.1713
 30
0.0
 40
0
 41
0
  0
VERTEX
  8
0
 10
4.89296
 20
13.2669
 30
0.0
 40
0
 41
0
  0
VERTEX
  8
0
 10
4.73438
 20
13.3978
 30
0.0
 40
0
 41
0
  0
VERTEX
  8
0
 10
4.52989
 20
13.5225
 30
0.0
 40
0
 41
0
  0
VERTEX
  8
0
 10
4.28396
 20
13.6352
 30
0.0
 40
0
 41
0
  0
VERTEX
  8
0
 10
4.00092
 20
13.7305
 30
0.0
 40
0
 41
0
  0
VERTEX
  8
0
 10
3.68528
 20
13.8025
 30
0.0
 40
0
 41
0
  0
VERTEX
  8
0
 10
3.34142
 20
13.8456
 30
0.0
 40
0
 41
0
  0
VERTEX
  8
0
 10
3.0656
 20
13.8567
 30
0.0
 40
0
 41
0
  0
VERTEX
  8
0
 10
2.97385
 20
13.8541
 30
0.0
 40
0
 41
0
  0
VERTEX
  8
0
 10
2.91108
 20
13.8524
 30
0.0
 40
0
 41
0
  0
VERTEX
  8
0
 10
2.72314
 20
13.8339
 30
0.0
 40
0
 41
0
  0
VERTEX
  8
0
 10
2.47412
 20
13.789
 30
0.0
 40
0
 41
0
  0
VERTEX
  8
0
 10
2.22982
 20
13.7216
 30
0.0
 40
0
 41
0
  0
VERTEX
  8
0
 10
1.99317
 20
13.634
 30
0.0
 40
0
 41
0
  0
VERTEX
  8
0
 10
1.76714
 20
13.5287
 30
0.0
 40
0
 41
0
  0
VERTEX
  8
0
 10
1.55479
 20
13.4077
 30
0.0
 40
0
 41
0
  0
VERTEX
  8
0
 10
1.35916
 20
13.2737
 30
0.0
 40
0
 41
0
  0
VERTEX
  8
0
 10
1.22537
 20
13.1669
 30
0.0
 40
0
 41
0
  0
VERTEX
  8
0
 10
1.18321
 20
13.1286
 30
0.0
 40
0
 41
0
  0
VERTEX
  8
0
 10
1.12891
 20
13.0795
 30
0.0
 40
0
 41
0
  0
VERTEX
  8
0
 10
0.974935
 20
12.9222
 30
0.0
 40
0
 41
0
  0
VERTEX
  8
0
 10
0.790093
 20
12.7019
 30
0.0
 40
0
 41
0
  0
VERTEX
  8
0
 10
0.627115
 20
12.4667
 30
0.0
 40
0
 41
0
  0
VERTEX
  8
0
 10
0.484321
 20
12.2154
 30
0.0
 40
0
 41
0
  0
VERTEX
  8
0
 10
0.359972
 20
11.9469
 30
0.0
 40
0
 41
0
  0
VERTEX
  8
0
 10
0.252496
 20
11.66
 30
0.0
 40
0
 41
0
  0
VERTEX
  8
0
 10
0.160157
 20
11.3538
 30
0.0
 40
0
 41
0
  0
VERTEX
  8
0
 10
0.0990126
 20
11.1092
 30
0.0
 40
0
 41
0
  0
VERTEX
  8
0
 10
0.0813803
 20
11.027
 30
0.0
 40
0
 41
0
  0
VERTEX
  8
0
 10
0.0613064
 20
10.9339
 30
0.0
 40
0
 41
0
  0
VERTEX
  8
0
 10
0.0231662
 20
10.6495
 30
0.0
 40
0
 41
0
  0
VERTEX
  8
0
 10
0.00721571
 20
10.2574
 30
0.0
 40
0
 41
0
  0
VERTEX
  8
0
 10
0.0329861
 20
9.85449
 30
0.0
 40
0
 41
0
  0
VERTEX
  8
0
 10
0.100098
 20
9.44412
 30
0.0
 40
0
 41
0
  0
VERTEX
  8
0
 10
0.208117
 20
9.02994
 30
0.0
 40
0
 41
0
  0
VERTEX
  8
0
 10
0.356608
 20
8.61556
 30
0.0
 40
0
 41
0
  0
VERTEX
  8
0
 10
0.545139
 20
8.20443
 30
0.0
 40
0
 41
0
  0
VERTEX
  8
0
 10
0.773275
 20
7.80013
 30
0.0
 40
0
 41
0
  0
VERTEX
  8
0
 10
1.04053
 20
7.40625
 30
0.0
 40
0
 41
0
  0
VERTEX
  8
0
 10
1.34657
 20
7.02632
 30
0.0
 40
0
 41
0
  0
VERTEX
  8
0
 10
1.69092
 20
6.6639
 30
0.0
 40
0
 41
0
  0
VERTEX
  8
0
 10
2.07314
 20
6.32254
 30
0.0
 40
0
 41
0
  0
VERTEX
  8
0
 10
2.49278
 20
6.00581
 30
0.0
 40
0
 41
0
  0
VERTEX
  8
0
 10
2.94949
 20
5.71724
 30
0.0
 40
0
 41
0
  0
VERTEX
  8
0
 10
3.44276
 20
5.46039
 30
0.0
 40
0
 41
0
  0
VERTEX
  8
0
 10
3.83772
 20
5.28863
 30
0.0
 40
0
 41
0
  0
VERTEX
  8
0
 10
3.97217
 20
5.23882
 30
0.0
 40
0
 41
0
  0
VERTEX
  8
0
 10
3.99436
 20
5.23063
 30
0.0
 40
0
 41
0
  0
VERTEX
  8
0
 10
4.05544
 20
5.19103
 30
0.0
 40
0
 41
0
  0
VERTEX
  8
0
 10
4.12088
 20
5.12207
 30
0.0
 40
0
 41
0
  0
VERTEX
  8
0
 10
4.17025
 20
5.04058
 30
0.0
 40
0
 41
0
  0
VERTEX
  8
0
 10
4.20551
 20
4.95503
 30
0.0
 40
0
 41
0
  0
VERTEX
  8
0
 10
4.22851
 20
4.87397
 30
0.0
 40
0
 41
0
  0
VERTEX
  8
0
 10
4.24115
 20
4.80599
 30
0.0
 40
0
 41
0
  0
VERTEX
  8
0
 10
4.24528
 20
4.7596
 30
0.0
 40
0
 41
0
  0
VERTEX
  8
0
 10
4.24283
 20
4.74338
 30
0.0
 40
0
 41
0
  0
VERTEX
  8
0
 10
4.24283
 20
4.74338
 30
0.0
 40
0
 41
0
  0
VERTEX
  8
0
 10
4.23574
 20
4.74338
 30
0.0
 40
0
 41
0
  0
VERTEX
  8
0
 10
4.21451
 20
4.74274
 30
0.0
 40
0
 41
0
  0
VERTEX
  8
0
 10
4.14649
 20
4.74126
 30
0.0
 40
0
 41
0
  0
VERTEX
  8
0
 10
4.04286
 20
4.73986
 30
0.0
 40
0
 41
0
  0
VERTEX
  8
0
 10
3.90776
 20
4.73926
 30
0.0
 40
0
 41
0
  0
VERTEX
  8
0
 10
3.74528
 20
4.74029
 30
0.0
 40
0
 41
0
  0
VERTEX
  8
0
 10
3.55957
 20
4.74382
 30
0.0
 40
0
 41
0
  0
VERTEX
  8
0
 10
3.35471
 20
4.75065
 30
0.0
 40
0
 41
0
  0
VERTEX
  8
0
 10
3.13476
 20
4.76156
 30
0.0
 40
0
 41
0
  0
VERTEX
  8
0
 10
2.90392
 20
4.7774
 30
0.0
 40
0
 41
0
  0
VERTEX
  8
0
 10
2.66624
 20
4.79899
 30
0.0
 40
0
 41
0
  0
VERTEX
  8
0
 10
2.42583
 20
4.82715
 30
0.0
 40
0
 41
0
  0
VERTEX
  8
0
 10
2.18679
 20
4.86263
 30
0.0
 40
0
 41
0
  0
VERTEX
  8
0
 10
1.95329
 20
4.90636
 30
0.0
 40
0
 41
0
  0
VERTEX
  8
0
 10
1.72944
 20
4.9591
 30
0.0
 40
0
 41
0
  0
VERTEX
  8
0
 10
1.51926
 20
5.0216
 30
0.0
 40
0
 41
0
  0
VERTEX
  8
0
 10
1.37408
 20
5.07438
 30
0.0
 40
0
 41
0
  0
VERTEX
  8
0
 10
1.32693
 20
5.09478
 30
0.0
 40
0
 41
0
  0
VERTEX
  8
0
 10
1.3195
 20
5.09799
 30
0.0
 40
0
 41
0
  0
VERTEX
  8
0
 10
1.29584
 20
5.10422
 30
0.0
 40
0
 41
0
  0
VERTEX
  8
0
 10
1.26573
 20
5.10568
 30
0.0
 40
0
 41
0
  0
VERTEX
  8
0
 10
1.23747
 20
5.09961
 30
0.0
 40
0
 41
0
  0
VERTEX
  8
0
 10
1.21208
 20
5.08637
 30
0.0
 40
0
 41
0
  0
VERTEX
  8
0
 10
1.19065
 20
5.06625
 30
0.0
 40
0
 41
0
  0
VERTEX
  8
0
 10
1.17405
 20
5.03965
 30
0.0
 40
0
 41
0
  0
VERTEX
  8
0
 10
1.16336
 20
5.00689
 30
0.0
 40
0
 41
0
  0
VERTEX
  8
0
 10
1.15961
 20
4.97803
 30
0.0
 40
0
 41
0
  0
VERTEX
  8
0
 10
1.15961
 20
4.96837
 30
0.0
 40
0
 41
0
  0
VERTEX
  8
0
 10
1.15961
 20
4.93294
 30
0.0
 40
0
 41
0
  0
VERTEX
  8
0
 10
1.15896
 20
4.82667
 30
0.0
 40
0
 41
0
  0
VERTEX
  8
0
 10
1.15733
 20
4.64094
 30
0.0
 40
0
 41
0
  0
VERTEX
  8
0
 10
1.15511
 20
4.42486
 30
0.0
 40
0
 41
0
  0
VERTEX
  8
0
 10
1.15278
 20
4.19189
 30
0.0
 40
0
 41
0
  0
VERTEX
  8
0
 10
1.15072
 20
3.95568
 30
0.0
 40
0
 41
0
  0
VERTEX
  8
0
 10
1.14936
 20
3.72976
 30
0.0
 40
0
 41
0
  0
VERTEX
  8
0
 10
1.14909
 20
3.52761
 30
0.0
 40
0
 41
0
  0
VERTEX
  8
0
 10
1.14979
 20
3.40403
 30
0.0
 40
0
 41
0
  0
VERTEX
  8
0
 10
1.15044
 20
3.36285
 30
0.0
 40
0
 41
0
  0
VERTEX
  8
0
 10
1.15066
 20
3.3481
 30
0.0
 40
0
 41
0
  0
VERTEX
  8
0
 10
1.15489
 20
3.30382
 30
0.0
 40
0
 41
0
  0
VERTEX
  8
0
 10
1.16607
 20
3.25917
 30
0.0
 40
0
 41
0
  0
VERTEX
  8
0
 10
1.18365
 20
3.22385
 30
0.0
 40
0
 41
0
  0
VERTEX
  8
0
 10
1.20106
 20
3.20014
 30
0.0
 40
0
 41
0
  0
VERTEX
  8
0
 10
1.20752
 20
3.19276
 30
0.0
 40
0
 41
0
  0
VERTEX
  8
0
 10
1.20991
 20
3.19
 30
0.0
 40
0
 41
0
  0
VERTEX
  8
0
 10
1.23899
 20
3.16792
 30
0.0
 40
0
 41
0
  0
VERTEX
  8
0
 10
1.24235
 20
3.16639
 30
0.0
 40
0
 41
0
  0
VERTEX
  8
0
 10
1.2481
 20
3.16379
 30
0.0
 40
0
 41
0
  0
VERTEX
  8
0
 10
1.26638
 20
3.1581
 30
0.0
 40
0
 41
0
  0
VERTEX
  8
0
 10
1.29867
 20
3.15315
 30
0.0
 40
0
 41
0
  0
VERTEX
  8
0
 10
1.33941
 20
3.15474
 30
0.0
 40
0
 41
0
  0
VERTEX
  8
0
 10
1.37684
 20
3.16194
 30
0.0
 40
0
 41
0
  0
VERTEX
  8
0
 10
1.38894
 20
3.16564
 30
0.0
 40
0
 41
0
  0
VERTEX
  8
0
 10
1.45144
 20
3.1849
 30
0.0
 40
0
 41
0
  0
VERTEX
  8
0
 10
1.6404
 20
3.23801
 30
0.0
 40
0
 41
0
  0
VERTEX
  8
0
 10
1.89356
 20
3.30171
 30
0.0
 40
0
 41
0
  0
VERTEX
  8
0
 10
2.14594
 20
3.35732
 30
0.0
 40
0
 41
0
  0
VERTEX
  8
0
 10
2.39501
 20
3.40539
 30
0.0
 40
0
 41
0
  0
VERTEX
  8
0
 10
2.63846
 20
3.4464
 30
0.0
 40
0
 41
0
  0
VERTEX
  8
0
 10
2.87364
 20
3.48101
 30
0.0
 40
0
 41
0
  0
VERTEX
  8
0
 10
3.09819
 20
3.50971
 30
0.0
 40
0
 41
0
  0
VERTEX
  8
0
 10
3.30957
 20
3.5331
 30
0.0
 40
0
 41
0
  0
VERTEX
  8
0
 10
3.50537
 20
3.5516
 30
0.0
 40
0
 41
0
  0
VERTEX
  8
0
 10
3.68306
 20
3.56592
 30
0.0
 40
0
 41
0
  0
VERTEX
  8
0
 10
3.84017
 20
3.5765
 30
0.0
 40
0
 41
0
  0
VERTEX
  8
0
 10
3.97428
 20
3.58393
 30
0.0
 40
0
 41
0
  0
VERTEX
  8
0
 10
4.0829
 20
3.58876
 30
0.0
 40
0
 41
0
  0
VERTEX
  8
0
 10
4.16357
 20
3.59153
 30
0.0
 40
0
 41
0
  0
VERTEX
  8
0
 10
4.21376
 20
3.59278
 30
0.0
 40
0
 41
0
  0
VERTEX
  8
0
 10
4.23107
 20
3.59304
 30
0.0
 40
0
 41
0
  0
VERTEX
  8
0
 10
4.23107
 20
3.59304
 30
0.0
 40
0
 41
0
  0
VERTEX
  8
0
 10
4.23551
 20
3.59343
 30
0.0
 40
0
 41
0
  0
VERTEX
  8
0
 10
4.24929
 20
3.59056
 30
0.0
 40
0
 41
0
  0
VERTEX
  8
0
 10
4.26426
 20
3.58111
 30
0.0
 40
0
 41
0
  0
VERTEX
  8
0
 10
4.27414
 20
3.56646
 30
0.0
 40
0
 41
0
  0
VERTEX
  8
0
 10
4.27735
 20
3.55274
 30
0.0
 40
0
 41
0
  0
VERTEX
  8
0
 10
4.27713
 20
3.54824
 30
0.0
 40
0
 41
0
  0
VERTEX
  8
0
 10
4.27604
 20
3.5281
 30
0.0
 40
0
 41
0
  0
VERTEX
  8
0
 10
4.27533
 20
3.46739
 30
0.0
 40
0
 41
0
  0
VERTEX
  8
0
 10
4.27632
 20
3.36231
 30
0.0
 40
0
 41
0
  0
VERTEX
  8
0
 10
4.27849
 20
3.23475
 30
0.0
 40
0
 41
0
  0
VERTEX
  8
0
 10
4.28028
 20
3.08632
 30
0.0
 40
0
 41
0
  0
VERTEX
  8
0
 10
4.28017
 20
2.91863
 30
0.0
 40
0
 41
0
  0
VERTEX
  8
0
 10
4.27658
 20
2.73329
 30
0.0
 40
0
 41
0
  0
VERTEX
  8
0
 10
4.26796
 20
2.53207
 30
0.0
 40
0
 41
0
  0
VERTEX
  8
0
 10
4.25276
 20
2.31651
 30
0.0
 40
0
 41
0
  0
VERTEX
  8
0
 10
4.22944
 20
2.08826
 30
0.0
 40
0
 41
0
  0
VERTEX
  8
0
 10
4.1964
 20
1.84901
 30
0.0
 40
0
 41
0
  0
VERTEX
  8
0
 10
4.15213
 20
1.60037
 30
0.0
 40
0
 41
0
  0
VERTEX
  8
0
 10
4.09506
 20
1.34402
 30
0.0
 40
0
 41
0
  0
VERTEX
  8
0
 10
4.0236
 20
1.08154
 30
0.0
 40
0
 41
0
  0
VERTEX
  8
0
 10
3.93625
 20
0.814615
 30
0.0
 40
0
 41
0
  0
VERTEX
  8
0
 10
3.83143
 20
0.544868
 30
0.0
 40
0
 41
0
  0
VERTEX
  8
0
 10
3.7405
 20
0.340657
 30
0.0
 40
0
 41
0
  0
VERTEX
  8
0
 10
3.70757
 20
0.273926
 30
0.0
 40
0
 41
0
  0
VERTEX
  8
0
 10
3.70344
 20
0.265625
 30
0.0
 40
0
 41
0
  0
VERTEX
  8
0
 10
3.69363
 20
0.239367
 30
0.0
 40
0
 41
0
  0
VERTEX
  8
0
 10
3.68321
 20
0.198406
 30
0.0
 40
0
 41
0
  0
VERTEX
  8
0
 10
3.67822
 20
0.154406
 30
0.0
 40
0
 41
0
  0
VERTEX
  8
0
 10
3.68083
 20
0.110731
 30
0.0
 40
0
 41
0
  0
VERTEX
  8
0
 10
3.69293
 20
0.0708008
 30
0.0
 40
0
 41
0
  0
VERTEX
  8
0
 10
3.71658
 20
0.0379775
 30
0.0
 40
0
 41
0
  0
VERTEX
  8
0
 10
3.75385
 20
0.0155707
 30
0.0
 40
0
 41
0
  0
VERTEX
  8
0
 10
3.79351
 20
0.00710721
 30
0.0
 40
0
 41
0
  0
VERTEX
  8
0
 10
3.80675
 20
0.00694444
 30
0.0
 40
0
 41
0
  0
VERTEX
  8
0
 10
5.04557
 20
0.00694444
 30
0.0
 40
0
 41
0
  0
VERTEX
  8
0
 10
5.04096
 20
0.00694444
 30
0.0
 40
0
 41
0
  0
VERTEX
  8
0
 10
6.27979
 20
0.00694444
 30
0.0
 40
0
 41
0
  0
VERTEX
  8
0
 10
6.29297
 20
0.00710721
 30
0.0
 40
0
 41
0
  0
VERTEX
  8
0
 10
6.33263
 20
0.0155707
 30
0.0
 40
0
 41
0
  0
VERTEX
  8
0
 10
6.3699
 20
0.0379775
 30
0.0
 40
0
 41
0
  0
VERTEX
  8
0
 10
6.39356
 20
0.0708008
 30
0.0
 40
0
 41
0
  0
VERTEX
  8
0
 10
6.40571
 20
0.110731
 30
0.0
 40
0
 41
0
  0
VERTEX
  8
0
 10
6.40826
 20
0.154406
 30
0.0
 40
0
 41
0
  0
VERTEX
  8
0
 10
6.40332
 20
0.198406
 30
0.0
 40
0
 41
0
  0
VERTEX
  8
0
 10
6.3929
 20
0.239367
 30
0.0
 40
0
 41
0
  0
VERTEX
  8
0
 10
6.38308
 20
0.265625
 30
0.0
 40
0
 41
0
  0
VERTEX
  8
0
 10
6.37901
 20
0.273926
 30
0.0
 40
0
 41
0
  0
VERTEX
  8
0
 10
6.34603
 20
0.340657
 30
0.0
 40
0
 41
0
  0
VERTEX
  8
0
 10
6.2551
 20
0.544868
 30
0.0
 40
0
 41
0
  0
VERTEX
  8
0
 10
6.15028
 20
0.814615
 30
0.0
 40
0
 41
0
  0
VERTEX
  8
0
 10
6.06288
 20
1.08154
 30
0.0
 40
0
 41
0
  0
VERTEX
  8
0
 10
5.99143
 20
1.34402
 30
0.0
 40
0
 41
0
  0
VERTEX
  8
0
 10
5.93435
 20
1.60037
 30
0.0
 40
0
 41
0
  0
VERTEX
  8
0
 10
5.89008
 20
1.84901
 30
0.0
 40
0
 41
0
  0
VERTEX
  8
0
 10
5.85704
 20
2.08826
 30
0.0
 40
0
 41
0
  0
VERTEX
  8
0
 10
5.83371
 20
2.31651
 30
0.0
 40
0
 41
0
  0
VERTEX
  8
0
 10
5.81853
 20
2.53207
 30
0.0
 40
0
 41
0
  0
VERTEX
  8
0
 10
5.8099
 20
2.73329
 30
0.0
 40
0
 41
0
  0
VERTEX
  8
0
 10
5.80632
 20
2.91863
 30
0.0
 40
0
 41
0
  0
VERTEX
  8
0
 10
5.80621
 20
3.08632
 30
0.0
 40
0
 41
0
  0
VERTEX
  8
0
 10
5.808
 20
3.23475
 30
0.0
 40
0
 41
0
  0
VERTEX
  8
0
 10
5.81017
 20
3.36231
 30
0.0
 40
0
 41
0
  0
VERTEX
  8
0
 10
5.81114
 20
3.46739
 30
0.0
 40
0
 41
0
  0
VERTEX
  8
0
 10
5.81049
 20
3.5281
 30
0.0
 40
0
 41
0
  0
VERTEX
  8
0
 10
5.8094
 20
3.54824
 30
0.0
 40
0
 41
0
  0
VERTEX
  8
0
 10
5.80914
 20
3.55274
 30
0.0
 40
0
 41
0
  0
VERTEX
  8
0
 10
5.81239
 20
3.56646
 30
0.0
 40
0
 41
0
  0
VERTEX
  8
0
 10
5.82226
 20
3.58111
 30
0.0
 40
0
 41
0
  0
VERTEX
  8
0
 10
5.83718
 20
3.59056
 30
0.0
 40
0
 41
0
  0
VERTEX
  8
0
 10
5.85101
 20
3.59343
 30
0.0
 40
0
 41
0
  0
VERTEX
  8
0
 10
5.85553
 20
3.59304
 30
0.0
 40
0
 41
0
  0
VERTEX
  8
0
 10
5.85553
 20
3.59304
 30
0.0
 40
0
 41
0
  0
VERTEX
  8
0
 10
5.87278
 20
3.59278
 30
0.0
 40
0
 41
0
  0
VERTEX
  8
0
 10
5.92296
 20
3.59153
 30
0.0
 40
0
 41
0
  0
VERTEX
  8
0
 10
6.00364
 20
3.58876
 30
0.0
 40
0
 41
0
  0
VERTEX
  8
0
 10
6.11225
 20
3.58393
 30
0.0
 40
0
 41
0
  0
VERTEX
  8
0
 10
6.24636
 20
3.5765
 30
0.0
 40
0
 41
0
  0
VERTEX
  8
0
 10
6.40349
 20
3.56592
 30
0.0
 40
0
 41
0
  0
VERTEX
  8
0
 10
6.58117
 20
3.5516
 30
0.0
 40
0
 41
0
  0
VERTEX
  8
0
 10
6.77696
 20
3.5331
 30
0.0
 40
0
 41
0
  0
VERTEX
  8
0
 10
6.98833
 20
3.50971
 30
0.0
 40
0
 41
0
  0
VERTEX
  8
0
 10
7.21289
 20
3.48101
 30
0.0
 40
0
 41
0
  0
VERTEX
  8
0
 10
7.44808
 20
3.4464
 30
0.0
 40
0
 41
0
  0
VERTEX
  8
0
 10
7.69146
 20
3.40539
 30
0.0
 40
0
 41
0
  0
VERTEX
  8
0
 10
7.9406
 20
3.35732
 30
0.0
 40
0
 41
0
  0
VERTEX
  8
0
 10
8.19299
 20
3.30171
 30
0.0
 40
0
 41
0
  0
VERTEX
  8
0
 10
8.44612
 20
3.23801
 30
0.0
 40
0
 41
0
  0
VERTEX
  8
0
 10
8.63504
 20
3.1849
 30
0.0
 40
0
 41
0
  0
VERTEX
  8
0
 10
8.6976
 20
3.16564
 30
0.0
 40
0
 41
0
  0
VERTEX
  8
0
 10
8.70964
 20
3.16194
 30
0.0
 40
0
 41
0
  0
VERTEX
  8
0
 10
8.74707
 20
3.15474
 30
0.0
 40
0
 41
0
  0
VERTEX
  8
0
 10
8.78782
 20
3.15315
 30
0.0
 40
0
 41
0
  0
VERTEX
  8
0
 10
8.8201
 20
3.1581
 30
0.0
 40
0
 41
0
  0
VERTEX
  8
0
 10
8.83837
 20
3.16379
 30
0.0
 40
0
 41
0
  0
VERTEX
  8
0
 10
8.84418
 20
3.16639
 30
0.0
 40
0
 41
0
  0
VERTEX
  8
0
 10
8.8475
 20
3.16792
 30
0.0
 40
0
 41
0
  0
VERTEX
  8
0
 10
8.87663
 20
3.19
 30
0.0
 40
0
 41
0
  0
VERTEX
  8
0
 10
8.87907
 20
3.19276
 30
0.0
 40
0
 41
0
  0
VERTEX
  8
0
 10
8.88547
 20
3.20014
 30
0.0
 40
0
 41
0
  0
VERTEX
  8
0
 10
8.90289
 20
3.22385
 30
0.0
 40
0
 41
0
  0
VERTEX
  8
0
 10
8.92046
 20
3.25917
 30
0.0
 40
0
 41
0
  0
VERTEX
  8
0
 10
8.93164
 20
3.30382
 30
0.0
 40
0
 41
0
  0
VERTEX
  8
0
 10
8.93593
 20
3.3481
 30
0.0
 40
0
 41
0
  0
VERTEX
  8
0
 10
8.93614
 20
3.36285
 30
0.0
 40
0
 41
0
  0
VERTEX
  8
0
 10
8.93674
 20
3.40403
 30
0.0
 40
0
 41
0
  0
VERTEX
  8
0
 10
8.93739
 20
3.52761
 30
0.0
 40
0
 41
0
  0
VERTEX
  8
0
 10
8.93718
 20
3.72976
 30
0.0
 40
0
 41
0
  0
VERTEX
  8
0
 10
8.93576
 20
3.95568
 30
0.0
 40
0
 41
0
  0
VERTEX
  8
0
 10
8.93375
 20
4.19189
 30
0.0
 40
0
 41
0
  0
VERTEX
  8
0
 10
8.93138
 20
4.42486
 30
0.0
 40
0
 41
0
  0
VERTEX
  8
0
 10
8.92919
 20
4.64094
 30
0.0
 40
0
 41
0
  0
VERTEX
  8
0
 10
8.92757
 20
4.82667
 30
0.0
 40
0
 41
0
  0
VERTEX
  8
0
 10
8.92697
 20
4.93294
 30
0.0
 40
0
 41
0
  0
VERTEX
  8
0
 10
8.92697
 20
4.96837
 30
0.0
 40
0
 41
0
  0
VERTEX
  8
0
 10
8.92697
 20
4.97803
 30
0.0
 40
0
 41
0
  0
VERTEX
  8
0
 10
8.92318
 20
5.00689
 30
0.0
 40
0
 41
0
  0
VERTEX
  8
0
 10
8.91249
 20
5.03965
 30
0.0
 40
0
 41
0
  0
VERTEX
  8
0
 10
8.89589
 20
5.06625
 30
0.0
 40
0
 41
0
  0
VERTEX
  8
0
 10
8.8744
 20
5.08637
 30
0.0
 40
0
 41
0
  0
VERTEX
  8
0
 10
8.84901
 20
5.09961
 30
0.0
 40
0
 41
0
  0
VERTEX
  8
0
 10
8.82075
 20
5.10568
 30
0.0
 40
0
 41
0
  0
VERTEX
  8
0
 10
8.79064
 20
5.10422
 30
0.0
 40
0
 41
0
  0
VERTEX
  8
0
 10
8.76699
 20
5.09799
 30
0.0
 40
0
 41
0
  0
VERTEX
  8
0
 10
8.7596
 20
5.09478
 30
0.0
 40
0
 41
0
  0
VERTEX
  8
0
 10
8.7124
 20
5.07438
 30
0.0
 40
0
 41
0
  0
VERTEX
  8
0
 10
8.56722
 20
5.0216
 30
0.0
 40
0
 41
0
  0
VERTEX
  8
0
 10
8.3571
 20
4.9591
 30
0.0
 40
0
 41
0
  0
VERTEX
  8
0
 10
8.13319
 20
4.90636
 30
0.0
 40
0
 41
0
  0
VERTEX
  8
0
 10
7.89968
 20
4.86263
 30
0.0
 40
0
 41
0
  0
VERTEX
  8
0
 10
7.66069
 20
4.82715
 30
0.0
 40
0
 41
0
  0
VERTEX
  8
0
 10
7.42031
 20
4.79899
 30
0.0
 40
0
 41
0
  0
VERTEX
  8
0
 10
7.18261
 20
4.7774
 30
0.0
 40
0
 41
0
  0
VERTEX
  8
0
 10
6.95176
 20
4.76156
 30
0.0
 40
0
 41
0
  0
VERTEX
  8
0
 10
6.73182
 20
4.75065
 30
0.0
 40
0
 41
0
  0
VERTEX
  8
0
 10
6.52696
 20
4.74382
 30
0.0
 40
0
 41
0
  0
VERTEX
  8
0
 10
6.34125
 20
4.74029
 30
0.0
 40
0
 41
0
  0
VERTEX
  8
0
 10
6.17876
 20
4.73926
 30
0.0
 40
0
 41
0
  0
VERTEX
  8
0
 10
6.04368
 20
4.73986
 30
0.0
 40
0
 41
0
  0
VERTEX
  8
0
 10
5.94006
 20
4.74126
 30
0.0
 40
0
 41
0
  0
VERTEX
  8
0
 10
5.87201
 20
4.74274
 30
0.0
 40
0
 41
0
  0
VERTEX
  8
0
 10
5.85081
 20
4.74338
 30
0.0
 40
0
 41
0
  0
VERTEX
  8
0
 10
5.84375
 20
4.74338
 30
0.0
 40
0
 41
0
  0
VERTEX
  8
0
 10
5.84375
 20
4.74338
 30
0.0
 40
0
 41
0
  0
VERTEX
  8
0
 10
5.84125
 20
4.7596
 30
0.0
 40
0
 41
0
  0
VERTEX
  8
0
 10
5.84538
 20
4.80599
 30
0.0
 40
0
 41
0
  0
VERTEX
  8
0
 10
5.85796
 20
4.87397
 30
0.0
 40
0
 41
0
  0
VERTEX
  8
0
 10
5.88097
 20
4.95503
 30
0.0
 40
0
 41
0
  0
VERTEX
  8
0
 10
5.91624
 20
5.04058
 30
0.0
 40
0
 41
0
  0
VERTEX
  8
0
 10
5.9656
 20
5.12207
 30
0.0
 40
0
 41
0
  0
VERTEX
  8
0
 10
6.03103
 20
5.19103
 30
0.0
 40
0
 41
0
  0
VERTEX
  8
0
 10
6.09212
 20
5.23063
 30
0.0
 40
0
 41
0
  0
VERTEX
  8
0
 10
6.11436
 20
5.23882
 30
0.0
 40
0
 41
0
  0
VERTEX
  8
0
 10
6.24875
 20
5.28863
 30
0.0
 40
0
 41
0
  0
VERTEX
  8
0
 10
6.64372
 20
5.46039
 30
0.0
 40
0
 41
0
  0
VERTEX
  8
0
 10
7.13699
 20
5.71724
 30
0.0
 40
0
 41
0
  0
VERTEX
  8
0
 10
7.59369
 20
6.00581
 30
0.0
 40
0
 41
0
  0
VERTEX
  8
0
 10
8.01335
 20
6.32254
 30
0.0
 40
0
 41
0
  0
VERTEX
  8
0
 10
8.39556
 20
6.6639
 30
0.0
 40
0
 41
0
  0
VERTEX
  8
0
 10
8.7399
 20
7.02632
 30
0.0
 40
0
 41
0
  0
VERTEX
  8
0
 10
9.04596
 20
7.40625
 30
0.0
 40
0
 41
0
  0
VERTEX
  8
0
 10
9.31326
 20
7.80013
 30
0.0
 40
0
 41
0
  0
VERTEX
  8
0
 10
9.54135
 20
8.20443
 30
0.0
 40
0
 41
0
  0
VERTEX
  8
0
 10
9.72988
 20
8.61556
 30
0.0
 40
0
 41
0
  0
VERTEX
  8
0
 10
9.87836
 20
9.02994
 30
0.0
 40
0
 41
0
  0
VERTEX
  8
0
 10
9.98639
 20
9.44412
 30
0.0
 40
0
 41
0
  0
VERTEX
  8
0
 10
10.0535
 20
9.85449
 30
0.0
 40
0
 41
0
  0
VERTEX
  8
0
 10
10.0793
 20
10.2574
 30
0.0
 40
0
 41
0
  0
VERTEX
  8
0
 10
10.0633
 20
10.6495
 30
0.0
 40
0
 41
0
  0
VERTEX
  8
0
 10
10.0252
 20
10.9339
 30
0.0
 40
0
 41
0
  0
VERTEX
  8
0
 10
10.0052
 20
11.027
 30
0.0
 40
0
 41
0
  0
VERTEX
  8
0
 10
9.98747
 20
11.1092
 30
0.0
 40
0
 41
0
  0
VERTEX
  8
0
 10
9.92632
 20
11.3538
 30
0.0
 40
0
 41
0
  0
VERTEX
  8
0
 10
9.83404
 20
11.66
 30
0.0
 40
0
 41
0
  0
VERTEX
  8
0
 10
9.72651
 20
11.9469
 30
0.0
 40
0
 41
0
  0
VERTEX
  8
0
 10
9.60221
 20
12.2154
 30
0.0
 40
0
 41
0
  0
VERTEX
  8
0
 10
9.45936
 20
12.4667
 30
0.0
 40
0
 41
0
  0
VERTEX
  8
0
 10
9.29639
 20
12.7019
 30
0.0
 40
0
 41
0
  0
VERTEX
  8
0
 10
9.1116
 20
12.9222
 30
0.0
 40
0
 41
0
  0
VERTEX
  8
0
 10
8.95757
 20
13.0795
 30
0.0
 40
0
 41
0
  0
VERTEX
  8
0
 10
8.90332
 20
13.1286
 30
0.0
 40
0
 41
0
  0
VERTEX
  8
0
 10
8.86111
 20
13.1669
 30
0.0
 40
0
 41
0
  0
VERTEX
  8
0
 10
8.72732
 20
13.2737
 30
0.0
 40
0
 41
0
  0
VERTEX
  8
0
 10
8.53168
 20
13.4077
 30
0.0
 40
0
 41
0
  0
VERTEX
  8
0
 10
8.31939
 20
13.5287
 30
0.0
 40
0
 41
0
  0
VERTEX
  8
0
 10
8.09338
 20
13.634
 30
0.0
 40
0
 41
0
  0
VERTEX
  8
0
 10
7.85672
 20
13.7216
 30
0.0
 40
0
 41
0
  0
VERTEX
  8
0
 10
7.61236
 20
13.789
 30
0.0
 40
0
 41
0
  0
VERTEX
  8
0
 10
7.36339
 20
13.8339
 30
0.0
 40
0
 41
0
  0
VERTEX
  8
0
 10
7.17546
 20
13.8524
 30
0.0
 40
0
 41
0
  0
VERTEX
  8
0
 10
7.11274
 20
13.8541
 30
0.0
 40
0
 41
0
  0
VERTEX
  8
0
 10
7.02094
 20
13.8567
 30
0.0
 40
0
 41
0
  0
VERTEX
  8
0
 10
6.74507
 20
13.8456
 30
0.0
 40
0
 41
0
  0
VERTEX
  8
0
 10
6.40126
 20
13.8025
 30
0.0
 40
0
 41
0
  0
VERTEX
  8
0
 10
6.08561
 20
13.7305
 30
0.0
 40
0
 41
0
  0
VERTEX
  8
0
 10
5.80257
 20
13.6352
 30
0.0
 40
0
 41
0
  0
VERTEX
  8
0
 10
5.55658
 20
13.5225
 30
0.0
 40
0
 41
0
  0
VERTEX
  8
0
 10
5.35211
 20
13.3978
 30
0.0
 40
0
 41
0
  0
VERTEX
  8
0
 10
5.19353
 20
13.2669
 30
0.0
 40
0
 41
0
  0
VERTEX
  8
0
 10
5.10781
 20
13.1713
 30
0.0
 40
0
 41
0
  0
VERTEX
  8
0
 10
5.08535
 20
13.1355
 30
0.0
 40
0
 41
0
  0
VERTEX
  8
0
 10
5.08251
 20
13.1311
 30
0.0
 40
0
 41
0
  0
VERTEX
  8
0
 10
5.06353
 20
13.1143
 30
0.0
 40
0
 41
0
  0
VERTEX
  8
0
 10
5.04167
 20
13.1064
 30
0.0
 40
0
 41
0
  0
VERTEX
  8
0
 10
5.0344
 20
13.1064
 30
0.0
 40
0
 41
0
  0
VERTEX
  8
0
 10
5.0344
 20
13.1064
 30
0.0
 40
0
 41
0
  0
SEQEND
 8
0
  0
POLYLINE
  8
0
 62
     40
 66
     1
 10
0
 20
0
 30
0.0
 70
     1
 40
1
 41
1
  0
VERTEX
  8
0
 10
5.01129
 20
6.39258
 30
0.0
 40
0.0138889
 41
0.0138889
  0
VERTEX
  8
0
 10
4.97342
 20
6.39854
 30
0.0
 40
0.0138889
 41
0.0138889
  0
VERTEX
  8
0
 10
4.86083
 20
6.4221
 30
0.0
 40
0.0138889
 41
0.0138889
  0
VERTEX
  8
0
 10
4.70594
 20
6.46371
 30
0.0
 40
0.0138889
 41
0.0138889
  0
VERTEX
  8
0
 10
4.54731
 20
6.51699
 30
0.0
 40
0.0138889
 41
0.0138889
  0
VERTEX
  8
0
 10
4.38564
 20
6.58143
 30
0.0
 40
0.0138889
 41
0.0138889
  0
VERTEX
  8
0
 10
4.22174
 20
6.65663
 30
0.0
 40
0.0138889
 41
0.0138889
  0
VERTEX
  8
0
 10
4.05632
 20
6.74203
 30
0.0
 40
0.0138889
 41
0.0138889
  0
VERTEX
  8
0
 10
3.89008
 20
6.83724
 30
0.0
 40
0.0138889
 41
0.0138889
  0
VERTEX
  8
0
 10
3.72379
 20
6.94174
 30
0.0
 40
0.0138889
 41
0.0138889
  0
VERTEX
  8
0
 10
3.55821
 20
7.05512
 30
0.0
 40
0.0138889
 41
0.0138889
  0
VERTEX
  8
0
 10
3.39404
 20
7.17681
 30
0.0
 40
0.0138889
 41
0.0138889
  0
VERTEX
  8
0
 10
3.23199
 20
7.30647
 30
0.0
 40
0.0138889
 41
0.0138889
  0
VERTEX
  8
0
 10
3.07281
 20
7.44358
 30
0.0
 40
0.0138889
 41
0.0138889
  0
VERTEX
  8
0
 10
2.91732
 20
7.58763
 30
0.0
 40
0.0138889
 41
0.0138889
  0
VERTEX
  8
0
 10
2.76611
 20
7.73817
 30
0.0
 40
0.0138889
 41
0.0138889
  0
VERTEX
  8
0
 10
2.62001
 20
7.89481
 30
0.0
 40
0.0138889
 41
0.0138889
  0
VERTEX
  8
0
 10
2.47976
 20
8.05697
 30
0.0
 40
0.0138889
 41
0.0138889
  0
VERTEX
  8
0
 10
2.34603
 20
8.22428
 30
0.0
 40
0.0138889
 41
0.0138889
  0
VERTEX
  8
0
 10
2.21963
 20
8.39615
 30
0.0
 40
0.0138889
 41
0.0138889
  0
VERTEX
  8
0
 10
2.10124
 20
8.57226
 30
0.0
 40
0.0138889
 41
0.0138889
  0
VERTEX
  8
0
 10
1.9916
 20
8.75206
 30
0.0
 40
0.0138889
 41
0.0138889
  0
VERTEX
  8
0
 10
1.8915
 20
8.93506
 30
0.0
 40
0.0138889
 41
0.0138889
  0
VERTEX
  8
0
 10
1.8016
 20
9.12082
 30
0.0
 40
0.0138889
 41
0.0138889
  0
VERTEX
  8
0
 10
1.72265
 20
9.30892
 30
0.0
 40
0.0138889
 41
0.0138889
  0
VERTEX
  8
0
 10
1.65543
 20
9.49881
 30
0.0
 40
0.0138889
 41
0.0138889
  0
VERTEX
  8
0
 10
1.60069
 20
9.69011
 30
0.0
 40
0.0138889
 41
0.0138889
  0
VERTEX
  8
0
 10
1.55908
 20
9.88226
 30
0.0
 40
0.0138889
 41
0.0138889
  0
VERTEX
  8
0
 10
1.53142
 20
10.0748
 30
0.0
 40
0.0138889
 41
0.0138889
  0
VERTEX
  8
0
 10
1.51839
 20
10.2674
 30
0.0
 40
0.0138889
 41
0.0138889
  0
VERTEX
  8
0
 10
1.52072
 20
10.4594
 30
0.0
 40
0.0138889
 41
0.0138889
  0
VERTEX
  8
0
 10
1.53917
 20
10.6504
 30
0.0
 40
0.0138889
 41
0.0138889
  0
VERTEX
  8
0
 10
1.57449
 20
10.8401
 30
0.0
 40
0.0138889
 41
0.0138889
  0
VERTEX
  8
0
 10
1.61208
 20
10.9816
 30
0.0
 40
0.0138889
 41
0.0138889
  0
VERTEX
  8
0
 10
1.62744
 20
11.0277
 30
0.0
 40
0.0138889
 41
0.0138889
  0
VERTEX
  8
0
 10
1.64507
 20
11.0809
 30
0.0
 40
0.0138889
 41
0.0138889
  0
VERTEX
  8
0
 10
1.71044
 20
11.2362
 30
0.0
 40
0.0138889
 41
0.0138889
  0
VERTEX
  8
0
 10
1.81782
 20
11.4361
 30
0.0
 40
0.0138889
 41
0.0138889
  0
VERTEX
  8
0
 10
1.94754
 20
11.6247
 30
0.0
 40
0.0138889
 41
0.0138889
  0
VERTEX
  8
0
 10
2.09765
 20
11.7989
 30
0.0
 40
0.0138889
 41
0.0138889
  0
VERTEX
  8
0
 10
2.26628
 20
11.9556
 30
0.0
 40
0.0138889
 41
0.0138889
  0
VERTEX
  8
0
 10
2.45139
 20
12.0918
 30
0.0
 40
0.0138889
 41
0.0138889
  0
VERTEX
  8
0
 10
2.6511
 20
12.2045
 30
0.0
 40
0.0138889
 41
0.0138889
  0
VERTEX
  8
0
 10
2.86339
 20
12.2908
 30
0.0
 40
0.0138889
 41
0.0138889
  0
VERTEX
  8
0
 10
3.08637
 20
12.3475
 30
0.0
 40
0.0138889
 41
0.0138889
  0
VERTEX
  8
0
 10
3.31803
 20
12.3716
 30
0.0
 40
0.0138889
 41
0.0138889
  0
VERTEX
  8
0
 10
3.55647
 20
12.3602
 30
0.0
 40
0.0138889
 41
0.0138889
  0
VERTEX
  8
0
 10
3.79969
 20
12.3102
 30
0.0
 40
0.0138889
 41
0.0138889
  0
VERTEX
  8
0
 10
4.04579
 20
12.2186
 30
0.0
 40
0.0138889
 41
0.0138889
  0
VERTEX
  8
0
 10
4.29281
 20
12.0824
 30
0.0
 40
0.0138889
 41
0.0138889
  0
VERTEX
  8
0
 10
4.53874
 20
11.8985
 30
0.0
 40
0.0138889
 41
0.0138889
  0
VERTEX
  8
0
 10
4.72456
 20
11.7259
 30
0.0
 40
0.0138889
 41
0.0138889
  0
VERTEX
  8
0
 10
4.78174
 20
11.664
 30
0.0
 40
0.0138889
 41
0.0138889
  0
VERTEX
  8
0
 10
4.79736
 20
11.647
 30
0.0
 40
0.0138889
 41
0.0138889
  0
VERTEX
  8
0
 10
4.84879
 20
11.6002
 30
0.0
 40
0.0138889
 41
0.0138889
  0
VERTEX
  8
0
 10
4.90836
 20
11.5597
 30
0.0
 40
0.0138889
 41
0.0138889
  0
VERTEX
  8
0
 10
4.96089
 20
11.5384
 30
0.0
 40
0.0138889
 41
0.0138889
  0
VERTEX
  8
0
 10
4.99511
 20
11.5323
 30
0.0
 40
0.0138889
 41
0.0138889
  0
VERTEX
  8
0
 10
5.00657
 20
11.5323
 30
0.0
 40
0.0138889
 41
0.0138889
  0
VERTEX
  8
0
 10
5.02447
 20
11.5323
 30
0.0
 40
0.0138889
 41
0.0138889
  0
VERTEX
  8
0
 10
5.03228
 20
11.5323
 30
0.0
 40
0.0138889
 41
0.0138889
  0
VERTEX
  8
0
 10
5.05013
 20
11.5323
 30
0.0
 40
0.0138889
 41
0.0138889
  0
VERTEX
  8
0
 10
5.06153
 20
11.5323
 30
0.0
 40
0.0138889
 41
0.0138889
  0
VERTEX
  8
0
 10
5.09581
 20
11.5384
 30
0.0
 40
0.0138889
 41
0.0138889
  0
VERTEX
  8
0
 10
5.14828
 20
11.5597
 30
0.0
 40
0.0138889
 41
0.0138889
  0
VERTEX
  8
0
 10
5.2079
 20
11.6002
 30
0.0
 40
0.0138889
 41
0.0138889
  0
VERTEX
  8
0
 10
5.25933
 20
11.647
 30
0.0
 40
0.0138889
 41
0.0138889
  0
VERTEX
  8
0
 10
5.27501
 20
11.664
 30
0.0
 40
0.0138889
 41
0.0138889
  0
VERTEX
  8
0
 10
5.33214
 20
11.7259
 30
0.0
 40
0.0138889
 41
0.0138889
  0
VERTEX
  8
0
 10
5.51796
 20
11.8985
 30
0.0
 40
0.0138889
 41
0.0138889
  0
VERTEX
  8
0
 10
5.76389
 20
12.0824
 30
0.0
 40
0.0138889
 41
0.0138889
  0
VERTEX
  8
0
 10
6.0109
 20
12.2186
 30
0.0
 40
0.0138889
 41
0.0138889
  0
VERTEX
  8
0
 10
6.25694
 20
12.3102
 30
0.0
 40
0.0138889
 41
0.0138889
  0
VERTEX
  8
0
 10
6.50022
 20
12.3602
 30
0.0
 40
0.0138889
 41
0.0138889
  0
VERTEX
  8
0
 10
6.73861
 20
12.3716
 30
0.0
 40
0.0138889
 41
0.0138889
  0
VERTEX
  8
0
 10
6.97032
 20
12.3475
 30
0.0
 40
0.0138889
 41
0.0138889
  0
VERTEX
  8
0
 10
7.19325
 20
12.2908
 30
0.0
 40
0.0138889
 41
0.0138889
  0
VERTEX
  8
0
 10
7.40554
 20
12.2045
 30
0.0
 40
0.0138889
 41
0.0138889
  0
VERTEX
  8
0
 10
7.60525
 20
12.0918
 30
0.0
 40
0.0138889
 41
0.0138889
  0
VERTEX
  8
0
 10
7.79036
 20
11.9556
 30
0.0
 40
0.0138889
 41
0.0138889
  0
VERTEX
  8
0
 10
7.95899
 20
11.7989
 30
0.0
 40
0.0138889
 41
0.0138889
  0
VERTEX
  8
0
 10
8.1091
 20
11.6247
 30
0.0
 40
0.0138889
 41
0.0138889
  0
VERTEX
  8
0
 10
8.23887
 20
11.4361
 30
0.0
 40
0.0138889
 41
0.0138889
  0
VERTEX
  8
0
 10
8.34625
 20
11.2362
 30
0.0
 40
0.0138889
 41
0.0138889
  0
VERTEX
  8
0
 10
8.41168
 20
11.0809
 30
0.0
 40
0.0138889
 41
0.0138889
  0
VERTEX
  8
0
 10
8.42931
 20
11.0277
 30
0.0
 40
0.0138889
 41
0.0138889
  0
VERTEX
  8
0
 10
8.44461
 20
10.9816
 30
0.0
 40
0.0138889
 41
0.0138889
  0
VERTEX
  8
0
 10
8.48221
 20
10.8401
 30
0.0
 40
0.0138889
 41
0.0138889
  0
VERTEX
  8
0
 10
8.51747
 20
10.6504
 30
0.0
 40
0.0138889
 41
0.0138889
  0
VERTEX
  8
0
 10
8.53597
 20
10.4594
 30
0.0
 40
0.0138889
 41
0.0138889
  0
VERTEX
  8
0
 10
8.53831
 20
10.2674
 30
0.0
 40
0.0138889
 41
0.0138889
  0
VERTEX
  8
0
 10
8.52528
 20
10.0748
 30
0.0
 40
0.0138889
 41
0.0138889
  0
VERTEX
  8
0
 10
8.49756
 20
9.88226
 30
0.0
 40
0.0138889
 41
0.0138889
  0
VERTEX
  8
0
 10
8.456
 20
9.69011
 30
0.0
 40
0.0138889
 41
0.0138889
  0
VERTEX
  8
0
 10
8.40121
 20
9.49881
 30
0.0
 40
0.0138889
 41
0.0138889
  0
VERTEX
  8
0
 10
8.33399
 20
9.30892
 30
0.0
 40
0.0138889
 41
0.0138889
  0
VERTEX
  8
0
 10
8.2551
 20
9.12082
 30
0.0
 40
0.0138889
 41
0.0138889
  0
VERTEX
  8
0
 10
8.16521
 20
8.93506
 30
0.0
 40
0.0138889
 41
0.0138889
  0
VERTEX
  8
0
 10
8.06511
 20
8.75206
 30
0.0
 40
0.0138889
 41
0.0138889
  0
VERTEX
  8
0
 10
7.95546
 20
8.57226
 30
0.0
 40
0.0138889
 41
0.0138889
  0
VERTEX
  8
0
 10
7.83708
 20
8.39615
 30
0.0
 40
0.0138889
 41
0.0138889
  0
VERTEX
  8
0
 10
7.71067
 20
8.22428
 30
0.0
 40
0.0138889
 41
0.0138889
  0
VERTEX
  8
0
 10
7.57693
 20
8.05697
 30
0.0
 40
0.0138889
 41
0.0138889
  0
VERTEX
  8
0
 10
7.43668
 20
7.89481
 30
0.0
 40
0.0138889
 41
0.0138889
  0
VERTEX
  8
0
 10
7.29058
 20
7.73817
 30
0.0
 40
0.0138889
 41
0.0138889
  0
VERTEX
  8
0
 10
7.13937
 20
7.58763
 30
0.0
 40
0.0138889
 41
0.0138889
  0
VERTEX
  8
0
 10
6.98383
 20
7.44358
 30
0.0
 40
0.0138889
 41
0.0138889
  0
VERTEX
  8
0
 10
6.82471
 20
7.30647
 30
0.0
 40
0.0138889
 41
0.0138889
  0
VERTEX
  8
0
 10
6.66265
 20
7.17681
 30
0.0
 40
0.0138889
 41
0.0138889
  0
VERTEX
  8
0
 10
6.49849
 20
7.05512
 30
0.0
 40
0.0138889
 41
0.0138889
  0
VERTEX
  8
0
 10
6.33285
 20
6.94174
 30
0.0
 40
0.0138889
 41
0.0138889
  0
VERTEX
  8
0
 10
6.16661
 20
6.83724
 30
0.0
 40
0.0138889
 41
0.0138889
  0
VERTEX
  8
0
 10
6.00038
 20
6.74203
 30
0.0
 40
0.0138889
 41
0.0138889
  0
VERTEX
  8
0
 10
5.83496
 20
6.65663
 30
0.0
 40
0.0138889
 41
0.0138889
  0
VERTEX
  8
0
 10
5.67106
 20
6.58143
 30
0.0
 40
0.0138889
 41
0.0138889
  0
VERTEX
  8
0
 10
5.50939
 20
6.51699
 30
0.0
 40
0.0138889
 41
0.0138889
  0
VERTEX
  8
0
 10
5.35075
 20
6.46371
 30
0.0
 40
0.0138889
 41
0.0138889
  0
VERTEX
  8
0
 10
5.19586
 20
6.4221
 30
0.0
 40
0.0138889
 41
0.0138889
  0
VERTEX
  8
0
 10
5.08328
 20
6.39854
 30
0.0
 40
0.0138889
 41
0.0138889
  0
VERTEX
  8
0
 10
5.04546
 20
6.39258
 30
0.0
 40
0.0138889
 41
0.0138889
  0
VERTEX
  8
0
 10
5.03
 20
6.39133
 30
0.0
 40
0.0138889
 41
0.0138889
  0
VERTEX
  8
0
 10
5.01129
 20
6.39258
 30
0.0
 40
0.0138889
 41
0.0138889
  0
SEQEND
 8
0
  0
POLYLINE
  8
0
 62
     40
 66
     1
 10
0
 20
0
 30
0.0
 40
1
 41
1
  0
VERTEX
  8
0
 10
5.05214
 20
13.1064
 30
0.0
 40
0.0138889
 41
0.0138889
  0
VERTEX
  8
0
 10
5.05214
 20
13.1064
 30
0.0
 40
0.0138889
 41
0.0138889
  0
VERTEX
  8
0
 10
5.04482
 20
13.1064
 30
0.0
 40
0.0138889
 41
0.0138889
  0
VERTEX
  8
0
 10
5.02294
 20
13.1143
 30
0.0
 40
0.0138889
 41
0.0138889
  0
VERTEX
  8
0
 10
5.00396
 20
13.1311
 30
0.0
 40
0.0138889
 41
0.0138889
  0
VERTEX
  8
0
 10
5.00119
 20
13.1355
 30
0.0
 40
0.0138889
 41
0.0138889
  0
VERTEX
  8
0
 10
4.97874
 20
13.1713
 30
0.0
 40
0.0138889
 41
0.0138889
  0
VERTEX
  8
0
 10
4.89296
 20
13.2669
 30
0.0
 40
0.0138889
 41
0.0138889
  0
VERTEX
  8
0
 10
4.73438
 20
13.3978
 30
0.0
 40
0.0138889
 41
0.0138889
  0
VERTEX
  8
0
 10
4.52989
 20
13.5225
 30
0.0
 40
0.0138889
 41
0.0138889
  0
VERTEX
  8
0
 10
4.28396
 20
13.6352
 30
0.0
 40
0.0138889
 41
0.0138889
  0
VERTEX
  8
0
 10
4.00092
 20
13.7305
 30
0.0
 40
0.0138889
 41
0.0138889
  0
VERTEX
  8
0
 10
3.68528
 20
13.8025
 30
0.0
 40
0.0138889
 41
0.0138889
  0
VERTEX
  8
0
 10
3.34142
 20
13.8456
 30
0.0
 40
0.0138889
 41
0.0138889
  0
VERTEX
  8
0
 10
3.0656
 20
13.8567
 30
0.0
 40
0.0138889
 41
0.0138889
  0
VERTEX
  8
0
 10
2.97385
 20
13.8541
 30
0.0
 40
0.0138889
 41
0.0138889
  0
VERTEX
  8
0
 10
2.91108
 20
13.8524
 30
0.0
 40
0.0138889
 41
0.0138889
  0
VERTEX
  8
0
 10
2.72314
 20
13.8339
 30
0.0
 40
0.0138889
 41
0.0138889
  0
VERTEX
  8
0
 10
2.47412
 20
13.789
 30
0.0
 40
0.0138889
 41
0.0138889
  0
VERTEX
  8
0
 10
2.22982
 20
13.7216
 30
0.0
 40
0.0138889
 41
0.0138889
  0
VERTEX
  8
0
 10
1.99317
 20
13.634
 30
0.0
 40
0.0138889
 41
0.0138889
  0
VERTEX
  8
0
 10
1.76714
 20
13.5287
 30
0.0
 40
0.0138889
 41
0.0138889
  0
VERTEX
  8
0
 10
1.55479
 20
13.4077
 30
0.0
 40
0.0138889
 41
0.0138889
  0
VERTEX
  8
0
 10
1.35916
 20
13.2737
 30
0.0
 40
0.0138889
 41
0.0138889
  0
VERTEX
  8
0
 10
1.22537
 20
13.1669
 30
0.0
 40
0.0138889
 41
0.0138889
  0
VERTEX
  8
0
 10
1.18321
 20
13.1286
 30
0.0
 40
0.0138889
 41
0.0138889
  0
VERTEX
  8
0
 10
1.12891
 20
13.0795
 30
0.0
 40
0.0138889
 41
0.0138889
  0
VERTEX
  8
0
 10
0.974935
 20
12.9222
 30
0.0
 40
0.0138889
 41
0.0138889
  0
VERTEX
  8
0
 10
0.790093
 20
12.7019
 30
0.0
 40
0.0138889
 41
0.0138889
  0
VERTEX
  8
0
 10
0.627115
 20
12.4667
 30
0.0
 40
0.0138889
 41
0.0138889
  0
VERTEX
  8
0
 10
0.484321
 20
12.2154
 30
0.0
 40
0.0138889
 41
0.0138889
  0
VERTEX
  8
0
 10
0.359972
 20
11.9469
 30
0.0
 40
0.0138889
 41
0.0138889
  0
VERTEX
  8
0
 10
0.252496
 20
11.66
 30
0.0
 40
0.0138889
 41
0.0138889
  0
VERTEX
  8
0
 10
0.160157
 20
11.3538
 30
0.0
 40
0.0138889
 41
0.0138889
  0
VERTEX
  8
0
 10
0.0990126
 20
11.1092
 30
0.0
 40
0.0138889
 41
0.0138889
  0
VERTEX
  8
0
 10
0.0813803
 20
11.027
 30
0.0
 40
0.0138889
 41
0.0138889
  0
VERTEX
  8
0
 10
0.0613064
 20
10.9339
 30
0.0
 40
0.0138889
 41
0.0138889
  0
VERTEX
  8
0
 10
0.0231662
 20
10.6495
 30
0.0
 40
0.0138889
 41
0.0138889
  0
VERTEX
  8
0
 10
0.00721571
 20
10.2574
 30
0.0
 40
0.0138889
 41
0.0138889
  0
VERTEX
  8
0
 10
0.0329861
 20
9.85449
 30
0.0
 40
0.0138889
 41
0.0138889
  0
VERTEX
  8
0
 10
0.100098
 20
9.44412
 30
0.0
 40
0.0138889
 41
0.0138889
  0
VERTEX
  8
0
 10
0.208117
 20
9.02994
 30
0.0
 40
0.0138889
 41
0.0138889
  0
VERTEX
  8
0
 10
0.356608
 20
8.61556
 30
0.0
 40
0.0138889
 41
0.0138889
  0
VERTEX
  8
0
 10
0.545139
 20
8.20443
 30
0.0
 40
0.0138889
 41
0.0138889
  0
VERTEX
  8
0
 10
0.773275
 20
7.80013
 30
0.0
 40
0.0138889
 41
0.0138889
  0
VERTEX
  8
0
 10
1.04053
 20
7.40625
 30
0.0
 40
0.0138889
 41
0.0138889
  0
VERTEX
  8
0
 10
1.34657
 20
7.02632
 30
0.0
 40
0.0138889
 41
0.0138889
  0
VERTEX
  8
0
 10
1.69092
 20
6.6639
 30
0.0
 40
0.0138889
 41
0.0138889
  0
VERTEX
  8
0
 10
2.07314
 20
6.32254
 30
0.0
 40
0.0138889
 41
0.0138889
  0
VERTEX
  8
0
 10
2.49278
 20
6.00581
 30
0.0
 40
0.0138889
 41
0.0138889
  0
VERTEX
  8
0
 10
2.94949
 20
5.71724
 30
0.0
 40
0.0138889
 41
0.0138889
  0
VERTEX
  8
0
 10
3.44276
 20
5.46039
 30
0.0
 40
0.0138889
 41
0.0138889
  0
VERTEX
  8
0
 10
3.83772
 20
5.28863
 30
0.0
 40
0.0138889
 41
0.0138889
  0
VERTEX
  8
0
 10
3.97217
 20
5.23882
 30
0.0
 40
0.0138889
 41
0.0138889
  0
VERTEX
  8
0
 10
3.99436
 20
5.23063
 30
0.0
 40
0.0138889
 41
0.0138889
  0
VERTEX
  8
0
 10
4.05544
 20
5.19103
 30
0.0
 40
0.0138889
 41
0.0138889
  0
VERTEX
  8
0
 10
4.12088
 20
5.12207
 30
0.0
 40
0.0138889
 41
0.0138889
  0
VERTEX
  8
0
 10
4.17025
 20
5.04058
 30
0.0
 40
0.0138889
 41
0.0138889
  0
VERTEX
  8
0
 10
4.20551
 20
4.95503
 30
0.0
 40
0.0138889
 41
0.0138889
  0
VERTEX
  8
0
 10
4.22851
 20
4.87397
 30
0.0
 40
0.0138889
 41
0.0138889
  0
VERTEX
  8
0
 10
4.24115
 20
4.80599
 30
0.0
 40
0.0138889
 41
0.0138889
  0
VERTEX
  8
0
 10
4.24528
 20
4.7596
 30
0.0
 40
0.0138889
 41
0.0138889
  0
VERTEX
  8
0
 10
4.24283
 20
4.74338
 30
0.0
 40
0.0138889
 41
0.0138889
  0
VERTEX
  8
0
 10
4.24283
 20
4.74338
 30
0.0
 40
0.0138889
 41
0.0138889
  0
VERTEX
  8
0
 10
4.23574
 20
4.74338
 30
0.0
 40
0.0138889
 41
0.0138889
  0
VERTEX
  8
0
 10
4.21451
 20
4.74274
 30
0.0
 40
0.0138889
 41
0.0138889
  0
VERTEX
  8
0
 10
4.14649
 20
4.74126
 30
0.0
 40
0.0138889
 41
0.0138889
  0
VERTEX
  8
0
 10
4.04286
 20
4.73986
 30
0.0
 40
0.0138889
 41
0.0138889
  0
VERTEX
  8
0
 10
3.90776
 20
4.73926
 30
0.0
 40
0.0138889
 41
0.0138889
  0
VERTEX
  8
0
 10
3.74528
 20
4.74029
 30
0.0
 40
0.0138889
 41
0.0138889
  0
VERTEX
  8
0
 10
3.55957
 20
4.74382
 30
0.0
 40
0.0138889
 41
0.0138889
  0
VERTEX
  8
0
 10
3.35471
 20
4.75065
 30
0.0
 40
0.0138889
 41
0.0138889
  0
VERTEX
  8
0
 10
3.13476
 20
4.76156
 30
0.0
 40
0.0138889
 41
0.0138889
  0
VERTEX
  8
0
 10
2.90392
 20
4.7774
 30
0.0
 40
0.0138889
 41
0.0138889
  0
VERTEX
  8
0
 10
2.66624
 20
4.79899
 30
0.0
 40
0.0138889
 41
0.0138889
  0
VERTEX
  8
0
 10
2.42583
 20
4.82715
 30
0.0
 40
0.0138889
 41
0.0138889
  0
VERTEX
  8
0
 10
2.18679
 20
4.86263
 30
0.0
 40
0.0138889
 41
0.0138889
  0
VERTEX
  8
0
 10
1.95329
 20
4.90636
 30
0.0
 40
0.0138889
 41
0.0138889
  0
VERTEX
  8
0
 10
1.72944
 20
4.9591
 30
0.0
 40
0.0138889
 41
0.0138889
  0
VERTEX
  8
0
 10
1.51926
 20
5.0216
 30
0.0
 40
0.0138889
 41
0.0138889
  0
VERTEX
  8
0
 10
1.37408
 20
5.07438
 30
0.0
 40
0.0138889
 41
0.0138889
  0
VERTEX
  8
0
 10
1.32693
 20
5.09478
 30
0.0
 40
0.0138889
 41
0.0138889
  0
VERTEX
  8
0
 10
1.3195
 20
5.09799
 30
0.0
 40
0.0138889
 41
0.0138889
  0
VERTEX
  8
0
 10
1.29584
 20
5.10422
 30
0.0
 40
0.0138889
 41
0.0138889
  0
VERTEX
  8
0
 10
1.26573
 20
5.10568
 30
0.0
 40
0.0138889
 41
0.0138889
  0
VERTEX
  8
0
 10
1.23747
 20
5.09961
 30
0.0
 40
0.0138889
 41
0.0138889
  0
VERTEX
  8
0
 10
1.21208
 20
5.08637
 30
0.0
 40
0.0138889
 41
0.0138889
  0
VERTEX
  8
0
 10
1.19065
 20
5.06625
 30
0.0
 40
0.0138889
 41
0.0138889
  0
VERTEX
  8
0
 10
1.17405
 20
5.03965
 30
0.0
 40
0.0138889
 41
0.0138889
  0
VERTEX
  8
0
 10
1.16336
 20
5.00689
 30
0.0
 40
0.0138889
 41
0.0138889
  0
VERTEX
  8
0
 10
1.15961
 20
4.97803
 30
0.0
 40
0.0138889
 41
0.0138889
  0
VERTEX
  8
0
 10
1.15961
 20
4.96837
 30
0.0
 40
0.0138889
 41
0.0138889
  0
VERTEX
  8
0
 10
1.15961
 20
4.93294
 30
0.0
 40
0.0138889
 41
0.0138889
  0
VERTEX
  8
0
 10
1.15896
 20
4.82667
 30
0.0
 40
0.0138889
 41
0.0138889
  0
VERTEX
  8
0
 10
1.15733
 20
4.64094
 30
0.0
 40
0.0138889
 41
0.0138889
  0
VERTEX
  8
0
 10
1.15511
 20
4.42486
 30
0.0
 40
0.0138889
 41
0.0138889
  0
VERTEX
  8
0
 10
1.15278
 20
4.19189
 30
0.0
 40
0.0138889
 41
0.0138889
  0
VERTEX
  8
0
 10
1.15072
 20
3.95568
 30
0.0
 40
0.0138889
 41
0.0138889
  0
VERTEX
  8
0
 10
1.14936
 20
3.72976
 30
0.0
 40
0.0138889
 41
0.0138889
  0
VERTEX
  8
0
 10
1.14909
 20
3.52761
 30
0.0
 40
0.0138889
 41
0.0138889
  0
VERTEX
  8
0
 10
1.14979
 20
3.40403
 30
0.0
 40
0.0138889
 41
0.0138889
  0
VERTEX
  8
0
 10
1.15044
 20
3.36285
 30
0.0
 40
0.0138889
 41
0.0138889
  0
VERTEX
  8
0
 10
1.15066
 20
3.3481
 30
0.0
 40
0.0138889
 41
0.0138889
  0
VERTEX
  8
0
 10
1.15489
 20
3.30382
 30
0.0
 40
0.0138889
 41
0.0138889
  0
VERTEX
  8
0
 10
1.16607
 20
3.25917
 30
0.0
 40
0.0138889
 41
0.0138889
  0
VERTEX
  8
0
 10
1.18365
 20
3.22385
 30
0.0
 40
0.0138889
 41
0.0138889
  0
VERTEX
  8
0
 10
1.20106
 20
3.20014
 30
0.0
 40
0.0138889
 41
0.0138889
  0
VERTEX
  8
0
 10
1.20752
 20
3.19276
 30
0.0
 40
0.0138889
 41
0.0138889
  0
VERTEX
  8
0
 10
1.20991
 20
3.19
 30
0.0
 40
0.0138889
 41
0.0138889
  0
VERTEX
  8
0
 10
1.23899
 20
3.16792
 30
0.0
 40
0.0138889
 41
0.0138889
  0
VERTEX
  8
0
 10
1.24235
 20
3.16639
 30
0.0
 40
0.0138889
 41
0.0138889
  0
VERTEX
  8
0
 10
1.2481
 20
3.16379
 30
0.0
 40
0.0138889
 41
0.0138889
  0
VERTEX
  8
0
 10
1.26638
 20
3.1581
 30
0.0
 40
0.0138889
 41
0.0138889
  0
VERTEX
  8
0
 10
1.29867
 20
3.15315
 30
0.0
 40
0.0138889
 41
0.0138889
  0
VERTEX
  8
0
 10
1.33941
 20
3.15474
 30
0.0
 40
0.0138889
 41
0.0138889
  0
VERTEX
  8
0
 10
1.37684
 20
3.16194
 30
0.0
 40
0.0138889
 41
0.0138889
  0
VERTEX
  8
0
 10
1.38894
 20
3.16564
 30
0.0
 40
0.0138889
 41
0.0138889
  0
VERTEX
  8
0
 10
1.45144
 20
3.1849
 30
0.0
 40
0.0138889
 41
0.0138889
  0
VERTEX
  8
0
 10
1.6404
 20
3.23801
 30
0.0
 40
0.0138889
 41
0.0138889
  0
VERTEX
  8
0
 10
1.89356
 20
3.30171
 30
0.0
 40
0.0138889
 41
0.0138889
  0
VERTEX
  8
0
 10
2.14594
 20
3.35732
 30
0.0
 40
0.0138889
 41
0.0138889
  0
VERTEX
  8
0
 10
2.39501
 20
3.40539
 30
0.0
 40
0.0138889
 41
0.0138889
  0
VERTEX
  8
0
 10
2.63846
 20
3.4464
 30
0.0
 40
0.0138889
 41
0.0138889
  0
VERTEX
  8
0
 10
2.87364
 20
3.48101
 30
0.0
 40
0.0138889
 41
0.0138889
  0
VERTEX
  8
0
 10
3.09819
 20
3.50971
 30
0.0
 40
0.0138889
 41
0.0138889
  0
VERTEX
  8
0
 10
3.30957
 20
3.5331
 30
0.0
 40
0.0138889
 41
0.0138889
  0
VERTEX
  8
0
 10
3.50537
 20
3.5516
 30
0.0
 40
0.0138889
 41
0.0138889
  0
VERTEX
  8
0
 10
3.68306
 20
3.56592
 30
0.0
 40
0.0138889
 41
0.0138889
  0
VERTEX
  8
0
 10
3.84017
 20
3.5765
 30
0.0
 40
0.0138889
 41
0.0138889
  0
VERTEX
  8
0
 10
3.97428
 20
3.58393
 30
0.0
 40
0.0138889
 41
0.0138889
  0
VERTEX
  8
0
 10
4.0829
 20
3.58876
 30
0.0
 40
0.0138889
 41
0.0138889
  0
VERTEX
  8
0
 10
4.16357
 20
3.59153
 30
0.0
 40
0.0138889
 41
0.0138889
  0
VERTEX
  8
0
 10
4.21376
 20
3.59278
 30
0.0
 40
0.0138889
 41
0.0138889
  0
VERTEX
  8
0
 10
4.23107
 20
3.59304
 30
0.0
 40
0.0138889
 41
0.0138889
  0
VERTEX
  8
0
 10
4.23107
 20
3.59304
 30
0.0
 40
0.0138889
 41
0.0138889
  0
VERTEX
  8
0
 10
4.23551
 20
3.59343
 30
0.0
 40
0.0138889
 41
0.0138889
  0
VERTEX
  8
0
 10
4.24929
 20
3.59056
 30
0.0
 40
0.0138889
 41
0.0138889
  0
VERTEX
  8
0
 10
4.26426
 20
3.58111
 30
0.0
 40
0.0138889
 41
0.0138889
  0
VERTEX
  8
0
 10
4.27414
 20
3.56646
 30
0.0
 40
0.0138889
 41
0.0138889
  0
VERTEX
  8
0
 10
4.27735
 20
3.55274
 30
0.0
 40
0.0138889
 41
0.0138889
  0
VERTEX
  8
0
 10
4.27713
 20
3.54824
 30
0.0
 40
0.0138889
 41
0.0138889
  0
VERTEX
  8
0
 10
4.27604
 20
3.5281
 30
0.0
 40
0.0138889
 41
0.0138889
  0
VERTEX
  8
0
 10
4.27533
 20
3.46739
 30
0.0
 40
0.0138889
 41
0.0138889
  0
VERTEX
  8
0
 10
4.27632
 20
3.36231
 30
0.0
 40
0.0138889
 41
0.0138889
  0
VERTEX
  8
0
 10
4.27849
 20
3.23475
 30
0.0
 40
0.0138889
 41
0.0138889
  0
VERTEX
  8
0
 10
4.28028
 20
3.08632
 30
0.0
 40
0.0138889
 41
0.0138889
  0
VERTEX
  8
0
 10
4.28017
 20
2.91863
 30
0.0
 40
0.0138889
 41
0.0138889
  0
VERTEX
  8
0
 10
4.27658
 20
2.73329
 30
0.0
 40
0.0138889
 41
0.0138889
  0
VERTEX
  8
0
 10
4.26796
 20
2.53207
 30
0.0
 40
0.0138889
 41
0.0138889
  0
VERTEX
  8
0
 10
4.25276
 20
2.31651
 30
0.0
 40
0.0138889
 41
0.0138889
  0
VERTEX
  8
0
 10
4.22944
 20
2.08826
 30
0.0
 40
0.0138889
 41
0.0138889
  0
VERTEX
  8
0
 10
4.1964
 20
1.84901
 30
0.0
 40
0.0138889
 41
0.0138889
  0
VERTEX
  8
0
 10
4.15213
 20
1.60037
 30
0.0
 40
0.0138889
 41
0.0138889
  0
VERTEX
  8
0
 10
4.09506
 20
1.34402
 30
0.0
 40
0.0138889
 41
0.0138889
  0
VERTEX
  8
0
 10
4.0236
 20
1.08154
 30
0.0
 40
0.0138889
 41
0.0138889
  0
VERTEX
  8
0
 10
3.93625
 20
0.814615
 30
0.0
 40
0.0138889
 41
0.0138889
  0
VERTEX
  8
0
 10
3.83143
 20
0.544868
 30
0.0
 40
0.0138889
 41
0.0138889
  0
VERTEX
  8
0
 10
3.7405
 20
0.340657
 30
0.0
 40
0.0138889
 41
0.0138889
  0
VERTEX
  8
0
 10
3.70757
 20
0.273926
 30
0.0
 40
0.0138889
 41
0.0138889
  0
VERTEX
  8
0
 10
3.70344
 20
0.265625
 30
0.0
 40
0.0138889
 41
0.0138889
  0
VERTEX
  8
0
 10
3.69363
 20
0.239367
 30
0.0
 40
0.0138889
 41
0.0138889
  0
VERTEX
  8
0
 10
3.68321
 20
0.198406
 30
0.0
 40
0.0138889
 41
0.0138889
  0
VERTEX
  8
0
 10
3.67822
 20
0.154406
 30
0.0
 40
0.0138889
 41
0.0138889
  0
VERTEX
  8
0
 10
3.68083
 20
0.110731
 30
0.0
 40
0.0138889
 41
0.0138889
  0
VERTEX
  8
0
 10
3.69293
 20
0.0708008
 30
0.0
 40
0.0138889
 41
0.0138889
  0
VERTEX
  8
0
 10
3.71658
 20
0.0379775
 30
0.0
 40
0.0138889
 41
0.0138889
  0
VERTEX
  8
0
 10
3.75385
 20
0.0155707
 30
0.0
 40
0.0138889
 41
0.0138889
  0
VERTEX
  8
0
 10
3.79351
 20
0.00710721
 30
0.0
 40
0.0138889
 41
0.0138889
  0
VERTEX
  8
0
 10
3.80675
 20
0.00694444
 30
0.0
 40
0.0138889
 41
0.0138889
  0
VERTEX
  8
0
 10
5.04557
 20
0.00694444
 30
0.0
 40
0.0138889
 41
0.0138889
  0
VERTEX
  8
0
 10
5.04096
 20
0.00694444
 30
0.0
 40
0.0138889
 41
0.0138889
  0
VERTEX
  8
0
 10
6.27979
 20
0.00694444
 30
0.0
 40
0.0138889
 41
0.0138889
  0
VERTEX
  8
0
 10
6.29297
 20
0.00710721
 30
0.0
 40
0.0138889
 41
0.0138889
  0
VERTEX
  8
0
 10
6.33263
 20
0.0155707
 30
0.0
 40
0.0138889
 41
0.0138889
  0
VERTEX
  8
0
 10
6.3699
 20
0.0379775
 30
0.0
 40
0.0138889
 41
0.0138889
  0
VERTEX
  8
0
 10
6.39356
 20
0.0708008
 30
0.0
 40
0.0138889
 41
0.0138889
  0
VERTEX
  8
0
 10
6.40571
 20
0.110731
 30
0.0
 40
0.0138889
 41
0.0138889
  0
VERTEX
  8
0
 10
6.40826
 20
0.154406
 30
0.0
 40
0.0138889
 41
0.0138889
  0
VERTEX
  8
0
 10
6.40332
 20
0.198406
 30
0.0
 40
0.0138889
 41
0.0138889
  0
VERTEX
  8
0
 10
6.3929
 20
0.239367
 30
0.0
 40
0.0138889
 41
0.0138889
  0
VERTEX
  8
0
 10
6.38308
 20
0.265625
 30
0.0
 40
0.0138889
 41
0.0138889
  0
VERTEX
  8
0
 10
6.37901
 20
0.273926
 30
0.0
 40
0.0138889
 41
0.0138889
  0
VERTEX
  8
0
 10
6.34603
 20
0.340657
 30
0.0
 40
0.0138889
 41
0.0138889
  0
VERTEX
  8
0
 10
6.2551
 20
0.544868
 30
0.0
 40
0.0138889
 41
0.0138889
  0
VERTEX
  8
0
 10
6.15028
 20
0.814615
 30
0.0
 40
0.0138889
 41
0.0138889
  0
VERTEX
  8
0
 10
6.06288
 20
1.08154
 30
0.0
 40
0.0138889
 41
0.0138889
  0
VERTEX
  8
0
 10
5.99143
 20
1.34402
 30
0.0
 40
0.0138889
 41
0.0138889
  0
VERTEX
  8
0
 10
5.93435
 20
1.60037
 30
0.0
 40
0.0138889
 41
0.0138889
  0
VERTEX
  8
0
 10
5.89008
 20
1.84901
 30
0.0
 40
0.0138889
 41
0.0138889
  0
VERTEX
  8
0
 10
5.85704
 20
2.08826
 30
0.0
 40
0.0138889
 41
0.0138889
  0
VERTEX
  8
0
 10
5.83371
 20
2.31651
 30
0.0
 40
0.0138889
 41
0.0138889
  0
VERTEX
  8
0
 10
5.81853
 20
2.53207
 30
0.0
 40
0.0138889
 41
0.0138889
  0
VERTEX
  8
0
 10
5.8099
 20
2.73329
 30
0.0
 40
0.0138889
 41
0.0138889
  0
VERTEX
  8
0
 10
5.80632
 20
2.91863
 30
0.0
 40
0.0138889
 41
0.0138889
  0
VERTEX
  8
0
 10
5.80621
 20
3.08632
 30
0.0
 40
0.0138889
 41
0.0138889
  0
VERTEX
  8
0
 10
5.808
 20
3.23475
 30
0.0
 40
0.0138889
 41
0.0138889
  0
VERTEX
  8
0
 10
5.81017
 20
3.36231
 30
0.0
 40
0.0138889
 41
0.0138889
  0
VERTEX
  8
0
 10
5.81114
 20
3.46739
 30
0.0
 40
0.0138889
 41
0.0138889
  0
VERTEX
  8
0
 10
5.81049
 20
3.5281
 30
0.0
 40
0.0138889
 41
0.0138889
  0
VERTEX
  8
0
 10
5.8094
 20
3.54824
 30
0.0
 40
0.0138889
 41
0.0138889
  0
VERTEX
  8
0
 10
5.80914
 20
3.55274
 30
0.0
 40
0.0138889
 41
0.0138889
  0
VERTEX
  8
0
 10
5.81239
 20
3.56646
 30
0.0
 40
0.0138889
 41
0.0138889
  0
VERTEX
  8
0
 10
5.82226
 20
3.58111
 30
0.0
 40
0.0138889
 41
0.0138889
  0
VERTEX
  8
0
 10
5.83718
 20
3.59056
 30
0.0
 40
0.0138889
 41
0.0138889
  0
VERTEX
  8
0
 10
5.85101
 20
3.59343
 30
0.0
 40
0.0138889
 41
0.0138889
  0
VERTEX
  8
0
 10
5.85553
 20
3.59304
 30
0.0
 40
0.0138889
 41
0.0138889
  0
VERTEX
  8
0
 10
5.85553
 20
3.59304
 30
0.0
 40
0.0138889
 41
0.0138889
  0
VERTEX
  8
0
 10
5.87278
 20
3.59278
 30
0.0
 40
0.0138889
 41
0.0138889
  0
VERTEX
  8
0
 10
5.92296
 20
3.59153
 30
0.0
 40
0.0138889
 41
0.0138889
  0
VERTEX
  8
0
 10
6.00364
 20
3.58876
 30
0.0
 40
0.0138889
 41
0.0138889
  0
VERTEX
  8
0
 10
6.11225
 20
3.58393
 30
0.0
 40
0.0138889
 41
0.0138889
  0
VERTEX
  8
0
 10
6.24636
 20
3.5765
 30
0.0
 40
0.0138889
 41
0.0138889
  0
VERTEX
  8
0
 10
6.40349
 20
3.56592
 30
0.0
 40
0.0138889
 41
0.0138889
  0
VERTEX
  8
0
 10
6.58117
 20
3.5516
 30
0.0
 40
0.0138889
 41
0.0138889
  0
VERTEX
  8
0
 10
6.77696
 20
3.5331
 30
0.0
 40
0.0138889
 41
0.0138889
  0
VERTEX
  8
0
 10
6.98833
 20
3.50971
 30
0.0
 40
0.0138889
 41
0.0138889
  0
VERTEX
  8
0
 10
7.21289
 20
3.48101
 30
0.0
 40
0.0138889
 41
0.0138889
  0
VERTEX
  8
0
 10
7.44808
 20
3.4464
 30
0.0
 40
0.0138889
 41
0.0138889
  0
VERTEX
  8
0
 10
7.69146
 20
3.40539
 30
0.0
 40
0.0138889
 41
0.0138889
  0
VERTEX
  8
0
 10
7.9406
 20
3.35732
 30
0.0
 40
0.0138889
 41
0.0138889
  0
VERTEX
  8
0
 10
8.19299
 20
3.30171
 30
0.0
 40
0.0138889
 41
0.0138889
  0
VERTEX
  8
0
 10
8.44612
 20
3.23801
 30
0.0
 40
0.0138889
 41
0.0138889
  0
VERTEX
  8
0
 10
8.63504
 20
3.1849
 30
0.0
 40
0.0138889
 41
0.0138889
  0
VERTEX
  8
0
 10
8.6976
 20
3.16564
 30
0.0
 40
0.0138889
 41
0.0138889
  0
VERTEX
  8
0
 10
8.70964
 20
3.16194
 30
0.0
 40
0.0138889
 41
0.0138889
  0
VERTEX
  8
0
 10
8.74707
 20
3.15474
 30
0.0
 40
0.0138889
 41
0.0138889
  0
VERTEX
  8
0
 10
8.78782
 20
3.15315
 30
0.0
 40
0.0138889
 41
0.0138889
  0
VERTEX
  8
0
 10
8.8201
 20
3.1581
 30
0.0
 40
0.0138889
 41
0.0138889
  0
VERTEX
  8
0
 10
8.83837
 20
3.16379
 30
0.0
 40
0.0138889
 41
0.0138889
  0
VERTEX
  8
0
 10
8.84418
 20
3.16639
 30
0.0
 40
0.0138889
 41
0.0138889
  0
VERTEX
  8
0
 10
8.8475
 20
3.16792
 30
0.0
 40
0.0138889
 41
0.0138889
  0
VERTEX
  8
0
 10
8.87663
 20
3.19
 30
0.0
 40
0.0138889
 41
0.0138889
  0
VERTEX
  8
0
 10
8.87907
 20
3.19276
 30
0.0
 40
0.0138889
 41
0.0138889
  0
VERTEX
  8
0
 10
8.88547
 20
3.20014
 30
0.0
 40
0.0138889
 41
0.0138889
  0
VERTEX
  8
0
 10
8.90289
 20
3.22385
 30
0.0
 40
0.0138889
 41
0.0138889
  0
VERTEX
  8
0
 10
8.92046
 20
3.25917
 30
0.0
 40
0.0138889
 41
0.0138889
  0
VERTEX
  8
0
 10
8.93164
 20
3.30382
 30
0.0
 40
0.0138889
 41
0.0138889
  0
VERTEX
  8
0
 10
8.93593
 20
3.3481
 30
0.0
 40
0.0138889
 41
0.0138889
  0
VERTEX
  8
0
 10
8.93614
 20
3.36285
 30
0.0
 40
0.0138889
 41
0.0138889
  0
VERTEX
  8
0
 10
8.93674
 20
3.40403
 30
0.0
 40
0.0138889
 41
0.0138889
  0
VERTEX
  8
0
 10
8.93739
 20
3.52761
 30
0.0
 40
0.0138889
 41
0.0138889
  0
VERTEX
  8
0
 10
8.93718
 20
3.72976
 30
0.0
 40
0.0138889
 41
0.0138889
  0
VERTEX
  8
0
 10
8.93576
 20
3.95568
 30
0.0
 40
0.0138889
 41
0.0138889
  0
VERTEX
  8
0
 10
8.93375
 20
4.19189
 30
0.0
 40
0.0138889
 41
0.0138889
  0
VERTEX
  8
0
 10
8.93138
 20
4.42486
 30
0.0
 40
0.0138889
 41
0.0138889
  0
VERTEX
  8
0
 10
8.92919
 20
4.64094
 30
0.0
 40
0.0138889
 41
0.0138889
  0
VERTEX
  8
0
 10
8.92757
 20
4.82667
 30
0.0
 40
0.0138889
 41
0.0138889
  0
VERTEX
  8
0
 10
8.92697
 20
4.93294
 30
0.0
 40
0.0138889
 41
0.0138889
  0
VERTEX
  8
0
 10
8.92697
 20
4.96837
 30
0.0
 40
0.0138889
 41
0.0138889
  0
VERTEX
  8
0
 10
8.92697
 20
4.97803
 30
0.0
 40
0.0138889
 41
0.0138889
  0
VERTEX
  8
0
 10
8.92318
 20
5.00689
 30
0.0
 40
0.0138889
 41
0.0138889
  0
VERTEX
  8
0
 10
8.91249
 20
5.03965
 30
0.0
 40
0.0138889
 41
0.0138889
  0
VERTEX
  8
0
 10
8.89589
 20
5.06625
 30
0.0
 40
0.0138889
 41
0.0138889
  0
VERTEX
  8
0
 10
8.8744
 20
5.08637
 30
0.0
 40
0.0138889
 41
0.0138889
  0
VERTEX
  8
0
 10
8.84901
 20
5.09961
 30
0.0
 40
0.0138889
 41
0.0138889
  0
VERTEX
  8
0
 10
8.82075
 20
5.10568
 30
0.0
 40
0.0138889
 41
0.0138889
  0
VERTEX
  8
0
 10
8.79064
 20
5.10422
 30
0.0
 40
0.0138889
 41
0.0138889
  0
VERTEX
  8
0
 10
8.76699
 20
5.09799
 30
0.0
 40
0.0138889
 41
0.0138889
  0
VERTEX
  8
0
 10
8.7596
 20
5.09478
 30
0.0
 40
0.0138889
 41
0.0138889
  0
VERTEX
  8
0
 10
8.7124
 20
5.07438
 30
0.0
 40
0.0138889
 41
0.0138889
  0
VERTEX
  8
0
 10
8.56722
 20
5.0216
 30
0.0
 40
0.0138889
 41
0.0138889
  0
VERTEX
  8
0
 10
8.3571
 20
4.9591
 30
0.0
 40
0.0138889
 41
0.0138889
  0
VERTEX
  8
0
 10
8.13319
 20
4.90636
 30
0.0
 40
0.0138889
 41
0.0138889
  0
VERTEX
  8
0
 10
7.89968
 20
4.86263
 30
0.0
 40
0.0138889
 41
0.0138889
  0
VERTEX
  8
0
 10
7.66069
 20
4.82715
 30
0.0
 40
0.0138889
 41
0.0138889
  0
VERTEX
  8
0
 10
7.42031
 20
4.79899
 30
0.0
 40
0.0138889
 41
0.0138889
  0
VERTEX
  8
0
 10
7.18261
 20
4.7774
 30
0.0
 40
0.0138889
 41
0.0138889
  0
VERTEX
  8
0
 10
6.95176
 20
4.76156
 30
0.0
 40
0.0138889
 41
0.0138889
  0
VERTEX
  8
0
 10
6.73182
 20
4.75065
 30
0.0
 40
0.0138889
 41
0.0138889
  0
VERTEX
  8
0
 10
6.52696
 20
4.74382
 30
0.0
 40
0.0138889
 41
0.0138889
  0
VERTEX
  8
0
 10
6.34125
 20
4.74029
 30
0.0
 40
0.0138889
 41
0.0138889
  0
VERTEX
  8
0
 10
6.17876
 20
4.73926
 30
0.0
 40
0.0138889
 41
0.0138889
  0
VERTEX
  8
0
 10
6.04368
 20
4.73986
 30
0.0
 40
0.0138889
 41
0.0138889
  0
VERTEX
  8
0
 10
5.94006
 20
4.74126
 30
0.0
 40
0.0138889
 41
0.0138889
  0
VERTEX
  8
0
 10
5.87201
 20
4.74274
 30
0.0
 40
0.0138889
 41
0.0138889
  0
VERTEX
  8
0
 10
5.85081
 20
4.74338
 30
0.0
 40
0.0138889
 41
0.0138889
  0
VERTEX
  8
0
 10
5.84375
 20
4.74338
 30
0.0
 40
0.0138889
 41
0.0138889
  0
VERTEX
  8
0
 10
5.84375
 20
4.74338
 30
0.0
 40
0.0138889
 41
0.0138889
  0
VERTEX
  8
0
 10
5.84125
 20
4.7596
 30
0.0
 40
0.0138889
 41
0.0138889
  0
VERTEX
  8
0
 10
5.84538
 20
4.80599
 30
0.0
 40
0.0138889
 41
0.0138889
  0
VERTEX
  8
0
 10
5.85796
 20
4.87397
 30
0.0
 40
0.0138889
 41
0.0138889
  0
VERTEX
  8
0
 10
5.88097
 20
4.95503
 30
0.0
 40
0.0138889
 41
0.0138889
  0
VERTEX
  8
0
 10
5.91624
 20
5.04058
 30
0.0
 40
0.0138889
 41
0.0138889
  0
VERTEX
  8
0
 10
5.9656
 20
5.12207
 30
0.0
 40
0.0138889
 41
0.0138889
  0
VERTEX
  8
0
 10
6.03103
 20
5.19103
 30
0.0
 40
0.0138889
 41
0.0138889
  0
VERTEX
  8
0
 10
6.09212
 20
5.23063
 30
0.0
 40
0.0138889
 41
0.0138889
  0
VERTEX
  8
0
 10
6.11436
 20
5.23882
 30
0.0
 40
0.0138889
 41
0.0138889
  0
VERTEX
  8
0
 10
6.24875
 20
5.28863
 30
0.0
 40
0.0138889
 41
0.0138889
  0
VERTEX
  8
0
 10
6.64372
 20
5.46039
 30
0.0
 40
0.0138889
 41
0.0138889
  0
VERTEX
  8
0
 10
7.13699
 20
5.71724
 30
0.0
 40
0.0138889
 41
0.0138889
  0
VERTEX
  8
0
 10
7.59369
 20
6.00581
 30
0.0
 40
0.0138889
 41
0.0138889
  0
VERTEX
  8
0
 10
8.01335
 20
6.32254
 30
0.0
 40
0.0138889
 41
0.0138889
  0
VERTEX
  8
0
 10
8.39556
 20
6.6639
 30
0.0
 40
0.0138889
 41
0.0138889
  0
VERTEX
  8
0
 10
8.7399
 20
7.02632
 30
0.0
 40
0.0138889
 41
0.0138889
  0
VERTEX
  8
0
 10
9.04596
 20
7.40625
 30
0.0
 40
0.0138889
 41
0.0138889
  0
VERTEX
  8
0
 10
9.31326
 20
7.80013
 30
0.0
 40
0.0138889
 41
0.0138889
  0
VERTEX
  8
0
 10
9.54135
 20
8.20443
 30
0.0
 40
0.0138889
 41
0.0138889
  0
VERTEX
  8
0
 10
9.72988
 20
8.61556
 30
0.0
 40
0.0138889
 41
0.0138889
  0
VERTEX
  8
0
 10
9.87836
 20
9.02994
 30
0.0
 40
0.0138889
 41
0.0138889
  0
VERTEX
  8
0
 10
9.98639
 20
9.44412
 30
0.0
 40
0.0138889
 41
0.0138889
  0
VERTEX
  8
0
 10
10.0535
 20
9.85449
 30
0.0
 40
0.0138889
 41
0.0138889
  0
VERTEX
  8
0
 10
10.0793
 20
10.2574
 30
0.0
 40
0.0138889
 41
0.0138889
  0
VERTEX
  8
0
 10
10.0633
 20
10.6495
 30
0.0
 40
0.0138889
 41
0.0138889
  0
VERTEX
  8
0
 10
10.0252
 20
10.9339
 30
0.0
 40
0.0138889
 41
0.0138889
  0
VERTEX
  8
0
 10
10.0052
 20
11.027
 30
0.0
 40
0.0138889
 41
0.0138889
  0
VERTEX
  8
0
 10
9.98747
 20
11.1092
 30
0.0
 40
0.0138889
 41
0.0138889
  0
VERTEX
  8
0
 10
9.92632
 20
11.3538
 30
0.0
 40
0.0138889
 41
0.0138889
  0
VERTEX
  8
0
 10
9.83404
 20
11.66
 30
0.0
 40
0.0138889
 41
0.0138889
  0
VERTEX
  8
0
 10
9.72651
 20
11.9469
 30
0.0
 40
0.0138889
 41
0.0138889
  0
VERTEX
  8
0
 10
9.60221
 20
12.2154
 30
0.0
 40
0.0138889
 41
0.0138889
  0
VERTEX
  8
0
 10
9.45936
 20
12.4667
 30
0.0
 40
0.0138889
 41
0.0138889
  0
VERTEX
  8
0
 10
9.29639
 20
12.7019
 30
0.0
 40
0.0138889
 41
0.0138889
  0
VERTEX
  8
0
 10
9.1116
 20
12.9222
 30
0.0
 40
0.0138889
 41
0.0138889
  0
VERTEX
  8
0
 10
8.95757
 20
13.0795
 30
0.0
 40
0.0138889
 41
0.0138889
  0
VERTEX
  8
0
 10
8.90332
 20
13.1286
 30
0.0
 40
0.0138889
 41
0.0138889
  0
VERTEX
  8
0
 10
8.86111
 20
13.1669
 30
0.0
 40
0.0138889
 41
0.0138889
  0
VERTEX
  8
0
 10
8.72732
 20
13.2737
 30
0.0
 40
0.0138889
 41
0.0138889
  0
VERTEX
  8
0
 10
8.53168
 20
13.4077
 30
0.0
 40
0.0138889
 41
0.0138889
  0
VERTEX
  8
0
 10
8.31939
 20
13.5287
 30
0.0
 40
0.0138889
 41
0.0138889
  0
VERTEX
  8
0
 10
8.09338
 20
13.634
 30
0.0
 40
0.0138889
 41
0.0138889
  0
VERTEX
  8
0
 10
7.85672
 20
13.7216
 30
0.0
 40
0.0138889
 41
0.0138889
  0
VERTEX
  8
0
 10
7.61236
 20
13.789
 30
0.0
 40
0.0138889
 41
0.0138889
  0
VERTEX
  8
0
 10
7.36339
 20
13.8339
 30
0.0
 40
0.0138889
 41
0.0138889
  0
VERTEX
  8
0
 10
7.17546
 20
13.8524
 30
0.0
 40
0.0138889
 41
0.0138889
  0
VERTEX
  8
0
 10
7.11274
 20
13.8541
 30
0.0
 40
0.0138889
 41
0.0138889
  0
VERTEX
  8
0
 10
7.02094
 20
13.8567
 30
0.0
 40
0.0138889
 41
0.0138889
  0
VERTEX
  8
0
 10
6.74507
 20
13.8456
 30
0.0
 40
0.0138889
 41
0.0138889
  0
VERTEX
  8
0
 10
6.40126
 20
13.8025
 30
0.0
 40
0.0138889
 41
0.0138889
  0
VERTEX
  8
0
 10
6.08561
 20
13.7305
 30
0.0
 40
0.0138889
 41
0.0138889
  0
VERTEX
  8
0
 10
5.80257
 20
13.6352
 30
0.0
 40
0.0138889
 41
0.0138889
  0
VERTEX
  8
0
 10
5.55658
 20
13.5225
 30
0.0
 40
0.0138889
 41
0.0138889
  0
VERTEX
  8
0
 10
5.35211
 20
13.3978
 30
0.0
 40
0.0138889
 41
0.0138889
  0
VERTEX
  8
0
 10
5.19353
 20
13.2669
 30
0.0
 40
0.0138889
 41
0.0138889
  0
VERTEX
  8
0
 10
5.10781
 20
13.1713
 30
0.0
 40
0.0138889
 41
0.0138889
  0
VERTEX
  8
0
 10
5.08535
 20
13.1355
 30
0.0
 40
0.0138889
 41
0.0138889
  0
VERTEX
  8
0
 10
5.08251
 20
13.1311
 30
0.0
 40
0.0138889
 41
0.0138889
  0
VERTEX
  8
0
 10
5.06353
 20
13.1143
 30
0.0
 40
0.0138889
 41
0.0138889
  0
VERTEX
  8
0
 10
5.04167
 20
13.1064
 30
0.0
 40
0.0138889
 41
0.0138889
  0
VERTEX
  8
0
 10
5.0344
 20
13.1064
 30
0.0
 40
0.0138889
 41
0.0138889
  0
VERTEX
  8
0
 10
5.0344
 20
13.1064
 30
0.0
 40
0.0138889
 41
0.0138889
  0
SEQEND
 8
0
  0
ENDSEC
  0
EOF
