<?xml version="1.0" standalone="no"?>
<!DOCTYPE svg PUBLIC "-//W3C//DTD SVG 20010904//EN"
 "http://www.w3.org/TR/2001/REC-SVG-20010904/DTD/svg10.dtd">
<svg version="1.0" xmlns="http://www.w3.org/2000/svg"
 width="1350.000000pt" height="1356.000000pt" viewBox="0 0 1350.000000 1356.000000"
 preserveAspectRatio="xMidYMid meet">
<metadata>
Created by potrace 1.10, written by Peter Selinger 2001-2011
</metadata>
<g transform="translate(0.000000,1356.000000) scale(0.100000,-0.100000)"
fill="#000000" stroke="none">
<path d="M12390 13415 c-19 -7 -75 -25 -124 -40 -71 -22 -597 -275 -676 -325
-8 -5 -123 -73 -255 -151 -132 -78 -285 -171 -340 -207 -173 -113 -328 -216
-385 -257 -30 -21 -131 -90 -225 -154 -93 -63 -208 -143 -255 -177 -47 -35
-98 -73 -115 -84 -83 -57 -251 -179 -369 -268 -49 -37 -98 -74 -110 -82 -38
-27 -649 -487 -716 -539 -166 -129 -572 -432 -635 -473 -139 -91 -173 -99
-322 -74 -317 51 -669 70 -1217 63 -437 -5 -685 -21 -990 -63 -152 -21 -189
-14 -304 63 -47 31 -99 68 -116 83 -17 14 -89 71 -161 125 -71 54 -170 131
-220 170 -49 39 -155 121 -235 181 -80 61 -181 138 -225 172 -44 34 -127 97
-185 140 -58 43 -168 125 -246 182 -77 58 -147 110 -156 115 -9 6 -81 57 -159
115 -190 141 -219 162 -399 285 -85 58 -207 142 -270 186 -63 44 -135 93 -160
109 -25 16 -58 39 -75 50 -35 24 -149 100 -173 115 -10 5 -30 19 -47 31 -37
25 -254 154 -260 154 -3 0 -60 33 -127 73 -136 81 -445 257 -451 257 -2 0 -71
36 -153 80 -183 99 -275 130 -406 137 -77 5 -107 2 -140 -11 -76 -29 -183
-148 -208 -232 -16 -55 -8 -984 14 -1439 32 -694 45 -900 76 -1240 46 -487 82
-798 125 -1070 8 -49 16 -106 19 -125 3 -19 14 -78 26 -130 11 -52 25 -117 30
-145 40 -205 130 -585 164 -695 7 -25 21 -74 31 -110 9 -36 28 -96 42 -135 13
-38 28 -83 33 -100 8 -33 87 -217 142 -335 20 -41 56 -118 80 -170 71 -150 82
-192 70 -258 -6 -32 -14 -86 -17 -122 -7 -80 -32 -265 -50 -380 -7 -47 -21
-139 -30 -205 -20 -151 -44 -283 -56 -312 -14 -36 -34 -33 -253 34 -97 30
-120 28 -124 -10 -2 -16 2 -34 8 -42 6 -8 73 -47 147 -87 75 -40 152 -87 171
-105 l35 -33 -6 -148 c-6 -158 -17 -202 -51 -202 -18 0 -105 34 -318 126 -45
20 -71 24 -120 22 -60 -3 -63 -4 -66 -29 -2 -21 5 -33 35 -56 36 -28 153 -95
268 -151 72 -35 166 -92 194 -116 33 -30 49 -73 56 -152 3 -38 12 -127 20
-199 8 -71 21 -218 30 -325 24 -304 45 -499 61 -571 8 -37 14 -78 14 -91 0
-55 57 -300 150 -643 9 -34 48 -150 114 -340 137 -395 442 -937 723 -1283 259
-319 631 -653 954 -857 467 -294 773 -431 1274 -569 72 -19 173 -45 225 -56
52 -11 122 -27 155 -36 58 -14 116 -25 235 -44 30 -4 120 -20 200 -33 80 -14
208 -33 285 -42 77 -9 192 -22 255 -30 295 -37 787 -44 1110 -15 382 33 556
55 695 85 39 8 130 26 203 40 116 22 381 87 467 114 173 55 526 183 610 221
11 5 49 21 85 36 36 14 85 36 110 49 25 13 92 47 150 75 58 29 134 69 170 89
36 20 77 43 92 51 115 62 393 257 522 364 65 54 237 210 307 277 57 56 283
308 309 345 8 12 33 46 56 75 126 167 354 535 432 699 85 178 121 260 132 301
7 23 17 52 25 63 42 69 190 526 231 716 9 41 22 98 29 125 17 65 39 190 60
340 10 66 23 145 31 176 8 31 14 74 14 94 0 21 7 92 15 159 19 161 45 457 45
526 1 66 32 227 49 255 14 22 99 72 306 181 164 85 205 116 205 154 0 35 -23
44 -83 35 -46 -7 -236 -79 -333 -126 -34 -16 -76 -29 -93 -29 -46 0 -53 28
-49 207 l3 153 30 29 c17 16 91 61 165 99 144 75 184 109 159 138 -16 19 -87
14 -160 -11 -24 -9 -76 -18 -115 -22 l-72 -6 -16 31 c-8 16 -20 80 -26 140 -6
61 -15 134 -20 163 -6 28 -10 75 -10 103 0 28 -5 69 -10 91 -18 79 -73 461
-77 535 l-4 75 114 230 c63 127 138 284 165 350 62 147 153 418 181 540 12 50
28 110 36 135 14 45 22 81 50 235 8 44 21 112 30 150 8 39 24 129 35 200 11
72 25 155 30 185 21 122 49 334 64 485 9 88 23 225 31 305 39 387 60 683 85
1190 11 228 25 498 31 600 7 102 14 401 16 665 4 405 2 491 -11 554 -28 135
-107 220 -242 260 -80 24 -77 24 -124 6z m6 -541 c61 -29 59 -17 56 -373 -6
-665 -22 -936 -87 -1476 -8 -66 -17 -154 -21 -195 -3 -41 -15 -129 -26 -195
-11 -66 -22 -138 -24 -160 -19 -152 -37 -282 -48 -355 -8 -47 -22 -137 -31
-200 -9 -63 -21 -137 -27 -165 -5 -27 -13 -75 -18 -105 -5 -30 -18 -98 -30
-150 -11 -52 -32 -153 -45 -223 -14 -71 -27 -132 -30 -137 -3 -5 -16 -62 -30
-127 -14 -65 -34 -152 -45 -193 -12 -41 -31 -121 -44 -176 -22 -96 -41 -159
-153 -514 -76 -240 -84 -264 -99 -287 -8 -13 -21 -23 -29 -23 -14 0 -47 42
-75 94 -77 147 -200 341 -360 566 -52 74 -102 144 -110 156 -111 159 -294 368
-521 594 -315 315 -500 460 -927 727 -188 117 -202 127 -202 153 0 17 26 56
81 120 72 85 371 412 425 465 11 11 47 49 79 85 32 36 140 150 239 255 100
104 222 232 271 285 245 259 334 349 635 650 370 371 653 636 765 717 112 81
206 138 277 167 96 40 108 42 154 20z m-11071 -45 c78 -38 297 -214 465 -374
36 -34 115 -108 175 -165 198 -187 1017 -1013 1235 -1246 129 -137 417 -441
531 -559 154 -159 311 -331 328 -359 8 -13 12 -30 9 -37 -3 -8 -64 -50 -134
-93 -170 -104 -421 -271 -511 -338 -350 -262 -765 -685 -1023 -1047 -25 -34
-56 -78 -70 -97 -69 -94 -254 -374 -288 -437 -10 -17 -30 -51 -45 -74 -15 -24
-27 -45 -27 -49 0 -3 -21 -37 -47 -75 -70 -105 -63 -114 -163 201 -166 527
-202 667 -305 1170 -41 201 -56 271 -71 335 -7 33 -20 105 -29 160 -9 55 -23
136 -30 180 -27 151 -43 260 -60 390 -8 72 -22 175 -30 230 -19 123 -39 292
-60 495 -9 85 -22 214 -30 285 -15 142 -37 398 -57 680 -7 99 -13 308 -13 465
0 315 1 319 66 375 29 23 38 26 78 20 25 -3 73 -19 106 -36z m4963 -3365 c1
-16 -9 -67 -24 -114 -33 -110 -45 -175 -49 -280 -9 -227 132 -469 331 -570
l69 -35 145 0 c143 0 146 0 213 32 51 24 87 52 139 105 122 128 161 206 178
363 6 50 13 104 16 122 7 36 -21 230 -41 283 -32 86 -25 133 17 113 72 -33
236 -190 331 -317 163 -217 214 -570 122 -843 -66 -195 -220 -402 -375 -505
-263 -174 -609 -233 -881 -150 -190 58 -294 120 -436 261 -75 73 -173 197
-173 217 0 2 -18 43 -41 91 -22 48 -45 108 -49 133 -4 25 -13 72 -20 105 -19
91 -7 339 20 440 41 154 99 252 223 378 113 114 243 211 272 203 6 -1 11 -16
13 -32z m3442 -1918 c324 -68 545 -179 795 -400 211 -187 439 -454 547 -641
120 -209 201 -406 254 -615 89 -352 84 -836 -12 -1275 -20 -90 -105 -344 -139
-415 -57 -119 -90 -182 -102 -192 -7 -6 -13 -14 -13 -19 0 -23 -135 -195 -220
-280 -312 -313 -669 -465 -1123 -477 -171 -4 -313 7 -442 35 -38 8 -95 19
-125 24 -30 5 -77 15 -105 23 -27 8 -97 28 -155 45 -165 47 -319 131 -441 240
-75 67 -53 70 241 32 114 -15 468 -21 625 -10 139 9 238 31 390 88 65 25 186
87 255 133 83 54 279 252 349 351 33 48 61 89 61 92 0 2 16 30 35 62 51 85
103 232 129 368 42 221 49 289 48 530 0 197 -4 262 -21 360 -37 215 -48 269
-60 305 -6 19 -27 85 -47 145 -56 175 -152 353 -256 480 -89 108 -259 275
-342 337 -122 90 -336 189 -475 219 -49 10 -298 25 -576 34 -93 4 -180 8 -193
11 -42 9 -23 44 58 106 165 128 325 217 467 258 37 11 84 25 103 32 88 28 379
37 490 14z m-5486 -15 c17 -5 67 -19 110 -31 105 -28 256 -98 396 -183 182
-111 253 -171 217 -182 -6 -2 -95 -6 -197 -10 -443 -16 -607 -24 -640 -33 -62
-17 -165 -54 -180 -66 -8 -6 -28 -18 -45 -27 -201 -108 -259 -149 -403 -284
-120 -112 -253 -293 -327 -445 -20 -41 -40 -83 -45 -92 -5 -9 -26 -59 -45
-110 -20 -51 -41 -104 -47 -118 -18 -44 -48 -144 -48 -162 0 -10 -12 -57 -27
-105 -25 -85 -26 -98 -31 -383 -4 -287 -2 -309 29 -455 4 -22 15 -74 23 -115
64 -316 233 -603 474 -807 142 -120 243 -181 417 -253 96 -40 106 -42 260 -53
178 -11 730 4 866 25 130 20 137 -3 26 -92 -131 -105 -445 -236 -657 -274
-159 -29 -440 -41 -652 -28 -248 14 -368 45 -594 152 -396 187 -646 486 -840
1003 -8 20 -20 54 -28 75 -16 41 -45 144 -85 297 -9 38 -20 109 -41 290 -6 44
-10 188 -10 320 0 409 46 607 220 940 119 229 222 380 373 548 80 89 250 244
346 314 42 31 92 68 111 83 53 41 184 114 285 158 92 41 255 92 297 92 13 0
30 5 38 10 19 12 413 13 454 1z m266 -666 c198 -22 328 -91 498 -265 93 -95
153 -185 210 -313 48 -108 52 -135 68 -390 10 -162 -10 -352 -48 -452 -55
-144 -141 -290 -220 -376 -152 -164 -375 -269 -570 -269 -118 0 -282 50 -388
118 -82 53 -208 185 -275 287 -32 50 -82 140 -109 200 l-51 110 -3 300 c-3
308 -1 334 38 420 10 22 26 60 36 85 10 25 26 56 35 70 9 14 33 50 52 80 79
126 256 286 372 335 83 35 243 75 280 69 11 -1 45 -6 75 -9z m4698 -10 c187
-33 422 -192 536 -363 147 -223 204 -422 193 -679 -7 -159 -20 -238 -61 -365
-53 -164 -118 -269 -245 -397 -100 -102 -162 -145 -286 -198 l-90 -38 -165 1
c-137 0 -173 3 -215 19 -245 94 -426 267 -533 511 -47 105 -55 134 -83 269
-38 185 -36 337 6 501 53 206 203 456 340 567 62 50 155 109 190 120 11 3 40
13 65 23 122 45 213 53 348 29z m-5243 -2211 c19 -7 47 -35 68 -66 35 -51 37
-57 37 -136 0 -95 -20 -142 -88 -203 -121 -111 -240 -147 -322 -98 -54 32
-118 106 -130 148 -22 81 20 193 101 272 99 96 226 128 334 83z m5862 -15 c52
-25 109 -88 151 -167 27 -51 32 -70 32 -129 0 -65 -3 -74 -35 -116 -50 -66
-127 -101 -204 -94 -31 2 -76 14 -98 25 -61 31 -145 114 -178 174 -25 45 -29
64 -30 130 0 69 3 81 30 120 65 93 206 117 332 57z"/>
</g>
</svg>
