<?xml version="1.0" encoding="utf-8"?>
<!-- Generator: Adobe Illustrator 24.2.1, SVG Export Plug-In . SVG Version: 6.00 Build 0)  -->
<svg version="1.1" id="Fill_Original_1_" xmlns="http://www.w3.org/2000/svg" xmlns:xlink="http://www.w3.org/1999/xlink" x="0px"
	 y="0px" viewBox="0 0 1280 1024" style="enable-background:new 0 0 1280 1024;" xml:space="preserve">
<style type="text/css">
	.st0{fill:#00AAFF;stroke:#00AAFF;stroke-width:0.5;stroke-linecap:round;stroke-linejoin:round;}
</style>
<path id="Fill_Original" class="st0" d="M858.8,660c-78.5,13.6-162.7,14.6-164.9,14.6c-1.9-0.2-2.4-0.8-2.4-2.1
	c0.5-13.6,1.9-18.8,6.3-27.3c2.6-5,4.7-8.5,9.4-11.5c264.2-166,264-330.5,210.9-403.8C858,146.9,779,171.3,765.6,175
	c-2.1,0.6-3-0.5-1.7-1.8c0,0,95.8-101,96.1-101.3c7.6-8.5,7.4-13.1-2.8-17.3c-9-3.7-77.2-29.3-100.1-38.1c-10.3-4-12.9-2.6-15.8,8
	c-12,43.9-33,136.6-61.3,174.2c-7.5,10-19.3,22.6-28.1,22.3h-0.8c-8.8,0.3-20.6-12.3-28.1-22.3C594.8,161,573.8,68.2,561.8,24.4
	c-2.9-10.6-5.5-12-15.8-8c-22.9,8.8-91.2,34.4-100.1,38.1c-10.2,4.2-10.4,8.9-2.8,17.3c0.3,0.3,96.1,101.3,96.1,101.3
	c1.2,1.2,0.4,2.3-1.7,1.8c-13.4-3.6-92.4-28.1-152.5,55c-53.1,73.3-53.3,237.8,210.9,403.8c4.7,3,6.8,6.6,9.4,11.5
	c4.5,8.5,5.9,13.7,6.3,27.3c0,1.3-0.5,1.9-2.4,2.1c-2.3,0-86.4-1-164.9-14.6c-5.4-0.9-10,1-10,7.6c0,18.5-0.9,73.7-0.6,96.4
	c0.1,5.4,1.3,7.8,3.4,10.2c0.6,0.7,1.3,1.2,2.1,1.6c1.6,0.7,4.5,1.4,8.8,0c80-24.6,160.7-25.7,160.7-25.7c1.5-0.1,2.8,1.1,2.8,2.7
	c-1.2,21.9-12.6,165.8-38.3,233.2c-1.9,5-6.3,13.6,3.5,13.7h74.7h0.3h74.7c9.8-0.1,5.4-8.6,3.5-13.7
	c-25.7-67.4-37.1-211.3-38.3-233.2c-0.1-1.6,1.2-2.8,2.8-2.7c0,0,80.7,1.1,160.7,25.7c4.3,1.3,7.2,0.7,8.8,0
	c0.8-0.4,1.5-0.9,2.1-1.6c2.2-2.5,3.3-4.8,3.4-10.2c0.4-22.7-0.6-77.9-0.6-96.4C868.8,660.9,864.1,659,858.8,660z M651.7,572.4
	c0,0,0.1,0,0.1,0c-96.2-0.1-224.9-161.3-201.7-260.7c14-59.7,114.7-101.7,189.3-9.5c5.3,6.5,8.4,7.4,11.8,7.3h0.5h0.3h0.5
	c3.4,0,6.5-0.8,11.8-7.3c74.5-92.2,175.3-50.1,189.3,9.5c23.2,99.4-105.5,260.6-201.7,260.7c0,0,0.1,0,0.1,0H651.7z"/>
</svg>
