<?xml version="1.0" standalone="no"?>
<!DOCTYPE svg PUBLIC "-//W3C//DTD SVG 20010904//EN"
 "http://www.w3.org/TR/2001/REC-SVG-20010904/DTD/svg10.dtd">
<svg version="1.0" xmlns="http://www.w3.org/2000/svg"
 width="1350.000000pt" height="966.000000pt" viewBox="0 0 1350.000000 966.000000"
 preserveAspectRatio="xMidYMid meet">
<metadata>
Created by potrace 1.10, written by Peter Selinger 2001-2011
</metadata>
<g transform="translate(0.000000,966.000000) scale(0.100000,-0.100000)"
fill="#000000" stroke="none">
<path d="M6635 9565 c-142 -31 -239 -75 -348 -158 -152 -115 -238 -262 -288
-492 -19 -89 -5 -203 42 -347 50 -153 190 -324 329 -400 38 -21 60 -40 60 -50
0 -17 -4 -16 -52 3 -113 45 -136 45 -276 2 -85 -26 -109 -26 -217 -4 -27 5
-125 10 -216 10 l-166 1 -56 -41 c-39 -29 -65 -59 -89 -103 -32 -60 -33 -64
-33 -181 1 -86 6 -137 19 -180 40 -134 144 -351 201 -421 30 -36 40 -42 102
-53 122 -22 131 -1 63 143 -91 194 -110 266 -110 424 0 90 4 121 19 155 37 81
108 127 195 127 77 0 85 -17 53 -113 -13 -40 -29 -93 -36 -120 -14 -60 -14
-207 0 -261 6 -22 17 -68 26 -101 18 -73 26 -93 88 -219 70 -143 102 -187 180
-246 100 -76 263 -245 250 -258 -4 -4 -37 25 -114 99 -135 129 -339 246 -526
303 -33 10 -73 24 -88 32 -16 8 -43 14 -60 14 -18 0 -59 7 -92 15 -89 21 -569
21 -685 -1 -189 -35 -517 -129 -544 -155 -6 -5 -16 -9 -24 -9 -19 0 -176 -79
-275 -139 -165 -99 -362 -286 -455 -431 -82 -128 -188 -352 -250 -530 -62
-176 -86 -278 -123 -520 -30 -201 -38 -507 -15 -623 12 -61 33 -190 49 -302 7
-45 61 -249 92 -340 87 -264 280 -655 445 -905 28 -41 53 -82 57 -90 44 -95
455 -637 607 -800 154 -165 404 -414 531 -529 195 -178 517 -434 690 -551 28
-18 99 -66 159 -107 59 -40 109 -73 111 -73 1 0 29 -17 61 -39 33 -21 79 -49
104 -63 25 -13 63 -35 85 -49 48 -31 112 -68 180 -104 28 -15 65 -38 83 -52
31 -23 33 -29 29 -67 -3 -22 -13 -66 -22 -96 -23 -77 -16 -218 13 -281 49
-107 183 -207 298 -225 174 -26 370 138 414 347 11 47 10 66 -5 125 -9 38 -28
90 -42 116 -32 60 -32 60 106 141 58 34 115 67 126 74 11 7 29 17 40 23 11 6
32 18 47 28 15 9 57 36 95 59 302 183 720 492 1003 740 98 87 523 513 625 628
246 277 565 710 758 1032 88 146 207 370 207 388 0 3 13 33 28 67 39 86 74
175 120 308 39 110 79 278 106 435 8 50 21 122 28 160 17 92 17 476 -1 620
-33 281 -93 497 -198 715 -31 63 -68 134 -84 158 -16 24 -29 45 -29 48 0 14
-178 239 -237 299 -114 116 -259 234 -388 315 -121 76 -202 121 -249 139 -30
11 -64 25 -73 29 -29 15 -85 33 -124 41 -19 4 -40 10 -45 14 -19 11 -208 45
-324 57 -111 12 -482 8 -637 -6 -72 -7 -77 0 -33 48 33 35 130 224 130 251 0
9 11 56 25 104 33 112 65 276 65 330 0 58 -32 126 -83 176 -38 37 -54 44 -128
61 -120 27 -229 25 -364 -9 -93 -24 -114 -26 -140 -16 -16 7 -79 15 -140 17
-60 3 -120 7 -132 10 -31 6 -29 30 3 47 14 7 64 51 111 98 83 81 131 150 166
237 9 23 24 60 33 81 24 59 24 385 -1 444 -51 126 -109 224 -174 293 -103 113
-286 205 -462 233 -81 13 -126 12 -204 -4z m235 -146 c86 -27 144 -62 200
-121 111 -118 149 -289 95 -427 -67 -171 -149 -243 -327 -286 -76 -19 -80 -19
-155 0 -90 21 -122 36 -181 81 -56 43 -99 96 -131 164 -22 49 -25 68 -26 165
0 92 4 120 24 173 42 111 145 206 269 248 84 28 149 29 232 3z m-37 -1365 c20
-20 -78 -100 -110 -90 -28 9 -86 72 -79 85 8 12 178 16 189 5z m924 -90 c57
-35 109 -115 119 -181 6 -44 -12 -135 -60 -293 -9 -30 -21 -68 -26 -85 -67
-222 -70 -240 -41 -250 23 -7 28 -28 9 -42 -7 -5 -38 -17 -68 -28 -99 -33
-260 -119 -290 -155 -3 -3 -36 -30 -75 -59 -128 -98 -260 -251 -400 -465 -88
-135 -132 -230 -155 -336 -24 -110 -25 -154 -6 -275 16 -111 51 -185 123 -265
32 -35 51 -64 47 -71 -5 -8 -36 -10 -108 -6 -56 4 -144 2 -196 -3 -52 -5 -99
-5 -103 -1 -4 4 21 37 55 73 38 39 69 82 79 109 27 73 44 188 43 294 -1 83 -7
115 -32 190 -35 104 -82 216 -117 280 -32 57 -32 73 3 77 l27 3 -1 80 c-1 52
-10 113 -27 175 -27 100 -78 302 -102 408 -40 168 -48 201 -63 257 -25 91 -23
339 2 423 41 134 97 152 224 75 106 -66 143 -66 230 -1 101 76 162 74 204 -4
21 -40 23 -55 23 -223 0 -139 -4 -194 -17 -240 -14 -51 -28 -119 -78 -380 -7
-37 -12 -59 -45 -190 -7 -27 -21 -95 -30 -150 -9 -55 -23 -127 -31 -160 -13
-58 -13 -61 9 -79 22 -18 22 -18 59 25 21 24 38 48 38 52 0 12 82 119 159 207
83 95 142 153 206 200 75 56 113 99 141 160 117 252 154 384 154 547 0 89 -5
120 -32 209 -27 89 -29 106 -17 120 21 26 107 14 166 -22z m-2170 -1485 c173
-15 351 -62 516 -138 46 -20 81 -48 134 -104 72 -76 110 -133 98 -145 -4 -4
-39 -7 -78 -8 -84 -1 -121 -16 -185 -78 -73 -69 -87 -110 -87 -256 0 -124 0
-125 36 -189 26 -48 49 -75 90 -103 30 -20 63 -38 74 -38 23 0 65 -26 65 -40
0 -5 -10 -11 -22 -15 -80 -22 -284 -113 -398 -177 -258 -145 -632 -515 -770
-763 -39 -69 -120 -231 -120 -239 0 -2 -13 -33 -29 -68 -177 -386 -203 -971
-60 -1349 11 -30 24 -65 29 -79 31 -95 139 -319 198 -409 45 -69 63 -103 59
-107 -4 -4 -138 131 -193 196 -22 25 -44 50 -50 55 -6 6 -28 33 -50 60 -21 28
-42 52 -45 55 -25 23 -190 254 -296 415 -36 55 -74 112 -84 127 -11 15 -19 30
-19 33 0 3 -12 24 -27 48 -64 98 -279 527 -328 651 -75 192 -123 375 -166 631
-18 107 -19 575 -1 705 32 227 107 445 210 605 151 235 327 407 532 518 19 11
54 30 76 42 51 29 191 87 259 108 193 60 388 77 632 56z m2753 -24 c131 -32
187 -48 261 -76 42 -16 79 -29 82 -29 8 0 204 -96 231 -113 184 -116 354 -278
448 -427 70 -112 142 -276 174 -396 9 -32 22 -81 30 -109 7 -27 25 -135 40
-240 21 -152 25 -216 21 -320 -12 -352 -97 -699 -255 -1050 -200 -445 -676
-1185 -952 -1479 -112 -120 -279 -274 -321 -297 -25 -13 -38 -3 -18 14 25 20
152 168 201 232 95 128 142 210 236 415 31 68 71 186 93 275 11 44 26 105 34
135 42 164 39 622 -4 795 -6 22 -19 78 -30 125 -23 99 -60 203 -126 352 -95
218 -228 410 -410 594 -151 153 -268 248 -415 336 -121 73 -309 168 -330 168
-18 0 -90 40 -90 50 0 5 23 21 51 35 76 39 134 98 169 171 27 57 30 74 30 158
0 105 -20 168 -68 219 -41 44 -72 56 -174 67 -51 6 -99 16 -106 23 -33 33 165
235 295 301 68 34 204 73 303 86 104 14 523 3 600 -15z m-1341 -1110 c149 -35
227 -63 363 -130 236 -118 406 -271 565 -510 89 -132 168 -327 204 -500 20
-96 17 -463 -4 -554 -34 -147 -102 -318 -178 -451 -27 -47 -163 -226 -198
-261 -61 -60 -213 -183 -266 -215 -147 -89 -291 -146 -485 -191 -94 -22 -419
-25 -520 -5 -212 43 -331 88 -505 190 -284 168 -517 468 -625 805 -43 135 -50
196 -50 417 0 231 8 286 71 473 94 279 324 567 584 729 166 103 287 151 500
198 109 24 449 27 544 5z m-1131 -3784 c9 -5 35 -16 57 -24 80 -30 131 -49
163 -63 18 -8 40 -14 50 -14 9 0 34 -6 57 -14 179 -61 522 -87 770 -58 169 20
377 72 508 127 10 4 17 3 17 -3 0 -10 -41 -38 -330 -227 -74 -49 -167 -109
-205 -135 -39 -25 -77 -49 -85 -53 -8 -4 -33 -18 -55 -32 -63 -38 -94 -33
-240 41 -71 36 -137 69 -145 74 -30 19 -165 96 -180 103 -54 27 -372 241 -394
266 -20 22 -16 27 12 12z"/>
<path d="M6640 9358 c-19 -6 -56 -27 -83 -46 -125 -90 -185 -230 -157 -371 39
-203 216 -326 420 -292 88 14 137 38 195 96 76 76 105 146 105 254 0 119 -26
183 -111 270 -64 66 -133 93 -243 97 -50 2 -107 -2 -126 -8z"/>
<path d="M543 6968 c-20 -25 -43 -180 -43 -285 0 -143 36 -359 82 -502 12 -34
44 -109 72 -165 118 -232 227 -357 439 -499 78 -53 274 -157 295 -157 5 0 43
-14 83 -31 118 -50 418 -149 448 -149 8 0 37 -7 65 -15 28 -8 68 -17 89 -20
66 -10 29 -25 -62 -25 -92 0 -244 21 -321 45 -245 75 -287 92 -455 185 -106
58 -147 59 -160 2 -7 -35 29 -260 56 -343 60 -183 220 -432 364 -567 121 -113
338 -256 431 -285 10 -3 51 -16 89 -30 118 -40 254 -78 370 -102 44 -9 103
-22 130 -30 28 -7 86 -21 130 -30 96 -20 169 -51 159 -67 -16 -25 -267 5 -429
52 -183 54 -178 53 -193 33 -31 -41 14 -216 93 -358 131 -235 395 -449 648
-525 194 -57 415 -59 572 -4 23 8 47 14 54 14 22 0 71 40 71 58 0 9 -23 46
-50 82 -162 212 -281 422 -355 630 -149 413 -195 653 -195 1006 0 180 30 530
50 576 5 13 19 68 30 123 11 55 25 114 30 130 5 17 24 75 41 130 40 124 52
289 25 330 -23 36 -114 101 -166 120 -85 30 -240 70 -320 81 -19 3 -60 11 -90
19 -81 20 -442 61 -795 90 -225 18 -381 46 -510 91 -23 8 -46 14 -53 14 -11 0
-143 59 -227 102 -50 25 -196 124 -295 198 -115 87 -172 110 -197 78z"/>
<path d="M12851 6959 c-24 -11 -74 -41 -110 -68 -70 -51 -207 -143 -231 -154
-8 -4 -31 -17 -50 -28 -19 -12 -66 -37 -105 -56 -38 -19 -78 -38 -88 -44 -18
-10 -100 -35 -202 -63 -99 -27 -208 -42 -525 -72 -155 -14 -208 -20 -435 -50
-367 -47 -435 -60 -593 -111 -116 -38 -130 -44 -189 -90 -86 -68 -92 -146 -25
-348 46 -140 88 -288 102 -363 5 -30 12 -57 15 -62 14 -22 38 -325 39 -485 2
-323 -28 -544 -123 -905 -53 -202 -155 -428 -271 -601 -58 -86 -134 -186 -153
-200 -18 -13 -57 -74 -57 -90 0 -39 83 -68 280 -100 126 -20 155 -20 310 2
151 22 331 102 465 208 242 193 401 451 404 657 1 56 -15 69 -71 54 -53 -14
-126 -34 -198 -54 -83 -22 -288 -42 -302 -28 -17 17 -1 42 27 42 14 0 72 12
128 26 56 14 120 30 142 34 38 6 58 12 180 45 28 7 79 21 115 30 36 9 76 21
88 26 13 5 52 19 85 30 179 59 374 186 528 345 72 74 176 215 202 274 4 8 16
30 27 47 52 86 110 251 129 363 20 124 22 157 11 186 -24 61 -41 57 -253 -50
-145 -74 -198 -95 -357 -141 -56 -16 -306 -48 -340 -44 -57 8 1 35 125 58 28
5 64 14 80 19 17 5 59 18 95 27 111 31 171 52 290 103 261 112 373 184 531
342 184 183 290 362 362 610 37 127 49 202 54 330 8 198 -17 321 -72 356 -17
11 -27 10 -64 -7z"/>
</g>
</svg>
