<?xml version="1.0" encoding="utf-8"?>
<!-- Generator: Adobe Illustrator 26.3.1, SVG Export Plug-In . SVG Version: 6.00 Build 0)  -->
<svg version="1.1" id="a" xmlns="http://www.w3.org/2000/svg" xmlns:xlink="http://www.w3.org/1999/xlink" x="0px" y="0px"
	 viewBox="0 0 3917.6 1798.9" style="enable-background:new 0 0 3917.6 1798.9;" xml:space="preserve">
<style type="text/css">
	.st0{fill:#76BC21;stroke:#231F20;stroke-width:0.5;stroke-linecap:round;stroke-linejoin:round;}
	.st1{fill:#18988B;stroke:#231F20;stroke-miterlimit:10;}
	.st2{fill:#18988B;stroke:#FFF200;stroke-miterlimit:10;}
	.st3{fill:#FFFFFF;stroke:#231F20;stroke-width:0.5;stroke-miterlimit:10;}
	.st4{fill:#FAE345;}
	.st5{fill:#76BC21;}
	.st6{fill:#18988B;stroke:#231F20;stroke-width:0.5;stroke-miterlimit:10;}
	.st7{fill:none;stroke:#FFF200;stroke-miterlimit:10;}
	.st8{fill:none;stroke:#231F20;stroke-miterlimit:10;}
	.st9{fill:#FAE345;stroke:#231F20;stroke-width:0.5;stroke-linecap:round;stroke-linejoin:round;}
</style>
<g>
	<path class="st0" d="M1776.6,542.1V101.3h-453.7v440.8H1776.6L1776.6,542.1z M1670.7,373.2c6.5,19.3,0.5,43.9-25.5,35.4l2.3,8.7
		l-7.3-3.8c3.8,26.7-9.8,38-33.2,29.6c-20.7-7.1-45.5-21.5-57.2,4.7c-11.8-26.2-36.5-11.8-57.2-4.7c-23.4,8.3-37.1-3-33.2-29.6
		l-7.3,3.8l2.3-8.7c-26,8.5-32-16.1-25.5-35.4c5.2-17,2.4-35.8-10-49.9c12.4-14.2,15.2-32.9,10-49.9c-6.5-19.3-0.5-43.9,25.5-35.4
		l-2.3-8.7l7.3,3.8c-3.9-26.7,9.8-38,33.2-29.6c20.7,7.1,45.5,21.5,57.2-4.7c11.7,26.2,36.5,11.8,57.2,4.7
		c23.4-8.3,37.1,3,33.2,29.6l7.3-3.8l-2.3,8.7c26-8.5,32,16.1,25.5,35.4c-5.2,17-2.4,35.8,10,49.9
		C1668.3,337.4,1665.6,356.1,1670.7,373.2z"/>
	<g>
		<path class="st1" d="M836.7,304.5c0,0-2-12.3-17.9-19.5l-128.2-46.6l8.2-5.1l60.6-3.7V82.9l-69.7-3l-55.3-57.3H294.7l-59.1,57.2
			l-69.5,3v146.7l60.6,3.7l9.2,5.7v0.6l-129.1,47C90.9,293.7,88.9,306,88.9,306l-0.1,304.2c0,16.6,18,26.6,18,26.6l129.1,40.5v2.4
			L252,819.8c1.3,21.2,21.8,18.6,21.8,18.6h377.9c0,0,20.5,2.6,21.8-18.6l16.1-140.1v-4l0,0l129.2-40.4c0,0,18-10,18-26.6
			L836.7,304.5z M583.7,510.9c6.5,19.3,0.5,43.9-25.5,35.4l2.3,8.7l-7.3-3.8c3.8,26.7-9.8,38-33.2,29.6
			c-20.7-7.1-45.5-21.5-57.2,4.7c-11.8-26.2-36.5-11.8-57.2-4.7c-23.4,8.3-37.1-3-33.2-29.6l-7.3,3.8l2.3-8.7
			c-26,8.5-32-16.1-25.5-35.4c5.2-17,2.4-35.8-10-49.9c12.4-14.2,15.2-32.9,10-49.9c-6.5-19.3-0.5-43.9,25.5-35.4l-2.3-8.7l7.3,3.8
			c-3.9-26.7,9.8-38,33.2-29.6c20.7,7.1,45.5,21.5,57.2-4.7c11.7,26.2,36.5,11.8,57.2,4.7c23.4-8.3,37.1,3,33.2,29.6l7.3-3.8
			l-2.3,8.7c26-8.5,32,16.1,25.5,35.4c-5.2,17-2.4,35.8,10,49.9C581.3,475.1,578.5,493.8,583.7,510.9z"/>
		<path class="st2" d="M689.1,675.6V238 M235.5,679.8V242.2 M689.1,680.5H235.5 M689.1,237.8H235.5 M689.1,78.4H235.5 M689.1,237.3
			V78.4 M235.5,238V78.4"/>
	</g>
	<path class="st3" d="M946.7,95.6v335h333.5v-335L946.7,95.6L946.7,95.6z"/>
	<g>
		<rect x="3379" y="111.3" class="st4" width="439.2" height="439.2"/>
		<rect x="3379" y="601.2" class="st5" width="439.2" height="439.2"/>
		<g>
			<g>
				<polygon class="st6" points="2956.1,288.1 2956.1,137 2880.9,137 2873.6,130.1 2874.1,130.1 2836.4,100.9 2657.2,100.9 
					2635.5,100.9 2456.4,100.9 2418.5,130.1 2419,130.1 2411.9,137 2336.6,137 2336.6,288.1 2411.9,288.1 2419,292 2411.9,295.8 
					2336.6,295.8 2336.6,445.3 2417.6,445.3 2419,447.7 2419,889.9 2411.9,897.6 2336.6,897.6 2336.6,1040.7 2411.9,1040.7 
					2419,1044.6 2411.9,1048.3 2336.6,1048.3 2336.6,1199.6 2418.5,1199.6 2456.4,1236.7 2635.5,1236.7 2657.2,1236.7 
					2836.4,1236.7 2874.1,1199.6 2956.1,1199.6 2956.1,1048.3 2880.9,1048.3 2873.6,1044.6 2880.9,1040.7 2956.1,1040.7 
					2956.1,897.6 2880.9,897.6 2873.6,889.9 2873.6,447.7 2875.4,445.4 2956.1,445.1 2956.1,295.8 2880.9,295.8 2873.6,292 
					2880.9,288.1 				"/>
				<path class="st7" d="M2419.9,891.1v308.6 M2873.4,891.4v308.2 M2932,1199.7h-513.5 M2873.4,1044.7h-453.5 M2873.4,891.1h-453.5
					 M2419.6,138.4v308.3 M2873.1,138.8v308.3 M2873.1,446.8h-453.5 M2873.1,292.8h-453.5 M2880.9,138.5H2412"/>
			</g>
			<line class="st8" x1="2150.1" y1="871.1" x2="2150.1" y2="871.1"/>
			<line class="st8" x1="2419.5" y1="587.1" x2="2419.5" y2="587.1"/>
			<g>
				<path class="st1" d="M2316.2,453.4l-163.5,0.5l-7.3,3.7l-147.9,0.9l-42.6,31.8V846l43.7,41.8H2147l7,7h162.1l48.4-39.6
					l3.6-341.7L2316.2,453.4z M2342.4,696c-6.9,0-12.5-5.6-12.5-12.4s5.6-12.4,12.5-12.4s12.5,5.6,12.5,12.4S2349.4,696,2342.4,696z
					"/>
				<path class="st7" d="M2316.4,895.2V453 M1998,887.9V458.2 M2152.9,894.8V456.3"/>
			</g>
			<g>
				<path class="st1" d="M2972.1,453.4l163.5,0.5l7.3,3.7l147.9,0.9l42.6,31.8V846l-43.7,41.8h-148.4l-7,7h-162.1l-48.4-39.6
					l-3.6-341.7L2972.1,453.4z M2945.9,696c6.9,0,12.5-5.6,12.5-12.4s-5.6-12.4-12.5-12.4s-12.5,5.6-12.5,12.4S2939,696,2945.9,696z
					"/>
				<path class="st7" d="M2971.9,895.2V453 M3290.4,887.9V458.2 M3135.5,894.8V456.3"/>
			</g>
		</g>
	</g>
	<path class="st9" d="M1783.6,1036.6V595.8h-453.7v440.8H1783.6L1783.6,1036.6z M1677.7,867.7c6.5,19.3,0.5,43.9-25.5,35.4l2.3,8.7
		l-7.3-3.8c3.8,26.7-9.8,38-33.2,29.6c-20.7-7.1-45.5-21.5-57.2,4.7c-11.8-26.2-36.5-11.8-57.2-4.7c-23.4,8.3-37.1-3-33.2-29.6
		l-7.3,3.8l2.3-8.7c-26,8.5-32-16.1-25.5-35.4c5.2-17,2.4-35.8-10-49.9c12.4-14.2,15.2-32.9,10-49.9c-6.5-19.3-0.5-43.9,25.5-35.4
		l-2.3-8.7l7.3,3.8c-3.9-26.7,9.8-38,33.2-29.6c20.7,7.1,45.5,21.5,57.2-4.7c11.7,26.2,36.5,11.8,57.2,4.7
		c23.4-8.3,37.1,3,33.2,29.6l7.3-3.8l-2.3,8.7c26-8.5,32,16.1,25.5,35.4c-5.2,17-2.4,35.8,10,49.9
		C1675.3,831.9,1672.6,850.6,1677.7,867.7z"/>
</g>
</svg>
