<?xml version="1.0" encoding="UTF-8"?>
<!DOCTYPE svg PUBLIC "-//W3C//DTD SVG 1.1//EN" "http://www.w3.org/Graphics/SVG/1.1/DTD/svg11.dtd">
<!-- Creator: CorelDRAW X7 -->
<svg xmlns="http://www.w3.org/2000/svg" xml:space="preserve" width="4.30652in" height="0.672268in" version="1.1" style="shape-rendering:geometricPrecision; text-rendering:geometricPrecision; image-rendering:optimizeQuality; fill-rule:evenodd; clip-rule:evenodd"
viewBox="0 0 11216 1751"
 xmlns:xlink="http://www.w3.org/1999/xlink">
 <defs>
  <style type="text/css">
   <![CDATA[
    .str0 {stroke:#010000;stroke-width:54.2642}
    .fil0 {fill:#C50001}
   ]]>
  </style>
 </defs>
 <g id="Layer_x0020_1">
  <metadata id="CorelCorpID_0Corel-Layer"/>
  <path class="fil0 str0" d="M27 1724l0 -244 243 0 0 -1209 -243 0 0 -244 729 0 0 244 -243 0 0 1209 243 0 0 244 -729 0zm1458 -969l0 969 -244 0 0 -1334 244 0 0 122 120 0 0 -122 605 0 0 122 122 0 0 121 121 0 0 1091 -243 0 0 -969 -121 0 0 -122 -120 0 0 1091 -244 0 0 -1091 -120 0 0 122 -120 0zm2181 -124l-122 0 0 -119 -363 0 0 119 -122 0 0 365 122 0 0 119 363 0 0 -119 122 0 0 -365zm-726 606l0 487 -243 0 0 -1456 243 0 0 121 119 0 0 -121 607 0 0 122 120 0 0 122 121 0 0 603 -121 0 0 122 -120 0 0 122 -607 0 0 -122 -119 0zm1575 243l487 0 0 -119 119 0 0 -609 -119 0 0 -119 -487 0 0 119 -119 0 0 609 119 0 0 119zm-119 244l0 -122 -122 0 0 -122 -122 0 0 -847 122 0 0 -121 122 0 0 -122 725 0 0 122 122 0 0 121 122 0 0 847 -122 0 0 122 -122 0 0 122 -725 0zm1334 -244l-122 3 0 -244 242 0 0 121 121 0 0 120 487 0 0 -241 -244 0 0 -121 -243 0 0 -122 -242 0 0 -122 -121 0 0 -241 122 0 0 -121 121 0 0 -122 727 0 0 122 121 -1 0 122 121 0 0 241 -241 0 0 -120 -121 0 0 -121 -487 0 0 241 364 0 0 122 243 0 0 122 121 0 0 121 121 0 0 241 -121 3 0 119 -121 0 0 122 -727 0 0 -122 -121 0 0 -122zm2183 2l121 0 0 242 -242 0 0 -122 -122 0 0 -120 -122 0 0 -849 -242 0 0 -243 242 0 0 -363 244 0 0 363 242 0 0 243 -242 0 0 727 121 0 0 122zm969 -2l487 0 0 -119 119 0 0 -609 -119 0 0 -119 -487 0 0 119 -119 0 0 609 119 0 0 119zm-119 244l0 -122 -122 0 0 -122 -121 0 0 -847 121 0 0 -121 122 0 0 -122 725 0 0 122 122 0 0 121 122 0 0 847 -122 0 0 122 -122 0 0 122 -725 0zm1456 -728l0 728 -244 0 0 -1334 244 0 0 243 121 0 0 -121 121 0 0 -122 486 0 0 122 121 0 0 121 121 -2 0 243 -242 0 0 -122 -122 0 0 -119 -242 -2 0 121 -122 0 0 122 -121 0 0 122 -121 0z"/>
 </g>
</svg>
