<?xml version="1.0" encoding="UTF-8"?>
<!DOCTYPE svg PUBLIC "-//W3C//DTD SVG 1.1//EN" "http://www.w3.org/Graphics/SVG/1.1/DTD/svg11.dtd">
<!-- Creator: CorelDRAW X7 -->
<svg xmlns="http://www.w3.org/2000/svg" xml:space="preserve" width="1.40337in" height="2.04894in" version="1.1" style="shape-rendering:geometricPrecision; text-rendering:geometricPrecision; image-rendering:optimizeQuality; fill-rule:evenodd; clip-rule:evenodd"
viewBox="0 0 589 859"
 xmlns:xlink="http://www.w3.org/1999/xlink">
 <defs>
  <style type="text/css">
   <![CDATA[
    .str0 {stroke:#000100;stroke-width:23.2983}
    .str1 {stroke:#373435;stroke-width:8.73582}
    .fil15 {fill:#FEFEFE}
    .fil4 {fill:#2DA728}
    .fil3 {fill:#2DA82A}
    .fil1 {fill:#363B3B}
    .fil8 {fill:#3D9146}
    .fil10 {fill:#3F914B}
    .fil9 {fill:#448E4D}
    .fil5 {fill:#4B646E}
    .fil7 {fill:#60EB03}
    .fil2 {fill:#60EF00}
    .fil11 {fill:#6ED13A}
    .fil13 {fill:#6EDB2D}
    .fil12 {fill:#74D641}
    .fil6 {fill:#97C6DB}
    .fil17 {fill:#D6D600}
    .fil14 {fill:#F9FDFB}
    .fil16 {fill:yellow}
    .fil0 {fill:#000100;fill-rule:nonzero}
   ]]>
  </style>
 </defs>
 <g id="Layer_x0020_1">
  <metadata id="CorelCorpID_0Corel-Layer"/>
  <g id="_789540096">
   <path class="fil0" d="M589 289c0,16 0,32 0,48 -4,18 -10,34 -21,50 -10,13 -8,31 -4,45 14,60 3,118 -6,177 -5,34 -12,68 -16,103 -3,22 -8,44 -21,63 -12,19 -29,27 -51,27 -14,-1 -28,0 -42,0 -40,0 -50,-7 -65,-44 -7,-16 -10,-34 -10,-51 0,-9 -1,-17 -12,-17 -11,1 -8,10 -8,17 -1,18 1,36 -4,54 -7,40 -35,67 -76,74 -37,7 -72,-1 -105,-18 -15,-8 -22,-23 -24,-41 0,-24 -5,-48 -6,-73 0,-11 -4,-21 -18,-20 -27,2 -51,-5 -70,-25 -19,-20 -24,-47 -27,-73 -6,-60 -2,-121 1,-182 1,-14 1,-29 1,-43 1,-42 18,-76 65,-83 5,-1 10,-2 16,-3 33,-7 33,-7 38,-39 5,-38 17,-75 39,-105 22,-32 53,-57 96,-57 42,1 84,-6 124,3 65,14 118,46 144,111 3,7 7,13 13,17 27,22 43,50 49,85z"/>
   <path class="fil1" d="M228 859c-16,-7 -33,-5 -50,-7 -36,-6 -73,-10 -106,-25 -7,-3 -14,-6 -15,-17 0,-11 8,-14 15,-17 19,-8 37,-14 57,-17 3,25 19,37 42,45 48,18 91,16 132,-16 17,-13 17,-29 20,-45 15,-9 30,-6 44,-4 11,29 30,45 63,40 13,-2 27,0 41,0 20,1 36,-6 46,-24 26,5 55,5 72,32 0,4 0,8 0,12 -5,13 -16,18 -28,22 -40,14 -82,17 -124,19 -7,1 -15,-2 -23,2 -62,0 -124,0 -186,0z"/>
   <path class="fil2" d="M347 183c-12,2 -25,6 -38,7 -26,4 -44,18 -57,40 -7,9 -7,20 -5,31 1,32 0,62 11,93 17,48 53,65 96,74 26,5 51,0 76,-3 12,2 24,-3 35,-6 10,-3 21,-6 31,-8 6,0 11,-4 17,-3 4,7 2,13 2,20 5,34 -5,66 -15,98 -11,35 -35,54 -69,61 -37,7 -75,9 -112,-2 -8,-2 -17,-5 -25,-4 -35,2 -55,-21 -69,-48 -22,-42 -34,-88 -38,-136 -4,-31 -7,-63 -10,-94 -4,-41 1,-80 14,-119 3,-7 2,-15 5,-23 21,-25 44,-48 79,-44 41,3 82,-6 121,12 21,11 44,20 55,44 -5,14 -17,4 -25,7 -26,2 -53,-3 -79,3z"/>
   <path class="fil3" d="M196 161c2,27 -9,51 -13,76 -6,43 1,85 5,127 4,35 7,69 17,103 10,33 21,65 44,91 7,7 12,13 22,14 41,3 80,19 121,14 19,-2 37,-4 56,-10 23,-8 37,-24 45,-46 12,-33 20,-67 21,-102 1,-2 2,-2 3,0 7,55 5,109 -3,164 -6,47 -25,91 -20,140 2,23 -7,28 -30,29 -10,1 -19,0 -28,0 -30,0 -31,-1 -37,-30 -4,-22 7,-47 26,-58 11,-6 21,-12 30,-20 9,-7 0,-6 -4,-7 -30,2 -60,2 -89,0 -9,-1 -18,0 -26,-2 -39,-7 -43,-4 -52,33 -5,19 -3,39 -2,58 1,18 -4,32 -18,42 -26,19 -60,19 -87,3 -4,-3 -7,-6 -7,-11 -15,-121 -20,-243 -16,-364 1,-32 -3,-64 2,-95 8,-43 10,-89 33,-128 3,-7 1,-15 7,-21z"/>
   <path class="fil4" d="M113 368c-2,62 -3,123 0,185 1,19 3,38 4,57 2,27 -13,36 -38,24 -18,-9 -29,-20 -30,-43 -2,-42 -11,-83 -3,-124 6,-20 -1,-40 4,-60 0,-12 -3,-24 3,-35 20,-1 40,-9 60,-4z"/>
   <path class="fil5" d="M549 293c7,25 -5,52 -33,66 -47,23 -97,36 -151,25 -28,-7 -51,-23 -68,-45 -21,-26 -13,-85 11,-105 9,5 10,14 12,22 15,48 35,63 86,63 26,1 51,-4 77,-5 23,-1 45,-9 66,-21z"/>
   <path class="fil6" d="M549 293c-9,18 -28,21 -45,24 -36,4 -72,8 -108,7 -42,0 -67,-19 -79,-60 -2,-10 -6,-20 -9,-30 40,-8 79,-20 120,-17 30,3 60,10 86,26 18,12 32,27 35,50z"/>
   <path class="fil7" d="M113 368c-17,7 -36,2 -53,10 -1,0 -5,-4 -7,-6 1,-7 1,-14 3,-21 6,-27 30,-40 56,-31 7,2 5,7 4,11 0,12 -2,25 -3,37z"/>
   <path class="fil8" d="M264 777c18,-16 16,-38 16,-60 0,-13 -5,-27 4,-40 0,22 -1,45 0,67 1,17 -4,27 -20,33z"/>
   <path class="fil9" d="M362 646c29,0 59,0 89,0 -30,5 -60,6 -89,0z"/>
   <path class="fil10" d="M50 407c-2,20 5,40 -4,60 0,-20 -2,-40 4,-60z"/>
   <path class="fil11" d="M517 428c-1,0 -2,0 -3,0 2,-14 -4,-20 -18,-17 22,-11 22,-11 21,17z"/>
   <path class="fil12" d="M465 419c-11,7 -22,12 -35,6 12,-2 23,-4 35,-6z"/>
   <path class="fil13" d="M247 261c-4,-11 -8,-23 5,-31 -1,10 -3,21 -5,31z"/>
   <path class="fil14" d="M473 281c-22,3 -43,-7 -66,-5 -12,1 -27,-4 -27,-20 0,-15 11,-23 27,-25 27,-3 54,4 80,10 8,2 14,7 20,12 6,6 7,12 4,20 -3,8 -9,8 -16,8 -7,0 -15,0 -22,0z"/>
   <path class="fil15 str0" d="M199 85c12,-4 12,-2 18,-17 16,-40 107,-54 138,-28 11,10 29,11 38,16 35,18 79,33 69,66 -26,22 -78,-14 -153,1 -13,11 -63,112 -83,70 -7,-16 -8,-25 -19,-46 -14,-30 -38,13 -58,3 -8,-13 42,-61 50,-65z"/>
   <ellipse class="fil16 str1" transform="matrix(-0.860513 0.157462 0.157462 0.860513 278.918 43.9814)" rx="68" ry="44"/>
   <path class="fil17" d="M282 70c25,-6 42,-23 40,-39 0,-1 0,-1 0,-2 -1,-4 -3,-7 -6,-10 6,3 11,7 13,12 1,2 2,4 2,6 3,13 -7,26 -23,34 -6,4 -14,6 -23,8 -18,3 -35,0 -46,-7 -3,-2 -6,-4 -8,-6 4,2 9,3 14,5 9,2 19,2 30,0 3,0 5,-1 7,-1z"/>
  </g>
 </g>
</svg>
