<?xml version="1.0" encoding="UTF-8"?>
<!DOCTYPE svg PUBLIC "-//W3C//DTD SVG 1.1//EN" "http://www.w3.org/Graphics/SVG/1.1/DTD/svg11.dtd">
<!-- Creator: CorelDRAW X7 -->
<svg xmlns="http://www.w3.org/2000/svg" xml:space="preserve" width="1.39754in" height="2.2981in" version="1.1" style="shape-rendering:geometricPrecision; text-rendering:geometricPrecision; image-rendering:optimizeQuality; fill-rule:evenodd; clip-rule:evenodd"
viewBox="0 0 264 435"
 xmlns:xlink="http://www.w3.org/1999/xlink">
 <defs>
  <style type="text/css">
   <![CDATA[
    .fil1 {fill:#000001}
    .fil5 {fill:#070A93}
    .fil6 {fill:#070C90}
    .fil9 {fill:#1124D4}
    .fil4 {fill:#1124DA}
    .fil3 {fill:#363B3B}
    .fil7 {fill:#49646E}
    .fil8 {fill:#97C6DB}
    .fil11 {fill:#D6D600}
    .fil10 {fill:#FBFDFD}
    .fil0 {fill:yellow}
    .fil2 {fill:#000001;fill-rule:nonzero}
   ]]>
  </style>
 </defs>
 <g id="Layer_x0020_1">
  <metadata id="CorelCorpID_0Corel-Layer"/>
  <g id="_783195776">
   <g>
    <path class="fil0" d="M188 96c-3,-24 -8,-57 -10,-82l-29 27 -41 -41 -17 53 -35 -13 19 75c18,-36 96,-34 113,-19z"/>
    <path id="1" class="fil1" d="M175 79c-1,-7 -2,-15 -3,-22 -1,-7 -2,-14 -2,-21l-14 13 -8 7 -7 -8 -28 -28 -13 36 -3 10 -10 -4 -16 -6 9 37c14,-10 33,-15 51,-17 16,-1 32,0 44,3zm13 17c-3,-24 -8,-57 -10,-82l-29 27 -41 -41 -17 53 -35 -13 19 75c18,-36 96,-34 113,-19z"/>
   </g>
   <g id="_783194464">
    <path class="fil2" d="M0 303c0,-15 0,-30 0,-45 1,-16 2,-31 2,-47 -1,-23 9,-36 31,-39 2,-1 4,-2 6,-2 13,0 13,0 15,-15 3,-17 8,-34 18,-48 10,-16 24,-27 44,-27 18,0 37,-2 56,1 29,7 53,21 65,50 1,3 3,6 5,8 13,10 20,23 22,39 0,7 0,14 0,21 -1,8 -4,16 -9,23 -4,6 -3,14 -2,20 7,27 2,53 -2,80 -3,15 -6,31 -8,46 -1,10 -3,20 -9,29 -5,8 -13,12 -23,12 -6,0 -13,0 -19,0 -18,0 -22,-3 -29,-20 -3,-7 -5,-15 -5,-23 0,-4 0,-8 -5,-8 -5,1 -4,5 -4,8 0,8 1,17 -2,25 -3,17 -15,30 -34,33 -17,3 -33,-1 -47,-8 -7,-4 -10,-11 -11,-19 0,-11 -2,-21 -3,-32 0,-7 -3,-11 -10,-10 -22,3 -38,-14 -40,-37 -1,-5 0,-10 -2,-15z"/>
    <path class="fil3" d="M165 388c4,13 13,21 28,18 6,0 12,0 18,0 9,1 17,-2 21,-11 12,3 25,3 32,15 0,2 0,3 0,5 -2,6 -7,8 -12,10 -18,7 -37,8 -56,9 -3,0 -7,-1 -10,1 -28,0 -56,0 -84,0 -12,-2 -24,-1 -35,-3 -12,-2 -24,-4 -35,-9 -4,-2 -9,-5 -9,-11 0,-6 5,-9 10,-10 7,-3 15,-8 24,-5 2,12 9,17 19,21 22,7 41,7 60,-8 7,-5 7,-13 9,-20 6,-4 13,-3 20,-2z"/>
    <path class="fil4" d="M98 110c8,-8 17,-11 28,-11 9,1 19,1 28,2 19,0 34,7 47,21 2,2 4,3 3,5 -1,3 -4,2 -6,2 -17,0 -34,-1 -51,3 -6,1 -12,1 -18,3 -10,4 -17,12 -18,22 -2,21 -2,42 10,61 5,9 12,13 20,17 19,9 39,7 59,2 7,-1 15,-3 23,-5 8,-3 10,-2 9,6 -1,11 0,21 -3,32 -9,33 -20,42 -53,44 -20,2 -38,-4 -57,-7 -10,-2 -15,-13 -20,-22 -9,-19 -14,-40 -16,-62 -3,-20 -3,-39 -4,-59 0,-15 5,-29 8,-43 1,-5 7,-8 11,-11z"/>
    <path class="fil5" d="M98 110c-14,13 -14,31 -16,49 -2,25 0,50 4,75 4,24 10,48 27,67 2,2 4,4 7,4 19,2 36,9 55,6 9,-1 18,-1 26,-4 11,-4 17,-12 20,-21 6,-14 8,-28 9,-42 1,-2 0,-4 2,-6 3,28 2,55 -2,82 -3,19 -12,38 -9,58 1,7 -2,11 -10,13 -7,1 -15,1 -22,0 -9,0 -8,-9 -10,-14 -2,-6 2,-11 1,-17 0,-8 8,-6 12,-9 4,-4 10,-5 13,-11 -5,-3 -9,0 -14,0 -14,0 -29,0 -43,-3 -13,-3 -17,1 -20,13 -2,10 -2,19 -1,28 1,15 -8,25 -24,26 -6,1 -12,-1 -18,-2 -7,-3 -9,-7 -10,-15 -3,-19 -2,-38 -6,-56 -1,-3 -1,-6 -1,-8 0,-35 1,-69 0,-104 -1,-26 4,-52 11,-78 3,-11 5,-26 19,-31z"/>
    <path class="fil6" d="M50 213c0,27 0,53 0,80 0,10 0,20 2,30 1,12 -3,15 -15,11 -10,-3 -15,-9 -16,-20 -1,-13 -4,-26 -3,-39 1,-20 2,-39 4,-59 0,-1 1,-2 1,-3 6,3 11,-1 16,0 4,0 7,-1 11,0z"/>
    <path class="fil7" d="M247 179c3,12 -3,24 -15,30 -22,10 -44,16 -68,11 -13,-3 -23,-10 -31,-20 -10,-12 -6,-38 5,-47 4,3 5,8 6,12 6,19 16,26 36,26 12,1 25,-2 38,-2 10,0 20,-5 29,-10z"/>
    <path class="fil8" d="M247 179c-5,8 -13,10 -21,11 -18,2 -36,4 -54,3 -13,0 -25,-10 -29,-23 -2,-6 -3,-11 -5,-17 18,-4 36,-9 54,-8 14,1 28,5 39,12 8,6 14,12 16,22z"/>
    <path class="fil9" d="M50 213c-8,4 -16,1 -23,5 -4,1 -3,-3 -4,-5 1,-2 1,-4 1,-7 3,-13 13,-18 25,-14 3,1 2,3 2,5 0,6 -1,11 -1,16z"/>
    <path class="fil10" d="M217 174c-13,-1 -26,-2 -38,-4 -4,0 -7,-2 -7,-6 -1,-5 0,-9 5,-11 5,-2 11,-3 16,-2 9,2 18,3 26,6 6,1 11,4 10,12 -2,8 -8,4 -12,5z"/>
   </g>
   <path class="fil11" d="M148 54l23 -21c1,10 5,38 6,48 -5,-1 -8,-3 -28,-4l-1 -23z"/>
  </g>
 </g>
</svg>
