<?xml version="1.0" encoding="UTF-8"?>
<!DOCTYPE svg PUBLIC "-//W3C//DTD SVG 1.1//EN" "http://www.w3.org/Graphics/SVG/1.1/DTD/svg11.dtd">
<!-- Creator: CorelDRAW X7 -->
<svg xmlns="http://www.w3.org/2000/svg" xml:space="preserve" width="1.39754in" height="1.57277in" version="1.1" style="shape-rendering:geometricPrecision; text-rendering:geometricPrecision; image-rendering:optimizeQuality; fill-rule:evenodd; clip-rule:evenodd"
viewBox="0 0 446 502"
 xmlns:xlink="http://www.w3.org/1999/xlink">
 <defs>
  <style type="text/css">
   <![CDATA[
    .str1 {stroke:#010000;stroke-width:17.7336}
    .str2 {stroke:#010000;stroke-width:13.2999}
    .str0 {stroke:#BF1601;stroke-width:0.95762}
    .fil6 {fill:#FEFEFE}
    .fil7 {fill:#EDEDEE}
    .fil1 {fill:#363B3B}
    .fil2 {fill:#941505}
    .fil5 {fill:#941505}
    .fil3 {fill:#BC1803}
    .fil4 {fill:#BF1601}
    .fil0 {fill:#010000;fill-rule:nonzero}
   ]]>
  </style>
 </defs>
 <g id="Layer_x0020_1">
  <metadata id="CorelCorpID_0Corel-Layer"/>
  <g id="_593715568">
   <path class="fil0" d="M0 279c0,-25 0,-50 0,-75 2,-27 3,-53 3,-80 8,-44 16,-52 46,-65 98,-7 51,61 66,92 -1,94 0,187 12,280 1,5 2,8 6,11 13,5 26,9 40,8 26,-1 42,-17 41,-43 -1,-19 0,-37 2,-56 1,-8 6,-12 13,-14 7,-2 14,-1 21,0 18,3 35,5 52,5 15,0 30,-1 48,-3 -9,10 -17,18 -26,20 -22,6 -22,23 -22,39 -1,24 7,32 31,31 6,0 11,-1 17,-2 21,-2 24,-5 24,-26 0,-13 -2,-25 1,-38 18,-62 25,-126 17,-191 6,-4 12,-9 16,-13 21,37 29,86 15,152 -4,26 -9,52 -12,79 -2,17 -6,33 -16,48 -9,15 -22,20 -39,20 -11,0 -21,0 -32,0 -30,0 -38,-5 -50,-33 -5,-13 -7,-26 -7,-39 0,-6 -1,-13 -9,-13 -8,1 -6,8 -7,13 0,14 1,28 -3,41 -5,31 -30,54 -62,58 -26,3 -51,-3 -74,-14 -12,-6 -18,-19 -20,-32 0,-19 -3,-37 -4,-56 0,-10 -5,-17 -17,-15 -37,4 -64,-24 -68,-63 -1,-8 0,-17 -3,-26zm149 -100c4,25 10,49 23,71 11,19 24,37 51,36 21,-1 42,11 64,8 17,-3 35,-1 51,-8 19,-7 30,-19 36,-37 8,-22 12,-45 15,-69 0,-2 0,-4 1,-7 -27,17 -74,27 -127,27 -46,0 -87,-8 -114,-21z"/>
   <path class="fil1" d="M278 424c8,22 22,34 47,30 10,-1 21,0 32,0 15,0 27,-5 34,-18 21,3 42,3 55,24 0,3 0,6 0,9 -4,10 -12,14 -21,17 -31,11 -62,13 -94,15 -6,0 -12,-2 -18,1 -47,0 -94,0 -141,0 -20,-3 -40,-2 -60,-5 -19,-3 -39,-6 -58,-14 -8,-4 -15,-9 -15,-19 0,-10 8,-15 16,-18 13,-4 26,-13 41,-7 3,19 15,28 32,34 37,13 69,12 101,-13 12,-9 12,-21 15,-34 11,-6 22,-4 34,-2z"/>
   <path class="fil2" d="M84 128c0,51 0,102 1,153 0,11 2,21 2,32 1,20 -10,27 -28,18 -15,-7 -21,-17 -24,-34 -8,-55 -1,-108 2,-162 0,-1 1,-3 2,-4 7,1 14,-2 21,-4 8,-2 16,-5 24,1z"/>
   <path class="fil3" d="M84 128c-12,0 -23,2 -34,6 -4,1 -9,6 -11,-3 0,-5 1,-10 2,-15 4,-21 20,-31 41,-24 6,2 5,5 5,9 -1,9 -2,18 -3,27z"/>
   <path class="fil4 str0" d="M336 169c14,-3 28,-6 41,-11 15,-5 16,2 15,13 -1,21 -3,41 -8,62 -11,42 -30,57 -73,63 -37,6 -72,-3 -107,-9 -20,-4 -31,-24 -39,-41 -12,-29 -19,-59 -24,-90 24,15 66,24 113,24 31,0 60,-4 82,-11z"/>
   <path class="fil5 str1" d="M257 124c81,0 147,21 147,46 0,26 -66,47 -147,47 -82,0 -148,-21 -148,-47 0,-25 66,-46 148,-46z"/>
   <path class="fil5" d="M311 296c-37,6 -67,-2 -103,-8 -42,-29 -38,-30 -55,-77 -17,-5 -32,-13 -39,-20 0,80 2,161 13,241 1,4 2,8 6,10 13,5 26,9 40,8 26,-1 42,-17 41,-42 -1,-18 0,-36 2,-54 1,-8 6,-12 13,-13 7,-2 14,-2 21,0 18,3 35,5 52,5 15,0 24,-1 43,-4 -9,13 -14,15 -24,18 -17,4 -19,21 -19,40 -1,23 7,30 31,30 6,0 11,-1 17,-2 21,-2 24,-5 24,-26 0,-12 -2,-24 1,-36 17,-56 24,-112 19,-170 -1,1 -3,3 -4,3 -7,54 -20,88 -79,97z"/>
   <path class="fil6 str2" d="M253 31l1 0c1,-14 12,-24 27,-24 15,0 26,9 27,25 0,16 -25,25 -27,26 -3,0 -4,6 -4,8l0 89c0,13 -10,23 -23,23l-2 0c-12,0 -22,-10 -22,-23l0 -87c1,-10 -2,-10 -4,-10 -15,0 -27,-12 -27,-26 0,-14 12,-25 27,-25 14,0 26,10 27,24z"/>
   <path class="fil7" d="M243 124c1,-33 -1,-69 -8,-65 1,2 1,4 1,9l0 57 0 30c0,7 3,11 7,14 2,-4 0,-22 0,-45z"/>
  </g>
 </g>
</svg>
