<?xml version="1.0" encoding="utf-8"?>
<!-- Generator: Adobe Illustrator 24.2.1, SVG Export Plug-In . SVG Version: 6.00 Build 0)  -->
<svg version="1.1" id="Layer_1" xmlns="http://www.w3.org/2000/svg" xmlns:xlink="http://www.w3.org/1999/xlink" x="0px" y="0px"
	 viewBox="0 0 612 792" style="enable-background:new 0 0 612 792;" xml:space="preserve">
<g>
	<path d="M306.03,1036c-353.25,0-639.86-286.53-639.89-639.71c-0.03-353.4,286.68-640.32,640.1-640.12
		c357.43,0.2,644.84,292.26,639.77,649.33C941.05,754.45,656.3,1036.35,306.03,1036z M306.08-167.1
		C-4.87-167.17-256.79,84.65-257.09,395.83c-0.3,311.07,251.18,562.79,563.06,563.6c310.44,0.8,563.28-251.94,563.46-563.23
		C869.6,85.14,617.4-167.04,306.08-167.1z"/>
	<path d="M306.55-89.54c5.66,221.48,11.33,442.96,16.99,664.44c0.38,0.16,0.76,0.32,1.14,0.49c22.11-32.25,44.22-64.5,66.34-96.75
		c0.28,0.12,0.57,0.25,0.85,0.37c-14.34,39.48-28.68,78.96-43.31,119.22c45.4,6.61,90.41,13.16,135.42,19.72
		c-0.02,0.3-0.03,0.59-0.05,0.89c-44.78,6.5-89.55,13.01-135.36,19.66c17.47,34.26,34.75,68.15,52.04,102.04
		c-0.24,0.17-0.49,0.34-0.73,0.52c-24.31-25.54-48.61-51.08-74.06-77.83c1.63,63.78,3.22,126.22,4.83,189.23
		c1.91-0.74,3.18-1.08,4.3-1.69c67.67-36.7,124.09-85.6,163.43-152.52c31.05-52.82,44.51-110.06,40.92-171.32
		c-3.18-54.19-18.95-104.89-41.87-153.66c-4.03-8.58-8.26-17.09-12.81-25.41c-1.76-3.21-1.33-5.12,0.92-7.8
		c35.69-42.5,65.02-88.93,85.89-140.48c14.56-35.97,23.76-73.17,23.21-112.23c-0.88-63.18-28.02-113.7-75.37-154.26
		c-1.33-1.14-2.63-2.3-3.52-4.07c1.06,0.63,2.17,1.17,3.17,1.89c68.32,49.52,123.84,110.16,160.55,186.75
		c30.85,64.35,42.26,132.11,33.81,203.14c-7.57,63.65-29.8,122.25-60.65,177.92c-3.7,6.68-7.59,13.27-12.06,21.07
		c1.45-1,1.95-1.22,2.29-1.59c48.94-53.4,87.13-113.12,106.45-183.6c16.65-60.73,13.8-120.27-13.04-177.93
		c-0.46-0.98-0.76-2.03-0.57-3.21c46.47,80.03,68.16,165.95,60.36,258.64c-7.8,92.67-45.45,173.22-101.53,246.14
		c0.37,0.31,0.73,0.63,1.1,0.94c6.42-6.11,13.14-11.93,19.19-18.39c26.7-28.49,46.53-61.57,63.26-96.57
		c7.38-15.45,13.79-31.37,20.63-47.08c0.57-1.32,1.07-2.66,1.6-4c0.4,0.1,0.81,0.2,1.21,0.3c-1.5,8.42-2.76,16.89-4.53,25.25
		c-16.72,78.98-48.78,150.87-99.86,213.74c-56.87,69.98-129.51,116.39-215.45,142.5c-52.3,15.89-105.94,23.17-160.48,24.47
		c-52.87,1.26-105.15-3.64-156.71-15.48c-47.5-10.91-92.61-28.06-134.67-52.87c-66.53-39.25-118.3-93.06-156.72-159.82
		c-31.2-54.22-51.8-112.27-61.63-174.09c-0.22-1.4-0.29-2.82-0.12-4.34c25.33,61.3,53.56,120.65,104.41,165.55
		c0.44-0.28,0.87-0.56,1.31-0.84c-0.88-1.28-1.71-2.59-2.65-3.82c-37.52-49.38-66.64-103.06-83.73-162.93
		c-14.67-51.38-19.29-103.65-13.83-156.8c6.42-62.48,25.3-120.96,56.46-175.48c0.91-1.59,1.88-3.14,2.86-4.69
		c0.26-0.42,0.63-0.76,1.91-2.29c-3.41,8.19-6.45,14.98-9.11,21.93c-20.58,53.81-20.68,108.38-5.45,163.35
		c14.99,54.07,42.03,101.98,76.06,146.15c8.73,11.34,18.41,21.94,27.65,32.9c0.93,1.11,1.78,2.28,2.67,3.42
		c0.35-0.28,0.7-0.57,1.05-0.85c-2.12-3.67-4.24-7.34-6.36-11.01C-62.73,459.95-84,410.09-95.2,356.26
		c-20.63-99.11-3.45-191.61,49.22-277.66C-10.08,19.95,37.03-28.31,92.6-68.51c1.18-0.85,2.43-1.6,4.23-1.75
		c-2.1,1.85-4.21,3.71-6.31,5.56C56.73-35,32.5,0.66,22.54,45.09c-7.73,34.48-5.89,68.83,2,103.02
		c10.92,47.29,31.4,90.51,57.71,130.91c13.7,21.03,29.37,40.78,44.44,60.9c2.27,3.03,2.58,4.93,0.82,8.22
		C107.38,385.87,91.3,425.2,81.67,467C66.73,531.83,69,595.58,94.02,657.81c18.65,46.36,47.37,85.85,83.18,120.35
		c29.56,28.47,62.38,52.55,98.68,71.79c1.58,0.84,3.23,1.56,5.76,2.78c1.61-63.07,3.19-125.4,4.78-187.73
		c-0.34-0.19-0.69-0.39-1.03-0.58c-24.25,25.47-48.5,50.94-72.76,76.42c-0.28-0.17-0.56-0.34-0.84-0.51
		c17.18-33.68,34.36-67.35,51.95-101.84c-45.59-6.63-90.46-13.16-135.33-19.69c-0.03-0.27-0.06-0.54-0.09-0.8
		c44.92-6.54,89.83-13.08,135.42-19.71c-14.53-40-28.8-79.29-43.07-118.58c0.33-0.16,0.66-0.32,0.99-0.48
		c21.99,32.08,43.99,64.16,65.98,96.24c0.36-0.07,0.72-0.15,1.08-0.22c5.68-221.59,11.35-443.18,17.03-664.77
		C306.03-89.55,306.29-89.55,306.55-89.54z"/>
</g>
</svg>
