<?xml version="1.0" encoding="utf-8"?>
<!-- Generator: Adobe Illustrator 24.2.1, SVG Export Plug-In . SVG Version: 6.00 Build 0)  -->
<svg version="1.1" id="Layer_1" xmlns="http://www.w3.org/2000/svg" xmlns:xlink="http://www.w3.org/1999/xlink" x="0px" y="0px"
	 viewBox="0 0 612 792" style="enable-background:new 0 0 612 792;" xml:space="preserve">
<g>
	<path d="M305.85,140c140.25-1.01,258.7,115.18,256.29,260.83c-2.26,136.71-116.01,254.8-263.13,251.26
		c-135.82-3.27-252.65-116.59-249.08-263C53.26,253.02,165.35,139.62,305.85,140z M122.58,531.39
		c-14.29-33.29-20.24-68.14-21.27-103.64c5.5,10.12,10.44,20.61,16.65,30.28c6.22,9.68,14.6,17.58,24.71,23.46
		c-18.49-25.67-30.04-53.76-32.79-85.45c-2.72-31.48,2.83-61.32,15.42-90.03c0.02,6.02-1.02,11.92-1.24,17.86
		c-0.58,15.82-0.27,31.6,2.88,47.22c5.03,24.92,15.06,47.34,32.46,66.16c13.31,14.4,29.26,25.01,47.33,32.45
		c3.33,1.37,4.1,2.74,3.54,6.55c-2.6,17.73-2.41,35.48,1.73,53.02c9.85,41.73,40.31,67.56,81.69,75.48
		c0.51-17.96,1.02-35.81,1.53-53.66c-0.4-0.05-0.81-0.1-1.21-0.15c-6.74,7.96-13.47,15.91-20.21,23.87c-0.3-0.21-0.6-0.42-0.89-0.63
		c4.94-14.29,9.88-28.58,14.98-43.32c-17.08-3.12-33.44-6.1-49.79-9.08c0.05-0.47,0.11-0.94,0.16-1.41
		c16.39-2.92,32.78-5.84,49.66-8.86c-5.07-14.67-9.99-28.92-14.91-43.16c0.36-0.2,0.73-0.4,1.09-0.6c7.38,8.72,14.76,17.43,23,27.17
		c2.77-86.24,5.49-170.98,8.21-255.71c0.46,0.01,0.92,0.02,1.38,0.03c2.71,84.75,5.42,169.51,8.18,255.76
		c8.34-9.91,15.71-18.65,23.07-27.39c0.35,0.23,0.7,0.47,1.05,0.7c-4.94,14.31-9.88,28.62-14.9,43.17c17.04,3.08,33.45,6.04,49.85,9
		c-0.04,0.46-0.09,0.93-0.13,1.39c-16.4,2.96-32.81,5.93-49.69,8.97c5.17,15,10.11,29.33,15.05,43.66
		c-0.31,0.17-0.62,0.35-0.93,0.52c-6.85-8.11-13.7-16.22-20.55-24.33c-0.32,0.19-0.65,0.38-0.97,0.57
		c0.53,17.84,1.06,35.68,1.61,54.51c7.56-2.45,14.24-4.24,20.64-6.75c31.15-12.19,51.57-34.14,60.19-66.74
		c5.27-19.96,5.04-40.07,2.06-60.68c1.9-0.83,3.86-1.66,5.8-2.52c32.23-14.29,56.08-36.94,69.62-69.86
		c9.2-22.37,12.26-45.77,11.37-69.77c-0.28-7.55-1.07-15.08-1.63-22.62c0.42-0.07,0.84-0.13,1.27-0.2
		c11.72,28.57,17.12,58.15,14.47,89.33c-2.67,31.38-14.15,59.25-32.02,84.94c10.06-6.08,18.4-13.98,24.59-23.52
		c6.1-9.4,10.62-19.82,15.99-30.08c-0.4,17.98-1.75,35.82-5.89,53.2c-4.13,17.31-9.57,34.3-14.3,50.95
		c42.07-60.99,53.69-127.69,33.12-199.68c-8.04-28.12-21.88-53.45-40.21-76.24c-18.32-22.77-40.12-41.42-65.88-55.3
		c1.73,2.75,3.72,5.19,5.72,7.62c18.16,22.16,32.81,46.33,41.43,73.8c11.77,37.52,9.82,74.27-8.98,109.07
		c-13.24,24.51-32.32,42.4-61.48,46.69c-18.48,2.72-36.92-6.44-45.08-23.23c-9.8-20.15-15.06-41.28-14.18-63.88
		c1.15-29.43,13.77-52.89,36.38-71.19c6.51-5.27,13.66-9.76,20.67-14.72c-7-8.34-14.21-16.63-21.03-25.22
		c-2.43-3.06-4.25-3.58-7.76-1.64c-14.24,7.88-26.96,17.37-35.84,31.48c-0.51-21.18,7.89-39.25,19.42-56.44
		c-13.56-15.43-27.02-30.74-40.58-46.18c-0.91,0.79-1.45,1.16-1.87,1.64c-12.42,14.11-24.88,28.17-37.1,42.45
		c-0.89,1.04-0.52,3.89,0.21,5.46c4.41,9.42,9.66,18.49,13.52,28.13c3.12,7.81,4.85,16.24,3.69,25.77
		c-9.95-16.51-24.08-26.5-40.34-34.41c-8.39,10.01-16.44,19.62-24.81,29.6c14,6.97,25.49,16.19,35.21,27.51
		c12.81,14.91,20.38,32.29,22.14,51.85c2.12,23.52-2.73,45.94-12.62,67.27c-8.96,19.31-26.45,28.44-47.07,25.63
		c-21.27-2.89-37.52-14.14-50.22-30.47c-22.47-28.89-29.95-62.18-25.57-98.07c3.82-31.33,17.05-59.06,35.16-84.58
		c5.77-8.13,11.98-15.93,18.3-24.29C77.47,264.46,41.01,421.08,122.58,531.39z"/>
</g>
</svg>
